<?xml version="1.0" encoding="UTF-8" standalone="no"?>
<svg
   height="297mm"
   viewBox="0 0 533 754"
   width="210mm"
   version="1.1"
   id="svg1"
   sodipodi:docname="anubis102_H20_A4x2.svg"
   inkscape:version="1.3 (1:1.3+202307231459+0e150ed6c4)"
   xmlns:inkscape="http://www.inkscape.org/namespaces/inkscape"
   xmlns:sodipodi="http://sodipodi.sourceforge.net/DTD/sodipodi-0.dtd"
   xmlns="http://www.w3.org/2000/svg"
   xmlns:svg="http://www.w3.org/2000/svg">
  <defs
     id="defs1" />
  <sodipodi:namedview
     id="namedview1"
     pagecolor="#ffffff"
     bordercolor="#000000"
     borderopacity="0.25"
     inkscape:showpageshadow="2"
     inkscape:pageopacity="0.0"
     inkscape:pagecheckerboard="0"
     inkscape:deskcolor="#d1d1d1"
     inkscape:document-units="mm"
     showgrid="false"
     inkscape:zoom="0.67793911"
     inkscape:cx="921.9117"
     inkscape:cy="553.88455"
     inkscape:window-width="1560"
     inkscape:window-height="906"
     inkscape:window-x="180"
     inkscape:window-y="50"
     inkscape:window-maximized="0"
     inkscape:current-layer="svg1" />
  <style
     type="text/css"
     id="style1"><![CDATA[
			path {
				fill: none;
			}
		]]></style>
  <g
     id="page_001">
    <path
       d="M 103.5 305.1 L 104.0 305.5 L 105.3 305.8 L 99.7 308.8 M 106.8 308.3 L 106.2 307.7 L 105.1 307.6 L 103.6 308.0 L 102.8 308.5 L 101.6 309.4 L 101.1 310.4 L 101.3 311.3 L 101.6 311.9 L 102.3 312.5 L 103.4 312.6 L 104.8 312.2 L 105.6 311.7 L 106.8 310.8 L 107.3 309.8 L 107.1 308.9 L 106.9 308.5 M 84.4 255.2 L 79.5 253.8 L 81.0 258.0 M 84.4 255.2 L 78.5 257.3 M 86.4 260.6 L 81.4 259.2 L 82.9 263.5 M 86.4 260.6 L 80.4 262.8 M 46.4 194.6 L 41.3 195.3 L 44.3 198.6 M 46.4 194.6 L 41.8 198.9 M 49.9 199.9 L 50.2 199.3 L 49.8 198.4 L 49.4 197.9 L 48.5 197.5 L 47.5 197.7 L 46.2 198.4 L 45.1 199.5 L 44.4 200.5 L 44.3 201.3 L 44.7 202.2 L 44.9 202.4 L 45.8 202.9 L 46.6 202.9 L 47.5 202.5 L 47.7 202.3 L 48.2 201.5 L 48.2 200.7 L 47.8 199.8 L 47.6 199.6 L 46.8 199.1 L 45.9 199.1 L 45.1 199.5 M 52.3 161.4 L 49.6 163.4 L 49.7 160.4 L 49.0 160.9 L 48.3 161.0 L 47.9 160.9 L 47.1 160.4 L 46.8 159.9 L 46.5 159.0 L 46.6 158.1 L 47.2 157.4 L 47.9 156.8 L 48.8 156.6 L 49.2 156.6 L 49.8 156.9 M 45.9 166.1 L 45.9 160.9 L 42.3 163.5 M 45.9 166.1 L 42.3 161.0 M 183.5 136.6 L 186.1 141.0 L 187.9 136.9 M 183.5 136.6 L 189.2 139.2 M 185.9 134.8 L 185.9 134.2 L 185.4 133.0 L 191.2 135.6 M 78.4 114.5 L 78.7 114.5 L 79.3 114.9 L 79.5 115.2 L 79.8 115.8 L 79.7 117.0 L 79.3 117.6 L 79.0 117.8 L 78.3 118.1 L 77.8 118.0 L 77.2 117.7 L 76.3 117.0 L 73.7 113.7 L 73.2 117.9 M 79.3 121.1 L 79.0 120.2 L 78.5 119.9 L 77.9 119.8 L 77.3 120.0 L 76.9 120.6 L 76.5 121.8 L 76.1 122.6 L 75.4 123.2 L 74.8 123.4 L 73.9 123.3 L 73.3 123.0 L 73.1 122.6 L 72.9 121.7 L 73.0 120.5 L 73.4 119.7 L 73.7 119.4 L 74.3 119.1 L 75.2 119.2 L 75.8 119.6 L 76.3 120.2 L 76.5 121.2 L 76.7 122.4 L 77.0 123.0 L 77.5 123.4 L 78.1 123.4 L 78.8 123.2 L 79.1 122.3 L 79.3 121.0 M 83.6 71.1 L 83.9 71.1 L 84.4 71.5 L 84.7 71.9 L 84.9 72.5 L 84.8 73.7 L 84.4 74.2 L 84.1 74.5 L 83.4 74.7 L 82.8 74.6 L 82.3 74.3 L 81.5 73.5 L 78.9 70.2 L 78.3 74.3 M 83.1 79.8 L 83.7 79.5 L 84.1 78.7 L 84.2 78.1 L 84.0 77.2 L 83.2 76.4 L 81.7 76.0 L 80.3 75.8 L 79.0 75.9 L 78.4 76.4 L 77.9 77.3 L 77.9 77.6 L 78.1 78.5 L 78.6 79.2 L 79.4 79.6 L 79.7 79.6 L 80.7 79.4 L 81.3 78.9 L 81.8 78.1 L 81.8 77.8 L 81.6 76.8 L 81.1 76.2 L 80.3 75.8 M 196.3 84.1 L 200.4 87.3 L 200.6 82.8 M 196.3 84.1 L 202.6 84.4 M 198.0 81.0 L 197.7 81.0 L 197.1 80.6 L 196.9 80.3 L 196.6 79.7 L 196.6 78.5 L 197.0 77.9 L 197.3 77.6 L 197.9 77.4 L 198.5 77.4 L 199.1 77.7 L 200.0 78.4 L 202.8 81.5 L 203.0 77.3 M 145.3 59.8 L 148.3 55.6 L 143.8 55.6 M 145.3 59.8 L 145.3 53.5 M 139.1 59.8 L 142.1 59.8 L 142.4 57.1 L 142.1 57.4 L 141.2 57.7 L 140.3 57.7 L 139.4 57.4 L 138.8 56.8 L 138.5 55.9 L 138.4 55.3 L 138.7 54.4 L 139.3 53.8 L 140.2 53.5 L 141.1 53.5 L 142.0 53.8 L 142.3 54.1 L 142.6 54.7 M 181.1 273.0 L 184.1 277.2 L 185.6 272.9 M 181.1 273.0 L 187.1 275.0 M 183.2 267.1 L 182.3 269.9 L 184.7 271.1 L 184.5 270.7 L 184.5 269.8 L 184.8 268.9 L 185.4 268.2 L 186.2 267.8 L 187.1 267.8 L 187.7 268.0 L 188.4 268.6 L 188.8 269.3 L 188.8 270.3 L 188.5 271.1 L 187.9 271.9 L 187.5 272.1 L 186.9 272.2 M 135.8 325.2 L 136.4 325.0 L 137.3 324.1 L 137.1 330.4 M 139.1 323.9 L 142.4 324.1 L 140.5 326.4 L 141.4 326.4 L 142.0 326.7 L 142.2 327.1 L 142.5 328.0 L 142.5 328.6 L 142.2 329.5 L 141.5 330.0 L 140.6 330.3 L 139.7 330.3 L 138.8 329.9 L 138.6 329.6 L 138.3 329.0 M 211.4 167.5 L 213.9 163.0 L 209.4 163.5 M 211.4 167.5 L 210.7 161.2 M 208.7 166.3 L 208.1 166.7 L 207.3 167.7 L 206.6 161.4 M 214.2 183.9 L 216.9 188.3 L 218.6 184.2 M 214.2 183.9 L 220.0 186.4 M 216.9 181.6 L 216.6 181.5 L 216.2 181.0 L 216.0 180.6 L 216.0 179.9 L 216.4 178.8 L 217.0 178.4 L 217.3 178.3 L 218.0 178.2 L 218.6 178.5 L 219.0 179.0 L 219.6 179.9 L 221.2 183.8 L 222.8 180.0 M 436.2 206.8 L 435.9 206.8 L 435.2 206.5 L 434.9 206.2 L 434.6 205.6 L 434.6 204.4 L 434.9 203.8 L 435.2 203.5 L 435.8 203.2 L 436.4 203.2 L 437.0 203.5 L 437.9 204.1 L 441.0 207.0 L 440.9 202.8 M 436.6 197.8 L 437.5 198.1 L 438.2 198.7 L 438.5 199.6 L 438.5 199.9 L 438.2 200.8 L 437.6 201.4 L 436.7 201.7 L 436.4 201.7 L 435.5 201.4 L 434.9 200.9 L 434.6 200.0 L 434.6 199.7 L 434.9 198.8 L 435.4 198.1 L 436.6 197.8 L 438.1 197.8 L 439.6 198.1 L 440.6 198.7 L 440.9 199.6 L 440.9 200.2 L 440.6 201.1 L 440.0 201.4 M 309.3 221.2 L 310.8 218.6 L 308.6 216.9 L 308.7 217.4 L 308.5 218.3 L 308.1 219.1 L 307.4 219.7 L 306.6 219.9 L 305.6 219.7 L 305.1 219.4 L 304.5 218.7 L 304.3 217.9 L 304.5 217.0 L 304.9 216.2 L 305.6 215.6 L 306.0 215.4 L 306.7 215.5 M 306.9 222.4 L 307.1 222.5 L 307.5 223.1 L 307.6 223.5 L 307.6 224.2 L 307.0 225.2 L 306.4 225.6 L 306.0 225.7 L 305.4 225.6 L 304.8 225.3 L 304.5 224.8 L 304.0 223.8 L 302.9 219.7 L 300.8 223.4 M 446.5 240.0 L 451.6 239.5 L 448.6 236.1 M 446.5 240.0 L 451.2 235.8 M 442.1 234.9 L 448.8 233.0 M 444.9 238.0 L 442.1 234.9 M 222.6 292.7 L 219.6 293.4 L 219.9 296.1 L 220.2 295.7 L 221.0 295.2 L 221.9 295.0 L 222.8 295.1 L 223.5 295.6 L 224.0 296.4 L 224.1 297.0 L 224.0 297.9 L 223.6 298.6 L 222.8 299.1 L 221.9 299.3 L 221.0 299.2 L 220.6 299.0 L 220.2 298.5 M 227.8 291.5 L 224.8 292.2 L 225.1 294.9 L 225.4 294.5 L 226.2 294.0 L 227.1 293.8 L 228.0 293.9 L 228.7 294.4 L 229.2 295.2 L 229.3 295.8 L 229.2 296.7 L 228.8 297.5 L 228.0 297.9 L 227.1 298.1 L 226.2 298.0 L 225.8 297.8 L 225.4 297.3 M 432.3 258.7 L 434.6 256.3 L 435.1 259.2 L 435.7 258.6 L 436.4 258.3 L 436.8 258.3 L 437.6 258.7 L 438.1 259.1 L 438.5 259.9 L 438.6 260.8 L 438.2 261.6 L 437.6 262.3 L 436.8 262.8 L 436.3 262.8 L 435.7 262.6 M 438.0 252.6 L 435.9 254.8 L 437.7 256.8 L 437.7 256.4 L 438.1 255.5 L 438.7 254.9 L 439.5 254.4 L 440.4 254.4 L 441.3 254.8 L 441.7 255.2 L 442.2 256.0 L 442.2 256.8 L 441.8 257.7 L 441.2 258.4 L 440.4 258.8 L 439.9 258.9 L 439.3 258.7 M 265.7 262.9 L 268.6 262.4 L 268.5 259.7 L 268.2 260.0 L 267.4 260.4 L 266.5 260.6 L 265.6 260.4 L 264.9 259.9 L 264.4 259.1 L 264.3 258.5 L 264.5 257.6 L 265.0 256.9 L 265.8 256.4 L 266.7 256.3 L 267.7 256.4 L 268.0 256.7 L 268.4 257.2 M 263.4 263.2 L 260.1 263.8 L 261.5 261.1 L 260.6 261.2 L 260.0 261.0 L 259.6 260.8 L 259.2 260.0 L 259.1 259.4 L 259.2 258.4 L 259.7 257.7 L 260.6 257.3 L 261.5 257.1 L 262.4 257.3 L 262.7 257.5 L 263.1 258.1 M 263.5 301.4 L 262.0 298.8 L 259.5 300.0 L 259.9 300.1 L 260.7 300.7 L 261.1 301.5 L 261.3 302.4 L 261.1 303.2 L 260.5 303.9 L 260.0 304.2 L 259.1 304.5 L 258.3 304.3 L 257.5 303.6 L 257.1 302.9 L 256.9 301.9 L 257.0 301.5 L 257.3 301.0 M 266.1 305.6 L 261.0 305.2 L 263.3 309.0 M 266.1 305.6 L 260.7 308.8 M 440.0 317.3 L 438.2 314.6 L 441.1 314.7 L 440.6 313.9 L 440.5 313.3 L 440.6 312.8 L 441.2 312.1 L 441.7 311.7 L 442.6 311.5 L 443.4 311.6 L 444.2 312.2 L 444.7 312.9 L 445.0 313.8 L 444.9 314.2 L 444.6 314.8 M 435.0 310.1 L 441.9 308.9 M 437.4 313.5 L 435.0 310.1 M 410.8 334.4 L 414.1 334.1 L 412.5 336.7 L 413.4 336.6 L 414.0 336.8 L 414.4 337.1 L 414.8 338.0 L 414.8 338.6 L 414.6 339.5 L 414.1 340.1 L 413.2 340.5 L 412.3 340.6 L 411.4 340.4 L 411.0 340.1 L 410.7 339.6 M 417.0 333.8 L 416.2 334.2 L 415.9 334.8 L 416.0 335.4 L 416.3 336.0 L 417.0 336.2 L 418.2 336.4 L 419.1 336.6 L 419.8 337.2 L 420.1 337.8 L 420.2 338.6 L 420.0 339.3 L 419.7 339.6 L 418.8 340.0 L 417.6 340.1 L 416.7 339.9 L 416.4 339.6 L 416.0 339.1 L 415.9 338.2 L 416.2 337.5 L 416.7 336.9 L 417.6 336.5 L 418.7 336.1 L 419.3 335.7 L 419.6 335.1 L 419.5 334.5 L 419.1 333.9 L 418.2 333.7 L 416.9 333.8 M 327.7 339.5 L 324.7 339.6 L 324.5 342.3 L 324.8 342.0 L 325.7 341.7 L 326.6 341.7 L 327.5 341.9 L 328.1 342.5 L 328.4 343.4 L 328.4 344.0 L 328.1 344.9 L 327.5 345.5 L 326.7 345.9 L 325.8 345.9 L 324.8 345.6 L 324.5 345.3 L 324.2 344.7 M 330.0 341.0 L 330.0 340.7 L 330.3 340.1 L 330.6 339.8 L 331.2 339.5 L 332.4 339.4 L 333.0 339.7 L 333.3 340.0 L 333.6 340.6 L 333.6 341.2 L 333.3 341.8 L 332.7 342.7 L 329.8 345.8 L 334.0 345.7 M 283.1 327.3 L 281.1 325.1 L 278.9 326.7 L 279.3 326.7 L 280.1 327.2 L 280.7 327.9 L 281.1 328.7 L 281.0 329.6 L 280.6 330.4 L 280.1 330.8 L 279.3 331.2 L 278.4 331.1 L 277.6 330.7 L 277.0 330.0 L 276.6 329.1 L 276.6 328.7 L 276.9 328.1 M 284.6 329.1 L 286.9 331.5 L 283.9 331.8 L 284.5 332.5 L 284.6 333.1 L 284.6 333.5 L 284.2 334.4 L 283.7 334.8 L 282.8 335.1 L 282.0 335.1 L 281.2 334.6 L 280.6 334.0 L 280.2 333.1 L 280.2 332.7 L 280.5 332.0 M 450.5 158.3 L 452.7 155.8 L 453.3 158.7 L 453.9 158.1 L 454.5 157.8 L 454.9 157.8 L 455.8 158.1 L 456.3 158.5 L 456.7 159.3 L 456.8 160.2 L 456.5 161.1 L 455.9 161.7 L 455.1 162.2 L 454.6 162.3 L 454.0 162.1 M 454.6 155.7 L 454.8 155.0 L 454.7 153.8 L 459.5 157.9 M 360.8 149.9 L 358.7 152.5 L 358.0 149.5 L 357.5 150.2 L 356.9 150.5 L 356.4 150.5 L 355.5 150.2 L 355.1 149.8 L 354.6 149.0 L 354.5 148.1 L 354.9 147.3 L 355.4 146.6 L 356.3 146.1 L 356.7 146.0 L 357.3 146.2 M 356.8 154.7 L 357.2 153.8 L 356.9 153.2 L 356.5 152.8 L 355.8 152.7 L 355.2 153.0 L 354.2 153.7 L 353.4 154.2 L 352.5 154.2 L 351.9 154.1 L 351.2 153.5 L 350.9 152.9 L 350.9 152.5 L 351.2 151.6 L 352.0 150.7 L 352.8 150.2 L 353.2 150.1 L 353.9 150.3 L 354.6 150.9 L 354.8 151.5 L 354.9 152.3 L 354.6 153.2 L 354.0 154.3 L 353.9 155.0 L 354.1 155.6 L 354.6 156.0 L 355.3 156.1 L 356.1 155.6 L 356.9 154.6 M 469.1 128.7 L 469.2 125.4 L 471.5 127.3 L 471.5 126.4 L 471.9 125.8 L 472.2 125.5 L 473.1 125.2 L 473.7 125.2 L 474.6 125.6 L 475.1 126.2 L 475.4 127.1 L 475.4 128.0 L 475.1 128.9 L 474.7 129.2 L 474.1 129.4 M 470.7 123.5 L 470.4 123.5 L 469.8 123.1 L 469.6 122.8 L 469.3 122.2 L 469.3 121.0 L 469.6 120.4 L 469.9 120.1 L 470.6 119.9 L 471.2 119.9 L 471.7 120.2 L 472.6 120.8 L 475.5 123.9 L 475.7 119.7 M 400.5 74.6 L 399.7 77.8 L 397.8 75.5 L 397.6 76.4 L 397.2 76.9 L 396.8 77.1 L 395.9 77.1 L 395.3 77.0 L 394.5 76.5 L 394.1 75.8 L 394.0 74.8 L 394.2 73.9 L 394.7 73.1 L 395.1 72.9 L 395.8 72.8 M 398.4 83.2 L 393.0 78.7 M 399.4 79.1 L 398.4 83.2 M 430.7 51.2 L 427.4 51.2 L 429.2 48.8 L 428.3 48.8 L 427.7 48.5 L 427.4 48.2 L 427.1 47.3 L 427.1 46.7 L 427.4 45.8 L 428.0 45.2 L 428.9 44.9 L 429.8 44.9 L 430.7 45.2 L 431.0 45.5 L 431.3 46.1 M 422.3 51.2 L 425.3 51.2 L 425.6 48.5 L 425.3 48.8 L 424.4 49.1 L 423.5 49.1 L 422.6 48.8 L 422.0 48.2 L 421.7 47.3 L 421.7 46.7 L 422.0 45.8 L 422.6 45.2 L 423.5 44.9 L 424.4 44.9 L 425.3 45.2 L 425.6 45.5 L 425.9 46.1 M 459.0 82.9 L 457.8 79.8 L 460.7 80.6 L 460.4 79.8 L 460.4 79.1 L 460.6 78.7 L 461.3 78.1 L 461.9 77.9 L 462.8 77.8 L 463.6 78.2 L 464.2 78.9 L 464.5 79.7 L 464.6 80.7 L 464.4 81.1 L 464.0 81.6 M 456.8 74.8 L 456.3 75.3 L 456.4 76.3 L 456.6 76.8 L 457.2 77.5 L 458.3 77.8 L 459.8 77.5 L 461.2 76.9 L 462.2 76.2 L 462.5 75.4 L 462.5 74.5 L 462.3 74.2 L 461.7 73.5 L 461.0 73.2 L 460.0 73.2 L 459.7 73.3 L 459.0 73.9 L 458.7 74.7 L 458.7 75.7 L 458.8 75.9 L 459.4 76.7 L 460.2 77.0 L 461.2 76.9 M 216.7 282.6 L 217.4 279.7 L 214.9 278.7 L 215.1 279.1 L 215.2 280.0 L 215.0 280.9 L 214.4 281.7 L 213.7 282.1 L 212.7 282.1 L 212.2 282.0 L 211.4 281.5 L 211.0 280.7 L 210.9 279.8 L 211.1 278.9 L 211.7 278.1 L 212.0 277.9 L 212.7 277.8 M 215.3 287.7 L 216.1 284.8 L 213.5 283.8 L 213.7 284.2 L 213.8 285.2 L 213.6 286.0 L 213.0 286.8 L 212.3 287.2 L 211.4 287.3 L 210.8 287.1 L 210.0 286.6 L 209.6 285.9 L 209.5 284.9 L 209.7 284.1 L 210.3 283.3 L 210.6 283.1 L 211.3 282.9 M 230.9 266.4 L 233.9 266.4 L 234.2 263.7 L 233.9 264.0 L 233.0 264.3 L 232.1 264.3 L 231.2 264.0 L 230.6 263.4 L 230.3 262.5 L 230.3 261.9 L 230.6 261.0 L 231.2 260.4 L 232.1 260.1 L 233.0 260.1 L 233.9 260.4 L 234.2 260.7 L 234.5 261.3 M 226.0 266.4 L 229.0 262.2 L 224.5 262.2 M 226.0 266.4 L 226.0 260.1"
       id="nums_001"
       stroke="black"
       stroke-width="1" />
    <path
       d="M 235,156.5 210.6,213.4 169,333.3 109.8,331.1 88.9,292.4 66,228.3 18,175.9 l 51.2,-36.7 4,-41 6.1,-46.2 126.9,-1 -2.9,61.9 -22.4,49.6 z m 208.1,66.9 16,18.4 -35.1,38.2 40.3,57.6 -96.3,9.2 -76.8,1.8 -26.4,-29.1 -14.8,-24.5 -48.2,10.8 12.9,-47.7 h 28.7 l 38.8,-6.3 38.3,-66.6 62.2,-74.1 17.4,-68.1 51.9,-0.1 26,65.3 -1.1,32 -34.3,40 z"
       id="coupes_001"
       stroke="#ff0000"
       stroke-width="1.27"
       sodipodi:nodetypes="cccccccccccccccccccccccccccccccccc" />
    <path
       d="M 88.9 292.4 L 210.6 213.4 M 210.6 213.4 L 109.8 331.1 M 66.0 228.3 L 210.6 213.4 M 66.0 228.3 L 180.9 162.5 M 180.9 162.5 L 210.6 213.4 M 18.0 175.9 L 180.9 162.5 M 69.2 139.2 L 180.9 162.5 M 69.2 139.2 L 203.3 112.9 M 73.2 98.2 L 203.3 112.9 M 79.3 52.0 L 203.3 112.9 M 282.2 251.8 L 442.6 180.2 M 443.1 223.4 L 250.0 295.0 M 459.1 241.8 L 250.0 295.0 M 201.8 305.8 L 282.2 251.8 M 424.0 280.0 L 250.0 295.0 M 201.8 305.8 L 243.4 258.1 M 464.3 337.6 L 264.8 319.5 M 368.0 346.8 L 264.8 319.5 M 320.5 185.2 L 476.9 140.2 M 382.7 111.1 L 476.9 140.2 M 382.7 111.1 L 478.0 108.2"
       id="plisM_001"
       stroke="brown"
       stroke-dasharray="4" />
    <path
       d="M 147.7 250.9 L 151.7 254.9 M 151.7 250.9 L 147.7 254.9 M 158.2 270.2 L 162.2 274.2 M 162.2 270.2 L 158.2 274.2 M 136.3 218.8 L 140.3 222.8 M 140.3 218.8 L 136.3 222.8 M 121.5 193.4 L 125.5 197.4 M 125.5 193.4 L 121.5 197.4 M 193.7 185.9 L 197.7 189.9 M 197.7 185.9 L 193.7 189.9 M 97.4 167.2 L 101.4 171.2 M 101.4 167.2 L 97.4 171.2 M 123.1 148.9 L 127.1 152.9 M 127.1 148.9 L 123.1 152.9 M 134.2 124.0 L 138.2 128.0 M 138.2 124.0 L 134.2 128.0 M 136.2 103.5 L 140.2 107.5 M 140.2 103.5 L 136.2 107.5 M 139.3 80.4 L 143.3 84.4 M 143.3 80.4 L 139.3 84.4 M 360.4 214.0 L 364.4 218.0 M 364.4 214.0 L 360.4 218.0 M 344.6 257.2 L 348.6 261.2 M 348.6 257.2 L 344.6 261.2 M 352.5 266.4 L 356.5 270.4 M 356.5 266.4 L 352.5 270.4 M 240.0 276.8 L 244.0 280.8 M 244.0 276.8 L 240.0 280.8 M 335.0 285.5 L 339.0 289.5 M 339.0 285.5 L 335.0 289.5 M 220.6 280.0 L 224.6 284.0 M 224.6 280.0 L 220.6 284.0 M 362.6 326.5 L 366.6 330.5 M 366.6 326.5 L 362.6 330.5 M 314.4 331.2 L 318.4 335.2 M 318.4 331.2 L 314.4 335.2 M 396.7 160.7 L 400.7 164.7 M 400.7 160.7 L 396.7 164.7 M 427.8 123.7 L 431.8 127.7 M 431.8 123.7 L 427.8 127.7 M 428.3 107.7 L 432.3 111.7 M 432.3 107.7 L 428.3 111.7"
       display="none"
       id="marqueM_001"
       stroke="brown" />
    <path
       d="M 443.1 223.4 L 282.2 251.8 M 250.0 295.0 L 282.2 251.8 M 320.5 185.2 L 442.6 180.2 M 424.0 280.0 L 264.8 319.5 M 400.1 43.0 L 478.0 108.2"
       id="plisV_001"
       stroke="green"
       stroke-dasharray="4 1 1 1"
       stroke-width="1.27" />
    <path
       d="M 360.6 235.6 L 364.6 239.6 M 364.6 235.6 L 360.6 239.6 M 264.1 271.4 L 268.1 275.4 M 268.1 271.4 L 264.1 275.4 M 379.5 180.7 L 383.5 184.7 M 383.5 180.7 L 379.5 184.7 M 342.4 297.7 L 346.4 301.7 M 346.4 297.7 L 342.4 301.7 M 437.1 73.6 L 441.1 77.6 M 441.1 73.6 L 437.1 77.6"
       id="marqueV_001"
       stroke="green" />
    <path
       d="M 150.2 192.5 L 151.7 191.8 L 154.0 189.5 L 154.0 205.3"
       id="titre_1"
       stroke="indigo" />
    <path
       d="M 343.9 197.1 L 343.9 196.4 L 344.6 194.9 L 345.4 194.1 L 346.9 193.4 L 349.9 193.4 L 351.4 194.1 L 352.1 194.9 L 352.9 196.4 L 352.9 197.9 L 352.1 199.4 L 350.6 201.6 L 343.1 209.1 L 353.6 209.1"
       id="titre_2"
       stroke="indigo" />
  </g>
  <g
     id="page_002">
    <path
       d="M 764.1 598.3 L 763.9 601.3 L 766.6 601.7 L 766.3 601.4 L 766.1 600.5 L 766.1 599.6 L 766.4 598.7 L 767.1 598.2 L 768.0 597.9 L 768.6 597.9 L 769.5 598.3 L 770.0 598.9 L 770.3 599.8 L 770.3 600.7 L 769.9 601.6 L 769.6 601.9 L 769.0 602.1 M 764.2 594.8 L 764.5 595.7 L 765.3 596.3 L 766.8 596.7 L 767.7 596.7 L 769.2 596.5 L 770.2 595.9 L 770.5 595.1 L 770.5 594.5 L 770.3 593.5 L 769.4 592.9 L 767.9 592.5 L 767.0 592.5 L 765.5 592.7 L 764.6 593.3 L 764.2 594.2 L 764.2 594.6 M 667.5 609.6 L 667.5 606.6 L 664.8 606.2 L 665.1 606.5 L 665.4 607.4 L 665.4 608.3 L 665.1 609.2 L 664.4 609.8 L 663.5 610.1 L 662.9 610.1 L 662.0 609.8 L 661.5 609.2 L 661.2 608.3 L 661.2 607.4 L 661.5 606.5 L 661.8 606.2 L 662.4 605.9 M 666.0 611.2 L 666.3 611.8 L 667.2 612.7 L 660.9 612.7 M 781.6 527.8 L 783.4 525.0 L 784.4 527.8 L 784.9 527.1 L 785.5 526.7 L 785.9 526.6 L 786.8 526.9 L 787.3 527.2 L 787.9 527.9 L 788.1 528.7 L 787.9 529.7 L 787.4 530.4 L 786.7 531.0 L 786.3 531.1 L 785.6 531.0 M 785.8 521.1 L 787.7 525.9 L 790.2 522.1 M 785.8 521.1 L 791.1 524.5 M 797.8 487.9 L 797.5 488.0 L 796.8 487.9 L 796.5 487.6 L 796.0 487.1 L 795.7 486.0 L 795.9 485.3 L 796.1 484.9 L 796.6 484.5 L 797.2 484.4 L 797.8 484.5 L 798.9 484.9 L 802.5 487.1 L 801.5 483.0 M 794.7 481.9 L 795.2 482.7 L 795.9 482.9 L 796.5 482.7 L 797.0 482.3 L 797.1 481.6 L 797.1 480.4 L 797.2 479.5 L 797.7 478.7 L 798.2 478.3 L 799.0 478.1 L 799.7 478.2 L 800.1 478.5 L 800.6 479.3 L 800.9 480.4 L 800.8 481.4 L 800.6 481.7 L 800.1 482.2 L 799.2 482.4 L 798.5 482.2 L 797.8 481.8 L 797.3 481.0 L 796.7 479.9 L 796.3 479.4 L 795.6 479.2 L 795.0 479.4 L 794.5 479.8 L 794.5 480.8 L 794.8 482.1 M 707.8 483.0 L 708.0 483.2 L 708.4 483.8 L 708.5 484.2 L 708.5 484.8 L 707.9 485.9 L 707.4 486.3 L 706.9 486.4 L 706.3 486.3 L 705.7 486.0 L 705.4 485.5 L 704.9 484.5 L 703.8 480.4 L 701.7 484.1 M 704.6 491.7 L 700.6 486.0 M 706.7 488.1 L 704.6 491.7 M 793.1 442.6 L 792.8 442.6 L 792.2 442.3 L 792.0 441.9 L 791.7 441.3 L 791.8 440.1 L 792.2 439.5 L 792.5 439.3 L 793.1 439.0 L 793.7 439.1 L 794.3 439.4 L 795.1 440.1 L 797.9 443.4 L 798.2 439.2 M 793.3 434.0 L 792.6 434.2 L 792.3 435.1 L 792.2 435.7 L 792.4 436.6 L 793.3 437.3 L 794.7 437.7 L 796.2 437.8 L 797.5 437.6 L 798.1 437.1 L 798.5 436.2 L 798.5 435.9 L 798.3 435.0 L 797.8 434.4 L 796.9 434.0 L 796.6 434.0 L 795.7 434.2 L 795.0 434.7 L 794.6 435.6 L 794.6 435.9 L 794.8 436.8 L 795.4 437.5 L 796.2 437.8 M 733.2 407.8 L 733.4 408.4 L 734.1 409.5 L 727.9 408.3 M 733.8 412.1 L 733.7 411.2 L 733.2 410.8 L 732.6 410.7 L 731.9 410.8 L 731.5 411.4 L 731.0 412.5 L 730.6 413.3 L 729.9 413.8 L 729.2 414.0 L 728.3 413.8 L 727.8 413.4 L 727.6 413.1 L 727.4 412.1 L 727.7 411.0 L 728.1 410.1 L 728.5 409.9 L 729.1 409.7 L 730.0 409.9 L 730.5 410.3 L 731.0 411.0 L 731.1 411.9 L 731.2 413.2 L 731.4 413.8 L 731.9 414.2 L 732.5 414.3 L 733.2 414.1 L 733.6 413.3 L 733.9 412.0 M 794.6 389.6 L 794.3 389.0 L 793.3 388.2 L 799.6 388.0 M 793.1 386.4 L 792.9 383.1 L 795.4 384.9 L 795.4 384.0 L 795.7 383.4 L 795.9 383.0 L 796.8 382.7 L 797.4 382.7 L 798.3 383.0 L 799.0 383.5 L 799.3 384.4 L 799.3 385.3 L 799.1 386.2 L 798.8 386.5 L 798.2 386.9 M 813.3 341.6 L 813.7 341.0 L 814.1 339.8 L 817.0 345.5 M 816.7 338.3 L 816.0 339.0 L 815.9 340.1 L 816.3 341.5 L 816.7 342.3 L 817.6 343.5 L 818.6 344.1 L 819.5 343.9 L 820.0 343.7 L 820.7 343.0 L 820.8 341.9 L 820.4 340.4 L 820.0 339.6 L 819.1 338.4 L 818.1 337.9 L 817.2 338.0 L 816.8 338.2 M 720.6 282.5 L 722.0 277.6 L 717.7 279.1 M 720.6 282.5 L 718.4 276.6 M 717.5 283.5 L 714.4 284.7 L 715.3 281.8 L 714.4 282.1 L 713.8 282.0 L 713.4 281.8 L 712.8 281.1 L 712.6 280.5 L 712.6 279.6 L 712.9 278.8 L 713.7 278.2 L 714.5 277.9 L 715.5 277.9 L 715.9 278.1 L 716.3 278.5 M 668.8 307.2 L 667.8 302.1 L 664.7 305.4 M 668.8 307.2 L 664.2 302.9 M 665.7 310.4 L 666.1 309.5 L 665.8 308.5 L 665.0 307.2 L 664.3 306.6 L 663.0 305.8 L 661.9 305.6 L 661.1 306.1 L 660.7 306.5 L 660.3 307.4 L 660.5 308.4 L 661.4 309.7 L 662.1 310.3 L 663.4 311.1 L 664.4 311.3 L 665.3 310.8 L 665.6 310.5 M 707.2 407.2 L 707.2 406.5 L 706.8 405.3 L 712.4 408.1 M 707.8 402.9 L 707.6 403.8 L 708.0 404.3 L 708.6 404.6 L 709.2 404.6 L 709.8 404.2 L 710.6 403.3 L 711.2 402.6 L 712.0 402.3 L 712.7 402.3 L 713.5 402.7 L 713.9 403.2 L 714.1 403.6 L 713.9 404.6 L 713.4 405.7 L 712.7 406.3 L 712.3 406.5 L 711.7 406.5 L 710.9 406.1 L 710.5 405.5 L 710.2 404.7 L 710.3 403.8 L 710.6 402.6 L 710.6 401.9 L 710.2 401.4 L 709.6 401.1 L 709.0 401.1 L 708.3 401.8 L 707.7 403.0 M 600.5 409.6 L 595.6 407.8 L 596.8 412.1 M 600.5 409.6 L 594.4 411.3 M 602.2 416.0 L 595.4 414.9 M 601.1 412.0 L 602.2 416.0 M 656.6 460.1 L 656.5 459.9 L 656.4 459.2 L 656.5 458.8 L 656.9 458.2 L 657.9 457.6 L 658.6 457.5 L 659.0 457.7 L 659.5 458.0 L 659.8 458.5 L 659.9 459.2 L 659.8 460.3 L 658.8 464.4 L 662.4 462.2 M 663.6 454.2 L 664.3 461.1 M 660.0 456.3 L 663.6 454.2 M 619.9 447.8 L 614.8 447.5 L 617.2 451.3 M 619.9 447.8 L 614.6 451.2 M 622.1 451.4 L 621.4 450.8 L 620.7 450.9 L 620.2 451.2 L 619.8 451.7 L 619.9 452.4 L 620.3 453.6 L 620.5 454.5 L 620.3 455.3 L 619.9 455.9 L 619.2 456.4 L 618.5 456.4 L 618.1 456.3 L 617.4 455.7 L 616.7 454.7 L 616.5 453.8 L 616.6 453.4 L 617.0 452.8 L 617.7 452.3 L 618.4 452.3 L 619.2 452.5 L 620.0 453.1 L 620.8 453.9 L 621.4 454.3 L 622.1 454.2 L 622.6 453.9 L 622.9 453.3 L 622.7 452.4 L 622.0 451.3 M 810.1 226.6 L 809.4 226.6 L 808.2 226.9 L 811.5 221.5 M 804.5 223.8 L 804.4 224.5 L 805.1 225.2 L 805.6 225.5 L 806.5 225.7 L 807.5 225.3 L 808.5 224.2 L 809.3 222.9 L 809.7 221.7 L 809.5 220.9 L 808.8 220.2 L 808.6 220.0 L 807.7 219.8 L 806.8 220.0 L 806.1 220.6 L 806.0 220.9 L 805.8 221.8 L 806.0 222.6 L 806.6 223.3 L 806.8 223.5 L 807.7 223.7 L 808.6 223.5 L 809.3 222.9 M 741.0 199.5 L 741.5 198.6 L 742.2 198.2 L 743.1 198.0 L 743.4 198.1 L 744.2 198.6 L 744.7 199.3 L 744.8 200.2 L 744.8 200.5 L 744.3 201.3 L 743.6 201.8 L 742.6 201.9 L 742.4 201.9 L 741.5 201.4 L 741.1 200.7 L 741.0 199.5 L 741.3 198.0 L 741.9 196.6 L 742.6 195.8 L 743.6 195.7 L 744.2 195.8 L 745.0 196.3 L 745.2 196.9 M 710.7 249.8 L 707.5 253.8 L 712.0 254.0 M 710.7 249.8 L 710.4 256.1 M 714.0 250.0 L 717.3 250.1 L 715.3 252.5 L 716.2 252.5 L 716.8 252.8 L 717.1 253.1 L 717.4 254.0 L 717.3 254.6 L 717.0 255.5 L 716.4 256.1 L 715.5 256.4 L 714.6 256.3 L 713.7 256.0 L 713.4 255.7 L 713.1 255.0 M 631.6 243.7 L 634.9 244.1 L 632.8 246.3 L 633.7 246.4 L 634.3 246.8 L 634.6 247.1 L 634.8 248.0 L 634.7 248.6 L 634.3 249.5 L 633.6 250.0 L 632.7 250.2 L 631.8 250.1 L 631.0 249.7 L 630.7 249.4 L 630.5 248.7 M 640.0 246.8 L 639.6 247.6 L 638.9 248.2 L 638.0 248.4 L 637.7 248.3 L 636.8 247.9 L 636.3 247.3 L 636.1 246.3 L 636.1 246.0 L 636.5 245.2 L 637.2 244.7 L 638.1 244.5 L 638.4 244.5 L 639.3 244.9 L 639.8 245.6 L 640.0 246.8 L 639.8 248.3 L 639.3 249.7 L 638.7 250.6 L 637.7 250.8 L 637.1 250.7 L 636.3 250.3 L 636.0 249.7 M 609.3 225.9 L 609.6 226.5 L 610.5 227.4 L 604.2 227.5 M 601.2 182.7 L 600.6 181.9 L 599.5 181.7 L 598.0 182.1 L 597.2 182.4 L 596.0 183.3 L 595.4 184.2 L 595.4 185.1 L 595.7 185.7 L 596.3 186.4 L 597.4 186.6 L 598.9 186.3 L 599.7 185.9 L 601.0 185.1 L 601.6 184.2 L 601.5 183.2 L 601.3 182.8 M 585.9 131.5 L 586.2 131.5 L 586.9 131.6 L 587.2 131.9 L 587.6 132.4 L 587.9 133.6 L 587.7 134.2 L 587.4 134.6 L 586.9 135.0 L 586.3 135.1 L 585.7 134.9 L 584.7 134.5 L 581.2 132.1 L 581.9 136.2 M 654.7 110.9 L 654.6 110.2 L 654.1 109.1 L 660.0 111.1 M 655.4 104.5 L 654.4 107.4 L 656.9 108.5 L 656.7 108.1 L 656.7 107.2 L 657.0 106.3 L 657.6 105.6 L 658.3 105.2 L 659.3 105.2 L 659.9 105.4 L 660.6 106.0 L 661.0 106.7 L 661.0 107.7 L 660.7 108.5 L 660.1 109.3 L 659.7 109.5 L 659.1 109.6 M 570.6 74.9 L 563.6 74.7 M 568.9 71.1 L 570.6 74.9 M 563.9 51.1 L 566.2 49.1 L 564.6 46.9 L 564.6 47.3 L 564.1 48.1 L 563.4 48.7 L 562.6 49.1 L 561.7 49.1 L 560.9 48.6 L 560.5 48.2 L 560.1 47.3 L 560.1 46.4 L 560.6 45.6 L 561.3 45.0 L 562.1 44.6 L 562.6 44.7 L 563.2 44.9 M 675.3 74.2 L 675.7 79.3 L 679.1 76.5 M 675.3 74.2 L 679.3 79.1 M 678.8 71.4 L 678.3 72.2 L 678.4 73.3 L 679.1 74.7 L 679.7 75.4 L 680.9 76.3 L 681.9 76.7 L 682.8 76.3 L 683.3 75.9 L 683.8 75.1 L 683.7 74.1 L 683.0 72.7 L 682.4 72.0 L 681.2 71.0 L 680.2 70.7 L 679.3 71.1 L 678.9 71.3 M 672.4 50.9 L 670.4 48.3 L 673.4 48.2 L 672.8 47.5 L 672.7 46.9 L 672.7 46.5 L 673.3 45.7 L 673.8 45.3 L 674.7 45.0 L 675.5 45.1 L 676.3 45.6 L 676.8 46.4 L 677.1 47.3 L 677.1 47.7 L 676.8 48.3 M 668.8 42.7 L 669.7 42.4 L 670.5 42.6 L 671.3 43.1 L 671.5 43.3 L 671.8 44.2 L 671.7 45.1 L 671.2 45.8 L 670.9 46.0 L 670.0 46.3 L 669.2 46.2 L 668.4 45.7 L 668.2 45.5 L 667.9 44.6 L 668.0 43.7 L 668.8 42.7 L 670.0 41.8 L 671.4 41.2 L 672.4 41.1 L 673.2 41.6 L 673.6 42.1 L 673.9 43.0 L 673.6 43.6 M 613.3 34.9 L 615.2 30.1 L 610.9 31.1 M 613.3 34.9 L 611.8 28.7 M 729.7 170.1 L 730.1 169.6 L 730.6 168.4 L 732.9 174.3 M 732.6 169.0 L 732.5 168.7 L 732.6 168.1 L 732.8 167.7 L 733.2 167.2 L 734.3 166.8 L 735.0 166.8 L 735.4 167.0 L 735.9 167.5 L 736.1 168.0 L 736.0 168.7 L 735.8 169.7 L 734.1 173.6 L 738.0 172.1 M 694.3 121.8 L 693.8 122.3 L 693.3 123.5 L 691.1 117.6 M 689.4 125.2 L 690.7 120.2 L 686.5 121.8 M 689.4 125.2 L 687.2 119.3 M 868.2 320.5 L 866.3 325.2 L 870.7 324.2 M 868.2 320.5 L 869.7 326.6 M 873.8 319.1 L 871.9 323.9 L 876.3 322.8 M 873.8 319.1 L 875.3 325.2 M 871.5 245.4 L 870.9 245.7 L 869.9 246.5 L 870.3 240.2 M 864.7 246.4 L 868.1 240.3 M 868.9 246.7 L 864.7 246.4 M 765.8 147.7 L 765.5 147.5 L 765.1 147.0 L 765.0 146.6 L 765.0 145.9 L 765.5 144.8 L 766.0 144.4 L 766.4 144.3 L 767.1 144.3 L 767.7 144.6 L 768.1 145.1 L 768.6 146.0 L 770.0 150.0 L 771.8 146.3 M 767.5 140.8 L 767.3 141.8 L 767.9 142.7 L 769.1 143.6 L 769.9 144.0 L 771.4 144.4 L 772.5 144.3 L 773.1 143.6 L 773.4 143.1 L 773.5 142.1 L 773.0 141.2 L 771.7 140.3 L 770.9 139.9 L 769.5 139.5 L 768.4 139.6 L 767.7 140.3 L 767.5 140.7 M 929.1 270.7 L 931.6 272.3 L 933.4 270.2 L 932.9 270.2 L 932.0 270.0 L 931.3 269.5 L 930.7 268.8 L 930.5 268.0 L 930.7 267.0 L 931.0 266.5 L 931.8 265.9 L 932.6 265.8 L 933.5 266.0 L 934.3 266.5 L 934.9 267.2 L 935.0 267.6 L 934.9 268.3 M 926.1 268.7 L 927.0 269.0 L 928.0 268.5 L 929.1 267.4 L 929.6 266.7 L 930.1 265.3 L 930.1 264.2 L 929.5 263.4 L 929.0 263.1 L 928.1 262.9 L 927.1 263.3 L 926.0 264.4 L 925.6 265.2 L 925.0 266.6 L 925.0 267.7 L 925.6 268.4 L 926.0 268.7 M 930.6 296.7 L 930.0 301.8 L 933.9 299.7 M 930.6 296.7 L 933.6 302.2 M 936.5 294.5 L 936.0 294.2 L 935.1 294.3 L 934.5 294.6 L 933.9 295.3 L 933.8 296.4 L 934.3 297.8 L 935.0 299.2 L 935.8 300.1 L 936.6 300.3 L 937.6 300.1 L 937.8 300.0 L 938.5 299.3 L 938.7 298.5 L 938.5 297.5 L 938.4 297.3 L 937.7 296.6 L 936.9 296.4 L 935.9 296.6 L 935.7 296.7 L 935.0 297.4 L 934.8 298.2 L 935.0 299.2 M 672.9 719.5 L 676.2 719.4 L 674.4 721.8 L 675.3 721.8 L 675.9 722.1 L 676.2 722.4 L 676.6 723.3 L 676.6 723.9 L 676.3 724.8 L 675.7 725.4 L 674.8 725.7 L 673.9 725.8 L 673.0 725.5 L 672.7 725.2 L 672.4 724.6 M 678.2 719.3 L 681.5 719.3 L 679.8 721.7 L 680.7 721.7 L 681.3 722.0 L 681.6 722.3 L 681.9 723.1 L 681.9 723.7 L 681.6 724.7 L 681.1 725.3 L 680.2 725.6 L 679.3 725.6 L 678.4 725.3 L 678.0 725.1 L 677.7 724.5 M 740.8 717.1 L 740.8 716.8 L 741.1 716.1 L 741.3 715.8 L 741.9 715.5 L 743.1 715.3 L 743.7 715.6 L 744.0 715.8 L 744.4 716.4 L 744.5 717.0 L 744.2 717.6 L 743.7 718.6 L 741.0 721.9 L 745.2 721.4 M 746.3 715.0 L 749.6 714.7 L 748.0 717.2 L 748.9 717.1 L 749.6 717.4 L 749.9 717.6 L 750.3 718.5 L 750.3 719.1 L 750.1 720.0 L 749.6 720.7 L 748.7 721.1 L 747.8 721.2 L 746.9 721.0 L 746.6 720.7 L 746.2 720.1 M 804.3 714.1 L 804.4 713.8 L 804.7 713.3 L 805.0 713.0 L 805.6 712.7 L 806.8 712.7 L 807.4 713.1 L 807.7 713.4 L 808.0 714.0 L 807.9 714.6 L 807.6 715.2 L 807.0 716.0 L 803.9 718.9 L 808.1 719.1 M 809.9 714.4 L 809.9 714.1 L 810.2 713.5 L 810.6 713.2 L 811.2 712.9 L 812.4 712.9 L 812.9 713.3 L 813.2 713.6 L 813.5 714.2 L 813.5 714.8 L 813.2 715.4 L 812.5 716.3 L 809.4 719.1 L 813.6 719.3 M 802.7 646.1 L 802.1 646.4 L 801.2 647.3 L 801.2 641.0 M 796.0 647.6 L 799.0 641.2 M 800.2 647.5 L 796.0 647.6 M 865.8 641.3 L 865.3 641.7 L 864.5 642.7 L 863.7 636.5 M 859.7 642.6 L 860.1 643.2 L 861.0 643.3 L 861.6 643.3 L 862.5 642.9 L 862.9 641.9 L 863.1 640.4 L 862.9 638.9 L 862.4 637.7 L 861.8 637.2 L 860.8 637.0 L 860.5 637.1 L 859.7 637.5 L 859.2 638.1 L 859.0 639.1 L 859.0 639.4 L 859.4 640.2 L 860.1 640.7 L 861.0 640.9 L 861.3 640.9 L 862.2 640.5 L 862.7 639.8 L 862.9 638.9 M 875.0 714.4 L 874.1 714.7 L 873.8 715.3 L 873.8 715.9 L 874.1 716.5 L 874.7 716.8 L 875.9 717.2 L 876.8 717.5 L 877.4 718.1 L 877.6 718.7 L 877.6 719.6 L 877.3 720.2 L 877.0 720.5 L 876.1 720.8 L 874.9 720.7 L 874.0 720.4 L 873.7 720.1 L 873.4 719.5 L 873.4 718.6 L 873.8 718.0 L 874.4 717.4 L 875.3 717.1 L 876.5 716.9 L 877.1 716.6 L 877.4 716.0 L 877.4 715.4 L 877.1 714.8 L 876.2 714.5 L 874.9 714.4 M 925.6 609.2 L 925.2 608.4 L 925.2 607.5 L 925.6 606.7 L 925.8 606.5 L 926.7 606.1 L 927.5 606.1 L 928.4 606.5 L 928.6 606.7 L 929.0 607.5 L 929.0 608.4 L 928.6 609.2 L 928.4 609.5 L 927.5 609.9 L 926.7 609.9 L 925.6 609.2 L 924.6 608.2 L 923.7 606.9 L 923.5 605.9 L 923.9 605.0 L 924.4 604.6 L 925.2 604.2 L 925.8 604.4 M 944.4 717.4 L 945.0 717.1 L 945.9 716.3 L 945.7 722.6 M 946.9 717.5 L 947.5 717.2 L 948.5 716.3 L 948.3 722.6 M 619.6 628.7 L 619.4 629.0 L 618.9 629.4 L 618.5 629.5 L 617.8 629.5 L 616.8 629.0 L 616.3 628.5 L 616.2 628.1 L 616.2 627.4 L 616.4 626.9 L 617.0 626.5 L 617.9 625.9 L 621.9 624.5 L 618.1 622.7 M 611.1 626.4 L 613.8 627.6 L 615.3 625.3 L 614.9 625.5 L 613.9 625.4 L 613.1 625.0 L 612.4 624.3 L 612.1 623.5 L 612.3 622.6 L 612.5 622.0 L 613.2 621.3 L 614.0 621.1 L 614.9 621.2 L 615.7 621.6 L 616.4 622.2 L 616.6 622.6 L 616.6 623.3 M 602.6 721.8 L 602.6 721.5 L 602.9 720.9 L 603.2 720.6 L 603.8 720.3 L 605.0 720.3 L 605.6 720.6 L 605.9 720.9 L 606.2 721.5 L 606.2 722.1 L 605.9 722.7 L 605.3 723.6 L 602.3 726.6 L 606.5 726.6 M 610.8 720.3 L 607.8 724.5 L 612.3 724.5 M 610.8 720.3 L 610.8 726.6 M 582.4 660.1 L 582.7 660.1 L 583.3 660.5 L 583.6 660.8 L 583.8 661.4 L 583.8 662.6 L 583.5 663.2 L 583.2 663.5 L 582.6 663.7 L 582.0 663.7 L 581.4 663.4 L 580.5 662.8 L 577.6 659.7 L 577.5 663.9 M 582.3 665.1 L 582.6 665.7 L 583.5 666.6 L 577.2 666.5 M 631.5 312.3 L 630.8 312.2 L 629.6 312.5 L 633.1 307.2 M 625.5 310.0 L 628.0 311.7 L 629.8 309.6 L 629.4 309.7 L 628.4 309.4 L 627.7 309.0 L 627.1 308.2 L 626.9 307.4 L 627.2 306.5 L 627.5 306.0 L 628.3 305.4 L 629.1 305.2 L 630.0 305.5 L 630.8 306.0 L 631.3 306.7 L 631.4 307.1 L 631.4 307.8 M 590.5 312.3 L 590.1 312.9 L 589.6 314.1 L 586.9 308.4 M 585.9 316.2 L 586.8 311.1 L 582.7 313.0 M 585.9 316.2 L 583.2 310.5 M 570.2 383.5 L 570.3 383.2 L 570.9 382.8 L 571.3 382.7 L 572.0 382.8 L 573.0 383.4 L 573.4 383.9 L 573.5 384.3 L 573.4 385.0 L 573.1 385.5 L 572.6 385.9 L 571.6 386.4 L 567.5 387.5 L 571.2 389.6 M 577.6 388.4 L 576.9 389.1 L 576.1 389.3 L 575.2 389.1 L 574.9 389.0 L 574.3 388.3 L 574.1 387.4 L 574.3 386.5 L 574.4 386.2 L 575.1 385.6 L 575.9 385.4 L 576.9 385.6 L 577.1 385.7 L 577.8 386.4 L 578.0 387.3 L 577.6 388.4 L 576.9 389.7 L 575.9 390.9 L 574.9 391.4 L 574.0 391.2 L 573.5 390.9 L 572.8 390.2 L 572.9 389.5 M 560.8 347.4 L 560.8 350.7 L 558.4 348.8 L 558.4 349.7 L 558.1 350.3 L 557.8 350.6 L 556.9 350.9 L 556.3 350.9 L 555.4 350.6 L 554.8 350.0 L 554.5 349.1 L 554.5 348.2 L 554.8 347.3 L 555.1 347.0 L 555.7 346.7 M 560.7 353.9 L 560.5 353.0 L 559.6 352.4 L 558.1 352.1 L 557.2 352.1 L 555.7 352.4 L 554.8 353.0 L 554.4 353.9 L 554.4 354.5 L 554.7 355.4 L 555.6 356.0 L 557.1 356.3 L 558.0 356.3 L 559.5 356.0 L 560.4 355.4 L 560.7 354.5 L 560.7 354.1 M 737.4 74.6 L 736.5 77.8 L 734.7 75.4 L 734.4 76.2 L 734.0 76.7 L 733.6 76.9 L 732.7 77.0 L 732.1 76.8 L 731.3 76.3 L 730.9 75.6 L 730.8 74.6 L 731.1 73.7 L 731.6 73.0 L 732.0 72.8 L 732.6 72.6 M 735.6 80.9 L 735.6 79.9 L 734.9 79.1 L 733.5 78.4 L 732.6 78.2 L 731.1 78.1 L 730.1 78.4 L 729.6 79.2 L 729.4 79.8 L 729.4 80.7 L 730.1 81.5 L 731.5 82.2 L 732.4 82.5 L 733.9 82.6 L 734.9 82.3 L 735.5 81.5 L 735.6 81.0 M 759.6 70.5 L 756.6 69.0 L 759.4 67.7 L 758.6 67.3 L 758.2 66.7 L 758.0 66.3 L 758.2 65.4 L 758.5 64.8 L 759.2 64.2 L 760.0 63.9 L 760.9 64.1 L 761.7 64.5 L 762.4 65.2 L 762.5 65.6 L 762.5 66.3 M 756.1 67.1 L 755.4 67.1 L 754.2 67.4 L 757.1 61.9 M 816.8 106.5 L 816.6 106.2 L 816.7 105.5 L 816.8 105.1 L 817.3 104.6 L 818.4 104.1 L 819.0 104.2 L 819.4 104.3 L 819.9 104.8 L 820.2 105.3 L 820.1 106.0 L 820.0 107.0 L 818.4 111.0 L 822.2 109.3 M 824.1 101.6 L 821.3 102.8 L 822.1 105.4 L 822.3 105.0 L 823.0 104.4 L 823.8 104.1 L 824.8 104.0 L 825.5 104.3 L 826.2 105.0 L 826.4 105.5 L 826.5 106.5 L 826.2 107.3 L 825.5 107.9 L 824.7 108.3 L 823.7 108.3 L 823.3 108.2 L 822.8 107.8 M 847.7 70.4 L 848.8 73.1 L 851.5 72.4 L 851.1 72.3 L 850.5 71.5 L 850.1 70.7 L 850.1 69.8 L 850.4 69.0 L 851.2 68.4 L 851.7 68.2 L 852.7 68.1 L 853.4 68.4 L 854.1 69.2 L 854.4 70.0 L 854.4 71.0 L 854.3 71.3 L 853.8 71.8 M 848.5 68.3 L 848.0 67.8 L 846.8 67.3 L 852.7 65.0 M 824.8 50.1 L 827.2 45.5 L 822.7 46.1 M 824.8 50.1 L 823.9 43.8 M 818.0 48.8 L 818.2 47.9 L 818.7 47.2 L 819.6 46.8 L 819.8 46.7 L 820.8 46.9 L 821.5 47.4 L 821.9 48.3 L 821.9 48.6 L 821.7 49.5 L 821.2 50.2 L 820.4 50.6 L 820.1 50.6 L 819.1 50.5 L 818.5 50.0 L 818.0 48.8 L 817.8 47.3 L 817.9 45.8 L 818.4 44.8 L 819.2 44.4 L 819.8 44.3 L 820.8 44.5 L 821.1 45.0 M 799.9 59.2 L 798.3 62.1 L 797.0 59.3 L 796.6 60.1 L 796.0 60.5 L 795.6 60.6 L 794.7 60.4 L 794.2 60.1 L 793.5 59.5 L 793.3 58.6 L 793.5 57.7 L 793.9 56.9 L 794.6 56.3 L 795.0 56.2 L 795.7 56.2 M 796.0 63.0 L 796.3 63.2 L 796.7 63.7 L 796.8 64.2 L 796.7 64.8 L 796.2 65.9 L 795.6 66.3 L 795.2 66.4 L 794.5 66.3 L 794.0 66.1 L 793.6 65.5 L 793.1 64.5 L 791.9 60.5 L 789.9 64.2 M 978.1 599.2 L 977.5 599.2 L 976.2 599.6 L 979.1 594.0 M 975.4 597.7 L 975.2 597.9 L 974.7 598.3 L 974.3 598.4 L 973.6 598.4 L 972.5 597.9 L 972.1 597.4 L 972.0 597.0 L 972.0 596.3 L 972.3 595.7 L 972.8 595.4 L 973.8 594.8 L 977.8 593.5 L 974.1 591.6 M 999.7 718.7 L 1000.3 718.4 L 1001.2 717.6 L 1001.1 723.9 M 1006.2 719.5 L 1005.9 720.4 L 1005.3 721.0 L 1004.4 721.3 L 1004.1 721.3 L 1003.2 721.0 L 1002.6 720.3 L 1002.3 719.4 L 1002.3 719.1 L 1002.6 718.2 L 1003.2 717.7 L 1004.1 717.4 L 1004.4 717.4 L 1005.3 717.7 L 1005.9 718.3 L 1006.2 719.5 L 1006.2 721.0 L 1005.9 722.5 L 1005.3 723.4 L 1004.4 723.7 L 1003.8 723.7 L 1002.9 723.3 L 1002.6 722.7 M 649.3 511.1 L 653.8 508.6 L 649.7 506.7 M 649.3 511.1 L 652.0 505.4 M 645.6 509.3 L 646.5 509.4 L 647.0 509.0 L 647.3 508.5 L 647.3 507.8 L 646.8 507.3 L 645.9 506.5 L 645.2 505.8 L 644.9 505.0 L 644.9 504.4 L 645.3 503.6 L 645.8 503.1 L 646.2 503.0 L 647.1 503.1 L 648.2 503.6 L 648.9 504.3 L 649.1 504.7 L 649.1 505.3 L 648.7 506.2 L 648.2 506.6 L 647.4 506.9 L 646.4 506.7 L 645.2 506.5 L 644.5 506.5 L 644.0 506.9 L 643.8 507.5 L 643.8 508.2 L 644.5 508.8 L 645.7 509.4 M 641.5 562.0 L 636.8 564.1 L 640.6 566.4 M 641.5 562.0 L 638.3 567.4 M 646.0 567.2 L 645.3 567.8 L 644.5 568.0 L 643.6 567.8 L 643.3 567.7 L 642.7 567.0 L 642.5 566.1 L 642.7 565.2 L 642.8 565.0 L 643.5 564.3 L 644.3 564.1 L 645.3 564.3 L 645.5 564.5 L 646.2 565.2 L 646.4 566.0 L 646.0 567.2 L 645.3 568.5 L 644.2 569.6 L 643.3 570.1 L 642.3 569.9 L 641.8 569.6 L 641.2 568.9 L 641.2 568.2 M 628.1 519.0 L 628.0 522.3 L 625.7 520.4 L 625.6 521.3 L 625.3 521.9 L 625.0 522.2 L 624.1 522.5 L 623.5 522.5 L 622.6 522.2 L 622.0 521.6 L 621.8 520.7 L 621.8 519.8 L 622.1 518.9 L 622.4 518.6 L 623.0 518.3 M 627.1 527.3 L 627.7 527.0 L 628.0 526.1 L 628.0 525.5 L 627.7 524.6 L 626.8 524.0 L 625.3 523.7 L 623.8 523.7 L 622.6 524.0 L 622.0 524.5 L 621.7 525.4 L 621.7 525.7 L 622.0 526.6 L 622.6 527.3 L 623.5 527.6 L 623.8 527.6 L 624.7 527.3 L 625.3 526.7 L 625.6 525.8 L 625.6 525.5 L 625.3 524.6 L 624.7 524.0 L 623.8 523.7 M 1031.1 608.5 L 1031.1 608.8 L 1030.9 609.5 L 1030.7 609.8 L 1030.1 610.2 L 1028.9 610.4 L 1028.3 610.2 L 1028.0 610.0 L 1027.6 609.4 L 1027.5 608.8 L 1027.7 608.2 L 1028.1 607.2 L 1030.6 603.8 L 1026.5 604.4 M 1024.5 611.1 L 1025.4 610.7 L 1025.8 609.7 L 1025.9 608.2 L 1025.7 607.3 L 1025.2 605.8 L 1024.5 605.0 L 1023.5 604.9 L 1022.9 605.0 L 1022.1 605.4 L 1021.7 606.4 L 1021.6 607.9 L 1021.7 608.8 L 1022.3 610.3 L 1023.0 611.1 L 1024.0 611.2 L 1024.4 611.1 M 1027.9 666.5 L 1027.6 666.5 L 1027.0 666.1 L 1026.8 665.8 L 1026.6 665.1 L 1026.7 664.0 L 1027.1 663.4 L 1027.5 663.1 L 1028.1 662.9 L 1028.7 663.0 L 1029.3 663.4 L 1030.1 664.1 L 1032.6 667.5 L 1033.2 663.4 M 1028.5 661.6 L 1028.3 661.0 L 1027.5 660.0 L 1033.8 660.9 M 869.4 164.2 L 869.0 163.4 L 868.4 163.2 L 867.8 163.3 L 867.2 163.7 L 867.0 164.3 L 866.9 165.6 L 866.8 166.5 L 866.3 167.2 L 865.7 167.6 L 864.8 167.7 L 864.2 167.5 L 863.9 167.3 L 863.4 166.4 L 863.2 165.2 L 863.4 164.3 L 863.6 164.0 L 864.2 163.6 L 865.1 163.4 L 865.7 163.6 L 866.4 164.1 L 866.8 165.0 L 867.3 166.1 L 867.7 166.6 L 868.3 166.8 L 868.9 166.7 L 869.5 166.4 L 869.6 165.4 L 869.4 164.1 M 974.7 167.5 L 975.3 164.3 L 977.3 166.5 L 977.5 165.6 L 977.9 165.1 L 978.2 164.9 L 979.2 164.7 L 979.8 164.8 L 980.6 165.3 L 981.1 166.0 L 981.2 167.0 L 981.0 167.8 L 980.5 168.7 L 980.2 168.9 L 979.6 169.1 M 975.7 162.3 L 976.3 159.0 L 978.3 161.3 L 978.5 160.4 L 978.9 159.9 L 979.2 159.6 L 980.2 159.5 L 980.8 159.6 L 981.6 160.1 L 982.1 160.8 L 982.2 161.7 L 982.0 162.6 L 981.6 163.4 L 981.2 163.7 L 980.6 163.8 M 940.7 212.8 L 940.6 212.6 L 940.5 211.9 L 940.7 211.5 L 941.0 210.9 L 942.1 210.3 L 942.7 210.3 L 943.2 210.4 L 943.7 210.8 L 944.0 211.3 L 944.0 212.0 L 944.0 213.1 L 942.8 217.2 L 946.5 215.1 M 944.9 208.7 L 947.8 207.1 L 947.4 210.1 L 948.2 209.7 L 948.8 209.6 L 949.2 209.7 L 949.9 210.4 L 950.2 210.9 L 950.4 211.8 L 950.2 212.6 L 949.6 213.3 L 948.8 213.8 L 947.9 214.0 L 947.4 213.9 L 946.9 213.5 M 892.7 209.4 L 892.8 209.1 L 893.4 208.7 L 893.8 208.6 L 894.5 208.7 L 895.5 209.2 L 895.9 209.8 L 896.0 210.2 L 896.0 210.9 L 895.7 211.4 L 895.1 211.8 L 894.2 212.3 L 890.1 213.4 L 893.7 215.5 M 897.5 212.1 L 897.7 211.8 L 898.2 211.5 L 898.6 211.3 L 899.3 211.4 L 900.4 212.0 L 900.7 212.5 L 900.9 212.9 L 900.8 213.6 L 900.5 214.1 L 900.0 214.5 L 899.0 215.0 L 894.9 216.1 L 898.6 218.2 M 884.7 107.3 L 884.5 108.0 L 884.6 109.2 L 879.8 105.1 M 883.0 109.3 L 882.8 109.9 L 882.9 111.2 L 878.1 107.0 M 966.4 111.8 L 966.2 112.0 L 965.6 112.2 L 965.2 112.1 L 964.5 111.9 L 963.7 111.0 L 963.6 110.3 L 963.6 109.9 L 963.8 109.3 L 964.3 108.9 L 964.9 108.7 L 966.0 108.6 L 970.3 108.8 L 967.5 105.7 M 959.9 106.7 L 965.0 106.1 L 962.0 102.8 M 959.9 106.7 L 964.6 102.5 M 926.9 85.4 L 926.3 85.7 L 925.5 86.7 L 925.3 80.4 M 920.4 84.9 L 920.6 84.0 L 921.2 83.4 L 922.1 83.0 L 922.4 83.0 L 923.3 83.3 L 923.9 83.9 L 924.3 84.8 L 924.3 85.1 L 924.0 86.0 L 923.4 86.6 L 922.5 86.9 L 922.2 86.9 L 921.3 86.7 L 920.7 86.1 L 920.4 84.9 L 920.3 83.4 L 920.6 81.9 L 921.2 81.0 L 922.1 80.6 L 922.7 80.6 L 923.6 80.9 L 923.9 81.5 M 906.5 549.3 L 906.2 549.2 L 905.9 548.6 L 905.8 548.2 L 905.8 547.6 L 906.4 546.5 L 906.9 546.1 L 907.3 546.0 L 908.0 546.1 L 908.5 546.4 L 908.9 546.9 L 909.4 547.9 L 910.5 552.0 L 912.6 548.3 M 880.0 595.1 L 879.8 596.1 L 880.3 597.0 L 881.5 597.9 L 882.3 598.4 L 883.8 598.8 L 884.9 598.7 L 885.6 598.0 L 885.8 597.5 L 886.0 596.5 L 885.5 595.6 L 884.3 594.6 L 883.5 594.2 L 882.0 593.8 L 880.9 593.9 L 880.2 594.6 L 880.0 595.0 M 868.5 594.9 L 869.1 595.2 L 870.4 595.2 L 865.6 599.4 M 863.1 397.7 L 862.4 394.5 L 865.1 395.7 L 864.9 394.9 L 865.1 394.2 L 865.3 393.9 L 866.1 393.4 L 866.7 393.2 L 867.6 393.3 L 868.4 393.8 L 868.8 394.6 L 869.0 395.5 L 868.9 396.4 L 868.7 396.8 L 868.2 397.2 M 849.9 537.8 L 845.2 535.6 L 846.1 540.0 M 849.9 537.8 L 843.7 538.9 M 834.5 481.2 L 832.8 478.7 L 830.4 480.0 L 830.8 480.1 L 831.6 480.7 L 832.1 481.4 L 832.4 482.3 L 832.2 483.2 L 831.7 483.9 L 831.2 484.3 L 830.3 484.5 L 829.4 484.4 L 828.7 483.8 L 828.2 483.1 L 827.9 482.2 L 828.0 481.8 L 828.3 481.2 M 847.3 414.9 L 847.9 414.8 L 848.5 414.0 L 848.6 413.4 L 848.6 412.5 L 847.9 411.6 L 846.6 410.9 L 845.2 410.5 L 843.9 410.4 L 843.2 410.8 L 842.6 411.6 L 842.5 411.9 L 842.6 412.8 L 843.0 413.6 L 843.7 414.1 L 844.0 414.2 L 845.0 414.2 L 845.7 413.8 L 846.3 413.0 L 846.4 412.7 L 846.3 411.8 L 845.9 411.0 L 845.2 410.5 M 896.1 392.5 L 895.6 395.8 L 893.5 393.7 L 893.4 394.6 L 893.0 395.1 L 892.7 395.4 L 891.7 395.6 L 891.1 395.5 L 890.3 395.1 L 889.8 394.4 L 889.6 393.5 L 889.7 392.6 L 890.1 391.7 L 890.5 391.5 L 891.1 391.2 M 931.6 491.5 L 936.5 496.4 M 930.2 495.4 L 931.6 491.5 M 913.7 409.3 L 913.3 409.8 L 913.4 410.7 L 913.6 411.3 L 914.3 412.0 L 915.3 412.2 L 916.8 411.8 L 918.2 411.2 L 919.2 410.5 L 919.5 409.7 L 919.4 408.8 L 919.3 408.5 L 918.7 407.8 L 917.9 407.5 L 916.9 407.5 L 916.7 407.7 L 915.9 408.3 L 915.6 409.1 L 915.7 410.0 L 915.8 410.3 L 916.5 411.0 L 917.3 411.3 L 918.2 411.2"
       id="nums_002"
       stroke="black"
       stroke-width="1" />
    <path
       d="m 839.1,722.2 -60.2,-2.3 -65,6.7 -72.5,2 h -67.6 l 3.4,-127.5 81.7,38.8 0.6,-57.6 -40.2,-23.7 0.9,-70.3 60.7,28.5 37.2,-65.6 15.4,-81.7 -36.9,74.5 -64.7,38.8 -35.4,-56.9 -6.7,-23.4 -37.5,-21.5 0.4,-58.2 62.2,-29.7 34.3,22.8 23.7,-25.2 85.1,-30.4 -90.3,-4.3 -64.8,-7.2 -0.8,-43.2 -16.3,-38.1 -12.2,-65.4 -22.4,-50.6 16,-14.4 89.2,-20.8 39.5,51.9 -26.8,21.7 -13.3,39 64.6,-24.1 15.6,-56 46.6,24.5 15.5,-28 46.2,-6.3 21.1,53.7 -82.9,36 -17,35 -59.4,22.7 75.1,14.6 58.5,35.7 56.8,3.3 71.4,45.6 -62.2,34.3 -66.2,16.1 -39.2,19.9 2,59.3 -4.1,46.3 9.9,40.1 -33.8,53.1 -3.8,84.7 56.8,-0.3 68,-8.2 54.1,-54.1 56.6,29 38.3,-6.2 -18.1,126.1 -45.7,-0.2 -67.8,-2.3 z m 61.1,-643 45.7,-1.1 44.6,50.9 -13.8,71.2 -56.8,32.2 -52.5,-29.5 -11.9,-72.7 z m -22,537.5 -28.2,-32.8 -16.6,-90 -12.4,-17.6 39.2,-129.5 21,94.5 12.9,-95.9 53.8,124.1 -18.1,52.3 -32.7,58 z"
       id="coupes_002"
       stroke="#ff0000"
       stroke-width="1.27"
       sodipodi:nodetypes="ccccccccccccccccccccccccccccccccccccccccccccccccccccccccccccccccccccccccccccccccccc" />
    <path
       d="M 658.9 639.9 L 774.3 554.7 M 659.5 582.3 L 774.3 554.7 M 659.5 582.3 L 680.9 516.8 M 680.9 516.8 L 774.3 554.7 M 680.9 516.8 L 808.1 501.6 M 718.1 451.2 L 798.2 461.5 M 718.1 451.2 L 802.3 415.2 M 733.5 369.5 L 802.3 415.2 M 733.5 369.5 L 800.3 355.9 M 733.5 369.5 L 758.0 260.3 M 758.0 260.3 L 800.3 355.9 M 758.0 260.3 L 839.5 336.0 M 733.5 369.5 L 672.9 290.7 M 733.5 369.5 L 649.2 315.9 M 696.6 444.0 L 649.2 315.9 M 696.6 444.0 L 589.8 402.5 M 589.8 402.5 L 649.2 315.9 M 696.6 444.0 L 596.5 425.9 M 839.7 236.7 L 839.5 336.0 M 758.0 260.3 L 781.2 201.0 M 758.0 260.3 L 706.1 186.4 M 602.1 205.6 L 706.1 186.4 M 667.7 256.0 L 602.1 205.6 M 585.8 167.5 L 706.1 186.4 M 573.6 102.1 L 706.1 186.4 M 573.6 102.1 L 655.8 128.9 M 551.2 51.5 L 669.1 89.9 M 567.2 37.1 L 669.1 89.9 M 567.2 37.1 L 695.9 68.2 M 655.8 128.9 L 765.5 163.7 M 720.4 104.8 L 765.5 163.7 M 839.7 236.7 L 905.7 319.9 M 896.5 240.0 L 905.7 319.9 M 720.4 104.8 L 782.5 128.7 M 713.9 726.6 L 658.9 639.9 M 770.5 639.4 L 713.9 726.6 M 641.4 728.6 L 658.9 639.9 M 770.5 639.4 L 778.9 719.9 M 827.3 639.1 L 839.1 722.2 M 895.3 630.9 L 839.1 722.2 M 895.3 630.9 L 912.7 723.2 M 949.4 576.8 L 912.7 723.2 M 949.4 576.8 L 980.5 725.5 M 641.4 728.6 L 577.2 601.1 M 589.8 402.5 L 614.9 293.1 M 736.0 48.8 L 782.5 128.7 M 782.6 73.3 L 782.5 128.7 M 782.6 73.3 L 865.4 92.7 M 782.6 73.3 L 844.3 39.0 M 1006.0 605.8 L 980.5 725.5 M 1006.0 605.8 L 1026.2 725.7 M 659.5 582.3 L 620.2 488.3 M 976.7 200.2 L 867.4 202.9 M 900.2 79.2 L 990.5 129.0 M 881.2 441.3 L 929.8 521.8 M 897.1 579.8 L 881.2 441.3 M 878.2 616.7 L 881.2 441.3 M 833.4 493.9 L 860.2 346.8 M 894.1 345.4 L 929.8 521.8"
       id="plisM_002"
       stroke="brown"
       stroke-dasharray="4" />
    <path
       d="M 714.6 595.3 L 718.6 599.3 M 718.6 595.3 L 714.6 599.3 M 714.9 566.5 L 718.9 570.5 M 718.9 566.5 L 714.9 570.5 M 668.2 547.5 L 672.2 551.5 M 672.2 547.5 L 668.2 551.5 M 725.6 533.8 L 729.6 537.8 M 729.6 533.8 L 725.6 537.8 M 742.5 507.2 L 746.5 511.2 M 746.5 507.2 L 742.5 511.2 M 756.2 454.4 L 760.2 458.4 M 760.2 454.4 L 756.2 458.4 M 758.2 431.2 L 762.2 435.2 M 762.2 431.2 L 758.2 435.2 M 765.9 390.3 L 769.9 394.3 M 769.9 390.3 L 765.9 394.3 M 764.9 360.7 L 768.9 364.7 M 768.9 360.7 L 764.9 364.7 M 743.7 312.9 L 747.7 316.9 M 747.7 312.9 L 743.7 316.9 M 777.1 306.1 L 781.1 310.1 M 781.1 306.1 L 777.1 310.1 M 796.8 296.1 L 800.8 300.1 M 800.8 296.1 L 796.8 300.1 M 701.2 328.1 L 705.2 332.1 M 705.2 328.1 L 701.2 332.1 M 689.3 340.7 L 693.3 344.7 M 693.3 340.7 L 689.3 344.7 M 670.9 377.9 L 674.9 381.9 M 674.9 377.9 L 670.9 381.9 M 641.2 421.3 L 645.2 425.3 M 645.2 421.3 L 641.2 425.3 M 617.5 357.2 L 621.5 361.2 M 621.5 357.2 L 617.5 361.2 M 644.6 433.0 L 648.6 437.0 M 648.6 433.0 L 644.6 437.0 M 837.6 284.3 L 841.6 288.3 M 841.6 284.3 L 837.6 288.3 M 767.6 228.7 L 771.6 232.7 M 771.6 228.7 L 767.6 232.7 M 730.1 221.4 L 734.1 225.4 M 734.1 221.4 L 730.1 225.4 M 652.1 194.0 L 656.1 198.0 M 656.1 194.0 L 652.1 198.0 M 632.9 228.8 L 636.9 232.8 M 636.9 228.8 L 632.9 232.8 M 644.0 175.0 L 648.0 179.0 M 648.0 175.0 L 644.0 179.0 M 637.9 142.2 L 641.9 146.2 M 641.9 142.2 L 637.9 146.2 M 612.7 113.5 L 616.7 117.5 M 616.7 113.5 L 612.7 117.5 M 608.2 68.7 L 612.2 72.7 M 612.2 68.7 L 608.2 72.7 M 616.2 61.5 L 620.2 65.5 M 620.2 61.5 L 616.2 65.5 M 629.5 50.6 L 633.5 54.6 M 633.5 50.6 L 629.5 54.6 M 708.6 144.3 L 712.6 148.3 M 712.6 144.3 L 708.6 148.3 M 740.9 132.2 L 744.9 136.2 M 744.9 132.2 L 740.9 136.2 M 870.7 276.3 L 874.7 280.3 M 874.7 276.3 L 870.7 280.3 M 899.1 278.0 L 903.1 282.0 M 903.1 278.0 L 899.1 282.0 M 749.4 114.8 L 753.4 118.8 M 753.4 114.8 L 749.4 118.8 M 684.4 681.3 L 688.4 685.3 M 688.4 681.3 L 684.4 685.3 M 740.2 681.0 L 744.2 685.0 M 744.2 681.0 L 740.2 685.0 M 648.1 682.2 L 652.1 686.2 M 652.1 682.2 L 648.1 686.2 M 772.7 677.7 L 776.7 681.7 M 776.7 677.7 L 772.7 681.7 M 831.2 678.7 L 835.2 682.7 M 835.2 678.7 L 831.2 682.7 M 865.2 674.5 L 869.2 678.5 M 869.2 674.5 L 865.2 678.5 M 902.0 675.0 L 906.0 679.0 M 906.0 675.0 L 902.0 679.0 M 929.1 648.0 L 933.1 652.0 M 933.1 648.0 L 929.1 652.0 M 963.0 649.1 L 967.0 653.1 M 967.0 649.1 L 963.0 653.1 M 607.3 662.9 L 611.3 666.9 M 611.3 662.9 L 607.3 666.9 M 600.4 345.8 L 604.4 349.8 M 604.4 345.8 L 600.4 349.8 M 757.3 86.8 L 761.3 90.8 M 761.3 86.8 L 757.3 90.8 M 780.6 99.0 L 784.6 103.0 M 784.6 99.0 L 780.6 103.0 M 822.0 81.0 L 826.0 85.0 M 826.0 81.0 L 822.0 85.0 M 811.5 54.2 L 815.5 58.2 M 815.5 54.2 L 811.5 58.2 M 991.2 663.6 L 995.2 667.6 M 995.2 663.6 L 991.2 667.6 M 1014.1 663.7 L 1018.1 667.7 M 1018.1 663.7 L 1014.1 667.7 M 637.9 533.3 L 641.9 537.3 M 641.9 533.3 L 637.9 537.3 M 920.1 199.6 L 924.1 203.6 M 924.1 199.6 L 920.1 203.6 M 943.4 102.1 L 947.4 106.1 M 947.4 102.1 L 943.4 106.1 M 903.5 479.6 L 907.5 483.6 M 907.5 479.6 L 903.5 483.6 M 887.1 508.5 L 891.1 512.5 M 891.1 508.5 L 887.1 512.5 M 877.7 527.0 L 881.7 531.0 M 881.7 527.0 L 877.7 531.0 M 844.8 418.3 L 848.8 422.3 M 848.8 418.3 L 844.8 422.3 M 909.9 431.6 L 913.9 435.6 M 913.9 431.6 L 909.9 435.6"
       display="none"
       id="marqueM_002"
       stroke="brown" />
    <path
       d="M 770.5 639.4 L 658.9 639.9 M 680.9 516.8 L 798.2 461.5 M 758.0 260.3 L 839.7 236.7 M 667.7 256.0 L 706.1 186.4 M 655.8 128.9 L 706.1 186.4 M 573.6 102.1 L 669.1 89.9 M 770.5 639.4 L 839.1 722.2 M 589.8 402.5 L 552.7 322.8 M 855.5 130.2 L 976.7 200.2 M 855.5 130.2 L 990.5 129.0 M 850.0 583.9 L 881.2 441.3 M 850.0 583.9 L 860.2 346.8"
       id="plisV_002"
       stroke="green"
       stroke-dasharray="4 1 1 1"
       stroke-width="1.27" />
    <path
       d="M 712.7 637.7 L 716.7 641.7 M 716.7 637.7 L 712.7 641.7 M 737.5 487.2 L 741.5 491.2 M 741.5 487.2 L 737.5 491.2 M 796.9 246.5 L 800.9 250.5 M 800.9 246.5 L 796.9 250.5 M 684.9 219.2 L 688.9 223.2 M 688.9 219.2 L 684.9 223.2 M 679.0 155.6 L 683.0 159.6 M 683.0 155.6 L 679.0 159.6 M 619.4 94.0 L 623.4 98.0 M 623.4 94.0 L 619.4 98.0 M 802.8 678.8 L 806.8 682.8 M 806.8 678.8 L 802.8 682.8 M 569.3 360.7 L 573.3 364.7 M 573.3 360.7 L 569.3 364.7 M 914.1 163.2 L 918.1 167.2 M 918.1 163.2 L 914.1 167.2 M 921.0 127.6 L 925.0 131.6 M 925.0 127.6 L 921.0 131.6 M 863.6 510.6 L 867.6 514.6 M 867.6 510.6 L 863.6 514.6 M 853.1 463.4 L 857.1 467.4 M 857.1 463.4 L 853.1 467.4"
       id="marqueV_002"
       stroke="green" />
    <path
       d="M 747.2 399.6 L 755.5 399.6 L 751.0 405.6 L 753.2 405.6 L 754.7 406.3 L 755.5 407.1 L 756.2 409.3 L 756.2 410.8 L 755.5 413.1 L 754.0 414.6 L 751.7 415.3 L 749.5 415.3 L 747.2 414.6 L 746.5 413.8 L 745.7 412.3"
       id="titre_3"
       stroke="indigo" />
    <path
       d="M 942.7 140.6 L 935.2 151.1 L 946.4 151.1 M 942.7 140.6 L 942.7 156.3"
       id="titre_4"
       stroke="indigo" />
    <path
       d="M 867.2 445.0 L 859.7 445.0 L 859.0 451.7 L 859.7 451.0 L 862.0 450.2 L 864.2 450.2 L 866.5 451.0 L 868.0 452.5 L 868.7 454.7 L 868.7 456.2 L 868.0 458.5 L 866.5 460.0 L 864.2 460.7 L 862.0 460.7 L 859.7 460.0 L 859.0 459.2 L 858.2 457.7"
       id="titre_5"
       stroke="indigo" />
  </g>
</svg>
