<?xml version="1.0" encoding="UTF-8" standalone="no"?>
<svg
   height="841.88977pt"
   viewBox="0 0 532.99998 754.00001"
   width="595.27557pt"
   version="1.1"
   id="svg1"
   sodipodi:docname="anubis102_H20_A4x2.svg"
   inkscape:version="1.3 (0e150ed6c4, 2023-07-21)"
   xmlns:inkscape="http://www.inkscape.org/namespaces/inkscape"
   xmlns:sodipodi="http://sodipodi.sourceforge.net/DTD/sodipodi-0.dtd"
   xmlns="http://www.w3.org/2000/svg"
   xmlns:svg="http://www.w3.org/2000/svg">
  <defs
     id="defs1" />
  <sodipodi:namedview
     id="namedview1"
     pagecolor="#ffffff"
     bordercolor="#000000"
     borderopacity="0.25"
     inkscape:showpageshadow="2"
     inkscape:pageopacity="0.0"
     inkscape:pagecheckerboard="0"
     inkscape:deskcolor="#d1d1d1"
     inkscape:document-units="mm"
     showgrid="false"
     inkscape:zoom="0.67793911"
     inkscape:cx="921.9117"
     inkscape:cy="553.14702"
     inkscape:window-width="1560"
     inkscape:window-height="906"
     inkscape:window-x="180"
     inkscape:window-y="50"
     inkscape:window-maximized="1"
     inkscape:current-layer="svg1" />
  <style
     type="text/css"
     id="style1"><![CDATA[
			path {
				fill: none;
			}
		]]></style>
  <g
     id="page_001">
    <path
       d="m 103.5,305.1 0.5,0.4 1.3,0.3 -5.6,3 m 7.1,-0.5 -0.6,-0.6 -1.1,-0.1 -1.5,0.4 -0.8,0.5 -1.2,0.9 -0.5,1 0.2,0.9 0.3,0.6 0.7,0.6 1.1,0.1 1.4,-0.4 0.8,-0.5 1.2,-0.9 0.5,-1 -0.2,-0.9 -0.2,-0.4 M 84.4,255.2 79.5,253.8 81,258 m 3.4,-2.8 -5.9,2.1 m 7.9,3.3 -5,-1.4 1.5,4.3 m 3.5,-2.9 -6,2.2 m -34,-68.2 -5.1,0.7 3,3.3 m 2.1,-4 -4.6,4.3 m 8.1,1 0.3,-0.6 -0.4,-0.9 -0.4,-0.5 -0.9,-0.4 -1,0.2 -1.3,0.7 -1.1,1.1 -0.7,1 -0.1,0.8 0.4,0.9 0.2,0.2 0.9,0.5 h 0.8 l 0.9,-0.4 0.2,-0.2 0.5,-0.8 v -0.8 l -0.4,-0.9 -0.2,-0.2 -0.8,-0.5 h -0.9 l -0.8,0.4 m 7.2,-38.1 -2.7,2 0.1,-3 -0.7,0.5 -0.7,0.1 -0.4,-0.1 -0.8,-0.5 -0.3,-0.5 -0.3,-0.9 0.1,-0.9 0.6,-0.7 0.7,-0.6 0.9,-0.2 h 0.4 l 0.6,0.3 m -3.9,9.2 v -5.2 l -3.6,2.6 m 3.6,2.6 -3.6,-5.1 m 141.2,-24.4 2.6,4.4 1.8,-4.1 m -4.4,-0.3 5.7,2.6 m -3.3,-4.4 v -0.6 l -0.5,-1.2 5.8,2.6 M 78.4,114.5 h 0.3 l 0.6,0.4 0.2,0.3 0.3,0.6 -0.1,1.2 -0.4,0.6 -0.3,0.2 -0.7,0.3 -0.5,-0.1 -0.6,-0.3 -0.9,-0.7 -2.6,-3.3 -0.5,4.2 m 6.1,3.2 -0.3,-0.9 -0.5,-0.3 -0.6,-0.1 -0.6,0.2 -0.4,0.6 -0.4,1.2 -0.4,0.8 -0.7,0.6 -0.6,0.2 -0.9,-0.1 -0.6,-0.3 -0.2,-0.4 -0.2,-0.9 0.1,-1.2 0.4,-0.8 0.3,-0.3 0.6,-0.3 0.9,0.1 0.6,0.4 0.5,0.6 0.2,1 0.2,1.2 0.3,0.6 0.5,0.4 h 0.6 l 0.7,-0.2 0.3,-0.9 0.2,-1.3 m 4.3,-49.9 h 0.3 l 0.5,0.4 0.3,0.4 0.2,0.6 -0.1,1.2 -0.4,0.5 -0.3,0.3 -0.7,0.2 -0.6,-0.1 -0.5,-0.3 -0.8,-0.8 -2.6,-3.3 -0.6,4.1 m 4.8,5.5 0.6,-0.3 0.4,-0.8 0.1,-0.6 L 84,77.2 83.2,76.4 81.7,76 80.3,75.8 79,75.9 l -0.6,0.5 -0.5,0.9 v 0.3 l 0.2,0.9 0.5,0.7 0.8,0.4 h 0.3 l 1,-0.2 0.6,-0.5 0.5,-0.8 v -0.3 l -0.2,-1 -0.5,-0.6 -0.8,-0.4 m 116,8.3 4.1,3.2 0.2,-4.5 m -4.3,1.3 6.3,0.3 M 198,81 h -0.3 l -0.6,-0.4 -0.2,-0.3 -0.3,-0.6 v -1.2 l 0.4,-0.6 0.3,-0.3 0.6,-0.2 h 0.6 l 0.6,0.3 0.9,0.7 2.8,3.1 0.2,-4.2 m -57.7,-17.5 3,-4.2 h -4.5 m 1.5,4.2 v -6.3 m -6.2,6.3 h 3 l 0.3,-2.7 -0.3,0.3 -0.9,0.3 h -0.9 l -0.9,-0.3 -0.6,-0.6 -0.3,-0.9 -0.1,-0.6 0.3,-0.9 0.6,-0.6 0.9,-0.3 h 0.9 l 0.9,0.3 0.3,0.3 0.3,0.6 m 38.5,218.3 3,4.2 1.5,-4.3 m -4.5,0.1 6,2 m -3.9,-7.9 -0.9,2.8 2.4,1.2 -0.2,-0.4 v -0.9 l 0.3,-0.9 0.6,-0.7 0.8,-0.4 h 0.9 l 0.6,0.2 0.7,0.6 0.4,0.7 v 1 l -0.3,0.8 -0.6,0.8 -0.4,0.2 -0.6,0.1 m -51.1,53 0.6,-0.2 0.9,-0.9 -0.2,6.3 m 2,-6.5 3.3,0.2 -1.9,2.3 h 0.9 l 0.6,0.3 0.2,0.4 0.3,0.9 v 0.6 l -0.3,0.9 -0.7,0.5 -0.9,0.3 h -0.9 l -0.9,-0.4 -0.2,-0.3 -0.3,-0.6 m 73.1,-161.5 2.5,-4.5 -4.5,0.5 m 2,4 -0.7,-6.3 m -2,5.1 -0.6,0.4 -0.8,1 -0.7,-6.3 m 7.6,22.5 2.7,4.4 1.7,-4.1 m -4.4,-0.3 5.8,2.5 m -3.1,-4.8 -0.3,-0.1 -0.4,-0.5 -0.2,-0.4 v -0.7 l 0.4,-1.1 0.6,-0.4 0.3,-0.1 0.7,-0.1 0.6,0.3 0.4,0.5 0.6,0.9 1.6,3.9 1.6,-3.8 m 213.4,26.8 h -0.3 l -0.7,-0.3 -0.3,-0.3 -0.3,-0.6 v -1.2 l 0.3,-0.6 0.3,-0.3 0.6,-0.3 h 0.6 l 0.6,0.3 0.9,0.6 3.1,2.9 -0.1,-4.2 m -4.3,-5 0.9,0.3 0.7,0.6 0.3,0.9 v 0.3 l -0.3,0.9 -0.6,0.6 -0.9,0.3 h -0.3 l -0.9,-0.3 -0.6,-0.5 -0.3,-0.9 v -0.3 l 0.3,-0.9 0.5,-0.7 1.2,-0.3 h 1.5 l 1.5,0.3 1,0.6 0.3,0.9 v 0.6 l -0.3,0.9 -0.6,0.3 m -130.7,19.8 1.5,-2.6 -2.2,-1.7 0.1,0.5 -0.2,0.9 -0.4,0.8 -0.7,0.6 -0.8,0.2 -1,-0.2 -0.5,-0.3 -0.6,-0.7 -0.2,-0.8 0.2,-0.9 0.4,-0.8 0.7,-0.6 0.4,-0.2 0.7,0.1 m 0.2,6.9 0.2,0.1 0.4,0.6 0.1,0.4 v 0.7 l -0.6,1 -0.6,0.4 -0.4,0.1 -0.6,-0.1 -0.6,-0.3 -0.3,-0.5 -0.5,-1 -1.1,-4.1 -2.1,3.7 m 145.7,16.6 5.1,-0.5 -3,-3.4 m -2.1,3.9 4.7,-4.2 m -9.1,-0.9 6.7,-1.9 m -3.9,5 -2.8,-3.1 m -219.5,57.8 -3,0.7 0.3,2.7 0.3,-0.4 0.8,-0.5 0.9,-0.2 0.9,0.1 0.7,0.5 0.5,0.8 0.1,0.6 -0.1,0.9 -0.4,0.7 -0.8,0.5 -0.9,0.2 -0.9,-0.1 -0.4,-0.2 -0.4,-0.5 m 7.6,-7 -3,0.7 0.3,2.7 0.3,-0.4 0.8,-0.5 0.9,-0.2 0.9,0.1 0.7,0.5 0.5,0.8 0.1,0.6 -0.1,0.9 -0.4,0.8 -0.8,0.4 -0.9,0.2 -0.9,-0.1 -0.4,-0.2 -0.4,-0.5 m 206.9,-38.6 2.3,-2.4 0.5,2.9 0.6,-0.6 0.7,-0.3 h 0.4 l 0.8,0.4 0.5,0.4 0.4,0.8 0.1,0.9 -0.4,0.8 -0.6,0.7 -0.8,0.5 h -0.5 l -0.6,-0.2 m 2.3,-10 -2.1,2.2 1.8,2 v -0.4 l 0.4,-0.9 0.6,-0.6 0.8,-0.5 h 0.9 l 0.9,0.4 0.4,0.4 0.5,0.8 v 0.8 l -0.4,0.9 -0.6,0.7 -0.8,0.4 -0.5,0.1 -0.6,-0.2 m -173.6,4.2 2.9,-0.5 -0.1,-2.7 -0.3,0.3 -0.8,0.4 -0.9,0.2 -0.9,-0.2 -0.7,-0.5 -0.5,-0.8 -0.1,-0.6 0.2,-0.9 0.5,-0.7 0.8,-0.5 0.9,-0.1 1,0.1 0.3,0.3 0.4,0.5 m -5,6 -3.3,0.6 1.4,-2.7 -0.9,0.1 -0.6,-0.2 -0.4,-0.2 -0.4,-0.8 -0.1,-0.6 0.1,-1 0.5,-0.7 0.9,-0.4 0.9,-0.2 0.9,0.2 0.3,0.2 0.4,0.6 m 0.4,43.3 -1.5,-2.6 -2.5,1.2 0.4,0.1 0.8,0.6 0.4,0.8 0.2,0.9 -0.2,0.8 -0.6,0.7 -0.5,0.3 -0.9,0.3 -0.8,-0.2 -0.8,-0.7 -0.4,-0.7 -0.2,-1 0.1,-0.4 0.3,-0.5 m 8.8,4.6 -5.1,-0.4 2.3,3.8 m 2.8,-3.4 -5.4,3.2 m 179.3,8.5 -1.8,-2.7 2.9,0.1 -0.5,-0.8 -0.1,-0.6 0.1,-0.5 0.6,-0.7 0.5,-0.4 0.9,-0.2 0.8,0.1 0.8,0.6 0.5,0.7 0.3,0.9 -0.1,0.4 -0.3,0.6 m -9.6,-4.7 6.9,-1.2 m -4.5,4.6 -2.4,-3.4 m -24.2,24.3 3.3,-0.3 -1.6,2.6 0.9,-0.1 0.6,0.2 0.4,0.3 0.4,0.9 v 0.6 l -0.2,0.9 -0.5,0.6 -0.9,0.4 -0.9,0.1 -0.9,-0.2 -0.4,-0.3 -0.3,-0.5 m 6.3,-5.8 -0.8,0.4 -0.3,0.6 0.1,0.6 0.3,0.6 0.7,0.2 1.2,0.2 0.9,0.2 0.7,0.6 0.3,0.6 0.1,0.8 -0.2,0.7 -0.3,0.3 -0.9,0.4 -1.2,0.1 -0.9,-0.2 -0.3,-0.3 -0.4,-0.5 -0.1,-0.9 0.3,-0.7 0.5,-0.6 0.9,-0.4 1.1,-0.4 0.6,-0.4 0.3,-0.6 -0.1,-0.6 -0.4,-0.6 -0.9,-0.2 -1.3,0.1 m -89.2,5.7 -3,0.1 -0.2,2.7 0.3,-0.3 0.9,-0.3 h 0.9 l 0.9,0.2 0.6,0.6 0.3,0.9 v 0.6 l -0.3,0.9 -0.6,0.6 -0.8,0.4 h -0.9 l -1,-0.3 -0.3,-0.3 -0.3,-0.6 M 330,341 v -0.3 l 0.3,-0.6 0.3,-0.3 0.6,-0.3 1.2,-0.1 0.6,0.3 0.3,0.3 0.3,0.6 v 0.6 l -0.3,0.6 -0.6,0.9 -2.9,3.1 4.2,-0.1 m -50.9,-18.4 -2,-2.2 -2.2,1.6 h 0.4 l 0.8,0.5 0.6,0.7 0.4,0.8 -0.1,0.9 -0.4,0.8 -0.5,0.4 -0.8,0.4 -0.9,-0.1 -0.8,-0.4 -0.6,-0.7 -0.4,-0.9 v -0.4 l 0.3,-0.6 m 7.7,1 2.3,2.4 -3,0.3 0.6,0.7 0.1,0.6 v 0.4 l -0.4,0.9 -0.5,0.4 -0.9,0.3 H 282 l -0.8,-0.5 -0.6,-0.6 -0.4,-0.9 v -0.4 l 0.3,-0.7 m 170,-173.7 2.2,-2.5 0.6,2.9 0.6,-0.6 0.6,-0.3 h 0.4 l 0.9,0.3 0.5,0.4 0.4,0.8 0.1,0.9 -0.3,0.9 -0.6,0.6 -0.8,0.5 -0.5,0.1 -0.6,-0.2 m 0.6,-6.4 0.2,-0.7 -0.1,-1.2 4.8,4.1 m -98.7,-8 -2.1,2.6 -0.7,-3 -0.5,0.7 -0.6,0.3 h -0.5 l -0.9,-0.3 -0.4,-0.4 -0.5,-0.8 -0.1,-0.9 0.4,-0.8 0.5,-0.7 0.9,-0.5 0.4,-0.1 0.6,0.2 m -0.5,8.5 0.4,-0.9 -0.3,-0.6 -0.4,-0.4 -0.7,-0.1 -0.6,0.3 -1,0.7 -0.8,0.5 h -0.9 l -0.6,-0.1 -0.7,-0.6 -0.3,-0.6 v -0.4 l 0.3,-0.9 0.8,-0.9 0.8,-0.5 0.4,-0.1 0.7,0.2 0.7,0.6 0.2,0.6 0.1,0.8 -0.3,0.9 -0.6,1.1 -0.1,0.7 0.2,0.6 0.5,0.4 0.7,0.1 0.8,-0.5 0.8,-1 m 112.2,-25.9 0.1,-3.3 2.3,1.9 v -0.9 l 0.4,-0.6 0.3,-0.3 0.9,-0.3 h 0.6 l 0.9,0.4 0.5,0.6 0.3,0.9 v 0.9 l -0.3,0.9 -0.4,0.3 -0.6,0.2 m -3.4,-5.9 h -0.3 l -0.6,-0.4 -0.2,-0.3 -0.3,-0.6 V 121 l 0.3,-0.6 0.3,-0.3 0.7,-0.2 h 0.6 l 0.5,0.3 0.9,0.6 2.9,3.1 0.2,-4.2 m -75.2,-45.1 -0.8,3.2 -1.9,-2.3 -0.2,0.9 -0.4,0.5 -0.4,0.2 h -0.9 l -0.6,-0.1 -0.8,-0.5 -0.4,-0.7 -0.1,-1 0.2,-0.9 0.5,-0.8 0.4,-0.2 0.7,-0.1 m 2.6,10.4 -5.4,-4.5 m 6.4,0.4 -1,4.1 m 32.3,-32 h -3.3 l 1.8,-2.4 h -0.9 l -0.6,-0.3 -0.3,-0.3 -0.3,-0.9 v -0.6 l 0.3,-0.9 0.6,-0.6 0.9,-0.3 h 0.9 l 0.9,0.3 0.3,0.3 0.3,0.6 m -9,5.1 h 3 l 0.3,-2.7 -0.3,0.3 -0.9,0.3 h -0.9 l -0.9,-0.3 -0.6,-0.6 -0.3,-0.9 v -0.6 l 0.3,-0.9 0.6,-0.6 0.9,-0.3 h 0.9 l 0.9,0.3 0.3,0.3 0.3,0.6 m 33.1,36.8 -1.2,-3.1 2.9,0.8 -0.3,-0.8 v -0.7 l 0.2,-0.4 0.7,-0.6 0.6,-0.2 0.9,-0.1 0.8,0.4 0.6,0.7 0.3,0.8 0.1,1 -0.2,0.4 -0.4,0.5 m -7.2,-6.8 -0.5,0.5 0.1,1 0.2,0.5 0.6,0.7 1.1,0.3 1.5,-0.3 1.4,-0.6 1,-0.7 0.3,-0.8 v -0.9 l -0.2,-0.3 -0.6,-0.7 -0.7,-0.3 h -1 l -0.3,0.1 -0.7,0.6 -0.3,0.8 v 1 l 0.1,0.2 0.6,0.8 0.8,0.3 1,-0.1 m -244.5,205.7 0.7,-2.9 -2.5,-1 0.2,0.4 0.1,0.9 -0.2,0.9 -0.6,0.8 -0.7,0.4 h -1 l -0.5,-0.1 -0.8,-0.5 -0.4,-0.8 -0.1,-0.9 0.2,-0.9 0.6,-0.8 0.3,-0.2 0.7,-0.1 m 2.6,9.9 0.8,-2.9 -2.6,-1 0.2,0.4 0.1,1 -0.2,0.8 -0.6,0.8 -0.7,0.4 -0.9,0.1 -0.6,-0.2 -0.8,-0.5 -0.4,-0.7 -0.1,-1 0.2,-0.8 0.6,-0.8 0.3,-0.2 0.7,-0.2 m 19.6,-16.5 h 3 l 0.3,-2.7 -0.3,0.3 -0.9,0.3 h -0.9 l -0.9,-0.3 -0.6,-0.6 -0.3,-0.9 v -0.6 l 0.3,-0.9 0.6,-0.6 0.9,-0.3 h 0.9 l 0.9,0.3 0.3,0.3 0.3,0.6 m -8.5,5.1 3,-4.2 h -4.5 m 1.5,4.2 v -6.3"
       id="nums_001"
       stroke="#000000"
       stroke-width="1" />
    <path
       d="M 235,156.5 210.6,213.4 169,333.3 109.8,331.1 88.9,292.4 66,228.3 18,175.9 l 51.2,-36.7 4,-41 6.1,-46.2 126.9,-1 -2.9,61.9 -22.4,49.6 z m 208.1,66.9 16,18.4 -35.1,38.2 40.3,57.6 -96.3,9.2 -76.8,1.8 -26.4,-29.1 -14.8,-24.5 -48.2,10.8 12.9,-47.7 h 28.7 l 38.8,-6.3 38.3,-66.6 62.2,-74.1 17.4,-68.1 51.9,-0.1 26,65.3 -1.1,32 -34.3,40 z"
       id="coupes_001"
       stroke="#ff0000"
       stroke-width="1.27"
       sodipodi:nodetypes="cccccccccccccccccccccccccccccccccc" />
    <path
       d="m 88.9,292.4 121.7,-79 m 0,0 -100.8,117.7 M 66,228.3 210.6,213.4 M 66,228.3 180.9,162.5 m 0,0 29.7,50.9 M 18,175.9 180.9,162.5 M 69.2,139.2 180.9,162.5 M 69.2,139.2 203.3,112.9 M 73.2,98.2 203.3,112.9 M 79.3,52 l 124,60.9 m 78.9,138.9 160.4,-71.6 m 0.5,43.2 L 250,295 M 459.1,241.8 250,295 m -48.2,10.8 80.4,-54 M 424,280 250,295 m -48.2,10.8 41.6,-47.7 M 464.3,337.6 264.8,319.5 M 368,346.8 264.8,319.5 m 55.7,-134.3 156.4,-45 m -94.2,-29.1 94.2,29.1 m -94.2,-29.1 95.3,-2.9"
       id="plisM_001"
       stroke="#a52a2a"
       stroke-dasharray="4" />
    <path
       d="M 443.1,223.4 282.2,251.8 M 250,295 282.2,251.8 m 38.3,-66.6 122.1,-5 M 424,280 264.8,319.5 M 400.1,43 478,108.2"
       id="plisV_001"
       stroke="#008000"
       stroke-dasharray="4, 1, 1, 1"
       stroke-width="1.27" />
    <path
       d="m 360.6,235.6 4,4 m 0,-4 -4,4 m -96.5,31.8 4,4 m 0,-4 -4,4 m 115.4,-94.7 4,4 m 0,-4 -4,4 m -37.1,113 4,4 m 0,-4 -4,4 m 94.7,-228.1 4,4 m 0,-4 -4,4"
       id="marqueV_001"
       stroke="#008000" />
    <path
       d="m 150.2,192.5 1.5,-0.7 2.3,-2.3 v 15.8"
       id="titre_1"
       stroke="#4b0082" />
    <path
       d="m 343.9,197.1 v -0.7 l 0.7,-1.5 0.8,-0.8 1.5,-0.7 h 3 l 1.5,0.7 0.7,0.8 0.8,1.5 v 1.5 l -0.8,1.5 -1.5,2.2 -7.5,7.5 h 10.5"
       id="titre_2"
       stroke="#4b0082" />
  </g>
  <g
     id="page_002">
    <path
       d="m 764.1,598.3 -0.2,3 2.7,0.4 -0.3,-0.3 -0.2,-0.9 v -0.9 l 0.3,-0.9 0.7,-0.5 0.9,-0.3 h 0.6 l 0.9,0.4 0.5,0.6 0.3,0.9 v 0.9 l -0.4,0.9 -0.3,0.3 -0.6,0.2 m -4.8,-7.3 0.3,0.9 0.8,0.6 1.5,0.4 h 0.9 l 1.5,-0.2 1,-0.6 0.3,-0.8 v -0.6 l -0.2,-1 -0.9,-0.6 -1.5,-0.4 H 767 l -1.5,0.2 -0.9,0.6 -0.4,0.9 v 0.4 m -96.7,15 v -3 l -2.7,-0.4 0.3,0.3 0.3,0.9 v 0.9 l -0.3,0.9 -0.7,0.6 -0.9,0.3 h -0.6 l -0.9,-0.3 -0.5,-0.6 -0.3,-0.9 v -0.9 l 0.3,-0.9 0.3,-0.3 0.6,-0.3 m 3.6,5.3 0.3,0.6 0.9,0.9 h -6.3 m 120.7,-84.9 1.8,-2.8 1,2.8 0.5,-0.7 0.6,-0.4 0.4,-0.1 0.9,0.3 0.5,0.3 0.6,0.7 0.2,0.8 -0.2,1 -0.5,0.7 -0.7,0.6 -0.4,0.1 -0.7,-0.1 m 0.2,-9.9 1.9,4.8 2.5,-3.8 m -4.4,-1 5.3,3.4 m 6.7,-36.6 -0.3,0.1 -0.7,-0.1 -0.3,-0.3 -0.5,-0.5 -0.3,-1.1 0.2,-0.7 0.2,-0.4 0.5,-0.4 0.6,-0.1 0.6,0.1 1.1,0.4 3.6,2.2 -1,-4.1 m -6.8,-1.1 0.5,0.8 0.7,0.2 0.6,-0.2 0.5,-0.4 0.1,-0.7 v -1.2 l 0.1,-0.9 0.5,-0.8 0.5,-0.4 0.8,-0.2 0.7,0.1 0.4,0.3 0.5,0.8 0.3,1.1 -0.1,1 -0.2,0.3 -0.5,0.5 -0.9,0.2 -0.7,-0.2 -0.7,-0.4 -0.5,-0.8 -0.6,-1.1 -0.4,-0.5 -0.7,-0.2 -0.6,0.2 -0.5,0.4 v 1 l 0.3,1.3 m -87,0.9 0.2,0.2 0.4,0.6 0.1,0.4 v 0.6 l -0.6,1.1 -0.5,0.4 -0.5,0.1 -0.6,-0.1 -0.6,-0.3 -0.3,-0.5 -0.5,-1 -1.1,-4.1 -2.1,3.7 m 2.9,7.6 -4,-5.7 m 6.1,2.1 -2.1,3.6 m 88.5,-49.1 h -0.3 l -0.6,-0.3 -0.2,-0.4 -0.3,-0.6 0.1,-1.2 0.4,-0.6 0.3,-0.2 0.6,-0.3 0.6,0.1 0.6,0.3 0.8,0.7 2.8,3.3 0.3,-4.2 m -4.9,-5.2 -0.7,0.2 -0.3,0.9 -0.1,0.6 0.2,0.9 0.9,0.7 1.4,0.4 1.5,0.1 1.3,-0.2 0.6,-0.5 0.4,-0.9 v -0.3 l -0.2,-0.9 -0.5,-0.6 -0.9,-0.4 h -0.3 l -0.9,0.2 -0.7,0.5 -0.4,0.9 v 0.3 l 0.2,0.9 0.6,0.7 0.8,0.3 m -63,-30 0.2,0.6 0.7,1.1 -6.2,-1.2 m 5.9,3.8 -0.1,-0.9 -0.5,-0.4 -0.6,-0.1 -0.7,0.1 -0.4,0.6 -0.5,1.1 -0.4,0.8 -0.7,0.5 -0.7,0.2 -0.9,-0.2 -0.5,-0.4 -0.2,-0.3 -0.2,-1 0.3,-1.1 0.4,-0.9 0.4,-0.2 0.6,-0.2 0.9,0.2 0.5,0.4 0.5,0.7 0.1,0.9 0.1,1.3 0.2,0.6 0.5,0.4 0.6,0.1 0.7,-0.2 0.4,-0.8 0.3,-1.3 m 60.7,-22.4 -0.3,-0.6 -1,-0.8 6.3,-0.2 m -6.5,-1.6 -0.2,-3.3 2.5,1.8 V 384 l 0.3,-0.6 0.2,-0.4 0.9,-0.3 h 0.6 l 0.9,0.3 0.7,0.5 0.3,0.9 v 0.9 l -0.2,0.9 -0.3,0.3 -0.6,0.4 m 15.1,-45.3 0.4,-0.6 0.4,-1.2 2.9,5.7 m -0.3,-7.2 -0.7,0.7 -0.1,1.1 0.4,1.4 0.4,0.8 0.9,1.2 1,0.6 0.9,-0.2 0.5,-0.2 0.7,-0.7 0.1,-1.1 -0.4,-1.5 -0.4,-0.8 -0.9,-1.2 -1,-0.5 -0.9,0.1 -0.4,0.2 m -96.2,-55.7 1.4,-4.9 -4.3,1.5 m 2.9,3.4 -2.2,-5.9 m -0.9,6.9 -3.1,1.2 0.9,-2.9 -0.9,0.3 -0.6,-0.1 -0.4,-0.2 -0.6,-0.7 -0.2,-0.6 v -0.9 l 0.3,-0.8 0.8,-0.6 0.8,-0.3 h 1 l 0.4,0.2 0.4,0.4 m -47.5,28.7 -1,-5.1 -3.1,3.3 m 4.1,1.8 -4.6,-4.3 m 1.5,7.5 0.4,-0.9 -0.3,-1 -0.8,-1.3 -0.7,-0.6 -1.3,-0.8 -1.1,-0.2 -0.8,0.5 -0.4,0.4 -0.4,0.9 0.2,1 0.9,1.3 0.7,0.6 1.3,0.8 1,0.2 0.9,-0.5 0.3,-0.3 m 41.6,96.7 v -0.7 l -0.4,-1.2 5.6,2.8 m -4.6,-5.2 -0.2,0.9 0.4,0.5 0.6,0.3 h 0.6 l 0.6,-0.4 0.8,-0.9 0.6,-0.7 0.8,-0.3 h 0.7 l 0.8,0.4 0.4,0.5 0.2,0.4 -0.2,1 -0.5,1.1 -0.7,0.6 -0.4,0.2 h -0.6 l -0.8,-0.4 -0.4,-0.6 -0.3,-0.8 0.1,-0.9 0.3,-1.2 v -0.7 l -0.4,-0.5 -0.6,-0.3 H 709 l -0.7,0.7 -0.6,1.2 m -107.2,6.6 -4.9,-1.8 1.2,4.3 m 3.7,-2.5 -6.1,1.7 m 7.8,4.7 -6.8,-1.1 m 5.7,-2.9 1.1,4 m 54.4,44.1 -0.1,-0.2 -0.1,-0.7 0.1,-0.4 0.4,-0.6 1,-0.6 0.7,-0.1 0.4,0.2 0.5,0.3 0.3,0.5 0.1,0.7 -0.1,1.1 -1,4.1 3.6,-2.2 m 1.2,-8 0.7,6.9 m -4.3,-4.8 3.6,-2.1 m -43.7,-6.4 -5.1,-0.3 2.4,3.8 m 2.7,-3.5 -5.3,3.4 m 7.5,0.2 -0.7,-0.6 -0.7,0.1 -0.5,0.3 -0.4,0.5 0.1,0.7 0.4,1.2 0.2,0.9 -0.2,0.8 -0.4,0.6 -0.7,0.5 h -0.7 l -0.4,-0.1 -0.7,-0.6 -0.7,-1 -0.2,-0.9 0.1,-0.4 0.4,-0.6 0.7,-0.5 h 0.7 l 0.8,0.2 0.8,0.6 0.8,0.8 0.6,0.4 0.7,-0.1 0.5,-0.3 0.3,-0.6 -0.2,-0.9 -0.7,-1.1 M 810.1,226.6 h -0.7 l -1.2,0.3 3.3,-5.4 m -7,2.3 -0.1,0.7 0.7,0.7 0.5,0.3 0.9,0.2 1,-0.4 1,-1.1 0.8,-1.3 0.4,-1.2 -0.2,-0.8 -0.7,-0.7 -0.2,-0.2 -0.9,-0.2 -0.9,0.2 -0.7,0.6 -0.1,0.3 -0.2,0.9 0.2,0.8 0.6,0.7 0.2,0.2 0.9,0.2 0.9,-0.2 0.7,-0.6 m -68.3,-23.4 0.5,-0.9 0.7,-0.4 0.9,-0.2 0.3,0.1 0.8,0.5 0.5,0.7 0.1,0.9 v 0.3 l -0.5,0.8 -0.7,0.5 -1,0.1 h -0.2 l -0.9,-0.5 -0.4,-0.7 -0.1,-1.2 0.3,-1.5 0.6,-1.4 0.7,-0.8 1,-0.1 0.6,0.1 0.8,0.5 0.2,0.6 m -34.5,52.9 -3.2,4 4.5,0.2 m -1.3,-4.2 -0.3,6.3 m 3.6,-6.1 3.3,0.1 -2,2.4 h 0.9 l 0.6,0.3 0.3,0.3 0.3,0.9 -0.1,0.6 -0.3,0.9 -0.6,0.6 -0.9,0.3 -0.9,-0.1 -0.9,-0.3 -0.3,-0.3 -0.3,-0.7 m -81.5,-11.3 3.3,0.4 -2.1,2.2 0.9,0.1 0.6,0.4 0.3,0.3 0.2,0.9 -0.1,0.6 -0.4,0.9 -0.7,0.5 -0.9,0.2 -0.9,-0.1 -0.8,-0.4 -0.3,-0.3 -0.2,-0.7 m 9.5,-1.9 -0.4,0.8 -0.7,0.6 -0.9,0.2 -0.3,-0.1 -0.9,-0.4 -0.5,-0.6 -0.2,-1 V 246 l 0.4,-0.8 0.7,-0.5 0.9,-0.2 h 0.3 l 0.9,0.4 0.5,0.7 0.2,1.2 -0.2,1.5 -0.5,1.4 -0.6,0.9 -1,0.2 -0.6,-0.1 -0.8,-0.4 -0.3,-0.6 m -26.7,-23.8 0.3,0.6 0.9,0.9 -6.3,0.1 m -3,-44.8 -0.6,-0.8 -1.1,-0.2 -1.5,0.4 -0.8,0.3 -1.2,0.9 -0.6,0.9 v 0.9 l 0.3,0.6 0.6,0.7 1.1,0.2 1.5,-0.3 0.8,-0.4 1.3,-0.8 0.6,-0.9 -0.1,-1 -0.2,-0.4 m -15.4,-51.3 h 0.3 l 0.7,0.1 0.3,0.3 0.4,0.5 0.3,1.2 -0.2,0.6 -0.3,0.4 -0.5,0.4 -0.6,0.1 -0.6,-0.2 -1,-0.4 -3.5,-2.4 0.7,4.1 m 72.8,-25.3 -0.1,-0.7 -0.5,-1.1 5.9,2 m -4.6,-6.6 -1,2.9 2.5,1.1 -0.2,-0.4 v -0.9 l 0.3,-0.9 0.6,-0.7 0.7,-0.4 h 1 l 0.6,0.2 0.7,0.6 0.4,0.7 v 1 l -0.3,0.8 -0.6,0.8 -0.4,0.2 -0.6,0.1 m -88.5,-34.7 -7,-0.2 m 5.3,-3.6 1.7,3.8 m -6.7,-23.8 2.3,-2 -1.6,-2.2 v 0.4 l -0.5,0.8 -0.7,0.6 -0.8,0.4 h -0.9 l -0.8,-0.5 -0.4,-0.4 -0.4,-0.9 v -0.9 l 0.5,-0.8 0.7,-0.6 0.8,-0.4 0.5,0.1 0.6,0.2 m 112.1,29.3 0.4,5.1 3.4,-2.8 m -3.8,-2.3 4,4.9 m -0.5,-7.7 -0.5,0.8 0.1,1.1 0.7,1.4 0.6,0.7 1.2,0.9 1,0.4 0.9,-0.4 0.5,-0.4 0.5,-0.8 -0.1,-1 -0.7,-1.4 -0.6,-0.7 -1.2,-1 -1,-0.3 -0.9,0.4 -0.4,0.2 m -6.5,-20.4 -2,-2.6 3,-0.1 -0.6,-0.7 -0.1,-0.6 v -0.4 l 0.6,-0.8 0.5,-0.4 0.9,-0.3 0.8,0.1 0.8,0.5 0.5,0.8 0.3,0.9 v 0.4 l -0.3,0.6 m -8,-5.6 0.9,-0.3 0.8,0.2 0.8,0.5 0.2,0.2 0.3,0.9 -0.1,0.9 -0.5,0.7 -0.3,0.2 -0.9,0.3 -0.8,-0.1 -0.8,-0.5 -0.2,-0.2 -0.3,-0.9 0.1,-0.9 0.8,-1 1.2,-0.9 1.4,-0.6 1,-0.1 0.8,0.5 0.4,0.5 0.3,0.9 -0.3,0.6 m -60.3,-8.7 1.9,-4.8 -4.3,1 m 2.4,3.8 -1.5,-6.2 m 117.9,141.4 0.4,-0.5 0.5,-1.2 2.3,5.9 m -0.3,-5.3 -0.1,-0.3 0.1,-0.6 0.2,-0.4 0.4,-0.5 1.1,-0.4 h 0.7 l 0.4,0.2 0.5,0.5 0.2,0.5 -0.1,0.7 -0.2,1 -1.7,3.9 3.9,-1.5 m -43.7,-50.3 -0.5,0.5 -0.5,1.2 -2.2,-5.9 m -1.7,7.6 1.3,-5 -4.2,1.6 m 2.9,3.4 -2.2,-5.9 m 181,201.2 -1.9,4.7 4.4,-1 m -2.5,-3.7 1.5,6.1 m 4.1,-7.5 -1.9,4.8 4.4,-1.1 m -2.5,-3.7 1.5,6.1 m -3.8,-79.8 -0.6,0.3 -1,0.8 0.4,-6.3 m -5.6,6.2 3.4,-6.1 m 0.8,6.4 -4.2,-0.3 m -98.9,-98.7 -0.3,-0.2 -0.4,-0.5 -0.1,-0.4 v -0.7 l 0.5,-1.1 0.5,-0.4 0.4,-0.1 h 0.7 l 0.6,0.3 0.4,0.5 0.5,0.9 1.4,4 1.8,-3.7 m -4.3,-5.5 -0.2,1 0.6,0.9 1.2,0.9 0.8,0.4 1.5,0.4 1.1,-0.1 0.6,-0.7 0.3,-0.5 0.1,-1 -0.5,-0.9 -1.3,-0.9 -0.8,-0.4 -1.4,-0.4 -1.1,0.1 -0.7,0.7 -0.2,0.4 m 161.6,130 2.5,1.6 1.8,-2.1 h -0.5 l -0.9,-0.2 -0.7,-0.5 -0.6,-0.7 -0.2,-0.8 0.2,-1 0.3,-0.5 0.8,-0.6 0.8,-0.1 0.9,0.2 0.8,0.5 0.6,0.7 0.1,0.4 -0.1,0.7 m -8.8,0.4 0.9,0.3 1,-0.5 1.1,-1.1 0.5,-0.7 0.5,-1.4 v -1.1 l -0.6,-0.8 -0.5,-0.3 -0.9,-0.2 -1,0.4 -1.1,1.1 -0.4,0.8 -0.6,1.4 v 1.1 l 0.6,0.7 0.4,0.3 m 4.6,28 -0.6,5.1 3.9,-2.1 m -3.3,-3 3,5.5 m 2.9,-7.7 -0.5,-0.3 -0.9,0.1 -0.6,0.3 -0.6,0.7 -0.1,1.1 0.5,1.4 0.7,1.4 0.8,0.9 0.8,0.2 1,-0.2 0.2,-0.1 0.7,-0.7 0.2,-0.8 -0.2,-1 -0.1,-0.2 -0.7,-0.7 -0.8,-0.2 -1,0.2 -0.2,0.1 -0.7,0.7 -0.2,0.8 0.2,1 m -262.1,420.3 3.3,-0.1 -1.8,2.4 h 0.9 l 0.6,0.3 0.3,0.3 0.4,0.9 v 0.6 l -0.3,0.9 -0.6,0.6 -0.9,0.3 -0.9,0.1 -0.9,-0.3 -0.3,-0.3 -0.3,-0.6 m 5.8,-5.3 h 3.3 l -1.7,2.4 h 0.9 l 0.6,0.3 0.3,0.3 0.3,0.8 v 0.6 l -0.3,1 -0.5,0.6 -0.9,0.3 h -0.9 l -0.9,-0.3 -0.4,-0.2 -0.3,-0.6 m 63.1,-7.4 v -0.3 l 0.3,-0.7 0.2,-0.3 0.6,-0.3 1.2,-0.2 0.6,0.3 0.3,0.2 0.4,0.6 0.1,0.6 -0.3,0.6 -0.5,1 -2.7,3.3 4.2,-0.5 m 1.1,-6.4 3.3,-0.3 -1.6,2.5 0.9,-0.1 0.7,0.3 0.3,0.2 0.4,0.9 v 0.6 l -0.2,0.9 -0.5,0.7 -0.9,0.4 -0.9,0.1 -0.9,-0.2 -0.3,-0.3 -0.4,-0.6 m 58.1,-6 0.1,-0.3 0.3,-0.5 0.3,-0.3 0.6,-0.3 h 1.2 l 0.6,0.4 0.3,0.3 0.3,0.6 -0.1,0.6 -0.3,0.6 -0.6,0.8 -3.1,2.9 4.2,0.2 m 1.8,-4.7 v -0.3 l 0.3,-0.6 0.4,-0.3 0.6,-0.3 h 1.2 l 0.5,0.4 0.3,0.3 0.3,0.6 v 0.6 l -0.3,0.6 -0.7,0.9 -3.1,2.8 4.2,0.2 m -10.9,-73.2 -0.6,0.3 -0.9,0.9 V 641 m -5.2,6.6 3,-6.4 m 1.2,6.3 -4.2,0.1 m 69.8,-6.3 -0.5,0.4 -0.8,1 -0.8,-6.2 m -4,6.1 0.4,0.6 0.9,0.1 h 0.6 l 0.9,-0.4 0.4,-1 0.2,-1.5 -0.2,-1.5 -0.5,-1.2 -0.6,-0.5 -1,-0.2 -0.3,0.1 -0.8,0.4 -0.5,0.6 -0.2,1 v 0.3 l 0.4,0.8 0.7,0.5 0.9,0.2 h 0.3 l 0.9,-0.4 0.5,-0.7 0.2,-0.9 m 12.1,75.5 -0.9,0.3 -0.3,0.6 v 0.6 l 0.3,0.6 0.6,0.3 1.2,0.4 0.9,0.3 0.6,0.6 0.2,0.6 v 0.9 l -0.3,0.6 -0.3,0.3 -0.9,0.3 -1.2,-0.1 -0.9,-0.3 -0.3,-0.3 -0.3,-0.6 v -0.9 l 0.4,-0.6 0.6,-0.6 0.9,-0.3 1.2,-0.2 0.6,-0.3 0.3,-0.6 v -0.6 l -0.3,-0.6 -0.9,-0.3 -1.3,-0.1 m 50.7,-105.2 -0.4,-0.8 v -0.9 l 0.4,-0.8 0.2,-0.2 0.9,-0.4 h 0.8 l 0.9,0.4 0.2,0.2 0.4,0.8 v 0.9 l -0.4,0.8 -0.2,0.3 -0.9,0.4 h -0.8 l -1.1,-0.7 -1,-1 -0.9,-1.3 -0.2,-1 0.4,-0.9 0.5,-0.4 0.8,-0.4 0.6,0.2 m 18.6,113 0.6,-0.3 0.9,-0.8 -0.2,6.3 m 1.2,-5.1 0.6,-0.3 1,-0.9 -0.2,6.3 m -328.7,-93.9 -0.2,0.3 -0.5,0.4 -0.4,0.1 h -0.7 l -1,-0.5 -0.5,-0.5 -0.1,-0.4 v -0.7 l 0.2,-0.5 0.6,-0.4 0.9,-0.6 4,-1.4 -3.8,-1.8 m -7,3.7 2.7,1.2 1.5,-2.3 -0.4,0.2 -1,-0.1 -0.8,-0.4 -0.7,-0.7 -0.3,-0.8 0.2,-0.9 0.2,-0.6 0.7,-0.7 0.8,-0.2 0.9,0.1 0.8,0.4 0.7,0.6 0.2,0.4 v 0.7 m -14,98.5 v -0.3 l 0.3,-0.6 0.3,-0.3 0.6,-0.3 h 1.2 l 0.6,0.3 0.3,0.3 0.3,0.6 v 0.6 l -0.3,0.6 -0.6,0.9 -3,3 h 4.2 m 4.3,-6.3 -3,4.2 h 4.5 m -1.5,-4.2 v 6.3 m -28.4,-66.5 h 0.3 l 0.6,0.4 0.3,0.3 0.2,0.6 v 1.2 l -0.3,0.6 -0.3,0.3 -0.6,0.2 H 582 l -0.6,-0.3 -0.9,-0.6 -2.9,-3.1 -0.1,4.2 m 4.8,1.2 0.3,0.6 0.9,0.9 -6.3,-0.1 m 54.3,-354.2 -0.7,-0.1 -1.2,0.3 3.5,-5.3 m -7.6,2.8 2.5,1.7 1.8,-2.1 -0.4,0.1 -1,-0.3 -0.7,-0.4 -0.6,-0.8 -0.2,-0.8 0.3,-0.9 0.3,-0.5 0.8,-0.6 0.8,-0.2 0.9,0.3 0.8,0.5 0.5,0.7 0.1,0.4 v 0.7 m -40.9,4.5 -0.4,0.6 -0.5,1.2 -2.7,-5.7 m -1,7.8 0.9,-5.1 -4.1,1.9 m 3.2,3.2 -2.7,-5.7 m -13,73 0.1,-0.3 0.6,-0.4 0.4,-0.1 0.7,0.1 1,0.6 0.4,0.5 0.1,0.4 -0.1,0.7 -0.3,0.5 -0.5,0.4 -1,0.5 -4.1,1.1 3.7,2.1 m 6.4,-1.2 -0.7,0.7 -0.8,0.2 -0.9,-0.2 -0.3,-0.1 -0.6,-0.7 -0.2,-0.9 0.2,-0.9 0.1,-0.3 0.7,-0.6 0.8,-0.2 1,0.2 0.2,0.1 0.7,0.7 0.2,0.9 -0.4,1.1 -0.7,1.3 -1,1.2 -1,0.5 -0.9,-0.2 -0.5,-0.3 -0.7,-0.7 0.1,-0.7 m -12.1,-42.1 v 3.3 l -2.4,-1.9 v 0.9 l -0.3,0.6 -0.3,0.3 -0.9,0.3 h -0.6 l -0.9,-0.3 -0.6,-0.6 -0.3,-0.9 v -0.9 l 0.3,-0.9 0.3,-0.3 0.6,-0.3 m 5,7.2 -0.2,-0.9 -0.9,-0.6 -1.5,-0.3 h -0.9 l -1.5,0.3 -0.9,0.6 -0.4,0.9 v 0.6 l 0.3,0.9 0.9,0.6 1.5,0.3 h 0.9 l 1.5,-0.3 0.9,-0.6 0.3,-0.9 v -0.4 m 176.7,-279.5 -0.9,3.2 -1.8,-2.4 -0.3,0.8 -0.4,0.5 -0.4,0.2 -0.9,0.1 -0.6,-0.2 -0.8,-0.5 -0.4,-0.7 -0.1,-1 0.3,-0.9 0.5,-0.7 0.4,-0.2 0.6,-0.2 m 3,8.3 v -1 l -0.7,-0.8 -1.4,-0.7 -0.9,-0.2 -1.5,-0.1 -1,0.3 -0.5,0.8 -0.2,0.6 v 0.9 l 0.7,0.8 1.4,0.7 0.9,0.3 1.5,0.1 1,-0.3 0.6,-0.8 0.1,-0.5 m 24,-10.5 -3,-1.5 2.8,-1.3 -0.8,-0.4 -0.4,-0.6 -0.2,-0.4 0.2,-0.9 0.3,-0.6 0.7,-0.6 0.8,-0.3 0.9,0.2 0.8,0.4 0.7,0.7 0.1,0.4 v 0.7 m -6.4,0.8 h -0.7 l -1.2,0.3 2.9,-5.5 m 59.7,44.6 -0.2,-0.3 0.1,-0.7 0.1,-0.4 0.5,-0.5 1.1,-0.5 0.6,0.1 0.4,0.1 0.5,0.5 0.3,0.5 -0.1,0.7 -0.1,1 -1.6,4 3.8,-1.7 m 1.9,-7.7 -2.8,1.2 0.8,2.6 0.2,-0.4 0.7,-0.6 0.8,-0.3 1,-0.1 0.7,0.3 0.7,0.7 0.2,0.5 0.1,1 -0.3,0.8 -0.7,0.6 -0.8,0.4 h -1 l -0.4,-0.1 -0.5,-0.4 m 24.9,-37.4 1.1,2.7 2.7,-0.7 -0.4,-0.1 -0.6,-0.8 -0.4,-0.8 v -0.9 l 0.3,-0.8 0.8,-0.6 0.5,-0.2 1,-0.1 0.7,0.3 0.7,0.8 0.3,0.8 v 1 l -0.1,0.3 -0.5,0.5 m -5.3,-3.5 -0.5,-0.5 -1.2,-0.5 5.9,-2.3 m -27.9,-14.9 2.4,-4.6 -4.5,0.6 m 2.1,4 -0.9,-6.3 m -5.9,5 0.2,-0.9 0.5,-0.7 0.9,-0.4 0.2,-0.1 1,0.2 0.7,0.5 0.4,0.9 v 0.3 l -0.2,0.9 -0.5,0.7 -0.8,0.4 h -0.3 l -1,-0.1 -0.6,-0.5 -0.5,-1.2 -0.2,-1.5 0.1,-1.5 0.5,-1 0.8,-0.4 0.6,-0.1 1,0.2 0.3,0.5 m -21.2,14.2 -1.6,2.9 -1.3,-2.8 -0.4,0.8 -0.6,0.4 -0.4,0.1 -0.9,-0.2 -0.5,-0.3 -0.7,-0.6 -0.2,-0.9 0.2,-0.9 0.4,-0.8 0.7,-0.6 0.4,-0.1 h 0.7 m 0.3,6.8 0.3,0.2 0.4,0.5 0.1,0.5 -0.1,0.6 -0.5,1.1 -0.6,0.4 -0.4,0.1 -0.7,-0.1 -0.5,-0.2 -0.4,-0.6 -0.5,-1 -1.2,-4 -2,3.7 m 188.2,535 h -0.6 l -1.3,0.4 2.9,-5.6 m -3.7,3.7 -0.2,0.2 -0.5,0.4 -0.4,0.1 h -0.7 l -1.1,-0.5 -0.4,-0.5 -0.1,-0.4 v -0.7 l 0.3,-0.6 0.5,-0.3 1,-0.6 4,-1.3 -3.7,-1.9 m 25.6,127.1 0.6,-0.3 0.9,-0.8 -0.1,6.3 m 5.1,-4.4 -0.3,0.9 -0.6,0.6 -0.9,0.3 h -0.3 l -0.9,-0.3 -0.6,-0.7 -0.3,-0.9 v -0.3 l 0.3,-0.9 0.6,-0.5 0.9,-0.3 h 0.3 l 0.9,0.3 0.6,0.6 0.3,1.2 v 1.5 l -0.3,1.5 -0.6,0.9 -0.9,0.3 h -0.6 l -0.9,-0.4 -0.3,-0.6 m -353.3,-211.6 4.5,-2.5 -4.1,-1.9 m -0.4,4.4 2.7,-5.7 m -6.4,3.9 0.9,0.1 0.5,-0.4 0.3,-0.5 v -0.7 l -0.5,-0.5 -0.9,-0.8 -0.7,-0.7 -0.3,-0.8 v -0.6 l 0.4,-0.8 0.5,-0.5 0.4,-0.1 0.9,0.1 1.1,0.5 0.7,0.7 0.2,0.4 v 0.6 l -0.4,0.9 -0.5,0.4 -0.8,0.3 -1,-0.2 -1.2,-0.2 h -0.7 l -0.5,0.4 -0.2,0.6 v 0.7 l 0.7,0.6 1.2,0.6 m -4.2,52.6 -4.7,2.1 3.8,2.3 m 0.9,-4.4 -3.2,5.4 m 7.7,-0.2 -0.7,0.6 -0.8,0.2 -0.9,-0.2 -0.3,-0.1 -0.6,-0.7 -0.2,-0.9 0.2,-0.9 0.1,-0.2 0.7,-0.7 0.8,-0.2 1,0.2 0.2,0.2 0.7,0.7 0.2,0.8 -0.4,1.2 -0.7,1.3 -1.1,1.1 -0.9,0.5 -1,-0.2 -0.5,-0.3 -0.6,-0.7 v -0.7 m -13.1,-49.2 -0.1,3.3 -2.3,-1.9 -0.1,0.9 -0.3,0.6 -0.3,0.3 -0.9,0.3 h -0.6 l -0.9,-0.3 -0.6,-0.6 -0.2,-0.9 v -0.9 l 0.3,-0.9 0.3,-0.3 0.6,-0.3 m 4.1,9 0.6,-0.3 0.3,-0.9 v -0.6 l -0.3,-0.9 -0.9,-0.6 -1.5,-0.3 h -1.5 l -1.2,0.3 -0.6,0.5 -0.3,0.9 v 0.3 l 0.3,0.9 0.6,0.7 0.9,0.3 h 0.3 l 0.9,-0.3 0.6,-0.6 0.3,-0.9 v -0.3 l -0.3,-0.9 -0.6,-0.6 -0.9,-0.3 m 407.3,84.8 v 0.3 l -0.2,0.7 -0.2,0.3 -0.6,0.4 -1.2,0.2 -0.6,-0.2 -0.3,-0.2 -0.4,-0.6 -0.1,-0.6 0.2,-0.6 0.4,-1 2.5,-3.4 -4.1,0.6 m -2,6.7 0.9,-0.4 0.4,-1 0.1,-1.5 -0.2,-0.9 -0.5,-1.5 -0.7,-0.8 -1,-0.1 -0.6,0.1 -0.8,0.4 -0.4,1 -0.1,1.5 0.1,0.9 0.6,1.5 0.7,0.8 1,0.1 0.4,-0.1 m 3.5,55.4 h -0.3 l -0.6,-0.4 -0.2,-0.3 -0.2,-0.7 0.1,-1.1 0.4,-0.6 0.4,-0.3 0.6,-0.2 0.6,0.1 0.6,0.4 0.8,0.7 2.5,3.4 0.6,-4.1 m -4.7,-1.8 -0.2,-0.6 -0.8,-1 6.3,0.9 m -164.4,-496.7 -0.4,-0.8 -0.6,-0.2 -0.6,0.1 -0.6,0.4 -0.2,0.6 -0.1,1.3 -0.1,0.9 -0.5,0.7 -0.6,0.4 -0.9,0.1 -0.6,-0.2 -0.3,-0.2 -0.5,-0.9 -0.2,-1.2 0.2,-0.9 0.2,-0.3 0.6,-0.4 0.9,-0.2 0.6,0.2 0.7,0.5 0.4,0.9 0.5,1.1 0.4,0.5 0.6,0.2 0.6,-0.1 0.6,-0.3 0.1,-1 -0.2,-1.3 m 105.3,3.4 0.6,-3.2 2,2.2 0.2,-0.9 0.4,-0.5 0.3,-0.2 1,-0.2 0.6,0.1 0.8,0.5 0.5,0.7 0.1,1 -0.2,0.8 -0.5,0.9 -0.3,0.2 -0.6,0.2 m -3.9,-6.8 0.6,-3.3 2,2.3 0.2,-0.9 0.4,-0.5 0.3,-0.3 1,-0.1 0.6,0.1 0.8,0.5 0.5,0.7 0.1,0.9 -0.2,0.9 -0.4,0.8 -0.4,0.3 -0.6,0.1 m -39.9,49 -0.1,-0.2 -0.1,-0.7 0.2,-0.4 0.3,-0.6 1.1,-0.6 h 0.6 l 0.5,0.1 0.5,0.4 0.3,0.5 v 0.7 1.1 l -1.2,4.1 3.7,-2.1 m -1.6,-6.4 2.9,-1.6 -0.4,3 0.8,-0.4 0.6,-0.1 0.4,0.1 0.7,0.7 0.3,0.5 0.2,0.9 -0.2,0.8 -0.6,0.7 -0.8,0.5 -0.9,0.2 -0.5,-0.1 -0.5,-0.4 m -54.2,-4.1 0.1,-0.3 0.6,-0.4 0.4,-0.1 0.7,0.1 1,0.5 0.4,0.6 0.1,0.4 v 0.7 l -0.3,0.5 -0.6,0.4 -0.9,0.5 -4.1,1.1 3.6,2.1 m 3.8,-3.4 0.2,-0.3 0.5,-0.3 0.4,-0.2 0.7,0.1 1.1,0.6 0.3,0.5 0.2,0.4 -0.1,0.7 -0.3,0.5 -0.5,0.4 -1,0.5 -4.1,1.1 3.7,2.1 m -13.9,-110.9 -0.2,0.7 0.1,1.2 -4.8,-4.1 m 3.2,4.2 -0.2,0.6 0.1,1.3 -4.8,-4.2 m 88.3,4.8 -0.2,0.2 -0.6,0.2 -0.4,-0.1 -0.7,-0.2 -0.8,-0.9 -0.1,-0.7 v -0.4 l 0.2,-0.6 0.5,-0.4 0.6,-0.2 1.1,-0.1 4.3,0.2 -2.8,-3.1 m -7.6,1 5.1,-0.6 -3,-3.3 m -2.1,3.9 4.7,-4.2 m -37.7,-17.1 -0.6,0.3 -0.8,1 -0.2,-6.3 m -4.9,4.5 0.2,-0.9 0.6,-0.6 0.9,-0.4 h 0.3 l 0.9,0.3 0.6,0.6 0.4,0.9 v 0.3 l -0.3,0.9 -0.6,0.6 -0.9,0.3 h -0.3 l -0.9,-0.2 -0.6,-0.6 -0.3,-1.2 -0.1,-1.5 0.3,-1.5 0.6,-0.9 0.9,-0.4 h 0.6 l 0.9,0.3 0.3,0.6 m -17.4,467.8 -0.3,-0.1 -0.3,-0.6 -0.1,-0.4 v -0.6 l 0.6,-1.1 0.5,-0.4 0.4,-0.1 0.7,0.1 0.5,0.3 0.4,0.5 0.5,1 1.1,4.1 2.1,-3.7 m -32.6,46.8 -0.2,1 0.5,0.9 1.2,0.9 0.8,0.5 1.5,0.4 1.1,-0.1 0.7,-0.7 0.2,-0.5 0.2,-1 -0.5,-0.9 -1.2,-1 -0.8,-0.4 -1.5,-0.4 -1.1,0.1 -0.7,0.7 -0.2,0.4 m -11.5,-0.1 0.6,0.3 h 1.3 l -4.8,4.2 m -2.5,-201.7 -0.7,-3.2 2.7,1.2 -0.2,-0.8 0.2,-0.7 0.2,-0.3 0.8,-0.5 0.6,-0.2 0.9,0.1 0.8,0.5 0.4,0.8 0.2,0.9 -0.1,0.9 -0.2,0.4 -0.5,0.4 m -18.3,140.6 -4.7,-2.2 0.9,4.4 m 3.8,-2.2 -6.2,1.1 m -9.2,-57.7 -1.7,-2.5 -2.4,1.3 0.4,0.1 0.8,0.6 0.5,0.7 0.3,0.9 -0.2,0.9 -0.5,0.7 -0.5,0.4 -0.9,0.2 -0.9,-0.1 -0.7,-0.6 -0.5,-0.7 -0.3,-0.9 0.1,-0.4 0.3,-0.6 m 19,-66.3 0.6,-0.1 0.6,-0.8 0.1,-0.6 v -0.9 l -0.7,-0.9 -1.3,-0.7 -1.4,-0.4 -1.3,-0.1 -0.7,0.4 -0.6,0.8 -0.1,0.3 0.1,0.9 0.4,0.8 0.7,0.5 0.3,0.1 h 1 l 0.7,-0.4 0.6,-0.8 0.1,-0.3 -0.1,-0.9 -0.4,-0.8 -0.7,-0.5 m 50.9,-18 -0.5,3.3 -2.1,-2.1 -0.1,0.9 -0.4,0.5 -0.3,0.3 -1,0.2 -0.6,-0.1 -0.8,-0.4 -0.5,-0.7 -0.2,-0.9 0.1,-0.9 0.4,-0.9 0.4,-0.2 0.6,-0.3 m 40.5,100.3 4.9,4.9 m -6.3,-1 1.4,-3.9 m -17.9,-82.2 -0.4,0.5 0.1,0.9 0.2,0.6 0.7,0.7 1,0.2 1.5,-0.4 1.4,-0.6 1,-0.7 0.3,-0.8 -0.1,-0.9 -0.1,-0.3 -0.6,-0.7 -0.8,-0.3 h -1 l -0.2,0.2 -0.8,0.6 -0.3,0.8 0.1,0.9 0.1,0.3 0.7,0.7 0.8,0.3 0.9,-0.1"
       id="nums_002"
       stroke="#000000"
       stroke-width="1" />
    <path
       d="m 839.1,722.2 -60.2,-2.3 -65,6.7 -72.5,2 h -67.6 l 3.4,-127.5 81.7,38.8 0.6,-57.6 -40.2,-23.7 0.9,-70.3 60.7,28.5 37.2,-65.6 15.4,-81.7 -36.9,74.5 -64.7,38.8 -35.4,-56.9 -6.7,-23.4 -37.5,-21.5 0.4,-58.2 62.2,-29.7 34.3,22.8 23.7,-25.2 85.1,-30.4 -90.3,-4.3 -64.8,-7.2 -0.8,-43.2 -16.3,-38.1 -12.2,-65.4 -22.4,-50.6 16,-14.4 89.2,-20.8 39.5,51.9 -26.8,21.7 -13.3,39 64.6,-24.1 15.6,-56 46.6,24.5 15.5,-28 46.2,-6.3 21.1,53.7 -82.9,36 -17,35 -59.4,22.7 75.1,14.6 58.5,35.7 56.8,3.3 71.4,45.6 -62.2,34.3 -66.2,16.1 -39.2,19.9 2,59.3 -4.1,46.3 9.9,40.1 -33.8,53.1 -3.8,84.7 56.8,-0.3 68,-8.2 54.1,-54.1 56.6,29 38.3,-6.2 -18.1,126.1 -45.7,-0.2 -67.8,-2.3 z m 61.1,-643 45.7,-1.1 44.6,50.9 -13.8,71.2 -56.8,32.2 -52.5,-29.5 -11.9,-72.7 z m -22,537.5 -28.2,-32.8 -16.6,-90 -12.4,-17.6 39.2,-129.5 21,94.5 12.9,-95.9 53.8,124.1 -18.1,52.3 -32.7,58 z"
       id="coupes_002"
       stroke="#ff0000"
       stroke-width="1.27"
       sodipodi:nodetypes="ccccccccccccccccccccccccccccccccccccccccccccccccccccccccccccccccccccccccccccccccccc" />
    <path
       d="m 658.9,639.9 115.4,-85.2 m -114.8,27.6 114.8,-27.6 m -114.8,27.6 21.4,-65.5 m 0,0 93.4,37.9 m -93.4,-37.9 127.2,-15.2 m -90,-50.4 80.1,10.3 m -80.1,-10.3 84.2,-36 m -68.8,-45.7 68.8,45.7 m -68.8,-45.7 66.8,-13.6 M 733.5,369.5 758,260.3 m 0,0 42.3,95.6 M 758,260.3 839.5,336 m -106,33.5 -60.6,-78.8 m 60.6,78.8 -84.3,-53.6 M 696.6,444 649.2,315.9 M 696.6,444 589.8,402.5 m 0,0 59.4,-86.6 M 696.6,444 596.5,425.9 M 839.7,236.7 839.5,336 M 758,260.3 781.2,201 M 758,260.3 706.1,186.4 m -104,19.2 104,-19.2 M 667.7,256 602.1,205.6 m -16.3,-38.1 120.3,18.9 m -132.5,-84.3 132.5,84.3 m -132.5,-84.3 82.2,26.8 M 551.2,51.5 669.1,89.9 M 567.2,37.1 669.1,89.9 M 567.2,37.1 695.9,68.2 m -40.1,60.7 109.7,34.8 m -45.1,-58.9 45.1,58.9 m 74.2,73 66,83.2 m -9.2,-79.9 9.2,79.9 m -185.3,-215.1 62.1,23.9 m -68.6,597.9 -55,-86.7 m 111.6,-0.5 -56.6,87.2 m -72.5,2 17.5,-88.7 m 111.6,-0.5 8.4,80.5 m 48.4,-80.8 11.8,83.1 m 56.2,-91.3 -56.2,91.3 m 56.2,-91.3 17.4,92.3 m 36.7,-146.4 -36.7,146.4 m 36.7,-146.4 31.1,148.7 M 641.4,728.6 577.2,601.1 M 589.8,402.5 614.9,293.1 M 736,48.8 l 46.5,79.9 m 0.1,-55.4 -0.1,55.4 m 0.1,-55.4 82.8,19.4 M 782.6,73.3 844.3,39 M 1006,605.8 980.5,725.5 m 25.5,-119.7 20.2,119.9 M 659.5,582.3 620.2,488.3 M 976.7,200.2 867.4,202.9 M 900.2,79.2 990.5,129 m -109.3,312.3 48.6,80.5 m -32.7,58 -15.9,-138.5 m -3,175.4 3,-175.4 m -47.8,52.6 26.8,-147.1 m 33.9,-1.4 35.7,176.4"
       id="plisM_002"
       stroke="#a52a2a"
       stroke-dasharray="4" />
    <path
       d="m 770.5,639.4 -111.6,0.5 m 22,-123.1 117.3,-55.3 M 758,260.3 839.7,236.7 m -172,19.3 38.4,-69.6 m -50.3,-57.5 50.3,57.5 M 573.6,102.1 669.1,89.9 m 101.4,549.5 68.6,82.8 M 589.8,402.5 552.7,322.8 m 302.8,-192.6 121.2,70 m -121.2,-70 135,-1.2 M 850,583.9 881.2,441.3 M 850,583.9 860.2,346.8"
       id="plisV_002"
       stroke="#008000"
       stroke-dasharray="4, 1, 1, 1"
       stroke-width="1.27" />
    <path
       d="m 712.7,637.7 4,4 m 0,-4 -4,4 m 24.8,-154.5 4,4 m 0,-4 -4,4 m 59.4,-244.7 4,4 m 0,-4 -4,4 m -112,-31.3 4,4 m 0,-4 -4,4 m -5.9,-67.6 4,4 m 0,-4 -4,4 M 619.4,94 l 4,4 m 0,-4 -4,4 m 183.4,580.8 4,4 m 0,-4 -4,4 m -233.5,-322.1 4,4 m 0,-4 -4,4 m 344.8,-201.5 4,4 m 0,-4 -4,4 m 6.9,-39.6 4,4 m 0,-4 -4,4 m -57.4,379 4,4 m 0,-4 -4,4 m -10.5,-51.2 4,4 m 0,-4 -4,4"
       id="marqueV_002"
       stroke="#008000" />
    <path
       d="m 747.2,399.6 h 8.3 l -4.5,6 h 2.2 l 1.5,0.7 0.8,0.8 0.7,2.2 v 1.5 l -0.7,2.3 -1.5,1.5 -2.3,0.7 h -2.2 l -2.3,-0.7 -0.7,-0.8 -0.8,-1.5"
       id="titre_3"
       stroke="#4b0082" />
    <path
       d="m 942.7,140.6 -7.5,10.5 h 11.2 m -3.7,-10.5 v 15.7"
       id="titre_4"
       stroke="#4b0082" />
    <path
       d="m 867.2,445 h -7.5 l -0.7,6.7 0.7,-0.7 2.3,-0.8 h 2.2 l 2.3,0.8 1.5,1.5 0.7,2.2 v 1.5 l -0.7,2.3 -1.5,1.5 -2.3,0.7 H 862 l -2.3,-0.7 -0.7,-0.8 -0.8,-1.5"
       id="titre_5"
       stroke="#4b0082" />
  </g>
</svg>
