<?xml version="1.0" encoding="UTF-8" standalone="no"?>
<svg
   height="841.88977pt"
   viewBox="0 0 532.99998 754.00001"
   width="595.27557pt"
   version="1.1"
   id="svg16"
   sodipodi:docname="BolConique_H7_lang.svg"
   inkscape:version="1.3 (0e150ed6c4, 2023-07-21)"
   xmlns:inkscape="http://www.inkscape.org/namespaces/inkscape"
   xmlns:sodipodi="http://sodipodi.sourceforge.net/DTD/sodipodi-0.dtd"
   xmlns="http://www.w3.org/2000/svg"
   xmlns:svg="http://www.w3.org/2000/svg">
  <defs
     id="defs16" />
  <sodipodi:namedview
     id="namedview16"
     pagecolor="#ffffff"
     bordercolor="#000000"
     borderopacity="0.25"
     inkscape:showpageshadow="2"
     inkscape:pageopacity="0.0"
     inkscape:pagecheckerboard="0"
     inkscape:deskcolor="#d1d1d1"
     inkscape:document-units="mm"
     showgrid="false"
     inkscape:zoom="0.6743757"
     inkscape:cx="397.40459"
     inkscape:cy="561.25984"
     inkscape:window-width="1560"
     inkscape:window-height="943"
     inkscape:window-x="180"
     inkscape:window-y="32"
     inkscape:window-maximized="1"
     inkscape:current-layer="svg16" />
  <style
     type="text/css"
     id="style1"><![CDATA[
			path {
				fill: none;
			}
		]]></style>
  <g
     id="page_001"
     transform="translate(6.8499939,19.650011)">
    <path
       d="m 39.7,176.4 44,-6.1 100,21 37.8,23.2 -38.1,-181.8 h 152.4 l 6.1,44 -20.9,100 -23.3,37.8 181.9,-38.1 v 152.4 l -44,6.1 -100,-20.9 -37.9,-23.3 38.1,181.9 H 183.4 l -6.1,-44 21,-100 23.2,-37.9 -181.8,38.1 z m 127.7,456.3 v -83.8 l 15,-34.3 34.3,-15 h 83.8 l 34.3,15 15,34.3 v 83.8 l -15,34.3 -34.3,15 h -83.8 l -34.3,-15 z"
       id="coupes_001"
       stroke="#ff0000"
       stroke-width="1.27"
       sodipodi:nodetypes="cccccccccccccccccccccccccccccccccc" />
    <path
       d="m 221.5,214.5 h 76.2 m -76.2,76.2 V 214.5 L 39.7,176.4 M 335.8,32.7 297.7,214.5 v 76.2 m 181.9,38.1 -181.9,-38.1 h -76.2 l -38.1,181.9 m -1,194.4 V 514.6 H 334.8 V 667 Z"
       id="plisM_001"
       stroke="#a52a2a"
       stroke-dasharray="4"
       sodipodi:nodetypes="ccccccccccccccccc" />
    <path
       id="plisV_001"
       stroke="#008000"
       stroke-dasharray="4, 1, 1, 1"
       stroke-width="1.27"
       d="" />
    <path
       id="marqueV_001"
       stroke="#008000"
       d="" />
    <g
       id="nums_001">
      <path
         d="m 215.8,120 -0.7,-1 -1.7,-0.4 -2.5,0.2 -1.5,0.3 -2.3,0.8 -1.3,1.1 -0.3,1.2 0.2,0.7 0.7,1 1.6,0.4 2.5,-0.1 1.5,-0.3 2.4,-0.9 1.3,-1 0.2,-1.2 -0.1,-0.6"
         stroke="#000000"
         stroke-width="1"
         id="path1" />
      <path
         d="m 128.6,209.1 1.2,-0.3 1,-1.3 0.9,-2.3 0.3,-1.5 0.1,-2.5 -0.4,-1.7 -1,-0.7 -0.7,-0.1 -1.2,0.2 -1.1,1.3 -0.8,2.4 -0.4,1.5 -0.1,2.5 0.4,1.6 1,0.8 0.6,0.1"
         stroke="#000000"
         stroke-width="1"
         id="path2" />
      <path
         d="m 303.6,119.4 -0.7,3.6 4.3,1.3 -0.4,-0.4 -0.3,-1.2 0.2,-1.1 0.8,-1 1.1,-0.6 h 1.5 l 1,0.2 1.4,0.7 0.8,0.9 0.3,1.2 -0.2,1.1 -0.8,1 -0.5,0.3 -1.1,0.1"
         stroke="#000000"
         stroke-width="1"
         id="path3" />
      <path
         d="m 258,44.9 0.4,1 1.1,0.5 h 0.7 l 1.2,-0.5 0.7,-1.5 0.4,-2.5 v -2.5 l -0.4,-2 -0.7,-1 -1.2,-0.5 h -0.3 l -1.2,0.5 -0.7,1 -0.4,1.5 v 0.5 l 0.4,1.5 0.7,1 1.2,0.5 h 0.3 l 1.2,-0.5 0.7,-1 0.4,-1.5"
         stroke="#000000"
         stroke-width="1"
         id="path4" />
      <path
         d="m 392.1,296.4 -5.1,6 5.5,1.2 m -0.4,-7.2 -2.1,10.2"
         stroke="#000000"
         stroke-width="1"
         id="path5" />
      <path
         d="m 303.1,383.9 7.6,2.2 -1.1,-5.5 m -6.5,3.3 10.3,-2.2"
         stroke="#000000"
         stroke-width="1"
         id="path6" />
      <path
         d="m 53.4,250.3 v 4.2 l -4,-2.3 v 1.1 l -0.5,0.8 -0.5,0.4 -1.5,0.3 h -1 l -1.5,-0.3 -1,-0.8 -0.5,-1.1 v -1.1 l 0.5,-1.2 0.5,-0.3 1,-0.4"
         stroke="#000000"
         stroke-width="1"
         id="path7" />
      <path
         d="m 125.8,299.3 -0.1,-0.5 0.2,-1.1 0.3,-0.5 0.6,-0.7 1.5,-0.3 0.8,0.4 0.5,0.4 0.5,0.9 0.2,1 -0.1,1 -0.4,1.6 -2.7,5.7 5.2,-1.1"
         stroke="#000000"
         stroke-width="1"
         id="path8" />
      <path
         d="m 258.2,461.2 0.8,-0.5 1.1,-1.5 v 10.5"
         stroke="#000000"
         stroke-width="1"
         id="path9" />
      <path
         d="m 214,381.5 0.5,0.1 0.9,0.6 0.4,0.4 0.4,0.9 -0.4,1.4 -0.6,0.7 -0.6,0.2 -1,0.2 -1,-0.2 -0.9,-0.6 -1.3,-1 -4.1,-4.7 -1.1,5.1"
         stroke="#000000"
         stroke-width="1"
         id="path10" />
      <path
         d="m 465.8,250.5 10.5,3.8 m -10.5,1.5 v -5.3"
         stroke="#000000"
         stroke-width="1"
         id="path11" />
      <path
         d="m 390.1,209.2 3.6,-0.7 -0.5,-4.5 -0.3,0.6 -1,0.7 -1.1,0.2 -1.2,-0.3 -0.9,-0.8 -0.7,-1.4 -0.2,-0.9 v -1.6 l 0.6,-1.1 1,-0.7 1.1,-0.3 1.2,0.3 0.4,0.4 0.6,0.9"
         stroke="#000000"
         stroke-width="1"
         id="path12" />
      <path
         d="m 260,526 -0.7,0.5 -1.1,1.5 v -10.5"
         stroke="#000000"
         stroke-width="1"
         id="path13" />
      <path
         d="m 196.2,588.5 v 4.1 l -4,-2.3 v 1.2 l -0.5,0.7 -0.5,0.4 -1.5,0.4 h -1 l -1.5,-0.4 -1,-0.8 -0.5,-1.1 v -1.1 l 0.5,-1.1 0.5,-0.4 1,-0.4"
         stroke="#000000"
         stroke-width="1"
         id="path14" />
      <path
         d="m 321.1,588.6 10.5,3.8 m -10.5,1.5 v -5.3"
         stroke="#000000"
         stroke-width="1"
         id="path15" />
      <path
         d="m 260.3,654.7 -0.4,-1 -1.1,-0.5 H 258 l -1.1,0.5 -0.7,1.5 -0.4,2.5 v 2.5 l 0.4,2 0.7,1 1.1,0.5 h 0.4 l 1.1,-0.5 0.8,-1 0.4,-1.5 v -0.5 l -0.4,-1.5 -0.8,-1 -1.1,-0.5 H 258 l -1.1,0.5 -0.7,1 -0.4,1.5"
         stroke="#000000"
         stroke-width="1"
         id="path16" />
    </g>
    <path
       d="m 270.5,256.5 1.1,-0.8 1.7,-2.2 v 15.7"
       id="titre_1"
       stroke="#4b0082" />
    <path
       d="m 280.5,607.5 v -0.7 l 0.6,-1.5 0.5,-0.8 1.1,-0.7 h 2.3 l 1.1,0.7 0.6,0.8 0.5,1.5 v 1.5 l -0.5,1.5 -1.1,2.2 -5.7,7.5 h 7.9"
       id="titre_2"
       stroke="#4b0082" />
  </g>
</svg>
