<?xml version="1.0" encoding="UTF-8" standalone="no"?>
<svg
   height="297mm"
   viewBox="0 0 533 754"
   width="210mm"
   version="1.1"
   id="svg1"
   sodipodi:docname="Citrouille136_H10_A4x1.svg"
   inkscape:version="1.3 (1:1.3+202307231459+0e150ed6c4)"
   xmlns:inkscape="http://www.inkscape.org/namespaces/inkscape"
   xmlns:sodipodi="http://sodipodi.sourceforge.net/DTD/sodipodi-0.dtd"
   xmlns="http://www.w3.org/2000/svg"
   xmlns:svg="http://www.w3.org/2000/svg">
  <defs
     id="defs1" />
  <sodipodi:namedview
     id="namedview1"
     pagecolor="#ffffff"
     bordercolor="#000000"
     borderopacity="0.25"
     inkscape:showpageshadow="2"
     inkscape:pageopacity="0.0"
     inkscape:pagecheckerboard="0"
     inkscape:deskcolor="#d1d1d1"
     inkscape:document-units="mm"
     showgrid="false"
     inkscape:zoom="0.76791526"
     inkscape:cx="424.52601"
     inkscape:cy="746.17608"
     inkscape:window-width="1920"
     inkscape:window-height="1007"
     inkscape:window-x="0"
     inkscape:window-y="0"
     inkscape:window-maximized="1"
     inkscape:current-layer="svg1" />
  <style
     type="text/css"
     id="style1"><![CDATA[
			path {
				fill: none;
			}
		]]></style>
  <g
     id="page_001">
    <path
       d="M 291.6 461.4 L 290.5 464.5 L 288.9 462.0 L 288.6 462.8 L 288.1 463.3 L 287.7 463.5 L 286.7 463.5 L 286.2 463.3 L 285.4 462.7 L 285.1 461.9 L 285.1 461.0 L 285.4 460.1 L 286.0 459.4 L 286.4 459.2 L 287.0 459.1 M 288.0 468.9 L 288.6 468.9 L 289.2 468.1 L 289.4 467.6 L 289.4 466.6 L 288.8 465.7 L 287.5 464.9 L 286.1 464.4 L 284.8 464.3 L 284.1 464.7 L 283.5 465.4 L 283.4 465.7 L 283.4 466.7 L 283.7 467.4 L 284.5 468.0 L 284.8 468.1 L 285.7 468.1 L 286.5 467.8 L 287.1 467.0 L 287.2 466.7 L 287.2 465.8 L 286.8 465.0 L 286.1 464.4 M 279.8 399.3 L 280.3 399.8 L 281.4 400.3 L 275.5 402.4 M 280.7 401.7 L 281.1 402.2 L 282.3 402.8 L 276.3 404.8 M 315.5 299.7 L 318.0 297.6 L 318.2 300.6 L 318.9 300.0 L 319.5 299.8 L 319.9 299.9 L 320.8 300.4 L 321.1 300.8 L 321.5 301.7 L 321.4 302.5 L 320.9 303.3 L 320.3 303.9 L 319.4 304.3 L 319.0 304.3 L 318.3 304.0 M 323.4 295.7 L 323.8 296.6 L 323.7 297.4 L 323.2 298.2 L 323.0 298.4 L 322.1 298.8 L 321.3 298.7 L 320.5 298.2 L 320.3 298.0 L 319.9 297.1 L 320.0 296.3 L 320.5 295.5 L 320.7 295.3 L 321.6 294.9 L 322.4 295.0 L 323.4 295.7 L 324.4 296.9 L 325.1 298.2 L 325.3 299.3 L 324.8 300.1 L 324.3 300.5 L 323.4 300.8 L 322.8 300.6 M 278.2 252.8 L 278.4 253.1 L 278.6 253.7 L 278.6 254.1 L 278.3 254.8 L 277.4 255.5 L 276.7 255.7 L 276.3 255.7 L 275.7 255.4 L 275.3 255.0 L 275.1 254.3 L 275.0 253.2 L 275.3 249.0 L 272.1 251.8 M 274.5 256.2 L 274.3 256.8 L 274.2 258.0 L 270.1 253.3 M 273.7 269.7 L 274.3 269.8 L 275.6 269.7 L 271.6 274.5 M 278.3 274.4 L 277.5 274.9 L 276.6 274.9 L 275.8 274.6 L 275.5 274.4 L 275.0 273.6 L 274.9 272.8 L 275.3 271.9 L 275.5 271.6 L 276.3 271.1 L 277.1 271.1 L 278.0 271.4 L 278.2 271.6 L 278.7 272.4 L 278.8 273.2 L 278.3 274.4 L 277.3 275.5 L 276.1 276.5 L 275.1 276.8 L 274.2 276.4 L 273.8 276.1 L 273.3 275.3 L 273.4 274.6 M 331.6 264.6 L 331.3 264.7 L 330.7 264.6 L 330.3 264.3 L 329.9 263.8 L 329.6 262.7 L 329.7 262.0 L 329.9 261.7 L 330.4 261.2 L 331.0 261.1 L 331.6 261.2 L 332.7 261.5 L 336.3 263.7 L 335.2 259.6 M 327.9 256.7 L 328.7 259.6 L 331.4 259.2 L 331.0 258.9 L 330.5 258.2 L 330.3 257.3 L 330.3 256.3 L 330.7 255.6 L 331.5 255.1 L 332.1 254.9 L 333.1 255.0 L 333.8 255.4 L 334.3 256.2 L 334.6 257.1 L 334.5 258.0 L 334.3 258.4 L 333.8 258.8 M 292.0 197.5 L 292.1 200.8 L 289.6 199.1 L 289.6 200.0 L 289.3 200.6 L 289.1 200.9 L 288.2 201.2 L 287.6 201.2 L 286.7 200.9 L 286.0 200.3 L 285.7 199.5 L 285.7 198.6 L 286.0 197.6 L 286.3 197.3 L 286.9 197.0 M 292.1 204.1 L 291.8 203.2 L 290.9 202.6 L 289.4 202.3 L 288.5 202.3 L 287.0 202.7 L 286.1 203.3 L 285.8 204.2 L 285.8 204.8 L 286.2 205.7 L 287.1 206.3 L 288.6 206.5 L 289.5 206.5 L 291.0 206.2 L 291.9 205.6 L 292.1 204.7 L 292.1 204.2 M 323.3 141.0 L 324.7 137.9 L 326.1 140.5 L 326.5 139.7 L 327.0 139.3 L 327.4 139.1 L 328.4 139.2 L 328.9 139.5 L 329.6 140.1 L 329.9 140.9 L 329.8 141.8 L 329.5 142.6 L 328.8 143.4 L 328.4 143.5 L 327.8 143.5 M 326.5 137.2 L 326.5 136.6 L 326.0 135.4 L 331.8 137.9 M 278.9 142.8 L 280.5 145.6 L 277.6 145.3 L 278.0 146.1 L 278.1 146.7 L 278.0 147.1 L 277.3 147.8 L 276.8 148.1 L 275.9 148.3 L 275.1 148.1 L 274.3 147.5 L 273.9 146.7 L 273.7 145.8 L 273.8 145.4 L 274.2 144.8 M 281.6 147.4 L 283.2 150.2 L 280.2 149.9 L 280.7 150.7 L 280.7 151.3 L 280.6 151.7 L 280.0 152.5 L 279.5 152.8 L 278.6 153.0 L 277.7 152.7 L 277.0 152.1 L 276.6 151.3 L 276.4 150.4 L 276.5 150.0 L 276.9 149.4 M 327.5 105.8 L 326.0 102.8 L 328.9 103.3 L 328.5 102.5 L 328.5 101.9 L 328.7 101.5 L 329.3 100.8 L 329.9 100.5 L 330.8 100.4 L 331.6 100.6 L 332.3 101.3 L 332.7 102.1 L 332.8 103.1 L 332.7 103.5 L 332.3 104.0 M 323.9 98.7 L 329.0 99.5 L 326.9 95.5 M 323.9 98.7 L 329.5 95.9 M 269.6 109.2 L 270.1 112.4 L 267.5 111.0 L 267.6 111.9 L 267.4 112.5 L 267.1 112.9 L 266.3 113.3 L 265.7 113.4 L 264.8 113.2 L 264.1 112.7 L 263.7 111.9 L 263.5 111.0 L 263.7 110.0 L 264.0 109.7 L 264.5 109.3 M 268.9 114.6 L 269.2 114.5 L 269.8 114.8 L 270.2 115.0 L 270.6 115.6 L 270.7 116.7 L 270.5 117.4 L 270.3 117.7 L 269.7 118.1 L 269.1 118.2 L 268.5 118.0 L 267.5 117.5 L 264.1 115.0 L 264.7 119.1 M 305.4 67.7 L 303.5 65.0 L 306.5 65.1 L 306.0 64.3 L 305.9 63.7 L 306.0 63.3 L 306.6 62.5 L 307.0 62.1 L 308.0 61.9 L 308.8 62.0 L 309.6 62.6 L 310.1 63.3 L 310.3 64.2 L 310.3 64.6 L 309.9 65.2 M 300.6 60.9 L 302.4 63.3 L 304.7 62.0 L 304.3 61.9 L 303.6 61.4 L 303.0 60.6 L 302.8 59.7 L 302.9 58.9 L 303.5 58.1 L 304.0 57.8 L 304.9 57.5 L 305.7 57.7 L 306.5 58.2 L 307.0 59.0 L 307.3 59.9 L 307.2 60.3 L 306.9 60.9 M 277.0 50.2 L 277.1 50.5 L 276.9 51.1 L 276.6 51.5 L 276.1 51.8 L 274.9 52.0 L 274.3 51.8 L 273.9 51.6 L 273.5 51.0 L 273.4 50.4 L 273.6 49.8 L 274.1 48.8 L 276.6 45.4 L 272.4 46.0 M 268.1 51.0 L 268.3 50.0 L 268.8 49.3 L 269.6 48.9 L 269.9 48.9 L 270.8 49.0 L 271.5 49.5 L 271.9 50.4 L 272.0 50.7 L 271.8 51.6 L 271.3 52.3 L 270.5 52.7 L 270.2 52.8 L 269.3 52.6 L 268.6 52.1 L 268.1 51.0 L 267.9 49.5 L 267.9 48.0 L 268.4 47.0 L 269.2 46.5 L 269.8 46.4 L 270.8 46.6 L 271.1 47.2 M 232.9 92.8 L 232.8 92.5 L 233.0 91.9 L 233.2 91.5 L 233.8 91.1 L 235.0 90.9 L 235.6 91.1 L 235.9 91.3 L 236.4 91.8 L 236.5 92.4 L 236.3 93.1 L 235.9 94.1 L 233.5 97.6 L 237.6 96.8 M 239.0 90.1 L 238.2 90.5 L 238.0 91.2 L 238.1 91.8 L 238.5 92.3 L 239.2 92.5 L 240.4 92.6 L 241.4 92.7 L 242.1 93.1 L 242.5 93.7 L 242.7 94.6 L 242.5 95.2 L 242.2 95.6 L 241.4 96.0 L 240.2 96.3 L 239.3 96.1 L 239.0 95.9 L 238.5 95.4 L 238.4 94.5 L 238.5 93.8 L 239.0 93.1 L 239.8 92.7 L 241.0 92.1 L 241.5 91.7 L 241.7 91.1 L 241.5 90.5 L 241.1 90.0 L 240.2 89.8 L 238.9 90.1 M 198.4 83.5 L 198.5 83.3 L 199.1 82.9 L 199.5 82.8 L 200.1 82.8 L 201.2 83.4 L 201.6 83.9 L 201.7 84.3 L 201.7 85.0 L 201.4 85.5 L 200.8 85.9 L 199.9 86.4 L 195.8 87.6 L 199.5 89.6 M 206.3 86.1 L 201.6 88.3 L 205.6 90.5 M 206.3 86.1 L 203.3 91.6 M 228.3 42.0 L 228.1 42.2 L 227.5 42.4 L 227.1 42.5 L 226.4 42.3 L 225.5 41.5 L 225.3 40.9 L 225.2 40.5 L 225.4 39.8 L 225.8 39.4 L 226.4 39.1 L 227.4 38.8 L 231.7 38.5 L 228.5 35.8 M 221.4 36.8 L 221.2 37.4 L 221.7 38.3 L 222.1 38.6 L 223.0 39.0 L 224.1 38.7 L 225.3 37.8 L 226.2 36.6 L 226.8 35.5 L 226.7 34.7 L 226.2 33.9 L 226.0 33.7 L 225.1 33.3 L 224.3 33.4 L 223.5 33.9 L 223.3 34.1 L 222.9 35.0 L 223.0 35.8 L 223.5 36.6 L 223.7 36.8 L 224.6 37.2 L 225.4 37.1 L 226.2 36.6 M 196.3 36.8 L 196.5 37.0 L 196.5 37.7 L 196.4 38.1 L 196.1 38.7 L 195.1 39.3 L 194.4 39.4 L 194.0 39.3 L 193.4 38.9 L 193.1 38.4 L 193.0 37.7 L 193.1 36.7 L 194.0 32.5 L 190.5 34.7 M 192.3 41.0 L 189.5 42.7 L 189.8 39.8 L 189.0 40.2 L 188.3 40.3 L 187.9 40.2 L 187.2 39.6 L 186.9 39.1 L 186.7 38.2 L 186.9 37.3 L 187.5 36.6 L 188.2 36.1 L 189.1 35.9 L 189.6 36.0 L 190.1 36.4 M 155.4 69.9 L 155.5 69.6 L 155.9 69.1 L 156.2 68.8 L 156.8 68.7 L 158.0 68.9 L 158.6 69.3 L 158.8 69.6 L 159.0 70.3 L 158.9 70.9 L 158.5 71.4 L 157.7 72.2 L 154.3 74.6 L 158.4 75.3 M 160.9 70.9 L 160.9 70.6 L 161.3 70.1 L 161.7 69.8 L 162.3 69.6 L 163.5 69.9 L 164.0 70.3 L 164.3 70.6 L 164.5 71.2 L 164.4 71.8 L 164.0 72.4 L 163.2 73.2 L 159.7 75.6 L 163.9 76.3 M 136.5 37.0 L 135.9 36.9 L 134.6 37.2 L 138.1 31.9 M 131.1 33.9 L 131.0 34.6 L 131.6 35.3 L 132.1 35.7 L 133.0 35.9 L 134.0 35.5 L 135.1 34.5 L 135.9 33.2 L 136.3 32.1 L 136.2 31.2 L 135.6 30.5 L 135.3 30.3 L 134.4 30.0 L 133.6 30.2 L 132.8 30.8 L 132.7 31.0 L 132.4 31.9 L 132.6 32.8 L 133.1 33.5 L 133.4 33.7 L 134.3 34.0 L 135.1 33.8 L 135.9 33.2 M 108.9 22.9 L 108.8 23.6 L 109.0 24.8 L 103.8 21.2 M 106.4 28.8 L 108.2 26.4 L 106.1 24.5 L 106.2 25.0 L 105.9 25.9 L 105.4 26.6 L 104.6 27.2 L 103.8 27.3 L 102.9 27.0 L 102.4 26.7 L 101.9 25.9 L 101.7 25.1 L 102.0 24.2 L 102.5 23.5 L 103.3 22.9 L 103.7 22.8 L 104.3 22.9 M 97.0 51.6 L 97.2 52.3 L 98.0 53.3 L 91.7 52.4 M 97.6 57.6 L 93.9 54.0 L 93.2 58.5 M 97.6 57.6 L 91.4 56.7 M 126.0 96.8 L 125.8 96.1 L 125.1 95.0 L 131.3 96.4 M 125.3 93.3 L 126.0 90.1 L 127.9 92.3 L 128.1 91.5 L 128.5 90.9 L 128.9 90.7 L 129.8 90.6 L 130.4 90.7 L 131.2 91.2 L 131.7 91.9 L 131.8 92.9 L 131.6 93.7 L 131.1 94.6 L 130.8 94.8 L 130.1 95.0 M 77.3 89.2 L 77.0 89.8 L 76.7 91.1 L 73.3 85.7 M 74.6 90.8 L 74.7 91.1 L 74.8 91.8 L 74.7 92.2 L 74.3 92.7 L 73.3 93.4 L 72.7 93.4 L 72.2 93.3 L 71.7 93.0 L 71.4 92.5 L 71.3 91.8 L 71.3 90.7 L 72.3 86.6 L 68.7 88.8 M 107.0 130.1 L 107.4 131.0 L 107.5 131.8 L 107.1 132.7 L 106.9 132.9 L 106.1 133.3 L 105.2 133.4 L 104.3 133.0 L 104.1 132.8 L 103.7 132.0 L 103.6 131.1 L 104.0 130.3 L 104.2 130.0 L 105.1 129.6 L 105.9 129.5 L 107.0 130.1 L 108.1 131.1 L 109.0 132.4 L 109.3 133.4 L 108.9 134.3 L 108.5 134.7 L 107.6 135.2 L 107.0 135.0 M 39.4 120.4 L 39.9 119.6 L 39.7 118.9 L 39.3 118.5 L 38.6 118.3 L 38.0 118.5 L 36.9 119.0 L 36.0 119.4 L 35.2 119.4 L 34.6 119.2 L 34.0 118.5 L 33.8 117.9 L 33.8 117.4 L 34.2 116.6 L 35.1 115.8 L 36.0 115.4 L 36.4 115.4 L 37.0 115.7 L 37.7 116.3 L 37.8 117.0 L 37.8 117.8 L 37.3 118.6 L 36.7 119.7 L 36.4 120.3 L 36.6 120.9 L 37.0 121.4 L 37.7 121.6 L 38.5 121.2 L 39.5 120.3 M 23.0 161.7 L 22.7 158.7 L 19.9 158.6 L 20.3 158.9 L 20.7 159.8 L 20.7 160.7 L 20.5 161.6 L 20.0 162.3 L 19.1 162.6 L 18.5 162.7 L 17.6 162.5 L 17.0 162.0 L 16.6 161.1 L 16.5 160.2 L 16.7 159.3 L 17.0 158.9 L 17.5 158.6 M 62.7 201.2 L 64.3 208.0 M 59.4 203.8 L 62.7 201.2 M 38.1 203.2 L 38.4 202.6 L 38.1 201.7 L 37.7 201.2 L 36.9 200.7 L 35.9 200.7 L 34.5 201.4 L 33.3 202.3 L 32.5 203.3 L 32.4 204.2 L 32.7 205.1 L 32.9 205.3 L 33.7 205.8 L 34.6 205.9 L 35.5 205.6 L 35.7 205.4 L 36.2 204.6 L 36.3 203.8 L 36.0 202.9 L 35.8 202.7 L 35.0 202.1 L 34.2 202.0 L 33.3 202.3 M 389.7 210.7 L 390.2 215.8 L 393.6 212.9 M 389.7 210.7 L 393.8 215.5 M 392.9 208.0 L 392.5 208.8 L 392.6 209.5 L 393.0 210.0 L 393.6 210.2 L 394.3 210.1 L 395.4 209.5 L 396.3 209.2 L 397.1 209.2 L 397.7 209.5 L 398.3 210.2 L 398.5 210.8 L 398.4 211.2 L 397.9 212.1 L 397.0 212.8 L 396.1 213.2 L 395.7 213.2 L 395.1 212.9 L 394.5 212.2 L 394.4 211.6 L 394.4 210.7 L 394.9 209.9 L 395.6 208.9 L 395.9 208.3 L 395.7 207.6 L 395.4 207.2 L 394.7 206.9 L 393.9 207.3 L 392.8 208.1 M 349.1 225.4 L 345.4 229.0 L 349.8 229.8 M 349.1 225.4 L 348.0 231.6 M 355.6 226.6 L 351.6 232.3 M 351.5 225.9 L 355.6 226.6 M 247.7 553.5 L 249.7 556.1 L 246.7 556.1 L 247.2 556.9 L 247.3 557.5 L 247.3 557.9 L 246.7 558.7 L 246.3 559.1 L 245.4 559.4 L 244.5 559.2 L 243.7 558.7 L 243.2 558.0 L 242.9 557.1 L 243.0 556.7 L 243.3 556.1 M 253.0 560.5 L 246.1 561.9 M 250.5 557.2 L 253.0 560.5 M 327.0 415.9 L 329.9 416.5 L 330.8 413.9 L 330.4 414.2 L 329.5 414.3 L 328.6 414.1 L 327.8 413.6 L 327.3 412.9 L 327.3 411.9 L 327.4 411.3 L 327.9 410.5 L 328.6 410.1 L 329.5 410.0 L 330.4 410.2 L 331.2 410.6 L 331.4 411.0 L 331.6 411.7 M 323.8 415.2 L 324.8 415.1 L 325.2 414.5 L 325.3 414.0 L 325.2 413.3 L 324.6 412.9 L 323.5 412.3 L 322.7 411.8 L 322.3 411.1 L 322.1 410.5 L 322.3 409.6 L 322.7 409.1 L 323.1 408.8 L 324.0 408.7 L 325.2 409.0 L 326.0 409.5 L 326.2 409.9 L 326.4 410.5 L 326.2 411.4 L 325.8 411.9 L 325.1 412.4 L 324.1 412.5 L 322.9 412.5 L 322.2 412.7 L 321.8 413.2 L 321.7 413.8 L 321.8 414.4 L 322.7 414.9 L 324.0 415.2 M 322.5 386.2 L 319.6 387.2 L 320.2 389.8 L 320.4 389.4 L 321.1 388.9 L 322.0 388.6 L 323.0 388.6 L 323.7 389.0 L 324.3 389.8 L 324.5 390.3 L 324.4 391.3 L 324.1 392.0 L 323.3 392.6 L 322.4 392.9 L 321.5 392.9 L 321.1 392.7 L 320.6 392.2 M 325.6 385.2 L 324.8 385.8 L 324.7 386.5 L 324.9 387.0 L 325.4 387.5 L 326.0 387.6 L 327.3 387.5 L 328.2 387.6 L 329.0 387.9 L 329.5 388.4 L 329.7 389.3 L 329.6 389.9 L 329.4 390.3 L 328.7 390.9 L 327.5 391.2 L 326.6 391.2 L 326.2 391.0 L 325.7 390.6 L 325.5 389.7 L 325.6 389.0 L 325.9 388.3 L 326.7 387.7 L 327.8 387.1 L 328.2 386.6 L 328.3 385.9 L 328.2 385.4 L 327.7 384.9 L 326.7 384.9 L 325.5 385.3 M 301.1 574.8 L 303.0 577.1 L 305.3 575.6 L 304.8 575.6 L 304.0 575.1 L 303.4 574.4 L 303.1 573.5 L 303.1 572.7 L 303.6 571.8 L 304.1 571.5 L 305.0 571.1 L 305.8 571.2 L 306.6 571.6 L 307.2 572.3 L 307.6 573.2 L 307.5 573.6 L 307.3 574.3 M 299.0 569.2 L 299.8 568.8 L 300.7 568.9 L 301.5 569.4 L 301.7 569.6 L 302.1 570.5 L 302.0 571.3 L 301.5 572.2 L 301.3 572.3 L 300.4 572.7 L 299.6 572.6 L 298.7 572.2 L 298.5 571.9 L 298.2 571.1 L 298.3 570.2 L 299.0 569.2 L 300.1 568.2 L 301.4 567.5 L 302.5 567.3 L 303.3 567.8 L 303.7 568.3 L 304.1 569.2 L 303.8 569.8 M 253.0 603.7 L 250.0 604.2 L 250.1 606.9 L 250.4 606.6 L 251.2 606.1 L 252.1 606.0 L 253.1 606.2 L 253.7 606.7 L 254.2 607.5 L 254.3 608.1 L 254.1 609.0 L 253.6 609.7 L 252.8 610.1 L 251.9 610.3 L 250.9 610.1 L 250.6 609.9 L 250.2 609.3 M 258.7 602.9 L 256.7 609.5 M 254.6 603.5 L 258.7 602.9 M 253.0 599.0 L 251.0 601.7 L 250.1 598.8 L 249.6 599.5 L 249.0 599.8 L 248.6 599.9 L 247.7 599.6 L 247.2 599.2 L 246.7 598.4 L 246.6 597.6 L 246.9 596.7 L 247.4 596.0 L 248.2 595.4 L 248.6 595.4 L 249.3 595.5 M 249.2 604.0 L 249.5 603.1 L 249.2 602.5 L 248.7 602.2 L 248.1 602.0 L 247.5 602.3 L 246.5 603.1 L 245.7 603.6 L 244.9 603.8 L 244.2 603.6 L 243.5 603.1 L 243.2 602.5 L 243.1 602.1 L 243.4 601.2 L 244.2 600.2 L 245.0 599.7 L 245.4 599.6 L 246.0 599.7 L 246.7 600.3 L 247.0 600.9 L 247.2 601.7 L 246.9 602.6 L 246.4 603.8 L 246.2 604.4 L 246.5 605.0 L 247.0 605.4 L 247.7 605.5 L 248.5 605.0 L 249.3 603.9 M 313.0 556.3 L 310.5 554.7 L 308.8 556.8 L 309.2 556.7 L 310.1 556.9 L 310.9 557.4 L 311.5 558.2 L 311.6 559.0 L 311.4 559.9 L 311.1 560.4 L 310.3 561.0 L 309.5 561.2 L 308.6 561.0 L 307.8 560.5 L 307.2 559.7 L 307.1 559.3 L 307.2 558.7 M 316.6 561.2 L 315.9 561.8 L 315.0 561.9 L 314.1 561.7 L 313.9 561.5 L 313.3 560.8 L 313.1 560.0 L 313.3 559.0 L 313.5 558.8 L 314.2 558.2 L 315.1 558.0 L 316.0 558.3 L 316.2 558.4 L 316.8 559.2 L 317.0 560.0 L 316.6 561.2 L 315.8 562.4 L 314.7 563.5 L 313.7 563.9 L 312.8 563.7 L 312.3 563.4 L 311.7 562.6 L 311.8 562.0 M 358.9 482.5 L 358.9 483.1 L 359.5 483.8 L 360.1 484.1 L 361.0 484.2 L 361.9 483.7 L 362.9 482.5 L 363.6 481.1 L 363.9 479.9 L 363.6 479.1 L 362.9 478.5 L 362.7 478.3 L 361.7 478.2 L 360.9 478.4 L 360.2 479.1 L 360.1 479.4 L 360.0 480.3 L 360.2 481.1 L 360.9 481.8 L 361.2 481.9 L 362.1 482.1 L 362.9 481.8 L 363.6 481.1 M 355.6 481.8 L 356.5 481.9 L 357.4 481.4 L 358.4 480.2 L 358.8 479.4 L 359.2 477.9 L 359.1 476.8 L 358.4 476.2 L 357.9 475.9 L 356.9 475.8 L 356.0 476.3 L 355.1 477.5 L 354.6 478.3 L 354.2 479.8 L 354.4 480.8 L 355.0 481.5 L 355.4 481.7 M 355.8 585.2 L 356.5 585.2 L 357.7 584.9 L 354.4 590.3 M 362.2 587.5 L 356.3 591.3 M 358.7 585.3 L 362.2 587.5 M 405.5 521.4 L 404.8 521.1 L 403.6 521.1 L 408.2 516.8 M 401.6 519.3 L 402.5 519.7 L 403.1 519.5 L 403.5 519.1 L 403.8 518.5 L 403.6 517.9 L 403.0 516.8 L 402.6 515.9 L 402.7 515.1 L 402.9 514.4 L 403.6 513.8 L 404.2 513.6 L 404.6 513.7 L 405.5 514.1 L 406.3 515.0 L 406.7 515.9 L 406.6 516.3 L 406.4 516.9 L 405.7 517.5 L 405.1 517.7 L 404.2 517.7 L 403.4 517.2 L 402.4 516.5 L 401.8 516.3 L 401.1 516.5 L 400.7 516.9 L 400.4 517.5 L 400.8 518.4 L 401.7 519.4 M 408.3 599.7 L 408.2 599.4 L 408.4 598.7 L 408.6 598.4 L 409.2 597.9 L 410.3 597.7 L 411.0 597.9 L 411.3 598.1 L 411.8 598.6 L 411.9 599.2 L 411.7 599.9 L 411.3 600.9 L 409.0 604.4 L 413.1 603.6 M 416.9 596.4 L 415.2 603.1 M 412.8 597.2 L 416.9 596.4 M 303.7 621.0 L 303.9 620.3 L 303.5 619.5 L 303.1 619.0 L 302.3 618.6 L 301.2 618.7 L 299.9 619.5 L 298.8 620.5 L 298.1 621.6 L 298.1 622.4 L 298.5 623.3 L 298.7 623.5 L 299.5 624.0 L 300.4 624.0 L 301.2 623.6 L 301.4 623.4 L 301.9 622.6 L 301.9 621.7 L 301.5 620.9 L 301.3 620.6 L 300.5 620.2 L 299.7 620.2 L 298.8 620.5 M 304.2 622.3 L 304.8 622.6 L 306.1 622.6 L 301.5 626.9 M 339.3 616.1 L 338.7 615.9 L 337.4 615.8 L 342.1 611.6 M 333.8 612.1 L 340.5 610.1 M 336.6 615.2 L 333.8 612.1 M 362.7 459.2 L 362.4 458.5 L 361.6 458.2 L 361.0 458.1 L 360.0 458.3 L 359.4 459.2 L 358.9 460.6 L 358.8 462.1 L 359.0 463.3 L 359.5 464.0 L 360.4 464.4 L 360.7 464.4 L 361.6 464.2 L 362.2 463.7 L 362.6 462.8 L 362.7 462.5 L 362.4 461.6 L 361.9 460.9 L 361.0 460.5 L 360.7 460.5 L 359.8 460.7 L 359.2 461.2 L 358.8 462.1 M 366.0 458.6 L 365.1 458.8 L 364.4 459.6 L 363.9 461.1 L 363.9 462.0 L 364.0 463.5 L 364.5 464.5 L 365.4 464.9 L 366.0 464.9 L 366.9 464.7 L 367.6 463.9 L 368.0 462.4 L 368.1 461.5 L 368.0 460.0 L 367.5 459.0 L 366.6 458.6 L 366.1 458.6 M 373.0 422.5 L 373.2 423.1 L 374.1 423.5 L 374.7 423.5 L 375.6 423.3 L 376.3 422.5 L 376.7 421.0 L 376.9 419.5 L 376.7 418.3 L 376.1 417.7 L 375.3 417.3 L 375.0 417.2 L 374.1 417.5 L 373.4 418.0 L 373.0 418.9 L 373.0 419.2 L 373.2 420.1 L 373.7 420.7 L 374.6 421.1 L 374.9 421.2 L 375.8 420.9 L 376.5 420.4 L 376.9 419.5 M 371.1 421.7 L 371.0 422.0 L 370.7 422.6 L 370.4 422.8 L 369.7 423.1 L 368.5 423.0 L 368.0 422.6 L 367.7 422.3 L 367.5 421.6 L 367.5 421.0 L 367.9 420.5 L 368.6 419.6 L 371.8 416.9 L 367.7 416.5 M 381.8 443.8 L 381.2 444.1 L 380.8 444.9 L 380.8 445.5 L 381.0 446.4 L 381.9 447.1 L 383.4 447.5 L 384.8 447.6 L 386.1 447.4 L 386.7 446.8 L 387.1 446.0 L 387.1 445.7 L 386.9 444.8 L 386.3 444.1 L 385.4 443.8 L 385.1 443.7 L 384.2 444.0 L 383.6 444.5 L 383.2 445.4 L 383.2 445.7 L 383.4 446.6 L 384.0 447.3 L 384.8 447.6 M 381.1 441.7 L 381.3 438.4 L 383.6 440.4 L 383.6 439.5 L 384.0 438.9 L 384.3 438.6 L 385.2 438.4 L 385.8 438.4 L 386.7 438.8 L 387.2 439.4 L 387.5 440.4 L 387.4 441.3 L 387.0 442.1 L 386.7 442.4 L 386.1 442.7 M 330.4 338.8 L 334.7 336.0 L 330.5 334.4 M 330.4 338.8 L 332.6 332.9 M 326.2 337.2 L 327.2 337.2 L 328.1 336.6 L 328.9 335.3 L 329.2 334.5 L 329.4 333.0 L 329.2 331.9 L 328.5 331.3 L 327.9 331.1 L 326.9 331.1 L 326.1 331.7 L 325.3 333.0 L 324.9 333.8 L 324.7 335.3 L 324.9 336.4 L 325.7 337.0 L 326.1 337.2 M 367.0 374.0 L 366.5 373.5 L 365.6 373.4 L 365.0 373.5 L 364.2 374.1 L 363.8 375.1 L 363.9 376.6 L 364.3 378.1 L 364.9 379.1 L 365.6 379.6 L 366.6 379.6 L 366.9 379.6 L 367.7 379.0 L 368.1 378.3 L 368.1 377.4 L 368.1 377.1 L 367.6 376.3 L 366.8 375.9 L 365.9 375.8 L 365.6 375.9 L 364.8 376.4 L 364.4 377.1 L 364.3 378.1 M 369.0 374.0 L 368.9 373.8 L 369.1 373.1 L 369.3 372.7 L 369.8 372.3 L 370.9 372.0 L 371.6 372.1 L 372.0 372.3 L 372.4 372.8 L 372.6 373.4 L 372.4 374.1 L 372.1 375.1 L 369.9 378.8 L 374.0 377.7 M 384.6 350.4 L 387.9 346.4 L 383.4 346.1 M 384.6 350.4 L 385.0 344.1 M 382.1 348.8 L 381.5 349.0 L 380.6 349.8 L 381.0 343.6 M 410.9 388.9 L 411.2 388.3 L 410.8 387.4 L 410.4 387.0 L 409.5 386.5 L 408.5 386.7 L 407.2 387.5 L 406.1 388.5 L 405.4 389.6 L 405.4 390.4 L 405.7 391.3 L 406.0 391.5 L 406.8 392.0 L 407.6 392.0 L 408.5 391.6 L 408.7 391.4 L 409.2 390.6 L 409.2 389.7 L 408.8 388.8 L 408.6 388.6 L 407.8 388.2 L 406.9 388.1 L 406.1 388.5 M 413.0 389.8 L 415.2 392.2 L 412.2 392.5 L 412.8 393.2 L 413.0 393.8 L 413.0 394.3 L 412.6 395.1 L 412.1 395.5 L 411.3 395.9 L 410.4 395.9 L 409.6 395.4 L 409.0 394.7 L 408.6 393.9 L 408.6 393.5 L 408.8 392.8 M 332.2 663.2 L 332.7 662.7 L 332.6 661.7 L 332.3 661.2 L 331.7 660.5 L 330.6 660.3 L 329.1 660.6 L 327.8 661.2 L 326.8 662.0 L 326.5 662.7 L 326.6 663.7 L 326.7 664.0 L 327.3 664.7 L 328.1 665.0 L 329.1 664.9 L 329.3 664.8 L 330.0 664.1 L 330.3 663.3 L 330.3 662.4 L 330.1 662.1 L 329.5 661.4 L 328.7 661.1 L 327.8 661.2 M 335.0 667.0 L 329.9 665.9 L 331.7 670.1 M 335.0 667.0 L 329.2 669.5 M 397.2 650.1 L 397.1 650.4 L 396.7 650.9 L 396.3 651.1 L 395.6 651.3 L 394.5 651.0 L 394.0 650.5 L 393.8 650.2 L 393.6 649.5 L 393.8 648.9 L 394.2 648.4 L 395.0 647.7 L 398.7 645.6 L 394.6 644.5 M 388.0 649.3 L 392.5 643.9 M 392.1 650.3 L 388.0 649.3 M 429.9 350.5 L 430.2 351.1 L 431.1 351.4 L 431.7 351.4 L 432.6 351.1 L 433.2 350.2 L 433.5 348.6 L 433.4 347.1 L 433.1 346.0 L 432.5 345.4 L 431.6 345.1 L 431.3 345.1 L 430.4 345.4 L 429.8 346.0 L 429.5 346.9 L 429.5 347.2 L 429.8 348.1 L 430.5 348.7 L 431.4 349.0 L 431.7 349.0 L 432.6 348.7 L 433.1 348.1 L 433.4 347.1 M 424.9 351.5 L 427.9 351.5 L 428.1 348.8 L 427.8 349.1 L 426.9 349.4 L 426.0 349.4 L 425.1 349.1 L 424.5 348.5 L 424.2 347.6 L 424.2 347.0 L 424.5 346.1 L 425.1 345.5 L 426.0 345.2 L 426.9 345.2 L 427.8 345.5 L 428.1 345.8 L 428.4 346.3 M 452.3 394.0 L 452.7 393.4 L 453.1 392.2 L 455.7 398.0 M 455.5 391.0 L 454.8 391.6 L 454.7 392.3 L 455.0 392.8 L 455.5 393.2 L 456.2 393.3 L 457.4 393.0 L 458.3 393.0 L 459.1 393.2 L 459.6 393.7 L 460.0 394.5 L 460.0 395.2 L 459.8 395.6 L 459.1 396.2 L 458.1 396.7 L 457.1 396.8 L 456.7 396.6 L 456.2 396.2 L 455.8 395.4 L 455.8 394.7 L 456.1 393.9 L 456.8 393.3 L 457.8 392.5 L 458.2 392.0 L 458.3 391.3 L 458.0 390.8 L 457.5 390.4 L 456.6 390.5 L 455.3 391.0 M 408.3 679.4 L 407.7 679.6 L 407.2 680.4 L 407.0 681.0 L 407.1 681.9 L 407.8 682.7 L 409.2 683.4 L 410.6 683.7 L 411.9 683.7 L 412.6 683.3 L 413.1 682.5 L 413.2 682.2 L 413.1 681.3 L 412.7 680.6 L 411.9 680.0 L 411.6 680.0 L 410.7 680.0 L 409.9 680.5 L 409.4 681.3 L 409.4 681.6 L 409.4 682.5 L 409.9 683.2 L 410.6 683.7 M 408.8 673.9 L 414.2 678.4 M 407.8 678.0 L 408.8 673.9 M 388.8 697.1 L 385.0 700.5 L 389.4 701.5 M 388.8 697.1 L 387.5 703.2 M 394.7 700.6 L 394.2 701.4 L 393.5 701.8 L 392.6 701.9 L 392.3 701.9 L 391.5 701.4 L 391.0 700.7 L 390.9 699.7 L 391.0 699.5 L 391.5 698.6 L 392.2 698.2 L 393.1 698.1 L 393.4 698.1 L 394.2 698.6 L 394.7 699.3 L 394.7 700.6 L 394.4 702.0 L 393.8 703.4 L 393.0 704.2 L 392.1 704.3 L 391.5 704.2 L 390.7 703.7 L 390.5 703.0 M 496.3 329.6 L 496.2 330.2 L 496.8 331.0 L 497.3 331.3 L 498.2 331.6 L 499.2 331.2 L 500.3 330.1 L 501.1 328.9 L 501.6 327.7 L 501.4 326.9 L 500.8 326.1 L 500.6 326.0 L 499.7 325.7 L 498.8 325.8 L 498.1 326.4 L 497.9 326.7 L 497.6 327.6 L 497.8 328.4 L 498.4 329.2 L 498.6 329.3 L 499.5 329.6 L 500.4 329.5 L 501.1 328.9 M 493.3 328.6 L 494.3 328.9 L 494.8 328.6 L 495.2 328.1 L 495.3 327.4 L 495.0 326.8 L 494.1 325.9 L 493.6 325.1 L 493.4 324.3 L 493.5 323.6 L 494.0 322.9 L 494.6 322.6 L 495.0 322.5 L 495.9 322.8 L 496.9 323.4 L 497.5 324.2 L 497.6 324.6 L 497.5 325.3 L 497.0 326.0 L 496.4 326.3 L 495.5 326.5 L 494.6 326.2 L 493.5 325.8 L 492.8 325.7 L 492.2 326.0 L 491.9 326.5 L 491.8 327.2 L 492.4 327.9 L 493.5 328.7 M 499.1 357.3 L 498.4 357.3 L 497.7 357.9 L 497.4 358.4 L 497.2 359.3 L 497.7 360.3 L 498.9 361.3 L 500.2 362.1 L 501.3 362.4 L 502.2 362.2 L 502.9 361.5 L 503.0 361.3 L 503.2 360.3 L 503.0 359.5 L 502.3 358.8 L 502.1 358.7 L 501.1 358.5 L 500.3 358.7 L 499.6 359.3 L 499.5 359.6 L 499.3 360.5 L 499.5 361.3 L 500.2 362.1 M 501.5 352.9 L 500.9 352.9 L 500.2 353.5 L 499.9 354.0 L 499.7 355.0 L 500.2 355.9 L 501.3 356.9 L 502.6 357.7 L 503.8 358.0 L 504.7 357.8 L 505.4 357.1 L 505.5 356.9 L 505.7 355.9 L 505.5 355.1 L 504.8 354.4 L 504.6 354.3 L 503.6 354.1 L 502.8 354.3 L 502.1 354.9 L 502.0 355.2 L 501.8 356.1 L 502.0 357.0 L 502.6 357.7 M 409.5 182.5 L 409.1 183.0 L 409.3 184.0 L 409.6 184.5 L 410.2 185.2 L 411.3 185.3 L 412.8 184.9 L 414.1 184.2 L 415.0 183.3 L 415.3 182.5 L 415.1 181.6 L 415.0 181.3 L 414.3 180.7 L 413.5 180.4 L 412.6 180.6 L 412.3 180.7 L 411.6 181.4 L 411.4 182.2 L 411.5 183.1 L 411.7 183.4 L 412.4 184.1 L 413.2 184.3 L 414.1 184.2 M 408.1 177.2 L 409.0 177.0 L 409.9 177.3 L 410.5 178.0 L 410.7 178.2 L 410.8 179.2 L 410.6 180.0 L 409.9 180.7 L 409.6 180.8 L 408.7 180.9 L 407.9 180.7 L 407.2 180.0 L 407.1 179.8 L 406.9 178.8 L 407.2 178.0 L 408.1 177.2 L 409.4 176.5 L 410.9 176.1 L 412.0 176.2 L 412.7 176.8 L 412.9 177.4 L 413.1 178.3 L 412.7 178.9 M 374.1 147.0 L 374.2 144.0 L 371.6 143.6 L 371.9 143.9 L 372.1 144.8 L 372.1 145.7 L 371.7 146.6 L 371.1 147.2 L 370.2 147.4 L 369.6 147.4 L 368.7 147.1 L 368.1 146.5 L 367.9 145.5 L 367.9 144.6 L 368.3 143.8 L 368.6 143.5 L 369.2 143.2 M 374.0 149.3 L 373.9 152.6 L 371.6 150.7 L 371.6 151.6 L 371.2 152.2 L 370.9 152.5 L 370.0 152.8 L 369.4 152.7 L 368.5 152.4 L 367.9 151.8 L 367.7 150.9 L 367.7 150.0 L 368.0 149.1 L 368.4 148.8 L 369.0 148.5 M 350.6 720.4 L 352.8 725.0 L 355.0 721.1 M 350.6 720.4 L 356.1 723.5 M 354.5 715.4 L 353.9 715.4 L 353.2 716.0 L 352.9 716.5 L 352.7 717.5 L 353.2 718.4 L 354.3 719.4 L 355.6 720.2 L 356.8 720.5 L 357.6 720.3 L 358.3 719.6 L 358.5 719.4 L 358.7 718.4 L 358.4 717.6 L 357.8 716.9 L 357.6 716.8 L 356.6 716.6 L 355.8 716.8 L 355.1 717.4 L 354.9 717.7 L 354.8 718.6 L 355.0 719.5 L 355.6 720.2 M 349.1 711.9 L 344.3 709.8 L 345.3 714.2 M 349.1 711.9 L 342.9 713.2 M 349.7 715.0 L 350.4 718.3 L 347.7 717.0 L 347.9 717.9 L 347.7 718.5 L 347.5 718.9 L 346.7 719.4 L 346.1 719.5 L 345.1 719.4 L 344.4 719.0 L 343.9 718.1 L 343.7 717.3 L 343.8 716.3 L 344.1 716.0 L 344.6 715.5 M 454.4 287.0 L 459.6 287.2 L 457.1 283.4 M 454.4 287.0 L 459.7 283.5 M 452.2 283.6 L 452.9 284.1 L 453.6 284.1 L 454.1 283.7 L 454.4 283.1 L 454.3 282.5 L 453.9 281.3 L 453.6 280.4 L 453.8 279.6 L 454.1 279.0 L 454.9 278.5 L 455.5 278.4 L 456.0 278.5 L 456.7 279.0 L 457.4 280.0 L 457.6 280.9 L 457.6 281.4 L 457.2 282.0 L 456.5 282.5 L 455.8 282.5 L 455.0 282.4 L 454.2 281.8 L 453.3 281.0 L 452.7 280.7 L 452.1 280.7 L 451.6 281.1 L 451.2 281.7 L 451.5 282.6 L 452.3 283.7 M 428.7 323.9 L 428.2 318.8 L 424.8 321.7 M 428.7 323.9 L 424.6 319.1 M 424.3 327.7 L 423.8 322.6 L 420.4 325.5 M 424.3 327.7 L 420.2 322.9 M 430.6 328.5 L 430.5 327.8 L 429.7 327.3 L 429.2 327.1 L 428.2 327.0 L 427.4 327.7 L 426.6 329.0 L 426.1 330.4 L 426.0 331.6 L 426.3 332.4 L 427.1 333.0 L 427.4 333.1 L 428.3 333.1 L 429.1 332.7 L 429.7 332.0 L 429.8 331.7 L 429.8 330.8 L 429.4 330.0 L 428.7 329.4 L 428.4 329.3 L 427.4 329.3 L 426.7 329.7 L 426.1 330.4 M 435.6 329.3 L 432.8 328.3 L 431.6 330.8 L 432.0 330.6 L 432.9 330.6 L 433.8 330.9 L 434.5 331.5 L 434.9 332.3 L 434.9 333.2 L 434.7 333.8 L 434.1 334.5 L 433.3 334.9 L 432.4 334.9 L 431.5 334.6 L 430.8 334.0 L 430.6 333.6 L 430.5 332.9 M 429.6 234.6 L 434.2 237.0 L 433.6 232.5 M 429.6 234.6 L 435.9 233.7 M 428.7 228.0 L 435.4 230.0 M 429.3 232.2 L 428.7 228.0 M 425.7 233.4 L 426.0 233.6 L 426.3 234.2 L 426.3 234.6 L 426.2 235.3 L 425.5 236.2 L 424.9 236.5 L 424.5 236.6 L 423.8 236.5 L 423.3 236.1 L 423.0 235.5 L 422.7 234.5 L 422.0 230.3 L 419.5 233.7 M 421.8 241.3 L 423.6 238.9 L 421.6 237.0 L 421.7 237.4 L 421.4 238.3 L 420.8 239.1 L 420.1 239.6 L 419.2 239.7 L 418.3 239.4 L 417.8 239.1 L 417.3 238.3 L 417.2 237.5 L 417.4 236.6 L 418.0 235.9 L 418.8 235.3 L 419.2 235.2 L 419.8 235.4 M 413.5 306.9 L 412.0 311.8 L 416.2 310.4 M 413.5 306.9 L 415.5 312.9 M 419.0 305.1 L 417.5 310.0 L 421.8 308.7 M 419.0 305.1 L 421.0 311.1 M 384.4 297.7 L 379.7 299.9 L 383.6 302.1 M 384.4 297.7 L 381.2 303.2 M 385.9 300.3 L 386.5 300.3 L 387.8 300.0 L 384.6 305.5 M 377.1 256.4 L 374.0 255.2 L 376.6 253.7 L 375.7 253.3 L 375.3 252.8 L 375.1 252.4 L 375.2 251.5 L 375.4 250.9 L 376.0 250.2 L 376.8 249.9 L 377.7 249.9 L 378.5 250.2 L 379.3 250.8 L 379.4 251.2 L 379.5 251.9 M 369.8 251.3 L 370.4 250.6 L 371.2 250.3 L 372.1 250.3 L 372.4 250.4 L 373.1 251.0 L 373.5 251.8 L 373.4 252.8 L 373.3 253.0 L 372.7 253.8 L 371.9 254.1 L 371.0 254.1 L 370.7 253.9 L 370.0 253.3 L 369.6 252.6 L 369.8 251.3 L 370.3 249.9 L 371.2 248.7 L 372.1 248.0 L 373.0 248.1 L 373.6 248.3 L 374.3 248.9 L 374.4 249.6 M 363.7 261.8 L 359.1 259.6 L 359.8 264.0 M 363.7 261.8 L 357.5 262.9 M 364.4 266.2 L 364.0 265.4 L 363.0 264.9 L 361.5 264.9 L 360.6 265.0 L 359.1 265.6 L 358.3 266.3 L 358.2 267.3 L 358.3 267.9 L 358.7 268.7 L 359.7 269.1 L 361.3 269.2 L 362.1 269.0 L 363.6 268.5 L 364.4 267.8 L 364.5 266.8 L 364.4 266.4 M 237.1 353.2 L 237.8 353.0 L 238.8 352.2 L 238.1 358.4 M 241.7 352.2 L 240.8 352.4 L 240.1 353.3 L 239.7 354.7 L 239.6 355.6 L 239.7 357.2 L 240.2 358.1 L 241.1 358.5 L 241.7 358.6 L 242.6 358.4 L 243.3 357.5 L 243.7 356.1 L 243.8 355.2 L 243.7 353.6 L 243.2 352.7 L 242.3 352.3 L 241.9 352.3 M 269.7 290.7 L 269.1 290.8 L 267.9 291.3 L 270.2 285.4 M 263.9 287.6 L 264.5 286.9 L 265.3 286.6 L 266.2 286.6 L 266.5 286.8 L 267.2 287.4 L 267.6 288.1 L 267.5 289.1 L 267.4 289.4 L 266.8 290.1 L 266.0 290.4 L 265.1 290.4 L 264.8 290.3 L 264.1 289.6 L 263.7 288.9 L 263.9 287.6 L 264.5 286.2 L 265.3 285.0 L 266.2 284.4 L 267.1 284.4 L 267.7 284.6 L 268.4 285.3 L 268.5 285.9 M 244.8 292.9 L 245.1 293.0 L 245.4 293.6 L 245.5 294.0 L 245.4 294.7 L 244.7 295.7 L 244.2 296.0 L 243.7 296.1 L 243.1 296.0 L 242.6 295.7 L 242.2 295.1 L 241.8 294.1 L 241.0 289.9 L 238.7 293.4 M 242.3 299.4 L 242.5 298.5 L 242.1 297.5 L 241.0 296.4 L 240.3 295.9 L 238.9 295.3 L 237.8 295.3 L 237.0 295.9 L 236.7 296.4 L 236.4 297.3 L 236.9 298.3 L 237.9 299.4 L 238.7 299.9 L 240.1 300.5 L 241.2 300.5 L 241.9 299.9 L 242.2 299.5 M 219.9 293.6 L 219.6 293.5 L 219.0 293.2 L 218.8 292.8 L 218.5 292.2 L 218.7 291.0 L 219.1 290.5 L 219.4 290.2 L 220.1 290.0 L 220.7 290.1 L 221.2 290.4 L 222.0 291.2 L 224.6 294.5 L 225.2 290.4 M 219.3 286.6 L 219.5 287.5 L 220.3 288.2 L 221.7 288.7 L 222.6 288.9 L 224.2 288.8 L 225.1 288.3 L 225.6 287.5 L 225.6 286.9 L 225.5 285.9 L 224.6 285.2 L 223.2 284.7 L 222.3 284.6 L 220.8 284.7 L 219.8 285.1 L 219.4 286.0 L 219.3 286.4 M 224.1 253.2 L 223.8 253.2 L 223.2 252.8 L 223.0 252.5 L 222.7 251.9 L 222.7 250.7 L 223.1 250.1 L 223.4 249.8 L 224.0 249.6 L 224.6 249.6 L 225.2 249.9 L 226.1 250.6 L 228.9 253.7 L 229.1 249.5 M 224.3 248.2 L 224.0 247.6 L 223.1 246.7 L 229.4 246.9 M 208.5 240.9 L 211.5 240.5 L 211.4 237.8 L 211.1 238.1 L 210.3 238.5 L 209.4 238.7 L 208.5 238.5 L 207.8 238.0 L 207.4 237.1 L 207.3 236.5 L 207.5 235.6 L 208.0 234.9 L 208.8 234.5 L 209.7 234.4 L 210.7 234.6 L 211.0 234.8 L 211.4 235.4 M 203.1 240.7 L 203.5 241.3 L 204.4 241.5 L 205.0 241.4 L 205.8 241.0 L 206.3 240.0 L 206.4 238.5 L 206.2 237.0 L 205.7 235.8 L 205.1 235.3 L 204.1 235.1 L 203.8 235.2 L 203.0 235.6 L 202.5 236.3 L 202.3 237.2 L 202.3 237.5 L 202.8 238.4 L 203.4 238.9 L 204.4 239.0 L 204.7 239.0 L 205.5 238.6 L 206.0 237.9 L 206.2 237.0 M 189.5 256.7 L 185.1 254.0 L 185.4 258.5 M 189.5 256.7 L 183.2 257.2 M 160.4 282.2 L 160.4 282.5 L 160.0 283.1 L 159.7 283.4 L 159.1 283.6 L 157.9 283.5 L 157.3 283.1 L 157.0 282.8 L 156.8 282.2 L 156.8 281.6 L 157.2 281.0 L 157.9 280.2 L 161.1 277.4 L 156.9 277.1 M 153.7 286.2 L 152.8 286.6 L 152.2 287.5 L 152.0 289.0 L 152.0 289.9 L 152.4 291.4 L 153.1 292.3 L 154.0 292.5 L 154.6 292.5 L 155.5 292.2 L 156.0 291.2 L 156.2 289.7 L 156.2 288.8 L 155.8 287.3 L 155.2 286.5 L 154.3 286.2 L 153.8 286.2 M 115.0 282.9 L 115.6 282.8 L 116.8 282.3 L 114.8 288.2 M 89.8 259.9 L 86.5 260.4 L 87.9 257.8 L 87.1 257.9 L 86.4 257.7 L 86.1 257.4 L 85.7 256.6 L 85.6 256.0 L 85.7 255.0 L 86.3 254.4 L 87.1 253.9 L 88.0 253.8 L 88.9 254.0 L 89.3 254.2 L 89.7 254.8 M 60.4 296.7 L 57.8 298.3 L 59.0 300.7 L 59.1 300.3 L 59.7 299.6 L 60.5 299.1 L 61.4 298.9 L 62.2 299.1 L 62.9 299.7 L 63.3 300.2 L 63.5 301.1 L 63.3 301.9 L 62.7 302.7 L 61.9 303.2 L 61.0 303.4 L 60.6 303.3 L 60.0 302.9 M 64.9 293.9 L 62.4 295.5 L 63.5 297.9 L 63.6 297.5 L 64.2 296.8 L 65.0 296.3 L 65.9 296.1 L 66.7 296.3 L 67.5 296.9 L 67.8 297.4 L 68.0 298.3 L 67.8 299.1 L 67.2 299.9 L 66.5 300.3 L 65.5 300.6 L 65.1 300.5 L 64.5 300.1 M 35.7 297.9 L 36.9 300.9 L 34.0 300.1 L 34.3 300.9 L 34.2 301.6 L 34.1 302.0 L 33.3 302.6 L 32.8 302.8 L 31.8 302.8 L 31.0 302.5 L 30.4 301.7 L 30.1 300.9 L 30.1 300.0 L 30.3 299.6 L 30.7 299.1 M 37.6 302.8 L 38.7 305.9 L 35.9 305.1 L 36.2 305.9 L 36.1 306.6 L 35.9 307.0 L 35.2 307.6 L 34.6 307.8 L 33.7 307.8 L 32.9 307.5 L 32.3 306.7 L 32.0 305.9 L 32.0 305.0 L 32.1 304.6 L 32.6 304.1 M 133.2 250.4 L 132.9 250.3 L 132.4 249.9 L 132.2 249.5 L 132.0 248.9 L 132.3 247.7 L 132.7 247.2 L 133.1 247.0 L 133.7 246.8 L 134.3 247.0 L 134.8 247.4 L 135.6 248.2 L 137.8 251.8 L 138.8 247.7 M 183.8 313.9 L 184.1 311.0 L 181.5 310.3 L 181.7 310.7 L 181.9 311.6 L 181.8 312.5 L 181.4 313.4 L 180.8 313.9 L 179.8 314.1 L 179.2 314.0 L 178.4 313.6 L 177.9 312.9 L 177.7 312.0 L 177.8 311.1 L 178.2 310.2 L 178.5 310.0 L 179.1 309.8 M 183.3 318.8 L 179.4 315.3 L 178.9 319.8 M 183.3 318.8 L 177.0 318.0 M 201.8 340.5 L 196.4 345.0 M 197.9 338.8 L 201.8 340.5 M 116.2 227.3 L 116.0 230.6 L 113.7 228.7 L 113.6 229.6 L 113.3 230.2 L 113.0 230.5 L 112.1 230.8 L 111.5 230.7 L 110.6 230.4 L 110.0 229.8 L 109.8 228.8 L 109.8 227.9 L 110.2 227.1 L 110.5 226.8 L 111.1 226.5 M 123.2 224.8 L 127.8 222.3 L 123.7 220.4 M 123.2 224.8 L 126.0 219.1 M 457.9 557.1 L 458.0 557.8 L 458.7 558.3 L 459.3 558.5 L 460.2 558.5 L 461.1 557.8 L 461.8 556.5 L 462.3 555.1 L 462.4 553.8 L 462.0 553.1 L 461.2 552.5 L 460.9 552.4 L 460.0 552.4 L 459.2 552.8 L 458.7 553.6 L 458.6 553.9 L 458.6 554.8 L 459.0 555.6 L 459.7 556.1 L 460.0 556.2 L 461.0 556.2 L 461.7 555.8 L 462.3 555.1 M 453.0 555.6 L 453.1 556.2 L 453.9 556.8 L 454.5 557.0 L 455.4 557.0 L 456.3 556.3 L 457.0 554.9 L 457.5 553.5 L 457.6 552.3 L 457.2 551.5 L 456.4 551.0 L 456.1 550.9 L 455.2 550.9 L 454.4 551.3 L 453.9 552.0 L 453.8 552.3 L 453.8 553.3 L 454.2 554.0 L 454.9 554.6 L 455.2 554.7 L 456.2 554.7 L 456.9 554.3 L 457.5 553.5 M 476.5 594.1 L 476.6 597.1 L 479.3 597.4 L 479.0 597.1 L 478.7 596.2 L 478.7 595.3 L 478.9 594.4 L 479.5 593.8 L 480.4 593.5 L 481.0 593.5 L 481.9 593.8 L 482.5 594.4 L 482.9 595.3 L 482.9 596.2 L 482.6 597.1 L 482.3 597.4 L 481.7 597.7 M 477.9 592.5 L 477.6 591.9 L 476.7 591.0 L 483.0 590.9 M 459.3 625.5 L 459.8 625.0 L 459.8 624.1 L 459.6 623.5 L 459.1 622.7 L 458.1 622.4 L 456.6 622.5 L 455.1 622.9 L 454.0 623.5 L 453.6 624.3 L 453.6 625.2 L 453.7 625.5 L 454.2 626.3 L 455.0 626.7 L 455.9 626.7 L 456.2 626.7 L 457.0 626.1 L 457.4 625.4 L 457.4 624.4 L 457.3 624.1 L 456.8 623.4 L 456.1 623.0 L 455.1 622.9 M 461.7 630.5 L 454.8 629.4 M 460.5 626.5 L 461.7 630.5 M 498.5 654.1 L 500.5 656.4 L 502.7 654.8 L 502.3 654.8 L 501.5 654.3 L 500.9 653.6 L 500.5 652.8 L 500.6 651.9 L 501.0 651.1 L 501.5 650.7 L 502.3 650.3 L 503.2 650.4 L 504.0 650.8 L 504.6 651.5 L 505.0 652.4 L 505.0 652.8 L 504.7 653.4 M 496.1 651.5 L 497.0 652.0 L 498.0 651.8 L 499.4 651.0 L 500.0 650.4 L 500.9 649.2 L 501.2 648.2 L 500.8 647.3 L 500.4 646.8 L 499.6 646.4 L 498.5 646.5 L 497.2 647.3 L 496.5 647.9 L 495.6 649.1 L 495.4 650.2 L 495.7 651.1 L 496.0 651.4 M 493.2 670.0 L 496.3 668.8 L 495.5 671.7 L 496.3 671.4 L 497.0 671.4 L 497.4 671.6 L 498.0 672.3 L 498.2 672.9 L 498.2 673.8 L 497.9 674.6 L 497.2 675.2 L 496.3 675.5 L 495.4 675.6 L 495.0 675.4 L 494.5 675.0 M 501.0 667.0 L 498.2 668.1 L 498.9 670.7 L 499.1 670.3 L 499.8 669.7 L 500.6 669.4 L 501.6 669.4 L 502.4 669.7 L 503.0 670.4 L 503.2 671.0 L 503.2 671.9 L 502.9 672.7 L 502.1 673.3 L 501.3 673.6 L 500.4 673.7 L 500.0 673.5 L 499.5 673.1 M 445.9 669.2 L 448.2 664.6 L 443.8 665.3 M 445.9 669.2 L 445.0 663.0 M 439.1 668.1 L 439.3 667.2 L 439.8 666.5 L 440.6 666.0 L 440.9 666.0 L 441.9 666.2 L 442.5 666.7 L 443.0 667.5 L 443.0 667.8 L 442.9 668.7 L 442.4 669.4 L 441.5 669.9 L 441.2 669.9 L 440.3 669.7 L 439.6 669.2 L 439.1 668.1 L 438.9 666.6 L 439.0 665.1 L 439.4 664.1 L 440.3 663.7 L 440.9 663.6 L 441.8 663.7 L 442.2 664.3 M 439.6 680.2 L 434.6 679.3 L 436.4 683.3 M 439.6 680.2 L 433.9 682.9 M 441.3 686.3 L 441.8 685.8 L 441.7 684.9 L 441.4 684.3 L 440.8 683.6 L 439.7 683.5 L 438.2 683.8 L 436.8 684.4 L 435.9 685.2 L 435.6 686.0 L 435.7 686.9 L 435.8 687.2 L 436.4 687.9 L 437.2 688.2 L 438.2 688.1 L 438.5 688.0 L 439.2 687.3 L 439.5 686.5 L 439.4 685.6 L 439.2 685.3 L 438.6 684.6 L 437.8 684.3 L 436.8 684.4 M 472.1 714.6 L 471.8 714.6 L 471.2 714.3 L 470.9 714.0 L 470.6 713.4 L 470.6 712.2 L 470.9 711.6 L 471.2 711.3 L 471.8 711.0 L 472.4 711.0 L 473.0 711.3 L 473.9 711.9 L 476.9 714.9 L 476.9 710.7 M 472.8 705.7 L 473.7 706.0 L 474.3 706.6 L 474.6 707.5 L 474.6 707.8 L 474.3 708.7 L 473.7 709.3 L 472.7 709.6 L 472.4 709.6 L 471.6 709.3 L 471.0 708.7 L 470.7 707.8 L 470.7 707.5 L 471.0 706.6 L 471.6 706.0 L 472.8 705.7 L 474.3 705.7 L 475.8 706.0 L 476.7 706.6 L 477.0 707.5 L 477.0 708.1 L 476.7 709.0 L 476.1 709.3 M 464.0 713.3 L 459.0 714.8 L 462.6 717.5 M 464.0 713.3 L 460.1 718.3 M 468.9 717.1 L 466.5 715.3 L 464.6 717.3 L 465.0 717.2 L 465.9 717.5 L 466.6 718.1 L 467.2 718.8 L 467.3 719.7 L 466.9 720.6 L 466.6 721.1 L 465.8 721.6 L 465.0 721.7 L 464.1 721.4 L 463.3 720.8 L 462.8 720.0 L 462.8 719.6 L 462.9 719.0 M 35.3 248.7 L 35.0 252.0 L 32.8 249.9 L 32.7 250.8 L 32.4 251.4 L 32.1 251.7 L 31.1 251.9 L 30.5 251.8 L 29.7 251.5 L 29.1 250.8 L 28.9 249.9 L 29.0 249.0 L 29.4 248.1 L 29.7 247.9 L 30.3 247.6 M 34.7 255.2 L 34.5 254.3 L 33.7 253.6 L 32.2 253.2 L 31.3 253.1 L 29.8 253.2 L 28.8 253.7 L 28.5 254.6 L 28.4 255.2 L 28.6 256.1 L 29.5 256.8 L 30.9 257.3 L 31.8 257.3 L 33.4 257.2 L 34.3 256.7 L 34.7 255.8 L 34.7 255.3 M 43.4 242.6 L 45.5 244.7 L 47.7 243.1 L 47.2 243.1 L 46.4 242.6 L 45.8 242.0 L 45.4 241.1 L 45.4 240.3 L 45.8 239.4 L 46.3 239.0 L 47.1 238.6 L 48.0 238.6 L 48.8 239.1 L 49.4 239.7 L 49.8 240.6 L 49.8 241.0 L 49.6 241.7 M 40.4 238.1 L 40.2 238.7 L 40.6 239.6 L 41.0 240.0 L 41.8 240.5 L 42.9 240.3 L 44.2 239.4 L 45.3 238.4 L 45.9 237.4 L 45.9 236.5 L 45.5 235.7 L 45.3 235.4 L 44.5 235.0 L 43.6 235.0 L 42.8 235.4 L 42.6 235.6 L 42.1 236.4 L 42.1 237.3 L 42.5 238.1 L 42.7 238.3 L 43.6 238.8 L 44.4 238.8 L 45.3 238.4 M 374.6 99.7 L 374.6 103.0 L 372.2 101.2 L 372.2 102.1 L 371.9 102.7 L 371.6 103.0 L 370.7 103.3 L 370.1 103.4 L 369.2 103.1 L 368.6 102.5 L 368.3 101.6 L 368.3 100.7 L 368.6 99.8 L 368.9 99.5 L 369.5 99.2 M 374.8 107.6 L 370.5 104.6 L 370.6 109.1 M 374.8 107.6 L 368.5 107.7 M 395.8 88.4 L 398.8 88.2 L 398.9 85.5 L 398.6 85.8 L 397.7 86.2 L 396.8 86.3 L 395.9 86.0 L 395.2 85.5 L 394.9 84.6 L 394.8 84.0 L 395.1 83.1 L 395.6 82.4 L 396.5 82.1 L 397.4 82.0 L 398.3 82.2 L 398.6 82.5 L 399.0 83.1 M 392.2 88.7 L 393.1 88.4 L 393.6 87.4 L 393.8 85.9 L 393.8 85.0 L 393.3 83.5 L 392.7 82.7 L 391.7 82.4 L 391.1 82.5 L 390.3 82.9 L 389.7 83.8 L 389.6 85.3 L 389.6 86.2 L 390.1 87.7 L 390.7 88.6 L 391.6 88.8 L 392.1 88.7 M 428.4 114.5 L 429.7 117.2 L 432.3 116.4 L 431.9 116.2 L 431.2 115.5 L 430.8 114.7 L 430.7 113.8 L 431.0 113.0 L 431.7 112.3 L 432.3 112.1 L 433.2 112.0 L 434.0 112.3 L 434.7 113.0 L 435.0 113.8 L 435.1 114.7 L 435.0 115.1 L 434.6 115.6 M 429.0 112.4 L 428.5 112.0 L 427.3 111.5 L 433.0 108.9 M 424.0 168.4 L 424.2 167.8 L 423.8 167.0 L 423.3 166.5 L 422.5 166.1 L 421.4 166.4 L 420.2 167.2 L 419.1 168.3 L 418.5 169.4 L 418.5 170.2 L 419.0 171.1 L 419.2 171.3 L 420.0 171.7 L 420.9 171.7 L 421.7 171.2 L 421.9 171.0 L 422.3 170.2 L 422.3 169.3 L 421.9 168.5 L 421.7 168.3 L 420.8 167.9 L 420.0 167.9 L 419.1 168.3 M 427.0 173.0 L 426.2 173.4 L 425.3 173.5 L 424.5 173.1 L 424.3 172.8 L 423.8 172.0 L 423.8 171.2 L 424.2 170.3 L 424.4 170.1 L 425.3 169.6 L 426.1 169.6 L 427.0 170.0 L 427.2 170.2 L 427.6 171.1 L 427.6 171.9 L 427.0 173.0 L 426.0 174.1 L 424.7 175.0 L 423.7 175.2 L 422.8 174.8 L 422.4 174.4 L 422.0 173.5 L 422.1 172.9 M 433.5 162.5 L 432.8 162.5 L 432.2 163.3 L 432.0 163.8 L 432.0 164.8 L 432.6 165.6 L 433.9 166.5 L 435.3 167.0 L 436.5 167.2 L 437.3 166.8 L 437.9 166.1 L 438.0 165.8 L 438.1 164.9 L 437.7 164.1 L 437.0 163.5 L 436.7 163.4 L 435.8 163.3 L 435.0 163.7 L 434.4 164.4 L 434.3 164.7 L 434.2 165.6 L 434.6 166.4 L 435.3 167.0 M 433.7 159.4 L 433.7 160.3 L 434.1 160.8 L 434.7 161.0 L 435.4 161.0 L 435.9 160.5 L 436.6 159.5 L 437.2 158.8 L 438.0 158.4 L 438.6 158.4 L 439.5 158.7 L 439.9 159.2 L 440.1 159.6 L 440.0 160.5 L 439.6 161.7 L 439.0 162.4 L 438.6 162.6 L 438.0 162.6 L 437.1 162.3 L 436.7 161.8 L 436.3 161.0 L 436.4 160.1 L 436.5 158.8 L 436.4 158.2 L 436.0 157.7 L 435.4 157.5 L 434.8 157.5 L 434.2 158.3 L 433.7 159.5 M 108.8 191.2 L 106.0 190.1 L 104.8 192.6 L 105.1 192.4 L 106.1 192.4 L 106.9 192.7 L 107.7 193.3 L 108.0 194.1 L 108.0 195.0 L 107.8 195.6 L 107.2 196.3 L 106.5 196.7 L 105.5 196.7 L 104.7 196.4 L 103.9 195.8 L 103.7 195.4 L 103.7 194.7 M 113.4 192.8 L 109.2 195.7 L 113.4 197.2 M 113.4 192.8 L 111.3 198.7 M 133.3 183.5 L 133.0 184.5 L 133.5 185.5 L 134.6 186.5 L 135.3 187.0 L 136.7 187.6 L 137.8 187.5 L 138.6 187.0 L 138.9 186.5 L 139.1 185.5 L 138.7 184.5 L 137.6 183.5 L 136.8 183.0 L 135.4 182.4 L 134.3 182.4 L 133.6 183.0 L 133.3 183.4 M 117.5 148.1 L 117.3 147.2 L 117.5 146.4 L 118.2 145.7 L 118.4 145.5 L 119.4 145.3 L 120.2 145.6 L 120.9 146.2 L 121.0 146.4 L 121.2 147.4 L 121.0 148.2 L 120.4 148.9 L 120.1 149.1 L 119.2 149.2 L 118.4 149.0 L 117.5 148.1 L 116.8 146.8 L 116.3 145.4 L 116.3 144.3 L 117.0 143.6 L 117.5 143.3 L 118.4 143.1 L 119.0 143.5 M 161.3 114.0 L 161.2 114.7 L 161.2 115.9 L 156.5 111.8 M 160.3 117.4 L 158.1 119.9 L 157.5 116.9 L 156.9 117.6 L 156.3 117.9 L 155.8 117.9 L 155.0 117.5 L 154.5 117.1 L 154.0 116.3 L 154.0 115.5 L 154.3 114.6 L 154.9 113.9 L 155.7 113.4 L 156.2 113.4 L 156.8 113.6 M 187.3 115.2 L 187.2 115.5 L 186.6 115.9 L 186.2 116.0 L 185.5 116.0 L 184.5 115.4 L 184.1 114.8 L 184.0 114.4 L 184.0 113.7 L 184.3 113.2 L 184.9 112.8 L 185.8 112.4 L 189.9 111.2 L 186.3 109.2 M 182.5 112.5 L 182.3 112.8 L 181.8 113.2 L 181.3 113.3 L 180.7 113.2 L 179.6 112.7 L 179.3 112.1 L 179.1 111.7 L 179.2 111.0 L 179.5 110.5 L 180.0 110.1 L 181.0 109.6 L 185.1 108.5 L 181.4 106.4 M 171.7 169.7 L 172.4 169.7 L 173.6 169.3 L 170.7 174.9 M 216.9 142.7 L 216.7 142.9 L 216.0 143.1 L 215.6 143.0 L 215.0 142.8 L 214.2 141.8 L 214.1 141.2 L 214.1 140.7 L 214.4 140.1 L 214.9 139.8 L 215.5 139.6 L 216.6 139.5 L 220.8 139.9 L 218.2 136.7 M 210.5 137.4 L 215.7 137.0 L 212.8 133.6 M 210.5 137.4 L 215.4 133.4 M 250.2 171.6 L 250.0 171.8 L 249.5 172.1 L 249.0 172.2 L 248.4 172.1 L 247.4 171.5 L 247.1 170.9 L 247.0 170.5 L 247.1 169.8 L 247.4 169.3 L 248.0 169.0 L 249.0 168.6 L 253.1 167.7 L 249.7 165.4 M 243.9 169.1 L 244.9 169.4 L 245.4 169.1 L 245.8 168.6 L 245.9 167.9 L 245.5 167.3 L 244.7 166.4 L 244.1 165.6 L 244.0 164.8 L 244.1 164.1 L 244.6 163.4 L 245.1 163.1 L 245.6 163.0 L 246.5 163.2 L 247.5 163.9 L 248.1 164.7 L 248.1 165.1 L 248.0 165.7 L 247.5 166.5 L 247.0 166.8 L 246.1 167.0 L 245.2 166.7 L 244.0 166.3 L 243.4 166.2 L 242.8 166.5 L 242.5 167.0 L 242.4 167.7 L 243.0 168.5 L 244.1 169.2 M 249.9 195.3 L 251.1 192.2 L 252.7 194.8 L 253.0 194.0 L 253.5 193.5 L 253.9 193.4 L 254.8 193.4 L 255.4 193.6 L 256.1 194.2 L 256.4 195.0 L 256.4 196.0 L 256.1 196.8 L 255.4 197.5 L 255.1 197.7 L 254.4 197.8 M 253.2 191.0 L 252.9 190.9 L 252.5 190.4 L 252.3 190.0 L 252.3 189.3 L 252.7 188.2 L 253.2 187.7 L 253.6 187.6 L 254.3 187.5 L 254.8 187.7 L 255.3 188.2 L 255.9 189.1 L 257.6 193.0 L 259.1 189.1 M 220.7 190.8 L 218.0 189.6 L 216.6 192.0 L 217.0 191.8 L 218.0 191.9 L 218.8 192.3 L 219.5 192.9 L 219.8 193.7 L 219.7 194.6 L 219.5 195.2 L 218.9 195.9 L 218.1 196.2 L 217.1 196.1 L 216.3 195.8 L 215.6 195.1 L 215.4 194.7 L 215.4 194.1 M 225.6 192.9 L 222.9 191.7 L 221.5 194.1 L 221.9 193.9 L 222.9 194.0 L 223.7 194.4 L 224.4 195.0 L 224.7 195.8 L 224.6 196.8 L 224.4 197.3 L 223.7 198.0 L 223.0 198.3 L 222.0 198.2 L 221.2 197.9 L 220.5 197.2 L 220.3 196.9 L 220.3 196.2 M 183.5 527.4 L 183.9 526.5 L 183.6 525.9 L 183.2 525.5 L 182.5 525.3 L 181.9 525.6 L 180.9 526.3 L 180.1 526.9 L 179.2 526.9 L 178.6 526.8 L 177.9 526.2 L 177.6 525.6 L 177.6 525.2 L 177.9 524.3 L 178.7 523.4 L 179.5 522.9 L 179.9 522.8 L 180.6 523.0 L 181.3 523.5 L 181.5 524.2 L 181.6 525.0 L 181.3 525.9 L 180.7 527.0 L 180.6 527.7 L 180.9 528.3 L 181.3 528.7 L 182.0 528.8 L 182.8 528.3 L 183.6 527.3 M 224.9 571.8 L 224.6 568.5 L 227.1 570.1 L 227.0 569.2 L 227.3 568.5 L 227.5 568.2 L 228.4 567.8 L 229.0 567.8 L 229.9 568.0 L 230.6 568.5 L 231.0 569.4 L 231.0 570.3 L 230.8 571.2 L 230.6 571.5 L 230.0 571.9 M 224.0 563.0 L 230.6 565.4 M 224.4 567.2 L 224.0 563.0 M 208.1 597.9 L 210.8 596.0 L 210.7 599.0 L 211.5 598.4 L 212.1 598.3 L 212.5 598.4 L 213.3 598.9 L 213.7 599.4 L 214.0 600.3 L 213.8 601.2 L 213.3 601.9 L 212.6 602.5 L 211.7 602.8 L 211.3 602.7 L 210.7 602.4 M 213.1 594.2 L 212.6 595.0 L 212.7 595.7 L 213.1 596.1 L 213.7 596.4 L 214.3 596.3 L 215.5 595.9 L 216.4 595.6 L 217.2 595.7 L 217.8 596.0 L 218.3 596.7 L 218.5 597.4 L 218.4 597.8 L 217.8 598.6 L 216.9 599.3 L 216.0 599.6 L 215.6 599.5 L 215.0 599.2 L 214.4 598.5 L 214.3 597.8 L 214.4 597.0 L 215.0 596.2 L 215.8 595.3 L 216.1 594.7 L 216.0 594.0 L 215.6 593.5 L 215.0 593.2 L 214.1 593.5 L 213.0 594.3 M 150.8 559.8 L 150.6 560.4 L 150.4 561.7 L 146.5 556.8 M 148.3 561.7 L 148.5 561.9 L 148.7 562.6 L 148.6 563.0 L 148.4 563.6 L 147.4 564.4 L 146.8 564.5 L 146.3 564.5 L 145.7 564.2 L 145.4 563.7 L 145.2 563.1 L 145.1 562.0 L 145.5 557.8 L 142.3 560.4 M 142.6 580.9 L 143.1 581.3 L 144.3 581.7 L 138.7 584.6 M 146.5 585.3 L 141.4 584.6 L 143.5 588.6 M 146.5 585.3 L 141.0 588.2 M 157.1 615.1 L 157.5 615.6 L 158.6 616.3 L 152.5 617.7 M 159.9 620.8 L 159.2 617.9 L 156.5 618.2 L 156.9 618.4 L 157.4 619.3 L 157.6 620.1 L 157.5 621.1 L 157.0 621.8 L 156.2 622.3 L 155.6 622.4 L 154.7 622.3 L 154.0 621.9 L 153.5 621.1 L 153.3 620.2 L 153.4 619.2 L 153.6 618.9 L 154.1 618.5 M 124.8 642.1 L 124.2 642.5 L 123.3 643.4 L 123.1 637.1 M 118.5 642.8 L 118.9 643.4 L 119.8 643.7 L 120.4 643.7 L 121.3 643.4 L 121.8 642.4 L 122.1 640.9 L 122.0 639.4 L 121.7 638.3 L 121.1 637.7 L 120.2 637.4 L 119.9 637.4 L 119.0 637.7 L 118.4 638.4 L 118.1 639.3 L 118.1 639.6 L 118.5 640.5 L 119.1 641.0 L 120.0 641.3 L 120.3 641.3 L 121.2 641.0 L 121.8 640.3 L 122.0 639.4 M 97.3 657.8 L 97.6 657.7 L 98.2 657.9 L 98.6 658.2 L 99.0 658.7 L 99.2 659.9 L 98.9 660.6 L 98.7 660.9 L 98.2 661.3 L 97.6 661.4 L 96.9 661.2 L 95.9 660.7 L 92.5 658.2 L 93.2 662.4 M 99.6 663.1 L 100.2 666.4 L 97.5 665.0 L 97.6 665.9 L 97.4 666.5 L 97.2 666.8 L 96.4 667.3 L 95.8 667.4 L 94.8 667.2 L 94.1 666.7 L 93.7 665.9 L 93.6 665.0 L 93.7 664.0 L 94.0 663.7 L 94.5 663.3 M 135.2 709.7 L 139.5 712.5 L 139.4 708.0 M 135.2 709.7 L 141.5 709.5 M 136.7 706.5 L 136.4 706.5 L 135.8 706.2 L 135.5 705.9 L 135.2 705.3 L 135.1 704.1 L 135.4 703.5 L 135.7 703.2 L 136.3 702.9 L 136.9 702.9 L 137.5 703.1 L 138.4 703.7 L 141.5 706.6 L 141.4 702.4 M 115.4 721.4 L 112.0 725.3 L 116.5 725.7 M 115.4 721.4 L 114.8 727.7 M 118.6 721.8 L 121.9 722.1 L 119.8 724.3 L 120.7 724.4 L 121.3 724.8 L 121.6 725.1 L 121.8 726.0 L 121.7 726.6 L 121.3 727.5 L 120.7 728.0 L 119.8 728.2 L 118.9 728.1 L 118.0 727.7 L 117.7 727.4 L 117.5 726.8 M 73.6 706.1 L 68.7 707.9 L 72.5 710.4 M 73.6 706.1 L 70.0 711.3 M 78.7 709.7 L 76.2 708.0 L 74.4 710.1 L 74.9 710.0 L 75.8 710.2 L 76.5 710.7 L 77.1 711.5 L 77.3 712.3 L 77.0 713.2 L 76.7 713.7 L 75.9 714.3 L 75.1 714.5 L 74.2 714.2 L 73.4 713.7 L 72.8 713.0 L 72.8 712.5 L 72.9 711.9 M 80.3 701.6 L 80.4 701.9 L 80.2 702.6 L 80.0 703.0 L 79.5 703.4 L 78.3 703.7 L 77.7 703.5 L 77.3 703.3 L 76.9 702.8 L 76.7 702.2 L 76.9 701.6 L 77.2 700.5 L 79.4 696.9 L 75.4 697.9 M 72.1 704.3 L 72.5 704.8 L 73.4 704.9 L 74.0 704.8 L 74.8 704.2 L 75.2 703.2 L 75.1 701.7 L 74.8 700.2 L 74.2 699.2 L 73.4 698.7 L 72.5 698.6 L 72.2 698.7 L 71.4 699.2 L 71.0 699.9 L 70.9 700.9 L 71.0 701.2 L 71.5 702.0 L 72.2 702.4 L 73.1 702.5 L 73.4 702.4 L 74.2 701.9 L 74.7 701.2 L 74.8 700.2 M 219.5 669.9 L 218.8 669.9 L 218.2 670.6 L 217.9 671.1 L 217.8 672.1 L 218.3 673.0 L 219.5 674.0 L 220.8 674.6 L 222.1 674.9 L 222.9 674.6 L 223.5 674.0 L 223.7 673.7 L 223.8 672.8 L 223.5 672.0 L 222.9 671.3 L 222.6 671.2 L 221.7 671.0 L 220.9 671.3 L 220.2 672.0 L 220.1 672.2 L 219.9 673.2 L 220.2 674.0 L 220.8 674.6 M 220.6 669.0 L 220.6 668.3 L 220.2 667.1 L 225.8 669.9 M 214.4 639.3 L 216.7 641.3 L 218.7 639.4 L 218.3 639.4 L 217.4 639.1 L 216.7 638.5 L 216.2 637.7 L 216.1 636.8 L 216.5 636.0 L 216.9 635.5 L 217.7 635.0 L 218.5 634.9 L 219.4 635.3 L 220.1 635.9 L 220.6 636.7 L 220.6 637.1 L 220.5 637.8 M 210.0 635.6 L 216.4 632.7 M 213.2 638.3 L 210.0 635.6 M 189.8 702.9 L 189.2 702.5 L 188.3 702.8 L 187.8 703.1 L 187.2 703.8 L 187.2 704.9 L 187.7 706.3 L 188.6 707.6 L 189.5 708.4 L 190.3 708.6 L 191.2 708.4 L 191.5 708.2 L 192.0 707.5 L 192.2 706.6 L 192.0 705.7 L 191.8 705.5 L 191.1 704.9 L 190.3 704.7 L 189.3 704.9 L 189.1 705.1 L 188.5 705.8 L 188.3 706.7 L 188.6 707.6 M 193.1 699.6 L 192.9 704.7 L 196.7 702.3 M 193.1 699.6 L 196.5 704.9 M 163.8 693.8 L 158.7 694.2 L 161.5 697.6 M 163.8 693.8 L 158.9 697.8 M 164.6 697.3 L 164.8 697.1 L 165.5 696.9 L 165.9 697.0 L 166.5 697.2 L 167.3 698.2 L 167.4 698.8 L 167.4 699.2 L 167.1 699.8 L 166.7 700.2 L 166.0 700.4 L 164.9 700.5 L 160.7 700.1 L 163.4 703.3 M 197.4 473.7 L 196.8 470.8 L 194.1 471.1 L 194.4 471.3 L 194.9 472.1 L 195.1 473.0 L 195.0 473.9 L 194.6 474.6 L 193.7 475.1 L 193.2 475.3 L 192.2 475.2 L 191.5 474.7 L 191.0 473.9 L 190.8 473.0 L 190.9 472.1 L 191.2 471.7 L 191.7 471.3 M 265.7 468.0 L 265.1 464.7 L 267.8 466.1 L 267.6 465.2 L 267.8 464.6 L 268.1 464.3 L 268.9 463.8 L 269.5 463.7 L 270.5 463.9 L 271.1 464.4 L 271.6 465.2 L 271.7 466.1 L 271.6 467.0 L 271.3 467.4 L 270.8 467.8 M 265.2 459.6 L 264.6 460.0 L 264.5 461.0 L 264.6 461.5 L 265.0 462.4 L 266.0 462.8 L 267.6 462.9 L 269.0 462.6 L 270.2 462.1 L 270.7 461.4 L 270.8 460.5 L 270.8 460.2 L 270.3 459.4 L 269.6 458.9 L 268.7 458.7 L 268.4 458.8 L 267.6 459.2 L 267.1 459.9 L 266.9 460.9 L 267.0 461.1 L 267.4 462.0 L 268.1 462.5 L 269.0 462.6 M 191.5 426.2 L 192.1 426.0 L 192.4 425.1 L 192.4 424.5 L 192.2 423.6 L 191.3 422.9 L 189.8 422.6 L 188.3 422.5 L 187.1 422.8 L 186.5 423.4 L 186.1 424.3 L 186.1 424.6 L 186.4 425.5 L 187.0 426.1 L 187.9 426.4 L 188.2 426.4 L 189.1 426.2 L 189.7 425.6 L 190.0 424.7 L 190.0 424.4 L 189.8 423.5 L 189.2 422.9 L 188.3 422.5 M 207.1 391.2 L 206.8 391.8 L 206.7 393.0 L 202.6 388.3 M 204.7 395.2 L 205.1 394.3 L 205.0 393.3 L 204.2 391.9 L 203.6 391.3 L 202.4 390.3 L 201.4 390.1 L 200.5 390.4 L 200.0 390.8 L 199.6 391.6 L 199.7 392.7 L 200.5 394.0 L 201.1 394.7 L 202.3 395.6 L 203.3 395.9 L 204.2 395.6 L 204.5 395.3 M 238.4 416.0 L 237.8 415.8 L 236.6 415.6 L 241.4 411.7 M 236.8 414.1 L 236.2 413.8 L 234.9 413.7 L 239.8 409.7 M 349.2 147.5 L 346.9 149.8 L 346.5 146.9 L 345.8 147.5 L 345.2 147.7 L 344.8 147.7 L 343.9 147.3 L 343.5 146.9 L 343.1 146.1 L 343.0 145.2 L 343.5 144.3 L 344.1 143.7 L 344.9 143.3 L 345.4 143.3 L 346.0 143.5 M 345.0 149.8 L 344.7 150.5 L 344.8 151.7 L 340.3 147.3 M 353.3 151.6 L 353.9 154.6 L 356.6 154.4 L 356.2 154.2 L 355.8 153.3 L 355.6 152.4 L 355.7 151.5 L 356.2 150.8 L 357.1 150.4 L 357.6 150.2 L 358.6 150.4 L 359.3 150.9 L 359.7 151.7 L 359.9 152.6 L 359.8 153.5 L 359.5 153.9 L 359.0 154.3 M 352.9 149.3 L 352.3 146.1 L 355.0 147.4 L 354.8 146.6 L 355.0 145.9 L 355.3 145.6 L 356.1 145.1 L 356.7 145.0 L 357.6 145.1 L 358.3 145.6 L 358.8 146.5 L 358.9 147.3 L 358.8 148.3 L 358.6 148.6 L 358.0 149.0"
       id="nums_001"
       stroke="black"
       stroke-width="1" />
    <path
       d="m 22.685271,288.31165 6.6,-71.8 36.6,38.2 40.199999,-5.6 2,-40.6 36.8,17.8 -10.7,46.9 47.9,4 -3.2,-40.8 52.4,-7.1 -1.8,38.4 -6,43.7 24.6,-36.6 40.1,16.2 -33.4,-27.6 29.2,-25.1 -1.7,-72.1 -17.9,-30.8 -5.9,-41.000003 -40.3,8.000003 -38.7,-21.300003 -42.3,-7.6 -8.8,41.500003 -37.199999,40.6 47.699999,-27.3 28,-31.900003 37.5,21.000003 27.8,34.2 34.1,23 -15.4,38.5 -65.4,-28.4 -33.1,-16.9 -25.1,39 -40.599999,-14.7 -41.6,32.9 -28.5,-36.8 -5.3,-53.7 42.1,-39.000003 32.4,-20.1 6.3,-41.6 16.499999,-23.5 55.9,37.7 46.8,-29 34,29.1 50.3,-7.9 26.4,37.7 19.9,39.400003 -19.7,45.2 34.4,-35.2 7.7,42.4 1.7,-43.1 -0.6,-44.100003 54.8,-4.5 28.7,63.000003 -17.5,45.3 -24.5,-23.6 15.7,30.2 -52.5,44.7 -41.4,-7.4 15,55.6 -40.1,34.2 53.3,20.2 50.1,3.3 41.3,-0.8 -39,-13.8 22.7,-19.5 -28.5,9.1 -43.5,-24.8 -9.4,-56.3 49,19.1 34.1,-46.5 6.2,41.6 38.7,57.2 40,27.6 -26.4,46.6 -68.6,31 -35.6,-38.2 -36.8,9.6 -50.7,16.2 52,11.5 37.9,3.6 -3.7,52.1 -48,-4.6 43,21.9 51,55.4 50.9,16.2 0.9,69.2 36.8,40.8 -43,16.4 -0.2,51 -35.9,-27.7 -19.6,-43.1 37.8,-6 -17,-59.2 -59.3,12.2 -58.8,-36.8 -32.3,-20.9 25.1,29.1 46.1,51.8 58.6,15.5 -15.3,59.7 -37.4,-8.1 -23.4,41.2 -11.8,-53.6 -18.9,-43.3 -35.2,-38.3 -51.4,7.9 27,-35.7 -26.5,-35.6 4.1,44.2 -36,26.6 39.7,33.8 -23.4,46.4 -39.6,25.6 -32.8,-39.8 1.7,51.6 -54.599999,-5.6 -37.5,-25.4 43.4,-10.8 -8.5,-54.4 67.399999,-2.1 -6.4,-28 -19.4,-37.4 29.5,-24 36.7,-44.2 -11.5,-52.8 1.6,-46.5 29.3,-25.8 55.7,68.2 6.1,36.4 12.4,-34.8 -28.7,-83.2 -38.9,-3.8 -48.1,-22.3 5.1,-42.9 -46.3,2.3 -35.199999,-11.6 -60.6,37.7 z"
       id="coupes_001"
       stroke="#ff0000"
       stroke-width="1.27"
       sodipodi:nodetypes="ccccccccccccccccccccccccccccccccccccccccccccccccccccccccccccccccccccccccccccccccccccccccccccccccccccccccccccccccccccccccccccccccccccccccccc" />
    <path
       d="M 339.4 464.3 L 276.1 480.3 M 301.2 401.7 L 339.4 464.3 M 288.5 445.5 L 301.2 401.7 M 259.8 362.3 L 301.2 401.7 M 259.8 362.3 L 304.3 320.1 M 304.3 320.1 L 301.2 401.7 M 259.8 362.3 L 288.9 291.1 M 288.9 291.1 L 304.3 320.1 M 288.9 291.1 L 344.4 285.9 M 288.9 291.1 L 284.7 238.4 M 284.7 238.4 L 329.4 230.3 M 322.9 162.6 L 329.4 230.3 M 283.0 166.3 L 322.9 162.6 M 265.1 135.5 L 342.6 117.4 M 265.1 135.5 L 322.7 78.0 M 259.2 94.5 L 322.7 78.0 M 259.2 94.5 L 246.0 48.2 M 218.9 102.5 L 246.0 48.2 M 180.2 81.2 L 246.0 48.2 M 180.2 81.2 L 165.2 48.1 M 137.9 73.6 L 165.2 48.1 M 137.9 73.6 L 92.8 33.9 M 137.9 73.6 L 86.5 75.5 M 129.1 115.1 L 86.5 75.5 M 91.9 155.7 L 54.1 95.6 M 91.9 155.7 L 12.0 134.6 M 91.9 155.7 L 87.4 192.2 M 87.4 192.2 L 17.3 188.3 M 322.9 162.6 L 365.0 169.8 M 365.0 169.8 L 329.4 230.3 M 365.0 169.8 L 423.3 193.0 M 339.4 464.3 L 293.7 553.7 M 293.7 553.7 L 276.1 480.3 M 293.7 553.7 L 230.6 544.3 M 230.6 544.3 L 276.1 480.3 M 293.7 553.7 L 257.1 579.9 M 353.2 413.2 L 339.4 464.3 M 318.8 582.8 L 281.5 607.7 M 281.5 607.7 L 257.1 579.9 M 382.4 486.2 L 326.0 574.6 M 433.4 541.6 L 384.8 611.4 M 433.4 541.6 L 444.1 599.2 M 318.8 582.8 L 316.7 646.0 M 364.9 634.6 L 316.7 646.0 M 357.6 340.3 L 351.9 385.5 M 357.6 340.3 L 388.7 375.9 M 407.7 343.6 L 388.7 375.9 M 364.9 634.6 L 370.8 701.7 M 370.8 701.7 L 335.6 689.3 M 423.5 650.1 L 370.8 701.7 M 449.0 342.8 L 424.3 414.1 M 449.0 342.8 L 492.9 383.1 M 449.0 342.8 L 479.3 308.9 M 365.0 169.8 L 407.6 162.8 M 366.7 126.7 L 407.6 162.8 M 432.7 309.5 L 479.3 308.9 M 449.0 342.8 L 432.7 309.5 M 432.7 309.5 L 440.6 251.7 M 400.3 256.6 L 440.6 251.7 M 432.7 309.5 L 400.3 256.6 M 360.7 293.8 L 400.3 256.6 M 224.2 311.5 L 288.9 291.1 M 259.8 362.3 L 224.2 311.5 M 220.9 358.5 L 224.2 311.5 M 177.9 293.3 L 224.2 311.5 M 182.8 277.3 L 224.2 311.5 M 182.8 277.3 L 230.2 267.8 M 182.8 277.3 L 232.0 229.4 M 177.9 293.3 L 134.9 273.3 M 131.6 295.6 L 134.9 273.3 M 96.4 284.0 L 134.9 273.3 M 96.4 284.0 L 106.8 249.2 M 106.8 249.2 L 134.9 273.3 M 96.4 284.0 L 23.4 288.4 M 23.4 288.4 L 66.6 254.8 M 106.8 249.2 L 145.6 226.4 M 484.3 557.8 L 444.1 599.2 M 485.2 627.0 L 444.1 599.2 M 485.2 627.0 L 461.1 658.4 M 479.0 684.2 L 423.3 664.4 M 479.0 684.2 L 442.9 707.5 M 449.6 141.1 L 407.6 162.8 M 91.9 155.7 L 153.1 167.9 M 139.6 128.4 L 153.1 167.9 M 205.1 117.5 L 153.1 167.9 M 232.9 151.7 L 186.2 184.8 M 194.9 500.8 L 276.1 480.3 M 230.6 544.3 L 194.9 500.8 M 230.6 544.3 L 158.2 545.0 M 198.7 615.1 L 158.2 545.0 M 198.7 615.1 L 128.7 569.0 M 198.7 615.1 L 148.1 606.4 M 198.7 615.1 L 154.5 634.4 M 198.7 615.1 L 215.0 695.3 M 215.0 695.3 L 142.6 681.1 M 142.6 681.1 L 154.5 634.4 M 142.6 681.1 L 87.1 636.5 M 142.6 681.1 L 95.6 690.9 M 89.7 727.1 L 95.6 690.9 M 183.4 448.0 L 276.1 480.3 M 183.4 448.0 L 270.0 443.9"
       id="plisM_001"
       stroke="brown"
       stroke-dasharray="4" />
    <path
       d="M 305.8 470.3 L 309.8 474.3 M 309.8 470.3 L 305.8 474.3 M 318.3 431.0 L 322.3 435.0 M 322.3 431.0 L 318.3 435.0 M 292.9 421.6 L 296.9 425.6 M 296.9 421.6 L 292.9 425.6 M 278.5 380.0 L 282.5 384.0 M 282.5 380.0 L 278.5 384.0 M 280.1 339.2 L 284.1 343.2 M 284.1 339.2 L 280.1 343.2 M 300.8 358.9 L 304.8 362.9 M 304.8 358.9 L 300.8 362.9 M 272.3 324.7 L 276.3 328.7 M 276.3 324.7 L 272.3 328.7 M 294.6 303.6 L 298.6 307.6 M 298.6 303.6 L 294.6 307.6 M 314.6 286.5 L 318.6 290.5 M 318.6 286.5 L 314.6 290.5 M 284.8 262.7 L 288.8 266.7 M 288.8 262.7 L 284.8 266.7 M 305.0 232.3 L 309.0 236.3 M 309.0 232.3 L 305.0 236.3 M 324.1 194.5 L 328.1 198.5 M 328.1 194.5 L 324.1 198.5 M 300.9 162.4 L 304.9 166.4 M 304.9 162.4 L 300.9 166.4 M 301.9 124.5 L 305.9 128.5 M 305.9 124.5 L 301.9 128.5 M 291.9 104.8 L 295.9 108.8 M 295.9 104.8 L 291.9 108.8 M 289.0 84.3 L 293.0 88.3 M 293.0 84.3 L 289.0 88.3 M 250.6 69.3 L 254.6 73.3 M 254.6 69.3 L 250.6 73.3 M 230.4 73.3 L 234.4 77.3 M 234.4 73.3 L 230.4 77.3 M 211.1 62.7 L 215.1 66.7 M 215.1 62.7 L 211.1 66.7 M 170.7 62.7 L 174.7 66.7 M 174.7 62.7 L 170.7 66.7 M 149.5 58.9 L 153.5 62.9 M 153.5 58.9 L 149.5 62.9 M 113.3 51.7 L 117.3 55.7 M 117.3 51.7 L 113.3 55.7 M 110.2 72.6 L 114.2 76.6 M 114.2 72.6 L 110.2 76.6 M 105.8 93.3 L 109.8 97.3 M 109.8 93.3 L 105.8 97.3 M 71.0 123.6 L 75.0 127.6 M 75.0 123.6 L 71.0 127.6 M 49.9 143.1 L 53.9 147.1 M 53.9 143.1 L 49.9 147.1 M 87.6 171.9 L 91.6 175.9 M 91.6 171.9 L 87.6 175.9 M 50.3 188.2 L 54.3 192.2 M 54.3 188.2 L 50.3 192.2 M 341.9 164.2 L 345.9 168.2 M 345.9 164.2 L 341.9 168.2 M 345.2 198.1 L 349.2 202.1 M 349.2 198.1 L 345.2 202.1 M 392.1 179.4 L 396.1 183.4 M 396.1 179.4 L 392.1 183.4 M 314.6 507.0 L 318.6 511.0 M 318.6 507.0 L 314.6 511.0 M 282.9 515.0 L 286.9 519.0 M 286.9 515.0 L 282.9 519.0 M 260.2 547.0 L 264.2 551.0 M 264.2 547.0 L 260.2 551.0 M 251.3 510.3 L 255.3 514.3 M 255.3 510.3 L 251.3 514.3 M 273.4 564.8 L 277.4 568.8 M 277.4 564.8 L 273.4 568.8 M 344.3 436.8 L 348.3 440.8 M 348.3 436.8 L 344.3 440.8 M 298.2 593.3 L 302.2 597.3 M 302.2 593.3 L 298.2 597.3 M 267.3 591.8 L 271.3 595.8 M 271.3 591.8 L 267.3 595.8 M 352.2 528.4 L 356.2 532.4 M 356.2 528.4 L 352.2 532.4 M 407.1 574.5 L 411.1 578.5 M 411.1 574.5 L 407.1 578.5 M 436.7 568.4 L 440.7 572.4 M 440.7 568.4 L 436.7 572.4 M 315.8 612.4 L 319.8 616.4 M 319.8 612.4 L 315.8 616.4 M 338.8 638.3 L 342.8 642.3 M 342.8 638.3 L 338.8 642.3 M 352.8 360.9 L 356.8 364.9 M 356.8 360.9 L 352.8 364.9 M 371.2 356.1 L 375.2 360.1 M 375.2 356.1 L 371.2 360.1 M 396.2 357.7 L 400.2 361.7 M 400.2 357.7 L 396.2 361.7 M 365.8 666.2 L 369.8 670.2 M 369.8 666.2 L 365.8 670.2 M 351.2 693.5 L 355.2 697.5 M 355.2 693.5 L 351.2 697.5 M 395.1 673.9 L 399.1 677.9 M 399.1 673.9 L 395.1 677.9 M 434.6 376.4 L 438.6 380.4 M 438.6 376.4 L 434.6 380.4 M 468.9 360.9 L 472.9 364.9 M 472.9 360.9 L 468.9 364.9 M 462.1 323.8 L 466.1 327.8 M 466.1 323.8 L 462.1 327.8 M 384.3 164.3 L 388.3 168.3 M 388.3 164.3 L 384.3 168.3 M 385.1 142.8 L 389.1 146.8 M 389.1 142.8 L 385.1 146.8 M 454.0 307.2 L 458.0 311.2 M 458.0 307.2 L 454.0 311.2 M 438.8 324.1 L 442.8 328.1 M 442.8 324.1 L 438.8 328.1 M 434.7 278.6 L 438.7 282.6 M 438.7 278.6 L 434.7 282.6 M 418.5 252.2 L 422.5 256.2 M 422.5 252.2 L 418.5 256.2 M 414.5 281.0 L 418.5 285.0 M 418.5 281.0 L 414.5 285.0 M 378.5 273.2 L 382.5 277.2 M 382.5 273.2 L 378.5 277.2 M 254.5 299.3 L 258.5 303.3 M 258.5 299.3 L 254.5 303.3 M 240.0 334.9 L 244.0 338.9 M 244.0 334.9 L 240.0 338.9 M 220.6 333.0 L 224.6 337.0 M 224.6 333.0 L 220.6 337.0 M 199.1 300.4 L 203.1 304.4 M 203.1 300.4 L 199.1 304.4 M 201.5 292.4 L 205.5 296.4 M 205.5 292.4 L 201.5 296.4 M 204.5 270.6 L 208.5 274.6 M 208.5 270.6 L 204.5 274.6 M 205.4 251.4 L 209.4 255.4 M 209.4 251.4 L 205.4 255.4 M 154.4 281.3 L 158.4 285.3 M 158.4 281.3 L 154.4 285.3 M 131.3 282.4 L 135.3 286.4 M 135.3 282.4 L 131.3 286.4 M 113.6 276.6 L 117.6 280.6 M 117.6 276.6 L 113.6 280.6 M 99.6 264.6 L 103.6 268.6 M 103.6 264.6 L 99.6 268.6 M 118.9 259.2 L 122.9 263.2 M 122.9 259.2 L 118.9 263.2 M 57.9 284.2 L 61.9 288.2 M 61.9 284.2 L 57.9 288.2 M 43.0 269.6 L 47.0 273.6 M 47.0 269.6 L 43.0 273.6 M 124.2 235.8 L 128.2 239.8 M 128.2 235.8 L 124.2 239.8 M 462.2 576.5 L 466.2 580.5 M 466.2 576.5 L 462.2 580.5 M 462.7 611.1 L 466.7 615.1 M 466.7 611.1 L 462.7 615.1 M 471.1 640.7 L 475.1 644.7 M 475.1 640.7 L 471.1 644.7 M 449.1 672.3 L 453.1 676.3 M 453.1 672.3 L 449.1 676.3 M 458.9 693.9 L 462.9 697.9 M 462.9 693.9 L 458.9 697.9 M 426.6 150.0 L 430.6 154.0 M 430.6 150.0 L 426.6 154.0 M 120.5 159.8 L 124.5 163.8 M 124.5 159.8 L 120.5 163.8 M 144.4 146.2 L 148.4 150.2 M 148.4 146.2 L 144.4 150.2 M 177.1 140.7 L 181.1 144.7 M 181.1 140.7 L 177.1 144.7 M 207.6 166.3 L 211.6 170.3 M 211.6 166.3 L 207.6 170.3 M 233.5 488.6 L 237.5 492.6 M 237.5 488.6 L 233.5 492.6 M 210.7 520.6 L 214.7 524.6 M 214.7 520.6 L 210.7 524.6 M 192.4 542.7 L 196.4 546.7 M 196.4 542.7 L 192.4 546.7 M 176.5 578.1 L 180.5 582.1 M 180.5 578.1 L 176.5 582.1 M 161.7 590.1 L 165.7 594.1 M 165.7 590.1 L 161.7 594.1 M 171.4 608.7 L 175.4 612.7 M 175.4 608.7 L 171.4 612.7 M 174.6 622.8 L 178.6 626.8 M 178.6 622.8 L 174.6 626.8 M 204.9 653.2 L 208.9 657.2 M 208.9 653.2 L 204.9 657.2 M 176.8 686.2 L 180.8 690.2 M 180.8 686.2 L 176.8 690.2 M 146.5 655.8 L 150.5 659.8 M 150.5 655.8 L 146.5 659.8 M 112.9 656.8 L 116.9 660.8 M 116.9 656.8 L 112.9 660.8 M 117.1 684.0 L 121.1 688.0 M 121.1 684.0 L 117.1 688.0 M 90.7 707.0 L 94.7 711.0 M 94.7 707.0 L 90.7 711.0 M 227.7 462.2 L 231.7 466.2 M 231.7 462.2 L 227.7 466.2 M 224.7 444.0 L 228.7 448.0 M 228.7 444.0 L 224.7 448.0"
       display="none"
       id="marqueM_001"
       stroke="brown" />
    <path
       d="M 288.5 445.5 L 339.4 464.3 M 284.7 238.4 L 344.4 285.9 M 284.7 238.4 L 322.9 162.6 M 283.0 166.3 L 342.6 117.4 M 259.2 94.5 L 296.3 40.3 M 180.2 81.2 L 212.0 19.1 M 137.9 73.6 L 109.3 10.4 M 129.1 115.1 L 54.1 95.6 M 87.4 192.2 L 12.0 134.6 M 423.3 193.0 L 329.4 230.3 M 304.3 320.1 L 351.9 385.5 M 318.8 582.8 L 257.1 579.9 M 339.4 464.3 L 326.0 574.6 M 382.4 486.2 L 384.8 611.4 M 353.2 413.2 L 387.4 468.9 M 407.7 343.6 L 424.3 414.1 M 364.9 634.6 L 335.6 689.3 M 479.3 308.9 L 492.9 383.1 M 404.2 318.6 L 400.3 256.6 M 220.9 358.5 L 177.9 293.3 M 177.9 293.3 L 182.8 277.3 M 96.4 284.0 L 66.6 254.8 M 522.0 667.8 L 461.1 658.4 M 479.0 684.2 L 461.1 658.4 M 366.7 126.7 L 449.6 141.1 M 366.1 82.6 L 449.6 141.1 M 91.9 155.7 L 128.0 206.9 M 167.6 96.5 L 153.1 167.9 M 205.1 117.5 L 186.2 184.8 M 267.0 174.7 L 186.2 184.8 M 234.7 588.5 L 158.2 545.0 M 215.0 695.3 L 154.5 634.4 M 144.3 732.7 L 95.6 690.9 M 185.0 401.5 L 270.0 443.9"
       id="plisV_001"
       stroke="green"
       stroke-dasharray="4 1 1 1"
       stroke-width="1.27" />
    <path
       d="M 312.0 452.9 L 316.0 456.9 M 316.0 452.9 L 312.0 456.9 M 312.5 260.1 L 316.5 264.1 M 316.5 260.1 L 312.5 264.1 M 301.8 198.5 L 305.8 202.5 M 305.8 198.5 L 301.8 202.5 M 310.8 139.8 L 314.8 143.8 M 314.8 139.8 L 310.8 143.8 M 275.7 65.4 L 279.7 69.4 M 279.7 65.4 L 275.7 69.4 M 194.1 48.2 L 198.1 52.2 M 198.1 48.2 L 194.1 52.2 M 121.6 40.0 L 125.6 44.0 M 125.6 40.0 L 121.6 44.0 M 89.6 103.4 L 93.6 107.4 M 93.6 103.4 L 89.6 107.4 M 47.7 161.4 L 51.7 165.4 M 51.7 161.4 L 47.7 165.4 M 374.3 209.7 L 378.3 213.7 M 378.3 209.7 L 374.3 213.7 M 326.1 350.8 L 330.1 354.8 M 330.1 350.8 L 326.1 354.8 M 286.0 579.4 L 290.0 583.4 M 290.0 579.4 L 286.0 583.4 M 330.7 517.5 L 334.7 521.5 M 334.7 517.5 L 330.7 521.5 M 381.6 546.8 L 385.6 550.8 M 385.6 546.8 L 381.6 550.8 M 368.3 439.1 L 372.3 443.1 M 372.3 439.1 L 368.3 443.1 M 414.0 376.8 L 418.0 380.8 M 418.0 376.8 L 414.0 380.8 M 348.3 660.0 L 352.3 664.0 M 352.3 660.0 L 348.3 664.0 M 484.1 344.0 L 488.1 348.0 M 488.1 344.0 L 484.1 348.0 M 400.3 285.6 L 404.3 289.6 M 404.3 285.6 L 400.3 289.6 M 197.4 323.9 L 201.4 327.9 M 201.4 323.9 L 197.4 327.9 M 178.4 283.3 L 182.4 287.3 M 182.4 283.3 L 178.4 287.3 M 79.5 267.4 L 83.5 271.4 M 83.5 267.4 L 79.5 271.4 M 489.5 661.1 L 493.5 665.1 M 493.5 661.1 L 489.5 665.1 M 468.0 669.3 L 472.0 673.3 M 472.0 669.3 L 468.0 673.3 M 406.2 131.9 L 410.2 135.9 M 410.2 131.9 L 406.2 135.9 M 405.9 109.8 L 409.9 113.8 M 409.9 109.8 L 405.9 113.8 M 108.0 179.3 L 112.0 183.3 M 112.0 179.3 L 108.0 183.3 M 158.4 130.2 L 162.4 134.2 M 162.4 130.2 L 158.4 134.2 M 193.6 149.1 L 197.6 153.1 M 197.6 149.1 L 193.6 153.1 M 224.6 177.8 L 228.6 181.8 M 228.6 177.8 L 224.6 181.8 M 194.4 564.8 L 198.4 568.8 M 198.4 564.8 L 194.4 568.8 M 182.7 662.9 L 186.7 666.9 M 186.7 662.9 L 182.7 666.9 M 118.0 709.8 L 122.0 713.8 M 122.0 709.8 L 118.0 713.8 M 225.5 420.7 L 229.5 424.7 M 229.5 420.7 L 225.5 424.7"
       id="marqueV_001"
       stroke="green" />
    <path
       d="M 286.2 352.5 L 287.7 351.8 L 289.9 349.5 L 289.9 365.3"
       id="titre_1"
       stroke="indigo" />
  </g>
</svg>
