<?xml version="1.0" encoding="UTF-8" standalone="no"?>
<svg
   height="841.88977pt"
   viewBox="0 0 532.99998 754.00001"
   width="595.27557pt"
   version="1.1"
   id="svg1"
   sodipodi:docname="Citrouille136_H20_C2x2.svg"
   inkscape:version="1.3 (0e150ed6c4, 2023-07-21)"
   xmlns:inkscape="http://www.inkscape.org/namespaces/inkscape"
   xmlns:sodipodi="http://sodipodi.sourceforge.net/DTD/sodipodi-0.dtd"
   xmlns="http://www.w3.org/2000/svg"
   xmlns:svg="http://www.w3.org/2000/svg">
  <defs
     id="defs1" />
  <sodipodi:namedview
     id="namedview1"
     pagecolor="#ffffff"
     bordercolor="#000000"
     borderopacity="0.25"
     inkscape:showpageshadow="2"
     inkscape:pageopacity="0.0"
     inkscape:pagecheckerboard="0"
     inkscape:deskcolor="#d1d1d1"
     inkscape:document-units="mm"
     showgrid="false"
     inkscape:zoom="0.54136883"
     inkscape:cx="1114.7668"
     inkscape:cy="588.32349"
     inkscape:window-width="1920"
     inkscape:window-height="1057"
     inkscape:window-x="-8"
     inkscape:window-y="-8"
     inkscape:window-maximized="1"
     inkscape:current-layer="svg1" />
  <style
     type="text/css"
     id="style1"><![CDATA[
			path {
				fill: none;
			}
		]]></style>
  <g
     id="page_001">
    <path
       d="m 46.2,328.5 -4.2,-3 v 4.5 m 4.2,-1.5 h -6.3 m 33.2,30 v -0.3 l 0.3,-0.6 0.3,-0.3 0.6,-0.3 1.2,0.1 0.6,0.3 0.3,0.3 0.3,0.6 v 0.6 l -0.4,0.6 -0.6,0.9 -3,2.9 4.2,0.1 m 23.9,-17.6 0.4,0.8 1,0.5 1.5,0.1 0.9,-0.2 1.4,-0.5 0.8,-0.7 0.2,-0.9 -0.1,-0.6 -0.4,-0.9 -1,-0.4 -1.5,-0.1 -0.9,0.1 -1.5,0.5 -0.8,0.8 -0.1,0.9 v 0.4 m -64.5,-94.3 -0.7,-2.9 -2.7,0.3 0.4,0.2 0.5,0.8 0.2,0.9 -0.1,1 -0.4,0.7 -0.8,0.5 -0.6,0.1 h -0.9 l -0.8,-0.5 -0.5,-0.8 -0.2,-0.8 0.1,-1 0.2,-0.4 0.5,-0.4 m 25.7,-22.7 0.2,0.6 0.9,0.5 0.6,0.1 0.9,-0.2 0.7,-0.8 0.6,-1.4 0.2,-1.5 -0.1,-1.2 -0.5,-0.7 -0.8,-0.5 h -0.3 l -1,0.1 -0.7,0.5 -0.4,0.9 v 0.3 l 0.1,0.9 0.5,0.7 0.8,0.4 0.3,0.1 1,-0.2 0.7,-0.5 0.4,-0.8 m 56,12.8 -3.3,-0.4 2.1,-2.1 -0.9,-0.2 -0.5,-0.3 -0.3,-0.4 -0.1,-0.9 0.1,-0.6 0.4,-0.9 0.7,-0.5 0.9,-0.1 0.9,0.1 0.8,0.4 0.3,0.3 0.2,0.7 m 9.7,81.6 -0.8,0.3 -0.6,0.9 -0.3,1.5 v 0.9 l 0.3,1.5 0.6,0.9 0.9,0.3 h 0.6 l 0.9,-0.3 0.6,-0.9 0.3,-1.5 v -0.9 l -0.3,-1.5 -0.6,-0.9 -1,-0.3 h -0.4 m 7.4,-34.8 -0.4,-0.5 -1.1,-0.7 6.2,-1.3 M 493,167.6 l -0.2,0.3 -0.5,0.4 -0.4,0.1 h -0.7 l -1,-0.6 -0.4,-0.5 -0.2,-0.4 v -0.7 l 0.3,-0.5 0.6,-0.4 0.9,-0.5 4.1,-1.3 -3.8,-2 m -3.2,3.9 h -0.6 l -1.3,0.4 2.9,-5.6 m -128.2,88.3 -0.1,0.7 0.2,1.2 -5.2,-3.5 m 2.5,8 -3.5,-6 m 5.9,2.5 -2.4,3.5 m -17.3,-155.6 1.3,-5 -4.2,1.7 m 2.9,3.3 -2.3,-5.8 m -1.8,7.4 0.7,-0.6 0.2,-1 -0.3,-1.5 -0.3,-0.9 -0.8,-1.2 -0.9,-0.7 -1,0.1 -0.5,0.2 -0.7,0.6 -0.3,1.1 0.3,1.5 0.3,0.8 0.9,1.3 0.9,0.6 h 0.9 l 0.4,-0.2 m -3.1,127.1 0.4,-0.5 0.4,-1.2 2.7,5.7 m 2,-8.1 -0.1,6.9 m -3.8,-5.2 3.9,-1.7 m -64.2,-93 -0.3,0.6 -0.1,1.3 -3.8,-5.1 m -0.5,7.3 0.6,0.3 0.9,-0.3 0.5,-0.3 0.6,-0.8 -0.1,-1.1 -0.7,-1.4 -0.9,-1.2 -0.9,-0.7 -0.9,-0.2 -0.9,0.3 -0.2,0.2 -0.5,0.8 -0.2,0.8 0.3,0.9 0.2,0.3 0.8,0.5 0.8,0.1 0.9,-0.3 0.3,-0.1 0.5,-0.8 0.1,-0.9 -0.3,-0.9 m -16.3,96.5 0.6,-0.2 1.1,-0.6 -1.7,6.1 m 6.4,-5 -2.9,-0.8 -1.1,2.5 0.4,-0.2 h 1 l 0.8,0.2 0.8,0.5 0.4,0.8 0.1,0.9 -0.2,0.6 -0.5,0.8 -0.8,0.4 -0.9,0.1 -0.9,-0.3 -0.8,-0.5 -0.2,-0.4 -0.1,-0.7 m -88.1,-28.2 0.6,-0.1 1.1,-0.6 -1.6,6.1 m 5.8,-5.3 -3.9,3.3 4.3,1.2 m -0.4,-4.5 -1.6,6.1 m -13.7,-160.5 -3.1,-1 2.4,-1.8 -0.8,-0.2 -0.5,-0.5 -0.2,-0.4 v -0.9 l 0.2,-0.6 0.5,-0.8 0.8,-0.4 h 0.9 l 0.9,0.3 0.7,0.5 0.2,0.4 0.1,0.7 m -9.8,1.3 0.1,0.7 0.8,0.5 0.6,0.2 h 0.9 l 0.9,-0.7 0.7,-1.3 0.5,-1.5 v -1.2 l -0.3,-0.8 -0.8,-0.5 -0.3,-0.1 h -0.9 l -0.8,0.4 -0.6,0.8 v 0.3 0.9 l 0.4,0.8 0.7,0.5 0.3,0.1 h 1 l 0.7,-0.4 0.6,-0.8 m -65.7,15.1 -2.5,2.2 -0.2,-3 -0.7,0.6 -0.6,0.1 H 85.8 L 85,57.5 84.6,57.1 84.3,56.2 v -0.9 l 0.5,-0.8 0.7,-0.6 0.8,-0.3 h 0.5 l 0.6,0.2 m -2,6.6 0.2,0.2 0.1,0.7 v 0.4 l -0.3,0.6 -0.9,0.8 -0.6,0.2 h -0.4 l -0.7,-0.3 -0.3,-0.4 -0.2,-0.7 -0.2,-1.1 0.3,-4.2 -3.1,2.8 m -4.6,130.5 0.6,-0.2 0.9,-0.9 -0.4,6.3 m 1.4,-5 0.6,-0.3 1,-0.8 -0.4,6.3 m -35.6,-59 -0.8,3.2 -1.9,-2.3 -0.2,0.9 -0.5,0.5 -0.3,0.2 h -1 l -0.5,-0.1 -0.8,-0.5 -0.5,-0.8 v -0.9 l 0.2,-0.9 0.5,-0.8 0.4,-0.2 0.6,-0.1 m 3.2,8.2 -0.1,-1 -0.7,-0.8 -1.4,-0.6 -0.9,-0.3 -1.5,-0.1 -1,0.4 -0.5,0.8 -0.2,0.6 0.1,0.9 0.7,0.8 1.4,0.7 0.8,0.2 1.6,0.1 1,-0.3 0.5,-0.8 0.1,-0.5 m 200.2,-56.1 -2.8,-1.7 2.7,-1.2 -0.7,-0.4 -0.4,-0.6 -0.1,-0.4 0.2,-0.9 0.3,-0.5 0.7,-0.7 0.8,-0.2 1,0.2 0.7,0.5 0.7,0.7 0.1,0.4 -0.1,0.7 m -10.7,-0.4 5.8,-3.9 m -2.1,6 -3.7,-2.1 m 22.9,39.5 0.1,-0.7 -0.1,-1.3 4.8,4.2 m -1.1,-7.3 -0.7,-0.2 -0.8,0.5 -0.4,0.5 -0.3,0.9 0.2,1 1,1.2 1.1,1 1.1,0.6 0.8,-0.1 0.9,-0.5 0.2,-0.2 0.3,-0.9 v -0.8 l -0.5,-0.8 -0.2,-0.2 -0.9,-0.4 -0.9,0.1 -0.8,0.4 -0.2,0.3 -0.3,0.8 v 0.9 l 0.5,0.8 m 168,-73.8 -0.2,-5.2 -3.6,2.8 m 3.8,2.4 -3.9,-5 m 1.3,6.9 -2.6,2.1 v -3 l -0.7,0.5 -0.7,0.2 -0.4,-0.1 -0.8,-0.5 -0.4,-0.5 -0.3,-0.9 0.1,-0.8 0.5,-0.8 0.7,-0.6 0.9,-0.3 0.5,0.1 0.6,0.3 m 55.5,70.6 -0.7,5.1 4,-2 m -3.3,-3.1 2.9,5.6 m 2.3,-8.2 -0.8,5.1 4,-2.1 m -3.2,-3 2.9,5.6 m -130.6,262.7 -2.4,-1.9 -1.9,2 0.4,-0.1 0.9,0.3 0.7,0.6 0.5,0.8 0.1,0.8 -0.3,0.9 -0.4,0.5 -0.8,0.5 -0.8,0.1 -0.9,-0.3 -0.7,-0.6 -0.5,-0.8 -0.1,-0.4 0.2,-0.7 m 9.6,2.4 0.1,-0.7 -0.5,-0.8 -0.5,-0.4 -0.9,-0.3 -1,0.3 -1.2,1 -0.9,1.2 -0.5,1.1 0.1,0.9 0.5,0.7 0.2,0.2 0.9,0.4 0.9,-0.1 0.8,-0.5 0.1,-0.3 0.4,-0.9 -0.1,-0.8 -0.5,-0.8 -0.3,-0.2 -0.9,-0.3 -0.8,0.1 -0.8,0.5 m -68.9,-95.8 -0.5,0.3 -0.8,1 -0.6,-6.3 m -4.1,6.9 2.9,-0.2 0.1,-2.8 -0.3,0.4 -0.8,0.4 H 281 l -1,-0.2 -0.6,-0.5 -0.4,-0.9 v -0.6 l 0.2,-0.9 0.5,-0.7 0.9,-0.3 0.9,-0.1 0.9,0.2 0.3,0.3 0.4,0.5 m -76.7,26.7 -0.3,0.6 -0.2,1.3 -3.7,-5.2 m 0.3,7.9 v -5.2 l -3.6,2.6 m 3.6,2.6 -3.6,-5.2 m 13.3,70 0.6,0.3 1.3,0.2 -5.1,3.7 m 7,-1.4 -0.8,-0.6 -1.1,0.1 -1.4,0.6 -0.7,0.5 -1.1,1.1 -0.3,1 0.2,0.9 0.4,0.5 0.7,0.6 h 1.1 l 1.4,-0.7 0.8,-0.5 1,-1.1 0.4,-1 -0.3,-0.9 -0.2,-0.4 m 125,15.8 1.9,2.3 2.3,-1.5 h -0.5 l -0.8,-0.5 -0.5,-0.7 -0.4,-0.9 0.1,-0.8 0.5,-0.8 0.4,-0.4 0.9,-0.4 0.9,0.1 0.8,0.5 0.6,0.7 0.3,0.9 v 0.4 l -0.3,0.6 m -9,-4.2 -0.2,0.6 0.3,0.9 0.4,0.5 0.8,0.5 1.1,-0.1 1.3,-0.8 1.2,-0.9 0.7,-1 0.1,-0.9 -0.4,-0.9 -0.1,-0.2 -0.9,-0.5 -0.8,-0.1 -0.9,0.4 -0.2,0.2 -0.5,0.8 -0.1,0.8 0.4,0.9 0.1,0.2 0.9,0.5 0.8,0.1 0.9,-0.3 m 13.4,74.8 -0.2,-0.7 -0.7,-1.1 6.2,1.3 m -244.2,39.6 -7,0.2 m 5.1,-3.9 1.9,3.7 m 118.2,49.1 0.6,0.7 0.2,0.8 -0.2,0.9 -0.2,0.3 -0.7,0.6 -0.8,0.2 -0.9,-0.2 -0.3,-0.1 -0.6,-0.7 -0.2,-0.9 0.2,-0.9 0.1,-0.2 0.7,-0.7 0.9,-0.2 1.2,0.4 1.2,0.7 1.2,1.1 0.4,0.9 -0.2,1 -0.3,0.5 -0.7,0.6 h -0.7 m -134.2,76.9 0.1,-0.9 -0.4,-0.6 -0.5,-0.2 h -0.7 l -0.5,0.4 -0.8,0.9 -0.7,0.7 -0.8,0.2 h -0.7 l -0.8,-0.4 -0.4,-0.5 -0.1,-0.4 0.1,-0.9 0.6,-1.1 0.6,-0.7 0.4,-0.1 h 0.7 l 0.8,0.4 0.4,0.5 0.3,0.8 -0.2,1 -0.2,1.2 v 0.6 l 0.4,0.6 0.5,0.3 h 0.7 l 0.7,-0.7 0.6,-1.2 m 89.5,-229.1 -0.6,-0.2 -1.3,0.2 3.8,-5 m -6.3,3.4 0.9,0.3 1,-0.3 1.2,-1.1 0.5,-0.7 0.7,-1.4 v -1 l -0.5,-0.8 -0.5,-0.4 -0.9,-0.3 -1,0.4 -1.1,1 -0.6,0.7 -0.6,1.4 -0.1,1.1 0.5,0.8 0.4,0.2 m -69.5,3.4 v 0.7 l 0.4,1.2 -5.6,-2.8 m 4.1,3.2 v 0.7 l 0.4,1.2 -5.6,-2.8 m 103.5,238 -0.4,-0.6 -1.1,-0.7 6.2,-1.2 m -5.3,-0.6 h -0.2 l -0.7,-0.2 -0.4,-0.2 -0.4,-0.5 -0.2,-1.2 0.2,-0.6 0.2,-0.4 0.5,-0.4 0.6,-0.1 0.6,0.1 1.1,0.4 3.5,2.4 -0.9,-4.1 m -43.6,71.5 2.6,-2 v 3 l 0.7,-0.5 0.7,-0.1 h 0.4 l 0.8,0.6 0.4,0.4 0.3,0.9 -0.2,0.9 -0.5,0.8 -0.7,0.5 -0.9,0.3 -0.4,-0.1 -0.6,-0.3 m 1.6,-7.6 2.7,-2 v 3 l 0.7,-0.5 0.6,-0.2 0.5,0.1 0.8,0.5 0.3,0.5 0.3,0.9 -0.1,0.9 -0.5,0.7 -0.8,0.6 -0.9,0.3 -0.4,-0.1 -0.6,-0.3 m -85.8,8 3,1.4 -2.7,1.4 0.9,0.4 0.4,0.5 0.1,0.4 -0.1,1 -0.3,0.5 -0.6,0.7 -0.8,0.3 -1,-0.1 -0.8,-0.4 -0.7,-0.7 -0.1,-0.4 v -0.6 m 9.9,-1 -4.5,2.5 4,1.9 m 0.5,-4.4 -2.7,5.6 m 156.9,-162.6 -0.8,-0.5 -0.4,-0.8 v -0.9 l 0.1,-0.3 0.5,-0.8 0.7,-0.4 h 1 l 0.3,0.1 0.8,0.6 0.4,0.7 v 0.9 l -0.1,0.3 -0.6,0.8 -0.7,0.4 -1.2,-0.1 -1.5,-0.4 -1.3,-0.7 -0.7,-0.9 v -0.9 l 0.1,-0.6 0.6,-0.7 0.7,-0.2 m 23.9,42.2 0.6,-0.3 0.8,-1 0.4,6.3 m 1.3,-6.6 3.3,-0.2 -1.6,2.5 0.9,-0.1 0.6,0.3 0.3,0.2 0.4,0.9 v 0.6 l -0.2,0.9 -0.6,0.7 -0.9,0.3 -0.9,0.1 -0.9,-0.2 -0.3,-0.3 -0.4,-0.6 m 88.9,-85.7 -3.2,-0.5 2.1,-2.1 -0.9,-0.1 -0.5,-0.4 -0.3,-0.4 -0.1,-0.9 0.1,-0.6 0.4,-0.8 0.7,-0.5 0.9,-0.2 0.9,0.1 0.9,0.5 0.2,0.3 0.2,0.7 m 49.4,137.9 -0.4,-0.5 -1.1,-0.7 6.2,-1.3 m -6.9,-1.2 0.4,0.8 0.7,0.1 0.6,-0.1 0.5,-0.4 0.2,-0.7 v -1.2 l 0.1,-0.9 0.5,-0.7 0.5,-0.5 0.9,-0.1 0.6,0.1 0.4,0.3 0.5,0.8 0.2,1.2 -0.1,0.9 -0.2,0.3 -0.5,0.5 -0.9,0.2 -0.7,-0.2 -0.7,-0.5 -0.5,-0.8 -0.5,-1.1 -0.4,-0.5 -0.7,-0.2 -0.6,0.1 -0.5,0.4 -0.1,1 0.3,1.3 M 296.5,642 l -0.3,0.5 -0.4,1.3 -3.1,-5.5 m 1.7,6.5 -2.8,1.7 0.3,-3 -0.7,0.4 -0.7,0.1 -0.4,-0.1 -0.7,-0.7 -0.3,-0.5 -0.2,-0.9 0.2,-0.8 0.6,-0.7 0.8,-0.5 0.9,-0.2 0.5,0.1 0.5,0.4 m -20.8,49 0.5,0.4 1.2,0.4 -5.5,3 m 5.2,-1 0.3,-0.1 h 0.6 l 0.4,0.1 0.6,0.4 0.5,1 0.1,0.7 -0.2,0.4 -0.3,0.6 -0.6,0.2 -0.6,0.1 -1.1,-0.1 -4.1,-1.3 2,3.7 m 141.1,30.6 1.6,-2.9 1.2,2.7 0.5,-0.8 0.5,-0.4 0.4,-0.1 0.9,0.2 0.6,0.2 0.6,0.7 0.3,0.8 -0.2,1 -0.4,0.8 -0.7,0.6 -0.4,0.1 h -0.7 m 1.7,-9.5 0.7,0.6 0.2,0.9 -0.1,0.9 -0.2,0.3 -0.7,0.6 -0.8,0.3 -0.9,-0.2 -0.3,-0.1 -0.6,-0.7 -0.3,-0.8 0.2,-1 0.1,-0.2 0.7,-0.7 0.8,-0.2 1.2,0.3 1.4,0.7 1.1,0.9 0.5,1 -0.1,0.9 -0.3,0.5 -0.7,0.7 h -0.6 m -75.7,8.3 3.2,0.7 -2.3,2 0.9,0.2 0.5,0.4 0.2,0.3 0.1,1 -0.1,0.6 -0.5,0.8 -0.7,0.4 -1,0.1 -0.8,-0.2 -0.9,-0.5 -0.2,-0.3 -0.1,-0.7 m 7.8,-3.4 h -1 l -0.4,0.6 -0.1,0.6 0.1,0.6 0.5,0.4 1.1,0.6 0.9,0.5 0.4,0.7 0.2,0.6 -0.2,0.9 -0.4,0.5 -0.4,0.3 -0.9,0.1 -1.2,-0.3 -0.8,-0.5 -0.3,-0.3 -0.1,-0.7 0.2,-0.9 0.4,-0.5 0.7,-0.5 h 1 l 1.2,-0.1 0.6,-0.1 0.5,-0.6 0.1,-0.5 -0.2,-0.7 -0.8,-0.5 -1.3,-0.3 m 103.6,-131.5 0.6,-0.3 0.8,-1 0.6,6.3 m 4.6,-4.9 -0.2,0.9 -0.5,0.7 -0.9,0.4 h -0.3 l -0.9,-0.2 -0.7,-0.6 -0.4,-0.8 v -0.3 l 0.2,-1 0.6,-0.6 0.8,-0.4 h 0.3 l 1,0.2 0.6,0.5 0.4,1.2 0.2,1.5 -0.2,1.5 -0.5,1 -0.9,0.3 -0.6,0.1 -0.9,-0.2 -0.4,-0.6 M 419,405.3 V 405 l 0.3,-0.7 0.2,-0.3 0.6,-0.4 1.2,-0.1 0.6,0.3 0.3,0.2 0.4,0.6 v 0.6 l -0.2,0.6 -0.5,1 -2.7,3.3 4.2,-0.4 m 3.8,112 0.5,0.6 0.9,0.1 0.6,-0.2 0.8,-0.5 0.4,-1 v -1.5 l -0.3,-1.5 -0.6,-1.1 -0.7,-0.4 -0.9,-0.1 h -0.3 l -0.9,0.5 -0.4,0.7 -0.1,1 v 0.3 l 0.5,0.8 0.8,0.5 0.9,0.1 0.3,-0.1 0.8,-0.5 0.5,-0.7 0.1,-1 m 93.6,-13.7 3,-0.5 -0.2,-2.7 -0.2,0.3 -0.9,0.5 -0.8,0.2 -1,-0.2 -0.7,-0.5 -0.4,-0.8 -0.1,-0.6 0.1,-0.9 0.5,-0.7 0.8,-0.5 0.9,-0.1 1,0.1 0.3,0.2 0.4,0.6 m -8.4,6.6 1.9,-6.7 m 2.3,6 -4.2,0.7 m -56.4,112.9 -0.6,0.4 -0.8,1 -0.6,-6.3 m -4.6,4.9 0.2,-0.9 0.6,-0.7 0.8,-0.4 h 0.3 l 0.9,0.2 0.7,0.5 0.4,0.9 v 0.3 l -0.2,0.9 -0.5,0.7 -0.9,0.4 H 457 l -0.9,-0.2 -0.7,-0.5 -0.4,-1.2 -0.1,-1.5 0.1,-1.5 0.5,-1 0.9,-0.3 0.6,-0.1 0.9,0.2 0.3,0.6 m -22.1,37.4 0.5,0.5 1.1,0.6 -6.1,1.7 m 7,0.8 -0.5,-0.8 -0.7,-0.1 -0.5,0.1 -0.5,0.5 -0.2,0.6 0.1,1.3 -0.1,0.9 -0.4,0.8 -0.5,0.4 -0.9,0.3 -0.6,-0.2 -0.4,-0.2 -0.5,-0.8 -0.3,-1.1 v -1 l 0.2,-0.3 0.5,-0.5 0.9,-0.2 0.6,0.1 0.8,0.4 0.5,0.8 0.6,1.1 0.5,0.5 0.6,0.1 0.6,-0.2 0.5,-0.4 v -1 l -0.3,-1.3 M 656.9,486.9 v 0.3 l -0.3,0.6 -0.2,0.3 -0.6,0.4 -1.2,0.1 -0.6,-0.3 -0.4,-0.2 -0.3,-0.6 -0.1,-0.6 0.3,-0.6 0.5,-1 2.8,-3.2 -4.2,0.3 m -4.2,6.7 3,-0.3 v -2.7 l -0.2,0.3 -0.9,0.4 -0.9,0.1 -0.9,-0.2 -0.7,-0.6 -0.3,-0.9 -0.1,-0.6 0.2,-0.9 0.6,-0.6 0.9,-0.4 0.9,-0.1 0.9,0.3 0.3,0.2 0.3,0.6 m 27.1,13.4 -0.2,-0.3 v -0.6 l 0.1,-0.4 0.3,-0.6 1,-0.6 0.7,-0.1 0.4,0.1 0.6,0.3 0.3,0.6 0.1,0.6 -0.1,1.1 -0.9,4.1 3.5,-2.2 m 1.2,-7.1 -0.5,-0.3 -1,0.2 -0.5,0.3 -0.6,0.7 v 1.1 l 0.5,1.5 0.8,1.2 0.9,0.9 0.8,0.2 0.9,-0.2 0.3,-0.2 0.6,-0.7 0.2,-0.8 -0.2,-1 -0.2,-0.2 -0.7,-0.6 -0.8,-0.2 -1,0.2 -0.2,0.2 -0.6,0.7 -0.2,0.8 0.2,0.9 m -200.5,254.1 -2.5,4.5 4.4,-0.4 m -1.9,-4.1 0.7,6.3 m 2,-5.1 0.6,-0.3 0.8,-1 0.6,6.3 m -41.2,-29.1 -0.4,3.3 -2.2,-2.1 -0.1,0.9 -0.3,0.6 -0.4,0.2 -0.9,0.2 h -0.6 l -0.9,-0.4 -0.5,-0.7 -0.2,-0.9 0.1,-0.9 0.4,-0.9 0.4,-0.2 0.6,-0.3 m 1.9,9.6 -0.9,-0.4 -0.5,-0.7 -0.2,-0.9 V 734 l 0.5,-0.9 0.6,-0.5 0.9,-0.2 h 0.3 l 0.9,0.4 0.5,0.7 0.2,0.9 v 0.3 l -0.4,0.9 -0.7,0.5 -1.2,0.2 -1.5,-0.2 -1.4,-0.5 -0.9,-0.7 -0.2,-0.9 0.1,-0.6 0.4,-0.9 0.6,-0.2 m 148.2,-43.5 5.1,0.9 -1.9,-4 m -3.2,3.1 5.7,-2.7 m -6.5,-4.1 0.9,-0.2 0.8,0.3 0.7,0.7 0.1,0.3 0.1,0.9 -0.3,0.8 -0.7,0.7 -0.2,0.1 -1,0.1 -0.8,-0.3 -0.6,-0.6 -0.2,-0.3 -0.1,-1 0.3,-0.8 1,-0.7 1.3,-0.7 1.5,-0.3 1.1,0.1 0.6,0.7 0.3,0.5 0.1,1 -0.4,0.5 m -22.1,46.9 -1.1,5 4.1,-1.8 m -3,-3.2 2.5,5.8 m 3.6,-7.4 -0.5,-0.5 -1,0.1 -0.5,0.3 -0.7,0.6 -0.2,1.1 0.3,1.5 0.6,1.3 0.8,1 0.8,0.3 0.9,-0.1 0.3,-0.1 0.7,-0.6 0.3,-0.8 -0.1,-1 -0.1,-0.2 -0.7,-0.7 -0.7,-0.3 h -1 l -0.3,0.2 -0.7,0.6 -0.3,0.8 0.1,0.9 m 95.3,-170.2 2.1,2.1 2.1,-1.8 h -0.4 l -0.9,-0.4 -0.6,-0.6 -0.4,-0.8 v -0.9 l 0.4,-0.8 0.4,-0.5 0.8,-0.4 h 0.9 l 0.8,0.4 0.7,0.6 0.4,0.9 v 0.4 l -0.2,0.6 m -9.7,-2.2 5.1,-0.9 -3.2,-3.2 m -1.9,4.1 4.4,-4.5 m -34.5,53.2 -2.7,1.3 0.9,2.6 0.1,-0.4 0.7,-0.7 0.8,-0.4 1,-0.1 0.8,0.3 0.6,0.7 0.3,0.6 0.1,0.9 -0.3,0.8 -0.7,0.7 -0.8,0.3 -1,0.1 -0.4,-0.1 -0.5,-0.4 m 4.4,-7.7 -0.7,0.7 -0.2,1.1 0.4,1.5 0.3,0.8 1,1.2 0.9,0.6 0.9,-0.1 0.6,-0.3 0.7,-0.6 0.1,-1.1 -0.3,-1.5 -0.4,-0.8 -0.9,-1.2 -0.9,-0.6 -1,0.1 -0.4,0.2 m -139.8,-588 0.3,0.6 0.9,0.3 h 0.6 l 0.9,-0.2 0.6,-0.9 0.4,-1.5 v -1.5 l -0.3,-1.2 -0.5,-0.6 -0.9,-0.4 h -0.3 l -0.9,0.3 -0.7,0.6 -0.3,0.9 v 0.3 l 0.3,0.9 0.6,0.6 0.9,0.3 h 0.3 l 0.9,-0.2 0.6,-0.6 0.3,-0.9 m -8.7,4 h 3 l 0.3,-2.7 -0.3,0.3 -0.9,0.3 h -0.9 l -0.9,-0.3 -0.6,-0.6 -0.2,-0.9 v -0.6 l 0.3,-0.9 0.6,-0.6 0.9,-0.3 h 0.9 l 0.9,0.3 0.3,0.3 0.3,0.7 m 59.2,84.5 -3.2,4 4.5,0.3 m -1.3,-4.3 -0.3,6.3 m 4.5,-6 -1,0.2 -0.3,0.6 v 0.6 l 0.2,0.6 0.6,0.4 1.2,0.3 0.9,0.4 0.6,0.6 0.2,0.6 v 0.9 l -0.4,0.6 -0.3,0.3 -0.9,0.3 -1.2,-0.1 -0.9,-0.4 -0.2,-0.3 -0.3,-0.6 v -0.9 l 0.4,-0.6 0.6,-0.5 0.9,-0.3 1.2,-0.2 0.6,-0.3 0.4,-0.6 v -0.6 l -0.3,-0.6 -0.8,-0.3 -1.4,-0.1 m 6,-61.6 2.7,1.4 1.5,-2.3 -0.4,0.1 -1,-0.1 -0.8,-0.4 -0.6,-0.7 -0.3,-0.8 0.1,-1 0.3,-0.5 0.7,-0.7 0.8,-0.2 0.9,0.1 0.8,0.4 0.7,0.7 0.1,0.4 v 0.7 m -6.8,0.5 -0.2,0.3 -0.5,0.4 -0.4,0.1 h -0.7 L 564.1,36 563.7,35.4 563.6,35 v -0.6 l 0.3,-0.6 0.5,-0.4 1,-0.5 4,-1.3 -3.7,-1.9 m 79,84.7 0.1,-0.3 0.4,-0.5 0.4,-0.2 0.6,-0.2 1.2,0.3 0.5,0.5 0.2,0.3 0.1,0.7 -0.1,0.6 -0.5,0.5 -0.8,0.7 -3.6,2.1 4,1.1 m 6,-2.7 -0.5,0.8 -0.8,0.4 h -0.9 -0.3 l -0.8,-0.6 -0.4,-0.7 -0.1,-1 0.1,-0.2 0.5,-0.8 0.8,-0.5 h 0.9 l 0.3,0.1 0.8,0.5 0.4,0.7 v 1.3 l -0.4,1.4 -0.7,1.4 -0.8,0.7 -1,0.1 -0.5,-0.2 -0.8,-0.5 -0.2,-0.7 m 29.5,-37.5 0.3,2.9 h 2.7 l -0.3,-0.2 -0.4,-0.9 -0.1,-0.9 0.2,-0.9 0.5,-0.7 0.9,-0.4 h 0.6 l 0.9,0.2 0.7,0.5 0.4,0.9 0.1,0.9 -0.2,0.9 -0.3,0.3 -0.6,0.4 m -5.7,-5.4 -0.3,-3.3 2.6,1.6 -0.1,-0.9 0.2,-0.6 0.3,-0.4 0.8,-0.4 h 0.6 l 0.9,0.2 0.7,0.5 0.4,0.9 0.1,0.9 -0.2,0.9 -0.3,0.3 -0.5,0.4 m -36.8,-36.1 2.9,-0.9 -0.5,-2.7 -0.2,0.4 -0.8,0.5 -0.8,0.3 h -1 l -0.7,-0.4 -0.6,-0.8 -0.1,-0.6 v -0.9 l 0.4,-0.8 0.8,-0.5 0.9,-0.3 h 0.9 l 0.4,0.2 0.4,0.5 m -7.1,7.5 2.9,-0.9 -0.5,-2.7 -0.2,0.4 -0.8,0.6 -0.8,0.2 h -1 l -0.7,-0.4 -0.6,-0.8 -0.1,-0.6 V 40 l 0.4,-0.8 0.8,-0.5 0.8,-0.3 1,0.1 0.4,0.2 0.4,0.5 M 458.2,278.4 v -0.3 l 0.5,-0.5 0.4,-0.2 0.6,-0.1 1.2,0.3 0.5,0.4 0.2,0.4 0.1,0.7 -0.2,0.5 -0.4,0.5 -0.8,0.8 -3.7,2 4,1.2 m 4.6,-5.3 h -1 l -0.8,0.7 -0.7,1.4 -0.2,0.9 -0.1,1.5 0.3,1 0.8,0.6 0.6,0.1 h 0.9 l 0.8,-0.7 0.7,-1.4 0.3,-0.9 0.1,-1.5 -0.4,-1 -0.8,-0.6 -0.4,-0.1 m 86.1,-49.3 -0.2,0.1 -0.7,0.1 -0.4,-0.2 -0.6,-0.3 -0.5,-1.1 -0.1,-0.7 0.1,-0.4 0.4,-0.5 0.5,-0.3 h 0.7 1.1 l 4.1,1.2 -2.1,-3.7 m -6.3,1.6 -1.6,-2.9 2.9,0.4 -0.4,-0.8 v -0.6 l 0.1,-0.4 0.6,-0.7 0.6,-0.3 0.9,-0.2 0.8,0.2 0.7,0.7 0.4,0.7 0.2,1 -0.1,0.4 -0.4,0.5 m -18.5,53.6 -0.1,-0.3 V 276 l 0.2,-0.4 0.4,-0.5 1.1,-0.5 h 0.7 l 0.4,0.1 0.5,0.4 0.2,0.6 v 0.7 l -0.1,1 -1.5,4 3.8,-1.7 m 1.3,-7.6 -1,5.1 4.1,-1.9 m -3.1,-3.2 2.6,5.7 m -80.2,18.6 -0.1,0.3 -0.5,0.5 -0.4,0.2 -0.6,0.1 -1.2,-0.4 -0.4,-0.5 -0.2,-0.4 -0.1,-0.6 0.2,-0.6 0.4,-0.5 0.9,-0.7 3.8,-1.8 -4,-1.4 m -4.8,5.1 h 1 l 0.8,-0.7 0.8,-1.3 0.3,-0.9 0.2,-1.5 -0.3,-1 -0.8,-0.6 -0.5,-0.2 h -1 l -0.9,0.7 -0.7,1.3 -0.3,0.8 -0.2,1.6 0.3,1 0.7,0.6 0.5,0.1 m 92.3,15 v 0.3 l -0.3,0.6 -0.3,0.3 -0.6,0.3 -1.2,-0.1 -0.6,-0.3 -0.3,-0.3 -0.3,-0.6 v -0.6 l 0.4,-0.6 0.6,-0.9 3.1,-2.9 -4.2,-0.1 m -4.5,6.2 3.1,-4.1 -4.5,-0.1 m 1.4,4.2 0.2,-6.3 m 46.2,46.1 -0.3,0.1 -0.6,-0.2 -0.4,-0.2 -0.4,-0.6 -0.2,-1.1 0.2,-0.7 0.2,-0.3 0.5,-0.4 0.6,-0.2 0.7,0.2 1,0.5 3.5,2.4 -0.8,-4.2 m -7.2,-3.9 6.8,1.8 m -6,2.3 -0.8,-4.1 m -43.1,120.7 -2.9,0.8 0.4,2.7 0.2,-0.4 0.8,-0.5 0.8,-0.2 h 1 l 0.7,0.5 0.5,0.8 0.2,0.5 -0.1,1 -0.4,0.7 -0.8,0.5 -0.9,0.3 -0.9,-0.1 -0.4,-0.2 -0.4,-0.5 m 7.8,-7.3 -1.3,6.8 m -2.8,-5.8 4.1,-1 m -91,4.7 -2.9,-0.8 -1,2.6 0.4,-0.3 h 1 l 0.8,0.2 0.8,0.6 0.4,0.7 0.1,0.9 -0.2,0.6 -0.5,0.8 -0.7,0.4 -1,0.1 -0.8,-0.3 -0.8,-0.5 -0.2,-0.3 -0.2,-0.7 m -8.2,-29.2 -1.3,-5 -2.9,3.5 m 4.2,1.5 -4.9,-4 m 230.7,4.6 v -0.3 l 0.2,-0.7 0.2,-0.3 0.6,-0.4 1.2,-0.1 0.6,0.2 0.4,0.3 0.3,0.5 0.1,0.6 -0.2,0.7 -0.5,0.9 -2.7,3.4 4.2,-0.5 m 4,-6.8 -3,0.3 v 2.7 l 0.3,-0.3 0.8,-0.4 0.9,-0.1 1,0.2 0.6,0.5 0.4,0.9 0.1,0.6 -0.2,0.9 -0.5,0.7 -0.9,0.4 -0.9,0.1 -0.9,-0.2 -0.3,-0.3 -0.4,-0.5 M 747,400 h -0.3 l -0.6,-0.4 -0.3,-0.3 -0.2,-0.6 0.1,-1.2 0.4,-0.6 0.3,-0.3 0.6,-0.2 0.6,0.1 0.6,0.3 0.8,0.7 2.7,3.3 0.4,-4.2 m -6,-3.2 0.3,0.9 0.5,0.3 0.6,0.1 0.6,-0.2 0.4,-0.6 0.4,-1.2 0.4,-0.8 0.7,-0.6 0.6,-0.2 0.9,0.1 0.6,0.4 0.2,0.3 0.2,0.9 -0.1,1.2 -0.4,0.9 -0.3,0.2 -0.6,0.3 -0.9,-0.1 -0.6,-0.4 -0.5,-0.6 -0.2,-1 -0.2,-1.2 -0.2,-0.6 -0.6,-0.4 h -0.6 l -0.6,0.2 -0.4,0.9 -0.2,1.3 M 625,347 l 0.3,0.1 0.4,0.6 0.2,0.4 v 0.6 l -0.5,1.1 -0.5,0.4 -0.4,0.2 h -0.7 l -0.6,-0.2 -0.4,-0.5 -0.5,-1 -1.5,-3.9 -1.8,3.8 m 3.6,7.3 -4.5,-5.3 m 6.2,1.5 -1.7,3.8 m 127.8,-44.8 -0.3,0.1 -0.6,-0.3 -0.3,-0.3 -0.3,-0.6 -0.1,-1.2 0.3,-0.6 0.3,-0.3 0.6,-0.3 0.6,-0.1 0.6,0.3 0.9,0.6 3.1,2.8 -0.2,-4.1 m -4.4,-4.9 1,0.2 0.6,0.6 0.3,0.9 v 0.3 l -0.2,0.9 -0.6,0.6 -0.9,0.4 h -0.3 l -0.9,-0.3 -0.6,-0.6 -0.4,-0.8 v -0.3 l 0.3,-1 0.6,-0.6 1.1,-0.3 1.5,-0.1 1.6,0.3 0.9,0.5 0.3,0.9 v 0.6 l -0.2,0.9 -0.6,0.3 m -98.3,-43.5 0.3,0.1 0.5,0.5 0.2,0.3 0.1,0.7 -0.4,1.1 -0.4,0.5 -0.4,0.2 -0.6,0.1 -0.6,-0.1 -0.5,-0.5 -0.7,-0.8 -2,-3.8 -1.2,4.1 m 5.5,3.4 -0.9,3.2 -1.8,-2.4 -0.3,0.8 -0.4,0.5 -0.4,0.2 -1,0.1 -0.5,-0.2 -0.8,-0.6 -0.4,-0.7 v -1 l 0.2,-0.8 0.6,-0.8 0.3,-0.2 0.7,-0.1 m 89.5,-44.5 4.7,2.3 -0.8,-4.4 m -3.9,2.1 6.3,-1 m -6.9,-3.1 0.5,0.8 0.6,0.2 0.6,-0.1 0.6,-0.4 0.2,-0.6 0.1,-1.2 0.1,-1 0.5,-0.6 0.6,-0.4 0.8,-0.2 0.7,0.2 0.3,0.3 0.5,0.8 0.2,1.2 -0.2,0.9 -0.2,0.4 -0.6,0.4 -0.9,0.1 -0.6,-0.2 -0.7,-0.5 -0.4,-0.8 -0.5,-1.2 -0.4,-0.5 -0.7,-0.2 -0.6,0.1 -0.5,0.4 -0.2,0.9 0.3,1.3 M 679.7,172 h 0.3 l 0.5,0.5 0.3,0.3 0.1,0.7 -0.3,1.2 -0.4,0.5 -0.4,0.2 -0.6,0.1 -0.6,-0.1 -0.5,-0.4 -0.7,-0.8 -2.3,-3.6 -0.9,4.1 m 4.5,2.1 0.1,0.7 0.7,1.1 -6.1,-1.5 m 35.5,-15.5 4.9,-1.6 -3.6,-2.7 m -1.3,4.3 3.7,-5.1 m -8.4,1.7 4.9,-1.6 -3.6,-2.7 m -1.3,4.3 3.8,-5.1"
       id="nums_001"
       stroke="#000000"
       stroke-width="1" />
    <path
       d="m 98.9,225.7 33,4.7 18.7,90.8 -45.1,0.3 6.6,44.7 -74.2,-1.8 -0.1,-72.7 -19.7,-78.9 z m 437.6,-213.1 68.1,34.7 75.9,-22.4 11.6,109.2 -88.9,-23.9 -85.7,-4.7 -65.5,33.3 79.5,41.1 46.9,84 -74.8,34.1 -85.1,-23.6 83.7,28.1 82.2,2.4 15.3,81.6 34.3,-75.6 27.9,-92.1 20.3,-87.1 59.2,43.5 13.7,84.8 3.7,91.9 -9.2,87.9 -153.1,17.6 -105.8,28 -78.5,-21.2 46.5,-55.9 -73.9,6.9 -65.1,-52.3 53.4,64.2 -19.2,90.7 33,5.3 80,-17.6 107.7,-18.7 153.6,-12.5 -83.8,51.9 61.1,59.8 -127.4,58.9 35.7,76.2 -74.3,32.4 -104.7,10.7 7.5,-65.3 -23.4,-83.3 76.5,-8.2 -76.6,7 17.8,84.6 -30.9,58 -119.7,-26.7 -37.1,-68.8 81.7,-47 -94,6.3 30.9,-101.4 -54.3,91.1 16.1,76.5 -91.2,69 -82.3,-39.1 78,-154.9 -48.3,-96.6 51,-102.9 113.4,85.4 -82,-115.9 62.4,-43.6 102.5,-9.4 41.4,-62.2 -67.7,31.7 -99,-28.2 L 134,200.7 19.4,193.2 48,84.3 l 66.7,-58.6 85.3,27 83.1,49 -37.9,43.3 46.1,-34.5 89.5,-35.9 81.1,-63.8 z"
       id="coupes_001"
       stroke="#ff0000"
       stroke-width="1.27"
       sodipodi:nodetypes="cccccccccccccccccccccccccccccccccccccccccccccccccccccccccccccccccccccccccccccccccccc" />
    <path
       d="M 105.5,321.5 37.8,291.7 m 0,0 61.1,-66 m 0,0 6.6,95.8 m 0,0 -67.6,42.9 m 94,-134 -26.4,91.1 m 426,-141.6 -113,94.5 m -44.3,-57.6 77.8,-78 m -33.5,135.6 -44.3,-57.6 m 44.3,57.6 -85.7,4.6 m 48,-204.4 71.2,64.2 m -77.8,78 6.6,-142.2 m -6.6,142.2 -82.9,-106.3 m 15.2,138 L 245.2,145 M 207.5,220.3 245.2,145 M 200,52.7 245.2,145 M 207.5,220.3 200,52.7 m -66,148 66,-148 M 134,200.7 48,84.3 m 413.9,-73.5 55.6,94.7 m -99,168.9 -33.7,140.8 M 319.7,362.9 332.8,279 m -13.1,83.9 -89.4,-74.5 m 89.4,74.5 -69.8,85 m 123.2,-20.8 -123.2,20.8 m 104,69.9 -86.4,1.6 m 0,0 -17.6,-71.5 M 85.5,465.4 249.9,447.9 m 17.6,71.5 -133.7,42.6 m 79.4,48.5 -79.4,-48.5 m 220.1,-44.2 -23.3,96.7 m 56.3,-91.4 -56.3,91.4 m 56.3,-91.4 31.9,91.3 m 0,0 -88.2,0.1 m 106,84.5 -106,-84.5 M 436.6,699 286,730.3 m 0,0 44.6,-115.8 m 56.3,-91.4 108.5,84.3 m 79.2,-120.6 -79.2,120.6 m 79.2,-120.6 69.8,39.4 m 0,0 -66.3,118.7 m 0,0 -82.7,-37.5 m 82.7,37.5 -38.6,108.6 m -97.2,-54.6 53.1,-91.5 m 44.1,146.1 -97.2,-54.6 m 94.2,-686.3 -19,92.9 m 19,-92.9 66.7,97.6 M 531.5,179.9 503.6,298 m -1.4,4.5 -43.5,105.8 m 141,-21.8 -141,21.8 m 141,-21.8 -3.2,70.9 m 0,0 -137.8,-49.1 m 141,-21.8 149.9,53.3 M 599.7,386.5 758.8,351.9 m -124.8,-41 124.8,41 M 661.9,218.8 755.1,260 m -93.2,-41.2 79.5,-43.6"
       id="plisM_001"
       stroke="#a52a2a"
       stroke-dasharray="4" />
    <path
       d="M 418.5,274.4 452,138.8 M 306.5,248.5 291.3,110.5 M 134,200.7 114.7,25.7 M 461.9,10.8 452,138.8 M 384.8,415.2 332.8,279 M 319.7,362.9 167.9,332 m 186,185.8 -104,-69.9 m 17.6,71.5 -182,-54 M 213.2,610.5 55.8,716.9 M 229.3,687 55.8,716.9 m 298.1,-199.1 -117.3,103 m 181.9,-346.4 40.2,133.9 m 8.2,97.2 28.5,101.9 m 149,-81.2 -149,81.2 m 44.1,146.1 -44.1,-146.1 m 109.2,-560.1 -1.4,62.9 m 1.4,-62.9 87.5,86.8 M 584.4,304.9 458.7,408.3 m 32,77.1 -32,-77.1 M 634,310.9 755.1,260"
       id="plisV_001"
       stroke="#008000"
       stroke-dasharray="4, 1, 1, 1"
       stroke-width="1.27" />
    <path
       d="m 433.3,204.6 4,4 m 0,-4 -4,4 m -136.4,-31.1 4,4 m 0,-4 -4,4 m -174.6,-70.3 4,4 m 0,-4 -4,4 m 332.6,-42.4 4,4 m 0,-4 -4,4 m -98.1,268.3 4,4 m 0,-4 -4,4 m -115,-3.7 4,4 m 0,-4 -4,4 m 58.1,131.4 4,4 m 0,-4 -4,4 m -125.4,5.6 4,4 m 0,-4 -4,4 m -42,167.3 4,4 m 0,-4 -4,4 m 8,34.2 4,4 m 0,-4 -4,4 m 152.8,-136.6 4,4 m 0,-4 -4,4 m 143.3,-231.9 4,4 m 0,-4 -4,4 m 42.5,211.1 4,4 m 0,-4 -4,4 m 88.8,6.3 4,4 m 0,-4 -4,4 m -52.4,109.7 4,4 m 0,-4 -4,4 m 86.4,-605.7 4,4 m 0,-4 -4,4 m 44.4,7.9 4,4 m 0,-4 -4,4 m -126.7,261.9 4,4 m 0,-4 -4,4 m -46.9,86.3 4,4 m 0,-4 -4,4 m 219.8,-165.4 4,4 m 0,-4 -4,4"
       id="marqueV_001"
       stroke="#008000" />
    <path
       d="m 78.5,270.8 1.5,-0.8 2.2,-2.2 v 15.7"
       id="titre_1"
       stroke="#4b0082" />
    <path
       d="m 416.1,357.4 v -0.8 l 0.8,-1.5 0.7,-0.7 1.5,-0.8 h 3 l 1.5,0.8 0.8,0.7 0.7,1.5 v 1.5 l -0.7,1.5 -1.5,2.3 -7.5,7.5 h 10.5"
       id="titre_2"
       stroke="#4b0082" />
  </g>
  <g
     id="page_002">
    <path
       d="m 893.4,418.6 2.6,-1.5 -1.1,-2.5 -0.1,0.4 -0.6,0.7 -0.8,0.5 -0.9,0.1 -0.8,-0.2 -0.7,-0.6 -0.3,-0.6 -0.2,-0.9 0.2,-0.8 0.7,-0.7 0.7,-0.4 1,-0.2 0.4,0.1 0.5,0.4 m -3.5,7.8 0.7,-0.7 -0.1,-0.7 -0.3,-0.5 -0.5,-0.4 h -0.7 l -1.2,0.3 -0.9,0.2 -0.8,-0.2 -0.6,-0.4 -0.4,-0.8 v -0.7 l 0.1,-0.4 0.6,-0.7 1.1,-0.5 0.9,-0.2 0.4,0.1 0.6,0.4 0.4,0.8 v 0.6 l -0.2,0.9 -0.6,0.7 -0.9,0.8 -0.4,0.6 v 0.6 l 0.3,0.5 0.5,0.4 1,-0.2 1.2,-0.6 m -15.2,38.4 -1.7,-2.5 -2.4,1.3 0.5,0.1 0.7,0.5 0.5,0.8 0.3,0.9 -0.2,0.8 -0.5,0.8 -0.5,0.3 -0.9,0.3 -0.9,-0.2 -0.7,-0.5 -0.5,-0.8 -0.3,-0.9 0.1,-0.4 0.3,-0.6 m 7.7,5.9 -0.9,0.3 -0.8,-0.2 -0.8,-0.5 -0.2,-0.3 -0.2,-0.9 0.1,-0.8 0.6,-0.8 0.3,-0.2 0.9,-0.2 0.8,0.1 0.8,0.6 0.1,0.2 0.3,1 -0.2,0.8 -0.8,0.9 -1.2,0.9 -1.4,0.6 h -1.1 l -0.8,-0.6 -0.3,-0.5 -0.3,-0.9 0.4,-0.6 m 235.2,-159.2 -0.3,0.7 0.3,0.8 0.4,0.5 0.8,0.5 1.1,-0.1 1.4,-0.8 1.1,-0.9 0.7,-1 0.1,-0.9 -0.4,-0.9 -0.1,-0.2 -0.9,-0.5 h -0.8 l -0.9,0.3 -0.2,0.2 -0.5,0.8 -0.1,0.8 0.4,0.9 0.2,0.3 0.8,0.5 h 0.8 l 0.9,-0.3 m -5.3,-2 -0.6,-0.3 -1.3,-0.1 4.8,-4.1 m 63.8,239.4 -0.3,-0.1 -0.5,-0.4 -0.3,-0.4 -0.1,-0.6 0.2,-1.2 0.5,-0.5 0.3,-0.2 0.7,-0.2 0.5,0.1 0.6,0.4 0.7,0.8 2.3,3.6 0.9,-4.1 m -4.3,-2.7 h -0.3 l -0.5,-0.4 -0.3,-0.4 -0.1,-0.7 0.2,-1.1 0.4,-0.5 0.4,-0.3 0.7,-0.1 0.5,0.1 0.6,0.4 0.7,0.8 2.3,3.6 0.9,-4.1 m -181.8,36.8 -0.4,-0.6 -0.9,-0.2 -0.6,0.1 -0.9,0.4 -0.5,1 -0.1,1.5 0.2,1.5 0.4,1.1 0.7,0.5 0.9,0.2 h 0.3 l 0.9,-0.4 0.5,-0.7 0.2,-0.9 v -0.3 l -0.4,-0.9 -0.7,-0.5 -0.9,-0.2 -0.3,0.1 -0.9,0.4 -0.5,0.6 -0.2,1 m 5.2,-3.4 v -0.3 l 0.2,-0.6 0.3,-0.3 0.5,-0.4 1.2,-0.1 0.6,0.2 0.4,0.3 0.3,0.5 0.1,0.6 -0.2,0.6 -0.5,1 -2.6,3.3 4.1,-0.5 m 29.5,112.2 -0.1,-0.7 -0.8,-0.5 -0.5,-0.2 -1,0.1 -0.8,0.7 -0.7,1.3 -0.4,1.5 -0.1,1.2 0.4,0.7 0.8,0.6 0.3,0.1 1,-0.1 0.7,-0.4 0.5,-0.8 0.1,-0.3 v -0.9 l -0.4,-0.7 -0.8,-0.6 -0.3,-0.1 -1,0.1 -0.7,0.4 -0.5,0.8 m 9.4,-1.7 -2.9,-0.8 -1,2.5 0.4,-0.2 h 0.9 l 0.9,0.2 0.8,0.5 0.4,0.8 v 0.9 l -0.1,0.6 -0.6,0.8 -0.7,0.4 h -1 l -0.8,-0.2 -0.8,-0.5 -0.2,-0.4 -0.1,-0.7 m -52.4,-54.1 0.4,-0.5 -0.1,-1 -0.3,-0.5 -0.7,-0.7 -1.1,-0.1 -1.4,0.4 -1.4,0.7 -0.9,0.8 -0.3,0.8 0.2,0.9 0.1,0.3 0.7,0.7 0.8,0.2 0.9,-0.1 0.3,-0.1 0.7,-0.7 0.2,-0.8 -0.1,-1 -0.2,-0.2 -0.6,-0.7 -0.8,-0.3 -1,0.2 m 7.5,5.3 -5.1,-0.7 2.1,4 m 3,-3.3 -5.6,2.9 m 26.5,-51.4 0.4,0.5 1,0.1 0.6,-0.2 0.7,-0.6 0.4,-1 -0.2,-1.5 -0.4,-1.5 -0.7,-1 -0.7,-0.4 -0.9,-0.1 -0.3,0.1 -0.8,0.6 -0.4,0.7 v 1 0.3 l 0.6,0.7 0.7,0.4 1,0.1 0.3,-0.1 0.7,-0.6 0.4,-0.7 0.1,-1 m -4.6,4.2 0.1,0.3 -0.1,0.7 -0.2,0.4 -0.5,0.4 -1.1,0.4 -0.7,-0.2 -0.4,-0.2 -0.4,-0.4 -0.2,-0.6 0.1,-0.7 0.3,-1 2,-3.8 -4,1.3 m 198.4,-339.4 -0.3,0.6 0.3,0.9 0.4,0.4 0.7,0.6 1.1,-0.1 1.4,-0.6 1.2,-0.9 0.8,-1 0.1,-0.8 -0.3,-0.9 -0.2,-0.3 -0.8,-0.5 -0.8,-0.1 -0.9,0.3 -0.2,0.1 -0.6,0.8 -0.1,0.9 0.3,0.9 0.2,0.2 0.8,0.5 0.8,0.2 0.9,-0.3 m -6.7,-2 -2,-2.7 h 3 l -0.6,-0.7 -0.1,-0.6 0.1,-0.5 0.5,-0.7 0.5,-0.4 0.9,-0.3 0.9,0.1 0.7,0.6 0.6,0.7 0.3,0.9 -0.1,0.4 -0.3,0.6 m -80.4,49.3 0.3,-0.6 -0.3,-0.9 -0.4,-0.5 -0.8,-0.5 h -1.1 l -1.3,0.7 -1.2,0.9 -0.8,0.9 -0.1,0.9 0.3,0.9 0.1,0.2 0.8,0.6 0.9,0.1 0.9,-0.3 0.2,-0.2 0.5,-0.8 0.2,-0.8 -0.3,-0.9 -0.2,-0.3 -0.8,-0.5 -0.8,-0.1 -0.9,0.3 m 5.2,2.3 0.6,0.3 1.2,0.2 -5,3.7 m 30.7,-128.5 -0.3,0.6 0.2,0.9 0.3,0.5 0.7,0.7 h 1 l 1.5,-0.5 1.3,-0.7 0.9,-0.9 0.2,-0.8 -0.2,-0.9 -0.1,-0.3 -0.7,-0.6 -0.9,-0.2 -0.9,0.2 -0.2,0.1 -0.7,0.7 -0.2,0.8 0.2,1 0.1,0.2 0.7,0.7 0.9,0.2 0.9,-0.2 m -7.1,-3.8 0.7,0.6 1.1,0.1 1.5,-0.5 0.8,-0.5 1.1,-1 0.5,-1 -0.2,-0.9 -0.3,-0.5 -0.7,-0.6 -1.1,-0.1 -1.4,0.5 -0.8,0.4 -1.2,1 -0.4,1 0.1,0.9 0.3,0.4 m -74,34.6 1.2,3.1 -2.9,-0.8 0.4,0.9 -0.1,0.6 -0.1,0.4 -0.8,0.6 -0.5,0.3 h -1 l -0.7,-0.3 -0.7,-0.7 -0.3,-0.9 -0.1,-0.9 0.2,-0.4 0.5,-0.5 m 8,6.4 -1.1,-2.8 -2.6,0.7 0.4,0.2 0.6,0.7 0.3,0.8 0.1,1 -0.3,0.8 -0.8,0.6 -0.5,0.2 -1,0.1 -0.7,-0.4 -0.7,-0.7 -0.3,-0.8 -0.1,-1 0.2,-0.4 0.5,-0.5 m 25.5,-64 -2.9,1.4 0.5,-2.9 -0.8,0.4 h -0.7 l -0.4,-0.2 -0.6,-0.6 -0.3,-0.6 -0.1,-0.9 0.3,-0.8 0.6,-0.7 0.8,-0.4 1,-0.1 0.4,0.1 0.5,0.4 m -5.3,8.4 0.8,-5.1 -4,2 m 3.2,3.1 -2.8,-5.6 m 201.5,124.6 3.7,3.5 0.7,-4.4 m -4.4,0.9 6.3,0.9 m -4.3,-3.8 -0.3,-0.1 -0.5,-0.4 -0.3,-0.3 -0.2,-0.7 0.2,-1.1 0.4,-0.6 0.3,-0.2 0.7,-0.3 0.6,0.1 0.5,0.4 0.8,0.7 2.5,3.5 0.7,-4.2 m -67,-28.8 0.5,-0.4 0.2,-1 -0.1,-0.5 -0.5,-0.9 -1,-0.4 -1.5,-0.1 -1.5,0.3 -1.1,0.5 -0.5,0.7 -0.1,0.9 v 0.3 l 0.5,0.9 0.7,0.5 0.9,0.1 0.3,-0.1 0.8,-0.4 0.5,-0.7 0.2,-0.9 -0.1,-0.3 -0.4,-0.9 -0.7,-0.5 -1,-0.1 m 5.1,4.8 0.6,3.3 -2.7,-1.4 0.2,0.9 -0.2,0.7 -0.3,0.3 -0.8,0.4 -0.6,0.2 -0.9,-0.2 -0.7,-0.5 -0.5,-0.8 -0.1,-0.9 0.1,-0.9 0.3,-0.4 0.5,-0.4 m 152.3,-70.7 5.1,0.2 -2.5,-3.8 m -2.6,3.6 5.2,-3.5 m -5.4,0.6 -0.6,-0.4 -1.3,-0.2 5.3,-3.5 m -48,99.1 -5.1,-0.9 1.9,4 m 3.2,-3.1 -5.7,2.7 m 5.6,0.8 0.3,-0.1 h 0.7 l 0.4,0.1 0.5,0.4 0.5,1.1 v 0.7 l -0.2,0.4 -0.4,0.5 -0.5,0.3 h -0.7 l -1,-0.2 -4,-1.4 1.8,3.8 m 46.4,42.1 -4.1,3.1 4.3,1.3 m -0.2,-4.4 -1.8,6 m 7.8,-4.1 -2.9,-0.9 -1.1,2.5 0.4,-0.2 h 1 l 0.8,0.2 0.8,0.6 0.4,0.7 v 1 l -0.2,0.6 -0.5,0.7 -0.8,0.4 -0.9,0.1 -0.9,-0.3 -0.8,-0.6 -0.1,-0.3 -0.2,-0.7 m -266.9,387.5 -3,-0.5 -0.7,2.7 0.4,-0.3 0.9,-0.2 0.9,0.2 0.8,0.4 0.5,0.7 0.2,0.9 -0.1,0.6 -0.4,0.9 -0.7,0.5 -1,0.1 -0.8,-0.1 -0.9,-0.4 -0.2,-0.4 -0.2,-0.6 m 6.3,-2.7 v -0.3 l 0.4,-0.5 0.4,-0.3 0.6,-0.2 1.2,0.2 0.5,0.4 0.3,0.3 0.2,0.7 -0.1,0.6 -0.4,0.5 -0.7,0.8 -3.4,2.5 4.1,0.7 M 880,392.5 l -2.9,0.6 0.3,2.7 0.2,-0.3 0.8,-0.5 0.9,-0.2 0.9,0.1 0.8,0.4 0.5,0.8 0.1,0.6 -0.1,1 -0.5,0.7 -0.8,0.5 -0.9,0.2 -0.9,-0.1 -0.4,-0.2 -0.4,-0.6 m 5.6,-6.4 -0.8,0.4 -0.2,0.7 0.1,0.6 0.5,0.5 0.6,0.2 h 1.3 l 0.9,0.1 0.7,0.4 0.4,0.6 0.2,0.8 -0.1,0.7 -0.3,0.4 -0.8,0.4 -1.1,0.3 -1,-0.1 -0.3,-0.2 -0.5,-0.5 -0.2,-0.9 0.2,-0.7 0.5,-0.7 0.8,-0.5 1.1,-0.5 0.5,-0.5 0.2,-0.6 -0.2,-0.6 -0.4,-0.5 -0.9,-0.1 -1.4,0.3 m -47.2,-31.4 0.8,3.2 -2.8,-1.2 0.2,0.9 -0.1,0.7 -0.2,0.3 -0.8,0.5 -0.6,0.2 -1,-0.1 -0.7,-0.5 -0.5,-0.8 -0.2,-0.8 0.1,-1 0.2,-0.3 0.5,-0.5 m 4.9,4.9 0.3,-0.1 0.6,0.1 0.4,0.3 0.4,0.5 0.3,1.1 -0.1,0.7 -0.3,0.4 -0.5,0.4 -0.5,0.1 -0.7,-0.1 -1,-0.4 -3.6,-2.2 1,4.1 m -22.8,-107.7 0.9,3.1 -2.8,-1 0.2,0.9 -0.1,0.6 -0.2,0.4 -0.8,0.5 -0.5,0.2 h -1 l -0.7,-0.4 -0.6,-0.8 -0.2,-0.9 v -0.9 l 0.2,-0.4 0.5,-0.5 m 6.9,5.5 -0.5,-0.8 -1.1,-0.3 -1.5,0.1 -0.8,0.2 -1.4,0.8 -0.7,0.8 v 0.9 l 0.1,0.6 0.6,0.8 1,0.3 1.5,-0.1 0.9,-0.3 1.4,-0.7 0.7,-0.8 v -1 l -0.1,-0.4 m -6.6,-103.6 -5.6,-4.2 m 6.4,0 -0.8,4.2 m 81.7,-18.2 0.9,0.1 0.5,-0.5 0.2,-0.5 v -0.7 l -0.5,-0.5 -1,-0.7 -0.8,-0.6 -0.3,-0.8 -0.1,-0.6 0.3,-0.9 0.5,-0.4 0.4,-0.2 h 0.9 l 1.2,0.4 0.7,0.6 0.2,0.4 0.1,0.7 -0.4,0.8 -0.4,0.5 -0.8,0.3 h -1 l -1.2,-0.1 -0.7,0.1 -0.5,0.4 -0.2,0.6 0.1,0.6 0.8,0.6 1.2,0.5 m 65.4,60.3 0.8,-3.2 1.9,2.3 0.2,-0.9 0.4,-0.5 0.4,-0.2 0.9,-0.1 0.6,0.2 0.8,0.5 0.5,0.7 0.1,0.9 -0.2,0.9 -0.6,0.8 -0.3,0.2 -0.7,0.2 m -2.3,-6 -0.2,-0.7 -0.6,-1 6.1,1.4 m 227.6,436.1 -0.4,0.5 0.2,1 0.3,0.5 0.7,0.6 1.1,0.1 1.4,-0.5 1.3,-0.7 0.9,-0.8 0.3,-0.8 -0.2,-1 -0.2,-0.2 -0.7,-0.7 -0.8,-0.2 -0.9,0.2 -0.3,0.1 -0.6,0.7 -0.2,0.8 0.1,1 0.2,0.2 0.7,0.7 0.8,0.2 0.9,-0.2 m -8.1,-5.9 7,-0.4 m -4.9,4.1 -2.1,-3.7 m -7.5,53.3 -2.7,1.3 0.9,2.6 0.2,-0.4 0.7,-0.7 0.8,-0.4 0.9,-0.1 0.8,0.3 0.7,0.7 0.2,0.5 0.1,1 -0.2,0.8 -0.7,0.6 -0.8,0.4 -1,0.1 -0.4,-0.1 -0.5,-0.4 m 5.9,-8.5 -2.7,1.3 0.8,2.6 0.2,-0.4 0.7,-0.7 0.8,-0.4 0.9,-0.1 0.8,0.3 0.7,0.7 0.2,0.5 0.2,1 -0.3,0.8 -0.7,0.6 -0.8,0.4 -1,0.1 -0.4,-0.1 -0.5,-0.4 m 27.1,-551.9 0.5,-0.5 0.1,-0.9 -0.1,-0.6 -0.5,-0.8 -1,-0.4 -1.6,0.1 -1.4,0.3 -1.1,0.6 -0.5,0.7 -0.1,0.9 0.1,0.3 0.5,0.8 0.7,0.5 1,0.1 0.3,-0.1 0.8,-0.5 0.4,-0.7 0.1,-1 -0.1,-0.2 -0.4,-0.9 -0.8,-0.4 -0.9,-0.1 m 5.6,5.7 -0.5,-0.8 -1,-0.4 -1.5,0.1 -0.9,0.2 -1.4,0.6 -0.7,0.8 -0.1,1 0.1,0.5 0.5,0.9 1,0.3 h 1.6 l 0.8,-0.2 1.4,-0.7 0.8,-0.7 0.1,-1 -0.1,-0.4 m 99.7,-71.4 -2.1,-2.6 3,-0.1 -0.6,-0.7 -0.1,-0.7 v -0.4 l 0.6,-0.8 0.4,-0.4 0.9,-0.3 0.9,0.1 0.8,0.5 0.5,0.7 0.3,0.9 v 0.4 l -0.3,0.6 m -8.2,-2.1 0.8,0.5 0.6,-0.1 0.5,-0.4 0.3,-0.6 -0.2,-0.7 -0.5,-1.1 -0.3,-0.9 0.1,-0.8 0.2,-0.7 0.7,-0.5 0.7,-0.2 0.4,0.1 0.8,0.5 0.8,0.9 0.3,0.9 v 0.4 l -0.3,0.7 -0.7,0.5 -0.7,0.2 -0.8,-0.1 -0.8,-0.5 -1,-0.8 -0.6,-0.3 -0.7,0.2 -0.4,0.3 -0.3,0.7 0.3,0.8 0.9,1.1 m -64.9,-10.6 -2.4,2.2 -0.3,-3 -0.7,0.6 -0.6,0.1 h -0.4 l -0.9,-0.5 -0.3,-0.4 -0.4,-0.9 v -0.8 l 0.5,-0.8 0.7,-0.6 0.8,-0.4 h 0.5 l 0.6,0.3 m -1,7.7 -2.5,2.2 -0.3,-3 -0.6,0.6 -0.7,0.2 h -0.4 l -0.8,-0.5 -0.4,-0.5 -0.4,-0.8 v -0.9 l 0.5,-0.8 0.7,-0.6 0.9,-0.4 0.4,0.1 0.6,0.2 m 76.4,282.1 4.8,-1.9 -3.8,-2.5 m -1,4.4 3.4,-5.3 m -8.6,1.8 2.5,1.6 1.7,-2.1 -0.4,0.1 -0.9,-0.2 -0.8,-0.5 -0.5,-0.7 -0.2,-0.9 0.2,-0.9 0.4,-0.5 0.7,-0.6 0.8,-0.2 1,0.3 0.7,0.5 0.6,0.7 0.1,0.4 -0.1,0.7 m 14.6,76.1 v -0.7 l -0.7,-0.6 -0.5,-0.3 -0.9,-0.1 -1,0.5 -0.9,1.2 -0.6,1.4 -0.3,1.2 0.3,0.8 0.7,0.7 0.2,0.1 1,0.1 0.8,-0.3 0.6,-0.6 0.2,-0.3 0.1,-0.9 -0.3,-0.8 -0.7,-0.7 -0.2,-0.1 -1,-0.2 -0.8,0.3 -0.6,0.7 m 9.2,0.8 v -0.7 l -0.7,-0.6 -0.5,-0.3 -1,-0.1 -0.9,0.5 -0.9,1.2 -0.7,1.4 -0.3,1.2 0.3,0.8 0.7,0.7 0.3,0.1 0.9,0.1 0.8,-0.3 0.7,-0.6 0.1,-0.3 0.1,-0.9 -0.2,-0.8 -0.7,-0.7 -0.3,-0.1 -0.9,-0.2 -0.8,0.3 -0.7,0.7 m 73.7,-66.1 2.4,-4.6 -4.5,0.6 m 2.1,4 -0.9,-6.3 m -5.8,7.1 2.1,-6.6 m 2.1,6.1 -4.2,0.5 m 105.2,-8.2 3,-4.2 h -4.5 m 1.5,4.2 0.1,-6.3 m -6.6,4.1 0.3,-0.9 0.6,-0.6 0.9,-0.3 h 0.3 l 0.9,0.3 0.6,0.6 0.3,0.9 v 0.3 l -0.3,0.9 -0.6,0.6 -1,0.3 h -0.3 l -0.8,-0.3 -0.6,-0.6 -0.3,-1.2 V 335 l 0.3,-1.5 0.6,-0.9 0.9,-0.3 h 0.6 l 0.9,0.3 0.3,0.6 m 9.2,61.7 -1,2.8 2.4,1.2 -0.2,-0.4 v -0.9 l 0.4,-0.9 0.6,-0.7 0.7,-0.3 h 1 l 0.5,0.2 0.8,0.6 0.3,0.8 v 0.9 l -0.3,0.9 -0.6,0.7 -0.4,0.2 -0.7,0.1 m -2.2,-8.5 v 0.9 l 0.6,0.9 1.3,0.8 0.8,0.3 1.5,0.3 1.1,-0.3 0.6,-0.7 0.2,-0.6 v -0.9 l -0.6,-0.9 -1.3,-0.8 -0.8,-0.3 -1.5,-0.3 -1.1,0.3 -0.6,0.7 -0.2,0.4 m -79.2,49 -3,-0.7 -0.8,2.6 0.3,-0.2 1,-0.1 0.9,0.2 0.8,0.4 0.4,0.8 0.1,0.9 -0.1,0.6 -0.5,0.8 -0.7,0.5 -0.9,0.1 -0.9,-0.2 -0.8,-0.5 -0.3,-0.4 -0.1,-0.6 m 5.9,-2.5 0.7,-0.2 1,-0.7 -1.3,6.2 m 16.6,-221.1 4.6,-2.3 -4,-2.2 m -0.6,4.5 2.9,-5.6 m -8,1.8 v 0.6 l 0.6,0.7 0.6,0.3 0.9,0.2 1,-0.5 0.9,-1.2 0.7,-1.4 0.3,-1.2 -0.2,-0.8 -0.7,-0.7 -0.2,-0.1 -1,-0.2 -0.8,0.3 -0.7,0.7 -0.1,0.2 -0.2,1 0.3,0.8 0.6,0.7 0.3,0.1 0.9,0.1 0.8,-0.2 0.7,-0.7 m -9.4,54.6 1,5.1 3.1,-3.3 m -4.1,-1.8 4.6,4.3 m 0,-9.2 2.6,6.5 m -5.5,-3.4 2.9,-3.1 m -129.6,164 -0.3,0.6 0.4,0.9 0.5,0.4 0.8,0.5 1.1,-0.2 1.3,-0.8 1,-1.1 0.7,-1 v -0.9 l -0.4,-0.8 -0.2,-0.2 -0.8,-0.5 h -0.9 l -0.8,0.4 -0.2,0.2 -0.5,0.9 v 0.8 l 0.4,0.9 0.2,0.2 0.8,0.4 h 0.9 l 0.8,-0.4 m -8.3,-4 -0.2,0.7 0.4,0.8 0.4,0.5 0.8,0.4 1.1,-0.2 1.3,-0.8 1.1,-1 0.6,-1.1 0.1,-0.8 -0.5,-0.9 -0.2,-0.2 -0.8,-0.4 -0.8,-0.1 -0.9,0.4 -0.2,0.3 -0.5,0.8 v 0.8 l 0.4,0.9 0.2,0.2 0.9,0.5 h 0.8 l 0.9,-0.4 m -3.1,64.4 -0.6,-0.2 -0.8,0.5 -0.4,0.5 -0.3,0.9 0.3,1 1,1.2 1.1,0.9 1.1,0.6 0.9,-0.1 0.8,-0.5 0.2,-0.3 0.3,-0.8 -0.1,-0.9 -0.5,-0.8 -0.2,-0.2 -0.9,-0.3 -0.8,0.1 -0.8,0.5 -0.2,0.2 -0.4,0.9 0.1,0.8 0.5,0.8 m 0.9,-7.7 -0.3,0.9 0.3,0.6 0.4,0.4 0.7,0.1 0.6,-0.2 1,-0.8 0.8,-0.5 0.8,-0.1 0.7,0.2 0.7,0.6 0.3,0.6 v 0.4 l -0.3,0.9 -0.8,0.9 -0.8,0.5 -0.4,0.1 -0.7,-0.2 -0.7,-0.6 -0.3,-0.6 v -0.8 l 0.3,-0.9 0.5,-1.1 0.2,-0.7 -0.3,-0.6 -0.5,-0.4 -0.6,-0.1 -0.8,0.5 -0.9,1 m -112.6,37.9 h 0.3 l 0.6,0.4 0.2,0.3 0.3,0.7 -0.2,1.1 -0.3,0.6 -0.3,0.3 -0.7,0.2 h -0.6 l -0.5,-0.4 -0.9,-0.7 -2.6,-3.3 -0.5,4.2 m 4.6,2.1 0.3,0.1 0.6,0.3 0.3,0.4 0.2,0.6 -0.1,1.2 -0.4,0.5 -0.3,0.3 -0.6,0.3 -0.6,-0.1 -0.6,-0.4 -0.8,-0.7 -2.7,-3.3 -0.5,4.2 m 28.9,86.2 0.2,-0.6 -0.3,-0.9 -0.4,-0.5 -0.8,-0.5 -1.1,0.2 -1.3,0.7 -1.2,0.9 -0.7,1 -0.1,0.9 0.3,0.8 0.2,0.3 0.8,0.5 0.9,0.1 0.9,-0.4 0.2,-0.2 0.5,-0.8 0.1,-0.8 -0.4,-0.9 -0.1,-0.2 -0.9,-0.5 -0.8,-0.1 -0.9,0.3 m 9,4.4 -6.7,1.7 m 4.1,-5 2.6,3.3 m 70.7,64.8 -2.5,-1.7 -1.8,2 0.4,-0.1 0.9,0.3 0.8,0.5 0.5,0.8 0.1,0.8 -0.2,0.9 -0.4,0.5 -0.8,0.6 -0.8,0.1 -0.9,-0.3 -0.7,-0.5 -0.6,-0.8 -0.1,-0.4 0.2,-0.6 m 7.8,-0.7 2.6,1.9 -2.8,0.9 0.7,0.5 0.3,0.6 0.1,0.5 -0.3,0.9 -0.4,0.4 -0.7,0.6 -0.9,0.1 -0.9,-0.2 -0.7,-0.6 -0.6,-0.7 v -0.5 l 0.1,-0.6 m 62.5,0 -0.2,-0.2 -0.3,-0.6 -0.1,-0.4 0.2,-0.7 0.8,-0.9 0.6,-0.3 h 0.4 l 0.7,0.1 0.4,0.4 0.3,0.6 0.3,1.1 0.4,4.2 2.7,-3.2 m -3.2,-6.1 -0.3,0.9 0.2,0.6 0.5,0.4 0.7,0.1 0.6,-0.2 1,-0.8 0.8,-0.5 h 0.8 l 0.7,0.1 0.7,0.6 0.2,0.6 0.1,0.4 -0.4,0.9 -0.7,0.9 -0.8,0.5 -0.5,0.1 -0.6,-0.2 -0.7,-0.6 -0.3,-0.6 -0.1,-0.8 0.4,-0.9 0.5,-1.1 0.2,-0.7 -0.3,-0.6 -0.5,-0.4 -0.6,-0.1 -0.8,0.5 -0.9,1 m 7.4,-167.4 -0.6,0.3 -0.2,0.9 v 0.6 l 0.4,0.9 1,0.5 1.5,0.2 1.5,-0.2 1.2,-0.4 0.5,-0.7 0.2,-0.9 v -0.3 l -0.4,-0.9 -0.7,-0.5 -0.9,-0.2 h -0.3 l -0.9,0.4 -0.5,0.7 -0.2,0.9 v 0.3 l 0.4,0.9 0.7,0.5 0.9,0.2 m -3,-8.7 0.9,0.2 0.7,0.6 0.4,0.8 v 0.3 l -0.2,1 -0.5,0.6 -0.9,0.4 h -0.3 l -0.9,-0.2 -0.7,-0.5 -0.4,-0.9 v -0.3 l 0.2,-0.9 0.5,-0.7 1.2,-0.4 1.5,-0.1 1.5,0.1 1,0.5 0.4,0.9 v 0.6 l -0.2,0.9 -0.5,0.4 m -38.5,-4.8 0.5,0.4 0.9,-0.1 0.6,-0.3 0.6,-0.7 0.1,-1.1 -0.4,-1.5 -0.8,-1.3 -0.8,-0.9 -0.8,-0.2 -0.9,0.1 -0.3,0.2 -0.7,0.7 -0.2,0.8 0.2,0.9 0.1,0.3 0.7,0.6 0.8,0.3 1,-0.2 0.2,-0.1 0.7,-0.7 0.2,-0.8 -0.2,-1 m -3.7,6.8 0.6,-0.6 v -0.7 l -0.3,-0.5 -0.5,-0.4 h -0.7 l -1.2,0.3 -0.9,0.2 -0.8,-0.3 -0.6,-0.4 -0.4,-0.7 V 518 l 0.1,-0.4 0.6,-0.7 1.1,-0.6 0.9,-0.2 0.4,0.2 0.6,0.3 0.4,0.8 v 0.7 l -0.2,0.8 -0.7,0.7 -0.9,0.9 -0.4,0.5 0.1,0.7 0.3,0.5 0.5,0.4 0.9,-0.2 1.2,-0.6 m 61.9,3.8 0.6,-0.2 0.5,-0.8 0.2,-0.6 -0.1,-0.9 -0.8,-0.8 -1.4,-0.7 -1.4,-0.3 h -1.3 l -0.7,0.5 -0.5,0.8 v 0.3 l 0.1,0.9 0.4,0.8 0.8,0.5 h 0.3 l 1,-0.1 0.7,-0.4 0.5,-0.8 v -0.3 l -0.1,-1 -0.4,-0.7 -0.8,-0.5 m 0,9.2 -0.8,-0.5 -0.4,-0.7 -0.1,-0.9 0.1,-0.3 0.4,-0.9 0.8,-0.4 0.9,-0.1 0.3,0.1 0.8,0.5 0.5,0.7 0.1,0.9 -0.1,0.3 -0.5,0.8 -0.7,0.5 h -1.3 l -1.4,-0.3 -1.4,-0.7 -0.8,-0.7 -0.1,-1 0.2,-0.6 0.5,-0.8 0.6,-0.1 m 27.8,26.4 1.4,2.6 2.5,-1 -0.4,-0.1 -0.7,-0.6 -0.4,-0.8 -0.1,-1 0.2,-0.8 0.7,-0.7 0.5,-0.2 0.9,-0.2 0.8,0.2 0.7,0.7 0.4,0.8 0.2,0.9 -0.1,0.4 -0.4,0.6 m -5.7,-2.9 -0.6,-0.4 -1.2,-0.4 5.6,-3 m 18.2,118.4 v -0.3 l 0.4,-0.5 0.3,-0.3 0.6,-0.2 1.2,0.1 0.6,0.4 0.3,0.3 0.2,0.7 -0.1,0.6 -0.4,0.5 -0.7,0.9 -3.3,2.6 4.1,0.5 m 5.4,-4.8 -0.2,-0.6 -0.9,-0.4 -0.6,-0.1 -0.9,0.2 -0.7,0.8 -0.5,1.4 -0.2,1.5 0.2,1.3 0.5,0.6 0.9,0.4 0.3,0.1 0.9,-0.2 0.7,-0.5 0.4,-0.9 V 669 l -0.2,-0.9 -0.5,-0.7 -0.8,-0.4 h -0.3 l -1,0.2 -0.6,0.5 -0.5,0.8 m 22.1,-22.3 1.4,2.6 2.5,-1 -0.4,-0.1 -0.7,-0.6 -0.4,-0.8 -0.1,-1 0.2,-0.8 0.7,-0.7 0.5,-0.2 1,-0.2 0.8,0.3 0.7,0.6 0.4,0.8 0.1,1 -0.1,0.4 -0.4,0.5 m -8.5,-5.1 5.1,0.7 -2.1,-4 m -3,3.3 5.6,-2.9 M 857,481.3 l 2.4,1.8 1.8,-2.1 -0.4,0.1 -0.9,-0.3 -0.7,-0.5 -0.6,-0.8 -0.1,-0.8 0.2,-0.9 0.4,-0.5 0.8,-0.6 0.8,-0.1 0.9,0.3 0.7,0.5 0.6,0.7 0.1,0.5 -0.1,0.6 m -9.3,-2.8 0.7,-0.6 0.9,-0.1 0.9,0.2 0.2,0.2 0.6,0.8 0.1,0.8 -0.2,0.9 -0.2,0.2 -0.8,0.6 -0.8,0.2 -0.9,-0.3 -0.3,-0.2 -0.5,-0.7 -0.2,-0.9 0.5,-1.1 0.8,-1.3 1.1,-1 1.1,-0.4 0.9,0.3 0.5,0.3 0.5,0.8 -0.1,0.6 m -36.7,16.8 -1.3,3 -1.5,-2.6 -0.4,0.8 -0.5,0.4 -0.4,0.2 -0.9,-0.1 -0.6,-0.2 -0.7,-0.7 -0.3,-0.7 0.1,-1 0.3,-0.8 0.7,-0.7 0.4,-0.2 h 0.6 m 0.3,9.9 0.7,-0.1 0.6,-0.7 0.3,-0.5 v -1 l -0.5,-0.9 -1.3,-0.9 -1.4,-0.6 -1.2,-0.2 -0.8,0.4 -0.6,0.7 -0.1,0.2 -0.1,1 0.3,0.8 0.7,0.6 0.3,0.1 0.9,0.1 0.8,-0.3 0.6,-0.7 0.2,-0.3 v -0.9 l -0.3,-0.8 -0.7,-0.7 m -16.1,83.4 -0.2,3.3 -2.3,-1.9 v 0.9 l -0.4,0.5 -0.3,0.3 -0.9,0.3 -0.6,-0.1 -0.9,-0.3 -0.6,-0.7 -0.2,-0.9 0.1,-0.9 0.3,-0.9 0.3,-0.3 0.7,-0.2 m 4.4,9.7 -6.1,-3.4 m 6.4,-0.8 -0.3,4.2 m 28.6,67.6 -5,1.1 3.3,3 m 1.7,-4.1 -4.2,4.7 m 7.5,-1.7 -0.9,-0.4 -1,0.3 -1.2,0.9 -0.6,0.7 -0.8,1.3 -0.2,1 0.5,0.9 0.5,0.4 0.8,0.3 1.1,-0.2 1.2,-1 0.6,-0.6 0.8,-1.4 0.1,-1 -0.5,-0.8 -0.3,-0.3 m 118.1,-29.6 -0.6,0.4 -0.2,0.9 0.1,0.6 0.4,0.9 0.9,0.5 1.5,0.1 1.5,-0.1 1.2,-0.4 0.5,-0.7 0.3,-0.9 -0.1,-0.3 -0.4,-0.9 -0.6,-0.5 -0.9,-0.2 h -0.3 l -0.9,0.4 -0.5,0.6 -0.3,1 0.1,0.3 0.4,0.8 0.6,0.6 0.9,0.2 m -5,-7.8 4.5,2.6 -0.5,-4.5 m -4,1.9 6.3,-0.6 m -47.8,53 -2,4.7 4.4,-0.9 m -2.4,-3.8 1.4,6.1 m 1.8,-6.7 3.2,-0.7 -1.2,2.7 0.9,-0.2 0.6,0.2 0.4,0.2 0.5,0.8 0.1,0.6 -0.1,0.9 -0.5,0.7 -0.8,0.5 -0.9,0.2 -0.9,-0.1 -0.4,-0.2 -0.4,-0.5 m 129.3,-447.4 -2.4,-2.2 2.9,-0.5 -0.6,-0.7 -0.3,-0.6 V 229 l 0.4,-0.9 0.4,-0.4 0.9,-0.5 h 0.8 l 0.9,0.4 0.6,0.6 0.5,0.9 v 0.4 l -0.2,0.6 m -10,-2.4 2.2,2.1 2.1,-1.8 h -0.5 l -0.8,-0.4 -0.7,-0.6 -0.4,-0.8 -0.1,-0.9 0.4,-0.8 0.5,-0.5 0.8,-0.4 h 0.8 l 0.9,0.4 0.7,0.6 0.4,0.8 v 0.4 l -0.2,0.7 m -53.1,-10 -2.2,2.4 -0.6,-2.9 -0.6,0.7 -0.6,0.2 h -0.4 l -0.9,-0.4 -0.4,-0.4 -0.5,-0.8 v -0.9 l 0.4,-0.8 0.6,-0.7 0.8,-0.4 0.4,-0.1 0.7,0.2 m -0.9,6.4 -0.2,0.6 0.1,1.3 -4.7,-4.3"
       id="nums_002"
       stroke="#000000"
       stroke-width="1" />
    <path
       d="m 951.8,579.1 9.3,93.9 -100.9,21.8 -72.1,-64.1 6.3,-96.3 35.7,-82 60.6,42.5 -42.1,-60.9 78.7,-43.7 -87.8,19.7 -21.2,-86.2 -31.7,-108 20,-106.1 162.7,59.9 -17.2,71.9 50.1,-54.4 79,74.3 62.1,73.8 -57.9,-77.1 -40.7,-100.6 81.9,-40.2 53,92.2 45.6,61 -13.1,-75 -24.1,-103.7 85.4,-76.1 76.8,95.6 58.7,87.4 71.7,38.1 -79,85.7 -57.2,-17.6 -43.1,-90.6 -14.8,99.2 50.1,32.9 115.3,-16.4 84.1,0.7 -50,131.2 -122.8,-26.3 -81.8,-39.7 62.6,66 -61.5,75.2 85.4,-46.5 6.9,67.8 15.1,-66.4 58.9,110.8 39.4,75.8 -97.8,-12.2 -56.4,68 -89.2,-64.1 -62.9,-76.7 12,-116.6 -25.2,114.5 48.1,86.8 -71.5,34.1 -75.6,-11.6 -71.7,-20.6 -42.8,-84.1 94.9,-28.55 z"
       id="coupes_002"
       stroke="#ff0000"
       stroke-width="1.27"
       sodipodi:nodetypes="ccccccccccccccccccccccccccccccccccccccccccccccccccccccccccc" />
    <path
       d="m 927.3,390.3 43.2,63.7 m 0,0 -79.8,40.9 m 36.6,-104.6 153.9,-128.9 m 62.1,73.8 L 970.5,454 M 1050,567.6 970.5,454 m 172.8,-118.8 50.6,141.8 m 0,0 -143.9,90.6 m 93.3,-232.4 138.1,60.7 m 0,0 -87.5,81.1 M 1168.7,591.5 1050,567.6 M 970.5,454 951.8,579.1 m 0,0 -61.1,-84.2 m 278,96.6 -99,109.3 m 0,0 -19.7,-133.2 m 236.5,-254.1 -5.1,82.4 m -56.2,-125.4 61.3,43 m -143.2,21.7 81.9,-64.7 m -139.8,-12.4 94.2,-48.6 m -94.2,48.6 41.2,-140.8 m 98.6,153.2 76.1,-56.2 m -89.2,-18.8 89.2,18.8 m 48.9,-103 -48.9,103 m 107.6,-15.6 -107.6,15.6 m 107.6,-15.6 -7.3,123.8 m -449.5,-81 129.1,19.9 M 927.3,390.3 952.1,241.5 m -24.8,148.8 -109,-66.5 m 0,0 133.8,-82.3 M 786.6,215.8 952.1,241.5 M 806.6,109.7 952.1,241.5 M 1188,91.8 l 162.2,19.5 m -13.6,235.1 -55.2,49.5 m 55.2,-49.5 26.6,89.2 m 88.7,-105.6 -88.7,105.6 m -80.7,101.5 -88.6,-60.1 m 88.6,60.1 -100.6,56.5 m 100.6,-56.5 -37.7,133.2 m 130,-111.9 15.6,108 m -107.9,-129.3 92.3,21.3 m 74,44.4 -58.4,63.6 m -15.6,-108 74,44.4 m -497,-23.7 -157.4,-44.7 m 0,0 96.3,-39.5 m 61.1,84.2 -91.6,115.7"
       id="plisM_002"
       stroke="#a52a2a"
       stroke-dasharray="4" />
    <path
       d="M 970.5,454 848.6,434 M 1081.2,261.4 970.5,454 M 1143.3,335.2 1050,567.6 m -52,112.6 52,-112.6 m 93.3,-232.4 143.2,-21.7 m -143.2,21.7 36.3,-125.7 m 32.5,-14 138.1,-84.2 m 58.7,87.4 -64.5,106.2 m -175.7,286.6 -23.4,120.9 M 1536,330.7 1363.2,435.6 M 1344,461.9 1193.9,477 m 88.6,60.1 51.5,197.3 m -51.5,-197.3 107.9,129.3 M 951.8,579.1 788.1,630.7"
       id="plisV_002"
       stroke="#008000"
       stroke-dasharray="4, 1, 1, 1"
       stroke-width="1.27" />
    <path
       d="m 907.5,442 4,4 m 0,-4 -4,4 m 116.4,-90.3 4,4 m 0,-4 -4,4 m 70.7,89.7 4,4 m 0,-4 -4,4 m -72.6,168.5 4,4 m 0,-4 -4,4 m 190.9,-303.6 4,4 m 0,-4 -4,4 m -53.5,-55.9 4,4 m 0,-4 -4,4 m 119.8,-123 4,4 m 0,-4 -4,4 m 95.5,94.4 4,4 m 0,-4 -4,4 M 1155,650 l 4,4 m 0,-4 -4,4 m 292.6,-272.8 4,4 m 0,-4 -4,4 m -180.6,82.2 4,4 m 0,-4 -4,4 m 39.3,162.4 4,4 m 0,-4 -4,4 m 28.1,-38 4,4 m 0,-4 -4,4 m -466.4,-0.9 4,4 m 0,-4 -4,4"
       id="marqueV_002"
       stroke="#008000" />
    <path
       d="m 1125,447.5 h 8.2 l -4.5,6 h 2.3 l 1.5,0.8 0.7,0.7 0.8,2.3 v 1.5 l -0.8,2.2 -1.5,1.5 -2.2,0.8 h -2.3 l -2.2,-0.8 -0.8,-0.7 -0.7,-1.5"
       id="titre_3"
       stroke="#4b0082" />
  </g>
</svg>
