<?xml version="1.0" encoding="UTF-8" standalone="no"?>
<svg
   height="841.88977pt"
   viewBox="0 0 532.99998 754.00001"
   width="595.27557pt"
   version="1.1"
   id="svg1"
   sodipodi:docname="Citrouille136_H10_A4x1.svg"
   inkscape:version="1.3 (0e150ed6c4, 2023-07-21)"
   xmlns:inkscape="http://www.inkscape.org/namespaces/inkscape"
   xmlns:sodipodi="http://sodipodi.sourceforge.net/DTD/sodipodi-0.dtd"
   xmlns="http://www.w3.org/2000/svg"
   xmlns:svg="http://www.w3.org/2000/svg">
  <defs
     id="defs1" />
  <sodipodi:namedview
     id="namedview1"
     pagecolor="#ffffff"
     bordercolor="#000000"
     borderopacity="0.25"
     inkscape:showpageshadow="2"
     inkscape:pageopacity="0.0"
     inkscape:pagecheckerboard="0"
     inkscape:deskcolor="#d1d1d1"
     inkscape:document-units="mm"
     showgrid="false"
     inkscape:zoom="0.76791526"
     inkscape:cx="425.17712"
     inkscape:cy="745.52497"
     inkscape:window-width="1920"
     inkscape:window-height="1057"
     inkscape:window-x="-8"
     inkscape:window-y="-8"
     inkscape:window-maximized="1"
     inkscape:current-layer="svg1" />
  <style
     type="text/css"
     id="style1"><![CDATA[
			path {
				fill: none;
			}
		]]></style>
  <g
     id="page_001">
    <path
       d="m 291.6,461.4 -1.1,3.1 -1.6,-2.5 -0.3,0.8 -0.5,0.5 -0.4,0.2 h -1 l -0.5,-0.2 -0.8,-0.6 -0.3,-0.8 V 461 l 0.3,-0.9 0.6,-0.7 0.4,-0.2 0.6,-0.1 m 1,9.8 h 0.6 l 0.6,-0.8 0.2,-0.5 v -1 l -0.6,-0.9 -1.3,-0.8 -1.4,-0.5 -1.3,-0.1 -0.7,0.4 -0.6,0.7 -0.1,0.3 v 1 l 0.3,0.7 0.8,0.6 0.3,0.1 h 0.9 l 0.8,-0.3 0.6,-0.8 0.1,-0.3 v -0.9 l -0.4,-0.8 -0.7,-0.6 m -6.3,-65.1 0.5,0.5 1.1,0.5 -5.9,2.1 m 5.2,-0.7 0.4,0.5 1.2,0.6 -6,2 m 39.2,-105.1 2.5,-2.1 0.2,3 0.7,-0.6 0.6,-0.2 0.4,0.1 0.9,0.5 0.3,0.4 0.4,0.9 -0.1,0.8 -0.5,0.8 -0.6,0.6 -0.9,0.4 H 319 l -0.7,-0.3 m 5.1,-8.3 0.4,0.9 -0.1,0.8 -0.5,0.8 -0.2,0.2 -0.9,0.4 -0.8,-0.1 -0.8,-0.5 -0.2,-0.2 -0.4,-0.9 0.1,-0.8 0.5,-0.8 0.2,-0.2 0.9,-0.4 0.8,0.1 1,0.7 1,1.2 0.7,1.3 0.2,1.1 -0.5,0.8 -0.5,0.4 -0.9,0.3 -0.6,-0.2 m -44.6,-47.8 0.2,0.3 0.2,0.6 v 0.4 l -0.3,0.7 -0.9,0.7 -0.7,0.2 h -0.4 l -0.6,-0.3 -0.4,-0.4 -0.2,-0.7 -0.1,-1.1 0.3,-4.2 -3.2,2.8 m 2.4,4.4 -0.2,0.6 -0.1,1.2 -4.1,-4.7 m 3.6,16.4 0.6,0.1 1.3,-0.1 -4,4.8 m 6.7,-0.1 -0.8,0.5 h -0.9 l -0.8,-0.3 -0.3,-0.2 -0.5,-0.8 -0.1,-0.8 0.4,-0.9 0.2,-0.3 0.8,-0.5 h 0.8 l 0.9,0.3 0.2,0.2 0.5,0.8 0.1,0.8 -0.5,1.2 -1,1.1 -1.2,1 -1,0.3 -0.9,-0.4 -0.4,-0.3 -0.5,-0.8 0.1,-0.7 m 58.2,-10 -0.3,0.1 -0.6,-0.1 -0.4,-0.3 -0.4,-0.5 -0.3,-1.1 0.1,-0.7 0.2,-0.3 0.5,-0.5 0.6,-0.1 0.6,0.1 1.1,0.3 3.6,2.2 -1.1,-4.1 m -7.3,-2.9 0.8,2.9 2.7,-0.4 -0.4,-0.3 -0.5,-0.7 -0.2,-0.9 v -1 l 0.4,-0.7 0.8,-0.5 0.6,-0.2 1,0.1 0.7,0.4 0.5,0.8 0.3,0.9 -0.1,0.9 -0.2,0.4 -0.5,0.4 m -41.8,-61.3 0.1,3.3 -2.5,-1.7 v 0.9 l -0.3,0.6 -0.2,0.3 -0.9,0.3 h -0.6 l -0.9,-0.3 -0.7,-0.6 -0.3,-0.8 v -0.9 l 0.3,-1 0.3,-0.3 0.6,-0.3 m 5.2,7.1 -0.3,-0.9 -0.9,-0.6 -1.5,-0.3 h -0.9 l -1.5,0.4 -0.9,0.6 -0.3,0.9 v 0.6 l 0.4,0.9 0.9,0.6 1.5,0.2 h 0.9 l 1.5,-0.3 0.9,-0.6 0.2,-0.9 v -0.5 m 31.2,-63.2 1.4,-3.1 1.4,2.6 0.4,-0.8 0.5,-0.4 0.4,-0.2 1,0.1 0.5,0.3 0.7,0.6 0.3,0.8 -0.1,0.9 -0.3,0.8 -0.7,0.8 -0.4,0.1 h -0.6 m -1.3,-6.3 v -0.6 l -0.5,-1.2 5.8,2.5 m -52.9,4.9 1.6,2.8 -2.9,-0.3 0.4,0.8 0.1,0.6 -0.1,0.4 -0.7,0.7 -0.5,0.3 -0.9,0.2 -0.8,-0.2 -0.8,-0.6 -0.4,-0.8 -0.2,-0.9 0.1,-0.4 0.4,-0.6 m 7.4,2.6 1.6,2.8 -3,-0.3 0.5,0.8 v 0.6 l -0.1,0.4 -0.6,0.8 -0.5,0.3 -0.9,0.2 -0.9,-0.3 -0.7,-0.6 -0.4,-0.8 -0.2,-0.9 0.1,-0.4 0.4,-0.6 m 50.6,-43.6 -1.5,-3 2.9,0.5 -0.4,-0.8 v -0.6 l 0.2,-0.4 0.6,-0.7 0.6,-0.3 0.9,-0.1 0.8,0.2 0.7,0.7 0.4,0.8 0.1,1 -0.1,0.4 -0.4,0.5 m -8.4,-5.3 5.1,0.8 -2.1,-4 m -3,3.2 5.6,-2.8 m -59.9,13.3 0.5,3.2 -2.6,-1.4 0.1,0.9 -0.2,0.6 -0.3,0.4 -0.8,0.4 -0.6,0.1 -0.9,-0.2 -0.7,-0.5 -0.4,-0.8 -0.2,-0.9 0.2,-1 0.3,-0.3 0.5,-0.4 m 4.4,5.3 0.3,-0.1 0.6,0.3 0.4,0.2 0.4,0.6 0.1,1.1 -0.2,0.7 -0.2,0.3 -0.6,0.4 -0.6,0.1 -0.6,-0.2 -1,-0.5 -3.4,-2.5 0.6,4.1 m 40.7,-51.4 -1.9,-2.7 3,0.1 -0.5,-0.8 -0.1,-0.6 0.1,-0.4 0.6,-0.8 0.4,-0.4 1,-0.2 0.8,0.1 0.8,0.6 0.5,0.7 0.2,0.9 v 0.4 l -0.4,0.6 m -9.3,-4.3 1.8,2.4 2.3,-1.3 -0.4,-0.1 -0.7,-0.5 -0.6,-0.8 -0.2,-0.9 0.1,-0.8 0.6,-0.8 0.5,-0.3 0.9,-0.3 0.8,0.2 0.8,0.5 0.5,0.8 0.3,0.9 -0.1,0.4 -0.3,0.6 M 277,50.2 l 0.1,0.3 -0.2,0.6 -0.3,0.4 -0.5,0.3 -1.2,0.2 -0.6,-0.2 -0.4,-0.2 -0.4,-0.6 -0.1,-0.6 0.2,-0.6 0.5,-1 2.5,-3.4 -4.2,0.6 m -4.3,5 0.2,-1 0.5,-0.7 0.8,-0.4 h 0.3 l 0.9,0.1 0.7,0.5 0.4,0.9 0.1,0.3 -0.2,0.9 -0.5,0.7 -0.8,0.4 -0.3,0.1 -0.9,-0.2 -0.7,-0.5 -0.5,-1.1 -0.2,-1.5 V 48 l 0.5,-1 0.8,-0.5 0.6,-0.1 1,0.2 0.3,0.6 m -38.2,45.6 -0.1,-0.3 0.2,-0.6 0.2,-0.4 0.6,-0.4 1.2,-0.2 0.6,0.2 0.3,0.2 0.5,0.5 0.1,0.6 -0.2,0.7 -0.4,1 -2.4,3.5 4.1,-0.8 m 1.4,-6.7 -0.8,0.4 -0.2,0.7 0.1,0.6 0.4,0.5 0.7,0.2 1.2,0.1 1,0.1 0.7,0.4 0.4,0.6 0.2,0.9 -0.2,0.6 -0.3,0.4 -0.8,0.4 -1.2,0.3 -0.9,-0.2 -0.3,-0.2 -0.5,-0.5 -0.1,-0.9 0.1,-0.7 0.5,-0.7 0.8,-0.4 1.2,-0.6 0.5,-0.4 0.2,-0.6 -0.2,-0.6 -0.4,-0.5 -0.9,-0.2 -1.3,0.3 m -40.5,-6.6 0.1,-0.2 0.6,-0.4 0.4,-0.1 h 0.6 l 1.1,0.6 0.4,0.5 0.1,0.4 V 85 l -0.3,0.5 -0.6,0.4 -0.9,0.5 -4.1,1.2 3.7,2 m 6.8,-3.5 -4.7,2.2 4,2.2 m 0.7,-4.4 -3,5.5 m 25,-49.6 -0.2,0.2 -0.6,0.2 -0.4,0.1 -0.7,-0.2 -0.9,-0.8 -0.2,-0.6 -0.1,-0.4 0.2,-0.7 0.4,-0.4 0.6,-0.3 1,-0.3 4.3,-0.3 -3.2,-2.7 m -7.1,1 -0.2,0.6 0.5,0.9 0.4,0.3 0.9,0.4 1.1,-0.3 1.2,-0.9 0.9,-1.2 0.6,-1.1 -0.1,-0.8 -0.5,-0.8 -0.2,-0.2 -0.9,-0.4 -0.8,0.1 -0.8,0.5 -0.2,0.2 -0.4,0.9 0.1,0.8 0.5,0.8 0.2,0.2 0.9,0.4 0.8,-0.1 0.8,-0.5 m -29.9,0.2 0.2,0.2 v 0.7 l -0.1,0.4 -0.3,0.6 -1,0.6 -0.7,0.1 -0.4,-0.1 -0.6,-0.4 -0.3,-0.5 -0.1,-0.7 0.1,-1 0.9,-4.2 -3.5,2.2 m 1.8,6.3 -2.8,1.7 0.3,-2.9 -0.8,0.4 -0.7,0.1 -0.4,-0.1 -0.7,-0.6 -0.3,-0.5 -0.2,-0.9 0.2,-0.9 0.6,-0.7 0.7,-0.5 0.9,-0.2 0.5,0.1 0.5,0.4 m -34.7,33.5 0.1,-0.3 0.4,-0.5 0.3,-0.3 0.6,-0.1 1.2,0.2 0.6,0.4 0.2,0.3 0.2,0.7 -0.1,0.6 -0.4,0.5 -0.8,0.8 -3.4,2.4 4.1,0.7 m 2.5,-4.4 v -0.3 l 0.4,-0.5 0.4,-0.3 0.6,-0.2 1.2,0.3 0.5,0.4 0.3,0.3 0.2,0.6 -0.1,0.6 -0.4,0.6 -0.8,0.8 -3.5,2.4 4.2,0.7 M 136.5,37 l -0.6,-0.1 -1.3,0.3 3.5,-5.3 m -7,2 -0.1,0.7 0.6,0.7 0.5,0.4 0.9,0.2 1,-0.4 1.1,-1 0.8,-1.3 0.4,-1.1 -0.1,-0.9 -0.6,-0.7 -0.3,-0.2 -0.9,-0.3 -0.8,0.2 -0.8,0.6 -0.1,0.2 -0.3,0.9 0.2,0.9 0.5,0.7 0.3,0.2 0.9,0.3 0.8,-0.2 0.8,-0.6 m -27,-10.3 -0.1,0.7 0.2,1.2 -5.2,-3.6 m 2.6,7.6 1.8,-2.4 -2.1,-1.9 0.1,0.5 -0.3,0.9 -0.5,0.7 -0.8,0.6 -0.8,0.1 -0.9,-0.3 -0.5,-0.3 -0.5,-0.8 -0.2,-0.8 0.3,-0.9 0.5,-0.7 0.8,-0.6 0.4,-0.1 0.6,0.1 m -7.3,28.7 0.2,0.7 0.8,1 -6.3,-0.9 m 5.9,5.2 -3.7,-3.6 -0.7,4.5 m 4.4,-0.9 -6.2,-0.9 m 34.6,40.1 -0.2,-0.7 -0.7,-1.1 6.2,1.4 m -6,-3.1 0.7,-3.2 1.9,2.2 0.2,-0.8 0.4,-0.6 0.4,-0.2 0.9,-0.1 0.6,0.1 0.8,0.5 0.5,0.7 0.1,1 -0.2,0.8 -0.5,0.9 -0.3,0.2 -0.7,0.2 M 77.3,89.2 77,89.8 76.7,91.1 73.3,85.7 m 1.3,5.1 0.1,0.3 0.1,0.7 -0.1,0.4 -0.4,0.5 -1,0.7 H 72.7 L 72.2,93.3 71.7,93 71.4,92.5 71.3,91.8 v -1.1 l 1,-4.1 -3.6,2.2 m 38.3,41.3 0.4,0.9 0.1,0.8 -0.4,0.9 -0.2,0.2 -0.8,0.4 -0.9,0.1 -0.9,-0.4 -0.2,-0.2 -0.4,-0.8 -0.1,-0.9 0.4,-0.8 0.2,-0.3 0.9,-0.4 0.8,-0.1 1.1,0.6 1.1,1 0.9,1.3 0.3,1 -0.4,0.9 -0.4,0.4 -0.9,0.5 -0.6,-0.2 m -67.6,-14.6 0.5,-0.8 -0.2,-0.7 -0.4,-0.4 -0.7,-0.2 -0.6,0.2 -1.1,0.5 -0.9,0.4 h -0.8 l -0.6,-0.2 -0.6,-0.7 -0.2,-0.6 v -0.5 l 0.4,-0.8 0.9,-0.8 0.9,-0.4 h 0.4 l 0.6,0.3 0.7,0.6 0.1,0.7 v 0.8 l -0.5,0.8 -0.6,1.1 -0.3,0.6 0.2,0.6 0.4,0.5 0.7,0.2 0.8,-0.4 1,-0.9 m -16.5,41.4 -0.3,-3 -2.8,-0.1 0.4,0.3 0.4,0.9 v 0.9 l -0.2,0.9 -0.5,0.7 -0.9,0.3 -0.6,0.1 -0.9,-0.2 -0.6,-0.5 -0.4,-0.9 -0.1,-0.9 0.2,-0.9 0.3,-0.4 0.5,-0.3 m 45.2,42.6 1.6,6.8 m -4.9,-4.2 3.3,-2.6 m -24.6,2 0.3,-0.6 -0.3,-0.9 -0.4,-0.5 -0.8,-0.5 h -1 l -1.4,0.7 -1.2,0.9 -0.8,1 -0.1,0.9 0.3,0.9 0.2,0.2 0.8,0.5 0.9,0.1 0.9,-0.3 0.2,-0.2 0.5,-0.8 0.1,-0.8 -0.3,-0.9 -0.2,-0.2 -0.8,-0.6 -0.8,-0.1 -0.9,0.3 m 356.4,8.4 0.5,5.1 3.4,-2.9 m -3.9,-2.2 4.1,4.8 m -0.9,-7.5 -0.4,0.8 0.1,0.7 0.4,0.5 0.6,0.2 0.7,-0.1 1.1,-0.6 0.9,-0.3 h 0.8 l 0.6,0.3 0.6,0.7 0.2,0.6 -0.1,0.4 -0.5,0.9 -0.9,0.7 -0.9,0.4 h -0.4 l -0.6,-0.3 -0.6,-0.7 -0.1,-0.6 v -0.9 l 0.5,-0.8 0.7,-1 0.3,-0.6 -0.2,-0.7 -0.3,-0.4 -0.7,-0.3 -0.8,0.4 -1.1,0.8 m -43.7,17.3 -3.7,3.6 4.4,0.8 m -0.7,-4.4 -1.1,6.2 m 7.6,-5 -4,5.7 m -0.1,-6.4 4.1,0.7 m -107.9,326.9 2,2.6 h -3 l 0.5,0.8 0.1,0.6 v 0.4 l -0.6,0.8 -0.4,0.4 -0.9,0.3 -0.9,-0.2 -0.8,-0.5 -0.5,-0.7 -0.3,-0.9 0.1,-0.4 0.3,-0.6 m 9.7,4.4 -6.9,1.4 m 4.4,-4.7 2.5,3.3 m 74,-144.6 2.9,0.6 0.9,-2.6 -0.4,0.3 -0.9,0.1 -0.9,-0.2 -0.8,-0.5 -0.5,-0.7 v -1 l 0.1,-0.6 0.5,-0.8 0.7,-0.4 0.9,-0.1 0.9,0.2 0.8,0.4 0.2,0.4 0.2,0.7 m -7.8,3.5 1,-0.1 0.4,-0.6 0.1,-0.5 -0.1,-0.7 -0.6,-0.4 -1.1,-0.6 -0.8,-0.5 -0.4,-0.7 -0.2,-0.6 0.2,-0.9 0.4,-0.5 0.4,-0.3 0.9,-0.1 1.2,0.3 0.8,0.5 0.2,0.4 0.2,0.6 -0.2,0.9 -0.4,0.5 -0.7,0.5 -1,0.1 h -1.2 l -0.7,0.2 -0.4,0.5 -0.1,0.6 0.1,0.6 0.9,0.5 1.3,0.3 m -1.5,-29 -2.9,1 0.6,2.6 0.2,-0.4 0.7,-0.5 0.9,-0.3 h 1 l 0.7,0.4 0.6,0.8 0.2,0.5 -0.1,1 -0.3,0.7 -0.8,0.6 -0.9,0.3 h -0.9 l -0.4,-0.2 -0.5,-0.5 m 5,-7 -0.8,0.6 -0.1,0.7 0.2,0.5 0.5,0.5 0.6,0.1 1.3,-0.1 0.9,0.1 0.8,0.3 0.5,0.5 0.2,0.9 -0.1,0.6 -0.2,0.4 -0.7,0.6 -1.2,0.3 h -0.9 l -0.4,-0.2 -0.5,-0.4 -0.2,-0.9 0.1,-0.7 0.3,-0.7 0.8,-0.6 1.1,-0.6 0.4,-0.5 0.1,-0.7 -0.1,-0.5 -0.5,-0.5 h -1 l -1.2,0.4 m -24.4,189.5 1.9,2.3 2.3,-1.5 h -0.5 l -0.8,-0.5 -0.6,-0.7 -0.3,-0.9 v -0.8 l 0.5,-0.9 0.5,-0.3 0.9,-0.4 0.8,0.1 0.8,0.4 0.6,0.7 0.4,0.9 -0.1,0.4 -0.2,0.7 m -8.3,-5.1 0.8,-0.4 0.9,0.1 0.8,0.5 0.2,0.2 0.4,0.9 -0.1,0.8 -0.5,0.9 -0.2,0.1 -0.9,0.4 -0.8,-0.1 -0.9,-0.4 -0.2,-0.3 -0.3,-0.8 0.1,-0.9 0.7,-1 1.1,-1 1.3,-0.7 1.1,-0.2 0.8,0.5 0.4,0.5 0.4,0.9 -0.3,0.6 m -50.8,33.9 -3,0.5 0.1,2.7 0.3,-0.3 0.8,-0.5 0.9,-0.1 1,0.2 0.6,0.5 0.5,0.8 0.1,0.6 -0.2,0.9 -0.5,0.7 -0.8,0.4 -0.9,0.2 -1,-0.2 -0.3,-0.2 -0.4,-0.6 m 8.5,-6.4 -2,6.6 m -2.1,-6 4.1,-0.6 m -5.7,-3.9 -2,2.7 -0.9,-2.9 -0.5,0.7 -0.6,0.3 -0.4,0.1 -0.9,-0.3 -0.5,-0.4 -0.5,-0.8 -0.1,-0.8 0.3,-0.9 0.5,-0.7 0.8,-0.6 h 0.4 l 0.7,0.1 m -0.1,8.5 0.3,-0.9 -0.3,-0.6 -0.5,-0.3 -0.6,-0.2 -0.6,0.3 -1,0.8 -0.8,0.5 -0.8,0.2 -0.7,-0.2 -0.7,-0.5 -0.3,-0.6 -0.1,-0.4 0.3,-0.9 0.8,-1 0.8,-0.5 0.4,-0.1 0.6,0.1 0.7,0.6 0.3,0.6 0.2,0.8 -0.3,0.9 -0.5,1.2 -0.2,0.6 0.3,0.6 0.5,0.4 0.7,0.1 0.8,-0.5 0.8,-1.1 m 63.7,-47.6 -2.5,-1.6 -1.7,2.1 0.4,-0.1 0.9,0.2 0.8,0.5 0.6,0.8 0.1,0.8 -0.2,0.9 -0.3,0.5 -0.8,0.6 -0.8,0.2 -0.9,-0.2 -0.8,-0.5 -0.6,-0.8 -0.1,-0.4 0.1,-0.6 m 9.4,2.5 -0.7,0.6 -0.9,0.1 -0.9,-0.2 -0.2,-0.2 -0.6,-0.7 -0.2,-0.8 0.2,-1 0.2,-0.2 0.7,-0.6 0.9,-0.2 0.9,0.3 0.2,0.1 0.6,0.8 0.2,0.8 -0.4,1.2 -0.8,1.2 -1.1,1.1 -1,0.4 -0.9,-0.2 -0.5,-0.3 -0.6,-0.8 0.1,-0.6 m 47.1,-79.5 v 0.6 l 0.6,0.7 0.6,0.3 0.9,0.1 0.9,-0.5 1,-1.2 0.7,-1.4 0.3,-1.2 -0.3,-0.8 -0.7,-0.6 -0.2,-0.2 -1,-0.1 -0.8,0.2 -0.7,0.7 -0.1,0.3 -0.1,0.9 0.2,0.8 0.7,0.7 0.3,0.1 0.9,0.2 0.8,-0.3 0.7,-0.7 m -8,0.7 0.9,0.1 0.9,-0.5 1,-1.2 0.4,-0.8 0.4,-1.5 -0.1,-1.1 -0.7,-0.6 -0.5,-0.3 -1,-0.1 -0.9,0.5 -0.9,1.2 -0.5,0.8 -0.4,1.5 0.2,1 0.6,0.7 0.4,0.2 m 0.4,103.5 h 0.7 l 1.2,-0.3 -3.3,5.4 m 7.8,-2.8 -5.9,3.8 m 2.4,-6 3.5,2.2 m 43.3,-66.1 -0.7,-0.3 h -1.2 l 4.6,-4.3 m -6.6,2.5 0.9,0.4 0.6,-0.2 0.4,-0.4 0.3,-0.6 -0.2,-0.6 -0.6,-1.1 -0.4,-0.9 0.1,-0.8 0.2,-0.7 0.7,-0.6 0.6,-0.2 0.4,0.1 0.9,0.4 0.8,0.9 0.4,0.9 -0.1,0.4 -0.2,0.6 -0.7,0.6 -0.6,0.2 h -0.9 l -0.8,-0.5 -1,-0.7 -0.6,-0.2 -0.7,0.2 -0.4,0.4 -0.3,0.6 0.4,0.9 0.9,1 m 6.6,80.3 -0.1,-0.3 0.2,-0.7 0.2,-0.3 0.6,-0.5 1.1,-0.2 0.7,0.2 0.3,0.2 0.5,0.5 0.1,0.6 -0.2,0.7 -0.4,1 -2.3,3.5 4.1,-0.8 m 3.8,-7.2 -1.7,6.7 m -2.4,-5.9 4.1,-0.8 m -113.2,24.6 0.2,-0.7 -0.4,-0.8 -0.4,-0.5 -0.8,-0.4 -1.1,0.1 -1.3,0.8 -1.1,1 -0.7,1.1 v 0.8 l 0.4,0.9 0.2,0.2 0.8,0.5 h 0.9 l 0.8,-0.4 0.2,-0.2 0.5,-0.8 v -0.9 l -0.4,-0.8 -0.2,-0.3 -0.8,-0.4 h -0.8 l -0.9,0.3 m 5.4,1.8 0.6,0.3 h 1.3 l -4.6,4.3 m 37.8,-10.8 -0.6,-0.2 -1.3,-0.1 4.7,-4.2 m -8.3,0.5 6.7,-2 m -3.9,5.1 -2.8,-3.1 m 28.9,-152.9 -0.3,-0.7 -0.8,-0.3 -0.6,-0.1 -1,0.2 -0.6,0.9 -0.5,1.4 -0.1,1.5 0.2,1.2 0.5,0.7 0.9,0.4 h 0.3 l 0.9,-0.2 0.6,-0.5 0.4,-0.9 0.1,-0.3 -0.3,-0.9 -0.5,-0.7 -0.9,-0.4 h -0.3 l -0.9,0.2 -0.6,0.5 -0.4,0.9 m 7.2,-3.5 -0.9,0.2 -0.7,0.8 -0.5,1.5 v 0.9 l 0.1,1.5 0.5,1 0.9,0.4 h 0.6 l 0.9,-0.2 0.7,-0.8 0.4,-1.5 0.1,-0.9 -0.1,-1.5 -0.5,-1 -0.9,-0.4 h -0.5 m 6.9,-36.1 0.2,0.6 0.9,0.4 h 0.6 l 0.9,-0.2 0.7,-0.8 0.4,-1.5 0.2,-1.5 -0.2,-1.2 -0.6,-0.6 -0.8,-0.4 -0.3,-0.1 -0.9,0.3 -0.7,0.5 -0.4,0.9 v 0.3 l 0.2,0.9 0.5,0.6 0.9,0.4 0.3,0.1 0.9,-0.3 0.7,-0.5 0.4,-0.9 m -5.8,2.2 -0.1,0.3 -0.3,0.6 -0.3,0.2 -0.7,0.3 -1.2,-0.1 -0.5,-0.4 -0.3,-0.3 -0.2,-0.7 V 421 l 0.4,-0.5 0.7,-0.9 3.2,-2.7 -4.1,-0.4 m 14.1,27.3 -0.6,0.3 -0.4,0.8 v 0.6 l 0.2,0.9 0.9,0.7 1.5,0.4 1.4,0.1 1.3,-0.2 0.6,-0.6 0.4,-0.8 v -0.3 l -0.2,-0.9 -0.6,-0.7 -0.9,-0.3 -0.3,-0.1 -0.9,0.3 -0.6,0.5 -0.4,0.9 v 0.3 l 0.2,0.9 0.6,0.7 0.8,0.3 m -3.7,-5.9 0.2,-3.3 2.3,2 v -0.9 l 0.4,-0.6 0.3,-0.3 0.9,-0.2 h 0.6 l 0.9,0.4 0.5,0.6 0.3,1 -0.1,0.9 -0.4,0.8 -0.3,0.3 -0.6,0.3 m -55.7,-103.9 4.3,-2.8 -4.2,-1.6 m -0.1,4.4 2.2,-5.9 m -6.4,4.3 h 1 l 0.9,-0.6 0.8,-1.3 0.3,-0.8 0.2,-1.5 -0.2,-1.1 -0.7,-0.6 -0.6,-0.2 h -1 l -0.8,0.6 -0.8,1.3 -0.4,0.8 -0.2,1.5 0.2,1.1 0.8,0.6 0.4,0.2 m 40.9,36.8 -0.5,-0.5 -0.9,-0.1 -0.6,0.1 -0.8,0.6 -0.4,1 0.1,1.5 0.4,1.5 0.6,1 0.7,0.5 h 1 0.3 l 0.8,-0.6 0.4,-0.7 v -0.9 -0.3 l -0.5,-0.8 -0.8,-0.4 -0.9,-0.1 -0.3,0.1 -0.8,0.5 -0.4,0.7 -0.1,1 m 4.7,-4.1 -0.1,-0.2 0.2,-0.7 0.2,-0.4 0.5,-0.4 1.1,-0.3 0.7,0.1 0.4,0.2 0.4,0.5 0.2,0.6 -0.2,0.7 -0.3,1 -2.2,3.7 4.1,-1.1 m 10.6,-27.3 3.3,-4 -4.5,-0.3 m 1.2,4.3 0.4,-6.3 m -2.9,4.7 -0.6,0.2 -0.9,0.8 0.4,-6.2 m 29.9,45.3 0.3,-0.6 -0.4,-0.9 -0.4,-0.4 -0.9,-0.5 -1,0.2 -1.3,0.8 -1.1,1 -0.7,1.1 v 0.8 l 0.3,0.9 0.3,0.2 0.8,0.5 h 0.8 l 0.9,-0.4 0.2,-0.2 0.5,-0.8 v -0.9 l -0.4,-0.9 -0.2,-0.2 -0.8,-0.4 -0.9,-0.1 -0.8,0.4 m 6.9,1.3 2.2,2.4 -3,0.3 0.6,0.7 0.2,0.6 v 0.5 l -0.4,0.8 -0.5,0.4 -0.8,0.4 h -0.9 l -0.8,-0.5 -0.6,-0.7 -0.4,-0.8 v -0.4 l 0.2,-0.7 m -76.6,270.4 0.5,-0.5 -0.1,-1 -0.3,-0.5 -0.6,-0.7 -1.1,-0.2 -1.5,0.3 -1.3,0.6 -1,0.8 -0.3,0.7 0.1,1 0.1,0.3 0.6,0.7 0.8,0.3 1,-0.1 0.2,-0.1 0.7,-0.7 0.3,-0.8 v -0.9 l -0.2,-0.3 -0.6,-0.7 -0.8,-0.3 -0.9,0.1 m 7.2,5.8 -5.1,-1.1 1.8,4.2 m 3.3,-3.1 -5.8,2.5 m 68,-19.4 -0.1,0.3 -0.4,0.5 -0.4,0.2 -0.7,0.2 -1.1,-0.3 -0.5,-0.5 -0.2,-0.3 -0.2,-0.7 0.2,-0.6 0.4,-0.5 0.8,-0.7 3.7,-2.1 -4.1,-1.1 m -6.6,4.8 4.5,-5.4 m -0.4,6.4 -4.1,-1 m 41.9,-298.8 0.3,0.6 0.9,0.3 h 0.6 l 0.9,-0.3 0.6,-0.9 0.3,-1.6 -0.1,-1.5 -0.3,-1.1 -0.6,-0.6 -0.9,-0.3 h -0.3 l -0.9,0.3 -0.6,0.6 -0.3,0.9 v 0.3 l 0.3,0.9 0.7,0.6 0.9,0.3 h 0.3 l 0.9,-0.3 0.5,-0.6 0.3,-1 m -8.5,4.4 h 3 l 0.2,-2.7 -0.3,0.3 -0.9,0.3 H 426 l -0.9,-0.3 -0.6,-0.6 -0.3,-0.9 V 347 l 0.3,-0.9 0.6,-0.6 0.9,-0.3 h 0.9 l 0.9,0.3 0.3,0.3 0.3,0.5 m 23.9,47.7 0.4,-0.6 0.4,-1.2 2.6,5.8 m -0.2,-7 -0.7,0.6 -0.1,0.7 0.3,0.5 0.5,0.4 0.7,0.1 1.2,-0.3 h 0.9 l 0.8,0.2 0.5,0.5 0.4,0.8 v 0.7 l -0.2,0.4 -0.7,0.6 -1,0.5 -1,0.1 -0.4,-0.2 -0.5,-0.4 -0.4,-0.8 v -0.7 l 0.3,-0.8 0.7,-0.6 1,-0.8 0.4,-0.5 0.1,-0.7 -0.3,-0.5 -0.5,-0.4 -0.9,0.1 -1.3,0.5 m -47,288.4 -0.6,0.2 -0.5,0.8 -0.2,0.6 0.1,0.9 0.7,0.8 1.4,0.7 1.4,0.3 h 1.3 l 0.7,-0.4 0.5,-0.8 0.1,-0.3 -0.1,-0.9 -0.4,-0.7 -0.8,-0.6 h -0.3 -0.9 l -0.8,0.5 -0.5,0.8 v 0.3 0.9 l 0.5,0.7 0.7,0.5 m -1.8,-9.8 5.4,4.5 m -6.4,-0.4 1,-4.1 m -20,23.2 -3.8,3.4 4.4,1 m -0.6,-4.4 -1.3,6.1 m 7.2,-2.6 -0.5,0.8 -0.7,0.4 -0.9,0.1 h -0.3 l -0.8,-0.5 -0.5,-0.7 -0.1,-1 0.1,-0.2 0.5,-0.9 0.7,-0.4 0.9,-0.1 h 0.3 l 0.8,0.5 0.5,0.7 v 1.3 l -0.3,1.4 -0.6,1.4 -0.8,0.8 -0.9,0.1 -0.6,-0.1 -0.8,-0.5 -0.2,-0.7 m 105.8,-373.4 -0.1,0.6 0.6,0.8 0.5,0.3 0.9,0.3 1,-0.4 1.1,-1.1 0.8,-1.2 0.5,-1.2 -0.2,-0.8 -0.6,-0.8 -0.2,-0.1 -0.9,-0.3 -0.9,0.1 -0.7,0.6 -0.2,0.3 -0.3,0.9 0.2,0.8 0.6,0.8 0.2,0.1 0.9,0.3 0.9,-0.1 0.7,-0.6 m -7.8,-0.3 1,0.3 0.5,-0.3 0.4,-0.5 0.1,-0.7 -0.3,-0.6 -0.9,-0.9 -0.5,-0.8 -0.2,-0.8 0.1,-0.7 0.5,-0.7 0.6,-0.3 0.4,-0.1 0.9,0.3 1,0.6 0.6,0.8 0.1,0.4 -0.1,0.7 -0.5,0.7 -0.6,0.3 -0.9,0.2 -0.9,-0.3 -1.1,-0.4 -0.7,-0.1 -0.6,0.3 -0.3,0.5 -0.1,0.7 0.6,0.7 1.1,0.8 m 5.6,28.6 h -0.7 l -0.7,0.6 -0.3,0.5 -0.2,0.9 0.5,1 1.2,1 1.3,0.8 1.1,0.3 0.9,-0.2 0.7,-0.7 0.1,-0.2 0.2,-1 -0.2,-0.8 -0.7,-0.7 -0.2,-0.1 -1,-0.2 -0.8,0.2 -0.7,0.6 -0.1,0.3 -0.2,0.9 0.2,0.8 0.7,0.8 m 1.3,-9.2 h -0.6 l -0.7,0.6 -0.3,0.5 -0.2,1 0.5,0.9 1.1,1 1.3,0.8 1.2,0.3 0.9,-0.2 0.7,-0.7 0.1,-0.2 0.2,-1 -0.2,-0.8 -0.7,-0.7 -0.2,-0.1 -1,-0.2 -0.8,0.2 -0.7,0.6 -0.1,0.3 -0.2,0.9 0.2,0.9 0.6,0.7 m -93.1,-175.2 -0.4,0.5 0.2,1 0.3,0.5 0.6,0.7 1.1,0.1 1.5,-0.4 1.3,-0.7 0.9,-0.9 0.3,-0.8 -0.2,-0.9 -0.1,-0.3 -0.7,-0.6 -0.8,-0.3 -0.9,0.2 -0.3,0.1 -0.7,0.7 -0.2,0.8 0.1,0.9 0.2,0.3 0.7,0.7 0.8,0.2 0.9,-0.1 m -6,-7 0.9,-0.2 0.9,0.3 0.6,0.7 0.2,0.2 0.1,1 -0.2,0.8 -0.7,0.7 -0.3,0.1 -0.9,0.1 -0.8,-0.2 -0.7,-0.7 -0.1,-0.2 -0.2,-1 0.3,-0.8 0.9,-0.8 1.3,-0.7 1.5,-0.4 1.1,0.1 0.7,0.6 0.2,0.6 0.2,0.9 -0.4,0.6 m -38.6,-31.9 0.1,-3 -2.6,-0.4 0.3,0.3 0.2,0.9 v 0.9 l -0.4,0.9 -0.6,0.6 -0.9,0.2 h -0.6 l -0.9,-0.3 -0.6,-0.6 -0.2,-1 v -0.9 l 0.4,-0.8 0.3,-0.3 0.6,-0.3 m 4.8,6.1 -0.1,3.3 -2.3,-1.9 v 0.9 l -0.4,0.6 -0.3,0.3 -0.9,0.3 -0.6,-0.1 -0.9,-0.3 -0.6,-0.6 -0.2,-0.9 V 150 l 0.3,-0.9 0.4,-0.3 0.6,-0.3 m -18.4,571.9 2.2,4.6 2.2,-3.9 m -4.4,-0.7 5.5,3.1 m -1.6,-8.1 h -0.6 l -0.7,0.6 -0.3,0.5 -0.2,1 0.5,0.9 1.1,1 1.3,0.8 1.2,0.3 0.8,-0.2 0.7,-0.7 0.2,-0.2 0.2,-1 -0.3,-0.8 -0.6,-0.7 -0.2,-0.1 -1,-0.2 -0.8,0.2 -0.7,0.6 -0.2,0.3 -0.1,0.9 0.2,0.9 0.6,0.7 m -6.5,-8.3 -4.8,-2.1 1,4.4 m 3.8,-2.3 -6.2,1.3 m 6.8,1.8 0.7,3.3 -2.7,-1.3 0.2,0.9 -0.2,0.6 -0.2,0.4 -0.8,0.5 -0.6,0.1 -1,-0.1 -0.7,-0.4 -0.5,-0.9 -0.2,-0.8 0.1,-1 0.3,-0.3 0.5,-0.5 M 454.4,287 l 5.2,0.2 -2.5,-3.8 m -2.7,3.6 5.3,-3.5 m -7.5,0.1 0.7,0.5 h 0.7 l 0.5,-0.4 0.3,-0.6 -0.1,-0.6 -0.4,-1.2 -0.3,-0.9 0.2,-0.8 0.3,-0.6 0.8,-0.5 0.6,-0.1 0.5,0.1 0.7,0.5 0.7,1 0.2,0.9 v 0.5 l -0.4,0.6 -0.7,0.5 h -0.7 l -0.8,-0.1 -0.8,-0.6 -0.9,-0.8 -0.6,-0.3 h -0.6 l -0.5,0.4 -0.4,0.6 0.3,0.9 0.8,1.1 m -23.6,40.2 -0.5,-5.1 -3.4,2.9 m 3.9,2.2 -4.1,-4.8 m -0.3,8.6 -0.5,-5.1 -3.4,2.9 m 3.9,2.2 -4.1,-4.8 m 10.4,5.6 -0.1,-0.7 -0.8,-0.5 -0.5,-0.2 -1,-0.1 -0.8,0.7 -0.8,1.3 -0.5,1.4 -0.1,1.2 0.3,0.8 0.8,0.6 0.3,0.1 h 0.9 l 0.8,-0.4 0.6,-0.7 0.1,-0.3 v -0.9 l -0.4,-0.8 -0.7,-0.6 -0.3,-0.1 h -1 l -0.7,0.4 -0.6,0.7 m 9.5,-1.1 -2.8,-1 -1.2,2.5 0.4,-0.2 h 0.9 l 0.9,0.3 0.7,0.6 0.4,0.8 v 0.9 l -0.2,0.6 -0.6,0.7 -0.8,0.4 h -0.9 l -0.9,-0.3 -0.7,-0.6 -0.2,-0.4 -0.1,-0.7 m -0.9,-98.3 4.6,2.4 -0.6,-4.5 m -4,2.1 6.3,-0.9 m -7.2,-5.7 6.7,2 m -6.1,2.2 -0.6,-4.2 m -3,5.4 0.3,0.2 0.3,0.6 v 0.4 l -0.1,0.7 -0.7,0.9 -0.6,0.3 -0.4,0.1 -0.7,-0.1 -0.5,-0.4 -0.3,-0.6 -0.3,-1 -0.7,-4.2 -2.5,3.4 m 2.3,7.6 1.8,-2.4 -2,-1.9 0.1,0.4 -0.3,0.9 -0.6,0.8 -0.7,0.5 -0.9,0.1 -0.9,-0.3 -0.5,-0.3 -0.5,-0.8 -0.1,-0.8 0.2,-0.9 0.6,-0.7 0.8,-0.6 0.4,-0.1 0.6,0.2 m -6.3,71.5 -1.5,4.9 4.2,-1.4 m -2.7,-3.5 2,6 m 3.5,-7.8 -1.5,4.9 4.3,-1.3 m -2.8,-3.6 2,6 m -36.6,-13.4 -4.7,2.2 3.9,2.2 m 0.8,-4.4 -3.2,5.5 m 4.7,-2.9 h 0.6 l 1.3,-0.3 -3.2,5.5 m -7.5,-49.1 -3.1,-1.2 2.6,-1.5 -0.9,-0.4 -0.4,-0.5 -0.2,-0.4 0.1,-0.9 0.2,-0.6 0.6,-0.7 0.8,-0.3 h 0.9 l 0.8,0.3 0.8,0.6 0.1,0.4 0.1,0.7 m -9.7,-0.6 0.6,-0.7 0.8,-0.3 h 0.9 l 0.3,0.1 0.7,0.6 0.4,0.8 -0.1,1 -0.1,0.2 -0.6,0.8 -0.8,0.3 H 371 l -0.3,-0.2 -0.7,-0.6 -0.4,-0.7 0.2,-1.3 0.5,-1.4 0.9,-1.2 0.9,-0.7 0.9,0.1 0.6,0.2 0.7,0.6 0.1,0.7 m -10.7,12.2 -4.6,-2.2 0.7,4.4 m 3.9,-2.2 -6.2,1.1 m 6.9,3.3 -0.4,-0.8 -1,-0.5 h -1.5 l -0.9,0.1 -1.5,0.6 -0.8,0.7 -0.1,1 0.1,0.6 0.4,0.8 1,0.4 1.6,0.1 0.8,-0.2 1.5,-0.5 0.8,-0.7 0.1,-1 -0.1,-0.4 m -127.3,86.8 0.7,-0.2 1,-0.8 -0.7,6.2 m 3.6,-6.2 -0.9,0.2 -0.7,0.9 -0.4,1.4 -0.1,0.9 0.1,1.6 0.5,0.9 0.9,0.4 0.6,0.1 0.9,-0.2 0.7,-0.9 0.4,-1.4 0.1,-0.9 -0.1,-1.6 -0.5,-0.9 -0.9,-0.4 h -0.4 m 27.8,-61.6 -0.6,0.1 -1.2,0.5 2.3,-5.9 m -6.3,2.2 0.6,-0.7 0.8,-0.3 h 0.9 l 0.3,0.2 0.7,0.6 0.4,0.7 -0.1,1 -0.1,0.3 -0.6,0.7 -0.8,0.3 h -0.9 l -0.3,-0.1 -0.7,-0.7 -0.4,-0.7 0.2,-1.3 0.6,-1.4 0.8,-1.2 0.9,-0.6 h 0.9 l 0.6,0.2 0.7,0.7 0.1,0.6 m -23.7,7 0.3,0.1 0.3,0.6 0.1,0.4 -0.1,0.7 -0.7,1 -0.5,0.3 -0.5,0.1 -0.6,-0.1 -0.5,-0.3 -0.4,-0.6 -0.4,-1 -0.8,-4.2 -2.3,3.5 m 3.6,6 0.2,-0.9 -0.4,-1 -1.1,-1.1 -0.7,-0.5 -1.4,-0.6 h -1.1 l -0.8,0.6 -0.3,0.5 -0.3,0.9 0.5,1 1,1.1 0.8,0.5 1.4,0.6 h 1.1 l 0.7,-0.6 0.3,-0.4 m -22.3,-5.9 -0.3,-0.1 -0.6,-0.3 -0.2,-0.4 -0.3,-0.6 0.2,-1.2 0.4,-0.5 0.3,-0.3 0.7,-0.2 0.6,0.1 0.5,0.3 0.8,0.8 2.6,3.3 0.6,-4.1 m -5.9,-3.8 0.2,0.9 0.8,0.7 1.4,0.5 0.9,0.2 1.6,-0.1 0.9,-0.5 0.5,-0.8 v -0.6 l -0.1,-1 -0.9,-0.7 -1.4,-0.5 -0.9,-0.1 -1.5,0.1 -1,0.4 -0.4,0.9 -0.1,0.4 m 4.8,-33.2 h -0.3 l -0.6,-0.4 -0.2,-0.3 -0.3,-0.6 v -1.2 l 0.4,-0.6 0.3,-0.3 0.6,-0.2 h 0.6 l 0.6,0.3 0.9,0.7 2.8,3.1 0.2,-4.2 m -4.8,-1.3 -0.3,-0.6 -0.9,-0.9 6.3,0.2 m -20.9,-6 3,-0.4 -0.1,-2.7 -0.3,0.3 -0.8,0.4 -0.9,0.2 -0.9,-0.2 -0.7,-0.5 -0.4,-0.9 -0.1,-0.6 0.2,-0.9 0.5,-0.7 0.8,-0.4 0.9,-0.1 1,0.2 0.3,0.2 0.4,0.6 m -8.3,5.3 0.4,0.6 0.9,0.2 0.6,-0.1 0.8,-0.4 0.5,-1 0.1,-1.5 -0.2,-1.5 -0.5,-1.2 -0.6,-0.5 -1,-0.2 -0.3,0.1 -0.8,0.4 -0.5,0.7 -0.2,0.9 v 0.3 l 0.5,0.9 0.6,0.5 1,0.1 h 0.3 l 0.8,-0.4 0.5,-0.7 0.2,-0.9 m -16.7,19.7 -4.4,-2.7 0.3,4.5 m 4.1,-1.8 -6.3,0.5 m -22.8,25 v 0.3 l -0.4,0.6 -0.3,0.3 -0.6,0.2 -1.2,-0.1 -0.6,-0.4 -0.3,-0.3 -0.2,-0.6 v -0.6 l 0.4,-0.6 0.7,-0.8 3.2,-2.8 -4.2,-0.3 m -3.2,9.1 -0.9,0.4 -0.6,0.9 -0.2,1.5 v 0.9 l 0.4,1.5 0.7,0.9 0.9,0.2 h 0.6 l 0.9,-0.3 0.5,-1 0.2,-1.5 v -0.9 l -0.4,-1.5 -0.6,-0.8 -0.9,-0.3 h -0.5 m -38.8,-3.3 0.6,-0.1 1.2,-0.5 -2,5.9 m -25,-28.3 -3.3,0.5 1.4,-2.6 -0.8,0.1 -0.7,-0.2 -0.3,-0.3 -0.4,-0.8 -0.1,-0.6 0.1,-1 0.6,-0.6 0.8,-0.5 0.9,-0.1 0.9,0.2 0.4,0.2 0.4,0.6 m -29.3,41.9 -2.6,1.6 1.2,2.4 0.1,-0.4 0.6,-0.7 0.8,-0.5 0.9,-0.2 0.8,0.2 0.7,0.6 0.4,0.5 0.2,0.9 -0.2,0.8 -0.6,0.8 -0.8,0.5 -0.9,0.2 -0.4,-0.1 -0.6,-0.4 m 4.9,-9 -2.5,1.6 1.1,2.4 0.1,-0.4 0.6,-0.7 0.8,-0.5 0.9,-0.2 0.8,0.2 0.8,0.6 0.3,0.5 0.2,0.9 -0.2,0.8 -0.6,0.8 -0.7,0.4 -1,0.3 -0.4,-0.1 -0.6,-0.4 m -28.8,-2.2 1.2,3 -2.9,-0.8 0.3,0.8 -0.1,0.7 -0.1,0.4 -0.8,0.6 -0.5,0.2 h -1 l -0.8,-0.3 -0.6,-0.8 -0.3,-0.8 V 300 l 0.2,-0.4 0.4,-0.5 m 6.9,3.7 1.1,3.1 -2.8,-0.8 0.3,0.8 -0.1,0.7 -0.2,0.4 -0.7,0.6 -0.6,0.2 h -0.9 l -0.8,-0.3 -0.6,-0.8 -0.3,-0.8 V 305 l 0.1,-0.4 0.5,-0.5 m 100.6,-53.7 -0.3,-0.1 -0.5,-0.4 -0.2,-0.4 -0.2,-0.6 0.3,-1.2 0.4,-0.5 0.4,-0.2 0.6,-0.2 0.6,0.2 0.5,0.4 0.8,0.8 2.2,3.6 1,-4.1 m 45,66.2 0.3,-2.9 -2.6,-0.7 0.2,0.4 0.2,0.9 -0.1,0.9 -0.4,0.9 -0.6,0.5 -1,0.2 -0.6,-0.1 -0.8,-0.4 -0.5,-0.7 -0.2,-0.9 0.1,-0.9 0.4,-0.9 0.3,-0.2 0.6,-0.2 m 4.2,9 -3.9,-3.5 -0.5,4.5 m 4.4,-1 -6.3,-0.8 m 24.8,22.5 -5.4,4.5 m 1.5,-6.2 3.9,1.7 m -85.6,-113.2 -0.2,3.3 -2.3,-1.9 -0.1,0.9 -0.3,0.6 -0.3,0.3 -0.9,0.3 -0.6,-0.1 -0.9,-0.3 -0.6,-0.6 -0.2,-1 v -0.9 l 0.4,-0.8 0.3,-0.3 0.6,-0.3 m 12.1,-1.7 4.6,-2.5 -4.1,-1.9 m -0.5,4.4 2.8,-5.7 m 331.9,338 0.1,0.7 0.7,0.5 0.6,0.2 h 0.9 l 0.9,-0.7 0.7,-1.3 0.5,-1.4 0.1,-1.3 -0.4,-0.7 -0.8,-0.6 -0.3,-0.1 H 460 l -0.8,0.4 -0.5,0.8 -0.1,0.3 v 0.9 l 0.4,0.8 0.7,0.5 0.3,0.1 h 1 l 0.7,-0.4 0.6,-0.7 m -9.3,0.5 0.1,0.6 0.8,0.6 0.6,0.2 h 0.9 l 0.9,-0.7 0.7,-1.4 0.5,-1.4 0.1,-1.2 -0.4,-0.8 -0.8,-0.5 -0.3,-0.1 h -0.9 l -0.8,0.4 -0.5,0.7 -0.1,0.3 v 1 l 0.4,0.7 0.7,0.6 0.3,0.1 h 1 l 0.7,-0.4 0.6,-0.8 m 19,40.6 0.1,3 2.7,0.3 -0.3,-0.3 -0.3,-0.9 v -0.9 l 0.2,-0.9 0.6,-0.6 0.9,-0.3 h 0.6 l 0.9,0.3 0.6,0.6 0.4,0.9 v 0.9 l -0.3,0.9 -0.3,0.3 -0.6,0.3 m -3.8,-5.2 -0.3,-0.6 -0.9,-0.9 6.3,-0.1 m -23.7,34.6 0.5,-0.5 v -0.9 l -0.2,-0.6 -0.5,-0.8 -1,-0.3 -1.5,0.1 -1.5,0.4 -1.1,0.6 -0.4,0.8 v 0.9 l 0.1,0.3 0.5,0.8 0.8,0.4 h 0.9 0.3 l 0.8,-0.6 0.4,-0.7 v -1 l -0.1,-0.3 -0.5,-0.7 -0.7,-0.4 -1,-0.1 m 6.6,7.6 -6.9,-1.1 m 5.7,-2.9 1.2,4 m 36.8,23.6 2,2.3 2.2,-1.6 h -0.4 l -0.8,-0.5 -0.6,-0.7 -0.4,-0.8 0.1,-0.9 0.4,-0.8 0.5,-0.4 0.8,-0.4 0.9,0.1 0.8,0.4 0.6,0.7 0.4,0.9 v 0.4 l -0.3,0.6 m -8.6,-1.9 0.9,0.5 1,-0.2 1.4,-0.8 0.6,-0.6 0.9,-1.2 0.3,-1 -0.4,-0.9 -0.4,-0.5 -0.8,-0.4 -1.1,0.1 -1.3,0.8 -0.7,0.6 -0.9,1.2 -0.2,1.1 0.3,0.9 0.3,0.3 m -2.8,18.6 3.1,-1.2 -0.8,2.9 0.8,-0.3 h 0.7 l 0.4,0.2 0.6,0.7 0.2,0.6 v 0.9 l -0.3,0.8 -0.7,0.6 -0.9,0.3 -0.9,0.1 -0.4,-0.2 -0.5,-0.4 m 6.5,-8 -2.8,1.1 0.7,2.6 0.2,-0.4 0.7,-0.6 0.8,-0.3 h 1 l 0.8,0.3 0.6,0.7 0.2,0.6 v 0.9 l -0.3,0.8 -0.8,0.6 -0.8,0.3 -0.9,0.1 -0.4,-0.2 -0.5,-0.4 m -53.6,-3.9 2.3,-4.6 -4.4,0.7 m 2.1,3.9 -0.9,-6.2 m -5.9,5.1 0.2,-0.9 0.5,-0.7 0.8,-0.5 h 0.3 l 1,0.2 0.6,0.5 0.5,0.8 v 0.3 l -0.1,0.9 -0.5,0.7 -0.9,0.5 h -0.3 l -0.9,-0.2 -0.7,-0.5 -0.5,-1.1 -0.2,-1.5 0.1,-1.5 0.4,-1 0.9,-0.4 0.6,-0.1 0.9,0.1 0.4,0.6 m -2.6,15.9 -5,-0.9 1.8,4 m 3.2,-3.1 -5.7,2.7 m 7.4,3.4 0.5,-0.5 -0.1,-0.9 -0.3,-0.6 -0.6,-0.7 -1.1,-0.1 -1.5,0.3 -1.4,0.6 -0.9,0.8 -0.3,0.8 0.1,0.9 0.1,0.3 0.6,0.7 0.8,0.3 1,-0.1 0.3,-0.1 0.7,-0.7 0.3,-0.8 -0.1,-0.9 -0.2,-0.3 -0.6,-0.7 -0.8,-0.3 -1,0.1 m 35.3,30.2 h -0.3 l -0.6,-0.3 -0.3,-0.3 -0.3,-0.6 v -1.2 l 0.3,-0.6 0.3,-0.3 0.6,-0.3 h 0.6 l 0.6,0.3 0.9,0.6 3,3 v -4.2 m -4.1,-5 0.9,0.3 0.6,0.6 0.3,0.9 v 0.3 l -0.3,0.9 -0.6,0.6 -1,0.3 h -0.3 l -0.8,-0.3 -0.6,-0.6 -0.3,-0.9 v -0.3 l 0.3,-0.9 0.6,-0.6 1.2,-0.3 h 1.5 l 1.5,0.3 0.9,0.6 0.3,0.9 v 0.6 l -0.3,0.9 -0.6,0.3 m -12.1,4 -5,1.5 3.6,2.7 m 1.4,-4.2 -3.9,5 m 8.8,-1.2 -2.4,-1.8 -1.9,2 0.4,-0.1 0.9,0.3 0.7,0.6 0.6,0.7 0.1,0.9 -0.4,0.9 -0.3,0.5 -0.8,0.5 -0.8,0.1 -0.9,-0.3 -0.8,-0.6 -0.5,-0.8 v -0.4 l 0.1,-0.6 M 35.3,248.7 35,252 l -2.2,-2.1 -0.1,0.9 -0.3,0.6 -0.3,0.3 -1,0.2 -0.6,-0.1 -0.8,-0.3 -0.6,-0.7 -0.2,-0.9 0.1,-0.9 0.4,-0.9 0.3,-0.2 0.6,-0.3 m 4.4,7.6 -0.2,-0.9 -0.8,-0.7 -1.5,-0.4 -0.9,-0.1 -1.5,0.1 -1,0.5 -0.3,0.9 -0.1,0.6 0.2,0.9 0.9,0.7 1.4,0.5 h 0.9 l 1.6,-0.1 0.9,-0.5 0.4,-0.9 v -0.5 m 8.7,-12.7 2.1,2.1 2.2,-1.6 h -0.5 l -0.8,-0.5 -0.6,-0.6 -0.4,-0.9 v -0.8 l 0.4,-0.9 0.5,-0.4 0.8,-0.4 H 48 l 0.8,0.5 0.6,0.6 0.4,0.9 v 0.4 l -0.2,0.7 m -9.2,-3.6 -0.2,0.6 0.4,0.9 0.4,0.4 0.8,0.5 1.1,-0.2 1.3,-0.9 1.1,-1 0.6,-1 v -0.9 l -0.4,-0.8 -0.2,-0.3 -0.8,-0.4 h -0.9 l -0.8,0.4 -0.2,0.2 -0.5,0.8 v 0.9 l 0.4,0.8 0.2,0.2 0.9,0.5 h 0.8 l 0.9,-0.4 M 374.6,99.7 v 3.3 l -2.4,-1.8 v 0.9 l -0.3,0.6 -0.3,0.3 -0.9,0.3 -0.6,0.1 -0.9,-0.3 -0.6,-0.6 -0.3,-0.9 v -0.9 l 0.3,-0.9 0.3,-0.3 0.6,-0.3 m 5.3,8.4 -4.3,-3 0.1,4.5 m 4.2,-1.5 -6.3,0.1 m 27.3,-19.3 3,-0.2 0.1,-2.7 -0.3,0.3 -0.9,0.4 -0.9,0.1 -0.9,-0.3 -0.7,-0.5 -0.3,-0.9 -0.1,-0.6 0.3,-0.9 0.5,-0.7 0.9,-0.3 0.9,-0.1 0.9,0.2 0.3,0.3 0.4,0.6 m -6.8,5.6 0.9,-0.3 0.5,-1 0.2,-1.5 V 85 l -0.5,-1.5 -0.6,-0.8 -1,-0.3 -0.6,0.1 -0.8,0.4 -0.6,0.9 -0.1,1.5 v 0.9 l 0.5,1.5 0.6,0.9 0.9,0.2 0.5,-0.1 m 36.3,25.8 1.3,2.7 2.6,-0.8 -0.4,-0.2 -0.7,-0.7 -0.4,-0.8 -0.1,-0.9 0.3,-0.8 0.7,-0.7 0.6,-0.2 0.9,-0.1 0.8,0.3 0.7,0.7 0.3,0.8 0.1,0.9 -0.1,0.4 -0.4,0.5 m -5.6,-3.2 -0.5,-0.4 -1.2,-0.5 5.7,-2.6 m -9,59.5 0.2,-0.6 -0.4,-0.8 -0.5,-0.5 -0.8,-0.4 -1.1,0.3 -1.2,0.8 -1.1,1.1 -0.6,1.1 v 0.8 l 0.5,0.9 0.2,0.2 0.8,0.4 h 0.9 l 0.8,-0.5 0.2,-0.2 0.4,-0.8 v -0.9 l -0.4,-0.8 -0.2,-0.2 -0.9,-0.4 H 420 l -0.9,0.4 m 7.9,4.7 -0.8,0.4 -0.9,0.1 -0.8,-0.4 -0.2,-0.3 -0.5,-0.8 v -0.8 l 0.4,-0.9 0.2,-0.2 0.9,-0.5 h 0.8 l 0.9,0.4 0.2,0.2 0.4,0.9 v 0.8 l -0.6,1.1 -1,1.1 -1.3,0.9 -1,0.2 -0.9,-0.4 -0.4,-0.4 -0.4,-0.9 0.1,-0.6 m 11.4,-10.4 h -0.7 l -0.6,0.8 -0.2,0.5 v 1 l 0.6,0.8 1.3,0.9 1.4,0.5 1.2,0.2 0.8,-0.4 0.6,-0.7 0.1,-0.3 0.1,-0.9 -0.4,-0.8 -0.7,-0.6 -0.3,-0.1 -0.9,-0.1 -0.8,0.4 -0.6,0.7 -0.1,0.3 -0.1,0.9 0.4,0.8 0.7,0.6 m -1.6,-7.6 v 0.9 l 0.4,0.5 0.6,0.2 h 0.7 l 0.5,-0.5 0.7,-1 0.6,-0.7 0.8,-0.4 h 0.6 l 0.9,0.3 0.4,0.5 0.2,0.4 -0.1,0.9 -0.4,1.2 -0.6,0.7 -0.4,0.2 H 438 l -0.9,-0.3 -0.4,-0.5 -0.4,-0.8 0.1,-0.9 0.1,-1.3 -0.1,-0.6 -0.4,-0.5 -0.6,-0.2 h -0.6 l -0.6,0.8 -0.5,1.2 m -324.9,31.7 -2.8,-1.1 -1.2,2.5 0.3,-0.2 h 1 l 0.8,0.3 0.8,0.6 0.3,0.8 v 0.9 l -0.2,0.6 -0.6,0.7 -0.7,0.4 h -1 l -0.8,-0.3 -0.8,-0.6 -0.2,-0.4 v -0.7 m 9.7,-1.9 -4.2,2.9 4.2,1.5 m 0,-4.4 -2.1,5.9 m 22,-15.2 -0.3,1 0.5,1 1.1,1 0.7,0.5 1.4,0.6 1.1,-0.1 0.8,-0.5 0.3,-0.5 0.2,-1 -0.4,-1 -1.1,-1 -0.8,-0.5 -1.4,-0.6 h -1.1 l -0.7,0.6 -0.3,0.4 m -15.8,-35.3 -0.2,-0.9 0.2,-0.8 0.7,-0.7 0.2,-0.2 1,-0.2 0.8,0.3 0.7,0.6 0.1,0.2 0.2,1 -0.2,0.8 -0.6,0.7 -0.3,0.2 -0.9,0.1 -0.8,-0.2 -0.9,-0.9 -0.7,-1.3 -0.5,-1.4 v -1.1 l 0.7,-0.7 0.5,-0.3 0.9,-0.2 0.6,0.4 m 42.3,-29.5 -0.1,0.7 v 1.2 l -4.7,-4.1 m 3.8,5.6 -2.2,2.5 -0.6,-3 -0.6,0.7 -0.6,0.3 h -0.5 l -0.8,-0.4 -0.5,-0.4 -0.5,-0.8 v -0.8 l 0.3,-0.9 0.6,-0.7 0.8,-0.5 h 0.5 l 0.6,0.2 m 30.5,1.6 -0.1,0.3 -0.6,0.4 -0.4,0.1 h -0.7 l -1,-0.6 -0.4,-0.6 -0.1,-0.4 v -0.7 l 0.3,-0.5 0.6,-0.4 0.9,-0.4 4.1,-1.2 -3.6,-2 m -3.8,3.3 -0.2,0.3 -0.5,0.4 -0.5,0.1 -0.6,-0.1 -1.1,-0.5 -0.3,-0.6 -0.2,-0.4 0.1,-0.7 0.3,-0.5 0.5,-0.4 1,-0.5 4.1,-1.1 -3.7,-2.1 m -9.7,63.3 h 0.7 l 1.2,-0.4 -2.9,5.6 m 46.2,-32.2 -0.2,0.2 -0.7,0.2 -0.4,-0.1 -0.6,-0.2 -0.8,-1 -0.1,-0.6 v -0.5 l 0.3,-0.6 0.5,-0.3 0.6,-0.2 1.1,-0.1 4.2,0.4 -2.6,-3.2 m -7.7,0.7 5.2,-0.4 -2.9,-3.4 m -2.3,3.8 4.9,-4 m 34.8,38.2 -0.2,0.2 -0.5,0.3 -0.5,0.1 -0.6,-0.1 -1,-0.6 -0.3,-0.6 -0.1,-0.4 0.1,-0.7 0.3,-0.5 0.6,-0.3 1,-0.4 4.1,-0.9 -3.4,-2.3 m -5.8,3.7 1,0.3 0.5,-0.3 0.4,-0.5 0.1,-0.7 -0.4,-0.6 -0.8,-0.9 -0.6,-0.8 -0.1,-0.8 0.1,-0.7 0.5,-0.7 0.5,-0.3 0.5,-0.1 0.9,0.2 1,0.7 0.6,0.8 v 0.4 l -0.1,0.6 -0.5,0.8 -0.5,0.3 -0.9,0.2 -0.9,-0.3 -1.2,-0.4 -0.6,-0.1 -0.6,0.3 -0.3,0.5 -0.1,0.7 0.6,0.8 1.1,0.7 m 5.8,26.1 1.2,-3.1 1.6,2.6 0.3,-0.8 0.5,-0.5 0.4,-0.1 h 0.9 l 0.6,0.2 0.7,0.6 0.3,0.8 v 1 l -0.3,0.8 -0.7,0.7 -0.3,0.2 -0.7,0.1 m -1.2,-6.8 -0.3,-0.1 -0.4,-0.5 -0.2,-0.4 v -0.7 l 0.4,-1.1 0.5,-0.5 0.4,-0.1 0.7,-0.1 0.5,0.2 0.5,0.5 0.6,0.9 1.7,3.9 1.5,-3.9 m -38.4,1.7 -2.7,-1.2 -1.4,2.4 0.4,-0.2 1,0.1 0.8,0.4 0.7,0.6 0.3,0.8 -0.1,0.9 -0.2,0.6 -0.6,0.7 -0.8,0.3 -1,-0.1 -0.8,-0.3 -0.7,-0.7 -0.2,-0.4 v -0.6 m 10.2,-1.2 -2.7,-1.2 -1.4,2.4 0.4,-0.2 1,0.1 0.8,0.4 0.7,0.6 0.3,0.8 -0.1,1 -0.2,0.5 -0.7,0.7 -0.7,0.3 -1,-0.1 -0.8,-0.3 -0.7,-0.7 -0.2,-0.3 v -0.7 m -36.8,331.2 0.4,-0.9 -0.3,-0.6 -0.4,-0.4 -0.7,-0.2 -0.6,0.3 -1,0.7 -0.8,0.6 h -0.9 l -0.6,-0.1 -0.7,-0.6 -0.3,-0.6 v -0.4 l 0.3,-0.9 0.8,-0.9 0.8,-0.5 0.4,-0.1 0.7,0.2 0.7,0.5 0.2,0.7 0.1,0.8 -0.3,0.9 -0.6,1.1 -0.1,0.7 0.3,0.6 0.4,0.4 0.7,0.1 0.8,-0.5 0.8,-1 m 41.3,44.5 -0.3,-3.3 2.5,1.6 -0.1,-0.9 0.3,-0.7 0.2,-0.3 0.9,-0.4 h 0.6 l 0.9,0.2 0.7,0.5 0.4,0.9 v 0.9 l -0.2,0.9 -0.2,0.3 -0.6,0.4 m -6,-8.9 6.6,2.4 m -6.2,1.8 -0.4,-4.2 m -15.9,34.9 2.7,-1.9 -0.1,3 0.8,-0.6 0.6,-0.1 0.4,0.1 0.8,0.5 0.4,0.5 0.3,0.9 -0.2,0.9 -0.5,0.7 -0.7,0.6 -0.9,0.3 -0.4,-0.1 -0.6,-0.3 m 2.4,-8.2 -0.5,0.8 0.1,0.7 0.4,0.4 0.6,0.3 0.6,-0.1 1.2,-0.4 0.9,-0.3 0.8,0.1 0.6,0.3 0.5,0.7 0.2,0.7 -0.1,0.4 -0.6,0.8 -0.9,0.7 -0.9,0.3 -0.4,-0.1 -0.6,-0.3 -0.6,-0.7 -0.1,-0.7 0.1,-0.8 0.6,-0.8 0.8,-0.9 0.3,-0.6 -0.1,-0.7 -0.4,-0.5 -0.6,-0.3 -0.9,0.3 -1.1,0.8 m -62.2,-34.5 -0.2,0.6 -0.2,1.3 -3.9,-4.9 m 1.8,4.9 0.2,0.2 0.2,0.7 -0.1,0.4 -0.2,0.6 -1,0.8 -0.6,0.1 h -0.5 l -0.6,-0.3 -0.3,-0.5 -0.2,-0.6 -0.1,-1.1 0.4,-4.2 -3.2,2.6 m 0.3,20.5 0.5,0.4 1.2,0.4 -5.6,2.9 m 7.8,0.7 -5.1,-0.7 2.1,4 m 3,-3.3 -5.5,2.9 m 16.1,26.9 0.4,0.5 1.1,0.7 -6.1,1.4 m 7.4,3.1 -0.7,-2.9 -2.7,0.3 0.4,0.2 0.5,0.9 0.2,0.8 -0.1,1 -0.5,0.7 -0.8,0.5 -0.6,0.1 -0.9,-0.1 -0.7,-0.4 -0.5,-0.8 -0.2,-0.9 0.1,-1 0.2,-0.3 0.5,-0.4 m -29.3,23.6 -0.6,0.4 -0.9,0.9 -0.2,-6.3 m -4.6,5.7 0.4,0.6 0.9,0.3 h 0.6 l 0.9,-0.3 0.5,-1 0.3,-1.5 -0.1,-1.5 -0.3,-1.1 -0.6,-0.6 -0.9,-0.3 h -0.3 l -0.9,0.3 -0.6,0.7 -0.3,0.9 v 0.3 l 0.4,0.9 0.6,0.5 0.9,0.3 h 0.3 l 0.9,-0.3 0.6,-0.7 0.2,-0.9 m -24.7,18.4 0.3,-0.1 0.6,0.2 0.4,0.3 0.4,0.5 0.2,1.2 -0.3,0.7 -0.2,0.3 -0.5,0.4 -0.6,0.1 -0.7,-0.2 -1,-0.5 -3.4,-2.5 0.7,4.2 m 6.4,0.7 0.6,3.3 -2.7,-1.4 0.1,0.9 -0.2,0.6 -0.2,0.3 -0.8,0.5 -0.6,0.1 -1,-0.2 -0.7,-0.5 -0.4,-0.8 -0.1,-0.9 0.1,-1 0.3,-0.3 0.5,-0.4 m 40.7,46.4 4.3,2.8 -0.1,-4.5 m -4.2,1.7 6.3,-0.2 m -4.8,-3 h -0.3 l -0.6,-0.3 -0.3,-0.3 -0.3,-0.6 -0.1,-1.2 0.3,-0.6 0.3,-0.3 0.6,-0.3 h 0.6 l 0.6,0.2 0.9,0.6 3.1,2.9 -0.1,-4.2 m -26,19 -3.4,3.9 4.5,0.4 m -1.1,-4.3 -0.6,6.3 m 3.8,-5.9 3.3,0.3 -2.1,2.2 0.9,0.1 0.6,0.4 0.3,0.3 0.2,0.9 -0.1,0.6 -0.4,0.9 -0.6,0.5 -0.9,0.2 -0.9,-0.1 -0.9,-0.4 -0.3,-0.3 -0.2,-0.6 m -43.9,-20.7 -4.9,1.8 3.8,2.5 m 1.1,-4.3 -3.6,5.2 m 8.7,-1.6 -2.5,-1.7 -1.8,2.1 0.5,-0.1 0.9,0.2 0.7,0.5 0.6,0.8 0.2,0.8 -0.3,0.9 -0.3,0.5 -0.8,0.6 -0.8,0.2 -0.9,-0.3 -0.8,-0.5 -0.6,-0.7 v -0.5 l 0.1,-0.6 m 7.4,-10.3 0.1,0.3 -0.2,0.7 -0.2,0.4 -0.5,0.4 -1.2,0.3 -0.6,-0.2 -0.4,-0.2 -0.4,-0.5 -0.2,-0.6 0.2,-0.6 0.3,-1.1 2.2,-3.6 -4,1 m -3.3,6.4 0.4,0.5 0.9,0.1 0.6,-0.1 0.8,-0.6 0.4,-1 -0.1,-1.5 -0.3,-1.5 -0.6,-1 -0.8,-0.5 -0.9,-0.1 -0.3,0.1 -0.8,0.5 -0.4,0.7 -0.1,1 0.1,0.3 0.5,0.8 0.7,0.4 0.9,0.1 0.3,-0.1 0.8,-0.5 0.5,-0.7 0.1,-1 m 144.7,-30.3 h -0.7 l -0.6,0.7 -0.3,0.5 -0.1,1 0.5,0.9 1.2,1 1.3,0.6 1.3,0.3 0.8,-0.3 0.6,-0.6 0.2,-0.3 0.1,-0.9 -0.3,-0.8 -0.6,-0.7 -0.3,-0.1 -0.9,-0.2 -0.8,0.3 -0.7,0.7 -0.1,0.2 -0.2,1 0.3,0.8 0.6,0.6 m -0.2,-5.6 v -0.7 l -0.4,-1.2 5.6,2.8 m -11.4,-30.6 2.3,2 2,-1.9 h -0.4 l -0.9,-0.3 -0.7,-0.6 -0.5,-0.8 -0.1,-0.9 0.4,-0.8 0.4,-0.5 0.8,-0.5 0.8,-0.1 0.9,0.4 0.7,0.6 0.5,0.8 v 0.4 l -0.1,0.7 m -10.5,-2.2 6.4,-2.9 m -3.2,5.6 -3.2,-2.7 m -20.2,67.3 -0.6,-0.4 -0.9,0.3 -0.5,0.3 -0.6,0.7 v 1.1 l 0.5,1.4 0.9,1.3 0.9,0.8 0.8,0.2 0.9,-0.2 0.3,-0.2 0.5,-0.7 0.2,-0.9 -0.2,-0.9 -0.2,-0.2 -0.7,-0.6 -0.8,-0.2 -1,0.2 -0.2,0.2 -0.6,0.7 -0.2,0.9 0.3,0.9 m 4.5,-8 -0.2,5.1 3.8,-2.4 m -3.6,-2.7 3.4,5.3 m -32.7,-11.1 -5.1,0.4 2.8,3.4 m 2.3,-3.8 -4.9,4 m 5.7,-0.5 0.2,-0.2 0.7,-0.2 0.4,0.1 0.6,0.2 0.8,1 0.1,0.6 v 0.4 l -0.3,0.6 -0.4,0.4 -0.7,0.2 -1.1,0.1 -4.2,-0.4 2.7,3.2 m 34,-229.6 -0.6,-2.9 -2.7,0.3 0.3,0.2 0.5,0.8 0.2,0.9 -0.1,0.9 -0.4,0.7 -0.9,0.5 -0.5,0.2 -1,-0.1 -0.7,-0.5 -0.5,-0.8 -0.2,-0.9 0.1,-0.9 0.3,-0.4 0.5,-0.4 m 74,-3.3 -0.6,-3.3 2.7,1.4 -0.2,-0.9 0.2,-0.6 0.3,-0.3 0.8,-0.5 0.6,-0.1 1,0.2 0.6,0.5 0.5,0.8 0.1,0.9 -0.1,0.9 -0.3,0.4 -0.5,0.4 m -5.6,-8.2 -0.6,0.4 -0.1,1 0.1,0.5 0.4,0.9 1,0.4 1.6,0.1 1.4,-0.3 1.2,-0.5 0.5,-0.7 0.1,-0.9 v -0.3 l -0.5,-0.8 -0.7,-0.5 -0.9,-0.2 -0.3,0.1 -0.8,0.4 -0.5,0.7 -0.2,1 0.1,0.2 0.4,0.9 0.7,0.5 0.9,0.1 m -77.5,-36.4 0.6,-0.2 0.3,-0.9 v -0.6 l -0.2,-0.9 -0.9,-0.7 -1.5,-0.3 -1.5,-0.1 -1.2,0.3 -0.6,0.6 -0.4,0.9 v 0.3 l 0.3,0.9 0.6,0.6 0.9,0.3 h 0.3 l 0.9,-0.2 0.6,-0.6 0.3,-0.9 v -0.3 l -0.2,-0.9 -0.6,-0.6 -0.9,-0.4 m 18.8,-31.3 -0.3,0.6 -0.1,1.2 -4.1,-4.7 m 2.1,6.9 0.4,-0.9 -0.1,-1 -0.8,-1.4 -0.6,-0.6 -1.2,-1 -1,-0.2 -0.9,0.3 -0.5,0.4 -0.4,0.8 0.1,1.1 0.8,1.3 0.6,0.7 1.2,0.9 1,0.3 0.9,-0.3 0.3,-0.3 m 33.9,20.7 -0.6,-0.2 -1.2,-0.2 4.8,-3.9 m -4.6,2.4 -0.6,-0.3 -1.3,-0.1 4.9,-4 m 109.4,-262.2 -2.3,2.3 -0.4,-2.9 -0.7,0.6 -0.6,0.2 h -0.4 l -0.9,-0.4 -0.4,-0.4 -0.4,-0.8 -0.1,-0.9 0.5,-0.9 0.6,-0.6 0.8,-0.4 h 0.5 l 0.6,0.2 m -1,6.3 -0.3,0.7 0.1,1.2 -4.5,-4.4 m 13,4.3 0.6,3 2.7,-0.2 -0.4,-0.2 -0.4,-0.9 -0.2,-0.9 0.1,-0.9 0.5,-0.7 0.9,-0.4 0.5,-0.2 1,0.2 0.7,0.5 0.4,0.8 0.2,0.9 -0.1,0.9 -0.3,0.4 -0.5,0.4 m -6.1,-5 -0.6,-3.2 2.7,1.3 -0.2,-0.8 0.2,-0.7 0.3,-0.3 0.8,-0.5 0.6,-0.1 0.9,0.1 0.7,0.5 0.5,0.9 0.1,0.8 -0.1,1 -0.2,0.3 -0.6,0.4"
       id="nums_001"
       stroke="#000000"
       stroke-width="1" />
    <path
       d="m 22.685271,288.31165 6.6,-71.8 36.6,38.2 40.199999,-5.6 2,-40.6 36.8,17.8 -10.7,46.9 47.9,4 -3.2,-40.8 52.4,-7.1 -1.8,38.4 -6,43.7 24.6,-36.6 40.1,16.2 -33.4,-27.6 29.2,-25.1 -1.7,-72.1 -17.9,-30.8 -5.9,-41.000003 -40.3,8.000003 -38.7,-21.300003 -42.3,-7.6 -8.8,41.500003 -37.199999,40.6 47.699999,-27.3 28,-31.900003 37.5,21.000003 27.8,34.2 34.1,23 -15.4,38.5 -65.4,-28.4 -33.1,-16.9 -25.1,39 -40.599999,-14.7 -41.6,32.9 -28.5,-36.8 -5.3,-53.7 42.1,-39.000003 32.4,-20.1 6.3,-41.6 16.499999,-23.5 55.9,37.7 46.8,-29 34,29.1 50.3,-7.9 26.4,37.7 19.9,39.400003 -19.7,45.2 34.4,-35.2 7.7,42.4 1.7,-43.1 -0.6,-44.100003 54.8,-4.5 28.7,63.000003 -17.5,45.3 -24.5,-23.6 15.7,30.2 -52.5,44.7 -41.4,-7.4 15,55.6 -40.1,34.2 53.3,20.2 50.1,3.3 41.3,-0.8 -39,-13.8 22.7,-19.5 -28.5,9.1 -43.5,-24.8 -9.4,-56.3 49,19.1 34.1,-46.5 6.2,41.6 38.7,57.2 40,27.6 -26.4,46.6 -68.6,31 -35.6,-38.2 -36.8,9.6 -50.7,16.2 52,11.5 37.9,3.6 -3.7,52.1 -48,-4.6 43,21.9 51,55.4 50.9,16.2 0.9,69.2 36.8,40.8 -43,16.4 -0.2,51 -35.9,-27.7 -19.6,-43.1 37.8,-6 -17,-59.2 -59.3,12.2 -58.8,-36.8 -32.3,-20.9 25.1,29.1 46.1,51.8 58.6,15.5 -15.3,59.7 -37.4,-8.1 -23.4,41.2 -11.8,-53.6 -18.9,-43.3 -35.2,-38.3 -51.4,7.9 27,-35.7 -26.5,-35.6 4.1,44.2 -36,26.6 39.7,33.8 -23.4,46.4 -39.6,25.6 -32.8,-39.8 1.7,51.6 -54.599999,-5.6 -37.5,-25.4 43.4,-10.8 -8.5,-54.4 67.399999,-2.1 -6.4,-28 -19.4,-37.4 29.5,-24 36.7,-44.2 -11.5,-52.8 1.6,-46.5 29.3,-25.8 55.7,68.2 6.1,36.4 12.4,-34.8 -28.7,-83.2 -38.9,-3.8 -48.1,-22.3 5.1,-42.9 -46.3,2.3 -35.199999,-11.6 -60.6,37.7 z"
       id="coupes_001"
       stroke="#ff0000"
       stroke-width="1.27"
       sodipodi:nodetypes="ccccccccccccccccccccccccccccccccccccccccccccccccccccccccccccccccccccccccccccccccccccccccccccccccccccccccccccccccccccccccccccccccccccccccccc" />
    <path
       d="m 339.4,464.3 -63.3,16 m 25.1,-78.6 38.2,62.6 m -50.9,-18.8 12.7,-43.8 m -41.4,-39.4 41.4,39.4 m -41.4,-39.4 44.5,-42.2 m 0,0 -3.1,81.6 m -41.4,-39.4 29.1,-71.2 m 0,0 15.4,29 m -15.4,-29 55.5,-5.2 m -55.5,5.2 -4.2,-52.7 m 0,0 44.7,-8.1 m -6.5,-67.7 6.5,67.7 m -46.4,-64 39.9,-3.7 m -57.8,-27.1 77.5,-18.1 M 265.1,135.5 322.7,78 M 259.2,94.5 322.7,78 M 259.2,94.5 246,48.2 M 218.9,102.5 246,48.2 m -65.8,33 65.8,-33 m -65.8,33 -15,-33.1 M 137.9,73.6 165.2,48.1 M 137.9,73.6 92.8,33.9 m 45.1,39.7 -51.4,1.9 M 129.1,115.1 86.5,75.5 M 91.9,155.7 54.1,95.6 M 91.9,155.7 12,134.6 m 79.9,21.1 -4.5,36.5 m 0,0 -70.1,-3.9 m 305.6,-25.7 42.1,7.2 m 0,0 -35.6,60.5 M 365,169.8 423.3,193 m -83.9,271.3 -45.7,89.4 m 0,0 -17.6,-73.4 m 17.6,73.4 -63.1,-9.4 m 0,0 45.5,-64 m 17.6,73.4 -36.6,26.2 m 96.1,-166.7 -13.8,51.1 m -20.6,118.5 -37.3,24.9 m 0,0 -24.4,-27.8 M 382.4,486.2 326,574.6 m 107.4,-33 -48.6,69.8 m 48.6,-69.8 10.7,57.6 M 318.8,582.8 316.7,646 m 48.2,-11.4 -48.2,11.4 m 40.9,-305.7 -5.7,45.2 m 5.7,-45.2 31.1,35.6 m 19,-32.3 -19,32.3 m -23.8,258.7 5.9,67.1 m 0,0 -35.2,-12.4 m 87.9,-39.2 -52.7,51.6 M 449,342.8 424.3,414.1 m 24.7,-71.3 43.9,40.3 M 449,342.8 479.3,308.9 M 365,169.8 l 42.6,-7 m -40.9,-36.1 40.9,36.1 m 25.1,146.7 46.6,-0.6 M 449,342.8 432.7,309.5 m 0,0 7.9,-57.8 m -40.3,4.9 40.3,-4.9 m -7.9,57.8 -32.4,-52.9 m -39.6,37.2 39.6,-37.2 m -176.1,54.9 64.7,-20.4 m -29.1,71.2 -35.6,-50.8 m -3.3,47 3.3,-47 m -46.3,-18.2 46.3,18.2 m -41.4,-34.2 41.4,34.2 m -41.4,-34.2 47.4,-9.5 m -47.4,9.5 49.2,-47.9 m -54.1,63.9 -43,-20 m -3.3,22.3 3.3,-22.3 M 96.4,284 134.9,273.3 M 96.4,284 106.8,249.2 m 0,0 28.1,24.1 m -38.5,10.7 -73,4.4 m 0,0 43.2,-33.6 m 40.2,-5.6 38.8,-22.8 m 338.7,331.4 -40.2,41.4 m 41.1,27.8 -41.1,-27.8 m 41.1,27.8 -24.1,31.4 m 17.9,25.8 -55.7,-19.8 m 55.7,19.8 -36.1,23.3 m 6.7,-566.4 -42,21.7 m -315.7,-7.1 61.2,12.2 m -13.5,-39.5 13.5,39.5 m 52,-50.4 -52,50.4 m 79.8,-16.2 -46.7,33.1 m 8.7,316 81.2,-20.5 m -45.5,64 -35.7,-43.5 m 35.7,43.5 -72.4,0.7 m 40.5,70.1 -40.5,-70.1 m 40.5,70.1 -70,-46.1 m 70,46.1 -50.6,-8.7 m 50.6,8.7 -44.2,19.3 m 44.2,-19.3 16.3,80.2 m 0,0 -72.4,-14.2 m 0,0 11.9,-46.7 m -11.9,46.7 -55.5,-44.6 m 55.5,44.6 -47,9.8 m -5.9,36.2 5.9,-36.2 M 183.4,448 276.1,480.3 M 183.4,448 270,443.9"
       id="plisM_001"
       stroke="#a52a2a"
       stroke-dasharray="4" />
    <path
       d="m 288.5,445.5 50.9,18.8 m -54.7,-225.9 59.7,47.5 m -59.7,-47.5 38.2,-75.8 m -39.9,3.7 59.6,-48.9 M 259.2,94.5 296.3,40.3 M 180.2,81.2 212,19.1 M 137.9,73.6 109.3,10.4 m 19.8,104.7 -75,-19.5 M 87.4,192.2 12,134.6 m 411.3,58.4 -93.9,37.3 m -25.1,89.8 47.6,65.4 m -33.1,197.3 -61.7,-2.9 M 339.4,464.3 326,574.6 m 56.4,-88.4 2.4,125.2 m -31.6,-198.2 34.2,55.7 m 20.3,-125.3 16.6,70.5 m -59.4,220.5 -29.3,54.7 m 143.7,-380.4 13.6,74.2 m -88.7,-64.5 -3.9,-62 m -179.4,101.9 -43,-65.2 m 0,0 4.9,-16 M 96.4,284 66.6,254.8 m 455.4,413 -60.9,-9.4 m 17.9,25.8 -17.9,-25.8 m -94.4,-531.7 82.9,14.4 m -83.5,-58.5 83.5,58.5 M 91.9,155.7 128,206.9 m 39.6,-110.4 -14.5,71.4 m 52,-50.4 -18.9,67.3 M 267,174.7 186.2,184.8 M 234.7,588.5 158.2,545 M 215,695.3 154.5,634.4 m -10.2,98.3 -48.7,-41.8 m 89.4,-289.4 85,42.4"
       id="plisV_001"
       stroke="#008000"
       stroke-dasharray="4, 1, 1, 1"
       stroke-width="1.27" />
    <path
       d="m 312,452.9 4,4 m 0,-4 -4,4 m 0.5,-196.8 4,4 m 0,-4 -4,4 m -10.7,-65.6 4,4 m 0,-4 -4,4 m 9,-62.7 4,4 m 0,-4 -4,4 m -35.1,-78.4 4,4 m 0,-4 -4,4 m -81.6,-21.2 4,4 m 0,-4 -4,4 M 121.6,40 l 4,4 m 0,-4 -4,4 m -32,59.4 4,4 m 0,-4 -4,4 m -41.9,54 4,4 m 0,-4 -4,4 m 326.6,44.3 4,4 m 0,-4 -4,4 m -48.2,137.1 4,4 m 0,-4 -4,4 m -40.1,224.6 4,4 m 0,-4 -4,4 m 44.7,-65.9 4,4 m 0,-4 -4,4 m 50.9,25.3 4,4 m 0,-4 -4,4 m -13.3,-111.7 4,4 m 0,-4 -4,4 m 45.7,-66.3 4,4 m 0,-4 -4,4 m -65.7,279.2 4,4 m 0,-4 -4,4 m 135.8,-320 4,4 m 0,-4 -4,4 m -83.8,-62.4 4,4 m 0,-4 -4,4 m -202.9,34.3 4,4 m 0,-4 -4,4 m -19,-44.6 4,4 m 0,-4 -4,4 m -98.9,-19.9 4,4 m 0,-4 -4,4 m 410,389.7 4,4 m 0,-4 -4,4 m -21.5,4.2 4,4 m 0,-4 -4,4 m -61.8,-541.4 4,4 m 0,-4 -4,4 m -0.3,-26.1 4,4 m 0,-4 -4,4 m -297.9,65.5 4,4 m 0,-4 -4,4 m 50.4,-53.1 4,4 m 0,-4 -4,4 m 35.2,14.9 4,4 m 0,-4 -4,4 m 31,24.7 4,4 m 0,-4 -4,4 m -30.2,383 4,4 m 0,-4 -4,4 m -11.7,94.1 4,4 m 0,-4 -4,4 m -64.7,42.9 4,4 m 0,-4 -4,4 m 107.5,-293.1 4,4 m 0,-4 -4,4"
       id="marqueV_001"
       stroke="#008000" />
    <path
       d="m 286.2,352.5 1.5,-0.7 2.2,-2.3 v 15.8"
       id="titre_1"
       stroke="#4b0082" />
  </g>
</svg>
