<?xml version="1.0" encoding="UTF-8" standalone="no"?>
<svg
   height="841.88977pt"
   viewBox="0 0 532.99998 754.00001"
   width="595.27557pt"
   version="1.1"
   id="svg1"
   sodipodi:docname="Citrouille272_H15_A4x4.svg"
   inkscape:version="1.3 (0e150ed6c4, 2023-07-21)"
   xmlns:inkscape="http://www.inkscape.org/namespaces/inkscape"
   xmlns:sodipodi="http://sodipodi.sourceforge.net/DTD/sodipodi-0.dtd"
   xmlns="http://www.w3.org/2000/svg"
   xmlns:svg="http://www.w3.org/2000/svg">
  <defs
     id="defs1" />
  <sodipodi:namedview
     id="namedview1"
     pagecolor="#ffffff"
     bordercolor="#000000"
     borderopacity="0.25"
     inkscape:showpageshadow="2"
     inkscape:pageopacity="0.0"
     inkscape:pagecheckerboard="0"
     inkscape:deskcolor="#d1d1d1"
     inkscape:document-units="mm"
     showgrid="false"
     inkscape:zoom="0.43149585"
     inkscape:cx="1509.8639"
     inkscape:cy="580.53861"
     inkscape:window-width="1920"
     inkscape:window-height="1057"
     inkscape:window-x="-8"
     inkscape:window-y="-8"
     inkscape:window-maximized="1"
     inkscape:current-layer="svg1" />
  <style
     type="text/css"
     id="style1"><![CDATA[
			path {
				fill: none;
			}
		]]></style>
  <g
     id="page_001">
    <path
       d="m 430.5,41.8 -3.2,0.5 1.4,-2.6 -0.9,0.1 -0.7,-0.2 -0.3,-0.2 -0.4,-0.9 -0.1,-0.6 0.1,-0.9 0.5,-0.7 0.8,-0.4 0.9,-0.2 1,0.2 0.3,0.2 0.4,0.6 m -5,6 -3.3,0.5 1.4,-2.7 -0.9,0.2 -0.6,-0.2 -0.4,-0.3 -0.4,-0.8 -0.1,-0.6 0.1,-0.9 0.5,-0.7 0.9,-0.5 0.9,-0.1 0.9,0.1 0.3,0.3 0.4,0.5 m 19.4,76.2 0.6,-0.1 1.2,-0.5 -2.3,5.9 m 2.9,-4.4 0.6,-0.1 1.2,-0.5 -2.3,5.9 m 4,-5.4 3.1,1.1 -2.6,1.6 0.9,0.4 0.4,0.5 0.2,0.3 -0.1,1 -0.2,0.6 -0.6,0.7 -0.8,0.3 h -0.9 l -0.8,-0.3 -0.8,-0.6 -0.1,-0.4 -0.1,-0.7 m 4.5,-31.1 -0.4,-0.5 -1,-0.7 6.1,-1.2 m -6.9,-1.7 0.5,0.8 1,0.5 h 1.5 l 0.9,-0.2 1.4,-0.6 0.8,-0.7 0.1,-1 -0.1,-0.6 -0.5,-0.8 -1,-0.4 h -1.5 l -0.9,0.1 -1.4,0.6 -0.8,0.8 -0.1,0.9 0.1,0.5 m -1,-5.1 0.5,0.8 1,0.4 h 1.5 l 0.9,-0.2 1.4,-0.5 0.8,-0.8 0.1,-0.9 -0.1,-0.6 -0.5,-0.8 -1,-0.5 h -1.5 l -0.9,0.2 -1.4,0.6 -0.8,0.7 -0.1,1 0.1,0.4 m -57.6,34.8 0.6,-0.4 0.7,-1.1 1.1,6.2 m 0.1,-5.2 0.6,-0.4 0.7,-1 1.1,6.2 m 3.5,-7.3 -2.9,0.6 0.2,2.7 0.2,-0.4 0.8,-0.4 0.9,-0.2 1,0.2 0.7,0.4 0.4,0.9 0.1,0.6 -0.1,0.9 -0.5,0.7 -0.8,0.5 -0.9,0.1 -1,-0.1 -0.3,-0.3 -0.4,-0.5 m -20.8,-52.4 0.2,-5.1 -3.8,2.4 m 3.6,2.7 -3.4,-5.3 m -1.9,8.6 2.5,-1.6 -1.2,-2.4 -0.1,0.4 -0.6,0.7 -0.8,0.5 -0.9,0.2 -0.8,-0.1 -0.7,-0.6 -0.4,-0.6 -0.2,-0.9 0.2,-0.8 0.6,-0.7 0.8,-0.5 0.9,-0.2 h 0.4 l 0.6,0.4 m -60.7,32.7 2.9,-0.8 -0.4,-2.7 -0.2,0.4 -0.8,0.5 -0.8,0.2 h -1 l -0.7,-0.5 -0.5,-0.8 -0.2,-0.5 0.1,-1 0.4,-0.7 0.8,-0.5 0.9,-0.3 0.9,0.1 0.4,0.2 0.4,0.5 m -7.3,7.2 2.9,-0.7 -0.4,-2.7 -0.2,0.3 -0.8,0.6 -0.9,0.2 -0.9,-0.1 -0.8,-0.4 -0.5,-0.8 -0.1,-0.6 v -0.9 l 0.4,-0.8 0.8,-0.5 0.9,-0.2 h 1 l 0.3,0.3 0.5,0.5 m 12.8,88 v -0.7 l -0.2,-1.2 5.3,3.4 m -3.7,-3.7 V 174 l -0.2,-1.3 5.3,3.5 m -1,-6.7 0.6,0.8 0.2,0.8 -0.3,0.9 -0.1,0.3 -0.8,0.6 -0.8,0.1 -0.9,-0.2 -0.3,-0.2 -0.6,-0.7 -0.1,-0.8 0.2,-1 0.2,-0.2 0.7,-0.6 0.8,-0.2 1.2,0.4 1.3,0.8 1.1,1.1 0.4,1 -0.3,0.9 -0.3,0.5 -0.7,0.6 -0.7,-0.1 m -65,-51.6 0.7,0.1 0.8,-0.5 0.3,-0.4 0.3,-0.9 -0.3,-1.1 -1,-1.1 -1.1,-1 -1.2,-0.5 -0.8,0.1 -0.8,0.5 -0.2,0.3 -0.3,0.9 0.1,0.8 0.5,0.8 0.2,0.2 0.9,0.3 0.9,-0.1 0.8,-0.5 0.1,-0.2 0.4,-0.9 -0.1,-0.9 -0.5,-0.8 m -2.8,8.9 0.6,0.1 0.8,-0.5 0.4,-0.5 0.3,-0.9 -0.3,-1 -1,-1.2 -1.2,-0.9 -1.1,-0.5 -0.9,0.1 -0.7,0.5 -0.2,0.2 -0.4,0.9 0.1,0.9 0.6,0.8 0.2,0.2 0.9,0.3 0.8,-0.1 0.8,-0.5 0.2,-0.3 0.3,-0.9 -0.1,-0.8 -0.5,-0.8 m 27.7,110.5 0.1,-0.7 -0.3,-1.3 5.4,3.3 m -3.4,-4 -0.3,-0.2 -0.3,-0.5 -0.1,-0.4 v -0.7 l 0.6,-1 0.6,-0.4 0.4,-0.1 0.7,0.1 0.5,0.3 0.3,0.5 0.5,1 1,4.1 2.2,-3.5 m -3.2,-4 -0.3,-0.1 -0.4,-0.6 -0.1,-0.4 0.1,-0.7 0.6,-1 0.6,-0.3 0.4,-0.1 h 0.7 l 0.5,0.3 0.3,0.6 0.5,1 1,4.1 2.2,-3.6 m -93,-59.4 0.7,-7 m 3.2,5.5 -3.9,1.5 m -1.6,0.6 -3.1,1.1 0.8,-2.9 -0.8,0.3 h -0.7 l -0.4,-0.2 -0.6,-0.8 -0.2,-0.5 v -1 l 0.4,-0.8 0.7,-0.5 0.9,-0.3 0.9,-0.1 0.4,0.2 0.5,0.5 m 28.8,66.8 -0.4,0.6 -0.2,1.3 -3.5,-5.3 m 1.4,5.1 0.2,0.3 0.1,0.6 -0.1,0.5 -0.3,0.5 -1,0.7 -0.7,0.1 -0.4,-0.1 -0.6,-0.3 -0.3,-0.5 -0.1,-0.7 v -1 l 0.8,-4.2 -3.5,2.4 m -0.9,7.1 0.6,0.3 0.9,-0.2 0.5,-0.4 0.6,-0.7 V 232 l -0.6,-1.4 -0.9,-1.3 -0.9,-0.8 -0.8,-0.1 -1,0.2 -0.2,0.2 -0.6,0.7 -0.1,0.9 0.2,0.9 0.2,0.2 0.7,0.6 0.9,0.2 0.9,-0.3 0.2,-0.2 0.6,-0.7 0.2,-0.8 -0.3,-1 m -13.9,-20.2 0.5,-0.4 0.7,-1.1 1.4,6.2 m 0.5,-5.3 v -0.3 l 0.1,-0.6 0.2,-0.4 0.6,-0.4 1.1,-0.3 0.7,0.2 0.3,0.2 0.5,0.5 0.1,0.6 -0.2,0.7 -0.4,1 -2.2,3.5 4.1,-0.9 m 3.4,-6.3 -0.4,-0.5 -0.9,-0.1 -0.6,0.1 -0.8,0.5 -0.4,1 v 1.6 l 0.3,1.4 0.6,1.1 0.7,0.5 0.9,0.1 0.3,-0.1 0.9,-0.5 0.4,-0.7 0.1,-0.9 -0.1,-0.3 -0.4,-0.8 -0.8,-0.5 -0.9,-0.1 -0.3,0.1 -0.8,0.5 -0.5,0.7 -0.1,0.9 m -70.5,-26.1 1.2,-6.9 m 2.8,5.8 -4,1.1 m -2.6,0.7 0.8,-0.5 0.2,-0.7 -0.2,-0.6 -0.4,-0.5 -0.7,-0.1 h -1.2 -1 l -0.7,-0.4 -0.5,-0.5 -0.2,-0.9 0.1,-0.7 0.2,-0.3 0.8,-0.6 1.2,-0.3 0.9,0.1 0.4,0.2 0.4,0.5 0.3,0.8 -0.2,0.7 -0.4,0.7 -0.8,0.6 -1,0.6 -0.5,0.4 -0.2,0.7 0.2,0.6 0.4,0.5 h 1 l 1.3,-0.3 m 16.3,55.9 0.2,-0.7 -0.1,-1.2 4.8,4 m -2.7,-4.5 -0.3,-0.2 -0.2,-0.6 -0.1,-0.4 0.2,-0.7 0.8,-0.9 0.6,-0.2 0.4,-0.1 0.7,0.2 0.4,0.4 0.3,0.6 0.3,1 0.3,4.3 2.7,-3.2 m 0.1,-6.6 0.5,0.8 0.1,0.8 -0.4,0.9 -0.2,0.3 -0.8,0.4 -0.8,0.1 -0.9,-0.3 -0.2,-0.2 -0.5,-0.8 -0.1,-0.9 0.3,-0.9 0.2,-0.2 0.8,-0.5 0.9,-0.1 1.1,0.6 1.1,1 1,1.2 0.3,1 -0.4,0.9 -0.3,0.4 -0.9,0.5 -0.6,-0.1 m -45.6,14.5 0.6,-0.3 1,-0.9 -0.1,6.3 m 1.8,-6.5 h 3.3 l -1.8,2.4 h 0.9 l 0.6,0.3 0.3,0.3 0.2,0.9 v 0.6 l -0.3,0.9 -0.6,0.6 -0.9,0.3 h -0.9 l -0.9,-0.3 -0.3,-0.3 -0.3,-0.6 m 8.6,-5.1 -3.1,4.2 4.5,0.1 m -1.4,-4.3 -0.1,6.3 M 98,188.7 l 0.9,-0.2 0.4,-0.6 0.1,-0.6 -0.3,-0.6 -0.6,-0.4 -1.1,-0.4 -0.9,-0.4 -0.5,-0.6 -0.3,-0.7 0.1,-0.8 0.4,-0.6 0.3,-0.3 0.9,-0.2 1.2,0.1 0.9,0.4 0.2,0.3 0.3,0.6 -0.1,0.9 -0.4,0.6 -0.6,0.5 -0.9,0.3 -1.2,0.2 -0.7,0.2 -0.3,0.6 -0.1,0.6 0.3,0.6 0.8,0.4 1.4,0.1 m -4.6,-0.4 -3.3,-0.3 2,-2.3 h -0.9 l -0.5,-0.4 -0.3,-0.3 -0.2,-0.9 v -0.6 l 0.4,-0.9 0.7,-0.5 0.9,-0.3 0.9,0.1 0.9,0.4 0.2,0.3 0.3,0.6 m -21.2,74.3 0.5,-0.5 0.7,-1 1.3,6.1 m 0.3,-6.7 3.3,-0.7 -1.3,2.7 0.9,-0.1 0.6,0.1 0.4,0.3 0.5,0.8 0.1,0.6 -0.1,0.9 -0.5,0.7 -0.8,0.5 -0.9,0.2 -0.9,-0.1 -0.4,-0.3 -0.4,-0.5 m 7.9,-6 -0.4,-0.5 -1,-0.1 -0.6,0.1 -0.8,0.5 -0.4,1 v 1.6 l 0.3,1.4 0.6,1.1 0.7,0.5 0.9,0.1 0.3,-0.1 0.9,-0.4 0.4,-0.8 0.1,-0.9 v -0.3 l -0.5,-0.8 -0.7,-0.5 -1,-0.1 -0.3,0.1 -0.8,0.5 -0.4,0.7 -0.2,0.9 m -31.6,-59 0.6,-0.7 -0.1,-0.7 -0.3,-0.5 -0.6,-0.3 h -0.6 l -1.2,0.4 -0.9,0.2 -0.9,-0.2 -0.5,-0.3 -0.5,-0.8 -0.1,-0.7 0.1,-0.4 0.6,-0.7 1.1,-0.6 0.9,-0.3 0.4,0.1 0.6,0.4 0.4,0.8 0.1,0.6 -0.2,0.9 -0.6,0.7 -0.9,0.9 -0.3,0.5 v 0.7 l 0.3,0.5 0.6,0.4 0.9,-0.2 1.2,-0.8 m -4.1,0.9 -0.3,0.6 -0.3,1.2 -3.3,-5.4 m -4.3,33.5 0.6,0.3 1.3,0.2 -5.1,3.7 m 6.3,-2.5 1.9,2.7 h -3 l 0.6,0.7 0.1,0.6 -0.1,0.5 -0.5,0.7 -0.5,0.4 -0.9,0.3 -0.9,-0.1 -0.7,-0.6 -0.6,-0.7 -0.3,-0.9 0.1,-0.4 0.3,-0.6 m 9.7,4.5 -6.9,1.3 m 4.4,-4.7 2.5,3.4 m 214,53.7 -0.2,-0.7 -0.6,-1.1 6.1,1.8 m -4.4,-3 -0.2,-0.1 -0.5,-0.4 -0.2,-0.4 -0.1,-0.7 0.3,-1.1 0.5,-0.5 0.3,-0.2 0.7,-0.1 0.6,0.1 0.5,0.5 0.7,0.8 2,3.8 1.2,-4 m -5.6,-3.5 1,-3.2 1.8,2.4 0.2,-0.8 0.5,-0.5 0.4,-0.2 h 0.9 l 0.6,0.1 0.8,0.6 0.4,0.7 v 1 l -0.3,0.8 -0.5,0.8 -0.4,0.2 -0.6,0.1 m -54.9,5.9 h 0.6 l 1.2,-0.6 -2.1,6 m 3.2,-4.3 0.1,-0.2 0.5,-0.5 0.4,-0.2 0.6,-0.1 1.2,0.4 0.5,0.5 0.1,0.4 0.1,0.6 -0.2,0.6 -0.4,0.5 -0.9,0.6 -3.8,1.9 4,1.3 m 4.5,-5.1 H 220 l -0.5,0.5 -0.2,0.6 0.1,0.6 0.5,0.5 1,0.7 0.8,0.5 0.3,0.8 0.1,0.7 -0.3,0.8 -0.4,0.5 -0.4,0.2 h -1 l -1.1,-0.4 -0.8,-0.6 -0.1,-0.4 -0.1,-0.6 0.2,-0.9 0.5,-0.5 0.8,-0.3 h 0.9 l 1.3,0.1 0.6,-0.1 0.5,-0.5 0.2,-0.6 -0.1,-0.6 -0.7,-0.6 -1.3,-0.4 m -28.9,-32 -0.1,0.6 0.4,1.3 -5.5,-3.1 m 3.5,3.9 0.3,0.1 0.4,0.6 0.1,0.4 -0.1,0.7 -0.5,1 -0.6,0.4 -0.4,0.1 h -0.7 l -0.5,-0.3 -0.4,-0.6 -0.5,-1 -1.1,-4.1 -2.1,3.7 m 1.2,6.5 -0.6,-0.7 -0.3,-0.9 0.2,-0.9 0.2,-0.3 0.7,-0.6 0.8,-0.2 0.9,0.2 0.3,0.1 0.6,0.7 0.2,0.8 -0.1,1 -0.2,0.2 -0.7,0.7 -0.8,0.2 -1.2,-0.3 -1.3,-0.8 -1.2,-1 -0.5,-0.9 0.2,-1 0.3,-0.5 0.7,-0.6 h 0.7 m 205.7,-46.3 -0.3,-0.6 -0.8,-1 6.3,0.7 m -4.9,-1.6 -0.3,-0.7 -0.7,-1 6.2,0.8 m -5.8,-6 5.9,3.8 m -6.4,0.4 0.5,-4.2 m -46.1,-34.6 0.1,0.6 0.5,1.2 -5.9,-2 m 4.5,2.6 v 0.7 l 0.6,1.1 -6,-2 m 2.6,6.2 -0.7,-0.6 -0.4,-0.7 v -1 l 0.1,-0.3 0.5,-0.7 0.8,-0.4 h 1 l 0.2,0.1 0.8,0.6 0.4,0.7 v 1 l -0.1,0.3 -0.6,0.7 -0.8,0.4 -1.2,-0.1 -1.4,-0.5 -1.3,-0.7 -0.7,-0.9 v -1 l 0.2,-0.5 0.6,-0.8 0.6,-0.1 m 8.3,113.9 0.5,-0.4 0.8,-1 0.7,6.3 m 1.1,-5.2 v -0.3 l 0.2,-0.6 0.3,-0.3 0.5,-0.4 1.2,-0.1 0.7,0.2 0.3,0.3 0.4,0.5 v 0.6 l -0.2,0.7 -0.5,0.9 -2.7,3.3 4.2,-0.4 m 2.2,-6.6 -0.8,0.4 -0.5,0.9 -0.1,1.6 0.1,0.9 0.4,1.4 0.7,0.9 0.9,0.2 0.6,-0.1 0.9,-0.4 0.5,-1 0.1,-1.5 -0.1,-0.9 -0.4,-1.4 -0.7,-0.9 -1,-0.2 -0.4,0.1 m -39.2,-58.5 v 0.7 l 0.2,1.3 -5.3,-3.4 m 3.4,4.1 0.2,0.1 0.4,0.6 0.1,0.4 -0.1,0.7 -0.6,1 -0.6,0.4 h -0.4 -0.7 l -0.5,-0.3 -0.3,-0.6 -0.5,-1 -0.9,-4.1 -2.3,3.5 m 3.2,4 0.3,0.1 0.3,0.6 0.1,0.4 -0.1,0.7 -0.6,1 -0.6,0.4 -0.4,0.1 -0.7,-0.1 -0.5,-0.3 -0.3,-0.6 -0.5,-1 -0.9,-4.1 -2.2,3.5 m -10.7,46.3 0.3,0.6 0.9,0.9 -6.3,0.1 m 5.1,1.6 h 0.3 l 0.6,0.3 0.3,0.3 0.3,0.6 v 1.2 l -0.3,0.6 -0.3,0.3 -0.6,0.3 h -0.6 l -0.6,-0.3 -0.9,-0.6 -3,-3 v 4.2 m 6.3,1.7 v 3.3 l -2.4,-1.8 v 0.9 l -0.3,0.6 -0.3,0.3 -0.9,0.3 h -0.6 l -0.9,-0.2 -0.6,-0.6 -0.3,-0.9 v -0.9 l 0.3,-0.9 0.3,-0.3 0.6,-0.3 m -46.5,82.7 v 0.7 l 0.6,1.1 -5.9,-2.2 m 4.1,3.3 0.3,0.1 0.4,0.5 0.2,0.4 v 0.7 l -0.4,1.1 -0.5,0.5 -0.4,0.1 -0.6,0.1 -0.6,-0.2 -0.4,-0.5 -0.7,-0.9 -1.7,-3.9 -1.5,4 m 4.2,6.6 1.1,-2.8 -2.5,-1.2 0.2,0.4 v 0.9 l -0.3,0.9 -0.6,0.7 -0.8,0.3 h -1 l -0.5,-0.2 -0.8,-0.6 -0.3,-0.8 v -0.9 l 0.4,-0.9 0.6,-0.7 0.3,-0.2 0.7,-0.1 m 8.8,-63.6 -0.7,0.1 -1,0.7 1.3,-6.1 m -2.7,4.5 -0.1,0.3 -0.4,0.5 -0.3,0.3 -0.7,0.1 -1.2,-0.2 -0.5,-0.4 -0.2,-0.4 -0.2,-0.7 0.1,-0.5 0.5,-0.6 0.7,-0.7 3.6,-2.3 -4.1,-0.9 m -3.9,5.6 0.9,-0.1 0.4,-0.5 0.2,-0.6 -0.2,-0.7 -0.5,-0.4 -1.1,-0.5 -0.8,-0.5 -0.5,-0.7 -0.2,-0.7 0.2,-0.9 0.4,-0.5 0.4,-0.2 0.9,-0.1 1.2,0.2 0.8,0.5 0.3,0.4 0.1,0.6 -0.2,0.9 -0.4,0.5 -0.7,0.5 -0.9,0.1 h -1.3 l -0.6,0.2 -0.4,0.5 -0.2,0.6 0.2,0.7 0.8,0.4 1.3,0.3 m -53.3,-2.7 -0.4,0.6 -0.3,1.2 -3.2,-5.4 m 1.9,6.5 -2.9,1.7 0.3,-3 -0.7,0.4 -0.7,0.1 -0.4,-0.1 -0.7,-0.6 -0.3,-0.5 -0.3,-1 0.3,-0.8 0.6,-0.7 0.7,-0.5 1,-0.2 0.4,0.1 0.5,0.4 m -4.6,8.8 0.4,-5.2 -3.8,2.3 m 3.4,2.9 -3.2,-5.4 m 230.8,-188.6 -0.7,0.3 -0.9,0.8 0.1,-6.3 m -1.1,5.1 -0.6,0.3 -0.9,0.9 V 126 m -4.8,6.5 h 3 l 0.4,-2.7 -0.3,0.3 -0.9,0.3 h -0.9 l -0.9,-0.3 -0.6,-0.6 -0.3,-0.9 V 128 l 0.3,-0.9 0.6,-0.6 0.9,-0.3 h 0.9 l 0.9,0.3 0.3,0.3 0.3,0.6 m -58.9,244.3 0.4,-0.5 0.5,-1.2 2.4,5.9 m -0.4,-5.3 -0.1,-0.3 v -0.7 l 0.2,-0.4 0.4,-0.5 1.2,-0.4 h 0.6 l 0.4,0.2 0.5,0.4 0.3,0.6 -0.1,0.7 -0.2,1 -1.6,3.9 3.8,-1.6 m -0.8,-4.9 0.4,-0.5 0.5,-1.2 2.4,5.9 m 9.6,-60.5 -0.7,0.3 -0.9,0.8 0.6,-6.3 m -2.2,4.8 v 0.3 l -0.4,0.6 -0.3,0.3 -0.6,0.2 -1.2,-0.1 -0.6,-0.4 -0.2,-0.3 -0.3,-0.6 0.1,-0.6 0.3,-0.6 0.7,-0.8 3.3,-2.7 -4.2,-0.4 m -3.5,6 0.9,-0.2 0.7,-0.9 0.4,-1.4 0.1,-0.9 -0.2,-1.6 -0.5,-0.9 -0.8,-0.4 h -0.6 l -1,0.2 -0.6,0.8 -0.5,1.5 -0.1,0.9 0.2,1.5 0.5,0.9 0.9,0.4 0.4,0.1 m 47.8,-20.7 0.6,-0.3 0.9,-0.9 -0.2,6.3 m 1.3,-5.1 0.6,-0.3 0.9,-0.8 -0.2,6.3 m 2.8,-6.5 -0.9,0.3 -0.3,0.6 v 0.6 l 0.3,0.6 0.6,0.3 1.2,0.4 0.9,0.3 0.5,0.6 0.3,0.6 v 0.9 l -0.3,0.6 -0.3,0.3 -0.9,0.3 -1.2,-0.1 -0.9,-0.3 -0.3,-0.3 -0.3,-0.6 V 295 l 0.3,-0.6 0.7,-0.6 0.9,-0.3 1.2,-0.2 0.6,-0.3 0.3,-0.6 v -0.6 l -0.3,-0.6 -0.9,-0.3 -1.3,-0.1 m 9.5,-72.6 -0.1,0.7 0.3,1.2 -5.4,-3.2 m 3.9,3.5 -0.1,0.7 0.3,1.2 -5.4,-3.2 m 2.9,7.8 -3.8,-5.8 m 6,2.2 -2.2,3.6 m 23.9,-3.3 -0.7,-0.1 -1.2,0.2 3.6,-5.2 m -3.8,3.6 -0.7,-0.1 -1.2,0.3 3.5,-5.2 m -7,1.9 -0.1,0.7 0.5,0.7 0.5,0.4 0.9,0.2 1,-0.4 1.1,-1 0.9,-1.3 0.4,-1.1 -0.1,-0.9 -0.6,-0.7 -0.2,-0.2 -1,-0.3 -0.8,0.2 -0.8,0.6 -0.1,0.2 -0.3,0.9 0.2,0.9 0.5,0.7 0.3,0.2 0.9,0.2 0.8,-0.1 0.8,-0.6 m -13.7,-27.7 0.6,-0.3 0.9,-0.9 -0.1,6.3 m 1.1,-5.1 0.6,-0.3 1,-0.9 -0.2,6.3 m 4.9,-5.5 -0.3,-0.6 -0.9,-0.3 h -0.6 l -0.9,0.3 -0.6,0.8 -0.3,1.5 -0.1,1.5 0.3,1.2 0.6,0.7 0.9,0.3 h 0.3 l 0.9,-0.3 0.6,-0.6 0.3,-0.9 v -0.3 l -0.3,-0.9 -0.5,-0.6 -0.9,-0.3 h -0.3 l -0.9,0.3 -0.7,0.5 -0.3,0.9 m 8.1,-25.3 -0.5,-0.6 -1.1,-0.6 6.2,-1.5 m -5.2,0.2 -0.5,-0.6 -1.1,-0.6 6.2,-1.5 m -7.4,-2.6 4.7,1.9 -1,-4.4 m -3.7,2.5 6.1,-1.5 m -215.6,218.1 0.2,-0.6 V 375 l 4.5,4.4 m -2.4,-4.7 -0.3,-0.2 -0.2,-0.6 v -0.4 l 0.2,-0.7 0.9,-0.8 0.6,-0.3 h 0.4 l 0.7,0.2 0.4,0.5 0.2,0.6 0.2,1.1 0.1,4.2 2.9,-3 m -1.2,-7.8 -2.1,2.2 1.7,2.1 v -0.5 l 0.5,-0.8 0.6,-0.7 0.8,-0.4 h 0.9 l 0.8,0.4 0.5,0.4 0.4,0.9 v 0.8 l -0.4,0.9 -0.6,0.6 -0.9,0.4 -0.4,0.1 -0.7,-0.3 m -73.4,-26.2 v 0.7 l 0.4,1.2 -5.6,-2.9 m 5,4.5 -1.5,3 -1.3,-2.7 -0.4,0.8 -0.6,0.4 -0.4,0.1 -0.9,-0.1 -0.5,-0.3 -0.7,-0.7 -0.3,-0.8 0.2,-0.9 0.4,-0.8 0.7,-0.7 0.4,-0.1 h 0.6 m -0.3,9.9 h 0.7 l 0.6,-0.7 0.3,-0.5 0.2,-1 -0.6,-0.9 -1.2,-1 -1.3,-0.6 -1.2,-0.3 -0.8,0.2 -0.7,0.7 -0.1,0.3 -0.2,0.9 0.3,0.8 0.7,0.7 0.2,0.1 1,0.2 0.8,-0.3 0.6,-0.7 0.2,-0.2 0.1,-1 -0.2,-0.8 -0.7,-0.6 m 64.9,78.4 -0.4,-0.5 -1.2,-0.6 6.1,-1.7 m -6.7,0.1 -0.9,-3.2 2.8,1.1 -0.3,-0.9 0.1,-0.6 0.2,-0.4 0.8,-0.5 0.6,-0.2 h 0.9 l 0.8,0.4 0.5,0.8 0.3,0.9 -0.1,0.9 -0.2,0.4 -0.5,0.5 m -5,-4.7 -0.3,0.1 -0.7,-0.1 -0.4,-0.2 -0.4,-0.5 -0.3,-1.2 0.1,-0.6 0.2,-0.4 0.5,-0.5 0.6,-0.1 0.6,0.1 1,0.3 3.8,2.1 -1.2,-4.1 m -21.1,60.8 0.2,-0.6 -0.1,-1.3 4.8,4 m -3.9,-5.5 2.1,-2.5 0.7,2.9 0.6,-0.7 0.6,-0.3 h 0.4 l 0.9,0.3 0.5,0.4 0.5,0.8 0.1,0.8 -0.4,0.9 -0.6,0.7 -0.8,0.5 -0.4,0.1 -0.6,-0.2 m 0.5,-8.7 -0.3,0.9 0.3,1 1,1.2 0.7,0.5 1.3,0.8 1.1,0.1 0.8,-0.5 0.4,-0.5 0.3,-0.9 -0.3,-1 -0.9,-1.2 -0.7,-0.6 -1.4,-0.7 -1.1,-0.1 -0.8,0.5 -0.3,0.3 m -65.4,-31.9 0.6,-0.3 0.9,-0.9 -0.1,6.3 m 1.9,-6.5 3.3,0.1 -1.9,2.3 0.9,0.1 0.6,0.3 0.3,0.3 0.3,0.9 v 0.6 l -0.4,0.9 -0.6,0.6 -0.9,0.3 -0.9,-0.1 -0.9,-0.3 -0.3,-0.3 -0.3,-0.6 m 5.4,-3.6 0.6,-0.3 0.9,-0.8 -0.1,6.3 m -37.8,-70.8 -0.7,0.2 -1,0.7 1.2,-6.2 m -3,6 -3.2,-0.6 2.2,-2 -0.9,-0.2 -0.5,-0.4 -0.2,-0.3 -0.2,-1 0.2,-0.6 0.4,-0.8 0.7,-0.5 1,-0.1 0.9,0.2 0.8,0.5 0.2,0.3 0.2,0.7 m -10.2,3.1 4.2,-5.6 m -0.1,6.4 -4.1,-0.8 m -34.9,20.3 0.1,-0.9 -0.4,-0.5 -0.6,-0.3 h -0.6 l -0.6,0.4 -0.8,1 -0.6,0.6 -0.8,0.3 h -0.7 l -0.8,-0.4 -0.4,-0.5 -0.2,-0.4 0.2,-0.9 0.5,-1.1 0.6,-0.7 0.4,-0.1 h 0.7 l 0.8,0.3 0.4,0.6 0.3,0.8 -0.1,0.9 -0.3,1.2 v 0.7 l 0.5,0.5 0.5,0.3 h 0.7 l 0.6,-0.7 0.6,-1.2 m -3.3,3.4 0.3,0.1 0.4,0.6 0.1,0.4 v 0.6 l -0.5,1.1 -0.5,0.4 -0.4,0.2 h -0.7 l -0.5,-0.3 -0.4,-0.5 -0.6,-0.9 -1.4,-4.1 -1.8,3.8 m 101.5,64.7 -0.5,0.5 -0.6,1.1 -2,-6 m 0.5,6.8 -3.1,1 0.9,-2.8 -0.9,0.3 -0.6,-0.1 -0.4,-0.2 -0.6,-0.8 -0.2,-0.5 v -1 l 0.4,-0.7 0.7,-0.6 0.9,-0.3 h 0.9 l 0.4,0.2 0.5,0.4 m -3.8,5.2 -0.5,0.5 -0.5,1.2 -2.1,-6 m -48.4,18.1 -0.2,-0.6 -0.6,-1.1 6.1,1.4 m -6,-3.1 0.8,-3.3 1.9,2.3 0.2,-0.9 0.4,-0.5 0.4,-0.2 0.9,-0.1 0.6,0.1 0.8,0.5 0.5,0.7 0.1,1 -0.2,0.8 -0.5,0.9 -0.4,0.2 -0.6,0.1 m -3.1,-9.8 -0.6,2.9 2.6,0.9 -0.3,-0.3 -0.1,-1 0.2,-0.9 0.5,-0.8 0.7,-0.4 1,-0.1 0.6,0.1 0.8,0.5 0.4,0.7 0.1,1 -0.2,0.8 -0.4,0.9 -0.4,0.2 -0.7,0.1 m -32.6,-16.5 0.7,0.3 1.2,0.1 -4.9,3.9 m 6.2,-2.7 2,2.6 -3,0.1 0.6,0.7 0.1,0.6 v 0.5 l -0.5,0.8 -0.5,0.3 -0.9,0.4 -0.8,-0.1 -0.8,-0.5 -0.6,-0.7 -0.3,-0.9 v -0.5 l 0.3,-0.6 m 7.7,1.5 2.1,2.5 -3,0.1 0.5,0.7 0.2,0.7 -0.1,0.4 -0.5,0.8 -0.4,0.4 -0.9,0.3 -0.9,-0.1 -0.8,-0.5 -0.5,-0.7 -0.4,-0.9 0.1,-0.4 0.3,-0.6 m 59.3,22.8 0.6,0.4 1.2,0.4 -5.7,2.8 m 6.6,-1.3 1.5,3 -3,-0.6 0.4,0.8 v 0.7 l -0.1,0.4 -0.7,0.6 -0.6,0.3 -0.9,0.1 -0.8,-0.3 -0.7,-0.6 -0.4,-0.8 -0.1,-1 0.1,-0.4 0.5,-0.5 m 8.5,5.8 -1.4,-2.7 -2.5,0.9 0.4,0.1 0.6,0.7 0.4,0.8 0.2,1 -0.3,0.8 -0.7,0.6 -0.5,0.3 -1,0.1 -0.8,-0.3 -0.6,-0.6 -0.4,-0.9 -0.2,-0.9 0.2,-0.4 0.4,-0.5 m 23.5,14.5 0.5,-0.5 0.5,-1.1 2,6 m 0,-5.3 -0.1,-0.3 0.1,-0.6 0.2,-0.4 0.5,-0.5 1.1,-0.4 0.7,0.1 0.4,0.2 0.4,0.5 0.2,0.6 -0.1,0.6 -0.3,1.1 -1.9,3.8 4,-1.3 m 3,-7.6 -0.9,6.9 m -3.1,-5.6 4,-1.3 m 85,-80.4 0.6,0.4 1.2,0.4 -5.5,3 m 6.5,-1.6 1.6,2.9 -3,-0.4 0.4,0.8 0.1,0.6 -0.2,0.4 -0.6,0.7 -0.5,0.3 -1,0.2 -0.8,-0.2 -0.7,-0.7 -0.4,-0.8 -0.2,-0.9 0.2,-0.4 0.3,-0.6 m 6,3.5 0.3,-0.2 h 0.6 l 0.4,0.1 0.6,0.4 0.6,1.1 v 0.6 l -0.1,0.4 -0.4,0.6 -0.6,0.3 h -0.6 l -1.1,-0.1 -4.1,-1.2 2,3.7 m 69.2,-11.7 -0.6,-0.5 -1.2,-0.4 5.8,-2.6 m -5.3,0.6 -0.2,0.1 h -0.7 l -0.4,-0.2 -0.5,-0.4 -0.5,-1.1 v -0.7 l 0.1,-0.4 0.5,-0.5 0.5,-0.2 h 0.7 l 1,0.2 4,1.4 -1.7,-3.8 m -7.6,-1.2 5.1,0.9 -1.9,-4.1 m -3.2,3.2 5.7,-2.7 m 5.1,63.9 -0.2,-0.6 -0.9,-1 6.3,0.4 m -6.3,-3.4 0.3,1 0.8,0.6 1.5,0.4 0.9,0.1 1.5,-0.2 0.9,-0.6 0.4,-0.8 v -0.6 l -0.2,-0.9 -0.9,-0.7 -1.4,-0.4 -0.9,-0.1 -1.5,0.2 -1,0.6 -0.3,0.8 -0.1,0.5 m 0.5,-7.4 6.1,3.4 m -6.4,0.7 0.3,-4.1 m -65,23.3 0.1,0.6 0.7,1.1 -6.1,-1.5 m 5.8,3.3 -0.8,3.2 -1.9,-2.4 -0.2,0.9 -0.4,0.5 -0.4,0.2 -0.9,0.1 -0.6,-0.2 -0.8,-0.5 -0.4,-0.7 -0.1,-1 0.2,-0.8 0.5,-0.8 0.4,-0.3 0.7,-0.1 m 3.1,8.2 -0.1,-0.9 -0.7,-0.8 -1.4,-0.7 -0.8,-0.2 -1.6,-0.1 -1,0.3 -0.5,0.8 -0.1,0.6 v 1 l 0.7,0.8 1.4,0.6 0.9,0.3 h 1.5 l 1,-0.3 0.6,-0.8 0.1,-0.4 m 44.2,32.9 0.1,-0.7 -0.2,-1.2 5.2,3.5 m -3.8,-6.1 -0.2,0.9 0.4,1 1.1,1.1 0.7,0.5 1.4,0.6 h 1.1 l 0.8,-0.6 0.3,-0.5 0.3,-0.9 -0.5,-1 -1,-1.1 -0.8,-0.5 -1.4,-0.6 h -1.1 l -0.7,0.6 -0.3,0.4 m 2.7,-4.1 -0.2,0.9 0.3,0.6 0.5,0.3 0.7,0.1 0.6,-0.3 0.9,-0.8 0.7,-0.6 0.8,-0.2 0.7,0.1 0.8,0.5 0.3,0.6 0.1,0.4 -0.3,0.9 -0.6,1 -0.8,0.6 -0.4,0.1 -0.7,-0.1 -0.7,-0.5 -0.3,-0.6 -0.2,-0.8 0.2,-0.9 0.5,-1.2 v -0.7 l -0.3,-0.6 -0.5,-0.3 -0.7,-0.1 -0.7,0.6 -0.8,1.1 m -74.2,20.8 -0.3,0.6 -0.2,1.3 -3.7,-5.1 m 1.6,5 0.2,0.3 0.1,0.6 v 0.4 l -0.3,0.6 -1,0.7 -0.7,0.2 -0.4,-0.1 -0.6,-0.3 -0.3,-0.5 -0.2,-0.7 v -1 l 0.6,-4.2 -3.3,2.5 m -0.5,8.1 -1.3,-6.8 m 4.7,4.3 -3.4,2.5 m 44.9,33.8 v -0.6 l -0.3,-1.3 5.4,3.3 m -3.8,-3.6 0.1,-0.6 -0.3,-1.3 5.3,3.3 m -4,-5.9 -0.2,0.9 0.5,1 1.1,1.1 0.7,0.4 1.5,0.5 h 1.1 l 0.7,-0.6 0.3,-0.5 0.2,-0.9 -0.4,-1 -1.2,-1.1 -0.7,-0.4 -1.5,-0.6 -1.1,0.1 -0.7,0.6 -0.2,0.4 m -63.6,49.9 0.4,-0.5 0.5,-1.2 2.5,5.8 m -1.1,-5.1 0.4,-0.5 0.5,-1.2 2.6,5.7 m -1.1,-5.1 0.4,-0.5 0.4,-1.2 2.6,5.8 m -76.4,2.6 -5.2,4.6 m 1.3,-6.3 3.9,1.7 m 2.7,1.2 -0.9,-0.1 -0.9,0.6 -0.9,1.2 -0.4,0.9 -0.3,1.5 0.2,1 0.7,0.7 0.6,0.2 0.9,0.1 0.9,-0.6 0.9,-1.3 0.3,-0.8 0.4,-1.5 -0.2,-1.1 -0.7,-0.6 -0.5,-0.2 m -26.8,-44.2 -6.2,-3.1 m 6.3,-1.1 -0.1,4.2 m -0.9,4.7 0.6,-0.3 0.3,-0.9 V 593 l -0.3,-0.9 -0.9,-0.6 -1.5,-0.3 h -1.5 l -1.2,0.3 -0.6,0.6 -0.3,0.9 v 0.3 l 0.3,0.9 0.6,0.6 0.9,0.3 h 0.3 l 0.9,-0.3 0.6,-0.6 0.3,-0.9 V 593 l -0.3,-0.9 -0.6,-0.6 -0.9,-0.3 m 51.1,-29.4 -0.6,0.3 -0.9,0.9 0.1,-6.3 m -1.9,6.5 -3.3,-0.1 1.9,-2.3 -0.9,-0.1 -0.6,-0.3 -0.3,-0.3 -0.3,-0.9 v -0.6 l 0.3,-0.9 0.6,-0.6 0.9,-0.2 h 0.9 l 0.9,0.3 0.3,0.3 0.3,0.6 m -6,5 -3.3,-0.1 1.8,-2.3 -0.9,-0.1 -0.6,-0.3 -0.3,-0.3 -0.2,-0.9 v -0.6 l 0.3,-0.9 0.6,-0.6 0.9,-0.2 h 0.9 l 0.9,0.3 0.3,0.3 0.3,0.6 m 259.3,-241 -0.7,0.2 -0.9,0.8 0.6,-6.3 m -1.6,5 -0.6,0.3 -1,0.8 0.6,-6.3 m -3.3,6.2 1,-0.2 0.3,-0.6 0.1,-0.6 -0.2,-0.6 -0.6,-0.4 -1.2,-0.4 -0.8,-0.4 -0.6,-0.6 -0.2,-0.6 0.1,-0.9 0.3,-0.6 0.4,-0.3 0.9,-0.2 1.2,0.1 0.8,0.4 0.3,0.4 0.2,0.6 v 0.9 l -0.4,0.5 -0.7,0.6 -0.9,0.2 -1.2,0.2 -0.6,0.2 -0.4,0.6 -0.1,0.6 0.3,0.6 0.9,0.4 1.3,0.1 m 20.7,27 0.6,-0.4 0.6,-1 1.3,6.1 m 1.6,-7 -0.8,0.5 -0.4,1 v 1.5 l 0.2,0.9 0.6,1.4 0.7,0.8 1,0.1 0.6,-0.1 0.8,-0.5 0.4,-1 v -1.5 l -0.2,-0.9 -0.6,-1.4 -0.8,-0.8 -0.9,-0.1 -0.5,0.1 m 3.9,-0.8 3.3,-0.7 -1.3,2.7 0.9,-0.2 0.6,0.2 0.4,0.2 0.5,0.8 0.1,0.6 -0.1,1 -0.5,0.7 -0.8,0.5 -0.9,0.2 -0.9,-0.2 -0.4,-0.2 -0.4,-0.5 m 42.2,-50.3 -0.4,0.6 -0.4,1.2 -3.1,-5.5 m 1.6,5 -0.3,0.5 -0.4,1.3 -3.1,-5.5 m 1,5.2 0.2,0.2 v 0.7 l -0.1,0.4 -0.4,0.6 -1,0.6 h -0.7 l -0.4,-0.1 -0.5,-0.4 -0.3,-0.5 -0.1,-0.7 0.1,-1 1.1,-4.1 -3.6,2.1 m 15.4,9.3 0.7,0.6 0.3,0.8 -0.1,1 -0.1,0.2 -0.6,0.7 -0.8,0.3 h -1 l -0.2,-0.2 -0.7,-0.6 -0.3,-0.8 v -0.9 l 0.2,-0.3 0.6,-0.7 0.8,-0.3 1.2,0.2 1.4,0.6 1.2,0.9 0.6,0.9 -0.1,0.9 -0.2,0.6 -0.7,0.7 h -0.6 m -0.8,-9.4 h -0.6 l -0.7,0.7 -0.2,0.5 -0.1,1 0.6,0.9 1.2,0.9 1.4,0.6 1.2,0.2 0.8,-0.3 0.6,-0.7 0.2,-0.3 0.1,-0.9 -0.3,-0.8 -0.7,-0.7 -0.3,-0.1 -1,-0.1 -0.8,0.3 -0.6,0.7 -0.1,0.3 -0.1,1 0.3,0.7 0.7,0.7 m -23.1,-29.2 0.4,-0.5 0.3,-1.2 3.2,5.4 m -1.7,-5 0.4,-0.5 0.3,-1.2 3.2,5.4 m -1.1,-5.2 -0.1,-0.2 -0.1,-0.7 0.1,-0.4 0.4,-0.6 1,-0.6 h 0.7 l 0.4,0.1 0.6,0.3 0.3,0.6 v 0.6 l -0.1,1.1 -1,4.1 3.6,-2.1 m 22.9,-47.4 -0.3,-0.6 -0.9,-0.9 6.3,-0.2 m -6.7,-2.7 0.4,0.9 0.9,0.6 1.5,0.2 h 0.9 l 1.5,-0.4 0.9,-0.6 0.2,-0.9 v -0.6 l -0.3,-0.9 -0.9,-0.6 -1.5,-0.2 h -0.9 l -1.5,0.4 -0.9,0.6 -0.3,0.9 v 0.4 m 1.4,-3.9 h -0.3 l -0.6,-0.3 -0.3,-0.3 -0.3,-0.6 -0.1,-1.2 0.3,-0.6 0.3,-0.3 0.6,-0.3 h 0.6 l 0.6,0.3 0.9,0.5 3.1,2.9 -0.1,-4.2 m -28.9,-30.2 0.2,0.6 0.8,1 -6.3,-0.8 m 4.9,1.7 0.3,0.7 0.7,1 -6.2,-0.9 m 5.9,5.2 -3.7,-3.6 -0.7,4.5 m 4.4,-0.9 -6.2,-0.9 m 18.7,-16.9 -0.7,-0.1 h -1.2 l 4.3,-4.6 m -4.3,3 -0.6,-0.2 h -1.3 l 4.3,-4.6 m -5.7,3.6 -2.4,-2.3 3,-0.5 -0.7,-0.6 -0.2,-0.6 v -0.5 l 0.4,-0.8 0.4,-0.5 0.8,-0.4 h 0.9 l 0.8,0.4 0.7,0.6 0.4,0.8 v 0.5 l -0.2,0.6"
       id="nums_001"
       stroke="#000000"
       stroke-width="1" />
    <path
       d="m 99.8,628.1 0.8,-74.2 96.6,1.9 38.5,-28.2 18.1,-69.8 -27,-49.7 19.3,-50.6 -37.8,38.7 15.5,54.4 -45.7,55.8 -45.4,14.7 -25.5,-52.4 64.7,-22.3 -68.4,-1.5 -12.7,56.8 -60.5,-75.3 32.8,-68 69.2,13.6 22.3,-43.8 41.5,-24.8 92.8,20.1 -0.5,-57.5 38.2,-60.7 17.5,-52.1 -29.7,46.2 -37.3,61.3 -16.7,55 -89.9,-30.4 24.1,-42.4 52,-35.4 -61.4,13.6 -31.5,37.2 -48.4,-0.7 -48.1,10.3 -41.7,-56.9 54.3,-33.2 50.5,4.6 44.7,-12.4 70.6,-25.6 39.9,-50.4 63.6,-16.6 61.8,-39.1 47.6,-7.8 18.9,99.4 -41.3,-15.9 -56.4,10 57.3,0.5 17.7,73.4 -45.1,-0.8 -4.7,38.8 20,-33.6 37.1,25.6 10.4,-74.8 32.1,30.4 2.4,77 -67,39.4 -55.3,-1.7 -41.9,4.7 42,4 55.1,5.5 67.4,-38.6 -30.1,68.1 -77.1,16.3 -83.6,34.5 21.6,47.1 -4.2,61.9 -36.6,55.2 -33.8,55.4 -92.9,41.8 z"
       id="coupes_001"
       stroke="#ff0000"
       stroke-width="1.27"
       sodipodi:nodetypes="cccccccccccccccccccccccccccccccccccccccccccccccccccccccccccccccccccccc" />
    <path
       d="M 448.5,30.5 426.1,114 m -56.4,10 31.2,-85.7 M 369.7,124 339.1,77.4 m 30.6,46.6 -25.6,29.2 m 0,0 -5,-75.8 m 5,75.8 L 275.5,94 m 38.9,105.4 -78.8,-55 m 78.8,55 -67.8,8.1 m 0,0 -11,-63.1 m 41.5,116.3 -30.5,-53.2 m 0,0 L 165,170 m 112.1,90.7 -82.5,-17.8 m -40.9,15.4 -33.4,-75.9 m -15,75.2 15,-75.2 m -15,75.2 -35.5,-79.8 m 329.8,19.3 -55.5,-43.9 m 25.6,-29.2 29.9,73.1 m -4.7,38.8 -50.8,-82.7 m 50.8,82.7 -68.3,-30.6 m 68.3,30.6 -20.3,62.3 m -41.9,4.7 -6.1,-97.6 m 6.1,97.6 -44.3,-36.9 m 44.3,36.9 -43.8,20.6 m 43.8,-20.6 -26.3,89.8 m 0,0 -60.3,-35.2 m 0,0 42.8,-34 m -42.8,34 -50,-54.1 m 50,54.1 -91.5,-29.3 M 427,124.5 399.6,197.1 m -66.9,105.8 57.3,55.3 m -15.3,-51.3 15.3,51.3 m 4.9,-122.3 35,64 m -35,-64 57.1,-8 m -243.7,168.3 -53.7,-68 M 171.9,446.4 132.3,372 m 76,24.2 -36.4,50.2 m 51.9,4.2 -51.9,-4.2 m 6.2,60 -6.2,-60 m -68.4,-1.5 28.8,-72.9 m -28.8,72.9 -40.4,-86.5 m 40.4,86.5 -73.2,-18.5 m 276.1,-33.7 -52.6,65.1 m 74.2,-18 -74.2,18 m 70,43.9 -70,-43.9 m 33.4,99.1 -51.5,-29.3 m 51.5,29.3 -90,-1.1 m 56.2,56.5 -56.2,-56.5 m -36.7,98.3 36.7,-98.3 m 232.6,-243.4 37.3,29.5 m -15.1,-114 44.9,32.6 M 452,227.9 494.5,183.5"
       id="plisM_001"
       stroke="#a52a2a"
       stroke-dasharray="4" />
    <path
       d="M 426.1,114 400.9,38.3 M 314.4,199.4 275.5,94 M 185.2,221.1 165,170 m 20.2,51.1 -64.9,-38.7 m -63.1,85.5 12.6,-90.1 m 190.6,137.9 -65.8,-72.8 m 180,55.3 -48,-92.9 m -20.2,187.4 -17.5,-69.2 m 17.5,69.2 -79.6,15.4 M 452,227.9 l -22.1,72 m -221.6,96.3 -76,-24.2 m 45.8,134.4 -70.9,-37.7 m 216.6,33 -88.1,25.9 M 99.8,628.1 197.2,555.8 M 429.8,312.4 390,358.2"
       id="plisV_001"
       stroke="#008000"
       stroke-dasharray="4, 1, 1, 1"
       stroke-width="1.27" />
    <path
       d="m 411.5,74.1 4,4 m 0,-4 -4,4 m -118.6,66.6 4,4 m 0,-4 -4,4 m -119.8,44.9 4,4 m 0,-4 -4,4 m -22.3,2.2 4,4 m 0,-4 -4,4 m -89.3,17.1 4,4 m 0,-4 -4,4 m 164,52.4 4,4 m 0,-4 -4,4 m 123.1,-31.5 4,4 m 0,-4 -4,4 m -53,102.3 4,4 m 0,-4 -4,4 m -31,38.3 4,4 m 0,-4 -4,4 M 439,261.9 l 4,4 m 0,-4 -4,4 m -270.7,116.2 4,4 m 0,-4 -4,4 m -27.6,99.4 4,4 m 0,-4 -4,4 m 137,23.2 4,4 m 0,-4 -4,4 m -131.2,73.3 4,4 m 0,-4 -4,4 m 261.4,-260.7 4,4 m 0,-4 -4,4"
       id="marqueV_001"
       stroke="#008000" />
    <path
       d="m 301,288.6 1.5,-0.7 2.3,-2.3 v 15.8"
       id="titre_1"
       stroke="#4b0082" />
  </g>
  <g
     id="page_002">
    <path
       d="m 787.2,711.1 0.4,-0.5 0.6,-1.1 1.9,6 m 0.9,-7.1 -0.8,0.5 -0.3,1.1 0.2,1.5 0.2,0.8 0.8,1.4 0.8,0.7 h 1 l 0.6,-0.2 0.7,-0.6 0.3,-1 -0.2,-1.5 -0.2,-0.9 -0.8,-1.3 -0.8,-0.7 h -1 l -0.4,0.1 m 4.9,-1.6 -0.7,0.6 -0.3,1 0.2,1.6 0.2,0.8 0.8,1.3 0.8,0.7 h 1 l 0.5,-0.2 0.8,-0.5 0.3,-1.1 -0.2,-1.5 -0.2,-0.8 -0.8,-1.4 -0.8,-0.6 -1,-0.1 -0.4,0.2 m -72.6,-0.1 0.7,0.1 1.2,-0.2 -3.5,5.2 m 7,-2 0.1,-0.7 -0.5,-0.7 -0.5,-0.4 -0.9,-0.2 -1.1,0.4 -1,1.1 -0.9,1.2 -0.4,1.2 0.1,0.8 0.6,0.8 0.3,0.1 0.9,0.3 0.8,-0.2 0.8,-0.6 0.1,-0.2 0.3,-0.9 -0.2,-0.8 -0.5,-0.8 -0.3,-0.2 -0.9,-0.2 -0.8,0.1 -0.8,0.6 m 1,-42.1 v 0.6 l 0.3,1.3 -5.4,-3.4 m 3.9,6 0.3,-1 -0.5,-0.9 -1.1,-1.1 -0.7,-0.5 -1.4,-0.5 h -1.1 l -0.8,0.6 -0.3,0.5 -0.2,0.9 0.4,1 1.1,1 0.8,0.5 1.4,0.6 h 1.1 l 0.7,-0.6 0.3,-0.4 m 84.9,-39.8 0.9,0.5 0.4,0.7 0.2,0.9 -0.1,0.3 -0.4,0.8 -0.7,0.5 -1,0.1 h -0.3 l -0.8,-0.5 -0.5,-0.7 -0.1,-0.9 v -0.3 l 0.5,-0.8 0.7,-0.5 1.2,-0.1 1.5,0.3 1.4,0.6 0.8,0.7 0.1,1 -0.1,0.6 -0.4,0.8 -0.7,0.2 m -3.7,-9.2 -0.6,2.9 2.6,0.8 -0.2,-0.3 -0.2,-1 0.2,-0.9 0.5,-0.8 0.7,-0.5 0.9,-0.1 0.6,0.1 0.8,0.5 0.5,0.7 0.1,0.9 -0.1,0.9 -0.5,0.8 -0.4,0.3 -0.6,0.2 m -69.7,-22.8 -4.4,-2.7 0.4,4.5 m 4,-1.8 -6.3,0.5 m 71.2,-42 h 0.9 l 0.8,0.4 0.5,0.8 0.1,0.2 v 1 l -0.3,0.7 -0.8,0.6 -0.3,0.1 h -0.9 l -0.8,-0.4 -0.6,-0.7 -0.1,-0.3 v -1 l 0.4,-0.7 1.1,-0.7 1.4,-0.5 1.5,-0.1 1.1,0.2 0.5,0.8 0.2,0.6 v 0.9 l -0.5,0.5 m -7.1,-4.5 0.5,0.7 1.1,0.3 1.5,-0.2 0.8,-0.3 1.4,-0.7 0.6,-0.9 v -0.9 l -0.1,-0.6 -0.6,-0.7 -1.1,-0.3 -1.5,0.2 -0.8,0.2 -1.4,0.8 -0.6,0.8 v 1 l 0.1,0.4 m -117.4,3.2 3.3,0.3 -2.1,2.2 0.9,0.1 0.6,0.4 0.3,0.3 0.2,0.9 -0.1,0.6 -0.4,0.9 -0.7,0.5 -0.9,0.2 h -0.9 l -0.8,-0.4 -0.3,-0.4 -0.2,-0.6 m 26.4,-49 0.9,0.4 0.6,-0.2 0.4,-0.4 0.2,-0.7 -0.2,-0.6 -0.7,-1 -0.5,-0.9 V 521 l 0.2,-0.7 0.6,-0.6 0.6,-0.3 h 0.5 l 0.8,0.4 0.9,0.8 0.5,0.9 v 0.4 l -0.2,0.6 -0.6,0.7 -0.7,0.2 h -0.8 l -0.9,-0.3 -1.1,-0.6 -0.6,-0.2 -0.6,0.2 -0.4,0.5 -0.2,0.6 0.4,0.8 1,0.9 m -5.3,-4.8 5.1,-1 -3.3,-3.1 m -1.8,4.1 4.3,-4.6 m -75.8,30.3 0.3,-0.1 0.6,-0.1 0.4,0.1 0.6,0.3 0.6,1.1 0.1,0.6 -0.1,0.4 -0.3,0.6 -0.6,0.3 -0.6,0.1 h -1.1 l -4.1,-1 2.2,3.6 m -11.2,-52.5 -0.4,-3 h -2.7 l 0.3,0.3 0.4,0.8 0.2,0.9 -0.2,1 -0.6,0.6 -0.8,0.4 -0.6,0.1 -0.9,-0.2 -0.7,-0.5 -0.4,-0.9 -0.1,-0.9 0.2,-0.9 0.2,-0.3 0.6,-0.4 m 16.5,-42.1 -0.2,0.7 v 1.2 l -4.6,-4.3 m 68.4,11.3 0.1,0.9 0.5,0.4 0.6,0.1 0.7,-0.2 0.4,-0.5 0.5,-1.1 0.5,-0.9 0.7,-0.4 0.6,-0.2 0.9,0.1 0.5,0.5 0.3,0.3 0.1,0.9 -0.2,1.2 -0.5,0.9 -0.3,0.2 -0.7,0.2 -0.9,-0.2 -0.5,-0.4 -0.5,-0.7 -0.1,-0.9 -0.1,-1.3 -0.2,-0.6 -0.5,-0.4 -0.6,-0.1 -0.6,0.2 -0.5,0.8 -0.3,1.3 m 2.3,-7.3 -0.6,0.2 -0.5,0.8 -0.1,0.6 0.1,1 0.8,0.7 1.4,0.6 1.5,0.3 1.2,-0.1 0.7,-0.5 0.5,-0.8 0.1,-0.3 -0.2,-1 -0.5,-0.7 -0.8,-0.4 -0.3,-0.1 -0.9,0.1 -0.7,0.5 -0.5,0.9 v 0.3 l 0.1,0.9 0.5,0.7 0.8,0.5 m -9.2,-54.5 0.7,0.6 0.7,-0.1 0.5,-0.3 0.3,-0.6 -0.1,-0.7 -0.4,-1.1 -0.3,-0.9 0.2,-0.9 0.3,-0.6 0.8,-0.5 0.6,-0.1 0.4,0.1 0.8,0.6 0.7,1 0.2,0.9 v 0.4 l -0.4,0.6 -0.7,0.5 -0.7,0.1 -0.8,-0.2 -0.8,-0.5 -0.9,-0.9 -0.6,-0.3 -0.6,0.1 -0.5,0.3 -0.4,0.6 0.3,0.9 0.8,1.2 m -4.6,-6.7 6.9,-1.1 m -4.5,4.6 -2.4,-3.5 m -70.2,4.2 -0.9,-0.2 -1,0.3 -1.1,1.1 -0.5,0.7 -0.6,1.4 -0.1,1.1 0.6,0.8 0.5,0.3 0.9,0.3 1,-0.4 1.1,-1.1 0.5,-0.7 0.7,-1.4 v -1.1 l -0.6,-0.7 -0.4,-0.3 m -40.6,-35.9 0.6,0.4 1.2,0.3 -5.3,3.3 m 7.9,0.1 -5.2,-0.2 2.4,3.8 m 2.8,-3.6 -5.3,3.4 m 25.5,-30 -0.3,0.6 -0.3,1.2 -3.4,-5.3 m -0.9,8.3 -0.8,-6.9 m 4.4,4.6 -3.6,2.3 m 266.6,324.2 0.2,-0.6 0.1,-1.2 4.1,4.8 m -1.9,-6.9 -0.5,0.8 0.1,1.1 0.7,1.3 0.6,0.7 1.2,1 1,0.3 0.9,-0.4 0.5,-0.4 0.5,-0.8 -0.1,-1.1 -0.8,-1.3 -0.6,-0.7 -1.2,-1 -1,-0.3 -0.9,0.4 -0.3,0.3 m 3.9,-1.4 -0.2,-0.2 -0.1,-0.7 v -0.4 l 0.3,-0.6 0.9,-0.8 0.7,-0.1 h 0.4 l 0.6,0.3 0.4,0.4 0.1,0.7 0.2,1 -0.4,4.3 3.2,-2.7 m -39.8,-27.7 -0.5,-0.7 -0.2,-0.9 0.3,-0.9 0.2,-0.2 0.8,-0.6 0.8,-0.1 0.9,0.3 0.3,0.1 0.5,0.8 0.1,0.8 -0.2,0.9 -0.2,0.3 -0.8,0.5 -0.8,0.2 -1.2,-0.5 -1.2,-0.8 -1,-1.2 -0.4,-1 0.3,-0.9 0.3,-0.5 0.8,-0.5 0.6,0.1 m -0.4,9.9 1.7,-2.4 -2,-1.9 0.1,0.5 -0.3,0.9 -0.5,0.7 -0.8,0.6 -0.8,0.1 -0.9,-0.3 -0.5,-0.3 -0.6,-0.8 -0.1,-0.8 0.3,-0.9 0.5,-0.8 0.8,-0.5 0.4,-0.1 0.6,0.1 m -150.9,-292.5 0.8,0.5 0.4,0.7 0.1,1 -0.1,0.3 -0.5,0.8 -0.8,0.4 h -0.9 l -0.3,-0.1 -0.8,-0.5 -0.4,-0.8 -0.1,-0.9 0.1,-0.3 0.6,-0.8 0.7,-0.4 1.2,0.1 1.5,0.4 1.3,0.7 0.7,0.8 0.1,0.9 -0.2,0.6 -0.5,0.8 -0.7,0.1 m -3,-9.1 3.2,4.1 1.2,-4.3 m -4.4,0.2 6,1.8 m -37,-42.3 0.2,0.2 0.3,0.6 v 0.4 l -0.2,0.6 -0.7,0.9 -0.7,0.3 h -0.4 l -0.6,-0.1 -0.5,-0.4 -0.2,-0.7 -0.3,-1 -0.3,-4.2 -2.8,3.1 m 3,4 -0.2,0.7 0.1,1.3 -4.7,-4.2 m 82,-0.2 0.1,0.9 -0.4,0.8 -0.7,0.6 -0.2,0.1 -1,0.1 -0.8,-0.3 -0.6,-0.7 -0.1,-0.3 -0.1,-0.9 0.3,-0.8 0.7,-0.7 0.3,-0.1 h 1 l 0.7,0.3 0.8,1 0.6,1.3 0.3,1.5 -0.2,1.1 -0.7,0.6 -0.6,0.3 h -0.9 l -0.5,-0.4 m 3.6,-7.4 -0.7,0.6 -0.1,0.7 0.3,0.5 0.5,0.5 h 0.7 l 1.2,-0.2 0.9,-0.1 0.8,0.4 0.5,0.4 0.4,0.8 -0.1,0.7 -0.1,0.4 -0.7,0.6 -1.1,0.5 -1,0.1 -0.4,-0.2 -0.5,-0.4 -0.3,-0.9 v -0.6 l 0.3,-0.8 0.7,-0.6 1,-0.8 0.5,-0.5 v -0.7 l -0.2,-0.5 -0.5,-0.5 -1,0.1 -1.2,0.5 m -30.8,-38 -2.6,2.2 -0.1,-3 -0.7,0.5 -0.7,0.2 h -0.4 l -0.8,-0.5 -0.4,-0.5 -0.4,-0.9 0.1,-0.8 0.5,-0.8 0.7,-0.6 0.9,-0.4 0.4,0.1 0.6,0.2 m -2.2,8.5 0.5,-0.8 -0.1,-1 -0.7,-1.4 -0.6,-0.7 -1.2,-0.9 -1,-0.3 -0.9,0.3 -0.5,0.4 -0.5,0.8 0.2,1.1 0.7,1.3 0.6,0.7 1.2,1 1,0.3 0.9,-0.4 0.3,-0.3 m 91,47.7 -0.9,0.3 -0.8,-0.2 -0.8,-0.5 -0.2,-0.3 -0.2,-0.9 0.1,-0.8 0.6,-0.8 0.2,-0.2 0.9,-0.2 0.9,0.1 0.7,0.6 0.2,0.2 0.3,0.9 -0.2,0.9 -0.8,0.9 -1.2,0.9 -1.4,0.6 h -1.1 l -0.7,-0.5 -0.4,-0.5 -0.3,-0.9 0.4,-0.6 m 7.6,5.1 -0.9,0.3 -0.8,-0.1 -0.8,-0.6 -0.2,-0.2 -0.2,-1 0.1,-0.8 0.6,-0.8 0.2,-0.1 0.9,-0.3 0.9,0.1 0.7,0.6 0.2,0.3 0.3,0.9 -0.2,0.8 -0.8,0.9 -1.2,0.9 -1.4,0.6 h -1.1 l -0.7,-0.5 -0.4,-0.5 -0.3,-0.9 0.4,-0.6 m -90.3,-105 2.9,1.7 -2.8,1.1 0.8,0.5 0.4,0.5 0.1,0.5 -0.2,0.9 -0.3,0.5 -0.7,0.6 -0.9,0.2 -0.9,-0.1 -0.8,-0.5 -0.6,-0.7 -0.1,-0.4 v -0.7 m 6.4,-0.5 h 0.7 l 1.2,-0.3 -3.1,5.4 m -22.6,-36 -4.7,-2.1 0.9,4.4 m 3.8,-2.3 -6.2,1.2 m 6.9,2.9 -0.4,-0.8 -0.7,-0.2 -0.6,0.1 -0.5,0.4 -0.2,0.7 -0.1,1.2 -0.1,1 -0.5,0.7 -0.5,0.4 -0.9,0.1 -0.6,-0.2 -0.4,-0.2 -0.5,-0.8 -0.2,-1.2 0.1,-0.9 0.3,-0.4 0.5,-0.4 0.9,-0.2 0.7,0.2 0.7,0.5 0.4,0.8 0.5,1.2 0.4,0.5 0.7,0.2 0.6,-0.1 0.5,-0.4 0.1,-1 -0.2,-1.3 M 858,280 l -0.3,-0.7 -0.8,-0.9 6.3,0.4 m -6.3,-3.4 0.2,0.9 0.9,0.7 1.4,0.4 0.9,0.1 1.6,-0.2 0.9,-0.6 0.4,-0.8 v -0.6 l -0.2,-0.9 -0.9,-0.7 -1.4,-0.4 -0.9,-0.1 -1.6,0.2 -0.9,0.5 -0.4,0.9 v 0.5 m 1.6,-3.2 -0.2,-0.7 -0.8,-0.9 6.2,0.4 m -57.8,-101 -0.1,-0.6 -0.4,-1.2 5.8,2.5 m -4.9,-5.3 v 0.9 l 0.5,0.9 1.3,0.9 0.8,0.4 1.5,0.3 1.1,-0.2 0.6,-0.7 0.3,-0.6 v -0.9 l -0.5,-0.9 -1.3,-0.9 -0.8,-0.3 -1.5,-0.4 -1.1,0.2 -0.6,0.7 -0.2,0.5 m 2.5,-6.1 2.7,4.4 1.8,-4.1 m -4.5,-0.3 5.8,2.5 m -67.8,-24 0.3,0.6 0.9,0.9 h -6.3 m 6.6,2.9 -0.3,-0.9 -0.9,-0.6 -1.5,-0.3 h -0.9 l -1.5,0.3 -0.9,0.6 -0.3,0.9 v 0.6 l 0.3,0.9 0.9,0.6 1.5,0.3 h 0.9 l 1.5,-0.3 0.9,-0.6 0.3,-0.9 v -0.4 m 0,7 v -3 l -2.7,-0.3 0.3,0.3 0.3,0.9 v 0.9 l -0.3,0.9 -0.6,0.6 -0.9,0.3 h -0.6 l -0.9,-0.3 -0.6,-0.6 -0.3,-0.9 v -0.9 l 0.3,-0.9 0.3,-0.3 0.6,-0.3 m 84.8,21.8 -0.1,0.7 0.1,1.3 -4.9,-3.9 m 3.3,6.3 0.3,-0.9 -0.3,-1 -1,-1.2 -0.7,-0.5 -1.4,-0.7 -1.1,-0.1 -0.8,0.5 -0.4,0.5 -0.3,0.9 0.4,1 1,1.2 0.7,0.6 1.3,0.6 1.1,0.1 0.8,-0.5 0.3,-0.4 m -4,5.2 -1.4,-4.9 -2.8,3.5 m 4.2,1.4 -5,-3.8 m -93.7,-17.8 -0.5,-0.5 -1.2,-0.5 5.8,-2.4 m -7.2,-0.2 0.7,0.7 1,0.2 1.5,-0.3 0.8,-0.3 1.3,-0.9 0.6,-0.9 -0.1,-1 -0.2,-0.5 -0.6,-0.7 -1.1,-0.2 -1.5,0.3 -0.8,0.3 -1.3,0.9 -0.6,0.9 0.1,0.9 0.2,0.5 m -2.7,-6.5 1.1,2.8 2.6,-0.8 -0.4,-0.1 -0.6,-0.8 -0.3,-0.8 -0.1,-0.9 0.3,-0.8 0.7,-0.6 0.6,-0.3 h 0.9 l 0.8,0.3 0.6,0.7 0.4,0.8 0.1,1 -0.2,0.4 -0.4,0.5 m -110.5,-21.9 0.2,-3 -2.7,-0.5 0.3,0.3 0.3,0.9 -0.1,0.9 -0.4,0.9 -0.6,0.5 -0.9,0.3 -0.6,-0.1 -0.9,-0.3 -0.6,-0.7 -0.2,-0.9 0.1,-0.9 0.3,-0.9 0.4,-0.3 0.6,-0.2 m 3.5,9.2 0.6,-0.2 0.4,-0.9 v -0.6 l -0.2,-0.9 -0.9,-0.7 -1.4,-0.4 -1.5,-0.1 -1.3,0.2 -0.6,0.6 -0.4,0.8 v 0.3 l 0.2,1 0.6,0.6 0.9,0.4 h 0.3 l 0.9,-0.2 0.6,-0.6 0.4,-0.9 v -0.3 l -0.2,-0.9 -0.6,-0.6 -0.8,-0.4 m 23,26.5 -2.8,-1.2 -1.3,2.3 0.3,-0.1 h 1 l 0.8,0.4 0.7,0.6 0.3,0.8 v 1 l -0.3,0.5 -0.6,0.7 -0.8,0.3 h -0.9 l -0.9,-0.4 -0.7,-0.6 -0.1,-0.4 -0.1,-0.7 m 8.6,-1.8 -0.9,-0.1 -0.9,0.6 -0.9,1.2 -0.4,0.8 -0.3,1.5 0.2,1.1 0.7,0.6 0.6,0.3 0.9,0.1 0.9,-0.6 0.9,-1.3 0.3,-0.8 0.4,-1.5 -0.2,-1.1 -0.7,-0.6 -0.5,-0.2 m 194.7,-46.9 -0.6,-0.2 -1.3,0.2 3.9,-5 m -6.3,3.3 0.9,0.3 1,-0.3 1.2,-1 0.5,-0.7 0.7,-1.4 0.1,-1 -0.5,-0.8 -0.5,-0.4 -0.8,-0.3 -1.1,0.3 -1.1,1 -0.6,0.7 -0.7,1.3 -0.1,1.1 0.5,0.8 0.3,0.3 m -3.8,-3.1 0.9,0.3 0.6,-0.2 0.4,-0.5 0.1,-0.7 -0.2,-0.6 -0.8,-1 -0.5,-0.8 -0.1,-0.8 0.2,-0.7 0.5,-0.7 0.6,-0.2 0.5,-0.1 0.8,0.3 1,0.8 0.5,0.8 v 0.4 l -0.1,0.7 -0.6,0.7 -0.6,0.3 h -0.8 l -0.9,-0.3 -1.1,-0.5 -0.7,-0.1 -0.6,0.2 -0.4,0.5 -0.1,0.7 0.5,0.8 1,0.8 m 6.9,32 0.2,-0.7 v -1.3 l 4.4,4.6 m -2.4,-6.8 -0.5,0.9 0.2,1 0.9,1.3 0.6,0.7 1.2,0.9 1.1,0.2 0.8,-0.4 0.5,-0.4 0.4,-0.9 -0.2,-1 -0.8,-1.3 -0.6,-0.7 -1.3,-0.9 -1,-0.2 -0.9,0.4 -0.3,0.3 m 5.6,-4.2 -0.6,-0.2 -0.8,0.4 -0.5,0.4 -0.4,0.9 0.2,1 0.8,1.3 1,1.1 1.1,0.7 h 0.8 l 0.9,-0.4 0.2,-0.2 0.5,-0.9 v -0.8 l -0.4,-0.9 -0.2,-0.2 -0.9,-0.4 -0.8,-0.1 -0.9,0.4 -0.2,0.3 -0.4,0.8 -0.1,0.8 0.4,0.9 m -88.8,-52 0.3,0.6 0.8,0.9 -6.3,-0.1 m 6.5,3.1 -0.3,-0.9 -0.9,-0.6 -1.5,-0.4 h -0.9 l -1.5,0.3 -0.9,0.6 -0.3,0.8 v 0.6 l 0.2,1 0.9,0.6 1.5,0.3 h 0.9 l 1.5,-0.2 0.9,-0.6 0.4,-0.9 v -0.5 m -2.3,7.3 -0.9,-0.3 -0.6,-0.6 -0.2,-0.9 v -0.3 l 0.3,-0.9 0.6,-0.6 0.9,-0.3 h 0.3 l 0.9,0.3 0.6,0.6 0.3,0.9 v 0.3 l -0.4,0.9 -0.6,0.6 -1.2,0.3 h -1.5 l -1.5,-0.4 -0.9,-0.6 -0.2,-0.9 v -0.6 l 0.3,-0.9 0.6,-0.3 m 32,-11 -0.6,0.1 -1.1,0.6 1.7,-6 m -2.4,4.6 -0.7,0.1 -1.1,0.6 1.7,-6 m -4.6,5.4 h 0.9 l 0.9,-0.7 0.7,-1.4 0.2,-0.8 0.1,-1.6 -0.3,-1 -0.8,-0.5 -0.5,-0.2 h -1 l -0.8,0.7 -0.7,1.4 -0.3,0.9 -0.1,1.5 0.3,1 0.8,0.5 0.4,0.2 m -62.6,22.5 -0.4,-0.6 -1,-0.8 6.3,-0.7 m -6.8,-2.2 0.4,0.9 0.9,0.5 1.6,0.1 0.9,-0.1 1.4,-0.5 0.8,-0.7 0.2,-0.9 v -0.6 l -0.4,-0.9 -1,-0.5 -1.5,-0.1 -0.9,0.1 -1.5,0.5 -0.8,0.7 -0.2,0.9 0.1,0.5 m 1.2,-7.5 0.9,0.2 0.7,0.5 0.4,0.8 v 0.3 l -0.2,1 -0.5,0.6 -0.9,0.4 -0.3,0.1 -0.9,-0.2 -0.6,-0.5 -0.4,-0.9 -0.1,-0.3 0.2,-0.9 0.5,-0.7 1.2,-0.4 1.5,-0.2 1.5,0.1 1,0.5 0.4,0.9 v 0.6 l -0.1,0.9 -0.6,0.4 m 108.7,264.7 -0.8,-0.3 -0.7,0.2 -0.4,0.5 -0.1,0.6 0.2,0.6 0.8,1.1 0.4,0.8 0.1,0.8 -0.2,0.7 -0.5,0.6 -0.7,0.3 H 815 l -0.9,-0.3 -0.9,-0.8 -0.5,-0.8 v -0.4 l 0.2,-0.7 0.6,-0.7 0.6,-0.2 0.8,-0.1 0.9,0.4 1.1,0.5 0.7,0.2 0.6,-0.3 0.4,-0.4 0.1,-0.7 -0.5,-0.8 -1,-0.9 m 4.2,3.6 -0.9,-0.4 -0.6,0.3 -0.4,0.5 -0.2,0.6 0.3,0.6 0.7,1 0.5,0.9 0.1,0.8 -0.2,0.6 -0.6,0.7 -0.6,0.3 h -0.4 l -0.9,-0.3 -0.9,-0.8 -0.5,-0.8 v -0.5 l 0.1,-0.6 0.6,-0.7 0.6,-0.2 0.9,-0.1 0.9,0.3 1.1,0.6 0.6,0.2 0.6,-0.3 0.4,-0.4 0.2,-0.7 -0.5,-0.8 -1,-0.9 m 58,-24.1 0.9,-0.4 0.9,0.1 0.8,0.5 0.2,0.3 0.3,0.9 -0.1,0.8 -0.5,0.8 -0.2,0.2 -0.9,0.3 -0.9,-0.1 -0.8,-0.5 -0.2,-0.2 -0.3,-0.9 0.1,-0.8 0.7,-1 1.2,-1 1.4,-0.7 1,-0.1 0.8,0.5 0.4,0.5 0.3,0.9 -0.2,0.6 m -7.6,-0.7 -2.1,-2.6 3,-0.1 -0.5,-0.7 -0.2,-0.7 0.1,-0.4 0.5,-0.8 0.4,-0.4 0.9,-0.3 0.9,0.1 0.8,0.5 0.5,0.7 0.4,0.9 -0.1,0.4 -0.2,0.6 m -101.9,189 0.8,0.5 0.6,-0.1 0.5,-0.4 0.3,-0.6 -0.2,-0.7 -0.5,-1.1 -0.3,-0.9 0.1,-0.8 0.2,-0.6 0.7,-0.6 0.7,-0.2 0.4,0.1 0.8,0.5 0.8,0.9 0.3,0.9 v 0.4 l -0.3,0.7 -0.7,0.5 -0.7,0.2 -0.8,-0.1 -0.8,-0.5 -1,-0.8 -0.6,-0.3 -0.7,0.2 -0.4,0.4 -0.3,0.6 0.3,0.9 0.9,1 m -3.4,-7.4 0.9,-0.4 0.9,0.1 0.8,0.5 0.2,0.3 0.3,0.8 -0.1,0.9 -0.5,0.8 -0.2,0.2 -0.9,0.3 -0.9,-0.1 -0.8,-0.5 -0.2,-0.2 -0.3,-0.9 0.1,-0.9 0.7,-0.9 1.2,-1 1.4,-0.7 1,-0.1 0.8,0.5 0.4,0.5 0.3,0.9 -0.2,0.6 m -24.4,-1.8 0.3,-0.9 -0.4,-0.6 -0.4,-0.3 -0.7,-0.1 -0.6,0.3 -0.9,0.8 -0.8,0.6 -0.8,0.1 -0.7,-0.1 -0.7,-0.5 -0.3,-0.6 -0.1,-0.4 0.2,-0.9 0.7,-1 0.8,-0.5 0.4,-0.1 0.7,0.1 0.7,0.5 0.3,0.6 0.2,0.8 -0.3,0.9 -0.4,1.2 -0.1,0.7 0.3,0.5 0.5,0.4 0.6,0.1 0.8,-0.6 0.8,-1.1 m -4.4,6.2 1.8,-2.4 -2.1,-1.8 0.1,0.4 -0.3,0.9 -0.5,0.7 -0.8,0.6 -0.8,0.2 -0.9,-0.3 -0.5,-0.4 -0.6,-0.7 -0.1,-0.9 0.3,-0.9 0.5,-0.7 0.7,-0.6 h 0.5 l 0.6,0.1 m 175.7,110.5 0.3,0.9 v 0.8 l -0.5,0.9 -0.2,0.2 -0.9,0.3 h -0.8 l -0.9,-0.5 -0.2,-0.2 -0.3,-0.9 v -0.8 l 0.5,-0.9 0.2,-0.2 0.9,-0.3 h 0.8 l 1.1,0.7 0.9,1.1 0.8,1.4 0.2,1 -0.5,0.9 -0.5,0.4 -0.8,0.3 -0.7,-0.2 m 3.3,-8.9 -0.6,-0.3 -0.9,0.4 -0.4,0.4 -0.5,0.8 0.1,1.1 0.8,1.3 1,1.1 1,0.7 0.9,0.1 0.8,-0.4 0.3,-0.2 0.4,-0.8 0.1,-0.9 -0.4,-0.8 -0.2,-0.3 -0.8,-0.4 -0.8,-0.1 -0.9,0.4 -0.2,0.2 -0.5,0.8 -0.1,0.9 0.4,0.8 M 856.1,141 l -0.3,0.6 -0.1,1.3 -4.1,-4.8 m 2,6.8 0.5,-0.8 -0.1,-1 -0.8,-1.4 -0.6,-0.7 -1.2,-0.9 -1,-0.3 -0.9,0.4 -0.5,0.4 -0.5,0.8 0.2,1 0.7,1.4 0.6,0.7 1.2,0.9 1.1,0.3 0.8,-0.4 0.4,-0.3 m -5.9,3.9 0.6,0.3 0.9,-0.4 0.4,-0.4 0.5,-0.8 -0.1,-1.1 -0.8,-1.3 -0.9,-1.1 -1,-0.7 -0.9,-0.1 -0.9,0.4 -0.2,0.2 -0.5,0.8 v 0.8 l 0.3,0.9 0.2,0.2 0.8,0.5 0.9,0.1 0.9,-0.4 0.2,-0.2 0.5,-0.8 v -0.9 l -0.3,-0.8 m 49.8,-1.2 -0.7,0.1 -1.1,0.6 2,-6 m -4.9,5.3 h 1 l 0.8,-0.7 0.8,-1.4 0.3,-0.8 0.1,-1.5 -0.3,-1.1 -0.7,-0.5 -0.6,-0.2 h -0.9 l -0.9,0.7 -0.7,1.3 -0.3,0.9 -0.2,1.5 0.3,1 0.8,0.6 0.4,0.1 m -7.1,-2.3 4.8,-5 m -0.8,6.3 -4,-1.3 m -13,127.2 0.2,0.7 0.9,0.9 -6.3,-0.3 m 6.3,3.3 -0.2,-1 -0.9,-0.6 -1.5,-0.4 h -0.9 l -1.5,0.2 -0.9,0.6 -0.3,0.8 -0.1,0.6 0.3,0.9 0.8,0.7 1.5,0.4 h 0.9 l 1.5,-0.2 1,-0.6 0.3,-0.8 v -0.5 m -1.5,3.3 0.2,0.6 0.9,0.9 -6.3,-0.3 m 22,45.8 -0.9,0.4 h -0.9 l -0.8,-0.5 -0.2,-0.2 -0.4,-0.9 0.1,-0.9 0.5,-0.8 0.2,-0.2 0.9,-0.4 0.8,0.1 0.8,0.5 0.2,0.2 0.4,0.9 v 0.8 l -0.7,1 -1.2,1 -1.3,0.8 -1.1,0.1 -0.8,-0.4 -0.4,-0.5 -0.4,-0.9 0.3,-0.6 m 7.6,0.4 2.2,2.5 -3,0.2 0.6,0.7 0.1,0.7 v 0.4 l -0.5,0.8 -0.4,0.4 -0.9,0.4 -0.8,-0.1 -0.8,-0.4 -0.6,-0.7 -0.4,-0.9 v -0.4 l 0.3,-0.6 m 43.2,31.3 -0.7,0.7 -0.8,0.3 -0.9,-0.2 -0.3,-0.1 -0.7,-0.7 -0.3,-0.8 0.2,-0.9 0.1,-0.3 0.7,-0.7 0.8,-0.2 0.9,0.1 0.3,0.1 0.7,0.7 0.2,0.8 -0.2,1.2 -0.7,1.4 -0.9,1.2 -1,0.5 -0.9,-0.1 -0.6,-0.3 -0.6,-0.7 v -0.6 m 6.4,-1.2 0.2,-0.2 0.5,-0.4 0.4,-0.2 h 0.7 l 1,0.6 0.4,0.5 0.2,0.4 v 0.7 l -0.3,0.5 -0.5,0.4 -1,0.5 -4,1.4 3.8,1.9 m 28.9,-25.6 0.7,0.7 0.3,0.8 -0.1,0.9 -0.2,0.3 -0.6,0.6 -0.8,0.3 -1,-0.1 -0.2,-0.1 -0.7,-0.7 -0.3,-0.8 0.1,-0.9 0.2,-0.3 0.6,-0.7 0.8,-0.3 1.2,0.3 1.4,0.6 1.2,1 0.5,0.9 -0.1,0.9 -0.2,0.6 -0.7,0.7 h -0.7 m -1,-10.3 4.4,5.4 m -6.2,-1.6 1.8,-3.8 m 17.1,-61.5 -0.3,-0.6 -0.9,-0.9 6.3,0.2 m -6.4,-3.1 0.3,0.9 0.9,0.6 1.5,0.3 0.9,0.1 1.5,-0.3 0.9,-0.5 0.3,-0.9 v -0.6 l -0.2,-0.9 -0.9,-0.7 -1.5,-0.3 -0.9,-0.1 -1.5,0.3 -0.9,0.6 -0.4,0.9 v 0.4 m 0.2,-4 0.1,-3.3 2.3,1.9 v -0.9 l 0.3,-0.6 0.4,-0.3 0.9,-0.2 h 0.6 l 0.9,0.3 0.5,0.6 0.3,0.9 v 0.9 l -0.4,0.9 -0.3,0.3 -0.6,0.3 m -27.7,-117.3 -0.6,0.4 -0.7,1 -1,-6.2 m -0.8,5.2 v 0.3 l -0.2,0.6 -0.2,0.4 -0.6,0.4 -1.2,0.2 -0.6,-0.2 -0.4,-0.3 -0.3,-0.5 -0.1,-0.6 0.2,-0.7 0.4,-0.9 2.5,-3.5 -4.2,0.7 m -3.2,7 2.3,-4.7 -4.4,0.8 m 2.1,3.9 -1,-6.3 m 31.2,45.6 -0.4,-0.6 -1,-0.7 6.2,-1 m -5.2,-0.8 h -0.3 l -0.6,-0.2 -0.4,-0.2 -0.4,-0.6 -0.1,-1.2 0.2,-0.6 0.2,-0.4 0.5,-0.4 h 0.6 l 0.7,0.2 1,0.4 3.4,2.5 -0.7,-4.2 m -5,-0.2 -0.4,-0.6 -1,-0.7 6.2,-1 M 616.9,66.1 l 0.7,-0.2 0.3,-0.9 0.1,-0.6 -0.3,-0.9 -0.8,-0.7 -1.5,-0.4 -1.5,-0.1 -1.2,0.2 -0.6,0.6 -0.4,0.9 v 0.2 l 0.2,1 0.6,0.6 0.8,0.4 h 0.3 l 0.9,-0.2 0.7,-0.6 0.4,-0.9 v -0.3 l -0.3,-0.9 -0.5,-0.6 -0.9,-0.4 m 1.5,9.1 -0.9,-0.4 -0.6,-0.6 -0.2,-0.9 v -0.3 l 0.4,-0.9 0.6,-0.6 0.9,-0.2 h 0.3 l 0.9,0.4 0.6,0.6 0.2,0.9 v 0.3 l -0.4,0.9 -0.6,0.6 -1.2,0.2 -1.5,-0.1 -1.5,-0.4 -0.9,-0.7 -0.2,-0.9 v -0.6 l 0.4,-0.9 0.6,-0.2 m 49.4,-11.9 -0.7,0.1 -1.1,0.6 2,-6 m -2.6,4.5 -0.7,0.1 -1.1,0.5 2,-5.9 m -2.6,4.5 h -0.7 l -1.2,0.6 2.1,-6 m 249.6,372.4 -0.8,0.4 -0.2,0.6 v 0.6 l 0.4,0.6 0.6,0.2 1.3,0.1 0.9,0.2 0.7,0.5 0.3,0.6 0.1,0.9 -0.2,0.6 -0.2,0.4 -0.9,0.4 -1.2,0.1 -0.9,-0.2 -0.3,-0.2 -0.4,-0.6 -0.1,-0.9 0.2,-0.6 0.5,-0.7 0.9,-0.4 1.1,-0.4 0.6,-0.4 0.2,-0.6 -0.1,-0.6 -0.3,-0.6 -1,-0.2 -1.3,0.2 m 8.1,1.1 -0.2,0.9 -0.5,0.7 -0.9,0.4 h -0.3 l -0.9,-0.1 -0.7,-0.6 -0.4,-0.8 v -0.3 l 0.2,-0.9 0.5,-0.7 0.9,-0.4 0.3,-0.1 0.9,0.2 0.7,0.6 0.4,1.1 0.2,1.5 -0.1,1.5 -0.5,1 -0.9,0.4 -0.6,0.1 -0.9,-0.2 -0.4,-0.6 m 14,-56.3 0.7,-0.7 0.7,-0.3 1,0.1 0.3,0.1 0.7,0.6 0.3,0.8 -0.1,1 -0.1,0.2 -0.7,0.7 -0.8,0.4 -0.9,-0.1 -0.3,-0.2 -0.7,-0.6 -0.3,-0.8 0.2,-1.2 0.6,-1.4 0.9,-1.2 0.9,-0.6 1,0.1 0.5,0.2 0.7,0.7 v 0.6 m -6.3,1.5 -0.2,0.3 -0.5,0.4 -0.4,0.1 -0.6,0.1 -1.1,-0.5 -0.5,-0.5 -0.1,-0.4 -0.1,-0.7 0.3,-0.5 0.5,-0.5 0.9,-0.5 4,-1.6 -3.9,-1.7 m 18.1,35.9 0.9,0.4 0.5,0.7 0.2,0.9 -0.1,0.3 -0.4,0.9 -0.7,0.5 -0.9,0.2 -0.3,-0.1 -0.9,-0.4 -0.5,-0.7 -0.2,-0.9 0.1,-0.3 0.4,-0.8 0.7,-0.6 1.2,-0.1 1.5,0.2 1.5,0.5 0.8,0.7 0.1,1 -0.1,0.6 -0.4,0.8 -0.6,0.2 m -3.3,-5.1 -0.2,-0.7 -0.8,-1 6.2,0.9 M 810.3,382.4 h 1 l 0.4,-0.5 0.2,-0.6 -0.1,-0.7 -0.5,-0.4 -1.1,-0.6 -0.8,-0.5 -0.4,-0.8 -0.2,-0.6 0.3,-0.9 0.4,-0.5 0.4,-0.2 1,-0.1 1.1,0.4 0.8,0.5 0.2,0.4 0.1,0.6 -0.2,0.9 -0.4,0.5 -0.8,0.4 -0.9,0.1 -1.3,-0.1 -0.6,0.2 -0.5,0.5 -0.1,0.5 0.1,0.7 0.8,0.5 1.3,0.4 m -5.3,-1.5 h 0.9 l 0.5,-0.5 0.1,-0.6 -0.1,-0.7 -0.5,-0.4 -1.1,-0.6 -0.8,-0.6 -0.4,-0.7 -0.1,-0.6 0.2,-0.9 0.5,-0.5 0.3,-0.2 1,-0.1 1.1,0.3 0.8,0.6 0.2,0.3 0.2,0.7 -0.3,0.9 -0.4,0.5 -0.7,0.4 h -1 -1.2 l -0.7,0.1 -0.4,0.5 -0.2,0.6 0.1,0.7 0.8,0.5 1.3,0.4 m 27.9,77.6 -0.9,-0.3 -0.6,0.3 -0.3,0.5 -0.2,0.6 0.3,0.6 0.8,1 0.5,0.8 0.2,0.8 -0.2,0.7 -0.5,0.7 -0.6,0.3 -0.4,0.1 -0.9,-0.3 -1,-0.8 -0.5,-0.8 -0.1,-0.4 0.1,-0.6 0.6,-0.8 0.6,-0.2 0.8,-0.2 0.9,0.3 1.2,0.5 0.6,0.1 0.6,-0.3 0.4,-0.4 0.1,-0.7 -0.5,-0.8 -1.1,-0.8 m 5.5,5.3 0.1,-0.6 -0.5,-0.8 -0.5,-0.4 -0.9,-0.3 -1,0.4 -1.1,1 -0.9,1.2 -0.5,1.1 0.1,0.9 0.5,0.7 0.3,0.2 0.9,0.3 0.8,-0.1 0.8,-0.5 0.2,-0.3 0.3,-0.9 -0.2,-0.8 -0.5,-0.8 -0.2,-0.2 -0.9,-0.3 -0.9,0.1 -0.7,0.6 m 54.6,-0.5 0.7,0.6 h 0.7 l 0.5,-0.3 0.4,-0.6 V 463 l -0.4,-1.2 -0.2,-1 0.3,-0.8 0.3,-0.5 0.8,-0.5 h 0.7 l 0.4,0.1 0.7,0.6 0.6,1.1 0.2,0.9 -0.1,0.4 -0.4,0.6 -0.8,0.4 h -0.7 l -0.8,-0.2 -0.7,-0.6 -0.8,-0.9 -0.6,-0.4 -0.7,0.1 -0.5,0.3 -0.4,0.5 0.2,1 0.7,1.1 m -3.8,-6.6 1.5,2.6 2.5,-1 -0.4,-0.1 -0.7,-0.7 -0.5,-0.8 -0.1,-0.9 0.2,-0.8 0.6,-0.7 0.5,-0.3 1,-0.2 0.8,0.2 0.7,0.7 0.4,0.7 0.2,1 -0.1,0.4 -0.4,0.5 m -11.3,21.2 -0.8,0.6 -0.1,0.6 0.1,0.6 0.5,0.5 0.6,0.1 h 1.3 l 0.9,0.1 0.8,0.4 0.4,0.5 0.2,0.9 -0.1,0.6 -0.2,0.4 -0.8,0.5 -1.2,0.3 h -0.9 l -0.4,-0.2 -0.4,-0.5 -0.3,-0.9 0.2,-0.7 0.4,-0.7 0.8,-0.5 1.1,-0.6 0.5,-0.5 0.1,-0.6 -0.1,-0.6 -0.5,-0.5 -0.9,-0.1 -1.3,0.4 m 6.9,-1.9 -1.9,4.8 4.4,-1.1 m -2.5,-3.7 1.6,6.1 m -118.5,-55.1 -1,0.1 -0.4,0.5 -0.1,0.6 0.2,0.7 0.5,0.4 1.1,0.5 0.8,0.5 0.5,0.7 0.2,0.7 -0.2,0.9 -0.4,0.5 -0.4,0.2 -0.9,0.1 -1.2,-0.2 -0.8,-0.5 -0.3,-0.4 -0.1,-0.6 0.1,-0.9 0.5,-0.5 0.7,-0.5 0.9,-0.1 h 1.3 l 0.6,-0.2 0.4,-0.5 0.1,-0.6 -0.1,-0.7 -0.8,-0.4 -1.4,-0.3 m 7.9,1.7 -4.2,5.5 m 0.1,-6.4 4.1,0.9 m -46.9,-23.9 -0.9,0.3 h -0.8 l -0.8,-0.5 -0.2,-0.2 -0.4,-0.9 0.1,-0.9 0.5,-0.8 0.2,-0.2 0.9,-0.3 h 0.8 l 0.8,0.5 0.2,0.2 0.4,0.9 -0.1,0.9 -0.7,1 -1.1,1 -1.4,0.7 -1,0.1 -0.8,-0.5 -0.4,-0.4 -0.4,-0.9 0.3,-0.6 m 9.2,2.4 -5.1,0.5 2.9,3.4 m 2.2,-3.9 -4.7,4.1 m -0.4,-51.1 -0.7,-0.7 -0.3,-0.8 0.1,-0.9 0.1,-0.3 0.7,-0.7 0.8,-0.3 0.9,0.1 0.3,0.2 0.7,0.6 0.3,0.8 -0.1,0.9 -0.1,0.3 -0.7,0.7 -0.8,0.3 -1.2,-0.2 -1.4,-0.6 -1.2,-0.9 -0.6,-1 0.1,-0.9 0.3,-0.5 0.6,-0.7 0.7,-0.1 m 2.3,8 0.1,-1 -0.4,-0.5 -0.5,-0.2 h -0.7 l -0.5,0.4 -0.8,1 -0.7,0.7 -0.7,0.3 h -0.7 l -0.8,-0.4 -0.5,-0.5 -0.1,-0.4 0.1,-1 0.5,-1 0.6,-0.7 0.4,-0.2 h 0.7 l 0.8,0.4 0.4,0.5 0.3,0.8 -0.1,0.9 -0.2,1.2 v 0.7 l 0.5,0.5 0.5,0.3 h 0.7 l 0.6,-0.7 0.6,-1.3 m 26.1,-11.8 0.8,-0.5 0.8,-0.1 0.9,0.4 0.2,0.2 0.5,0.8 0.1,0.9 -0.4,0.8 -0.2,0.3 -0.8,0.5 h -0.8 l -0.9,-0.3 -0.2,-0.2 -0.5,-0.9 -0.1,-0.8 0.6,-1.1 1,-1.1 1.2,-1 1,-0.3 0.9,0.4 0.4,0.4 0.5,0.8 -0.1,0.7 m -8.7,-3.2 0.8,-0.5 0.8,-0.1 0.9,0.4 0.2,0.2 0.5,0.8 0.1,0.9 -0.4,0.8 -0.2,0.3 -0.8,0.4 -0.9,0.1 -0.8,-0.4 -0.3,-0.2 -0.4,-0.8 -0.1,-0.8 0.6,-1.1 0.9,-1.2 1.3,-0.9 1,-0.3 0.9,0.4 0.4,0.4 0.5,0.8 -0.2,0.6 m 167.3,233.3 0.8,-0.5 0.9,-0.1 0.9,0.4 0.2,0.2 0.5,0.8 0.1,0.8 -0.3,0.9 -0.2,0.2 -0.8,0.5 -0.9,0.1 -0.8,-0.3 -0.3,-0.2 -0.5,-0.8 -0.1,-0.8 0.5,-1.2 1,-1.1 1.2,-1 1,-0.3 0.9,0.3 0.4,0.4 0.6,0.8 -0.2,0.6 m -10.2,-1.3 6.3,-3 m -3.1,5.6 -3.2,-2.6 m -47.4,-24.9 0.4,-0.8 0.7,-0.5 0.9,-0.2 h 0.3 l 0.9,0.4 0.5,0.6 0.2,1 v 0.3 l -0.4,0.8 -0.7,0.6 -0.9,0.2 -0.3,-0.1 -0.9,-0.4 -0.5,-0.6 -0.2,-1.3 0.2,-1.4 0.4,-1.5 0.7,-0.8 1,-0.2 h 0.6 l 0.8,0.4 0.3,0.7 m -5.1,3.4 -0.7,0.2 -0.9,0.8 0.6,-6.2 m -14.3,24.4 -0.9,-0.2 -0.7,-0.5 -0.4,-0.9 v -0.3 l 0.2,-0.9 0.5,-0.7 0.8,-0.4 h 0.3 l 1,0.2 0.6,0.5 0.4,0.9 0.1,0.3 -0.2,0.9 -0.5,0.6 -1.2,0.5 -1.5,0.2 -1.5,-0.1 -1,-0.5 -0.4,-0.9 v -0.6 l 0.1,-0.9 0.6,-0.4 m 6.2,5.9 -0.5,-0.9 -0.9,-0.5 -1.5,-0.1 -0.9,0.1 -1.5,0.5 -0.8,0.7 -0.2,0.9 0.1,0.6 0.4,0.9 0.9,0.5 1.6,0.1 0.9,-0.1 1.4,-0.5 0.8,-0.7 0.2,-0.9 v -0.5"
       id="nums_002"
       stroke="#000000"
       stroke-width="1" />
    <path
       d="m 952.2,374.3 -45.3,-22.6 -42.6,-48 3.1,-59.5 -4.25,59.35 40.45,49.75 46.4,20.3 -7.1,51.4 -62.9,7.7 27.5,47.8 -44,11.5 -64.6,-48.9 -55,-11.7 -34.7,-40.4 28.7,-63.1 43.9,38.1 54.3,15 -42.7,-36.8 -33.4,-47.5 -63.9,27.1 -14.8,51.3 31.7,46.3 -14.7,79.7 33.3,30.9 31.6,-45.3 39.9,49.2 19.3,58.8 -14.4,76.9 45.6,-63.6 -7.5,-61.4 51.6,5.7 60.6,48.8 -55.8,49.3 -58.8,49.7 -96.4,31 -49,-33.4 38.2,-59.7 -4.8,-55.9 -87.5,-9 -26.6,-43.1 -7.3,-61 34.3,-36.5 -61.8,-43.4 -18,-28.2 60.5,-38.6 34.1,-38.7 54.1,-45.7 -49.2,-28.5 -7,-36.9 -53.9,-23.3 3.5,-46.9 5.2,-70.8 96.5,33 6.1,52.1 25.4,60.3 v -65.5 l 1.2,-52.4 62.3,18 51.6,41.5 -33.7,32.5 -13.3,30.9 20.7,-26.6 35.4,-30.5 59.1,19.1 51.2,-8.3 14.4,89.3 -2.65,79.05 z"
       id="coupes_002"
       stroke="#ff0000"
       stroke-width="1.27"
       sodipodi:nodetypes="cccccccccccccccccccccccccccccccccccccccccccccccccccccccccccccccccccc" />
    <path
       d="m 808,671.6 35.7,28.5 m -96.4,31 60.7,-59.5 M 698.3,697.7 808,671.6 M 736.5,638 808,671.6 m -76.3,-89.5 90.7,12.6 m -90.7,-12.6 71.4,-46.2 m -71.5,-3.9 71.5,3.9 m -71.4,46.2 -0.1,-50.1 m -87.4,41.1 87.4,-41.1 m -87.4,41.1 54.1,-72 m -88,-32.1 88,32.1 M 644.6,432.5 713,421.4 m -68.4,11.1 36.7,-57.4 m -56,-52.8 56,52.8 M 808,671.6 902.5,650.4 m -48.9,-42.4 48.9,42.4 m -277.2,-328.1 70.8,1.5 m -36.7,-40.2 36.7,40.2 M 659.4,283.6 760,296.7 m -46.5,-58.8 46.5,58.8 m 68,-45.8 -68,45.8 m 68,-45.8 35.2,52.6 m 0,0 -103.2,-6.8 m -46.5,-58.8 26.6,-61 m 0,0 87.9,74 m -163.7,-41.5 75.8,-32.5 m -82.8,-4.4 82.8,4.4 m 0,0 68.1,5 m 0,0 19.8,69 m -19.8,-69 59.2,62.3 m 0,0 -39.4,6.7 m -87.9,-74 81.4,-25.9 m -164.2,21.5 57.4,-55.9 m -57.4,55.9 -50.4,-70.2 m 133.2,9.1 63.5,-34.4 m 0,0 17.9,74 M 606.9,102.3 708.6,64.5 m 154.6,239 -27.1,77.5 m 67.5,-27.7 -67.5,27.7 m 87.3,-237.1 -56,100.3 m 56,-100.3 65.6,81 m 0,0 -121.6,19.3 M 989,224.9 938.1,292.5 m 0,0 -70.7,-48.3 m 70.7,48.3 -73.8,11.2 m 73.8,-11.2 14.1,81.8 m -14.1,-81.8 48.2,11.8 M 880,432.7 836.1,381 m 67.5,-27.7 39.3,71.7 m -144,18.1 37.2,-62.1 m 43.9,51.7 -81.1,10.4 m 0,0 -17.1,-77.1 m -72.6,25 72.6,-25 m 71.8,242 44.1,-55.7"
       id="plisM_002"
       stroke="#a52a2a"
       stroke-dasharray="4" />
    <path
       d="m 736.5,638 85.9,-43.3 M 617.6,530 698.3,501.1 m -53.7,-68.6 53.7,68.6 m -115.5,-112 98.5,-14 m -116.5,-14.2 116.5,14.2 m 32.2,-137.2 114.5,13 m 35.2,52.6 -69.8,40.7 M 740.1,111.4 821.5,151 m 7.4,4.3 38.5,88.9 M 606.9,102.3 714.7,116.6 M 853.6,608 958.3,601.1 M 828.9,155.3 923.4,143.9 m 14.7,148.6 -31.2,59.2 m -3.3,1.6 -23.6,79.4 m 0,0 -16.5,59.3 M 743.9,431.4 781.8,366"
       id="plisV_002"
       stroke="#008000"
       stroke-dasharray="4, 1, 1, 1"
       stroke-width="1.27" />
    <path
       d="m 777.4,614.3 4,4 m 0,-4 -4,4 m -121.5,-104.7 4,4 m 0,-4 -4,4 m 13.5,-52.8 4,4 m 0,-4 -4,4 m -39.4,-88.7 4,4 m 0,-4 -4,4 m -8.9,-18.1 4,4 m 0,-4 -4,4 m 147.6,-127.6 4,4 m 0,-4 -4,4 m 57.6,75.5 4,4 m 0,-4 -4,4 m -47.5,-196.7 4,4 m 0,-4 -4,4 m 67.4,64.6 4,4 m 0,-4 -4,4 m -187.4,-94.4 4,4 m 0,-4 -4,4 m 245.1,491.1 4,4 m 0,-4 -4,4 m -29.8,-458.9 4,4 m 0,-4 -4,4 m 46.4,168.5 4,4 m 0,-4 -4,4 m -30.7,66.9 4,4 m 0,-4 -4,4 m -20,65.3 4,4 m 0,-4 -4,4 m -108.9,-67.6 4,4 m 0,-4 -4,4"
       id="marqueV_002"
       stroke="#008000" />
    <path
       d="m 738.4,353 v -0.7 l 0.8,-1.5 0.7,-0.8 1.5,-0.7 h 3 l 1.5,0.7 0.8,0.8 0.7,1.5 v 1.5 l -0.7,1.5 -1.5,2.2 -7.5,7.5 h 10.5"
       id="titre_2"
       stroke="#4b0082" />
  </g>
  <g
     id="page_003">
    <path
       d="m 1224.1,372.4 -0.9,-0.3 -1.1,0.3 -1.1,1 -0.6,0.7 -0.7,1.3 -0.1,1.1 0.5,0.8 0.4,0.4 0.9,0.3 1.1,-0.3 1.1,-1 0.6,-0.7 0.7,-1.3 0.1,-1.1 -0.5,-0.8 -0.3,-0.3 m -8.5,-25.9 -0.3,0.6 -0.2,1.2 -3.5,-5.2 m 42.2,-36.9 1.5,-2.6 -2.2,-1.6 0.1,0.4 -0.2,0.9 -0.4,0.8 -0.8,0.6 -0.8,0.2 -0.9,-0.2 -0.5,-0.3 -0.6,-0.7 -0.3,-0.8 0.2,-1 0.5,-0.7 0.7,-0.7 0.4,-0.1 0.7,0.1 m 53.5,11.9 -0.7,-0.1 -0.7,0.7 -0.3,0.5 -0.1,0.9 0.5,1 1.1,1 1.4,0.7 1.2,0.3 0.8,-0.2 0.7,-0.7 0.1,-0.2 0.2,-1 -0.3,-0.8 -0.6,-0.7 -0.3,-0.1 -0.9,-0.2 -0.8,0.3 -0.7,0.6 -0.1,0.3 -0.2,0.9 0.2,0.8 0.7,0.7 m 19.6,-43.3 v -0.6 l -0.4,-1.2 5.7,2.7 m -3.8,-3.7 -0.3,-0.1 -0.4,-0.5 -0.2,-0.4 v -0.7 l 0.6,-1.1 0.5,-0.4 0.4,-0.1 h 0.7 l 0.5,0.2 0.4,0.6 0.6,0.9 1.4,4 1.8,-3.8 m -66.8,-23.1 h 0.3 l 0.6,0.2 0.4,0.3 0.3,0.5 0.2,1.2 -0.2,0.6 -0.3,0.4 -0.6,0.4 h -0.6 l -0.6,-0.2 -1,-0.5 -3.3,-2.6 0.5,4.1 m -3.6,162.7 0.4,0.5 1.1,0.7 -6.1,1.5 m 7.4,2.6 -4.8,-1.9 1.1,4.4 m 3.7,-2.5 -6.1,1.5 m 85.3,-39.4 -0.5,0.8 0.1,0.6 0.4,0.5 0.6,0.3 0.6,-0.1 1.2,-0.5 0.9,-0.3 0.8,0.1 0.6,0.3 0.6,0.7 0.1,0.7 -0.1,0.4 -0.5,0.8 -1,0.7 -0.9,0.3 h -0.4 l -0.6,-0.3 -0.5,-0.8 -0.2,-0.6 0.2,-0.9 0.5,-0.7 0.8,-1 0.3,-0.6 -0.1,-0.7 -0.4,-0.4 -0.6,-0.3 -0.9,0.3 -1.1,0.8 m -17.8,-51.4 0.7,0.2 0.8,-0.3 0.5,-0.4 0.5,-0.8 -0.2,-1.1 -0.7,-1.3 -1,-1.2 -1.1,-0.7 h -0.8 l -0.9,0.4 -0.2,0.1 -0.5,0.9 v 0.8 l 0.3,0.9 0.2,0.2 0.9,0.5 h 0.8 l 0.9,-0.3 0.2,-0.2 0.5,-0.8 v -0.9 l -0.3,-0.9 m 54.1,28.6 0.2,-0.6 0.1,-1.3 4.2,4.7 m -3,-6 2.5,-2.2 0.2,3 0.7,-0.6 0.6,-0.2 h 0.4 l 0.9,0.5 0.4,0.5 0.3,0.8 v 0.9 l -0.5,0.8 -0.7,0.6 -0.8,0.4 h -0.5 l -0.6,-0.3 m -22,-66.7 -0.1,0.6 0.3,1.3 -5.3,-3.5 m 3.3,4.2 0.2,0.1 0.4,0.6 v 0.4 0.7 l -0.7,1 -0.6,0.3 -0.4,0.1 h -0.7 l -0.5,-0.4 -0.3,-0.6 -0.4,-1 -0.9,-4.1 -2.3,3.5 m 51.2,35.5 -0.3,-0.1 -0.3,-0.6 -0.1,-0.4 v -0.7 l 0.7,-1 0.6,-0.3 0.4,-0.1 h 0.6 l 0.5,0.4 0.4,0.5 0.4,1 0.9,4.2 2.3,-3.6 m -3,-7 1.9,4.8 2.4,-3.8 m -4.3,-1 5.3,3.4 m -179.6,-137.1 2.2,2.5 -2.9,0.3 0.6,0.6 0.2,0.7 -0.1,0.4 -0.4,0.8 -0.4,0.4 -0.9,0.4 h -0.9 l -0.8,-0.4 -0.6,-0.7 -0.4,-0.9 v -0.4 l 0.2,-0.6 m -3.4,-38 -0.1,-5.2 -3.6,2.7 m 3.7,2.5 -3.7,-5.1 m 84.5,37.5 0.7,0.7 0.2,0.8 -0.1,1 -0.2,0.2 -0.7,0.7 -0.8,0.2 -0.9,-0.1 -0.3,-0.2 -0.6,-0.7 -0.3,-0.8 0.2,-0.9 0.1,-0.3 0.7,-0.6 0.8,-0.3 1.2,0.3 1.4,0.7 1.1,1 0.5,1 -0.1,0.9 -0.3,0.5 -0.7,0.7 h -0.7 m -24.2,-60.3 -0.6,0.4 -0.7,1 -1,-6.2 m -1.9,6.9 0.9,-0.5 0.4,-1 0.1,-1.5 -0.2,-0.9 -0.5,-1.4 -0.8,-0.8 -0.9,-0.2 -0.6,0.1 -0.8,0.5 -0.5,1 v 1.5 l 0.1,0.9 0.5,1.4 0.8,0.8 0.9,0.2 0.5,-0.1 m 33.4,14.1 -0.4,-0.6 -1.1,-0.6 6.2,-1.4 m -5.2,0.1 -0.4,-0.6 -1.1,-0.6 6.1,-1.4 m 12.2,294.1 -0.5,-0.5 -1.1,-0.6 5.9,-2 m -7,-0.4 0.6,0.8 0.6,0.1 0.6,-0.2 0.5,-0.5 0.1,-0.7 -0.1,-1.2 v -1 l 0.3,-0.7 0.5,-0.5 0.8,-0.3 0.7,0.1 0.4,0.2 0.6,0.7 0.4,1.2 v 0.9 l -0.2,0.4 -0.5,0.5 -0.8,0.3 -0.7,-0.1 -0.8,-0.4 -0.5,-0.8 -0.7,-1 -0.5,-0.5 h -0.7 l -0.5,0.2 -0.5,0.4 v 1 l 0.5,1.3 m -93.7,26.8 -0.4,0.5 -0.5,1.2 -2.7,-5.7 m -1.8,8.2 -0.1,-7 m 3.8,5.1 -3.7,1.9 m -40.3,27.8 0.3,0.1 0.3,0.6 v 0.5 l -0.1,0.6 -0.7,1 -0.6,0.3 -0.4,0.1 -0.7,-0.2 -0.5,-0.3 -0.3,-0.6 -0.3,-1 -0.7,-4.2 -2.5,3.4 m 3.3,3.7 -0.1,0.7 0.2,1.2 -5,-3.7 m 57,20.7 -0.2,-0.2 -0.4,-0.5 -0.2,-0.4 v -0.7 l 0.5,-1.1 0.6,-0.4 0.4,-0.1 h 0.6 l 0.6,0.2 0.4,0.6 0.5,0.9 1.4,4 1.9,-3.8 m -3.6,-3.6 -0.3,-0.1 -0.4,-0.5 -0.2,-0.4 v -0.7 l 0.6,-1.1 0.5,-0.4 0.4,-0.1 h 0.7 l 0.5,0.2 0.4,0.6 0.6,0.9 1.4,4 1.8,-3.8 m -92.1,34.2 -1.9,2.8 -0.9,-2.9 -0.5,0.8 -0.6,0.3 -0.4,0.1 -0.9,-0.3 -0.5,-0.4 -0.6,-0.7 -0.2,-0.9 0.3,-0.9 0.5,-0.7 0.8,-0.6 h 0.4 0.7 m 0.1,8.8 0.2,-0.9 -0.4,-1 -1,-1.1 -0.8,-0.5 -1.4,-0.6 h -1 l -0.8,0.5 -0.3,0.5 -0.3,0.9 0.4,1 1.1,1.2 0.7,0.5 1.4,0.6 h 1.1 l 0.7,-0.6 0.3,-0.3 m 247.3,-275.1 0.9,-7 m 3.1,5.7 -4,1.3 m 41.1,12.4 -0.3,0.2 -0.6,0.1 -0.5,-0.1 -0.5,-0.4 -0.7,-1 v -0.7 l 0.1,-0.4 0.3,-0.6 0.5,-0.3 h 0.7 1.1 l 4.1,0.9 -2.2,-3.5 m -6.9,0.8 0.7,0.6 1.1,0.1 1.4,-0.6 0.8,-0.5 1.1,-1 0.4,-1 -0.2,-0.9 -0.3,-0.5 -0.8,-0.6 -1,-0.1 -1.5,0.6 -0.7,0.5 -1.1,1 -0.5,1 0.2,0.9 0.3,0.4 m -284.4,295.1 2.9,1.7 -2.8,1.2 0.8,0.4 0.4,0.6 0.1,0.4 -0.2,0.9 -0.3,0.5 -0.7,0.7 -0.8,0.2 -1,-0.2 -0.7,-0.4 -0.7,-0.8 -0.1,-0.4 0.1,-0.6 m 6.4,-0.6 h 0.6 l 1.3,-0.3 -3.2,5.5 m 95.2,-15.1 -2.2,-2.4 3,-0.3 -0.7,-0.7 -0.2,-0.6 0.1,-0.4 0.4,-0.9 0.4,-0.4 0.9,-0.4 0.9,0.1 0.8,0.4 0.6,0.7 0.4,0.8 v 0.4 l -0.2,0.7 m -6.7,-1.8 -0.2,0.2 -0.6,0.2 h -0.5 l -0.6,-0.3 -0.8,-0.8 -0.2,-0.7 v -0.4 l 0.2,-0.6 0.5,-0.4 0.6,-0.2 1.1,-0.2 4.2,0.1 -2.9,-3.1 m 183.9,-229.3 0.3,0.1 0.6,0.4 0.2,0.3 0.2,0.7 -0.2,1.1 -0.4,0.6 -0.3,0.2 -0.7,0.2 -0.6,-0.1 -0.5,-0.4 -0.8,-0.7 -2.5,-3.4 -0.7,4.1 m 5.6,5.3 -3.6,-3.7 -0.8,4.5 m 4.4,-0.8 -6.2,-1 m -10.8,33 -0.2,0.7 0.1,1.2 -4.8,-4 m 3.9,5.5 -2.1,2.5 -0.7,-2.9 -0.6,0.7 -0.6,0.3 h -0.4 l -0.9,-0.3 -0.5,-0.4 -0.5,-0.8 v -0.8 l 0.3,-0.9 0.6,-0.7 0.8,-0.5 0.4,-0.1 0.7,0.2 m -17.1,43.5 v -0.9 l -0.5,-0.5 -0.6,-0.2 -0.7,0.2 -0.4,0.4 -0.7,1.1 -0.5,0.8 -0.8,0.4 -0.6,0.1 -0.9,-0.3 -0.5,-0.4 -0.2,-0.4 v -0.9 l 0.4,-1.2 0.5,-0.8 0.4,-0.2 0.6,-0.1 0.9,0.3 0.5,0.4 0.4,0.8 v 0.9 1.3 l 0.1,0.6 0.5,0.5 0.5,0.2 0.7,-0.1 0.5,-0.8 0.4,-1.3 m 50,7.2 -0.1,-0.7 -0.5,-1.1 5.9,2.1 m -2.4,-6.2 0.7,0.5 0.4,0.8 v 1 l -0.1,0.2 -0.6,0.8 -0.8,0.3 h -0.9 l -0.3,-0.1 -0.8,-0.6 -0.3,-0.7 v -1 l 0.1,-0.3 0.6,-0.7 0.8,-0.4 1.2,0.2 1.4,0.5 1.3,0.8 0.7,0.8 -0.1,1 -0.2,0.5 -0.6,0.8 -0.6,0.1 m -52.8,30.6 0.6,0.3 1.3,0.2 -4.9,3.9 m 6.7,-2 -0.8,-0.5 -0.6,0.1 -0.5,0.4 -0.3,0.6 0.2,0.7 0.5,1.1 0.3,0.9 -0.1,0.8 -0.3,0.6 -0.7,0.6 -0.6,0.1 h -0.5 l -0.8,-0.5 -0.7,-1 -0.3,-0.9 v -0.4 l 0.3,-0.6 0.7,-0.5 0.7,-0.2 0.8,0.1 0.8,0.5 1,0.8 0.6,0.3 0.6,-0.2 0.5,-0.4 0.3,-0.6 -0.3,-0.9 -0.9,-1 m 27.7,23.7 0.1,-0.3 0.5,-0.5 0.4,-0.2 0.7,-0.1 1.1,0.4 0.5,0.5 0.1,0.4 0.1,0.7 -0.2,0.5 -0.5,0.5 -0.8,0.7 -3.9,1.8 4,1.4 m 6.6,-4.4 -2.9,-1 -1.2,2.5 0.4,-0.2 h 1 l 0.8,0.3 0.8,0.6 0.3,0.8 v 0.9 l -0.2,0.6 -0.6,0.7 -0.7,0.4 h -1 l -0.8,-0.3 -0.8,-0.6 -0.2,-0.4 v -0.7 m 59.9,-55.3 -2.4,-2.2 3,-0.5 -0.7,-0.7 -0.2,-0.6 v -0.4 l 0.3,-0.9 0.5,-0.4 0.8,-0.5 h 0.8 l 0.9,0.4 0.7,0.6 0.4,0.8 v 0.4 l -0.2,0.7 m -10.3,-2.6 6.5,-2.6 m -3.4,5.4 -3.1,-2.8 m -19,3.3 -0.1,0.7 0.3,1.2 -5.3,-3.4 m 1,6.6 -0.6,-0.7 -0.2,-0.8 0.2,-1 0.2,-0.2 0.7,-0.6 0.9,-0.2 0.9,0.3 0.2,0.1 0.6,0.8 0.2,0.8 -0.2,0.9 -0.2,0.3 -0.7,0.5 -0.9,0.2 -1.1,-0.4 -1.3,-0.8 -1.1,-1.1 -0.4,-1 0.2,-0.9 0.3,-0.5 0.8,-0.6 0.6,0.1 m 35.4,50.9 3.5,3.8 0.9,-4.4 m -4.4,0.6 6.2,1.3 m -5,-7 3.5,3.8 0.9,-4.4 m -4.4,0.6 6.2,1.3 m -32,60.9 2.1,-2.6 0.7,2.9 0.6,-0.8 0.6,-0.2 0.4,-0.1 0.9,0.3 0.5,0.4 0.5,0.8 0.1,0.8 -0.3,0.9 -0.6,0.7 -0.7,0.6 h -0.5 L 1468,529 m 0.2,-8.6 -0.3,0.9 0.3,0.6 0.4,0.4 0.7,0.1 0.6,-0.2 1,-0.8 0.8,-0.5 0.8,-0.1 0.7,0.1 0.7,0.6 0.3,0.6 v 0.4 l -0.3,0.9 -0.7,0.9 -0.8,0.5 -0.5,0.1 -0.6,-0.1 -0.7,-0.6 -0.3,-0.6 -0.1,-0.8 0.3,-0.9 0.5,-1.2 0.1,-0.6 -0.2,-0.6 -0.5,-0.4 -0.7,-0.1 -0.8,0.5 -0.8,1.1 m -35.2,-7.9 0.3,0.1 0.3,0.6 v 0.5 l -0.1,0.6 -0.7,1 -0.6,0.3 -0.4,0.1 -0.7,-0.2 -0.5,-0.3 -0.3,-0.6 -0.3,-1 -0.6,-4.2 -2.5,3.3 m 1.5,7.1 0.6,0.1 0.8,-0.6 0.4,-0.4 0.3,-0.9 -0.4,-1.1 -1,-1.1 -1.2,-0.9 -1.2,-0.5 -0.8,0.2 -0.8,0.5 -0.2,0.3 -0.3,0.9 0.1,0.8 0.6,0.8 0.2,0.2 0.9,0.2 0.9,-0.1 0.8,-0.5 0.1,-0.3 0.3,-0.9 -0.1,-0.8 -0.5,-0.8 m -147.6,-24.7 0.2,-0.3 0.6,-0.3 h 0.4 l 0.7,0.1 0.9,0.7 0.3,0.6 0.1,0.4 -0.1,0.7 -0.4,0.5 -0.6,0.3 -1,0.3 -4.2,0.6 3.3,2.5 m 5.2,-3.9 2.6,2 -2.9,0.8 0.8,0.5 0.3,0.6 v 0.5 l -0.3,0.9 -0.4,0.4 -0.7,0.6 -0.9,0.1 -0.9,-0.3 -0.7,-0.6 -0.5,-0.7 -0.1,-0.5 0.1,-0.6 m 66.4,-19.7 -0.3,0.2 h -0.7 l -0.4,-0.1 -0.5,-0.4 -0.6,-1 -0.1,-0.7 0.1,-0.4 0.4,-0.5 0.5,-0.3 0.7,-0.1 1.1,0.1 4.1,1.1 -2.2,-3.7 m -7.8,-0.9 1.5,2.6 2.5,-1.1 -0.4,-0.1 -0.7,-0.6 -0.5,-0.8 -0.2,-0.9 0.3,-0.9 0.6,-0.7 0.5,-0.3 0.9,-0.2 0.9,0.3 0.7,0.6 0.4,0.8 0.2,0.9 -0.1,0.4 -0.4,0.6 m -22.8,28.1 -0.2,-0.3 v -0.6 l 0.2,-0.4 0.4,-0.6 1.1,-0.5 h 0.7 l 0.4,0.2 0.5,0.4 0.2,0.5 v 0.7 l -0.1,1.1 -1.5,4 3.8,-1.8 m 2,-6.9 -0.5,-0.4 -0.9,0.1 -0.6,0.2 -0.7,0.7 -0.1,1 0.3,1.5 0.7,1.4 0.8,0.9 0.8,0.3 0.9,-0.1 0.3,-0.1 0.7,-0.7 0.2,-0.8 -0.1,-0.9 -0.1,-0.3 -0.6,-0.7 -0.8,-0.2 -1,0.1 -0.3,0.1 -0.6,0.6 -0.3,0.8 0.1,1 M 1361,226 l 2.2,6.6 m -5.3,-3.7 3.1,-2.9 m -42.5,-29.7 -0.4,-0.8 v -0.8 l 0.4,-0.9 0.2,-0.2 0.8,-0.5 h 0.8 l 0.9,0.4 0.2,0.2 0.5,0.9 v 0.8 l -0.4,0.9 -0.2,0.2 -0.9,0.4 h -0.8 l -1.1,-0.6 -1.1,-1 -0.8,-1.2 -0.3,-1.1 0.4,-0.9 0.4,-0.4 0.9,-0.4 0.6,0.2 m 46,-29.3 -0.4,0.6 -0.3,1.2 -3.1,-5.5 m -1,8 2.7,-1.5 -1.1,-2.5 -0.1,0.4 -0.6,0.7 -0.8,0.5 -0.9,0.1 -0.9,-0.2 -0.7,-0.6 -0.3,-0.6 -0.1,-0.9 0.2,-0.8 0.7,-0.7 0.7,-0.4 1,-0.2 0.4,0.1 0.5,0.4 m 62.8,59.1 h -0.3 l -0.6,-0.3 -0.3,-0.3 -0.3,-0.6 V 217 l 0.3,-0.6 0.3,-0.3 0.6,-0.3 h 0.6 l 0.6,0.3 0.9,0.6 3,3 v -4.2 m -6.3,-5.2 6.3,3 m -6.3,1.2 v -4.2 m -11.5,10.1 0.2,-0.2 0.6,-0.3 h 0.4 l 0.6,0.2 1,0.7 0.2,0.7 v 0.4 l -0.1,0.6 -0.4,0.5 -0.6,0.2 -1.1,0.3 -4.2,0.3 3.2,2.8 m 6.3,-2.8 -0.9,-0.4 -1,0.3 -1.2,0.9 -0.6,0.7 -0.8,1.3 -0.1,1.1 0.5,0.8 0.4,0.4 0.9,0.4 1.1,-0.3 1.2,-1 0.6,-0.6 0.7,-1.4 0.1,-1 -0.4,-0.8 -0.4,-0.3 m 85.5,118.3 -3.2,-0.7 2.2,-1.9 -0.8,-0.2 -0.6,-0.4 -0.2,-0.4 -0.1,-0.9 0.1,-0.6 0.5,-0.8 0.7,-0.5 1,-0.1 0.8,0.2 0.9,0.5 0.2,0.3 0.2,0.7 m -9.7,0.9 0.5,-0.8 0.7,-0.4 0.9,-0.1 h 0.3 l 0.8,0.5 0.5,0.7 0.1,1 -0.1,0.3 -0.4,0.8 -0.8,0.4 -0.9,0.1 h -0.3 l -0.8,-0.5 -0.5,-0.7 v -1.3 l 0.3,-1.4 0.6,-1.4 0.8,-0.8 0.9,-0.1 0.6,0.1 0.8,0.5 0.2,0.7 m 5,33.3 3.1,4.1 1.3,-4.3 m -4.4,0.2 6,1.8 m -3.9,-3.9 -0.1,-0.6 -0.6,-1.1 6.1,1.8 m -32.5,17.9 -4,3.2 4.3,1.3 m -0.3,-4.5 -1.7,6.1 m 4.3,-3.7 0.1,-0.3 0.4,-0.5 0.4,-0.2 0.7,-0.2 1.1,0.4 0.5,0.4 0.2,0.4 0.2,0.7 -0.2,0.5 -0.5,0.5 -0.8,0.7 -3.7,2.1 4.1,1.1 m -5.3,-258.4 -3.2,-0.7 2.3,-1.9 -0.9,-0.2 -0.5,-0.5 -0.3,-0.3 -0.1,-1 0.1,-0.5 0.5,-0.9 0.7,-0.4 1,-0.1 0.9,0.2 0.8,0.5 0.2,0.3 0.2,0.7 m -9.7,2.2 0.2,0.6 0.8,0.5 0.6,0.1 1,-0.1 0.7,-0.7 0.6,-1.4 0.4,-1.5 -0.1,-1.2 -0.4,-0.7 -0.9,-0.5 -0.3,-0.1 -0.9,0.1 -0.7,0.5 -0.5,0.8 -0.1,0.3 0.1,0.9 0.5,0.7 0.8,0.5 0.3,0.1 1,-0.1 0.7,-0.5 0.5,-0.8 m 45.1,54 5,1.2 -1.7,-4.2 m -3.3,3 5.8,-2.4 m -7,-0.6 -1.3,-3 2.9,0.7 -0.3,-0.8 v -0.7 l 0.2,-0.4 0.7,-0.6 0.6,-0.2 0.9,-0.1 0.8,0.3 0.6,0.7 0.4,0.9 v 0.9 l -0.1,0.4 -0.5,0.5 m -26.6,50.9 h 0.3 l 0.6,0.3 0.3,0.3 0.3,0.5 0.1,1.2 -0.3,0.7 -0.3,0.3 -0.6,0.3 h -0.6 l -0.6,-0.2 -0.9,-0.6 -3.1,-2.9 0.2,4.2 m 4.4,4.9 -0.9,-0.3 -0.7,-0.5 -0.3,-0.9 v -0.3 l 0.3,-0.9 0.5,-0.7 0.9,-0.3 h 0.3 l 0.9,0.2 0.6,0.6 0.4,0.9 v 0.3 l -0.3,0.9 -0.5,0.6 -1.2,0.4 -1.5,0.1 -1.5,-0.3 -0.9,-0.5 -0.4,-0.9 v -0.6 l 0.2,-0.9 0.6,-0.4 m -14.2,67.1 v 0.3 l -0.3,0.6 -0.3,0.3 -0.6,0.3 h -1.2 l -0.6,-0.2 -0.3,-0.3 -0.3,-0.6 v -0.6 l 0.2,-0.6 0.6,-1 2.9,-3.1 -4.2,0.2 m -2.4,6.4 0.9,-0.4 0.2,-0.6 v -0.6 l -0.3,-0.5 -0.6,-0.3 -1.2,-0.3 -0.9,-0.3 -0.6,-0.5 -0.4,-0.6 v -0.9 l 0.3,-0.6 0.3,-0.3 0.9,-0.4 h 1.2 l 0.9,0.3 0.3,0.2 0.3,0.6 v 0.9 l -0.2,0.6 -0.6,0.7 -0.9,0.3 -1.2,0.3 -0.6,0.4 -0.3,0.6 v 0.6 l 0.4,0.6 0.9,0.2 h 1.3 m 4.9,8.7 -0.3,-0.1 -0.4,-0.5 -0.1,-0.4 v -0.7 l 0.6,-1.1 0.5,-0.4 0.4,-0.1 h 0.7 l 0.5,0.3 0.4,0.5 0.5,1 1.3,4 1.9,-3.7 m -1.4,-6.5 0.7,0.7 0.2,0.8 -0.1,1 -0.1,0.2 -0.7,0.7 -0.8,0.3 -1,-0.2 -0.2,-0.1 -0.7,-0.7 -0.3,-0.8 0.2,-0.9 0.1,-0.3 0.7,-0.7 0.8,-0.2 1.2,0.2 1.3,0.7 1.2,1 0.6,0.9 -0.2,1 -0.3,0.5 -0.6,0.7 h -0.7 m -298.9,296.9 -4.9,-1.3 1.6,4.2 m 3.3,-2.9 -5.8,2.3 m 7.3,1.6 -0.6,-0.7 -0.7,-0.1 -0.6,0.3 -0.4,0.5 -0.1,0.6 0.2,1.2 v 1 l -0.3,0.8 -0.5,0.5 -0.8,0.3 -0.7,-0.1 -0.4,-0.2 -0.6,-0.7 -0.4,-1.1 -0.1,-1 0.2,-0.3 0.5,-0.5 0.8,-0.4 0.7,0.1 0.8,0.4 0.6,0.7 0.7,1 0.5,0.5 h 0.6 l 0.6,-0.2 0.4,-0.5 v -0.9 l -0.5,-1.3 m 58.8,-12.1 2.8,4.4 1.7,-4.2 m -4.5,-0.2 5.8,2.4 m -1.3,-7.7 0.7,0.7 0.4,0.8 -0.1,0.9 -0.1,0.3 -0.6,0.7 -0.8,0.3 h -1 l -0.3,-0.2 -0.7,-0.6 -0.3,-0.8 0.1,-0.9 0.1,-0.3 0.6,-0.7 0.8,-0.3 1.2,0.1 1.4,0.6 1.3,0.9 0.6,0.9 -0.1,0.9 -0.2,0.6 -0.6,0.7 h -0.7 m -39.5,21.3 -3,0.2 -0.1,2.8 0.3,-0.4 0.8,-0.3 0.9,-0.1 1,0.2 0.6,0.6 0.4,0.8 v 0.6 l -0.2,0.9 -0.5,0.7 -0.9,0.4 h -0.9 l -0.9,-0.2 -0.4,-0.3 -0.3,-0.5 m 6.7,-5.7 -0.9,0.4 -0.5,0.9 -0.2,1.5 0.1,0.9 0.4,1.5 0.7,0.8 0.9,0.3 0.6,-0.1 0.9,-0.4 0.5,-0.9 0.2,-1.5 -0.1,-0.9 -0.4,-1.5 -0.7,-0.8 -0.9,-0.3 -0.5,0.1 m 168.9,-38.3 3.1,1.2 -2.5,1.6 0.8,0.3 0.5,0.5 0.1,0.4 v 0.9 l -0.2,0.6 -0.6,0.7 -0.8,0.4 -0.9,-0.1 -0.9,-0.3 -0.7,-0.6 -0.2,-0.4 -0.1,-0.7 m 6.8,-1.2 0.1,-0.3 0.5,-0.5 0.4,-0.1 0.7,-0.1 1.1,0.4 0.4,0.5 0.2,0.4 0.1,0.7 -0.2,0.5 -0.5,0.5 -0.9,0.6 -3.9,1.7 3.9,1.5 m -10.3,-52.8 -0.1,0.3 -0.5,0.5 -0.4,0.2 h -0.7 l -1.1,-0.4 -0.5,-0.4 -0.2,-0.4 v -0.7 l 0.2,-0.6 0.4,-0.4 0.9,-0.7 3.8,-1.8 -3.9,-1.4 m -3.8,5.4 -3.1,-1.1 2.5,-1.7 -0.8,-0.3 -0.5,-0.5 -0.2,-0.4 0.1,-0.9 0.2,-0.6 0.5,-0.7 0.8,-0.4 h 1 l 0.8,0.3 0.8,0.6 0.1,0.4 0.1,0.7 m -14.9,12 0.3,-0.1 0.6,0.2 0.4,0.3 0.4,0.5 0.2,1.2 -0.2,0.6 -0.2,0.4 -0.5,0.4 -0.6,0.1 -0.7,-0.2 -1,-0.4 -3.5,-2.4 0.8,4.2 m 5.1,0.7 0.3,-0.1 0.6,0.2 0.4,0.2 0.4,0.5 0.2,1.2 -0.2,0.7 -0.2,0.3 -0.5,0.4 -0.6,0.1 -0.7,-0.1 -1,-0.4 -3.5,-2.4 0.8,4.1 m 106.7,-327.9 -0.2,-0.2 -0.1,-0.7 v -0.4 l 0.3,-0.6 1,-0.7 0.7,-0.2 0.4,0.1 0.6,0.3 0.3,0.5 0.2,0.7 v 1 l -0.6,4.2 3.4,-2.5 m -1.7,-6.6 -0.5,0.8 0.1,0.6 0.4,0.5 0.6,0.3 0.6,-0.1 1.2,-0.5 0.9,-0.3 0.8,0.2 0.6,0.3 0.5,0.7 0.2,0.7 -0.1,0.4 -0.5,0.7 -1,0.8 -0.9,0.3 -0.4,-0.1 -0.6,-0.3 -0.6,-0.7 -0.1,-0.7 0.1,-0.8 0.6,-0.8 0.8,-1 0.3,-0.6 -0.1,-0.6 -0.4,-0.5 -0.6,-0.3 -0.9,0.3 -1.1,0.8 m -21.7,-17 0.2,-0.1 h 0.7 l 0.4,0.1 0.5,0.5 0.5,1 v 0.7 l -0.2,0.4 -0.4,0.5 -0.5,0.3 h -0.7 l -1.1,-0.2 -3.9,-1.5 1.7,3.8 m 7.9,2.2 -7,-0.2 m 5.3,-3.7 1.7,3.9 m 74.6,41 3.1,4.2 1.4,-4.3 m -4.5,0.1 6,2 m -4.5,-6.2 v 1 l 0.7,0.8 1.3,0.8 0.8,0.2 1.6,0.2 1,-0.3 0.6,-0.8 0.2,-0.5 -0.1,-1 -0.6,-0.8 -1.4,-0.8 -0.8,-0.2 -1.5,-0.2 -1.1,0.3 -0.5,0.7 -0.2,0.5 m -18.3,10.3 2.5,2.1 -2.9,0.7 0.7,0.5 0.3,0.7 v 0.4 l -0.3,0.9 -0.4,0.4 -0.8,0.5 -0.8,0.1 -0.9,-0.3 -0.7,-0.6 -0.5,-0.8 -0.1,-0.4 0.2,-0.7 m 9.1,3.6 -0.9,0.5 -0.8,0.1 -0.9,-0.4 -0.2,-0.2 -0.5,-0.8 -0.1,-0.8 0.3,-0.9 0.2,-0.2 0.8,-0.5 0.9,-0.1 0.9,0.3 0.2,0.2 0.5,0.8 0.1,0.9 -0.5,1.1 -1,1.1 -1.2,1 -1,0.3 -0.9,-0.3 -0.5,-0.4 -0.5,-0.8 0.2,-0.7 m -119.4,-211 -3.2,0.6 1.3,-2.7 -0.9,0.2 -0.7,-0.2 -0.3,-0.2 -0.5,-0.8 -0.1,-0.6 0.1,-0.9 0.5,-0.8 0.8,-0.4 0.9,-0.2 0.9,0.1 0.4,0.3 0.4,0.5 m -4.8,6.1 -3.3,0.7 1.3,-2.7 -0.9,0.2 -0.6,-0.2 -0.4,-0.3 -0.4,-0.8 -0.1,-0.6 0.1,-0.9 0.4,-0.7 0.9,-0.5 0.9,-0.2 0.9,0.2 0.3,0.2 0.5,0.5 m 64.3,15 -3.1,-1 2.5,-1.7 -0.9,-0.3 -0.4,-0.5 -0.2,-0.4 v -0.9 l 0.2,-0.6 0.5,-0.8 0.8,-0.3 h 1 l 0.8,0.3 0.8,0.5 0.2,0.4 v 0.7 m -9.7,2.1 4.2,-3 -4.2,-1.4 m 0,4.4 2.1,-5.9 m 11.7,34.6 2.2,-2.5 0.6,3 0.6,-0.7 0.6,-0.2 h 0.4 l 0.9,0.3 0.4,0.4 0.5,0.9 0.1,0.8 -0.4,0.9 -0.6,0.7 -0.9,0.4 h -0.4 l -0.6,-0.1 m 2.2,-10.1 -2,2.2 1.8,2.1 v -0.5 l 0.3,-0.8 0.6,-0.7 0.9,-0.5 h 0.8 l 0.9,0.4 0.4,0.4 0.5,0.8 v 0.9 l -0.4,0.8 -0.6,0.7 -0.8,0.5 h -0.4 l -0.7,-0.2 M 1356.5,79.2 v 0.7 l 0.4,1.2 -5.7,-2.7 m 3,6.7 h 0.7 l 0.7,-0.7 0.2,-0.5 0.2,-1 -0.6,-0.9 -1.2,-0.9 -1.4,-0.7 -1.2,-0.2 -0.8,0.3 -0.6,0.6 -0.2,0.3 -0.1,0.9 0.3,0.8 0.7,0.7 0.2,0.1 1,0.2 0.8,-0.3 0.6,-0.7 0.2,-0.3 0.1,-0.9 -0.3,-0.8 -0.7,-0.7 m -3,63.4 0.6,-0.4 0.7,-1 1.2,6.1 m 3.4,-7.2 -2.9,0.5 0.2,2.7 0.2,-0.3 0.8,-0.5 0.9,-0.1 1,0.1 0.7,0.5 0.4,0.8 0.1,0.6 -0.1,0.9 -0.5,0.7 -0.8,0.5 -0.9,0.1 -0.9,-0.1 -0.4,-0.2 -0.4,-0.6 m -14.2,-17.5 0.2,0.6 0.7,1 -6.2,-1 m 4.9,1.9 0.1,0.6 0.8,1.1 -6.2,-1.1 m 116.2,436.5 -0.1,3 2.7,0.3 -0.3,-0.3 -0.3,-0.9 v -0.9 l 0.3,-0.9 0.7,-0.6 0.9,-0.2 h 0.6 l 0.9,0.3 0.5,0.6 0.3,0.9 v 0.9 l -0.3,0.9 -0.3,0.3 -0.6,0.3 m -3.6,-5.4 -0.3,-0.6 -0.9,-0.9 6.3,0.1 m -26.5,20.2 -2.9,0.7 0.2,2.7 0.3,-0.4 0.8,-0.5 0.9,-0.2 0.9,0.1 0.7,0.5 0.5,0.8 0.1,0.6 -0.1,0.9 -0.4,0.7 -0.8,0.5 -0.9,0.2 -1,-0.1 -0.3,-0.2 -0.4,-0.5 m 4.9,-4.8 v -0.3 l 0.1,-0.6 0.3,-0.4 0.5,-0.4 1.1,-0.3 0.7,0.2 0.4,0.2 0.4,0.5 0.1,0.6 -0.2,0.7 -0.4,1 -2.2,3.5 4.1,-0.8"
       id="nums_003"
       stroke="#000000"
       stroke-width="1" />
    <path
       d="m 1340.3,449.4 22.8,39.2 -59.5,28 -47.1,-35.8 -27.7,56.8 34.6,36.7 -20.9,50.7 -58.5,5 -13.4,-35.1 -49.4,-28.3 40.4,-58.2 30.6,-41.4 64.5,-31.4 -8,-32.5 -58.6,-47.7 41.7,-27.7 31,-53.1 -5.9,-50.2 -60.1,-64.4 45.1,-33.5 69.9,-11.2 10.5,48.1 -25.6,47 36.8,-38.8 48.8,-26.9 -54.7,10.2 8.3,-48.5 25.6,-53.5 47.3,-9.4 78.6,26.9 -43.8,48.4 63.4,13.7 38.2,91.2 -19,59.2 -35.4,-29.1 -1.7,-37 -32.8,24.2 -26.4,-58.8 0.3,64.5 -41.4,-36 -46.6,44.7 -17.4,35.9 -28.3,51.6 44.2,-38.8 21.9,-33.4 61.3,-20.3 29.2,46.4 40.7,-1.4 -16.9,33 44.7,9.6 -19.5,62.5 -47.5,-13.4 -19.6,54.2 31.4,-48.3 39.5,36.3 -16.7,77.7 -31.1,39.6 -1,41.9 -48.6,10.6 -47,-17.9 -12.3,-62 55.8,19.8 39.2,-52.9 -42.8,-15.1 -30.4,-38.1 15.8,-52 28.3,-34.3 5.9,-36 -19.7,30.7 -33.3,29.5 -43.5,32.55 z"
       id="coupes_003"
       stroke="#ff0000"
       stroke-width="1.27"
       sodipodi:nodetypes="cccccccccccccccccccccccccccccccccccccccccccccccccccccccccccccccccccccccc" />
    <path
       d="m 1296.5,342.9 28,60.4 m -75.8,-0.2 47.8,-60.2 m -47.8,60.2 -16.9,-75.4 m 0,0 64.7,15.2 m -33.7,-68.3 33.7,68.3 m -33.7,-68.3 79.4,-19.2 m -85.3,-31 85.3,31 m -45.5,-45 45.5,45 m -85.3,-31 39.8,-14 m 27.8,192.9 -67.8,32.3 m 39.8,-92.7 71.5,27.9 m -27.3,-66.7 27.3,66.7 m -5.4,-100.1 38.7,70.6 m -38.7,-70.6 58.4,39.9 M 1196.8,160 l 99.9,50.4 m -54.8,-83.9 54.8,83.9 m 43.6,239 -83.6,-13.8 m 83.6,13.8 -83.8,31.4 m 0,0 0.2,-45.2 m -0.2,45.2 -64.3,-13.8 m 64.3,13.8 -94.9,27.6 m 67.2,29.2 -67.2,-29.2 m 262.3,-258 -2.9,60.2 m 32.1,-13.8 -32.1,13.8 m -192.2,227 -58.2,57.3 m 92.8,-20.6 -92.8,20.6 M 1476.9,328.4 1421,310.6 m 33.6,76.5 -67.8,-6.2 m 48.2,60.4 -64,-8.4 m 64,8.4 -33.6,29.7 m 33.6,-29.7 9.2,44.8 m -9.2,-44.8 70.9,-12 m -16.7,77.7 -45,-20.9 m 13.9,60.5 -13.9,-60.5 m 13.9,60.5 -53.1,-7.6 m 53.1,7.6 -49.6,52.5 m 0,0 -3.5,-60.1 m -64.7,-89.6 -36.7,67.2 m 78.7,-371.9 6.5,66 m -6.5,-66 47.6,37.5 m 0,0 -41.1,28.5 m -6.5,-66 61.3,-25.9 m 0,0 -13.7,63.4 m 91.7,155.8 -67,49.1 m 34.5,-170.3 -59.2,-34.6 m 77.1,-49.7 -17.9,84.3 m 56.1,6.9 -56.1,-6.9 M 1263.4,574.3 1184,630 m 177.5,-577.1 82.1,65.9 m -61.3,25.9 -20.8,-91.8 m 20.8,91.8 -46.4,-38.3"
       id="plisM_003"
       stroke="#a52a2a"
       stroke-dasharray="4" />
    <path
       d="m 1324.5,403.3 -75.8,-0.2 m 14.1,-128.5 62,16.7 m 15.9,12.8 60.6,37.2 m -159.4,-214.8 80.4,36.9 m -93.5,374.2 -107.6,29 m 331.9,-269.8 23.8,31.6 m 0,0 -61.8,18.2 m 61.8,-18.2 -22.3,58.7 m 0,0 -39.5,-40.5 m 39.5,40.5 -83.6,45.8 m 134.9,-3.6 -61.7,56.8 m -147.5,-275.7 92.1,0.3 m -55.3,-39.1 55.3,39.1 m 54.8,-91.9 45.5,98 m 56.1,6.9 -54.4,30.1 M 1361.5,581.2 1405,539 m 3.8,-495.5 34.8,75.3"
       id="plisV_003"
       stroke="#008000"
       stroke-dasharray="4, 1, 1, 1"
       stroke-width="1.27" />
    <path
       d="m 1284.6,401.2 4,4 m 0,-4 -4,4 m 7.2,-124.2 4,4 m 0,-4 -4,4 m 77.2,35.7 4,4 m 0,-4 -4,4 m -88.9,-181.7 4,4 m 0,-4 -4,4 m -107.1,403.1 4,4 m 0,-4 -4,4 m 290,-243.5 4,4 m 0,-4 -4,4 m -19,20.9 4,4 m 0,-4 -4,4 m 19.7,16.2 4,4 m 0,-4 -4,4 m -30.8,5.1 4,4 m 0,-4 -4,4 m -22.1,39.2 4,4 m 0,-4 -4,4 m 62.2,43.7 4,4 m 0,-4 -4,4 m -132.2,-251.1 4,4 m 0,-4 -4,4 m 18.4,-23.4 4,4 m 0,-4 -4,4 m 105.1,-27.4 4,4 m 0,-4 -4,4 m 51.7,67 4,4 m 0,-4 -4,4 m -134.8,317.3 4,4 m 0,-4 -4,4 m 43,-482.9 4,4 m 0,-4 -4,4"
       id="marqueV_003"
       stroke="#008000" />
    <path
       d="m 1365.9,331.67364 h 8.3 l -4.5,6 h 2.2 l 1.5,0.8 0.8,0.7 0.7,2.3 v 1.5 l -0.7,2.2 -1.5,1.5 -2.3,0.8 h -2.2 l -2.3,-0.8 -0.7,-0.7 -0.8,-1.5"
       id="titre_3"
       stroke="#4b0082" />
  </g>
  <g
     id="page_004">
    <path
       d="m 1794.2,69.3 4.7,-2.1 -3.9,-2.3 m -0.8,4.4 3.1,-5.4 m -8.5,2.3 2.6,1.5 1.6,-2.2 -0.4,0.1 -0.9,-0.2 -0.8,-0.5 -0.6,-0.7 -0.3,-0.8 0.2,-0.9 0.3,-0.5 0.7,-0.7 0.9,-0.2 0.9,0.2 0.8,0.4 0.6,0.8 0.1,0.4 v 0.6 m -22.3,15.9 v 3.3 l -2.4,-1.8 v 0.9 l -0.3,0.6 -0.3,0.3 -0.9,0.3 h -0.6 l -0.9,-0.3 -0.6,-0.7 -0.3,-0.9 v -0.9 l 0.3,-0.9 0.3,-0.3 0.6,-0.2 m 5.1,8.5 -4.2,-3 -0.1,4.5 m 4.3,-1.5 -6.3,-0.1 m 71,26.2 1.4,2.7 2.5,-1.1 -0.4,-0.1 -0.7,-0.6 -0.4,-0.8 -0.2,-1 0.3,-0.8 0.6,-0.7 0.6,-0.2 0.9,-0.2 0.8,0.2 0.7,0.7 0.4,0.8 0.2,0.9 -0.1,0.4 -0.4,0.6 m -8.7,-5.5 1.4,2.7 2.5,-1.1 -0.4,-0.1 -0.7,-0.6 -0.4,-0.8 -0.2,-1 0.3,-0.8 0.6,-0.7 0.5,-0.2 1,-0.2 0.8,0.2 0.7,0.7 0.4,0.8 0.2,0.9 -0.2,0.4 -0.3,0.6 m -90.7,73.6 -3,-0.2 -0.5,2.7 0.3,-0.3 1,-0.2 h 0.9 l 0.8,0.4 0.6,0.6 0.3,1 -0.1,0.6 -0.3,0.8 -0.7,0.6 -0.9,0.2 h -0.9 l -0.9,-0.4 -0.3,-0.3 -0.2,-0.6 m 6.2,-4.7 3.3,0.2 -1.9,2.3 h 0.9 l 0.5,0.3 0.3,0.4 0.3,0.9 -0.1,0.6 -0.3,0.9 -0.7,0.5 -0.9,0.3 -0.9,-0.1 -0.8,-0.3 -0.3,-0.4 -0.3,-0.6 m 138.8,-36.9 0.1,0.7 0.8,0.4 0.6,0.2 1,-0.1 0.7,-0.8 0.7,-1.4 0.3,-1.4 -0.1,-1.3 -0.4,-0.7 -0.8,-0.5 h -0.3 l -1,0.1 -0.7,0.4 -0.5,0.8 v 0.3 l 0.1,1 0.4,0.7 0.8,0.5 h 0.3 l 1,-0.1 0.7,-0.4 0.5,-0.8 m -9.2,1.3 0.2,0.7 0.8,0.5 0.6,0.1 0.9,-0.1 0.8,-0.8 0.6,-1.4 0.4,-1.4 -0.1,-1.3 -0.4,-0.7 -0.9,-0.5 h -0.2 l -1,0.1 -0.7,0.4 -0.5,0.8 -0.1,0.3 0.1,1 0.5,0.7 0.8,0.5 h 0.3 l 0.9,-0.1 0.8,-0.4 0.5,-0.8 m -28.4,52 v -0.7 l -0.7,-0.7 -0.5,-0.2 -1,-0.2 -0.9,0.6 -0.9,1.2 -0.7,1.4 -0.2,1.2 0.2,0.8 0.7,0.6 0.3,0.2 0.9,0.1 0.8,-0.3 0.7,-0.7 0.1,-0.2 0.2,-1 -0.3,-0.8 -0.7,-0.6 -0.3,-0.2 -0.9,-0.1 -0.8,0.3 -0.7,0.7 m 10,0.1 -5.4,4.4 m 1.7,-6.2 3.7,1.8 m 68.9,-13.4 6.9,-0.8 m -4.7,4.4 -2.2,-3.6 m -1,-1.4 -1.7,-2.9 3,0.3 -0.5,-0.8 v -0.6 l 0.1,-0.4 0.6,-0.8 0.5,-0.3 0.9,-0.2 0.8,0.2 0.7,0.6 0.5,0.8 0.2,0.9 -0.1,0.4 -0.3,0.6 m -53.5,73.9 -6.1,-3.3 m 6.4,-0.9 -0.3,4.2 m -0.2,4.7 0.1,-3 -2.6,-0.4 0.3,0.3 0.2,0.9 v 0.9 l -0.4,0.9 -0.6,0.6 -0.9,0.2 h -0.6 l -0.9,-0.3 -0.6,-0.7 -0.2,-0.9 v -0.9 l 0.4,-0.9 0.3,-0.3 0.6,-0.2 m 89.4,-20.3 6.8,-1.4 m -4.3,4.7 -2.5,-3.3 m -1.7,-2.1 0.8,0.5 0.7,-0.1 0.5,-0.4 0.3,-0.6 -0.2,-0.6 -0.5,-1.2 -0.3,-0.9 0.1,-0.8 0.3,-0.6 0.7,-0.5 0.7,-0.2 0.4,0.1 0.8,0.5 0.7,1 0.3,0.9 v 0.4 l -0.3,0.6 -0.7,0.5 -0.7,0.2 -0.8,-0.1 -0.8,-0.6 -1,-0.7 -0.6,-0.3 -0.6,0.1 -0.5,0.3 -0.3,0.7 0.3,0.8 0.8,1.1 m -101.2,101.2 0.6,-0.1 0.7,-0.7 0.2,-0.5 0.1,-1 -0.6,-0.9 -1.3,-0.9 -1.3,-0.6 -1.3,-0.2 -0.8,0.3 -0.6,0.8 -0.1,0.2 -0.1,1 0.3,0.8 0.7,0.6 0.3,0.1 1,0.1 0.7,-0.3 0.7,-0.7 0.1,-0.3 0.1,-0.9 -0.3,-0.8 -0.7,-0.7 m 0.6,9.2 -2.6,-4.4 -1.8,4.2 m 4.4,0.2 -5.8,-2.5 m 126.3,-58.7 0.5,0.9 0.6,0.2 0.6,-0.1 0.5,-0.4 0.2,-0.7 0.1,-1.2 0.2,-0.9 0.5,-0.7 0.5,-0.4 0.9,-0.2 0.6,0.2 0.4,0.3 0.4,0.8 0.2,1.2 -0.1,0.9 -0.3,0.4 -0.5,0.4 -0.9,0.1 -0.6,-0.2 -0.7,-0.5 -0.5,-0.8 -0.5,-1.1 -0.4,-0.6 -0.6,-0.2 -0.6,0.1 -0.5,0.4 -0.2,1 0.3,1.3 m -0.8,-4.5 -0.6,-3.3 2.7,1.4 -0.2,-0.9 0.2,-0.6 0.3,-0.4 0.8,-0.4 0.6,-0.1 0.9,0.1 0.7,0.5 0.5,0.8 0.1,0.9 -0.1,1 -0.3,0.3 -0.5,0.4 m -30.7,22.7 -0.8,0.4 -0.2,0.7 0.1,0.5 0.4,0.6 0.6,0.2 1.2,0.1 1,0.1 0.7,0.5 0.4,0.6 0.1,0.8 -0.2,0.7 -0.2,0.3 -0.9,0.5 -1.2,0.2 -0.9,-0.2 -0.3,-0.2 -0.4,-0.6 -0.2,-0.8 0.2,-0.7 0.5,-0.7 0.8,-0.4 1.2,-0.5 0.5,-0.4 0.2,-0.7 -0.1,-0.5 -0.4,-0.6 -0.9,-0.1 -1.4,0.2 m 5.8,-1 -0.9,0.5 -0.4,1 -0.1,1.5 0.2,0.9 0.5,1.4 0.8,0.8 0.9,0.1 0.6,-0.1 0.8,-0.4 0.5,-1 v -1.5 l -0.1,-0.9 -0.6,-1.4 -0.7,-0.8 -0.9,-0.2 -0.5,0.1 m -42.6,36.4 6.2,3.1 m -6.3,1.1 0.1,-4.2 m 2.2,-5 0.9,0.3 0.6,0.6 0.3,0.9 v 0.3 l -0.4,0.9 -0.6,0.6 -0.9,0.3 h -0.3 l -0.9,-0.4 -0.6,-0.6 -0.2,-0.9 v -0.3 l 0.3,-0.9 0.6,-0.6 1.2,-0.2 h 1.5 l 1.5,0.3 0.9,0.7 0.3,0.9 v 0.6 l -0.4,0.9 -0.6,0.3 m -50.8,43.9 -5.2,4.6 m 1.3,-6.2 3.9,1.6 m 3.9,1.6 -4.3,2.7 4.1,1.7 m 0.2,-4.4 -2.4,5.8 m 48.9,34.3 -7,0.4 m 5,-4.1 2,3.7 m 2.5,4.5 -7,0.4 m 5,-4.1 2,3.7 m 71.5,17.5 0.3,0.9 0.6,0.3 h 0.6 l 0.6,-0.3 0.3,-0.6 0.3,-1.2 0.3,-0.9 0.6,-0.7 0.6,-0.3 h 0.9 l 0.6,0.3 0.3,0.3 0.3,0.9 v 1.2 l -0.3,0.9 -0.3,0.3 -0.6,0.3 h -0.9 l -0.6,-0.3 -0.6,-0.5 -0.3,-0.9 -0.3,-1.2 -0.3,-0.6 -0.6,-0.3 h -0.6 l -0.6,0.3 -0.3,0.9 v 1.4 m 1.4,-4.6 h -0.3 l -0.6,-0.3 -0.3,-0.3 -0.3,-0.5 v -1.2 l 0.3,-0.7 0.3,-0.3 0.6,-0.3 h 0.6 l 0.6,0.3 0.9,0.6 3,2.9 v -4.2 m -65.3,51.1 -6.3,-3.1 m 6.3,-1.1 v 4.2 m -1.5,1.1 0.3,0.6 0.9,0.9 -6.3,-0.1 m 45,13.9 3.2,6.2 m -5.8,-2.9 2.6,-3.3 m 3.6,-3.3 -0.7,-0.1 -0.8,0.5 -0.3,0.5 -0.3,0.9 0.3,1 1,1.2 1.2,0.9 1.2,0.5 0.8,-0.1 0.8,-0.6 0.2,-0.2 0.3,-0.9 -0.1,-0.8 -0.6,-0.8 -0.2,-0.2 -0.9,-0.3 -0.8,0.1 -0.8,0.5 -0.2,0.3 -0.3,0.9 0.1,0.8 0.5,0.8 m -5.7,64.4 6.9,-1.4 m -4.4,4.7 -2.5,-3.3 m -1.7,-2.4 0.8,0.5 h 1 l 1.4,-0.7 0.8,-0.5 1,-1.1 0.3,-1.1 -0.3,-0.9 -0.3,-0.4 -0.8,-0.6 -1.1,0.1 -1.3,0.6 -0.8,0.6 -1,1.1 -0.4,1 0.3,0.9 0.3,0.4 m 9.7,56.2 -0.7,0.1 -0.5,0.8 -0.2,0.6 v 0.9 l 0.7,0.9 1.4,0.7 1.4,0.4 1.2,0.1 0.8,-0.4 0.5,-0.8 0.1,-0.3 v -0.9 l -0.4,-0.8 -0.8,-0.5 -0.3,-0.1 h -0.9 l -0.7,0.4 -0.6,0.8 -0.1,0.3 v 0.9 l 0.4,0.8 0.8,0.5 m 0.6,-9.1 0.8,0.5 0.4,0.8 v 0.9 l -0.1,0.3 -0.5,0.8 -0.8,0.4 h -0.9 l -0.3,-0.1 -0.8,-0.5 -0.4,-0.8 v -0.9 l 0.1,-0.3 0.5,-0.8 0.8,-0.4 1.2,0.1 1.5,0.4 1.3,0.7 0.7,0.9 v 0.9 l -0.2,0.6 -0.5,0.8 -0.7,0.1 m -87.2,-12.8 0.6,0.1 0.8,-0.5 0.3,-0.5 0.3,-0.9 -0.4,-1 -1,-1.1 -1.3,-0.9 -1.1,-0.5 -0.9,0.2 -0.7,0.5 -0.2,0.3 -0.3,0.9 0.2,0.8 0.5,0.8 0.3,0.2 0.9,0.3 0.8,-0.2 0.8,-0.6 0.2,-0.2 0.2,-0.9 -0.1,-0.8 -0.6,-0.8 m -0.5,8 0.3,-0.9 -0.4,-1 -1.1,-1.1 -0.7,-0.5 -1.4,-0.7 h -1.1 l -0.7,0.6 -0.4,0.5 -0.3,0.9 0.4,1 1.1,1.1 0.7,0.5 1.4,0.6 1.1,0.1 0.8,-0.6 0.2,-0.4 m 71.4,69.4 -0.2,3 2.7,0.4 -0.3,-0.3 -0.2,-0.9 v -0.9 l 0.3,-0.9 0.7,-0.6 0.9,-0.2 h 0.6 l 0.9,0.3 0.5,0.7 0.3,0.9 v 0.9 l -0.4,0.9 -0.3,0.2 -0.6,0.3 m -3.8,-9.1 -0.6,0.3 -0.4,0.8 v 0.6 l 0.3,1 0.8,0.6 1.5,0.4 h 1.5 l 1.2,-0.2 0.7,-0.6 0.3,-0.9 V 676 l -0.2,-0.9 -0.6,-0.6 -0.9,-0.4 h -0.3 l -0.9,0.3 -0.6,0.6 -0.4,0.8 v 0.3 l 0.3,1 0.5,0.6 0.9,0.3 m -115.8,-31.5 2.7,-1.3 -1,-2.6 -0.1,0.4 -0.7,0.7 -0.8,0.4 -0.9,0.1 -0.8,-0.2 -0.7,-0.7 -0.2,-0.5 -0.2,-1 0.3,-0.8 0.7,-0.7 0.8,-0.4 0.9,-0.1 0.4,0.1 0.5,0.4 m -5.2,8.5 0.8,-5.1 -4.1,2 m 3.3,3.1 -2.9,-5.7 m 96.2,67.6 -0.3,5.2 3.8,-2.4 m -3.5,-2.8 3.4,5.4 m 3.3,-7 0.3,0.9 -0.2,0.8 -0.6,0.8 -0.3,0.1 -0.9,0.2 -0.8,-0.1 -0.8,-0.7 -0.1,-0.2 -0.3,-0.9 0.2,-0.9 0.6,-0.7 0.3,-0.1 0.9,-0.3 0.8,0.2 0.9,0.9 0.8,1.2 0.6,1.5 -0.1,1.1 -0.6,0.7 -0.5,0.3 -0.9,0.2 -0.6,-0.3 m -27.7,-10.1 -1.4,-2.6 -2.5,1 0.4,0.2 0.7,0.6 0.4,0.8 0.2,0.9 -0.2,0.8 -0.7,0.7 -0.5,0.3 -0.9,0.2 -0.9,-0.2 -0.7,-0.7 -0.4,-0.8 -0.2,-0.9 0.2,-0.4 0.3,-0.6 m 6,3.4 0.3,-0.1 h 0.6 l 0.5,0.1 0.5,0.4 0.6,1 v 0.7 l -0.1,0.4 -0.4,0.5 -0.5,0.3 -0.7,0.1 -1.1,-0.1 -4,-1.2 2,3.7 m -38.6,-32.6 h -3 l -0.2,2.7 0.3,-0.3 0.9,-0.3 h 0.9 l 0.9,0.3 0.6,0.6 0.3,0.9 v 0.6 l -0.3,0.9 -0.5,0.6 -0.9,0.3 h -0.9 l -0.9,-0.3 -0.4,-0.3 -0.3,-0.6 m 5.2,-3.7 0.6,-0.3 0.9,-1 0.1,6.3 m -36.6,-25.3 2.2,2.5 -3,0.3 0.6,0.6 0.2,0.7 v 0.4 l -0.4,0.8 -0.5,0.4 -0.9,0.4 h -0.8 l -0.8,-0.5 -0.6,-0.6 -0.4,-0.9 v -0.4 l 0.2,-0.6 m 8.4,1.5 -0.8,-0.4 -0.7,0.2 -0.4,0.4 -0.2,0.6 0.1,0.6 0.6,1.1 0.4,0.9 v 0.8 l -0.2,0.7 -0.7,0.6 -0.6,0.2 -0.5,-0.1 -0.8,-0.4 -0.8,-0.9 -0.4,-0.9 v -0.4 l 0.3,-0.6 0.6,-0.6 0.7,-0.2 h 0.8 l 0.8,0.5 1.1,0.7 0.6,0.2 0.6,-0.2 0.5,-0.4 0.2,-0.6 -0.4,-0.9 -0.9,-1 m 139,-293.1 0.3,0.9 0.7,0.2 h 0.6 l 0.5,-0.4 0.3,-0.6 0.2,-1.2 0.2,-0.9 0.6,-0.7 0.5,-0.3 0.9,-0.1 0.7,0.3 0.3,0.2 0.4,0.9 0.1,1.2 -0.3,0.9 -0.3,0.3 -0.5,0.4 -0.9,0.1 -0.6,-0.3 -0.7,-0.5 -0.4,-0.9 -0.4,-1.2 -0.3,-0.6 -0.6,-0.2 h -0.6 l -0.6,0.4 -0.2,0.9 0.1,1.4 m 1.1,-4.1 -0.4,-0.5 -0.9,-0.9 6.2,-0.5 m -31.6,-32.4 h 1 l 0.5,-0.4 0.2,-0.6 -0.1,-0.6 -0.5,-0.5 -1,-0.7 -0.8,-0.6 -0.3,-0.8 -0.1,-0.6 0.3,-0.9 0.5,-0.4 0.3,-0.2 h 1 l 1.1,0.4 0.8,0.6 0.2,0.4 v 0.6 l -0.3,0.9 -0.4,0.4 -0.8,0.4 h -0.9 l -1.3,-0.1 -0.6,0.1 -0.5,0.4 -0.2,0.6 0.1,0.7 0.7,0.5 1.3,0.5 m -5.5,-1.9 h 1 l 0.8,-0.7 0.8,-1.3 0.3,-0.8 0.2,-1.6 -0.3,-1 -0.7,-0.6 -0.6,-0.2 h -0.9 l -0.9,0.7 -0.8,1.3 -0.3,0.8 -0.2,1.5 0.3,1.1 0.7,0.6 0.5,0.1 m -23.9,3.7 -5.4,-4.4 m 6.4,0.3 -1,4.1 m -3.3,4.4 -0.8,-0.5 -0.4,-0.7 -0.1,-1 0.1,-0.3 0.5,-0.8 0.7,-0.4 1,-0.1 0.3,0.1 0.8,0.5 0.4,0.7 0.1,1 -0.1,0.3 -0.5,0.8 -0.7,0.4 h -1.3 l -1.4,-0.4 -1.4,-0.6 -0.7,-0.8 -0.1,-1 0.1,-0.5 0.6,-0.8 0.6,-0.2 m -153.1,-111.2 0.6,-0.2 0.5,-0.8 0.1,-0.6 -0.2,-1 -0.7,-0.7 -1.4,-0.6 -1.5,-0.3 -1.3,0.1 -0.7,0.5 -0.4,0.8 -0.1,0.3 0.2,0.9 0.4,0.7 0.9,0.5 0.3,0.1 0.9,-0.2 0.7,-0.5 0.5,-0.8 v -0.3 l -0.1,-0.9 -0.5,-0.7 -0.8,-0.5 m 2.5,9.3 0.6,-3 -2.6,-0.8 0.2,0.4 0.1,0.9 -0.1,0.9 -0.5,0.8 -0.7,0.5 -0.9,0.1 -0.6,-0.1 -0.9,-0.4 -0.4,-0.7 -0.2,-1 0.2,-0.9 0.5,-0.8 0.3,-0.2 0.7,-0.2 m 72.5,-7.9 -0.1,0.7 0.6,0.7 0.4,0.4 0.9,0.3 1.1,-0.4 1.1,-1 0.9,-1.2 0.4,-1.2 -0.1,-0.8 -0.5,-0.8 -0.3,-0.2 -0.9,-0.3 -0.8,0.2 -0.8,0.5 -0.2,0.3 -0.3,0.9 0.2,0.8 0.5,0.8 0.3,0.2 0.9,0.2 0.8,-0.1 0.8,-0.5 m -9.9,-2 6.2,-3.3 m -2.8,5.8 -3.4,-2.5 m -6.2,38.4 3.2,6.2 m -5.8,-2.9 2.6,-3.3 m 2.8,-3.8 -1.8,2.4 2,1.9 -0.1,-0.4 0.3,-0.9 0.6,-0.7 0.8,-0.6 0.8,-0.1 0.9,0.3 0.5,0.4 0.5,0.8 0.1,0.8 -0.3,0.9 -0.5,0.7 -0.8,0.5 -0.4,0.1 -0.7,-0.1 m -202.8,65.6 -5.1,0.1 2.7,3.6 m 2.4,-3.7 -5,3.8 m 8.1,1.7 0.3,-0.6 -0.4,-0.9 -0.3,-0.5 -0.8,-0.5 -1.1,0.1 -1.4,0.6 -1.1,0.9 -0.8,1 -0.1,0.8 0.3,0.9 0.1,0.3 0.8,0.5 0.9,0.1 0.9,-0.3 0.2,-0.2 0.5,-0.7 0.2,-0.9 -0.3,-0.9 -0.2,-0.2 -0.8,-0.6 -0.8,-0.1 -0.9,0.3 m 14.1,-11 2.9,-4.3 -4.5,0.1 m 1.6,4.2 -0.1,-6.3 m -4.4,6.2 0.9,-0.3 0.6,-0.9 0.3,-1.5 v -0.9 l -0.3,-1.5 -0.6,-0.9 -0.9,-0.3 -0.6,0.1 -0.9,0.3 -0.6,0.9 -0.3,1.5 v 0.9 l 0.3,1.5 0.6,0.9 0.9,0.3 0.5,-0.1 m 142.5,5.2 -0.7,-0.1 -0.7,0.5 -0.4,0.5 -0.2,0.9 0.4,1 1,1.2 1.2,0.8 1.2,0.5 0.8,-0.2 0.8,-0.5 0.2,-0.3 0.2,-0.9 -0.1,-0.8 -0.6,-0.8 -0.2,-0.2 -0.9,-0.2 -0.9,0.1 -0.7,0.6 -0.2,0.2 -0.3,0.9 0.2,0.9 0.5,0.7 m 1.3,-9.1 1.7,4.8 2.6,-3.6 m -4.3,-1.2 5.1,3.6 m -46.6,-89.3 -0.4,0.5 v 0.9 l 0.2,0.6 0.6,0.7 1,0.3 1.5,-0.2 1.4,-0.5 1.1,-0.7 0.3,-0.8 v -0.9 l -0.1,-0.3 -0.6,-0.8 -0.7,-0.3 h -1 l -0.3,0.1 -0.7,0.6 -0.4,0.7 v 1 l 0.1,0.3 0.6,0.7 0.8,0.4 h 0.9 m -6.8,-6.8 1,2.9 2.7,-0.7 -0.4,-0.1 -0.6,-0.8 -0.3,-0.8 v -1 l 0.3,-0.7 0.8,-0.6 0.5,-0.2 h 1 l 0.8,0.3 0.5,0.8 0.3,0.8 0.1,1 -0.2,0.3 -0.5,0.5 m 138.4,295.8 0.3,0.7 0.8,0.4 0.6,0.1 0.9,-0.2 0.7,-0.8 0.6,-1.4 0.2,-1.5 -0.2,-1.3 -0.5,-0.6 -0.8,-0.5 h -0.3 l -1,0.2 -0.6,0.5 -0.5,0.8 v 0.3 l 0.2,1 0.5,0.6 0.8,0.5 h 0.3 l 1,-0.2 0.6,-0.5 0.5,-0.8 m -7.1,3.2 0.9,-0.1 0.4,-0.6 0.1,-0.6 -0.2,-0.6 -0.6,-0.4 -1.1,-0.5 -0.9,-0.4 -0.5,-0.7 -0.2,-0.6 0.1,-0.9 0.4,-0.5 0.3,-0.3 1,-0.2 1.2,0.2 0.8,0.4 0.3,0.4 0.2,0.6 -0.1,0.9 -0.4,0.5 -0.7,0.5 -0.9,0.2 -1.3,0.2 -0.6,0.2 -0.4,0.5 -0.1,0.6 0.3,0.6 0.8,0.5 1.3,0.2 m -35.8,5.9 1.3,-2.6 -2.2,-1.5 0.1,0.4 -0.1,0.9 -0.4,0.8 -0.7,0.7 -0.8,0.2 -1,-0.1 -0.5,-0.3 -0.7,-0.7 -0.2,-0.8 0.1,-0.9 0.4,-0.8 0.7,-0.7 0.4,-0.1 h 0.7 m -1.6,9.6 -0.6,-0.7 -0.3,-0.8 0.1,-0.9 0.2,-0.3 0.7,-0.7 0.8,-0.2 0.9,0.1 0.3,0.2 0.6,0.6 0.3,0.8 -0.2,1 -0.1,0.3 -0.7,0.6 -0.8,0.3 -1.2,-0.3 -1.3,-0.7 -1.2,-1 -0.5,-0.9 0.1,-0.9 0.3,-0.6 0.7,-0.6 h 0.6 m 31.8,58.6 -0.5,-0.4 -1,0.2 -0.5,0.3 -0.6,0.6 -0.2,1.1 0.5,1.5 0.7,1.3 0.8,0.9 0.8,0.3 0.9,-0.1 0.3,-0.2 0.6,-0.7 0.3,-0.8 -0.1,-0.9 -0.2,-0.3 -0.7,-0.6 -0.8,-0.3 -0.9,0.2 -0.3,0.1 -0.6,0.7 -0.3,0.8 0.2,0.9 m 4.1,-6.9 -0.7,0.7 -0.1,1.1 0.4,1.5 0.5,0.8 0.9,1.2 1,0.5 0.9,-0.2 0.5,-0.2 0.7,-0.7 0.1,-1.1 -0.4,-1.5 -0.4,-0.8 -1,-1.2 -0.9,-0.5 -1,0.2 -0.4,0.2 m -52.9,24 -2.9,1.1 0.7,2.6 0.2,-0.4 0.7,-0.6 0.9,-0.3 h 0.9 l 0.8,0.3 0.6,0.7 0.2,0.6 v 1 l -0.3,0.7 -0.7,0.6 -0.9,0.3 -0.9,0.1 -0.4,-0.2 -0.5,-0.4 m 6.1,-7.9 -1.3,5 4.2,-1.6 m -2.9,-3.4 2.2,5.9 m -45.3,-26.4 -5.1,0.3 2.8,3.5 m 2.3,-3.8 -4.9,3.9 m 8.5,0.6 -5.1,0.3 2.8,3.5 m 2.3,-3.8 -4.9,4 m 40.8,-69.4 -0.3,3 2.7,0.5 -0.3,-0.3 -0.2,-0.9 0.1,-0.9 0.3,-0.9 0.7,-0.5 0.9,-0.3 0.6,0.1 0.9,0.4 0.5,0.6 0.2,1 v 0.9 l -0.4,0.8 -0.3,0.3 -0.7,0.2 m -2.1,-9.4 0.9,0.3 0.5,0.7 0.2,0.9 v 0.3 l -0.4,0.9 -0.6,0.5 -1,0.2 h -0.3 l -0.8,-0.4 -0.6,-0.6 -0.2,-0.9 v -0.3 l 0.4,-0.9 0.7,-0.6 1.2,-0.1 1.5,0.1 1.4,0.4 0.9,0.7 0.2,0.9 -0.1,0.6 -0.3,0.9 -0.7,0.2 m -57.2,-12.5 -1,-2.8 -2.7,0.6 0.4,0.2 0.6,0.8 0.3,0.8 v 1 l -0.4,0.7 -0.7,0.6 -0.6,0.2 h -0.9 l -0.8,-0.4 -0.6,-0.7 -0.3,-0.9 v -0.9 l 0.2,-0.4 0.5,-0.5 m 7,4.8 -0.5,-0.7 -0.7,-0.1 -0.6,0.2 -0.4,0.5 -0.1,0.6 0.1,1.3 v 0.9 l -0.4,0.8 -0.4,0.4 -0.9,0.3 h -0.7 l -0.3,-0.2 -0.6,-0.8 -0.4,-1.1 v -1 l 0.2,-0.3 0.4,-0.5 0.9,-0.3 0.6,0.1 0.8,0.3 0.6,0.8 0.7,1 0.4,0.5 0.7,0.1 0.6,-0.2 0.4,-0.5 v -0.9 l -0.4,-1.3 m -26.1,-36.1 0.2,-0.7 -0.5,-0.8 -0.4,-0.4 -0.9,-0.4 -1,0.3 -1.3,0.9 -1,1.1 -0.5,1.1 v 0.9 l 0.5,0.8 0.2,0.2 0.9,0.4 0.8,-0.1 0.9,-0.5 0.2,-0.2 0.3,-0.9 v -0.8 l -0.5,-0.8 -0.2,-0.2 -0.9,-0.4 h -0.8 l -0.9,0.5 m 5.6,1.2 0.7,0.2 1.2,-0.1 -4.2,4.8 m 21.4,-20.9 0.5,0.5 0.9,-0.1 0.6,-0.2 0.7,-0.6 0.3,-1 -0.3,-1.5 -0.5,-1.5 -0.7,-1 -0.8,-0.3 h -0.9 l -0.3,0.1 -0.7,0.6 -0.4,0.8 v 0.9 l 0.2,0.3 0.6,0.8 0.7,0.3 h 1 l 0.3,-0.1 0.7,-0.6 0.3,-0.8 v -1 m -4.3,4.5 0.2,0.3 -0.1,0.7 -0.2,0.4 -0.4,0.5 -1.2,0.4 -0.6,-0.1 -0.4,-0.2 -0.5,-0.4 -0.2,-0.6 v -0.6 l 0.3,-1.1 1.7,-3.9 -3.9,1.5 m 45.7,3.8 -0.3,0.6 0.3,0.9 0.4,0.5 0.8,0.5 1.1,-0.1 1.3,-0.7 1.2,-0.9 0.8,-1 0.1,-0.9 -0.4,-0.9 -0.2,-0.2 -0.7,-0.5 -0.9,-0.1 -0.9,0.3 -0.2,0.2 -0.5,0.8 -0.1,0.8 0.3,0.9 0.2,0.3 0.8,0.5 0.8,0.1 0.9,-0.3 m -6.8,-1.8 -2,-2.6 3,-0.1 -0.6,-0.7 -0.1,-0.7 V 459 l 0.5,-0.8 0.5,-0.4 0.9,-0.3 0.8,0.1 0.8,0.5 0.6,0.7 0.3,0.9 v 0.4 l -0.3,0.7 m 63.2,38.8 -0.3,-0.6 -0.9,-0.3 -0.6,-0.1 -0.9,0.3 -0.6,0.9 -0.4,1.5 v 1.5 l 0.2,1.2 0.6,0.6 0.9,0.3 0.3,0.1 0.9,-0.3 0.6,-0.6 0.4,-0.9 v -0.3 l -0.3,-0.9 -0.6,-0.6 -0.9,-0.3 -0.3,-0.1 -0.9,0.3 -0.6,0.6 -0.3,0.9 m 6.6,-4 -0.9,0.2 -0.3,0.6 v 0.6 l 0.3,0.6 0.6,0.4 1.2,0.3 0.9,0.3 0.5,0.6 0.3,0.6 v 0.9 l -0.3,0.6 -0.3,0.3 -0.9,0.3 h -1.2 l -0.9,-0.4 -0.3,-0.3 -0.3,-0.6 v -0.9 l 0.3,-0.6 0.7,-0.5 0.9,-0.3 1.2,-0.3 0.6,-0.3 0.3,-0.6 v -0.6 l -0.3,-0.6 -0.9,-0.3 h -1.3 m 27.9,-25.4 6.3,2.9 m -6.3,1.3 v -4.2 m 1.4,-1.1 -0.3,-0.6 -1,-0.9 6.3,-0.1 m -26.5,-41.7 5.9,-3.8 m -2.3,6 -3.6,-2.2 m -4.4,-2.8 5.9,-3.7 m -2.3,5.9 -3.6,-2.2 m -28.1,16.8 -4,-5.8 m 6.1,2.1 -2.1,3.7 m -2.1,0.7 0.2,0.1 0.4,0.6 0.1,0.4 v 0.7 l -0.6,1 -0.6,0.4 -0.4,0.1 -0.7,-0.1 -0.5,-0.3 -0.3,-0.5 -0.5,-1 -1.1,-4.1 -2.1,3.7 m -115.8,-89.8 0.3,-0.6 -0.3,-0.9 -0.4,-0.5 -0.8,-0.5 -1.1,0.1 -1.3,0.7 -1.2,0.9 -0.8,1 -0.1,0.8 0.4,0.9 0.1,0.3 0.8,0.5 0.9,0.1 0.9,-0.3 0.2,-0.2 0.5,-0.8 0.1,-0.8 -0.3,-0.9 -0.2,-0.3 -0.8,-0.5 -0.8,-0.1 -0.9,0.3 m 5.6,2.7 0.2,-0.2 0.6,-0.1 h 0.5 l 0.6,0.3 0.7,1 0.2,0.6 -0.1,0.5 -0.3,0.6 -0.5,0.3 -0.6,0.2 -1.1,0.1 -4.2,-0.5 2.6,3.3 m 49.9,27.6 7,0.4 m -5.4,3.5 -1.6,-3.9 m -1.7,-3.9 5,1.1 -1.7,-4.1 m -3.3,3 5.8,-2.4 m -23.7,25 -3.1,6.3 m -1.1,-6.3 h 4.2 m 1.6,1.6 v -0.3 l 0.3,-0.6 0.3,-0.3 0.6,-0.3 h 1.2 l 0.6,0.3 0.3,0.3 0.3,0.6 v 0.6 l -0.3,0.6 -0.6,0.9 -3.1,3 h 4.2 m -23.6,-7.7 0.6,0.2 0.9,-0.4 0.4,-0.4 0.4,-0.9 -0.2,-1 -0.8,-1.3 -1.1,-1.1 -1,-0.6 h -0.9 l -0.8,0.4 -0.3,0.2 -0.4,0.9 v 0.8 l 0.4,0.9 0.2,0.2 0.9,0.4 h 0.8 l 0.9,-0.4 0.2,-0.2 0.4,-0.9 v -0.8 l -0.4,-0.9 m -1,7 -2.4,2.3 -0.4,-3 -0.6,0.7 -0.7,0.2 h -0.4 l -0.8,-0.5 -0.5,-0.4 -0.4,-0.8 v -0.9 l 0.5,-0.8 0.6,-0.7 0.8,-0.4 h 0.5 l 0.6,0.2 m 10.5,128.2 2.9,0.8 1,-2.6 -0.4,0.2 -0.9,0.1 -0.9,-0.2 -0.8,-0.5 -0.4,-0.8 -0.1,-0.9 0.1,-0.6 0.6,-0.8 0.7,-0.4 0.9,-0.1 0.9,0.2 0.8,0.6 0.2,0.3 0.2,0.7 m -10.4,2.6 4.5,-5.4 m -0.5,6.4 -4,-1 m -8.7,49.1 2.1,-2.6 0.7,2.9 0.6,-0.7 0.6,-0.3 h 0.4 l 0.9,0.3 0.5,0.4 0.5,0.8 0.1,0.9 -0.4,0.8 -0.5,0.7 -0.8,0.6 h -0.4 l -0.7,-0.1 m 2,-10.6 3,6.3 m -5.7,-3 2.7,-3.3 m -16.4,1.1 -5.1,-1 1.8,4.1 m 3.3,-3.1 -5.8,2.5 m 5.6,1 0.3,-0.1 0.6,0.1 0.4,0.1 0.5,0.4 0.5,1.1 v 0.7 l -0.2,0.4 -0.4,0.5 -0.5,0.3 -0.7,-0.1 -1.1,-0.2 -3.9,-1.5 1.7,3.8 m -11.4,-433.3 1,3.1 -2.8,-1 0.3,0.9 -0.1,0.7 -0.2,0.3 -0.8,0.6 -0.6,0.2 h -0.9 l -0.8,-0.4 -0.5,-0.8 -0.3,-0.8 v -1 l 0.2,-0.4 0.5,-0.4 m 6.7,7.2 0.5,-0.5 v -0.9 l -0.2,-0.6 -0.5,-0.8 -1.1,-0.3 -1.5,0.2 -1.4,0.5 -1.1,0.6 -0.4,0.8 v 0.9 l 0.1,0.3 0.6,0.8 0.7,0.4 h 1 l 0.3,-0.1 0.7,-0.6 0.4,-0.7 v -1 l -0.1,-0.3 -0.5,-0.7 -0.8,-0.4 h -0.9 m 23.6,-22.7 -3.3,0.1 1.7,-2.4 h -0.9 l -0.6,-0.3 -0.3,-0.3 -0.3,-0.9 -0.1,-0.6 0.3,-0.9 0.6,-0.6 0.9,-0.3 0.9,-0.1 0.9,0.3 0.3,0.3 0.3,0.6 m -8.8,5.4 3,-0.1 0.3,-2.7 -0.3,0.3 -0.9,0.3 h -0.9 l -0.9,-0.2 -0.6,-0.6 -0.4,-0.9 v -0.6 l 0.3,-0.9 0.6,-0.6 0.8,-0.4 h 0.9 l 1,0.3 0.3,0.3 0.3,0.6 m -9.2,79.5 2.9,-0.5 -0.1,-2.7 -0.3,0.3 -0.8,0.5 -0.9,0.1 -0.9,-0.1 -0.7,-0.5 -0.5,-0.9 -0.1,-0.6 0.2,-0.9 0.5,-0.7 0.8,-0.4 0.9,-0.2 0.9,0.2 0.4,0.2 0.4,0.6 m -5,6 -3.3,0.5 1.4,-2.6 -0.9,0.1 -0.6,-0.2 -0.4,-0.2 -0.4,-0.9 -0.1,-0.6 0.1,-0.9 0.5,-0.7 0.8,-0.4 0.9,-0.2 1,0.2 0.3,0.2 0.4,0.5 m -24.9,49.4 -4.2,-3 v 4.5 m 4.2,-1.5 h -6.3 m 6.2,3.3 v 3.3 l -2.4,-1.9 v 0.9 l -0.3,0.6 -0.3,0.3 -0.9,0.3 h -0.6 l -0.9,-0.3 -0.6,-0.6 -0.3,-0.9 v -0.9 l 0.3,-0.9 0.3,-0.3 0.6,-0.3 m -7.6,284 -4.1,3.1 4.3,1.4 m -0.2,-4.5 -1.8,6 m 3.8,-3.8 0.7,-0.1 1.1,-0.6 -1.8,6 m 23.4,-193.5 -0.5,0.4 -0.1,0.9 0.2,0.6 0.5,0.8 1,0.4 1.5,-0.1 1.5,-0.4 1.1,-0.6 0.4,-0.8 v -0.9 -0.3 l -0.6,-0.8 -0.7,-0.4 -0.9,-0.1 -0.3,0.1 -0.8,0.5 -0.4,0.8 -0.1,0.9 0.1,0.3 0.5,0.8 0.7,0.4 1,0.1 m -4,-4.1 -0.4,-0.5 -1.2,-0.6 6.1,-1.7 m -41.7,21.3 -4.8,-2 1,4.4 m 3.8,-2.4 -6.2,1.4 m 7.7,5.1 -6.9,-1.5 m 5.9,-2.6 1,4.1 m 42.9,14.3 0.5,3 2.7,-0.1 -0.4,-0.3 -0.4,-0.8 -0.2,-0.9 0.2,-0.9 0.5,-0.7 0.8,-0.5 0.6,-0.1 1,0.2 0.6,0.5 0.5,0.8 0.1,0.9 -0.1,0.9 -0.3,0.4 -0.5,0.4 m -6.1,-6 0.4,0.9 0.6,0.2 0.6,-0.1 0.6,-0.4 0.2,-0.6 0.1,-1.3 0.1,-0.9 0.5,-0.7 0.6,-0.4 0.9,-0.1 0.6,0.2 0.3,0.2 0.5,0.8 0.2,1.2 -0.2,1 -0.2,0.3 -0.6,0.4 -0.9,0.1 -0.6,-0.2 -0.7,-0.4 -0.4,-0.9 -0.5,-1.1 -0.4,-0.6 -0.7,-0.2 -0.5,0.1 -0.6,0.4 -0.1,1 0.2,1.3 m -17.8,7.1 -3,-0.2 -0.6,2.7 0.4,-0.3 0.9,-0.2 h 0.9 l 0.9,0.4 0.5,0.7 0.2,0.9 v 0.6 l -0.4,0.8 -0.6,0.6 -1,0.2 -0.9,-0.1 -0.8,-0.3 -0.3,-0.4 -0.3,-0.6 m 9.8,-4.3 -3.5,6.1 m -0.7,-6.4 4.2,0.3 m -28.8,122.1 -2,-4.8 -2.4,3.9 m 4.4,0.9 -5.4,-3.3 m 1.2,8.1 0.7,0.1 0.7,-0.6 0.4,-0.6 0.2,-0.9 -0.5,-1 -1.1,-1 -1.2,-0.8 -1.2,-0.4 -0.9,0.2 -0.7,0.6 -0.1,0.3 -0.3,0.9 0.2,0.8 0.6,0.7 0.3,0.2 0.9,0.2 0.8,-0.2 0.8,-0.6 0.1,-0.2 0.2,-0.9 -0.1,-0.9 -0.6,-0.7 m 33.7,-4.2 4.6,-2.4 -4,-2 m -0.6,4.4 2.9,-5.6 m -8.8,2.5 5.5,-4.2 m -1.8,6.1 -3.7,-1.9"
       id="nums_004"
       stroke="#000000"
       stroke-width="1" />
    <path
       d="m 1727.1,518.6 54.7,14.2 -11.8,-33.9 -31.6,-28.2 70.9,-26.7 23.5,29.5 38.8,-67.3 48.7,30.4 0.8,71.3 -76.2,-1.9 -3.4,37.7 17.4,-33.6 75.4,10.4 1,-71.3 -27.7,-50.4 -63.6,-26.4 30.9,-71.4 4.5,-84.1 -40.7,-19.7 36.5,26.7 -51.1,66.9 -44.9,63.5 26.3,63.7 -77.7,-1 26.8,-26.6 -47,-59.5 11.2,40.9 5.7,35.5 -56.3,-4.8 -12.7,-53.2 -32.4,-42.7 62.2,-0.7 0.5,-98.9 65.2,-11 21.1,59.7 11.9,-62.2 -66,-4.1 -20,-61.7 65.3,-2 1.2,-83.1 63.3,36.5 31.2,57.9 62.8,13.9 39.7,63.8 28.1,36.7 8.6,50 -66.2,11.2 -1.1,43 10.3,-41.8 63.4,22.2 5,63.5 1.5,75.5 -44.9,59 39.3,53 -20.8,67.9 -2.1,47 -46.4,29.1 -24.1,-43.6 -41.8,0.8 -34.3,-36.9 44.9,-22.6 35,-49.6 -53.8,28 -47,17.8 -49.3,-62.3 -33.8,41.6 -19.7,-45.2 -62.5,-19.4 28.4,-45.5 z"
       id="coupes_004"
       stroke="#ff0000"
       stroke-width="1.27"
       sodipodi:nodetypes="cccccccccccccccccccccccccccccccccccccccccccccccccccccccccccccccccccccc" />
    <path
       d="m 1827.8,79.1 -64.5,46.6 m 95.7,11.3 -95.7,-11.3 m 20.7,67.8 -20.7,-67.8 m 95.7,11.3 -20.3,60.2 m 0,0 -54.7,-3.7 m -66,-4.1 45.3,-63.7 m 158.5,25.2 -83.1,46.3 m 83.1,-46.3 -42.4,66 m 82.1,-2.2 -82.1,2.2 m 82.1,-2.2 -29.5,97.9 m 0,0 -57.1,-11.6 m 114.7,-49.6 -57.6,61.2 m 0,0 -88,59.8 m 86.9,-16.8 -86.9,16.8 m 86.9,-16.8 -23.3,43.2 m 23.3,-43.2 78.7,43.9 m 0,0 -74.3,49.7 m 75.8,25.8 -75.8,-25.8 m 30.9,84.8 -50.3,45.1 m 0,0 18.4,-58.6 m 71.2,66.5 -89.6,-7.9 m 68.8,75.8 -68.8,-75.8 m 68.8,75.8 -72.6,32.5 m 0,0 -31.2,-58.7 m 101.7,73.2 -70.5,-14.5 m 0,0 -76.1,-36.1 m 94.9,-295.7 73.7,-19.6 m -165.9,-138.8 -66.6,58.5 m 103.1,-31.8 -103.1,31.8 m 52,35.1 -52,-35.1 m -64.5,75.2 64.5,-75.2 m -86.8,50.2 86.8,-50.2 m -64.5,75.2 -52.1,18.4 m 0,0 29.8,-43.4 m 93.9,48.4 -71.6,-23.4 m 208.3,248.2 -57,-69 m 57,69 -74.4,-35.4 m 20.6,63.4 -20.6,-63.4 m -75.7,18.9 75.7,-18.9 m -59.7,-10.9 59.7,10.9 m -71.5,-44.8 62.8,-25.4 m 0,0 12.1,32.5 m -106.5,-35.3 94.4,2.8 m 0,0 88.3,34.4 m -88.3,-34.4 87.5,-36.9 m -141.1,-82.3 -24.6,36.1 m 11.2,172.2 -38.7,-44 m -14.8,40.4 14.8,-40.4 m 38.7,44 -53.5,-3.6 m -62.5,-19.4 77.3,-21 m -8.3,-146.8 -63.3,-22.5 m 63.3,22.5 -50.6,30.7"
       id="plisM_004"
       stroke="#a52a2a"
       stroke-dasharray="4" />
    <path
       d="m 1859,137 -75,56.5 m 177.5,21.2 -86.6,86.3 m 134.7,98.5 -102,-0.7 m 103.5,76.2 -76.8,45.5 m 31.9,13.5 -31.9,-13.5 m 50.4,134.4 -103.8,-26.2 m -56.8,-337.9 -116.5,40.1 m 0,0 -22.3,-25 m 0,0 L 1751,196 m 111.1,411.1 -96.3,-44.5 m 0,0 16,-29.8 m 0,0 63.1,-26.8 m -74.9,-7.1 74.9,7.1 m -39.4,-88 -50.9,-27.6"
       id="plisV_004"
       stroke="#008000"
       stroke-dasharray="4, 1, 1, 1"
       stroke-width="1.27" />
    <path
       d="m 1819.5,163.3 4,4 m 0,-4 -4,4 m 96.7,88.5 4,4 m 0,-4 -4,4 m 40.4,137.4 4,4 m 0,-4 -4,4 m 14.1,94.5 4,4 m 0,-4 -4,4 m -22.4,25.5 4,4 m 0,-4 -4,4 m -17.5,110.6 4,4 m 0,-4 -4,4 m -166.9,-334.9 4,4 m 0,-4 -4,4 m -69.5,3.5 4,4 m 0,-4 -4,4 m 21.7,-71.4 4,4 m 0,-4 -4,4 m 95.9,329.8 4,4 m 0,-4 -4,4 m -40.2,-41.1 4,4 m 0,-4 -4,4 m 39.6,-32.3 4,4 m 0,-4 -4,4 m -5.9,-20.9 4,4 m 0,-4 -4,4 m -27.5,-102.3 4,4 m 0,-4 -4,4"
       id="marqueV_004"
       stroke="#008000" />
    <path
       d="m 1876.6,426.3 -7.5,10.5 h 11.3 m -3.8,-10.5 V 442"
       id="titre_4"
       stroke="#4b0082" />
  </g>
</svg>
