<?xml version="1.0" encoding="UTF-8" standalone="no"?>
<svg
   height="297mm"
   viewBox="0 0 533 754"
   width="210mm"
   version="1.1"
   id="svg1"
   sodipodi:docname="cube_5cm.svg"
   inkscape:version="1.3 (1:1.3+202307231459+0e150ed6c4)"
   xmlns:inkscape="http://www.inkscape.org/namespaces/inkscape"
   xmlns:sodipodi="http://sodipodi.sourceforge.net/DTD/sodipodi-0.dtd"
   xmlns="http://www.w3.org/2000/svg"
   xmlns:svg="http://www.w3.org/2000/svg">
  <defs
     id="defs1" />
  <sodipodi:namedview
     id="namedview1"
     pagecolor="#ffffff"
     bordercolor="#000000"
     borderopacity="0.25"
     inkscape:showpageshadow="2"
     inkscape:pageopacity="0.0"
     inkscape:pagecheckerboard="0"
     inkscape:deskcolor="#d1d1d1"
     inkscape:document-units="mm"
     showgrid="false"
     inkscape:zoom="0.67793911"
     inkscape:cx="567.16008"
     inkscape:cy="509.63279"
     inkscape:window-width="1560"
     inkscape:window-height="943"
     inkscape:window-x="180"
     inkscape:window-y="32"
     inkscape:window-maximized="0"
     inkscape:current-layer="svg1" />
  <style
     type="text/css"
     id="style1"><![CDATA[
			path {
				fill: none;
				stroke-width: 0.15mm;
			}
		]]></style>
  <g
     id="page_001">
    <path
       d="M 206.9 256.5 L 206.6 255.6 L 205.7 255.0 L 204.2 254.7 L 203.3 254.7 L 201.8 255.0 L 200.9 255.6 L 200.6 256.5 L 200.6 257.1 L 200.9 258.0 L 201.8 258.6 L 203.3 258.9 L 204.2 258.9 L 205.7 258.6 L 206.6 258.0 L 206.9 257.1 L 206.9 256.6 M 135.9 328.9 L 136.8 328.6 L 137.4 327.7 L 137.7 326.2 L 137.7 325.3 L 137.4 323.8 L 136.8 322.9 L 135.9 322.6 L 135.3 322.6 L 134.4 322.9 L 133.8 323.8 L 133.5 325.3 L 133.5 326.2 L 133.8 327.7 L 134.4 328.6 L 135.3 328.9 L 135.8 328.9 M 317.4 258.2 L 317.7 259.1 L 318.3 259.4 L 318.9 259.4 L 319.5 259.1 L 319.8 258.5 L 320.1 257.3 L 320.4 256.4 L 321.0 255.8 L 321.6 255.5 L 322.5 255.5 L 323.1 255.8 L 323.4 256.1 L 323.7 257.0 L 323.7 258.2 L 323.4 259.1 L 323.1 259.4 L 322.5 259.7 L 321.6 259.7 L 321.0 259.4 L 320.4 258.8 L 320.1 257.9 L 319.8 256.7 L 319.5 256.1 L 318.9 255.8 L 318.3 255.8 L 317.7 256.1 L 317.4 257.0 L 317.4 258.4 M 390.8 439.4 L 387.8 445.7 M 386.6 439.4 L 390.8 439.4 M 317.5 509.6 L 323.8 512.6 M 317.5 513.8 L 317.5 509.6 M 80.0 385.3 L 80.0 382.3 L 77.3 382.0 L 77.6 382.3 L 77.9 383.2 L 77.9 384.1 L 77.6 385.0 L 77.0 385.6 L 76.1 385.9 L 75.5 385.9 L 74.6 385.6 L 74.0 385.0 L 73.7 384.1 L 73.7 383.2 L 74.0 382.3 L 74.3 382.0 L 74.9 381.7 M 133.1 440.9 L 133.1 440.6 L 133.4 440.0 L 133.7 439.7 L 134.3 439.4 L 135.5 439.4 L 136.1 439.7 L 136.4 440.0 L 136.7 440.6 L 136.7 441.2 L 136.4 441.8 L 135.8 442.7 L 132.8 445.7 L 137.0 445.7 M 317.4 129.8 L 321.6 132.8 L 321.6 128.3 M 317.4 129.8 L 323.7 129.8 M 261.0 567.9 L 261.6 567.6 L 262.5 566.7 L 262.5 573.0 M 205.5 509.1 L 205.8 509.1 L 206.4 509.4 L 206.7 509.7 L 207.0 510.3 L 207.0 511.5 L 206.7 512.1 L 206.4 512.4 L 205.8 512.7 L 205.2 512.7 L 204.6 512.4 L 203.7 511.8 L 200.7 508.8 L 200.7 513.0 M 263.4 73.5 L 262.8 73.8 L 261.9 74.7 L 261.9 68.4 M 207.0 131.3 L 207.0 128.3 L 204.3 128.0 L 204.6 128.3 L 204.9 129.2 L 204.9 130.1 L 204.6 131.0 L 204.0 131.6 L 203.1 131.9 L 202.5 131.9 L 201.6 131.6 L 201.0 131.0 L 200.7 130.1 L 200.7 129.2 L 201.0 128.3 L 201.3 128.0 L 201.9 127.7 M 444.4 383.8 L 448.6 386.8 L 448.6 382.3 M 444.4 383.8 L 450.7 383.8 M 390.2 328.9 L 391.1 328.6 L 391.4 328.0 L 391.4 327.4 L 391.1 326.8 L 390.5 326.5 L 389.3 326.2 L 388.4 325.9 L 387.8 325.3 L 387.5 324.7 L 387.5 323.8 L 387.8 323.2 L 388.1 322.9 L 389.0 322.6 L 390.2 322.6 L 391.1 322.9 L 391.4 323.2 L 391.7 323.8 L 391.7 324.7 L 391.4 325.3 L 390.8 325.9 L 389.9 326.2 L 388.7 326.5 L 388.1 326.8 L 387.8 327.4 L 387.8 328.0 L 388.1 328.6 L 389.0 328.9 L 390.4 328.9"
       id="nums_001"
       stroke="black" />
    <path
       d="M 178.7,165.1 V 95.3 l 20,-28.6 28.6,-20 h 69.8 l 28.6,20 20,28.6 v 69.8 l -20,28.6 20,28.6 v 69.8 l -20,28.6 h 127 v 127 h -127 l 20,28.6 v 69.8 l -20,28.6 h -127 l -20,-28.6 v -69.8 l 20,-28.6 h -127 v -127 h 127 l -20,-28.6 v -69.8 l 20,-28.6 z"
       id="coupes_001"
       stroke="#ff0000"
       sodipodi:nodetypes="ccccccccccccccccccccccccccccc" />
    <path
       d="m 198.7,320.7 h 127 m 0,127 v -127 -127 h -127 v 127 127 h 127 v 127 m -127,0 v -127 m 0,-254 v -127 h 127 v 127"
       id="plisM_001"
       stroke="#a52a2a"
       stroke-dasharray="4"
       sodipodi:nodetypes="cccccccccccccccc" />
  </g>
</svg>
