<?xml version="1.0" encoding="UTF-8" standalone="no"?>
<!-- Created with Inkscape (http://www.inkscape.org/) -->

<svg
   width="210mm"
   height="297mm"
   viewBox="0 0 210 297"
   version="1.1"
   id="svg8"
   inkscape:version="1.3 (1:1.3+202307231459+0e150ed6c4)"
   sodipodi:docname="tourW.svg"
   xmlns:inkscape="http://www.inkscape.org/namespaces/inkscape"
   xmlns:sodipodi="http://sodipodi.sourceforge.net/DTD/sodipodi-0.dtd"
   xmlns="http://www.w3.org/2000/svg"
   xmlns:svg="http://www.w3.org/2000/svg"
   xmlns:rdf="http://www.w3.org/1999/02/22-rdf-syntax-ns#"
   xmlns:cc="http://creativecommons.org/ns#"
   xmlns:dc="http://purl.org/dc/elements/1.1/">
  <defs
     id="defs2" />
  <sodipodi:namedview
     id="base"
     pagecolor="#ffffff"
     bordercolor="#666666"
     borderopacity="1.0"
     inkscape:pageopacity="0.0"
     inkscape:pageshadow="2"
     inkscape:zoom="0.63427719"
     inkscape:cx="534.46664"
     inkscape:cy="624.33271"
     inkscape:document-units="mm"
     inkscape:current-layer="layer1"
     showgrid="false"
     inkscape:window-width="1920"
     inkscape:window-height="1007"
     inkscape:window-x="0"
     inkscape:window-y="0"
     inkscape:window-maximized="1"
     showguides="true"
     inkscape:guide-bbox="true"
     inkscape:snap-global="false"
     inkscape:showpageshadow="2"
     inkscape:pagecheckerboard="0"
     inkscape:deskcolor="#d1d1d1" />
  <metadata
     id="metadata5">
    <rdf:RDF>
      <cc:Work
         rdf:about="">
        <dc:format>image/svg+xml</dc:format>
        <dc:type
           rdf:resource="http://purl.org/dc/dcmitype/StillImage" />
      </cc:Work>
    </rdf:RDF>
  </metadata>
  <g
     inkscape:label="Calque 1"
     inkscape:groupmode="layer"
     id="layer1">
    <path
       id="path7854"
       style="fill:none;stroke:#0000ff;stroke-width:0.25;stroke-linecap:butt;stroke-linejoin:miter;stroke-miterlimit:10;stroke-dasharray:none;stroke-opacity:1"
       d="m 130.10525,159.37512 -0.79374,-0.79374 v -1.05834 h 1.58752 v 1.05834 l -0.79378,0.79374 1.05834,0.52918 v 1.85208 h -2.11664 v -1.85208 l 1.0583,-0.52918 m -5.29166,-0.79374 v -1.05834 h 2.11666 v 2.11668 h -2.11666 v 2.11666 h 2.11666 m -24.14757,-3.34982 h 2.11666 l -2.11666,4.23334 m -4.233363,-3.175 v -1.05834 H 100.666 v 2.11668 h -2.116683 v 2.11666 H 100.666 m -18.616381,-4.46861 -2.11668,2.11668 v 2.11668 h 2.11668 v -2.11668 h -2.11668 m -4.23334,-1.05834 v -1.05834 h 2.11668 v 2.11668 h -2.11668 v 2.11668 h 2.11668 m -18.763222,-3.79734 h -2.11665 v 2.11668 h 2.11665 v 2.11666 h -2.11665 m -4.23336,-3.175 v -1.05834 h 2.11668 v 2.11668 h -2.11668 v 2.11666 h 2.11668 M 156.01288,101.28983 h -2.11664 l 1.58748,-2.11668 v 4.23333 m -5.82084,-3.17499 v -1.05834 h 2.11668 v 2.11668 h -2.11668 v 2.11665 h 2.11668 m 8.07419,37.09568 v -0.79376 h 2.11668 v 1.3229 l -1.05834,0.79378 1.05834,0.79374 v 1.3229 h -2.11668 v -0.79374 m -4.23332,-2.38124 v -1.05834 h 2.11668 v 2.11668 h -2.11668 v 2.11664 h 2.11668 m -12.65621,-3.60994 v -1.05834 h 2.11666 v 2.11668 h -2.11666 v 2.11664 h 2.11666 m -6.35002,-3.17498 v -1.05834 h 2.11668 v 2.11668 h -2.11668 v 2.11664 h 2.11668 m -13.1468,-2.18314 2.11667,-2.11664 v 4.23332 m -6.35002,-3.17498 v -1.05834 h 2.11668 v 2.11664 h -2.11668 v 2.11668 h 2.11668 m -12.6112,-0.12854 v -4.23332 h 2.11668 v 4.23332 h -2.11668 m -4.23334,-3.17498 v -1.05834 h 2.11668 v 2.11664 h -2.11668 v 2.11668 h 2.11668 m -11.34896,-1.62323 h -2.116663 v -2.11664 h 2.116663 v 4.23332 h -2.116663 m -4.233361,-2.11668 2.11668,-2.11664 v 4.23332 m -12.307903,-2.36642 -0.79374,-0.79374 v -1.05834 h 1.5875 v 1.05834 l -0.79376,0.79374 1.05834,0.52916 v 1.85208 h -2.11666 v -1.85208 l 1.05832,-0.52916 m -5.29168,0.2646 2.11668,-2.11668 v 4.23332 M 69.22597,139.69342 h 2.11668 l -2.11668,4.23334 m -4.23332,-2.11666 2.11668,-2.11668 v 4.23334 m -11.385712,-4.57694 -2.11666,2.11668 v 2.11666 h 2.11666 v -2.11666 h -2.11666 m -4.23336,0 2.11668,-2.11668 v 4.23334 m 98.414292,46.40006 2.11668,-2.11666 v 4.23334 M 55.688565,98.241945 h -2.11666 v 2.116685 h 2.11666 v 2.11668 h -2.11666 m -4.23332,-2.11668 2.11664,-2.116685 v 4.233365 M 74.51977,98.932209 h -2.11668 l 1.58752,-2.11668 v 4.233361 m -5.82084,-2.116681 2.11668,-2.11668 v 4.233361 m 15.691438,-1.749732 v -0.79378 h 2.11666 v 1.32294 l -1.05834,0.793742 1.05834,0.79374 v 1.32294 h -2.11666 v -0.79376 m -4.23334,-1.32292 2.11666,-2.116682 v 4.233362 m 18.211652,-3.032489 v -1.05832 h 2.11666 v 2.116659 h -2.11666 v 2.11668 h 2.11666 m -6.349985,-2.11668 2.11664,-2.116659 v 4.233339 m 18.112095,-2.15037 2.11668,-2.116637 v 4.233317 m -6.35,-2.11668 2.11668,-2.116637 v 4.233317 m 19.23521,0.1895 v -4.233346 h 2.11668 v 4.233346 h -2.11668 m -4.23332,-2.11669 2.11666,-2.116656 v 4.233346 m -76.54511,18.52555 h -2.11668 v -2.11669 h 2.11668 v 4.23334 h -2.11668 m 20.408427,-2.56266 -0.79378,-0.79374 v -1.05834 h 1.58752 v 1.05834 l -0.79374,0.79374 1.0583,0.52918 v 1.85208 h -2.11664 v -1.85208 l 1.05834,-0.52918 m 18.937674,-1.58812 h 2.11666 l -2.11666,4.23334 m 23.953369,-4.76378 -2.11668,2.11666 v 2.11666 h 2.11668 v -2.11666 h -2.11668 m 26.24439,-1.73657 h -2.11664 v 2.11668 h 2.11664 v 2.11665 h -2.11664 m -80.116881,66.3187 h -2.11666 l 1.5875,-2.11668 v 4.23334 m 27.406409,-3.494 v -0.79377 h 2.11666 v 1.32292 l -1.05832,0.79377 1.05832,0.79374 v 1.32292 h -2.11666 v -0.79374 m 30.987382,-2.21157 v -1.05834 h 2.11664 v 2.11667 h -2.11664 v 2.11667 h 2.11664" />
    <path
       id="path2078-78"
       style="fill:none;stroke:#000000;stroke-width:0.132291px;stroke-linecap:butt;stroke-linejoin:miter;stroke-opacity:1"
       d="m 155.65862,188.93822 h -0.62887 m 0.31444,-0.31443 v 0.62887 m -2.99246,-4.24763 h -0.62887 m 0.31444,-0.31443 v 0.62886 m -28.29284,3.61876 h -0.62887 m 0.31444,-0.31443 v 0.62887 m -2.99246,-4.24763 h -0.62887 m 0.31444,-0.31444 v 0.62887 m -27.58658,3.61876 h -0.62887 m 0.31443,-0.31443 v 0.62887 m -2.99245,-4.24763 H 88.6008 m 0.31444,-0.31443 v 0.62886 m -25.52664,3.61876 h -0.62887 m 0.31444,-0.31443 v 0.62887 m -2.99246,-4.24763 h -0.62887 m 0.31444,-0.31443 v 0.62886 m 46.74453,-24.15007 h -0.62887 m 0.31444,-0.31444 v 0.62887 m -2.99246,-4.24763 h -0.62887 m 0.31444,-0.31443 v 0.62887 m -19.13184,3.61876 h -0.62887 m 0.31444,-0.31444 v 0.62887 m -2.99246,-4.24763 h -0.62887 m 0.31444,-0.31443 v 0.62887 m -19.17085,3.61876 h -0.62887 m 0.31443,-0.31444 v 0.62887 m -2.99245,-4.24763 h -0.62887 m 0.31444,-0.31443 v 0.62887 m -0.0031,-15.48924 h -0.62887 m 0.31444,-0.31444 v 0.62887 m -2.99246,-4.24763 h -0.62886 m 0.31443,-0.31443 v 0.62887 m 19.0543,3.61875 h -0.62887 m 0.31443,-0.31443 v 0.62887 m -2.99246,-4.24763 h -0.62887 m 0.31444,-0.31443 v 0.62886 m 18.8799,3.61876 h -0.62887 m 0.31443,-0.31443 v 0.62887 m -2.99245,-4.24763 H 84.0979 m 0.31443,-0.31443 v 0.62887 m 18.80453,3.61875 h -0.62887 m 0.31443,-0.31443 v 0.62887 m -2.99245,-4.24763 H 99.2811 m 0.31443,-0.31443 v 0.62886 m 18.74262,3.61877 h -0.62887 m 0.31443,-0.31444 v 0.62887 m -2.99245,-4.24763 h -0.62886 m 0.31442,-0.31443 v 0.62887 m 18.68071,3.61876 h -0.62886 m 0.31443,-0.31444 v 0.62887 m -2.99246,-4.24763 h -0.62886 m 0.31443,-0.31443 v 0.62887 m 18.61879,3.61872 h -0.62886 m 0.31443,-0.31444 v 0.62887 m -2.99245,-4.24763 h -0.62887 m 0.31443,-0.31443 v 0.62887 m 19.04192,3.61876 h -0.62887 m 0.31444,-0.31444 v 0.62887 m -2.99246,-4.24763 h -0.62887 m 0.31444,-0.31443 v 0.62887 m -1.97128,-37.5894 h -0.62887 m 0.31444,-0.31444 v 0.62887 m -2.99246,-4.247623 h -0.62886 m 0.31443,-0.314435 v 0.628865 m -9.03812,24.419713 h -0.62887 m 0.31444,-0.31443 v 0.62887 m -2.99246,-4.24763 h -0.62887 m 0.31444,-0.31443 v 0.62886 m -20.65085,3.61876 h -0.62886 m 0.31442,-0.31443 v 0.62887 m -2.99245,-4.24763 h -0.62887 m 0.31444,-0.31443 v 0.62886 m -18.6413,3.61876 H 98.3999 m 0.31443,-0.31443 v 0.62886 m -2.99245,-4.24762 h -0.62887 m 0.31443,-0.31444 v 0.62887 m -16.84919,3.61876 h -0.62886 m 0.31443,-0.31444 v 0.62887 m -2.99246,-4.24763 H 74.6225 m 0.31443,-0.31443 v 0.62887 m -15.77111,3.61876 h -0.62886 m 0.31443,-0.31444 v 0.62887 m -2.99246,-4.24762 h -0.62886 m 0.31443,-0.31444 v 0.62887 m 84.14023,-17.18219 h -0.62887 m 0.31444,-0.31443 v 0.62887 m -2.99246,-4.247632 h -0.62886 m 0.31443,-0.314434 v 0.628868 m -13.27279,3.618758 h -0.62887 m 0.31443,-0.31443 v 0.62887 m -2.99245,-4.247632 h -0.62887 m 0.31443,-0.314434 v 0.628868 m -13.07479,3.618758 h -0.62887 m 0.31443,-0.31443 v 0.62886 m -2.99245,-4.247623 h -0.62887 m 0.31443,-0.314434 v 0.628869 m -12.84445,3.618798 h -0.62886 m 0.31443,-0.31443 v 0.62887 m -2.99245,-4.247631 h -0.62887 m 0.31443,-0.314434 v 0.628868 m -12.58649,3.618757 h -0.62887 m 0.31444,-0.31443 v 0.62887 m -2.99246,-4.247632 h -0.62886 m 0.31443,-0.314434 v 0.628868 m -12.32853,3.618758 h -0.62887 m 0.31444,-0.31443 v 0.62887 m -2.99246,-4.247632 h -0.62886 m 0.31443,-0.314434 v 0.628868" />
    <path
       id="path4"
       style="fill:none;stroke:#ff0000;stroke-width:0.176389;stroke-linecap:butt;stroke-linejoin:miter;stroke-miterlimit:10;stroke-dasharray:none;stroke-opacity:1"
       d="m 174.06306,113.46365 -1.12743,-0.74191 -1.67203,-0.9639 -1.21116,-0.22007 0.79629,-2.28871 1.14922,0.31563 1.2863,0.57933 2.62852,1.79259 1.4587,1.6265 0.95099,1.62091 0.26835,0.51222 -1.95883,1.53816 -0.90193,-1.74205 z m -14.38895,4.08468 -0.26534,0.91716 -2.23083,-0.28844 0.0957,-0.72797 0.20784,-0.59969 0.5827,-1.56198 2.02361,-3.01879 3.09654,-2.12076 1.52385,-0.65684 2.26608,-0.45322 0.94042,-0.14649 -0.85194,2.36217 -0.81622,0.24515 -1.18579,0.37969 -1.54566,0.73827 -2.83861,2.71279 -0.80374,1.38928 z m 3.15673,9.47814 0.86193,1.07286 1.32745,0.57099 1.25786,0.30108 0.70951,0.22496 0.76719,-0.0375 0.90057,2.37939 -1.56097,-0.0647 -0.8223,-0.11942 -1.94111,-0.5419 -0.41968,-0.14671 -0.68008,-0.31306 -1.28374,-0.72645 -2.60562,-2.38143 -1.47613,-2.41419 -0.73648,-2.77596 -0.15338,-1.10501 2.30366,-0.14904 0.5428,2.17119 0.28657,1.15366 z m 12.88631,-1.88105 0.77465,-1.1347 0.0893,-0.50315 0.49972,-2.80877 0.21054,-0.79314 -0.0375,-0.71528 2.08956,-1.10667 0.14995,0.97853 -0.10515,2.91974 -0.15343,0.98571 -0.68791,1.80478 -0.19543,0.48435 -2.03297,3.01508 -0.13115,0.16077 -0.2413,0.13787 -2.75306,1.80299 -1.55459,0.66936 -0.92841,-2.16835 0.53934,-0.19035 0.58542,-0.22823 1.04377,-0.62918 z m -19.92415,27.31443 -1.12743,-0.74191 -1.67203,-0.9639 -1.21116,-0.22007 0.79629,-2.28871 1.14922,0.31563 1.2863,0.57933 2.62852,1.79259 1.4587,1.6265 0.95099,1.62091 0.26835,0.51222 -1.95883,1.53816 -0.90193,-1.74205 z m -14.38895,4.08468 -0.26534,0.91716 -2.23083,-0.28844 0.0957,-0.72797 0.20784,-0.59969 0.5827,-1.56198 2.02361,-3.01879 3.09654,-2.12076 1.52385,-0.65684 2.26608,-0.45322 0.94042,-0.14649 -0.85194,2.36217 -0.81622,0.24515 -1.18579,0.37969 -1.54566,0.73827 -2.83861,2.71279 -0.80374,1.38928 z m 3.15673,9.47814 0.86193,1.07286 1.32745,0.57099 1.25786,0.30108 0.70951,0.22496 0.76719,-0.0375 0.90057,2.37939 -1.56097,-0.0647 -0.8223,-0.11942 -1.94111,-0.5419 -0.41968,-0.14671 -0.68008,-0.31306 -1.28374,-0.72645 -2.60562,-2.38143 -1.47613,-2.41419 -0.73648,-2.77596 -0.15338,-1.10501 2.30366,-0.14904 0.5428,2.17119 0.28657,1.15366 z m 12.88631,-1.88105 0.77465,-1.1347 0.0893,-0.50315 0.49972,-2.80877 0.21054,-0.79314 -0.0375,-0.71528 2.08956,-1.10667 0.14995,0.97853 -0.10515,2.91974 -0.15343,0.98571 -0.68791,1.80478 -0.19543,0.48435 -2.03297,3.01508 -0.13115,0.16077 -0.2413,0.13787 -2.75306,1.80299 -1.55459,0.66936 -0.92841,-2.16835 0.53934,-0.19035 0.58542,-0.22823 1.04377,-0.62918 z m -39.14403,-4.35285 0.5428,2.17119 m 0,0 0.25381,1.09887 m 18.27538,1.18636 -2.2192,3.1644 -2.93929,1.95231 -1.5546,0.66936 -1.8857,0.33182 -1.09737,0.16354 -1.56097,-0.0647 -0.82231,-0.11943 -1.9411,-0.54189 -0.41969,-0.14672 -0.68008,-0.31305 -1.28373,-0.72645 -2.60563,-2.38143 -1.47613,-2.41418 -0.73647,-2.77595 -0.15338,-1.10501 0.20206,-2.77237 0.0957,-0.72797 0.20784,-0.59969 0.5827,-1.56198 2.02361,-3.0188 3.09654,-2.12078 1.52385,-0.65683 2.26608,-0.45322 0.94042,-0.14648 1.09689,0.16352 1.83714,0.19424 1.14923,0.31563 1.2863,0.57933 2.62853,1.79259 1.4587,1.6265 0.95098,1.62091 0.26836,0.51222 0.75266,2.38747 0.14995,0.97853 -0.10514,2.91974 -0.15343,0.98571 -0.68792,1.80477 z m -18.27538,-1.18636 0.0655,0.10954 m 1e-5,0 2.6892,2.84646 0.86194,1.07287 1.32744,0.57099 1.25787,0.30108 0.7095,0.22496 0.76719,-0.0375 2.95524,-0.28432 0.53933,-0.19036 0.58543,-0.22824 1.04378,-0.62918 2.8386,-2.68133 0.77464,-1.1347 0.0893,-0.50315 0.49972,-2.80876 0.21055,-0.79315 -0.0375,-0.71527 -0.19613,-0.5105 -0.42582,-1.44549 -0.90194,-1.74205 -1.66699,-2.02869 -1.12742,-0.74192 -1.67204,-0.96389 -1.21116,-0.22008 -2.9897,-0.28432 -0.81622,0.24516 -1.18579,0.3797 -1.54566,0.73828 -2.8386,2.71279 -0.80374,1.38928 -0.19861,0.82967 -0.26535,0.91717 -0.12923,2.33489 m -5.93516,7.71837 -1.28891,0.73646 -1.97404,1.29281 -1.11469,0.47995 -1.35212,0.23793 -1.83502,0.27348 -1.1183,-0.0464 -1.37507,-0.1997 -1.39064,-0.38822 -0.7018,-0.24534 -0.487225,-0.22428 -0.827505,-0.45629 -0.515985,-0.25611 -0.85872,-0.70053 -1.72461,-1.55447 -0.74443,-1.30453 -1.00847,-1.64349 -0.52808,-1.99045 -0.25648,-1.8478 0.14464,-1.98446 0.160035,-1.21731 0.34755,-1.0028 0.41782,-1.11999 1.37607,-2.06898 0.36459,-0.62769 0.75173,-0.79684 2.06694,-1.3857 1.16895,-0.58635 1.0142,-0.43161 1.62485,-0.32497 1.57257,-0.24495 1.83421,0.27343 1.31729,0.13928 0.82404,0.22631 0.85742,0.3813 0.96696,0.50801 1.76328,1.19872 0.82015,0.76737 0.99089,1.11475 0.64253,1.08379 0.58635,1.16895 0.15307,0.28881 0.53968,1.7119 0.25076,1.63629 -0.0753,2.09176 -0.25656,1.6483 -0.49326,1.29408 -0.11437,0.29075 -0.38369,0.8425 -1.43073,2.10356 z m -36.63686,1.25983 -1.55669,-1.26993 -1.04195,-0.93916 -1.3495,-2.36482 -0.61049,-0.99492 -0.31968,-1.20495 -0.35959,-2.59059 0.0872,-1.19656 0.22437,-1.70664 0.48725,-1.40592 0.25294,-0.678 0.83303,-1.25249 0.66092,-1.13788 1.36273,-1.44449 1.25126,-0.83886 2.11904,-1.06293 0.61396,-0.26128 0.98364,-0.19673 2.20471,-0.34342 2.57153,0.38336 0.79745,0.0843 0.49884,0.137 0.51905,0.23083 1.75291,0.9209 1.06532,0.72423 1.48675,1.39108 0.59985,0.67484 0.38897,0.65609 1.10926,2.20646 0.37304,1.12375 0.35155,2.29405 -0.0455,1.26378 -0.3597,2.31089 -0.29861,0.78339 -0.0692,0.17601 -0.69555,1.52728 -0.8644,1.27091 -1.26993,1.55668 -2.33651,1.33506 -1.19502,0.78262 -0.6748,0.29055 -0.81853,0.14403 -2.57266,0.38342 -0.67565,-0.028 -1.92782,-0.27998 -0.84018,-0.23455 -0.9839,-0.34396 -0.29437,-0.13551 -0.49995,-0.27567 z m -19.510185,1.39319 -0.289725,-0.0809 -1.40297,-0.51349 -1.49172,-0.74333 -2.25464,-1.83931 -0.359305,-0.32386 -1.954555,-3.42512 -0.21252,-0.34634 -0.11128,-0.41946 -0.46269,-3.33337 0.0298,-0.40866 0.2887,-2.19598 0.670995,-1.92703 0.334005,-0.55402 0.95726,-1.64806 1.97373,-2.09215 0.435575,-0.29201 3.17601,-1.58499 0.449275,-0.11396 2.83686,-0.44188 3.30885,0.49327 0.277595,0.0293 0.264,0.0879 2.62918,1.37397 0.36736,0.24974 2.15336,2.01479 0.208815,0.23492 0.1354,0.22839 1.555635,3.09958 0.12986,0.39119 0.45235,2.95181 -0.0157,0.43579 -0.462825,2.97348 -0.116,0.30334 -1.019455,2.2427 -0.29808,0.43825 -1.83931,2.25465 -3.38412,1.93365 -0.416,0.27243 -0.2349,0.10115 -0.284935,0.0501 -3.310315,0.49334 -0.23299,-0.01 z m 94.437555,-62.96097 -1.43087,-1.16729 -1.39299,-1.98715 -1.28924,-2.23633 -0.26891,-2.089804 0.3053,-2.65419 0.16251,-1.330625 0.37479,-1.114865 0.61695,-1.062165 1.27206,-1.348385 1.60748,-1.62396 1.96621,-0.986265 2.33075,-0.545486 1.70545,-0.25441 1.98069,0.28523 2.14938,1.017451 1.62099,0.864985 1.38206,1.278255 1.20132,1.748635 1.00951,2.01255 0.27226,1.84772 -0.21086,2.721639 -0.27986,1.87536 -0.67513,1.45733 -1.20834,1.4812 -1.78295,1.61349 -2.15342,1.24287 -1.9657,0.43414 -2.06218,0.29583 -1.5307,-0.2223 -0.78123,-0.27311 -2.06555,-0.8536 z m 7.74898,40.48118 -1.92031,-0.77251 -1.31296,-1.96631 -1.00456,-2.43563 -0.1705,-1.7327 0.31181,-3.02742 0.62172,-1.59323 0.54332,-1.22858 1.42404,-1.45292 1.89208,-0.46661 3.1801,-1.18854 3.94867,1.3552 1.74366,0.86158 1.06982,1.62729 0.96186,2.72771 -0.0793,1.54629 -0.27065,3.25996 -0.49224,1.18521 -1.77502,2.06378 -1.64611,1.56674 -1.75723,0.36816 z m -13.27731,-0.29816 -0.1337,-0.0471 -1.88637,-0.58499 -2.05039,-1.56074 -0.27618,-0.27525 -1.37239,-2.38038 -0.0494,-0.30346 -0.32877,-3.23261 0.0549,-0.30198 1.49362,-3.11104 1.98518,-1.83998 0.20513,-0.14689 2.67957,-0.85081 0.24756,-0.0197 2.68256,0.14708 2.33006,1.19698 0.21994,0.10871 1.83632,2.09085 1.04375,2.47746 0.0106,0.27711 -0.13572,2.9277 -0.0694,0.20552 -1.30852,2.48862 -1.97691,1.78285 -2.80342,0.981 -0.17547,0.0508 z m -12.60767,0.13517 -0.39843,0.0223 -1.9335,-0.074 -0.32213,-0.0728 -0.46054,-0.24346 -1.41777,-0.43024 -1.58796,-1.20875 -0.6023,-0.49316 -0.32596,-0.53909 -1.07373,-1.86623 -0.13673,-0.84085 -0.25886,-2.54517 0.15084,-0.82959 1.13601,-2.38275 0.35794,-0.59734 1.64974,-1.49695 0.5684,-0.40703 2.11465,-0.67124 0.45303,-0.14561 0.36477,-0.0446 0.56281,0.0959 2.04924,0.10509 1.83455,0.94242 0.57859,0.21319 0.33252,0.30993 1.57149,1.79552 0.15358,0.2199 0.15175,0.4624 0.79114,1.88341 0.0301,0.78155 -0.11213,2.41877 -0.19228,0.5695 -1.06047,2.03009 -0.25289,0.36907 -1.67961,1.51542 -0.39787,0.21985 -2.21864,0.76662 z m -19.71423,-0.8351 -1.12554,-0.85675 -0.98724,-0.80834 -0.53429,-0.88364 -0.83387,-1.44935 -0.22413,-1.37826 -0.18894,-1.85771 0.24677,-1.35721 0.82917,-1.73916 0.61434,-1.02525 1.36508,-1.23864 0.93166,-0.66718 1.61398,-0.51231 0.77756,-0.24993 0.62606,-0.0765 0.96597,0.16466 1.49574,0.0767 1.33904,0.68788 0.98632,0.36342 0.56687,0.52834 1.35224,1.54502 0.30758,0.44038 0.3039,0.92605 0.54123,1.28846 0.0496,1.28599 -0.0885,1.90984 -0.31515,0.93348 -0.8483,1.62391 -0.43405,0.63343 -1.47767,1.33323 -0.67674,0.37396 -1.69335,0.58511 -0.71978,0.28828 -0.68384,0.0382 -1.70083,-0.0651 -0.5663,-0.12801 -0.8096,-0.42799 z m -12.68261,0.9386 -0.81047,-0.1832 -1.15865,-0.61253 -0.59205,-0.17966 -0.66312,-0.50476 -1.37217,-1.12353 -0.74262,-1.22818 -0.59403,-1.03247 -0.31152,-1.91565 -0.11902,-1.17027 0.34269,-1.88482 0.52234,-1.09559 0.87074,-1.45314 1.08041,-0.98034 1.29493,-0.92732 1.11332,-0.35339 1.10207,-0.35424 0.88736,-0.10847 1.36913,0.23338 0.94224,0.0483 0.84353,0.43332 1.39406,0.51367 0.80121,0.74674 1.13299,1.29452 0.46157,0.66088 0.45606,1.38968 0.29131,0.69351 0.069,1.79043 -0.065,1.40091 -0.43804,1.29746 -0.63612,1.21772 -0.6152,0.89781 -1.27574,1.15104 -0.95562,0.52805 -1.16806,0.40361 -1.02018,0.40859 -0.96926,0.0541 z m -10.67182,-0.69615 -0.64278,0.22209 -1.32058,0.52892 -1.25467,0.0701 -1.23548,-0.0473 -1.05463,-0.23839 -1.50772,-0.79706 -0.27953,-0.13075 -1.85746,-1.5151 -0.95095,-1.57273 -0.35417,-0.61558 -0.39892,-2.45306 -0.0491,-0.48282 0.43863,-2.41244 0.2155,-0.45201 1.12714,-1.88104 0.79574,-0.72204 1.65819,-1.18746 0.61265,-0.19446 1.4266,-0.45856 1.14866,-0.1404 1.77229,0.30209 0.38874,0.0199 0.34801,0.17878 1.80181,0.6639 1.03554,0.96516 0.91375,1.04401 0.61556,0.88137 0.62891,1.90259 0.10915,2.34416 -0.0413,0.89199 -0.56093,1.66142 -0.42394,0.81156 -0.79636,1.16216 -1.07381,0.96885 z m -26.2084,-6.89193 0.48541,-2.74726 0.24077,-0.35626 1.12131,-1.87131 0.51108,-0.46374 2.07745,-1.46537 1.80711,-0.58063 1.40995,-0.17235 2.00802,0.34957 2.06472,0.75116 1.26988,1.18357 0.6945,0.79351 0.76955,1.10186 0.52134,1.58858 0.14369,0.50809 -0.0488,1.39519 0.0435,1.12802 -0.0178,0.38306 -0.68381,2.0254 -0.21175,0.40537 -0.97752,1.42654 -0.87187,0.78665 -1.57211,0.85656 -1.67974,0.66953 -1.54008,0.086 -1.00281,-0.0384 -1.29879,-0.29358 -1.57767,-0.83465 -1.65337,-1.40767 -0.27239,-0.22303 -1.15927,-1.91727 -0.11433,-0.19871 -0.28335,-1.7424 z m -2.25885,5.52507 -0.66995,0.60446 -1.27694,0.70561 -0.61163,0.34575 -1.41726,0.56764 -1.8255,0.10191 -0.77014,-0.0295 -1.54296,-0.34877 -1.22692,-0.64862 -0.41336,-0.22191 -1.55208,-1.34453 -0.29348,-0.32548 -1.07881,-1.84161 -0.13379,-0.26703 -0.4924,-2.4671 0.0266,-0.82203 0.40294,-2.21615 1.04961,-1.55311 0.49674,-0.82899 0.2264,-0.20544 1.06407,-0.76199 0.94013,-0.79139 0.4545,-0.24628 0.69011,-0.15524 0.92287,-0.29664 1.67125,-0.20428 1.47656,0.25168 0.74431,0.19046 1.61375,0.59461 1.50423,1.40198 0.47525,0.54301 0.92354,1.32234 0.387,1.17923 0.3159,1.11707 -0.10243,2.59969 -0.8194,2.35995 -10e-4,0.001 z m -9.49219,-39.78767 -1.73856,-1.62039 -0.256,-0.2925 -1.07754,-1.54283 -0.25265,-0.76987 -0.48813,-1.726044 0.0691,-1.978125 0.14504,-0.805547 0.67551,-1.913259 0.56668,-0.659985 0.80869,-1.180163 0.46801,-0.422264 0.89205,-0.49293 1.39948,-0.791108 1.0683,-0.427871 2.1109,-0.11785 0.53747,0.02058 1.78713,0.403964 0.95088,0.502686 0.67732,0.363624 1.23562,1.070399 0.61718,0.684458 0.83525,1.42583 0.38942,0.777279 0.40971,2.05281 -0.0472,1.455502 -0.32351,1.779324 -1.61192,2.38517 -0.13199,0.19325 -1.80577,1.52005 -1.03992,0.56352 -1.34406,0.30233 -0.20392,0.002 -1.72612,0.21099 -1.03047,-0.17565 -1.31789,-0.33723 z m 112.00815,93.71756 -4.73203,2.73251 -2.59455,0.5929 -3.59786,0.0138 -1.94545,-0.16332 -2.65178,-0.79018 -1.79174,-0.77337 -3.25446,-2.55804 -1.91663,-1.7389 -0.9463,-1.70526 -1.96706,-4.462 -0.351,-1.73129 0.19447,-2.07279 0.48516,-4.51274 1.10482,-2.33934 1.86161,-3.15402 1.91663,-1.73889 2.83365,-2.1588 2.46546,-0.88017 3.49791,-0.93093 3.3481,0.22577 3.62276,0.48884 2.79911,1.56697 2.89655,2.13759 1.94197,2.04241 1.25854,2.65638 1.35913,3.2995 0.1919,2.5758 0.097,1.92362 -0.25732,1.33303 -0.45497,2.63221 -2.02232,3.63617 -1.31137,2.26248 z m -25.92965,-13.64034 -1.25424,5.24255 0.0409,2.27957 -1.03162,1.85487 -3.72288,4.00212 -0.45477,0.52309 -0.249,0.12582 -9.32414,2.62834 -1.38508,-0.063 -3.5978,-1.02167 -2.90664,-0.71443 -1.26001,-0.99038 -3.54185,-3.96444 -0.63066,-0.67791 -0.0767,-0.17829 -0.27325,-0.9903 -1.92667,-6.43462 0.17429,-1.61725 1.11715,-5.2727 1.07449,-1.82046 2.46242,-3.30256 3.44403,-2.15552 0.40791,-0.18792 7.00832,-1.67299 1.3763,0.0638 2.89692,0.67868 5.10425,2.2018 3.91962,3.83971 0.0929,0.35213 z m -31.93684,4.27424 -1.98129,3.9207 -3.05676,4.52489 -0.58065,0.66789 -1.39009,0.70241 -5.11556,2.05474 -4.46295,0.22086 -1.10306,-0.0501 -0.62075,-0.17627 -4.02496,-1.99763 -4.81222,-3.59404 -0.0856,-0.0921 -2.81739,-6.54573 -0.1009,-0.36568 -0.1465,-4.8757 0.15878,-0.71582 1.56977,-3.33847 2.86038,-4.28087 1.2666,-1.43986 5.19722,-2.35305 1.09624,-0.43173 4.59892,-0.22601 1.0683,0.0495 0.60645,0.14208 4.17104,2.09676 4.74375,3.56387 2.84768,6.55913 0.12956,0.36433 0.1483,4.85252 z m -32.94704,-11.40375 1.77123,4.09036 0.7002,1.61714 -0.0376,3.66703 -0.1432,0.43546 -1.74819,5.44453 -0.0768,0.15109 -3.54195,3.80454 -6.05556,2.60871 -7.65686,-1.10464 -0.15601,-0.0163 -0.24392,-0.16429 -4.67654,-3.3159 -1.86151,-4.29118 -1.27445,-1.82931 0.26011,-1.09557 -0.089,-2.51943 1.24749,-4.38823 0.0583,-0.61677 0.11636,-0.1578 3.20866,-3.47808 1.9023,-2.16251 0.28181,-0.1276 4.33958,-1.70902 2.8193,-0.13855 2.11732,-0.0175 3.97124,1.79118 0.62677,0.1638 0.33168,0.35279 z m 83.50883,-58.18369 -0.49689,1.48779 -1.0802,3.36416 -0.59021,1.16066 -2.64436,2.84779 -0.81656,0.51698 -4.5025,1.93876 -1.00414,0.0825 -4.32769,-0.62557 -1.78119,-0.18691 -2.78481,-1.87566 -1.83251,-1.29933 -0.72943,-1.68151 -2.60942,-3.74549 0.4699,-1.97918 -0.0402,-0.15527 0.0185,-0.12566 0.55282,-5.84988 1.32849,-1.80152 3.28241,-3.55803 4.64423,-1.42211 0.22088,-0.10922 0.16125,-0.0423 4.03567,-0.0335 0.13018,0.0362 4.19252,1.09568 2.54786,2.70993 1.20079,0.94762 0.55834,1.28938 1.43364,3.31109 -0.0114,1.07222 z m -27.76999,-7.54259 0.33924,0.6233 1.4931,3.38134 0.0357,0.79443 0.51633,2.8648 -0.99945,2.99264 -0.27066,0.84293 -1.10359,2.17023 -1.76904,1.90512 -1.5886,1.00578 -2.98121,1.2837 -1.98923,0.16353 -1.00806,-0.14572 -3.40637,-0.35745 -1.61183,-1.08562 -2.65433,-1.57102 -0.39096,-0.28789 -0.26218,-0.44364 -2.93662,-4.21513 0.31113,-1.31046 -0.31706,-1.22361 0.14594,-0.99035 0.38514,-4.07558 2.54061,-3.44523 1.32782,-1.43932 1.87871,-0.57527 2.14714,-1.06179 1.56754,-0.41186 2.92524,-0.0243 1.26544,0.35183 2.95542,0.77237 2.91055,3.0957 z m -41.51872,10.20865 0.15237,-0.64175 -0.59389,-2.29194 0.27335,-1.85503 0.21748,-2.30127 2.69719,-3.65758 0.2685,-0.55088 0.48109,-0.52674 2.86577,-1.41715 2.97382,-0.78135 1.81481,-0.0151 2.40069,0.66747 1.71833,0.44907 1.69224,1.79988 1.55243,1.18822 0.96786,1.77826 0.90758,2.05533 0.0958,2.13336 0.2589,1.43645 -0.70249,2.10345 -0.32181,1.30584 -0.78387,1.07166 -0.77195,1.51804 -0.8937,0.96246 -2.36065,1.49456 -1.45992,0.62864 -1.32613,0.10902 -1.38882,0.34928 -2.71532,-0.27578 -1.30968,-0.23717 -2.78238,-1.6468 -1.4902,-1.09734 -0.99935,-1.69098 z m -20.016,-3.09229 0.40077,-2.71972 0.0498,-0.52697 0.61763,-0.83755 1.10585,-2.26879 1.98136,-2.16938 1.02598,-0.50736 4.38011,-1.15084 0.70439,-0.006 3.53595,0.9831 0.48123,0.12576 0.47392,0.50408 2.56072,1.95995 1.59649,2.93324 0.32204,0.72931 0.156,3.47228 0.002,0.008 -0.004,0.0118 -0.80525,3.26753 -1.97857,2.70708 -1.07908,0.69785 -2.04638,1.35544 -0.18294,-0.006 -3.1076,0.78154 -1.06166,-0.10783 -2.95502,-0.53511 -1.03062,-0.60999 -2.58942,-1.90677 -1.59018,-2.6907 -0.15413,-0.19188 -1.5e-4,-0.18119 z m -3.18543,6.37581 -2.82523,2.40923 -0.33305,0.22059 -0.76395,-0.0254 -0.81594,-0.1407 -5.44022,-0.85395 -1.65385,-1.19571 -2.05247,-2.33651 -1.8671,-1.83718 -0.0634,-0.29369 -0.1597,-3.53963 -0.0507,-1.16977 0.61153,-1.0944 2.07359,-2.95414 1.53954,-1.70155 2.48876,-1.04041 2.70424,-0.66738 1.65541,0.40509 3.90203,1.22517 1.34756,1.1246 1.75491,2.62776 0.95323,1.73352 -0.57742,6.06569 -0.32769,1.17524 -2.10008,1.86354 m 81.57837,-22.92705 -0.73857,1.16344 -4.54252,2.61625 -0.45602,0.23951 -5.31231,0.0507 -0.48521,-0.2166 -0.28105,-0.11176 -3.96237,-4.69851 -0.0907,-0.1483 -0.10701,-0.66076 0.40792,-5.823077 0.10648,-0.515391 0.13972,-0.162721 1.87384,-2.996108 0.70772,-0.344412 4.07179,-1.714025 0.54193,-0.08658 0.79691,0.240069 5.20055,1.648858 0.31885,0.226458 0.51145,0.465297 1.85374,4.165331 0.27593,0.435555 -0.18721,0.693624 z m -18.75352,1.7411 -0.78941,0.45465 -2.76733,1.49959 -0.30718,0.0691 -4.25381,0.0365 -1.38763,-0.61944 -0.80378,-0.31964 -2.92844,-3.47249 -0.35882,-0.58664 -0.42331,-2.613755 0.10538,-1.504355 0.44277,-2.4592 0.15746,-0.445943 0.78755,-0.917228 1.17525,-1.87913 2.14716,-1.044911 1.97148,-0.8299 1.54986,-0.247606 2.27909,0.686575 1.85686,0.588727 0.96736,0.687051 1.5517,1.411662 0.75684,1.700616 0.79252,1.581847 0.079,0.395648 -0.14667,4.026862 -0.68339,1.01249 z m -23.84056,1.79081 -1.19779,-0.53469 -0.99107,-0.2536 -0.15136,-0.0558 -0.37085,-0.34564 -0.9055,-0.3601 -1.89451,-2.24647 -0.62693,-1.02497 -0.33718,-2.08196 -0.2988,-1.056547 0.0123,-0.353011 0.49387,-2.742995 0.28697,-0.812772 1.43539,-1.671736 0.47667,-0.76215 3.20979,-1.56204 0.27672,-0.154661 0.23684,-0.01691 2.29221,-0.366204 1.88647,0.568297 0.92139,0.208273 0.12275,0.06489 1.46919,0.788749 0.28628,0.248 1.58825,1.761401 0.10456,0.178506 1.15634,2.308023 0.16165,0.809938 -0.10871,3.355909 -0.0853,0.46886 -0.42474,0.6285 -2.06682,3.02586 -0.37627,0.31673 -2.79624,1.51525 -0.56639,0.1274 z m -18.88398,-1.0475 -1.26661,-1.18052 -0.41133,-0.16357 -0.86057,-1.02045 -0.89505,-1.46331 -0.0359,-0.22196 -0.75731,-2.677854 0.0312,-0.894716 0.37759,-2.097179 0.41648,-1.1796 1.69778,-1.977325 0.14292,-0.190694 0.15434,-0.0965 2.97518,-1.68183 0.37037,-0.14834 2.71779,-0.148336 2.31151,0.515726 0.3988,0.210822 1.20523,0.647042 0.60273,0.522131 1.26455,1.402422 0.34813,0.594281 0.9007,1.797774 0.24434,1.22423 -0.0882,2.722436 -0.16467,0.90568 -0.82047,1.21406 -1.42188,2.08166 -0.85277,0.71784 -2.21079,1.198 -0.82562,0.18571 -2.19657,0.0189 -0.30079,0.0165 -2.53419,-0.64256 z m -8.03806,-0.48422 -1.62536,0.88076 -1.08484,0.24402 -1.20024,0.0103 -0.97889,0.11966 -0.58438,-0.0996 -1.89147,-0.48401 -0.88255,-0.32519 -1.99128,-1.8598 -1.24991,-1.78432 -0.11831,-0.36051 -0.66034,-2.335026 0.0502,-1.436418 0.26131,-1.451364 0.546,-1.546429 1.13223,-1.318656 0.45976,-0.670959 0.26608,-0.240071 0.50716,-0.280246 2.18733,-1.23647 0.71933,-0.288103 2.39632,-0.133786 0.3048,0.01166 2.03129,0.45916 0.67483,0.356754 0.94128,0.505333 0.91918,0.796264 0.94086,1.04344 0.59169,1.010056 0.64506,1.287527 0.32703,1.63852 -0.0677,2.088974 -0.2441,1.3425 -1.21619,1.79961 -0.77694,1.13745 z" />
  </g>
</svg>
