<?xml version="1.0" encoding="UTF-8" standalone="no"?>
<svg
   height="841.88977pt"
   viewBox="0 0 532.99998 754.00001"
   width="595.27557pt"
   version="1.1"
   id="svg1"
   sodipodi:docname="chat_234_H30_A4x4.svg"
   inkscape:version="1.3 (0e150ed6c4, 2023-07-21)"
   xmlns:inkscape="http://www.inkscape.org/namespaces/inkscape"
   xmlns:sodipodi="http://sodipodi.sourceforge.net/DTD/sodipodi-0.dtd"
   xmlns="http://www.w3.org/2000/svg"
   xmlns:svg="http://www.w3.org/2000/svg">
  <defs
     id="defs1" />
  <sodipodi:namedview
     id="namedview1"
     pagecolor="#ffffff"
     bordercolor="#000000"
     borderopacity="0.25"
     inkscape:showpageshadow="2"
     inkscape:pageopacity="0.0"
     inkscape:pagecheckerboard="0"
     inkscape:deskcolor="#d1d1d1"
     inkscape:document-units="mm"
     showgrid="false"
     inkscape:zoom="0.62415543"
     inkscape:cx="1616.5845"
     inkscape:cy="555.15018"
     inkscape:window-width="1920"
     inkscape:window-height="1057"
     inkscape:window-x="-8"
     inkscape:window-y="-8"
     inkscape:window-maximized="1"
     inkscape:current-layer="svg1" />
  <style
     type="text/css"
     id="style1"><![CDATA[
			path {
				fill: none;
				stroke-width: 0.15mm;
			}
		]]></style>
  <g
     id="page_001">
    <path
       d="m 436.3,425.8 2,2.2 2.2,-1.7 h -0.4 l -0.9,-0.4 -0.6,-0.7 -0.4,-0.8 0.1,-0.9 0.4,-0.8 0.4,-0.4 0.9,-0.4 h 0.8 l 0.9,0.4 0.6,0.7 0.4,0.9 v 0.4 l -0.2,0.6 m -16.6,39.7 -0.6,-0.3 -0.9,0.3 -0.5,0.4 -0.5,0.8 0.1,1.1 0.7,1.3 0.9,1.2 1,0.8 0.8,0.1 0.9,-0.3 0.2,-0.2 0.6,-0.8 0.1,-0.9 -0.3,-0.9 -0.2,-0.2 -0.8,-0.5 -0.9,-0.1 -0.9,0.3 -0.2,0.2 -0.5,0.8 -0.1,0.8 0.3,0.9 m -42.8,-0.7 -6.9,1.4 m 4.3,-4.7 2.6,3.3 m -120.5,-185.4 -0.5,0.4 -0.6,1.1 -1.8,-6 m -2.7,7.6 2.9,-0.9 -0.5,-2.6 -0.2,0.3 -0.8,0.6 -0.8,0.2 h -1 l -0.7,-0.4 -0.6,-0.8 -0.2,-0.6 0.1,-0.9 0.4,-0.8 0.8,-0.5 0.8,-0.3 1,0.1 0.3,0.2 0.5,0.5 m -17.2,18.4 0.6,0.1 1.3,-0.2 -3.6,5.2 m 6.1,-3.7 -0.9,-0.3 -1,0.4 -1.1,1.1 -0.5,0.7 -0.6,1.4 v 1.1 l 0.6,0.8 0.5,0.3 0.9,0.3 1,-0.4 1.1,-1.1 0.5,-0.8 0.6,-1.4 v -1 l -0.6,-0.8 -0.3,-0.3 m -4.7,135.7 -0.7,0.7 v 0.7 l 0.3,0.5 0.6,0.4 0.7,-0.1 1.2,-0.3 0.9,-0.2 0.8,0.3 0.6,0.3 0.4,0.8 v 0.7 l -0.1,0.4 -0.6,0.7 -1.1,0.6 -0.9,0.2 -0.4,-0.1 -0.6,-0.4 -0.4,-0.8 v -0.7 l 0.2,-0.8 0.6,-0.7 0.9,-0.8 0.4,-0.6 v -0.7 l -0.3,-0.5 -0.6,-0.4 -0.9,0.2 -1.2,0.7 M 449.9,273 l -0.6,-0.4 -1.2,-0.5 5.7,-2.7 m -7.8,-1 5.1,0.9 -2,-4.1 m -3.1,3.2 5.6,-2.8 m -23.2,46.4 0.5,-0.4 0.7,-1.1 1.6,6.1 m 0,-6.8 3.2,-0.8 -1.1,2.7 0.8,-0.2 0.7,0.1 0.4,0.3 0.5,0.7 0.1,0.6 v 1 l -0.4,0.7 -0.8,0.5 -0.9,0.3 -0.9,-0.1 -0.4,-0.2 -0.5,-0.5 m 1.6,36.7 h -0.6 l -1.2,0.5 2.3,-5.8 m -4,5.4 -3,-1.2 2.5,-1.6 -0.8,-0.3 -0.5,-0.5 -0.1,-0.4 v -1 l 0.2,-0.5 0.7,-0.7 0.7,-0.4 1,0.1 0.8,0.3 0.7,0.6 0.2,0.4 0.1,0.7 m 57.2,63.7 -0.5,-0.4 -1.2,-0.4 5.6,-2.8 m -5,1.3 -0.6,-0.4 -1.2,-0.4 5.6,-2.8 m -22.7,12.1 0.7,0.1 1.2,-0.4 -3.1,5.5 m 3.9,-3.6 0.2,-0.2 0.5,-0.4 0.4,-0.1 h 0.7 l 1,0.6 0.4,0.5 0.1,0.5 v 0.6 l -0.3,0.6 -0.5,0.3 -1,0.5 -4.1,1.2 3.7,2 m -254.9,-32.5 -1,-0.2 -0.6,-0.5 -0.4,-0.9 -0.1,-0.3 0.2,-0.9 0.6,-0.7 0.8,-0.4 h 0.3 l 1,0.2 0.6,0.5 0.4,0.9 v 0.3 l -0.2,0.9 -0.5,0.7 -1.1,0.4 -1.5,0.2 -1.6,-0.2 -0.9,-0.5 -0.4,-0.8 -0.1,-0.6 0.2,-1 0.6,-0.3 m 24.3,-57.8 -0.5,0.3 -0.9,0.9 -0.2,-6.3 m -2.8,6.6 0.9,-0.3 0.6,-0.9 0.3,-1.5 -0.1,-0.9 -0.3,-1.5 -0.6,-0.9 -0.9,-0.3 h -0.6 l -0.9,0.4 -0.6,0.9 -0.3,1.5 0.1,0.9 0.3,1.5 0.6,0.9 0.9,0.2 h 0.5 m 34.7,125.3 v -0.9 l -0.4,-0.5 -0.6,-0.2 h -0.6 l -0.5,0.5 -0.7,1 -0.6,0.7 -0.8,0.4 -0.7,0.1 -0.8,-0.4 -0.5,-0.5 -0.2,-0.3 0.1,-1 0.4,-1.1 0.6,-0.8 0.4,-0.1 0.7,-0.1 0.8,0.3 0.5,0.5 0.3,0.8 v 0.9 l -0.2,1.3 0.1,0.6 0.4,0.5 0.6,0.3 0.7,-0.1 0.6,-0.7 0.5,-1.3 m 94.6,19.2 6.9,-0.7 m -4.7,4.3 -2.2,-3.6 M 244,615.9 l 1.6,2.9 -2.9,-0.4 0.4,0.8 v 0.6 l -0.1,0.4 -0.6,0.7 -0.6,0.3 -0.9,0.2 -0.8,-0.3 -0.7,-0.6 -0.4,-0.8 -0.2,-0.9 0.1,-0.4 0.4,-0.6 m 5.7,2.9 0.6,0.4 1.2,0.3 -5.5,3 m 6.7,-128.2 0.6,-0.7 -0.1,-0.7 -0.4,-0.5 -0.6,-0.3 -0.6,0.1 -1.2,0.4 -0.9,0.3 -0.8,-0.1 -0.6,-0.4 -0.5,-0.7 -0.1,-0.7 v -0.4 l 0.6,-0.7 1,-0.7 0.9,-0.3 0.4,0.1 0.6,0.3 0.5,0.7 0.1,0.7 -0.1,0.8 -0.6,0.8 -0.8,0.9 -0.3,0.6 0.1,0.7 0.3,0.5 0.6,0.3 0.9,-0.3 1.1,-0.8 m -4,1.1 -0.3,0.6 -0.2,1.3 -3.6,-5.2 m -44.3,61 -6.6,2.4 m 3.6,-5.4 3,3 m 1.9,1.9 -0.9,-0.5 -0.6,0.3 -0.5,0.4 -0.2,0.6 0.2,0.7 0.7,1 0.4,0.9 v 0.8 l -0.2,0.6 -0.6,0.7 -0.7,0.2 h -0.4 l -0.8,-0.4 -0.9,-0.9 -0.4,-0.8 V 560 l 0.2,-0.7 0.6,-0.6 0.7,-0.2 h 0.8 l 0.9,0.4 1,0.6 0.7,0.2 0.6,-0.2 0.4,-0.4 0.2,-0.6 -0.4,-0.9 -1,-0.9 m 1.5,-34.9 0.2,-7 m 3.6,5.2 -3.8,1.8 m -5.5,0.1 -0.1,-0.9 0.3,-0.8 0.7,-0.7 0.3,-0.1 0.9,-0.1 0.8,0.3 0.7,0.7 0.1,0.3 0.1,0.9 -0.3,0.8 -0.7,0.7 -0.3,0.1 -0.9,0.1 -0.8,-0.3 -0.8,-1 -0.6,-1.4 -0.3,-1.5 0.1,-1 0.7,-0.7 0.6,-0.2 0.9,-0.1 0.6,0.4 m 295.6,131.1 -0.4,-0.5 -1,-0.8 6.2,-1 m -6.3,-3.8 -0.5,0.4 -0.2,1 0.1,0.6 0.5,0.8 0.9,0.4 1.6,0.1 1.5,-0.3 1.1,-0.4 0.5,-0.7 0.1,-1 V 643 l -0.5,-0.8 -0.7,-0.5 -0.9,-0.1 h -0.3 l -0.8,0.4 -0.5,0.7 -0.2,1 0.1,0.3 0.4,0.8 0.7,0.5 1,0.1 m -35.4,50.4 0.3,-0.6 0.2,-1.2 3.7,5.1 m -0.4,-7.8 v 5.1 l 3.7,-2.6 m -3.7,-2.5 3.7,5.1 m -54.4,-5.9 0.6,0.3 1.3,0.2 -5.1,3.7 m 8.4,0.3 -6.9,1.4 m 4.4,-4.8 2.5,3.4 m 65.3,-104.4 -0.4,-0.6 -1,-0.7 6.2,-1 m -6.3,-3.8 -0.5,0.4 -0.2,0.9 0.1,0.6 0.4,0.9 1,0.4 1.5,0.1 1.5,-0.3 1.2,-0.5 0.5,-0.6 0.1,-1 v -0.3 l -0.5,-0.8 -0.7,-0.5 -0.9,-0.2 -0.3,0.1 -0.8,0.4 -0.5,0.7 -0.2,0.9 0.1,0.3 0.4,0.9 0.7,0.5 0.9,0.1 m -47.6,-12.8 -0.5,0.4 -0.7,1.1 -1.4,-6.2 m 0.1,5.2 -0.5,0.5 -0.7,1 -1.4,-6.1 m -170,152.8 -0.9,0.3 -0.4,0.5 v 0.6 l 0.2,0.7 0.6,0.3 1.1,0.4 0.9,0.4 0.5,0.7 0.3,0.6 -0.1,0.9 -0.3,0.5 -0.4,0.3 -0.9,0.2 -1.2,-0.1 -0.9,-0.4 -0.2,-0.3 -0.3,-0.6 0.1,-0.9 0.4,-0.6 0.6,-0.5 0.9,-0.2 1.3,-0.2 0.6,-0.3 0.3,-0.5 0.1,-0.6 -0.2,-0.7 -0.9,-0.3 -1.4,-0.2 m 7.2,0.6 -3.4,3.9 4.5,0.5 m -1.1,-4.4 -0.6,6.3 m -21.4,-38.3 0.1,-1 -0.4,-0.5 -0.5,-0.3 h -0.7 l -0.5,0.4 -0.9,0.9 -0.6,0.7 -0.9,0.2 h -0.6 l -0.8,-0.4 -0.4,-0.6 -0.1,-0.4 0.1,-0.9 0.6,-1.1 0.6,-0.6 0.5,-0.1 h 0.6 l 0.8,0.4 0.4,0.5 0.3,0.8 -0.2,1 -0.3,1.2 v 0.6 l 0.4,0.6 0.5,0.3 h 0.7 l 0.7,-0.7 0.6,-1.2 m -3.5,6.7 1.4,-2.6 -2.3,-1.5 0.2,0.4 -0.2,0.9 -0.4,0.8 -0.7,0.7 -0.8,0.2 -0.9,-0.1 -0.6,-0.3 -0.6,-0.7 -0.3,-0.8 0.2,-0.9 0.4,-0.8 0.7,-0.7 0.4,-0.1 h 0.7 m 191.4,-202.3 0.5,0.4 1,-0.1 0.5,-0.2 0.7,-0.7 0.2,-1.1 -0.4,-1.4 -0.6,-1.4 -0.8,-1 -0.8,-0.3 -0.9,0.1 -0.3,0.2 -0.7,0.6 -0.3,0.8 0.1,1 0.2,0.2 0.6,0.7 0.8,0.3 1,-0.1 0.2,-0.1 0.7,-0.7 0.3,-0.8 -0.1,-0.9 m -9.8,63.3 0.4,-0.5 0.4,-1.2 3,5.5 m -1,-5.2 -0.1,-0.3 v -0.6 l 0.1,-0.5 0.4,-0.5 1,-0.6 h 0.7 l 0.4,0.1 0.6,0.4 0.2,0.5 0.1,0.7 -0.1,1.1 -1.2,4 3.7,-2 m 34,-54.4 0.4,3 2.7,-0.1 -0.3,-0.3 -0.4,-0.8 -0.2,-0.9 0.2,-0.9 0.5,-0.7 0.9,-0.4 0.6,-0.1 0.9,0.1 0.7,0.6 0.4,0.8 0.1,0.9 -0.1,0.9 -0.3,0.4 -0.5,0.3 m -90.6,207.1 -0.3,-0.6 -0.9,-0.9 6.3,-0.1 m -4.5,-5 0.9,0.3 0.6,0.6 0.3,0.9 v 0.3 l -0.3,0.9 -0.6,0.6 -0.9,0.3 h -0.3 l -0.9,-0.3 -0.6,-0.6 -0.3,-0.9 v -0.3 l 0.3,-0.9 0.6,-0.6 1.2,-0.3 h 1.5 l 1.5,0.3 0.9,0.5 0.3,0.9 v 0.6 l -0.3,0.9 -0.6,0.3 m -39.6,25.7 0.6,-0.3 0.9,-0.9 0.1,6.3 m 2.5,-6.6 -0.9,0.3 -0.3,0.6 v 0.6 l 0.4,0.6 0.6,0.3 1.2,0.2 0.9,0.3 0.6,0.6 0.3,0.6 0.1,0.9 -0.3,0.6 -0.3,0.3 -0.9,0.3 -1.2,0.1 -0.9,-0.3 -0.3,-0.3 -0.3,-0.6 -0.1,-0.9 0.3,-0.6 0.6,-0.6 0.9,-0.3 1.2,-0.4 0.6,-0.3 0.2,-0.6 v -0.6 l -0.3,-0.6 -0.9,-0.3 -1.3,0.1 m 102,-551.2 -0.7,0.2 -1,0.7 1.1,-6.2 m -5.7,3.4 0.4,-0.8 0.7,-0.5 1,-0.1 0.3,0.1 0.8,0.4 0.5,0.7 0.1,0.9 v 0.3 l -0.5,0.9 -0.7,0.5 -0.9,0.1 -0.3,-0.1 -0.9,-0.4 -0.4,-0.7 -0.1,-1.3 0.2,-1.4 0.6,-1.5 0.8,-0.7 0.9,-0.2 0.6,0.1 0.8,0.5 0.2,0.6 m 0.6,26.9 0.2,-0.6 -0.1,-1.3 4.7,4.2 m -1.4,-8.2 2.7,6.4 m -5.5,-3.3 2.8,-3.1 m -152,26.9 0.3,0.5 1,0.9 -6.3,0.3 m 6.7,4.4 -0.1,-3 -2.7,-0.1 0.3,0.2 0.3,0.9 0.1,0.9 -0.3,0.9 -0.5,0.7 -0.9,0.3 -0.6,0.1 -0.9,-0.3 -0.7,-0.6 -0.3,-0.8 -0.1,-0.9 0.3,-1 0.3,-0.3 0.6,-0.3 m 94.1,-84.3 -0.5,-0.3 -1.3,-0.3 5.2,-3.5 m -6.9,1.5 0.8,0.6 0.6,-0.1 0.5,-0.4 0.4,-0.6 -0.1,-0.6 -0.5,-1.2 -0.2,-0.9 0.1,-0.8 0.3,-0.6 0.8,-0.5 0.6,-0.1 h 0.5 l 0.7,0.6 0.7,1 0.3,0.9 -0.1,0.4 -0.3,0.6 -0.8,0.5 -0.6,0.1 -0.9,-0.1 -0.7,-0.6 -1,-0.8 -0.5,-0.3 -0.7,0.1 -0.5,0.3 -0.3,0.6 0.2,0.9 0.8,1.1 m -89.7,-19 -0.9,-0.3 -0.6,-0.6 -0.3,-0.9 v -0.3 l 0.3,-0.9 0.6,-0.6 0.9,-0.3 h 0.3 l 0.9,0.3 0.6,0.6 0.3,0.9 v 0.3 l -0.3,0.9 -0.6,0.6 -1.2,0.3 h -1.5 l -1.5,-0.3 -0.9,-0.6 -0.3,-0.9 v -0.6 l 0.3,-0.9 0.6,-0.3 m 15.6,-63.6 0.7,-0.6 0.1,-0.7 -0.3,-0.5 -0.5,-0.5 h -0.7 l -1.2,0.2 -0.9,0.1 -0.8,-0.2 -0.6,-0.5 -0.3,-0.8 v -0.7 l 0.1,-0.4 0.7,-0.6 1.1,-0.5 1,-0.1 0.4,0.1 0.5,0.5 0.4,0.8 -0.1,0.7 -0.3,0.8 -0.6,0.6 -1,0.8 -0.4,0.5 -0.1,0.7 0.3,0.5 0.5,0.4 1,-0.1 1.2,-0.5 m -4.2,0.3 -0.4,0.5 -0.4,1.2 -2.6,-5.7 m 65.5,-12.8 0.8,-0.5 0.1,-0.7 -0.2,-0.6 -0.4,-0.5 -0.7,-0.1 h -1.2 l -0.9,-0.1 -0.8,-0.4 -0.4,-0.5 -0.2,-0.9 0.1,-0.6 0.2,-0.4 0.8,-0.5 1.2,-0.3 0.9,0.1 0.4,0.2 0.4,0.5 0.3,0.8 -0.2,0.7 -0.4,0.7 -0.8,0.5 -1.1,0.6 -0.5,0.5 -0.1,0.6 0.1,0.6 0.5,0.5 0.9,0.1 1.3,-0.4 m -5.6,1.5 0.8,-0.5 0.3,-1 v -1.6 l -0.3,-0.8 -0.6,-1.4 -0.8,-0.7 -1,-0.1 -0.6,0.2 -0.8,0.5 -0.3,1 0.1,1.5 0.2,0.9 0.7,1.4 0.8,0.7 0.9,0.1 0.4,-0.2 m 88.3,19.8 0.9,0.3 0.6,-0.3 0.3,-0.5 0.1,-0.7 -0.3,-0.6 -0.7,-0.9 -0.6,-0.8 -0.1,-0.9 0.1,-0.6 0.5,-0.7 0.6,-0.3 0.5,-0.1 0.9,0.3 0.9,0.7 0.6,0.8 v 0.4 l -0.1,0.7 -0.5,0.7 -0.6,0.3 -0.9,0.1 -0.9,-0.3 -1.1,-0.5 -0.7,-0.1 -0.6,0.3 -0.3,0.5 -0.1,0.7 0.5,0.7 1.1,0.8 m -2.7,-3.9 -0.2,0.3 -0.6,0.3 h -0.4 l -0.7,-0.1 -1,-0.7 -0.3,-0.6 v -0.4 l 0.1,-0.7 0.4,-0.5 0.6,-0.3 1,-0.3 4.2,-0.6 -3.4,-2.5 m 17.7,64.5 -0.2,0.9 0.3,0.6 0.5,0.3 0.7,0.1 0.6,-0.4 0.9,-0.8 0.7,-0.6 0.8,-0.2 h 0.7 l 0.7,0.5 0.4,0.6 0.1,0.4 -0.2,0.9 -0.7,1 -0.7,0.6 -0.4,0.1 h -0.7 l -0.7,-0.5 -0.4,-0.6 -0.2,-0.8 0.2,-0.9 0.4,-1.2 0.1,-0.7 -0.4,-0.5 -0.5,-0.4 h -0.6 l -0.8,0.6 -0.7,1.1 m 4.8,-5.9 -0.7,-0.1 -0.7,0.6 -0.3,0.5 -0.2,0.9 0.4,1 1.1,1.1 1.3,0.8 1.2,0.3 0.8,-0.2 0.7,-0.6 0.2,-0.2 0.2,-0.9 -0.2,-0.9 -0.6,-0.7 -0.2,-0.2 -1,-0.2 -0.8,0.2 -0.7,0.6 -0.2,0.3 -0.2,0.9 0.2,0.8 0.6,0.8 m -57.7,4.2 -0.9,-0.2 -0.6,0.4 -0.2,0.5 -0.1,0.7 0.4,0.5 0.9,0.9 0.7,0.7 0.2,0.8 v 0.6 l -0.4,0.8 -0.6,0.4 -0.4,0.1 -0.9,-0.1 -1,-0.6 -0.7,-0.7 -0.1,-0.4 v -0.7 l 0.4,-0.7 0.6,-0.4 0.8,-0.3 0.9,0.2 1.2,0.3 h 0.7 l 0.5,-0.4 0.3,-0.5 v -0.7 l -0.6,-0.7 -1.2,-0.6 m 6.3,3.3 -4.6,2.3 4,2.1 m 0.6,-4.4 -3,5.6 m -172.7,143.5 0.3,-0.6 0.1,-1.3 3.9,5.1 m -1.6,-7 -0.6,0.8 0.1,1 0.7,1.4 0.5,0.7 1.2,1 1,0.4 0.9,-0.3 0.5,-0.4 0.5,-0.8 -0.1,-1 -0.7,-1.4 -0.5,-0.7 -1.1,-1 -1.1,-0.4 -0.9,0.3 -0.3,0.3 m 4.1,-3.2 -0.5,0.8 v 1.1 l 0.7,1.4 0.6,0.7 1.1,1 1,0.4 0.9,-0.4 0.5,-0.3 0.5,-0.8 v -1.1 l -0.7,-1.4 -0.5,-0.7 -1.2,-1 -1,-0.3 -0.9,0.3 -0.4,0.2 M 210,125 l 0.9,-0.2 0.8,0.2 0.8,0.6 0.1,0.2 0.3,0.9 -0.2,0.9 -0.6,0.7 -0.2,0.2 -1,0.2 -0.8,-0.2 -0.7,-0.6 -0.2,-0.2 -0.2,-0.9 0.1,-0.9 0.9,-0.9 1.3,-0.8 1.4,-0.5 h 1.1 l 0.7,0.6 0.3,0.5 0.3,0.9 -0.4,0.6 m -9.3,-4.5 6.9,-0.9 m -4.6,4.4 -2.3,-3.5 m -29.3,2.3 -0.9,0.3 h -0.8 l -0.8,-0.5 -0.2,-0.3 -0.4,-0.9 0.1,-0.8 0.5,-0.8 0.3,-0.2 0.8,-0.3 h 0.9 l 0.8,0.5 0.2,0.3 0.3,0.9 -0.1,0.8 -0.7,1 -1.1,1 -1.4,0.7 -1.1,0.1 -0.8,-0.5 -0.4,-0.5 -0.3,-0.9 0.3,-0.6 m 8,4.6 -0.9,0.3 h -0.8 l -0.8,-0.6 -0.2,-0.2 -0.3,-0.9 v -0.8 l 0.5,-0.8 0.3,-0.2 0.9,-0.3 h 0.8 l 0.8,0.5 0.2,0.3 0.3,0.9 v 0.8 l -0.8,1 -1.1,0.9 -1.4,0.8 -1.1,0.1 -0.8,-0.5 -0.3,-0.5 -0.4,-0.9 0.3,-0.6 m 93.8,58.1 -0.3,-0.6 -0.8,-0.9 6.3,0.1 m -6.5,-3.1 0.3,0.9 0.9,0.6 1.5,0.4 h 0.9 l 1.5,-0.3 0.9,-0.6 0.3,-0.9 v -0.6 l -0.3,-0.9 -0.9,-0.6 -1.5,-0.3 h -0.9 l -1.5,0.2 -0.9,0.6 -0.3,0.9 v 0.5 m 1.4,-3.3 -0.3,-0.6 -0.9,-0.9 h 6.3 m -63.9,88.7 0.6,-0.1 1.2,-0.5 -2.1,5.9 m 4.9,-5.1 h -0.9 l -0.9,0.6 -0.8,1.3 -0.3,0.9 -0.2,1.5 0.3,1 0.7,0.6 0.6,0.2 0.9,0.1 0.9,-0.7 0.8,-1.3 0.3,-0.8 0.2,-1.6 -0.2,-1 -0.8,-0.6 -0.4,-0.1 m 3.7,1.3 3.1,1.1 -2.5,1.7 0.9,0.3 0.4,0.5 0.2,0.4 v 0.9 l -0.2,0.6 -0.6,0.7 -0.8,0.4 -0.9,-0.1 -0.9,-0.3 -0.7,-0.5 -0.2,-0.4 -0.1,-0.7 M 162.2,143 l 0.7,-0.6 0.8,-0.2 1,0.2 0.2,0.2 0.6,0.7 0.2,0.8 -0.2,0.9 -0.2,0.3 -0.7,0.6 -0.8,0.2 -0.9,-0.2 -0.3,-0.2 -0.6,-0.7 -0.2,-0.9 0.4,-1.1 0.8,-1.3 1,-1.1 1,-0.5 0.9,0.3 0.5,0.3 0.7,0.7 -0.1,0.7 m -9.1,-1.8 0.7,-0.6 0.9,-0.2 0.9,0.2 0.2,0.2 0.6,0.7 0.2,0.8 -0.2,1 -0.1,0.2 -0.8,0.6 -0.8,0.2 -0.9,-0.2 -0.3,-0.2 -0.6,-0.7 -0.2,-0.8 0.4,-1.2 0.8,-1.3 1.1,-1.1 0.9,-0.4 1,0.2 0.5,0.3 0.6,0.7 -0.1,0.7 m 13.1,-69.5 v 0.6 l 0.3,1.3 -5.5,-3.2 m 4.2,5.8 0.2,-0.9 -0.5,-1 -1.1,-1 -0.8,-0.4 -1.4,-0.5 -1.1,0.1 -0.7,0.6 -0.3,0.5 -0.2,0.9 0.5,1 1.1,1 0.8,0.5 1.4,0.5 1.1,-0.1 0.7,-0.7 0.3,-0.3 m -3.3,5.7 -2.1,-4.7 -2.2,3.9 m 4.3,0.8 -5.4,-3.2 m 48.4,-22 0.5,-0.8 0.7,-0.5 0.9,-0.1 h 0.3 l 0.8,0.5 0.5,0.7 0.1,0.9 v 0.3 l -0.5,0.9 -0.7,0.4 -0.9,0.2 -0.3,-0.1 -0.8,-0.5 -0.5,-0.7 -0.1,-1.2 0.3,-1.5 0.6,-1.4 0.7,-0.8 1,-0.1 0.5,0.1 0.9,0.5 0.2,0.6 m -7.2,4.2 1,-0.1 0.4,-0.6 0.1,-0.6 -0.2,-0.6 -0.5,-0.4 -1.2,-0.5 -0.8,-0.5 -0.5,-0.7 -0.2,-0.6 0.2,-0.9 0.4,-0.6 0.4,-0.2 0.9,-0.1 1.2,0.2 0.8,0.5 0.3,0.3 0.1,0.6 -0.1,0.9 -0.4,0.6 -0.7,0.4 -1,0.2 h -1.2 l -0.7,0.2 -0.4,0.6 -0.1,0.6 0.2,0.6 0.8,0.5 1.4,0.2 m 5.2,13.9 0.4,0.9 -0.1,0.8 -0.5,0.8 -0.2,0.2 -0.9,0.4 -0.9,-0.1 -0.8,-0.5 -0.2,-0.2 -0.3,-0.9 0.1,-0.9 0.5,-0.8 0.2,-0.2 0.9,-0.3 0.8,0.1 1,0.7 1,1.2 0.7,1.3 0.1,1.1 -0.5,0.8 -0.4,0.4 -0.9,0.3 -0.6,-0.3 m 3.3,-9.7 1.7,6.7 m -5,-4.1 3.3,-2.6 m 9.4,48 -0.9,-0.1 -0.8,-0.4 -0.5,-0.8 -0.1,-0.3 0.1,-0.9 0.4,-0.8 0.8,-0.5 0.3,-0.1 1,0.1 0.7,0.4 0.5,0.8 0.1,0.3 -0.1,1 -0.4,0.7 -1.1,0.6 -1.4,0.4 -1.6,0.1 -1,-0.4 -0.5,-0.8 -0.1,-0.6 v -0.9 l 0.5,-0.5 m 6.8,4.7 -0.5,-0.8 -0.6,-0.1 -0.6,0.1 -0.5,0.5 -0.2,0.6 0.1,1.3 -0.1,0.9 -0.4,0.7 -0.5,0.5 -0.9,0.2 -0.7,-0.1 -0.3,-0.2 -0.6,-0.8 -0.3,-1.2 0.1,-0.9 0.2,-0.4 0.5,-0.4 0.9,-0.3 0.6,0.2 0.8,0.4 0.5,0.8 0.6,1.1 0.4,0.5 0.7,0.1 0.6,-0.1 0.5,-0.5 v -0.9 l -0.3,-1.3 m 38.1,-25.2 -0.2,-0.6 -0.9,-0.9 6.3,0.3 m -6.4,-3.3 0.3,0.9 0.9,0.7 1.4,0.3 0.9,0.1 1.6,-0.3 0.9,-0.5 0.3,-0.9 v -0.6 l -0.2,-0.9 -0.9,-0.6 -1.5,-0.4 h -0.9 l -1.5,0.2 -0.9,0.5 -0.4,0.9 v 0.5 m 0.3,-7 -0.1,3 2.7,0.4 -0.3,-0.3 -0.3,-0.9 0.1,-0.9 0.3,-0.9 0.6,-0.6 0.9,-0.2 h 0.6 l 0.9,0.3 0.6,0.7 0.3,0.9 -0.1,0.9 -0.3,0.9 -0.3,0.2 -0.6,0.3 m -18.4,-5.9 -0.5,0.5 -0.4,1.2 -2.4,-5.9 m -0.3,7.2 0.7,-0.6 0.2,-1.1 -0.3,-1.5 -0.3,-0.8 -0.8,-1.3 -0.9,-0.6 h -1 l -0.5,0.3 -0.8,0.6 -0.2,1 0.3,1.6 0.4,0.8 0.8,1.3 0.9,0.6 0.9,-0.1 0.5,-0.2 m -6.1,2.6 1.2,-5.1 -4.1,1.7 m 2.9,3.4 -2.4,-5.9 m -106.2,60.8 0.1,0.7 0.7,1.1 -6.1,-1.6 m 5.6,4.5 -0.1,-0.9 -0.7,-0.8 -1.4,-0.7 -0.9,-0.2 -1.5,-0.1 -1,0.3 -0.5,0.8 -0.2,0.6 0.1,1 0.7,0.8 1.4,0.6 0.8,0.3 h 1.6 l 1,-0.3 0.5,-0.8 0.1,-0.5 m -1.7,6.8 0.7,-2.9 -2.5,-1 0.2,0.4 0.1,1 -0.3,0.8 -0.5,0.8 -0.7,0.5 h -1 l -0.5,-0.1 -0.8,-0.5 -0.5,-0.8 v -0.9 l 0.2,-0.9 0.5,-0.8 0.4,-0.2 0.6,-0.1 m 54.4,188.4 1.6,4.9 2.7,-3.7 m -4.3,-1.2 5.1,3.7 m -2,-5.4 -0.3,-0.1 -0.3,-0.6 v -0.5 l 0.1,-0.6 0.7,-1 0.5,-0.3 0.5,-0.1 0.6,0.1 0.5,0.4 0.3,0.6 0.4,1 0.7,4.2 2.5,-3.5 m 9.1,-37.6 -0.6,-0.3 -1.2,-0.2 5,-3.8 m -7,1.5 0.8,0.6 1.1,-0.1 1.4,-0.6 0.7,-0.6 1,-1.1 0.4,-1 -0.3,-0.9 -0.3,-0.5 -0.8,-0.5 h -1.1 l -1.4,0.6 -0.7,0.6 -1,1.1 -0.4,1 0.3,0.9 0.2,0.4 m -2.3,-3.2 -2,-2.7 3,0.1 -0.5,-0.8 -0.1,-0.6 v -0.4 l 0.6,-0.8 0.5,-0.4 0.9,-0.3 0.8,0.2 0.8,0.5 0.5,0.7 0.3,0.9 v 0.4 l -0.4,0.6 m -72.7,-54.8 0.3,0.6 0.9,0.9 h -6.3 m 6.6,3 -0.3,-0.9 -0.9,-0.6 -1.5,-0.3 h -0.9 l -1.5,0.3 -0.9,0.6 -0.3,0.9 v 0.6 l 0.3,0.9 0.9,0.6 1.5,0.3 h 0.9 l 1.5,-0.3 0.9,-0.6 0.3,-0.9 v -0.5 m -1.4,3.3 0.3,0.6 0.9,0.9 h -6.3 m 11.8,108.2 h 0.7 l 1.2,-0.5 -2.7,5.7 m 5.5,-4.6 -1,-0.1 -0.9,0.5 -0.9,1.3 -0.4,0.8 -0.3,1.5 0.1,1 0.7,0.7 0.6,0.2 0.9,0.2 0.9,-0.6 0.9,-1.2 0.4,-0.9 0.4,-1.4 -0.2,-1.1 -0.7,-0.7 -0.4,-0.2 m 6,3.8 v -0.6 l -0.7,-0.7 -0.6,-0.2 -0.9,-0.2 -0.9,0.6 -1,1.2 -0.6,1.4 -0.2,1.2 0.3,0.8 0.7,0.7 0.2,0.1 1,0.1 0.8,-0.3 0.6,-0.7 0.1,-0.3 0.2,-0.9 -0.3,-0.8 -0.7,-0.6 -0.3,-0.2 -0.9,-0.1 -0.8,0.3 -0.7,0.7 m -17.4,-32.4 0.1,0.7 0.5,1.1 -5.9,-2.2 m 5.1,5.1 v -1 l -0.6,-0.9 -1.3,-0.8 -0.9,-0.3 -1.5,-0.2 -1,0.2 -0.6,0.8 -0.2,0.5 -0.1,1 0.7,0.9 1.3,0.8 0.8,0.3 1.5,0.2 1.1,-0.2 0.6,-0.8 0.1,-0.4 m -2.8,3.2 0.3,0.1 0.5,0.4 0.2,0.4 v 0.7 l -0.4,1.1 -0.5,0.5 -0.4,0.2 h -0.6 l -0.6,-0.2 -0.5,-0.5 -0.6,-0.9 -1.7,-3.8 -1.5,3.9"
       id="nums_001"
       stroke="#000000"
       style="stroke-width:1.01549;stroke-dasharray:none" />
    <path
       d="m 434.3,225.7 39.8,81.1 -80.2,21.6 77.2,30.7 47.2,92.9 -96.9,-53.9 43.2,45.6 -70.3,54.9 -39.2,-52.3 33.8,55.9 80.9,-37.4 9,62.2 -97.2,53.2 101.5,-23.3 9.3,57.9 9.6,57.8 -73.4,52.7 -41.3,-55.4 1,64.2 -77.8,2.3 -92.3,-8.7 37.9,-72.6 -34.2,-62.5 -62.6,-62.2 70.6,-31.5 20.7,-14.6 21.5,-56.3 -52.6,29.4 -14.4,-132 60.1,-1.7 -49.7,-33.8 81.2,-24.2 -4.5,-84.6 0.5,-132.8 23,-10.5 L 411,13 495.9,76.5 454.8,142.4 373,98.6 l 44.3,64 63.1,11.6 z m -215.6,75.1 -49.3,69 -59.4,-27.9 13.2,-35.3 -0.4,-141.4 12,-46.6 59.6,37.3 -44.8,-54.2 33.8,-58.7 62.3,11.7 -48,39.9 33.8,52.4 -16.2,-61.3 62.7,-25.6 -2.1,48.1 -1.4,141.4 -40.8,31.1 -40.6,-14.7 z"
       id="coupes_001"
       stroke="#ff0000"
       style="stroke-width:1.26936"
       sodipodi:nodetypes="ccccccccccccccccccccccccccccccccccccccccccccccccccccccccccccc" />
    <path
       d="m 464.6,443.7 -109.5,2.6 m 0,0 38.8,-117.9 m 0,0 27.5,69.7 m -156.2,-74.4 128.7,4.7 M 355.1,446.3 265.2,323.7 m 0,0 31.5,-58 m 0,0 97.2,62.7 M 272.1,428 265.2,323.7 m 89.9,122.6 -83,-18.3 m 24.6,-162.3 137.6,-40 m 0,0 -40.4,102.7 m 77.2,30.7 -49.7,39 m -66.3,48.2 -104.5,38 m 138.3,17.9 -167,90.4 m 0,0 28.7,-108.3 m 138.3,17.9 -7.3,78 m 0,0 -159.7,12.4 m 159.7,-12.4 -125.5,74.9 m 131.2,14.8 -131.2,-14.8 m 236.3,-40.3 -105.1,55.1 m -5.7,-89.7 110.8,34.6 m -22.6,-150 -88.2,115.4 M 296.7,265.7 417.3,162.6 m 0,0 17,63.1 M 292.2,181.1 417.3,162.6 M 292.2,181.1 373,98.6 M 411,13 373,98.6 M 495.9,76.5 373,98.6 m -178.6,57.3 80.1,93.7 m -40.8,31.1 -39.3,-124.8 m 37.1,-8.9 43,102.6 m -80.1,-93.7 3.3,-61.3 m -48.1,7.1 48.1,-7.1 M 193.1,266 194.4,155.9 M 193.1,266 134.8,118.6 M 183.4,43 197.7,94.6 m 17.6,-8.9 60.6,22.5 M 193.1,266 122.8,165.2 M 193.1,266 169.4,369.8 m 0,0 -46.6,-204.6"
       id="plisM_001"
       stroke="#a52a2a"
       stroke-dasharray="4" />
    <path
       d="m 355.1,446.3 66.3,-48.2 M 219.5,457.4 265.2,323.7 M 388.9,502.2 250.6,484.3 m -28.7,108.3 8,-93.7 m 151.7,81.3 5.7,89.7 m 114.7,2.7 -114.7,-2.7 m 0,0 -76.8,66.5 m 0,0 -54.4,-81.3 M 292.7,48.3 373,98.6 M 315.7,37.8 373,98.6 m -178.6,57.3 37.1,-8.9 m 0,0 44.4,-38.8 M 169.4,369.8 123.2,306.6"
       id="plisV_001"
       stroke="#008000"
       stroke-dasharray="4, 1, 1, 1" />
    <path
       d="m 386.2,420.2 4,4 m 0,-4 -4,4 m -145.9,-35.6 4,4 m 0,-4 -4,4 m 77.4,98.7 4,4 m 0,-4 -4,4 m -93.8,48.5 4,4 m 0,-4 -4,4 m 158.5,75.3 4,4 m 0,-4 -4,4 m 60.2,42.2 4,4 m 0,-4 -4,4 m -95.7,27.8 4,4 m 0,-4 -4,4 m -65.6,-11.4 4,4 m 0,-4 -4,4 m 49.5,-626.3 4,4 m 0,-4 -4,4 m 11.5,-9.2 4,4 m 0,-4 -4,4 m -131.4,79.2 4,4 m 0,-4 -4,4 m 40.8,-27.8 4,4 m 0,-4 -4,4 m -107.4,206.6 4,4 m 0,-4 -4,4"
       id="marqueV_001"
       stroke="#008000" />
    <path
       d="m 387.8,382.1 1.5,-0.8 2.3,-2.2 v 15.7"
       id="titre_1"
       stroke="#4b0082" />
    <path
       d="m 169.6,171.5 v -0.7 l 0.7,-1.5 0.8,-0.8 1.5,-0.7 h 3 l 1.5,0.7 0.7,0.8 0.8,1.5 v 1.5 l -0.8,1.5 -1.5,2.2 -7.5,7.5 h 10.5"
       id="titre_2"
       stroke="#4b0082" />
  </g>
  <g
     id="page_002">
    <path
       d="m 719,577.4 -1.8,6.7 m -2.4,-5.9 4.2,-0.8 m 5.1,-0.9 -1.8,6.7 m -2.3,-6 4.1,-0.7 m -20.2,-114.2 -5.4,-4.5 m 6.4,0.5 -1,4 m -0.7,2.6 -0.1,-1 -0.5,-0.4 -0.6,-0.2 -0.6,0.2 -0.5,0.5 -0.6,1.1 -0.5,0.8 -0.7,0.4 -0.7,0.1 -0.8,-0.2 -0.6,-0.5 -0.2,-0.3 v -1 l 0.3,-1.1 0.5,-0.8 0.4,-0.2 0.6,-0.2 0.9,0.3 0.5,0.4 0.4,0.7 0.1,1 v 1.2 l 0.1,0.7 0.5,0.4 0.6,0.2 0.6,-0.2 0.6,-0.8 0.3,-1.3 m 87.2,-8 -1.9,-2.7 h 3 l -0.5,-0.7 -0.1,-0.6 v -0.5 l 0.6,-0.7 0.5,-0.4 0.9,-0.3 0.8,0.2 0.8,0.5 0.5,0.7 0.3,1 -0.1,0.4 -0.3,0.6 m -9.1,-3.9 h 5.1 l -2.6,-3.7 m -2.5,3.7 5.1,-3.7 m -99.6,-66 1.9,2.8 -3,-0.2 0.5,0.8 0.1,0.6 -0.1,0.4 -0.6,0.8 -0.5,0.3 -0.9,0.3 -0.8,-0.2 -0.8,-0.6 -0.5,-0.7 -0.2,-0.9 v -0.4 l 0.4,-0.6 m 6,2.3 0.6,0.3 1.2,0.3 -5.2,3.5 m 42.8,-33.5 -1.3,-3 2.9,0.7 -0.4,-0.9 0.1,-0.6 0.1,-0.4 0.7,-0.7 0.6,-0.2 0.9,-0.1 0.8,0.3 0.7,0.7 0.3,0.8 0.1,1 -0.2,0.4 -0.4,0.5 m -7.4,-4.2 0.6,0.7 h 0.7 l 0.6,-0.2 0.4,-0.5 v -0.7 l -0.2,-1.2 -0.1,-1 0.3,-0.8 0.5,-0.5 0.8,-0.3 h 0.7 l 0.3,0.1 0.7,0.7 0.5,1.1 0.1,1 -0.2,0.4 -0.4,0.5 -0.9,0.4 -0.6,-0.1 -0.8,-0.3 -0.7,-0.7 -0.7,-1 -0.5,-0.4 h -0.7 l -0.5,0.2 -0.5,0.5 0.1,1 0.6,1.2 m -81.9,-31.9 -0.7,-0.5 -0.7,0.1 -0.5,0.3 -0.3,0.6 0.1,0.7 0.5,1.1 0.2,0.9 -0.1,0.9 -0.3,0.6 -0.8,0.5 -0.6,0.1 -0.4,-0.1 -0.8,-0.5 -0.7,-1 -0.3,-0.9 0.1,-0.4 0.3,-0.6 0.7,-0.6 0.7,-0.1 0.8,0.2 0.8,0.5 0.9,0.8 0.6,0.3 0.7,-0.1 0.5,-0.3 0.3,-0.6 -0.3,-0.9 -0.8,-1.1 m 4.4,6.2 -1.7,-2.5 -2.4,1.3 0.4,0.1 0.8,0.6 0.5,0.7 0.3,0.9 -0.1,0.9 -0.6,0.7 -0.5,0.4 -0.9,0.2 -0.8,-0.1 -0.8,-0.6 -0.5,-0.7 -0.3,-0.9 0.1,-0.4 0.3,-0.6 m -45.1,-70.7 -0.7,-0.6 -0.7,0.2 -0.5,0.3 -0.3,0.6 0.1,0.7 0.5,1.1 0.3,0.9 -0.1,0.9 -0.3,0.6 -0.8,0.5 -0.6,0.1 -0.5,-0.1 -0.7,-0.5 -0.7,-1 -0.3,-0.9 v -0.4 l 0.3,-0.6 0.8,-0.5 0.6,-0.1 0.9,0.1 0.7,0.5 1,0.8 0.6,0.3 0.6,-0.1 0.5,-0.3 0.3,-0.6 -0.3,-0.9 -0.8,-1.1 m 3.8,6.6 0.3,-0.6 -0.3,-0.9 -0.3,-0.5 -0.8,-0.5 h -1.1 l -1.4,0.7 -1.2,0.9 -0.8,0.9 -0.1,0.9 0.3,0.9 0.2,0.2 0.8,0.6 0.8,0.1 0.9,-0.3 0.3,-0.2 0.5,-0.8 0.1,-0.8 -0.3,-0.9 -0.1,-0.2 -0.8,-0.6 -0.9,-0.1 -0.9,0.3 m 55.5,-104.6 -0.6,-0.3 -1.3,-0.1 4.8,-4.1 m -6.9,2 0.9,0.5 1,-0.1 1.4,-0.8 0.6,-0.5 1,-1.3 0.3,-1 -0.4,-0.9 -0.4,-0.4 -0.8,-0.5 -1.1,0.1 -1.3,0.8 -0.7,0.6 -0.9,1.2 -0.3,1 0.3,0.9 0.3,0.3 m -3.9,-5.9 -0.2,0.7 0.4,0.8 0.3,0.5 0.9,0.5 1,-0.2 1.4,-0.7 1.1,-1 0.7,-1 0.1,-0.8 -0.4,-0.9 -0.2,-0.3 -0.8,-0.4 -0.8,-0.1 -0.9,0.4 -0.2,0.2 -0.5,0.8 -0.1,0.8 0.4,0.9 0.2,0.2 0.8,0.5 0.8,0.1 0.9,-0.4 m -78.9,27.3 -0.5,-0.9 -0.6,-0.2 -0.6,0.1 -0.5,0.4 -0.3,0.6 -0.1,1.3 -0.1,0.9 -0.5,0.7 -0.6,0.4 -0.9,0.1 -0.6,-0.2 -0.4,-0.3 -0.4,-0.8 -0.2,-1.2 0.2,-0.9 0.2,-0.4 0.6,-0.4 0.9,-0.1 0.6,0.2 0.7,0.5 0.4,0.9 0.5,1.1 0.4,0.5 0.6,0.3 0.6,-0.1 0.6,-0.4 0.1,-1 -0.2,-1.3 m 0.7,4.5 0.5,3.3 -2.6,-1.4 0.1,0.9 -0.2,0.6 -0.2,0.4 -0.9,0.4 -0.6,0.1 -0.9,-0.2 -0.7,-0.5 -0.4,-0.8 -0.2,-0.9 0.2,-1 0.2,-0.3 0.6,-0.4 m 74.9,-156.8 -0.6,0.2 -1.1,0.7 1.1,-6.2 m -1.9,4.8 -0.7,0.2 -1,0.8 1.1,-6.2 m -1.9,4.8 -0.7,0.2 -1,0.7 1,-6.2 m -79,58.2 0.3,0.5 1,0.8 -6.2,0.7 m 5.1,1.1 h 0.3 l 0.7,0.2 0.3,0.3 0.3,0.6 0.2,1.2 -0.3,0.6 -0.2,0.3 -0.6,0.4 h -0.6 l -0.6,-0.2 -1,-0.5 -3.3,-2.6 0.5,4.1 m 6.6,2.3 -0.4,-0.9 -1,-0.5 -1.5,-0.1 -0.9,0.1 -1.5,0.4 -0.8,0.7 -0.2,1 0.1,0.6 0.3,0.8 1,0.5 1.5,0.2 0.9,-0.1 1.5,-0.5 0.8,-0.7 0.2,-0.9 v -0.5 m 24.4,-57.7 -0.5,0.5 -0.4,1.2 -2.5,-5.8 m 1,5.1 -0.4,0.5 -0.5,1.2 -2.5,-5.8 m -1.3,7.8 1.1,-5.1 -4.2,1.8 m 3.1,3.3 -2.5,-5.8 m 94.8,23.1 4.7,2.1 -0.9,-4.4 m -3.8,2.3 6.2,-1.3 m -7,-3.1 0.4,0.9 1,0.4 h 1.6 l 0.8,-0.2 1.5,-0.6 0.7,-0.8 0.1,-0.9 -0.1,-0.6 -0.5,-0.8 -1,-0.4 h -1.5 l -0.9,0.2 -1.4,0.5 -0.8,0.8 -0.1,1 0.1,0.4 m -0.3,54.2 -0.1,-0.6 -0.7,-1.1 6.1,1.4 m -5.7,-4.3 0.1,0.9 0.8,0.8 1.4,0.6 0.9,0.2 1.5,0.1 1,-0.4 0.5,-0.8 0.1,-0.6 -0.1,-1 -0.7,-0.8 -1.4,-0.6 -0.9,-0.2 h -1.5 l -1,0.4 -0.5,0.8 -0.1,0.4 m 1.1,-5 0.1,0.9 0.7,0.8 1.4,0.6 0.9,0.2 h 1.6 l 1,-0.3 0.5,-0.9 0.1,-0.5 -0.1,-1 -0.8,-0.8 -1.4,-0.6 -0.8,-0.2 h -1.6 l -1,0.4 -0.5,0.8 -0.1,0.4 m -24.2,25 0.6,-0.3 0.8,-1 0.4,6.3 m 2.5,-6.7 -0.9,0.4 -0.5,0.9 -0.2,1.6 0.1,0.9 0.4,1.4 0.6,0.9 0.9,0.2 h 0.6 l 0.9,-0.4 0.6,-0.9 0.2,-1.5 -0.1,-0.9 -0.4,-1.5 -0.7,-0.9 -0.9,-0.2 H 651 m 4,1.3 v -0.3 l 0.2,-0.7 0.3,-0.3 0.6,-0.3 1.2,-0.1 0.6,0.3 0.3,0.2 0.3,0.6 0.1,0.6 -0.3,0.6 -0.5,1 -2.8,3.2 4.2,-0.3 m 242.3,379.9 -3.3,0.2 1.7,-2.5 -0.9,0.1 -0.7,-0.3 -0.3,-0.3 -0.3,-0.9 -0.1,-0.6 0.3,-0.9 0.5,-0.6 0.9,-0.4 h 0.9 l 0.9,0.2 0.4,0.3 0.3,0.6 m -5.6,5.4 -3.3,0.2 1.6,-2.5 -0.9,0.1 -0.6,-0.3 -0.3,-0.3 -0.4,-0.8 v -0.6 l 0.3,-1 0.5,-0.6 0.9,-0.3 0.9,-0.1 0.9,0.2 0.3,0.3 0.4,0.6 m 2.7,131.8 0.6,-0.3 0.8,-1 0.4,6.3 m 0.7,-5.1 0.6,-0.4 0.9,-0.9 0.4,6.3 m 0.7,-5.2 0.6,-0.3 0.8,-1 0.4,6.3 m -39,-27.8 0.5,0.5 1.1,0.5 -6,2 m 5.2,-0.6 0.5,0.5 1.1,0.6 -6,1.9 m 5.3,0.1 0.3,-0.1 0.7,0.1 0.3,0.2 0.5,0.4 0.4,1.2 -0.1,0.6 -0.2,0.4 -0.5,0.5 -0.5,0.2 -0.7,-0.1 -1.1,-0.3 -3.7,-1.9 1.3,4 m 17.6,-324 4.8,1.8 -1.2,-4.3 m -3.6,2.5 6,-1.6 m -6.8,-1.5 -0.9,-3.2 2.8,1.1 -0.3,-0.8 0.2,-0.7 0.2,-0.4 0.8,-0.5 0.5,-0.2 1,0.1 0.7,0.4 0.5,0.8 0.3,0.9 -0.1,0.9 -0.2,0.4 -0.5,0.4 M 711,139 l -1.6,-4.9 -2.7,3.6 m 4.3,1.3 -5.1,-3.7 m 1.9,5.3 0.3,0.2 0.3,0.6 v 0.4 l -0.1,0.7 -0.7,1 -0.6,0.3 h -0.4 l -0.7,-0.1 -0.4,-0.3 -0.3,-0.6 -0.4,-1 -0.6,-4.2 -2.5,3.3 m 163.6,67.6 4.6,2.3 -0.7,-4.4 m -3.9,2.1 6.2,-1 m -5.1,-1.8 -0.4,-0.5 -1,-0.8 6.2,-0.9 M 754,91.4 l -0.3,-5.2 -3.5,2.9 m 3.8,2.3 -4,-4.9 m 0.5,7.7 0.5,-0.8 -0.1,-1.1 -0.7,-1.4 -0.5,-0.7 -1.2,-0.9 -1.1,-0.3 -0.8,0.3 -0.5,0.4 -0.5,0.8 0.1,1 0.7,1.4 0.6,0.7 1.2,1 1,0.3 0.9,-0.4 0.3,-0.2 m 64,35.6 -2.4,-2.3 3,-0.5 -0.7,-0.6 -0.2,-0.7 v -0.4 l 0.4,-0.8 0.4,-0.5 0.9,-0.4 h 0.8 l 0.9,0.4 0.6,0.6 0.5,0.9 v 0.4 l -0.2,0.6 m -10.3,-2.9 6.5,-2.4 m -3.5,5.4 -3,-3 m 196.3,395.4 -2.7,-1.8 2.8,-1.1 -0.8,-0.5 -0.3,-0.5 -0.1,-0.5 0.2,-0.9 0.3,-0.5 0.8,-0.6 0.8,-0.2 0.9,0.3 0.8,0.5 0.6,0.7 0.1,0.4 -0.1,0.7 m -9.8,-1.3 -0.1,0.7 0.6,0.7 0.5,0.3 0.9,0.3 1,-0.5 1.1,-1.1 0.8,-1.2 0.4,-1.2 -0.2,-0.8 -0.6,-0.8 -0.2,-0.1 -1,-0.3 -0.8,0.2 -0.7,0.6 -0.2,0.3 -0.2,0.9 0.2,0.8 0.6,0.7 0.2,0.2 0.9,0.2 0.9,-0.1 0.7,-0.6 m -21.4,65.1 2.5,-2.2 0.2,3 0.7,-0.6 0.6,-0.2 0.4,0.1 0.9,0.5 0.4,0.4 0.3,0.9 v 0.8 l -0.5,0.8 -0.7,0.6 -0.9,0.4 h -0.4 l -0.6,-0.3 m 3.7,-10 1.9,6.7 m -5.1,-3.9 3.2,-2.8 m -144.4,42.5 -0.3,-0.6 -0.7,-1 6.2,0.7 m -6.1,-3.7 0.2,0.9 0.8,0.7 1.5,0.5 0.9,0.1 1.5,-0.1 0.9,-0.5 0.5,-0.8 v -0.6 l -0.2,-1 -0.8,-0.7 -1.4,-0.4 -0.9,-0.1 -1.6,0.1 -0.9,0.5 -0.4,0.8 -0.1,0.5 m 0.9,-7.4 5.9,3.7 m -6.4,0.4 0.5,-4.1 m -14.3,45.4 0.1,-0.7 -0.1,-1.3 5,3.9 m -3.4,-6.3 -0.3,0.9 0.4,1 1,1.2 0.7,0.5 1.3,0.7 1.1,0.1 0.8,-0.5 0.4,-0.5 0.3,-0.9 -0.3,-1 -1,-1.2 -0.8,-0.5 -1.3,-0.7 -1.1,-0.1 -0.8,0.5 -0.3,0.4 m 6.2,-4.5 0.5,0.8 0.1,0.8 -0.3,0.9 -0.2,0.3 -0.8,0.5 -0.8,0.1 -0.9,-0.3 -0.3,-0.2 -0.5,-0.8 -0.1,-0.8 0.3,-0.9 0.2,-0.3 0.8,-0.5 0.9,-0.1 1.1,0.5 1.2,0.9 1,1.2 0.3,1 -0.3,0.9 -0.4,0.5 -0.8,0.5 -0.6,-0.1 m -53.2,-43.8 0.3,0.6 0.8,0.9 -6.3,-0.2 m 6.4,3.2 -0.2,-0.9 -0.9,-0.7 -1.5,-0.3 -0.9,-0.1 -1.5,0.3 -0.9,0.5 -0.4,0.9 v 0.6 l 0.3,0.9 0.8,0.7 1.5,0.3 0.9,0.1 1.5,-0.3 1,-0.5 0.3,-0.9 v -0.5 m -0.2,4.9 -0.2,-0.9 -0.6,-0.3 h -0.6 l -0.6,0.2 -0.4,0.6 -0.3,1.2 -0.3,0.9 -0.7,0.6 -0.6,0.3 -0.9,-0.1 -0.6,-0.3 -0.2,-0.3 -0.3,-0.9 v -1.2 l 0.4,-0.9 0.3,-0.3 0.6,-0.3 0.9,0.1 0.6,0.3 0.6,0.6 0.2,0.9 0.3,1.2 0.3,0.6 0.5,0.4 h 0.6 l 0.7,-0.3 0.3,-0.9 v -1.3 m 22.5,69.5 0.1,-0.7 -0.3,-1.2 5.3,3.5 m -3.7,-3.7 0.1,-0.7 -0.3,-1.3 5.3,3.5 m -4.5,-5 1.9,-2.8 1,2.9 0.5,-0.8 0.5,-0.3 0.5,-0.1 0.9,0.2 0.5,0.4 0.6,0.7 0.1,0.9 -0.2,0.9 -0.5,0.7 -0.8,0.6 -0.4,0.1 -0.7,-0.1 m -20,-16.4 0.5,0.4 1.2,0.5 -5.8,2.6 m 5.1,-1.2 0.5,0.4 1.2,0.5 -5.7,2.6 m 7.8,1.2 -5.1,-1 1.9,4.1 m 3.2,-3.1 -5.8,2.6 M 645.9,500.1 650.7,495 m -0.8,6.4 -4,-1.3 m -4.2,-3.6 0.6,-0.8 0.7,-0.4 h 1 l 0.3,0.1 0.7,0.6 0.4,0.8 v 0.9 l -0.1,0.3 -0.5,0.8 -0.8,0.3 h -0.9 l -0.3,-0.1 -0.8,-0.5 -0.4,-0.8 0.1,-1.2 0.5,-1.4 0.7,-1.4 0.9,-0.6 h 0.9 l 0.6,0.1 0.8,0.6 0.1,0.7 m -42.6,31.1 v -0.9 l -0.5,-0.5 -0.5,-0.2 -0.7,0.1 -0.5,0.4 -0.6,1.1 -0.6,0.7 -0.8,0.4 -0.7,0.1 -0.8,-0.3 -0.5,-0.5 -0.2,-0.4 0.1,-0.9 0.3,-1.1 0.6,-0.8 0.4,-0.2 0.7,-0.1 0.8,0.3 0.5,0.5 0.4,0.8 -0.1,0.9 -0.1,1.2 0.1,0.7 0.5,0.5 0.6,0.2 0.6,-0.1 0.6,-0.7 0.4,-1.3 m -1.9,5.5 0.1,-1 -0.7,-0.9 -1.3,-0.7 -0.9,-0.3 -1.5,-0.2 -1,0.2 -0.6,0.8 -0.2,0.6 v 0.9 l 0.6,0.9 1.4,0.7 0.8,0.3 1.5,0.2 1.1,-0.2 0.5,-0.8 0.2,-0.4 m 78.4,163.3 0.6,-0.3 0.8,-1 0.7,6.3 m 1.1,-5.2 -0.1,-0.3 0.2,-0.6 0.3,-0.4 0.6,-0.3 1.2,-0.2 0.6,0.3 0.3,0.2 0.4,0.6 0.1,0.6 -0.3,0.6 -0.5,1 -2.6,3.3 4.2,-0.5 m 2.2,-6.6 -0.9,0.4 -0.5,1 -0.1,1.5 0.1,0.9 0.5,1.5 0.7,0.8 0.9,0.2 0.6,-0.1 0.8,-0.4 0.5,-0.9 0.2,-1.5 -0.1,-0.9 -0.5,-1.5 -0.7,-0.8 -0.9,-0.2 H 690 m 52.6,-21 0.1,-0.7 -0.2,-1.2 5.1,3.6 m -3.6,-6.2 -0.3,0.9 0.4,1 1.1,1.1 0.7,0.5 1.4,0.7 h 1.1 l 0.8,-0.6 0.3,-0.5 0.3,-0.9 -0.4,-1 -1.1,-1.1 -0.7,-0.5 -1.4,-0.6 h -1.1 l -0.8,0.5 -0.2,0.4 m 2.8,-4 -0.3,0.9 0.3,0.6 0.5,0.3 0.7,0.1 0.6,-0.3 0.9,-0.8 0.8,-0.6 0.8,-0.1 0.7,0.1 0.7,0.5 0.3,0.6 0.1,0.4 -0.3,0.9 -0.7,1 -0.7,0.5 -0.4,0.1 -0.7,-0.1 -0.7,-0.5 -0.4,-0.6 -0.1,-0.8 0.3,-0.9 0.4,-1.2 0.1,-0.7 -0.3,-0.5 -0.5,-0.4 -0.7,-0.1 -0.7,0.6 -0.8,1.1 m -32,-34.8 5.3,-4.5 m -1.5,6.2 -3.8,-1.7 m -4.7,-2.2 5.3,-4.5 m -1.5,6.3 -3.8,-1.8 m -119,54.8 h -1 l -0.4,0.5 -0.2,0.6 0.1,0.6 0.5,0.5 1,0.7 0.8,0.5 0.3,0.8 0.1,0.6 -0.3,0.9 -0.4,0.5 -0.4,0.2 h -1 l -1.1,-0.4 -0.8,-0.6 -0.1,-0.4 -0.1,-0.6 0.2,-0.9 0.5,-0.5 0.8,-0.3 h 0.9 l 1.3,0.1 0.6,-0.1 0.5,-0.5 0.2,-0.6 -0.1,-0.6 -0.8,-0.6 -1.2,-0.4 m 4.3,1.4 3.1,1.1 -2.4,1.7 0.8,0.2 0.5,0.5 0.2,0.4 v 1 l -0.2,0.5 -0.6,0.8 -0.7,0.4 h -1 l -0.8,-0.3 -0.8,-0.6 -0.2,-0.4 -0.1,-0.6 M 569.6,622 v -0.9 l -0.4,-0.5 -0.6,-0.2 -0.6,0.1 -0.5,0.5 -0.7,1 -0.6,0.7 -0.8,0.4 -0.6,0.1 -0.9,-0.3 -0.5,-0.5 -0.1,-0.4 v -1 l 0.4,-1.1 0.6,-0.7 0.4,-0.2 0.6,-0.1 0.9,0.3 0.4,0.5 0.4,0.8 v 0.9 l -0.1,1.2 v 0.7 l 0.5,0.5 0.6,0.2 0.6,-0.1 0.6,-0.7 0.5,-1.3 m -3,3.7 0.3,0.1 0.5,0.5 0.2,0.4 v 0.7 l -0.4,1.1 -0.4,0.5 -0.4,0.2 h -0.7 l -0.6,-0.2 -0.4,-0.5 -0.7,-0.8 -1.8,-3.9 -1.4,4 m 310.6,-271.5 1.7,4.9 2.6,-3.7 m -4.3,-1.2 5.1,3.6 m -91.6,-24.2 2.6,1.9 -2.9,0.9 0.8,0.5 0.3,0.6 v 0.4 l -0.2,0.9 -0.4,0.5 -0.8,0.6 -0.8,0.1 -0.9,-0.3 -0.7,-0.5 -0.6,-0.8 -0.1,-0.4 0.2,-0.7 m 9.2,3.1 -0.8,0.5 -0.8,0.1 -0.9,-0.2 -0.3,-0.2 -0.5,-0.8 -0.1,-0.8 0.2,-0.9 0.2,-0.3 0.8,-0.5 0.8,-0.2 0.9,0.3 0.3,0.2 0.5,0.8 0.2,0.8 -0.5,1.2 -0.9,1.2 -1.1,1 -1,0.4 -0.9,-0.3 -0.5,-0.4 -0.6,-0.7 0.1,-0.7 m 116.6,102.6 0.3,-0.6 0.2,-1.3 3.8,5 m -1.7,-5 -0.2,-0.2 -0.2,-0.7 0.1,-0.4 0.3,-0.6 0.9,-0.7 0.7,-0.2 0.4,0.1 0.6,0.3 0.4,0.4 0.1,0.7 0.1,1.1 -0.5,4.2 3.3,-2.6 m -2.2,-4.5 0.3,-0.6 0.2,-1.3 3.8,5 m -66.2,17.5 0.6,0.3 1.2,0.2 -5.1,3.7 m 4.8,-2.1 0.6,0.3 1.2,0.2 -5,3.7 m 6.2,-2.5 2,2.7 h -3 l 0.5,0.7 0.1,0.7 v 0.4 l -0.6,0.8 -0.5,0.3 -0.9,0.3 -0.8,-0.1 -0.8,-0.6 -0.5,-0.7 -0.3,-0.9 0.1,-0.4 0.3,-0.6 m 69.9,-97.7 -0.6,0.4 -0.8,1 -0.6,-6.3 m -0.6,5.2 -0.5,0.3 -0.9,1 -0.6,-6.3 m -2,6.8 0.9,-0.4 0.2,-0.7 v -0.6 l -0.4,-0.5 -0.6,-0.3 -1.2,-0.1 -1,-0.3 -0.6,-0.5 -0.4,-0.6 V 367 l 0.2,-0.6 0.3,-0.3 0.8,-0.4 1.2,-0.1 0.9,0.2 0.4,0.3 0.3,0.5 0.1,0.9 -0.2,0.7 -0.6,0.6 -0.8,0.4 -1.2,0.4 -0.6,0.4 -0.2,0.6 v 0.6 l 0.4,0.6 0.9,0.2 1.4,-0.2 m -43.7,35.9 v 0.6 l 0.2,1.3 -5.2,-3.5 m 3.6,3.7 v 0.7 l 0.2,1.2 -5.2,-3.4 m 2,7 0.7,0.1 0.7,-0.6 0.4,-0.5 0.2,-0.9 -0.4,-1 -1.1,-1.1 -1.3,-0.8 -1.1,-0.4 -0.9,0.1 -0.7,0.6 -0.2,0.3 -0.2,0.9 0.2,0.8 0.5,0.8 0.3,0.1 0.9,0.3 0.8,-0.2 0.8,-0.6 0.2,-0.2 0.2,-0.9 -0.2,-0.9 -0.6,-0.7 m 132.8,-52.8 h -0.7 l -1.2,0.3 3.1,-5.4 m -3.4,3.9 -0.7,-0.1 -1.2,0.3 3.1,-5.4 m -6.6,1.3 0.7,-0.6 0.9,-0.3 0.9,0.2 0.3,0.2 0.6,0.7 0.2,0.8 -0.2,0.9 -0.1,0.3 -0.8,0.6 -0.8,0.2 -0.9,-0.2 -0.3,-0.1 -0.6,-0.7 -0.2,-0.8 0.3,-1.2 0.8,-1.3 1,-1.2 1,-0.4 0.9,0.1 0.5,0.4 0.6,0.7 v 0.6 m -8.4,48.4 0.6,-0.3 1,-0.8 -0.6,6.3 m 1.6,-5 0.6,-0.3 1,-0.8 -0.6,6.3 m 3.5,-6.2 -0.9,0.2 -0.7,0.8 -0.4,1.5 -0.1,0.9 0.2,1.5 0.5,1 0.9,0.3 0.6,0.1 0.9,-0.2 0.7,-0.9 0.4,-1.4 0.1,-0.9 -0.2,-1.5 -0.5,-1 -0.9,-0.4 h -0.4 m 14.7,-9.2 -0.3,-0.7 -0.8,-1 6.3,0.7 m -5,-1.6 -0.2,-0.6 -0.8,-1 6.3,0.7 m -6,-5.4 -0.3,2.9 2.6,0.6 -0.2,-0.3 -0.2,-0.9 0.1,-0.9 0.4,-0.9 0.6,-0.5 1,-0.2 0.6,0.1 0.8,0.4 0.5,0.6 0.2,0.9 v 0.9 l -0.4,0.9 -0.4,0.3 -0.6,0.2 m -70.3,-61.8 0.3,0.6 1,0.8 -6.3,0.6 m 5.2,0.5 0.4,0.6 1,0.8 -6.3,0.6 m 7,4.6 -6.6,-2.4 m 6.2,-1.8 0.4,4.2 m 29.5,-16.8 -0.1,-0.6 -0.6,-1.2 6,1.8 m -4.6,-2.4 -0.1,-0.7 -0.6,-1.1 6,1.8 m -2.8,-6.1 0.8,0.5 0.4,0.8 0.1,0.9 -0.1,0.3 -0.6,0.8 -0.7,0.4 h -1 l -0.3,-0.1 -0.7,-0.5 -0.4,-0.8 -0.1,-0.9 0.1,-0.3 0.6,-0.8 0.7,-0.4 1.2,0.1 1.5,0.4 1.3,0.7 0.7,0.8 0.1,1 -0.2,0.6 -0.6,0.7 -0.6,0.2 m -1.1,-39.4 -0.4,-0.5 -1.1,-0.7 6.1,-1.4 m -5.2,0.1 -0.4,-0.5 -1.1,-0.7 6.2,-1.4 m -7.4,-3.2 0.6,3 2.7,-0.3 -0.3,-0.3 -0.5,-0.8 -0.2,-0.9 0.1,-0.9 0.4,-0.7 0.9,-0.5 0.5,-0.1 1,0.1 0.7,0.4 0.5,0.8 0.2,0.9 -0.1,0.9 -0.2,0.4 -0.6,0.4 m -55.2,-82.2 0.5,0.5 1.1,0.5 -6,2 m 5.2,-0.6 0.5,0.5 1.1,0.6 -6,1.9 m 6.8,2.8 0.5,-0.5 v -0.9 l -0.2,-0.6 -0.5,-0.7 -1.1,-0.3 -1.5,0.1 -1.4,0.5 -1.1,0.7 -0.4,0.7 v 1 l 0.1,0.2 0.6,0.8 0.7,0.4 h 1 l 0.3,-0.1 0.7,-0.6 0.4,-0.7 v -1 l -0.1,-0.2 -0.5,-0.8 -0.8,-0.4 h -0.9 m 1.2,-56.3 -0.2,0.6 -0.1,1.3 -4.2,-4.7 m 2.1,6.8 0.5,-0.8 -0.1,-1.1 -0.8,-1.3 -0.6,-0.7 -1.2,-0.9 -1.1,-0.3 -0.8,0.4 -0.5,0.4 -0.5,0.8 0.2,1.1 0.8,1.3 0.6,0.7 1.2,0.9 1,0.3 0.9,-0.4 0.3,-0.3 m -6.8,3.2 -0.4,-0.8 0.1,-0.9 0.4,-0.8 0.3,-0.2 0.8,-0.4 0.9,0.1 0.8,0.5 0.2,0.2 0.4,0.9 -0.1,0.8 -0.5,0.8 -0.2,0.2 -0.9,0.4 -0.8,-0.1 -1,-0.7 -1,-1.1 -0.8,-1.3 -0.1,-1.1 0.4,-0.8 0.5,-0.4 0.9,-0.4 0.6,0.3 m 29.7,-41 v 0.7 l 0.5,1.2 -5.8,-2.5 m 4.8,5.3 0.1,-1 -0.6,-0.9 -1.3,-0.8 -0.8,-0.4 -1.5,-0.3 -1,0.2 -0.7,0.7 -0.2,0.6 -0.1,0.9 0.6,0.9 1.3,0.9 0.8,0.3 1.5,0.3 1.1,-0.2 0.6,-0.7 0.2,-0.4 m -2.9,6.9 -4.6,-5.2 m 6.2,1.3 -1.6,3.9 m 49.8,124.3 0.5,-0.5 0.6,-1.1 1.8,6.1 m -0.4,-5.2 0.5,-0.5 0.6,-1.1 1.8,6 m 1,-7 -0.8,0.5 -0.3,1 0.1,1.6 0.3,0.8 0.7,1.4 0.8,0.7 h 1 l 0.5,-0.2 0.8,-0.5 0.3,-1.1 -0.1,-1.5 -0.3,-0.8 -0.7,-1.4 -0.8,-0.7 h -1 l -0.4,0.1 m 3.3,-56.4 -0.4,-0.6 -1.1,-0.7 6.2,-1.2 m -5.2,-0.6 h -0.3 l -0.7,-0.2 -0.3,-0.2 -0.4,-0.5 -0.3,-1.2 0.2,-0.7 0.2,-0.3 0.6,-0.4 0.6,-0.1 0.6,0.1 1,0.5 3.5,2.3 -0.8,-4.1 m -5,-0.1 -0.4,-0.5 -1.1,-0.7 6.2,-1.3 M 970.2,93.8 h -0.7 l -1.2,0.5 2.7,-5.7 m -3.1,4.1 h -0.7 l -1.2,0.5 2.7,-5.7 m -3.6,3.8 -0.2,0.3 -0.5,0.4 -0.4,0.1 h -0.7 l -1.1,-0.5 -0.4,-0.5 -0.1,-0.4 V 90 l 0.2,-0.5 0.6,-0.4 0.9,-0.6 4,-1.4 -3.8,-1.8 m -55.2,180.1 0.6,0.2 h 1.3 l -4.5,4.5 m 4.4,-2.8 0.6,0.2 h 1.3 l -4.5,4.4 m 8.3,-0.8 -6.6,2.2 m 3.6,-5.2 3,3 m -0.5,-20.8 -0.5,0.5 -0.7,1 -1.5,-6.1 m 0.2,5.2 -0.5,0.5 -0.7,1 -1.5,-6.1 m -1,7 0.8,-0.5 0.2,-0.7 -0.2,-0.6 -0.4,-0.5 -0.7,-0.1 h -1.2 l -1,-0.1 -0.7,-0.5 -0.4,-0.5 -0.2,-0.8 0.1,-0.7 0.2,-0.4 0.8,-0.5 1.2,-0.2 h 1 l 0.3,0.3 0.5,0.5 0.2,0.8 -0.2,0.7 -0.4,0.7 -0.8,0.5 -1.1,0.6 -0.5,0.4 -0.2,0.7 0.2,0.6 0.4,0.5 0.9,0.1 1.3,-0.4"
       id="nums_002"
       stroke="#000000"
       style="stroke-width:1.01549;stroke-dasharray:none" />
    <path
       d="m 966.1,484.8 77.8,49.6 -107.4,93.7 -66.1,4.6 -16.2,-49.7 -6.3,52.2 -18.5,23.8 -26.1,39.2 -27.3,-60.1 2.4,-63.2 -113.9,20.9 105.6,47.6 -36.2,51.9 -92.6,10.3 -98.6,-32.8 35.7,-99.9 32.3,-93 73.5,24 22.8,-85.3 -39.8,-59.1 -47.6,-66.6 -46.2,-62.5 -15.5,-102.7 -10,-92.7 60.6,-26.1 65.3,11.2 9.9,47.8 -11.3,50.1 -37.6,2.5 42.8,49.7 50.3,-68.2 37.8,-30.9 102.3,99.3 10.4,68.8 24,87.3 -48.8,69.6 L 714,293.8 761.9,403 l 64.8,89.9 z m -107.8,3.5 -27.8,-38 55.8,-84.4 49.6,-4.8 -6.3,-64.2 -45.1,-46.1 48.5,-11.8 -31.1,-96.3 22.6,-20 20.2,-48.6 47.3,22.5 26.2,133.2 -42.7,12.6 10.5,46.3 -14.2,48.1 43.3,25.1 -5.2,47.2 -44.3,-3.9 z"
       id="coupes_002"
       stroke="#ff0000"
       style="stroke-width:1.26936"
       sodipodi:nodetypes="ccccccccccccccccccccccccccccccccccccccccccccccccccccccccccc" />
    <path
       d="m 778.4,574.9 -94.2,-71 m 0,0 142.5,-11 m 0,0 -48.3,82 m -113.9,20.9 19.7,-91.9 M 707,418.6 761.9,403 M 667.2,359.5 761.9,403 M 667.2,359.5 714,293.8 m -94.4,-0.9 94.4,0.9 m -94.4,-0.9 58,-122.7 M 573.4,230.4 677.6,170.2 M 826.7,492.9 854.2,583 M 573.4,230.4 634.8,120.5 m -76.9,7.2 76.9,-7.2 m 39,-100.4 -39,100.4 M 557.9,127.7 608.5,8.9 M 966.1,484.8 854.2,583 M 966.1,484.8 936.5,628.1 M 677.6,170.2 902.4,326.5 m 0,0 L 714,293.8 m -36.4,-123.6 200.8,69 M 727.9,102 878.4,239.2 M 727.9,102 868,170.4 m -20.1,464.8 -69.5,-60.3 m 51,84.1 -51,-84.1 M 829.4,659 776,638.1 M 664.5,595.8 610.7,479.9 m 53.8,115.9 -86.1,-22.9 m 86.1,22.9 -23.2,109.8 m 0,0 -62.9,-132.7 m 86.1,22.9 69.4,99.5 m 124.4,-207 77.6,-127.2 m 0,0 29.7,44.1 m -135.1,45.1 105.4,-89.2 m 0,0 35.9,-24.3 m 0,0 -6.2,68.4 m 49.5,-43.3 -49.5,43.3 m -36,-108.3 42.2,39.9 m -42.2,-39.9 56.4,-8.2 m -56.4,8.2 45.9,-54.5 M 929.6,296.9 933,239 m -8.5,-116.3 51,119.7 M 944.7,74.1 975.5,242.4 m -30.8,-168.3 73.5,155.7"
       id="plisM_002"
       stroke="#a52a2a"
       stroke-dasharray="4" />
    <path
       d="m 707,418.6 119.7,74.3 M 677.6,170.2 714,293.8 M 854.2,583 778.4,574.9 M 557.9,127.7 673.8,20.1 m 9.9,47.8 -48.9,52.6 M 936.5,628.1 854.2,583 m 78.8,-344 42.5,3.4 m -73.6,-99.7 73.6,99.7"
       id="plisV_002"
       stroke="#008000"
       stroke-dasharray="4, 1, 1, 1" />
    <path
       d="m 764.9,453.7 4,4 m 0,-4 -4,4 M 693.8,230 l 4,4 m 0,-4 -4,4 m 120.5,342.9 4,4 m 0,-4 -4,4 m -200.4,-509 4,4 m 0,-4 -4,4 m 43.3,16.3 4,4 m 0,-4 -4,4 m 236.1,507.3 4,4 m 0,-4 -4,4 m 58.9,-368.8 4,4 m 0,-4 -4,4 m -15.5,-52.2 4,4 m 0,-4 -4,4"
       id="marqueV_002"
       stroke="#008000" />
    <path
       d="m 707.9,381.3 h 8.3 l -4.5,6 h 2.2 l 1.5,0.8 0.8,0.7 0.7,2.3 v 1.5 l -0.7,2.2 -1.5,1.5 -2.3,0.8 h -2.2 l -2.3,-0.8 -0.7,-0.7 -0.8,-1.5"
       id="titre_3"
       stroke="#4b0082" />
    <path
       d="m 965.4,263.5 -7.5,10.5 h 11.3 m -3.8,-10.5 v 15.7"
       id="titre_4"
       stroke="#4b0082" />
  </g>
  <g
     id="page_003">
    <path
       d="m 1487,179.3 -0.2,3 2.7,0.5 -0.3,-0.3 -0.2,-0.9 v -0.9 l 0.4,-0.9 0.6,-0.6 1,-0.2 h 0.6 l 0.8,0.4 0.6,0.6 0.2,0.9 v 0.9 l -0.4,0.9 -0.3,0.3 -0.6,0.3 m -3.4,-5.5 -0.2,-0.7 -0.8,-0.9 6.2,0.4 m -44.4,-59.1 2.5,-1.6 -1.1,-2.5 -0.1,0.5 -0.6,0.7 -0.8,0.5 -0.9,0.2 -0.8,-0.2 -0.8,-0.6 -0.3,-0.5 -0.2,-1 0.2,-0.8 0.6,-0.7 0.8,-0.5 0.9,-0.2 0.4,0.1 0.6,0.3 m -3.1,6.2 0.1,0.3 0.1,0.6 -0.1,0.4 -0.3,0.6 -1.1,0.6 -0.6,0.1 -0.4,-0.1 -0.6,-0.3 -0.3,-0.6 -0.1,-0.6 v -1.1 l 1,-4.1 -3.6,2.2 m 41.4,0 1.2,2.7 2.6,-0.8 -0.4,-0.2 -0.7,-0.7 -0.3,-0.8 -0.1,-0.9 0.3,-0.8 0.7,-0.6 0.5,-0.3 1,-0.1 0.8,0.3 0.6,0.7 0.4,0.9 0.1,0.9 -0.2,0.4 -0.4,0.5 m -7.1,-3.4 -1.3,-3 2.9,0.7 -0.4,-0.8 0.1,-0.7 0.1,-0.4 0.7,-0.6 0.6,-0.3 0.9,-0.1 0.8,0.3 0.7,0.7 0.3,0.9 0.1,0.9 -0.1,0.4 -0.5,0.5 m -57.5,147.6 2,2.6 h -3 l 0.6,0.7 0.1,0.7 v 0.4 l -0.6,0.8 -0.4,0.4 -0.9,0.3 -0.9,-0.1 -0.8,-0.6 -0.5,-0.7 -0.3,-0.9 v -0.4 l 0.3,-0.6 m 9.5,4 -1.8,-2.4 -2.3,1.4 0.4,0.1 0.8,0.5 0.5,0.7 0.3,0.9 -0.1,0.8 -0.5,0.8 -0.5,0.4 -0.9,0.3 -0.8,-0.1 -0.8,-0.5 -0.6,-0.8 -0.3,-0.8 0.1,-0.5 0.3,-0.6 m -82,-57.2 3.1,1.1 -2.6,1.7 0.9,0.3 0.4,0.5 0.2,0.4 v 0.9 l -0.2,0.6 -0.6,0.7 -0.8,0.4 -0.9,-0.1 -0.9,-0.3 -0.7,-0.6 -0.2,-0.4 -0.1,-0.6 m 6.8,-1.4 0.1,-0.3 0.5,-0.4 0.4,-0.2 0.6,-0.1 1.2,0.5 0.4,0.4 0.2,0.4 0.1,0.7 -0.2,0.6 -0.5,0.4 -0.9,0.7 -3.9,1.7 4,1.5 m 152,31.9 2,2.2 2.2,-1.5 -0.4,-0.1 -0.9,-0.4 -0.5,-0.7 -0.4,-0.9 v -0.8 l 0.5,-0.8 0.5,-0.4 0.8,-0.4 h 0.9 l 0.8,0.5 0.6,0.7 0.4,0.9 -0.1,0.4 -0.2,0.6 m -9.1,-3.9 -0.2,0.6 0.3,0.9 0.4,0.4 0.9,0.5 1,-0.1 1.3,-0.8 1.2,-1 0.7,-1 v -0.9 l -0.4,-0.8 -0.2,-0.3 -0.8,-0.4 -0.8,-0.1 -0.9,0.4 -0.2,0.2 -0.5,0.8 v 0.8 l 0.3,0.9 0.2,0.2 0.8,0.5 0.9,0.1 0.9,-0.4 m 15.9,76.5 -2.2,2 1.6,2.2 v -0.4 l 0.5,-0.8 0.6,-0.6 0.9,-0.4 0.9,0.1 0.8,0.5 0.4,0.4 0.3,0.9 v 0.8 l -0.5,0.9 -0.7,0.5 -0.8,0.4 h -0.4 l -0.7,-0.3 m 3.7,-10 1.9,6.7 m -5.1,-3.9 3.2,-2.8 m 1.9,-26.6 1,2.8 2.7,-0.6 -0.4,-0.2 -0.6,-0.8 -0.3,-0.8 -0.1,-0.9 0.4,-0.8 0.7,-0.6 0.6,-0.2 0.9,-0.1 0.8,0.4 0.6,0.7 0.3,0.9 v 0.9 l -0.1,0.4 -0.5,0.5 m -7.2,-4.6 0.6,0.7 0.7,0.1 0.6,-0.2 0.4,-0.5 0.1,-0.7 -0.2,-1.2 v -1 l 0.4,-0.7 0.4,-0.5 0.9,-0.3 h 0.6 l 0.4,0.2 0.6,0.7 0.4,1.2 0.1,0.9 -0.2,0.4 -0.5,0.5 -0.8,0.3 -0.7,-0.1 -0.7,-0.3 -0.6,-0.8 -0.8,-1 -0.4,-0.4 -0.7,-0.1 -0.6,0.2 -0.4,0.5 v 1 l 0.5,1.2 m -77.3,50.3 -0.4,3.3 -2.1,-2.2 -0.2,0.9 -0.3,0.6 -0.4,0.3 -0.9,0.1 -0.6,-0.1 -0.9,-0.4 -0.5,-0.7 -0.1,-0.9 0.1,-0.9 0.4,-0.8 0.3,-0.3 0.7,-0.2 m 2.9,9.4 0.6,-0.2 0.5,-0.8 v -0.6 l -0.1,-1 -0.8,-0.7 -1.5,-0.5 -1.5,-0.2 -1.2,0.2 -0.7,0.5 -0.4,0.8 v 0.3 l 0.1,1 0.6,0.6 0.8,0.4 0.3,0.1 0.9,-0.2 0.7,-0.5 0.4,-0.9 0.1,-0.2 -0.2,-1 -0.5,-0.7 -0.9,-0.4 m 54.9,148.3 -0.3,-0.6 -0.9,-0.3 h -0.6 l -0.9,0.3 -0.6,0.9 -0.3,1.5 -0.1,1.5 0.3,1.2 0.6,0.6 0.9,0.3 h 0.3 l 0.9,-0.3 0.6,-0.6 0.3,-0.9 V 495 l -0.2,-0.9 -0.6,-0.6 -0.9,-0.3 h -0.3 l -0.9,0.3 -0.6,0.6 -0.4,0.9 m 8.7,-4.1 h -3 l -0.3,2.7 0.3,-0.3 0.9,-0.3 h 0.9 l 0.9,0.3 0.6,0.6 0.3,0.9 v 0.6 l -0.3,0.9 -0.6,0.6 -0.9,0.3 h -0.9 l -0.9,-0.3 -0.3,-0.3 -0.3,-0.6 m 28.6,-33.2 -0.5,0.3 -0.3,0.9 0.1,0.6 0.3,0.9 1,0.6 1.5,0.1 1.5,-0.1 1.2,-0.3 0.5,-0.7 0.3,-0.9 -0.1,-0.3 -0.3,-0.9 -0.7,-0.5 -0.9,-0.3 h -0.3 l -0.9,0.4 -0.5,0.7 -0.2,0.9 v 0.3 l 0.3,0.8 0.7,0.6 0.9,0.2 m -3.9,-8.4 -0.6,0.4 -0.2,0.9 v 0.6 l 0.4,0.9 0.9,0.5 1.5,0.2 1.5,-0.1 1.2,-0.4 0.6,-0.6 0.2,-0.9 v -0.3 l -0.4,-0.9 -0.6,-0.6 -0.9,-0.2 h -0.3 l -0.9,0.4 -0.6,0.6 -0.2,0.9 v 0.3 l 0.4,0.9 0.6,0.6 0.9,0.2 m -117.1,-45.1 -0.5,-5.2 -3.4,3 m 3.9,2.2 -4.1,-4.8 m 1.2,5.4 -0.2,0.6 -0.1,1.3 -4.2,-4.8 m -62.1,45.2 1.1,-5.1 -4.1,1.8 m 3,3.3 -2.5,-5.8 m -0.5,7 -3,1.3 0.7,-2.9 -0.8,0.3 h -0.7 l -0.4,-0.2 -0.6,-0.7 -0.3,-0.5 v -1 l 0.3,-0.7 0.7,-0.7 0.8,-0.3 1,-0.1 0.4,0.1 0.5,0.5 m 191.1,-67.3 -0.6,0.2 -0.5,0.8 -0.1,0.6 0.2,0.9 0.7,0.8 1.5,0.5 1.4,0.3 1.3,-0.1 0.7,-0.5 0.4,-0.8 0.1,-0.3 -0.2,-0.9 -0.4,-0.7 -0.9,-0.5 -0.3,-0.1 -0.9,0.2 -0.7,0.5 -0.5,0.8 v 0.3 l 0.1,0.9 0.5,0.7 0.8,0.5 m -1.6,-6 h -0.3 l -0.6,-0.4 -0.2,-0.4 -0.2,-0.6 0.2,-1.2 0.4,-0.5 0.4,-0.3 0.6,-0.2 0.6,0.1 0.5,0.4 0.8,0.8 2.4,3.5 0.8,-4.2 m -10.8,-27.4 2.8,0.9 1.1,-2.5 -0.4,0.2 h -0.9 l -0.9,-0.2 -0.8,-0.6 -0.3,-0.7 -0.1,-1 0.2,-0.6 0.6,-0.7 0.7,-0.4 h 1 l 0.8,0.2 0.8,0.6 0.2,0.4 0.1,0.6 m -9.7,0.2 0.5,-0.8 0.8,-0.4 h 0.9 l 0.3,0.1 0.8,0.5 0.4,0.8 v 0.9 l -0.1,0.3 -0.5,0.8 -0.8,0.4 h -0.9 l -0.3,-0.1 -0.8,-0.6 -0.4,-0.7 0.1,-1.2 0.4,-1.5 0.7,-1.3 0.9,-0.7 h 0.9 l 0.6,0.1 0.8,0.6 0.1,0.7 m -47.1,185.2 -0.3,0.6 0.3,0.9 0.4,0.5 0.8,0.5 h 1.1 l 1.3,-0.7 1.2,-0.9 0.8,-1 0.1,-0.8 -0.3,-0.9 -0.2,-0.3 -0.8,-0.5 -0.8,-0.1 -0.9,0.3 -0.3,0.2 -0.5,0.8 -0.1,0.8 0.3,0.9 0.2,0.2 0.8,0.6 0.8,0.1 0.9,-0.3 m -8.6,-4.3 1.8,2.4 2.4,-1.4 -0.5,-0.1 -0.7,-0.5 -0.6,-0.7 -0.3,-0.9 0.1,-0.9 0.5,-0.8 0.5,-0.3 0.9,-0.3 0.8,0.1 0.8,0.5 0.6,0.7 0.3,0.9 -0.1,0.4 -0.3,0.6 m 0,42.6 -0.6,-0.3 -0.9,0.4 -0.4,0.4 -0.5,0.8 0.2,1.1 0.8,1.3 1,1.1 1,0.7 0.9,0.1 0.8,-0.4 0.3,-0.2 0.4,-0.9 0.1,-0.8 -0.4,-0.9 -0.2,-0.2 -0.9,-0.5 h -0.8 l -0.9,0.4 -0.2,0.2 -0.5,0.8 v 0.9 l 0.4,0.8 m 3.2,-8.6 0.6,5.1 3.3,-3 m -3.9,-2.1 4.2,4.6 m -74,23.1 0.1,-0.6 -0.7,-0.7 -0.5,-0.4 -0.9,-0.1 -1,0.4 -1,1.2 -0.8,1.3 -0.3,1.1 0.2,0.9 0.6,0.7 0.3,0.1 0.9,0.2 0.8,-0.2 0.7,-0.6 0.2,-0.3 0.2,-0.9 -0.2,-0.8 -0.6,-0.7 -0.3,-0.2 -0.9,-0.2 -0.9,0.2 -0.7,0.7 m 5.7,0.1 h 0.7 l 1.2,-0.3 -3.2,5.4 m 39.9,7.8 -0.7,0.1 -0.6,0.7 -0.2,0.6 -0.1,0.9 0.7,0.9 1.3,0.8 1.4,0.6 1.2,0.1 0.8,-0.3 0.6,-0.8 0.1,-0.2 v -1 l -0.3,-0.8 -0.8,-0.6 -0.3,-0.1 h -0.9 l -0.8,0.3 -0.6,0.8 -0.1,0.2 v 1 l 0.3,0.8 0.8,0.6 m -2,-6.8 1.2,-3.1 1.6,2.6 0.3,-0.9 0.5,-0.4 0.4,-0.2 h 1 l 0.5,0.2 0.8,0.6 0.3,0.8 v 1 l -0.4,0.8 -0.6,0.7 -0.3,0.2 -0.7,0.1 m -204.5,-148.6 4.3,-3 -4.3,-1.5 m 0,4.5 2.1,-6 m -70.7,-1.5 0.1,0.3 -0.2,0.6 -0.2,0.4 -0.5,0.4 -1.2,0.3 -0.6,-0.1 -0.4,-0.3 -0.4,-0.5 -0.1,-0.6 0.1,-0.6 0.4,-1 2.2,-3.6 -4.1,0.9 m -10.6,45.9 0.5,0.4 1.1,0.5 -5.8,2.4 m 110.1,-432.1 -2.7,1.9 0.1,-3 -0.8,0.6 -0.6,0.1 -0.4,-0.1 -0.8,-0.5 -0.4,-0.5 -0.2,-0.9 0.1,-0.9 0.6,-0.7 0.7,-0.6 0.9,-0.3 0.4,0.1 0.6,0.3 m -44.3,54.4 0.2,-0.9 -0.4,-1 -1.1,-1.1 -0.8,-0.5 -1.4,-0.5 h -1.1 l -0.7,0.6 -0.3,0.5 -0.3,0.9 0.5,1 1.1,1.1 0.7,0.4 1.4,0.6 h 1.1 l 0.8,-0.6 0.2,-0.4 m -23.7,74 0.3,0.6 0.9,1 -6.3,-0.4 m 65.4,187.1 3.2,0.4 -2.1,2.1 0.9,0.2 0.6,0.3 0.2,0.4 0.2,0.9 -0.1,0.6 -0.4,0.8 -0.6,0.6 -1,0.1 -0.9,-0.1 -0.8,-0.4 -0.3,-0.3 -0.2,-0.7 m 9.1,-4 -3.5,3.8 4.4,0.6 m -0.9,-4.4 -0.8,6.3 m 59.9,-143.1 -2.5,-2.1 2.9,-0.7 -0.7,-0.6 -0.2,-0.6 -0.1,-0.4 0.4,-0.9 0.4,-0.4 0.8,-0.5 0.9,-0.1 0.8,0.4 0.7,0.6 0.5,0.8 v 0.4 l -0.1,0.7 m -6.8,-1.2 -0.2,0.3 -0.6,0.2 -0.5,0.1 -0.6,-0.2 -0.9,-0.8 -0.3,-0.6 v -0.4 l 0.2,-0.7 0.4,-0.4 0.6,-0.3 1,-0.3 4.3,-0.3 -3.2,-2.7 m 78.2,70.9 -2.7,-1.9 2.8,-0.9 -0.7,-0.5 -0.3,-0.6 -0.1,-0.4 0.3,-1 0.4,-0.4 0.7,-0.6 0.9,-0.1 0.9,0.2 0.7,0.6 0.6,0.7 v 0.4 l -0.1,0.7 m -10.2,-1 2.4,1.7 1.8,-2 -0.4,0.1 -0.9,-0.3 -0.7,-0.5 -0.6,-0.8 -0.1,-0.8 0.3,-1 0.3,-0.4 0.8,-0.6 0.8,-0.1 0.9,0.2 0.8,0.6 0.5,0.7 0.1,0.4 -0.1,0.7 m -34,54.6 2.7,-1.9 -0.1,3 0.7,-0.5 0.7,-0.1 0.4,0.1 0.8,0.6 0.3,0.4 0.3,1 -0.1,0.8 -0.6,0.8 -0.8,0.5 -0.9,0.2 h -0.4 l -0.6,-0.4 m 2,-7.5 2.7,-1.9 -0.1,3 0.7,-0.5 0.7,-0.1 h 0.4 l 0.8,0.6 0.3,0.5 0.3,0.9 -0.2,0.8 -0.5,0.8 -0.8,0.5 -0.9,0.3 -0.4,-0.1 -0.6,-0.3 m -217.3,-103.5 0.1,0.3 -0.2,0.6 -0.3,0.3 -0.6,0.4 -1.2,0.1 -0.6,-0.2 -0.3,-0.3 -0.4,-0.5 -0.1,-0.6 0.3,-0.6 0.5,-1 2.6,-3.3 -4.2,0.5 m -7.3,148.4 3.1,-1 -0.9,2.8 0.8,-0.3 0.7,0.1 0.4,0.2 0.6,0.8 0.2,0.5 v 1 l -0.4,0.7 -0.8,0.6 -0.8,0.3 h -1 l -0.4,-0.2 -0.4,-0.5 m 4.8,-7 -0.7,0.6 -0.1,0.7 0.2,0.5 0.4,0.5 0.7,0.1 1.2,-0.1 h 1 l 0.8,0.4 0.4,0.4 0.3,0.9 -0.1,0.7 -0.2,0.3 -0.7,0.6 -1.2,0.4 h -0.9 l -0.4,-0.2 -0.5,-0.5 -0.3,-0.8 0.1,-0.7 0.4,-0.7 0.8,-0.6 1,-0.7 0.5,-0.5 0.1,-0.6 -0.2,-0.6 -0.5,-0.5 h -0.9 l -1.3,0.5 m -35.4,-62.1 -0.4,3.3 -2.2,-2.1 -0.1,0.9 -0.4,0.5 -0.3,0.3 -0.9,0.2 -0.6,-0.1 -0.9,-0.4 -0.5,-0.7 -0.2,-0.9 0.1,-0.9 0.5,-0.9 0.3,-0.2 0.6,-0.2 m 1.8,9.5 -0.8,-0.4 -0.6,-0.7 -0.1,-0.9 v -0.3 l 0.4,-0.9 0.7,-0.5 0.9,-0.1 h 0.3 l 0.9,0.4 0.5,0.7 0.2,0.9 -0.1,0.3 -0.4,0.9 -0.7,0.5 -1.2,0.1 -1.5,-0.2 -1.4,-0.5 -0.8,-0.7 -0.2,-0.9 0.1,-0.6 0.4,-0.9 0.6,-0.2 m 48.8,266.5 2.8,4.3 1.7,-4.2 m -4.5,-0.1 5.9,2.3 m -4.3,-6.1 -0.1,0.9 0.5,0.5 0.5,0.2 0.7,-0.1 0.5,-0.4 0.7,-1 0.6,-0.7 0.8,-0.4 0.6,-0.1 0.9,0.4 0.4,0.5 0.2,0.4 v 0.9 l -0.5,1.1 -0.6,0.7 -0.4,0.2 -0.6,0.1 -0.9,-0.3 -0.4,-0.5 -0.4,-0.8 0.1,-1 0.1,-1.2 v -0.7 l -0.5,-0.4 -0.5,-0.3 -0.7,0.1 -0.6,0.7 -0.5,1.3 m -1.8,-9 -5,-1.5 1.5,4.3 m 3.5,-2.8 -6,2.1 m 6,4.8 h -0.9 l -0.8,-0.3 -0.6,-0.8 -0.1,-0.3 v -0.9 l 0.4,-0.8 0.8,-0.6 h 0.2 l 1,-0.1 0.7,0.4 0.6,0.8 0.1,0.3 v 0.9 l -0.4,0.8 -1,0.6 -1.4,0.5 -1.5,0.2 -1.1,-0.3 -0.6,-0.7 -0.1,-0.6 V 595 l 0.4,-0.5 m -23.1,-45.5 -4.9,1.5 3.5,2.7 m 1.4,-4.2 -3.9,5 m 8.5,-1.4 -5,1.4 3.6,2.8 m 1.4,-4.2 -3.9,4.9 m 16.4,-38.1 0.8,0.6 h 1 l 1.4,-0.7 0.8,-0.5 1,-1.1 0.4,-1 -0.2,-0.9 -0.4,-0.5 -0.7,-0.6 -1.1,0.1 -1.4,0.6 -0.8,0.5 -1,1.1 -0.4,1 0.3,0.9 0.2,0.4 m -58.1,17.1 -3.2,4.1 4.5,0.2 m -1.3,-4.3 -0.3,6.3 m 6.5,-5.9 -3,-0.2 -0.4,2.7 0.3,-0.3 0.9,-0.2 h 0.9 l 0.9,0.4 0.6,0.6 0.2,0.9 v 0.6 l -0.3,0.9 -0.7,0.6 -0.9,0.2 h -0.9 l -0.9,-0.4 -0.2,-0.3 -0.3,-0.6 m -12.7,-38.4 -4.2,-3 v 4.5 m 4.2,-1.5 -6.3,-0.1 m 6.1,6.8 -6.2,-3.1 m 6.3,-1.1 -0.1,4.2 m 23.3,-26.1 3.9,-3.3 -4.4,-1.1 m 0.5,4.4 1.5,-6.1 m -7.4,3.6 0.2,0.7 0.8,0.5 0.6,0.2 0.9,-0.1 0.8,-0.7 0.7,-1.4 0.3,-1.5 v -1.2 l -0.4,-0.7 -0.8,-0.5 -0.3,-0.1 h -0.9 l -0.8,0.5 -0.5,0.8 v 0.3 0.9 l 0.5,0.7 0.8,0.6 h 0.3 0.9 l 0.7,-0.5 0.5,-0.8 m 78.9,124.1 -3.7,-3.7 -0.7,4.5 m 4.4,-0.8 -6.2,-1 m 5.5,5 -0.2,-0.9 -0.5,-0.4 -0.6,-0.1 -0.6,0.2 -0.4,0.6 -0.5,1.1 -0.5,0.9 -0.6,0.5 -0.7,0.2 -0.9,-0.2 -0.5,-0.4 -0.3,-0.3 -0.1,-0.9 0.2,-1.2 0.4,-0.9 0.3,-0.2 0.7,-0.2 0.9,0.1 0.5,0.4 0.5,0.7 0.2,0.9 0.1,1.3 0.2,0.6 0.5,0.4 0.6,0.1 0.7,-0.2 0.4,-0.9 0.2,-1.3 m 35.3,7.2 2.4,4.5 2,-4 m -4.4,-0.5 5.7,2.8 m -2.6,-8.8 4.3,5.5 m -6.2,-1.7 1.9,-3.8 m -27.1,20.8 -2.4,-1.7 -1.8,2.1 0.4,-0.1 0.9,0.3 0.7,0.5 0.6,0.7 0.2,0.9 -0.3,0.9 -0.3,0.5 -0.8,0.5 -0.8,0.2 -0.9,-0.3 -0.8,-0.5 -0.5,-0.7 -0.1,-0.5 0.1,-0.6 m 8.7,-0.2 -0.9,-0.2 -1,0.4 -1.1,1 -0.5,0.8 -0.6,1.4 v 1.1 l 0.6,0.7 0.5,0.4 0.9,0.2 1,-0.4 1.1,-1 0.5,-0.8 0.6,-1.4 v -1.1 l -0.6,-0.7 -0.3,-0.3 m 46.9,-19.6 -3.3,-4 -1.2,4.3 m 4.5,-0.3 -6.1,-1.7 m 3.5,7.5 0.7,-0.2 0.5,-0.8 0.1,-0.5 v -1 l -0.7,-0.8 -1.4,-0.7 -1.4,-0.4 h -1.3 l -0.7,0.4 -0.5,0.8 -0.1,0.3 v 0.9 l 0.5,0.8 0.8,0.5 0.2,0.1 1,-0.1 0.7,-0.4 0.6,-0.8 v -0.3 -0.9 l -0.4,-0.8 -0.8,-0.5 m 19.8,35.8 2.9,1.5 -2.7,1.3 0.8,0.4 0.4,0.5 0.2,0.4 -0.2,1 -0.3,0.5 -0.6,0.7 -0.8,0.3 -1,-0.2 -0.8,-0.4 -0.6,-0.7 -0.2,-0.4 v -0.6 m 132.1,-26.2 -0.4,0.6 0.2,0.9 0.4,0.6 0.7,0.6 h 1.1 l 1.4,-0.6 1.3,-0.8 0.8,-0.8 0.2,-0.9 -0.2,-0.9 -0.2,-0.3 -0.7,-0.6 -0.8,-0.1 -0.9,0.2 -0.3,0.1 -0.6,0.8 -0.2,0.8 0.2,0.9 0.2,0.3 0.7,0.6 0.9,0.2 0.9,-0.3 m -5,-2.7 -0.6,-0.3 -1.2,-0.3 5.3,-3.4 m 20.5,-528.4 -1.1,2.7 2.3,1.3 -0.1,-0.3 0.1,-1 0.3,-0.8 0.6,-0.7 0.8,-0.4 1,0.1 0.5,0.2 0.7,0.7 0.3,0.8 v 0.9 l -0.4,0.8 -0.6,0.7 -0.4,0.2 -0.7,0.1 m -1,-6.8 -0.3,-0.2 -0.4,-0.5 -0.2,-0.4 v -0.6 l 0.4,-1.1 0.5,-0.5 0.4,-0.1 0.7,-0.1 0.6,0.3 0.4,0.5 0.6,0.9 1.6,3.9 1.6,-3.9 m -55.7,-54.2 2.9,-0.7 -0.4,-2.7 -0.2,0.4 -0.8,0.5 -0.9,0.2 -0.9,-0.1 -0.7,-0.4 -0.6,-0.8 -0.1,-0.6 0.1,-1 0.4,-0.7 0.8,-0.5 0.9,-0.2 0.9,0.1 0.4,0.2 0.4,0.5 m -7,7.1 1.9,-4.8 -4.3,1 m 2.4,3.8 -1.5,-6.2 m 65.7,6.4 0.7,3 2.7,-0.4 -0.4,-0.2 -0.4,-0.8 -0.2,-0.9 v -0.9 l 0.5,-0.7 0.8,-0.5 0.6,-0.2 0.9,0.1 0.7,0.5 0.5,0.8 0.2,0.9 v 0.9 l -0.3,0.4 -0.5,0.4 m -7,-7.6 0.7,3 2.7,-0.4 -0.4,-0.2 -0.4,-0.8 -0.3,-0.9 0.1,-0.9 0.5,-0.7 0.8,-0.5 0.6,-0.2 0.9,0.1 0.7,0.5 0.5,0.8 0.2,0.9 v 0.9 l -0.3,0.4 -0.5,0.4 m -22,664.9 -0.7,0.2 -0.4,0.8 -0.1,0.6 0.1,0.9 0.8,0.8 1.4,0.5 1.5,0.3 1.2,-0.1 0.7,-0.5 0.5,-0.8 v -0.3 l -0.1,-0.9 -0.5,-0.7 -0.8,-0.5 h -0.3 l -1,0.1 -0.7,0.5 -0.4,0.8 -0.1,0.3 0.2,0.9 0.5,0.7 0.8,0.5 m -2.9,-7.5 0.1,0.9 0.8,0.8 1.4,0.6 0.9,0.1 h 1.5 l 1,-0.4 0.5,-0.9 0.1,-0.6 -0.2,-0.9 -0.7,-0.7 -1.5,-0.6 -0.8,-0.2 -1.6,0.1 -1,0.4 -0.4,0.8 -0.1,0.5 m -56.7,-0.9 -2.7,-1.3 -1.5,2.2 0.4,-0.1 0.9,0.1 0.8,0.4 0.7,0.7 0.3,0.8 -0.2,1 -0.3,0.5 -0.6,0.7 -0.8,0.2 -1,-0.1 -0.8,-0.4 -0.6,-0.7 -0.2,-0.4 v -0.7 m 9.9,-0.7 -4.5,2.4 4,2 m 0.5,-4.4 -2.8,5.6"
       id="nums_003"
       stroke="#000000"
       style="stroke-width:1.01549;stroke-dasharray:none" />
    <path
       d="m 1247.3,581.6 -34,68.3 -37.9,-26.1 6.1,-38.9 -14.1,36.7 -18,-53.3 -28.8,-22.4 -43,-2.1 1.4,-76.2 60.7,15.3 43.7,62.4 -35,-86.9 70.6,-16.8 80.1,28.5 83.3,-35.7 52.2,-46 12.5,-91.4 -44.6,-58.2 -111.1,-41.1 89.5,77.6 59.7,42.6 -114.6,79.9 -109.9,-14.6 -113,38 22.3,-171.7 72.1,-8.5 5.5,-93.5 41.1,-64.1 54.4,-39.1 131.6,-32.5 10.2,43.8 -32.8,78.1 72,-44.7 19,43.1 -6.2,92.3 33.2,37.6 19.2,51 -32.6,28.9 34.7,10.7 -12.6,70 5.5,76.7 -77.3,-0.4 47.3,61.2 -39.9,36.3 -12.9,33.7 -86,-50.4 53,84.5 -12.7,69.7 -120.6,-61.8 -59.8,-30.1 z"
       id="coupes_003"
       stroke="#ff0000"
       style="stroke-width:1.26936"
       sodipodi:nodetypes="ccccccccccccccccccccccccccccccccccccccccccccccccccc" />
    <path
       d="m 1407.5,133.7 91,-1.6 m -6.2,92.3 -84.8,-90.7 m 84.8,90.7 -89.8,14.4 m 0,0 5,-105.1 m 84.8,90.7 -45.2,72.6 m -155.7,-99.3 116.1,-64 m 118,128.3 -78.4,35 m 78.4,-35 -13.4,79.9 m 0,0 22.1,80.7 m 0,0 -99.6,-34.2 m 99.6,34.2 -71.8,76.3 m 0,0 -27.8,-110.5 m 27.8,110.5 -80,-64.5 m 80,64.5 -163.3,-28.8 m 163.3,28.8 -91.5,80.8 m 0,0 -71.8,-109.6 m 210.6,90 -138.8,19.6 m 98.9,16.7 -98.9,-16.7 m 0,0 -123.6,1.9 m 0,0 51.8,-111.5 m -51.8,111.5 -28.3,-140 m -35.6,103.7 35.6,-103.7 m 28.3,140 -65.8,3.3 m 0,0 1.9,-39.6 m 108,-347.6 -47.3,-114.3 m 0,0 163.4,50.3 m -109,-89.4 109,89.4 m -116.1,64 -88.4,-50.2 m 88.4,50.2 -93.9,43.3 m 18.6,142.2 -18.6,-142.2 m 93.9,-43.3 -75.3,185.5 m 75.3,-185.5 34.6,200.1 m 54.9,-122.5 -54.9,122.5 m -109.9,-14.6 -90.7,-133.7 m 56.1,335.4 -32.1,-16.6 m 0,0 34,-23 m -62.8,0.6 62.8,-0.6 m -62.8,0.6 19.1,-63 m -62.1,60.9 62.1,-60.9 m 107.6,98.7 -71.9,42.2 m 195.5,-44.1 -80.3,92.4 m 0,0 -43.3,-90.5 m 176.6,82.6 -133.3,7.9 m 7.9,-627.8 141.8,11.3"
       id="plisM_003"
       stroke="#a52a2a"
       stroke-dasharray="4" />
    <path
       d="m 1512.1,341.9 -65,-44.9 m 65,44.9 -77.5,46.5 m -187.3,193.2 -63.9,-36.3"
       id="plisV_003"
       stroke="#008000"
       stroke-dasharray="4, 1, 1, 1" />
    <path
       d="m 1477.6,317.5 4,4 m 0,-4 -4,4 m -6.3,41.7 4,4 m 0,-4 -4,4 m -258,194.3 4,4 m 0,-4 -4,4"
       id="marqueV_003"
       stroke="#008000" />
    <path
       d="m 1384.7,455.4 h -7.5 l -0.7,6.8 0.7,-0.8 2.3,-0.7 h 2.2 l 2.3,0.7 1.5,1.5 0.7,2.3 v 1.5 l -0.7,2.2 -1.5,1.5 -2.3,0.8 h -2.2 l -2.3,-0.8 -0.7,-0.7 -0.8,-1.5"
       id="titre_5"
       stroke="#4b0082" />
  </g>
  <g
     id="page_004">
    <path
       d="m 2015.7,630.2 0.5,0.8 0.7,0.1 0.5,-0.2 0.5,-0.4 0.2,-0.7 -0.1,-1.2 0.1,-0.9 0.4,-0.8 0.5,-0.4 0.9,-0.3 0.6,0.1 0.4,0.3 0.5,0.7 0.3,1.2 v 0.9 l -0.2,0.4 -0.5,0.5 -0.9,0.2 -0.6,-0.1 -0.8,-0.4 -0.5,-0.8 -0.6,-1.1 -0.5,-0.5 -0.6,-0.1 -0.6,0.1 -0.5,0.5 v 0.9 l 0.3,1.3 m -1.5,-5.3 0.6,0.8 0.6,0.2 0.6,-0.2 0.5,-0.5 0.1,-0.6 v -1.3 -0.9 l 0.5,-0.7 0.5,-0.5 0.8,-0.2 0.7,0.1 0.3,0.2 0.6,0.8 0.3,1.1 v 1 l -0.3,0.4 -0.4,0.4 -0.9,0.3 -0.7,-0.2 -0.7,-0.4 -0.5,-0.8 -0.7,-1 -0.4,-0.5 -0.7,-0.2 -0.5,0.2 -0.5,0.4 -0.1,1 0.4,1.3 m -14.6,13.9 -0.9,0.3 -0.3,0.6 v 0.6 l 0.3,0.6 0.7,0.3 1.2,0.2 0.9,0.3 0.6,0.6 0.3,0.6 v 0.9 l -0.2,0.6 -0.3,0.3 -0.9,0.3 -1.2,0.1 -0.9,-0.3 -0.3,-0.3 -0.4,-0.6 v -0.9 l 0.3,-0.6 0.6,-0.6 0.9,-0.4 1.2,-0.3 0.5,-0.3 0.3,-0.6 v -0.6 l -0.3,-0.6 -0.9,-0.3 -1.4,0.1 m 8.1,-0.3 -2.8,6.4 m -1.4,-6.3 4.2,-0.1 m -3.5,-60.2 0.9,0.1 0.8,0.4 0.5,0.8 0.1,0.3 -0.1,1 -0.4,0.7 -0.8,0.5 -0.3,0.1 -1,-0.1 -0.7,-0.4 -0.5,-0.8 -0.1,-0.3 0.1,-0.9 0.4,-0.8 1.1,-0.6 1.4,-0.3 1.6,-0.1 1,0.4 0.5,0.8 0.2,0.5 -0.1,1 -0.5,0.4 m -6.6,-3.8 -0.8,-3.2 2.8,1.1 -0.2,-0.8 0.1,-0.7 0.2,-0.4 0.8,-0.5 0.6,-0.1 1,0.1 0.7,0.4 0.5,0.8 0.2,0.9 -0.1,0.9 -0.2,0.4 -0.5,0.4 m -48.4,-28.9 -0.5,0.7 -0.8,0.4 h -0.9 l -0.3,-0.1 -0.8,-0.6 -0.3,-0.8 v -0.9 l 0.1,-0.3 0.5,-0.8 0.8,-0.3 h 1 l 0.2,0.1 0.8,0.6 0.4,0.7 -0.2,1.3 -0.4,1.4 -0.8,1.3 -0.9,0.6 h -0.9 l -0.6,-0.2 -0.8,-0.6 v -0.6 m 7.9,-2.9 -0.9,-0.1 -0.9,0.7 -0.8,1.3 -0.3,0.9 -0.2,1.5 0.3,1 0.7,0.6 0.6,0.2 h 1 l 0.8,-0.6 0.8,-1.4 0.3,-0.8 0.2,-1.5 -0.3,-1.1 -0.7,-0.5 -0.4,-0.2 m -24.1,-66.1 0.4,-0.9 -0.2,-0.6 -0.4,-0.4 -0.6,-0.3 -0.7,0.2 -1.1,0.6 -0.8,0.4 h -0.9 l -0.6,-0.2 -0.6,-0.7 -0.2,-0.6 v -0.4 l 0.4,-0.9 0.9,-0.8 0.9,-0.4 h 0.4 l 0.6,0.2 0.6,0.7 0.2,0.6 v 0.9 l -0.4,0.8 -0.7,1.1 -0.2,0.6 0.2,0.6 0.4,0.5 0.6,0.2 0.9,-0.4 1,-0.9 m -7.2,3.9 -0.4,-0.8 v -0.9 l 0.5,-0.8 0.2,-0.2 0.8,-0.4 h 0.9 l 0.8,0.4 0.2,0.2 0.4,0.9 v 0.8 l -0.4,0.9 -0.2,0.2 -0.9,0.4 h -0.8 l -1.1,-0.7 -1,-1.1 -0.8,-1.3 -0.2,-1 0.4,-0.9 0.4,-0.4 0.9,-0.4 0.6,0.2 m -11.6,-90.7 2.9,-1 -0.7,-2.7 -0.1,0.4 -0.8,0.6 -0.8,0.3 h -1 l -0.7,-0.3 -0.6,-0.8 -0.2,-0.5 -0.1,-1 0.4,-0.7 0.8,-0.6 0.8,-0.3 0.9,-0.1 0.4,0.2 0.5,0.5 m -3.8,6.8 -3.2,1.1 0.9,-2.9 -0.8,0.3 h -0.7 l -0.4,-0.2 -0.6,-0.8 -0.2,-0.5 v -1 l 0.4,-0.7 0.7,-0.6 0.9,-0.3 0.9,-0.1 0.4,0.2 0.5,0.5 m 5.5,59.1 h -1 l -0.4,0.5 -0.2,0.6 0.2,0.7 0.5,0.4 1.1,0.6 0.8,0.5 0.4,0.8 0.1,0.6 -0.2,0.9 -0.4,0.5 -0.4,0.2 -1,0.1 -1.1,-0.3 -0.8,-0.6 -0.2,-0.3 -0.2,-0.7 0.3,-0.9 0.4,-0.5 0.7,-0.4 1,-0.1 1.2,0.1 0.7,-0.2 0.4,-0.5 0.2,-0.6 -0.2,-0.6 -0.7,-0.5 -1.4,-0.4 m 7.1,4.1 -0.5,0.8 -0.7,0.4 -1,0.1 -0.2,-0.1 -0.8,-0.5 -0.5,-0.8 v -0.9 l 0.1,-0.3 0.5,-0.8 0.7,-0.4 1,-0.1 0.2,0.1 0.8,0.5 0.5,0.7 -0.1,1.3 -0.3,1.4 -0.7,1.4 -0.8,0.7 -1,0.1 -0.6,-0.2 -0.7,-0.5 -0.2,-0.7 m -74.1,-75.2 2.6,1.5 1.6,-2.2 -0.4,0.1 -1,-0.2 -0.8,-0.4 -0.6,-0.7 -0.2,-0.9 0.2,-0.9 0.3,-0.5 0.7,-0.6 0.8,-0.3 0.9,0.2 0.8,0.5 0.6,0.7 0.1,0.4 v 0.6 m -6.4,0.6 h -0.7 l -1.2,0.4 3.1,-5.5 m -38.1,1.3 1,-2.8 -2.4,-1.2 0.1,0.4 v 1 l -0.3,0.8 -0.6,0.7 -0.7,0.4 h -1 l -0.5,-0.2 -0.8,-0.6 -0.4,-0.8 0.1,-0.9 0.3,-0.9 0.5,-0.7 0.4,-0.2 0.7,-0.1 m 1,9.9 0.6,-0.1 0.6,-0.8 0.2,-0.5 v -1 l -0.6,-0.8 -1.3,-0.8 -1.5,-0.5 -1.2,-0.1 -0.7,0.3 -0.6,0.8 -0.1,0.3 -0.1,0.9 0.4,0.8 0.8,0.6 0.2,0.1 h 1 l 0.8,-0.4 0.5,-0.7 0.1,-0.3 0.1,-1 -0.4,-0.7 -0.8,-0.6 m 154.5,-0.2 2.6,-1.5 -1,-2.5 -0.1,0.4 -0.7,0.7 -0.8,0.4 -0.9,0.2 -0.8,-0.2 -0.7,-0.6 -0.3,-0.6 -0.2,-0.9 0.2,-0.8 0.7,-0.7 0.7,-0.5 1,-0.1 0.4,0.1 0.5,0.3 m -5.2,8.9 2.6,-1.5 -1.1,-2.5 -0.1,0.4 -0.6,0.7 -0.8,0.5 -0.9,0.2 -0.8,-0.3 -0.7,-0.6 -0.3,-0.5 -0.2,-0.9 0.2,-0.9 0.6,-0.7 0.8,-0.4 0.9,-0.2 0.4,0.1 0.6,0.4 m 42.7,111.6 0.9,-0.3 0.8,0.1 0.8,0.4 0.2,0.3 0.4,0.9 -0.1,0.8 -0.5,0.8 -0.2,0.2 -0.9,0.4 -0.9,-0.1 -0.8,-0.5 -0.2,-0.2 -0.3,-0.9 0.1,-0.9 0.7,-1 1.1,-0.9 1.4,-0.8 1.1,-0.1 0.8,0.5 0.4,0.5 0.3,0.8 -0.3,0.7 m -9.5,-3 2,2.3 2.2,-1.5 h -0.4 l -0.8,-0.5 -0.6,-0.7 -0.3,-0.9 0.1,-0.8 0.5,-0.8 0.4,-0.4 0.9,-0.4 0.8,0.1 0.8,0.5 0.6,0.7 0.4,0.9 -0.1,0.4 -0.2,0.6 m 3.4,45.9 0.8,0.6 0.4,0.8 v 0.9 l -0.1,0.3 -0.6,0.8 -0.7,0.4 h -1 l -0.3,-0.1 -0.7,-0.6 -0.4,-0.8 v -0.9 l 0.1,-0.3 0.5,-0.8 0.8,-0.3 h 1.2 l 1.4,0.5 1.4,0.8 0.6,0.8 v 1 l -0.1,0.5 -0.6,0.8 -0.7,0.1 m -2.7,-9.2 3,4.2 1.4,-4.3 m -4.4,0.1 6,1.9 m 13.6,-200.8 1.4,2.6 2.5,-0.9 -0.4,-0.2 -0.7,-0.6 -0.4,-0.8 -0.2,-1 0.3,-0.8 0.7,-0.6 0.5,-0.3 0.9,-0.2 0.8,0.3 0.7,0.6 0.4,0.8 0.2,1 -0.1,0.4 -0.4,0.5 m -8.9,-6 7,-0.2 m -5.1,4 -1.9,-3.8 m -18.3,-13.2 3,0.4 0.6,-2.7 -0.3,0.3 -0.9,0.2 -0.9,-0.1 -0.9,-0.4 -0.5,-0.7 -0.2,-0.9 0.1,-0.6 0.4,-0.9 0.6,-0.5 1,-0.2 0.9,0.1 0.8,0.4 0.3,0.4 0.2,0.6 m -9.5,1.8 0.4,-0.8 0.6,-0.5 1,-0.2 h 0.3 l 0.8,0.4 0.5,0.7 0.2,0.9 v 0.3 l -0.4,0.9 -0.7,0.5 -0.9,0.2 h -0.3 l -0.9,-0.5 -0.5,-0.6 -0.1,-1.3 0.1,-1.4 0.5,-1.5 0.7,-0.8 1,-0.2 0.6,0.1 0.8,0.4 0.2,0.6 m -49.9,29.8 0.2,-0.7 -0.5,-0.8 -0.5,-0.4 -0.9,-0.3 -1,0.3 -1.2,1 -0.9,1.1 -0.6,1.1 0.1,0.9 0.5,0.8 0.2,0.2 0.9,0.3 0.9,-0.1 0.8,-0.5 0.2,-0.2 0.3,-0.9 -0.1,-0.8 -0.5,-0.8 -0.2,-0.2 -0.9,-0.4 -0.8,0.1 -0.8,0.5 m 7.9,1.1 -0.9,-0.3 -1,0.3 -1.2,1 -0.6,0.7 -0.7,1.3 -0.1,1.1 0.5,0.8 0.5,0.4 0.8,0.3 1.1,-0.3 1.2,-1 0.5,-0.7 0.8,-1.3 0.1,-1.1 -0.5,-0.8 -0.4,-0.3 m -53.5,-24.8 -0.3,-0.6 -0.9,-0.4 h -0.6 l -0.9,0.3 -0.6,0.9 -0.3,1.5 v 1.5 l 0.3,1.2 0.6,0.6 0.9,0.3 h 0.3 l 0.9,-0.3 0.6,-0.5 0.3,-0.9 v -0.3 l -0.3,-0.9 -0.6,-0.6 -0.9,-0.4 h -0.3 l -0.9,0.3 -0.6,0.6 -0.3,0.9 m 5.6,-4.1 h 3.3 l -1.8,2.4 h 0.9 l 0.6,0.3 0.3,0.3 0.3,0.9 v 0.6 l -0.3,0.9 -0.6,0.6 -0.9,0.3 h -0.9 l -0.9,-0.3 -0.3,-0.3 -0.3,-0.6 m 50.2,-53.4 -0.3,0.5 0.2,1 0.3,0.5 0.7,0.6 h 1.1 l 1.4,-0.5 1.3,-0.7 0.9,-0.9 0.2,-0.8 -0.2,-1 -0.2,-0.2 -0.7,-0.6 -0.8,-0.2 -0.9,0.2 -0.3,0.1 -0.6,0.7 -0.2,0.9 0.2,0.9 0.1,0.2 0.8,0.7 0.8,0.2 0.9,-0.2 m -8.3,-5.7 7,-0.7 m -4.8,4.3 -2.2,-3.6 m -73.9,-22.5 0.4,0.5 0.9,0.2 0.6,-0.1 0.9,-0.4 0.4,-1 0.1,-1.6 -0.2,-1.4 -0.5,-1.2 -0.7,-0.5 -0.9,-0.1 h -0.3 l -0.9,0.4 -0.5,0.7 -0.1,1 v 0.3 l 0.4,0.8 0.7,0.5 1,0.2 0.3,-0.1 0.8,-0.4 0.5,-0.7 0.2,-0.9 m -5.9,5.1 0.9,-0.4 0.2,-0.7 -0.1,-0.6 -0.4,-0.5 -0.6,-0.2 -1.3,-0.1 -0.9,-0.2 -0.7,-0.5 -0.4,-0.5 -0.1,-0.9 0.2,-0.7 0.2,-0.3 0.9,-0.4 1.2,-0.2 0.9,0.1 0.3,0.3 0.4,0.5 0.2,0.9 -0.2,0.7 -0.5,0.7 -0.9,0.4 -1.1,0.5 -0.6,0.4 -0.2,0.6 0.1,0.6 0.4,0.5 0.9,0.2 1.4,-0.2 m 6.3,-25.1 0.2,-0.6 -0.6,-0.8 -0.4,-0.4 -0.9,-0.4 -1,0.4 -1.2,0.9 -1,1.2 -0.5,1.1 0.1,0.9 0.5,0.8 0.2,0.2 0.9,0.3 0.9,-0.1 0.8,-0.5 0.2,-0.2 0.3,-0.9 -0.1,-0.9 -0.5,-0.8 -0.2,-0.2 -0.9,-0.3 -0.9,0.1 -0.8,0.5 m 7.8,0.9 -0.9,-0.4 -0.6,0.3 -0.4,0.5 -0.2,0.6 0.3,0.6 0.8,1 0.5,0.8 0.1,0.9 -0.2,0.6 -0.6,0.7 -0.6,0.3 -0.4,0.1 -0.9,-0.4 -0.9,-0.7 -0.5,-0.8 -0.1,-0.5 0.2,-0.6 0.6,-0.7 0.6,-0.3 0.8,-0.1 0.9,0.4 1.1,0.5 0.7,0.1 0.6,-0.2 0.4,-0.5 0.1,-0.7 -0.5,-0.8 -1,-0.8 m 50.3,-78.3 5.6,-4.1 m -1.9,6.1 -3.7,-2 m -2.6,-1.4 0.9,0.1 1,-0.5 1,-1.2 0.4,-0.7 0.5,-1.5 -0.1,-1.1 -0.7,-0.7 -0.5,-0.3 -0.9,-0.1 -1,0.5 -1,1.1 -0.4,0.8 -0.5,1.5 0.1,1.1 0.7,0.7 0.4,0.2 m 16.9,55.7 2.4,6.6 m -5.3,-3.6 2.9,-3 m 1.8,0.2 0.2,-0.6 v -1.3 l 4.5,4.4 m 40.7,-48.3 2.9,-6.4 m 1.3,6.3 -4.2,0.1 m -1.7,-1.5 v 0.3 l -0.3,0.6 -0.3,0.3 -0.6,0.3 h -1.2 l -0.6,-0.3 -0.3,-0.3 -0.3,-0.5 v -0.6 l 0.3,-0.7 0.6,-0.9 2.9,-3 -4.2,0.1 m -134.2,120.4 -3.9,-5.8 m 6,2.2 -2.1,3.6 m -0.9,1.5 -1.7,2.9 -1.2,-2.8 -0.4,0.8 -0.6,0.3 -0.4,0.1 -0.9,-0.2 -0.5,-0.3 -0.7,-0.7 -0.2,-0.8 0.2,-0.9 0.5,-0.8 0.7,-0.6 0.4,-0.1 h 0.7 m 6.4,61.8 -0.4,-0.5 -1,-0.1 -0.5,0.1 -0.9,0.5 -0.4,1 0.1,1.5 0.3,1.5 0.5,1.1 0.7,0.4 1,0.1 h 0.3 l 0.8,-0.5 0.4,-0.7 0.1,-0.9 v -0.3 l -0.5,-0.9 -0.7,-0.4 -0.9,-0.1 h -0.3 l -0.9,0.5 -0.4,0.7 -0.1,1 m 7.1,-5.9 -2.1,4.7 4.4,-0.9 m -2.3,-3.8 1.3,6.2 m 165,-161.8 6.4,2.8 m -6.3,1.4 -0.1,-4.2 m -0.1,-4.8 0.1,3 2.7,0.3 -0.3,-0.3 -0.3,-0.9 -0.1,-0.9 0.3,-0.9 0.6,-0.6 0.9,-0.4 h 0.6 l 0.9,0.3 0.6,0.6 0.3,0.9 0.1,0.9 -0.3,0.9 -0.3,0.3 -0.6,0.3 m -49.6,27.7 -6.2,-3.1 m 6.3,-1.1 -0.1,4.2 m 0,4.3 -4.1,-3.1 -0.2,4.5 m 4.3,-1.4 -6.3,-0.1 m -180.7,154.1 -0.5,-0.3 -0.9,0.2 -0.6,0.3 -0.6,0.7 v 1.1 l 0.5,1.4 0.8,1.3 0.9,0.9 0.9,0.2 0.9,-0.3 0.2,-0.1 0.6,-0.8 0.2,-0.8 -0.2,-0.9 -0.2,-0.3 -0.7,-0.6 -0.8,-0.2 -0.9,0.3 -0.3,0.1 -0.6,0.8 -0.2,0.8 0.2,0.9 m 5.6,-7.4 -0.5,-0.3 -1,0.2 -0.5,0.3 -0.6,0.8 v 1 l 0.5,1.5 0.8,1.2 0.9,0.9 0.8,0.2 1,-0.2 0.2,-0.2 0.6,-0.7 0.2,-0.8 -0.2,-1 -0.2,-0.2 -0.7,-0.6 -0.8,-0.2 -0.9,0.2 -0.3,0.2 -0.6,0.7 -0.2,0.8 0.2,0.9 m 12.5,-68.3 0.1,0.7 0.7,0.6 0.6,0.1 h 1 l 0.8,-0.7 0.7,-1.3 0.5,-1.4 v -1.3 l -0.3,-0.7 -0.8,-0.6 -0.3,-0.1 h -1 l -0.7,0.4 -0.6,0.8 v 0.3 0.9 l 0.4,0.8 0.7,0.6 h 0.3 1 l 0.7,-0.4 0.6,-0.7 m -9.2,-0.7 0.6,-0.8 0.7,-0.4 h 1 l 0.2,0.1 0.8,0.6 0.4,0.7 v 1 l -0.1,0.2 -0.5,0.8 -0.8,0.4 h -0.9 l -0.3,-0.1 -0.8,-0.5 -0.4,-0.8 0.1,-1.2 0.5,-1.4 0.7,-1.4 0.8,-0.7 h 1 l 0.5,0.2 0.8,0.6 0.1,0.6 m -67.2,68.2 0.1,-0.7 -0.5,-0.8 -0.4,-0.3 -0.9,-0.4 -1.1,0.4 -1.1,0.9 -1,1.2 -0.5,1.2 0.1,0.8 0.5,0.8 0.3,0.2 0.9,0.3 0.8,-0.1 0.8,-0.5 0.2,-0.3 0.3,-0.8 -0.1,-0.9 -0.5,-0.8 -0.2,-0.2 -0.9,-0.3 -0.9,0.1 -0.8,0.5 m 6.1,1.4 0.2,-0.3 0.6,-0.3 h 0.4 l 0.6,0.1 1,0.8 0.3,0.6 v 0.4 l -0.1,0.7 -0.4,0.4 -0.6,0.3 -1,0.4 -4.3,0.4 3.3,2.6 m 12.4,-49.3 0.6,0.3 0.9,-0.3 0.5,-0.4 0.5,-0.8 -0.1,-1.1 -0.7,-1.3 -0.9,-1.2 -1,-0.8 -0.8,-0.1 -0.9,0.3 -0.3,0.2 -0.5,0.8 -0.1,0.9 0.4,0.9 0.1,0.2 0.8,0.5 0.9,0.1 0.9,-0.3 0.2,-0.2 0.5,-0.8 0.1,-0.8 -0.3,-0.9 m -4.5,8.9 -1.6,-6.8 m 4.9,4.2 -3.3,2.6 m 112.4,-124 -6.9,-0.8 m 5.6,-3.1 1.3,3.9 m 0.5,1.7 1.1,3.1 -2.9,-0.9 0.3,0.8 -0.1,0.7 -0.2,0.4 -0.7,0.5 -0.6,0.2 h -0.9 l -0.8,-0.4 -0.6,-0.7 -0.3,-0.9 v -0.9 l 0.2,-0.4 0.5,-0.5 m 43.8,-63.5 5.5,-4.3 m -1.7,6.2 -3.8,-1.9 m -3.9,-1.8 4.6,-2.5 -4.1,-1.9 m -0.5,4.4 2.8,-5.7 m -53.8,21.1 0.5,-0.5 0.1,-0.9 -0.2,-0.6 -0.5,-0.8 -1.1,-0.3 -1.5,0.1 -1.4,0.4 -1.1,0.6 -0.4,0.8 -0.1,0.9 0.1,0.3 0.5,0.8 0.8,0.4 h 0.9 0.3 l 0.8,-0.6 0.4,-0.7 0.1,-1 -0.1,-0.2 -0.6,-0.8 -0.7,-0.4 -0.9,-0.1 m 4.4,8.1 -0.9,-0.1 -0.8,-0.4 -0.5,-0.8 -0.1,-0.3 0.1,-0.9 0.4,-0.8 0.8,-0.5 0.2,-0.1 1,0.1 0.7,0.4 0.6,0.8 v 0.2 1 l -0.4,0.7 -1.1,0.7 -1.4,0.4 -1.5,0.1 -1.1,-0.3 -0.5,-0.8 -0.2,-0.6 0.1,-1 0.5,-0.4 m 21.9,-18 2,-6.7 m 2.2,6 -4.2,0.7 m -1.2,-1.2 -0.6,0.4 -0.7,1 -1.1,-6.2 m 157.9,89.6 5.4,4.5 m -6.4,-0.5 1,-4 m 2.1,-4.4 -0.7,0.1 -0.5,0.8 -0.1,0.6 v 1 l 0.8,0.8 1.3,0.6 1.5,0.4 h 1.2 l 0.8,-0.4 0.5,-0.8 v -0.3 -0.9 l -0.5,-0.8 -0.8,-0.5 -0.2,-0.1 -1,0.1 -0.7,0.4 -0.5,0.8 -0.1,0.3 0.1,1 0.4,0.7 0.8,0.5 m 4,189 0.9,0.4 0.6,0.7 0.2,0.9 -0.1,0.3 -0.4,0.8 -0.6,0.6 -0.9,0.2 h -0.3 l -0.9,-0.4 -0.5,-0.7 -0.2,-0.9 v -0.3 l 0.4,-0.9 0.6,-0.5 1.2,-0.2 1.5,0.2 1.5,0.4 0.8,0.7 0.2,0.9 v 0.6 l -0.4,0.9 -0.6,0.2 m -3.7,-8.7 -0.6,0.2 -0.4,0.9 -0.1,0.6 0.3,0.9 0.8,0.7 1.5,0.4 1.5,0.2 1.2,-0.2 0.6,-0.5 0.4,-0.9 v -0.3 l -0.2,-0.9 -0.5,-0.7 -0.9,-0.4 h -0.3 l -0.9,0.2 -0.6,0.5 -0.4,0.9 -0.1,0.3 0.2,0.9 0.6,0.7 0.9,0.4 m -26.9,56.8 0.2,0.9 -0.1,0.9 -0.6,0.7 -0.3,0.1 -0.9,0.3 -0.8,-0.2 -0.8,-0.6 -0.1,-0.3 -0.3,-0.9 0.2,-0.8 0.6,-0.8 0.3,-0.1 0.9,-0.2 0.8,0.1 0.9,0.9 0.8,1.3 0.6,1.4 -0.1,1.1 -0.6,0.7 -0.5,0.3 -0.9,0.3 -0.6,-0.4 m 4.2,-9 -2.5,1.6 1.2,2.4 v -0.4 l 0.6,-0.7 0.8,-0.5 0.9,-0.2 0.9,0.2 0.7,0.6 0.3,0.5 0.2,0.9 -0.1,0.8 -0.6,0.8 -0.8,0.5 -0.9,0.2 -0.4,-0.1 -0.6,-0.4 m -44,140.5 -0.3,-0.9 0.1,-0.9 0.5,-0.7 0.3,-0.2 0.9,-0.3 0.8,0.1 0.8,0.6 0.2,0.2 0.3,0.9 -0.2,0.9 -0.5,0.7 -0.2,0.2 -0.9,0.3 -0.9,-0.1 -0.9,-0.8 -0.9,-1.2 -0.7,-1.4 v -1.1 l 0.5,-0.8 0.5,-0.3 0.9,-0.3 0.6,0.3 m -2.1,8.2 0.6,-0.7 -0.1,-1.1 -0.6,-1.4 -0.6,-0.7 -1.1,-1.1 -1,-0.3 -0.9,0.3 -0.5,0.3 -0.5,0.8 v 1.1 l 0.7,1.3 0.5,0.8 1.1,1 1,0.4 0.9,-0.3 0.4,-0.3 m -13.8,60.5 -0.9,0.4 -0.3,0.6 v 0.6 l 0.3,0.6 0.6,0.2 1.2,0.3 0.9,0.3 0.6,0.6 0.4,0.6 v 0.9 l -0.3,0.6 -0.3,0.3 -0.9,0.3 h -1.2 l -0.9,-0.2 -0.3,-0.3 -0.3,-0.6 v -0.9 l 0.2,-0.6 0.6,-0.7 0.9,-0.3 1.2,-0.3 0.6,-0.3 0.3,-0.6 v -0.6 l -0.3,-0.6 -0.9,-0.3 h -1.4 m 8.1,-0.1 -2.9,6.3 m -1.3,-6.2 4.2,-0.1 m -38.3,-88.9 0.1,1 -0.2,0.8 -0.7,0.7 -0.2,0.1 -1,0.2 -0.8,-0.2 -0.7,-0.7 -0.1,-0.2 -0.2,-1 0.3,-0.8 0.6,-0.7 0.3,-0.1 0.9,-0.2 0.8,0.2 0.9,0.9 0.7,1.4 0.4,1.4 -0.1,1.1 -0.6,0.7 -0.5,0.3 -1,0.1 -0.5,-0.3 m 2.2,-5.8 0.3,-0.5 0.4,-1.3 3,5.6 m -24,-20.2 -0.9,0.1 -0.8,-0.3 -0.6,-0.7 -0.2,-0.3 -0.1,-0.9 0.3,-0.8 0.7,-0.7 0.3,-0.1 0.9,-0.1 0.8,0.3 0.7,0.7 0.1,0.3 0.1,0.9 -0.3,0.8 -1,0.8 -1.3,0.6 -1.5,0.4 -1.1,-0.2 -0.6,-0.7 -0.3,-0.5 -0.1,-1 0.4,-0.5 m 8.3,4.9 -5.1,-1 1.9,4.1 m 3.2,-3.1 -5.7,2.6 m 2.7,-31.8 -0.1,-1 0.2,-0.8 0.7,-0.7 0.2,-0.1 1,-0.1 0.8,0.2 0.7,0.7 0.1,0.2 0.2,1 -0.3,0.8 -0.7,0.7 -0.2,0.1 -1,0.1 -0.8,-0.2 -0.8,-0.9 -0.7,-1.4 -0.4,-1.4 0.1,-1.1 0.7,-0.7 0.5,-0.3 0.9,-0.1 0.6,0.4 m -2.9,5.9 0.2,0.2 v 0.7 l -0.2,0.4 -0.4,0.6 -1,0.5 h -0.7 l -0.4,-0.1 -0.5,-0.4 -0.3,-0.5 v -0.7 l 0.1,-1.1 1.3,-4 -3.8,1.9 m -7.9,-46.8 0.7,0.7 0.3,0.7 -0.1,1 -0.1,0.3 -0.6,0.7 -0.8,0.3 -1,-0.1 -0.2,-0.1 -0.8,-0.7 -0.3,-0.7 0.1,-1 0.1,-0.3 0.7,-0.7 0.8,-0.3 1.2,0.2 1.4,0.6 1.2,0.9 0.6,0.9 -0.1,0.9 -0.2,0.6 -0.7,0.7 h -0.6 m -1.5,-6.3 -0.3,-0.2 -0.4,-0.5 -0.2,-0.4 v -0.6 l 0.5,-1.1 0.5,-0.5 0.4,-0.1 0.7,-0.1 0.5,0.3 0.4,0.5 0.6,0.9 1.6,3.9 1.6,-3.8 m -50.2,-1.5 -0.5,0.7 -0.8,0.4 h -1 l -0.2,-0.1 -0.8,-0.6 -0.4,-0.7 v -1 l 0.1,-0.3 0.6,-0.7 0.7,-0.4 h 1 l 0.3,0.1 0.7,0.6 0.4,0.7 -0.1,1.3 -0.5,1.4 -0.7,1.3 -0.9,0.7 h -0.9 l -0.6,-0.2 -0.7,-0.6 -0.1,-0.7 m 9.3,-1.6 -0.1,-0.6 -0.7,-0.6 -0.6,-0.2 h -1 l -0.8,0.7 -0.8,1.3 -0.5,1.4 -0.1,1.2 0.4,0.8 0.8,0.6 0.3,0.1 h 0.9 l 0.8,-0.4 0.5,-0.8 0.1,-0.3 v -0.9 l -0.3,-0.8 -0.8,-0.5 -0.3,-0.1 h -0.9 l -0.8,0.4 -0.6,0.7 m -37.8,-40 v -3 l -2.7,-0.3 0.3,0.3 0.3,0.9 v 0.9 l -0.3,0.9 -0.6,0.6 -0.9,0.3 h -0.6 l -0.9,-0.3 -0.6,-0.6 -0.3,-0.9 V 415 l 0.3,-0.9 0.3,-0.3 0.6,-0.3 m 5.1,6.9 -0.3,-1 -0.6,-0.3 h -0.6 l -0.6,0.3 -0.3,0.6 -0.3,1.2 -0.3,0.9 -0.6,0.6 -0.6,0.3 h -0.9 l -0.6,-0.3 -0.3,-0.3 -0.3,-0.9 v -1.2 l 0.3,-0.9 0.3,-0.3 0.6,-0.3 h 0.9 l 0.6,0.3 0.6,0.6 0.3,0.9 0.3,1.2 0.3,0.6 0.6,0.3 h 0.6 l 0.6,-0.3 0.3,-0.8 v -1.4 m 168.5,-211.7 -4,-5.7 m 6.1,2 -2.1,3.7 m -1.4,2.5 0.1,-0.9 -0.4,-0.9 -1.2,-1 -0.8,-0.5 -1.4,-0.5 -1.1,0.1 -0.7,0.6 -0.3,0.6 -0.2,0.9 0.5,1 1.1,1 0.8,0.4 1.5,0.5 1.1,-0.1 0.7,-0.6 0.2,-0.4 m 23.4,23.2 -5.8,3.9 m 2.2,-6 3.6,2.1 m 0.6,2.1 0.2,-0.2 0.6,-0.4 0.4,-0.1 0.6,0.1 1.1,0.6 0.3,0.5 0.1,0.5 v 0.6 l -0.3,0.5 -0.6,0.4 -1,0.5 -4.1,1 3.6,2.2 m 44.7,-15.6 5.6,-4.2 m -1.9,6.2 -3.7,-2 m -3.8,-3 v 0.7 l 0.6,0.7 0.6,0.2 0.9,0.2 1,-0.5 0.9,-1.2 0.7,-1.3 0.3,-1.2 -0.2,-0.8 -0.7,-0.7 -0.3,-0.2 -0.9,-0.1 -0.8,0.2 -0.7,0.7 -0.1,0.3 -0.2,0.9 0.3,0.8 0.6,0.7 0.3,0.1 0.9,0.2 0.8,-0.3 0.7,-0.6 m -4,17.9 2.2,6.6 m -5.2,-3.7 3,-2.9 m 3.4,-3.3 -2.2,2.1 1.7,2.1 v -0.4 l 0.4,-0.9 0.7,-0.6 0.8,-0.4 h 0.9 l 0.8,0.4 0.4,0.5 0.5,0.8 -0.1,0.9 -0.4,0.8 -0.6,0.6 -0.9,0.4 h -0.4 l -0.6,-0.2 m -114.9,345.5 0.3,-0.9 0.6,-0.6 0.9,-0.3 0.3,0.1 0.9,0.3 0.6,0.6 0.3,0.9 -0.1,0.3 -0.3,0.9 -0.6,0.6 -0.9,0.3 -0.3,-0.1 -0.9,-0.3 -0.6,-0.6 -0.2,-1.2 v -1.5 l 0.4,-1.5 0.6,-0.9 1,-0.2 h 0.6 l 0.8,0.3 0.3,0.6 m -4.8,3.8 -0.6,0.3 -1,0.8 0.3,-6.3 m -21.3,24 -0.7,-0.6 -0.3,-0.8 v -0.9 l 0.2,-0.3 0.6,-0.7 0.8,-0.3 h 0.9 l 0.3,0.2 0.7,0.6 0.3,0.8 -0.1,0.9 -0.1,0.3 -0.6,0.7 -0.8,0.3 -1.2,-0.2 -1.4,-0.6 -1.3,-0.8 -0.5,-1 v -0.9 l 0.3,-0.6 0.6,-0.7 h 0.7 m 2.8,7 -1.3,3.1 -1.5,-2.6 -0.3,0.8 -0.6,0.4 -0.4,0.2 -0.9,-0.1 -0.6,-0.2 -0.7,-0.7 -0.3,-0.8 0.1,-0.9 0.4,-0.8 0.6,-0.7 0.4,-0.2 h 0.7 m 6.9,23.2 h -0.9 l -0.5,0.4 -0.3,0.6 0.1,0.7 0.4,0.5 1,0.7 0.8,0.6 0.3,0.8 v 0.6 l -0.3,0.9 -0.5,0.4 -0.4,0.2 -0.9,-0.1 -1.1,-0.4 -0.8,-0.6 -0.1,-0.4 -0.1,-0.7 0.3,-0.8 0.6,-0.5 0.7,-0.3 1,0.1 1.2,0.1 h 0.7 l 0.5,-0.5 0.2,-0.5 -0.1,-0.7 -0.7,-0.6 -1.2,-0.5 m 5.1,2 h -1 l -0.5,0.4 -0.2,0.6 0.1,0.6 0.4,0.6 1,0.7 0.7,0.6 0.4,0.8 v 0.6 l -0.3,0.9 -0.5,0.4 -0.4,0.2 -1,-0.1 -1.1,-0.4 -0.7,-0.6 -0.2,-0.4 v -0.7 l 0.3,-0.8 0.5,-0.5 0.8,-0.3 0.9,0.1 1.3,0.1 h 0.6 l 0.5,-0.5 0.3,-0.5 -0.1,-0.7 -0.7,-0.6 -1.3,-0.5 m -176.4,-594.3 5.1,0.2 -2.4,-3.8 m -2.7,3.6 5.3,-3.4 m -8.5,-1.5 5.2,0.3 -2.5,-3.8 m -2.7,3.5 5.3,-3.4 m -42.1,29 0.3,0.6 0.9,0.9 -6.3,0.1 m 5,1.6 h 0.3 l 0.6,0.3 0.3,0.3 0.3,0.6 v 1.2 l -0.3,0.6 -0.3,0.3 -0.6,0.3 h -0.6 l -0.6,-0.3 -0.9,-0.6 -3,-3 v 4.2 m 4.8,1.7 h 0.3 l 0.6,0.3 0.3,0.3 0.3,0.6 v 1.2 l -0.3,0.6 -0.3,0.3 -0.6,0.3 h -0.6 l -0.6,-0.3 -0.9,-0.6 -3,-3 0.1,4.2 m 21,-48.5 3.3,-3.9 -4.5,-0.4 m 1.2,4.3 0.4,-6.3 m -6.7,5.8 3,0.2 0.5,-2.6 -0.3,0.2 -0.9,0.3 -0.9,-0.1 -0.9,-0.4 -0.5,-0.6 -0.3,-0.9 0.1,-0.6 0.3,-0.9 0.7,-0.6 0.9,-0.2 0.9,0.1 0.9,0.3 0.2,0.4 0.3,0.6 m -31.6,231 0.3,0.1 0.5,0.4 0.2,0.4 0.2,0.7 -0.3,1.1 -0.4,0.5 -0.4,0.3 -0.7,0.1 -0.5,-0.1 -0.6,-0.5 -0.7,-0.8 -2.2,-3.6 -1,4.1 m 5,6.1 0.7,-2.9 -2.5,-1 0.2,0.4 0.1,0.9 -0.2,0.9 -0.6,0.8 -0.7,0.5 h -0.9 l -0.6,-0.1 -0.8,-0.5 -0.5,-0.7 v -1 l 0.2,-0.9 0.5,-0.8 0.4,-0.2 0.6,-0.1 m -17.2,-215.2 2,-2.3 -1.9,-2 V 35 l -0.3,0.8 -0.6,0.7 -0.8,0.5 -0.9,0.1 -0.9,-0.4 -0.4,-0.4 -0.5,-0.8 v -0.9 l 0.3,-0.8 0.6,-0.7 0.8,-0.5 h 0.4 l 0.7,0.1 m -0.8,8.8 0.3,-0.9 -0.3,-1 -0.9,-1.3 -0.7,-0.5 -1.3,-0.8 -1.1,-0.1 -0.8,0.4 -0.4,0.5 -0.4,0.9 0.3,1 1,1.2 0.6,0.6 1.4,0.8 1,0.1 0.9,-0.5 0.3,-0.3 m 17.8,35 -0.4,-0.5 -1.1,-0.6 6.1,-1.5 m -5.2,-0.5 -0.3,0.1 -0.7,-0.1 -0.3,-0.3 -0.5,-0.5 -0.3,-1.1 0.2,-0.7 0.2,-0.3 0.5,-0.5 0.6,-0.1 0.6,0.1 1.1,0.4 3.6,2.2 -1,-4.1 m -5.1,-0.5 -0.3,0.1 -0.6,-0.1 -0.4,-0.3 -0.4,-0.5 -0.3,-1.1 0.1,-0.7 0.3,-0.3 0.5,-0.5 0.5,-0.1 0.7,0.1 1,0.4 3.7,2.2 -1.1,-4.1 m -27.7,73.7 0.3,0.5 1,0.9 -6.3,0.4 m 5.1,1.3 h 0.3 l 0.6,0.3 0.3,0.3 0.3,0.5 0.1,1.2 -0.3,0.7 -0.2,0.3 -0.6,0.3 h -0.6 l -0.6,-0.2 -1,-0.6 -3.1,-2.8 0.2,4.2 m 6.4,1.4 0.2,3.3 -2.5,-1.7 v 0.9 l -0.2,0.6 -0.3,0.3 -0.9,0.4 h -0.6 l -0.9,-0.2 -0.6,-0.6 -0.4,-0.9 v -0.9 l 0.2,-0.9 0.3,-0.3 0.6,-0.3 m 11.7,81.2 -0.1,-0.2 0.1,-0.7 0.2,-0.4 0.5,-0.4 1.2,-0.3 0.7,0.1 0.3,0.2 0.5,0.5 0.1,0.6 -0.1,0.7 -0.4,1 -2.1,3.7 4.1,-1.1 m 3.4,-7.5 -1.3,6.9 m -2.8,-5.8 4.1,-1.1 m -14.3,83.1 0.2,0.2 0.3,0.6 v 0.4 l -0.2,0.7 -0.8,0.9 -0.6,0.2 h -0.5 l -0.6,-0.2 -0.4,-0.4 -0.3,-0.6 -0.2,-1.1 -0.2,-4.2 -2.8,3.1 m 2.6,6.4 0.4,-0.8 -0.3,-1.1 -0.9,-1.2 -0.7,-0.6 -1.3,-0.8 -1,-0.2 -0.9,0.4 -0.4,0.5 -0.4,0.8 0.3,1.1 0.9,1.2 0.7,0.6 1.3,0.8 1,0.2 0.9,-0.4 0.3,-0.4 m -8.2,28.1 0.2,-0.2 0.6,-0.3 h 0.4 l 0.7,0.2 0.9,0.8 0.2,0.6 0.1,0.4 -0.2,0.7 -0.4,0.4 -0.6,0.3 -1.1,0.2 -4.2,0.3 3.2,2.8 m 4.4,-2.5 0.2,-0.2 0.6,-0.3 h 0.4 l 0.7,0.1 0.9,0.8 0.2,0.7 0.1,0.4 -0.2,0.6 -0.4,0.5 -0.6,0.2 -1.1,0.3 -4.2,0.3 3.1,2.8 m 65.3,-12.6 -0.3,0.1 -0.7,-0.3 -0.3,-0.2 -0.4,-0.6 -0.1,-1.2 0.2,-0.6 0.3,-0.4 0.6,-0.3 0.6,-0.1 0.6,0.2 1,0.5 3.3,2.7 -0.5,-4.2 m -6.4,-1 -0.4,-3.3 2.6,1.5 -0.1,-0.9 0.2,-0.6 0.3,-0.3 0.8,-0.4 0.6,-0.1 1,0.2 0.6,0.5 0.4,0.9 0.1,0.9 -0.2,0.9 -0.2,0.4 -0.6,0.3 M 1707,396 v -3.3 l 2.4,1.7 v -0.9 l 0.3,-0.6 0.3,-0.3 0.9,-0.3 h 0.6 l 0.9,0.3 0.6,0.5 0.3,0.9 v 0.9 l -0.3,0.9 -0.3,0.3 -0.5,0.4 m -5.3,-7.1 0.3,0.9 0.9,0.6 1.6,0.3 0.9,-0.1 1.4,-0.3 0.9,-0.6 0.3,-0.9 v -0.6 l -0.3,-0.9 -0.9,-0.6 -1.5,-0.3 -0.9,0.1 -1.5,0.3 -0.9,0.6 -0.3,0.9 v 0.5 m -66.7,56.6 0.1,-0.3 0.3,-0.5 0.4,-0.3 0.6,-0.3 1.2,0.2 0.5,0.3 0.3,0.3 0.3,0.7 -0.1,0.6 -0.3,0.5 -0.7,0.9 -3.3,2.7 4.2,0.4 m 4.8,-6 -3.3,3.9 4.5,0.4 m -1.2,-4.3 -0.5,6.3 m -24.7,-34.7 h 0.3 l 0.7,0.1 0.3,0.2 0.5,0.5 0.3,1.2 -0.2,0.7 -0.2,0.3 -0.5,0.5 -0.6,0.1 -0.7,-0.1 -1,-0.4 -3.6,-2.2 1,4.1 m 5,-0.2 0.4,0.5 1.1,0.7 -6.1,1.5 m 20.7,-40.9 0.2,0.3 0.1,0.6 -0.1,0.4 -0.3,0.6 -1,0.7 -0.7,0.1 -0.4,-0.1 -0.6,-0.4 -0.3,-0.5 -0.1,-0.6 v -1.1 l 0.8,-4.2 -3.5,2.4 m 1.3,4.9 0.2,0.2 0.1,0.7 -0.1,0.4 -0.4,0.6 -1,0.7 h -0.6 -0.4 l -0.6,-0.4 -0.4,-0.5 v -0.6 -1.1 l 0.8,-4.2 -3.5,2.3 m 80,81 -0.3,0.1 -0.6,-0.3 -0.3,-0.3 -0.3,-0.6 v -1.2 l 0.3,-0.6 0.2,-0.3 0.6,-0.3 0.6,-0.1 0.6,0.3 1,0.6 3,2.9 -0.1,-4.2 m -5.5,-4.6 -0.6,0.3 -0.3,0.9 v 0.6 l 0.4,0.9 0.9,0.6 1.5,0.3 1.5,-0.1 1.2,-0.3 0.6,-0.6 0.2,-0.9 v -0.3 l -0.3,-0.9 -0.6,-0.6 -0.9,-0.3 h -0.3 l -0.9,0.3 -0.6,0.7 -0.3,0.9 v 0.3 l 0.4,0.9 0.6,0.5 0.9,0.3 m -45.1,10.3 h 0.3 l 0.6,0.5 0.2,0.3 0.2,0.7 -0.3,1.1 -0.4,0.6 -0.4,0.2 -0.6,0.2 -0.6,-0.2 -0.5,-0.4 -0.8,-0.8 -2.3,-3.5 -0.9,4.1 m 5.4,5.5 -3.5,-3.8 -1,4.4 m 4.5,-0.6 -6.2,-1.3 m 60,-200.6 -0.2,-0.2 -0.2,-0.7 v -0.4 l 0.2,-0.6 0.9,-0.9 0.6,-0.2 h 0.4 l 0.7,0.2 0.4,0.4 0.2,0.7 0.2,1 v 4.3 l 3,-3 m -2.6,-6.3 -0.4,0.8 0.2,0.7 0.4,0.4 0.6,0.2 0.7,-0.2 1,-0.7 0.9,-0.4 h 0.8 l 0.7,0.2 0.6,0.6 0.2,0.7 v 0.4 l -0.4,0.9 -0.8,0.8 -0.9,0.4 h -0.4 l -0.6,-0.2 -0.7,-0.6 -0.2,-0.6 v -0.9 l 0.4,-0.8 0.7,-1.1 0.2,-0.6 -0.3,-0.7 -0.4,-0.4 -0.6,-0.2 -0.9,0.4 -0.9,1 m 52.6,-206.3 4.1,-3.1 -4.3,-1.3 m 0.2,4.4 1.9,-6 m -7.5,2 0.5,-0.8 0.8,-0.4 h 0.9 l 0.3,0.1 0.8,0.6 0.4,0.7 v 1 l -0.1,0.2 -0.6,0.8 -0.7,0.4 h -1 l -0.3,-0.1 -0.7,-0.5 -0.4,-0.8 0.1,-1.2 0.4,-1.5 0.8,-1.3 0.8,-0.7 h 1 l 0.5,0.2 0.8,0.6 0.1,0.6 m 12.7,104 -0.3,-0.6 -0.8,-1 6.3,0.6 m -4.9,-2.1 h -0.3 l -0.5,-0.4 -0.3,-0.3 -0.2,-0.6 0.1,-1.2 0.3,-0.6 0.3,-0.3 0.7,-0.2 h 0.6 l 0.5,0.4 0.9,0.6 2.7,3.3 0.4,-4.2 m -6.2,-2.3 0.3,-3.3 2.3,2 v -0.8 l 0.4,-0.6 0.3,-0.3 0.9,-0.2 h 0.6 l 0.9,0.4 0.5,0.7 0.3,0.9 -0.1,0.9 -0.4,0.9 -0.3,0.2 -0.6,0.3 m -29.6,91.7 -0.1,-0.3 0.2,-0.7 0.3,-0.3 0.5,-0.4 1.2,-0.3 0.6,0.2 0.4,0.2 0.4,0.5 0.1,0.6 -0.2,0.7 -0.4,1 -2.3,3.5 4.1,-0.8 m 4.1,-5.1 -0.1,0.9 -0.5,0.7 -0.8,0.5 h -0.3 l -0.9,-0.1 -0.8,-0.4 -0.4,-0.9 -0.1,-0.3 0.1,-0.9 0.5,-0.7 0.8,-0.5 h 0.3 l 1,0.1 0.7,0.4 0.5,1.2 0.3,1.4 v 1.6 l -0.4,1 -0.8,0.4 -0.6,0.2 -1,-0.2 -0.4,-0.5 m -104.2,266.8 h 0.3 l 0.7,0.2 0.3,0.3 0.4,0.5 0.1,1.2 -0.2,0.7 -0.3,0.3 -0.5,0.4 h -0.6 l -0.6,-0.2 -1,-0.5 -3.4,-2.6 0.6,4.2 m 4.9,0.4 0.4,0.6 1,0.8 -6.2,0.8 m 31.7,36.3 0.1,-0.2 0.6,-0.4 0.4,-0.1 h 0.7 l 1,0.6 0.4,0.5 0.1,0.4 v 0.7 l -0.3,0.5 -0.6,0.4 -0.9,0.5 -4.1,1.2 3.7,2 m 5.6,-4.1 -0.9,-0.1 -1,0.4 -1,1.2 -0.4,0.8 -0.5,1.5 0.1,1 0.7,0.7 0.5,0.3 0.9,0.2 1,-0.5 1,-1.2 0.4,-0.8 0.5,-1.4 -0.1,-1.1 -0.7,-0.7 -0.4,-0.2 m 43.4,-21.4 -0.2,0.2 -0.6,0.2 -0.5,-0.1 -0.6,-0.2 -0.8,-0.9 -0.1,-0.7 v -0.4 l 0.2,-0.6 0.5,-0.4 0.6,-0.2 1.1,-0.1 4.2,0.2 -2.8,-3.1 m -7.1,0 -0.3,0.6 0.4,0.9 0.4,0.5 0.8,0.4 1.1,-0.1 1.3,-0.8 1.1,-1 0.7,-1 0.1,-0.8 -0.4,-0.9 -0.2,-0.2 -0.8,-0.5 -0.9,-0.1 -0.8,0.4 -0.3,0.2 -0.4,0.8 -0.1,0.9 0.4,0.8 0.2,0.3 0.8,0.4 0.8,0.1 0.9,-0.4 m -8.4,71.3 h 0.3 l 0.6,0.2 0.3,0.3 0.4,0.6 0.1,1.2 -0.3,0.6 -0.3,0.3 -0.6,0.4 h -0.6 l -0.6,-0.2 -0.9,-0.6 -3.2,-2.7 0.3,4.2 m 6.6,4.2 -0.2,-3 -2.7,-0.1 0.3,0.3 0.4,0.9 v 0.9 l -0.2,0.9 -0.5,0.6 -0.9,0.4 h -0.6 l -0.9,-0.2 -0.7,-0.5 -0.3,-0.9 -0.1,-0.9 0.2,-0.9 0.3,-0.4 0.6,-0.3 m 11.7,22.1 v -0.3 l 0.4,-0.5 0.4,-0.3 0.6,-0.2 1.2,0.3 0.6,0.4 0.2,0.3 0.2,0.7 -0.1,0.6 -0.5,0.5 -0.7,0.8 -3.5,2.3 4.1,0.8 m 6.3,-5.1 -4.2,5.6 m 0.1,-6.4 4.1,0.8 m 52.6,-58.4 -3.3,-0.4 2.1,-2.2 -0.9,-0.1 -0.6,-0.4 -0.2,-0.3 -0.2,-0.9 0.1,-0.6 0.4,-0.9 0.6,-0.5 1,-0.2 0.9,0.1 0.8,0.4 0.3,0.4 0.2,0.6 m -7.7,4.2 0.9,-0.2 0.7,-0.8 0.5,-1.5 0.1,-0.9 -0.1,-1.5 -0.5,-1 -0.8,-0.4 -0.6,-0.1 -1,0.2 -0.7,0.8 -0.5,1.5 -0.1,0.9 0.1,1.5 0.5,1 0.9,0.4 h 0.4 m -19.9,69.7 0.2,-0.3 0.5,-0.4 0.4,-0.1 h 0.7 l 1.1,0.5 0.4,0.5 0.1,0.4 v 0.7 l -0.2,0.5 -0.6,0.4 -0.9,0.6 -4,1.4 3.8,1.8 m 6.4,-1.6 -0.7,0.7 -0.8,0.3 -0.9,-0.2 -0.3,-0.1 -0.7,-0.6 -0.3,-0.8 0.1,-1 0.2,-0.3 0.6,-0.6 0.8,-0.3 1,0.1 0.2,0.1 0.7,0.7 0.3,0.8 -0.2,1.2 -0.7,1.4 -0.9,1.2 -0.9,0.5 -1,-0.1 -0.5,-0.3 -0.7,-0.6 v -0.7 m 53.7,-43.2 -0.3,0.1 -0.6,-0.1 -0.4,-0.2 -0.5,-0.5 -0.4,-1.1 0.1,-0.7 0.1,-0.4 0.5,-0.4 0.6,-0.2 h 0.6 l 1.1,0.3 3.8,1.8 -1.4,-3.9 m -6.5,0.5 -1.1,-3.1 2.8,0.8 -0.3,-0.8 0.1,-0.7 0.2,-0.4 0.7,-0.6 0.6,-0.2 h 1 l 0.7,0.4 0.6,0.7 0.3,0.9 v 0.9 l -0.2,0.4 -0.4,0.5 m -20.8,40.8 -0.2,-0.2 v -0.7 l 0.1,-0.4 0.4,-0.6 1,-0.6 h 0.7 l 0.4,0.1 0.5,0.4 0.3,0.5 0.1,0.7 -0.1,1 -1.1,4.1 3.6,-2.1 m -0.8,-6.7 -0.6,0.7 v 0.6 l 0.3,0.6 0.6,0.3 h 0.6 l 1.2,-0.4 0.9,-0.1 0.9,0.2 0.5,0.3 0.5,0.8 v 0.7 l -0.1,0.4 -0.6,0.7 -1.1,0.6 -0.9,0.2 -0.4,-0.1 -0.6,-0.4 -0.4,-0.8 -0.1,-0.6 0.3,-0.8 0.6,-0.8 0.9,-0.8 0.4,-0.6 -0.1,-0.6 -0.3,-0.6 -0.5,-0.3 -1,0.2 -1.1,0.6"
       id="nums_004"
       stroke="#000000"
       style="stroke-width:1.01549;stroke-dasharray:none" />
    <path
       d="m 1978.6,648 -50.3,1.2 -42.1,-17 21.8,-50.2 36.3,1.7 31.6,-23.2 -37,-12.9 -31.8,17.5 -25.1,-54.8 28.8,-15 37.4,-35.9 -50.1,-13.3 -12.9,29.8 -89.7,-30 0.3,-54.5 16.8,-47.3 80.5,45.6 44.3,-15.9 39.1,-22.3 -54.7,-45.1 -36,-0.1 -52.8,11.1 -65.3,40.7 -55.7,-44.2 78.4,-62 42.6,13.3 28.2,-47.3 25.5,-3.9 -20,-16.3 -17.4,-52.3 -12.2,-43 57.2,-9.6 26,12.7 32,17.4 82.2,-1.1 1.1,48.8 -10.1,39.3 35.9,18.9 -34.9,34.2 -70.8,-41.8 18,-31.7 0.7,-29 -40.5,41.5 51.5,85.6 36.1,4.4 20.1,38.7 -9.3,94.1 -43.9,27.6 33.3,39.8 -18.7,57.3 13.5,53 12.2,43.8 z m -315.5,-97 -7.1,-57.6 8.2,-38.5 -39.2,-3.6 -14.1,-56.3 44.1,-29.2 -39.7,-35 48.3,-52.1 12.5,-51.2 -32.1,8.6 -10.7,-184.2 30.2,-34.6 25.3,102.3 -0.7,-105.4 42.9,3.1 19.8,30.7 53.6,17.1 -16,183.8 -36.8,7.4 -43.8,44.1 6.9,62.7 1,56.2 2.3,82.3 54.5,61.7 55.8,7.1 21.4,59.3 -53.8,31 -33.9,-16.2 -32.7,-6.5 -4,-52.6 z"
       id="coupes_004"
       stroke="#ff0000"
       style="stroke-width:1.26936"
       sodipodi:nodetypes="cccccccccccccccccccccccccccccccccccccccccccccccccccccccccccccccccccccccccccccccccccc" />
    <path
       d="m 1978.6,648 37.9,-45.5 m -40.6,-42 40.6,42 m -37.9,45.5 -2.7,-87.5 m 0,0 27.1,-11 m -27.1,11 12.5,-108.1 m 0,0 14.6,97.1 m -54.8,-90.1 40.2,-7 m -12.5,108.1 -27.7,-101.1 m -9.3,88.2 9.3,-88.2 m -9.3,88.2 -28.1,-52.3 m 26.6,-121.5 51,78.6 m -40.2,7 -10.8,-85.6 m 10.8,85.6 -55.1,-69.7 m 5,56.4 -85.5,-102 m 85.5,102 -102.3,-54.7 m 180.7,-39.9 11.9,100.9 m 53.2,-121.7 -53.2,121.7 m -11.9,-100.9 8.9,-63.9 m -63.6,18.8 -35.1,-92.4 m 0,0 98.7,73.6 m -98.7,-73.6 65.6,-91.1 m 0,0 -18.4,79.1 m -48.1,104.3 -24.6,-88.4 m 5.5,-20.2 85.6,-74.8 m -85.6,74.8 53.6,-92.2 m 114.2,16.3 -60.1,38.7 m -88.6,145.8 -52.8,-41.1 m 0,52.2 v -52.2 m 202.6,-94.6 -61.2,-10.1 m 61.2,10.1 -61.9,18.9 m -206,168.6 65.3,-92.9 m -65.3,92.9 22.7,-106.2 m 58.9,-106.5 71,-39.9 m -71,39.9 45,-52.6 m 131.2,117.1 -51.8,-20.4 m 4.9,458.5 -34.3,-64.3 m -16,65.5 16,-65.5 m -37.2,-18.6 3.7,-69.8 m -25.6,-19.4 -89.4,-84.5 m 229.7,-181.5 -69.8,11.3 m 69.8,-11.3 1,53.1 M 1928.3,649.2 1908,582 m -200.2,-281.6 -19,-180.8 m 62,-71.6 -43,252.4 m -31.7,-72.9 12.7,-107.9 m 0,0 42.2,-102.3 m -54.9,210.2 -42.8,-175.6 m 74.5,248.5 -92.5,30.4 m 92.5,-30.4 -52.8,65.4 m 59.7,-2.7 -59.7,2.7 m 59.7,-2.7 -50.5,91.8 m 0,0 -9.2,-89.1 m 60.7,53.5 -51.5,35.6 m -39.2,-3.6 30,-85.5 m 63,135.8 -53.8,-46.7 m 53.8,46.7 -62,-8.2 m 94.8,-445.4 0.8,208.3 m 52.8,-191.2 -52.8,191.2 M 1718,501.6 1663.1,551 m 54.9,-49.4 7.3,83.8 m 47.2,-22.1 -43.2,74.7 m 43.2,-74.7 -10.5,81.2 m 66.3,-74.1 -66.3,74.1 m 66.3,-74.1 -32.4,90.3"
       id="plisM_004"
       stroke="#a52a2a"
       stroke-dasharray="4" />
    <path
       d="m 1898.1,446.1 -5,-56.4 m 83.4,-38.2 65.1,-20.8 m -65.1,20.8 45,-59.5 m -99.7,14.4 63.6,-18.8 m -99.6,18.7 0.9,-92.3 m 0,0 47.2,-12 m 18.4,-79.1 22.1,37.6 m -285.6,-40.9 62,-71.6 m -43,252.4 -31.7,-72.9 m 31.7,72.9 -44.2,-21.7 m -30.3,-226.8 55.5,67.7 m 83.7,443.7 -47.2,22.1"
       id="plisV_004"
       stroke="#008000"
       stroke-dasharray="4, 1, 1, 1" />
    <path
       d="m 1893.6,415.9 4,4 m 0,-4 -4,4 m 113.5,-80.8 4,4 m 0,-4 -4,4 m -10.1,-23.3 4,4 m 0,-4 -4,4 m -45.4,-28.8 4,4 m 0,-4 -4,4 m -67.4,-40.9 4,4 m 0,-4 -4,4 m 24.1,-56.1 4,4 m 0,-4 -4,4 m 53.1,-70.3 4,4 m 0,-4 -4,4 m -243.6,-61.9 4,4 m 0,-4 -4,4 m -27.8,176.1 4,4 m 0,-4 -4,4 m -6.3,21.6 4,4 m 0,-4 -4,4 m -24.6,-207.7 4,4 m 0,-4 -4,4 m 87.8,484.5 4,4 m 0,-4 -4,4"
       id="marqueV_004"
       stroke="#008000" />
    <path
       d="m 1965,305.1 -0.7,-1.5 -2.3,-0.8 h -1.5 l -2.2,0.8 -1.5,2.2 -0.8,3.8 v 3.7 l 0.8,3 1.5,1.5 2.2,0.8 h 0.8 l 2.2,-0.8 1.5,-1.5 0.8,-2.2 v -0.8 l -0.8,-2.2 -1.5,-1.5 -2.2,-0.8 h -0.8 l -2.2,0.8 -1.5,1.5 -0.8,2.2"
       id="titre_6"
       stroke="#4b0082" />
    <path
       d="m 1697.2,330.7 -7.5,15.7 m -3,-15.7 h 10.5"
       id="titre_7"
       stroke="#4b0082" />
  </g>
</svg>
