<?xml version="1.0" encoding="UTF-8" standalone="no"?>
<svg
   height="841.88977pt"
   viewBox="0 0 532.99998 754.00001"
   width="595.27557pt"
   version="1.1"
   id="svg1"
   sodipodi:docname="chat_234_H25_A4x3.svg"
   inkscape:version="1.3 (0e150ed6c4, 2023-07-21)"
   xmlns:inkscape="http://www.inkscape.org/namespaces/inkscape"
   xmlns:sodipodi="http://sodipodi.sourceforge.net/DTD/sodipodi-0.dtd"
   xmlns="http://www.w3.org/2000/svg"
   xmlns:svg="http://www.w3.org/2000/svg">
  <defs
     id="defs1" />
  <sodipodi:namedview
     id="namedview1"
     pagecolor="#ffffff"
     bordercolor="#000000"
     borderopacity="0.25"
     inkscape:showpageshadow="2"
     inkscape:pageopacity="0.0"
     inkscape:pagecheckerboard="0"
     inkscape:deskcolor="#d1d1d1"
     inkscape:document-units="mm"
     showgrid="false"
     inkscape:zoom="1.0393815"
     inkscape:cx="543.59251"
     inkscape:cy="453.63517"
     inkscape:window-width="1920"
     inkscape:window-height="1057"
     inkscape:window-x="-8"
     inkscape:window-y="-8"
     inkscape:window-maximized="1"
     inkscape:current-layer="svg1" />
  <style
     type="text/css"
     id="style1"><![CDATA[
			path {
				fill: none;
				stroke-width: 0.15mm;
			}
		]]></style>
  <g
     id="page_001">
    <path
       d="m 287,413.8 -1.6,2.5 2.1,1.7 -0.1,-0.4 0.2,-0.9 0.5,-0.8 0.8,-0.6 0.8,-0.1 0.9,0.2 0.5,0.3 0.6,0.8 0.2,0.8 -0.3,0.9 -0.5,0.8 -0.7,0.6 -0.4,0.1 -0.7,-0.1 m 0.6,-10.3 -1.6,2.5 2.1,1.8 -0.1,-0.5 0.2,-0.9 0.5,-0.7 0.8,-0.6 0.8,-0.2 0.9,0.2 0.5,0.4 0.6,0.7 0.2,0.9 -0.3,0.9 -0.4,0.7 -0.8,0.6 -0.4,0.1 -0.7,-0.1 m 28.7,-25.8 -3,0.5 0.2,2.7 0.3,-0.3 0.8,-0.5 0.9,-0.2 0.9,0.2 0.7,0.5 0.5,0.8 0.1,0.6 -0.1,0.9 -0.5,0.7 -0.9,0.5 -0.8,0.1 -1,-0.1 -0.3,-0.2 -0.4,-0.6 m 8.3,-6.7 -1.8,6.7 m -2.4,-5.9 4.2,-0.8 m 57.6,5.6 -0.6,0.3 -0.4,0.8 -0.1,0.6 0.2,1 0.9,0.7 1.4,0.4 1.5,0.1 1.3,-0.1 0.6,-0.6 0.4,-0.8 v -0.3 l -0.2,-1 -0.5,-0.6 -0.9,-0.4 h -0.3 l -0.9,0.2 -0.7,0.5 -0.4,0.9 v 0.3 l 0.2,0.9 0.6,0.7 0.8,0.3 m -2.1,-5.8 h -0.3 l -0.6,-0.3 -0.2,-0.4 -0.3,-0.6 0.1,-1.2 0.4,-0.6 0.3,-0.2 0.6,-0.3 0.6,0.1 0.6,0.4 0.9,0.6 2.6,3.3 0.5,-4.2 m 18.6,-27.9 -0.2,-0.7 -0.8,-0.4 -0.6,-0.1 -1,0.1 -0.7,0.8 -0.6,1.4 -0.2,1.5 0.1,1.2 0.5,0.7 0.8,0.5 h 0.3 l 0.9,-0.1 0.7,-0.5 0.5,-0.8 v -0.3 l -0.1,-1 -0.5,-0.7 -0.8,-0.4 -0.3,-0.1 -1,0.2 -0.7,0.5 -0.4,0.8 m 8.8,-2.8 -3.7,3.6 4.5,0.8 m -0.8,-4.4 -1.1,6.2 m 62.6,2.7 -0.7,-0.2 -0.8,0.5 -0.4,0.5 -0.3,0.9 0.2,1 1,1.2 1.1,1 1.1,0.6 0.8,-0.1 0.9,-0.5 0.2,-0.2 0.3,-0.9 v -0.8 l -0.5,-0.8 -0.2,-0.2 -0.9,-0.4 -0.9,0.1 -0.8,0.4 -0.2,0.3 -0.3,0.8 v 0.9 l 0.5,0.8 m 3.2,-8.7 -0.6,-0.2 -0.9,0.5 -0.4,0.5 -0.3,0.9 0.3,1 0.9,1.2 1.1,1 1.1,0.6 0.9,-0.1 0.8,-0.5 0.2,-0.2 0.4,-0.9 -0.1,-0.8 -0.5,-0.8 -0.2,-0.2 -0.9,-0.4 -0.8,0.1 -0.8,0.4 -0.2,0.3 -0.4,0.8 v 0.9 l 0.5,0.8 m 15.5,-88.9 -0.6,0.3 -0.3,0.9 0.1,0.6 0.3,0.9 0.9,0.5 1.5,0.3 h 1.5 l 1.2,-0.3 0.6,-0.6 0.3,-1 -0.1,-0.3 -0.3,-0.8 -0.6,-0.6 -0.9,-0.3 h -0.3 l -0.9,0.3 -0.6,0.6 -0.3,0.9 0.1,0.3 0.3,0.9 0.6,0.6 0.9,0.3 m -4.4,-8.6 0.1,3 2.7,0.3 -0.3,-0.3 -0.3,-0.9 -0.1,-0.9 0.3,-0.9 0.6,-0.6 0.9,-0.3 h 0.6 l 0.9,0.2 0.6,0.6 0.3,0.9 0.1,0.9 -0.3,0.9 -0.3,0.3 -0.6,0.3 m -32.6,-23.9 -2.3,-6.6 m 5.3,3.6 -3,3 M 354,441.5 l -0.3,-0.5 -1,-0.2 h -0.6 l -0.8,0.4 -0.5,0.9 -0.2,1.6 0.2,1.5 0.4,1.1 0.6,0.6 1,0.2 h 0.2 l 0.9,-0.4 0.6,-0.7 0.2,-0.9 -0.1,-0.3 -0.3,-0.9 -0.7,-0.5 -0.9,-0.2 h -0.3 l -0.9,0.4 -0.5,0.6 -0.2,1 m 6.4,-4.9 -0.9,0.4 -0.5,1 -0.2,1.5 0.1,0.9 0.5,1.4 0.7,0.9 0.9,0.2 0.6,-0.1 0.8,-0.3 0.6,-1 0.1,-1.5 -0.1,-0.9 -0.4,-1.5 -0.7,-0.8 -0.9,-0.2 h -0.5 m -9.6,-19 0.6,-0.3 0.3,-0.8 0.1,-0.6 -0.2,-1 -0.9,-0.6 -1.5,-0.4 -1.5,-0.2 -1.2,0.3 -0.6,0.5 -0.4,0.9 v 0.3 l 0.2,0.9 0.6,0.6 0.8,0.4 h 0.3 l 1,-0.2 0.6,-0.6 0.4,-0.8 v -0.3 l -0.2,-0.9 -0.6,-0.7 -0.9,-0.4 m 2.4,5.2 0.3,0.6 0.8,1 -6.3,-0.5 M 415,439 v 0.6 l 0.8,0.6 0.5,0.3 h 1 l 0.9,-0.6 0.8,-1.3 0.6,-1.4 0.1,-1.2 -0.3,-0.8 -0.7,-0.6 -0.3,-0.1 h -0.9 l -0.8,0.3 -0.6,0.7 -0.2,0.3 v 0.9 l 0.3,0.8 0.7,0.6 0.3,0.1 1,0.1 0.7,-0.3 0.7,-0.8 m -6.8,1.8 -3.1,-1.2 2.6,-1.6 -0.9,-0.3 -0.4,-0.5 -0.2,-0.4 0.1,-0.9 0.2,-0.6 0.6,-0.7 0.8,-0.3 h 1 l 0.8,0.4 0.7,0.6 0.2,0.4 v 0.6 M 321.8,252 l 0.7,3.2 -2.7,-1.3 0.2,0.9 -0.2,0.7 -0.2,0.3 -0.9,0.5 -0.6,0.1 -0.9,-0.1 -0.7,-0.4 -0.5,-0.9 -0.2,-0.8 0.1,-1 0.3,-0.3 0.5,-0.5 m -6.9,-79.8 2.5,-1.7 -1.3,-2.4 -0.1,0.4 -0.6,0.7 -0.7,0.6 -0.9,0.2 -0.9,-0.1 -0.7,-0.6 -0.4,-0.5 -0.2,-0.9 0.1,-0.8 0.6,-0.8 0.7,-0.5 0.9,-0.3 0.5,0.1 0.6,0.3 m -3,8.3 0.5,-0.8 v -1 l -0.6,-1.5 -0.5,-0.7 -1.1,-1.1 -1,-0.4 -0.9,0.3 -0.5,0.4 -0.6,0.7 v 1.1 l 0.7,1.4 0.5,0.7 1.1,1.1 1,0.4 0.9,-0.3 0.3,-0.2 m -27.7,37.1 0.7,-0.1 1.1,-0.6 -1.9,6 m -17,-23.9 -3,-4.2 -1.4,4.3 m 4.4,-0.1 -6,-2 m 1.9,7.5 -0.8,-0.6 -0.3,-0.7 v -1 -0.2 l 0.6,-0.8 0.8,-0.4 h 0.9 l 0.3,0.1 0.8,0.6 0.3,0.7 v 1 0.3 l -0.6,0.7 -0.8,0.4 -1.2,-0.1 -1.4,-0.5 -1.4,-0.7 -0.6,-0.9 v -0.9 l 0.2,-0.6 0.5,-0.7 0.7,-0.1 m 20.2,-60.2 -0.7,-0.1 -1.3,0.3 3.5,-5.3 m -4.2,3.3 -0.1,0.3 -0.6,0.3 -0.4,0.1 -0.7,-0.1 -1,-0.6 -0.3,-0.6 -0.1,-0.4 0.1,-0.7 0.3,-0.5 0.6,-0.3 0.9,-0.4 4.2,-0.9 -3.5,-2.3 m -7.1,3 4.8,-1.9 -3.8,-2.4 m -1,4.3 3.4,-5.3 m 23.4,35 -1.8,2.4 1.9,1.9 v -0.4 l 0.3,-0.9 0.5,-0.7 0.8,-0.6 0.8,-0.1 0.9,0.3 0.5,0.4 0.6,0.8 0.1,0.8 -0.3,0.9 -0.6,0.7 -0.8,0.6 h -0.4 l -0.7,-0.1 m 0.3,-8.8 -0.3,0.9 0.4,1 1,1.2 0.7,0.5 1.4,0.7 1.1,0.1 0.7,-0.6 0.4,-0.4 0.3,-0.9 -0.3,-1.1 -1,-1.1 -0.8,-0.6 -1.3,-0.6 -1.1,-0.1 -0.8,0.5 -0.3,0.4 M 203,81.5 l -0.7,-0.2 -1.2,0.1 4,-4.8 m -4.5,2.8 -0.2,0.2 -0.6,0.3 h -0.4 l -0.7,-0.1 -0.9,-0.8 -0.2,-0.6 -0.1,-0.5 0.2,-0.6 0.4,-0.5 0.6,-0.2 1,-0.3 4.2,-0.4 -3.2,-2.7 m -5.4,3.7 -2.5,-2.1 2.9,-0.7 -0.7,-0.6 -0.2,-0.6 -0.1,-0.4 0.4,-0.9 0.4,-0.4 0.8,-0.5 0.8,-0.1 0.9,0.3 0.7,0.6 0.5,0.8 v 0.4 l -0.1,0.7 m -84.5,-22.6 0.7,3.2 -2.7,-1.2 0.2,0.9 -0.2,0.6 -0.2,0.4 -0.8,0.5 -0.6,0.1 -1,-0.1 -0.7,-0.5 -0.5,-0.8 -0.1,-0.9 0.1,-0.9 0.2,-0.4 0.5,-0.4 m 6.5,5.9 -0.5,-0.8 -1,-0.4 H 113 l -0.9,0.2 -1.4,0.6 -0.8,0.8 -0.1,0.9 0.2,0.6 0.4,0.8 1,0.4 h 1.6 l 0.9,-0.2 1.4,-0.6 0.7,-0.7 0.1,-1 -0.1,-0.4 m 117.9,128.8 -2.3,1.9 1.5,2.3 V 190 l 0.5,-0.8 0.7,-0.6 0.9,-0.3 0.8,0.1 0.8,0.5 0.4,0.4 0.4,0.9 -0.1,0.9 -0.5,0.8 -0.7,0.5 -0.9,0.4 -0.4,-0.1 -0.6,-0.3 m 2.2,-6.4 -0.2,-0.3 -0.1,-0.6 v -0.5 l 0.3,-0.6 0.9,-0.7 0.7,-0.2 0.4,0.1 0.6,0.2 0.4,0.5 0.1,0.7 0.1,1 -0.4,4.3 3.3,-2.7 m -126.2,-91.6 -1.2,3.1 -1.6,-2.5 -0.3,0.8 -0.5,0.4 -0.4,0.2 h -0.9 l -0.6,-0.3 -0.7,-0.6 -0.4,-0.8 0.1,-0.9 0.3,-0.8 0.6,-0.8 0.4,-0.1 0.7,-0.1 m 1.5,6.3 v 0.6 l 0.5,1.2 -5.8,-2.3 m -4.8,23.5 0.3,0.1 0.4,0.5 0.1,0.4 v 0.7 l -0.5,1.1 -0.5,0.4 -0.4,0.1 h -0.7 l -0.5,-0.2 -0.5,-0.6 -0.5,-0.9 -1.3,-4 -1.9,3.7 m 1.5,6.4 -0.7,-0.6 -0.2,-0.9 0.1,-0.9 0.1,-0.3 0.7,-0.6 0.8,-0.3 0.9,0.1 0.3,0.2 0.7,0.6 0.3,0.8 -0.2,1 -0.1,0.2 -0.7,0.7 -0.8,0.3 -1.2,-0.3 -1.3,-0.6 -1.2,-1 -0.6,-0.9 0.1,-1 0.3,-0.5 0.7,-0.7 h 0.6 m 22.3,34.9 0.6,0.2 1.3,0.1 -4.7,4.2 m 4.8,-2.1 0.3,-0.2 0.6,-0.2 0.4,0.1 0.7,0.2 0.8,0.9 0.1,0.6 v 0.5 l -0.2,0.6 -0.5,0.4 -0.6,0.2 -1.1,0.1 -4.2,-0.2 2.8,3.1 m 5.8,-2.9 2.2,2.5 -3,0.2 0.6,0.7 0.2,0.6 v 0.5 l -0.5,0.8 -0.4,0.4 -0.9,0.4 -0.8,-0.1 -0.9,-0.5 -0.6,-0.6 -0.3,-0.9 v -0.4 l 0.2,-0.6 m 176.2,96.7 -1.8,-2.8 3,0.2 -0.5,-0.7 -0.1,-0.7 0.1,-0.4 0.6,-0.7 0.5,-0.4 0.9,-0.2 0.9,0.2 0.7,0.5 0.5,0.8 0.3,0.9 -0.1,0.4 -0.4,0.6 m -59,-2 0.8,-0.6 0.2,-1 -0.2,-1.5 -0.3,-0.9 -0.8,-1.3 -0.9,-0.6 h -0.9 l -0.6,0.2 -0.7,0.6 -0.3,1.1 0.3,1.5 0.3,0.8 0.8,1.3 0.8,0.7 1,-0.1 0.4,-0.1 m -47.3,96.7 -3,-0.2 -0.5,2.6 0.3,-0.3 0.9,-0.2 0.9,0.1 0.9,0.4 0.5,0.6 0.2,1 v 0.6 l -0.4,0.8 -0.6,0.6 -1,0.2 -0.9,-0.1 -0.8,-0.4 -0.3,-0.3 -0.2,-0.6 m 8.9,-4.4 -3.4,3.9 4.5,0.4 m -1.1,-4.3 -0.6,6.3 m -159.4,-65.2 0.6,3.3 -2.7,-1.4 0.2,0.9 -0.2,0.7 -0.2,0.3 -0.9,0.5 -0.6,0.1 -0.9,-0.1 -0.7,-0.5 -0.5,-0.8 -0.1,-0.9 0.1,-1 0.2,-0.3 0.6,-0.4 m 6.3,5.8 -0.5,-0.9 -0.6,-0.1 -0.6,0.1 -0.6,0.4 -0.2,0.6 v 1.3 l -0.2,0.9 -0.4,0.7 -0.6,0.4 -0.9,0.2 -0.6,-0.2 -0.3,-0.3 -0.5,-0.8 -0.2,-1.2 0.1,-0.9 0.2,-0.4 0.6,-0.4 0.9,-0.1 0.6,0.2 0.7,0.4 0.5,0.9 0.5,1.1 0.4,0.5 0.6,0.2 0.6,-0.1 0.6,-0.4 0.1,-0.9 -0.3,-1.4 m 42.8,-64.8 0.9,-5.1 -4.1,2 m 3.2,3.1 -2.7,-5.7 m -0.8,5.7 0.1,0.2 v 0.7 l -0.1,0.4 -0.4,0.5 -1.1,0.6 -0.7,-0.1 -0.4,-0.1 -0.5,-0.4 -0.3,-0.5 v -0.7 l 0.2,-1.1 1.4,-4 -3.8,1.8 m 83,8.1 -0.2,0.2 -0.7,0.2 -0.4,-0.1 -0.6,-0.2 -0.9,-0.9 -0.1,-0.6 v -0.4 l 0.2,-0.7 0.4,-0.4 0.7,-0.2 1.1,-0.1 4.2,0.1 -2.9,-3.1 m -24.4,153.7 1,-3.2 1.7,2.5 0.3,-0.9 0.5,-0.5 0.3,-0.2 h 1 l 0.6,0.2 0.7,0.6 0.4,0.7 v 0.9 l -0.2,0.9 -0.6,0.8 -0.4,0.2 -0.6,0.1 m -0.1,-9.7 0.7,0.5 0.4,0.8 v 0.9 0.3 l -0.6,0.8 -0.7,0.4 h -1 l -0.3,-0.1 -0.8,-0.6 -0.3,-0.7 -0.1,-1 0.1,-0.2 0.6,-0.8 0.7,-0.4 1.3,0.1 1.4,0.4 1.3,0.7 0.7,0.9 v 0.9 l -0.1,0.6 -0.6,0.8 -0.7,0.1 M 37,386.3 l -1.3,3 -1.5,-2.6 -0.4,0.8 -0.5,0.5 -0.4,0.1 -0.9,-0.1 -0.6,-0.2 -0.7,-0.6 -0.3,-0.8 0.1,-1 0.4,-0.8 0.6,-0.7 0.4,-0.2 h 0.6 m 1,10.6 -4.6,-5.2 m 6.3,1.4 -1.7,3.8 m -0.5,60.2 -5,-1.3 1.6,4.2 m 3.4,-2.9 -5.9,2.2 m 7.5,1.9 -0.6,-0.7 -1.1,-0.2 -1.5,0.2 -0.9,0.4 -1.2,0.8 -0.7,0.9 0.1,0.9 0.2,0.6 0.6,0.7 1,0.2 1.6,-0.2 0.8,-0.3 1.3,-0.9 0.6,-0.9 v -0.9 l -0.2,-0.4 m 105.8,3.8 4.9,1.6 -1.4,-4.3 m -3.5,2.7 6,-1.9 m -5.4,-1 -0.5,-0.5 -1.1,-0.6 6,-1.8 m -98.7,58.1 -3.9,-3.4 -0.4,4.4 m 4.3,-1 -6.2,-0.7 m 5.7,6.4 -3.9,-3.4 -0.5,4.5 m 4.4,-1.1 -6.3,-0.6 m 139.5,-0.2 4.9,-1.6 -3.6,-2.7 m -1.3,4.3 3.7,-5.1 m -8.7,1.3 2.4,1.8 1.9,-2 -0.4,0.1 -0.9,-0.3 -0.8,-0.6 -0.5,-0.7 -0.1,-0.9 0.2,-0.9 0.4,-0.5 0.8,-0.5 0.8,-0.1 0.9,0.3 0.7,0.5 0.6,0.8 0.1,0.4 -0.2,0.6 m -130.9,53.9 -4.6,-2.3 0.6,4.5 m 4,-2.2 -6.3,1 m 7.2,5.7 -6.7,-2 m 6.1,-2.2 0.6,4.2 m 186.3,-18.8 4.7,-2.1 -3.9,-2.3 m -0.8,4.4 3.1,-5.4 m -6.7,3.3 0.9,0.2 0.6,-0.4 0.3,-0.5 v -0.7 l -0.4,-0.5 -0.8,-0.9 -0.7,-0.7 -0.2,-0.8 v -0.7 l 0.5,-0.7 0.5,-0.4 0.4,-0.1 1,0.2 1,0.6 0.6,0.7 0.2,0.4 -0.1,0.6 -0.4,0.8 -0.6,0.4 -0.8,0.2 -0.9,-0.2 -1.2,-0.3 h -0.7 l -0.5,0.3 -0.3,0.6 -0.1,0.6 0.7,0.7 1.1,0.7 m -137.3,69.9 -4.7,2.3 4,2.2 m 0.7,-4.5 -3.1,5.6 m 8.1,-1.7 v -0.7 l -0.6,-0.7 -0.6,-0.3 -0.9,-0.1 -1,0.5 -0.9,1.1 -0.8,1.4 -0.3,1.2 0.3,0.8 0.6,0.7 0.3,0.1 0.9,0.2 0.8,-0.3 0.7,-0.6 0.2,-0.3 0.1,-0.9 -0.2,-0.8 -0.6,-0.7 -0.3,-0.2 -0.9,-0.1 -0.9,0.2 -0.7,0.7 m 173.2,-27.6 0.5,3 2.7,-0.2 -0.3,-0.2 -0.5,-0.9 -0.1,-0.8 0.1,-1 0.5,-0.7 0.8,-0.4 0.6,-0.1 1,0.1 0.7,0.5 0.4,0.8 0.2,0.9 -0.2,0.9 -0.2,0.4 -0.5,0.4 m -100,88 -5.2,-0.1 2.6,3.7 m 2.6,-3.6 -5.2,3.6 m 7,-0.9 1.8,2.7 -3,-0.1 0.6,0.7 0.1,0.7 -0.1,0.4 -0.6,0.8 -0.5,0.3 -0.9,0.3 -0.8,-0.2 -0.8,-0.5 -0.5,-0.8 -0.3,-0.9 0.1,-0.4 0.3,-0.6 m 74.8,11.9 -1,5 4.1,-1.8 m -3.1,-3.2 2.6,5.7 m 1,-5.6 -0.2,-0.2 0.1,-0.7 0.1,-0.4 0.4,-0.5 1.1,-0.5 h 0.7 l 0.4,0.2 0.5,0.4 0.3,0.6 -0.1,0.6 -0.2,1.1 -1.5,3.9 3.8,-1.6 m 90.1,-5.5 0.2,-0.3 0.5,-0.3 0.4,-0.2 0.7,0.1 1,0.6 0.4,0.6 0.1,0.4 v 0.6 l -0.3,0.6 -0.6,0.3 -1,0.5 -4.1,1.1 3.6,2.1 m 29.7,-93.8 3,4.3 1.5,-4.3 m -4.5,0 6,2.2 m -84.8,-17.6 0.5,-2.9 -2.6,-0.8 0.2,0.4 0.2,0.9 -0.2,0.9 -0.4,0.8 -0.7,0.5 -1,0.2 -0.6,-0.2 -0.8,-0.4 -0.5,-0.7 -0.1,-0.9 0.1,-0.9 0.5,-0.9 0.3,-0.2 0.7,-0.2 m 48.9,-12.6 0.1,0.7 0.8,0.5 0.6,0.2 0.9,-0.1 0.8,-0.7 0.7,-1.3 0.4,-1.5 0.1,-1.2 -0.5,-0.8 -0.7,-0.5 -0.3,-0.1 -1,0.1 -0.7,0.4 -0.6,0.8 v 0.3 0.9 l 0.4,0.8 0.8,0.5 0.3,0.1 1,-0.1 0.7,-0.4 0.5,-0.8 m -43.1,-134.3 0.7,-0.6 0.8,-0.3 0.9,0.1 0.3,0.2 0.7,0.6 0.2,0.8 -0.1,1 -0.1,0.2 -0.7,0.7 -0.8,0.3 -0.9,-0.1 -0.3,-0.2 -0.7,-0.6 -0.2,-0.9 0.2,-1.2 0.7,-1.3 0.9,-1.2 0.9,-0.6 1,0.2 0.5,0.2 0.7,0.7 v 0.7 m -8.3,1.9 1,0.1 0.9,-0.5 0.9,-1.2 0.4,-0.8 0.4,-1.5 -0.1,-1.1 -0.7,-0.6 -0.5,-0.3 -1,-0.1 -0.9,0.5 -0.9,1.2 -0.4,0.8 -0.4,1.5 0.1,1.1 0.7,0.7 0.4,0.2 m -19.2,23.7 0.2,0.9 -0.2,0.9 -0.6,0.7 -0.3,0.1 -0.9,0.2 -0.8,-0.2 -0.7,-0.6 -0.2,-0.3 -0.2,-0.9 0.2,-0.8 0.6,-0.7 0.3,-0.2 0.9,-0.2 0.9,0.2 0.8,0.9 0.8,1.3 0.5,1.4 -0.1,1.1 -0.6,0.7 -0.5,0.3 -0.9,0.2 -0.6,-0.3 m 4.4,-8.9 -2.6,1.5 1.2,2.5 0.1,-0.4 0.6,-0.7 0.8,-0.5 0.9,-0.2 0.8,0.2 0.7,0.6 0.3,0.6 0.2,0.9 -0.2,0.8 -0.6,0.7 -0.8,0.5 -0.9,0.2 -0.4,-0.1 -0.6,-0.4 m -47.8,4.6 -1.9,-2.3 -2.3,1.5 h 0.4 l 0.8,0.5 0.6,0.7 0.3,0.9 v 0.8 l -0.6,0.8 -0.4,0.4 -0.9,0.4 -0.8,-0.1 -0.8,-0.5 -0.6,-0.7 -0.4,-0.9 0.1,-0.5 0.3,-0.6 m 8.2,2.1 -0.8,-0.5 -0.6,0.2 -0.5,0.3 -0.3,0.7 0.2,0.6 0.5,1.1 0.4,0.9 -0.1,0.9 -0.3,0.6 -0.7,0.5 -0.7,0.2 -0.4,-0.1 -0.8,-0.5 -0.7,-0.9 -0.4,-0.9 0.1,-0.4 0.2,-0.6 0.7,-0.6 0.7,-0.1 0.8,0.1 0.8,0.5 1,0.7 0.6,0.3 0.7,-0.2 0.5,-0.3 0.2,-0.6 -0.3,-0.9 -0.8,-1.1 m 181.9,54 -5.1,-0.5 2.2,3.9 m 2.9,-3.4 -5.5,3.1 m 8.5,2.4 -1.5,-2.7 -2.5,1.1 0.4,0.1 0.7,0.7 0.5,0.7 0.2,1 -0.3,0.8 -0.6,0.7 -0.5,0.3 -0.9,0.2 -0.9,-0.2 -0.7,-0.7 -0.4,-0.8 -0.2,-0.9 0.1,-0.4 0.4,-0.6 m -9,114.4 -0.6,0.3 -0.9,1 -0.2,-6.3 m -3.2,36.6 -0.3,0.9 0.5,1 1.1,1 0.7,0.5 1.4,0.6 h 1.1 l 0.8,-0.6 0.3,-0.5 0.2,-1 -0.4,-1 -1.1,-1 -0.8,-0.5 -1.4,-0.6 -1.1,0.1 -0.7,0.5 -0.3,0.4 M 150.8,35 l -0.2,0.2 -0.7,0.2 h -0.4 l -0.6,-0.2 -0.8,-0.9 -0.2,-0.7 v -0.4 l 0.2,-0.6 0.5,-0.4 0.6,-0.2 1.1,-0.2 4.2,0.2 -2.9,-3.1 m -7.1,0.2 -0.3,0.6 0.4,0.9 0.4,0.4 0.9,0.5 1,-0.2 1.3,-0.8 1.1,-1 0.7,-1.1 v -0.8 l -0.4,-0.9 -0.2,-0.2 -0.8,-0.4 -0.9,-0.1 -0.8,0.4 -0.2,0.2 -0.5,0.9 v 0.8 l 0.4,0.9 0.2,0.2 0.8,0.4 0.9,0.1 0.8,-0.4 m -21.9,-4.9 0.2,0.2 v 0.7 l -0.1,0.4 -0.4,0.6 -1,0.6 h -0.7 L 125,27 l -0.5,-0.3 -0.3,-0.6 -0.1,-0.6 0.1,-1.1 1,-4.1 -3.6,2.1 m 0.7,6.9 0.6,-0.7 0.1,-1 -0.5,-1.5 -0.5,-0.8 -1,-1.1 -1,-0.5 -0.9,0.2 -0.6,0.3 -0.6,0.8 v 1 l 0.5,1.5 0.4,0.8 1.1,1.1 0.9,0.5 1,-0.2 0.4,-0.3 m 338.5,547.7 h -0.6 l -0.7,0.8 -0.2,0.5 v 1 l 0.6,0.9 1.3,0.8 1.3,0.6 1.3,0.1 0.8,-0.3 0.6,-0.7 0.1,-0.3 v -1 l -0.3,-0.7 -0.7,-0.6 -0.3,-0.2 h -1 l -0.7,0.3 -0.6,0.7 -0.2,0.3 v 1 l 0.3,0.7 0.7,0.7 m -0.6,-9.6 -1.2,2.8 2.4,1.2 -0.1,-0.3 v -1 l 0.4,-0.8 0.6,-0.7 0.8,-0.4 0.9,0.1 0.6,0.2 0.7,0.6 0.3,0.8 v 0.9 l -0.4,0.9 -0.6,0.7 -0.4,0.2 h -0.6 m -22.6,24.2 -4.7,-2.1 0.8,4.4 m 3.9,-2.3 -6.2,1.3 m 6.9,2.8 -0.4,-0.8 -0.7,-0.2 -0.6,0.1 -0.5,0.4 -0.2,0.7 v 1.2 l -0.2,0.9 -0.4,0.8 -0.6,0.4 -0.8,0.1 -0.7,-0.1 -0.3,-0.3 -0.5,-0.8 -0.2,-1.2 0.1,-0.9 0.2,-0.4 0.5,-0.4 0.9,-0.2 0.7,0.2 0.7,0.5 0.4,0.8 0.6,1.1 0.4,0.6 0.6,0.1 0.6,-0.1 0.5,-0.4 0.2,-0.9 -0.3,-1.4 m -102.6,-451.5 2.6,-1.4 -1,-2.5 -0.1,0.4 -0.7,0.7 -0.7,0.4 -1,0.2 -0.8,-0.3 -0.7,-0.6 -0.3,-0.6 -0.1,-0.9 0.2,-0.8 0.7,-0.7 0.8,-0.4 0.9,-0.2 0.4,0.1 0.5,0.4 m -2.8,7.3 -2.9,1.6 0.5,-3 -0.8,0.5 h -0.7 l -0.4,-0.1 -0.7,-0.7 -0.3,-0.5 -0.1,-1 0.2,-0.8 0.7,-0.7 0.8,-0.4 0.9,-0.2 0.4,0.2 0.5,0.4 m 40.9,33.4 -0.2,5.1 3.8,-2.5 m -3.6,-2.6 3.5,5.2 m -3.2,-44 3,-0.2 0.1,-2.7 -0.3,0.4 -0.9,0.3 -0.9,0.1 -0.9,-0.3 -0.6,-0.5 -0.4,-0.9 v -0.6 l 0.2,-0.9 0.6,-0.7 0.9,-0.3 0.9,-0.1 0.9,0.3 0.3,0.2 0.3,0.6 m -5.6,4 v 0.3 l -0.2,0.6 -0.3,0.3 -0.6,0.4 h -1.2 l -0.6,-0.2 -0.3,-0.3 -0.3,-0.6 -0.1,-0.6 0.3,-0.6 0.5,-0.9 2.8,-3.2 -4.2,0.3 m 10.4,3 -2,2.2 1.8,2.1 v -0.5 l 0.4,-0.8 0.6,-0.7 0.8,-0.5 h 0.9 l 0.8,0.4 0.5,0.4 0.4,0.8 0.1,0.9 -0.4,0.8 -0.6,0.7 -0.8,0.5 h -0.5 l -0.6,-0.2 m 0.8,-6.4 0.2,-0.6 -0.1,-1.3 4.7,4.2 m 8.4,10.5 2.5,-1.7 -1.3,-2.4 -0.1,0.4 -0.6,0.8 -0.7,0.5 -0.9,0.3 -0.8,-0.1 -0.8,-0.6 -0.4,-0.5 -0.2,-0.9 0.1,-0.8 0.6,-0.8 0.7,-0.5 0.9,-0.3 0.4,0.1 0.6,0.3 m -2.1,6 -0.3,0.6 -0.3,1.3 -3.6,-5.1 m 6.6,9.3 4.6,2.5 -0.6,-4.5 m -4,2 6.3,-0.7 m -4.9,-6 0.9,0.2 0.7,0.5 0.4,0.8 v 0.3 l -0.2,1 -0.5,0.6 -0.9,0.4 -0.2,0.1 -1,-0.2 -0.6,-0.5 -0.5,-0.9 v -0.3 l 0.2,-0.9 0.5,-0.7 1.2,-0.4 1.5,-0.2 1.5,0.1 1,0.5 0.4,0.9 v 0.6 l -0.2,0.9 -0.5,0.4 m -185.7,71 0.4,3 2.7,-0.1 -0.3,-0.2 -0.4,-0.9 -0.1,-0.9 0.2,-0.9 0.5,-0.7 0.8,-0.4 0.6,-0.1 1,0.2 0.6,0.5 0.4,0.9 0.2,0.9 -0.2,0.9 -0.3,0.3 -0.5,0.4 m -5.9,-5.2 -0.4,-3.3 2.6,1.5 -0.1,-0.9 0.2,-0.6 0.3,-0.4 0.8,-0.4 0.6,-0.1 0.9,0.2 0.7,0.5 0.4,0.9 0.2,0.9 -0.2,0.9 -0.3,0.3 -0.5,0.4 m -36.3,-10.8 h 0.7 l 1.2,-0.4 -2.9,5.6 m 3.8,-3.7 0.1,-0.3 0.6,-0.4 0.4,-0.1 h 0.7 l 1,0.6 0.4,0.5 0.1,0.4 v 0.7 l -0.3,0.5 -0.5,0.4 -0.9,0.6 -4.1,1.2 3.7,2 m 6.8,-3.7 -4.6,2.3 4,2.1 m 0.6,-4.4 -2.9,5.6 m 3.1,211.8 -2.1,-2.2 -2.2,1.6 h 0.5 l 0.8,0.5 0.6,0.6 0.4,0.9 -0.1,0.8 -0.4,0.9 -0.5,0.4 -0.8,0.3 h -0.9 l -0.8,-0.5 -0.6,-0.6 -0.4,-0.9 v -0.4 l 0.3,-0.6 m 9.1,3.8 0.2,-0.6 -0.4,-0.9 -0.4,-0.5 -0.8,-0.4 -1.1,0.1 -1.3,0.8 -1.1,1 -0.7,1 v 0.9 l 0.4,0.9 0.2,0.2 0.8,0.4 0.8,0.1 0.9,-0.4 0.2,-0.2 0.5,-0.8 v -0.9 l -0.3,-0.8 -0.2,-0.3 -0.9,-0.4 -0.8,-0.1 -0.9,0.4 m 15.1,-41.4 2.6,-1.5 -1.1,-2.5 -0.1,0.4 -0.6,0.8 -0.8,0.4 -0.9,0.2 -0.9,-0.2 -0.7,-0.6 -0.3,-0.6 -0.2,-0.9 0.2,-0.8 0.7,-0.7 0.8,-0.5 0.9,-0.2 0.4,0.1 0.6,0.4 m -4.8,8.7 0.5,-5.1 -3.9,2.3 m 3.4,2.8 -3.2,-5.4 m 229.4,-164.7 5,4.8 m -6.3,-0.9 1.3,-3.9 m -24.9,-28.3 0.4,0.5 1,0.1 0.5,-0.1 0.8,-0.5 0.4,-1.1 -0.1,-1.5 -0.3,-1.4 -0.6,-1.1 -0.7,-0.5 -1,-0.1 -0.2,0.1 -0.9,0.5 -0.4,0.7 -0.1,1 0.1,0.3 0.5,0.8 0.7,0.4 1,0.1 0.3,-0.1 0.8,-0.5 0.4,-0.7 0.1,-0.9 m -46.1,297.7 -4.3,2.9 4.3,1.5 m 0,-4.4 -2.1,5.9 m 4,-3.7 0.7,-0.1 1.1,-0.5 -2.1,5.9 m -7.6,-29.6 2.2,-2 -1.6,-2.2 v 0.4 l -0.5,0.9 -0.6,0.6 -0.9,0.4 H 355 l -0.9,-0.5 -0.4,-0.4 -0.4,-0.9 V 470 l 0.5,-0.9 0.6,-0.6 0.9,-0.4 h 0.4 l 0.6,0.2 m -4.6,8.6 -0.4,-0.9 v -0.8 l 0.5,-0.9 0.2,-0.2 0.8,-0.4 0.9,0.1 0.8,0.4 0.2,0.2 0.4,0.9 v 0.8 l -0.4,0.9 -0.3,0.2 -0.8,0.4 h -0.9 l -1,-0.7 -1,-1.1 -0.9,-1.3 -0.1,-1.1 0.4,-0.8 0.4,-0.4 0.9,-0.4 0.6,0.2 m 141.1,10.6 -0.6,0.2 -0.5,0.8 -0.1,0.6 0.1,0.9 0.7,0.8 1.4,0.6 1.5,0.3 h 1.2 l 0.7,-0.5 0.5,-0.8 0.1,-0.3 -0.1,-0.9 -0.5,-0.8 -0.8,-0.4 -0.3,-0.1 -0.9,0.1 -0.8,0.5 -0.4,0.8 -0.1,0.3 0.1,0.9 0.5,0.7 0.8,0.5 m -1.4,-9.1 -0.7,0.1 -0.5,0.8 -0.1,0.6 0.1,1 0.8,0.7 1.4,0.7 1.4,0.3 1.3,-0.1 0.7,-0.4 0.5,-0.9 v -0.2 l -0.1,-1 -0.4,-0.7 -0.8,-0.5 h -0.3 l -1,0.1 -0.7,0.4 -0.5,0.8 v 0.3 l 0.1,1 0.4,0.7 0.8,0.5 m -20.6,-27.4 0.2,0.6 0.8,0.5 h 0.6 l 1,-0.1 0.7,-0.8 0.5,-1.5 0.2,-1.5 -0.1,-1.2 -0.6,-0.7 -0.8,-0.4 h -0.3 l -0.9,0.1 -0.7,0.6 -0.4,0.8 -0.1,0.3 0.2,0.9 0.5,0.7 0.9,0.4 0.3,0.1 0.9,-0.2 0.7,-0.5 0.4,-0.9 m -9.6,3 3.8,-5.9 m 0.4,6.4 -4.2,-0.5 m -32.8,-48.4 1.9,6.7 m -5.1,-3.9 3.2,-2.8 m 3.5,-3.1 -2.2,2 1.5,2.2 0.1,-0.4 0.4,-0.8 0.7,-0.6 0.9,-0.4 0.8,0.1 0.9,0.4 0.4,0.5 0.3,0.9 v 0.8 l -0.5,0.8 -0.7,0.6 -0.9,0.4 h -0.4 l -0.6,-0.3 m -7.9,-12.8 -6.5,-2.6 m 6.3,-1.6 0.2,4.2 m 0.4,4.3 -4.4,-2.7 0.3,4.5 m 4.1,-1.8 -6.3,0.4"
       id="nums_001"
       stroke="#000000"
       style="stroke-width:1.01549;stroke-dasharray:none" />
    <path
       d="m 407.5,174 -51.3,33.6 99.6,-24.2 -34,103.7 78.1,-76.3 2.7,138.1 -42.5,48.5 -32.6,28.8 -3.5,-55.6 -29.6,-5.1 -5.5,55 55,22.2 63.5,8.7 -13.6,63 -51.4,128.2 -14.9,-74 -28.6,-50.4 -72.4,-25.9 47.7,-45.3 -36.1,3.4 4.3,-56.8 -36.9,6.9 -21.5,32.9 42.4,20.9 -83.3,49.1 -26.4,-32.5 -50.8,-56.2 75.8,-44.2 -87.4,-7.8 -18.1,58.3 22.8,73.4 46.7,34.4 65.7,37.2 12.3,69.7 12.3,-69.7 98.8,27.2 -21,57.5 63.4,-2.4 -55.6,86.8 -74.3,-43.6 -109.5,48 -56.7,-81.6 -94.2,-51.3 -10.7,-69.8 4,-40.5 -28.1,-73 31,-72.1 -17.1,-90.8 107.7,-51.8 58.7,63 96.8,-35.4 30.7,46.7 -11.5,-54.6 -60.6,-19.1 10.8,-32.5 -36.3,29.7 5,37.9 -77.9,-40.6 -60.4,-67.4 12.4,-24.9 11.5,-29.1 -10.8,-50.5 35.3,-21 30,32.1 69.5,58 73.9,47.5 -21.8,28.5 29.5,-20.4 33.7,-18.2 46.8,-3 -20.2,22.3 24.5,-17.5 z"
       id="coupes_001"
       stroke="#ff0000"
       sodipodi:nodetypes="ccccccccccccccccccccccccccccccccccccccccccccccccccccccccccccccccccccccccc"
       style="stroke-width:1.26936" />
    <path
       d="m 241.7,370.5 42.3,62.9 m 0,0 -67.3,37.5 m 0,0 25,-100.4 m 0,0 63.8,30 m -63.8,-30 78.2,-87.6 m 0,0 -14.4,117.6 m 14.4,-117.6 74.5,82.6 m 0,0 -52,28.1 m -22.5,-110.7 101.9,4.2 m -32.9,133.4 -46.5,-26.9 m 79.4,-106.5 2.2,83.5 m -2.2,-83.5 38.3,110.3 m -38.3,-110.3 80.8,61.8 m -58.7,93.8 -69.7,4.3 m 69.7,-4.3 -45,75.5 m 45,-75.5 49.9,71.7 m 0,0 -94.9,3.8 m -42.7,-310.6 65.6,79.5 m -101.9,-4.2 36.3,-75.3 m -37.7,-51.1 37.7,51.1 m -47.8,20.7 10.1,-71.8 M 308.4,228.3 289,176.9 m -41.2,32.3 41.2,-32.3 m -30.4,-0.2 30.4,0.2 m -52.1,-76 52.1,76 M 102.1,31.8 236.9,100.9 M 258.6,176.7 102.1,31.8 M 258.6,176.7 112.9,82.3 M 222.3,206.4 112.9,82.3 m 109.4,124.1 -120.9,-95 m 120.9,95 L 89,136.3 M 241.7,370.5 289.2,236.2 M 241.7,370.5 192.4,271.6 M 154.3,362.7 43.1,351.2 m 0,0 149.3,-79.6 M 26,260.4 192.4,271.6 M 136.2,421 12.1,423.3 m 124.1,-2.3 -96,75.3 M 159,494.4 40.2,496.3 M 159,494.4 36.2,536.8 m 169.5,-8 -169.5,8 m 169.5,-8 -158.8,77.8 M 271.4,566 46.9,606.6 M 271.4,566 141.1,657.9 m 142.6,-22.2 -142.6,22.2 m 142.6,-22.2 -85.9,103.8 m 85.9,-103.8 23.6,55.8 m -23.6,-55.8 90.1,15 m 0,0 -66.5,40.8 m 66.5,-40.8 7.8,84.4 M 283.7,635.7 394.8,593.2 M 326.4,454.3 216.7,470.9 m 277.1,43.5 -66.3,54.2 m -75.3,-430.3 4,69.3 m 22.6,-50 -22.6,50 m -4,-69.3 26.6,19.3 m 0,0 28.7,16.4"
       id="plisM_001"
       stroke="#a52a2a"
       stroke-dasharray="4" />
    <path
       d="m 319.9,282.9 22.5,110.7 m 79.4,-106.5 -27.4,78.4 m -5.5,55 -14.7,26.5 m 0,0 -31.8,-53.4 M 460.1,397.4 424,370.6 M 398.9,518.2 374.2,447 M 308.4,228.3 356.2,207.6 M 258.6,176.7 236.9,100.9 M 102.1,31.8 167.4,42.9 m 54.9,163.5 -72.9,-2.7 m 4.9,159 38.1,-91.1 M 136.2,421 43.1,351.2"
       id="plisV_001"
       stroke="#008000"
       stroke-dasharray="4, 1, 1, 1" />
    <path
       d="m 329.1,336.2 4,4 m 0,-4 -4,4 m 77,-15.9 4,4 m 0,-4 -4,4 m -26.5,103.4 4,4 m 0,-4 -4,4 m -23.3,-17.4 4,4 m 0,-4 -4,4 m 83.8,-40.3 4,4 m 0,-4 -4,4 m -55.5,94.6 4,4 m 0,-4 -4,4 m -54.3,-268.7 4,4 m 0,-4 -4,4 m -84.5,-83.1 4,4 m 0,-4 -4,4 m -113,-105.5 4,4 m 0,-4 -4,4 m 51.1,163.7 4,4 m 0,-4 -4,4 m -12.5,108.1 4,4 m 0,-4 -4,4 m -83.8,65 4,4 m 0,-4 -4,4"
       id="marqueV_001"
       stroke="#008000" />
    <path
       d="m 286.7,342.5 1.5,-0.8 2.3,-2.2 v 15.7"
       id="titre_1"
       stroke="#4b0082" />
  </g>
  <g
     id="page_002">
    <path
       d="m 898.3,40.5 v -1 l -0.5,-0.5 -0.5,-0.2 -0.7,0.1 -0.5,0.5 -0.7,1 -0.6,0.7 -0.7,0.4 -0.7,0.1 -0.8,-0.3 -0.5,-0.5 -0.2,-0.4 v -0.9 l 0.4,-1.2 0.6,-0.7 0.4,-0.2 0.7,-0.1 0.8,0.3 0.5,0.5 0.4,0.8 -0.1,0.9 -0.1,1.3 0.1,0.6 0.5,0.5 0.5,0.2 0.7,-0.1 0.6,-0.7 0.4,-1.3 m -34,51.6 -0.4,-0.8 -0.1,-0.8 0.4,-0.9 0.2,-0.2 0.8,-0.5 0.8,-0.1 0.9,0.4 0.2,0.2 0.5,0.8 0.1,0.9 -0.4,0.8 -0.2,0.3 -0.8,0.4 -0.9,0.1 -1.1,-0.6 -1.1,-1 -0.9,-1.2 -0.3,-1 0.4,-0.9 0.4,-0.5 0.8,-0.4 0.6,0.1 m 69,-49.5 -0.6,0.1 -1.2,0.4 2.6,-5.7 m -5.4,4.6 0.9,0.1 1,-0.5 0.9,-1.2 0.3,-0.9 0.4,-1.4 -0.2,-1.1 -0.6,-0.7 -0.6,-0.2 -0.9,-0.1 -1,0.5 -0.9,1.3 -0.3,0.8 -0.4,1.5 0.2,1 0.7,0.7 0.4,0.2 M 947,69.1 v -0.7 l -0.4,-1.2 5.7,2.8 m -4.2,-3.2 v -0.7 l -0.4,-1.2 5.7,2.8 m -99.3,132.1 0.6,-0.3 0.9,-0.9 -0.2,6.3 m 4.9,-6.4 -3,-0.1 -0.3,2.7 0.3,-0.3 0.9,-0.2 h 0.9 l 0.9,0.3 0.5,0.6 0.3,0.9 v 0.6 l -0.3,0.9 -0.6,0.6 -0.9,0.3 h -0.9 l -0.9,-0.4 -0.3,-0.3 -0.3,-0.6 m -14.2,-48.5 0.2,0.6 0.8,1 -6.3,-0.6 m 5.1,5.3 0.7,-0.3 0.4,-0.8 v -0.6 l -0.2,-0.9 -0.8,-0.7 -1.5,-0.5 -1.5,-0.1 -1.2,0.1 -0.7,0.6 -0.3,0.8 -0.1,0.3 0.2,1 0.6,0.6 0.8,0.4 h 0.3 l 1,-0.2 0.6,-0.5 0.4,-0.9 v -0.3 l -0.2,-0.9 -0.5,-0.6 -0.9,-0.4 m 141.2,27.4 -0.7,-0.1 -1.2,0.2 3.5,-5.2 m -4.2,3.2 -0.2,0.3 -0.5,0.3 -0.5,0.1 -0.6,-0.1 -1,-0.7 -0.4,-0.5 v -0.5 -0.6 l 0.4,-0.5 0.6,-0.4 1,-0.4 4.1,-0.8 -3.5,-2.3 m -28.7,40.7 0.3,-0.6 0.3,-1.2 3.4,5.3 m -2.1,-6.4 2.8,-1.8 -0.2,3 0.7,-0.5 0.7,-0.1 0.4,0.1 0.8,0.6 0.3,0.5 0.2,0.9 -0.1,0.8 -0.6,0.8 -0.8,0.4 -0.9,0.3 -0.4,-0.1 -0.6,-0.3 m -83.2,7.2 -0.3,0.6 -0.3,1.2 -3.5,-5.2 m -0.3,8.1 2.5,-1.7 -1.3,-2.4 v 0.4 l -0.6,0.8 -0.8,0.5 -0.9,0.2 -0.8,-0.1 -0.8,-0.6 -0.3,-0.5 -0.3,-0.9 0.2,-0.8 0.6,-0.8 0.7,-0.5 0.9,-0.3 0.5,0.1 0.5,0.3 m 3.1,125.5 0.6,-0.3 0.9,-1 0.2,6.3 m 5,-6.6 -2.8,6.4 m -1.4,-6.3 4.2,-0.1 m -62.8,-74.7 -0.2,0.6 v 1.3 l -4.4,-4.6 m 0.4,7.4 0.7,0.2 0.8,-0.4 0.5,-0.4 0.4,-0.9 -0.2,-1 -0.8,-1.3 -1,-1.1 -1.1,-0.7 h -0.8 l -0.9,0.4 -0.2,0.2 -0.4,0.9 -0.1,0.8 0.4,0.9 0.3,0.2 0.8,0.4 h 0.8 l 0.9,-0.4 0.2,-0.2 0.5,-0.8 v -0.8 l -0.4,-0.9 m -57.4,58.4 -0.5,-0.9 v -0.8 l 0.5,-0.9 0.2,-0.2 0.8,-0.4 h 0.9 l 0.8,0.4 0.2,0.3 0.5,0.8 v 0.9 l -0.5,0.8 -0.2,0.2 -0.8,0.4 h -0.9 l -1,-0.6 -1.1,-1.1 -0.8,-1.3 -0.3,-1 0.5,-0.9 0.4,-0.4 0.9,-0.4 0.6,0.2 m -15.3,78.8 0.2,-0.7 -0.1,-1.2 4.8,4 m -2.3,-7.5 1.3,5 2.9,-3.5 m -4.2,-1.5 4.8,4 m 30.1,-9.1 0.1,0.6 0.7,1.1 -6.1,-1.5 m 5.7,4.1 -0.1,-0.9 -0.5,-0.4 -0.6,-0.2 -0.7,0.2 -0.4,0.5 -0.6,1.1 -0.5,0.8 -0.7,0.4 -0.7,0.2 -0.8,-0.2 -0.5,-0.5 -0.3,-0.3 v -1 l 0.2,-1.2 0.5,-0.8 0.4,-0.2 0.7,-0.1 0.8,0.2 0.5,0.4 0.5,0.7 0.1,1 v 1.2 l 0.1,0.7 0.5,0.4 0.6,0.2 0.7,-0.2 0.5,-0.8 0.3,-1.3 m 98.3,-25.3 -0.7,0.1 -1.1,0.6 2.1,-6 m -7.1,4.4 4.9,-4.9 m -0.9,6.3 -4,-1.4 m 4.7,19 0.3,-0.6 v -1.3 l 4.4,4.5 m 0.5,-6.7 0.4,0.8 v 0.9 l -0.4,0.8 -0.3,0.2 -0.8,0.5 h -0.8 l -0.9,-0.5 -0.2,-0.2 -0.4,-0.8 v -0.9 l 0.4,-0.8 0.2,-0.2 0.9,-0.5 h 0.8 l 1.1,0.7 1,1 0.9,1.3 0.2,1.1 -0.4,0.8 -0.5,0.5 -0.8,0.4 -0.7,-0.2 m 90.1,-121.2 -0.6,0.2 -1.1,0.6 1.5,-6.1 m -3.2,5.9 -3.2,-0.8 2.3,-1.9 -0.9,-0.2 -0.5,-0.4 -0.2,-0.4 -0.1,-0.9 0.1,-0.6 0.5,-0.8 0.8,-0.5 h 0.9 l 0.9,0.2 0.8,0.5 0.2,0.3 0.2,0.7 m 19.6,42.5 -0.6,0.7 v 0.6 l 0.3,0.6 0.6,0.3 h 0.7 l 1.2,-0.3 0.9,-0.2 0.8,0.2 0.6,0.4 0.4,0.8 v 0.6 l -0.1,0.4 -0.6,0.7 -1,0.6 -1,0.2 -0.4,-0.1 -0.5,-0.4 -0.5,-0.7 v -0.7 l 0.2,-0.8 0.6,-0.7 0.9,-0.9 0.4,-0.6 v -0.6 l -0.3,-0.5 -0.6,-0.4 -0.9,0.2 -1.2,0.6 m 7.1,-2.9 -0.6,-0.4 -0.9,0.2 -0.6,0.3 -0.6,0.7 -0.1,1 0.5,1.5 0.8,1.3 0.8,0.9 0.8,0.2 1,-0.2 0.2,-0.1 0.7,-0.7 0.2,-0.8 -0.2,-1 -0.1,-0.2 -0.8,-0.7 -0.8,-0.2 -0.9,0.2 -0.3,0.1 -0.6,0.8 -0.2,0.8 0.2,0.9 m 22.7,-18.8 0.5,0.8 0.6,0.2 0.6,-0.1 0.5,-0.4 0.2,-0.7 0.1,-1.2 0.1,-0.9 0.5,-0.7 0.5,-0.5 0.9,-0.1 0.6,0.2 0.4,0.2 0.5,0.8 0.2,1.2 -0.1,0.9 -0.3,0.4 -0.5,0.4 -0.9,0.2 -0.6,-0.2 -0.7,-0.5 -0.5,-0.8 -0.5,-1.1 -0.4,-0.6 -0.7,-0.2 -0.6,0.2 -0.5,0.4 -0.1,0.9 0.2,1.3 m -1.4,-7.4 0.6,2.9 2.7,-0.2 -0.4,-0.2 -0.4,-0.8 -0.2,-0.9 0.1,-1 0.5,-0.7 0.8,-0.4 0.6,-0.1 0.9,0.1 0.7,0.5 0.5,0.8 0.2,0.9 -0.1,0.9 -0.3,0.4 -0.5,0.4 m -316.2,56.2 1,0.2 0.5,-0.4 0.3,-0.6 v -0.6 l -0.4,-0.6 -1,-0.8 -0.6,-0.7 -0.3,-0.8 V 340 l 0.4,-0.8 0.5,-0.4 0.4,-0.2 1,0.2 1,0.5 0.7,0.7 0.2,0.4 v 0.6 l -0.4,0.8 -0.6,0.4 -0.8,0.3 -0.9,-0.1 -1.2,-0.3 h -0.7 l -0.5,0.4 -0.3,0.6 v 0.6 l 0.7,0.7 1.2,0.6 m -19.8,14.4 0.2,0.6 0.7,1.1 -6.2,-1.1 m 5.9,4 -0.1,-0.9 -0.8,-0.8 -1.4,-0.5 -0.9,-0.2 h -1.5 l -1,0.5 -0.5,0.8 -0.1,0.6 0.2,1 0.7,0.7 1.5,0.5 0.9,0.2 h 1.5 l 1,-0.5 0.4,-0.8 0.1,-0.5 m -44,79.7 -2.2,2.5 -0.6,-3 -0.6,0.7 -0.6,0.2 -0.4,0.1 -0.9,-0.4 -0.4,-0.4 -0.5,-0.8 v -0.9 l 0.3,-0.9 0.6,-0.6 0.9,-0.5 h 0.4 l 0.6,0.2 m -1.2,6.7 0.2,0.2 0.2,0.6 0.1,0.5 -0.2,0.6 -0.8,0.9 -0.6,0.3 h -0.5 l -0.6,-0.2 -0.5,-0.4 -0.2,-0.6 -0.3,-1.1 -0.2,-4.2 -2.8,3.1 m -29.1,45.3 -0.3,-0.9 -0.6,-0.3 H 595 l -0.6,0.3 -0.3,0.6 -0.3,1.2 -0.3,0.9 -0.6,0.7 -0.6,0.3 h -0.9 l -0.6,-0.3 -0.3,-0.3 -0.3,-0.9 v -1.2 l 0.3,-0.9 0.3,-0.3 0.6,-0.3 h 0.9 l 0.6,0.3 0.6,0.5 0.3,0.9 0.3,1.2 0.3,0.6 0.6,0.3 h 0.6 l 0.6,-0.3 0.3,-0.9 v -1.3 m 0.1,7.6 v -3 l -2.7,-0.3 0.3,0.3 0.3,0.9 v 0.9 l -0.3,0.9 -0.6,0.6 -0.9,0.3 h -0.6 l -0.9,-0.3 -0.6,-0.6 -0.3,-0.9 v -0.9 l 0.3,-0.9 0.3,-0.3 0.6,-0.3 m -0.2,39.9 -0.2,-1 -0.5,-0.4 -0.6,-0.1 -0.6,0.2 -0.4,0.5 -0.5,1.2 -0.5,0.8 -0.7,0.5 -0.7,0.1 -0.8,-0.1 -0.6,-0.4 -0.2,-0.4 -0.1,-0.9 0.2,-1.2 0.4,-0.8 0.4,-0.3 0.6,-0.2 0.9,0.2 0.6,0.4 0.4,0.7 0.2,1 v 1.2 l 0.2,0.6 0.6,0.4 0.5,0.2 0.7,-0.2 0.5,-0.9 0.2,-1.3 m -2.3,4.2 h 0.3 l 0.5,0.4 0.3,0.4 0.1,0.6 -0.2,1.2 -0.4,0.5 -0.3,0.3 -0.7,0.2 -0.6,-0.1 -0.5,-0.4 -0.8,-0.8 -2.4,-3.5 -0.7,4.1 m 77.2,39.6 0.8,0.5 0.7,-0.2 0.4,-0.4 0.3,-0.6 -0.2,-0.7 -0.5,-1.1 -0.4,-0.8 v -0.9 l 0.3,-0.6 0.7,-0.6 0.6,-0.2 0.4,0.1 0.9,0.4 0.8,0.9 0.3,0.9 v 0.4 l -0.2,0.7 -0.7,0.6 -0.7,0.1 h -0.8 l -0.8,-0.5 -1.1,-0.7 -0.6,-0.3 -0.6,0.2 -0.5,0.4 -0.2,0.6 0.3,0.9 0.9,1 m -1.5,-3.9 -0.6,-0.2 -1.3,-0.1 4.7,-4.2 m -13.6,58.5 1.6,-2.9 1.2,2.7 0.5,-0.8 0.5,-0.3 0.4,-0.2 1,0.2 0.5,0.3 0.6,0.7 0.3,0.8 -0.2,0.9 -0.4,0.8 -0.7,0.7 -0.4,0.1 h -0.7 m -1.2,-8.5 -0.2,0.9 0.4,0.6 0.5,0.3 h 0.7 l 0.6,-0.4 0.8,-0.9 0.7,-0.6 0.8,-0.3 0.7,0.1 0.8,0.4 0.4,0.6 0.1,0.4 -0.2,0.9 -0.6,1 -0.7,0.7 -0.4,0.1 h -0.6 l -0.8,-0.4 -0.4,-0.6 -0.3,-0.8 0.2,-0.9 0.3,-1.2 0.1,-0.7 -0.4,-0.6 -0.5,-0.3 h -0.7 l -0.7,0.7 -0.7,1.1 m -76.5,-8.7 -5.6,-4.2 m 6.4,0.1 -0.8,4.1 m -3.1,4.6 -0.8,-0.5 -0.5,-0.7 -0.1,-1 v -0.2 l 0.5,-0.9 0.7,-0.4 1,-0.2 0.3,0.1 0.8,0.5 0.5,0.7 0.1,0.9 -0.1,0.3 -0.5,0.8 -0.7,0.5 -1.2,0.1 -1.5,-0.3 -1.4,-0.6 -0.8,-0.8 -0.1,-0.9 0.2,-0.6 0.4,-0.8 0.7,-0.2 m 411,-464.7 0.5,-0.3 0.8,-1 0.7,6.3 m 1.1,-5.2 v -0.3 l 0.2,-0.6 0.3,-0.4 0.5,-0.3 1.2,-0.2 0.7,0.3 0.3,0.2 0.4,0.6 v 0.6 l -0.2,0.6 -0.5,1 -2.7,3.3 4.2,-0.4 m -3.6,-48 -1.1,-3.1 2.9,0.9 -0.3,-0.9 0.1,-0.6 0.2,-0.4 0.7,-0.6 0.6,-0.2 h 0.9 l 0.8,0.4 0.6,0.7 0.3,0.9 v 0.9 l -0.2,0.4 -0.4,0.5 m -5.4,-4.3 -0.3,0.1 -0.7,-0.1 -0.3,-0.2 -0.5,-0.5 -0.4,-1.1 0.1,-0.7 0.1,-0.4 0.5,-0.4 0.6,-0.2 h 0.6 l 1.1,0.3 3.8,1.8 -1.4,-3.9 m -23.4,-26.6 -0.1,0.6 0.3,1.3 -5.3,-3.3 m 3.7,3.6 v 0.6 l 0.3,1.3 -5.4,-3.4 m -120.5,377.2 1.1,-3.1 1.7,2.5 0.3,-0.9 0.5,-0.5 0.4,-0.1 h 0.9 l 0.6,0.2 0.7,0.6 0.4,0.7 v 1 l -0.3,0.8 -0.6,0.8 -0.4,0.2 h -0.7 m -1.8,-10.1 -1,2.8 2.5,1.2 -0.2,-0.4 v -0.9 l 0.3,-0.9 0.6,-0.7 0.8,-0.4 h 0.9 l 0.6,0.3 0.7,0.5 0.4,0.8 v 0.9 l -0.3,0.9 -0.6,0.7 -0.4,0.2 -0.7,0.1 m -81.5,-4.7 0.1,0.6 0.7,1.1 -6.1,-1.5 m 5.7,4.1 -0.1,-0.9 -0.5,-0.5 -0.6,-0.1 -0.7,0.1 -0.4,0.5 -0.6,1.1 -0.5,0.8 -0.7,0.5 -0.7,0.1 -0.8,-0.2 -0.6,-0.4 -0.2,-0.4 v -0.9 l 0.2,-1.2 0.6,-0.8 0.3,-0.2 0.7,-0.2 0.8,0.2 0.6,0.5 0.4,0.7 0.1,1 v 1.2 l 0.1,0.6 0.5,0.5 0.6,0.1 0.7,-0.1 0.5,-0.8 0.3,-1.3 m 25.9,21.8 0.7,-0.2 1,-0.7 -1.1,6.2 m 5.4,-5.7 -3.7,3.6 4.4,0.8 m -0.7,-4.4 -1.1,6.2 m -89.5,30.5 0.3,-3.3 2.2,2 0.1,-0.9 0.3,-0.6 0.4,-0.3 0.9,-0.2 h 0.6 l 0.9,0.4 0.5,0.6 0.3,0.9 -0.1,0.9 -0.4,0.9 -0.3,0.3 -0.6,0.3 m -4.7,-6.3 0.2,-3.3 2.3,2 0.1,-0.9 0.3,-0.6 0.3,-0.3 0.9,-0.2 h 0.6 l 0.9,0.4 0.6,0.6 0.2,0.9 -0.1,0.9 -0.3,0.9 -0.3,0.3 -0.6,0.2 m -34.4,49.3 3.2,0.4 -2,2.2 0.9,0.1 0.6,0.3 0.2,0.3 0.2,1 v 0.6 l -0.4,0.8 -0.7,0.6 -0.9,0.2 -0.9,-0.1 -0.9,-0.4 -0.2,-0.3 -0.3,-0.7 m 9,-4.2 -3.4,3.8 4.5,0.5 m -1.1,-4.3 -0.6,6.3 M 914,375.5 l 0.5,0.5 1.2,0.5 -5.9,2.2 m 5.9,3.2 h -1 l -0.7,-0.3 -0.6,-0.8 -0.1,-0.2 -0.1,-1 0.4,-0.8 0.7,-0.5 0.3,-0.2 h 0.9 l 0.8,0.4 0.6,0.7 0.1,0.3 v 0.9 l -0.3,0.8 -1,0.7 -1.4,0.5 -1.5,0.3 -1.1,-0.3 -0.6,-0.7 -0.2,-0.6 v -0.9 l 0.4,-0.5 m 80.2,-12.9 -2.6,-2 2.9,-0.8 -0.7,-0.5 -0.3,-0.6 -0.1,-0.5 0.3,-0.9 0.4,-0.4 0.7,-0.6 0.9,-0.1 0.9,0.3 0.7,0.5 0.5,0.8 0.1,0.4 -0.1,0.7 m -9.7,-2 -0.1,0.7 0.5,0.7 0.5,0.4 0.9,0.3 1,-0.4 1.2,-1 0.9,-1.2 0.4,-1.1 -0.1,-0.9 -0.5,-0.7 -0.3,-0.2 -0.9,-0.3 -0.8,0.1 -0.8,0.5 -0.2,0.3 -0.3,0.9 0.2,0.8 0.5,0.8 0.2,0.2 0.9,0.3 0.9,-0.1 0.8,-0.6 m -51.7,72.9 1.3,3 -2.9,-0.7 0.3,0.9 v 0.6 l -0.2,0.4 -0.7,0.6 -0.5,0.3 -1,0.1 -0.8,-0.4 -0.6,-0.7 -0.3,-0.8 -0.1,-1 0.1,-0.3 0.5,-0.6 m 8.2,6.3 -1.2,-2.8 -2.6,0.8 0.4,0.2 0.6,0.7 0.4,0.8 v 0.9 l -0.3,0.8 -0.7,0.7 -0.5,0.2 -1,0.1 -0.8,-0.4 -0.6,-0.7 -0.4,-0.8 v -0.9 l 0.1,-0.4 0.5,-0.5 m 41.3,-13 2.1,-2.5 0.7,2.9 0.6,-0.7 0.6,-0.3 h 0.5 l 0.8,0.3 0.5,0.4 0.5,0.8 0.1,0.9 -0.4,0.9 -0.5,0.6 -0.9,0.5 -0.4,0.1 -0.6,-0.2 m -0.2,-7.8 2.2,-2.5 0.7,2.9 0.5,-0.7 0.6,-0.3 h 0.5 l 0.9,0.3 0.4,0.4 0.5,0.8 0.1,0.9 -0.4,0.9 -0.5,0.6 -0.8,0.5 -0.5,0.1 -0.6,-0.2 m -386.2,269.6 2.4,-2.2 0.3,2.9 0.7,-0.6 0.6,-0.2 0.4,0.1 0.9,0.4 0.4,0.5 0.4,0.8 -0.1,0.9 -0.4,0.8 -0.7,0.6 -0.9,0.4 h -0.4 l -0.6,-0.3 m 3.5,-10.1 2,6.7 m -5.1,-3.8 3.1,-2.9 m -32.3,-1.7 0.5,0.5 1.1,0.5 -5.9,2.1 m 5.1,-0.7 0.5,0.5 1.2,0.5 -6,2.1 m 7.1,0.7 -0.5,-0.8 -1.1,-0.3 -1.5,0.3 -0.9,0.3 -1.3,0.7 -0.6,0.9 v 0.9 l 0.2,0.6 0.6,0.8 1,0.2 1.5,-0.2 0.9,-0.3 1.3,-0.8 0.7,-0.8 -0.1,-1 -0.1,-0.4 m 236.8,-540.6 -0.3,-0.6 -0.8,-1 6.3,0.5 m -5,-1.5 -0.3,-0.6 -0.8,-0.9 6.3,0.4 m -6.3,-3.4 0.2,0.9 0.9,0.7 1.4,0.4 0.9,0.1 1.6,-0.2 0.9,-0.6 0.4,-0.9 v -0.6 l -0.2,-0.9 -0.9,-0.6 -1.5,-0.4 -0.9,-0.1 -1.5,0.2 -0.9,0.5 -0.4,0.9 v 0.5 m -47.1,15.5 0.7,0.1 1.2,-0.2 -3.7,5.1 m 3.9,-3.5 0.7,0.1 1.2,-0.2 -3.7,5.1 m 3.9,-3.5 0.6,0.1 1.3,-0.2 -3.7,5.1 m -4.2,8.5 h -0.7 l -1.2,0.3 3.2,-5.4 m -3.5,3.8 h -0.7 l -1.2,0.3 3.2,-5.4 m -3.5,3.8 h -0.7 l -1.2,0.3 3.2,-5.4 m 9.8,-33.6 0.1,0.7 0.6,1.1 -6,-2 m 4.5,2.6 0.1,0.7 0.5,1.2 -5.9,-2.1 m 5.6,3.8 -1.1,3.1 -1.7,-2.5 -0.3,0.8 -0.5,0.5 -0.4,0.2 h -0.9 l -0.6,-0.2 -0.7,-0.6 -0.4,-0.8 v -0.9 l 0.3,-0.9 0.6,-0.7 0.4,-0.2 0.6,-0.1 m -97.1,84.2 -0.5,0.5 -0.7,1.1 -1.6,-6.1 m 0.3,5.2 -0.5,0.4 -0.7,1.1 -1.5,-6.1 m -1,7 0.8,-0.5 0.2,-0.7 -0.2,-0.6 -0.4,-0.5 -0.7,-0.1 h -1.2 l -1,-0.1 -0.7,-0.4 -0.4,-0.5 -0.3,-0.9 0.2,-0.6 0.2,-0.4 0.8,-0.5 1.1,-0.3 1,0.1 0.4,0.2 0.4,0.5 0.2,0.8 -0.1,0.7 -0.4,0.7 -0.8,0.5 -1.1,0.6 -0.5,0.5 -0.2,0.6 0.2,0.6 0.4,0.5 1,0.1 1.3,-0.4 m 1.2,0.7 h 0.7 l 1.2,-0.5 -2.4,5.8 m 2.9,-4.3 h 0.7 l 1.1,-0.5 -2.3,5.8 m 7.2,-4.1 -5.1,4.7 m 1.2,-6.3 3.9,1.6 m -10.8,-30.7 0.7,-0.1 1.1,-0.6 -1.7,6 m 2.4,-4.6 0.7,-0.1 1.1,-0.7 -1.7,6.1 m 6.1,-2.9 -0.6,0.8 -0.7,0.4 h -1 -0.2 l -0.8,-0.6 -0.5,-0.7 v -0.9 l 0.1,-0.3 0.5,-0.8 0.7,-0.4 1,-0.1 0.3,0.1 0.8,0.5 0.4,0.7 v 1.3 l -0.4,1.4 -0.7,1.4 -0.8,0.7 -1,0.1 -0.6,-0.2 -0.8,-0.5 -0.1,-0.7 m 79.4,-127.1 0.6,0.2 1.3,0.1 -4.7,4.2 m 4.8,-2.1 0.2,-0.2 0.7,-0.1 h 0.4 l 0.6,0.2 0.8,0.9 0.2,0.7 v 0.4 l -0.3,0.6 -0.4,0.4 -0.7,0.2 -1.1,0.1 -4.2,-0.2 2.8,3.1 m 6.7,-1.9 -0.9,-0.5 -1,0.2 -1.4,0.7 -0.6,0.6 -1,1.2 -0.3,1.1 0.4,0.8 0.4,0.5 0.8,0.5 1.1,-0.2 1.3,-0.7 0.7,-0.6 0.9,-1.2 0.3,-1.1 -0.3,-0.9 -0.3,-0.3 m 15.9,-38.4 0.7,-0.7 v -0.6 l -0.2,-0.6 -0.5,-0.4 -0.7,-0.1 -1.2,0.2 -0.9,0.1 -0.8,-0.3 -0.5,-0.5 -0.4,-0.8 v -0.7 l 0.2,-0.3 0.7,-0.7 1.1,-0.4 1,-0.1 0.4,0.1 0.5,0.5 0.3,0.8 v 0.7 l -0.3,0.8 -0.8,0.6 -0.9,0.7 -0.5,0.5 v 0.7 l 0.2,0.6 0.5,0.4 1,-0.1 1.2,-0.5 m -6.5,2.8 1.1,-5 -4.2,1.8 m 3.1,3.2 -2.5,-5.8 m -108.1,197.8 0.6,0.3 1.2,0.4 -5.5,3 m 5,-1.5 0.5,0.4 1.2,0.4 -5.5,3 m 7.2,1.4 0.4,-0.5 -0.2,-0.9 -0.3,-0.6 -0.7,-0.6 -1,-0.1 -1.5,0.5 -1.3,0.7 -0.9,0.8 -0.3,0.8 0.2,1 0.2,0.2 0.6,0.7 0.9,0.2 0.9,-0.2 0.3,-0.1 0.6,-0.7 0.2,-0.8 -0.1,-0.9 -0.2,-0.3 -0.7,-0.7 -0.8,-0.2 -0.9,0.2 m 15.4,-0.9 -0.7,0.1 -1.1,0.5 2.1,-5.9 m -2.7,4.4 -0.7,0.1 -1.1,0.5 2.1,-5.9 m -7.1,4.4 4.9,-4.9 m -0.9,6.3 -4,-1.4 m 149.8,-38.1 -0.2,-0.6 -0.8,-1 6.3,0.8 m -4.9,-1.7 -0.2,-0.6 -0.8,-1 6.2,0.8 m -4.7,-2.3 -0.3,-0.1 -0.6,-0.3 -0.2,-0.4 -0.3,-0.6 0.2,-1.2 0.4,-0.6 0.3,-0.2 0.7,-0.2 h 0.5 l 0.6,0.4 0.8,0.7 2.6,3.4 0.5,-4.2 m -166,88.4 -0.3,0.6 -0.3,1.2 -3.5,-5.2 m 2,4.8 -0.4,0.6 -0.2,1.3 -3.5,-5.3 m -0.8,7.4 0.6,0.3 0.9,-0.3 0.5,-0.3 0.5,-0.8 v -1 l -0.6,-1.5 -0.8,-1.2 -0.9,-0.8 -0.8,-0.2 -1,0.3 -0.2,0.1 -0.6,0.8 -0.2,0.8 0.3,0.9 0.2,0.3 0.7,0.6 0.9,0.1 0.9,-0.2 0.2,-0.2 0.6,-0.7 0.2,-0.9 -0.3,-0.9 m 56.9,18 -0.2,-0.7 -0.6,-1.1 6.1,1.8 M 699.2,302 H 699 l -0.5,-0.5 -0.2,-0.4 -0.1,-0.6 0.3,-1.2 0.5,-0.5 0.3,-0.2 0.7,-0.1 0.6,0.2 0.4,0.4 0.7,0.9 2.1,3.7 1.2,-4 m -4.4,-2.4 -0.1,-0.7 -0.6,-1.1 6,1.8 m -27.4,10.8 0.7,-0.1 1.1,-0.6 -1.8,6.1 m 3,-4.4 0.1,-0.3 0.5,-0.5 0.3,-0.2 0.7,-0.1 1.1,0.4 0.5,0.4 0.2,0.4 0.2,0.7 -0.2,0.5 -0.5,0.5 -0.8,0.7 -3.7,2 4,1.2 m 3,-4.1 v -0.3 l 0.5,-0.5 0.4,-0.2 0.6,-0.1 1.2,0.3 0.5,0.5 0.2,0.4 0.1,0.6 -0.2,0.6 -0.4,0.5 -0.9,0.7 -3.7,2 4,1.2 m -41.8,13.2 V 329 l -0.3,-1.3 5.4,3.2 m -3.5,-4 -0.2,-0.1 -0.4,-0.6 -0.1,-0.4 v -0.7 l 0.6,-1 0.6,-0.4 0.4,-0.1 0.7,0.1 0.5,0.3 0.4,0.5 0.4,1 1.1,4.1 2.1,-3.6 m -3.3,-3.9 -0.2,-0.1 -0.4,-0.6 -0.1,-0.4 v -0.7 l 0.6,-1 0.6,-0.4 0.4,-0.1 0.7,0.1 0.5,0.3 0.3,0.5 0.5,1 1.1,4.1 2.1,-3.7 m -36.2,15.2 0.6,-0.3 0.9,-0.9 0.1,6.3 m 1,-5.1 0.6,-0.3 0.9,-1 0.1,6.3 m 5,-4.4 -0.3,0.9 -0.6,0.6 -0.9,0.3 h -0.3 l -0.9,-0.3 -0.6,-0.6 -0.3,-0.9 v -0.3 l 0.3,-0.9 0.6,-0.6 0.8,-0.3 h 0.3 l 1,0.3 0.6,0.6 0.3,1.2 v 1.5 l -0.3,1.5 -0.6,0.9 -0.9,0.3 h -0.6 l -0.9,-0.3 -0.3,-0.6 m -6.4,-23.1 0.1,0.6 0.6,1.1 -6,-1.7 m 4.6,2.4 0.1,0.7 0.6,1.1 -6.1,-1.8 m 5.5,4.4 V 323 l -0.5,-0.5 -0.6,-0.2 -0.6,0.2 -0.5,0.5 -0.6,1 -0.5,0.8 -0.8,0.4 -0.6,0.1 -0.9,-0.2 -0.5,-0.5 -0.2,-0.4 v -0.9 l 0.3,-1.2 0.5,-0.7 0.4,-0.2 0.7,-0.2 0.8,0.3 0.5,0.5 0.4,0.7 0.1,0.9 -0.1,1.3 0.1,0.6 0.5,0.5 0.6,0.2 0.7,-0.2 0.5,-0.7 0.4,-1.3 m 80.6,-156.5 -0.3,0.6 -0.1,1.2 -3.9,-4.9 m 2.3,4.7 -0.3,0.6 -0.2,1.2 -3.8,-4.9 m 0.2,8 2.4,-1.8 -1.4,-2.4 -0.1,0.5 -0.5,0.8 -0.7,0.5 -0.9,0.3 -0.8,-0.1 -0.8,-0.5 -0.4,-0.5 -0.3,-0.9 0.1,-0.8 0.5,-0.8 0.7,-0.6 0.9,-0.3 0.4,0.1 0.6,0.3 m 47.2,-14.7 -0.4,-0.5 -1.1,-0.6 6,-1.7 m -5.2,0.3 -0.4,-0.5 -1.1,-0.6 6,-1.7 m -7.4,-2.4 4.8,1.8 -1.2,-4.4 m -3.6,2.6 6,-1.7 m 19.2,127.9 0.1,-0.7 -0.1,-1.3 4.8,4.1 m -3.2,-4.1 0.2,-0.7 -0.1,-1.2 4.8,4 m -2,-7.8 -1.9,2.3 1.9,2 -0.1,-0.4 0.4,-0.9 0.6,-0.7 0.8,-0.5 0.8,-0.1 0.9,0.4 0.5,0.4 0.5,0.8 v 0.8 l -0.3,0.9 -0.6,0.7 -0.8,0.5 h -0.4 l -0.7,-0.1 m -43.7,20.4 0.5,0.5 1.2,0.4 -5.7,2.7 m 5.3,-0.7 0.2,-0.1 h 0.7 l 0.4,0.2 0.5,0.4 0.5,1.1 v 0.6 l -0.1,0.4 -0.4,0.6 -0.6,0.2 h -0.6 l -1.1,-0.1 -4,-1.5 1.8,3.8 m 4.9,-1.1 0.5,0.4 1.2,0.4 -5.7,2.7 m 119.3,-261.2 0.9,-0.1 0.4,-0.5 0.1,-0.6 -0.1,-0.7 -0.5,-0.4 -1.2,-0.5 -0.8,-0.5 -0.4,-0.7 -0.2,-0.7 0.2,-0.9 0.4,-0.5 0.4,-0.2 0.9,-0.1 1.2,0.2 0.8,0.5 0.2,0.4 0.2,0.6 -0.2,0.9 -0.4,0.5 -0.7,0.5 -1,0.1 h -1.2 l -0.7,0.2 -0.4,0.5 -0.1,0.6 0.2,0.7 0.8,0.4 1.3,0.3 m -5.7,-1.2 1,-0.1 0.8,-0.8 0.6,-1.4 0.1,-0.8 0.1,-1.6 -0.4,-1 -0.9,-0.5 -0.5,-0.1 -1,0.1 -0.8,0.8 -0.6,1.4 -0.2,0.9 v 1.5 l 0.4,1 0.8,0.5 0.5,0.1 m 5.4,35.6 3.2,6.2 m -5.7,-2.8 2.5,-3.4 m 4.7,-2.8 0.5,0.8 0.2,0.9 -0.3,0.9 -0.2,0.2 -0.8,0.5 -0.8,0.2 -0.9,-0.3 -0.3,-0.2 -0.5,-0.8 -0.1,-0.9 0.3,-0.8 0.1,-0.3 0.8,-0.5 0.9,-0.1 1.1,0.4 1.2,0.9 1,1.2 0.4,1 -0.3,0.9 -0.4,0.5 -0.8,0.5 -0.6,-0.1 m 89.1,410.2 1,0.1 0.4,-0.5 0.2,-0.6 V 485 l -0.5,-0.5 -1,-0.7 -0.8,-0.6 -0.4,-0.7 -0.1,-0.7 0.3,-0.9 0.5,-0.4 0.4,-0.2 h 0.9 l 1.2,0.4 0.7,0.6 0.2,0.4 0.1,0.6 -0.3,0.9 -0.5,0.4 -0.7,0.4 h -1 l -1.2,-0.1 -0.7,0.1 -0.5,0.4 -0.2,0.6 0.1,0.7 0.8,0.6 1.3,0.4 m -3.8,-2.9 -0.1,0.3 -0.5,0.5 -0.4,0.1 -0.6,0.1 -1.2,-0.4 -0.4,-0.4 -0.2,-0.4 -0.1,-0.7 0.2,-0.6 0.5,-0.4 0.8,-0.7 3.8,-1.8 -3.9,-1.4 m 17.5,50 0.1,1 0.5,0.4 0.6,0.1 0.7,-0.1 0.4,-0.5 0.6,-1.1 0.4,-0.8 0.8,-0.5 0.6,-0.2 0.9,0.3 0.5,0.4 0.2,0.3 0.1,1 -0.2,1.2 -0.5,0.8 -0.4,0.2 -0.7,0.1 -0.8,-0.2 -0.5,-0.4 -0.5,-0.7 -0.1,-1 v -1.2 l -0.2,-0.6 -0.5,-0.5 -0.6,-0.1 -0.6,0.2 -0.5,0.8 -0.3,1.3 m 1.3,-5.7 0.1,1 0.7,0.8 1.4,0.6 0.9,0.2 h 1.5 l 1,-0.3 0.5,-0.8 0.2,-0.6 -0.1,-1 -0.8,-0.8 -1.4,-0.6 -0.8,-0.2 h -1.6 l -1,0.3 -0.5,0.8 -0.1,0.5 M 902.2,505 v -1 l -0.5,-0.5 -0.5,-0.2 -0.7,0.1 -0.5,0.4 -0.7,1.1 -0.6,0.7 -0.7,0.4 h -0.7 l -0.8,-0.3 -0.5,-0.5 -0.2,-0.3 v -1 l 0.5,-1.1 0.5,-0.8 0.4,-0.1 0.7,-0.1 0.8,0.3 0.5,0.5 0.4,0.8 -0.1,0.9 -0.1,1.2 0.1,0.7 0.4,0.5 0.6,0.2 0.7,-0.1 0.6,-0.7 0.4,-1.3 m -1.6,4.3 -1.1,3.1 -1.6,-2.5 -0.3,0.8 -0.5,0.5 -0.4,0.2 h -1 l -0.5,-0.3 -0.8,-0.5 -0.3,-0.8 v -1 l 0.3,-0.8 0.6,-0.8 0.4,-0.1 0.7,-0.1 M 931,612 l 0.1,0.9 0.5,0.5 0.6,0.1 0.7,-0.2 0.4,-0.5 0.6,-1.1 0.4,-0.8 0.8,-0.4 0.6,-0.2 0.9,0.2 0.5,0.4 0.2,0.4 0.1,0.9 -0.2,1.2 -0.5,0.8 -0.4,0.2 -0.6,0.2 -0.9,-0.2 -0.5,-0.4 -0.5,-0.7 -0.1,-1 v -1.2 l -0.2,-0.7 -0.5,-0.4 -0.6,-0.1 -0.6,0.1 -0.5,0.8 -0.3,1.3 m 1.5,-6.9 3.4,3.8 1.1,-4.4 m -4.5,0.6 6.2,1.4 m -66.3,-21.7 0.1,-1 -0.5,-0.4 -0.6,-0.3 -0.6,0.1 -0.5,0.5 -0.7,1 -0.6,0.7 -0.8,0.4 h -0.7 l -0.8,-0.3 -0.5,-0.5 -0.1,-0.4 v -0.9 l 0.4,-1.1 0.6,-0.8 0.4,-0.1 0.7,-0.1 0.8,0.3 0.5,0.5 0.3,0.8 v 0.9 l -0.1,1.3 v 0.6 l 0.5,0.5 0.5,0.2 h 0.7 l 0.6,-0.8 0.5,-1.2 m -2.9,7.5 -4.8,-5 m 6.3,1.1 -1.5,3.9 m 38.6,96.4 V 688 l -0.5,-1.1 5.8,2.4 m -4.9,-5.3 v 1 l 0.6,0.9 1.2,0.9 0.9,0.3 1.5,0.3 1,-0.2 0.6,-0.7 0.3,-0.6 V 685 l -0.6,-0.9 -1.2,-0.9 -0.8,-0.3 -1.5,-0.3 -1.1,0.2 -0.6,0.7 -0.2,0.4 m 2,-4.8 -0.1,1 0.6,0.9 1.3,0.8 0.8,0.4 1.5,0.3 1.1,-0.2 0.6,-0.8 0.2,-0.5 0.1,-1 -0.6,-0.9 -1.3,-0.8 -0.8,-0.4 -1.5,-0.3 -1,0.2 -0.7,0.8 -0.1,0.4 m -40.7,36.8 0.5,-0.4 0.7,-1.1 1.3,6.1 m 1.5,-7 -0.8,0.5 -0.4,1 v 1.5 l 0.2,0.9 0.7,1.4 0.7,0.8 1,0.1 0.6,-0.2 0.8,-0.5 0.4,-1 -0.1,-1.5 -0.2,-0.9 -0.6,-1.4 -0.8,-0.7 -0.9,-0.1 -0.5,0.1 m 7.6,0.4 -0.1,1 -0.4,0.7 -0.8,0.5 h -0.3 l -1,-0.1 -0.7,-0.4 -0.5,-0.8 -0.1,-0.3 0.1,-1 0.5,-0.7 0.8,-0.5 h 0.3 l 0.9,0.1 0.8,0.4 0.5,1.1 0.3,1.5 0.1,1.5 -0.4,1 -0.8,0.5 -0.6,0.1 h -0.9 l -0.5,-0.6 m -81,-10.2 -3.8,3.5 4.4,0.9 m -0.6,-4.4 -1.3,6.1 m 7.2,-3.9 -0.2,-0.7 -0.8,-0.5 -0.6,-0.1 -0.9,0.1 -0.8,0.8 -0.6,1.4 -0.3,1.5 v 1.2 l 0.5,0.7 0.8,0.5 0.3,0.1 1,-0.2 0.7,-0.4 0.4,-0.8 0.1,-0.3 -0.1,-1 -0.5,-0.7 -0.8,-0.5 h -0.3 l -0.9,0.1 -0.7,0.5 -0.5,0.8 m -104.9,-19.1 -3.3,3.9 4.4,0.4 m -1.1,-4.3 -0.5,6.2 m 3.7,-5.9 3.3,0.2 -2,2.3 h 0.9 l 0.6,0.4 0.3,0.3 0.2,0.9 -0.1,0.6 -0.3,0.9 -0.7,0.6 -0.9,0.2 -0.9,-0.1 -0.9,-0.3 -0.2,-0.4 -0.3,-0.6 m -4.7,-42.5 -3.3,0.4 1.5,-2.6 -0.9,0.1 -0.6,-0.3 -0.3,-0.2 -0.4,-0.9 -0.1,-0.6 0.2,-0.9 0.6,-0.7 0.8,-0.4 0.9,-0.1 0.9,0.2 0.4,0.3 0.3,0.6 m -7.9,6 2.6,-4.5 -4.5,0.5 m 1.9,4 -0.6,-6.3 m -22.9,22.2 -0.1,-1 -0.5,-0.4 -0.6,-0.1 -0.6,0.1 -0.4,0.6 -0.6,1.1 -0.5,0.8 -0.7,0.5 -0.6,0.1 -0.9,-0.2 -0.5,-0.4 -0.3,-0.3 -0.1,-1 0.3,-1.2 0.5,-0.8 0.3,-0.2 0.7,-0.2 0.8,0.2 0.6,0.4 0.4,0.8 0.1,0.9 0.1,1.2 0.1,0.7 0.6,0.4 0.6,0.1 0.6,-0.1 0.5,-0.9 0.3,-1.3 m -2.2,3.6 0.1,0.6 0.7,1.1 -6.1,-1.3 m 105.8,-66.6 0.7,0.7 0.6,-0.1 0.6,-0.3 0.3,-0.5 v -0.7 l -0.3,-1.2 -0.2,-0.9 0.2,-0.8 0.4,-0.6 0.7,-0.4 0.7,-0.1 0.4,0.1 0.7,0.7 0.6,1 0.2,1 -0.1,0.4 -0.4,0.5 -0.8,0.5 H 763 l -0.8,-0.2 -0.8,-0.7 -0.8,-0.8 -0.6,-0.4 h -0.6 l -0.6,0.3 -0.3,0.6 0.2,0.9 0.6,1.2 m -2.7,-4.8 0.7,0.6 h 0.7 l 0.5,-0.3 0.4,-0.6 -0.1,-0.6 -0.3,-1.2 -0.2,-0.9 0.2,-0.9 0.4,-0.5 0.8,-0.5 h 0.7 l 0.4,0.1 0.7,0.6 0.6,1.1 0.2,0.9 -0.2,0.4 -0.3,0.6 -0.8,0.4 -0.7,0.1 -0.8,-0.3 -0.7,-0.6 -0.9,-0.9 -0.5,-0.4 -0.7,0.1 -0.5,0.3 -0.4,0.5 0.2,1 0.7,1.1 m -16.6,0.4 -1.2,3.1 -1.6,-2.6 -0.3,0.9 -0.5,0.4 -0.4,0.2 -0.9,-0.1 -0.6,-0.2 -0.7,-0.6 -0.4,-0.8 0.1,-0.9 0.3,-0.8 0.6,-0.8 0.4,-0.1 0.7,-0.1 m 0.7,9.8 h 0.6 l 0.6,-0.7 0.3,-0.6 v -1 l -0.6,-0.8 -1.3,-0.9 -1.4,-0.5 -1.2,-0.1 -0.8,0.3 -0.6,0.7 -0.1,0.3 -0.1,1 0.4,0.7 0.7,0.6 0.3,0.1 0.9,0.1 0.8,-0.4 0.6,-0.7 0.1,-0.3 0.1,-0.9 -0.4,-0.8 -0.7,-0.6 m 48.3,-15.6 -0.5,-0.9 -0.6,-0.1 -0.6,0.1 -0.5,0.4 -0.2,0.7 v 1.2 l -0.1,1 -0.5,0.7 -0.5,0.4 -0.9,0.2 -0.7,-0.2 -0.3,-0.2 -0.5,-0.8 -0.3,-1.2 0.1,-0.9 0.3,-0.4 0.5,-0.4 0.9,-0.2 0.6,0.2 0.7,0.4 0.5,0.8 0.6,1.1 0.4,0.6 0.6,0.1 0.6,-0.1 0.6,-0.4 0.1,-1 -0.3,-1.3 m 1.1,5.4 -0.4,-0.8 -0.7,-0.2 -0.6,0.1 -0.5,0.5 -0.2,0.6 v 1.2 l -0.1,1 -0.5,0.7 -0.5,0.4 -0.9,0.2 -0.6,-0.1 -0.4,-0.3 -0.5,-0.8 -0.2,-1.2 0.1,-0.9 0.2,-0.4 0.5,-0.4 0.9,-0.2 0.7,0.2 0.7,0.4 0.5,0.9 0.5,1.1 0.4,0.5 0.7,0.2 0.6,-0.2 0.5,-0.4 0.1,-0.9 -0.3,-1.4 m 53,-11.3 0.4,0.9 0.6,0.2 h 0.6 l 0.6,-0.3 0.3,-0.6 0.2,-1.3 0.2,-0.9 0.6,-0.6 0.6,-0.4 h 0.9 l 0.6,0.2 0.3,0.3 0.3,0.9 0.1,1.2 -0.2,0.9 -0.3,0.3 -0.6,0.4 h -0.9 l -0.6,-0.2 -0.6,-0.6 -0.4,-0.9 -0.4,-1.1 -0.3,-0.6 -0.6,-0.3 -0.6,0.1 -0.6,0.3 -0.2,0.9 v 1.4 m -0.5,-8.1 6.5,2.6 m -6.2,1.6 -0.3,-4.2 m -56.7,-55.6 -0.2,-0.9 -0.6,-0.4 -0.6,-0.1 -0.6,0.3 -0.4,0.5 -0.4,1.2 -0.4,0.8 -0.7,0.6 -0.6,0.2 -0.9,-0.1 -0.6,-0.3 -0.2,-0.4 -0.2,-0.9 0.1,-1.2 0.4,-0.9 0.3,-0.2 0.7,-0.3 0.9,0.1 0.5,0.4 0.6,0.7 0.2,0.9 0.1,1.2 0.3,0.6 0.5,0.4 0.6,0.1 0.6,-0.3 0.4,-0.8 0.2,-1.4 m -1.7,7.5 0.6,-0.2 0.4,-0.9 0.1,-0.6 -0.2,-0.9 -0.9,-0.7 -1.4,-0.5 -1.5,-0.1 -1.2,0.1 -0.7,0.6 -0.4,0.8 v 0.3 l 0.2,0.9 0.5,0.7 0.9,0.4 h 0.3 l 0.9,-0.2 0.6,-0.5 0.4,-0.9 0.1,-0.3 -0.2,-0.9 -0.6,-0.6 -0.8,-0.4 m 31.7,-2.8 0.9,0.2 0.6,-0.3 0.3,-0.5 0.1,-0.7 -0.3,-0.5 -0.8,-1 -0.6,-0.7 -0.1,-0.9 0.1,-0.6 0.5,-0.8 0.6,-0.3 0.4,-0.1 0.9,0.3 1,0.7 0.5,0.7 0.1,0.5 -0.1,0.6 -0.5,0.8 -0.6,0.3 -0.8,0.1 -0.9,-0.2 -1.2,-0.5 -0.7,-0.1 -0.5,0.3 -0.4,0.5 -0.1,0.7 0.6,0.8 1.1,0.7 m -3.8,-2.6 -2.7,-1.9 2.9,-0.9 -0.8,-0.5 -0.3,-0.6 -0.1,-0.4 0.3,-1 0.4,-0.4 0.7,-0.6 0.9,-0.2 0.9,0.3 0.7,0.5 0.6,0.8 v 0.4 l -0.1,0.7"
       id="nums_002"
       stroke="#000000"
       style="stroke-width:1.01549;stroke-dasharray:none" />
    <path
       d="m 648.9,555.9 31.4,35.7 -44.5,81 -57.9,52.9 -21.1,-59.9 19.7,-96.3 11.9,-63.3 -0.2,-21 77.9,-86.4 12.6,-73.1 46.9,23.2 44.4,-43.9 69.8,-66.4 45.4,-31 -54.9,-1.4 9.8,-95.9 41.3,-46.8 17.5,-49.3 67.3,31.4 -23.9,48.9 28.7,-46.2 39.1,109.5 -50,5.3 41.8,27.9 -92.6,60.6 107.4,26.5 4,20.6 -60.5,34.5 65.2,48.9 -78,93.5 -29.2,-68.9 -18.5,-50.2 -54.5,1.4 51.3,18.2 -37.8,37.8 -25.1,70.6 -85.4,-15.4 11.9,-47.4 11.6,-47.5 -55.6,66.6 -8.2,121.5 z m -11.8,-329.6 46.7,-12.2 -40.1,-10.9 98,-76.2 10.5,37.7 21.6,12.8 -20.3,-14.7 15.8,-45.1 -51.1,-58.4 86.1,-36.4 76.7,16.3 -59,78.5 -4.4,63.4 -5.7,43.2 -79.9,95 -18.9,-40 -12.7,42.4 -34.7,-10.2 -18.1,31.3 -41.5,0.5 13.5,-46.4 39.4,-26.5 -22.9,-41.6 56,19.9 z M 851.3,727 746.2,705.4 l -99.1,-7.5 10,-46.5 59,-6.2 29.3,-76 38.4,67.1 -16.5,-75.5 7.5,-69.2 67.3,47 5.7,88.2 31.2,-82.7 28.3,-77 60.9,21 -17.8,76.3 -20.9,91.2 -24.8,59.4 z"
       id="coupes_002"
       stroke="#ff0000"
       sodipodi:nodetypes="ccccccccccccccccccccccccccccccccccccccccccccccccccccccccccccccccccccccccccccccccccccc"
       style="stroke-width:1.26936" />
    <path
       d="m 898.9,14 43.4,80.3 m 0,0 -102.2,15.8 m 45.1,97.3 -45.1,-97.3 M 942.3,94.3 885.2,207.4 m 74.9,-44.5 -74.9,44.5 m 57.1,-113.1 17.8,68.6 m -50.8,88.5 -24.1,-44 m 24.1,44 -69.5,-13 m 69.5,13 -9.6,104.9 m 0,0 -59.9,-117.9 m 5.4,119.3 -5.4,-119.3 m 5.4,119.3 -75.2,-52.9 m 75.2,52.9 -73.5,16.3 m 0,0 -1.7,-69.2 m 1.7,69.2 -46.1,-25.3 m 119.6,9 13.5,56 m 0,0 -98.6,7.8 M 960.2,333 899.7,356.3 m 9.6,-104.9 50.9,81.6 M 716.1,440.6 678.7,325.5 m 37.4,115.1 -50,-42 m 50,42 -67.2,115.3 m 0,0 17.2,-157.3 M 648.9,555.9 588.2,485 m 60.7,70.9 -72.4,13.4 m 59.3,103.3 -59.3,-103.3 m 59.3,103.3 -79,-7 m 385.5,-571.3 67.8,63.3 M 833.6,484.3 760.1,421.5 m 265.3,-39.6 -107.2,24.6 M 817.6,181.1 773.8,177.5 m 0,0 48.2,-59.8 m -4.4,63.4 -125.5,67.6 m 0,0 81.7,-71.2 M 753.5,162.8 822,117.7 m -138.2,96.4 68.4,-49.4 m 17.1,-47 35,-94.8 m 0,0 17.7,94.8 m -178.3,85.5 108.5,-38.5 m 65.4,16.4 -104.5,98.2 m 0,0 -21,-30.6 m 21,30.6 -54.1,-8.9 m 0,0 33.1,-21.7 m 119.8,-24.4 -98.8,55 m 0,0 -47.4,32.2 m 0,0 -6.7,-41.1 m 6.7,41.1 -46.1,-14.6 m 28,45.9 -28,-45.9 M 950.4,564.4 907.3,467.1 M 950.4,564.4 879,544.1 M 929.5,655.6 879,544.1 m 50.5,111.5 -81.7,-28.8 m 56.9,88.2 -56.9,-88.2 m 3.5,100.2 -3.5,-100.2 m 3.5,100.2 -67.5,-90.7 m 0,0 64,-9.5 m -101.6,78.6 37.6,-69.1 m -67.7,8.9 67.7,-8.9 m -37.6,69.1 -30.1,-60.2 m -69,52.7 69,-52.7 m 51.2,-84.4 80.5,66 m -80.5,-66 74.8,-22.2"
       id="plisM_002"
       stroke="#a52a2a"
       stroke-dasharray="4" />
    <path
       d="m 942.3,94.3 -60.9,-31 m 120.5,127.5 -116.7,16.6 m -169.1,233.2 9.5,-91.9 m 133.1,65 -87,-39.7 m 245,-96.1 -56.5,55.1 M 648.9,555.9 588.4,506 m 60.5,49.9 -13.1,116.7 M 960.2,333 l -42,73.5 m -226.1,-157.8 60.1,-84 m 17.1,-47 H 822 m -129.9,131 -8.3,-34.6"
       id="plisV_002"
       stroke="#008000"
       stroke-dasharray="4, 1, 1, 1" />
    <path
       d="m 909.8,76.8 4,4 m 0,-4 -4,4 m 31.7,116.3 4,4 m 0,-4 -4,4 m -222.6,191.6 4,4 m 0,-4 -4,4 m 94.3,-4.8 4,4 m 0,-4 -4,4 m 173.3,-92.4 4,4 m 0,-4 -4,4 M 616.6,529 l 4,4 m 0,-4 -4,4 m 23.8,79.3 4,4 m 0,-4 -4,4 m 296.8,-248.5 4,4 m 0,-4 -4,4 m -217.1,-167.1 4,4 m 0,-4 -4,4 m 73.5,-93 4,4 m 0,-4 -4,4 m -107.7,109.7 4,4 m 0,-4 -4,4"
       id="marqueV_002"
       stroke="#008000" />
    <path
       d="m 791.1,336.9 v -0.8 l 0.7,-1.5 0.8,-0.7 1.5,-0.8 h 3 l 1.5,0.8 0.7,0.7 0.8,1.5 v 1.5 l -0.8,1.5 -1.5,2.3 -7.5,7.5 h 10.5"
       id="titre_2"
       stroke="#4b0082" />
    <path
       d="m 705.3,196.8 h 8.2 l -4.5,6 h 2.3 l 1.5,0.8 0.7,0.7 0.8,2.3 v 1.5 l -0.8,2.2 -1.5,1.5 -2.2,0.8 h -2.3 l -2.2,-0.8 -0.8,-0.7 -0.7,-1.5"
       id="titre_3"
       stroke="#4b0082" />
    <path
       d="m 801.4,595.4 -7.5,10.5 h 11.2 m -3.7,-10.5 v 15.8"
       id="titre_4"
       stroke="#4b0082" />
  </g>
  <g
     id="page_003">
    <path
       d="m 1262.6,282.4 -0.6,-0.4 -1.2,-0.4 5.6,-2.8 m -7.1,0.3 0.7,0.6 1,0.2 1.5,-0.4 0.8,-0.4 1.2,-1 0.6,-0.9 -0.2,-0.9 -0.2,-0.6 -0.7,-0.6 -1.1,-0.2 -1.5,0.4 -0.8,0.4 -1.2,1 -0.5,0.9 0.1,0.9 0.2,0.4 m -2.3,-4.6 0.7,0.7 1,0.1 1.5,-0.4 0.8,-0.4 1.2,-0.9 0.6,-1 -0.2,-0.9 -0.2,-0.6 -0.7,-0.6 -1.1,-0.2 -1.5,0.4 -0.8,0.4 -1.2,1 -0.5,0.9 0.1,1 0.2,0.4 m -71.5,-34.9 0.2,-5.2 -3.8,2.5 m 3.6,2.7 -3.5,-5.3 m -1.4,8.5 0.2,-5.2 -3.7,2.4 m 3.5,2.8 -3.4,-5.3 m 64.3,2.1 -0.6,-0.4 -1.2,-0.4 5.7,-2.7 m -7.1,0.1 0.6,0.7 1.1,0.1 1.5,-0.3 0.8,-0.4 1.2,-0.9 0.6,-0.9 -0.1,-1 -0.3,-0.5 -0.6,-0.7 -1.1,-0.2 -1.5,0.4 -0.8,0.4 -1.2,0.9 -0.6,0.9 0.1,1 0.2,0.4 m -2.9,-6.4 1.2,2.8 2.6,-0.9 -0.4,-0.2 -0.6,-0.7 -0.4,-0.8 -0.1,-0.9 0.3,-0.8 0.6,-0.7 0.6,-0.2 0.9,-0.1 0.8,0.3 0.7,0.7 0.4,0.8 0.1,0.9 -0.2,0.4 -0.4,0.5 m -56.6,-30.8 0.6,0.2 1.3,0.1 -4.7,4.2 m 6.8,-2.1 -0.8,-0.5 -1.1,0.2 -1.3,0.7 -0.7,0.6 -0.9,1.2 -0.3,1.1 0.4,0.8 0.4,0.5 0.8,0.5 1.1,-0.2 1.3,-0.7 0.7,-0.6 0.9,-1.2 0.3,-1.1 -0.4,-0.9 -0.3,-0.3 m 4,5.8 0.2,-0.6 -0.4,-0.9 -0.4,-0.4 -0.8,-0.5 -1.1,0.2 -1.3,0.7 -1.1,1 -0.7,1 -0.1,0.9 0.4,0.9 0.2,0.2 0.8,0.5 h 0.9 l 0.9,-0.4 0.2,-0.1 0.5,-0.9 v -0.8 l -0.4,-0.9 -0.2,-0.2 -0.8,-0.5 h -0.8 l -0.9,0.3 m 69.8,-40.1 v -0.6 l -0.4,-1.3 5.5,3.1 m -4.2,-5.7 -0.2,0.9 0.5,1 1.2,1 0.8,0.4 1.4,0.5 1.1,-0.1 0.7,-0.6 0.3,-0.6 0.2,-0.9 -0.5,-1 -1.2,-1 -0.8,-0.4 -1.4,-0.5 -1.1,0.1 -0.7,0.6 -0.2,0.4 m 3.1,-5.7 2.2,4.7 2.2,-3.9 m -4.4,-0.8 5.5,3.1 m -27.7,-55 -0.4,-0.5 -1,-0.9 6.3,-0.4 m -6.7,-2.5 0.4,0.9 0.9,0.5 1.5,0.2 0.9,-0.1 1.5,-0.4 0.9,-0.6 0.2,-1 v -0.5 l -0.4,-0.9 -0.9,-0.6 -1.5,-0.2 -0.9,0.1 -1.5,0.4 -0.9,0.7 -0.2,0.9 v 0.4 m 1.2,-3.4 -0.3,-0.5 -1,-0.9 6.3,-0.4 m -44,3.7 -0.5,-0.3 -1.2,-0.4 5.5,-3.1 m -7.2,0.6 0.7,0.7 1.1,0.1 1.5,-0.5 0.8,-0.4 1.1,-1 0.5,-1 -0.2,-0.9 -0.3,-0.6 -0.7,-0.6 -1,-0.1 -1.5,0.5 -0.8,0.4 -1.1,1 -0.5,1 0.1,0.9 0.3,0.4 m -2,-3.5 -1.6,-2.8 3,0.4 -0.5,-0.8 v -0.7 l 0.1,-0.4 0.7,-0.7 0.5,-0.3 0.9,-0.2 0.8,0.3 0.7,0.6 0.5,0.8 0.2,0.9 -0.2,0.4 -0.3,0.6 m 63,3.2 0.1,0.6 0.7,1.1 -6.2,-1.5 m 5.6,4.4 v -0.9 l -0.8,-0.8 -1.3,-0.7 -0.9,-0.2 -1.5,-0.1 -1.1,0.4 -0.5,0.8 -0.1,0.6 0.1,0.9 0.7,0.8 1.4,0.7 0.9,0.2 1.5,0.1 1,-0.4 0.5,-0.8 0.1,-0.4 m -2.4,3.4 0.3,0.1 0.5,0.4 0.2,0.4 0.2,0.6 -0.3,1.2 -0.4,0.5 -0.4,0.2 -0.7,0.2 -0.5,-0.2 -0.6,-0.4 -0.7,-0.8 -2.2,-3.6 -1,4 m -37.5,-25.3 0.4,0.6 1,0.7 -6.1,1.2 m 6.9,1.6 -0.5,-0.8 -1,-0.4 h -1.5 l -0.9,0.2 -1.4,0.5 -0.8,0.8 -0.1,0.9 0.1,0.6 0.5,0.8 1,0.5 h 1.5 l 0.9,-0.2 1.4,-0.6 0.8,-0.7 0.1,-1 -0.1,-0.4 m 0.8,3.9 0.6,3.3 -2.7,-1.4 0.2,0.9 -0.2,0.7 -0.2,0.3 -0.9,0.5 -0.6,0.1 -0.9,-0.1 -0.7,-0.5 -0.5,-0.8 -0.1,-0.9 0.1,-1 0.2,-0.3 0.6,-0.4 M 1184.2,79 1184,79.7 V 81 l -4.6,-4.4 m 2.8,6.7 0.4,-0.9 -0.3,-1.1 -0.9,-1.2 -0.6,-0.6 -1.3,-0.8 -1.1,-0.2 -0.8,0.4 -0.4,0.5 -0.4,0.8 0.2,1.1 0.9,1.2 0.7,0.7 1.3,0.8 1,0.1 0.9,-0.4 0.3,-0.3 m -3.4,3.5 0.4,-0.8 -0.2,-0.7 -0.5,-0.4 -0.6,-0.2 -0.6,0.3 -1.1,0.6 -0.8,0.5 h -0.9 l -0.6,-0.2 -0.7,-0.6 -0.2,-0.6 v -0.4 l 0.4,-0.9 0.8,-0.9 0.9,-0.4 h 0.4 l 0.6,0.2 0.7,0.6 0.2,0.6 v 0.8 l -0.4,0.9 -0.6,1.1 -0.2,0.6 0.3,0.7 0.4,0.4 0.7,0.2 0.8,-0.5 0.9,-1 m 118,11.6 0.1,-0.6 -0.3,-1.3 5.3,3.3 m -4,-5.9 -0.2,0.9 0.5,1 1.1,1 0.8,0.5 1.4,0.5 h 1.1 l 0.7,-0.7 0.3,-0.5 0.2,-0.9 -0.4,-1 -1.2,-1 -0.7,-0.5 -1.5,-0.5 -1.1,0.1 -0.7,0.6 -0.2,0.4 m 2.5,-4.2 -0.2,0.9 0.4,0.6 0.5,0.3 h 0.6 l 0.6,-0.3 0.9,-0.9 0.7,-0.6 0.8,-0.2 h 0.7 l 0.8,0.5 0.3,0.6 0.1,0.4 -0.2,0.9 -0.6,1 -0.7,0.6 -0.4,0.1 h -0.7 l -0.8,-0.5 -0.3,-0.5 -0.2,-0.9 0.2,-0.9 0.3,-1.2 0.1,-0.6 -0.4,-0.6 -0.5,-0.3 -0.6,-0.1 -0.8,0.6 -0.7,1.2 m -6.3,-6.2 -0.6,0.2 -1,0.8 0.7,-6.2 m -3.6,6.1 0.9,-0.2 0.7,-0.8 0.5,-1.5 0.1,-0.9 -0.2,-1.5 -0.5,-1 -0.8,-0.4 h -0.6 l -0.9,0.2 -0.7,0.8 -0.5,1.5 -0.1,0.8 0.1,1.6 0.5,0.9 0.9,0.4 0.4,0.1 m -7.4,-0.9 3.7,-5.9 m 0.5,6.4 -4.2,-0.5 m -42.7,-37.6 -0.4,0.5 -0.3,1.3 -3.3,-5.4 m 0.9,7.1 0.6,-0.7 0.1,-1.1 -0.6,-1.5 -0.4,-0.7 -1.1,-1.2 -1,-0.4 -0.9,0.2 -0.5,0.3 -0.6,0.7 v 1.1 l 0.5,1.5 0.4,0.7 1.1,1.1 1,0.5 0.9,-0.2 0.4,-0.2 m -6.4,3.8 -0.7,-6.9 m 4.3,4.7 -3.6,2.2 m 45.7,1.7 -0.6,-0.1 -1.3,0.1 4,-4.9 m -6.4,3.2 0.9,0.3 1,-0.3 1.2,-0.9 0.6,-0.7 0.7,-1.4 0.1,-1.1 -0.5,-0.8 -0.5,-0.3 -0.9,-0.4 -1,0.3 -1.2,1 -0.6,0.7 -0.7,1.3 -0.1,1.1 0.5,0.8 0.4,0.3 m -2.1,-3.6 -0.2,0.2 -0.6,0.3 h -0.4 l -0.7,-0.1 -0.9,-0.8 -0.3,-0.6 v -0.4 l 0.1,-0.7 0.4,-0.5 0.6,-0.2 1,-0.3 4.3,-0.5 -3.3,-2.6 m -7.2,18.4 0.6,-0.4 0.7,-1.1 1.2,6.2 m 1.6,-7 -0.8,0.5 -0.4,1 v 1.5 l 0.2,0.9 0.5,1.4 0.8,0.8 0.9,0.1 0.6,-0.1 0.9,-0.5 0.4,-1 v -1.5 l -0.2,-0.9 -0.6,-1.4 -0.7,-0.8 -1,-0.1 -0.4,0.1 m 3.5,0.8 0.5,-0.4 0.8,-1.1 1.2,6.2 m -133,175.2 -0.9,5.1 4.1,-2 m -3.2,-3.1 2.7,5.7 m 3.4,-8.5 v 6.9 m -3.8,-5.1 3.8,-1.8 m 23.3,-16.5 -0.4,-0.6 -1,-0.8 6.3,-0.8 m -6.9,-2.1 0.4,0.9 1,0.5 1.5,0.1 0.9,-0.1 1.5,-0.5 0.8,-0.8 0.2,-0.9 -0.1,-0.6 -0.4,-0.8 -1,-0.5 -1.5,-0.1 -0.9,0.1 -1.5,0.5 -0.8,0.7 -0.2,0.9 0.1,0.5 m 0,-7.1 -0.6,0.4 -0.2,0.9 0.1,0.6 0.4,0.9 1,0.5 1.5,0.1 1.5,-0.2 1.2,-0.5 0.5,-0.7 0.1,-0.9 v -0.3 l -0.4,-0.8 -0.7,-0.6 -0.9,-0.1 h -0.3 l -0.9,0.4 -0.5,0.7 -0.2,0.9 0.1,0.3 0.4,0.9 0.7,0.5 0.9,0.2 M 1142,142.8 v 0.7 l 0.4,1.2 -5.6,-3 m 4.3,5.7 0.2,-0.9 -0.5,-1 -1.2,-1 -0.8,-0.4 -1.4,-0.5 -1.1,0.1 -0.7,0.7 -0.3,0.5 -0.1,0.9 0.5,1 1.1,1 0.8,0.4 1.5,0.5 1.1,-0.1 0.7,-0.7 0.2,-0.4 m -3.1,5.8 -2.3,-4.6 -2.1,3.9 m 4.4,0.7 -5.5,-3 m -34,80.2 0.6,0.3 1.3,0.2 -5.1,3.7 m 7,-1.4 -0.8,-0.6 h -1.1 l -1.3,0.7 -0.8,0.5 -1,1.2 -0.4,1 0.3,0.9 0.4,0.5 0.7,0.5 h 1.1 l 1.4,-0.7 0.7,-0.5 1.1,-1.1 0.3,-1.1 -0.3,-0.9 -0.2,-0.3 m 2.6,7.1 -0.9,0.3 -0.8,-0.1 -0.8,-0.6 -0.2,-0.2 -0.3,-0.9 0.1,-0.9 0.6,-0.7 0.2,-0.2 0.9,-0.3 0.9,0.1 0.8,0.6 0.1,0.2 0.3,0.9 -0.1,0.9 -0.8,0.9 -1.2,0.9 -1.4,0.6 -1.1,0.1 -0.8,-0.6 -0.3,-0.5 -0.3,-0.9 0.3,-0.6 m 1.9,-31.1 -0.3,0.6 -0.1,1.3 -4.1,-4.8 m 2,6.9 0.5,-0.9 -0.1,-1 -0.8,-1.4 -0.5,-0.7 -1.3,-0.9 -1,-0.3 -0.9,0.4 -0.4,0.4 -0.5,0.8 0.1,1.1 0.8,1.3 0.6,0.7 1.2,0.9 1,0.3 0.9,-0.4 0.3,-0.2 m -5.3,4.5 2.3,-2 -1.5,-2.2 -0.1,0.4 -0.4,0.8 -0.7,0.6 -0.9,0.4 -0.9,-0.1 -0.8,-0.5 -0.4,-0.4 -0.3,-0.9 v -0.8 l 0.5,-0.9 0.7,-0.5 0.9,-0.4 h 0.4 l 0.6,0.3 m 142.9,106.4 0.4,-0.6 0.4,-1.2 2.9,5.6 m -0.8,-5.2 -0.2,-0.3 v -0.6 l 0.1,-0.4 0.4,-0.6 1.1,-0.5 0.7,-0.1 0.4,0.2 0.5,0.4 0.3,0.5 v 0.7 l -0.1,1.1 -1.3,4 3.7,-1.9 m -0.3,-7 -0.6,0.7 -0.1,1.1 0.4,1.4 0.4,0.8 1,1.2 0.9,0.6 0.9,-0.2 0.6,-0.3 0.6,-0.7 0.2,-1 -0.5,-1.5 -0.4,-0.8 -0.9,-1.2 -1,-0.5 -0.9,0.1 -0.4,0.2 m -69,3 0.2,0.7 0.7,1.1 -6.2,-1.5 m 4.7,2.2 0.2,0.7 0.7,1.1 -6.2,-1.5 m 5.4,5.7 -3.4,-3.9 -1,4.4 m 4.4,-0.5 -6.1,-1.4 m 13,9.2 0.6,-0.2 1,-0.9 -0.2,6.3 m 1.2,-5.1 0.6,-0.3 0.9,-0.9 -0.1,6.3 m 1.9,-6.4 h 3.3 l -1.9,2.4 h 0.9 l 0.6,0.3 0.3,0.3 0.3,0.9 v 0.6 l -0.4,0.9 -0.6,0.6 -0.9,0.3 h -0.9 l -0.9,-0.4 -0.3,-0.3 -0.3,-0.6 m -31.3,-52.4 -2.8,-4.3 -1.7,4.2 m 4.5,0.1 -5.9,-2.3 m 4.2,6.4 0.1,-0.9 -0.7,-0.9 -1.2,-0.8 -0.9,-0.4 -1.5,-0.2 -1.1,0.2 -0.6,0.7 -0.2,0.6 v 0.9 l 0.6,0.9 1.3,0.8 0.8,0.4 1.5,0.2 1.1,-0.2 0.6,-0.7 0.2,-0.4 m -9.2,18.2 0.4,-0.6 0.5,-1.2 2.7,5.7 m -1.3,-5 0.4,-0.6 0.5,-1.2 2.7,5.7 m -0.7,-5.2 -0.1,-0.3 V 301 l 0.1,-0.4 0.5,-0.5 1,-0.5 h 0.7 l 0.4,0.1 0.5,0.5 0.3,0.5 v 0.7 l -0.2,1 -1.4,4 3.8,-1.8 m 220.9,-109.4 -0.4,0.6 0.2,0.9 0.3,0.5 0.7,0.6 1.1,0.1 1.4,-0.5 1.3,-0.8 0.9,-0.9 0.2,-0.8 -0.2,-0.9 -0.1,-0.3 -0.7,-0.6 -0.9,-0.2 -0.9,0.2 -0.2,0.2 -0.7,0.7 -0.2,0.8 0.2,0.9 0.2,0.3 0.7,0.6 0.8,0.2 0.9,-0.2 m -5.1,-3.4 -0.3,0.1 -0.6,0.1 -0.5,-0.1 -0.5,-0.4 -0.6,-1 -0.1,-0.7 0.1,-0.4 0.4,-0.6 0.5,-0.3 h 0.7 l 1.1,0.1 4.1,1 -2.2,-3.6 m 14.9,44.5 -0.5,0.4 -0.1,0.9 0.1,0.6 0.5,0.8 1.1,0.4 1.5,-0.1 1.4,-0.4 1.1,-0.5 0.5,-0.8 v -0.9 -0.3 l -0.5,-0.8 -0.8,-0.4 -0.9,-0.1 -0.3,0.1 -0.8,0.5 -0.4,0.7 -0.1,0.9 0.1,0.3 0.5,0.8 0.7,0.5 h 0.9 m -6.1,-6.9 4.8,1.9 -1.1,-4.3 m -3.7,2.4 6.1,-1.5 m -72.3,12.4 0.4,-0.5 -0.2,-1 -0.3,-0.5 -0.7,-0.6 -1,-0.1 -1.5,0.4 -1.3,0.7 -0.9,0.9 -0.3,0.8 0.2,0.9 0.1,0.3 0.7,0.6 0.8,0.3 1,-0.2 0.2,-0.2 0.7,-0.6 0.2,-0.9 -0.1,-0.9 -0.2,-0.3 -0.7,-0.6 -0.8,-0.2 -0.9,0.1 m 6.8,3.8 -0.7,-0.7 -0.7,0.1 -0.5,0.2 -0.4,0.6 v 0.7 l 0.3,1.2 0.2,0.9 -0.2,0.8 -0.4,0.6 -0.8,0.4 h -0.7 l -0.4,-0.1 -0.7,-0.7 -0.6,-1 -0.1,-1 0.1,-0.4 0.4,-0.5 0.8,-0.4 0.7,-0.1 0.8,0.3 0.7,0.6 0.8,0.9 0.5,0.4 h 0.7 l 0.5,-0.3 0.4,-0.5 -0.1,-1 -0.7,-1.2 m 12.2,26.5 0.5,-0.5 -0.1,-1 -0.2,-0.5 -0.7,-0.8 -1,-0.2 -1.5,0.3 -1.4,0.6 -1,0.8 -0.3,0.8 0.1,0.9 0.1,0.3 0.6,0.7 0.8,0.3 0.9,-0.1 0.3,-0.1 0.7,-0.6 0.3,-0.8 v -0.9 l -0.2,-0.3 -0.6,-0.7 -0.8,-0.3 h -0.9 m 5.4,7.5 h -0.9 l -0.8,-0.3 -0.7,-0.7 -0.1,-0.3 v -0.9 l 0.3,-0.8 0.7,-0.6 0.3,-0.2 h 0.9 l 0.8,0.3 0.6,0.7 0.1,0.3 0.1,0.9 -0.3,0.8 -1,0.8 -1.4,0.5 -1.5,0.3 -1,-0.2 -0.7,-0.7 -0.2,-0.5 -0.1,-1 0.5,-0.5 m 4.5,-112.4 -0.1,0.6 0.6,0.8 0.6,0.3 0.9,0.2 1,-0.5 1,-1.1 0.8,-1.3 0.4,-1.2 -0.2,-0.8 -0.6,-0.7 -0.3,-0.2 -0.9,-0.2 -0.9,0.2 -0.7,0.6 -0.1,0.3 -0.3,0.9 0.2,0.8 0.7,0.8 0.2,0.1 0.9,0.2 0.9,-0.2 0.7,-0.6 m -7,0.7 -2.8,-1.8 2.8,-1.1 -0.8,-0.4 -0.4,-0.6 -0.1,-0.4 0.3,-1 0.3,-0.5 0.7,-0.6 0.8,-0.2 1,0.2 0.7,0.5 0.6,0.7 0.1,0.5 v 0.6 m 43,112.9 4.5,5.3 m -6.2,-1.5 1.7,-3.8 m 1.6,-4 2.7,4.5 1.8,-4.1 m -4.5,-0.4 5.8,2.6 m -22.2,63 6,3.6 m -6.4,0.6 0.4,-4.2 m 0.5,-5.2 6,3.6 m -6.4,0.6 0.4,-4.2 m -13.8,38.6 0.2,7 m -3.9,-5.1 3.7,-1.9 m 2.7,-1.3 -0.7,0.7 -0.1,1 0.4,1.5 0.4,0.8 0.9,1.2 1,0.6 0.9,-0.2 0.5,-0.2 0.7,-0.7 0.1,-1.1 -0.4,-1.4 -0.4,-0.8 -0.9,-1.3 -0.9,-0.5 -1,0.1 -0.4,0.2 m -28.9,-69.4 0.4,0.5 h 1 l 0.5,-0.1 0.8,-0.6 0.4,-1 -0.2,-1.5 -0.4,-1.5 -0.6,-1.1 -0.7,-0.4 h -1 l -0.3,0.1 -0.7,0.5 -0.5,0.7 v 1 l 0.1,0.3 0.5,0.8 0.8,0.4 h 0.9 l 0.3,-0.1 0.8,-0.5 0.4,-0.7 v -1 m -8,4.5 v -1 l 0.5,-0.7 0.7,-0.5 0.3,-0.1 h 1 l 0.7,0.4 0.5,0.8 0.1,0.3 v 1 l -0.4,0.7 -0.8,0.5 -0.3,0.1 h -0.9 l -0.8,-0.4 -0.6,-1.1 -0.4,-1.5 -0.1,-1.5 0.3,-1 0.8,-0.5 0.6,-0.2 h 0.9 l 0.5,0.5 m -10.5,20.3 0.6,-0.1 0.6,-0.7 0.3,-0.6 v -0.9 l -0.6,-0.9 -1.3,-0.8 -1.4,-0.5 -1.3,-0.2 -0.7,0.4 -0.6,0.7 -0.1,0.3 -0.1,0.9 0.4,0.8 0.7,0.6 0.3,0.1 0.9,0.1 0.8,-0.4 0.6,-0.7 0.1,-0.3 0.1,-0.9 -0.4,-0.8 -0.7,-0.6 m 1.6,7.6 v -1 l -0.4,-0.5 -0.6,-0.2 -0.7,0.1 -0.5,0.5 -0.7,1 -0.6,0.7 -0.7,0.4 h -0.7 l -0.8,-0.3 -0.5,-0.5 -0.2,-0.4 0.1,-0.9 0.4,-1.1 0.6,-0.8 0.4,-0.1 0.6,-0.1 0.9,0.3 0.4,0.5 0.4,0.8 -0.1,0.9 -0.1,1.2 0.1,0.7 0.4,0.5 0.6,0.2 0.7,-0.1 0.6,-0.7 0.4,-1.3 m -2,36.1 -6.7,-1.8 m 5.9,-2.4 0.8,4.2 m -1.2,1.3 0.4,0.5 1.1,0.7 -6.2,1.2 m -11.4,22.6 6.2,-3.3 m -2.8,5.8 -3.4,-2.5 m -3.3,-3.6 -0.1,0.7 0.6,0.8 0.5,0.3 0.9,0.3 1,-0.3 1.1,-1.1 0.9,-1.2 0.5,-1.1 -0.2,-0.9 -0.5,-0.7 -0.2,-0.2 -0.9,-0.3 -0.9,0.1 -0.8,0.6 -0.1,0.2 -0.3,0.9 0.1,0.8 0.5,0.8 0.3,0.2 0.9,0.3 0.8,-0.1 0.8,-0.6 m -29.3,22 -6.8,1.8 m 4,-5 2.8,3.2 m 1.7,2 -0.8,-0.5 -0.7,0.2 -0.4,0.3 -0.3,0.7 0.2,0.6 0.5,1.1 0.4,0.9 -0.1,0.9 -0.2,0.6 -0.7,0.6 -0.7,0.1 h -0.4 l -0.8,-0.5 -0.8,-0.9 -0.3,-0.9 V 395 l 0.3,-0.6 0.6,-0.6 0.7,-0.2 0.8,0.1 0.8,0.5 1.1,0.7 0.6,0.2 0.6,-0.1 0.5,-0.4 0.2,-0.6 -0.3,-0.9 -0.9,-1 m 2.6,-32.6 -4.4,-5.4 m 6.2,1.6 -1.8,3.8 m -2.1,0.9 0.3,0.1 0.4,0.5 0.1,0.4 v 0.7 l -0.5,1.1 -0.5,0.4 -0.4,0.1 h -0.7 l -0.5,-0.2 -0.4,-0.6 -0.6,-0.9 -1.4,-4 -1.8,3.8 m 12.5,-13.1 h 7 m -5.2,3.8 -1.8,-3.8 m -1.3,-2.7 0.7,0.7 1.1,0.2 1.4,-0.4 0.9,-0.4 1.2,-0.9 0.5,-0.9 -0.1,-1 -0.2,-0.5 -0.7,-0.7 -1.1,-0.2 -1.5,0.4 -0.8,0.4 -1.2,0.9 -0.5,1 0.1,0.9 0.2,0.4 m 7.6,83 -1.5,6.8 m -2.6,-5.8 4.1,-1 m 1.6,-0.4 3.3,-0.7 -1.3,2.7 0.9,-0.2 0.7,0.2 0.3,0.2 0.5,0.8 0.2,0.6 -0.1,1 -0.5,0.7 -0.8,0.5 -0.9,0.2 -0.9,-0.1 -0.4,-0.2 -0.4,-0.6 m -8.1,-6.9 -5.2,-4.6 m 6.4,0.5 -1.2,4.1 m -0.7,2.5 v -0.9 l -0.5,-0.5 -0.6,-0.2 -0.7,0.2 -0.4,0.5 -0.6,1 -0.6,0.8 -0.7,0.4 -0.7,0.2 -0.8,-0.3 -0.5,-0.4 -0.2,-0.4 -0.1,-0.9 0.3,-1.2 0.6,-0.8 0.3,-0.2 0.7,-0.1 0.9,0.2 0.5,0.5 0.4,0.7 v 1 1.2 l 0.1,0.7 0.5,0.4 0.6,0.2 0.6,-0.1 0.6,-0.8 0.3,-1.3 m 0.5,-234.1 -6.6,-2.2 m 6.1,-1.9 0.5,4.1 m 0.6,4.7 -0.4,-2.9 h -2.7 l 0.4,0.2 0.4,0.9 0.1,0.9 -0.2,0.9 -0.5,0.7 -0.9,0.4 -0.6,0.1 -0.9,-0.2 -0.7,-0.6 -0.4,-0.8 -0.1,-0.9 0.2,-0.9 0.3,-0.4 0.5,-0.3 m 25,-36.5 0.6,0.2 0.9,-0.3 0.4,-0.4 0.5,-0.8 v -1 l -0.8,-1.4 -0.9,-1.2 -1,-0.7 -0.8,-0.1 -0.9,0.3 -0.2,0.2 -0.6,0.8 -0.1,0.9 0.4,0.8 0.2,0.3 0.8,0.5 0.8,0.1 0.9,-0.4 0.2,-0.1 0.5,-0.8 0.1,-0.9 -0.3,-0.9 m -4.5,9 -1.6,-6.8 m 4.9,4.2 -3.3,2.6 m -0.3,82.8 5.2,4.7 m -6.4,-0.7 1.2,-4 m 1.7,-0.6 -0.2,-0.7 -0.6,-1.1 6.1,1.8 m -21.2,26.6 1.5,6.8 m -4.8,-4.3 3.3,-2.5 m 4.3,-2.2 -0.6,-0.3 -0.9,0.3 -0.4,0.4 -0.6,0.7 0.1,1.1 0.7,1.4 0.9,1.2 1,0.8 0.8,0.1 0.9,-0.4 0.2,-0.1 0.6,-0.8 0.1,-0.9 -0.3,-0.9 -0.2,-0.2 -0.8,-0.5 -0.8,-0.1 -0.9,0.3 -0.3,0.2 -0.5,0.7 -0.1,0.9 0.3,0.9 m -0.8,-24.7 -6.4,-2.6 m 6.2,-1.6 0.2,4.2 m 0.3,5.2 -6.5,-2.6 m 6.3,-1.6 0.2,4.2 m 59,150.1 6.5,2.4 m -6.1,1.8 -0.4,-4.2 m 1.3,-1.8 h -0.3 l -0.6,-0.2 -0.3,-0.3 -0.4,-0.6 -0.1,-1.2 0.2,-0.6 0.3,-0.3 0.6,-0.4 h 0.5 l 0.7,0.2 0.9,0.5 3.3,2.7 -0.4,-4.2 m -17.6,24.2 -3.2,6.2 m -1,-6.3 4.2,0.1 m 1.8,0.1 3.3,0.2 -1.9,2.3 h 0.9 l 0.6,0.4 0.2,0.3 0.3,0.9 v 0.6 l -0.4,0.9 -0.6,0.5 -0.9,0.3 h -0.9 l -0.9,-0.4 -0.3,-0.3 -0.3,-0.6 m 107.6,-180.8 0.4,0.9 0.6,0.2 0.6,-0.1 0.6,-0.4 0.2,-0.7 0.1,-1.2 0.2,-0.9 0.5,-0.7 0.5,-0.4 0.9,-0.1 0.6,0.2 0.4,0.2 0.4,0.9 0.2,1.2 -0.2,0.9 -0.2,0.3 -0.6,0.4 -0.9,0.2 -0.6,-0.2 -0.7,-0.5 -0.4,-0.9 -0.5,-1.1 -0.4,-0.6 -0.6,-0.2 -0.6,0.1 -0.6,0.4 -0.1,0.9 0.2,1.4 m 0.9,-8.2 0.9,0.2 0.7,0.5 0.4,0.8 0.1,0.3 -0.2,1 -0.5,0.7 -0.8,0.4 h -0.3 l -1,-0.1 -0.6,-0.5 -0.5,-0.9 v -0.3 l 0.1,-0.9 0.5,-0.7 1.2,-0.5 1.5,-0.2 1.5,0.1 1,0.4 0.4,0.9 0.1,0.6 -0.2,0.9 -0.5,0.4 m -31.7,74.9 0.2,0.9 -0.2,0.9 -0.6,0.7 -0.3,0.1 -0.9,0.2 -0.8,-0.2 -0.7,-0.6 -0.2,-0.3 -0.2,-0.9 0.2,-0.8 0.7,-0.8 0.2,-0.1 1,-0.2 0.8,0.2 0.8,0.9 0.8,1.3 0.5,1.5 -0.1,1 -0.6,0.8 -0.5,0.3 -1,0.1 -0.5,-0.3 m 1.9,-7.4 2.8,-1.6 -0.3,3 0.8,-0.5 h 0.6 l 0.4,0.1 0.8,0.6 0.3,0.5 0.1,1 -0.2,0.8 -0.6,0.7 -0.8,0.4 -0.9,0.2 -0.4,-0.1 -0.6,-0.4 m -3.4,-26.3 -0.9,-0.4 -0.5,-0.6 -0.3,-1 0.1,-0.3 0.3,-0.8 0.7,-0.6 0.9,-0.2 h 0.3 l 0.9,0.4 0.5,0.6 0.2,0.9 v 0.3 l -0.4,0.9 -0.6,0.6 -1.2,0.2 -1.5,-0.1 -1.5,-0.5 -0.8,-0.6 -0.3,-0.9 0.1,-0.6 0.4,-0.9 0.6,-0.3 m 4.8,8.3 -3.9,-3.3 -0.4,4.5 m 4.3,-1.2 -6.3,-0.5 m 10.7,-76.5 -0.9,-0.4 -0.5,-0.7 -0.2,-0.9 v -0.3 l 0.4,-0.9 0.6,-0.5 1,-0.2 h 0.3 l 0.8,0.4 0.6,0.6 0.2,1 v 0.3 l -0.4,0.8 -0.7,0.6 -1.2,0.2 -1.5,-0.2 -1.5,-0.4 -0.8,-0.7 -0.2,-0.9 v -0.6 l 0.4,-0.9 0.6,-0.2 m 4.8,8.3 -3.9,-3.3 -0.5,4.4 m 4.4,-1.1 -6.3,-0.6 m 19.6,114.1 -0.8,-0.4 -0.5,-0.7 -0.2,-0.9 0.1,-0.3 0.4,-0.9 0.7,-0.5 0.9,-0.1 h 0.3 l 0.9,0.5 0.5,0.7 0.1,0.9 v 0.3 l -0.5,0.8 -0.7,0.5 -1.2,0.1 -1.5,-0.2 -1.4,-0.6 -0.8,-0.7 -0.1,-0.9 0.1,-0.6 0.4,-0.9 0.6,-0.2 m 3.2,5.3 0.2,0.6 0.7,1.1 -6.2,-1.1 m 7.3,-137.2 0.9,0.1 0.7,0.6 0.4,0.8 v 0.3 l -0.2,0.9 -0.5,0.7 -0.8,0.4 -0.3,0.1 -1,-0.2 -0.6,-0.5 -0.4,-0.9 -0.1,-0.3 0.2,-0.9 0.5,-0.7 1.2,-0.4 1.5,-0.2 1.5,0.1 1,0.5 0.4,0.8 v 0.6 l -0.1,0.9 -0.6,0.4 m -5.5,-7.7 -0.6,0.4 -0.2,0.9 0.1,0.6 0.4,0.8 1,0.5 1.5,0.1 1.5,-0.2 1.2,-0.4 0.5,-0.7 0.2,-0.9 -0.1,-0.3 -0.4,-0.9 -0.6,-0.5 -1,-0.2 -0.3,0.1 -0.8,0.4 -0.6,0.7 -0.1,0.9 v 0.3 l 0.4,0.8 0.7,0.6 0.9,0.1 m 11.4,141.4 0.8,0.5 0.5,0.7 v 0.9 0.3 l -0.5,0.8 -0.7,0.5 -1,0.1 -0.3,-0.1 -0.8,-0.5 -0.4,-0.7 -0.1,-1 v -0.3 l 0.5,-0.8 0.8,-0.4 h 1.2 l 1.5,0.3 1.4,0.6 0.7,0.8 0.1,1 -0.2,0.6 -0.5,0.8 -0.6,0.1 m -3.8,-7.3 v 1 l 0.6,0.4 0.5,0.1 0.7,-0.1 0.4,-0.5 0.6,-1.1 0.5,-0.9 0.7,-0.4 0.7,-0.2 0.8,0.2 0.6,0.5 0.2,0.3 0.1,1 -0.3,1.1 -0.5,0.9 -0.4,0.2 -0.6,0.1 -0.9,-0.2 -0.5,-0.4 -0.5,-0.7 v -1 l -0.1,-1.2 -0.1,-0.7 -0.5,-0.4 -0.6,-0.1 -0.7,0.1 -0.5,0.8 -0.3,1.4 m -30.8,70 -0.8,-0.5 -0.4,-0.8 -0.1,-0.9 0.1,-0.3 0.5,-0.8 0.8,-0.4 0.9,-0.1 0.3,0.1 0.8,0.5 0.4,0.8 0.1,0.9 -0.1,0.3 -0.5,0.8 -0.7,0.4 h -1.3 l -1.4,-0.4 -1.4,-0.7 -0.7,-0.8 -0.1,-0.9 0.2,-0.6 0.5,-0.8 0.7,-0.1 m 3,9.4 0.8,-2.9 -2.5,-1 0.2,0.4 v 1 l -0.2,0.8 -0.5,0.8 -0.7,0.4 -1,0.1 -0.6,-0.2 -0.8,-0.5 -0.4,-0.7 v -1 l 0.2,-0.8 0.5,-0.8 0.4,-0.2 0.6,-0.2 m -11.2,-238.6 -0.7,0.6 -0.8,0.3 -0.9,-0.1 -0.3,-0.1 -0.7,-0.7 -0.3,-0.8 0.2,-1 0.1,-0.2 0.7,-0.7 0.8,-0.3 0.9,0.2 0.3,0.1 0.7,0.7 0.2,0.8 -0.2,1.2 -0.7,1.3 -0.9,1.2 -1,0.6 -0.9,-0.2 -0.5,-0.2 -0.7,-0.7 v -0.7 m 7.2,-2.4 2.9,1.4 -2.7,1.4 0.8,0.4 0.4,0.5 0.2,0.4 -0.2,0.9 -0.2,0.6 -0.7,0.7 -0.8,0.2 -0.9,-0.1 -0.8,-0.4 -0.7,-0.7 -0.1,-0.4 v -0.6 m 22.3,-148.5 2.8,-1.2 -0.8,-2.6 -0.2,0.4 -0.7,0.6 -0.8,0.4 h -1 l -0.7,-0.3 -0.7,-0.7 -0.2,-0.6 -0.1,-0.9 0.4,-0.8 0.7,-0.6 0.8,-0.4 h 0.9 l 0.4,0.1 0.5,0.5 m -6.7,8.3 0.4,-7 m 3.5,5.4 -3.9,1.6 m 11.7,26.9 0.9,0.3 0.6,0.6 0.3,0.9 V 59 l -0.3,0.9 -0.6,0.6 -0.9,0.3 h -0.3 l -0.9,-0.3 -0.6,-0.6 -0.3,-0.9 v -0.3 l 0.3,-0.9 0.6,-0.6 1.2,-0.3 h 1.5 l 1.5,0.3 0.9,0.6 0.3,0.9 v 0.6 l -0.3,0.9 -0.6,0.3 m -5.4,-8.8 6.3,3 m -6.3,1.2 v -4.2 m -41.9,-11.7 2.9,-0.6 -0.3,-2.7 -0.2,0.3 -0.8,0.5 -0.9,0.2 -1,-0.1 -0.7,-0.4 -0.5,-0.9 -0.1,-0.5 0.1,-1 0.4,-0.7 0.9,-0.5 0.8,-0.2 1,0.1 0.3,0.2 0.5,0.6 m -7.6,6.9 2.9,-0.7 -0.3,-2.7 -0.2,0.4 -0.8,0.5 -0.9,0.2 -1,-0.1 -0.7,-0.5 -0.5,-0.8 -0.1,-0.6 0.1,-0.9 0.4,-0.7 0.9,-0.5 0.8,-0.2 1,0.1 0.3,0.2 0.5,0.5 m -0.2,50.3 -0.6,0.7 -0.7,0.3 h -1 l -0.3,-0.1 -0.7,-0.6 -0.3,-0.8 v -1 l 0.1,-0.2 0.6,-0.8 0.8,-0.3 h 1 l 0.3,0.2 0.7,0.6 0.3,0.8 -0.2,1.2 -0.5,1.4 -0.9,1.3 -0.8,0.6 -1,-0.1 -0.5,-0.2 -0.8,-0.6 v -0.7 m 6.3,-1.7 0.1,-0.2 0.5,-0.5 0.4,-0.1 0.7,-0.1 1.1,0.4 0.4,0.5 0.2,0.4 0.1,0.7 -0.3,0.6 -0.5,0.4 -0.9,0.6 -3.9,1.7 3.9,1.5 m -17.8,-32.3 -0.8,-0.3 -0.6,-0.7 -0.3,-0.9 v -0.3 l 0.3,-0.9 0.7,-0.5 0.9,-0.3 h 0.3 l 0.9,0.3 0.5,0.7 0.3,0.9 v 0.3 l -0.3,0.9 -0.6,0.5 -1.3,0.3 -1.5,-0.1 -1.4,-0.3 -0.9,-0.6 -0.3,-1 v -0.6 l 0.4,-0.8 0.6,-0.3 m 5.1,6.7 -0.2,-0.9 -0.9,-0.6 -1.5,-0.4 h -0.9 l -1.5,0.2 -0.9,0.6 -0.4,0.9 v 0.6 l 0.3,0.9 0.9,0.6 1.5,0.4 h 0.9 l 1.5,-0.2 0.9,-0.6 0.3,-0.9 v -0.4 m 95,235.6 0.7,0.7 0.2,0.8 -0.2,1 -0.1,0.2 -0.7,0.7 -0.9,0.2 -0.9,-0.2 -0.2,-0.1 -0.7,-0.8 -0.2,-0.8 0.2,-0.9 0.1,-0.3 0.7,-0.6 0.9,-0.2 1.1,0.3 1.4,0.8 1.1,1 0.5,0.9 -0.2,1 -0.3,0.5 -0.7,0.6 h -0.7 m 0.3,-9.5 h -0.7 l -0.7,0.6 -0.3,0.5 -0.2,0.9 0.5,1 1.1,1 1.3,0.8 1.2,0.3 0.9,-0.2 0.7,-0.7 0.1,-0.2 0.2,-0.9 -0.2,-0.9 -0.7,-0.7 -0.2,-0.1 -1,-0.2 -0.8,0.2 -0.7,0.6 -0.1,0.3 -0.2,0.9 0.2,0.9 0.6,0.7 m -2.5,-17.6 0.9,0.2 0.6,-0.4 0.2,-0.6 0.1,-0.6 -0.4,-0.6 -1,-0.8 -0.6,-0.7 -0.2,-0.8 v -0.7 l 0.4,-0.8 0.5,-0.4 0.5,-0.1 0.9,0.2 1,0.5 0.7,0.7 0.1,0.4 v 0.7 l -0.4,0.8 -0.6,0.4 -0.8,0.2 -0.9,-0.1 -1.2,-0.3 h -0.7 l -0.5,0.3 -0.3,0.6 v 0.6 l 0.6,0.7 1.2,0.7 m -6,-5.6 0.7,-0.7 0.8,-0.2 1,0.2 0.2,0.1 0.7,0.7 0.2,0.8 -0.1,0.9 -0.2,0.3 -0.7,0.6 -0.8,0.3 -0.9,-0.2 -0.3,-0.1 -0.6,-0.7 -0.3,-0.8 0.3,-1.2 0.7,-1.3 1,-1.2 1,-0.5 0.9,0.1 0.5,0.3 0.7,0.7 v 0.7 m -18.1,194 -0.3,0.6 0.2,0.9 0.4,0.5 0.7,0.5 h 1.1 l 1.4,-0.5 1.3,-0.9 0.8,-0.9 0.2,-0.8 -0.3,-0.9 -0.2,-0.3 -0.7,-0.6 -0.8,-0.1 -1,0.2 -0.2,0.2 -0.6,0.7 -0.2,0.9 0.3,0.9 0.2,0.2 0.7,0.6 0.8,0.2 1,-0.3 m -7.3,-3.3 0.7,0.6 1.1,-0.1 1.4,-0.5 0.8,-0.5 1,-1.1 0.4,-1 -0.2,-0.9 -0.3,-0.5 -0.8,-0.6 h -1.1 l -1.4,0.6 -0.7,0.5 -1.1,1.1 -0.4,1 0.2,0.9 0.3,0.3 m -62.2,-319.9 -0.9,0.1 -0.8,-0.4 -0.6,-0.7 -0.1,-0.3 -0.1,-0.9 0.4,-0.8 0.7,-0.6 0.3,-0.1 h 0.9 l 0.8,0.3 0.6,0.7 0.1,0.3 0.1,0.9 -0.4,0.8 -1,0.7 -1.4,0.6 -1.5,0.3 -1.1,-0.3 -0.6,-0.7 -0.2,-0.6 V 144 l 0.4,-0.5 m 5.4,2.9 0.5,0.4 1.2,0.5 -5.9,2.3 m 10.9,-32.6 -0.3,-0.9 0.1,-0.8 0.5,-0.8 0.3,-0.2 0.9,-0.3 0.8,0.1 0.8,0.6 0.2,0.2 0.3,0.9 -0.2,0.9 -0.5,0.7 -0.3,0.2 -0.9,0.3 -0.8,-0.1 -0.9,-0.8 -0.9,-1.2 -0.7,-1.4 -0.1,-1.1 0.6,-0.7 0.5,-0.4 0.9,-0.3 0.6,0.3 m -1.9,6.3 0.2,0.2 0.1,0.7 -0.1,0.4 -0.3,0.6 -0.9,0.7 -0.7,0.1 h -0.4 l -0.6,-0.3 -0.4,-0.5 -0.1,-0.7 -0.1,-1 0.6,-4.2 -3.3,2.5 m 60.7,3.5 0.9,-0.2 0.8,0.1 0.8,0.6 0.1,0.3 0.3,0.9 -0.2,0.8 -0.6,0.8 -0.2,0.1 -1,0.3 -0.8,-0.2 -0.7,-0.6 -0.2,-0.2 -0.2,-1 0.1,-0.8 0.9,-0.9 1.2,-0.8 1.5,-0.6 h 1 l 0.8,0.6 0.3,0.5 0.2,0.9 -0.3,0.6 m -7.5,-5.4 1,-0.3 0.8,0.2 0.7,0.6 0.2,0.2 0.2,1 -0.2,0.8 -0.5,0.7 -0.3,0.2 -0.9,0.2 -0.8,-0.1 -0.8,-0.6 -0.1,-0.3 -0.3,-0.9 0.2,-0.8 0.8,-0.9 1.3,-0.9 1.4,-0.5 h 1.1 l 0.7,0.6 0.4,0.5 0.2,0.9 -0.3,0.6 m -2.3,38.2 0.6,0.6 0.3,0.8 -0.1,0.9 -0.1,0.3 -0.7,0.7 -0.8,0.3 -0.9,-0.1 -0.3,-0.1 -0.7,-0.7 -0.2,-0.8 0.1,-0.9 0.1,-0.3 0.6,-0.7 0.8,-0.3 1.3,0.3 1.3,0.6 1.2,0.9 0.6,0.9 -0.1,1 -0.3,0.5 -0.6,0.7 h -0.7 m -2.2,-7.9 -0.1,0.9 0.4,0.5 0.5,0.3 h 0.7 l 0.5,-0.4 0.8,-1 0.7,-0.7 0.8,-0.3 h 0.6 l 0.8,0.4 0.5,0.5 0.1,0.4 -0.1,0.9 -0.5,1.1 -0.7,0.7 -0.4,0.2 h -0.6 l -0.9,-0.4 -0.4,-0.5 -0.3,-0.8 0.1,-1 0.3,-1.2 v -0.6 l -0.5,-0.6 -0.5,-0.2 h -0.7 l -0.6,0.7 -0.6,1.2 m -9.3,345.1 -2,2.2 1.8,2.1 v -0.4 l 0.3,-0.9 0.6,-0.7 0.9,-0.4 0.8,-0.1 0.9,0.4 0.4,0.4 0.5,0.8 v 0.9 l -0.4,0.8 -0.6,0.7 -0.8,0.5 h -0.4 l -0.7,-0.2 m 4.1,-8.8 0.4,0.8 0.1,0.8 -0.4,0.9 -0.2,0.2 -0.9,0.5 h -0.8 l -0.9,-0.4 -0.2,-0.2 -0.5,-0.8 v -0.8 l 0.4,-0.9 0.2,-0.2 0.8,-0.5 h 0.9 l 1.1,0.6 1.1,1 0.9,1.2 0.2,1 -0.4,0.9 -0.4,0.5 -0.8,0.4 -0.6,-0.2 m -52,-24.5 2.5,-1.6 -1.3,-2.4 v 0.4 l -0.6,0.7 -0.8,0.5 -0.9,0.3 -0.8,-0.2 -0.8,-0.6 -0.3,-0.5 -0.3,-0.9 0.2,-0.8 0.6,-0.8 0.7,-0.5 1,-0.2 0.4,0.1 0.6,0.3 m -2.9,8.1 0.6,-0.8 -0.1,-0.7 -0.3,-0.5 -0.6,-0.3 -0.7,0.1 -1.1,0.4 -1,0.3 -0.8,-0.2 -0.6,-0.3 -0.5,-0.8 -0.1,-0.6 0.1,-0.5 0.6,-0.7 1,-0.7 0.9,-0.2 h 0.4 l 0.6,0.4 0.5,0.7 0.1,0.7 -0.2,0.8 -0.5,0.8 -0.9,0.9 -0.3,0.6 0.1,0.6 0.3,0.5 0.6,0.4 0.9,-0.3 1.1,-0.7 m -0.4,59.6 2.9,-1.6 -0.4,3 0.8,-0.5 h 0.7 l 0.4,0.1 0.7,0.6 0.3,0.6 0.2,0.9 -0.3,0.8 -0.6,0.7 -0.8,0.5 -0.9,0.1 -0.4,-0.1 -0.6,-0.3 m 6.6,-7.2 0.1,0.9 -0.2,0.8 -0.6,0.7 -0.3,0.2 -0.9,0.2 -0.8,-0.3 -0.7,-0.6 -0.2,-0.3 -0.2,-0.9 0.3,-0.8 0.6,-0.7 0.3,-0.2 0.9,-0.2 0.8,0.3 0.9,0.9 0.7,1.3 0.5,1.4 -0.1,1.1 -0.6,0.7 -0.5,0.3 -1,0.2 -0.5,-0.4 M 1371.5,517 v -3 l -2.7,-0.2 0.3,0.3 0.3,0.9 v 0.9 l -0.3,0.9 -0.5,0.6 -0.9,0.3 h -0.6 l -0.9,-0.3 -0.7,-0.5 -0.3,-0.9 v -0.9 l 0.3,-0.9 0.3,-0.4 0.6,-0.3 m 4.4,8.9 0.6,-0.3 0.2,-0.9 v -0.6 l -0.3,-0.9 -0.9,-0.6 -1.5,-0.3 -1.5,0.1 -1.2,0.3 -0.6,0.6 -0.3,0.9 v 0.3 l 0.4,0.9 0.6,0.6 0.9,0.3 h 0.3 l 0.9,-0.4 0.6,-0.6 0.2,-0.9 v -0.3 l -0.3,-0.9 -0.6,-0.6 -0.9,-0.2 M 1471,362 l -0.2,-0.9 0.1,-0.8 0.6,-0.8 0.3,-0.1 0.9,-0.3 0.8,0.2 0.8,0.6 0.1,0.3 0.3,0.9 -0.2,0.8 -0.6,0.7 -0.3,0.2 -0.9,0.2 -0.8,-0.1 -0.9,-0.9 -0.8,-1.3 -0.6,-1.4 v -1.1 l 0.6,-0.7 0.5,-0.3 1,-0.3 0.5,0.4 m -5.5,7.4 -0.2,-0.9 0.2,-0.8 0.6,-0.8 0.2,-0.1 1,-0.2 0.8,0.1 0.7,0.6 0.2,0.3 0.2,0.9 -0.2,0.8 -0.6,0.8 -0.2,0.1 -0.9,0.3 -0.9,-0.2 -0.9,-0.9 -0.8,-1.2 -0.5,-1.5 v -1 l 0.6,-0.8 0.5,-0.3 0.9,-0.2 0.6,0.3 m 16.3,29.5 1,0.2 0.6,0.6 0.4,0.8 0.1,0.3 -0.2,0.9 -0.5,0.7 -0.9,0.4 -0.3,0.1 -0.9,-0.2 -0.7,-0.5 -0.4,-0.9 v -0.3 l 0.2,-0.9 0.5,-0.7 1.1,-0.5 1.5,-0.1 1.5,0.1 1,0.5 0.4,0.8 0.1,0.6 -0.2,0.9 -0.6,0.4 m -6.4,-8 6.6,2.1 m -6.1,2 -0.5,-4.1 m -16.6,47.3 -0.5,-0.5 h -1 l -0.5,0.2 -0.8,0.6 -0.3,1 0.2,1.6 0.5,1.4 0.6,1 0.8,0.4 h 0.9 l 0.3,-0.1 0.8,-0.5 0.4,-0.8 v -1 l -0.1,-0.2 -0.6,-0.8 -0.7,-0.4 h -1 l -0.3,0.1 -0.7,0.6 -0.4,0.7 v 1 m 3.8,-4.2 0.5,-0.5 0.6,-1.1 1.9,6 m -267.6,42.3 v -0.2 l 0.4,-0.6 0.4,-0.2 0.6,-0.2 1.2,0.2 0.6,0.5 0.2,0.3 0.2,0.7 -0.1,0.5 -0.5,0.6 -0.7,0.7 -3.5,2.4 4.1,0.8 m 4.1,-5.6 -1,0.1 -0.7,0.8 -0.6,1.4 -0.2,0.9 v 1.5 l 0.4,1 0.9,0.5 0.6,0.1 0.9,-0.1 0.8,-0.8 0.5,-1.4 0.2,-0.9 v -1.5 l -0.4,-1 -0.8,-0.5 -0.5,-0.1 m 63.6,-9.9 -0.2,0.2 -0.6,0.2 h -0.5 l -0.6,-0.2 -0.8,-0.9 -0.2,-0.7 V 467 l 0.3,-0.6 0.4,-0.4 0.6,-0.2 1.1,-0.2 4.2,0.2 -2.8,-3.1 m -4.3,2.5 -0.6,-0.2 h -1.3 l 4.6,-4.3 m -37,-24.2 -0.1,0.3 -0.5,0.4 -0.4,0.1 h -0.7 l -1.1,-0.5 -0.4,-0.6 -0.1,-0.4 v -0.6 l 0.3,-0.6 0.5,-0.4 0.9,-0.5 4.1,-1.4 -3.8,-1.8 m -4.4,4.8 -2.9,-1.4 2.7,-1.4 -0.8,-0.4 -0.4,-0.5 -0.2,-0.4 0.1,-1 0.3,-0.5 0.7,-0.7 0.8,-0.2 0.9,0.1 0.8,0.4 0.7,0.7 0.1,0.4 v 0.6 m -35.1,-0.2 0.1,0.3 -0.1,0.7 -0.2,0.4 -0.5,0.4 -1.1,0.4 -0.7,-0.1 -0.4,-0.2 -0.4,-0.5 -0.2,-0.6 0.1,-0.6 0.3,-1.1 1.9,-3.7 -4,1.2 m -2.1,7.4 1.6,-4.9 -4.3,1.3 m 2.7,3.6 -1.9,-6 m 79.1,99.4 v -0.3 l 0.5,-0.5 0.4,-0.2 0.6,-0.1 1.2,0.3 0.5,0.4 0.2,0.4 0.1,0.6 -0.1,0.6 -0.5,0.5 -0.8,0.7 -3.6,2.2 4.1,1 m 4.1,-5.4 -1,0.1 -0.4,0.5 -0.1,0.6 0.1,0.6 0.5,0.5 1.1,0.5 0.8,0.6 0.4,0.7 0.2,0.6 -0.3,0.9 -0.4,0.5 -0.4,0.2 -0.9,0.1 -1.2,-0.3 -0.8,-0.5 -0.2,-0.4 -0.1,-0.6 0.2,-0.9 0.4,-0.5 0.8,-0.4 0.9,-0.1 h 1.2 l 0.7,-0.1 0.4,-0.5 0.2,-0.6 -0.2,-0.7 -0.7,-0.5 -1.4,-0.3 m -118.4,-37.2 2.9,-1.7 -0.3,3 0.7,-0.5 0.7,-0.1 0.4,0.1 0.7,0.7 0.3,0.5 0.3,0.9 -0.2,0.8 -0.7,0.7 -0.7,0.5 -0.9,0.2 -0.5,-0.1 -0.5,-0.3 m 3.4,-8.1 -0.6,0.7 v 1.1 l 0.5,1.4 0.5,0.8 1,1.1 1,0.5 0.9,-0.2 0.5,-0.3 0.6,-0.8 0.1,-1 -0.5,-1.5 -0.5,-0.7 -1,-1.2 -1,-0.4 -1,0.2 -0.3,0.2 m -34.7,5.7 3,1.4 -2.6,1.4 0.8,0.4 0.4,0.5 0.2,0.4 -0.1,1 -0.3,0.5 -0.6,0.7 -0.8,0.3 -1,-0.1 -0.8,-0.4 -0.7,-0.6 -0.1,-0.4 -0.1,-0.7 m 6.4,-1.2 h 0.6 l 1.2,-0.4 -2.6,5.7 m -18.2,-42.9 0.3,0.2 0.4,0.5 0.1,0.4 v 0.7 l -0.6,1.1 -0.6,0.3 -0.4,0.2 -0.6,-0.1 -0.6,-0.2 -0.4,-0.6 -0.5,-1 -1.1,-4 -2.1,3.7 m 3.1,7.5 -4.1,-5.6 m 6.1,2 -2,3.6 m -12.5,18.8 v -0.3 l 0.4,-0.5 0.4,-0.2 0.6,-0.2 1.2,0.2 0.5,0.4 0.3,0.3 0.2,0.7 -0.1,0.5 -0.4,0.6 -0.8,0.8 -3.4,2.4 4.1,0.7 m 5.7,-3.2 -0.5,0.8 -0.7,0.5 -0.9,0.1 h -0.3 l -0.8,-0.5 -0.5,-0.7 -0.2,-0.9 0.1,-0.3 0.5,-0.8 0.6,-0.5 1,-0.2 0.3,0.1 0.8,0.4 0.5,0.7 0.1,1.3 -0.3,1.4 -0.5,1.5 -0.8,0.7 -0.9,0.2 -0.6,-0.1 -0.8,-0.5 -0.2,-0.6 m 202.1,39.7 -0.1,-0.2 v -0.7 l 0.1,-0.4 0.4,-0.6 1,-0.5 0.7,-0.1 0.4,0.1 0.5,0.4 0.3,0.6 v 0.6 1.1 l -1.2,4.1 3.7,-2.1 m 1.1,-7.8 -2.7,1.5 1.1,2.5 0.1,-0.4 0.6,-0.7 0.8,-0.4 1,-0.2 0.8,0.2 0.7,0.7 0.3,0.5 0.1,0.9 -0.2,0.8 -0.6,0.7 -0.8,0.5 -1,0.1 -0.4,-0.1 -0.5,-0.3 m -1.5,-19.1 -0.3,0.2 -0.7,0.1 -0.4,-0.1 -0.5,-0.4 -0.7,-1 -0.1,-0.6 0.1,-0.4 0.3,-0.6 0.5,-0.4 h 0.7 1.1 l 4.1,0.8 -2.3,-3.5 m -4.9,1.3 -0.2,0.1 -0.7,0.1 -0.4,-0.1 -0.6,-0.3 -0.7,-1 v -0.7 -0.4 l 0.4,-0.6 0.5,-0.3 0.6,-0.1 h 1.1 l 4.2,0.9 -2.3,-3.5 m -93.3,1.5 0.2,-0.3 0.5,-0.3 0.4,-0.2 0.7,0.1 1.1,0.6 0.3,0.5 0.1,0.4 v 0.7 l -0.3,0.5 -0.5,0.4 -1,0.5 -4.1,1.1 3.7,2.1 m 7.6,-3 -5.7,4.1 m 2,-6.1 3.7,2 m -11.7,-8.1 v 0.3 l -0.2,0.6 -0.3,0.4 -0.6,0.3 -1.2,0.1 -0.6,-0.2 -0.3,-0.3 -0.4,-0.6 v -0.5 l 0.2,-0.7 0.5,-0.9 2.7,-3.3 -4.1,0.4 m -4.3,5.8 0.4,0.6 0.9,0.2 0.6,-0.1 0.9,-0.3 0.5,-1 0.1,-1.5 -0.1,-1.5 -0.4,-1.2 -0.7,-0.5 -0.9,-0.2 h -0.3 l -0.8,0.4 -0.6,0.6 -0.2,1 v 0.3 l 0.4,0.8 0.7,0.6 0.9,0.2 h 0.3 l 0.9,-0.4 0.5,-0.7 0.2,-0.9 m -92.5,-98.6 0.3,-0.1 h 0.6 l 0.4,0.1 0.6,0.4 0.5,1.1 0.1,0.6 -0.2,0.4 -0.4,0.6 -0.5,0.3 h -0.7 l -1,-0.1 -4.1,-1.3 2,3.7 m 6.8,-0.6 -0.7,-0.6 h -0.7 l -0.5,0.3 -0.4,0.5 v 0.7 l 0.3,1.2 0.2,0.9 -0.3,0.8 -0.4,0.6 -0.8,0.4 h -0.7 l -0.4,-0.1 -0.6,-0.7 -0.6,-1 -0.2,-1 0.2,-0.4 0.4,-0.5 0.8,-0.4 h 0.6 l 0.8,0.2 0.7,0.7 0.8,0.9 0.6,0.4 h 0.7 l 0.5,-0.3 0.4,-0.6 -0.2,-0.9 -0.6,-1.2 M 1161,413 h -0.3 l -0.5,-0.3 -0.3,-0.4 -0.3,-0.6 0.1,-1.2 0.4,-0.6 0.3,-0.2 0.6,-0.3 0.6,0.1 0.6,0.3 0.8,0.7 2.8,3.2 0.3,-4.2 m -6,-4.8 4,3.4 0.3,-4.5 m -4.3,1.1 6.3,0.5 m -59.9,-42.3 0.3,0.1 0.5,0.4 0.3,0.4 0.1,0.6 -0.2,1.2 -0.4,0.5 -0.4,0.3 -0.6,0.1 -0.6,-0.1 -0.6,-0.4 -0.7,-0.8 -2.3,-3.6 -0.9,4.1 m 5.1,6 0.7,-2.9 -2.6,-0.9 0.2,0.3 0.1,1 -0.1,0.9 -0.5,0.8 -0.7,0.4 -1,0.1 -0.6,-0.1 -0.8,-0.5 -0.4,-0.7 -0.1,-0.9 0.1,-0.9 0.5,-0.8 0.4,-0.3 0.6,-0.1 m 54.5,4.3 -0.3,0.1 h -0.7 l -0.4,-0.1 -0.5,-0.4 -0.5,-1.1 v -0.6 l 0.1,-0.4 0.4,-0.6 0.5,-0.3 h 0.7 l 1.1,0.2 4,1.3 -1.9,-3.7 m -6.4,1.2 -1.5,-2.9 3,0.5 -0.4,-0.8 v -0.7 l 0.1,-0.4 0.7,-0.6 0.5,-0.3 1,-0.1 0.8,0.2 0.6,0.7 0.4,0.8 0.2,1 -0.2,0.4 -0.4,0.5 m -44.2,-44.8 h 0.3 l 0.6,0.4 0.2,0.3 0.2,0.6 -0.1,1.2 -0.4,0.6 -0.3,0.3 -0.7,0.2 -0.6,-0.1 -0.5,-0.4 -0.8,-0.7 -2.6,-3.4 -0.6,4.2 m 4.6,2.3 h 0.3 l 0.5,0.4 0.3,0.3 0.2,0.7 -0.1,1.2 -0.4,0.5 -0.3,0.3 -0.7,0.2 -0.6,-0.1 -0.5,-0.4 -0.8,-0.7 -2.6,-3.3 -0.6,4.1 m 20.9,0.4 -0.2,0.2 -0.6,0.2 h -0.4 l -0.7,-0.3 -0.8,-0.9 -0.2,-0.6 0.1,-0.4 0.2,-0.7 0.5,-0.4 0.6,-0.1 1.1,-0.2 4.2,0.2 -2.8,-3.1 m -4.3,2.5 -0.7,-0.3 h -1.2 l 4.6,-4.2"
       id="nums_003"
       stroke="#000000"
       style="stroke-width:1.01549;stroke-dasharray:none" />
    <path
       d="m 1195.7,222.6 -23.8,-27 4.8,35.7 -63.7,30.6 -32.3,-44.2 23.9,-20.5 56.4,-103.4 27.4,-29.3 28.6,51.1 -11,-57.5 48.2,-29.4 40.8,33.6 -51,9.9 3.6,51.8 12.8,-51.2 56,6.4 -20.7,34.3 -57.7,102.7 13.3,28.5 28.8,57.5 -68.9,35.8 -47.7,-1 9.1,-38.2 -39.3,18.9 28.3,-73 z m 70.2,219.1 9.2,-32.5 -22,-25.7 25.6,-53 13.1,27.4 19.4,14.3 -8.9,-47.5 14.4,-37.9 20.6,-5.9 -8.3,-19.8 -19.3,-35.6 -14,46.2 -19.1,14.8 -3.6,-67.8 -5.1,-43.2 50,-40.2 50.5,31 28,47.6 7.3,29.1 -22.4,51 -6.6,67.6 -27.2,13.5 5.8,58.6 -44.3,-2 z m 151.4,84.6 -53,30.4 -1.9,-75.8 34.7,-23.3 24.9,-93.4 8.1,-48.8 -28.2,16.3 5.7,-72.7 6.7,-72.7 -29.3,-14.4 -18,-46.1 34.7,-25.9 -40.1,-16.1 1.6,-47.2 38.2,-8.6 34.6,-14.5 -0.4,84.7 23.5,36.2 -21.2,45.6 5.7,45.2 5.7,37.4 33.4,17.9 -22.6,39.6 -11.5,48.9 36.4,-23.3 10.6,84 -54.2,17.8 20.2,30.2 z m -191.9,-35.9 -40.2,-8 -44.2,26.9 -28.6,-12.9 -27.3,-4.8 34.5,-63.1 -24.2,-46.2 7,-32 6.8,-51.7 41.2,45.7 19.7,39.4 -3.9,49.7 47.5,-15 39.5,19.7 41.9,45.1 28.6,43.5 -28.7,15.8 -50.5,-13 -62.9,-35 z"
       id="coupes_003"
       stroke="#ff0000"
       sodipodi:nodetypes="cccccccccccccccccccccccccccccccccccccccccccccccccccccccccccccccccccccccccccccccccccccccccccccccccccc"
       style="stroke-width:1.26936" />
    <path
       d="m 1161.6,244.7 h 89.7 m -34.3,-129.1 21,100.6 m -42.3,6.4 21.3,-107 m 30.6,8.4 -9.6,92.2 m -66.1,-20.6 45.1,-80 m 0,0 27,-43.4 m -72.1,123.4 16.5,-131.1 m 72,8.3 35.3,40.7 M 1206,58.1 1244,72.2 M 1171.9,195.6 1161,93.8 m 93.2,-65.1 -10.2,43.5 m -72.1,123.4 -58.9,66.3 m 0,0 48,-168.1 m 119.1,208.4 -107.5,-3.4 m 0,0 -11,-54.1 m 234.8,-30.8 -67.4,47.2 m 0,0 39.4,-94.8 m -58.7,59.2 58.7,-59.2 m 35.3,76.7 -66.4,37.9 m -27.6,-55.4 8.2,-90.2 m 63.4,158.7 -44,-13.1 m 37.4,80.7 -37.4,-80.7 m 10.2,94.2 -10.2,-94.2 m 10.2,94.2 -30.8,-88.3 m 30.8,88.3 -45.2,-50.4 m 45.2,50.4 -38.5,56.6 m 0,0 2.2,-59.5 m -2.2,59.5 -33.9,-22.5 m 0,0 36.1,-37 m -36.1,37 16.7,-51.3 m -38.7,25.6 38.7,-25.6 m -18.8,-139.2 44.9,-83.4 m -22.2,136.4 -22.7,-53 m 134.6,40.3 41.7,3.6 m 0,0 -19.2,52.8 m 0,0 -22.5,-56.4 m 0,0 36,-33.8 m 5.7,37.4 10.8,57.5 m -45.8,-133.8 29.3,38.9 m 16.5,94.9 -38.1,44.1 m -7.7,-177.9 23.6,-6.3 m -23.6,6.3 21.3,-88.1 m 0,0 2.3,81.8 m 10.7,189 -51.5,88.6 m 4.6,-357.7 33.9,-1.7 m -21.3,88.1 -12.6,-86.4 m 46.9,269.1 -7.2,78.5 m 0,0 -44.3,10.1 m 4.3,-429.6 34.2,70.2 m -33.9,1.7 -0.3,-71.9 m -16.4,143.9 16.7,-72 m 0,0 -38.5,-63.3 m 98.4,441.1 -64.5,-20.1 m 20.2,68.7 -20.2,-68.7 m 20.2,68.7 -54.9,-45.4 M 1485,345.7 1441.4,447.5 m -256.2,34.9 68,-44.3 m 41.9,45.1 -69.7,7.2 m -40.2,-8 28.5,-64 m 81.4,64.8 -50.6,46.3 m -59.3,-47.1 -19,-49 m 128.9,49.8 -0.1,59.3 m -154,-33.2 25.2,-75.9 m -53.8,63 53.8,-63 m -53.8,63 7.2,-67.9 m -24.2,-46.2 70.8,51.1 m -70.8,-51.1 74.7,1.4 m -67.7,-33.4 67.7,33.4 m -67.7,-33.4 48,-6"
       id="plisM_003"
       stroke="#a52a2a"
       stroke-dasharray="4" />
    <path
       d="m 1280.1,302.2 -118.5,-57.5 m 34.1,-22.1 55.6,22.1 m -55.6,-22.1 42.3,-6.4 m -21,-100.6 30.6,8.4 m 0,0 48.1,-10.5 M 1113,261.9 1104.6,197.2 M 1211.2,338 1172.6,298.8 M 1403.7,243 1329,261.1 m 18.5,114 -36.3,-2.9 m -1.5,-146.7 -36.7,-6.8 m 187.1,101.4 -30,-4.7 m 18.5,53.6 -26.6,-4.8 m -168.8,73.9 -27.8,52.3 m 19.1,39.1 -19.1,-39.1 m -105.8,-61.9 46.6,4.9"
       id="plisV_003"
       stroke="#008000"
       stroke-dasharray="4, 1, 1, 1" />
    <path
       d="m 1218.9,271.5 4,4 m 0,-4 -4,4 m 2.6,-43.8 4,4 m 0,-4 -4,4 m -6.6,-18.3 4,4 m 0,-4 -4,4 m 15.4,-103.6 4,4 m 0,-4 -4,4 m 39.4,-5 4,4 m 0,-4 -4,4 m -162.9,106.8 4,4 m 0,-4 -4,4 m 83.1,84.8 4,4 m 0,-4 -4,4 m 174.5,-70.3 4,4 m 0,-4 -4,4 m -37,117.6 4,4 m 0,-4 -4,4 m -38.1,-155.6 4,4 m 0,-4 -4,4 m 153.8,91.6 4,4 m 0,-4 -4,4 m -9.8,44.9 4,4 m 0,-4 -4,4 m -196,93.7 4,4 m 0,-4 -4,4 m -4.4,41.6 4,4 m 0,-4 -4,4 m -92,-82.9 4,4 m 0,-4 -4,4"
       id="marqueV_003"
       stroke="#008000" />
    <path
       d="m 1220.3,172.5 h -7.5 l -0.7,6.7 0.7,-0.7 2.3,-0.8 h 2.2 l 2.3,0.8 1.5,1.5 0.7,2.2 v 1.5 l -0.7,2.3 -1.5,1.5 -2.3,0.7 h -2.2 l -2.3,-0.7 -0.7,-0.8 -0.8,-1.5"
       id="titre_5"
       stroke="#4b0082" />
    <path
       d="m 1337.6,304.1 -0.7,-1.5 -2.3,-0.7 h -1.5 l -2.2,0.7 -1.5,2.3 -0.8,3.7 v 3.8 l 0.8,3 1.5,1.5 2.2,0.7 h 0.8 l 2.2,-0.7 1.5,-1.5 0.8,-2.3 v -0.7 l -0.8,-2.3 -1.5,-1.5 -2.2,-0.7 h -0.8 l -2.2,0.7 -1.5,1.5 -0.8,2.3"
       id="titre_6"
       stroke="#4b0082" />
    <path
       d="m 1433.8,266.6 -7.5,15.8 m -3,-15.8 h 10.5"
       id="titre_7"
       stroke="#4b0082" />
    <path
       d="m 1186.6,432.4 -2.3,0.7 -0.7,1.5 v 1.5 l 0.7,1.5 1.5,0.8 3,0.7 2.3,0.8 1.5,1.5 0.7,1.5 v 2.2 l -0.7,1.5 -0.8,0.8 -2.2,0.7 h -3 l -2.3,-0.7 -0.7,-0.8 -0.8,-1.5 v -2.2 l 0.8,-1.5 1.5,-1.5 2.2,-0.8 3,-0.7 1.5,-0.8 0.8,-1.5 v -1.5 l -0.8,-1.5 -2.2,-0.7 h -3.4"
       id="titre_8"
       stroke="#4b0082" />
  </g>
</svg>
