<?xml version="1.0" encoding="UTF-8" standalone="no"?>
<!-- Created with Inkscape (http://www.inkscape.org/) -->

<svg
   xmlns:dc="http://purl.org/dc/elements/1.1/"
   xmlns:cc="http://creativecommons.org/ns#"
   xmlns:rdf="http://www.w3.org/1999/02/22-rdf-syntax-ns#"
   xmlns:svg="http://www.w3.org/2000/svg"
   xmlns="http://www.w3.org/2000/svg"
   xmlns:sodipodi="http://sodipodi.sourceforge.net/DTD/sodipodi-0.dtd"
   xmlns:inkscape="http://www.inkscape.org/namespaces/inkscape"
   width="210mm"
   height="297mm"
   viewBox="0 0 744.09448819 1052.3622047"
   id="svg8344"
   version="1.1"
   inkscape:version="0.91 r13725"
   sodipodi:docname="cubocta_canette.svg">
  <defs
     id="defs8346" />
  <sodipodi:namedview
     id="base"
     pagecolor="#ffffff"
     bordercolor="#666666"
     borderopacity="1.0"
     inkscape:pageopacity="0.0"
     inkscape:pageshadow="2"
     inkscape:zoom="3.7874238"
     inkscape:cx="174.33357"
     inkscape:cy="390.32514"
     inkscape:document-units="px"
     inkscape:current-layer="layer1"
     showgrid="false"
     inkscape:window-width="1855"
     inkscape:window-height="1056"
     inkscape:window-x="65"
     inkscape:window-y="24"
     inkscape:window-maximized="1" />
  <metadata
     id="metadata8349">
    <rdf:RDF>
      <cc:Work
         rdf:about="">
        <dc:format>image/svg+xml</dc:format>
        <dc:type
           rdf:resource="http://purl.org/dc/dcmitype/StillImage" />
        <dc:title />
      </cc:Work>
    </rdf:RDF>
  </metadata>
  <g
     inkscape:label="Calque 1"
     inkscape:groupmode="layer"
     id="layer1">
    <path
       id="path2032"
       style="color:#000000;display:inline;overflow:visible;visibility:visible;fill:none;fill-opacity:1;fill-rule:evenodd;stroke:#000000;stroke-width:1.91165578;stroke-linecap:round;stroke-linejoin:round;stroke-miterlimit:4;stroke-dasharray:none;stroke-dashoffset:0;stroke-opacity:1;marker:none;marker-start:none;marker-mid:none;marker-end:none"
       d="m 133.3648,163.0494 0,9.55827 m 0,15.55826 0,9.55826 m 0,13.11652 0,9.55826 m 0,-66.97413 -53.703152,-53.669649 -76.7986101,-0.330539 0,-76.46627 76.4662201,0.468285 53.404842,-53.876915 200.1908,-0.665 54.67762,53.739265 76.79863,0.334365 0,76.46627 -76.46625,-0.47202 -54.0726,54.535928 m -180.5928,-0.0478 22.57545,0.004 m 22.57545,0.004 22.57545,0.004 m 22.57546,0.004 22.52878,0.004 m 22.52877,0.004 22.52878,0.004 m 22.70466,0.0199 66.22439,-38.23039 66.22159,38.23304 2e-5,76.4661 -66.22159,38.23306 -66.22441,-38.16724 m 53.40782,53.33862 -53.40782,-53.33862 m -12,0 -25.06219,-0.0162 m -25.06218,-0.0162 -25.06219,-0.0162 m -25.06219,-0.0162 -25.06219,-0.0162 m -25.06219,-0.0162 -25.06218,-0.0162 m -13.06219,-0.0162 -66.187382,38.29691 -66.22159011,-38.23305 0,-76.46611 L 67.177418,115.2581 133.3648,153.42484 m 200.4975,61.41604 0,-9.55826 m 0,-11.55827 0,-9.55827 m 0,-11.55826 0,-9.55827 m -200.5549,265.07206 0,9.55826 m 0,9.55827 0,9.55826 m 0,9.55827 0,9.55827 m 200.0892,0 0,-9.55827 m 0,-9.55826 0,-9.55826 m 0,-9.55826 0,-9.55826 m -200.03819,260.97727 0,9.55826 m 0,9.55827 0,9.55826 m 0,9.55826 0,9.55826 m 200.50671,0.0948 0,-9.55827 m 0,-9.55827 0,-9.55827 m 0,-9.55826 0,-9.55826 m 0,62.90785 66.22159,38.23305 66.22159,-38.23307 -2e-5,-76.46609 -66.22159,-38.23305 -66.22157,38.23305 m 0,0 -0.0239,-0.0152 M 79.994268,622.23041 133.00881,675.49459 m 254.92629,-54.87032 -54.09385,54.99596 m -12,0 -25.10405,-0.0157 m -25.10406,-0.0157 -25.10405,-0.0157 m -25.10406,-0.0157 -25.10405,-0.0157 m -25.10406,-0.0157 -25.10405,-0.0157 m -13.10406,-0.0157 -65.831392,-38.09226 -66.22159011,38.23305 0,76.46611 66.22159011,38.23305 66.166612,-38.32693 m 13.05589,0.0185 25.05588,0.0185 m 25.05589,0.0185 25.05588,0.0185 m 25.05589,0.0185 25.05589,0.0185 m 25.05588,0.0185 25.05589,0.0185 m 12,0 53.81147,54.01555 76.79863,0.33244 0,76.13385 -76.46624,-0.4702 -53.99695,54.58085 66.14866,-38.27395 66.22159,38.233 2e-5,76.46611 -66.22159,38.2331 -66.14868,-38.2334 -200.53733,0 -66.223282,38.2334 -66.22159011,-38.2331 0,-76.46611 66.22159011,-38.233 66.223282,38.04595 -53.738977,-53.71689 -76.7986151,-0.3321 0,-76.53504 76.4662201,0.47019 54.014702,-54.39869 m 331.14033,-194.44487 0.0831,9.52386 m 0.0831,9.52385 0.0831,9.52384 m 0.0831,9.52385 0.0831,9.52386 m -385.487662,-45.61926 0.0831,9.52386 m 0.0831,9.52385 0.0831,9.52384 m 0.0831,9.52385 0.0831,9.52386 m 0.16619,15.0477 -77.1311901,-1.60536 -0.66494,-76.19079 77.1311501,1.60534 53.978492,-54.77064 m 0,-76.70524 -66.129982,-38.23264 -66.22159011,38.23307 0,76.46609 66.22159011,38.23305 66.129982,-37.99433 m 12,0 25.01115,-0.0415 m 25.01115,-0.0415 25.01115,-0.0416 m 25.01115,-0.0415 25.01115,-0.0415 m 25.01115,-0.0416 25.01115,-0.0415 m 13.01115,-0.0416 66.69011,38.32672 66.22159,-38.23305 -2e-5,-76.46611 -66.22159,-38.23305 -66.69009,38.18028 m -13.01115,0.007 -25.01115,0.007 m -25.01115,0.007 -25.01115,0.007 m -25.01115,0.007 -25.01115,0.007 m -25.01115,0.007 -25.01115,0.007 m -12,0 -53.951797,-54.04587 -76.4923751,-0.0282 0,-76.46622 76.4662201,0 m 308.439072,323.55407 -0.0831,-9.52385 m -0.0831,-9.52386 -0.0831,-9.52385 m -0.0831,-9.52384 -0.0831,-9.52385 m 0.5819,-494.769778 0,-9.55824 m 0,-9.5583 0,-9.5583 m 0,47.79141 0,-9.55827 m -308.107062,10.2882 -0.0831,-9.52384 m -0.0831,-9.52385 -0.0831,-9.52385 m -0.0831,-9.5239 -0.0831,-9.5239 M 387.9351,324.25959 l 0,-9.55828 m 0,-9.55828 0,-9.55827 m 0,-11.55828 76.46624,0 0,76.93584 -76.46626,-0.47012 -54.53848,54.01838 m 54.5385,-71.13444 0,-9.55828 m -308.605652,-38.2331 0,9.55827 m 0,9.55828 0,9.55828 m 0,9.55827 0,9.55828 m -0.30642,-59.48111 54.341772,-54.00164 m 254.56991,390.73105 77.13114,1.60536 54.34522,53.40482 76.19077,-0.66496 53.4048,-54.34522 -0.6651,-76.19079 -54.34509,-53.40483 -76.19074,0.66496 -53.40483,54.34522 -77.13111,-1.60535 -53.87317,-53.49786 m 0.54143,507.121 0,-9.5583 m 0,-9.5582 0,-9.5583 m 0,-9.5582 0,-9.5583 m -254.110102,-82.0108 -0.0831,-9.5239 m -0.0831,-9.5238 -0.0831,-9.5238 m -0.0831,-9.5239 -0.0831,-9.5239 m 307.940862,-1.6053 0.0831,9.5239 m 0.0831,9.5238 0.0831,9.5239 m 0.0831,9.5238 0.0831,9.5239 m -65.61204,70.13969 -25.09386,-0.057 m -25.09386,-0.057 -25.09385,-0.057 m -25.09386,-0.057 -25.09386,-0.057 m -25.09386,-0.057 -25.09386,-0.057 m -13.09904,61.6661 0,-9.5583 m 0,-9.5583 0,-9.5583 m 0,-9.5582 0,-9.5583"
       inkscape:connector-curvature="0"
       sodipodi:nodetypes="cccccccccccccccccccccccccccccccccccccccccccccccccccccccccccccccccccccccccccccccccccccccccccccccccccccccccccccccccccccccccccccccccccccccccccccccccccccccccccccccccccccccccccccccccccccccccccccccccccccccccccccccccccccccccccccccccccccccccccccccccccccccccccccccccccccccc" />
  </g>
</svg>
