<?xml version="1.0" encoding="UTF-8" standalone="no"?>
<svg
   height="297mm"
   viewBox="0 0 533 754"
   width="210mm"
   version="1.1"
   id="svg1"
   sodipodi:docname="miCoeur76_H10_A4x1.svg"
   inkscape:version="1.3 (1:1.3+202307231459+0e150ed6c4)"
   xmlns:inkscape="http://www.inkscape.org/namespaces/inkscape"
   xmlns:sodipodi="http://sodipodi.sourceforge.net/DTD/sodipodi-0.dtd"
   xmlns="http://www.w3.org/2000/svg"
   xmlns:svg="http://www.w3.org/2000/svg">
  <defs
     id="defs1" />
  <sodipodi:namedview
     id="namedview1"
     pagecolor="#ffffff"
     bordercolor="#000000"
     borderopacity="0.25"
     inkscape:showpageshadow="2"
     inkscape:pageopacity="0.0"
     inkscape:pagecheckerboard="0"
     inkscape:deskcolor="#d1d1d1"
     inkscape:document-units="mm"
     showgrid="false"
     inkscape:zoom="0.76561114"
     inkscape:cx="389.23154"
     inkscape:cy="667.44066"
     inkscape:window-width="1920"
     inkscape:window-height="1007"
     inkscape:window-x="0"
     inkscape:window-y="0"
     inkscape:window-maximized="1"
     inkscape:current-layer="svg1" />
  <style
     type="text/css"
     id="style1"><![CDATA[
			path {
				fill: none;
			}
		]]></style>
  <g
     id="page_001"
     transform="translate(41.758211,15.540413)">
    <path
       d="m 304.24341,381.4 0.5,-0.4 0.8,-1.1 1,6.2 M 172.2,384.7 l 0.6,-0.3 0.9,-0.8 -0.3,6.3 m 2.1,-6.5 3.2,0.2 -1.9,2.3 h 0.9 l 0.6,0.3 0.3,0.4 0.3,0.9 v 0.6 l -0.4,0.9 -0.6,0.5 -0.9,0.3 h -0.9 l -0.9,-0.4 -0.3,-0.3 -0.3,-0.6 m -51,-8 0.6,-0.3 1,-0.7 -0.7,6.2 m 5,-6 -3.5,3.8 4.5,0.5 m -1,-4.3 -0.7,6.3 m -12.1,-238.1 -1.5,2.9 -1.4,-2.7 -0.4,0.8 -0.5,0.4 -0.4,0.2 -1,-0.2 -0.5,-0.3 -0.7,-0.6 -0.2,-0.8 0.1,-1 0.4,-0.8 0.7,-0.6 0.4,-0.2 h 0.7 m 1.4,8.4 0.2,-0.9 -0.4,-0.5 -0.6,-0.3 h -0.6 l -0.6,0.4 -0.8,0.9 -0.7,0.7 -0.8,0.3 -0.7,-0.1 -0.8,-0.4 -0.4,-0.5 -0.1,-0.4 0.2,-0.9 0.5,-1.1 0.7,-0.7 0.4,-0.1 h 0.7 l 0.8,0.4 0.4,0.5 0.2,0.9 -0.1,0.9 -0.3,1.2 v 0.7 l 0.4,0.5 0.5,0.3 h 0.7 l 0.7,-0.7 0.6,-1.2 m 80.8,-53.8 -3.2,0.8 1.2,-2.8 -0.9,0.2 -0.6,-0.1 -0.4,-0.3 -0.5,-0.8 -0.1,-0.5 0.1,-1 0.4,-0.7 0.8,-0.5 0.9,-0.2 h 0.9 l 0.4,0.3 0.4,0.5 m -7,7 1.9,-4.8 -4.4,1.1 m 2.5,3.7 -1.5,-6.1 m -96.643406,143.19066 -0.3,3.3 -2.2,-2 -0.1,0.9 -0.4,0.5 -0.3,0.3 -0.9,0.2 -0.6,-0.1 -0.9,-0.4 -0.5,-0.6 -0.2,-1 0.1,-0.9 0.4,-0.8 0.3,-0.3 0.6,-0.2 m 4.5,6.4 -0.4,3.3 -2.2,-2 -0.1,0.9 -0.4,0.5 -0.3,0.3 -0.9,0.2 -0.6,-0.1 -0.9,-0.4 -0.5,-0.6 -0.2,-1 0.1,-0.9 0.4,-0.8 0.3,-0.3 0.7,-0.2 m 3.190332,85.20812 h 0.3 l 0.7,0.1 0.4,0.2 0.4,0.5 0.3,1.1 -0.1,0.7 -0.2,0.4 -0.5,0.4 -0.6,0.2 -0.6,-0.1 -1.1,-0.4 -3.7,-2 1.2,4 m 7.5,3.3 -6.9,-1.2 m 5.7,-2.9 1.2,4.1 M 82.7,282.6 l 0.3,0.1 0.6,0.3 0.2,0.4 0.3,0.6 -0.2,1.2 -0.3,0.6 -0.4,0.2 -0.6,0.3 -0.6,-0.1 -0.5,-0.4 -0.9,-0.7 -2.6,-3.3 -0.5,4.2 m 6,3.3 -0.2,-0.9 -0.6,-0.4 h -0.6 l -0.6,0.2 -0.4,0.6 -0.4,1.1 -0.4,0.9 -0.6,0.5 -0.7,0.3 -0.9,-0.1 -0.5,-0.4 -0.3,-0.3 -0.2,-1 0.1,-1.2 0.4,-0.8 0.4,-0.3 0.6,-0.2 0.9,0.1 0.5,0.3 0.6,0.7 0.2,0.9 0.2,1.3 0.2,0.6 0.6,0.3 0.5,0.1 0.7,-0.2 0.4,-0.9 0.1,-1.3 m 13.6,77.4 0.3,-0.2 0.6,-0.1 h 0.4 l 0.6,0.3 0.8,0.9 0.1,0.7 v 0.4 l -0.3,0.6 -0.4,0.4 -0.7,0.1 -1.1,0.1 -4.2,-0.4 2.6,3.2 m 6,-2.6 2.1,2.6 -3,0.1 0.6,0.7 0.1,0.7 v 0.4 l -0.5,0.8 -0.5,0.4 -0.9,0.3 -0.8,-0.1 -0.8,-0.5 -0.6,-0.7 -0.3,-0.9 v -0.4 l 0.3,-0.6 m 5.9,-197.3 -1.3,3 -1.5,-2.6 -0.3,0.8 -0.6,0.4 -0.4,0.2 -0.9,-0.1 -0.6,-0.2 -0.7,-0.7 -0.3,-0.8 0.1,-0.9 0.4,-0.8 0.6,-0.7 0.4,-0.2 H 99 m 1.1,10.2 1.2,-2.8 -2.4,-1.3 0.2,0.4 -0.1,0.9 -0.4,0.9 -0.6,0.7 -0.8,0.3 -0.9,-0.1 -0.6,-0.3 -0.7,-0.6 -0.3,-0.8 0.1,-0.9 0.3,-0.9 0.7,-0.7 0.4,-0.1 0.6,-0.1 M 155,115 l -2.8,1.7 0.3,-3 -0.7,0.5 h -0.7 l -0.4,-0.1 -0.7,-0.6 -0.3,-0.6 -0.2,-0.9 0.2,-0.8 0.6,-0.7 0.8,-0.5 0.9,-0.2 0.4,0.1 0.6,0.4 m -5.5,9.2 -0.6,-7 m 4.2,4.8 -3.6,2.2 m 103.6,0.3 -2.4,-2.3 2.9,-0.5 -0.6,-0.6 -0.3,-0.6 v -0.5 l 0.4,-0.8 0.4,-0.5 0.9,-0.4 h 0.8 l 0.9,0.3 0.6,0.7 0.5,0.8 v 0.4 l -0.2,0.7 m -6.4,-0.9 -0.6,-0.2 h -1.3 l 4.3,-4.6 m 27.97363,58.69066 -0.3,0.1 h -0.6 l -0.4,-0.2 -0.5,-0.4 -0.5,-1.1 v -0.7 l 0.1,-0.4 0.4,-0.5 0.6,-0.2 h 0.7 l 1,0.2 4,1.4 -1.7,-3.8 m -4.9,1.1 -0.6,-0.4 -1.2,-0.5 5.8,-2.6 m 82.95044,131.40319 3.4,3.9 1,-4.4 m -4.4,0.5 6.1,1.4 M 367.6,255 l 0.3,0.9 0.7,0.3 0.6,-0.1 0.5,-0.3 0.3,-0.7 0.2,-1.2 0.2,-0.9 0.6,-0.6 0.5,-0.4 0.9,-0.1 0.7,0.3 0.3,0.3 0.4,0.8 v 1.2 l -0.2,1 -0.3,0.3 -0.5,0.3 -0.9,0.1 -0.7,-0.3 -0.6,-0.5 -0.4,-0.9 -0.4,-1.2 -0.3,-0.5 -0.6,-0.3 -0.6,0.1 -0.6,0.3 -0.2,0.9 0.1,1.4 m -22,85.9 1.6,-2.8 1.2,2.7 0.5,-0.7 0.5,-0.4 0.4,-0.1 1,0.2 0.5,0.3 0.6,0.7 0.2,0.8 -0.2,0.9 -0.4,0.8 -0.7,0.7 -0.4,0.1 -0.7,-0.1 m -18.14725,-139.50384 -0.7,-0.2 h -1.3 l 4.3,-4.6 m -4.6,2.6 -0.2,0.2 -0.7,0.2 -0.4,0.1 -0.6,-0.2 -0.9,-0.8 -0.3,-0.6 v -0.5 l 0.2,-0.6 0.4,-0.5 0.6,-0.2 1.1,-0.3 4.2,-0.2 -3.1,-2.8 M 275.5,527.1 l -0.3,-0.2 -0.2,-0.6 -0.1,-0.4 0.1,-0.7 0.8,-0.9 0.6,-0.3 h 0.4 l 0.7,0.1 0.4,0.4 0.3,0.6 0.4,1 0.4,4.2 2.7,-3.3 m -3.1,-6.2 -0.4,0.9 0.4,1 1,1.2 0.7,0.6 1.3,0.7 h 1.1 l 0.8,-0.5 0.4,-0.4 0.3,-0.9 -0.3,-1.1 -1,-1.1 -0.7,-0.6 -1.4,-0.7 -1.1,-0.1 -0.8,0.5 -0.2,0.4 m -97.4,-117.1 -0.5,0.4 -0.7,1.1 -1.2,-6.2 m -0.5,6.7 -3.2,0.7 1.3,-2.7 -0.9,0.1 -0.6,-0.1 -0.4,-0.3 -0.5,-0.8 -0.1,-0.6 0.1,-0.9 0.5,-0.7 0.8,-0.5 0.9,-0.2 1,0.1 0.3,0.3 0.4,0.5 m -56.4,87 0.3,-0.1 h 0.7 l 0.4,0.2 0.5,0.5 0.4,1.1 -0.1,0.7 -0.2,0.4 -0.4,0.4 -0.6,0.3 -0.6,-0.1 -1.1,-0.3 -3.9,-1.7 1.5,3.9 m 6.8,0.3 -0.5,-0.8 h -0.7 l -0.6,0.2 -0.4,0.5 -0.1,0.6 0.1,1.3 0.1,0.9 -0.4,0.8 -0.4,0.5 -0.9,0.3 -0.6,-0.1 -0.4,-0.1 -0.6,-0.8 -0.4,-1.1 -0.1,-0.9 0.2,-0.4 0.4,-0.5 0.9,-0.3 h 0.7 l 0.7,0.4 0.6,0.7 0.7,1 0.5,0.5 0.7,0.1 0.6,-0.3 0.4,-0.4 v -1 l -0.5,-1.3 M 112.6,451 h 0.3 l 0.6,0.3 0.3,0.2 0.4,0.6 0.1,1.2 -0.3,0.6 -0.2,0.3 -0.6,0.4 -0.6,0.1 -0.6,-0.3 -1,-0.5 -3.2,-2.7 0.4,4.2 m 6.7,4.6 -6.6,-2.5 m 6.2,-1.7 0.4,4.2 m -2.2,-33.6 0.3,0.1 0.6,0.3 0.3,0.3 0.3,0.6 -0.1,1.2 -0.3,0.6 -0.3,0.3 -0.6,0.3 -0.6,-0.1 -0.6,-0.3 -0.9,-0.6 -2.9,-3.2 -0.1,4.2 m 6.2,2 -0.2,3.3 -2.3,-1.9 v 0.9 l -0.4,0.6 -0.3,0.3 -0.9,0.3 -0.6,-0.1 -0.9,-0.3 -0.5,-0.6 -0.3,-0.9 v -0.9 l 0.4,-0.9 0.3,-0.3 0.6,-0.3 m 26.1,-15.9 -0.5,0.4 -0.6,1.2 -2,-6 m -1.9,7.6 1.4,-4.9 -4.2,1.4 m 2.8,3.5 -2.1,-5.9 m 15.6,127.7 1.1,3.1 -2.8,-0.8 0.3,0.8 -0.1,0.7 -0.1,0.4 -0.8,0.6 -0.5,0.2 -1,0.1 -0.8,-0.4 -0.6,-0.7 -0.3,-0.8 v -1 l 0.1,-0.4 0.5,-0.5 m 6.9,3.7 1.2,3.1 -2.9,-0.8 0.3,0.8 v 0.7 l -0.2,0.4 -0.7,0.6 -0.6,0.2 h -1 l -0.7,-0.3 -0.6,-0.7 -0.4,-0.9 v -0.9 l 0.2,-0.4 0.4,-0.5 m 22.2,33.8 2,2.6 -3,0.1 0.6,0.7 0.1,0.7 v 0.4 l -0.6,0.8 -0.4,0.3 -0.9,0.4 -0.9,-0.1 -0.8,-0.6 -0.5,-0.7 -0.3,-0.9 v -0.4 l 0.3,-0.6 m 9.5,3.9 -1.8,-2.3 -2.3,1.4 h 0.4 l 0.8,0.6 0.5,0.7 0.4,0.9 -0.2,0.8 -0.5,0.8 -0.5,0.4 -0.8,0.3 -0.9,-0.1 -0.8,-0.6 -0.5,-0.7 -0.3,-0.9 V 588 l 0.3,-0.6 m 86.8,33.5 2.9,-1.6 -0.5,3 0.8,-0.4 h 0.7 l 0.4,0.1 0.7,0.6 0.2,0.6 0.2,0.9 -0.3,0.8 -0.6,0.7 -0.8,0.4 -0.9,0.2 -0.4,-0.1 -0.6,-0.4 m 5.1,-8.6 -0.7,5.1 4,-2.1 m -3.3,-3 2.9,5.6 m 16.9,-19 2.3,-2.3 0.5,2.9 0.6,-0.6 0.6,-0.2 h 0.5 l 0.8,0.4 0.4,0.4 0.5,0.9 v 0.8 l -0.5,0.9 -0.6,0.6 -0.8,0.4 h -0.5 l -0.6,-0.2 m 1.1,-6.3 0.2,-0.7 v -1.2 l 4.5,4.4 m -2.4,-33.3 h -0.3 l -0.6,-0.1 -0.4,-0.2 -0.4,-0.6 -0.3,-1.1 0.2,-0.7 0.2,-0.3 0.5,-0.5 0.6,-0.1 0.6,0.1 1.1,0.4 3.6,2.3 -1,-4.1 m -5,0.1 -0.4,-0.6 -1.1,-0.6 6.1,-1.5 m -73,56 3.2,0.9 -2.3,1.8 0.8,0.3 0.5,0.4 0.2,0.4 0.1,0.9 -0.2,0.6 -0.5,0.8 -0.7,0.4 -1,0.1 -0.8,-0.3 -0.8,-0.5 -0.2,-0.4 -0.2,-0.6 m 10.4,-2.4 -4.5,5.2 m 0.5,-6.4 4,1.2 m -38.7,-18.4 2.5,2.3 -3,0.5 0.7,0.6 0.2,0.6 v 0.5 l -0.4,0.8 -0.4,0.5 -0.8,0.4 -0.9,0.1 -0.8,-0.4 -0.7,-0.6 -0.4,-0.9 -0.1,-0.4 0.2,-0.6 m 8.5,0.9 -0.8,-0.4 -0.7,0.2 -0.4,0.5 -0.2,0.6 0.3,0.6 0.6,1.1 0.5,0.8 v 0.9 l -0.2,0.6 -0.6,0.7 -0.6,0.2 h -0.4 l -0.9,-0.4 -0.9,-0.8 -0.4,-0.8 v -0.5 l 0.2,-0.6 0.6,-0.7 0.6,-0.2 h 0.8 l 0.9,0.4 1.1,0.6 0.6,0.1 0.7,-0.2 0.4,-0.4 0.2,-0.7 -0.5,-0.8 -1,-0.9 m 116.1,-205 h -0.6 l -1.2,0.4 2.6,-5.7 m 24.3,25.7 -2.4,-2.3 2.9,-0.5 -0.6,-0.6 -0.3,-0.6 v -0.5 l 0.4,-0.8 0.4,-0.5 0.8,-0.4 0.9,-0.1 0.9,0.4 0.6,0.6 0.5,0.8 v 0.5 l -0.2,0.6 m 12.7,38.8 4.6,2.2 -0.8,-4.4 m -3.8,2.2 6.2,-1.1 m -40.8,55.5 0.5,-0.3 0.8,-1 0.8,6.2 m 1,-5.2 v -0.3 l 0.2,-0.6 0.3,-0.3 0.5,-0.4 1.2,-0.2 0.7,0.2 0.3,0.3 0.4,0.6 v 0.6 l -0.2,0.6 -0.5,1 -2.5,3.3 4.1,-0.5 m 24.1,-19.5 -0.1,0.9 0.4,0.6 0.5,0.2 0.7,0.1 0.5,-0.4 0.8,-0.9 0.7,-0.7 0.8,-0.2 h 0.7 l 0.8,0.4 0.4,0.6 0.1,0.4 -0.2,0.9 -0.5,1.1 -0.7,0.6 -0.4,0.1 H 345 l -0.8,-0.4 -0.4,-0.6 -0.2,-0.8 0.2,-0.9 0.3,-1.2 v -0.7 l -0.4,-0.5 -0.5,-0.3 h -0.7 l -0.7,0.6 -0.6,1.2"
       id="nums_001"
       stroke="#000000"
       stroke-width="1"
       sodipodi:nodetypes="ccccccccccccccccccccccccccccccccccccccccccccccccccccccccccccccccccccccccccccccccccccccccccccccccccccccccccccccccccccccccccccccccccccccccccccccccccccccccccccccccccccccccccccccccccccccccccccccccccccccccccccccccccccccccccccccccccccccccccccccccccccccccccccccccccccccccccccccccccccccccccccccccccccccccccccccccccccccccccccccccccccccccccccccccccccccccccccccccccccccccccccccccccccccccccccccccccccccccccccccccccccccccccccccccccccccccccccccccccccccccccccccccccccccccccccccccccccccccccccccccccccccccccccccccccccccccccccccccccccccccccccccccccccccccccccccccccccccccccccccccccccccccccccccccccccccccccccccccccccccccccccccccccccccccccccccccccccccccccccccccccccccccccccccccccccccccccccccccccccccccccccccccccccccccccccccccccccccccccccccccccccccccccccccccccccccccccccccccccccccccccccccccccccc" />
    <path
       d="m 99.9,307 31.8,-16.8 -34.3,10.9 -24.8,12.9 5.8,-54.4 6.5,-59 41.2,6.1 -39.1,-14.3 14.1,-32.1 12.3,-24.1 36.8,20.8 -25.5,-33.8 44.4,-26 38,-9.2 -10.5,44.9 34,-31.2 10.1,41.3 1.8,-42.4 21.7,20.1 27,58.8 -10.7,11.1 -13.3,8.6 -31.2,5.4 -57,-0.4 55,14.9 31.6,-2.1 -2.3,32.2 -39.6,54.7 43.2,-51.9 42.9,20.8 -26.9,-39.4 13.2,-29.5 12.5,-9.6 5.3,-14.5 10.2,8.7 39.5,35.6 -33.3,20.1 36.9,-12.5 -10.3,27.5 -21.1,28.1 23.2,-26.3 15.4,-25.1 2.6,34.9 -12.7,54.5 -21.3,36.6 -15.6,-13.3 -27.7,-15.1 17.1,26.5 -36.8,5.9 37.2,-0.7 0.9,20.6 -25.7,4.3 23.6,10.9 31.3,28.5 10,55.1 -16.6,30.8 -52.7,6.8 -8.4,10.5 14.9,63.1 -20.8,20.9 -34.6,18.4 -49.6,-13.6 -19.8,-18.4 -21.5,-27.7 -21.5,-55.3 -19.3,-51.3 -2.2,-24.6 1.1,-26.3 45.1,-15.4 49.6,-9.7 -50.5,-2.2 -47.3,-5.7 -16.5,-20.5 27,-3.5 46.5,-8.2 -47.1,2.9 -26.7,-5.5 -6.8,-23.8 z"
       id="coupes_001"
       stroke="#ff0000"
       stroke-width="1.27"
       sodipodi:nodetypes="ccccccccccccccccccccccccccccccccccccccccccccccccccccccccccccccccccccccccccccccc" />
    <path
       d="m 292.4,390.1 24.8,-24.9 M 292.4,390.1 280,365.9 m 12.4,24.2 -91.4,2.7 m 0,0 79,-26.9 m -79,26.9 -40.8,-40.1 m 0,0 119.8,13.2 m -129.5,24.7 9.7,-37.9 m 0,0 63.5,-48.8 m -120.5,81 57,-32.2 m 0,0 -28.5,-62.5 m 0,0 92,13.7 m -120.5,81 10.5,-24 m -0.6,-5.3 18.6,-65.4 m 0,0 47.3,-86 m 0,0 44.7,99.7 M 113.1,355.6 99.9,307 m 31.8,-16.8 -5.6,-83.5 m 0,0 52.9,-2.5 m -52.9,2.5 24.1,-49.7 m 0,0 28.8,47.2 m -52.9,2.5 -25,-46.4 m 0,0 49.1,-3.3 m 0,0 46.4,-24.1 m 0,0 -17.6,71.3 M 150.2,157 169.1,97.2 m 0,0 27.5,35.7 m -17.6,71.3 84.3,45 m -29.3,-30.1 29.3,30.1 m -39.6,54.7 76,29.6 m 0,0 -19.7,32.4 m -56.3,-62 86.1,-31.1 m 0,0 -10.1,60.7 m 10.1,-60.7 26,14.5 m 0,0 -36.1,46.2 M 97.4,301.1 126.1,206.7 M 97.4,301.1 84.9,200.6 m 12.5,100.5 -19,-41.5 M 196.6,132.9 240.7,143 m 0,0 -4.7,61.6 M 86.4,350.1 99.9,307 m 140.8,-164 26.5,56.2 M 240.7,143 264.2,120.7 m 0,0 16.3,69.9 m 55.3,96.7 28.5,38 m 0,0 -36.9,23.3 M 359,261 l 18,9.8 m -67.2,2 20.5,-28.6 m 0,0 26.6,15 m -74,-25.8 47.4,10.8 m -34.2,-40.3 34.2,40.3 m -21.7,-49.9 55,29.8"
       id="plisM_001"
       stroke="#a52a2a"
       stroke-dasharray="4" />
    <path
       d="m 302.8,375.6 4,4 m 0,-4 -4,4 m -18.6,-3.6 4,4 m 0,-4 -4,4 m -39.5,9.4 4,4 m 0,-4 -4,4 m -6.2,-16 4,4 m 0,-4 -4,4 m -59.9,-10.7 4,4 m 0,-4 -4,4 m 39.5,-17.4 4,4 m 0,-4 -4,4 m -64.7,8.3 4,4 m 0,-4 -4,4 m 36.6,-47.3 4,4 m 0,-4 -4,4 m -60.3,36.5 4,4 m 0,-4 -4,4 m 14.3,-51.3 4,4 m 0,-4 -4,4 m 31.7,-28.4 4,4 m 0,-4 -4,4 m -69.2,71.8 4,4 m 0,-4 -4,4 m 13.9,-54 4,4 m 0,-4 -4,4 m 32.9,-79.7 4,4 m 0,-4 -4,4 m 46.1,2.8 4,4 m 0,-4 -4,4 m -94.9,73.3 4,4 m 0,-4 -4,4 m 22.4,-86.8 4,4 m 0,-4 -4,4 m 23.6,-47.1 4,4 m 0,-4 -4,4 m -14.3,-27.5 4,4 m 0,-4 -4,4 m 26.4,-5.3 4,4 m 0,-4 -4,4 m -51,-1.1 4,4 m 0,-4 -4,4 m 12.1,-28.9 4,4 m 0,-4 -4,4 m 47.7,-17.7 4,4 m 0,-4 -4,4 m 14.4,19.6 4,4 m 0,-4 -4,4 m -28.1,-45.4 4,4 m 0,-4 -4,4 m 23.1,-16.1 4,4 m 0,-4 -4,4 m 38.3,107.7 4,4 m 0,-4 -4,4 m 27.6,3.4 4,4 m 0,-4 -4,4 m 13,80.6 4,4 m 0,-4 -4,4 m 28.1,27 4,4 m 0,-4 -4,4 m -23,-65.3 4,4 m 0,-4 -4,4 m 37.9,10.7 4,4 m 0,-4 -4,4 m 18.1,-27 4,4 m 0,-4 -4,4 m -5.1,26.3 4,4 m 0,-4 -4,4 m -205.9,-60.5 4,4 m 0,-4 -4,4 m -20.6,-7 4,4 m 0,-4 -4,4 m -3.3,25.5 4,4 m 0,-4 -4,4 m 130.7,-146.5 4,4 m 0,-4 -4,4 m 19.8,31.9 4,4 m 0,-4 -4,4 m -145.3,150.8 4,4 m 0,-4 -4,4 M 252,169.1 l 4,4 m 0,-4 -4,4 m -1.6,-43.3 4,4 m 0,-4 -4,4 m 19.9,19.8 4,4 m 0,-4 -4,4 m 77.8,146.7 4,4 m 0,-4 -4,4 m -4.2,26.6 4,4 m 0,-4 -4,4 m 22.1,-75 4,4 m 0,-4 -4,4 m -48,-11.4 4,4 m 0,-4 -4,4 m 23.6,-10.8 4,4 m 0,-4 -4,4 m -37,-16.9 4,4 m 0,-4 -4,4 m 6.6,-18.7 4,4 m 0,-4 -4,4 m 22.9,-18.9 4,4 m 0,-4 -4,4"
       display="none"
       id="marqueM_001"
       stroke="#a52a2a" />
    <path
       d="m 223.7,303.9 56.3,62 m 55.8,-78.6 -8.4,61.3 M 240.7,143 179,204.2 m 61.7,-61.2 39.8,47.6 m 78.5,70.4 5.3,64.3 m -34,-81.1 5.5,43.1 m -27.2,-93 21.7,49.9 m -21.7,-49.9 15.5,-5.8"
       id="plisV_001"
       stroke="#008000"
       stroke-dasharray="4, 1, 1, 1"
       stroke-width="1.27" />
    <path
       d="m 249.9,332.9 4,4 m 0,-4 -4,4 m 79.7,-21 4,4 m 0,-4 -4,4 m -121.8,-148.3 4,4 m 0,-4 -4,4 m 50.8,-10.8 4,4 m 0,-4 -4,4 m 101.1,122.3 4,4 m 0,-4 -4,4 m -28.7,-31.4 4,4 m 0,-4 -4,4 m -13.5,-50.5 4,4 m 0,-4 -4,4 m -3.1,-31.8 4,4 m 0,-4 -4,4"
       id="marqueV_001"
       stroke="#008000" />
  </g>
</svg>
