<?xml version="1.0" encoding="UTF-8" standalone="no"?>
<svg
   height="841.88977pt"
   viewBox="0 0 532.99998 754.00001"
   width="595.27557pt"
   version="1.1"
   id="svg156"
   sodipodi:docname="moineau150_H14_A4x2.svg"
   inkscape:version="1.3 (0e150ed6c4, 2023-07-21)"
   xmlns:inkscape="http://www.inkscape.org/namespaces/inkscape"
   xmlns:sodipodi="http://sodipodi.sourceforge.net/DTD/sodipodi-0.dtd"
   xmlns="http://www.w3.org/2000/svg"
   xmlns:svg="http://www.w3.org/2000/svg">
  <defs
     id="defs156" />
  <sodipodi:namedview
     id="namedview156"
     pagecolor="#ffffff"
     bordercolor="#000000"
     borderopacity="0.25"
     inkscape:showpageshadow="2"
     inkscape:pageopacity="0.0"
     inkscape:pagecheckerboard="0"
     inkscape:deskcolor="#d1d1d1"
     inkscape:document-units="mm"
     showgrid="false"
     inkscape:zoom="2.3618524"
     inkscape:cx="1163.7052"
     inkscape:cy="173.80426"
     inkscape:window-width="1920"
     inkscape:window-height="1057"
     inkscape:window-x="-8"
     inkscape:window-y="-8"
     inkscape:window-maximized="1"
     inkscape:current-layer="svg156" />
  <style
     type="text/css"
     id="style1"><![CDATA[
			path {
				fill: none;
			}
		]]></style>
  <g
     id="page_001">
    <path
       d="m 86,321.3 33.4,-23.3 41,-32.2 34.1,-46.3 30.2,-41.8 -34.8,38 -42.2,39.2 -18.7,-66.3 6.1,-42.8 24.5,-41.3 25.1,-5.5 -9.1,-61.5 59.7,-1.6 5.4,67.1 52,68.9 -31.8,-80.2 13.7,-65.9 72.6,26.1 -24.5,63.2 42.7,45.7 -19.5,59.8 -28.4,31.2 -36.7,17.1 -40,47.1 56.4,-25.3 40.3,2.6 42.1,-3 61.2,-14.7 -2.9,51.7 -69.4,61.1 -3.7,36.9 7.2,55.2 -21.1,51.5 25.2,27.3 -83.3,36.3 -68,30.7 -5.5,-57.5 -48.7,-48.2 -9.3,67.9 -56.8,-10.9 -64.5,-26.5 60.5,-66.6 44.7,-33.9 17.8,-37.7 62.9,7 10.5,48.3 39.5,50.8 -5.3,-64.1 45.6,-19.3 -31.5,-54.8 -39.1,14.4 -56.1,0.6 -81.3,38.4 -26.9,-43.9 z"
       id="coupes_001"
       stroke="#ff0000"
       stroke-width="1.27"
       sodipodi:nodetypes="ccccccccccccccccccccccccccccccccccccccccccccccccccccccc" />
    <path
       d="m 368.5,388.4 11.1,-98.1 58.3,37 m -153.2,53.5 52.8,-87.5 31,95.1 -52.3,47.2 55.8,44.9 m -74.8,-189.8 -12.5,90.1 -43.9,-64.8 4.8,79.2 m -4.8,-79.2 -121.4,-18 70.1,97.8 z m 29.8,138.9 101.4,25.6 -96.1,38.5 16.9,76.6 M 350.9,532 292.8,595.6 219.3,568.8 275.9,519 m -39.5,-50.8 -91.2,-17.6 25.4,70 z m -76,-202.4 80.4,50.2 -46.3,-96.5 86.3,49.4 -56.1,-91.2 68,-5.8 30,-56.8 -61.8,-23.4 m 56.6,160.1 -24.8,-79.9 53.2,48.7 M 235.3,35.9 184.7,99 l 40,78.7 -95.7,10.9 60.9,27.1 m 50.8,-112.7 -56,-4 108,72.9 72.7,-11.1 M 135.1,145.8 184.7,99 M 81.3,390.3 189.5,395.8 86,321.3 m 14.5,163.2 70.1,36.1 L 40,551.1 m 234.6,-525.3 48.1,89.3"
       id="plisM_001"
       stroke="#a52a2a"
       stroke-dasharray="4"
       sodipodi:nodetypes="cccccccccccccccccccccccccccccccccccccccccccccccccccccccccc" />
    <path
       d="m 368.5,388.4 -83.8,-7.6 m 80.1,44.5 -48.6,10.3 m 34.7,96.4 -75,-13 -105.3,1.6 -66.1,57 m 40.7,-127 80.7,-30.7 m 66.8,-248 -11.9,97 m -56.1,-91.2 -89.6,-31.9"
       id="plisV_001"
       stroke="#008000"
       stroke-dasharray="4, 1, 1, 1"
       stroke-width="1.27"
       sodipodi:nodetypes="cccccccccccccc" />
    <path
       d="m 324.6,382.6 4,4 m 0,-4 -4,4 m 13.9,41.9 4,4 m 0,-4 -4,4 m -27.1,91 4,4 m 0,-4 -4,4 m -90.2,-9.7 4,4 m 0,-4 -4,4 m -37.6,-88.5 4,4 m 0,-4 -4,4 m 101.2,-218.9 4,4 m 0,-4 -4,4 m -106.9,-62.6 4,4 m 0,-4 -4,4 m -42.3,383.3 4,4 m 0,-4 -4,4"
       id="marqueV_001"
       stroke="#008000" />
    <g
       id="nums_001">
      <path
         d="m 393.5,348 -0.5,1.2 0.4,1.6 1.4,2.1 1,1.1 1.9,1.7 1.6,0.6 1.1,-0.4 0.6,-0.5 0.5,-1.1 -0.4,-1.6 -1.4,-2.1 -1,-1.2 -1.9,-1.6 -1.5,-0.6 -1.2,0.3 -0.4,0.4"
         stroke="#000000"
         stroke-width="1"
         id="path1" />
      <path
         d="m 357.8,304.1 0.4,1 1.2,0.4 h 0.7 l 1.1,-0.6 0.7,-1.5 0.2,-2.6 -0.2,-2.5 -0.5,-1.9 -0.9,-1 -1.1,-0.4 H 359 l -1.1,0.6 -0.6,1.1 -0.3,1.5 v 0.5 l 0.5,1.5 0.8,0.9 1.2,0.4 h 0.3 l 1.1,-0.6 0.7,-1 0.3,-1.6"
         stroke="#000000"
         stroke-width="1"
         id="path2" />
      <path
         d="m 314.3,305.6 4.5,-10.3 m 0.8,10.6 -5.3,-0.3"
         stroke="#000000"
         stroke-width="1"
         id="path3" />
      <path
         d="m 308.1,398.6 0.8,0.4 1.8,0.2 -9.1,5.3 m 12.6,0 -11,2 m 8.3,-6.6 2.7,4.6"
         stroke="#000000"
         stroke-width="1"
         id="path4" />
      <path
         d="m 354.9,413.94575 -0.4,-0.8 -1.4,-1.2 10.4,1 m -8.7,-6.6 -1.1,0.3 -0.6,1.1 v 0.7 l 0.3,1.2 1.5,0.9 2.4,0.6 2.5,0.2 2,-0.2 1.1,-0.6 0.6,-1.1 v -0.3 l -0.3,-1.2 -1,-0.9 -1.4,-0.5 h -0.5 l -1.6,0.2 -1,0.7 -0.6,1 -0.1,0.4 0.4,1.2 0.9,0.8 1.5,0.5"
         stroke="#000000"
         stroke-width="1"
         id="path5" />
      <path
         d="m 279.6,313.6 -3.7,1.7 0.4,-4.6 -1,0.5 -0.9,-0.1 -0.6,-0.3 -0.9,-1.3 -0.4,-0.9 -0.3,-1.5 0.3,-1.2 0.8,-0.9 1,-0.5 h 1.2 l 0.6,0.3 0.7,0.8 m -3,10.6 -3.8,1.7 0.4,-4.5 -1,0.4 -0.9,-0.1 -0.5,-0.3 -1,-1.2 -0.4,-0.9 -0.3,-1.6 0.3,-1.2 0.8,-0.9 1.1,-0.5 h 1.2 l 0.5,0.3 0.8,0.8"
         stroke="#000000"
         stroke-width="1"
         id="path6" />
      <path
         d="m 256.9,378.9 0.5,-0.7 0.6,-1.8 3.6,9.8 m -0.9,-11.2 -0.9,0.8 v 1.1 l 0.4,0.9 0.7,0.8 0.8,0.3 1.6,-0.1 1.2,0.1 1.1,0.7 0.7,0.8 0.5,1.4 v 1 l -0.2,0.6 -0.9,0.9 -1.4,0.5 -1.2,-0.1 -0.5,-0.3 -0.7,-0.8 -0.5,-1.4 v -1.1 l 0.3,-1.2 0.9,-0.8 1.2,-1 0.6,-0.8 v -1 l -0.4,-1 -0.7,-0.8 h -1.2 l -1.6,0.5"
         stroke="#000000"
         stroke-width="1"
         id="path7" />
      <path
         d="m 211.6,384.3 v -0.5 l 0.3,-1 0.4,-0.5 0.8,-0.5 h 1.5 l 0.7,0.5 0.4,0.5 0.4,1 v 1 l -0.4,1 -0.7,1.5 -3.7,5 h 5.2 m 3.4,-10.6 -1.2,0.5 -0.7,1.6 -0.3,2.5 v 1.5 l 0.4,2.5 0.7,1.4 1.2,0.5 h 0.7 l 1.1,-0.5 0.8,-1.5 0.3,-2.5 v -1.5 l -0.4,-2.5 -0.8,-1.5 -1.1,-0.5 h -0.5"
         stroke="#000000"
         stroke-width="1"
         id="path8" />
      <path
         d="m 357.8,459.2 -0.6,-0.7 -1.6,-0.9 10.4,-1.3 m -11.6,-3.7 7.5,2.8 -0.8,-5.6 m -6.7,2.8 10.5,-1.4"
         stroke="#000000"
         stroke-width="1"
         id="path9" />
      <path
         d="m 302.2,453.9 -0.5,0.8 -0.4,1.8 -4.1,-9.7 m 1.5,8.4 0.2,0.5 0.1,1 -0.2,0.7 -0.5,0.7 -1.4,0.6 -0.8,-0.2 -0.6,-0.3 -0.7,-0.8 -0.4,-0.9 v -1.1 l 0.1,-1.6 1.5,-6.1 -4.9,2"
         stroke="#000000"
         stroke-width="1"
         id="path10" />
      <path
         d="m 284.4,483.1 0.5,0.8 1.6,1 -10.4,0.8 m 8.5,0.4 0.6,0.7 1.6,1 -10.5,0.9"
         stroke="#000000"
         stroke-width="1"
         id="path11" />
      <path
         d="m 349.1,506.5 -0.2,-0.9 -1,-1.6 9.8,4 m -8.2,-8.9 5,6.1 2.2,-5.2 m -7.2,-0.9 9.7,4"
         stroke="#000000"
         stroke-width="1"
         id="path12" />
      <path
         d="m 358.2,556.6 -0.9,-0.2 -1.9,0.2 7.7,-7.1 m -10.7,2.2 -0.5,0.9 0.4,1.2 0.6,0.5 1.1,0.5 1.6,-0.4 2.1,-1.5 1.8,-1.7 1.2,-1.6 0.3,-1.2 -0.4,-1.2 -0.3,-0.3 -1.1,-0.5 -1.3,0.2 -1.3,0.7 -0.4,0.4 -0.8,1.3 -0.3,1.2 0.4,1.1 0.3,0.3 1.1,0.5 1.3,-0.1 1.3,-0.8"
         stroke="#000000"
         stroke-width="1"
         id="path13" />
      <path
         d="m 325.7,568.8 0.5,-0.8 0.4,-1.8 4.2,9.6 m 0.8,-12.2 -3.4,1.5 1.5,4.3 0.1,-0.6 0.8,-0.9 1.1,-0.5 h 1.2 l 1.1,0.7 0.9,1.2 0.4,0.9 0.3,1.5 -0.3,1.2 -0.8,1 -1.1,0.4 h -1.2 l -0.5,-0.3 -0.8,-0.8"
         stroke="#000000"
         stroke-width="1"
         id="path14" />
      <path
         d="m 199.7,533.4 0.9,0.1 1.8,-0.2 -7.4,7.4 m 9,-6.4 3,2.9 -4.5,1.3 0.8,0.8 0.2,0.9 -0.1,0.6 -0.8,1.3 -0.7,0.7 -1.3,0.8 -1.2,0.2 -1.2,-0.4 -0.8,-0.8 -0.4,-1.1 0.1,-0.7 0.4,-0.9"
         stroke="#000000"
         stroke-width="1"
         id="path15" />
      <path
         d="m 248.9,502.9 -0.9,-0.3 h -1.8 l 8.2,-6.4 m -7.3,4.3 -0.9,-0.2 h -1.9 l 8.3,-6.5"
         stroke="#000000"
         stroke-width="1"
         id="path16" />
      <path
         d="m 221,451.1 -0.7,-0.6 -1.7,-0.8 10.3,-2.2 m -8.5,0 -0.5,0.1 -1.1,-0.2 -0.6,-0.2 -0.6,-0.7 -0.3,-1.4 0.3,-0.9 0.4,-0.4 0.9,-0.6 1,-0.2 1,0.1 1.7,0.4 5.7,2.6 -1.2,-5.1"
         stroke="#000000"
         stroke-width="1"
         id="path17" />
      <path
         d="m 166.4,432.5 0.1,0.9 0.9,1.6 -9.5,-4.5 m 8.5,7.4 0.1,-1.2 -0.8,-0.8 -0.9,-0.4 -1.1,-0.1 -0.7,0.5 -1.1,1.1 -1,0.8 -1.2,0.3 -1,-0.1 -1.4,-0.6 -0.7,-0.8 -0.3,-0.6 v -1.2 l 0.6,-1.3 1,-0.9 0.6,-0.1 1,0.1 1.4,0.6 0.7,0.8 0.6,1.1 v 1.2 l -0.2,1.6 0.1,0.9 0.8,0.8 0.9,0.4 1.1,0.1 0.9,-0.8 0.7,-1.5"
         stroke="#000000"
         stroke-width="1"
         id="path18" />
      <path
         d="m 197.7,428.2 -0.8,0.5 -1.3,1.3 1.2,-10.4 m -7.5,10.1 4.9,-10 m 0.4,10.6 -5.3,-0.6"
         stroke="#000000"
         stroke-width="1"
         id="path19" />
      <path
         d="m 416.3,295.7 2,-7.6 -5.5,1.3 m 3.5,6.3 -2.5,-10.2 m -4.3,11.9 2,-7.7 -5.5,1.3 m 3.5,6.4 -2.5,-10.2"
         stroke="#000000"
         stroke-width="1"
         id="path20" />
      <path
         d="m 425.4,303.5 6.7,4.2 0.4,-5.6 m -7.1,1.4 10.5,0.6 m -10,-8.1 -0.2,3.8 4.5,0.6 -0.5,-0.4 -0.5,-1.1 0.1,-1.2 0.6,-1.1 1,-0.7 1.5,-0.2 h 1 l 1.5,0.5 1,0.8 0.4,1.1 -0.1,1.1 -0.5,1.1 -0.6,0.4 -1,0.3"
         stroke="#000000"
         stroke-width="1"
         id="path21" />
      <path
         d="m 150.7,291 -1.4,-7.8 -4.4,3.5 m 5.8,4.3 -6.5,-8.2 m 3.5,10.5 -3.2,2.5 -0.8,-4.5 -0.8,0.7 -0.9,0.1 -0.6,-0.2 -1.3,-0.9 -0.6,-0.8 -0.6,-1.4 v -1.3 l 0.5,-1.1 0.9,-0.7 1.2,-0.3 0.6,0.2 0.9,0.6"
         stroke="#000000"
         stroke-width="1"
         id="path22" />
      <path
         d="m 190.3,248.6 -3.4,-7.2 -3.3,4.5 m 6.7,2.7 -8.4,-6.3 m 4.7,7.2 -0.1,0.9 0.6,1.8 -8.5,-6.2"
         stroke="#000000"
         stroke-width="1"
         id="path23" />
      <path
         d="m 246.7,287.7 2.7,-3.1 1.6,4.3 0.7,-0.9 0.9,-0.2 h 0.6 l 1.4,0.7 0.8,0.7 0.9,1.2 0.3,1.2 -0.4,1.2 -0.7,0.9 -1.1,0.5 h -0.7 l -1,-0.4 m -1.8,-10.9 2.7,-3.2 1.6,4.3 0.7,-0.8 0.9,-0.3 h 0.6 l 1.4,0.7 0.7,0.7 0.9,1.2 0.3,1.3 -0.3,1.1 -0.8,0.9 -1.1,0.5 h -0.6 l -1,-0.4"
         stroke="#000000"
         stroke-width="1"
         id="path24" />
      <path
         d="m 224,202.2 -2.4,3.4 -2,-4.2 -0.6,0.9 -0.9,0.3 h -0.6 l -1.4,-0.5 -0.8,-0.6 -1,-1.2 -0.4,-1.2 0.3,-1.2 0.6,-0.9 1.1,-0.6 0.6,-0.1 1,0.3 m 0.5,13.8 2.2,-3 -3.4,-2.9 0.2,0.6 -0.3,1.2 -0.6,0.9 -1.1,0.6 h -1.2 l -1.5,-0.6 -0.8,-0.5 -1,-1.2 -0.3,-1.2 0.2,-1.2 0.7,-0.9 1,-0.7 h 0.7 l 1,0.3"
         stroke="#000000"
         stroke-width="1"
         id="path25" />
      <path
         d="m 295.3,247 1,11.1 m -5.8,-8.9 4.8,-2.2"
         stroke="#000000"
         stroke-width="1"
         id="path26" />
      <path
         d="m 323.7,226.8 -1,-0.4 -1.1,0.5 -0.5,0.5 -0.4,1.2 0.6,1.5 1.6,2 1.9,1.7 1.7,1 1.2,0.2 1.2,-0.5 0.2,-0.3 0.4,-1.2 -0.2,-1.2 -0.9,-1.3 -0.4,-0.3 -1.3,-0.8 -1.3,-0.1 -1.1,0.5 -0.3,0.3 -0.3,1.2 0.2,1.2 0.9,1.3"
         stroke="#000000"
         stroke-width="1"
         id="path27" />
      <path
         d="m 254.16526,143.58778 -2.5,-3.3 4.6,-0.7 -0.7,-0.8 v -0.9 l 0.1,-0.7 1,-1.2 0.8,-0.6 1.4,-0.6 h 1.3 l 1,0.6 0.7,0.9 0.3,1.2 -0.2,0.6 -0.5,0.9 m -11.8,-1.5 1,0.6 1.1,-0.3 0.8,-0.6 0.5,-0.9 v -0.9 l -0.5,-1.5 -0.3,-1.2 0.3,-1.2 0.6,-0.9 1.2,-0.9 1,-0.3 h 0.7 l 1,0.6 0.9,1.2 0.3,1.2 -0.1,0.6 -0.6,0.9 -1.2,0.9 -1,0.3 h -1.3 l -1.1,-0.6 -1.3,-0.9 -0.8,-0.3 -1,0.3 -0.8,0.6 -0.6,0.9 0.3,1.2 1,1.4"
         stroke="#000000"
         stroke-width="1"
         id="path28" />
      <path
         d="m 224.7,76.1 -0.3,-4.2 4.2,2 -0.1,-1.2 0.4,-0.7 0.5,-0.5 1.4,-0.4 1,-0.1 1.6,0.2 1,0.7 0.6,1.1 0.1,1.1 -0.4,1.2 -0.5,0.4 -0.9,0.4 m -9.4,-10.8 10.7,2.9 m -10.3,2.4 -0.4,-5.3"
         stroke="#000000"
         stroke-width="1"
         id="path29" />
      <path
         d="m 146.5,163.7 -0.6,4.1 -3.7,-2.8 -0.1,1.1 -0.6,0.7 -0.6,0.3 -1.5,0.2 -1,-0.2 -1.4,-0.6 -0.9,-0.8 -0.4,-1.2 0.2,-1.1 0.7,-1.1 0.5,-0.3 1.1,-0.2 m 5.3,11.8 1.1,-0.2 0.6,-1.1 0.1,-0.7 -0.3,-1.2 -1.4,-1 -2.4,-0.7 -2.5,-0.3 -2,0.1 -1.1,0.6 -0.7,1 v 0.4 l 0.3,1.2 0.9,0.8 1.4,0.6 0.5,0.1 1.6,-0.2 1.1,-0.6 0.6,-1 0.1,-0.4 -0.4,-1.2 -0.8,-0.9 -1.5,-0.5"
         stroke="#000000"
         stroke-width="1"
         id="path30" />
      <path
         d="m 193.4,191.5 2.8,-3 1.5,4.3 0.7,-0.8 0.9,-0.2 h 0.6 l 1.4,0.8 0.7,0.6 0.9,1.3 0.2,1.3 -0.4,1.1 -0.8,0.9 -1.1,0.5 -0.6,-0.1 -1,-0.4 m 1.1,-13.8 -2.5,2.8 3,3.3 -0.1,-0.6 0.4,-1.2 0.8,-0.8 1.1,-0.5 1.2,0.1 1.4,0.7 0.7,0.7 0.9,1.3 0.2,1.2 -0.4,1.2 -0.7,0.8 -1.2,0.5 h -0.6 l -1,-0.4"
         stroke="#000000"
         stroke-width="1"
         id="path31" />
      <path
         d="m 157.3,227.1 2,7.7 4.1,-3.8 m -6.1,-3.9 7.1,7.7 m -3.3,-7.9 0.2,-0.9 -0.2,-1.8 7.2,7.7"
         stroke="#000000"
         stroke-width="1"
         id="path32" />
      <path
         d="m 150.9,215.2 -7.7,-1.7 1.5,5.4 m 6.2,-3.7 -10.1,2.9 m 8.6,1.4 0.5,-0.1 1.1,0.1 0.6,0.2 0.6,0.6 0.4,1.4 -0.2,0.9 -0.4,0.5 -0.9,0.6 -0.9,0.3 -1.1,-0.1 -1.6,-0.3 -5.9,-2.3 1.4,5.1"
         stroke="#000000"
         stroke-width="1"
         id="path33" />
      <path
         d="m 160.51375,129.01282 -4.2,-6.8 -2.8,4.8 m 7,2 -9.1,-5.4 m 3.8,11.1 1.1,0.2 1,-0.8 0.4,-0.6 0.1,-1.2 -0.9,-1.4 -2,-1.6 -2.1,-1.3 -1.9,-0.7 -1.3,0.1 -1,0.7 -0.2,0.4 -0.1,1.2 0.5,1.1 1.1,1.1 0.4,0.3 1.5,0.4 1.2,-0.1 1,-0.7 0.2,-0.3 0.2,-1.3 -0.5,-1.1 -1.1,-1.1"
         stroke="#000000"
         stroke-width="1"
         id="path34" />
      <path
         d="m 169.66851,112.14312 -0.6,0.6 -0.8,1.7 -2.2,-10.2 m -4.4,8.4 0.1,-1.5 0.5,-1.1 1,-0.8 0.4,-0.1 1.2,0.3 0.9,0.8 0.7,1.4 0.1,0.5 v 1.5 l -0.6,1.2 -0.9,0.7 -0.4,0.1 -1.2,-0.3 -1,-0.8 -0.8,-1.9 -0.5,-2.4 -0.2,-2.5 0.4,-1.7 1,-0.7 0.8,-0.1 1.2,0.2 0.6,0.9"
         stroke="#000000"
         stroke-width="1"
         id="path35" />
      <path
         d="m 207.6,48.9 0.4,1 1.1,0.5 0.8,-0.1 1.1,-0.5 0.7,-1.5 0.3,-2.5 v -2.5 l -0.5,-2 -0.7,-1 -1.2,-0.4 h -0.4 l -1.1,0.5 -0.7,1 -0.3,1.5 v 0.5 l 0.4,1.5 0.8,1 1.1,0.5 0.4,-0.1 1.1,-0.5 0.7,-1 0.4,-1.5 m -9.8,7.3 3.5,-7 -5.6,0.1 m 2.1,6.9 -0.3,-10.4"
         stroke="#000000"
         stroke-width="1"
         id="path36" />
      <path
         d="m 193.4,64 0.6,4 -4.3,-1.6 0.2,1.1 -0.4,0.8 -0.4,0.5 -1.5,0.6 -1,0.1 -1.5,-0.1 -1.1,-0.6 -0.7,-1.1 -0.1,-1.1 0.3,-1.2 0.4,-0.4 1,-0.5"
         stroke="#000000"
         stroke-width="1"
         id="path37" />
      <path
         d="m 112,319.9 3.1,-2.1 -2.3,-3.9 v 0.6 l -0.6,1.1 -0.9,0.6 -1.3,0.3 -1.1,-0.4 -1.2,-1.1 -0.6,-0.8 -0.5,-1.4 v -1.3 l 0.7,-1 0.9,-0.7 1.2,-0.2 0.6,0.2 0.9,0.6 m -1.1,11.1 -3.3,2.3 -0.5,-4.5 -0.9,0.6 h -0.9 l -0.6,-0.2 -1.2,-1 -0.5,-0.8 -0.6,-1.5 0.1,-1.2 0.6,-1.1 0.9,-0.6 1.2,-0.2 0.6,0.2 0.9,0.6"
         stroke="#000000"
         stroke-width="1"
         id="path38" />
      <path
         d="m 96,355.1 1,-0.3 0.6,-1.1 v -0.8 l -0.4,-1.1 -1.4,-0.9 -2.5,-0.5 -2.5,-0.2 -2,0.3 -1.1,0.6 -0.5,1.1 -0.1,0.4 0.5,1.2 0.9,0.8 1.5,0.4 0.5,0.1 1.5,-0.3 1,-0.7 0.6,-1.1 v -0.3 l -0.4,-1.2 -0.9,-0.8 -1.5,-0.5 m 6.5,7.3 -0.3,4.1 -3.8,-2.6 -0.1,1.2 -0.5,0.7 -0.5,0.3 -1.6,0.3 -1,-0.1 -1.4,-0.4 -1,-0.9 -0.4,-1.1 0.1,-1.1 0.5,-1.1 0.6,-0.4 1,-0.3"
         stroke="#000000"
         stroke-width="1"
         id="path39" />
      <path
         d="m 104.5,404.7 0.6,-0.9 -0.1,-1.2 -0.4,-0.6 -1,-0.7 -1.7,0.1 -2.3,1 -2.2,1.3 -1.5,1.4 -0.4,1.1 0.1,1.3 0.2,0.3 1,0.7 1.3,0.1 1.5,-0.5 0.4,-0.2 1.1,-1.1 0.4,-1.2 -0.1,-1.2 -0.2,-0.3 -1,-0.7 -1.3,-0.2 -1.5,0.5 m 7.1,2.7 0.8,0.3 1.9,0.2 -9,5.5"
         stroke="#000000"
         stroke-width="1"
         id="path40" />
      <path
         d="m 138,404.9 3.8,-1.7 -0.4,4.6 1,-0.5 0.9,0.1 0.6,0.3 1,1.2 0.4,0.9 0.3,1.5 -0.2,1.2 -0.9,1 -1,0.4 -1.2,0.1 -0.6,-0.3 -0.7,-0.8 m 3.1,-8.2 0.4,-0.8 0.4,-1.8 4.5,9.5"
         stroke="#000000"
         stroke-width="1"
         id="path41" />
      <path
         d="m 134.4,473 0.3,0.4 0.3,1 v 0.6 l -0.3,0.9 -1.2,0.9 h -0.9 l -0.6,-0.1 -0.9,-0.6 -0.6,-0.8 -0.3,-1 -0.4,-1.7 v -6.2 l -4.2,3.1 m 3.6,10.5 0.6,-1.1 -0.3,-1.6 -1.2,-2.3 -0.9,-1.2 -1.8,-1.7 -1.5,-0.8 -1.2,0.3 -0.6,0.5 -0.6,1 0.3,1.7 1.2,2.2 0.9,1.2 1.8,1.8 1.5,0.7 1.2,-0.3 0.5,-0.3"
         stroke="#000000"
         stroke-width="1"
         id="path42" />
      <path
         d="m 232.7,590.6 h 0.5 l 1,0.3 0.5,0.3 0.6,0.7 0.2,1.5 -0.5,0.8 -0.4,0.4 -1,0.5 -1,0.1 -1,-0.3 -1.6,-0.6 -5.3,-3.3 0.5,5.3 m 10.7,2 -0.6,-1.1 -1,-0.2 -1,0.1 -1,0.4 -0.4,0.8 -0.3,1.6 -0.4,1.1 -1,0.9 -0.9,0.4 -1.5,0.2 -1,-0.3 -0.6,-0.3 -0.6,-1.1 -0.1,-1.5 0.4,-1.2 0.4,-0.4 1,-0.5 1.5,-0.1 1,0.3 1.1,0.6 0.6,1.1 0.6,1.5 0.6,0.7 1,0.2 1,-0.1 1,-0.4 0.4,-1.2 -0.2,-1.7"
         stroke="#000000"
         stroke-width="1"
         id="path43" />
      <path
         d="m 248.8,603.1 -0.2,-0.4 -0.1,-1.1 0.1,-0.6 0.5,-0.8 1.4,-0.6 0.9,0.1 0.5,0.3 0.8,0.8 0.4,0.9 0.1,1.1 -0.1,1.7 -1.4,6.1 4.8,-2.2 m 2.7,-8.9 0.2,1.5 -0.2,1.3 -0.9,0.9 -0.3,0.1 h -1.2 l -1.1,-0.6 -1,-1.2 -0.2,-0.4 -0.3,-1.5 0.3,-1.3 0.8,-0.9 0.4,-0.1 1.2,-0.1 1.1,0.6 1.2,1.7 1,2.3 0.7,2.4 -0.1,1.7 -0.8,0.9 -0.7,0.3 h -1.2 l -0.8,-0.7"
         stroke="#000000"
         stroke-width="1"
         id="path44" />
      <path
         d="m 84.2,522.9 -2.8,3.1 -1.5,-4.4 -0.7,0.9 -0.9,0.2 -0.6,-0.1 -1.4,-0.7 -0.7,-0.7 -0.9,-1.3 -0.2,-1.2 0.4,-1.2 0.7,-0.8 1.2,-0.5 0.6,0.1 1,0.4 m 0.3,8.8 -0.2,0.9 0.4,1.8 -7.8,-7"
         stroke="#000000"
         stroke-width="1"
         id="path45" />
      <path
         d="m 71.1,551.7 0.2,-0.5 0.8,-0.7 0.5,-0.4 0.9,-0.1 1.4,0.5 0.5,0.8 0.1,0.6 v 1.1 l -0.4,0.9 -0.7,0.8 -1.3,1.1 -5.4,3.2 4.9,2 m 9.2,-7.6 -3.4,-1.4 -2.1,4 0.5,-0.3 1.3,-0.1 1,0.5 0.9,0.9 0.3,1.2 -0.3,1.5 -0.3,0.9 -1,1.3 -1,0.6 h -1.3 l -1,-0.4 -0.9,-0.9 -0.1,-0.6 v -1.1"
         stroke="#000000"
         stroke-width="1"
         id="path46" />
      <path
         d="m 154,557.6 -0.4,-0.8 -1.3,-1.4 10.4,1.5 m -10.5,-3.4 0.6,-4.1 3.6,2.8 0.2,-1.1 0.6,-0.7 0.5,-0.3 1.5,-0.2 1,0.2 1.5,0.5 0.9,0.9 0.3,1.2 -0.1,1.1 -0.7,1.1 -0.5,0.3 -1.1,0.2"
         stroke="#000000"
         stroke-width="1"
         id="path47" />
      <path
         d="m 129.3,570.9 v -0.5 l 0.6,-0.9 0.5,-0.4 0.8,-0.4 1.5,0.3 0.6,0.7 0.3,0.5 0.2,1.1 -0.2,1 -0.6,0.9 -1,1.3 -4.6,4.2 5.1,1 m 5,-9.7 -1.2,0.2 -0.5,0.9 -0.2,1 0.2,1.1 0.6,0.6 1.4,0.8 1,0.7 0.5,1.1 0.2,1.1 -0.3,1.4 -0.5,0.9 -0.5,0.5 -1.2,0.2 -1.5,-0.2 -1,-0.7 -0.2,-0.6 -0.2,-1.1 0.3,-1.4 0.5,-0.9 0.9,-0.9 1.2,-0.3 1.6,-0.2 0.8,-0.3 0.6,-0.9 0.2,-1 -0.2,-1.1 -1,-0.7 -1.7,-0.3"
         stroke="#000000"
         stroke-width="1"
         id="path48" />
      <path
         d="m 341.6,189.1 5.5,5.8 1.7,-5.4 m -7.2,-0.4 10,3.3 m -7.8,-9.9 5.4,5.7 1.8,-5.3 m -7.2,-0.4 9.9,3.2"
         stroke="#000000"
         stroke-width="1"
         id="path49" />
      <path
         d="m 335.9,149.5 7.7,-2.1 -3.9,-4.1 m -3.8,6.2 7.7,-7.2 m -11,3.5 1.1,0.5 1,-0.4 0.7,-0.7 0.5,-1 -0.1,-0.8 -0.7,-1.5 -0.4,-1.1 0.2,-1.3 0.5,-0.9 1.1,-1.1 1,-0.4 h 0.6 l 1.1,0.4 1.1,1.1 0.4,1.2 -0.1,0.6 -0.5,1 -1.1,1 -1,0.4 -1.2,0.1 -1.2,-0.4 -1.4,-0.8 -0.8,-0.2 -1,0.4 -0.8,0.7 -0.4,1 0.4,1.1 1.1,1.3"
         stroke="#000000"
         stroke-width="1"
         id="path50" />
      <path
         d="m 287.5,121.6 1.6,3.8 -4.6,-0.6 0.4,1 -0.2,0.9 -0.3,0.6 -1.3,0.9 -0.9,0.3 -1.5,0.2 -1.2,-0.3 -0.9,-0.9 -0.4,-1 v -1.2 l 0.4,-0.6 0.8,-0.7 m 10.9,4.6 -0.9,-0.9 -1,0.1 -1,0.3 -0.8,0.8 -0.1,0.8 v 1.6 1.2 l -0.7,1.1 -0.7,0.7 -1.4,0.6 h -1.1 l -0.6,-0.2 -0.9,-0.8 -0.5,-1.4 v -1.3 l 0.3,-0.5 0.8,-0.7 1.4,-0.6 h 1.1 l 1.2,0.4 0.9,0.8 1,1.2 0.7,0.5 h 1.1 l 0.9,-0.3 0.8,-0.8 0.1,-1.2 -0.7,-1.6"
         stroke="#000000"
         stroke-width="1"
         id="path51" />
      <path
         d="m 282.3,56.1 -0.8,4.1 -3.5,-3 -0.2,1.1 -0.6,0.6 -0.6,0.3 h -1.5 l -1,-0.2 -1.4,-0.7 -0.8,-0.9 -0.3,-1.2 0.2,-1.1 0.7,-1 0.6,-0.3 1.1,-0.1 m 5.9,13 -9.5,-5.9 m 10.6,0.7 -1.1,5.2"
         stroke="#000000"
         stroke-width="1"
         id="path52" />
      <path
         d="m 309,52.8 5.9,-5.3 -5.3,-1.9 m -0.6,7.2 3.5,-9.9 m -11.2,7.1 7.1,-8.6 m -2.1,10.4 -5,-1.8"
         stroke="#000000"
         stroke-width="1"
         id="path53" />
      <path
         d="m 321,81.2 5.2,6 2,-5.3 m -7.2,-0.7 9.8,3.8 m -3.6,-9.9 1.3,0.9 0.7,1 v 1.2 l -0.1,0.4 -0.9,0.9 -1.2,0.3 -1.5,-0.2 -0.5,-0.2 -1.3,-0.9 -0.6,-1 -0.1,-1.3 0.2,-0.3 0.8,-0.9 1.2,-0.3 2,0.4 2.4,0.9 2.2,1.2 1.1,1.3 v 1.2 l -0.2,0.7 -0.9,0.9 -1.1,-0.1"
         stroke="#000000"
         stroke-width="1"
         id="path54" />
    </g>
    <path
       d="m 272.08415,330.72312 1.1,-0.8 1.7,-2.2 v 15.7"
       id="titre_1"
       stroke="#4b0082" />
  </g>
  <g
     id="page_002">
    <path
       d="m 786,159.6 -13.3,27.2 -28.6,21.2 -46.4,-2 12.6,33.4 45.4,6.3 52.7,5.5 38.3,-29.8 40.6,57.3 -27.9,-64.4 139.1,16.8 3.5,43.1 18.5,66.4 -48.4,19.2 -40.1,7.5 -37.8,57.9 -3.7,51.4 -78.1,-21.8 -29.8,22 -7.7,63.4 14.1,-62.3 33.2,-16.4 69.4,42 2.2,69.7 -47.2,-51.3 -48.8,92.3 -55.1,-35.1 46.7,45.7 92,-49.4 5.1,69.4 -73.4,13.3 -76,49.9 -53.9,-75.1 -47.3,-21.2 -39.8,-48.3 35.8,-57.6 40,26.1 37.2,-68.6 -52.9,57.4 -30.5,-36.8 -47.4,-60.9 29.4,-7.2 1.8,-19.4 50.4,-39.5 56.9,47.2 45.1,-19 53,-5.9 37.6,-34.4 -42,28.8 -53.1,-5.2 23.8,-52.4 -27.4,50.6 -48.9,-0.5 -35.1,-65 -58.2,26.6 -30.9,-4.3 22.6,-55.4 -40.2,-35.1 2.7,-48 138.4,-22.4 18.7,-44.8 46.5,-25.4 25.4,-38.1 30.9,-17.9 32.3,33.5 35.6,1.6 21.4,-21.5 32.3,-20.4 74.2,52.8 -20.2,18.3 26.6,5.9 -50.2,50.9 -44.8,-5.4 18.3,41.3 -71.1,7.7 -63.75,-64.8 z m -165.7,-46.4 2,40.1 -35.4,-15 -11.6,-36.7 22.7,-26 27.9,-4.4 22,-13.3 53.3,1 62,-5.5 -8.1,27 -55,14.9 -33.1,46.4 -33.3,9.4 z m 341.4,351.5 17,-9.6 29.8,-5.5 -7.4,22 1,40.9 1.7,35.3 -2.1,35.3 -40.2,-7.1 -0.8,-32.7 -25.9,-19.9 12.2,-33.7 -34.6,-9.2 18.2,-14.5 z"
       id="coupes_002"
       stroke="#ff0000"
       stroke-width="1.27"
       sodipodi:nodetypes="ccccccccccccccccccccccccccccccccccccccccccccccccccccccccccccccccccccccccccccccccccccccccccccccccccccccccc" />
    <path
       d="m 789,477.9 57.6,44 -71.7,18.3 22.9,74 m 24.4,-152.7 24.4,60.4 m 43.9,-45.3 -75.6,-97.4 -2.5,75.6 -50.5,-69.7 20.7,91.7 -73.5,-13.5 7.7,-59.2 -109.1,11.7 18,68.1 83.4,-20.6 65.8,76.9 -32.2,38.9 -33.6,-115.8 52.8,-78.2 m 53,-5.9 79.3,46 -41.7,-80.4 -71.3,-28.8 29.3,57.6 m -127.3,259.3 -11.3,-101 m 180.6,-187.1 34.8,-66.1 84.8,81.1 m -119.6,-15 79.5,22.5 -44.7,-88.6 -78.9,-27.5 z m -147.6,21.3 50.8,-120.4 m -152.4,22.3 107,-28.6 -40.5,61.7 85.9,-55.4 25.5,70.3 27.2,-64.8 m -196.8,76.5 -8.3,-59.7 94.4,-62 -134.6,26.9 141.1,-70.4 39.9,45.5 m -39.9,-45.5 68.5,24.3 -49.8,-69.1 63.1,41.9 m -16.6,-67.3 47,44 m -21.6,-82.1 47.3,75.1 -16.4,-93 m 152,121.1 -62.7,-107.5 86.3,50.7 -23.6,56.8 -84.1,-86 39.3,80.6 -52.8,49 -38,-71.7 L 932.9,152 858,69.8 m 89.3,-40.3 54,71.1 M 813.1,658.1 789.4,624.8 737.1,708 m 149.4,-63.2 -97.1,-20 -106.2,8.1 59.5,-53.8 -70.8,-47.2 -36,79.8 -4,-105.9 m 227.5,-291.5 142.6,59.9 -114.7,4.5 133.2,61.9 m -412.8,75.2 52.2,-58.9 m 95.2,-276.5 -53.9,-21.5 -1.1,36.4 -79.8,17.9 5.6,-42 m 7.8,79.9 66.4,-55.8 -52.2,-37.4 -27.6,55.3 -33.4,25.1 11.1,-62.7 m 404.1,436.9 -55.1,-22.8 14.7,-25 40.4,47.8 -41.4,30.8 L 947,489.7 930.6,466 m 48.1,-10.9 22.4,16.5 m -40.4,71.7 43.1,4.5 -42.3,28.2"
       id="plisM_002"
       stroke="#a52a2a"
       stroke-dasharray="4"
       sodipodi:nodetypes="ccccccccccccccccccccccccccccccccccccccccccccccccccccccccccccccccccccccccccccccccccccccccccccccccccccccccccccc" />
    <path
       d="m 891.6,503.5 -45,18.4 m -220.9,-38 91.1,-79.8 M 781.2,316 704.9,366.1 M 669.8,301.1 603.3,268 M 704.2,162.5 697.7,206 M 769.4,92.3 786,159.6 m 8.8,-105.4 21.6,82.1 25.7,-7 L 858,69.8 M 620.3,113.2 598,75.6 m 363.7,389.1 39.4,6.9"
       id="plisV_002"
       stroke="#008000"
       stroke-dasharray="4, 1, 1, 1"
       stroke-width="1.27"
       sodipodi:nodetypes="cccccccccccccccccccc" />
    <path
       d="m 867.1,510.7 4,4 m 0,-4 -4,4 M 669.2,442 l 4,4 m 0,-4 -4,4 m 71.9,-106.9 4,4 m 0,-4 -4,4 m -106.6,-60.6 4,4 m 0,-4 -4,4 m 64.4,-104.2 4,4 m 0,-4 -4,4 m 76.8,-62.4 4,4 m 0,-4 -4,4 m 27.9,-34.7 4,4 m 0,-4 -4,4 m 23.6,33.6 4,4 m 0,-4 -4,4 m 20.9,-37.3 4,4 m 0,-4 -4,4 m -241,-9.1 4,4 m 0,-4 -4,4 m 372.3,369.7 4,4 m 0,-4 -4,4"
       id="marqueV_002"
       stroke="#008000" />
    <g
       id="nums_002">
      <path
         d="m 795.7,510.3 0.9,-3.6 -4.3,-1.4 0.4,0.5 0.2,1.2 -0.2,1.1 -0.8,1 -1.1,0.5 h -1.6 l -0.9,-0.2 -1.4,-0.7 -0.8,-0.9 -0.3,-1.2 0.3,-1.1 0.7,-1 0.6,-0.3 1,-0.1 m 4.5,12.2 1,-0.2 0.7,-0.9 0.2,-0.8 -0.2,-1.2 -1.3,-1 -2.4,-1 -2.4,-0.5 -2.1,-0.1 -1.1,0.5 -0.7,1 -0.1,0.4 0.2,1.2 0.8,0.9 1.4,0.7 0.5,0.1 h 1.6 l 1.1,-0.5 0.7,-1 0.1,-0.4 -0.2,-1.2 -0.8,-0.9 -1.4,-0.7"
         stroke="#000000"
         stroke-width="1"
         id="path55" />
      <path
         d="m 812.5,479.9 0.8,0.8 1.2,-0.1 0.7,-0.3 0.8,-1 v -1.6 l -0.8,-2.4 -1.1,-2.3 -1.2,-1.6 -1.1,-0.6 -1.2,0.1 -0.4,0.1 -0.8,1 -0.2,1.2 0.3,1.5 0.3,0.5 1,1.1 1.1,0.6 h 1.2 l 0.3,-0.2 0.8,-0.9 0.3,-1.3 -0.4,-1.5 m -4,7 0.2,0.5 0.1,1 -0.1,0.6 -0.4,0.8 -1.4,0.7 -0.9,-0.1 -0.5,-0.3 -0.8,-0.8 -0.5,-0.9 -0.1,-1 0.1,-1.7 1.1,-6.1 -4.7,2.3"
         stroke="#000000"
         stroke-width="1"
         id="path56" />
      <path
         d="m 851.9,493.8 -0.2,1 0.7,1 0.6,0.4 1.2,0.2 1.5,-0.9 1.6,-1.9 1.3,-2.2 0.7,-1.9 -0.1,-1.2 -0.7,-1 -0.4,-0.2 -1.2,-0.2 -1.1,0.5 -1.1,1.1 -0.3,0.4 -0.5,1.5 0.2,1.2 0.7,1 0.3,0.2 1.2,0.2 1.2,-0.5 1.1,-1.1 m -10.8,1.7 1.3,0.2 1.4,-0.9 1.6,-2 0.8,-1.3 0.9,-2.3 0.2,-1.7 -0.7,-1 -0.7,-0.4 -1.2,-0.1 -1.4,0.9 -1.6,1.9 -0.8,1.3 -1,2.3 -0.1,1.7 0.7,1 0.5,0.3"
         stroke="#000000"
         stroke-width="1"
         id="path57" />
      <path
         d="m 875.06879,537.02198 0.4,-0.4 1,-0.4 h 0.6 l 0.9,0.2 1,1.1 0.1,0.9 -0.1,0.6 -0.5,1 -0.7,0.6 -1,0.4 -1.6,0.5 -6.2,0.6 3.5,3.9 m 12,-2.5 -10.3,4.3 m 6.7,-8.2 3.6,3.9"
         stroke="#000000"
         stroke-width="1"
         id="path58" />
      <path
         d="m 882.31099,537.49008 h -0.5 l -1,-0.4 -0.5,-0.3 -0.5,-0.8 -0.1,-1.5 0.5,-0.7 0.5,-0.4 1,-0.4 1,-0.1 1,0.4 1.5,0.7 5.1,3.6 -0.2,-5.3 m -10.6,-5.3 0.1,3.8 4.5,0.2 -0.5,-0.4 -0.6,-1.1 v -1.1 l 0.5,-1.1 1,-0.8 1.4,-0.4 1,-0.1 1.6,0.4 1,0.7 0.5,1.1 v 1.1 l -0.4,1.2 -0.5,0.3 -1,0.5"
         stroke="#000000"
         stroke-width="1"
         id="path59" />
      <path
         d="m 809.5,568 -0.4,-0.3 -0.7,-0.8 -0.3,-0.5 -0.1,-0.9 0.7,-1.4 0.8,-0.4 0.6,-0.1 1.1,0.2 0.9,0.4 0.7,0.8 1,1.4 2.6,5.6 2.5,-4.6 m -5.3,-9.2 -1.1,-0.2 -0.9,0.8 -0.4,0.7 -0.1,1.2 1,1.3 2,1.5 2.3,1.2 1.9,0.6 1.2,-0.2 1,-0.7 0.2,-0.4 0.1,-1.2 -0.6,-1.1 -1.1,-1.1 -0.5,-0.2 -1.5,-0.4 -1.2,0.2 -1,0.8 -0.1,0.3 -0.1,1.2 0.5,1.2 1.2,1"
         stroke="#000000"
         stroke-width="1"
         id="path60" />
      <path
         d="m 776.2,584.1 -3.2,-2 -2.7,3.6 0.6,-0.2 1.2,0.2 0.9,0.6 0.7,1 0.1,1.3 -0.5,1.4 -0.5,0.9 -1.1,1 -1.2,0.5 -1.2,-0.2 -1,-0.6 -0.6,-1 -0.1,-0.7 0.2,-1 m 14.3,-1 -8.8,6.8 m 4.4,-9.6 4.4,2.8"
         stroke="#000000"
         stroke-width="1"
         id="path61" />
      <path
         d="m 764.9,508.5 -0.5,3.8 4.5,0.9 -0.5,-0.5 -0.4,-1.1 0.2,-1.2 0.6,-1 1.1,-0.6 1.5,-0.2 1,0.1 1.5,0.6 0.9,0.8 0.3,1.2 -0.1,1.1 -0.6,1.1 -0.6,0.3 -1,0.2 m -5.6,-11.7 -1.1,0.3 -0.6,1 -0.1,0.8 0.4,1.2 1.4,0.9 2.4,0.7 2.5,0.3 2,-0.2 1.1,-0.6 0.6,-1.1 0.1,-0.3 -0.4,-1.2 -0.9,-0.9 -1.4,-0.5 -0.5,-0.1 -1.6,0.2 -1.1,0.6 -0.6,1.1 v 0.4 l 0.3,1.1 0.9,0.9 1.5,0.6"
         stroke="#000000"
         stroke-width="1"
         id="path62" />
      <path
         d="m 739.20568,408.63298 3.4,-1.5 -1.4,-4.3 -0.1,0.6 -0.9,0.9 -1,0.4 h -1.2 l -1.1,-0.6 -1,-1.2 -0.3,-1 -0.3,-1.5 0.3,-1.2 0.9,-0.9 1,-0.4 h 1.2 l 0.6,0.3 0.7,0.8 m -6.2,11.9 0.7,-7.9 -5.2,2.2 m 4.5,5.7 -4.1,-9.7"
         stroke="#000000"
         stroke-width="1"
         id="path63" />
      <path
         d="m 788.9,456.9 -0.9,-0.6 -1.2,0.3 -0.6,0.4 -0.7,1.1 0.3,1.7 1.2,2.2 1.5,2 1.5,1.4 1.2,0.4 1.2,-0.3 0.3,-0.2 0.6,-1.1 v -1.3 l -0.6,-1.4 -0.3,-0.4 -1.2,-1 -1.2,-0.3 -1.2,0.2 -0.3,0.3 -0.6,1 v 1.3 l 0.6,1.4 m 2.7,-7.6 -0.3,-0.4 -0.3,-1 v -0.6 l 0.3,-0.9 1.2,-0.9 h 0.9 l 0.6,0.2 0.9,0.5 0.6,0.8 0.3,1.1 0.3,1.6 v 6.3 l 4.2,-3.2"
         stroke="#000000"
         stroke-width="1"
         id="path64" />
      <path
         d="m 791.7,395.6 3.7,-0.4 -0.1,-4.5 -0.4,0.5 -1,0.6 -1.1,0.2 -1.2,-0.4 -0.9,-0.9 -0.5,-1.5 -0.1,-1 0.2,-1.5 0.6,-1.1 1.1,-0.6 1.1,-0.1 1.2,0.4 0.4,0.4 0.5,1 m -7.3,9.3 1,-0.6 0.3,-1 -0.1,-1 -0.5,-1 -0.8,-0.4 -1.5,-0.3 -1.2,-0.4 -0.9,-0.9 -0.5,-1 -0.1,-1.4 0.2,-1.1 0.4,-0.5 1,-0.6 1.5,-0.2 1.2,0.4 0.4,0.4 0.5,1 0.2,1.5 -0.3,1 -0.6,1.1 -1.1,0.6 -1.4,0.7 -0.7,0.5 -0.3,1.1 0.1,1 0.5,0.9 1.2,0.4 1.7,-0.2"
         stroke="#000000"
         stroke-width="1"
         id="path65" />
      <path
         d="m 853.2,453.4 -0.1,-1 -0.9,-0.8 -0.7,-0.2 -1.3,0.2 -1.1,1.2 -1,2.3 -0.7,2.4 -0.2,2.1 0.5,1.1 0.9,0.8 0.4,0.1 1.2,-0.2 1,-0.7 0.8,-1.4 0.1,-0.5 v -1.5 l -0.4,-1.2 -1,-0.7 -0.3,-0.1 -1.2,0.1 -1,0.8 -0.8,1.3 m 9.9,-4.5 -1.2,0.2 -1.2,1.3 -1,2.3 -0.4,1.4 -0.3,2.5 0.3,1.7 1,0.7 0.7,0.2 1.2,-0.1 1.1,-1.3 1.1,-2.3 0.4,-1.4 0.3,-2.5 -0.3,-1.7 -1,-0.8 -0.5,-0.1"
         stroke="#000000"
         stroke-width="1"
         id="path66" />
      <path
         d="m 880,451.4 -1,0.3 -0.6,1 v 0.8 l 0.4,1.1 1.4,0.9 2.5,0.6 2.5,0.1 2,-0.2 1.1,-0.7 0.5,-1 0.1,-0.4 -0.5,-1.2 -0.9,-0.8 -1.5,-0.5 h -0.5 l -1.5,0.2 -1,0.7 -0.6,1.1 v 0.4 l 0.4,1.1 0.9,0.9 1.5,0.4 m -4.2,-6.2 -0.5,-0.8 -1.4,-1.2 10.5,0.7"
         stroke="#000000"
         stroke-width="1"
         id="path67" />
      <path
         d="m 844.3,370.9 2.8,-2.5 -2.8,-3.6 0.1,0.7 -0.5,1.1 -0.9,0.7 -1.1,0.4 -1.3,-0.2 -1.2,-0.8 -0.7,-0.8 -0.8,-1.3 -0.1,-1.3 0.5,-1.1 0.8,-0.8 1.2,-0.4 0.6,0.1 1,0.5 m -5,11.4 -0.7,-1.4 -0.2,-1.2 0.5,-1.2 0.3,-0.2 1.2,-0.4 1.2,0.2 1.3,0.9 0.3,0.3 0.8,1.4 0.1,1.2 -0.5,1.2 -0.3,0.2 -1.1,0.4 -1.3,-0.2 -1.6,-1.2 -1.7,-1.9 -1.4,-2.1 -0.5,-1.6 0.5,-1.1 0.6,-0.5 1.2,-0.4 0.9,0.5"
         stroke="#000000"
         stroke-width="1"
         id="path68" />
      <path
         d="m 902,390.8 -1,-0.2 -1,0.7 -0.4,0.6 -0.2,1.2 0.8,1.5 1.9,1.6 2.1,1.4 1.9,0.8 1.2,-0.1 1,-0.7 0.2,-0.3 0.2,-1.2 -0.4,-1.2 -1,-1.1 -0.4,-0.3 -1.5,-0.5 -1.3,0.1 -1,0.7 -0.2,0.3 -0.2,1.2 0.4,1.2 1.1,1.1 m -2.2,-9.5 2.3,-3.4 2.1,4 0.6,-0.9 0.8,-0.4 h 0.7 l 1.4,0.5 0.9,0.6 1,1.1 0.4,1.2 -0.1,1.2 -0.7,0.9 -1,0.7 h -0.6 l -1.1,-0.2"
         stroke="#000000"
         stroke-width="1"
         id="path69" />
      <path
         d="m 703.4,502.6 1.8,-3.3 -3.8,-2.5 0.3,0.6 -0.1,1.2 -0.6,1 -0.9,0.8 -1.3,0.1 -1.5,-0.3 -0.8,-0.5 -1.2,-1.1 -0.5,-1.1 0.1,-1.2 0.5,-1 1,-0.8 0.6,-0.1 1.1,0.2 m 3.3,11.7 0.1,-1.2 -1,-1.4 -2,-1.5 -1.3,-0.8 -2.4,-0.8 -1.6,-0.1 -1,0.8 -0.4,0.6 -0.1,1.3 1,1.3 2,1.6 1.3,0.7 2.4,0.8 1.7,0.1 1,-0.8 0.2,-0.5"
         stroke="#000000"
         stroke-width="1"
         id="path70" />
      <path
         d="m 662.6,608.5 -6.3,4.8 5.1,2.3 m 1.2,-7.1 -4.3,9.5 m 11.1,-6.4 -3.4,-1.5 -2.2,4 0.5,-0.3 h 1.3 l 1,0.4 0.8,0.9 0.3,1.3 -0.3,1.5 -0.4,0.9 -1,1.2 -1,0.6 h -1.3 l -1,-0.5 -0.8,-0.9 -0.2,-0.6 0.1,-1"
         stroke="#000000"
         stroke-width="1"
         id="path71" />
      <path
         d="m 757.7,613 2.7,2.7 3.4,-3 -0.6,0.1 -1.2,-0.4 -0.8,-0.8 -0.4,-1.2 0.1,-1.2 0.8,-1.3 0.7,-0.7 1.3,-0.9 1.3,-0.1 1.1,0.4 0.8,0.8 0.5,1.1 -0.1,0.6 -0.4,1 m -14.2,-2 10,-4.8 m -6.2,8.5 -3.8,-3.7"
         stroke="#000000"
         stroke-width="1"
         id="path72" />
      <path
         d="m 645.8,531.3 3.2,2.1 2.8,-3.6 -0.6,0.2 -1.3,-0.2 -0.9,-0.6 -0.7,-1 v -1.3 l 0.5,-1.4 0.5,-0.9 1.1,-1 1.2,-0.5 1.2,0.2 1,0.7 0.6,1 0.1,0.6 -0.2,1.1 m -8.7,1.6 h -0.9 l -1.8,0.7 5.8,-8.8"
         stroke="#000000"
         stroke-width="1"
         id="path73" />
      <path
         d="m 624.9,576.5 -7.8,1.5 3.5,4.4 m 4.3,-5.9 -8.1,6.7 m 11.1,-2.8 -1.1,-0.6 -1,0.4 -0.8,0.6 -0.5,0.9 0.1,0.9 0.6,1.5 0.3,1.2 -0.3,1.2 -0.5,0.9 -1.2,1 -1,0.3 h -0.6 l -1.1,-0.5 -1,-1.2 -0.3,-1.1 0.1,-0.7 0.6,-0.9 1.1,-0.9 1,-0.4 h 1.3 l 1.1,0.5 1.3,0.9 0.9,0.2 1,-0.3 0.8,-0.7 0.5,-0.9 -0.3,-1.2 -1.1,-1.3"
         stroke="#000000"
         stroke-width="1"
         id="path74" />
      <path
         d="m 627.3,539.4 -4,-6.8 -2.9,4.7 m 6.9,2.1 -8.9,-5.5 m 1.6,10.4 -1,-1.1 -0.5,-1.2 0.2,-1.2 0.2,-0.3 1,-0.7 1.2,-0.1 1.5,0.4 0.4,0.3 1.1,1.1 0.5,1.2 -0.2,1.2 -0.2,0.3 -1,0.7 -1.3,0.1 -1.9,-0.7 -2.1,-1.3 -1.9,-1.7 -0.9,-1.4 0.2,-1.2 0.4,-0.7 1,-0.7 1.1,0.2"
         stroke="#000000"
         stroke-width="1"
         id="path75" />
      <path
         d="m 671.3,484 -2.5,2.7 3,3.4 -0.1,-0.7 0.4,-1.1 0.8,-0.8 1.1,-0.5 1.2,0.1 1.4,0.7 0.7,0.7 0.9,1.3 0.2,1.2 -0.4,1.2 -0.7,0.8 -1.2,0.5 h -0.6 l -1,-0.5 m -0.4,-12.1 -0.3,1.2 0.5,1.5 1.6,2 1.1,1 2.1,1.4 1.6,0.5 1.2,-0.5 0.5,-0.5 0.4,-1.2 -0.6,-1.6 -1.6,-1.9 -1.1,-1.1 -2.1,-1.4 -1.6,-0.4 -1.1,0.4 -0.4,0.5"
         stroke="#000000"
         stroke-width="1"
         id="path76" />
      <path
         d="m 650.4,492.2 -2.4,-2.9 -3.7,2.6 h 0.6 l 1.1,0.5 0.7,0.9 0.4,1.2 -0.3,1.2 -0.9,1.2 -0.8,0.7 -1.4,0.6 -1.2,0.1 -1.1,-0.6 -0.8,-0.8 -0.3,-1.2 0.1,-0.6 0.6,-0.9 m 8.7,0.9 0.9,0.3 1.9,-0.1 -8.1,6.7"
         stroke="#000000"
         stroke-width="1"
         id="path77" />
      <path
         d="m 822.3,348.8 -3.1,2.2 2.2,3.9 v -0.6 l 0.7,-1.1 0.9,-0.6 1.2,-0.3 1.2,0.4 1.2,1.1 0.5,0.8 0.6,1.4 -0.1,1.3 -0.6,1 -0.9,0.7 -1.3,0.2 -0.6,-0.2 -0.8,-0.6 m 6.5,-10.5 0.5,1.4 v 1.3 l -0.7,1 -0.3,0.2 -1.2,0.3 -1.2,-0.4 -1.1,-1.1 -0.3,-0.4 -0.6,-1.4 0.1,-1.3 0.6,-1 0.3,-0.2 1.3,-0.3 1.1,0.4 1.5,1.5 1.4,2 1.1,2.3 0.2,1.7 -0.6,1 -0.6,0.4 -1.2,0.3 -0.9,-0.6"
         stroke="#000000"
         stroke-width="1"
         id="path78" />
      <path
         d="m 783.5,357.1 -3.7,-0.3 -0.8,4.4 0.4,-0.5 1.2,-0.3 1.1,0.1 1,0.6 0.7,1 0.2,1.6 -0.1,1 -0.5,1.4 -0.8,0.9 -1.2,0.4 -1.1,-0.1 -1.1,-0.6 -0.3,-0.5 -0.3,-1.1 m 9.1,-7.6 -1.2,0.4 -0.4,0.9 -0.1,1 0.2,1.1 0.7,0.5 1.5,0.7 1,0.6 0.7,1.1 0.3,1 -0.2,1.5 -0.4,1 -0.5,0.4 -1.1,0.4 -1.5,-0.1 -1.1,-0.7 -0.3,-0.5 -0.3,-1 0.1,-1.5 0.5,-1 0.9,-0.9 1.1,-0.4 1.6,-0.3 0.8,-0.5 0.4,-0.9 0.1,-1 -0.2,-1 -1.1,-0.7 -1.7,-0.1"
         stroke="#000000"
         stroke-width="1"
         id="path79" />
      <path
         d="m 782.5,346.3 1.6,-3.4 -4,-2.2 0.3,0.5 v 1.2 l -0.4,1.1 -1,0.8 -1.2,0.3 -1.5,-0.3 -0.9,-0.4 -1.2,-1 -0.6,-1.1 v -1.2 l 0.5,-1.1 0.9,-0.8 0.6,-0.1 1.1,0.1 m 3.2,13.4 1.5,-3.4 -3.9,-2.2 0.3,0.5 v 1.3 l -0.5,1 -0.9,0.8 -1.2,0.3 -1.5,-0.3 -1,-0.4 -1.2,-1 -0.6,-1.1 v -1.2 l 0.5,-1 0.9,-0.8 0.6,-0.2 1.1,0.1"
         stroke="#000000"
         stroke-width="1"
         id="path80" />
      <path
         d="m 783.5,262.5 4.4,-6.5 -5.6,-0.6 m 1.2,7.1 1.1,-10.4 m -6.4,9.8 1.2,-0.4 0.9,-1.4 0.6,-2.5 0.2,-1.5 -0.1,-2.5 -0.6,-1.5 -1.1,-0.7 h -0.7 l -1.2,0.3 -0.9,1.4 -0.7,2.5 -0.1,1.5 0.1,2.5 0.6,1.6 1.1,0.6 0.5,0.1"
         stroke="#000000"
         stroke-width="1"
         id="path81" />
      <path
         d="m 696.8,322.2 2,3.6 h -4.6 l 0.5,1 v 0.9 l -0.3,0.5 -1.2,1.1 -0.8,0.4 -1.5,0.4 -1.3,-0.2 -0.9,-0.7 -0.6,-1 -0.1,-1.2 0.3,-0.6 0.7,-0.8 m 9.8,7.6 -1.5,0.4 -1.3,-0.2 -0.9,-0.8 -0.2,-0.3 -0.1,-1.2 0.5,-1.2 1.2,-1 0.4,-0.3 1.5,-0.3 1.2,0.2 1,0.7 0.2,0.3 0.1,1.3 -0.6,1.1 -1.5,1.3 -2.2,1.2 -2.4,0.8 -1.7,0.1 -1,-0.8 -0.3,-0.6 -0.1,-1.3 0.7,-0.8"
         stroke="#000000"
         stroke-width="1"
         id="path82" />
      <path
         d="m 751.32944,341.56134 -1.8,3.3 3.8,2.5 -0.3,-0.6 0.1,-1.2 0.6,-1 0.9,-0.8 1.3,-0.2 1.5,0.4 0.8,0.5 1.2,1 0.5,1.2 -0.1,1.2 -0.5,1 -1,0.7 -0.6,0.1 -1.1,-0.1 m -2.3,-13.6 -1.7,3.3 3.7,2.4 -0.2,-0.5 0.1,-1.3 0.5,-1 1,-0.7 1.2,-0.2 1.5,0.4 0.9,0.5 1.1,1 0.6,1.1 -0.1,1.3 -0.6,1 -0.9,0.7 -0.7,0.1 -1,-0.1"
         stroke="#000000"
         stroke-width="1"
         id="path83" />
      <path
         d="m 734.50992,352.4578 -3.7,-0.1 -0.4,4.5 0.4,-0.5 1.1,-0.4 h 1.1 l 1.1,0.5 0.8,1 0.3,1.5 v 1 l -0.4,1.5 -0.7,1 -1.2,0.5 h -1.1 l -1.1,-0.6 -0.4,-0.5 -0.3,-1 m 10.4,-8.5 -3.8,7 5.6,0.1 m -1.8,-7.1 -0.1,10.5"
         stroke="#000000"
         stroke-width="1"
         id="path84" />
      <path
         d="m 727.93405,255.30461 5.1,-9.9 m 0.1,10.6 -5.2,-0.7 m -3.4,-0.5 1.2,-0.3 0.9,-1.4 0.7,-2.4 0.2,-1.5 v -2.5 l -0.5,-1.6 -1.1,-0.7 -0.7,-0.1 -1.2,0.4 -0.9,1.3 -0.8,2.5 -0.2,1.4 0.1,2.6 0.5,1.6 1,0.6 0.6,0.1"
         stroke="#000000"
         stroke-width="1"
         id="path85" />
      <path
         d="m 693.1,228.5 -0.8,0.7 -0.1,1.2 0.3,0.7 0.8,0.9 1.7,0.1 2.5,-0.5 2.3,-0.9 1.7,-1 0.7,-1.1 0.1,-1.2 -0.2,-0.4 -0.8,-0.8 -1.2,-0.4 -1.6,0.2 -0.4,0.2 -1.3,0.8 -0.7,1.1 v 1.2 l 0.1,0.4 0.9,0.9 1.2,0.3 1.5,-0.2 m -10.3,-7.3 1.4,3.5 4.3,-1.3 -0.6,-0.2 -0.9,-0.8 -0.4,-1.1 0.1,-1.2 0.7,-1.1 1.2,-0.8 1,-0.4 1.5,-0.2 1.2,0.4 0.9,0.8 0.4,1.1 -0.1,1.2 -0.3,0.5 -0.8,0.8"
         stroke="#000000"
         stroke-width="1"
         id="path86" />
      <path
         d="m 633.2,302.7 -3.4,1.5 1.6,4.3 0.1,-0.7 0.8,-0.9 1,-0.4 1.3,-0.1 1.1,0.6 0.9,1.3 0.4,0.9 0.3,1.5 -0.2,1.2 -0.9,0.9 -1,0.5 H 634 l -0.6,-0.3 -0.7,-0.7 m 3.9,-8.4 -0.2,-0.5 -0.1,-1.1 0.2,-0.6 0.4,-0.7 1.4,-0.7 0.9,0.2 0.5,0.3 0.8,0.7 0.4,0.9 0.1,1.1 -0.1,1.7 -1.3,6.1 4.8,-2.2"
         stroke="#000000"
         stroke-width="1"
         id="path87" />
      <path
         d="m 593.3,241.1 -2.8,-2.5 -3.2,3.1 0.6,-0.1 1.2,0.4 0.8,0.7 0.5,1.1 -0.1,1.3 -0.7,1.3 -0.6,0.8 -1.3,0.9 -1.2,0.2 -1.2,-0.3 -0.8,-0.8 -0.6,-1.1 0.1,-0.6 0.4,-1"
         stroke="#000000"
         stroke-width="1"
         id="path88" />
      <path
         d="m 578.5,206.8 -6.8,-4.1 -0.3,5.6 m 7.1,-1.5 -10.5,-0.6 m 8.4,8.1 1.1,-0.3 0.5,-1.1 0.1,-0.8 -0.5,-1.1 -1.4,-0.9 -2.5,-0.5 -2.5,-0.1 -2,0.2 -1,0.7 -0.6,1.1 v 0.4 l 0.4,1.2 1,0.8 1.4,0.4 0.5,0.1 1.6,-0.3 1,-0.7 0.6,-1.1 v -0.4 l -0.5,-1.1 -0.9,-0.9 -1.5,-0.4"
         stroke="#000000"
         stroke-width="1"
         id="path89" />
      <path
         d="m 638.6,187.1 2,-11 m 3.1,10.1 -5.1,0.9 m -5.1,0.9 2.6,-7.5 -5.6,0.9 m 3,6.6 -1.7,-10.4"
         stroke="#000000"
         stroke-width="1"
         id="path90" />
      <path
         d="m 591.9,313.6 v -0.5 l 0.6,-1 0.4,-0.4 0.8,-0.4 1.5,0.2 0.7,0.6 0.3,0.5 0.2,1.1 -0.1,1 -0.5,0.9 -1,1.4 -4.4,4.4 5.2,0.8 m 2.2,-8 0.8,-0.4 1.3,-1.3 -1.4,10.4"
         stroke="#000000"
         stroke-width="1"
         id="path91" />
      <path
         d="m 602.43582,300.30638 h 1.1 l 0.9,-0.8 0.3,-0.7 -0.1,-1.2 -1.1,-1.3 -2.1,-1.3 -2.4,-0.9 -2,-0.4 -1.2,0.3 -0.9,0.8 -0.1,0.4 v 1.2 l 0.7,1.1 1.2,0.9 0.5,0.2 1.5,0.2 1.2,-0.3 0.9,-0.9 0.2,-0.3 -0.1,-1.2 -0.6,-1.1 -1.3,-0.9 m 2.8,11.9 -5,-6.1 -2.2,5.2 m 7.2,0.9 -9.7,-4"
         stroke="#000000"
         stroke-width="1"
         id="path92" />
      <path
         d="m 836.3,245.1 0.9,0.5 1.2,-0.3 0.6,-0.4 0.5,-1.1 -0.3,-1.7 -1.2,-2.2 -1.6,-1.9 -1.5,-1.4 -1.2,-0.3 -1.2,0.3 -0.3,0.2 -0.6,1.1 0.1,1.3 0.6,1.4 0.3,0.4 1.2,0.9 1.2,0.3 1.2,-0.2 0.3,-0.3 0.6,-1.1 v -1.2 l -0.7,-1.4 m -4.4,12.3 -3.5,-10.6 m 7.6,7.4 -4.1,3.2"
         stroke="#000000"
         stroke-width="1"
         id="path93" />
      <path
         d="m 857.9,258.4 -0.6,0.9 0.3,1.2 0.4,0.6 1.1,0.6 1.6,-0.2 2.3,-1.2 2,-1.4 1.4,-1.5 0.4,-1.2 -0.2,-1.2 -0.2,-0.3 -1.1,-0.6 H 864 l -1.4,0.5 -0.4,0.3 -1,1.2 -0.4,1.2 0.3,1.2 0.2,0.3 1,0.6 h 1.3 l 1.4,-0.5 m -10.3,-2.4 1.1,0.6 1,-0.3 0.8,-0.6 0.6,-0.9 v -0.9 l -0.5,-1.5 -0.2,-1.2 0.4,-1.2 0.6,-0.8 1.2,-0.9 1,-0.3 h 0.7 l 1,0.7 0.9,1.2 0.2,1.2 -0.2,0.6 -0.6,0.9 -1.2,0.8 -1,0.3 h -1.3 l -1,-0.7 -1.3,-0.9 -0.8,-0.3 -1.1,0.3 -0.8,0.5 -0.6,0.9 0.3,1.2 0.9,1.4"
         stroke="#000000"
         stroke-width="1"
         id="path94" />
      <path
         d="m 720.5,193.2 -4.2,10.3 m -1.1,-10.5 5.3,0.2 m 5.6,1.7 -0.3,-1 -1.1,-0.5 -0.8,-0.1 -1.1,0.5 -0.9,1.5 -0.4,2.4 -0.1,2.5 0.2,2.1 0.8,1 1.1,0.5 h 0.3 l 1.2,-0.4 0.8,-1 0.4,-1.5 v -0.5 l -0.3,-1.5 -0.7,-1 -1.1,-0.5 -0.4,-0.1 -1.1,0.5 -0.8,1 -0.4,1.4"
         stroke="#000000"
         stroke-width="1"
         id="path95" />
      <path
         d="m 750,188.4 -0.9,-0.6 -1.2,0.2 -0.6,0.5 -0.6,1.1 0.3,1.6 1.2,2.2 1.5,2 1.5,1.4 1.2,0.4 1.2,-0.3 0.3,-0.2 0.6,-1.1 v -1.2 l -0.6,-1.4 -0.3,-0.5 -1.2,-0.9 -1.2,-0.4 -1.2,0.3 -0.3,0.2 -0.6,1.1 v 1.2 l 0.6,1.4 m 5.2,-10.7 -0.9,-0.5 -1.2,0.2 -0.6,0.5 -0.6,1 0.3,1.7 1.2,2.2 1.5,2 1.5,1.4 1.1,0.4 1.2,-0.3 0.4,-0.2 0.6,-1.1 v -1.2 l -0.6,-1.5 -0.3,-0.4 -1.2,-0.9 -1.2,-0.4 -1.2,0.3 -0.3,0.2 -0.6,1.1 v 1.2 l 0.6,1.4"
         stroke="#000000"
         stroke-width="1"
         id="path96" />
      <path
         d="m 725.4,143.5 h 1.1 l 0.8,-0.8 0.3,-0.7 v -1.2 l -1.1,-1.3 -2.2,-1.3 -2.3,-1 -1.9,-0.4 -1.3,0.3 -0.9,0.8 -0.1,0.4 v 1.2 l 0.7,1.1 1.2,0.9 0.5,0.2 1.5,0.2 1.2,-0.3 0.9,-0.8 0.1,-0.4 v -1.2 l -0.6,-1.1 -1.3,-0.9 m 2.2,13 -8.2,-7.5 m 10.2,2.6 -2,4.9"
         stroke="#000000"
         stroke-width="1"
         id="path97" />
      <path
         d="m 766.6,168.1 7.7,8 m -10.1,-3.3 2.4,-4.7 m 0.8,-1.7 1.8,-3.7 2.6,3.8 0.5,-1 0.8,-0.5 0.6,-0.1 1.5,0.3 0.9,0.5 1.2,1 0.6,1.1 -0.1,1.2 -0.5,1 -0.9,0.8 -0.6,0.1 -1.1,-0.1"
         stroke="#000000"
         stroke-width="1"
         id="path98" />
      <path
         d="m 755.3,115.8 -0.1,-7.9 -4.9,2.7 m 5,5.2 -5,-9.2 m 0.3,11.7 0.7,-1 v -1.7 l -0.9,-2.4 -0.7,-1.3 -1.5,-2 -1.4,-1 -1.2,0.1 -0.7,0.4 -0.8,1 0.1,1.7 0.9,2.3 0.7,1.3 1.5,2.1 1.4,0.9 1.2,-0.1 0.5,-0.3"
         stroke="#000000"
         stroke-width="1"
         id="path99" />
      <path
         d="m 792.7,139.1 -1,-0.6 -1.2,0.3 -0.5,0.4 -0.6,1.1 0.3,1.7 1.2,2.2 1.5,2 1.5,1.3 1.3,0.3 1.1,-0.2 0.3,-0.3 0.6,-1.1 V 145 l -0.6,-1.4 -0.3,-0.4 -1.2,-1 -1.2,-0.3 -1.2,0.3 -0.3,0.2 -0.6,1.1 v 1.2 l 0.6,1.5 m 6.6,-9.5 0.6,1.4 v 1.3 l -0.6,1.1 -0.3,0.2 -1.2,0.3 -1.2,-0.4 -1.2,-0.9 -0.3,-0.4 -0.6,-1.4 v -1.3 l 0.6,-1.1 0.3,-0.2 1.2,-0.3 1.2,0.4 1.5,1.3 1.5,2 1.2,2.2 0.3,1.7 -0.5,1 -0.6,0.5 -1.2,0.3 -0.9,-0.6"
         stroke="#000000"
         stroke-width="1"
         id="path100" />
      <path
         d="M 794.2,79.9 787.5,71 m 9.6,4.6 -2.9,4.3 m -1.9,2.9 0.2,-1.2 -0.9,-1.5 -1.8,-1.7 -1.3,-0.8 -2.3,-1.1 -1.6,-0.2 -1.1,0.7 -0.4,0.6 -0.2,1.2 0.8,1.5 1.9,1.7 1.2,0.8 2.3,1.1 1.7,0.2 1,-0.7 0.4,-0.4"
         stroke="#000000"
         stroke-width="1"
         id="path101" />
      <path
         d="m 817.7,55.1 0.8,0.6 1.3,-0.1 0.6,-0.4 0.7,-0.9 -0.1,-1.7 -0.9,-2.4 -1.2,-2.1 -1.4,-1.6 -1.1,-0.5 -1.2,0.2 -0.4,0.1 -0.7,1 -0.1,1.3 0.4,1.5 0.2,0.4 1.1,1.1 1.2,0.5 1.2,-0.1 0.3,-0.2 0.7,-1 0.2,-1.3 -0.4,-1.4 m -5.7,11.3 3.3,-1.9 -1.9,-4.1 -0.1,0.6 -0.7,1 -1,0.6 -1.2,0.1 -1.2,-0.5 -1.1,-1.1 -0.5,-0.8 -0.4,-1.5 0.2,-1.3 0.7,-1 1,-0.5 1.2,-0.2 0.6,0.3 0.8,0.7"
         stroke="#000000"
         stroke-width="1"
         id="path102" />
      <path
         d="m 836.39716,66.428364 10.1,-4.6 m -6.5,8.4 -3.6,-3.8 m -2.9,-5.1 -0.5,0.9 0.5,1.2 0.5,0.5 1.1,0.5 1.6,-0.5 2.1,-1.5 1.8,-1.7 1.2,-1.7 0.2,-1.2 -0.5,-1.2 -0.2,-0.2 -1.2,-0.5 -1.2,0.2 -1.3,0.7 -0.4,0.4 -0.8,1.3 -0.2,1.2 0.4,1.2 0.3,0.3 1.1,0.4 1.2,-0.1 1.4,-0.8"
         stroke="#000000"
         stroke-width="1"
         id="path103" />
      <path
         d="m 881.43474,83.184397 0.3,1 1.1,0.5 0.8,0.1 1.1,-0.5 0.9,-1.4 0.4,-2.5 0.2,-2.5 -0.3,-2 -0.7,-1.1 -1.1,-0.5 h -0.4 l -1.2,0.4 -0.7,1 -0.5,1.5 v 0.5 l 0.3,1.5 0.7,1 1.1,0.6 h 0.4 l 1.1,-0.5 0.8,-0.9 0.5,-1.5 m -10.8,5 0.3,1 1.1,0.6 h 0.7 l 1.2,-0.5 0.8,-1.4 0.5,-2.5 0.1,-2.5 -0.3,-2 -0.7,-1 -1.1,-0.6 h -0.4 l -1.1,0.4 -0.8,1 -0.4,1.5 -0.1,0.5 0.3,1.5 0.7,1 1.1,0.6 h 0.4 l 1.2,-0.4 0.8,-1 0.4,-1.5"
         stroke="#000000"
         stroke-width="1"
         id="path104" />
      <path
         d="m 851.89646,152.79646 -10.1,4.7 m 6.5,-8.4 3.6,3.7 m -0.9,2.4 0.9,0.2 1.9,-0.3 -7.5,7.4"
         stroke="#000000"
         stroke-width="1"
         id="path105" />
      <path
         d="m 952.87164,140.9 -5,10 m -0.3,-10.6 5.3,0.6 m 6.2,0.8 -5,10 m -0.3,-10.6 5.3,0.6"
         stroke="#000000"
         stroke-width="1"
         id="path106" />
      <path
         d="M 914.8,69.6 910,59.5 m 8.5,6.4 -3.7,3.7 m -1.4,1.4 -2.9,2.9 -1.2,-4.4 -0.8,0.8 -0.9,0.1 H 907 l -1.4,-0.8 -0.7,-0.7 -0.8,-1.4 -0.1,-1.2 0.4,-1.2 0.8,-0.8 1.1,-0.4 0.7,0.1 0.9,0.4"
         stroke="#000000"
         stroke-width="1"
         id="path107" />
      <path
         d="m 929.9,179.2 11.1,-0.9 m -9,5.7 -2.1,-4.8 m -2.5,-5.8 11.1,-0.8 m -9,5.6 -2.1,-4.8"
         stroke="#000000"
         stroke-width="1"
         id="path108" />
      <path
         d="m 913.1,183.6 -2.6,10.8 m -2.6,-10.2 5.2,-0.6 m 5.6,-0.6 -3.7,0.4 0.1,4.5 0.4,-0.5 1,-0.6 1.1,-0.2 1.2,0.4 0.9,0.9 0.5,1.5 0.1,1 -0.2,1.5 -0.6,1.1 -1.1,0.6 -1.1,0.1 -1.2,-0.4 -0.4,-0.4 -0.5,-1"
         stroke="#000000"
         stroke-width="1"
         id="path109" />
      <path
         d="m 938.8,49.4 0.9,0.6 1.2,-0.2 0.6,-0.4 0.7,-1 -0.1,-1.7 -1.1,-2.3 -1.3,-2.1 -1.4,-1.5 -1.1,-0.4 -1.3,0.1 -0.3,0.2 -0.7,1.1 -0.1,1.2 0.5,1.5 0.3,0.4 1.1,1.1 1.2,0.4 1.2,-0.2 0.3,-0.2 0.7,-1 0.1,-1.2 -0.5,-1.5 m -7.4,8.8 -0.4,-1.5 0.1,-1.2 0.6,-1 0.4,-0.2 1.2,-0.2 1.1,0.4 1.2,1.1 0.2,0.4 0.5,1.5 -0.1,1.2 -0.7,1.1 -0.3,0.2 -1.2,0.1 -1.2,-0.4 -1.4,-1.5 -1.3,-2.1 -1,-2.3 -0.2,-1.7 0.7,-1 0.6,-0.4 1.3,-0.2 0.8,0.6"
         stroke="#000000"
         stroke-width="1"
         id="path110" />
      <path
         d="m 720.8,661.8 -1,-0.6 -1.7,0.2 -2.2,1.2 -1.3,0.9 -1.8,1.7 -0.8,1.5 0.3,1.2 0.4,0.6 1.1,0.7 1.6,-0.3 2.3,-1.2 1.2,-0.8 1.8,-1.8 0.8,-1.5 -0.2,-1.2 -0.4,-0.4"
         stroke="#000000"
         stroke-width="1"
         id="path111" />
      <path
         d="m 765,676 0.3,-0.8 0.1,-1.9 5.8,8.8 m -1.2,-12.2 -3.2,2.1 2.2,4 v -0.7 l 0.7,-1 0.9,-0.6 1.2,-0.2 1.2,0.4 1.1,1.1 0.6,0.8 0.5,1.5 -0.1,1.2 -0.6,1 -1,0.7 -1.2,0.2 -0.6,-0.3 -0.8,-0.6"
         stroke="#000000"
         stroke-width="1"
         id="path112" />
      <path
         d="m 834.32129,641.96879 -0.1,-0.5 0.2,-1 0.3,-0.6 0.6,-0.6 1.5,-0.3 0.8,0.4 0.5,0.4 0.5,0.9 0.2,1 -0.2,1.1 -0.4,1.6 -2.8,5.6 5.1,-1 m 4.7,-7.9 -0.1,1.5 -0.5,1.1 -1,0.7 -0.4,0.1 -1.2,-0.3 -0.9,-0.9 -0.7,-1.4 v -0.5 l 0.1,-1.5 0.5,-1.1 1,-0.7 0.4,-0.1 1.2,0.3 0.9,0.9 0.7,1.9 0.5,2.4 0.1,2.6 -0.5,1.6 -1,0.7 -0.8,0.1 -1.2,-0.3 -0.5,-0.9"
         stroke="#000000"
         stroke-width="1"
         id="path113" />
      <path
         d="m 845.9,607.2 0.2,0.5 0.2,1 -0.1,0.6 -0.4,0.8 -1.3,0.7 h -0.9 l -0.6,-0.3 -0.8,-0.7 -0.5,-0.9 -0.1,-1.1 -0.1,-1.6 1,-6.2 -4.7,2.5 m -0.7,10.6 0.8,0.7 1.2,-0.1 0.7,-0.3 0.7,-1 v -1.7 l -0.9,-2.4 -1.2,-2.2 -1.2,-1.6 -1.2,-0.5 -1.2,0.1 -0.3,0.2 -0.8,1 -0.2,1.2 0.4,1.5 0.2,0.4 1.1,1.2 1.1,0.5 1.2,-0.1 0.4,-0.2 0.7,-0.9 0.2,-1.3 -0.4,-1.5"
         stroke="#000000"
         stroke-width="1"
         id="path114" />
      <path
         d="m 873.2,616.8 h -0.5 l -1.1,-0.3 -0.5,-0.3 -0.5,-0.7 -0.2,-1.5 0.5,-0.8 0.5,-0.4 0.9,-0.5 h 1 l 1.1,0.3 1.5,0.6 5.3,3.4 -0.4,-5.3 m -11,-5.4 10.8,2.9 m -10.4,2.3 -0.4,-5.2"
         stroke="#000000"
         stroke-width="1"
         id="path115" />
      <path
         d="m 947.8,350.4 -3.7,0.7 0.5,4.5 0.3,-0.6 1,-0.7 1.1,-0.2 1.2,0.3 0.9,0.8 0.6,1.4 0.2,1 -0.1,1.5 -0.5,1.2 -1,0.7 -1.1,0.2 -1.2,-0.3 -0.5,-0.4 -0.5,-0.9 m 5.4,-9.7 4.1,-0.8 -1.5,4.4 1.1,-0.2 0.8,0.3 0.5,0.4 0.6,1.4 0.2,1 -0.1,1.6 -0.5,1.1 -1,0.7 -1.1,0.2 -1.2,-0.3 -0.5,-0.4 -0.6,-0.9"
         stroke="#000000"
         stroke-width="1"
         id="path116" />
      <path
         d="m 988.5,338.4 -0.9,7.9 5.2,-2.1 m -4.3,-5.8 3.9,9.7 m -0.4,-11 3.9,-1.5 -0.6,4.5 1,-0.4 0.9,0.2 0.5,0.3 0.9,1.3 0.4,0.9 0.2,1.5 -0.3,1.2 -0.9,0.9 -1,0.4 h -1.3 l -0.5,-0.4 -0.7,-0.7"
         stroke="#000000"
         stroke-width="1"
         id="path117" />
      <path
         d="m 998.7,313.9 7.7,1.7 -1.5,-5.4 m -6.2,3.7 10.1,-2.8 m -8.6,-1.5 -0.5,0.1 h -1.1 l -0.5,-0.3 -0.7,-0.6 -0.4,-1.4 0.2,-0.9 0.4,-0.5 0.9,-0.6 1,-0.3 1,0.1 1.7,0.4 5.8,2.2 -1.4,-5"
         stroke="#000000"
         stroke-width="1"
         id="path118" />
      <path
         d="m 884,240.1 0.7,-0.7 0.1,-1.2 -0.3,-0.7 -1,-0.8 -1.6,-0.1 -2.5,0.6 -2.3,1 -1.6,1.2 -0.7,1 v 1.3 l 0.2,0.3 0.9,0.8 1.2,0.3 1.5,-0.2 0.5,-0.2 1.2,-1 0.6,-1 v -1.3 l -0.1,-0.3 -0.9,-0.9 -1.2,-0.2 -1.6,0.2 m 9.6,4.5 -0.9,-0.8 h -1.1 l -0.9,0.4 -0.7,0.8 -0.2,0.9 0.1,1.5 v 1.3 l -0.6,1 -0.8,0.8 -1.3,0.6 h -1.1 l -0.6,-0.1 -0.9,-0.8 -0.6,-1.4 v -1.2 l 0.3,-0.6 0.8,-0.7 1.4,-0.6 1,-0.1 1.2,0.3 0.9,0.8 1.1,1.2 0.8,0.5 h 1 l 0.9,-0.4 0.8,-0.8 v -1.2 l -0.7,-1.6"
         stroke="#000000"
         stroke-width="1"
         id="path119" />
      <path
         d="m 928.6,236.5 5,-10 m 0.3,10.6 -5.3,-0.6 m -5.1,-0.5 4.6,-6.5 -5.6,-0.7 m 1,7.2 1.3,-10.4"
         stroke="#000000"
         stroke-width="1"
         id="path120" />
      <path
         d="m 987,259.3 -0.3,-4.1 4.1,1.9 -0.1,-1.1 0.5,-0.8 0.4,-0.4 1.5,-0.5 1,-0.1 1.5,0.2 1.1,0.7 0.6,1.1 0.1,1.1 -0.4,1.2 -0.5,0.4 -1,0.4 m -7.8,-10.3 -1,0.5 -0.4,1.1 v 0.8 l 0.6,1 1.6,0.7 2.5,0.1 2.5,-0.2 2,-0.5 0.9,-0.8 0.4,-1.2 v -0.4 l -0.6,-1 -1.1,-0.7 -1.5,-0.3 -0.5,0.1 -1.5,0.5 -0.9,0.8 -0.4,1.2 v 0.3 l 0.6,1.1 1.1,0.7 1.5,0.2"
         stroke="#000000"
         stroke-width="1"
         id="path121" />
      <path
         d="m 1008.3497,116.44681 5.9,-9.5 m -0.8,10.6 -5.1,-1.1 m -1.3,-2.9 -0.1,0.5 -0.5,0.9 -0.5,0.4 -0.9,0.3 -1.4,-0.3 -0.7,-0.6 -0.2,-0.6 -0.2,-1 0.2,-1 0.6,-0.9 1.1,-1.3 4.7,-4.1 -5.1,-1.1"
         stroke="#000000"
         stroke-width="1"
         id="path122" />
      <path
         d="m 997.41914,119.40284 4.79996,10 m -8.49996,-6.3 3.7,-3.7 m 3.99996,-4.1 -2.69996,2.7 2.99996,3.4 -0.1,-0.6 0.4,-1.1 0.8,-0.8 1.1,-0.5 1.3,0.2 1.3,0.8 0.7,0.7 0.8,1.3 0.2,1.2 -0.4,1.2 -0.8,0.8 -1.2,0.4 -0.6,-0.1 -0.9,-0.4"
         stroke="#000000"
         stroke-width="1"
         id="path123" />
      <path
         d="m 982.46134,70.970563 9.2,-6.4 m -4.9,9.4 -4.3,-3 m 0.5,-2.5 -0.9,-0.1 -1.8,0.6 6.1,-8.6"
         stroke="#000000"
         stroke-width="1"
         id="path124" />
      <path
         d="m 1001.2,82.1 4.3,10.3 m -8.1,-6.7 3.8,-3.6 m 3.1,0.7 -0.4,-0.4 -0.4,-1 v -0.6 l 0.2,-0.9 1.1,-1 0.9,-0.1 0.6,0.1 1,0.5 0.6,0.7 0.4,1 0.5,1.6 0.6,6.2 3.9,-3.5"
         stroke="#000000"
         stroke-width="1"
         id="path125" />
      <path
         d="m 607.68724,438.43405 -7.8,1.4 3.5,4.4 m 4.3,-5.8 -8.3,6.5 m 13.2,0 -10.5,3.5 m 7.3,-7.7 3.2,4.2"
         stroke="#000000"
         stroke-width="1"
         id="path126" />
      <path
         d="m 601.9,431.4 -4,1 1.2,-4.5 -1.1,0.3 -0.8,-0.3 -0.5,-0.4 -0.7,-1.4 -0.3,-0.9 v -1.6 l 0.5,-1.1 1,-0.8 1.1,-0.2 1.2,0.2 0.5,0.4 0.6,0.8 m -8,10.9 1.9,-7.7 -5.4,1.3 m 3.5,6.4 -2.5,-10.2"
         stroke="#000000"
         stroke-width="1"
         id="path127" />
      <path
         d="m 683.8,394.6 -3.2,-2.7 4.3,-1.6 -0.9,-0.7 -0.2,-0.9 v -0.6 l 0.7,-1.4 0.6,-0.8 1.3,-0.9 1.2,-0.3 1.2,0.3 0.8,0.8 0.6,1.1 v 0.6 l -0.4,1 m -11.9,-3.4 1.3,-0.9 1.2,-0.3 1.2,0.4 0.2,0.2 0.6,1.1 -0.1,1.2 -0.6,1.4 -0.4,0.4 -1.2,0.9 -1.2,0.3 -1.2,-0.3 -0.3,-0.2 -0.5,-1.1 v -1.3 l 1,-1.8 1.6,-1.9 1.9,-1.7 1.5,-0.7 1.2,0.4 0.6,0.5 0.5,1.1 -0.3,1"
         stroke="#000000"
         stroke-width="1"
         id="path128" />
      <path
         d="m 641.71383,386.7266 3,-2.4 -2.5,-3.7 v 0.6 l -0.6,1.1 -0.9,0.7 -1.2,0.3 -1.2,-0.3 -1.2,-1 -0.6,-0.8 -0.6,-1.4 -0.1,-1.2 0.6,-1.1 0.9,-0.7 1.2,-0.3 0.6,0.1 0.9,0.6 m -1.9,9.1 0.3,0.4 0.4,1 v 0.6 l -0.3,0.9 -1.2,0.9 -0.9,0.1 -0.6,-0.2 -0.9,-0.5 -0.6,-0.8 -0.3,-1.1 -0.4,-1.6 -0.1,-6.2 -4.1,3.2"
         stroke="#000000"
         stroke-width="1"
         id="path129" />
      <path
         d="m 623.79539,397.53405 -0.4,4.1 -3.7,-2.6 -0.1,1.1 -0.6,0.7 -0.5,0.3 -1.6,0.2 -1,-0.1 -1.4,-0.5 -0.9,-0.8 -0.4,-1.2 0.1,-1.1 0.6,-1.1 0.5,-0.3 1,-0.3 m 5.3,7.6 0.5,0.1 1,0.5 0.5,0.4 0.4,0.8 -0.2,1.5 -0.5,0.7 -0.6,0.3 -1,0.3 -1,-0.1 -1,-0.5 -1.4,-0.9 -4.6,-4.2 -0.5,5.2"
         stroke="#000000"
         stroke-width="1"
         id="path130" />
      <path
         d="m 739.96595,68.889008 -4.1,0.4 1.9,-4.2 -1.1,0.1 -0.8,-0.4 -0.5,-0.5 -0.5,-1.5 -0.1,-1 0.3,-1.5 0.6,-1 1.1,-0.6 1.1,-0.1 1.2,0.4 0.4,0.4 0.5,1"
         stroke="#000000"
         stroke-width="1"
         id="path131" />
      <path
         d="m 746,62.3 5.7,5.6 1.6,-5.4 m -7.3,-0.2 10.1,3"
         stroke="#000000"
         stroke-width="1"
         id="path132" />
      <path
         d="m 723.2,77.2 0.6,-0.7 0.7,-1.7 2.8,10.1"
         stroke="#000000"
         stroke-width="1"
         id="path133" />
      <path
         d="m 672.8,72.1 3.8,0.1 0.4,-4.5 -0.3,0.5 -1.2,0.4 h -1.1 l -1.1,-0.5 -0.7,-1 -0.4,-1.5 v -1 l 0.4,-1.5 0.8,-1 1.1,-0.5 h 1.2 l 1.1,0.6 0.3,0.5 0.4,1"
         stroke="#000000"
         stroke-width="1"
         id="path134" />
      <path
         d="m 637.35711,75.981555 -0.4,0.8 -0.2,1.9 -5.4,-9 m -1.4,9.4 -0.4,-1.4 0.1,-1.3 0.7,-1 0.3,-0.2 1.2,-0.1 1.2,0.4 1.1,1.1 0.2,0.4 0.5,1.5 -0.1,1.3 -0.7,1 -0.3,0.2 -1.3,0.1 -1.1,-0.4 -1.4,-1.6 -1.3,-2.1 -1,-2.3 -0.1,-1.7 0.7,-1 0.6,-0.4 1.3,-0.2 0.8,0.7"
         stroke="#000000"
         stroke-width="1"
         id="path135" />
      <path
         d="m 613.5,87.2 2.6,-7.5 -5.5,0.9 m 2.9,6.6 -1.6,-10.4"
         stroke="#000000"
         stroke-width="1"
         id="path136" />
      <path
         d="m 589.81845,107.87448 -0.8,-0.9 -1,-0.1 -1,0.3 -0.8,0.7 -0.3,0.9 v 1.5 l -0.1,1.3 -0.8,1 -0.8,0.6 -1.4,0.5 -1.1,-0.1 -0.6,-0.2 -0.8,-0.9 -0.5,-1.4 0.2,-1.2 0.3,-0.6 0.9,-0.6 1.4,-0.5 1.1,0.1 1.1,0.4 0.9,0.9 0.9,1.3 0.7,0.6 h 1.1 l 0.9,-0.3 0.9,-0.6 0.1,-1.3 -0.5,-1.6"
         stroke="#000000"
         stroke-width="1"
         id="path137" />
      <path
         d="m 587.59646,101.16595 -0.9,-1.299999 -0.2,-1.2 0.4,-1.2 0.2,-0.3 1.1,-0.5 1.3,0.1 1.3,0.7 0.4,0.3 0.9,1.3 0.3,1.199999 -0.4,1.2 -0.3,0.3 -1.1,0.5 -1.2,-0.1 -1.8,-1 -1.9,-1.699999 -1.6,-1.9 -0.6,-1.5 0.3,-1.2 0.5,-0.6 1.2,-0.5 0.9,0.4"
         stroke="#000000"
         stroke-width="1"
         id="path138" />
      <path
         d="m 610.1,138.5 -0.5,-0.7 -1.6,-1.1 10.5,-0.5 m -11,-2.9 0.6,1.1 1.5,0.7 2.5,0.2 1.5,-0.1 2.5,-0.5 1.5,-0.8 0.4,-1.1 V 132 l -0.6,-1.1 -1.5,-0.7 -2.5,-0.2 -1.5,0.1 -2.5,0.5 -1.5,0.8 -0.4,1.1 v 0.6"
         stroke="#000000"
         stroke-width="1"
         id="path139" />
      <path
         d="m 602.92767,130.99362 h -1.2 l -0.8,0.8 -0.4,0.9 v 1.1 l 0.5,0.8 1.2,1 0.8,0.9 0.3,1.2 v 1.1 l -0.6,1.4 -0.8,0.7 -0.5,0.3 -1.2,0.1 -1.4,-0.6 -0.8,-0.9 -0.2,-0.6 0.1,-1.1 0.5,-1.4 0.8,-0.7 1.1,-0.7 h 1.2 l 1.6,0.1 0.9,-0.1 0.7,-0.8 0.4,-0.9 v -1.1 l -0.8,-0.9 -1.6,-0.7"
         stroke="#000000"
         stroke-width="1"
         id="path140" />
      <path
         d="m 636.2,124 0.7,0.5 1.8,0.6 -9.9,3.5 m 11.4,-0.4 -0.9,-0.9 -1.6,-0.2 -2.5,0.5 -1.4,0.5 -2.2,1.2 -1.2,1.2 -0.1,1.2 0.3,0.7 0.8,0.9 1.7,0.2 2.4,-0.5 1.5,-0.5 2.2,-1.2 1.2,-1.2 v -1.2 l -0.1,-0.5"
         stroke="#000000"
         stroke-width="1"
         id="path141" />
      <path
         d="m 672.26241,116.83936 0.1,-0.9 -0.6,-1.8 8.5,6.1"
         stroke="#000000"
         stroke-width="1"
         id="path142" />
      <path
         d="m 664.57303,133.01383 0.1,1.5 -0.5,1.2 -0.9,0.8 -0.4,0.1 -1.2,-0.2 -1,-0.8 -0.7,-1.3 -0.2,-0.5 v -1.5 l 0.4,-1.2 1,-0.8 0.3,-0.1 1.3,0.2 0.9,0.7 0.9,1.9 0.7,2.4 0.3,2.5 -0.3,1.6 -0.9,0.8 -0.7,0.2 -1.3,-0.2 -0.6,-0.8"
         stroke="#000000"
         stroke-width="1"
         id="path143" />
      <path
         d="m 988,493.56295 -0.1,-4.1 4,2.1 v -1.1 l 0.5,-0.7 0.5,-0.4 1.5,-0.4 1,-0.1 1.5,0.4 1,0.7 0.5,1.1 0.1,1.1 -0.5,1.2 -0.5,0.4 -1,0.4 m -8.7,-8.5 0.5,1.1 1.5,0.7 2.5,0.3 h 1.5 l 2.5,-0.5 1.5,-0.7 0.5,-1.2 v -0.7 l -0.6,-1.1 -1.5,-0.8 -2.5,-0.3 -1.5,0.1 -2.5,0.4 -1.5,0.8 -0.4,1.1 v 0.6"
         stroke="#000000"
         stroke-width="1"
         id="path144" />
      <path
         d="m 953.70869,475.02021 v 0.5 l -0.3,1.1 -0.4,0.5 -0.7,0.5 -1.5,0.1 -0.8,-0.5 -0.4,-0.5 -0.4,-1 v -1 l 0.3,-1 0.7,-1.5 3.5,-5.2 -5.2,0.3 m -0.7,8.2 -0.8,0.5 -1,1.5 -0.5,-10.5"
         stroke="#000000"
         stroke-width="1"
         id="path145" />
      <path
         d="m 933.22783,475.40177 0.1,-0.5 0.6,-0.8 0.5,-0.4 0.9,-0.3 1.4,0.4 0.6,0.7 0.3,0.5 0.1,1.1 -0.3,1 -0.6,0.8 -1.1,1.3 -4.9,3.9 5,1.3 m 3.9,-7.2 0.1,-0.5 0.6,-0.9 0.5,-0.4 0.8,-0.3 1.5,0.4 0.6,0.7 0.2,0.6 0.1,1 -0.2,1 -0.6,0.9 -1.2,1.2 -4.9,3.9 5.1,1.3"
         stroke="#000000"
         stroke-width="1"
         id="path146" />
      <path
         d="m 935.23298,474.56064 0.3,0.4 0.3,1 v 0.7 l -0.3,0.8 -1.1,0.9 -0.9,0.1 -0.6,-0.1 -1,-0.6 -0.6,-0.8 -0.3,-1 -0.3,-1.6 -0.2,-6.3 -4.1,3.3 m 5,9.4 -3.2,2.6 -0.7,-4.6 -0.9,0.7 -0.9,0.1 -0.6,-0.2 -1.3,-0.9 -0.6,-0.8 -0.6,-1.4 -0.1,-1.2 0.6,-1.1 0.9,-0.7 1.2,-0.3 0.6,0.1 0.9,0.6"
         stroke="#000000"
         stroke-width="1"
         id="path147" />
      <path
         d="m 949.40054,519.27394 0.3,-0.4 0.9,-0.6 0.6,-0.1 h 0.9 l 1.2,0.9 0.3,0.9 v 0.6 l -0.3,1 -0.6,0.8 -0.9,0.6 -1.5,0.7 -6.1,1.7 4.2,3.2"
         stroke="#000000"
         stroke-width="1"
         id="path148" />
      <path
         d="m 949.41844,512.50762 0.5,0.1 0.8,0.7 0.4,0.5 0.2,0.9 -0.5,1.4 -0.7,0.6 -0.6,0.1 -1.1,0.1 -1,-0.4 -0.8,-0.7 -1.1,-1.2 -3.4,-5.2 -1.8,4.9 m 6.9,4.5 0.4,0.1 0.9,0.7 0.3,0.5 0.2,0.9 -0.5,1.4 -0.7,0.6 -0.6,0.1 -1.1,0.1 -0.9,-0.4 -0.8,-0.7 -1.2,-1.2 -3.4,-5.2 -1.8,4.9"
         stroke="#000000"
         stroke-width="1"
         id="path149" />
      <path
         d="m 982.82429,467.42252 -3.6,2 v -4.6 l -1,0.5 h -0.9 l -0.6,-0.3 -1,-1.1 -0.5,-0.9 -0.4,-1.5 0.1,-1.2 0.8,-1 1,-0.6 1.2,-0.1 0.6,0.3 0.8,0.7 m -3.3,8.7 0.3,0.4 0.1,1.1 v 0.6 l -0.5,0.8 -1.3,0.7 -0.9,-0.1 -0.5,-0.2 -0.9,-0.7 -0.4,-0.9 -0.2,-1 -0.1,-1.7 0.9,-6.2 -4.6,2.6"
         stroke="#000000"
         stroke-width="1"
         id="path150" />
      <path
         d="m 992,536.7 h -0.5 l -1,-0.3 -0.5,-0.3 -0.6,-0.8 v -1.5 l 0.4,-0.7 0.5,-0.4 1,-0.5 h 1 l 1,0.3 1.5,0.7 5.2,3.5 -0.2,-5.3 m -10.9,-4.6 7.2,3.4 -0.3,-5.6 m -6.9,2.2 10.5,-0.5"
         stroke="#000000"
         stroke-width="1"
         id="path151" />
      <path
         d="m 972.3,556.9 h 0.5 l 1,0.3 0.5,0.4 0.5,0.7 0.1,1.5 -0.5,0.8 -0.5,0.4 -1,0.4 h -1 l -1,-0.3 -1.5,-0.8 -5.1,-3.6 0.1,5.3"
         stroke="#000000"
         stroke-width="1"
         id="path152" />
      <path
         d="m 978.4289,565.71099 4.1,0.8 -2.9,3.5 1.1,0.2 0.6,0.6 0.3,0.6 0.1,1.5 -0.1,1 -0.7,1.4 -0.9,0.9 -1.2,0.3 -1.1,-0.2 -1,-0.7 -0.3,-0.6 -0.2,-1 m 10,-6.9 -1.1,0.3 -1,1.4 -0.8,2.4 -0.3,1.4 -0.1,2.6 0.5,1.6 1,0.7 0.8,0.1 1.2,-0.3 1,-1.4 0.8,-2.4 0.2,-1.4 0.1,-2.6 -0.5,-1.6 -1,-0.7 -0.6,-0.1"
         stroke="#000000"
         stroke-width="1"
         id="path153" />
      <path
         d="m 991.4844,568.80922 -0.5,-0.1 -1,-0.4 -0.5,-0.4 -0.4,-0.8 0.1,-1.5 0.5,-0.7 0.5,-0.3 1.1,-0.4 1,0.1 0.9,0.4 1.5,0.9 4.8,4 0.3,-5.2 m -10.3,-5.8 6.8,4.2 0.3,-5.6 m -7.1,1.4 10.5,0.7"
         stroke="#000000"
         stroke-width="1"
         id="path154" />
      <path
         d="m 989.24273,475.82445 -0.5,-0.2 -0.8,-0.7 -0.4,-0.5 -0.2,-0.8 0.4,-1.5 0.8,-0.5 0.6,-0.2 h 1 l 1,0.3 0.8,0.6 1.2,1.2 3.50001,5.2 1.7,-5 m -9.40001,-5.1 1.4,-4 3,3.5 0.4,-1.1 0.7,-0.6 0.6,-0.2 1.50001,0.2 1,0.3 1.3,0.8 0.7,1.1 0.1,1.2 -0.3,1 -0.9,0.9 -0.6,0.2 -1,0.1"
         stroke="#000000"
         stroke-width="1"
         id="path155" />
      <path
         d="m 1003.2509,462.73813 -4.10001,0.8 1.50001,-4.4 -1.10001,0.2 -0.9,-0.3 -0.4,-0.4 -0.7,-1.4 -0.1,-1 v -1.6 l 0.6,-1.1 1,-0.7 1.10001,-0.2 1.2,0.3 0.5,0.4 0.5,0.9 m -8.60001,10.4 2.4,-7.6 -5.5,1 m 3.1,6.6 -1.9,-10.3"
         stroke="#000000"
         stroke-width="1"
         id="path156" />
    </g>
    <path
       d="m 806.33159,292.60632 h 6.2 l -3.4,6 h 1.7 l 1.1,0.7 0.6,0.8 0.6,2.2 v 1.5 l -0.6,2.3 -1.1,1.5 -1.7,0.7 h -1.7 l -1.7,-0.7 -0.5,-0.8 -0.6,-1.5"
       id="titre_3"
       stroke="#4b0082" />
    <path
       d="m 657.3,76.3 -5.7,10.5 h 8.5 M 657.3,76.3 V 92"
       id="titre_4"
       stroke="#4b0082" />
    <path
       d="m 966.08415,511.02193 v -0.8 l 0.6,-1.5 0.5,-0.7 1.1,-0.8 h 2.3 l 1.1,0.8 0.6,0.7 0.5,1.5 v 1.5 l -0.5,1.5 -1.1,2.3 -5.7,7.5 h 7.9"
       id="titre_2"
       stroke="#4b0082" />
  </g>
</svg>
