<?xml version="1.0" encoding="UTF-8" standalone="no"?>
<svg
   height="297mm"
   viewBox="0 0 533 754"
   width="210mm"
   version="1.1"
   id="svg156"
   xmlns="http://www.w3.org/2000/svg"
   xmlns:svg="http://www.w3.org/2000/svg">
  <defs
     id="defs156" />
  <style
     type="text/css"
     id="style1"><![CDATA[
			path {
				fill: none;
			}
		]]></style>
  <g
     id="page_001">
    <path
       d="m 436.8,65.2 18.3,8.6 9.5,31.4 -10.5,17.3 15.9,75.5 -66.7,12.2 -16.5,60.4 14.3,12.5 -1.6,28.4 -15.6,10.8 -69.4,61.1 13.3,18 -0.4,3.7 -16.6,15.2 -18.7,19.3 -4.9,1.1 -25,-10.1 -20.1,-4.9 -17.3,-30.1 5.9,-19.8 -39.1,14.4 -12.4,15.1 -13.08342,0.20322 L 135.5,390.8 166.11658,405.50322 186.5,427.8 V 451 l 24.1,-0.6 36.9,27.9 6.1,23.4 -39.4,50.9 16.67676,-21.54434 24.44254,-8.49082 L 275,531.5 l 37.4,-75.3 78.8,3.1 -26.2,49.6 15,18.8 v 4.1 l -15.1,18.7 -59.9,20.3 22.2,44.6 -51.7,20.7 -14.5,13.2 -30.3,-4.2 -10.4,-16.6 -20.1,31.2 -55.9,-71.7 -17.9,36.6 2.9,20.9 -22,28.4 -20.9,2.4 -35.8,-35.7 -11.6,-73.1 5,-21.1 32.3,-20.7 21.3,4.1 7.1,-18.5 29.9,-10.8 17.3,9.7 -48.3,-31.8 -69.5,-5 -4.6,-26.1 2,-4.4 22.7,-13.7 -26.9,-43.9 4.7,-69 33.4,-23.3 41,-32.2 34.1,-46.3 30.2,-41.8 14,-16.2 37.4,-3.2 16.6,13.6 22.1,-0.1 29.2,26.8 1.9,22 -28.4,31.2 -36.7,17.1 -40,47.1 22.6,-26.6 33.8,1.3 19.1,-13.8 4.1,0.2 17.1,16.2 17.9,-16.3 4.2,-0.3 20,13.6 13.6,-70.8 -24.6,-63.7 -17,8.3 -25.4,-12.5 -3.7,-18.6 -18.9,6.2 -27.1,-16.2 -3.5,-19.6 5.3,-20.9 32.1,-20 21.1,4.5 17.2,-17.6 4.2,-0.6 21.4,12.1 24.7,-9.1 4.6,1.2 17.2,19.9 12.7,22.5 z m -63.1,294.3 1.9,-1.2 17,6.7 14.7,-14.4 3.1,0.2 13.4,15.6 1.8,-17.3 1.8,-0.8 14.2,10.1 12.1,-16.3 3,-0.3 15,13.6 -9.3,21.3 -2.6,40.8 14.4,16.5 -0.1,3.5 -15.6,15.3 -5.2,35 -21.6,9.8 -4,-1.1 -13.9,-19.2 -14,-15.7 0.2,-3.2 15.9,-13.8 -24.1,-22.1 15.1,-32.5 -20.3,8.6 -3.3,-1.2 -10.1,-19.6 z M 160.1,95.3 l 8.5,33.1 -11.1,17.3 -14.5,13.3 -2.8,-0.4 -10.7,-16.5 -8.6,33.5 -39.5,-7.4 17.2,16.9 0.4,4.2 -12.6,20.4 -28.3,30.7 -18.8,-14.1 -0.9,-4 10.4,-21 -19.2,-9.9 -1.1,-3.3 9.2,-19.5 L 48,142.2 32.7,131 v -2.6 L 47.4,116.6 40.8,98.5 56,73.4 75.1,70.9 106,90.2 l 14.3,-17 3.6,-0.5 18.2,12.8 z"
       id="coupes_001"
       stroke="#ff0000"
       stroke-width="1.27" />
    <path
       d="m 106.4,260.8 80.4,50.2 56.4,-25.3 40.3,2.6 42.1,-3 -11.1,98.1 -31,-95.1 -52.8,87.5 -43.9,-64.8 m 56.4,-25.3 -12.5,90.1 31.5,54.8 52.3,-47.2 -3.7,36.9 M 191.6,390.2 186.8,311 135.5,390.8 32,316.3 m 231.5,-69.5 -24.8,-79.9 -68,5.8 56.1,91.2 -86.3,-49.4 46.3,96.5 -121.4,-18 70.1,97.8 -108.2,-5.5 m 211.4,-218.4 53.2,48.7 m 94.9,55 -61.2,14.7 58.3,37 2.9,-51.7 -47.6,-56.1 64.1,-4.3 m -267.8,180.6 51,60.2 -132.3,-21.8 49.4,49.2 m 275.5,-387.9 -39.9,124 51.6,-69.2 63.3,-22.8 -50.8,87.7 -12.5,-64.9 -10.9,-55 74.2,32.2 -17.3,-57.3 M 314.6,150.8 379.1,90.5 320.3,55.9 m 46.5,12 -46.5,-12 -42.8,6.1 37.1,88.8 -46.1,-22.8 9,-66 -58.5,36.4 49.5,29.6 m -14.9,373.7 -67.1,-50.7 -34.6,59.2 62.3,42.4 -69.9,35.4 76,40.5 55.2,7.6 -0.5,-104.6 -60.8,21.1 61.3,83.5 29.5,-65.3 -30,-39.3 90,-22.6 -52.6,-52.7 M 97.6,529.8 151.9,510.2 144.3,588 M 39,567.5 l 58.6,-37.7 28.8,94.8 z m 47.4,108.8 40,-51.7 -75.8,16 m 373.2,-274.2 36,51.1 -52.9,-27.5 16.9,-23.6 17.8,-8 20.8,18.3 m -89.2,1.1 19.4,-12.8 14.3,25 9,54.6 43.9,-27.1 -1.3,35.3 m 0,0 -44.7,24.5 2.1,-32.7 z M 48,142.2 l 33.4,26 24.6,-78 -58.6,26.4 34,51.6 5,41.5 m -37.6,-8.4 -11.1,-32.7 48.7,41.1 -37.6,-8.4 m 9.3,39.1 -9.3,-39.1 m 72.1,-25.7 -14.9,-85.4 36.1,-4.7 -12.6,56.6 28,3.6"
       id="plisM_001"
       stroke="#a52a2a"
       stroke-dasharray="4" />
    <path
       d="M 255.1 330.0 L 259.1 334.0 M 259.1 330.0 L 255.1 334.0 M 297.0 333.8 L 301.0 337.8 M 301.0 333.8 L 297.0 337.8 M 235.0 328.7 L 239.0 332.7 M 239.0 328.7 L 235.0 332.7 M 261.4 285.0 L 265.4 289.0 M 265.4 285.0 L 261.4 289.0 M 244.4 401.2 L 248.4 405.2 M 248.4 401.2 L 244.4 405.2 M 286.3 405.0 L 290.3 409.0 M 290.3 405.0 L 286.3 409.0 M 310.7 399.8 L 314.7 403.8 M 314.7 399.8 L 310.7 403.8 M 206.7 341.4 L 210.7 345.4 M 210.7 341.4 L 206.7 345.4 M 213.0 296.3 L 217.0 300.3 M 217.0 296.3 L 213.0 300.3 M 187.2 348.6 L 191.2 352.6 M 191.2 348.6 L 187.2 352.6 M 159.1 348.9 L 163.1 352.9 M 163.1 348.9 L 159.1 352.9 M 98.5 339.9 L 102.5 343.9 M 102.5 339.9 L 98.5 343.9 M 124.1 300.0 L 128.1 304.0 M 128.1 300.0 L 124.1 304.0 M 144.6 283.9 L 148.6 287.9 M 148.6 283.9 L 144.6 287.9 M 81.8 351.6 L 85.8 355.6 M 85.8 351.6 L 81.8 355.6 M 161.6 260.8 L 165.6 264.8 M 165.6 260.8 L 161.6 264.8 M 181.7 237.2 L 185.7 241.2 M 185.7 237.2 L 181.7 241.2 M 196.8 216.3 L 200.8 220.3 M 200.8 216.3 L 196.8 220.3 M 202.7 167.8 L 206.7 171.8 M 206.7 167.8 L 202.7 171.8 M 249.1 204.9 L 253.1 208.9 M 253.1 204.9 L 249.1 208.9 M 79.4 386.0 L 83.4 390.0 M 83.4 386.0 L 79.4 390.0 M 263.3 189.2 L 267.3 193.2 M 267.3 189.2 L 263.3 193.2 M 302.6 284.8 L 306.6 288.8 M 306.6 284.8 L 302.6 288.8 M 318.0 332.3 L 322.0 336.3 M 322.0 332.3 L 318.0 336.3 M 352.8 301.8 L 356.8 305.8 M 356.8 301.8 L 352.8 305.8 M 354.2 275.9 L 358.2 279.9 M 358.2 275.9 L 354.2 279.9 M 383.4 294.5 L 387.4 298.5 M 387.4 294.5 L 383.4 298.5 M 361.0 240.5 L 365.0 244.5 M 365.0 240.5 L 361.0 244.5 M 369.2 210.4 L 373.2 214.4 M 373.2 210.4 L 369.2 214.4 M 363.0 177.9 L 367.0 181.9 M 367.0 177.9 L 363.0 181.9 M 395.1 175.8 L 399.1 179.8 M 399.1 175.8 L 395.1 179.8 M 159.0 418.9 L 163.0 422.9 M 163.0 418.9 L 159.0 422.9 M 118.3 438.1 L 122.3 442.1 M 122.3 438.1 L 118.3 442.1 M 76.9 451.8 L 80.9 455.8 M 80.9 451.8 L 76.9 455.8 M 420.5 131.9 L 424.5 135.9 M 424.5 131.9 L 420.5 135.9 M 426.7 164.3 L 430.7 168.3 M 430.7 164.3 L 426.7 168.3 M 415.0 104.4 L 419.0 108.4 M 419.0 104.4 L 415.0 108.4 M 383.4 115.8 L 387.4 119.8 M 387.4 115.8 L 383.4 119.8 M 443.5 91.9 L 447.5 95.9 M 447.5 91.9 L 443.5 95.9 M 357.1 150.5 L 361.1 154.5 M 361.1 150.5 L 357.1 154.5 M 344.9 118.7 L 348.9 122.7 M 348.9 118.7 L 344.9 122.7 M 347.7 71.2 L 351.7 75.2 M 351.7 71.2 L 347.7 75.2 M 296.9 56.9 L 300.9 60.9 M 300.9 56.9 L 296.9 60.9 M 294.1 104.4 L 298.1 108.4 M 298.1 104.4 L 294.1 108.4 M 289.5 137.4 L 293.5 141.4 M 293.5 137.4 L 289.5 141.4 M 271.0 93.0 L 275.0 97.0 M 275.0 93.0 L 271.0 97.0 M 241.7 111.2 L 245.7 115.2 M 245.7 111.2 L 241.7 115.2 M 246.3 78.2 L 250.3 82.2 M 250.3 78.2 L 246.3 82.2 M 341.5 59.9 L 345.5 63.9 M 345.5 59.9 L 341.5 63.9 M 167.2 478.6 L 171.2 482.6 M 171.2 478.6 L 167.2 482.6 M 181.1 529.4 L 185.1 533.4 M 185.1 529.4 L 181.1 533.4 M 218.0 474.3 L 222.0 478.3 M 222.0 474.3 L 218.0 478.3 M 146.1 547.1 L 150.1 551.1 M 150.1 547.1 L 146.1 551.1 M 177.3 568.3 L 181.3 572.3 M 181.3 568.3 L 177.3 572.3 M 180.3 606.2 L 184.3 610.2 M 184.3 606.2 L 180.3 610.2 M 242.9 592.4 L 246.9 596.4 M 246.9 592.4 L 242.9 596.4 M 245.9 630.3 L 249.9 634.3 M 249.9 630.3 L 245.9 634.3 M 273.3 581.8 L 277.3 585.8 M 277.3 581.8 L 273.3 585.8 M 242.6 540.0 L 246.6 544.0 M 246.6 540.0 L 242.6 544.0 M 288.2 601.5 L 292.2 605.5 M 292.2 601.5 L 288.2 605.5 M 288.0 549.2 L 292.0 553.2 M 292.0 549.2 L 288.0 553.2 M 318.0 518.2 L 322.0 522.2 M 322.0 518.2 L 318.0 522.2 M 336.7 480.5 L 340.7 484.5 M 340.7 480.5 L 336.7 484.5 M 122.8 518.0 L 126.8 522.0 M 126.8 518.0 L 122.8 522.0 M 110.0 575.2 L 114.0 579.2 M 114.0 575.2 L 110.0 579.2 M 80.7 594.1 L 84.7 598.1 M 84.7 594.1 L 80.7 598.1 M 66.3 546.7 L 70.3 550.7 M 70.3 546.7 L 66.3 550.7 M 86.5 630.6 L 90.5 634.6 M 90.5 630.6 L 86.5 634.6 M 104.4 648.5 L 108.4 652.5 M 108.4 648.5 L 104.4 652.5 M 439.8 389.9 L 443.8 393.9 M 443.8 389.9 L 439.8 393.9 M 413.3 376.2 L 417.3 380.2 M 417.3 376.2 L 413.3 380.2 M 431.4 401.8 L 435.4 405.8 M 435.4 401.8 L 431.4 405.8 M 435.9 429.1 L 439.9 433.1 M 439.9 429.1 L 435.9 433.1 M 409.4 415.3 L 413.4 419.3 M 413.4 415.3 L 409.4 419.3 M 397.8 375.5 L 401.8 379.5 M 401.8 375.5 L 397.8 379.5 M 380.9 369.4 L 384.9 373.4 M 384.9 369.4 L 380.9 373.4 M 450.0 365.5 L 454.0 369.5 M 454.0 365.5 L 450.0 369.5 M 430.7 360.4 L 434.7 364.4 M 434.7 360.4 L 430.7 364.4 M 457.2 433.2 L 461.2 437.2 M 461.2 433.2 L 457.2 437.2 M 435.2 446.7 L 439.2 450.7 M 439.2 446.7 L 435.2 450.7 M 434.2 463.1 L 438.2 467.1 M 438.2 463.1 L 434.2 467.1 M 412.9 459.0 L 416.9 463.0 M 416.9 459.0 L 412.9 463.0 M 74.7 101.4 L 78.7 105.4 M 78.7 101.4 L 74.7 105.4 M 91.7 127.2 L 95.7 131.2 M 95.7 127.2 L 91.7 131.2 M 62.4 140.4 L 66.4 144.4 M 66.4 140.4 L 62.4 144.4 M 62.7 153.2 L 66.7 157.2 M 66.7 153.2 L 62.7 157.2 M 81.9 187.0 L 85.9 191.0 M 85.9 187.0 L 81.9 191.0 M 60.0 187.1 L 64.0 191.1 M 64.0 187.1 L 60.0 191.1 M 65.6 203.5 L 69.6 207.5 M 69.6 203.5 L 65.6 207.5 M 41.3 182.9 L 45.3 186.9 M 45.3 182.9 L 41.3 186.9 M 51.4 218.8 L 55.4 222.8 M 55.4 218.8 L 51.4 222.8 M 111.5 130.9 L 115.5 134.9 M 115.5 130.9 L 111.5 134.9 M 122.0 85.8 L 126.0 89.8 M 126.0 85.8 L 122.0 89.8 M 133.8 111.8 L 137.8 115.8 M 137.8 111.8 L 133.8 115.8 M 141.5 141.9 L 145.5 145.9 M 145.5 141.9 L 141.5 145.9"
       display="none"
       id="marqueM_001"
       stroke="brown" />
    <path
       d="m 314.5,383.4 -83.8,-7.6 m 80.1,44.5 -48.6,10.3 m -70.6,-40.4 -56.1,0.6 m 103.2,-223.9 -11.9,97 m -91.3,126.9 -81.3,38.4 m 49.4,49.2 82.9,-27.4 27.7,101.6 6.1,75.9 M 34.1,473.4 54.2,429.2 m 260.4,-278.4 5.7,-94.9 m -15.3,514.9 60,-61.9 -0.1,41.6 M 144.3,588 97.6,529.8 m 295,-164.8 31.2,1.4 38.6,10.3 M 406.9,390 373.2,377.8 m 80.1,110 -39.5,-10.5 m 27.8,-118.9 30.1,-3 M 47.4,116.6 75.1,70.9 M 48,142.2 47.4,116.6 m 34,51.6 -43.7,0.4 m 68.3,-78.4 23.5,51.9 m 12.6,-56.6 15.4,60.2"
       id="plisV_001"
       stroke="#008000"
       stroke-dasharray="4, 1, 1, 1"
       stroke-width="1.27" />
    <path
       d="M 270.6 377.6 L 274.6 381.6 M 274.6 377.6 L 270.6 381.6 M 284.5 423.5 L 288.5 427.5 M 288.5 423.5 L 284.5 427.5 M 161.6 388.5 L 165.6 392.5 M 165.6 388.5 L 161.6 392.5 M 230.8 213.4 L 234.8 217.4 M 234.8 213.4 L 230.8 217.4 M 92.9 408.0 L 96.9 412.0 M 96.9 408.0 L 92.9 412.0 M 143.0 462.7 L 147.0 466.7 M 147.0 462.7 L 143.0 466.7 M 42.2 449.3 L 46.2 453.3 M 46.2 449.3 L 42.2 453.3 M 315.5 101.4 L 319.5 105.4 M 319.5 101.4 L 315.5 105.4 M 198.4 499.8 L 202.4 503.8 M 202.4 499.8 L 198.4 503.8 M 215.3 588.5 L 219.3 592.5 M 219.3 588.5 L 215.3 592.5 M 333.0 537.8 L 337.0 541.8 M 337.0 537.8 L 333.0 541.8 M 363.0 527.7 L 367.0 531.7 M 367.0 527.7 L 363.0 531.7 M 118.9 556.9 L 122.9 560.9 M 122.9 556.9 L 118.9 560.9 M 441.1 369.5 L 445.1 373.5 M 445.1 369.5 L 441.1 373.5 M 406.2 363.7 L 410.2 367.7 M 410.2 363.7 L 406.2 367.7 M 388.1 381.9 L 392.1 385.9 M 392.1 381.9 L 388.1 385.9 M 431.6 480.5 L 435.6 484.5 M 435.6 480.5 L 431.6 484.5 M 454.6 354.9 L 458.6 358.9 M 458.6 354.9 L 454.6 358.9 M 59.2 91.7 L 63.2 95.7 M 63.2 91.7 L 59.2 95.7 M 45.7 127.4 L 49.7 131.4 M 49.7 127.4 L 45.7 131.4 M 57.6 166.4 L 61.6 170.4 M 61.6 166.4 L 57.6 170.4 M 115.7 114.2 L 119.7 118.2 M 119.7 114.2 L 115.7 118.2 M 147.8 113.6 L 151.8 117.6 M 151.8 113.6 L 147.8 117.6"
       id="marqueV_001"
       stroke="green" />
    <g
       id="nums_001">
      <path
         d="m 264.52599,285.05817 1.2,-0.5 0.4,-0.9 0.1,-1 -0.3,-1 -0.8,-0.6 -1.4,-0.6 -1.1,-0.6 -0.7,-1 -0.3,-1 0.1,-1.5 0.4,-1 0.4,-0.5 1.2,-0.4 1.5,0.1 1.1,0.6 0.3,0.5 0.3,1 -0.1,1.5 -0.4,1 -0.8,0.9 -1.2,0.5 -1.5,0.4 -0.8,0.4 -0.4,1 -0.1,1 0.3,1 1.1,0.6 1.7,0.1"
         stroke="#000000"
         stroke-width="1"
         id="path1" />
      <path
         d="m 239.6986,401.01081 0.8,0.4 1.9,0.3 -9.1,5.2 m 10.9,-2.8 -1,-0.7 -1,0.2 -0.9,0.5 -0.7,0.8 v 0.9 l 0.3,1.6 0.1,1.2 -0.5,1.1 -0.7,0.9 -1.3,0.7 -1,0.2 -0.6,-0.1 -1,-0.7 -0.8,-1.3 -0.1,-1.3 0.2,-0.5 0.7,-0.9 1.3,-0.7 1.1,-0.2 1.2,0.2 1,0.7 1.2,1.1 0.8,0.4 1,-0.2 0.9,-0.5 0.7,-0.8 -0.1,-1.3 -0.9,-1.4"
         stroke="#000000"
         stroke-width="1"
         id="path2" />
      <path
         d="m 316.33317,405.9231 -0.4,-0.8 -1.4,-1.2 10.4,1 m -8.7,-6.6 -1.1,0.3 -0.6,1.1 v 0.7 l 0.3,1.2 1.5,0.9 2.4,0.6 2.5,0.2 2,-0.2 1.1,-0.6 0.6,-1.1 v -0.3 l -0.3,-1.2 -1,-0.9 -1.4,-0.5 h -0.5 l -1.6,0.2 -1,0.7 -0.6,1 -0.1,0.4 0.4,1.2 0.9,0.8 1.5,0.5"
         stroke="#000000"
         stroke-width="1"
         id="path3" />
      <path
         d="m 283.60974,431.86493 0.6,-0.7 0.8,-1.7 2.2,10.3 m 3.9,-11.9 -1.5,11 m -3.7,-9.9 5.2,-1.1"
         stroke="#000000"
         stroke-width="1"
         id="path4" />
      <path
         d="m 218.39786,295.1217 -3.7,1.7 0.4,-4.6 -1,0.5 -0.9,-0.1 -0.6,-0.3 -0.9,-1.3 -0.4,-0.9 -0.3,-1.5 0.3,-1.2 0.8,-0.9 1,-0.5 h 1.2 l 0.6,0.3 0.7,0.8 m -3.2,8.2 -0.5,0.7 -0.4,1.9 -4.3,-9.6"
         stroke="#000000"
         stroke-width="1"
         id="path5" />
      <path
         d="M 203.1 373.8 L 203.6 373.1 L 204.1 371.3 L 207.8 381.1 M 210.9 372.2 L 211.1 373.7 L 210.7 374.9 L 209.8 375.7 L 209.5 375.9 L 208.3 375.8 L 207.2 375.1 L 206.3 373.8 L 206.2 373.4 L 206.0 371.8 L 206.3 370.6 L 207.2 369.8 L 207.6 369.7 L 208.8 369.7 L 209.9 370.4 L 210.9 372.2 L 211.8 374.5 L 212.3 377.0 L 212.1 378.6 L 211.2 379.5 L 210.5 379.8 L 209.3 379.7 L 208.6 378.9"
         stroke="black"
         stroke-width="1"
         id="path6" />
      <path
         d="m 169.12343,395.2476 v -0.5 l 0.3,-1 0.4,-0.5 0.8,-0.5 h 1.5 l 0.7,0.5 0.4,0.5 0.4,1 v 1 l -0.4,1 -0.7,1.5 -3.7,5 h 5.2 m 1,-8.2 0.8,-0.5 1.1,-1.5 0.1,10.5"
         stroke="#000000"
         stroke-width="1"
         id="path7" />
      <path
         d="M 96.7 286.0 L 95.3 278.2 L 90.9 281.7 M 96.7 286.0 L 90.2 277.8 M 92.2 286.3 L 92.5 286.7 L 92.8 287.7 L 92.9 288.3 L 92.6 289.2 L 91.4 290.1 L 90.5 290.2 L 89.9 290.0 L 89.0 289.5 L 88.4 288.7 L 88.0 287.7 L 87.7 286.0 L 87.6 279.8 L 83.4 283.0"
         stroke="black"
         stroke-width="1"
         id="path8" />
      <path
         d="M 58.0 314.9 L 61.1 312.8 L 58.8 308.9 L 58.8 309.5 L 58.2 310.6 L 57.3 311.2 L 56.1 311.4 L 54.9 311.0 L 53.7 310.0 L 53.1 309.2 L 52.6 307.8 L 52.6 306.5 L 53.3 305.5 L 54.2 304.8 L 55.4 304.6 L 56.0 304.8 L 56.9 305.4 M 54.6 317.3 L 55.2 316.3 L 55.0 314.6 L 53.9 312.4 L 53.0 311.1 L 51.3 309.3 L 49.8 308.5 L 48.6 308.7 L 48.0 309.1 L 47.3 310.2 L 47.6 311.9 L 48.7 314.1 L 49.6 315.4 L 51.3 317.2 L 52.8 318.0 L 54.0 317.8 L 54.4 317.4"
         stroke="black"
         stroke-width="1"
         id="path9" />
      <path
         d="M 137.8 241.4 L 135.3 244.7 L 133.4 240.5 L 132.8 241.4 L 131.9 241.8 L 131.3 241.8 L 129.9 241.2 L 129.1 240.6 L 128.1 239.4 L 127.7 238.2 L 128.0 237.0 L 128.7 236.1 L 129.7 235.5 L 130.4 235.5 L 131.4 235.8 M 128.7 247.8 L 127.7 246.6 L 127.3 245.4 L 127.6 244.2 L 127.8 243.9 L 128.9 243.3 L 130.2 243.3 L 131.6 243.9 L 132.0 244.2 L 133.0 245.4 L 133.3 246.6 L 133.1 247.8 L 132.8 248.1 L 131.8 248.7 L 130.5 248.7 L 128.7 247.8 L 126.7 246.3 L 124.9 244.6 L 124.1 243.1 L 124.4 241.9 L 124.8 241.3 L 125.9 240.6 L 126.9 240.9"
         stroke="black"
         stroke-width="1"
         id="path10" />
      <path
         d="M 192.7 282.7 L 195.4 279.6 L 197.0 283.9 L 197.7 283.0 L 198.6 282.8 L 199.2 282.8 L 200.6 283.5 L 201.4 284.2 L 202.3 285.4 L 202.6 286.6 L 202.2 287.8 L 201.5 288.7 L 200.4 289.2 L 199.7 289.2 L 198.7 288.8 M 198.2 280.0 L 198.3 279.1 L 197.8 277.3 L 205.8 284.1"
         stroke="black"
         stroke-width="1"
         id="path11" />
      <path
         d="M 170.2 197.0 L 167.7 200.3 L 165.8 196.1 L 165.2 197.1 L 164.3 197.4 L 163.7 197.4 L 162.3 196.8 L 161.4 196.2 L 160.5 195.0 L 160.1 193.8 L 160.3 192.6 L 161.0 191.7 L 162.1 191.1 L 162.7 191.1 L 163.7 191.4 M 164.6 204.8 L 161.1 197.7 L 157.8 202.2 M 164.6 204.8 L 156.1 198.7"
         stroke="black"
         stroke-width="1"
         id="path12" />
      <path
         d="m 204.71914,167.24662 3.7,-0.4 v -4.5 l -0.3,0.6 -1.1,0.5 -1.1,0.1 -1.2,-0.4 -0.8,-0.9 -0.5,-1.4 -0.1,-1 0.3,-1.6 0.6,-1 1.1,-0.6 1.1,-0.1 1.2,0.4 0.4,0.4 0.5,1 m -5.8,6.7 -0.7,0.5 -1,1.6 -0.9,-10.4"
         stroke="#000000"
         stroke-width="1"
         id="path13" />
      <path
         d="M 238.3 243.4 L 237.5 244.3 L 237.6 245.4 L 238.0 246.3 L 238.8 247.0 L 239.6 247.1 L 241.2 247.0 L 242.4 246.9 L 243.5 247.5 L 244.3 248.3 L 244.9 249.6 L 245.0 250.7 L 244.9 251.3 L 244.1 252.3 L 242.7 252.9 L 241.5 252.9 L 240.9 252.6 L 240.2 251.9 L 239.5 250.5 L 239.5 249.4 L 239.7 248.2 L 240.5 247.3 L 241.7 246.2 L 242.2 245.4 L 242.1 244.4 L 241.7 243.5 L 240.9 242.7 L 239.7 242.7 L 238.1 243.4"
         stroke="black"
         stroke-width="1"
         id="path14" />
      <path
         d="M 42.0 350.1 L 43.0 349.8 L 43.6 348.7 L 43.6 347.9 L 43.2 346.8 L 41.8 345.9 L 39.3 345.4 L 36.8 345.2 L 34.8 345.5 L 33.7 346.1 L 33.2 347.2 L 33.1 347.6 L 33.6 348.8 L 34.5 349.6 L 36.0 350.0 L 36.5 350.1 L 38.0 349.8 L 39.0 349.1 L 39.6 348.0 L 39.6 347.7 L 39.2 346.5 L 38.3 345.7 L 36.8 345.2 M 43.3 352.5 L 43.0 356.6 L 39.2 354.0 L 39.1 355.2 L 38.6 355.9 L 38.1 356.2 L 36.5 356.5 L 35.5 356.4 L 34.1 356.0 L 33.1 355.1 L 32.7 354.0 L 32.8 352.9 L 33.3 351.8 L 33.9 351.4 L 34.9 351.1"
         stroke="black"
         stroke-width="1"
         id="path15" />
      <path
         d="M 50.4 399.5 L 51.0 398.7 L 50.9 397.5 L 50.5 396.8 L 49.5 396.1 L 47.8 396.3 L 45.5 397.2 L 43.3 398.5 L 41.8 399.9 L 41.4 401.1 L 41.5 402.3 L 41.7 402.6 L 42.7 403.3 L 44.0 403.4 L 45.5 403.0 L 45.9 402.7 L 47.0 401.6 L 47.4 400.4 L 47.3 399.2 L 47.1 398.9 L 46.1 398.2 L 44.8 398.1 L 43.3 398.5 M 53.7 402.0 L 52.6 401.3 L 51.0 401.4 L 48.6 402.4 L 47.4 403.2 L 45.4 404.8 L 44.5 406.2 L 44.7 407.5 L 45.1 408.1 L 46.1 408.8 L 47.8 408.7 L 50.1 407.7 L 51.4 406.9 L 53.3 405.3 L 54.2 403.8 L 54.0 402.6 L 53.8 402.1"
         stroke="black"
         stroke-width="1"
         id="path16" />
      <path
         d="m 271.11188,193.47368 -3,-2.8 4.4,-1.4 -0.9,-0.8 -0.2,-0.9 0.1,-0.6 0.7,-1.3 0.7,-0.8 1.3,-0.8 1.2,-0.3 1.2,0.4 0.8,0.8 0.5,1.1 -0.1,0.6 -0.4,1 m -11,1.5 -3,-2.8 4.3,-1.4 -0.8,-0.8 -0.2,-0.9 0.1,-0.6 0.7,-1.4 0.7,-0.7 1.3,-0.8 1.2,-0.3 1.2,0.4 0.8,0.8 0.5,1.1 -0.1,0.6 -0.4,1"
         stroke="#000000"
         stroke-width="1"
         id="path17" />
      <path
         d="M 268.9 220.4 L 274.2 230.2 M 265.4 224.3 L 268.9 220.4"
         stroke="black"
         stroke-width="1"
         id="path18" />
      <path
         d="m 301.7538,284.64951 3,-10.8 m 2.3,10.4 -5.3,0.4"
         stroke="#000000"
         stroke-width="1"
         id="path19" />
      <path
         d="M 339.5 343.0 L 339.0 344.2 L 339.4 345.8 L 340.8 347.9 L 341.8 349.0 L 343.7 350.7 L 345.3 351.3 L 346.4 350.9 L 347.0 350.4 L 347.5 349.3 L 347.1 347.7 L 345.7 345.6 L 344.7 344.4 L 342.8 342.8 L 341.3 342.2 L 340.1 342.5 L 339.7 342.9"
         stroke="black"
         stroke-width="1"
         id="path20" />
      <path
         d="m 387.3476,299.01444 6.7,4.2 0.4,-5.6 m -7.1,1.4 10.5,0.6 m -10.2,-4.3 0.2,-4.1 3.9,2.4 v -1.1 l 0.6,-0.7 0.5,-0.4 1.5,-0.2 h 1 l 1.5,0.5 1,0.8 0.4,1.1 -0.1,1.1 -0.5,1.1 -0.6,0.4 -1,0.3"
         stroke="#000000"
         stroke-width="1"
         id="path21" />
      <path
         d="M 347.0 247.1 L 346.2 251.1 L 342.7 248.2 L 342.5 249.3 L 341.8 249.9 L 341.3 250.2 L 339.7 250.3 L 338.7 250.1 L 337.3 249.4 L 336.5 248.5 L 336.2 247.3 L 336.4 246.2 L 337.1 245.2 L 337.7 244.9 L 338.7 244.8 M 345.8 253.4 L 345.0 257.4 L 341.5 254.5 L 341.3 255.6 L 340.6 256.2 L 340.1 256.5 L 338.5 256.6 L 337.5 256.4 L 336.1 255.7 L 335.3 254.8 L 335.0 253.6 L 335.2 252.5 L 335.9 251.5 L 336.5 251.2 L 337.5 251.0"
         stroke="black"
         stroke-width="1"
         id="path22" />
      <path
         d="M 380.9 239.5 L 386.7 245.0 L 388.2 239.6 M 380.9 239.5 L 391.1 242.3 M 384.5 232.7 L 383.4 232.8 L 382.6 233.7 L 382.4 234.4 L 382.6 235.6 L 383.9 236.8 L 386.2 237.8 L 388.6 238.4 L 390.6 238.6 L 391.8 238.1 L 392.6 237.2 L 392.7 236.8 L 392.5 235.6 L 391.7 234.6 L 390.4 233.9 L 389.9 233.7 L 388.3 233.7 L 387.2 234.2 L 386.4 235.1 L 386.3 235.5 L 386.5 236.7 L 387.2 237.7 L 388.6 238.4"
         stroke="black"
         stroke-width="1"
         id="path23" />
      <path
         d="m 170.19274,424.95148 -0.4,0.3 -1,0.3 -0.6,0.1 -0.9,-0.3 -0.9,-1.1 -0.1,-0.9 0.1,-0.6 0.5,-1 0.8,-0.6 1,-0.4 1.6,-0.4 6.3,-0.3 -3.4,-4 m -9.3,-0.1 1.4,-0.7 1.2,-0.1 1.1,0.5 0.3,0.3 0.3,1.2 -0.2,1.2 -0.9,1.3 -0.4,0.3 -1.4,0.7 -1.3,0.1 -1.1,-0.6 -0.2,-0.3 -0.4,-1.1 0.3,-1.3 1.3,-1.5 1.9,-1.7 2.2,-1.3 1.6,-0.4 1.1,0.6 0.5,0.5 0.3,1.2 -0.5,0.9"
         stroke="#000000"
         stroke-width="1"
         id="path24" />
      <path
         d="M 63.8 464.3 L 63.9 463.8 L 64.3 462.8 L 64.7 462.3 L 65.5 461.9 L 67.0 462.0 L 67.7 462.6 L 68.1 463.1 L 68.4 464.1 L 68.3 465.1 L 67.8 466.1 L 67.0 467.5 L 62.9 472.2 L 68.1 472.6 M 74.4 464.0 L 74.1 463.0 L 73.1 462.4 L 72.3 462.4 L 71.1 462.8 L 70.3 464.2 L 69.7 466.7 L 69.6 469.2 L 69.8 471.2 L 70.5 472.3 L 71.5 472.9 L 71.9 472.9 L 73.1 472.5 L 73.9 471.5 L 74.4 470.1 L 74.4 469.6 L 74.2 468.0 L 73.5 467.0 L 72.4 466.4 L 72.0 466.4 L 70.9 466.8 L 70.0 467.7 L 69.6 469.2"
         stroke="black"
         stroke-width="1"
         id="path25" />
      <path
         d="m 41.904376,447.90652 1.1,0.1 0.9,-0.8 0.3,-0.7 v -1.2 l -1,-1.3 -2.1,-1.4 -2.3,-1 -2,-0.5 -1.2,0.3 -0.9,0.8 -0.2,0.3 v 1.2 l 0.6,1.1 1.2,1 0.5,0.2 1.5,0.3 1.2,-0.3 0.9,-0.8 0.2,-0.3 v -1.3 l -0.6,-1.1 -1.2,-0.9 m 1.3,7.9 0.5,0.2 0.7,0.8 0.3,0.5 0.2,0.9 -0.7,1.4 -0.7,0.5 -0.6,0.1 -1.1,-0.1 -0.9,-0.4 -0.8,-0.7 -1,-1.3 -3,-5.5 -2.2,4.8"
         stroke="#000000"
         stroke-width="1"
         id="path26" />
      <path
         d="M 449.1 165.9 L 456.7 168.1 L 455.6 162.6 M 449.1 165.9 L 459.4 163.7 M 447.7 158.5 L 448.4 162.2 L 452.9 161.6 L 452.3 161.3 L 451.6 160.3 L 451.4 159.2 L 451.6 158.0 L 452.5 157.1 L 453.9 156.4 L 454.8 156.2 L 456.4 156.3 L 457.5 156.8 L 458.2 157.8 L 458.5 158.9 L 458.2 160.1 L 457.8 160.6 L 456.9 161.2"
         stroke="black"
         stroke-width="1"
         id="path27" />
      <path
         d="M 431.3 191.0 L 428.9 198.6 L 434.4 197.6 M 431.3 191.0 L 433.2 201.3 M 439.3 189.6 L 437.5 200.6 M 434.2 190.6 L 439.3 189.6"
         stroke="black"
         stroke-width="1"
         id="path28" />
      <path
         d="m 449.01295,94.158499 -0.8,0.6 -0.2,1.2 0.2,0.7 0.8,1 1.7,0.3 2.5,-0.4 2.4,-0.7 1.8,-1 0.7,-1 0.2,-1.2 -0.1,-0.3 -0.8,-1 -1.2,-0.4 -1.6,0.1 -0.4,0.1 -1.4,0.8 -0.7,1 -0.2,1.2 0.1,0.4 0.8,0.9 1.2,0.5 1.6,-0.1 m -9.7,-7.5 7.8,1.5 -1.7,-5.4 m -6.1,3.9 10,-3.1"
         stroke="#000000"
         stroke-width="1"
         id="path29" />
      <path
         d="M 413.4 90.7 L 414.0 82.8 L 408.9 85.0 M 413.4 90.7 L 409.2 81.1"
         stroke="black"
         stroke-width="1"
         id="path30" />
      <path
         d="M 339.1 176.1 L 337.8 172.6 L 333.4 173.8 L 334.0 174.0 L 334.9 174.9 L 335.3 175.9 L 335.2 177.2 L 334.6 178.2 L 333.3 179.1 L 332.4 179.5 L 330.9 179.7 L 329.6 179.3 L 328.8 178.5 L 328.4 177.4 L 328.4 176.2 L 328.8 175.6 L 329.6 174.9 M 337.6 178.6 L 338.3 179.1 L 340.1 179.7 L 330.3 183.4"
         stroke="black"
         stroke-width="1"
         id="path31" />
      <path
         d="m 303.31625,56.984162 -4.1,0.6 1.7,-4.3 -1.2,0.1 -0.8,-0.3 -0.4,-0.5 -0.6,-1.4 -0.1,-1 0.1,-1.5 0.6,-1.1 1.1,-0.7 1.1,-0.2 1.2,0.4 0.4,0.4 0.5,1 m -9.6,9.9 3.7,-0.5 -0.2,-4.5 -0.3,0.5 -1.1,0.7 -1.1,0.1 -1.2,-0.3 -0.8,-0.9 -0.6,-1.4 -0.2,-1 0.2,-1.5 0.6,-1.1 1,-0.7 1.2,-0.2 1.1,0.4 0.5,0.4 0.5,1"
         stroke="#000000"
         stroke-width="1"
         id="path32" />
      <path
         d="M 292.4 124.5 L 296.1 126.3 L 292.3 128.9 L 293.4 129.4 L 293.8 130.2 L 293.9 130.8 L 293.6 132.3 L 293.1 133.2 L 292.1 134.4 L 291.0 135.0 L 289.8 134.9 L 288.8 134.4 L 288.0 133.5 L 287.9 132.9 L 288.0 131.8 M 301.1 128.7 L 294.6 133.3 L 299.7 135.8 M 301.1 128.7 L 296.5 138.1"
         stroke="black"
         stroke-width="1"
         id="path33" />
      <path
         d="m 237.45743,112.28407 3.5,2.1 -4,2.3 1,0.6 0.4,0.8 0.1,0.6 -0.5,1.5 -0.5,0.8 -1.1,1.1 -1.1,0.5 -1.3,-0.1 -0.9,-0.6 -0.7,-1 -0.1,-0.6 0.2,-1.1 m 12.3,1.5 -1.1,1.1 -1.2,0.5 -1.2,-0.2 -0.3,-0.2 -0.7,-1 -0.2,-1.2 0.5,-1.5 0.2,-0.4 1.1,-1.1 1.2,-0.5 1.2,0.2 0.3,0.2 0.7,1 0.2,1.2 -0.7,1.9 -1.3,2.2 -1.6,1.9 -1.4,0.9 -1.3,-0.1 -0.6,-0.4 -0.7,-1 0.2,-1.1"
         stroke="#000000"
         stroke-width="1"
         id="path34" />
      <path
         d="m 249.76898,76.510151 -0.5,-7.9 -4.8,3 m 5.3,4.9 -5.5,-8.9 m 1,11.7 0.7,-1.1 -0.2,-1.6 -1,-2.3 -0.8,-1.3 -1.6,-1.9 -1.5,-0.9 -1.2,0.2 -0.6,0.3 -0.7,1.1 0.2,1.6 1,2.4 0.8,1.2 1.6,2 1.4,0.8 1.2,-0.1 0.5,-0.3"
         stroke="#000000"
         stroke-width="1"
         id="path35" />
      <path
         d="m 347.01551,61.184162 5.3,-5.8 -5.4,-1.4 m 0.1,7.2 2.6,-10.1 m -9.4,8.4 5.4,-5.8 -5.5,-1.5 m 0.1,7.3 2.6,-10.2"
         stroke="#000000"
         stroke-width="1"
         id="path36" />
      <path
         d="m 363.22492,80.851652 -0.5,0.3 -1,0.1 -0.6,-0.1 -0.8,-0.4 -0.8,-1.3 0.1,-0.9 0.3,-0.6 0.7,-0.8 0.9,-0.5 1,-0.1 1.7,-0.1 6.2,0.9 -2.5,-4.6 m -10.9,2 1,0.8 1.6,-0.1 2.4,-0.8 1.3,-0.8 2.1,-1.5 0.9,-1.4 -0.1,-1.2 -0.3,-0.6 -1,-0.8 -1.7,0.1 -2.4,0.8 -1.3,0.7 -2,1.6 -1,1.3 0.1,1.3 0.3,0.5"
         stroke="#000000"
         stroke-width="1"
         id="path37" />
      <path
         d="M 129.1 481.7 L 129.3 481.3 L 130.2 480.6 L 130.8 480.4 L 131.7 480.4 L 132.9 481.2 L 133.3 482.1 L 133.3 482.7 L 133.1 483.7 L 132.5 484.6 L 131.7 485.2 L 130.2 486.0 L 124.3 488.2 L 128.7 491.0 M 139.7 485.7 L 130.8 492.4 M 135.3 482.8 L 139.7 485.7"
         stroke="black"
         stroke-width="1"
         id="path38" />
      <path
         d="m 227.59744,476.15924 -0.9,-0.1 -1.8,0.6 6.3,-8.4 m -6.5,5.5 -0.3,0.4 -0.9,0.6 -0.6,0.2 -0.9,-0.1 -1.2,-0.9 -0.3,-0.8 v -0.6 l 0.3,-1.1 0.6,-0.8 0.9,-0.5 1.5,-0.8 6,-1.7 -4.2,-3.2"
         stroke="#000000"
         stroke-width="1"
         id="path39" />
      <path
         d="M 223.1 522.4 L 223.2 521.5 L 222.7 519.7 L 231.0 526.1 M 224.9 520.1 L 225.0 519.2 L 224.5 517.4 L 232.8 523.8"
         stroke="black"
         stroke-width="1"
         id="path40" />
      <path
         d="m 242.01914,635.93605 0.8,-0.4 1.3,-1.3 -1.4,10.4 m 3.4,-10.5 4,0.6 -2.7,3.6 1.1,0.2 0.7,0.6 0.3,0.5 0.1,1.5 -0.1,1 -0.6,1.5 -0.9,0.9 -1.2,0.3 -1.1,-0.2 -1,-0.6 -0.3,-0.5 -0.3,-1.1"
         stroke="#000000"
         stroke-width="1"
         id="path41" />
      <path
         d="m 248.5832,535.84951 -0.6,0.7 -0.5,1.8 -3.5,-9.9 m 1.8,8.3 -0.5,0.8 -0.6,1.7 -3.5,-9.9"
         stroke="#000000"
         stroke-width="1"
         id="path42" />
      <path
         d="m 370.26782,533.79134 -0.5,-0.8 -1.5,-1.1 h 10.5 m -7.4,-6 1.5,0.3 1,0.8 0.5,1.1 v 0.4 l -0.5,1.1 -1,0.8 -1.5,0.3 h -0.5 l -1.5,-0.3 -1,-0.8 -0.5,-1.1 v -0.4 l 0.5,-1.1 1,-0.8 2,-0.3 h 2.5 l 2.5,0.3 1.5,0.8 0.5,1.1 v 0.8 l -0.5,1.1 -1,0.4"
         stroke="#000000"
         stroke-width="1"
         id="path43" />
      <path
         d="M 326.9 551.4 L 327.5 550.7 L 328.1 548.9 L 331.4 558.8 M 330.8 547.6 L 329.9 548.4 L 329.9 549.5 L 330.2 550.4 L 330.9 551.2 L 331.8 551.5 L 333.4 551.5 L 334.6 551.6 L 335.6 552.3 L 336.3 553.1 L 336.8 554.5 L 336.7 555.6 L 336.5 556.2 L 335.6 557.0 L 334.2 557.5 L 333.0 557.4 L 332.5 557.0 L 331.8 556.2 L 331.3 554.8 L 331.4 553.7 L 331.7 552.5 L 332.6 551.7 L 333.9 550.7 L 334.5 550.0 L 334.5 549.0 L 334.2 548.0 L 333.5 547.2 L 332.3 547.1 L 330.7 547.6"
         stroke="black"
         stroke-width="1"
         id="path44" />
      <path
         d="M 306.1 494.7 L 306.2 495.6 L 307.0 497.2 L 297.6 492.6 M 304.3 497.9 L 304.7 498.1 L 305.5 498.9 L 305.7 499.5 L 305.9 500.4 L 305.2 501.7 L 304.4 502.2 L 303.8 502.3 L 302.7 502.2 L 301.8 501.7 L 301.1 500.9 L 300.1 499.6 L 297.3 494.0 L 295.0 498.7"
         stroke="black"
         stroke-width="1"
         id="path45" />
      <path
         d="M 365.4 484.0 L 365.0 483.8 L 364.3 483.0 L 364.0 482.4 L 363.9 481.5 L 364.6 480.2 L 365.4 479.7 L 366.0 479.6 L 367.1 479.8 L 368.0 480.3 L 368.7 481.1 L 369.7 482.4 L 372.3 488.1 L 374.8 483.4 M 368.1 478.7 L 368.0 477.8 L 367.2 476.1 L 376.5 481.0"
         stroke="black"
         stroke-width="1"
         id="path46" />
      <path
         d="M 357.3 469.2 L 357.2 469.7 L 356.8 470.7 L 356.4 471.2 L 355.7 471.6 L 354.2 471.6 L 353.4 471.0 L 353.1 470.5 L 352.7 469.5 L 352.8 468.5 L 353.2 467.5 L 354.0 466.1 L 358.0 461.2 L 352.7 461.0 M 346.4 467.8 L 346.8 466.3 L 347.6 465.3 L 348.7 464.9 L 349.1 464.9 L 350.2 465.4 L 350.9 466.4 L 351.2 468.0 L 351.2 468.5 L 350.8 469.9 L 350.0 470.9 L 348.9 471.4 L 348.5 471.3 L 347.4 470.8 L 346.7 469.8 L 346.4 467.8 L 346.5 465.3 L 346.9 462.8 L 347.8 461.3 L 348.9 460.9 L 349.6 460.9 L 350.8 461.4 L 351.1 462.4"
         stroke="black"
         stroke-width="1"
         id="path47" />
      <path
         d="M 198.3 641.7 L 198.3 640.8 L 197.6 639.0 L 206.4 644.7 M 201.7 634.8 L 200.6 634.6 L 199.6 635.3 L 199.2 635.9 L 199.0 637.1 L 199.8 638.6 L 201.7 640.3 L 203.8 641.6 L 205.7 642.4 L 207.0 642.3 L 208.0 641.6 L 208.2 641.3 L 208.4 640.1 L 208.0 638.9 L 206.9 637.8 L 206.5 637.5 L 205.0 637.0 L 203.8 637.1 L 202.7 637.8 L 202.5 638.1 L 202.4 639.3 L 202.8 640.5 L 203.8 641.6"
         stroke="black"
         stroke-width="1"
         id="path48" />
      <path
         d="M 178.4 613.2 L 179.3 613.5 L 181.2 613.5 L 172.9 619.9 M 184.9 617.7 L 182.6 614.7 L 178.8 617.2 L 179.4 617.2 L 180.5 617.8 L 181.2 618.7 L 181.5 619.9 L 181.2 621.1 L 180.2 622.3 L 179.4 622.9 L 178.0 623.5 L 176.8 623.5 L 175.7 623.0 L 175.0 622.1 L 174.7 620.9 L 174.9 620.3 L 175.4 619.4"
         stroke="black"
         stroke-width="1"
         id="path49" />
      <path
         d="m 128.2354,513.68127 0.2,0.4 v 1.1 l -0.2,0.6 -0.6,0.7 -1.4,0.5 -0.8,-0.2 -0.6,-0.3 -0.7,-0.8 -0.3,-1 v -1 l 0.2,-1.7 1.8,-6 -4.9,1.8 m -2.3,12 v -11.1 m 4.9,9.3 -4.9,1.8"
         stroke="#000000"
         stroke-width="1"
         id="path50" />
      <path
         d="M 292.8 616.9 L 293.3 616.2 L 293.8 614.4 L 297.7 624.1 M 295.4 613.3 L 299.3 611.8 L 298.7 616.3 L 299.7 615.9 L 300.6 616.1 L 301.1 616.4 L 302.0 617.7 L 302.4 618.6 L 302.6 620.1 L 302.3 621.3 L 301.4 622.2 L 300.4 622.6 L 299.2 622.6 L 298.6 622.3 L 297.9 621.5"
         stroke="black"
         stroke-width="1"
         id="path51" />
      <path
         d="M 307.9 602.2 L 307.1 601.8 L 305.3 601.5 L 314.7 596.8 M 302.2 596.0 L 313.2 594.7 M 304.5 600.7 L 302.2 596.0"
         stroke="black"
         stroke-width="1"
         id="path52" />
      <path
         d="M 123.0 605.7 L 122.8 604.8 L 122.0 603.2 L 131.4 607.8 M 123.8 598.4 L 128.5 604.8 L 130.9 599.7 M 123.8 598.4 L 133.3 603.0"
         stroke="black"
         stroke-width="1"
         id="path53" />
      <path
         d="m 69.937213,541.83325 0.3,0.5 0.2,1 v 0.6 l -0.4,0.9 -1.3,0.8 h -0.9 l -0.6,-0.3 -0.8,-0.6 -0.6,-0.8 -0.2,-1.1 -0.2,-1.7 0.5,-6.2 -4.4,2.9 m 0.1,10.6 0.8,0.6 1.2,-0.2 0.7,-0.4 0.6,-1 -0.1,-1.7 -1.1,-2.3 -1.3,-2.1 -1.4,-1.4 -1.2,-0.5 -1.2,0.2 -0.3,0.2 -0.7,1 -0.1,1.3 0.5,1.5 0.3,0.4 1.1,1 1.2,0.5 1.2,-0.2 0.3,-0.2 0.7,-1.1 0.1,-1.2 -0.5,-1.5"
         stroke="#000000"
         stroke-width="1"
         id="path54" />
      <path
         d="M 58.1 600.2 L 57.5 596.5 L 53.0 596.8 L 53.5 597.1 L 54.2 598.1 L 54.4 599.3 L 54.1 600.4 L 53.2 601.3 L 51.8 602.0 L 50.8 602.1 L 49.2 602.0 L 48.1 601.4 L 47.5 600.4 L 47.3 599.2 L 47.6 598.1 L 48.0 597.6 L 49.0 597.1 M 57.6 606.8 L 58.5 606.3 L 58.8 605.1 L 58.7 604.3 L 58.1 603.3 L 56.5 602.8 L 53.9 602.8 L 51.5 603.2 L 49.5 603.9 L 48.7 604.8 L 48.4 606.0 L 48.4 606.3 L 49.1 607.4 L 50.2 608.0 L 51.7 608.1 L 52.2 608.0 L 53.6 607.4 L 54.5 606.5 L 54.8 605.3 L 54.8 605.0 L 54.1 603.9 L 53.0 603.3 L 51.5 603.2"
         stroke="black"
         stroke-width="1"
         id="path55" />
      <path
         d="m 107.1552,653.38011 -2.3,3 3.3,3 -0.2,-0.6 0.3,-1.2 0.7,-0.8 1.1,-0.6 h 1.2 l 1.5,0.6 0.7,0.6 1,1.2 0.3,1.2 -0.3,1.2 -0.6,0.9 -1.1,0.6 h -0.7 l -1,-0.3 m 0.3,-14.3 6.1,9.4 m -9.3,-5.3 3.2,-4.1"
         stroke="#000000"
         stroke-width="1"
         id="path56" />
      <path
         d="M 76.9 647.5 L 74.3 644.8 L 70.8 647.8 L 71.4 647.7 L 72.6 648.1 L 73.4 648.9 L 73.8 650.0 L 73.7 651.3 L 72.9 652.6 L 72.2 653.3 L 70.8 654.1 L 69.6 654.3 L 68.5 653.9 L 67.7 653.1 L 67.2 651.9 L 67.3 651.3 L 67.7 650.3 M 81.5 652.0 L 78.8 649.3 L 75.4 652.3 L 76.0 652.2 L 77.1 652.6 L 77.9 653.4 L 78.4 654.6 L 78.2 655.8 L 77.4 657.1 L 76.7 657.8 L 75.4 658.6 L 74.1 658.8 L 73.0 658.4 L 72.2 657.6 L 71.8 656.4 L 71.8 655.8 L 72.3 654.8"
         stroke="black"
         stroke-width="1"
         id="path57" />
      <path
         d="m 449.5,395.92096 -0.5,-0.1 -1,-0.4 -0.4,-0.4 -0.5,-0.8 0.1,-1.5 0.6,-0.7 0.5,-0.3 1,-0.3 h 1 l 1,0.5 1.4,0.8 4.8,4.1 0.3,-5.3 m -10.3,-3.7 0.4,1.2 1,0.4 1,0.1 1,-0.4 0.6,-0.7 0.6,-1.4 0.6,-1.1 1,-0.7 1,-0.3 1.5,0.1 1,0.4 0.5,0.4 0.4,1.2 -0.1,1.5 -0.6,1 -0.5,0.4 -1,0.3 -1.5,-0.1 -1,-0.4 -0.9,-0.8 -0.5,-1.2 -0.4,-1.5 -0.4,-0.8 -1,-0.4 -1,-0.1 -1,0.3 -0.6,1.1 -0.1,1.7"
         stroke="#000000"
         stroke-width="1"
         id="path58" />
      <path
         d="m 412.70305,362.69515 v 0.43969 l -0.43968,0.87936 -0.35175,0.43969 -0.61556,0.35175 h -1.31905 l -0.7035,-0.52763 -0.26381,-0.43968 -0.26381,-0.87937 v -0.87937 l 0.35175,-0.87937 0.7035,-1.31905 3.51747,-4.22097 -4.57272,-0.17587 m -1.93461,6.94701 v 0.43968 l -0.43968,0.87937 -0.35175,0.43969 -0.61556,0.35175 h -1.31905 l -0.61556,-0.52763 -0.35175,-0.43968 -0.26381,-0.87937 v -0.87937 l 0.35175,-0.87937 0.7035,-1.23111 3.51747,-4.30891 -4.57272,-0.17587"
         stroke="#000000"
         stroke-width="0.879369"
         id="path59" />
      <path
         d="m 384.59315,385.08407 0.1,-0.5 0.7,-0.8 0.6,-0.4 0.8,-0.2 1.4,0.5 0.6,0.7 0.2,0.6 v 1.1 l -0.4,1 -0.7,0.8 -1.2,1.1 -5.2,3.4 4.9,1.8 m 5.4,-9.2 3.9,1.4 -3.5,3 1.1,0.4 0.5,0.7 0.2,0.6 -0.2,1.6 -0.3,0.9 -0.9,1.3 -1,0.7 h -1.3 l -1,-0.3 -0.9,-0.9 -0.2,-0.6 v -1.1"
         stroke="#000000"
         stroke-width="1"
         id="path60" />
      <path
         d="m 384.24241,366.86399 0.17078,0.34158 0.25619,0.85394 -0.0854,0.59776 -0.25618,0.68315 -1.11012,0.68315 h -0.76855 l -0.51236,-0.17079 -0.68316,-0.51236 -0.51236,-0.76855 -0.17079,-0.85394 -0.17079,-1.4517 0.34158,-5.29443 -3.75734,2.47643 m 1.28091,9.9911 -0.59775,-6.74613 -4.01352,2.64722 m 4.61127,4.09891 -4.86746,-7.51467"
         stroke="#000000"
         stroke-width="0.85394"
         id="path61" />
      <path
         d="m 407.79604,421.0769 3,2.8 -4.3,1.4 0.8,0.8 0.2,0.8 -0.1,0.7 -0.7,1.3 -0.7,0.8 -1.3,0.8 -1.2,0.2 -1.2,-0.4 -0.8,-0.7 -0.5,-1.1 0.1,-0.7 0.4,-1"
         stroke="#000000"
         stroke-width="1"
         id="path62" />
      <path
         d="m 407.88449,412.07904 0.5,0.2 0.7,0.7 0.3,0.6 0.2,0.9 -0.7,1.3 -0.7,0.5 -0.6,0.1 h -1.1 l -0.9,-0.5 -0.8,-0.7 -1,-1.3 -3,-5.5 -2.2,4.7 m 8.8,6.2 -1.8,3.7 -2.7,-3.7 -0.4,1 -0.8,0.5 -0.6,0.1 -1.5,-0.3 -0.9,-0.4 -1.2,-1 -0.6,-1.1 v -1.2 l 0.5,-1 0.9,-0.8 0.6,-0.2 1.1,0.1"
         stroke="#000000"
         stroke-width="1"
         id="path63" />
      <path
         d="m 436.49616,359.97392 -3.31848,1.52471 0.35875,-4.03599 -0.89688,0.35875 -0.8072,-0.0897 -0.53813,-0.26906 -0.8072,-1.07626 -0.35875,-0.89689 -0.26907,-1.34533 0.26907,-1.07626 0.71751,-0.8072 0.89688,-0.44844 h 1.07627 l 0.53813,0.26906 0.62782,0.71751 m -3.9463,10.13481 0.71751,-0.80719 0.0897,-1.52471 -0.62782,-2.15253 -0.53814,-1.25564 -1.25564,-1.88346 -1.16595,-0.98657 h -1.07626 l -0.62782,0.26906 -0.71751,0.8072 -0.0897,1.52471 0.62782,2.24221 0.53813,1.16595 1.25564,1.88347 1.16595,0.98657 h 1.07627 l 0.44844,-0.17938"
         stroke="#000000"
         stroke-width="0.896886"
         id="path64" />
      <path
         d="m 462.41295,439.57112 h -0.5 l -1,-0.4 -0.5,-0.4 -0.4,-0.8 v -1.5 l 0.5,-0.7 0.6,-0.4 1,-0.3 h 1 l 0.9,0.5 1.5,0.8 4.9,3.9 0.2,-5.3 m -10.3,-6 -0.1,3.7 4.4,0.6 -0.4,-0.4 -0.5,-1.1 v -1.2 l 0.6,-1.1 1,-0.7 1.5,-0.3 h 1 l 1.5,0.5 1,0.8 0.4,1.1 v 1.1 l -0.6,1.1 -0.5,0.4 -1,0.3"
         stroke="#000000"
         stroke-width="1"
         id="path65" />
      <path
         d="m 412.85528,458.79592 -0.2,4.1 -3.9,-2.5 v 1.1 l -0.6,0.7 -0.5,0.3 -1.5,0.3 h -1 l -1.5,-0.5 -0.9,-0.8 -0.5,-1.2 0.1,-1.1 0.6,-1.1 0.5,-0.3 1,-0.3"
         stroke="#000000"
         stroke-width="1"
         id="path66" />
      <path
         d="m 428.33069,485.2245 0.1,-0.4 0.6,-0.9 0.5,-0.4 0.9,-0.3 1.4,0.4 0.6,0.7 0.3,0.6 0.1,1 -0.3,1 -0.6,0.9 -1.1,1.2 -4.9,3.9 5,1.3 m 5.7,-9.3 -1.2,0.2 -0.6,0.8 -0.3,1 0.1,1.1 0.6,0.6 1.3,0.9 1,0.8 0.5,1.1 0.1,1.1 -0.4,1.5 -0.6,0.8 -0.5,0.4 -1.2,0.2 -1.5,-0.4 -1,-0.8 -0.2,-0.5 -0.1,-1.1 0.4,-1.4 0.6,-0.9 1,-0.8 1.2,-0.2 1.6,-0.1 0.8,-0.3 0.7,-0.8 0.2,-1 -0.1,-1.1 -0.9,-0.7 -1.7,-0.5"
         stroke="#000000"
         stroke-width="1"
         id="path67" />
      <path
         d="M 443.9 474.5 L 443.4 474.4 L 442.5 473.9 L 442.1 473.4 L 441.7 472.6 L 441.9 471.1 L 442.5 470.5 L 443.0 470.2 L 444.1 470.0 L 445.1 470.1 L 446.0 470.6 L 447.4 471.6 L 451.8 476.0 L 452.5 470.8 M 443.0 463.7 L 442.4 467.4 L 446.8 468.4 L 446.4 468.0 L 446.1 466.8 L 446.2 465.7 L 446.9 464.7 L 448.0 464.1 L 449.5 463.9 L 450.5 464.1 L 451.9 464.6 L 452.8 465.5 L 453.2 466.7 L 453.0 467.8 L 452.3 468.9 L 451.8 469.2 L 450.7 469.4"
         stroke="black"
         stroke-width="1"
         id="path68" />
      <path
         d="m 455.43177,368.7462 -0.4,-0.2 -0.8,-0.8 -0.3,-0.5 -0.2,-0.9 0.6,-1.4 0.8,-0.5 0.6,-0.1 1.1,0.1 0.9,0.4 0.8,0.7 1,1.3 3.1,5.4 2.1,-4.8 m -7.7,-8.9 5,6.2 2.2,-5.1 m -7.2,-1.1 9.7,4.2"
         stroke="#000000"
         stroke-width="1"
         id="path69" />
      <path
         d="m 462.15862,355.42037 -3.96137,0.38648 1.73914,-4.058 -1.06281,0.0966 -0.77295,-0.38647 -0.38648,-0.4831 -0.48309,-1.35266 -0.0966,-0.96619 0.19324,-1.44928 0.67633,-1.06281 0.96619,-0.57971 1.15942,-0.0966 1.06281,0.38647 0.38648,0.38648 0.48309,0.96619 m -6.1836,6.37684 v 0.4831 l -0.28986,1.0628 -0.28986,0.4831 -0.67633,0.57971 -1.44928,0.0966 -0.77295,-0.38648 -0.38648,-0.48309 -0.48309,-0.86957 -0.0966,-0.96619 0.28985,-0.96619 0.57972,-1.5459 3.18842,-5.21742 -5.1208,0.57972"
         stroke="#000000"
         stroke-width="0.966189"
         id="path70" />
      <path
         d="M 86.7 91.4 L 86.4 91.9 L 85.6 92.5 L 85.0 92.7 L 84.1 92.8 L 82.8 92.0 L 82.5 91.2 L 82.4 90.5 L 82.6 89.5 L 83.1 88.6 L 84.0 88.0 L 85.4 87.1 L 91.3 84.9 L 86.8 82.1"
         stroke="black"
         stroke-width="1"
         id="path71" />
      <path
         d="m 57.076999,92.042157 1,0.2 1,-0.7 0.4,-0.6 0.2,-1.3 -0.9,-1.4 -2,-1.6 -2.1,-1.3 -1.9,-0.7 -1.3,0.1 -1,0.7 -0.2,0.3 -0.1,1.3 0.5,1.1 1,1.1 0.5,0.3 1.4,0.4 1.3,-0.1 1,-0.7 0.2,-0.3 0.1,-1.2 -0.4,-1.2 -1.1,-1.1"
         stroke="#000000"
         stroke-width="1"
         id="path72" />
      <path
         d="M 44.495592,125.48388 H 44.9344 l 0.877618,0.35105 0.438808,0.26329 0.526571,0.70209 v 1.31643 l -0.438809,0.61433 -0.438809,0.35104 -0.877617,0.35105 h -0.877617 l -0.877618,-0.26328 -1.316426,-0.7021 -4.475848,-3.15942 0.08776,4.56361 m 9.302743,2.89614 -0.438808,-0.96538 -1.316426,-0.7021 -2.281805,-0.26328 h -1.316426 l -2.106282,0.43881 -1.316426,0.61433 -0.438809,1.05314 v 0.61433 l 0.438809,0.96538 1.316426,0.7021 2.281805,0.26328 h 1.316426 l 2.106282,-0.43881 1.316426,-0.61433 0.438808,-1.05314 v -0.43881"
         stroke="#000000"
         stroke-width="0.877617"
         id="path73" />
      <path
         d="M 55.1 161.7 L 56.5 158.2 L 52.4 156.3 L 52.8 156.8 L 52.8 158.0 L 52.4 159.1 L 51.5 159.9 L 50.3 160.3 L 48.8 160.1 L 47.9 159.7 L 46.6 158.8 L 45.9 157.8 L 45.9 156.5 L 46.3 155.5 L 47.2 154.6 L 47.8 154.5 L 48.8 154.5"
         stroke="black"
         stroke-width="1"
         id="path74" />
      <path
         d="m 87.978054,189.95394 -0.5,-0.7 -1.7,-0.9 10.5,-1.3"
         stroke="#000000"
         stroke-width="1"
         id="path75" />
      <path
         d="m 38.321946,189.42021 -1.5,0.1 -1.2,-0.4 -0.8,-0.9 -0.2,-0.4 0.2,-1.2 0.7,-1 1.3,-0.8 0.4,-0.2 1.6,-0.1 1.2,0.4 0.8,0.9 0.1,0.3 -0.1,1.2 -0.7,1.1 -1.8,1 -2.3,0.8 -2.5,0.4 -1.7,-0.2 -0.8,-0.9 -0.3,-0.7 0.1,-1.2 0.9,-0.7"
         stroke="#000000"
         stroke-width="1"
         id="path76" />
      <path
         d="M 62.9 218.3 L 63.0 217.4 L 62.7 215.6 L 70.4 222.7"
         stroke="black"
         stroke-width="1"
         id="path77" />
      <path
         d="m 48.221946,217.19213 0.6,0.6 1.7,0.8 -10.2,2.4 m 11.4,0.8 -0.8,-0.9 -1.6,-0.4 -2.5,0.2 -1.5,0.3 -2.3,1 -1.3,1.1 -0.2,1.2 0.1,0.7 0.8,1 1.6,0.4 2.5,-0.3 1.5,-0.3 2.3,-0.9 1.3,-1.1 0.3,-1.2 -0.2,-0.6"
         stroke="#000000"
         stroke-width="1"
         id="path78" />
      <path
         d="M 98.7 159.8 L 99.6 159.5 L 100.9 158.2 L 99.0 168.5 M 104.4 158.5 L 103.2 158.8 L 102.2 160.1 L 101.3 162.5 L 101.1 164.0 L 101.0 166.5 L 101.5 168.1 L 102.5 168.8 L 103.2 169.0 L 104.4 168.7 L 105.4 167.3 L 106.2 164.9 L 106.5 163.5 L 106.6 160.9 L 106.1 159.3 L 105.1 158.6 L 104.6 158.5"
         stroke="black"
         stroke-width="1"
         id="path79" />
      <path
         d="m 120.31067,138.73093 1.4,0.8 0.7,0.9 0.2,1.2 v 0.4 l -0.8,1 -1.2,0.4 h -1.5 l -0.5,-0.1 -1.4,-0.7 -0.7,-1 -0.2,-1.2 0.1,-0.4 0.7,-0.9 1.2,-0.5 2,0.1 2.4,0.6 2.4,1 1.2,1.1 0.2,1.2 -0.2,0.8 -0.7,0.9 -1.1,0.1"
         stroke="#000000"
         stroke-width="1"
         id="path80" />
      <path
         d="m 125.52641,83.858462 0.1,0.5 -0.3,1 -0.3,0.5 -0.7,0.6 -1.4,0.2 -0.8,-0.4 -0.5,-0.4 -0.5,-1 -0.1,-0.9 0.2,-1.1 0.6,-1.6 3,-5.4 -5.2,0.7"
         stroke="#000000"
         stroke-width="1"
         id="path81" />
      <path
         d="m 152.20558,113.45282 7.8,1.9 -1.4,-5.4 m -6.4,3.5 10.2,-2.6"
         stroke="#000000"
         stroke-width="1"
         id="path82" />
      <path
         d="m 144.95394,146.06906 -3.7,-0.5 -0.9,4.4 0.4,-0.5 1.2,-0.3 1.1,0.1 1,0.7 0.7,1.1 0.1,1.5 -0.1,1 -0.6,1.4 -0.8,0.9 -1.2,0.4 -1.1,-0.2 -1.1,-0.6 -0.3,-0.5 -0.2,-1.1"
         stroke="#000000"
         stroke-width="1"
         id="path83" />
    </g>
    <path
       d="M 274.4 340.3 L 275.5 339.5 L 277.2 337.3 L 277.2 353.0"
       id="titre_1"
       stroke="indigo" />
    <path
       d="M 424.0 408.8 L 424.0 408.0 L 424.6 406.5 L 425.1 405.8 L 426.3 405.0 L 428.5 405.0 L 429.6 405.8 L 430.2 406.5 L 430.8 408.0 L 430.8 409.5 L 430.2 411.0 L 429.1 413.3 L 423.5 420.8 L 431.3 420.8"
       id="titre_2"
       stroke="indigo" />
    <path
       d="M 99.6 132.3 L 105.8 132.3 L 102.4 138.3 L 104.1 138.3 L 105.2 139.0 L 105.8 139.8 L 106.3 142.0 L 106.3 143.5 L 105.8 145.8 L 104.6 147.3 L 103.0 148.0 L 101.3 148.0 L 99.6 147.3 L 99.0 146.5 L 98.5 145.0"
       id="titre_3"
       stroke="indigo" />
  </g>
  <g
     id="page_002">
    <path
       d="m 849.4,259.2 19.2,6.4 1.3,2.8 -8.2,18.5 -2.2,35.5 -31.4,34.4 20.1,-8.9 3.4,1.2 10.2,19.4 34.1,-30.7 20.9,-8.3 38.7,14.1 10.6,19.8 18.7,6.6 11.7,29.4 -9.2,17.6 -31.8,37.1 -19.4,11.4 -39.8,-8.2 -13.2,-18.1 -68.1,29.7 -52.7,8.2 -35,-32.9 -40.8,-14.2 -68.2,-10 -14.5,-12.3 1.1,-28.6 15.4,-11.1 -10.4,-21.3 0.9,-3.9 18.8,-14.5 99.2,-5 70.2,0.5 -22.3,-43.1 -16.7,22 -53.5,19.4 -27,-6.2 -18.7,-2.7 -13.6,-24.5 7.5,-17.4 -21,8.6 -39.3,-13.7 -11.1,-19.8 -19.6,-10.8 -1.2,-3.5 8.7,-20.6 -5.5,-21.9 19.1,-36.4 21.1,-8 -21.7,-7.6 -21.5,-37.2 4.2,-22.7 14.1,-22.1 4.4,-1.8 25.6,5.7 11,-20.1 39.8,-15 21.5,8 -1.8,30.2 17.9,7.6 6.4,-30.6 53.7,26.2 4.6,22 -20.6,35.3 -21.3,6.9 -62,40.3 17,20.4 0.5,4.9 -12.8,23.3 49.9,28.7 72.4,-18.9 -20.2,-15.5 -1.3,-4.4 8.6,-24.1 6.2,-35.1 19.8,-16.4 4.6,-0.4 22,13.5 -0.2,-21.9 2.4,-2.6 21.9,-1.6 -2.7,-30.2 -12.6,-19.1 0.6,-3.8 17.1,-15 16.1,-19.7 48.5,-12.6 23.6,9.4 15.4,11.7 0.1,2.7 -14.5,12.8 21.6,-16.6 16.5,14.6 3.7,39.1 -13.5,17.5 -32.9,30.9 23.7,-8.8 4.3,1.2 15.4,20.1 -39.8,59.4 -90.65,7.15 z m -38.8,315.5 65.4,-37.8 49.1,13.7 56.2,-86.8 25.6,-6.6 4.6,1.7 15.3,21.6 7.7,20.4 -14.9,35.6 -19.9,8.8 1.1,26.8 -28.4,46.7 -24.4,11.3 -15.9,14.6 -38,-0.8 -15.2,-15.4 -3.3,18.7 -25.1,13.2 -17.2,-7.9 -45.5,-16.9 -21.8,5.4 -35.9,-19.3 -7.6,-21.1 -10.8,15.4 -27.8,1 -11.9,-14.5 -3.1,65.2 10.5,21.3 -0.9,4 -18.7,14.5 -23.7,9.2 -48.3,-13 -15.9,-19.8 -10,-23.6 11.2,-49.6 19.2,-17 -15.6,-49.5 -12.6,-16.2 5.3,-34 17,-11.6 12.5,-17.3 36.7,-6.4 17.6,12.2 7,47.3 76,-17.9 38.8,64 z"
       id="coupes_002"
       stroke="#ff0000"
       stroke-width="1.27" />
    <path
       d="m 714.8,247.6 -35.3,68.3 -24.8,-44.6 60.1,-23.7 61.9,33.1 -97.2,35.2 m 169.9,-56.7 -72.7,21.5 85,6.2 -62.7,36.9 60.5,-1.4 M 787.2,228.7 851,221 m -70.5,-71.4 46.4,-3.3 111.1,-4.4 -75.7,54.9 z m 183.7,-109.8 6.7,71.2 -28.3,-54.6 -1,-27.2 -88.2,22.9 89.2,4.3 -94.3,33.6 122.6,21 -119.9,9.2 87,21.7 3.6,71.9 -79.3,-17 -88,-12.1 M 938,141.9 981.4,154.4 M 728.8,323.3 686.5,430 799,323.8 762.3,477.1 828.1,356.8 815,468.9 l 46.8,-100.4 21.3,70.7 12.8,-101.4 m 59.6,116.3 -59.6,-116.3 70.2,25.6 21.2,53.6 m -367,-49 -2,52 110.5,-96.7 -108.5,44.7 9.3,-39.7 m -46.3,-81.9 -12.1,-34.9 m 89,-41.2 -54.3,-25.1 5.1,-85.7 70.5,3.1 -21.3,107.7 4.7,48.6 -59,-73.7 -34.7,66.3 93.7,7.4 -81.6,27.5 71.4,24.9 M 605.9,145.2 566.9,77.7 611,59.5 m 70.5,3.1 40.7,67.4 -22.8,-59.8 60.1,-4.4 m 188.5,564.3 -22.9,-79.5 -46.2,77.9 69.1,1.6 51.7,-84.8 -18.4,-81.5 m -102.4,164.7 -45.6,24 42.7,-115.6 z m 147.9,-148 -27.1,64.8 -74.6,5.3 m -137.3,85 -12.8,-71.3 -52.5,36.3 65.3,35 22.8,-60.9 m -88.1,25.9 -50.5,1.9 64.2,-102.2 z m -145.8,-56.4 83.5,-26 m -83.5,26 9.7,-61.8 66.8,-11.5 z m 92.2,123.5 -76.6,-74 79.7,8.8 -11.8,-84.3 -67.9,75.5 -20.4,90.2 97,-16.2 -9.1,39.8"
       id="plisM_002"
       stroke="#a52a2a"
       stroke-dasharray="4" />
    <path
       d="M 743.8 262.2 L 747.8 266.2 M 747.8 262.2 L 743.8 266.2 M 726.1 296.3 L 730.1 300.3 M 730.1 296.3 L 726.1 300.3 M 695.1 279.7 L 699.1 283.7 M 699.1 279.7 L 695.1 283.7 M 665.1 291.6 L 669.1 295.6 M 669.1 291.6 L 665.1 295.6 M 682.7 257.5 L 686.7 261.5 M 686.7 257.5 L 682.7 261.5 M 811.1 268.0 L 815.1 272.0 M 815.1 268.0 L 811.1 272.0 M 817.1 222.9 L 821.1 226.9 M 821.1 222.9 L 817.1 226.9 M 816.3 188.8 L 820.3 192.8 M 820.3 188.8 L 816.3 192.8 M 819.4 171.2 L 823.4 175.2 M 823.4 171.2 L 819.4 175.2 M 801.7 146.0 L 805.7 150.0 M 805.7 146.0 L 801.7 150.0 M 880.4 142.1 L 884.4 146.1 M 884.4 142.1 L 880.4 146.1 M 898.1 167.3 L 902.1 171.3 M 902.1 167.3 L 898.1 171.3 M 892.5 129.0 L 896.5 133.0 M 896.5 129.0 L 892.5 133.0 M 937.8 175.8 L 941.8 179.8 M 941.8 175.8 L 937.8 179.8 M 899.9 203.3 L 903.9 207.3 M 903.9 203.3 L 899.9 207.3 M 957.7 146.1 L 961.7 150.1 M 961.7 146.1 L 957.7 150.1 M 909.0 113.6 L 913.0 117.6 M 913.0 113.6 L 909.0 117.6 M 907.6 98.5 L 911.6 102.5 M 911.6 98.5 L 907.6 102.5 M 954.8 81.7 L 958.8 85.7 M 958.8 81.7 L 954.8 85.7 M 893.5 71.2 L 897.5 75.2 M 897.5 71.2 L 893.5 75.2 M 896.0 52.2 L 900.0 56.2 M 900.0 52.2 L 896.0 56.2 M 895.5 38.6 L 899.5 42.6 M 899.5 38.6 L 895.5 42.6 M 940.1 40.8 L 944.1 44.8 M 944.1 40.8 L 940.1 44.8 M 965.6 73.4 L 969.6 77.4 M 969.6 73.4 L 965.6 77.4 M 817.2 281.8 L 821.2 285.8 M 821.2 281.8 L 817.2 285.8 M 828.4 303.4 L 832.4 307.4 M 832.4 303.4 L 828.4 307.4 M 827.3 321.1 L 831.3 325.1 M 831.3 321.1 L 827.3 325.1 M 778.6 398.5 L 782.6 402.5 M 782.6 398.5 L 778.6 402.5 M 793.2 414.9 L 797.2 418.9 M 797.2 414.9 L 793.2 418.9 M 819.6 410.8 L 823.6 414.8 M 823.6 410.8 L 819.6 414.8 M 836.4 416.7 L 840.4 420.7 M 840.4 416.7 L 836.4 420.7 M 870.4 401.9 L 874.4 405.9 M 874.4 401.9 L 870.4 405.9 M 887.5 386.5 L 891.5 390.5 M 891.5 386.5 L 887.5 390.5 M 923.7 394.0 L 927.7 398.0 M 927.7 394.0 L 923.7 398.0 M 929.0 348.6 L 933.0 352.6 M 933.0 348.6 L 929.0 352.6 M 974.7 388.2 L 978.7 392.2 M 978.7 388.2 L 974.7 392.2 M 740.7 374.9 L 744.7 378.9 M 744.7 374.9 L 740.7 378.9 M 705.6 374.7 L 709.6 378.7 M 709.6 374.7 L 705.6 378.7 M 671.6 369.7 L 675.6 373.7 M 675.6 369.7 L 671.6 373.7 M 672.6 343.7 L 676.6 347.7 M 676.6 343.7 L 672.6 347.7 M 617.3 392.0 L 621.3 396.0 M 621.3 392.0 L 617.3 396.0 M 623.0 346.2 L 627.0 350.2 M 627.0 346.2 L 623.0 350.2 M 617.0 256.9 L 621.0 260.9 M 621.0 256.9 L 617.0 260.9 M 622.1 230.7 L 626.1 234.7 M 626.1 230.7 L 622.1 234.7 M 575.2 226.9 L 579.2 230.9 M 579.2 226.9 L 575.2 230.9 M 616.0 213.2 L 620.0 217.2 M 620.0 213.2 L 616.0 217.2 M 586.6 176.4 L 590.6 180.4 M 590.6 176.4 L 586.6 180.4 M 633.4 180.1 L 637.4 184.1 M 637.4 180.1 L 633.4 184.1 M 631.0 155.8 L 635.0 159.8 M 635.0 155.8 L 631.0 159.8 M 660.5 192.6 L 664.5 196.6 M 664.5 192.6 L 660.5 196.6 M 606.5 100.4 L 610.5 104.4 M 610.5 100.4 L 606.5 104.4 M 644.2 59.0 L 648.2 63.0 M 648.2 59.0 L 644.2 63.0 M 668.8 114.4 L 672.8 118.4 M 672.8 114.4 L 668.8 118.4 M 584.4 109.5 L 588.4 113.5 M 588.4 109.5 L 584.4 113.5 M 587.0 66.6 L 591.0 70.6 M 591.0 66.6 L 587.0 70.6 M 699.8 94.3 L 703.8 98.3 M 703.8 94.3 L 699.8 98.3 M 708.8 98.1 L 712.8 102.1 M 712.8 98.1 L 708.8 102.1 M 727.5 66.0 L 731.5 70.0 M 731.5 66.0 L 727.5 70.0 M 960.4 546.0 L 964.4 550.0 M 964.4 546.0 L 960.4 550.0 M 971.8 585.7 L 975.8 589.7 M 975.8 585.7 L 971.8 589.7 M 934.6 588.4 L 938.6 592.4 M 938.6 588.4 L 934.6 592.4 M 988.5 502.5 L 992.5 506.5 M 992.5 502.5 L 988.5 506.5 M 911.5 627.3 L 915.5 631.3 M 915.5 627.3 L 911.5 631.3 M 900.0 587.6 L 904.0 591.6 M 904.0 587.6 L 900.0 591.6 M 875.5 580.7 L 879.5 584.7 M 879.5 580.7 L 875.5 584.7 M 854.1 638.5 L 858.1 642.5 M 858.1 638.5 L 854.1 642.5 M 852.7 592.7 L 856.7 596.7 M 856.7 592.7 L 852.7 596.7 M 1011.2 510.9 L 1015.2 514.9 M 1015.2 510.9 L 1011.2 514.9 M 797.2 603.2 L 801.2 607.2 M 801.2 603.2 L 797.2 607.2 M 779.4 597.9 L 783.4 601.9 M 783.4 597.9 L 779.4 601.9 M 746.8 580.4 L 750.8 584.4 M 750.8 580.4 L 746.8 584.4 M 753.1 616.1 L 757.1 620.1 M 757.1 616.1 L 753.1 620.1 M 727.4 548.5 L 731.4 552.5 M 731.4 548.5 L 727.4 552.5 M 695.3 599.5 L 699.3 603.5 M 699.3 599.5 L 695.3 603.5 M 702.1 549.4 L 706.1 553.4 M 706.1 549.4 L 702.1 553.4 M 664.1 558.3 L 668.1 562.3 M 668.1 558.3 L 664.1 562.3 M 630.1 596.1 L 634.1 600.1 M 634.1 596.1 L 630.1 600.1 M 624.2 553.9 L 628.2 557.9 M 628.2 553.9 L 624.2 557.9 M 616.5 529.2 L 620.5 533.2 M 620.5 529.2 L 616.5 533.2 M 613.0 505.6 L 617.0 509.6 M 617.0 505.6 L 613.0 509.6 M 579.6 511.3 L 583.6 515.3 M 583.6 511.3 L 579.6 515.3 M 617.8 474.7 L 621.8 478.7 M 621.8 474.7 L 617.8 478.7 M 628.6 628.7 L 632.6 632.7 M 632.6 628.7 L 628.6 632.7 M 618.4 673.8 L 622.4 677.8 M 622.4 673.8 L 618.4 677.8 M 580.1 636.8 L 584.1 640.8 M 584.1 636.8 L 580.1 640.8 M 662.3 685.6 L 666.3 689.6 M 666.3 685.6 L 662.3 689.6"
       display="none"
       id="marqueM_002"
       stroke="brown" />
    <path
       d="m 787.2,228.7 -10.5,52 m 72.7,-21.5 -62.2,-30.5 -12.9,-44 m 0,0 L 851,221 862.3,196.8 826.9,146.3 851,120.2 M 848.3,90 853.4,52.1 m -4,207.1 12.3,27.7 m 104.4,76.5 -10.6,90.7 -72.4,-14.9 m -155.8,5 71.7,-120.4 29.1,33 33.7,11.7 M 654.7,271.3 664.9,218.9 M 660.2,170.3 611,59.5 683.3,32.4 m 76.2,33.4 -37.3,64.2 m 111.1,522.5 -22.7,-77.8 m 170.7,-110.9 45.5,16.7 m -367,227 -87.9,-23.6"
       id="plisV_002"
       stroke="#008000"
       stroke-dasharray="4, 1, 1, 1"
       stroke-width="1.27" />
    <path
       d="M 780.0 252.7 L 784.0 256.7 M 784.0 252.7 L 780.0 256.7 M 816.3 242.0 L 820.3 246.0 M 820.3 242.0 L 816.3 246.0 M 778.7 204.7 L 782.7 208.7 M 782.7 204.7 L 778.7 208.7 M 810.7 200.9 L 814.7 204.9 M 814.7 200.9 L 810.7 204.9 M 854.6 206.9 L 858.6 210.9 M 858.6 206.9 L 854.6 210.9 M 842.6 169.6 L 846.6 173.6 M 846.6 169.6 L 842.6 173.6 M 836.9 131.3 L 840.9 135.3 M 840.9 131.3 L 836.9 135.3 M 848.9 69.0 L 852.9 73.0 M 852.9 69.0 L 848.9 73.0 M 853.5 271.1 L 857.5 275.1 M 857.5 271.1 L 853.5 275.1 M 811.6 338.3 L 815.6 342.3 M 815.6 338.3 L 811.6 342.3 M 843.0 360.6 L 847.0 364.6 M 847.0 360.6 L 843.0 364.6 M 917.3 444.7 L 921.3 448.7 M 921.3 444.7 L 917.3 448.7 M 958.8 406.8 L 962.8 410.8 M 962.8 406.8 L 958.8 410.8 M 761.1 382.0 L 765.1 386.0 M 765.1 382.0 L 761.1 386.0 M 657.8 243.1 L 661.8 247.1 M 661.8 243.1 L 657.8 247.1 M 633.6 112.9 L 637.6 116.9 M 637.6 112.9 L 633.6 116.9 M 645.2 43.9 L 649.2 47.9 M 649.2 43.9 L 645.2 47.9 M 738.8 95.9 L 742.8 99.9 M 742.8 95.9 L 738.8 99.9 M 819.9 611.6 L 823.9 615.6 M 823.9 611.6 L 819.9 615.6 M 1002.0 470.2 L 1006.0 474.2 M 1006.0 470.2 L 1002.0 474.2 M 613.9 693.7 L 617.9 697.7 M 617.9 693.7 L 613.9 697.7"
       id="marqueV_002"
       stroke="green" />
    <g
       id="nums_002">
      <path
         d="M 759.8 250.1 L 755.8 251.1 L 757.0 246.7 L 755.9 247.0 L 755.0 246.7 L 754.5 246.3 L 753.8 244.9 L 753.5 244.0 L 753.5 242.4 L 754.0 241.3 L 754.9 240.5 L 756.0 240.2 L 757.3 240.4 L 757.7 240.8 L 758.4 241.7 M 749.5 251.2 L 750.2 252.1 L 751.4 252.3 L 752.1 252.1 L 753.1 251.3 L 753.4 249.7 L 753.1 247.2 L 752.5 244.7 L 751.6 242.9 L 750.7 242.1 L 749.4 241.9 L 749.1 242.0 L 748.1 242.8 L 747.6 243.9 L 747.7 245.5 L 747.8 246.0 L 748.5 247.3 L 749.5 248.1 L 750.7 248.3 L 751.1 248.2 L 752.0 247.4 L 752.5 246.3 L 752.5 244.7"
         stroke="black"
         stroke-width="1"
         id="path84" />
      <path
         d="m 722.10974,303.04183 3.9,-1.5 -0.7,4.6 1,-0.4 0.9,0.2 0.5,0.4 0.9,1.2 0.3,1 0.2,1.5 -0.4,1.2 -0.9,0.9 -1,0.3 h -1.3 l -0.5,-0.4 -0.7,-0.8 m 5,-10.8 -0.9,0.8 v 1.1 l 0.3,0.9 0.7,0.9 0.9,0.2 1.5,-0.1 1.3,0.1 1,0.7 0.7,0.8 0.5,1.4 v 1.1 l -0.2,0.6 -0.9,0.8 -1.4,0.6 -1.2,-0.1 -0.5,-0.4 -0.7,-0.8 -0.5,-1.4 v -1.1 l 0.4,-1.2 0.8,-0.8 1.3,-1 0.5,-0.7 v -1.1 l -0.3,-0.9 -0.7,-0.8 -1.2,-0.1 -1.6,0.5"
         stroke="#000000"
         stroke-width="1"
         id="path85" />
      <path
         d="m 663.79282,292.80792 -1.9,-3.3 -4.1,1.9 0.6,0.1 1,0.7 0.6,1 0.1,1.2 -0.5,1.1 -1.2,1.1 -0.8,0.5 -1.5,0.4 -1.3,-0.2 -0.9,-0.7 -0.6,-1 -0.1,-1.2 0.2,-0.6 0.7,-0.8 m 11.5,3.1 -1,-0.7 -1,0.1 -0.9,0.5 -0.7,0.8 -0.1,0.9 0.3,1.6 0.1,1.2 -0.5,1.2 -0.7,0.8 -1.3,0.7 -1,0.2 -0.7,-0.1 -0.9,-0.8 -0.8,-1.3 -0.1,-1.2 0.3,-0.6 0.7,-0.8 1.3,-0.7 1,-0.2 1.3,0.2 1,0.7 1.1,1.1 0.8,0.4 1.1,-0.1 0.9,-0.5 0.7,-0.8 -0.2,-1.3 -0.8,-1.4"
         stroke="#000000"
         stroke-width="1"
         id="path86" />
      <path
         d="M 836.4 240.6 L 846.8 244.8 M 836.2 245.9 L 836.4 240.6 M 836.6 237.2 L 837.0 238.3 L 838.5 239.1 L 841.0 239.6 L 842.5 239.7 L 845.0 239.4 L 846.5 238.7 L 847.1 237.6 L 847.1 236.9 L 846.7 235.7 L 845.2 234.9 L 842.7 234.4 L 841.2 234.4 L 838.7 234.6 L 837.2 235.3 L 836.6 236.4 L 836.6 237.0"
         stroke="black"
         stroke-width="1"
         id="path87" />
      <path
         d="m 778.09794,207.16485 -11.1,-0.6 m 9.7,-4.4 1.4,5 m -1.9,1.7 0.7,0.6 1.7,0.6 -10,3"
         stroke="#000000"
         stroke-width="1"
         id="path88" />
      <path
         d="M 789.7 167.8 L 790.8 167.6 L 791.4 166.6 L 791.6 165.8 L 791.3 164.6 L 789.9 163.6 L 787.5 162.8 L 785.1 162.4 L 783.0 162.4 L 781.9 163.0 L 781.2 164.0 L 781.2 164.4 L 781.5 165.6 L 782.3 166.5 L 783.7 167.1 L 784.2 167.2 L 785.8 167.1 L 786.9 166.5 L 787.6 165.5 L 787.6 165.1 L 787.3 163.9 L 786.5 163.0 L 785.1 162.4 M 790.1 174.0 L 790.8 170.3 L 786.4 169.1 L 786.8 169.6 L 787.1 170.8 L 786.9 171.9 L 786.3 172.9 L 785.1 173.5 L 783.6 173.6 L 782.6 173.4 L 781.2 172.8 L 780.3 171.9 L 780.1 170.7 L 780.2 169.6 L 780.9 168.5 L 781.5 168.3 L 782.5 168.1"
         stroke="black"
         stroke-width="1"
         id="path89" />
      <path
         d="m 803.84505,146.39043 3,-10.7 m 2.3,10.3 -5.3,0.4 m -5.8,-1.1 0.5,1 1.1,0.4 h 0.8 l 1.1,-0.6 0.6,-1.6 0.2,-2.5 -0.2,-2.5 -0.5,-2 -0.8,-0.9 -1.1,-0.4 h -0.4 l -1.1,0.6 -0.7,1 -0.2,1.6 v 0.5 l 0.5,1.4 0.8,1 1.1,0.4 h 0.4 l 1.1,-0.6 0.7,-1.1 0.2,-1.5"
         stroke="#000000"
         stroke-width="1"
         id="path90" />
      <path
         d="m 836.65636,131.13721 1,0.4 1.1,-0.5 0.5,-0.6 0.4,-1.1 -0.6,-1.6 -1.5,-2 -1.9,-1.7 -1.7,-1 -1.2,-0.2 -1.2,0.5 -0.2,0.3 -0.4,1.2 0.2,1.2 0.8,1.3 0.4,0.3 1.4,0.8 1.2,0.1 1.1,-0.5 0.3,-0.3 0.4,-1.1 -0.2,-1.3 -0.9,-1.3 m -2.4,13 -5.2,-9.9 m 8.8,6 -3.6,3.9"
         stroke="#000000"
         stroke-width="1"
         id="path91" />
      <path
         d="m 884.6401,204.62599 -2.9,10.8 m -2.3,-10.4 5.2,-0.4 m 2.1,2.4 -0.1,-0.5 0.3,-1 0.3,-0.6 0.8,-0.5 1.5,-0.1 0.7,0.4 0.5,0.5 0.4,0.9 0.1,1 -0.3,1.1 -0.6,1.5 -3.4,5.3 5.2,-0.4"
         stroke="#000000"
         stroke-width="1"
         id="path92" />
      <path
         d="m 959.98663,146.16683 6.5,-9 m -1.5,10.5 -5,-1.5 m -6,-1.7 6.5,-9.1 m -1.5,10.5 -5,-1.4"
         stroke="#000000"
         stroke-width="1"
         id="path93" />
      <path
         d="M 949.5 177.3 L 956.1 186.3 M 946.6 181.7 L 949.5 177.3 M 952.6 172.6 L 950.6 175.7 L 954.1 178.5 L 953.9 178.0 L 954.1 176.7 L 954.7 175.8 L 955.8 175.1 L 957.0 175.1 L 958.5 175.6 L 959.3 176.2 L 960.3 177.3 L 960.7 178.5 L 960.5 179.7 L 959.9 180.6 L 958.9 181.3 L 958.2 181.3 L 957.2 181.1"
         stroke="black"
         stroke-width="1"
         id="path94" />
      <path
         d="m 941.62492,118.84909 4.5,10.2 m -8.3,-6.6 3.8,-3.6 m 4.6,-4.3 4.4,10.2 m -8.2,-6.6 3.8,-3.6"
         stroke="#000000"
         stroke-width="1"
         id="path95" />
      <path
         d="M 863.2 102.5 L 852.4 99.7 M 862.7 97.3 L 863.2 102.5 M 863.8 107.6 L 856.4 104.5 L 856.9 110.1 M 863.8 107.6 L 853.3 108.5"
         stroke="black"
         stroke-width="1"
         id="path96" />
      <path
         d="m 849.37261,70.462459 -9.9,-5.1 m 10.6,-0.1 -0.7,5.2 m -0.4,3.4 -0.4,-1.2 -1.4,-0.9 -2.4,-0.7 -1.5,-0.2 h -2.5 l -1.6,0.5 -0.6,1.1 -0.1,0.7 0.3,1.2 1.4,1 2.4,0.7 1.5,0.2 2.5,-0.1 1.6,-0.5 0.7,-1.1 v -0.5"
         stroke="#000000"
         stroke-width="1"
         id="path97" />
      <path
         d="m 897.8816,38.475498 1,-11.1 m 4.1,9.8 -5.1,1.3 m -2.4,-1.9 0.2,0.5 -0.1,1 -0.3,0.6 -0.6,0.7 -1.4,0.3 -0.9,-0.2 -0.5,-0.4 -0.6,-0.9 -0.2,-1 0.1,-1 0.3,-1.7 2.4,-5.8 -5.1,1.4"
         stroke="#000000"
         stroke-width="1"
         id="path98" />
      <path
         d="m 943.01006,43.062459 10.6,3.4 m -10.4,1.9 -0.2,-5.3 m -0.1,-1.9 -0.1,-4.1 4,2.1 v -1.1 l 0.5,-0.8 0.5,-0.4 1.4,-0.4 1,-0.1 1.6,0.4 1,0.7 0.5,1.1 0.1,1.1 -0.5,1.1 -0.5,0.4 -1,0.4"
         stroke="#000000"
         stroke-width="1"
         id="path99" />
      <path
         d="m 958.89315,60.666419 -3.5,-10.6 m 7.6,7.4 -4.1,3.2 m -1.5,1.2 -3.3,2.5 -0.7,-4.5 -0.8,0.7 h -0.9 l -0.6,-0.1 -1.3,-1 -0.6,-0.8 -0.6,-1.4 v -1.3 l 0.6,-1 0.9,-0.7 1.2,-0.3 0.6,0.1 0.9,0.6"
         stroke="#000000"
         stroke-width="1"
         id="path100" />
      <path
         d="m 969.74183,75.230694 10.8,2.8 m -10.3,2.5 -0.5,-5.3 m -0.5,-5.6 0.3,3.7 h 4.5 l -0.5,-0.3 -0.6,-1.1 -0.1,-1.1 0.4,-1.2 0.9,-0.8 1.5,-0.5 1,-0.1 1.5,0.2 1.1,0.6 0.6,1.1 0.1,1.1 -0.4,1.2 -0.5,0.4 -1,0.5"
         stroke="#000000"
         stroke-width="1"
         id="path101" />
      <path
         d="m 856.87541,273.62385 11.2,-0.8 m -9,5.6 -2.2,-4.8 m -2.1,-4.6 7.9,0.6 -2.3,-5.2 m -5.6,4.6 9.6,-4.3"
         stroke="#000000"
         stroke-width="1"
         id="path102" />
      <path
         d="M 798.0 295.3 L 798.8 294.5 L 798.7 293.2 L 798.3 292.6 L 797.4 291.8 L 795.7 291.8 L 793.3 292.6 L 791.1 293.8 L 789.5 295.0 L 788.9 296.2 L 789.0 297.4 L 789.2 297.7 L 790.1 298.5 L 791.4 298.7 L 792.9 298.3 L 793.3 298.1 L 794.5 297.1 L 795.0 296.0 L 795.0 294.7 L 794.8 294.4 L 793.8 293.6 L 792.6 293.4 L 791.1 293.8 M 800.9 297.6 L 800.0 296.9 L 798.9 297.0 L 798.0 297.4 L 797.3 298.2 L 797.2 299.1 L 797.5 300.7 L 797.5 301.9 L 797.0 303.0 L 796.3 303.8 L 794.9 304.5 L 793.9 304.6 L 793.3 304.5 L 792.3 303.8 L 791.6 302.4 L 791.5 301.2 L 791.8 300.7 L 792.5 299.9 L 793.9 299.2 L 794.9 299.0 L 796.2 299.3 L 797.1 300.0 L 798.3 301.1 L 799.0 301.6 L 800.1 301.4 L 801.0 301.0 L 801.7 300.2 L 801.6 299.0 L 800.9 297.5"
         stroke="black"
         stroke-width="1"
         id="path103" />
      <path
         d="M 848.3 305.4 L 847.3 305.7 L 846.7 306.8 L 846.7 307.5 L 847.1 308.7 L 848.5 309.5 L 851.0 310.1 L 853.5 310.2 L 855.5 310.0 L 856.6 309.3 L 857.1 308.2 L 857.2 307.8 L 856.7 306.7 L 855.8 305.9 L 854.3 305.4 L 853.8 305.4 L 852.3 305.6 L 851.2 306.3 L 850.7 307.4 L 850.6 307.8 L 851.1 308.9 L 852.0 309.8 L 853.5 310.2 M 847.2 298.7 L 857.4 303.1 M 846.9 303.9 L 847.2 298.7"
         stroke="black"
         stroke-width="1"
         id="path104" />
      <path
         d="M 833.0 331.1 L 838.2 340.9 M 829.5 334.9 L 833.0 331.1 M 837.9 327.9 L 837.0 327.5 L 835.8 328.0 L 835.3 328.5 L 834.9 329.7 L 835.5 331.3 L 837.1 333.2 L 839.0 334.9 L 840.7 336.0 L 841.9 336.1 L 843.1 335.6 L 843.3 335.3 L 843.7 334.2 L 843.5 332.9 L 842.6 331.6 L 842.3 331.3 L 840.9 330.6 L 839.7 330.5 L 838.5 330.9 L 838.3 331.2 L 837.9 332.4 L 838.1 333.6 L 839.0 334.9"
         stroke="black"
         stroke-width="1"
         id="path105" />
      <path
         d="M 788.4 460.7 L 787.9 459.7 L 786.7 459.4 L 785.9 459.5 L 784.9 460.2 L 784.4 461.8 L 784.4 464.3 L 784.8 466.8 L 785.5 468.7 L 786.4 469.6 L 787.5 469.9 L 787.9 469.8 L 789.0 469.2 L 789.5 468.1 L 789.7 466.5 L 789.6 466.0 L 789.0 464.6 L 788.1 463.7 L 786.9 463.4 L 786.5 463.5 L 785.5 464.1 L 784.9 465.2 L 784.8 466.8"
         stroke="black"
         stroke-width="1"
         id="path106" />
      <path
         d="m 846.92706,360.3986 v 1.1 l 0.9,0.8 0.7,0.3 1.3,-0.1 1.2,-1.2 1.1,-2.2 0.9,-2.4 0.3,-2 -0.4,-1.2 -0.9,-0.8 -0.4,-0.2 -1.2,0.1 -1,0.7 -0.9,1.3 -0.1,0.5 -0.2,1.5 0.4,1.2 0.9,0.9 0.3,0.1 1.3,-0.1 1,-0.7 0.9,-1.3 m -12.3,3.1 3.6,1.3 1.8,-4.1 -0.5,0.3 -1.2,0.1 -1.1,-0.4 -0.9,-0.8 -0.4,-1.2 0.2,-1.5 0.3,-1 0.8,-1.3 1.1,-0.7 1.2,-0.1 1.1,0.4 0.9,0.8 0.1,0.6 0.1,1.1"
         stroke="#000000"
         stroke-width="1"
         id="path107" />
      <path
         d="M 842.9 443.4 L 842.1 442.6 L 840.9 442.6 L 840.2 442.9 L 839.4 443.8 L 839.3 445.5 L 839.9 447.9 L 840.9 450.2 L 842.1 451.9 L 843.2 452.5 L 844.4 452.5 L 844.7 452.4 L 845.6 451.5 L 845.9 450.3 L 845.6 448.7 L 845.4 448.3 L 844.5 447.1 L 843.4 446.4 L 842.1 446.4 L 841.8 446.6 L 841.0 447.5 L 840.7 448.7 L 840.9 450.2 M 848.4 441.0 L 847.7 440.2 L 846.4 440.2 L 845.8 440.5 L 844.9 441.4 L 844.8 443.1 L 845.5 445.5 L 846.5 447.8 L 847.6 449.5 L 848.7 450.1 L 850.0 450.1 L 850.3 450.0 L 851.1 449.1 L 851.4 447.8 L 851.2 446.3 L 851.0 445.9 L 850.0 444.6 L 848.9 444.0 L 847.7 444.0 L 847.4 444.2 L 846.5 445.1 L 846.2 446.3 L 846.5 447.8"
         stroke="black"
         stroke-width="1"
         id="path108" />
      <path
         d="m 884.68449,365.58086 -4.3,-10.3 m 8.2,6.8 -3.9,3.5 m -2.4,-1 -0.2,0.9 0.2,1.8 -7.1,-7.8"
         stroke="#000000"
         stroke-width="1"
         id="path109" />
      <path
         d="m 914.13069,448.76782 4.1,0.8 -3,3.5 1.1,0.2 0.6,0.7 0.3,0.5 v 1.6 l -0.2,1 -0.6,1.3 -1,0.9 -1.2,0.2 -1.1,-0.2 -1,-0.7 -0.2,-0.6 -0.2,-1 m 13,-6 -5.8,9.5 m 0.6,-10.6 5.2,1.1"
         stroke="#000000"
         stroke-width="1"
         id="path110" />
      <path
         d="m 936.54439,349.86395 -3.8,-1.4 3.5,-3 -1.1,-0.4 -0.5,-0.7 -0.2,-0.6 0.1,-1.5 0.4,-1 0.9,-1.2 1,-0.7 1.2,-0.1 1.1,0.4 0.9,0.8 0.2,0.6 v 1.1 m -12.7,2.8 v 1.1 l 0.9,0.9 0.7,0.2 1.2,-0.1 1.2,-1.1 1.2,-2.2 0.9,-2.4 0.3,-2 -0.3,-1.2 -0.9,-0.9 -0.4,-0.1 -1.2,0.1 -1,0.7 -0.9,1.3 -0.2,0.4 -0.1,1.6 0.3,1.2 0.9,0.8 0.4,0.1 h 1.2 l 1,-0.7 0.9,-1.3"
         stroke="#000000"
         stroke-width="1"
         id="path111" />
      <path
         d="m 978.48696,389.07187 1.3,3.5 4.4,-1.3 -0.6,-0.2 -0.9,-0.9 -0.4,-1 v -1.3 l 0.7,-1 1.2,-0.9 1,-0.4 1.5,-0.2 1.2,0.3 0.9,0.9 0.4,1.1 -0.1,1.2 -0.3,0.5 -0.8,0.7 m -11.8,-6.5 7.9,1 -2.1,-5.3 m -5.8,4.3 9.8,-3.8"
         stroke="#000000"
         stroke-width="1"
         id="path112" />
      <path
         d="m 964.32995,422.54406 -2.5,2.8 3.2,3.2 -0.1,-0.6 0.3,-1.2 0.8,-0.8 1.1,-0.6 1.2,0.1 1.4,0.7 0.8,0.7 0.9,1.2 0.2,1.2 -0.3,1.2 -0.8,0.9 -1.1,0.5 h -0.6 l -1,-0.4 m 0.1,-9.3 -0.4,-0.3 -0.5,-0.9 -0.2,-0.6 0.1,-0.9 1,-1.2 0.9,-0.2 h 0.6 l 1,0.4 0.8,0.6 0.5,1 0.6,1.5 1.4,6.1 3.4,-4"
         stroke="#000000"
         stroke-width="1"
         id="path113" />
      <path
         d="M 752.2 448.6 L 744.6 451.1 L 748.7 455.0 M 752.2 448.6 L 745.0 456.2 M 757.3 453.4 L 749.7 455.9 L 753.8 459.8 M 757.3 453.4 L 750.1 461.0"
         stroke="black"
         stroke-width="1"
         id="path114" />
      <path
         d="M 706.2 422.3 L 710.1 423.7 L 706.7 426.7 L 707.7 427.1 L 708.3 427.8 L 708.5 428.4 L 708.3 429.9 L 708.0 430.9 L 707.1 432.2 L 706.1 432.9 L 704.9 433.0 L 703.8 432.6 L 702.9 431.7 L 702.7 431.2 L 702.7 430.1 M 715.8 425.6 L 712.3 424.4 L 710.4 428.5 L 710.9 428.2 L 712.2 428.1 L 713.2 428.5 L 714.1 429.3 L 714.5 430.5 L 714.4 432.0 L 714.0 433.0 L 713.2 434.3 L 712.2 435.0 L 710.9 435.1 L 709.9 434.7 L 709.0 433.9 L 708.8 433.3 L 708.7 432.2"
         stroke="black"
         stroke-width="1"
         id="path115" />
      <path
         d="M 765.2 335.8 L 765.6 336.8 L 766.7 337.3 L 767.4 337.3 L 768.6 336.9 L 769.3 335.4 L 769.7 332.9 L 769.7 330.4 L 769.4 328.4 L 768.6 327.4 L 767.5 326.8 L 767.1 326.8 L 766.0 327.3 L 765.3 328.3 L 764.9 329.8 L 764.9 330.3 L 765.2 331.8 L 766.0 332.8 L 767.1 333.3 L 767.5 333.3 L 768.6 332.9 L 769.4 331.9 L 769.7 330.4 M 758.8 333.8 L 759.2 332.3 L 759.9 331.3 L 761.0 330.8 L 761.4 330.8 L 762.5 331.3 L 763.3 332.3 L 763.7 333.8 L 763.6 334.3 L 763.3 335.8 L 762.5 336.8 L 761.4 337.3 L 761.0 337.3 L 759.9 336.8 L 759.1 335.8 L 758.8 333.8 L 758.8 331.3 L 759.2 328.8 L 759.9 327.3 L 761.1 326.8 L 761.8 326.8 L 762.9 327.3 L 763.3 328.3"
         stroke="black"
         stroke-width="1"
         id="path116" />
      <path
         d="M 651.6 410.9 L 646.8 417.3 L 652.4 418.1 M 651.6 410.9 L 650.0 421.3 M 656.8 411.8 L 655.6 412.1 L 654.7 413.5 L 653.9 415.9 L 653.7 417.4 L 653.7 419.9 L 654.2 421.5 L 655.3 422.1 L 656.0 422.2 L 657.2 421.9 L 658.2 420.5 L 658.9 418.1 L 659.1 416.6 L 659.1 414.1 L 658.6 412.5 L 657.5 411.9 L 657.0 411.8"
         stroke="black"
         stroke-width="1"
         id="path117" />
      <path
         d="m 617.04373,390.0538 -6.9,-4.1 -0.2,5.7 m 7.1,-1.6 -10.5,-0.4 m 7.7,4 h 0.5 l 1,0.4 0.5,0.4 0.5,0.8 -0.1,1.5 -0.5,0.7 -0.5,0.3 -1.1,0.4 -1,-0.1 -0.9,-0.4 -1.5,-0.8 -4.9,-3.9 -0.2,5.2"
         stroke="#000000"
         stroke-width="1"
         id="path118" />
      <path
         d="M 682.8 339.5 L 686.2 332.3 L 680.6 332.6 M 682.8 339.5 L 682.3 329.0 M 679.7 337.2 L 679.0 337.8 L 677.9 339.3 L 677.4 328.8"
         stroke="black"
         stroke-width="1"
         id="path119" />
      <path
         d="m 623.77839,346.92492 0.8,-3.7 -4.3,-1.4 0.4,0.5 0.3,1.2 -0.3,1.1 -0.7,1 -1.2,0.5 h -1.5 l -1,-0.2 -1.4,-0.7 -0.8,-1 -0.2,-1.2 0.2,-1.1 0.8,-0.9 0.6,-0.3 1,-0.1 m 6.3,10.4 -0.2,-1.2 -1.3,-1.1 -2.4,-1 -1.4,-0.3 -2.5,-0.2 -1.7,0.4 -0.7,1 -0.2,0.7 0.2,1.2 1.3,1.1 2.4,0.9 1.4,0.4 2.6,0.2 1.6,-0.4 0.7,-1 0.2,-0.6"
         stroke="#000000"
         stroke-width="1"
         id="path120" />
      <path
         d="M 684.8 246.2 L 688.0 248.1 L 690.6 244.4 L 690.0 244.6 L 688.8 244.5 L 687.8 243.9 L 687.1 242.9 L 686.9 241.7 L 687.4 240.2 L 687.8 239.3 L 688.9 238.2 L 690.1 237.7 L 691.3 237.9 L 692.3 238.4 L 693.0 239.4 L 693.1 240.0 L 692.9 241.1 M 679.6 243.4 L 686.4 239.2 L 681.5 236.4 M 679.6 243.4 L 684.8 234.3"
         stroke="black"
         stroke-width="1"
         id="path121" />
      <path
         d="m 615.31518,259.6014 -3.5,-1.2 -1.9,4.1 0.5,-0.3 1.3,-0.1 1,0.3 0.9,0.9 0.4,1.2 -0.1,1.5 -0.4,1 -0.8,1.2 -1.1,0.7 -1.2,0.1 -1,-0.3 -0.9,-0.9 -0.2,-0.6 -0.1,-1 m 12.4,-1 -0.9,1.3 -1,0.7 -1.2,0.1 -0.4,-0.2 -0.9,-0.8 -0.4,-1.2 0.2,-1.5 0.1,-0.5 0.9,-1.3 1,-0.7 1.2,-0.1 0.4,0.1 0.9,0.9 0.4,1.2 -0.3,2 -0.9,2.3 -1.1,2.3 -1.2,1.1 -1.3,0.1 -0.7,-0.2 -0.9,-0.8 v -1.1"
         stroke="#000000"
         stroke-width="1"
         id="path122" />
      <path
         d="m 574.40726,229.87615 0.8,-0.7 0.1,-1.2 -0.3,-0.7 -0.8,-0.9 -1.7,-0.2 -2.4,0.5 -2.4,0.8 -1.8,1 -0.7,1 -0.1,1.3 0.2,0.3 0.8,0.9 1.2,0.4 1.5,-0.2 0.5,-0.1 1.3,-0.9 0.7,-1 0.1,-1.2 -0.1,-0.4 -0.9,-0.9 -1.2,-0.4 -1.5,0.2 m 6.3,4.1 0.8,0.5 1.7,0.6 -9.9,3.4"
         stroke="#000000"
         stroke-width="1"
         id="path123" />
      <path
         d="m 586.68416,175.68919 1.8,-3.3 -3.8,-2.4 0.2,0.5 v 1.2 l -0.6,1 -0.9,0.8 -1.3,0.2 -1.5,-0.4 -0.8,-0.4 -1.2,-1.1 -0.5,-1.1 v -1.2 l 0.6,-1 0.9,-0.8 0.6,-0.1 1.1,0.2 m 4.2,10.2 -1.9,3.7 -2.5,-3.9 -0.5,1 -0.8,0.5 -0.6,0.1 -1.5,-0.4 -0.9,-0.5 -1.2,-1 -0.5,-1.1 0.1,-1.2 0.5,-1 1,-0.8 0.6,-0.1 1,0.1"
         stroke="#000000"
         stroke-width="1"
         id="path124" />
      <path
         d="m 664.02161,196.25668 0.4,3.8 4.5,-0.1 -0.5,-0.3 -0.6,-1.1 -0.2,-1.1 0.4,-1.2 1,-0.8 1.4,-0.6 h 1 l 1.5,0.2 1.1,0.6 0.6,1.1 0.1,1.1 -0.4,1.2 -0.4,0.4 -1,0.5 m -6.6,-6.5 -0.5,0.1 -1.1,-0.3 -0.5,-0.3 -0.6,-0.7 -0.1,-1.5 0.4,-0.8 0.5,-0.4 0.9,-0.5 1,-0.1 1.1,0.3 1.5,0.6 5.4,3.2 -0.5,-5.2"
         stroke="#000000"
         stroke-width="1"
         id="path125" />
      <path
         d="m 647.49786,43.084162 1.1,-7.9 -5.3,2 m 4.2,5.9 -3.7,-9.8 m -3.4,12.3 3.6,-1.3 -1.3,-4.3 -0.2,0.6 -0.8,0.8 -1.1,0.4 h -1.2 l -1.1,-0.7 -0.8,-1.3 -0.4,-0.9 -0.2,-1.6 0.4,-1.2 0.9,-0.8 1,-0.4 1.2,0.1 0.6,0.3 0.7,0.8"
         stroke="#000000"
         stroke-width="1"
         id="path126" />
      <path
         d="M 668.3 52.3 L 668.6 48.2 L 672.4 50.7 L 672.5 49.5 L 673.0 48.8 L 673.5 48.5 L 675.1 48.2 L 676.1 48.3 L 677.5 48.7 L 678.5 49.5 L 678.9 50.7 L 678.9 51.8 L 678.3 52.9 L 677.8 53.2 L 676.7 53.6 M 671.2 46.1 L 670.7 46.1 L 669.7 45.7 L 669.2 45.3 L 668.8 44.5 L 668.9 43.0 L 669.4 42.3 L 669.9 41.9 L 671.0 41.6 L 672.0 41.7 L 672.9 42.1 L 674.4 42.9 L 679.1 47.0 L 679.5 41.7"
         stroke="black"
         stroke-width="1"
         id="path127" />
      <path
         d="M 596.9 102.0 L 589.0 102.3 L 591.8 107.2 M 596.9 102.0 L 587.9 107.3 M 599.3 106.4 L 598.3 105.6 L 597.3 105.8 L 596.4 106.3 L 595.7 107.1 L 595.7 108.0 L 596.0 109.6 L 596.1 110.8 L 595.6 112.0 L 595.0 112.8 L 593.7 113.5 L 592.6 113.7 L 592.0 113.6 L 591.0 112.9 L 590.2 111.6 L 590.1 110.4 L 590.4 109.8 L 591.0 109.0 L 592.3 108.3 L 593.4 108.1 L 594.6 108.2 L 595.6 108.9 L 596.8 110.0 L 597.6 110.4 L 598.7 110.2 L 599.5 109.7 L 600.2 108.9 L 600.1 107.7 L 599.2 106.2"
         stroke="black"
         stroke-width="1"
         id="path128" />
      <path
         d="m 590.41807,66.410151 0.8,-7.9 -5.2,2.1 m 4.4,5.8 -4,-9.7 m -4.7,9.4 -0.3,-1.5 0.4,-1.2 0.8,-0.9 0.4,-0.2 1.2,0.1 1.1,0.6 0.9,1.2 0.2,0.5 0.2,1.5 -0.3,1.2 -0.9,0.9 -0.3,0.2 -1.2,-0.1 -1.1,-0.6 -1.1,-1.7 -1,-2.3 -0.6,-2.5 0.1,-1.6 0.9,-0.9 0.7,-0.3 h 1.2 l 0.7,0.8"
         stroke="#000000"
         stroke-width="1"
         id="path129" />
      <path
         d="M 679.1 141.6 L 682.5 139.4 L 682.8 143.9 L 683.8 143.3 L 684.7 143.3 L 685.2 143.5 L 686.4 144.6 L 686.9 145.4 L 687.4 146.9 L 687.3 148.1 L 686.7 149.2 L 685.7 149.8 L 684.5 150.0 L 683.9 149.8 L 683.1 149.1 M 688.1 135.7 L 690.7 146.6 M 683.7 138.6 L 688.1 135.7"
         stroke="black"
         stroke-width="1"
         id="path130" />
      <path
         d="m 691.43465,80.685561 -3.8,-1.6 3.6,-2.8 -1,-0.5 -0.5,-0.7 -0.2,-0.6 0.3,-1.5 0.4,-1 0.9,-1.2 1.1,-0.6 1.2,-0.1 1,0.5 0.9,0.9 0.1,0.6 v 1.1 m -11.3,4.4 h 1.2 l 1.3,-1.1 1.3,-2.2 0.6,-1.3 0.6,-2.5 -0.1,-1.7 -0.8,-0.9 -0.7,-0.3 -1.3,0.1 -1.2,1.1 -1.4,2.1 -0.5,1.4 -0.7,2.4 0.1,1.7 0.9,0.9 0.5,0.2"
         stroke="#000000"
         stroke-width="1"
         id="path131" />
      <path
         d="m 743.0783,101.3368 -1.1,-0.1 -1,0.7 -0.4,0.6 -0.1,1.3 0.9,1.4 2,1.5 2.2,1.3 1.9,0.7 1.2,-0.2 1,-0.7 0.2,-0.3 0.1,-1.2 -0.5,-1.2 -1.1,-1.1 -0.4,-0.2 -1.5,-0.4 -1.2,0.1 -1,0.7 -0.2,0.3 -0.1,1.3 0.4,1.1 1.2,1.1 m 0.5,-11.900003 -1,-0.2 -1,0.7 -0.4,0.7 -0.2,1.2 1,1.4 1.9,1.600003 2.2,1.3 1.9,0.6 1.3,-0.1 1,-0.7 0.1,-0.4 0.2,-1.2 -0.5,-1.100003 -1.1,-1.1 -0.4,-0.3 -1.5,-0.4 -1.3,0.2 -1,0.7 -0.2,0.3 -0.1,1.200003 0.5,1.2 1.1,1.1"
         stroke="#000000"
         stroke-width="1"
         id="path132" />
      <path
         d="M 714.8 51.4 L 715.3 51.5 L 716.2 52.1 L 716.6 52.6 L 717.0 53.4 L 716.7 54.9 L 716.0 55.5 L 715.5 55.8 L 714.4 55.9 L 713.4 55.7 L 712.5 55.2 L 711.2 54.1 L 707.1 49.5 L 706.0 54.6 M 713.5 58.0 L 713.9 58.1 L 714.9 58.7 L 715.3 59.1 L 715.6 60.0 L 715.3 61.4 L 714.7 62.1 L 714.1 62.3 L 713.0 62.5 L 712.1 62.3 L 711.2 61.7 L 709.8 60.7 L 705.7 56.0 L 704.6 61.2"
         stroke="black"
         stroke-width="1"
         id="path133" />
      <path
         d="M 728.9 64.6 L 728.8 65.6 L 729.6 66.6 L 730.3 66.9 L 731.5 66.9 L 732.9 65.9 L 734.3 63.8 L 735.4 61.6 L 735.9 59.6 L 735.7 58.4 L 734.9 57.4 L 734.6 57.3 L 733.3 57.2 L 732.2 57.8 L 731.2 59.0 L 731.0 59.4 L 730.7 61.0 L 730.9 62.2 L 731.7 63.1 L 732.1 63.3 L 733.3 63.3 L 734.4 62.8 L 735.4 61.6 M 723.3 63.6 L 729.7 58.9 L 724.7 56.5 M 723.3 63.6 L 727.9 54.1"
         stroke="black"
         stroke-width="1"
         id="path134" />
      <path
         d="m 974.08119,591.64546 4,6.9 3,-4.8 m -7,-2.1 9,5.5 m -5.4,-6.7 v -0.9 l -0.7,-1.8 9,5.5"
         stroke="#000000"
         stroke-width="1"
         id="path135" />
      <path
         d="M 967.7 510.0 L 965.5 513.5 L 963.4 509.4 L 962.8 510.4 L 961.9 510.8 L 961.3 510.8 L 959.8 510.3 L 959.0 509.8 L 957.9 508.6 L 957.5 507.5 L 957.7 506.2 L 958.3 505.3 L 959.3 504.6 L 960.0 504.6 L 961.0 504.8 M 963.6 516.4 L 963.8 515.2 L 963.2 514.3 L 962.4 513.8 L 961.3 513.6 L 960.5 513.9 L 959.3 514.9 L 958.2 515.6 L 957.0 515.7 L 955.9 515.4 L 954.7 514.6 L 954.0 513.8 L 953.8 513.2 L 954.0 512.0 L 954.8 510.7 L 955.9 510.0 L 956.5 510.0 L 957.5 510.2 L 958.8 511.0 L 959.4 511.9 L 959.9 513.1 L 959.7 514.3 L 959.3 515.8 L 959.3 516.7 L 959.9 517.6 L 960.8 518.1 L 961.8 518.3 L 962.8 517.7 L 963.7 516.2"
         stroke="black"
         stroke-width="1"
         id="path136" />
      <path
         d="m 909.62781,632.9476 -0.4,-1 -1.1,-0.5 h -0.7 l -1.2,0.4 -0.7,1.5 -0.5,2.5 v 2.5 l 0.3,2 0.7,1 1.1,0.6 h 0.4 l 1.2,-0.5 0.7,-1 0.4,-1.5 v -0.5 l -0.3,-1.5 -0.7,-1 -1.1,-0.5 h -0.4 l -1.1,0.4 -0.8,1 -0.4,1.5 m 6.9,-6.8 4.1,0.1 -2.3,3.9 h 1.1 l 0.7,0.6 0.4,0.5 0.4,1.5 -0.1,1 -0.4,1.5 -0.7,0.9 -1.2,0.5 h -1.1 l -1.1,-0.5 -0.4,-0.5 -0.3,-1"
         stroke="#000000"
         stroke-width="1"
         id="path137" />
      <path
         d="M 898.6 557.5 L 902.2 558.5 L 903.8 554.3 L 903.3 554.6 L 902.1 554.8 L 901.0 554.5 L 900.0 553.7 L 899.6 552.6 L 899.6 551.0 L 899.9 550.1 L 900.7 548.7 L 901.6 548.0 L 902.9 547.8 L 903.9 548.1 L 904.9 548.9 L 905.1 549.4 L 905.2 550.5 M 894.9 556.5 L 896.1 556.3 L 896.8 555.4 L 897.0 554.5 L 896.9 553.4 L 896.4 552.7 L 895.0 551.8 L 894.1 551.0 L 893.6 549.9 L 893.6 548.8 L 894.0 547.4 L 894.6 546.5 L 895.1 546.1 L 896.3 545.9 L 897.8 546.3 L 898.7 547.1 L 898.9 547.7 L 899.0 548.8 L 898.6 550.2 L 898.0 551.1 L 897.0 551.8 L 895.8 552.0 L 894.2 552.1 L 893.3 552.4 L 892.7 553.2 L 892.4 554.2 L 892.5 555.3 L 893.5 556.1 L 895.1 556.5"
         stroke="black"
         stroke-width="1"
         id="path138" />
      <path
         d="m 855.37904,644.90718 -0.8,-0.7 -1.2,0.1 -0.7,0.3 -0.7,1 v 1.7 l 0.8,2.3 1.2,2.3 1.2,1.6 1.2,0.5 1.2,-0.1 0.3,-0.2 0.8,-0.9 0.2,-1.3 -0.4,-1.5 -0.2,-0.4 -1,-1.2 -1.2,-0.5 -1.2,0.1 -0.3,0.2 -0.8,0.9 -0.2,1.3 0.4,1.5 m 4.1,-10.1 -0.8,1 0.1,1.6 0.8,2.4 0.7,1.4 1.5,2 1.3,1 1.3,-0.1 0.6,-0.4 0.8,-0.9 v -1.7 l -0.9,-2.4 -0.7,-1.3 -1.5,-2.1 -1.3,-0.9 h -1.2 l -0.5,0.3"
         stroke="#000000"
         stroke-width="1"
         id="path139" />
      <path
         d="M 851.7 566.8 L 854.9 564.9 L 853.0 560.9 L 852.9 561.5 L 852.2 562.5 L 851.2 563.0 L 850.0 563.2 L 848.9 562.7 L 847.8 561.6 L 847.3 560.7 L 846.9 559.2 L 847.0 558.0 L 847.7 557.0 L 848.7 556.4 L 849.9 556.3 L 850.5 556.5 L 851.3 557.2 M 844.0 567.2 L 843.6 565.7 L 843.8 564.5 L 844.5 563.5 L 844.8 563.3 L 846.0 563.1 L 847.2 563.6 L 848.3 564.8 L 848.5 565.2 L 848.9 566.7 L 848.8 567.9 L 848.1 568.9 L 847.7 569.1 L 846.5 569.2 L 845.4 568.7 L 844.0 567.2 L 842.8 565.0 L 841.9 562.7 L 841.8 561.0 L 842.5 560.0 L 843.1 559.6 L 844.4 559.5 L 845.2 560.2"
         stroke="black"
         stroke-width="1"
         id="path140" />
      <path
         d="m 1006.7531,469.38416 v 1.1 l 0.9,0.8 0.7,0.3 1.2,-0.1 1.2,-1.2 1.2,-2.2 0.9,-2.3 0.3,-2 -0.3,-1.2 -0.9,-0.9 -0.4,-0.1 -1.2,0.1 -1,0.7 -0.9,1.2 -0.2,0.5 -0.1,1.5 0.3,1.2 0.9,0.9 0.4,0.1 1.2,-0.1 1,-0.6 0.9,-1.3 m -9.9,3.8 1.3,-0.1 0.7,-0.8 0.3,-0.9 v -1.1 l -0.5,-0.7 -1.3,-1 -0.9,-0.9 -0.3,-1.1 v -1.1 l 0.5,-1.4 0.7,-0.8 0.5,-0.4 1.2,-0.1 1.5,0.6 0.8,0.8 0.2,0.6 v 1.1 l -0.5,1.4 -0.7,0.8 -1,0.7 -1.3,0.1 -1.5,-0.1 -0.9,0.2 -0.7,0.8 -0.4,1 v 1 l 0.9,0.9 1.6,0.6"
         stroke="#000000"
         stroke-width="1"
         id="path141" />
      <path
         d="m 1016.5245,515.2646 h -1.1 l -0.9,0.8 -0.2,0.7 v 1.2 l 1.1,1.3 2.1,1.3 2.3,1 2,0.4 1.2,-0.3 0.9,-0.8 0.2,-0.4 v -1.2 l -0.7,-1.1 -1.2,-0.9 -0.5,-0.2 -1.5,-0.2 -1.2,0.3 -0.9,0.8 -0.2,0.4 0.1,1.2 0.6,1.1 1.2,0.9 m 1,-11.4 1.3,0.9 0.6,1.1 v 1.2 l -0.1,0.3 -0.9,0.9 -1.2,0.3 -1.5,-0.2 -0.5,-0.2 -1.2,-1 -0.7,-1 v -1.3 l 0.1,-0.3 0.9,-0.9 1.3,-0.3 1.9,0.5 2.3,0.9 2.2,1.3 1.1,1.3 v 1.2 l -0.3,0.7 -0.9,0.9 -1,-0.1"
         stroke="#000000"
         stroke-width="1"
         id="path142" />
      <path
         d="M 813.2 632.0 L 813.2 630.9 L 812.3 630.1 L 811.6 629.8 L 810.4 629.9 L 809.1 631.0 L 807.9 633.2 L 807.0 635.6 L 806.7 637.6 L 807.1 638.8 L 807.9 639.7 L 808.3 639.8 L 809.5 639.7 L 810.6 639.0 L 811.4 637.7 L 811.6 637.3 L 811.8 635.7 L 811.4 634.5 L 810.5 633.7 L 810.2 633.6 L 809.0 633.6 L 807.9 634.3 L 807.0 635.6 M 814.9 633.7 L 815.1 633.2 L 815.8 632.4 L 816.3 632.1 L 817.2 631.9 L 818.6 632.4 L 819.1 633.1 L 819.3 633.7 L 819.3 634.8 L 818.9 635.7 L 818.2 636.5 L 817.0 637.7 L 811.8 641.1 L 816.7 642.9"
         stroke="black"
         stroke-width="1"
         id="path143" />
      <path
         d="M 790.7 581.6 L 790.7 582.7 L 791.7 583.5 L 792.4 583.7 L 793.6 583.5 L 794.8 582.3 L 795.8 580.0 L 796.5 577.6 L 796.7 575.6 L 796.3 574.4 L 795.4 573.6 L 795.0 573.5 L 793.8 573.7 L 792.8 574.4 L 792.0 575.7 L 791.9 576.2 L 791.8 577.8 L 792.2 578.9 L 793.2 579.7 L 793.5 579.8 L 794.7 579.7 L 795.7 578.9 L 796.5 577.6 M 789.5 580.4 L 788.7 580.6 L 787.2 581.8 L 790.1 571.7"
         stroke="black"
         stroke-width="1"
         id="path144" />
      <path
         d="m 751.86898,619.29562 -3.3,-1.8 -2.5,3.8 0.6,-0.3 1.2,0.1 1,0.6 0.8,0.9 0.2,1.3 -0.4,1.5 -0.5,0.8 -1,1.2 -1.2,0.5 -1.2,-0.1 -1,-0.5 -0.7,-1 -0.1,-0.6 0.1,-1.1 m 13,-0.9 0.1,-1.1 -0.7,-1 -0.7,-0.3 -1.2,-0.1 -1.4,0.9 -1.5,2.1 -1.2,2.2 -0.6,1.9 0.2,1.2 0.7,1 0.4,0.2 1.2,0.1 1.1,-0.5 1.1,-1.2 0.2,-0.4 0.4,-1.5 -0.2,-1.3 -0.8,-0.9 -0.3,-0.2 -1.2,-0.1 -1.2,0.5 -1,1.2"
         stroke="#000000"
         stroke-width="1"
         id="path145" />
      <path
         d="M 744.8 540.9 L 746.7 544.1 L 750.8 542.1 L 750.1 542.1 L 749.1 541.4 L 748.5 540.4 L 748.4 539.2 L 748.9 538.0 L 749.9 536.9 L 750.8 536.4 L 752.3 535.9 L 753.5 536.1 L 754.5 536.8 L 755.1 537.7 L 755.3 538.9 L 755.0 539.5 L 754.4 540.4 M 743.4 538.7 L 741.3 535.1 L 745.8 535.0 L 745.3 534.0 L 745.3 533.1 L 745.5 532.5 L 746.6 531.4 L 747.5 530.9 L 749.0 530.5 L 750.2 530.6 L 751.2 531.3 L 751.8 532.2 L 751.9 533.5 L 751.7 534.1 L 751.1 534.9"
         stroke="black"
         stroke-width="1"
         id="path146" />
      <path
         d="m 695.41155,603.95049 -3.7,0.1 -0.2,4.5 0.3,-0.5 1.1,-0.5 1.1,-0.1 1.2,0.5 0.8,1 0.4,1.4 v 1 l -0.3,1.5 -0.7,1.1 -1.1,0.5 -1.1,0.1 -1.2,-0.5 -0.4,-0.5 -0.4,-1 m 10.6,-8.9 -3.7,0.2 -0.2,4.5 0.3,-0.5 1.1,-0.6 h 1.1 l 1.2,0.4 0.8,1 0.4,1.5 v 1 l -0.3,1.5 -0.7,1 -1.1,0.6 h -1.1 l -1.2,-0.4 -0.4,-0.5 -0.4,-1"
         stroke="#000000"
         stroke-width="1"
         id="path147" />
      <path
         d="M 704.2 522.1 L 706.2 514.4 L 700.8 515.7 M 704.2 522.1 L 701.8 511.9 M 699.4 523.1 L 700.3 522.4 L 700.5 521.3 L 700.2 520.3 L 699.7 519.4 L 698.8 519.1 L 697.2 519.0 L 696.0 518.8 L 695.1 517.9 L 694.5 517.1 L 694.1 515.6 L 694.3 514.5 L 694.5 514.0 L 695.5 513.2 L 697.0 512.9 L 698.2 513.1 L 698.7 513.5 L 699.2 514.4 L 699.6 515.9 L 699.5 516.9 L 698.9 518.1 L 698.0 518.8 L 696.6 519.6 L 696.0 520.3 L 695.9 521.4 L 696.1 522.3 L 696.7 523.2 L 697.9 523.4 L 699.5 523.1"
         stroke="black"
         stroke-width="1"
         id="path148" />
      <path
         d="M 596.8 562.1 L 589.0 560.6 L 590.7 566.0 M 596.8 562.1 L 586.8 565.2 M 597.9 565.7 L 599.1 569.6 L 594.6 568.7 L 595.0 569.8 L 594.7 570.6 L 594.3 571.1 L 593.0 571.9 L 592.1 572.2 L 590.5 572.3 L 589.3 571.9 L 588.5 571.0 L 588.2 569.9 L 588.3 568.7 L 588.7 568.2 L 589.5 567.5"
         stroke="black"
         stroke-width="1"
         id="path149" />
      <path
         d="M 643.4 499.4 L 650.9 502.1 L 650.1 496.5 M 643.4 499.4 L 653.8 497.9 M 645.8 491.0 L 647.4 491.2 L 648.5 491.8 L 649.1 492.8 L 649.2 493.2 L 648.9 494.4 L 648.0 495.3 L 646.6 495.9 L 646.1 495.9 L 644.5 495.8 L 643.4 495.2 L 642.8 494.1 L 642.7 493.8 L 643.0 492.6 L 643.9 491.7 L 645.8 491.0 L 648.3 490.7 L 650.8 490.7 L 652.4 491.2 L 653.1 492.2 L 653.2 493.0 L 652.9 494.2 L 651.9 494.7"
         stroke="black"
         stroke-width="1"
         id="path150" />
      <path
         d="m 579.85528,510.74802 -6.4,-4.7 -0.8,5.5 m 7.2,-0.8 -10.4,-1.6 m 7.6,8.9 1.1,-0.3 0.6,-1 0.2,-0.7 -0.4,-1.2 -1.3,-1 -2.4,-0.7 -2.5,-0.4 h -2 l -1.1,0.6 -0.7,1 -0.1,0.4 0.3,1.2 0.9,0.9 1.4,0.6 0.5,0.1 1.6,-0.2 1.1,-0.5 0.6,-1.1 0.1,-0.3 -0.3,-1.2 -0.9,-0.9 -1.4,-0.6"
         stroke="#000000"
         stroke-width="1"
         id="path151" />
      <path
         d="m 622.01625,473.64662 2.5,-7.5 -5.6,1 m 3.1,6.5 -1.8,-10.3 m -6.2,11.6 1.9,-11 m 3.2,10.1 -5.1,0.9"
         stroke="#000000"
         stroke-width="1"
         id="path152" />
      <path
         d="M 656.6 636.2 L 656.5 639.9 L 660.9 640.5 L 660.5 640.1 L 660.0 639.0 L 660.1 637.9 L 660.6 636.8 L 661.7 636.1 L 663.2 635.8 L 664.2 635.8 L 665.6 636.2 L 666.6 637.0 L 667.1 638.2 L 667.0 639.3 L 666.5 640.4 L 665.9 640.8 L 664.9 641.1 M 657.0 629.2 L 667.3 633.4 M 656.7 634.4 L 657.0 629.2"
         stroke="black"
         stroke-width="1"
         id="path153" />
      <path
         d="m 579.95817,637.29604 -0.3,-1.2 -1.3,-1 -2.3,-0.9 -1.5,-0.4 -2.5,-0.2 -1.6,0.4 -0.8,1 -0.1,0.8 0.2,1.2 1.3,1 2.4,1 1.4,0.3 2.6,0.2 1.6,-0.4 0.7,-1 0.1,-0.6"
         stroke="#000000"
         stroke-width="1"
         id="path154" />
      <path
         d="m 667.73894,692.88663 -0.3,-0.8 -1.2,-1.4 10.2,2.3 m -9.5,-7.4 6,5.2 1.2,-5.5 m -7.2,0.3 10.2,2.3"
         stroke="#000000"
         stroke-width="1"
         id="path155" />
      <path
         d="m 610.69604,700.27071 0.8,-0.3 1.5,-1.2 -2.7,10.2 m 8.3,-9 -3.7,-1 -1.5,4.2 0.5,-0.3 1.2,-0.2 1.1,0.3 1,0.7 0.4,1.2 v 1.5 l -0.3,1 -0.7,1.4 -1,0.7 -1.2,0.2 -1.1,-0.3 -1,-0.8 -0.2,-0.5 -0.1,-1.1"
         stroke="#000000"
         stroke-width="1"
         id="path156" />
    </g>
    <path
       d="M 805.6 243.7 L 800.0 254.2 L 808.4 254.2 M 805.6 243.7 L 805.6 259.4"
       id="titre_4"
       stroke="indigo" />
    <path
       d="M 764.2 587.8 L 758.6 587.8 L 758.0 594.5 L 758.6 593.8 L 760.3 593.0 L 761.9 593.0 L 763.6 593.8 L 764.8 595.3 L 765.3 597.5 L 765.3 599.0 L 764.8 601.3 L 763.6 602.8 L 761.9 603.5 L 760.3 603.5 L 758.6 602.8 L 758.0 602.0 L 757.4 600.5"
       id="titre_5"
       stroke="indigo" />
  </g>
</svg>
