<?xml version="1.0" encoding="UTF-8" standalone="no"?>
<svg
   height="297mm"
   viewBox="0 0 533 754"
   width="210mm"
   version="1.1"
   id="svg156"
   sodipodi:docname="moineau150_H14_A4x2.svg"
   inkscape:version="1.3.2 (1:1.3.2+202311252150+091e20ef0f)"
   xmlns:inkscape="http://www.inkscape.org/namespaces/inkscape"
   xmlns:sodipodi="http://sodipodi.sourceforge.net/DTD/sodipodi-0.dtd"
   xmlns="http://www.w3.org/2000/svg"
   xmlns:svg="http://www.w3.org/2000/svg">
  <defs
     id="defs156" />
  <sodipodi:namedview
     id="namedview156"
     pagecolor="#ffffff"
     bordercolor="#000000"
     borderopacity="0.25"
     inkscape:showpageshadow="2"
     inkscape:pageopacity="0.0"
     inkscape:pagecheckerboard="0"
     inkscape:deskcolor="#d1d1d1"
     inkscape:document-units="mm"
     showgrid="false"
     inkscape:zoom="2.3618524"
     inkscape:cx="1163.4935"
     inkscape:cy="173.59256"
     inkscape:window-width="1920"
     inkscape:window-height="1008"
     inkscape:window-x="0"
     inkscape:window-y="0"
     inkscape:window-maximized="1"
     inkscape:current-layer="svg156" />
  <style
     type="text/css"
     id="style1"><![CDATA[
			path {
				fill: none;
			}
		]]></style>
  <g
     id="page_001">
    <path
       d="m 86,321.3 33.4,-23.3 41,-32.2 34.1,-46.3 30.2,-41.8 -34.8,38 -42.2,39.2 -18.7,-66.3 6.1,-42.8 24.5,-41.3 25.1,-5.5 -9.1,-61.5 59.7,-1.6 5.4,67.1 52,68.9 -31.8,-80.2 13.7,-65.9 72.6,26.1 -24.5,63.2 42.7,45.7 -19.5,59.8 -28.4,31.2 -36.7,17.1 -40,47.1 56.4,-25.3 40.3,2.6 42.1,-3 61.2,-14.7 -2.9,51.7 -69.4,61.1 -3.7,36.9 7.2,55.2 -21.1,51.5 25.2,27.3 -83.3,36.3 -68,30.7 -5.5,-57.5 -48.7,-48.2 -9.3,67.9 -56.8,-10.9 -64.5,-26.5 60.5,-66.6 44.7,-33.9 17.8,-37.7 62.9,7 10.5,48.3 39.5,50.8 -5.3,-64.1 45.6,-19.3 -31.5,-54.8 -39.1,14.4 -56.1,0.6 -81.3,38.4 -26.9,-43.9 z"
       id="coupes_001"
       stroke="#ff0000"
       stroke-width="1.27"
       sodipodi:nodetypes="ccccccccccccccccccccccccccccccccccccccccccccccccccccccc" />
    <path
       d="m 368.5,388.4 11.1,-98.1 58.3,37 m -153.2,53.5 52.8,-87.5 31,95.1 -52.3,47.2 55.8,44.9 m -74.8,-189.8 -12.5,90.1 -43.9,-64.8 4.8,79.2 m -4.8,-79.2 -121.4,-18 70.1,97.8 z m 29.8,138.9 101.4,25.6 -96.1,38.5 16.9,76.6 M 350.9,532 292.8,595.6 219.3,568.8 275.9,519 m -39.5,-50.8 -91.2,-17.6 25.4,70 z m -76,-202.4 80.4,50.2 -46.3,-96.5 86.3,49.4 -56.1,-91.2 68,-5.8 30,-56.8 -61.8,-23.4 m 56.6,160.1 -24.8,-79.9 53.2,48.7 M 235.3,35.9 184.7,99 l 40,78.7 -95.7,10.9 60.9,27.1 m 50.8,-112.7 -56,-4 108,72.9 72.7,-11.1 M 135.1,145.8 184.7,99 M 81.3,390.3 189.5,395.8 86,321.3 m 14.5,163.2 70.1,36.1 L 40,551.1 m 234.6,-525.3 48.1,89.3"
       id="plisM_001"
       stroke="#a52a2a"
       stroke-dasharray="4"
       sodipodi:nodetypes="cccccccccccccccccccccccccccccccccccccccccccccccccccccccccc" />
    <path
       d="M 372.0 337.3 L 376.0 341.3 M 376.0 337.3 L 372.0 341.3 M 406.8 306.8 L 410.8 310.8 M 410.8 306.8 L 406.8 310.8 M 351.0 338.8 L 355.0 342.8 M 355.0 338.8 L 351.0 342.8 M 309.1 335.0 L 313.1 339.0 M 313.1 335.0 L 309.1 339.0 M 289.0 333.7 L 293.0 337.7 M 293.0 333.7 L 289.0 337.7 M 340.3 410.0 L 344.3 414.0 M 344.3 410.0 L 340.3 414.0 M 260.7 346.4 L 264.7 350.4 M 264.7 346.4 L 260.7 350.4 M 241.2 353.6 L 245.2 357.6 M 245.2 353.6 L 241.2 357.6 M 213.1 353.9 L 217.1 357.9 M 217.1 353.9 L 213.1 357.9 M 342.1 456.1 L 346.1 460.1 M 346.1 456.1 L 342.1 460.1 M 319.3 465.7 L 323.3 469.7 M 323.3 465.7 L 319.3 469.7 M 322.0 497.8 L 326.0 501.8 M 326.0 497.8 L 322.0 501.8 M 319.8 561.8 L 323.8 565.8 M 323.8 561.8 L 319.8 565.8 M 282.3 555.3 L 286.3 559.3 M 286.3 555.3 L 282.3 559.3 M 254.0 580.2 L 258.0 584.2 M 258.0 580.2 L 254.0 584.2 M 245.6 541.9 L 249.6 545.9 M 249.6 541.9 L 245.6 545.9 M 201.5 492.4 L 205.5 496.4 M 205.5 492.4 L 201.5 496.4 M 155.9 483.6 L 159.9 487.6 M 159.9 483.6 L 155.9 487.6 M 188.8 457.4 L 192.8 461.4 M 192.8 457.4 L 188.8 461.4 M 152.5 344.9 L 156.5 348.9 M 156.5 344.9 L 152.5 348.9 M 178.1 305.0 L 182.1 309.0 M 182.1 305.0 L 178.1 309.0 M 198.6 288.9 L 202.6 292.9 M 202.6 288.9 L 198.6 292.9 M 215.6 265.8 L 219.6 269.8 M 219.6 265.8 L 215.6 269.8 M 235.7 242.2 L 239.7 246.2 M 239.7 242.2 L 235.7 246.2 M 250.8 221.3 L 254.8 225.3 M 254.8 221.3 L 250.8 225.3 M 256.7 172.8 L 260.7 176.8 M 260.7 172.8 L 256.7 176.8 M 303.1 209.9 L 307.1 213.9 M 307.1 209.9 L 303.1 213.9 M 317.3 194.2 L 321.3 198.2 M 321.3 194.2 L 317.3 198.2 M 202.7 136.4 L 206.7 140.4 M 206.7 136.4 L 202.7 140.4 M 236.7 133.5 L 240.7 137.5 M 240.7 133.5 L 236.7 137.5 M 210.7 99.0 L 214.7 103.0 M 214.7 99.0 L 210.7 103.0 M 208.0 65.5 L 212.0 69.5 M 212.0 65.5 L 208.0 69.5 M 157.9 120.4 L 161.9 124.4 M 161.9 120.4 L 157.9 124.4 M 174.9 181.2 L 178.9 185.2 M 178.9 181.2 L 174.9 185.2 M 157.5 200.2 L 161.5 204.2 M 161.5 200.2 L 157.5 204.2 M 135.8 356.6 L 139.8 360.6 M 139.8 356.6 L 135.8 360.6 M 133.4 391.0 L 137.4 395.0 M 137.4 391.0 L 133.4 395.0 M 133.5 500.5 L 137.5 504.5 M 137.5 500.5 L 133.5 504.5 M 103.3 533.8 L 107.3 537.8 M 107.3 533.8 L 103.3 537.8 M 327.0 164.3 L 331.0 168.3 M 331.0 164.3 L 327.0 168.3 M 305.7 141.5 L 309.7 145.5 M 309.7 141.5 L 305.7 145.5 M 289.8 101.4 L 293.8 105.4 M 293.8 101.4 L 289.8 105.4 M 296.7 68.4 L 300.7 72.4 M 300.7 68.4 L 296.7 72.4"
       display="none"
       id="marqueM_001"
       stroke="brown" />
    <path
       d="m 368.5,388.4 -83.8,-7.6 m 80.1,44.5 -48.6,10.3 m 34.7,96.4 -75,-13 -105.3,1.6 -66.1,57 m 40.7,-127 80.7,-30.7 m 66.8,-248 -11.9,97 m -56.1,-91.2 -89.6,-31.9"
       id="plisV_001"
       stroke="#008000"
       stroke-dasharray="4, 1, 1, 1"
       stroke-width="1.27"
       sodipodi:nodetypes="cccccccccccccc" />
    <path
       d="M 324.6 382.6 L 328.6 386.6 M 328.6 382.6 L 324.6 386.6 M 338.5 428.5 L 342.5 432.5 M 342.5 428.5 L 338.5 432.5 M 311.4 523.5 L 315.4 527.5 M 315.4 523.5 L 311.4 527.5 M 221.2 517.8 L 225.2 521.8 M 225.2 517.8 L 221.2 521.8 M 183.6 433.3 L 187.6 437.3 M 187.6 433.3 L 183.6 437.3 M 284.8 218.4 L 288.8 222.4 M 288.8 218.4 L 284.8 222.4 M 177.9 159.8 L 181.9 163.8 M 181.9 159.8 L 177.9 163.8 M 135.6 547.1 L 139.6 551.1 M 139.6 547.1 L 135.6 551.1"
       id="marqueV_001"
       stroke="green" />
    <g
       id="nums_001">
      <path
         d="M 393.5 348.0 L 393.0 349.2 L 393.4 350.8 L 394.8 352.9 L 395.8 354.0 L 397.7 355.7 L 399.3 356.3 L 400.4 355.9 L 401.0 355.4 L 401.5 354.3 L 401.1 352.7 L 399.7 350.6 L 398.7 349.4 L 396.8 347.8 L 395.3 347.2 L 394.1 347.5 L 393.7 347.9"
         stroke="black"
         stroke-width="1"
         id="path1" />
      <path
         d="M 357.8 304.1 L 358.2 305.1 L 359.4 305.5 L 360.1 305.5 L 361.2 304.9 L 361.9 303.4 L 362.1 300.8 L 361.9 298.3 L 361.4 296.4 L 360.5 295.4 L 359.4 295.0 L 359.0 295.0 L 357.9 295.6 L 357.3 296.7 L 357.0 298.2 L 357.0 298.7 L 357.5 300.2 L 358.3 301.1 L 359.5 301.5 L 359.8 301.5 L 360.9 300.9 L 361.6 299.9 L 361.9 298.3"
         stroke="black"
         stroke-width="1"
         id="path2" />
      <path
         d="M 314.3 305.6 L 318.8 295.3 M 319.6 305.9 L 314.3 305.6"
         stroke="black"
         stroke-width="1"
         id="path3" />
      <path
         d="M 308.1 398.6 L 308.9 399.0 L 310.7 399.2 L 301.6 404.5 M 314.2 404.5 L 303.2 406.5 M 311.5 399.9 L 314.2 404.5"
         stroke="black"
         stroke-width="1"
         id="path4" />
      <path
         d="m 354.9,413.94575 -0.4,-0.8 -1.4,-1.2 10.4,1 m -8.7,-6.6 -1.1,0.3 -0.6,1.1 v 0.7 l 0.3,1.2 1.5,0.9 2.4,0.6 2.5,0.2 2,-0.2 1.1,-0.6 0.6,-1.1 v -0.3 l -0.3,-1.2 -1,-0.9 -1.4,-0.5 h -0.5 l -1.6,0.2 -1,0.7 -0.6,1 -0.1,0.4 0.4,1.2 0.9,0.8 1.5,0.5"
         stroke="#000000"
         stroke-width="1"
         id="path5" />
      <path
         d="M 279.6 313.6 L 275.9 315.3 L 276.3 310.7 L 275.3 311.2 L 274.4 311.1 L 273.8 310.8 L 272.9 309.5 L 272.5 308.6 L 272.2 307.1 L 272.5 305.9 L 273.3 305.0 L 274.3 304.5 L 275.5 304.5 L 276.1 304.8 L 276.8 305.6 M 273.8 316.2 L 270.0 317.9 L 270.4 313.4 L 269.4 313.8 L 268.5 313.7 L 268.0 313.4 L 267.0 312.2 L 266.6 311.3 L 266.3 309.7 L 266.6 308.5 L 267.4 307.6 L 268.5 307.1 L 269.7 307.1 L 270.2 307.4 L 271.0 308.2"
         stroke="black"
         stroke-width="1"
         id="path6" />
      <path
         d="M 256.9 378.9 L 257.4 378.2 L 258.0 376.4 L 261.6 386.2 M 260.7 375.0 L 259.8 375.8 L 259.8 376.9 L 260.2 377.8 L 260.9 378.6 L 261.7 378.9 L 263.3 378.8 L 264.5 378.9 L 265.6 379.6 L 266.3 380.4 L 266.8 381.8 L 266.8 382.8 L 266.6 383.4 L 265.7 384.3 L 264.3 384.8 L 263.1 384.7 L 262.6 384.4 L 261.9 383.6 L 261.4 382.2 L 261.4 381.1 L 261.7 379.9 L 262.6 379.1 L 263.8 378.1 L 264.4 377.3 L 264.4 376.3 L 264.0 375.3 L 263.3 374.5 L 262.1 374.5 L 260.5 375.0"
         stroke="black"
         stroke-width="1"
         id="path7" />
      <path
         d="M 211.6 384.3 L 211.6 383.8 L 211.9 382.8 L 212.3 382.3 L 213.1 381.8 L 214.6 381.8 L 215.3 382.3 L 215.7 382.8 L 216.1 383.8 L 216.1 384.8 L 215.7 385.8 L 215.0 387.3 L 211.3 392.3 L 216.5 392.3 M 219.9 381.7 L 218.7 382.2 L 218.0 383.8 L 217.7 386.3 L 217.7 387.8 L 218.1 390.3 L 218.8 391.7 L 220.0 392.2 L 220.7 392.2 L 221.8 391.7 L 222.6 390.2 L 222.9 387.7 L 222.9 386.2 L 222.5 383.7 L 221.7 382.2 L 220.6 381.7 L 220.1 381.7"
         stroke="black"
         stroke-width="1"
         id="path8" />
      <path
         d="M 357.8 459.2 L 357.2 458.5 L 355.6 457.6 L 366.0 456.3 M 354.4 452.6 L 361.9 455.4 L 361.1 449.8 M 354.4 452.6 L 364.9 451.2"
         stroke="black"
         stroke-width="1"
         id="path9" />
      <path
         d="M 302.2 453.9 L 301.7 454.7 L 301.3 456.5 L 297.2 446.8 M 298.7 455.2 L 298.9 455.7 L 299.0 456.7 L 298.8 457.4 L 298.3 458.1 L 296.9 458.7 L 296.1 458.5 L 295.5 458.2 L 294.8 457.4 L 294.4 456.5 L 294.4 455.4 L 294.5 453.8 L 296.0 447.7 L 291.1 449.7"
         stroke="black"
         stroke-width="1"
         id="path10" />
      <path
         d="M 284.4 483.1 L 284.9 483.9 L 286.5 484.9 L 276.1 485.7 M 284.6 486.1 L 285.2 486.8 L 286.8 487.8 L 276.3 488.7"
         stroke="black"
         stroke-width="1"
         id="path11" />
      <path
         d="M 349.1 506.5 L 348.9 505.6 L 347.9 504.0 L 357.7 508.0 M 349.5 499.1 L 354.5 505.2 L 356.7 500.0 M 349.5 499.1 L 359.2 503.1"
         stroke="black"
         stroke-width="1"
         id="path12" />
      <path
         d="M 358.2 556.6 L 357.3 556.4 L 355.4 556.6 L 363.1 549.5 M 352.4 551.7 L 351.9 552.6 L 352.3 553.8 L 352.9 554.3 L 354.0 554.8 L 355.6 554.4 L 357.7 552.9 L 359.5 551.2 L 360.7 549.6 L 361.0 548.4 L 360.6 547.2 L 360.3 546.9 L 359.2 546.4 L 357.9 546.6 L 356.6 547.3 L 356.2 547.7 L 355.4 549.0 L 355.1 550.2 L 355.5 551.3 L 355.8 551.6 L 356.9 552.1 L 358.2 552.0 L 359.5 551.2"
         stroke="black"
         stroke-width="1"
         id="path13" />
      <path
         d="M 325.7 568.8 L 326.2 568.0 L 326.6 566.2 L 330.8 575.8 M 331.6 563.6 L 328.2 565.1 L 329.7 569.4 L 329.8 568.8 L 330.6 567.9 L 331.7 567.4 L 332.9 567.4 L 334.0 568.1 L 334.9 569.3 L 335.3 570.2 L 335.6 571.7 L 335.3 572.9 L 334.5 573.9 L 333.4 574.3 L 332.2 574.3 L 331.7 574.0 L 330.9 573.2"
         stroke="black"
         stroke-width="1"
         id="path14" />
      <path
         d="M 199.7 533.4 L 200.6 533.5 L 202.4 533.3 L 195.0 540.7 M 204.0 534.3 L 207.0 537.2 L 202.5 538.5 L 203.3 539.3 L 203.5 540.2 L 203.4 540.8 L 202.6 542.1 L 201.9 542.8 L 200.6 543.6 L 199.4 543.8 L 198.2 543.4 L 197.4 542.6 L 197.0 541.5 L 197.1 540.8 L 197.5 539.9"
         stroke="black"
         stroke-width="1"
         id="path15" />
      <path
         d="M 248.9 502.9 L 248.0 502.6 L 246.2 502.6 L 254.4 496.2 M 247.1 500.5 L 246.2 500.3 L 244.3 500.3 L 252.6 493.8"
         stroke="black"
         stroke-width="1"
         id="path16" />
      <path
         d="M 221.0 451.1 L 220.3 450.5 L 218.6 449.7 L 228.9 447.5 M 220.4 447.5 L 219.9 447.6 L 218.8 447.4 L 218.2 447.2 L 217.6 446.5 L 217.3 445.1 L 217.6 444.2 L 218.0 443.8 L 218.9 443.2 L 219.9 443.0 L 220.9 443.1 L 222.6 443.5 L 228.3 446.1 L 227.1 441.0"
         stroke="black"
         stroke-width="1"
         id="path17" />
      <path
         d="M 166.4 432.5 L 166.5 433.4 L 167.4 435.0 L 157.9 430.5 M 166.4 437.9 L 166.5 436.7 L 165.7 435.9 L 164.8 435.5 L 163.7 435.4 L 163.0 435.9 L 161.9 437.0 L 160.9 437.8 L 159.7 438.1 L 158.7 438.0 L 157.3 437.4 L 156.6 436.6 L 156.3 436.0 L 156.3 434.8 L 156.9 433.5 L 157.9 432.6 L 158.5 432.5 L 159.5 432.6 L 160.9 433.2 L 161.6 434.0 L 162.2 435.1 L 162.2 436.3 L 162.0 437.9 L 162.1 438.8 L 162.9 439.6 L 163.8 440.0 L 164.9 440.1 L 165.8 439.3 L 166.5 437.8"
         stroke="black"
         stroke-width="1"
         id="path18" />
      <path
         d="M 197.7 428.2 L 196.9 428.7 L 195.6 430.0 L 196.8 419.6 M 189.3 429.7 L 194.2 419.7 M 194.6 430.3 L 189.3 429.7"
         stroke="black"
         stroke-width="1"
         id="path19" />
      <path
         d="M 416.3 295.7 L 418.3 288.1 L 412.8 289.4 M 416.3 295.7 L 413.8 285.5 M 409.5 297.4 L 411.5 289.7 L 406.0 291.0 M 409.5 297.4 L 407.0 287.2"
         stroke="black"
         stroke-width="1"
         id="path20" />
      <path
         d="M 425.4 303.5 L 432.1 307.7 L 432.5 302.1 M 425.4 303.5 L 435.9 304.1 M 425.9 296.0 L 425.7 299.8 L 430.2 300.4 L 429.7 300.0 L 429.2 298.9 L 429.3 297.7 L 429.9 296.6 L 430.9 295.9 L 432.4 295.7 L 433.4 295.7 L 434.9 296.2 L 435.9 297.0 L 436.3 298.1 L 436.2 299.2 L 435.7 300.3 L 435.1 300.7 L 434.1 301.0"
         stroke="black"
         stroke-width="1"
         id="path21" />
      <path
         d="M 150.7 291.0 L 149.3 283.2 L 144.9 286.7 M 150.7 291.0 L 144.2 282.8 M 147.7 293.3 L 144.5 295.8 L 143.7 291.3 L 142.9 292.0 L 142.0 292.1 L 141.4 291.9 L 140.1 291.0 L 139.5 290.2 L 138.9 288.8 L 138.9 287.5 L 139.4 286.4 L 140.3 285.7 L 141.5 285.4 L 142.1 285.6 L 143.0 286.2"
         stroke="black"
         stroke-width="1"
         id="path22" />
      <path
         d="M 190.3 248.6 L 186.9 241.4 L 183.6 245.9 M 190.3 248.6 L 181.9 242.3 M 186.6 249.5 L 186.5 250.4 L 187.1 252.2 L 178.6 246.0"
         stroke="black"
         stroke-width="1"
         id="path23" />
      <path
         d="M 246.7 287.7 L 249.4 284.6 L 251.0 288.9 L 251.7 288.0 L 252.6 287.8 L 253.2 287.8 L 254.6 288.5 L 255.4 289.2 L 256.3 290.4 L 256.6 291.6 L 256.2 292.8 L 255.5 293.7 L 254.4 294.2 L 253.7 294.2 L 252.7 293.8 M 250.9 282.9 L 253.6 279.7 L 255.2 284.0 L 255.9 283.2 L 256.8 282.9 L 257.4 282.9 L 258.8 283.6 L 259.5 284.3 L 260.4 285.5 L 260.7 286.8 L 260.4 287.9 L 259.6 288.8 L 258.5 289.3 L 257.9 289.3 L 256.9 288.9"
         stroke="black"
         stroke-width="1"
         id="path24" />
      <path
         d="M 224.0 202.2 L 221.6 205.6 L 219.6 201.4 L 219.0 202.3 L 218.1 202.6 L 217.5 202.6 L 216.1 202.1 L 215.3 201.5 L 214.3 200.3 L 213.9 199.1 L 214.2 197.9 L 214.8 197.0 L 215.9 196.4 L 216.5 196.3 L 217.5 196.6 M 218.0 210.4 L 220.2 207.4 L 216.8 204.5 L 217.0 205.1 L 216.7 206.3 L 216.1 207.2 L 215.0 207.8 L 213.8 207.8 L 212.3 207.2 L 211.5 206.7 L 210.5 205.5 L 210.2 204.3 L 210.4 203.1 L 211.1 202.2 L 212.1 201.5 L 212.8 201.5 L 213.8 201.8"
         stroke="black"
         stroke-width="1"
         id="path25" />
      <path
         d="M 295.3 247.0 L 296.3 258.1 M 290.5 249.2 L 295.3 247.0"
         stroke="black"
         stroke-width="1"
         id="path26" />
      <path
         d="M 323.7 226.8 L 322.7 226.4 L 321.6 226.9 L 321.1 227.4 L 320.7 228.6 L 321.3 230.1 L 322.9 232.1 L 324.8 233.8 L 326.5 234.8 L 327.7 235.0 L 328.9 234.5 L 329.1 234.2 L 329.5 233.0 L 329.3 231.8 L 328.4 230.5 L 328.0 230.2 L 326.7 229.4 L 325.4 229.3 L 324.3 229.8 L 324.0 230.1 L 323.7 231.3 L 323.9 232.5 L 324.8 233.8"
         stroke="black"
         stroke-width="1"
         id="path27" />
      <path
         d="m 254.16526,143.58778 -2.5,-3.3 4.6,-0.7 -0.7,-0.8 v -0.9 l 0.1,-0.7 1,-1.2 0.8,-0.6 1.4,-0.6 h 1.3 l 1,0.6 0.7,0.9 0.3,1.2 -0.2,0.6 -0.5,0.9 m -11.8,-1.5 1,0.6 1.1,-0.3 0.8,-0.6 0.5,-0.9 v -0.9 l -0.5,-1.5 -0.3,-1.2 0.3,-1.2 0.6,-0.9 1.2,-0.9 1,-0.3 h 0.7 l 1,0.6 0.9,1.2 0.3,1.2 -0.1,0.6 -0.6,0.9 -1.2,0.9 -1,0.3 h -1.3 l -1.1,-0.6 -1.3,-0.9 -0.8,-0.3 -1,0.3 -0.8,0.6 -0.6,0.9 0.3,1.2 1,1.4"
         stroke="#000000"
         stroke-width="1"
         id="path28" />
      <path
         d="M 224.7 76.1 L 224.4 71.9 L 228.6 73.9 L 228.5 72.7 L 228.9 72.0 L 229.4 71.5 L 230.8 71.1 L 231.8 71.0 L 233.4 71.2 L 234.4 71.9 L 235.0 73.0 L 235.1 74.1 L 234.7 75.3 L 234.2 75.7 L 233.3 76.1 M 223.9 65.3 L 234.6 68.2 M 224.3 70.6 L 223.9 65.3"
         stroke="black"
         stroke-width="1"
         id="path29" />
      <path
         d="M 146.5 163.7 L 145.9 167.8 L 142.2 165.0 L 142.1 166.1 L 141.5 166.8 L 140.9 167.1 L 139.4 167.3 L 138.4 167.1 L 137.0 166.5 L 136.1 165.7 L 135.7 164.5 L 135.9 163.4 L 136.6 162.3 L 137.1 162.0 L 138.2 161.8 M 143.5 173.6 L 144.6 173.4 L 145.2 172.3 L 145.3 171.6 L 145.0 170.4 L 143.6 169.4 L 141.2 168.7 L 138.7 168.4 L 136.7 168.5 L 135.6 169.1 L 134.9 170.1 L 134.9 170.5 L 135.2 171.7 L 136.1 172.5 L 137.5 173.1 L 138.0 173.2 L 139.6 173.0 L 140.7 172.4 L 141.3 171.4 L 141.4 171.0 L 141.0 169.8 L 140.2 168.9 L 138.7 168.4"
         stroke="black"
         stroke-width="1"
         id="path30" />
      <path
         d="M 193.4 191.5 L 196.2 188.5 L 197.7 192.8 L 198.4 192.0 L 199.3 191.8 L 199.9 191.8 L 201.3 192.6 L 202.0 193.2 L 202.9 194.5 L 203.1 195.8 L 202.7 196.9 L 201.9 197.8 L 200.8 198.3 L 200.2 198.2 L 199.2 197.8 M 200.3 184.0 L 197.8 186.8 L 200.8 190.1 L 200.7 189.5 L 201.1 188.3 L 201.9 187.5 L 203.0 187.0 L 204.2 187.1 L 205.6 187.8 L 206.3 188.5 L 207.2 189.8 L 207.4 191.0 L 207.0 192.2 L 206.3 193.0 L 205.1 193.5 L 204.5 193.5 L 203.5 193.1"
         stroke="black"
         stroke-width="1"
         id="path31" />
      <path
         d="M 157.3 227.1 L 159.3 234.8 L 163.4 231.0 M 157.3 227.1 L 164.4 234.8 M 161.1 226.9 L 161.3 226.0 L 161.1 224.2 L 168.3 231.9"
         stroke="black"
         stroke-width="1"
         id="path32" />
      <path
         d="M 150.9 215.2 L 143.2 213.5 L 144.7 218.9 M 150.9 215.2 L 140.8 218.1 M 149.4 219.5 L 149.9 219.4 L 151.0 219.5 L 151.6 219.7 L 152.2 220.3 L 152.6 221.7 L 152.4 222.6 L 152.0 223.1 L 151.1 223.7 L 150.2 224.0 L 149.1 223.9 L 147.5 223.6 L 141.6 221.3 L 143.0 226.4"
         stroke="black"
         stroke-width="1"
         id="path33" />
      <path
         d="m 160.51375,129.01282 -4.2,-6.8 -2.8,4.8 m 7,2 -9.1,-5.4 m 3.8,11.1 1.1,0.2 1,-0.8 0.4,-0.6 0.1,-1.2 -0.9,-1.4 -2,-1.6 -2.1,-1.3 -1.9,-0.7 -1.3,0.1 -1,0.7 -0.2,0.4 -0.1,1.2 0.5,1.1 1.1,1.1 0.4,0.3 1.5,0.4 1.2,-0.1 1,-0.7 0.2,-0.3 0.2,-1.3 -0.5,-1.1 -1.1,-1.1"
         stroke="#000000"
         stroke-width="1"
         id="path34" />
      <path
         d="m 169.66851,112.14312 -0.6,0.6 -0.8,1.7 -2.2,-10.2 m -4.4,8.4 0.1,-1.5 0.5,-1.1 1,-0.8 0.4,-0.1 1.2,0.3 0.9,0.8 0.7,1.4 0.1,0.5 v 1.5 l -0.6,1.2 -0.9,0.7 -0.4,0.1 -1.2,-0.3 -1,-0.8 -0.8,-1.9 -0.5,-2.4 -0.2,-2.5 0.4,-1.7 1,-0.7 0.8,-0.1 1.2,0.2 0.6,0.9"
         stroke="#000000"
         stroke-width="1"
         id="path35" />
      <path
         d="M 207.6 48.9 L 208.0 49.9 L 209.1 50.4 L 209.9 50.3 L 211.0 49.8 L 211.7 48.3 L 212.0 45.8 L 212.0 43.3 L 211.5 41.3 L 210.8 40.3 L 209.6 39.9 L 209.2 39.9 L 208.1 40.4 L 207.4 41.4 L 207.1 42.9 L 207.1 43.4 L 207.5 44.9 L 208.3 45.9 L 209.4 46.4 L 209.8 46.3 L 210.9 45.8 L 211.6 44.8 L 212.0 43.3 M 202.2 50.6 L 205.7 43.6 L 200.1 43.7 M 202.2 50.6 L 201.9 40.2"
         stroke="black"
         stroke-width="1"
         id="path36" />
      <path
         d="M 193.4 64.0 L 194.0 68.0 L 189.7 66.4 L 189.9 67.5 L 189.5 68.3 L 189.1 68.8 L 187.6 69.4 L 186.6 69.5 L 185.1 69.4 L 184.0 68.8 L 183.3 67.7 L 183.2 66.6 L 183.5 65.4 L 183.9 65.0 L 184.9 64.5"
         stroke="black"
         stroke-width="1"
         id="path37" />
      <path
         d="M 112.0 319.9 L 115.1 317.8 L 112.8 313.9 L 112.8 314.5 L 112.2 315.6 L 111.3 316.2 L 110.0 316.5 L 108.9 316.1 L 107.7 315.0 L 107.1 314.2 L 106.6 312.8 L 106.6 311.5 L 107.3 310.5 L 108.2 309.8 L 109.4 309.6 L 110.0 309.8 L 110.9 310.4 M 109.8 321.5 L 106.5 323.8 L 106.0 319.3 L 105.1 319.9 L 104.2 319.9 L 103.6 319.7 L 102.4 318.7 L 101.9 317.9 L 101.3 316.4 L 101.4 315.2 L 102.0 314.1 L 102.9 313.5 L 104.1 313.3 L 104.7 313.5 L 105.6 314.1"
         stroke="black"
         stroke-width="1"
         id="path38" />
      <path
         d="M 96.0 355.1 L 97.0 354.8 L 97.6 353.7 L 97.6 352.9 L 97.2 351.8 L 95.8 350.9 L 93.3 350.4 L 90.8 350.2 L 88.8 350.5 L 87.7 351.1 L 87.2 352.2 L 87.1 352.6 L 87.6 353.8 L 88.5 354.6 L 90.0 355.0 L 90.5 355.1 L 92.0 354.8 L 93.0 354.1 L 93.6 353.0 L 93.6 352.7 L 93.2 351.5 L 92.3 350.7 L 90.8 350.2 M 97.3 357.5 L 97.0 361.6 L 93.2 359.0 L 93.1 360.2 L 92.6 360.9 L 92.1 361.2 L 90.5 361.5 L 89.5 361.4 L 88.1 361.0 L 87.1 360.1 L 86.7 359.0 L 86.8 357.9 L 87.3 356.8 L 87.9 356.4 L 88.9 356.1"
         stroke="black"
         stroke-width="1"
         id="path39" />
      <path
         d="M 104.5 404.7 L 105.1 403.8 L 105.0 402.6 L 104.6 402.0 L 103.6 401.3 L 101.9 401.4 L 99.6 402.4 L 97.4 403.7 L 95.9 405.1 L 95.5 406.2 L 95.6 407.5 L 95.8 407.8 L 96.8 408.5 L 98.1 408.6 L 99.6 408.1 L 100.0 407.9 L 101.1 406.8 L 101.5 405.6 L 101.4 404.4 L 101.2 404.1 L 100.2 403.4 L 98.9 403.2 L 97.4 403.7 M 104.5 406.4 L 105.3 406.7 L 107.2 406.9 L 98.2 412.4"
         stroke="black"
         stroke-width="1"
         id="path40" />
      <path
         d="M 138.0 404.9 L 141.8 403.2 L 141.4 407.8 L 142.4 407.3 L 143.3 407.4 L 143.9 407.7 L 144.9 408.9 L 145.3 409.8 L 145.6 411.3 L 145.4 412.5 L 144.5 413.5 L 143.5 413.9 L 142.3 414.0 L 141.7 413.7 L 141.0 412.9 M 144.1 404.7 L 144.5 403.9 L 144.9 402.1 L 149.4 411.6"
         stroke="black"
         stroke-width="1"
         id="path41" />
      <path
         d="M 134.4 473.0 L 134.7 473.4 L 135.0 474.4 L 135.0 475.0 L 134.7 475.9 L 133.5 476.8 L 132.6 476.8 L 132.0 476.7 L 131.1 476.1 L 130.5 475.3 L 130.2 474.3 L 129.8 472.6 L 129.8 466.4 L 125.6 469.5 M 129.2 480.0 L 129.8 478.9 L 129.5 477.3 L 128.3 475.0 L 127.4 473.8 L 125.6 472.1 L 124.1 471.3 L 122.9 471.6 L 122.3 472.1 L 121.7 473.1 L 122.0 474.8 L 123.2 477.0 L 124.1 478.2 L 125.9 480.0 L 127.4 480.7 L 128.6 480.4 L 129.1 480.1"
         stroke="black"
         stroke-width="1"
         id="path42" />
      <path
         d="M 232.7 590.6 L 233.2 590.6 L 234.2 590.9 L 234.7 591.2 L 235.3 591.9 L 235.5 593.4 L 235.0 594.2 L 234.6 594.6 L 233.6 595.1 L 232.6 595.2 L 231.6 594.9 L 230.0 594.3 L 224.7 591.0 L 225.2 596.3 M 235.9 598.3 L 235.3 597.2 L 234.3 597.0 L 233.3 597.1 L 232.3 597.5 L 231.9 598.3 L 231.6 599.9 L 231.2 601.0 L 230.2 601.9 L 229.3 602.3 L 227.8 602.5 L 226.8 602.2 L 226.2 601.9 L 225.6 600.8 L 225.5 599.3 L 225.9 598.1 L 226.3 597.7 L 227.3 597.2 L 228.8 597.1 L 229.8 597.4 L 230.9 598.0 L 231.5 599.1 L 232.1 600.6 L 232.7 601.3 L 233.7 601.5 L 234.7 601.4 L 235.7 601.0 L 236.1 599.8 L 235.9 598.1"
         stroke="black"
         stroke-width="1"
         id="path43" />
      <path
         d="M 248.8 603.1 L 248.6 602.7 L 248.5 601.6 L 248.6 601.0 L 249.1 600.2 L 250.5 599.6 L 251.4 599.7 L 251.9 600.0 L 252.7 600.8 L 253.1 601.7 L 253.2 602.8 L 253.1 604.5 L 251.7 610.6 L 256.5 608.4 M 259.2 599.5 L 259.4 601.0 L 259.2 602.3 L 258.3 603.2 L 258.0 603.3 L 256.8 603.3 L 255.7 602.7 L 254.7 601.5 L 254.5 601.1 L 254.2 599.6 L 254.5 598.3 L 255.3 597.4 L 255.7 597.3 L 256.9 597.2 L 258.0 597.8 L 259.2 599.5 L 260.2 601.8 L 260.9 604.2 L 260.8 605.9 L 260.0 606.8 L 259.3 607.1 L 258.1 607.1 L 257.3 606.4"
         stroke="black"
         stroke-width="1"
         id="path44" />
      <path
         d="M 84.2 522.9 L 81.4 526.0 L 79.9 521.6 L 79.2 522.5 L 78.3 522.7 L 77.7 522.6 L 76.3 521.9 L 75.6 521.2 L 74.7 519.9 L 74.5 518.7 L 74.9 517.5 L 75.6 516.7 L 76.8 516.2 L 77.4 516.3 L 78.4 516.7 M 78.7 525.5 L 78.5 526.4 L 78.9 528.2 L 71.1 521.2"
         stroke="black"
         stroke-width="1"
         id="path45" />
      <path
         d="M 71.1 551.7 L 71.3 551.2 L 72.1 550.5 L 72.6 550.1 L 73.5 550.0 L 74.9 550.5 L 75.4 551.3 L 75.5 551.9 L 75.5 553.0 L 75.1 553.9 L 74.4 554.7 L 73.1 555.8 L 67.7 559.0 L 72.6 561.0 M 81.8 553.4 L 78.4 552.0 L 76.3 556.0 L 76.8 555.7 L 78.1 555.6 L 79.1 556.1 L 80.0 557.0 L 80.3 558.2 L 80.0 559.7 L 79.7 560.6 L 78.7 561.9 L 77.7 562.5 L 76.4 562.5 L 75.4 562.1 L 74.5 561.2 L 74.4 560.6 L 74.4 559.5"
         stroke="black"
         stroke-width="1"
         id="path46" />
      <path
         d="M 154.0 557.6 L 153.6 556.8 L 152.3 555.4 L 162.7 556.9 M 152.2 553.5 L 152.8 549.4 L 156.4 552.2 L 156.6 551.1 L 157.2 550.4 L 157.7 550.1 L 159.2 549.9 L 160.2 550.1 L 161.7 550.6 L 162.6 551.5 L 162.9 552.7 L 162.8 553.8 L 162.1 554.9 L 161.6 555.2 L 160.5 555.4"
         stroke="black"
         stroke-width="1"
         id="path47" />
      <path
         d="M 129.3 570.9 L 129.3 570.4 L 129.9 569.5 L 130.4 569.1 L 131.2 568.7 L 132.7 569.0 L 133.3 569.7 L 133.6 570.2 L 133.8 571.3 L 133.6 572.3 L 133.0 573.2 L 132.0 574.5 L 127.4 578.7 L 132.5 579.7 M 137.5 570.0 L 136.3 570.2 L 135.8 571.1 L 135.6 572.1 L 135.8 573.2 L 136.4 573.8 L 137.8 574.6 L 138.8 575.3 L 139.3 576.4 L 139.5 577.5 L 139.2 578.9 L 138.7 579.8 L 138.2 580.3 L 137.0 580.5 L 135.5 580.3 L 134.5 579.6 L 134.3 579.0 L 134.1 577.9 L 134.4 576.5 L 134.9 575.6 L 135.8 574.7 L 137.0 574.4 L 138.6 574.2 L 139.4 573.9 L 140.0 573.0 L 140.2 572.0 L 140.0 570.9 L 139.0 570.2 L 137.3 569.9"
         stroke="black"
         stroke-width="1"
         id="path48" />
      <path
         d="M 341.6 189.1 L 347.1 194.9 L 348.8 189.5 M 341.6 189.1 L 351.6 192.4 M 343.8 182.5 L 349.2 188.2 L 351.0 182.9 M 343.8 182.5 L 353.7 185.7"
         stroke="black"
         stroke-width="1"
         id="path49" />
      <path
         d="M 335.9 149.5 L 343.6 147.4 L 339.7 143.3 M 335.9 149.5 L 343.6 142.3 M 332.6 145.8 L 333.7 146.3 L 334.7 145.9 L 335.4 145.2 L 335.9 144.2 L 335.8 143.4 L 335.1 141.9 L 334.7 140.8 L 334.9 139.5 L 335.4 138.6 L 336.5 137.5 L 337.5 137.1 L 338.1 137.1 L 339.2 137.5 L 340.3 138.6 L 340.7 139.8 L 340.6 140.4 L 340.1 141.4 L 339.0 142.4 L 338.0 142.8 L 336.8 142.9 L 335.6 142.5 L 334.2 141.7 L 333.4 141.5 L 332.4 141.9 L 331.6 142.6 L 331.2 143.6 L 331.6 144.7 L 332.7 146.0"
         stroke="black"
         stroke-width="1"
         id="path50" />
      <path
         d="M 287.5 121.6 L 289.1 125.4 L 284.5 124.8 L 284.9 125.8 L 284.7 126.7 L 284.4 127.3 L 283.1 128.2 L 282.2 128.5 L 280.7 128.7 L 279.5 128.4 L 278.6 127.5 L 278.2 126.5 L 278.2 125.3 L 278.6 124.7 L 279.4 124.0 M 290.3 128.6 L 289.4 127.7 L 288.4 127.8 L 287.4 128.1 L 286.6 128.9 L 286.5 129.7 L 286.5 131.3 L 286.5 132.5 L 285.8 133.6 L 285.1 134.3 L 283.7 134.9 L 282.6 134.9 L 282.0 134.7 L 281.1 133.9 L 280.6 132.5 L 280.6 131.2 L 280.9 130.7 L 281.7 130.0 L 283.1 129.4 L 284.2 129.4 L 285.4 129.8 L 286.3 130.6 L 287.3 131.8 L 288.0 132.3 L 289.1 132.3 L 290.0 132.0 L 290.8 131.2 L 290.9 130.0 L 290.2 128.4"
         stroke="black"
         stroke-width="1"
         id="path51" />
      <path
         d="M 282.3 56.1 L 281.5 60.2 L 278.0 57.2 L 277.8 58.3 L 277.2 58.9 L 276.6 59.2 L 275.1 59.2 L 274.1 59.0 L 272.7 58.3 L 271.9 57.4 L 271.6 56.2 L 271.8 55.1 L 272.5 54.1 L 273.1 53.8 L 274.2 53.7 M 280.1 66.7 L 270.6 60.8 M 281.2 61.5 L 280.1 66.7"
         stroke="black"
         stroke-width="1"
         id="path52" />
      <path
         d="M 309.0 52.8 L 314.9 47.5 L 309.6 45.6 M 309.0 52.8 L 312.5 42.9 M 301.3 50.0 L 308.4 41.4 M 306.3 51.8 L 301.3 50.0"
         stroke="black"
         stroke-width="1"
         id="path53" />
      <path
         d="M 321.0 81.2 L 326.2 87.2 L 328.2 81.9 M 321.0 81.2 L 330.8 85.0 M 327.2 75.1 L 328.5 76.0 L 329.2 77.0 L 329.2 78.2 L 329.1 78.6 L 328.2 79.5 L 327.0 79.8 L 325.5 79.6 L 325.0 79.4 L 323.7 78.5 L 323.1 77.5 L 323.0 76.2 L 323.2 75.9 L 324.0 75.0 L 325.2 74.7 L 327.2 75.1 L 329.6 76.0 L 331.8 77.2 L 332.9 78.5 L 332.9 79.7 L 332.7 80.4 L 331.8 81.3 L 330.7 81.2"
         stroke="black"
         stroke-width="1"
         id="path54" />
    </g>
    <path
       d="m 272.08415,330.72312 1.1,-0.8 1.7,-2.2 v 15.7"
       id="titre_1"
       stroke="#4b0082" />
  </g>
  <g
     id="page_002">
    <path
       d="m 786,159.6 -13.3,27.2 -28.6,21.2 -46.4,-2 12.6,33.4 45.4,6.3 52.7,5.5 38.3,-29.8 40.6,57.3 -27.9,-64.4 139.1,16.8 3.5,43.1 18.5,66.4 -48.4,19.2 -40.1,7.5 -37.8,57.9 -3.7,51.4 -78.1,-21.8 -29.8,22 -7.7,63.4 14.1,-62.3 33.2,-16.4 69.4,42 2.2,69.7 -47.2,-51.3 -48.8,92.3 -55.1,-35.1 46.7,45.7 92,-49.4 5.1,69.4 -73.4,13.3 -76,49.9 -53.9,-75.1 -47.3,-21.2 -39.8,-48.3 35.8,-57.6 40,26.1 37.2,-68.6 -52.9,57.4 -30.5,-36.8 -47.4,-60.9 29.4,-7.2 1.8,-19.4 50.4,-39.5 56.9,47.2 45.1,-19 53,-5.9 37.6,-34.4 -42,28.8 -53.1,-5.2 23.8,-52.4 -27.4,50.6 -48.9,-0.5 -35.1,-65 -58.2,26.6 -30.9,-4.3 22.6,-55.4 -40.2,-35.1 2.7,-48 138.4,-22.4 18.7,-44.8 46.5,-25.4 25.4,-38.1 30.9,-17.9 32.3,33.5 35.6,1.6 21.4,-21.5 32.3,-20.4 74.2,52.8 -20.2,18.3 26.6,5.9 -50.2,50.9 -44.8,-5.4 18.3,41.3 -71.1,7.7 -63.75,-64.8 z m -165.7,-46.4 2,40.1 -35.4,-15 -11.6,-36.7 22.7,-26 27.9,-4.4 22,-13.3 53.3,1 62,-5.5 -8.1,27 -55,14.9 -33.1,46.4 -33.3,9.4 z m 341.4,351.5 17,-9.6 29.8,-5.5 -7.4,22 1,40.9 1.7,35.3 -2.1,35.3 -40.2,-7.1 -0.8,-32.7 -25.9,-19.9 12.2,-33.7 -34.6,-9.2 18.2,-14.5 z"
       id="coupes_002"
       stroke="#ff0000"
       stroke-width="1.27"
       sodipodi:nodetypes="ccccccccccccccccccccccccccccccccccccccccccccccccccccccccccccccccccccccccccccccccccccccccccccccccccccccccc" />
    <path
       d="m 789,477.9 57.6,44 -71.7,18.3 22.9,74 m 24.4,-152.7 24.4,60.4 m 43.9,-45.3 -75.6,-97.4 -2.5,75.6 -50.5,-69.7 20.7,91.7 -73.5,-13.5 7.7,-59.2 -109.1,11.7 18,68.1 83.4,-20.6 65.8,76.9 -32.2,38.9 -33.6,-115.8 52.8,-78.2 m 53,-5.9 79.3,46 -41.7,-80.4 -71.3,-28.8 29.3,57.6 m -127.3,259.3 -11.3,-101 m 180.6,-187.1 34.8,-66.1 84.8,81.1 m -119.6,-15 79.5,22.5 -44.7,-88.6 -78.9,-27.5 z m -147.6,21.3 50.8,-120.4 m -152.4,22.3 107,-28.6 -40.5,61.7 85.9,-55.4 25.5,70.3 27.2,-64.8 m -196.8,76.5 -8.3,-59.7 94.4,-62 -134.6,26.9 141.1,-70.4 39.9,45.5 m -39.9,-45.5 68.5,24.3 -49.8,-69.1 63.1,41.9 m -16.6,-67.3 47,44 m -21.6,-82.1 47.3,75.1 -16.4,-93 m 152,121.1 -62.7,-107.5 86.3,50.7 -23.6,56.8 -84.1,-86 39.3,80.6 -52.8,49 -38,-71.7 L 932.9,152 858,69.8 m 89.3,-40.3 54,71.1 M 813.1,658.1 789.4,624.8 737.1,708 m 149.4,-63.2 -97.1,-20 -106.2,8.1 59.5,-53.8 -70.8,-47.2 -36,79.8 -4,-105.9 m 227.5,-291.5 142.6,59.9 -114.7,4.5 133.2,61.9 m -412.8,75.2 52.2,-58.9 m 95.2,-276.5 -53.9,-21.5 -1.1,36.4 -79.8,17.9 5.6,-42 m 7.8,79.9 66.4,-55.8 -52.2,-37.4 -27.6,55.3 -33.4,25.1 11.1,-62.7 m 404.1,436.9 -55.1,-22.8 14.7,-25 40.4,47.8 -41.4,30.8 L 947,489.7 930.6,466 m 48.1,-10.9 22.4,16.5 m -40.4,71.7 43.1,4.5 -42.3,28.2"
       id="plisM_002"
       stroke="#a52a2a"
       stroke-dasharray="4"
       sodipodi:nodetypes="ccccccccccccccccccccccccccccccccccccccccccccccccccccccccccccccccccccccccccccccccccccccccccccccccccccccccccccc" />
    <path
       d="M 815.8 497.9 L 819.8 501.9 M 819.8 497.9 L 815.8 501.9 M 808.8 529.0 L 812.8 533.0 M 812.8 529.0 L 808.8 533.0 M 832.4 489.7 L 836.4 493.7 M 836.4 489.7 L 832.4 493.7 M 784.4 575.2 L 788.4 579.2 M 788.4 575.2 L 784.4 579.2 M 756.8 557.6 L 760.8 561.6 M 760.8 557.6 L 756.8 561.6 M 723.9 519.2 L 727.9 523.2 M 727.9 519.2 L 723.9 523.2 M 740.0 499.7 L 744.0 503.7 M 744.0 499.7 L 740.0 503.7 M 743.8 468.0 L 747.8 472.0 M 747.8 468.0 L 743.8 472.0 M 770.2 428.9 L 774.2 432.9 M 774.2 428.9 L 770.2 432.9 M 733.5 422.2 L 737.5 426.2 M 737.5 422.2 L 733.5 426.2 M 710.9 431.7 L 714.9 435.7 M 714.9 431.7 L 710.9 435.7 M 785.1 417.9 L 789.1 421.9 M 789.1 417.9 L 785.1 421.9 M 811.6 415.0 L 815.6 419.0 M 815.6 415.0 L 811.6 419.0 M 850.7 425.9 L 854.7 429.9 M 854.7 425.9 L 850.7 429.9 M 852.6 400.2 L 856.6 404.2 M 856.6 400.2 L 852.6 404.2 M 871.4 383.0 L 875.4 387.0 M 875.4 383.0 L 871.4 387.0 M 890.3 354.0 L 894.3 358.0 M 894.3 354.0 L 890.3 358.0 M 705.3 553.5 L 709.3 557.5 M 709.3 553.5 L 705.3 557.5 M 710.9 604.0 L 714.9 608.0 M 714.9 604.0 L 710.9 608.0 M 675.5 580.4 L 679.5 584.4 M 679.5 580.4 L 675.5 584.4 M 651.9 569.8 L 655.9 573.8 M 655.9 569.8 L 651.9 573.8 M 734.3 626.9 L 738.3 630.9 M 738.3 626.9 L 734.3 630.9 M 631.9 556.7 L 635.9 560.7 M 635.9 556.7 L 631.9 560.7 M 665.4 471.6 L 669.4 475.6 M 669.4 471.6 L 665.4 475.6 M 867.9 309.7 L 871.9 313.7 M 871.9 309.7 L 867.9 313.7 M 907.7 321.0 L 911.7 325.0 M 911.7 321.0 L 907.7 325.0 M 845.9 263.0 L 849.9 267.0 M 849.9 263.0 L 845.9 267.0 M 828.5 296.0 L 832.5 300.0 M 832.5 296.0 L 828.5 300.0 M 814.9 328.4 L 818.9 332.4 M 818.9 328.4 L 814.9 332.4 M 792.8 281.6 L 796.8 285.6 M 796.8 281.6 L 792.8 285.6 M 793.8 342.8 L 797.8 346.8 M 797.8 342.8 L 793.8 346.8 M 766.5 278.8 L 770.5 282.8 M 770.5 278.8 L 766.5 282.8 M 728.3 303.9 L 732.3 307.9 M 732.3 303.9 L 728.3 307.9 M 710.7 271.4 L 714.7 275.4 M 714.7 271.4 L 710.7 275.4 M 688.0 268.2 L 692.0 272.2 M 692.0 268.2 L 688.0 272.2 M 654.8 251.7 L 658.8 255.7 M 658.8 251.7 L 654.8 255.7 M 648.5 235.0 L 652.5 239.0 M 652.5 235.0 L 648.5 239.0 M 605.4 295.8 L 609.4 299.8 M 609.4 295.8 L 605.4 299.8 M 628.4 217.4 L 632.4 221.4 M 632.4 217.4 L 628.4 221.4 M 631.6 195.7 L 635.6 199.7 M 635.6 195.7 L 631.6 199.7 M 722.1 183.2 L 726.1 187.2 M 726.1 183.2 L 722.1 187.2 M 736.4 172.7 L 740.4 176.7 M 740.4 172.7 L 736.4 176.7 M 745.8 150.3 L 749.8 154.3 M 749.8 150.3 L 745.8 154.3 M 752.4 136.7 L 756.4 140.7 M 756.4 136.7 L 752.4 140.7 M 790.9 112.3 L 794.9 116.3 M 794.9 112.3 L 790.9 116.3 M 816.5 89.7 L 820.5 93.7 M 820.5 89.7 L 816.5 93.7 M 831.9 80.8 L 835.9 84.8 M 835.9 80.8 L 831.9 84.8 M 893.5 108.9 L 897.5 112.9 M 897.5 108.9 L 893.5 112.9 M 885.5 138.7 L 889.5 142.7 M 889.5 138.7 L 885.5 142.7 M 911.2 109.7 L 915.2 113.7 M 915.2 109.7 L 911.2 113.7 M 904.5 174.5 L 908.5 178.5 M 908.5 174.5 L 904.5 178.5 M 859.1 163.2 L 863.1 167.2 M 863.1 163.2 L 859.1 167.2 M 933.7 112.4 L 937.7 116.4 M 937.7 112.4 L 933.7 116.4 M 944.4 101.7 L 948.4 105.7 M 948.4 101.7 L 944.4 105.7 M 987.5 127.0 L 991.5 131.0 M 991.5 127.0 L 987.5 131.0 M 956.1 73.3 L 960.1 77.3 M 960.1 73.3 L 956.1 77.3 M 972.3 63.1 L 976.3 67.1 M 976.3 63.1 L 972.3 67.1 M 761.2 664.4 L 765.2 668.4 M 765.2 664.4 L 761.2 668.4 M 799.2 639.5 L 803.2 643.5 M 803.2 639.5 L 799.2 643.5 M 836.0 632.8 L 840.0 636.8 M 840.0 632.8 L 836.0 636.8 M 927.7 317.2 L 931.7 321.2 M 931.7 317.2 L 927.7 321.2 M 951.9 307.6 L 955.9 311.6 M 955.9 307.6 L 951.9 311.6 M 942.7 274.4 L 946.7 278.4 M 946.7 274.4 L 942.7 278.4 M 928.7 242.2 L 932.7 246.2 M 932.7 242.2 L 928.7 246.2 M 614.7 447.9 L 618.7 451.9 M 618.7 447.9 L 614.7 451.9 M 660.2 407.9 L 664.2 411.9 M 664.2 407.9 L 660.2 411.9 M 631.8 384.3 L 635.8 388.3 M 635.8 384.3 L 631.8 388.3 M 726.1 67.6 L 730.1 71.6 M 730.1 67.6 L 726.1 71.6 M 698.6 75.1 L 702.6 79.1 M 702.6 75.1 L 698.6 79.1 M 672.0 74.6 L 676.0 78.6 M 676.0 74.6 L 672.0 78.6 M 658.2 102.3 L 662.2 106.3 M 662.2 102.3 L 658.2 106.3 M 632.1 83.6 L 636.1 87.6 M 636.1 83.6 L 632.1 87.6 M 621.1 90.2 L 625.1 94.2 M 625.1 90.2 L 621.1 94.2 M 601.6 123.8 L 605.6 127.8 M 605.6 123.8 L 601.6 127.8 M 590.5 105.0 L 594.5 109.0 M 594.5 105.0 L 590.5 109.0 M 664.9 121.2 L 668.9 125.2 M 668.9 121.2 L 664.9 125.2 M 979.9 486.6 L 983.9 490.6 M 983.9 486.6 L 979.9 490.6 M 952.3 475.2 L 956.3 479.2 M 956.3 475.2 L 952.3 479.2 M 972.5 499.1 L 976.5 503.1 M 976.5 499.1 L 972.5 503.1 M 979.4 525.9 L 983.4 529.9 M 983.4 525.9 L 979.4 529.9 M 951.8 514.5 L 955.8 518.5 M 955.8 514.5 L 951.8 518.5 M 936.8 475.9 L 940.8 479.9 M 940.8 475.9 L 936.8 479.9 M 987.9 461.4 L 991.9 465.4 M 991.9 461.4 L 987.9 465.4 M 980.3 543.6 L 984.3 547.6 M 984.3 543.6 L 980.3 547.6 M 980.6 559.9 L 984.6 563.9 M 984.6 559.9 L 980.6 563.9"
       display="none"
       id="marqueM_002"
       stroke="brown" />
    <path
       d="m 891.6,503.5 -45,18.4 m -220.9,-38 91.1,-79.8 M 781.2,316 704.9,366.1 M 669.8,301.1 603.3,268 M 704.2,162.5 697.7,206 M 769.4,92.3 786,159.6 m 8.8,-105.4 21.6,82.1 25.7,-7 L 858,69.8 M 620.3,113.2 598,75.6 m 363.7,389.1 39.4,6.9"
       id="plisV_002"
       stroke="#008000"
       stroke-dasharray="4, 1, 1, 1"
       stroke-width="1.27"
       sodipodi:nodetypes="cccccccccccccccccccc" />
    <path
       d="M 867.1 510.7 L 871.1 514.7 M 871.1 510.7 L 867.1 514.7 M 669.2 442.0 L 673.2 446.0 M 673.2 442.0 L 669.2 446.0 M 741.1 339.1 L 745.1 343.1 M 745.1 339.1 L 741.1 343.1 M 634.5 282.5 L 638.5 286.5 M 638.5 282.5 L 634.5 286.5 M 698.9 182.3 L 702.9 186.3 M 702.9 182.3 L 698.9 186.3 M 775.7 123.9 L 779.7 127.9 M 779.7 123.9 L 775.7 127.9 M 803.6 93.2 L 807.6 97.2 M 807.6 93.2 L 803.6 97.2 M 827.2 130.8 L 831.2 134.8 M 831.2 130.8 L 827.2 134.8 M 848.1 97.5 L 852.1 101.5 M 852.1 97.5 L 848.1 101.5 M 607.1 92.4 L 611.1 96.4 M 611.1 92.4 L 607.1 96.4 M 979.4 466.1 L 983.4 470.1 M 983.4 466.1 L 979.4 470.1"
       id="marqueV_002"
       stroke="green" />
    <g
       id="nums_002">
      <path
         d="M 795.7 510.3 L 796.6 506.7 L 792.3 505.3 L 792.7 505.8 L 792.9 507.0 L 792.7 508.1 L 791.9 509.1 L 790.8 509.6 L 789.2 509.6 L 788.3 509.4 L 786.9 508.7 L 786.1 507.8 L 785.8 506.6 L 786.1 505.5 L 786.8 504.5 L 787.4 504.2 L 788.4 504.1 M 792.9 516.3 L 793.9 516.1 L 794.6 515.2 L 794.8 514.4 L 794.6 513.2 L 793.3 512.2 L 790.9 511.2 L 788.5 510.7 L 786.4 510.6 L 785.3 511.1 L 784.6 512.1 L 784.5 512.5 L 784.7 513.7 L 785.5 514.6 L 786.9 515.3 L 787.4 515.4 L 789.0 515.4 L 790.1 514.9 L 790.8 513.9 L 790.9 513.5 L 790.7 512.3 L 789.9 511.4 L 788.5 510.7"
         stroke="black"
         stroke-width="1"
         id="path55" />
      <path
         d="M 812.5 479.9 L 813.3 480.7 L 814.5 480.6 L 815.2 480.3 L 816.0 479.3 L 816.0 477.7 L 815.2 475.3 L 814.1 473.0 L 812.9 471.4 L 811.8 470.8 L 810.6 470.9 L 810.2 471.0 L 809.4 472.0 L 809.2 473.2 L 809.5 474.7 L 809.8 475.2 L 810.8 476.3 L 811.9 476.9 L 813.1 476.9 L 813.4 476.7 L 814.2 475.8 L 814.5 474.5 L 814.1 473.0 M 810.1 480.0 L 810.3 480.5 L 810.4 481.5 L 810.3 482.1 L 809.9 482.9 L 808.5 483.6 L 807.6 483.5 L 807.1 483.2 L 806.3 482.4 L 805.8 481.5 L 805.7 480.5 L 805.8 478.8 L 806.9 472.7 L 802.2 475.0"
         stroke="black"
         stroke-width="1"
         id="path56" />
      <path
         d="M 851.9 493.8 L 851.7 494.8 L 852.4 495.8 L 853.0 496.2 L 854.2 496.4 L 855.7 495.5 L 857.3 493.6 L 858.6 491.4 L 859.3 489.5 L 859.2 488.3 L 858.5 487.3 L 858.1 487.1 L 856.9 486.9 L 855.8 487.4 L 854.7 488.5 L 854.4 488.9 L 853.9 490.4 L 854.1 491.6 L 854.8 492.6 L 855.1 492.8 L 856.3 493.0 L 857.5 492.5 L 858.6 491.4 M 847.8 493.1 L 849.1 493.3 L 850.5 492.4 L 852.1 490.4 L 852.9 489.1 L 853.8 486.8 L 854.0 485.1 L 853.3 484.1 L 852.6 483.7 L 851.4 483.6 L 850.0 484.5 L 848.4 486.4 L 847.6 487.7 L 846.6 490.0 L 846.5 491.7 L 847.2 492.7 L 847.7 493.0"
         stroke="black"
         stroke-width="1"
         id="path57" />
      <path
         d="m 875.06879,537.02198 0.4,-0.4 1,-0.4 h 0.6 l 0.9,0.2 1,1.1 0.1,0.9 -0.1,0.6 -0.5,1 -0.7,0.6 -1,0.4 -1.6,0.5 -6.2,0.6 3.5,3.9 m 12,-2.5 -10.3,4.3 m 6.7,-8.2 3.6,3.9"
         stroke="#000000"
         stroke-width="1"
         id="path58" />
      <path
         d="m 882.31099,537.49008 h -0.5 l -1,-0.4 -0.5,-0.3 -0.5,-0.8 -0.1,-1.5 0.5,-0.7 0.5,-0.4 1,-0.4 1,-0.1 1,0.4 1.5,0.7 5.1,3.6 -0.2,-5.3 m -10.6,-5.3 0.1,3.8 4.5,0.2 -0.5,-0.4 -0.6,-1.1 v -1.1 l 0.5,-1.1 1,-0.8 1.4,-0.4 1,-0.1 1.6,0.4 1,0.7 0.5,1.1 v 1.1 l -0.4,1.2 -0.5,0.3 -1,0.5"
         stroke="#000000"
         stroke-width="1"
         id="path59" />
      <path
         d="M 809.5 568.0 L 809.1 567.7 L 808.4 566.9 L 808.1 566.4 L 808.0 565.5 L 808.7 564.1 L 809.5 563.7 L 810.1 563.6 L 811.2 563.8 L 812.1 564.2 L 812.8 565.0 L 813.8 566.4 L 816.4 572.0 L 818.9 567.4 M 813.6 558.2 L 812.5 558.0 L 811.6 558.8 L 811.2 559.5 L 811.1 560.7 L 812.1 562.0 L 814.1 563.5 L 816.4 564.7 L 818.3 565.3 L 819.5 565.1 L 820.5 564.4 L 820.7 564.0 L 820.8 562.8 L 820.2 561.7 L 819.1 560.6 L 818.6 560.4 L 817.1 560.0 L 815.9 560.2 L 814.9 561.0 L 814.8 561.3 L 814.7 562.5 L 815.2 563.7 L 816.4 564.7"
         stroke="black"
         stroke-width="1"
         id="path60" />
      <path
         d="M 776.2 584.1 L 773.0 582.1 L 770.3 585.7 L 770.9 585.5 L 772.1 585.7 L 773.0 586.3 L 773.7 587.3 L 773.8 588.6 L 773.3 590.0 L 772.8 590.9 L 771.7 591.9 L 770.5 592.4 L 769.3 592.2 L 768.3 591.6 L 767.7 590.6 L 767.6 589.9 L 767.8 588.9 M 782.1 587.9 L 773.3 594.7 M 777.7 585.1 L 782.1 587.9"
         stroke="black"
         stroke-width="1"
         id="path61" />
      <path
         d="M 764.9 508.5 L 764.4 512.3 L 768.9 513.2 L 768.4 512.7 L 768.0 511.6 L 768.2 510.4 L 768.8 509.4 L 769.9 508.8 L 771.4 508.6 L 772.4 508.7 L 773.9 509.3 L 774.8 510.1 L 775.1 511.3 L 775.0 512.4 L 774.4 513.5 L 773.8 513.8 L 772.8 514.0 M 767.2 502.3 L 766.1 502.6 L 765.5 503.6 L 765.4 504.4 L 765.8 505.6 L 767.2 506.5 L 769.6 507.2 L 772.1 507.5 L 774.1 507.3 L 775.2 506.7 L 775.8 505.6 L 775.9 505.3 L 775.5 504.1 L 774.6 503.2 L 773.2 502.7 L 772.7 502.6 L 771.1 502.8 L 770.0 503.4 L 769.4 504.5 L 769.4 504.9 L 769.7 506.0 L 770.6 506.9 L 772.1 507.5"
         stroke="black"
         stroke-width="1"
         id="path62" />
      <path
         d="m 739.20568,408.63298 3.4,-1.5 -1.4,-4.3 -0.1,0.6 -0.9,0.9 -1,0.4 h -1.2 l -1.1,-0.6 -1,-1.2 -0.3,-1 -0.3,-1.5 0.3,-1.2 0.9,-0.9 1,-0.4 h 1.2 l 0.6,0.3 0.7,0.8 m -6.2,11.9 0.7,-7.9 -5.2,2.2 m 4.5,5.7 -4.1,-9.7"
         stroke="#000000"
         stroke-width="1"
         id="path63" />
      <path
         d="M 788.9 456.9 L 788.0 456.3 L 786.8 456.6 L 786.2 457.0 L 785.5 458.1 L 785.8 459.8 L 787.0 462.0 L 788.5 464.0 L 790.0 465.4 L 791.2 465.8 L 792.4 465.5 L 792.7 465.3 L 793.3 464.2 L 793.3 462.9 L 792.7 461.5 L 792.4 461.1 L 791.2 460.1 L 790.0 459.8 L 788.8 460.0 L 788.5 460.3 L 787.9 461.3 L 787.9 462.6 L 788.5 464.0 M 791.2 456.4 L 790.9 456.0 L 790.6 455.0 L 790.6 454.4 L 790.9 453.5 L 792.1 452.6 L 793.0 452.6 L 793.6 452.8 L 794.5 453.3 L 795.1 454.1 L 795.4 455.2 L 795.7 456.8 L 795.7 463.1 L 799.9 459.9"
         stroke="black"
         stroke-width="1"
         id="path64" />
      <path
         d="M 791.7 395.6 L 795.4 395.2 L 795.3 390.7 L 794.9 391.2 L 793.9 391.8 L 792.8 392.0 L 791.6 391.6 L 790.7 390.7 L 790.2 389.2 L 790.1 388.2 L 790.3 386.7 L 790.9 385.6 L 792.0 385.0 L 793.1 384.9 L 794.3 385.3 L 794.7 385.7 L 795.2 386.7 M 787.9 396.0 L 788.9 395.4 L 789.2 394.4 L 789.1 393.4 L 788.6 392.4 L 787.8 392.0 L 786.3 391.7 L 785.1 391.3 L 784.2 390.4 L 783.7 389.4 L 783.6 388.0 L 783.8 386.9 L 784.2 386.4 L 785.2 385.8 L 786.7 385.6 L 787.9 386.0 L 788.3 386.4 L 788.8 387.4 L 789.0 388.9 L 788.7 389.9 L 788.1 391.0 L 787.0 391.6 L 785.6 392.3 L 784.9 392.8 L 784.6 393.9 L 784.7 394.9 L 785.2 395.8 L 786.4 396.2 L 788.1 396.0"
         stroke="black"
         stroke-width="1"
         id="path65" />
      <path
         d="M 853.2 453.4 L 853.1 452.4 L 852.2 451.6 L 851.5 451.4 L 850.2 451.6 L 849.1 452.8 L 848.1 455.1 L 847.4 457.5 L 847.2 459.6 L 847.7 460.7 L 848.6 461.5 L 849.0 461.6 L 850.2 461.4 L 851.2 460.7 L 852.0 459.3 L 852.1 458.8 L 852.1 457.3 L 851.7 456.1 L 850.7 455.4 L 850.4 455.3 L 849.2 455.4 L 848.2 456.2 L 847.4 457.5 M 857.3 453.0 L 856.1 453.2 L 854.9 454.5 L 853.9 456.8 L 853.5 458.2 L 853.2 460.7 L 853.5 462.4 L 854.5 463.1 L 855.2 463.3 L 856.4 463.2 L 857.5 461.9 L 858.6 459.6 L 859.0 458.2 L 859.3 455.7 L 859.0 454.0 L 858.0 453.2 L 857.5 453.1"
         stroke="black"
         stroke-width="1"
         id="path66" />
      <path
         d="M 880.0 451.4 L 879.0 451.7 L 878.4 452.7 L 878.4 453.5 L 878.8 454.6 L 880.2 455.5 L 882.7 456.1 L 885.2 456.2 L 887.2 456.0 L 888.3 455.3 L 888.8 454.3 L 888.9 453.9 L 888.4 452.7 L 887.5 451.9 L 886.0 451.4 L 885.5 451.4 L 884.0 451.6 L 883.0 452.3 L 882.4 453.4 L 882.4 453.8 L 882.8 454.9 L 883.7 455.8 L 885.2 456.2 M 881.0 450.0 L 880.5 449.2 L 879.1 448.0 L 889.6 448.7"
         stroke="black"
         stroke-width="1"
         id="path67" />
      <path
         d="M 844.3 370.9 L 847.1 368.4 L 844.3 364.8 L 844.4 365.5 L 843.9 366.6 L 843.0 367.3 L 841.9 367.7 L 840.6 367.5 L 839.4 366.7 L 838.7 365.9 L 837.9 364.6 L 837.8 363.3 L 838.3 362.2 L 839.1 361.4 L 840.3 361.0 L 840.9 361.1 L 841.9 361.6 M 836.9 373.0 L 836.2 371.6 L 836.0 370.4 L 836.5 369.2 L 836.8 369.0 L 838.0 368.6 L 839.2 368.8 L 840.5 369.7 L 840.8 370.0 L 841.6 371.4 L 841.7 372.6 L 841.2 373.8 L 840.9 374.0 L 839.8 374.4 L 838.5 374.2 L 836.9 373.0 L 835.2 371.1 L 833.8 369.0 L 833.3 367.4 L 833.8 366.3 L 834.4 365.8 L 835.6 365.4 L 836.5 365.9"
         stroke="black"
         stroke-width="1"
         id="path68" />
      <path
         d="M 902.0 390.8 L 901.0 390.6 L 900.0 391.3 L 899.6 391.9 L 899.4 393.1 L 900.2 394.6 L 902.1 396.2 L 904.2 397.6 L 906.1 398.4 L 907.3 398.3 L 908.3 397.6 L 908.5 397.3 L 908.7 396.1 L 908.3 394.9 L 907.3 393.8 L 906.9 393.5 L 905.4 393.0 L 904.1 393.1 L 903.1 393.8 L 902.9 394.1 L 902.7 395.3 L 903.1 396.5 L 904.2 397.6 M 902.0 388.1 L 904.3 384.7 L 906.4 388.7 L 907.0 387.8 L 907.8 387.4 L 908.5 387.4 L 909.9 387.9 L 910.8 388.5 L 911.8 389.6 L 912.2 390.8 L 912.1 392.0 L 911.4 392.9 L 910.4 393.6 L 909.8 393.6 L 908.7 393.4"
         stroke="black"
         stroke-width="1"
         id="path69" />
      <path
         d="M 703.4 502.6 L 705.2 499.3 L 701.4 496.8 L 701.7 497.4 L 701.6 498.6 L 701.0 499.6 L 700.1 500.4 L 698.8 500.5 L 697.3 500.2 L 696.5 499.7 L 695.3 498.6 L 694.8 497.5 L 694.9 496.3 L 695.4 495.3 L 696.4 494.5 L 697.0 494.4 L 698.1 494.6 M 701.4 506.3 L 701.5 505.1 L 700.5 503.7 L 698.5 502.2 L 697.2 501.4 L 694.8 500.6 L 693.2 500.5 L 692.2 501.3 L 691.8 501.9 L 691.7 503.2 L 692.7 504.5 L 694.7 506.1 L 696.0 506.8 L 698.4 507.6 L 700.1 507.7 L 701.1 506.9 L 701.3 506.4"
         stroke="black"
         stroke-width="1"
         id="path70" />
      <path
         d="M 662.6 608.5 L 656.3 613.3 L 661.4 615.6 M 662.6 608.5 L 658.3 618.0 M 669.4 611.6 L 666.0 610.1 L 663.8 614.1 L 664.3 613.8 L 665.6 613.8 L 666.6 614.2 L 667.4 615.1 L 667.7 616.4 L 667.4 617.9 L 667.0 618.8 L 666.0 620.0 L 665.0 620.6 L 663.7 620.6 L 662.7 620.1 L 661.9 619.2 L 661.7 618.6 L 661.8 617.6"
         stroke="black"
         stroke-width="1"
         id="path71" />
      <path
         d="M 757.7 613.0 L 760.4 615.7 L 763.8 612.7 L 763.2 612.8 L 762.0 612.4 L 761.2 611.6 L 760.8 610.4 L 760.9 609.2 L 761.7 607.9 L 762.4 607.2 L 763.7 606.3 L 765.0 606.2 L 766.1 606.6 L 766.9 607.4 L 767.4 608.5 L 767.3 609.1 L 766.9 610.1 M 752.7 608.1 L 762.7 603.3 M 756.5 611.8 L 752.7 608.1"
         stroke="black"
         stroke-width="1"
         id="path72" />
      <path
         d="M 645.8 531.3 L 649.0 533.4 L 651.8 529.8 L 651.2 530.0 L 649.9 529.8 L 649.0 529.2 L 648.3 528.2 L 648.3 526.9 L 648.8 525.5 L 649.3 524.6 L 650.4 523.6 L 651.6 523.1 L 652.8 523.3 L 653.8 524.0 L 654.4 525.0 L 654.5 525.6 L 654.3 526.7 M 645.6 528.3 L 644.7 528.3 L 642.9 529.0 L 648.7 520.2"
         stroke="black"
         stroke-width="1"
         id="path73" />
      <path
         d="M 624.9 576.5 L 617.1 578.0 L 620.6 582.4 M 624.9 576.5 L 616.8 583.2 M 627.9 580.4 L 626.8 579.8 L 625.8 580.2 L 625.0 580.8 L 624.5 581.7 L 624.6 582.6 L 625.2 584.1 L 625.5 585.3 L 625.2 586.5 L 624.7 587.4 L 623.5 588.4 L 622.5 588.7 L 621.9 588.7 L 620.8 588.2 L 619.8 587.0 L 619.5 585.9 L 619.6 585.2 L 620.2 584.3 L 621.3 583.4 L 622.3 583.0 L 623.6 583.0 L 624.7 583.5 L 626.0 584.4 L 626.9 584.6 L 627.9 584.3 L 628.7 583.6 L 629.2 582.7 L 628.9 581.5 L 627.8 580.2"
         stroke="black"
         stroke-width="1"
         id="path74" />
      <path
         d="M 627.3 539.4 L 623.3 532.6 L 620.4 537.3 M 627.3 539.4 L 618.4 533.9 M 620.0 544.3 L 619.0 543.2 L 618.5 542.0 L 618.7 540.8 L 618.9 540.5 L 619.9 539.8 L 621.1 539.7 L 622.6 540.1 L 623.0 540.4 L 624.1 541.5 L 624.6 542.7 L 624.4 543.9 L 624.2 544.2 L 623.2 544.9 L 621.9 545.0 L 620.0 544.3 L 617.9 543.0 L 616.0 541.3 L 615.1 539.9 L 615.3 538.7 L 615.7 538.0 L 616.7 537.3 L 617.8 537.5"
         stroke="black"
         stroke-width="1"
         id="path75" />
      <path
         d="M 671.3 484.0 L 668.8 486.7 L 671.8 490.1 L 671.7 489.4 L 672.1 488.3 L 672.9 487.5 L 674.0 487.0 L 675.2 487.1 L 676.6 487.8 L 677.3 488.5 L 678.2 489.8 L 678.4 491.0 L 678.0 492.2 L 677.3 493.0 L 676.1 493.5 L 675.5 493.5 L 674.5 493.0 M 674.1 480.9 L 673.8 482.1 L 674.3 483.6 L 675.9 485.6 L 677.0 486.6 L 679.1 488.0 L 680.7 488.5 L 681.9 488.0 L 682.4 487.5 L 682.8 486.3 L 682.2 484.7 L 680.6 482.8 L 679.5 481.7 L 677.4 480.3 L 675.8 479.9 L 674.7 480.3 L 674.3 480.8"
         stroke="black"
         stroke-width="1"
         id="path76" />
      <path
         d="M 650.4 492.2 L 648.0 489.3 L 644.3 491.9 L 644.9 491.9 L 646.0 492.4 L 646.7 493.3 L 647.1 494.5 L 646.8 495.7 L 645.9 496.9 L 645.1 497.6 L 643.7 498.2 L 642.5 498.3 L 641.4 497.7 L 640.6 496.9 L 640.3 495.7 L 640.4 495.1 L 641.0 494.2 M 649.7 495.1 L 650.6 495.4 L 652.5 495.3 L 644.4 502.0"
         stroke="black"
         stroke-width="1"
         id="path77" />
      <path
         d="M 822.3 348.8 L 819.2 351.0 L 821.4 354.9 L 821.4 354.3 L 822.1 353.2 L 823.0 352.6 L 824.2 352.3 L 825.4 352.7 L 826.6 353.8 L 827.1 354.6 L 827.7 356.0 L 827.6 357.3 L 827.0 358.3 L 826.1 359.0 L 824.8 359.2 L 824.2 359.0 L 823.4 358.4 M 829.9 347.9 L 830.4 349.3 L 830.4 350.6 L 829.7 351.6 L 829.4 351.8 L 828.2 352.1 L 827.0 351.7 L 825.9 350.6 L 825.6 350.2 L 825.0 348.8 L 825.1 347.5 L 825.7 346.5 L 826.0 346.3 L 827.3 346.0 L 828.4 346.4 L 829.9 347.9 L 831.3 349.9 L 832.4 352.2 L 832.6 353.9 L 832.0 354.9 L 831.4 355.3 L 830.2 355.6 L 829.3 355.0"
         stroke="black"
         stroke-width="1"
         id="path78" />
      <path
         d="M 783.5 357.1 L 779.8 356.8 L 779.0 361.2 L 779.4 360.7 L 780.6 360.4 L 781.7 360.5 L 782.7 361.1 L 783.4 362.1 L 783.6 363.7 L 783.5 364.7 L 783.0 366.1 L 782.2 367.0 L 781.0 367.4 L 779.9 367.3 L 778.8 366.7 L 778.5 366.2 L 778.2 365.1 M 787.3 357.5 L 786.1 357.9 L 785.7 358.8 L 785.6 359.8 L 785.8 360.9 L 786.5 361.4 L 788.0 362.1 L 789.0 362.7 L 789.7 363.8 L 790.0 364.8 L 789.8 366.3 L 789.4 367.3 L 788.9 367.7 L 787.8 368.1 L 786.3 368.0 L 785.2 367.3 L 784.9 366.8 L 784.6 365.8 L 784.7 364.3 L 785.2 363.3 L 786.1 362.4 L 787.2 362.0 L 788.8 361.7 L 789.6 361.2 L 790.0 360.3 L 790.1 359.3 L 789.9 358.3 L 788.8 357.6 L 787.1 357.5"
         stroke="black"
         stroke-width="1"
         id="path79" />
      <path
         d="M 782.5 346.3 L 784.1 342.9 L 780.1 340.7 L 780.4 341.2 L 780.4 342.4 L 780.0 343.5 L 779.0 344.3 L 777.8 344.6 L 776.3 344.3 L 775.4 343.9 L 774.2 342.9 L 773.6 341.8 L 773.6 340.6 L 774.1 339.5 L 775.0 338.7 L 775.6 338.6 L 776.7 338.7 M 779.9 352.1 L 781.4 348.7 L 777.5 346.5 L 777.8 347.0 L 777.8 348.3 L 777.3 349.3 L 776.4 350.1 L 775.2 350.4 L 773.7 350.1 L 772.7 349.7 L 771.5 348.7 L 770.9 347.6 L 770.9 346.4 L 771.4 345.4 L 772.3 344.6 L 772.9 344.4 L 774.0 344.5"
         stroke="black"
         stroke-width="1"
         id="path80" />
      <path
         d="M 783.5 262.5 L 787.9 256.0 L 782.3 255.4 M 783.5 262.5 L 784.6 252.1 M 778.2 261.9 L 779.4 261.5 L 780.3 260.1 L 780.9 257.6 L 781.1 256.1 L 781.0 253.6 L 780.4 252.1 L 779.3 251.4 L 778.6 251.4 L 777.4 251.7 L 776.5 253.1 L 775.8 255.6 L 775.7 257.1 L 775.8 259.6 L 776.4 261.2 L 777.5 261.8 L 778.0 261.9"
         stroke="black"
         stroke-width="1"
         id="path81" />
      <path
         d="M 696.8 322.2 L 698.8 325.8 L 694.2 325.8 L 694.7 326.8 L 694.7 327.7 L 694.4 328.2 L 693.2 329.3 L 692.4 329.7 L 690.9 330.1 L 689.6 329.9 L 688.7 329.2 L 688.1 328.2 L 688.0 327.0 L 688.3 326.4 L 689.0 325.6 M 698.8 333.2 L 697.3 333.6 L 696.0 333.4 L 695.1 332.6 L 694.9 332.3 L 694.8 331.1 L 695.3 329.9 L 696.5 328.9 L 696.9 328.6 L 698.4 328.3 L 699.6 328.5 L 700.6 329.2 L 700.8 329.5 L 700.9 330.8 L 700.3 331.9 L 698.8 333.2 L 696.6 334.4 L 694.2 335.2 L 692.5 335.3 L 691.5 334.5 L 691.2 333.9 L 691.1 332.6 L 691.8 331.8"
         stroke="black"
         stroke-width="1"
         id="path82" />
      <path
         d="m 751.32944,341.56134 -1.8,3.3 3.8,2.5 -0.3,-0.6 0.1,-1.2 0.6,-1 0.9,-0.8 1.3,-0.2 1.5,0.4 0.8,0.5 1.2,1 0.5,1.2 -0.1,1.2 -0.5,1 -1,0.7 -0.6,0.1 -1.1,-0.1 m -2.3,-13.6 -1.7,3.3 3.7,2.4 -0.2,-0.5 0.1,-1.3 0.5,-1 1,-0.7 1.2,-0.2 1.5,0.4 0.9,0.5 1.1,1 0.6,1.1 -0.1,1.3 -0.6,1 -0.9,0.7 -0.7,0.1 -1,-0.1"
         stroke="#000000"
         stroke-width="1"
         id="path83" />
      <path
         d="m 734.50992,352.4578 -3.7,-0.1 -0.4,4.5 0.4,-0.5 1.1,-0.4 h 1.1 l 1.1,0.5 0.8,1 0.3,1.5 v 1 l -0.4,1.5 -0.7,1 -1.2,0.5 h -1.1 l -1.1,-0.6 -0.4,-0.5 -0.3,-1 m 10.4,-8.5 -3.8,7 5.6,0.1 m -1.8,-7.1 -0.1,10.5"
         stroke="#000000"
         stroke-width="1"
         id="path84" />
      <path
         d="m 727.93405,255.30461 5.1,-9.9 m 0.1,10.6 -5.2,-0.7 m -3.4,-0.5 1.2,-0.3 0.9,-1.4 0.7,-2.4 0.2,-1.5 v -2.5 l -0.5,-1.6 -1.1,-0.7 -0.7,-0.1 -1.2,0.4 -0.9,1.3 -0.8,2.5 -0.2,1.4 0.1,2.6 0.5,1.6 1,0.6 0.6,0.1"
         stroke="#000000"
         stroke-width="1"
         id="path85" />
      <path
         d="M 693.1 228.5 L 692.3 229.2 L 692.2 230.4 L 692.5 231.1 L 693.3 232.0 L 695.0 232.1 L 697.5 231.6 L 699.8 230.7 L 701.5 229.7 L 702.2 228.6 L 702.3 227.4 L 702.1 227.0 L 701.3 226.2 L 700.1 225.8 L 698.5 226.0 L 698.1 226.2 L 696.8 227.0 L 696.1 228.1 L 696.1 229.3 L 696.2 229.7 L 697.1 230.6 L 698.3 230.9 L 699.8 230.7 M 689.5 223.4 L 690.9 226.9 L 695.2 225.6 L 694.6 225.4 L 693.7 224.6 L 693.3 223.5 L 693.4 222.3 L 694.1 221.2 L 695.3 220.4 L 696.3 220.0 L 697.8 219.8 L 699.0 220.2 L 699.9 221.0 L 700.3 222.1 L 700.2 223.3 L 699.9 223.8 L 699.1 224.6"
         stroke="black"
         stroke-width="1"
         id="path86" />
      <path
         d="M 633.2 302.7 L 629.8 304.2 L 631.4 308.5 L 631.5 307.8 L 632.3 306.9 L 633.3 306.5 L 634.6 306.4 L 635.7 307.0 L 636.6 308.3 L 637.0 309.2 L 637.3 310.7 L 637.1 311.9 L 636.2 312.8 L 635.2 313.3 L 634.0 313.3 L 633.4 313.0 L 632.7 312.3 M 636.6 303.9 L 636.4 303.4 L 636.3 302.3 L 636.5 301.7 L 636.9 301.0 L 638.3 300.3 L 639.2 300.5 L 639.7 300.8 L 640.5 301.5 L 640.9 302.4 L 641.0 303.5 L 640.9 305.2 L 639.6 311.3 L 644.4 309.1"
         stroke="black"
         stroke-width="1"
         id="path87" />
      <path
         d="M 593.3 241.1 L 590.5 238.6 L 587.3 241.7 L 587.9 241.6 L 589.1 242.0 L 589.9 242.7 L 590.4 243.8 L 590.3 245.1 L 589.6 246.4 L 589.0 247.2 L 587.7 248.1 L 586.5 248.3 L 585.3 248.0 L 584.5 247.2 L 583.9 246.1 L 584.0 245.5 L 584.4 244.5"
         stroke="black"
         stroke-width="1"
         id="path88" />
      <path
         d="M 578.5 206.8 L 571.7 202.7 L 571.4 208.3 M 578.5 206.8 L 568.0 206.2 M 576.4 214.3 L 577.5 214.0 L 578.0 212.9 L 578.1 212.1 L 577.6 211.0 L 576.2 210.1 L 573.7 209.6 L 571.2 209.5 L 569.2 209.7 L 568.2 210.4 L 567.6 211.5 L 567.6 211.9 L 568.0 213.1 L 569.0 213.9 L 570.4 214.3 L 570.9 214.4 L 572.5 214.1 L 573.5 213.4 L 574.1 212.3 L 574.1 211.9 L 573.6 210.8 L 572.7 209.9 L 571.2 209.5"
         stroke="black"
         stroke-width="1"
         id="path89" />
      <path
         d="M 638.6 187.1 L 640.6 176.1 M 643.7 186.2 L 638.6 187.1 M 633.5 188.0 L 636.1 180.5 L 630.5 181.4 M 633.5 188.0 L 631.8 177.6"
         stroke="black"
         stroke-width="1"
         id="path90" />
      <path
         d="M 591.9 313.6 L 591.9 313.1 L 592.5 312.1 L 592.9 311.7 L 593.7 311.3 L 595.2 311.5 L 595.9 312.1 L 596.2 312.6 L 596.4 313.7 L 596.3 314.7 L 595.8 315.6 L 594.8 317.0 L 590.4 321.4 L 595.6 322.2 M 597.8 314.2 L 598.6 313.8 L 599.9 312.5 L 598.5 322.9"
         stroke="black"
         stroke-width="1"
         id="path91" />
      <path
         d="m 602.43582,300.30638 h 1.1 l 0.9,-0.8 0.3,-0.7 -0.1,-1.2 -1.1,-1.3 -2.1,-1.3 -2.4,-0.9 -2,-0.4 -1.2,0.3 -0.9,0.8 -0.1,0.4 v 1.2 l 0.7,1.1 1.2,0.9 0.5,0.2 1.5,0.2 1.2,-0.3 0.9,-0.9 0.2,-0.3 -0.1,-1.2 -0.6,-1.1 -1.3,-0.9 m 2.8,11.9 -5,-6.1 -2.2,5.2 m 7.2,0.9 -9.7,-4"
         stroke="#000000"
         stroke-width="1"
         id="path92" />
      <path
         d="M 836.3 245.1 L 837.2 245.6 L 838.4 245.3 L 839.0 244.9 L 839.5 243.8 L 839.2 242.1 L 838.0 239.9 L 836.4 238.0 L 834.9 236.6 L 833.7 236.3 L 832.5 236.6 L 832.2 236.8 L 831.6 237.9 L 831.7 239.2 L 832.3 240.6 L 832.6 241.0 L 833.8 241.9 L 835.0 242.2 L 836.2 242.0 L 836.5 241.7 L 837.1 240.6 L 837.1 239.4 L 836.4 238.0 M 832.0 250.3 L 828.5 239.7 M 836.1 247.1 L 832.0 250.3"
         stroke="black"
         stroke-width="1"
         id="path93" />
      <path
         d="M 857.9 258.4 L 857.3 259.3 L 857.6 260.5 L 858.0 261.1 L 859.1 261.7 L 860.7 261.5 L 863.0 260.3 L 865.0 258.9 L 866.4 257.4 L 866.8 256.2 L 866.6 255.0 L 866.4 254.7 L 865.3 254.1 L 864.0 254.1 L 862.6 254.6 L 862.2 254.9 L 861.2 256.1 L 860.8 257.3 L 861.1 258.5 L 861.3 258.8 L 862.3 259.4 L 863.6 259.4 L 865.0 258.9 M 854.7 256.5 L 855.8 257.1 L 856.8 256.8 L 857.6 256.2 L 858.2 255.3 L 858.2 254.4 L 857.7 252.9 L 857.5 251.7 L 857.9 250.5 L 858.5 249.7 L 859.7 248.8 L 860.7 248.5 L 861.4 248.5 L 862.4 249.2 L 863.3 250.4 L 863.5 251.6 L 863.3 252.2 L 862.7 253.1 L 861.5 253.9 L 860.5 254.2 L 859.2 254.2 L 858.2 253.5 L 856.9 252.6 L 856.1 252.3 L 855.0 252.6 L 854.2 253.1 L 853.6 254.0 L 853.9 255.2 L 854.8 256.6"
         stroke="black"
         stroke-width="1"
         id="path94" />
      <path
         d="M 720.5 193.2 L 716.3 203.5 M 715.2 193.0 L 720.5 193.2 M 726.1 194.9 L 725.8 193.9 L 724.7 193.4 L 723.9 193.3 L 722.8 193.8 L 721.9 195.3 L 721.5 197.7 L 721.4 200.2 L 721.6 202.3 L 722.4 203.3 L 723.5 203.8 L 723.8 203.8 L 725.0 203.4 L 725.8 202.4 L 726.2 200.9 L 726.2 200.4 L 725.9 198.9 L 725.2 197.9 L 724.1 197.4 L 723.7 197.3 L 722.6 197.8 L 721.8 198.8 L 721.4 200.2"
         stroke="black"
         stroke-width="1"
         id="path95" />
      <path
         d="M 750.0 188.4 L 749.1 187.8 L 747.9 188.0 L 747.3 188.5 L 746.7 189.6 L 747.0 191.2 L 748.2 193.4 L 749.7 195.4 L 751.2 196.8 L 752.4 197.2 L 753.6 196.9 L 753.9 196.7 L 754.5 195.6 L 754.5 194.4 L 753.9 193.0 L 753.6 192.5 L 752.4 191.6 L 751.2 191.2 L 750.0 191.5 L 749.7 191.7 L 749.1 192.8 L 749.1 194.0 L 749.7 195.4 M 754.9 184.7 L 754.0 184.2 L 752.8 184.4 L 752.2 184.9 L 751.6 185.9 L 751.9 187.6 L 753.1 189.8 L 754.6 191.8 L 756.1 193.2 L 757.2 193.6 L 758.4 193.3 L 758.8 193.1 L 759.4 192.0 L 759.4 190.8 L 758.8 189.3 L 758.5 188.9 L 757.3 188.0 L 756.1 187.6 L 754.9 187.9 L 754.6 188.1 L 754.0 189.2 L 754.0 190.4 L 754.6 191.8"
         stroke="black"
         stroke-width="1"
         id="path96" />
      <path
         d="M 725.4 143.5 L 726.5 143.5 L 727.3 142.7 L 727.6 142.0 L 727.6 140.8 L 726.5 139.5 L 724.3 138.2 L 722.0 137.2 L 720.1 136.8 L 718.8 137.1 L 717.9 137.9 L 717.8 138.3 L 717.8 139.5 L 718.5 140.6 L 719.7 141.5 L 720.2 141.7 L 721.7 141.9 L 722.9 141.6 L 723.8 140.8 L 723.9 140.4 L 723.9 139.2 L 723.3 138.1 L 722.0 137.2 M 724.2 150.2 L 716.0 142.7 M 726.2 145.3 L 724.2 150.2"
         stroke="black"
         stroke-width="1"
         id="path97" />
      <path
         d="M 766.6 168.1 L 774.3 176.1 M 764.2 172.8 L 766.6 168.1 M 767.4 166.4 L 769.2 162.7 L 771.8 166.5 L 772.3 165.5 L 773.1 165.0 L 773.7 164.9 L 775.2 165.2 L 776.1 165.7 L 777.3 166.7 L 777.9 167.8 L 777.8 169.0 L 777.3 170.0 L 776.4 170.8 L 775.8 170.9 L 774.7 170.8"
         stroke="black"
         stroke-width="1"
         id="path98" />
      <path
         d="M 755.3 115.8 L 755.2 107.9 L 750.3 110.6 M 755.3 115.8 L 750.3 106.6 M 750.6 118.3 L 751.3 117.3 L 751.3 115.6 L 750.4 113.2 L 749.7 111.9 L 748.2 109.9 L 746.8 108.9 L 745.6 109.0 L 744.9 109.4 L 744.1 110.4 L 744.2 112.1 L 745.1 114.4 L 745.8 115.7 L 747.3 117.8 L 748.7 118.7 L 749.9 118.6 L 750.4 118.3"
         stroke="black"
         stroke-width="1"
         id="path99" />
      <path
         d="M 792.7 139.1 L 791.7 138.5 L 790.5 138.8 L 790.0 139.2 L 789.4 140.3 L 789.7 142.0 L 790.9 144.2 L 792.4 146.2 L 793.9 147.5 L 795.2 147.8 L 796.3 147.6 L 796.6 147.3 L 797.2 146.2 L 797.2 145.0 L 796.6 143.6 L 796.3 143.2 L 795.1 142.2 L 793.9 141.9 L 792.7 142.2 L 792.4 142.4 L 791.8 143.5 L 791.8 144.7 L 792.4 146.2 M 799.0 136.7 L 799.6 138.1 L 799.6 139.4 L 799.0 140.5 L 798.7 140.7 L 797.5 141.0 L 796.3 140.6 L 795.1 139.7 L 794.8 139.3 L 794.2 137.9 L 794.2 136.6 L 794.8 135.5 L 795.1 135.3 L 796.3 135.0 L 797.5 135.4 L 799.0 136.7 L 800.5 138.7 L 801.7 140.9 L 802.0 142.6 L 801.5 143.6 L 800.9 144.1 L 799.7 144.4 L 798.8 143.8"
         stroke="black"
         stroke-width="1"
         id="path100" />
      <path
         d="M 794.2 79.9 L 787.5 71.0 M 797.1 75.6 L 794.2 79.9 M 792.3 82.8 L 792.5 81.6 L 791.6 80.1 L 789.8 78.4 L 788.5 77.6 L 786.2 76.5 L 784.6 76.3 L 783.5 77.0 L 783.1 77.6 L 782.9 78.8 L 783.7 80.3 L 785.6 82.0 L 786.8 82.8 L 789.1 83.9 L 790.8 84.1 L 791.8 83.4 L 792.2 83.0"
         stroke="black"
         stroke-width="1"
         id="path101" />
      <path
         d="M 817.7 55.1 L 818.5 55.7 L 819.8 55.6 L 820.4 55.2 L 821.1 54.3 L 821.0 52.6 L 820.1 50.2 L 818.9 48.1 L 817.5 46.5 L 816.4 46.0 L 815.2 46.2 L 814.8 46.3 L 814.1 47.3 L 814.0 48.6 L 814.4 50.1 L 814.6 50.5 L 815.7 51.6 L 816.9 52.1 L 818.1 52.0 L 818.4 51.8 L 819.1 50.8 L 819.3 49.5 L 818.9 48.1 M 813.2 59.4 L 816.5 57.5 L 814.6 53.4 L 814.5 54.0 L 813.8 55.0 L 812.8 55.6 L 811.6 55.7 L 810.4 55.2 L 809.3 54.1 L 808.8 53.3 L 808.4 51.8 L 808.6 50.5 L 809.3 49.5 L 810.3 49.0 L 811.5 48.8 L 812.1 49.1 L 812.9 49.8"
         stroke="black"
         stroke-width="1"
         id="path102" />
      <path
         d="m 836.39716,66.428364 10.1,-4.6 m -6.5,8.4 -3.6,-3.8 m -2.9,-5.1 -0.5,0.9 0.5,1.2 0.5,0.5 1.1,0.5 1.6,-0.5 2.1,-1.5 1.8,-1.7 1.2,-1.7 0.2,-1.2 -0.5,-1.2 -0.2,-0.2 -1.2,-0.5 -1.2,0.2 -1.3,0.7 -0.4,0.4 -0.8,1.3 -0.2,1.2 0.4,1.2 0.3,0.3 1.1,0.4 1.2,-0.1 1.4,-0.8"
         stroke="#000000"
         stroke-width="1"
         id="path103" />
      <path
         d="m 881.43474,83.184397 0.3,1 1.1,0.5 0.8,0.1 1.1,-0.5 0.9,-1.4 0.4,-2.5 0.2,-2.5 -0.3,-2 -0.7,-1.1 -1.1,-0.5 h -0.4 l -1.2,0.4 -0.7,1 -0.5,1.5 v 0.5 l 0.3,1.5 0.7,1 1.1,0.6 h 0.4 l 1.1,-0.5 0.8,-0.9 0.5,-1.5 m -10.8,5 0.3,1 1.1,0.6 h 0.7 l 1.2,-0.5 0.8,-1.4 0.5,-2.5 0.1,-2.5 -0.3,-2 -0.7,-1 -1.1,-0.6 h -0.4 l -1.1,0.4 -0.8,1 -0.4,1.5 -0.1,0.5 0.3,1.5 0.7,1 1.1,0.6 h 0.4 l 1.2,-0.4 0.8,-1 0.4,-1.5"
         stroke="#000000"
         stroke-width="1"
         id="path104" />
      <path
         d="m 851.89646,152.79646 -10.1,4.7 m 6.5,-8.4 3.6,3.7 m -0.9,2.4 0.9,0.2 1.9,-0.3 -7.5,7.4"
         stroke="#000000"
         stroke-width="1"
         id="path105" />
      <path
         d="m 952.87164,140.9 -5,10 m -0.3,-10.6 5.3,0.6 m 6.2,0.8 -5,10 m -0.3,-10.6 5.3,0.6"
         stroke="#000000"
         stroke-width="1"
         id="path106" />
      <path
         d="M 914.8 69.6 L 910.0 59.5 M 918.5 65.9 L 914.8 69.6 M 913.4 71.0 L 910.5 73.9 L 909.3 69.5 L 908.5 70.3 L 907.6 70.4 L 907.0 70.4 L 905.6 69.6 L 904.9 68.9 L 904.1 67.5 L 904.0 66.3 L 904.4 65.1 L 905.2 64.3 L 906.3 63.9 L 907.0 64.0 L 907.9 64.4"
         stroke="black"
         stroke-width="1"
         id="path107" />
      <path
         d="M 929.9 179.2 L 941.0 178.3 M 932.0 184.0 L 929.9 179.2 M 927.4 173.4 L 938.5 172.6 M 929.5 178.2 L 927.4 173.4"
         stroke="black"
         stroke-width="1"
         id="path108" />
      <path
         d="M 913.1 183.6 L 910.5 194.4 M 907.9 184.2 L 913.1 183.6 M 918.7 183.0 L 915.0 183.4 L 915.1 187.9 L 915.5 187.4 L 916.5 186.8 L 917.6 186.6 L 918.8 187.0 L 919.7 187.9 L 920.2 189.4 L 920.3 190.4 L 920.1 191.9 L 919.5 193.0 L 918.4 193.6 L 917.3 193.7 L 916.1 193.3 L 915.7 192.9 L 915.2 191.9"
         stroke="black"
         stroke-width="1"
         id="path109" />
      <path
         d="M 938.8 49.4 L 939.7 50.0 L 940.9 49.8 L 941.5 49.4 L 942.2 48.4 L 942.1 46.7 L 941.0 44.4 L 939.7 42.3 L 938.3 40.8 L 937.2 40.4 L 935.9 40.5 L 935.6 40.7 L 934.9 41.8 L 934.8 43.0 L 935.3 44.5 L 935.6 44.9 L 936.7 46.0 L 937.9 46.4 L 939.1 46.2 L 939.4 46.0 L 940.1 45.0 L 940.2 43.8 L 939.7 42.3 M 932.3 51.1 L 931.9 49.6 L 932.0 48.4 L 932.6 47.4 L 933.0 47.2 L 934.2 47.0 L 935.3 47.4 L 936.5 48.5 L 936.7 48.9 L 937.2 50.4 L 937.1 51.6 L 936.4 52.7 L 936.1 52.9 L 934.9 53.0 L 933.7 52.6 L 932.3 51.1 L 931.0 49.0 L 930.0 46.7 L 929.8 45.0 L 930.5 44.0 L 931.1 43.6 L 932.4 43.4 L 933.2 44.0"
         stroke="black"
         stroke-width="1"
         id="path110" />
      <path
         d="M 720.8 661.8 L 719.8 661.2 L 718.1 661.4 L 715.9 662.6 L 714.6 663.5 L 712.8 665.2 L 712.0 666.7 L 712.3 667.9 L 712.7 668.5 L 713.8 669.2 L 715.4 668.9 L 717.7 667.7 L 718.9 666.9 L 720.7 665.1 L 721.5 663.6 L 721.3 662.4 L 720.9 662.0"
         stroke="black"
         stroke-width="1"
         id="path111" />
      <path
         d="M 765.0 676.0 L 765.3 675.2 L 765.4 673.3 L 771.2 682.1 M 770.0 669.9 L 766.8 672.0 L 769.0 676.0 L 769.0 675.3 L 769.7 674.3 L 770.6 673.7 L 771.8 673.5 L 773.0 673.9 L 774.1 675.0 L 774.7 675.8 L 775.2 677.3 L 775.1 678.5 L 774.5 679.5 L 773.5 680.2 L 772.3 680.4 L 771.7 680.1 L 770.9 679.5"
         stroke="black"
         stroke-width="1"
         id="path112" />
      <path
         d="m 834.32129,641.96879 -0.1,-0.5 0.2,-1 0.3,-0.6 0.6,-0.6 1.5,-0.3 0.8,0.4 0.5,0.4 0.5,0.9 0.2,1 -0.2,1.1 -0.4,1.6 -2.8,5.6 5.1,-1 m 4.7,-7.9 -0.1,1.5 -0.5,1.1 -1,0.7 -0.4,0.1 -1.2,-0.3 -0.9,-0.9 -0.7,-1.4 v -0.5 l 0.1,-1.5 0.5,-1.1 1,-0.7 0.4,-0.1 1.2,0.3 0.9,0.9 0.7,1.9 0.5,2.4 0.1,2.6 -0.5,1.6 -1,0.7 -0.8,0.1 -1.2,-0.3 -0.5,-0.9"
         stroke="#000000"
         stroke-width="1"
         id="path113" />
      <path
         d="M 845.9 607.2 L 846.1 607.7 L 846.3 608.7 L 846.2 609.3 L 845.8 610.1 L 844.5 610.8 L 843.6 610.8 L 843.0 610.5 L 842.2 609.8 L 841.7 608.9 L 841.6 607.8 L 841.5 606.2 L 842.5 600.0 L 837.8 602.5 M 837.1 613.1 L 837.9 613.8 L 839.1 613.7 L 839.8 613.4 L 840.5 612.4 L 840.5 610.7 L 839.6 608.3 L 838.4 606.1 L 837.2 604.5 L 836.0 604.0 L 834.8 604.1 L 834.5 604.3 L 833.7 605.3 L 833.5 606.5 L 833.9 608.0 L 834.1 608.4 L 835.2 609.6 L 836.3 610.1 L 837.5 610.0 L 837.9 609.8 L 838.6 608.9 L 838.8 607.6 L 838.4 606.1"
         stroke="black"
         stroke-width="1"
         id="path114" />
      <path
         d="M 873.2 616.8 L 872.7 616.8 L 871.6 616.5 L 871.1 616.2 L 870.6 615.5 L 870.4 614.0 L 870.9 613.2 L 871.4 612.8 L 872.3 612.3 L 873.3 612.3 L 874.4 612.6 L 875.9 613.2 L 881.2 616.6 L 880.8 611.3 M 869.8 605.9 L 880.6 608.8 M 870.2 611.1 L 869.8 605.9"
         stroke="black"
         stroke-width="1"
         id="path115" />
      <path
         d="M 947.8 350.4 L 944.1 351.1 L 944.6 355.6 L 944.9 355.0 L 945.9 354.3 L 947.0 354.1 L 948.2 354.4 L 949.1 355.2 L 949.7 356.6 L 949.9 357.6 L 949.8 359.1 L 949.3 360.3 L 948.3 361.0 L 947.2 361.2 L 946.0 360.9 L 945.5 360.5 L 945.0 359.6 M 950.4 349.9 L 954.5 349.1 L 953.0 353.5 L 954.1 353.3 L 954.9 353.6 L 955.4 354.0 L 956.0 355.4 L 956.2 356.4 L 956.1 358.0 L 955.6 359.1 L 954.6 359.8 L 953.5 360.0 L 952.3 359.7 L 951.8 359.3 L 951.2 358.4"
         stroke="black"
         stroke-width="1"
         id="path116" />
      <path
         d="M 988.5 338.4 L 987.6 346.3 L 992.8 344.2 M 988.5 338.4 L 992.4 348.1 M 992.0 337.1 L 995.9 335.6 L 995.3 340.1 L 996.3 339.7 L 997.2 339.9 L 997.7 340.2 L 998.6 341.5 L 999.0 342.4 L 999.2 343.9 L 998.9 345.1 L 998.0 346.0 L 997.0 346.4 L 995.7 346.4 L 995.2 346.0 L 994.5 345.3"
         stroke="black"
         stroke-width="1"
         id="path117" />
      <path
         d="M 998.7 313.9 L 1006.4 315.6 L 1004.9 310.2 M 998.7 313.9 L 1008.8 311.1 M 1000.2 309.6 L 999.7 309.7 L 998.6 309.7 L 998.1 309.4 L 997.4 308.8 L 997.0 307.4 L 997.2 306.5 L 997.6 306.0 L 998.5 305.4 L 999.5 305.1 L 1000.5 305.2 L 1002.2 305.6 L 1008.0 307.8 L 1006.6 302.8"
         stroke="black"
         stroke-width="1"
         id="path118" />
      <path
         d="M 884.0 240.1 L 884.7 239.4 L 884.8 238.2 L 884.5 237.5 L 883.5 236.7 L 881.9 236.6 L 879.4 237.2 L 877.1 238.2 L 875.5 239.4 L 874.8 240.4 L 874.8 241.7 L 875.0 242.0 L 875.9 242.8 L 877.1 243.1 L 878.6 242.9 L 879.1 242.7 L 880.3 241.7 L 880.9 240.7 L 880.9 239.4 L 880.8 239.1 L 879.9 238.2 L 878.7 238.0 L 877.1 238.2 M 886.7 242.7 L 885.8 241.9 L 884.7 241.9 L 883.8 242.3 L 883.1 243.1 L 882.9 244.0 L 883.0 245.5 L 883.0 246.8 L 882.4 247.8 L 881.6 248.6 L 880.3 249.2 L 879.2 249.2 L 878.6 249.1 L 877.7 248.3 L 877.1 246.9 L 877.1 245.7 L 877.4 245.1 L 878.2 244.4 L 879.6 243.8 L 880.6 243.7 L 881.8 244.0 L 882.7 244.8 L 883.8 246.0 L 884.6 246.5 L 885.6 246.5 L 886.5 246.1 L 887.3 245.3 L 887.3 244.1 L 886.6 242.5"
         stroke="black"
         stroke-width="1"
         id="path119" />
      <path
         d="M 928.6 236.5 L 933.6 226.5 M 933.9 237.1 L 928.6 236.5 M 923.5 236.0 L 928.1 229.5 L 922.5 228.8 M 923.5 236.0 L 924.8 225.6"
         stroke="black"
         stroke-width="1"
         id="path120" />
      <path
         d="M 987.0 259.3 L 986.7 255.2 L 990.8 257.1 L 990.7 256.0 L 991.2 255.2 L 991.6 254.8 L 993.1 254.3 L 994.1 254.2 L 995.6 254.4 L 996.7 255.1 L 997.3 256.2 L 997.4 257.3 L 997.0 258.5 L 996.5 258.9 L 995.5 259.3 M 987.7 249.0 L 986.7 249.5 L 986.3 250.6 L 986.3 251.4 L 986.9 252.4 L 988.5 253.1 L 991.0 253.2 L 993.5 253.0 L 995.5 252.5 L 996.4 251.7 L 996.8 250.5 L 996.8 250.1 L 996.2 249.1 L 995.1 248.4 L 993.6 248.1 L 993.1 248.2 L 991.6 248.7 L 990.7 249.5 L 990.3 250.7 L 990.3 251.0 L 990.9 252.1 L 992.0 252.8 L 993.5 253.0"
         stroke="black"
         stroke-width="1"
         id="path121" />
      <path
         d="m 1008.3497,116.44681 5.9,-9.5 m -0.8,10.6 -5.1,-1.1 m -1.3,-2.9 -0.1,0.5 -0.5,0.9 -0.5,0.4 -0.9,0.3 -1.4,-0.3 -0.7,-0.6 -0.2,-0.6 -0.2,-1 0.2,-1 0.6,-0.9 1.1,-1.3 4.7,-4.1 -5.1,-1.1"
         stroke="#000000"
         stroke-width="1"
         id="path122" />
      <path
         d="m 997.41914,119.40284 4.79996,10 m -8.49996,-6.3 3.7,-3.7 m 3.99996,-4.1 -2.69996,2.7 2.99996,3.4 -0.1,-0.6 0.4,-1.1 0.8,-0.8 1.1,-0.5 1.3,0.2 1.3,0.8 0.7,0.7 0.8,1.3 0.2,1.2 -0.4,1.2 -0.8,0.8 -1.2,0.4 -0.6,-0.1 -0.9,-0.4"
         stroke="#000000"
         stroke-width="1"
         id="path123" />
      <path
         d="m 982.46134,70.970563 9.2,-6.4 m -4.9,9.4 -4.3,-3 m 0.5,-2.5 -0.9,-0.1 -1.8,0.6 6.1,-8.6"
         stroke="#000000"
         stroke-width="1"
         id="path124" />
      <path
         d="M 1001.2 82.1 L 1005.5 92.4 M 997.4 85.7 L 1001.2 82.1 M 1004.3 82.8 L 1003.9 82.4 L 1003.5 81.4 L 1003.5 80.8 L 1003.7 79.9 L 1004.8 78.9 L 1005.7 78.8 L 1006.3 78.9 L 1007.3 79.4 L 1007.9 80.1 L 1008.3 81.1 L 1008.8 82.7 L 1009.4 88.9 L 1013.3 85.4"
         stroke="black"
         stroke-width="1"
         id="path125" />
      <path
         d="m 607.68724,438.43405 -7.8,1.4 3.5,4.4 m 4.3,-5.8 -8.3,6.5 m 13.2,0 -10.5,3.5 m 7.3,-7.7 3.2,4.2"
         stroke="#000000"
         stroke-width="1"
         id="path126" />
      <path
         d="M 601.9 431.4 L 597.9 432.4 L 599.1 427.9 L 598.0 428.2 L 597.2 427.9 L 596.7 427.5 L 596.0 426.1 L 595.7 425.2 L 595.7 423.6 L 596.2 422.5 L 597.2 421.7 L 598.3 421.5 L 599.5 421.7 L 600.0 422.1 L 600.6 422.9 M 592.6 433.8 L 594.5 426.1 L 589.1 427.4 M 592.6 433.8 L 590.1 423.6"
         stroke="black"
         stroke-width="1"
         id="path127" />
      <path
         d="M 683.8 394.6 L 680.6 391.9 L 684.9 390.3 L 684.0 389.6 L 683.8 388.7 L 683.8 388.1 L 684.5 386.7 L 685.1 385.9 L 686.4 385.0 L 687.6 384.7 L 688.8 385.0 L 689.6 385.8 L 690.2 386.9 L 690.2 387.5 L 689.8 388.5 M 677.9 385.1 L 679.2 384.2 L 680.4 383.9 L 681.6 384.3 L 681.8 384.5 L 682.4 385.6 L 682.3 386.8 L 681.7 388.2 L 681.3 388.6 L 680.1 389.5 L 678.9 389.8 L 677.7 389.5 L 677.4 389.3 L 676.9 388.2 L 676.9 386.9 L 677.9 385.1 L 679.5 383.2 L 681.4 381.5 L 682.9 380.8 L 684.1 381.2 L 684.7 381.7 L 685.2 382.8 L 684.9 383.8"
         stroke="black"
         stroke-width="1"
         id="path128" />
      <path
         d="m 641.71383,386.7266 3,-2.4 -2.5,-3.7 v 0.6 l -0.6,1.1 -0.9,0.7 -1.2,0.3 -1.2,-0.3 -1.2,-1 -0.6,-0.8 -0.6,-1.4 -0.1,-1.2 0.6,-1.1 0.9,-0.7 1.2,-0.3 0.6,0.1 0.9,0.6 m -1.9,9.1 0.3,0.4 0.4,1 v 0.6 l -0.3,0.9 -1.2,0.9 -0.9,0.1 -0.6,-0.2 -0.9,-0.5 -0.6,-0.8 -0.3,-1.1 -0.4,-1.6 -0.1,-6.2 -4.1,3.2"
         stroke="#000000"
         stroke-width="1"
         id="path129" />
      <path
         d="m 623.79539,397.53405 -0.4,4.1 -3.7,-2.6 -0.1,1.1 -0.6,0.7 -0.5,0.3 -1.6,0.2 -1,-0.1 -1.4,-0.5 -0.9,-0.8 -0.4,-1.2 0.1,-1.1 0.6,-1.1 0.5,-0.3 1,-0.3 m 5.3,7.6 0.5,0.1 1,0.5 0.5,0.4 0.4,0.8 -0.2,1.5 -0.5,0.7 -0.6,0.3 -1,0.3 -1,-0.1 -1,-0.5 -1.4,-0.9 -4.6,-4.2 -0.5,5.2"
         stroke="#000000"
         stroke-width="1"
         id="path130" />
      <path
         d="m 739.96595,68.889008 -4.1,0.4 1.9,-4.2 -1.1,0.1 -0.8,-0.4 -0.5,-0.5 -0.5,-1.5 -0.1,-1 0.3,-1.5 0.6,-1 1.1,-0.6 1.1,-0.1 1.2,0.4 0.4,0.4 0.5,1"
         stroke="#000000"
         stroke-width="1"
         id="path131" />
      <path
         d="M 746.0 62.3 L 751.7 67.9 L 753.3 62.5 M 746.0 62.3 L 756.1 65.3"
         stroke="black"
         stroke-width="1"
         id="path132" />
      <path
         d="M 723.2 77.2 L 723.8 76.5 L 724.5 74.8 L 727.3 84.9"
         stroke="black"
         stroke-width="1"
         id="path133" />
      <path
         d="M 672.8 72.1 L 676.6 72.2 L 677.0 67.7 L 676.7 68.2 L 675.5 68.6 L 674.4 68.6 L 673.3 68.1 L 672.6 67.1 L 672.2 65.6 L 672.2 64.6 L 672.6 63.1 L 673.4 62.1 L 674.5 61.6 L 675.7 61.6 L 676.8 62.2 L 677.1 62.7 L 677.5 63.7"
         stroke="black"
         stroke-width="1"
         id="path134" />
      <path
         d="m 637.35711,75.981555 -0.4,0.8 -0.2,1.9 -5.4,-9 m -1.4,9.4 -0.4,-1.4 0.1,-1.3 0.7,-1 0.3,-0.2 1.2,-0.1 1.2,0.4 1.1,1.1 0.2,0.4 0.5,1.5 -0.1,1.3 -0.7,1 -0.3,0.2 -1.3,0.1 -1.1,-0.4 -1.4,-1.6 -1.3,-2.1 -1,-2.3 -0.1,-1.7 0.7,-1 0.6,-0.4 1.3,-0.2 0.8,0.7"
         stroke="#000000"
         stroke-width="1"
         id="path135" />
      <path
         d="M 613.5 87.2 L 616.1 79.7 L 610.6 80.6 M 613.5 87.2 L 611.9 76.8"
         stroke="black"
         stroke-width="1"
         id="path136" />
      <path
         d="m 589.81845,107.87448 -0.8,-0.9 -1,-0.1 -1,0.3 -0.8,0.7 -0.3,0.9 v 1.5 l -0.1,1.3 -0.8,1 -0.8,0.6 -1.4,0.5 -1.1,-0.1 -0.6,-0.2 -0.8,-0.9 -0.5,-1.4 0.2,-1.2 0.3,-0.6 0.9,-0.6 1.4,-0.5 1.1,0.1 1.1,0.4 0.9,0.9 0.9,1.3 0.7,0.6 h 1.1 l 0.9,-0.3 0.9,-0.6 0.1,-1.3 -0.5,-1.6"
         stroke="#000000"
         stroke-width="1"
         id="path137" />
      <path
         d="m 587.59646,101.16595 -0.9,-1.299999 -0.2,-1.2 0.4,-1.2 0.2,-0.3 1.1,-0.5 1.3,0.1 1.3,0.7 0.4,0.3 0.9,1.3 0.3,1.199999 -0.4,1.2 -0.3,0.3 -1.1,0.5 -1.2,-0.1 -1.8,-1 -1.9,-1.699999 -1.6,-1.9 -0.6,-1.5 0.3,-1.2 0.5,-0.6 1.2,-0.5 0.9,0.4"
         stroke="#000000"
         stroke-width="1"
         id="path138" />
      <path
         d="M 610.1 138.5 L 609.6 137.8 L 608.0 136.7 L 618.5 136.2 M 607.5 133.3 L 608.1 134.4 L 609.6 135.1 L 612.1 135.3 L 613.6 135.2 L 616.1 134.7 L 617.6 133.9 L 618.0 132.8 L 618.0 132.0 L 617.4 130.9 L 615.9 130.2 L 613.4 130.0 L 611.9 130.1 L 609.4 130.6 L 607.9 131.4 L 607.5 132.5 L 607.5 133.1"
         stroke="black"
         stroke-width="1"
         id="path139" />
      <path
         d="m 602.92767,130.99362 h -1.2 l -0.8,0.8 -0.4,0.9 v 1.1 l 0.5,0.8 1.2,1 0.8,0.9 0.3,1.2 v 1.1 l -0.6,1.4 -0.8,0.7 -0.5,0.3 -1.2,0.1 -1.4,-0.6 -0.8,-0.9 -0.2,-0.6 0.1,-1.1 0.5,-1.4 0.8,-0.7 1.1,-0.7 h 1.2 l 1.6,0.1 0.9,-0.1 0.7,-0.8 0.4,-0.9 v -1.1 l -0.8,-0.9 -1.6,-0.7"
         stroke="#000000"
         stroke-width="1"
         id="path140" />
      <path
         d="M 636.2 124.0 L 636.9 124.5 L 638.7 125.1 L 628.8 128.6 M 640.2 128.2 L 639.3 127.3 L 637.7 127.1 L 635.2 127.6 L 633.8 128.1 L 631.6 129.3 L 630.4 130.5 L 630.3 131.7 L 630.6 132.4 L 631.4 133.3 L 633.1 133.5 L 635.5 133.0 L 637.0 132.5 L 639.2 131.3 L 640.4 130.1 L 640.4 128.9 L 640.3 128.4"
         stroke="black"
         stroke-width="1"
         id="path141" />
      <path
         d="m 672.26241,116.83936 0.1,-0.9 -0.6,-1.8 8.5,6.1"
         stroke="#000000"
         stroke-width="1"
         id="path142" />
      <path
         d="m 664.57303,133.01383 0.1,1.5 -0.5,1.2 -0.9,0.8 -0.4,0.1 -1.2,-0.2 -1,-0.8 -0.7,-1.3 -0.2,-0.5 v -1.5 l 0.4,-1.2 1,-0.8 0.3,-0.1 1.3,0.2 0.9,0.7 0.9,1.9 0.7,2.4 0.3,2.5 -0.3,1.6 -0.9,0.8 -0.7,0.2 -1.3,-0.2 -0.6,-0.8"
         stroke="#000000"
         stroke-width="1"
         id="path143" />
      <path
         d="m 988,493.56295 -0.1,-4.1 4,2.1 v -1.1 l 0.5,-0.7 0.5,-0.4 1.5,-0.4 1,-0.1 1.5,0.4 1,0.7 0.5,1.1 0.1,1.1 -0.5,1.2 -0.5,0.4 -1,0.4 m -8.7,-8.5 0.5,1.1 1.5,0.7 2.5,0.3 h 1.5 l 2.5,-0.5 1.5,-0.7 0.5,-1.2 v -0.7 l -0.6,-1.1 -1.5,-0.8 -2.5,-0.3 -1.5,0.1 -2.5,0.4 -1.5,0.8 -0.4,1.1 v 0.6"
         stroke="#000000"
         stroke-width="1"
         id="path144" />
      <path
         d="m 953.70869,475.02021 v 0.5 l -0.3,1.1 -0.4,0.5 -0.7,0.5 -1.5,0.1 -0.8,-0.5 -0.4,-0.5 -0.4,-1 v -1 l 0.3,-1 0.7,-1.5 3.5,-5.2 -5.2,0.3 m -0.7,8.2 -0.8,0.5 -1,1.5 -0.5,-10.5"
         stroke="#000000"
         stroke-width="1"
         id="path145" />
      <path
         d="m 933.22783,475.40177 0.1,-0.5 0.6,-0.8 0.5,-0.4 0.9,-0.3 1.4,0.4 0.6,0.7 0.3,0.5 0.1,1.1 -0.3,1 -0.6,0.8 -1.1,1.3 -4.9,3.9 5,1.3 m 3.9,-7.2 0.1,-0.5 0.6,-0.9 0.5,-0.4 0.8,-0.3 1.5,0.4 0.6,0.7 0.2,0.6 0.1,1 -0.2,1 -0.6,0.9 -1.2,1.2 -4.9,3.9 5.1,1.3"
         stroke="#000000"
         stroke-width="1"
         id="path146" />
      <path
         d="m 935.23298,474.56064 0.3,0.4 0.3,1 v 0.7 l -0.3,0.8 -1.1,0.9 -0.9,0.1 -0.6,-0.1 -1,-0.6 -0.6,-0.8 -0.3,-1 -0.3,-1.6 -0.2,-6.3 -4.1,3.3 m 5,9.4 -3.2,2.6 -0.7,-4.6 -0.9,0.7 -0.9,0.1 -0.6,-0.2 -1.3,-0.9 -0.6,-0.8 -0.6,-1.4 -0.1,-1.2 0.6,-1.1 0.9,-0.7 1.2,-0.3 0.6,0.1 0.9,0.6"
         stroke="#000000"
         stroke-width="1"
         id="path147" />
      <path
         d="m 949.40054,519.27394 0.3,-0.4 0.9,-0.6 0.6,-0.1 h 0.9 l 1.2,0.9 0.3,0.9 v 0.6 l -0.3,1 -0.6,0.8 -0.9,0.6 -1.5,0.7 -6.1,1.7 4.2,3.2"
         stroke="#000000"
         stroke-width="1"
         id="path148" />
      <path
         d="m 949.41844,512.50762 0.5,0.1 0.8,0.7 0.4,0.5 0.2,0.9 -0.5,1.4 -0.7,0.6 -0.6,0.1 -1.1,0.1 -1,-0.4 -0.8,-0.7 -1.1,-1.2 -3.4,-5.2 -1.8,4.9 m 6.9,4.5 0.4,0.1 0.9,0.7 0.3,0.5 0.2,0.9 -0.5,1.4 -0.7,0.6 -0.6,0.1 -1.1,0.1 -0.9,-0.4 -0.8,-0.7 -1.2,-1.2 -3.4,-5.2 -1.8,4.9"
         stroke="#000000"
         stroke-width="1"
         id="path149" />
      <path
         d="m 982.82429,467.42252 -3.6,2 v -4.6 l -1,0.5 h -0.9 l -0.6,-0.3 -1,-1.1 -0.5,-0.9 -0.4,-1.5 0.1,-1.2 0.8,-1 1,-0.6 1.2,-0.1 0.6,0.3 0.8,0.7 m -3.3,8.7 0.3,0.4 0.1,1.1 v 0.6 l -0.5,0.8 -1.3,0.7 -0.9,-0.1 -0.5,-0.2 -0.9,-0.7 -0.4,-0.9 -0.2,-1 -0.1,-1.7 0.9,-6.2 -4.6,2.6"
         stroke="#000000"
         stroke-width="1"
         id="path150" />
      <path
         d="M 992.0 536.7 L 991.5 536.7 L 990.5 536.4 L 990.0 536.1 L 989.4 535.3 L 989.4 533.8 L 989.8 533.1 L 990.3 532.7 L 991.3 532.2 L 992.3 532.2 L 993.3 532.5 L 994.8 533.2 L 1000.0 536.7 L 999.8 531.4 M 988.9 526.8 L 996.1 530.2 L 995.8 524.6 M 988.9 526.8 L 999.4 526.3"
         stroke="black"
         stroke-width="1"
         id="path151" />
      <path
         d="M 972.3 556.9 L 972.8 556.9 L 973.8 557.2 L 974.3 557.6 L 974.8 558.3 L 974.9 559.8 L 974.4 560.6 L 973.9 561.0 L 972.9 561.4 L 971.9 561.4 L 970.9 561.1 L 969.4 560.3 L 964.3 556.7 L 964.4 562.0"
         stroke="black"
         stroke-width="1"
         id="path152" />
      <path
         d="m 978.4289,565.71099 4.1,0.8 -2.9,3.5 1.1,0.2 0.6,0.6 0.3,0.6 0.1,1.5 -0.1,1 -0.7,1.4 -0.9,0.9 -1.2,0.3 -1.1,-0.2 -1,-0.7 -0.3,-0.6 -0.2,-1 m 10,-6.9 -1.1,0.3 -1,1.4 -0.8,2.4 -0.3,1.4 -0.1,2.6 0.5,1.6 1,0.7 0.8,0.1 1.2,-0.3 1,-1.4 0.8,-2.4 0.2,-1.4 0.1,-2.6 -0.5,-1.6 -1,-0.7 -0.6,-0.1"
         stroke="#000000"
         stroke-width="1"
         id="path153" />
      <path
         d="m 991.4844,568.80922 -0.5,-0.1 -1,-0.4 -0.5,-0.4 -0.4,-0.8 0.1,-1.5 0.5,-0.7 0.5,-0.3 1.1,-0.4 1,0.1 0.9,0.4 1.5,0.9 4.8,4 0.3,-5.2 m -10.3,-5.8 6.8,4.2 0.3,-5.6 m -7.1,1.4 10.5,0.7"
         stroke="#000000"
         stroke-width="1"
         id="path154" />
      <path
         d="m 989.24273,475.82445 -0.5,-0.2 -0.8,-0.7 -0.4,-0.5 -0.2,-0.8 0.4,-1.5 0.8,-0.5 0.6,-0.2 h 1 l 1,0.3 0.8,0.6 1.2,1.2 3.50001,5.2 1.7,-5 m -9.40001,-5.1 1.4,-4 3,3.5 0.4,-1.1 0.7,-0.6 0.6,-0.2 1.50001,0.2 1,0.3 1.3,0.8 0.7,1.1 0.1,1.2 -0.3,1 -0.9,0.9 -0.6,0.2 -1,0.1"
         stroke="#000000"
         stroke-width="1"
         id="path155" />
      <path
         d="m 1003.2509,462.73813 -4.10001,0.8 1.50001,-4.4 -1.10001,0.2 -0.9,-0.3 -0.4,-0.4 -0.7,-1.4 -0.1,-1 v -1.6 l 0.6,-1.1 1,-0.7 1.10001,-0.2 1.2,0.3 0.5,0.4 0.5,0.9 m -8.60001,10.4 2.4,-7.6 -5.5,1 m 3.1,6.6 -1.9,-10.3"
         stroke="#000000"
         stroke-width="1"
         id="path156" />
    </g>
    <path
       d="m 806.33159,292.60632 h 6.2 l -3.4,6 h 1.7 l 1.1,0.7 0.6,0.8 0.6,2.2 v 1.5 l -0.6,2.3 -1.1,1.5 -1.7,0.7 h -1.7 l -1.7,-0.7 -0.5,-0.8 -0.6,-1.5"
       id="titre_3"
       stroke="#4b0082" />
    <path
       d="M 657.3 76.3 L 651.6 86.8 L 660.1 86.8 M 657.3 76.3 L 657.3 92.0"
       id="titre_4"
       stroke="indigo" />
    <path
       d="m 966.08415,511.02193 v -0.8 l 0.6,-1.5 0.5,-0.7 1.1,-0.8 h 2.3 l 1.1,0.8 0.6,0.7 0.5,1.5 v 1.5 l -0.5,1.5 -1.1,2.3 -5.7,7.5 h 7.9"
       id="titre_2"
       stroke="#4b0082" />
  </g>
</svg>
