<?xml version="1.0" encoding="UTF-8" standalone="no"?>
<svg
   height="297mm"
   viewBox="0 0 533 754"
   width="210mm"
   version="1.1"
   id="svg1"
   sodipodi:docname="Oeuf108_H20_A4x3.svg"
   inkscape:version="1.3 (1:1.3+202307231459+0e150ed6c4)"
   xmlns:inkscape="http://www.inkscape.org/namespaces/inkscape"
   xmlns:sodipodi="http://sodipodi.sourceforge.net/DTD/sodipodi-0.dtd"
   xmlns="http://www.w3.org/2000/svg"
   xmlns:svg="http://www.w3.org/2000/svg">
  <defs
     id="defs1" />
  <sodipodi:namedview
     id="namedview1"
     pagecolor="#ffffff"
     bordercolor="#000000"
     borderopacity="0.25"
     inkscape:showpageshadow="2"
     inkscape:pageopacity="0.0"
     inkscape:pagecheckerboard="0"
     inkscape:deskcolor="#d1d1d1"
     inkscape:document-units="mm"
     showgrid="false"
     inkscape:zoom="0.25813017"
     inkscape:cx="395.14948"
     inkscape:cy="559.79509"
     inkscape:window-width="1920"
     inkscape:window-height="1007"
     inkscape:window-x="0"
     inkscape:window-y="0"
     inkscape:window-maximized="1"
     inkscape:current-layer="svg1">
    <inkscape:page
       x="0"
       y="0"
       width="533"
       height="754"
       id="page1"
       margin="0"
       bleed="0" />
  </sodipodi:namedview>
  <style
     type="text/css"
     id="style1"><![CDATA[
			path {
				fill: none;
			}
		]]></style>
  <g
     id="page_001"
     transform="translate(54.799979,-0.44999925)">
    <path
       d="M 142.6,712.9 74.3,713.1 49.6,626.7 32.1,530.8 34,424.2 44,315 57.3,218.1 80.7,139.3 43.5,102.4 43.3,51.2 80.2,14 l 51.2,-0.2 37.2,36.9 0.2,51.2 -36.9,37.2 23.9,78.6 14.2,96.9 10.7,109 2.7,106.7 -16.7,95.9 z m 109,-529 18.5,-96.1 22.3,-79.1 52.4,0.7 20,79.7 15.8,96.6 7.2,109.4 -0.5,106.6 -14.9,96.3 -28.6,85.2 47.5,49 -0.9,66.5 -48.9,47.5 -66.5,-0.9 -47.6,-48.9 1,-66.5 48.9,-47.6 -26.2,-86 -12.2,-96.6 2.5,-106.7 z"
       id="coupes_001"
       stroke="#ff0000"
       stroke-width="1.27"
       sodipodi:nodetypes="cccccccccccccccccccccccccccccccccccccccccc" />
    <path
       d="m 131.9,139.1 -51.2,0.2 m 75.1,78.4 -98.5,0.4 M 170,314.6 44,315 M 180.7,423.6 34,424.2 m 149.4,106.1 -151.3,0.5 m 134.6,95.4 -117.1,0.5 m 202,-442.8 129,1.8 m -110.5,-97.9 94.7,1.3 m 23,206 -146.4,-2.1 m 145.9,108.7 -148.4,-2 M 372.4,498 251.1,496.3 m 92.7,86.9 -66.5,-0.9"
       id="plisM_001"
       stroke="#a52a2a"
       stroke-dasharray="4"
       sodipodi:nodetypes="cccccccccccccccccccccccc" />
    <path
       d="m 104.3,137.2 4,4 m 0,-4 -4,4 m 12,35.3 4,4 m 0,-4 -4,4 m -11.7,35.4 4,4 m 0,-4 -4,4 m 0.4,92.9 4,4 m 0,-4 -4,4 m 5.3,50.5 4,4 m 0,-4 -4,4 m -4.9,50.6 4,4 m 0,-4 -4,4 m -1,49.3 4,4 m 0,-4 -4,4 m 1.4,49.4 4,4 m 0,-4 -4,4 m 0.3,91.9 4,4 m 0,-4 -4,4 m 12.4,39.2 4,4 m 0,-4 -4,4 m 195.6,-488.9 4,4 m 0,-4 -4,4 m 1.4,-100.4 4,4 m 0,-4 -4,4 m -2.9,201.6 4,4 m 0,-4 -4,4 m -0.2,49.4 4,4 m 0,-4 -4,4 m -1.3,49.3 4,4 m 0,-4 -4,4 m 6.1,44.3 4,4 m 0,-4 -4,4 m -7.5,44.1 4,4 m 0,-4 -4,4 m -1.2,81.7 4,4 m 0,-4 -4,4"
       display="none"
       id="marqueM_001"
       stroke="#a52a2a" />
  </g>
  <g
     id="page_002"
     transform="rotate(-0.52339952,5573.1455,-3143.586)">
    <path
       d="m 819.9,622.3 -68.3,-0.7 -23.6,-86.7 -16.2,-96.1 -17.4,95.9 -30.9,84.4 -66.4,-2.6 -24,-86.7 -9.6,-96.9 5.3,-106.6 13,-108.8 21,-95.6 24.4,-78.5 52.3,2.1 18,80.2 13.3,97 4.3,109.5 11.3,-109 14.7,-96.8 24.4,-78.5 51.1,0.5 23,78.9 12.8,97.1 9.4,109.2 6.3,-109.5 15.1,-96.7 19.4,-79.8 52.4,-1.2 22.9,79 19.2,95.9 11.1,109.1 3.3,106.6 -11.5,96.7 -25.5,86.3 -66.5,1.4 -29.3,-85 -15.6,-96.2 -18,95.8 z"
       id="coupes_002"
       stroke="#ff0000"
       stroke-width="1.27"
       sodipodi:nodetypes="ccccccccccccccccccccccccccccccccccccccc" />
    <path
       d="m 726.4,223.2 126,1.2 m 9.4,109.2 -146.7,-1.4 m 26,-205.8 98.5,0.9 m -127.8,311.5 3.3,-106.6 m -146.3,-5.9 146.3,5.9 m -3.3,106.6 -148.3,-5.9 m 18.3,-215.4 129,5.2 m -108,-100.8 94.7,3.8 m 165.6,314.5 -151.3,-1.4 m 150,-105.2 1.3,106.6 M 845.1,536 728,534.9 m -33.6,-0.2 -121.3,-4.9 m 438.4,-92.8 -148.4,3.2 m 136.9,93.5 -121.3,2.7 m -16.9,-202.8 146.4,-3.2 m -140.1,-106.3 129,-2.8 m -113.9,-93.9 94.7,-2"
       id="plisM_002"
       stroke="#a52a2a"
       stroke-dasharray="4"
       sodipodi:nodetypes="cccccccccccccccccccccccccccccccccc" />
    <path
       d="m 792.1,276.4 4,4 m 0,-4 -4,4 m -4.7,-58.6 4,4 m 0,-4 -4,4 m -1,105.1 4,4 m 0,-4 -4,4 m -5.4,-161.6 4,4 m 0,-4 -4,4 m 7.3,-52.4 4,4 m 0,-4 -4,4 m 12.2,-43.3 4,4 m 0,-4 -4,4 m -15.7,294.6 4,4 m 0,-4 -4,4 m -73.4,-4.7 4,4 m 0,-4 -4,4 m -73.1,-6.9 4,4 m 0,-4 -4,4 m 1.6,-57.3 4,4 m 0,-4 -4,4 m -4.3,102.6 4,4 m 0,-4 -4,4 m 8.7,-219.8 4,4 m 0,-4 -4,4 m 3.9,-100.3 4,4 m 0,-4 -4,4 m -7.7,356.5 4,4 m 0,-4 -4,4 m 144.9,-48.8 4,4 m 0,-4 -4,4 m 75,-56.6 4,4 m 0,-4 -4,4 m -75.9,144.5 4,4 m 0,-4 -4,4 m -152.7,-7.2 4,4 m 0,-4 -4,4 m 164.6,42.6 4,4 m 0,-4 -4,4 m 138.9,-144.2 4,4 m 0,-4 -4,4 m 7.8,44.1 4,4 m 0,-4 -4,4 m -5.7,44.4 4,4 m 0,-4 -4,4 M 933,330 l 4,4 m 0,-4 -4,4 m -2.4,-113.3 4,4 m 0,-4 -4,4 m -2.1,-100.3 4,4 m 0,-4 -4,4"
       display="none"
       id="marqueM_002"
       stroke="#a52a2a" />
  </g>
  <g
     id="page_003"
     transform="rotate(1.5223258,-480.17028,1911.8296)">
    <path
       d="m 1209.1,619.6 -68.2,-0.1 -24.4,-86.5 -17,-95.9 2.3,-106.7 10.4,-109.1 13.9,-96.9 23.7,-78.7 h 51.1 l 23.6,78.8 13.7,96.9 10.4,109.1 5.3,-109.5 14.2,-96.8 18.8,-80 52.4,-1.6 23.5,78.7 20.1,95.8 12,109 3.7,-109.6 7.8,-97.5 18.8,-80.1 51,-3.1 28.5,77.1 19.6,95.9 17.1,108.3 8.7,106.3 -11.2,96.8 -19,87.8 -68.2,4.2 -29.6,-84.9 -22.9,-94.6 -10.7,96.8 -24.8,86.4 -66.5,2 -30,-84.7 -16.4,-96 -17.2,95.8 z"
       id="coupes_003"
       stroke="#ff0000"
       stroke-width="1.27"
       sodipodi:nodetypes="ccccccccccccccccccccccccccccccccccccccc" />
    <path
       d="m 1101.8,330.4 146.8,0.1 m -136.4,-109.2 126,0.1 m -112.1,-97 98.4,0.1 m 26.3,312.7 -151.3,-0.1 m 149.1,-106.6 2.2,106.7 m 148.4,-4.5 -148.4,4.5 m 144.1,-111.1 4.3,106.6 m -150.6,-102.2 146.3,-4.4 m 0,0 146.5,-9 m -142.8,-100.6 125.7,-7.7 m -117.9,-89.8 98.3,-6.1 m -250.8,108.1 129,-3.9 m -114.8,-92.9 94.7,-2.9 m 187.3,302.1 -150.9,9.3 m 139.7,87.5 -116.8,7.1 m -188.5,5.7 h -117.1 m 272,-3.5 -121.3,3.7"
       id="plisM_003"
       stroke="#a52a2a"
       stroke-dasharray="4"
       sodipodi:nodetypes="cccccccccccccccccccccccccccccccccc" />
    <path
       d="m 1173.2,328.5 4,4 m 0,-4 -4,4 m -1.2,49.3 4,4 m 0,-4 -4,4 m 1.2,-166.5 4,4 m 0,-4 -4,4 m -6.8,-52.4 4,4 m 0,-4 -4,4 m 6.9,-52.5 4,4 m 0,-4 -4,4 m 11.9,-43.3 4,4 m 0,-4 -4,4 m -12.1,348 4,4 m 0,-4 -4,4 m 74.6,-57.3 4,4 m 0,-4 -4,4 m 75.3,47.1 4,4 m 0,-4 -4,4 m 72,-59.5 4,4 m 0,-4 -4,4 m -75.3,-55.1 4,4 m 0,-4 -4,4 m 146.4,-10.7 4,4 m 0,-4 -4,4 m 2.2,49.3 4,4 m 0,-4 -4,4 m -8.8,-166.2 4,4 m 0,-4 -4,4 m -9.9,-52 4,4 m 0,-4 -4,4 m 3.9,-52.7 4,4 m 0,-4 -4,4 m 9.4,-44.1 4,4 m 0,-4 -4,4 m -146.5,139.2 4,4 m 0,-4 -4,4 m -2.9,-100.3 4,4 m 0,-4 -4,4 m 17.7,356.1 4,4 m 0,-4 -4,4 m 141.4,-58.9 4,4 m 0,-4 -4,4 m 5.9,91.8 4,4 m 0,-4 -4,4 m -305.4,5.2 4,4 m 0,-4 -4,4 m 320.2,29.2 4,4 m 0,-4 -4,4 m -167.4,-38.9 4,4 m 0,-4 -4,4 m -140.7,41 4,4 m 0,-4 -4,4"
       display="none"
       id="marqueM_003"
       stroke="#a52a2a" />
  </g>
</svg>
