<?xml version="1.0" encoding="UTF-8" standalone="no"?>
<svg
   height="841.88977pt"
   viewBox="0 0 532.99998 754.00001"
   width="595.27557pt"
   version="1.1"
   id="svg1"
   sodipodi:docname="teteCheval120_H15_lang_A4x2.svg"
   inkscape:version="1.3 (0e150ed6c4, 2023-07-21)"
   xmlns:inkscape="http://www.inkscape.org/namespaces/inkscape"
   xmlns:sodipodi="http://sodipodi.sourceforge.net/DTD/sodipodi-0.dtd"
   xmlns="http://www.w3.org/2000/svg"
   xmlns:svg="http://www.w3.org/2000/svg">
  <defs
     id="defs1" />
  <sodipodi:namedview
     id="namedview1"
     pagecolor="#ffffff"
     bordercolor="#000000"
     borderopacity="0.25"
     inkscape:showpageshadow="2"
     inkscape:pageopacity="0.0"
     inkscape:pagecheckerboard="0"
     inkscape:deskcolor="#d1d1d1"
     inkscape:document-units="mm"
     showgrid="false"
     inkscape:zoom="0.53643695"
     inkscape:cx="754.04947"
     inkscape:cy="560.17767"
     inkscape:window-width="1920"
     inkscape:window-height="1057"
     inkscape:window-x="-8"
     inkscape:window-y="-8"
     inkscape:window-maximized="1"
     inkscape:current-layer="svg1" />
  <style
     type="text/css"
     id="style1"><![CDATA[
			path {
				fill: none;
			}
		]]></style>
  <g
     id="page_001">
    <path
       d="m 352.5,492.2 0.5,0.8 1.1,0.2 1.5,-0.2 0.8,-0.3 1.4,-0.8 0.6,-0.8 v -1 l -0.2,-0.5 -0.6,-0.8 -1,-0.3 -1.5,0.3 -0.9,0.3 -1.3,0.7 -0.7,0.9 0.1,0.9 0.1,0.5 m 4.2,49.4 5.8,3.9 m -6.4,0.2 0.6,-4.1 m -56.3,56.1 -0.4,0.8 -0.7,0.5 -1,0.2 -0.3,-0.1 -0.8,-0.4 -0.5,-0.7 -0.1,-0.9 v -0.3 l 0.5,-0.9 0.6,-0.5 1,-0.1 h 0.3 l 0.8,0.5 0.5,0.7 0.1,1.2 -0.2,1.5 -0.6,1.4 -0.7,0.8 -1,0.1 -0.5,-0.1 -0.9,-0.4 -0.2,-0.6 m -146.6,-105.9 -1.7,4.9 4.3,-1.3 m -2.6,-3.6 1.7,6.1 m 3.9,-7.7 -1.7,4.9 4.3,-1.2 m -2.6,-3.7 1.7,6.1 m -50.4,-32.9 0.3,-0.1 h 0.7 l 0.4,0.2 0.5,0.4 0.5,1.1 -0.1,0.6 -0.1,0.4 -0.4,0.6 -0.6,0.2 H 107 l -1,-0.2 -4,-1.5 1.7,3.8 m 5.9,2.9 -0.9,0.1 -0.8,-0.3 -0.7,-0.7 -0.1,-0.3 -0.1,-0.9 0.3,-0.8 0.7,-0.6 0.3,-0.2 0.9,-0.1 0.8,0.3 0.7,0.8 0.1,0.2 0.1,1 -0.3,0.8 -1,0.7 -1.4,0.6 -1.5,0.4 -1,-0.2 -0.7,-0.7 -0.2,-0.6 -0.1,-0.9 0.4,-0.5 m 176.5,-90.2 -0.1,-0.6 -0.5,-1.2 5.9,2.1 m -2.4,-6.2 0.7,0.6 0.4,0.7 v 1 l -0.1,0.3 -0.6,0.7 -0.8,0.4 h -0.9 l -0.3,-0.1 -0.8,-0.6 -0.3,-0.8 v -0.9 l 0.1,-0.3 0.6,-0.8 0.7,-0.3 1.3,0.1 1.4,0.5 1.3,0.8 0.6,0.8 v 1 l -0.2,0.5 -0.6,0.8 -0.6,0.1 m 29.9,23.1 -0.4,0.5 -0.5,1.2 -2.7,-5.7 m -2.6,6.2 -0.2,-0.9 0.3,-0.8 0.7,-0.7 0.3,-0.1 0.9,-0.2 0.8,0.3 0.7,0.7 0.1,0.3 0.1,0.9 -0.2,0.8 -0.7,0.7 -0.3,0.1 -0.9,0.1 -0.8,-0.2 -0.8,-1 -0.7,-1.3 -0.4,-1.5 0.2,-1.1 0.6,-0.7 0.6,-0.2 0.9,-0.1 0.6,0.4 m 59.1,-9.5 3.1,-4.1 -4.5,-0.1 m 1.4,4.2 0.1,-6.3 m -6.8,6.2 3.1,-6.3 m 1.1,6.3 h -4.2 m -186.2,155.2 -0.1,-0.7 -0.8,-0.5 -0.6,-0.2 -0.9,0.1 -0.8,0.7 -0.7,1.4 -0.4,1.4 -0.1,1.2 0.5,0.8 0.7,0.5 0.3,0.1 1,-0.1 0.7,-0.4 0.6,-0.8 v -0.3 -0.9 l -0.4,-0.7 -0.8,-0.6 h -0.3 -1 l -0.7,0.4 -0.5,0.8 m 5.5,-1.4 0.7,-0.1 1.1,-0.6 -1.7,6.1 m -7.7,-31.6 -1,-5.1 -3.1,3.2 m 4.1,1.9 -4.6,-4.4 m 0.5,8.5 -0.9,-5 -3.1,3.2 m 4,1.8 -4.5,-4.4 m 34.3,-116.6 -0.7,-3 -2.7,0.4 0.3,0.2 0.5,0.8 0.2,0.9 v 0.9 l -0.5,0.7 -0.8,0.5 -0.6,0.2 -0.9,-0.1 -0.7,-0.5 -0.5,-0.8 -0.2,-0.8 v -1 l 0.3,-0.3 0.5,-0.5 m 6.1,7.8 0.5,-0.5 0.1,-0.9 -0.1,-0.6 -0.5,-0.8 -1,-0.4 -1.6,0.1 -1.4,0.3 -1.1,0.6 -0.5,0.7 -0.1,1 0.1,0.3 0.5,0.8 0.7,0.4 1,0.1 0.3,-0.1 0.8,-0.5 0.4,-0.7 0.1,-0.9 -0.1,-0.3 -0.5,-0.8 -0.7,-0.5 -0.9,-0.1 m 8.4,-0.4 2.3,1.9 2,-2 -0.5,0.1 -0.9,-0.3 -0.7,-0.6 -0.5,-0.8 -0.1,-0.8 0.3,-0.9 0.4,-0.5 0.8,-0.5 0.8,-0.1 0.9,0.3 0.7,0.6 0.6,0.8 v 0.4 l -0.1,0.6 m -10.2,-1.5 2.4,1.9 1.9,-2 -0.5,0.1 -0.8,-0.3 -0.8,-0.6 -0.5,-0.8 -0.1,-0.8 0.3,-0.9 0.4,-0.5 0.8,-0.5 0.9,-0.1 0.8,0.3 0.8,0.6 0.5,0.8 v 0.4 l -0.1,0.6 M 221,387 l -1.4,-2.6 -2.6,1.1 0.5,0.1 0.7,0.6 0.4,0.8 0.2,0.9 -0.3,0.9 -0.6,0.7 -0.5,0.2 -1,0.2 -0.8,-0.2 -0.7,-0.7 -0.4,-0.7 -0.2,-1 0.1,-0.4 0.4,-0.5 m 8.8,5.3 -1.5,-2.6 -2.5,1 0.4,0.1 0.7,0.7 0.5,0.8 0.1,0.9 -0.2,0.8 -0.6,0.7 -0.6,0.3 -0.9,0.2 -0.8,-0.2 -0.7,-0.7 -0.4,-0.8 -0.2,-0.9 0.1,-0.4 0.4,-0.6 m 3.7,-61.5 0.9,-2.9 -2.5,-1 0.2,0.3 v 1 l -0.2,0.8 -0.6,0.8 -0.7,0.4 h -1 l -0.5,-0.2 -0.8,-0.5 -0.4,-0.8 v -0.9 l 0.2,-0.9 0.6,-0.7 0.4,-0.2 0.6,-0.1 m 3.1,7.1 -0.9,3.2 -1.8,-2.4 -0.3,0.8 -0.4,0.5 -0.4,0.2 h -1 l -0.5,-0.2 -0.8,-0.5 -0.4,-0.8 v -0.9 l 0.3,-0.9 0.5,-0.7 0.4,-0.2 0.6,-0.1 m 47.8,-112.7 -0.6,0.4 -0.8,1 -0.8,-6.3 m -4,6.2 0.4,0.6 0.9,0.1 h 0.6 l 0.9,-0.4 0.5,-1 0.1,-1.5 -0.2,-1.5 -0.5,-1.2 -0.6,-0.5 -1,-0.2 -0.3,0.1 -0.8,0.4 -0.5,0.6 -0.2,1 v 0.3 l 0.4,0.8 0.7,0.5 0.9,0.2 h 0.3 l 0.9,-0.4 0.5,-0.7 0.2,-0.9 m 53.4,110.5 0.5,5.2 3.4,-2.9 m -3.9,-2.3 4.1,4.8 m 1.1,-9.1 1.8,6.8 m -5,-4 3.2,-2.8 m 35.5,-24.6 0.3,-0.6 0.3,-1.3 3.4,5.4 m 0.1,-7.9 -0.3,5.2 3.8,-2.5 m -3.5,-2.7 3.3,5.3 m 29.1,-36.4 1.6,4.9 2.7,-3.6 m -4.3,-1.3 5.1,3.8 m -2.6,-7.1 -0.2,0.9 0.3,0.6 0.4,0.4 0.7,0.1 0.6,-0.3 1,-0.8 0.7,-0.5 0.9,-0.2 0.6,0.2 0.8,0.5 0.3,0.6 v 0.4 l -0.3,0.9 -0.7,1 -0.8,0.5 -0.4,0.1 -0.6,-0.1 -0.8,-0.6 -0.3,-0.6 -0.1,-0.8 0.3,-0.9 0.5,-1.1 0.1,-0.7 -0.3,-0.6 -0.5,-0.4 -0.7,-0.1 -0.7,0.6 -0.8,1.1 m -168.8,-29.3 0.6,-5.1 -4,2.2 m 3.4,2.9 -3.1,-5.5 m -3.7,6.8 -0.2,-0.9 0.2,-0.9 0.7,-0.7 0.2,-0.1 1,-0.2 0.8,0.3 0.7,0.6 0.1,0.3 0.2,0.9 -0.2,0.8 -0.7,0.7 -0.2,0.2 -1,0.1 -0.8,-0.2 -0.8,-0.9 -0.7,-1.3 -0.5,-1.5 0.1,-1.1 0.6,-0.7 0.6,-0.2 0.9,-0.2 0.5,0.4 m -16.9,101.6 -1,2.9 2.4,1.2 -0.2,-0.4 v -1 l 0.4,-0.8 0.5,-0.8 0.8,-0.3 h 1 l 0.5,0.2 0.8,0.6 0.3,0.8 v 0.9 l -0.3,0.9 -0.6,0.7 -0.4,0.2 -0.6,0.1 m -2.8,-7.4 1.1,-3.1 1.7,2.6 0.3,-0.9 0.5,-0.4 0.3,-0.2 h 1 l 0.6,0.2 0.7,0.6 0.4,0.8 -0.1,0.9 -0.3,0.9 -0.6,0.7 -0.4,0.2 -0.6,0.1 m -12.8,5.5 -0.9,-2.9 -2.7,0.5 0.4,0.2 0.5,0.8 0.3,0.9 v 0.9 l -0.4,0.8 -0.8,0.5 -0.6,0.2 h -0.9 l -0.8,-0.4 -0.5,-0.8 -0.3,-0.8 v -1 l 0.2,-0.4 0.5,-0.4 m 5.6,7.9 h -0.9 l -0.8,-0.4 -0.5,-0.8 -0.1,-0.3 v -0.9 l 0.4,-0.8 0.8,-0.5 0.2,-0.1 h 1 l 0.7,0.4 0.6,0.8 0.1,0.3 v 0.9 l -0.4,0.8 -1.1,0.6 -1.4,0.5 -1.5,0.1 -1.1,-0.3 -0.5,-0.8 -0.2,-0.5 v -1 l 0.5,-0.4 m -9.3,-103.8 2.9,0.9 1.1,-2.5 -0.4,0.2 -1,0.1 -0.8,-0.3 -0.8,-0.6 -0.4,-0.7 v -1 l 0.2,-0.6 0.6,-0.7 0.7,-0.4 h 1 l 0.8,0.3 0.8,0.5 0.2,0.4 0.1,0.7 m -8.1,2.7 h 1 l 0.4,-0.5 0.2,-0.6 -0.1,-0.6 -0.5,-0.5 -1,-0.6 -0.8,-0.6 -0.4,-0.8 -0.1,-0.6 0.3,-0.9 0.5,-0.5 0.4,-0.1 0.9,-0.1 1.1,0.4 0.8,0.6 0.2,0.4 0.1,0.6 -0.3,0.9 -0.4,0.5 -0.8,0.3 h -0.9 -1.3 l -0.6,0.1 -0.5,0.4 -0.2,0.6 0.1,0.7 0.8,0.5 1.3,0.5 m -59.2,201.6 2.9,-0.9 -0.5,-2.7 -0.2,0.4 -0.8,0.5 -0.9,0.3 h -0.9 l -0.8,-0.4 -0.5,-0.8 -0.2,-0.6 v -0.9 l 0.4,-0.8 0.8,-0.5 0.8,-0.3 h 1 l 0.4,0.2 0.4,0.5 m -7.9,5.6 v -0.9 l 0.4,-0.8 0.8,-0.5 0.3,-0.1 h 0.9 l 0.8,0.4 0.5,0.8 0.1,0.3 v 0.9 l -0.4,0.8 -0.8,0.5 -0.3,0.1 h -0.9 l -0.8,-0.4 -0.6,-1.1 -0.4,-1.4 -0.2,-1.5 0.3,-1 0.8,-0.6 0.5,-0.2 h 1 l 0.4,0.5 m 53.5,5.5 2.8,1 1.3,-2.4 -0.4,0.2 -1,-0.1 -0.8,-0.3 -0.8,-0.6 -0.3,-0.7 v -1 l 0.2,-0.6 0.6,-0.7 0.8,-0.3 h 0.9 l 0.9,0.3 0.7,0.6 0.2,0.4 0.1,0.6 m -9.9,0.9 0.1,0.6 0.7,0.6 0.6,0.2 1,0.1 0.8,-0.7 0.8,-1.3 0.5,-1.4 0.2,-1.2 -0.4,-0.8 -0.7,-0.6 -0.3,-0.1 h -0.9 l -0.8,0.4 -0.6,0.7 -0.1,0.3 v 0.9 l 0.3,0.8 0.8,0.6 0.2,0.1 h 1 l 0.8,-0.3 0.5,-0.8 M 132.1,316.2 132,315.9 v -0.7 l 0.2,-0.3 0.5,-0.5 1.1,-0.4 h 0.7 l 0.4,0.2 0.4,0.5 0.3,0.5 -0.1,0.7 -0.3,1.1 -1.8,3.8 4,-1.4 m 3.3,-5.7 v 0.9 l -0.3,0.8 -0.8,0.6 -0.3,0.1 h -0.9 l -0.8,-0.3 -0.6,-0.8 -0.1,-0.3 v -0.9 l 0.3,-0.8 0.8,-0.6 0.3,-0.1 h 0.9 l 0.8,0.4 0.7,1 0.5,1.4 0.2,1.5 -0.2,1 -0.8,0.6 -0.5,0.2 -1,0.1 -0.5,-0.5 M 88.7,306.4 h -5.1 l 2.6,3.7 m 2.5,-3.7 -5.1,3.7 m 8,1.9 0.3,-0.6 -0.3,-0.9 -0.3,-0.5 -0.8,-0.5 h -1.1 l -1.4,0.7 -1.2,0.8 -0.8,1 -0.1,0.8 0.3,0.9 0.2,0.3 0.7,0.5 0.9,0.2 0.9,-0.3 0.2,-0.2 0.6,-0.8 0.1,-0.8 -0.3,-0.9 -0.2,-0.3 -0.7,-0.5 -0.9,-0.2 -0.9,0.3 m 302,-137.5 0.1,0.3 0.1,0.6 -0.2,0.4 -0.4,0.6 -1,0.5 -0.7,0.1 -0.4,-0.2 -0.5,-0.3 -0.3,-0.6 v -0.6 l 0.1,-1.1 1.2,-4.1 -3.7,2 m 0.4,7 0.6,-0.7 0.1,-1.1 -0.4,-1.5 -0.5,-0.8 -0.9,-1.1 -1,-0.6 -0.9,0.2 -0.5,0.3 -0.7,0.7 -0.1,1.1 0.4,1.4 0.5,0.8 1,1.2 0.9,0.5 0.9,-0.2 0.4,-0.2 m 57.2,48.8 -0.3,0.1 -0.6,-0.2 -0.3,-0.3 -0.4,-0.5 -0.2,-1.2 0.2,-0.7 0.3,-0.3 0.5,-0.4 0.6,-0.1 0.6,0.2 1,0.5 3.4,2.5 -0.6,-4.1 m -6.6,-1.7 0.4,0.8 0.7,0.2 0.6,-0.1 0.5,-0.3 0.2,-0.7 0.1,-1.2 0.2,-0.9 0.5,-0.7 0.6,-0.4 0.9,-0.1 0.6,0.2 0.3,0.2 0.5,0.9 0.1,1.2 -0.1,0.9 -0.3,0.3 -0.5,0.4 -0.9,0.2 -0.7,-0.3 -0.6,-0.5 -0.5,-0.8 -0.4,-1.2 -0.4,-0.5 -0.7,-0.2 -0.6,0.1 -0.5,0.4 -0.2,0.9 0.2,1.3 m -10.3,13.3 v -0.3 l 0.3,-0.6 0.3,-0.3 0.6,-0.3 h 1.2 l 0.6,0.3 0.3,0.3 0.3,0.6 v 0.6 l -0.3,0.6 -0.6,0.9 -3,3 h 4.2 m 5.2,-6.4 -3,6.3 m -1.2,-6.3 h 4.2 m -213.3,403.9 1.4,4.9 2.8,-3.5 m -4.2,-1.4 4.9,3.9 m -0.9,-8.7 -1.9,2.3 1.9,1.9 v -0.4 l 0.3,-0.9 0.6,-0.7 0.8,-0.5 0.8,-0.1 0.9,0.3 0.5,0.4 0.5,0.8 0.1,0.9 -0.4,0.9 -0.5,0.7 -0.8,0.5 h -0.5 l -0.6,-0.1 m -48.8,19.2 -5,1.4 3.6,2.8 m 1.4,-4.2 -3.9,4.9 m 5.4,-1.7 0.2,-0.3 0.6,-0.3 h 0.4 l 0.7,0.1 0.9,0.8 0.3,0.6 v 0.4 l -0.1,0.7 -0.4,0.4 -0.6,0.3 -1,0.3 -4.2,0.5 3.3,2.6 m 0.8,-79.1 0.5,0.4 h 1 l 0.5,-0.3 0.8,-0.6 0.2,-1 -0.3,-1.5 -0.6,-1.4 -0.7,-1 -0.8,-0.4 -0.9,0.1 -0.3,0.1 -0.7,0.6 -0.4,0.8 0.1,1 0.1,0.2 0.6,0.8 0.8,0.3 1,-0.1 0.2,-0.1 0.8,-0.6 0.3,-0.8 -0.1,-0.9 m -3.5,4.4 -0.5,0.5 -0.5,1.2 -2.3,-5.8 m -21.7,34.5 -4.9,-1.7 1.2,4.3 m 3.7,-2.6 -6.1,1.8 m 6.8,4.5 0.5,-0.4 0.1,-1 -0.2,-0.6 -0.5,-0.8 -1.1,-0.3 -1.5,0.1 -1.4,0.4 -1.1,0.7 -0.4,0.7 -0.1,0.9 0.1,0.3 0.6,0.8 0.7,0.4 1,0.1 0.2,-0.1 0.8,-0.5 0.4,-0.8 0.1,-0.9 -0.1,-0.3 -0.5,-0.8 -0.8,-0.4 -0.9,-0.1 M 378.3,468 l -1,-0.2 -0.9,0.6 -1,1.2 -0.4,0.8 -0.4,1.4 0.1,1.1 0.7,0.7 0.5,0.3 1,0.1 0.9,-0.5 1,-1.2 0.4,-0.8 0.4,-1.5 -0.1,-1.1 -0.7,-0.6 -0.4,-0.2 m 43.3,-72.1 -0.7,0.2 -1,0.7 1.1,-6.2 m -5.4,5.8 3.7,-3.6 -4.4,-0.8 m 0.7,4.4 1.1,-6.2 m -3.5,50.8 v -0.7 l -0.5,-1.2 5.8,2.7 m -4,-7 -1.2,2.7 2.3,1.4 -0.1,-0.4 0.1,-1 0.3,-0.8 0.7,-0.7 0.8,-0.3 0.9,0.1 0.6,0.3 0.7,0.6 0.3,0.8 -0.2,1 -0.3,0.8 -0.7,0.7 -0.4,0.1 -0.6,0.1 m 25.6,233.8 -0.2,-0.2 -0.3,-0.7 v -0.4 l 0.2,-0.6 0.9,-0.9 0.6,-0.2 h 0.4 l 0.7,0.2 0.4,0.4 0.2,0.6 0.3,1.1 v 4.2 l 2.9,-3 m -0.9,-8.1 2.5,6.5 m -5.4,-3.5 2.9,-3 m 12.1,-30.2 3.5,3.8 0.9,-4.3 m -4.4,0.5 6.2,1.4 m -5.2,-5.4 0.1,0.9 0.5,0.4 0.6,0.2 0.6,-0.2 0.5,-0.5 0.5,-1.1 0.5,-0.8 0.7,-0.5 0.7,-0.2 0.8,0.2 0.6,0.5 0.2,0.3 0.1,1 -0.3,1.1 -0.5,0.9 -0.3,0.2 -0.7,0.1 -0.8,-0.2 -0.6,-0.4 -0.4,-0.7 -0.1,-0.9 -0.1,-1.3 -0.1,-0.6 -0.5,-0.4 -0.6,-0.2 -0.7,0.2 -0.5,0.8 -0.3,1.3 m -75.3,-72.3 -2.2,-6.6 m 5.2,3.6 -3,3 m 50.9,17.4 -0.7,-0.2 -1.2,-0.1 4.5,-4.3 m -8,1 2.1,2.2 2.2,-1.6 h -0.5 l -0.8,-0.5 -0.6,-0.6 -0.4,-0.9 v -0.8 l 0.5,-0.9 0.4,-0.4 0.9,-0.4 h 0.8 l 0.8,0.5 0.7,0.6 0.4,0.9 -0.1,0.4 -0.2,0.6 m -32.5,129.6 -0.6,-0.3 -0.9,0.3 -0.5,0.4 -0.6,0.7 v 1.1 l 0.7,1.4 0.8,1.2 1,0.8 0.8,0.2 0.9,-0.3 0.2,-0.2 0.6,-0.7 0.2,-0.9 -0.3,-0.9 -0.2,-0.2 -0.8,-0.6 -0.8,-0.1 -0.9,0.2 -0.2,0.2 -0.6,0.8 -0.2,0.8 0.3,0.9 m 3.2,-7.4 -0.6,0.8 0.1,1.1 0.6,1.4 0.5,0.7 1.1,1.1 1,0.4 0.9,-0.3 0.5,-0.4 0.6,-0.7 -0.1,-1.1 -0.6,-1.4 -0.5,-0.7 -1.1,-1.1 -1,-0.4 -0.9,0.3 -0.4,0.2 m -66.2,-11.5 -4.9,1.6 3.7,2.7 m 1.2,-4.3 -3.7,5.1 m 8.7,-1.3 -2.4,-1.8 -1.8,2 0.4,-0.1 0.9,0.3 0.7,0.6 0.6,0.7 0.1,0.9 -0.3,0.9 -0.4,0.5 -0.7,0.5 -0.9,0.1 -0.9,-0.3 -0.7,-0.5 -0.6,-0.8 v -0.4 l 0.1,-0.7 m -23.3,-52.8 -0.6,-0.7 -0.2,-0.8 0.2,-1 0.2,-0.2 0.7,-0.6 0.8,-0.2 1,0.2 0.2,0.2 0.6,0.7 0.2,0.8 -0.2,0.9 -0.2,0.3 -0.7,0.6 -0.8,0.2 -1.2,-0.4 -1.3,-0.8 -1.1,-1 -0.4,-1 0.2,-0.9 0.3,-0.5 0.7,-0.6 h 0.7 M 452.9,152 v 0.3 l -0.2,0.6 -0.2,0.4 -0.6,0.4 -1.2,0.2 -0.6,-0.2 -0.3,-0.3 -0.4,-0.5 -0.1,-0.6 0.2,-0.6 0.4,-1 2.5,-3.5 -4.2,0.7 m -3.6,7 2.9,-0.5 -0.1,-2.7 -0.2,0.3 -0.9,0.5 -0.9,0.1 -0.9,-0.1 -0.7,-0.5 -0.4,-0.9 -0.1,-0.6 0.1,-0.9 0.5,-0.7 0.9,-0.4 0.8,-0.2 1,0.2 0.3,0.2 0.4,0.6 m 25,14.5 0.4,3 h 2.7 l -0.3,-0.3 -0.4,-0.8 -0.1,-0.9 0.2,-0.9 0.5,-0.7 0.8,-0.4 0.6,-0.1 1,0.2 0.6,0.6 0.4,0.8 0.1,0.9 -0.2,0.9 -0.2,0.4 -0.6,0.3 m -5.9,-6.5 0.4,0.9 1,0.5 1.5,0.1 0.9,-0.1 1.5,-0.5 0.8,-0.7 0.2,-0.9 -0.1,-0.6 -0.4,-0.9 -0.9,-0.5 -1.6,-0.1 -0.9,0.1 -1.4,0.5 -0.8,0.7 -0.2,0.9 v 0.5 m -13.9,24.7 -2.7,1.4 1,2.5 0.1,-0.4 0.7,-0.7 0.8,-0.4 0.9,-0.1 0.8,0.2 0.7,0.7 0.3,0.5 0.1,1 -0.3,0.8 -0.6,0.7 -0.8,0.4 -1,0.1 -0.4,-0.1 -0.5,-0.4 m 3,-5.7 0.4,-0.5 0.4,-1.2 2.9,5.6 m -376.6,-33.5 1.2,-5 -4.2,1.7 m 3,3.3 -2.4,-5.8 m -1.7,7.5 0.7,-0.7 0.2,-1 -0.3,-1.5 -0.3,-0.9 -0.9,-1.2 -0.9,-0.6 h -0.9 l -0.6,0.2 -0.7,0.7 -0.2,1 0.3,1.5 0.3,0.9 0.9,1.2 0.9,0.6 h 0.9 l 0.4,-0.2 m -39.6,115.7 -4.3,2.9 4.2,1.6 m 0.1,-4.5 -2.2,5.9 m 4.6,-3.3 0.1,-0.3 0.5,-0.4 0.4,-0.2 0.7,-0.1 1.1,0.4 0.4,0.5 0.2,0.4 0.1,0.7 -0.2,0.6 -0.5,0.4 -0.9,0.6 -3.9,1.8 4,1.5 m -6.2,-41.6 -2.6,-4.5 -1.8,4.1 m 4.4,0.4 -5.7,-2.6 m 4.3,5.5 -1.3,3 -1.5,-2.6 -0.3,0.8 -0.5,0.4 -0.4,0.2 -1,-0.1 -0.5,-0.2 -0.7,-0.7 -0.3,-0.8 0.1,-0.9 0.3,-0.8 0.7,-0.7 0.4,-0.2 h 0.6 m 115.1,-61.8 -0.2,-3.3 2.5,1.7 v -0.9 l 0.2,-0.6 0.3,-0.3 0.9,-0.4 h 0.6 l 0.9,0.2 0.6,0.6 0.4,0.9 v 0.9 l -0.2,0.9 -0.3,0.3 -0.6,0.3 m -5.6,-8.2 4.4,2.8 -0.3,-4.5 m -4.1,1.7 6.3,-0.3 m -39.4,-48.3 -0.7,3.2 -2,-2.3 -0.2,0.9 -0.4,0.5 -0.4,0.2 -0.9,0.1 -0.6,-0.1 -0.8,-0.5 -0.5,-0.7 -0.1,-1 0.2,-0.8 0.5,-0.8 0.4,-0.3 0.7,-0.1 m 2.4,5.9 0.1,0.7 0.7,1.1 -6.1,-1.4 m 27.2,-11.6 -1.9,-2.8 3,0.2 -0.5,-0.7 -0.1,-0.7 0.1,-0.4 0.6,-0.8 0.5,-0.3 0.9,-0.3 0.8,0.2 0.8,0.6 0.5,0.7 0.2,0.9 v 0.5 l -0.4,0.5 m -8.2,-3.1 0.8,0.6 h 1.1 l 1.4,-0.6 0.7,-0.5 1.1,-1.1 0.4,-1 -0.2,-0.9 -0.4,-0.5 -0.7,-0.5 h -1.1 l -1.4,0.5 -0.8,0.5 -1,1.1 -0.5,1 0.3,0.9 0.2,0.4 m -17.2,-64.2 -0.7,-0.1 -1.2,0.2 3.4,-5.2 m -6,3.8 0.9,0.2 1,-0.4 1.1,-1.1 0.5,-0.7 0.6,-1.4 -0.1,-1.1 -0.5,-0.8 -0.5,-0.3 -0.9,-0.3 -1,0.5 -1.1,1 -0.5,0.8 -0.6,1.4 v 1.1 l 0.6,0.7 0.4,0.3 m 14.4,23.8 -0.1,-0.6 -0.4,-1.2 5.7,2.6 m -4.1,-3.1 -0.1,-0.7 -0.4,-1.2 5.7,2.7 m -29.6,28.5 0.7,0.1 1.2,-0.2 -3.6,5.1 m 5.2,-4.3 2.7,2 -2.9,0.9 0.7,0.5 0.3,0.6 0.1,0.4 -0.3,0.9 -0.3,0.5 -0.8,0.6 -0.8,0.1 -0.9,-0.3 -0.8,-0.5 -0.5,-0.8 -0.1,-0.4 0.1,-0.7 m -15,-52.6 v 0.6 l 0.4,1.2 -5.6,-2.9 m 4.4,5.7 0.1,-1 -0.5,-0.9 -1.2,-1 -0.8,-0.4 -1.4,-0.4 -1.1,0.1 -0.7,0.6 -0.3,0.6 -0.1,0.9 0.5,0.9 1.2,1 0.8,0.4 1.4,0.5 1.1,-0.2 0.7,-0.6 0.2,-0.4 m -5.9,24.6 0.7,0.2 1.2,-0.1 -4.3,4.7 m 4.7,-2.6 0.2,-0.2 0.6,-0.2 h 0.4 l 0.7,0.1 0.9,0.9 0.2,0.6 v 0.4 l -0.2,0.7 -0.4,0.4 -0.6,0.2 -1.1,0.3 -4.2,0.1 3.1,2.9 m -46.5,105.8 -4.6,2.4 4.1,2 m 0.5,-4.4 -2.8,5.6 m 4.4,-3.1 h 0.7 l 1.2,-0.4 -2.8,5.6 m 12.2,-19.5 -2.5,2.2 -0.2,-3 -0.7,0.6 -0.6,0.1 h -0.5 l -0.8,-0.5 -0.4,-0.4 -0.4,-0.9 0.1,-0.8 0.5,-0.8 0.7,-0.6 0.8,-0.4 h 0.5 l 0.6,0.3 m -5,8.3 -0.4,-0.8 0.1,-0.9 0.5,-0.8 0.2,-0.2 0.9,-0.4 0.8,0.1 0.8,0.5 0.2,0.2 0.4,0.9 -0.1,0.8 -0.4,0.8 -0.3,0.2 -0.8,0.4 -0.9,-0.1 -1,-0.7 -1,-1.1 -0.8,-1.3 -0.1,-1.1 0.5,-0.8 0.4,-0.4 0.9,-0.4 0.6,0.3 m 285.6,-26.5 -0.3,0.1 -0.6,-0.1 -0.4,-0.2 -0.5,-0.4 -0.4,-1.2 0.1,-0.6 0.2,-0.4 0.5,-0.5 0.6,-0.2 0.6,0.1 1.1,0.3 3.8,1.9 -1.4,-4 m -4.9,0.5 -0.5,-0.4 -1.2,-0.6 6,-2 m -59.4,21.5 0.3,-0.1 h 0.7 l 0.4,0.1 0.5,0.4 0.6,1.1 v 0.7 l -0.2,0.4 -0.4,0.5 -0.5,0.3 h -0.7 l -1,-0.1 -4.1,-1.4 1.9,3.8 m 5,-0.7 0.3,-0.1 h 0.7 l 0.4,0.1 0.5,0.4 0.6,1.1 v 0.6 l -0.2,0.4 -0.4,0.6 -0.5,0.3 h -0.7 l -1,-0.2 -4.1,-1.3 1.9,3.7 m 2.2,-58.7 0.2,0.2 0.3,0.6 0.1,0.4 -0.1,0.7 -0.7,0.9 -0.6,0.3 -0.5,0.1 -0.6,-0.1 -0.5,-0.4 -0.3,-0.6 -0.4,-1 -0.6,-4.2 -2.5,3.4 m 4,5.1 -1.9,2.7 -0.9,-2.9 -0.5,0.7 -0.6,0.3 -0.4,0.1 -0.9,-0.3 -0.5,-0.4 -0.6,-0.7 -0.1,-0.9 0.3,-0.9 0.5,-0.7 0.8,-0.5 0.4,-0.1 0.7,0.1 m 32.6,-12.1 -3.2,-0.4 2,-2.2 -0.9,-0.1 -0.6,-0.3 -0.2,-0.4 -0.2,-0.9 v -0.6 l 0.4,-0.8 0.7,-0.6 0.9,-0.2 0.9,0.1 0.9,0.4 0.2,0.3 0.3,0.7"
       id="nums_001"
       stroke="#000000"
       stroke-width="1" />
    <path
       d="m 301.5,346.7 8.7,20.5 -13.5,37.8 -19.6,10.5 65.6,-32.1 11.9,-14.8 28.5,0.5 11.5,15.2 24.4,-10.9 4.8,0.8 19.3,18.6 3.7,27.7 -24.1,52.4 -23.5,15.2 -48.1,-24.9 19.4,10 -1.6,41.2 8.9,42.5 -17.7,17.3 43.3,-42.2 72.1,76 -12.3,55.4 0.4,21.1 -2.4,2.4 -21.1,0.3 -4.5,21.5 -32.1,22.7 -21.8,-3 -86.2,-63.7 34.7,-55.9 -17,12.4 -35.7,-6 -12.1,-17.2 -3.5,28.2 -37.1,45.8 -26.8,9.3 -41.4,-33 -14.9,-52.4 74.5,-30.4 -22.7,9.2 -54.9,-30.7 50.7,-52.2 -20.9,21.5 -49.1,-1.6 -21.3,-11.3 -18.7,-42.3 6.1,-23.4 59.7,-18.7 50.8,18.7 -17.4,-8.4 -6.8,-29 11.8,-15.2 44.9,35.3 -30.4,-23.9 v 0 l 2.8,-26.1 24,-77.7 -21.1,68.2 v 0 l -6.7,8.3 -18.5,-9.1 -10.2,-32.9 10.2,-17.8 -79,28.9 L 80.2,334.2 62.5,310 67.4,291.3 51,301.1 23.8,290.7 18,272.5 l 29.9,-67 -19,7.2 -2.7,-1.3 -5.4,-19.6 38,-33.4 15,-22.3 4.6,-1.8 26.3,5.4 -11.5,-16.8 0.6,-3 17.8,-10.1 -17.9,5.7 -2,-1.5 L 91.3,95.3 69.7,95.8 67.2,93.5 66.1,72 58.8,53.7 73.3,26 l 19.3,-4.3 47.3,31.4 7.1,20.1 -1.4,3.1 -20,7.3 30.8,46.1 16,18.8 2.7,48 -13.9,20.5 42.2,13.6 30.3,-16.7 50.4,-6.4 -21.4,-9.1 -19.4,-38.6 5.5,-22.6 -5.2,-18.2 16.9,-22.5 18.9,-0.3 18.4,-13.2 3.7,0.4 15.3,16.7 20.9,15.1 16.5,48.6 -7.5,24.7 69.1,-37.2 62.2,-10.3 4.7,40.6 -10.8,22.3 -3.9,2 -24.4,-4.4 17.5,15.5 0.5,3.9 -12.2,19.9 h -33.3 l 4.5,19.2 -18.5,25.1 -19.6,1.4 L 341,313 Z"
       id="coupes_001"
       stroke="#ff0000"
       stroke-width="1.27"
       sodipodi:nodetypes="cccccccccccccccccccccccccccccccccccccccccccccccccccccccccccccccccccccccccccccccccccccccccccccccccccccccccccccccccccccccccccccccc" />
    <path
       d="m 351.1,463.2 -161.8,28.6 m 87.8,-76.3 74,47.7 M 216.2,565.5 189.3,491.8 m 0,0 6.6,-57.1 m 0,0 81.2,-19.2 m 91.8,98.9 -152.7,51.1 m 134.9,-102.3 17.8,51.2 m -173,-79.7 32.5,-17.3 m 0,0 48.7,-1.9 M 265.4,598 216.2,565.5 M 368.9,514.4 265.4,598 m 94.7,-23.8 -94.7,23.8 m 103.5,-83.6 -8.8,59.8 M 330.2,608.8 265.4,598 m 94.7,-23.8 -29.9,34.6 m -140.9,-117 -70,19.9 m 0,0 -33.9,-77 m 0,0 h 110.5 m 105.6,-88 -24.4,68.8 m -48.7,1.9 -3.6,-127.7 m 0,0 76.7,57 m 41.2,36.7 8.4,79.8 m 43.5,-78.9 -43.5,78.9 M 195.9,434.7 183.5,382.1 m 44.9,35.3 -27.6,-50 m 24,-77.7 8.9,-75.8 m 0,0 67.8,132.8 M 284.1,207.5 301.5,346.7 M 284.1,207.5 341,313 M 346.7,188.5 341,313 m 5.7,-124.5 35.8,98 m 33.6,-45.7 -33.6,45.7 m -157.7,3.2 -21.4,-59.1 m 21.4,59.1 -27.8,76.5 m 0,0 6.4,-135.6 M 197,366.2 178.5,306.4 m 0,0 24.9,-75.8 M 178.5,306.4 161.2,217 M 99.5,335.3 161.2,217 m -61.7,118.3 -32.1,-44 m 0,0 93.8,-74.3 m 282.4,-15.5 -27.5,39.3 m -0.3,-89.5 27.8,50.2 m 0,0 5.8,39.3 M 198,681.3 216.2,565.5 M 265.4,598 198,681.3 m -41.4,-33 59.6,-82.8 m 178.4,-181.2 48.5,8.5 m 0,0 -43.9,95.3 m 40.9,199.1 -109.9,-78.4 m 29.9,-34.6 80,113 m -80,-113 103.1,89.2 M 360.1,574.2 475.5,608 M 381.7,728.4 330.2,608.8 M 478,141 443.6,201.5 m 39.1,-19.9 -39.1,19.9 M 67.4,291.3 104.7,139.7 m 0,0 56.5,77.3 M 67.4,291.3 47.9,205.5 m 0,0 10.9,-47.1 M 67.4,291.3 18,272.5 m 138.4,-142.8 4.8,87.3 m -56.5,-77.3 6.9,-29.9 m 0,0 44.8,19.9 m -44.8,-19.9 -19,-88.1 m 0,0 33,61.9 M 91.3,95.3 92.6,21.7 m 19,88.1 L 91.3,95.3 M 66.1,72 92.6,21.7 M 47.9,205.5 20.8,191.8 m 263.3,15.7 32.7,-107.4 m -32.7,107.4 -35.3,-70.3 m 0,0 68,-37.1 m -68,37.1 30.6,-41"
       id="plisM_001"
       stroke="#a52a2a"
       stroke-dasharray="4" />
    <path
       d="m 189.3,491.8 87.8,-76.3 m 74,47.7 -134.9,102.3 m -96.9,-53.8 76.6,-77 m 32.5,-17.3 73.1,-70.7 m 41.2,36.7 51.9,0.9 M 216.2,565.5 138.6,544 m 145.5,-336.5 62.6,-19 m 0,0 69.4,52.3 m -69.4,-52.3 96.9,13 m -49,182.8 4.6,103.8 m 64,175.3 -23.1,23.8 m 0,0 -58.4,41.2 M 47.9,205.5 104.7,139.7 m -45.9,18.7 45.9,-18.7 m 0,0 51.7,-10 m -44.8,-19.9 14,-26.2 M 139.9,53.1 125.6,83.6 M 91.3,95.3 66.1,72 m 250.7,28.1 29.9,88.4 m -67.3,-92.3 37.4,3.9"
       id="plisV_001"
       stroke="#008000"
       stroke-dasharray="4, 1, 1, 1"
       stroke-width="1.27" />
    <path
       d="m 231.2,451.6 4,4 m 0,-4 -4,4 m 50.4,56.7 4,4 m 0,-4 -4,4 m -126,-45.1 4,4 m 0,-4 -4,4 m 107.3,-95.1 4,4 m 0,-4 -4,4 m 103.7,-2.2 4,4 m 0,-4 -4,4 m -191.2,166.8 4,4 m 0,-4 -4,4 m 138,-360.7 4,4 m 0,-4 -4,4 m 66,12.7 4,4 m 0,-4 -4,4 m 13.8,-23.7 4,4 m 0,-4 -4,4 m 1.7,237.2 4,4 m 0,-4 -4,4 m 54.7,235.1 4,4 m 0,-4 -4,4 m -40.7,28.5 4,4 m 0,-4 -4,4 M 74.3,170.6 l 4,4 m 0,-4 -4,4 m 5.4,-27.5 4,4 m 0,-4 -4,4 m 48.8,-18.4 4,4 m 0,-4 -4,4 m -11.9,-42 4,4 m 0,-4 -4,4 m 14.1,-32.3 4,4 m 0,-4 -4,4 m -54,11.2 4,4 m 0,-4 -4,4 m 253.1,56.7 4,4 m 0,-4 -4,4 m -33.7,-50.1 4,4 m 0,-4 -4,4"
       id="marqueV_001"
       stroke="#008000" />
    <path
       d="m 249.3,342.4 1.5,-0.7 2.2,-2.3 v 15.8"
       id="titre_1"
       stroke="#4b0082" />
  </g>
  <g
     id="page_002">
    <path
       d="m 798.3,300.6 3,-1.5 -0.5,3 0.8,-0.4 h 0.6 l 0.4,0.1 0.7,0.7 0.3,0.5 0.1,0.9 -0.2,0.8 -0.7,0.7 -0.8,0.4 -0.9,0.2 -0.4,-0.2 -0.6,-0.4 m 3,-7.2 2.9,-1.5 -0.5,2.9 0.8,-0.4 h 0.7 l 0.4,0.2 0.7,0.6 0.2,0.6 0.2,0.9 -0.3,0.8 -0.6,0.7 -0.8,0.4 -1,0.1 -0.4,-0.1 -0.5,-0.4 m 2.1,-60.5 -0.6,0.3 -0.9,1 -0.1,-6.3 m -1.6,5 v 0.3 l -0.3,0.6 -0.3,0.3 -0.6,0.3 h -1.2 l -0.6,-0.3 -0.3,-0.3 -0.3,-0.6 v -0.6 l 0.3,-0.6 0.6,-0.9 3,-3 h -4.2 m 37,-7.7 -0.3,0.7 -0.1,1.2 -4.1,-4.7 m 3,6 -2.5,2.2 -0.2,-3 -0.7,0.6 -0.7,0.1 h -0.4 l -0.8,-0.5 -0.4,-0.4 -0.4,-0.9 0.1,-0.9 0.5,-0.8 0.7,-0.6 0.9,-0.3 h 0.4 l 0.6,0.3 m 24.3,2.4 -3.3,-0.6 2.3,-2 -0.9,-0.2 -0.5,-0.4 -0.2,-0.4 -0.1,-0.9 0.1,-0.6 0.5,-0.8 0.7,-0.5 0.9,-0.1 0.9,0.2 0.8,0.5 0.2,0.3 0.2,0.7 m -5.9,2.5 -0.6,0.2 -1.1,0.7 1.3,-6.2 m 20.2,30.1 5,1.1 -1.8,-4.2 m -3.2,3.1 5.8,-2.5 m -7.5,-1.6 0.6,0.7 1.1,0.2 1.5,-0.3 0.8,-0.4 1.2,-0.9 0.6,-0.9 -0.1,-0.9 -0.2,-0.6 -0.6,-0.7 -1.1,-0.2 -1.5,0.3 -0.8,0.4 -1.3,0.9 -0.6,0.9 0.1,0.9 0.2,0.4 m -30.8,84.7 0.6,3.2 -2.7,-1.3 0.1,0.8 -0.2,0.7 -0.2,0.3 -0.8,0.5 -0.6,0.1 -1,-0.2 -0.7,-0.5 -0.4,-0.8 -0.1,-0.9 0.1,-1 0.3,-0.3 0.5,-0.4 m 6.1,6 -0.4,-0.9 -0.6,-0.2 -0.6,0.1 -0.6,0.4 -0.2,0.6 -0.1,1.3 -0.1,0.9 -0.5,0.7 -0.6,0.4 -0.9,0.1 -0.6,-0.2 -0.4,-0.2 -0.4,-0.9 -0.2,-1.1 0.2,-1 0.2,-0.3 0.6,-0.4 0.8,-0.2 0.7,0.2 0.7,0.5 0.4,0.9 0.5,1.1 0.4,0.6 0.6,0.2 0.6,-0.1 0.6,-0.4 0.1,-1 -0.2,-1.3 m 18.9,41.3 3.1,1 -2.4,1.8 0.9,0.2 0.4,0.5 0.2,0.4 0.1,0.9 -0.2,0.6 -0.6,0.8 -0.7,0.4 h -1 l -0.8,-0.3 -0.8,-0.5 -0.2,-0.4 -0.1,-0.7 m 10,-2.2 -2.8,-0.9 -1.1,2.5 0.4,-0.2 h 0.9 l 0.9,0.2 0.7,0.6 0.4,0.7 0.1,1 -0.2,0.5 -0.6,0.8 -0.7,0.4 h -0.9 l -0.9,-0.2 -0.8,-0.6 -0.2,-0.3 -0.1,-0.7 m 45.2,-19.8 -3.1,-1.3 2.6,-1.5 -0.8,-0.4 -0.5,-0.5 -0.1,-0.4 v -0.9 l 0.3,-0.6 0.6,-0.7 0.8,-0.3 0.9,0.1 0.9,0.3 0.7,0.6 0.1,0.4 0.1,0.7 m -10.7,1.1 5.2,-4.7 m -1.3,6.3 -3.9,-1.6 m 6.3,-67.8 -2.5,-2.2 2.9,-0.6 -0.6,-0.6 -0.3,-0.6 v -0.5 l 0.4,-0.8 0.3,-0.5 0.9,-0.5 h 0.8 l 0.9,0.3 0.7,0.6 0.4,0.9 0.1,0.4 -0.2,0.6 m -8.9,-3.8 0.8,-0.5 h 0.8 l 0.9,0.3 0.2,0.2 0.5,0.8 0.1,0.9 -0.4,0.9 -0.2,0.2 -0.8,0.5 h -0.9 l -0.8,-0.3 -0.3,-0.2 -0.4,-0.9 -0.1,-0.8 0.6,-1.1 1,-1.1 1.2,-1 1,-0.2 0.9,0.3 0.4,0.4 0.5,0.8 -0.2,0.7 m -0.3,56.7 3.2,0.8 -2.3,1.9 0.9,0.2 0.5,0.5 0.2,0.3 0.1,1 -0.2,0.5 -0.5,0.8 -0.7,0.5 -1,0.1 -0.8,-0.3 -0.8,-0.5 -0.2,-0.3 -0.2,-0.7 m 10.4,-2.7 -4.5,5.4 m 0.4,-6.4 4.1,1 m -161.7,-114.1 -1.4,-2.7 -2.5,0.9 0.4,0.2 0.7,0.6 0.4,0.8 0.1,1 -0.2,0.8 -0.7,0.7 -0.6,0.2 -0.9,0.2 -0.8,-0.3 -0.7,-0.7 -0.4,-0.8 -0.1,-0.9 0.1,-0.4 0.4,-0.5 m 5.9,3.6 0.2,-0.2 h 0.7 l 0.4,0.2 0.6,0.4 0.5,1 v 0.7 l -0.1,0.4 -0.4,0.5 -0.6,0.3 h -0.6 l -1.1,-0.1 -4,-1.3 1.8,3.7 m 202.6,106.8 -2.9,0.4 0.1,2.7 0.2,-0.3 0.9,-0.4 0.9,-0.2 0.9,0.2 0.7,0.5 0.4,0.8 0.1,0.6 -0.1,0.9 -0.5,0.7 -0.9,0.5 -0.9,0.1 -0.9,-0.2 -0.4,-0.2 -0.3,-0.6 m 8.5,-6.4 -2,6.7 m -2.2,-6.1 4.2,-0.6 m 20.9,-11.4 -0.3,-0.1 -0.4,-0.5 -0.2,-0.4 v -0.6 l 0.4,-1.2 0.5,-0.4 0.4,-0.2 h 0.7 l 0.6,0.2 0.4,0.5 0.6,0.9 1.6,3.9 1.6,-3.8 m -4.8,-4.9 -0.1,1 0.5,0.5 0.5,0.2 0.7,-0.1 0.5,-0.4 0.8,-1 0.6,-0.7 0.8,-0.3 0.6,-0.1 0.9,0.4 0.4,0.5 0.2,0.4 -0.1,0.9 -0.5,1.1 -0.6,0.7 -0.4,0.2 h -0.6 l -0.9,-0.3 -0.4,-0.5 -0.3,-0.8 v -0.9 l 0.2,-1.3 v -0.6 l -0.5,-0.5 -0.5,-0.3 -0.7,0.1 -0.6,0.7 -0.5,1.2 m -196.3,-110.3 -0.1,-0.6 -0.6,-1.1 6,1.8 m -4.6,-2.5 -0.1,-0.7 -0.6,-1.1 6.1,1.8 m 1.6,-38.2 0.5,-3.2 2.1,2.1 0.1,-0.9 0.4,-0.5 0.4,-0.3 0.9,-0.1 0.6,0.1 0.8,0.4 0.5,0.7 0.2,0.9 -0.2,0.9 -0.4,0.9 -0.3,0.2 -0.7,0.2 m -3.9,-7.8 0.2,0.9 0.8,0.7 1.4,0.6 0.9,0.1 1.5,-0.1 1,-0.4 0.4,-0.9 0.1,-0.5 -0.1,-1 -0.8,-0.7 -1.5,-0.5 -0.8,-0.2 -1.6,0.1 -1,0.4 -0.4,0.9 -0.1,0.4 m -27.3,-20.1 0.2,0.2 0.4,0.5 0.2,0.4 v 0.7 l -0.5,1.1 -0.6,0.4 -0.4,0.1 h -0.6 l -0.6,-0.3 -0.4,-0.5 -0.5,-0.9 -1.4,-4 -1.9,3.7 m 4.9,4.4 -1.4,2.9 -1.4,-2.6 -0.4,0.8 -0.5,0.4 -0.4,0.1 -0.9,-0.1 -0.6,-0.3 -0.7,-0.6 -0.2,-0.8 0.1,-1 0.4,-0.8 0.6,-0.7 0.4,-0.1 h 0.7 m 44.2,-99.4 1.2,-5 -4.1,1.7 m 2.9,3.3 -2.3,-5.8 m -4.6,6.2 V 56 l 0.3,-0.8 0.7,-0.6 0.3,-0.1 0.9,-0.1 0.8,0.4 0.6,0.7 0.1,0.3 0.1,0.9 -0.3,0.8 -0.8,0.6 -0.2,0.1 -1,0.1 -0.8,-0.4 -0.7,-1 -0.5,-1.4 -0.3,-1.5 0.2,-1 0.7,-0.6 0.6,-0.2 0.9,-0.1 0.5,0.4 m -45.3,36.5 0.3,-0.1 h 0.6 l 0.4,0.1 0.6,0.4 0.5,1.1 v 0.7 l -0.1,0.4 -0.4,0.5 -0.5,0.3 h -0.7 l -1.1,-0.1 -4,-1.3 1.9,3.7 m 5.1,-0.7 0.2,-0.2 h 0.7 l 0.4,0.2 0.5,0.4 0.6,1 v 0.7 l -0.1,0.4 -0.4,0.5 -0.5,0.3 h -0.7 l -1.1,-0.1 -4,-1.3 1.9,3.8 m 7.8,-34.5 -0.6,0.4 -0.8,1 -0.7,-6.3 m -4.1,6.1 0.4,0.6 0.9,0.2 0.6,-0.1 0.9,-0.4 0.5,-0.9 0.1,-1.5 -0.2,-1.5 -0.4,-1.2 -0.7,-0.5 -0.9,-0.2 H 756 l -0.8,0.4 -0.6,0.7 -0.2,0.9 0.1,0.3 0.4,0.8 0.6,0.6 0.9,0.2 0.3,-0.1 0.9,-0.4 0.5,-0.6 0.2,-0.9 m 68.1,2.6 2.3,2 2,-1.8 h -0.4 l -0.9,-0.4 -0.7,-0.6 -0.4,-0.8 -0.1,-0.8 0.4,-0.9 0.4,-0.5 0.8,-0.4 0.9,-0.1 0.8,0.4 0.7,0.6 0.5,0.8 v 0.4 l -0.2,0.7 m -8.5,-0.8 0.9,0.4 0.6,-0.2 0.4,-0.5 0.2,-0.6 -0.3,-0.7 -0.7,-1 -0.4,-0.8 -0.1,-0.9 0.2,-0.6 0.6,-0.7 0.6,-0.2 0.4,-0.1 0.9,0.4 0.9,0.8 0.5,0.8 v 0.5 l -0.2,0.6 -0.6,0.7 -0.6,0.2 -0.8,0.1 -0.9,-0.4 -1.1,-0.6 -0.6,-0.1 -0.7,0.2 -0.4,0.5 -0.1,0.6 0.4,0.8 1,0.9 m -7.8,47.8 1.6,-2.9 1.2,2.8 0.4,-0.8 0.6,-0.4 0.4,-0.1 0.9,0.2 0.5,0.3 0.7,0.7 0.2,0.8 -0.2,0.9 -0.4,0.8 -0.7,0.7 -0.4,0.1 -0.7,-0.1 m -0.3,-9.9 2.2,4.7 2.2,-3.9 m -4.4,-0.8 5.5,3.1 M 941,392 l 2.1,2.1 2.1,-1.7 h -0.4 l -0.9,-0.4 -0.6,-0.6 -0.4,-0.9 v -0.8 l 0.4,-0.9 0.4,-0.4 0.9,-0.4 h 0.8 l 0.9,0.4 0.6,0.6 0.4,0.9 v 0.4 l -0.2,0.6 m -10.2,-3 6.5,-2.3 m -3.6,5.3 -2.9,-3 m 1.3,14.4 -2.8,1 0.6,2.7 0.2,-0.4 0.7,-0.6 0.9,-0.3 h 0.9 l 0.8,0.4 0.6,0.7 0.1,0.6 0.1,0.9 -0.4,0.8 -0.8,0.6 -0.8,0.3 h -1 l -0.3,-0.2 -0.5,-0.5 m 3.7,-5.2 0.5,-0.5 0.6,-1.1 2,6 m -59.8,20.1 -1,3.1 -1.8,-2.4 -0.2,0.9 -0.5,0.5 -0.4,0.2 h -0.9 l -0.6,-0.2 -0.8,-0.5 -0.4,-0.7 v -1 l 0.3,-0.9 0.5,-0.7 0.4,-0.2 0.6,-0.2 m 1.5,9.8 0.7,-0.1 0.5,-0.8 0.2,-0.5 v -1 l -0.7,-0.8 -1.4,-0.7 -1.4,-0.5 h -1.3 l -0.7,0.4 -0.5,0.8 -0.1,0.2 v 1 l 0.4,0.7 0.8,0.6 0.3,0.1 0.9,-0.1 0.8,-0.4 0.5,-0.7 0.1,-0.3 v -1 l -0.4,-0.7 -0.8,-0.6 m 47.8,9 1.5,2.6 2.5,-1.1 -0.4,-0.1 -0.8,-0.7 -0.4,-0.7 -0.2,-1 0.2,-0.8 0.6,-0.7 0.5,-0.3 1,-0.2 0.8,0.2 0.7,0.6 0.5,0.8 0.2,0.9 -0.1,0.4 -0.4,0.6 m -8,-3.5 0.7,0.6 h 1.1 l 1.4,-0.5 0.8,-0.4 1.1,-1.1 0.5,-0.9 -0.2,-1 -0.3,-0.5 -0.8,-0.6 -1,-0.1 -1.5,0.6 -0.8,0.4 -1.1,1 -0.5,1 0.2,0.9 0.3,0.4 m -8.7,37.8 -0.2,-0.2 -0.3,-0.6 v -0.5 l 0.1,-0.6 0.8,-1 0.6,-0.2 0.4,-0.1 0.7,0.2 0.4,0.4 0.3,0.6 0.3,1 0.4,4.2 2.7,-3.2 m -1.2,-7.1 -0.6,-0.2 -0.8,0.5 -0.4,0.5 -0.3,0.9 0.3,1 0.9,1.2 1.2,1 1.1,0.5 0.9,-0.1 0.8,-0.5 0.2,-0.2 0.3,-0.9 -0.1,-0.9 -0.5,-0.8 -0.2,-0.2 -0.9,-0.3 -0.8,0.1 -0.9,0.5 -0.1,0.2 -0.4,0.9 0.1,0.9 0.5,0.8 m -36.5,28.6 -2.5,1.6 1.1,2.5 0.1,-0.4 0.6,-0.8 0.8,-0.4 0.9,-0.3 0.8,0.2 0.8,0.7 0.3,0.5 0.2,0.9 -0.2,0.8 -0.6,0.7 -0.8,0.5 -0.9,0.2 -0.4,-0.1 -0.6,-0.3 m -65.2,-0.6 -0.6,-0.8 -0.6,-0.1 -0.6,0.1 -0.5,0.5 -0.1,0.6 v 1.3 0.9 l -0.5,0.8 -0.5,0.4 -0.8,0.3 -0.7,-0.2 -0.3,-0.2 -0.6,-0.8 -0.3,-1.1 v -1 l 0.3,-0.3 0.5,-0.5 0.8,-0.2 0.7,0.1 0.7,0.4 0.5,0.8 0.7,1.1 0.4,0.5 0.7,0.1 0.5,-0.2 0.5,-0.4 0.1,-1 -0.4,-1.3 m 14,33.7 0.4,-0.6 -0.2,-0.9 -0.3,-0.5 -0.7,-0.7 h -1.1 l -1.4,0.5 -1.3,0.7 -0.9,0.9 -0.3,0.8 0.2,0.9 0.2,0.3 0.7,0.6 0.8,0.2 0.9,-0.2 0.3,-0.1 0.6,-0.7 0.3,-0.9 -0.2,-0.9 -0.2,-0.2 -0.7,-0.7 -0.8,-0.2 -0.9,0.2 m 19.2,-4.2 1.3,5 2.8,-3.5 m -4.1,-1.5 4.8,4 m -48.1,-116.3 -3.3,0.5 1.5,-2.7 -0.9,0.2 -0.7,-0.3 -0.3,-0.2 -0.4,-0.9 -0.1,-0.6 0.2,-0.9 0.5,-0.7 0.8,-0.4 0.9,-0.1 0.9,0.1 0.4,0.3 0.4,0.5 m -8.1,6.4 2.9,-0.4 -0.1,-2.8 -0.2,0.4 -0.9,0.4 -0.9,0.1 -0.9,-0.1 -0.7,-0.5 -0.4,-0.9 -0.1,-0.6 0.2,-0.9 0.5,-0.7 0.8,-0.4 0.9,-0.2 1,0.2 0.3,0.3 0.4,0.5 m 41.3,27.6 -2.2,-2.5 3,-0.2 -0.6,-0.7 -0.1,-0.6 v -0.4 l 0.5,-0.8 0.4,-0.4 0.9,-0.4 0.9,0.1 0.8,0.4 0.6,0.7 0.3,0.9 v 0.4 l -0.2,0.6 m -9.1,-4 -0.2,0.7 0.3,0.8 0.4,0.5 0.8,0.5 1.1,-0.2 1.3,-0.7 1.2,-1 0.7,-1 v -0.9 l -0.3,-0.8 -0.2,-0.3 -0.8,-0.5 h -0.9 l -0.9,0.4 -0.2,0.2 -0.5,0.8 v 0.8 l 0.3,0.9 0.2,0.2 0.8,0.5 0.9,0.1 0.9,-0.4 m -48.6,65.6 -0.2,0.9 0.4,0.6 0.5,0.3 0.6,0.1 0.6,-0.4 0.9,-0.8 0.7,-0.6 0.8,-0.2 h 0.7 l 0.8,0.5 0.3,0.6 0.1,0.4 -0.2,0.9 -0.6,1 -0.8,0.6 -0.4,0.1 h -0.6 l -0.8,-0.5 -0.4,-0.6 -0.1,-0.8 0.2,-0.9 0.3,-1.2 0.1,-0.7 -0.3,-0.5 -0.6,-0.4 h -0.6 l -0.8,0.6 -0.7,1.1 m -78.9,-76.3 2.8,-0.9 -0.5,-2.7 -0.2,0.4 -0.7,0.5 -0.9,0.3 h -0.9 l -0.8,-0.4 -0.5,-0.8 -0.2,-0.6 v -0.9 l 0.4,-0.8 0.8,-0.5 0.9,-0.3 h 0.9 l 0.4,0.2 0.4,0.5 m -6.6,7.4 1.7,-4.9 -4.4,1.3 m 2.7,3.6 -1.8,-6 m 63.9,97.6 -0.5,-0.4 h -0.9 l -0.6,0.2 -0.7,0.7 -0.2,1 0.2,1.5 0.6,1.4 0.7,1 0.8,0.4 0.9,-0.1 0.3,-0.1 0.7,-0.6 0.4,-0.8 -0.1,-0.9 -0.1,-0.3 -0.6,-0.7 -0.8,-0.4 -0.9,0.1 -0.3,0.1 -0.7,0.6 -0.4,0.8 0.1,0.9 m -76.7,-71 0.4,0.5 0.9,0.9 -6.3,0.3 m 6.6,2.3 -0.3,-0.8 -0.6,-0.3 h -0.6 l -0.6,0.3 -0.3,0.6 -0.2,1.3 -0.3,0.9 -0.6,0.6 -0.5,0.3 -0.9,0.1 -0.7,-0.3 -0.3,-0.3 -0.3,-0.9 -0.1,-1.2 0.3,-0.9 0.3,-0.3 0.6,-0.3 0.9,-0.1 0.6,0.3 0.6,0.6 0.3,0.9 0.4,1.1 0.3,0.6 0.6,0.3 h 0.6 l 0.6,-0.4 0.3,-0.9 -0.1,-1.3 m 239.2,-173.4 -4.7,-2.1 0.9,4.4 m 3.8,-2.3 -6.2,1.3 m 5.3,1.5 0.4,0.6 1,0.7 -6.1,1.2 m 34.2,-23.9 1.1,-5 -4.2,1.7 m 3.1,3.3 -2.5,-5.8 m -0.5,7 -3.1,1.3 0.7,-2.9 -0.8,0.4 -0.6,-0.1 -0.4,-0.1 -0.7,-0.7 -0.2,-0.6 -0.1,-0.9 0.3,-0.8 0.7,-0.7 0.9,-0.3 0.9,-0.1 0.4,0.2 0.5,0.4 m 28.4,20.2 -0.5,0.4 -0.3,0.9 0.1,0.6 0.4,0.8 0.9,0.6 1.5,0.1 1.5,-0.1 1.2,-0.4 0.5,-0.6 0.3,-1 -0.1,-0.3 -0.3,-0.8 -0.7,-0.6 -0.9,-0.2 h -0.3 l -0.9,0.4 -0.5,0.7 -0.2,0.9 v 0.3 l 0.4,0.8 0.6,0.6 0.9,0.2 m -4.7,-6.5 0.3,0.9 1,0.5 1.5,0.2 0.9,-0.1 1.5,-0.4 0.8,-0.7 0.2,-0.9 v -0.6 l -0.4,-0.9 -0.9,-0.5 -1.6,-0.2 -0.9,0.1 -1.4,0.5 -0.9,0.6 -0.2,0.9 v 0.5 m -290.4,237 h 0.3 l 0.6,0.3 0.3,0.3 0.3,0.6 v 1.2 l -0.3,0.6 -0.3,0.3 -0.6,0.3 h -0.6 l -0.6,-0.3 -0.9,-0.6 -3,-2.9 v 4.2 m 6.4,4.2 -4.2,-3 v 4.5 m 4.2,-1.5 -6.3,0.1 m 18.8,44.9 0.2,-0.2 0.7,-0.1 h 0.4 l 0.6,0.3 0.7,1 0.2,0.6 -0.1,0.4 -0.3,0.6 -0.5,0.4 -0.6,0.1 -1.1,0.1 -4.2,-0.5 2.6,3.3 m 7.2,0.4 0.2,-0.6 -0.3,-0.9 -0.3,-0.4 -0.8,-0.6 -1.1,0.1 -1.4,0.7 -1.2,0.9 -0.7,1 -0.1,0.9 0.3,0.8 0.2,0.3 0.8,0.5 0.8,0.1 0.9,-0.3 0.2,-0.2 0.6,-0.8 0.1,-0.8 -0.4,-0.9 -0.1,-0.3 -0.8,-0.5 -0.9,-0.1 -0.9,0.3 m 40.6,-11.6 4.7,2.2 -0.8,-4.4 m -3.9,2.2 6.2,-1.1 m -13.9,24.5 -2.8,0.8 0.5,2.7 0.2,-0.4 0.7,-0.5 0.9,-0.3 h 0.9 l 0.8,0.4 0.5,0.8 0.2,0.6 v 0.9 l -0.4,0.8 -0.8,0.5 -0.8,0.3 h -1 l -0.3,-0.2 -0.5,-0.5 m -26.7,-387.5 0.7,-0.2 1.1,-0.6 -1.7,6.1 m 15.7,-39.9 -2.3,-2.3 3,-0.5 -0.7,-0.6 -0.2,-0.6 v -0.5 l 0.4,-0.8 0.5,-0.4 0.8,-0.5 h 0.9 l 0.8,0.5 0.6,0.6 0.5,0.8 v 0.5 l -0.2,0.6 m -43,10.6 0.4,0.5 1.1,0.8 -6.2,1.1 m 17.2,-21.2 v 0.3 l -0.2,0.6 -0.3,0.4 -0.5,0.4 -1.2,0.1 -0.6,-0.2 -0.4,-0.3 -0.3,-0.5 -0.1,-0.6 0.2,-0.7 0.5,-0.9 2.6,-3.4 -4.2,0.6 m 4.6,138.9 0.6,0.2 1.3,0.2 -4.9,3.9 m 8.3,0 -6.8,1.6 m 4.2,-4.9 2.6,3.3 m 29,-48.8 2,2.2 2.2,-1.7 h -0.4 l -0.9,-0.4 -0.6,-0.7 -0.4,-0.8 v -0.9 l 0.5,-0.8 0.4,-0.4 0.9,-0.4 h 0.8 l 0.9,0.4 0.6,0.7 0.4,0.8 v 0.5 l -0.2,0.6 m -6.7,-1.8 -0.2,0.2 -0.7,0.2 h -0.4 l -0.6,-0.2 -0.8,-0.9 -0.2,-0.6 v -0.4 l 0.2,-0.7 0.4,-0.4 0.7,-0.2 1,-0.2 4.3,0.1 -2.9,-3 m -29.9,-8.7 -0.1,0.3 -0.3,0.6 -0.3,0.3 -0.6,0.2 -1.2,-0.1 -0.6,-0.3 -0.3,-0.3 -0.3,-0.6 0.1,-0.6 0.3,-0.6 0.7,-0.9 3.1,-2.8 -4.1,-0.2 m -60.2,5.8 v 0.3 l -0.2,0.6 -0.3,0.3 -0.6,0.4 h -1.2 l -0.6,-0.2 -0.3,-0.3 -0.4,-0.6 v -0.6 l 0.3,-0.6 0.5,-0.9 2.9,-3.2 -4.2,0.2 m -0.8,5 -0.6,0.3 -0.9,0.9 -0.3,-6.3 m -47.9,35.6 0.3,0.1 0.5,0.4 0.2,0.4 0.1,0.7 -0.3,1.1 -0.5,0.5 -0.3,0.2 -0.7,0.2 -0.6,-0.2 -0.5,-0.5 -0.7,-0.8 -2,-3.7 -1.2,4.1 m 5.3,4.5 v -0.9 l -0.8,-0.9 -1.3,-0.6 -0.9,-0.3 -1.5,-0.1 -1,0.3 -0.6,0.8 -0.1,0.6 v 0.9 l 0.7,0.9 1.4,0.7 0.8,0.2 1.6,0.1 1,-0.3 0.5,-0.8 0.2,-0.4 m 91.3,40.9 -0.4,-0.6 -1,-0.7 6.2,-0.9 m -7.2,-4.2 6.7,2 m -6.1,2.1 -0.6,-4.1 m -22.4,29.7 0.5,-0.4 0.7,-1 1.2,6.2 m 1.4,-6.9 -0.9,0.4 -0.1,0.7 0.1,0.6 0.4,0.5 0.6,0.2 h 1.3 l 0.9,0.2 0.7,0.4 0.4,0.6 0.2,0.8 -0.2,0.7 -0.2,0.3 -0.9,0.5 -1.1,0.2 -1,-0.1 -0.3,-0.2 -0.4,-0.6 -0.2,-0.8 0.2,-0.7 0.4,-0.7 0.9,-0.5 1.1,-0.5 0.5,-0.4 0.2,-0.6 -0.1,-0.6 -0.4,-0.6 -1,-0.1 -1.3,0.3 M 591,353 l -0.1,-0.3 0.1,-0.7 0.2,-0.4 0.4,-0.4 1.2,-0.4 0.6,0.1 0.4,0.2 0.5,0.4 0.2,0.6 -0.1,0.7 -0.3,1 -1.9,3.8 4,-1.3 m 2,-7.4 -1.5,4.9 4.3,-1.4 m -2.8,-3.5 2,6 m -25.3,-23.1 0.3,0.1 0.6,0.3 0.3,0.3 0.3,0.6 -0.1,1.2 -0.3,0.6 -0.3,0.3 -0.6,0.3 -0.6,-0.1 -0.6,-0.3 -0.9,-0.6 -2.9,-3.1 -0.1,4.2 m 6.1,4.9 0.1,-3 -2.7,-0.4 0.3,0.3 0.3,1 v 0.9 l -0.4,0.8 -0.6,0.6 -0.9,0.3 h -0.6 l -0.9,-0.4 -0.6,-0.6 -0.2,-0.9 v -0.9 l 0.3,-0.9 0.3,-0.3 0.6,-0.3 m 193.5,-4.2 1.9,-2.6 0.9,2.8 0.5,-0.7 0.6,-0.3 0.4,-0.1 0.9,0.3 0.5,0.4 0.6,0.7 0.1,0.9 -0.3,0.9 -0.5,0.7 -0.8,0.6 H 769 l -0.7,-0.1 m 0.6,-6.9 -0.3,-0.1 -0.3,-0.6 V 328 l 0.1,-0.7 0.7,-1 0.6,-0.3 h 0.4 l 0.6,0.1 0.5,0.3 0.3,0.6 0.4,1 0.7,4.2 2.4,-3.4 m -33.9,1 -2.5,-1.5 -1.7,2.1 0.4,-0.1 1,0.2 0.7,0.5 0.6,0.7 0.2,0.8 -0.2,1 -0.3,0.5 -0.7,0.6 -0.8,0.2 -1,-0.2 -0.7,-0.5 -0.6,-0.7 -0.1,-0.4 v -0.7 m 9.9,0 -4.7,2 3.8,2.4 m 0.9,-4.4 -3.2,5.4 m -13.2,47.9 1.5,3 -3,-0.6 0.4,0.8 v 0.7 l -0.1,0.4 -0.7,0.6 -0.6,0.3 -0.9,0.1 -0.8,-0.3 -0.7,-0.7 -0.3,-0.8 -0.2,-0.9 0.2,-0.4 0.4,-0.5 m 5.8,3.7 0.2,-0.2 0.7,0.1 0.4,0.1 0.5,0.4 0.6,1.1 v 0.7 l -0.2,0.4 -0.4,0.5 -0.5,0.3 -0.7,-0.1 -1.1,-0.1 -4,-1.4 1.8,3.8 m 7.7,-40.7 -1.8,2.8 -1,-2.8 -0.5,0.8 -0.6,0.3 -0.4,0.1 -0.9,-0.2 -0.5,-0.4 -0.6,-0.7 -0.2,-0.8 0.2,-1 0.5,-0.7 0.7,-0.6 0.5,-0.1 0.6,0.1 m 1.1,7.7 -1.8,2.8 -1,-2.8 -0.5,0.7 -0.6,0.4 -0.4,0.1 -0.9,-0.3 -0.5,-0.3 -0.6,-0.7 -0.2,-0.8 0.2,-1 0.5,-0.7 0.8,-0.6 0.4,-0.1 0.6,0.1 m 22.5,28.1 -1.4,-3 3,0.6 -0.4,-0.8 v -0.7 l 0.1,-0.4 0.7,-0.6 0.6,-0.3 0.9,-0.1 0.8,0.3 0.7,0.7 0.3,0.8 0.2,1 -0.2,0.4 -0.4,0.5 m -7.5,-4 0.6,0.6 0.7,0.1 0.5,-0.3 0.4,-0.5 0.1,-0.7 -0.3,-1.2 -0.1,-1 0.3,-0.7 0.4,-0.6 0.8,-0.4 0.7,0.1 0.4,0.1 0.7,0.7 0.5,1.1 0.1,0.9 -0.2,0.4 -0.4,0.5 -0.8,0.4 h -0.7 l -0.8,-0.3 -0.6,-0.7 -0.8,-0.9 -0.5,-0.4 -0.7,-0.1 -0.5,0.3 -0.5,0.5 0.2,1 0.5,1.2"
       id="nums_002"
       stroke="#000000"
       stroke-width="1" />
    <path
       d="m 836,560.9 -21.1,-36.4 -18.9,-12 10.7,-17.4 -16,26 -12.2,20.8 -3.9,1.6 -23.1,-7.1 16.9,9.3 5.2,29.3 -12.6,14.6 -12.9,19.8 -3.8,1.2 -21.8,-9 -20.1,-1.3 -20.2,-25.9 3.6,-19.8 -0.3,-65.2 -2.8,-60.9 7.1,-17.8 27.8,-8.2 15.6,10.9 -19.3,-40 -2.2,-24.3 2.3,-3.7 23,-8.1 38,80.6 45.9,-6.7 43.8,50.5 -10.1,-18.7 10.5,-35.3 18.6,-10.1 -24.3,8.3 -4.4,-1.3 -15.6,-20.5 -18,-17.4 -7.8,-48.4 11.7,-22.2 -38.2,19.5 0.3,25 -2.6,3.6 -23.9,7.3 -45,-27.4 -35.3,-44.6 8,56.3 -10.6,17.4 -32.9,6.4 -16.3,-12 -9.2,18.8 -34.1,11.3 -18.6,-9.7 -14.5,-14.7 1.2,-34.6 15.5,-13.7 -9.7,-21.1 11.7,-41.5 19.2,-13 93.1,-5 41.5,2.6 24.7,4.2 -8.9,-1.5 15,29.7 -20.2,-39.9 -48.8,-13.4 -16.8,-8.6 -5.1,-27.4 12.7,-13.9 16.6,-17.3 4.1,-0.5 20.5,12.4 26.6,26.6 22.5,-46 -36.2,-69.8 9.7,-16.1 27.8,-3.1 13,13.7 8.9,-19.7 3.2,-1.3 20,8.3 24.9,2.1 3.3,2.9 4.9,24.5 -43,76.1 12.9,14.7 -4.8,30.1 -16.8,10 -9.8,32.1 34.3,-0.4 18.8,-16.2 30.1,6.3 19.8,45.4 33.1,9 5,24.3 -6.1,-29.7 9.2,-20.3 37.1,-16 21.1,7.2 6.1,71.2 -15.2,36.7 -19.6,18.2 -4.9,0.8 -24.2,-11.5 -45.2,-11.2 37.7,9.4 -8.3,-13.4 13.6,21.9 34.9,34.8 -41.4,14.4 22.3,8.1 2.1,3.5 -3.5,23.5 -37.9,46.1 -34.4,21.1 z"
       id="coupes_002"
       stroke="#ff0000"
       stroke-width="1.27"
       sodipodi:nodetypes="cccccccccccccccccccccccccccccccccccccccccccccccccccccccccccccccccccccccccccccccccccccccccccccccccccccccccccccccccc" />
    <path
       d="m 785.8,235.9 1.3,79.7 m 0,0 -31.4,-56.2 m 0,0 30.1,-23.5 m 34.3,-0.4 5.2,60.6 m 43.7,-70.5 -43.7,70.5 m 63.5,-25.1 -63.5,25.1 m 59.9,53.6 -59.9,-53.6 m 63.5,-25.1 -3.6,78.7 m -45.8,34.4 -14.1,-88 m 59.9,53.6 -45.8,34.4 m 45.8,-34.4 -1.5,47.9 m 1.5,-47.9 43,17.9 m 0,0 -44.5,30 m 43.2,-93.3 3.5,56.6 m -194.9,-141.4 50.3,16.4 m 193.3,117.5 -48.7,7.5 m -3.5,-56.6 67.4,12.4 m -258.8,-97.2 60.1,-15.7 m -50.3,-26.4 50.3,26.4 m 8.7,-54.8 -8.7,54.8 m -50.3,-26.4 59,-28.4 M 767.8,131.4 804.3,149 M 814.2,43.4 804.3,149 m -36.5,-17.6 46.4,-88 m -32.1,12.7 32.1,-12.7 m -46.4,88 14.3,-75.3 m -50.5,5.5 50.5,-5.5 m 32.1,-12.7 33.1,29.5 m 80.9,294.7 -6.5,49.2 m -57,44.9 19,-64.1 m 38,19.2 -57,44.9 m 40,36.3 -40,-36.3 m 5.6,57.4 -5.6,-57.4 m -58,33.4 58,-33.4 m 5.6,57.4 -63.6,-24 m 8.2,29.4 -8.2,-29.4 m 63.6,24 -55.4,5.4 M 806.7,495.1 775,417.9 m 0,0 89.7,43.8 m -58,33.4 -73.5,-81.7 m 57.5,107.7 -57.5,-107.7 m 57.5,107.7 -108,-92.6 m 108,92.6 -39.2,15.3 m 0,0 -68.8,-107.9 m 68.8,107.9 -66,-47 m 235.3,-214.8 67.4,-29.1 m -236.7,290.9 -65.7,18.2 m 65.7,-18.2 -29,65.2 m 0,0 -36.7,-47 m 65.7,-18.2 9.5,53.2 m 0,0 -38.5,12 m -35.8,-395.5 58.6,-28.7 m -58.6,28.7 32,-55.3 m -32,55.3 -9.2,-49.9 m 109.6,159.4 -71.2,8.5 m 0,0 39.8,-64.7 m -30.8,-32.4 30.8,32.4 m -75.1,20.1 44.3,-52.5 m -44.3,52.5 2.8,-55.1 m -2.8,55.1 -90.3,-50.1 m -21.2,75.6 21.2,-75.6 m 90.3,50.1 -111.5,25.5 m 111.5,-25.5 -51.8,68.1 m 0,0 -59.7,-42.6 m 111.5,-25.5 8,56.3 m -121.7,32.2 2.2,-63 m 218,10.6 -26.2,35.9 m -47,21.9 61.1,44.5 M 713.9,373.4 737,337.3"
       id="plisM_002"
       stroke="#a52a2a"
       stroke-dasharray="4" />
    <path
       d="m 785.8,235.9 39.5,60.2 m 13.6,-76.8 -13.6,76.8 m 58.4,101.5 -44.3,-13.5 m 87.5,-79.8 -41.7,45.4 m 3.6,-78.7 38.1,33.3 m 0,0 52.2,49.1 m -243.6,-133.9 9.8,-42.1 m 176.4,239.4 -38,-19.2 m 58.9,54.3 -77.9,9.8 m 57,-44.9 20.9,35.1 m -209.4,-38.5 41.8,4.5 m -92.3,10.6 50.5,-15.1 m 187.6,-138.8 73.5,42.1 m -316.8,-160.5 41.2,-5.4 m -38.1,128.7 75.1,-20.1 m -67.1,76.4 -59.8,11.8 m 0,0 -61.9,20.4"
       id="plisV_002"
       stroke="#008000"
       stroke-dasharray="4, 1, 1, 1"
       stroke-width="1.27" />
    <path
       d="m 803.5,264 4,4 m 0,-4 -4,4 m 26.6,-12.3 4,4 m 0,-4 -4,4 m 29.5,129.2 4,4 m 0,-4 -4,4 m 44.5,-67.9 4,4 m 0,-4 -4,4 m 1.8,-43.4 4,4 m 0,-4 -4,4 m 45.1,37.3 4,4 m 0,-4 -4,4 m -212.6,-134.5 4,4 m 0,-4 -4,4 m 162.3,204.8 4,4 m 0,-4 -4,4 m 0.9,45.6 4,4 m 0,-4 -4,4 m 28.5,-26.5 4,4 m 0,-4 -4,4 m -178,-22.6 4,4 m 0,-4 -4,4 m -46.2,1.3 4,4 m 0,-4 -4,4 m 249.6,-129.3 4,4 m 0,-4 -4,4 m -259.4,-146.2 4,4 m 0,-4 -4,4 m 20,111.9 4,4 m 0,-4 -4,4 m -59.4,68.3 4,4 m 0,-4 -4,4 m -60.9,12.1 4,4 m 0,-4 -4,4"
       id="marqueV_002"
       stroke="#008000" />
    <path
       d="M 750.1,321.8 V 321 l 0.7,-1.5 0.8,-0.7 1.5,-0.8 h 3 l 1.5,0.8 0.7,0.7 0.8,1.5 v 1.5 l -0.8,1.5 -1.5,2.3 -7.5,7.5 h 10.5"
       id="titre_2"
       stroke="#4b0082" />
  </g>
</svg>
