<?xml version="1.0" encoding="UTF-8" standalone="no"?>
<svg
   height="297mm"
   viewBox="0 0 533 754"
   width="210mm"
   version="1.1"
   id="svg1"
   sodipodi:docname="teteCheval120_H15_C2.svg"
   inkscape:version="1.3 (1:1.3+202307231459+0e150ed6c4)"
   xmlns:inkscape="http://www.inkscape.org/namespaces/inkscape"
   xmlns:sodipodi="http://sodipodi.sourceforge.net/DTD/sodipodi-0.dtd"
   xmlns="http://www.w3.org/2000/svg"
   xmlns:svg="http://www.w3.org/2000/svg">
  <defs
     id="defs1" />
  <sodipodi:namedview
     id="namedview1"
     pagecolor="#ffffff"
     bordercolor="#000000"
     borderopacity="0.25"
     inkscape:showpageshadow="2"
     inkscape:pageopacity="0.0"
     inkscape:pagecheckerboard="0"
     inkscape:deskcolor="#d1d1d1"
     inkscape:document-units="mm"
     showgrid="false"
     inkscape:zoom="0.71385258"
     inkscape:cx="396.4404"
     inkscape:cy="561.04021"
     inkscape:window-width="1920"
     inkscape:window-height="1007"
     inkscape:window-x="0"
     inkscape:window-y="0"
     inkscape:window-maximized="1"
     inkscape:current-layer="svg1" />
  <style
     type="text/css"
     id="style1"><![CDATA[
			path {
				fill: none;
			}
		]]></style>
  <g
     id="page_001">
    <path
       d="M 345.1 600.3 L 345.8 600.9 L 346.8 601.1 L 348.3 600.7 L 349.1 600.3 L 350.4 599.4 L 350.9 598.5 L 350.8 597.6 L 350.6 597.0 L 349.9 596.3 L 348.8 596.2 L 347.3 596.6 L 346.5 596.9 L 345.3 597.8 L 344.7 598.8 L 344.9 599.7 L 345.0 600.1 M 241.1 543.2 L 237.9 543.7 L 239.3 541.1 L 238.4 541.2 L 237.8 541.0 L 237.4 540.7 L 237.0 539.9 L 236.9 539.3 L 237.1 538.4 L 237.6 537.7 L 238.4 537.2 L 239.3 537.1 L 240.3 537.3 L 240.6 537.5 L 241.0 538.1 M 243.2 693.2 L 243.9 693.2 L 245.1 692.8 L 242.2 698.4 M 248.7 696.8 L 248.1 697.5 L 247.2 697.7 L 246.3 697.6 L 246.0 697.4 L 245.4 696.7 L 245.1 695.9 L 245.3 695.0 L 245.4 694.7 L 246.1 694.1 L 246.9 693.8 L 247.8 694.0 L 248.1 694.1 L 248.8 694.8 L 249.0 695.6 L 248.7 696.8 L 248.0 698.1 L 247.1 699.3 L 246.1 699.8 L 245.2 699.7 L 244.7 699.4 L 244.0 698.7 L 244.0 698.1 M 356.5 649.0 L 357.3 649.3 L 357.9 649.9 L 358.2 650.9 L 358.2 651.2 L 357.8 652.0 L 357.2 652.6 L 356.3 652.9 L 356.0 652.9 L 355.1 652.5 L 354.5 651.9 L 354.3 651.0 L 354.3 650.7 L 354.6 649.8 L 355.3 649.2 L 356.5 649.0 L 358.0 649.0 L 359.4 649.4 L 360.3 650.0 L 360.6 651.0 L 360.6 651.6 L 360.2 652.4 L 359.6 652.7 M 298.8 709.5 L 299.4 709.2 L 300.4 708.4 L 300.0 714.7 M 302.0 709.8 L 302.0 709.5 L 302.3 708.9 L 302.6 708.6 L 303.2 708.4 L 304.4 708.4 L 305.0 708.8 L 305.3 709.1 L 305.6 709.7 L 305.5 710.3 L 305.2 710.9 L 304.5 711.7 L 301.4 714.6 L 305.6 714.8 M 340.4 699.1 L 340.5 698.4 L 340.3 697.1 L 345.4 700.7 M 341.1 695.6 L 343.0 692.9 L 343.9 695.7 L 344.4 695.0 L 345.0 694.7 L 345.4 694.6 L 346.3 694.9 L 346.8 695.2 L 347.4 696.0 L 347.6 696.8 L 347.3 697.7 L 346.8 698.5 L 346.0 699.0 L 345.6 699.1 L 344.9 699.0 M 300.9 515.5 L 301.1 515.8 L 301.2 516.4 L 301.1 516.9 L 300.7 517.4 L 299.7 518.1 L 299.0 518.1 L 298.6 518.0 L 298.0 517.7 L 297.7 517.2 L 297.7 516.5 L 297.7 515.4 L 298.6 511.3 L 295.1 513.5 M 294.8 521.2 L 295.1 516.0 L 291.3 518.4 M 294.8 521.2 L 291.5 515.8 M 352.0 498.0 L 352.3 498.6 L 353.2 498.8 L 353.8 498.8 L 354.7 498.4 L 355.2 497.4 L 355.4 495.9 L 355.3 494.4 L 354.9 493.3 L 354.2 492.7 L 353.3 492.5 L 353.0 492.5 L 352.1 492.9 L 351.6 493.5 L 351.3 494.5 L 351.4 494.8 L 351.7 495.6 L 352.4 496.2 L 353.3 496.4 L 353.6 496.4 L 354.5 496.0 L 355.0 495.3 L 355.3 494.4 M 348.8 499.2 L 349.7 498.8 L 350.2 497.9 L 350.4 496.4 L 350.3 495.5 L 349.8 494.0 L 349.2 493.1 L 348.2 492.9 L 347.7 493.0 L 346.8 493.4 L 346.3 494.3 L 346.1 495.8 L 346.2 496.7 L 346.6 498.2 L 347.3 499.0 L 348.2 499.3 L 348.7 499.2 M 182.0 530.3 L 175.0 529.5 M 180.6 526.3 L 182.0 530.3 M 181.0 531.7 L 181.4 532.2 L 182.6 532.8 L 176.6 534.8 M 368.3 573.5 L 367.3 573.4 L 366.4 574.0 L 365.6 575.3 L 365.3 576.2 L 365.0 577.7 L 365.2 578.7 L 366.0 579.3 L 366.5 579.6 L 367.5 579.6 L 368.4 579.0 L 369.2 577.7 L 369.5 576.9 L 369.8 575.3 L 369.5 574.3 L 368.8 573.7 L 368.4 573.5 M 404.7 497.3 L 404.7 497.6 L 404.3 498.2 L 404.0 498.5 L 403.4 498.7 L 402.2 498.7 L 401.6 498.3 L 401.3 498.0 L 401.1 497.4 L 401.1 496.8 L 401.5 496.2 L 402.1 495.3 L 405.3 492.6 L 401.1 492.3 M 397.8 498.3 L 398.7 498.1 L 399.3 497.3 L 399.7 495.8 L 399.8 494.9 L 399.6 493.4 L 399.1 492.4 L 398.2 492.1 L 397.6 492.0 L 396.7 492.3 L 396.0 493.1 L 395.6 494.6 L 395.6 495.5 L 395.8 497.0 L 396.3 497.9 L 397.2 498.3 L 397.6 498.3 M 423.3 595.2 L 422.7 595.9 L 422.0 596.3 L 421.0 596.3 L 420.7 596.2 L 420.0 595.7 L 419.6 594.9 L 419.6 594.0 L 419.7 593.7 L 420.2 592.9 L 421.0 592.5 L 421.9 592.5 L 422.2 592.6 L 423.0 593.2 L 423.4 593.9 L 423.3 595.2 L 422.8 596.6 L 422.1 597.9 L 421.2 598.6 L 420.3 598.6 L 419.7 598.4 L 418.9 597.9 L 418.8 597.2 M 455.4 491.3 L 455.8 491.8 L 456.8 491.8 L 457.4 491.7 L 458.2 491.1 L 458.5 490.1 L 458.4 488.6 L 458.0 487.1 L 457.4 486.0 L 456.7 485.6 L 455.7 485.6 L 455.4 485.7 L 454.6 486.2 L 454.2 486.9 L 454.2 487.9 L 454.2 488.2 L 454.8 488.9 L 455.5 489.4 L 456.4 489.4 L 456.7 489.3 L 457.5 488.8 L 457.9 488.1 L 458.0 487.1 M 453.9 491.1 L 453.4 491.6 L 452.8 492.7 L 451.1 486.6 M 497.6 491.0 L 494.4 490.0 L 496.8 488.2 L 496.0 488.0 L 495.5 487.5 L 495.3 487.2 L 495.2 486.2 L 495.4 485.6 L 495.9 484.9 L 496.7 484.5 L 497.6 484.4 L 498.5 484.7 L 499.3 485.2 L 499.5 485.6 L 499.6 486.2 M 493.5 488.3 L 492.8 488.4 L 491.7 489.0 L 493.5 483.0 M 468.7 607.5 L 469.4 607.3 L 470.5 606.6 L 469.0 612.8 M 472.2 606.8 L 475.4 607.6 L 473.1 609.5 L 474.0 609.7 L 474.5 610.1 L 474.7 610.5 L 474.8 611.4 L 474.7 612.0 L 474.2 612.8 L 473.5 613.3 L 472.5 613.4 L 471.7 613.2 L 470.8 612.7 L 470.6 612.3 L 470.5 611.6 M 540.7 510.6 L 546.2 506.3 M 544.4 512.5 L 540.7 510.6 M 536.8 508.7 L 541.4 506.3 L 537.4 504.3 M 536.8 508.7 L 539.7 503.1 M 522.6 615.4 L 523.2 615.1 L 524.2 614.3 L 523.7 620.6 M 525.7 615.7 L 525.7 615.4 L 526.1 614.8 L 526.4 614.5 L 527.0 614.3 L 528.2 614.3 L 528.8 614.7 L 529.1 615.0 L 529.3 615.6 L 529.3 616.2 L 529.0 616.8 L 528.3 617.7 L 525.1 620.4 L 529.3 620.7 M 585.0 619.4 L 585.6 619.2 L 586.5 618.3 L 586.2 624.6 M 591.5 620.5 L 591.1 621.4 L 590.5 621.9 L 589.6 622.2 L 589.3 622.2 L 588.4 621.8 L 587.8 621.2 L 587.6 620.3 L 587.6 620.0 L 587.9 619.1 L 588.6 618.5 L 589.5 618.3 L 589.8 618.3 L 590.7 618.7 L 591.2 619.3 L 591.5 620.5 L 591.4 622.0 L 591.0 623.5 L 590.3 624.3 L 589.4 624.6 L 588.8 624.6 L 588.0 624.2 L 587.7 623.6 M 635.1 592.1 L 638.2 598.3 M 632.5 595.4 L 635.1 592.1 M 637.9 588.3 L 636.1 590.7 L 638.1 592.6 L 638.0 592.2 L 638.3 591.3 L 638.9 590.5 L 639.7 590.0 L 640.5 589.9 L 641.4 590.2 L 641.9 590.6 L 642.4 591.4 L 642.5 592.2 L 642.2 593.1 L 641.7 593.8 L 640.9 594.3 L 640.5 594.4 L 639.8 594.3 M 642.6 552.5 L 644.7 554.6 L 646.8 552.8 L 646.4 552.8 L 645.5 552.4 L 644.9 551.8 L 644.5 551.0 L 644.4 550.1 L 644.8 549.3 L 645.3 548.8 L 646.1 548.4 L 646.9 548.4 L 647.8 548.8 L 648.5 549.4 L 648.9 550.3 L 648.9 550.7 L 648.7 551.3 M 640.0 547.1 L 640.8 546.6 L 641.6 546.6 L 642.5 547.0 L 642.7 547.2 L 643.2 548.1 L 643.2 548.9 L 642.8 549.8 L 642.6 550.0 L 641.7 550.4 L 640.9 550.4 L 640.0 550.0 L 639.8 549.8 L 639.4 549.0 L 639.3 548.1 L 640.0 547.1 L 641.0 546.0 L 642.3 545.1 L 643.3 544.9 L 644.2 545.3 L 644.6 545.7 L 645.0 546.5 L 644.8 547.2 M 164.3 465.6 L 164.8 465.2 L 164.9 464.3 L 164.8 463.7 L 164.3 462.9 L 163.3 462.5 L 161.8 462.5 L 160.3 462.8 L 159.2 463.3 L 158.8 464.0 L 158.7 465.0 L 158.7 465.3 L 159.2 466.1 L 159.9 466.5 L 160.8 466.7 L 161.1 466.6 L 162.0 466.1 L 162.4 465.4 L 162.5 464.5 L 162.5 464.2 L 162.0 463.4 L 161.3 462.9 L 160.3 462.8 M 165.8 468.3 L 165.3 467.5 L 164.7 467.4 L 164.1 467.5 L 163.5 467.9 L 163.4 468.5 L 163.3 469.8 L 163.2 470.7 L 162.7 471.4 L 162.2 471.8 L 161.3 472.0 L 160.7 471.8 L 160.3 471.6 L 159.9 470.8 L 159.6 469.6 L 159.7 468.7 L 160.0 468.3 L 160.5 467.9 L 161.4 467.7 L 162.0 467.9 L 162.7 468.4 L 163.2 469.2 L 163.7 470.3 L 164.1 470.8 L 164.8 471.0 L 165.4 470.9 L 165.9 470.5 L 166.0 469.5 L 165.8 468.2 M 228.8 520.2 L 231.7 518.5 L 231.4 521.5 L 232.1 521.0 L 232.8 521.0 L 233.2 521.1 L 233.9 521.7 L 234.3 522.2 L 234.5 523.1 L 234.3 523.9 L 233.6 524.7 L 232.9 525.1 L 232.0 525.3 L 231.5 525.2 L 231.0 524.9 M 243.9 483.7 L 243.6 483.7 L 243.0 483.5 L 242.6 483.3 L 242.2 482.7 L 242.0 481.5 L 242.2 480.9 L 242.5 480.6 L 243.0 480.2 L 243.6 480.1 L 244.3 480.3 L 245.3 480.7 L 248.7 483.2 L 248.0 479.0 M 241.0 475.8 L 245.7 478.1 L 245.0 473.7 M 241.0 475.8 L 247.3 474.8 M 148.9 345.6 L 149.1 345.8 L 149.2 346.5 L 149.1 346.9 L 148.8 347.5 L 147.8 348.2 L 147.2 348.3 L 146.8 348.3 L 146.2 347.9 L 145.8 347.5 L 145.7 346.8 L 145.7 345.7 L 146.3 341.5 L 142.9 344.0 M 144.9 348.6 L 144.6 349.2 L 144.4 350.4 L 140.7 345.3 M 245.6 416.1 L 245.0 416.2 L 244.4 416.9 L 244.2 417.5 L 244.1 418.4 L 244.7 419.3 L 246.0 420.1 L 247.5 420.6 L 248.7 420.8 L 249.5 420.4 L 250.1 419.7 L 250.2 419.4 L 250.2 418.5 L 249.8 417.7 L 249.1 417.1 L 248.8 417.0 L 247.9 416.9 L 247.1 417.3 L 246.5 418.0 L 246.4 418.3 L 246.4 419.3 L 246.7 420.0 L 247.5 420.6 M 245.9 412.7 L 245.9 413.7 L 246.5 414.6 L 247.8 415.4 L 248.7 415.7 L 250.2 415.9 L 251.2 415.7 L 251.8 415.0 L 252.0 414.4 L 252.1 413.5 L 251.4 412.6 L 250.1 411.8 L 249.3 411.4 L 247.8 411.2 L 246.7 411.4 L 246.1 412.2 L 246.0 412.6 M 192.6 305.8 L 192.8 306.0 L 193.0 306.7 L 193.0 307.1 L 192.8 307.7 L 192.0 308.6 L 191.4 308.8 L 190.9 308.8 L 190.3 308.6 L 189.9 308.2 L 189.6 307.6 L 189.4 306.5 L 189.4 302.3 L 186.4 305.3 M 187.0 312.4 L 187.6 312.6 L 188.5 312.2 L 188.9 311.8 L 189.3 310.9 L 189.1 309.9 L 188.2 308.6 L 187.1 307.6 L 186.1 306.9 L 185.2 307.0 L 184.4 307.4 L 184.2 307.6 L 183.7 308.5 L 183.8 309.3 L 184.2 310.1 L 184.4 310.4 L 185.3 310.8 L 186.1 310.8 L 186.9 310.3 L 187.2 310.1 L 187.6 309.3 L 187.6 308.4 L 187.1 307.6 M 265.7 372.5 L 265.4 372.4 L 265.0 371.8 L 264.9 371.4 L 264.9 370.7 L 265.5 369.7 L 266.1 369.3 L 266.5 369.2 L 267.2 369.2 L 267.7 369.5 L 268.1 370.0 L 268.6 371.0 L 269.8 375.1 L 271.8 371.4 M 267.7 365.8 L 267.5 366.7 L 268.0 367.7 L 269.2 368.7 L 270.0 369.1 L 271.4 369.5 L 272.5 369.4 L 273.2 368.8 L 273.5 368.3 L 273.6 367.3 L 273.1 366.4 L 272.0 365.4 L 271.2 365.0 L 269.7 364.5 L 268.6 364.6 L 267.9 365.3 L 267.7 365.6 M 282.1 322.0 L 281.4 322.3 L 281.0 323.1 L 280.9 323.7 L 281.1 324.6 L 281.9 325.4 L 283.4 325.8 L 284.9 326.0 L 286.1 325.9 L 286.8 325.4 L 287.2 324.5 L 287.2 324.2 L 287.0 323.3 L 286.5 322.6 L 285.7 322.2 L 285.4 322.2 L 284.4 322.4 L 283.8 322.9 L 283.3 323.7 L 283.3 324.0 L 283.5 325.0 L 284.0 325.6 L 284.9 326.0 M 282.7 320.8 L 282.5 320.1 L 281.8 319.1 L 288.0 319.9 M 306.6 270.4 L 304.6 267.8 L 307.6 267.8 L 307.1 267.1 L 307.0 266.4 L 307.0 266.0 L 307.6 265.2 L 308.0 264.9 L 308.9 264.6 L 309.8 264.7 L 310.6 265.2 L 311.1 265.9 L 311.4 266.8 L 311.3 267.2 L 311.0 267.8 M 304.6 265.3 L 304.4 265.5 L 303.7 265.6 L 303.3 265.6 L 302.7 265.3 L 302.0 264.3 L 301.9 263.7 L 301.9 263.3 L 302.2 262.7 L 302.7 262.3 L 303.4 262.2 L 304.4 262.1 L 308.6 262.7 L 306.1 259.3 M 299.8 280.6 L 302.7 279.0 L 302.2 282.0 L 303.0 281.5 L 303.7 281.5 L 304.1 281.6 L 304.8 282.3 L 305.1 282.8 L 305.3 283.7 L 305.0 284.5 L 304.4 285.2 L 303.6 285.7 L 302.7 285.8 L 302.3 285.7 L 301.7 285.3 M 304.5 279.6 L 304.9 279.0 L 305.3 277.8 L 308.3 283.3 M 236.8 247.8 L 237.1 248.0 L 237.4 248.5 L 237.5 249.0 L 237.4 249.6 L 236.8 250.6 L 236.2 251.0 L 235.8 251.1 L 235.1 251.0 L 234.6 250.7 L 234.3 250.1 L 233.9 249.1 L 233.0 244.9 L 230.7 248.5 M 233.4 255.9 L 235.0 253.3 L 232.9 251.6 L 233.0 252.0 L 232.8 253.0 L 232.3 253.7 L 231.5 254.3 L 230.7 254.5 L 229.8 254.2 L 229.3 253.9 L 228.7 253.2 L 228.5 252.4 L 228.8 251.4 L 229.2 250.7 L 230.0 250.1 L 230.4 250.0 L 231.1 250.1 M 288.4 130.9 L 288.5 131.2 L 288.5 131.9 L 288.3 132.3 L 287.9 132.8 L 286.8 133.2 L 286.1 133.2 L 285.7 133.0 L 285.2 132.6 L 285.0 132.0 L 285.0 131.4 L 285.2 130.3 L 286.8 126.4 L 282.9 128.0 M 279.9 133.8 L 279.8 132.9 L 280.2 132.1 L 280.9 131.5 L 281.1 131.4 L 282.1 131.3 L 282.9 131.6 L 283.5 132.3 L 283.6 132.6 L 283.7 133.5 L 283.4 134.3 L 282.6 135.0 L 282.4 135.1 L 281.4 135.1 L 280.6 134.8 L 279.9 133.8 L 279.3 132.4 L 279.0 130.9 L 279.2 129.9 L 279.9 129.3 L 280.5 129.0 L 281.4 129.0 L 282.0 129.4 M 323.6 165.5 L 326.9 165.1 L 325.4 167.7 L 326.2 167.6 L 326.9 167.9 L 327.2 168.1 L 327.6 169.0 L 327.7 169.6 L 327.5 170.5 L 326.9 171.2 L 326.1 171.6 L 325.2 171.7 L 324.2 171.5 L 323.9 171.2 L 323.5 170.6 M 330.1 164.8 L 329.3 165.2 L 328.8 166.2 L 328.6 167.7 L 328.7 168.6 L 329.2 170.0 L 329.9 170.9 L 330.8 171.1 L 331.4 171.0 L 332.2 170.6 L 332.7 169.7 L 332.9 168.1 L 332.8 167.2 L 332.3 165.8 L 331.6 164.9 L 330.7 164.7 L 330.3 164.8 M 339.7 128.3 L 342.5 129.4 L 343.8 127.0 L 343.4 127.1 L 342.5 127.1 L 341.6 126.8 L 340.9 126.1 L 340.6 125.4 L 340.6 124.4 L 340.8 123.9 L 341.5 123.1 L 342.2 122.8 L 343.2 122.9 L 344.0 123.2 L 344.7 123.8 L 344.9 124.2 L 345.0 124.9 M 306.0 198.4 L 305.7 199.0 L 306.0 199.9 L 306.3 200.4 L 307.1 201.0 L 308.2 200.9 L 309.6 200.3 L 310.8 199.4 L 311.6 198.5 L 311.7 197.7 L 311.5 196.7 L 311.3 196.5 L 310.5 195.9 L 309.7 195.8 L 308.8 196.1 L 308.5 196.2 L 308.0 197.0 L 307.8 197.9 L 308.1 198.8 L 308.3 199.0 L 309.0 199.6 L 309.9 199.7 L 310.8 199.4 M 304.1 197.3 L 302.2 194.6 L 305.2 194.7 L 304.7 193.9 L 304.6 193.3 L 304.6 192.8 L 305.2 192.1 L 305.7 191.7 L 306.6 191.4 L 307.4 191.6 L 308.2 192.2 L 308.7 192.9 L 309.0 193.8 L 308.9 194.2 L 308.6 194.8 M 303.7 225.0 L 303.0 224.9 L 302.2 225.5 L 301.9 226.0 L 301.6 226.9 L 302.1 227.9 L 303.1 229.0 L 304.4 229.8 L 305.5 230.3 L 306.4 230.1 L 307.1 229.5 L 307.3 229.3 L 307.5 228.4 L 307.4 227.5 L 306.8 226.8 L 306.6 226.6 L 305.6 226.4 L 304.8 226.5 L 304.1 227.1 L 303.9 227.3 L 303.6 228.3 L 303.8 229.1 L 304.4 229.8 M 305.4 220.7 L 307.2 225.5 L 309.8 221.8 M 305.4 220.7 L 310.7 224.2 M 129.4 401.5 L 129.6 400.9 L 129.1 400.0 L 128.6 399.6 L 127.8 399.3 L 126.7 399.6 L 125.5 400.5 L 124.5 401.6 L 124.0 402.7 L 124.0 403.6 L 124.5 404.4 L 124.7 404.6 L 125.6 404.9 L 126.4 404.9 L 127.2 404.4 L 127.4 404.2 L 127.8 403.3 L 127.8 402.5 L 127.3 401.6 L 127.1 401.5 L 126.2 401.1 L 125.3 401.1 L 124.5 401.6 M 134.1 404.5 L 127.7 407.2 M 131.0 401.7 L 134.1 404.5 M 177.9 672.4 L 173.9 678.1 M 173.7 671.7 L 177.9 672.4 M 182.5 673.2 L 179.6 672.7 L 178.8 675.3 L 179.2 675.1 L 180.1 674.9 L 181.0 675.1 L 181.9 675.5 L 182.3 676.2 L 182.5 677.1 L 182.4 677.7 L 182.0 678.6 L 181.3 679.1 L 180.3 679.2 L 179.4 679.1 L 178.6 678.6 L 178.4 678.3 L 178.2 677.6 M 167.8 649.3 L 169.7 647.0 L 167.7 645.1 L 167.8 645.5 L 167.5 646.4 L 166.9 647.1 L 166.1 647.6 L 165.3 647.7 L 164.4 647.4 L 163.9 647.0 L 163.4 646.2 L 163.3 645.4 L 163.6 644.5 L 164.2 643.8 L 165.0 643.3 L 165.4 643.2 L 166.0 643.3 M 165.8 651.9 L 166.1 651.0 L 165.8 650.4 L 165.4 650.0 L 164.7 649.9 L 164.1 650.2 L 163.1 650.9 L 162.3 651.4 L 161.5 651.5 L 160.8 651.4 L 160.1 650.8 L 159.8 650.2 L 159.8 649.8 L 160.1 648.9 L 160.9 648.0 L 161.6 647.5 L 162.1 647.4 L 162.7 647.5 L 163.4 648.1 L 163.7 648.7 L 163.8 649.6 L 163.5 650.4 L 163.0 651.6 L 162.9 652.2 L 163.2 652.8 L 163.6 653.2 L 164.3 653.3 L 165.1 652.8 L 165.9 651.8 M 185.7 126.1 L 185.9 126.3 L 186.2 126.9 L 186.2 127.3 L 186.0 128.0 L 185.2 128.9 L 184.6 129.1 L 184.2 129.1 L 183.5 129.0 L 183.1 128.6 L 182.8 127.9 L 182.6 126.9 L 182.3 122.7 L 179.5 125.8 M 182.0 130.2 L 182.2 130.4 L 182.5 131.1 L 182.5 131.5 L 182.3 132.1 L 181.5 133.0 L 180.9 133.3 L 180.5 133.3 L 179.8 133.1 L 179.4 132.7 L 179.1 132.1 L 178.8 131.0 L 178.6 126.8 L 175.8 129.9 M 219.7 131.4 L 219.5 131.7 L 218.9 132.0 L 218.5 132.0 L 217.8 131.9 L 216.9 131.1 L 216.6 130.5 L 216.6 130.1 L 216.7 129.4 L 217.1 128.9 L 217.7 128.7 L 218.7 128.3 L 222.9 127.9 L 219.7 125.3 M 214.4 129.1 L 211.8 127.0 L 214.7 126.3 L 214.0 125.7 L 213.7 125.1 L 213.7 124.7 L 214.0 123.8 L 214.4 123.3 L 215.2 122.8 L 216.0 122.7 L 216.9 123.0 L 217.6 123.6 L 218.1 124.4 L 218.2 124.8 L 218.0 125.5 M 206.8 227.4 L 206.7 227.1 L 206.7 226.5 L 206.9 226.1 L 207.3 225.5 L 208.4 225.1 L 209.1 225.1 L 209.4 225.2 L 210.0 225.6 L 210.2 226.2 L 210.2 226.9 L 210.0 227.9 L 208.5 231.9 L 212.4 230.2 M 214.1 222.5 L 211.3 223.7 L 212.2 226.3 L 212.3 225.9 L 213.0 225.3 L 213.8 224.9 L 214.8 224.8 L 215.6 225.1 L 216.2 225.8 L 216.5 226.3 L 216.6 227.3 L 216.3 228.1 L 215.6 228.7 L 214.8 229.1 L 213.8 229.2 L 213.4 229.0 L 212.9 228.6 M 148.0 205.6 L 148.2 205.4 L 148.8 205.2 L 149.3 205.2 L 149.9 205.4 L 150.7 206.3 L 150.9 206.9 L 150.9 207.4 L 150.7 208.0 L 150.2 208.4 L 149.6 208.6 L 148.5 208.8 L 144.3 208.6 L 147.2 211.7 M 155.3 211.2 L 148.7 213.3 M 152.4 208.1 L 155.3 211.2 M 99.7 123.6 L 100.3 123.3 L 100.7 122.5 L 100.8 121.9 L 100.6 121.0 L 99.7 120.3 L 98.3 119.8 L 96.8 119.6 L 95.6 119.8 L 94.9 120.3 L 94.5 121.2 L 94.5 121.5 L 94.7 122.4 L 95.2 123.1 L 96.1 123.5 L 96.4 123.5 L 97.3 123.3 L 98.0 122.8 L 98.3 121.9 L 98.4 121.6 L 98.2 120.7 L 97.7 120.0 L 96.8 119.6 M 100.0 128.7 L 100.3 125.7 L 97.7 125.1 L 98.0 125.4 L 98.2 126.4 L 98.1 127.3 L 97.7 128.1 L 97.0 128.7 L 96.1 128.9 L 95.5 128.8 L 94.6 128.4 L 94.1 127.7 L 93.9 126.8 L 94.0 125.9 L 94.4 125.0 L 94.7 124.8 L 95.3 124.5 M 156.5 122.0 L 156.2 122.0 L 155.7 121.6 L 155.5 121.2 L 155.3 120.6 L 155.5 119.4 L 155.9 118.9 L 156.3 118.6 L 156.9 118.5 L 157.5 118.6 L 158.1 119.0 L 158.8 119.8 L 161.2 123.3 L 162.0 119.2 M 157.6 116.6 L 157.3 116.5 L 156.8 116.1 L 156.6 115.8 L 156.4 115.1 L 156.6 113.9 L 157.1 113.4 L 157.4 113.2 L 158.1 113.0 L 158.6 113.1 L 159.2 113.5 L 159.9 114.3 L 162.3 117.8 L 163.1 113.7 M 144.8 48.1 L 141.5 48.3 L 143.1 45.8 L 142.2 45.9 L 141.6 45.6 L 141.3 45.3 L 140.9 44.4 L 140.9 43.8 L 141.1 42.9 L 141.6 42.3 L 142.5 41.9 L 143.4 41.9 L 144.3 42.1 L 144.7 42.4 L 145.0 43.0 M 136.0 46.6 L 136.2 45.7 L 136.8 45.0 L 137.7 44.7 L 138.0 44.7 L 138.9 44.9 L 139.5 45.4 L 139.9 46.3 L 139.9 46.6 L 139.7 47.5 L 139.1 48.2 L 138.2 48.5 L 137.9 48.6 L 137.0 48.3 L 136.4 47.8 L 136.0 46.6 L 135.9 45.1 L 136.1 43.6 L 136.6 42.6 L 137.5 42.3 L 138.1 42.2 L 139.0 42.5 L 139.3 43.0 M 158.7 67.1 L 158.2 67.4 L 158.0 68.4 L 158.1 69.0 L 158.5 69.8 L 159.5 70.3 L 161.0 70.3 L 162.5 70.1 L 163.7 69.6 L 164.2 68.9 L 164.3 68.0 L 164.3 67.7 L 163.8 66.9 L 163.2 66.4 L 162.2 66.2 L 161.9 66.3 L 161.1 66.7 L 160.6 67.4 L 160.4 68.3 L 160.5 68.6 L 160.9 69.4 L 161.6 70.0 L 162.5 70.1 M 159.1 61.6 L 160.0 61.7 L 160.7 62.2 L 161.1 63.1 L 161.2 63.4 L 161.0 64.3 L 160.5 65.0 L 159.7 65.4 L 159.4 65.5 L 158.4 65.3 L 157.8 64.8 L 157.3 64.0 L 157.3 63.7 L 157.4 62.7 L 157.9 62.1 L 159.1 61.6 L 160.6 61.4 L 162.1 61.4 L 163.1 61.9 L 163.5 62.7 L 163.6 63.3 L 163.4 64.3 L 162.9 64.6 M 131.1 339.2 L 130.9 339.0 L 130.7 338.3 L 130.7 337.9 L 130.9 337.3 L 131.8 336.5 L 132.5 336.3 L 132.9 336.3 L 133.5 336.6 L 133.9 337.0 L 134.1 337.7 L 134.3 338.7 L 134.1 343.0 L 137.2 340.1 M 134.7 335.8 L 134.9 335.2 L 135.0 333.9 L 139.2 338.6 M 158.6 253.0 L 158.4 253.2 L 157.8 253.6 L 157.4 253.7 L 156.7 253.6 L 155.7 252.9 L 155.4 252.3 L 155.3 251.9 L 155.4 251.2 L 155.8 250.7 L 156.3 250.4 L 157.3 250.0 L 161.5 249.2 L 158.1 246.8 M 150.2 249.1 L 156.2 245.6 M 153.7 251.5 L 150.2 249.1 M 169.1 297.4 L 168.8 297.2 L 168.5 296.6 L 168.4 296.2 L 168.6 295.5 L 169.3 294.6 L 169.9 294.3 L 170.3 294.2 L 170.9 294.3 L 171.4 294.7 L 171.7 295.3 L 172.1 296.3 L 172.7 300.5 L 175.2 297.1 M 173.7 290.1 L 173.0 289.9 L 172.3 290.5 L 171.9 291.0 L 171.6 291.9 L 172.0 292.9 L 173.0 294.0 L 174.2 294.9 L 175.4 295.4 L 176.2 295.3 L 177.0 294.7 L 177.2 294.5 L 177.4 293.6 L 177.3 292.7 L 176.8 291.9 L 176.5 291.8 L 175.6 291.5 L 174.8 291.6 L 174.0 292.2 L 173.8 292.4 L 173.5 293.3 L 173.7 294.1 L 174.2 294.9 M 107.6 235.2 L 108.1 230.1 L 104.2 232.4 M 107.6 235.2 L 104.4 229.8 M 70.2 300.3 L 72.1 293.5 M 74.4 299.5 L 70.2 300.3 M 67.3 300.8 L 68.2 300.4 L 68.6 299.4 L 68.6 297.8 L 68.5 296.9 L 67.9 295.5 L 67.1 294.7 L 66.2 294.6 L 65.6 294.7 L 64.8 295.2 L 64.4 296.2 L 64.3 297.7 L 64.5 298.6 L 65.1 300.0 L 65.8 300.8 L 66.7 300.9 L 67.2 300.8 M 60.7 336.0 L 56.2 333.5 L 56.7 337.9 M 60.7 336.0 L 54.5 336.7 M 59.5 339.3 L 59.8 339.2 L 60.5 339.5 L 60.8 339.7 L 61.2 340.3 L 61.3 341.5 L 61.1 342.1 L 60.8 342.4 L 60.3 342.8 L 59.7 342.9 L 59.0 342.7 L 58.1 342.2 L 54.7 339.5 L 55.2 343.7 M 144.5 623.4 L 141.7 624.5 L 142.4 627.1 L 142.6 626.7 L 143.3 626.1 L 144.1 625.8 L 145.1 625.7 L 145.9 626.1 L 146.5 626.8 L 146.7 627.3 L 146.8 628.3 L 146.4 629.1 L 145.7 629.7 L 144.9 630.0 L 143.9 630.1 L 143.5 629.9 L 143.0 629.5 M 147.5 622.2 L 146.8 622.8 L 146.7 623.5 L 146.9 624.0 L 147.4 624.5 L 148.1 624.5 L 149.3 624.3 L 150.3 624.3 L 151.1 624.6 L 151.6 625.1 L 151.9 625.9 L 151.8 626.6 L 151.7 627.0 L 151.0 627.6 L 149.8 628.0 L 148.9 628.1 L 148.5 627.9 L 148.0 627.5 L 147.7 626.6 L 147.7 626.0 L 148.1 625.2 L 148.8 624.6 L 149.8 623.8 L 150.2 623.3 L 150.3 622.7 L 150.1 622.1 L 149.6 621.7 L 148.6 621.7 L 147.4 622.2 M 99.3 599.4 L 100.9 602.3 L 97.9 601.9 L 98.4 602.7 L 98.4 603.3 L 98.3 603.8 L 97.7 604.5 L 97.1 604.8 L 96.2 604.9 L 95.4 604.7 L 94.7 604.1 L 94.2 603.3 L 94.0 602.4 L 94.2 602.0 L 94.5 601.4 M 101.9 604.0 L 103.5 606.9 L 100.6 606.5 L 101.0 607.3 L 101.1 608.0 L 100.9 608.4 L 100.3 609.1 L 99.8 609.4 L 98.9 609.6 L 98.0 609.4 L 97.3 608.7 L 96.9 607.9 L 96.7 607.0 L 96.8 606.6 L 97.2 606.0 M 106.5 565.7 L 106.7 558.8 M 110.3 564.1 L 106.5 565.7 M 104.9 566.4 L 101.8 567.7 L 102.5 564.8 L 101.7 565.2 L 101.0 565.1 L 100.6 565.0 L 100.0 564.3 L 99.8 563.7 L 99.7 562.8 L 100.0 562.0 L 100.7 561.3 L 101.5 561.0 L 102.5 560.9 L 102.9 561.1 L 103.4 561.5 M 156.1 561.1 L 160.6 555.7 M 160.2 562.1 L 156.1 561.1 M 155.4 559.4 L 154.8 559.6 L 153.7 560.2 L 155.2 554.1 M 115.6 488.8 L 108.6 489.3 M 113.5 485.2 L 115.6 488.8 M 116.5 490.3 L 118.1 493.2 L 115.1 492.8 L 115.5 493.6 L 115.6 494.3 L 115.5 494.7 L 114.8 495.4 L 114.3 495.7 L 113.4 495.9 L 112.6 495.6 L 111.8 495.0 L 111.4 494.2 L 111.2 493.3 L 111.3 492.9 L 111.7 492.3 M 122.3 481.2 L 121.7 481.4 L 121.3 482.3 L 121.2 482.9 L 121.4 483.8 L 122.2 484.5 L 123.6 485.0 L 125.1 485.2 L 126.3 485.1 L 127.0 484.6 L 127.4 483.7 L 127.5 483.4 L 127.3 482.5 L 126.8 481.8 L 125.9 481.4 L 125.6 481.4 L 124.7 481.6 L 124.0 482.1 L 123.6 482.9 L 123.6 483.2 L 123.8 484.1 L 124.3 484.8 L 125.1 485.2 M 121.8 478.2 L 122.0 479.1 L 122.6 479.5 L 123.2 479.6 L 123.8 479.4 L 124.2 478.8 L 124.6 477.7 L 125.1 476.8 L 125.7 476.3 L 126.4 476.1 L 127.3 476.2 L 127.8 476.6 L 128.1 476.9 L 128.2 477.8 L 128.1 479.0 L 127.7 479.9 L 127.3 480.1 L 126.7 480.4 L 125.8 480.2 L 125.2 479.9 L 124.7 479.2 L 124.6 478.2 L 124.4 477.0 L 124.2 476.4 L 123.7 476.0 L 123.1 475.9 L 122.4 476.1 L 122.0 477.0 L 121.8 478.3 M 113.1 418.9 L 112.8 419.5 L 113.0 420.4 L 113.3 420.9 L 114.1 421.5 L 115.1 421.5 L 116.6 421.0 L 117.9 420.2 L 118.7 419.3 L 118.9 418.5 L 118.7 417.6 L 118.5 417.3 L 117.8 416.7 L 117.0 416.5 L 116.0 416.7 L 115.8 416.9 L 115.2 417.6 L 115.0 418.5 L 115.2 419.4 L 115.4 419.6 L 116.1 420.2 L 116.9 420.4 L 117.9 420.2 M 109.5 414.7 L 116.4 413.9 M 111.7 418.3 L 109.5 414.7 M 369.0 194.6 L 369.3 197.8 L 366.7 196.3 L 366.8 197.1 L 366.6 197.8 L 366.3 198.1 L 365.4 198.5 L 364.8 198.5 L 363.9 198.3 L 363.3 197.7 L 362.9 196.9 L 362.8 196.0 L 363.0 195.0 L 363.3 194.7 L 363.9 194.4 M 369.6 201.1 L 369.2 200.2 L 368.2 199.7 L 366.7 199.5 L 365.8 199.6 L 364.3 200.0 L 363.5 200.7 L 363.3 201.6 L 363.3 202.2 L 363.7 203.1 L 364.6 203.6 L 366.2 203.8 L 367.1 203.7 L 368.5 203.3 L 369.4 202.6 L 369.6 201.7 L 369.6 201.2 M 383.8 227.5 L 383.7 226.8 L 382.9 226.3 L 382.3 226.1 L 381.4 226.2 L 380.6 226.9 L 379.9 228.3 L 379.5 229.7 L 379.5 230.9 L 379.9 231.7 L 380.7 232.2 L 381.0 232.3 L 381.9 232.2 L 382.6 231.8 L 383.2 231.0 L 383.3 230.7 L 383.2 229.8 L 382.8 229.1 L 382.0 228.5 L 381.7 228.4 L 380.8 228.5 L 380.0 228.9 L 379.5 229.7 M 386.0 227.1 L 389.2 228.0 L 386.8 229.9 L 387.7 230.1 L 388.2 230.5 L 388.4 230.9 L 388.5 231.9 L 388.3 232.4 L 387.8 233.2 L 387.1 233.6 L 386.1 233.7 L 385.2 233.5 L 384.5 232.9 L 384.2 232.6 L 384.1 231.9 M 422.0 204.1 L 427.1 204.9 L 425.0 200.9 M 422.0 204.1 L 427.5 201.2 M 419.1 198.6 L 420.5 201.2 L 423.1 200.3 L 422.7 200.1 L 422.0 199.5 L 421.6 198.7 L 421.4 197.7 L 421.7 196.9 L 422.3 196.2 L 422.9 196.0 L 423.8 195.8 L 424.6 196.1 L 425.3 196.7 L 425.7 197.5 L 425.8 198.5 L 425.7 198.9 L 425.3 199.4 M 448.8 264.8 L 447.5 269.8 L 451.7 268.2 M 448.8 264.8 L 451.1 270.7 M 455.0 262.4 L 454.5 269.4 M 451.1 264.0 L 455.0 262.4 M 406.7 271.5 L 403.6 277.8 M 402.5 271.4 L 406.7 271.5 M 408.4 273.0 L 408.4 272.7 L 408.7 272.1 L 409.0 271.8 L 409.6 271.5 L 410.8 271.6 L 411.4 271.9 L 411.7 272.2 L 412.0 272.8 L 412.0 273.4 L 411.7 274.0 L 411.1 274.9 L 408.0 277.8 L 412.2 277.9 M 400.4 261.7 L 401.0 261.7 L 401.7 261.0 L 402.0 260.5 L 402.1 259.6 L 401.6 258.6 L 400.4 257.7 L 399.1 257.0 L 397.8 256.7 L 397.0 257.0 L 396.4 257.6 L 396.2 257.9 L 396.1 258.9 L 396.4 259.7 L 397.0 260.3 L 397.3 260.5 L 398.2 260.6 L 399.0 260.3 L 399.7 259.7 L 399.8 259.4 L 400.0 258.5 L 399.7 257.7 L 399.1 257.0 M 399.2 266.2 L 396.8 261.6 L 394.7 265.7 M 399.2 266.2 L 393.5 263.4 M 94.7 72.5 L 94.2 67.4 L 90.8 70.4 M 94.7 72.5 L 90.6 67.8 M 91.8 73.1 L 91.6 73.7 L 91.5 75.0 L 87.3 70.3 M 73.6 114.6 L 74.0 114.1 L 74.0 113.2 L 73.7 112.6 L 73.1 111.9 L 72.1 111.7 L 70.6 112.0 L 69.2 112.5 L 68.2 113.3 L 67.8 114.0 L 67.9 115.0 L 68.0 115.3 L 68.6 116.0 L 69.4 116.3 L 70.4 116.3 L 70.6 116.1 L 71.4 115.5 L 71.7 114.8 L 71.6 113.8 L 71.5 113.5 L 70.9 112.8 L 70.1 112.5 L 69.2 112.5 M 75.5 119.3 L 75.9 118.8 L 75.9 117.9 L 75.6 117.3 L 75.0 116.6 L 74.0 116.4 L 72.5 116.7 L 71.1 117.2 L 70.1 117.9 L 69.7 118.7 L 69.8 119.7 L 69.9 119.9 L 70.5 120.7 L 71.3 121.0 L 72.2 120.9 L 72.5 120.8 L 73.2 120.2 L 73.6 119.4 L 73.5 118.5 L 73.4 118.2 L 72.8 117.5 L 72.0 117.2 L 71.1 117.2 M 78.6 121.0 L 77.9 121.0 L 77.3 121.8 L 77.0 122.3 L 77.0 123.2 L 77.6 124.2 L 78.8 125.0 L 80.2 125.6 L 81.4 125.8 L 82.2 125.5 L 82.8 124.8 L 82.9 124.5 L 83.0 123.6 L 82.7 122.8 L 82.0 122.1 L 81.7 122.0 L 80.8 121.9 L 80.0 122.3 L 79.4 123.0 L 79.2 123.2 L 79.2 124.2 L 79.5 125.0 L 80.2 125.6 M 79.7 116.0 L 78.5 118.8 L 80.9 120.1 L 80.7 119.7 L 80.8 118.8 L 81.2 117.9 L 81.8 117.2 L 82.6 116.9 L 83.5 117.0 L 84.1 117.2 L 84.8 117.9 L 85.1 118.6 L 85.0 119.6 L 84.7 120.4 L 84.1 121.1 L 83.7 121.3 L 83.0 121.3 M 49.7 484.5 L 52.5 482.7 L 52.3 485.7 L 53.0 485.2 L 53.7 485.2 L 54.1 485.3 L 54.9 485.9 L 55.2 486.4 L 55.4 487.3 L 55.2 488.1 L 54.6 488.9 L 53.9 489.3 L 52.9 489.6 L 52.5 489.5 L 52.0 489.1 M 54.2 481.6 L 57.0 479.9 L 56.8 482.9 L 57.6 482.4 L 58.2 482.3 L 58.6 482.4 L 59.4 483.0 L 59.7 483.5 L 59.9 484.4 L 59.7 485.3 L 59.1 486.0 L 58.4 486.5 L 57.5 486.7 L 57.0 486.6 L 56.5 486.3 M 49.3 444.9 L 48.4 448.1 L 46.6 445.7 L 46.4 446.6 L 45.9 447.1 L 45.5 447.3 L 44.6 447.3 L 44.0 447.2 L 43.2 446.6 L 42.8 445.9 L 42.8 445.0 L 43.0 444.1 L 43.5 443.3 L 43.9 443.1 L 44.5 443.0 M 46.2 452.7 L 46.9 452.6 L 47.4 451.8 L 47.6 451.2 L 47.5 450.3 L 46.8 449.4 L 45.4 448.8 L 44.0 448.4 L 42.8 448.3 L 42.0 448.8 L 41.5 449.5 L 41.4 449.8 L 41.5 450.8 L 41.9 451.5 L 42.7 452.0 L 43.0 452.1 L 43.9 452.1 L 44.7 451.6 L 45.2 450.9 L 45.3 450.6 L 45.2 449.6 L 44.8 448.9 L 44.0 448.4 M 75.5 167.0 L 75.2 167.6 L 75.1 168.9 L 71.1 164.0 M 101.5 195.2 L 104.7 199.2 L 105.9 194.9 M 101.5 195.2 L 107.5 196.9 M 80.2 214.3 L 79.4 214.8 L 79.3 215.5 L 79.4 216.0 L 79.9 216.5 L 80.5 216.6 L 81.8 216.6 L 82.7 216.6 L 83.5 217.1 L 83.9 217.5 L 84.2 218.4 L 84.0 219.1 L 83.8 219.4 L 83.1 220.0 L 81.9 220.3 L 81.0 220.3 L 80.6 220.1 L 80.1 219.6 L 79.9 218.7 L 80.0 218.0 L 80.4 217.3 L 81.2 216.8 L 82.3 216.1 L 82.8 215.7 L 82.9 215.0 L 82.7 214.5 L 82.3 214.0 L 81.3 213.9 L 80.0 214.3 M 63.0 200.4 L 63.4 201.0 L 64.5 201.6 L 58.4 203.1 M 485.4 152.8 L 486.9 157.8 L 489.6 154.2 M 485.4 152.8 L 490.4 156.7 M 488.9 148.2 L 490.4 153.2 L 493.2 149.6 M 488.9 148.2 L 493.9 152.1 M 444.3 162.9 L 440.9 166.8 L 445.4 167.2 M 444.3 162.9 L 443.7 169.1 M 450.5 163.5 L 447.5 163.2 L 447.0 165.9 L 447.3 165.6 L 448.2 165.4 L 449.1 165.4 L 450.0 165.8 L 450.5 166.5 L 450.7 167.4 L 450.7 168.0 L 450.3 168.9 L 449.7 169.4 L 448.7 169.6 L 447.8 169.6 L 447.0 169.2 L 446.7 168.8 L 446.5 168.2 M 416.8 103.5 L 416.2 103.5 L 414.9 103.8 L 418.1 98.4 M 414.6 102.2 L 413.9 102.2 L 412.7 102.5 L 415.9 97.1 M 434.2 85.3 L 434.6 85.8 L 435.7 86.5 L 429.5 87.8 M 434.7 87.8 L 435.2 88.3 L 436.2 89.0 L 430.1 90.3 M 546.8 86.3 L 546.1 86.3 L 545.4 86.9 L 545.1 87.4 L 544.9 88.4 L 545.4 89.3 L 546.6 90.3 L 547.9 91.1 L 549.1 91.4 L 549.9 91.2 L 550.6 90.5 L 550.7 90.3 L 550.9 89.3 L 550.7 88.5 L 550.1 87.8 L 549.8 87.7 L 548.9 87.5 L 548.0 87.7 L 547.3 88.4 L 547.2 88.6 L 547.0 89.5 L 547.2 90.4 L 547.9 91.1 M 550.4 82.2 L 551.1 82.9 L 551.3 83.8 L 551.1 84.7 L 551.0 85.0 L 550.3 85.6 L 549.5 85.8 L 548.5 85.6 L 548.3 85.5 L 547.6 84.8 L 547.4 84.0 L 547.6 83.0 L 547.7 82.8 L 548.4 82.1 L 549.2 81.9 L 550.4 82.2 L 551.7 83.0 L 552.9 84.0 L 553.4 84.9 L 553.2 85.9 L 552.9 86.4 L 552.2 87.0 L 551.5 87.0 M 439.7 59.3 L 440.4 59.3 L 441.0 58.6 L 441.3 58.1 L 441.4 57.1 L 440.8 56.2 L 439.6 55.3 L 438.2 54.7 L 437.0 54.4 L 436.2 54.7 L 435.6 55.4 L 435.4 55.7 L 435.3 56.6 L 435.6 57.4 L 436.3 58.1 L 436.6 58.2 L 437.5 58.3 L 438.3 58.0 L 439.0 57.3 L 439.1 57.1 L 439.2 56.1 L 438.9 55.3 L 438.2 54.7 M 543.5 53.2 L 543.3 53.4 L 542.7 53.6 L 542.3 53.6 L 541.6 53.4 L 540.7 52.6 L 540.5 52.0 L 540.5 51.5 L 540.7 50.9 L 541.1 50.5 L 541.7 50.2 L 542.8 50.0 L 547.0 49.9 L 544.0 47.0 M 538.4 50.4 L 536.0 48.1 L 538.9 47.6 L 538.3 47.0 L 538.1 46.4 L 538.1 45.9 L 538.5 45.1 L 538.9 44.6 L 539.7 44.2 L 540.5 44.2 L 541.4 44.6 L 542.1 45.2 L 542.5 46.0 L 542.5 46.4 L 542.3 47.1 M 488.2 35.9 L 488.3 36.2 L 488.1 36.9 L 487.8 37.2 L 487.3 37.6 L 486.1 37.8 L 485.4 37.6 L 485.1 37.3 L 484.7 36.8 L 484.6 36.2 L 484.8 35.5 L 485.3 34.5 L 487.8 31.1 L 483.7 31.8 M 479.3 36.7 L 479.4 35.7 L 480.0 35.0 L 480.8 34.6 L 481.1 34.6 L 482.0 34.7 L 482.7 35.2 L 483.1 36.1 L 483.2 36.4 L 483.0 37.3 L 482.5 38.0 L 481.7 38.4 L 481.4 38.5 L 480.4 38.3 L 479.8 37.8 L 479.3 36.7 L 479.1 35.2 L 479.1 33.6 L 479.6 32.7 L 480.4 32.2 L 481.0 32.1 L 482.0 32.3 L 482.4 32.9 M 590.9 483.0 L 591.5 480.1 L 588.9 479.2 L 589.2 479.6 L 589.3 480.5 L 589.1 481.4 L 588.6 482.2 L 587.9 482.7 L 587.0 482.8 L 586.4 482.7 L 585.6 482.2 L 585.1 481.5 L 585.0 480.6 L 585.2 479.7 L 585.6 478.9 L 586.0 478.6 L 586.6 478.5 M 589.7 488.7 L 584.2 484.5 M 590.6 484.6 L 589.7 488.7 M 683.9 396.3 L 688.8 398.1 L 687.5 393.7 M 683.9 396.3 L 690.0 394.6 M 684.6 392.9 L 684.3 392.9 L 683.6 392.8 L 683.2 392.6 L 682.8 392.1 L 682.5 391.0 L 682.6 390.3 L 682.8 389.9 L 683.3 389.5 L 683.9 389.3 L 684.5 389.4 L 685.6 389.8 L 689.3 391.9 L 688.1 387.8 M 639.6 350.6 L 639.5 353.9 L 637.2 352.1 L 637.2 353.0 L 636.9 353.6 L 636.5 353.9 L 635.6 354.2 L 635.0 354.2 L 634.1 353.9 L 633.6 353.3 L 633.3 352.4 L 633.3 351.5 L 633.6 350.6 L 633.9 350.3 L 634.5 350.0 M 639.5 359.0 L 639.5 356.0 L 636.8 355.6 L 637.1 355.9 L 637.4 356.8 L 637.4 357.7 L 637.1 358.6 L 636.5 359.2 L 635.6 359.5 L 635.0 359.5 L 634.1 359.2 L 633.5 358.6 L 633.2 357.7 L 633.2 356.8 L 633.5 355.9 L 633.8 355.6 L 634.4 355.3 M 657.2 339.7 L 654.8 337.4 L 657.8 336.9 L 657.2 336.3 L 656.9 335.7 L 656.9 335.3 L 657.3 334.4 L 657.7 334.0 L 658.6 333.5 L 659.4 333.5 L 660.3 333.9 L 660.9 334.5 L 661.4 335.4 L 661.4 335.8 L 661.2 336.5 M 651.5 334.3 L 656.6 333.3 L 653.3 330.2 M 651.5 334.3 L 655.9 329.8 M 617.3 292.5 L 617.8 292.9 L 619.0 293.4 L 613.2 296.0 M 621.3 298.0 L 614.4 297.9 M 619.6 294.2 L 621.3 298.0 M 649.3 263.5 L 649.4 262.9 L 649.2 261.6 L 654.3 265.4 M 652.5 258.2 L 651.9 258.1 L 651.1 258.6 L 650.8 259.1 L 650.5 260.0 L 650.8 261.0 L 651.9 262.2 L 653.1 263.1 L 654.2 263.5 L 655.1 263.4 L 655.8 262.8 L 656.0 262.6 L 656.3 261.7 L 656.2 260.9 L 655.6 260.1 L 655.4 259.9 L 654.5 259.6 L 653.6 259.8 L 652.9 260.3 L 652.7 260.5 L 652.4 261.4 L 652.5 262.3 L 653.1 263.1 M 616.8 390.5 L 619.3 388.8 L 618.0 386.4 L 617.9 386.8 L 617.3 387.6 L 616.6 388.1 L 615.7 388.4 L 614.8 388.2 L 614.1 387.6 L 613.7 387.1 L 613.5 386.2 L 613.6 385.4 L 614.2 384.6 L 614.9 384.1 L 615.9 383.9 L 616.3 383.9 L 616.9 384.3 M 614.9 391.8 L 612.2 393.7 L 612.3 390.7 L 611.5 391.2 L 610.9 391.3 L 610.5 391.2 L 609.7 390.7 L 609.4 390.2 L 609.1 389.3 L 609.2 388.4 L 609.8 387.7 L 610.6 387.2 L 611.5 386.9 L 611.9 387.0 L 612.5 387.3 M 575.4 434.8 L 572.5 434.1 L 571.6 436.6 L 571.9 436.4 L 572.9 436.3 L 573.8 436.5 L 574.6 437.1 L 575.0 437.8 L 575.1 438.7 L 574.9 439.3 L 574.4 440.1 L 573.7 440.5 L 572.7 440.6 L 571.8 440.4 L 571.0 439.9 L 570.8 439.5 L 570.7 438.9 M 580.2 435.9 L 576.2 439.3 L 580.6 440.4 M 580.2 435.9 L 578.6 442.1 M 583.1 422.6 L 584.9 420.2 L 582.9 418.4 L 583.0 418.8 L 582.7 419.7 L 582.1 420.4 L 581.4 421.0 L 580.5 421.1 L 579.6 420.8 L 579.1 420.4 L 578.6 419.7 L 578.5 418.8 L 578.7 417.9 L 579.3 417.2 L 580.1 416.6 L 580.5 416.6 L 581.1 416.7 M 580.6 423.5 L 580.8 423.7 L 581.1 424.3 L 581.2 424.7 L 581.1 425.4 L 580.4 426.4 L 579.8 426.7 L 579.3 426.7 L 578.7 426.6 L 578.2 426.3 L 577.9 425.7 L 577.5 424.7 L 576.9 420.5 L 574.4 423.9 M 642.3 248.7 L 641.8 249.1 L 641.3 250.3 L 639.3 244.3 M 636.4 252.2 L 637.2 245.2 M 640.4 250.8 L 636.4 252.2 M 665.3 239.9 L 665.3 239.3 L 665.0 238.1 L 670.5 241.1 M 666.1 235.6 L 665.9 236.6 L 666.3 237.1 L 666.8 237.4 L 667.5 237.4 L 668.0 237.1 L 668.9 236.1 L 669.6 235.5 L 670.4 235.3 L 671.0 235.3 L 671.8 235.7 L 672.2 236.3 L 672.3 236.7 L 672.1 237.6 L 671.6 238.7 L 670.9 239.3 L 670.5 239.4 L 669.8 239.4 L 669.0 239.0 L 668.6 238.4 L 668.4 237.6 L 668.6 236.7 L 668.9 235.5 L 668.9 234.8 L 668.5 234.3 L 668.0 234.0 L 667.3 233.9 L 666.6 234.6 L 666.0 235.8 M 563.2 128.8 L 560.1 127.6 L 562.6 126.0 L 561.8 125.7 L 561.3 125.2 L 561.1 124.8 L 561.2 123.9 L 561.4 123.3 L 562.0 122.6 L 562.7 122.2 L 563.7 122.2 L 564.5 122.6 L 565.3 123.2 L 565.4 123.5 L 565.5 124.2 M 555.8 123.8 L 556.4 123.1 L 557.2 122.7 L 558.1 122.7 L 558.4 122.9 L 559.1 123.4 L 559.5 124.2 L 559.5 125.2 L 559.4 125.4 L 558.8 126.2 L 558.0 126.5 L 557.0 126.5 L 556.8 126.4 L 556.0 125.8 L 555.7 125.0 L 555.8 123.8 L 556.3 122.4 L 557.1 121.1 L 558.0 120.5 L 558.9 120.5 L 559.5 120.7 L 560.2 121.3 L 560.3 122.0 M 621.4 145.9 L 625.4 142.6 L 621.0 141.5 M 621.4 145.9 L 623.0 139.8 M 619.3 143.9 L 618.7 144.0 L 617.6 144.6 L 619.2 138.5 M 647.6 165.8 L 647.5 165.1 L 646.9 164.0 L 652.9 165.7 M 648.8 159.6 L 648.1 159.8 L 647.6 160.5 L 647.4 161.1 L 647.5 162.1 L 648.2 162.9 L 649.6 163.6 L 651.0 164.0 L 652.2 164.0 L 653.0 163.5 L 653.5 162.8 L 653.6 162.5 L 653.5 161.5 L 653.1 160.8 L 652.3 160.3 L 652.0 160.2 L 651.1 160.2 L 650.3 160.7 L 649.8 161.5 L 649.7 161.7 L 649.8 162.7 L 650.2 163.4 L 651.0 164.0 M 381.5 89.6 L 381.7 90.3 L 382.5 90.8 L 383.0 91.0 L 384.0 90.9 L 384.8 90.2 L 385.5 88.9 L 385.9 87.4 L 386.0 86.2 L 385.5 85.4 L 384.8 84.9 L 384.5 84.8 L 383.5 84.9 L 382.8 85.3 L 382.2 86.1 L 382.2 86.3 L 382.2 87.3 L 382.6 88.0 L 383.4 88.6 L 383.7 88.6 L 384.6 88.6 L 385.4 88.2 L 385.9 87.4 M 375.0 104.4 L 374.8 101.5 L 372.1 101.4 L 372.4 101.7 L 372.8 102.5 L 372.8 103.4 L 372.6 104.3 L 372.1 105.0 L 371.2 105.4 L 370.6 105.4 L 369.7 105.2 L 369.0 104.6 L 368.6 103.8 L 368.6 102.9 L 368.8 101.9 L 369.1 101.6 L 369.6 101.3 M 66.2 280.6 L 63.3 286.9 M 62.0 280.7 L 66.2 280.6 M 69.2 280.6 L 68.3 280.9 L 67.7 281.8 L 67.4 283.3 L 67.4 284.2 L 67.7 285.7 L 68.3 286.6 L 69.2 286.9 L 69.8 286.9 L 70.7 286.6 L 71.3 285.7 L 71.6 284.2 L 71.6 283.3 L 71.3 281.8 L 70.7 280.9 L 69.8 280.6 L 69.3 280.6 M 45.4 255.5 L 46.4 258.6 L 43.6 257.6 L 43.8 258.5 L 43.7 259.1 L 43.5 259.5 L 42.8 260.1 L 42.2 260.2 L 41.2 260.2 L 40.5 259.8 L 39.9 259.0 L 39.7 258.2 L 39.7 257.2 L 39.9 256.9 L 40.4 256.4 M 47.8 263.0 L 42.9 261.4 L 44.2 265.7 M 47.8 263.0 L 41.8 264.8 M 60.6 244.2 L 60.8 244.8 L 61.7 245.1 L 62.3 245.1 L 63.2 244.8 L 63.9 243.9 L 64.2 242.5 L 64.2 241.0 L 64.0 239.7 L 63.4 239.1 L 62.5 238.8 L 62.2 238.8 L 61.3 239.1 L 60.7 239.7 L 60.4 240.5 L 60.3 240.8 L 60.6 241.8 L 61.2 242.4 L 62.1 242.7 L 62.4 242.7 L 63.3 242.4 L 63.9 241.8 L 64.2 241.0 M 58.6 243.5 L 58.6 243.8 L 58.3 244.4 L 58.0 244.7 L 57.4 245.0 L 56.2 244.9 L 55.6 244.6 L 55.3 244.3 L 55.0 243.7 L 55.0 243.1 L 55.3 242.5 L 56.0 241.6 L 59.0 238.7 L 54.8 238.6 M 651.5 198.2 L 651.0 197.8 L 649.8 197.4 L 655.5 194.7 M 648.5 195.1 L 649.1 195.7 L 649.8 195.8 L 650.4 195.5 L 650.8 195.0 L 650.8 194.3 L 650.5 193.1 L 650.4 192.2 L 650.7 191.4 L 651.1 190.8 L 652.0 190.4 L 652.6 190.5 L 653.0 190.6 L 653.7 191.3 L 654.2 192.4 L 654.3 193.3 L 654.2 193.7 L 653.7 194.3 L 652.9 194.6 L 652.3 194.6 L 651.5 194.3 L 650.8 193.6 L 650.0 192.7 L 649.5 192.3 L 648.8 192.2 L 648.3 192.5 L 647.9 193.0 L 648.0 194.0 L 648.5 195.2 M 644.8 217.0 L 646.3 214.0 L 647.6 216.8 L 648.1 216.0 L 648.6 215.6 L 649.0 215.4 L 649.9 215.6 L 650.5 215.9 L 651.1 216.5 L 651.4 217.3 L 651.2 218.3 L 650.8 219.1 L 650.1 219.7 L 649.7 219.9 L 649.1 219.9 M 648.7 209.6 L 647.3 212.2 L 649.5 213.8 L 649.4 213.3 L 649.6 212.4 L 650.0 211.6 L 650.7 211.0 L 651.5 210.7 L 652.4 210.8 L 652.9 211.1 L 653.6 211.8 L 653.8 212.6 L 653.7 213.6 L 653.3 214.4 L 652.6 215.0 L 652.2 215.1 L 651.5 215.1 M 619.9 225.8 L 616.9 226.2 L 617.0 228.9 L 617.3 228.6 L 618.1 228.2 L 619.0 228.0 L 619.9 228.2 L 620.6 228.7 L 621.0 229.6 L 621.1 230.2 L 620.9 231.1 L 620.4 231.8 L 619.6 232.2 L 618.7 232.3 L 617.8 232.1 L 617.4 231.9 L 617.0 231.3 M 622.2 225.5 L 625.5 225.0 L 624.0 227.6 L 624.9 227.5 L 625.6 227.7 L 625.9 228.0 L 626.3 228.8 L 626.4 229.4 L 626.2 230.4 L 625.7 231.0 L 624.9 231.5 L 624.0 231.6 L 623.0 231.4 L 622.7 231.2 L 622.3 230.6 M 548.7 174.5 L 545.9 175.4 L 546.5 178.1 L 546.6 177.7 L 547.4 177.1 L 548.3 176.8 L 549.2 176.8 L 550.0 177.2 L 550.5 178.0 L 550.7 178.6 L 550.7 179.5 L 550.3 180.3 L 549.6 180.8 L 548.7 181.1 L 547.8 181.1 L 547.4 180.9 L 546.9 180.4 M 552.1 173.4 L 551.3 173.9 L 551.1 175.0 L 551.2 176.5 L 551.5 177.3 L 552.3 178.7 L 553.1 179.3 L 554.1 179.3 L 554.7 179.1 L 555.4 178.6 L 555.7 177.5 L 555.5 176.0 L 555.2 175.2 L 554.5 173.8 L 553.6 173.2 L 552.7 173.2 L 552.3 173.3 M 519.1 162.5 L 514.6 160.0 L 515.1 164.5 M 519.1 162.5 L 512.9 163.3 M 519.6 166.6 L 519.2 165.8 L 518.5 165.5 L 517.9 165.6 L 517.4 166.0 L 517.2 166.6 L 517.0 167.9 L 516.8 168.8 L 516.3 169.4 L 515.7 169.8 L 514.8 169.9 L 514.2 169.7 L 513.9 169.4 L 513.5 168.6 L 513.3 167.4 L 513.5 166.5 L 513.8 166.1 L 514.3 165.8 L 515.2 165.7 L 515.9 165.9 L 516.5 166.4 L 516.9 167.3 L 517.4 168.4 L 517.8 169.0 L 518.4 169.2 L 519.0 169.1 L 519.5 168.7 L 519.7 167.8 L 519.6 166.5 M 471.7 236.0 L 475.4 239.7 L 476.1 235.2 M 471.7 236.0 L 478.0 237.0 M 472.5 231.9 L 472.6 232.9 L 473.2 233.3 L 473.7 233.4 L 474.4 233.2 L 474.8 232.6 L 475.3 231.5 L 475.7 230.6 L 476.4 230.1 L 477.0 229.9 L 477.9 230.1 L 478.5 230.5 L 478.7 230.8 L 478.9 231.8 L 478.7 232.9 L 478.2 233.8 L 477.9 234.0 L 477.3 234.2 L 476.4 234.1 L 475.8 233.7 L 475.3 233.0 L 475.2 232.1 L 475.1 230.8 L 474.9 230.2 L 474.3 229.8 L 473.7 229.7 L 473.1 229.9 L 472.6 230.8 L 472.4 232.1 M 470.2 223.4 L 471.0 218.3 L 467.0 220.4 M 470.2 223.4 L 467.4 217.8 M 465.1 226.1 L 465.8 220.9 L 461.8 223.0 M 465.1 226.1 L 462.2 220.4 M 562.9 196.9 L 565.4 195.3 L 564.2 192.8 L 564.2 193.2 L 563.6 194.0 L 562.8 194.5 L 561.9 194.7 L 561.1 194.5 L 560.3 193.9 L 560.0 193.4 L 559.8 192.5 L 559.9 191.6 L 560.5 190.9 L 561.3 190.4 L 562.2 190.2 L 562.6 190.3 L 563.2 190.6 M 559.9 198.8 L 560.5 198.0 L 560.5 197.0 L 560.0 195.5 L 559.5 194.8 L 558.4 193.7 L 557.5 193.2 L 556.5 193.5 L 556.0 193.8 L 555.4 194.5 L 555.4 195.6 L 556.0 197.0 L 556.5 197.8 L 557.5 198.9 L 558.5 199.3 L 559.4 199.1 L 559.8 198.9 M 571.0 245.0 L 568.4 246.7 L 569.7 249.1 L 569.8 248.7 L 570.3 247.9 L 571.1 247.4 L 572.0 247.2 L 572.8 247.4 L 573.6 248.0 L 573.9 248.5 L 574.2 249.4 L 574.0 250.2 L 573.4 251.0 L 572.6 251.4 L 571.7 251.7 L 571.3 251.6 L 570.7 251.3 M 573.7 245.0 L 573.5 244.8 L 573.4 244.1 L 573.5 243.7 L 573.9 243.1 L 574.9 242.5 L 575.5 242.4 L 575.9 242.5 L 576.5 242.8 L 576.8 243.3 L 576.9 244.0 L 576.9 245.1 L 576.0 249.2 L 579.6 246.9 M 520.2 234.6 L 518.0 229.9 L 515.8 233.8 M 520.2 234.6 L 514.7 231.5 M 516.9 240.4 L 512.9 234.7 M 518.9 236.7 L 516.9 240.4 M 505.6 277.2 L 499.7 273.5 M 506.1 273.0 L 505.6 277.2 M 503.9 278.7 L 504.2 278.7 L 504.8 279.1 L 505.1 279.4 L 505.3 280.0 L 505.1 281.2 L 504.8 281.8 L 504.4 282.1 L 503.8 282.3 L 503.2 282.2 L 502.6 281.8 L 501.8 281.1 L 499.2 277.8 L 498.7 282.0 M 511.3 304.7 L 513.9 306.7 L 511.0 307.5 L 511.7 308.1 L 512.0 308.7 L 512.1 309.1 L 511.7 310.0 L 511.4 310.5 L 510.6 311.0 L 509.7 311.1 L 508.8 310.8 L 508.1 310.2 L 507.6 309.4 L 507.6 309.0 L 507.7 308.3 M 514.5 309.1 L 514.7 308.9 L 515.3 308.6 L 515.7 308.5 L 516.4 308.7 L 517.3 309.4 L 517.6 310.0 L 517.7 310.5 L 517.5 311.1 L 517.2 311.6 L 516.6 311.9 L 515.5 312.2 L 511.3 312.7 L 514.6 315.3 M 572.1 274.3 L 575.1 274.5 L 575.6 271.8 L 575.3 272.1 L 574.3 272.3 L 573.4 272.2 L 572.6 271.9 L 572.0 271.2 L 571.8 270.3 L 571.8 269.7 L 572.2 268.8 L 572.8 268.3 L 573.7 268.1 L 574.6 268.1 L 575.5 268.5 L 575.8 268.8 L 576.0 269.4 M 567.2 274.0 L 570.5 270.0 L 566.0 269.7 M 567.2 274.0 L 567.7 267.7 M 582.9 306.0 L 583.3 309.0 L 586.0 308.9 L 585.7 308.7 L 585.3 307.8 L 585.2 306.9 L 585.3 306.0 L 585.8 305.3 L 586.7 304.9 L 587.3 304.8 L 588.2 305.0 L 588.9 305.5 L 589.3 306.4 L 589.4 307.2 L 589.3 308.2 L 589.0 308.5 L 588.4 308.9 M 582.1 300.3 L 588.8 302.4 M 582.7 304.4 L 582.1 300.3 M 560.9 324.7 L 556.8 330.3 M 556.8 323.9 L 560.9 324.7 M 565.2 325.4 L 561.4 329.0 L 565.8 329.8 M 565.2 325.4 L 564.0 331.6 M 652.2 537.4 L 649.9 535.4 L 647.9 537.2 L 648.4 537.2 L 649.2 537.5 L 649.9 538.1 L 650.4 539.0 L 650.4 539.8 L 650.1 540.7 L 649.7 541.1 L 648.8 541.6 L 648.0 541.6 L 647.1 541.3 L 646.4 540.7 L 646.0 539.9 L 645.9 539.4 L 646.1 538.8 M 655.0 542.7 L 654.2 543.1 L 653.4 543.2 L 652.5 542.8 L 652.3 542.6 L 651.8 541.8 L 651.7 541.0 L 652.1 540.1 L 652.3 539.9 L 653.1 539.4 L 654.0 539.3 L 654.8 539.7 L 655.1 539.9 L 655.5 540.7 L 655.6 541.6 L 655.0 542.7 L 654.0 543.8 L 652.8 544.7 L 651.8 545.0 L 650.9 544.6 L 650.5 544.2 L 650.0 543.4 L 650.1 542.8 M 676.5 500.5 L 677.4 497.3 L 679.2 499.7 L 679.4 498.8 L 679.9 498.3 L 680.3 498.1 L 681.2 498.0 L 681.8 498.2 L 682.6 498.7 L 683.0 499.4 L 683.1 500.4 L 682.8 501.3 L 682.3 502.1 L 681.9 502.3 L 681.3 502.4 M 679.5 492.7 L 678.9 492.8 L 678.4 493.6 L 678.2 494.2 L 678.3 495.1 L 679.0 495.9 L 680.3 496.6 L 681.8 497.0 L 683.0 497.0 L 683.8 496.6 L 684.3 495.8 L 684.4 495.5 L 684.3 494.6 L 683.9 493.8 L 683.1 493.3 L 682.8 493.2 L 681.9 493.3 L 681.1 493.7 L 680.6 494.5 L 680.5 494.8 L 680.6 495.7 L 681.0 496.5 L 681.8 497.0 M 672.0 292.2 L 672.1 292.8 L 672.9 293.3 L 673.5 293.5 L 674.5 293.4 L 675.3 292.7 L 675.9 291.3 L 676.3 289.8 L 676.3 288.6 L 675.8 287.9 L 675.0 287.4 L 674.7 287.3 L 673.8 287.4 L 673.1 287.8 L 672.6 288.6 L 672.5 288.9 L 672.6 289.9 L 673.0 290.6 L 673.8 291.1 L 674.1 291.2 L 675.0 291.1 L 675.8 290.6 L 676.3 289.8 M 667.1 291.0 L 667.2 291.6 L 668.0 292.1 L 668.6 292.3 L 669.6 292.2 L 670.4 291.5 L 671.0 290.1 L 671.4 288.6 L 671.4 287.4 L 670.9 286.7 L 670.1 286.2 L 669.8 286.1 L 668.9 286.2 L 668.2 286.6 L 667.7 287.4 L 667.6 287.7 L 667.7 288.6 L 668.1 289.4 L 668.9 289.9 L 669.2 289.9 L 670.1 289.9 L 670.9 289.4 L 671.4 288.6 M 667.0 315.2 L 666.9 314.5 L 666.2 313.9 L 665.7 313.6 L 664.7 313.5 L 663.8 314.1 L 663.0 315.4 L 662.4 316.8 L 662.2 318.0 L 662.5 318.8 L 663.2 319.4 L 663.5 319.5 L 664.4 319.6 L 665.2 319.3 L 665.8 318.6 L 665.9 318.3 L 666.0 317.4 L 665.7 316.6 L 665.0 315.9 L 664.7 315.8 L 663.8 315.7 L 663.0 316.0 L 662.4 316.8 M 668.5 316.5 L 668.7 316.2 L 669.2 315.8 L 669.6 315.6 L 670.2 315.6 L 671.3 316.1 L 671.8 316.6 L 671.9 317.0 L 672.0 317.6 L 671.7 318.2 L 671.2 318.6 L 670.3 319.2 L 666.4 320.8 L 670.2 322.4 M 686.5 312.2 L 686.7 313.1 L 687.2 313.5 L 687.8 313.6 L 688.5 313.4 L 688.8 312.9 L 689.3 311.7 L 689.8 310.9 L 690.4 310.4 L 691.1 310.2 L 692.0 310.3 L 692.5 310.7 L 692.8 311.0 L 692.9 312.0 L 692.7 313.2 L 692.3 314.0 L 692.0 314.2 L 691.3 314.5 L 690.4 314.3 L 689.9 313.9 L 689.4 313.2 L 689.2 312.3 L 689.1 311.1 L 688.9 310.4 L 688.4 310.0 L 687.8 310.0 L 687.1 310.2 L 686.7 311.0 L 686.5 312.3"
       id="nums_001"
       stroke="black"
       stroke-width="1" />
    <path
       d="m 593.8,257.9 85.4,-29 -12.1,21.9 -20.3,27.6 51.3,12.7 -6.6,42.7 -52.1,-22.6 40.1,38.4 23.5,84.1 -34.7,128.9 -40.8,-36.1 39.3,37.8 -49.1,63.9 -58.8,-3.4 -65.6,-4.7 -44.6,-10.2 -57.5,-18.7 -50.5,-19.6 23.1,49 -2.5,60.4 -26.1,37.6 -65.7,-4 -52.2,-27.3 -79.4,-13.2 44.9,-57.2 -67.5,27.1 -41.8,-73 57.4,-24.8 52.5,13.3 -17.8,-51.1 -16.4,-79.7 -47.2,-41.5 33.3,53.3 -11,80.6 -30.7,-54.6 -71.1,45 35.3,-128.7 -10.1,-86.8 40,-7.3 -40.6,0.3 -16.3,-53 56.8,1.5 32.3,-19.2 76.9,52.8 -38.8,52.7 -37.6,34.2 41.1,-30 45.7,-46.8 42.6,-65.9 -71.5,32.5 -63.8,-68.1 -10.3,36.2 -41.6,12 -12,-49.3 39.2,-32.2 4.9,-44.4 -17.6,41.1 -19.7,-49 60,-52.4 44.4,-3.1 8,52.1 -11.4,55.8 37.9,-42.5 47.6,38.2 74.8,-31.2 50.2,20 -4.4,-53.9 40.5,11.5 26.3,15.5 -6.5,-29.8 17.5,-38.3 80.1,-12.1 44.3,41.9 -25.8,45.9 41.7,15.5 77,20.2 -8.8,33.1 10.6,22.6 -14.2,27.2 -49.1,6.8 -42.4,27.7 30.3,2.2 9.8,72.7 -70.3,-13.4 -31.2,-24.4 6,-49 22.9,-40.5 67.8,-43.2 -76.3,25.2 -7,-56.8 -28.4,36.7 -66.5,-5.9 30.8,59.3 41.3,-21.1 -9.1,56.6 -43.4,16.9 -49.3,-0.7 19.9,-39.1 -39.4,-10.7 -4.9,-59.5 -59.3,6.2 23.6,33.3 -24.6,36.3 23.9,31.6 -29,16.1 -7.5,56.2 -23.6,43.3 -18.3,48.5 11.7,72 -41.7,25.3 48.3,-7.1 61.8,-38.7 51.7,-4.5 49.1,3.3 54.8,-14.8 31.8,9.3 63.7,32.5 14.8,-71.9 -29.4,-7.5 29.9,-40.8 40.8,-28.2 0.2,-30.7 z"
       id="coupes_001"
       stroke="#ff0000"
       stroke-width="1.27"
       sodipodi:nodetypes="ccccccccccccccccccccccccccccccccccccccccccccccccccccccccccccccccccccccccccccccccccccccccccccccccccccccccccccccccccccccccccc" />
    <path
       d="M 340.7 571.6 L 182.8 616.9 M 262.2 531.8 L 340.7 571.6 M 217.3 687.3 L 182.8 616.9 M 182.8 616.9 L 183.4 559.5 M 183.4 559.5 L 262.2 531.8 M 363.8 620.6 L 217.3 687.3 M 183.4 559.5 L 213.9 538.9 M 363.8 620.6 L 269.5 714.6 M 361.3 681.0 L 269.5 714.6 M 324.0 493.1 L 340.7 571.6 M 375.7 488.6 L 340.7 571.6 M 165.6 508.4 L 213.9 538.9 M 424.8 491.9 L 391.2 591.2 M 424.8 491.9 L 448.7 609.9 M 479.6 477.1 L 448.7 609.9 M 511.4 486.4 L 448.7 609.9 M 511.4 486.4 L 493.3 620.1 M 575.1 518.9 L 493.3 620.1 M 575.1 518.9 L 558.9 624.8 M 575.1 518.9 L 617.7 628.2 M 627.5 526.5 L 617.7 628.2 M 575.1 518.9 L 627.5 526.5 M 149.2 428.7 L 213.9 538.9 M 149.2 428.7 L 243.9 441.6 M 149.2 428.7 L 120.4 358.0 M 120.4 358.0 L 243.9 441.6 M 161.5 328.0 L 243.9 441.6 M 161.5 328.0 L 262.2 393.1 M 207.2 281.2 L 262.2 393.1 M 207.2 281.2 L 285.8 349.8 M 298.4 245.9 L 293.3 293.6 M 249.8 215.3 L 298.4 245.9 M 299.4 176.3 L 298.4 245.9 M 249.8 215.3 L 299.4 176.3 M 249.8 215.3 L 243.9 142.2 M 318.7 111.0 L 299.4 176.3 M 318.7 111.0 L 358.7 170.1 M 368.9 131.0 L 358.7 170.1 M 102.0 387.2 L 120.4 358.0 M 158.4 146.5 L 243.9 142.2 M 249.8 215.3 L 158.4 146.5 M 178.3 247.8 L 158.4 146.5 M 114.5 179.7 L 158.4 146.5 M 89.8 146.4 L 158.4 146.5 M 94.7 102.0 L 169.8 90.7 M 94.7 102.0 L 117.4 41.7 M 117.4 41.7 L 169.8 90.7 M 102.0 387.2 L 87.7 288.7 M 87.7 288.7 L 120.4 358.0 M 87.7 288.7 L 158.0 323.8 M 87.7 288.7 L 119.9 218.3 M 119.9 218.3 L 158.0 323.8 M 87.7 288.7 L 87.6 237.5 M 102.0 387.2 L 47.7 296.0 M 102.0 387.2 L 57.8 382.8 M 73.5 571.0 L 183.4 559.5 M 93.6 466.5 L 57.8 382.8 M 102.0 387.2 L 93.6 466.5 M 102.0 387.2 L 124.3 521.1 M 368.9 131.0 L 412.8 168.4 M 412.8 168.4 L 358.7 170.1 M 412.8 168.4 L 403.0 240.3 M 443.6 227.7 L 432.4 280.1 M 432.4 280.1 L 403.0 240.3 M 443.6 227.7 L 475.8 263.2 M 94.7 102.0 L 57.4 94.1 M 114.5 179.7 L 50.6 178.6 M 104.2 215.9 L 50.6 178.6 M 431.3 104.1 L 412.8 168.4 M 368.9 131.0 L 431.3 104.1 M 431.3 104.1 L 507.7 137.6 M 507.7 137.6 L 412.8 168.4 M 368.9 131.0 L 405.0 88.6 M 431.3 104.1 L 540.9 111.7 M 424.8 74.3 L 540.9 111.7 M 424.8 74.3 L 566.7 65.8 M 442.3 36.0 L 566.7 65.8 M 589.9 447.0 L 627.5 526.5 M 631.2 370.5 L 627.5 526.5 M 703.0 433.7 L 627.5 526.5 M 631.2 370.5 L 703.0 433.7 M 631.4 339.8 L 679.5 349.6 M 593.8 257.9 L 639.4 311.2 M 593.8 257.9 L 646.8 278.4 M 593.8 257.9 L 667.1 250.8 M 589.9 447.0 L 590.4 398.7 M 582.6 127.2 L 507.7 137.6 M 582.6 127.2 L 591.0 169.2 M 591.0 169.2 L 507.7 137.6 M 650.8 180.5 L 591.0 169.2 M 47.1 289.0 L 87.6 237.5 M 647.2 230.3 L 591.0 169.2 M 598.1 237.1 L 591.0 169.2 M 598.1 237.1 L 523.2 212.4 M 555.7 264.8 L 500.3 252.9 M 555.7 264.8 L 525.5 326.3 M 698.1 291.1 L 639.4 311.2"
       id="plisM_001"
       stroke="brown"
       stroke-dasharray="4" />
    <path
       d="M 259.8 592.2 L 263.8 596.2 M 263.8 592.2 L 259.8 596.2 M 299.4 549.7 L 303.4 553.7 M 303.4 549.7 L 299.4 553.7 M 198.0 650.1 L 202.0 654.1 M 202.0 650.1 L 198.0 654.1 M 181.1 586.2 L 185.1 590.2 M 185.1 586.2 L 181.1 590.2 M 220.8 543.6 L 224.8 547.6 M 224.8 543.6 L 220.8 547.6 M 288.5 652.0 L 292.5 656.0 M 292.5 652.0 L 288.5 656.0 M 196.6 547.2 L 200.6 551.2 M 200.6 547.2 L 196.6 551.2 M 314.7 665.6 L 318.7 669.6 M 318.7 665.6 L 314.7 669.6 M 313.4 695.8 L 317.4 699.8 M 317.4 695.8 L 313.4 699.8 M 330.4 530.3 L 334.4 534.3 M 334.4 530.3 L 330.4 534.3 M 356.2 528.1 L 360.2 532.1 M 360.2 528.1 L 356.2 532.1 M 187.7 521.6 L 191.7 525.6 M 191.7 521.6 L 187.7 525.6 M 406.0 539.6 L 410.0 543.6 M 410.0 539.6 L 406.0 543.6 M 434.8 548.9 L 438.8 552.9 M 438.8 548.9 L 434.8 552.9 M 462.1 541.5 L 466.1 545.5 M 466.1 541.5 L 462.1 545.5 M 478.1 546.2 L 482.1 550.2 M 482.1 546.2 L 478.1 550.2 M 500.3 551.3 L 504.3 555.3 M 504.3 551.3 L 500.3 555.3 M 532.2 567.5 L 536.2 571.5 M 536.2 567.5 L 532.2 571.5 M 565.0 569.8 L 569.0 573.8 M 569.0 569.8 L 565.0 573.8 M 594.4 571.5 L 598.4 575.5 M 598.4 571.5 L 594.4 575.5 M 620.6 575.4 L 624.6 579.4 M 624.6 575.4 L 620.6 579.4 M 599.3 520.7 L 603.3 524.7 M 603.3 520.7 L 599.3 524.7 M 179.5 481.8 L 183.5 485.8 M 183.5 481.8 L 179.5 485.8 M 194.5 433.2 L 198.5 437.2 M 198.5 433.2 L 194.5 437.2 M 132.8 391.4 L 136.8 395.4 M 136.8 391.4 L 132.8 395.4 M 180.2 397.8 L 184.2 401.8 M 184.2 397.8 L 180.2 401.8 M 200.7 382.8 L 204.7 386.8 M 204.7 382.8 L 200.7 386.8 M 209.8 358.5 L 213.8 362.5 M 213.8 358.5 L 209.8 362.5 M 232.7 335.1 L 236.7 339.1 M 236.7 335.1 L 232.7 339.1 M 244.5 313.5 L 248.5 317.5 M 248.5 313.5 L 244.5 317.5 M 293.8 267.8 L 297.8 271.8 M 297.8 267.8 L 293.8 271.8 M 272.1 228.6 L 276.1 232.6 M 276.1 228.6 L 272.1 232.6 M 296.9 209.1 L 300.9 213.1 M 300.9 209.1 L 296.9 213.1 M 272.6 193.8 L 276.6 197.8 M 276.6 193.8 L 272.6 197.8 M 244.8 176.7 L 248.8 180.7 M 248.8 176.7 L 244.8 180.7 M 307.0 141.7 L 311.0 145.7 M 311.0 141.7 L 307.0 145.7 M 336.7 138.5 L 340.7 142.5 M 340.7 138.5 L 336.7 142.5 M 361.8 148.6 L 365.8 152.6 M 365.8 148.6 L 361.8 152.6 M 109.2 370.6 L 113.2 374.6 M 113.2 370.6 L 109.2 374.6 M 199.2 142.3 L 203.2 146.3 M 203.2 142.3 L 199.2 146.3 M 202.1 178.9 L 206.1 182.9 M 206.1 178.9 L 202.1 182.9 M 166.4 195.1 L 170.4 199.1 M 170.4 195.1 L 166.4 199.1 M 134.5 161.1 L 138.5 165.1 M 138.5 161.1 L 134.5 165.1 M 122.1 144.4 L 126.1 148.4 M 126.1 144.4 L 122.1 148.4 M 130.2 94.4 L 134.2 98.4 M 134.2 94.4 L 130.2 98.4 M 104.0 69.9 L 108.0 73.9 M 108.0 69.9 L 104.0 73.9 M 141.6 64.2 L 145.6 68.2 M 145.6 64.2 L 141.6 68.2 M 92.8 335.9 L 96.8 339.9 M 96.8 335.9 L 92.8 339.9 M 102.0 321.4 L 106.0 325.4 M 106.0 321.4 L 102.0 325.4 M 120.8 304.3 L 124.8 308.3 M 124.8 304.3 L 120.8 308.3 M 101.8 251.5 L 105.8 255.5 M 105.8 251.5 L 101.8 255.5 M 136.9 269.0 L 140.9 273.0 M 140.9 269.0 L 136.9 273.0 M 85.6 261.1 L 89.6 265.1 M 89.6 261.1 L 85.6 265.1 M 72.9 339.6 L 76.9 343.6 M 76.9 339.6 L 72.9 343.6 M 77.9 383.0 L 81.9 387.0 M 81.9 383.0 L 77.9 387.0 M 126.4 563.2 L 130.4 567.2 M 130.4 563.2 L 126.4 567.2 M 73.7 422.6 L 77.7 426.6 M 77.7 422.6 L 73.7 426.6 M 95.8 424.8 L 99.8 428.8 M 99.8 424.8 L 95.8 428.8 M 111.1 452.1 L 115.1 456.1 M 115.1 452.1 L 111.1 456.1 M 388.8 147.7 L 392.8 151.7 M 392.8 147.7 L 388.8 151.7 M 383.7 167.3 L 387.7 171.3 M 387.7 167.3 L 383.7 171.3 M 405.9 202.4 L 409.9 206.4 M 409.9 202.4 L 405.9 206.4 M 436.0 251.9 L 440.0 255.9 M 440.0 251.9 L 436.0 255.9 M 415.7 258.2 L 419.7 262.2 M 419.7 258.2 L 415.7 262.2 M 457.7 243.4 L 461.7 247.4 M 461.7 243.4 L 457.7 247.4 M 74.0 96.1 L 78.0 100.1 M 78.0 96.1 L 74.0 100.1 M 80.6 177.2 L 84.6 181.2 M 84.6 177.2 L 80.6 181.2 M 75.4 195.3 L 79.4 199.3 M 79.4 195.3 L 75.4 199.3 M 420.0 134.3 L 424.0 138.3 M 424.0 134.3 L 420.0 138.3 M 398.1 115.5 L 402.1 119.5 M 402.1 115.5 L 398.1 119.5 M 467.5 118.8 L 471.5 122.8 M 471.5 118.8 L 467.5 122.8 M 458.2 151.0 L 462.2 155.0 M 462.2 151.0 L 458.2 155.0 M 384.9 107.8 L 388.9 111.8 M 388.9 107.8 L 384.9 111.8 M 484.1 105.9 L 488.1 109.9 M 488.1 105.9 L 484.1 109.9 M 480.8 91.0 L 484.8 95.0 M 484.8 91.0 L 480.8 95.0 M 493.8 68.0 L 497.8 72.0 M 497.8 68.0 L 493.8 72.0 M 502.5 48.9 L 506.5 52.9 M 506.5 48.9 L 502.5 52.9 M 606.7 484.8 L 610.7 488.8 M 610.7 484.8 L 606.7 488.8 M 627.3 446.5 L 631.3 450.5 M 631.3 446.5 L 627.3 450.5 M 663.3 478.1 L 667.3 482.1 M 667.3 478.1 L 663.3 482.1 M 665.1 400.1 L 669.1 404.1 M 669.1 400.1 L 665.1 404.1 M 653.4 342.7 L 657.4 346.7 M 657.4 342.7 L 653.4 346.7 M 614.6 282.6 L 618.6 286.6 M 618.6 282.6 L 614.6 286.6 M 618.3 266.1 L 622.3 270.1 M 622.3 266.1 L 618.3 270.1 M 628.5 252.3 L 632.5 256.3 M 632.5 252.3 L 628.5 256.3 M 588.1 420.8 L 592.1 424.8 M 592.1 420.8 L 588.1 424.8 M 543.1 130.4 L 547.1 134.4 M 547.1 130.4 L 543.1 134.4 M 584.8 146.2 L 588.8 150.2 M 588.8 146.2 L 584.8 150.2 M 547.3 151.4 L 551.3 155.4 M 551.3 151.4 L 547.3 155.4 M 618.9 172.8 L 622.9 176.8 M 622.9 172.8 L 618.9 176.8 M 65.3 261.3 L 69.3 265.3 M 69.3 261.3 L 65.3 265.3 M 617.1 197.7 L 621.1 201.7 M 621.1 197.7 L 617.1 201.7 M 592.6 201.2 L 596.6 205.2 M 596.6 201.2 L 592.6 205.2 M 558.7 222.8 L 562.7 226.8 M 562.7 222.8 L 558.7 226.8 M 526.0 256.9 L 530.0 260.9 M 530.0 256.9 L 526.0 260.9 M 538.6 293.6 L 542.6 297.6 M 542.6 293.6 L 538.6 297.6 M 666.8 299.2 L 670.8 303.2 M 670.8 299.2 L 666.8 303.2"
       display="none"
       id="marqueM_001"
       stroke="brown" />
    <path
       d="M 182.8 616.9 L 262.2 531.8 M 340.7 571.6 L 217.3 687.3 M 375.7 488.6 L 391.2 591.2 M 243.9 441.6 L 213.9 538.9 M 207.2 281.2 L 293.3 293.6 M 207.2 281.2 L 298.4 245.9 M 243.9 142.2 L 299.4 176.3 M 114.5 179.7 L 89.8 146.4 M 94.7 102.0 L 158.4 146.5 M 115.3 644.0 L 183.4 559.5 M 412.8 168.4 L 363.6 229.6 M 443.6 227.7 L 403.0 240.3 M 540.9 111.7 L 507.7 137.6 M 589.9 447.0 L 631.2 370.5 M 631.2 370.5 L 679.5 349.6 M 631.4 339.8 L 639.4 311.2 M 646.8 278.4 L 639.4 311.2 M 659.6 147.4 L 591.0 169.2 M 661.4 203.1 L 591.0 169.2 M 555.7 264.8 L 523.2 212.4 M 555.7 264.8 L 494.3 301.9 M 586.0 267.0 L 525.5 326.3"
       id="plisV_001"
       stroke="green"
       stroke-dasharray="4 1 1 1"
       stroke-width="1.27" />
    <path
       d="M 220.5 572.3 L 224.5 576.3 M 224.5 572.3 L 220.5 576.3 M 277.0 627.5 L 281.0 631.5 M 281.0 627.5 L 277.0 631.5 M 381.4 537.9 L 385.4 541.9 M 385.4 537.9 L 381.4 541.9 M 226.9 488.2 L 230.9 492.2 M 230.9 488.2 L 226.9 492.2 M 248.2 285.4 L 252.2 289.4 M 252.2 285.4 L 248.2 289.4 M 250.8 261.6 L 254.8 265.6 M 254.8 261.6 L 250.8 265.6 M 269.6 157.3 L 273.6 161.3 M 273.6 157.3 L 269.6 161.3 M 100.1 161.1 L 104.1 165.1 M 104.1 161.1 L 100.1 165.1 M 124.5 122.2 L 128.5 126.2 M 128.5 122.2 L 124.5 126.2 M 147.3 599.7 L 151.3 603.7 M 151.3 599.7 L 147.3 603.7 M 386.2 197.0 L 390.2 201.0 M 390.2 197.0 L 386.2 201.0 M 421.3 232.0 L 425.3 236.0 M 425.3 232.0 L 421.3 236.0 M 522.3 122.7 L 526.3 126.7 M 526.3 122.7 L 522.3 126.7 M 608.5 406.8 L 612.5 410.8 M 612.5 406.8 L 608.5 410.8 M 653.3 358.1 L 657.3 362.1 M 657.3 358.1 L 653.3 362.1 M 633.4 323.5 L 637.4 327.5 M 637.4 323.5 L 633.4 327.5 M 641.1 292.8 L 645.1 296.8 M 645.1 292.8 L 641.1 296.8 M 623.3 156.3 L 627.3 160.3 M 627.3 156.3 L 623.3 160.3 M 624.2 184.1 L 628.2 188.1 M 628.2 184.1 L 624.2 188.1 M 537.5 236.6 L 541.5 240.6 M 541.5 236.6 L 537.5 240.6 M 523.0 281.3 L 527.0 285.3 M 527.0 281.3 L 523.0 285.3 M 553.8 294.6 L 557.8 298.6 M 557.8 294.6 L 553.8 298.6"
       id="marqueV_001"
       stroke="green" />
    <path
       d="M 302.4 263.5 L 303.9 262.8 L 306.1 260.5 L 306.1 276.3"
       id="titre_1"
       stroke="indigo" />
  </g>
</svg>
