<?xml version="1.0" encoding="UTF-8" standalone="no"?>
<svg
   height="297mm"
   viewBox="0 0 533 754"
   width="210mm"
   version="1.1"
   id="svg1"
   sodipodi:docname="teteCheval120_H15_lang_A4x2.svg"
   inkscape:version="1.3 (1:1.3+202307231459+0e150ed6c4)"
   xmlns:inkscape="http://www.inkscape.org/namespaces/inkscape"
   xmlns:sodipodi="http://sodipodi.sourceforge.net/DTD/sodipodi-0.dtd"
   xmlns="http://www.w3.org/2000/svg"
   xmlns:svg="http://www.w3.org/2000/svg">
  <defs
     id="defs1" />
  <sodipodi:namedview
     id="namedview1"
     pagecolor="#ffffff"
     bordercolor="#000000"
     borderopacity="0.25"
     inkscape:showpageshadow="2"
     inkscape:pageopacity="0.0"
     inkscape:pagecheckerboard="0"
     inkscape:deskcolor="#d1d1d1"
     inkscape:document-units="mm"
     showgrid="false"
     inkscape:zoom="0.53643695"
     inkscape:cx="753.1174"
     inkscape:cy="560.17767"
     inkscape:window-width="1920"
     inkscape:window-height="1007"
     inkscape:window-x="0"
     inkscape:window-y="0"
     inkscape:window-maximized="1"
     inkscape:current-layer="svg1" />
  <style
     type="text/css"
     id="style1"><![CDATA[
			path {
				fill: none;
			}
		]]></style>
  <g
     id="page_001">
    <path
       d="M 352.5 492.2 L 353.0 493.0 L 354.1 493.2 L 355.6 493.0 L 356.4 492.7 L 357.8 491.9 L 358.4 491.1 L 358.4 490.1 L 358.2 489.6 L 357.6 488.8 L 356.6 488.5 L 355.1 488.8 L 354.2 489.1 L 352.9 489.8 L 352.2 490.7 L 352.3 491.6 L 352.4 492.1 M 356.6 541.5 L 362.4 545.4 M 356.0 545.6 L 356.6 541.5 M 300.3 597.6 L 299.9 598.4 L 299.2 598.9 L 298.2 599.1 L 297.9 599.0 L 297.1 598.6 L 296.6 597.9 L 296.5 597.0 L 296.5 596.7 L 297.0 595.8 L 297.6 595.3 L 298.6 595.2 L 298.9 595.2 L 299.7 595.7 L 300.2 596.4 L 300.3 597.6 L 300.1 599.1 L 299.5 600.5 L 298.8 601.3 L 297.8 601.4 L 297.3 601.3 L 296.4 600.9 L 296.2 600.3 M 149.6 494.4 L 147.9 499.3 L 152.2 498.0 M 149.6 494.4 L 151.3 500.5 M 155.2 492.8 L 153.5 497.7 L 157.8 496.5 M 155.2 492.8 L 156.9 498.9 M 106.5 466.0 L 106.8 465.9 L 107.5 465.9 L 107.9 466.1 L 108.4 466.5 L 108.9 467.6 L 108.8 468.2 L 108.7 468.6 L 108.3 469.2 L 107.7 469.4 L 107.0 469.4 L 106.0 469.2 L 102.0 467.7 L 103.7 471.5 M 109.6 474.4 L 108.7 474.5 L 107.9 474.2 L 107.2 473.5 L 107.1 473.2 L 107.0 472.3 L 107.3 471.5 L 108.0 470.9 L 108.3 470.7 L 109.2 470.6 L 110.0 470.9 L 110.7 471.7 L 110.8 471.9 L 110.9 472.9 L 110.6 473.7 L 109.6 474.4 L 108.2 475.0 L 106.7 475.4 L 105.7 475.2 L 105.0 474.5 L 104.8 473.9 L 104.7 473.0 L 105.1 472.5 M 281.6 382.3 L 281.5 381.7 L 281.0 380.5 L 286.9 382.6 M 284.5 376.4 L 285.2 377.0 L 285.6 377.7 L 285.6 378.7 L 285.5 379.0 L 284.9 379.7 L 284.1 380.1 L 283.2 380.1 L 282.9 380.0 L 282.1 379.4 L 281.8 378.6 L 281.8 377.7 L 281.9 377.4 L 282.5 376.6 L 283.2 376.3 L 284.5 376.4 L 285.9 376.9 L 287.2 377.7 L 287.8 378.5 L 287.8 379.5 L 287.6 380.0 L 287.0 380.8 L 286.4 380.9 M 316.3 404.0 L 315.9 404.5 L 315.4 405.7 L 312.7 400.0 M 310.1 406.2 L 309.9 405.3 L 310.2 404.5 L 310.9 403.8 L 311.2 403.7 L 312.1 403.5 L 312.9 403.8 L 313.6 404.5 L 313.7 404.8 L 313.8 405.7 L 313.6 406.5 L 312.9 407.2 L 312.6 407.3 L 311.7 407.4 L 310.9 407.2 L 310.1 406.2 L 309.4 404.9 L 309.0 403.4 L 309.2 402.3 L 309.8 401.6 L 310.4 401.4 L 311.3 401.3 L 311.9 401.7 M 371.0 392.2 L 374.1 388.1 L 369.6 388.0 M 371.0 392.2 L 371.1 385.9 M 364.3 392.1 L 367.4 385.8 M 368.5 392.1 L 364.3 392.1 M 178.1 547.3 L 178.0 546.6 L 177.2 546.1 L 176.6 545.9 L 175.7 546.0 L 174.9 546.7 L 174.2 548.1 L 173.8 549.5 L 173.7 550.7 L 174.2 551.5 L 174.9 552.0 L 175.2 552.1 L 176.2 552.0 L 176.9 551.6 L 177.5 550.8 L 177.5 550.5 L 177.5 549.6 L 177.1 548.9 L 176.3 548.3 L 176.0 548.3 L 175.0 548.3 L 174.3 548.7 L 173.8 549.5 M 179.3 548.1 L 180.0 548.0 L 181.1 547.4 L 179.4 553.5 M 171.7 521.9 L 170.7 516.8 L 167.6 520.0 M 171.7 521.9 L 167.1 517.5 M 167.6 526.0 L 166.7 521.0 L 163.6 524.2 M 167.6 526.0 L 163.1 521.6 M 197.4 405.0 L 196.7 402.0 L 194.0 402.4 L 194.3 402.6 L 194.8 403.4 L 195.0 404.3 L 195.0 405.2 L 194.5 405.9 L 193.7 406.4 L 193.1 406.6 L 192.2 406.5 L 191.5 406.0 L 191.0 405.2 L 190.8 404.4 L 190.8 403.4 L 191.1 403.1 L 191.6 402.6 M 197.7 410.4 L 198.2 409.9 L 198.3 409.0 L 198.2 408.4 L 197.7 407.6 L 196.7 407.2 L 195.1 407.3 L 193.7 407.6 L 192.6 408.2 L 192.1 408.9 L 192.0 409.9 L 192.1 410.2 L 192.6 411.0 L 193.3 411.4 L 194.3 411.5 L 194.6 411.4 L 195.4 410.9 L 195.8 410.2 L 195.9 409.3 L 195.8 409.0 L 195.3 408.2 L 194.6 407.7 L 193.7 407.6 M 202.1 407.2 L 204.4 409.1 L 206.4 407.1 L 205.9 407.2 L 205.0 406.9 L 204.3 406.3 L 203.8 405.5 L 203.7 404.7 L 204.0 403.8 L 204.4 403.3 L 205.2 402.8 L 206.0 402.7 L 206.9 403.0 L 207.6 403.6 L 208.2 404.4 L 208.2 404.8 L 208.1 405.4 M 197.9 403.9 L 200.3 405.8 L 202.2 403.8 L 201.7 403.9 L 200.9 403.6 L 200.1 403.0 L 199.6 402.2 L 199.5 401.4 L 199.8 400.5 L 200.2 400.0 L 201.0 399.5 L 201.9 399.4 L 202.7 399.7 L 203.5 400.3 L 204.0 401.1 L 204.0 401.5 L 203.9 402.1 M 221.0 387.0 L 219.6 384.4 L 217.0 385.5 L 217.5 385.6 L 218.2 386.2 L 218.6 387.0 L 218.8 387.9 L 218.5 388.8 L 217.9 389.5 L 217.4 389.7 L 216.4 389.9 L 215.6 389.7 L 214.9 389.0 L 214.5 388.3 L 214.3 387.3 L 214.4 386.9 L 214.8 386.4 M 223.6 391.7 L 222.1 389.1 L 219.6 390.1 L 220.0 390.2 L 220.7 390.9 L 221.2 391.7 L 221.3 392.6 L 221.1 393.4 L 220.5 394.1 L 219.9 394.4 L 219.0 394.6 L 218.2 394.4 L 217.5 393.7 L 217.1 392.9 L 216.9 392.0 L 217.0 391.6 L 217.4 391.0 M 221.1 329.5 L 222.0 326.6 L 219.5 325.6 L 219.7 325.9 L 219.7 326.9 L 219.5 327.7 L 218.9 328.5 L 218.2 328.9 L 217.2 328.9 L 216.7 328.7 L 215.9 328.2 L 215.5 327.4 L 215.5 326.5 L 215.7 325.6 L 216.3 324.9 L 216.7 324.7 L 217.3 324.6 M 220.4 331.7 L 219.5 334.9 L 217.7 332.5 L 217.4 333.3 L 217.0 333.8 L 216.6 334.0 L 215.6 334.0 L 215.1 333.8 L 214.3 333.3 L 213.9 332.5 L 213.9 331.6 L 214.2 330.7 L 214.7 330.0 L 215.1 329.8 L 215.7 329.7 M 263.5 217.0 L 262.9 217.4 L 262.1 218.4 L 261.3 212.1 M 257.3 218.3 L 257.7 218.9 L 258.6 219.0 L 259.2 219.0 L 260.1 218.6 L 260.6 217.6 L 260.7 216.1 L 260.5 214.6 L 260.0 213.4 L 259.4 212.9 L 258.4 212.7 L 258.1 212.8 L 257.3 213.2 L 256.8 213.8 L 256.6 214.8 L 256.6 215.1 L 257.0 215.9 L 257.7 216.4 L 258.6 216.6 L 258.9 216.6 L 259.8 216.2 L 260.3 215.5 L 260.5 214.6 M 313.9 325.1 L 314.4 330.3 L 317.8 327.4 M 313.9 325.1 L 318.0 329.9 M 319.1 320.8 L 320.9 327.6 M 315.9 323.6 L 319.1 320.8 M 354.6 296.2 L 354.9 295.6 L 355.2 294.3 L 358.6 299.7 M 358.7 291.8 L 358.4 297.0 L 362.2 294.5 M 358.7 291.8 L 362.0 297.1 M 391.1 260.7 L 392.7 265.6 L 395.4 262.0 M 391.1 260.7 L 396.2 264.5 M 393.6 257.4 L 393.4 258.3 L 393.7 258.9 L 394.1 259.3 L 394.8 259.4 L 395.4 259.1 L 396.4 258.3 L 397.1 257.8 L 398.0 257.6 L 398.6 257.8 L 399.4 258.3 L 399.7 258.9 L 399.7 259.3 L 399.4 260.2 L 398.7 261.2 L 397.9 261.7 L 397.5 261.8 L 396.9 261.7 L 396.1 261.1 L 395.8 260.5 L 395.7 259.7 L 396.0 258.8 L 396.5 257.7 L 396.6 257.0 L 396.3 256.4 L 395.8 256.0 L 395.1 255.9 L 394.4 256.5 L 393.6 257.6 M 224.8 228.3 L 225.4 223.2 L 221.4 225.4 M 224.8 228.3 L 221.7 222.8 M 218.0 229.6 L 217.8 228.7 L 218.0 227.8 L 218.7 227.1 L 218.9 227.0 L 219.9 226.8 L 220.7 227.1 L 221.4 227.7 L 221.5 228.0 L 221.7 228.9 L 221.5 229.7 L 220.8 230.4 L 220.6 230.6 L 219.6 230.7 L 218.8 230.5 L 218.0 229.6 L 217.3 228.3 L 216.8 226.8 L 216.9 225.7 L 217.5 225.0 L 218.1 224.8 L 219.0 224.6 L 219.5 225.0 M 202.6 326.6 L 201.6 329.5 L 204.0 330.7 L 203.8 330.3 L 203.8 329.3 L 204.2 328.5 L 204.7 327.7 L 205.5 327.4 L 206.5 327.4 L 207.0 327.6 L 207.8 328.2 L 208.1 329.0 L 208.1 329.9 L 207.8 330.8 L 207.2 331.5 L 206.8 331.7 L 206.2 331.8 M 203.4 324.4 L 204.5 321.3 L 206.2 323.9 L 206.5 323.0 L 207.0 322.6 L 207.3 322.4 L 208.3 322.4 L 208.9 322.6 L 209.6 323.2 L 210.0 324.0 L 209.9 324.9 L 209.6 325.8 L 209.0 326.5 L 208.6 326.7 L 208.0 326.8 M 195.2 332.3 L 194.3 329.4 L 191.6 329.9 L 192.0 330.1 L 192.5 330.9 L 192.8 331.8 L 192.8 332.7 L 192.4 333.5 L 191.6 334.0 L 191.0 334.2 L 190.1 334.2 L 189.3 333.8 L 188.8 333.0 L 188.5 332.2 L 188.5 331.2 L 188.7 330.8 L 189.2 330.4 M 194.8 338.3 L 193.9 338.3 L 193.1 337.9 L 192.6 337.1 L 192.5 336.8 L 192.5 335.9 L 192.9 335.1 L 193.7 334.6 L 193.9 334.5 L 194.9 334.5 L 195.6 334.9 L 196.2 335.7 L 196.3 336.0 L 196.3 336.9 L 195.9 337.7 L 194.8 338.3 L 193.4 338.8 L 191.9 338.9 L 190.8 338.6 L 190.3 337.8 L 190.1 337.3 L 190.1 336.3 L 190.6 335.9 M 181.3 232.1 L 184.2 233.0 L 185.3 230.5 L 184.9 230.7 L 183.9 230.8 L 183.1 230.5 L 182.3 229.9 L 181.9 229.2 L 181.9 228.2 L 182.1 227.6 L 182.7 226.9 L 183.4 226.5 L 184.4 226.5 L 185.2 226.8 L 186.0 227.3 L 186.2 227.7 L 186.3 228.4 M 178.2 231.1 L 179.2 231.1 L 179.6 230.6 L 179.8 230.0 L 179.7 229.4 L 179.2 228.9 L 178.2 228.3 L 177.4 227.7 L 177.0 226.9 L 176.9 226.3 L 177.2 225.4 L 177.7 224.9 L 178.1 224.8 L 179.0 224.7 L 180.1 225.1 L 180.9 225.7 L 181.1 226.1 L 181.2 226.7 L 180.9 227.6 L 180.5 228.1 L 179.7 228.4 L 178.8 228.4 L 177.5 228.4 L 176.9 228.5 L 176.4 228.9 L 176.2 229.5 L 176.3 230.2 L 177.1 230.7 L 178.4 231.2 M 119.2 432.8 L 122.1 431.9 L 121.6 429.2 L 121.4 429.6 L 120.6 430.1 L 119.7 430.4 L 118.8 430.4 L 118.0 430.0 L 117.5 429.2 L 117.3 428.6 L 117.3 427.7 L 117.7 426.9 L 118.5 426.4 L 119.3 426.1 L 120.3 426.1 L 120.7 426.3 L 121.1 426.8 M 113.2 432.4 L 113.2 431.5 L 113.6 430.7 L 114.4 430.2 L 114.7 430.1 L 115.6 430.1 L 116.4 430.5 L 116.9 431.3 L 117.0 431.6 L 117.0 432.5 L 116.6 433.3 L 115.8 433.8 L 115.5 433.9 L 114.6 433.9 L 113.8 433.5 L 113.2 432.4 L 112.8 431.0 L 112.6 429.5 L 112.9 428.5 L 113.7 427.9 L 114.2 427.7 L 115.2 427.7 L 115.6 428.2 M 169.1 433.7 L 171.9 434.7 L 173.2 432.3 L 172.8 432.5 L 171.8 432.4 L 171.0 432.1 L 170.2 431.5 L 169.9 430.8 L 169.9 429.8 L 170.1 429.2 L 170.7 428.5 L 171.5 428.2 L 172.4 428.2 L 173.3 428.5 L 174.0 429.1 L 174.2 429.5 L 174.3 430.1 M 164.4 431.0 L 164.5 431.6 L 165.2 432.2 L 165.8 432.4 L 166.8 432.5 L 167.6 431.8 L 168.4 430.5 L 168.9 429.1 L 169.1 427.9 L 168.7 427.1 L 168.0 426.5 L 167.7 426.4 L 166.8 426.4 L 166.0 426.8 L 165.4 427.5 L 165.3 427.8 L 165.3 428.7 L 165.6 429.5 L 166.4 430.1 L 166.6 430.2 L 167.6 430.2 L 168.4 429.9 L 168.9 429.1 M 132.1 316.2 L 132.0 315.9 L 132.0 315.2 L 132.2 314.9 L 132.7 314.4 L 133.8 314.0 L 134.5 314.0 L 134.9 314.2 L 135.3 314.7 L 135.6 315.2 L 135.5 315.9 L 135.2 317.0 L 133.4 320.8 L 137.4 319.4 M 140.7 313.7 L 140.7 314.6 L 140.4 315.4 L 139.6 316.0 L 139.3 316.1 L 138.4 316.1 L 137.6 315.8 L 137.0 315.0 L 136.9 314.7 L 136.9 313.8 L 137.2 313.0 L 138.0 312.4 L 138.3 312.3 L 139.2 312.3 L 140.0 312.7 L 140.7 313.7 L 141.2 315.1 L 141.4 316.6 L 141.2 317.6 L 140.4 318.2 L 139.9 318.4 L 138.9 318.5 L 138.4 318.0 M 88.7 306.4 L 83.6 306.4 L 86.2 310.1 M 88.7 306.4 L 83.6 310.1 M 91.6 312.0 L 91.9 311.4 L 91.6 310.5 L 91.3 310.0 L 90.5 309.5 L 89.4 309.5 L 88.0 310.2 L 86.8 311.0 L 86.0 312.0 L 85.9 312.8 L 86.2 313.7 L 86.4 314.0 L 87.1 314.5 L 88.0 314.7 L 88.9 314.4 L 89.1 314.2 L 89.7 313.4 L 89.8 312.6 L 89.5 311.7 L 89.3 311.4 L 88.6 310.9 L 87.7 310.7 L 86.8 311.0 M 388.8 173.5 L 388.9 173.8 L 389.0 174.4 L 388.8 174.8 L 388.4 175.4 L 387.4 175.9 L 386.7 176.0 L 386.3 175.8 L 385.8 175.5 L 385.5 174.9 L 385.5 174.3 L 385.6 173.2 L 386.8 169.1 L 383.1 171.1 M 383.5 178.1 L 384.1 177.4 L 384.2 176.3 L 383.8 174.8 L 383.3 174.0 L 382.4 172.9 L 381.4 172.3 L 380.5 172.5 L 380.0 172.8 L 379.3 173.5 L 379.2 174.6 L 379.6 176.0 L 380.1 176.8 L 381.1 178.0 L 382.0 178.5 L 382.9 178.3 L 383.3 178.1 M 440.5 226.9 L 440.2 227.0 L 439.6 226.8 L 439.3 226.5 L 438.9 226.0 L 438.7 224.8 L 438.9 224.1 L 439.2 223.8 L 439.7 223.4 L 440.3 223.3 L 440.9 223.5 L 441.9 224.0 L 445.3 226.5 L 444.7 222.4 M 438.1 220.7 L 438.5 221.5 L 439.2 221.7 L 439.8 221.6 L 440.3 221.3 L 440.5 220.6 L 440.6 219.4 L 440.8 218.5 L 441.3 217.8 L 441.9 217.4 L 442.8 217.3 L 443.4 217.5 L 443.7 217.7 L 444.2 218.6 L 444.3 219.8 L 444.2 220.7 L 443.9 221.0 L 443.4 221.4 L 442.5 221.6 L 441.8 221.3 L 441.2 220.8 L 440.7 220.0 L 440.3 218.8 L 439.9 218.3 L 439.2 218.1 L 438.6 218.2 L 438.1 218.6 L 437.9 219.5 L 438.1 220.8 M 427.8 234.1 L 427.8 233.8 L 428.1 233.2 L 428.4 232.9 L 429.0 232.6 L 430.2 232.6 L 430.8 232.9 L 431.1 233.2 L 431.4 233.8 L 431.4 234.4 L 431.1 235.0 L 430.5 235.9 L 427.5 238.9 L 431.7 238.9 M 436.9 232.5 L 433.9 238.8 M 432.7 232.5 L 436.9 232.5 M 223.6 636.4 L 225.0 641.3 L 227.8 637.8 M 223.6 636.4 L 228.5 640.3 M 227.6 631.6 L 225.7 633.9 L 227.6 635.8 L 227.6 635.4 L 227.9 634.5 L 228.5 633.8 L 229.3 633.3 L 230.1 633.2 L 231.0 633.5 L 231.5 633.9 L 232.0 634.7 L 232.1 635.6 L 231.7 636.5 L 231.2 637.2 L 230.4 637.7 L 229.9 637.7 L 229.3 637.6 M 180.5 656.8 L 175.5 658.2 L 179.1 661.0 M 180.5 656.8 L 176.6 661.7 M 182.0 660.0 L 182.2 659.7 L 182.8 659.4 L 183.2 659.4 L 183.9 659.5 L 184.8 660.3 L 185.1 660.9 L 185.1 661.3 L 185.0 662.0 L 184.6 662.4 L 184.0 662.7 L 183.0 663.0 L 178.8 663.5 L 182.1 666.1 M 182.9 587.0 L 183.4 587.4 L 184.4 587.4 L 184.9 587.1 L 185.7 586.5 L 185.9 585.5 L 185.6 584.0 L 185.0 582.6 L 184.3 581.6 L 183.5 581.2 L 182.6 581.3 L 182.3 581.4 L 181.6 582.0 L 181.2 582.8 L 181.3 583.8 L 181.4 584.0 L 182.0 584.8 L 182.8 585.1 L 183.8 585.0 L 184.0 584.9 L 184.8 584.3 L 185.1 583.5 L 185.0 582.6 M 181.5 587.0 L 181.0 587.5 L 180.5 588.7 L 178.2 582.9 M 156.5 617.4 L 151.6 615.7 L 152.8 620.0 M 156.5 617.4 L 150.4 619.2 M 157.2 623.7 L 157.7 623.3 L 157.8 622.3 L 157.6 621.7 L 157.1 620.9 L 156.0 620.6 L 154.5 620.7 L 153.1 621.1 L 152.0 621.8 L 151.6 622.5 L 151.5 623.4 L 151.6 623.7 L 152.2 624.5 L 152.9 624.9 L 153.9 625.0 L 154.1 624.9 L 154.9 624.4 L 155.3 623.6 L 155.4 622.7 L 155.3 622.4 L 154.8 621.6 L 154.0 621.2 L 153.1 621.1 M 378.3 468.0 L 377.3 467.8 L 376.4 468.4 L 375.4 469.6 L 375.0 470.4 L 374.6 471.8 L 374.7 472.9 L 375.4 473.6 L 375.9 473.9 L 376.9 474.0 L 377.8 473.5 L 378.8 472.3 L 379.2 471.5 L 379.6 470.0 L 379.5 468.9 L 378.8 468.3 L 378.4 468.1 M 421.7 396.0 L 421.0 396.2 L 420.0 396.9 L 421.1 390.7 M 415.7 396.5 L 419.4 392.9 L 415.0 392.1 M 415.7 396.5 L 416.8 390.3 M 413.3 441.1 L 413.3 440.4 L 412.8 439.2 L 418.6 441.9 M 414.6 434.9 L 413.4 437.6 L 415.7 439.0 L 415.6 438.6 L 415.7 437.6 L 416.0 436.8 L 416.7 436.1 L 417.5 435.8 L 418.4 435.9 L 419.0 436.2 L 419.7 436.8 L 420.0 437.6 L 419.8 438.6 L 419.5 439.4 L 418.8 440.1 L 418.4 440.2 L 417.8 440.3 M 443.4 674.1 L 443.2 673.9 L 442.9 673.2 L 442.9 672.8 L 443.1 672.2 L 444.0 671.3 L 444.6 671.1 L 445.0 671.1 L 445.7 671.3 L 446.1 671.7 L 446.3 672.3 L 446.6 673.4 L 446.6 677.6 L 449.5 674.6 M 448.6 666.5 L 451.1 673.0 M 445.7 669.5 L 448.6 666.5 M 460.7 636.3 L 464.2 640.1 L 465.1 635.8 M 460.7 636.3 L 466.9 637.7 M 461.7 632.3 L 461.8 633.2 L 462.3 633.6 L 462.9 633.8 L 463.5 633.6 L 464.0 633.1 L 464.5 632.0 L 465.0 631.2 L 465.7 630.7 L 466.4 630.5 L 467.2 630.7 L 467.8 631.2 L 468.0 631.5 L 468.1 632.5 L 467.8 633.6 L 467.3 634.5 L 467.0 634.7 L 466.3 634.8 L 465.5 634.6 L 464.9 634.2 L 464.5 633.5 L 464.4 632.6 L 464.3 631.3 L 464.2 630.7 L 463.7 630.3 L 463.1 630.1 L 462.4 630.3 L 461.9 631.1 L 461.6 632.4 M 386.3 560.1 L 384.1 553.5 M 389.3 557.1 L 386.3 560.1 M 437.2 577.5 L 436.5 577.3 L 435.3 577.2 L 439.8 572.9 M 431.8 573.9 L 433.9 576.1 L 436.1 574.5 L 435.6 574.5 L 434.8 574.0 L 434.2 573.4 L 433.8 572.5 L 433.8 571.7 L 434.3 570.8 L 434.7 570.4 L 435.6 570.0 L 436.4 570.0 L 437.2 570.5 L 437.9 571.1 L 438.3 572.0 L 438.2 572.4 L 438.0 573.0 M 405.5 702.6 L 404.9 702.3 L 404.0 702.6 L 403.5 703.0 L 402.9 703.7 L 402.9 704.8 L 403.6 706.2 L 404.4 707.4 L 405.4 708.2 L 406.2 708.4 L 407.1 708.1 L 407.3 707.9 L 407.9 707.2 L 408.1 706.3 L 407.8 705.4 L 407.6 705.2 L 406.8 704.6 L 406.0 704.5 L 405.1 704.7 L 404.9 704.9 L 404.3 705.7 L 404.1 706.5 L 404.4 707.4 M 407.6 700.0 L 407.0 700.8 L 407.1 701.9 L 407.7 703.3 L 408.2 704.0 L 409.3 705.1 L 410.3 705.5 L 411.2 705.2 L 411.7 704.8 L 412.3 704.1 L 412.2 703.0 L 411.6 701.6 L 411.1 700.9 L 410.0 699.8 L 409.0 699.4 L 408.1 699.7 L 407.7 699.9 M 341.5 688.4 L 336.6 690.0 L 340.3 692.7 M 341.5 688.4 L 337.8 693.5 M 346.5 692.2 L 344.1 690.4 L 342.3 692.4 L 342.7 692.3 L 343.6 692.6 L 344.3 693.2 L 344.9 693.9 L 345.0 694.8 L 344.7 695.7 L 344.3 696.2 L 343.6 696.7 L 342.7 696.8 L 341.8 696.5 L 341.1 696.0 L 340.5 695.2 L 340.5 694.8 L 340.6 694.1 M 317.3 641.3 L 316.7 640.6 L 316.5 639.8 L 316.7 638.8 L 316.9 638.6 L 317.6 638.0 L 318.4 637.8 L 319.4 638.0 L 319.6 638.2 L 320.2 638.9 L 320.4 639.7 L 320.2 640.6 L 320.0 640.9 L 319.3 641.5 L 318.5 641.7 L 317.3 641.3 L 316.0 640.5 L 314.9 639.5 L 314.5 638.5 L 314.7 637.6 L 315.0 637.1 L 315.7 636.5 L 316.4 636.5 M 452.9 152.0 L 452.9 152.3 L 452.7 152.9 L 452.5 153.3 L 451.9 153.7 L 450.7 153.9 L 450.1 153.7 L 449.8 153.4 L 449.4 152.9 L 449.3 152.3 L 449.5 151.7 L 449.9 150.7 L 452.4 147.2 L 448.2 147.9 M 444.6 154.9 L 447.5 154.4 L 447.4 151.7 L 447.2 152.0 L 446.3 152.5 L 445.4 152.6 L 444.5 152.5 L 443.8 152.0 L 443.4 151.1 L 443.3 150.5 L 443.4 149.6 L 443.9 148.9 L 444.8 148.5 L 445.6 148.3 L 446.6 148.5 L 446.9 148.7 L 447.3 149.3 M 472.3 163.8 L 472.7 166.8 L 475.4 166.8 L 475.1 166.5 L 474.7 165.7 L 474.6 164.8 L 474.8 163.9 L 475.3 163.2 L 476.1 162.8 L 476.7 162.7 L 477.7 162.9 L 478.3 163.5 L 478.7 164.3 L 478.8 165.2 L 478.6 166.1 L 478.4 166.5 L 477.8 166.8 M 471.9 160.3 L 472.3 161.2 L 473.3 161.7 L 474.8 161.8 L 475.7 161.7 L 477.2 161.2 L 478.0 160.5 L 478.2 159.6 L 478.1 159.0 L 477.7 158.1 L 476.8 157.6 L 475.2 157.5 L 474.3 157.6 L 472.9 158.1 L 472.1 158.8 L 471.9 159.7 L 471.9 160.2 M 458.0 184.9 L 455.3 186.3 L 456.3 188.8 L 456.4 188.4 L 457.1 187.7 L 457.9 187.3 L 458.8 187.2 L 459.6 187.4 L 460.3 188.1 L 460.6 188.6 L 460.7 189.6 L 460.4 190.4 L 459.8 191.1 L 459.0 191.5 L 458.0 191.6 L 457.6 191.5 L 457.1 191.1 M 460.1 185.4 L 460.5 184.9 L 460.9 183.7 L 463.8 189.3 M 87.2 155.8 L 88.4 150.8 L 84.2 152.5 M 87.2 155.8 L 84.8 150.0 M 83.1 157.5 L 83.8 156.8 L 84.0 155.8 L 83.7 154.3 L 83.4 153.4 L 82.5 152.2 L 81.6 151.6 L 80.7 151.6 L 80.1 151.8 L 79.4 152.5 L 79.2 153.5 L 79.5 155.0 L 79.8 155.9 L 80.7 157.1 L 81.6 157.7 L 82.5 157.7 L 82.9 157.5 M 43.3 273.2 L 39.0 276.1 L 43.2 277.7 M 43.3 273.2 L 41.1 279.1 M 45.7 275.8 L 45.8 275.5 L 46.3 275.1 L 46.7 274.9 L 47.4 274.8 L 48.5 275.2 L 48.9 275.7 L 49.1 276.1 L 49.2 276.8 L 49.0 277.4 L 48.5 277.8 L 47.6 278.4 L 43.7 280.2 L 47.7 281.7 M 41.5 240.1 L 38.9 235.6 L 37.1 239.7 M 41.5 240.1 L 35.8 237.5 M 40.1 243.0 L 38.8 246.0 L 37.3 243.4 L 37.0 244.2 L 36.5 244.6 L 36.1 244.8 L 35.1 244.7 L 34.6 244.5 L 33.9 243.8 L 33.6 243.0 L 33.7 242.1 L 34.0 241.3 L 34.7 240.6 L 35.1 240.4 L 35.7 240.4 M 150.8 178.6 L 150.6 175.3 L 153.1 177.0 L 153.1 176.1 L 153.3 175.5 L 153.6 175.2 L 154.5 174.8 L 155.1 174.8 L 156.0 175.0 L 156.6 175.6 L 157.0 176.5 L 157.0 177.4 L 156.8 178.3 L 156.5 178.6 L 155.9 178.9 M 150.3 170.7 L 154.7 173.5 L 154.4 169.0 M 150.3 170.7 L 156.6 170.4 M 117.2 122.1 L 116.5 125.3 L 114.5 123.0 L 114.3 123.9 L 113.9 124.4 L 113.5 124.6 L 112.6 124.7 L 112.0 124.6 L 111.2 124.1 L 110.7 123.4 L 110.6 122.4 L 110.8 121.6 L 111.3 120.8 L 111.7 120.5 L 112.4 120.4 M 114.8 126.3 L 114.9 127.0 L 115.6 128.1 L 109.5 126.7 M 136.7 115.1 L 134.8 112.3 L 137.8 112.5 L 137.3 111.8 L 137.2 111.1 L 137.3 110.7 L 137.9 109.9 L 138.4 109.6 L 139.3 109.3 L 140.1 109.5 L 140.9 110.1 L 141.4 110.8 L 141.6 111.7 L 141.6 112.2 L 141.2 112.7 M 133.0 109.6 L 133.8 110.2 L 134.9 110.2 L 136.3 109.6 L 137.0 109.1 L 138.1 108.0 L 138.5 107.0 L 138.3 106.1 L 137.9 105.6 L 137.2 105.1 L 136.1 105.1 L 134.7 105.6 L 133.9 106.1 L 132.9 107.2 L 132.4 108.2 L 132.7 109.1 L 132.9 109.5 M 115.7 45.3 L 115.0 45.2 L 113.8 45.4 L 117.2 40.2 M 111.2 44.0 L 112.1 44.2 L 113.1 43.8 L 114.2 42.7 L 114.7 42.0 L 115.3 40.6 L 115.2 39.5 L 114.7 38.7 L 114.2 38.4 L 113.3 38.1 L 112.3 38.6 L 111.2 39.6 L 110.7 40.4 L 110.1 41.8 L 110.1 42.9 L 110.7 43.6 L 111.1 43.9 M 125.5 67.7 L 125.4 67.1 L 125.0 65.9 L 130.7 68.5 M 126.6 65.4 L 126.5 64.7 L 126.1 63.5 L 131.8 66.2 M 102.2 94.7 L 102.9 94.8 L 104.1 94.6 L 100.5 99.7 M 105.7 95.4 L 108.4 97.4 L 105.5 98.3 L 106.2 98.8 L 106.5 99.4 L 106.6 99.8 L 106.3 100.7 L 106.0 101.2 L 105.2 101.8 L 104.4 101.9 L 103.5 101.6 L 102.7 101.1 L 102.2 100.3 L 102.1 99.9 L 102.2 99.2 M 87.2 46.6 L 87.2 47.2 L 87.6 48.4 L 82.0 45.5 M 86.4 51.2 L 86.5 50.2 L 86.0 49.3 L 84.8 48.3 L 84.0 47.9 L 82.6 47.5 L 81.5 47.6 L 80.8 48.2 L 80.5 48.8 L 80.4 49.7 L 80.9 50.6 L 82.1 51.6 L 82.9 52.0 L 84.3 52.5 L 85.4 52.3 L 86.1 51.7 L 86.3 51.3 M 80.4 75.9 L 81.1 76.1 L 82.3 76.0 L 78.0 80.7 M 82.7 78.1 L 82.9 77.9 L 83.5 77.7 L 83.9 77.7 L 84.6 77.8 L 85.5 78.7 L 85.7 79.3 L 85.7 79.7 L 85.5 80.4 L 85.1 80.8 L 84.5 81.0 L 83.4 81.3 L 79.2 81.4 L 82.3 84.3 M 35.8 190.1 L 31.2 192.5 L 35.3 194.5 M 35.8 190.1 L 33.0 195.7 M 37.4 192.6 L 38.1 192.6 L 39.3 192.2 L 36.5 197.8 M 48.7 178.3 L 46.2 180.5 L 46.0 177.5 L 45.3 178.1 L 44.7 178.2 L 44.2 178.2 L 43.4 177.7 L 43.0 177.3 L 42.6 176.4 L 42.7 175.6 L 43.2 174.8 L 43.9 174.2 L 44.7 173.8 L 45.2 173.8 L 45.8 174.1 M 40.8 182.4 L 40.4 181.6 L 40.5 180.7 L 41.0 179.9 L 41.2 179.7 L 42.1 179.3 L 42.9 179.4 L 43.7 179.9 L 43.9 180.1 L 44.3 181.0 L 44.2 181.8 L 43.8 182.6 L 43.5 182.8 L 42.7 183.2 L 41.8 183.1 L 40.8 182.4 L 39.8 181.3 L 39.0 180.0 L 38.9 178.9 L 39.4 178.1 L 39.8 177.7 L 40.7 177.3 L 41.3 177.6 M 326.9 151.1 L 326.6 151.2 L 326.0 151.1 L 325.6 150.9 L 325.1 150.5 L 324.7 149.3 L 324.8 148.7 L 325.0 148.3 L 325.5 147.8 L 326.1 147.6 L 326.7 147.7 L 327.8 148.0 L 331.6 149.9 L 330.2 145.9 M 325.3 146.4 L 324.8 146.0 L 323.6 145.4 L 329.6 143.4 M 270.2 164.9 L 270.5 164.8 L 271.2 164.8 L 271.6 164.9 L 272.1 165.3 L 272.7 166.4 L 272.7 167.1 L 272.5 167.5 L 272.1 168.0 L 271.6 168.3 L 270.9 168.3 L 269.9 168.2 L 265.8 166.8 L 267.7 170.6 M 272.7 169.9 L 273.0 169.8 L 273.7 169.8 L 274.1 169.9 L 274.6 170.3 L 275.2 171.4 L 275.2 172.0 L 275.0 172.4 L 274.6 173.0 L 274.1 173.3 L 273.4 173.3 L 272.4 173.1 L 268.3 171.8 L 270.2 175.5 M 272.4 116.8 L 272.6 117.0 L 272.9 117.6 L 273.0 118.0 L 272.9 118.7 L 272.2 119.6 L 271.6 119.9 L 271.1 120.0 L 270.5 119.9 L 270.0 119.5 L 269.7 118.9 L 269.3 117.9 L 268.7 113.7 L 266.2 117.1 M 270.2 122.2 L 268.3 124.9 L 267.4 122.0 L 266.9 122.7 L 266.3 123.0 L 265.9 123.1 L 265.0 122.8 L 264.5 122.4 L 263.9 121.7 L 263.8 120.8 L 264.1 119.9 L 264.6 119.2 L 265.4 118.7 L 265.8 118.6 L 266.5 118.7 M 299.1 106.6 L 295.9 106.2 L 297.9 104.0 L 297.0 103.9 L 296.4 103.6 L 296.2 103.2 L 296.0 102.3 L 296.0 101.7 L 296.4 100.9 L 297.1 100.3 L 298.0 100.1 L 298.9 100.2 L 299.8 100.6 L 300.0 100.9 L 300.3 101.6"
       id="nums_001"
       stroke="black"
       stroke-width="1" />
    <path
       d="m 301.5,346.7 8.7,20.5 -13.5,37.8 -19.6,10.5 65.6,-32.1 11.9,-14.8 28.5,0.5 11.5,15.2 24.4,-10.9 4.8,0.8 19.3,18.6 3.7,27.7 -24.1,52.4 -23.5,15.2 -48.1,-24.9 19.4,10 -1.6,41.2 8.9,42.5 -17.7,17.3 43.3,-42.2 72.1,76 -12.3,55.4 0.4,21.1 -2.4,2.4 -21.1,0.3 -4.5,21.5 -32.1,22.7 -21.8,-3 -86.2,-63.7 34.7,-55.9 -17,12.4 -35.7,-6 -12.1,-17.2 -3.5,28.2 -37.1,45.8 -26.8,9.3 -41.4,-33 -14.9,-52.4 74.5,-30.4 -22.7,9.2 -54.9,-30.7 50.7,-52.2 -20.9,21.5 -49.1,-1.6 -21.3,-11.3 -18.7,-42.3 6.1,-23.4 59.7,-18.7 50.8,18.7 -17.4,-8.4 -6.8,-29 11.8,-15.2 44.9,35.3 -30.4,-23.9 v 0 l 2.8,-26.1 24,-77.7 -21.1,68.2 v 0 l -6.7,8.3 -18.5,-9.1 -10.2,-32.9 10.2,-17.8 -79,28.9 L 80.2,334.2 62.5,310 67.4,291.3 51,301.1 23.8,290.7 18,272.5 l 29.9,-67 -19,7.2 -2.7,-1.3 -5.4,-19.6 38,-33.4 15,-22.3 4.6,-1.8 26.3,5.4 -11.5,-16.8 0.6,-3 17.8,-10.1 -17.9,5.7 -2,-1.5 L 91.3,95.3 69.7,95.8 67.2,93.5 66.1,72 58.8,53.7 73.3,26 l 19.3,-4.3 47.3,31.4 7.1,20.1 -1.4,3.1 -20,7.3 30.8,46.1 16,18.8 2.7,48 -13.9,20.5 42.2,13.6 30.3,-16.7 50.4,-6.4 -21.4,-9.1 -19.4,-38.6 5.5,-22.6 -5.2,-18.2 16.9,-22.5 18.9,-0.3 18.4,-13.2 3.7,0.4 15.3,16.7 20.9,15.1 16.5,48.6 -7.5,24.7 69.1,-37.2 62.2,-10.3 4.7,40.6 -10.8,22.3 -3.9,2 -24.4,-4.4 17.5,15.5 0.5,3.9 -12.2,19.9 h -33.3 l 4.5,19.2 -18.5,25.1 -19.6,1.4 L 341,313 Z"
       id="coupes_001"
       stroke="#ff0000"
       stroke-width="1.27"
       sodipodi:nodetypes="cccccccccccccccccccccccccccccccccccccccccccccccccccccccccccccccccccccccccccccccccccccccccccccccccccccccccccccccccccccccccccccccc" />
    <path
       d="M 351.1 463.2 L 189.3 491.8 M 277.1 415.5 L 351.1 463.2 M 216.2 565.5 L 189.3 491.8 M 189.3 491.8 L 195.9 434.7 M 195.9 434.7 L 277.1 415.5 M 368.9 514.4 L 216.2 565.5 M 351.1 463.2 L 368.9 514.4 M 195.9 434.7 L 228.4 417.4 M 228.4 417.4 L 277.1 415.5 M 265.4 598.0 L 216.2 565.5 M 368.9 514.4 L 265.4 598.0 M 360.1 574.2 L 265.4 598.0 M 368.9 514.4 L 360.1 574.2 M 330.2 608.8 L 265.4 598.0 M 360.1 574.2 L 330.2 608.8 M 189.3 491.8 L 119.3 511.7 M 119.3 511.7 L 85.4 434.7 M 85.4 434.7 L 195.9 434.7 M 301.5 346.7 L 277.1 415.5 M 228.4 417.4 L 224.8 289.7 M 224.8 289.7 L 301.5 346.7 M 342.7 383.4 L 351.1 463.2 M 394.6 384.3 L 351.1 463.2 M 195.9 434.7 L 183.5 382.1 M 228.4 417.4 L 200.8 367.4 M 224.8 289.7 L 233.7 213.9 M 233.7 213.9 L 301.5 346.7 M 284.1 207.5 L 301.5 346.7 M 284.1 207.5 L 341.0 313.0 M 346.7 188.5 L 341.0 313.0 M 346.7 188.5 L 382.5 286.5 M 416.1 240.8 L 382.5 286.5 M 224.8 289.7 L 203.4 230.6 M 224.8 289.7 L 197.0 366.2 M 197.0 366.2 L 203.4 230.6 M 197.0 366.2 L 178.5 306.4 M 178.5 306.4 L 203.4 230.6 M 178.5 306.4 L 161.2 217.0 M 99.5 335.3 L 161.2 217.0 M 99.5 335.3 L 67.4 291.3 M 67.4 291.3 L 161.2 217.0 M 443.6 201.5 L 416.1 240.8 M 415.8 151.3 L 443.6 201.5 M 443.6 201.5 L 449.4 240.8 M 198.0 681.3 L 216.2 565.5 M 265.4 598.0 L 198.0 681.3 M 156.6 648.3 L 216.2 565.5 M 394.6 384.3 L 443.1 392.8 M 443.1 392.8 L 399.2 488.1 M 440.1 687.2 L 330.2 608.8 M 360.1 574.2 L 440.1 687.2 M 360.1 574.2 L 463.2 663.4 M 360.1 574.2 L 475.5 608.0 M 381.7 728.4 L 330.2 608.8 M 478.0 141.0 L 443.6 201.5 M 482.7 181.6 L 443.6 201.5 M 67.4 291.3 L 104.7 139.7 M 104.7 139.7 L 161.2 217.0 M 67.4 291.3 L 47.9 205.5 M 47.9 205.5 L 58.8 158.4 M 67.4 291.3 L 18.0 272.5 M 156.4 129.7 L 161.2 217.0 M 104.7 139.7 L 111.6 109.8 M 111.6 109.8 L 156.4 129.7 M 111.6 109.8 L 92.6 21.7 M 92.6 21.7 L 125.6 83.6 M 91.3 95.3 L 92.6 21.7 M 111.6 109.8 L 91.3 95.3 M 66.1 72.0 L 92.6 21.7 M 47.9 205.5 L 20.8 191.8 M 284.1 207.5 L 316.8 100.1 M 284.1 207.5 L 248.8 137.2 M 248.8 137.2 L 316.8 100.1 M 248.8 137.2 L 279.4 96.2"
       id="plisM_001"
       stroke="brown"
       stroke-dasharray="4" />
    <path
       d="M 268.2 475.5 L 272.2 479.5 M 272.2 475.5 L 268.2 479.5 M 312.1 437.4 L 316.1 441.4 M 316.1 437.4 L 312.1 441.4 M 200.7 526.6 L 204.7 530.6 M 204.7 526.6 L 200.7 530.6 M 190.6 461.3 L 194.6 465.3 M 194.6 461.3 L 190.6 465.3 M 234.5 423.1 L 238.5 427.1 M 238.5 423.1 L 234.5 427.1 M 290.6 537.9 L 294.6 541.9 M 294.6 537.9 L 290.6 541.9 M 358.0 486.8 L 362.0 490.8 M 362.0 486.8 L 358.0 490.8 M 210.1 424.1 L 214.1 428.1 M 214.1 424.1 L 210.1 428.1 M 250.7 414.5 L 254.7 418.5 M 254.7 414.5 L 250.7 418.5 M 238.8 579.7 L 242.8 583.7 M 242.8 579.7 L 238.8 583.7 M 315.1 554.2 L 319.1 558.2 M 319.1 554.2 L 315.1 558.2 M 310.7 584.1 L 314.7 588.1 M 314.7 584.1 L 310.7 588.1 M 362.5 542.3 L 366.5 546.3 M 366.5 542.3 L 362.5 546.3 M 295.8 601.4 L 299.8 605.4 M 299.8 601.4 L 295.8 605.4 M 343.2 589.5 L 347.2 593.5 M 347.2 589.5 L 343.2 593.5 M 152.3 499.7 L 156.3 503.7 M 156.3 499.7 L 152.3 503.7 M 100.3 471.2 L 104.3 475.2 M 104.3 471.2 L 100.3 475.2 M 138.6 432.7 L 142.6 436.7 M 142.6 432.7 L 138.6 436.7 M 287.3 379.1 L 291.3 383.1 M 291.3 379.1 L 287.3 383.1 M 224.6 351.6 L 228.6 355.6 M 228.6 351.6 L 224.6 355.6 M 261.2 316.2 L 265.2 320.2 M 265.2 316.2 L 261.2 320.2 M 344.9 421.3 L 348.9 425.3 M 348.9 421.3 L 344.9 425.3 M 370.8 421.8 L 374.8 425.8 M 374.8 421.8 L 370.8 425.8 M 187.7 406.4 L 191.7 410.4 M 191.7 406.4 L 187.7 410.4 M 212.6 390.4 L 216.6 394.4 M 216.6 390.4 L 212.6 394.4 M 227.2 249.8 L 231.2 253.8 M 231.2 249.8 L 227.2 253.8 M 265.6 278.3 L 269.6 282.3 M 269.6 278.3 L 265.6 282.3 M 290.8 275.1 L 294.8 279.1 M 294.8 275.1 L 290.8 279.1 M 310.5 258.2 L 314.5 262.2 M 314.5 258.2 L 310.5 262.2 M 341.8 248.7 L 345.8 252.7 M 345.8 248.7 L 341.8 252.7 M 362.6 235.5 L 366.6 239.5 M 366.6 235.5 L 362.6 239.5 M 397.3 261.7 L 401.3 265.7 M 401.3 261.7 L 397.3 265.7 M 212.1 258.2 L 216.1 262.2 M 216.1 258.2 L 212.1 262.2 M 208.9 326.0 L 212.9 330.0 M 212.9 326.0 L 208.9 330.0 M 198.2 296.4 L 202.2 300.4 M 202.2 296.4 L 198.2 300.4 M 185.7 334.3 L 189.7 338.3 M 189.7 334.3 L 185.7 338.3 M 189.0 266.5 L 193.0 270.5 M 193.0 266.5 L 189.0 270.5 M 167.8 259.7 L 171.8 263.7 M 171.8 259.7 L 167.8 263.7 M 128.3 274.1 L 132.3 278.1 M 132.3 274.1 L 128.3 278.1 M 81.5 311.3 L 85.5 315.3 M 85.5 311.3 L 81.5 315.3 M 112.3 252.1 L 116.3 256.1 M 116.3 252.1 L 112.3 256.1 M 427.9 219.2 L 431.9 223.2 M 431.9 219.2 L 427.9 223.2 M 427.7 174.4 L 431.7 178.4 M 431.7 174.4 L 427.7 178.4 M 444.5 219.1 L 448.5 223.1 M 448.5 219.1 L 444.5 223.1 M 205.1 621.4 L 209.1 625.4 M 209.1 621.4 L 205.1 625.4 M 229.7 637.7 L 233.7 641.7 M 233.7 637.7 L 229.7 641.7 M 184.4 604.9 L 188.4 608.9 M 188.4 604.9 L 184.4 608.9 M 416.8 386.6 L 420.8 390.6 M 420.8 386.6 L 416.8 390.6 M 419.1 438.4 L 423.1 442.4 M 423.1 438.4 L 419.1 442.4 M 383.2 646.0 L 387.2 650.0 M 387.2 646.0 L 383.2 650.0 M 398.1 628.7 L 402.1 632.7 M 402.1 628.7 L 398.1 632.7 M 409.6 616.8 L 413.6 620.8 M 413.6 616.8 L 409.6 620.8 M 415.8 589.1 L 419.8 593.1 M 419.8 589.1 L 415.8 593.1 M 354.0 666.6 L 358.0 670.6 M 358.0 666.6 L 354.0 670.6 M 458.8 169.3 L 462.8 173.3 M 462.8 169.3 L 458.8 173.3 M 461.2 189.5 L 465.2 193.5 M 465.2 189.5 L 461.2 193.5 M 84.1 213.5 L 88.1 217.5 M 88.1 213.5 L 84.1 217.5 M 130.9 176.3 L 134.9 180.3 M 134.9 176.3 L 130.9 180.3 M 55.6 246.4 L 59.6 250.4 M 59.6 246.4 L 55.6 250.4 M 51.3 179.9 L 55.3 183.9 M 55.3 179.9 L 51.3 183.9 M 40.7 279.9 L 44.7 283.9 M 44.7 279.9 L 40.7 283.9 M 156.8 171.3 L 160.8 175.3 M 160.8 171.3 L 156.8 175.3 M 106.1 122.7 L 110.1 126.7 M 110.1 122.7 L 106.1 126.7 M 132.0 117.7 L 136.0 121.7 M 136.0 117.7 L 132.0 121.7 M 100.1 63.7 L 104.1 67.7 M 104.1 63.7 L 100.1 67.7 M 107.1 50.6 L 111.1 54.6 M 111.1 50.6 L 107.1 54.6 M 89.9 56.5 L 93.9 60.5 M 93.9 56.5 L 89.9 60.5 M 99.4 100.5 L 103.4 104.5 M 103.4 100.5 L 99.4 104.5 M 77.3 44.8 L 81.3 48.8 M 81.3 44.8 L 77.3 48.8 M 32.3 196.6 L 36.3 200.6 M 36.3 196.6 L 32.3 200.6 M 298.4 151.8 L 302.4 155.8 M 302.4 151.8 L 298.4 155.8 M 264.4 170.3 L 268.4 174.3 M 268.4 170.3 L 264.4 174.3 M 280.8 116.7 L 284.8 120.7 M 284.8 116.7 L 280.8 120.7 M 262.1 114.7 L 266.1 118.7 M 266.1 114.7 L 262.1 118.7"
       display="none"
       id="marqueM_001"
       stroke="brown" />
    <path
       d="M 189.3 491.8 L 277.1 415.5 M 351.1 463.2 L 216.2 565.5 M 119.3 511.7 L 195.9 434.7 M 228.4 417.4 L 301.5 346.7 M 342.7 383.4 L 394.6 384.3 M 216.2 565.5 L 138.6 544.0 M 284.1 207.5 L 346.7 188.5 M 346.7 188.5 L 416.1 240.8 M 346.7 188.5 L 443.6 201.5 M 394.6 384.3 L 399.2 488.1 M 463.2 663.4 L 440.1 687.2 M 440.1 687.2 L 381.7 728.4 M 47.9 205.5 L 104.7 139.7 M 58.8 158.4 L 104.7 139.7 M 104.7 139.7 L 156.4 129.7 M 111.6 109.8 L 125.6 83.6 M 139.9 53.1 L 125.6 83.6 M 91.3 95.3 L 66.1 72.0 M 316.8 100.1 L 346.7 188.5 M 279.4 96.2 L 316.8 100.1"
       id="plisV_001"
       stroke="green"
       stroke-dasharray="4 1 1 1"
       stroke-width="1.27" />
    <path
       d="M 231.2 451.6 L 235.2 455.6 M 235.2 451.6 L 231.2 455.6 M 281.6 512.3 L 285.6 516.3 M 285.6 512.3 L 281.6 516.3 M 155.6 471.2 L 159.6 475.2 M 159.6 471.2 L 155.6 475.2 M 262.9 380.1 L 266.9 384.1 M 266.9 380.1 L 262.9 384.1 M 366.6 381.9 L 370.6 385.9 M 370.6 381.9 L 366.6 385.9 M 175.4 552.7 L 179.4 556.7 M 179.4 552.7 L 175.4 556.7 M 313.4 196.0 L 317.4 200.0 M 317.4 196.0 L 313.4 200.0 M 379.4 212.7 L 383.4 216.7 M 383.4 212.7 L 379.4 216.7 M 393.2 193.0 L 397.2 197.0 M 397.2 193.0 L 393.2 197.0 M 394.9 434.2 L 398.9 438.2 M 398.9 434.2 L 394.9 438.2 M 449.6 673.3 L 453.6 677.3 M 453.6 673.3 L 449.6 677.3 M 408.9 705.8 L 412.9 709.8 M 412.9 705.8 L 408.9 709.8 M 74.3 170.6 L 78.3 174.6 M 78.3 170.6 L 74.3 174.6 M 79.7 147.1 L 83.7 151.1 M 83.7 147.1 L 79.7 151.1 M 128.5 132.7 L 132.5 136.7 M 132.5 132.7 L 128.5 136.7 M 116.6 94.7 L 120.6 98.7 M 120.6 94.7 L 116.6 98.7 M 130.7 66.4 L 134.7 70.4 M 134.7 66.4 L 130.7 70.4 M 76.7 81.6 L 80.7 85.6 M 80.7 81.6 L 76.7 85.6 M 329.8 142.3 L 333.8 146.3 M 333.8 142.3 L 329.8 146.3 M 296.1 96.2 L 300.1 100.2 M 300.1 96.2 L 296.1 100.2"
       id="marqueV_001"
       stroke="green" />
    <path
       d="M 249.3 342.4 L 250.8 341.7 L 253.0 339.4 L 253.0 355.2"
       id="titre_1"
       stroke="indigo" />
  </g>
  <g
     id="page_002">
    <path
       d="M 798.3 300.6 L 801.3 299.1 L 800.8 302.1 L 801.6 301.7 L 802.2 301.7 L 802.6 301.8 L 803.3 302.5 L 803.6 303.0 L 803.7 303.9 L 803.5 304.7 L 802.8 305.4 L 802.0 305.8 L 801.1 306.0 L 800.7 305.8 L 800.1 305.4 M 803.1 298.2 L 806.0 296.7 L 805.5 299.6 L 806.3 299.2 L 807.0 299.2 L 807.4 299.4 L 808.1 300.0 L 808.3 300.6 L 808.5 301.5 L 808.2 302.3 L 807.6 303.0 L 806.8 303.4 L 805.8 303.5 L 805.4 303.4 L 804.9 303.0 M 807.0 242.5 L 806.4 242.8 L 805.5 243.8 L 805.4 237.5 M 803.8 242.5 L 803.8 242.8 L 803.5 243.4 L 803.2 243.7 L 802.6 244.0 L 801.4 244.0 L 800.8 243.7 L 800.5 243.4 L 800.2 242.8 L 800.2 242.2 L 800.5 241.6 L 801.1 240.7 L 804.1 237.7 L 799.9 237.7 M 836.9 230.0 L 836.6 230.7 L 836.5 231.9 L 832.4 227.2 M 835.4 233.2 L 832.9 235.4 L 832.7 232.4 L 832.0 233.0 L 831.3 233.1 L 830.9 233.1 L 830.1 232.6 L 829.7 232.2 L 829.3 231.3 L 829.4 230.4 L 829.9 229.6 L 830.6 229.0 L 831.5 228.7 L 831.9 228.7 L 832.5 229.0 M 856.8 231.4 L 853.5 230.8 L 855.8 228.8 L 854.9 228.6 L 854.4 228.2 L 854.2 227.8 L 854.1 226.9 L 854.2 226.3 L 854.7 225.5 L 855.4 225.0 L 856.3 224.9 L 857.2 225.1 L 858.0 225.6 L 858.2 225.9 L 858.4 226.6 M 852.5 229.1 L 851.9 229.3 L 850.8 230.0 L 852.1 223.8 M 872.3 253.9 L 877.3 255.0 L 875.5 250.8 M 872.3 253.9 L 878.1 251.4 M 870.6 249.8 L 871.2 250.5 L 872.3 250.7 L 873.8 250.4 L 874.6 250.0 L 875.8 249.1 L 876.4 248.2 L 876.3 247.3 L 876.1 246.7 L 875.5 246.0 L 874.4 245.8 L 872.9 246.1 L 872.1 246.5 L 870.8 247.4 L 870.2 248.3 L 870.3 249.2 L 870.5 249.6 M 839.7 334.3 L 840.3 337.5 L 837.6 336.2 L 837.7 337.0 L 837.5 337.7 L 837.3 338.0 L 836.5 338.5 L 835.9 338.6 L 834.9 338.4 L 834.2 337.9 L 833.8 337.1 L 833.7 336.2 L 833.8 335.2 L 834.1 334.9 L 834.6 334.5 M 840.7 340.5 L 840.3 339.6 L 839.7 339.4 L 839.1 339.5 L 838.5 339.9 L 838.3 340.5 L 838.2 341.8 L 838.1 342.7 L 837.6 343.4 L 837.0 343.8 L 836.1 343.9 L 835.5 343.7 L 835.1 343.5 L 834.7 342.6 L 834.5 341.5 L 834.7 340.5 L 834.9 340.2 L 835.5 339.8 L 836.3 339.6 L 837.0 339.8 L 837.7 340.3 L 838.1 341.2 L 838.6 342.3 L 839.0 342.9 L 839.6 343.1 L 840.2 343.0 L 840.8 342.6 L 840.9 341.6 L 840.7 340.3 M 859.6 381.6 L 862.7 382.6 L 860.3 384.4 L 861.2 384.6 L 861.6 385.1 L 861.8 385.5 L 861.9 386.4 L 861.7 387.0 L 861.1 387.8 L 860.4 388.2 L 859.4 388.2 L 858.6 387.9 L 857.8 387.4 L 857.6 387.0 L 857.5 386.3 M 867.5 384.1 L 864.7 383.2 L 863.6 385.7 L 864.0 385.5 L 864.9 385.5 L 865.8 385.7 L 866.5 386.3 L 866.9 387.0 L 867.0 388.0 L 866.8 388.5 L 866.2 389.3 L 865.5 389.7 L 864.6 389.7 L 863.7 389.5 L 862.9 388.9 L 862.7 388.6 L 862.6 387.9 M 907.8 368.1 L 904.7 366.8 L 907.3 365.3 L 906.5 364.9 L 906.0 364.4 L 905.9 364.0 L 905.9 363.1 L 906.2 362.5 L 906.8 361.8 L 907.6 361.5 L 908.5 361.6 L 909.4 361.9 L 910.1 362.5 L 910.2 362.9 L 910.3 363.6 M 899.6 364.7 L 904.8 360.0 M 903.5 366.3 L 899.6 364.7 M 905.9 296.9 L 903.4 294.7 L 906.3 294.1 L 905.7 293.5 L 905.4 292.9 L 905.4 292.4 L 905.8 291.6 L 906.1 291.1 L 907.0 290.6 L 907.8 290.6 L 908.7 290.9 L 909.4 291.5 L 909.8 292.4 L 909.9 292.8 L 909.7 293.4 M 900.8 289.6 L 901.6 289.1 L 902.4 289.1 L 903.3 289.4 L 903.5 289.6 L 904.0 290.4 L 904.1 291.3 L 903.7 292.2 L 903.5 292.4 L 902.7 292.9 L 901.8 292.9 L 901.0 292.6 L 900.7 292.4 L 900.3 291.5 L 900.2 290.7 L 900.8 289.6 L 901.8 288.5 L 903.0 287.5 L 904.0 287.3 L 904.9 287.6 L 905.3 288.0 L 905.8 288.8 L 905.6 289.5 M 905.3 346.2 L 908.5 347.0 L 906.2 348.9 L 907.1 349.1 L 907.6 349.6 L 907.8 349.9 L 907.9 350.9 L 907.7 351.4 L 907.2 352.2 L 906.5 352.7 L 905.5 352.8 L 904.7 352.5 L 903.9 352.0 L 903.7 351.7 L 903.5 351.0 M 913.9 348.3 L 909.4 353.7 M 909.8 347.3 L 913.9 348.3 M 752.2 234.2 L 750.8 231.5 L 748.3 232.4 L 748.7 232.6 L 749.4 233.2 L 749.8 234.0 L 749.9 235.0 L 749.7 235.8 L 749.0 236.5 L 748.4 236.7 L 747.5 236.9 L 746.7 236.6 L 746.0 235.9 L 745.6 235.1 L 745.5 234.2 L 745.6 233.8 L 746.0 233.3 M 751.9 236.9 L 752.1 236.7 L 752.8 236.7 L 753.2 236.9 L 753.8 237.3 L 754.3 238.3 L 754.3 239.0 L 754.2 239.4 L 753.8 239.9 L 753.2 240.2 L 752.6 240.2 L 751.5 240.1 L 747.5 238.8 L 749.3 242.5 M 951.9 349.3 L 949.0 349.7 L 949.1 352.4 L 949.3 352.1 L 950.2 351.7 L 951.1 351.5 L 952.0 351.7 L 952.7 352.2 L 953.1 353.0 L 953.2 353.6 L 953.1 354.5 L 952.6 355.2 L 951.7 355.7 L 950.8 355.8 L 949.9 355.6 L 949.5 355.4 L 949.2 354.8 M 957.7 348.4 L 955.7 355.1 M 953.5 349.0 L 957.7 348.4 M 978.6 337.0 L 978.3 336.9 L 977.9 336.4 L 977.7 336.0 L 977.7 335.4 L 978.1 334.2 L 978.6 333.8 L 979.0 333.6 L 979.7 333.6 L 980.3 333.8 L 980.7 334.3 L 981.3 335.2 L 982.9 339.1 L 984.5 335.3 M 979.7 330.4 L 979.6 331.4 L 980.1 331.9 L 980.6 332.1 L 981.3 332.0 L 981.8 331.6 L 982.6 330.6 L 983.2 329.9 L 984.0 329.6 L 984.6 329.5 L 985.5 329.9 L 985.9 330.4 L 986.1 330.8 L 986.0 331.7 L 985.5 332.8 L 984.9 333.5 L 984.5 333.7 L 983.9 333.7 L 983.0 333.4 L 982.6 332.9 L 982.3 332.1 L 982.3 331.2 L 982.5 329.9 L 982.5 329.3 L 982.0 328.8 L 981.5 328.5 L 980.8 328.6 L 980.2 329.3 L 979.7 330.5 M 783.4 220.2 L 783.3 219.6 L 782.7 218.5 L 788.7 220.3 M 784.1 217.8 L 784.0 217.1 L 783.4 216.0 L 789.5 217.8 M 791.1 179.6 L 791.6 176.4 L 793.7 178.5 L 793.8 177.6 L 794.2 177.1 L 794.6 176.8 L 795.5 176.7 L 796.1 176.8 L 796.9 177.2 L 797.4 177.9 L 797.6 178.8 L 797.4 179.7 L 797.0 180.6 L 796.7 180.8 L 796.0 181.0 M 792.1 173.2 L 792.3 174.1 L 793.1 174.8 L 794.5 175.4 L 795.4 175.5 L 796.9 175.4 L 797.9 175.0 L 798.3 174.1 L 798.4 173.6 L 798.3 172.6 L 797.5 171.9 L 796.0 171.4 L 795.2 171.2 L 793.6 171.3 L 792.6 171.7 L 792.2 172.6 L 792.1 173.0 M 764.8 152.9 L 765.0 153.1 L 765.4 153.6 L 765.6 154.0 L 765.6 154.7 L 765.1 155.8 L 764.5 156.2 L 764.1 156.3 L 763.5 156.3 L 762.9 156.0 L 762.5 155.5 L 762.0 154.6 L 760.6 150.6 L 758.7 154.3 M 763.6 158.7 L 762.2 161.6 L 760.8 159.0 L 760.4 159.8 L 759.9 160.2 L 759.5 160.3 L 758.6 160.2 L 758.0 159.9 L 757.3 159.3 L 757.1 158.5 L 757.2 157.5 L 757.6 156.7 L 758.2 156.0 L 758.6 155.9 L 759.3 155.9 M 803.5 56.5 L 804.7 51.5 L 800.6 53.2 M 803.5 56.5 L 801.2 50.7 M 796.6 56.9 L 796.6 56.0 L 796.9 55.2 L 797.6 54.6 L 797.9 54.5 L 798.8 54.4 L 799.6 54.8 L 800.2 55.5 L 800.3 55.8 L 800.4 56.7 L 800.1 57.5 L 799.3 58.1 L 799.1 58.2 L 798.1 58.3 L 797.3 57.9 L 796.6 56.9 L 796.1 55.5 L 795.8 54.0 L 796.0 53.0 L 796.7 52.4 L 797.3 52.2 L 798.2 52.1 L 798.7 52.5 M 753.4 89.0 L 753.7 88.9 L 754.3 88.9 L 754.7 89.0 L 755.3 89.4 L 755.8 90.5 L 755.8 91.2 L 755.7 91.6 L 755.3 92.1 L 754.8 92.4 L 754.1 92.4 L 753.0 92.3 L 749.0 91.0 L 750.9 94.7 M 756.0 94.0 L 756.2 93.8 L 756.9 93.8 L 757.3 94.0 L 757.8 94.4 L 758.4 95.4 L 758.4 96.1 L 758.3 96.5 L 757.9 97.0 L 757.4 97.3 L 756.7 97.3 L 755.6 97.2 L 751.6 95.9 L 753.5 99.7 M 761.3 65.2 L 760.7 65.6 L 759.9 66.6 L 759.2 60.3 M 755.1 66.4 L 755.5 67.0 L 756.4 67.2 L 757.0 67.1 L 757.9 66.7 L 758.4 65.8 L 758.5 64.3 L 758.3 62.8 L 757.9 61.6 L 757.2 61.1 L 756.3 60.9 L 756.0 60.9 L 755.2 61.3 L 754.6 62.0 L 754.4 62.9 L 754.5 63.2 L 754.9 64.0 L 755.5 64.6 L 756.4 64.8 L 756.7 64.7 L 757.6 64.3 L 758.1 63.7 L 758.3 62.8 M 826.4 65.4 L 828.7 67.4 L 830.7 65.6 L 830.3 65.6 L 829.4 65.2 L 828.7 64.6 L 828.3 63.8 L 828.2 63.0 L 828.6 62.1 L 829.0 61.6 L 829.8 61.2 L 830.7 61.1 L 831.5 61.5 L 832.2 62.1 L 832.7 62.9 L 832.7 63.3 L 832.5 64.0 M 824.0 63.2 L 824.9 63.6 L 825.5 63.4 L 825.9 62.9 L 826.1 62.3 L 825.8 61.6 L 825.1 60.6 L 824.7 59.8 L 824.6 58.9 L 824.8 58.3 L 825.4 57.6 L 826.0 57.4 L 826.4 57.3 L 827.3 57.7 L 828.2 58.5 L 828.7 59.3 L 828.7 59.8 L 828.5 60.4 L 827.9 61.1 L 827.3 61.3 L 826.5 61.4 L 825.6 61.0 L 824.5 60.4 L 823.9 60.3 L 823.2 60.5 L 822.8 61.0 L 822.7 61.6 L 823.1 62.4 L 824.1 63.3 M 816.3 111.1 L 817.9 108.2 L 819.1 111.0 L 819.5 110.2 L 820.1 109.8 L 820.5 109.7 L 821.4 109.9 L 821.9 110.2 L 822.6 110.9 L 822.8 111.7 L 822.6 112.6 L 822.2 113.4 L 821.5 114.1 L 821.1 114.2 L 820.4 114.1 M 820.1 104.2 L 822.3 108.9 L 824.5 105.0 M 820.1 104.2 L 825.6 107.3 M 941.0 392.0 L 943.1 394.1 L 945.2 392.4 L 944.8 392.4 L 943.9 392.0 L 943.3 391.4 L 942.9 390.5 L 942.9 389.7 L 943.3 388.8 L 943.7 388.4 L 944.6 388.0 L 945.4 388.0 L 946.3 388.4 L 946.9 389.0 L 947.3 389.9 L 947.3 390.3 L 947.1 390.9 M 936.9 387.9 L 943.4 385.6 M 939.8 390.9 L 936.9 387.9 M 938.2 402.3 L 935.4 403.3 L 936.0 406.0 L 936.2 405.6 L 936.9 405.0 L 937.8 404.7 L 938.7 404.7 L 939.5 405.1 L 940.1 405.8 L 940.2 406.4 L 940.3 407.3 L 939.9 408.1 L 939.1 408.7 L 938.3 409.0 L 937.3 409.0 L 937.0 408.8 L 936.5 408.3 M 940.2 403.1 L 940.7 402.6 L 941.3 401.5 L 943.3 407.5 M 883.5 427.6 L 882.5 430.7 L 880.7 428.3 L 880.5 429.2 L 880.0 429.7 L 879.6 429.9 L 878.7 429.9 L 878.1 429.7 L 877.3 429.2 L 876.9 428.5 L 876.9 427.5 L 877.2 426.6 L 877.7 425.9 L 878.1 425.7 L 878.7 425.5 M 880.2 435.3 L 880.9 435.2 L 881.4 434.4 L 881.6 433.9 L 881.6 432.9 L 880.9 432.1 L 879.5 431.4 L 878.1 430.9 L 876.8 430.9 L 876.1 431.3 L 875.6 432.1 L 875.5 432.3 L 875.5 433.3 L 875.9 434.0 L 876.7 434.6 L 877.0 434.7 L 877.9 434.6 L 878.7 434.2 L 879.2 433.5 L 879.3 433.2 L 879.3 432.2 L 878.9 431.5 L 878.1 430.9 M 925.9 439.9 L 927.4 442.5 L 929.9 441.4 L 929.5 441.3 L 928.7 440.6 L 928.3 439.9 L 928.1 438.9 L 928.3 438.1 L 928.9 437.4 L 929.4 437.1 L 930.4 436.9 L 931.2 437.1 L 931.9 437.7 L 932.4 438.5 L 932.6 439.4 L 932.5 439.8 L 932.1 440.4 M 924.1 436.9 L 924.8 437.5 L 925.9 437.5 L 927.3 437.0 L 928.1 436.6 L 929.2 435.5 L 929.7 434.6 L 929.5 433.6 L 929.2 433.1 L 928.4 432.5 L 927.4 432.4 L 925.9 433.0 L 925.1 433.4 L 924.0 434.4 L 923.5 435.4 L 923.7 436.3 L 924.0 436.7 M 915.3 474.5 L 915.1 474.3 L 914.8 473.7 L 914.8 473.2 L 914.9 472.6 L 915.7 471.6 L 916.3 471.4 L 916.7 471.3 L 917.4 471.5 L 917.8 471.9 L 918.1 472.5 L 918.4 473.5 L 918.8 477.7 L 921.5 474.5 M 920.3 467.4 L 919.7 467.2 L 918.9 467.7 L 918.5 468.2 L 918.2 469.1 L 918.5 470.1 L 919.4 471.3 L 920.6 472.3 L 921.7 472.8 L 922.6 472.7 L 923.4 472.2 L 923.6 472.0 L 923.9 471.1 L 923.8 470.2 L 923.3 469.4 L 923.1 469.2 L 922.2 468.9 L 921.4 469.0 L 920.5 469.5 L 920.4 469.7 L 920.0 470.6 L 920.1 471.5 L 920.6 472.3 M 884.1 500.9 L 881.6 502.5 L 882.7 505.0 L 882.8 504.6 L 883.4 503.8 L 884.2 503.4 L 885.1 503.1 L 885.9 503.3 L 886.7 504.0 L 887.0 504.5 L 887.2 505.4 L 887.0 506.2 L 886.4 506.9 L 885.6 507.4 L 884.7 507.6 L 884.3 507.5 L 883.7 507.2 M 818.5 506.6 L 817.9 505.8 L 817.3 505.7 L 816.7 505.8 L 816.2 506.3 L 816.1 506.9 L 816.1 508.2 L 816.1 509.1 L 815.6 509.9 L 815.1 510.3 L 814.3 510.6 L 813.6 510.4 L 813.3 510.2 L 812.7 509.4 L 812.4 508.3 L 812.4 507.3 L 812.7 507.0 L 813.2 506.5 L 814.0 506.3 L 814.7 506.4 L 815.4 506.8 L 815.9 507.6 L 816.6 508.7 L 817.0 509.2 L 817.7 509.3 L 818.2 509.1 L 818.7 508.7 L 818.8 507.7 L 818.4 506.4 M 832.4 540.1 L 832.8 539.5 L 832.6 538.6 L 832.3 538.1 L 831.6 537.4 L 830.5 537.4 L 829.1 537.9 L 827.8 538.6 L 826.9 539.5 L 826.6 540.3 L 826.8 541.2 L 827.0 541.5 L 827.7 542.1 L 828.5 542.3 L 829.4 542.1 L 829.7 542.0 L 830.3 541.3 L 830.6 540.4 L 830.4 539.5 L 830.2 539.3 L 829.5 538.6 L 828.7 538.4 L 827.8 538.6 M 847.0 534.4 L 848.3 539.4 L 851.1 535.9 M 847.0 534.4 L 851.8 538.4 M 803.7 422.1 L 800.4 422.6 L 801.9 419.9 L 801.0 420.1 L 800.3 419.8 L 800.0 419.6 L 799.6 418.7 L 799.5 418.1 L 799.7 417.2 L 800.2 416.5 L 801.0 416.1 L 801.9 416.0 L 802.8 416.1 L 803.2 416.4 L 803.6 416.9 M 795.5 423.3 L 798.4 422.9 L 798.3 420.1 L 798.1 420.5 L 797.2 420.9 L 796.3 421.0 L 795.4 420.9 L 794.7 420.4 L 794.3 419.5 L 794.2 418.9 L 794.4 418.0 L 794.9 417.3 L 795.7 416.9 L 796.6 416.7 L 797.6 416.9 L 797.9 417.2 L 798.3 417.7 M 839.6 445.3 L 837.4 442.8 L 840.4 442.6 L 839.8 441.9 L 839.7 441.3 L 839.7 440.9 L 840.2 440.1 L 840.6 439.7 L 841.5 439.3 L 842.4 439.4 L 843.2 439.8 L 843.8 440.5 L 844.1 441.4 L 844.1 441.8 L 843.9 442.4 M 834.8 438.4 L 834.6 439.1 L 834.9 439.9 L 835.3 440.4 L 836.1 440.9 L 837.2 440.7 L 838.5 440.0 L 839.7 439.0 L 840.4 438.0 L 840.4 437.1 L 840.1 436.3 L 839.9 436.0 L 839.1 435.5 L 838.2 435.5 L 837.3 435.9 L 837.1 436.1 L 836.6 436.9 L 836.6 437.7 L 836.9 438.6 L 837.1 438.8 L 837.9 439.3 L 838.8 439.4 L 839.7 439.0 M 791.1 504.6 L 790.9 505.5 L 791.3 506.1 L 791.8 506.4 L 792.4 506.5 L 793.0 506.1 L 793.9 505.3 L 794.6 504.7 L 795.4 504.5 L 796.1 504.5 L 796.9 505.0 L 797.2 505.6 L 797.3 506.0 L 797.1 506.9 L 796.5 507.9 L 795.7 508.5 L 795.3 508.6 L 794.7 508.6 L 793.9 508.1 L 793.5 507.5 L 793.4 506.7 L 793.6 505.8 L 793.9 504.6 L 794.0 503.9 L 793.7 503.4 L 793.1 503.0 L 792.5 503.0 L 791.7 503.6 L 791.0 504.7 M 712.1 428.4 L 714.9 427.5 L 714.4 424.8 L 714.2 425.2 L 713.5 425.7 L 712.6 426.0 L 711.7 426.0 L 710.9 425.6 L 710.4 424.8 L 710.2 424.2 L 710.2 423.3 L 710.6 422.5 L 711.4 422.0 L 712.3 421.7 L 713.2 421.7 L 713.6 421.9 L 714.0 422.4 M 707.4 429.8 L 709.1 424.9 L 704.7 426.2 M 707.4 429.8 L 705.6 423.8 M 769.5 521.4 L 769.0 521.0 L 768.1 521.0 L 767.5 521.2 L 766.8 521.9 L 766.6 522.9 L 766.8 524.4 L 767.4 525.8 L 768.1 526.8 L 768.9 527.2 L 769.8 527.1 L 770.1 527.0 L 770.8 526.4 L 771.2 525.6 L 771.1 524.7 L 771.0 524.4 L 770.4 523.7 L 769.6 523.3 L 768.7 523.4 L 768.4 523.5 L 767.7 524.1 L 767.3 524.9 L 767.4 525.8 M 690.7 454.8 L 691.1 455.3 L 692.0 456.2 L 685.7 456.5 M 692.3 458.8 L 692.0 458.0 L 691.4 457.7 L 690.8 457.7 L 690.2 458.0 L 689.9 458.6 L 689.7 459.9 L 689.4 460.8 L 688.8 461.4 L 688.3 461.7 L 687.4 461.8 L 686.7 461.5 L 686.4 461.2 L 686.1 460.3 L 686.0 459.1 L 686.3 458.2 L 686.6 457.9 L 687.2 457.6 L 688.1 457.5 L 688.7 457.8 L 689.3 458.4 L 689.6 459.3 L 690.0 460.4 L 690.3 461.0 L 690.9 461.3 L 691.5 461.3 L 692.1 460.9 L 692.4 460.0 L 692.3 458.7 M 931.5 285.3 L 926.8 283.2 L 927.7 287.6 M 931.5 285.3 L 925.3 286.6 M 930.6 288.1 L 931.0 288.7 L 932.0 289.4 L 925.9 290.6 M 960.1 266.7 L 961.2 261.7 L 957.0 263.4 M 960.1 266.7 L 957.6 260.9 M 957.1 267.9 L 954.0 269.2 L 954.7 266.3 L 953.9 266.7 L 953.3 266.6 L 952.9 266.5 L 952.2 265.8 L 952.0 265.2 L 951.9 264.3 L 952.2 263.5 L 952.9 262.8 L 953.8 262.5 L 954.7 262.4 L 955.1 262.6 L 955.6 263.0 M 984.0 283.2 L 983.5 283.6 L 983.2 284.5 L 983.3 285.1 L 983.7 285.9 L 984.6 286.5 L 986.1 286.6 L 987.6 286.5 L 988.8 286.1 L 989.3 285.5 L 989.6 284.5 L 989.5 284.2 L 989.2 283.4 L 988.5 282.8 L 987.6 282.6 L 987.3 282.6 L 986.4 283.0 L 985.9 283.7 L 985.7 284.6 L 985.7 284.9 L 986.1 285.7 L 986.7 286.3 L 987.6 286.5 M 982.9 280.0 L 983.2 280.9 L 984.2 281.4 L 985.7 281.6 L 986.6 281.5 L 988.1 281.1 L 988.9 280.4 L 989.1 279.5 L 989.1 278.9 L 988.7 278.0 L 987.8 277.5 L 986.2 277.3 L 985.3 277.4 L 983.9 277.9 L 983.0 278.5 L 982.8 279.4 L 982.8 279.9 M 692.4 516.9 L 692.7 516.9 L 693.3 517.2 L 693.6 517.5 L 693.9 518.1 L 693.9 519.3 L 693.6 519.9 L 693.3 520.2 L 692.7 520.5 L 692.1 520.5 L 691.5 520.2 L 690.6 519.6 L 687.6 516.7 L 687.6 520.9 M 694.0 525.1 L 689.8 522.1 L 689.8 526.6 M 694.0 525.1 L 687.7 525.2 M 706.5 570.1 L 706.7 569.9 L 707.4 569.8 L 707.8 569.8 L 708.4 570.1 L 709.1 571.1 L 709.3 571.7 L 709.2 572.1 L 708.9 572.7 L 708.4 573.1 L 707.8 573.2 L 706.7 573.3 L 702.5 572.8 L 705.1 576.1 M 712.3 576.5 L 712.5 575.9 L 712.2 575.0 L 711.9 574.6 L 711.1 574.0 L 710.0 574.1 L 708.6 574.8 L 707.4 575.7 L 706.7 576.7 L 706.6 577.6 L 706.9 578.4 L 707.1 578.7 L 707.9 579.2 L 708.7 579.3 L 709.6 579.0 L 709.8 578.8 L 710.4 578.0 L 710.5 577.2 L 710.1 576.3 L 710.0 576.0 L 709.2 575.5 L 708.3 575.4 L 707.4 575.7 M 748.0 564.1 L 752.7 566.3 L 751.9 561.9 M 748.0 564.1 L 754.2 563.0 M 740.3 587.5 L 737.5 588.3 L 738.0 591.0 L 738.2 590.6 L 738.9 590.1 L 739.8 589.8 L 740.7 589.8 L 741.5 590.2 L 742.0 591.0 L 742.2 591.6 L 742.2 592.5 L 741.8 593.3 L 741.0 593.8 L 740.2 594.1 L 739.2 594.1 L 738.9 593.9 L 738.4 593.4 M 711.7 205.9 L 712.4 205.7 L 713.5 205.1 L 711.8 211.2 M 727.5 171.3 L 725.2 169.0 L 728.2 168.5 L 727.5 167.9 L 727.3 167.3 L 727.3 166.8 L 727.7 166.0 L 728.2 165.6 L 729.0 165.1 L 729.9 165.1 L 730.7 165.6 L 731.3 166.2 L 731.8 167.0 L 731.8 167.5 L 731.6 168.1 M 688.6 178.7 L 689.0 179.2 L 690.1 180.0 L 683.9 181.1 M 701.1 159.9 L 701.1 160.2 L 700.9 160.8 L 700.6 161.2 L 700.1 161.6 L 698.9 161.7 L 698.3 161.5 L 697.9 161.2 L 697.6 160.7 L 697.5 160.1 L 697.7 159.4 L 698.2 158.5 L 700.8 155.1 L 696.6 155.7 M 701.2 294.6 L 701.8 294.8 L 703.1 295.0 L 698.2 298.9 M 706.5 298.9 L 699.7 300.5 M 703.9 295.6 L 706.5 298.9 M 735.5 250.1 L 737.5 252.3 L 739.7 250.6 L 739.3 250.6 L 738.4 250.2 L 737.8 249.5 L 737.4 248.7 L 737.4 247.8 L 737.9 247.0 L 738.3 246.6 L 739.2 246.2 L 740.0 246.2 L 740.9 246.6 L 741.5 247.3 L 741.9 248.1 L 741.9 248.6 L 741.7 249.2 M 735.0 247.4 L 734.8 247.6 L 734.1 247.8 L 733.7 247.8 L 733.1 247.6 L 732.3 246.7 L 732.1 246.1 L 732.1 245.7 L 732.3 245.0 L 732.7 244.6 L 733.4 244.4 L 734.4 244.2 L 738.7 244.3 L 735.8 241.3 M 705.9 232.6 L 705.8 232.9 L 705.5 233.5 L 705.2 233.8 L 704.6 234.0 L 703.4 233.9 L 702.8 233.6 L 702.5 233.3 L 702.2 232.7 L 702.3 232.1 L 702.6 231.5 L 703.3 230.6 L 706.4 227.8 L 702.3 227.6 M 642.1 233.4 L 642.1 233.7 L 641.9 234.3 L 641.6 234.6 L 641.0 235.0 L 639.8 235.0 L 639.2 234.8 L 638.9 234.5 L 638.5 233.9 L 638.5 233.3 L 638.8 232.7 L 639.3 231.8 L 642.2 228.6 L 638.0 228.8 M 637.2 233.8 L 636.6 234.1 L 635.7 235.0 L 635.4 228.7 M 587.5 264.3 L 587.8 264.4 L 588.3 264.8 L 588.5 265.2 L 588.6 265.9 L 588.3 267.0 L 587.8 267.5 L 587.5 267.7 L 586.8 267.9 L 586.2 267.7 L 585.7 267.2 L 585.0 266.4 L 583.0 262.7 L 581.8 266.8 M 587.1 271.3 L 587.1 270.4 L 586.3 269.5 L 585.0 268.9 L 584.1 268.6 L 582.6 268.5 L 581.6 268.8 L 581.0 269.6 L 580.9 270.2 L 580.9 271.1 L 581.6 272.0 L 583.0 272.7 L 583.8 272.9 L 585.4 273.0 L 586.4 272.7 L 586.9 271.9 L 587.1 271.5 M 678.4 312.4 L 678.0 311.8 L 677.0 311.1 L 683.2 310.2 M 676.0 306.0 L 682.7 308.0 M 676.6 310.1 L 676.0 306.0 M 653.6 335.7 L 654.1 335.3 L 654.8 334.3 L 656.0 340.5 M 657.4 333.6 L 656.5 334.0 L 656.4 334.7 L 656.5 335.3 L 656.9 335.8 L 657.5 336.0 L 658.8 336.0 L 659.7 336.2 L 660.4 336.6 L 660.8 337.2 L 661.0 338.0 L 660.8 338.7 L 660.6 339.0 L 659.7 339.5 L 658.6 339.7 L 657.6 339.6 L 657.3 339.4 L 656.9 338.8 L 656.7 338.0 L 656.9 337.3 L 657.3 336.6 L 658.2 336.1 L 659.3 335.6 L 659.8 335.2 L 660.0 334.6 L 659.9 334.0 L 659.5 333.4 L 658.5 333.3 L 657.2 333.6 M 591.0 353.0 L 590.9 352.7 L 591.0 352.0 L 591.2 351.6 L 591.6 351.2 L 592.8 350.8 L 593.4 350.9 L 593.8 351.1 L 594.3 351.5 L 594.5 352.1 L 594.4 352.8 L 594.1 353.8 L 592.2 357.6 L 596.2 356.3 M 598.2 348.9 L 596.7 353.8 L 601.0 352.4 M 598.2 348.9 L 600.2 354.9 M 574.9 331.8 L 575.2 331.9 L 575.8 332.2 L 576.1 332.5 L 576.4 333.1 L 576.3 334.3 L 576.0 334.9 L 575.7 335.2 L 575.1 335.5 L 574.5 335.4 L 573.9 335.1 L 573.0 334.5 L 570.1 331.4 L 570.0 335.6 M 576.1 340.5 L 576.2 337.5 L 573.5 337.1 L 573.8 337.4 L 574.1 338.4 L 574.1 339.3 L 573.7 340.1 L 573.1 340.7 L 572.2 341.0 L 571.6 341.0 L 570.7 340.6 L 570.1 340.0 L 569.9 339.1 L 569.9 338.2 L 570.2 337.3 L 570.5 337.0 L 571.1 336.7 M 764.6 332.5 L 766.5 329.9 L 767.4 332.7 L 767.9 332.0 L 768.5 331.7 L 768.9 331.6 L 769.8 331.9 L 770.3 332.3 L 770.9 333.0 L 771.0 333.9 L 770.7 334.8 L 770.2 335.5 L 769.4 336.1 L 769.0 336.1 L 768.3 336.0 M 768.9 329.1 L 768.6 329.0 L 768.3 328.4 L 768.3 328.0 L 768.4 327.3 L 769.1 326.3 L 769.7 326.0 L 770.1 326.0 L 770.7 326.1 L 771.2 326.4 L 771.5 327.0 L 771.9 328.0 L 772.6 332.2 L 775.0 328.8 M 741.1 329.8 L 738.6 328.3 L 736.9 330.4 L 737.3 330.3 L 738.3 330.5 L 739.0 331.0 L 739.6 331.7 L 739.8 332.5 L 739.6 333.5 L 739.3 334.0 L 738.6 334.6 L 737.8 334.8 L 736.8 334.6 L 736.1 334.1 L 735.5 333.4 L 735.4 333.0 L 735.4 332.3 M 745.3 332.3 L 740.6 334.3 L 744.4 336.7 M 745.3 332.3 L 742.1 337.7 M 728.9 385.6 L 730.4 388.6 L 727.4 388.0 L 727.8 388.8 L 727.8 389.5 L 727.7 389.9 L 727.0 390.5 L 726.4 390.8 L 725.5 390.9 L 724.7 390.6 L 724.0 389.9 L 723.7 389.1 L 723.5 388.2 L 723.7 387.8 L 724.1 387.3 M 729.9 391.0 L 730.1 390.8 L 730.8 390.9 L 731.2 391.0 L 731.7 391.4 L 732.3 392.5 L 732.3 393.2 L 732.1 393.6 L 731.7 394.1 L 731.2 394.4 L 730.5 394.3 L 729.4 394.2 L 725.4 392.8 L 727.2 396.6 M 734.9 355.9 L 733.1 358.7 L 732.1 355.9 L 731.6 356.7 L 731.0 357.0 L 730.6 357.1 L 729.7 356.9 L 729.2 356.5 L 728.6 355.8 L 728.4 355.0 L 728.6 354.0 L 729.1 353.3 L 729.8 352.7 L 730.3 352.6 L 730.9 352.7 M 732.0 360.4 L 730.2 363.2 L 729.2 360.4 L 728.7 361.1 L 728.1 361.5 L 727.7 361.6 L 726.8 361.3 L 726.3 361.0 L 725.7 360.3 L 725.5 359.5 L 725.7 358.5 L 726.2 357.8 L 727.0 357.2 L 727.4 357.1 L 728.0 357.2 M 750.5 385.3 L 749.1 382.3 L 752.1 382.9 L 751.7 382.1 L 751.7 381.4 L 751.8 381.0 L 752.5 380.4 L 753.1 380.1 L 754.0 380.0 L 754.8 380.3 L 755.5 381.0 L 755.8 381.8 L 756.0 382.8 L 755.8 383.2 L 755.4 383.7 M 747.9 379.7 L 748.5 380.3 L 749.2 380.4 L 749.7 380.1 L 750.1 379.6 L 750.2 378.9 L 749.9 377.7 L 749.8 376.7 L 750.1 376.0 L 750.5 375.4 L 751.3 375.0 L 752.0 375.1 L 752.4 375.2 L 753.1 375.9 L 753.6 377.0 L 753.7 377.9 L 753.5 378.3 L 753.1 378.8 L 752.3 379.2 L 751.6 379.2 L 750.8 378.9 L 750.2 378.2 L 749.4 377.3 L 748.9 376.9 L 748.2 376.8 L 747.7 377.1 L 747.2 377.6 L 747.4 378.6 L 747.9 379.8"
       id="nums_002"
       stroke="black"
       stroke-width="1" />
    <path
       d="m 836,560.9 -21.1,-36.4 -18.9,-12 10.7,-17.4 -16,26 -12.2,20.8 -3.9,1.6 -23.1,-7.1 16.9,9.3 5.2,29.3 -12.6,14.6 -12.9,19.8 -3.8,1.2 -21.8,-9 -20.1,-1.3 -20.2,-25.9 3.6,-19.8 -0.3,-65.2 -2.8,-60.9 7.1,-17.8 27.8,-8.2 15.6,10.9 -19.3,-40 -2.2,-24.3 2.3,-3.7 23,-8.1 38,80.6 45.9,-6.7 43.8,50.5 -10.1,-18.7 10.5,-35.3 18.6,-10.1 -24.3,8.3 -4.4,-1.3 -15.6,-20.5 -18,-17.4 -7.8,-48.4 11.7,-22.2 -38.2,19.5 0.3,25 -2.6,3.6 -23.9,7.3 -45,-27.4 -35.3,-44.6 8,56.3 -10.6,17.4 -32.9,6.4 -16.3,-12 -9.2,18.8 -34.1,11.3 -18.6,-9.7 -14.5,-14.7 1.2,-34.6 15.5,-13.7 -9.7,-21.1 11.7,-41.5 19.2,-13 93.1,-5 41.5,2.6 24.7,4.2 -8.9,-1.5 15,29.7 -20.2,-39.9 -48.8,-13.4 -16.8,-8.6 -5.1,-27.4 12.7,-13.9 16.6,-17.3 4.1,-0.5 20.5,12.4 26.6,26.6 22.5,-46 -36.2,-69.8 9.7,-16.1 27.8,-3.1 13,13.7 8.9,-19.7 3.2,-1.3 20,8.3 24.9,2.1 3.3,2.9 4.9,24.5 -43,76.1 12.9,14.7 -4.8,30.1 -16.8,10 -9.8,32.1 34.3,-0.4 18.8,-16.2 30.1,6.3 19.8,45.4 33.1,9 5,24.3 -6.1,-29.7 9.2,-20.3 37.1,-16 21.1,7.2 6.1,71.2 -15.2,36.7 -19.6,18.2 -4.9,0.8 -24.2,-11.5 -45.2,-11.2 37.7,9.4 -8.3,-13.4 13.6,21.9 34.9,34.8 -41.4,14.4 22.3,8.1 2.1,3.5 -3.5,23.5 -37.9,46.1 -34.4,21.1 z"
       id="coupes_002"
       stroke="#ff0000"
       stroke-width="1.27"
       sodipodi:nodetypes="cccccccccccccccccccccccccccccccccccccccccccccccccccccccccccccccccccccccccccccccccccccccccccccccccccccccccccccccccc" />
    <path
       d="M 785.8 235.9 L 787.1 315.6 M 787.1 315.6 L 755.7 259.4 M 755.7 259.4 L 785.8 235.9 M 820.1 235.5 L 825.3 296.1 M 869.0 225.6 L 825.3 296.1 M 888.8 271.0 L 825.3 296.1 M 885.2 349.7 L 825.3 296.1 M 888.8 271.0 L 885.2 349.7 M 839.4 384.1 L 825.3 296.1 M 885.2 349.7 L 839.4 384.1 M 885.2 349.7 L 883.7 397.6 M 885.2 349.7 L 928.2 367.6 M 928.2 367.6 L 883.7 397.6 M 926.9 304.3 L 930.4 360.9 M 735.5 219.5 L 785.8 235.9 M 979.1 353.4 L 930.4 360.9 M 926.9 304.3 L 994.3 316.7 M 735.5 219.5 L 795.6 203.8 M 745.3 177.4 L 795.6 203.8 M 804.3 149.0 L 795.6 203.8 M 745.3 177.4 L 804.3 149.0 M 767.8 131.4 L 804.3 149.0 M 814.2 43.4 L 804.3 149.0 M 767.8 131.4 L 814.2 43.4 M 782.1 56.1 L 814.2 43.4 M 767.8 131.4 L 782.1 56.1 M 731.6 61.6 L 782.1 56.1 M 814.2 43.4 L 847.3 72.9 M 928.2 367.6 L 921.7 416.8 M 864.7 461.7 L 883.7 397.6 M 921.7 416.8 L 864.7 461.7 M 904.7 498.0 L 864.7 461.7 M 870.3 519.1 L 864.7 461.7 M 806.7 495.1 L 864.7 461.7 M 870.3 519.1 L 806.7 495.1 M 814.9 524.5 L 806.7 495.1 M 870.3 519.1 L 814.9 524.5 M 806.7 495.1 L 775.0 417.9 M 775.0 417.9 L 864.7 461.7 M 806.7 495.1 L 733.2 413.4 M 790.7 521.1 L 733.2 413.4 M 790.7 521.1 L 682.7 428.5 M 790.7 521.1 L 751.5 536.4 M 751.5 536.4 L 682.7 428.5 M 751.5 536.4 L 685.5 489.4 M 920.8 274.6 L 988.2 245.5 M 751.5 536.4 L 685.8 554.6 M 751.5 536.4 L 722.5 601.6 M 722.5 601.6 L 685.8 554.6 M 751.5 536.4 L 761.0 589.6 M 761.0 589.6 L 722.5 601.6 M 686.7 206.1 L 745.3 177.4 M 686.7 206.1 L 718.7 150.8 M 686.7 206.1 L 677.5 156.2 M 787.1 315.6 L 715.9 324.1 M 715.9 324.1 L 755.7 259.4 M 724.9 227.0 L 755.7 259.4 M 680.6 279.5 L 724.9 227.0 M 680.6 279.5 L 683.4 224.4 M 680.6 279.5 L 590.3 229.4 M 569.1 305.0 L 590.3 229.4 M 680.6 279.5 L 569.1 305.0 M 680.6 279.5 L 628.8 347.6 M 628.8 347.6 L 569.1 305.0 M 680.6 279.5 L 688.6 335.8 M 566.9 368.0 L 569.1 305.0 M 787.1 315.6 L 760.9 351.5 M 713.9 373.4 L 775.0 417.9 M 713.9 373.4 L 737.0 337.3"
       id="plisM_002"
       stroke="brown"
       stroke-dasharray="4" />
    <path
       d="M 784.4 273.8 L 788.4 277.8 M 788.4 273.8 L 784.4 277.8 M 769.4 285.5 L 773.4 289.5 M 773.4 285.5 L 769.4 289.5 M 768.7 245.7 L 772.7 249.7 M 772.7 245.7 L 768.7 249.7 M 820.7 263.8 L 824.7 267.8 M 824.7 263.8 L 820.7 267.8 M 845.1 258.9 L 849.1 262.9 M 849.1 258.9 L 845.1 262.9 M 855.0 281.6 L 859.0 285.6 M 859.0 281.6 L 855.0 285.6 M 853.2 320.9 L 857.2 324.9 M 857.2 320.9 L 853.2 324.9 M 885.0 308.4 L 889.0 312.4 M 889.0 308.4 L 885.0 312.4 M 830.3 338.1 L 834.3 342.1 M 834.3 338.1 L 830.3 342.1 M 860.3 364.9 L 864.3 368.9 M 864.3 364.9 L 860.3 368.9 M 882.5 371.7 L 886.5 375.7 M 886.5 371.7 L 882.5 375.7 M 904.7 356.7 L 908.7 360.7 M 908.7 356.7 L 904.7 360.7 M 904.0 380.6 L 908.0 384.6 M 908.0 380.6 L 904.0 384.6 M 926.7 330.6 L 930.7 334.6 M 930.7 330.6 L 926.7 334.6 M 758.6 225.7 L 762.6 229.7 M 762.6 225.7 L 758.6 229.7 M 952.8 355.2 L 956.8 359.2 M 956.8 355.2 L 952.8 359.2 M 958.6 308.5 L 962.6 312.5 M 962.6 308.5 L 958.6 312.5 M 763.6 209.6 L 767.6 213.6 M 767.6 209.6 L 763.6 213.6 M 768.4 188.6 L 772.4 192.6 M 772.4 188.6 L 768.4 192.6 M 797.9 174.4 L 801.9 178.4 M 801.9 174.4 L 797.9 178.4 M 772.8 161.2 L 776.8 165.2 M 776.8 161.2 L 772.8 165.2 M 784.1 138.2 L 788.1 142.2 M 788.1 138.2 L 784.1 142.2 M 807.2 94.2 L 811.2 98.2 M 811.2 94.2 L 807.2 98.2 M 789.0 85.4 L 793.0 89.4 M 793.0 85.4 L 789.0 89.4 M 796.1 47.7 L 800.1 51.7 M 800.1 47.7 L 796.1 51.7 M 772.9 91.7 L 776.9 95.7 M 776.9 91.7 L 772.9 95.7 M 754.8 56.9 L 758.8 60.9 M 758.8 56.9 L 754.8 60.9 M 828.7 56.2 L 832.7 60.2 M 832.7 56.2 L 828.7 60.2 M 923.0 390.2 L 927.0 394.2 M 927.0 390.2 L 923.0 394.2 M 872.2 427.6 L 876.2 431.6 M 876.2 427.6 L 872.2 431.6 M 891.2 437.2 L 895.2 441.2 M 895.2 437.2 L 891.2 441.2 M 882.7 477.8 L 886.7 481.8 M 886.7 477.8 L 882.7 481.8 M 865.5 488.4 L 869.5 492.4 M 869.5 488.4 L 865.5 492.4 M 833.7 476.4 L 837.7 480.4 M 837.7 476.4 L 833.7 480.4 M 836.5 505.1 L 840.5 509.1 M 840.5 505.1 L 836.5 509.1 M 808.8 507.8 L 812.8 511.8 M 812.8 507.8 L 808.8 511.8 M 840.6 519.8 L 844.6 523.8 M 844.6 519.8 L 840.6 523.8 M 788.9 454.5 L 792.9 458.5 M 792.9 454.5 L 788.9 458.5 M 817.9 437.8 L 821.9 441.8 M 821.9 437.8 L 817.9 441.8 M 767.9 452.3 L 771.9 456.3 M 771.9 452.3 L 767.9 456.3 M 759.9 465.2 L 763.9 469.2 M 763.9 465.2 L 759.9 469.2 M 734.7 472.8 L 738.7 476.8 M 738.7 472.8 L 734.7 476.8 M 769.1 526.7 L 773.1 530.7 M 773.1 526.7 L 769.1 530.7 M 715.1 480.4 L 719.1 484.4 M 719.1 480.4 L 715.1 484.4 M 716.5 510.9 L 720.5 514.9 M 720.5 510.9 L 716.5 514.9 M 952.5 258.1 L 956.5 262.1 M 956.5 258.1 L 952.5 262.1 M 716.6 543.5 L 720.6 547.5 M 720.6 543.5 L 716.6 547.5 M 735.0 567.0 L 739.0 571.0 M 739.0 567.0 L 735.0 571.0 M 702.1 576.1 L 706.1 580.1 M 706.1 576.1 L 702.1 580.1 M 754.3 561.0 L 758.3 565.0 M 758.3 561.0 L 754.3 565.0 M 739.8 593.6 L 743.8 597.6 M 743.8 593.6 L 739.8 597.6 M 714.0 189.7 L 718.0 193.7 M 718.0 189.7 L 714.0 193.7 M 700.7 176.4 L 704.7 180.4 M 704.7 176.4 L 700.7 180.4 M 680.1 179.1 L 684.1 183.1 M 684.1 179.1 L 680.1 183.1 M 749.5 317.9 L 753.5 321.9 M 753.5 317.9 L 749.5 321.9 M 733.8 289.7 L 737.8 293.7 M 737.8 289.7 L 733.8 293.7 M 738.3 241.2 L 742.3 245.2 M 742.3 241.2 L 738.3 245.2 M 700.7 251.2 L 704.7 255.2 M 704.7 251.2 L 700.7 255.2 M 680.0 250.0 L 684.0 254.0 M 684.0 250.0 L 680.0 254.0 M 633.4 252.4 L 637.4 256.4 M 637.4 252.4 L 633.4 256.4 M 577.7 265.2 L 581.7 269.2 M 581.7 265.2 L 577.7 269.2 M 622.8 290.2 L 626.8 294.2 M 626.8 290.2 L 622.8 294.2 M 652.7 311.5 L 656.7 315.5 M 656.7 311.5 L 652.7 315.5 M 596.9 324.3 L 600.9 328.3 M 600.9 324.3 L 596.9 328.3 M 682.6 305.7 L 686.6 309.7 M 686.6 305.7 L 682.6 309.7 M 566.0 334.5 L 570.0 338.5 M 570.0 334.5 L 566.0 338.5 M 772.0 331.6 L 776.0 335.6 M 776.0 331.6 L 772.0 335.6 M 742.5 393.7 L 746.5 397.7 M 746.5 393.7 L 742.5 397.7 M 723.5 353.3 L 727.5 357.3 M 727.5 353.3 L 723.5 357.3"
       display="none"
       id="marqueM_002"
       stroke="brown" />
    <path
       d="M 785.8 235.9 L 825.3 296.1 M 838.9 219.3 L 825.3 296.1 M 883.7 397.6 L 839.4 384.1 M 926.9 304.3 L 885.2 349.7 M 888.8 271.0 L 926.9 304.3 M 926.9 304.3 L 979.1 353.4 M 735.5 219.5 L 745.3 177.4 M 921.7 416.8 L 883.7 397.6 M 942.6 451.9 L 864.7 461.7 M 921.7 416.8 L 942.6 451.9 M 733.2 413.4 L 775.0 417.9 M 682.7 428.5 L 733.2 413.4 M 920.8 274.6 L 994.3 316.7 M 677.5 156.2 L 718.7 150.8 M 680.6 279.5 L 755.7 259.4 M 688.6 335.8 L 628.8 347.6 M 628.8 347.6 L 566.9 368.0"
       id="plisV_002"
       stroke="green"
       stroke-dasharray="4 1 1 1"
       stroke-width="1.27" />
    <path
       d="M 803.5 264.0 L 807.5 268.0 M 807.5 264.0 L 803.5 268.0 M 830.1 255.7 L 834.1 259.7 M 834.1 255.7 L 830.1 259.7 M 859.6 388.9 L 863.6 392.9 M 863.6 388.9 L 859.6 392.9 M 904.1 325.0 L 908.1 329.0 M 908.1 325.0 L 904.1 329.0 M 905.9 285.6 L 909.9 289.6 M 909.9 285.6 L 905.9 289.6 M 951.0 326.9 L 955.0 330.9 M 955.0 326.9 L 951.0 330.9 M 738.4 196.4 L 742.4 200.4 M 742.4 196.4 L 738.4 200.4 M 900.7 405.2 L 904.7 409.2 M 904.7 405.2 L 900.7 409.2 M 901.6 454.8 L 905.6 458.8 M 905.6 454.8 L 901.6 458.8 M 930.1 432.3 L 934.1 436.3 M 934.1 432.3 L 930.1 436.3 M 752.1 413.7 L 756.1 417.7 M 756.1 413.7 L 752.1 417.7 M 705.9 419.0 L 709.9 423.0 M 709.9 419.0 L 705.9 423.0 M 955.5 293.7 L 959.5 297.7 M 959.5 293.7 L 955.5 297.7 M 696.1 151.5 L 700.1 155.5 M 700.1 151.5 L 696.1 155.5 M 716.1 267.4 L 720.1 271.4 M 720.1 267.4 L 716.1 271.4 M 656.7 339.7 L 660.7 343.7 M 660.7 339.7 L 656.7 343.7 M 595.8 355.8 L 599.8 359.8 M 599.8 355.8 L 595.8 359.8"
       id="marqueV_002"
       stroke="green" />
    <path
       d="M 750.1 321.8 L 750.1 321.0 L 750.8 319.5 L 751.6 318.8 L 753.1 318.0 L 756.1 318.0 L 757.6 318.8 L 758.3 319.5 L 759.1 321.0 L 759.1 322.5 L 758.3 324.0 L 756.8 326.3 L 749.3 333.8 L 759.8 333.8"
       id="titre_2"
       stroke="indigo" />
  </g>
</svg>
