<?xml version="1.0" encoding="UTF-8" standalone="no"?>
<svg
   height="841.88977pt"
   viewBox="0 0 532.99998 754.00001"
   width="595.27557pt"
   version="1.1"
   id="svg1"
   sodipodi:docname="ELA206_H30_A4x9.svg"
   inkscape:version="1.3 (0e150ed6c4, 2023-07-21)"
   xmlns:inkscape="http://www.inkscape.org/namespaces/inkscape"
   xmlns:sodipodi="http://sodipodi.sourceforge.net/DTD/sodipodi-0.dtd"
   xmlns="http://www.w3.org/2000/svg"
   xmlns:svg="http://www.w3.org/2000/svg">
  <defs
     id="defs1" />
  <sodipodi:namedview
     id="namedview1"
     pagecolor="#ffffff"
     bordercolor="#000000"
     borderopacity="0.25"
     inkscape:showpageshadow="2"
     inkscape:pageopacity="0.0"
     inkscape:pagecheckerboard="0"
     inkscape:deskcolor="#d1d1d1"
     inkscape:document-units="mm"
     showgrid="false"
     inkscape:zoom="0.18303276"
     inkscape:cx="3526.6911"
     inkscape:cy="570.93604"
     inkscape:window-width="1920"
     inkscape:window-height="1057"
     inkscape:window-x="-8"
     inkscape:window-y="-8"
     inkscape:window-maximized="1"
     inkscape:current-layer="svg1" />
  <style
     type="text/css"
     id="style1"><![CDATA[
			path {
				fill: none;
			}
		]]></style>
  <g
     id="page_001">
    <path
       d="m 276.7,24.3 0.3,0.6 0.9,0.4 h 0.6 l 0.9,-0.3 0.6,-0.9 0.3,-1.4 0.1,-1.5 -0.3,-1.3 -0.5,-0.6 -0.9,-0.3 h -0.3 l -0.9,0.3 -0.7,0.5 -0.3,0.9 V 21 l 0.3,0.9 0.5,0.7 0.9,0.3 h 0.3 l 0.9,-0.3 0.7,-0.6 0.3,-0.8 m -7,3.9 0.9,-0.3 0.6,-0.8 0.4,-1.5 v -0.9 l -0.2,-1.5 -0.6,-0.9 -0.9,-0.4 H 273 l -0.9,0.3 -0.6,0.9 -0.4,1.4 v 0.9 l 0.2,1.5 0.6,1 0.9,0.3 h 0.5 m 85.4,36.8 0.8,0.4 0.6,-0.2 0.5,-0.4 0.2,-0.6 -0.2,-0.7 -0.7,-1 -0.4,-0.9 v -0.8 l 0.2,-0.7 0.7,-0.6 0.6,-0.2 h 0.4 l 0.9,0.4 0.8,0.9 0.4,0.8 v 0.4 l -0.2,0.7 -0.6,0.6 -0.6,0.2 h -0.9 l -0.8,-0.4 -1.1,-0.6 -0.6,-0.3 -0.7,0.3 -0.4,0.4 -0.2,0.6 0.4,0.9 1,0.9 m -3.9,-3.9 0.8,0.5 0.7,-0.3 0.4,-0.4 0.2,-0.6 -0.2,-0.7 -0.7,-1 -0.4,-0.9 v -0.8 l 0.2,-0.6 0.7,-0.7 0.6,-0.2 h 0.4 l 0.9,0.4 0.8,0.9 0.5,0.8 v 0.4 l -0.3,0.7 -0.6,0.6 -0.6,0.2 h -0.9 l -0.8,-0.4 -1.1,-0.6 -0.6,-0.2 -0.7,0.2 -0.4,0.4 -0.2,0.6 0.4,0.9 1,0.9 m -4.8,69.6 2.2,-2.5 0.6,3 0.6,-0.7 0.7,-0.2 0.4,-0.1 0.9,0.4 0.4,0.4 0.5,0.8 v 0.9 l -0.4,0.9 -0.6,0.6 -0.8,0.5 h -0.4 l -0.7,-0.2 m 0.2,-7.8 2.2,-2.4 0.6,2.9 0.6,-0.7 0.6,-0.2 h 0.4 l 0.9,0.3 0.5,0.4 0.4,0.9 0.1,0.8 -0.4,0.9 -0.6,0.7 -0.8,0.4 -0.4,0.1 -0.7,-0.2 m -115.9,32.7 -1.6,2.9 -1.2,-2.7 -0.5,0.8 -0.5,0.4 -0.4,0.1 -1,-0.2 -0.5,-0.3 -0.6,-0.7 -0.3,-0.8 0.2,-0.9 0.4,-0.8 0.7,-0.7 0.4,-0.1 h 0.7 m 0.7,6.4 v 0.7 l 0.3,1.2 -5.5,-3 m 22,157 -0.1,-0.3 0.3,-0.6 0.3,-0.3 0.6,-0.3 1.2,-0.1 0.6,0.3 0.3,0.2 0.3,0.6 0.1,0.6 -0.3,0.6 -0.5,1 -2.9,3.1 4.2,-0.2 m 3.9,-6.6 -2.7,4.4 4.5,-0.3 m -1.8,-4.1 0.4,6.3 m -86.8,-48.2 0.2,-0.2 0.7,-0.2 h 0.4 l 0.6,0.2 0.9,0.8 0.2,0.7 v 0.4 l -0.2,0.6 -0.4,0.5 -0.7,0.2 -1,0.2 h -4.3 l 3,3 m 7.8,-1.2 -2.1,-2.1 -2.1,1.7 h 0.4 l 0.9,0.4 0.6,0.7 0.4,0.8 v 0.8 l -0.4,0.9 -0.4,0.4 -0.8,0.5 H 179 l -0.8,-0.4 -0.7,-0.7 -0.4,-0.8 v -0.4 l 0.2,-0.7 m 7.6,-72.4 0.2,0.3 0.1,0.6 -0.1,0.4 -0.3,0.6 -1,0.7 -0.6,0.1 -0.5,-0.1 -0.6,-0.3 -0.3,-0.5 -0.1,-0.6 v -1.1 l 0.7,-4.2 -3.4,2.4 m -0.8,7.1 0.6,0.4 0.9,-0.3 0.5,-0.3 0.5,-0.8 v -1.1 l -0.6,-1.4 -0.9,-1.2 -0.9,-0.8 -0.8,-0.2 -0.9,0.3 -0.3,0.1 -0.5,0.8 -0.2,0.8 0.3,1 0.1,0.2 0.8,0.6 0.8,0.1 0.9,-0.2 0.3,-0.2 0.6,-0.8 0.1,-0.8 -0.3,-0.9 m 275.7,116.9 -0.2,0.2 -0.6,0.3 -0.4,0.1 -0.7,-0.1 -1,-0.7 -0.3,-0.5 -0.1,-0.5 0.1,-0.6 0.4,-0.5 0.5,-0.4 1.1,-0.4 4.1,-0.7 -3.5,-2.4 m -5.7,3.7 0.9,0.3 0.6,-0.4 0.3,-0.5 0.1,-0.6 -0.3,-0.6 -0.8,-0.9 -0.6,-0.8 -0.1,-0.8 v -0.7 l 0.5,-0.7 0.6,-0.4 h 0.5 l 0.9,0.2 1,0.7 0.5,0.8 0.1,0.4 -0.1,0.6 -0.5,0.8 -0.6,0.3 -0.8,0.2 -0.9,-0.3 -1.2,-0.4 -0.6,-0.1 -0.6,0.3 -0.4,0.5 -0.1,0.7 0.6,0.7 1.1,0.8 m 42.9,69.4 -0.2,-0.1 -0.4,-0.5 -0.2,-0.4 0.1,-0.7 0.5,-1.1 0.6,-0.4 0.4,-0.1 h 0.6 l 0.6,0.3 0.4,0.6 0.5,0.9 1.2,4.1 2,-3.7 m -3.1,-7.6 4.1,5.6 m -6.1,-1.9 2,-3.7 M 302.7,359.1 h 0.3 l 0.5,0.4 0.3,0.3 0.2,0.7 -0.1,1.2 -0.4,0.5 -0.3,0.3 -0.6,0.2 H 302 l -0.6,-0.4 -0.8,-0.7 -2.7,-3.3 -0.4,4.2 m 5.9,4.9 -3.9,-3.4 -0.5,4.5 m 4.4,-1.1 -6.3,-0.6 m 4.8,94.1 h 0.3 l 0.6,0.2 0.3,0.3 0.3,0.6 0.1,1.2 -0.2,0.6 -0.3,0.3 -0.6,0.3 -0.6,0.1 -0.6,-0.3 -0.9,-0.5 -3.2,-2.8 0.2,4.2 m 6.6,4.3 -0.2,-3 -2.7,-0.1 0.3,0.3 0.4,0.8 0.1,0.9 -0.3,0.9 -0.5,0.7 -0.9,0.3 -0.6,0.1 -0.9,-0.3 -0.7,-0.5 -0.3,-0.9 -0.1,-0.9 0.3,-0.9 0.2,-0.3 0.6,-0.4 m 72.9,57.3 -0.2,0.2 -0.7,0.1 -0.4,-0.1 -0.6,-0.3 -0.7,-1 -0.1,-0.6 0.1,-0.5 0.3,-0.6 0.5,-0.3 0.7,-0.1 h 1.1 l 4.2,0.7 -2.4,-3.4 m -6.4,-1.8 0.9,-0.2 0.9,0.1 0.7,0.6 0.2,0.2 0.3,0.9 -0.2,0.9 -0.5,0.7 -0.3,0.2 -0.9,0.3 -0.8,-0.2 -0.8,-0.5 -0.2,-0.3 -0.2,-0.9 0.1,-0.8 0.8,-1 1.3,-0.8 1.4,-0.6 h 1.1 l 0.7,0.5 0.4,0.5 0.2,0.9 -0.3,0.6 m -6,-311.8 -2.9,-1.6 2.7,-1.3 -0.8,-0.4 -0.3,-0.6 -0.2,-0.4 0.2,-0.9 0.3,-0.5 0.7,-0.7 0.8,-0.2 1,0.2 0.7,0.4 0.7,0.7 0.1,0.4 v 0.7 m -10,0.4 4.7,-2.2 -3.9,-2.2 m -0.8,4.4 3.1,-5.5 m 30.9,55 -0.3,-0.1 -0.5,-0.4 -0.2,-0.4 -0.1,-0.7 0.3,-1.1 0.5,-0.5 0.4,-0.2 0.6,-0.2 0.6,0.2 0.5,0.5 0.7,0.8 2.1,3.7 1.1,-4 m -2.6,-6.1 0.7,0.6 0.5,0.7 v 1 l -0.1,0.3 -0.5,0.7 -0.8,0.5 h -0.9 l -0.3,-0.1 -0.8,-0.5 -0.4,-0.8 v -0.9 -0.3 l 0.6,-0.8 0.7,-0.4 h 1.3 l 1.4,0.5 1.4,0.7 0.7,0.8 v 0.9 l -0.2,0.6 -0.5,0.8 -0.7,0.1 m 38.1,406.2 2.3,-2.4 0.5,3 0.6,-0.7 0.6,-0.2 h 0.5 l 0.8,0.4 0.5,0.4 0.4,0.8 v 0.9 l -0.4,0.8 -0.6,0.7 -0.8,0.4 h -0.5 l -0.6,-0.2 m 3.1,-9.3 -0.6,-0.2 -0.8,0.4 -0.5,0.4 -0.4,0.9 0.3,1.1 0.9,1.2 1,1 1.1,0.6 h 0.9 l 0.8,-0.4 0.2,-0.2 0.4,-0.9 v -0.8 l -0.5,-0.9 -0.2,-0.2 -0.8,-0.4 h -0.9 l -0.8,0.5 -0.2,0.2 -0.4,0.9 v 0.8 l 0.4,0.8 m -7.8,-64.5 -2.5,-2.1 2.9,-0.7 -0.7,-0.6 -0.3,-0.6 v -0.4 l 0.4,-0.9 0.4,-0.4 0.8,-0.5 0.8,-0.1 0.9,0.4 0.7,0.6 0.5,0.8 v 0.4 l -0.2,0.6 m -10.1,-1.9 2.3,2 2,-1.9 H 432 l -0.9,-0.3 -0.7,-0.6 -0.5,-0.8 -0.1,-0.9 0.4,-0.8 0.4,-0.5 0.8,-0.5 h 0.9 l 0.8,0.3 0.7,0.6 0.5,0.8 v 0.4 l -0.1,0.7 m -84.4,126 3.1,-1.2 -0.8,2.9 0.8,-0.3 0.7,0.1 0.4,0.1 0.6,0.8 0.2,0.5 v 1 l -0.3,0.8 -0.8,0.6 -0.8,0.3 H 352 l -0.4,-0.2 -0.5,-0.4 m 7,-8.1 -0.6,7 m -3.4,-5.5 4,-1.5 m -91.8,-20.4 2.4,2.3 -2.9,0.5 0.6,0.6 0.2,0.7 v 0.4 l -0.4,0.8 -0.4,0.5 -0.8,0.4 h -0.9 l -0.8,-0.4 -0.7,-0.6 -0.4,-0.9 v -0.4 l 0.2,-0.6 m 6.7,1.5 0.2,-0.3 0.6,-0.2 h 0.4 l 0.7,0.2 0.8,0.9 0.3,0.6 v 0.4 l -0.2,0.7 -0.4,0.4 -0.7,0.2 -1,0.2 -4.3,0.1 3,2.9 m -4.1,-204.5 -0.2,0.2 -0.7,0.1 -0.4,-0.1 -0.6,-0.3 -0.7,-1 -0.1,-0.7 0.1,-0.4 0.4,-0.6 0.4,-0.3 0.7,-0.1 h 1.1 l 4.2,0.8 -2.4,-3.5 m -7.1,-0.9 -0.4,0.6 0.3,0.9 0.3,0.5 0.8,0.6 h 1.1 l 1.4,-0.6 1.2,-0.9 0.8,-0.9 0.2,-0.8 -0.3,-0.9 -0.1,-0.3 -0.8,-0.6 -0.8,-0.1 -0.9,0.2 -0.3,0.2 -0.6,0.8 -0.1,0.8 0.2,0.9 0.2,0.3 0.8,0.5 0.8,0.2 0.9,-0.3 m -73.8,-16.2 -1.9,2.7 -0.9,-2.9 -0.6,0.8 -0.5,0.3 -0.5,0.1 -0.9,-0.3 -0.5,-0.3 -0.5,-0.8 -0.2,-0.8 0.3,-1 0.5,-0.7 0.8,-0.6 h 0.4 l 0.6,0.1 m 0.2,8.7 0.2,-0.9 -0.4,-1 -1,-1.1 -0.8,-0.5 -1.4,-0.6 h -1.1 l -0.7,0.6 -0.4,0.4 -0.2,1 0.4,1 1,1.1 0.8,0.5 1.4,0.6 h 1.1 l 0.7,-0.6 0.3,-0.3 m 36.8,-45.7 -1.3,-3 2.9,0.7 -0.4,-0.8 0.1,-0.7 0.1,-0.4 0.7,-0.6 0.6,-0.3 h 0.9 l 0.8,0.3 0.6,0.7 0.4,0.8 0.1,1 -0.2,0.4 -0.4,0.5 m -5.5,-3.4 -0.5,-0.4 -1.2,-0.5 5.8,-2.5 m -62.9,231.5 -0.2,1 -0.6,0.6 -0.9,0.4 h -0.3 l -0.9,-0.2 -0.6,-0.6 -0.4,-0.9 v -0.3 l 0.2,-0.9 0.6,-0.6 0.8,-0.4 h 0.3 l 1,0.2 0.6,0.6 0.4,1.1 0.1,1.5 -0.2,1.6 -0.5,0.9 -0.9,0.4 h -0.6 l -0.9,-0.2 -0.3,-0.6 m 4.3,-4.3 0.6,-0.4 0.8,-0.9 0.5,6.2 m 3.8,-595.8 0.6,-0.7 -0.1,-0.7 -0.3,-0.5 -0.6,-0.4 -0.7,0.1 -1.1,0.4 -1,0.2 -0.8,-0.1 -0.6,-0.4 -0.5,-0.7 v -0.7 l 0.1,-0.4 0.6,-0.8 1,-0.6 0.9,-0.2 0.4,0.1 0.6,0.3 0.5,0.8 v 0.6 l -0.1,0.9 -0.6,0.7 -0.9,0.9 -0.3,0.6 v 0.6 l 0.4,0.5 0.5,0.4 1,-0.3 1.1,-0.7 m -7.8,2.5 -0.2,-0.9 0.2,-0.8 0.6,-0.8 0.2,-0.1 0.9,-0.3 0.9,0.2 0.7,0.6 0.2,0.3 0.2,0.9 -0.2,0.8 -0.6,0.7 -0.2,0.2 -1,0.2 -0.8,-0.1 -0.9,-0.9 -0.8,-1.3 -0.6,-1.4 0.1,-1.1 0.6,-0.7 0.5,-0.3 0.9,-0.3 0.6,0.4 m 5.2,53.9 3,1.2 -2.5,1.6 0.8,0.3 0.5,0.5 0.1,0.4 v 1 l -0.2,0.5 -0.6,0.7 -0.8,0.4 -1,-0.1 -0.8,-0.3 -0.7,-0.6 -0.2,-0.4 -0.1,-0.6 m 8.6,-2.2 -1,-0.1 -0.9,0.7 -0.8,1.3 -0.3,0.8 -0.3,1.5 0.2,1.1 0.8,0.6 0.5,0.2 h 1 l 0.9,-0.6 0.8,-1.3 0.3,-0.8 0.3,-1.5 -0.3,-1.1 -0.7,-0.6 -0.4,-0.2 m -110.7,502.8 -0.9,0.5 h -0.8 l -0.9,-0.3 -0.2,-0.2 -0.5,-0.8 v -0.9 l 0.3,-0.9 0.2,-0.2 0.8,-0.5 h 0.9 l 0.9,0.3 0.2,0.2 0.5,0.9 v 0.8 l -0.5,1.1 -1,1.1 -1.2,1 -1.1,0.3 -0.9,-0.4 -0.4,-0.4 -0.5,-0.8 0.2,-0.7 m 7.5,-0.5 2.5,2.1 -2.9,0.7 0.7,0.5 0.2,0.7 0.1,0.4 -0.4,0.9 -0.4,0.4 -0.8,0.5 -0.9,0.1 -0.8,-0.4 -0.7,-0.6 -0.5,-0.8 v -0.4 l 0.1,-0.7 m 17.1,-59.3 -0.1,-1 0.3,-0.8 0.7,-0.6 0.3,-0.1 0.9,-0.1 0.8,0.3 0.7,0.7 0.1,0.3 0.1,0.9 -0.3,0.8 -0.7,0.7 -0.3,0.1 -1,0.1 -0.8,-0.4 -0.7,-0.9 -0.6,-1.4 -0.3,-1.5 0.1,-1.1 0.8,-0.6 0.5,-0.2 0.9,-0.1 0.6,0.4 m -3.9,7.6 0.7,-0.7 0.2,-1 -0.3,-1.5 -0.4,-0.8 -0.8,-1.3 -1,-0.6 -0.9,0.1 -0.5,0.2 -0.8,0.7 -0.1,1 0.3,1.5 0.3,0.9 0.9,1.2 0.9,0.6 1,-0.1 0.4,-0.2 m 412.3,-97.1 -0.3,0.1 -0.7,-0.1 -0.4,-0.2 -0.5,-0.4 -0.4,-1.2 0.1,-0.6 0.2,-0.4 0.4,-0.5 0.6,-0.2 0.7,0.1 1,0.2 3.9,1.8 -1.5,-3.9 m -7.7,-2.7 7,0.6 m -5.5,3.3 -1.5,-3.9 m -58.4,27.4 v -0.3 l 0.3,-0.6 0.3,-0.3 0.6,-0.3 h 1.2 l 0.6,0.3 0.3,0.3 0.3,0.6 v 0.6 l -0.3,0.6 -0.6,0.9 -3,3 h 4.2 m 2.7,-6.3 -0.9,0.3 -0.3,0.6 v 0.6 l 0.2,0.6 0.6,0.3 1.2,0.3 0.9,0.4 0.6,0.6 0.3,0.6 v 0.9 l -0.3,0.6 -0.3,0.3 -0.9,0.3 -1.2,-0.1 -0.9,-0.3 -0.3,-0.3 -0.3,-0.6 v -0.9 l 0.3,-0.6 0.6,-0.6 0.9,-0.3 1.2,-0.2 0.6,-0.3 0.4,-0.6 v -0.6 l -0.3,-0.6 -0.9,-0.3 -1.4,-0.1"
       id="nums_001"
       stroke="#000000"
       stroke-width="1" />
    <path
       d="m 322.2,171.5 86.5,47.8 -16.3,57.1 124.4,84.7 -33.9,63.8 25,67.9 -150.5,-1.6 33.8,48.8 90.2,77 -72.5,76.3 -103.7,39.2 -82.4,-79.9 -115.4,8.8 -92,-79.8 123.1,-54 84.1,-121.5 12.2,28.1 64.9,95.3 -8.5,-126.6 8.4,-79 -79.3,4.6 -90.6,-88.9 94.7,-65.7 L 239.3,147 101.5,93.5 224,15.2 l 103,3.5 69.7,69.5 z"
       id="coupes_001"
       stroke="#ff0000"
       stroke-width="1.27"
       sodipodi:nodetypes="ccccccccccccccccccccccccccccc" />
    <path
       d="m 281.1,80.9 4,4 m 0,-4 -4,4 m -51.5,-5.8 4,4 m 0,-4 -4,4 m 86.4,32.5 4,4 m 0,-4 -4,4 m -37.3,37.7 4,4 m 0,-4 -4,4 m 30.2,84.4 4,4 m 0,-4 -4,4 m -48.9,-2.8 4,4 m 0,-4 -4,4 m -39.6,-1.7 4,4 m 0,-4 -4,4 m 185.8,87.3 4,4 m 0,-4 -4,4 m -16.9,27.9 4,4 m 0,-4 -4,4 m -4.2,35.5 4,4 m 0,-4 -4,4 m 33.1,40.1 4,4 m 0,-4 -4,4 m -91.7,48.3 4,4 m 0,-4 -4,4 m 71.6,102.3 4,4 m 0,-4 -4,4 m -45.8,-9.2 4,4 m 0,-4 -4,4 m -51.8,15.6 4,4 m 0,-4 -4,4 m -41.3,-44 4,4 m 0,-4 -4,4 m -80.6,-4.9 4,4 m 0,-4 -4,4 m 38.5,-65.5 4,4 m 0,-4 -4,4 m -32.4,-51.7 4,4 m 0,-4 -4,4 m -63.8,109.6 4,4 m 0,-4 -4,4"
       display="none"
       id="marqueM_001"
       stroke="#a52a2a" />
    <path
       d="m 322.2,171.5 -97.8,2.4 m 97.8,-2.4 70.2,104.9 m 0,0 -92.8,47.5 m 57.8,167.3 -66.2,-88.3 m 100,137.1 -91.5,-10.5"
       id="plisV_001"
       stroke="#008000"
       stroke-dasharray="4, 1, 1, 1"
       stroke-width="1.27" />
    <path
       d="m 271.3,170.7 4,4 m 0,-4 -4,4 m 84,47.2 4,4 m 0,-4 -4,4 m -11.3,72.2 4,4 m 0,-4 -4,4 m -21.7,142.9 4,4 m 0,-4 -4,4 m 21.2,83.7 4,4 m 0,-4 -4,4"
       id="marqueV_001"
       stroke="#008000" />
    <path
       d="m 355.6,375 1.5,-0.7 2.3,-2.3 v 15.8"
       id="titre_1"
       stroke="#4b0082" />
  </g>
  <g
     id="page_002">
    <path
       d="m 627.6,457.2 -6.1,-3.3 m 6.4,-0.8 -0.3,4.1 m -1.2,4.7 0.6,-0.2 0.4,-0.9 v -0.6 l -0.2,-0.9 -0.9,-0.7 -1.5,-0.4 -1.5,-0.1 -1.2,0.3 -0.6,0.5 -0.4,0.9 v 0.3 l 0.3,0.9 0.5,0.6 0.9,0.4 h 0.3 l 0.9,-0.2 0.6,-0.6 0.4,-0.9 V 460 l -0.2,-0.9 -0.6,-0.6 -0.9,-0.4 m 123.9,-50.5 3.9,5.7 m -6,-2.1 2.1,-3.6 m 2.2,-3.8 2,4.8 2.3,-3.9 m -4.3,-0.9 5.4,3.2 m 42.4,-80.9 -1.6,2.5 2.1,1.7 -0.1,-0.4 0.3,-0.9 0.5,-0.8 0.7,-0.6 0.8,-0.2 0.9,0.3 0.5,0.3 0.6,0.7 0.2,0.8 -0.2,1 -0.5,0.7 -0.7,0.6 -0.4,0.1 -0.7,-0.1 m 1.3,-9.8 h -0.7 l -0.7,0.6 -0.4,0.5 -0.2,0.9 0.4,1 1.1,1 1.3,0.9 1.2,0.3 0.8,-0.1 0.7,-0.6 0.2,-0.3 0.2,-0.9 -0.1,-0.8 -0.6,-0.8 -0.3,-0.1 -0.9,-0.3 -0.8,0.2 -0.8,0.6 -0.1,0.3 -0.3,0.9 0.2,0.8 0.6,0.8 m -174.5,277.8 -0.9,0.3 -0.3,0.6 v 0.6 l 0.2,0.6 0.6,0.3 1.2,0.4 0.9,0.3 0.6,0.6 0.3,0.6 -0.1,0.9 -0.3,0.6 -0.3,0.3 -0.9,0.3 -1.2,-0.1 -0.9,-0.3 -0.3,-0.3 -0.3,-0.6 0.1,-0.9 0.3,-0.6 0.6,-0.6 0.9,-0.2 1.2,-0.3 0.6,-0.3 0.4,-0.6 v -0.6 l -0.3,-0.6 -0.9,-0.3 -1.3,-0.1 m 3.8,1.6 0.6,-0.3 1,-0.8 -0.3,6.3 m -34.8,-41.1 0.3,-0.9 -0.4,-0.6 -0.5,-0.3 -0.7,-0.1 -0.5,0.3 -0.9,0.9 -0.8,0.6 -0.8,0.2 -0.7,-0.1 -0.7,-0.5 -0.4,-0.6 -0.1,-0.4 0.3,-0.9 0.6,-1 0.8,-0.6 0.4,-0.1 0.6,0.1 0.8,0.5 0.3,0.5 0.2,0.9 -0.2,0.9 -0.4,1.2 -0.1,0.6 0.4,0.6 0.5,0.3 0.6,0.1 0.8,-0.6 0.7,-1.1 m -3.1,4.8 0.2,-0.9 -0.4,-1 -1.1,-1 -0.8,-0.5 -1.4,-0.6 h -1.1 l -0.7,0.6 -0.3,0.6 -0.3,0.9 0.5,1 1.1,1 0.7,0.5 1.4,0.6 1.1,-0.1 0.8,-0.6 0.2,-0.3 m 142.2,-42.7 6.8,1.8 m -6,2.3 -0.8,-4.1 m -0.4,-2.6 0.4,0.8 0.7,0.2 0.5,-0.1 0.6,-0.4 0.2,-0.7 v -1.2 l 0.2,-1 0.5,-0.7 0.5,-0.4 0.9,-0.1 0.6,0.2 0.4,0.2 0.4,0.8 0.2,1.2 -0.1,0.9 -0.2,0.4 -0.6,0.4 -0.8,0.2 -0.7,-0.2 -0.7,-0.5 -0.4,-0.8 -0.6,-1.2 -0.4,-0.5 -0.6,-0.2 -0.6,0.1 -0.5,0.4 -0.2,1 0.3,1.3 M 724,604 l -0.8,0.4 -0.2,0.6 0.1,0.6 0.3,0.6 0.7,0.2 1.2,0.1 0.9,0.2 0.7,0.5 0.4,0.5 0.1,0.9 -0.2,0.7 -0.2,0.3 -0.9,0.4 -1.2,0.2 -0.9,-0.2 -0.3,-0.2 -0.4,-0.6 -0.1,-0.9 0.2,-0.6 0.5,-0.7 0.8,-0.4 1.2,-0.5 0.5,-0.4 0.2,-0.6 -0.1,-0.6 -0.3,-0.5 -1,-0.2 -1.3,0.2 m 4.7,0.8 -0.1,-0.3 0.2,-0.6 0.3,-0.3 0.5,-0.4 1.2,-0.2 0.7,0.2 0.3,0.3 0.4,0.5 0.1,0.6 -0.2,0.6 -0.5,1 -2.5,3.4 4.1,-0.6 m 70.6,-337.9 -2.1,-2.5 3,-0.2 -0.6,-0.7 -0.2,-0.6 0.1,-0.5 0.5,-0.8 0.4,-0.4 0.9,-0.3 0.9,0.1 0.8,0.5 0.5,0.6 0.4,0.9 v 0.4 l -0.3,0.7 m -8.3,-5.2 0.9,-0.3 h 0.9 l 0.8,0.5 0.2,0.3 0.3,0.8 -0.1,0.9 -0.5,0.8 -0.2,0.2 -0.9,0.3 h -0.8 l -0.8,-0.5 -0.2,-0.3 -0.4,-0.8 0.1,-0.9 0.7,-1 1.2,-1 1.3,-0.7 1.1,-0.1 0.8,0.5 0.4,0.4 0.4,0.9 -0.3,0.6 m -168,78.7 -3.9,-3.4 -0.4,4.5 m 4.3,-1.1 -6.3,-0.6 m 5.6,7.2 -6,-3.6 m 6.4,-0.5 -0.4,4.1 m 84.2,-226.9 -2.6,-2 2.9,-0.8 -0.7,-0.6 -0.3,-0.6 v -0.4 l 0.3,-0.9 0.3,-0.5 0.8,-0.5 0.9,-0.1 0.9,0.3 0.7,0.6 0.5,0.8 0.1,0.4 -0.2,0.7 m -8.5,-0.3 0.9,0.4 0.6,-0.3 0.4,-0.5 0.1,-0.7 -0.3,-0.6 -0.8,-0.9 -0.5,-0.8 -0.1,-0.9 0.2,-0.6 0.5,-0.7 0.6,-0.3 0.4,-0.1 0.9,0.4 1,0.7 0.5,0.8 0.1,0.4 -0.2,0.7 -0.5,0.7 -0.6,0.3 -0.9,0.1 -0.9,-0.4 -1.1,-0.5 -0.7,-0.1 -0.6,0.3 -0.3,0.5 -0.2,0.6 0.5,0.8 1.1,0.8 m 101,114.2 3.2,0.6 -2.2,2 0.9,0.2 0.5,0.4 0.3,0.3 0.1,1 -0.1,0.6 -0.5,0.8 -0.7,0.5 -0.9,0.1 -0.9,-0.2 -0.9,-0.4 -0.2,-0.4 -0.2,-0.6 m 9.7,-1.2 -0.5,0.8 -0.7,0.5 -0.9,0.1 -0.3,-0.1 -0.9,-0.4 -0.4,-0.7 -0.2,-1 0.1,-0.3 0.5,-0.8 0.7,-0.5 0.9,-0.1 0.3,0.1 0.8,0.4 0.5,0.7 0.1,1.3 -0.3,1.4 -0.6,1.5 -0.7,0.7 -1,0.2 -0.6,-0.2 -0.8,-0.4 -0.2,-0.7 M 807,108 l -2.2,2.5 -0.6,-3 -0.6,0.7 -0.7,0.3 h -0.4 l -0.8,-0.4 -0.5,-0.4 -0.5,-0.8 V 106 l 0.4,-0.8 0.5,-0.7 0.9,-0.5 h 0.4 l 0.6,0.2 m -0.7,8.5 0.4,-0.9 -0.3,-0.6 -0.4,-0.4 -0.7,-0.2 -0.6,0.3 -1,0.7 -0.8,0.4 -0.9,0.1 -0.6,-0.2 -0.7,-0.6 -0.2,-0.6 -0.1,-0.4 0.4,-0.9 0.8,-0.9 0.8,-0.5 h 0.4 l 0.7,0.2 0.7,0.6 0.2,0.6 0.1,0.8 -0.4,0.9 -0.6,1.1 -0.2,0.7 0.3,0.6 0.4,0.4 0.7,0.2 0.8,-0.5 0.9,-1 m -205.3,49.1 -5.1,1 3.3,3.1 m 1.8,-4.1 -4.3,4.6 m 8.2,0.3 0.2,-0.6 -0.4,-0.8 -0.5,-0.5 -0.8,-0.3 -1.1,0.2 -1.2,0.9 -1.1,1.1 -0.6,1.1 0.1,0.8 0.4,0.9 0.2,0.2 0.9,0.4 0.9,-0.1 0.8,-0.4 0.2,-0.2 0.4,-0.9 v -0.9 l -0.5,-0.8 -0.2,-0.2 -0.9,-0.4 h -0.8 l -0.9,0.5 m -30.8,-93.4 0.2,-3 -2.7,-0.4 0.3,0.3 0.2,0.9 v 0.9 l -0.4,0.9 -0.6,0.6 -0.9,0.3 -0.6,-0.1 -0.9,-0.3 -0.6,-0.6 -0.2,-0.9 v -0.9 l 0.4,-0.9 0.3,-0.3 0.6,-0.3 m 3.3,6 h 0.3 l 0.6,0.4 0.3,0.3 0.3,0.6 -0.1,1.2 -0.3,0.6 -0.3,0.2 -0.6,0.3 h -0.6 l -0.6,-0.3 -0.9,-0.7 -2.9,-3.1 -0.1,4.2 m 59.1,-22.6 4.7,-2.2 -4,-2.2 m -0.7,4.4 3,-5.5 m -5.8,4 -2.9,-1.6 2.7,-1.3 -0.8,-0.4 -0.4,-0.5 -0.1,-0.4 0.2,-1 0.3,-0.5 0.7,-0.7 0.8,-0.2 0.9,0.2 0.8,0.4 0.6,0.7 0.2,0.4 -0.1,0.7 m 270.5,59.3 4.8,-2.1 -3.9,-2.3 m -0.9,4.4 3.3,-5.4 m -6,3.7 -2.9,-1.7 2.8,-1.1 -0.7,-0.5 -0.4,-0.6 -0.1,-0.4 0.2,-0.9 0.3,-0.5 0.7,-0.6 0.8,-0.2 1,0.2 0.7,0.4 0.7,0.7 0.1,0.5 -0.1,0.6 m 50.8,83.8 -0.1,3 2.7,0.4 -0.3,-0.3 -0.2,-0.9 v -0.9 l 0.3,-0.9 0.6,-0.6 0.9,-0.3 h 0.6 l 0.9,0.4 0.6,0.6 0.3,0.9 v 0.9 l -0.4,0.9 -0.3,0.3 -0.6,0.2 m -4.9,-9 v 3 l 2.7,0.4 -0.3,-0.4 -0.3,-0.9 V 184 l 0.3,-0.9 0.6,-0.5 0.9,-0.3 h 0.6 l 0.9,0.3 0.6,0.6 0.3,0.9 v 0.9 l -0.3,0.9 -0.3,0.3 -0.7,0.3 m -47,47.9 -3,0.4 0.1,2.7 0.2,-0.3 0.9,-0.4 0.9,-0.1 0.9,0.2 0.7,0.5 0.4,0.8 0.1,0.6 -0.2,1 -0.5,0.6 -0.9,0.4 -0.9,0.2 -0.9,-0.2 -0.4,-0.3 -0.3,-0.6 m 8.3,-5.2 -0.3,-0.6 -1,-0.2 -0.6,0.1 -0.8,0.4 -0.5,1 -0.1,1.5 0.2,1.5 0.4,1.2 0.7,0.5 0.9,0.2 0.3,-0.1 0.9,-0.4 0.5,-0.6 0.2,-1 -0.1,-0.3 -0.4,-0.8 -0.6,-0.6 -1,-0.1 h -0.3 l -0.8,0.4 -0.5,0.7 -0.2,0.9 m -300,41.3 -4.3,2.9 4.2,1.6 m 0.1,-4.5 -2.2,5.9 m 7.6,-3.9 -4.3,2.9 4.3,1.6 m 0,-4.5 -2.2,5.9 m 4.1,-42.9 -1.1,-5 -3,3.3 m 4.1,1.7 -4.7,-4.2 m 0.4,8.8 2,-2.2 -1.7,-2.1 v 0.4 l -0.4,0.9 -0.6,0.7 -0.8,0.4 -0.9,0.1 -0.9,-0.4 -0.4,-0.4 -0.5,-0.9 V 245 l 0.4,-0.9 0.6,-0.6 0.8,-0.5 h 0.4 l 0.7,0.2"
       id="nums_002"
       stroke="#000000"
       stroke-width="1" />
    <path
       d="m 758.8,607.2 -59.7,8.7 -137,-5.6 52.8,-82.5 8.8,-140.1 8.8,-87.3 -64.9,-24.1 64.9,-70.7 -77.5,-72.3 5,-117.5 120.3,64.5 82.6,65 69.7,-78.6 117.1,70 -2.4,100 -92.7,11.5 -70.7,-13.5 46.3,55.1 -50.3,78.7 -49.8,84.25 z"
       id="coupes_002"
       stroke="#ff0000"
       stroke-width="1.27"
       sodipodi:nodetypes="ccccccccccccccccccccc" />
    <path
       d="m 670.5,488.3 4,4 m 0,-4 -4,4 m 54.4,-155.6 4,4 m 0,-4 -4,4 m -12.3,191.6 4,4 m 0,-4 -4,4 m -6.4,-270.7 4,4 m 0,-4 -4,4 m -10.5,-48.8 4,4 m 0,-4 -4,4 m 75.7,-36.8 4,4 m 0,-4 -4,4 m -75.7,-18.6 4,4 m 0,-4 -4,4 m -41.3,-36.5 4,4 m 0,-4 -4,4 m 152.3,49.8 4,4 m 0,-4 -4,4 m 34.9,-43.3 4,4 m 0,-4 -4,4 m -226,-54.6 4,4 m 0,-4 -4,4 m 284.5,81.6 4,4 m 0,-4 -4,4"
       display="none"
       id="marqueM_002"
       stroke="#a52a2a" />
    <path
       d="m 623.7,387.7 106.4,65.1 M 623.7,387.7 779.9,368.5 m -80.8,247.4 -84.2,-88.1 m 8.8,-140.1 160.2,-153 m -151.4,65.7 v -94.8"
       id="plisV_002"
       stroke="#008000"
       stroke-dasharray="4, 1, 1, 1"
       stroke-width="1.27" />
    <path
       d="m 674.9,418.2 4,4 m 0,-4 -4,4 m 24.9,-46.1 4,4 m 0,-4 -4,4 m -44.8,189.8 4,4 m 0,-4 -4,4 m 46.8,-264.7 4,4 m 0,-4 -4,4 m -71.3,-62.2 4,4 m 0,-4 -4,4"
       id="marqueV_002"
       stroke="#008000" />
    <path
       d="m 741.4,295.4 v -0.7 l 0.7,-1.5 0.8,-0.8 1.5,-0.7 h 3 l 1.5,0.7 0.7,0.8 0.8,1.5 v 1.5 l -0.8,1.5 -1.5,2.2 -7.5,7.5 h 10.5"
       id="titre_2"
       stroke="#4b0082" />
  </g>
  <g
     id="page_003">
    <path
       d="m 1428.9,421.1 0.5,-0.4 0.1,-1 -0.2,-0.6 -0.5,-0.8 -1,-0.3 -1.5,0.1 -1.5,0.4 -1.1,0.6 -0.4,0.7 v 1 0.3 l 0.6,0.7 0.7,0.5 h 0.9 0.3 l 0.8,-0.6 0.4,-0.7 0.1,-1 -0.1,-0.2 -0.5,-0.8 -0.7,-0.5 h -1 m 5.8,5.2 -0.6,-0.8 -0.6,-0.1 -0.6,0.2 -0.5,0.4 -0.1,0.7 v 1.2 l -0.1,0.9 -0.4,0.8 -0.5,0.4 -0.9,0.3 -0.6,-0.2 -0.4,-0.2 -0.5,-0.8 -0.3,-1.1 v -1 l 0.3,-0.4 0.5,-0.4 0.8,-0.2 0.7,0.1 0.7,0.4 0.5,0.8 0.6,1.1 0.5,0.5 0.6,0.1 0.6,-0.1 0.5,-0.5 0.1,-0.9 -0.4,-1.3 m 121.5,-109.2 -0.6,0.3 -0.3,0.8 -0.1,0.6 0.3,1 0.9,0.6 1.5,0.3 1.5,0.1 1.2,-0.3 0.6,-0.6 0.3,-0.9 V 316 l -0.2,-0.9 -0.6,-0.6 -0.9,-0.3 h -0.3 l -0.9,0.2 -0.6,0.6 -0.4,0.9 v 0.3 l 0.3,0.9 0.6,0.6 0.9,0.4 m -13,98.9 5.9,3.8 m -6.4,0.4 0.5,-4.2 m 0.3,-1.7 0.4,-3.3 2.2,2.1 0.1,-0.9 0.4,-0.5 0.3,-0.3 0.9,-0.1 h 0.6 l 0.9,0.5 0.5,0.6 0.2,1 -0.2,0.9 -0.4,0.8 -0.3,0.3 -0.7,0.2 m -138.5,-118.7 -0.4,-0.8 -0.7,-0.3 -0.6,0.1 -0.5,0.4 -0.3,0.6 -0.1,1.2 -0.3,0.9 -0.5,0.7 -0.6,0.4 h -0.9 l -0.6,-0.2 -0.3,-0.3 -0.4,-0.8 -0.1,-1.2 0.2,-1 0.3,-0.3 0.5,-0.3 0.9,-0.1 0.7,0.2 0.6,0.5 0.4,0.9 0.4,1.2 0.4,0.5 0.6,0.3 0.6,-0.1 0.6,-0.3 0.2,-1 -0.2,-1.3 m -1,4 0.4,0.6 1,0.8 -6.3,0.6 m 133.1,-96.1 6.9,1.3 m -5.8,2.8 -1.1,-4.1 m -72.4,-146.9 0.7,-0.6 0.1,-0.7 -0.2,-0.5 -0.4,-0.5 -0.7,-0.1 -1.2,0.1 h -1 l -0.7,-0.3 -0.5,-0.5 -0.3,-0.9 0.1,-0.6 0.2,-0.4 0.7,-0.6 1.1,-0.4 h 1 l 0.4,0.2 0.5,0.5 0.2,0.8 V 57 l -0.4,0.7 -0.8,0.6 -1,0.7 -0.5,0.5 -0.1,0.6 0.2,0.6 0.5,0.5 h 1 l 1.2,-0.5 m -7.6,2.6 0.8,-6.9 m 3.2,5.6 -4,1.3 m 60,31 -0.4,-0.6 -1,-0.8 6.3,-0.7 m -4.9,-4.5 0.9,0.2 0.7,0.5 0.4,0.9 v 0.3 l -0.2,0.9 -0.6,0.7 -0.8,0.3 -0.3,0.1 -0.9,-0.2 -0.7,-0.6 -0.4,-0.8 v -0.3 l 0.2,-1 0.5,-0.6 1.2,-0.4 1.5,-0.2 1.5,0.2 1,0.5 0.3,0.8 0.1,0.6 -0.2,0.9 -0.6,0.4 m -137.8,110.6 -0.8,-0.6 -0.6,0.1 -0.5,0.3 -0.3,0.6 v 0.7 l 0.5,1.1 0.2,1 -0.1,0.8 -0.4,0.6 -0.7,0.5 -0.7,0.1 -0.4,-0.1 -0.7,-0.6 -0.7,-1 -0.3,-0.9 0.1,-0.4 0.3,-0.6 0.8,-0.5 0.6,-0.1 0.9,0.2 0.7,0.5 1,0.9 0.5,0.3 0.7,-0.1 0.5,-0.3 0.3,-0.6 -0.2,-0.9 -0.8,-1.2 m 1.3,4.6 0.3,-0.1 0.6,-0.1 h 0.4 l 0.6,0.4 0.7,1 0.1,0.6 -0.1,0.4 -0.3,0.6 -0.5,0.4 -0.7,0.1 h -1.1 l -4.1,-0.8 2.3,3.4 m -27,-150.8 0.9,0.1 0.6,-0.4 0.2,-0.5 v -0.7 l -0.3,-0.5 -1,-0.9 -0.6,-0.6 -0.3,-0.9 V 56 l 0.4,-0.8 0.6,-0.4 0.4,-0.1 0.9,0.1 1.1,0.6 0.6,0.6 0.2,0.4 v 0.7 l -0.5,0.8 -0.5,0.4 -0.8,0.3 -0.9,-0.2 -1.2,-0.3 h -0.7 l -0.6,0.4 -0.2,0.5 v 0.7 l 0.6,0.7 1.2,0.6 m -6.7,-3.5 2.6,1.4 1.6,-2.3 -0.4,0.2 -1,-0.2 -0.8,-0.4 -0.6,-0.7 -0.3,-0.8 0.2,-0.9 0.2,-0.6 0.7,-0.6 0.8,-0.3 1,0.2 0.8,0.4 0.6,0.7 0.1,0.4 v 0.7 m -86.6,31.9 0.4,-0.9 -0.2,-0.6 -0.4,-0.4 -0.6,-0.2 -0.7,0.2 -1,0.6 -0.9,0.4 h -0.8 l -0.7,-0.2 -0.6,-0.6 -0.2,-0.6 v -0.5 l 0.4,-0.8 0.8,-0.9 0.9,-0.4 h 0.4 l 0.6,0.2 0.7,0.7 0.2,0.6 V 84 l -0.4,0.9 -0.6,1.1 -0.2,0.6 0.2,0.6 0.4,0.4 0.6,0.3 0.9,-0.5 0.9,-0.9 m -4.9,5.1 -0.9,-5.1 -3.2,3.2 m 4.1,1.9 -4.5,-4.4 m 206.2,440.5 0.4,-0.5 v -1 l -0.2,-0.5 -0.6,-0.8 -1.1,-0.2 -1.5,0.2 -1.4,0.6 -1,0.7 -0.4,0.8 0.1,0.9 0.1,0.3 0.6,0.7 0.8,0.4 0.9,-0.1 0.3,-0.1 0.7,-0.6 0.4,-0.8 -0.1,-0.9 -0.1,-0.3 -0.6,-0.7 -0.8,-0.4 -0.9,0.1 m 7.2,7 -7,-0.6 m 5.5,-3.3 1.5,3.9 m 82,-29.7 1.3,2.7 2.6,-0.8 -0.4,-0.2 -0.7,-0.7 -0.3,-0.8 -0.1,-0.9 0.3,-0.8 0.7,-0.7 0.5,-0.2 0.9,-0.1 0.8,0.3 0.7,0.7 0.4,0.8 0.1,0.9 -0.2,0.4 -0.4,0.6 m -6.6,-7.2 1,-0.1 0.8,0.3 0.6,0.7 0.1,0.3 0.1,0.9 -0.3,0.8 -0.7,0.6 -0.2,0.2 -1,0.1 -0.8,-0.3 -0.6,-0.7 -0.1,-0.3 -0.1,-0.9 0.3,-0.8 0.9,-0.8 1.4,-0.6 1.5,-0.4 1,0.2 0.7,0.7 0.2,0.5 0.1,1 -0.4,0.5 m -23.8,98.2 h -0.7 l -0.6,0.7 -0.2,0.6 -0.1,0.9 0.6,0.9 1.3,0.9 1.3,0.6 1.3,0.2 0.7,-0.4 0.7,-0.7 0.1,-0.2 0.1,-1 -0.4,-0.8 -0.7,-0.6 -0.2,-0.1 -1,-0.1 -0.8,0.3 -0.6,0.7 -0.1,0.3 -0.1,0.9 0.3,0.8 0.7,0.7 m 1.6,-9.1 0.7,0.6 0.3,0.8 v 1 l -0.2,0.2 -0.6,0.8 -0.8,0.3 -0.9,-0.1 -0.3,-0.1 -0.7,-0.7 -0.3,-0.7 0.1,-1 0.1,-0.3 0.6,-0.7 0.8,-0.3 1.2,0.2 1.4,0.6 1.3,0.9 0.5,0.9 v 0.9 l -0.3,0.6 -0.6,0.7 h -0.7 m -239.1,-351 -6.5,-2.4 m 6.2,-1.7 0.3,4.1 m -1.7,5.3 -0.9,-0.3 -0.6,-0.5 -0.4,-0.9 v -0.3 l 0.2,-0.9 0.5,-0.7 0.9,-0.3 0.3,-0.1 0.9,0.3 0.7,0.5 0.4,0.9 v 0.3 l -0.2,0.9 -0.6,0.7 -1.2,0.4 -1.5,0.1 -1.5,-0.2 -0.9,-0.5 -0.4,-0.9 v -0.6 l 0.2,-0.9 0.6,-0.4 m 70.3,16.5 6.6,2.4 m -6.2,1.8 -0.4,-4.2 m -0.2,-2.6 0.4,0.8 0.6,0.3 0.6,-0.1 0.5,-0.3 0.3,-0.6 0.2,-1.3 0.2,-0.9 0.5,-0.6 0.6,-0.4 0.9,-0.1 0.6,0.3 0.4,0.2 0.3,0.9 0.1,1.2 -0.2,0.9 -0.2,0.3 -0.6,0.4 -0.9,0.1 -0.6,-0.3 -0.7,-0.5 -0.4,-0.9 -0.4,-1.1 -0.3,-0.6 -0.7,-0.3 -0.6,0.1 -0.5,0.4 -0.2,0.9 0.1,1.3 m -78.3,116.7 -4.7,-5.1 m 6.3,1.2 -1.6,3.9 m -1.7,0.5 0.1,0.6 0.5,1.2 -5.9,-2.4 m 47,39.9 -3.1,6.3 m -1.1,-6.3 h 4.2 m 1.6,1.5 v -0.3 l 0.3,-0.6 0.4,-0.3 0.6,-0.3 h 1.2 l 0.6,0.3 0.2,0.3 0.3,0.6 v 0.6 l -0.3,0.6 -0.6,0.9 -3,3 4.2,0.1 m -141.8,-233.4 0.2,-1 -0.4,-0.5 -0.5,-0.3 h -0.7 l -0.5,0.3 -0.9,1 -0.7,0.6 -0.8,0.2 h -0.6 l -0.8,-0.4 -0.4,-0.6 -0.1,-0.4 0.1,-0.9 0.6,-1.1 0.7,-0.6 0.4,-0.1 h 0.7 l 0.8,0.4 0.4,0.6 0.2,0.8 -0.2,0.9 -0.3,1.2 v 0.7 l 0.4,0.5 0.5,0.3 0.7,0.1 0.7,-0.7 0.6,-1.2 m -2.2,4 -1.6,2.9 -1.2,-2.7 -0.4,0.8 -0.6,0.4 -0.4,0.1 -0.9,-0.2 -0.6,-0.3 -0.6,-0.6 -0.3,-0.9 0.2,-0.9 0.4,-0.8 0.7,-0.6 0.5,-0.1 h 0.6 m 59.8,45.7 4.4,5.3 m -6.2,-1.5 1.8,-3.8 m 4,-3.7 0.7,0.6 0.3,0.8 -0.1,1 -0.2,0.2 -0.6,0.7 -0.8,0.3 -1,-0.1 -0.2,-0.1 -0.7,-0.7 -0.3,-0.8 0.1,-0.9 0.1,-0.3 0.7,-0.7 0.8,-0.3 1.2,0.3 1.4,0.6 1.2,0.9 0.6,0.9 -0.2,1 -0.2,0.5 -0.7,0.7 h -0.6 m -84.9,82.5 -6.4,-2.7 m 6.2,-1.5 0.2,4.2 m 0.2,2.9 -0.4,-0.9 -0.9,-0.5 -1.5,-0.3 -0.9,0.1 -1.5,0.3 -0.9,0.7 -0.2,0.9 v 0.6 l 0.3,0.9 1,0.5 1.5,0.3 0.9,-0.1 1.5,-0.3 0.8,-0.7 0.3,-0.9 v -0.4 m 17,29.2 3.6,5.9 m -5.9,-2.4 2.3,-3.5 m 1.7,-0.1 0.1,-0.7 -0.3,-1.2 5.3,3.4 m 208.8,33.8 7,-0.4 m -5,4.1 -2,-3.7 m -2.1,-3.7 5.1,0.6 -2.1,-4 m -3,3.4 5.6,-3 m 10,36.7 -2.9,6.3 m -1.3,-6.2 4.2,-0.1 m 4.7,-0.1 -3,0.1 -0.2,2.7 0.3,-0.3 0.9,-0.4 h 0.9 l 0.9,0.3 0.6,0.6 0.3,0.9 v 0.6 l -0.3,0.9 -0.6,0.6 -0.9,0.3 h -0.9 l -0.9,-0.2 -0.3,-0.3 -0.3,-0.6 m 47.1,254.4 -0.4,-0.5 -1,-0.1 -0.5,0.2 -0.8,0.5 -0.4,1 0.1,1.5 0.4,1.5 0.6,1.1 0.7,0.4 h 1 0.3 l 0.8,-0.6 0.4,-0.7 v -0.9 -0.3 l -0.5,-0.8 -0.8,-0.4 -0.9,-0.1 -0.3,0.1 -0.8,0.5 -0.4,0.7 -0.1,1 m 6.8,-6.2 -1.8,4.8 4.4,-1.2 m -2.6,-3.6 1.6,6 m -21.3,-137.2 -0.3,0.6 0.3,0.9 0.4,0.5 0.8,0.5 1,-0.1 1.4,-0.6 1.2,-1 0.8,-0.9 0.1,-0.9 -0.3,-0.9 -0.2,-0.2 -0.8,-0.5 -0.8,-0.1 -0.9,0.3 -0.3,0.1 -0.5,0.8 -0.1,0.9 0.3,0.9 0.2,0.2 0.8,0.5 0.8,0.2 0.9,-0.4 m -8.9,-4.6 6.9,-1.5 m -4.3,4.8 -2.6,-3.3 m -54,114 0.2,-0.7 -0.4,-0.8 -0.4,-0.5 -0.8,-0.4 -1.1,0.2 -1.3,0.8 -1.1,1 -0.7,1 v 0.9 l 0.4,0.8 0.2,0.3 0.9,0.4 h 0.8 l 0.9,-0.4 0.2,-0.2 0.4,-0.8 0.1,-0.8 -0.4,-0.9 -0.2,-0.2 -0.9,-0.5 h -0.8 l -0.9,0.4 m 8.3,4.1 0.3,-0.7 -0.4,-0.8 -0.4,-0.5 -0.9,-0.4 -1,0.2 -1.3,0.8 -1.1,1 -0.7,1 v 0.9 l 0.4,0.8 0.2,0.3 0.8,0.4 h 0.8 l 0.9,-0.4 0.2,-0.2 0.5,-0.8 v -0.9 l -0.4,-0.8 -0.2,-0.2 -0.8,-0.5 h -0.9 l -0.8,0.4 m -22.1,-181.8 v 0.7 l 0.7,0.6 0.5,0.3 1,0.1 0.9,-0.5 0.9,-1.2 0.7,-1.4 0.3,-1.2 -0.3,-0.8 -0.7,-0.7 -0.3,-0.1 -0.9,-0.1 -0.8,0.2 -0.7,0.7 -0.1,0.3 -0.1,0.9 0.2,0.8 0.7,0.7 0.3,0.1 0.9,0.2 0.8,-0.3 0.7,-0.7 m -7.7,0.9 0.9,0.1 0.5,-0.4 0.3,-0.5 v -0.7 l -0.4,-0.5 -0.9,-0.8 -0.7,-0.7 -0.3,-0.8 v -0.7 l 0.4,-0.8 0.5,-0.4 0.4,-0.1 1,0.1 1,0.5 0.7,0.7 0.2,0.4 v 0.7 l -0.4,0.8 -0.6,0.4 -0.8,0.3 -0.9,-0.2 -1.2,-0.2 h -0.7 l -0.5,0.4 -0.3,0.5 v 0.7 l 0.7,0.7 1.2,0.6 m -60.5,129.3 -0.2,-0.7 -0.8,-0.5 -0.5,-0.1 -1,0.1 -0.8,0.7 -0.6,1.4 -0.4,1.5 v 1.2 l 0.5,0.7 0.8,0.5 0.3,0.1 0.9,-0.1 0.8,-0.4 0.5,-0.8 V 609 l -0.1,-1 -0.4,-0.7 -0.8,-0.5 -0.3,-0.1 -0.9,0.1 -0.8,0.5 -0.5,0.8 m 9.4,-2.1 -2.9,-0.7 -0.9,2.6 0.3,-0.3 1,-0.1 0.8,0.3 0.9,0.5 0.4,0.7 0.1,0.9 -0.2,0.6 -0.5,0.8 -0.7,0.5 h -0.9 l -0.9,-0.2 -0.8,-0.5 -0.2,-0.3 -0.2,-0.7 m -25,-142.3 0.7,-0.6 0.1,-0.6 -0.2,-0.6 -0.5,-0.5 h -0.6 l -1.2,0.1 h -1 l -0.8,-0.4 -0.4,-0.4 -0.3,-0.9 v -0.7 l 0.2,-0.3 0.8,-0.6 1.1,-0.4 h 1 l 0.3,0.1 0.5,0.5 0.3,0.9 -0.1,0.6 -0.3,0.8 -0.8,0.6 -1,0.7 -0.5,0.4 -0.1,0.7 0.2,0.6 0.5,0.4 h 1 l 1.2,-0.4 m -5.4,1.9 0.7,-0.6 0.3,-1 -0.2,-1.6 -0.3,-0.8 -0.8,-1.3 -0.9,-0.7 h -0.9 l -0.6,0.2 -0.7,0.6 -0.3,1.1 0.2,1.5 0.3,0.8 0.8,1.4 0.8,0.6 h 1 l 0.4,-0.2 m -135.2,202.2 0.4,-0.5 -0.1,-1 -0.3,-0.5 -0.7,-0.7 -1,-0.1 -1.5,0.3 -1.4,0.7 -0.9,0.8 -0.3,0.8 0.2,0.9 0.1,0.3 0.6,0.7 0.9,0.3 0.9,-0.2 0.3,-0.1 0.6,-0.7 0.3,-0.8 -0.1,-0.9 -0.1,-0.3 -0.7,-0.6 -0.8,-0.3 -1,0.1 m 7.5,5.5 -5.1,-0.9 2,4.1 m 3.1,-3.2 -5.7,2.8 m 110.5,-25.6 -0.6,0.3 -0.3,0.9 -0.1,0.6 0.3,0.9 0.9,0.6 1.5,0.4 h 1.5 l 1.2,-0.3 0.6,-0.6 0.3,-0.8 0.1,-0.3 -0.3,-1 -0.6,-0.6 -0.9,-0.3 h -0.3 l -0.9,0.3 -0.6,0.6 -0.3,0.9 -0.1,0.3 0.3,0.9 0.6,0.6 0.9,0.3 m -4,-8.7 -0.1,3 2.7,0.3 -0.3,-0.3 -0.2,-0.9 V 649 l 0.3,-0.9 0.6,-0.6 0.9,-0.2 h 0.6 l 0.9,0.3 0.6,0.6 0.3,0.9 v 0.9 l -0.4,0.9 -0.3,0.3 -0.6,0.3 m -49.8,52.7 -0.4,-0.5 -1,-0.2 -0.6,0.2 -0.8,0.4 -0.4,1 v 1.6 l 0.3,1.4 0.5,1.1 0.7,0.5 0.9,0.1 h 0.3 l 0.9,-0.5 0.4,-0.7 0.2,-0.9 -0.1,-0.3 -0.5,-0.8 -0.7,-0.5 -0.9,-0.1 h -0.3 l -0.8,0.5 -0.5,0.7 -0.1,0.9 m 7.8,-4.9 -0.4,-0.5 -0.9,-0.1 -0.6,0.1 -0.8,0.5 -0.5,1 v 1.5 l 0.3,1.5 0.5,1.1 0.8,0.4 0.9,0.2 0.3,-0.1 0.8,-0.5 0.5,-0.7 0.1,-0.9 -0.1,-0.3 -0.4,-0.8 -0.7,-0.5 -1,-0.1 h -0.3 l -0.8,0.5 -0.5,0.7 -0.1,1 m -31.1,-224.2 3.3,-6.1 m 0.9,6.3 -4.2,-0.2 m -5.2,-0.2 3.3,-6.2 m 0.9,6.4 -4.2,-0.2 m -45.9,68.3 0.6,-0.3 0.4,-0.9 v -0.6 l -0.3,-0.9 -0.9,-0.6 -1.5,-0.3 -1.5,-0.1 -1.2,0.3 -0.6,0.6 -0.3,0.9 v 0.3 l 0.2,0.9 0.6,0.6 0.9,0.3 h 0.3 l 0.9,-0.3 0.6,-0.5 0.4,-0.9 v -0.3 l -0.3,-0.9 -0.6,-0.7 -0.9,-0.3 m 1.9,9 -0.9,-0.3 -0.6,-0.6 -0.3,-0.9 v -0.3 l 0.4,-0.9 0.6,-0.6 0.9,-0.3 h 0.3 l 0.9,0.4 0.6,0.6 0.2,0.9 v 0.3 l -0.3,0.9 -0.6,0.6 -1.2,0.2 h -1.5 l -1.5,-0.4 -0.9,-0.6 -0.3,-0.9 0.1,-0.6 0.3,-0.9 0.6,-0.3"
       id="nums_003"
       stroke="#000000"
       stroke-width="1" />
    <path
       d="m 1528.3,145.8 32.2,122.7 -2.4,94.6 -15.1,108 24.4,53.6 -63,147.6 -95.1,25.4 -68.2,-73 -97.2,-23.1 -2.6,99.9 -98,19.3 -43.3,-88.4 4.1,-160.4 111.6,5.5 92.5,-32.5 99.9,49.1 69.4,90.9 -40.9,-106.9 -28.8,-107.4 -13.6,-136.5 -34,-49.9 14.7,156.5 46.6,86.1 -30.5,0.5 -138,-1.4 39.8,-99.1 -13.2,-158.4 -67.3,144.1 -58,89.5 -7.6,-158.6 57.8,-105.7 107,-108.4 86.6,45.1 118.6,-40.6 z"
       id="coupes_003"
       stroke="#ff0000"
       stroke-width="1.27"
       sodipodi:nodetypes="ccccccccccccccccccccccccccccccccccc" />
    <path
       d="m 1482.1,317.6 4,4 m 0,-4 -4,4 m 14.5,49.7 4,4 m 0,-4 -4,4 m -1.2,43.3 4,4 m 0,-4 -4,4 m -7.6,50 4,4 m 0,-4 -4,4 m -12.4,-227.3 4,4 m 0,-4 -4,4 m -81.2,-101 4,4 m 0,-4 -4,4 m 67,-48.2 4,4 m 0,-4 -4,4 m -124.3,7.4 4,4 m 0,-4 -4,4 m -19,50.9 4,4 m 0,-4 -4,4 m -24.4,-81.5 4,4 m 0,-4 -4,4 m -53.5,50.2 4,4 m 0,-4 -4,4 m 268.3,371 4,4 m 0,-4 -4,4 m 12.2,22.8 4,4 m 0,-4 -4,4 m -31.5,69.8 4,4 m 0,-4 -4,4 m -164.5,-377.1 4,4 m 0,-4 -4,4 m -12.6,123.8 4,4 m 0,-4 -4,4 m 69,-3.3 4,4 m 0,-4 -4,4 M 1211.1,204 l 4,4 m 0,-4 -4,4 m 230.3,431.4 4,4 m 0,-4 -4,4 m -34.7,-49.5 4,4 m 0,-4 -4,4 m -34.1,-40.5 4,4 m 0,-4 -4,4 m -49.9,-28.5 4,4 m 0,-4 -4,4 m -48.6,-15.6 4,4 m 0,-4 -4,4 m -46.3,12.3 4,4 m 0,-4 -4,4 m -71.9,11.4 4,4 m 0,-4 -4,4 m 14,58 4,4 m 0,-4 -4,4 m 21.7,40.2 4,4 m 0,-4 -4,4"
       display="none"
       id="marqueM_003"
       stroke="#a52a2a" />
    <path
       d="m 1394.2,234.2 134.1,-88.4 m -168.1,38.5 37.9,-109.8 m -23.2,266.3 -82.1,-13.9 m -80.5,-14.3 -65.6,-69.1"
       id="plisV_003"
       stroke="#008000"
       stroke-dasharray="4, 1, 1, 1"
       stroke-width="1.27" />
    <path
       d="m 1459.3,188 4,4 m 0,-4 -4,4 m -82.1,-64.6 4,4 m 0,-4 -4,4 m -45.4,200.5 4,4 m 0,-4 -4,4 m -154.3,-59.9 4,4 m 0,-4 -4,4"
       id="marqueV_003"
       stroke="#008000" />
    <path
       d="m 1335.5,385.7 h 8.3 l -4.5,6 h 2.2 l 1.5,0.7 0.8,0.8 0.7,2.2 v 1.5 l -0.7,2.3 -1.5,1.5 -2.3,0.7 h -2.2 l -2.3,-0.7 -0.7,-0.8 -0.8,-1.5"
       id="titre_3"
       stroke="#4b0082" />
  </g>
  <g
     id="page_004">
    <path
       d="m 2060.8,572.7 -0.7,-0.2 -0.8,0.5 -0.4,0.5 -0.4,0.8 0.3,1.1 1,1.2 1.1,1 1.1,0.5 h 0.8 l 0.9,-0.5 0.2,-0.2 0.3,-0.9 v -0.9 l -0.5,-0.8 -0.3,-0.2 -0.8,-0.3 h -0.9 l -0.8,0.5 -0.2,0.2 -0.4,0.9 0.1,0.8 0.5,0.9 m 0.5,-7 2.2,-2.5 0.6,2.9 0.6,-0.7 0.6,-0.2 0.4,-0.1 0.9,0.4 0.5,0.4 0.5,0.8 v 0.8 l -0.4,0.9 -0.5,0.7 -0.9,0.5 h -0.4 l -0.6,-0.2 m -50.8,-65.3 2.9,0.9 1.1,-2.5 -0.4,0.2 h -0.9 l -0.9,-0.3 -0.8,-0.5 -0.3,-0.8 -0.1,-0.9 0.2,-0.6 0.6,-0.8 0.8,-0.4 h 0.9 l 0.9,0.3 0.7,0.6 0.2,0.3 0.1,0.7 m -130.9,43.8 0.3,-0.6 -0.4,-0.9 -0.3,-0.4 -0.8,-0.6 -1.1,0.1 -1.4,0.7 -1.1,0.9 -0.8,1 -0.1,0.8 0.3,0.9 0.2,0.3 0.8,0.5 0.8,0.1 0.9,-0.3 0.3,-0.2 0.5,-0.8 0.1,-0.8 -0.3,-0.9 -0.2,-0.3 -0.8,-0.5 -0.8,-0.1 -0.9,0.3 m 5.5,2.7 0.2,-0.1 0.7,-0.2 0.4,0.1 0.6,0.3 0.8,0.9 0.1,0.7 -0.1,0.4 -0.2,0.6 -0.5,0.4 -0.7,0.1 -1,0.1 -4.3,-0.5 2.6,3.3 m -15.4,-77 0.3,-0.9 -0.3,-1 -1,-1.2 -0.7,-0.5 -1.4,-0.7 -1.1,-0.1 -0.8,0.5 -0.3,0.5 -0.3,0.9 0.3,1 1,1.2 0.7,0.5 1.4,0.7 1,0.1 0.8,-0.5 0.3,-0.4 m 76.2,-38.2 0.2,-0.6 V 440 l 4.5,4.4 m 31.6,-101.5 h -0.3 l -0.5,-0.4 -0.3,-0.4 -0.2,-0.6 0.2,-1.2 0.4,-0.5 0.3,-0.3 0.6,-0.2 0.6,0.1 0.6,0.4 0.8,0.7 2.5,3.4 0.6,-4.1 m -138.9,116.2 -0.7,0.7 -0.1,1 0.3,1.5 0.4,0.8 1,1.2 0.9,0.6 0.9,-0.1 0.6,-0.3 0.7,-0.7 0.1,-1 -0.4,-1.5 -0.4,-0.8 -0.9,-1.2 -0.9,-0.6 -1,0.1 -0.4,0.2 m -40.1,-38.4 h -0.9 l -0.8,-0.4 -0.5,-0.8 -0.1,-0.3 v -0.9 l 0.4,-0.8 0.8,-0.5 0.3,-0.1 h 0.9 l 0.8,0.4 0.5,0.8 0.1,0.3 v 0.9 l -0.4,0.8 -1.1,0.6 -1.4,0.4 -1.5,0.2 -1,-0.3 -0.6,-0.8 -0.2,-0.6 v -0.9 l 0.5,-0.5 m 6.8,3.6 0.9,3.1 -2.8,-1 0.3,0.8 -0.1,0.7 -0.2,0.4 -0.8,0.5 -0.6,0.2 h -0.9 l -0.8,-0.4 -0.5,-0.8 -0.3,-0.8 v -1 l 0.2,-0.4 0.5,-0.4 m -12.9,-208.7 2.9,-4.3 -4.5,0.1 m 1.6,4.2 -0.2,-6.3 m -66.2,148.4 -0.4,0.9 -0.6,0.6 -0.9,0.2 h -0.3 l -0.9,-0.3 -0.6,-0.7 -0.2,-0.9 v -0.3 l 0.4,-0.9 0.6,-0.5 0.9,-0.3 h 0.3 l 0.9,0.4 0.6,0.6 0.2,1.2 -0.1,1.5 -0.4,1.5 -0.6,0.9 -0.9,0.2 h -0.6 l -0.9,-0.4 -0.3,-0.6 m 4.9,-3.7 0.6,-0.3 1,-0.8 -0.4,6.3 m -68.5,-63.5 0.9,3.2 -2.8,-1.1 0.2,0.9 -0.1,0.7 -0.2,0.3 -0.8,0.6 -0.5,0.1 h -1 l -0.7,-0.4 -0.6,-0.8 -0.2,-0.9 v -0.9 l 0.2,-0.4 0.5,-0.5 m 5.1,4.7 0.3,-0.1 0.6,0.1 0.4,0.2 0.5,0.5 0.3,1.2 -0.1,0.7 -0.2,0.3 -0.5,0.5 -0.6,0.1 -0.7,-0.1 -1,-0.3 -3.7,-2.1 1.1,4.1 m 314.2,356.9 -0.6,-0.2 -0.9,0.4 -0.4,0.4 -0.5,0.8 0.2,1.1 0.8,1.3 1,1.1 1,0.7 h 0.9 l 0.8,-0.4 0.3,-0.2 0.4,-0.8 0.1,-0.8 -0.4,-0.9 -0.2,-0.2 -0.8,-0.5 h -0.9 l -0.9,0.4 -0.2,0.2 -0.4,0.8 -0.1,0.8 0.4,0.9 m 1.8,-5.4 0.2,-0.6 0.1,-1.3 4.2,4.7 m -94.4,45.6 -2.9,0.5 0.1,2.7 0.3,-0.4 0.8,-0.4 0.9,-0.2 0.9,0.2 0.7,0.5 0.5,0.8 0.1,0.6 -0.2,0.9 -0.4,0.7 -0.9,0.5 -0.9,0.1 -0.9,-0.1 -0.4,-0.3 -0.4,-0.5 m 7.5,-6.5 -2.2,4.6 4.4,-0.8 m -2.2,-3.8 1.1,6.2 m -18.5,-147.3 -0.2,0.7 0.5,0.8 0.4,0.4 0.8,0.4 1.1,-0.2 1.3,-0.9 1,-1.1 0.6,-1 v -0.9 l -0.4,-0.8 -0.3,-0.2 -0.8,-0.4 h -0.9 l -0.8,0.4 -0.2,0.2 -0.4,0.9 v 0.9 l 0.4,0.8 0.3,0.2 0.8,0.4 h 0.9 l 0.8,-0.5 m -5.9,-1.9 -0.2,0.3 -0.6,0.2 h -0.4 l -0.7,-0.2 -0.9,-0.8 -0.2,-0.7 V 564 l 0.2,-0.6 0.4,-0.5 0.7,-0.2 1,-0.2 4.3,-0.1 -3.1,-2.9 m -60.4,119 -5.1,0.8 3.1,3.2 m 2,-4 -4.5,4.4 m 7.4,-1.3 -0.9,-0.5 -0.6,0.2 -0.5,0.4 -0.2,0.7 0.2,0.6 0.7,1.1 0.4,0.8 v 0.9 l -0.3,0.6 -0.6,0.6 -0.6,0.3 -0.5,-0.1 -0.8,-0.4 -0.9,-0.8 -0.4,-0.9 v -0.4 l 0.3,-0.7 0.6,-0.6 0.6,-0.2 h 0.9 l 0.8,0.5 1.1,0.6 0.6,0.2 0.7,-0.2 0.4,-0.4 0.2,-0.6 -0.4,-0.9 -1,-1 m -72.8,-71.8 -2.2,-2.1 -2.1,1.8 h 0.5 l 0.8,0.4 0.7,0.6 0.4,0.8 v 0.9 l -0.4,0.8 -0.4,0.5 -0.8,0.4 -0.8,0.1 -0.9,-0.4 -0.7,-0.7 -0.4,-0.8 v -0.4 l 0.2,-0.7 m 8.5,1 -0.9,-0.4 -0.6,0.3 -0.4,0.4 -0.2,0.6 0.2,0.7 0.7,1 0.4,0.8 v 0.9 l -0.2,0.6 -0.6,0.7 -0.6,0.2 h -0.4 l -0.9,-0.4 -0.9,-0.8 -0.4,-0.8 v -0.4 l 0.2,-0.7 0.6,-0.6 0.6,-0.3 h 0.9 l 0.8,0.4 1.1,0.6 0.6,0.2 0.7,-0.2 0.4,-0.5 0.2,-0.6 -0.5,-0.8 -1,-1 m 143.7,-474.5 -3.2,-0.7 2.3,-2 -0.9,-0.2 -0.5,-0.4 -0.2,-0.4 -0.1,-0.9 0.1,-0.6 0.5,-0.8 0.7,-0.5 1,-0.1 0.8,0.2 0.8,0.5 0.3,0.4 0.1,0.6 m -34.4,31.7 -3.3,-3.9 -1.1,4.4 m 4.4,-0.5 -6.1,-1.5 m 190.4,34.8 -0.3,-0.2 -0.3,-0.6 -0.1,-0.4 v -0.7 l 0.7,-1 0.6,-0.3 0.4,-0.1 0.7,0.1 0.5,0.3 0.3,0.6 0.4,1 0.9,4.1 2.3,-3.5 m -123.4,-116.2 0.4,0.6 0.9,0.9 -6.3,0.3 m 6.8,3.9 -4.3,-2.7 0.2,4.5 m 4.1,-1.8 -6.3,0.4 m 65.6,-49 -0.5,0.3 -0.9,1 -0.3,-6.3 m -0.8,5.1 -0.6,0.4 -0.9,0.9 -0.3,-6.3 m 84.5,54.1 -0.5,-0.4 -1.1,-0.6 5.9,-2.2 m -5.3,0.2 -0.3,0.1 h -0.7 l -0.4,-0.2 -0.4,-0.5 -0.5,-1.1 0.1,-0.7 0.2,-0.3 0.4,-0.5 0.6,-0.3 0.6,0.1 1.1,0.3 3.9,1.7 -1.5,-3.9 m -293.9,405.9 0.8,-0.6 0.8,-0.2 0.9,0.3 0.3,0.1 0.5,0.8 0.2,0.8 -0.2,0.9 -0.2,0.3 -0.8,0.6 -0.8,0.1 -0.9,-0.2 -0.3,-0.2 -0.5,-0.7 -0.2,-0.9 0.4,-1.1 0.9,-1.3 1,-1.1 1,-0.4 1,0.3 0.5,0.3 0.5,0.8 -0.1,0.6 m -8.4,0.9 0.9,0.2 1,-0.4 1.1,-1.1 0.5,-0.7 0.6,-1.4 v -1.1 l -0.6,-0.8 -0.5,-0.3 -0.9,-0.3 -1,0.5 -1.1,1 -0.5,0.8 -0.6,1.4 v 1.1 l 0.6,0.7 0.4,0.3 m -47.9,26.2 -0.2,-0.9 -0.6,-0.4 h -0.6 l -0.6,0.2 -0.3,0.6 -0.5,1.2 -0.3,0.8 -0.7,0.6 -0.6,0.2 -0.9,-0.1 -0.6,-0.3 -0.3,-0.4 -0.2,-0.9 0.1,-1.2 0.4,-0.9 0.4,-0.2 0.6,-0.3 0.9,0.1 0.5,0.4 0.6,0.6 0.2,1 0.2,1.2 0.2,0.6 0.6,0.4 h 0.6 l 0.6,-0.2 0.4,-0.9 0.1,-1.3 m -2.8,7.6 -0.9,-0.4 -0.5,-0.6 -0.2,-0.9 v -0.3 l 0.4,-0.9 0.6,-0.5 1,-0.3 0.3,0.1 0.8,0.4 0.6,0.6 0.2,0.9 v 0.3 l -0.4,0.9 -0.7,0.5 -1.2,0.2 -1.5,-0.1 -1.5,-0.5 -0.8,-0.6 -0.2,-1 v -0.6 l 0.4,-0.8 0.7,-0.3 m -25.7,-359.2 0.8,-0.5 0.9,-0.1 0.8,0.4 0.3,0.2 0.5,0.8 v 0.8 l -0.3,0.9 -0.2,0.2 -0.8,0.5 -0.9,0.1 -0.9,-0.4 -0.2,-0.2 -0.5,-0.8 V 156 l 0.5,-1.1 1,-1.2 1.2,-0.9 1,-0.3 0.9,0.3 0.5,0.4 0.4,0.8 -0.1,0.7 m -10.2,-1.6 6.4,-2.9 m -3.2,5.6 -3.2,-2.7 m -42.5,15.7 -0.9,-0.3 -0.7,-0.5 -0.4,-0.9 v -0.3 l 0.2,-0.9 0.6,-0.6 0.8,-0.4 h 0.3 l 1,0.2 0.6,0.5 0.4,0.9 v 0.3 l -0.2,0.9 -0.6,0.7 -1.1,0.4 -1.5,0.1 -1.5,-0.2 -1,-0.5 -0.4,-0.9 v -0.6 l 0.2,-0.9 0.6,-0.3 m 4.3,4.9 0.3,-0.1 0.6,0.3 0.4,0.3 0.3,0.5 0.1,1.2 -0.2,0.7 -0.3,0.3 -0.6,0.3 -0.6,0.1 -0.6,-0.3 -1,-0.5 -3.2,-2.7 0.4,4.2"
       id="nums_004"
       stroke="#000000"
       stroke-width="1" />
    <path
       d="M 1787.6,362.2 1672,356 1640.5,245.6 1628,95.5 l 126.6,108 82.1,-2.1 19.9,-79.6 61.3,13.8 -5.7,-101.4 135.5,-6.8 40.4,106.3 -84.9,131 -23.4,154.3 -51.6,53.5 179,57.8 -79.9,92.2 -95.7,87.2 -86.7,15 -75.2,-77.1 -65.6,-61.8 13.7,-144.8 111.6,75 94,90.1 -80.1,-102.7 43.7,-55.8 -63.8,31 z"
       id="coupes_004"
       stroke="#ff0000"
       stroke-width="1.27"
       sodipodi:nodetypes="ccccccccccccccccccccccccccc" />
    <path
       d="m 1973.4,612.3 4,4 m 0,-4 -4,4 m -49.6,-79 4,4 m 0,-4 -4,4 m -18.2,-83.2 4,4 m 0,-4 -4,4 m 37.5,-108 4,4 m 0,-4 -4,4 m -107.8,44.8 4,4 m 0,-4 -4,4 m 82.6,-175.9 4,4 m 0,-4 -4,4 m -107.8,44.8 4,4 m 0,-4 -4,4 m -98.8,-6 4,4 m 0,-4 -4,4 m -15.7,-59.2 4,4 m 0,-4 -4,4 m 229.9,429.3 4,4 m 0,-4 -4,4 m -43.4,3.5 4,4 m 0,-4 -4,4 m -47,-49.1 4,4 m 0,-4 -4,4 m 123.4,-424.2 4,4 m 0,-4 -4,4 m 39.6,-120.2 4,4 m 0,-4 -4,4"
       display="none"
       id="marqueM_004"
       stroke="#a52a2a" />
    <path
       d="m 1923.4,606.1 183.8,-75.8 m -263.9,-26.9 84.9,-30.9 M 1887,447.6 1979.8,419 m -192.2,-56.8 215.6,-97.5 m -215.6,97.5 -33,-158.7 m 15.1,444.1 59.7,-131.6 m -125.3,69.8 125.3,-69.8 m 7.3,-314.6 81.2,-65.8 m 0,0 170.2,-1.9"
       id="plisV_004"
       stroke="#008000"
       stroke-dasharray="4, 1, 1, 1"
       stroke-width="1.27" />
    <path
       d="m 2013.3,566.2 4,4 m 0,-4 -4,4 m -129.6,-84.2 4,4 m 0,-4 -4,4 m 47.7,-58.7 4,4 m 0,-4 -4,4 m -38,-123.9 4,4 m 0,-4 -4,4 m -124.3,-34.6 4,4 m 0,-4 -4,4 m 28.4,295 4,4 m 0,-4 -4,4 m -32.8,-34.9 4,4 m 0,-4 -4,4 m 110.6,-386.4 4,4 m 0,-4 -4,4 m 125.7,-37.8 4,4 m 0,-4 -4,4"
       id="marqueV_004"
       stroke="#008000" />
    <path
       d="m 1894.3,345.6 -7.5,10.5 h 11.3 m -3.8,-10.5 v 15.7"
       id="titre_4"
       stroke="#4b0082" />
  </g>
  <g
     id="page_005">
    <path
       d="m 2230,523 -4.4,2.5 4,1.9 m 0.4,-4.4 -2.6,5.7 m 7.9,-2.2 v -0.7 l -0.7,-0.7 -0.6,-0.2 -0.9,-0.1 -0.9,0.5 -0.9,1.3 -0.6,1.3 -0.3,1.3 0.3,0.8 0.7,0.6 0.3,0.1 0.9,0.1 0.8,-0.3 0.7,-0.6 0.1,-0.3 0.1,-1 -0.3,-0.8 -0.7,-0.6 -0.3,-0.1 -0.9,-0.1 -0.8,0.3 -0.6,0.6 m -29.7,-65.6 -3.3,-3.9 -1.1,4.4 m 4.4,-0.5 -6.1,-1.5 m 4.5,7.6 0.8,-2.9 -2.6,-1 0.2,0.4 0.1,0.9 -0.2,0.9 -0.5,0.8 -0.7,0.4 -1,0.1 -0.6,-0.1 -0.8,-0.5 -0.4,-0.8 -0.1,-0.9 0.2,-0.9 0.5,-0.8 0.4,-0.2 0.7,-0.2 m 203.1,-19.6 2.3,2 2,-1.8 h -0.5 l -0.8,-0.4 -0.7,-0.6 -0.5,-0.8 -0.1,-0.8 0.4,-0.9 0.4,-0.5 0.8,-0.4 0.8,-0.1 0.9,0.4 0.7,0.5 0.5,0.9 v 0.4 l -0.1,0.6 m -9.8,-1.6 5,-1.2 -3.4,-3 m -1.6,4.2 4.1,-4.8 m -89.9,130.2 -2.4,-1.7 -1.8,2 h 0.4 l 0.9,0.2 0.7,0.6 0.6,0.7 0.1,0.9 -0.3,0.9 -0.3,0.5 -0.8,0.5 -0.8,0.2 -0.9,-0.3 -0.7,-0.5 -0.6,-0.8 -0.1,-0.4 0.1,-0.7 m 7.8,-0.7 2.7,1.9 -2.8,0.9 0.7,0.5 0.3,0.6 0.1,0.4 -0.3,0.9 -0.3,0.5 -0.8,0.6 -0.8,0.1 -1,-0.2 -0.7,-0.5 -0.6,-0.8 v -0.4 l 0.1,-0.7 m 165.1,77.9 4.9,1.6 -1.3,-4.3 m -3.6,2.7 6,-1.9 m -5.4,-1.6 -0.3,0.1 -0.7,-0.1 -0.4,-0.2 -0.4,-0.5 -0.4,-1.1 0.1,-0.7 0.2,-0.4 0.5,-0.4 0.6,-0.2 0.6,0.1 1.1,0.3 3.7,2 -1.2,-4 m -137,-10.8 -3.9,-3.3 -0.4,4.5 m 4.3,-1.2 -6.3,-0.5 m 3.6,6.9 -0.9,-0.4 -0.5,-0.6 -0.2,-1 v -0.3 l 0.4,-0.8 0.6,-0.6 0.9,-0.2 h 0.3 l 0.9,0.4 0.5,0.6 0.3,1 -0.1,0.3 -0.3,0.8 -0.7,0.6 -1.2,0.2 -1.5,-0.1 -1.5,-0.5 -0.8,-0.6 -0.2,-0.9 v -0.6 l 0.4,-0.9 0.6,-0.3 m 77.6,41.6 -3,-0.5 -0.7,2.6 0.4,-0.2 0.9,-0.2 0.9,0.2 0.8,0.4 0.5,0.7 0.2,0.9 -0.1,0.6 -0.4,0.9 -0.7,0.5 -0.9,0.1 -0.9,-0.1 -0.9,-0.5 -0.2,-0.3 -0.2,-0.6 m 7.8,-4 -0.9,0.2 -0.8,0.8 -0.5,1.4 -0.1,0.9 0.1,1.5 0.4,1 0.8,0.4 0.6,0.1 1,-0.1 0.7,-0.8 0.5,-1.5 0.2,-0.8 -0.1,-1.6 -0.4,-1 -0.9,-0.4 -0.4,-0.1 m 66.6,-129.2 -1.4,2.6 2.2,1.6 -0.1,-0.5 0.1,-0.9 0.5,-0.8 0.7,-0.6 0.8,-0.2 0.9,0.2 0.6,0.2 0.6,0.8 0.2,0.8 -0.2,0.9 -0.4,0.8 -0.7,0.6 -0.4,0.1 h -0.7 m -0.6,-6.4 v -0.7 l -0.3,-1.2 5.5,3.1 m -40.8,-145.8 0.7,-0.3 0.3,-0.9 0.1,-0.6 -0.3,-0.9 -0.8,-0.7 -1.5,-0.4 -1.5,-0.1 -1.2,0.2 -0.6,0.6 -0.4,0.8 v 0.3 l 0.2,1 0.6,0.6 0.8,0.4 h 0.3 l 0.9,-0.2 0.7,-0.6 0.4,-0.9 v -0.2 l -0.2,-1 -0.6,-0.6 -0.9,-0.4 m 2.4,5.2 0.3,0.6 0.8,1 -6.3,-0.5 m 139.2,53.5 1,2.8 2.6,-0.5 -0.4,-0.2 -0.5,-0.8 -0.3,-0.8 v -1 l 0.4,-0.7 0.8,-0.6 0.5,-0.2 h 1 l 0.7,0.4 0.6,0.8 0.3,0.9 v 0.9 l -0.2,0.4 -0.5,0.5 m -7.7,-7.4 6.9,0.9 m -5.6,3.1 -1.3,-4 m -54.2,102.5 -0.1,-3 -2.7,-0.2 0.3,0.3 0.3,0.9 v 0.9 l -0.2,0.9 -0.6,0.6 -0.9,0.4 h -0.6 l -0.9,-0.3 -0.6,-0.6 -0.4,-0.9 V 551 l 0.3,-0.9 0.3,-0.3 0.6,-0.3 m 3.8,5.1 0.4,0.6 0.9,0.9 -6.3,0.2 m 6.2,102 -4.1,-3.2 -0.2,4.5 m 4.3,-1.3 -6.3,-0.3 m 4.6,3.4 h 0.3 l 0.6,0.4 0.2,0.3 0.3,0.6 v 1.2 l -0.4,0.6 -0.3,0.3 -0.6,0.2 h -0.6 l -0.6,-0.3 -0.8,-0.7 -2.9,-3.1 -0.2,4.2 m 103.4,-63.7 4.7,2 -1,-4.4 m -3.7,2.4 6.1,-1.4 m -7.1,-2.9 0.5,0.8 1,0.3 h 1.5 l 0.9,-0.2 1.4,-0.6 0.8,-0.8 v -1 l -0.1,-0.6 -0.5,-0.8 -1,-0.4 -1.5,0.1 -0.9,0.2 -1.4,0.6 -0.7,0.8 -0.1,1 0.1,0.4 m -46.4,85.4 -1.3,5 4.2,-1.6 m -2.9,-3.4 2.3,5.9 m 0.7,-5.4 0.4,-0.5 0.5,-1.2 2.3,5.9 m -164.6,-479.6 0.2,0.2 0.2,0.6 v 0.5 l -0.2,0.6 -0.9,0.8 -0.7,0.2 h -0.4 l -0.6,-0.3 -0.4,-0.4 -0.2,-0.7 -0.2,-1 0.2,-4.3 -3.1,2.8 m 2.5,4.4 -0.2,0.6 -0.1,1.3 -4.2,-4.7 m 4.2,74.9 0.3,-0.6 -0.4,-0.9 -0.3,-0.5 -0.8,-0.5 -1.1,0.1 -1.4,0.7 -1.1,0.9 -0.8,1 -0.1,0.9 0.4,0.8 0.1,0.3 0.8,0.5 0.9,0.1 0.9,-0.3 0.2,-0.2 0.5,-0.8 0.1,-0.9 -0.3,-0.9 -0.2,-0.2 -0.8,-0.5 -0.8,-0.1 -0.9,0.3 m 6.8,1.8 2,2.6 -3,0.1 0.6,0.7 0.1,0.6 v 0.4 l -0.5,0.8 -0.5,0.4 -0.9,0.3 -0.8,-0.1 -0.8,-0.5 -0.6,-0.7 -0.3,-0.9 v -0.4 l 0.3,-0.6 m 185.9,15.7 v -0.6 l -0.3,-1.3 5.5,3.1 m -4.3,-5.7 -0.2,0.9 0.5,0.9 1.2,1 0.8,0.5 1.4,0.4 1.1,-0.1 0.7,-0.6 0.3,-0.5 0.2,-1 -0.5,-0.9 -1.2,-1 -0.8,-0.4 -1.4,-0.5 -1.1,0.1 -0.7,0.6 -0.2,0.4 m 3.6,-6.5 4,5.7 m -6.1,-2 2.1,-3.7 m 6.1,-116 -0.6,-0.4 -1.2,-0.3 5.3,-3.3 m -7.1,0.9 0.8,0.6 1.1,0.1 1.4,-0.6 0.8,-0.4 1.1,-1.1 0.4,-1 -0.2,-0.9 -0.3,-0.5 -0.7,-0.6 h -1.1 l -1.5,0.5 -0.7,0.5 -1.1,1 -0.5,1 0.2,0.9 0.3,0.4 m -2.6,-4.2 0.7,0.6 h 0.7 l 0.5,-0.3 0.3,-0.6 v -0.7 l -0.4,-1.2 -0.2,-0.9 0.2,-0.8 0.3,-0.6 0.8,-0.5 h 0.7 l 0.4,0.1 0.7,0.6 0.6,1 0.3,0.9 -0.1,0.4 -0.4,0.6 -0.8,0.5 -0.6,0.1 -0.9,-0.2 -0.7,-0.6 -0.9,-0.9 -0.5,-0.4 -0.7,0.1 -0.5,0.3 -0.4,0.6 0.3,0.9 0.7,1.2 m -186.5,-59.3 0.3,-0.1 0.6,-0.1 0.4,0.1 0.6,0.3 0.7,1 0.1,0.7 -0.1,0.4 -0.3,0.6 -0.5,0.3 -0.7,0.1 h -1.1 l -4.1,-0.9 2.3,3.5 m 6.9,-1 -0.8,-0.6 h -1.1 l -1.4,0.6 -0.7,0.5 -1.1,1.1 -0.4,1 0.2,0.9 0.4,0.5 0.7,0.6 h 1.1 l 1.4,-0.6 0.7,-0.5 1.1,-1.1 0.4,-1 -0.2,-0.9 -0.3,-0.4 m 59.4,-21.1 -0.7,0.1 -1,0.7 1.3,-6.1 m -4.3,5.7 1,-0.1 0.8,-0.8 0.6,-1.4 0.2,-0.8 v -1.6 l -0.4,-1 -0.8,-0.5 -0.6,-0.1 -0.9,0.1 -0.8,0.8 -0.6,1.4 -0.2,0.8 v 1.6 l 0.3,1 0.9,0.5 0.4,0.1 m -6.7,-3.7 0.5,-0.8 0.7,-0.4 1,-0.1 h 0.3 l 0.8,0.5 0.4,0.7 0.1,1 v 0.3 l -0.5,0.8 -0.7,0.4 -1,0.1 h -0.3 l -0.8,-0.5 -0.4,-0.7 -0.1,-1.3 0.4,-1.4 0.6,-1.4 0.8,-0.8 0.9,-0.1 0.6,0.1 0.8,0.5 0.2,0.7 m -123.8,273.8 4.8,1.8 -1.1,-4.4 m -3.7,2.6 6.1,-1.7 m -7.1,-2.3 0.5,0.7 0.7,0.2 0.5,-0.2 0.5,-0.4 0.2,-0.7 -0.1,-1.2 0.1,-1 0.4,-0.7 0.5,-0.5 0.9,-0.2 0.6,0.1 0.4,0.3 0.5,0.7 0.4,1.2 -0.1,1 -0.2,0.3 -0.5,0.5 -0.9,0.2 -0.6,-0.1 -0.8,-0.5 -0.5,-0.7 -0.6,-1.1 -0.4,-0.5 -0.7,-0.2 -0.6,0.2 -0.5,0.4 v 1 l 0.3,1.3 m -167.4,30.5 -4.9,1.5 3.6,2.7 m 1.3,-4.2 -3.8,5 m 8.5,-1.5 -5,1.5 3.6,2.7 m 1.4,-4.2 -3.8,5 m -2,-57.9 -2.2,-4.6 -2.2,3.9 m 4.4,0.7 -5.5,-3 m 2.3,8.9 -4.1,-5.7 m 6.1,2 -2,3.7 m 173.1,-83.3 -1,2.8 2.4,1.2 -0.1,-0.4 v -0.9 l 0.3,-0.9 0.6,-0.7 0.8,-0.4 0.9,0.1 0.6,0.2 0.7,0.5 0.4,0.8 -0.1,1 -0.3,0.8 -0.6,0.8 -0.3,0.1 -0.7,0.1 m -2.4,-8.2 -0.1,1 0.5,0.5 0.5,0.2 0.7,-0.1 0.5,-0.5 0.7,-1 0.6,-0.7 0.8,-0.4 0.6,-0.1 0.9,0.3 0.4,0.5 0.2,0.4 v 1 l -0.4,1.1 -0.6,0.7 -0.4,0.2 -0.7,0.1 -0.8,-0.3 -0.5,-0.5 -0.3,-0.8 V 258 l 0.1,-1.3 -0.1,-0.6 -0.4,-0.5 -0.6,-0.2 -0.6,0.1 -0.6,0.7 -0.5,1.3 m -30.1,-102.7 1.6,-2.6 -2.2,-1.7 0.1,0.4 -0.2,1 -0.4,0.7 -0.8,0.7 -0.8,0.1 -0.9,-0.2 -0.5,-0.3 -0.6,-0.7 -0.2,-0.8 0.2,-1 0.4,-0.7 0.8,-0.6 0.4,-0.1 h 0.7 m -2.3,9.5 -0.6,-0.7 -0.2,-0.9 0.2,-0.9 0.1,-0.3 0.8,-0.6 0.8,-0.2 0.9,0.3 0.3,0.1 0.6,0.7 0.2,0.9 -0.2,0.9 -0.2,0.2 -0.7,0.7 -0.9,0.1 -1.1,-0.3 -1.3,-0.8 -1.1,-1 -0.5,-1 0.2,-1 0.3,-0.5 0.8,-0.6 0.6,0.1 m 29.9,23.9 -0.4,0.5 0.1,0.9 0.3,0.6 0.7,0.7 1,0.1 1.5,-0.4 1.4,-0.6 0.9,-0.8 0.3,-0.8 -0.1,-1 -0.2,-0.3 -0.6,-0.6 -0.8,-0.3 -1,0.1 -0.3,0.1 -0.6,0.7 -0.3,0.8 0.1,1 0.1,0.2 0.7,0.7 0.8,0.3 1,-0.1 m -6.8,-4.4 0.6,0.7 1.1,0.2 1.5,-0.4 0.8,-0.4 1.2,-1 0.6,-0.9 -0.2,-0.9 -0.2,-0.6 -0.7,-0.6 -1.1,-0.2 -1.4,0.4 -0.9,0.4 -1.2,0.9 -0.5,1 0.1,0.9 0.2,0.4 m -144.5,51.2 -6.4,-2.7 m 6.3,-1.5 0.1,4.2 m -0.7,4.8 0.6,-0.3 0.2,-0.9 v -0.6 l -0.3,-0.9 -0.9,-0.6 -1.5,-0.2 h -1.5 l -1.2,0.4 -0.6,0.6 -0.3,0.9 v 0.3 l 0.4,0.9 0.6,0.6 0.9,0.2 h 0.3 l 0.9,-0.3 0.6,-0.6 0.2,-0.9 v -0.3 l -0.3,-0.9 -0.6,-0.6 -0.9,-0.3 m 48,-52 4,-5.7 m 0.1,6.4 -4.1,-0.7 m -5.2,-0.9 4.1,-5.7 m 0.1,6.4 -4.2,-0.7"
       id="nums_005"
       stroke="#000000"
       stroke-width="1" />
    <path
       d="m 2180.7,509.3 23.3,-93.1 -55.3,-41.7 42.1,-76.9 -5,-140.3 110,19.6 30.9,-50.2 45.2,92.7 -30.9,84.6 28.2,103.9 66.6,57.3 10.2,-129.1 -76.4,-95 77.6,-70.8 -71.7,-107.7 196.6,43.6 74.1,119.4 -81.9,148.6 49.6,155.3 31.7,135.1 -130.8,49.1 4.7,-106.5 -3.8,-104.7 -51.7,91.1 31.6,101.9 -167.6,-26 6.2,-75.3 -57.3,-40.4 z"
       id="coupes_005"
       stroke="#ff0000"
       stroke-width="1.27"
       sodipodi:nodetypes="ccccccccccccccccccccccccccccc" />
    <path
       d="m 2272.9,456.6 4,4 m 0,-4 -4,4 m 48.1,18.3 4,4 m 0,-4 -4,4 m -36.4,-72.9 4,4 m 0,-4 -4,4 m 163.3,113.4 4,4 m 0,-4 -4,4 m -35,111.5 4,4 m 0,-4 -4,4 m 60.8,-165 4,4 m 0,-4 -4,4 m 5.1,-68.6 4,4 m 0,-4 -4,4 m 24.3,-68.2 4,4 m 0,-4 -4,4 m 34.9,79.2 4,4 m 0,-4 -4,4 m 24.8,73.7 4,4 m 0,-4 -4,4 m -59.1,-247.8 4,4 m 0,-4 -4,4 m 41,-78.3 4,4 m 0,-4 -4,4 m -37.1,-63.7 4,4 m 0,-4 -4,4 m -237.1,217.9 4,4 m 0,-4 -4,4 m -27.7,-24.8 4,4 m 0,-4 -4,4 m 73.6,-102.8 4,4 m 0,-4 -4,4 m -75.1,-7.3 4,4 m 0,-4 -4,4 m 90.6,-43.1 4,4 m 0,-4 -4,4"
       display="none"
       id="marqueM_005"
       stroke="#a52a2a" />
    <path
       d="m 2435.8,465.2 -158.9,88.6 m 158.9,-88.6 -101.6,129 m 129.8,-0.6 -129.8,0.6 m 279.7,-64.7 -94.4,77.7 m 94.4,-77.7 -99.1,184.2 M 2446,336.1 2447.2,170.3 M 2190.8,297.6 2341,304"
       id="plisV_005"
       stroke="#008000"
       stroke-dasharray="4, 1, 1, 1"
       stroke-width="1.27" />
    <path
       d="m 2354.4,507.5 4,4 m 0,-4 -4,4 m 28.6,16.2 4,4 m 0,-4 -4,4 m 14.1,60.2 4,4 m 0,-4 -4,4 m 167.6,-29.6 4,4 m 0,-4 -4,4 m -2.3,49.3 4,4 m 0,-4 -4,4 m -117.8,-372.4 4,4 m 0,-4 -4,4 m -180.7,43.6 4,4 m 0,-4 -4,4"
       id="marqueV_005"
       stroke="#008000" />
    <path
       d="m 2469.2,422.2 h -7.5 l -0.7,6.8 0.7,-0.8 2.3,-0.7 h 2.2 l 2.3,0.7 1.5,1.5 0.7,2.3 v 1.5 l -0.7,2.2 -1.5,1.5 -2.3,0.8 h -2.2 l -2.3,-0.8 -0.7,-0.7 -0.8,-1.5"
       id="titre_5"
       stroke="#4b0082" />
  </g>
  <g
     id="page_006">
    <path
       d="m 2878.8,232.5 -0.1,0.7 v 1.2 l -4.7,-4.2 m 1,7.3 0.7,0.2 0.8,-0.5 0.4,-0.4 0.4,-0.9 -0.3,-1 -0.9,-1.3 -1.1,-1 -1.1,-0.5 h -0.8 l -0.9,0.5 -0.2,0.2 -0.4,0.9 0.1,0.8 0.5,0.8 0.2,0.2 0.9,0.4 h 0.8 l 0.8,-0.5 0.2,-0.2 0.4,-0.9 v -0.8 l -0.5,-0.9 m 45.2,149.1 -0.6,0.7 -0.8,0.2 -1,-0.1 -0.2,-0.1 -0.7,-0.6 -0.3,-0.8 0.1,-1 0.1,-0.2 0.6,-0.7 0.8,-0.3 1,0.1 0.3,0.1 0.6,0.6 0.3,0.8 -0.2,1.3 -0.6,1.3 -0.9,1.3 -0.9,0.5 -1,-0.1 -0.5,-0.2 -0.7,-0.7 v -0.6 m 9.8,-1.5 -2.7,-1.2 -1.4,2.3 0.4,-0.1 0.9,0.1 0.8,0.3 0.7,0.7 0.3,0.8 -0.1,0.9 -0.2,0.6 -0.7,0.7 -0.8,0.3 -0.9,-0.1 -0.8,-0.4 -0.7,-0.7 -0.2,-0.4 v -0.6 m 164.5,-69.2 0.3,-0.9 0.6,-0.6 1,-0.2 h 0.3 l 0.8,0.4 0.6,0.6 0.2,0.9 v 0.3 l -0.3,0.9 -0.7,0.6 -0.9,0.2 h -0.3 l -0.9,-0.4 -0.5,-0.6 -0.2,-1.2 v -1.5 l 0.4,-1.5 0.7,-0.9 0.9,-0.2 h 0.6 l 0.9,0.4 0.3,0.6 m -6.6,5 0.9,-0.2 0.3,-0.6 0.1,-0.6 -0.3,-0.6 -0.6,-0.4 -1.2,-0.4 -0.8,-0.3 -0.6,-0.6 -0.3,-0.7 0.1,-0.9 0.3,-0.5 0.4,-0.3 0.9,-0.3 1.2,0.1 0.9,0.4 0.2,0.3 0.3,0.6 -0.1,0.9 -0.3,0.6 -0.6,0.5 -1,0.3 -1.2,0.2 -0.6,0.3 -0.3,0.6 -0.1,0.5 0.3,0.7 0.9,0.3 1.3,0.1 m 19.7,38.1 0.1,-0.7 -0.3,-1.2 5.3,3.3 m -3.9,-5.9 -0.3,0.9 0.5,1 1.1,1 0.8,0.5 1.4,0.6 1.1,-0.1 0.7,-0.6 0.3,-0.5 0.2,-0.9 -0.4,-1 -1.1,-1 -0.8,-0.5 -1.4,-0.6 -1.1,0.1 -0.7,0.6 -0.3,0.3 m -86.4,44.4 -0.2,0.9 -0.6,0.7 -0.9,0.3 h -0.3 l -0.9,-0.3 -0.6,-0.5 -0.4,-0.9 v -0.3 l 0.3,-0.9 0.6,-0.7 0.9,-0.3 h 0.3 l 0.9,0.3 0.6,0.5 0.3,1.2 0.1,1.5 -0.3,1.5 -0.5,1 -0.9,0.3 h -0.6 l -0.9,-0.3 -0.3,-0.5 m 7.6,-5.8 -2.8,4.3 4.5,-0.1 m -1.7,-4.2 0.3,6.3 m -76.4,-218 -0.3,0.6 -0.3,1.2 -3.3,-5.3 m -1,8.2 -0.8,-6.9 m 4.3,4.7 -3.5,2.2 m 141.1,104.3 -0.1,1 -0.5,0.7 -0.8,0.4 -0.3,0.1 -1,-0.1 -0.7,-0.5 -0.4,-0.8 -0.1,-0.3 0.1,-1 0.5,-0.7 0.8,-0.4 0.3,-0.1 1,0.1 0.7,0.5 0.5,1.1 0.3,1.5 v 1.5 l -0.5,1 -0.8,0.5 -0.6,0.1 -0.9,-0.1 -0.4,-0.5 m 5.1,-6.5 -0.8,0.5 -0.2,0.6 0.1,0.6 0.4,0.5 0.7,0.2 1.2,0.1 0.9,0.1 0.7,0.5 0.4,0.5 0.2,0.9 -0.2,0.6 -0.2,0.4 -0.8,0.5 -1.2,0.2 -1,-0.1 -0.3,-0.3 -0.4,-0.5 -0.2,-0.9 0.2,-0.7 0.5,-0.7 0.8,-0.4 1.1,-0.5 0.6,-0.4 0.2,-0.7 -0.2,-0.6 -0.4,-0.5 -0.9,-0.1 -1.3,0.2 m 53.6,-54.8 0.8,0.4 0.5,0.7 0.2,1 v 0.2 l -0.5,0.9 -0.6,0.5 -1,0.2 -0.3,-0.1 -0.8,-0.4 -0.5,-0.7 -0.2,-0.9 v -0.3 l 0.5,-0.8 0.7,-0.6 1.2,-0.1 1.5,0.2 1.4,0.5 0.8,0.8 0.2,0.9 -0.1,0.6 -0.4,0.8 -0.7,0.2 m -28.6,-109.3 -0.5,-0.4 -1.3,-0.3 5.5,-3.1 m -6.5,1.7 -1.6,-2.9 3,0.4 -0.4,-0.8 -0.1,-0.7 0.1,-0.4 0.7,-0.7 0.5,-0.3 0.9,-0.1 0.9,0.2 0.7,0.7 0.4,0.7 0.2,1 -0.2,0.4 -0.3,0.5 m -128.5,-23.9 0.3,0.6 1,0.9 -6.3,0.2 m 6.7,4.9 -6.4,-2.7 m 6.2,-1.5 0.2,4.2 m 45.7,-42.9 -0.6,0.3 -0.9,0.8 0.1,-6.3 m -4.9,6.4 3,0.1 0.4,-2.7 -0.3,0.3 -0.9,0.3 h -0.9 l -0.9,-0.3 -0.6,-0.7 -0.3,-0.9 v -0.6 l 0.4,-0.9 0.6,-0.5 0.9,-0.3 h 0.9 l 0.9,0.3 0.3,0.3 0.3,0.6 m -148.9,351.9 0.9,0.2 0.6,0.6 0.4,0.9 v 0.3 l -0.3,0.9 -0.5,0.6 -0.9,0.4 h -0.3 l -0.9,-0.2 -0.7,-0.6 -0.3,-0.9 v -0.3 l 0.2,-0.9 0.6,-0.6 1.2,-0.4 1.5,-0.1 1.5,0.2 0.9,0.6 0.4,0.8 v 0.6 l -0.2,1 -0.6,0.3 m -5.9,-8 0.2,3 2.7,0.1 -0.3,-0.3 -0.4,-0.8 v -0.9 l 0.2,-0.9 0.6,-0.7 0.9,-0.3 0.6,-0.1 0.9,0.3 0.6,0.5 0.4,0.9 v 0.9 l -0.2,0.9 -0.3,0.4 -0.6,0.3 m -98.5,5.6 -0.3,-7 m 4,5 -3.7,2 m -1.5,0.8 -3,1.5 0.5,-2.9 -0.8,0.4 h -0.6 l -0.4,-0.1 -0.7,-0.7 -0.3,-0.5 -0.2,-1 0.3,-0.8 0.7,-0.7 0.7,-0.4 1,-0.1 0.4,0.1 0.5,0.4 m -17.1,55.4 -0.8,-0.6 -0.6,0.1 -0.5,0.4 -0.4,0.6 0.1,0.6 0.5,1.2 0.2,0.9 -0.1,0.8 -0.4,0.6 -0.7,0.5 -0.7,0.1 -0.4,-0.1 -0.7,-0.5 -0.7,-1 -0.3,-0.9 0.1,-0.4 0.3,-0.6 0.8,-0.5 0.6,-0.1 0.9,0.1 0.7,0.6 0.9,0.8 0.6,0.3 0.7,-0.1 0.5,-0.3 0.3,-0.6 -0.2,-0.9 -0.8,-1.1 m 3.1,4.5 -0.8,-0.5 -0.6,0.1 -0.5,0.3 -0.3,0.6 0.1,0.6 0.4,1.2 0.2,0.9 -0.1,0.8 -0.3,0.6 -0.8,0.5 -0.6,0.1 h -0.5 l -0.7,-0.6 -0.7,-1 -0.3,-0.9 0.1,-0.4 0.3,-0.6 0.8,-0.5 0.7,-0.1 0.8,0.1 0.7,0.6 1,0.8 0.6,0.4 0.6,-0.1 0.5,-0.4 0.3,-0.6 -0.2,-0.9 -0.8,-1.1 m 177.6,11.6 0.6,-0.6 0.8,-0.3 1,0.1 0.3,0.2 0.6,0.6 0.3,0.8 -0.1,1 -0.2,0.2 -0.6,0.7 -0.8,0.3 -1,-0.1 -0.2,-0.2 -0.7,-0.6 -0.3,-0.9 0.3,-1.2 0.6,-1.3 1,-1.2 0.9,-0.6 1,0.2 0.5,0.2 0.7,0.7 v 0.7 m -9.5,1.4 4.5,-2.5 -4,-2 m -0.5,4.5 2.8,-5.7 m 17,145.3 3,1.1 -2.5,1.6 0.8,0.4 0.5,0.5 0.2,0.3 -0.1,1 -0.2,0.5 -0.6,0.8 -0.8,0.3 h -0.9 l -0.9,-0.3 -0.7,-0.7 -0.2,-0.3 v -0.7 m 9.8,-0.7 V 626 l -0.8,-0.6 -0.5,-0.2 h -1 l -0.9,0.6 -0.8,1.3 -0.5,1.4 -0.2,1.2 0.4,0.8 0.7,0.6 0.3,0.1 h 0.9 l 0.8,-0.3 0.6,-0.7 0.1,-0.3 0.1,-1 -0.4,-0.7 -0.7,-0.6 -0.3,-0.2 h -0.9 l -0.8,0.3 -0.6,0.8 m 87.8,-91.2 0.7,-0.6 0.8,-0.3 0.9,0.2 0.3,0.1 0.6,0.7 0.3,0.8 -0.2,0.9 -0.1,0.3 -0.7,0.7 -0.8,0.2 -0.9,-0.1 -0.3,-0.2 -0.7,-0.7 -0.2,-0.8 0.3,-1.2 0.7,-1.3 0.9,-1.2 1,-0.5 0.9,0.1 0.6,0.3 0.6,0.7 v 0.7 m -9.5,0.1 v 0.6 l 0.7,0.7 0.5,0.3 0.9,0.2 1,-0.6 0.9,-1.1 0.7,-1.4 0.3,-1.2 -0.2,-0.8 -0.7,-0.7 -0.2,-0.1 -1,-0.2 -0.8,0.3 -0.7,0.6 -0.1,0.3 -0.2,0.9 0.3,0.8 0.6,0.7 0.3,0.2 0.9,0.1 0.9,-0.2 0.6,-0.7 m 46.8,99 0.9,0.2 0.6,0.6 0.4,0.9 v 0.3 l -0.3,0.9 -0.6,0.6 -0.9,0.4 h -0.3 l -0.9,-0.3 -0.6,-0.6 -0.3,-0.9 v -0.3 l 0.2,-0.9 0.6,-0.6 1.2,-0.3 1.5,-0.1 1.5,0.3 0.9,0.5 0.3,0.9 0.1,0.6 -0.3,0.9 -0.6,0.4 m -4.1,-5.2 h -0.3 l -0.6,-0.3 -0.3,-0.2 -0.3,-0.6 v -1.2 l 0.3,-0.6 0.3,-0.4 0.5,-0.3 h 0.6 l 0.7,0.3 0.9,0.6 3.1,2.9 -0.2,-4.2 m -43.1,41.8 2.9,1.7 -2.8,1.1 0.8,0.5 0.3,0.6 0.1,0.4 -0.2,0.9 -0.3,0.5 -0.7,0.6 -0.8,0.2 -0.9,-0.2 -0.8,-0.4 -0.6,-0.7 -0.1,-0.4 v -0.7 m 10.7,0.4 -5.8,3.9 m 2.2,-6 3.6,2.1 m -208.5,-27.3 2.6,-2.1 0.1,3 0.7,-0.5 0.6,-0.2 0.5,0.1 0.8,0.5 0.3,0.4 0.4,0.9 -0.1,0.9 -0.5,0.8 -0.7,0.5 -0.9,0.4 -0.4,-0.1 -0.6,-0.2 m 3.7,-9.6 -2.4,1.9 1.5,2.2 0.1,-0.4 0.5,-0.8 0.7,-0.6 0.9,-0.3 0.8,0.1 0.8,0.5 0.4,0.5 0.3,0.9 -0.1,0.8 -0.5,0.8 -0.7,0.6 -0.9,0.3 h -0.4 l -0.6,-0.3 m -87,-81.6 -1.1,3.1 -1.6,-2.6 -0.3,0.9 -0.5,0.4 -0.4,0.2 h -1 l -0.5,-0.2 -0.8,-0.6 -0.3,-0.8 v -1 l 0.3,-0.8 0.6,-0.7 0.4,-0.2 0.7,-0.1 m 2.7,7.4 -1.2,3.1 -1.6,-2.6 -0.3,0.9 -0.5,0.4 -0.4,0.2 h -0.9 l -0.6,-0.2 -0.7,-0.6 -0.4,-0.8 v -1 l 0.4,-0.8 0.6,-0.7 0.3,-0.2 0.7,-0.1 m 15.6,75.7 2.4,2.3 -3,0.5 0.7,0.6 0.2,0.7 v 0.4 l -0.4,0.8 -0.4,0.5 -0.8,0.4 -0.9,0.1 -0.9,-0.4 -0.6,-0.7 -0.5,-0.8 v -0.4 l 0.2,-0.7 m 9.7,2.1 -5,1 3.2,3.1 m 1.8,-4.1 -4.3,4.6 m 33,-317.2 0.4,-0.5 v -0.9 l -0.2,-0.6 -0.5,-0.7 -1.1,-0.3 -1.5,0.2 -1.4,0.4 -1.1,0.7 -0.3,0.8 v 0.9 l 0.1,0.3 0.5,0.8 0.8,0.3 h 0.9 l 0.3,-0.1 0.8,-0.5 0.4,-0.8 v -0.9 l -0.1,-0.3 -0.6,-0.8 -0.8,-0.4 h -0.9 m -27,-103 -6.9,-1.2 m 5.7,-2.9 1.2,4.1 m 10.6,-10.6 0.8,0.4 0.6,-0.2 0.5,-0.4 0.2,-0.6 -0.2,-0.7 -0.6,-1 -0.4,-0.9 v -0.8 l 0.2,-0.7 0.7,-0.6 0.6,-0.2 h 0.4 l 0.9,0.5 0.8,0.8 0.4,0.9 v 0.4 l -0.2,0.6 -0.7,0.7 -0.6,0.2 h -0.9 l -0.8,-0.5 -1,-0.7 -0.7,-0.2 -0.6,0.2 -0.4,0.4 -0.3,0.7 0.4,0.8 1,1"
       id="nums_006"
       stroke="#000000"
       stroke-width="1" />
    <path
       d="m 2731.2,434.4 96.6,-50.7 -30,-89.7 -34.6,-122 83,86.5 50.1,-55.6 82.6,-50.6 -3.4,-96.9 104.1,2.3 69.8,126.9 -14.5,101.8 -104,19.7 105.6,6.7 -54.3,86.5 -128.5,4.5 -70,-32.1 4.5,76.8 115.2,57.2 97.2,51.4 4.4,150.6 -95.3,-56.5 -98.2,-38 -92,75 -71.8,-67.9 39.2,-104.6 z"
       id="coupes_006"
       stroke="#ff0000"
       stroke-width="1.27"
       sodipodi:nodetypes="cccccccccccccccccccccccccc" />
    <path
       d="m 2862.9,313.1 4,4 m 0,-4 -4,4 m -9.1,58.6 4,4 m 0,-4 -4,4 m 34.2,-94.4 4,4 m 0,-4 -4,4 m 67.3,47.6 4,4 m 0,-4 -4,4 m 87.8,15.4 4,4 m 0,-4 -4,4 m 11.8,-143 4,4 m 0,-4 -4,4 m 7.3,-54.9 4,4 m 0,-4 -4,4 m -34.9,-67.4 4,4 m 0,-4 -4,4 m -221.9,340.7 4,4 m 0,-4 -4,4 m 30.2,28.4 4,4 m 0,-4 -4,4 m 119.8,73.4 4,4 m 0,-4 -4,4 m -108.2,0.9 4,4 m 0,-4 -4,4 m 157.3,10 4,4 m 0,-4 -4,4 m 48.6,21.7 4,4 m 0,-4 -4,4 M 2820,274.3 l 4,4 m 0,-4 -4,4"
       display="none"
       id="marqueM_006"
       stroke="#a52a2a" />
    <path
       d="m 2827.8,383.7 18.4,-125.2 m 50.1,-55.6 134.6,103.2 m 0,0 -77.2,97.7 m 25.2,-251.5 52,153.8 m -142.7,142.4 -60.4,-64.8 m 175.6,122 -216.5,10 m 32.6,172.5 -32.6,-172.5"
       id="plisV_006"
       stroke="#008000"
       stroke-dasharray="4, 1, 1, 1"
       stroke-width="1.27" />
    <path
       d="m 2835,319.1 4,4 m 0,-4 -4,4 m 126.6,-70.6 4,4 m 0,-4 -4,4 m 28.7,96.5 4,4 m 0,-4 -4,4 m 12.6,-129.8 4,4 m 0,-4 -4,4 m -146.9,182.9 4,4 m 0,-4 -4,4 m 37.1,90.6 4,4 m 0,-4 -4,4 m -91.9,87.2 4,4 m 0,-4 -4,4"
       id="marqueV_006"
       stroke="#008000" />
    <path
       d="m 2959.9,350.4 -0.8,-1.5 -2.2,-0.7 h -1.5 l -2.3,0.7 -1.5,2.3 -0.7,3.7 v 3.8 l 0.7,3 1.5,1.5 2.3,0.7 h 0.7 l 2.3,-0.7 1.5,-1.5 0.7,-2.3 v -0.7 l -0.7,-2.3 -1.5,-1.5 -2.3,-0.7 h -0.7 l -2.3,0.7 -1.5,1.5 -0.7,2.3"
       id="titre_6"
       stroke="#4b0082" />
  </g>
  <g
     id="page_007">
    <path
       d="m 3354.1,295.7 -0.6,0.3 -0.8,1 -0.5,-6.3 m -1.3,5.1 0.1,0.3 -0.3,0.7 -0.3,0.3 -0.5,0.3 -1.2,0.1 -0.7,-0.2 -0.3,-0.3 -0.3,-0.6 -0.1,-0.6 0.3,-0.6 0.5,-1 2.8,-3.2 -4.2,0.3 m -81.6,26 -0.4,0.6 -0.3,1.2 -3.2,-5.5 m -12,110 -0.4,-2.9 h -2.7 l 0.3,0.3 0.5,0.8 0.1,0.9 -0.2,1 -0.5,0.6 -0.9,0.5 h -0.6 l -0.9,-0.1 -0.7,-0.6 -0.4,-0.8 -0.1,-0.9 0.2,-0.9 0.2,-0.4 0.6,-0.3 m 58.9,209.5 V 630 l 0.5,-0.5 0.4,-0.2 0.6,-0.1 1.2,0.3 0.5,0.4 0.2,0.4 0.1,0.7 -0.1,0.5 -0.5,0.5 -0.8,0.8 -3.7,2.1 4.1,1.1 m 4.5,-5.4 -1,0.1 -0.8,0.7 -0.7,1.4 -0.2,0.8 -0.1,1.6 0.4,1 0.7,0.5 0.6,0.2 1,-0.1 0.8,-0.7 0.7,-1.4 0.2,-0.8 0.1,-1.6 -0.4,-1 -0.7,-0.5 -0.5,-0.1 M 3255.5,565 h 0.3 l 0.5,0.3 0.3,0.4 0.2,0.6 -0.1,1.2 -0.3,0.6 -0.4,0.2 -0.6,0.3 -0.6,-0.1 -0.6,-0.4 -0.8,-0.6 -2.7,-3.3 -0.4,4.2 m 4.8,1.5 0.2,0.6 0.8,1 -6.3,-0.6 m 176.6,-75.3 -0.3,-0.1 -0.6,-0.3 -0.3,-0.4 -0.2,-0.6 0.1,-1.2 0.4,-0.6 0.3,-0.2 0.7,-0.3 0.5,0.1 0.6,0.4 0.8,0.7 2.7,3.3 0.5,-4.2 M 3427,490 h -0.3 l -0.6,-0.4 -0.3,-0.3 -0.2,-0.6 0.1,-1.2 0.4,-0.6 0.3,-0.3 0.7,-0.2 0.6,0.1 0.5,0.3 0.9,0.7 2.6,3.4 0.5,-4.2 m -15,-122.8 -0.5,-0.6 -1,-0.6 6.1,-1.4 m -6.9,-1.2 0.5,0.8 0.6,0.2 0.6,-0.1 0.5,-0.5 0.2,-0.6 v -1.3 l 0.1,-0.9 0.5,-0.7 0.5,-0.4 0.9,-0.2 0.6,0.1 0.4,0.2 0.5,0.9 0.2,1.1 -0.1,1 -0.2,0.3 -0.5,0.5 -0.9,0.2 -0.6,-0.2 -0.8,-0.5 -0.5,-0.8 -0.5,-1.1 -0.4,-0.5 -0.7,-0.2 -0.6,0.2 -0.5,0.4 -0.1,0.9 0.3,1.4 m 29.2,299.7 0.1,-0.3 0.4,-0.5 0.3,-0.3 0.6,-0.2 1.2,0.2 0.6,0.4 0.2,0.4 0.2,0.6 -0.1,0.6 -0.4,0.5 -0.7,0.8 -3.4,2.5 4.1,0.7 m 2.7,-6 3.3,0.6 -2.2,2 0.9,0.2 0.6,0.4 0.2,0.3 0.2,1 -0.1,0.6 -0.5,0.8 -0.7,0.5 -0.9,0.1 -0.9,-0.1 -0.8,-0.4 -0.3,-0.4 -0.2,-0.6 m 3.4,-173.6 0.3,0.1 0.5,0.5 0.2,0.3 0.1,0.7 -0.4,1.1 -0.4,0.5 -0.4,0.2 -0.7,0.1 -0.5,-0.1 -0.5,-0.5 -0.7,-0.8 -2,-3.8 -1.2,4.1 m 4.1,2.9 0.3,0.1 0.5,0.5 0.2,0.4 0.1,0.6 -0.4,1.2 -0.4,0.5 -0.4,0.2 -0.7,0.1 -0.5,-0.2 -0.5,-0.5 -0.7,-0.8 -2,-3.7 -1.2,4 m 131.2,18.8 v -0.6 l -0.3,-1.3 5.4,3.2 m -1.2,-6.6 0.6,0.7 0.2,0.9 -0.2,0.9 -0.1,0.2 -0.7,0.7 -0.8,0.2 -1,-0.2 -0.2,-0.2 -0.7,-0.7 -0.2,-0.8 0.2,-0.9 0.2,-0.3 0.7,-0.6 0.8,-0.2 1.2,0.3 1.3,0.8 1.1,1 0.5,1 -0.2,0.9 -0.3,0.5 -0.7,0.6 h -0.7 m 30,-107.2 0.2,0.9 0.6,0.4 0.6,0.1 0.6,-0.3 0.4,-0.5 0.4,-1.2 0.4,-0.8 0.7,-0.6 0.6,-0.2 0.9,0.1 0.5,0.4 0.3,0.3 0.2,0.9 -0.1,1.2 -0.4,0.9 -0.4,0.2 -0.6,0.3 -0.9,-0.1 -0.5,-0.4 -0.6,-0.7 -0.2,-0.9 -0.1,-1.2 -0.3,-0.6 -0.5,-0.4 -0.6,-0.1 -0.6,0.2 -0.5,0.9 -0.1,1.3 m -147.6,-52.3 0.3,0.6 1,0.8 -6.3,0.4 m 6.6,2.3 -0.3,-0.9 -0.6,-0.3 -0.6,0.1 -0.6,0.3 -0.3,0.6 -0.2,1.2 -0.2,0.9 -0.6,0.7 -0.6,0.3 -0.9,0.1 -0.6,-0.3 -0.3,-0.3 -0.4,-0.9 v -1.2 l 0.2,-0.9 0.3,-0.3 0.6,-0.3 0.9,-0.1 0.6,0.3 0.6,0.5 0.4,0.9 0.3,1.2 0.4,0.6 0.6,0.3 0.6,-0.1 0.6,-0.3 0.2,-0.9 -0.1,-1.4 m 167.5,-63.6 -0.6,0.2 -1.1,0.8 1.1,-6.2 m -5.8,5.6 3,0.5 0.7,-2.6 -0.3,0.2 -1,0.2 -0.9,-0.2 -0.8,-0.4 -0.5,-0.7 -0.1,-1 0.1,-0.6 0.4,-0.8 0.7,-0.5 1,-0.1 0.8,0.1 0.9,0.5 0.2,0.3 0.2,0.7 m 15.8,28.4 0.2,-0.7 0.1,-1.2 4.3,4.6 m -0.4,-7.4 -0.6,-0.2 -0.9,0.4 -0.4,0.4 -0.5,0.8 0.2,1.1 0.8,1.3 1,1.1 1.1,0.7 h 0.8 l 0.9,-0.4 0.2,-0.2 0.4,-0.8 0.1,-0.9 -0.4,-0.8 -0.2,-0.2 -0.8,-0.5 h -0.9 l -0.9,0.4 -0.2,0.2 -0.4,0.8 -0.1,0.8 0.4,0.9 m -184.9,-105.6 0.2,0.7 0.8,0.9 -6.2,-0.5 m 5,1.5 0.2,0.6 0.8,1 -6.2,-0.5 m 118.5,-7.7 -0.2,-0.6 -0.8,-1 6.2,0.6 m -6.3,-2.4 0.4,-3.3 2.2,2.1 0.1,-0.9 0.3,-0.6 0.3,-0.3 1,-0.2 0.6,0.1 0.8,0.4 0.6,0.6 0.2,0.9 -0.1,0.9 -0.4,0.9 -0.3,0.3 -0.6,0.2 m 25.1,397.6 0.9,0.2 0.6,-0.3 0.3,-0.5 v -0.7 l -0.3,-0.6 -0.9,-0.8 -0.6,-0.8 -0.2,-0.8 0.1,-0.7 0.5,-0.7 0.5,-0.4 0.5,-0.1 0.9,0.2 1,0.7 0.6,0.7 0.1,0.4 -0.1,0.7 -0.4,0.7 -0.6,0.4 -0.8,0.2 -1,-0.2 -1.1,-0.4 -0.7,-0.1 -0.6,0.4 -0.3,0.5 -0.1,0.7 0.7,0.7 1.1,0.7 m -6.8,-4.2 5.8,-3.8 m -2.3,6 -3.5,-2.2 m 13.6,87.4 -1,0.1 -0.4,0.5 -0.1,0.6 0.2,0.6 0.5,0.5 1.1,0.5 0.8,0.5 0.4,0.7 0.2,0.7 -0.2,0.9 -0.4,0.5 -0.4,0.2 -0.9,0.1 -1.2,-0.3 -0.8,-0.5 -0.2,-0.3 -0.2,-0.7 0.2,-0.8 0.4,-0.6 0.7,-0.4 1,-0.1 h 1.2 l 0.7,-0.2 0.4,-0.5 0.1,-0.6 -0.1,-0.6 -0.8,-0.5 -1.4,-0.3 m 7.3,2.5 -0.2,-0.6 -0.8,-0.5 -0.6,-0.2 -0.9,0.1 -0.8,0.8 -0.6,1.4 -0.4,1.4 v 1.3 l 0.5,0.7 0.8,0.5 0.3,0.1 0.9,-0.1 0.8,-0.5 0.5,-0.8 v -0.3 l -0.1,-0.9 -0.4,-0.8 -0.8,-0.4 -0.3,-0.1 -1,0.1 -0.7,0.4 -0.5,0.8 m 60,-13.2 0.7,0.7 h 0.7 l 0.5,-0.2 0.4,-0.6 v -0.6 l -0.2,-1.3 -0.1,-0.9 0.3,-0.8 0.4,-0.5 0.8,-0.4 h 0.6 l 0.4,0.1 0.7,0.7 0.5,1.1 0.1,0.9 -0.1,0.4 -0.4,0.6 -0.8,0.4 -0.7,-0.1 -0.8,-0.2 -0.6,-0.7 -0.8,-1 -0.6,-0.4 h -0.6 l -0.6,0.3 -0.4,0.5 0.1,0.9 0.6,1.3 m -3.3,-6.9 1.3,2.7 2.6,-0.9 -0.4,-0.1 -0.7,-0.7 -0.4,-0.8 -0.1,-0.9 0.3,-0.8 0.7,-0.7 0.5,-0.3 1,-0.1 0.8,0.3 0.6,0.7 0.4,0.8 0.1,0.9 -0.1,0.4 -0.4,0.6 m -68.1,-603.6 0.5,-0.8 0.7,-0.5 0.9,-0.1 h 0.3 l 0.9,0.5 0.4,0.7 0.1,1 v 0.3 l -0.5,0.8 -0.7,0.5 -1,0.1 -0.3,-0.1 -0.8,-0.5 -0.4,-0.7 -0.1,-1.2 0.3,-1.5 0.6,-1.4 0.8,-0.8 0.9,-0.1 0.6,0.2 0.8,0.4 0.2,0.7 m -9.1,2.7 0.2,0.6 0.8,0.5 0.6,0.1 0.9,-0.1 0.8,-0.7 0.6,-1.4 0.3,-1.5 v -1.2 l -0.5,-0.8 -0.8,-0.4 -0.3,-0.1 -1,0.1 -0.7,0.5 -0.4,0.8 -0.1,0.3 0.1,0.9 0.5,0.7 0.8,0.5 0.3,0.1 0.9,-0.1 0.7,-0.5 0.5,-0.8 m 32.2,81.6 -0.7,0.7 -0.7,0.3 -1,-0.1 -0.3,-0.1 -0.7,-0.6 -0.3,-0.8 0.1,-1 0.1,-0.2 0.7,-0.7 0.8,-0.3 h 0.9 l 0.3,0.2 0.7,0.6 0.3,0.8 -0.2,1.2 -0.6,1.4 -0.9,1.2 -0.9,0.6 -1,-0.1 -0.5,-0.2 -0.7,-0.7 v -0.6 m 31.6,-20.7 -0.4,-0.5 -1.1,-0.7 6.2,-1.3 m -7,-1.6 0.5,0.8 1,0.5 1.5,-0.1 0.9,-0.1 1.4,-0.6 0.8,-0.8 0.1,-0.9 -0.1,-0.6 -0.5,-0.9 -1,-0.4 h -1.5 l -0.9,0.2 -1.4,0.6 -0.8,0.8 -0.1,0.9 0.1,0.5 m -191.6,-82.9 0.5,-0.8 0.7,-0.5 0.9,-0.1 h 0.3 l 0.8,0.5 0.5,0.7 0.1,0.9 v 0.3 l -0.5,0.9 -0.7,0.4 -0.9,0.2 -0.3,-0.1 -0.8,-0.5 -0.5,-0.7 -0.1,-1.2 0.3,-1.5 0.6,-1.4 0.7,-0.8 1,-0.1 0.6,0.1 0.8,0.5 0.2,0.6 m -9.7,3.7 4.1,-5.6 m 0,6.4 -4.1,-0.8 m -45.5,63.1 0.7,0.2 1.3,-0.1 -4,4.9 m 7.5,-2.4 -5,1.3 3.5,2.9 m 1.5,-4.2 -4,4.8 m -28.6,-63.1 -0.5,3.3 -2.1,-2.2 -0.2,0.9 -0.4,0.5 -0.3,0.3 -0.9,0.1 h -0.6 l -0.9,-0.5 -0.5,-0.7 -0.1,-0.9 0.1,-0.9 0.5,-0.8 0.3,-0.3 0.6,-0.2"
       id="nums_007"
       stroke="#000000"
       stroke-width="1" />
    <path
       d="m 3427.1,550 33.8,-112.8 -8.9,-151 11.7,-135.1 -78.9,-64.1 9.9,-62 163.5,31.3 107.6,22.5 20.6,100 -94.2,-41.4 -14,144.2 102.6,17.5 -54.9,50.9 -13.8,119.1 -57.1,96.9 106.5,66.1 42.3,88 -176.1,-39.9 -159.6,-25.4 -125,-33.4 10.4,-104.5 -25.2,-186.4 64.6,-37 113.4,-8.7 33.6,147.8 z"
       id="coupes_007"
       stroke="#ff0000"
       stroke-width="1.27"
       sodipodi:nodetypes="cccccccccccccccccccccccccc" />
    <path
       d="m 3369.8,391.7 4,4 m 0,-4 -4,4 m -56.6,0.3 4,4 m 0,-4 -4,4 m -19.8,107.7 4,4 m 0,-4 -4,4 m 57.3,64.9 4,4 m 0,-4 -4,4 m 44.9,19.8 4,4 m 0,-4 -4,4 m -15.3,-80.2 4,4 m 0,-4 -4,4 m 95.1,84.9 4,4 m 0,-4 -4,4 m 13.7,-61.1 4,4 m 0,-4 -4,4 m 50.3,61.1 4,4 m 0,-4 -4,4 m -33.4,-125.5 4,4 m 0,-4 -4,4 m 35.4,-112 4,4 m 0,-4 -4,4 m -22.5,-181.3 4,4 m 0,-4 -4,4 m 7,-76.1 4,4 m 0,-4 -4,4 m -17,-44.5 4,4 m 0,-4 -4,4 m 64.3,-10.8 4,4 m 0,-4 -4,4 m -146,-12.9 4,4 m 0,-4 -4,4"
       display="none"
       id="marqueM_007"
       stroke="#a52a2a" />
    <path
       d="m 3337.4,502.5 -109.1,-172 m 139.8,324.3 -114.6,-137.9 m 83.9,-14.4 102.7,-69.6 m 20.8,4.3 151.2,31.9 M 3452,286.2 3625.9,350 m -173.9,-63.8 126.2,-4.6 m 0,0 47.7,68.4 m 35.6,282.1 -133.8,48.1 m 138.1,-601.4 -73.6,58.6"
       id="plisV_007"
       stroke="#008000"
       stroke-dasharray="4, 1, 1, 1"
       stroke-width="1.27" />
    <path
       d="m 3280.9,414.5 4,4 m 0,-4 -4,4 m 27.9,165.3 4,4 m 0,-4 -4,4 m 78,-122.1 4,4 m 0,-4 -4,4 m 147.7,-18.6 4,4 m 0,-4 -4,4 m 2.5,-139 4,4 m 0,-4 -4,4 m -23.9,-38.2 4,4 m 0,-4 -4,4 m 87,27.9 4,4 m 0,-4 -4,4 m -7.5,336.3 4,4 m 0,-4 -4,4 m 34.4,-552 4,4 m 0,-4 -4,4"
       id="marqueV_007"
       stroke="#008000" />
    <path
       d="m 3517.7,345.4 -7.5,15.8 m -3,-15.8 h 10.5"
       id="titre_7"
       stroke="#4b0082" />
  </g>
  <g
     id="page_008">
    <path
       d="m 3827.6,56.4 -0.3,-0.9 0.2,-0.9 0.5,-0.7 0.3,-0.2 0.9,-0.3 0.8,0.2 0.8,0.5 0.2,0.3 0.2,0.9 -0.1,0.8 -0.6,0.8 -0.2,0.2 -0.9,0.2 -0.9,-0.1 -0.9,-0.8 -0.9,-1.3 -0.6,-1.4 v -1.1 l 0.6,-0.7 0.5,-0.4 0.9,-0.2 0.6,0.3 m -5.3,7.6 -0.2,-0.9 0.1,-0.8 0.6,-0.8 0.2,-0.1 1,-0.3 0.8,0.2 0.7,0.5 0.2,0.3 0.3,0.9 -0.2,0.8 -0.5,0.8 -0.3,0.1 -0.9,0.3 -0.8,-0.1 -1,-0.9 -0.8,-1.2 -0.6,-1.4 v -1.1 l 0.5,-0.7 0.5,-0.4 0.9,-0.2 0.6,0.3 m -30.6,116.1 0.5,0.5 1.1,0.6 -6.1,1.6 m 7,1.2 -0.5,-0.8 -1,-0.3 -1.5,0.1 -0.9,0.2 -1.4,0.7 -0.7,0.8 -0.1,0.9 0.2,0.6 0.5,0.8 1,0.3 1.6,-0.1 0.8,-0.2 1.4,-0.7 0.7,-0.8 0.1,-0.9 -0.1,-0.4 m 1.3,5 -0.5,-0.8 -1,-0.4 -1.6,0.1 -0.8,0.3 -1.4,0.6 -0.7,0.8 -0.1,1 0.2,0.6 0.5,0.8 1,0.3 1.5,-0.1 0.9,-0.2 1.4,-0.7 0.7,-0.8 v -0.9 l -0.1,-0.5 m 236,-65.4 -0.3,-0.6 -0.9,-1 6.3,0.2 m -6.4,-3.1 0.3,0.9 0.9,0.6 1.5,0.4 h 0.9 l 1.5,-0.3 0.9,-0.6 0.3,-0.9 v -0.6 l -0.2,-0.9 -0.9,-0.6 -1.5,-0.3 h -0.9 l -1.5,0.2 -0.9,0.6 -0.4,0.9 v 0.4 m 0.2,-7.4 6.2,3.2 m -6.3,1 0.1,-4.2 m -70,-76.3 3,0.2 0.5,-2.7 -0.3,0.3 -0.9,0.3 -0.9,-0.1 -0.9,-0.4 -0.6,-0.6 -0.2,-0.9 v -0.6 l 0.4,-0.9 0.6,-0.6 1,-0.2 0.8,0.1 0.9,0.3 0.3,0.3 0.3,0.7 m -9.8,4.4 3.5,-6.1 m 0.7,6.4 -4.2,-0.3 m 105.1,240.7 -0.5,-0.4 -1.2,-0.5 5.9,-2.5 m -7.2,-0.2 0.6,0.7 1.1,0.3 1.5,-0.4 0.8,-0.3 1.3,-0.9 0.6,-0.9 -0.1,-0.9 -0.2,-0.6 -0.6,-0.7 -1.1,-0.2 -1.5,0.3 -0.8,0.4 -1.3,0.8 -0.6,0.9 0.1,1 0.1,0.4 m -1.8,-4.5 0.6,0.7 h 0.6 l 0.6,-0.2 0.4,-0.5 0.1,-0.7 -0.2,-1.2 -0.1,-0.9 0.3,-0.8 0.5,-0.5 0.8,-0.4 0.7,0.1 0.4,0.1 0.6,0.7 0.5,1.1 v 1 l -0.1,0.4 -0.5,0.5 -0.8,0.3 h -0.7 l -0.8,-0.3 -0.6,-0.7 -0.7,-1 -0.5,-0.5 h -0.7 l -0.5,0.2 -0.5,0.5 0.1,1 0.5,1.2 m -17.4,272.8 0.2,-0.6 0.1,-1.3 4.4,4.5 m -2.5,-6.7 -0.4,0.8 0.2,1.1 0.8,1.3 0.7,0.6 1.2,0.9 1.1,0.2 0.8,-0.4 0.5,-0.4 0.4,-0.9 -0.2,-1 -0.8,-1.3 -0.7,-0.7 -1.2,-0.8 -1.1,-0.3 -0.9,0.5 -0.3,0.3 m 4.7,-4.7 0.8,5.1 3.2,-3.1 m -4,-2 4.4,4.6 m -254.8,-142.3 0.2,0.6 0.7,1.1 -6.2,-1.2 m 5.9,4.1 -0.2,-0.9 -0.7,-0.8 -1.5,-0.5 -0.8,-0.2 h -1.6 l -1,0.4 -0.4,0.9 -0.1,0.6 0.1,0.9 0.8,0.7 1.4,0.6 0.9,0.2 h 1.5 l 1,-0.4 0.4,-0.9 0.1,-0.4 m -0.7,3.9 -0.6,3.2 -2,-2.2 -0.2,0.9 -0.4,0.5 -0.4,0.3 -0.9,0.1 -0.6,-0.1 -0.8,-0.5 -0.5,-0.7 -0.1,-0.9 0.1,-0.9 0.5,-0.8 0.3,-0.3 0.7,-0.1 m 6.3,162.6 0.5,0.4 1.3,0.3 -5.4,3.2 m 7.1,-0.8 -0.7,-0.6 -1.1,-0.1 -1.5,0.5 -0.7,0.5 -1.2,1 -0.4,1 0.2,0.9 0.3,0.5 0.7,0.7 h 1.1 l 1.4,-0.5 0.8,-0.5 1.1,-1 0.5,-1 -0.2,-0.9 -0.2,-0.4 m 2.8,6.5 0.4,-0.6 -0.2,-0.9 -0.3,-0.5 -0.8,-0.7 h -1 l -1.5,0.5 -1.3,0.8 -0.8,0.9 -0.2,0.8 0.2,0.9 0.1,0.3 0.7,0.6 0.9,0.2 0.9,-0.2 0.2,-0.2 0.7,-0.7 0.2,-0.8 -0.2,-0.9 -0.2,-0.3 -0.7,-0.6 -0.8,-0.2 -1,0.2 m 28.6,160.5 -0.9,0.4 -0.2,0.6 0.1,0.6 0.3,0.5 0.7,0.3 1.2,0.1 0.9,0.2 0.7,0.5 0.3,0.6 0.2,0.9 -0.3,0.6 -0.2,0.4 -0.9,0.4 -1.2,0.1 -0.9,-0.2 -0.3,-0.2 -0.4,-0.6 -0.1,-0.9 0.2,-0.6 0.5,-0.7 0.9,-0.4 1.1,-0.4 0.6,-0.4 0.2,-0.6 v -0.6 l -0.4,-0.6 -0.9,-0.2 -1.4,0.2 m 7.1,-1 -2.5,4.6 4.5,-0.6 m -2,-4 0.8,6.3 M 3800.2,674 v 0.7 l 0.4,1.2 -5.6,-3 m 4.4,5.7 0.1,-0.9 -0.5,-1 -1.2,-1 -0.8,-0.4 -1.4,-0.4 -1.1,0.1 -0.7,0.6 -0.3,0.5 -0.1,1 0.5,0.9 1.2,1 0.8,0.4 1.4,0.5 1.1,-0.1 0.7,-0.7 0.2,-0.4 m -3.3,6.2 1.4,-2.7 -2.2,-1.5 0.1,0.4 -0.2,0.9 -0.4,0.8 -0.7,0.7 -0.8,0.2 -0.9,-0.1 -0.6,-0.3 -0.6,-0.7 -0.3,-0.8 0.2,-1 0.4,-0.8 0.7,-0.6 0.4,-0.1 h 0.7 m 250.1,-33.6 -0.5,-0.3 -1.3,-0.3 5.3,-3.4 m -4.9,1.9 -0.6,-0.4 -1.2,-0.2 5.3,-3.5 m -7.1,1.1 0.7,0.6 h 1.1 l 1.4,-0.5 0.8,-0.5 1.1,-1.1 0.4,-1 -0.2,-0.9 -0.4,-0.5 -0.7,-0.6 h -1.1 l -1.4,0.6 -0.8,0.5 -1,1 -0.5,1 0.3,0.9 0.2,0.4 m -44.9,62.7 -0.9,0.4 -0.2,0.7 0.1,0.6 0.3,0.5 0.7,0.3 1.2,0.1 0.9,0.2 0.7,0.5 0.4,0.6 0.1,0.9 -0.3,0.6 -0.2,0.4 -0.9,0.4 -1.2,0.1 -0.9,-0.2 -0.3,-0.3 -0.4,-0.5 -0.1,-0.9 0.2,-0.6 0.5,-0.7 0.9,-0.4 1.2,-0.4 0.5,-0.4 0.3,-0.6 -0.1,-0.6 -0.4,-0.6 -0.9,-0.2 -1.4,0.2 m 7.7,0 -0.4,-0.6 -0.9,-0.2 -0.6,0.1 -0.9,0.4 -0.4,1 -0.2,1.5 0.2,1.5 0.4,1.1 0.7,0.6 0.9,0.1 h 0.3 l 0.9,-0.4 0.5,-0.7 0.2,-0.9 v -0.3 l -0.4,-0.8 -0.7,-0.6 -0.9,-0.2 -0.3,0.1 -0.9,0.4 -0.5,0.6 -0.2,1 m 172.8,-310 -0.7,-0.1 -1.3,0.1 4.1,-4.8 m -6.4,3 0.8,0.4 1.1,-0.3 1.2,-1 0.6,-0.7 0.7,-1.3 0.1,-1.1 -0.5,-0.8 -0.4,-0.4 -0.9,-0.3 -1,0.3 -1.2,0.9 -0.6,0.7 -0.8,1.3 -0.1,1.1 0.5,0.8 0.3,0.3 m -4.2,-6.3 0.8,-0.5 0.9,-0.1 0.9,0.4 0.2,0.2 0.5,0.8 0.1,0.8 -0.4,0.9 -0.2,0.2 -0.8,0.5 -0.8,0.1 -0.9,-0.4 -0.3,-0.1 -0.4,-0.9 -0.1,-0.8 0.5,-1.1 1,-1.2 1.2,-0.9 1,-0.3 0.9,0.4 0.5,0.3 0.5,0.8 -0.2,0.7 m 56.5,146.8 h -0.3 l -0.5,-0.4 -0.3,-0.4 -0.1,-0.6 0.2,-1.2 0.4,-0.5 0.4,-0.3 0.6,-0.1 0.6,0.1 0.5,0.4 0.8,0.7 2.3,3.6 0.9,-4.1 m -5.9,-3 0.7,-3.2 2,2.2 0.2,-0.9 0.4,-0.5 0.3,-0.2 1,-0.1 0.5,0.1 0.9,0.4 0.4,0.8 0.2,0.9 -0.2,0.9 -0.5,0.8 -0.3,0.2 -0.7,0.2 m -93.2,71.8 0.6,-0.3 1,-0.9 -0.1,6.3 m 1.1,-5.1 0.6,-0.2 0.9,-0.9 -0.1,6.3 m 3.1,-6.5 -0.9,0.3 -0.6,0.9 -0.4,1.5 v 0.9 l 0.3,1.5 0.6,0.9 0.9,0.3 h 0.6 l 0.9,-0.3 0.6,-0.9 0.3,-1.4 v -0.9 l -0.2,-1.6 -0.6,-0.9 -0.9,-0.3 h -0.5 m -54.3,-58.6 0.2,0.7 0.6,1.1 -6.1,-1.5 m 5.6,4.4 v -1 l -0.8,-0.8 -1.4,-0.6 -0.8,-0.2 -1.6,-0.1 -1,0.4 -0.5,0.8 -0.1,0.6 0.1,0.9 0.7,0.8 1.4,0.6 0.8,0.3 h 1.6 l 1,-0.3 0.5,-0.8 0.1,-0.5 m -1.5,6.4 -3.4,-3.9 -1,4.3 m 4.4,-0.4 -6.1,-1.5"
       id="nums_008"
       stroke="#000000"
       stroke-width="1" />
    <path
       d="m 4214.8,611.2 -150.6,-2.6 29.7,-121.1 -89.1,87.3 82.8,125.7 -179.4,21 -151.1,18.4 68,-126.7 -60.2,-99.7 46.9,-247.8 -45.6,-174.1 114.1,-79.4 162.7,11 -4.4,169.6 54.4,129.6 153.6,130.3 z"
       id="coupes_008"
       stroke="#ff0000"
       stroke-width="1.27"
       sodipodi:nodetypes="ccccccccccccccccc" />
    <path
       d="m 3957.5,100.5 4,4 m 0,-4 -4,4 m -57.1,35.7 4,4 m 0,-4 -4,4 m 22.8,83 4,4 m 0,-4 -4,4 m 27.2,60.8 4,4 m 0,-4 -4,4 m 141.1,107 4,4 m 0,-4 -4,4 m -140.6,-32.4 4,4 m 0,-4 -4,4 m -44.6,39.6 4,4 m 0,-4 -4,4 m -23.4,119.9 4,4 m 0,-4 -4,4 m 30.1,45.9 4,4 m 0,-4 -4,4 m 41.5,50.1 4,4 m 0,-4 -4,4 m -89.8,15.3 4,4 m 0,-4 -4,4 m 303.5,-201.3 4,4 m 0,-4 -4,4 m -15.8,75.3 4,4 m 0,-4 -4,4"
       display="none"
       id="marqueM_008"
       stroke="#a52a2a" />
    <path
       id="plisV_008"
       stroke="#008000"
       stroke-dasharray="4, 1, 1, 1"
       stroke-width="1.27"
       d="" />
    <path
       id="marqueV_008"
       stroke="#008000"
       d="" />
    <path
       d="m 3968.4,430.3 -2.3,0.7 -0.7,1.5 v 1.5 l 0.7,1.5 1.5,0.8 3,0.7 2.3,0.8 1.5,1.5 0.7,1.5 v 2.2 l -0.7,1.5 -0.8,0.8 -2.2,0.7 h -3 l -2.3,-0.7 -0.7,-0.8 -0.8,-1.5 v -2.2 l 0.8,-1.5 1.5,-1.5 2.2,-0.8 3,-0.7 1.5,-0.8 0.8,-1.5 v -1.5 l -0.8,-1.5 -2.2,-0.7 h -3.4"
       id="titre_8"
       stroke="#4b0082" />
  </g>
  <g
     id="page_009">
    <path
       d="m 4431.7,62.4 0.5,-5.1 -3.9,2.2 m 3.4,2.9 -3.1,-5.4 m 0.1,5.4 -0.3,0.6 -0.4,1.2 -3.1,-5.4 m 132.9,-29.4 3,-4.2 h -4.5 m 1.5,4.2 v -6.3 m -4.4,6.2 0.9,-0.3 0.6,-0.9 0.3,-1.5 v -0.9 l -0.3,-1.5 -0.6,-0.9 -0.9,-0.3 h -0.6 l -0.9,0.3 -0.6,1 -0.3,1.5 v 0.9 l 0.3,1.5 0.6,0.8 0.9,0.3 h 0.4 m 30.7,49.2 0.6,0.7 0.3,0.9 -0.2,0.9 -0.2,0.2 -0.7,0.7 -0.8,0.2 -0.9,-0.2 -0.3,-0.2 -0.6,-0.7 -0.2,-0.8 0.2,-0.9 0.1,-0.3 0.7,-0.6 0.8,-0.2 1.2,0.3 1.3,0.8 1.2,1 0.4,1 -0.2,0.9 -0.3,0.5 -0.7,0.6 h -0.6 m 1.5,-9.1 0.6,0.7 0.2,0.8 -0.2,0.9 -0.1,0.3 -0.8,0.6 -0.8,0.2 -0.9,-0.2 -0.3,-0.1 -0.6,-0.7 -0.2,-0.9 0.2,-0.9 0.1,-0.2 0.8,-0.7 0.8,-0.2 1.2,0.4 1.3,0.7 1.1,1 0.5,1 -0.2,0.9 -0.3,0.5 -0.7,0.7 -0.7,-0.1 m -163.1,71.2 -1.9,-2.3 -2.3,1.5 0.4,0.1 0.8,0.5 0.6,0.7 0.3,0.8 v 0.9 l -0.5,0.8 -0.5,0.4 -0.9,0.3 -0.8,-0.1 -0.8,-0.5 -0.6,-0.6 -0.3,-0.9 v -0.5 l 0.3,-0.6 m 8.5,2.3 -0.9,-0.5 -1,0.1 -1.4,0.7 -0.7,0.6 -0.9,1.2 -0.3,1 0.3,0.9 0.4,0.5 0.8,0.5 1.1,-0.2 1.3,-0.7 0.7,-0.6 1,-1.1 0.3,-1.1 -0.4,-0.9 -0.3,-0.3 m 71.1,95.5 -5.1,-0.5 2.2,3.9 m 2.9,-3.4 -5.5,3.1 m 6.8,3.7 -0.9,0.2 -0.8,-0.3 -0.7,-0.6 -0.2,-0.3 -0.2,-0.9 0.3,-0.8 0.6,-0.7 0.3,-0.1 0.9,-0.2 0.8,0.2 0.7,0.6 0.2,0.3 0.1,0.9 -0.2,0.8 -0.9,0.9 -1.3,0.7 -1.4,0.5 -1.1,-0.1 -0.7,-0.6 -0.3,-0.5 -0.2,-1 0.4,-0.5 m 70,-16.6 -0.4,-0.6 -1,-0.7 6.2,-1.1 m -6.9,-1.8 0.4,0.9 1,0.4 h 1.5 l 0.9,-0.1 1.4,-0.6 0.8,-0.7 0.2,-0.9 -0.1,-0.6 -0.5,-0.9 -1,-0.4 -1.5,-0.1 -0.9,0.2 -1.4,0.6 -0.8,0.7 -0.1,0.9 v 0.5 m -0.8,-5.1 0.4,0.8 1,0.4 1.5,0.1 0.9,-0.2 1.4,-0.5 0.8,-0.8 0.2,-0.9 -0.1,-0.6 -0.5,-0.8 -1,-0.5 h -1.5 l -0.9,0.1 -1.4,0.6 -0.8,0.7 -0.1,1 v 0.4 m -73,86.7 2.4,-1.8 -1.4,-2.3 -0.1,0.4 -0.5,0.8 -0.7,0.5 -0.9,0.3 -0.9,-0.1 -0.7,-0.6 -0.4,-0.5 -0.3,-0.9 0.1,-0.8 0.6,-0.8 0.7,-0.5 0.9,-0.3 h 0.4 l 0.6,0.3 m -1.7,7.7 -2.6,2 v -3 l -0.8,0.5 -0.6,0.1 h -0.4 l -0.8,-0.6 -0.4,-0.5 -0.3,-0.9 0.1,-0.8 0.6,-0.8 0.7,-0.5 0.9,-0.3 h 0.4 l 0.6,0.3 m 20.7,46.2 -2.4,-1.8 -1.9,2 0.4,-0.1 0.9,0.3 0.8,0.6 0.5,0.8 0.1,0.8 -0.3,0.9 -0.4,0.5 -0.7,0.5 -0.9,0.1 -0.9,-0.3 -0.7,-0.5 -0.5,-0.8 -0.1,-0.4 0.1,-0.7 m 6.9,0.7 0.2,-0.3 0.6,-0.3 h 0.4 l 0.6,0.1 1,0.7 0.3,0.6 0.1,0.4 -0.2,0.7 -0.3,0.5 -0.6,0.3 -1,0.3 -4.3,0.6 3.4,2.6 m 103.9,82.6 -0.4,-0.5 -1.1,-0.7 6.2,-1.4 m -7.1,-1.4 0.5,0.8 1.1,0.4 1.5,-0.1 0.9,-0.2 1.3,-0.6 0.8,-0.8 0.1,-1 -0.2,-0.5 -0.5,-0.8 -1,-0.4 h -1.5 l -0.9,0.2 -1.4,0.7 -0.7,0.8 -0.1,0.9 0.1,0.5 m -0.9,-3.9 -0.8,-3.2 2.8,1.2 -0.2,-0.9 0.1,-0.7 0.2,-0.3 0.8,-0.5 0.6,-0.2 1,0.1 0.7,0.5 0.5,0.8 0.2,0.9 -0.1,0.9 -0.2,0.4 -0.5,0.4 m 70.9,176.1 -0.7,-0.2 -1.2,-0.1 4.6,-4.2 m -6.8,2.1 0.9,0.5 1,-0.1 1.3,-0.8 0.7,-0.6 0.9,-1.2 0.3,-1.1 -0.4,-0.9 -0.4,-0.4 -0.8,-0.5 -1.1,0.2 -1.3,0.8 -0.7,0.6 -0.9,1.2 -0.2,1 0.3,0.9 0.3,0.3 m -4,-5.8 -0.2,0.6 0.4,0.9 0.4,0.5 0.8,0.4 1.1,-0.1 1.3,-0.8 1.1,-1 0.7,-1 v -0.9 l -0.4,-0.8 -0.2,-0.3 -0.8,-0.4 -0.8,-0.1 -0.9,0.4 -0.2,0.2 -0.5,0.8 v 0.9 l 0.3,0.8 0.2,0.3 0.9,0.4 0.8,0.1 0.9,-0.4 m -137.3,-159.3 0.9,-2.9 -2.5,-1 0.2,0.3 v 1 l -0.3,0.9 -0.5,0.7 -0.8,0.4 -0.9,0.1 -0.6,-0.2 -0.7,-0.6 -0.4,-0.7 -0.1,-1 0.3,-0.8 0.5,-0.8 0.4,-0.2 0.7,-0.1 m 2.3,10 0.8,-2.9 -2.5,-1 0.2,0.3 0.1,1 -0.3,0.9 -0.6,0.7 -0.7,0.4 -1,0.1 -0.5,-0.2 -0.8,-0.6 -0.4,-0.7 v -1 l 0.2,-0.8 0.6,-0.8 0.4,-0.2 0.6,-0.1 m 14,98.1 0.7,0.1 1.2,-0.1 -3.8,4.9 m 6.3,-3.3 -0.9,-0.3 -1,0.3 -1.2,1 -0.5,0.8 -0.7,1.3 -0.1,1.1 0.5,0.8 0.5,0.4 0.9,0.3 1,-0.4 1.2,-1 0.5,-0.7 0.7,-1.3 0.1,-1.1 -0.5,-0.8 -0.4,-0.3 m 2.2,3.6 0.2,-0.2 0.6,-0.3 0.4,-0.1 0.7,0.1 0.9,0.8 0.3,0.6 v 0.4 l -0.1,0.7 -0.3,0.4 -0.7,0.3 -1,0.4 -4.2,0.5 3.3,2.6 m -46.8,-48.8 -0.4,-6.9 m 4.1,4.9 -3.7,2 m -4.2,2.3 2.7,-1.4 -1.1,-2.5 -0.1,0.4 -0.6,0.7 -0.8,0.4 -0.9,0.2 -0.9,-0.3 -0.7,-0.6 -0.2,-0.6 -0.2,-0.9 0.2,-0.8 0.7,-0.7 0.8,-0.4 0.9,-0.2 0.4,0.1 0.6,0.4 m 154,193.8 0.2,-0.6 v -1.3 l 4.4,4.5 m -2.4,-6.7 -0.4,0.8 0.2,1.1 0.8,1.3 0.6,0.6 1.3,0.9 1,0.2 0.9,-0.4 0.4,-0.4 0.5,-0.9 -0.2,-1 -0.9,-1.3 -0.6,-0.6 -1.3,-0.9 -1,-0.2 -0.9,0.4 -0.3,0.3 m 5,-4.9 -2.1,2.1 1.6,2.2 v -0.5 l 0.5,-0.8 0.6,-0.6 0.9,-0.5 0.8,0.1 0.9,0.4 0.4,0.4 0.4,0.9 v 0.8 l -0.4,0.9 -0.7,0.6 -0.8,0.4 h -0.5 l -0.6,-0.2 m -98.7,10.8 -0.9,-0.2 -0.6,0.3 -0.4,0.5 -0.1,0.7 0.4,0.6 0.8,0.9 0.6,0.7 0.1,0.9 v 0.6 l -0.5,0.8 -0.6,0.3 -0.4,0.1 -1,-0.3 -1,-0.6 -0.5,-0.8 -0.1,-0.4 0.1,-0.7 0.5,-0.7 0.6,-0.4 0.8,-0.1 0.9,0.2 1.2,0.5 h 0.6 l 0.6,-0.3 0.4,-0.5 v -0.6 l -0.5,-0.8 -1.2,-0.8 m 3.8,2.6 2.8,1.9 -2.9,0.9 0.8,0.5 0.3,0.6 0.1,0.4 -0.2,1 -0.4,0.5 -0.7,0.5 -0.9,0.2 -0.9,-0.3 -0.7,-0.5 -0.6,-0.7 -0.1,-0.4 0.1,-0.7 m -20.2,-106.3 -0.7,0.2 -0.9,0.9 0.2,-6.3 m -3.1,6.4 0.9,-0.2 0.6,-0.9 0.3,-1.5 0.1,-0.9 -0.3,-1.5 -0.5,-0.9 -0.9,-0.4 h -0.6 l -0.9,0.3 -0.7,0.9 -0.3,1.5 v 0.9 l 0.2,1.5 0.6,0.9 0.9,0.3 h 0.4 m -3.3,-1.5 -0.6,0.3 -0.9,0.9 0.2,-6.3 m -103.2,77.5 -2.6,6.5 m -1.6,-6.2 4.2,-0.3 m 3,-0.2 -0.9,0.4 -0.6,0.9 -0.2,1.5 0.1,0.9 0.4,1.5 0.7,0.8 0.9,0.3 0.6,-0.1 0.8,-0.3 0.6,-0.9 0.2,-1.6 -0.1,-0.9 -0.4,-1.4 -0.6,-0.9 -0.9,-0.2 h -0.5 m -89.1,-56.7 -6.8,-1.5 m 5.9,-2.6 0.9,4.1 m -1,1.9 h 0.3 l 0.6,0.1 0.4,0.3 0.4,0.5 0.3,1.1 -0.2,0.7 -0.2,0.3 -0.5,0.5 -0.6,0.1 -0.6,-0.1 -1.1,-0.4 -3.6,-2.2 1,4.1 m 50.5,-114.7 -0.3,0.6 -0.1,1.3 -3.8,-5 m 1.5,6.9 0.6,-0.7 -0.1,-1.1 -0.6,-1.4 -0.6,-0.7 -1.1,-1 -1,-0.4 -0.9,0.3 -0.5,0.4 -0.6,0.8 0.1,1 0.7,1.4 0.5,0.7 1.1,1.1 1.1,0.3 0.9,-0.3 0.3,-0.3 m -4,1.2 0.2,0.2 0.1,0.7 -0.1,0.4 -0.3,0.6 -0.9,0.7 -0.7,0.2 -0.4,-0.1 -0.6,-0.3 -0.4,-0.5 -0.1,-0.6 v -1.1 l 0.5,-4.2 -3.3,2.5 m 72.9,22.7 -0.5,-0.5 -1,-0.7 6.1,-1.4 m -7,-1.5 0.5,0.9 1,0.3 h 1.5 l 0.9,-0.2 1.4,-0.6 0.8,-0.8 v -0.9 l -0.1,-0.6 -0.5,-0.8 -1,-0.4 h -1.5 l -0.9,0.2 -1.4,0.6 -0.7,0.8 -0.1,1 0.1,0.4 m 0.6,-3.5 -0.4,-0.6 -1.1,-0.6 6.2,-1.4"
       id="nums_009"
       stroke="#000000"
       stroke-width="1" />
    <path
       d="m 4610.8,603.2 -118.8,-92.4 26.8,-14.6 29.1,-95.7 -93.9,-70.9 56.3,-41.9 -37,-65.8 -108.4,-130.5 121,-69.9 138.8,-0.9 -69.9,120.3 30.7,177.3 58.6,245.3 77.7,86.7 -102.9,100.4 -100,-67.3 -158.4,10.1 -32.2,-134.1 120.2,-90.4 29.1,130 z"
       id="coupes_009"
       stroke="#ff0000"
       stroke-width="1.27"
       sodipodi:nodetypes="ccccccccccccccccccccc" />
    <path
       d="m 4518.4,79.2 4,4 m 0,-4 -4,4 m -60.6,31 4,4 m 0,-4 -4,4 m 54.2,61.2 4,4 m 0,-4 -4,4 m 5.8,138.5 4,4 m 0,-4 -4,4 m 46.9,31.4 4,4 m 0,-4 -4,4 m 29.3,118.7 4,4 m 0,-4 -4,4 m 31.4,97.3 4,4 m 0,-4 -4,4 m -48.1,-85.5 4,4 m 0,-4 -4,4 m 87,120.9 4,4 m 0,-4 -4,4 m -45.9,36.1 4,4 m 0,-4 -4,4 m -122.1,-29.7 4,4 m 0,-4 -4,4 m -79.2,1 4,4 m 0,-4 -4,4 m -16.1,-71 4,4 m 0,-4 -4,4"
       display="none"
       id="marqueM_009"
       stroke="#a52a2a" />
    <path
       d="m 4554.8,140.9 -44.5,146.8 m 75.2,30.5 -75.2,-30.5 m 100.5,315.5 -92,-107 m 0.1,187.1 91.9,-80.1"
       id="plisV_009"
       stroke="#008000"
       stroke-dasharray="4, 1, 1, 1"
       stroke-width="1.27" />
    <path
       d="m 4530.5,212.3 4,4 m 0,-4 -4,4 m 15.4,84.6 4,4 m 0,-4 -4,4 m 16.9,242.8 4,4 m 0,-4 -4,4 m 0.1,89.5 4,4 m 0,-4 -4,4"
       id="marqueV_009"
       stroke="#008000" />
    <path
       d="m 4597,420.3 -0.7,2.2 -1.5,1.5 -2.3,0.8 h -0.7 l -2.3,-0.8 -1.5,-1.5 -0.7,-2.2 v -0.8 l 0.7,-2.2 1.5,-1.5 2.3,-0.8 h 0.7 l 2.3,0.8 1.5,1.5 0.7,3 v 3.7 l -0.7,3.8 -1.5,2.2 -2.3,0.8 h -1.5 l -2.2,-0.8 -0.8,-1.5"
       id="titre_9"
       stroke="#4b0082" />
  </g>
</svg>
