<?xml version="1.0" encoding="UTF-8" standalone="no"?>
<svg
   height="841.88977pt"
   viewBox="0 0 532.99998 754.00001"
   width="595.27557pt"
   version="1.1"
   id="svg1"
   sodipodi:docname="main200_H20A_A4x2.svg"
   inkscape:version="1.3 (0e150ed6c4, 2023-07-21)"
   xmlns:inkscape="http://www.inkscape.org/namespaces/inkscape"
   xmlns:sodipodi="http://sodipodi.sourceforge.net/DTD/sodipodi-0.dtd"
   xmlns="http://www.w3.org/2000/svg"
   xmlns:svg="http://www.w3.org/2000/svg">
  <defs
     id="defs1" />
  <sodipodi:namedview
     id="namedview1"
     pagecolor="#ffffff"
     bordercolor="#000000"
     borderopacity="0.25"
     inkscape:showpageshadow="2"
     inkscape:pageopacity="0.0"
     inkscape:pagecheckerboard="0"
     inkscape:deskcolor="#d1d1d1"
     inkscape:document-units="mm"
     showgrid="false"
     inkscape:zoom="0.7483165"
     inkscape:cx="732.97863"
     inkscape:cy="587.31833"
     inkscape:window-width="1920"
     inkscape:window-height="1057"
     inkscape:window-x="-8"
     inkscape:window-y="-8"
     inkscape:window-maximized="1"
     inkscape:current-layer="svg1" />
  <style
     type="text/css"
     id="style1"><![CDATA[
			path {
				fill: none;
			}
		]]></style>
  <g
     id="page_001">
    <path
       d="m 273.4,422.7 -0.3,0.9 0.3,1 1,1.2 0.8,0.5 1.3,0.7 1.1,0.1 0.8,-0.5 0.4,-0.5 0.3,-0.9 -0.4,-1 -1,-1.2 -0.7,-0.5 -1.4,-0.7 -1,-0.1 -0.8,0.5 -0.3,0.4 m -107.6,-95.8 -0.6,0.4 -0.8,0.9 -0.5,-6.3 m 162.7,73.2 1.4,-3 1.4,2.7 0.4,-0.8 0.5,-0.4 0.4,-0.1 1,0.1 0.5,0.3 0.7,0.7 0.2,0.8 -0.1,0.9 -0.4,0.8 -0.7,0.7 -0.4,0.1 H 331 m -1,-6.4 v -0.6 l -0.4,-1.2 5.6,2.8 m -29.8,11.9 3.3,0.3 -2,2.2 0.9,0.1 0.6,0.4 0.3,0.3 0.2,0.9 -0.1,0.6 -0.3,0.9 -0.7,0.5 -0.9,0.2 h -0.9 l -0.9,-0.4 -0.2,-0.3 -0.3,-0.6 m 6.1,-3.2 0.1,-0.3 0.3,-0.5 0.3,-0.3 0.7,-0.3 1.2,0.1 0.5,0.4 0.3,0.3 0.3,0.6 -0.1,0.6 -0.3,0.6 -0.7,0.9 -3.2,2.7 4.1,0.3 m -2.1,-162.9 -0.1,0.3 -0.5,0.4 -0.4,0.2 -0.7,0.1 -1.1,-0.5 -0.4,-0.5 -0.2,-0.3 -0.1,-0.7 0.2,-0.6 0.5,-0.4 0.9,-0.7 3.9,-1.7 -3.9,-1.5 m -5,4.8 0.9,0.1 0.9,-0.6 0.8,-1.3 0.3,-0.9 0.3,-1.5 -0.3,-1 -0.7,-0.6 -0.6,-0.3 h -0.9 l -0.9,0.6 -0.8,1.3 -0.3,0.9 -0.3,1.5 0.3,1 0.7,0.6 0.4,0.2 m 30.2,42.7 0.7,-0.2 1.1,-0.7 -1.4,6.2 m 6,-5.4 -2.9,-0.6 -0.9,2.5 0.4,-0.2 0.9,-0.1 0.9,0.2 0.8,0.5 0.5,0.7 0.1,0.9 -0.1,0.6 -0.5,0.8 -0.7,0.5 -1,0.1 -0.9,-0.2 -0.8,-0.5 -0.2,-0.3 -0.2,-0.7 m 17.7,-65.8 -3.1,-4.1 -1.4,4.2 m 4.5,-0.1 -6,-2 m 4.9,5.1 -1.1,3.1 -1.7,-2.4 -0.3,0.8 -0.4,0.5 -0.4,0.2 h -1 l -0.5,-0.2 -0.8,-0.6 -0.4,-0.8 v -0.9 l 0.3,-0.9 0.6,-0.7 0.4,-0.2 0.6,-0.1 m 24.1,-28.3 -0.1,-5.2 -3.6,2.7 m 3.7,2.5 -3.8,-5.1 m -1.6,9.1 -1.4,-6.9 m 4.8,4.3 -3.4,2.6 m -109.1,5 0.8,0.6 0.6,-0.1 0.5,-0.3 0.4,-0.6 -0.1,-0.7 -0.4,-1.1 -0.3,-1 0.2,-0.8 0.3,-0.6 0.7,-0.5 0.7,-0.1 0.4,0.1 0.8,0.6 0.6,1 0.3,0.9 -0.1,0.4 -0.3,0.6 -0.8,0.5 -0.6,0.1 -0.9,-0.2 -0.7,-0.5 -0.9,-0.9 -0.6,-0.3 -0.7,0.1 -0.5,0.3 -0.3,0.6 0.2,0.9 0.8,1.1 m -30.3,-22.9 -0.5,0.3 -0.9,0.9 -0.3,-6.3 m -4.8,4.6 0.2,-0.9 0.6,-0.6 0.9,-0.3 h 0.3 l 0.9,0.2 0.6,0.6 0.4,0.9 v 0.3 l -0.3,0.9 -0.6,0.6 -0.8,0.3 -0.3,0.1 -1,-0.3 -0.6,-0.6 -0.3,-1.2 -0.1,-1.5 0.3,-1.5 0.5,-0.9 0.9,-0.3 0.6,-0.1 0.9,0.3 0.3,0.6 m -81.5,11.8 0.1,0.6 0.4,1.2 -5.7,-2.7 m 5.1,4.4 -1.4,3 -1.4,-2.7 -0.4,0.8 -0.5,0.5 -0.4,0.1 -0.9,-0.1 -0.6,-0.3 -0.7,-0.6 -0.2,-0.8 0.1,-1 0.4,-0.8 0.6,-0.7 0.4,-0.1 h 0.7 m 18.7,27.6 0.7,0.1 1.2,-0.3 -3.3,5.3 m 7.1,-3.3 -4.7,2 3.8,2.3 m 0.9,-4.3 -3.3,5.3 m 37.9,48.6 0.2,3.2 -2.5,-1.6 0.1,0.9 -0.3,0.6 -0.3,0.3 -0.8,0.4 h -0.6 l -0.9,-0.2 -0.7,-0.6 -0.3,-0.9 -0.1,-0.8 0.2,-1 0.3,-0.3 0.6,-0.3 m 5.5,6.8 -0.3,-0.9 -0.9,-0.5 -1.6,-0.2 h -0.9 l -1.4,0.4 -0.9,0.7 -0.2,0.9 v 0.6 l 0.4,0.9 0.9,0.5 1.5,0.2 h 0.9 l 1.5,-0.4 0.8,-0.7 0.3,-0.9 v -0.5 m 140.2,21.3 -0.7,0.2 -1.1,0.6 1.7,-6.1 m -6.3,5 2.9,0.8 1,-2.5 -0.4,0.2 -0.9,0.1 -0.9,-0.3 -0.8,-0.5 -0.4,-0.8 v -0.9 l 0.2,-0.6 0.5,-0.8 0.7,-0.4 h 1 l 0.8,0.2 0.8,0.5 0.2,0.4 0.2,0.7 m 26.3,59.2 -0.5,-0.5 h -0.9 l -0.6,0.1 -0.8,0.6 -0.3,1 0.1,1.5 0.5,1.5 0.6,1 0.7,0.4 1,0.1 0.3,-0.1 0.7,-0.6 0.5,-0.7 v -1 l -0.1,-0.2 -0.5,-0.8 -0.8,-0.4 -0.9,-0.1 -0.3,0.1 -0.8,0.6 -0.4,0.7 v 1 m 37.6,16.7 0.5,0.4 1.2,0.5 -5.8,2.5 m 5.1,-1.1 0.5,0.4 1.2,0.5 -5.7,2.5 m 22.2,-0.8 -0.6,-0.4 -1.2,-0.2 5.3,-3.4 m -8.3,-0.9 6.9,-0.9 m -4.7,4.4 -2.2,-3.5 m -5,54.4 0.2,0.7 0.8,0.9 -6.3,-0.6 m 4.9,2.2 h 0.2 l 0.6,0.4 0.3,0.3 0.2,0.6 -0.1,1.2 -0.4,0.6 -0.3,0.2 -0.6,0.3 -0.6,-0.1 -0.6,-0.3 -0.8,-0.7 -2.7,-3.3 -0.4,4.1 m 51.3,-4.9 -0.6,-0.3 -1.2,-0.1 4.9,-4 m -6.8,2 0.8,0.6 0.7,-0.2 0.5,-0.4 0.2,-0.6 -0.1,-0.6 -0.5,-1.2 -0.4,-0.8 0.1,-0.9 0.3,-0.6 0.7,-0.6 0.7,-0.1 h 0.4 l 0.8,0.6 0.7,0.9 0.4,0.9 -0.1,0.4 -0.3,0.6 -0.7,0.6 -0.6,0.1 -0.9,-0.1 -0.8,-0.5 -0.9,-0.7 -0.7,-0.3 -0.6,0.1 -0.5,0.4 -0.3,0.6 0.4,0.9 0.8,1.1 m -17.6,14.5 -1.8,4.9 4.4,-1.2 m -2.6,-3.7 1.7,6.1 m -23.3,-167 0.1,-3.3 2.3,1.8 0.1,-0.9 0.3,-0.6 0.3,-0.3 0.9,-0.3 h 0.6 l 0.9,0.3 0.6,0.6 0.2,0.9 v 0.9 l -0.3,0.9 -0.3,0.3 -0.6,0.3 m -2.9,-9.2 0.9,0.3 0.6,0.6 0.3,0.9 v 0.3 l -0.3,0.9 -0.6,0.6 -0.9,0.3 h -0.3 l -0.9,-0.3 -0.6,-0.6 -0.3,-0.9 v -0.3 l 0.3,-0.9 0.6,-0.6 1.2,-0.3 h 1.5 l 1.5,0.3 0.9,0.6 0.3,0.9 v 0.6 l -0.3,0.9 -0.6,0.3 m -26.7,12 3.3,0.2 -2,2.3 h 0.9 l 0.6,0.4 0.3,0.3 0.2,0.9 v 0.6 l -0.4,0.9 -0.6,0.5 -0.9,0.3 -0.9,-0.1 -0.9,-0.3 -0.3,-0.4 -0.3,-0.6 m 9.8,-4.5 -3.4,6.1 m -0.8,-6.3 4.2,0.2 m -1,18.1 -3.3,0.1 1.8,-2.5 -0.9,0.1 -0.6,-0.3 -0.3,-0.3 -0.3,-0.9 v -0.6 l 0.3,-0.9 0.5,-0.6 0.9,-0.3 0.9,-0.1 0.9,0.3 0.4,0.3 0.3,0.6 m -9.4,5.2 2.9,-6.3 m 1.3,6.3 h -4.2 m 11.4,12.7 1.3,-3.1 1.5,2.6 0.3,-0.8 0.6,-0.4 0.3,-0.2 1,0.1 0.5,0.3 0.7,0.6 0.4,0.8 -0.1,0.9 -0.4,0.8 -0.6,0.8 -0.4,0.1 h -0.7 m -1.9,-8.3 -0.1,1 0.4,0.5 0.6,0.2 h 0.6 l 0.6,-0.4 0.7,-1 0.6,-0.7 0.8,-0.3 0.7,-0.1 0.8,0.4 0.5,0.5 0.1,0.4 -0.1,0.9 -0.5,1.1 -0.6,0.7 -0.4,0.2 h -0.6 l -0.9,-0.3 -0.4,-0.5 -0.3,-0.8 0.1,-1 0.2,-1.2 -0.1,-0.7 -0.4,-0.5 -0.5,-0.2 h -0.7 l -0.7,0.7 -0.5,1.3 m -296,-80 -0.6,0.2 -1,0.8 1,-6.2 m -5.3,5.8 3.6,-3.7 -4.4,-0.7 m 0.8,4.4 1,-6.2 m 56.6,38.5 -2.2,-2.5 3,-0.3 -0.6,-0.6 -0.1,-0.7 v -0.4 l 0.5,-0.8 0.4,-0.4 0.9,-0.4 0.8,0.1 0.9,0.4 0.5,0.7 0.4,0.9 v 0.4 l -0.3,0.6 m -8.5,-2 0.8,0.5 1.1,-0.1 1.3,-0.8 0.7,-0.6 0.9,-1.2 0.3,-1.1 -0.4,-0.8 -0.4,-0.5 -0.8,-0.4 -1.1,0.1 -1.3,0.8 -0.7,0.6 -0.9,1.2 -0.3,1 0.4,0.9 0.3,0.3 m 1.6,31.3 0.4,-0.5 0.3,-1.3 3.3,5.4 M 25.1,229.1 18.3,227.3 m 6,-2.3 0.8,4.1 m 38.3,-14.8 -0.2,-0.7 -0.8,-1 6.2,0.7 m -6.3,-2.4 0.4,-3.3 2.2,2.1 0.1,-0.9 0.3,-0.6 0.4,-0.3 0.9,-0.2 0.6,0.1 0.9,0.4 0.5,0.6 0.2,1 -0.1,0.9 -0.4,0.8 -0.3,0.3 -0.6,0.2 m -33.3,103.7 0.1,3.3 -2.5,-1.7 v 0.9 l -0.2,0.6 -0.3,0.3 -0.9,0.4 h -0.6 l -0.9,-0.3 -0.6,-0.6 -0.4,-0.9 v -0.9 l 0.3,-0.9 0.3,-0.3 0.6,-0.3 m 277.6,130.3 3,-0.5 -0.2,-2.7 -0.2,0.4 -0.8,0.4 -0.9,0.2 -1,-0.2 -0.7,-0.5 -0.4,-0.8 -0.1,-0.6 0.2,-0.9 0.5,-0.7 0.8,-0.5 0.9,-0.1 0.9,0.1 0.4,0.3 0.4,0.5 m -7.6,6.5 2.3,-4.6 -4.5,0.7 m 2.2,3.9 -1,-6.2 m 23.4,10.9 -0.9,2.9 2.5,1.1 -0.2,-0.4 v -0.9 l 0.3,-0.9 0.5,-0.7 0.8,-0.4 h 0.9 l 0.6,0.2 0.8,0.5 0.3,0.8 v 0.9 l -0.2,0.9 -0.6,0.8 -0.4,0.1 -0.7,0.1 m -2.5,-8.3 v 0.9 l 0.6,0.9 1.3,0.7 0.9,0.3 1.5,0.2 1.1,-0.3 0.5,-0.8 0.2,-0.5 v -1 l -0.6,-0.8 -1.4,-0.8 -0.8,-0.3 -1.6,-0.2 -1,0.3 -0.6,0.8 -0.1,0.4 M 30.9,162.9 l -2.3,-4.5 -2.1,4 m 4.4,0.5 -5.6,-2.8 m 2.8,4.9 0.3,0.2 0.4,0.5 0.1,0.4 v 0.7 l -0.6,1.1 -0.5,0.4 -0.4,0.1 h -0.7 l -0.5,-0.3 -0.4,-0.5 -0.5,-1 -1.3,-4 -1.9,3.7 m 26.6,3.6 5.2,0.3 -2.5,-3.8 m -2.7,3.5 5.3,-3.4 m -5.4,0.5 -0.6,-0.4 -1.3,-0.3 5.4,-3.3 m 133.2,-3.9 4.9,1.7 -1.3,-4.3 m -3.6,2.6 6,-1.7 m -7.2,-2.6 0.5,0.8 1.1,0.3 1.5,-0.1 0.9,-0.2 1.3,-0.8 0.7,-0.8 0.1,-0.9 -0.2,-0.6 -0.6,-0.8 -1,-0.3 -1.5,0.1 -0.9,0.3 -1.3,0.7 -0.7,0.8 -0.1,1 0.2,0.4 m -49.3,-12.8 -5.1,-0.8 2,4.1 m 3.1,-3.3 -5.6,2.9 m 5.4,0.1 0.6,0.4 1.2,0.4 -5.6,2.8 m 37.9,-109.4 -0.3,0.1 -0.7,-0.1 -0.3,-0.2 -0.5,-0.5 -0.4,-1.1 0.1,-0.7 0.2,-0.4 0.4,-0.5 0.6,-0.1 h 0.7 l 1,0.3 3.8,1.9 -1.3,-4 m -5.1,0 -0.3,0.1 -0.7,-0.1 -0.3,-0.2 -0.5,-0.5 -0.4,-1.1 0.1,-0.7 0.2,-0.3 0.4,-0.5 0.6,-0.2 0.7,0.1 1,0.3 3.8,1.8 -1.3,-4 m -19.1,-3.5 0.2,0.3 -0.1,0.6 -0.2,0.4 -0.5,0.5 -1.1,0.4 h -0.7 L 148.4,27 147.9,26.5 147.7,26 v -0.7 l 0.3,-1.1 1.8,-3.8 -4,1.4 m -2.6,6.8 0.5,0.4 h 1 l 0.5,-0.2 0.8,-0.6 0.2,-1.1 -0.2,-1.5 -0.5,-1.4 -0.7,-1 -0.8,-0.4 -0.9,0.1 -0.3,0.1 -0.8,0.6 -0.3,0.7 v 1 l 0.1,0.3 0.6,0.7 0.8,0.4 0.9,-0.1 0.3,-0.1 0.7,-0.6 0.4,-0.7 v -1 m 69.2,30.2 v 0.3 l -0.2,0.6 -0.3,0.3 -0.5,0.4 -1.2,0.2 -0.6,-0.2 -0.4,-0.3 -0.4,-0.5 v -0.6 l 0.2,-0.7 0.4,-0.9 2.6,-3.4 -4.2,0.6 m -4.2,6.9 2.1,-6.6 m 2,6 -4.1,0.6 m 28.6,16.7 h -0.3 l -0.6,-0.2 -0.3,-0.2 -0.4,-0.6 -0.2,-1.2 0.2,-0.6 0.3,-0.4 0.6,-0.3 0.5,-0.1 0.7,0.2 1,0.5 3.3,2.6 -0.5,-4.2 m -6.9,-3.4 4.5,2.4 -0.6,-4.5 m -3.9,2.1 6.2,-0.9 M 98.8,61.1 98.2,56 94.9,59.1 m 3.9,2 -4.3,-4.6 m -0.9,8.2 0.6,0.2 0.8,-0.4 0.5,-0.4 0.4,-0.8 -0.1,-1.1 -0.8,-1.3 -1,-1.1 -1.1,-0.7 h -0.8 l -0.9,0.4 -0.2,0.2 -0.5,0.8 v 0.9 l 0.4,0.8 0.2,0.2 0.8,0.5 h 0.9 l 0.8,-0.4 0.3,-0.2 0.4,-0.8 0.1,-0.8 -0.4,-0.9 m -26.5,49.1 0.3,0.6 0.9,0.9 -6.3,-0.1 m 5.6,4.8 0.6,-0.3 0.3,-0.9 v -0.6 l -0.3,-0.9 -0.9,-0.6 -1.5,-0.3 h -1.5 l -1.2,0.3 -0.6,0.6 -0.3,0.9 v 0.3 l 0.3,0.9 0.6,0.6 0.9,0.3 h 0.3 l 0.9,-0.3 0.6,-0.6 0.3,-0.9 v -0.3 l -0.3,-0.9 -0.6,-0.6 -0.9,-0.3 m 40.8,38.8 4.3,2.9 -0.1,-4.5 m -4.2,1.6 6.3,-0.1 m -4.8,-3.1 h -0.3 l -0.6,-0.3 -0.3,-0.3 -0.3,-0.6 v -1.2 l 0.2,-0.6 0.3,-0.3 0.6,-0.3 h 0.6 l 0.6,0.3 0.9,0.6 3.1,2.9 -0.1,-4.2 m -21.6,7.6 -4.8,1.8 3.7,2.5 m 1.1,-4.3 -3.6,5.2 m 8.4,-1.9 -4.9,1.8 3.7,2.5 m 1.2,-4.3 -3.6,5.2 m 114.7,-15.3 -5.2,-0.1 2.6,3.7 m 2.6,-3.6 -5.2,3.5 m 7.7,0.2 -0.8,-0.6 h -1.1 l -1.4,0.6 -0.7,0.5 -1.1,1.1 -0.4,1 0.3,0.9 0.3,0.5 0.8,0.6 h 1 l 1.4,-0.6 0.8,-0.5 1.1,-1.1 0.4,-1 -0.3,-0.9 -0.3,-0.4 m 21,9.5 0.4,-0.5 0.2,-1.3 3.4,5.3 m 1.9,-6.4 0.2,0.9 -0.1,0.8 -0.6,0.8 -0.3,0.1 -0.9,0.3 -0.8,-0.2 -0.8,-0.6 -0.1,-0.3 -0.3,-0.9 0.2,-0.8 0.6,-0.7 0.3,-0.2 0.9,-0.2 0.8,0.1 0.9,0.9 0.8,1.3 0.6,1.4 v 1.1 l -0.6,0.7 -0.5,0.3 -1,0.3 -0.5,-0.4 m 52.4,-10.1 h -1 l -0.4,0.5 -0.2,0.6 0.1,0.6 0.5,0.5 1,0.7 0.8,0.5 0.4,0.8 0.1,0.6 -0.2,0.9 -0.5,0.5 -0.4,0.2 h -0.9 l -1.2,-0.4 -0.7,-0.5 -0.2,-0.4 -0.2,-0.7 0.3,-0.8 0.5,-0.5 0.7,-0.4 h 1 1.2 l 0.7,-0.1 0.4,-0.5 0.2,-0.5 -0.1,-0.7 -0.8,-0.5 -1.3,-0.4 m 49.8,3 -0.1,-0.3 0.1,-0.7 0.2,-0.3 0.4,-0.5 1.2,-0.4 0.7,0.1 0.3,0.2 0.5,0.5 0.2,0.6 -0.1,0.6 -0.3,1.1 -2,3.7 4,-1.2 m 0.9,-6.9 -0.7,0.5 -0.3,1.1 0.1,1.5 0.3,0.9 0.7,1.3 0.9,0.7 h 0.9 l 0.6,-0.2 0.8,-0.5 0.3,-1.1 -0.2,-1.5 -0.3,-0.9 -0.7,-1.3 -0.8,-0.7 h -1 l -0.4,0.1 m 17.3,-20.6 4.7,2.2 -0.9,-4.4 m -3.8,2.2 6.2,-1.1 m -6.7,-2.1 -0.6,-3.2 2.7,1.3 -0.2,-0.9 0.2,-0.6 0.2,-0.4 0.9,-0.4 0.5,-0.1 1,0.1 0.7,0.5 0.4,0.8 0.2,0.9 -0.1,0.9 -0.3,0.4 -0.5,0.4 m -31.8,-34.5 -0.1,0.2 -0.6,0.4 -0.4,0.1 -0.7,-0.1 -1,-0.6 -0.4,-0.5 -0.1,-0.4 0.1,-0.7 0.3,-0.5 0.5,-0.4 1,-0.5 4.1,-1 -3.6,-2.2 m -4.7,4.6 -2.8,-1.7 2.7,-1.1 -0.7,-0.5 -0.4,-0.6 -0.1,-0.4 0.2,-0.9 0.3,-0.5 0.7,-0.6 0.8,-0.3 1,0.2 0.7,0.5 0.7,0.7 0.1,0.4 L 330,84 M 248.4,62.3 h 0.3 l 0.6,0.2 0.4,0.3 0.3,0.6 0.1,1.2 -0.3,0.6 -0.2,0.3 -0.6,0.4 h -0.6 l -0.6,-0.3 -1,-0.5 -3.2,-2.8 0.3,4.2 m 6.7,3.9 -4.4,-2.7 0.3,4.4 m 4.1,-1.7 -6.3,0.4 m 173.3,141.9 5.3,-4.5 m -1.4,6.2 -3.9,-1.7 m -2.4,-1 0.9,0.1 0.6,-0.5 0.2,-0.5 v -0.7 l -0.5,-0.5 -0.9,-0.8 -0.8,-0.6 -0.3,-0.8 v -0.7 l 0.4,-0.8 0.5,-0.4 0.4,-0.2 0.9,0.1 1.1,0.5 0.7,0.6 0.2,0.4 v 0.7 l -0.3,0.8 -0.6,0.4 -0.8,0.4 -0.9,-0.1 -1.2,-0.2 h -0.7 l -0.5,0.4 -0.2,0.6 v 0.7 l 0.7,0.6 1.2,0.5 m 46.1,76.2 3,6.3 m -5.6,-3 2.6,-3.3 m 2.2,-0.4 -0.2,-0.1 -0.3,-0.7 -0.1,-0.4 0.2,-0.6 0.7,-1 0.6,-0.2 0.5,-0.1 0.6,0.1 0.5,0.4 0.3,0.6 0.3,1.1 0.5,4.2 2.6,-3.3 m -26.6,-7.3 -6.7,1.6 m 4.1,-4.9 2.6,3.3 m -0.4,1.7 0.6,0.3 1.3,0.1 -4.9,4 m 35.2,-42.8 6.2,-3.2 m -2.9,5.7 -3.3,-2.5 m -2.8,-4.8 0.8,-0.5 0.9,-0.1 0.9,0.3 0.2,0.2 0.5,0.8 0.1,0.8 -0.3,0.9 -0.1,0.2 -0.8,0.6 -0.9,0.1 -0.9,-0.3 -0.2,-0.2 -0.5,-0.8 -0.1,-0.8 0.4,-1.2 1,-1.2 1.1,-1 1,-0.3 0.9,0.3 0.5,0.3 0.5,0.8 -0.1,0.7 m 2.8,26.8 v -0.7 l -0.3,-1.2 5.5,3.1 m -4.2,-5.8 -0.2,1 0.5,0.9 1.1,1 0.8,0.5 1.5,0.5 1,-0.1 0.7,-0.6 0.3,-0.5 0.2,-1 -0.5,-0.9 -1.1,-1.1 -0.8,-0.4 -1.4,-0.5 -1.1,0.1 -0.7,0.6 -0.3,0.4 m 3.5,-6.1 -1.5,2.7 2.2,1.6 -0.1,-0.5 0.2,-0.9 0.4,-0.8 0.8,-0.6 0.8,-0.2 0.9,0.2 0.5,0.3 0.7,0.7 0.2,0.8 -0.2,0.9 -0.5,0.8 -0.7,0.6 -0.4,0.1 h -0.6 m -367.6,151.8 0.2,0.3 v 0.6 l -0.1,0.4 -0.3,0.6 -1,0.6 -0.7,0.1 -0.4,-0.1 -0.6,-0.3 -0.3,-0.5 -0.1,-0.7 0.1,-1.1 0.9,-4.1 -3.5,2.2 m 1.1,6.8 0.6,-0.8 -0.1,-0.6 -0.3,-0.6 -0.6,-0.3 -0.7,0.1 -1.1,0.4 -1,0.2 -0.8,-0.2 -0.6,-0.4 -0.4,-0.7 -0.1,-0.7 0.1,-0.4 0.6,-0.7 1,-0.7 0.9,-0.2 0.5,0.1 0.5,0.3 0.5,0.8 0.1,0.7 -0.2,0.8 -0.6,0.7 -0.9,0.9 -0.3,0.6 v 0.7 l 0.4,0.5 0.5,0.3 1,-0.2 1.1,-0.7 m -34.4,36.8 h 0.3 l 0.6,0.3 0.3,0.3 0.3,0.6 -0.1,1.2 -0.3,0.6 -0.3,0.3 -0.6,0.3 -0.6,-0.1 -0.6,-0.3 -0.9,-0.6 -2.9,-3.1 -0.1,4.2 m 105,37 3,-1.4 -0.6,2.9 0.8,-0.4 h 0.7 l 0.4,0.2 0.7,0.7 0.2,0.5 0.1,0.9 -0.2,0.8 -0.7,0.7 -0.8,0.4 -1,0.1 -0.4,-0.1 -0.5,-0.4 m 3.1,-7.2 3,-1.4 -0.6,2.9 0.8,-0.4 h 0.7 l 0.4,0.2 0.7,0.6 0.2,0.6 0.2,0.9 -0.3,0.8 -0.7,0.7 -0.8,0.4 -1,0.1 -0.4,-0.1 -0.5,-0.4 m -111.7,8 -0.7,3.3 -2,-2.3 -0.2,0.9 -0.4,0.5 -0.3,0.2 -1,0.1 -0.6,-0.1 -0.8,-0.5 -0.4,-0.7 -0.1,-1 0.2,-0.9 0.4,-0.8 0.4,-0.2 0.7,-0.2 m 2.1,9.7 0.7,-0.2 0.4,-0.8 0.2,-0.6 -0.1,-0.9 -0.8,-0.8 -1.4,-0.6 -1.4,-0.3 H 69 l -0.7,0.4 -0.5,0.9 v 0.2 l 0.1,1 0.4,0.7 0.8,0.5 0.3,0.1 1,-0.1 0.7,-0.5 0.5,-0.8 v -0.3 l -0.1,-0.9 -0.4,-0.8 -0.8,-0.4 m 10.9,43.4 0.7,0.3 1.2,0.1 -4.8,4 m 6.9,-1.9 -0.8,-0.5 -1.1,0.1 -1.4,0.8 -0.7,0.5 -0.9,1.2 -0.3,1 0.3,0.9 0.4,0.5 0.8,0.5 1.1,-0.1 1.3,-0.7 0.7,-0.6 1,-1.2 0.3,-1 -0.4,-0.9 -0.2,-0.4 m 41.6,42.3 0.1,-0.2 0.6,-0.3 0.5,-0.1 0.6,0.2 1,0.7 0.3,0.6 v 0.4 l -0.1,0.7 -0.4,0.5 -0.6,0.2 -1,0.4 -4.3,0.5 3.3,2.6 m 3.9,-3.2 0.7,0.1 1.2,-0.1 -3.9,4.9 m 64,30.1 -4.4,2.7 4.1,1.8 m 0.3,-4.5 -2.5,5.8 m 8.2,-3.3 -2.8,-1.2 -1.3,2.4 0.4,-0.2 1,0.1 0.8,0.4 0.7,0.6 0.3,0.8 -0.1,0.9 -0.2,0.6 -0.6,0.7 -0.8,0.3 -0.9,-0.1 -0.9,-0.3 -0.7,-0.6 -0.1,-0.4 -0.1,-0.7 m 34.8,-42 -0.7,0.1 -1.1,0.6 1.9,-6 m -4.5,5.4 h 0.9 l 0.5,-0.5 0.2,-0.6 -0.1,-0.6 -0.5,-0.5 -1,-0.7 -0.8,-0.5 -0.4,-0.8 -0.1,-0.7 0.3,-0.8 0.5,-0.5 0.3,-0.2 h 1 l 1.1,0.4 0.8,0.6 0.2,0.3 0.1,0.7 -0.3,0.9 -0.5,0.4 -0.7,0.4 h -1 l -1.2,-0.1 -0.7,0.1 -0.4,0.5 -0.2,0.6 0.1,0.6 0.7,0.6 1.3,0.4 m 66.8,-9.1 -0.4,0.5 -0.6,1.1 -2.2,-5.9 m -2.6,7.9 0.7,-6.9 m 3.3,5.5 -4,1.4 m 146.8,63.1 -0.6,0.2 -0.4,0.9 -0.1,0.6 0.1,0.9 0.8,0.7 1.5,0.5 1.4,0.3 1.3,-0.1 0.7,-0.5 0.4,-0.9 v -0.3 l -0.1,-0.9 -0.5,-0.7 -0.9,-0.4 -0.3,-0.1 -0.9,0.2 -0.7,0.5 -0.4,0.8 -0.1,0.3 0.2,1 0.5,0.6 0.8,0.5 m -1.8,-5.9 -0.3,-0.1 -0.5,-0.4 -0.3,-0.3 -0.2,-0.6 0.2,-1.2 0.4,-0.6 0.3,-0.2 0.7,-0.2 0.6,0.1 0.5,0.3 0.8,0.8 2.5,3.4 0.7,-4.1 m -175.2,11.5 -0.1,-0.6 -0.7,-0.6 -0.6,-0.2 h -0.9 l -0.9,0.6 -0.8,1.3 -0.5,1.5 -0.1,1.2 0.4,0.8 0.7,0.5 0.3,0.1 h 1 l 0.7,-0.3 0.6,-0.8 0.1,-0.3 v -0.9 l -0.3,-0.8 -0.8,-0.6 h -0.3 l -0.9,-0.1 -0.8,0.4 -0.6,0.8 m 9.6,-1.2 -2.9,-0.9 -1.1,2.4 0.4,-0.2 h 0.9 l 0.9,0.3 0.7,0.6 0.4,0.8 v 0.9 l -0.2,0.6 -0.6,0.7 -0.8,0.4 h -0.9 l -0.9,-0.3 -0.7,-0.6 -0.2,-0.4 -0.1,-0.6 m 29.2,-1.8 -0.2,-0.6 -0.7,-1.1 6.2,1.3 m -5.8,-4.2 0.1,0.9 0.8,0.8 1.4,0.6 0.9,0.2 h 1.5 l 1,-0.5 0.5,-0.8 0.1,-0.6 -0.1,-0.9 -0.8,-0.8 -1.4,-0.6 -0.9,-0.1 h -1.5 l -1,0.4 -0.5,0.8 -0.1,0.4 m 2.3,-3.5 -0.3,-0.1 -0.5,-0.4 -0.3,-0.3 -0.1,-0.7 0.2,-1.2 0.4,-0.5 0.4,-0.2 0.6,-0.2 0.6,0.1 0.5,0.4 0.8,0.8 2.3,3.5 0.9,-4.1 m -198.3,-258.6 -0.1,-0.3 v -0.7 l 0.2,-0.4 0.5,-0.4 1.1,-0.5 0.7,0.1 0.4,0.2 0.5,0.5 0.2,0.5 -0.1,0.7 -0.3,1 -1.8,3.9 4,-1.4 m 0.3,-6.9 -0.7,0.6 -0.1,0.7 0.2,0.5 0.5,0.5 0.7,0.1 1.2,-0.1 0.9,-0.1 0.8,0.4 0.5,0.5 0.3,0.8 -0.1,0.7 -0.2,0.3 -0.7,0.6 -1.1,0.4 -1,0.1 -0.4,-0.2 -0.5,-0.5 -0.3,-0.8 0.1,-0.7 0.4,-0.7 0.7,-0.6 1,-0.7 0.5,-0.5 0.1,-0.7 -0.2,-0.5 -0.5,-0.5 h -1 l -1.2,0.5 m -57.2,-9.6 0.2,-0.2 0.7,-0.2 0.4,0.1 0.6,0.3 0.8,0.9 0.1,0.7 v 0.4 l -0.3,0.6 -0.5,0.4 -0.7,0.1 -1,0.1 -4.3,-0.5 2.6,3.3 m 6.5,1.4 -0.9,0.3 -0.9,-0.1 -0.8,-0.5 -0.2,-0.3 -0.3,-0.9 0.1,-0.8 0.5,-0.8 0.3,-0.2 0.9,-0.3 0.8,0.1 0.8,0.5 0.2,0.3 0.3,0.8 -0.1,0.9 -0.7,1 -1.2,0.9 -1.4,0.7 -1.1,0.1 -0.8,-0.6 -0.3,-0.4 -0.4,-0.9 0.3,-0.6 m 289.6,160.2 -1.3,3 -1.5,-2.5 -0.4,0.8 -0.5,0.4 -0.4,0.2 -0.9,-0.1 -0.6,-0.2 -0.7,-0.6 -0.3,-0.8 0.1,-0.9 0.3,-0.9 0.6,-0.7 0.4,-0.2 h 0.7 m 2.1,8.3 0.1,-1 -0.5,-0.5 -0.5,-0.2 h -0.7 l -0.5,0.5 -0.7,1 -0.7,0.7 -0.8,0.3 -0.6,0.1 -0.9,-0.4 -0.4,-0.5 -0.2,-0.4 0.1,-0.9 0.5,-1.1 0.6,-0.8 0.4,-0.1 0.6,-0.1 0.9,0.4 0.4,0.5 0.3,0.8 v 0.9 l -0.2,1.2 0.1,0.7 0.4,0.5 0.5,0.2 h 0.7 l 0.6,-0.7 0.5,-1.3 m -2,111.3 v -0.7 l -0.5,-1.2 5.8,2.6 m -4.8,-5.4 -0.1,1 0.6,0.9 1.3,0.9 0.8,0.4 1.5,0.3 1,-0.2 0.7,-0.7 0.2,-0.5 0.1,-1 -0.6,-0.9 -1.2,-0.9 -0.8,-0.3 -1.5,-0.4 -1.1,0.2 -0.6,0.7 -0.2,0.4 m 2.1,-4.7 -0.1,0.9 0.6,0.9 1.2,0.9 0.9,0.4 1.5,0.3 1,-0.2 0.7,-0.7 0.2,-0.5 0.1,-1 -0.6,-0.9 -1.2,-0.9 -0.8,-0.3 -1.5,-0.4 -1.1,0.2 -0.6,0.7 -0.2,0.4 m -24.2,18.1 -0.3,-0.6 -0.8,-0.3 -0.6,-0.1 -1,0.3 -0.6,0.9 -0.3,1.5 v 1.5 l 0.3,1.2 0.6,0.6 0.9,0.3 h 0.3 l 0.9,-0.2 0.6,-0.6 0.3,-0.9 v -0.3 l -0.3,-0.9 -0.6,-0.6 -0.9,-0.4 h -0.3 l -0.9,0.3 -0.6,0.6 -0.3,0.9 m 6.6,-4.1 -0.9,0.3 -0.3,0.6 v 0.6 l 0.3,0.6 0.6,0.3 1.2,0.3 0.9,0.3 0.6,0.6 0.3,0.6 v 0.9 l -0.3,0.6 -0.3,0.3 -0.9,0.3 h -1.2 l -0.9,-0.3 -0.3,-0.3 -0.3,-0.6 v -0.9 l 0.3,-0.6 0.6,-0.6 0.9,-0.3 1.2,-0.3 0.6,-0.3 0.3,-0.6 v -0.6 l -0.3,-0.6 -0.9,-0.3 H 316 m -8.6,-18.4 0.2,0.6 0.6,1.1 -6.1,-1.4 m 5.7,4.3 -0.1,-0.9 -0.7,-0.8 -1.4,-0.7 -0.9,-0.2 h -1.5 l -1.1,0.4 -0.5,0.8 -0.1,0.6 0.1,0.9 0.7,0.8 1.4,0.6 0.9,0.2 1.5,0.1 1.1,-0.4 0.4,-0.8 0.2,-0.4 m -2.4,3.4 0.3,0.1 0.5,0.4 0.2,0.4 0.2,0.6 -0.3,1.2 -0.4,0.5 -0.4,0.2 -0.6,0.2 -0.6,-0.1 -0.5,-0.5 -0.8,-0.8 -2.2,-3.6 -1,4.1 m -38.6,-622.5 0.7,-0.7 0.1,-0.7 -0.3,-0.5 -0.5,-0.4 -0.7,-0.1 -1.2,0.3 -0.9,0.1 -0.8,-0.3 -0.6,-0.5 -0.3,-0.8 v -0.6 l 0.1,-0.4 0.7,-0.7 1.1,-0.5 1,-0.1 0.4,0.2 0.5,0.4 0.4,0.8 -0.1,0.7 -0.3,0.8 -0.6,0.6 -1,0.8 -0.4,0.5 -0.1,0.7 0.3,0.5 0.5,0.5 0.9,-0.1 1.3,-0.6 m -5.3,2.4 0.7,-0.7 0.2,-1 -0.4,-1.5 -0.4,-0.8 -0.8,-1.3 -1,-0.5 -0.9,0.1 -0.6,0.2 -0.7,0.6 -0.1,1.1 0.3,1.5 0.4,0.8 0.9,1.3 0.9,0.5 0.9,-0.1 0.5,-0.1 m 25.3,9.5 0.9,0.4 0.6,-0.2 0.4,-0.5 0.2,-0.6 -0.2,-0.6 -0.6,-1.1 -0.4,-0.8 v -0.9 l 0.2,-0.6 0.6,-0.7 0.6,-0.2 h 0.5 l 0.8,0.4 0.9,0.9 0.4,0.8 v 0.5 l -0.2,0.6 -0.6,0.6 -0.7,0.2 h -0.8 l -0.9,-0.4 -1,-0.6 -0.7,-0.2 -0.6,0.2 -0.4,0.4 -0.3,0.7 0.5,0.8 0.9,1 m -1.8,-3.8 -0.6,-0.2 h -1.3 l 4.5,-4.5 m 135.9,624.9 v 1 l -0.4,0.7 -0.7,0.6 -0.3,0.1 h -1 l -0.7,-0.4 -0.6,-0.7 -0.1,-0.3 v -1 l 0.4,-0.7 0.8,-0.6 0.3,-0.1 h 0.9 l 0.8,0.4 0.6,1 0.5,1.4 0.2,1.6 -0.3,1 -0.8,0.6 -0.5,0.2 h -1 l -0.5,-0.5 m 7.2,-5.9 v 1 l -0.4,0.7 -0.7,0.6 -0.3,0.1 h -1 l -0.7,-0.4 -0.6,-0.7 -0.1,-0.3 v -1 l 0.4,-0.7 0.8,-0.6 0.2,-0.1 h 1 l 0.8,0.4 0.6,1 0.5,1.5 0.2,1.5 -0.3,1 -0.8,0.6 -0.5,0.2 h -1 l -0.5,-0.5 m -66.5,-15.1 0.1,0.6 0.6,1.2 -6,-2 m 5.3,4.8 v -0.9 l -0.7,-0.9 -1.3,-0.7 -0.9,-0.3 -1.5,-0.2 -1,0.3 -0.6,0.8 -0.2,0.5 v 1 l 0.7,0.8 1.3,0.8 0.9,0.3 1.5,0.2 1,-0.3 0.6,-0.8 0.1,-0.4 m -1.6,4.9 v -0.9 l -0.6,-0.9 -1.4,-0.7 -0.8,-0.3 -1.5,-0.2 -1.1,0.3 -0.6,0.8 -0.1,0.5 v 1 l 0.6,0.8 1.4,0.8 0.8,0.3 1.5,0.1 1.1,-0.3 0.5,-0.7 0.2,-0.4 m 9.8,-141.1 0.5,0.5 0.9,-0.1 0.6,-0.2 0.7,-0.6 0.3,-1.1 -0.3,-1.5 -0.5,-1.4 -0.7,-1 -0.8,-0.3 h -1 l -0.3,0.1 -0.7,0.6 -0.3,0.8 v 0.9 l 0.1,0.3 0.6,0.8 0.8,0.3 h 1 l 0.2,-0.1 0.8,-0.7 0.3,-0.7 v -1 m -3.8,6 -3.1,1.2 0.9,-2.9 -0.9,0.3 -0.7,-0.1 -0.3,-0.1 -0.6,-0.8 -0.3,-0.5 v -1 l 0.3,-0.8 0.8,-0.6 0.8,-0.3 h 1 l 0.3,0.1 0.5,0.5 m 19.9,15.6 -0.5,0.5 v 0.9 l 0.2,0.6 0.6,0.8 1,0.3 1.5,-0.2 1.5,-0.5 1,-0.6 0.4,-0.8 v -0.9 l -0.1,-0.3 -0.5,-0.8 -0.8,-0.4 h -0.9 l -0.3,0.1 -0.8,0.6 -0.4,0.7 v 1 l 0.1,0.3 0.6,0.7 0.7,0.4 h 1 m -6.6,-6.4 4.9,1.5 -1.4,-4.3 m -3.5,2.8 6,-2 m 13.3,-1.5 0.6,-0.4 0.1,-0.9 -0.1,-0.6 -0.4,-0.8 -1,-0.5 -1.5,-0.1 -1.5,0.3 -1.1,0.5 -0.5,0.7 -0.2,0.9 0.1,0.3 0.4,0.8 0.7,0.5 0.9,0.2 0.3,-0.1 0.9,-0.4 0.5,-0.7 0.1,-0.9 v -0.3 l -0.5,-0.9 -0.7,-0.5 -0.9,-0.1 m 5.5,7.4 -4.6,-2.3 0.7,4.4 m 3.9,-2.1 -6.2,1 m 13.2,-13.5 0.1,0.6 0.8,0.5 0.6,0.2 1,-0.1 0.8,-0.7 0.6,-1.4 0.4,-1.5 v -1.2 l -0.5,-0.7 -0.8,-0.5 -0.3,-0.1 -0.9,0.1 -0.7,0.4 -0.5,0.8 -0.1,0.3 0.1,0.9 0.4,0.8 0.8,0.5 h 0.3 0.9 l 0.8,-0.5 0.5,-0.8 m -7.4,2.5 0.9,-0.1 0.5,-0.5 0.1,-0.5 -0.1,-0.7 -0.5,-0.4 -1.1,-0.6 -0.8,-0.5 -0.5,-0.8 -0.1,-0.6 0.2,-0.9 0.5,-0.5 0.3,-0.2 1,-0.1 1.1,0.3 0.8,0.5 0.2,0.4 0.2,0.6 -0.2,0.9 -0.5,0.5 -0.7,0.5 h -0.9 -1.3 l -0.6,0.2 -0.5,0.5 -0.1,0.6 0.1,0.6 0.8,0.5 1.3,0.4 m 32.2,36.5 -0.4,0.5 0.1,1 0.2,0.5 0.7,0.7 1,0.2 1.5,-0.3 1.4,-0.6 1,-0.7 0.3,-0.8 -0.1,-1 -0.1,-0.3 -0.7,-0.7 -0.8,-0.3 -0.9,0.1 -0.3,0.1 -0.7,0.7 -0.3,0.8 0.1,0.9 0.1,0.3 0.7,0.7 0.7,0.3 1,-0.1 m -6.5,-6.6 -0.4,0.5 0.1,1 0.2,0.5 0.6,0.7 1.1,0.2 1.5,-0.3 1.4,-0.6 0.9,-0.8 0.4,-0.8 -0.1,-0.9 -0.1,-0.3 -0.7,-0.7 -0.8,-0.3 -0.9,0.1 -0.3,0.1 -0.7,0.6 -0.3,0.8 0.1,1 0.1,0.2 0.6,0.8 0.8,0.3 1,-0.1 m -218.9,-12.5 2,4.7 2.4,-3.8 m -4.4,-0.9 5.4,3.3 m -26.4,-23.6 h 3 l 0.3,-2.7 -0.3,0.3 -0.9,0.3 h -0.9 l -0.9,-0.3 -0.6,-0.6 -0.3,-0.9 v -0.6 l 0.4,-0.9 0.6,-0.6 0.9,-0.3 h 0.9 l 0.9,0.3 0.3,0.3 0.3,0.7 m 170.4,182.9 0.2,-0.6 -0.4,-0.8 -0.5,-0.5 -0.8,-0.4 -1.1,0.2 -1.2,0.9 -1.1,1.1 -0.6,1 v 0.9 l 0.4,0.8 0.2,0.2 0.9,0.5 0.8,-0.1 0.9,-0.4 0.2,-0.2 0.4,-0.9 v -0.8 l -0.4,-0.8 -0.3,-0.3 -0.8,-0.4 h -0.9 l -0.8,0.5 m 8.5,3.7 0.2,-0.7 -0.4,-0.8 -0.5,-0.4 -0.8,-0.4 -1.1,0.2 -1.2,0.8 -1.1,1.1 -0.6,1.1 v 0.8 l 0.4,0.9 0.2,0.2 0.9,0.4 h 0.8 l 0.9,-0.5 0.2,-0.2 0.4,-0.8 v -0.9 l -0.4,-0.8 -0.2,-0.2 -0.9,-0.4 h -0.8 l -0.9,0.4 m 50.9,20 -0.4,-0.6 -0.9,-0.2 h -0.6 l -0.9,0.4 -0.5,0.9 -0.2,1.6 0.2,1.5 0.4,1.1 0.6,0.6 1,0.2 h 0.3 l 0.8,-0.4 0.6,-0.7 0.2,-0.9 v -0.3 l -0.4,-0.9 -0.7,-0.5 -0.9,-0.2 h -0.3 l -0.9,0.4 -0.5,0.6 -0.2,1 m 8.7,-5 -2.5,6.5 m -1.7,-6.2 4.2,-0.3 m 57.6,-120 0.2,0.7 0.8,0.5 0.6,0.1 0.9,-0.1 0.8,-0.8 0.6,-1.4 0.3,-1.4 v -1.3 l -0.5,-0.7 -0.8,-0.5 h -0.3 l -1,0.1 -0.7,0.4 -0.5,0.9 v 0.3 l 0.1,0.9 0.5,0.7 0.8,0.5 0.3,0.1 0.9,-0.1 0.7,-0.5 0.5,-0.8 m -9.8,2.2 4.3,-5.6 m -0.2,6.5 -4.1,-0.9 m 17.5,22.3 v -0.6 l -0.6,-1.2 5.9,2.2 m -5,-5 -0.1,0.9 0.7,0.9 1.3,0.8 0.8,0.3 1.5,0.3 1.1,-0.3 0.6,-0.7 0.2,-0.6 v -0.9 l -0.6,-0.9 -1.3,-0.8 -0.9,-0.3 -1.5,-0.3 -1,0.3 -0.6,0.7 -0.2,0.4 m 2.5,-2.6 -0.1,-0.6 -0.5,-1.2 5.9,2.2 m -11.3,48.1 -0.6,0.4 -0.1,0.9 v 0.6 l 0.4,0.8 1,0.5 1.5,0.2 1.5,-0.2 1.2,-0.4 0.5,-0.7 0.2,-0.9 -0.1,-0.3 -0.4,-0.9 -0.6,-0.5 -1,-0.2 h -0.3 l -0.8,0.4 -0.5,0.7 -0.2,0.9 v 0.3 l 0.4,0.9 0.7,0.5 0.9,0.2 m -3.3,-4.6 -0.4,-0.6 -1,-0.8 6.2,-0.7 m -49.8,-10.4 0.6,-0.2 0.4,-0.9 v -0.6 l -0.2,-0.9 -0.8,-0.7 -1.5,-0.4 -1.5,-0.1 -1.2,0.2 -0.7,0.5 -0.3,0.9 -0.1,0.3 0.3,0.9 0.5,0.6 0.9,0.4 h 0.3 l 0.9,-0.2 0.7,-0.5 0.3,-0.9 0.1,-0.3 -0.3,-0.9 -0.5,-0.7 -0.9,-0.3 m 2.2,5.7 0.3,0.1 0.6,0.3 0.3,0.3 0.2,0.7 -0.1,1.2 -0.3,0.5 -0.4,0.3 -0.6,0.2 H 446 l -0.5,-0.4 -0.9,-0.6 -2.7,-3.3 -0.4,4.2 m 13.1,35 h -1 l -0.8,-0.3 -0.6,-0.7 -0.1,-0.3 -0.1,-0.9 0.4,-0.8 0.7,-0.6 0.3,-0.1 0.9,-0.1 0.8,0.3 0.6,0.7 0.1,0.3 0.1,0.9 -0.3,0.8 -1,0.8 -1.4,0.6 -1.5,0.3 -1.1,-0.3 -0.6,-0.7 -0.2,-0.5 -0.1,-1 0.4,-0.5 m 7.4,3.7 -0.6,-0.7 -0.7,-0.1 -0.5,0.3 -0.4,0.5 -0.1,0.7 0.2,1.2 0.1,0.9 -0.4,0.8 -0.4,0.5 -0.8,0.4 -0.7,-0.1 -0.4,-0.1 -0.6,-0.8 -0.5,-1.1 v -0.9 l 0.1,-0.4 0.5,-0.5 0.8,-0.4 0.7,0.1 0.7,0.3 0.7,0.7 0.7,1 0.5,0.5 h 0.7 l 0.5,-0.2 0.5,-0.5 -0.1,-1 -0.5,-1.2 m 18.6,25 0.7,-0.2 1,-0.6 -1.5,6.1 m 4.5,-5.6 -1,0.1 -0.8,0.7 -0.7,1.4 -0.2,0.9 -0.1,1.5 0.4,1 0.8,0.5 0.5,0.2 1,-0.1 0.8,-0.7 0.7,-1.4 0.2,-0.9 0.1,-1.5 -0.4,-1 -0.8,-0.5 -0.4,-0.1 m 2.9,2.2 0.6,-0.2 1.1,-0.6 -1.6,6.1 m 10.3,-15.5 -0.6,0.3 -0.4,0.9 v 0.6 l 0.3,0.9 0.9,0.6 1.5,0.4 h 1.5 l 1.2,-0.3 0.6,-0.6 0.3,-0.9 v -0.3 l -0.2,-0.9 -0.6,-0.6 -0.9,-0.3 h -0.3 l -0.9,0.3 -0.6,0.6 -0.4,0.9 v 0.3 l 0.3,0.9 0.6,0.6 0.9,0.3 m -2.7,-5 -0.3,-0.6 -0.9,-0.9 h 6.3 m -61.3,-4 h 0.9 l 0.7,0.5 0.5,0.8 0.1,0.3 -0.1,0.9 -0.4,0.7 -0.8,0.5 -0.3,0.1 -1,-0.1 -0.7,-0.4 -0.5,-0.8 -0.1,-0.3 0.1,-1 0.5,-0.7 1.1,-0.5 1.4,-0.4 h 1.5 l 1.1,0.3 0.5,0.8 0.1,0.6 -0.1,1 -0.5,0.4 m -6.7,-4.8 0.5,0.8 0.7,0.1 0.5,-0.1 0.6,-0.4 0.1,-0.7 v -1.2 l 0.1,-1 0.4,-0.7 0.6,-0.4 0.8,-0.2 0.7,0.1 0.4,0.2 0.5,0.8 0.2,1.2 -0.1,0.9 -0.2,0.4 -0.5,0.4 -0.9,0.2 -0.6,-0.1 -0.7,-0.4 -0.5,-0.9 -0.6,-1.1 -0.4,-0.5 -0.7,-0.1 -0.6,0.1 -0.5,0.4 -0.1,1 0.3,1.3 m -12.2,-19.5 0.2,-0.9 0.5,-0.7 0.8,-0.4 0.3,-0.1 0.9,0.2 0.7,0.5 0.5,0.8 v 0.3 l -0.1,0.9 -0.5,0.7 -0.9,0.5 h -0.3 l -0.9,-0.1 -0.7,-0.5 -0.5,-1.2 -0.2,-1.4 V 683 l 0.5,-1 0.8,-0.4 0.6,-0.1 0.9,0.2 0.4,0.5 m -8,4.7 0.2,-1 0.5,-0.7 0.8,-0.4 0.3,-0.1 0.9,0.2 0.7,0.5 0.5,0.8 v 0.3 l -0.1,1 -0.5,0.6 -0.9,0.5 h -0.3 l -0.9,-0.1 -0.7,-0.5 -0.5,-1.1 -0.2,-1.5 v -1.6 l 0.5,-0.9 0.8,-0.5 0.6,-0.1 0.9,0.2 0.4,0.5 m -137.8,-199.2 0.1,0.9 -0.3,0.8 -0.8,0.7 -0.2,0.1 -1,0.1 -0.8,-0.4 -0.6,-0.7 -0.1,-0.3 -0.1,-0.9 0.3,-0.8 0.7,-0.6 0.3,-0.1 1,-0.1 0.7,0.3 0.8,1 0.6,1.4 0.3,1.5 -0.2,1 -0.7,0.7 -0.6,0.2 -0.9,0.1 -0.5,-0.5 m 5.1,-8.1 -1.1,5.1 4.1,-1.8 m -3,-3.3 2.5,5.8 m -49.7,-1.5 2.4,2.3 -3,0.4 0.6,0.7 0.2,0.6 0.1,0.4 -0.5,0.9 -0.4,0.4 -0.8,0.4 h -0.9 l -0.8,-0.4 -0.7,-0.6 -0.4,-0.9 v -0.4 l 0.2,-0.6 m 9.9,2.6 -2.1,-2.1 -2.1,1.7 h 0.4 l 0.9,0.4 0.6,0.7 0.4,0.8 0.1,0.9 -0.5,0.8 -0.4,0.4 -0.8,0.5 h -0.9 l -0.8,-0.4 -0.7,-0.7 -0.4,-0.8 V 492 l 0.2,-0.7"
       id="nums_001"
       stroke="#000000"
       stroke-width="1" />
    <path
       d="m 267.7,443.7 71.6,-11.8 -13.5,40.8 -76.7,32.5 -23.75,-23.5 -74.05,35.6 93,1.7 -39.6,64.7 43.4,14.2 73,-27 16.8,-40.9 40.4,-15.6 14.6,45 -7.5,-46.7 39.5,9.8 30.7,70.4 55.8,11.9 -14.9,39.7 5.3,45.7 -0.6,45.9 -41,-10.7 -21.7,-52 3,-34 -5.1,33.1 -30.8,10.3 32.1,-5.3 13,54.8 -56.8,5.1 -54.9,-53.8 12.9,-39.6 -17,38 -40.7,-0.2 10.1,-43.2 -8.9,43.5 L 227.7,658.4 156,628.3 97,581.8 59.8,536.5 72.9,478.1 74.5,432.1 149,385.3 66.4,415.4 27.3,365.5 24.6,270.2 8.7,188.1 36.1,134.7 72.6,192 l -4,38.2 70.1,11.1 45.5,51.5 -48.1,29.3 56.25,-3.85 -4.35,-68.35 -60.5,-37 16.4,-34.7 -30.8,-60.6 1.3,60 -53.9,-37.3 0.3,-55.5 61,-56.2 44.8,-16.5 13.8,40.3 57,-8 6.3,47.1 -3.3,-47.4 28.2,-12.8 31.9,31.6 62.5,36.9 8.8,47.9 -57.9,18.3 -57.6,-17.8 -39.9,25.6 -31.7,-46.3 15.7,53.8 47.4,-1.9 33.6,50.1 56.7,21.7 15.4,-46.2 24.6,-18.5 83.6,36.5 34.9,26.6 -15.1,26.4 -25.9,32.3 -36.2,-44.3 -0.2,43.4 -50.8,-3.3 -62,-13.3 61.1,17.2 50.9,-0.6 -17.6,40.6 41.6,65.8 28.6,35.5 -73.2,20.1 6.1,-57.6 -20.9,-47.9 -37,10.9 -19.8,39.5 -33.3,-3.2 z"
       id="coupes_001"
       stroke="#ff0000"
       stroke-width="1.27"
       sodipodi:nodetypes="ccccccccccccccccccccccccccccccccccccccccccccccccccccccccccccccccccccccccccccccccccccccccccccccccccc" />
    <path
       d="m 149,385.3 h 94 m 0,0 24.7,58.4 m 0,0 L 149,385.3 m 0,0 -12.9,-63.2 m 0,0 106.9,63.2 m 0,0 50.1,25.4 M 192.3,318 243,385.3 m 24.7,58.4 -82.2,5.1 M 192.3,318 251,309.9 m 95,64.9 -103,10.5 m 103,-10.5 -53.3,36.7 m 45.4,-160.3 30.3,52.9 m -14.9,-99.1 65.9,59 m 0,0 -51,40.1 M 188,249.9 247.8,179.4 m -59.8,70.5 12.4,-68.6 m -56.5,-3.1 56.5,3.1 M 367.5,308 346,374.8 m 21.5,-66.8 33.3,40 m 0,0 -17.8,15.9 m 17.8,-15.9 3.1,63.8 m 38.5,2 -38.5,-2 M 64.5,310.2 l 71.6,11.9 m -67.5,-91.9 67.5,91.9 m 2.6,-80.8 -2.6,80.8 m -111.4,-52 43.9,-39.9 m -4.1,80 -39.8,-40.1 m -16,-82 63.9,3.9 M 27.3,365.5 64.5,310.2 M 149,385.3 27.3,365.5 m 198,116.3 -39.8,-33 m 140.3,23.9 -100.5,9.1 m 42.4,-38.1 58.1,29 M 143.9,178.2 184.7,127.5 m -71.6,-9.9 71.6,9.9 m -71.6,-9.9 67.3,-65.2 m 0,0 4.3,75.1 m 59,-36 -59,36 m -71.6,-9.9 53.5,-105.5 m -53.5,105.5 -52.6,22.7 m 183.2,-48.8 -27.3,82.3 m 27.3,-82.3 12.6,56.7 M 243.7,91.5 371.8,147.7 M 243.7,91.5 363,99.8 m 98.7,123.2 19.8,53 m 0,0 -62.1,-12 M 185.5,448.8 74.5,432.1 m 111,16.7 -112.6,29.3 m 78.4,39.2 -78.4,-39.2 m 78.4,39.2 -91.5,19.2 M 204.7,583.7 97,581.8 m 54.3,-64.5 53.4,66.4 m 0,0 -48.7,44.6 m 48.7,-44.6 23,74.7 m 76.6,-19.8 -76.6,19.8 m 20.4,-60.5 56.2,40.7 m -56.2,-40.7 122.1,13.3 m -49.1,-40.3 49.1,40.3 m -18.3,32.8 -47.6,-5.4 m 65.9,-27.4 -18.3,32.8 m 18.3,-32.8 71.4,27.9 m -5.2,33.4 -84.5,-28.5 m -30.8,-73.1 71.8,-11.5 m -55,-29.4 55,29.4 m 0,0 48.5,80.3 m -48.5,-80.3 62.7,33.5 M 334.9,682 304.3,638.6 M 405.6,682.8 351.9,644 m 53.7,38.8 -66.6,0.8 m 46.4,-170.9 70.2,80.2 M 450.7,732.3 339,683.6 m 66.6,-0.8 45.1,49.5 m 4.9,-139.4 40.9,51.6 m 0,0 -55.1,-4.8 m 60.4,50.5 -60.4,-50.5 m 60.4,50.5 -63.3,-16.8 m 63.3,16.8 -41.6,35.2"
       id="plisM_001"
       stroke="#a52a2a"
       stroke-dasharray="4" />
    <path
       d="M 185.5,448.8 149,385.3 m 102,-75.4 -8,75.4 m 8,-75.4 55.4,-19.1 m 0,0 -63.4,94.5 m 63.4,-94.5 39.6,84 M 188,249.9 306.4,290.8 m -55.4,19.1 -63,-60 m 0,0 93.4,-20.4 m 0,0 25,61.3 m 31.7,-39.6 -31.7,39.6 m 47.1,-85.8 14.9,99.1 m 9.7,-117.6 41.3,77.5 M 188,249.9 143.9,178.2 M 367.5,308 383,363.9 m 59.4,49.9 -44.6,55.6 M 149,385.3 64.5,310.2 m 0,0 4.1,-80 M 8.7,188.1 68.6,230.2 m 199.1,213.5 -42.4,38.1 M 180.4,52.4 243.7,91.5 m -130.6,26.1 8.7,-89 m -8.7,89 -52.3,-32.8 m 182.9,6.7 70.2,74.5 M 243.7,91.5 300.5,62.9 M 240.4,44.1 300.5,62.9 M 461.7,223 419.4,264 m -233.9,184.8 -34.2,68.5 m 0,0 -54.3,64.5 m 151.1,16.1 -20.4,60.5 m 142.5,-47.2 -65.9,27.4 m 137.3,0.5 -89.7,4.9 m 41,-84.6 -22.7,51.8 m 85.4,-18.3 -14.2,46.8"
       id="plisV_001"
       stroke="#008000"
       stroke-dasharray="4, 1, 1, 1"
       stroke-width="1.27" />
    <path
       d="m 165.3,415 4,4 m 0,-4 -4,4 m 79.7,-73.4 4,4 m 0,-4 -4,4 m 31.7,-51.3 4,4 m 0,-4 -4,4 m -4,33.7 4,4 m 0,-4 -4,4 m 51.5,-9.2 4,4 m 0,-4 -4,4 m -79,-66.5 4,4 m 0,-4 -4,4 m -27.7,5.6 4,4 m 0,-4 -4,4 m 15.2,-44.2 4,4 m 0,-4 -4,4 m 59.2,16.4 4,4 m 0,-4 -4,4 m 28.3,6.9 4,4 m 0,-4 -4,4 m 38.8,-20.4 4,4 m 0,-4 -4,4 m 37.7,-33.3 4,4 m 0,-4 -4,4 M 164,212.1 l 4,4 m 0,-4 -4,4 m 209.2,117.9 4,4 m 0,-4 -4,4 m 44.9,101.6 4,4 m 0,-4 -4,4 m -313.3,-97.8 4,4 m 0,-4 -4,4 m -40.2,-81.6 4,4 m 0,-4 -4,4 m -27.9,-65.1 4,4 m 0,-4 -4,4 m 207.8,249.6 4,4 m 0,-4 -4,4 m -34.4,-394.8 4,4 m 0,-4 -4,4 m -94.6,-2.8 4,4 m 0,-4 -4,4 M 85,99.2 l 4,4 m 0,-4 -4,4 m 191.8,23.5 4,4 m 0,-4 -4,4 m -6.7,-55.5 4,4 m 0,-4 -4,4 m -1.7,-27.7 4,4 m 0,-4 -4,4 m 170.2,186 4,4 m 0,-4 -4,4 m -272.2,235.6 4,4 m 0,-4 -4,4 m -44.2,62.4 4,4 m 0,-4 -4,4 m 113.7,74.7 4,4 m 0,-4 -4,4 m 99.3,-7.3 4,4 m 0,-4 -4,4 m 59.6,12.6 4,4 m 0,-4 -4,4 m -15.3,-60.2 4,4 m 0,-4 -4,4 m 67,27 4,4 m 0,-4 -4,4"
       id="marqueV_001"
       stroke="#008000" />
    <path
       d="m 290.11468,390.24625 1.5,-0.7 2.2,-2.3 v 15.8"
       id="titre_1"
       stroke="#4b0082" />
  </g>
  <g
     id="page_002">
    <path
       d="m 646.3,169.4 -1.7,-6.7 m 4.9,4 -3.2,2.7 m -3.2,2.8 -0.4,-5.1 -3.5,2.9 m 3.9,2.2 -4.1,-4.8 m 30.5,7.3 -0.6,-0.3 -1.2,-0.3 5.3,-3.4 m -7.1,1 0.8,0.6 1,0.1 1.5,-0.6 0.7,-0.5 1.1,-1.1 0.4,-1 -0.2,-0.9 -0.3,-0.5 -0.8,-0.6 h -1 l -1.5,0.6 -0.7,0.5 -1.1,1 -0.4,1 0.2,0.9 0.2,0.4 m -3.6,-5.4 5.2,0.2 -2.5,-3.8 m -2.7,3.6 5.3,-3.5 m -10.7,103.1 0.6,-0.3 0.8,-1 0.6,6.3 m 2.3,-6.8 -0.9,0.4 -0.5,0.9 -0.1,1.6 0.1,0.9 0.4,1.4 0.7,0.9 0.9,0.2 0.6,-0.1 0.9,-0.4 0.5,-0.9 0.2,-1.6 -0.1,-0.9 -0.5,-1.4 -0.7,-0.9 -0.9,-0.2 -0.4,0.1 m 3.9,-0.4 3.3,-0.4 -1.5,2.6 0.9,-0.1 0.6,0.3 0.3,0.2 0.4,0.9 0.1,0.6 -0.2,0.9 -0.6,0.7 -0.9,0.4 -0.8,0.1 -1,-0.3 -0.3,-0.2 -0.4,-0.6 m 55.4,4.8 6.6,2.3 m -6.2,1.9 -0.4,-4.2 m -0.3,-2.7 0.4,0.9 0.7,0.2 h 0.6 l 0.5,-0.4 0.3,-0.6 0.1,-1.2 0.2,-1 0.6,-0.6 0.5,-0.4 0.9,-0.1 0.7,0.3 0.3,0.2 0.4,0.9 0.1,1.2 -0.2,0.9 -0.3,0.4 -0.5,0.3 -0.9,0.1 -0.7,-0.2 -0.6,-0.6 -0.4,-0.8 -0.4,-1.2 -0.4,-0.6 -0.6,-0.2 -0.6,0.1 -0.6,0.3 -0.2,1 0.2,1.3 m -49.6,121.3 h 0.3 l 0.6,0.3 0.3,0.3 0.2,0.7 -0.1,1.2 -0.3,0.5 -0.3,0.3 -0.7,0.3 -0.6,-0.1 -0.5,-0.3 -0.9,-0.7 -2.8,-3.2 -0.3,4.2 m 4.8,1.4 0.3,0.6 0.8,1 -6.3,-0.5 m -6.1,62.1 0.1,0.6 0.6,1.2 -6,-2.1 m 5.3,4.9 v -0.9 l -0.7,-0.9 -1.3,-0.7 -0.9,-0.3 -1.5,-0.2 -1,0.2 -0.6,0.8 -0.2,0.6 v 0.9 l 0.6,0.9 1.4,0.7 0.8,0.3 1.5,0.2 1.1,-0.3 0.6,-0.7 0.1,-0.4 m 57.8,73.5 -0.4,-0.5 -1,-0.8 6.2,-1.1 m -6.4,-3.7 -0.6,0.4 -0.1,1 0.1,0.6 0.5,0.8 1,0.4 h 1.5 l 1.5,-0.2 1.1,-0.6 0.5,-0.7 0.1,-0.9 -0.1,-0.3 -0.4,-0.8 -0.7,-0.5 -1,-0.1 h -0.3 l -0.8,0.5 -0.5,0.7 -0.1,0.9 0.1,0.3 0.4,0.9 0.7,0.4 1,0.2 m 0.6,-331.5 5.6,4.1 m -6.4,0 0.8,-4.1 m 3,-4.6 0.8,0.5 0.5,0.7 0.1,0.9 v 0.3 l -0.5,0.8 -0.7,0.5 -0.9,0.1 h -0.3 l -0.9,-0.5 -0.4,-0.7 -0.2,-0.9 0.1,-0.3 0.5,-0.9 0.7,-0.4 1.2,-0.1 1.5,0.3 1.4,0.6 0.8,0.7 0.1,1 -0.1,0.5 -0.5,0.9 -0.6,0.2 m -44.7,-49.3 0.5,0.4 1.1,0.6 -5.9,2 m 7.1,0.7 -0.6,-0.7 -1,-0.3 -1.5,0.2 -0.9,0.3 -1.3,0.7 -0.7,0.9 v 0.9 l 0.2,0.6 0.6,0.8 1,0.3 1.6,-0.2 0.8,-0.3 1.3,-0.8 0.7,-0.9 v -0.9 l -0.2,-0.4 m 2.2,6.1 -4.9,-1.5 1.4,4.3 m 3.5,-2.8 -6,2.1 m 1.2,-93 -1.9,-6.7 m 5,3.9 -3.1,2.8 m -4.1,2.5 0.6,0.2 0.9,-0.4 0.4,-0.4 0.5,-0.8 -0.2,-1 -0.7,-1.4 -1,-1.1 -1.1,-0.7 h -0.8 l -0.9,0.3 -0.2,0.2 -0.5,0.9 v 0.8 l 0.4,0.9 0.2,0.2 0.8,0.5 h 0.8 l 0.9,-0.3 0.2,-0.2 0.5,-0.9 V 72 l -0.3,-0.9 m -10.5,41.5 -6.9,-0.5 m 5.4,-3.4 1.5,3.9 m 0.7,1.6 1.1,3.1 -2.9,-0.8 0.4,0.8 -0.1,0.7 -0.2,0.4 -0.7,0.6 -0.6,0.2 -0.9,0.1 -0.8,-0.4 -0.6,-0.7 -0.3,-0.9 v -0.9 l 0.1,-0.4 0.5,-0.5 m 64.5,-52.9 -0.3,-0.6 -0.8,-0.9 6.3,0.2 m -6.4,-3.2 0.2,0.9 0.9,0.7 1.5,0.3 h 0.9 l 1.5,-0.2 0.9,-0.6 0.4,-0.8 v -0.6 l -0.3,-1 -0.8,-0.6 -1.5,-0.3 -0.9,-0.1 -1.5,0.3 -1,0.5 -0.3,0.9 V 58 m 1.1,-7 -0.6,0.3 -0.3,0.9 v 0.6 l 0.2,0.9 0.9,0.6 1.5,0.4 h 1.5 l 1.2,-0.2 0.6,-0.6 0.4,-0.9 v -0.3 l -0.3,-0.9 -0.6,-0.6 -0.8,-0.4 h -0.3 l -1,0.3 -0.6,0.6 -0.3,0.9 v 0.3 l 0.2,0.9 0.6,0.6 0.9,0.3 m -10,-5.1 1.6,-6.8 m 2.5,6 -4.1,0.8 m -4.6,1 2.9,-0.6 -0.3,-2.7 -0.2,0.3 -0.8,0.5 -0.9,0.2 -0.9,-0.1 -0.8,-0.5 -0.4,-0.8 -0.2,-0.6 0.1,-0.9 0.5,-0.7 0.8,-0.5 0.9,-0.2 0.9,0.1 0.4,0.2 0.4,0.6 m 12.5,552.3 4.9,1.6 -1.3,-4.3 m -3.6,2.7 6,-1.8 m -7.7,-3.8 4.9,1.7 -1.3,-4.3 m -3.6,2.6 6.1,-1.8 m -21.2,57.6 2.6,6.5 m -5.4,-3.4 2.8,-3.1 m -70.4,18.9 3.2,0.7 -2.2,1.9 0.9,0.2 0.5,0.4 0.2,0.4 0.1,0.9 -0.1,0.6 -0.5,0.8 -0.7,0.5 -0.9,0.1 -0.9,-0.2 -0.8,-0.5 -0.3,-0.3 -0.1,-0.7 m 117.3,-592.9 -0.6,0.4 -0.7,1 -0.8,-6.2 m -2.1,6.8 0.8,-0.4 0.5,-1 0.1,-1.5 -0.1,-0.9 -0.5,-1.5 -0.7,-0.8 -0.9,-0.2 -0.6,0.1 -0.9,0.4 -0.5,1 -0.1,1.5 0.1,0.9 0.5,1.5 0.7,0.8 1,0.2 0.4,-0.1 m -7.1,0 0.4,0.6 0.9,0.1 h 0.6 l 0.9,-0.4 0.5,-1 0.1,-1.5 -0.2,-1.5 -0.4,-1.2 -0.7,-0.5 -0.9,-0.2 -0.3,0.1 -0.9,0.4 -0.5,0.6 -0.2,1 V 77 l 0.4,0.8 0.7,0.5 0.9,0.2 h 0.3 l 0.9,-0.4 0.5,-0.7 0.2,-0.9 m -9.7,99.8 0.6,-0.3 0.9,-0.9 -0.1,6.3 m 3,-6.5 -0.9,0.3 -0.6,0.9 -0.3,1.5 v 0.9 l 0.3,1.5 0.6,0.9 0.9,0.3 h 0.6 l 0.9,-0.3 0.6,-0.9 0.3,-1.5 v -0.9 l -0.3,-1.5 -0.6,-0.9 -0.9,-0.3 h -0.4 m 7,0.1 h -3 l -0.3,2.7 0.3,-0.3 0.9,-0.3 h 0.9 l 0.9,0.3 0.5,0.6 0.3,0.9 v 0.6 l -0.3,0.9 -0.6,0.6 -0.9,0.3 h -0.9 l -0.9,-0.3 -0.3,-0.3 -0.3,-0.6 M 789.8,66 788.7,59.1 m 4.6,4.5 -3.5,2.4 m -3.9,2.7 2.5,-1.7 -1.3,-2.4 -0.1,0.4 -0.6,0.8 -0.7,0.5 -0.9,0.2 -0.8,-0.1 -0.8,-0.6 -0.3,-0.5 -0.3,-0.9 0.1,-0.8 0.6,-0.8 0.7,-0.5 1,-0.3 0.4,0.1 0.6,0.3 m 2.5,21.4 6.1,3.4 m -6.3,0.8 0.2,-4.2 m 1.2,-4.7 -0.6,0.3 -0.4,0.9 v 0.6 l 0.2,0.9 0.9,0.6 1.5,0.4 1.5,0.1 1.2,-0.2 0.6,-0.6 0.4,-0.8 V 81 l -0.2,-0.9 -0.6,-0.7 -0.9,-0.3 -0.3,-0.1 -0.9,0.3 -0.6,0.5 -0.4,0.9 V 81 l 0.2,0.9 0.6,0.7 0.9,0.3 m -9.4,97.2 -4.4,5.4 m 0.4,-6.4 4,1 m 1.3,1.8 0.1,-0.2 0.4,-0.6 0.4,-0.2 0.6,-0.1 1.2,0.3 0.5,0.4 0.2,0.4 0.2,0.6 -0.2,0.6 -0.4,0.5 -0.8,0.7 -3.7,2.2 4.1,1 m 23.6,-45 6.4,-2.8 m -3.2,5.5 -3.2,-2.7 m -1.3,-1.2 -2.4,-2.2 2.9,-0.6 -0.7,-0.6 -0.2,-0.6 -0.1,-0.4 0.4,-0.9 0.4,-0.4 0.8,-0.5 0.9,-0.1 0.9,0.4 0.6,0.6 0.5,0.8 v 0.4 l -0.1,0.7 m -1,31.5 2.8,6.4 m -5.6,-3.2 2.8,-3.2 m 2.7,-3.3 1.3,5 2.9,-3.4 m -4.2,-1.6 4.8,4.1 m -209.7,37.5 -3.3,-6.2 m 5.8,2.8 -2.5,3.4 m -1.8,0 -0.1,0.6 0.2,1.3 -5,-3.8 m -31.2,430.8 0.2,-0.3 0.6,-0.2 0.5,-0.1 0.6,0.2 1,0.7 0.2,0.6 0.1,0.4 -0.2,0.7 -0.3,0.5 -0.6,0.2 -1.1,0.4 -4.2,0.4 3.3,2.7 m 6.5,-0.2 -0.8,0.6 -0.8,0.1 -0.9,-0.4 -0.2,-0.2 -0.5,-0.8 -0.1,-0.8 0.3,-0.9 0.2,-0.2 0.8,-0.5 0.8,-0.1 0.9,0.3 0.3,0.2 0.5,0.8 0.1,0.8 -0.6,1.1 -0.9,1.2 -1.2,1 -1,0.3 -0.9,-0.3 -0.5,-0.4 -0.5,-0.8 0.2,-0.6 m 9.9,-65.3 0.1,-0.9 0.5,-0.7 0.8,-0.5 0.3,-0.1 0.9,0.1 0.8,0.5 0.4,0.8 0.1,0.3 -0.1,0.9 -0.5,0.7 -0.8,0.5 -0.3,0.1 -0.9,-0.1 -0.7,-0.5 -0.6,-1.1 -0.3,-1.5 v -1.5 l 0.4,-1 0.8,-0.5 0.6,-0.1 0.9,0.1 0.5,0.5 m -32.1,26.4 h 0.3 l 0.6,0.3 0.3,0.3 0.2,0.6 v 1.2 l -0.3,0.6 -0.3,0.3 -0.6,0.3 h -0.6 l -0.6,-0.3 -0.9,-0.7 -2.9,-3.1 -0.1,4.2 m 68.7,-101.3 -3.2,0.6 1.3,-2.7 -0.9,0.2 -0.6,-0.2 -0.4,-0.2 -0.5,-0.9 -0.1,-0.5 0.2,-1 0.4,-0.7 0.9,-0.5 0.8,-0.1 1,0.1 0.3,0.2 0.4,0.6 m -7.9,5.8 0.4,0.5 0.9,0.1 0.6,-0.1 0.8,-0.4 0.4,-1 v -1.6 l -0.2,-1.4 -0.6,-1.2 -0.7,-0.4 -0.9,-0.2 -0.3,0.1 -0.8,0.5 -0.5,0.7 -0.1,0.9 v 0.3 l 0.5,0.8 0.7,0.5 0.9,0.1 h 0.3 l 0.9,-0.5 0.4,-0.7 0.2,-0.9 m -5.6,31.3 -1,0.2 -0.8,-0.2 -0.7,-0.7 -0.1,-0.2 -0.2,-0.9 0.2,-0.9 0.6,-0.7 0.3,-0.1 0.9,-0.2 0.8,0.2 0.7,0.6 0.2,0.3 0.2,0.9 -0.2,0.8 -0.9,0.9 -1.3,0.7 -1.5,0.5 h -1 l -0.8,-0.7 -0.3,-0.5 -0.2,-0.9 0.4,-0.6 m 141,-52.5 0.1,5.1 3.6,-2.6 m -3.7,-2.5 3.8,5 m 1.8,-8 -0.6,-0.3 -0.9,0.3 -0.5,0.4 -0.5,0.8 v 1 l 0.7,1.4 0.9,1.2 0.9,0.8 0.9,0.1 0.9,-0.3 0.2,-0.1 0.6,-0.8 0.1,-0.9 -0.3,-0.9 -0.2,-0.2 -0.8,-0.5 -0.8,-0.2 -0.9,0.3 -0.2,0.2 -0.6,0.8 -0.1,0.8 0.3,0.9 m 13.4,-54.6 3.7,-3.6 -4.4,-0.8 m 0.7,4.4 1.2,-6.2 m -5.3,5.4 1,-0.2 0.4,-0.5 0.1,-0.6 -0.2,-0.6 -0.5,-0.4 -1.2,-0.6 -0.8,-0.4 -0.5,-0.7 -0.2,-0.7 0.2,-0.8 0.4,-0.6 0.4,-0.2 0.9,-0.2 1.2,0.3 0.8,0.4 0.3,0.4 0.1,0.6 -0.1,0.9 -0.4,0.5 -0.7,0.5 -1,0.1 -1.2,0.1 -0.6,0.2 -0.5,0.5 -0.1,0.6 0.2,0.7 0.9,0.4 1.3,0.3 m 20.6,16.9 3.7,3.7 0.7,-4.5 m -4.4,0.8 6.2,1.1 m -2.9,-7.2 0.8,0.4 0.5,0.7 0.1,1 v 0.3 l -0.5,0.8 -0.7,0.5 -0.9,0.1 h -0.3 l -0.8,-0.5 -0.5,-0.7 -0.2,-0.9 0.1,-0.3 0.4,-0.8 0.7,-0.5 1.3,-0.1 1.4,0.2 1.5,0.6 0.8,0.7 0.1,1 -0.1,0.6 -0.5,0.8 -0.6,0.2 m -26.3,-38.6 -2.6,4.4 4.5,-0.4 m -1.9,-4 0.5,6.2 m 3.7,-6.5 -0.9,0.4 -0.3,0.6 0.1,0.6 0.3,0.6 0.7,0.2 1.2,0.2 0.9,0.2 0.6,0.6 0.4,0.6 0.1,0.9 -0.3,0.6 -0.3,0.3 -0.8,0.4 -1.2,0.1 -1,-0.3 -0.3,-0.2 -0.3,-0.6 -0.1,-0.9 0.3,-0.6 0.5,-0.7 0.9,-0.3 1.2,-0.4 0.5,-0.4 0.3,-0.6 -0.1,-0.6 -0.3,-0.6 -0.9,-0.2 -1.4,0.1 m -9.4,-79.9 1.5,-5 -4.3,1.5 m 2.8,3.5 -2.1,-6 m -4.3,8.1 0.8,-7 m 3.2,5.6 -4,1.4 m 49.9,59.4 -0.2,-0.1 -0.4,-0.6 -0.2,-0.4 0.1,-0.6 0.5,-1.1 0.6,-0.4 0.4,-0.1 h 0.6 l 0.6,0.3 0.4,0.5 0.5,1 1.2,4 2,-3.7 m -3.4,-7.1 -1.4,2.6 2.3,1.6 -0.2,-0.5 0.2,-0.9 0.4,-0.8 0.7,-0.6 0.8,-0.3 0.9,0.1 0.6,0.3 0.6,0.7 0.3,0.8 -0.2,1 -0.4,0.8 -0.7,0.6 -0.4,0.1 H 802 m -12.2,-39 -0.2,0.2 -0.7,0.3 h -0.4 l -0.6,-0.2 -1,-0.7 -0.2,-0.6 -0.1,-0.5 0.2,-0.6 0.4,-0.5 0.6,-0.2 1,-0.4 4.3,-0.3 -3.2,-2.7 m -5.4,3.7 -2.6,-2.1 3,-0.7 -0.7,-0.6 -0.3,-0.6 v -0.4 l 0.3,-0.9 0.4,-0.5 0.8,-0.5 h 0.9 l 0.8,0.3 0.7,0.6 0.5,0.8 0.1,0.4 -0.2,0.7 m -196.4,-88.2 -0.4,3.2 -2.2,-2.1 -0.1,0.9 -0.4,0.6 -0.3,0.2 -0.9,0.2 -0.6,-0.1 -0.9,-0.4 -0.5,-0.7 -0.2,-0.9 0.2,-0.9 0.4,-0.9 0.3,-0.2 0.7,-0.2 m 1.6,9.5 -0.8,-0.4 -0.5,-0.7 -0.2,-0.9 0.1,-0.3 0.4,-0.8 0.7,-0.5 0.9,-0.2 h 0.3 l 0.8,0.4 0.5,0.7 0.2,1 v 0.3 l -0.4,0.8 -0.7,0.5 -1.3,0.1 -1.4,-0.2 -1.5,-0.5 -0.8,-0.7 -0.2,-0.9 0.1,-0.6 0.4,-0.9 0.7,-0.2 m 20.5,39.3 -0.6,-0.3 -0.9,0.2 -0.5,0.3 -0.6,0.8 -0.1,1.1 0.6,1.4 0.8,1.2 0.9,0.9 0.8,0.2 1,-0.3 0.2,-0.1 0.6,-0.8 0.2,-0.8 -0.2,-0.9 -0.2,-0.3 -0.7,-0.6 -0.9,-0.1 -0.9,0.2 -0.2,0.2 -0.6,0.7 -0.2,0.8 0.2,0.9 m 5,-8.1 -2.5,1.6 1.2,2.4 0.1,-0.4 0.6,-0.7 0.7,-0.5 1,-0.3 0.8,0.2 0.7,0.6 0.4,0.5 0.2,0.9 -0.2,0.9 -0.6,0.7 -0.8,0.5 -0.9,0.2 -0.4,-0.1 -0.6,-0.3 m -21.8,-1.4 0.6,-0.3 0.3,-0.9 v -0.6 l -0.4,-0.9 -0.9,-0.6 -1.5,-0.2 h -1.5 l -1.2,0.3 -0.6,0.7 -0.2,0.9 v 0.3 l 0.3,0.9 0.6,0.5 0.9,0.3 h 0.3 l 0.9,-0.3 0.6,-0.6 0.3,-0.9 v -0.3 l -0.4,-0.9 -0.6,-0.6 -0.9,-0.3 m 4.4,5.5 0.1,3.3 -2.5,-1.7 v 0.9 l -0.2,0.6 -0.3,0.3 -0.9,0.3 h -0.6 l -0.9,-0.2 -0.7,-0.6 -0.3,-0.9 v -0.9 l 0.3,-0.9 0.3,-0.3 0.6,-0.3 m 89.9,-9.6 -0.5,0.5 -0.5,1.1 -2.1,-5.9 m -0.6,7.1 0.7,-0.6 0.3,-1 -0.2,-1.6 -0.3,-0.8 -0.8,-1.3 -0.9,-0.7 h -0.9 l -0.6,0.2 -0.8,0.6 -0.2,1.1 0.2,1.5 0.3,0.8 0.8,1.4 0.8,0.6 h 1 l 0.4,-0.2 m -3.7,1.4 -3.1,1.1 0.8,-2.9 -0.8,0.3 -0.7,-0.1 -0.3,-0.2 -0.6,-0.7 -0.2,-0.6 v -0.9 l 0.3,-0.8 0.8,-0.6 0.8,-0.3 h 1 l 0.3,0.2 0.5,0.5 m -2.5,36.5 -4.8,-1.7 1.2,4.3 m 3.6,-2.6 -6,1.8 m 7.8,4.1 -0.9,-2.8 -2.7,0.5 0.4,0.2 0.6,0.7 0.2,0.9 v 1 l -0.4,0.7 -0.8,0.5 -0.6,0.2 h -0.9 l -0.8,-0.4 -0.5,-0.8 -0.3,-0.9 0.1,-0.9 0.2,-0.4 0.4,-0.4 m 187,219 2.9,0.9 1.1,-2.5 -0.4,0.2 h -1 l -0.8,-0.3 -0.8,-0.5 -0.4,-0.8 v -0.9 l 0.2,-0.6 0.5,-0.8 0.8,-0.4 h 0.9 l 0.9,0.3 0.8,0.6 0.2,0.3 0.1,0.7 m -9.8,1.3 0.1,0.7 0.7,0.5 0.6,0.2 h 1 l 0.8,-0.7 0.7,-1.3 0.5,-1.5 0.1,-1.2 -0.4,-0.7 -0.8,-0.6 -0.3,-0.1 h -0.9 l -0.8,0.4 -0.5,0.8 -0.1,0.3 v 0.9 l 0.4,0.8 0.7,0.5 0.3,0.1 h 1 l 0.7,-0.4 0.6,-0.8 m -57.6,-58.9 -0.4,0.5 -0.5,1.2 -2.4,-5.9 m 1,5.2 -0.5,0.5 -0.5,1.2 -2.3,-5.9 m -3.1,43.2 0.5,-0.5 v -1 l -0.2,-0.5 -0.6,-0.8 -1.1,-0.2 -1.5,0.2 -1.4,0.5 -1,0.7 -0.4,0.7 v 1 l 0.1,0.3 0.6,0.7 0.8,0.4 0.9,-0.1 0.3,-0.1 0.8,-0.5 0.3,-0.8 v -0.9 l -0.1,-0.3 -0.6,-0.8 -0.7,-0.3 h -1 m 6.3,5 -0.6,-0.7 -1.1,-0.3 -1.5,0.2 -0.8,0.3 -1.3,0.8 -0.7,0.9 v 0.9 l 0.2,0.6 0.6,0.7 1.1,0.3 1.5,-0.2 0.8,-0.3 1.3,-0.8 0.7,-0.9 V 520 l -0.2,-0.4 m 55.4,-74.6 -0.3,0.7 -0.1,1.2 -4.1,-4.7 m 2,4.9 0.2,0.2 0.2,0.6 v 0.5 l -0.3,0.6 -0.9,0.8 -0.6,0.1 h -0.5 l -0.6,-0.3 -0.4,-0.4 -0.1,-0.7 -0.2,-1 0.3,-4.3 -3.2,2.8 m 51.9,123 0.9,-0.2 0.8,0.1 0.8,0.7 0.1,0.2 0.2,0.9 -0.1,0.9 -0.7,0.7 -0.2,0.1 -0.9,0.3 -0.9,-0.2 -0.7,-0.6 -0.1,-0.3 -0.3,-0.9 0.2,-0.8 0.9,-0.9 1.3,-0.8 1.4,-0.6 1.1,0.1 0.7,0.6 0.3,0.5 0.2,0.9 -0.3,0.6 m -8.2,-4.7 -0.4,0.5 0.2,1 0.3,0.5 0.8,0.6 h 1.1 l 1.4,-0.5 1.3,-0.8 0.8,-0.9 0.2,-0.8 -0.2,-0.9 -0.2,-0.3 -0.7,-0.6 -0.8,-0.2 -0.9,0.2 -0.3,0.2 -0.6,0.7 -0.2,0.8 0.2,1 0.2,0.2 0.7,0.6 0.8,0.2 1,-0.2 m -3.8,71.7 -0.9,2.8 2.4,1.1 -0.1,-0.3 -0.1,-1 0.3,-0.8 0.6,-0.8 0.7,-0.4 h 1 l 0.5,0.2 0.8,0.5 0.4,0.8 v 0.9 l -0.3,0.9 -0.5,0.7 -0.4,0.2 -0.7,0.1 m 0,-9.7 0.7,0.6 0.4,0.7 v 1 0.3 l -0.6,0.7 -0.8,0.4 h -0.9 -0.3 l -0.8,-0.6 -0.3,-0.8 -0.1,-0.9 0.1,-0.3 0.6,-0.8 0.7,-0.4 1.3,0.1 1.4,0.5 1.3,0.7 0.7,0.9 v 0.9 l -0.1,0.6 -0.6,0.7 -0.7,0.2 m -25,29.7 -0.9,0.5 h -0.8 l -0.9,-0.4 -0.2,-0.2 -0.5,-0.8 v -0.9 l 0.4,-0.8 0.2,-0.2 0.8,-0.5 h 0.9 l 0.9,0.4 0.2,0.2 0.4,0.8 0.1,0.8 -0.6,1.1 -1.1,1.1 -1.2,0.9 -1,0.3 -0.9,-0.4 -0.5,-0.4 -0.4,-0.9 0.2,-0.6 m 9.8,1.7 -2.2,-2 -2.1,1.7 h 0.4 l 0.9,0.4 0.7,0.6 0.4,0.9 v 0.8 l -0.4,0.9 -0.4,0.4 -0.8,0.5 h -0.8 l -0.9,-0.4 -0.7,-0.6 -0.4,-0.8 v -0.5 l 0.2,-0.6 m -9.5,-150.8 -2.9,-0.5 -0.8,2.6 0.4,-0.2 0.9,-0.2 0.9,0.2 0.9,0.4 0.5,0.7 0.1,0.9 -0.1,0.6 -0.4,0.9 -0.7,0.5 -0.9,0.1 -0.9,-0.1 -0.9,-0.4 -0.2,-0.4 -0.2,-0.6 m 9.5,-2.8 -0.2,-0.6 -0.9,-0.4 -0.6,-0.1 -0.9,0.1 -0.7,0.8 -0.6,1.4 -0.2,1.5 0.1,1.3 0.5,0.6 0.8,0.5 h 0.3 l 1,-0.1 0.7,-0.5 0.4,-0.9 v -0.3 l -0.1,-0.9 -0.5,-0.7 -0.8,-0.4 -0.3,-0.1 -1,0.2 -0.7,0.5 -0.4,0.8 m 26.6,-74.9 -1.1,-3.1 2.8,0.9 -0.3,-0.8 0.1,-0.7 0.2,-0.4 0.7,-0.6 0.6,-0.2 h 1 l 0.7,0.4 0.6,0.7 0.3,0.9 v 0.9 l -0.2,0.4 -0.4,0.5 m -7.7,-6.3 4.9,1.4 -1.5,-4.2 m -3.4,2.8 5.9,-2.1 m 27.7,43 -2.8,-1.8 2.8,-1 -0.7,-0.5 -0.4,-0.6 -0.1,-0.4 0.3,-0.9 0.3,-0.5 0.7,-0.6 0.9,-0.2 0.9,0.2 0.8,0.5 0.5,0.8 0.1,0.4 v 0.7 m -6.5,0.2 -0.6,-0.1 -1.3,0.3 3.4,-5.3 m -14.8,81.2 -1,0.2 -0.8,-0.3 -0.7,-0.6 -0.1,-0.3 -0.2,-0.9 0.3,-0.8 0.6,-0.7 0.3,-0.2 0.9,-0.1 0.8,0.2 0.7,0.7 0.2,0.2 0.1,1 -0.2,0.8 -0.9,0.8 -1.4,0.7 -1.4,0.5 -1.1,-0.1 -0.7,-0.7 -0.3,-0.5 -0.1,-0.9 0.3,-0.6 m 8,5.2 0.3,-0.5 -0.1,-0.9 -0.3,-0.6 -0.7,-0.6 -1.1,-0.1 -1.4,0.4 -1.3,0.7 -1,0.9 -0.2,0.8 0.2,0.9 0.1,0.3 0.7,0.6 0.8,0.3 0.9,-0.2 0.3,-0.1 0.6,-0.7 0.3,-0.8 -0.2,-1 -0.1,-0.2 -0.7,-0.7 -0.8,-0.2 -0.9,0.1 m 42.6,-53.2 -0.3,0.6 0.4,0.9 0.4,0.5 0.8,0.5 1,-0.1 1.4,-0.7 1.2,-1 0.7,-0.9 0.1,-0.9 -0.4,-0.9 -0.1,-0.2 -0.8,-0.5 -0.9,-0.1 -0.9,0.3 -0.2,0.2 -0.5,0.8 -0.1,0.9 0.3,0.8 0.2,0.3 0.8,0.5 0.9,0.1 0.9,-0.4 m -123,167.6 -1.7,-2.5 -2.4,1.3 h 0.4 l 0.8,0.6 0.5,0.8 0.2,0.9 -0.1,0.8 -0.6,0.8 -0.5,0.3 -0.9,0.2 -0.9,-0.1 -0.7,-0.6 -0.5,-0.7 -0.3,-1 0.1,-0.4 0.3,-0.6 m 9.5,5 -6.9,1 m 4.6,-4.5 2.3,3.5 m 7,-1.8 0.7,0.7 0.2,0.8 -0.2,0.9 -0.1,0.3 -0.7,0.6 -0.8,0.3 -1,-0.2 -0.2,-0.1 -0.7,-0.7 -0.2,-0.9 0.2,-0.9 0.1,-0.3 0.7,-0.6 0.8,-0.2 1.2,0.3 1.3,0.7 1.2,1 0.5,0.9 -0.2,0.9 -0.2,0.6 -0.7,0.6 h -0.7 m -0.8,-9.9 -1.4,2.6 2.2,1.6 -0.1,-0.4 0.2,-1 0.4,-0.7 0.7,-0.7 0.8,-0.2 0.9,0.1 0.5,0.3 0.7,0.7 0.2,0.8 -0.1,0.9 -0.5,0.8 -0.6,0.7 -0.4,0.1 h -0.7 m 42.4,-266.4 0.6,-3.3 2,2.2 0.2,-0.9 0.4,-0.5 0.4,-0.2 0.9,-0.2 0.6,0.1 0.8,0.5 0.5,0.7 0.1,0.9 -0.1,0.9 -0.5,0.8 -0.3,0.3 -0.7,0.2 m -3.4,-9.7 -0.5,2.9 2.6,0.8 -0.3,-0.4 -0.1,-0.9 0.2,-0.9 0.4,-0.8 0.7,-0.5 1,-0.1 0.6,0.1 0.8,0.4 0.5,0.7 0.1,1 -0.2,0.9 -0.4,0.8 -0.4,0.2 -0.6,0.2 m -31.7,-27.9 -1.1,-2.8 -2.6,0.7 0.4,0.2 0.6,0.7 0.3,0.9 v 0.9 l -0.3,0.8 -0.8,0.6 -0.5,0.2 h -1 l -0.8,-0.3 -0.5,-0.8 -0.4,-0.8 v -0.9 l 0.2,-0.4 0.4,-0.5 m 10.8,-3.9 -2.5,-2.2 3,-0.6 -0.7,-0.6 -0.3,-0.6 v -0.5 l 0.4,-0.8 0.4,-0.5 0.8,-0.5 h 0.8 l 0.9,0.3 0.7,0.6 0.5,0.8 v 0.4 l -0.2,0.7 m -7.8,0 -2.5,-2.2 2.9,-0.6 -0.6,-0.6 -0.3,-0.6 v -0.4 l 0.3,-0.9 0.4,-0.5 0.8,-0.5 h 0.9 l 0.9,0.3 0.6,0.6 0.5,0.8 0.1,0.5 -0.2,0.6 m 88.8,191.9 -0.6,0.2 -0.5,0.9 v 0.6 l 0.1,0.9 0.8,0.7 1.5,0.5 1.5,0.3 1.2,-0.2 0.7,-0.5 0.4,-0.8 v -0.3 l -0.1,-1 -0.5,-0.6 -0.9,-0.5 h -0.3 l -0.9,0.2 -0.7,0.5 -0.4,0.8 -0.1,0.3 0.2,0.9 0.5,0.7 0.9,0.5 m -3.2,-7.4 0.1,0.9 0.8,0.7 1.5,0.5 0.9,0.2 1.5,-0.1 1,-0.5 0.4,-0.8 0.1,-0.6 -0.2,-1 -0.8,-0.7 -1.4,-0.5 -0.9,-0.1 -1.5,0.1 -1,0.4 -0.4,0.9 -0.1,0.4 m -16.4,30.3 -2.8,-0.9 -1.1,2.5 0.4,-0.2 0.9,-0.1 0.9,0.3 0.7,0.6 0.4,0.7 0.1,1 -0.2,0.5 -0.6,0.8 -0.7,0.4 h -1 l -0.8,-0.2 -0.8,-0.6 -0.2,-0.4 -0.1,-0.6 m 8,-2.9 h -0.9 l -0.5,0.5 -0.2,0.6 0.2,0.6 0.4,0.5 1.1,0.7 0.8,0.5 0.4,0.8 0.1,0.6 -0.3,0.9 -0.4,0.5 -0.4,0.2 h -1 l -1.1,-0.4 -0.8,-0.5 -0.2,-0.4 -0.1,-0.7 0.3,-0.8 0.4,-0.5 0.8,-0.4 h 0.9 1.3 l 0.6,-0.1 0.5,-0.5 0.2,-0.5 -0.1,-0.7 -0.8,-0.5 -1.3,-0.4 m -151.8,73.8 -2.9,0.8 0.4,2.7 0.2,-0.3 0.8,-0.6 0.9,-0.2 h 0.9 l 0.8,0.4 0.5,0.8 0.1,0.6 v 1 l -0.4,0.7 -0.8,0.5 -0.9,0.3 -0.9,-0.1 -0.4,-0.2 -0.4,-0.5 m 7.6,-7.4 -1.2,6.9 m -2.8,-5.8 4,-1.1 m -4.5,-84.6 2.9,-0.8 -0.5,-2.7 -0.2,0.4 -0.8,0.5 -0.8,0.3 -1,-0.1 -0.7,-0.4 -0.6,-0.7 -0.1,-0.6 v -1 l 0.4,-0.7 0.8,-0.6 0.9,-0.2 h 0.9 l 0.4,0.2 0.4,0.5 m -5.1,6.8 0.7,-0.5 0.2,-0.7 -0.2,-0.5 -0.5,-0.5 -0.6,-0.2 -1.3,0.1 -0.9,-0.1 -0.7,-0.4 -0.5,-0.5 -0.2,-0.8 0.1,-0.7 0.2,-0.4 0.8,-0.5 1.1,-0.3 h 1 l 0.3,0.2 0.5,0.5 0.2,0.9 -0.1,0.6 -0.4,0.8 -0.8,0.5 -1,0.6 -0.5,0.5 -0.2,0.7 0.2,0.5 0.5,0.5 0.9,0.1 1.3,-0.4 m -9.4,45.8 -0.1,-3 -2.7,-0.1 0.3,0.3 0.3,0.8 0.1,0.9 -0.3,1 -0.6,0.6 -0.8,0.3 -0.6,0.1 -1,-0.3 -0.6,-0.6 -0.3,-0.8 -0.1,-0.9 0.3,-1 0.3,-0.3 0.5,-0.3 m 3.5,9.1 -0.9,-0.3 -0.6,-0.5 -0.4,-0.9 v -0.3 l 0.3,-0.9 0.5,-0.7 0.9,-0.3 h 0.3 l 0.9,0.2 0.7,0.6 0.3,0.9 v 0.3 l -0.2,0.9 -0.6,0.6 -1.2,0.4 -1.5,0.1 -1.5,-0.3 -0.9,-0.5 -0.4,-0.9 v -0.6 l 0.2,-0.9 0.6,-0.3 m 158.3,-225.9 -0.8,-0.5 -0.6,0.2 -0.5,0.4 -0.2,0.6 0.2,0.7 0.6,1.1 0.4,0.8 -0.1,0.9 -0.2,0.6 -0.6,0.6 -0.7,0.2 h -0.4 l -0.8,-0.5 -0.9,-0.8 -0.4,-0.9 0.1,-0.4 0.2,-0.6 0.7,-0.7 0.6,-0.2 0.8,0.1 0.9,0.4 1,0.7 0.6,0.2 0.7,-0.1 0.4,-0.5 0.3,-0.6 -0.4,-0.8 -1,-1 m 4.6,6.1 0.2,-0.6 -0.4,-0.9 -0.4,-0.4 -0.8,-0.4 -1.1,0.1 -1.3,0.8 -1.1,1.1 -0.7,1 v 0.8 l 0.4,0.9 0.2,0.2 0.8,0.5 h 0.9 l 0.8,-0.4 0.3,-0.2 0.4,-0.8 v -0.9 l -0.4,-0.8 -0.2,-0.3 -0.8,-0.4 h -0.8 l -0.9,0.4 m 0,-29.9 0.5,-0.8 v -0.6 l -0.4,-0.5 -0.5,-0.4 -0.7,0.1 -1.2,0.4 -0.9,0.3 -0.8,-0.2 -0.6,-0.4 -0.5,-0.7 -0.1,-0.7 0.1,-0.4 0.6,-0.7 1,-0.7 0.9,-0.2 0.4,0.1 0.6,0.3 0.5,0.7 0.1,0.7 -0.2,0.8 -0.6,0.8 -0.8,0.9 -0.4,0.6 0.1,0.6 0.4,0.5 0.5,0.4 1,-0.3 1.1,-0.7 m -4.1,1 -0.3,0.5 -0.3,1.3 -3.4,-5.3 m 90.2,141.4 -0.9,-0.2 -0.7,-0.5 -0.4,-0.8 -0.1,-0.3 0.2,-1 0.5,-0.6 0.8,-0.5 h 0.3 l 1,0.2 0.6,0.5 0.5,0.8 v 0.3 l -0.2,0.9 -0.5,0.7 -1.1,0.5 -1.5,0.2 -1.5,-0.1 -1,-0.5 -0.4,-0.8 -0.1,-0.6 0.2,-0.9 0.5,-0.4 m 6.3,5.7 -0.4,-0.8 -1,-0.5 -1.5,-0.1 -0.9,0.1 -1.5,0.5 -0.8,0.8 -0.2,0.9 0.1,0.6 0.4,0.8 1,0.5 1.6,0.1 0.8,-0.1 1.5,-0.5 0.8,-0.8 0.2,-0.9 -0.1,-0.4 m 39.2,-2.6 0.5,0.8 0.7,0.1 0.6,-0.2 0.4,-0.4 0.2,-0.7 -0.1,-1.2 0.1,-1 0.4,-0.7 0.5,-0.5 0.8,-0.2 0.7,0.1 0.4,0.2 0.5,0.8 0.3,1.2 v 0.9 l -0.2,0.4 -0.5,0.4 -0.9,0.3 -0.6,-0.1 -0.8,-0.4 -0.5,-0.8 -0.6,-1.1 -0.5,-0.5 -0.6,-0.1 -0.6,0.1 -0.5,0.5 v 0.9 l 0.3,1.3 m -0.1,-8.1 h 0.9 l 0.8,0.4 0.5,0.8 0.1,0.3 -0.1,0.9 -0.4,0.8 -0.8,0.5 -0.2,0.1 h -1 l -0.7,-0.5 -0.6,-0.7 v -0.3 -1 l 0.4,-0.7 1.1,-0.6 1.4,-0.4 1.5,-0.2 1.1,0.4 0.5,0.7 0.2,0.6 -0.1,1 -0.5,0.4 m -2.5,65 0.1,0.9 0.5,0.5 0.6,0.1 0.7,-0.2 0.4,-0.6 0.5,-1.1 0.5,-0.8 0.7,-0.5 0.6,-0.2 0.9,0.2 0.5,0.4 0.3,0.4 0.1,0.9 -0.2,1.2 -0.5,0.8 -0.4,0.2 -0.6,0.2 -0.9,-0.1 -0.5,-0.4 -0.5,-0.7 -0.1,-1 -0.1,-1.2 -0.2,-0.7 -0.5,-0.4 -0.6,-0.1 -0.6,0.2 -0.5,0.8 -0.3,1.4 m 1.1,-5.5 0.1,1 0.5,0.4 0.6,0.1 0.7,-0.2 0.4,-0.5 0.5,-1.1 0.5,-0.9 0.7,-0.4 0.6,-0.2 0.9,0.2 0.5,0.4 0.3,0.3 0.1,0.9 -0.2,1.2 -0.5,0.9 -0.4,0.2 -0.6,0.2 -0.9,-0.2 -0.5,-0.4 -0.5,-0.7 -0.1,-0.9 -0.1,-1.3 -0.2,-0.6 -0.5,-0.4 -0.6,-0.1 -0.6,0.1 -0.5,0.9 -0.3,1.3 m -15.8,71.2 v 1 l 0.5,0.4 0.6,0.1 0.7,-0.1 0.4,-0.5 0.6,-1.1 0.5,-0.8 0.7,-0.4 0.7,-0.2 0.9,0.2 0.5,0.5 0.2,0.3 0.1,1 -0.3,1.1 -0.5,0.8 -0.4,0.3 -0.7,0.1 -0.8,-0.2 -0.5,-0.5 -0.5,-0.7 v -0.9 -1.3 l -0.2,-0.6 -0.5,-0.5 -0.6,-0.1 -0.6,0.1 -0.6,0.8 -0.3,1.4 m 2,-7.9 5.4,4.5 m -6.4,-0.4 1,-4.1 m -27.2,57.3 -0.2,-0.2 -0.2,-0.6 v -0.4 l 0.2,-0.7 0.9,-0.8 0.6,-0.2 h 0.4 l 0.7,0.2 0.4,0.4 0.2,0.6 0.2,1.1 v 4.2 l 3,-2.9 m -0.4,-7.2 -0.7,-0.2 -0.8,0.4 -0.4,0.4 -0.5,0.9 0.2,1 0.9,1.3 1,1.1 1.1,0.6 h 0.8 l 0.9,-0.4 0.2,-0.2 0.4,-0.8 v -0.9 l -0.4,-0.8 -0.2,-0.3 -0.8,-0.4 h -0.9 l -0.8,0.4 -0.3,0.2 -0.4,0.9 v 0.8 l 0.4,0.9 m -14.8,-2.8 -5,-1.1 1.8,4.1 m 3.2,-3 -5.8,2.5 m 6.4,4.4 h -0.9 l -0.8,-0.3 -0.7,-0.7 -0.1,-0.3 v -0.9 l 0.3,-0.8 0.7,-0.6 0.3,-0.1 0.9,-0.1 0.8,0.3 0.6,0.7 0.1,0.3 0.1,0.9 -0.3,0.8 -1,0.8 -1.4,0.5 -1.5,0.4 -1,-0.2 -0.7,-0.8 -0.2,-0.5 -0.1,-0.9 0.5,-0.6 m -25.7,-47 0.2,-0.2 0.7,-0.1 0.4,0.1 0.6,0.2 0.7,1 0.2,0.6 -0.1,0.5 -0.3,0.6 -0.4,0.3 -0.7,0.2 -1.1,0.1 -4.2,-0.5 2.6,3.3 m 7.9,-0.2 -1.9,-2.4 -2.3,1.5 h 0.5 l 0.7,0.5 0.6,0.7 0.3,0.9 -0.1,0.9 -0.5,0.8 -0.5,0.3 -0.9,0.4 -0.8,-0.1 -0.8,-0.6 -0.5,-0.7 -0.4,-0.9 0.1,-0.4 0.3,-0.6 m 17.2,-89 0.8,-0.5 0.1,-0.7 -0.2,-0.5 -0.4,-0.5 -0.7,-0.1 h -1.2 -1 l -0.7,-0.4 -0.5,-0.5 -0.3,-0.8 0.2,-0.7 0.2,-0.4 0.7,-0.5 1.2,-0.4 h 0.9 l 0.4,0.2 0.5,0.5 0.2,0.9 -0.1,0.6 -0.4,0.8 -0.8,0.5 -1,0.7 -0.5,0.5 -0.1,0.6 0.2,0.6 0.4,0.5 h 1 l 1.3,-0.4 m -7.3,2.2 2.9,-0.9 -0.5,-2.6 -0.2,0.4 -0.8,0.5 -0.9,0.3 -0.9,-0.1 -0.8,-0.4 -0.5,-0.7 -0.2,-0.6 v -0.9 l 0.4,-0.8 0.8,-0.5 0.9,-0.3 h 0.9 l 0.4,0.2 0.5,0.5 m -19.3,35.3 -0.2,-0.9 -0.6,-0.4 -0.6,-0.1 -0.6,0.3 -0.4,0.5 -0.4,1.2 -0.5,0.8 -0.6,0.5 -0.7,0.2 -0.9,-0.1 -0.5,-0.4 -0.3,-0.3 -0.1,-0.9 0.1,-1.2 0.4,-0.9 0.4,-0.2 0.6,-0.2 0.9,0.1 0.6,0.4 0.5,0.6 0.1,1 0.2,1.2 0.2,0.6 0.6,0.4 0.5,0.1 0.7,-0.2 0.4,-0.9 0.2,-1.3 m -1.9,7.4 0.6,-0.2 0.4,-0.9 0.1,-0.6 -0.2,-0.9 -0.8,-0.7 -1.4,-0.5 -1.5,-0.2 -1.2,0.1 -0.7,0.5 -0.4,0.9 -0.1,0.3 0.2,0.9 0.5,0.7 0.9,0.4 h 0.3 l 0.9,-0.1 0.7,-0.5 0.4,-0.9 v -0.3 l -0.2,-0.9 -0.5,-0.7 -0.8,-0.4 m -6.3,-248.5 0.2,-0.9 -0.3,-0.6 -0.5,-0.3 -0.7,-0.1 -0.6,0.3 -0.9,0.9 -0.7,0.6 -0.8,0.2 -0.7,-0.1 -0.8,-0.5 -0.3,-0.6 -0.1,-0.4 0.3,-0.9 0.6,-1 0.8,-0.6 0.4,-0.1 0.6,0.1 0.8,0.5 0.3,0.5 0.2,0.9 -0.2,0.9 -0.4,1.2 -0.1,0.6 0.3,0.6 0.5,0.3 0.7,0.1 0.7,-0.6 0.8,-1.1 m -3.2,4.8 0.3,-0.9 -0.5,-1 -1.1,-1 -0.7,-0.5 -1.4,-0.6 h -1.1 l -0.8,0.6 -0.3,0.5 -0.2,0.9 0.4,1 1.1,1.1 0.7,0.5 1.5,0.6 1.1,-0.1 0.7,-0.6 0.2,-0.3 m -0.8,-53.4 0.3,-0.1 0.7,0.1 0.3,0.2 0.5,0.5 0.4,1.1 -0.2,0.7 -0.2,0.3 -0.4,0.5 -0.6,0.2 -0.7,-0.1 -1,-0.3 -3.8,-2 1.3,4 m 7.5,3.1 -6.9,-1 m 5.7,-3 1.2,4 m 29.6,0.4 0.6,0.7 0.6,0.1 0.6,-0.2 0.5,-0.5 v -0.6 l -0.1,-1.3 v -0.9 l 0.3,-0.8 0.5,-0.5 0.8,-0.3 0.7,0.1 0.4,0.2 0.6,0.7 0.4,1.1 v 1 l -0.2,0.4 -0.4,0.5 -0.9,0.3 -0.6,-0.1 -0.8,-0.4 -0.6,-0.7 -0.7,-1 -0.5,-0.5 -0.6,-0.1 -0.6,0.2 -0.5,0.5 0.1,1 0.4,1.2 m -2.7,-7.5 6.9,0.6 m -5.5,3.3 -1.4,-3.9 m -17.5,-22.6 0.1,0.3 -0.1,0.6 -0.2,0.4 -0.5,0.4 -1.2,0.4 -0.6,-0.2 -0.4,-0.2 -0.4,-0.5 -0.2,-0.5 0.1,-0.7 0.3,-1 2.1,-3.7 -4,1.1 m -0.3,5.1 0.1,0.3 -0.2,0.6 -0.2,0.4 -0.5,0.4 -1.1,0.4 -0.7,-0.2 -0.4,-0.2 -0.4,-0.5 -0.2,-0.5 0.2,-0.7 0.3,-1 2.1,-3.7 -4.1,1.1 m 56.7,95.8 0.6,0.7 h 0.7 l 0.6,-0.3 0.4,-0.5 v -0.6 l -0.2,-1.3 -0.1,-0.9 0.3,-0.8 0.4,-0.5 0.8,-0.4 h 0.7 l 0.4,0.2 0.6,0.7 0.5,1.1 0.1,0.9 -0.1,0.4 -0.4,0.5 -0.9,0.4 h -0.6 l -0.8,-0.3 -0.7,-0.7 -0.7,-1 -0.6,-0.4 h -0.6 l -0.6,0.2 -0.4,0.5 0.1,1 0.6,1.2 m -2.3,-5 0.6,0.7 h 0.7 l 0.6,-0.2 0.4,-0.6 v -0.6 l -0.2,-1.2 -0.1,-1 0.3,-0.8 0.4,-0.5 0.8,-0.4 0.7,0.1 0.4,0.1 0.6,0.7 0.5,1.1 0.1,0.9 -0.1,0.4 -0.4,0.6 -0.9,0.3 h -0.6 l -0.8,-0.3 -0.7,-0.7 -0.7,-1 -0.6,-0.4 h -0.6 l -0.6,0.2 -0.4,0.6 0.1,0.9 0.6,1.2 m -7.3,20 -0.9,0.3 -0.3,0.6 v 0.6 l 0.4,0.6 0.6,0.3 1.2,0.2 0.9,0.3 0.7,0.5 0.3,0.6 0.1,0.9 -0.3,0.6 -0.3,0.3 -0.9,0.4 -1.2,0.1 -0.9,-0.3 -0.3,-0.3 -0.3,-0.6 -0.1,-0.9 0.3,-0.6 0.5,-0.6 0.9,-0.4 1.2,-0.3 0.6,-0.4 0.2,-0.6 v -0.6 l -0.3,-0.6 -0.9,-0.2 -1.4,0.1 m 4.6,1.2 V 383 l 0.2,-0.6 0.3,-0.3 0.6,-0.4 h 1.2 l 0.6,0.2 0.3,0.3 0.4,0.6 v 0.6 l -0.3,0.6 -0.5,0.9 -2.8,3.2 4.2,-0.2 m 35.6,53.7 0.1,1 0.5,0.4 0.6,0.1 0.7,-0.2 0.4,-0.5 0.5,-1.1 0.4,-0.9 0.7,-0.4 0.7,-0.2 0.9,0.1 0.5,0.5 0.2,0.3 0.2,0.9 -0.3,1.2 -0.4,0.9 -0.4,0.2 -0.6,0.2 -0.9,-0.2 -0.5,-0.4 -0.5,-0.7 -0.1,-0.9 -0.1,-1.3 -0.2,-0.6 -0.5,-0.4 -0.6,-0.1 -0.7,0.1 -0.4,0.9 -0.3,1.3 m 3.6,-7.4 0.8,0.5 0.5,0.7 0.1,0.9 -0.1,0.3 -0.4,0.9 -0.7,0.4 -1,0.2 -0.3,-0.1 -0.8,-0.5 -0.5,-0.7 -0.1,-0.9 0.1,-0.3 0.4,-0.8 0.7,-0.5 1.3,-0.1 1.4,0.3 1.5,0.6 0.7,0.7 0.2,1 -0.2,0.6 -0.4,0.8 -0.7,0.2 m 2.4,-17.7 0.6,-0.7 -0.1,-0.7 -0.3,-0.5 -0.6,-0.3 -0.7,0.1 -1.2,0.4 -0.9,0.3 -0.8,-0.2 -0.6,-0.3 -0.5,-0.8 -0.1,-0.6 0.1,-0.4 0.6,-0.8 1,-0.7 0.9,-0.2 0.4,0.1 0.6,0.3 0.5,0.7 0.1,0.7 -0.2,0.8 -0.6,0.8 -0.8,0.9 -0.3,0.6 0.1,0.7 0.3,0.4 0.6,0.4 0.9,-0.3 1.1,-0.7 m -3.8,2.5 -2.7,1.9 0.2,-3 -0.8,0.5 -0.7,0.1 -0.4,-0.1 -0.7,-0.6 -0.4,-0.5 -0.2,-0.9 0.1,-0.8 0.6,-0.8 0.8,-0.5 0.9,-0.2 0.4,0.1 0.6,0.3 m -38.5,-19.2 0.9,-0.3 0.3,-0.6 v -0.6 l -0.3,-0.6 -0.6,-0.3 -1.2,-0.3 -0.9,-0.3 -0.6,-0.6 -0.3,-0.6 v -0.9 l 0.3,-0.6 0.3,-0.3 0.9,-0.3 h 1.2 l 0.9,0.3 0.3,0.3 0.3,0.6 v 0.9 l -0.3,0.6 -0.6,0.6 -0.9,0.3 -1.2,0.3 -0.6,0.3 -0.3,0.6 v 0.6 l 0.3,0.6 0.9,0.3 h 1.4 m -4.6,-1.5 v 0.3 l -0.3,0.6 -0.3,0.3 -0.6,0.3 H 987 l -0.6,-0.3 -0.3,-0.3 -0.3,-0.6 v -0.6 l 0.3,-0.6 0.6,-0.9 3,-3 h -4.2 m 21.7,19.5 0.4,0.9 0.6,0.2 h 0.6 l 0.5,-0.4 0.3,-0.6 0.2,-1.2 0.3,-0.9 0.5,-0.6 0.6,-0.4 h 0.9 l 0.6,0.2 0.4,0.3 0.3,0.9 0.1,1.2 -0.3,0.9 -0.2,0.3 -0.6,0.4 h -0.9 l -0.6,-0.3 -0.7,-0.5 -0.3,-0.9 -0.4,-1.2 -0.3,-0.6 -0.7,-0.2 h -0.6 l -0.5,0.4 -0.3,0.9 0.1,1.3 m -0.3,-4.6 -0.2,-3.2 2.5,1.6 v -0.9 l 0.2,-0.6 0.3,-0.3 0.9,-0.4 h 0.6 l 0.9,0.2 0.6,0.6 0.4,0.9 0.1,0.9 -0.3,0.9 -0.3,0.3 -0.6,0.3 m -60.1,64.2 -0.4,0.9 -0.7,0.5 -0.9,0.2 h -0.3 l -0.9,-0.4 -0.5,-0.7 -0.2,-0.9 v -0.3 l 0.4,-0.9 0.7,-0.5 0.9,-0.2 h 0.3 l 0.9,0.4 0.5,0.7 0.2,1.2 -0.2,1.5 -0.5,1.4 -0.7,0.9 -0.9,0.2 -0.6,-0.1 -0.8,-0.4 -0.3,-0.6 m 7.1,-4.7 -0.9,0.2 -0.7,0.8 -0.5,1.5 -0.1,0.9 0.2,1.5 0.5,1 0.8,0.4 h 0.6 l 1,-0.2 0.7,-0.8 0.4,-1.4 0.1,-0.9 -0.1,-1.6 -0.5,-0.9 -0.9,-0.4 -0.4,-0.1 m -19.9,-20.4 -0.1,-1 -0.5,-0.4 -0.6,-0.1 -0.7,0.2 -0.4,0.5 -0.5,1.1 -0.5,0.8 -0.7,0.5 -0.6,0.2 -0.9,-0.2 -0.5,-0.4 -0.3,-0.3 -0.1,-1 0.2,-1.2 0.5,-0.8 0.4,-0.2 0.6,-0.2 0.9,0.2 0.5,0.4 0.5,0.7 0.1,0.9 0.1,1.3 0.2,0.6 0.5,0.4 0.6,0.1 0.6,-0.1 0.5,-0.9 0.3,-1.3 m -1.5,7.5 0.6,-3 -2.6,-0.8 0.2,0.3 0.1,1 -0.1,0.9 -0.5,0.8 -0.7,0.5 -1,0.1 -0.5,-0.1 -0.9,-0.5 -0.4,-0.7 -0.2,-1 0.2,-0.8 0.5,-0.9 0.3,-0.2 0.7,-0.2 M 918,248.8 l 0.9,0.3 0.6,0.6 0.3,0.9 v 0.3 l -0.3,0.9 -0.6,0.6 -0.9,0.3 h -0.3 l -0.9,-0.3 -0.6,-0.6 -0.3,-0.9 v -0.3 l 0.3,-0.9 0.6,-0.6 1.2,-0.3 h 1.5 l 1.5,0.3 0.9,0.6 0.3,0.9 v 0.6 l -0.3,0.9 -0.6,0.3 m -3.9,-5.3 h -0.3 l -0.6,-0.3 -0.3,-0.3 -0.3,-0.6 v -1.2 l 0.3,-0.6 0.3,-0.3 0.6,-0.3 h 0.6 l 0.6,0.3 0.9,0.6 3,3 v -4.2 m -38.1,18.2 -3,-0.1 -0.4,2.7 0.3,-0.3 0.9,-0.3 0.9,0.1 0.9,0.3 0.6,0.6 0.3,0.9 v 0.6 l -0.3,0.9 -0.6,0.6 -0.9,0.3 -0.9,-0.1 -0.9,-0.3 -0.3,-0.3 -0.3,-0.6 m 5.9,-3.5 v -0.3 l 0.3,-0.6 0.3,-0.3 0.6,-0.3 h 1.2 l 0.6,0.4 0.3,0.3 0.3,0.6 v 0.6 l -0.3,0.6 -0.6,0.8 -3.1,3 4.2,0.1 m -22.5,-6.2 2.3,-2 -1.6,-2.2 v 0.4 l -0.5,0.8 -0.7,0.6 -0.8,0.4 h -0.9 l -0.8,-0.5 -0.4,-0.4 -0.4,-0.9 V 257 l 0.5,-0.9 0.7,-0.6 0.8,-0.4 0.5,0.1 0.6,0.2 m -1,7.8 -2.4,2.2 -0.3,-3 -0.7,0.6 -0.6,0.2 h -0.4 l -0.9,-0.5 -0.4,-0.4 -0.4,-0.9 0.1,-0.9 0.5,-0.8 0.6,-0.6 0.9,-0.4 h 0.4 l 0.6,0.3 m -8.6,-68.7 2.5,-1.6 -1.2,-2.4 -0.1,0.4 -0.6,0.7 -0.7,0.5 -1,0.2 -0.8,-0.2 -0.7,-0.6 -0.3,-0.5 -0.2,-0.9 0.1,-0.9 0.6,-0.7 0.8,-0.5 0.9,-0.2 0.4,0.1 0.6,0.4 m -3.4,8.1 0.7,-0.8 v -1 l -0.6,-1.5 -0.4,-0.7 -1.1,-1.1 -1,-0.5 -0.9,0.2 -0.5,0.3 -0.6,0.8 v 1.1 l 0.5,1.4 0.5,0.8 1,1.1 1,0.4 0.9,-0.2 0.4,-0.2 m 38.4,-8.5 3,0.4 0.6,-2.7 -0.3,0.3 -0.9,0.2 -0.9,-0.1 -0.9,-0.4 -0.5,-0.7 -0.2,-0.9 0.1,-0.6 0.4,-0.9 0.7,-0.5 0.9,-0.2 0.9,0.1 0.8,0.4 0.3,0.3 0.2,0.7 m -5.6,3 -0.7,0.2 -1,0.8 0.8,-6.2 m -96.8,27 0.3,-0.9 0.5,-0.7 0.9,-0.3 h 0.3 l 0.9,0.2 0.7,0.6 0.3,0.9 v 0.3 l -0.2,0.9 -0.6,0.6 -0.8,0.4 h -0.3 l -1,-0.3 -0.6,-0.5 -0.4,-1.2 -0.1,-1.5 0.3,-1.5 0.5,-1 0.9,-0.3 0.6,-0.1 0.9,0.3 0.3,0.6 m -7.5,5.9 2.7,-4.4 -4.5,0.3 m 1.8,4.1 -0.4,-6.3 m 67.2,47 -2.6,1.5 1.1,2.5 0.1,-0.4 0.6,-0.7 0.8,-0.5 0.9,-0.2 0.9,0.3 0.7,0.6 0.3,0.5 0.2,0.9 -0.2,0.9 -0.7,0.7 -0.7,0.4 -1,0.2 -0.4,-0.1 -0.5,-0.4 m 2.5,-7.4 2.9,-1.6 -0.4,3 0.8,-0.5 h 0.7 l 0.4,0.1 0.7,0.6 0.3,0.5 0.2,1 -0.2,0.8 -0.7,0.7 -0.7,0.4 -1,0.2 -0.4,-0.1 -0.5,-0.3 m -95.9,-39.7 1.4,3 -2.9,-0.6 0.4,0.8 v 0.7 l -0.2,0.4 -0.6,0.6 -0.6,0.3 -0.9,0.1 -0.8,-0.3 -0.7,-0.7 -0.4,-0.8 -0.1,-0.9 0.1,-0.4 0.5,-0.6 m 8.3,5.5 -5.1,-0.9 1.9,4 m 3.2,-3.1 -5.7,2.7 m 81.5,60 0.9,0.1 0.7,0.4 0.5,0.9 0.1,0.2 -0.1,1 -0.4,0.7 -0.8,0.5 -0.3,0.1 -1,-0.1 -0.7,-0.4 -0.5,-0.9 -0.1,-0.2 0.1,-1 0.5,-0.7 1.1,-0.6 1.4,-0.3 1.5,-0.1 1.1,0.4 0.5,0.8 0.1,0.6 -0.1,0.9 -0.5,0.5 m -6.5,-4 -0.8,-3.2 2.8,1.2 -0.2,-0.9 0.1,-0.6 0.3,-0.4 0.8,-0.5 0.6,-0.1 0.9,0.1 0.7,0.4 0.5,0.8 0.2,0.9 -0.1,0.9 -0.2,0.4 -0.5,0.4 m -18.5,12.7 -2.9,0.8 0.4,2.6 0.2,-0.3 0.8,-0.5 0.9,-0.3 0.9,0.1 0.7,0.4 0.6,0.8 0.1,0.6 -0.1,1 -0.4,0.7 -0.8,0.5 -0.9,0.2 h -0.9 l -0.4,-0.3 -0.4,-0.5 m 4.2,-4.8 0.5,-0.5 0.6,-1.1 1.6,6.1 m -64,-45.1 -1.7,2.8 -1.1,-2.8 -0.5,0.8 -0.6,0.3 -0.4,0.1 -0.9,-0.2 -0.5,-0.3 -0.6,-0.8 -0.2,-0.8 0.2,-0.9 0.5,-0.8 0.7,-0.6 0.4,-0.1 0.7,0.1 m -0.1,6.9 0.3,0.1 0.4,0.6 0.1,0.4 -0.1,0.7 -0.6,1 -0.6,0.3 -0.4,0.1 h -0.7 l -0.5,-0.3 -0.4,-0.6 -0.4,-1 -1,-4.1 -2.2,3.5 m -6.6,31.2 v -1 l -0.7,-0.8 -1.3,-0.8 -0.9,-0.2 -1.5,-0.2 -1,0.3 -0.6,0.7 -0.2,0.6 v 0.9 l 0.7,0.9 1.3,0.7 0.9,0.3 1.5,0.2 1,-0.3 0.6,-0.7 0.1,-0.5 m 19.9,9.2 h -3 l -0.2,2.7 0.3,-0.3 0.9,-0.3 h 0.9 l 0.9,0.3 0.6,0.6 0.3,0.9 v 0.6 l -0.3,0.9 -0.6,0.6 -0.9,0.3 h -0.9 l -0.9,-0.3 -0.3,-0.3 -0.3,-0.6 m 8.4,-5.2 -2.9,4.2 h 4.5 m -1.6,-4.2 0.1,6.3 m 170.3,-89.4 -0.1,1 -0.5,0.7 -0.8,0.5 -0.3,0.1 -0.9,-0.1 -0.7,-0.5 -0.5,-0.8 -0.1,-0.3 0.1,-0.9 0.4,-0.7 0.8,-0.5 0.3,-0.1 1,0.1 0.7,0.4 0.6,1.1 0.3,1.5 0.1,1.5 -0.4,1 -0.8,0.5 -0.6,0.2 -0.9,-0.1 -0.5,-0.5 m 4.2,-5.1 v -0.2 l 0.1,-0.7 0.2,-0.4 0.5,-0.4 1.2,-0.3 0.7,0.2 0.3,0.2 0.5,0.5 0.1,0.6 -0.2,0.6 -0.3,1.1 -2.2,3.6 4,-1 m -25.5,-50.7 -0.6,-0.7 -0.3,-0.8 0.2,-1 0.1,-0.2 0.7,-0.7 0.8,-0.2 1,0.1 0.2,0.2 0.7,0.6 0.2,0.9 -0.1,0.9 -0.2,0.3 -0.7,0.6 -0.8,0.3 -1.2,-0.3 -1.3,-0.7 -1.2,-1 -0.5,-1 0.2,-0.9 0.2,-0.5 0.7,-0.7 h 0.7 m 2.3,7.3 -1.6,2.9 -1.2,-2.7 -0.5,0.8 -0.5,0.4 -0.4,0.1 -1,-0.2 -0.5,-0.2 -0.6,-0.7 -0.3,-0.8 0.2,-1 0.4,-0.8 0.7,-0.6 0.4,-0.2 0.6,0.1 m 20,22.5 1.6,2.5 2.4,-1.2 -0.4,-0.1 -0.7,-0.6 -0.5,-0.7 -0.3,-0.9 0.2,-0.9 0.6,-0.7 0.5,-0.4 0.9,-0.2 0.8,0.2 0.8,0.6 0.5,0.7 0.2,0.9 -0.1,0.4 -0.3,0.6 m -6.2,-2.9 -0.3,0.2 -0.7,0.1 -0.4,-0.1 -0.5,-0.4 -0.7,-1 -0.1,-0.6 0.1,-0.4 0.3,-0.6 0.5,-0.4 h 0.7 1.1 l 4.1,0.8 -2.3,-3.5"
       id="nums_002"
       stroke="#000000"
       stroke-width="1" />
    <path
       d="m 596.7,664.8 -49.3,-39.8 1.4,-46 71.1,-15.2 -36.6,-62.9 58.7,-11.3 18.9,-55.5 5.5,-74.9 -22.4,-74.5 42.4,-15 -44.7,4.6 -60.5,38.5 -1.2,-43.3 6,-43 34.2,-45.9 39.7,-33.3 23.4,36 -13.9,-40.7 -20,-52.1 50.4,-45 34.9,-7.4 -1.4,36.5 36.2,-4.6 29.4,-20.4 -4.2,67.4 41.8,37.1 -33.8,39.3 -40.2,-10.1 -30.4,-0.2 -8.2,43.1 9.4,90.7 29.2,-9.8 55.7,46.7 -26.8,51.2 -59.7,4.7 58.9,10.9 -6.3,36.5 -66.6,49.4 10.3,54.5 19.1,62.8 -57.2,60.9 z M 873.6,423 l 13.6,38.8 37.2,23.9 24.3,30 -12,82.8 -38.3,-11.8 -29.3,-54.6 -44.3,-7 42.7,13.5 32.7,52.6 -30.6,96.7 -31.4,-29.2 -20.3,37.7 -23.9,-35.6 -41.4,11.5 -5.1,-101.3 38.5,-11.1 -27.9,-78.8 48.5,-19.6 43.6,-38 -32.8,-87.1 62.3,53.8 z m 99.2,247.2 -35.8,-45.3 9.2,-68 45.1,-13.9 -8.5,-60.6 -60.9,-6.5 9.2,-46.4 -46.7,-50.2 37.5,-24.6 16.9,-26 -17,-55 41,-11.4 25.3,69.2 25.9,57.2 -48.2,2.8 48.3,-0.1 2.2,34.6 28.6,-19.6 -12.5,66.3 18.4,64.8 -11.7,61.6 -17.9,71.6 -33.9,33.6 z M 847.2,269 l 27.5,-24.9 -32.1,18.7 7.3,31 -43.2,11 -72.7,0.8 13,-39.6 17.8,-28.6 -17.7,-37.1 83.2,-4.8 36.4,-22.7 44.4,5.3 14.9,-28.2 42.4,64.3 -44.2,10.6 -0.1,45.5 z"
       id="coupes_002"
       stroke="#ff0000"
       stroke-width="1.27"
       sodipodi:nodetypes="cccccccccccccccccccccccccccccccccccccccccccccccccccccccccccccccccccccccccccccccccccccccccccccccccccccccccc" />
    <path
       d="m 659.9,147.3 -18.2,127 m 0,0 -21.5,-93.7 m 63.1,2.7 -41.6,91 m 41.6,-91 3.1,86.4 m -3.1,-86.4 40.6,42.9 m 0,0 -37.5,43.5 m 46.9,47.2 -46.9,-47.2 m -20,89.5 20,-89.5 m 46.9,47.2 -1.6,92.8 m 0,0 -65.3,-50.5 m 65.3,50.5 -70.8,24.4 m 70.8,-24.4 -14,96.8 m 0,0 -97.8,57.3 m 0,0 22.1,-74.2 m 86,71.4 -108.1,2.8 m 63.4,-380.5 50,-108.7 m 0,0 -1.2,108.5 M 699.8,45.5 733.3,74.6 m -63.9,68 30.4,-97.1 m 47.3,578.3 -127.2,-60 m 127.2,60 -150.4,41 m 0,0 23.2,-101 M 769.5,70 732.1,183.1 M 769.5,70 l -7,113.3 m 7,-113.3 25.2,47 m 0,0 -32.2,66.3 m 32.2,-66.3 8,76.4 M 547.4,625 619.9,563.8 m 111.8,-154.1 52.6,47.4 m -51,-140.2 58.1,88.1 m 2.6,255.8 30.8,-135.7 m 0,0 13.4,133.6 m 0,0 -44.2,2.1 m 73.5,-122.2 -29.3,120.1 m -44.2,2.1 -8,-100.9 m 0,0 20.6,-98.4 m 0,0 18.2,63.6 m 25.4,-101.6 -25.4,101.6 m 25.4,-101.6 18.9,108.6 m 18.1,-70.3 -18.1,70.3 M 850.2,423.5 873.6,423 m 50.8,62.7 -26,101 m 50.3,-71 -50.3,71 M 850.2,423.5 879.7,390.2 M 752.6,672.3 786,559.9 m 135.9,-205.2 9.2,74.8 m 34.7,-38 -34.7,38 m -9.2,-74.8 43.9,36.8 m 0,0 17,90.9 m 0,0 -51.7,-52.9 m 85.2,-3.5 -33.5,56.4 m -17,-90.9 50.5,34.5 m 0,0 16.1,46.7 m 0,0 -49.6,9.7 m 49.6,-9.7 -41.1,70.3 m 47.8,56.1 L 991.3,543 M 972.8,670.2 991.3,543 m 29.9,127.7 -48.4,-0.5 m -34,-341.5 27,62.8 m -27,-62.8 49.3,2.8 m -66.3,-57.8 66.3,57.8 m -64,-61.2 -49.4,-26.2 m 0,0 49.5,-19.3 m -49.5,19.3 -44.4,-48.6 m 0,0 93.9,29.3 m -57.5,-52 57.5,52 m -13.1,-46.7 13.1,46.7 m -49.5,19.3 -127.6,-43.8 m 95.5,62.5 -95.5,-62.5 m 95.5,62.5 -77.8,-25.4 m 85.1,56.4 -85.1,-56.4 M 806.7,304.8 747,266 m 164.1,-87.9 57.3,36.1"
       id="plisM_002"
       stroke="#a52a2a"
       stroke-dasharray="4" />
    <path
       d="m 733.3,316.9 -66.9,42.3 m 51.3,147.3 -56.8,-72.4 m 56.8,72.4 -75.7,-16.9 m 41.3,-306.3 48.8,-0.2 m -62.7,-40.5 63.9,-68 M 641.7,274.3 586,226.5 m 176.5,80.6 28.9,97.9 M 641.7,274.3 580,269.5 m 206,290.4 38.8,-34.8 m 75.4,66.1 -62,67.5 m 12,-235.2 37,38.3 m 37.2,23.9 -55.3,46.4 m 181.7,5.4 -59.5,5.5 m 47.8,56.1 -66.3,71.1 M 937,624.9 991.3,543 m -3.2,-211.5 -22.3,60 M 806.7,304.8 764.8,237.4"
       id="plisV_002"
       stroke="#008000"
       stroke-dasharray="4, 1, 1, 1"
       stroke-width="1.27" />
    <path
       d="m 697.9,336.1 4,4 m 0,-4 -4,4 m -10.6,128.2 4,4 m 0,-4 -4,4 m -9.5,23.7 4,4 m 0,-4 -4,4 m 27.9,-318.8 4,4 m 0,-4 -4,4 m -6.3,-78.6 4,4 m 0,-4 -4,4 m -87.6,137.8 4,4 m 0,-4 -4,4 M 775,354 l 4,4 m 0,-4 -4,4 m -166.2,-88.1 4,4 m 0,-4 -4,4 m 194.6,266.6 4,4 m 0,-4 -4,4 m 63.8,78.5 4,4 m 0,-4 -4,4 m -0.5,-186.3 4,4 m 0,-4 -4,4 m 28,62.2 4,4 m 0,-4 -4,4 m 124.4,27.3 4,4 m 0,-4 -4,4 m -15.1,90.5 4,4 m 0,-4 -4,4 m -41.8,-54.8 4,4 m 0,-4 -4,4 m 12.8,-226.4 4,4 m 0,-4 -4,4 m -191.3,-94.4 4,4 m 0,-4 -4,4"
       id="marqueV_002"
       stroke="#008000" />
    <path
       d="m 690.8,306.7 v -0.8 l 0.8,-1.5 0.7,-0.7 1.5,-0.8 h 3 l 1.5,0.8 0.8,0.7 0.7,1.5 v 1.5 l -0.7,1.5 -1.5,2.3 -7.5,7.5 h 10.5"
       id="titre_2"
       stroke="#4b0082" />
    <path
       d="m 839.4,561.8 h 8.3 l -4.5,6 h 2.2 l 1.5,0.7 0.8,0.8 0.7,2.2 v 1.5 l -0.7,2.3 -1.5,1.5 -2.3,0.7 h -2.2 l -2.3,-0.7 -0.7,-0.8 -0.8,-1.5"
       id="titre_3"
       stroke="#4b0082" />
    <path
       d="m 1012.2,447.8 -7.5,10.5 h 11.3 m -3.8,-10.5 v 15.8"
       id="titre_4"
       stroke="#4b0082" />
    <path
       d="m 834.99175,233.29257 h -7.5 l -0.8,6.7 0.8,-0.7 2.2,-0.8 h 2.3 l 2.2,0.8 1.5,1.5 0.8,2.2 v 1.5 l -0.8,2.3 -1.5,1.5 -2.2,0.7 h -2.3 l -2.2,-0.7 -0.8,-0.8 -0.7,-1.5"
       id="titre_5"
       stroke="#4b0082" />
  </g>
</svg>
