<?xml version="1.0" encoding="UTF-8" standalone="no"?>
<svg
   height="841.88977pt"
   viewBox="0 0 532.99998 754.00001"
   width="595.27557pt"
   version="1.1"
   id="svg1"
   sodipodi:docname="f300H_H20_A4x2.svg"
   inkscape:version="1.3 (0e150ed6c4, 2023-07-21)"
   xmlns:inkscape="http://www.inkscape.org/namespaces/inkscape"
   xmlns:sodipodi="http://sodipodi.sourceforge.net/DTD/sodipodi-0.dtd"
   xmlns="http://www.w3.org/2000/svg"
   xmlns:svg="http://www.w3.org/2000/svg">
  <defs
     id="defs1" />
  <sodipodi:namedview
     id="namedview1"
     pagecolor="#ffffff"
     bordercolor="#000000"
     borderopacity="0.25"
     inkscape:showpageshadow="2"
     inkscape:pageopacity="0.0"
     inkscape:pagecheckerboard="0"
     inkscape:deskcolor="#d1d1d1"
     inkscape:document-units="mm"
     showgrid="false"
     inkscape:zoom="0.76791526"
     inkscape:cx="1078.8951"
     inkscape:cy="543.67978"
     inkscape:window-width="1920"
     inkscape:window-height="1057"
     inkscape:window-x="-8"
     inkscape:window-y="-8"
     inkscape:window-maximized="1"
     inkscape:current-layer="svg1" />
  <style
     type="text/css"
     id="style1"><![CDATA[
			path {
				fill: none;
			}
		]]></style>
  <g
     id="page_001">
    <path
       d="m 186.1,475.6 -0.3,0.6 -0.1,1.3 -3.9,-5 m 1.8,5 0.2,0.2 0.1,0.7 -0.1,0.4 -0.3,0.6 -0.9,0.7 -0.7,0.1 h -0.4 l -0.6,-0.3 -0.4,-0.5 -0.1,-0.6 -0.1,-1.1 0.6,-4.2 -3.3,2.5 m 1.7,6.6 0.5,-0.7 -0.1,-0.7 -0.4,-0.5 -0.6,-0.3 -0.6,0.2 -1.2,0.5 -0.9,0.3 -0.8,-0.1 -0.6,-0.3 -0.5,-0.7 -0.2,-0.7 0.1,-0.4 0.5,-0.8 1,-0.7 0.9,-0.4 0.4,0.1 0.6,0.3 0.5,0.7 0.2,0.7 -0.2,0.8 -0.5,0.8 -0.7,1 -0.3,0.6 0.1,0.6 0.4,0.5 0.6,0.3 0.9,-0.3 1,-0.8 m 33,-3.5 h -0.6 l -1.3,0.2 3.5,-5.2 m -4.2,3.2 -0.1,0.3 -0.6,0.3 -0.4,0.1 -0.7,-0.1 -1,-0.7 -0.3,-0.5 -0.1,-0.5 0.1,-0.6 0.3,-0.5 0.6,-0.4 1,-0.4 4.1,-0.8 -3.5,-2.3 m -6.5,0.7 0.7,-0.6 0.9,-0.2 0.9,0.3 0.2,0.1 0.6,0.8 0.2,0.8 -0.2,0.9 -0.2,0.3 -0.8,0.6 -0.8,0.1 -0.9,-0.2 -0.3,-0.2 -0.5,-0.7 -0.2,-0.9 0.4,-1.1 0.8,-1.3 1.1,-1.1 1,-0.4 0.9,0.3 0.5,0.3 0.6,0.7 -0.1,0.7 m 1.2,29.6 V 500 l -0.5,-1.2 5.8,2.6 m -4.2,-3.1 -0.1,-0.6 -0.4,-1.2 5.7,2.5 m -4,-6.9 -1.2,2.7 2.3,1.4 -0.1,-0.4 0.1,-1 0.3,-0.8 0.7,-0.7 0.8,-0.3 0.9,0.1 0.6,0.3 0.7,0.6 0.3,0.8 -0.1,0.9 -0.4,0.9 -0.6,0.7 -0.4,0.1 h -0.7 m -24,37.1 0.1,-0.7 -0.3,-1.2 5.3,3.3 m -4,-5.9 -0.2,0.9 0.5,1 1.1,1 0.8,0.5 1.4,0.6 1.1,-0.1 0.7,-0.6 0.3,-0.5 0.2,-0.9 -0.4,-1 -1.1,-1.1 -0.8,-0.4 -1.4,-0.6 -1.1,0.1 -0.7,0.6 -0.3,0.4 m 5.7,-5.1 0.6,0.7 0.2,0.8 -0.3,0.9 -0.1,0.3 -0.7,0.6 -0.9,0.2 -0.9,-0.2 -0.3,-0.2 -0.6,-0.7 -0.2,-0.8 0.3,-1 0.1,-0.2 0.8,-0.6 0.8,-0.2 1.2,0.4 1.2,0.8 1.2,1 0.4,1 -0.2,0.9 -0.3,0.5 -0.8,0.6 H 198 m -47.6,14 -0.3,0.6 v 1.3 l -4.4,-4.5 m 1.5,7.7 -0.7,-5.1 -3.3,3.1 m 4,2 -4.4,-4.5 m 1.6,5.2 -0.2,0.7 -0.1,1.2 -4.4,-4.5 m 50.4,22.5 -0.5,-0.5 -1.1,-0.6 6,-1.9 m -7.1,-0.8 0.6,0.7 1,0.3 1.6,-0.1 0.8,-0.3 1.4,-0.7 0.6,-0.9 0.1,-0.9 -0.2,-0.6 -0.6,-0.7 -1,-0.4 -1.5,0.2 -0.9,0.3 -1.3,0.7 -0.7,0.9 v 0.9 l 0.1,0.4 m -2.1,-6.6 0.9,2.8 2.7,-0.5 -0.4,-0.2 -0.6,-0.8 -0.2,-0.8 v -1 l 0.4,-0.7 0.8,-0.6 0.5,-0.2 1,0.1 0.7,0.4 0.6,0.7 0.3,0.9 -0.1,0.9 -0.2,0.4 -0.4,0.5 m -53.6,12.7 0.5,0.4 1.1,0.6 -6,2 m 6.8,-0.4 1,3.1 -2.8,-0.9 0.2,0.8 v 0.7 l -0.2,0.4 -0.8,0.5 -0.6,0.2 H 136 l -0.8,-0.3 -0.5,-0.8 -0.3,-0.8 v -1 l 0.2,-0.4 0.4,-0.4 m 6.9,7.1 0.4,-0.5 v -0.9 l -0.1,-0.6 -0.6,-0.8 -1.1,-0.2 -1.5,0.1 -1.4,0.5 -1,0.7 -0.4,0.8 v 0.9 l 0.1,0.3 0.6,0.7 0.7,0.4 h 1 l 0.2,-0.1 0.8,-0.5 0.4,-0.8 v -1 l -0.1,-0.2 -0.6,-0.8 -0.8,-0.4 h -0.9 m 54,18.7 -0.3,-0.6 -0.9,-0.9 6.3,0.1 m -5,-1.2 -0.3,-0.6 -0.9,-0.9 6.3,0.2 m -5.5,-4.9 -0.6,0.3 -0.3,0.9 -0.1,0.6 0.3,0.9 0.9,0.6 1.5,0.3 1.5,0.1 1.2,-0.3 0.6,-0.6 0.3,-0.9 v -0.3 l -0.2,-0.9 -0.6,-0.6 -0.9,-0.3 h -0.3 l -0.9,0.2 -0.6,0.6 -0.4,0.9 v 0.3 l 0.3,0.9 0.6,0.6 0.9,0.4 m -46.2,23.2 0.3,0.5 0.9,0.9 -6.3,0.2 m 6.6,1.6 v 3.3 l -2.4,-1.8 v 0.9 l -0.3,0.6 -0.3,0.3 -0.9,0.3 h -0.6 l -0.9,-0.2 -0.6,-0.6 -0.3,-0.9 v -0.9 l 0.3,-0.9 0.3,-0.3 0.6,-0.3 m 5.2,7 -0.3,-0.9 -0.9,-0.6 -1.5,-0.2 h -0.9 l -1.5,0.3 -0.9,0.6 -0.3,0.9 v 0.6 l 0.3,0.9 0.9,0.6 1.5,0.3 h 0.9 l 1.5,-0.4 0.9,-0.6 0.3,-0.9 v -0.4 m 40.3,15.5 -0.2,-0.6 -0.9,-0.9 6.3,0.2 m -4.9,-1.9 h -0.3 l -0.6,-0.3 -0.3,-0.3 -0.3,-0.6 v -1.2 l 0.4,-0.6 0.3,-0.3 0.6,-0.3 0.6,0.1 0.6,0.3 0.8,0.6 2.9,3.1 0.2,-4.2 m -4.9,-1.2 -0.2,-0.6 -0.9,-1 6.3,0.3 m -31.2,9.2 0.7,-0.1 1,-0.7 -1.4,6.1 m 3.2,-5.9 3.2,0.8 -2.3,1.9 0.8,0.2 0.6,0.4 0.2,0.4 0.1,0.9 -0.2,0.6 -0.5,0.8 -0.7,0.5 h -1 l -0.8,-0.2 -0.8,-0.5 -0.3,-0.3 -0.1,-0.7 m 6,-2.3 0.6,-0.2 1.1,-0.7 -1.5,6.2 m -95.3,-116.2 -2.5,2.1 -0.2,-2.9 -0.7,0.5 -0.6,0.2 h -0.5 l -0.8,-0.5 -0.4,-0.5 -0.3,-0.9 v -0.8 l 0.5,-0.8 0.7,-0.6 0.9,-0.4 0.4,0.1 0.6,0.2 m -3.1,9.5 -0.4,-5.2 -3.4,2.9 m 3.8,2.3 -4.1,-4.8 m 62.5,6.1 0.3,-0.6 0.1,-1.3 4,4.9 m -0.8,-7.8 0.3,5.1 3.5,-2.8 m -3.8,-2.3 3.9,4.9 m -1,-5.4 0.3,-0.6 0.1,-1.3 4,4.9 m -83.8,17.8 -1.9,2.7 -1,-2.8 -0.5,0.7 -0.6,0.3 -0.4,0.1 -0.9,-0.3 -0.5,-0.3 -0.5,-0.8 -0.2,-0.8 0.3,-0.9 0.5,-0.7 0.7,-0.6 0.5,-0.1 0.6,0.1 m 0.8,7.8 -1.8,2.7 -1,-2.8 -0.5,0.7 -0.6,0.3 -0.4,0.1 -0.9,-0.3 -0.5,-0.3 -0.6,-0.8 -0.1,-0.8 0.2,-0.9 0.5,-0.8 0.8,-0.5 0.4,-0.1 0.7,0.1 m 2.1,18.2 0.6,0.2 1.3,-0.1 -4.1,4.7 m 5.6,-3.8 2.5,2.2 -3,0.6 0.7,0.6 0.3,0.6 v 0.5 l -0.3,0.8 -0.4,0.5 -0.9,0.5 h -0.8 l -0.9,-0.3 -0.7,-0.6 -0.4,-0.8 -0.1,-0.4 0.2,-0.7 m 9.8,1.6 -5,1.3 3.4,2.9 m 1.6,-4.2 -4.1,4.8 m 64.9,0.5 -0.4,-0.6 -1.1,-0.7 6.2,-1.2 m -6.7,-0.5 -0.7,-3.2 2.7,1.3 -0.1,-0.9 0.1,-0.6 0.3,-0.4 0.8,-0.4 0.6,-0.1 0.9,0.1 0.7,0.5 0.5,0.8 0.2,0.9 -0.1,0.9 -0.3,0.4 -0.5,0.4 m -5.8,-8 -0.6,0.4 -0.1,0.9 0.1,0.6 0.5,0.8 1,0.5 h 1.5 l 1.5,-0.3 1.1,-0.5 0.5,-0.7 0.1,-1 -0.1,-0.3 -0.4,-0.8 -0.7,-0.5 -1,-0.1 -0.3,0.1 -0.8,0.4 -0.5,0.7 -0.1,1 0.1,0.3 0.4,0.8 0.7,0.5 1,0.1 m -0.4,50.8 -0.2,-0.7 -0.8,-0.9 6.3,0.5 m -6.4,-2.3 0.3,-3.3 2.3,2 v -0.9 l 0.4,-0.5 0.3,-0.3 0.9,-0.2 h 0.6 l 0.9,0.4 0.6,0.7 0.2,0.9 -0.1,0.9 -0.4,0.9 -0.3,0.2 -0.6,0.3 m -4.5,-7.6 0.2,0.9 0.9,0.7 1.5,0.4 0.9,0.1 1.5,-0.1 0.9,-0.6 0.4,-0.8 0.1,-0.6 -0.3,-0.9 -0.8,-0.7 -1.5,-0.5 h -0.9 l -1.5,0.1 -0.9,0.5 -0.4,0.9 -0.1,0.4 M 70.2,483 l 1.3,3.1 -2.9,-0.8 0.3,0.9 v 0.6 l -0.2,0.4 -0.7,0.7 -0.5,0.2 -1,0.1 -0.8,-0.4 -0.6,-0.7 -0.3,-0.8 -0.1,-1 0.1,-0.3 0.5,-0.6 m 6.5,-48.4 -3.3,-6.2 m 5.8,2.9 -2.5,3.3 m 91.4,35.3 0.1,-0.6 -0.1,-1.3 4.9,4 m -2.9,-4.5 -0.2,-0.2 -0.3,-0.6 v -0.4 l 0.1,-0.7 0.8,-0.9 0.6,-0.3 h 0.4 l 0.7,0.1 0.4,0.4 0.3,0.6 0.3,1.1 0.5,4.2 2.6,-3.3 m -3.2,-6 -0.3,0.9 0.2,0.6 0.5,0.4 0.7,0.1 0.6,-0.3 1,-0.7 0.8,-0.5 0.8,-0.1 0.7,0.1 0.7,0.6 0.2,0.6 0.1,0.4 -0.4,0.9 -0.7,1 -0.8,0.5 h -0.4 l -0.7,-0.1 -0.7,-0.6 -0.3,-0.6 v -0.9 l 0.3,-0.8 0.5,-1.2 0.2,-0.6 -0.3,-0.6 -0.5,-0.4 -0.6,-0.2 -0.8,0.6 -0.9,1 m 1.3,-12.9 h -0.7 l -1.2,0.4 2.9,-5.6 m -6.8,3.9 4.5,-2.4 -4,-2 m -0.5,4.4 2.8,-5.6 m -8,1.9 v 0.7 l 0.7,0.7 0.5,0.2 1,0.2 0.9,-0.5 0.9,-1.2 0.7,-1.4 0.3,-1.2 -0.3,-0.8 -0.6,-0.7 -0.3,-0.1 -0.9,-0.1 -0.8,0.2 -0.7,0.7 -0.1,0.2 -0.2,1 0.3,0.8 0.6,0.7 0.3,0.1 0.9,0.1 0.9,-0.2 0.6,-0.7 m -29.6,-2.8 -0.5,0.5 -0.5,1.2 -2.1,-6 m -1.9,7.7 1.4,-5 -4.2,1.5 m 2.8,3.5 -2.1,-6 m -4.2,8.1 0.7,-6.9 m 3.2,5.5 -3.9,1.4 m -8.7,-15.6 0.4,-0.5 0.3,-1.3 3.1,5.5 m 0.5,-7.8 -0.5,5.1 3.9,-2.2 m -3.4,-2.9 3.1,5.4 m 2.7,-8.7 0.6,6.9 m -4.2,-4.8 3.6,-2.1 m -31.2,-33.9 -4.2,-3.1 -0.1,4.5 m 4.3,-1.4 -6.3,-0.2 m 6.1,3.4 -0.1,3.3 -2.3,-1.9 v 0.9 l -0.4,0.6 -0.3,0.3 -0.9,0.3 h -0.6 l -0.9,-0.3 -0.6,-0.7 -0.2,-0.9 v -0.9 l 0.3,-0.9 0.3,-0.3 0.6,-0.2 m 95.9,-28.7 0.2,-0.6 0.2,-1.3 4,4.9 m -0.9,-7.8 0.4,5.1 3.4,-2.8 m -3.8,-2.3 4,4.9 m -0.5,-7.7 -0.5,0.8 0.1,1.1 0.7,1.3 0.6,0.7 1.2,1 1,0.3 0.9,-0.3 0.5,-0.4 0.5,-0.8 -0.1,-1.1 -0.7,-1.3 -0.6,-0.7 -1.2,-1 -1,-0.3 -0.9,0.3 -0.4,0.3 m -109.2,-4.6 -5.1,-0.9 2,4.1 m 3.1,-3.2 -5.7,2.7 m 7.6,1.3 -0.7,-0.7 -1,-0.1 -1.5,0.4 -0.8,0.4 -1.2,0.9 -0.6,0.9 0.1,1 0.3,0.5 0.7,0.7 1,0.1 1.5,-0.4 0.8,-0.4 1.2,-0.9 0.6,-0.9 -0.1,-1 -0.2,-0.4 m 115.5,-64.9 -0.5,-0.5 -1.1,-0.5 5.8,-2.3 m -6.7,0.8 -1.2,-3 2.9,0.7 -0.4,-0.8 0.1,-0.7 0.2,-0.4 0.7,-0.6 0.5,-0.2 1,-0.1 0.8,0.4 0.6,0.7 0.3,0.8 0.1,1 -0.2,0.3 -0.4,0.6 m -5.6,-4.1 -0.2,0.1 -0.7,-0.1 -0.4,-0.1 -0.5,-0.5 -0.5,-1.1 0.1,-0.7 0.2,-0.4 0.4,-0.5 0.6,-0.2 0.6,0.1 1.1,0.2 3.9,1.6 -1.6,-3.8 m -95.3,-23.8 0.3,0.2 0.3,0.6 0.1,0.4 -0.1,0.7 -0.7,1 -0.6,0.3 -0.4,0.1 -0.7,-0.1 -0.5,-0.4 -0.3,-0.6 -0.4,-1 -0.7,-4.2 -2.4,3.4 m 1.6,7 0.7,0.1 0.8,-0.5 0.3,-0.5 0.3,-0.9 -0.4,-1 -1.1,-1.1 -1.2,-0.9 -1.1,-0.5 -0.9,0.2 -0.7,0.6 -0.2,0.2 -0.3,0.9 0.2,0.8 0.5,0.8 0.3,0.2 0.9,0.3 0.8,-0.2 0.8,-0.5 0.1,-0.3 0.3,-0.9 -0.1,-0.8 -0.6,-0.8 m -20.8,-34.6 0.1,-0.2 0.5,-0.5 0.4,-0.2 h 0.6 l 1.1,0.4 0.5,0.5 0.2,0.4 v 0.7 l -0.2,0.5 -0.5,0.5 -0.9,0.6 -3.9,1.7 3.9,1.5 m 7.2,-3.9 -5.1,4.7 m 1.2,-6.2 3.9,1.5 m 73,-4.1 -0.6,0.2 -1,0.8 0.8,-6.3 m -2.5,6.3 -3.3,-0.5 2.1,-2.1 -0.9,-0.1 -0.6,-0.4 -0.2,-0.3 -0.2,-1 0.1,-0.6 0.4,-0.8 0.6,-0.5 1,-0.2 0.9,0.1 0.8,0.4 0.3,0.3 0.2,0.7 m -6.5,4.3 -3.3,-0.4 2.1,-2.2 -0.9,-0.1 -0.6,-0.4 -0.2,-0.3 -0.2,-0.9 0.1,-0.6 0.4,-0.9 0.6,-0.5 1,-0.2 0.9,0.1 0.8,0.4 0.3,0.4 0.2,0.6 m -85,-30 0.2,0.7 0.7,1 -6.2,-1.1 m 4.6,2.5 0.3,0.1 0.6,0.4 0.2,0.3 0.2,0.7 -0.2,1.1 -0.4,0.6 -0.3,0.2 -0.7,0.2 -0.6,-0.1 -0.5,-0.4 -0.8,-0.7 -2.4,-3.5 -0.8,4.1 m 142.7,46.9 h -0.6 l -1.3,0.3 3.3,-5.4 m -4.9,4.7 -2.8,-1.7 2.8,-1.2 -0.8,-0.4 -0.3,-0.6 -0.2,-0.4 0.3,-0.9 0.3,-0.5 0.7,-0.7 0.8,-0.2 0.9,0.3 0.8,0.4 0.6,0.7 0.1,0.5 v 0.6 m -10.7,-0.5 5.8,-3.8 m -2.2,6 -3.6,-2.2 m 7,15.4 0.4,-0.5 0.3,-1.3 3.2,5.5 m -1.8,-6.5 2.9,-1.7 -0.4,3 0.8,-0.4 0.6,-0.1 0.5,0.1 0.7,0.7 0.3,0.5 0.2,0.9 -0.3,0.8 -0.6,0.7 -0.8,0.5 -0.9,0.2 -0.4,-0.1 -0.6,-0.4 m 3.4,-7.8 -0.6,0.7 v 0.6 l 0.3,0.6 0.6,0.3 h 0.7 l 1.1,-0.4 1,-0.2 0.8,0.3 0.6,0.3 0.4,0.8 v 0.7 l -0.1,0.4 -0.6,0.7 -1,0.6 -1,0.2 -0.4,-0.1 -0.5,-0.4 -0.5,-0.8 v -0.6 l 0.2,-0.9 0.6,-0.7 0.9,-0.8 0.4,-0.6 -0.1,-0.7 -0.3,-0.5 -0.5,-0.3 -0.9,0.2 -1.2,0.6 m 1.3,89.9 -0.4,-0.5 -1,-0.8 6.2,-0.9 m -7.1,-3.3 4.6,2.3 -0.7,-4.4 m -3.9,2.1 6.2,-0.9 m -6.7,-3.2 0.4,0.8 0.6,0.2 0.6,-0.1 0.6,-0.3 0.2,-0.7 0.1,-1.2 0.2,-0.9 0.5,-0.7 0.5,-0.4 0.9,-0.1 0.6,0.2 0.4,0.2 0.4,0.9 0.2,1.2 -0.2,0.9 -0.2,0.3 -0.6,0.4 -0.9,0.1 -0.6,-0.2 -0.7,-0.5 -0.4,-0.8 -0.5,-1.2 -0.4,-0.5 -0.6,-0.2 -0.6,0.1 -0.6,0.4 -0.1,0.9 0.2,1.3 M 59.4,134.5 l 0.6,0.3 1.3,0.3 -5.3,3.4 m 6.5,1.8 -1,0.3 -0.8,-0.2 -0.7,-0.6 -0.2,-0.2 -0.2,-0.9 0.1,-0.9 0.6,-0.7 0.3,-0.2 0.9,-0.2 0.8,0.1 0.8,0.6 0.1,0.3 0.3,0.9 -0.2,0.8 -0.8,0.9 -1.3,0.9 -1.4,0.5 h -1.1 l -0.7,-0.6 -0.4,-0.5 -0.2,-0.9 0.3,-0.6 m -5.7,-27 0.3,0.6 1,0.8 -6.2,0.6 m 6.9,4.1 -0.3,-3 H 51 l 0.3,0.2 0.4,0.9 0.1,0.9 -0.2,0.9 -0.5,0.7 -0.9,0.4 h -0.6 l -0.9,-0.2 -0.7,-0.5 -0.4,-0.9 -0.1,-0.9 0.3,-0.9 0.2,-0.3 0.6,-0.4 m 49.3,7.1 0.1,-0.7 -0.4,-1.2 5.5,3 m -3.7,-6.9 2.3,4.7 2.1,-4 m -4.4,-0.7 5.6,3 m -2.5,-8.4 -1.5,2.6 2.3,1.6 -0.2,-0.4 0.2,-1 0.4,-0.8 0.7,-0.6 0.8,-0.3 1,0.2 0.5,0.3 0.7,0.7 0.2,0.8 -0.2,0.9 -0.4,0.8 -0.7,0.7 -0.4,0.1 h -0.7 m -9,-5.9 -0.6,-0.1 -1.3,0.2 3.8,-5.1 m -7.4,2.8 4.9,-1.6 -3.6,-2.7 m -1.3,4.3 3.7,-5.1 m -5.3,2 -0.2,0.2 -0.6,0.3 -0.4,0.1 -0.7,-0.1 -0.9,-0.8 -0.3,-0.5 -0.1,-0.5 0.1,-0.6 0.4,-0.5 0.6,-0.3 1,-0.4 4.2,-0.6 -3.4,-2.5 m -30.6,-18.3 -0.7,3.3 -2,-2.3 -0.2,0.9 -0.4,0.5 -0.3,0.2 -1,0.1 -0.6,-0.1 -0.8,-0.5 -0.4,-0.7 -0.2,-0.9 0.2,-0.9 0.5,-0.8 0.4,-0.2 0.6,-0.2 m 3.2,9.8 0.6,-2.9 -2.6,-0.9 0.2,0.4 0.1,0.9 -0.2,0.9 -0.4,0.8 -0.7,0.5 -1,0.1 -0.6,-0.2 -0.8,-0.4 -0.5,-0.8 -0.1,-0.9 0.2,-0.9 0.5,-0.8 0.4,-0.2 0.6,-0.2 m 25.1,-39.9 -0.1,0.6 0.1,1.3 -4.8,-4.1 m 2.2,7.5 -1.3,-5 -2.9,3.5 m 4.2,1.5 -4.8,-4 m 1,8.4 -1.2,-5 -2.9,3.5 m 4.1,1.5 -4.8,-4 m 31.8,-0.4 -0.7,-0.2 -1.3,0.2 3.7,-5.1 m -7.3,2.8 4.9,-1.6 -3.6,-2.6 m -1.3,4.2 3.7,-5 m -6.3,3.1 -2.6,-1.9 2.8,-0.9 -0.7,-0.6 -0.3,-0.6 -0.1,-0.4 0.3,-0.9 0.4,-0.5 0.7,-0.5 0.9,-0.1 0.9,0.2 0.7,0.6 0.6,0.7 v 0.5 l -0.1,0.6 m -1.2,41.5 0.6,-0.3 1,-0.8 -0.5,6.3 m 4.8,-6.2 -3.3,3.9 4.5,0.4 m -1.2,-4.3 -0.5,6.2 m 3.5,-4.4 0.1,-0.3 0.3,-0.6 0.3,-0.3 0.7,-0.3 1.1,0.1 0.6,0.4 0.3,0.3 0.3,0.6 -0.1,0.6 -0.3,0.6 -0.7,0.9 -3.2,2.7 4.2,0.3 m 19.4,-10.2 0.2,-0.6 0.2,-1.2 4,4.9 m -2.8,-6.2 2.5,-2.1 0.2,3 0.7,-0.5 0.6,-0.2 h 0.4 l 0.8,0.6 0.4,0.4 0.4,0.9 -0.1,0.9 -0.5,0.8 -0.7,0.5 -0.9,0.4 -0.4,-0.1 -0.7,-0.3 m 3.7,-9.6 -2.3,1.9 1.5,2.3 v -0.4 l 0.5,-0.8 0.7,-0.6 0.9,-0.3 0.9,0.1 0.8,0.5 0.4,0.5 0.3,0.8 -0.1,0.9 -0.5,0.8 -0.7,0.6 -0.9,0.3 -0.4,-0.1 -0.6,-0.2 m 0.5,-8.3 -0.7,0.1 -1.2,0.4 2.7,-5.7 m -3.7,3.8 -0.1,0.3 -0.5,0.4 -0.4,0.2 h -0.7 l -1.1,-0.5 -0.4,-0.5 -0.1,-0.4 -0.1,-0.7 0.3,-0.5 0.5,-0.5 0.9,-0.5 4,-1.5 -3.8,-1.8 m -5.3,4.5 0.9,0.1 1,-0.5 0.9,-1.3 0.3,-0.8 0.4,-1.5 -0.2,-1 -0.7,-0.7 -0.5,-0.2 -0.9,-0.2 -1,0.6 -0.9,1.2 -0.4,0.9 -0.3,1.5 0.2,1 0.6,0.7 0.5,0.2 m -4.2,55.1 -0.3,0.6 v 1.3 l -4.3,-4.5 m 1.4,7.7 -0.7,-5.1 -3.3,3.1 m 4,2 -4.4,-4.6 m -0.2,8.8 2.2,-2 -1.6,-2.2 -0.1,0.4 -0.4,0.9 -0.6,0.6 -0.9,0.4 h -0.9 l -0.8,-0.5 -0.4,-0.4 -0.4,-0.9 v -0.8 l 0.5,-0.9 0.6,-0.6 0.9,-0.4 h 0.4 l 0.6,0.3 m 57.2,35.4 -0.4,-0.5 -1,-0.7 6.2,-1.1 m -6.9,-1.8 0.4,0.8 1,0.5 h 1.5 l 0.9,-0.1 1.5,-0.6 0.8,-0.7 0.1,-0.9 -0.1,-0.6 -0.4,-0.9 -1,-0.4 -1.6,-0.1 -0.8,0.2 -1.5,0.5 -0.8,0.7 -0.1,1 0.1,0.4 m -0.3,-7 -0.5,0.4 -0.2,0.9 0.1,0.6 0.5,0.8 0.9,0.5 h 1.6 l 1.5,-0.2 1.1,-0.5 0.5,-0.7 0.1,-0.9 v -0.3 l -0.5,-0.9 -0.6,-0.5 -1,-0.1 h -0.3 l -0.8,0.5 -0.5,0.7 -0.2,0.9 0.1,0.3 0.4,0.8 0.7,0.5 1,0.2 m -12.1,-26.6 -0.6,-0.3 -1.2,-0.3 5.2,-3.4 m -4.8,1.9 -0.6,-0.3 -1.2,-0.3 5.2,-3.5 m -6.4,-1.8 0.9,-0.2 0.8,0.2 0.8,0.6 0.1,0.2 0.3,0.9 -0.2,0.9 -0.6,0.7 -0.2,0.2 -1,0.2 -0.8,-0.2 -0.7,-0.5 -0.2,-0.3 -0.2,-0.9 0.1,-0.8 0.9,-1 1.2,-0.8 1.4,-0.5 h 1.1 l 0.8,0.5 0.3,0.5 0.2,1 -0.3,0.5 m -16.4,-5.4 -0.5,0.5 -0.5,1.2 -2.4,-5.8 m 0.9,6.6 -3.1,1.3 0.8,-2.9 -0.8,0.3 h -0.7 l -0.4,-0.2 -0.6,-0.7 -0.2,-0.6 -0.1,-0.9 0.3,-0.8 0.7,-0.6 0.9,-0.3 0.9,-0.1 0.4,0.2 0.5,0.4 m -6.3,8.1 2.8,-1.1 -0.8,-2.6 -0.2,0.3 -0.7,0.7 -0.8,0.3 -1,0.1 -0.7,-0.4 -0.7,-0.7 -0.2,-0.5 v -1 l 0.3,-0.8 0.7,-0.6 0.8,-0.3 1,-0.1 0.4,0.2 0.5,0.4 m -39.1,588.5 0.6,0.1 1.3,-0.1 -4,4.9 m 7.5,-2.4 -5,1.4 3.5,2.8 m 1.5,-4.2 -4,4.9 m 6.5,-2.8 2.5,2 -2.9,0.8 0.7,0.5 0.3,0.6 v 0.5 l -0.3,0.9 -0.4,0.4 -0.8,0.5 -0.8,0.1 -0.9,-0.3 -0.7,-0.6 -0.5,-0.8 -0.1,-0.4 0.2,-0.7 m -46,-5.5 0.4,-0.5 0.5,-1.1 2.4,5.8 m 1.4,-7.8 -1.1,5.1 4.1,-1.8 m -3,-3.3 2.5,5.9 m 2.9,-8.1 -1.2,5 4.2,-1.7 m -3,-3.3 2.4,5.8 m -10.1,-15.7 -3.6,-3.6 -0.7,4.4 m 4.3,-0.8 -6.2,-1 m 5.3,6.7 -3.6,-3.6 -0.8,4.4 m 4.4,-0.8 -6.2,-1 m -3.4,-69.3 0.4,0.4 1.2,0.6 -6,2 m 7.9,2.9 -7,-0.8 m 5.6,-3.2 1.4,4 m 7,-23.9 -0.6,0.2 -1,0.8 0.7,-6.2 m -2.4,6.3 -3.3,-0.4 2,-2.2 -0.9,-0.1 -0.5,-0.3 -0.3,-0.4 -0.2,-0.9 0.1,-0.6 0.4,-0.9 0.6,-0.5 0.9,-0.2 0.9,0.1 0.9,0.4 0.3,0.3 0.2,0.7 m -9,4.2 3.4,-3.9 -4.4,-0.4 m 1,4.3 0.7,-6.3 m 102.6,-400.9 0.5,-0.4 0.7,-1 1.2,6.1 m 0.5,-6.7 3.2,-0.6 -1.3,2.7 0.9,-0.2 0.7,0.2 0.3,0.2 0.5,0.9 0.1,0.5 -0.1,1 -0.5,0.7 -0.8,0.5 -0.9,0.1 -1,-0.1 -0.3,-0.2 -0.4,-0.6 m 4.8,-6.1 3.3,-0.6 -1.3,2.7 0.8,-0.2 0.7,0.2 0.3,0.2 0.5,0.8 0.1,0.6 -0.1,1 -0.5,0.7 -0.8,0.4 -0.9,0.2 -0.9,-0.1 -0.4,-0.3 -0.4,-0.5 m 17.1,-7.8 -0.4,-0.6 -1,-0.8 6.3,-0.5 m -6.6,-1.2 -0.3,-3.3 2.6,1.6 -0.1,-0.9 0.3,-0.6 0.2,-0.3 0.9,-0.4 h 0.6 l 0.9,0.2 0.7,0.6 0.3,0.8 0.1,0.9 -0.2,0.9 -0.3,0.4 -0.6,0.3 m -3.7,-9 0.9,0.2 0.7,0.6 0.4,0.9 v 0.3 l -0.2,0.9 -0.6,0.6 -0.9,0.4 h -0.3 l -0.9,-0.2 -0.6,-0.6 -0.4,-0.8 v -0.3 l 0.2,-0.9 0.6,-0.7 1.1,-0.4 1.5,-0.1 1.5,0.2 1,0.5 0.4,0.9 v 0.6 l -0.2,0.9 -0.6,0.4 m -14.9,235.1 0.6,-0.2 1.1,-0.7 -1,6.2 m 5.2,-5.8 -3.6,3.7 4.5,0.7 m -0.9,-4.4 -0.9,6.2 m 7,-4.3 -0.2,-0.6 -0.9,-0.5 -0.6,-0.1 -0.9,0.2 -0.7,0.8 -0.6,1.4 -0.2,1.5 0.1,1.2 0.5,0.7 0.8,0.5 h 0.3 l 1,-0.2 0.7,-0.5 0.4,-0.8 v -0.3 l -0.1,-0.9 -0.5,-0.7 -0.9,-0.4 -0.3,-0.1 -0.9,0.2 -0.7,0.5 -0.4,0.8 m 37.2,-53.1 -0.3,0.6 -0.3,1.2 -3.3,-5.3 m -0.2,7.8 0.3,-5.1 -3.8,2.3 m 3.5,2.8 -3.3,-5.4 m -0.5,7.7 0.6,-0.7 v -1.1 l -0.5,-1.5 -0.5,-0.7 -1,-1.1 -1,-0.5 -1,0.2 -0.5,0.3 -0.6,0.8 v 1 l 0.5,1.5 0.5,0.7 1,1.2 1,0.4 0.9,-0.2 0.4,-0.2 m 45.8,-1 -0.7,-0.1 -1.2,0.2 3.8,-5.1 m -4.4,3 -0.2,0.3 -0.6,0.3 h -0.4 l -0.6,-0.1 -1,-0.7 -0.3,-0.6 -0.1,-0.4 0.2,-0.7 0.3,-0.5 0.6,-0.3 1,-0.3 4.2,-0.6 -3.3,-2.5 m -8,1.9 6.2,-3.3 m -2.8,5.8 -3.4,-2.5 m -32.4,52.6 0.6,-0.4 0.7,-1 1,6.2 m 0.9,-5.2 -0.1,-0.3 0.2,-0.7 0.3,-0.3 0.5,-0.4 1.2,-0.2 0.6,0.2 0.4,0.2 0.4,0.6 0.1,0.6 -0.2,0.6 -0.5,1 -2.4,3.4 4.1,-0.6 m 4.3,-5 -0.2,0.9 -0.5,0.7 -0.8,0.5 h -0.3 l -0.9,-0.1 -0.7,-0.5 -0.5,-0.9 v -0.3 l 0.1,-0.9 0.5,-0.7 0.9,-0.4 0.3,-0.1 0.9,0.2 0.7,0.5 0.5,1.1 0.2,1.5 v 1.5 l -0.5,1 -0.8,0.4 -0.6,0.1 -0.9,-0.1 -0.4,-0.6 m 24.7,-20.9 0.2,-0.6 -0.1,-1.3 4.8,4 m -2.8,-4.5 -0.2,-0.1 -0.3,-0.7 -0.1,-0.4 0.2,-0.6 0.7,-1 0.7,-0.2 0.4,-0.1 0.6,0.2 0.5,0.3 0.3,0.6 0.3,1.1 0.4,4.2 2.7,-3.3 m -1.9,-7.6 -1.9,2.3 1.9,2 -0.1,-0.5 0.4,-0.9 0.5,-0.7 0.8,-0.5 0.9,-0.1 0.9,0.4 0.4,0.4 0.6,0.8 v 0.8 l -0.3,0.9 -0.6,0.7 -0.8,0.5 h -0.4 l -0.6,-0.1 m -87.2,268.8 -0.6,-0.1 -1.3,0.3 3.4,-5.3 m -5,4.6 -2.7,-1.8 2.8,-1.1 -0.8,-0.4 -0.3,-0.6 -0.1,-0.4 0.2,-1 0.3,-0.5 0.8,-0.6 0.8,-0.1 0.9,0.2 0.8,0.5 0.6,0.7 0.1,0.4 -0.1,0.7 m -6.4,0.3 -0.7,-0.1 -1.2,0.3 3.3,-5.3 m -16.2,37.3 0.3,-0.6 0.2,-1.3 3.7,5.2 m -1.6,-5.1 -0.1,-0.2 -0.1,-0.7 v -0.4 l 0.4,-0.6 0.9,-0.7 0.7,-0.1 0.4,0.1 0.6,0.3 0.4,0.5 0.1,0.7 v 1 l -0.7,4.2 3.4,-2.4 m -2.2,-6.2 2.7,-1.9 -0.1,3 0.7,-0.5 0.7,-0.1 0.4,0.1 0.8,0.6 0.3,0.4 0.3,1 -0.2,0.8 -0.5,0.8 -0.8,0.5 -0.9,0.2 h -0.4 l -0.6,-0.3 m -66,-409.9 -0.3,0.6 -0.1,1.3 -4.1,-4.8 m 3,6.1 -2.5,2.1 -0.2,-3 -0.7,0.6 -0.7,0.2 h -0.4 l -0.8,-0.5 -0.4,-0.5 -0.4,-0.9 0.1,-0.8 0.5,-0.8 0.6,-0.6 0.9,-0.4 0.4,0.1 0.7,0.2 m -26.1,43.5 3.3,0.3 -2,2.3 H 47 l 0.6,0.4 0.3,0.3 0.2,0.9 -0.1,0.6 -0.3,0.9 -0.7,0.5 -0.9,0.3 -0.9,-0.1 -0.9,-0.4 -0.2,-0.3 -0.3,-0.6 m 7.2,-4.6 -0.9,0.3 -0.3,0.5 -0.1,0.6 0.3,0.7 0.5,0.3 1.2,0.4 0.9,0.4 0.5,0.6 0.3,0.6 -0.1,0.9 -0.3,0.6 -0.3,0.3 -1,0.2 -1.2,-0.1 -0.8,-0.4 -0.3,-0.3 -0.3,-0.6 0.1,-0.9 0.4,-0.6 0.6,-0.5 0.9,-0.2 1.2,-0.3 0.7,-0.2 0.3,-0.6 0.1,-0.6 -0.3,-0.6 -0.9,-0.4 -1.3,-0.1 m 0.4,-12.5 -1.5,2.9 -1.4,-2.6 -0.4,0.8 -0.5,0.4 -0.4,0.1 -0.9,-0.1 -0.6,-0.2 -0.6,-0.7 -0.3,-0.8 0.1,-0.9 0.4,-0.8 0.6,-0.7 0.4,-0.2 h 0.7 m -1.3,9.7 -0.7,-0.7 -0.3,-0.8 0.2,-0.9 0.1,-0.3 0.7,-0.7 0.8,-0.3 0.9,0.1 0.3,0.2 0.7,0.6 0.2,0.8 -0.1,1 -0.1,0.2 -0.7,0.7 -0.8,0.3 -1.2,-0.2 -1.3,-0.7 -1.3,-0.9 -0.5,-0.9 0.1,-1 0.3,-0.5 0.6,-0.7 h 0.7 m 388.1,-84.5 -0.4,-0.6 -1.1,-0.6 6.2,-1.5 m -5.3,0.2 -0.4,-0.6 -1.1,-0.6 6.2,-1.5 m -7.4,-3.1 0.6,2.9 2.7,-0.3 -0.3,-0.2 -0.5,-0.8 -0.2,-0.9 0.1,-0.9 0.4,-0.8 0.8,-0.5 0.6,-0.1 0.9,0.1 0.8,0.4 0.5,0.8 0.2,0.9 -0.1,1 -0.2,0.3 -0.6,0.5 m -38.4,38.2 0.7,-0.1 1.1,-0.7 -1.6,6.1 m 2.3,-4.7 0.6,-0.1 1.1,-0.6 -1.6,6.1 m 4.5,-5.6 -0.9,0.1 -0.8,0.7 -0.7,1.4 -0.2,0.8 -0.1,1.6 0.4,1 0.8,0.5 0.5,0.2 1,-0.1 0.8,-0.7 0.7,-1.4 0.2,-0.9 0.1,-1.5 -0.4,-1 -0.8,-0.5 -0.4,-0.2 m -24.6,-6 -0.7,-0.6 -0.4,-0.7 0.1,-1 0.1,-0.3 0.6,-0.7 0.7,-0.4 1,0.1 0.3,0.1 0.7,0.6 0.4,0.8 -0.1,0.9 -0.1,0.3 -0.6,0.7 -0.8,0.4 -1.2,-0.2 -1.4,-0.5 -1.3,-0.8 -0.6,-0.9 v -1 l 0.2,-0.5 0.6,-0.7 0.7,-0.1 m 2.7,8 V 262 l -0.6,-0.9 -1.3,-0.8 -0.8,-0.3 -1.5,-0.3 -1.1,0.3 -0.6,0.7 -0.2,0.5 v 1 l 0.6,0.9 1.3,0.8 0.8,0.3 1.5,0.3 1.1,-0.3 0.6,-0.7 0.2,-0.4 m -11.2,26.8 -2.5,-4.5 -1.9,4 m 4.4,0.5 -5.7,-2.7 m 1,7.7 -0.7,-0.7 -0.3,-0.8 0.1,-0.9 0.1,-0.3 0.7,-0.7 0.8,-0.3 0.9,0.2 0.3,0.1 0.7,0.6 0.3,0.8 -0.1,1 -0.2,0.2 -0.6,0.7 -0.8,0.3 -1.2,-0.2 -1.4,-0.7 -1.2,-0.9 -0.6,-0.9 0.1,-0.9 0.3,-0.6 0.6,-0.7 h 0.7 m 29.7,-75.5 0.1,0.6 0.7,1.1 -6.1,-1.4 m 4.7,2.2 0.2,0.6 0.7,1.1 -6.2,-1.3 m 4.8,2.1 0.1,0.6 0.7,1.1 -6.1,-1.3 m 42.7,-26.2 -0.2,-0.7 -0.7,-1.1 6.2,1.3 m -5.8,-4.2 0.1,1 0.8,0.7 1.4,0.6 0.9,0.2 h 1.5 l 1,-0.4 0.5,-0.8 0.1,-0.6 -0.1,-1 -0.8,-0.7 -1.4,-0.6 -0.9,-0.2 h -1.5 l -1,0.4 -0.5,0.8 -0.1,0.5 m 3.5,-6.8 0.9,0.5 0.4,0.7 0.1,0.9 v 0.3 l -0.5,0.9 -0.7,0.4 -0.9,0.1 h -0.3 l -0.9,-0.5 -0.4,-0.7 -0.1,-0.9 v -0.3 l 0.5,-0.8 0.7,-0.5 1.2,-0.1 1.5,0.3 1.4,0.6 0.8,0.8 0.1,0.9 -0.1,0.6 -0.5,0.8 -0.7,0.2 m -4.1,-17.4 -0.6,-0.4 -1.2,-0.2 5.2,-3.5 m -7,1.1 0.7,0.6 h 1.1 l 1.4,-0.6 0.8,-0.5 1,-1 0.5,-1 -0.3,-0.9 -0.3,-0.5 -0.8,-0.6 h -1 l -1.5,0.5 -0.7,0.5 -1.1,1.1 -0.4,1 0.2,0.9 0.3,0.4 m -3.9,-5.8 1.7,2.5 2.4,-1.3 H 426 l -0.8,-0.6 -0.5,-0.8 -0.2,-0.9 0.2,-0.8 0.6,-0.8 0.5,-0.3 0.9,-0.3 0.8,0.2 0.7,0.6 0.5,0.8 0.3,0.9 -0.1,0.4 -0.3,0.6 m -45,-26.6 0.3,0.6 0.9,0.9 h -6.3 m 5.1,1 0.3,0.6 0.9,0.9 h -6.3 m 6.6,4.3 -4.2,-3 v 4.5 m 4.2,-1.5 h -6.3 m 37,-9.4 -0.4,-0.6 -0.9,-0.8 6.2,-0.6 m -5.1,-0.6 -0.4,-0.5 -1,-0.8 6.3,-0.6 m -6,-4.2 -0.6,0.3 -0.2,0.9 0.1,0.6 0.3,0.9 1,0.5 1.5,0.2 1.5,-0.1 1.2,-0.5 0.5,-0.6 0.2,-0.9 V 125 l -0.4,-0.9 -0.6,-0.5 -1,-0.3 -0.3,0.1 -0.8,0.4 -0.6,0.6 -0.2,0.9 v 0.3 l 0.4,0.9 0.7,0.5 0.9,0.3 m -6.3,-34.3 -0.3,-0.6 -1,-0.8 6.2,-0.7 m -5.2,-1.1 -0.3,0.1 -0.6,-0.3 -0.3,-0.2 -0.4,-0.6 -0.1,-1.2 0.2,-0.6 0.3,-0.3 0.5,-0.4 0.6,-0.1 0.7,0.2 0.9,0.5 3.3,2.7 -0.4,-4.2 m -5,-0.5 -0.4,-0.6 -1,-0.7 6.3,-0.8 m -15.1,-15.7 -0.6,0.2 -1.1,0.5 1.8,-6 m -3,4.3 -0.1,0.3 -0.5,0.5 -0.4,0.2 -0.6,0.1 -1.2,-0.3 -0.5,-0.5 -0.2,-0.4 -0.1,-0.6 0.2,-0.6 0.5,-0.5 0.8,-0.7 3.8,-2 -4.1,-1.2 m -3,4.1 -0.1,0.3 -0.4,0.5 -0.4,0.2 -0.7,0.1 -1.1,-0.4 -0.5,-0.5 -0.2,-0.3 -0.1,-0.7 0.2,-0.6 0.4,-0.4 0.9,-0.7 3.7,-2 -4,-1.3 m -33.3,62.3 0.4,-0.6 0.3,-1.2 3.3,5.3 m -0.9,-7.1 -0.6,0.8 -0.1,1.1 0.6,1.4 0.4,0.7 1.1,1.2 1,0.4 0.9,-0.2 0.5,-0.3 0.6,-0.8 v -1 l -0.5,-1.5 -0.5,-0.7 -1,-1.2 -1,-0.4 -0.9,0.2 -0.4,0.3 m 3.4,-2.1 2.8,-1.8 -0.3,3 0.8,-0.5 h 0.6 0.5 l 0.7,0.6 0.3,0.6 0.2,0.9 -0.2,0.8 -0.6,0.7 -0.7,0.5 -1,0.2 -0.4,-0.1 -0.5,-0.3 m -23.6,-11.3 -0.9,-0.4 -0.6,0.3 -0.4,0.5 -0.1,0.6 0.2,0.7 0.8,0.9 0.5,0.8 0.1,0.9 -0.2,0.6 -0.5,0.7 -0.6,0.3 -0.5,0.1 -0.8,-0.4 -1,-0.7 -0.5,-0.8 v -0.4 l 0.1,-0.7 0.6,-0.7 0.6,-0.3 0.8,-0.1 0.9,0.4 1.1,0.5 0.7,0.1 0.6,-0.2 0.4,-0.5 0.1,-0.7 -0.5,-0.8 -1,-0.8 m 3.5,2.9 2.6,2 -2.9,0.8 0.7,0.5 0.3,0.7 v 0.4 l -0.3,0.9 -0.4,0.4 -0.8,0.5 -0.8,0.1 -0.9,-0.3 -0.7,-0.6 -0.5,-0.8 -0.1,-0.4 0.2,-0.6 m 17.6,-56.1 -0.6,0.3 -0.9,0.8 0.2,-6.3 m -3.2,6.4 1,-0.2 0.6,-0.9 0.3,-1.5 0.1,-0.9 -0.3,-1.5 -0.5,-0.9 -0.9,-0.4 h -0.6 l -0.9,0.3 -0.7,0.9 -0.3,1.4 -0.1,0.9 0.3,1.5 0.6,1 0.8,0.3 h 0.5 m -3.9,-1.6 v 0.3 l -0.3,0.6 -0.3,0.2 -0.6,0.3 h -1.2 l -0.6,-0.3 -0.3,-0.4 -0.3,-0.6 0.1,-0.6 0.3,-0.6 0.6,-0.8 3.1,-2.9 -4.2,-0.2 m -6.7,8.3 0.5,0.5 1.2,0.5 -5.9,2.3 m 7.2,0.3 -0.6,-0.7 -1.1,-0.2 -1.5,0.2 -0.8,0.4 -1.3,0.8 -0.6,0.9 v 0.9 l 0.2,0.6 0.6,0.7 1.1,0.2 1.5,-0.2 0.8,-0.4 1.3,-0.8 0.6,-0.9 V 66 l -0.2,-0.4 m 1.8,4.5 -0.6,-0.7 -0.6,-0.1 -0.6,0.3 -0.5,0.5 v 0.6 l 0.1,1.3 0.1,0.9 -0.3,0.8 -0.5,0.5 -0.8,0.3 -0.7,-0.1 -0.4,-0.1 -0.6,-0.7 -0.4,-1.2 -0.1,-0.9 0.2,-0.4 0.4,-0.5 0.9,-0.3 h 0.6 l 0.8,0.4 0.6,0.7 0.7,1 0.5,0.4 0.7,0.1 0.6,-0.2 0.4,-0.5 v -1 L 345.3,70 m -11.7,20.7 -0.7,-0.1 -1.2,0.2 3.7,-5.1 m -6.2,3.5 0.9,0.3 1,-0.4 1.1,-1 0.5,-0.7 0.7,-1.4 v -1.1 l -0.5,-0.8 -0.5,-0.3 -0.9,-0.3 -1,0.4 -1.2,1 -0.5,0.7 -0.6,1.4 -0.1,1.1 0.6,0.8 0.3,0.2 m -5.3,-3.7 4.9,-1.7 -3.6,-2.6 m -1.3,4.3 3.7,-5.2 m 65.8,207 -0.6,-0.3 -1.2,-0.2 5,-3.8 m -4.7,2.2 -0.6,-0.3 -1.3,-0.2 5,-3.8 m -6.9,1.6 0.8,0.5 h 1 l 1.4,-0.7 0.7,-0.5 1,-1.2 0.4,-1 -0.3,-0.9 -0.4,-0.5 -0.7,-0.5 -1.1,0.1 -1.4,0.6 -0.7,0.6 -1,1.1 -0.4,1 0.3,0.9 0.3,0.4 m -7.7,16.3 0.4,0.9 -0.1,0.8 -0.5,0.8 -0.2,0.2 -0.9,0.4 -0.8,-0.1 -0.8,-0.5 -0.2,-0.2 -0.4,-0.9 0.1,-0.8 0.5,-0.8 0.2,-0.2 0.9,-0.4 0.8,0.1 1,0.7 1,1.1 0.7,1.4 0.2,1 -0.5,0.8 -0.5,0.4 -0.8,0.4 -0.7,-0.3 m 2.5,-9.3 0.4,5.2 3.4,-3 m -3.8,-2.2 4.1,4.8 m -35.9,25 0.4,0.9 -0.1,0.8 -0.5,0.8 -0.2,0.2 -0.9,0.4 -0.8,-0.1 -0.9,-0.5 -0.1,-0.2 -0.4,-0.9 0.1,-0.9 0.5,-0.8 0.2,-0.2 0.9,-0.3 0.9,0.1 0.9,0.7 1,1.2 0.7,1.3 0.1,1.1 -0.5,0.8 -0.4,0.4 -0.9,0.3 -0.6,-0.3 m 2.9,-9.4 -2.3,1.9 1.5,2.2 0.1,-0.4 0.5,-0.8 0.7,-0.6 0.8,-0.3 0.9,0.1 0.8,0.5 0.4,0.4 0.3,0.9 v 0.9 l -0.5,0.8 -0.7,0.5 -0.9,0.4 h -0.4 l -0.7,-0.3 m -24.2,2.3 -0.6,0.7 -0.7,0.4 h -1 l -0.3,-0.1 -0.7,-0.6 -0.4,-0.8 v -0.9 l 0.1,-0.3 0.6,-0.7 0.8,-0.4 h 0.9 l 0.3,0.1 0.8,0.6 0.3,0.7 -0.1,1.3 -0.5,1.4 -0.7,1.3 -0.9,0.7 -0.9,-0.1 -0.6,-0.1 -0.8,-0.6 -0.1,-0.7 m 9.4,-1.5 -0.1,-0.7 -0.7,-0.6 -0.6,-0.2 h -1 l -0.8,0.7 -0.8,1.3 -0.5,1.4 -0.1,1.3 0.4,0.7 0.7,0.6 0.3,0.1 h 1 l 0.7,-0.4 0.6,-0.7 0.1,-0.3 v -1 l -0.4,-0.7 -0.7,-0.6 -0.3,-0.1 h -0.9 l -0.8,0.4 -0.6,0.7 m 9.9,-13.4 2.8,-1.1 -0.8,-2.7 -0.1,0.4 -0.7,0.7 -0.9,0.3 -0.9,0.1 -0.8,-0.3 -0.6,-0.8 -0.3,-0.5 v -1 l 0.3,-0.7 0.7,-0.7 0.8,-0.3 1,-0.1 0.4,0.2 0.5,0.4 m -4.6,7.5 0.7,-0.6 0.2,-1.1 -0.3,-1.5 -0.4,-0.8 -0.8,-1.3 -0.9,-0.6 -1,0.1 -0.5,0.2 -0.7,0.6 -0.2,1.1 0.3,1.5 0.3,0.8 0.9,1.3 0.9,0.6 0.9,-0.1 0.4,-0.2 m -40.6,11.1 0.4,0.5 0.9,0.1 0.6,-0.1 0.8,-0.5 0.5,-1 v -1.5 l -0.3,-1.5 -0.5,-1.1 -0.7,-0.5 -1,-0.1 -0.3,0.1 -0.8,0.4 -0.5,0.7 -0.1,1 0.1,0.3 0.4,0.8 0.7,0.5 1,0.1 0.3,-0.1 0.8,-0.4 0.5,-0.7 0.1,-1 m -5,3.7 0.1,0.3 -0.2,0.7 -0.2,0.3 -0.6,0.4 -1.1,0.3 -0.7,-0.2 -0.3,-0.3 -0.4,-0.5 -0.2,-0.6 0.2,-0.6 0.4,-1 2.4,-3.5 -4.1,0.8 m 24.3,21.1 1,0.1 0.7,0.3 0.6,0.8 0.1,0.3 -0.1,0.9 -0.3,0.8 -0.8,0.6 h -0.3 -0.9 l -0.8,-0.4 -0.6,-0.7 v -0.3 -1 l 0.4,-0.7 1,-0.7 1.4,-0.4 1.6,-0.2 1,0.3 0.6,0.8 0.1,0.5 v 1 l -0.5,0.5 m -6.8,-6.6 -0.5,0.5 v 0.9 l 0.2,0.6 0.6,0.7 1,0.3 1.5,-0.1 1.5,-0.5 1,-0.6 0.4,-0.8 v -0.9 l -0.1,-0.3 -0.5,-0.8 -0.8,-0.4 h -1 l -0.2,0.1 -0.8,0.6 -0.4,0.7 v 1 l 0.1,0.2 0.5,0.8 0.8,0.4 h 1 m 12.5,24.7 0.8,-0.5 0.8,-0.1 0.9,0.4 0.2,0.2 0.5,0.8 0.1,0.8 -0.4,0.9 -0.1,0.2 -0.9,0.5 -0.8,0.1 -0.9,-0.4 -0.2,-0.2 -0.5,-0.8 -0.1,-0.8 0.6,-1.1 0.9,-1.2 1.2,-0.9 1.1,-0.3 0.9,0.3 0.4,0.4 0.5,0.8 -0.2,0.7 m -6.1,0 -0.6,-0.1 -1.3,0.1 4.1,-4.9 m -51.8,55.5 -0.3,0.5 -0.3,1.3 -3.3,-5.4 m 0.8,7.1 0.7,-0.7 v -1.1 l -0.5,-1.5 -0.5,-0.7 -1,-1.2 -1,-0.4 -0.9,0.2 -0.5,0.3 -0.6,0.7 -0.1,1.1 0.5,1.4 0.5,0.8 1,1.1 1,0.5 0.9,-0.2 0.4,-0.2 m -6.4,3.8 -0.6,-7 m 4.2,4.8 -3.6,2.2 m 18.2,-43.5 2.3,-1.9 -1.5,-2.3 v 0.4 l -0.5,0.9 -0.7,0.5 -0.9,0.4 -0.8,-0.1 -0.8,-0.5 -0.4,-0.4 -0.4,-0.9 0.1,-0.8 0.5,-0.9 0.7,-0.5 0.8,-0.4 h 0.5 l 0.6,0.3 m -4.1,9 0.6,0.3 0.9,-0.4 0.4,-0.4 0.5,-0.8 -0.1,-1.1 -0.7,-1.3 -1,-1.1 -1,-0.8 h -0.9 l -0.8,0.3 -0.3,0.2 -0.5,0.8 v 0.9 l 0.3,0.9 0.2,0.2 0.8,0.5 h 0.9 l 0.9,-0.3 0.2,-0.2 0.5,-0.8 v -0.9 l -0.3,-0.8 m -0.2,9.4 -6.5,2.4 m 3.5,-5.4 3,3 m -0.2,1.7 0.6,0.2 h 1.3 l -4.4,4.5 m 18,60.2 0.3,0.9 -0.1,0.8 -0.5,0.8 -0.3,0.2 -0.9,0.3 -0.8,-0.1 -0.8,-0.5 -0.2,-0.2 -0.3,-0.9 0.1,-0.9 0.5,-0.8 0.3,-0.1 0.8,-0.4 0.9,0.1 1,0.8 0.9,1.2 0.7,1.3 0.1,1.1 -0.6,0.8 -0.4,0.4 -0.9,0.3 -0.6,-0.3 m 1.6,-8.1 -0.6,0.8 0.2,0.7 0.3,0.4 0.6,0.3 0.7,-0.1 1.1,-0.5 0.9,-0.3 0.9,0.1 0.6,0.3 0.5,0.7 0.2,0.6 -0.1,0.4 -0.5,0.8 -1,0.8 -0.9,0.3 -0.4,-0.1 -0.6,-0.2 -0.5,-0.8 -0.2,-0.6 0.1,-0.9 0.6,-0.7 0.7,-1 0.3,-0.6 -0.1,-0.7 -0.4,-0.5 -0.6,-0.2 -0.9,0.3 -1.1,0.8 m 2.2,43.8 -0.5,-0.3 -1.3,-0.2 5.3,-3.5 m -7.1,1.1 0.7,0.6 h 1.1 l 1.4,-0.6 0.8,-0.5 1.1,-1.1 0.4,-1 -0.3,-0.9 -0.3,-0.5 -0.7,-0.5 h -1.1 l -1.4,0.5 -0.8,0.5 -1.1,1.1 -0.4,1 0.3,0.9 0.2,0.4 m -0.7,-3.5 -0.5,-0.4 -1.3,-0.2 5.3,-3.5 m -20.5,13 0.9,-2.9 -2.5,-1 0.2,0.3 v 1 l -0.3,0.8 -0.5,0.8 -0.8,0.4 h -0.9 l -0.6,-0.1 -0.8,-0.6 -0.4,-0.7 v -1 l 0.3,-0.8 0.5,-0.8 0.4,-0.2 0.6,-0.1 m 2.9,8 v -0.9 l -0.5,-0.5 -0.5,-0.2 -0.7,0.1 -0.5,0.5 -0.6,1.1 -0.6,0.8 -0.7,0.4 -0.7,0.1 -0.8,-0.3 -0.5,-0.4 -0.2,-0.4 v -1 l 0.3,-1.1 0.6,-0.8 0.3,-0.2 0.7,-0.1 0.9,0.3 0.4,0.4 0.4,0.8 0.1,0.9 -0.1,1.2 0.1,0.7 0.5,0.5 0.6,0.1 0.6,-0.1 0.6,-0.7 0.4,-1.3 m -25,-60.3 0.1,0.7 0.6,1.1 -6,-1.9 m 5.3,4.8 v -0.9 l -0.7,-0.9 -1.3,-0.7 -0.9,-0.3 -1.5,-0.2 -1,0.3 -0.6,0.7 -0.2,0.6 v 1 l 0.7,0.8 1.3,0.8 0.9,0.2 1.5,0.2 1,-0.3 0.6,-0.7 0.1,-0.4 m -2.3,7 -5,-4.8 m 6.3,0.8 -1.3,4 m 8.6,14.7 -5.8,3.9 m 2.1,-6.1 3.7,2.2 m 0.7,2.1 0.1,-0.3 0.6,-0.3 0.4,-0.1 h 0.6 l 1.1,0.6 0.3,0.6 0.2,0.4 -0.1,0.6 -0.3,0.6 -0.6,0.3 -0.9,0.5 -4.1,1.1 3.6,2.1 m 38.7,37.7 0.1,-0.7 -0.2,-1.2 5.1,3.7 m -3.5,-3.9 0.1,-0.6 -0.2,-1.3 5.1,3.7 m -2.2,-8 3.4,6.1 m -5.8,-2.7 2.4,-3.4 m -20.2,15.1 -1.5,-2.6 -2.5,1.2 0.4,0.1 0.7,0.6 0.5,0.8 0.2,0.9 -0.2,0.8 -0.6,0.7 -0.5,0.4 -0.9,0.2 -0.8,-0.2 -0.8,-0.6 -0.4,-0.8 -0.2,-0.9 0.1,-0.4 0.3,-0.6 m 7.4,6.3 -0.9,0.2 -0.8,-0.2 -0.7,-0.6 -0.2,-0.3 -0.2,-0.9 0.2,-0.8 0.6,-0.7 0.2,-0.2 1,-0.2 0.8,0.2 0.7,0.6 0.2,0.2 0.2,1 -0.2,0.8 -0.9,0.9 -1.2,0.8 -1.5,0.5 h -1.1 l -0.7,-0.6 -0.3,-0.5 -0.2,-1 0.3,-0.5 m 38.1,46.4 0.2,0.9 -0.3,0.8 -0.6,0.7 -0.3,0.1 -0.9,0.2 -0.8,-0.3 -0.7,-0.6 -0.2,-0.3 -0.1,-0.9 0.2,-0.8 0.7,-0.7 0.3,-0.2 0.9,-0.1 0.8,0.2 0.8,1 0.7,1.3 0.5,1.4 -0.2,1.1 -0.6,0.7 -0.5,0.3 -1,0.1 -0.5,-0.3 m 5.3,-8.9 0.2,6.9 m -4,-5 3.8,-1.9 m -28.9,3.6 0.6,-0.3 0.4,-0.8 0.1,-0.6 -0.3,-1 -0.8,-0.6 -1.5,-0.5 -1.5,-0.1 -1.2,0.2 -0.6,0.6 -0.4,0.8 v 0.3 l 0.2,0.9 0.5,0.7 0.9,0.4 h 0.3 l 0.9,-0.2 0.7,-0.6 0.3,-0.8 0.1,-0.3 -0.3,-1 -0.5,-0.6 -0.9,-0.4 m 3.6,7.2 -0.2,-0.9 -0.8,-0.7 -1.5,-0.4 -0.9,-0.1 -1.5,0.2 -1,0.5 -0.3,0.9 -0.1,0.6 0.2,0.9 0.9,0.7 1.4,0.4 0.9,0.1 1.6,-0.2 0.9,-0.5 0.4,-0.9 v -0.5 m 19.3,30.6 0.9,-0.3 0.8,0.1 0.8,0.5 0.2,0.3 0.3,0.9 -0.1,0.8 -0.5,0.8 -0.2,0.2 -0.9,0.3 -0.9,-0.1 -0.8,-0.5 -0.1,-0.2 -0.4,-0.9 0.1,-0.9 0.8,-1 1.2,-0.9 1.3,-0.7 1.1,-0.1 0.8,0.5 0.4,0.5 0.3,0.9 -0.3,0.6 m -9.7,-3.5 6.8,-1.6 m -4.2,4.9 -2.6,-3.3 m -4.9,24.9 0.3,-0.6 0.1,-1.3 3.9,4.9 m -1.7,-6.9 -0.5,0.8 v 1.1 l 0.8,1.3 0.5,0.7 1.2,1 1,0.3 0.9,-0.3 0.5,-0.4 0.5,-0.8 -0.1,-1 -0.7,-1.4 -0.6,-0.7 -1.1,-1 -1.1,-0.3 -0.9,0.3 -0.3,0.3 m 3.8,-3.1 -0.5,0.8 0.1,0.7 0.4,0.5 0.6,0.2 0.7,-0.1 1.1,-0.5 0.9,-0.3 0.8,0.1 0.6,0.2 0.6,0.7 0.1,0.7 v 0.4 l -0.5,0.8 -1,0.8 -0.8,0.3 -0.5,-0.1 -0.6,-0.2 -0.5,-0.7 -0.2,-0.7 0.1,-0.8 0.5,-0.8 0.8,-1 0.3,-0.6 -0.2,-0.7 -0.4,-0.5 -0.6,-0.2 -0.9,0.3 -1,0.8 m -29.8,5.4 h 0.7 l 1.2,-0.4 -2.9,5.7 m 5.6,-4.5 -0.9,-0.2 -1,0.6 -0.9,1.2 -0.4,0.8 -0.4,1.4 0.1,1.1 0.7,0.7 0.5,0.3 0.9,0.1 1,-0.5 0.9,-1.2 0.4,-0.8 0.4,-1.5 -0.1,-1.1 -0.7,-0.7 -0.4,-0.2 m 5.9,2.9 -4.6,2.4 4,2 m 0.6,-4.4 -2.8,5.6 m -3.5,-17.9 -4.3,-5.5 m 6.2,1.7 -1.9,3.8 m -4.1,3.6 -0.7,-0.7 -0.3,-0.8 0.2,-1 0.1,-0.2 0.7,-0.7 0.8,-0.3 0.9,0.2 0.3,0.1 0.7,0.7 0.2,0.8 -0.1,0.9 -0.1,0.3 -0.7,0.7 -0.8,0.2 -1.2,-0.2 -1.4,-0.7 -1.2,-1 -0.5,-0.9 0.1,-0.9 0.3,-0.6 0.7,-0.6 h 0.7 m 94,-423.6 0.4,-0.5 0.4,-1.2 2.6,5.7 m -1.1,-5.1 0.4,-0.5 0.5,-1.2 2.6,5.8 m -0.6,-5.3 -0.1,-0.2 v -0.7 l 0.2,-0.4 0.4,-0.5 1.1,-0.5 h 0.7 l 0.4,0.2 0.5,0.4 0.2,0.5 v 0.7 l -0.2,1.1 -1.5,3.9 3.9,-1.7 m -10.5,-17.4 -1.7,-6.8 m 4.9,4.1 -3.2,2.7 m -1.4,1.1 -2.5,2.1 -0.2,-3 -0.7,0.5 -0.6,0.2 -0.4,-0.1 -0.8,-0.5 -0.4,-0.4 -0.4,-0.9 0.1,-0.9 0.5,-0.8 0.7,-0.5 0.9,-0.4 0.4,0.1 0.7,0.2 m -11.2,45.2 -0.2,-0.6 -0.6,-1.1 6.1,1.5 m -4.7,-2.3 -0.1,-0.6 -0.7,-1.1 6.1,1.5 m -4.4,-2.8 -0.3,-0.1 -0.5,-0.4 -0.3,-0.4 -0.1,-0.7 0.3,-1.1 0.4,-0.5 0.4,-0.2 0.6,-0.2 0.6,0.2 0.5,0.4 0.8,0.8 2.1,3.6 1.1,-4 m -31.3,20.5 0.5,-0.5 0.5,-1.2 2.2,5.9 m -0.8,-5.1 0.5,-0.5 0.5,-1.2 2.2,5.9 m -0.8,-5.1 0.5,-0.5 0.5,-1.2 2.2,5.9 m -7.7,-6.1 0.1,-1 -0.4,-0.5 -0.5,-0.3 -0.7,0.1 -0.5,0.4 -0.8,0.9 -0.7,0.7 -0.8,0.3 h -0.6 l -0.8,-0.4 -0.5,-0.5 -0.1,-0.4 0.1,-0.9 0.5,-1.1 0.7,-0.7 0.4,-0.2 h 0.7 l 0.8,0.4 0.4,0.5 0.3,0.8 -0.1,1 -0.3,1.2 v 0.7 l 0.4,0.5 0.6,0.3 0.6,-0.1 0.7,-0.6 0.6,-1.3 m -5.3,6.3 -0.7,-0.7 -0.3,-0.8 0.1,-0.9 0.2,-0.3 0.6,-0.7 0.8,-0.3 1,0.2 0.2,0.1 0.7,0.6 0.3,0.8 -0.1,1 -0.1,0.2 -0.7,0.7 -0.8,0.3 -1.2,-0.2 -1.4,-0.7 -1.2,-0.9 -0.5,-0.9 0.1,-1 0.2,-0.5 0.7,-0.7 h 0.7 m 39.4,173.8 0.6,0.1 1.3,-0.2 -3.6,5.2 m 4.2,-3.2 0.2,-0.2 0.6,-0.4 h 0.4 l 0.6,0.1 1,0.6 0.4,0.6 v 0.4 l -0.1,0.7 -0.3,0.5 -0.6,0.3 -1,0.4 -4.2,0.8 3.5,2.4 m 7,-1.8 0.1,-0.6 -0.6,-0.8 -0.5,-0.3 -0.9,-0.3 -1,0.4 -1.1,1.1 -0.9,1.2 -0.4,1.2 0.1,0.8 0.6,0.8 0.3,0.1 0.9,0.3 0.8,-0.2 0.8,-0.5 0.1,-0.3 0.3,-0.9 -0.2,-0.8 -0.5,-0.8 -0.3,-0.2 -0.9,-0.2 -0.8,0.1 -0.8,0.6 m 35.1,-50.8 0.8,0.4 0.5,0.7 0.1,1 v 0.3 l -0.4,0.8 -0.7,0.5 -1,0.1 h -0.3 l -0.8,-0.5 -0.5,-0.6 -0.1,-1 v -0.3 l 0.4,-0.8 0.7,-0.5 1.3,-0.1 1.4,0.2 1.5,0.6 0.8,0.7 0.1,0.9 -0.1,0.6 -0.4,0.9 -0.7,0.2 m -4.4,-6.2 0.5,-3.2 2.1,2.1 0.1,-0.8 0.4,-0.6 0.4,-0.2 0.9,-0.2 0.6,0.1 0.8,0.5 0.5,0.6 0.2,1 -0.2,0.9 -0.4,0.8 -0.3,0.3 -0.7,0.2 m -7.8,-22.6 0.9,-0.1 0.8,0.2 0.7,0.7 0.2,0.2 0.1,1 -0.2,0.8 -0.7,0.7 -0.2,0.1 -1,0.2 -0.8,-0.3 -0.7,-0.6 -0.1,-0.3 -0.2,-0.9 0.3,-0.8 0.9,-0.9 1.3,-0.7 1.5,-0.4 1.1,0.1 0.6,0.6 0.3,0.6 0.2,0.9 -0.4,0.6 m -8.7,-4.9 1.4,2.7 2.5,-1 -0.4,-0.1 -0.6,-0.7 -0.5,-0.8 -0.1,-0.9 0.2,-0.8 0.7,-0.7 0.5,-0.3 0.9,-0.2 0.8,0.3 0.7,0.6 0.5,0.8 0.1,1 -0.1,0.4 -0.4,0.5 m -13.5,1.7 -0.4,-0.8 -0.1,-0.9 0.4,-0.8 0.2,-0.3 0.8,-0.4 0.9,-0.1 0.8,0.4 0.3,0.2 0.4,0.9 0.1,0.8 -0.4,0.9 -0.2,0.2 -0.8,0.5 h -0.9 l -1.1,-0.6 -1.1,-1 -0.9,-1.2 -0.3,-1.1 0.4,-0.8 0.4,-0.5 0.9,-0.5 0.6,0.2 m -0.6,6.5 0.2,0.2 0.2,0.7 v 0.4 l -0.1,0.6 -0.9,0.9 -0.6,0.3 h -0.4 l -0.6,-0.2 -0.5,-0.4 -0.2,-0.6 -0.3,-1.1 -0.2,-4.2 -2.8,3.1 m 52.1,77.1 -0.3,-0.6 -1,-0.8 6.3,-0.6 m -5.2,-1.2 h -0.3 l -0.6,-0.2 -0.3,-0.3 -0.4,-0.6 -0.1,-1.2 0.3,-0.6 0.3,-0.3 0.5,-0.4 h 0.6 l 0.7,0.2 0.9,0.6 3.3,2.7 -0.4,-4.2 m -6.7,-4.6 6.5,2.4 m -6.2,1.8 -0.3,-4.2 m -5,53.1 v -0.7 l -0.6,-1.1 6,2.1 m -4.8,-6.3 2.9,4.3 1.5,-4.3 m -4.4,0 5.9,2.1 m -4.5,-6 v 1 l 0.5,0.5 0.5,0.2 0.7,-0.1 0.5,-0.5 0.7,-1 0.5,-0.8 0.8,-0.3 0.7,-0.1 0.8,0.3 0.5,0.5 0.2,0.3 v 1 l -0.4,1.1 -0.6,0.8 -0.4,0.2 h -0.7 l -0.8,-0.3 -0.5,-0.4 -0.4,-0.8 0.1,-0.9 0.1,-1.3 -0.1,-0.6 -0.5,-0.5 -0.5,-0.2 -0.7,0.1 -0.6,0.7 -0.4,1.3 m -116.7,-1.7 0.4,0.8 0.1,0.9 -0.4,0.9 -0.2,0.2 -0.8,0.5 h -0.8 l -0.9,-0.4 -0.2,-0.2 -0.5,-0.8 -0.1,-0.8 0.4,-0.9 0.2,-0.2 0.8,-0.5 h 0.9 l 1.1,0.5 1.1,1 0.9,1.2 0.3,1.1 -0.4,0.9 -0.4,0.4 -0.8,0.5 -0.6,-0.2 m 3.2,-8.7 0.5,0.9 v 0.8 l -0.3,0.9 -0.2,0.2 -0.9,0.5 h -0.8 l -0.9,-0.3 -0.2,-0.2 -0.5,-0.9 v -0.8 l 0.3,-0.9 0.2,-0.2 0.9,-0.5 h 0.8 l 1.1,0.5 1.1,1 1,1.2 0.2,1.1 -0.3,0.9 -0.4,0.4 -0.9,0.5 -0.6,-0.2 m 103.5,-166.2 0.5,0.4 1.2,0.4 -5.7,2.6 m 5.2,-0.5 0.3,-0.1 h 0.7 l 0.4,0.1 0.5,0.5 0.5,1.1 -0.1,0.6 -0.1,0.4 -0.4,0.5 -0.6,0.3 h -0.6 l -1.1,-0.2 -4,-1.5 1.8,3.8 m 7.5,1.3 -5,-1 1.8,4.1 m 3.2,-3.1 -5.7,2.6 m 3.6,-14.3 -0.1,-0.6 -0.5,-1.2 5.8,2.4 m -3.9,-3.4 -0.3,-0.2 -0.5,-0.5 -0.1,-0.4 -0.1,-0.6 0.5,-1.1 0.5,-0.5 0.4,-0.1 0.7,-0.1 0.5,0.3 0.5,0.5 0.6,0.9 1.6,3.9 1.6,-3.9 m -4,-6.8 -1.1,2.8 2.3,1.3 -0.1,-0.4 v -0.9 l 0.4,-0.9 0.6,-0.7 0.8,-0.3 1,0.1 0.5,0.2 0.7,0.6 0.3,0.8 v 1 l -0.4,0.8 -0.6,0.7 -0.4,0.2 h -0.7 m -8.6,92 -0.6,-0.7 -0.3,-0.8 0.1,-0.9 0.2,-0.3 0.7,-0.6 0.8,-0.3 0.9,0.1 0.3,0.2 0.6,0.7 0.3,0.8 -0.2,0.9 -0.1,0.3 -0.7,0.6 -0.8,0.3 -1.2,-0.3 -1.3,-0.7 -1.2,-1 -0.5,-0.9 0.1,-0.9 0.3,-0.6 0.7,-0.6 h 0.7 m 2.3,7.2 -1.6,2.9 -1.3,-2.7 -0.4,0.8 -0.5,0.4 -0.4,0.1 -1,-0.1 -0.5,-0.3 -0.6,-0.7 -0.3,-0.8 0.2,-0.9 0.4,-0.8 0.7,-0.7 0.4,-0.1 h 0.6 m 21.2,4.2 0.7,-0.7 0.8,-0.2 1,0.1 0.2,0.1 0.7,0.7 0.3,0.8 -0.2,1 -0.1,0.2 -0.7,0.7 -0.8,0.3 -0.9,-0.2 -0.3,-0.1 -0.7,-0.7 -0.2,-0.8 0.2,-1.2 0.7,-1.3 1,-1.2 0.9,-0.6 1,0.2 0.5,0.2 0.7,0.7 -0.1,0.7 m -9.5,1.3 4.6,-2.4 -4,-2.1 m -0.6,4.5 2.9,-5.6 m 3.1,13 0.4,-0.5 0.4,-1.2 3,5.5 m -0.9,-5.2 -0.2,-0.3 v -0.6 l 0.1,-0.4 0.4,-0.6 1,-0.6 h 0.7 l 0.4,0.1 0.6,0.4 0.3,0.5 v 0.7 l -0.1,1.1 -1.2,4.1 3.7,-2.1 m 0.7,-7.6 -0.6,5.1 3.9,-2.1 m -3.3,-3 3,5.5 m -113.5,-14.2 -1,0.1 -0.8,-0.3 -0.6,-0.7 -0.1,-0.3 -0.1,-0.9 0.3,-0.8 0.7,-0.7 0.2,-0.1 1,-0.1 0.8,0.3 0.6,0.7 0.1,0.3 0.1,0.9 -0.3,0.8 -0.9,0.8 -1.4,0.6 -1.5,0.3 -1.1,-0.2 -0.6,-0.7 -0.3,-0.5 v -0.9 l 0.4,-0.6 m 5.5,2.7 0.5,0.4 1.2,0.5 -5.7,2.5 m 16.1,-6.2 0.1,-0.9 0.6,-0.7 0.8,-0.4 0.3,-0.1 0.9,0.2 0.7,0.5 0.4,0.9 0.1,0.3 -0.2,0.9 -0.5,0.7 -0.9,0.4 h -0.3 l -0.9,-0.1 -0.7,-0.6 -0.4,-1.1 -0.2,-1.5 0.1,-1.5 0.4,-1 0.9,-0.4 0.6,-0.1 0.9,0.2 0.4,0.5 m -4.7,4.6 v 0.3 l -0.2,0.7 -0.2,0.3 -0.6,0.4 -1.2,0.1 -0.6,-0.2 -0.3,-0.2 -0.4,-0.6 -0.1,-0.6 0.2,-0.6 0.5,-1 2.5,-3.4 -4.1,0.6 m -1.9,77 -0.3,-0.5 -1,-0.9 6.3,-0.5 m -5.2,-1.2 h -0.3 l -0.6,-0.2 -0.3,-0.3 -0.4,-0.6 -0.1,-1.2 0.3,-0.6 0.2,-0.3 0.6,-0.4 h 0.6 l 0.6,0.2 1,0.5 3.2,2.7 -0.3,-4.1 m -5.9,-4.3 -0.5,0.4 -0.2,0.9 v 0.6 l 0.4,0.9 0.9,0.5 1.6,0.1 1.5,-0.1 1.1,-0.4 0.6,-0.7 0.2,-0.9 v -0.3 l -0.4,-0.9 -0.7,-0.5 -0.9,-0.2 h -0.3 l -0.9,0.4 -0.5,0.6 -0.2,1 v 0.3 l 0.4,0.8 0.6,0.6 1,0.2 m -15.4,14.1 0.6,-0.2 1,-0.8 -0.7,6.2 m 5,-6 -3.4,3.8 4.5,0.5 m -1.1,-4.3 -0.7,6.2 m 7,-3.4 -0.4,0.9 -0.7,0.5 -0.9,0.2 h -0.3 l -0.9,-0.4 -0.5,-0.7 -0.2,-0.9 v -0.3 l 0.4,-0.9 0.7,-0.5 0.9,-0.2 h 0.3 l 0.9,0.4 0.5,0.7 0.2,1.2 -0.2,1.5 -0.4,1.5 -0.7,0.8 -0.9,0.2 -0.6,-0.1 -0.9,-0.4 -0.2,-0.6 m 82.3,60.7 -0.3,-0.6 -0.9,-0.9 6.3,0.1 m -6.5,-1.8 0.1,-3.3 2.4,1.8 V 495 l 0.3,-0.6 0.3,-0.3 0.9,-0.3 0.6,0.1 0.9,0.3 0.6,0.6 0.3,0.9 -0.1,0.9 -0.3,0.9 -0.3,0.3 -0.6,0.3 m -3.5,-6 h -0.3 l -0.6,-0.3 -0.3,-0.3 -0.2,-0.6 v -1.2 l 0.3,-0.6 0.3,-0.3 0.6,-0.3 h 0.6 l 0.6,0.4 0.9,0.6 2.9,3 0.1,-4.2 m -43.6,-52.5 -0.2,0.6 -0.2,1.2 -4,-4.8 m 0.9,7.8 -0.4,-5.1 -3.4,2.8 m 3.8,2.3 -4,-4.8 m -2.4,7.3 -0.3,-0.8 v -0.9 l 0.5,-0.8 0.3,-0.2 0.9,-0.3 h 0.8 l 0.8,0.5 0.2,0.3 0.3,0.9 v 0.8 l -0.5,0.8 -0.3,0.2 -0.8,0.4 -0.9,-0.1 -1,-0.8 -1,-1.1 -0.7,-1.3 -0.1,-1.1 0.5,-0.8 0.5,-0.4 0.8,-0.4 0.7,0.3 m -5.6,20.5 0.6,0.2 h 1.3 l -4.5,4.4 m 6.7,-2.4 -0.8,-0.5 -1.1,0.2 -1.3,0.9 -0.6,0.6 -0.9,1.3 -0.2,1 0.4,0.9 0.4,0.4 0.9,0.4 1,-0.2 1.3,-0.8 0.7,-0.6 0.8,-1.3 0.2,-1 -0.4,-0.9 -0.3,-0.3 m 3.7,3.7 -0.9,-0.4 -1.1,0.2 -1.2,0.8 -0.7,0.6 -0.8,1.3 -0.3,1 0.5,0.9 0.4,0.4 0.8,0.5 1.1,-0.2 1.3,-0.9 0.6,-0.6 0.9,-1.3 0.2,-1 -0.4,-0.9 -0.3,-0.3 m -9.3,-12.8 -0.9,-0.4 -0.5,-0.6 -0.2,-1 v -0.3 l 0.4,-0.8 0.6,-0.6 1,-0.2 0.3,0.1 0.8,0.4 0.6,0.6 0.2,0.9 -0.1,0.3 -0.3,0.9 -0.7,0.5 -1.2,0.2 -1.5,-0.1 -1.5,-0.5 -0.8,-0.7 -0.2,-0.9 v -0.6 l 0.4,-0.9 0.7,-0.2 m 2.4,8.9 -0.9,-0.4 -0.5,-0.6 -0.3,-0.9 0.1,-0.3 0.4,-0.9 0.6,-0.5 1,-0.2 h 0.3 l 0.8,0.4 0.6,0.6 0.2,1 -0.1,0.3 -0.4,0.8 -0.6,0.6 -1.2,0.1 -1.5,-0.1 -1.5,-0.5 -0.8,-0.7 -0.2,-0.9 v -0.6 l 0.4,-0.8 0.6,-0.3 m 39.5,64.6 0.5,-0.4 0.6,-1.1 1.7,6.1 m 0,-6.8 3.2,-0.8 -1.2,2.7 0.9,-0.2 0.7,0.2 0.3,0.2 0.6,0.8 0.1,0.5 v 1 l -0.5,0.7 -0.8,0.5 -0.8,0.3 -1,-0.1 -0.3,-0.2 -0.5,-0.5 m 5.3,-6.7 -0.8,0.5 -0.1,0.7 0.1,0.6 0.5,0.5 0.6,0.1 h 1.3 0.9 l 0.8,0.5 0.4,0.5 0.2,0.8 -0.1,0.7 -0.2,0.3 -0.8,0.6 -1.2,0.3 -0.9,-0.1 -0.4,-0.2 -0.4,-0.5 -0.3,-0.9 0.2,-0.6 0.4,-0.7 0.8,-0.6 1.1,-0.6 0.5,-0.4 0.1,-0.7 -0.1,-0.6 -0.5,-0.5 h -0.9 l -1.3,0.3 m -42.5,-32.6 -0.6,0.1 -1.2,0.6 2,-6 m -4.8,5.2 h 0.9 l 0.9,-0.6 0.7,-1.4 0.3,-0.8 0.2,-1.5 -0.3,-1.1 -0.8,-0.6 -0.5,-0.1 h -1 l -0.8,0.6 -0.8,1.4 -0.3,0.8 -0.2,1.5 0.3,1.1 0.8,0.5 0.4,0.2 m -4.9,-1.7 h 0.9 l 0.9,-0.6 0.7,-1.4 0.3,-0.8 0.2,-1.5 -0.3,-1.1 -0.7,-0.5 -0.6,-0.2 h -1 l -0.8,0.6 -0.8,1.4 -0.3,0.8 -0.1,1.5 0.2,1.1 0.8,0.5 0.4,0.2 m -5.2,4.8 -0.6,-0.7 -0.3,-0.8 0.1,-0.9 0.1,-0.3 0.6,-0.7 0.8,-0.3 1,0.1 0.2,0.2 0.7,0.6 0.3,0.8 -0.1,0.9 -0.1,0.3 -0.6,0.7 -0.8,0.3 -1.3,-0.2 -1.3,-0.6 -1.3,-0.9 -0.5,-0.9 0.1,-1 0.2,-0.5 0.7,-0.7 0.6,-0.1 m 2.4,8 0.1,-1 -0.5,-0.5 -0.5,-0.2 h -0.7 l -0.5,0.4 -0.8,1 -0.6,0.7 -0.8,0.3 h -0.7 l -0.8,-0.4 -0.4,-0.5 -0.2,-0.4 0.1,-0.9 0.5,-1.1 0.7,-0.7 0.4,-0.2 h 0.6 l 0.9,0.4 0.4,0.5 0.3,0.8 -0.1,0.9 -0.2,1.2 v 0.7 l 0.4,0.5 0.6,0.3 h 0.6 l 0.7,-0.7 0.5,-1.3 m 0,19.1 0.6,0.4 1.2,0.4 -5.5,2.9 m 7.1,-0.5 -0.7,-0.6 -1.1,-0.1 -1.4,0.4 -0.8,0.5 -1.2,0.9 -0.5,1 0.2,0.9 0.2,0.6 0.7,0.6 1.1,0.1 1.5,-0.4 0.8,-0.5 1.1,-0.9 0.5,-1 -0.1,-0.9 -0.2,-0.4 m 0.3,3.6 0.5,0.4 1.3,0.3 -5.6,3 m 83,69.9 -0.2,-0.7 -0.8,-1 6.2,0.7 m -6.1,-3.6 0.2,0.9 0.8,0.7 1.5,0.5 0.9,0.1 1.5,-0.2 0.9,-0.5 0.4,-0.8 0.1,-0.6 -0.2,-1 -0.8,-0.6 -1.5,-0.5 -0.9,-0.1 -1.5,0.1 -1,0.5 -0.4,0.9 v 0.4 m 1.6,-6.8 -0.6,0.2 -0.4,0.9 -0.1,0.6 0.2,0.9 0.9,0.7 1.4,0.5 1.5,0.1 1.3,-0.2 0.6,-0.5 0.4,-0.9 v -0.3 l -0.2,-0.9 -0.5,-0.6 -0.9,-0.4 -0.3,-0.1 -0.9,0.2 -0.6,0.6 -0.4,0.8 -0.1,0.3 0.2,1 0.6,0.6 0.8,0.4 m -1.2,-24.5 -0.4,-0.6 -0.9,-0.8 6.3,-0.4 m -6.7,-1.3 -0.2,-3.3 2.5,1.6 v -0.9 l 0.2,-0.6 0.3,-0.3 0.9,-0.4 h 0.6 l 0.9,0.2 0.6,0.6 0.4,0.9 0.1,0.9 -0.3,0.9 -0.2,0.3 -0.6,0.3 m -3.7,-9 1,0.2 0.6,0.6 0.4,0.9 v 0.3 l -0.3,0.9 -0.5,0.6 -0.9,0.4 h -0.3 l -0.9,-0.2 -0.6,-0.6 -0.4,-0.9 V 545 l 0.2,-0.9 0.6,-0.6 1.1,-0.4 1.5,-0.1 1.6,0.2 0.9,0.5 0.4,0.9 v 0.6 l -0.2,0.9 -0.6,0.4 m -18.3,-7.8 -0.6,0.2 -1,0.8 0.9,-6.3 m -2.7,6.2 -3.2,-0.4 2.1,-2.2 -0.9,-0.1 -0.6,-0.4 -0.2,-0.3 -0.2,-0.9 0.1,-0.6 0.4,-0.9 0.7,-0.5 0.9,-0.2 0.9,0.2 0.9,0.4 0.2,0.3 0.2,0.7 m -10,3.7 3.9,-5.8 m 0.3,6.4 -4.2,-0.6 m -43,19.8 0.4,0.6 0.9,0.9 -6.3,0.3 m 5.2,0.8 0.3,0.6 0.9,0.9 -6.3,0.3 m 6.7,2.3 -0.4,-0.9 -0.6,-0.3 -0.6,0.1 -0.6,0.3 -0.2,0.6 -0.3,1.2 -0.2,0.9 -0.6,0.7 -0.6,0.3 h -0.9 l -0.6,-0.2 -0.3,-0.3 -0.4,-0.9 v -1.2 l 0.2,-0.9 0.3,-0.3 0.6,-0.4 h 0.9 l 0.6,0.3 0.7,0.5 0.3,0.9 0.4,1.2 0.3,0.6 0.6,0.3 0.6,-0.1 0.6,-0.3 0.2,-0.9 v -1.4 m 71.7,61.1 -0.5,-0.5 -1.1,-0.6 6,-1.9 m -5.2,0.5 -0.5,-0.4 -1.1,-0.6 6,-1.9 m -5.7,-3.5 h 0.9 l 0.8,0.4 0.5,0.8 0.1,0.3 v 0.9 l -0.4,0.8 -0.7,0.5 -0.3,0.1 h -1 l -0.7,-0.4 -0.6,-0.8 -0.1,-0.3 v -0.9 l 0.4,-0.8 1.1,-0.6 1.4,-0.5 1.5,-0.1 1.1,0.3 0.5,0.7 0.2,0.6 v 1 l -0.5,0.4 m -65.4,-15.6 0.6,0.4 1.3,0.2 -5.3,3.5 m 7.1,-1.1 -0.8,-0.6 h -1.1 l -1.4,0.5 -0.7,0.5 -1.1,1.1 -0.4,1 0.2,0.9 0.3,0.5 0.8,0.6 h 1.1 l 1.4,-0.6 0.7,-0.5 1.1,-1 0.4,-1 -0.2,-0.9 -0.2,-0.4 m 0.8,4.1 0.3,-0.2 0.7,-0.1 0.4,0.1 0.6,0.4 0.6,1 0.1,0.6 -0.1,0.4 -0.3,0.6 -0.5,0.3 -0.7,0.1 h -1.1 l -4.1,-0.8 2.3,3.5 m -65.8,-94 -0.4,0.6 -0.3,1.2 -3,-5.6 m 1.5,5 -0.4,0.6 -0.4,1.2 -3,-5.6 m -1.5,8.2 -0.3,-7 m 4,5 -3.7,2 m 13.5,20.4 -0.4,-0.5 -1.2,-0.5 6,-2 m -5.2,0.6 -0.4,-0.5 -1.2,-0.6 6,-1.9 m -7,-0.5 0.6,0.7 0.6,0.1 0.6,-0.2 0.5,-0.4 0.1,-0.7 -0.1,-1.2 v -1 l 0.4,-0.7 0.5,-0.5 0.8,-0.3 0.7,0.1 0.4,0.2 0.5,0.8 0.4,1.1 v 1 l -0.2,0.3 -0.5,0.5 -0.8,0.3 -0.7,-0.1 -0.8,-0.4 -0.5,-0.8 -0.7,-1 -0.5,-0.5 -0.6,-0.1 -0.6,0.2 -0.5,0.5 v 0.9 l 0.5,1.3 m 142.9,120 -0.6,-0.3 -1.3,-0.3 5.4,-3.4 m -5.2,1.3 -0.2,0.2 H 460 l -0.4,-0.1 -0.6,-0.3 -0.6,-1 -0.1,-0.7 0.1,-0.4 0.4,-0.6 0.5,-0.3 0.6,-0.1 1.1,0.1 4.2,0.9 -2.3,-3.6 m -6.9,0.9 0.7,0.6 h 1.1 l 1.4,-0.5 0.8,-0.5 1.1,-1 0.5,-1 -0.3,-1 -0.3,-0.5 -0.7,-0.6 h -1.1 l -1.4,0.6 -0.8,0.4 -1.1,1.1 -0.4,1 0.2,0.9 0.2,0.4 m -57.2,-9.1 0.3,0.6 0.9,0.9 -6.3,0.3 m 5.1,1.4 h 0.3 l 0.6,0.3 0.3,0.3 0.3,0.5 0.1,1.2 -0.3,0.7 -0.3,0.3 -0.6,0.3 h -0.6 l -0.6,-0.3 -0.9,-0.5 -3.1,-2.9 0.2,4.2 m 4.8,1.5 h 0.3 l 0.6,0.2 0.4,0.3 0.3,0.6 v 1.2 l -0.2,0.6 -0.3,0.3 -0.6,0.4 h -0.6 l -0.6,-0.3 -1,-0.6 -3.1,-2.8 0.2,4.2 m 33,6.3 0.6,-0.3 0.9,-0.9 0.1,6.3 m 1.6,-5.1 V 665 l 0.2,-0.6 0.3,-0.3 0.6,-0.3 h 1.2 l 0.6,0.3 0.3,0.3 0.4,0.5 v 0.6 l -0.3,0.7 -0.6,0.9 -2.9,3.1 4.2,-0.2 m 1.5,-6.3 3.3,-0.1 -1.7,2.4 h 0.9 l 0.6,0.3 0.3,0.3 0.4,0.9 v 0.6 l -0.3,0.9 -0.6,0.6 -0.9,0.3 -0.9,0.1 -0.9,-0.3 -0.3,-0.3 -0.3,-0.6 m -152.8,-317.6 -2.3,-1.9 -1.9,1.9 0.4,-0.1 0.9,0.4 0.7,0.6 0.5,0.8 v 0.8 l -0.3,0.9 -0.4,0.5 -0.8,0.4 -0.9,0.1 -0.9,-0.3 -0.6,-0.6 -0.5,-0.8 -0.1,-0.4 0.2,-0.7 m 10.1,1.9 -2.3,-2 -2,1.9 h 0.5 l 0.8,0.3 0.7,0.6 0.5,0.8 0.1,0.9 -0.4,0.8 -0.3,0.5 -0.9,0.5 -0.8,0.1 -0.9,-0.4 -0.7,-0.6 -0.5,-0.8 v -0.4 l 0.2,-0.7 m -4,-19.5 0.2,-3 -2.6,-0.5 0.2,0.3 0.3,0.9 -0.1,0.9 -0.4,0.9 -0.6,0.6 -1,0.2 -0.6,-0.1 -0.8,-0.3 -0.6,-0.7 -0.2,-0.9 0.1,-0.9 0.4,-0.9 0.3,-0.3 0.6,-0.2 m 4.4,8.9 -3.9,-3.3 -0.4,4.4 m 4.3,-1.1 -6.2,-0.5 M 311.6,82 l 0.8,-0.4 0.2,-0.6 -0.1,-0.6 -0.4,-0.6 -0.6,-0.2 -1.2,-0.1 -1,-0.1 -0.7,-0.5 -0.4,-0.6 -0.1,-0.9 0.2,-0.6 0.3,-0.4 0.8,-0.4 1.2,-0.2 0.9,0.2 0.4,0.2 0.3,0.6 0.2,0.9 -0.2,0.6 -0.5,0.7 -0.9,0.4 -1.1,0.5 -0.5,0.4 -0.2,0.6 v 0.6 l 0.4,0.6 1,0.1 1.3,-0.2 m -5.4,0.9 0.8,-0.5 0.2,-0.6 -0.1,-0.6 -0.4,-0.5 -0.6,-0.2 -1.2,-0.2 -1,-0.1 -0.7,-0.5 -0.3,-0.6 -0.2,-0.8 0.2,-0.7 0.3,-0.3 0.8,-0.5 1.2,-0.2 0.9,0.2 0.4,0.3 0.4,0.5 0.1,0.9 -0.2,0.6 -0.5,0.7 -0.8,0.4 -1.2,0.5 -0.5,0.4 -0.2,0.7 0.1,0.6 0.4,0.5 0.9,0.2 1.3,-0.3 m -5.9,2.1 -0.2,-0.9 -0.6,-0.4 -0.5,-0.1 -0.7,0.2 -0.4,0.6 -0.4,1.1 -0.4,0.9 -0.7,0.5 -0.7,0.2 -0.9,-0.1 -0.5,-0.4 -0.3,-0.3 -0.1,-1 0.1,-1.1 0.5,-0.9 0.3,-0.3 0.6,-0.2 0.9,0.2 0.6,0.3 0.5,0.7 0.2,0.9 0.1,1.3 0.2,0.6 0.6,0.4 0.5,0.1 0.7,-0.2 0.4,-0.9 0.2,-1.3 m -0.9,7.1 -3.8,-3.6 -0.6,4.5 m 4.4,-0.9 -6.3,-0.9 m 11.5,1.9 -1,0.2 -0.4,0.5 -0.1,0.6 0.2,0.6 0.6,0.4 1.1,0.5 0.8,0.5 0.5,0.7 0.2,0.6 -0.1,0.9 -0.4,0.6 -0.4,0.2 -0.9,0.1 -1.2,-0.2 -0.8,-0.4 -0.3,-0.4 -0.2,-0.6 0.2,-0.9 0.4,-0.5 0.7,-0.5 0.9,-0.2 h 1.2 l 0.7,-0.2 0.4,-0.6 0.1,-0.6 -0.2,-0.6 -0.9,-0.5 -1.3,-0.2 m 4.2,2.3 0.1,-0.3 0.4,-0.6 0.3,-0.2 0.6,-0.2 1.2,0.2 0.6,0.4 0.2,0.3 0.2,0.7 -0.1,0.6 -0.4,0.5 -0.7,0.8 -3.5,2.4 4.1,0.7 m 29.8,89.3 -5.9,-3.7 m 6.4,-0.5 -0.5,4.2 m -0.3,2.6 -0.2,-0.9 -0.5,-0.4 H 340 l -0.7,0.2 -0.3,0.6 -0.5,1.1 -0.3,0.9 -0.7,0.5 -0.6,0.2 H 336 l -0.6,-0.4 -0.3,-0.3 -0.2,-1 0.2,-1.2 0.4,-0.8 0.3,-0.3 0.6,-0.2 0.9,0.1 0.6,0.3 0.5,0.7 0.2,0.9 0.2,1.2 0.2,0.7 0.6,0.3 0.6,0.1 0.6,-0.2 0.4,-0.9 0.1,-1.3 m -0.3,-9.1 5.9,-3.7 m -2.4,5.9 -3.5,-2.2 m -3.7,-2.2 4.8,-2 -3.8,-2.4 m -1,4.4 3.3,-5.4"
       id="nums_001"
       stroke="#000000"
       stroke-width="1" />
    <path
       d="m 216.8,344.6 -48.2,39.3 52.9,-32.6 38.9,29.2 -35.6,44 -35.5,5.9 -47.9,-7.6 -36.9,21.2 40.2,-14.1 43.1,22 -30.1,37 37.8,-29.1 30.1,19.8 -17,38.3 -18.2,29.3 8.6,27.6 -0.9,41.5 -1.5,42.2 -54.6,-13.2 -0.8,-40.3 -15.8,-46.6 30.3,-29.6 -32.9,26.6 9.3,48.3 -3.7,40.2 47.4,30.1 -67.6,47.7 -28.6,-23.2 -39,16.3 8.5,-52.7 -23,-67.2 42.6,4.6 -32.4,-28 L 58.1,540 78,523.1 48.7,452.9 83.6,406.7 84.3,377.1 64.7,336.9 32.8,334.4 50.9,296.7 84.8,267.2 104.6,239.5 53.7,219.2 64.8,155.2 46.7,127.5 44.5,105.9 53.9,61.6 81.3,29.4 111.1,51 l 37,17.2 -29.6,24.1 -40,-3.1 32.3,23.8 -7,12.7 10.5,-10 35.4,-14.4 20.1,30.6 6.5,39.9 2.1,26.5 -50.3,9.9 50.8,6.5 44.7,27 -30.4,17.5 17.8,44.25 z m 95.3,107.7 -23.7,18.5 24.1,36 -12.7,17.4 19.1,-10.1 18.1,55.3 -33.7,17.8 23.7,29.8 -32.8,26.2 -26.8,-13.5 13.9,-27.7 4.8,-57 -21,-33.8 7.1,-23.3 -36.1,-21 12.9,-39.3 35.5,-21.2 -18.4,-18.1 23.8,-20.3 -22.3,-18.9 1.9,-22.5 45.4,-8.7 39.2,-16.4 12.1,-25.8 13.3,-34.8 10.4,-48 -23.2,10.4 -6.2,24.6 -46.1,17.1 16.7,-35.1 4.3,-39.9 17.7,11 23.7,-19.3 -0.1,-45.1 -21.4,13.4 -31.3,-25.4 -33.8,-5.8 3.1,-22.2 26.6,-4.2 24.4,17.6 -15.4,-39.1 48.3,1.8 38.2,11.8 4.9,41.9 3.7,41.4 15.9,24.1 -6.8,33.8 9.5,40.7 -22,52.2 -10.4,-22.9 -21.3,-5.6 13.3,17.6 -34,29.3 -26.2,21.8 -28.4,-9.8 9.1,28.6 14.5,12.3 -7.7,-17.4 40.2,-5.5 27.3,-30 16,30.1 -3.9,23.8 11.1,-21.4 40,20.4 -22.1,12.1 4.3,48.4 -14,39.6 -1,48.2 -33.8,9.1 51.6,7.4 1.9,26.6 -4.4,40.1 11.1,35 21.8,34.4 -82.7,2.4 -1.6,-39.9 -26.6,-40.5 -2.9,-58.1 -20.5,-38.1 12.4,-27.4 21.7,7.2 -16,-16.3 1.5,-15.2 23.7,-19.8 -36.7,-25.4 4.1,44.5 -30.25,-3.35 z"
       id="coupes_001"
       stroke="#ff0000"
       stroke-width="1.27"
       sodipodi:nodetypes="cccccccccccccccccccccccccccccccccccccccccccccccccccccccccccccccccccccccccccccccccccccccccccccccccccccccccccccccccccccccccccccccccccccccccccccccccccccccccc" />
    <path
       d="m 225.6,479.6 -67.9,9.3 m -2,39.9 2,-39.9 m 50.9,29 -52.9,10.9 m 34.7,18.4 -65,11.2 M 199,574.8 125.4,558.4 M 199,574.8 141.2,605 M 155.7,528.8 78,523.1 m 0,0 79.7,-34.2 M 78,523.1 104.5,444 m 0,0 53.2,44.9 m 40.4,127.4 -56.1,29 M 122.8,555.4 58.1,540 M 68.7,599.5 58.1,540 m 64.7,15.4 -54.1,44.1 m 63.4,4.2 -63.4,-4.2 m 59.7,44.4 -59.7,-44.4 M 48.7,452.9 104.5,444 M 83.6,406.7 104.5,444 m 0,0 83.3,7.9 m -104.2,-45.2 57.8,16.1 m -57.8,-16.1 85,-22.8 m 0,0 -27.2,38.9 m -57.1,-45.7 84.3,6.8 m -84.3,-6.8 77.4,-30.6 m 0,0 55.1,-1.9 m -132,-77.4 76.9,79.3 m -97,-9.6 20.1,-69.7 m 0,0 126.5,36.6 m -106.7,-64.3 88.6,19.7 m -88.6,-19.7 23.5,-31.3 m 0,0 65.1,51 m -139.5,-40 74.4,-11 m -63.3,-53 63.3,53 m 48.2,-36.4 -48.2,36.4 m -63.3,-53 39,-29.5 m 0,0 72.5,46.1 m -129.6,-44.3 57.1,-1.8 m -59.3,-19.8 59.3,19.8 M 44.5,105.9 78.5,89.2 M 53.9,61.6 78.5,89.2 M 111.1,51 78.5,89.2 m 49.9,554.7 -79.3,18.2 m 0,0 19.6,-62.6 m 10.9,99 -30.5,-36.4 m 79.3,-18.2 -48.8,54.6 m 89,-314.6 20.7,46.5 m 71.1,-49.9 -71.1,49.9 m 253.3,-184 -32.4,29.3 m -21.3,-5.6 44.2,-64.4 m -44.2,64.4 -22.7,5.6 m 22.7,-5.6 -34.8,31.4 m 35.8,-108.6 43.2,12.8 m -56.3,-44 63.1,10.2 M 376.8,161.7 424,147.8 m -47.3,-31.2 43.6,-10.2 m -43.6,10.2 38.7,-52.1 M 344.3,90 377.2,52.7 M 376.7,116.6 344.3,90 M 324,104.6 344.3,90 M 324,104.6 319.9,72.4 m 48.3,244.6 -54.6,12 m 0,0 40.5,-27.5 m -40.5,27.5 1.3,-11.1 m -1.3,11.1 -44.1,-2.4 m 53.2,31 -32.8,10.4 m 0,0 -20.4,-41.4 m 15,79.8 5.4,-38.4 m 47.3,1.9 -52.7,36.5 m 35.4,12.8 -70.9,8.4 m 88.2,-57.7 10.7,29.8 M 312.1,452.3 249,427.6 m 39.4,43.2 -39.4,-43.2 m 23.2,60.3 -23.2,-60.3 m 63.5,79.2 -47.4,4.4 m 38.2,76 -17.2,-42.2 m 17.2,42.2 -22,14.8 m 45.7,15 -45.7,-15 m 85.4,-398.7 10.1,-41.6 M 366.7,203.3 353.1,181 m 13.6,22.3 -35.6,6.6 m 6.1,160 32.5,-22.9 m 0,0 -21.8,52.7 m 94.5,30.7 -57.8,-5.3 m -14.9,-78.1 72.7,83.4 m -33.3,-59.5 33.3,59.5 M 369.7,347 409.1,370.9 M 369.7,347 413,347.1 m -3.9,23.8 29,11.1 m -9.7,88 -43.8,-44.9 m -64.7,-5.9 2.3,21.6 m 25.7,-41.1 -26.6,41.2 m 106.1,77.3 -42.8,-93.1 m 42.8,93.1 -52,-41.8 m 0,0 9.2,-51.3 m -9.2,51.3 -14.5,-31.5 m 32.7,82.4 -18.2,-50.9 m 18.2,50.9 -52.3,-30.7 m 52.3,30.7 -31.8,7.4 m 80.9,66.7 -80.9,-66.7 m 31.8,-7.4 53.5,34 m 6.7,75.1 -89.1,-43.6 m 110.9,78 -84.3,-37.5 M 324,104.6 293.3,76.6"
       id="plisM_001"
       stroke="#a52a2a"
       stroke-dasharray="4" />
    <path
       d="m 225.6,479.6 -69.9,49.2 m 34.7,18.4 -34.7,-18.4 M 198.1,616.3 141.2,605 M 155.7,528.8 58.1,540 m 103.6,-193.5 6.9,37.4 m -103.9,-47 97,9.6 m 49.6,-42.7 -49.6,42.7 m -76.9,-79.3 108.4,-8 m -14.3,-44.5 14.3,44.5 M 64.8,155.2 176.3,171.8 M 44.5,105.9 110.8,113 M 53.9,61.6 111.1,51 m 0,0 7.4,41.3 m -4.2,23.4 62,56.1 m -62,-56.1 55.5,16.2 m -41.4,512 -20.2,77.8 M 221.5,351.3 189.3,430.4 M 64.7,336.9 50.9,296.7 m 359.3,-21 22.9,-70 m -44.2,64.4 -9.4,-29.2 m 0,0 53.6,-35.2 m -43.2,-12.8 -13.1,-31.2 m 0,0 56.3,44 m -56.4,-89.1 47.3,31.2 m -47.3,-31.2 0.5,-63.9 m -21.9,77.3 -11,-40 m 57.9,197.7 -48.1,13.8 m 14.1,15.5 -14.1,-15.5 m -31.4,56.1 -53.2,-31 m 53.2,31 -38.2,48.8 m 52.7,-36.5 -17.3,49.3 m 0,0 -35.4,-12.8 m 63.4,-6.7 -28,19.5 m 0,0 -7.8,33.1 m -23.7,18.5 -16.2,17.1 m 40.3,18.9 -40.3,-18.9 m 27.6,36.3 -34.7,-13 m 34.7,13 -13.7,20.8 m 13.7,-20.8 37.2,45.2 m 0,0 -50.9,-24.4 m 8.1,98.2 -12.9,-41.2 m 49.8,-392.1 22,-28.9 m 7.4,46.9 -29.4,-18 m 38.6,137.1 14.9,78.1 m 35.6,-75.6 17.9,32.5 m -44.5,145.3 -39.9,-58.1 m 39.9,58.1 49.1,74.1 m 0,0 -78,-8.6 m 89.1,43.6 -62.5,-3.1"
       id="plisV_001"
       stroke="#008000"
       stroke-dasharray="4, 1, 1, 1"
       stroke-width="1.27" />
    <path
       d="m 188.6,502.2 4,4 m 0,-4 -4,4 M 171,536 l 4,4 m 0,-4 -4,4 m -3.4,68.6 4,4 m 0,-4 -4,4 m -62.7,-80.2 4,4 m 0,-4 -4,4 m 58.2,-173.2 4,4 m 0,-4 -4,4 m -51.9,-27.5 4,4 m 0,-4 -4,4 m 73.3,-20.5 4,4 m 0,-4 -4,4 m -47.5,-66 4,4 m 0,-4 -4,4 m 47.1,-30.2 4,4 m 0,-4 -4,4 m -65.5,-77.5 4,4 m 0,-4 -4,4 m -43,-58.1 4,4 m 0,-4 -4,4 m 4.9,-57.1 4,4 m 0,-4 -4,4 m 32.3,11.4 4,4 m 0,-4 -4,4 m 30.5,68 4,4 m 0,-4 -4,4 m -3.2,-23.9 4,4 m 0,-4 -4,4 m -23.8,555 4,4 m 0,-4 -4,4 m 87.1,-296 4,4 m 0,-4 -4,4 m -147.6,-78 4,4 m 0,-4 -4,4 m 363.8,-80.1 4,4 m 0,-4 -4,4 m -37.4,10.8 4,4 m 0,-4 -4,4 m 22.1,-36.2 4,4 m 0,-4 -4,4 m -23,-50 4,4 m 0,-4 -4,4 m 21.6,2.4 4,4 m 0,-4 -4,4 m -4.5,-55.5 4,4 m 0,-4 -4,4 M 375,82.7 l 4,4 m 0,-4 -4,4 m -27.2,21.3 4,4 m 0,-4 -4,4 m 28.3,180.6 4,4 m 0,-4 -4,4 m -17,10.7 4,4 m 0,-4 -4,4 m -65,28.8 4,4 m 0,-4 -4,4 m 7.5,35.9 4,4 m 0,-4 -4,4 m 25,8.5 4,4 m 0,-4 -4,4 m -26.4,14.3 4,4 m 0,-4 -4,4 m 31.7,-7.4 4,4 m 0,-4 -4,4 m -17.9,22.3 4,4 m 0,-4 -4,4 m -35.7,39.6 4,4 m 0,-4 -4,4 m 12,14 4,4 m 0,-4 -4,4 m -9.9,16.4 4,4 m 0,-4 -4,4 m 10.5,12.9 4,4 m 0,-4 -4,4 m 25.5,8.2 4,4 m 0,-4 -4,4 m -6.9,6.4 4,4 m 0,-4 -4,4 m -23.8,61.4 4,4 m 0,-4 -4,4 m 54.4,-431.1 4,4 m 0,-4 -4,4 m 3.7,19.4 4,4 m 0,-4 -4,4 m 31.3,163.2 4,4 m 0,-4 -4,4 m 52.1,-24.4 4,4 m 0,-4 -4,4 m -55.6,128.5 4,4 m 0,-4 -4,4 m 44.6,62.2 4,4 m 0,-4 -4,4 m -14.5,28.7 4,4 m 0,-4 -4,4 m 18.8,33.7 4,4 m 0,-4 -4,4"
       id="marqueV_001"
       stroke="#008000" />
    <path
       d="m 135.9,360.3 1.5,-0.8 2.3,-2.2 V 373"
       id="titre_1"
       stroke="#4b0082" />
    <path
       d="m 345.65659,370.31705 v -0.8 l 0.8,-1.5 0.7,-0.7 1.5,-0.8 h 3 l 1.5,0.8 0.8,0.7 0.7,1.5 v 1.5 l -0.7,1.5 -1.5,2.3 -7.5,7.5 h 10.5"
       id="titre_2"
       stroke="#4b0082" />
  </g>
  <g
     id="page_002">
    <path
       d="m 999.8,664.7 0.9,-0.3 0.3,-0.6 v -0.6 l -0.3,-0.6 -0.6,-0.3 -1.2,-0.3 -0.9,-0.3 -0.6,-0.6 -0.3,-0.6 0.1,-0.9 0.3,-0.6 0.3,-0.3 0.9,-0.3 h 1.2 l 0.9,0.3 0.3,0.3 0.3,0.6 -0.1,0.9 -0.3,0.6 -0.6,0.6 -0.9,0.3 -1.2,0.3 -0.6,0.3 -0.3,0.6 v 0.6 l 0.3,0.6 0.9,0.3 h 1.3 m -4.5,-1.6 v 0.3 l -0.3,0.6 -0.3,0.3 -0.6,0.3 H 993 l -0.6,-0.3 -0.3,-0.3 -0.3,-0.6 v -0.6 l 0.3,-0.6 0.7,-0.9 3,-3 h -4.2 m 25,23.4 0.6,0.7 h 0.7 l 0.5,-0.3 0.4,-0.5 v -0.7 l -0.2,-1.2 -0.2,-0.9 0.3,-0.8 0.4,-0.6 0.8,-0.4 h 0.7 l 0.4,0.2 0.7,0.6 0.5,1.1 0.1,0.9 -0.1,0.4 -0.4,0.6 -0.8,0.4 h -0.7 l -0.8,-0.3 -0.7,-0.7 -0.8,-0.9 -0.5,-0.4 h -0.7 l -0.5,0.3 -0.4,0.5 0.1,0.9 0.6,1.3 m -2,-4.1 -1.5,-3 2.9,0.5 -0.4,-0.8 v -0.6 l 0.2,-0.4 0.6,-0.7 0.6,-0.3 0.9,-0.1 0.8,0.3 0.7,0.6 0.4,0.8 0.1,1 -0.1,0.4 -0.4,0.5 m -9.7,12.2 -1.8,6.7 m -2.3,-6 4.1,-0.7 m 4.9,0 -0.4,-0.5 -1,-0.1 -0.6,0.1 -0.8,0.4 -0.4,1 -0.1,1.5 0.3,1.5 0.5,1.2 0.7,0.4 0.9,0.2 0.3,-0.1 0.9,-0.4 0.4,-0.7 0.2,-1 -0.1,-0.3 -0.4,-0.8 -0.7,-0.5 -1,-0.1 h -0.3 l -0.8,0.5 -0.5,0.7 -0.1,0.9 m -35,0.6 -2.5,6.5 m -1.7,-6.2 4.2,-0.3 m 4.7,-0.4 -3,0.2 -0.1,2.7 0.3,-0.3 0.9,-0.4 h 0.9 l 0.9,0.2 0.6,0.5 0.4,0.9 0.1,0.6 -0.3,0.9 -0.5,0.7 -0.9,0.3 -0.9,0.1 -0.9,-0.2 -0.3,-0.3 -0.4,-0.6 m -61.7,5.8 -0.9,0.4 -0.1,0.7 0.1,0.6 0.4,0.5 0.7,0.2 h 1.2 l 0.9,0.1 0.7,0.5 0.5,0.5 0.1,0.9 -0.1,0.7 -0.3,0.3 -0.8,0.5 -1.2,0.2 -0.9,-0.1 -0.4,-0.2 -0.4,-0.5 -0.2,-0.9 0.2,-0.7 0.5,-0.7 0.8,-0.4 1.1,-0.6 0.5,-0.4 0.2,-0.6 -0.1,-0.6 -0.4,-0.6 -1,-0.1 -1.3,0.3 m 4.1,0.6 0.6,-0.4 0.7,-1.1 1.2,6.2 m -30,-30.3 0.6,-0.2 0.4,-0.8 0.1,-0.6 -0.1,-1 -0.9,-0.7 -1.4,-0.5 -1.5,-0.2 -1.2,0.1 -0.7,0.5 -0.4,0.9 -0.1,0.3 0.2,0.9 0.5,0.7 0.9,0.4 0.3,0.1 0.9,-0.2 0.7,-0.5 0.4,-0.9 0.1,-0.3 -0.2,-0.9 -0.5,-0.7 -0.9,-0.4 m 2.1,9 0.6,-0.2 0.4,-0.8 0.1,-0.6 -0.1,-1 -0.9,-0.7 -1.4,-0.5 -1.5,-0.2 -1.2,0.1 -0.7,0.5 -0.4,0.9 -0.1,0.3 0.2,0.9 0.5,0.7 0.9,0.4 0.3,0.1 0.9,-0.2 0.7,-0.5 0.4,-0.9 0.1,-0.3 -0.2,-0.9 -0.5,-0.7 -0.9,-0.4 m 83.6,-32.5 v 1 l 0.5,0.4 0.6,0.2 0.7,-0.2 0.4,-0.5 0.6,-1 0.5,-0.8 0.8,-0.5 0.6,-0.1 0.9,0.2 0.5,0.5 0.2,0.4 0.1,0.9 -0.3,1.2 -0.6,0.7 -0.3,0.3 -0.7,0.1 -0.9,-0.2 -0.5,-0.5 -0.4,-0.7 v -1 -1.2 l -0.1,-0.7 -0.5,-0.4 -0.6,-0.2 -0.7,0.2 -0.5,0.8 -0.4,1.3 m 1.8,-6.9 3.3,3.9 1.2,-4.3 m -4.5,0.4 6.1,1.6 m -81.3,-30.1 0.6,-0.3 0.3,-0.9 v -0.6 l -0.2,-0.9 -0.9,-0.6 -1.5,-0.4 h -1.5 l -1.2,0.2 -0.6,0.6 -0.4,0.9 v 0.3 l 0.3,0.9 0.6,0.6 0.9,0.3 0.3,0.1 0.9,-0.3 0.6,-0.6 0.3,-0.9 v -0.3 l -0.2,-0.9 -0.6,-0.6 -0.9,-0.3 m 3.9,9.2 -6.2,-3.2 m 6.3,-1 -0.1,4.2 m 79.9,2.5 v 0.9 l 0.5,0.5 0.6,0.1 0.7,-0.1 0.4,-0.5 0.6,-1.1 0.5,-0.8 0.7,-0.5 0.7,-0.1 0.9,0.2 0.5,0.4 0.2,0.4 0.1,1 -0.3,1.1 -0.5,0.8 -0.4,0.2 -0.7,0.2 -0.8,-0.2 -0.5,-0.5 -0.5,-0.7 v -0.9 -1.3 l -0.2,-0.6 -0.5,-0.5 -0.6,-0.1 -0.6,0.1 -0.5,0.8 -0.4,1.3 m 2.7,-7.1 -0.6,0.1 -0.5,0.8 -0.2,0.6 0.1,1 0.7,0.8 1.4,0.6 1.5,0.4 h 1.2 l 0.7,-0.5 0.5,-0.8 0.1,-0.3 -0.1,-0.9 -0.4,-0.7 -0.8,-0.5 -0.3,-0.1 -0.9,0.1 -0.8,0.4 -0.5,0.8 v 0.3 0.9 l 0.5,0.8 0.8,0.5 m -22.2,-132.9 3,0.4 0.7,-2.6 -0.4,0.2 -0.9,0.2 -0.9,-0.1 -0.8,-0.5 -0.6,-0.6 -0.1,-1 0.1,-0.6 0.4,-0.8 0.6,-0.5 1,-0.2 0.9,0.1 0.8,0.4 0.3,0.4 0.2,0.6 m -10,3.8 3.8,-5.8 m 0.3,6.4 -4.1,-0.6 m 40.6,13.7 2.6,1.6 1.7,-2.1 -0.5,0.1 -0.9,-0.2 -0.7,-0.5 -0.6,-0.7 -0.2,-0.9 0.2,-0.9 0.3,-0.5 0.7,-0.6 0.9,-0.2 0.9,0.2 0.7,0.5 0.7,0.7 v 0.4 0.7 m -9.5,-2.3 0.8,-0.7 0.8,-0.1 0.9,0.2 0.3,0.1 0.6,0.8 0.2,0.8 -0.2,0.9 -0.2,0.3 -0.7,0.6 -0.9,0.2 -0.9,-0.3 -0.2,-0.1 -0.6,-0.7 -0.2,-0.9 0.3,-1.1 0.8,-1.3 1.1,-1.1 1,-0.5 0.9,0.2 0.5,0.4 0.6,0.7 -0.1,0.7 m 6.5,36.7 -0.6,0.2 -0.5,0.9 -0.1,0.6 0.2,0.9 0.8,0.7 1.4,0.6 1.5,0.2 1.2,-0.1 0.7,-0.4 0.4,-0.9 0.1,-0.3 -0.2,-0.9 -0.4,-0.7 -0.9,-0.5 h -0.3 l -0.9,0.1 -0.7,0.5 -0.5,0.9 v 0.3 l 0.1,0.9 0.5,0.7 0.9,0.4 m -3,-7.4 0.1,0.9 0.8,0.8 1.4,0.5 0.9,0.2 1.6,-0.1 0.9,-0.4 0.5,-0.9 0.1,-0.6 -0.2,-0.9 -0.7,-0.7 -1.5,-0.6 -0.9,-0.1 h -1.5 l -1,0.5 -0.4,0.8 -0.1,0.4 m 5.6,49.8 6.9,-1.1 m -4.5,4.6 -2.4,-3.5 m -1.1,-5.3 0.9,-0.3 0.8,0.2 0.8,0.5 0.2,0.3 0.2,0.9 -0.1,0.8 -0.6,0.8 -0.2,0.2 -0.9,0.2 -0.9,-0.1 -0.7,-0.6 -0.2,-0.2 -0.3,-1 0.2,-0.8 0.8,-0.9 1.2,-0.9 1.4,-0.6 h 1.1 l 0.8,0.6 0.3,0.5 0.3,0.9 -0.3,0.6 m -153.8,-112.6 0.6,-0.3 0.2,-1 -0.1,-0.6 -0.4,-0.8 -0.9,-0.5 -1.6,-0.2 -1.5,0.2 -1.1,0.4 -0.5,0.7 -0.2,0.9 v 0.3 l 0.4,0.9 0.7,0.5 0.9,0.2 h 0.3 l 0.8,-0.4 0.6,-0.7 0.2,-0.9 -0.1,-0.3 -0.4,-0.9 -0.6,-0.5 -1,-0.2 m 5.2,7.7 -4.5,-2.5 0.5,4.4 m 4,-1.9 -6.3,0.7 m 18.5,116.5 -0.9,0.3 -0.3,0.7 v 0.6 l 0.3,0.5 0.6,0.3 1.2,0.3 0.9,0.3 0.6,0.6 0.3,0.6 v 0.9 l -0.3,0.6 -0.3,0.3 -0.9,0.3 h -1.2 l -0.9,-0.3 -0.3,-0.2 -0.3,-0.6 v -0.9 l 0.3,-0.6 0.6,-0.7 0.9,-0.3 1.2,-0.3 0.6,-0.3 0.3,-0.6 v -0.6 l -0.3,-0.6 -0.9,-0.3 h -1.3 m 7.5,0 h -3 l -0.3,2.7 0.3,-0.3 0.9,-0.3 h 0.9 l 0.9,0.3 0.6,0.6 0.3,0.9 0.1,0.6 -0.3,0.9 -0.6,0.6 -0.9,0.3 h -0.9 l -0.9,-0.3 -0.3,-0.3 -0.3,-0.6 M 842,473.8 l -0.1,0.7 0.7,0.7 0.5,0.3 1,0.1 0.9,-0.5 1,-1.2 0.7,-1.3 0.3,-1.2 -0.3,-0.8 -0.6,-0.7 -0.3,-0.1 -0.9,-0.2 -0.8,0.3 -0.7,0.6 -0.2,0.3 -0.1,0.9 0.2,0.8 0.7,0.7 0.3,0.1 0.9,0.2 0.8,-0.2 0.7,-0.7 m -9.2,-0.1 4.6,-2.3 -4,-2.1 m -0.6,4.4 2.9,-5.5 m -70.4,107.3 -0.3,-0.6 -0.9,-0.4 -0.5,-0.1 -1,0.2 -0.7,0.9 -0.4,1.4 -0.2,1.5 0.2,1.3 0.6,0.6 0.8,0.4 h 0.3 l 1,-0.2 0.6,-0.5 0.4,-0.9 v -0.3 l -0.2,-0.9 -0.5,-0.7 -0.9,-0.4 H 768 l -0.9,0.2 -0.7,0.6 -0.4,0.8 m 6.1,-3.6 3.3,0.3 -2.1,2.2 0.9,0.1 0.6,0.4 0.3,0.3 0.2,0.9 -0.1,0.6 -0.4,0.9 -0.6,0.5 -1,0.3 -0.9,-0.1 -0.8,-0.4 -0.3,-0.3 -0.2,-0.7 m 14.1,-112.7 0.7,0.2 0.8,-0.5 0.4,-0.4 0.4,-0.9 -0.3,-1 -0.9,-1.3 -1.1,-1 -1.1,-0.6 -0.8,0.1 -0.9,0.5 -0.2,0.2 -0.3,0.8 v 0.9 l 0.5,0.8 0.2,0.2 0.9,0.4 h 0.8 l 0.8,-0.5 0.2,-0.2 0.4,-0.9 v -0.8 l -0.5,-0.9 m -4.4,8.1 -0.5,-0.9 v -0.8 l 0.3,-0.9 0.2,-0.2 0.9,-0.5 h 0.8 l 0.9,0.4 0.2,0.2 0.5,0.8 v 0.9 l -0.4,0.8 -0.2,0.2 -0.8,0.5 -0.8,0.1 -1.1,-0.6 -1.1,-1 -1,-1.3 -0.2,-1 0.4,-0.9 0.4,-0.4 0.8,-0.5 0.6,0.2 m 44,-15.5 4.2,3 -0.1,-4.5 m -4.1,1.5 6.3,-0.1 m -6.3,-4 0.3,0.9 0.6,0.3 h 0.6 l 0.6,-0.3 0.3,-0.6 0.2,-1.2 0.3,-0.9 0.6,-0.7 0.6,-0.3 h 0.9 l 0.6,0.3 0.3,0.3 0.3,0.9 0.1,1.2 -0.3,0.9 -0.3,0.3 -0.6,0.3 h -0.9 l -0.6,-0.3 -0.6,-0.6 -0.3,-0.8 -0.4,-1.2 -0.3,-0.6 -0.6,-0.3 h -0.6 l -0.6,0.3 -0.3,0.9 0.1,1.3 m -21,-2.7 -2.1,-4.8 -2.3,3.9 m 4.4,0.9 -5.4,-3.3 m 1.8,9 -3.8,-5.9 m 6,2.3 -2.2,3.6 m 24.2,-43.6 0.1,3 2.7,0.3 -0.3,-0.3 -0.3,-0.9 -0.1,-0.9 0.3,-0.9 0.6,-0.6 0.9,-0.3 h 0.6 l 0.9,0.3 0.6,0.6 0.3,0.9 0.1,0.9 -0.3,0.9 -0.3,0.3 -0.6,0.3 m -5.2,-5.9 v -3.3 l 2.4,1.8 v -0.9 l 0.3,-0.6 0.3,-0.3 0.9,-0.3 h 0.6 l 0.9,0.3 0.6,0.6 0.3,0.9 v 0.9 l -0.3,0.9 -0.3,0.3 -0.6,0.3 m -0.9,-16.9 2.6,-1.6 -1.1,-2.4 -0.1,0.4 -0.7,0.7 -0.7,0.4 -1,0.2 -0.8,-0.2 -0.7,-0.6 -0.3,-0.5 -0.2,-0.9 0.2,-0.9 0.6,-0.7 0.8,-0.4 0.9,-0.2 0.4,0.1 0.6,0.3 m -4.7,8.8 0.5,-5.1 -3.9,2.2 m 3.4,2.9 -3.2,-5.4 m -25.1,-12.8 -0.3,0.5 0.1,1 0.3,0.5 0.7,0.6 1.1,0.1 1.5,-0.5 1.3,-0.7 0.9,-0.8 0.2,-0.8 -0.2,-1 -0.1,-0.2 -0.7,-0.7 -0.8,-0.2 -1,0.2 -0.2,0.1 -0.7,0.7 -0.2,0.8 0.2,1 0.1,0.2 0.7,0.7 0.8,0.2 1,-0.2 m -5.1,-3.5 -0.3,0.1 -0.6,0.1 -0.4,-0.2 -0.6,-0.3 -0.6,-1.1 v -0.7 l 0.1,-0.4 0.4,-0.5 0.5,-0.3 h 0.7 1.1 l 4,1.2 -2,-3.7 m 65.7,73.6 -0.1,-1 -0.5,-0.4 -0.6,-0.2 -0.6,0.2 -0.5,0.5 -0.5,1.1 -0.5,0.8 -0.8,0.4 -0.6,0.2 -0.9,-0.2 -0.5,-0.5 -0.2,-0.3 -0.1,-1 0.3,-1.1 0.5,-0.8 0.4,-0.3 0.6,-0.1 0.9,0.2 0.5,0.4 0.4,0.8 0.1,0.9 v 1.2 l 0.2,0.7 0.5,0.4 0.6,0.2 0.6,-0.2 0.5,-0.8 0.3,-1.3 m -1.3,5.6 -0.1,-0.9 -0.7,-0.8 -1.4,-0.6 -0.9,-0.3 h -1.5 l -1,0.4 -0.5,0.8 -0.2,0.5 0.1,1 0.7,0.8 1.4,0.6 0.9,0.2 1.5,0.1 1,-0.4 0.5,-0.8 0.1,-0.4 m 13.6,-21.2 5.2,0.1 -2.6,-3.7 m -2.6,3.6 5.2,-3.6 m -8.7,-1.5 1.7,2.5 2.4,-1.3 -0.4,-0.1 -0.8,-0.6 -0.5,-0.7 -0.3,-0.9 0.2,-0.9 0.6,-0.7 0.4,-0.4 1,-0.2 0.8,0.1 0.8,0.6 0.5,0.7 0.2,0.9 v 0.4 l -0.4,0.6 m -4,5.1 -1,-5 -3.1,3.3 m 4.1,1.7 -4.6,-4.2 m -0.3,8.2 0.7,0.2 0.8,-0.5 0.4,-0.4 0.4,-0.9 -0.3,-1.1 -0.9,-1.2 -1.1,-1 -1.1,-0.6 h -0.8 l -0.9,0.5 -0.2,0.2 -0.3,0.9 v 0.8 l 0.5,0.9 0.2,0.2 0.8,0.4 0.9,-0.1 0.8,-0.4 0.2,-0.3 0.4,-0.8 v -0.9 l -0.5,-0.8 m 52.9,37.4 0.7,0.6 h 0.7 l 0.5,-0.3 0.4,-0.5 -0.1,-0.7 -0.3,-1.2 -0.1,-0.9 0.2,-0.8 0.4,-0.6 0.7,-0.4 0.7,-0.1 0.4,0.2 0.7,0.6 0.6,1 0.2,1 -0.1,0.4 -0.4,0.5 -0.8,0.5 h -0.7 l -0.8,-0.2 -0.7,-0.7 -0.8,-0.9 -0.6,-0.4 -0.7,0.1 -0.5,0.3 -0.4,0.5 0.2,1 0.7,1.1 m -3.9,-7 6.9,-0.4 m -4.9,4.1 -2,-3.7 m -143.2,-103.2 2.7,1.4 1.5,-2.3 -0.4,0.1 -1,-0.1 -0.8,-0.4 -0.7,-0.7 -0.2,-0.8 0.1,-0.9 0.3,-0.6 0.6,-0.7 0.9,-0.2 0.9,0.1 0.8,0.4 0.7,0.7 0.1,0.4 v 0.7 m -6.4,0.9 h -0.6 l -1.2,0.4 2.8,-5.6 m -32.9,65.3 -0.1,-0.7 -0.7,-0.6 -0.5,-0.2 -1,-0.1 -0.9,0.6 -0.8,1.2 -0.6,1.4 -0.2,1.2 0.3,0.8 0.7,0.7 0.3,0.1 0.9,0.1 0.8,-0.4 0.6,-0.7 0.1,-0.2 0.1,-1 -0.3,-0.8 -0.7,-0.6 -0.3,-0.1 -0.9,-0.1 -0.8,0.3 -0.6,0.7 m 5.6,-0.6 h 0.7 l 1.2,-0.5 -2.5,5.8 m 17,-64 -1.7,-6.8 m 4.9,4.1 -3.2,2.7 m -4.1,3.3 -1.6,-6.8 m 4.9,4.1 -3.3,2.7 m -38.4,44.1 -0.1,-0.7 -0.7,-0.6 -0.6,-0.2 -0.9,-0.1 -0.9,0.7 -0.8,1.2 -0.6,1.4 -0.2,1.2 0.4,0.8 0.7,0.6 0.3,0.2 h 0.9 l 0.8,-0.3 0.6,-0.7 0.1,-0.3 0.1,-1 -0.3,-0.7 -0.8,-0.7 -0.2,-0.1 h -1 l -0.8,0.3 -0.6,0.7 m 7.7,-1.4 -1,-0.1 -0.5,0.5 -0.2,0.5 v 0.7 l 0.5,0.5 1,0.7 0.7,0.6 0.3,0.8 0.1,0.7 -0.3,0.8 -0.6,0.5 -0.3,0.1 h -1 l -1.1,-0.5 -0.7,-0.6 -0.2,-0.4 v -0.7 l 0.3,-0.8 0.5,-0.4 0.8,-0.4 0.9,0.1 1.2,0.2 0.7,-0.1 0.5,-0.4 0.2,-0.6 v -0.7 l -0.7,-0.6 -1.3,-0.5 m -20.3,-16 0.4,-0.5 -0.1,-1 -0.2,-0.5 -0.6,-0.8 -1.1,-0.2 -1.5,0.3 -1.4,0.6 -0.9,0.7 -0.4,0.8 0.1,1 0.1,0.3 0.6,0.7 0.8,0.3 1,-0.1 0.2,-0.1 0.8,-0.6 0.3,-0.8 -0.1,-0.9 -0.1,-0.3 -0.6,-0.7 -0.8,-0.4 -1,0.1 m 5.4,7.5 h -0.9 l -0.8,-0.3 -0.6,-0.7 -0.2,-0.3 v -0.9 l 0.3,-0.8 0.7,-0.6 0.3,-0.1 0.9,-0.1 0.8,0.3 0.6,0.7 0.2,0.3 v 1 l -0.3,0.7 -1,0.8 -1.4,0.5 -1.5,0.3 -1,-0.2 -0.7,-0.7 -0.2,-0.5 -0.1,-1 0.5,-0.5 m 23.1,-14.2 0.6,-7 m 3.3,5.5 -3.9,1.5 m -2.8,1 0.8,-0.6 0.2,-1 -0.2,-1.6 -0.3,-0.8 -0.8,-1.3 -0.9,-0.6 h -1 l -0.5,0.2 -0.8,0.6 -0.2,1 0.2,1.6 0.3,0.8 0.8,1.3 0.9,0.6 h 1 l 0.4,-0.1 m 300.8,230.3 0.3,0.9 0.6,0.3 h 0.6 l 0.6,-0.3 0.3,-0.6 0.3,-1.2 0.3,-0.9 0.6,-0.7 0.6,-0.3 h 0.9 l 0.6,0.3 0.3,0.3 0.3,0.9 v 1.2 l -0.3,0.9 -0.3,0.3 -0.6,0.3 h -0.9 l -0.6,-0.3 -0.6,-0.5 -0.3,-0.9 -0.3,-1.2 -0.3,-0.6 -0.6,-0.3 h -0.6 l -0.6,0.3 -0.3,0.9 v 1.3 m -0.1,-5.5 0.4,0.9 0.6,0.3 h 0.6 l 0.6,-0.3 0.3,-0.6 0.2,-1.2 0.3,-0.9 0.6,-0.6 0.6,-0.3 h 0.9 l 0.6,0.3 0.3,0.3 0.3,0.9 v 1.2 l -0.2,0.9 -0.3,0.3 -0.6,0.3 h -0.9 l -0.6,-0.3 -0.6,-0.6 -0.4,-0.9 -0.3,-1.2 -0.3,-0.6 -0.6,-0.3 h -0.6 l -0.6,0.3 -0.3,0.9 v 1.4 m -10,2.6 -1,0.1 -0.4,0.6 -0.1,0.6 0.2,0.6 0.5,0.4 1.1,0.6 0.8,0.4 0.5,0.7 0.2,0.7 -0.2,0.9 -0.4,0.5 -0.4,0.2 -0.9,0.2 -1.2,-0.3 -0.8,-0.5 -0.2,-0.3 -0.2,-0.7 0.2,-0.9 0.4,-0.5 0.7,-0.4 0.9,-0.2 h 1.3 l 0.6,-0.2 0.4,-0.5 0.2,-0.6 -0.2,-0.6 -0.8,-0.5 -1.4,-0.3 m 7.3,2.4 -0.2,-0.6 -0.8,-0.5 -0.6,-0.1 -0.9,0.1 -0.8,0.8 -0.6,1.4 -0.3,1.4 0.1,1.3 0.4,0.7 0.8,0.5 h 0.3 l 1,-0.1 0.7,-0.5 0.5,-0.8 V 602 l -0.1,-0.9 -0.4,-0.7 -0.9,-0.5 -0.3,-0.1 -0.9,0.1 -0.7,0.5 -0.5,0.8 m -270.1,4.2 -0.6,0.4 -0.3,0.9 v 0.6 l 0.4,0.9 0.9,0.5 1.5,0.2 h 1.5 l 1.2,-0.4 0.6,-0.6 0.2,-0.9 v -0.3 l -0.3,-0.9 -0.6,-0.6 -1,-0.2 h -0.3 l -0.8,0.3 -0.6,0.7 -0.3,0.9 v 0.3 l 0.4,0.8 0.6,0.6 0.9,0.3 m -4.4,-5.5 -0.2,-3.3 2.5,1.7 v -0.9 l 0.2,-0.6 0.3,-0.3 0.9,-0.3 0.6,-0.1 0.9,0.3 0.6,0.6 0.4,0.9 v 0.9 l -0.2,0.9 -0.3,0.3 -0.6,0.3 m -22.8,30.8 -0.6,-0.4 -0.9,0.2 -0.5,0.3 -0.7,0.7 -0.1,1.1 0.5,1.4 0.7,1.3 0.9,0.9 0.8,0.3 0.9,-0.2 0.3,-0.2 0.6,-0.7 0.3,-0.8 -0.2,-0.9 -0.1,-0.3 -0.7,-0.6 -0.9,-0.2 -0.9,0.1 -0.3,0.2 -0.6,0.7 -0.2,0.8 0.1,0.9 m 5.5,-7.8 -2.6,1.4 1.1,2.5 0.1,-0.4 0.6,-0.7 0.8,-0.4 1,-0.2 0.8,0.2 0.7,0.7 0.3,0.5 0.1,0.9 -0.2,0.8 -0.6,0.7 -0.8,0.5 -1,0.2 -0.4,-0.2 -0.5,-0.3 m -23.6,-27.8 0.5,-0.5 0.1,-0.9 -0.1,-0.6 -0.5,-0.8 -1,-0.4 -1.6,0.1 -1.4,0.3 -1.1,0.6 -0.5,0.7 v 1 0.3 l 0.5,0.8 0.8,0.4 0.9,0.1 0.3,-0.1 0.8,-0.5 0.4,-0.7 0.1,-0.9 -0.1,-0.3 -0.5,-0.8 -0.7,-0.5 -0.9,-0.1 m 5.2,7.7 0.5,-0.5 0.1,-0.9 -0.1,-0.6 -0.5,-0.8 -1,-0.4 -1.6,0.1 -1.4,0.3 -1.1,0.6 -0.5,0.7 v 1 0.3 l 0.5,0.8 0.8,0.4 0.9,0.1 0.3,-0.1 0.8,-0.5 0.4,-0.7 0.1,-0.9 -0.1,-0.3 -0.5,-0.8 -0.7,-0.5 -0.9,-0.1 m 42.4,-141.4 4.9,-4.9 m -0.9,6.3 -4,-1.4 m -2.7,-0.9 h 0.9 l 0.9,-0.7 0.7,-1.3 0.3,-0.8 0.2,-1.5 -0.2,-1.1 -0.8,-0.6 -0.6,-0.2 h -0.9 l -0.9,0.7 -0.7,1.3 -0.3,0.9 -0.2,1.5 0.2,1 0.8,0.6 0.4,0.1 m -117.6,32.6 -6.9,0.9 m 4.7,-4.4 2.2,3.5 m 1.4,2.3 -0.7,-0.6 h -0.7 l -0.5,0.4 -0.3,0.5 v 0.7 l 0.4,1.2 0.2,0.9 -0.1,0.8 -0.4,0.6 -0.8,0.5 h -0.6 l -0.4,-0.1 -0.8,-0.6 -0.6,-1 -0.2,-0.9 0.1,-0.4 0.3,-0.6 0.8,-0.5 h 0.6 l 0.9,0.2 0.7,0.6 0.9,0.8 0.6,0.4 0.6,-0.1 0.5,-0.3 0.4,-0.6 -0.2,-0.9 -0.8,-1.2 m 78.2,-48.1 5,-4.8 m -1,6.3 -4,-1.5 m -4.9,-1.8 5.1,-4.9 m -1.1,6.4 -4,-1.5 m -37.9,-14.3 -2.7,-4.4 -1.8,4.2 m 4.5,0.2 -5.8,-2.4 m 1.2,7.6 -0.7,-0.6 -0.3,-0.8 0.1,-0.9 0.1,-0.3 0.6,-0.7 0.8,-0.4 0.9,0.1 0.3,0.1 0.7,0.7 0.3,0.8 v 0.9 l -0.2,0.3 -0.6,0.7 -0.8,0.3 -1.2,-0.2 -1.4,-0.6 -1.2,-0.8 -0.6,-0.9 0.1,-1 0.2,-0.5 0.6,-0.8 h 0.7 m 27.3,-12.2 2.9,-0.8 -0.4,-2.7 -0.2,0.4 -0.8,0.5 -0.8,0.2 h -1 l -0.7,-0.5 -0.5,-0.8 -0.2,-0.6 0.1,-0.9 0.4,-0.7 0.8,-0.5 0.9,-0.3 1,0.1 0.3,0.2 0.5,0.5 m -5.7,6.7 0.8,-0.5 0.3,-1 v -1.5 l -0.3,-0.9 -0.6,-1.4 -0.8,-0.7 -1,-0.1 -0.6,0.2 -0.8,0.5 -0.3,1 0.1,1.5 0.2,0.9 0.6,1.4 0.8,0.7 1,0.1 0.4,-0.1 m 8.9,-0.4 -0.8,2.9 2.6,0.9 -0.2,-0.3 -0.1,-1 0.2,-0.9 0.5,-0.8 0.7,-0.4 1,-0.1 0.6,0.2 0.8,0.5 0.4,0.7 0.1,1 -0.2,0.8 -0.5,0.8 -0.4,0.2 -0.6,0.2 m -2.4,-6 -0.1,-0.7 -0.7,-1 6.1,1.5 m -77.6,40.5 -0.2,-1 -0.6,-0.3 h -0.6 l -0.6,0.2 -0.3,0.6 -0.4,1.2 -0.4,0.9 -0.6,0.5 -0.6,0.3 -0.9,-0.1 -0.6,-0.3 -0.3,-0.3 -0.2,-0.9 0.1,-1.2 0.3,-0.9 0.3,-0.3 0.6,-0.2 h 0.9 l 0.6,0.3 0.6,0.7 0.2,0.9 0.3,1.2 0.2,0.6 0.6,0.4 h 0.6 l 0.6,-0.3 0.4,-0.8 v -1.4 m -2.5,7.8 -0.9,-0.4 -0.6,-0.6 -0.2,-0.9 v -0.3 l 0.4,-0.9 0.6,-0.6 0.9,-0.2 h 0.3 l 0.9,0.3 0.6,0.7 0.2,0.9 v 0.3 l -0.4,0.9 -0.6,0.5 -1.2,0.3 -1.5,-0.1 -1.5,-0.4 -0.9,-0.7 -0.2,-0.9 v -0.6 l 0.4,-0.9 0.6,-0.2 m 18,-13.6 0.3,-0.9 0.6,-0.6 0.9,-0.3 h 0.3 l 0.9,0.3 0.6,0.6 0.3,1 v 0.3 l -0.3,0.8 -0.6,0.6 -0.9,0.3 h -0.3 l -0.9,-0.3 -0.6,-0.6 -0.3,-1.2 v -1.5 l 0.3,-1.5 0.7,-0.9 0.9,-0.3 h 0.6 l 0.9,0.3 0.3,0.6 m -6.7,5.3 0.9,-0.2 0.6,-0.9 0.4,-1.5 v -0.9 l -0.3,-1.5 -0.6,-0.9 -0.9,-0.4 h -0.6 l -0.9,0.3 -0.6,0.9 -0.3,1.5 v 0.9 l 0.2,1.5 0.6,0.9 0.9,0.3 h 0.5 m 268,-53.1 -4.9,-1.4 1.5,4.2 m 3.4,-2.8 -5.9,2.1 m 8,3.8 -1,-2.8 -2.7,0.6 0.4,0.2 0.6,0.7 0.3,0.9 v 0.9 l -0.4,0.8 -0.7,0.6 -0.6,0.2 h -0.9 l -0.8,-0.4 -0.6,-0.7 -0.3,-0.9 v -0.9 l 0.2,-0.4 0.4,-0.5 m 7.4,-20.1 -3,-4.3 -1.5,4.3 m 4.5,0 -5.9,-2.1 m 2.9,7.6 0.7,-0.1 0.6,-0.7 0.2,-0.6 v -0.9 l -0.7,-0.9 -1.3,-0.8 -1.4,-0.5 -1.2,-0.1 -0.8,0.4 -0.6,0.7 -0.1,0.3 v 1 l 0.4,0.7 0.7,0.6 0.3,0.1 h 0.9 l 0.8,-0.3 0.6,-0.8 0.1,-0.3 v -0.9 l -0.4,-0.8 -0.7,-0.6 m 36.5,-26 2.9,0.7 1,-2.5 -0.4,0.2 -0.9,0.1 -0.9,-0.2 -0.8,-0.5 -0.5,-0.7 v -1 l 0.1,-0.6 0.5,-0.8 0.7,-0.4 1,-0.1 0.8,0.2 0.9,0.5 0.2,0.4 0.1,0.6 m -6.9,3.6 -3.3,-0.8 2.4,-1.9 -0.9,-0.2 -0.5,-0.4 -0.2,-0.4 -0.1,-1 0.1,-0.5 0.5,-0.8 0.7,-0.5 1,-0.1 0.9,0.3 0.8,0.5 0.2,0.3 0.1,0.7 m 43.7,14.5 3,0.5 0.7,-2.6 -0.3,0.2 -0.9,0.2 -0.9,-0.2 -0.9,-0.4 -0.5,-0.7 -0.1,-0.9 0.1,-0.6 0.4,-0.9 0.7,-0.5 0.9,-0.1 0.9,0.1 0.9,0.5 0.2,0.3 0.2,0.7 m -9.6,3.6 2.9,0.4 0.8,-2.6 -0.4,0.3 -0.9,0.1 -0.9,-0.1 -0.8,-0.5 -0.5,-0.6 -0.2,-1 0.1,-0.6 0.5,-0.8 0.6,-0.5 1,-0.2 0.9,0.2 0.8,0.4 0.3,0.4 0.2,0.6 m 0.2,11.4 -1.3,2.7 2.3,1.4 -0.1,-0.4 0.1,-1 0.4,-0.8 0.6,-0.7 0.8,-0.2 1,0.1 0.5,0.2 0.7,0.7 0.3,0.8 -0.1,0.9 -0.4,0.8 -0.7,0.7 -0.4,0.2 h -0.6 m 0,-9.9 h -0.7 l -0.6,0.7 -0.3,0.5 -0.1,1 0.6,0.9 1.2,0.9 1.3,0.7 1.3,0.2 0.8,-0.3 0.6,-0.7 0.1,-0.2 0.1,-1 -0.2,-0.8 -0.7,-0.6 -0.3,-0.2 -0.9,-0.1 -0.8,0.3 -0.7,0.7 -0.1,0.3 -0.1,0.9 0.3,0.8 0.6,0.7 m -90,-19.3 -0.9,-0.3 -0.6,0.3 -0.3,0.5 -0.1,0.7 0.3,0.6 0.8,0.9 0.6,0.8 0.1,0.8 -0.1,0.7 -0.5,0.7 -0.6,0.3 -0.4,0.1 -0.9,-0.3 -1,-0.7 -0.6,-0.7 v -0.5 l 0.1,-0.6 0.5,-0.8 0.6,-0.3 0.8,-0.1 0.9,0.3 1.2,0.4 0.6,0.1 0.6,-0.3 0.4,-0.5 0.1,-0.7 -0.6,-0.7 -1.1,-0.8 m 4.8,3.4 -1,-0.3 -1,0.4 -1.1,1 -0.5,0.7 -0.6,1.4 v 1.1 l 0.5,0.8 0.5,0.3 0.9,0.3 1,-0.4 1.1,-1 0.6,-0.8 0.6,-1.4 v -1 l -0.6,-0.8 -0.3,-0.3 m 3.6,-1.6 0.6,-5.1 -3.9,2.1 m 3.3,3 -3,-5.6 m -0.7,7.5 0.6,-0.7 v -0.7 l -0.3,-0.5 -0.5,-0.4 h -0.7 l -1.2,0.4 -0.9,0.1 -0.8,-0.2 -0.6,-0.4 -0.4,-0.8 V 362 l 0.1,-0.4 0.7,-0.7 1,-0.5 1,-0.2 0.4,0.1 0.5,0.4 0.4,0.8 0.1,0.7 -0.3,0.8 -0.6,0.7 -1,0.8 -0.3,0.5 v 0.7 l 0.3,0.5 0.5,0.4 0.9,-0.1 1.2,-0.7 m 94.7,42 3.9,-5.8 m 0.2,6.4 -4.1,-0.6 m -0.9,-1.5 -0.6,0.2 -1,0.7 0.9,-6.2 m 21.1,23 6.9,-1.3 m -4.4,4.7 -2.5,-3.4 m 0.2,-2.2 -0.2,0.2 -0.7,0.1 -0.4,-0.1 -0.6,-0.3 -0.7,-0.9 -0.1,-0.7 v -0.4 l 0.3,-0.6 0.5,-0.4 0.7,-0.1 h 1.1 l 4.2,0.6 -2.5,-3.4 m -63.8,10.4 -0.9,-0.1 -0.5,0.5 -0.2,0.5 0.1,0.7 0.4,0.5 1,0.7 0.8,0.6 0.3,0.8 0.1,0.6 -0.3,0.9 -0.5,0.4 -0.4,0.2 h -0.9 l -1.2,-0.4 -0.7,-0.6 -0.2,-0.4 v -0.7 l 0.3,-0.8 0.5,-0.5 0.7,-0.3 h 1 l 1.2,0.1 h 0.7 l 0.5,-0.5 0.2,-0.6 -0.1,-0.6 -0.7,-0.6 -1.3,-0.5 m 7.5,2.8 -5,4.9 m 1.1,-6.3 3.9,1.4 m 39.9,12.9 -2.9,-0.8 -0.9,2.5 0.3,-0.2 1,-0.1 0.8,0.3 0.8,0.5 0.5,0.7 v 1 l -0.1,0.6 -0.6,0.8 -0.7,0.4 h -0.9 l -0.9,-0.2 -0.8,-0.5 -0.2,-0.4 -0.2,-0.6 m 10.4,-2.6 -4.5,5.4 m 0.5,-6.4 4,1 m 13.3,-0.8 -1.6,2.6 2.2,1.6 -0.1,-0.4 0.2,-0.9 0.5,-0.8 0.7,-0.6 0.8,-0.2 0.9,0.2 0.5,0.3 0.7,0.7 0.2,0.9 -0.2,0.9 -0.5,0.8 -0.7,0.6 -0.5,0.1 -0.6,-0.1 m -0.8,-8.5 -0.2,0.9 0.3,0.6 0.5,0.3 0.7,0.1 0.6,-0.4 0.8,-0.9 0.8,-0.6 0.8,-0.2 0.7,0.1 0.7,0.4 0.4,0.6 0.1,0.4 -0.2,1 -0.6,1 -0.8,0.6 -0.4,0.1 -0.6,-0.1 -0.8,-0.4 -0.4,-0.6 -0.2,-0.8 0.2,-0.9 0.4,-1.2 0.1,-0.7 -0.4,-0.6 -0.5,-0.3 h -0.7 l -0.7,0.6 -0.7,1.1 m -151.7,166.9 0.4,0.9 0.6,0.3 h 0.6 l 0.6,-0.4 0.2,-0.6 0.3,-1.2 0.3,-0.9 0.5,-0.6 0.6,-0.3 0.9,-0.1 0.6,0.3 0.3,0.3 0.4,0.9 v 1.2 l -0.2,0.9 -0.3,0.3 -0.6,0.3 -0.9,0.1 -0.6,-0.3 -0.6,-0.6 -0.4,-0.9 -0.3,-1.2 -0.4,-0.6 -0.6,-0.2 h -0.6 l -0.6,0.3 -0.2,0.9 v 1.4 m -0.3,-7.6 0.2,3 2.7,0.2 -0.3,-0.3 -0.4,-0.9 v -0.9 l 0.3,-0.9 0.5,-0.6 0.9,-0.4 h 0.6 l 0.9,0.3 0.6,0.6 0.4,0.8 v 0.9 l -0.2,1 -0.3,0.3 -0.6,0.3 m -23.9,14.8 -0.5,-0.5 -0.9,-0.1 -0.6,0.2 -0.8,0.5 -0.3,1 0.1,1.5 0.4,1.5 0.6,1.1 0.7,0.4 h 0.9 0.3 l 0.8,-0.6 0.4,-0.7 0.1,-0.9 -0.1,-0.3 -0.5,-0.8 -0.7,-0.4 -1,-0.1 -0.3,0.1 -0.8,0.5 -0.4,0.7 v 1 m 7.7,-6.4 -1.3,6.8 m -2.8,-5.7 4.1,-1.1 m -30.4,-12 0.5,-0.5 -0.1,-0.9 -0.3,-0.6 -0.6,-0.7 -1.1,-0.2 -1.5,0.3 -1.3,0.7 -1,0.7 -0.3,0.8 0.1,0.9 0.1,0.3 0.6,0.7 0.8,0.3 1,-0.1 0.2,-0.1 0.7,-0.6 0.4,-0.8 -0.1,-0.9 -0.2,-0.3 -0.6,-0.7 -0.8,-0.3 -0.9,0.1 m 7.3,6.2 -1.2,-2.8 -2.6,0.8 0.4,0.2 0.6,0.7 0.4,0.8 0.1,1 -0.3,0.7 -0.7,0.7 -0.6,0.2 -0.9,0.1 -0.8,-0.3 -0.7,-0.7 -0.3,-0.8 -0.1,-1 0.1,-0.4 0.5,-0.5 m -191.1,-72.2 2,-6.7 m 2.1,6.1 -4.1,0.6 m -4.3,0.6 2.4,-4.5 -4.5,0.6 m 2.1,3.9 -0.9,-6.2 m -20.8,8.9 2.3,-6.6 m 1.9,6.1 -4.2,0.5 m -1.7,0.2 -3.3,0.4 1.5,-2.6 -0.9,0.1 -0.6,-0.3 -0.3,-0.2 -0.4,-0.9 -0.1,-0.6 0.2,-0.9 0.5,-0.7 0.9,-0.4 0.9,-0.1 0.9,0.2 0.3,0.3 0.4,0.5 m 56,66.6 -0.5,0.8 0.2,0.7 0.4,0.4 0.6,0.2 0.7,-0.2 1.1,-0.6 0.8,-0.4 0.9,0.1 0.6,0.2 0.6,0.7 0.2,0.6 v 0.4 l -0.4,0.9 -0.9,0.8 -0.9,0.4 h -0.4 l -0.6,-0.3 -0.7,-0.6 -0.1,-0.7 v -0.8 l 0.4,-0.8 0.7,-1.1 0.2,-0.6 -0.2,-0.7 -0.4,-0.4 -0.6,-0.2 -0.9,0.4 -0.9,0.9 m 3.8,-1.7 0.2,-0.6 v -1.3 l 4.4,4.6 m -30.4,-4.9 0.9,-2.8 -2.5,-1.1 0.2,0.4 v 0.9 l -0.3,0.9 -0.5,0.7 -0.8,0.4 -0.9,0.1 -0.6,-0.2 -0.8,-0.6 -0.4,-0.7 v -1 l 0.3,-0.8 0.5,-0.8 0.4,-0.2 0.7,-0.1 m 1.7,6.7 h 0.2 l 0.5,0.5 0.2,0.4 0.1,0.6 -0.3,1.2 -0.5,0.5 -0.4,0.2 -0.6,0.1 -0.6,-0.2 -0.5,-0.5 -0.7,-0.8 -1.9,-3.8 -1.3,4 m -16.3,-35.8 -3,-0.3 -0.5,2.6 0.3,-0.2 0.9,-0.2 0.9,0.1 0.9,0.4 0.5,0.6 0.2,0.9 v 0.6 l -0.4,0.9 -0.7,0.5 -0.9,0.2 -0.9,-0.1 -0.9,-0.3 -0.2,-0.4 -0.3,-0.6 m 6.2,-3 0.1,-0.3 0.3,-0.5 0.3,-0.3 0.7,-0.2 1.2,0.1 0.5,0.3 0.3,0.4 0.2,0.6 v 0.6 l -0.4,0.6 -0.7,0.8 -3.3,2.7 4.2,0.4 m -22.2,-26 0.4,0.6 1,0.8 -6.2,0.8 m 5.2,0.4 0.3,0.5 1,0.8 -6.2,0.8 m 6.7,0.9 0.4,3.3 -2.6,-1.5 0.1,0.9 -0.2,0.6 -0.3,0.4 -0.9,0.4 h -0.6 l -0.9,-0.1 -0.7,-0.6 -0.4,-0.8 -0.1,-0.9 0.2,-0.9 0.3,-0.4 0.5,-0.3 m 14.5,70.8 -0.7,0.3 -0.9,0.8 0.4,-6.3 m -1.4,5 -0.6,0.3 -1,0.9 0.4,-6.3 m -2.1,6.4 -3.3,-0.2 1.9,-2.3 -0.9,-0.1 -0.6,-0.3 -0.2,-0.3 -0.3,-0.9 0.1,-0.6 0.3,-0.9 0.6,-0.6 1,-0.2 h 0.9 l 0.8,0.4 0.3,0.3 0.3,0.6 m -17,14 0.1,0.7 0.6,1.1 -6,-1.7 m 4.6,2.4 0.1,0.6 0.7,1.1 -6.1,-1.6 m 5.2,5.9 -3.3,-4 -1.1,4.3 m 4.4,-0.3 -6.1,-1.7 m 2.1,17.9 0.6,0.2 h 1.3 l -4.5,4.4 m 6.7,-2.4 -0.8,-0.4 -1.1,0.2 -1.3,0.8 -0.6,0.6 -0.9,1.3 -0.2,1.1 0.4,0.8 0.4,0.4 0.9,0.5 1,-0.2 1.3,-0.9 0.7,-0.6 0.8,-1.3 0.3,-1 -0.5,-0.9 -0.3,-0.3 m 2.8,2.8 2.3,2.4 -3,0.4 0.7,0.6 0.2,0.7 v 0.4 l -0.5,0.8 -0.4,0.5 -0.8,0.4 h -0.9 l -0.8,-0.5 -0.7,-0.6 -0.4,-0.9 v -0.4 l 0.2,-0.6 m 39,-20.3 4.8,5.1 m -6.3,-1.2 1.5,-3.9 m 1.7,-4.4 -1.1,2.8 2.4,1.3 -0.1,-0.4 v -1 l 0.3,-0.8 0.7,-0.7 0.7,-0.4 1,0.1 0.5,0.2 0.8,0.6 0.3,0.8 -0.1,0.9 -0.3,0.9 -0.6,0.7 -0.4,0.2 H 614 m -24.6,15 -0.4,7 m -3.5,-5.4 3.9,-1.6 m 4.7,-0.9 -0.5,-0.5 -0.9,0.1 -0.6,0.2 -0.7,0.6 -0.2,1.1 0.3,1.5 0.6,1.4 0.7,1 0.8,0.3 h 0.9 l 0.3,-0.2 0.7,-0.6 0.3,-0.8 v -0.9 l -0.1,-0.3 -0.7,-0.7 -0.7,-0.3 h -1 l -0.3,0.2 -0.7,0.6 -0.3,0.8 0.1,0.9 m 191.7,-234.4 -0.7,5.1 4,-2.1 m -3.3,-3 3,5.6 m 2.9,-8.7 0.4,7 m -4.1,-5 3.7,-2 m -29.3,3.1 -0.2,-0.7 -0.7,-0.5 -0.6,-0.2 H 758 l -0.9,0.7 -0.7,1.3 -0.5,1.4 v 1.3 l 0.4,0.7 0.7,0.6 0.3,0.1 h 1 l 0.7,-0.4 0.6,-0.8 0.1,-0.3 -0.1,-0.9 -0.4,-0.8 -0.7,-0.5 -0.3,-0.1 h -1 l -0.7,0.4 -0.6,0.7 m 7.5,-2 h -0.9 l -0.5,0.5 -0.2,0.6 0.2,0.6 0.4,0.5 1.1,0.7 0.8,0.5 0.3,0.8 0.2,0.6 -0.3,0.9 -0.5,0.5 -0.4,0.2 h -0.9 l -1.2,-0.4 -0.7,-0.5 -0.2,-0.4 -0.1,-0.7 0.2,-0.8 0.5,-0.5 0.8,-0.4 h 0.9 1.3 l 0.6,-0.1 0.5,-0.4 0.2,-0.6 -0.1,-0.7 -0.8,-0.5 -1.3,-0.4 m -11,-3.9 h 0.7 l 0.6,-0.7 0.3,-0.6 0.1,-0.9 -0.6,-0.9 -1.3,-0.9 -1.3,-0.6 -1.3,-0.2 -0.8,0.3 -0.6,0.7 -0.1,0.3 -0.1,0.9 0.3,0.8 0.7,0.6 0.3,0.1 0.9,0.1 0.8,-0.3 0.7,-0.7 0.1,-0.3 0.1,-0.9 -0.3,-0.8 -0.7,-0.6 m 0.5,5.6 0.1,0.7 0.4,1.2 -5.8,-2.5 m 25.7,-199.4 -0.3,0.1 -0.6,-0.1 -0.4,-0.3 -0.4,-0.5 -0.3,-1.1 0.1,-0.7 0.3,-0.4 0.5,-0.4 0.5,-0.1 0.7,0.1 1,0.4 3.6,2.2 -0.9,-4.1 m -6.6,-0.2 -0.8,-3.2 2.8,1.2 -0.2,-0.9 0.1,-0.6 0.3,-0.4 0.8,-0.5 0.5,-0.1 h 1 l 0.7,0.5 0.5,0.8 0.2,0.9 v 0.9 l -0.3,0.4 -0.5,0.4 m -77.9,-74.5 4.7,-2.1 -3.8,-2.3 m -0.9,4.4 3.2,-5.4 m -31.6,32.9 -2.9,0.7 0.3,2.7 0.2,-0.3 0.9,-0.5 0.8,-0.2 h 1 l 0.7,0.5 0.5,0.8 0.1,0.6 -0.1,0.9 -0.4,0.7 -0.8,0.5 -0.9,0.3 -0.9,-0.1 -0.4,-0.3 -0.4,-0.5 m 13,20.1 2.3,-1.9 -1.5,-2.3 -0.1,0.5 -0.5,0.8 -0.7,0.5 -0.8,0.4 -0.9,-0.1 -0.8,-0.5 -0.4,-0.4 -0.3,-0.9 v -0.9 l 0.5,-0.8 0.7,-0.6 0.9,-0.3 h 0.4 l 0.7,0.3 m 70.3,-45.6 0.2,0.3 v 0.7 l -0.2,0.4 -0.4,0.5 -1,0.5 h -0.7 l -0.4,-0.1 -0.5,-0.4 -0.3,-0.5 v -0.7 l 0.1,-1.1 1.4,-4 -3.8,1.9 m -1.4,7.7 2.7,-1.3 -1,-2.6 -0.1,0.4 -0.7,0.7 -0.8,0.4 -0.9,0.1 -0.8,-0.2 -0.7,-0.7 -0.3,-0.5 -0.1,-1 0.3,-0.8 0.7,-0.6 0.8,-0.4 0.9,-0.2 0.4,0.2 0.5,0.4 m 36.6,-2.3 v 0.3 l -0.4,0.5 -0.3,0.3 -0.6,0.2 -1.2,-0.1 -0.6,-0.4 -0.2,-0.3 -0.3,-0.7 0.1,-0.6 0.4,-0.5 0.7,-0.8 3.4,-2.6 -4.2,-0.6 m -3.7,5.9 0.9,-0.2 0.7,-0.8 0.5,-1.5 0.1,-0.8 -0.1,-1.6 -0.5,-0.9 -0.8,-0.5 H 772 l -1,0.2 -0.7,0.8 -0.5,1.4 -0.1,0.9 0.1,1.5 0.5,1 0.9,0.4 0.4,0.1 m 31.9,19.1 -2.2,-2.4 2.9,-0.3 -0.6,-0.7 -0.2,-0.6 v -0.4 l 0.5,-0.9 0.4,-0.4 0.9,-0.4 h 0.8 l 0.8,0.5 0.7,0.6 0.4,0.9 v 0.4 l -0.3,0.6 m -6.3,-1.2 -0.6,-0.3 h -1.3 l 4.6,-4.3 m 40.3,31.6 -0.1,0.3 -0.5,0.4 -0.4,0.2 -0.6,0.1 -1.2,-0.4 -0.4,-0.5 -0.2,-0.4 -0.1,-0.7 0.2,-0.5 0.5,-0.5 0.9,-0.6 3.9,-1.8 -3.9,-1.5 m -6.2,2.2 0.6,-0.8 0.7,-0.3 h 1 l 0.3,0.1 0.7,0.6 0.3,0.8 v 1 l -0.1,0.2 -0.6,0.8 -0.8,0.3 h -0.9 l -0.3,-0.1 -0.7,-0.6 -0.4,-0.8 0.2,-1.2 0.5,-1.4 0.8,-1.3 0.9,-0.6 h 0.9 l 0.6,0.2 0.7,0.6 0.1,0.7 m -5,19.8 -0.2,-0.2 -0.2,-0.6 v -0.5 l 0.3,-0.6 0.9,-0.8 0.6,-0.1 h 0.5 l 0.6,0.2 0.4,0.5 0.1,0.6 0.2,1.1 -0.3,4.3 3.2,-2.8 m -2.2,-6.5 -0.5,0.8 0.2,0.7 0.4,0.4 0.6,0.3 0.7,-0.2 1.1,-0.6 0.8,-0.3 h 0.9 l 0.6,0.3 0.6,0.7 0.2,0.6 -0.1,0.4 -0.4,0.9 -0.9,0.7 -0.9,0.4 h -0.4 l -0.7,-0.3 -0.6,-0.7 -0.1,-0.6 v -0.8 l 0.5,-0.9 0.7,-1 0.3,-0.6 -0.2,-0.6 -0.4,-0.5 -0.6,-0.3 -0.9,0.4 -1,0.9 M 667.2,133 l 2.9,-4.2 h -4.5 m 1.6,4.2 -0.1,-6.3 m -3.1,4.8 v 0.3 l -0.3,0.6 -0.3,0.3 -0.6,0.3 h -1.2 l -0.6,-0.3 -0.3,-0.3 -0.3,-0.6 v -0.6 l 0.3,-0.6 0.6,-0.9 3,-3 h -4.2 m -68.5,39.4 0.7,0.2 1.2,0.1 -4.6,4.3 m 8,-1 -2,-2.2 -2.2,1.6 h 0.4 l 0.8,0.5 0.7,0.6 0.4,0.9 -0.1,0.9 -0.4,0.8 -0.5,0.4 -0.8,0.4 h -0.9 l -0.8,-0.5 -0.6,-0.7 -0.4,-0.8 v -0.4 l 0.2,-0.7 m 42.1,-45.9 -0.7,0.1 -1.2,0.5 2.4,-5.8 m -6.4,4.4 4.3,-2.7 -4.1,-1.8 m -0.2,4.5 2.4,-5.8 m -50.1,26.4 0.6,0.4 1.2,0.4 -5.7,2.7 m 6.1,2.7 -0.9,0.1 -0.8,-0.3 -0.7,-0.7 -0.1,-0.2 -0.1,-1 0.3,-0.8 0.7,-0.6 0.2,-0.2 1,-0.1 0.8,0.3 0.6,0.7 0.2,0.3 0.1,0.9 -0.3,0.8 -1,0.8 -1.3,0.6 -1.5,0.4 -1.1,-0.1 -0.6,-0.7 -0.3,-0.6 -0.1,-0.9 0.4,-0.5 m 11.4,-43.7 0.1,0.7 0.4,1.1 -5.7,-2.5 m 3.9,3.5 0.3,0.2 0.4,0.5 0.1,0.4 0.1,0.6 -0.5,1.1 -0.5,0.5 -0.4,0.1 -0.7,0.1 -0.5,-0.3 -0.5,-0.5 -0.5,-0.9 -1.6,-3.9 -1.7,3.8 m 47.6,-8.8 0.6,-0.4 0.8,-0.9 0.4,6.3 m 3.9,-6.9 -2.8,4.4 4.5,-0.3 m -1.7,-4.1 0.4,6.3 m 8,-26.9 4.5,2.5 -0.5,-4.5 m -4,2 6.2,-0.7 m -5,-2 -0.4,-0.6 -1,-0.8 6.3,-0.7 m -21.4,-30.7 -0.6,0.1 -1.2,0.4 2.4,-5.8 m -4.1,5.3 -3,-1.2 2.6,-1.6 -0.9,-0.3 -0.4,-0.5 -0.2,-0.4 0.1,-1 0.2,-0.5 0.7,-0.7 0.8,-0.3 h 0.9 l 0.8,0.4 0.7,0.6 0.2,0.4 v 0.7 m -32.7,-5.6 -0.1,0.3 -0.3,0.6 -0.3,0.3 -0.6,0.3 h -1.2 l -0.6,-0.3 -0.3,-0.3 -0.3,-0.6 0.1,-0.6 0.3,-0.6 0.6,-0.9 3,-3 h -4.2 m -4.8,5.4 0.3,0.6 0.9,0.3 h 0.6 l 0.9,-0.3 0.6,-0.9 0.3,-1.5 v -1.5 l -0.3,-1.2 -0.6,-0.6 -0.9,-0.3 h -0.3 l -0.9,0.3 -0.6,0.6 -0.3,0.9 v 0.3 l 0.3,0.9 0.6,0.6 0.9,0.3 h 0.3 l 0.9,-0.3 0.6,-0.6 0.3,-0.9 m -1.7,13.8 0.2,-0.1 h 0.7 l 0.4,0.2 0.5,0.4 0.5,1.1 v 0.7 l -0.2,0.4 -0.4,0.5 -0.6,0.2 h -0.7 l -1,-0.2 -4,-1.6 1.7,3.9 m 7.8,2.3 -6.9,-0.3 m 5.3,-3.6 1.6,3.9 m 77.3,176 1,3.1 -2.8,-0.9 0.3,0.8 -0.1,0.7 -0.2,0.4 -0.8,0.5 -0.6,0.2 H 665 l -0.8,-0.4 -0.5,-0.8 -0.3,-0.8 v -1 l 0.2,-0.4 0.5,-0.4 m 7.7,7.4 -6.9,-1 m 5.6,-3 1.3,4 M 786.7,209.2 787,209 h 0.7 l 0.4,0.1 0.5,0.4 0.6,1.1 v 0.6 l -0.1,0.4 -0.4,0.6 -0.5,0.3 h -0.7 l -1.1,-0.1 -4,-1.2 2,3.7 m 6.3,-1.5 1.6,2.9 -3,-0.4 0.5,0.8 v 0.6 l -0.1,0.4 -0.7,0.7 -0.5,0.3 -1,0.2 -0.8,-0.3 -0.7,-0.6 -0.4,-0.8 -0.1,-0.9 0.1,-0.4 0.4,-0.6 m 25,19.4 0.1,-0.3 0.4,-0.5 0.3,-0.3 0.6,-0.2 1.2,0.3 0.6,0.4 0.2,0.3 0.2,0.6 -0.1,0.6 -0.4,0.6 -0.7,0.8 -3.5,2.4 4.1,0.7 m 5.3,-5.5 -3.6,3.6 4.4,0.8 m -0.8,-4.4 -1,6.2 m 35.8,-12.7 v 0.3 l -0.4,0.6 -0.3,0.2 -0.6,0.3 -1.2,-0.1 -0.6,-0.4 -0.3,-0.3 -0.2,-0.6 v -0.6 l 0.4,-0.6 0.7,-0.8 3.3,-2.7 -4.2,-0.4 m -3.3,6 1,-0.2 0.3,-0.6 0.1,-0.6 -0.3,-0.6 -0.5,-0.4 -1.2,-0.4 -0.9,-0.4 -0.5,-0.6 -0.3,-0.7 0.1,-0.9 0.4,-0.5 0.3,-0.3 0.9,-0.2 1.2,0.1 0.9,0.4 0.3,0.3 0.2,0.6 -0.1,0.9 -0.3,0.6 -0.7,0.5 -0.9,0.3 -1.2,0.1 -0.7,0.3 -0.3,0.6 -0.1,0.6 0.3,0.6 0.8,0.4 1.4,0.1 m -22.8,51.2 0.1,-0.9 -0.5,-1 -1.1,-0.9 -0.8,-0.5 -1.5,-0.5 -1,0.1 -0.7,0.7 -0.3,0.5 -0.2,0.9 0.5,1 1.2,1 0.7,0.4 1.5,0.5 1.1,-0.1 0.7,-0.6 0.2,-0.4 m 50.3,5.6 0.2,-0.7 -0.2,-1.2 5,3.9 m -1.5,-7.2 -0.6,-0.2 -0.8,0.6 -0.4,0.4 -0.3,0.9 0.3,1.1 1,1.1 1.2,1 1.1,0.5 0.8,-0.1 0.8,-0.6 0.2,-0.2 0.3,-0.9 -0.1,-0.8 -0.5,-0.8 -0.2,-0.2 -0.9,-0.3 -0.8,0.1 -0.8,0.5 -0.2,0.2 -0.3,0.9 v 0.9 l 0.6,0.8 m -26.8,14.3 0.6,-0.3 0.7,-1 0.8,6.2 m 41.2,-51.8 -0.1,-0.6 -0.5,-1.2 5.9,2.1 m -5.2,-4.7 v 1 l 0.4,0.5 0.6,0.2 0.7,-0.1 0.5,-0.5 0.6,-1 0.6,-0.7 0.8,-0.4 0.7,-0.1 0.8,0.3 0.5,0.5 0.1,0.4 v 0.9 l -0.4,1.2 -0.6,0.7 -0.3,0.2 -0.7,0.1 -0.9,-0.3 -0.4,-0.5 -0.4,-0.8 v -0.9 l 0.2,-1.3 -0.1,-0.6 -0.5,-0.5 -0.5,-0.2 -0.7,0.1 -0.6,0.7 -0.5,1.3 m 9.4,-44.1 -2.3,2.3 -0.4,-3 -0.7,0.7 -0.6,0.2 h -0.4 l -0.9,-0.4 -0.4,-0.4 -0.4,-0.9 v -0.8 l 0.4,-0.9 0.6,-0.6 0.9,-0.5 h 0.4 l 0.6,0.3 m -1.4,8.6 0.4,-0.8 -0.2,-1.1 -0.8,-1.3 -0.7,-0.6 -1.2,-0.8 -1.1,-0.3 -0.8,0.5 -0.5,0.4 -0.4,0.8 0.2,1.1 0.9,1.3 0.6,0.6 1.3,0.9 1,0.2 0.9,-0.5 0.3,-0.3 m 21.8,3.7 -0.5,0.8 0.2,0.6 0.3,0.5 0.7,0.2 0.6,-0.1 1.1,-0.5 0.9,-0.4 0.9,0.1 0.6,0.3 0.5,0.7 0.2,0.6 v 0.5 l -0.6,0.8 -0.9,0.7 -0.9,0.4 -0.4,-0.1 -0.6,-0.3 -0.6,-0.6 -0.1,-0.7 0.1,-0.8 0.5,-0.9 0.7,-0.9 0.3,-0.7 -0.2,-0.6 -0.3,-0.5 -0.7,-0.2 -0.8,0.3 -1.1,0.8 m 16.2,27.6 0.1,-0.3 0.3,-0.6 0.3,-0.3 0.6,-0.2 h 1.2 l 0.6,0.4 0.3,0.3 0.3,0.6 -0.1,0.6 -0.3,0.6 -0.7,0.8 -3.2,2.8 4.2,0.3 m -9.1,-15.2 0.6,0.1 0.9,-0.4 0.4,-0.5 0.3,-0.8 -0.2,-1.1 -1,-1.2 -1.1,-1 -1.1,-0.6 -0.8,0.1 -0.9,0.5 -0.2,0.2 -0.3,0.9 v 0.8 l 0.5,0.8 0.2,0.2 0.9,0.4 0.8,-0.1 0.9,-0.4 0.2,-0.3 0.3,-0.8 v -0.9 l -0.5,-0.8 m 99.3,-2.1 4.5,2.6 -0.5,-4.5 m -4,1.9 6.3,-0.6 m -6.7,-3.8 0.4,0.8 1,0.5 1.5,0.2 0.9,-0.1 1.4,-0.4 0.9,-0.7 0.2,-1 -0.1,-0.5 -0.4,-0.9 -0.9,-0.5 -1.5,-0.2 -0.9,0.1 -1.5,0.5 -0.8,0.6 -0.3,1 0.1,0.4 m -7.7,-18.8 -2.9,-1.5 2.7,-1.3 -0.8,-0.4 -0.4,-0.6 -0.2,-0.4 0.2,-0.9 0.2,-0.5 0.7,-0.7 0.8,-0.3 1,0.2 0.8,0.4 0.6,0.7 0.2,0.4 v 0.6 m -8.5,1.5 1,0.1 0.5,-0.4 0.3,-0.5 v -0.7 l -0.4,-0.5 -0.9,-0.9 -0.7,-0.6 -0.3,-0.8 v -0.7 l 0.4,-0.8 0.6,-0.4 0.4,-0.1 0.9,0.1 1.1,0.5 0.7,0.7 0.1,0.4 v 0.7 l -0.4,0.8 -0.6,0.4 -0.8,0.3 -0.9,-0.2 -1.2,-0.3 h -0.7 l -0.5,0.4 -0.3,0.6 v 0.6 l 0.7,0.7 1.2,0.6 m 8,56.2 2.2,4.7 2.2,-4 m -4.4,-0.7 5.5,3.1 m -3.8,-5.9 1.6,-2.9 1.2,2.8 0.4,-0.8 0.6,-0.4 0.4,-0.1 0.9,0.2 0.5,0.3 0.7,0.7 0.2,0.8 -0.2,0.9 -0.4,0.8 -0.7,0.6 -0.4,0.1 h -0.7 m -33.1,14 -1.2,6.9 m -2.9,-5.7 4.1,-1.2 m -43.8,6.8 0.3,0.2 0.2,0.6 v 0.4 l -0.2,0.7 -0.9,0.8 -0.6,0.2 h -0.4 l -0.7,-0.2 -0.4,-0.4 -0.2,-0.6 -0.2,-1.1 -0.1,-4.2 -2.9,3 m -2.7,42 1.5,-3 1.3,2.7 0.4,-0.8 0.6,-0.4 0.4,-0.1 0.9,0.1 0.6,0.3 0.6,0.7 0.3,0.8 -0.1,0.9 -0.4,0.8 -0.7,0.7 -0.4,0.1 h -0.7 m -31.6,-6.5 -0.4,-0.8 -0.1,-0.8 0.4,-0.9 0.2,-0.2 0.8,-0.5 0.8,-0.1 0.9,0.4 0.2,0.2 0.5,0.8 0.1,0.8 -0.4,0.9 -0.2,0.2 -0.8,0.5 -0.8,0.1 -1.2,-0.6 -1.1,-1 -0.9,-1.2 -0.3,-1 0.3,-0.9 0.4,-0.4 0.9,-0.5 0.6,0.1 m 3.9,31.3 3.2,1 -2.4,1.7 0.8,0.3 0.5,0.5 0.2,0.3 v 1 l -0.2,0.5 -0.5,0.8 -0.8,0.4 h -0.9 l -0.9,-0.2 -0.8,-0.6 -0.2,-0.4 -0.1,-0.6 m 9.7,-2.4 -4.1,3.1 4.3,1.3 m -0.2,-4.4 -1.9,6 m -14.7,-21.8 1.2,3 -2.9,-0.7 0.4,0.8 -0.1,0.7 -0.2,0.3 -0.7,0.7 -0.6,0.2 H 910 l -0.8,-0.3 -0.6,-0.7 -0.3,-0.8 -0.1,-1 0.2,-0.4 0.4,-0.5 m 5.6,4.1 0.2,-0.1 0.7,0.1 0.4,0.1 0.5,0.5 0.4,1.1 v 0.6 l -0.2,0.4 -0.4,0.5 -0.6,0.3 -0.7,-0.1 -1,-0.2 -3.9,-1.7 1.6,3.9 m -149.1,-80.8 -0.2,-0.2 -0.2,-0.7 v -0.4 l 0.2,-0.6 0.8,-0.9 0.6,-0.2 h 0.5 l 0.6,0.2 0.4,0.4 0.2,0.6 0.3,1.1 0.1,4.2 2.9,-3 m -2.8,-4.2 0.2,-0.6 v -1.3 l 4.5,4.4 m -31.8,-11.9 0.2,-0.2 0.6,-0.2 h 0.5 l 0.6,0.1 0.9,0.9 0.2,0.6 v 0.4 l -0.1,0.6 -0.5,0.5 -0.6,0.2 -1,0.3 -4.3,0.2 3.1,2.8 m 4.5,-2.4 0.2,-0.2 0.6,-0.3 h 0.4 l 0.7,0.2 0.9,0.8 0.2,0.6 v 0.5 l -0.2,0.6 -0.4,0.5 -0.6,0.2 -1,0.3 -4.3,0.1 3.1,2.9 M 592.8,201 l -1.9,2.7 -0.9,-2.9 -0.5,0.7 -0.6,0.4 h -0.5 l -0.9,-0.3 -0.4,-0.3 -0.6,-0.8 -0.1,-0.8 0.2,-0.9 0.6,-0.8 0.7,-0.5 0.5,-0.1 0.6,0.1 m -1.1,10.3 1.8,-2.5 -2,-1.8 v 0.4 l -0.2,0.9 -0.6,0.8 -0.7,0.5 -0.9,0.1 -0.9,-0.2 -0.5,-0.4 -0.5,-0.8 -0.2,-0.8 0.3,-0.9 0.5,-0.7 0.8,-0.6 0.4,-0.1 0.7,0.2 m 41,75.3 0.4,-0.5 0.4,-1.2 2.8,5.6 m -7,-18.5 -0.6,-0.2 -1.3,-0.1 4.8,-4.1 m -6.9,2 0.8,0.5 1.1,-0.2 1.3,-0.7 0.7,-0.6 1,-1.2 0.3,-1 -0.4,-0.9 -0.4,-0.5 -0.8,-0.5 -1.1,0.2 -1.3,0.7 -0.7,0.6 -0.9,1.2 -0.3,1 0.3,0.9 0.3,0.4 m -44.2,-16.8 -3.8,-3.5 -0.6,4.5 m 4.4,-1 -6.3,-0.8 m 5.5,6.6 -3.8,-3.6 -0.6,4.5 m 4.4,-0.9 -6.2,-0.9 m 11.4,50.8 0.5,0.5 1.1,0.6 -6,2 m 7.9,2.8 -7,-0.8 m 5.6,-3.1 1.4,3.9 m 32.6,11.5 -0.4,-0.5 -1,-0.8 6.2,-1.1 m -6.4,-3.7 -0.5,0.4 -0.1,1 0.1,0.6 0.4,0.8 1,0.4 1.5,0.1 1.5,-0.3 1.1,-0.5 0.5,-0.7 0.2,-1 -0.1,-0.3 -0.4,-0.8 -0.7,-0.5 -1,-0.1 h -0.3 l -0.8,0.5 -0.5,0.7 -0.1,0.9 v 0.3 l 0.5,0.9 0.7,0.4 0.9,0.2 m 19.6,41.2 -0.6,-0.2 h -1.3 l 4.4,-4.6 m -6.4,2.9 0.8,0.4 0.6,-0.2 0.5,-0.4 0.2,-0.7 -0.3,-0.6 -0.6,-1.1 -0.5,-0.8 v -0.9 l 0.2,-0.6 0.6,-0.6 0.7,-0.3 h 0.4 l 0.8,0.4 0.9,0.9 0.4,0.8 0.1,0.4 -0.2,0.7 -0.7,0.6 -0.6,0.2 -0.8,0.1 -0.9,-0.4 -1.1,-0.7 -0.6,-0.2 -0.6,0.3 -0.5,0.4 -0.2,0.6 0.5,0.9 1,0.9 m 21.9,33.2 0.7,0.7 h 0.6 l 0.6,-0.2 0.4,-0.5 v -0.7 l -0.2,-1.2 -0.1,-1 0.4,-0.7 0.4,-0.6 0.8,-0.3 h 0.7 l 0.4,0.2 0.6,0.7 0.5,1.1 0.1,0.9 -0.2,0.4 -0.4,0.5 -0.8,0.4 -0.7,-0.1 -0.8,-0.3 -0.6,-0.7 -0.8,-0.9 -0.5,-0.5 h -0.7 l -0.5,0.2 -0.4,0.6 v 0.9 l 0.6,1.2 m -10.4,11.3 -0.3,-0.6 -0.9,-0.3 -0.6,0.1 -0.9,0.3 -0.6,0.9 -0.2,1.5 0.1,1.5 0.3,1.2 0.7,0.6 0.9,0.2 h 0.3 l 0.9,-0.3 0.5,-0.6 0.3,-1 v -0.3 l -0.4,-0.8 -0.6,-0.6 -0.9,-0.3 -0.3,0.1 -0.9,0.3 -0.6,0.6 -0.2,0.9 m -25,-12.8 h -1 l -0.8,-0.3 -0.5,-0.8 -0.1,-0.3 v -0.9 l 0.3,-0.8 0.8,-0.6 0.3,-0.1 h 0.9 l 0.8,0.4 0.6,0.8 0.1,0.2 v 1 l -0.4,0.8 -1,0.6 -1.5,0.5 -1.5,0.2 -1,-0.3 -0.6,-0.7 -0.2,-0.6 v -0.9 l 0.5,-0.5 m -26.5,-18.9 3.2,-0.7 -1.2,2.7 0.9,-0.2 0.6,0.2 0.4,0.2 0.5,0.8 0.1,0.6 -0.1,1 -0.4,0.7 -0.9,0.5 -0.8,0.2 -1,-0.1 -0.3,-0.2 -0.5,-0.6 m 4.9,-4.8 v -0.3 l 0.1,-0.6 0.3,-0.4 0.5,-0.4 1.2,-0.3 0.6,0.2 0.4,0.2 0.4,0.5 0.1,0.6 -0.1,0.7 -0.4,1 -2.3,3.6 4.1,-1 m -4.6,-16.8 -0.4,3.3 -2.2,-2.1 -0.1,0.9 -0.4,0.5 -0.3,0.3 -0.9,0.2 -0.6,-0.1 -0.9,-0.4 -0.5,-0.7 -0.2,-0.9 0.1,-0.9 0.4,-0.9 0.4,-0.2 0.6,-0.3 m 4.3,6.6 -0.4,3.3 -2.2,-2.1 -0.1,0.9 -0.4,0.5 -0.3,0.3 -0.9,0.2 -0.6,-0.1 -0.9,-0.4 -0.5,-0.7 -0.2,-0.9 0.1,-0.9 0.4,-0.9 0.4,-0.3 0.6,-0.2 m 51.9,-138.1 -0.3,-3.3 2.6,1.6 -0.1,-0.9 0.2,-0.6 0.3,-0.3 0.9,-0.4 h 0.6 l 0.9,0.2 0.7,0.5 0.3,0.9 0.1,0.9 -0.2,0.9 -0.3,0.3 -0.6,0.4 m -5.8,-8.9 6.5,2.4 m -6.2,1.7 -0.3,-4.1 m -12,18.1 3.2,0.6 -2.2,2 0.9,0.2 0.5,0.4 0.2,0.4 0.1,0.9 -0.1,0.6 -0.5,0.8 -0.7,0.5 -0.9,0.1 -0.9,-0.2 -0.8,-0.5 -0.2,-0.3 -0.2,-0.7 m 9.6,-2.3 -0.2,-0.6 -0.8,-0.5 -0.6,-0.1 -0.9,0.1 -0.8,0.8 -0.6,1.4 -0.3,1.4 0.1,1.3 0.4,0.7 0.9,0.5 h 0.2 l 1,-0.1 0.7,-0.5 0.5,-0.8 v -0.3 l -0.1,-0.9 -0.4,-0.7 -0.9,-0.5 -0.3,-0.1 -0.9,0.1 -0.7,0.5 -0.5,0.8 m 75.7,28.4 -0.3,-0.1 -0.5,-0.4 -0.3,-0.3 -0.2,-0.7 0.2,-1.2 0.4,-0.5 0.4,-0.2 0.6,-0.2 0.6,0.1 0.6,0.4 0.7,0.7 2.5,3.5 0.7,-4.2 m -4.4,-2.4 -0.3,-0.1 -0.6,-0.4 -0.2,-0.3 -0.2,-0.7 0.2,-1.1 0.4,-0.6 0.3,-0.2 0.7,-0.2 0.6,0.1 0.5,0.4 0.8,0.7 2.4,3.5 0.8,-4.1 m -30.7,40.7 0.3,0.5 1,0.9 -6.3,0.4 m 5.2,0.7 0.3,0.6 1,0.8 -6.3,0.5 m 53.2,-2.4 v 0.3 l -0.4,0.5 -0.3,0.3 -0.7,0.2 -1.2,-0.2 -0.5,-0.4 -0.3,-0.4 -0.1,-0.6 0.1,-0.6 0.3,-0.6 0.8,-0.7 3.4,-2.5 -4.1,-0.7 m -1.9,4.6 -0.6,0.2 -1,0.8 1,-6.2 m -12.1,34.3 -0.9,0.3 -0.6,0.9 -0.2,1.5 v 0.9 l 0.4,1.5 0.6,0.9 0.9,0.3 0.6,-0.1 0.9,-0.3 0.6,-0.9 0.2,-1.5 v -0.9 l -0.4,-1.5 -0.6,-0.9 -0.9,-0.3 -0.5,0.1 m 28,-7.1 h -0.3 l -0.6,-0.2 -0.4,-0.2 -0.4,-0.6 -0.1,-1.2 0.2,-0.6 0.3,-0.4 0.5,-0.3 0.6,-0.1 0.7,0.2 0.9,0.5 3.4,2.6 -0.5,-4.2 m -6.9,-3.4 4.6,2.4 -0.6,-4.4 m -4,2 6.3,-0.8 m 85.8,18.2 0.6,0.2 h 1.3 l -4.5,4.4 m 4.4,-2.8 0.6,0.2 h 1.3 l -4.5,4.4 m 32.3,10.5 2.7,-1.8 -0.1,3 0.7,-0.5 0.7,-0.1 0.4,0.1 0.8,0.5 0.3,0.5 0.2,1 -0.1,0.8 -0.6,0.7 -0.7,0.5 -1,0.3 -0.4,-0.1 -0.6,-0.3 m 5.1,-8.5 -0.6,-0.3 -0.9,0.2 -0.5,0.4 -0.5,0.7 v 1.1 l 0.5,1.4 0.9,1.2 0.9,0.9 0.8,0.1 0.9,-0.2 0.3,-0.2 0.6,-0.7 0.1,-0.9 -0.2,-0.9 -0.2,-0.2 -0.7,-0.6 -0.9,-0.2 -0.9,0.3 -0.2,0.2 -0.6,0.7 -0.2,0.8 0.3,0.9 m -4.7,-14.7 -0.7,-0.1 -1.2,0.3 3.3,-5.4 m -5.9,4 0.9,0.2 1,-0.4 1,-1.1 0.5,-0.8 0.5,-1.4 v -1.1 l -0.6,-0.7 -0.5,-0.4 -0.9,-0.2 -1,0.5 -1.1,1.1 -0.5,0.8 -0.5,1.4 v 1.1 l 0.7,0.7 0.3,0.2 m 64.1,-204.7 0.2,0.2 0.2,0.6 0.1,0.4 -0.2,0.7 -0.8,0.9 -0.6,0.2 H 920 l -0.7,-0.1 -0.4,-0.4 -0.3,-0.6 -0.3,-1.1 -0.3,-4.2 -2.7,3.2 m 2.8,6.3 0.3,-0.9 -0.2,-1 -1,-1.2 -0.6,-0.6 -1.4,-0.8 -1.1,-0.1 -0.8,0.5 -0.4,0.4 -0.3,0.9 0.3,1.1 0.9,1.2 0.7,0.6 1.3,0.7 1.1,0.2 0.8,-0.5 0.3,-0.4 m -26.6,21.3 -2.9,1.6 0.4,-2.9 -0.8,0.4 h -0.7 l -0.4,-0.1 -0.7,-0.6 -0.3,-0.5 -0.2,-0.9 0.2,-0.9 0.7,-0.7 0.8,-0.4 0.9,-0.2 0.4,0.1 0.6,0.4 m -2.8,5.8 -0.3,0.6 -0.4,1.2 -3.1,-5.5 m -13.1,26.3 h 0.3 l 0.6,0.3 0.3,0.4 0.2,0.6 -0.1,1.2 -0.3,0.5 -0.3,0.3 -0.7,0.3 -0.6,-0.1 -0.5,-0.3 -0.9,-0.7 -2.8,-3.2 -0.3,4.2 m 3.9,5.4 -0.9,-0.4 -0.6,-0.7 -0.2,-0.9 v -0.3 l 0.4,-0.8 0.6,-0.6 0.9,-0.2 h 0.3 l 0.9,0.3 0.6,0.7 0.2,0.9 v 0.3 l -0.4,0.9 -0.6,0.5 -1.2,0.3 -1.5,-0.2 -1.5,-0.4 -0.9,-0.6 -0.2,-0.9 V 182 l 0.4,-0.9 0.6,-0.3 m 16.3,4.7 3.1,-1.2 -0.9,2.9 0.9,-0.3 0.6,0.1 0.4,0.2 0.6,0.7 0.2,0.6 0.1,0.9 -0.4,0.8 -0.7,0.6 -0.9,0.3 h -0.9 l -0.4,-0.2 -0.5,-0.4 m 4.9,-7.3 -0.7,0.6 -0.3,1.1 0.3,1.5 0.3,0.8 0.8,1.3 0.9,0.6 h 0.9 l 0.6,-0.2 0.7,-0.6 0.3,-1.1 -0.3,-1.5 -0.3,-0.8 -0.8,-1.3 -0.9,-0.6 h -0.9 l -0.5,0.2 m 77.2,-80.7 4.9,-1.7 -3.7,-2.6 m -1.2,4.3 3.6,-5.1 m -24,-0.8 0.2,0.2 0.3,0.6 v 0.4 l -0.1,0.7 -0.8,0.9 -0.6,0.3 h -0.4 l -0.7,-0.1 -0.4,-0.4 -0.3,-0.6 -0.3,-1 -0.5,-4.3 -2.6,3.3 m 1.9,7.6 1.9,-2.3 -1.9,-1.9 v 0.4 l -0.3,0.9 -0.6,0.7 -0.8,0.5 -0.8,0.1 -0.9,-0.4 -0.5,-0.3 -0.5,-0.8 -0.1,-0.9 0.4,-0.9 0.5,-0.7 0.8,-0.5 h 0.4 l 0.7,0.1 m 81.2,70.6 2.9,-1.5 -0.5,3 0.8,-0.4 h 0.7 l 0.4,0.1 0.6,0.7 0.3,0.5 0.1,1 -0.2,0.8 -0.7,0.6 -0.8,0.4 -0.9,0.2 -0.4,-0.2 -0.6,-0.4 m 7,-6.8 0.1,1 -0.3,0.8 -0.7,0.6 -0.2,0.2 -1,0.1 -0.8,-0.3 -0.6,-0.6 -0.2,-0.3 -0.1,-0.9 0.3,-0.8 0.6,-0.7 0.3,-0.2 0.9,-0.1 0.8,0.3 0.9,0.9 0.6,1.4 0.4,1.4 -0.1,1.1 -0.7,0.7 -0.5,0.3 -1,0.1 -0.5,-0.4 m -18.4,-53.4 2.6,-4.5 -4.4,0.4 m 1.8,4.1 -0.5,-6.3 m -2.8,5 0.1,0.3 -0.3,0.6 -0.3,0.4 -0.5,0.3 -1.2,0.1 -0.6,-0.2 -0.4,-0.3 -0.3,-0.6 -0.1,-0.6 0.3,-0.6 0.5,-0.9 2.7,-3.3 -4.2,0.4 m 25.4,30.4 5.1,0.8 -2,-4 m -3.1,3.2 5.7,-2.8 m -5.5,-0.2 -0.5,-0.4 -1.2,-0.4 5.6,-2.8"
       id="nums_002"
       stroke="#000000"
       stroke-width="1" />
    <path
       d="m 698.8,394.6 -10.1,-24.4 54.2,-20.1 22.1,-18.1 25.3,12.7 22.6,40.3 19.5,-11.5 0.2,57.9 0.5,29.4 21.7,11.5 -2.8,-24.4 5.2,-21.4 18.8,-20.5 10.2,14.5 -5.9,-16.7 9.3,-26.3 -18,-12.7 25.9,-13.9 56.3,13.7 28.8,4.7 -13.4,28.3 25.6,3.8 24.9,33.5 -12.6,20.8 -42,-11.1 -50.3,-18.8 26.1,46.9 43,6 33.7,21 -9.6,56.5 17.7,25.4 0.2,27 -33,-6.8 -8.1,32.6 -5.8,21.7 34.2,0.6 18.1,36 -38.3,6.8 -29.3,2.5 -84.1,17.4 11.4,-81.4 1.9,-50.5 -30,0.1 1.2,30 -48.8,13 -20.4,-46.4 -48.4,-4.8 2.1,48.6 -44.4,24.7 -19.4,-79.8 -62.5,58.8 -10.8,27.3 -36.1,14.8 -17.6,-18 11.7,-43.5 38.8,2.3 12.8,-40.8 -42.6,-4.4 -4.8,-38.6 30.4,-3.4 20.6,-3 -21.4,-33.9 2.4,-38.9 37.1,0.6 11.2,-26.3 41.2,-10.3 -6.7,27.4 26.8,10 54.6,18.8 17.8,-19.7 14.9,-24.6 -25.3,13.7 -35.5,-11.2 6.6,-15 -15.1,-6.5 z m 187.1,-57.3 -34,22.9 -52,-52.1 34.6,-62.4 -39.4,-6.9 -23.9,-44.2 11.8,48.8 -24.9,25.9 -40.9,-37.7 -9.6,54.8 35.4,6 5.1,39.8 -71.4,2.4 -5.5,-73.5 -17.1,-53.1 39.5,-33 -50.1,11.9 4.9,55.5 -40.3,-8.3 36.1,42.2 -26.4,13 8,44.4 27.5,26.2 19.2,43.4 -55.9,2.7 -11.9,-35 -24.1,5.5 5,-38 -22.6,-67.3 7.2,-53 26.5,-36.6 -14.8,-16 -14.4,-29.8 25.9,-59.6 -21.6,-50.3 34,0.3 41.4,17.6 6.9,62.1 -41.9,2.8 38.8,16.1 27.2,-0.2 45,27.1 35.3,-17.6 32.5,4.2 30.6,31.8 41,15.5 -37.6,33 49.8,4.7 41.9,-42.1 -55.6,20.9 3.1,-43.8 38.2,-22.1 21.5,-24.7 24.9,-30.7 42.8,30.3 27.2,-2.4 27.6,56.1 -37.4,18.7 28.5,14.6 4.4,44.4 -14.4,25.9 -55.8,15.6 -34.2,67.9 -25,-7.8 -9.2,-22.9 24.2,-28.1 42.7,-43.5 -60.9,-3.9 37,-41.8 -36.7,30 -12.8,35.7 -28.1,35.4 -29.55,3.25 z"
       id="coupes_002"
       stroke="#ff0000"
       stroke-width="1.27"
       sodipodi:nodetypes="cccccccccccccccccccccccccccccccccccccccccccccccccccccccccccccccccccccccccccccccccccccccccccccccccccccccccccccccccccccccccccccccccccccccccccccccccccccc" />
    <path
       d="M 963.7,702 979,656.1 m -88,-18.1 88,18.1 m -86.1,-68.6 91.9,46.9 m -91.9,-46.9 100,14.3 m -9,-123.1 9,123.1 m 15.1,-45.6 -15.1,45.6 m -9,-123.1 24.1,77.5 m 17.7,25.4 -32.8,20.2 m -138.1,-129.5 86.1,0.4 m -78,114.9 -8.1,-115.3 m 8.1,115.3 -68,-3.4 m 0,0 59.9,-111.9 m -59.9,111.9 38.2,-123.4 m -86.6,118.6 86.6,-118.6 m -86.6,118.6 23.4,-107.6 m 17.8,-19.7 45.4,8.7 m -30.5,-33.3 30,3.9 m -30,-3.9 29.8,-54 m -29.8,54 -54.2,-12.5 m 0,0 41.9,-70.3 m 61.7,103.2 34.2,-27.4 m 0,0 54.7,52.2 m -54.7,-52.2 28.6,5.3 M 748.4,415 765,332 M 733.3,408.5 765,332 m -31.7,76.5 9.6,-58.4 m -31.6,154.3 58.6,-32.6 m -23.4,107.6 -61.7,-6.5 m 63.8,55.1 -63.8,-55.1 m 0,0 -60.1,-48.5 m 0,0 18.1,-72.2 m 0,0 45.7,-9.2 M 654,425.9 688.5,443 m 191.8,-39.2 34.5,22 m -34.5,-22 88.9,-6.2 m -79.6,-20.1 7.9,-26.6 m 122.2,84 -104.9,-9.1 m -50.7,191.8 -69.2,-33.4 m -173.8,-10.4 3.6,-49.4 m 60.1,48.5 -63.7,0.9 m 0,0 -47.4,-43 m 48.6,100.9 -1.2,-57.9 m 1.2,57.9 -52.8,-19.4 m 52.8,19.4 -64.5,24.1 M 777.3,441.2 748.4,415 m -31.2,-183.4 54,-37 m 11.8,48.8 -65.8,-11.8 m 6,-79.9 48,42.9 m -54,37 6,-79.9 m -29.6,23.3 29.6,-23.3 m -6,79.9 -23.6,-56.6 m 0,0 -15.4,-50.4 m 39,107 -63.1,-23.6 m 104.4,-73.9 12.7,60.5 m 19.8,-56.3 -19.8,56.3 m 50.4,-24.5 -50.4,24.5 m 53.8,24 -53.8,-24 m 50.4,-24.5 3.4,48.5 M 643.5,186.9 651,124.8 m -7.5,62.1 -46.8,-5.3 m -14.8,-16 69.1,-40.8 m -69.1,40.8 30.3,-56.9 m -44.7,27.1 44.7,-27.1 m -18.8,-32.5 18.8,32.5 m -18.8,-32.5 60.7,29.7 M 593.4,76.2 647.2,43.8 m -53.8,32.4 12.4,-50 m 111.4,205.4 -46,29.5 M 825,218.6 795.1,238.8 m 29.9,-20.2 9.5,27.1 m 40.3,-22.4 -13.2,33.8 m 0,0 -27.1,-11.4 m 40.3,-22.4 22,46.3 m 0,0 -35.2,-12.5 m 0,0 -61.7,51 m 38.9,0 h -38.9 m 68.8,-3.1 -7.1,-47.9 m 13.2,-33.8 34.8,10.6 m 7.1,-52.7 -7.1,52.7 m 7.1,-52.7 29.6,22.7 m -29.6,-22.7 92.3,2.3 m 0,0 -38.8,66.1 m 0,0 -23.9,-45.7 m 62.7,-20.4 32.9,59 m 0,0 -71.7,7.1 m 57.3,18.8 -57.3,-18.8 m 1.5,34.4 -1.5,-34.4 m 1.5,34.4 -44.2,9.1 m 10,58.8 -10,-58.8 m -319.4,-59 -37.9,-15.9 m 47.6,71.1 -54.8,-18.1 m 54.8,18.1 -32.2,49.2 m 40.2,-4.8 -40.2,4.8 m 40.2,-4.8 -21.1,37.3 m 48.6,-11.1 -48.6,11.1 m 102.9,-84.6 -30.9,48.2 m 66.3,-42.2 -66.3,42.2 m 247.2,-223.1 85.1,72 m -92.3,-2.3 -14.3,-45 m 14.3,45 -52.5,-22.9 m 59.7,-46.8 67.7,-0.4 m 0,0 54.8,53.7"
       id="plisM_002"
       stroke="#a52a2a"
       stroke-dasharray="4" />
    <path
       d="M 1031.3,692.7 979,656.1 m 14,43.4 -14,-43.4 m -99.4,63.3 99.4,-63.3 m -88,-18.1 93.8,-3.6 m -91.9,-46.9 48,-114.8 m 0,0 52,129.1 m -100,-14.3 -38.1,-115.2 m -2.8,-24.4 88.9,24.8 m -171,-0.9 63.2,-11 m -45.4,-8.7 44.9,-20.7 m -30,-3.9 10.3,-42.5 m -64.5,30 64.5,-30 m 44.3,41.5 29,-6 m -187.4,-25.9 44.1,-44.5 m 3.6,229.3 -35.2,-75 m -26.5,68.5 26.5,-68.5 m -86.6,20 86.6,-20 m 0,0 4,-51.4 m -72.5,-0.8 68.5,52.2 m -108,-13.9 39.5,-38.3 m 0,0 72.5,0.8 m 253.9,-55.4 -54.4,28.2 m -25.2,-48.3 79.6,20.1 m -15.4,-33 15.4,33 m -79.6,-20.1 64.2,-12.9 m 15.4,33 50.5,37.3 m 0,0 -54.6,9.7 m -344,129.2 -17,-46.4 m 18.2,104.3 -14,-17.1 m 14,17.1 -46.9,42.1 m 68.1,-486.9 34.7,-62.3 m -81.5,57 54.3,-56.8 m 223.8,98.5 -40.3,22.4 m 27.1,11.4 -22.8,51 M 1009,183.5 946.3,203.9 m -8.8,148 -34.2,-30.7 M 643.5,186.9 608.1,234.1 m 0,0 -11.4,-52.5 m 21.1,107.7 -47.6,-71.1 m 37.9,15.9 9.7,55.2 M 604.7,371 585.6,338.5 m 86.9,64.8 -67.8,-32.3 m 102.9,-84.6 -36.4,-25.3 m 167.6,47 13.1,52.1 m 64.8,-179 7.2,-69.7 m 67.7,-0.4 17.4,72.4"
       id="plisV_002"
       stroke="#008000"
       stroke-dasharray="4, 1, 1, 1"
       stroke-width="1.27" />
    <path
       d="m 1003.1,672.4 4,4 m 0,-4 -4,4 m -19.1,-0.6 4,4 m 0,-4 -4,4 m -56.7,5.9 4,4 m 0,-4 -4,4 m 8.6,-55.5 4,4 m 0,-4 -4,4 m -21,-110.1 4,4 m 0,-4 -4,4 m 50,3.1 4,4 m 0,-4 -4,4 m -93.1,-11.3 4,4 m 0,-4 -4,4 m 22.6,-73.6 4,4 m 0,-4 -4,4 m -94.9,2 4,4 m 0,-4 -4,4 m 8.6,-28.5 4,4 m 0,-4 -4,4 m -2.4,-39.6 4,4 m 0,-4 -4,4 m -27.1,-10.2 4,4 m 0,-4 -4,4 m 91.1,19.5 4,4 m 0,-4 -4,4 m -150.8,-55.2 4,4 m 0,-4 -4,4 m 8,165.6 4,4 m 0,-4 -4,4 m -30.9,-7.3 4,4 m 0,-4 -4,4 m -30,-28.2 4,4 m 0,-4 -4,4 m 45.3,-39.7 4,4 m 0,-4 -4,4 m -36.2,-4.4 4,4 m 0,-4 -4,4 m -54,-11 4,4 m 0,-4 -4,4 m 55.9,-22.7 4,4 m 0,-4 -4,4 m 263,-44.9 4,4 m 0,-4 -4,4 m -12.6,-28.1 4,4 m 0,-4 -4,4 m 32.1,-10.5 4,4 m 0,-4 -4,4 m -39.8,-14.1 4,4 m 0,-4 -4,4 m 72.8,41.2 4,4 m 0,-4 -4,4 m -2.1,19.5 4,4 m 0,-4 -4,4 m -379.8,106.9 4,4 m 0,-4 -4,4 m 2.7,68.6 4,4 m 0,-4 -4,4 m -16.5,25.5 4,4 m 0,-4 -4,4 m 62.1,-501 4,4 m 0,-4 -4,4 m -37.1,-6.5 4,4 m 0,-4 -4,4 m 230.8,77.3 4,4 m 0,-4 -4,4 m -4.4,44.1 4,4 m 0,-4 -4,4 m 127.4,-92.9 4,4 m 0,-4 -4,4 m -57.2,138.8 4,4 m 0,-4 -4,4 m -294.6,-130 4,4 m 0,-4 -4,4 m -23.4,-6.6 4,4 m 0,-4 -4,4 m -8.4,41.9 4,4 m 0,-4 -4,4 m 19,3.9 4,4 m 0,-4 -4,4 m -17.9,89 4,4 m 0,-4 -4,4 m 43.5,28.4 4,4 m 0,-4 -4,4 m 50.8,-117.3 4,4 m 0,-4 -4,4 m 156,56.4 4,4 m 0,-4 -4,4 m 74.9,-191.9 4,4 m 0,-4 -4,4 m 80,-3 4,4 m 0,-4 -4,4"
       id="marqueV_002"
       stroke="#008000" />
    <path
       d="m 823.5,493.4 h 8.2 l -4.5,6 h 2.3 l 1.5,0.7 0.7,0.8 0.8,2.2 v 1.5 l -0.8,2.3 -1.5,1.5 -2.2,0.7 h -2.3 l -2.2,-0.7 -0.8,-0.8 -0.7,-1.5"
       id="titre_3"
       stroke="#4b0082" />
    <path
       d="m 800.14341,210.17364 -7.5,10.5 h 11.3 m -3.8,-10.5 v 15.7"
       id="titre_4"
       stroke="#4b0082" />
  </g>
</svg>
