<?xml version="1.0" encoding="UTF-8" standalone="no"?>
<svg
   height="841.88977pt"
   viewBox="0 0 532.99998 754.00001"
   width="595.27557pt"
   version="1.1"
   id="svg1"
   sodipodi:docname="moai130_H20_lang_A3x3.svg"
   inkscape:version="1.3 (0e150ed6c4, 2023-07-21)"
   xmlns:inkscape="http://www.inkscape.org/namespaces/inkscape"
   xmlns:sodipodi="http://sodipodi.sourceforge.net/DTD/sodipodi-0.dtd"
   xmlns="http://www.w3.org/2000/svg"
   xmlns:svg="http://www.w3.org/2000/svg">
  <defs
     id="defs1" />
  <sodipodi:namedview
     id="namedview1"
     pagecolor="#ffffff"
     bordercolor="#000000"
     borderopacity="0.25"
     inkscape:showpageshadow="2"
     inkscape:pageopacity="0.0"
     inkscape:pagecheckerboard="0"
     inkscape:deskcolor="#d1d1d1"
     inkscape:document-units="cm"
     showgrid="false"
     inkscape:zoom="0.52189027"
     inkscape:cx="1192.7795"
     inkscape:cy="510.64374"
     inkscape:window-width="1920"
     inkscape:window-height="1057"
     inkscape:window-x="-8"
     inkscape:window-y="-8"
     inkscape:window-maximized="1"
     inkscape:current-layer="svg1" />
  <style
     type="text/css"
     id="style1"><![CDATA[
			path {
				fill: none;
				stroke-width: 0.15mm;
			}
		]]></style>
  <g
     id="page_001">
    <path
       d="m 128.8,131.2 -5.2,-0.6 2.3,4 m 2.9,-3.4 -5.5,3.1 m 8.5,2.3 -1.5,-2.6 -2.5,1.1 0.4,0.1 0.7,0.6 0.5,0.8 0.2,0.9 -0.3,0.9 -0.6,0.7 -0.5,0.3 -0.9,0.2 -0.9,-0.3 -0.7,-0.6 -0.4,-0.8 -0.2,-0.9 0.1,-0.4 0.4,-0.6 m 43.9,13.1 -0.3,5.2 3.8,-2.4 m -3.5,-2.8 3.3,5.4 m 2.5,-7.9 -0.6,-0.3 -0.9,0.2 -0.5,0.3 -0.6,0.7 v 1.1 l 0.5,1.5 0.8,1.2 0.9,0.9 0.8,0.2 0.9,-0.2 0.3,-0.2 0.6,-0.7 0.2,-0.8 -0.2,-1 -0.2,-0.2 -0.7,-0.6 -0.8,-0.2 -1,0.2 -0.2,0.2 -0.6,0.7 -0.2,0.8 0.2,0.9 m -17.4,-106.6 2.1,-4.7 -4.4,0.8 m 2.3,3.9 -1.3,-6.2 m -3.1,7 0.8,-0.5 0.4,-1 v -1.5 l -0.2,-0.9 -0.6,-1.4 -0.7,-0.8 -1,-0.1 -0.5,0.1 -0.9,0.5 -0.4,1 v 1.5 l 0.2,0.9 0.6,1.4 0.7,0.8 1,0.1 0.4,-0.1 m 157.7,-13.1 0.1,0.3 -0.3,0.6 -0.3,0.4 -0.6,0.3 h -1.2 l -0.6,-0.3 -0.3,-0.3 -0.3,-0.5 -0.1,-0.6 0.3,-0.7 0.6,-0.9 2.9,-3.1 -4.2,0.2 m -4.5,6.4 3,-0.1 0.2,-2.7 -0.3,0.3 -0.9,0.4 h -0.9 l -0.9,-0.3 -0.6,-0.6 -0.4,-0.9 v -0.6 l 0.3,-0.9 0.6,-0.6 0.9,-0.3 h 0.9 l 0.9,0.2 0.3,0.3 0.3,0.6 m -87.1,159.9 v 3.3 l -2.4,-1.7 v 0.9 l -0.3,0.6 -0.3,0.3 -0.9,0.3 H 213 l -0.9,-0.2 -0.6,-0.6 -0.3,-0.9 V 190 l 0.3,-0.9 0.3,-0.3 0.6,-0.3 m 4.4,8.8 0.5,-0.3 0.3,-0.9 v -0.6 l -0.3,-0.9 -0.9,-0.6 -1.5,-0.2 h -1.5 l -1.2,0.3 -0.6,0.6 -0.3,0.9 v 0.3 l 0.3,0.9 0.7,0.6 0.9,0.3 h 0.3 l 0.9,-0.3 0.5,-0.6 0.3,-1 v -0.3 l -0.3,-0.8 -0.6,-0.6 -0.9,-0.3 m 106.6,-16.7 -0.5,-0.4 -1.2,-0.5 5.7,-2.6 m -7,0.3 0.6,0.7 h 0.7 l 0.5,-0.2 0.5,-0.5 v -0.7 l -0.2,-1.2 -0.1,-1 0.3,-0.8 0.4,-0.5 0.8,-0.4 0.7,0.1 0.4,0.1 0.6,0.7 0.5,1.1 0.1,0.9 -0.1,0.4 -0.5,0.6 -0.8,0.3 h -0.6 l -0.8,-0.3 -0.7,-0.7 -0.8,-0.9 -0.5,-0.5 h -0.7 l -0.5,0.3 -0.4,0.5 0.1,0.9 0.5,1.3 m 13.8,72.1 -0.3,-0.6 -0.9,-0.8 6.3,-0.2 m -6.7,-4.1 4.3,2.9 -0.2,-4.5 m -4.1,1.6 6.3,-0.2 m 5.5,133.6 0.1,-0.7 -0.3,-1.2 5.4,3.3 m -2.4,-7 h -0.6 l -0.8,0.6 -0.3,0.5 -0.2,0.9 0.5,1 1.1,1 1.3,0.8 1.2,0.4 0.8,-0.2 0.7,-0.6 0.2,-0.3 0.2,-0.9 -0.2,-0.8 -0.6,-0.8 -0.3,-0.1 -0.9,-0.2 -0.8,0.2 -0.8,0.6 -0.1,0.2 -0.2,1 0.2,0.8 0.6,0.7 m 3.8,-54.6 1.6,2.5 2.4,-1.2 -0.4,-0.1 -0.7,-0.6 -0.5,-0.7 -0.2,-0.9 0.2,-0.9 0.6,-0.7 0.5,-0.3 0.9,-0.2 0.8,0.1 0.8,0.6 0.4,0.8 0.3,0.9 -0.1,0.4 -0.4,0.6 m -9.3,-5.2 6.9,-0.8 m -4.7,4.3 -2.2,-3.5 m -159.1,37.7 -4,-3.3 -0.3,4.5 m 4.3,-1.2 -6.3,-0.4 m 6,6.1 -4,-3.2 -0.3,4.5 m 4.3,-1.3 -6.3,-0.3 m 14.6,63.3 1.3,3.1 -2.9,-0.7 0.4,0.8 -0.1,0.7 -0.1,0.4 -0.7,0.6 -0.6,0.3 h -0.9 l -0.8,-0.3 -0.6,-0.7 -0.4,-0.8 -0.1,-0.9 0.2,-0.4 0.4,-0.5 m 8.3,6.1 -1.2,-2.8 -2.6,0.8 0.4,0.2 0.6,0.7 0.4,0.8 0.1,1 -0.3,0.8 -0.7,0.6 -0.6,0.2 -0.9,0.1 -0.8,-0.3 -0.7,-0.7 -0.3,-0.8 -0.1,-0.9 0.1,-0.4 0.5,-0.6 m 0.5,-191.2 0.7,0.6 h 0.7 l 0.5,-0.3 0.4,-0.5 v -0.7 l -0.3,-1.2 -0.2,-0.9 0.3,-0.8 0.4,-0.6 0.8,-0.4 h 0.6 l 0.4,0.1 0.7,0.7 0.6,1 0.1,1 -0.1,0.4 -0.4,0.5 -0.8,0.4 h -0.7 l -0.8,-0.2 -0.6,-0.7 -0.9,-0.9 -0.5,-0.4 h -0.7 l -0.5,0.3 -0.4,0.6 0.1,0.9 0.7,1.2 m -0.6,-4.1 -0.5,-0.4 -1.3,-0.4 5.6,-2.9 m 231.8,-163.3 -0.5,0.5 v 1 l 0.2,0.5 0.6,0.8 1.1,0.2 1.5,-0.2 1.4,-0.5 1,-0.6 0.4,-0.8 v -1 l -0.1,-0.2 -0.6,-0.8 -0.8,-0.4 -0.9,0.1 -0.3,0.1 -0.8,0.5 -0.3,0.8 v 0.9 l 0.1,0.3 0.6,0.8 0.7,0.3 h 1 m -259,390.7 -3.1,-1 2.4,-1.7 -0.9,-0.3 -0.4,-0.5 -0.2,-0.3 -0.1,-1 0.2,-0.6 0.6,-0.7 0.7,-0.4 h 1 l 0.8,0.2 0.8,0.6 0.2,0.3 0.1,0.7 m -10,2.3 2.8,0.8 1.1,-2.5 -0.4,0.2 -0.9,0.1 -0.9,-0.3 -0.7,-0.5 -0.4,-0.8 -0.1,-0.9 0.2,-0.6 0.6,-0.8 0.7,-0.4 h 1 l 0.8,0.3 0.8,0.5 0.2,0.4 0.1,0.6 m -90.5,60 v 3.3 l -2.4,-1.8 v 0.9 l -0.3,0.6 -0.3,0.3 -0.9,0.2 h -0.6 l -0.9,-0.3 -0.6,-0.6 -0.3,-0.9 v -0.9 l 0.3,-0.9 0.3,-0.3 0.6,-0.3 m 2.9,9.3 -0.9,-0.3 -0.6,-0.6 -0.3,-0.9 v -0.3 l 0.3,-0.9 0.6,-0.6 1,-0.3 h 0.3 l 0.8,0.3 0.6,0.6 0.3,0.9 v 0.3 l -0.3,0.9 -0.6,0.6 -1.2,0.3 h -1.5 l -1.5,-0.3 -0.9,-0.6 -0.3,-0.9 v -0.6 l 0.3,-0.9 0.6,-0.3 M 60.8,572 57.1,566.1 m 5.9,2.4 -2.2,3.5 m -4.6,3.1 -0.6,-0.7 -0.1,-0.8 0.2,-1 0.2,-0.2 0.7,-0.6 0.8,-0.2 1,0.3 0.2,0.1 0.6,0.8 0.2,0.8 -0.3,0.9 -0.1,0.3 -0.8,0.6 -0.8,0.1 -1.2,-0.4 -1.2,-0.8 -1.1,-1 -0.4,-1 0.2,-1 0.3,-0.5 0.8,-0.6 0.6,0.1 m 6.2,14.2 -2.5,6.5 m -1.7,-6.1 4.2,-0.4 m 5.1,-0.4 -2.5,6.5 m -1.6,-6.1 4.1,-0.4 M 183,559.9 h -0.3 l -0.6,-0.3 -0.3,-0.3 -0.3,-0.6 0.1,-1.2 0.3,-0.6 0.3,-0.3 0.6,-0.3 h 0.6 l 0.6,0.4 0.9,0.6 2.9,3.1 0.1,-4.2 m -5.3,-4.9 -0.6,0.2 -0.3,0.9 v 0.6 l 0.3,0.9 0.9,0.7 1.4,0.3 h 1.5 l 1.3,-0.2 0.6,-0.6 0.3,-0.9 v -0.3 l -0.3,-0.9 -0.6,-0.6 -0.9,-0.3 h -0.3 l -0.9,0.2 -0.6,0.6 -0.3,0.9 v 0.3 l 0.3,0.9 0.6,0.6 0.8,0.3 m -47.1,32.7 -0.3,-0.7 -0.8,-0.3 -0.6,-0.1 -0.9,0.2 -0.7,0.9 -0.5,1.4 -0.1,1.5 0.2,1.3 0.5,0.6 0.9,0.4 h 0.3 l 0.9,-0.2 0.7,-0.5 0.4,-0.9 v -0.3 l -0.2,-0.9 -0.6,-0.7 -0.8,-0.4 h -0.3 l -1,0.2 -0.6,0.6 -0.4,0.8 m 7.2,-3.5 -0.9,0.2 -0.7,0.8 -0.4,1.5 -0.1,0.9 0.2,1.5 0.5,1 0.8,0.3 0.6,0.1 1,-0.2 0.6,-0.9 0.5,-1.4 0.1,-0.9 -0.2,-1.5 -0.5,-1 -0.9,-0.4 h -0.4 m 134.5,-79.2 h -0.3 l -0.6,-0.2 -0.4,-0.2 -0.4,-0.6 -0.1,-1.2 0.2,-0.6 0.2,-0.3 0.6,-0.4 0.6,-0.1 0.6,0.2 1,0.5 3.4,2.5 -0.6,-4.2 m -5,-0.3 -0.4,-0.6 -1,-0.7 6.2,-0.9 m -54.5,29.2 0.2,-0.2 0.6,-0.3 h 0.4 l 0.6,0.1 1,0.8 0.3,0.6 v 0.4 l -0.1,0.6 -0.4,0.5 -0.6,0.3 -1,0.3 -4.2,0.5 3.3,2.6 m 7,-1.3 0.2,-0.6 -0.5,-0.8 -0.5,-0.4 -0.9,-0.3 -1,0.3 -1.2,1 -0.9,1.2 -0.5,1.1 0.1,0.9 0.5,0.8 0.2,0.1 0.9,0.4 0.9,-0.1 0.8,-0.6 0.1,-0.2 0.4,-0.9 -0.1,-0.8 -0.6,-0.8 -0.2,-0.2 -0.9,-0.3 -0.8,0.1 -0.8,0.5 m 37.1,13.7 -0.2,-0.2 -0.3,-0.6 v -0.4 l 0.1,-0.7 0.8,-0.9 0.6,-0.3 h 0.4 l 0.7,0.1 0.5,0.4 0.2,0.6 0.3,1.1 0.5,4.2 2.6,-3.3 m -3,-6.2 -0.3,0.8 0.3,1.1 1,1.2 0.7,0.5 1.3,0.8 1.1,0.1 0.8,-0.5 0.4,-0.5 0.3,-0.9 -0.3,-1 -1,-1.2 -0.7,-0.6 -1.3,-0.7 -1.1,-0.1 -0.8,0.5 -0.3,0.3 m 36.4,-67.6 0.1,-0.3 0.5,-0.4 0.4,-0.2 h 0.6 l 1.2,0.5 0.4,0.5 0.1,0.4 0.1,0.6 -0.2,0.6 -0.6,0.4 -0.9,0.6 -3.9,1.6 3.9,1.7 m 2.9,-4.1 0.6,-0.1 1.2,-0.5 -2.4,5.8 m 89.9,-91.6 -0.5,-0.5 -1.2,-0.4 5.7,-2.6 m -7.9,-1.6 1.3,2.7 2.6,-0.8 -0.4,-0.2 -0.7,-0.7 -0.4,-0.8 -0.1,-0.9 0.3,-0.8 0.7,-0.7 0.6,-0.2 0.9,-0.1 0.8,0.2 0.6,0.7 0.4,0.9 0.1,0.9 -0.1,0.4 -0.4,0.5 m -35.8,-1.5 -0.2,0.6 -0.1,1.3 -4.2,-4.7 m 0.2,7.4 0.6,0.2 0.9,-0.4 0.4,-0.4 0.5,-0.8 -0.1,-1.1 -0.8,-1.3 -1,-1.1 -1,-0.7 -0.9,-0.1 -0.8,0.4 -0.3,0.2 -0.4,0.8 -0.1,0.9 0.4,0.9 0.2,0.2 0.8,0.5 h 0.9 l 0.8,-0.4 0.3,-0.2 0.4,-0.8 0.1,-0.8 -0.4,-0.9 m -8.3,112 0.1,-0.3 0.6,-0.4 0.4,-0.1 h 0.6 l 1.1,0.5 0.4,0.5 0.1,0.4 v 0.7 l -0.2,0.6 -0.6,0.4 -0.9,0.5 -4,1.3 3.7,1.9 m 5.5,-4.3 -1,-0.1 -0.9,0.5 -0.9,1.2 -0.4,0.8 -0.5,1.5 0.2,1.1 0.6,0.6 0.6,0.3 0.9,0.1 1,-0.5 0.9,-1.2 0.4,-0.8 0.4,-1.5 -0.1,-1 -0.7,-0.7 -0.4,-0.2 m 61.2,8.6 -0.3,-0.6 -0.9,-0.3 h -0.6 l -0.9,0.3 -0.6,0.9 -0.3,1.5 v 1.5 l 0.2,1.2 0.6,0.6 0.9,0.3 h 0.3 l 0.9,-0.3 0.6,-0.6 0.4,-0.9 v -0.3 l -0.3,-0.9 -0.6,-0.6 -0.9,-0.3 h -0.3 l -0.9,0.3 -0.6,0.6 -0.3,0.9 m 6.8,-4.2 -0.9,0.3 -0.6,0.9 -0.3,1.5 v 0.9 l 0.3,1.5 0.6,0.9 0.9,0.3 h 0.6 l 0.9,-0.3 0.6,-0.9 0.3,-1.5 v -0.9 l -0.3,-1.5 -0.6,-0.9 -0.9,-0.3 h -0.4 m 55.4,-17.9 3.5,6.1 m -5.9,-2.6 2.4,-3.5 m 2.9,-4.3 3.5,6.1 m -5.9,-2.6 2.4,-3.5 m -12.2,-18.4 5.2,-4.7 m -1.3,6.3 -3.9,-1.6 m -2.4,-1 h 0.9 l 0.5,-0.4 0.2,-0.6 v -0.6 l -0.4,-0.5 -1,-0.8 -0.8,-0.6 -0.3,-0.8 v -0.6 l 0.3,-0.9 0.5,-0.4 0.4,-0.2 1,0.1 1.1,0.4 0.7,0.7 0.1,0.3 0.1,0.7 -0.3,0.8 -0.6,0.5 -0.7,0.3 h -1 l -1.2,-0.2 h -0.7 l -0.5,0.5 -0.2,0.5 v 0.7 l 0.8,0.6 1.2,0.5 m -9.5,-47.4 2.4,6.5 m -5.4,-3.5 3,-3 m 1.8,-1.9 -0.4,0.8 0.2,0.7 0.4,0.4 0.7,0.2 0.6,-0.2 1.1,-0.7 0.8,-0.4 h 0.9 l 0.6,0.2 0.6,0.6 0.3,0.6 v 0.5 l -0.4,0.8 -0.9,0.9 -0.8,0.4 h -0.4 l -0.7,-0.2 -0.6,-0.6 -0.2,-0.6 -0.1,-0.9 0.5,-0.8 0.6,-1.1 0.2,-0.7 -0.2,-0.6 -0.5,-0.4 -0.6,-0.2 -0.9,0.4 -0.9,1 m -20.7,-41.5 -0.7,-0.6 -0.3,-0.8 v -0.9 l 0.1,-0.3 0.6,-0.7 0.8,-0.3 h 1 l 0.3,0.1 0.7,0.7 0.3,0.7 -0.1,1 -0.1,0.3 -0.6,0.7 -0.8,0.3 -1.2,-0.2 -1.4,-0.5 -1.3,-0.9 -0.6,-0.9 0.1,-0.9 0.2,-0.6 0.6,-0.7 h 0.7 m 2.5,8.1 0.1,-1 -0.6,-0.9 -1.3,-0.8 -0.8,-0.4 -1.5,-0.2 -1.1,0.2 -0.6,0.7 -0.2,0.5 -0.1,1 0.6,0.9 1.3,0.8 0.8,0.4 1.5,0.3 1.1,-0.3 0.6,-0.7 0.2,-0.4 m 45,-7.7 5.6,4.2 m -6.5,-0.1 0.9,-4.1 m 1.8,-1.3 -0.3,-0.1 -0.5,-0.4 -0.2,-0.4 -0.2,-0.6 0.3,-1.2 0.4,-0.5 0.3,-0.3 0.7,-0.1 0.6,0.1 0.5,0.4 0.7,0.8 2.4,3.5 0.8,-4.1 m -17.7,-21.5 0.2,0.6 0.8,0.5 0.6,0.1 0.9,-0.1 0.8,-0.7 0.6,-1.4 0.3,-1.5 v -1.3 l -0.5,-0.7 -0.8,-0.4 -0.3,-0.1 -1,0.1 -0.7,0.5 -0.4,0.8 -0.1,0.3 0.1,0.9 0.5,0.7 0.8,0.5 0.3,0.1 0.9,-0.1 0.7,-0.5 0.5,-0.8 m -6,1.5 v 0.3 l -0.5,0.5 -0.3,0.3 -0.7,0.1 -1.1,-0.2 -0.6,-0.4 -0.2,-0.4 -0.2,-0.6 0.2,-0.6 0.4,-0.5 0.7,-0.8 3.6,-2.3 -4.1,-0.9 M 83.9,465.3 80.3,461.6 79.5,466 m 4.4,-0.7 -6.2,-1.2 m 4.1,4 h 0.3 l 0.5,0.4 0.3,0.4 0.1,0.6 -0.2,1.2 -0.4,0.6 -0.3,0.2 -0.7,0.2 -0.6,-0.1 -0.5,-0.4 -0.8,-0.8 -2.4,-3.5 -0.7,4.2 m 85.5,-265.4 h 0.9 l 0.5,-0.5 0.2,-0.6 -0.2,-0.7 -0.5,-0.4 -1.1,-0.6 -0.7,-0.5 -0.5,-0.8 -0.1,-0.6 0.3,-0.9 0.4,-0.5 0.4,-0.2 0.9,-0.1 1.2,0.4 0.8,0.5 0.2,0.4 0.1,0.6 -0.2,0.9 -0.5,0.5 -0.7,0.4 h -1 -1.2 l -0.7,0.1 -0.4,0.5 -0.2,0.6 0.1,0.7 0.8,0.5 1.3,0.4 m -6.9,-1.9 4.1,-3.2 -4.4,-1.2 m 0.3,4.4 1.7,-6.1 m 4.7,130.3 2.4,4.5 2.1,-4 m -4.5,-0.5 5.6,2.8 m -4.1,-5.7 1.5,-2.9 1.4,2.6 0.4,-0.8 0.5,-0.4 0.4,-0.1 1,0.1 0.5,0.3 0.7,0.7 0.2,0.8 -0.1,0.9 -0.4,0.8 -0.7,0.7 -0.4,0.1 h -0.7 m -37.8,-128.3 0.9,-0.5 0.1,-0.7 -0.1,-0.6 -0.4,-0.5 -0.7,-0.2 h -1.2 l -0.9,-0.1 -0.8,-0.5 -0.4,-0.5 -0.2,-0.9 0.2,-0.6 0.2,-0.4 0.8,-0.5 1.2,-0.2 1,0.1 0.3,0.2 0.4,0.6 0.2,0.8 -0.1,0.7 -0.5,0.7 -0.8,0.5 -1.1,0.5 -0.5,0.4 -0.2,0.7 0.1,0.6 0.4,0.5 1,0.1 1.3,-0.3 m -4.7,-0.5 v 0.3 l -0.1,0.6 -0.3,0.4 -0.5,0.4 -1.2,0.3 -0.6,-0.2 -0.4,-0.2 -0.4,-0.5 -0.1,-0.6 0.2,-0.7 0.3,-1 2.3,-3.5 -4.1,0.8 m -32.8,30.7 -0.4,-0.9 0.1,-0.9 0.4,-0.8 0.3,-0.2 0.8,-0.4 0.9,0.1 0.8,0.4 0.2,0.3 0.4,0.8 -0.1,0.9 -0.4,0.8 -0.2,0.2 -0.9,0.4 -0.9,-0.1 -1,-0.6 -1,-1.2 -0.8,-1.3 -0.1,-1 0.4,-0.9 0.5,-0.4 0.8,-0.4 0.7,0.3 m -3.2,8.9 0.6,0.3 0.9,-0.4 0.4,-0.4 0.5,-0.8 -0.2,-1.1 -0.7,-1.3 -1,-1.1 -1.1,-0.7 -0.8,-0.1 -0.9,0.4 -0.2,0.2 -0.5,0.8 v 0.9 l 0.4,0.9 0.2,0.2 0.8,0.4 0.8,0.1 0.9,-0.4 0.2,-0.2 0.5,-0.8 v -0.9 l -0.3,-0.8 m 6.6,83 -0.9,0.2 -0.8,-0.2 -0.7,-0.7 -0.2,-0.2 -0.1,-1 0.2,-0.8 0.7,-0.7 0.2,-0.1 1,-0.2 0.8,0.2 0.7,0.7 0.1,0.2 0.2,1 -0.3,0.8 -0.9,0.8 -1.3,0.8 -1.5,0.4 -1,-0.1 -0.7,-0.6 -0.3,-0.6 -0.2,-0.9 0.4,-0.5 m 8.7,4.7 -1.4,-2.7 -2.5,1.1 0.4,0.1 0.7,0.6 0.4,0.8 0.2,1 -0.3,0.8 -0.6,0.7 -0.5,0.3 -1,0.1 -0.8,-0.2 -0.7,-0.7 -0.4,-0.7 -0.2,-1 0.2,-0.4 0.3,-0.5 m 44.2,46.5 -0.2,5.1 3.8,-2.4 m -3.6,-2.7 3.5,5.3 m 0,-5.7 -0.1,-0.3 -0.1,-0.7 0.1,-0.4 0.3,-0.6 1,-0.6 0.7,-0.1 0.4,0.1 0.6,0.3 0.3,0.5 0.1,0.7 v 1.1 l -0.9,4.1 3.5,-2.2 m -68.3,58.6 -5.2,-0.8 2.1,4 m 3.1,-3.2 -5.6,2.9 m 7,0 1.5,2.9 -2.9,-0.5 0.4,0.8 v 0.7 l -0.1,0.4 -0.7,0.7 -0.5,0.2 -1,0.2 -0.8,-0.3 -0.7,-0.6 -0.4,-0.8 -0.1,-1 0.1,-0.4 0.4,-0.5 m 26.1,7.3 4.4,-2.7 -4.1,-1.8 m -0.3,4.5 2.5,-5.8 m -7.8,3.4 4.4,-2.6 -4.1,-1.8 m -0.3,4.4 2.5,-5.7 m -7.4,-376.3 2.9,0.8 1,-2.5 -0.4,0.2 H 90 l -0.9,-0.2 -0.8,-0.5 -0.4,-0.8 v -0.9 l 0.1,-0.6 0.6,-0.8 0.7,-0.4 h 0.9 l 0.9,0.2 0.8,0.5 0.2,0.4 0.1,0.7 M 84,43.8 h 0.9 l 0.8,-0.7 0.7,-1.4 0.3,-0.8 0.1,-1.6 -0.3,-1 -0.8,-0.5 -0.6,-0.2 h -0.9 l -0.9,0.7 -0.7,1.4 -0.2,0.9 -0.1,1.5 0.3,1 0.8,0.6 0.4,0.1 M 56.9,61 l 1,-2.8 -2.4,-1.2 0.2,0.4 v 0.9 L 55.3,59.2 54.8,59.9 54,60.3 53,60.2 52.5,60 51.7,59.4 51.4,58.7 v -1 l 0.3,-0.8 0.6,-0.8 0.4,-0.1 0.7,-0.1 m 1.3,6.7 0.3,0.1 0.4,0.5 0.2,0.4 0.1,0.7 -0.4,1.1 -0.5,0.5 -0.4,0.1 -0.7,0.1 -0.5,-0.2 -0.5,-0.5 -0.6,-0.9 -1.8,-3.8 -1.5,3.9 m 19.1,22.4 -3.6,3.7 4.5,0.7 M 67.9,87 67,93.2 m 5,-5.6 -0.9,0.2 -0.4,0.6 -0.1,0.6 0.2,0.6 0.6,0.4 1.1,0.4 0.9,0.5 0.5,0.6 0.2,0.7 -0.1,0.9 -0.4,0.5 -0.4,0.3 L 72.3,94 71.1,93.9 70.3,93.5 70,93.1 69.8,92.5 69.9,91.6 70.3,91 71,90.5 71.9,90.4 73.2,90.2 73.8,90 74.2,89.5 74.3,88.9 74,88.2 73.2,87.8 71.9,87.6 m 309.8,50.6 -3.1,6.2 m -1.1,-6.3 4.2,0.1 m 59.5,-11.4 -0.3,-0.6 -0.8,-0.9 6.3,0.3"
       id="nums_001"
       stroke="#000000"
       style="stroke-width:1.01549;stroke-dasharray:none" />
    <path
       d="m 208,134.9 -6.5,21.7 -35.1,21.9 -22.4,-3.7 -22.6,-9.4 -23.3,-41 3.4,-24.2 L 36.9,91 60.2,28.5 115.9,44.3 189,29.7 420.2,22 l 28.8,81.9 -1.9,44 -30.6,14.3 -73.9,-1.7 -29.9,-15.7 23.8,51.8 2.1,90.7 32.2,50.9 -44,72.2 26.7,-43.8 v 0 l 36.5,-12.4 27.6,59.5 -6.4,-24.1 18.4,-45.3 21.4,-12.8 14.2,-12.4 27.3,5.6 8.1,17 -12.1,57.3 -44.9,46.2 19.1,-8.4 32.8,13.5 7.7,19.4 5.5,18.5 -16.9,24.6 -19.3,1.6 -22.2,15 -54.4,-0.1 -22.3,-15.1 -23.6,4.9 -3.7,-1.9 -10.1,-21.8 -18.9,8.2 -32,-13.5 -7.2,-19.4 9.2,62.5 -26.6,32.4 -25,-0.5 -38.2,-30 -6.5,-24.1 -2.3,88.4 -98.5,-8.8 -54,4.2 -4.9,-20.1 18.8,-29 20.3,-3.7 -14.8,-12.2 0.4,-29.3 15.2,-11.8 -11.1,-22.9 0.8,-4.5 18.4,-17.6 -22.9,-11.5 -2.1,-4.1 3.7,-25.4 24.3,-5.7 44.7,19.6 12.3,21.8 18.5,-10.1 34.5,10.6 9.7,18.7 -26.6,-60 5.1,-88.6 -20.9,41.2 -38.3,25 -68.9,-126.2 3.5,-23.3 33,-29.8 23.6,-1 23.2,-5 15.1,-11.4 27.1,7.5 7,17.6 25.7,48.9 z"
       id="coupes_001"
       stroke="#ff0000"
       style="stroke-width:1.26936"
       sodipodi:nodetypes="cccccccccccccccccccccccccccccccccccccccccccccccccccccccccccccccccccccccccccccccccccccccc" />
    <path
       d="m 144,174.8 -42.5,-74.6 m 0,0 106.5,34.7 M 101.5,100.2 115.9,44.3 m 0,0 92.1,90.6 M 189,29.7 208,134.9 M 189,29.7 312.7,144.8 M 420.2,22 312.7,144.8 m 0,0 -102.1,107.7 m 67.5,218.2 -67.5,-218.2 m 128,34.8 -60.5,183.4 m 48.7,-60.3 -48.7,60.3 M 338.6,287.3 326.8,410.4 M 202,457.6 210.6,252.5 M 278.1,470.7 202,457.6 M 180.5,309 184.9,203.6 M 449,103.9 312.7,144.8 M 191,511 202,457.6 M 278.1,470.7 191,511 m 0,0 -51.7,-72.6 m 0,0 62.7,19.2 M 70.4,542 139.3,438.4 M 191,511 70.4,542 m 0.8,-53.3 68.1,-50.3 M 70.4,542 71.2,488.7 M 90.2,590.6 70.4,542 M 191,511 90.2,590.6 m -54,4.2 L 70.4,542 M 287.3,533.2 191,511 M 260.7,565.6 191,511 m 145.2,-15.6 -58.1,-24.7 m 48.7,-60.3 9.4,85 m -9.4,-85 90.8,3.3 m -90.8,-3.3 63.2,-56.2 m 53.6,91 -107.4,50.2 m 81.4,-81.7 26,31.5 m 0,0 -70,69 m 0,0 -37.4,-18.8 m 107.4,-50.2 28.9,69.2 m 0,0 -98.9,-0.2 m 129.6,-44.5 -30.7,44.7 m -28.9,-69.2 59.6,24.5 m -85.6,-56 33.4,-82.2 m -371.7,112.2 60,-5.3 M 180.5,309 135.7,189.9 m 0,0 49.2,13.7 M 159.6,350.2 135.7,189.9 M 52.4,249 112.5,194.9 M 58,402.7 139.3,438.4 M 101.5,100.2 60.2,28.5 m 386.9,119.4 -134.4,-3.1"
       id="plisM_001"
       stroke="#a52a2a"
       stroke-dasharray="4" />
    <path
       d="m 208,134.9 -64,39.9 m 168.7,-30 -104.7,-9.9 m 128.5,61.7 -125.9,55.9 m 128,34.8 -128,-34.8 M 202,457.6 180.5,309 m 0,0 30.1,-56.5 m 207,161.2 -81.4,81.7 M 417.6,413.7 488.5,399 M 451,331.5 488.5,399 m -37.5,-67.5 49.6,10.2 m -429.4,147 8.1,-45 M 159.6,350.2 112.5,194.9 M 159.6,350.2 52.4,249 M 79.3,443.7 58,402.7"
       id="plisV_001"
       stroke="#008000"
       stroke-dasharray="4, 1, 1, 1"
       style="stroke-width:1.26936" />
    <path
       d="m 174,152.9 4,4 m 0,-4 -4,4 m 84.4,-19 4,4 m 0,-4 -4,4 m 13.2,80.7 4,4 m 0,-4 -4,4 m 1,41.3 4,4 m 0,-4 -4,4 m -83.3,109.4 4,4 m 0,-4 -4,4 m 4.3,-106.6 4,4 m 0,-4 -4,4 m 181.3,169.8 4,4 m 0,-4 -4,4 m 76.1,-52.2 4,4 m 0,-4 -4,4 m 16.7,-45.1 4,4 m 0,-4 -4,4 m 6.1,-32.6 4,4 m 0,-4 -4,4 m -400.5,125.6 4,4 m 0,-4 -4,4 m 60.7,-197.6 4,4 m 0,-4 -4,4 m -30,23 4,4 m 0,-4 -4,4 m -37.4,119.6 4,4 m 0,-4 -4,4"
       id="marqueV_001"
       stroke="#008000" />
    <path
       d="m 273.5,328 1.5,-0.8 2.2,-2.2 v 15.7"
       id="titre_1"
       stroke="#4b0082"
       style="stroke-width:1.26936" />
  </g>
  <g
     id="page_002">
    <path
       d="m 823.2,508.8 -0.3,0.9 0.3,0.6 0.5,0.3 0.7,0.1 0.6,-0.3 0.9,-0.8 0.8,-0.5 0.8,-0.2 0.7,0.1 0.7,0.5 0.3,0.6 0.1,0.4 -0.3,0.9 -0.7,1 -0.7,0.6 -0.5,0.1 -0.6,-0.1 -0.8,-0.6 -0.3,-0.5 -0.1,-0.9 0.3,-0.9 0.4,-1.1 0.1,-0.7 -0.3,-0.6 -0.5,-0.3 -0.7,-0.1 -0.7,0.5 -0.8,1.1 m 6.2,-5.2 0.6,0.7 0.1,0.9 -0.2,0.9 -0.2,0.2 -0.8,0.6 -0.8,0.1 -0.9,-0.2 -0.2,-0.2 -0.6,-0.8 -0.2,-0.8 0.3,-0.9 0.2,-0.3 0.7,-0.5 0.9,-0.2 1.1,0.5 1.3,0.8 1,1.1 0.4,1 -0.3,0.9 -0.3,0.5 -0.8,0.6 -0.6,-0.1 m 140,-146.6 -0.3,-0.6 -1,-0.9 6.3,-0.2 m -6.6,-4.5 0.1,3 2.7,0.2 -0.3,-0.3 -0.4,-0.8 v -0.9 l 0.3,-1 0.6,-0.6 0.8,-0.3 h 0.6 l 1,0.2 0.6,0.6 0.3,0.9 v 0.9 l -0.2,0.9 -0.3,0.3 -0.6,0.3 m -41.7,-32.1 0.4,-0.8 0.7,-0.6 0.9,-0.2 h 0.3 l 0.9,0.4 0.5,0.7 0.2,0.9 v 0.3 l -0.4,0.9 -0.6,0.5 -1,0.2 h -0.3 l -0.8,-0.4 -0.6,-0.6 -0.2,-1.3 0.2,-1.5 0.4,-1.4 0.7,-0.9 0.9,-0.2 0.6,0.1 0.9,0.4 0.2,0.6 m -7,4.7 0.9,-0.2 0.7,-0.8 0.4,-1.5 0.1,-0.9 -0.1,-1.5 -0.5,-0.9 -0.9,-0.4 -0.6,-0.1 -0.9,0.2 -0.7,0.9 -0.4,1.4 -0.1,0.9 0.1,1.6 0.5,0.9 0.9,0.4 h 0.5 m -221.1,104.7 0.7,0.1 1.2,-0.4 -3,5.5 m 4.6,-4.9 2.9,1.6 -2.7,1.3 0.8,0.4 0.3,0.6 0.2,0.4 -0.2,0.9 -0.3,0.5 -0.7,0.7 -0.8,0.2 -0.9,-0.2 -0.8,-0.4 -0.7,-0.7 -0.1,-0.4 V 438 m -44.3,-55.9 0.3,-0.2 h 0.6 l 0.4,0.1 0.6,0.4 0.6,1.1 v 0.6 l -0.1,0.5 -0.4,0.5 -0.6,0.3 h -0.6 l -1.1,-0.1 -4.1,-1.2 2,3.7 m 8.1,1.6 -7,0.3 m 4.9,-4 2.1,3.7 m 101.7,-63.7 -0.3,0.7 0.4,0.8 0.4,0.5 0.8,0.5 1.1,-0.2 1.3,-0.7 1.2,-1 0.7,-1 v -0.9 l -0.3,-0.8 -0.2,-0.3 -0.9,-0.5 h -0.8 l -0.9,0.3 -0.2,0.2 -0.5,0.9 v 0.8 l 0.3,0.9 0.2,0.2 0.8,0.5 0.9,0.1 0.9,-0.4 m -8.2,-4.4 -0.3,0.6 0.4,0.9 0.4,0.5 0.8,0.5 1.1,-0.2 1.3,-0.7 1.1,-1 0.8,-1 v -0.9 l -0.4,-0.9 -0.2,-0.2 -0.8,-0.5 h -0.8 l -0.9,0.3 -0.2,0.2 -0.5,0.9 -0.1,0.8 0.4,0.9 0.2,0.2 0.8,0.5 h 0.9 l 0.8,-0.3 m -123.1,-8.9 -0.1,3.3 -2.3,-1.9 -0.1,0.9 -0.3,0.6 -0.3,0.3 -0.9,0.3 H 645 l -0.9,-0.4 -0.6,-0.6 -0.2,-0.9 v -0.9 l 0.3,-0.9 0.3,-0.3 0.6,-0.3 m 3.6,5.4 0.3,0.6 0.8,0.9 -6.3,-0.1 m 242.3,-27.8 -0.6,0.2 -0.5,0.8 -0.2,0.6 0.1,0.9 0.8,0.8 1.4,0.6 1.5,0.3 h 1.2 l 0.7,-0.4 0.5,-0.9 0.1,-0.2 -0.1,-1 -0.5,-0.7 -0.8,-0.5 -0.3,-0.1 -0.9,0.1 -0.8,0.5 -0.4,0.8 -0.1,0.3 0.1,0.9 0.4,0.7 0.9,0.5 m -1.5,-6 h -0.3 l -0.5,-0.5 -0.2,-0.3 -0.2,-0.7 0.3,-1.1 0.4,-0.6 0.4,-0.2 0.6,-0.2 0.6,0.2 0.5,0.4 0.8,0.8 2.3,3.6 0.9,-4.1 m -67.1,-20.1 0.6,-0.3 0.3,-0.9 v -0.6 l -0.3,-0.9 -0.9,-0.6 -1.5,-0.3 h -1.5 l -1.2,0.3 -0.6,0.6 -0.3,0.9 v 0.3 l 0.3,0.9 0.6,0.6 0.9,0.3 h 0.3 l 0.9,-0.3 0.6,-0.6 0.3,-0.9 v -0.3 l -0.3,-0.9 -0.6,-0.6 -0.9,-0.3 m 4.2,5.7 -0.1,3.3 -2.3,-1.9 v 0.9 l -0.3,0.6 -0.4,0.3 -0.9,0.3 H 821 l -0.9,-0.3 -0.5,-0.6 -0.3,-0.9 v -0.9 l 0.3,-0.9 0.3,-0.3 0.6,-0.3 m -211.8,-15.5 2.8,1.7 -2.8,1.2 0.8,0.4 0.3,0.6 0.1,0.4 -0.2,0.9 -0.3,0.6 -0.7,0.6 -0.8,0.2 -0.9,-0.2 -0.8,-0.5 -0.6,-0.7 -0.1,-0.4 v -0.7 m 8.8,-0.7 -1,-0.2 -0.9,0.5 -1.1,1.1 -0.4,0.8 -0.5,1.4 v 1.1 l 0.6,0.7 0.5,0.3 1,0.2 1,-0.4 1,-1.2 0.4,-0.7 0.6,-1.5 -0.1,-1.1 -0.6,-0.7 -0.4,-0.2 m 259.7,228.1 -3,-0.7 -0.9,2.6 0.4,-0.3 h 0.9 l 0.9,0.2 0.8,0.5 0.5,0.7 v 0.9 l -0.1,0.6 -0.5,0.8 -0.7,0.5 -1,0.1 -0.8,-0.3 -0.8,-0.5 -0.3,-0.3 -0.1,-0.7 m 7.8,-3.3 h -0.9 l -0.5,0.6 -0.1,0.5 0.2,0.7 0.5,0.4 1.1,0.6 0.8,0.5 0.4,0.7 0.2,0.7 -0.2,0.8 -0.5,0.6 -0.3,0.2 -1,0.1 -1.1,-0.3 -0.8,-0.5 -0.3,-0.4 -0.1,-0.6 0.2,-0.9 0.4,-0.5 0.7,-0.5 h 1 l 1.2,-0.1 0.7,-0.1 0.4,-0.5 0.1,-0.6 -0.1,-0.7 -0.8,-0.5 -1.3,-0.3 m 90.5,-63.7 -0.2,3 2.7,0.5 -0.3,-0.4 -0.2,-0.9 V 423 l 0.4,-0.9 0.6,-0.5 0.9,-0.3 0.6,0.1 0.9,0.3 0.6,0.7 0.2,0.9 v 0.9 l -0.4,0.9 -0.3,0.2 -0.6,0.3 m -4.5,-9.7 6.1,3.4 m -6.4,0.8 0.3,-4.2 m -21.4,76.5 v -0.7 l -0.4,-1.2 5.6,2.7 m -4,-6.7 2.5,4.5 1.9,-4 m -4.4,-0.5 5.6,2.7 M 781,244.4 l 0.8,-0.4 0.9,-0.1 0.8,0.4 0.3,0.2 0.4,0.8 0.1,0.9 -0.4,0.9 -0.2,0.2 -0.9,0.4 -0.8,0.1 -0.9,-0.4 -0.2,-0.2 -0.5,-0.8 v -0.9 l 0.6,-1.1 1,-1.1 1.2,-0.9 1.1,-0.2 0.9,0.3 0.4,0.5 0.5,0.8 -0.2,0.6 m -9.5,-1.3 5,-1 -3.3,-3.1 m -1.7,4.1 4.2,-4.6 m -8.7,30.1 -0.6,-0.3 -0.9,0.2 -0.5,0.4 -0.6,0.7 v 1.1 l 0.6,1.4 0.9,1.3 0.9,0.8 0.8,0.1 1,-0.2 0.2,-0.2 0.6,-0.8 0.1,-0.8 -0.2,-0.9 -0.2,-0.3 -0.8,-0.5 -0.8,-0.2 -0.9,0.3 -0.3,0.2 -0.5,0.7 -0.2,0.8 0.3,1 m 6.2,-6.8 0.2,0.9 -0.1,0.8 -0.6,0.8 -0.2,0.1 -1,0.3 -0.8,-0.2 -0.7,-0.5 -0.2,-0.3 -0.3,-0.9 0.2,-0.8 0.6,-0.8 0.2,-0.2 0.9,-0.2 0.8,0.1 1,0.9 0.8,1.2 0.6,1.4 v 1.1 l -0.5,0.7 -0.5,0.4 -0.9,0.2 -0.6,-0.3 m -38.2,-78.3 0.9,-0.3 0.8,0.2 0.8,0.5 0.2,0.3 0.2,0.9 -0.1,0.8 -0.6,0.8 -0.2,0.2 -0.9,0.2 -0.9,-0.1 -0.7,-0.6 -0.2,-0.2 -0.3,-0.9 0.2,-0.9 0.8,-0.9 1.2,-0.9 1.4,-0.6 h 1.1 l 0.8,0.6 0.3,0.5 0.3,0.9 -0.3,0.6 m -8.5,-4.3 -0.3,0.6 0.2,0.9 0.4,0.5 0.7,0.6 1.1,-0.1 1.4,-0.6 1.3,-0.8 0.8,-1 0.1,-0.8 -0.3,-0.9 -0.1,-0.3 -0.8,-0.5 -0.8,-0.2 -0.9,0.3 -0.3,0.2 -0.5,0.7 -0.2,0.9 0.3,0.9 0.2,0.2 0.7,0.6 0.9,0.1 0.9,-0.2 m -31.3,272 -0.6,0.3 -0.9,0.9 0.1,-6.3 m -1.8,6.4 H 701 l 1.8,-2.4 h -0.9 l -0.6,-0.3 -0.3,-0.3 -0.2,-0.9 v -0.6 l 0.3,-0.9 0.6,-0.6 0.9,-0.3 h 0.9 l 0.9,0.3 0.3,0.3 0.3,0.7 m -127.7,-272.6 0.3,3.3 -2.6,-1.5 0.1,0.9 -0.2,0.6 -0.3,0.3 -0.8,0.4 -0.6,0.1 -1,-0.2 -0.6,-0.6 -0.4,-0.9 -0.1,-0.8 0.2,-1 0.3,-0.3 0.5,-0.4 m 4.2,5.5 h 0.3 l 0.6,0.2 0.4,0.3 0.3,0.6 0.1,1.2 -0.2,0.6 -0.3,0.3 -0.5,0.4 h -0.6 l -0.7,-0.2 -0.9,-0.5 -3.3,-2.7 0.4,4.2 m 48.7,-70 4.8,1.9 -1.1,-4.3 m -3.7,2.4 6.1,-1.5 m -7.5,-4.6 0.7,3 2.7,-0.4 -0.4,-0.2 -0.5,-0.8 -0.2,-0.9 0.1,-0.9 0.4,-0.8 0.8,-0.5 0.6,-0.1 1,0.1 0.7,0.4 0.5,0.8 0.2,0.9 -0.1,0.9 -0.2,0.4 -0.5,0.4 m -58.4,-19.1 -4.6,-2.3 0.7,4.5 m 3.9,-2.2 -6.2,1 m 7.2,5.6 -6.7,-1.9 m 6.1,-2.2 0.6,4.1 m 19.4,-25 3.5,-3.9 -4.5,-0.5 m 1,4.4 0.8,-6.3 m -4.9,5.7 1,-0.2 0.3,-0.5 0.1,-0.6 -0.2,-0.7 -0.6,-0.3 -1.2,-0.5 -0.8,-0.4 -0.5,-0.6 -0.3,-0.7 0.1,-0.9 0.4,-0.5 0.3,-0.3 1,-0.2 1.2,0.2 0.8,0.4 0.3,0.3 0.2,0.6 -0.1,0.9 -0.4,0.6 -0.6,0.5 -1,0.2 -1.2,0.2 -0.6,0.2 -0.4,0.5 -0.1,0.6 0.3,0.7 0.8,0.4 1.4,0.1 m 74,42.8 -3.2,-4 -1.2,4.3 m 4.4,-0.3 -6,-1.7 m 3.4,7.5 0.7,-0.2 0.5,-0.7 0.2,-0.6 -0.1,-1 -0.7,-0.8 -1.4,-0.7 -1.4,-0.4 h -1.2 l -0.8,0.4 -0.5,0.8 -0.1,0.3 0.1,0.9 0.4,0.8 0.8,0.5 0.2,0.1 1,-0.1 0.7,-0.4 0.6,-0.8 v -0.3 -0.9 l -0.4,-0.8 -0.8,-0.5 m 68.2,15.4 -0.5,0.8 0.1,0.6 0.4,0.5 0.6,0.3 0.6,-0.1 1.2,-0.5 0.9,-0.3 0.8,0.1 0.6,0.3 0.5,0.8 0.2,0.6 -0.1,0.4 -0.5,0.8 -1,0.7 -0.9,0.3 H 723 l -0.6,-0.3 -0.6,-0.7 -0.1,-0.7 0.1,-0.8 0.6,-0.8 0.8,-1 0.3,-0.6 -0.2,-0.6 -0.3,-0.5 -0.6,-0.3 -0.9,0.3 -1.1,0.8 m 4.5,-1.5 -0.2,-0.3 -0.1,-0.6 0.1,-0.4 0.3,-0.6 0.9,-0.8 0.7,-0.1 0.4,0.1 0.6,0.3 0.4,0.5 0.1,0.6 v 1.1 l -0.6,4.2 3.4,-2.5 m -2.2,-24.1 0.4,0.9 0.6,0.2 h 0.6 l 0.6,-0.3 0.2,-0.7 0.3,-1.2 0.2,-0.9 0.6,-0.6 0.6,-0.3 0.9,-0.1 0.6,0.3 0.3,0.3 0.3,0.9 0.1,1.2 -0.2,0.9 -0.3,0.3 -0.6,0.3 -0.9,0.1 -0.6,-0.3 -0.7,-0.6 -0.3,-0.9 -0.4,-1.2 -0.3,-0.5 -0.6,-0.3 h -0.6 l -0.6,0.4 -0.2,0.9 v 1.3 m -0.4,-7.1 4.3,2.8 -0.2,-4.5 m -4.1,1.7 6.3,-0.3 m 9.7,437.7 0.7,0.1 1.2,-0.3 -3.1,5.4 m 3.9,-3.5 0.2,-0.3 0.5,-0.3 0.4,-0.1 h 0.7 l 1.1,0.6 0.3,0.6 0.1,0.4 v 0.6 l -0.3,0.6 -0.6,0.3 -0.9,0.5 -4.1,1.1 3.6,2.1 m 41.8,-5.1 0.2,-0.6 -0.1,-1.3 4.7,4.1 m -3.1,-4.1 0.2,-0.7 -0.1,-1.3 4.7,4.2 m -54.2,-487.7 -0.2,0.9 0.3,0.6 0.5,0.3 0.7,0.1 0.5,-0.3 1,-0.8 0.7,-0.6 0.9,-0.2 0.6,0.1 0.8,0.5 0.3,0.6 0.1,0.4 -0.3,0.9 -0.7,1 -0.7,0.6 -0.4,0.1 -0.7,-0.1 -0.7,-0.5 -0.4,-0.6 -0.1,-0.8 0.2,-0.9 0.5,-1.2 v -0.7 l -0.3,-0.5 -0.5,-0.4 -0.6,-0.1 -0.8,0.6 -0.8,1.1 m 3.4,-2.4 0.1,-0.7 -0.2,-1.2 5.2,3.5 m -30.4,8.5 -3,1.3 0.7,-2.9 -0.9,0.4 -0.6,-0.1 -0.4,-0.1 -0.7,-0.7 -0.2,-0.6 -0.1,-0.9 0.3,-0.8 0.7,-0.7 0.9,-0.3 0.9,-0.1 0.4,0.2 0.5,0.4 m -6.5,7.4 0.5,0.4 0.9,-0.1 0.6,-0.2 0.7,-0.6 0.2,-1.1 -0.3,-1.5 -0.6,-1.4 -0.8,-0.9 -0.8,-0.4 -0.9,0.1 -0.3,0.1 -0.7,0.7 -0.3,0.8 0.1,0.9 0.1,0.3 0.6,0.7 0.8,0.3 1,-0.1 0.2,-0.1 0.7,-0.6 0.4,-0.8 -0.1,-1 m 171.1,449.2 2.3,-1.9 -1.5,-2.2 v 0.4 l -0.5,0.8 -0.7,0.5 -0.9,0.4 -0.8,-0.1 -0.8,-0.5 -0.4,-0.5 -0.3,-0.9 V 516 l 0.6,-0.8 0.7,-0.6 0.8,-0.3 h 0.5 l 0.6,0.3 m -2.2,8.3 0.6,-0.8 -0.2,-0.7 -0.4,-0.5 -0.6,-0.2 -0.6,0.1 -1.2,0.5 -0.8,0.4 -0.9,-0.1 -0.6,-0.3 -0.6,-0.7 -0.1,-0.7 v -0.4 l 0.6,-0.8 0.9,-0.7 0.9,-0.4 0.4,0.1 0.6,0.3 0.6,0.7 0.1,0.6 -0.1,0.9 -0.5,0.8 -0.7,0.9 -0.3,0.6 0.1,0.7 0.4,0.5 0.6,0.3 0.9,-0.4 1.1,-0.8 m -16.1,33.8 -0.3,-0.9 -0.6,-0.3 h -0.6 l -0.6,0.3 -0.3,0.6 -0.3,1.2 -0.3,0.9 -0.6,0.6 -0.6,0.3 h -0.9 l -0.6,-0.3 -0.3,-0.3 -0.3,-0.9 v -1.2 l 0.3,-0.9 0.3,-0.3 0.6,-0.3 h 0.9 l 0.6,0.3 0.6,0.6 0.3,0.9 0.3,1.2 0.3,0.6 0.6,0.3 h 0.6 l 0.6,-0.3 0.3,-0.9 v -1.3 m -2.1,7.9 -0.9,-0.3 -0.6,-0.6 -0.3,-0.9 v -0.3 l 0.3,-0.9 0.6,-0.6 0.9,-0.3 h 0.3 l 0.9,0.3 0.6,0.6 0.3,0.9 v 0.3 l -0.3,0.9 -0.6,0.6 -1.2,0.3 h -1.5 l -1.5,-0.3 -0.9,-0.6 -0.3,-0.9 V 562 l 0.3,-0.9 0.6,-0.3 m 75.2,4.8 -0.4,-0.5 -1.1,-0.7 6.1,-1.5 m -7,-1 0.5,0.8 0.7,0.2 0.6,-0.2 0.5,-0.4 0.1,-0.7 v -1.2 l 0.1,-1 0.4,-0.7 0.5,-0.4 0.9,-0.3 0.6,0.2 0.4,0.2 0.5,0.8 0.3,1.2 -0.1,0.9 -0.2,0.4 -0.5,0.4 -0.9,0.2 -0.6,-0.1 -0.7,-0.4 -0.6,-0.8 -0.5,-1.1 -0.5,-0.5 -0.6,-0.2 -0.6,0.2 -0.5,0.4 -0.1,1 0.3,1.3 m -41.4,59.8 1.5,6.8 m -4.8,-4.2 3.3,-2.6 m -61.1,-27.6 -0.7,0.2 -0.9,0.9 0.3,-6.3 m -1.3,5 -0.6,0.3 -1,0.8 0.4,-6.3 m -30.3,28.5 v -0.9 l -0.4,-0.5 -0.6,-0.2 h -0.7 l -0.5,0.5 -0.7,1 -0.6,0.7 -0.7,0.4 -0.7,0.1 -0.8,-0.3 -0.5,-0.5 -0.2,-0.4 0.1,-1 0.4,-1.1 0.6,-0.7 0.4,-0.2 0.6,-0.1 0.9,0.3 0.4,0.5 0.4,0.8 -0.1,0.9 -0.1,1.3 0.1,0.6 0.4,0.5 0.6,0.2 h 0.7 l 0.6,-0.8 0.4,-1.2 m 14.7,32.5 3.1,1.2 -2.6,1.6 0.9,0.3 0.4,0.5 0.2,0.4 v 0.9 l -0.3,0.6 -0.6,0.7 -0.8,0.3 h -0.9 l -0.8,-0.3 -0.8,-0.6 -0.1,-0.4 -0.1,-0.7 m -163,-171.7 0.2,0.3 0.1,0.7 v 0.4 l -0.3,0.6 -1,0.7 -0.7,0.1 -0.4,-0.1 -0.6,-0.3 -0.3,-0.4 -0.2,-0.7 v -1.1 l 0.6,-4.2 -3.4,2.5 m -0.4,8.2 -1.3,-6.9 m 4.7,4.4 -3.4,2.5 m 38.4,70 -0.2,-0.3 -0.2,-0.6 0.1,-0.4 0.2,-0.7 0.9,-0.8 0.6,-0.1 h 0.5 l 0.6,0.2 0.4,0.5 0.2,0.6 0.1,1.1 -0.2,4.2 3.1,-2.8 m -2.2,-6.4 -0.5,0.8 0.2,0.6 0.4,0.5 0.6,0.2 0.7,-0.2 1.1,-0.5 0.8,-0.4 h 0.9 l 0.6,0.3 0.6,0.6 0.2,0.7 -0.1,0.4 -0.4,0.8 -0.9,0.8 -0.9,0.4 h -0.4 l -0.6,-0.2 -0.6,-0.7 -0.2,-0.7 v -0.8 l 0.5,-0.8 0.7,-1.1 0.2,-0.6 -0.1,-0.6 -0.4,-0.5 -0.7,-0.2 -0.8,0.4 -1,0.9 M 801,329.1 l 0.5,-0.5 -0.1,-1 -0.2,-0.5 -0.6,-0.8 -1.1,-0.2 -1.5,0.3 -1.4,0.5 -1,0.7 -0.3,0.8 v 0.9 l 0.1,0.3 0.6,0.8 0.8,0.3 h 1 l 0.2,-0.2 0.8,-0.6 0.3,-0.7 v -1 l -0.1,-0.3 -0.6,-0.7 -0.8,-0.3 h -1 m 7,6.1 -5,-1.3 1.6,4.2 m 3.4,-2.9 -5.9,2.3 m 9.8,-17.9 0.6,0.4 0.9,-0.1 0.6,-0.3 0.6,-0.7 0.2,-1 -0.4,-1.5 -0.7,-1.4 -0.8,-0.9 -0.8,-0.3 -0.9,0.1 -0.3,0.2 -0.7,0.6 -0.3,0.8 0.2,1 0.1,0.3 0.7,0.6 0.8,0.3 0.9,-0.1 0.3,-0.2 0.7,-0.6 0.2,-0.8 -0.1,-1 m -5.9,7.6 2.7,-1.3 -0.9,-2.6 -0.1,0.4 -0.7,0.7 -0.8,0.4 -1,0.1 -0.8,-0.2 -0.6,-0.7 -0.3,-0.5 -0.1,-1 0.2,-0.8 0.7,-0.7 0.8,-0.4 1,-0.1 0.4,0.1 0.5,0.5 m 94.1,-125.2 3.4,-6.2 m 0.8,6.4 -4.2,-0.2 m -4.7,-1.2 0.3,0.6 0.9,0.4 h 0.6 l 0.9,-0.2 0.6,-0.9 0.4,-1.5 0.1,-1.5 -0.2,-1.2 -0.6,-0.6 -0.9,-0.4 h -0.3 l -0.9,0.2 -0.6,0.6 -0.4,0.9 v 0.3 l 0.3,0.9 0.5,0.6 0.9,0.4 h 0.3 l 0.9,-0.2 0.7,-0.6 0.3,-0.9 m 28,93 -6.2,3.1 m 2.9,-5.7 3.3,2.6 m 0.4,2.2 0.2,-0.3 0.6,-0.3 h 0.4 l 0.7,0.1 0.9,0.7 0.3,0.6 0.1,0.5 -0.2,0.6 -0.3,0.5 -0.6,0.3 -1.1,0.3 -4.2,0.6 3.4,2.5 m -129.1,-85.5 0.2,-0.6 -0.4,-0.8 -0.4,-0.5 -0.9,-0.4 -1,0.2 -1.3,0.8 -1.1,1 -0.7,1.1 v 0.8 l 0.4,0.9 0.2,0.2 0.9,0.4 0.8,0.1 0.9,-0.4 0.2,-0.3 0.4,-0.8 0.1,-0.8 -0.4,-0.9 -0.3,-0.2 -0.8,-0.5 h -0.8 l -0.9,0.4 m 6.9,1.2 2.3,2.4 -3,0.3 0.7,0.7 0.2,0.6 v 0.4 l -0.5,0.9 -0.4,0.4 -0.9,0.4 h -0.8 l -0.9,-0.5 -0.6,-0.6 -0.4,-0.9 v -0.4 l 0.2,-0.6 m -8.8,-20.9 0.5,0.5 0.9,0.1 0.6,-0.2 0.8,-0.5 0.3,-1 -0.1,-1.5 -0.3,-1.5 -0.6,-1.1 -0.8,-0.4 -0.9,-0.1 -0.3,0.1 -0.8,0.5 -0.4,0.8 -0.1,0.9 0.1,0.3 0.5,0.8 0.7,0.4 1,0.1 0.3,-0.1 0.8,-0.5 0.4,-0.7 0.1,-1 m -7.3,6.3 2.9,-0.8 -0.4,-2.7 -0.2,0.4 -0.8,0.5 -0.9,0.2 h -0.9 l -0.8,-0.5 -0.5,-0.8 -0.1,-0.6 v -0.9 l 0.4,-0.7 0.8,-0.5 0.9,-0.3 1,0.1 0.3,0.2 0.5,0.5 m 81,-11.4 7,-0.3 m -5,4 -2,-3.7 m -1.4,-4.6 -0.4,0.5 0.2,1 0.2,0.5 0.7,0.7 1.1,0.1 1.5,-0.5 1.3,-0.7 0.9,-0.8 0.3,-0.8 -0.2,-0.9 -0.1,-0.3 -0.7,-0.7 -0.8,-0.2 -1,0.1 -0.2,0.2 -0.7,0.7 -0.2,0.8 0.1,0.9 0.2,0.3 0.6,0.6 0.9,0.3 0.9,-0.2 m -29.5,-36.2 -0.2,0.6 0.3,0.9 0.4,0.4 0.8,0.5 1.1,-0.1 1.3,-0.7 1.2,-0.9 0.7,-1 0.1,-0.9 -0.3,-0.8 -0.2,-0.3 -0.8,-0.5 -0.9,-0.1 -0.9,0.4 -0.2,0.2 -0.5,0.8 -0.1,0.8 0.3,0.9 0.2,0.2 0.8,0.5 0.9,0.1 0.9,-0.3 m -7.3,-5.6 0.9,-0.4 0.8,0.1 0.8,0.5 0.2,0.3 0.3,0.8 v 0.9 l -0.6,0.8 -0.2,0.2 -0.9,0.3 -0.8,-0.1 -0.8,-0.5 -0.2,-0.2 -0.3,-0.9 v -0.8 l 0.8,-1 1.1,-1 1.4,-0.7 1.1,-0.1 0.8,0.5 0.3,0.5 0.4,0.9 -0.3,0.6 m -36.7,5.7 0.6,0.2 0.8,-0.5 0.4,-0.4 0.4,-0.9 -0.2,-1 -0.9,-1.3 -1.1,-1 -1.1,-0.6 h -0.8 l -0.8,0.5 -0.2,0.2 -0.4,0.8 v 0.9 l 0.4,0.8 0.3,0.2 0.8,0.4 h 0.9 l 0.8,-0.4 0.2,-0.3 0.4,-0.8 v -0.9 l -0.5,-0.8 m -3.5,8.6 0.6,0.1 0.9,-0.4 0.4,-0.4 0.4,-0.9 -0.3,-1.1 -0.8,-1.2 -1.1,-1 -1.1,-0.6 h -0.9 l -0.8,0.4 -0.2,0.3 -0.4,0.8 v 0.9 l 0.5,0.8 0.2,0.2 0.9,0.4 h 0.8 l 0.8,-0.5 0.2,-0.2 0.4,-0.8 v -0.9 l -0.4,-0.8 m -12.6,27 0.1,-0.7 -0.6,-0.8 -0.5,-0.3 -0.9,-0.3 -1,0.4 -1.1,1 -0.9,1.2 -0.5,1.1 0.2,0.9 0.5,0.8 0.3,0.1 0.9,0.3 0.8,-0.1 0.8,-0.6 0.2,-0.2 0.2,-0.9 -0.1,-0.8 -0.5,-0.8 -0.3,-0.2 -0.9,-0.3 -0.8,0.1 -0.8,0.6 m 9.1,1.4 -4.9,1.6 3.7,2.7 m 1.2,-4.3 -3.7,5.1 m 149.8,2.2 -0.5,-0.8 -0.1,-0.9 0.4,-0.8 0.2,-0.3 0.9,-0.4 0.8,-0.1 0.9,0.4 0.2,0.2 0.5,0.8 v 0.9 l -0.4,0.9 -0.2,0.2 -0.8,0.4 -0.8,0.1 -1.1,-0.6 -1.2,-1 -0.9,-1.2 -0.2,-1.1 0.3,-0.8 0.4,-0.5 0.9,-0.5 0.6,0.2 m -1.2,9.5 -1.1,-5 -3,3.4 m 4.1,1.6 -4.7,-4.2 m 41,46.9 h 0.9 l 0.8,0.3 0.7,0.7 0.1,0.2 0.1,1 -0.4,0.8 -0.7,0.6 -0.2,0.1 -1,0.1 -0.8,-0.3 -0.6,-0.7 -0.1,-0.3 -0.1,-0.9 0.3,-0.8 1,-0.8 1.4,-0.6 1.5,-0.3 1,0.2 0.7,0.7 0.2,0.6 0.1,0.9 -0.5,0.5 m -8.2,-5.5 1.2,2.8 2.6,-0.8 -0.4,-0.2 -0.7,-0.7 -0.3,-0.8 -0.1,-0.9 0.3,-0.8 0.7,-0.7 0.6,-0.2 0.9,-0.1 0.8,0.3 0.6,0.7 0.4,0.8 0.1,1 -0.2,0.4 -0.4,0.5 m -355.5,357.6 3.2,0.5 -2.1,2.1 0.9,0.1 0.6,0.4 0.2,0.3 0.2,1 -0.1,0.6 -0.4,0.8 -0.7,0.5 -0.9,0.2 -0.9,-0.1 -0.8,-0.5 -0.3,-0.3 -0.2,-0.6 m 7.8,-4.1 -1,0.2 -0.7,0.8 -0.5,1.4 -0.1,0.9 0.1,1.5 0.5,1 0.8,0.4 0.6,0.1 0.9,-0.2 0.8,-0.8 0.5,-1.4 0.1,-0.9 -0.1,-1.5 -0.5,-1 -0.8,-0.4 -0.5,-0.1 m -22.6,-33 -1,3.2 -1.7,-2.4 -0.3,0.8 -0.5,0.5 -0.3,0.2 h -1 l -0.6,-0.1 -0.7,-0.6 -0.4,-0.7 -0.1,-1 0.3,-0.9 0.6,-0.7 0.3,-0.2 0.7,-0.1 m 2,6.1 0.1,0.7 0.6,1.1 -6,-1.9 M 996,305.9 l 0.4,-3.3 2.2,2 0.1,-0.8 0.3,-0.6 0.3,-0.3 1,-0.2 0.6,0.1 0.8,0.4 0.6,0.6 0.2,0.9 -0.1,0.9 -0.4,0.9 -0.3,0.3 -0.6,0.2 m -2.1,-9.5 0.8,0.4 0.6,0.6 0.2,1 v 0.3 l -0.4,0.8 -0.7,0.6 -0.9,0.2 h -0.3 l -0.9,-0.4 -0.5,-0.7 -0.2,-0.9 v -0.3 l 0.4,-0.9 0.7,-0.5 1.2,-0.2 1.5,0.1 1.4,0.5 0.9,0.7 0.2,0.9 -0.1,0.6 -0.4,0.9 -0.6,0.2 m -26,6.4 -5.4,4.5 m 1.5,-6.2 3.9,1.7 m 3.7,4 -0.6,0.7 -0.8,0.3 -1,-0.1 -0.2,-0.1 -0.7,-0.7 -0.3,-0.7 v -1 l 0.2,-0.3 0.6,-0.7 0.8,-0.3 1,0.1 0.2,0.2 0.7,0.6 0.3,0.8 -0.2,1.2 -0.6,1.4 -0.9,1.2 -0.9,0.6 -1,-0.1 -0.5,-0.2 -0.7,-0.7 v -0.7"
       id="nums_002"
       stroke="#000000"
       style="stroke-width:1.01549;stroke-dasharray:none" />
    <path
       d="m 848.5,487.1 4.9,19.1 -18.1,25.8 -19.7,1.9 -38,43.8 -22.5,4.3 -36.5,-21.1 -7.4,-21.7 -0.9,21 -26.6,23.9 -20.9,-1.3 -78.1,-10.7 20.7,-67.1 66.9,-49.7 63,1.3 -32.2,-0.6 -23,-29.8 -22.1,-9.3 -21.9,-40.2 4.2,-23.6 -14.6,-16.2 1.1,-38.7 15.4,-15.4 -22.9,3.8 -37.2,-22.3 -7.5,-22 -10.1,-100.3 -11.4,-69.3 16.3,-13.2 35.7,4.2 12.8,16.6 20.3,83.4 20.4,-72.5 18.4,-24.3 59.3,-25.6 30.3,3.2 5.4,18.7 -17.1,25.2 -19.4,1.8 2.5,51 0.5,18.5 -1.9,1.4 -17.6,-5.5 46.3,66.2 37.6,34.4 -51.6,35.5 49.2,56.5 -11.5,-29.9 5.9,-19.6 2.8,-1.4 19.3,7.2 0.7,-71.8 -22,-1.3 -27.4,-28.5 -0.4,-22 30.2,-7.9 -20.5,3.6 -2.6,-1.9 -2.7,-20.6 0.6,-22.5 28.2,-30.1 22.5,-2 20.5,1.4 21.8,26.7 -2.7,20.4 16.8,31.8 17.1,-14.1 3.5,0.2 15.3,15.9 -3.5,-18.6 18.8,-20.8 18.8,1.5 26.7,23.6 31.5,72.5 -0.9,35.6 -5.2,53.1 -57.4,-25.8 -19.6,3.8 -25.5,-19.6 -1.3,-19.9 -11.1,49.4 88.4,8.4 15.5,14.3 1.2,36 -14.5,15.3 14.1,14.4 -2,33.1 -15.8,12.6 4.7,24.8 -21.5,45.1 -22.3,11.9 17.8,8.7 7.8,30.4 -11.3,16.1 -105.6,83.3 -65.4,-25.7 -9.1,-18.7 12.2,-32.7 19.1,-8.2 13.8,-14.3 31.9,1.8 12.2,15.7 0.1,-57.2 -0.3,-19 22.3,-17.9 18.5,4.3 z"
       id="coupes_002"
       stroke="#ff0000"
       style="stroke-width:1.26936"
       sodipodi:nodetypes="ccccccccccccccccccccccccccccccccccccccccccccccccccccccccccccccccccccccccccccccccccccccccccccccccccccccccccc" />
    <path
       d="m 848.5,487.1 -32.9,46.8 m 0,0 -80.3,-77.3 m 0,0 113.2,30.5 M 735.3,456.6 975.6,325 M 735.3,456.6 800.5,348.2 m -120.4,78 120.4,-78 m -65.2,108.4 -55.2,-30.4 m 0,0 -39.8,-73.1 m 0,0 160.2,-4.9 m -160.2,4.9 111,-61.4 m -111,61.4 1.9,-70.3 m 0,0 109.1,8.9 m -109.1,-8.9 123.1,-61 m 0,0 -14,69.9 m -109.1,-8.9 -4,-119.1 m 178.8,140.8 70.2,12.1 m -86.7,31.6 16.5,-43.7 m 0,0 81.3,-37.3 m -80.6,-34.5 80.6,34.5 M 817.7,232.7 880,179.8 m 0,0 18.3,87.4 M 642.2,282.8 574.6,242.3 M 977.8,390.6 899,499.1 m 75.1,-48.4 -75.1,48.4 m 75.1,-48.4 -39.1,81.8 m 0,0 -36,-33.4 M 638.2,163.7 719,155.6 m -7.8,383.6 -38.9,-83.9 M 564.5,142 l 73.7,21.7 m -85.1,-91 64.8,7.6 m 40.7,10.9 79.4,50 m 0,0 -19,14.4 m -60.4,-64.4 76.9,-1 m 31.1,-45.7 -31.1,45.7 m -76.9,1 108,-46.7 m 91.9,487.2 40.5,-32.6 m 36,33.4 -76.6,56.4 m 76.6,-56.4 14.3,55.2 M 843.7,671 858.4,588.9 m -80.1,56.4 22.2,-59.6 M 662.8,582.8 605.4,505 M 880,179.8 l 35.9,2 m 28.8,121.1 -46.4,-35.7 m 17.6,-85.4 91.4,93.8 M 798.1,173 880,179.8 M 817.7,232.7 798.1,173 m 19.6,59.7 -49.8,-51.8 m 30.2,-7.9 25.5,-73.5 m 0,0 39.6,48.5 m 86.8,-4.1 57.3,131.7"
       id="plisM_002"
       stroke="#a52a2a"
       stroke-dasharray="4" />
    <path
       d="m 735.3,456.6 242.5,-66 m 0,0 -129.3,96.5 M 975.6,325 l 2.2,65.6 m -242.5,66 151.9,-140 m -86.7,31.6 86.7,-31.6 m -249,-152.9 127.1,58.1 m -190.7,20.5 63.6,-78.6 m 339.6,226.9 -3.7,60.1 M 815.6,533.9 672.3,455.3 m 143.3,78.6 -104.4,5.3 M 564.5,142 617.9,80.3 m 40.7,10.9 60.4,64.4 m 58.6,422.1 -66.4,-38.5 m 223.8,-6.7 -76.5,-0.8 m 90.8,56 -90.9,1.2 m -57.9,-3.2 57.9,3.2 M 843.7,671 800.5,585.7 M 711.2,539.2 605.4,505 m 105.8,34.2 -48.4,43.6 M 789,318.3 817,304.5 m 98.9,-122.7 -17.6,85.4 m 17.6,-85.4 28.8,121.1 m 62.6,-27.3 -62.6,27.3 M 798.1,173 863.2,148 m -90.9,6.1 51.3,-54.6 M 798.1,173 772.3,154.1 m 143.6,27.7 34.1,-37.9"
       id="plisV_002"
       stroke="#008000"
       stroke-dasharray="4, 1, 1, 1"
       style="stroke-width:1.26936" />
    <path
       d="m 854.6,421.6 4,4 m 0,-4 -4,4 m 56.5,11.2 4,4 m 0,-4 -4,4 m 63.6,-85 4,4 m 0,-4 -4,4 m -165.5,24.8 4,4 m 0,-4 -4,4 m 32.6,-58.2 4,4 m 0,-4 -4,4 m -142,-143.7 4,4 m 0,-4 -4,4 m -95.4,6.3 4,4 m 0,-4 -4,4 m 369.5,213.6 4,4 m 0,-4 -4,4 m -231.9,70 4,4 m 0,-4 -4,4 m 19.4,38 4,4 m 0,-4 -4,4 m -172.2,-429.5 4,4 m 0,-4 -4,4 m 97.6,8.3 4,4 m 0,-4 -4,4 m 55.6,431.1 4,4 m 0,-4 -4,4 m 152.4,-30.4 4,4 m 0,-4 -4,4 m 7,52.2 4,4 m 0,-4 -4,4 m -74.4,-5 4,4 m 0,-4 -4,4 m -7.3,37.1 4,4 m 0,-4 -4,4 m -163.8,-110.3 4,4 m 0,-4 -4,4 m 28.7,34.9 4,4 m 0,-4 -4,4 m 116,-253.6 4,4 m 0,-4 -4,4 m 104.1,-90.9 4,4 m 0,-4 -4,4 m 23.2,13.8 4,4 m 0,-4 -4,4 m 45.7,42.9 4,4 m 0,-4 -4,4 m -145.3,-132.7 4,4 m 0,-4 -4,4 m -32.8,-37.7 4,4 m 0,-4 -4,4 m -12.7,32.8 4,4 m 0,-4 -4,4 m 147.8,-4.8 4,4 m 0,-4 -4,4"
       id="marqueV_002"
       stroke="#008000" />
    <path
       d="m 797.6,315.1 v -0.8 l 0.8,-1.5 0.7,-0.7 1.5,-0.8 h 3 l 1.5,0.8 0.8,0.7 0.7,1.5 v 1.5 l -0.7,1.5 -1.5,2.3 -7.5,7.5 h 10.5"
       id="titre_2"
       stroke="#4b0082"
       style="stroke-width:1.26936" />
  </g>
  <g
     id="page_003">
    <path
       d="m 1479.9,169.2 -0.6,2.9 2.6,0.9 -0.2,-0.4 -0.1,-0.9 0.1,-0.9 0.5,-0.8 0.7,-0.5 1,-0.1 0.6,0.1 0.8,0.5 0.4,0.7 0.1,0.9 -0.1,0.9 -0.5,0.8 -0.4,0.3 -0.6,0.1 m -2.3,-9.6 -0.7,0.2 -0.4,0.8 -0.2,0.6 0.2,1 0.7,0.7 1.4,0.6 1.5,0.3 h 1.2 l 0.7,-0.5 0.5,-0.8 0.1,-0.3 -0.1,-0.9 -0.5,-0.8 -0.8,-0.4 -0.3,-0.1 -1,0.1 -0.7,0.5 -0.4,0.8 -0.1,0.3 0.1,0.9 0.5,0.8 0.8,0.4 m -208.8,204.7 -4.8,1.9 3.8,2.5 m 1,-4.4 -3.4,5.3 m -30.4,-178.8 -0.8,-0.5 -0.4,-0.8 v -0.9 l 0.1,-0.3 0.6,-0.8 0.8,-0.4 h 0.9 l 0.3,0.1 0.7,0.6 0.4,0.8 v 0.9 l -0.1,0.3 -0.6,0.8 -0.7,0.3 -1.2,-0.1 -1.5,-0.4 -1.3,-0.8 -0.7,-0.9 0.1,-0.9 0.1,-0.6 0.6,-0.7 0.7,-0.1 m 44.8,-31.1 -0.5,0.5 -0.6,1.1 -1.7,-6.1 m -1.1,7 0.8,-0.5 0.3,-1 -0.1,-1.5 -0.2,-0.9 -0.7,-1.4 -0.8,-0.7 h -1 l -0.5,0.1 -0.8,0.5 -0.4,1.1 0.1,1.5 0.3,0.9 0.6,1.3 0.9,0.7 0.9,0.1 0.4,-0.1 m 81.8,-95.3 1.9,-2.2 -1.8,-2 v 0.4 l -0.3,0.9 -0.6,0.7 -0.8,0.4 -0.9,0.1 -0.9,-0.4 -0.4,-0.4 -0.5,-0.8 v -0.9 l 0.3,-0.8 0.6,-0.7 0.8,-0.5 h 0.5 l 0.6,0.2 m -1.7,9.8 -1.2,-5.1 -3,3.4 m 4.2,1.7 -4.8,-4.2 m 49.8,-1.7 2.5,1.7 1.8,-2.2 -0.5,0.1 -0.9,-0.2 -0.7,-0.5 -0.6,-0.7 -0.2,-0.8 0.2,-1 0.3,-0.5 0.8,-0.6 0.8,-0.2 0.9,0.3 0.8,0.5 0.6,0.7 0.1,0.4 -0.1,0.7 m -7.8,1.1 -2.7,-1.8 2.8,-1 -0.8,-0.5 -0.3,-0.6 -0.1,-0.4 0.2,-0.9 0.3,-0.5 0.8,-0.6 0.8,-0.2 0.9,0.2 0.8,0.5 0.6,0.7 0.1,0.4 -0.1,0.7 m -294.9,213.3 h 0.3 l 0.6,0.2 0.3,0.3 0.3,0.6 0.1,1.2 -0.2,0.6 -0.3,0.3 -0.6,0.4 h -0.6 l -0.6,-0.3 -1,-0.5 -3.1,-2.8 0.2,4.2 m 6.5,2.2 -0.4,-0.8 -0.6,-0.3 h -0.6 l -0.6,0.4 -0.3,0.6 -0.2,1.2 -0.2,0.9 -0.6,0.6 -0.6,0.4 h -0.9 l -0.6,-0.2 -0.3,-0.3 -0.4,-0.9 v -1.2 l 0.2,-0.9 0.3,-0.3 0.6,-0.4 h 0.9 l 0.6,0.2 0.6,0.6 0.4,0.9 0.3,1.2 0.4,0.6 0.6,0.2 h 0.6 l 0.6,-0.3 0.2,-1 -0.1,-1.3 m 88.1,-77.8 0.9,-0.4 h 0.8 l 0.8,0.5 0.3,0.2 0.3,0.9 v 0.8 l -0.4,0.8 -0.3,0.2 -0.8,0.4 h -0.9 l -0.8,-0.4 -0.2,-0.3 -0.4,-0.8 v -0.9 l 0.7,-1 1.1,-1 1.3,-0.8 1.1,-0.2 0.8,0.4 0.4,0.5 0.4,0.8 -0.2,0.7 m -106.8,1.1 0.4,0.5 1.1,0.7 -6.1,1.5 m 5.2,0.4 0.3,-0.1 0.7,0.2 0.4,0.2 0.4,0.5 0.3,1.2 -0.2,0.6 -0.2,0.4 -0.5,0.4 -0.6,0.2 -0.6,-0.2 -1,-0.3 -3.7,-2.2 1,4.1 m 16.5,145.7 -0.1,3.3 -2.3,-1.9 -0.1,0.9 -0.3,0.6 -0.3,0.3 -0.9,0.2 h -0.6 l -0.9,-0.3 -0.6,-0.7 -0.2,-0.9 v -0.9 l 0.3,-0.9 0.4,-0.3 0.6,-0.2 m 3.3,6 h 0.3 l 0.6,0.3 0.3,0.4 0.2,0.6 v 1.2 l -0.4,0.6 -0.3,0.2 -0.6,0.3 h -0.6 l -0.6,-0.3 -0.8,-0.7 -2.9,-3.1 -0.2,4.2 m 96.4,22 2.3,4.6 2.1,-4 m -4.4,-0.6 5.6,2.9 m -64.8,23.2 -1,0.1 -0.4,0.5 -0.2,0.5 0.2,0.7 0.5,0.4 1.1,0.6 0.8,0.6 0.4,0.7 0.1,0.6 -0.2,0.9 -0.4,0.5 -0.4,0.2 -1,0.1 -1.1,-0.3 -0.8,-0.5 -0.2,-0.4 -0.2,-0.6 0.3,-0.9 0.4,-0.5 0.7,-0.4 1,-0.1 h 1.2 l 0.7,-0.1 0.4,-0.5 0.2,-0.6 -0.2,-0.7 -0.8,-0.5 -1.3,-0.3 m 7.4,1.9 -2.9,-0.8 -1,2.6 0.4,-0.3 h 0.9 l 0.9,0.2 0.8,0.5 0.4,0.8 0.1,0.9 -0.2,0.6 -0.5,0.8 -0.7,0.4 -1,0.1 -0.9,-0.3 -0.8,-0.5 -0.2,-0.3 -0.1,-0.7 m 378,-160.2 -0.3,0.1 -0.6,-0.3 -0.4,-0.2 -0.3,-0.6 -0.1,-1.2 0.2,-0.6 0.3,-0.4 0.5,-0.3 0.6,-0.1 0.7,0.3 0.9,0.5 3.3,2.7 -0.4,-4.2 m -6.7,-4.1 0.2,3 h 2.8 l -0.4,-0.3 -0.4,-0.8 v -0.9 l 0.2,-0.9 0.5,-0.7 0.9,-0.4 h 0.6 l 0.9,0.2 0.7,0.5 0.3,0.9 0.1,0.9 -0.2,0.9 -0.3,0.3 -0.5,0.4 m -18.5,-81.9 1.6,-2.6 -2.2,-1.6 0.1,0.4 -0.2,0.9 -0.5,0.8 -0.7,0.6 -0.8,0.2 -0.9,-0.2 -0.6,-0.3 -0.6,-0.7 -0.2,-0.9 0.2,-0.9 0.5,-0.8 0.7,-0.6 0.4,-0.1 0.7,0.1 m -1,9.8 0.6,0.1 0.8,-0.7 0.3,-0.5 0.2,-0.9 -0.5,-1 -1.1,-1 -1.3,-0.8 -1.2,-0.3 -0.8,0.2 -0.7,0.6 -0.2,0.2 -0.2,1 0.2,0.8 0.6,0.7 0.3,0.2 0.9,0.2 0.8,-0.2 0.8,-0.7 0.1,-0.2 0.2,-0.9 -0.2,-0.9 -0.6,-0.7 m 36.9,238.2 4.7,2.1 -0.9,-4.4 m -3.8,2.3 6.2,-1.3 m -7,-3.1 0.4,0.8 1,0.4 h 1.6 l 0.8,-0.1 1.5,-0.6 0.7,-0.8 0.1,-0.9 -0.1,-0.6 -0.5,-0.9 -1,-0.4 h -1.5 l -0.9,0.2 -1.4,0.6 -0.7,0.8 -0.2,0.9 0.1,0.4 m -254,73.8 -4.8,1.9 3.7,2.4 m 1.1,-4.3 -3.5,5.2 m 9,-1.6 -5.9,3.7 m 2.4,-5.9 3.5,2.2 m 0.1,-45.3 0.4,-0.9 -0.3,-0.6 -0.4,-0.4 -0.7,-0.2 -0.6,0.3 -1,0.7 -0.8,0.5 h -0.9 l -0.6,-0.1 -0.7,-0.6 -0.3,-0.6 v -0.4 l 0.4,-0.9 0.7,-0.9 0.9,-0.5 h 0.4 l 0.6,0.1 0.7,0.6 0.3,0.6 v 0.9 l -0.3,0.8 -0.6,1.2 -0.2,0.6 0.3,0.6 0.5,0.4 0.6,0.2 0.8,-0.5 0.9,-1 m -4.9,5.7 1.9,-2.3 -1.8,-1.9 v 0.4 l -0.4,0.9 -0.5,0.6 -0.9,0.5 -0.8,0.1 -0.9,-0.4 -0.4,-0.4 -0.5,-0.8 -0.1,-0.8 0.4,-0.9 0.6,-0.7 0.8,-0.5 h 0.4 l 0.6,0.2 m 204.5,-22 -0.6,-0.7 h -0.7 l -0.6,0.3 -0.4,0.5 v 0.7 l 0.2,1.2 0.1,0.9 -0.3,0.8 -0.4,0.5 -0.8,0.4 h -0.7 l -0.4,-0.2 -0.6,-0.7 -0.5,-1.1 -0.1,-0.9 0.1,-0.4 0.4,-0.5 0.9,-0.4 h 0.6 l 0.8,0.3 0.7,0.7 0.7,1 0.6,0.4 h 0.6 l 0.6,-0.2 0.4,-0.5 -0.1,-1 -0.6,-1.2 m 3.4,7.3 -7,-0.1 m 5.2,-3.7 1.8,3.8 m -123.8,83.5 0.2,0.9 0.5,0.4 0.6,0.1 0.7,-0.3 0.3,-0.5 0.5,-1.2 0.4,-0.8 0.6,-0.6 0.7,-0.2 0.8,0.1 0.6,0.4 0.3,0.3 0.2,0.9 -0.2,1.2 -0.4,0.9 -0.3,0.3 -0.6,0.2 -0.9,-0.1 -0.6,-0.4 -0.5,-0.6 -0.2,-1 -0.2,-1.2 -0.2,-0.6 -0.6,-0.4 -0.6,-0.1 -0.6,0.3 -0.4,0.8 -0.1,1.4 m 0.6,-5.5 0.2,0.9 0.5,0.4 0.6,0.1 0.7,-0.3 0.3,-0.5 0.5,-1.2 0.4,-0.8 0.6,-0.6 0.7,-0.2 0.9,0.1 0.5,0.4 0.3,0.3 0.2,0.9 -0.2,1.2 -0.4,0.9 -0.3,0.2 -0.6,0.3 -0.9,-0.1 -0.6,-0.4 -0.5,-0.7 -0.2,-0.9 -0.2,-1.2 -0.2,-0.6 -0.5,-0.4 -0.6,-0.1 -0.7,0.2 -0.4,0.9 -0.1,1.3 m -24.5,10.7 -2.7,-1.2 -1.4,2.4 0.4,-0.1 h 1 l 0.8,0.4 0.7,0.6 0.3,0.8 v 0.9 l -0.3,0.6 -0.6,0.7 -0.8,0.3 -0.9,-0.1 -0.9,-0.3 -0.7,-0.6 -0.1,-0.4 -0.1,-0.7 m 6.8,-1 0.2,-0.3 0.5,-0.4 0.4,-0.2 h 0.6 l 1.1,0.4 0.5,0.6 0.1,0.3 0.1,0.7 -0.3,0.6 -0.5,0.4 -0.9,0.6 -3.9,1.6 3.8,1.6 m 60,-47.8 -1,0.1 -0.4,0.5 -0.2,0.6 0.2,0.6 0.5,0.4 1.1,0.6 0.8,0.5 0.4,0.7 0.2,0.7 -0.2,0.9 -0.5,0.5 -0.3,0.2 -1,0.1 -1.1,-0.3 -0.8,-0.5 -0.3,-0.4 -0.1,-0.6 0.2,-0.9 0.4,-0.5 0.8,-0.4 0.9,-0.1 h 1.2 l 0.7,-0.2 0.4,-0.5 0.2,-0.6 -0.2,-0.6 -0.8,-0.5 -1.3,-0.4 m 5.4,1.3 -1,0.1 -0.4,0.5 -0.2,0.6 0.2,0.7 0.5,0.4 1.1,0.6 0.8,0.5 0.4,0.7 0.2,0.7 -0.2,0.8 -0.5,0.5 -0.3,0.3 h -1 l -1.1,-0.2 -0.8,-0.5 -0.3,-0.4 -0.1,-0.7 0.2,-0.8 0.4,-0.5 0.8,-0.5 0.9,-0.1 h 1.2 l 0.7,-0.1 0.4,-0.5 0.2,-0.6 -0.2,-0.7 -0.8,-0.5 -1.3,-0.3 m 32.3,-9 -1.8,2.4 2,1.8 v -0.4 l 0.2,-0.9 0.6,-0.7 0.7,-0.6 0.9,-0.1 0.9,0.3 0.5,0.3 0.5,0.8 0.2,0.8 -0.3,0.9 -0.5,0.8 -0.8,0.5 -0.4,0.1 -0.7,-0.1 m 0.1,-6.4 0.1,-0.7 -0.2,-1.3 5.1,3.7 m 9.3,-38.7 0.2,0.9 0.6,0.4 0.6,0.1 0.6,-0.2 0.4,-0.6 0.4,-1.1 0.4,-0.9 0.7,-0.5 0.6,-0.2 0.9,0.1 0.6,0.4 0.2,0.3 0.2,0.9 -0.1,1.2 -0.4,0.9 -0.4,0.2 -0.6,0.3 -0.9,-0.2 -0.6,-0.3 -0.5,-0.7 -0.2,-0.9 -0.1,-1.3 -0.2,-0.6 -0.6,-0.4 h -0.6 l -0.6,0.2 -0.4,0.8 -0.2,1.4 m 1.1,-8 5.8,3.8 m -6.4,0.3 0.6,-4.1 m 66.4,41.7 -1.9,2.2 1.8,2 v -0.4 l 0.4,-0.9 0.6,-0.7 0.8,-0.5 h 0.8 l 0.9,0.3 0.4,0.4 0.5,0.8 0.1,0.9 -0.4,0.9 -0.5,0.7 -0.9,0.4 -0.4,0.1 -0.6,-0.2 m 0.8,-8.7 -0.4,0.8 0.3,1.1 0.9,1.2 0.7,0.6 1.3,0.7 1.1,0.1 0.8,-0.4 0.4,-0.5 0.4,-0.9 -0.3,-1 -1,-1.2 -0.6,-0.6 -1.4,-0.8 -1,-0.1 -0.9,0.5 -0.3,0.3 m -19.9,2 -1.5,-2.6 -2.5,1 0.4,0.2 0.7,0.6 0.5,0.8 0.2,0.9 -0.2,0.8 -0.7,0.7 -0.5,0.3 -0.9,0.2 -0.8,-0.2 -0.8,-0.6 -0.4,-0.8 -0.2,-0.9 0.1,-0.5 0.4,-0.5 m 5.8,2.7 0.6,0.4 1.2,0.3 -5.5,3.2 m -407.5,-323.6 -0.1,-1 -0.5,-0.4 -0.6,-0.2 -0.7,0.2 -0.4,0.5 -0.6,1.1 -0.5,0.8 -0.7,0.4 -0.7,0.2 -0.9,-0.3 -0.5,-0.4 -0.2,-0.4 v -0.9 l 0.2,-1.2 0.6,-0.8 0.3,-0.2 0.7,-0.1 0.8,0.2 0.6,0.4 0.4,0.8 0.1,0.9 v 1.2 l 0.1,0.7 0.5,0.4 0.6,0.2 0.6,-0.2 0.6,-0.8 0.3,-1.3 m 78.6,4.7 -0.3,-0.6 -0.9,-0.9 6.3,-0.1 m -6.5,-2.9 0.3,0.9 0.9,0.6 1.5,0.3 h 0.9 l 1.5,-0.3 0.9,-0.6 0.3,-0.9 v -0.6 l -0.3,-0.9 -0.9,-0.6 -1.5,-0.3 h -0.9 l -1.5,0.3 -0.9,0.6 -0.3,0.9 v 0.5 m -33.1,-24.4 3,-0.1 0.2,-2.7 -0.3,0.3 -0.8,0.4 h -0.9 l -1,-0.3 -0.6,-0.6 -0.3,-0.9 v -0.6 l 0.3,-0.9 0.6,-0.6 0.9,-0.3 h 0.9 l 0.9,0.2 0.3,0.3 0.3,0.6 m -8.8,5.3 3,-0.1 0.2,-2.7 -0.3,0.3 -0.9,0.4 h -0.9 l -0.9,-0.3 -0.6,-0.6 -0.3,-0.9 V 117 l 0.3,-0.9 0.5,-0.6 0.9,-0.3 h 0.9 l 0.9,0.2 0.3,0.3 0.4,0.6 m 142.1,-2.3 -2.2,-2 -2,1.9 0.4,-0.1 0.9,0.4 0.7,0.6 0.4,0.8 0.1,0.9 -0.4,0.8 -0.4,0.5 -0.8,0.5 h -0.8 l -0.9,-0.3 -0.7,-0.6 -0.5,-0.8 v -0.5 l 0.2,-0.6 m 10.1,2 -2.3,-1.9 -2,1.8 h 0.4 l 0.9,0.3 0.7,0.6 0.4,0.8 0.1,0.9 -0.4,0.9 -0.4,0.4 -0.8,0.5 h -0.8 l -0.9,-0.3 -0.7,-0.6 -0.5,-0.8 v -0.5 l 0.2,-0.6 m 27.2,-49.2 1.6,2.6 2.4,-1.2 -0.4,-0.1 -0.7,-0.6 -0.5,-0.8 -0.2,-0.9 0.2,-0.8 0.6,-0.7 0.5,-0.3 0.9,-0.3 0.8,0.2 0.7,0.6 0.5,0.8 0.2,0.9 -0.1,0.4 -0.3,0.6 m -8.9,-4.5 5.2,0.3 -2.4,-3.8 m -2.8,3.5 5.4,-3.3 m -79.6,-4.2 2,2.7 h -3 l 0.5,0.7 0.1,0.6 -0.1,0.5 -0.5,0.7 -0.5,0.4 -0.9,0.3 -0.8,-0.2 -0.8,-0.5 -0.5,-0.7 -0.3,-0.9 v -0.5 l 0.3,-0.5 m 24.8,-16.6 0.9,-0.3 0.6,-1 0.3,-1.5 v -0.9 l -0.4,-1.5 -0.6,-0.8 -0.9,-0.3 h -0.6 l -0.9,0.3 -0.6,0.9 -0.2,1.5 v 0.9 l 0.3,1.5 0.6,0.9 0.9,0.3 h 0.4 m 261.5,48.8 -0.6,-0.1 -0.8,0.6 -0.3,0.5 -0.3,0.9 0.5,1 1.1,1.1 1.2,0.8 1.2,0.4 0.8,-0.2 0.8,-0.5 0.1,-0.3 0.3,-0.9 -0.2,-0.8 -0.6,-0.8 -0.2,-0.1 -1,-0.3 -0.8,0.2 -0.7,0.6 -0.2,0.2 -0.2,0.9 0.1,0.9 0.6,0.7 m -55.8,-48.9 1.1,-2.8 -2.4,-1.3 0.2,0.4 v 1 l -0.4,0.8 -0.6,0.7 -0.8,0.4 -0.9,-0.1 -0.6,-0.2 -0.7,-0.6 -0.3,-0.8 v -0.9 l 0.4,-0.9 0.6,-0.7 0.4,-0.2 h 0.6 m 2.6,7.4 -1.2,3 -1.6,-2.5 -0.3,0.8 -0.5,0.5 -0.4,0.1 h -1 l -0.5,-0.2 -0.7,-0.7 -0.4,-0.7 0.1,-1 0.3,-0.8 0.6,-0.7 0.4,-0.2 0.7,-0.1 m 56.2,-23.6 0.9,-0.3 0.7,-0.9 0.4,-1.4 v -0.9 l -0.2,-1.6 -0.6,-0.9 -0.8,-0.3 -0.6,-0.1 -0.9,0.3 -0.7,0.8 -0.4,1.5 v 0.9 l 0.2,1.5 0.5,1 0.9,0.3 h 0.5 m 32.6,14.9 -0.1,-0.7 -0.7,-1.1 6.1,1.7"
       id="nums_003"
       stroke="#000000"
       style="stroke-width:1.01549;stroke-dasharray:none" />
    <path
       d="m 1466.7,451.3 -28.8,40.4 -57.8,-14 13.4,15 -3.8,32.5 -16.4,11.5 -19.7,8 -33.7,-14.4 -8,-19.7 -21.4,4.1 -32.4,-21 -5.1,-21.2 1.6,-24.8 31.8,-36.9 24.3,-5.3 -79.9,-51.3 3.4,25.9 -24.3,46.2 -23.2,11.9 -85.7,-22.4 -13.8,-23.4 2.6,-55.4 16.1,-22 -3.7,-64.9 -18.8,-74.4 15.6,-61.7 85.7,-1.7 15.1,15.3 0.3,37.5 -14.9,15.4 41.5,44.4 -9.8,-17.8 10.7,-31.6 18.6,-8.2 65.8,-17.8 -24.4,-1.4 -35.5,-31.1 -4.7,-24 -21.4,-3.9 -22.8,-31.2 2.7,-21.6 20.5,-15.2 50.3,-0.4 20.8,14.9 35.3,56.7 -1.3,-21.2 24.3,-27.5 21.2,-1.4 60.4,38.4 -8,-20.5 14.5,-36.6 19.9,-9.4 91.3,5.2 9,23.2 -1.2,4.2 -19.9,15 1.9,24.5 -26.1,40 -23.2,8.2 8.8,31.2 v 0 l -23.3,38.6 36.9,-61 19.9,50.4 12.1,126.6 -9.9,53.2 18,13.5 8.1,40.2 -11.4,19.4 2.9,19.7 -20.7,24.1 -19.9,0.2 -24.1,-11.9 -2.5,-4.3 1.9,-26.8 -23.2,-14.8 3.7,-28.1 z"
       id="coupes_003"
       stroke="#ff0000"
       style="stroke-width:1.26936"
       sodipodi:nodetypes="cccccccccccccccccccccccccccccccccccccccccccccccccccccccccccccccccccccccccccccc" />
    <path
       d="m 1495.6,134.4 -14.5,69.8 m 0,0 -43.7,-123.6 m 0,0 58.2,53.8 m -14.5,69.8 -8.2,200.4 m 0,0 -92.8,73.1 m 0,0 -69.4,-72.2 m 0,0 126.7,-324.9 M 1230.8,354.2 1312,149.5 m 0,0 125.4,-68.9 m -125.4,68.9 20.8,-57.2 m 0,0 104.6,-11.7 m -206.6,273.6 -4.1,-129.3 m 0,0 85.3,-75.4 m -85.3,75.4 19.5,-57.6 m 86.6,-75 44.2,-50.1 m -146.2,312 -124.9,-39.2 m 0,0 120.8,-90.1 m -124.5,25.2 124.5,-25.2 m -124.5,25.2 83,-69.6 m 45.6,173.7 -129.8,61.6 m 129.8,-61.6 -44.1,84 m 353.4,-64.8 -67.2,31.2 m 8.2,-200.4 59,169.2 m -22.1,-230.2 22.1,230.2 m 0,0 14.7,73.1 m 0,0 -81.9,-41.9 m -92.8,73.1 -68.2,32.9 m 0,0 -1.2,-105.1 m 1.2,105.1 -58.9,-38.1 m 301.8,-26 -62.4,1 m 0,0 -19.5,-42.9 m -92.8,73.1 -6.8,59 m 0,0 -61.4,-26.1 m 242.9,-64.1 -37.7,44 m 0,0 -24.7,-43 M 1099,114 l 86.2,66.5 m -0.5,-68.2 0.5,68.2 m 62.2,-87.5 85.4,-0.7 m -85.4,0.7 50.1,-57.4 M 1247.4,93 1205.9,36.3 m 0,0 91.6,-0.7 m 245.5,26.1 -47.4,72.7 M 1437.4,80.6 1543,61.7 m -79.2,-47.6 79.2,47.6 m -105.6,18.9 26.4,-66.5 m 91.3,5.2 -12.1,42.4"
       id="plisM_003"
       stroke="#a52a2a"
       stroke-dasharray="4" />
    <path
       d="m 1472.9,404.6 -35.5,-324 m -57.3,397.1 57.3,-397.1 M 1230.8,354.2 1437.4,80.6 m -354,95.1 101.8,4.8 M 1101,415.8 1105.9,315 m 147.1,157.5 57.7,-67 m 162.2,-0.9 -35,87.1 M 1312,149.5 1247.4,93"
       id="plisV_003"
       stroke="#008000"
       stroke-dasharray="4, 1, 1, 1"
       style="stroke-width:1.26936" />
    <path
       d="m 1453.1,240.6 4,4 m 0,-4 -4,4 m -46.3,32.5 4,4 m 0,-4 -4,4 m -74.7,-65.7 4,4 m 0,-4 -4,4 m -199.8,-43.3 4,4 m 0,-4 -4,4 m -30.8,183.3 4,4 m 0,-4 -4,4 m 178.3,69.6 4,4 m 0,-4 -4,4 m 173.6,5.1 4,4 m 0,-4 -4,4 m -175.7,-330.8 4,4 m 0,-4 -4,4"
       id="marqueV_003"
       stroke="#008000" />
    <path
       d="m 1322.2,267.7 h 8.3 l -4.5,6 h 2.2 l 1.5,0.8 0.8,0.7 0.7,2.3 v 1.5 l -0.7,2.2 -1.5,1.5 -2.3,0.8 h -2.2 l -2.3,-0.8 -0.7,-0.7 -0.8,-1.5"
       id="titre_3"
       stroke="#4b0082"
       style="stroke-width:1.26936" />
  </g>
</svg>
