<?xml version="1.0" encoding="UTF-8" standalone="no"?>
<svg
   height="297mm"
   viewBox="0 0 533 754"
   width="210mm"
   version="1.1"
   id="svg1"
   sodipodi:docname="moai130_H20_lang_A3x3.svg"
   inkscape:version="1.3 (1:1.3+202307231459+0e150ed6c4)"
   xmlns:inkscape="http://www.inkscape.org/namespaces/inkscape"
   xmlns:sodipodi="http://sodipodi.sourceforge.net/DTD/sodipodi-0.dtd"
   xmlns="http://www.w3.org/2000/svg"
   xmlns:svg="http://www.w3.org/2000/svg">
  <defs
     id="defs1" />
  <sodipodi:namedview
     id="namedview1"
     pagecolor="#ffffff"
     bordercolor="#000000"
     borderopacity="0.25"
     inkscape:showpageshadow="2"
     inkscape:pageopacity="0.0"
     inkscape:pagecheckerboard="0"
     inkscape:deskcolor="#d1d1d1"
     inkscape:document-units="mm"
     showgrid="false"
     inkscape:zoom="0.48130585"
     inkscape:cx="1190.5112"
     inkscape:cy="510.07068"
     inkscape:window-width="1920"
     inkscape:window-height="1007"
     inkscape:window-x="0"
     inkscape:window-y="0"
     inkscape:window-maximized="1"
     inkscape:current-layer="svg1" />
  <style
     type="text/css"
     id="style1"><![CDATA[
			path {
				fill: none;
				stroke-width: 0.15mm;
			}
		]]></style>
  <g
     id="page_001">
    <path
       d="M 128.8 131.2 L 123.6 130.6 L 125.9 134.6 M 128.8 131.2 L 123.3 134.3 M 131.8 136.6 L 130.3 134.0 L 127.8 135.1 L 128.2 135.2 L 128.9 135.8 L 129.4 136.6 L 129.6 137.5 L 129.3 138.4 L 128.7 139.1 L 128.2 139.4 L 127.3 139.6 L 126.4 139.3 L 125.7 138.7 L 125.3 137.9 L 125.1 137.0 L 125.2 136.6 L 125.6 136.0 M 169.5 149.1 L 169.2 154.3 L 173.0 151.9 M 169.5 149.1 L 172.8 154.5 M 175.3 146.6 L 174.7 146.3 L 173.8 146.5 L 173.3 146.8 L 172.7 147.5 L 172.7 148.6 L 173.2 150.1 L 174.0 151.3 L 174.9 152.2 L 175.7 152.4 L 176.6 152.2 L 176.9 152.0 L 177.5 151.3 L 177.7 150.5 L 177.5 149.5 L 177.3 149.3 L 176.6 148.7 L 175.8 148.5 L 174.8 148.7 L 174.6 148.9 L 174.0 149.6 L 173.8 150.4 L 174.0 151.3 M 156.6 44.7 L 158.7 40.0 L 154.3 40.8 M 156.6 44.7 L 155.3 38.5 M 152.2 45.5 L 153.0 45.0 L 153.4 44.0 L 153.4 42.5 L 153.2 41.6 L 152.6 40.2 L 151.9 39.4 L 150.9 39.3 L 150.4 39.4 L 149.5 39.9 L 149.1 40.9 L 149.1 42.4 L 149.3 43.3 L 149.9 44.7 L 150.6 45.5 L 151.6 45.6 L 152.0 45.5 M 309.7 32.4 L 309.8 32.7 L 309.5 33.3 L 309.2 33.7 L 308.6 34.0 L 307.4 34.0 L 306.8 33.7 L 306.5 33.4 L 306.2 32.9 L 306.1 32.3 L 306.4 31.6 L 307.0 30.7 L 309.9 27.6 L 305.7 27.8 M 301.2 34.2 L 304.2 34.1 L 304.4 31.4 L 304.1 31.7 L 303.2 32.1 L 302.3 32.1 L 301.4 31.8 L 300.8 31.2 L 300.4 30.3 L 300.4 29.7 L 300.7 28.8 L 301.3 28.2 L 302.2 27.9 L 303.1 27.9 L 304.0 28.1 L 304.3 28.4 L 304.6 29.0 M 217.5 188.9 L 217.5 192.2 L 215.1 190.5 L 215.1 191.4 L 214.8 192.0 L 214.5 192.3 L 213.6 192.6 L 213.0 192.6 L 212.1 192.4 L 211.5 191.8 L 211.2 190.9 L 211.2 190.0 L 211.5 189.1 L 211.8 188.8 L 212.4 188.5 M 216.8 197.3 L 217.3 197.0 L 217.6 196.1 L 217.6 195.5 L 217.3 194.6 L 216.4 194.0 L 214.9 193.8 L 213.4 193.8 L 212.2 194.1 L 211.6 194.7 L 211.3 195.6 L 211.3 195.9 L 211.6 196.8 L 212.3 197.4 L 213.2 197.7 L 213.5 197.7 L 214.4 197.4 L 214.9 196.8 L 215.2 195.8 L 215.2 195.5 L 214.9 194.7 L 214.3 194.1 L 213.4 193.8 M 320.0 177.1 L 319.5 176.7 L 318.3 176.2 L 324.0 173.6 M 317.0 173.9 L 317.6 174.6 L 318.3 174.6 L 318.8 174.4 L 319.3 173.9 L 319.3 173.2 L 319.1 172.0 L 319.0 171.0 L 319.3 170.2 L 319.7 169.7 L 320.5 169.3 L 321.2 169.4 L 321.6 169.5 L 322.2 170.2 L 322.7 171.3 L 322.8 172.2 L 322.7 172.6 L 322.2 173.2 L 321.4 173.5 L 320.8 173.5 L 320.0 173.2 L 319.3 172.5 L 318.5 171.6 L 318.0 171.1 L 317.3 171.1 L 316.8 171.4 L 316.4 171.9 L 316.5 172.8 L 317.0 174.1 M 330.8 246.2 L 330.5 245.6 L 329.6 244.8 L 335.9 244.6 M 329.2 240.5 L 333.5 243.4 L 333.3 238.9 M 329.2 240.5 L 335.5 240.3 M 341.0 373.9 L 341.1 373.2 L 340.8 372.0 L 346.2 375.3 M 343.8 368.3 L 343.2 368.3 L 342.4 368.9 L 342.1 369.4 L 341.9 370.3 L 342.4 371.3 L 343.5 372.3 L 344.8 373.1 L 346.0 373.5 L 346.8 373.3 L 347.5 372.7 L 347.7 372.4 L 347.9 371.5 L 347.7 370.7 L 347.1 369.9 L 346.8 369.8 L 345.9 369.6 L 345.1 369.8 L 344.3 370.4 L 344.2 370.6 L 344.0 371.6 L 344.2 372.4 L 344.8 373.1 M 348.6 318.5 L 350.2 321.0 L 352.6 319.8 L 352.2 319.7 L 351.5 319.1 L 351.0 318.4 L 350.8 317.5 L 351.0 316.6 L 351.6 315.9 L 352.1 315.6 L 353.0 315.4 L 353.8 315.5 L 354.6 316.1 L 355.0 316.9 L 355.3 317.8 L 355.2 318.2 L 354.8 318.8 M 345.5 313.6 L 352.4 312.8 M 347.7 317.1 L 345.5 313.6 M 186.4 351.3 L 182.4 348.0 L 182.1 352.5 M 186.4 351.3 L 180.1 350.9 M 186.1 357.0 L 182.1 353.8 L 181.8 358.3 M 186.1 357.0 L 179.8 356.7 M 194.4 420.0 L 195.7 423.1 L 192.8 422.4 L 193.2 423.2 L 193.1 423.9 L 193.0 424.3 L 192.3 424.9 L 191.7 425.2 L 190.8 425.2 L 190.0 424.9 L 189.4 424.2 L 189.0 423.4 L 188.9 422.5 L 189.1 422.1 L 189.5 421.6 M 197.8 427.7 L 196.6 424.9 L 194.0 425.7 L 194.4 425.9 L 195.0 426.6 L 195.4 427.4 L 195.5 428.4 L 195.2 429.2 L 194.5 429.8 L 193.9 430.0 L 193.0 430.1 L 192.2 429.8 L 191.5 429.1 L 191.2 428.3 L 191.1 427.4 L 191.2 427.0 L 191.7 426.4 M 192.2 235.2 L 192.9 235.8 L 193.6 235.8 L 194.1 235.5 L 194.5 235.0 L 194.5 234.3 L 194.2 233.1 L 194.0 232.2 L 194.3 231.4 L 194.7 230.8 L 195.5 230.4 L 196.1 230.4 L 196.5 230.5 L 197.2 231.2 L 197.8 232.2 L 197.9 233.2 L 197.8 233.6 L 197.4 234.1 L 196.6 234.5 L 195.9 234.5 L 195.1 234.3 L 194.5 233.6 L 193.6 232.7 L 193.1 232.3 L 192.4 232.3 L 191.9 232.6 L 191.5 233.2 L 191.6 234.1 L 192.3 235.3 M 191.7 231.2 L 191.2 230.8 L 189.9 230.4 L 195.5 227.5 M 427.3 64.2 L 426.8 64.7 L 426.8 65.7 L 427.0 66.2 L 427.6 67.0 L 428.7 67.2 L 430.2 67.0 L 431.6 66.5 L 432.6 65.9 L 433.0 65.1 L 433.0 64.1 L 432.9 63.9 L 432.3 63.1 L 431.5 62.7 L 430.6 62.8 L 430.3 62.9 L 429.5 63.4 L 429.2 64.2 L 429.2 65.1 L 429.3 65.4 L 429.9 66.2 L 430.6 66.5 L 431.6 66.5 M 172.6 457.2 L 169.5 456.2 L 171.9 454.5 L 171.0 454.2 L 170.6 453.7 L 170.4 453.4 L 170.3 452.4 L 170.5 451.8 L 171.1 451.1 L 171.8 450.7 L 172.8 450.7 L 173.6 450.9 L 174.4 451.5 L 174.6 451.8 L 174.7 452.5 M 164.7 454.8 L 167.5 455.6 L 168.6 453.1 L 168.2 453.3 L 167.3 453.4 L 166.4 453.1 L 165.7 452.6 L 165.3 451.8 L 165.2 450.9 L 165.4 450.3 L 166.0 449.5 L 166.7 449.1 L 167.7 449.1 L 168.5 449.4 L 169.3 449.9 L 169.5 450.3 L 169.6 450.9 M 79.1 510.9 L 79.1 514.2 L 76.7 512.4 L 76.7 513.3 L 76.4 513.9 L 76.1 514.2 L 75.2 514.4 L 74.6 514.4 L 73.7 514.1 L 73.1 513.5 L 72.8 512.6 L 72.8 511.7 L 73.1 510.8 L 73.4 510.5 L 74.0 510.2 M 76.9 519.5 L 76.0 519.2 L 75.4 518.6 L 75.1 517.7 L 75.1 517.4 L 75.4 516.5 L 76.0 515.9 L 77.0 515.6 L 77.3 515.6 L 78.1 515.9 L 78.7 516.5 L 79.0 517.4 L 79.0 517.7 L 78.7 518.6 L 78.1 519.2 L 76.9 519.5 L 75.4 519.5 L 73.9 519.2 L 73.0 518.6 L 72.7 517.7 L 72.7 517.1 L 73.0 516.2 L 73.6 515.9 M 60.8 572.0 L 57.1 566.1 M 63.0 568.5 L 60.8 572.0 M 56.2 575.1 L 55.6 574.4 L 55.5 573.6 L 55.7 572.6 L 55.9 572.4 L 56.6 571.8 L 57.4 571.6 L 58.4 571.9 L 58.6 572.0 L 59.2 572.8 L 59.4 573.6 L 59.1 574.5 L 59.0 574.8 L 58.2 575.4 L 57.4 575.5 L 56.2 575.1 L 55.0 574.3 L 53.9 573.3 L 53.5 572.3 L 53.7 571.3 L 54.0 570.8 L 54.8 570.2 L 55.4 570.3 M 61.6 584.5 L 59.1 591.0 M 57.4 584.9 L 61.6 584.5 M 66.7 584.1 L 64.2 590.6 M 62.6 584.5 L 66.7 584.1 M 183.0 559.9 L 182.7 559.9 L 182.1 559.6 L 181.8 559.3 L 181.5 558.7 L 181.6 557.5 L 181.9 556.9 L 182.2 556.6 L 182.8 556.3 L 183.4 556.3 L 184.0 556.7 L 184.9 557.3 L 187.8 560.4 L 187.9 556.2 M 182.6 551.3 L 182.0 551.5 L 181.7 552.4 L 181.7 553.0 L 182.0 553.9 L 182.9 554.6 L 184.3 554.9 L 185.8 554.9 L 187.1 554.7 L 187.7 554.1 L 188.0 553.2 L 188.0 552.9 L 187.7 552.0 L 187.1 551.4 L 186.2 551.1 L 185.9 551.1 L 185.0 551.3 L 184.4 551.9 L 184.1 552.8 L 184.1 553.1 L 184.4 554.0 L 185.0 554.6 L 185.8 554.9 M 138.7 587.6 L 138.4 586.9 L 137.6 586.6 L 137.0 586.5 L 136.1 586.7 L 135.4 587.6 L 134.9 589.0 L 134.8 590.5 L 135.0 591.8 L 135.5 592.4 L 136.4 592.8 L 136.7 592.8 L 137.6 592.6 L 138.3 592.1 L 138.7 591.2 L 138.7 590.9 L 138.5 590.0 L 137.9 589.3 L 137.1 588.9 L 136.8 588.9 L 135.8 589.1 L 135.2 589.7 L 134.8 590.5 M 142.0 587.0 L 141.1 587.2 L 140.4 588.0 L 140.0 589.5 L 139.9 590.4 L 140.1 591.9 L 140.6 592.9 L 141.4 593.2 L 142.0 593.3 L 143.0 593.1 L 143.6 592.2 L 144.1 590.8 L 144.2 589.9 L 144.0 588.4 L 143.5 587.4 L 142.6 587.0 L 142.2 587.0 M 276.7 507.8 L 276.4 507.8 L 275.8 507.6 L 275.4 507.4 L 275.0 506.8 L 274.9 505.6 L 275.1 505.0 L 275.3 504.7 L 275.9 504.3 L 276.5 504.2 L 277.1 504.4 L 278.1 504.9 L 281.5 507.4 L 280.9 503.2 M 275.9 502.9 L 275.5 502.3 L 274.5 501.6 L 280.7 500.7 M 226.2 529.9 L 226.4 529.7 L 227.0 529.4 L 227.4 529.4 L 228.0 529.5 L 229.0 530.3 L 229.3 530.9 L 229.3 531.3 L 229.2 531.9 L 228.8 532.4 L 228.2 532.7 L 227.2 533.0 L 223.0 533.5 L 226.3 536.1 M 233.3 534.8 L 233.5 534.2 L 233.0 533.4 L 232.5 533.0 L 231.6 532.7 L 230.6 533.0 L 229.4 534.0 L 228.5 535.2 L 228.0 536.3 L 228.1 537.2 L 228.6 538.0 L 228.8 538.1 L 229.7 538.5 L 230.6 538.4 L 231.4 537.8 L 231.5 537.6 L 231.9 536.7 L 231.8 535.9 L 231.2 535.1 L 231.0 534.9 L 230.1 534.6 L 229.3 534.7 L 228.5 535.2 M 265.6 548.9 L 265.4 548.7 L 265.1 548.1 L 265.1 547.7 L 265.2 547.0 L 266.0 546.1 L 266.6 545.8 L 267.0 545.8 L 267.7 545.9 L 268.2 546.3 L 268.4 546.9 L 268.7 548.0 L 269.2 552.2 L 271.8 548.9 M 268.8 542.7 L 268.5 543.5 L 268.8 544.6 L 269.8 545.8 L 270.5 546.3 L 271.8 547.1 L 272.9 547.2 L 273.7 546.7 L 274.1 546.2 L 274.4 545.3 L 274.1 544.3 L 273.1 543.1 L 272.4 542.5 L 271.1 541.8 L 270.0 541.7 L 269.2 542.2 L 268.9 542.5 M 305.3 474.9 L 305.4 474.6 L 305.9 474.2 L 306.3 474.0 L 306.9 474.0 L 308.1 474.5 L 308.5 475.0 L 308.6 475.4 L 308.7 476.0 L 308.5 476.6 L 307.9 477.0 L 307.0 477.6 L 303.1 479.2 L 307.0 480.9 M 309.9 476.8 L 310.5 476.7 L 311.7 476.2 L 309.3 482.0 M 399.2 390.4 L 398.7 389.9 L 397.5 389.5 L 403.2 386.9 M 395.3 385.3 L 396.6 388.0 L 399.2 387.2 L 398.8 387.0 L 398.1 386.3 L 397.7 385.5 L 397.6 384.6 L 397.9 383.8 L 398.6 383.1 L 399.2 382.9 L 400.1 382.8 L 400.9 383.0 L 401.5 383.7 L 401.9 384.6 L 402.0 385.5 L 401.9 385.9 L 401.5 386.4 M 365.7 384.9 L 365.5 385.5 L 365.4 386.8 L 361.2 382.1 M 361.4 389.5 L 362.0 389.7 L 362.9 389.3 L 363.3 388.9 L 363.8 388.1 L 363.7 387.0 L 362.9 385.7 L 361.9 384.6 L 360.9 383.9 L 360.0 383.8 L 359.2 384.2 L 358.9 384.4 L 358.5 385.2 L 358.4 386.1 L 358.8 387.0 L 359.0 387.2 L 359.8 387.7 L 360.7 387.7 L 361.5 387.3 L 361.8 387.1 L 362.2 386.3 L 362.3 385.5 L 361.9 384.6 M 353.6 496.6 L 353.7 496.3 L 354.3 495.9 L 354.7 495.8 L 355.3 495.8 L 356.4 496.3 L 356.8 496.8 L 356.9 497.2 L 356.9 497.9 L 356.7 498.5 L 356.1 498.9 L 355.2 499.4 L 351.2 500.7 L 354.9 502.6 M 360.4 498.3 L 359.4 498.2 L 358.5 498.7 L 357.6 499.9 L 357.2 500.7 L 356.7 502.2 L 356.9 503.3 L 357.5 503.9 L 358.1 504.2 L 359.0 504.3 L 360.0 503.8 L 360.9 502.6 L 361.3 501.8 L 361.7 500.3 L 361.6 499.3 L 360.9 498.6 L 360.5 498.4 M 421.7 507.0 L 421.4 506.4 L 420.5 506.1 L 419.9 506.1 L 419.0 506.4 L 418.4 507.3 L 418.1 508.8 L 418.1 510.3 L 418.3 511.5 L 418.9 512.1 L 419.8 512.4 L 420.1 512.4 L 421.0 512.1 L 421.6 511.5 L 422.0 510.6 L 422.0 510.3 L 421.7 509.4 L 421.1 508.8 L 420.2 508.5 L 419.9 508.5 L 419.0 508.8 L 418.4 509.4 L 418.1 510.3 M 424.9 506.1 L 424.0 506.4 L 423.4 507.3 L 423.1 508.8 L 423.1 509.7 L 423.4 511.2 L 424.0 512.1 L 424.9 512.4 L 425.5 512.4 L 426.4 512.1 L 427.0 511.2 L 427.3 509.7 L 427.3 508.8 L 427.0 507.3 L 426.4 506.4 L 425.5 506.1 L 425.1 506.1 M 480.5 488.2 L 484.0 494.3 M 478.1 491.7 L 480.5 488.2 M 483.4 483.9 L 486.9 490.0 M 481.0 487.4 L 483.4 483.9 M 471.2 465.5 L 476.4 460.8 M 475.1 467.1 L 471.2 465.5 M 468.8 464.5 L 469.7 464.5 L 470.2 464.1 L 470.4 463.5 L 470.4 462.9 L 470.0 462.4 L 469.0 461.6 L 468.2 461.0 L 467.9 460.2 L 467.9 459.6 L 468.2 458.7 L 468.7 458.3 L 469.1 458.1 L 470.1 458.2 L 471.2 458.6 L 471.9 459.3 L 472.0 459.6 L 472.1 460.3 L 471.8 461.1 L 471.2 461.6 L 470.5 461.9 L 469.5 461.9 L 468.3 461.7 L 467.6 461.7 L 467.1 462.2 L 466.9 462.7 L 466.9 463.4 L 467.7 464.0 L 468.9 464.5 M 459.4 417.1 L 461.8 423.6 M 456.4 420.1 L 459.4 417.1 M 461.2 415.2 L 460.8 416.0 L 461.0 416.7 L 461.4 417.1 L 462.1 417.3 L 462.7 417.1 L 463.8 416.4 L 464.6 416.0 L 465.5 416.0 L 466.1 416.2 L 466.7 416.8 L 467.0 417.4 L 467.0 417.9 L 466.6 418.7 L 465.7 419.6 L 464.9 420.0 L 464.5 420.0 L 463.8 419.8 L 463.2 419.2 L 463.0 418.6 L 462.9 417.7 L 463.4 416.9 L 464.0 415.8 L 464.2 415.1 L 464.0 414.5 L 463.5 414.1 L 462.9 413.9 L 462.0 414.3 L 461.1 415.3 M 440.4 373.8 L 439.7 373.2 L 439.4 372.4 L 439.4 371.5 L 439.5 371.2 L 440.1 370.5 L 440.9 370.2 L 441.9 370.2 L 442.2 370.3 L 442.9 371.0 L 443.2 371.7 L 443.1 372.7 L 443.0 373.0 L 442.4 373.7 L 441.6 374.0 L 440.4 373.8 L 439.0 373.3 L 437.7 372.4 L 437.1 371.5 L 437.2 370.6 L 437.4 370.0 L 438.0 369.3 L 438.7 369.3 M 441.2 377.4 L 441.3 376.4 L 440.7 375.5 L 439.4 374.7 L 438.6 374.3 L 437.1 374.1 L 436.0 374.3 L 435.4 375.0 L 435.2 375.5 L 435.1 376.5 L 435.7 377.4 L 437.0 378.2 L 437.8 378.6 L 439.3 378.9 L 440.4 378.6 L 441.0 377.9 L 441.2 377.5 M 486.2 369.8 L 491.8 374.0 M 485.3 373.9 L 486.2 369.8 M 488.0 368.5 L 487.7 368.4 L 487.2 368.0 L 487.0 367.6 L 486.8 367.0 L 487.1 365.8 L 487.5 365.3 L 487.8 365.0 L 488.5 364.9 L 489.1 365.0 L 489.6 365.4 L 490.3 366.2 L 492.7 369.7 L 493.5 365.6 M 475.8 344.1 L 476.0 344.7 L 476.8 345.2 L 477.4 345.3 L 478.3 345.2 L 479.1 344.5 L 479.7 343.1 L 480.0 341.6 L 480.0 340.3 L 479.5 339.6 L 478.7 339.2 L 478.4 339.1 L 477.4 339.2 L 476.7 339.7 L 476.3 340.5 L 476.2 340.8 L 476.3 341.7 L 476.8 342.4 L 477.6 342.9 L 477.9 343.0 L 478.8 342.9 L 479.5 342.4 L 480.0 341.6 M 474.0 343.1 L 474.0 343.4 L 473.5 343.9 L 473.2 344.2 L 472.5 344.3 L 471.4 344.1 L 470.8 343.7 L 470.6 343.3 L 470.4 342.7 L 470.6 342.1 L 471.0 341.6 L 471.7 340.8 L 475.3 338.5 L 471.2 337.6 M 83.9 465.3 L 80.3 461.6 L 79.5 466.0 M 83.9 465.3 L 77.7 464.1 M 81.8 468.1 L 82.1 468.1 L 82.6 468.5 L 82.9 468.9 L 83.0 469.5 L 82.8 470.7 L 82.4 471.3 L 82.1 471.5 L 81.4 471.7 L 80.8 471.6 L 80.3 471.2 L 79.5 470.4 L 77.1 466.9 L 76.4 471.1 M 161.9 205.7 L 162.8 205.7 L 163.3 205.2 L 163.5 204.6 L 163.3 203.9 L 162.8 203.5 L 161.7 202.9 L 161.0 202.4 L 160.5 201.6 L 160.4 201.0 L 160.7 200.1 L 161.1 199.6 L 161.5 199.4 L 162.4 199.3 L 163.6 199.7 L 164.4 200.2 L 164.6 200.6 L 164.7 201.2 L 164.5 202.1 L 164.0 202.6 L 163.3 203.0 L 162.3 203.0 L 161.1 203.0 L 160.4 203.1 L 160.0 203.6 L 159.8 204.2 L 159.9 204.9 L 160.7 205.4 L 162.0 205.8 M 155.1 203.9 L 159.2 200.7 L 154.8 199.5 M 155.1 203.9 L 156.8 197.8 M 161.5 328.1 L 163.9 332.6 L 166.0 328.6 M 161.5 328.1 L 167.1 330.9 M 163.0 325.2 L 164.5 322.3 L 165.9 324.9 L 166.3 324.1 L 166.8 323.7 L 167.2 323.6 L 168.2 323.7 L 168.7 324.0 L 169.4 324.7 L 169.6 325.5 L 169.5 326.4 L 169.1 327.2 L 168.4 327.9 L 168.0 328.0 L 167.3 328.0 M 129.5 199.7 L 130.4 199.2 L 130.5 198.5 L 130.4 197.9 L 130.0 197.4 L 129.3 197.2 L 128.1 197.2 L 127.2 197.1 L 126.4 196.6 L 126.0 196.1 L 125.8 195.2 L 126.0 194.6 L 126.2 194.2 L 127.0 193.7 L 128.2 193.5 L 129.2 193.6 L 129.5 193.8 L 129.9 194.4 L 130.1 195.2 L 130.0 195.9 L 129.5 196.6 L 128.7 197.1 L 127.6 197.6 L 127.1 198.0 L 126.9 198.7 L 127.0 199.3 L 127.4 199.8 L 128.4 199.9 L 129.7 199.6 M 125.0 199.1 L 125.0 199.4 L 124.9 200.0 L 124.6 200.4 L 124.1 200.8 L 122.9 201.1 L 122.3 200.9 L 121.9 200.7 L 121.5 200.2 L 121.4 199.6 L 121.6 198.9 L 121.9 197.9 L 124.2 194.4 L 120.1 195.2 M 87.3 225.9 L 86.9 225.0 L 87.0 224.1 L 87.4 223.3 L 87.7 223.1 L 88.5 222.7 L 89.4 222.8 L 90.2 223.2 L 90.4 223.5 L 90.8 224.3 L 90.7 225.2 L 90.3 226.0 L 90.1 226.2 L 89.2 226.6 L 88.3 226.5 L 87.3 225.9 L 86.3 224.7 L 85.5 223.4 L 85.4 222.4 L 85.8 221.5 L 86.3 221.1 L 87.1 220.7 L 87.8 221.0 M 84.6 229.9 L 85.2 230.2 L 86.1 229.8 L 86.5 229.4 L 87.0 228.6 L 86.8 227.5 L 86.1 226.2 L 85.1 225.1 L 84.0 224.4 L 83.2 224.3 L 82.3 224.7 L 82.1 224.9 L 81.6 225.7 L 81.6 226.6 L 82.0 227.5 L 82.2 227.7 L 83.0 228.1 L 83.8 228.2 L 84.7 227.8 L 84.9 227.6 L 85.4 226.8 L 85.4 225.9 L 85.1 225.1 M 91.7 308.1 L 90.8 308.3 L 90.0 308.1 L 89.3 307.4 L 89.1 307.2 L 89.0 306.2 L 89.2 305.4 L 89.9 304.7 L 90.1 304.6 L 91.1 304.4 L 91.9 304.6 L 92.6 305.3 L 92.7 305.5 L 92.9 306.5 L 92.6 307.3 L 91.7 308.1 L 90.4 308.9 L 88.9 309.3 L 87.9 309.2 L 87.2 308.6 L 86.9 308.0 L 86.7 307.1 L 87.1 306.6 M 95.8 311.3 L 94.4 308.6 L 91.9 309.7 L 92.3 309.8 L 93.0 310.4 L 93.4 311.2 L 93.6 312.2 L 93.3 313.0 L 92.7 313.7 L 92.2 314.0 L 91.2 314.1 L 90.4 313.9 L 89.7 313.2 L 89.3 312.5 L 89.1 311.5 L 89.3 311.1 L 89.6 310.6 M 133.8 357.1 L 133.6 362.2 L 137.4 359.8 M 133.8 357.1 L 137.3 362.4 M 137.3 356.7 L 137.2 356.4 L 137.1 355.7 L 137.2 355.3 L 137.5 354.7 L 138.5 354.1 L 139.2 354.0 L 139.6 354.1 L 140.2 354.4 L 140.5 354.9 L 140.6 355.6 L 140.6 356.7 L 139.7 360.8 L 143.2 358.6 M 74.9 417.2 L 69.7 416.4 L 71.8 420.4 M 74.9 417.2 L 69.3 420.1 M 76.3 420.1 L 77.8 423.0 L 74.9 422.5 L 75.3 423.3 L 75.3 424.0 L 75.2 424.4 L 74.5 425.1 L 74.0 425.3 L 73.0 425.5 L 72.2 425.2 L 71.5 424.6 L 71.1 423.8 L 71.0 422.8 L 71.1 422.4 L 71.5 421.9 M 97.6 429.2 L 102.0 426.5 L 97.9 424.7 M 97.6 429.2 L 100.1 423.4 M 92.3 426.8 L 96.7 424.2 L 92.6 422.4 M 92.3 426.8 L 94.8 421.1 M 87.4 44.8 L 90.3 45.6 L 91.3 43.1 L 90.9 43.3 L 90.0 43.3 L 89.1 43.1 L 88.3 42.6 L 87.9 41.8 L 87.9 40.9 L 88.0 40.3 L 88.6 39.5 L 89.3 39.1 L 90.2 39.1 L 91.1 39.3 L 91.9 39.8 L 92.1 40.2 L 92.2 40.9 M 84.0 43.8 L 84.9 43.8 L 85.7 43.1 L 86.4 41.7 L 86.7 40.9 L 86.8 39.3 L 86.5 38.3 L 85.7 37.8 L 85.1 37.6 L 84.2 37.6 L 83.3 38.3 L 82.6 39.7 L 82.4 40.6 L 82.3 42.1 L 82.6 43.1 L 83.4 43.7 L 83.8 43.8 M 56.9 61.0 L 57.9 58.2 L 55.5 57.0 L 55.7 57.4 L 55.7 58.3 L 55.3 59.2 L 54.8 59.9 L 54.0 60.3 L 53.0 60.2 L 52.5 60.0 L 51.7 59.4 L 51.4 58.7 L 51.4 57.7 L 51.7 56.9 L 52.3 56.1 L 52.7 56.0 L 53.4 55.9 M 54.7 62.6 L 55.0 62.7 L 55.4 63.2 L 55.6 63.6 L 55.7 64.3 L 55.3 65.4 L 54.8 65.9 L 54.4 66.0 L 53.7 66.1 L 53.2 65.9 L 52.7 65.4 L 52.1 64.5 L 50.3 60.7 L 48.8 64.6 M 67.9 87.0 L 64.3 90.7 L 68.8 91.4 M 67.9 87.0 L 67.0 93.2 M 72.0 87.6 L 71.1 87.8 L 70.7 88.4 L 70.6 89.0 L 70.8 89.6 L 71.4 90.0 L 72.5 90.4 L 73.4 90.9 L 73.9 91.5 L 74.1 92.2 L 74.0 93.1 L 73.6 93.6 L 73.2 93.9 L 72.3 94.0 L 71.1 93.9 L 70.3 93.5 L 70.0 93.1 L 69.8 92.5 L 69.9 91.6 L 70.3 91.0 L 71.0 90.5 L 71.9 90.4 L 73.2 90.2 L 73.8 90.0 L 74.2 89.5 L 74.3 88.9 L 74.0 88.2 L 73.2 87.8 L 71.9 87.6 M 381.7 138.2 L 378.6 144.4 M 377.5 138.1 L 381.7 138.2 M 441.2 126.8 L 440.9 126.2 L 440.1 125.3 L 446.4 125.6"
       id="nums_001"
       stroke="black"
       style="stroke-width:1.01548824;stroke-dasharray:none" />
    <path
       d="m 208,134.9 -6.5,21.7 -35.1,21.9 -22.4,-3.7 -22.6,-9.4 -23.3,-41 3.4,-24.2 L 36.9,91 60.2,28.5 115.9,44.3 189,29.7 420.2,22 l 28.8,81.9 -1.9,44 -30.6,14.3 -73.9,-1.7 -29.9,-15.7 23.8,51.8 2.1,90.7 32.2,50.9 -44,72.2 26.7,-43.8 v 0 l 36.5,-12.4 27.6,59.5 -6.4,-24.1 18.4,-45.3 21.4,-12.8 14.2,-12.4 27.3,5.6 8.1,17 -12.1,57.3 -44.9,46.2 19.1,-8.4 32.8,13.5 7.7,19.4 5.5,18.5 -16.9,24.6 -19.3,1.6 -22.2,15 -54.4,-0.1 -22.3,-15.1 -23.6,4.9 -3.7,-1.9 -10.1,-21.8 -18.9,8.2 -32,-13.5 -7.2,-19.4 9.2,62.5 -26.6,32.4 -25,-0.5 -38.2,-30 -6.5,-24.1 -2.3,88.4 -98.5,-8.8 -54,4.2 -4.9,-20.1 18.8,-29 20.3,-3.7 -14.8,-12.2 0.4,-29.3 15.2,-11.8 -11.1,-22.9 0.8,-4.5 18.4,-17.6 -22.9,-11.5 -2.1,-4.1 3.7,-25.4 24.3,-5.7 44.7,19.6 12.3,21.8 18.5,-10.1 34.5,10.6 9.7,18.7 -26.6,-60 5.1,-88.6 -20.9,41.2 -38.3,25 -68.9,-126.2 3.5,-23.3 33,-29.8 23.6,-1 23.2,-5 15.1,-11.4 27.1,7.5 7,17.6 25.7,48.9 z"
       id="coupes_001"
       stroke="#ff0000"
       style="stroke-width:1.26936"
       sodipodi:nodetypes="cccccccccccccccccccccccccccccccccccccccccccccccccccccccccccccccccccccccccccccccccccccccc" />
    <path
       d="M 144.0 174.8 L 101.5 100.2 M 101.5 100.2 L 208.0 134.9 M 101.5 100.2 L 115.9 44.3 M 115.9 44.3 L 208.0 134.9 M 189.0 29.7 L 208.0 134.9 M 189.0 29.7 L 312.7 144.8 M 420.2 22.0 L 312.7 144.8 M 312.7 144.8 L 210.6 252.5 M 278.1 470.7 L 210.6 252.5 M 338.6 287.3 L 278.1 470.7 M 326.8 410.4 L 278.1 470.7 M 338.6 287.3 L 326.8 410.4 M 202.0 457.6 L 210.6 252.5 M 278.1 470.7 L 202.0 457.6 M 180.5 309.0 L 184.9 203.6 M 449.0 103.9 L 312.7 144.8 M 191.0 511.0 L 202.0 457.6 M 278.1 470.7 L 191.0 511.0 M 191.0 511.0 L 139.3 438.4 M 139.3 438.4 L 202.0 457.6 M 70.4 542.0 L 139.3 438.4 M 191.0 511.0 L 70.4 542.0 M 71.2 488.7 L 139.3 438.4 M 70.4 542.0 L 71.2 488.7 M 90.2 590.6 L 70.4 542.0 M 191.0 511.0 L 90.2 590.6 M 36.2 594.8 L 70.4 542.0 M 287.3 533.2 L 191.0 511.0 M 260.7 565.6 L 191.0 511.0 M 336.2 495.4 L 278.1 470.7 M 326.8 410.4 L 336.2 495.4 M 326.8 410.4 L 417.6 413.7 M 326.8 410.4 L 390.0 354.2 M 443.6 445.2 L 336.2 495.4 M 417.6 413.7 L 443.6 445.2 M 443.6 445.2 L 373.6 514.2 M 373.6 514.2 L 336.2 495.4 M 443.6 445.2 L 472.5 514.4 M 472.5 514.4 L 373.6 514.2 M 503.2 469.7 L 472.5 514.4 M 443.6 445.2 L 503.2 469.7 M 417.6 413.7 L 451.0 331.5 M 79.3 443.7 L 139.3 438.4 M 180.5 309.0 L 135.7 189.9 M 135.7 189.9 L 184.9 203.6 M 159.6 350.2 L 135.7 189.9 M 52.4 249.0 L 112.5 194.9 M 58.0 402.7 L 139.3 438.4 M 101.5 100.2 L 60.2 28.5 M 447.1 147.9 L 312.7 144.8"
       id="plisM_001"
       stroke="brown"
       stroke-dasharray="4" />
    <path
       d="m 120.8,135.5 4,4 m 0,-4 -4,4 m 32,-23.9 4,4 m 0,-4 -4,4 m -46.1,-49.4 4,4 m 0,-4 -4,4 m 53.3,13.4 4,4 m 0,-4 -4,4 m 36.5,-11.3 4,4 m 0,-4 -4,4 m 52.4,1 4,4 m 0,-4 -4,4 m 115.6,-7.9 4,4 m 0,-4 -4,4 m -104.8,111.3 4,4 m 0,-4 -4,4 m -17.3,158.9 4,4 m 0,-4 -4,4 m 63.9,13.4 4,4 m 0,-4 -4,4 m -5.9,57.6 4,4 m 0,-4 -4,4 m 30.3,-95.8 4,4 m 0,-4 -4,4 m -126.4,2.2 4,4 m 0,-4 -4,4 m 33.7,105.2 4,4 m 0,-4 -4,4 m -57.3,-211.9 4,4 m 0,-4 -4,4 m 198.2,-136 4,4 m 0,-4 -4,4 m -184.4,356 4,4 m 0,-4 -4,4 m 38.1,2.5 4,4 m 0,-4 -4,4 m -69.4,-20.1 4,4 m 0,-4 -4,4 m 5.5,-30.7 4,4 m 0,-4 -4,4 m -65.8,38.2 4,4 m 0,-4 -4,4 m 25.8,32.3 4,4 m 0,-4 -4,4 m -25.5,-67 4,4 m 0,-4 -4,4 m -34.4,47.9 4,4 m 0,-4 -4,4 m 9.5,46.9 4,4 m 0,-4 -4,4 m 60.3,-19.5 4,4 m 0,-4 -4,4 m -87.3,13.6 4,4 m 0,-4 -4,4 m 185.9,-50.3 4,4 m 0,-4 -4,4 m -13.3,12.2 4,4 m 0,-4 -4,4 m 81.2,-59.3 4,4 m 0,-4 -4,4 m 24.4,-34.1 4,4 m 0,-4 -4,4 m 40.7,-44.8 4,4 m 0,-4 -4,4 m -13.8,-33.8 4,4 m 0,-4 -4,4 m 31.5,84 4,4 m 0,-4 -4,4 m 40.7,-44.9 4,4 m 0,-4 -4,4 m -22,46.3 4,4 m 0,-4 -4,4 m -53.7,21.1 4,4 m 0,-4 -4,4 m 103.2,-29 4,4 m 0,-4 -4,4 m -35,30.5 4,4 m 0,-4 -4,4 m 64.8,-26.2 4,4 m 0,-4 -4,4 m -14.5,-38.7 4,4 m 0,-4 -4,4 m -39.1,-88.8 4,4 m 0,-4 -4,4 m -325,64.4 4,4 m 0,-4 -4,4 m 48.8,-195.6 4,4 m 0,-4 -4,4 m 2.2,-56.7 4,4 m 0,-4 -4,4 m -12.6,69.3 4,4 m 0,-4 -4,4 m -65.3,-52 4,4 m 0,-4 -4,4 m 16.2,194.5 4,4 m 0,-4 -4,4 M 78.9,62.4 l 4,4 m 0,-4 -4,4 m 299,78 4,4 m 0,-4 -4,4"
       id="marqueM_001"
       stroke="#a52a2a"
       style="display:none" />
    <path
       d="M 208.0 134.9 L 144.0 174.8 M 312.7 144.8 L 208.0 134.9 M 336.5 196.6 L 210.6 252.5 M 338.6 287.3 L 210.6 252.5 M 202.0 457.6 L 180.5 309.0 M 180.5 309.0 L 210.6 252.5 M 417.6 413.7 L 336.2 495.4 M 417.6 413.7 L 488.5 399.0 M 451.0 331.5 L 488.5 399.0 M 451.0 331.5 L 500.6 341.7 M 71.2 488.7 L 79.3 443.7 M 159.6 350.2 L 112.5 194.9 M 159.6 350.2 L 52.4 249.0 M 79.3 443.7 L 58.0 402.7"
       id="plisV_001"
       stroke="green"
       stroke-dasharray="4 1 1 1"
       style="stroke-width:1.26936031" />
    <path
       d="M 174.0 152.9 L 178.0 156.9 M 178.0 152.9 L 174.0 156.9 M 258.4 137.9 L 262.4 141.9 M 262.4 137.9 L 258.4 141.9 M 271.6 222.6 L 275.6 226.6 M 275.6 222.6 L 271.6 226.6 M 272.6 267.9 L 276.6 271.9 M 276.6 267.9 L 272.6 271.9 M 189.3 381.3 L 193.3 385.3 M 193.3 381.3 L 189.3 385.3 M 193.6 278.7 L 197.6 282.7 M 197.6 278.7 L 193.6 282.7 M 374.9 452.5 L 378.9 456.5 M 378.9 452.5 L 374.9 456.5 M 451.0 404.3 L 455.0 408.3 M 455.0 404.3 L 451.0 408.3 M 467.7 363.2 L 471.7 367.2 M 471.7 363.2 L 467.7 367.2 M 473.8 334.6 L 477.8 338.6 M 477.8 334.6 L 473.8 338.6 M 73.3 464.2 L 77.3 468.2 M 77.3 464.2 L 73.3 468.2 M 134.0 270.6 L 138.0 274.6 M 138.0 270.6 L 134.0 274.6 M 104.0 297.6 L 108.0 301.6 M 108.0 297.6 L 104.0 301.6 M 66.6 421.2 L 70.6 425.2 M 70.6 421.2 L 66.6 425.2"
       id="marqueV_001"
       stroke="green" />
    <path
       d="M 273.5 328.0 L 275.0 327.2 L 277.2 325.0 L 277.2 340.7"
       id="titre_1"
       stroke="indigo"
       style="stroke-width:1.26936031" />
  </g>
  <g
     id="page_002">
    <path
       d="M 823.2 508.8 L 822.9 509.7 L 823.2 510.3 L 823.7 510.6 L 824.4 510.7 L 825.0 510.4 L 825.9 509.6 L 826.7 509.1 L 827.5 508.9 L 828.2 509.0 L 828.9 509.5 L 829.2 510.1 L 829.3 510.5 L 829.0 511.4 L 828.3 512.4 L 827.6 513.0 L 827.1 513.1 L 826.5 513.0 L 825.7 512.4 L 825.4 511.9 L 825.3 511.0 L 825.6 510.1 L 826.0 509.0 L 826.1 508.3 L 825.8 507.7 L 825.3 507.4 L 824.6 507.3 L 823.9 507.8 L 823.1 508.9 M 829.3 503.7 L 829.9 504.4 L 830.0 505.3 L 829.8 506.2 L 829.6 506.4 L 828.8 507.0 L 828.0 507.1 L 827.1 506.9 L 826.9 506.7 L 826.3 505.9 L 826.1 505.1 L 826.4 504.2 L 826.6 503.9 L 827.3 503.4 L 828.2 503.2 L 829.3 503.7 L 830.6 504.5 L 831.6 505.6 L 832.0 506.6 L 831.7 507.5 L 831.4 508.0 L 830.6 508.6 L 830.0 508.5 M 970.0 361.9 L 969.7 361.3 L 968.7 360.4 L 975.0 360.2 M 968.4 355.7 L 968.5 358.7 L 971.2 358.9 L 970.9 358.6 L 970.5 357.8 L 970.5 356.9 L 970.8 355.9 L 971.4 355.3 L 972.2 355.0 L 972.8 355.0 L 973.8 355.2 L 974.4 355.8 L 974.7 356.7 L 974.7 357.6 L 974.5 358.5 L 974.2 358.8 L 973.6 359.1 M 931.9 327.0 L 932.3 326.2 L 933.0 325.6 L 933.9 325.4 L 934.2 325.4 L 935.1 325.8 L 935.6 326.5 L 935.8 327.4 L 935.8 327.7 L 935.4 328.6 L 934.8 329.1 L 933.8 329.3 L 933.5 329.3 L 932.7 328.9 L 932.1 328.3 L 931.9 327.0 L 932.1 325.5 L 932.5 324.1 L 933.2 323.2 L 934.1 323.0 L 934.7 323.1 L 935.6 323.5 L 935.8 324.1 M 928.8 328.8 L 929.7 328.6 L 930.4 327.8 L 930.8 326.3 L 930.9 325.4 L 930.8 323.9 L 930.3 323.0 L 929.4 322.6 L 928.8 322.5 L 927.9 322.7 L 927.2 323.6 L 926.8 325.0 L 926.7 325.9 L 926.8 327.5 L 927.3 328.4 L 928.2 328.8 L 928.7 328.8 M 707.6 433.5 L 708.3 433.6 L 709.5 433.2 L 706.5 438.7 M 711.1 433.8 L 714.0 435.4 L 711.3 436.7 L 712.1 437.1 L 712.4 437.7 L 712.6 438.1 L 712.4 439.0 L 712.1 439.5 L 711.4 440.2 L 710.6 440.4 L 709.7 440.2 L 708.9 439.8 L 708.2 439.1 L 708.1 438.7 L 708.1 438.0 M 663.8 382.1 L 664.1 381.9 L 664.7 381.9 L 665.1 382.0 L 665.7 382.4 L 666.3 383.5 L 666.3 384.1 L 666.2 384.6 L 665.8 385.1 L 665.2 385.4 L 664.6 385.4 L 663.5 385.3 L 659.4 384.1 L 661.4 387.8 M 669.5 389.4 L 662.5 389.7 M 667.4 385.7 L 669.5 389.4 M 771.2 325.7 L 770.9 326.4 L 771.3 327.2 L 771.7 327.7 L 772.5 328.2 L 773.6 328.0 L 774.9 327.3 L 776.1 326.3 L 776.8 325.3 L 776.8 324.4 L 776.5 323.6 L 776.3 323.3 L 775.4 322.8 L 774.6 322.8 L 773.7 323.1 L 773.5 323.3 L 773.0 324.2 L 773.0 325.0 L 773.3 325.9 L 773.5 326.1 L 774.3 326.6 L 775.2 326.7 L 776.1 326.3 M 767.9 321.9 L 767.6 322.5 L 768.0 323.4 L 768.4 323.9 L 769.2 324.4 L 770.3 324.2 L 771.6 323.5 L 772.7 322.5 L 773.5 321.5 L 773.5 320.6 L 773.1 319.7 L 772.9 319.5 L 772.1 319.0 L 771.3 319.0 L 770.4 319.3 L 770.2 319.5 L 769.7 320.4 L 769.6 321.2 L 770.0 322.1 L 770.2 322.3 L 771.0 322.8 L 771.9 322.8 L 772.7 322.5 M 649.6 313.6 L 649.5 316.9 L 647.2 315.0 L 647.1 315.9 L 646.8 316.5 L 646.5 316.8 L 645.6 317.1 L 645.0 317.1 L 644.1 316.7 L 643.5 316.1 L 643.3 315.2 L 643.3 314.3 L 643.6 313.4 L 643.9 313.1 L 644.5 312.8 M 648.1 318.2 L 648.4 318.8 L 649.2 319.7 L 642.9 319.6 M 885.2 291.8 L 884.6 292.0 L 884.1 292.8 L 883.9 293.4 L 884.0 294.3 L 884.8 295.1 L 886.2 295.7 L 887.7 296.0 L 888.9 296.0 L 889.6 295.6 L 890.1 294.7 L 890.2 294.5 L 890.1 293.5 L 889.6 292.8 L 888.8 292.3 L 888.5 292.2 L 887.6 292.3 L 886.8 292.8 L 886.4 293.6 L 886.3 293.9 L 886.4 294.8 L 886.8 295.5 L 887.7 296.0 M 886.2 290.0 L 885.9 290.0 L 885.4 289.5 L 885.2 289.2 L 885.0 288.5 L 885.3 287.4 L 885.7 286.8 L 886.1 286.6 L 886.7 286.4 L 887.3 286.6 L 887.8 287.0 L 888.6 287.8 L 890.9 291.4 L 891.8 287.3 M 824.7 267.2 L 825.3 266.9 L 825.6 266.0 L 825.6 265.4 L 825.3 264.5 L 824.4 263.9 L 822.9 263.6 L 821.4 263.6 L 820.2 263.9 L 819.6 264.5 L 819.3 265.4 L 819.3 265.7 L 819.6 266.6 L 820.2 267.2 L 821.1 267.5 L 821.4 267.5 L 822.3 267.2 L 822.9 266.6 L 823.2 265.7 L 823.2 265.4 L 822.9 264.5 L 822.3 263.9 L 821.4 263.6 M 825.6 269.3 L 825.5 272.6 L 823.2 270.7 L 823.2 271.6 L 822.9 272.2 L 822.5 272.5 L 821.6 272.8 L 821.0 272.8 L 820.1 272.5 L 819.6 271.9 L 819.3 271.0 L 819.3 270.1 L 819.6 269.2 L 819.9 268.9 L 820.5 268.6 M 608.7 253.1 L 611.5 254.8 L 608.7 256.0 L 609.5 256.4 L 609.8 257.0 L 609.9 257.4 L 609.7 258.3 L 609.4 258.9 L 608.7 259.5 L 607.9 259.7 L 607.0 259.5 L 606.2 259.0 L 605.6 258.3 L 605.5 257.9 L 605.5 257.2 M 614.3 256.5 L 613.3 256.3 L 612.4 256.8 L 611.3 257.9 L 610.9 258.7 L 610.4 260.1 L 610.4 261.2 L 611.0 261.9 L 611.5 262.2 L 612.5 262.4 L 613.5 262.0 L 614.5 260.8 L 614.9 260.1 L 615.5 258.6 L 615.4 257.5 L 614.8 256.8 L 614.4 256.6 M 874.1 484.7 L 871.1 484.0 L 870.2 486.6 L 870.6 486.3 L 871.5 486.3 L 872.4 486.5 L 873.2 487.0 L 873.7 487.7 L 873.7 488.6 L 873.6 489.2 L 873.1 490.0 L 872.4 490.5 L 871.4 490.6 L 870.6 490.3 L 869.8 489.8 L 869.5 489.5 L 869.4 488.8 M 877.2 485.5 L 876.3 485.5 L 875.8 486.1 L 875.7 486.6 L 875.9 487.3 L 876.4 487.7 L 877.5 488.3 L 878.3 488.8 L 878.7 489.5 L 878.9 490.2 L 878.7 491.0 L 878.2 491.6 L 877.9 491.8 L 876.9 491.9 L 875.8 491.6 L 875.0 491.1 L 874.7 490.7 L 874.6 490.1 L 874.8 489.2 L 875.2 488.7 L 875.9 488.2 L 876.9 488.2 L 878.1 488.1 L 878.8 488.0 L 879.2 487.5 L 879.3 486.9 L 879.2 486.2 L 878.4 485.7 L 877.1 485.4 M 967.6 421.7 L 967.4 424.7 L 970.1 425.2 L 969.8 424.8 L 969.6 423.9 L 969.6 423.0 L 970.0 422.1 L 970.6 421.6 L 971.5 421.3 L 972.1 421.4 L 973.0 421.7 L 973.6 422.4 L 973.8 423.3 L 973.8 424.2 L 973.4 425.1 L 973.1 425.3 L 972.5 425.6 M 968.0 415.9 L 974.1 419.3 M 967.7 420.1 L 968.0 415.9 M 946.6 492.4 L 946.6 491.7 L 946.2 490.5 L 951.8 493.2 M 947.8 486.5 L 950.3 491.0 L 952.2 487.0 M 947.8 486.5 L 953.4 489.2 M 781.0 244.4 L 781.8 244.0 L 782.7 243.9 L 783.5 244.3 L 783.8 244.5 L 784.2 245.3 L 784.3 246.2 L 783.9 247.1 L 783.7 247.3 L 782.8 247.7 L 782.0 247.8 L 781.1 247.4 L 780.9 247.2 L 780.4 246.4 L 780.4 245.5 L 781.0 244.4 L 782.0 243.3 L 783.2 242.4 L 784.3 242.2 L 785.2 242.5 L 785.6 243.0 L 786.1 243.8 L 785.9 244.4 M 776.4 243.1 L 781.4 242.1 L 778.1 239.0 M 776.4 243.1 L 780.6 238.5 M 771.9 268.6 L 771.3 268.3 L 770.4 268.5 L 769.9 268.9 L 769.3 269.6 L 769.3 270.7 L 769.9 272.1 L 770.8 273.4 L 771.7 274.2 L 772.5 274.3 L 773.5 274.1 L 773.7 273.9 L 774.3 273.1 L 774.4 272.3 L 774.2 271.4 L 774.0 271.1 L 773.2 270.6 L 772.4 270.4 L 771.5 270.7 L 771.2 270.9 L 770.7 271.6 L 770.5 272.4 L 770.8 273.4 M 777.0 266.6 L 777.2 267.5 L 777.1 268.3 L 776.5 269.1 L 776.3 269.2 L 775.3 269.5 L 774.5 269.3 L 773.8 268.8 L 773.6 268.5 L 773.3 267.6 L 773.5 266.8 L 774.1 266.0 L 774.3 265.8 L 775.2 265.6 L 776.0 265.7 L 777.0 266.6 L 777.8 267.8 L 778.4 269.2 L 778.4 270.3 L 777.9 271.0 L 777.4 271.4 L 776.5 271.6 L 775.9 271.3 M 737.7 193.0 L 738.6 192.7 L 739.4 192.9 L 740.2 193.4 L 740.4 193.7 L 740.6 194.6 L 740.5 195.4 L 739.9 196.2 L 739.7 196.4 L 738.8 196.6 L 737.9 196.5 L 737.2 195.9 L 737.0 195.7 L 736.7 194.8 L 736.9 193.9 L 737.7 193.0 L 738.9 192.1 L 740.3 191.5 L 741.4 191.5 L 742.2 192.1 L 742.5 192.6 L 742.8 193.5 L 742.5 194.1 M 734.0 189.8 L 733.7 190.4 L 733.9 191.3 L 734.3 191.8 L 735.0 192.4 L 736.1 192.3 L 737.5 191.7 L 738.8 190.9 L 739.6 189.9 L 739.7 189.1 L 739.4 188.2 L 739.3 187.9 L 738.5 187.4 L 737.7 187.2 L 736.8 187.5 L 736.5 187.7 L 736.0 188.4 L 735.8 189.3 L 736.1 190.2 L 736.3 190.4 L 737.0 191.0 L 737.9 191.1 L 738.8 190.9 M 707.5 462.9 L 706.9 463.2 L 706.0 464.1 L 706.1 457.8 M 704.3 464.2 L 701.0 464.2 L 702.8 461.8 L 701.9 461.8 L 701.3 461.5 L 701.0 461.2 L 700.8 460.3 L 700.8 459.7 L 701.1 458.8 L 701.7 458.2 L 702.6 457.9 L 703.5 457.9 L 704.4 458.2 L 704.7 458.5 L 705.0 459.2 M 577.3 186.6 L 577.6 189.9 L 575.0 188.4 L 575.1 189.3 L 574.9 189.9 L 574.6 190.2 L 573.8 190.6 L 573.2 190.7 L 572.2 190.5 L 571.6 189.9 L 571.2 189.0 L 571.1 188.2 L 571.3 187.2 L 571.6 186.9 L 572.1 186.5 M 576.3 192.0 L 576.6 192.0 L 577.2 192.2 L 577.6 192.5 L 577.9 193.1 L 578.0 194.3 L 577.8 194.9 L 577.5 195.2 L 577.0 195.6 L 576.4 195.6 L 575.7 195.4 L 574.8 194.9 L 571.5 192.2 L 571.9 196.4 M 620.6 126.4 L 625.4 128.3 L 624.3 124.0 M 620.6 126.4 L 626.7 124.9 M 619.2 120.3 L 619.9 123.3 L 622.6 122.9 L 622.2 122.7 L 621.7 121.9 L 621.5 121.0 L 621.6 120.1 L 622.0 119.3 L 622.8 118.8 L 623.4 118.7 L 624.4 118.8 L 625.1 119.2 L 625.6 120.0 L 625.8 120.9 L 625.7 121.8 L 625.5 122.2 L 625.0 122.6 M 566.6 103.5 L 562.0 101.2 L 562.7 105.7 M 566.6 103.5 L 560.4 104.5 M 567.6 110.1 L 560.9 108.2 M 567.0 106.0 L 567.6 110.1 M 587.0 85.1 L 590.5 81.2 L 586.0 80.7 M 587.0 85.1 L 587.8 78.8 M 582.9 84.5 L 583.9 84.3 L 584.2 83.8 L 584.3 83.2 L 584.1 82.5 L 583.5 82.2 L 582.3 81.7 L 581.5 81.3 L 581.0 80.7 L 580.7 80.0 L 580.8 79.1 L 581.2 78.6 L 581.5 78.3 L 582.5 78.1 L 583.7 78.3 L 584.5 78.7 L 584.8 79.0 L 585.0 79.6 L 584.9 80.5 L 584.5 81.1 L 583.9 81.6 L 582.9 81.8 L 581.7 82.0 L 581.1 82.2 L 580.7 82.7 L 580.6 83.3 L 580.9 84.0 L 581.7 84.4 L 583.1 84.5 M 657.1 127.3 L 653.9 123.3 L 652.7 127.6 M 657.1 127.3 L 651.1 125.6 M 654.5 133.1 L 655.2 132.9 L 655.7 132.2 L 655.9 131.6 L 655.8 130.6 L 655.1 129.8 L 653.7 129.1 L 652.3 128.7 L 651.1 128.7 L 650.3 129.1 L 649.8 129.9 L 649.7 130.2 L 649.8 131.1 L 650.2 131.9 L 651.0 132.4 L 651.2 132.5 L 652.2 132.4 L 652.9 132.0 L 653.5 131.2 L 653.5 130.9 L 653.5 130.0 L 653.1 129.2 L 652.3 128.7 M 720.5 144.1 L 720.0 144.9 L 720.1 145.5 L 720.5 146.0 L 721.1 146.3 L 721.7 146.2 L 722.9 145.7 L 723.8 145.4 L 724.6 145.5 L 725.2 145.8 L 725.7 146.6 L 725.9 147.2 L 725.8 147.6 L 725.3 148.4 L 724.3 149.1 L 723.4 149.4 L 723.0 149.4 L 722.4 149.1 L 721.8 148.4 L 721.7 147.7 L 721.8 146.9 L 722.4 146.1 L 723.2 145.1 L 723.5 144.5 L 723.3 143.9 L 723.0 143.4 L 722.4 143.1 L 721.5 143.4 L 720.4 144.2 M 724.9 142.7 L 724.7 142.4 L 724.6 141.8 L 724.7 141.4 L 725.0 140.8 L 725.9 140.0 L 726.6 139.9 L 727.0 140.0 L 727.6 140.3 L 728.0 140.8 L 728.1 141.4 L 728.1 142.5 L 727.5 146.7 L 730.9 144.2 M 728.7 120.1 L 729.1 121.0 L 729.7 121.2 L 730.3 121.2 L 730.9 120.9 L 731.1 120.2 L 731.4 119.0 L 731.6 118.1 L 732.2 117.5 L 732.8 117.2 L 733.7 117.1 L 734.3 117.4 L 734.6 117.7 L 734.9 118.6 L 735.0 119.8 L 734.8 120.7 L 734.5 121.0 L 733.9 121.3 L 733.0 121.4 L 732.4 121.1 L 731.7 120.5 L 731.4 119.6 L 731.0 118.4 L 730.7 117.9 L 730.1 117.6 L 729.5 117.6 L 728.9 118.0 L 728.7 118.9 L 728.7 120.2 M 728.3 113.1 L 732.6 115.9 L 732.4 111.4 M 728.3 113.1 L 734.6 112.8 M 744.3 550.5 L 745.0 550.6 L 746.2 550.3 L 743.1 555.7 M 747.0 552.2 L 747.2 551.9 L 747.7 551.6 L 748.1 551.5 L 748.8 551.5 L 749.9 552.1 L 750.2 552.7 L 750.3 553.1 L 750.3 553.7 L 750.0 554.3 L 749.4 554.6 L 748.5 555.1 L 744.4 556.2 L 748.0 558.3 M 789.8 553.2 L 790.0 552.6 L 789.9 551.3 L 794.6 555.4 M 791.5 551.3 L 791.7 550.6 L 791.6 549.3 L 796.3 553.5 M 742.1 65.8 L 741.9 66.7 L 742.2 67.3 L 742.7 67.6 L 743.4 67.7 L 743.9 67.4 L 744.9 66.6 L 745.6 66.0 L 746.5 65.8 L 747.1 65.9 L 747.9 66.4 L 748.2 67.0 L 748.3 67.4 L 748.0 68.3 L 747.3 69.3 L 746.6 69.9 L 746.2 70.0 L 745.5 69.9 L 744.8 69.4 L 744.4 68.8 L 744.3 68.0 L 744.5 67.1 L 745.0 65.9 L 745.0 65.2 L 744.7 64.7 L 744.2 64.3 L 743.6 64.2 L 742.8 64.8 L 742.0 65.9 M 745.4 63.5 L 745.5 62.8 L 745.3 61.6 L 750.5 65.1 M 720.1 73.6 L 717.1 74.9 L 717.8 72.0 L 716.9 72.4 L 716.3 72.3 L 715.9 72.2 L 715.2 71.5 L 715.0 70.9 L 714.9 70.0 L 715.2 69.2 L 715.9 68.5 L 716.8 68.2 L 717.7 68.1 L 718.1 68.3 L 718.6 68.7 M 712.1 76.1 L 712.6 76.5 L 713.5 76.4 L 714.1 76.2 L 714.8 75.6 L 715.0 74.5 L 714.7 73.0 L 714.1 71.6 L 713.3 70.7 L 712.5 70.3 L 711.6 70.4 L 711.3 70.5 L 710.6 71.2 L 710.3 72.0 L 710.4 72.9 L 710.5 73.2 L 711.1 73.9 L 711.9 74.2 L 712.9 74.1 L 713.1 74.0 L 713.8 73.4 L 714.2 72.6 L 714.1 71.6 M 885.2 520.8 L 887.5 518.9 L 886.0 516.7 L 886.0 517.1 L 885.5 517.9 L 884.8 518.4 L 883.9 518.8 L 883.1 518.7 L 882.3 518.2 L 881.9 517.7 L 881.6 516.8 L 881.6 516.0 L 882.2 515.2 L 882.9 514.6 L 883.7 514.3 L 884.2 514.3 L 884.8 514.6 M 882.6 522.9 L 883.2 522.1 L 883.0 521.4 L 882.6 520.9 L 882.0 520.7 L 881.4 520.8 L 880.2 521.3 L 879.4 521.7 L 878.5 521.6 L 877.9 521.3 L 877.3 520.6 L 877.2 519.9 L 877.2 519.5 L 877.8 518.7 L 878.7 518.0 L 879.6 517.6 L 880.0 517.7 L 880.6 518.0 L 881.2 518.7 L 881.3 519.3 L 881.2 520.2 L 880.7 521.0 L 880.0 521.9 L 879.7 522.5 L 879.8 523.2 L 880.2 523.7 L 880.8 524.0 L 881.7 523.6 L 882.8 522.8 M 866.7 556.6 L 866.4 555.7 L 865.8 555.4 L 865.2 555.4 L 864.6 555.7 L 864.3 556.3 L 864.0 557.5 L 863.7 558.4 L 863.1 559.0 L 862.5 559.3 L 861.6 559.3 L 861.0 559.0 L 860.7 558.7 L 860.4 557.8 L 860.4 556.6 L 860.7 555.7 L 861.0 555.4 L 861.6 555.1 L 862.5 555.1 L 863.1 555.4 L 863.7 556.0 L 864.0 556.9 L 864.3 558.1 L 864.6 558.7 L 865.2 559.0 L 865.8 559.0 L 866.4 558.7 L 866.7 557.8 L 866.7 556.5 M 864.6 564.4 L 863.7 564.1 L 863.1 563.5 L 862.8 562.6 L 862.8 562.3 L 863.1 561.4 L 863.7 560.8 L 864.6 560.5 L 864.9 560.5 L 865.8 560.8 L 866.4 561.4 L 866.7 562.3 L 866.7 562.6 L 866.4 563.5 L 865.8 564.1 L 864.6 564.4 L 863.1 564.4 L 861.6 564.1 L 860.7 563.5 L 860.4 562.6 L 860.4 562.0 L 860.7 561.1 L 861.3 560.8 M 936.5 565.6 L 936.1 565.1 L 935.0 564.4 L 941.1 562.9 M 934.1 561.9 L 934.6 562.7 L 935.3 562.9 L 935.9 562.7 L 936.4 562.3 L 936.5 561.6 L 936.5 560.4 L 936.6 559.4 L 937.0 558.7 L 937.5 558.3 L 938.4 558.0 L 939.0 558.2 L 939.4 558.4 L 939.9 559.2 L 940.2 560.4 L 940.1 561.3 L 939.9 561.7 L 939.4 562.1 L 938.5 562.3 L 937.9 562.2 L 937.2 561.8 L 936.6 561.0 L 936.1 559.9 L 935.6 559.4 L 935.0 559.2 L 934.4 559.4 L 933.9 559.8 L 933.8 560.8 L 934.1 562.1 M 892.7 621.9 L 894.2 628.7 M 889.4 624.5 L 892.7 621.9 M 831.6 594.3 L 830.9 594.5 L 830.0 595.4 L 830.3 589.1 M 829.0 594.1 L 828.4 594.4 L 827.4 595.2 L 827.8 588.9 M 797.5 617.4 L 797.5 616.5 L 797.1 616.0 L 796.5 615.8 L 795.8 615.8 L 795.3 616.3 L 794.6 617.3 L 794.0 618.0 L 793.3 618.4 L 792.6 618.5 L 791.8 618.2 L 791.3 617.7 L 791.1 617.3 L 791.2 616.3 L 791.6 615.2 L 792.2 614.5 L 792.6 614.3 L 793.2 614.2 L 794.1 614.5 L 794.5 615.0 L 794.9 615.8 L 794.8 616.7 L 794.7 618.0 L 794.8 618.6 L 795.2 619.1 L 795.8 619.3 L 796.5 619.3 L 797.1 618.5 L 797.5 617.3 M 812.2 649.8 L 815.3 651.0 L 812.7 652.6 L 813.6 652.9 L 814.0 653.4 L 814.2 653.8 L 814.2 654.7 L 813.9 655.3 L 813.3 656.0 L 812.5 656.3 L 811.6 656.3 L 810.8 656.0 L 810.0 655.4 L 809.9 655.0 L 809.8 654.3 M 646.8 482.6 L 647.0 482.9 L 647.1 483.6 L 647.1 484.0 L 646.8 484.6 L 645.8 485.3 L 645.1 485.4 L 644.7 485.3 L 644.1 485.0 L 643.8 484.6 L 643.6 483.9 L 643.6 482.8 L 644.2 478.6 L 640.8 481.1 M 640.4 489.3 L 639.1 482.4 M 643.8 486.8 L 640.4 489.3 M 678.8 559.3 L 678.6 559.0 L 678.4 558.4 L 678.5 558.0 L 678.7 557.3 L 679.6 556.5 L 680.2 556.4 L 680.7 556.4 L 681.3 556.6 L 681.7 557.1 L 681.9 557.7 L 682.0 558.8 L 681.8 563.0 L 684.9 560.2 M 682.7 553.8 L 682.2 554.6 L 682.4 555.2 L 682.8 555.7 L 683.4 555.9 L 684.1 555.7 L 685.2 555.2 L 686.0 554.8 L 686.9 554.8 L 687.5 555.1 L 688.1 555.7 L 688.3 556.4 L 688.2 556.8 L 687.8 557.6 L 686.9 558.4 L 686.0 558.8 L 685.6 558.8 L 685.0 558.6 L 684.4 557.9 L 684.2 557.2 L 684.2 556.4 L 684.7 555.6 L 685.4 554.5 L 685.6 553.9 L 685.5 553.3 L 685.1 552.8 L 684.4 552.6 L 683.6 553.0 L 682.6 553.9 M 801.0 329.1 L 801.5 328.6 L 801.4 327.6 L 801.2 327.1 L 800.6 326.3 L 799.5 326.1 L 798.0 326.4 L 796.6 326.9 L 795.6 327.6 L 795.3 328.4 L 795.3 329.3 L 795.4 329.6 L 796.0 330.4 L 796.8 330.7 L 797.8 330.7 L 798.0 330.5 L 798.8 329.9 L 799.1 329.2 L 799.1 328.2 L 799.0 327.9 L 798.4 327.2 L 797.6 326.9 L 796.6 326.9 M 803.6 333.0 L 798.6 331.7 L 800.2 335.9 M 803.6 333.0 L 797.7 335.3 M 807.5 317.4 L 808.1 317.8 L 809.0 317.7 L 809.6 317.4 L 810.2 316.7 L 810.4 315.7 L 810.0 314.2 L 809.3 312.8 L 808.5 311.9 L 807.7 311.6 L 806.8 311.7 L 806.5 311.9 L 805.8 312.5 L 805.5 313.3 L 805.7 314.3 L 805.8 314.6 L 806.5 315.2 L 807.3 315.5 L 808.2 315.4 L 808.5 315.2 L 809.2 314.6 L 809.4 313.8 L 809.3 312.8 M 803.4 320.4 L 806.1 319.1 L 805.2 316.5 L 805.1 316.9 L 804.4 317.6 L 803.6 318.0 L 802.6 318.1 L 801.8 317.9 L 801.2 317.2 L 800.9 316.7 L 800.8 315.7 L 801.0 314.9 L 801.7 314.2 L 802.5 313.8 L 803.5 313.7 L 803.9 313.8 L 804.4 314.3 M 898.5 189.1 L 901.9 182.9 M 902.7 189.3 L 898.5 189.1 M 893.8 187.9 L 894.1 188.5 L 895.0 188.9 L 895.6 188.9 L 896.5 188.7 L 897.1 187.8 L 897.5 186.3 L 897.6 184.8 L 897.4 183.6 L 896.8 183.0 L 895.9 182.6 L 895.6 182.6 L 894.7 182.8 L 894.1 183.4 L 893.7 184.3 L 893.7 184.6 L 894.0 185.5 L 894.5 186.1 L 895.4 186.5 L 895.7 186.5 L 896.6 186.3 L 897.3 185.7 L 897.6 184.8 M 925.6 277.8 L 919.4 280.9 M 922.3 275.2 L 925.6 277.8 M 926.0 280.0 L 926.2 279.7 L 926.8 279.4 L 927.2 279.4 L 927.9 279.5 L 928.8 280.2 L 929.1 280.8 L 929.2 281.3 L 929.0 281.9 L 928.7 282.4 L 928.1 282.7 L 927.0 283.0 L 922.8 283.6 L 926.2 286.1 M 797.1 200.6 L 797.3 200.0 L 796.9 199.2 L 796.5 198.7 L 795.6 198.3 L 794.6 198.5 L 793.3 199.3 L 792.2 200.3 L 791.5 201.4 L 791.5 202.2 L 791.9 203.1 L 792.1 203.3 L 793.0 203.7 L 793.8 203.8 L 794.7 203.4 L 794.9 203.1 L 795.3 202.3 L 795.4 201.5 L 795.0 200.6 L 794.7 200.4 L 793.9 199.9 L 793.1 199.9 L 792.2 200.3 M 799.1 201.5 L 801.4 203.9 L 798.4 204.2 L 799.1 204.9 L 799.3 205.5 L 799.3 205.9 L 798.8 206.8 L 798.4 207.2 L 797.5 207.6 L 796.7 207.6 L 795.8 207.1 L 795.2 206.5 L 794.8 205.6 L 794.8 205.2 L 795.0 204.6 M 786.2 183.7 L 786.7 184.2 L 787.6 184.3 L 788.2 184.1 L 789.0 183.6 L 789.3 182.6 L 789.2 181.1 L 788.9 179.6 L 788.3 178.5 L 787.5 178.1 L 786.6 178.0 L 786.3 178.1 L 785.5 178.6 L 785.1 179.4 L 785.0 180.3 L 785.1 180.6 L 785.6 181.4 L 786.3 181.8 L 787.3 181.9 L 787.6 181.8 L 788.4 181.3 L 788.8 180.6 L 788.9 179.6 M 781.6 185.9 L 784.5 185.1 L 784.1 182.4 L 783.9 182.8 L 783.1 183.3 L 782.2 183.5 L 781.3 183.5 L 780.5 183.0 L 780.0 182.2 L 779.9 181.6 L 779.9 180.7 L 780.3 180.0 L 781.1 179.5 L 782.0 179.2 L 783.0 179.3 L 783.3 179.5 L 783.8 180.0 M 864.8 168.6 L 871.8 168.3 M 866.8 172.3 L 864.8 168.6 M 863.4 164.0 L 863.0 164.5 L 863.2 165.5 L 863.4 166.0 L 864.1 166.7 L 865.2 166.8 L 866.7 166.3 L 868.0 165.6 L 868.9 164.8 L 869.2 164.0 L 869.0 163.1 L 868.9 162.8 L 868.2 162.1 L 867.4 161.9 L 866.4 162.0 L 866.2 162.2 L 865.5 162.9 L 865.3 163.7 L 865.4 164.6 L 865.6 164.9 L 866.2 165.5 L 867.1 165.8 L 868.0 165.6 M 838.5 129.4 L 838.3 130.0 L 838.6 130.9 L 839.0 131.3 L 839.8 131.8 L 840.9 131.7 L 842.2 131.0 L 843.4 130.1 L 844.1 129.1 L 844.2 128.2 L 843.9 127.4 L 843.7 127.1 L 842.9 126.6 L 842.0 126.5 L 841.1 126.9 L 840.9 127.1 L 840.4 127.9 L 840.3 128.7 L 840.6 129.6 L 840.8 129.8 L 841.6 130.3 L 842.5 130.4 L 843.4 130.1 M 836.1 124.5 L 837.0 124.1 L 837.8 124.2 L 838.6 124.7 L 838.8 125.0 L 839.1 125.8 L 839.1 126.7 L 838.5 127.5 L 838.3 127.7 L 837.4 128.0 L 836.6 127.9 L 835.8 127.4 L 835.6 127.2 L 835.3 126.3 L 835.3 125.5 L 836.1 124.5 L 837.2 123.5 L 838.6 122.8 L 839.7 122.7 L 840.5 123.2 L 840.8 123.7 L 841.2 124.6 L 840.9 125.2 M 804.2 130.9 L 804.8 131.1 L 805.6 130.6 L 806.0 130.2 L 806.4 129.3 L 806.2 128.3 L 805.3 127.0 L 804.2 126.0 L 803.1 125.4 L 802.3 125.4 L 801.5 125.9 L 801.3 126.1 L 800.9 126.9 L 800.9 127.8 L 801.3 128.6 L 801.6 128.8 L 802.4 129.2 L 803.3 129.2 L 804.1 128.8 L 804.3 128.5 L 804.7 127.7 L 804.7 126.8 L 804.2 126.0 M 800.7 134.6 L 801.3 134.7 L 802.2 134.3 L 802.6 133.9 L 803.0 133.0 L 802.7 131.9 L 801.9 130.7 L 800.8 129.7 L 799.7 129.1 L 798.8 129.1 L 798.0 129.5 L 797.8 129.8 L 797.4 130.6 L 797.4 131.5 L 797.9 132.3 L 798.1 132.5 L 799.0 132.9 L 799.8 132.9 L 800.6 132.4 L 800.8 132.2 L 801.2 131.4 L 801.2 130.5 L 800.8 129.7 M 788.2 156.7 L 788.3 156.0 L 787.7 155.2 L 787.2 154.9 L 786.3 154.6 L 785.3 155.0 L 784.2 156.0 L 783.3 157.2 L 782.8 158.3 L 783.0 159.2 L 783.5 160.0 L 783.8 160.1 L 784.7 160.4 L 785.5 160.3 L 786.3 159.7 L 786.5 159.5 L 786.7 158.6 L 786.6 157.8 L 786.1 157.0 L 785.8 156.8 L 784.9 156.5 L 784.1 156.6 L 783.3 157.2 M 792.4 158.6 L 787.5 160.2 L 791.2 162.9 M 792.4 158.6 L 788.7 163.7 M 938.5 165.9 L 938.0 165.1 L 937.9 164.2 L 938.3 163.4 L 938.5 163.1 L 939.4 162.7 L 940.2 162.6 L 941.1 163.0 L 941.3 163.2 L 941.8 164.0 L 941.8 164.9 L 941.4 165.8 L 941.2 166.0 L 940.4 166.4 L 939.6 166.5 L 938.5 165.9 L 937.3 164.9 L 936.4 163.7 L 936.2 162.6 L 936.5 161.8 L 936.9 161.3 L 937.8 160.8 L 938.4 161.0 M 937.2 170.5 L 936.1 165.5 L 933.1 168.9 M 937.2 170.5 L 932.5 166.3 M 973.5 213.2 L 974.4 213.2 L 975.2 213.5 L 975.9 214.2 L 976.0 214.4 L 976.1 215.4 L 975.7 216.2 L 975.0 216.8 L 974.8 216.9 L 973.8 217.0 L 973.0 216.7 L 972.4 216.0 L 972.3 215.7 L 972.2 214.8 L 972.5 214.0 L 973.5 213.2 L 974.9 212.6 L 976.4 212.3 L 977.4 212.5 L 978.1 213.2 L 978.3 213.8 L 978.4 214.7 L 977.9 215.2 M 969.7 209.7 L 970.9 212.5 L 973.5 211.7 L 973.1 211.5 L 972.4 210.8 L 972.1 210.0 L 972.0 209.1 L 972.3 208.3 L 973.0 207.6 L 973.6 207.4 L 974.5 207.3 L 975.3 207.6 L 975.9 208.3 L 976.3 209.1 L 976.4 210.1 L 976.2 210.5 L 975.8 211.0 M 620.3 568.6 L 623.5 569.1 L 621.4 571.2 L 622.3 571.3 L 622.9 571.7 L 623.1 572.0 L 623.3 573.0 L 623.2 573.6 L 622.8 574.4 L 622.1 574.9 L 621.2 575.1 L 620.3 575.0 L 619.5 574.5 L 619.2 574.2 L 619.0 573.6 M 626.8 569.5 L 625.8 569.7 L 625.1 570.5 L 624.6 571.9 L 624.5 572.8 L 624.6 574.3 L 625.1 575.3 L 625.9 575.7 L 626.5 575.8 L 627.4 575.6 L 628.2 574.8 L 628.7 573.4 L 628.8 572.5 L 628.7 571.0 L 628.2 570.0 L 627.4 569.6 L 626.9 569.5 M 604.3 536.5 L 603.3 539.7 L 601.6 537.3 L 601.3 538.1 L 600.8 538.6 L 600.5 538.8 L 599.5 538.8 L 598.9 538.7 L 598.2 538.1 L 597.8 537.4 L 597.7 536.4 L 598.0 535.5 L 598.6 534.8 L 598.9 534.6 L 599.6 534.5 M 601.6 540.6 L 601.7 541.3 L 602.3 542.4 L 596.3 540.5 M 996.0 305.9 L 996.4 302.6 L 998.6 304.6 L 998.7 303.8 L 999.0 303.2 L 999.3 302.9 L 1000.3 302.7 L 1000.9 302.8 L 1001.7 303.2 L 1002.3 303.8 L 1002.5 304.7 L 1002.4 305.6 L 1002.0 306.5 L 1001.7 306.8 L 1001.1 307.0 M 999.0 297.5 L 999.8 297.9 L 1000.4 298.5 L 1000.6 299.5 L 1000.6 299.8 L 1000.2 300.6 L 999.5 301.2 L 998.6 301.4 L 998.3 301.4 L 997.4 301.0 L 996.9 300.3 L 996.7 299.4 L 996.7 299.1 L 997.1 298.2 L 997.8 297.7 L 999.0 297.5 L 1000.5 297.6 L 1001.9 298.1 L 1002.8 298.8 L 1003.0 299.7 L 1002.9 300.3 L 1002.5 301.2 L 1001.9 301.4 M 975.9 307.8 L 970.5 312.3 M 972.0 306.1 L 975.9 307.8 M 979.6 311.8 L 979.0 312.5 L 978.2 312.8 L 977.2 312.7 L 977.0 312.6 L 976.3 311.9 L 976.0 311.2 L 976.0 310.2 L 976.2 309.9 L 976.8 309.2 L 977.6 308.9 L 978.6 309.0 L 978.8 309.2 L 979.5 309.8 L 979.8 310.6 L 979.6 311.8 L 979.0 313.2 L 978.1 314.4 L 977.2 315.0 L 976.2 314.9 L 975.7 314.7 L 975.0 314.0 L 975.0 313.3"
       id="nums_002"
       stroke="black"
       style="stroke-width:1.01548824;stroke-dasharray:none" />
    <path
       d="m 848.5,487.1 4.9,19.1 -18.1,25.8 -19.7,1.9 -38,43.8 -22.5,4.3 -36.5,-21.1 -7.4,-21.7 -0.9,21 -26.6,23.9 -20.9,-1.3 -78.1,-10.7 20.7,-67.1 66.9,-49.7 63,1.3 -32.2,-0.6 -23,-29.8 -22.1,-9.3 -21.9,-40.2 4.2,-23.6 -14.6,-16.2 1.1,-38.7 15.4,-15.4 -22.9,3.8 -37.2,-22.3 -7.5,-22 -10.1,-100.3 -11.4,-69.3 16.3,-13.2 35.7,4.2 12.8,16.6 20.3,83.4 20.4,-72.5 18.4,-24.3 59.3,-25.6 30.3,3.2 5.4,18.7 -17.1,25.2 -19.4,1.8 2.5,51 0.5,18.5 -1.9,1.4 -17.6,-5.5 46.3,66.2 37.6,34.4 -51.6,35.5 49.2,56.5 -11.5,-29.9 5.9,-19.6 2.8,-1.4 19.3,7.2 0.7,-71.8 -22,-1.3 -27.4,-28.5 -0.4,-22 30.2,-7.9 -20.5,3.6 -2.6,-1.9 -2.7,-20.6 0.6,-22.5 28.2,-30.1 22.5,-2 20.5,1.4 21.8,26.7 -2.7,20.4 16.8,31.8 17.1,-14.1 3.5,0.2 15.3,15.9 -3.5,-18.6 18.8,-20.8 18.8,1.5 26.7,23.6 31.5,72.5 -0.9,35.6 -5.2,53.1 -57.4,-25.8 -19.6,3.8 -25.5,-19.6 -1.3,-19.9 -11.1,49.4 88.4,8.4 15.5,14.3 1.2,36 -14.5,15.3 14.1,14.4 -2,33.1 -15.8,12.6 4.7,24.8 -21.5,45.1 -22.3,11.9 17.8,8.7 7.8,30.4 -11.3,16.1 -105.6,83.3 -65.4,-25.7 -9.1,-18.7 12.2,-32.7 19.1,-8.2 13.8,-14.3 31.9,1.8 12.2,15.7 0.1,-57.2 -0.3,-19 22.3,-17.9 18.5,4.3 z"
       id="coupes_002"
       stroke="#ff0000"
       style="stroke-width:1.26936"
       sodipodi:nodetypes="ccccccccccccccccccccccccccccccccccccccccccccccccccccccccccccccccccccccccccccccccccccccccccccccccccccccccccc" />
    <path
       d="M 848.5 487.1 L 815.6 533.9 M 815.6 533.9 L 735.3 456.6 M 735.3 456.6 L 848.5 487.1 M 735.3 456.6 L 975.6 325.0 M 735.3 456.6 L 800.5 348.2 M 680.1 426.2 L 800.5 348.2 M 735.3 456.6 L 680.1 426.2 M 680.1 426.2 L 640.3 353.1 M 640.3 353.1 L 800.5 348.2 M 640.3 353.1 L 751.3 291.7 M 640.3 353.1 L 642.2 282.8 M 642.2 282.8 L 751.3 291.7 M 642.2 282.8 L 765.3 221.8 M 765.3 221.8 L 751.3 291.7 M 642.2 282.8 L 638.2 163.7 M 817.0 304.5 L 887.2 316.6 M 800.5 348.2 L 817.0 304.5 M 817.0 304.5 L 898.3 267.2 M 817.7 232.7 L 898.3 267.2 M 817.7 232.7 L 880.0 179.8 M 880.0 179.8 L 898.3 267.2 M 642.2 282.8 L 574.6 242.3 M 977.8 390.6 L 899.0 499.1 M 974.1 450.7 L 899.0 499.1 M 974.1 450.7 L 935.0 532.5 M 935.0 532.5 L 899.0 499.1 M 638.2 163.7 L 719.0 155.6 M 711.2 539.2 L 672.3 455.3 M 564.5 142.0 L 638.2 163.7 M 553.1 72.7 L 617.9 80.3 M 658.6 91.2 L 738.0 141.2 M 738.0 141.2 L 719.0 155.6 M 658.6 91.2 L 735.5 90.2 M 766.6 44.5 L 735.5 90.2 M 658.6 91.2 L 766.6 44.5 M 858.5 531.7 L 899.0 499.1 M 935.0 532.5 L 858.4 588.9 M 935.0 532.5 L 949.3 587.7 M 843.7 671.0 L 858.4 588.9 M 778.3 645.3 L 800.5 585.7 M 662.8 582.8 L 605.4 505.0 M 880.0 179.8 L 915.9 181.8 M 944.7 302.9 L 898.3 267.2 M 915.9 181.8 L 1007.3 275.6 M 798.1 173.0 L 880.0 179.8 M 817.7 232.7 L 798.1 173.0 M 817.7 232.7 L 767.9 180.9 M 798.1 173.0 L 823.6 99.5 M 823.6 99.5 L 863.2 148.0 M 950.0 143.9 L 1007.3 275.6"
       id="plisM_002"
       stroke="brown"
       stroke-dasharray="4" />
    <path
       d="m 830,508.5 4,4 m 0,-4 -4,4 m -56.5,-19.2 4,4 m 0,-4 -4,4 m 16.4,-27.5 4,4 m 0,-4 -4,4 m 63.5,-85 4,4 m 0,-4 -4,4 m -87.5,7.6 4,4 m 0,-4 -4,4 m -27.6,-19.2 4,4 m 0,-4 -4,4 m -32.6,50.2 4,4 m 0,-4 -4,4 m -47.5,-55.8 4,4 m 0,-4 -4,4 m 60.2,-43 4,4 m 0,-4 -4,4 m -24.6,-32.2 4,4 m 0,-4 -4,4 m -54.6,-8.4 4,4 m 0,-4 -4,4 m 55.5,-34.7 4,4 m 0,-4 -4,4 m 7.1,-39 4,4 m 0,-4 -4,4 m 54.5,0.4 4,4 m 0,-4 -4,4 m -118.1,-37.4 4,4 m 0,-4 -4,4 m 211.9,83.3 4,4 m 0,-4 -4,4 m -43.4,11.8 4,4 m 0,-4 -4,4 m 48.9,-44.5 4,4 m 0,-4 -4,4 m 0.4,-40 4,4 m 0,-4 -4,4 m -9.1,-47.7 4,4 m 0,-4 -4,4 m 40.3,13.3 4,4 m 0,-4 -4,4 m -280.8,35.1 4,4 m 0,-4 -4,4 m 330,178.2 4,4 m 0,-4 -4,4 m -1.9,26.1 4,4 m 0,-4 -4,4 m 18,12.7 4,4 m 0,-4 -4,4 m -37.5,20.2 4,4 m 0,-4 -4,4 m -238.4,-360.2 4,4 m 0,-4 -4,4 m 13.1,333.7 4,4 m 0,-4 -4,4 m -90.3,-348.5 4,4 m 0,-4 -4,4 m -15.9,-80.3 4,4 m 0,-4 -4,4 m 112.8,35.7 4,4 m 0,-4 -4,4 m 30.2,28.2 4,4 m 0,-4 -4,4 m -31.4,-61.7 4,4 m 0,-4 -4,4 m 53.9,-27.3 4,4 m 0,-4 -4,4 m -38.4,-3.5 4,4 m 0,-4 -4,4 m 166.1,443.5 4,4 m 0,-4 -4,4 m 18,41.3 4,4 m 0,-4 -4,4 m 45.5,-4.6 4,4 m 0,-4 -4,4 m -91.1,65.9 4,4 m 0,-4 -4,4 m -61.7,-18.5 4,4 m 0,-4 -4,4 m -155.3,-75.6 4,4 m 0,-4 -4,4 M 896,178.8 l 4,4 m 0,-4 -4,4 m 23.5,100.2 4,4 m 0,-4 -4,4 m 40.1,-60.3 4,4 m 0,-4 -4,4 m -122.5,-56.3 4,4 m 0,-4 -4,4 m -31.2,22.4 4,4 m 0,-4 -4,4 m -15.1,0 4,4 m 0,-4 -4,4 m 18,-74.6 4,4 m 0,-4 -4,4 m 32.6,-16.5 4,4 m 0,-4 -4,4 m 135.3,82 4,4 m 0,-4 -4,4"
       id="marqueM_002"
       stroke="#a52a2a"
       style="display:none" />
    <path
       d="M 735.3 456.6 L 977.8 390.6 M 977.8 390.6 L 848.5 487.1 M 975.6 325.0 L 977.8 390.6 M 735.3 456.6 L 887.2 316.6 M 800.5 348.2 L 887.2 316.6 M 638.2 163.7 L 765.3 221.8 M 574.6 242.3 L 638.2 163.7 M 977.8 390.6 L 974.1 450.7 M 815.6 533.9 L 672.3 455.3 M 815.6 533.9 L 711.2 539.2 M 564.5 142.0 L 617.9 80.3 M 658.6 91.2 L 719.0 155.6 M 777.6 577.7 L 711.2 539.2 M 935.0 532.5 L 858.5 531.7 M 949.3 587.7 L 858.4 588.9 M 800.5 585.7 L 858.4 588.9 M 843.7 671.0 L 800.5 585.7 M 711.2 539.2 L 605.4 505.0 M 711.2 539.2 L 662.8 582.8 M 789.0 318.3 L 817.0 304.5 M 915.9 181.8 L 898.3 267.2 M 915.9 181.8 L 944.7 302.9 M 1007.3 275.6 L 944.7 302.9 M 798.1 173.0 L 863.2 148.0 M 772.3 154.1 L 823.6 99.5 M 798.1 173.0 L 772.3 154.1 M 915.9 181.8 L 950.0 143.9"
       id="plisV_002"
       stroke="green"
       stroke-dasharray="4 1 1 1"
       style="stroke-width:1.26936031" />
    <path
       d="M 854.6 421.6 L 858.6 425.6 M 858.6 421.6 L 854.6 425.6 M 911.1 436.8 L 915.1 440.8 M 915.1 436.8 L 911.1 440.8 M 974.7 355.8 L 978.7 359.8 M 978.7 355.8 L 974.7 359.8 M 809.2 384.6 L 813.2 388.6 M 813.2 384.6 L 809.2 388.6 M 841.8 330.4 L 845.8 334.4 M 845.8 330.4 L 841.8 334.4 M 699.8 190.7 L 703.8 194.7 M 703.8 190.7 L 699.8 194.7 M 604.4 201.0 L 608.4 205.0 M 608.4 201.0 L 604.4 205.0 M 973.9 418.6 L 977.9 422.6 M 977.9 418.6 L 973.9 422.6 M 742.0 492.6 L 746.0 496.6 M 746.0 492.6 L 742.0 496.6 M 761.4 534.6 L 765.4 538.6 M 765.4 534.6 L 761.4 538.6 M 589.2 109.1 L 593.2 113.1 M 593.2 109.1 L 589.2 113.1 M 686.8 121.4 L 690.8 125.4 M 690.8 121.4 L 686.8 125.4 M 742.4 556.5 L 746.4 560.5 M 746.4 556.5 L 742.4 560.5 M 894.8 530.1 L 898.8 534.1 M 898.8 530.1 L 894.8 534.1 M 901.8 586.3 L 905.8 590.3 M 905.8 586.3 L 901.8 590.3 M 827.4 585.3 L 831.4 589.3 M 831.4 585.3 L 827.4 589.3 M 820.1 626.4 L 824.1 630.4 M 824.1 626.4 L 820.1 630.4 M 656.3 520.1 L 660.3 524.1 M 660.3 520.1 L 656.3 524.1 M 685.0 559.0 L 689.0 563.0 M 689.0 559.0 L 685.0 563.0 M 801.0 309.4 L 805.0 313.4 M 805.0 309.4 L 801.0 313.4 M 905.1 222.5 L 909.1 226.5 M 909.1 222.5 L 905.1 226.5 M 928.3 240.3 L 932.3 244.3 M 932.3 240.3 L 928.3 244.3 M 974.0 287.2 L 978.0 291.2 M 978.0 287.2 L 974.0 291.2 M 828.7 158.5 L 832.7 162.5 M 832.7 158.5 L 828.7 162.5 M 795.9 124.8 L 799.9 128.8 M 799.9 124.8 L 795.9 128.8 M 783.2 161.6 L 787.2 165.6 M 787.2 161.6 L 783.2 165.6 M 931.0 160.8 L 935.0 164.8 M 935.0 160.8 L 931.0 164.8"
       id="marqueV_002"
       stroke="green" />
    <path
       d="M 797.6 315.1 L 797.6 314.3 L 798.4 312.8 L 799.1 312.1 L 800.6 311.3 L 803.6 311.3 L 805.1 312.1 L 805.9 312.8 L 806.6 314.3 L 806.6 315.8 L 805.9 317.3 L 804.4 319.6 L 796.9 327.1 L 807.4 327.1"
       id="titre_2"
       stroke="indigo"
       style="stroke-width:1.26936031" />
  </g>
  <g
     id="page_003">
    <path
       d="M 1479.9 169.2 L 1479.3 172.1 L 1481.9 173.0 L 1481.7 172.6 L 1481.6 171.7 L 1481.7 170.8 L 1482.2 170.0 L 1482.9 169.5 L 1483.9 169.4 L 1484.5 169.5 L 1485.3 170.0 L 1485.7 170.7 L 1485.8 171.6 L 1485.7 172.5 L 1485.2 173.3 L 1484.8 173.6 L 1484.2 173.7 M 1481.9 164.1 L 1481.2 164.3 L 1480.8 165.1 L 1480.6 165.7 L 1480.8 166.7 L 1481.5 167.4 L 1482.9 168.0 L 1484.4 168.3 L 1485.6 168.3 L 1486.3 167.8 L 1486.8 167.0 L 1486.9 166.7 L 1486.8 165.8 L 1486.3 165.0 L 1485.5 164.6 L 1485.2 164.5 L 1484.2 164.6 L 1483.5 165.1 L 1483.1 165.9 L 1483.0 166.2 L 1483.1 167.1 L 1483.6 167.9 L 1484.4 168.3 M 1275.6 373.0 L 1270.8 374.9 L 1274.6 377.4 M 1275.6 373.0 L 1272.2 378.3 M 1241.8 199.5 L 1241.0 199.0 L 1240.6 198.2 L 1240.6 197.3 L 1240.7 197.0 L 1241.3 196.2 L 1242.1 195.8 L 1243.0 195.8 L 1243.3 195.9 L 1244.0 196.5 L 1244.4 197.3 L 1244.4 198.2 L 1244.3 198.5 L 1243.7 199.3 L 1243.0 199.6 L 1241.8 199.5 L 1240.3 199.1 L 1239.0 198.3 L 1238.3 197.4 L 1238.4 196.5 L 1238.5 195.9 L 1239.1 195.2 L 1239.8 195.1 M 1284.6 164.0 L 1284.1 164.5 L 1283.5 165.6 L 1281.8 159.5 M 1280.7 166.5 L 1281.5 166.0 L 1281.8 165.0 L 1281.7 163.5 L 1281.5 162.6 L 1280.8 161.2 L 1280.0 160.5 L 1279.0 160.5 L 1278.5 160.6 L 1277.7 161.1 L 1277.3 162.2 L 1277.4 163.7 L 1277.7 164.6 L 1278.3 165.9 L 1279.2 166.6 L 1280.1 166.7 L 1280.5 166.6 M 1362.3 71.3 L 1364.2 69.1 L 1362.4 67.1 L 1362.4 67.5 L 1362.1 68.4 L 1361.5 69.1 L 1360.7 69.5 L 1359.8 69.6 L 1358.9 69.2 L 1358.5 68.8 L 1358.0 68.0 L 1358.0 67.1 L 1358.3 66.3 L 1358.9 65.6 L 1359.7 65.1 L 1360.2 65.1 L 1360.8 65.3 M 1359.1 75.1 L 1357.9 70.0 L 1354.9 73.4 M 1359.1 75.1 L 1354.3 70.9 M 1404.1 69.2 L 1406.6 70.9 L 1408.4 68.7 L 1407.9 68.8 L 1407.0 68.6 L 1406.3 68.1 L 1405.7 67.4 L 1405.5 66.6 L 1405.7 65.6 L 1406.0 65.1 L 1406.8 64.5 L 1407.6 64.3 L 1408.5 64.6 L 1409.3 65.1 L 1409.9 65.8 L 1410.0 66.2 L 1409.9 66.9 M 1402.1 68.0 L 1399.4 66.2 L 1402.2 65.2 L 1401.4 64.7 L 1401.1 64.1 L 1401.0 63.7 L 1401.2 62.8 L 1401.5 62.3 L 1402.3 61.7 L 1403.1 61.5 L 1404.0 61.7 L 1404.8 62.2 L 1405.4 62.9 L 1405.5 63.3 L 1405.4 64.0 M 1110.5 277.3 L 1110.8 277.3 L 1111.4 277.5 L 1111.7 277.8 L 1112.0 278.4 L 1112.1 279.6 L 1111.9 280.2 L 1111.6 280.5 L 1111.0 280.9 L 1110.4 280.9 L 1109.8 280.6 L 1108.8 280.1 L 1105.7 277.3 L 1105.9 281.5 M 1112.4 283.7 L 1112.0 282.9 L 1111.4 282.6 L 1110.8 282.6 L 1110.2 283.0 L 1109.9 283.6 L 1109.7 284.8 L 1109.5 285.7 L 1108.9 286.3 L 1108.3 286.7 L 1107.4 286.7 L 1106.8 286.5 L 1106.5 286.2 L 1106.1 285.3 L 1106.1 284.1 L 1106.3 283.2 L 1106.6 282.9 L 1107.2 282.5 L 1108.1 282.5 L 1108.7 282.7 L 1109.3 283.3 L 1109.7 284.2 L 1110.0 285.4 L 1110.4 286.0 L 1111.0 286.2 L 1111.6 286.2 L 1112.2 285.9 L 1112.4 284.9 L 1112.3 283.6 M 1200.4 205.8 L 1201.3 205.4 L 1202.1 205.4 L 1202.9 205.9 L 1203.2 206.1 L 1203.5 207.0 L 1203.5 207.8 L 1203.1 208.6 L 1202.8 208.8 L 1202.0 209.2 L 1201.1 209.2 L 1200.3 208.8 L 1200.1 208.5 L 1199.7 207.7 L 1199.7 206.8 L 1200.4 205.8 L 1201.5 204.8 L 1202.8 204.0 L 1203.9 203.8 L 1204.7 204.2 L 1205.1 204.7 L 1205.5 205.5 L 1205.3 206.2 M 1098.5 207.3 L 1098.9 207.8 L 1100.0 208.5 L 1093.9 210.0 M 1099.1 210.4 L 1099.4 210.3 L 1100.1 210.5 L 1100.5 210.7 L 1100.9 211.2 L 1101.2 212.4 L 1101.0 213.0 L 1100.8 213.4 L 1100.3 213.8 L 1099.7 214.0 L 1099.1 213.8 L 1098.1 213.5 L 1094.4 211.3 L 1095.4 215.4 M 1111.9 361.1 L 1111.8 364.4 L 1109.5 362.5 L 1109.4 363.4 L 1109.1 364.0 L 1108.8 364.3 L 1107.9 364.5 L 1107.3 364.5 L 1106.4 364.2 L 1105.8 363.5 L 1105.6 362.6 L 1105.6 361.7 L 1105.9 360.8 L 1106.3 360.5 L 1106.9 360.3 M 1110.2 366.3 L 1110.5 366.3 L 1111.1 366.6 L 1111.4 367.0 L 1111.6 367.6 L 1111.6 368.8 L 1111.2 369.4 L 1110.9 369.6 L 1110.3 369.9 L 1109.7 369.9 L 1109.1 369.6 L 1108.3 368.9 L 1105.4 365.8 L 1105.2 370.0 M 1201.6 392.0 L 1203.9 396.6 L 1206.0 392.6 M 1201.6 392.0 L 1207.2 394.9 M 1142.4 418.1 L 1141.4 418.2 L 1141.0 418.7 L 1140.8 419.2 L 1141.0 419.9 L 1141.5 420.3 L 1142.6 420.9 L 1143.4 421.5 L 1143.8 422.2 L 1143.9 422.8 L 1143.7 423.7 L 1143.3 424.2 L 1142.9 424.4 L 1141.9 424.5 L 1140.8 424.2 L 1140.0 423.7 L 1139.8 423.3 L 1139.6 422.7 L 1139.9 421.8 L 1140.3 421.3 L 1141.0 420.9 L 1142.0 420.8 L 1143.2 420.8 L 1143.9 420.7 L 1144.3 420.2 L 1144.5 419.6 L 1144.3 418.9 L 1143.5 418.4 L 1142.2 418.1 M 1149.6 420.0 L 1146.7 419.2 L 1145.7 421.8 L 1146.1 421.5 L 1147.0 421.5 L 1147.9 421.7 L 1148.7 422.2 L 1149.1 423.0 L 1149.2 423.9 L 1149.0 424.5 L 1148.5 425.3 L 1147.8 425.7 L 1146.8 425.8 L 1145.9 425.5 L 1145.1 425.0 L 1144.9 424.7 L 1144.8 424.0 M 1522.8 263.8 L 1522.5 263.9 L 1521.9 263.6 L 1521.5 263.4 L 1521.2 262.8 L 1521.1 261.6 L 1521.3 261.0 L 1521.6 260.6 L 1522.1 260.3 L 1522.7 260.2 L 1523.4 260.5 L 1524.3 261.0 L 1527.6 263.7 L 1527.2 259.5 M 1520.5 255.4 L 1520.7 258.4 L 1523.5 258.4 L 1523.1 258.1 L 1522.7 257.3 L 1522.7 256.4 L 1522.9 255.5 L 1523.4 254.8 L 1524.3 254.4 L 1524.9 254.4 L 1525.8 254.6 L 1526.5 255.1 L 1526.8 256.0 L 1526.9 256.9 L 1526.7 257.8 L 1526.4 258.1 L 1525.9 258.5 M 1507.4 176.6 L 1509.0 174.0 L 1506.8 172.4 L 1506.9 172.8 L 1506.7 173.7 L 1506.2 174.5 L 1505.5 175.1 L 1504.7 175.3 L 1503.8 175.1 L 1503.2 174.8 L 1502.6 174.1 L 1502.4 173.2 L 1502.6 172.3 L 1503.1 171.5 L 1503.8 170.9 L 1504.2 170.8 L 1504.9 170.9 M 1503.9 180.7 L 1504.5 180.8 L 1505.3 180.1 L 1505.6 179.6 L 1505.8 178.7 L 1505.3 177.7 L 1504.2 176.7 L 1502.9 175.9 L 1501.7 175.6 L 1500.9 175.8 L 1500.2 176.4 L 1500.0 176.6 L 1499.8 177.6 L 1500.0 178.4 L 1500.6 179.1 L 1500.9 179.3 L 1501.8 179.5 L 1502.6 179.3 L 1503.4 178.6 L 1503.5 178.4 L 1503.7 177.5 L 1503.5 176.6 L 1502.9 175.9 M 1539.8 414.1 L 1544.5 416.2 L 1543.6 411.8 M 1539.8 414.1 L 1546.0 412.8 M 1539.0 409.7 L 1539.4 410.5 L 1540.4 410.9 L 1542.0 410.9 L 1542.8 410.8 L 1544.3 410.2 L 1545.0 409.4 L 1545.1 408.5 L 1545.0 407.9 L 1544.5 407.0 L 1543.5 406.6 L 1542.0 406.6 L 1541.1 406.8 L 1539.7 407.4 L 1539.0 408.2 L 1538.8 409.1 L 1538.9 409.5 M 1284.9 483.3 L 1280.1 485.2 L 1283.8 487.6 M 1284.9 483.3 L 1281.4 488.5 M 1290.4 486.9 L 1284.5 490.6 M 1286.9 484.7 L 1290.4 486.9 M 1290.5 441.6 L 1290.9 440.7 L 1290.6 440.1 L 1290.2 439.7 L 1289.5 439.5 L 1288.9 439.8 L 1287.9 440.5 L 1287.1 441.0 L 1286.2 441.0 L 1285.6 440.9 L 1284.9 440.3 L 1284.6 439.7 L 1284.6 439.3 L 1285.0 438.4 L 1285.7 437.5 L 1286.6 437.0 L 1287.0 437.0 L 1287.6 437.1 L 1288.3 437.7 L 1288.6 438.3 L 1288.6 439.2 L 1288.3 440.0 L 1287.7 441.2 L 1287.5 441.8 L 1287.8 442.4 L 1288.3 442.8 L 1288.9 443.0 L 1289.7 442.5 L 1290.6 441.5 M 1285.7 447.2 L 1287.6 444.9 L 1285.8 443.0 L 1285.8 443.4 L 1285.4 444.3 L 1284.9 444.9 L 1284.0 445.4 L 1283.2 445.5 L 1282.3 445.1 L 1281.9 444.7 L 1281.4 443.9 L 1281.3 443.1 L 1281.7 442.2 L 1282.3 441.5 L 1283.1 441.0 L 1283.5 441.0 L 1284.1 441.2 M 1488.6 419.2 L 1488.0 418.5 L 1487.3 418.5 L 1486.7 418.8 L 1486.3 419.3 L 1486.3 420.0 L 1486.5 421.2 L 1486.6 422.1 L 1486.3 422.9 L 1485.9 423.4 L 1485.1 423.8 L 1484.4 423.8 L 1484.0 423.6 L 1483.4 422.9 L 1482.9 421.8 L 1482.8 420.9 L 1482.9 420.5 L 1483.3 420.0 L 1484.2 419.6 L 1484.8 419.6 L 1485.6 419.9 L 1486.3 420.6 L 1487.0 421.6 L 1487.6 422.0 L 1488.2 422.0 L 1488.8 421.8 L 1489.2 421.3 L 1489.1 420.3 L 1488.5 419.1 M 1491.9 426.4 L 1484.9 426.3 M 1490.1 422.6 L 1491.9 426.4 M 1368.1 509.9 L 1368.3 510.8 L 1368.8 511.2 L 1369.4 511.3 L 1370.1 511.0 L 1370.4 510.5 L 1370.9 509.3 L 1371.3 508.5 L 1371.9 507.9 L 1372.6 507.7 L 1373.4 507.8 L 1374.0 508.2 L 1374.3 508.5 L 1374.5 509.4 L 1374.3 510.6 L 1373.9 511.5 L 1373.6 511.8 L 1373.0 512.0 L 1372.1 511.9 L 1371.5 511.5 L 1371.0 510.9 L 1370.8 509.9 L 1370.6 508.7 L 1370.4 508.1 L 1369.8 507.7 L 1369.2 507.6 L 1368.6 507.9 L 1368.2 508.7 L 1368.1 510.1 M 1368.7 504.6 L 1368.9 505.5 L 1369.4 505.9 L 1370.0 506.0 L 1370.7 505.7 L 1371.0 505.2 L 1371.5 504.0 L 1371.9 503.2 L 1372.5 502.6 L 1373.2 502.4 L 1374.1 502.5 L 1374.6 502.9 L 1374.9 503.2 L 1375.1 504.1 L 1374.9 505.3 L 1374.5 506.2 L 1374.2 506.4 L 1373.6 506.7 L 1372.7 506.6 L 1372.1 506.2 L 1371.6 505.5 L 1371.4 504.6 L 1371.2 503.4 L 1371.0 502.8 L 1370.5 502.4 L 1369.9 502.3 L 1369.2 502.5 L 1368.8 503.4 L 1368.7 504.7 M 1344.2 515.4 L 1341.5 514.2 L 1340.1 516.6 L 1340.5 516.5 L 1341.5 516.5 L 1342.3 516.9 L 1343.0 517.5 L 1343.3 518.3 L 1343.3 519.2 L 1343.0 519.8 L 1342.4 520.5 L 1341.6 520.8 L 1340.7 520.7 L 1339.8 520.4 L 1339.1 519.8 L 1339.0 519.4 L 1338.9 518.7 M 1345.7 517.7 L 1345.9 517.4 L 1346.4 517.0 L 1346.8 516.8 L 1347.4 516.8 L 1348.5 517.2 L 1349.0 517.8 L 1349.1 518.1 L 1349.2 518.8 L 1348.9 519.4 L 1348.4 519.8 L 1347.5 520.4 L 1343.6 522.0 L 1347.4 523.6 M 1407.4 475.8 L 1406.4 475.9 L 1406.0 476.4 L 1405.8 477.0 L 1406.0 477.6 L 1406.5 478.0 L 1407.6 478.6 L 1408.4 479.1 L 1408.8 479.8 L 1409.0 480.5 L 1408.8 481.4 L 1408.3 481.9 L 1408.0 482.1 L 1407.0 482.2 L 1405.9 481.9 L 1405.1 481.4 L 1404.8 481.0 L 1404.7 480.4 L 1404.9 479.5 L 1405.3 479.0 L 1406.1 478.6 L 1407.0 478.5 L 1408.2 478.5 L 1408.9 478.3 L 1409.3 477.8 L 1409.5 477.2 L 1409.3 476.6 L 1408.5 476.1 L 1407.2 475.7 M 1412.6 477.0 L 1411.6 477.1 L 1411.2 477.6 L 1411.0 478.2 L 1411.2 478.9 L 1411.7 479.3 L 1412.8 479.9 L 1413.6 480.4 L 1414.0 481.1 L 1414.2 481.8 L 1414.0 482.6 L 1413.5 483.1 L 1413.2 483.4 L 1412.2 483.4 L 1411.1 483.2 L 1410.3 482.7 L 1410.0 482.3 L 1409.9 481.6 L 1410.1 480.8 L 1410.5 480.3 L 1411.3 479.8 L 1412.2 479.7 L 1413.4 479.7 L 1414.1 479.6 L 1414.5 479.1 L 1414.7 478.5 L 1414.5 477.8 L 1413.7 477.3 L 1412.4 477.0 M 1444.7 468.0 L 1442.9 470.4 L 1444.9 472.2 L 1444.9 471.8 L 1445.1 470.9 L 1445.7 470.2 L 1446.4 469.6 L 1447.3 469.5 L 1448.2 469.8 L 1448.7 470.1 L 1449.2 470.9 L 1449.4 471.7 L 1449.1 472.6 L 1448.6 473.4 L 1447.8 473.9 L 1447.4 474.0 L 1446.7 473.9 M 1446.8 467.5 L 1446.9 466.8 L 1446.7 465.5 L 1451.8 469.2 M 1461.1 430.5 L 1461.3 431.4 L 1461.9 431.8 L 1462.5 431.9 L 1463.1 431.7 L 1463.5 431.1 L 1463.9 430.0 L 1464.3 429.1 L 1465.0 428.6 L 1465.6 428.4 L 1466.5 428.5 L 1467.1 428.9 L 1467.3 429.2 L 1467.5 430.1 L 1467.4 431.3 L 1467.0 432.2 L 1466.6 432.4 L 1466.0 432.7 L 1465.1 432.5 L 1464.5 432.2 L 1464.0 431.5 L 1463.8 430.6 L 1463.7 429.3 L 1463.5 428.7 L 1462.9 428.3 L 1462.3 428.3 L 1461.7 428.5 L 1461.3 429.3 L 1461.1 430.7 M 1462.2 422.7 L 1468.0 426.5 M 1461.6 426.8 L 1462.2 422.7 M 1528.6 464.4 L 1526.7 466.6 L 1528.5 468.6 L 1528.5 468.2 L 1528.9 467.3 L 1529.5 466.6 L 1530.3 466.1 L 1531.1 466.1 L 1532.0 466.4 L 1532.4 466.8 L 1532.9 467.6 L 1533.0 468.5 L 1532.6 469.4 L 1532.1 470.1 L 1531.2 470.5 L 1530.8 470.6 L 1530.2 470.4 M 1531.0 461.7 L 1530.6 462.5 L 1530.9 463.6 L 1531.8 464.8 L 1532.5 465.4 L 1533.8 466.1 L 1534.9 466.2 L 1535.7 465.8 L 1536.1 465.3 L 1536.5 464.4 L 1536.2 463.4 L 1535.2 462.2 L 1534.6 461.6 L 1533.2 460.8 L 1532.2 460.7 L 1531.3 461.2 L 1531.0 461.5 M 1511.1 463.5 L 1509.6 460.9 L 1507.1 461.9 L 1507.5 462.1 L 1508.2 462.7 L 1508.7 463.5 L 1508.9 464.4 L 1508.7 465.2 L 1508.0 465.9 L 1507.5 466.2 L 1506.6 466.4 L 1505.8 466.2 L 1505.0 465.6 L 1504.6 464.8 L 1504.4 463.9 L 1504.5 463.4 L 1504.9 462.9 M 1510.7 465.6 L 1511.3 466.0 L 1512.5 466.3 L 1507.0 469.5 M 1099.5 145.9 L 1099.4 144.9 L 1098.9 144.5 L 1098.3 144.3 L 1097.6 144.5 L 1097.2 145.0 L 1096.6 146.1 L 1096.1 146.9 L 1095.4 147.3 L 1094.7 147.5 L 1093.8 147.2 L 1093.3 146.8 L 1093.1 146.4 L 1093.1 145.5 L 1093.3 144.3 L 1093.9 143.5 L 1094.2 143.3 L 1094.9 143.2 L 1095.7 143.4 L 1096.3 143.8 L 1096.7 144.6 L 1096.8 145.5 L 1096.8 146.7 L 1096.9 147.4 L 1097.4 147.8 L 1098.0 148.0 L 1098.6 147.8 L 1099.2 147.0 L 1099.5 145.7 M 1178.1 150.4 L 1177.8 149.8 L 1176.9 148.9 L 1183.2 148.8 M 1176.7 145.9 L 1177.0 146.8 L 1177.9 147.4 L 1179.4 147.7 L 1180.3 147.7 L 1181.8 147.4 L 1182.7 146.8 L 1183.0 145.9 L 1183.0 145.3 L 1182.7 144.4 L 1181.8 143.8 L 1180.3 143.5 L 1179.4 143.5 L 1177.9 143.8 L 1177.0 144.4 L 1176.7 145.3 L 1176.7 145.8 M 1143.6 121.4 L 1146.6 121.3 L 1146.8 118.6 L 1146.5 118.9 L 1145.7 119.3 L 1144.8 119.3 L 1143.8 119.0 L 1143.2 118.4 L 1142.9 117.5 L 1142.9 116.9 L 1143.2 116.0 L 1143.8 115.4 L 1144.7 115.1 L 1145.6 115.1 L 1146.5 115.3 L 1146.8 115.6 L 1147.1 116.2 M 1138.3 121.5 L 1141.3 121.4 L 1141.5 118.7 L 1141.2 119.0 L 1140.3 119.4 L 1139.4 119.4 L 1138.5 119.1 L 1137.9 118.5 L 1137.6 117.6 L 1137.6 117.0 L 1137.9 116.1 L 1138.4 115.5 L 1139.3 115.2 L 1140.2 115.2 L 1141.1 115.4 L 1141.4 115.7 L 1141.8 116.3 M 1283.9 114.0 L 1281.7 112.0 L 1279.7 113.9 L 1280.1 113.8 L 1281.0 114.2 L 1281.7 114.8 L 1282.1 115.6 L 1282.2 116.5 L 1281.8 117.3 L 1281.4 117.8 L 1280.6 118.3 L 1279.8 118.3 L 1278.9 118.0 L 1278.2 117.4 L 1277.7 116.6 L 1277.7 116.1 L 1277.9 115.5 M 1288.0 117.5 L 1285.7 115.6 L 1283.7 117.4 L 1284.1 117.4 L 1285.0 117.7 L 1285.7 118.3 L 1286.1 119.1 L 1286.2 120.0 L 1285.8 120.9 L 1285.4 121.3 L 1284.6 121.8 L 1283.8 121.8 L 1282.9 121.5 L 1282.2 120.9 L 1281.7 120.1 L 1281.7 119.6 L 1281.9 119.0 M 1309.1 69.8 L 1310.7 72.4 L 1313.1 71.2 L 1312.7 71.1 L 1312.0 70.5 L 1311.5 69.7 L 1311.3 68.8 L 1311.5 68.0 L 1312.1 67.3 L 1312.6 67.0 L 1313.5 66.7 L 1314.3 66.9 L 1315.0 67.5 L 1315.5 68.3 L 1315.7 69.2 L 1315.6 69.6 L 1315.3 70.2 M 1306.4 65.7 L 1311.6 66.0 L 1309.2 62.2 M 1306.4 65.7 L 1311.8 62.4 M 1232.2 58.2 L 1234.2 60.9 L 1231.2 60.9 L 1231.7 61.6 L 1231.8 62.2 L 1231.7 62.7 L 1231.2 63.4 L 1230.7 63.8 L 1229.8 64.1 L 1229.0 63.9 L 1228.2 63.4 L 1227.7 62.7 L 1227.4 61.8 L 1227.4 61.3 L 1227.7 60.8 M 1252.5 44.2 L 1253.4 43.9 L 1254.0 42.9 L 1254.3 41.4 L 1254.3 40.5 L 1253.9 39.0 L 1253.3 38.2 L 1252.4 37.9 L 1251.8 37.9 L 1250.9 38.2 L 1250.3 39.1 L 1250.1 40.6 L 1250.1 41.5 L 1250.4 43.0 L 1251.0 43.9 L 1251.9 44.2 L 1252.3 44.2 M 1513.8 93.0 L 1513.2 92.9 L 1512.4 93.5 L 1512.1 94.0 L 1511.8 94.9 L 1512.3 95.9 L 1513.4 97.0 L 1514.6 97.8 L 1515.8 98.2 L 1516.6 98.0 L 1517.4 97.5 L 1517.5 97.2 L 1517.8 96.3 L 1517.6 95.5 L 1517.0 94.7 L 1516.8 94.6 L 1515.8 94.3 L 1515.0 94.5 L 1514.3 95.1 L 1514.1 95.3 L 1513.9 96.2 L 1514.0 97.1 L 1514.6 97.8 M 1458.8 48.9 L 1459.9 46.1 L 1457.5 44.8 L 1457.7 45.2 L 1457.7 46.2 L 1457.3 47.0 L 1456.7 47.7 L 1455.9 48.1 L 1455.0 48.0 L 1454.4 47.8 L 1453.7 47.2 L 1453.4 46.4 L 1453.4 45.5 L 1453.8 44.6 L 1454.4 43.9 L 1454.8 43.7 L 1455.4 43.7 M 1458.0 51.1 L 1456.8 54.1 L 1455.2 51.6 L 1454.9 52.4 L 1454.4 52.9 L 1454.0 53.0 L 1453.0 53.0 L 1452.5 52.8 L 1451.8 52.1 L 1451.4 51.4 L 1451.5 50.4 L 1451.8 49.6 L 1452.4 48.9 L 1452.8 48.7 L 1453.5 48.6 M 1509.7 25.0 L 1510.6 24.7 L 1511.3 23.8 L 1511.7 22.4 L 1511.7 21.5 L 1511.5 19.9 L 1510.9 19.0 L 1510.1 18.7 L 1509.5 18.6 L 1508.6 18.9 L 1507.9 19.7 L 1507.5 21.2 L 1507.5 22.1 L 1507.7 23.6 L 1508.2 24.6 L 1509.1 24.9 L 1509.6 24.9 M 1542.2 39.8 L 1542.1 39.1 L 1541.4 38.0 L 1547.5 39.7"
       id="nums_003"
       stroke="black"
       style="stroke-width:1.01548824;stroke-dasharray:none" />
    <path
       d="m 1466.7,451.3 -28.8,40.4 -57.8,-14 13.4,15 -3.8,32.5 -16.4,11.5 -19.7,8 -33.7,-14.4 -8,-19.7 -21.4,4.1 -32.4,-21 -5.1,-21.2 1.6,-24.8 31.8,-36.9 24.3,-5.3 -79.9,-51.3 3.4,25.9 -24.3,46.2 -23.2,11.9 -85.7,-22.4 -13.8,-23.4 2.6,-55.4 16.1,-22 -3.7,-64.9 -18.8,-74.4 15.6,-61.7 85.7,-1.7 15.1,15.3 0.3,37.5 -14.9,15.4 41.5,44.4 -9.8,-17.8 10.7,-31.6 18.6,-8.2 65.8,-17.8 -24.4,-1.4 -35.5,-31.1 -4.7,-24 -21.4,-3.9 -22.8,-31.2 2.7,-21.6 20.5,-15.2 50.3,-0.4 20.8,14.9 35.3,56.7 -1.3,-21.2 24.3,-27.5 21.2,-1.4 60.4,38.4 -8,-20.5 14.5,-36.6 19.9,-9.4 91.3,5.2 9,23.2 -1.2,4.2 -19.9,15 1.9,24.5 -26.1,40 -23.2,8.2 8.8,31.2 v 0 l -23.3,38.6 36.9,-61 19.9,50.4 12.1,126.6 -9.9,53.2 18,13.5 8.1,40.2 -11.4,19.4 2.9,19.7 -20.7,24.1 -19.9,0.2 -24.1,-11.9 -2.5,-4.3 1.9,-26.8 -23.2,-14.8 3.7,-28.1 z"
       id="coupes_003"
       stroke="#ff0000"
       style="stroke-width:1.26936"
       sodipodi:nodetypes="cccccccccccccccccccccccccccccccccccccccccccccccccccccccccccccccccccccccccccccc" />
    <path
       d="M 1495.6 134.4 L 1481.1 204.2 M 1481.1 204.2 L 1437.4 80.6 M 1437.4 80.6 L 1495.6 134.4 M 1481.1 204.2 L 1472.9 404.6 M 1472.9 404.6 L 1380.1 477.7 M 1380.1 477.7 L 1310.7 405.5 M 1310.7 405.5 L 1437.4 80.6 M 1230.8 354.2 L 1312.0 149.5 M 1312.0 149.5 L 1437.4 80.6 M 1312.0 149.5 L 1332.8 92.3 M 1332.8 92.3 L 1437.4 80.6 M 1230.8 354.2 L 1226.7 224.9 M 1226.7 224.9 L 1312.0 149.5 M 1226.7 224.9 L 1246.2 167.3 M 1332.8 92.3 L 1377.0 42.2 M 1230.8 354.2 L 1105.9 315.0 M 1105.9 315.0 L 1226.7 224.9 M 1102.2 250.1 L 1226.7 224.9 M 1102.2 250.1 L 1185.2 180.5 M 1230.8 354.2 L 1101.0 415.8 M 1230.8 354.2 L 1186.7 438.2 M 1540.1 373.4 L 1472.9 404.6 M 1481.1 204.2 L 1540.1 373.4 M 1518.0 143.2 L 1540.1 373.4 M 1540.1 373.4 L 1554.8 446.5 M 1554.8 446.5 L 1472.9 404.6 M 1380.1 477.7 L 1311.9 510.6 M 1311.9 510.6 L 1310.7 405.5 M 1311.9 510.6 L 1253.0 472.5 M 1554.8 446.5 L 1492.4 447.5 M 1492.4 447.5 L 1472.9 404.6 M 1380.1 477.7 L 1373.3 536.7 M 1373.3 536.7 L 1311.9 510.6 M 1554.8 446.5 L 1517.1 490.5 M 1517.1 490.5 L 1492.4 447.5 M 1099.0 114.0 L 1185.2 180.5 M 1184.7 112.3 L 1185.2 180.5 M 1247.4 93.0 L 1332.8 92.3 M 1247.4 93.0 L 1297.5 35.6 M 1247.4 93.0 L 1205.9 36.3 M 1205.9 36.3 L 1297.5 35.6 M 1543.0 61.7 L 1495.6 134.4 M 1437.4 80.6 L 1543.0 61.7 M 1463.8 14.1 L 1543.0 61.7 M 1437.4 80.6 L 1463.8 14.1 M 1555.1 19.3 L 1543.0 61.7"
       id="plisM_003"
       stroke="brown"
       stroke-dasharray="4" />
    <path
       d="m 1486.3,167.3 4,4 m 0,-4 -4,4 m -29.1,-30.9 4,4 m 0,-4 -4,4 m 7.3,-38.9 4,4 m 0,-4 -4,4 m 10.5,192.9 4,4 m 0,-4 -4,4 m -50.5,132.7 4,4 m 0,-4 -4,4 m -81.1,-3.5 4,4 m 0,-4 -4,4 m 28.7,-202.6 4,4 m 0,-4 -4,4 m -102.7,4.8 4,4 m 0,-4 -4,4 m 103.3,-140.7 4,4 m 0,-4 -4,4 m -52.3,1.8 4,4 m 0,-4 -4,4 m 62.7,-38.4 4,4 m 0,-4 -4,4 m -156.3,199 4,4 m 0,-4 -4,4 m 40.5,-106.3 4,4 m 0,-4 -4,4 m -32.9,4.9 4,4 m 0,-4 -4,4 m 118.5,-132.8 4,4 m 0,-4 -4,4 m -186.5,263.3 4,4 m 0,-4 -4,4 m -2.1,-68.6 4,4 m 0,-4 -4,4 m -1.9,-36.5 4,4 m 0,-4 -4,4 m -20.7,-26.2 4,4 m 0,-4 -4,4 m 22.2,165.7 4,4 m 0,-4 -4,4 m 42.9,7.2 4,4 m 0,-4 -4,4 m 297.7,-11.2 4,4 m 0,-4 -4,4 m 4.1,-104.2 4,4 m 0,-4 -4,4 m 18.4,-34.5 4,4 m 0,-4 -4,4 m 18.4,147.7 4,4 m 0,-4 -4,4 m -33.6,11.6 4,4 m 0,-4 -4,4 m -167.8,64.5 4,4 m 0,-4 -4,4 m -34.7,-40.1 4,4 m 0,-4 -4,4 m -28.9,29.6 4,4 m 0,-4 -4,4 m 241.2,-48.6 4,4 m 0,-4 -4,4 m -41,-25 4,4 m 0,-4 -4,4 m -105.9,77.2 4,4 m 0,-4 -4,4 m -34.1,12.5 4,4 m 0,-4 -4,4 m 193.4,-59.2 4,4 m 0,-4 -4,4 m -31.2,-3.5 4,4 m 0,-4 -4,4 m -362.7,-325.7 4,4 m 0,-4 -4,4 m 42.8,-4.9 4,4 m 0,-4 -4,4 m 105.2,-57.7 4,4 m 0,-4 -4,4 m -17.6,-32.4 4,4 m 0,-4 -4,4 m -45.8,-3.6 4,4 m 0,-4 -4,4 m 25,-32.8 4,4 m 0,-4 -4,4 m 267.6,58.1 4,4 m 0,-4 -4,4 m -29.1,-30.8 4,4 m 0,-4 -4,4 m 13.2,-37.3 4,4 m 0,-4 -4,4 m -52.8,5.4 4,4 m 0,-4 -4,4 m 98.5,-10.8 4,4 m 0,-4 -4,4"
       id="marqueM_003"
       stroke="#a52a2a"
       style="display:none" />
    <path
       d="M 1472.9 404.6 L 1437.4 80.6 M 1380.1 477.7 L 1437.4 80.6 M 1230.8 354.2 L 1437.4 80.6 M 1083.4 175.7 L 1185.2 180.5 M 1101.0 415.8 L 1105.9 315.0 M 1253.0 472.5 L 1310.7 405.5 M 1472.9 404.6 L 1437.9 491.7 M 1312.0 149.5 L 1247.4 93.0"
       id="plisV_003"
       stroke="green"
       stroke-dasharray="4 1 1 1"
       style="stroke-width:1.26936031" />
    <path
       d="M 1453.1 240.6 L 1457.1 244.6 M 1457.1 240.6 L 1453.1 244.6 M 1406.8 277.1 L 1410.8 281.1 M 1410.8 277.1 L 1406.8 281.1 M 1332.1 215.4 L 1336.1 219.4 M 1336.1 215.4 L 1332.1 219.4 M 1132.3 176.1 L 1136.3 180.1 M 1136.3 176.1 L 1132.3 180.1 M 1101.5 363.4 L 1105.5 367.4 M 1105.5 363.4 L 1101.5 367.4 M 1279.8 437.0 L 1283.8 441.0 M 1283.8 437.0 L 1279.8 441.0 M 1453.4 446.1 L 1457.4 450.1 M 1457.4 446.1 L 1453.4 450.1 M 1277.7 119.3 L 1281.7 123.3 M 1281.7 119.3 L 1277.7 123.3"
       id="marqueV_003"
       stroke="green" />
    <path
       d="M 1322.2 267.7 L 1330.5 267.7 L 1326.0 273.7 L 1328.2 273.7 L 1329.7 274.5 L 1330.5 275.2 L 1331.2 277.5 L 1331.2 279.0 L 1330.5 281.2 L 1329.0 282.7 L 1326.7 283.5 L 1324.5 283.5 L 1322.2 282.7 L 1321.5 282.0 L 1320.7 280.5"
       id="titre_3"
       stroke="indigo"
       style="stroke-width:1.26936031" />
  </g>
</svg>
