<?xml version="1.0" encoding="UTF-8" standalone="no"?>
<svg
   height="297mm"
   viewBox="0 0 533 754"
   width="210mm"
   version="1.1"
   id="svg1"
   sodipodi:docname="moai130_H20_A3x3.svg"
   inkscape:version="1.3 (1:1.3+202307231459+0e150ed6c4)"
   xmlns:inkscape="http://www.inkscape.org/namespaces/inkscape"
   xmlns:sodipodi="http://sodipodi.sourceforge.net/DTD/sodipodi-0.dtd"
   xmlns="http://www.w3.org/2000/svg"
   xmlns:svg="http://www.w3.org/2000/svg">
  <defs
     id="defs1" />
  <sodipodi:namedview
     id="namedview1"
     pagecolor="#ffffff"
     bordercolor="#000000"
     borderopacity="0.25"
     inkscape:showpageshadow="2"
     inkscape:pageopacity="0.0"
     inkscape:pagecheckerboard="0"
     inkscape:deskcolor="#d1d1d1"
     inkscape:document-units="mm"
     showgrid="false"
     inkscape:zoom="0.96223223"
     inkscape:cx="719.16112"
     inkscape:cy="566.91097"
     inkscape:window-width="1920"
     inkscape:window-height="1007"
     inkscape:window-x="0"
     inkscape:window-y="0"
     inkscape:window-maximized="1"
     inkscape:current-layer="svg1" />
  <style
     type="text/css"
     id="style1"><![CDATA[
			path {
				fill: none;
				stroke-width: 0.15mm;
			}
		]]></style>
  <g
     id="page_001">
    <path
       d="M 161.0 101.8 L 161.8 105.0 L 159.1 103.8 L 159.3 104.7 L 159.1 105.3 L 158.9 105.7 L 158.1 106.2 L 157.5 106.3 L 156.6 106.3 L 155.8 105.8 L 155.3 105.0 L 155.1 104.1 L 155.2 103.2 L 155.4 102.8 L 155.9 102.4 M 162.3 107.0 L 163.1 110.2 L 160.3 109.0 L 160.5 109.9 L 160.4 110.5 L 160.2 110.9 L 159.4 111.4 L 158.8 111.5 L 157.8 111.4 L 157.1 111.0 L 156.6 110.2 L 156.4 109.3 L 156.5 108.4 L 156.7 108.0 L 157.2 107.6 M 193.6 133.0 L 196.8 132.1 L 195.7 134.9 L 196.5 134.6 L 197.2 134.8 L 197.6 135.0 L 198.1 135.7 L 198.3 136.3 L 198.2 137.3 L 197.8 138.0 L 197.0 138.5 L 196.2 138.8 L 195.2 138.7 L 194.9 138.5 L 194.4 138.0 M 201.2 130.8 L 199.4 135.6 L 203.7 134.4 M 201.2 130.8 L 202.9 136.8 M 168.0 41.8 L 166.3 44.7 L 165.2 41.9 L 164.7 42.7 L 164.2 43.1 L 163.8 43.2 L 162.8 43.0 L 162.3 42.7 L 161.7 41.9 L 161.5 41.1 L 161.7 40.2 L 162.1 39.4 L 162.8 38.8 L 163.2 38.7 L 163.9 38.7 M 163.6 49.4 L 159.6 43.6 M 165.7 45.8 L 163.6 49.4 M 214.7 26.9 L 214.6 27.2 L 214.3 27.8 L 214.0 28.1 L 213.3 28.3 L 212.1 28.2 L 211.6 27.9 L 211.3 27.6 L 211.0 26.9 L 211.1 26.3 L 211.4 25.8 L 212.1 24.9 L 215.4 22.2 L 211.2 21.8 M 205.8 25.6 L 206.2 24.7 L 206.8 24.2 L 207.7 24.0 L 208.0 24.0 L 208.9 24.4 L 209.5 25.0 L 209.7 25.9 L 209.7 26.2 L 209.3 27.1 L 208.6 27.7 L 207.7 27.9 L 207.4 27.9 L 206.5 27.5 L 206.0 26.8 L 205.8 25.6 L 205.9 24.1 L 206.3 22.6 L 207.0 21.8 L 207.9 21.6 L 208.5 21.6 L 209.4 22.0 L 209.7 22.6 M 361.6 58.6 L 361.0 58.7 L 359.9 59.4 L 361.4 53.3 M 355.4 56.3 L 355.9 55.5 L 356.7 55.1 L 357.6 55.0 L 357.9 55.1 L 358.7 55.6 L 359.1 56.3 L 359.2 57.3 L 359.1 57.6 L 358.6 58.4 L 357.9 58.8 L 357.0 58.9 L 356.7 58.8 L 355.9 58.3 L 355.4 57.6 L 355.4 56.3 L 355.8 54.9 L 356.5 53.5 L 357.3 52.8 L 358.2 52.7 L 358.8 52.8 L 359.6 53.3 L 359.7 54.0 M 229.6 183.1 L 229.8 183.2 L 230.3 183.6 L 230.6 184.0 L 230.7 184.7 L 230.4 185.8 L 230.0 186.3 L 229.6 186.5 L 228.9 186.7 L 228.3 186.5 L 227.8 186.1 L 227.1 185.3 L 225.0 181.6 L 223.9 185.7 M 228.7 192.3 L 223.4 187.8 M 229.8 188.2 L 228.7 192.3 M 332.8 200.9 L 332.4 200.3 L 331.4 199.6 L 337.6 198.6 M 330.4 195.4 L 335.1 197.7 L 334.4 193.3 M 330.4 195.4 L 336.7 194.4 M 324.1 270.0 L 324.0 269.3 L 323.3 268.2 L 329.4 269.8 M 325.0 267.0 L 324.7 266.9 L 324.2 266.4 L 324.0 266.1 L 323.8 265.4 L 324.1 264.2 L 324.6 263.7 L 325.0 263.5 L 325.6 263.4 L 326.2 263.5 L 326.7 264.0 L 327.4 264.8 L 329.6 268.5 L 330.6 264.4 M 236.2 445.7 L 236.5 445.1 L 236.7 443.8 L 240.3 449.0 M 240.9 440.7 L 242.0 447.5 M 237.4 443.1 L 240.9 440.7 M 321.5 345.3 L 326.3 347.0 L 325.1 342.7 M 321.5 345.3 L 327.5 343.6 M 319.8 339.8 L 324.7 341.5 L 323.4 337.2 M 319.8 339.8 L 325.9 338.0 M 347.0 405.5 L 346.5 405.1 L 345.3 404.7 L 351.0 401.9 M 344.4 403.2 L 342.9 400.2 L 345.9 400.8 L 345.5 400.0 L 345.5 399.3 L 345.6 398.9 L 346.3 398.3 L 346.8 398.0 L 347.8 397.9 L 348.6 398.2 L 349.3 398.8 L 349.6 399.6 L 349.8 400.6 L 349.6 401.0 L 349.2 401.5 M 376.4 451.4 L 375.8 451.2 L 374.5 451.1 L 379.3 447.0 M 371.3 447.6 L 373.2 449.9 L 375.5 448.4 L 375.1 448.3 L 374.2 447.8 L 373.7 447.2 L 373.3 446.3 L 373.4 445.4 L 373.8 444.6 L 374.3 444.2 L 375.2 443.9 L 376.0 443.9 L 376.8 444.4 L 377.4 445.1 L 377.8 446.0 L 377.8 446.4 L 377.5 447.0 M 304.4 512.9 L 305.0 512.9 L 306.2 512.5 L 303.5 518.1 M 310.2 515.2 L 310.2 514.5 L 309.5 513.8 L 309.0 513.6 L 308.0 513.4 L 307.1 514.0 L 306.2 515.2 L 305.5 516.6 L 305.3 517.8 L 305.6 518.6 L 306.2 519.2 L 306.5 519.4 L 307.4 519.5 L 308.3 519.2 L 308.9 518.5 L 309.0 518.3 L 309.2 517.3 L 308.9 516.5 L 308.2 515.9 L 307.9 515.7 L 307.0 515.6 L 306.2 515.9 L 305.5 516.6 M 258.9 458.6 L 258.7 459.2 L 258.9 460.5 L 253.9 456.6 M 255.9 464.7 L 252.7 458.5 M 258.5 461.4 L 255.9 464.7 M 370.4 520.8 L 367.5 525.0 L 372.0 524.9 M 370.4 520.8 L 370.5 527.1 M 376.7 521.6 L 376.4 521.0 L 375.5 520.8 L 374.9 520.8 L 374.0 521.1 L 373.4 522.0 L 373.1 523.5 L 373.2 525.0 L 373.5 526.2 L 374.1 526.8 L 375.0 527.1 L 375.3 527.1 L 376.2 526.7 L 376.8 526.1 L 377.1 525.2 L 377.1 524.9 L 376.7 524.0 L 376.1 523.4 L 375.2 523.2 L 374.9 523.2 L 374.0 523.5 L 373.4 524.1 L 373.2 525.0 M 175.3 446.3 L 175.4 446.1 L 176.0 445.7 L 176.4 445.5 L 177.0 445.5 L 178.1 446.0 L 178.5 446.6 L 178.7 447.0 L 178.7 447.6 L 178.4 448.2 L 177.9 448.6 L 176.9 449.1 L 172.9 450.5 L 176.7 452.4 M 183.7 448.8 L 181.0 447.4 L 179.6 449.8 L 180.0 449.6 L 180.9 449.7 L 181.7 450.1 L 182.4 450.8 L 182.7 451.6 L 182.6 452.5 L 182.3 453.1 L 181.6 453.7 L 180.8 454.0 L 179.9 453.9 L 179.1 453.5 L 178.4 452.9 L 178.3 452.5 L 178.3 451.8 M 157.0 329.1 L 155.9 332.3 L 154.3 329.8 L 154.0 330.6 L 153.5 331.1 L 153.1 331.3 L 152.1 331.3 L 151.6 331.1 L 150.8 330.5 L 150.5 329.7 L 150.5 328.8 L 150.8 327.9 L 151.3 327.2 L 151.7 327.0 L 152.4 326.9 M 153.9 333.6 L 154.1 333.7 L 154.6 334.2 L 154.8 334.6 L 154.9 335.2 L 154.5 336.4 L 154.0 336.8 L 153.6 337.0 L 153.0 337.1 L 152.4 336.9 L 151.9 336.4 L 151.3 335.6 L 149.4 331.7 L 148.0 335.7 M 143.5 399.5 L 143.8 399.4 L 144.5 399.7 L 144.8 399.9 L 145.2 400.5 L 145.3 401.7 L 145.1 402.3 L 144.9 402.6 L 144.3 403.0 L 143.7 403.1 L 143.1 402.9 L 142.1 402.4 L 138.7 399.8 L 139.3 404.0 M 145.3 408.0 L 145.9 407.6 L 146.0 406.7 L 146.0 406.1 L 145.5 405.2 L 144.6 404.7 L 143.0 404.7 L 141.6 404.9 L 140.4 405.3 L 139.9 406.0 L 139.7 406.9 L 139.8 407.2 L 140.2 408.1 L 140.9 408.6 L 141.8 408.8 L 142.1 408.7 L 142.9 408.3 L 143.5 407.6 L 143.6 406.7 L 143.6 406.4 L 143.2 405.5 L 142.5 405.0 L 141.6 404.9 M 244.3 545.6 L 244.5 545.0 L 244.5 543.7 L 249.1 548.0 M 246.2 541.6 L 245.8 542.5 L 246.0 543.1 L 246.4 543.5 L 247.1 543.7 L 247.7 543.5 L 248.7 542.8 L 249.6 542.4 L 250.4 542.4 L 251.1 542.5 L 251.7 543.2 L 252.0 543.8 L 252.0 544.2 L 251.6 545.1 L 250.7 545.9 L 249.9 546.4 L 249.5 546.4 L 248.8 546.2 L 248.2 545.6 L 248.0 545.0 L 247.9 544.1 L 248.3 543.3 L 248.9 542.2 L 249.1 541.5 L 248.9 540.9 L 248.5 540.5 L 247.8 540.3 L 247.0 540.8 L 246.1 541.7 M 210.8 518.0 L 211.0 518.2 L 211.3 518.9 L 211.3 519.3 L 211.1 519.9 L 210.4 520.9 L 209.7 521.1 L 209.3 521.2 L 208.7 521.0 L 208.2 520.6 L 207.9 520.0 L 207.6 519.0 L 207.3 514.7 L 204.6 517.9 M 206.3 525.6 L 208.3 523.3 L 206.4 521.4 L 206.4 521.8 L 206.1 522.7 L 205.5 523.3 L 204.7 523.8 L 203.8 523.9 L 203.0 523.6 L 202.5 523.2 L 202.0 522.4 L 201.9 521.5 L 202.3 520.6 L 202.9 520.0 L 203.7 519.5 L 204.1 519.4 L 204.8 519.6 M 161.6 570.8 L 161.8 571.0 L 162.0 571.7 L 162.0 572.1 L 161.7 572.7 L 160.8 573.5 L 160.2 573.7 L 159.8 573.7 L 159.1 573.5 L 158.7 573.0 L 158.6 572.4 L 158.4 571.3 L 158.6 567.1 L 155.5 569.9 M 155.6 577.1 L 156.3 577.3 L 157.1 576.9 L 157.6 576.5 L 158.0 575.7 L 157.9 574.6 L 157.1 573.3 L 156.1 572.2 L 155.0 571.6 L 154.2 571.5 L 153.3 571.9 L 153.1 572.1 L 152.6 572.9 L 152.6 573.8 L 153.0 574.7 L 153.2 574.9 L 154.0 575.3 L 154.9 575.4 L 155.7 575.0 L 155.9 574.8 L 156.4 573.9 L 156.4 573.1 L 156.1 572.2 M 160.5 681.1 L 160.6 680.8 L 161.2 680.5 L 161.6 680.4 L 162.3 680.4 L 163.3 681.0 L 163.6 681.6 L 163.7 682.0 L 163.7 682.7 L 163.4 683.2 L 162.8 683.5 L 161.8 684.0 L 157.7 685.0 L 161.3 687.2 M 166.8 683.2 L 165.9 683.0 L 165.3 683.3 L 165.0 683.8 L 165.0 684.5 L 165.3 685.1 L 166.2 686.0 L 166.8 686.7 L 167.0 687.5 L 167.0 688.2 L 166.5 688.9 L 165.9 689.3 L 165.5 689.4 L 164.6 689.2 L 163.6 688.6 L 163.0 687.8 L 162.9 687.4 L 162.9 686.8 L 163.4 686.0 L 163.9 685.6 L 164.8 685.4 L 165.7 685.6 L 166.9 686.0 L 167.5 686.1 L 168.1 685.7 L 168.4 685.2 L 168.5 684.5 L 167.9 683.8 L 166.7 683.1 M 122.9 651.5 L 125.4 653.6 L 122.4 654.3 L 123.1 654.8 L 123.4 655.5 L 123.4 655.9 L 123.1 656.8 L 122.7 657.2 L 121.8 657.7 L 121.0 657.8 L 120.1 657.4 L 119.4 656.8 L 119.0 656.0 L 118.9 655.6 L 119.1 654.9 M 127.8 655.7 L 127.0 655.4 L 125.9 655.7 L 124.7 656.6 L 124.1 657.3 L 123.4 658.6 L 123.2 659.7 L 123.7 660.5 L 124.2 660.9 L 125.1 661.2 L 126.1 661.0 L 127.3 660.0 L 127.9 659.3 L 128.6 658.0 L 128.8 656.9 L 128.3 656.1 L 127.9 655.8 M 193.5 219.2 L 194.1 222.1 L 196.8 221.9 L 196.4 221.6 L 196.0 220.8 L 195.8 219.9 L 195.9 219.0 L 196.4 218.3 L 197.2 217.8 L 197.8 217.7 L 198.7 217.8 L 199.4 218.3 L 199.9 219.1 L 200.1 220.0 L 200.0 220.9 L 199.7 221.3 L 199.2 221.7 M 192.8 216.0 L 193.3 216.8 L 193.9 217.0 L 194.5 216.9 L 195.1 216.5 L 195.2 215.8 L 195.3 214.6 L 195.4 213.6 L 195.9 212.9 L 196.4 212.5 L 197.3 212.3 L 197.9 212.5 L 198.3 212.7 L 198.7 213.6 L 199.0 214.7 L 198.9 215.7 L 198.6 216.0 L 198.1 216.4 L 197.2 216.6 L 196.6 216.5 L 195.9 216.0 L 195.4 215.2 L 194.9 214.1 L 194.5 213.5 L 193.8 213.4 L 193.2 213.5 L 192.7 213.9 L 192.6 214.8 L 192.9 216.2 M 171.2 182.5 L 171.2 183.2 L 171.8 183.9 L 172.3 184.3 L 173.2 184.5 L 174.2 184.0 L 175.3 182.9 L 176.0 181.6 L 176.4 180.4 L 176.2 179.6 L 175.6 178.9 L 175.3 178.7 L 174.4 178.5 L 173.6 178.7 L 172.9 179.3 L 172.7 179.6 L 172.5 180.5 L 172.7 181.3 L 173.3 182.0 L 173.6 182.2 L 174.5 182.4 L 175.3 182.2 L 176.0 181.6 M 168.0 181.6 L 168.9 181.8 L 169.9 181.4 L 171.0 180.3 L 171.4 179.5 L 172.0 178.0 L 171.9 177.0 L 171.3 176.2 L 170.8 175.9 L 169.9 175.7 L 168.9 176.2 L 167.8 177.3 L 167.4 178.1 L 166.8 179.5 L 166.9 180.6 L 167.5 181.3 L 167.9 181.5 M 137.4 303.7 L 139.7 301.2 L 140.2 304.2 L 140.8 303.5 L 141.5 303.3 L 141.9 303.3 L 142.7 303.7 L 143.2 304.1 L 143.6 304.9 L 143.7 305.8 L 143.3 306.6 L 142.7 307.3 L 141.8 307.7 L 141.4 307.8 L 140.8 307.6 M 141.6 301.2 L 141.8 300.6 L 141.8 299.3 L 146.4 303.6 M 141.3 169.7 L 144.3 169.9 L 144.7 167.2 L 144.4 167.5 L 143.5 167.7 L 142.6 167.7 L 141.7 167.3 L 141.2 166.7 L 140.9 165.8 L 141.0 165.2 L 141.3 164.3 L 142.0 163.7 L 142.9 163.5 L 143.8 163.6 L 144.7 163.9 L 144.9 164.2 L 145.2 164.9 M 135.8 167.2 L 136.1 166.3 L 136.8 165.8 L 137.7 165.6 L 138.0 165.6 L 138.9 165.9 L 139.4 166.6 L 139.7 167.5 L 139.6 167.8 L 139.3 168.7 L 138.6 169.2 L 137.7 169.5 L 137.4 169.4 L 136.5 169.1 L 136.0 168.4 L 135.8 167.2 L 135.9 165.7 L 136.3 164.3 L 136.9 163.4 L 137.8 163.2 L 138.4 163.2 L 139.3 163.6 L 139.6 164.2 M 96.5 184.3 L 97.0 184.7 L 98.0 184.6 L 98.5 184.3 L 99.2 183.7 L 99.3 182.6 L 98.9 181.1 L 98.3 179.8 L 97.5 178.8 L 96.7 178.5 L 95.8 178.7 L 95.5 178.8 L 94.8 179.5 L 94.5 180.3 L 94.7 181.2 L 94.8 181.5 L 95.5 182.1 L 96.3 182.4 L 97.2 182.3 L 97.5 182.2 L 98.1 181.5 L 98.4 180.7 L 98.3 179.8 M 92.0 187.5 L 91.9 180.5 M 95.7 185.7 L 92.0 187.5 M 102.2 323.0 L 105.3 322.1 L 104.3 324.9 L 105.2 324.6 L 105.8 324.7 L 106.2 324.9 L 106.8 325.7 L 107.0 326.3 L 106.9 327.2 L 106.5 328.0 L 105.8 328.5 L 104.9 328.8 L 104.0 328.8 L 103.6 328.6 L 103.1 328.1 M 108.5 321.1 L 107.7 321.7 L 107.4 322.7 L 107.5 324.2 L 107.8 325.1 L 108.5 326.4 L 109.4 327.1 L 110.3 327.1 L 110.9 327.0 L 111.6 326.4 L 112.0 325.4 L 111.8 323.8 L 111.5 323.0 L 110.8 321.6 L 110.0 321.0 L 109.0 320.9 L 108.6 321.1 M 76.3 636.2 L 79.6 636.4 L 77.7 638.7 L 78.6 638.7 L 79.2 639.1 L 79.5 639.4 L 79.7 640.3 L 79.7 640.9 L 79.4 641.8 L 78.7 642.4 L 77.8 642.6 L 76.9 642.6 L 76.0 642.2 L 75.8 641.9 L 75.5 641.3 M 80.9 637.9 L 81.5 637.6 L 82.5 636.8 L 82.2 643.0 M 102.0 621.4 L 99.3 623.3 L 99.4 620.3 L 98.7 620.8 L 98.0 620.9 L 97.6 620.9 L 96.8 620.3 L 96.5 619.8 L 96.2 618.9 L 96.3 618.1 L 96.9 617.3 L 97.6 616.8 L 98.5 616.5 L 98.9 616.6 L 99.5 616.9 M 96.9 623.2 L 97.1 623.5 L 97.2 624.1 L 97.1 624.6 L 96.8 625.2 L 95.8 625.9 L 95.2 626.0 L 94.7 625.9 L 94.1 625.6 L 93.8 625.1 L 93.7 624.5 L 93.6 623.4 L 94.3 619.2 L 90.9 621.7 M 455.4 516.9 L 456.4 519.8 L 459.1 519.2 L 458.7 519.0 L 458.1 518.2 L 457.8 517.4 L 457.8 516.4 L 458.2 515.7 L 458.9 515.1 L 459.5 514.9 L 460.4 514.9 L 461.2 515.2 L 461.8 516.0 L 462.1 516.8 L 462.1 517.8 L 461.9 518.2 L 461.4 518.6 M 454.5 511.6 L 454.1 512.1 L 454.1 513.0 L 454.3 513.6 L 454.9 514.3 L 455.9 514.6 L 457.4 514.4 L 458.8 513.9 L 459.9 513.2 L 460.2 512.4 L 460.2 511.5 L 460.1 511.2 L 459.5 510.5 L 458.8 510.1 L 457.8 510.1 L 457.5 510.2 L 456.8 510.8 L 456.4 511.5 L 456.4 512.5 L 456.5 512.8 L 457.1 513.5 L 457.9 513.9 L 458.8 513.9 M 448.5 527.0 L 445.6 526.2 L 444.6 528.7 L 444.9 528.5 L 445.9 528.4 L 446.7 528.7 L 447.5 529.2 L 448.0 529.9 L 448.0 530.9 L 447.8 531.5 L 447.3 532.2 L 446.6 532.7 L 445.6 532.7 L 444.8 532.5 L 444.0 531.9 L 443.8 531.6 L 443.6 530.9 M 454.1 528.5 L 449.5 533.8 M 450.0 527.4 L 454.1 528.5 M 426.6 458.5 L 426.2 459.1 L 426.5 460.0 L 426.8 460.5 L 427.6 461.1 L 428.7 461.1 L 430.1 460.5 L 431.3 459.6 L 432.1 458.7 L 432.3 457.9 L 432.0 457.0 L 431.9 456.7 L 431.1 456.1 L 430.3 456.0 L 429.4 456.3 L 429.1 456.4 L 428.5 457.2 L 428.4 458.0 L 428.7 458.9 L 428.8 459.2 L 429.6 459.7 L 430.4 459.9 L 431.3 459.6 M 423.0 454.9 L 424.7 457.4 L 427.1 456.1 L 426.6 456.0 L 425.9 455.4 L 425.4 454.7 L 425.1 453.8 L 425.3 453.0 L 425.8 452.2 L 426.3 451.9 L 427.2 451.6 L 428.1 451.8 L 428.8 452.3 L 429.3 453.1 L 429.6 454.0 L 429.5 454.4 L 429.2 455.0 M 409.7 441.2 L 409.6 441.8 L 410.0 443.1 L 404.4 440.1 M 408.0 447.4 L 409.4 444.7 L 407.2 443.2 L 407.3 443.6 L 407.1 444.5 L 406.7 445.3 L 406.0 446.0 L 405.2 446.2 L 404.3 446.1 L 403.8 445.8 L 403.1 445.1 L 402.8 444.3 L 403.0 443.4 L 403.4 442.6 L 404.1 441.9 L 404.5 441.8 L 405.2 441.8 M 40.9 216.5 L 41.5 216.8 L 42.4 216.5 L 42.9 216.2 L 43.4 215.4 L 43.4 214.3 L 42.7 212.9 L 41.8 211.7 L 40.8 210.9 L 40.0 210.8 L 39.1 211.1 L 38.8 211.3 L 38.3 212.1 L 38.2 212.9 L 38.5 213.8 L 38.7 214.1 L 39.5 214.6 L 40.3 214.7 L 41.2 214.4 L 41.4 214.2 L 42.0 213.5 L 42.1 212.6 L 41.8 211.7 M 36.9 219.6 L 37.5 219.9 L 38.4 219.6 L 38.9 219.2 L 39.4 218.4 L 39.3 217.3 L 38.7 216.0 L 37.8 214.8 L 36.8 214.0 L 36.0 213.9 L 35.1 214.2 L 34.8 214.4 L 34.3 215.2 L 34.2 216.0 L 34.5 216.9 L 34.7 217.1 L 35.4 217.7 L 36.3 217.8 L 37.2 217.5 L 37.4 217.3 L 38.0 216.5 L 38.1 215.7 L 37.8 214.8 M 26.0 286.8 L 25.9 283.8 L 23.1 283.7 L 23.5 284.0 L 23.8 284.8 L 23.8 285.7 L 23.6 286.6 L 23.0 287.3 L 22.1 287.6 L 21.5 287.6 L 20.6 287.4 L 20.0 286.8 L 19.6 285.9 L 19.6 285.0 L 19.9 284.1 L 20.2 283.8 L 20.7 283.5 M 26.3 291.7 L 21.9 288.9 L 22.1 293.4 M 26.3 291.7 L 20.0 292.0 M 71.7 364.6 L 71.4 364.5 L 70.9 364.0 L 70.7 363.7 L 70.6 363.0 L 70.9 361.9 L 71.4 361.4 L 71.8 361.2 L 72.4 361.0 L 73.0 361.2 L 73.5 361.7 L 74.2 362.5 L 76.2 366.2 L 77.4 362.2 M 72.1 357.9 L 72.2 358.8 L 72.6 359.3 L 73.2 359.5 L 73.9 359.3 L 74.3 358.9 L 75.0 357.8 L 75.5 357.0 L 76.3 356.6 L 76.9 356.5 L 77.8 356.7 L 78.3 357.2 L 78.5 357.6 L 78.5 358.5 L 78.2 359.7 L 77.6 360.5 L 77.2 360.7 L 76.6 360.8 L 75.7 360.5 L 75.2 360.1 L 74.8 359.3 L 74.8 358.4 L 74.9 357.1 L 74.7 356.5 L 74.2 356.0 L 73.7 355.8 L 73.0 356.0 L 72.5 356.7 L 72.1 358.0 M 49.7 361.6 L 47.2 359.9 L 45.4 361.9 L 45.8 361.8 L 46.8 362.1 L 47.5 362.6 L 48.1 363.4 L 48.2 364.2 L 47.9 365.1 L 47.6 365.6 L 46.8 366.2 L 46.0 366.3 L 45.1 366.1 L 44.3 365.5 L 43.8 364.8 L 43.7 364.4 L 43.8 363.7 M 53.5 365.4 L 53.6 364.7 L 53.1 364.0 L 52.6 363.6 L 51.7 363.4 L 50.7 363.8 L 49.6 364.8 L 48.7 366.0 L 48.2 367.2 L 48.4 368.0 L 49.0 368.8 L 49.2 369.0 L 50.1 369.2 L 50.9 369.1 L 51.7 368.5 L 51.9 368.3 L 52.2 367.4 L 52.0 366.5 L 51.4 365.8 L 51.2 365.6 L 50.3 365.3 L 49.5 365.5 L 48.7 366.0 M 406.1 158.4 L 403.2 162.7 L 407.7 162.6 M 406.1 158.4 L 406.2 164.7 M 466.1 121.9 L 466.3 124.9 L 469.0 125.1 L 468.7 124.8 L 468.3 123.9 L 468.3 123.0 L 468.5 122.1 L 469.1 121.5 L 470.0 121.1 L 470.6 121.1 L 471.5 121.3 L 472.1 121.9 L 472.5 122.8 L 472.5 123.7 L 472.3 124.6 L 472.0 124.9 L 471.4 125.2 M 209.5 698.5 L 206.5 698.1 L 205.9 700.7 L 206.2 700.5 L 207.1 700.3 L 208.0 700.4 L 208.9 700.8 L 209.4 701.5 L 209.5 702.5 L 209.5 703.0 L 209.0 703.9 L 208.4 704.4 L 207.4 704.6 L 206.5 704.4 L 205.7 704.0 L 205.4 703.7 L 205.2 703.0 M 215.2 699.3 L 211.4 705.1 M 211.1 698.7 L 215.2 699.3 M 256.4 667.6 L 258.0 672.4 L 260.6 668.8 M 256.4 667.6 L 261.5 671.2 M 260.8 663.0 L 260.1 662.9 L 259.3 663.5 L 259.0 664.0 L 258.7 664.9 L 259.1 665.9 L 260.1 667.0 L 261.4 667.9 L 262.5 668.3 L 263.4 668.2 L 264.1 667.6 L 264.3 667.4 L 264.6 666.5 L 264.4 665.6 L 263.9 664.9 L 263.6 664.7 L 262.7 664.4 L 261.9 664.6 L 261.1 665.1 L 260.9 665.4 L 260.7 666.3 L 260.8 667.1 L 261.4 667.9 M 270.2 596.4 L 269.6 596.6 L 268.6 597.4 L 269.3 591.2 M 265.9 597.3 L 266.8 597.1 L 267.2 596.6 L 267.3 596.0 L 267.0 595.4 L 266.5 595.0 L 265.3 594.5 L 264.5 594.1 L 263.9 593.5 L 263.7 592.8 L 263.8 592.0 L 264.2 591.4 L 264.5 591.1 L 265.4 590.9 L 266.6 591.1 L 267.5 591.5 L 267.8 591.8 L 268.0 592.4 L 267.9 593.3 L 267.5 593.9 L 266.8 594.4 L 265.9 594.6 L 264.7 594.8 L 264.1 595.0 L 263.7 595.6 L 263.6 596.2 L 263.9 596.8 L 264.7 597.2 L 266.0 597.3 M 296.9 611.9 L 297.0 611.2 L 296.8 610.0 L 302.0 613.4 M 299.9 606.4 L 299.3 606.3 L 298.5 606.9 L 298.2 607.4 L 298.0 608.3 L 298.4 609.3 L 299.5 610.4 L 300.7 611.2 L 301.9 611.6 L 302.7 611.4 L 303.5 610.9 L 303.6 610.6 L 303.9 609.7 L 303.7 608.9 L 303.1 608.1 L 302.9 607.9 L 301.9 607.7 L 301.1 607.9 L 300.4 608.5 L 300.2 608.7 L 300.0 609.6 L 300.1 610.5 L 300.7 611.2"
       id="nums_001"
       stroke="black"
       style="stroke-width:1.01548824;stroke-dasharray:none" />
    <path
       d="m 411.3,423.4 41,59.6 20.8,59.4 -50.6,-14.1 -98.9,1.5 -37.7,-18.2 -67.8,71.8 98.1,11.6 -22.9,35.1 -57.4,80.5 -51.9,-7.4 -45.6,-27.6 -34.8,-29.8 -46.2,-2.2 71.9,-52.2 48.3,-44.5 L 227.3,488 275,426.8 211.5,471.3 142,437.8 133,372.8 162.3,289 130.9,322.9 87.2,336.3 72,387.4 20.5,351.2 15.1,226.9 55.7,196 l 72.6,-35.4 23.8,1.6 43.5,26.7 11.2,54.1 29.9,-113.7 -72.4,20.6 -20.3,-83.4 29.2,-49.8 74.3,6.2 224.3,56.3 5.2,86.7 -142.4,1.7 8.6,56.4 -22.9,87.7 16.9,57.8 28.6,59 26.5,31 z"
       id="coupes_001"
       stroke="#ff0000"
       style="stroke-width:1.26936"
       sodipodi:nodetypes="cccccccccccccccccccccccccccccccccccccccccccccc" />
    <path
       d="M 144.0 66.5 L 236.7 129.3 M 173.2 16.7 L 236.7 129.3 M 247.5 22.9 L 236.7 129.3 M 247.5 22.9 L 334.6 167.6 M 471.8 79.2 L 334.6 167.6 M 334.6 167.6 L 206.8 243.0 M 211.5 471.3 L 206.8 243.0 M 320.3 311.7 L 211.5 471.3 M 320.3 311.7 L 275.0 426.8 M 337.2 369.5 L 275.0 426.8 M 365.8 428.5 L 275.0 426.8 M 285.9 511.6 L 275.0 426.8 M 392.3 459.5 L 285.9 511.6 M 392.3 459.5 L 323.6 529.8 M 285.9 511.6 L 227.3 488.0 M 392.3 459.5 L 422.5 528.3 M 142.0 437.8 L 206.8 243.0 M 218.1 583.4 L 227.3 488.0 M 218.1 583.4 L 177.6 546.9 M 218.1 583.4 L 129.3 591.4 M 184.0 703.2 L 129.3 591.4 M 218.1 583.4 L 184.0 703.2 M 138.4 675.6 L 129.3 591.4 M 103.6 645.8 L 129.3 591.4 M 162.3 289.0 L 195.6 188.9 M 162.3 289.0 L 152.1 162.2 M 130.9 322.9 L 152.1 162.2 M 87.2 336.3 L 55.7 196.0 M 452.3 483.0 L 422.5 528.3 M 392.3 459.5 L 452.3 483.0 M 87.2 336.3 L 15.1 226.9 M 218.1 583.4 L 235.9 710.6 M 218.1 583.4 L 293.3 630.1"
       id="plisM_001"
       stroke="brown"
       stroke-dasharray="4" />
    <path
       d="m 188.3,95.9 4,4 m 0,-4 -4,4 m 14.6,-28.9 4,4 m 0,-4 -4,4 m 37.2,-0.9 4,4 m 0,-4 -4,4 m 49,15.1 4,4 m 0,-4 -4,4 m 112.1,24.2 4,4 m 0,-4 -4,4 m -132.5,77.9 4,4 m 0,-4 -4,4 m -61.5,147.9 4,4 m 0,-4 -4,4 m 56.7,30.3 4,4 m 0,-4 -4,4 m 31.7,-26.3 4,4 m 0,-4 -4,4 m 8.5,24.9 4,4 m 0,-4 -4,4 m 14.3,25.6 4,4 m 0,-4 -4,4 m -40,37.5 4,4 m 0,-4 -4,4 m 58.7,12.3 4,4 m 0,-4 -4,4 m 18.9,5.2 4,4 m 0,-4 -4,4 m -101.4,1.1 4,4 m 0,-4 -4,4 m 150.8,-9.9 4,4 m 0,-4 -4,4 m -233,-157.5 4,4 m 0,-4 -4,4 m 48.3,191.3 4,4 m 0,-4 -4,4 m -24.9,25.5 4,4 m 0,-4 -4,4 m -24.1,18.2 4,4 m 0,-4 -4,4 m -17.1,55.9 4,4 m 0,-4 -4,4 m 44.4,-8 4,4 m 0,-4 -4,4 m -67.2,-13.8 4,4 m 0,-4 -4,4 m -17.4,-18.9 4,4 m 0,-4 -4,4 m 62.6,-383.7 4,4 m 0,-4 -4,4 m -21.8,-17.3 4,4 m 0,-4 -4,4 m -15.7,12.9 4,4 m 0,-4 -4,4 m -70,19.7 4,4 m 0,-4 -4,4 m 365.9,235.4 4,4 m 0,-4 -4,4 m -15.1,-38.3 4,4 m 0,-4 -4,4 M 49.1,279.6 l 4,4 m 0,-4 -4,4 M 225,645 l 4,4 m 0,-4 -4,4 m 28.7,-44.3 4,4 m 0,-4 -4,4"
       id="marqueM_001"
       stroke="#a52a2a"
       style="display:none" />
    <path
       d="M 334.6 167.6 L 236.7 129.3 M 343.2 224.0 L 206.8 243.0 M 320.3 311.7 L 206.8 243.0 M 365.8 428.5 L 285.9 511.6 M 142.0 437.8 L 162.3 289.0 M 162.3 289.0 L 206.8 243.0 M 130.9 322.9 L 128.3 160.6 M 130.9 322.9 L 55.7 196.0 M 87.2 336.3 L 20.5 351.2"
       id="plisV_001"
       stroke="green"
       stroke-dasharray="4 1 1 1"
       style="stroke-width:1.26936031" />
    <path
       d="M 283.7 146.4 L 287.7 150.4 M 287.7 146.4 L 283.7 150.4 M 273.0 231.5 L 277.0 235.5 M 277.0 231.5 L 273.0 235.5 M 261.6 275.4 L 265.6 279.4 M 265.6 275.4 L 261.6 279.4 M 323.8 468.1 L 327.8 472.1 M 327.8 468.1 L 323.8 472.1 M 150.2 361.4 L 154.2 365.4 M 154.2 361.4 L 150.2 365.4 M 182.6 264.0 L 186.6 268.0 M 186.6 264.0 L 182.6 268.0 M 127.6 239.7 L 131.6 243.7 M 131.6 239.7 L 127.6 243.7 M 91.3 257.4 L 95.3 261.4 M 95.3 257.4 L 91.3 261.4 M 51.8 341.7 L 55.8 345.7 M 55.8 341.7 L 51.8 345.7"
       id="marqueV_001"
       stroke="green" />
    <path
       d="M 243.9 333.2 L 245.4 332.4 L 247.7 330.2 L 247.7 345.9"
       id="titre_1"
       stroke="indigo"
       style="stroke-width:1.26936031" />
  </g>
  <g
     id="page_002">
    <path
       d="M 819.5 478.9 L 818.8 478.8 L 818.0 479.3 L 817.7 479.8 L 817.4 480.7 L 817.8 481.7 L 818.9 482.8 L 820.1 483.7 L 821.3 484.1 L 822.1 484.0 L 822.9 483.4 L 823.0 483.2 L 823.3 482.3 L 823.2 481.4 L 822.6 480.7 L 822.3 480.5 L 821.4 480.2 L 820.6 480.4 L 819.8 480.9 L 819.7 481.2 L 819.4 482.1 L 819.5 482.9 L 820.1 483.7 M 821.3 474.5 L 823.0 479.4 L 825.6 475.7 M 821.3 474.5 L 826.5 478.2 M 964.4 333.1 L 964.1 332.5 L 963.1 331.6 L 969.4 331.4 M 962.9 329.9 L 962.8 326.6 L 965.2 328.3 L 965.2 327.4 L 965.5 326.8 L 965.8 326.5 L 966.6 326.2 L 967.2 326.2 L 968.2 326.4 L 968.8 327.0 L 969.1 327.9 L 969.1 328.8 L 968.9 329.7 L 968.6 330.0 L 968.0 330.3 M 915.6 264.8 L 917.7 262.6 L 915.9 260.5 L 915.9 260.9 L 915.5 261.8 L 914.9 262.4 L 914.1 262.9 L 913.2 262.9 L 912.4 262.5 L 911.9 262.1 L 911.5 261.2 L 911.5 260.4 L 911.9 259.5 L 912.5 258.9 L 913.4 258.4 L 913.8 258.4 L 914.4 258.6 M 913.9 266.4 L 911.6 268.8 L 911.2 265.8 L 910.5 266.5 L 909.9 266.7 L 909.5 266.7 L 908.6 266.3 L 908.2 265.9 L 907.8 265.0 L 907.8 264.2 L 908.2 263.3 L 908.8 262.7 L 909.6 262.3 L 910.1 262.2 L 910.7 262.5 M 947.0 269.1 L 946.6 269.7 L 946.7 270.6 L 947.0 271.1 L 947.7 271.8 L 948.8 271.9 L 950.3 271.4 L 951.6 270.7 L 952.5 269.9 L 952.7 269.1 L 952.6 268.1 L 952.4 267.9 L 951.7 267.2 L 950.9 267.0 L 950.0 267.2 L 949.7 267.3 L 949.1 268.0 L 948.8 268.8 L 949.0 269.7 L 949.1 270.0 L 949.8 270.7 L 950.6 270.9 L 951.6 270.7 M 943.8 265.1 L 945.2 267.8 L 947.7 266.8 L 947.3 266.6 L 946.6 266.0 L 946.2 265.2 L 946.0 264.3 L 946.3 263.4 L 946.9 262.8 L 947.4 262.5 L 948.4 262.3 L 949.2 262.5 L 949.9 263.2 L 950.3 264.0 L 950.5 264.9 L 950.4 265.3 L 950.0 265.9 M 703.2 405.4 L 703.9 405.4 L 705.1 405.1 L 702.1 410.6 M 705.5 406.6 L 706.1 406.7 L 707.4 406.3 L 704.3 411.8 M 658.2 353.3 L 658.5 353.1 L 659.1 353.1 L 659.5 353.2 L 660.1 353.6 L 660.7 354.7 L 660.7 355.3 L 660.6 355.8 L 660.2 356.3 L 659.6 356.6 L 659.0 356.6 L 657.9 356.5 L 653.8 355.3 L 655.8 359.0 M 662.8 358.6 L 662.1 357.9 L 661.0 357.8 L 659.6 358.3 L 658.8 358.7 L 657.6 359.7 L 657.1 360.7 L 657.3 361.6 L 657.5 362.1 L 658.2 362.8 L 659.3 362.9 L 660.8 362.4 L 661.6 362.0 L 662.7 361.0 L 663.2 360.0 L 663.1 359.1 L 662.9 358.7 M 765.1 297.8 L 767.1 300.0 L 769.3 298.5 L 768.9 298.4 L 768.1 298.0 L 767.5 297.3 L 767.1 296.4 L 767.2 295.6 L 767.7 294.7 L 768.1 294.3 L 769.0 294.0 L 769.8 294.0 L 770.7 294.5 L 771.3 295.2 L 771.6 296.1 L 771.6 296.5 L 771.3 297.1 M 765.1 295.6 L 764.5 295.3 L 763.2 295.2 L 768.0 291.1 M 642.5 284.4 L 642.8 284.5 L 643.4 284.8 L 643.7 285.1 L 644.0 285.7 L 643.9 286.9 L 643.6 287.5 L 643.3 287.8 L 642.7 288.0 L 642.1 288.0 L 641.5 287.7 L 640.6 287.1 L 637.7 284.0 L 637.6 288.2 M 643.9 290.1 L 643.8 293.4 L 641.4 291.5 L 641.4 292.4 L 641.1 293.0 L 640.8 293.3 L 639.9 293.6 L 639.3 293.6 L 638.4 293.3 L 637.8 292.7 L 637.5 291.7 L 637.5 290.8 L 637.9 290.0 L 638.2 289.7 L 638.8 289.4 M 796.0 299.2 L 791.0 297.9 L 792.6 302.1 M 796.0 299.2 L 790.1 301.4 M 796.3 306.0 L 795.4 306.1 L 794.6 305.7 L 794.0 305.0 L 793.9 304.7 L 793.9 303.8 L 794.2 303.0 L 794.9 302.4 L 795.2 302.3 L 796.2 302.3 L 796.9 302.6 L 797.6 303.3 L 797.7 303.6 L 797.7 304.6 L 797.4 305.3 L 796.3 306.0 L 794.9 306.6 L 793.4 306.8 L 792.4 306.6 L 791.8 305.9 L 791.6 305.3 L 791.5 304.4 L 792.0 303.9 M 802.5 289.3 L 805.2 288.0 L 804.3 285.4 L 804.1 285.8 L 803.4 286.5 L 802.6 286.9 L 801.7 287.0 L 800.9 286.8 L 800.2 286.1 L 800.0 285.5 L 799.8 284.6 L 800.1 283.8 L 800.8 283.1 L 801.6 282.7 L 802.5 282.6 L 802.9 282.7 L 803.5 283.2 M 799.3 290.9 L 800.0 290.2 L 800.1 289.1 L 799.7 287.7 L 799.3 286.9 L 798.4 285.7 L 797.5 285.1 L 796.5 285.2 L 796.0 285.5 L 795.3 286.2 L 795.2 287.2 L 795.6 288.7 L 796.0 289.5 L 796.9 290.7 L 797.8 291.3 L 798.8 291.2 L 799.2 291.0 M 878.5 263.7 L 881.9 267.6 L 882.9 263.2 M 878.5 263.7 L 884.6 265.1 M 880.0 257.2 L 885.5 261.5 M 879.1 261.3 L 880.0 257.2 M 820.1 237.4 L 815.9 234.3 L 815.9 238.8 M 820.1 237.4 L 813.8 237.3 M 820.0 241.5 L 819.7 240.6 L 819.1 240.3 L 818.5 240.3 L 817.9 240.6 L 817.6 241.2 L 817.3 242.4 L 817.0 243.3 L 816.3 243.9 L 815.7 244.2 L 814.8 244.2 L 814.2 243.9 L 813.9 243.6 L 813.7 242.7 L 813.7 241.5 L 814.0 240.6 L 814.3 240.3 L 814.9 240.0 L 815.8 240.0 L 816.4 240.3 L 817.0 240.9 L 817.3 241.8 L 817.6 243.0 L 817.8 243.6 L 818.4 243.9 L 819.0 243.9 L 819.6 243.6 L 820.0 242.7 L 820.0 241.4 M 875.8 197.9 L 876.4 200.9 L 879.1 200.6 L 878.8 200.4 L 878.3 199.6 L 878.1 198.7 L 878.2 197.7 L 878.7 197.0 L 879.5 196.5 L 880.1 196.4 L 881.0 196.5 L 881.7 197.0 L 882.2 197.8 L 882.4 198.7 L 882.3 199.6 L 882.1 200.0 L 881.5 200.4 M 874.7 192.7 L 875.3 195.6 L 878.0 195.4 L 877.7 195.2 L 877.2 194.3 L 877.0 193.4 L 877.1 192.5 L 877.6 191.8 L 878.4 191.3 L 879.0 191.2 L 880.0 191.3 L 880.7 191.8 L 881.1 192.6 L 881.3 193.5 L 881.2 194.4 L 881.0 194.8 L 880.5 195.2 M 791.4 170.4 L 786.3 171.2 L 789.4 174.4 M 791.4 170.4 L 786.9 174.8 M 794.3 173.4 L 793.4 173.0 L 792.8 173.2 L 792.4 173.6 L 792.1 174.3 L 792.3 174.9 L 792.9 176.0 L 793.4 176.8 L 793.3 177.7 L 793.1 178.3 L 792.5 178.9 L 791.8 179.1 L 791.4 179.1 L 790.6 178.7 L 789.7 177.8 L 789.3 177.0 L 789.3 176.5 L 789.6 175.9 L 790.2 175.3 L 790.8 175.1 L 791.7 175.1 L 792.5 175.5 L 793.6 176.2 L 794.2 176.4 L 794.8 176.2 L 795.3 175.8 L 795.5 175.2 L 795.1 174.3 L 794.2 173.3 M 781.0 155.7 L 783.9 155.0 L 783.5 152.3 L 783.3 152.7 L 782.5 153.2 L 781.6 153.4 L 780.7 153.3 L 780.0 152.9 L 779.4 152.1 L 779.3 151.5 L 779.3 150.6 L 779.8 149.9 L 780.6 149.3 L 781.4 149.1 L 782.4 149.2 L 782.8 149.4 L 783.2 149.9 M 777.6 156.6 L 778.4 156.1 L 778.7 155.1 L 778.6 153.6 L 778.4 152.7 L 777.7 151.3 L 776.9 150.6 L 776.0 150.5 L 775.4 150.7 L 774.6 151.2 L 774.2 152.2 L 774.3 153.8 L 774.6 154.6 L 775.2 156.0 L 776.0 156.7 L 777.0 156.8 L 777.4 156.7 M 605.5 280.2 L 605.3 280.0 L 605.0 279.4 L 605.0 279.0 L 605.2 278.3 L 605.9 277.4 L 606.6 277.1 L 607.0 277.1 L 607.6 277.3 L 608.1 277.6 L 608.4 278.3 L 608.7 279.3 L 609.0 283.5 L 611.7 280.3 M 608.0 274.9 L 610.2 272.4 L 610.8 275.3 L 611.4 274.7 L 612.0 274.4 L 612.5 274.4 L 613.3 274.7 L 613.8 275.1 L 614.3 275.9 L 614.4 276.8 L 614.0 277.6 L 613.4 278.3 L 612.6 278.8 L 612.2 278.8 L 611.5 278.7 M 585.5 254.3 L 585.8 254.2 L 586.4 254.3 L 586.8 254.6 L 587.2 255.1 L 587.5 256.2 L 587.3 256.9 L 587.1 257.3 L 586.6 257.7 L 586.0 257.8 L 585.4 257.7 L 584.4 257.3 L 580.7 255.1 L 581.7 259.1 M 586.8 259.7 L 587.1 259.6 L 587.7 259.8 L 588.1 260.0 L 588.5 260.5 L 588.8 261.7 L 588.6 262.3 L 588.4 262.7 L 587.9 263.1 L 587.3 263.2 L 586.6 263.1 L 585.6 262.7 L 582.0 260.5 L 583.0 264.6 M 867.6 455.6 L 863.7 459.0 L 868.1 460.1 M 867.6 455.6 L 866.1 461.8 M 873.7 457.1 L 870.7 456.4 L 869.8 459.0 L 870.2 458.8 L 871.1 458.7 L 872.0 458.9 L 872.8 459.4 L 873.3 460.1 L 873.3 461.1 L 873.2 461.7 L 872.7 462.5 L 872.0 462.9 L 871.0 463.0 L 870.2 462.8 L 869.3 462.3 L 869.1 461.9 L 869.0 461.3 M 961.9 393.8 L 965.9 397.1 L 966.2 392.6 M 961.9 393.8 L 968.2 394.2 M 962.2 388.0 L 966.2 391.3 L 966.5 386.8 M 962.2 388.0 L 968.5 388.4 M 941.0 463.5 L 941.0 462.8 L 940.6 461.6 L 946.3 464.3 M 942.5 460.6 L 942.2 460.5 L 941.8 460.0 L 941.7 459.6 L 941.6 458.9 L 942.2 457.8 L 942.7 457.4 L 943.1 457.3 L 943.8 457.3 L 944.3 457.5 L 944.7 458.1 L 945.3 459.0 L 946.7 463.0 L 948.5 459.2 M 774.5 216.5 L 774.3 217.1 L 774.8 217.9 L 775.3 218.3 L 776.1 218.7 L 777.2 218.5 L 778.4 217.6 L 779.4 216.5 L 780.0 215.4 L 780.0 214.5 L 779.5 213.7 L 779.3 213.5 L 778.4 213.1 L 777.6 213.1 L 776.7 213.6 L 776.5 213.8 L 776.2 214.7 L 776.2 215.5 L 776.7 216.4 L 776.9 216.6 L 777.7 217.0 L 778.6 216.9 L 779.4 216.5 M 770.8 213.1 L 770.6 213.7 L 771.1 214.5 L 771.5 214.9 L 772.4 215.3 L 773.4 215.1 L 774.7 214.2 L 775.7 213.1 L 776.3 212.0 L 776.2 211.1 L 775.8 210.3 L 775.6 210.1 L 774.7 209.7 L 773.8 209.7 L 773.0 210.2 L 772.8 210.4 L 772.4 211.3 L 772.5 212.1 L 772.9 213.0 L 773.1 213.2 L 774.0 213.6 L 774.9 213.5 L 775.7 213.1 M 765.4 239.3 L 763.0 241.0 L 764.2 243.4 L 764.3 243.0 L 764.9 242.2 L 765.6 241.7 L 766.5 241.4 L 767.4 241.6 L 768.1 242.2 L 768.5 242.7 L 768.7 243.6 L 768.6 244.4 L 768.0 245.2 L 767.3 245.7 L 766.4 245.9 L 765.9 245.9 L 765.4 245.5 M 768.1 239.2 L 768.0 239.0 L 767.9 238.3 L 768.0 237.9 L 768.3 237.3 L 769.3 236.6 L 769.9 236.6 L 770.4 236.6 L 770.9 237.0 L 771.3 237.5 L 771.4 238.1 L 771.4 239.2 L 770.6 243.4 L 774.1 241.0 M 731.3 165.2 L 731.0 165.8 L 731.3 166.7 L 731.6 167.2 L 732.4 167.8 L 733.5 167.7 L 734.9 167.1 L 736.1 166.3 L 736.9 165.3 L 737.1 164.5 L 736.8 163.6 L 736.6 163.3 L 735.9 162.8 L 735.0 162.6 L 734.1 162.9 L 733.9 163.1 L 733.3 163.8 L 733.2 164.7 L 733.4 165.6 L 733.6 165.8 L 734.4 166.4 L 735.2 166.5 L 736.1 166.3 M 727.4 161.2 L 734.3 160.1 M 729.8 164.7 L 727.4 161.2 M 700.6 434.1 L 700.0 434.4 L 699.0 435.2 L 699.2 428.9 M 698.0 434.0 L 697.4 434.3 L 696.5 435.2 L 696.6 428.9 M 570.2 157.7 L 570.5 157.7 L 571.1 157.9 L 571.4 158.2 L 571.8 158.7 L 571.9 159.9 L 571.7 160.5 L 571.4 160.9 L 570.8 161.2 L 570.2 161.3 L 569.6 161.1 L 568.6 160.5 L 565.4 157.9 L 565.8 162.0 M 572.5 165.7 L 568.1 163.1 L 568.5 167.6 M 572.5 165.7 L 566.3 166.3 M 615.6 99.6 L 614.8 96.4 L 617.5 97.6 L 617.3 96.7 L 617.5 96.1 L 617.7 95.7 L 618.5 95.2 L 619.1 95.1 L 620.0 95.2 L 620.8 95.6 L 621.3 96.4 L 621.5 97.3 L 621.4 98.2 L 621.2 98.6 L 620.7 99.0 M 614.3 94.5 L 613.5 91.3 L 616.3 92.4 L 616.1 91.6 L 616.2 90.9 L 616.4 90.5 L 617.2 90.0 L 617.8 89.9 L 618.8 90.0 L 619.5 90.4 L 620.0 91.2 L 620.2 92.1 L 620.1 93.0 L 619.9 93.4 L 619.4 93.8 M 560.6 72.6 L 561.1 75.9 L 558.5 74.5 L 558.6 75.4 L 558.4 76.0 L 558.2 76.4 L 557.3 76.8 L 556.8 76.9 L 555.8 76.8 L 555.1 76.3 L 554.7 75.4 L 554.5 74.6 L 554.7 73.6 L 554.9 73.3 L 555.5 72.9 M 562.0 80.9 L 561.5 77.9 L 558.8 78.1 L 559.1 78.3 L 559.5 79.1 L 559.7 80.0 L 559.5 81.0 L 559.1 81.7 L 558.2 82.1 L 557.6 82.2 L 556.7 82.0 L 556.0 81.6 L 555.6 80.7 L 555.4 79.8 L 555.6 78.9 L 555.8 78.5 L 556.3 78.1 M 583.5 56.4 L 580.3 56.1 L 582.3 53.9 L 581.4 53.8 L 580.9 53.4 L 580.6 53.1 L 580.4 52.1 L 580.5 51.6 L 580.9 50.7 L 581.5 50.2 L 582.5 50.0 L 583.4 50.1 L 584.2 50.5 L 584.5 50.8 L 584.7 51.4 M 575.3 54.6 L 575.6 55.2 L 576.4 55.6 L 577.0 55.7 L 578.0 55.5 L 578.7 54.7 L 579.1 53.2 L 579.3 51.7 L 579.1 50.5 L 578.6 49.8 L 577.8 49.4 L 577.5 49.4 L 576.5 49.6 L 575.9 50.1 L 575.5 51.0 L 575.4 51.3 L 575.6 52.2 L 576.1 52.9 L 577.0 53.3 L 577.3 53.3 L 578.2 53.1 L 578.9 52.6 L 579.3 51.7 M 652.1 96.3 L 651.2 99.4 L 649.4 97.0 L 649.1 97.9 L 648.7 98.4 L 648.3 98.6 L 647.4 98.7 L 646.8 98.5 L 646.0 98.0 L 645.6 97.2 L 645.5 96.3 L 645.8 95.4 L 646.3 94.6 L 646.7 94.4 L 647.3 94.3 M 650.0 103.9 L 646.8 99.8 L 645.6 104.2 M 650.0 103.9 L 644.0 102.2 M 716.7 114.0 L 714.3 115.8 L 715.7 118.1 L 715.7 117.7 L 716.3 116.9 L 717.0 116.4 L 717.9 116.1 L 718.7 116.2 L 719.5 116.7 L 719.9 117.2 L 720.2 118.1 L 720.0 118.9 L 719.5 119.7 L 718.8 120.3 L 717.9 120.6 L 717.5 120.5 L 716.9 120.2 M 722.5 112.3 L 722.8 113.2 L 722.6 114.0 L 722.1 114.8 L 721.9 115.0 L 721.0 115.3 L 720.1 115.1 L 719.3 114.6 L 719.2 114.4 L 718.9 113.5 L 719.0 112.6 L 719.5 111.8 L 719.8 111.7 L 720.7 111.4 L 721.5 111.5 L 722.5 112.3 L 723.4 113.5 L 724.0 114.8 L 724.1 115.9 L 723.5 116.7 L 723.1 117.1 L 722.2 117.4 L 721.6 117.1 M 723.9 88.8 L 723.3 89.1 L 723.1 90.0 L 723.1 90.6 L 723.4 91.5 L 724.4 92.0 L 725.9 92.3 L 727.4 92.2 L 728.5 91.8 L 729.1 91.2 L 729.4 90.3 L 729.4 90.0 L 729.0 89.1 L 728.4 88.5 L 727.5 88.3 L 727.2 88.3 L 726.3 88.6 L 725.7 89.3 L 725.5 90.2 L 725.5 90.5 L 725.8 91.4 L 726.5 91.9 L 727.4 92.2 M 722.8 85.6 L 723.2 86.4 L 724.1 87.0 L 725.6 87.2 L 726.5 87.2 L 728.0 86.8 L 728.9 86.2 L 729.1 85.2 L 729.1 84.6 L 728.7 83.8 L 727.8 83.2 L 726.3 83.0 L 725.4 83.0 L 723.9 83.4 L 723.1 84.0 L 722.8 85.0 L 722.8 85.4 M 832.5 101.5 L 834.4 103.8 L 836.7 102.3 L 836.3 102.3 L 835.5 101.8 L 834.9 101.1 L 834.5 100.2 L 834.6 99.3 L 835.1 98.5 L 835.6 98.2 L 836.5 97.8 L 837.3 97.9 L 838.1 98.4 L 838.7 99.1 L 839.0 100.0 L 839.0 100.4 L 838.7 101.0 M 832.2 98.8 L 832.0 99.0 L 831.3 99.1 L 830.9 99.1 L 830.3 98.8 L 829.5 97.9 L 829.4 97.2 L 829.4 96.8 L 829.7 96.2 L 830.2 95.8 L 830.8 95.6 L 831.9 95.5 L 836.1 96.0 L 833.5 92.7 M 799.4 102.5 L 801.5 100.3 L 799.7 98.2 L 799.7 98.6 L 799.3 99.5 L 798.7 100.2 L 797.9 100.6 L 797.0 100.6 L 796.2 100.2 L 795.7 99.8 L 795.3 99.0 L 795.3 98.1 L 795.7 97.3 L 796.3 96.6 L 797.1 96.2 L 797.5 96.2 L 798.2 96.4 M 797.3 102.7 L 797.1 103.4 L 797.1 104.6 L 792.5 100.3 M 782.5 126.6 L 777.6 128.2 L 781.2 130.9 M 782.5 126.6 L 778.7 131.7 M 786.5 132.2 L 785.7 132.8 L 784.9 132.9 L 783.9 132.6 L 783.7 132.4 L 783.2 131.6 L 783.0 130.8 L 783.3 129.9 L 783.5 129.7 L 784.3 129.1 L 785.1 129.0 L 786.0 129.3 L 786.3 129.5 L 786.8 130.2 L 786.9 131.1 L 786.5 132.2 L 785.6 133.4 L 784.4 134.5 L 783.4 134.8 L 782.5 134.5 L 782.0 134.2 L 781.5 133.4 L 781.6 132.7 M 900.4 115.6 L 898.2 117.6 L 899.8 119.8 L 899.8 119.4 L 900.3 118.6 L 900.9 118.0 L 901.8 117.6 L 902.6 117.6 L 903.5 118.0 L 903.9 118.5 L 904.3 119.3 L 904.2 120.2 L 903.8 121.0 L 903.1 121.6 L 902.3 122.0 L 901.8 122.0 L 901.2 121.8 M 904.3 112.0 L 902.1 114.0 L 903.7 116.2 L 903.7 115.8 L 904.2 114.9 L 904.8 114.3 L 905.7 113.9 L 906.5 114.0 L 907.4 114.4 L 907.8 114.9 L 908.2 115.7 L 908.1 116.6 L 907.7 117.4 L 907.0 118.0 L 906.2 118.4 L 905.7 118.4 L 905.1 118.2 M 909.1 80.2 L 911.2 78.1 L 909.6 75.9 L 909.6 76.4 L 909.1 77.2 L 908.5 77.8 L 907.6 78.2 L 906.8 78.2 L 905.9 77.8 L 905.5 77.4 L 905.1 76.5 L 905.1 75.7 L 905.5 74.8 L 906.2 74.2 L 907.0 73.8 L 907.5 73.8 L 908.1 74.0 M 905.7 83.6 L 904.9 78.5 L 901.6 81.7 M 905.7 83.6 L 901.2 79.2 M 962.4 69.8 L 964.1 72.2 L 966.5 70.9 L 966.1 70.9 L 965.3 70.3 L 964.8 69.6 L 964.6 68.6 L 964.7 67.8 L 965.3 67.0 L 965.8 66.7 L 966.7 66.4 L 967.5 66.6 L 968.3 67.2 L 968.8 67.9 L 969.1 68.8 L 969.0 69.2 L 968.7 69.8 M 961.1 67.8 L 959.2 65.1 L 962.2 65.2 L 961.7 64.5 L 961.6 63.8 L 961.7 63.4 L 962.3 62.7 L 962.8 62.3 L 963.7 62.1 L 964.5 62.2 L 965.3 62.8 L 965.8 63.5 L 966.0 64.4 L 966.0 64.8 L 965.6 65.4 M 963.4 84.3 L 960.0 88.2 L 964.5 88.7 M 963.4 84.3 L 962.8 90.6 M 970.1 85.1 L 966.4 91.0 M 965.9 84.6 L 970.1 85.1 M 738.8 521.8 L 739.5 521.8 L 740.7 521.5 L 737.6 527.0 M 743.4 522.8 L 742.5 522.6 L 741.5 523.1 L 740.5 524.2 L 740.0 525.0 L 739.5 526.5 L 739.6 527.5 L 740.2 528.3 L 740.7 528.6 L 741.7 528.7 L 742.6 528.3 L 743.7 527.1 L 744.1 526.3 L 744.6 524.9 L 744.5 523.8 L 743.9 523.1 L 743.5 522.9 M 787.4 521.8 L 787.9 522.6 L 787.9 523.5 L 787.5 524.4 L 787.4 524.6 L 786.5 525.1 L 785.7 525.1 L 784.8 524.8 L 784.6 524.6 L 784.1 523.7 L 784.0 522.9 L 784.4 522.0 L 784.6 521.8 L 785.4 521.3 L 786.3 521.3 L 787.4 521.8 L 788.5 522.8 L 789.4 524.0 L 789.7 525.1 L 789.4 525.9 L 789.0 526.4 L 788.1 526.9 L 787.5 526.7 M 737.7 35.3 L 736.0 37.8 L 738.1 39.5 L 738.0 39.1 L 738.3 38.2 L 738.8 37.4 L 739.5 36.9 L 740.4 36.7 L 741.3 37.0 L 741.8 37.3 L 742.3 38.1 L 742.5 38.9 L 742.2 39.8 L 741.7 40.5 L 741.0 41.1 L 740.6 41.2 L 739.9 41.1 M 739.5 32.6 L 739.3 33.5 L 739.6 34.1 L 740.1 34.4 L 740.8 34.5 L 741.3 34.2 L 742.3 33.4 L 743.0 32.8 L 743.9 32.6 L 744.5 32.7 L 745.3 33.2 L 745.6 33.8 L 745.7 34.2 L 745.4 35.1 L 744.7 36.1 L 744.0 36.7 L 743.6 36.8 L 742.9 36.7 L 742.2 36.2 L 741.8 35.6 L 741.7 34.8 L 741.9 33.9 L 742.4 32.7 L 742.4 32.0 L 742.1 31.4 L 741.6 31.1 L 741.0 31.0 L 740.2 31.6 L 739.4 32.7 M 714.2 43.3 L 714.3 43.6 L 714.3 44.3 L 714.1 44.7 L 713.7 45.2 L 712.6 45.6 L 711.9 45.6 L 711.5 45.4 L 711.0 45.0 L 710.8 44.5 L 710.8 43.8 L 711.0 42.7 L 712.5 38.8 L 708.7 40.5 M 706.4 48.3 L 706.7 41.3 M 710.3 46.6 L 706.4 48.3 M 880.3 491.5 L 880.0 486.4 L 876.5 489.2 M 880.3 491.5 L 876.4 486.6 M 875.4 495.4 L 877.7 493.5 L 876.3 491.2 L 876.2 491.6 L 875.7 492.4 L 875.0 493.0 L 874.1 493.3 L 873.3 493.2 L 872.5 492.7 L 872.1 492.3 L 871.8 491.4 L 871.9 490.5 L 872.4 489.7 L 873.1 489.2 L 874.0 488.8 L 874.4 488.9 L 875.0 489.1 M 860.2 529.8 L 860.8 529.5 L 861.1 528.6 L 861.1 528.0 L 860.8 527.1 L 859.9 526.5 L 858.4 526.2 L 856.9 526.2 L 855.7 526.5 L 855.1 527.1 L 854.8 528.0 L 854.8 528.3 L 855.1 529.2 L 855.7 529.8 L 856.6 530.1 L 856.9 530.1 L 857.8 529.8 L 858.4 529.2 L 858.7 528.3 L 858.7 528.0 L 858.4 527.1 L 857.8 526.5 L 856.9 526.2 M 861.2 534.4 L 857.0 531.4 L 857.0 535.9 M 861.2 534.4 L 854.9 534.4 M 931.0 537.0 L 930.5 536.5 L 929.4 535.9 L 935.5 534.3 M 928.1 531.8 L 932.9 533.6 L 931.8 529.3 M 928.1 531.8 L 934.2 530.2 M 897.5 613.2 L 899.4 618.0 L 901.8 614.3 M 897.5 613.2 L 902.8 616.7 M 857.6 654.3 L 856.8 653.7 L 855.7 653.8 L 854.3 654.4 L 853.6 655.0 L 852.6 656.1 L 852.3 657.2 L 852.6 658.1 L 852.9 658.5 L 853.7 659.1 L 854.8 659.0 L 856.2 658.3 L 856.9 657.8 L 857.9 656.7 L 858.2 655.6 L 857.9 654.7 L 857.7 654.4 M 822.0 564.6 L 822.3 563.7 L 823.0 563.1 L 823.9 562.9 L 824.2 562.9 L 825.1 563.2 L 825.6 563.9 L 825.9 564.8 L 825.9 565.1 L 825.5 566.0 L 824.9 566.5 L 824.0 566.8 L 823.7 566.8 L 822.8 566.4 L 822.2 565.8 L 822.0 564.6 L 822.1 563.1 L 822.4 561.6 L 823.1 560.7 L 824.0 560.5 L 824.6 560.5 L 825.5 560.8 L 825.8 561.5 M 790.2 590.4 L 790.9 590.3 L 791.5 589.6 L 791.7 589.0 L 791.8 588.1 L 791.1 587.2 L 789.8 586.4 L 788.4 585.9 L 787.2 585.7 L 786.4 586.1 L 785.8 586.8 L 785.7 587.1 L 785.7 588.1 L 786.0 588.8 L 786.8 589.4 L 787.1 589.5 L 788.0 589.6 L 788.8 589.2 L 789.4 588.5 L 789.5 588.2 L 789.5 587.2 L 789.2 586.5 L 788.4 585.9 M 805.9 622.3 L 806.0 622.0 L 806.5 621.6 L 806.9 621.4 L 807.6 621.3 L 808.7 621.8 L 809.1 622.3 L 809.3 622.7 L 809.4 623.3 L 809.1 623.9 L 808.6 624.3 L 807.8 625.0 L 803.9 626.7 L 807.8 628.2 M 641.2 453.8 L 641.4 454.1 L 641.5 454.8 L 641.5 455.2 L 641.2 455.8 L 640.2 456.5 L 639.5 456.6 L 639.1 456.5 L 638.5 456.2 L 638.2 455.8 L 638.0 455.1 L 638.0 454.0 L 638.6 449.8 L 635.2 452.3 M 636.6 459.1 L 637.2 458.4 L 637.1 457.3 L 636.5 455.9 L 635.9 455.2 L 634.8 454.1 L 633.8 453.8 L 632.9 454.1 L 632.4 454.4 L 631.8 455.2 L 631.9 456.3 L 632.5 457.7 L 633.1 458.4 L 634.2 459.4 L 635.2 459.8 L 636.1 459.5 L 636.5 459.2 M 673.2 530.5 L 673.0 530.2 L 672.8 529.6 L 672.9 529.2 L 673.1 528.5 L 674.0 527.7 L 674.6 527.6 L 675.1 527.6 L 675.7 527.8 L 676.1 528.3 L 676.3 528.9 L 676.4 530.0 L 676.2 534.2 L 679.3 531.4 M 676.8 527.1 L 677.1 526.4 L 677.2 525.2 L 681.4 529.9 M 631.0 507.1 L 631.3 506.9 L 631.9 506.8 L 632.4 506.9 L 633.0 507.2 L 633.7 508.1 L 633.8 508.8 L 633.7 509.2 L 633.4 509.8 L 632.9 510.2 L 632.3 510.3 L 631.2 510.3 L 627.0 509.7 L 629.5 513.1 M 634.3 511.6 L 634.6 511.4 L 635.2 511.3 L 635.7 511.4 L 636.3 511.7 L 637.0 512.6 L 637.1 513.3 L 637.0 513.7 L 636.7 514.3 L 636.2 514.7 L 635.6 514.8 L 634.5 514.8 L 630.3 514.2 L 632.8 517.6"
       id="nums_002"
       stroke="black"
       style="stroke-width:1.01548824;stroke-dasharray:none" />
    <path
       d="m 729.9,61.4 2.5,51 -19,14.4 46.3,66.2 37.6,34.4 -51.6,35.5 49.2,56.5 -11.5,-29.9 28,-13.8 0.7,-71.8 -49.8,-51.8 30.2,-7.9 -25.8,-18.9 51.3,-54.6 39.6,48.5 88.8,-87.2 43.8,63.5 -50.3,-5.4 -65.5,60.9 18.3,87.4 -11.1,49.4 53.9,-55.3 34.5,63.7 2.2,65.6 -3.7,60.1 -39.1,81.8 14.3,55.2 -78.9,118.5 -26.7,-35.2 -65.4,-25.7 22.2,-59.6 57.9,3.2 0.1,-57.2 40.5,-32.6 -50.5,-12 -32.9,46.8 -38,43.8 -66.4,-38.5 -48.4,43.6 -57.4,-77.8 66.9,-49.7 63,1.3 -55.2,-30.4 -39.8,-73.1 1.9,-70.3 -45.5,53.6 L 569,213.5 558.9,113.2 547.5,43.9 612.3,51.5 632.6,134.9 653,62.4 761,15.7 Z"
       id="coupes_002"
       stroke="#ff0000"
       style="stroke-width:1.26936"
       sodipodi:nodetypes="cccccccccccccccccccccccccccccccccccccccccccccccccccccc" />
    <path
       d="M 810.0 505.1 L 729.7 427.8 M 729.7 427.8 L 842.9 458.3 M 729.7 427.8 L 970.0 296.2 M 881.6 287.8 L 970.0 296.2 M 729.7 427.8 L 794.9 319.4 M 674.5 397.4 L 794.9 319.4 M 634.7 324.3 L 794.9 319.4 M 634.7 324.3 L 745.7 262.9 M 636.6 254.0 L 745.7 262.9 M 636.6 254.0 L 759.7 193.0 M 759.7 193.0 L 745.7 262.9 M 636.6 254.0 L 632.6 134.9 M 811.4 275.7 L 881.6 287.8 M 794.9 319.4 L 811.4 275.7 M 811.4 275.7 L 892.7 238.4 M 812.1 203.9 L 892.7 238.4 M 812.1 203.9 L 874.4 151.0 M 792.5 144.2 L 874.4 151.0 M 812.1 203.9 L 792.5 144.2 M 636.6 254.0 L 569.0 213.5 M 972.2 361.8 L 893.4 470.3 M 968.5 421.9 L 893.4 470.3 M 929.4 503.7 L 893.4 470.3 M 632.6 134.9 L 713.4 126.8 M 705.6 510.4 L 666.7 426.5 M 558.9 113.2 L 632.6 134.9 M 653.0 62.4 L 732.4 112.4 M 653.0 62.4 L 729.9 61.4 M 857.6 119.2 L 874.4 151.0 M 792.5 144.2 L 818.0 70.7 M 946.4 32.0 L 939.9 90.1 M 929.4 503.7 L 852.8 560.1 M 943.7 558.9 L 838.1 642.2 M 838.1 642.2 L 852.8 560.1"
       id="plisM_002"
       stroke="brown"
       stroke-dasharray="4" />
    <path
       d="m 767.9,464.5 4,4 m 0,-4 -4,4 m 16.4,-27.5 4,4 m 0,-4 -4,4 m 63.5,-85 4,4 m 0,-4 -4,4 m 76,-74 4,4 m 0,-4 -4,4 m -163.5,77.6 4,4 m 0,-4 -4,4 m -27.6,-19.2 4,4 m 0,-4 -4,4 m -19.9,-40.6 4,4 m 0,-4 -4,4 m -24.6,-32.2 4,4 m 0,-4 -4,4 m 0.9,-39.1 4,4 m 0,-4 -4,4 m 7.1,-39 4,4 m 0,-4 -4,4 m 54.5,0.4 4,4 m 0,-4 -4,4 m -118.1,-37.4 4,4 m 0,-4 -4,4 m 211.9,83.3 4,4 m 0,-4 -4,4 m -43.4,11.8 4,4 m 0,-4 -4,4 m 48.9,-44.5 4,4 m 0,-4 -4,4 m 0.4,-40 4,4 m 0,-4 -4,4 m -9.1,-47.7 4,4 m 0,-4 -4,4 m -9.8,-33.8 4,4 m 0,-4 -4,4 m -31.2,22.4 4,4 m 0,-4 -4,4 m -199.5,55.8 4,4 m 0,-4 -4,4 m 330,178.2 4,4 m 0,-4 -4,4 m -1.9,26.1 4,4 m 0,-4 -4,4 m -19.5,36.9 4,4 m 0,-4 -4,4 M 671,128.8 l 4,4 m 0,-4 -4,4 m 13.1,333.7 4,4 m 0,-4 -4,4 M 593.8,122 l 4,4 m 0,-4 -4,4 m 96.9,-40.6 4,4 m 0,-4 -4,4 m -1.2,-29.5 4,4 m 0,-4 -4,4 m 174.5,69.2 4,4 m 0,-4 -4,4 m -60.8,-31.7 4,4 m 0,-4 -4,4 m 137.9,-50.3 4,4 m 0,-4 -4,4 m -52,466.8 4,4 m 0,-4 -4,4 m -0.2,64.7 4,4 m 0,-4 -4,4 m -45.4,-3.4 4,4 m 0,-4 -4,4"
       id="marqueM_002"
       stroke="#a52a2a"
       style="display:none" />
    <path
       d="M 729.7 427.8 L 972.2 361.8 M 972.2 361.8 L 842.9 458.3 M 729.7 427.8 L 881.6 287.8 M 794.9 319.4 L 881.6 287.8 M 632.6 134.9 L 759.7 193.0 M 569.0 213.5 L 632.6 134.9 M 810.0 505.1 L 666.7 426.5 M 810.0 505.1 L 705.6 510.4 M 558.9 113.2 L 612.3 51.5 M 653.0 62.4 L 713.4 126.8 M 792.5 144.2 L 857.6 119.2 M 857.6 119.2 L 939.9 90.1 M 929.4 503.7 L 852.9 502.9 M 943.7 558.9 L 852.8 560.1 M 838.1 642.2 L 794.9 556.9 M 705.6 510.4 L 599.8 476.2"
       id="plisV_002"
       stroke="green"
       stroke-dasharray="4 1 1 1"
       style="stroke-width:1.26936031" />
    <path
       d="M 849.0 392.8 L 853.0 396.8 M 853.0 392.8 L 849.0 396.8 M 905.5 408.0 L 909.5 412.0 M 909.5 408.0 L 905.5 412.0 M 803.6 355.8 L 807.6 359.8 M 807.6 355.8 L 803.6 359.8 M 836.2 301.6 L 840.2 305.6 M 840.2 301.6 L 836.2 305.6 M 694.2 161.9 L 698.2 165.9 M 698.2 161.9 L 694.2 165.9 M 598.8 172.2 L 602.8 176.2 M 602.8 172.2 L 598.8 176.2 M 736.4 463.8 L 740.4 467.8 M 740.4 463.8 L 736.4 467.8 M 755.8 505.8 L 759.8 509.8 M 759.8 505.8 L 755.8 509.8 M 583.6 80.3 L 587.6 84.3 M 587.6 80.3 L 583.6 84.3 M 681.2 92.6 L 685.2 96.6 M 685.2 92.6 L 681.2 96.6 M 823.1 129.7 L 827.1 133.7 M 827.1 129.7 L 823.1 133.7 M 896.8 102.7 L 900.8 106.7 M 900.8 102.7 L 896.8 106.7 M 889.2 501.3 L 893.2 505.3 M 893.2 501.3 L 889.2 505.3 M 896.2 557.5 L 900.2 561.5 M 900.2 557.5 L 896.2 561.5 M 814.5 597.6 L 818.5 601.6 M 818.5 597.6 L 814.5 601.6 M 650.7 491.3 L 654.7 495.3 M 654.7 491.3 L 650.7 495.3"
       id="marqueV_002"
       stroke="green" />
    <path
       d="m 812.7013,287.13019 v -0.8 l 0.8,-1.5 0.7,-0.7 1.5,-0.8 h 3 l 1.5,0.8 0.8,0.7 0.7,1.5 v 1.5 l -0.7,1.5 -1.5,2.3 -7.5,7.5 h 10.5"
       id="titre_2"
       stroke="#4b0082"
       style="stroke-width:1.26936" />
  </g>
  <g
     id="page_003">
    <path
       d="M 1479.9 212.2 L 1483.2 216.2 L 1484.4 211.9 M 1479.9 212.2 L 1486.0 213.9 M 1480.9 209.1 L 1481.8 205.9 L 1483.6 208.3 L 1483.8 207.4 L 1484.3 206.9 L 1484.7 206.7 L 1485.6 206.7 L 1486.2 206.8 L 1487.0 207.4 L 1487.4 208.1 L 1487.4 209.0 L 1487.2 209.9 L 1486.7 210.7 L 1486.3 210.9 L 1485.6 211.0 M 1260.3 399.1 L 1262.9 401.0 L 1260.1 401.9 L 1260.8 402.4 L 1261.1 403.0 L 1261.1 403.4 L 1260.9 404.3 L 1260.5 404.8 L 1259.7 405.4 L 1258.9 405.5 L 1258.0 405.2 L 1257.3 404.7 L 1256.7 403.9 L 1256.6 403.5 L 1256.8 402.8 M 1242.5 225.9 L 1237.8 220.7 M 1244.1 222.0 L 1242.5 225.9 M 1283.2 194.5 L 1284.1 194.0 L 1284.2 193.4 L 1284.1 192.8 L 1283.7 192.2 L 1283.1 192.1 L 1281.8 192.0 L 1280.9 191.9 L 1280.2 191.4 L 1279.8 190.9 L 1279.6 190.0 L 1279.8 189.3 L 1280.0 189.0 L 1280.8 188.5 L 1282.0 188.3 L 1283.0 188.4 L 1283.3 188.6 L 1283.7 189.2 L 1283.9 190.1 L 1283.7 190.7 L 1283.2 191.4 L 1282.4 191.9 L 1281.3 192.4 L 1280.8 192.8 L 1280.6 193.5 L 1280.7 194.0 L 1281.1 194.6 L 1282.1 194.7 L 1283.4 194.4 M 1370.2 105.1 L 1369.4 100.0 L 1366.2 103.1 M 1370.2 105.1 L 1365.8 100.6 M 1367.4 105.8 L 1367.1 106.5 L 1367.1 107.7 L 1362.7 103.2 M 1412.3 106.9 L 1417.2 105.3 L 1413.6 102.6 M 1412.3 106.9 L 1416.0 101.8 M 1408.7 104.2 L 1409.6 104.5 L 1410.7 104.1 L 1411.8 103.1 L 1412.3 102.4 L 1413.0 101.0 L 1413.0 99.9 L 1412.5 99.1 L 1412.0 98.8 L 1411.1 98.5 L 1410.1 98.9 L 1409.0 99.9 L 1408.4 100.6 L 1407.8 102.0 L 1407.7 103.1 L 1408.3 103.9 L 1408.6 104.1 M 1104.2 293.4 L 1104.5 293.4 L 1105.1 293.7 L 1105.4 294.0 L 1105.7 294.6 L 1105.6 295.8 L 1105.3 296.4 L 1105.0 296.7 L 1104.4 297.0 L 1103.8 297.0 L 1103.2 296.7 L 1102.3 296.1 L 1099.4 293.0 L 1099.3 297.2 M 1104.2 298.3 L 1104.5 298.9 L 1105.4 299.9 L 1099.1 299.8 M 1197.2 229.6 L 1204.0 228.0 M 1199.8 232.9 L 1197.2 229.6 M 1097.1 222.9 L 1097.5 223.4 L 1098.5 224.1 L 1092.3 225.2 M 1099.2 227.0 L 1098.8 226.2 L 1097.8 225.7 L 1096.3 225.7 L 1095.4 225.9 L 1094.0 226.4 L 1093.2 227.2 L 1093.0 228.1 L 1093.1 228.7 L 1093.6 229.5 L 1094.6 230.0 L 1096.1 230.0 L 1097.0 229.8 L 1098.4 229.3 L 1099.2 228.5 L 1099.3 227.6 L 1099.3 227.1 M 1098.3 376.6 L 1098.6 376.7 L 1099.2 377.0 L 1099.4 377.4 L 1099.7 378.0 L 1099.5 379.2 L 1099.2 379.7 L 1098.8 380.0 L 1098.2 380.2 L 1097.6 380.2 L 1097.0 379.8 L 1096.2 379.1 L 1093.6 375.8 L 1093.1 379.9 M 1098.9 384.9 L 1095.1 381.5 L 1094.6 385.9 M 1098.9 384.9 L 1092.6 384.2 M 1185.9 416.2 L 1187.6 413.4 L 1188.7 416.1 L 1189.2 415.4 L 1189.7 415.0 L 1190.2 414.9 L 1191.1 415.1 L 1191.6 415.5 L 1192.2 416.2 L 1192.4 417.0 L 1192.2 417.9 L 1191.7 418.7 L 1191.0 419.3 L 1190.6 419.4 L 1189.9 419.4 M 1128.1 437.7 L 1128.1 437.0 L 1127.3 436.5 L 1126.7 436.3 L 1125.8 436.3 L 1124.9 436.9 L 1124.2 438.2 L 1123.7 439.7 L 1123.6 440.9 L 1124.0 441.7 L 1124.7 442.2 L 1125.0 442.3 L 1125.9 442.3 L 1126.7 442.0 L 1127.3 441.2 L 1127.4 440.9 L 1127.4 440.0 L 1127.0 439.2 L 1126.2 438.6 L 1126.0 438.5 L 1125.0 438.5 L 1124.3 438.9 L 1123.7 439.7 M 1129.3 438.6 L 1129.9 438.5 L 1131.1 438.0 L 1129.1 443.9 M 1516.3 307.6 L 1516.0 307.0 L 1515.0 306.1 L 1521.3 305.9 M 1516.8 301.0 L 1517.7 301.3 L 1518.3 301.9 L 1518.6 302.8 L 1518.6 303.1 L 1518.4 304.0 L 1517.8 304.6 L 1516.9 304.9 L 1516.6 304.9 L 1515.7 304.6 L 1515.1 304.0 L 1514.7 303.2 L 1514.7 302.9 L 1515.0 301.9 L 1515.6 301.3 L 1516.8 301.0 L 1518.3 301.0 L 1519.8 301.2 L 1520.7 301.8 L 1521.0 302.7 L 1521.1 303.3 L 1520.8 304.2 L 1520.2 304.5 M 1507.7 219.9 L 1506.0 215.0 L 1503.4 218.7 M 1507.7 219.9 L 1502.6 216.3 M 1505.8 222.5 L 1503.9 225.2 L 1503.0 222.4 L 1502.5 223.1 L 1501.9 223.4 L 1501.4 223.5 L 1500.5 223.2 L 1500.0 222.9 L 1499.5 222.1 L 1499.3 221.3 L 1499.6 220.4 L 1500.1 219.6 L 1500.9 219.1 L 1501.3 219.0 L 1502.0 219.1 M 1524.7 462.0 L 1524.4 462.0 L 1523.8 461.8 L 1523.5 461.5 L 1523.1 461.0 L 1522.9 459.8 L 1523.2 459.1 L 1523.4 458.8 L 1524.0 458.4 L 1524.6 458.3 L 1525.2 458.6 L 1526.2 459.0 L 1529.5 461.6 L 1529.0 457.5 M 1524.2 453.0 L 1525.1 453.2 L 1525.8 453.7 L 1526.2 454.6 L 1526.2 454.9 L 1526.1 455.8 L 1525.5 456.5 L 1524.7 456.9 L 1524.4 456.9 L 1523.4 456.7 L 1522.8 456.2 L 1522.4 455.4 L 1522.3 455.1 L 1522.5 454.1 L 1523.0 453.5 L 1524.2 453.0 L 1525.7 452.8 L 1527.2 452.9 L 1528.2 453.4 L 1528.6 454.2 L 1528.7 454.8 L 1528.5 455.8 L 1527.9 456.1 M 1262.0 509.8 L 1264.7 511.8 L 1261.8 512.6 L 1262.5 513.2 L 1262.8 513.8 L 1262.9 514.2 L 1262.6 515.1 L 1262.2 515.6 L 1261.4 516.1 L 1260.6 516.2 L 1259.7 515.9 L 1259.0 515.4 L 1258.4 514.6 L 1258.4 514.2 L 1258.5 513.5 M 1268.7 514.8 L 1266.3 513.0 L 1264.4 515.0 L 1264.9 514.9 L 1265.8 515.2 L 1266.5 515.8 L 1267.0 516.5 L 1267.1 517.4 L 1266.8 518.3 L 1266.5 518.8 L 1265.7 519.3 L 1264.9 519.4 L 1264.0 519.1 L 1263.2 518.6 L 1262.7 517.8 L 1262.6 517.4 L 1262.8 516.7 M 1270.0 470.9 L 1270.6 471.1 L 1271.5 470.7 L 1271.9 470.3 L 1272.3 469.4 L 1272.1 468.3 L 1271.2 467.1 L 1270.2 466.0 L 1269.1 465.4 L 1268.2 465.4 L 1267.4 465.8 L 1267.2 466.0 L 1266.8 466.9 L 1266.8 467.7 L 1267.2 468.6 L 1267.4 468.8 L 1268.3 469.2 L 1269.1 469.2 L 1270.0 468.8 L 1270.2 468.6 L 1270.6 467.7 L 1270.6 466.9 L 1270.2 466.0 M 1268.6 471.5 L 1268.4 472.1 L 1268.4 473.4 L 1264.0 469.0 M 1471.4 463.7 L 1471.8 463.2 L 1471.8 462.2 L 1471.6 461.7 L 1471.0 460.9 L 1469.9 460.7 L 1468.4 460.9 L 1467.0 461.5 L 1466.0 462.2 L 1465.6 462.9 L 1465.7 463.9 L 1465.8 464.2 L 1466.4 464.9 L 1467.2 465.2 L 1468.1 465.2 L 1468.4 465.1 L 1469.1 464.5 L 1469.5 463.7 L 1469.4 462.8 L 1469.3 462.5 L 1468.7 461.8 L 1468.0 461.4 L 1467.0 461.5 M 1471.5 465.7 L 1471.8 465.6 L 1472.4 465.7 L 1472.8 465.9 L 1473.3 466.3 L 1473.7 467.4 L 1473.7 468.1 L 1473.5 468.5 L 1473.0 469.0 L 1472.5 469.2 L 1471.8 469.1 L 1470.8 468.9 L 1466.9 467.1 L 1468.4 471.1 M 1346.2 541.4 L 1345.6 541.5 L 1345.1 542.4 L 1345.0 543.0 L 1345.1 543.9 L 1345.9 544.7 L 1347.3 545.2 L 1348.8 545.5 L 1350.0 545.4 L 1350.7 544.9 L 1351.2 544.1 L 1351.2 543.8 L 1351.1 542.9 L 1350.6 542.2 L 1349.8 541.7 L 1349.5 541.7 L 1348.6 541.8 L 1347.9 542.3 L 1347.4 543.1 L 1347.3 543.4 L 1347.5 544.3 L 1348.0 545.0 L 1348.8 545.5 M 1345.7 539.2 L 1346.3 535.9 L 1348.3 538.2 L 1348.5 537.3 L 1348.9 536.7 L 1349.2 536.5 L 1350.2 536.4 L 1350.8 536.5 L 1351.6 536.9 L 1352.1 537.6 L 1352.2 538.6 L 1352.0 539.5 L 1351.6 540.3 L 1351.2 540.5 L 1350.6 540.7 M 1388.3 513.6 L 1388.2 513.0 L 1387.5 512.4 L 1386.9 512.2 L 1386.0 512.3 L 1385.1 512.9 L 1384.4 514.3 L 1383.9 515.7 L 1383.8 516.9 L 1384.2 517.7 L 1385.0 518.2 L 1385.3 518.3 L 1386.2 518.3 L 1387.0 517.9 L 1387.5 517.2 L 1387.6 516.9 L 1387.6 515.9 L 1387.2 515.2 L 1386.5 514.6 L 1386.2 514.5 L 1385.2 514.5 L 1384.5 514.9 L 1383.9 515.7 M 1390.6 513.4 L 1393.7 514.4 L 1391.3 516.1 L 1392.1 516.4 L 1392.6 516.9 L 1392.8 517.3 L 1392.8 518.2 L 1392.6 518.8 L 1392.1 519.5 L 1391.3 519.9 L 1390.4 519.9 L 1389.5 519.7 L 1388.7 519.1 L 1388.5 518.7 L 1388.4 518.1 M 1422.3 509.2 L 1424.4 506.7 L 1425.1 509.6 L 1425.7 508.9 L 1426.3 508.7 L 1426.7 508.6 L 1427.6 509.0 L 1428.1 509.3 L 1428.6 510.1 L 1428.7 511.0 L 1428.3 511.9 L 1427.7 512.6 L 1426.9 513.1 L 1426.5 513.1 L 1425.9 513.0 M 1429.4 503.9 L 1429.9 504.7 L 1430.0 505.6 L 1429.7 506.4 L 1429.5 506.7 L 1428.7 507.2 L 1427.8 507.3 L 1427.0 506.9 L 1426.7 506.7 L 1426.2 505.9 L 1426.1 505.1 L 1426.5 504.2 L 1426.7 504.0 L 1427.5 503.5 L 1428.3 503.4 L 1429.4 503.9 L 1430.6 504.9 L 1431.6 506.0 L 1431.9 507.1 L 1431.5 508.0 L 1431.2 508.4 L 1430.3 508.9 L 1429.7 508.8 M 1444.6 468.8 L 1443.9 468.9 L 1443.5 469.8 L 1443.3 470.4 L 1443.5 471.3 L 1444.2 472.1 L 1445.6 472.7 L 1447.1 473.0 L 1448.3 472.9 L 1449.0 472.4 L 1449.5 471.6 L 1449.6 471.3 L 1449.5 470.4 L 1449.0 469.7 L 1448.2 469.2 L 1447.9 469.1 L 1446.9 469.2 L 1446.2 469.7 L 1445.7 470.5 L 1445.7 470.8 L 1445.8 471.8 L 1446.3 472.5 L 1447.1 473.0 M 1445.6 467.0 L 1445.3 466.9 L 1444.7 466.5 L 1444.5 466.1 L 1444.3 465.5 L 1444.6 464.3 L 1445.0 463.8 L 1445.3 463.6 L 1446.0 463.4 L 1446.6 463.5 L 1447.1 463.9 L 1447.9 464.7 L 1450.2 468.2 L 1451.0 464.1 M 1506.2 511.3 L 1508.5 509.0 L 1508.9 511.9 L 1509.5 511.3 L 1510.2 511.1 L 1510.6 511.1 L 1511.5 511.5 L 1511.9 511.9 L 1512.3 512.7 L 1512.3 513.6 L 1511.9 514.4 L 1511.3 515.1 L 1510.4 515.5 L 1510.0 515.5 L 1509.4 515.3 M 1510.5 506.8 L 1510.1 507.7 L 1510.3 508.3 L 1510.8 508.8 L 1511.4 509.0 L 1512.0 508.7 L 1513.1 508.1 L 1513.9 507.7 L 1514.8 507.7 L 1515.4 507.9 L 1516.1 508.5 L 1516.3 509.1 L 1516.3 509.6 L 1515.9 510.4 L 1515.0 511.3 L 1514.2 511.7 L 1513.8 511.7 L 1513.1 511.5 L 1512.5 510.9 L 1512.3 510.2 L 1512.3 509.4 L 1512.7 508.5 L 1513.3 507.5 L 1513.5 506.8 L 1513.3 506.2 L 1512.9 505.8 L 1512.2 505.6 L 1511.4 506.0 L 1510.4 507.0 M 1489.5 504.3 L 1491.0 507.3 L 1488.0 506.7 L 1488.4 507.6 L 1488.4 508.2 L 1488.3 508.6 L 1487.6 509.3 L 1487.0 509.6 L 1486.1 509.7 L 1485.3 509.4 L 1484.6 508.7 L 1484.2 507.9 L 1484.1 507.0 L 1484.3 506.6 L 1484.7 506.0 M 1491.4 513.0 L 1490.5 513.2 L 1489.7 512.9 L 1489.0 512.2 L 1488.9 511.9 L 1488.7 511.0 L 1489.0 510.2 L 1489.7 509.5 L 1490.0 509.4 L 1490.9 509.3 L 1491.7 509.6 L 1492.4 510.2 L 1492.5 510.5 L 1492.6 511.4 L 1492.4 512.3 L 1491.4 513.0 L 1490.1 513.7 L 1488.6 514.1 L 1487.5 513.9 L 1486.8 513.3 L 1486.6 512.7 L 1486.5 511.8 L 1486.9 511.2 M 1100.8 163.4 L 1101.4 163.3 L 1102.0 162.5 L 1102.2 161.9 L 1102.2 161.0 L 1101.5 160.1 L 1100.2 159.4 L 1098.8 158.9 L 1097.5 158.8 L 1096.8 159.2 L 1096.2 160.0 L 1096.1 160.3 L 1096.1 161.2 L 1096.5 162.0 L 1097.3 162.5 L 1097.5 162.6 L 1098.5 162.6 L 1099.3 162.2 L 1099.8 161.5 L 1099.9 161.2 L 1099.9 160.2 L 1099.5 159.5 L 1098.8 158.9 M 1179.3 168.5 L 1179.5 169.4 L 1180.1 169.8 L 1180.7 169.8 L 1181.3 169.6 L 1181.7 169.0 L 1182.0 167.8 L 1182.4 166.9 L 1183.0 166.4 L 1183.6 166.1 L 1184.5 166.2 L 1185.1 166.5 L 1185.4 166.8 L 1185.6 167.7 L 1185.6 168.9 L 1185.2 169.8 L 1184.9 170.1 L 1184.3 170.3 L 1183.4 170.3 L 1182.8 170.0 L 1182.2 169.3 L 1182.0 168.4 L 1181.8 167.2 L 1181.5 166.6 L 1180.9 166.2 L 1180.3 166.2 L 1179.7 166.5 L 1179.4 167.3 L 1179.3 168.7 M 1149.0 140.3 L 1152.2 136.2 L 1147.7 136.0 M 1149.0 140.3 L 1149.3 134.0 M 1145.9 138.6 L 1145.9 138.9 L 1145.5 139.4 L 1145.2 139.7 L 1144.6 140.0 L 1143.4 139.9 L 1142.8 139.6 L 1142.5 139.3 L 1142.3 138.7 L 1142.3 138.1 L 1142.6 137.5 L 1143.3 136.6 L 1146.4 133.8 L 1142.2 133.6 M 1288.0 141.9 L 1282.9 142.8 L 1286.1 145.9 M 1288.0 141.9 L 1283.5 146.4 M 1289.1 145.3 L 1289.3 145.1 L 1290.0 144.8 L 1290.4 144.8 L 1291.0 145.1 L 1291.9 145.9 L 1292.1 146.6 L 1292.1 147.0 L 1291.9 147.6 L 1291.4 148.0 L 1290.8 148.2 L 1289.7 148.5 L 1285.5 148.4 L 1288.5 151.4 M 1317.0 100.9 L 1322.1 101.6 L 1320.0 97.6 M 1317.0 100.9 L 1322.6 98.0 M 1317.1 98.0 L 1316.6 97.6 L 1315.3 97.2 L 1320.9 94.2 M 1239.5 84.0 L 1239.8 83.8 L 1240.4 83.8 L 1240.8 83.9 L 1241.4 84.2 L 1242.1 85.2 L 1242.1 85.9 L 1242.0 86.3 L 1241.7 86.9 L 1241.2 87.2 L 1240.5 87.3 L 1239.4 87.2 L 1235.3 86.3 L 1237.5 89.8 M 1230.5 40.1 L 1230.4 39.1 L 1229.7 38.3 L 1228.4 37.6 L 1227.5 37.3 L 1226.0 37.2 L 1225.0 37.5 L 1224.4 38.3 L 1224.3 38.9 L 1224.3 39.8 L 1225.0 40.6 L 1226.3 41.4 L 1227.2 41.6 L 1228.7 41.7 L 1229.8 41.4 L 1230.3 40.6 L 1230.4 40.2 M 1265.5 47.8 L 1264.8 47.7 L 1263.6 48.0 L 1266.9 42.6 M 1518.6 137.3 L 1516.8 139.7 L 1518.7 141.5 L 1518.7 141.1 L 1519.0 140.2 L 1519.5 139.5 L 1520.3 138.9 L 1521.1 138.8 L 1522.0 139.1 L 1522.5 139.5 L 1523.1 140.3 L 1523.2 141.1 L 1522.9 142.0 L 1522.3 142.7 L 1521.5 143.3 L 1521.1 143.3 L 1520.5 143.2 M 1509.9 88.3 L 1509.2 88.2 L 1508.0 88.4 L 1511.6 83.2 M 1468.1 89.1 L 1465.6 84.5 L 1463.6 88.6 M 1468.1 89.1 L 1462.4 86.3 M 1466.1 93.0 L 1466.2 92.1 L 1465.6 91.2 L 1464.4 90.3 L 1463.6 89.9 L 1462.1 89.5 L 1461.1 89.6 L 1460.4 90.3 L 1460.1 90.9 L 1460.0 91.8 L 1460.6 92.7 L 1461.8 93.7 L 1462.6 94.0 L 1464.1 94.4 L 1465.2 94.3 L 1465.8 93.6 L 1466.0 93.2 M 1289.7 569.4 L 1288.9 572.6 L 1287.0 570.3 L 1286.8 571.1 L 1286.4 571.7 L 1286.0 571.9 L 1285.1 571.9 L 1284.5 571.8 L 1283.7 571.3 L 1283.2 570.5 L 1283.2 569.6 L 1283.4 568.7 L 1283.9 567.9 L 1284.3 567.7 L 1285.0 567.6 M 1286.8 577.3 L 1287.4 577.1 L 1287.9 576.3 L 1288.1 575.8 L 1288.0 574.8 L 1287.3 574.0 L 1285.9 573.3 L 1284.5 573.0 L 1283.2 573.0 L 1282.5 573.4 L 1282.0 574.2 L 1281.9 574.5 L 1282.0 575.4 L 1282.4 576.1 L 1283.2 576.7 L 1283.5 576.7 L 1284.4 576.7 L 1285.2 576.2 L 1285.7 575.5 L 1285.8 575.2 L 1285.7 574.2 L 1285.3 573.5 L 1284.5 573.0 M 1327.8 598.4 L 1329.1 595.3 L 1330.6 597.9 L 1331.0 597.1 L 1331.5 596.6 L 1331.9 596.5 L 1332.8 596.5 L 1333.4 596.8 L 1334.1 597.4 L 1334.4 598.2 L 1334.4 599.1 L 1334.0 600.0 L 1333.4 600.7 L 1333.0 600.8 L 1332.3 600.9 M 1330.2 592.6 L 1330.2 593.6 L 1330.6 594.1 L 1331.1 594.3 L 1331.8 594.2 L 1332.3 593.8 L 1333.1 592.8 L 1333.7 592.1 L 1334.5 591.8 L 1335.1 591.7 L 1336.0 592.1 L 1336.4 592.6 L 1336.6 593.0 L 1336.5 593.9 L 1336.0 595.0 L 1335.4 595.7 L 1335.0 595.9 L 1334.4 595.9 L 1333.5 595.6 L 1333.1 595.1 L 1332.8 594.3 L 1332.8 593.4 L 1333.0 592.1 L 1333.0 591.5 L 1332.5 591.0 L 1332.0 590.7 L 1331.3 590.8 L 1330.7 591.5 L 1330.2 592.8 M 1297.9 604.4 L 1301.0 605.5 L 1298.5 607.1 L 1299.3 607.5 L 1299.8 608.0 L 1300.0 608.3 L 1299.9 609.3 L 1299.7 609.8 L 1299.1 610.6 L 1298.3 610.9 L 1297.4 610.9 L 1296.5 610.6 L 1295.8 610.0 L 1295.6 609.6 L 1295.6 608.9 M 1306.2 607.5 L 1301.1 612.3 M 1302.2 606.0 L 1306.2 607.5"
       id="nums_003"
       stroke="black"
       style="stroke-width:1.01548824;stroke-dasharray:none" />
    <path
       d="m 1247.2,193.2 66.9,-13.2 -60.4,-60.9 -37.5,-59.5 12.3,-42.3 79,48 31.3,59 47.6,-46.8 57.6,42.5 30.9,-64.6 75.8,53.1 -52.4,69.2 -19.4,68.6 41.1,-58.3 6,231.3 9.6,73.9 -40.6,41.2 -21.7,-44.6 -16.5,-44.2 -9.4,46.2 -31.6,38.3 -56.6,-18 -11,58.4 -22,53.5 -53.8,-20.6 16.4,-63.2 -56.1,-42.1 62.3,-62.9 -76.1,-56.7 -49.9,80.7 -83.9,-28.3 11.8,-100.2 0.9,-65 -13.5,-75.6 19.8,-60.4 85.6,4.3 -4.3,68 38.3,47.2 z"
       id="coupes_003"
       stroke="#ff0000"
       style="stroke-width:1.26936"
       sodipodi:nodetypes="ccccccccccccccccccccccccccccccccccccccc" />
    <path
       d="M 1478.9 246.3 L 1444.0 120.0 M 1444.0 120.0 L 1498.3 177.7 M 1478.9 246.3 L 1456.8 445.6 M 1456.8 445.6 L 1359.2 512.1 M 1359.2 512.1 L 1295.0 435.2 M 1295.0 435.2 L 1444.0 120.0 M 1218.9 378.5 L 1314.1 180.0 M 1314.1 180.0 L 1444.0 120.0 M 1314.1 180.0 L 1338.8 124.3 M 1338.8 124.3 L 1444.0 120.0 M 1218.9 378.5 L 1223.7 249.2 M 1223.7 249.2 L 1314.1 180.0 M 1218.9 378.5 L 1096.9 330.7 M 1096.9 330.7 L 1223.7 249.2 M 1097.8 265.7 L 1223.7 249.2 M 1097.8 265.7 L 1185.4 202.0 M 1218.9 378.5 L 1085.1 430.9 M 1526.0 419.3 L 1456.8 445.6 M 1478.9 246.3 L 1526.0 419.3 M 1535.6 493.2 L 1456.8 445.6 M 1359.2 512.1 L 1288.8 540.2 M 1288.8 540.2 L 1295.0 435.2 M 1535.6 493.2 L 1473.3 489.8 M 1348.2 570.5 L 1288.8 540.2 M 1104.1 129.7 L 1185.4 202.0 M 1253.7 119.1 L 1338.8 124.3 M 1253.7 119.1 L 1307.5 65.3 M 1216.2 59.6 L 1307.5 65.3 M 1444.0 120.0 L 1550.7 108.5 M 1348.2 570.5 L 1272.4 603.4"
       id="plisM_003"
       stroke="brown"
       stroke-dasharray="4" />
    <path
       d="m 1459.5,181.2 4,4 m 0,-4 -4,4 m 9.7,-38.3 4,4 m 0,-4 -4,4 m -3.3,193.1 4,4 m 0,-4 -4,4 m -59.9,128.9 4,4 m 0,-4 -4,4 m -80.9,-9.3 4,4 m 0,-4 -4,4 m 42.4,-200 4,4 m 0,-4 -4,4 m -103,-2.4 4,4 m 0,-4 -4,4 M 1377,148 l 4,4 m 0,-4 -4,4 m -52.6,-1.8 4,4 m 0,-4 -4,4 m 65,-34 4,4 m 0,-4 -4,4 m -170.1,187.6 4,4 m 0,-4 -4,4 m 47.6,-103.2 4,4 m 0,-4 -4,4 m -111,136 4,4 m 0,-4 -4,4 m 2.4,-68.6 4,4 m 0,-4 -4,4 m 0.5,-36.6 4,4 m 0,-4 -4,4 m -19.2,-27.5 4,4 m 0,-4 -4,4 m 10.4,166.8 4,4 m 0,-4 -4,4 m 339.4,23.7 4,4 m 0,-4 -4,4 m 11.1,-103.6 4,4 m 0,-4 -4,4 m -6.3,132.6 4,4 m 0,-4 -4,4 m -172.2,52.7 4,4 m 0,-4 -4,4 m -32.1,-42.4 4,4 m 0,-4 -4,4 m 212.5,-0.2 4,4 m 0,-4 -4,4 m -185.9,59.9 4,4 m 0,-4 -4,4 m -173.7,-393.5 4,4 m 0,-4 -4,4 m 151.4,-48.2 4,4 m 0,-4 -4,4 m -15.6,-33.5 4,4 m 0,-4 -4,4 m -18.7,-33.8 4,4 m 0,-4 -4,4 m 235.5,47.8 4,4 m 0,-4 -4,4 m -187.1,468.8 4,4 m 0,-4 -4,4"
       id="marqueM_003"
       stroke="#a52a2a"
       style="display:none" />
    <path
       d="M 1456.8 445.6 L 1444.0 120.0 M 1359.2 512.1 L 1444.0 120.0 M 1218.9 378.5 L 1444.0 120.0 M 1084.3 190.1 L 1185.4 202.0 M 1456.8 445.6 L 1415.8 530.1"
       id="plisV_003"
       stroke="green"
       stroke-dasharray="4 1 1 1"
       style="stroke-width:1.26936031" />
    <path
       d="M 1448.4 280.8 L 1452.4 284.8 M 1452.4 280.8 L 1448.4 284.8 M 1399.6 314.0 L 1403.6 318.0 M 1403.6 314.0 L 1399.6 318.0 M 1329.4 247.2 L 1333.4 251.2 M 1333.4 247.2 L 1329.4 251.2 M 1132.9 194.1 L 1136.9 198.1 M 1136.9 194.1 L 1132.9 198.1 M 1434.3 485.9 L 1438.3 489.9 M 1438.3 485.9 L 1434.3 489.9"
       id="marqueV_003"
       stroke="green" />
    <path
       d="M 1315.2 298.9 L 1323.4 298.9 L 1318.9 304.9 L 1321.2 304.9 L 1322.7 305.6 L 1323.4 306.4 L 1324.2 308.6 L 1324.2 310.1 L 1323.4 312.4 L 1321.9 313.9 L 1319.7 314.6 L 1317.4 314.6 L 1315.2 313.9 L 1314.4 313.1 L 1313.7 311.6"
       id="titre_3"
       stroke="indigo"
       style="stroke-width:1.26936031" />
  </g>
</svg>
