<?xml version="1.0" encoding="UTF-8" standalone="no"?>
<svg
   height="297mm"
   viewBox="0 0 533 754"
   width="210mm"
   version="1.1"
   id="svg18"
   sodipodi:docname="DiamantTC.svg"
   inkscape:version="1.3.2 (1:1.3.2+202311252150+091e20ef0f)"
   xmlns:inkscape="http://www.inkscape.org/namespaces/inkscape"
   xmlns:sodipodi="http://sodipodi.sourceforge.net/DTD/sodipodi-0.dtd"
   xmlns="http://www.w3.org/2000/svg"
   xmlns:svg="http://www.w3.org/2000/svg">
  <defs
     id="defs18" />
  <sodipodi:namedview
     id="namedview18"
     pagecolor="#ffffff"
     bordercolor="#000000"
     borderopacity="0.25"
     inkscape:showpageshadow="2"
     inkscape:pageopacity="0.0"
     inkscape:pagecheckerboard="0"
     inkscape:deskcolor="#d1d1d1"
     inkscape:document-units="mm"
     showgrid="false"
     inkscape:zoom="0.73079066"
     inkscape:cx="392.72533"
     inkscape:cy="525.45828"
     inkscape:window-width="1920"
     inkscape:window-height="1008"
     inkscape:window-x="0"
     inkscape:window-y="0"
     inkscape:window-maximized="1"
     inkscape:current-layer="svg18" />
  <style
     type="text/css"
     id="style1"><![CDATA[
			path {
				fill: none;
			}
		]]></style>
  <g
     id="page_001"
     transform="translate(13.89986,5.0472678)">
    <path
       d="M 82.9,71 188.7,134.5 125.2,28.7 h 254 L 315.7,134.5 421.6,71 v 254 l -105.9,-63.5 63.5,105.9 h -254 L 188.7,261.5 82.9,325 Z M 470.4,584.3 252.7,715.1 34.8,584.6 47.5,330.9 252.6,468.3 457.5,330.7 Z"
       id="coupes_001"
       stroke="#ff0000"
       stroke-width="1.27"
       sodipodi:nodetypes="cccccccccccccccccccc" />
    <path
       d="m 188.7,134.5 v 127 h 127 v -127 z m 64,580.6 -0.1,-246.8 M 34.8,584.6 252.6,468.3 l 217.8,116"
       id="plisM_001"
       stroke="#a52a2a"
       stroke-dasharray="4"
       sodipodi:nodetypes="cccccccccc" />
    <path
       d="m 282,79.6 4,4 m 0,-4 -4,4 m -31.8,48.9 4,4 m 0,-4 -4,4 m 63.5,59.5 4,4 m 0,-4 -4,4 m -63.5,59.5 4,4 m 0,-4 -4,4 m -63.5,-67.5 4,4 m 0,-4 -4,4 m 63.9,389.7 4,4 m 0,-4 -4,4 m 108.9,-69.4 4,4 m 0,-4 -4,4 m -217.8,-3.9 4,4 m 0,-4 -4,4"
       display="none"
       id="marqueM_001"
       stroke="#a52a2a" />
    <g
       id="nums_001">
      <path
         d="m 253,42.5 1.1,-0.5 0.8,-1.5 0.4,-2.5 V 36.5 L 254.9,34 254.1,32.5 253,32 h -0.7 l -1.2,0.5 -0.7,1.5 -0.4,2.5 V 38 l 0.4,2.5 0.7,1.5 1.2,0.5 h 0.5"
         stroke="#000000"
         stroke-width="1"
         id="path1" />
      <path
         d="m 166,74.6 0.8,0.3 1.9,0.2 -9,5.4"
         stroke="#000000"
         stroke-width="1"
         id="path2" />
      <path
         d="m 336.4,73.3 -1.9,3.2 3.7,2.7 -0.3,-0.6 0.2,-1.2 0.6,-1 1,-0.7 1.2,-0.2 1.5,0.5 0.9,0.5 1,1.1 0.5,1.2 -0.1,1.2 -0.6,1 -1,0.7 h -0.6 l -1.1,-0.2"
         stroke="#000000"
         stroke-width="1"
         id="path3" />
      <path
         d="m 168.5,322.1 -4,-6.8 -2.9,4.8 m 6.9,2 -9,-5.4"
         stroke="#000000"
         stroke-width="1"
         id="path4" />
      <path
         d="m 249.7,356.1 v -0.5 l 0.4,-1 0.4,-0.5 0.7,-0.5 h 1.5 l 0.8,0.5 0.3,0.5 0.4,1 v 1 l -0.4,1 -0.7,1.5 -3.8,5 h 5.3"
         stroke="#000000"
         stroke-width="1"
         id="path5" />
      <path
         d="m 336.9,323.5 -2.1,-3.5 4.5,-0.2 -0.5,-0.9 V 318 l 0.2,-0.6 1.1,-1.1 0.9,-0.5 1.5,-0.5 1.2,0.2 1,0.7 0.6,0.9 0.1,1.3 -0.2,0.5 -0.7,0.9"
         stroke="#000000"
         stroke-width="1"
         id="path6" />
      <path
         d="m 129.2,281.1 0.4,7.9 4.8,-2.9 m -5.2,-5 5.4,9"
         stroke="#000000"
         stroke-width="1"
         id="path7" />
      <path
         d="m 95.1,199.7 1,-0.4 0.5,-1.1 v -0.8 l -0.5,-1.1 -1.5,-0.7 -2.5,-0.4 h -2.5 l -2,0.4 -1,0.7 -0.5,1.1 v 0.4 l 0.5,1.1 1,0.8 1.5,0.4 h 0.5 l 1.5,-0.4 1,-0.8 0.5,-1.1 v -0.4 l -0.5,-1.1 -1,-0.7 -1.5,-0.4"
         stroke="#000000"
         stroke-width="1"
         id="path8" />
      <path
         d="m 131.1,113.3 h -0.9 l -1.7,0.7 5.4,-9"
         stroke="#000000"
         stroke-width="1"
         id="path9" />
      <path
         d="m 374.5,115.3 3.2,-1.9 -2,-4.1 -0.1,0.7 -0.7,1 -0.9,0.5 -1.3,0.2 -1.1,-0.5 -1.1,-1.1 -0.5,-0.8 -0.5,-1.5 0.2,-1.2 0.7,-1.1 0.9,-0.5 1.2,-0.2 0.6,0.3 0.9,0.6"
         stroke="#000000"
         stroke-width="1"
         id="path10" />
      <path
         d="m 407.8,195.9 10.5,3.8 m -10.5,1.5 v -5.3"
         stroke="#000000"
         stroke-width="1"
         id="path11" />
      <path
         d="m 373.7,280.3 3.6,2.1 -4,2.3 1,0.6 0.3,0.8 0.1,0.6 -0.4,1.5 -0.6,0.9 -1,1 -1.2,0.5 -1.2,-0.1 -1,-0.6 -0.7,-1 -0.1,-0.6 0.2,-1.1"
         stroke="#000000"
         stroke-width="1"
         id="path12" />
      <path
         d="m 356.7,638.4 -0.9,-0.7 -1.2,0.2 -0.6,0.4 -0.7,1 0.1,1.6 1,2.4 1.3,2.1 1.3,1.5 1.2,0.5 1.2,-0.1 0.3,-0.2 0.7,-1 0.1,-1.3 -0.4,-1.5 -0.3,-0.4 -1.1,-1.1 -1.1,-0.5 -1.2,0.2 -0.4,0.2 -0.7,1 -0.1,1.2 0.5,1.5"
         stroke="#000000"
         stroke-width="1"
         id="path13" />
      <path
         d="m 147.4,638.9 0.2,-0.4 0.9,-0.7 0.6,-0.2 0.9,-0.1 1.2,0.8 0.4,0.8 0.1,0.7 -0.2,1 -0.5,0.9 -0.9,0.6 -1.4,0.9 -5.8,2.4 4.6,2.7"
         stroke="#000000"
         stroke-width="1"
         id="path14" />
      <path
         d="m 363.6,410.2 0.7,-1 -0.3,-1 -0.5,-0.9 -0.9,-0.6 h -0.9 l -1.5,0.4 -1.2,0.3 -1.2,-0.5 -0.9,-0.6 -0.8,-1.2 -0.3,-1.1 0.1,-0.6 0.6,-1 1.3,-0.9 1.2,-0.2 0.6,0.2 0.8,0.6 0.9,1.3 0.2,1 v 1.3 l -0.7,1 -1,1.3 -0.3,0.8 0.2,1 0.6,0.9 0.9,0.6 1.2,-0.2 1.4,-1"
         stroke="#000000"
         stroke-width="1"
         id="path15" />
      <path
         d="m 450.3,459 0.5,1.1 1.5,0.6 2.6,0.3 1.5,-0.1 2.4,-0.5 1.5,-0.8 0.4,-1.2 v -0.7 l -0.6,-1.1 -1.5,-0.7 -2.5,-0.2 h -1.5 l -2.5,0.5 -1.4,0.9 -0.5,1.1 v 0.6"
         stroke="#000000"
         stroke-width="1"
         id="path16" />
      <path
         d="m 54.8,460.6 -10.3,-4.3 m 10.5,-1 -0.2,5.3"
         stroke="#000000"
         stroke-width="1"
         id="path17" />
      <path
         d="m 143.3,411.7 1.2,0.2 0.9,-0.6 0.6,-0.9 0.2,-1 -0.3,-0.8 -1,-1.3 -0.7,-1 V 405 l 0.2,-1 0.8,-1.3 0.9,-0.6 0.6,-0.2 1.2,0.2 1.3,0.9 0.6,1 0.1,0.6 -0.3,1.1 -0.8,1.2 -0.9,0.6 -1.2,0.4 -1.2,-0.2 -1.5,-0.4 h -0.9 l -0.9,0.6 -0.5,0.9 -0.3,1 0.7,1 1.4,1"
         stroke="#000000"
         stroke-width="1"
         id="path18" />
    </g>
    <path
       d="m 250.68422,193.90883 1.1,-0.7 1.7,-2.3 v 15.8"
       id="titre_1"
       stroke="#4b0082" />
    <path
       d="m 224.29558,582.53829 v -0.7 l 0.6,-1.5 0.5,-0.8 1.1,-0.7 h 2.3 l 1.1,0.7 0.6,0.8 0.5,1.5 v 1.5 l -0.5,1.5 -1.1,2.2 -5.7,7.5 h 7.9"
       id="titre_2"
       stroke="#4b0082" />
  </g>
</svg>
