<?xml version="1.0" encoding="UTF-8" standalone="no"?>
<svg
   height="297mm"
   viewBox="0 0 533 754"
   width="210mm"
   version="1.1"
   id="svg1"
   sodipodi:docname="chaton196_H20_A4x2.svg"
   inkscape:version="1.3 (1:1.3+202307231459+0e150ed6c4)"
   xmlns:inkscape="http://www.inkscape.org/namespaces/inkscape"
   xmlns:sodipodi="http://sodipodi.sourceforge.net/DTD/sodipodi-0.dtd"
   xmlns="http://www.w3.org/2000/svg"
   xmlns:svg="http://www.w3.org/2000/svg">
  <defs
     id="defs1" />
  <sodipodi:namedview
     id="namedview1"
     pagecolor="#ffffff"
     bordercolor="#000000"
     borderopacity="0.25"
     inkscape:showpageshadow="2"
     inkscape:pageopacity="0.0"
     inkscape:pagecheckerboard="0"
     inkscape:deskcolor="#d1d1d1"
     inkscape:document-units="mm"
     showgrid="false"
     inkscape:zoom="0.71385258"
     inkscape:cx="869.92752"
     inkscape:cy="556.83766"
     inkscape:window-width="1920"
     inkscape:window-height="1007"
     inkscape:window-x="0"
     inkscape:window-y="0"
     inkscape:window-maximized="1"
     inkscape:current-layer="svg1" />
  <style
     type="text/css"
     id="style1"><![CDATA[
			path {
				fill: none;
			}
		]]></style>
  <g
     id="page_001">
    <path
       d="M 300.1 501.4 L 299.9 501.1 L 299.8 500.5 L 299.9 500.1 L 300.2 499.5 L 301.2 498.8 L 301.9 498.7 L 302.3 498.8 L 302.9 499.1 L 303.2 499.6 L 303.3 500.3 L 303.3 501.4 L 302.5 505.5 L 306.0 503.2 M 304.7 498.3 L 304.5 498.0 L 304.4 497.4 L 304.5 497.0 L 304.8 496.4 L 305.8 495.7 L 306.5 495.6 L 306.9 495.7 L 307.5 496.0 L 307.8 496.5 L 307.9 497.2 L 307.9 498.3 L 307.1 502.4 L 310.6 500.1 M 297.3 437.5 L 297.3 437.8 L 297.0 438.4 L 296.7 438.7 L 296.2 439.0 L 295.0 439.1 L 294.3 438.8 L 294.0 438.5 L 293.7 437.9 L 293.7 437.3 L 293.9 436.7 L 294.5 435.8 L 297.4 432.7 L 293.2 432.8 M 292.3 437.8 L 291.7 438.1 L 290.9 439.0 L 290.6 432.7 M 247.1 481.0 L 247.3 480.8 L 248.0 480.5 L 248.4 480.5 L 249.0 480.6 L 250.0 481.4 L 250.2 482.0 L 250.3 482.4 L 250.1 483.1 L 249.7 483.5 L 249.1 483.8 L 248.1 484.1 L 243.9 484.5 L 247.1 487.2 M 253.7 487.1 L 252.9 487.7 L 252.0 487.7 L 251.2 487.4 L 250.9 487.2 L 250.4 486.4 L 250.3 485.6 L 250.7 484.7 L 250.9 484.4 L 251.7 483.9 L 252.5 483.9 L 253.4 484.2 L 253.6 484.4 L 254.1 485.2 L 254.2 486.0 L 253.7 487.1 L 252.7 488.3 L 251.6 489.3 L 250.5 489.6 L 249.6 489.3 L 249.2 488.9 L 248.7 488.1 L 248.8 487.4 M 231.9 431.3 L 229.3 429.2 L 232.2 428.5 L 231.6 427.9 L 231.3 427.3 L 231.2 426.9 L 231.6 426.0 L 232.0 425.6 L 232.8 425.1 L 233.6 425.0 L 234.5 425.3 L 235.2 425.9 L 235.7 426.7 L 235.7 427.1 L 235.6 427.8 M 226.8 427.2 L 227.7 427.5 L 228.7 427.2 L 229.9 426.2 L 230.5 425.5 L 231.2 424.2 L 231.3 423.1 L 230.8 422.3 L 230.4 421.9 L 229.5 421.6 L 228.4 421.9 L 227.3 422.9 L 226.7 423.5 L 226.0 424.9 L 225.9 426.0 L 226.4 426.8 L 226.7 427.1 M 177.3 445.1 L 173.4 450.8 M 173.2 444.4 L 177.3 445.1 M 114.6 407.2 L 112.9 410.1 L 111.8 407.3 L 111.3 408.1 L 110.7 408.4 L 110.3 408.5 L 109.4 408.3 L 108.9 408.0 L 108.3 407.3 L 108.1 406.4 L 108.3 405.5 L 108.8 404.7 L 109.5 404.1 L 109.9 404.0 L 110.6 404.1 M 111.8 411.8 L 110.1 414.6 L 109.0 411.8 L 108.5 412.6 L 108.0 413.0 L 107.5 413.1 L 106.6 412.8 L 106.1 412.5 L 105.5 411.8 L 105.3 411.0 L 105.5 410.1 L 106.0 409.3 L 106.7 408.7 L 107.1 408.6 L 107.8 408.6 M 75.4 492.8 L 78.4 494.2 L 75.7 495.6 L 76.6 496.0 L 77.0 496.5 L 77.1 496.9 L 77.0 497.9 L 76.7 498.4 L 76.1 499.1 L 75.3 499.4 L 74.3 499.2 L 73.5 498.9 L 72.8 498.2 L 72.7 497.8 L 72.7 497.1 M 80.4 465.1 L 78.2 460.4 L 76.0 464.3 M 80.4 465.1 L 74.9 461.9 M 131.9 366.9 L 128.6 366.5 L 130.7 364.3 L 129.8 364.2 L 129.2 363.8 L 129.0 363.5 L 128.8 362.6 L 128.9 362.0 L 129.3 361.1 L 129.9 360.6 L 130.9 360.4 L 131.7 360.5 L 132.6 360.9 L 132.9 361.2 L 133.1 361.9 M 123.7 365.0 L 123.9 365.6 L 124.8 366.0 L 125.4 366.1 L 126.3 365.9 L 127.0 365.1 L 127.5 363.6 L 127.7 362.1 L 127.5 360.9 L 127.0 360.2 L 126.1 359.8 L 125.8 359.8 L 124.9 360.0 L 124.2 360.5 L 123.8 361.4 L 123.8 361.7 L 124.0 362.6 L 124.5 363.3 L 125.4 363.7 L 125.7 363.7 L 126.6 363.5 L 127.3 363.0 L 127.7 362.1 M 84.5 399.4 L 87.2 397.4 L 87.1 400.4 L 87.9 399.9 L 88.5 399.8 L 89.0 399.8 L 89.7 400.4 L 90.1 400.9 L 90.4 401.8 L 90.2 402.6 L 89.7 403.4 L 89.0 403.9 L 88.0 404.2 L 87.6 404.1 L 87.0 403.8 M 90.9 394.7 L 90.9 399.8 L 94.5 397.2 M 90.9 394.7 L 94.6 399.8 M 70.6 364.4 L 69.7 364.2 L 69.1 363.6 L 68.7 362.8 L 68.7 362.5 L 69.0 361.5 L 69.5 360.9 L 70.4 360.6 L 70.7 360.5 L 71.6 360.8 L 72.3 361.3 L 72.6 362.2 L 72.6 362.5 L 72.4 363.4 L 71.8 364.1 L 70.6 364.4 L 69.1 364.5 L 67.6 364.3 L 66.7 363.8 L 66.3 362.9 L 66.3 362.3 L 66.6 361.4 L 67.1 361.0 M 56.6 269.2 L 57.0 269.7 L 58.2 270.3 L 52.2 272.2 M 57.4 271.7 L 57.8 272.2 L 59.0 272.7 L 53.0 274.7 M 70.9 242.6 L 69.8 239.5 L 72.7 240.4 L 72.4 239.5 L 72.4 238.8 L 72.6 238.5 L 73.4 237.9 L 73.9 237.7 L 74.9 237.6 L 75.6 238.0 L 76.2 238.7 L 76.5 239.6 L 76.6 240.5 L 76.4 240.9 L 75.9 241.4 M 68.8 236.7 L 69.4 237.4 L 70.1 237.5 L 70.6 237.3 L 71.1 236.8 L 71.2 236.2 L 71.0 234.9 L 71.0 234.0 L 71.4 233.2 L 71.8 232.7 L 72.7 232.4 L 73.3 232.5 L 73.7 232.7 L 74.3 233.4 L 74.7 234.6 L 74.7 235.5 L 74.6 235.9 L 74.1 236.4 L 73.3 236.7 L 72.6 236.6 L 71.8 236.2 L 71.2 235.5 L 70.5 234.5 L 70.1 234.0 L 69.4 233.9 L 68.8 234.1 L 68.4 234.6 L 68.4 235.6 L 68.8 236.8 M 213.8 337.3 L 213.1 337.2 L 211.9 337.6 L 215.0 332.1 M 207.7 335.4 L 210.3 336.9 L 211.9 334.7 L 211.5 334.8 L 210.6 334.6 L 209.8 334.2 L 209.2 333.5 L 208.9 332.7 L 209.1 331.7 L 209.4 331.2 L 210.1 330.6 L 210.9 330.4 L 211.9 330.5 L 212.6 331.0 L 213.3 331.7 L 213.4 332.1 L 213.4 332.8 M 181.4 337.7 L 181.6 337.8 L 182.0 338.4 L 182.1 338.8 L 182.0 339.5 L 181.3 340.5 L 180.8 340.8 L 180.3 340.9 L 179.7 340.9 L 179.2 340.5 L 178.8 340.0 L 178.4 339.0 L 177.5 334.8 L 175.2 338.4 M 177.7 346.1 L 174.0 340.2 M 180.0 342.6 L 177.7 346.1 M 271.5 355.4 L 274.8 351.4 L 270.4 351.0 M 271.5 355.4 L 272.0 349.1 M 267.1 354.9 L 268.0 354.7 L 268.7 353.8 L 269.1 352.4 L 269.2 351.5 L 269.0 350.0 L 268.5 349.0 L 267.6 348.6 L 267.0 348.6 L 266.1 348.8 L 265.4 349.6 L 265.0 351.1 L 264.9 352.0 L 265.1 353.5 L 265.6 354.5 L 266.5 354.8 L 266.9 354.9 M 235.3 411.9 L 238.0 413.8 L 235.1 414.7 L 235.8 415.2 L 236.2 415.8 L 236.2 416.2 L 235.9 417.1 L 235.6 417.6 L 234.8 418.2 L 234.0 418.3 L 233.1 418.0 L 232.3 417.5 L 231.8 416.7 L 231.7 416.3 L 231.8 415.6 M 240.6 415.7 L 239.7 415.4 L 238.7 415.8 L 237.6 416.8 L 237.0 417.6 L 236.4 419.0 L 236.3 420.0 L 236.9 420.8 L 237.4 421.2 L 238.3 421.4 L 239.3 421.1 L 240.4 420.0 L 241.0 419.3 L 241.6 417.9 L 241.6 416.8 L 241.1 416.1 L 240.7 415.8 M 282.2 408.7 L 282.1 408.4 L 282.1 407.8 L 282.3 407.4 L 282.7 406.8 L 283.8 406.4 L 284.5 406.4 L 284.9 406.5 L 285.4 407.0 L 285.6 407.5 L 285.6 408.2 L 285.4 409.2 L 283.9 413.2 L 287.7 411.5 M 286.7 406.6 L 287.1 406.1 L 287.6 404.9 L 290.2 410.6 M 310.0 378.8 L 315.1 378.9 L 312.6 375.2 M 310.0 378.8 L 315.1 375.2 M 306.2 373.2 L 313.1 372.1 M 308.6 376.7 L 306.2 373.2 M 35.6 206.9 L 36.8 210.0 L 33.9 209.2 L 34.2 210.0 L 34.2 210.7 L 34.0 211.1 L 33.3 211.7 L 32.7 211.9 L 31.8 212.0 L 31.0 211.6 L 30.4 210.9 L 30.1 210.1 L 30.0 209.1 L 30.2 208.7 L 30.6 208.2 M 36.8 215.8 L 35.9 215.8 L 35.1 215.5 L 34.5 214.7 L 34.4 214.5 L 34.3 213.5 L 34.6 212.7 L 35.4 212.1 L 35.6 212.0 L 36.6 212.0 L 37.4 212.3 L 38.0 213.0 L 38.1 213.3 L 38.1 214.3 L 37.8 215.0 L 36.8 215.8 L 35.4 216.3 L 33.9 216.6 L 32.8 216.3 L 32.2 215.6 L 32.0 215.1 L 32.0 214.1 L 32.4 213.6 M 35.4 159.5 L 32.3 155.4 L 31.0 159.7 M 35.4 159.5 L 29.4 157.6 M 31.4 165.1 L 30.6 164.5 L 30.2 163.8 L 30.2 162.8 L 30.3 162.6 L 30.9 161.8 L 31.6 161.4 L 32.6 161.4 L 32.8 161.5 L 33.6 162.0 L 34.0 162.8 L 34.0 163.7 L 33.9 164.0 L 33.4 164.8 L 32.6 165.2 L 31.4 165.1 L 30.0 164.7 L 28.6 163.9 L 27.9 163.1 L 27.9 162.1 L 28.1 161.6 L 28.7 160.8 L 29.3 160.7 M 320.8 540.8 L 321.1 540.9 L 321.6 541.4 L 321.7 541.8 L 321.8 542.4 L 321.4 543.6 L 321.0 544.0 L 320.6 544.2 L 319.9 544.3 L 319.4 544.1 L 318.9 543.6 L 318.2 542.8 L 316.4 539.0 L 315.0 542.9 M 319.4 549.5 L 320.4 546.6 L 317.9 545.5 L 318.1 545.8 L 318.1 546.8 L 317.8 547.6 L 317.3 548.4 L 316.5 548.8 L 315.6 548.8 L 315.0 548.6 L 314.2 548.0 L 313.9 547.2 L 313.9 546.3 L 314.2 545.4 L 314.7 544.7 L 315.1 544.5 L 315.8 544.4 M 321.1 674.9 L 320.8 674.9 L 320.2 674.7 L 319.9 674.4 L 319.5 673.9 L 319.3 672.7 L 319.6 672.1 L 319.8 671.7 L 320.4 671.4 L 321.0 671.3 L 321.6 671.5 L 322.6 672.0 L 325.9 674.7 L 325.4 670.5 M 318.8 668.3 L 319.2 669.1 L 320.2 669.6 L 321.7 669.7 L 322.6 669.6 L 324.1 669.2 L 324.9 668.5 L 325.1 667.5 L 325.0 667.0 L 324.6 666.1 L 323.7 665.6 L 322.1 665.5 L 321.3 665.6 L 319.8 666.0 L 319.0 666.7 L 318.8 667.7 L 318.8 668.1 M 304.6 687.0 L 304.7 686.7 L 305.3 686.4 L 305.7 686.4 L 306.4 686.5 L 307.4 687.2 L 307.7 687.8 L 307.8 688.2 L 307.7 688.8 L 307.3 689.3 L 306.7 689.6 L 305.7 690.0 L 301.5 690.7 L 304.9 693.2 M 310.8 689.6 L 309.8 689.3 L 309.3 689.6 L 308.9 690.1 L 308.8 690.8 L 309.1 691.4 L 309.9 692.3 L 310.5 693.1 L 310.6 693.9 L 310.5 694.6 L 310.0 695.3 L 309.4 695.6 L 309.0 695.7 L 308.0 695.4 L 307.1 694.7 L 306.5 693.9 L 306.5 693.5 L 306.6 692.9 L 307.1 692.1 L 307.7 691.8 L 308.5 691.7 L 309.4 692.0 L 310.6 692.4 L 311.2 692.5 L 311.8 692.2 L 312.2 691.7 L 312.3 691.1 L 311.7 690.3 L 310.6 689.5 M 283.6 595.7 L 283.3 595.9 L 282.7 596.0 L 282.2 596.0 L 281.6 595.7 L 280.9 594.8 L 280.7 594.1 L 280.8 593.7 L 281.1 593.1 L 281.5 592.7 L 282.2 592.6 L 283.3 592.5 L 287.5 593.0 L 284.9 589.7 M 277.2 590.3 L 282.4 590.0 L 279.6 586.5 M 277.2 590.3 L 282.1 586.4 M 160.8 469.3 L 160.8 469.9 L 161.4 470.6 L 161.9 471.0 L 162.8 471.2 L 163.8 470.7 L 164.8 469.6 L 165.6 468.4 L 166.0 467.2 L 165.8 466.4 L 165.2 465.6 L 165.0 465.5 L 164.0 465.2 L 163.2 465.4 L 162.5 466.0 L 162.3 466.3 L 162.1 467.2 L 162.3 468.0 L 162.9 468.8 L 163.2 468.9 L 164.1 469.2 L 164.9 469.0 L 165.6 468.4 M 157.9 468.4 L 158.8 468.7 L 159.4 468.3 L 159.7 467.8 L 159.7 467.1 L 159.4 466.6 L 158.5 465.7 L 157.9 465.0 L 157.7 464.1 L 157.8 463.5 L 158.3 462.7 L 158.8 462.3 L 159.3 462.2 L 160.2 462.5 L 161.2 463.1 L 161.8 463.8 L 161.9 464.3 L 161.8 464.9 L 161.4 465.7 L 160.8 466.0 L 160.0 466.2 L 159.0 466.0 L 157.9 465.6 L 157.2 465.6 L 156.6 465.9 L 156.3 466.4 L 156.2 467.1 L 156.8 467.8 L 158.0 468.5 M 196.1 496.3 L 195.9 497.0 L 196.3 497.8 L 196.7 498.2 L 197.6 498.7 L 198.6 498.4 L 199.9 497.6 L 201.0 496.5 L 201.6 495.5 L 201.6 494.6 L 201.2 493.8 L 201.0 493.6 L 200.1 493.1 L 199.3 493.1 L 198.4 493.6 L 198.2 493.8 L 197.8 494.6 L 197.8 495.5 L 198.2 496.3 L 198.4 496.5 L 199.3 497.0 L 200.1 497.0 L 201.0 496.5 M 193.2 494.7 L 194.0 495.1 L 195.1 494.9 L 196.3 494.0 L 197.0 493.4 L 197.8 492.1 L 198.0 491.1 L 197.6 490.2 L 197.2 489.8 L 196.3 489.4 L 195.3 489.6 L 194.0 490.4 L 193.4 491.1 L 192.5 492.3 L 192.3 493.4 L 192.7 494.2 L 193.0 494.6 M 173.6 531.7 L 171.7 529.4 L 169.5 530.9 L 169.9 530.9 L 170.7 531.4 L 171.3 532.1 L 171.6 533.0 L 171.5 533.8 L 171.0 534.6 L 170.6 535.0 L 169.7 535.4 L 168.8 535.3 L 168.0 534.8 L 167.5 534.1 L 167.1 533.2 L 167.2 532.8 L 167.4 532.2 M 177.3 536.2 L 170.6 537.9 M 174.7 532.9 L 177.3 536.2 M 236.3 510.6 L 239.3 510.5 L 239.5 507.8 L 239.2 508.1 L 238.4 508.4 L 237.5 508.5 L 236.5 508.2 L 235.9 507.6 L 235.6 506.7 L 235.6 506.1 L 235.8 505.2 L 236.4 504.6 L 237.3 504.3 L 238.2 504.2 L 239.1 504.5 L 239.4 504.8 L 239.7 505.4 M 233.1 510.7 L 234.0 510.4 L 234.2 509.8 L 234.2 509.2 L 233.9 508.6 L 233.3 508.3 L 232.1 508.0 L 231.2 507.8 L 230.6 507.2 L 230.2 506.6 L 230.2 505.7 L 230.5 505.1 L 230.8 504.8 L 231.7 504.4 L 232.9 504.4 L 233.8 504.7 L 234.1 505.0 L 234.4 505.6 L 234.4 506.5 L 234.2 507.1 L 233.6 507.7 L 232.7 508.0 L 231.5 508.4 L 230.9 508.7 L 230.6 509.3 L 230.7 509.9 L 231.0 510.5 L 231.9 510.7 L 233.2 510.7 M 157.2 546.5 L 158.6 549.2 L 161.1 548.2 L 160.7 548.0 L 160.0 547.4 L 159.6 546.6 L 159.5 545.6 L 159.7 544.8 L 160.4 544.1 L 160.9 543.9 L 161.8 543.7 L 162.6 544.0 L 163.3 544.6 L 163.7 545.4 L 163.9 546.3 L 163.8 546.8 L 163.4 547.3 M 154.5 541.4 L 161.5 541.1 M 156.4 545.1 L 154.5 541.4 M 145.7 556.5 L 145.4 555.9 L 144.5 555.6 L 143.9 555.6 L 143.0 555.8 L 142.4 556.7 L 142.0 558.2 L 142.0 559.7 L 142.2 560.9 L 142.8 561.5 L 143.7 561.9 L 144.0 561.9 L 144.9 561.6 L 145.5 561.0 L 145.9 560.1 L 145.9 559.8 L 145.6 558.9 L 145.0 558.3 L 144.1 558.0 L 143.8 558.0 L 142.9 558.2 L 142.3 558.8 L 142.0 559.7 M 147.0 557.1 L 147.6 556.8 L 148.6 555.9 L 148.3 562.2 M 111.8 534.3 L 112.2 533.8 L 112.1 532.9 L 111.8 532.3 L 111.2 531.7 L 110.1 531.5 L 108.6 531.9 L 107.3 532.5 L 106.3 533.3 L 106.0 534.1 L 106.1 535.0 L 106.3 535.3 L 106.9 536.0 L 107.7 536.3 L 108.7 536.2 L 108.9 536.0 L 109.6 535.4 L 109.9 534.6 L 109.8 533.6 L 109.7 533.4 L 109.0 532.7 L 108.2 532.4 L 107.3 532.5 M 207.7 555.3 L 207.5 554.6 L 206.7 554.2 L 206.1 554.1 L 205.1 554.2 L 204.4 555.0 L 203.8 556.5 L 203.6 557.9 L 203.7 559.2 L 204.2 559.9 L 205.0 560.3 L 205.3 560.4 L 206.2 560.2 L 206.9 559.7 L 207.4 558.9 L 207.4 558.6 L 207.3 557.6 L 206.8 557.0 L 206.0 556.5 L 205.7 556.5 L 204.7 556.6 L 204.0 557.1 L 203.6 557.9 M 209.5 556.2 L 209.6 555.9 L 210.0 555.4 L 210.3 555.1 L 211.0 554.9 L 212.1 555.1 L 212.7 555.5 L 212.9 555.9 L 213.1 556.5 L 213.0 557.1 L 212.6 557.7 L 211.9 558.4 L 208.4 560.9 L 212.6 561.6 M 268.4 531.3 L 268.1 531.9 L 268.4 532.8 L 268.8 533.3 L 269.6 533.9 L 270.6 533.8 L 272.0 533.1 L 273.2 532.2 L 274.0 531.3 L 274.1 530.5 L 273.8 529.6 L 273.7 529.3 L 272.9 528.8 L 272.0 528.6 L 271.1 528.9 L 270.9 529.1 L 270.4 529.9 L 270.2 530.7 L 270.5 531.6 L 270.7 531.9 L 271.5 532.4 L 272.3 532.5 L 273.2 532.2 M 264.7 527.8 L 266.5 530.2 L 268.8 528.9 L 268.4 528.8 L 267.6 528.3 L 267.1 527.5 L 266.8 526.6 L 266.9 525.8 L 267.5 525.0 L 268.0 524.7 L 268.9 524.4 L 269.7 524.5 L 270.5 525.0 L 271.0 525.8 L 271.3 526.7 L 271.3 527.1 L 271.0 527.7 M 257.8 551.5 L 257.3 551.0 L 256.4 551.0 L 255.8 551.1 L 255.0 551.7 L 254.7 552.7 L 254.8 554.2 L 255.2 555.7 L 255.8 556.7 L 256.5 557.2 L 257.5 557.2 L 257.7 557.1 L 258.5 556.6 L 259.0 555.9 L 259.0 554.9 L 258.9 554.6 L 258.4 553.8 L 257.7 553.4 L 256.7 553.4 L 256.4 553.5 L 255.6 554.0 L 255.2 554.7 L 255.2 555.7 M 262.6 550.2 L 262.2 549.7 L 261.2 549.6 L 260.7 549.8 L 259.9 550.3 L 259.5 551.4 L 259.6 552.9 L 260.0 554.3 L 260.6 555.4 L 261.4 555.8 L 262.3 555.9 L 262.6 555.8 L 263.4 555.3 L 263.8 554.5 L 263.9 553.6 L 263.8 553.3 L 263.3 552.5 L 262.5 552.1 L 261.6 552.0 L 261.3 552.1 L 260.5 552.6 L 260.1 553.4 L 260.0 554.3 M 342.2 611.8 L 342.1 612.8 L 341.7 613.5 L 340.9 614.0 L 340.6 614.1 L 339.6 614.0 L 338.9 613.6 L 338.4 612.8 L 338.3 612.5 L 338.4 611.5 L 338.9 610.8 L 339.7 610.3 L 339.9 610.2 L 340.9 610.3 L 341.6 610.7 L 342.2 611.8 L 342.5 613.3 L 342.6 614.8 L 342.2 615.8 L 341.4 616.3 L 340.9 616.5 L 339.9 616.4 L 339.5 615.9 M 346.7 608.6 L 345.3 615.4 M 342.7 609.5 L 346.7 608.6 M 422.6 523.2 L 423.3 523.8 L 424.0 523.7 L 424.5 523.4 L 424.8 522.8 L 424.7 522.1 L 424.3 521.0 L 424.1 520.0 L 424.2 519.2 L 424.5 518.6 L 425.3 518.1 L 425.9 518.0 L 426.4 518.1 L 427.1 518.7 L 427.8 519.7 L 428.1 520.6 L 428.0 521.0 L 427.6 521.6 L 426.9 522.1 L 426.2 522.2 L 425.4 522.0 L 424.7 521.5 L 423.7 520.6 L 423.1 520.3 L 422.5 520.4 L 422.0 520.7 L 421.7 521.3 L 421.9 522.2 L 422.7 523.3 M 421.4 518.8 L 421.1 518.9 L 420.5 519.0 L 420.0 519.0 L 419.5 518.6 L 418.8 517.6 L 418.7 517.0 L 418.8 516.6 L 419.1 516.0 L 419.6 515.6 L 420.3 515.5 L 421.3 515.5 L 425.5 516.3 L 423.1 512.8 M 380.3 616.5 L 379.6 615.9 L 378.9 616.0 L 378.4 616.3 L 378.1 616.9 L 378.1 617.6 L 378.6 618.7 L 378.8 619.6 L 378.6 620.5 L 378.3 621.1 L 377.6 621.6 L 376.9 621.6 L 376.5 621.6 L 375.7 621.0 L 375.1 620.0 L 374.8 619.1 L 374.9 618.6 L 375.2 618.1 L 376.0 617.6 L 376.6 617.5 L 377.5 617.7 L 378.2 618.2 L 379.1 619.1 L 379.7 619.4 L 380.4 619.3 L 380.9 619.0 L 381.2 618.4 L 381.0 617.5 L 380.2 616.4 M 382.8 620.2 L 384.6 622.9 L 381.6 622.8 L 382.1 623.5 L 382.2 624.2 L 382.1 624.6 L 381.5 625.3 L 381.0 625.7 L 380.1 625.9 L 379.3 625.8 L 378.5 625.2 L 378.0 624.4 L 377.8 623.5 L 377.9 623.1 L 378.2 622.5 M 479.3 555.5 L 479.1 555.4 L 478.6 554.8 L 478.5 554.4 L 478.5 553.8 L 479.0 552.7 L 479.5 552.3 L 479.9 552.1 L 480.6 552.1 L 481.1 552.4 L 481.6 552.9 L 482.1 553.8 L 483.6 557.8 L 485.3 554.0 M 481.7 550.5 L 481.4 550.3 L 481.0 549.8 L 480.9 549.4 L 480.9 548.7 L 481.4 547.7 L 481.9 547.2 L 482.3 547.1 L 483.0 547.1 L 483.5 547.3 L 483.9 547.9 L 484.5 548.8 L 485.9 552.8 L 487.7 549.0 M 472.0 534.3 L 472.0 534.6 L 471.7 535.2 L 471.4 535.5 L 470.8 535.8 L 469.6 535.7 L 469.0 535.4 L 468.7 535.1 L 468.4 534.5 L 468.5 533.9 L 468.8 533.3 L 469.4 532.4 L 472.5 529.5 L 468.3 529.4 M 466.4 535.7 L 463.1 535.6 L 464.9 533.2 L 464.0 533.2 L 463.4 532.9 L 463.1 532.6 L 462.9 531.7 L 462.9 531.1 L 463.2 530.2 L 463.8 529.6 L 464.7 529.3 L 465.6 529.4 L 466.5 529.7 L 466.8 530.0 L 467.1 530.6 M 426.1 619.3 L 425.9 619.1 L 425.7 618.5 L 425.7 618.0 L 425.9 617.4 L 426.7 616.6 L 427.4 616.3 L 427.8 616.3 L 428.4 616.6 L 428.9 617.0 L 429.1 617.6 L 429.3 618.7 L 429.3 622.9 L 432.3 620.0 M 431.2 612.2 L 429.0 614.3 L 430.7 616.4 L 430.7 616.0 L 431.2 615.1 L 431.8 614.5 L 432.6 614.1 L 433.5 614.1 L 434.3 614.5 L 434.8 614.9 L 435.2 615.8 L 435.2 616.6 L 434.8 617.5 L 434.1 618.1 L 433.3 618.5 L 432.8 618.5 L 432.2 618.3 M 392.9 641.8 L 393.2 641.7 L 393.9 641.8 L 394.3 642.0 L 394.8 642.4 L 395.2 643.5 L 395.1 644.2 L 394.9 644.6 L 394.5 645.1 L 393.9 645.3 L 393.3 645.2 L 392.2 645.0 L 388.3 643.3 L 389.8 647.2 M 397.3 648.9 L 392.3 647.6 L 393.9 651.8 M 397.3 648.9 L 391.4 651.2 M 429.5 471.7 L 429.3 472.6 L 429.7 473.2 L 430.2 473.5 L 430.8 473.5 L 431.4 473.2 L 432.3 472.3 L 433.0 471.7 L 433.8 471.5 L 434.5 471.5 L 435.3 472.0 L 435.6 472.6 L 435.7 473.0 L 435.5 473.9 L 434.9 474.9 L 434.2 475.6 L 433.8 475.7 L 433.1 475.6 L 432.3 475.1 L 432.0 474.6 L 431.8 473.7 L 432.0 472.8 L 432.3 471.6 L 432.4 471.0 L 432.0 470.4 L 431.5 470.1 L 430.8 470.0 L 430.1 470.7 L 429.4 471.8 M 433.1 465.7 L 435.1 470.4 L 437.4 466.5 M 433.1 465.7 L 438.5 468.9 M 409.9 452.4 L 410.0 451.5 L 409.3 450.6 L 408.1 449.8 L 407.2 449.5 L 405.7 449.2 L 404.7 449.4 L 404.0 450.2 L 403.8 450.7 L 403.8 451.7 L 404.4 452.5 L 405.7 453.4 L 406.5 453.7 L 408.0 454.0 L 409.1 453.7 L 409.7 453.0 L 409.9 452.6 M 429.7 389.0 L 430.0 389.1 L 430.5 389.5 L 430.7 389.9 L 430.9 390.6 L 430.6 391.7 L 430.1 392.2 L 429.8 392.4 L 429.1 392.6 L 428.5 392.4 L 428.0 392.0 L 427.3 391.2 L 425.1 387.6 L 424.1 391.6 M 454.7 417.5 L 454.6 416.9 L 453.8 415.8 L 460.0 416.9 M 457.3 376.1 L 461.5 379.0 L 461.5 374.5 M 457.3 376.1 L 463.6 376.0 M 458.7 373.5 L 458.4 372.9 L 457.5 372.0 L 463.8 371.9 M 440.7 342.0 L 437.0 338.4 L 436.3 342.9 M 440.7 342.0 L 434.5 341.0 M 440.1 345.2 L 439.6 348.5 L 437.5 346.3 L 437.4 347.2 L 437.0 347.8 L 436.6 348.0 L 435.7 348.2 L 435.1 348.1 L 434.3 347.6 L 433.8 346.9 L 433.6 346.0 L 433.7 345.1 L 434.2 344.3 L 434.5 344.0 L 435.2 343.8 M 273.0 652.7 L 272.1 652.8 L 271.3 652.5 L 270.6 651.9 L 270.5 651.6 L 270.4 650.6 L 270.7 649.8 L 271.4 649.2 L 271.6 649.1 L 272.6 649.0 L 273.4 649.2 L 274.0 649.9 L 274.1 650.2 L 274.2 651.2 L 274.0 652.0 L 273.0 652.7 L 271.6 653.4 L 270.1 653.7 L 269.1 653.6 L 268.4 652.9 L 268.2 652.3 L 268.1 651.4 L 268.5 650.9 M 276.0 654.2 L 275.4 653.6 L 274.7 653.5 L 274.1 653.8 L 273.7 654.3 L 273.7 655.0 L 273.9 656.2 L 274.1 657.1 L 273.8 657.9 L 273.3 658.5 L 272.5 658.8 L 271.9 658.8 L 271.5 658.7 L 270.8 658.0 L 270.3 656.9 L 270.2 656.0 L 270.3 655.6 L 270.8 655.0 L 271.6 654.7 L 272.2 654.7 L 273.0 655.0 L 273.7 655.7 L 274.5 656.6 L 275.0 657.0 L 275.7 657.1 L 276.2 656.8 L 276.6 656.3 L 276.5 655.3 L 276.0 654.1 M 266.8 585.8 L 267.7 585.4 L 267.9 584.8 L 267.9 584.2 L 267.6 583.6 L 267.0 583.3 L 265.8 583.1 L 264.8 582.9 L 264.2 582.3 L 263.9 581.7 L 263.8 580.8 L 264.1 580.2 L 264.4 579.9 L 265.3 579.5 L 266.5 579.5 L 267.4 579.7 L 267.7 580.0 L 268.0 580.6 L 268.1 581.5 L 267.8 582.1 L 267.2 582.7 L 266.4 583.1 L 265.2 583.4 L 264.6 583.8 L 264.3 584.4 L 264.3 585.0 L 264.7 585.6 L 265.6 585.8 L 266.9 585.8 M 262.4 586.0 L 259.1 586.1 L 260.7 583.6 L 259.8 583.7 L 259.2 583.4 L 258.9 583.1 L 258.6 582.2 L 258.5 581.6 L 258.8 580.7 L 259.4 580.1 L 260.3 579.8 L 261.2 579.7 L 262.1 580.0 L 262.4 580.3 L 262.7 580.8 M 245.5 601.4 L 244.7 600.8 L 244.4 600.0 L 244.5 599.0 L 244.6 598.8 L 245.2 598.0 L 246.0 597.7 L 246.9 597.8 L 247.2 597.9 L 247.9 598.5 L 248.2 599.3 L 248.2 600.2 L 248.1 600.5 L 247.5 601.2 L 246.7 601.5 L 245.5 601.4 L 244.1 600.8 L 242.8 600.0 L 242.2 599.1 L 242.2 598.1 L 242.5 597.6 L 243.1 596.9 L 243.7 596.8 M 245.4 607.0 L 240.7 601.8 M 247.0 603.1 L 245.4 607.0 M 222.9 663.1 L 223.2 663.2 L 223.6 663.7 L 223.8 664.1 L 223.9 664.8 L 223.5 665.9 L 223.0 666.4 L 222.6 666.6 L 221.9 666.6 L 221.4 666.4 L 220.9 665.9 L 220.3 665.1 L 218.5 661.2 L 217.0 665.2 M 222.0 670.1 L 222.0 669.1 L 221.3 668.3 L 220.0 667.5 L 219.2 667.2 L 217.7 667.0 L 216.6 667.2 L 216.0 668.0 L 215.8 668.5 L 215.8 669.5 L 216.5 670.3 L 217.8 671.1 L 218.6 671.4 L 220.1 671.7 L 221.2 671.4 L 221.8 670.7 L 221.9 670.2 M 254.0 659.7 L 254.9 660.0 L 255.5 660.5 L 255.9 661.4 L 255.9 661.7 L 255.6 662.6 L 255.1 663.3 L 254.2 663.6 L 253.9 663.6 L 253.0 663.3 L 252.3 662.8 L 252.0 661.9 L 252.0 661.6 L 252.2 660.7 L 252.8 660.1 L 254.0 659.7 L 255.5 659.6 L 257.0 659.9 L 257.9 660.4 L 258.3 661.3 L 258.3 661.9 L 258.0 662.8 L 257.5 663.1 M 251.8 657.1 L 252.1 658.0 L 252.7 658.3 L 253.3 658.3 L 253.9 657.9 L 254.2 657.3 L 254.4 656.1 L 254.7 655.2 L 255.3 654.6 L 255.9 654.3 L 256.8 654.2 L 257.4 654.5 L 257.7 654.8 L 258.0 655.7 L 258.1 656.9 L 257.8 657.8 L 257.5 658.1 L 256.9 658.4 L 256.0 658.5 L 255.4 658.2 L 254.8 657.6 L 254.5 656.7 L 254.1 655.5 L 253.8 655.0 L 253.2 654.7 L 252.6 654.7 L 252.0 655.0 L 251.7 655.9 L 251.8 657.3 M 222.7 690.2 L 222.6 689.9 L 222.6 689.3 L 222.7 688.9 L 223.2 688.3 L 224.2 687.8 L 224.9 687.8 L 225.3 687.9 L 225.8 688.4 L 226.1 688.9 L 226.1 689.6 L 225.9 690.6 L 224.6 694.7 L 228.3 692.8 M 228.0 686.0 L 227.3 686.7 L 227.3 687.3 L 227.5 687.9 L 228.1 688.3 L 228.7 688.3 L 230.0 688.0 L 230.9 687.9 L 231.7 688.2 L 232.2 688.6 L 232.6 689.4 L 232.6 690.1 L 232.5 690.5 L 231.8 691.1 L 230.7 691.7 L 229.8 691.8 L 229.4 691.6 L 228.8 691.2 L 228.5 690.4 L 228.5 689.7 L 228.7 688.9 L 229.4 688.3 L 230.4 687.5 L 230.8 687.0 L 230.8 686.3 L 230.5 685.7 L 230.0 685.3 L 229.0 685.5 L 227.8 686.1 M 367.6 421.3 L 367.8 421.5 L 367.8 422.2 L 367.6 422.6 L 367.2 423.1 L 366.2 423.7 L 365.5 423.7 L 365.1 423.6 L 364.6 423.2 L 364.3 422.6 L 364.3 422.0 L 364.4 420.9 L 365.7 416.8 L 362.0 418.7 M 360.2 425.7 L 360.7 426.1 L 361.7 426.0 L 362.2 425.7 L 362.9 425.0 L 363.0 423.9 L 362.6 422.5 L 361.9 421.1 L 361.1 420.2 L 360.3 419.9 L 359.4 420.1 L 359.1 420.2 L 358.4 420.9 L 358.2 421.7 L 358.3 422.6 L 358.4 422.9 L 359.1 423.6 L 359.9 423.8 L 360.9 423.7 L 361.1 423.6 L 361.8 422.9 L 362.1 422.1 L 361.9 421.1 M 376.7 448.4 L 377.1 449.3 L 378.0 449.9 L 379.5 450.1 L 380.4 450.1 L 381.9 449.7 L 382.8 449.0 L 383.0 448.1 L 383.0 447.5 L 382.7 446.6 L 381.7 446.1 L 380.2 445.9 L 379.3 445.9 L 377.8 446.3 L 377.0 446.9 L 376.7 447.8 L 376.7 448.3 M 463.8 255.1 L 465.9 257.2 L 468.1 255.5 L 467.6 255.5 L 466.8 255.1 L 466.2 254.4 L 465.7 253.6 L 465.7 252.7 L 466.2 251.9 L 466.6 251.5 L 467.5 251.1 L 468.3 251.1 L 469.2 251.5 L 469.8 252.1 L 470.2 253.0 L 470.2 253.4 L 470.0 254.1 M 462.2 253.4 L 459.9 251.0 L 462.8 250.6 L 462.2 250.0 L 462.0 249.4 L 462.0 248.9 L 462.4 248.1 L 462.9 247.7 L 463.7 247.3 L 464.6 247.3 L 465.4 247.7 L 466.1 248.3 L 466.5 249.2 L 466.5 249.6 L 466.2 250.2 M 369.1 288.7 L 364.7 286.0 L 365.0 290.5 M 369.1 288.7 L 362.8 289.2 M 369.3 293.2 L 369.0 292.3 L 368.0 291.7 L 366.5 291.6 L 365.6 291.6 L 364.1 292.0 L 363.3 292.7 L 363.1 293.6 L 363.1 294.2 L 363.5 295.1 L 364.4 295.6 L 365.9 295.8 L 366.8 295.7 L 368.3 295.3 L 369.2 294.7 L 369.4 293.8 L 369.4 293.3 M 418.4 341.1 L 421.2 345.4 L 422.8 341.2 M 418.4 341.1 L 424.2 343.4 M 419.6 338.1 L 420.8 335.0 L 422.4 337.6 L 422.7 336.8 L 423.2 336.3 L 423.6 336.1 L 424.5 336.2 L 425.1 336.4 L 425.8 337.0 L 426.2 337.8 L 426.1 338.7 L 425.8 339.6 L 425.2 340.3 L 424.8 340.5 L 424.1 340.5 M 445.1 224.9 L 446.3 227.7 L 448.9 226.9 L 448.5 226.8 L 447.9 226.1 L 447.5 225.2 L 447.5 224.3 L 447.8 223.5 L 448.5 222.9 L 449.1 222.7 L 450.0 222.6 L 450.8 222.9 L 451.4 223.6 L 451.8 224.5 L 451.8 225.4 L 451.7 225.8 L 451.2 226.3 M 445.7 222.3 L 445.4 222.4 L 444.7 222.3 L 444.3 222.2 L 443.8 221.7 L 443.4 220.6 L 443.4 219.9 L 443.6 219.6 L 444.0 219.0 L 444.6 218.8 L 445.2 218.9 L 446.3 219.1 L 450.2 220.7 L 448.6 216.8 M 338.6 214.6 L 338.0 214.9 L 337.1 215.8 L 337.4 209.5 M 332.4 214.8 L 332.6 215.4 L 333.5 215.8 L 334.1 215.8 L 335.0 215.5 L 335.7 214.7 L 336.1 213.2 L 336.1 211.7 L 335.9 210.5 L 335.3 209.9 L 334.5 209.5 L 334.2 209.5 L 333.3 209.7 L 332.6 210.3 L 332.3 211.2 L 332.3 211.5 L 332.5 212.4 L 333.1 213.0 L 333.9 213.4 L 334.2 213.4 L 335.2 213.2 L 335.8 212.6 L 336.1 211.7 M 326.1 251.3 L 326.7 251.1 L 327.7 250.3 L 327.0 256.5 M 332.4 250.6 L 329.4 250.2 L 328.9 252.9 L 329.2 252.6 L 330.1 252.4 L 331.0 252.5 L 331.9 252.9 L 332.4 253.6 L 332.6 254.5 L 332.5 255.1 L 332.2 256.0 L 331.5 256.5 L 330.6 256.7 L 329.7 256.6 L 328.8 256.2 L 328.5 255.9 L 328.3 255.3 M 355.1 187.1 L 355.5 187.7 L 356.5 188.5 L 350.2 189.1 M 357.1 193.7 L 350.6 191.3 M 356.8 189.5 L 357.1 193.7 M 244.9 239.8 L 245.4 240.2 L 246.6 240.7 L 240.8 243.2 M 247.9 243.0 L 247.2 242.3 L 246.6 242.3 L 246.0 242.5 L 245.6 243.0 L 245.6 243.7 L 245.8 244.9 L 245.9 245.9 L 245.5 246.7 L 245.1 247.2 L 244.3 247.5 L 243.6 247.5 L 243.2 247.4 L 242.6 246.7 L 242.1 245.6 L 242.0 244.6 L 242.2 244.2 L 242.6 243.7 L 243.4 243.3 L 244.1 243.4 L 244.9 243.7 L 245.5 244.4 L 246.3 245.4 L 246.8 245.8 L 247.5 245.8 L 248.0 245.6 L 248.4 245.1 L 248.4 244.1 L 247.8 242.9 M 340.1 147.3 L 335.0 146.9 L 337.3 150.8 M 340.1 147.3 L 334.8 150.6 M 340.4 150.8 L 340.7 150.7 L 341.4 150.6 L 341.8 150.7 L 342.4 151.1 L 343.0 152.1 L 343.0 152.8 L 342.9 153.2 L 342.6 153.7 L 342.1 154.0 L 341.4 154.1 L 340.3 154.1 L 336.2 153.1 L 338.4 156.7 M 396.3 148.5 L 401.0 146.2 L 397.0 144.1 M 396.3 148.5 L 399.3 142.9 M 391.2 145.8 L 395.8 143.5 L 391.9 141.4 M 391.2 145.8 L 394.2 140.2 M 346.0 133.7 L 347.5 128.8 L 343.2 130.2 M 346.0 133.7 L 344.0 127.7 M 343.1 133.1 L 342.6 133.6 L 342.0 134.7 L 340.1 128.7 M 250.3 197.8 L 245.5 192.8 M 251.8 193.9 L 250.3 197.8 M 249.7 199.5 L 248.5 202.5 L 246.9 200.0 L 246.6 200.9 L 246.1 201.3 L 245.7 201.5 L 244.8 201.4 L 244.2 201.2 L 243.5 200.6 L 243.1 199.9 L 243.2 198.9 L 243.5 198.1 L 244.1 197.3 L 244.5 197.2 L 245.1 197.1 M 309.5 185.2 L 316.1 187.4 M 310.0 189.3 L 309.5 185.2 M 309.8 180.3 L 309.2 180.7 L 309.0 181.6 L 309.1 182.2 L 309.5 183.1 L 310.5 183.6 L 312.0 183.7 L 313.5 183.5 L 314.7 183.1 L 315.2 182.4 L 315.4 181.5 L 315.3 181.2 L 314.9 180.3 L 314.3 179.8 L 313.3 179.6 L 313.0 179.6 L 312.2 180.1 L 311.7 180.7 L 311.5 181.7 L 311.5 181.9 L 311.9 182.8 L 312.6 183.3 L 313.5 183.5 M 286.0 171.1 L 288.3 164.5 M 290.2 170.7 L 286.0 171.1 M 281.3 171.7 L 284.3 171.3 L 284.3 168.6 L 284.0 168.9 L 283.2 169.3 L 282.3 169.4 L 281.3 169.2 L 280.7 168.7 L 280.3 167.9 L 280.2 167.3 L 280.4 166.3 L 280.9 165.7 L 281.8 165.3 L 282.7 165.2 L 283.6 165.4 L 283.9 165.6 L 284.3 166.2 M 490.8 277.0 L 493.2 278.8 L 495.0 276.7 L 494.6 276.8 L 493.7 276.5 L 493.0 276.0 L 492.4 275.2 L 492.3 274.4 L 492.6 273.5 L 492.9 273.0 L 493.7 272.4 L 494.5 272.3 L 495.5 272.6 L 496.2 273.1 L 496.7 273.9 L 496.8 274.3 L 496.7 275.0 M 487.0 273.1 L 486.9 273.8 L 487.4 274.6 L 487.9 274.9 L 488.8 275.2 L 489.8 274.8 L 490.9 273.8 L 491.8 272.6 L 492.3 271.4 L 492.2 270.6 L 491.6 269.8 L 491.4 269.6 L 490.5 269.3 L 489.6 269.5 L 488.9 270.0 L 488.7 270.3 L 488.4 271.2 L 488.5 272.0 L 489.1 272.8 L 489.3 273.0 L 490.2 273.2 L 491.1 273.1 L 491.8 272.6 M 480.1 315.0 L 482.0 319.8 L 484.4 316.0 M 480.1 315.0 L 485.4 318.4 M 483.2 310.1 L 485.1 314.9 L 487.6 311.2 M 483.2 310.1 L 488.5 313.6 M 482.3 136.5 L 481.9 139.4 L 484.5 140.1 L 484.2 139.8 L 484.1 138.8 L 484.2 138.0 L 484.6 137.1 L 485.3 136.6 L 486.2 136.4 L 486.8 136.5 L 487.7 137.0 L 488.2 137.6 L 488.4 138.6 L 488.2 139.5 L 487.8 140.3 L 487.5 140.6 L 486.8 140.8 M 483.1 131.2 L 482.6 134.2 L 485.3 134.8 L 485.0 134.5 L 484.8 133.6 L 485.0 132.7 L 485.4 131.8 L 486.1 131.3 L 487.0 131.2 L 487.6 131.3 L 488.5 131.7 L 489.0 132.4 L 489.1 133.3 L 489.0 134.2 L 488.6 135.0 L 488.2 135.3 L 487.6 135.5 M 432.2 135.7 L 430.8 133.1 L 428.3 134.1 L 428.7 134.2 L 429.4 134.8 L 429.8 135.6 L 429.9 136.6 L 429.7 137.4 L 429.0 138.1 L 428.5 138.4 L 427.6 138.5 L 426.8 138.3 L 426.1 137.6 L 425.7 136.8 L 425.5 135.9 L 425.6 135.5 L 426.0 134.9 M 433.9 140.9 L 434.3 140.3 L 434.1 139.4 L 433.9 138.9 L 433.2 138.2 L 432.1 138.1 L 430.6 138.5 L 429.3 139.2 L 428.4 140.1 L 428.1 140.9 L 428.3 141.8 L 428.4 142.1 L 429.1 142.7 L 429.9 143.0 L 430.9 142.8 L 431.1 142.7 L 431.8 142.0 L 432.0 141.2 L 431.9 140.3 L 431.7 140.0 L 431.1 139.3 L 430.2 139.1 L 429.3 139.2 M 460.5 75.2 L 465.6 74.4 L 462.5 71.2 M 460.5 75.2 L 465.0 70.8 M 456.8 70.1 L 456.6 70.7 L 457.0 71.6 L 457.4 72.0 L 458.3 72.4 L 459.4 72.2 L 460.6 71.4 L 461.7 70.3 L 462.3 69.3 L 462.3 68.4 L 461.9 67.6 L 461.7 67.3 L 460.8 66.9 L 460.0 66.9 L 459.2 67.3 L 458.9 67.5 L 458.5 68.4 L 458.5 69.2 L 458.9 70.1 L 459.1 70.3 L 460.0 70.7 L 460.8 70.7 L 461.7 70.3 M 411.8 94.5 L 410.5 91.8 L 407.9 92.7 L 408.3 92.8 L 409.0 93.5 L 409.4 94.3 L 409.5 95.2 L 409.2 96.0 L 408.5 96.7 L 408.0 97.0 L 407.0 97.1 L 406.2 96.8 L 405.6 96.1 L 405.2 95.3 L 405.1 94.4 L 405.2 94.0 L 405.6 93.4 M 413.9 98.9 L 408.8 98.0 L 410.8 102.0 M 413.9 98.9 L 408.2 101.6 M 407.8 43.8 L 410.9 39.6 L 406.4 39.5 M 407.8 43.8 L 407.9 37.5 M 401.6 43.6 L 404.6 43.6 L 404.9 40.9 L 404.6 41.2 L 403.7 41.5 L 402.8 41.5 L 401.9 41.2 L 401.3 40.6 L 401.0 39.7 L 401.1 39.1 L 401.4 38.2 L 402.0 37.6 L 402.9 37.3 L 403.8 37.3 L 404.7 37.6 L 405.0 37.9 L 405.3 38.5 M 464.1 206.8 L 461.8 204.8 L 459.9 206.7 L 460.3 206.7 L 461.2 207.0 L 461.9 207.6 L 462.4 208.4 L 462.5 209.3 L 462.1 210.1 L 461.7 210.6 L 460.9 211.1 L 460.1 211.2 L 459.2 210.9 L 458.5 210.3 L 458.0 209.5 L 458.0 209.1 L 458.1 208.4 M 464.9 209.3 L 465.1 209.1 L 465.7 208.8 L 466.2 208.8 L 466.8 209.0 L 467.7 209.7 L 468.0 210.3 L 468.1 210.8 L 467.9 211.4 L 467.5 211.9 L 466.9 212.1 L 465.9 212.5 L 461.7 212.9 L 464.9 215.5 M 485.2 201.0 L 486.1 203.9 L 488.7 203.4 L 488.4 203.2 L 487.8 202.4 L 487.6 201.6 L 487.6 200.6 L 488.0 199.9 L 488.7 199.3 L 489.3 199.1 L 490.3 199.2 L 491.0 199.6 L 491.6 200.3 L 491.8 201.2 L 491.8 202.1 L 491.6 202.5 L 491.1 203.0 M 483.7 196.4 L 488.6 198.0 L 487.3 193.7 M 483.7 196.4 L 489.7 194.5 M 484.3 216.5 L 481.4 217.4 L 481.8 220.0 L 482.0 219.7 L 482.8 219.1 L 483.7 218.9 L 484.6 218.9 L 485.4 219.4 L 485.9 220.1 L 486.1 220.7 L 486.0 221.7 L 485.6 222.4 L 484.8 222.9 L 483.9 223.2 L 483.0 223.1 L 482.6 222.9 L 482.2 222.4 M 486.5 215.9 L 489.7 215.0 L 488.6 217.8 L 489.5 217.6 L 490.1 217.7 L 490.5 217.9 L 491.0 218.7 L 491.2 219.3 L 491.1 220.2 L 490.7 221.0 L 489.9 221.5 L 489.1 221.7 L 488.1 221.7 L 487.8 221.5 L 487.3 221.0 M 358.7 347.7 L 356.4 343.1 L 354.3 347.0 M 358.7 347.7 L 353.1 344.7 M 355.4 353.6 L 351.3 347.9 M 357.4 349.9 L 355.4 353.6 M 394.5 375.0 L 394.3 374.7 L 394.1 374.1 L 394.2 373.7 L 394.4 373.1 L 395.4 372.3 L 396.0 372.2 L 396.5 372.2 L 397.1 372.5 L 397.4 372.9 L 397.6 373.6 L 397.7 374.7 L 397.2 378.9 L 400.5 376.3 M 358.6 373.3 L 358.7 373.1 L 359.3 372.7 L 359.7 372.5 L 360.4 372.5 L 361.4 373.1 L 361.8 373.6 L 362.0 374.0 L 361.9 374.7 L 361.7 375.2 L 361.1 375.6 L 360.2 376.2 L 356.1 377.5 L 359.9 379.4 M 366.6 376.7 L 366.6 376.1 L 365.9 375.4 L 365.4 375.1 L 364.5 375.0 L 363.5 375.5 L 362.6 376.7 L 361.9 378.0 L 361.6 379.2 L 361.8 380.0 L 362.5 380.7 L 362.8 380.9 L 363.7 381.0 L 364.5 380.7 L 365.2 380.1 L 365.3 379.8 L 365.5 378.9 L 365.2 378.1 L 364.6 377.4 L 364.3 377.3 L 363.4 377.1 L 362.5 377.4 L 361.9 378.0 M 355.9 87.3 L 353.2 88.6 L 354.2 91.2 L 354.3 90.8 L 355.0 90.1 L 355.8 89.7 L 356.7 89.6 L 357.5 89.8 L 358.2 90.5 L 358.5 91.0 L 358.6 92.0 L 358.4 92.8 L 357.7 93.5 L 356.9 93.9 L 355.9 94.0 L 355.5 93.9 L 355.0 93.5 M 360.7 84.9 L 358.0 86.2 L 359.0 88.8 L 359.1 88.4 L 359.8 87.7 L 360.6 87.3 L 361.5 87.2 L 362.3 87.4 L 363.0 88.1 L 363.3 88.6 L 363.4 89.6 L 363.1 90.4 L 362.5 91.1 L 361.6 91.5 L 360.7 91.6 L 360.3 91.5 L 359.8 91.1 M 334.0 63.3 L 329.7 60.5 L 329.8 65.0 M 334.0 63.3 L 327.7 63.6 M 333.3 69.6 L 333.9 69.3 L 334.1 68.4 L 334.1 67.8 L 333.8 66.9 L 332.8 66.3 L 331.3 66.1 L 329.8 66.2 L 328.6 66.5 L 328.1 67.1 L 327.8 68.1 L 327.8 68.4 L 328.2 69.2 L 328.8 69.8 L 329.7 70.1 L 330.0 70.1 L 330.9 69.7 L 331.5 69.1 L 331.7 68.2 L 331.7 67.9 L 331.4 67.0 L 330.7 66.4 L 329.8 66.2 M 351.2 36.9 L 355.2 33.5 L 350.8 32.5 M 351.2 36.9 L 352.7 30.8 M 345.2 35.4 L 348.1 36.1 L 349.0 33.5 L 348.7 33.7 L 347.7 33.8 L 346.9 33.6 L 346.1 33.1 L 345.6 32.4 L 345.5 31.4 L 345.7 30.8 L 346.2 30.0 L 346.9 29.6 L 347.9 29.5 L 348.7 29.7 L 349.5 30.2 L 349.8 30.6 L 349.9 31.3 M 89.4 200.0 L 89.9 199.6 L 90.7 198.6 L 91.5 204.9 M 92.4 198.2 L 95.7 197.8 L 94.2 200.4 L 95.1 200.3 L 95.7 200.5 L 96.1 200.8 L 96.5 201.7 L 96.5 202.3 L 96.3 203.2 L 95.8 203.9 L 95.0 204.3 L 94.1 204.4 L 93.1 204.2 L 92.8 203.9 L 92.4 203.4 M 114.3 172.7 L 114.0 172.1 L 113.1 171.2 L 119.4 171.3 M 114.4 170.1 L 114.1 169.5 L 113.2 168.6 L 119.5 168.8 M 98.3 135.9 L 99.8 133.3 L 97.6 131.6 L 97.7 132.1 L 97.5 133.0 L 97.1 133.8 L 96.4 134.4 L 95.6 134.6 L 94.6 134.4 L 94.1 134.1 L 93.5 133.4 L 93.3 132.6 L 93.5 131.6 L 93.9 130.9 L 94.6 130.2 L 95.1 130.1 L 95.7 130.2 M 96.2 136.6 L 96.2 137.2 L 96.5 138.5 L 91.1 135.3 M 120.4 110.6 L 121.2 107.4 L 123.1 109.7 L 123.3 108.8 L 123.8 108.3 L 124.2 108.1 L 125.1 108.0 L 125.7 108.2 L 126.5 108.7 L 126.9 109.4 L 127.0 110.4 L 126.8 111.3 L 126.2 112.1 L 125.9 112.3 L 125.2 112.4 M 124.6 102.7 L 125.4 103.2 L 125.8 104.0 L 125.9 104.9 L 125.8 105.2 L 125.3 106.0 L 124.6 106.4 L 123.6 106.5 L 123.3 106.4 L 122.5 105.9 L 122.1 105.2 L 122.0 104.2 L 122.1 103.9 L 122.6 103.1 L 123.4 102.7 L 124.6 102.7 L 126.1 103.1 L 127.4 103.7 L 128.2 104.5 L 128.2 105.5 L 128.1 106.1 L 127.6 106.9 L 126.9 107.0 M 295.9 288.6 L 295.6 288.7 L 295.0 288.4 L 294.7 288.2 L 294.3 287.6 L 294.2 286.4 L 294.5 285.8 L 294.8 285.4 L 295.3 285.1 L 295.9 285.0 L 296.5 285.3 L 297.5 285.8 L 300.8 288.5 L 300.4 284.3 M 293.6 279.7 L 300.2 282.1 M 294.0 283.9 L 293.6 279.7 M 247.1 298.5 L 250.4 298.7 L 248.5 301.0 L 249.4 301.1 L 249.9 301.4 L 250.2 301.7 L 250.5 302.7 L 250.4 303.2 L 250.1 304.1 L 249.4 304.7 L 248.5 304.9 L 247.6 304.9 L 246.7 304.5 L 246.4 304.2 L 246.2 303.5 M 255.9 299.1 L 252.5 305.2 M 251.7 298.8 L 255.9 299.1 M 180.9 274.4 L 183.2 276.8 L 180.3 277.2 L 180.9 277.8 L 181.1 278.4 L 181.1 278.9 L 180.7 279.7 L 180.2 280.1 L 179.4 280.5 L 178.5 280.5 L 177.7 280.1 L 177.1 279.5 L 176.6 278.6 L 176.7 278.2 L 176.9 277.5 M 185.3 278.9 L 184.5 278.4 L 183.8 278.6 L 183.4 279.1 L 183.2 279.7 L 183.4 280.3 L 184.0 281.4 L 184.4 282.3 L 184.4 283.1 L 184.2 283.7 L 183.5 284.4 L 182.9 284.6 L 182.5 284.6 L 181.6 284.1 L 180.8 283.3 L 180.4 282.4 L 180.4 282.0 L 180.6 281.4 L 181.3 280.7 L 181.9 280.5 L 182.7 280.5 L 183.6 281.0 L 184.6 281.6 L 185.3 281.8 L 185.9 281.6 L 186.3 281.2 L 186.6 280.6 L 186.1 279.7 L 185.2 278.8 M 227.3 261.0 L 226.6 260.9 L 225.4 261.2 L 228.7 255.9 M 222.1 256.9 L 222.8 256.3 L 223.7 256.1 L 224.6 256.3 L 224.8 256.5 L 225.4 257.2 L 225.6 258.0 L 225.4 259.0 L 225.2 259.2 L 224.5 259.8 L 223.7 260.0 L 222.8 259.8 L 222.5 259.6 L 221.9 258.9 L 221.7 258.1 L 222.1 256.9 L 222.9 255.6 L 224.0 254.5 L 225.0 254.1 L 225.9 254.3 L 226.4 254.6 L 227.0 255.4 L 226.9 256.0 M 163.6 232.9 L 163.9 233.5 L 164.9 234.3 L 158.6 234.8 M 165.2 236.0 L 165.4 239.3 L 162.9 237.7 L 163.0 238.6 L 162.7 239.2 L 162.5 239.5 L 161.6 239.9 L 161.0 239.9 L 160.1 239.7 L 159.4 239.1 L 159.1 238.3 L 159.0 237.4 L 159.2 236.5 L 159.5 236.1 L 160.1 235.8 M 118.6 310.8 L 116.5 308.3 L 119.5 308.1 L 118.9 307.4 L 118.7 306.8 L 118.7 306.3 L 119.2 305.5 L 119.7 305.1 L 120.5 304.8 L 121.4 304.8 L 122.2 305.3 L 122.8 306.0 L 123.2 306.9 L 123.1 307.3 L 122.9 307.9 M 112.8 304.2 L 119.6 302.3 M 115.6 307.3 L 112.8 304.2 M 121.7 341.4 L 124.9 340.7 L 123.6 343.4 L 124.5 343.2 L 125.2 343.4 L 125.5 343.6 L 126.0 344.5 L 126.1 345.0 L 126.0 346.0 L 125.6 346.7 L 124.7 347.2 L 123.9 347.4 L 122.9 347.3 L 122.6 347.0 L 122.1 346.5 M 130.0 340.6 L 129.6 340.0 L 128.7 339.9 L 128.1 340.0 L 127.3 340.5 L 126.9 341.5 L 126.9 343.1 L 127.2 344.5 L 127.7 345.6 L 128.4 346.1 L 129.4 346.2 L 129.7 346.1 L 130.5 345.7 L 131.0 345.0 L 131.1 344.0 L 131.0 343.7 L 130.5 342.9 L 129.8 342.4 L 128.9 342.3 L 128.6 342.4 L 127.8 342.9 L 127.3 343.6 L 127.2 344.5 M 213.3 210.6 L 213.3 209.9 L 212.9 208.7 L 218.5 211.6 M 214.8 207.8 L 214.5 207.7 L 214.1 207.1 L 214.0 206.7 L 214.0 206.1 L 214.5 205.0 L 215.1 204.6 L 215.5 204.5 L 216.1 204.5 L 216.7 204.7 L 217.1 205.3 L 217.6 206.2 L 218.9 210.3 L 220.8 206.5 M 221.4 137.4 L 221.9 138.2 L 222.5 138.4 L 223.1 138.3 L 223.6 137.9 L 223.9 137.3 L 224.0 136.1 L 224.1 135.1 L 224.7 134.5 L 225.2 134.1 L 226.1 133.9 L 226.7 134.2 L 227.1 134.4 L 227.5 135.3 L 227.7 136.4 L 227.5 137.4 L 227.3 137.7 L 226.7 138.1 L 225.8 138.2 L 225.2 138.0 L 224.5 137.5 L 224.1 136.7 L 223.6 135.5 L 223.2 135.0 L 222.6 134.8 L 222.0 134.9 L 221.4 135.2 L 221.3 136.2 L 221.5 137.5 M 158.2 153.6 L 157.3 153.4 L 156.6 152.8 L 156.3 151.9 L 156.3 151.6 L 156.5 150.7 L 157.1 150.1 L 158.0 149.7 L 158.3 149.7 L 159.2 150.0 L 159.8 150.6 L 160.2 151.4 L 160.2 151.7 L 159.9 152.6 L 159.4 153.3 L 158.2 153.6 L 156.7 153.7 L 155.2 153.5 L 154.2 153.0 L 153.9 152.1 L 153.9 151.5 L 154.1 150.6 L 154.7 150.2 M 190.1 98.4 L 189.5 98.7 L 188.7 99.7 L 188.3 93.4 M 185.7 100.1 L 186.6 99.7 L 187.2 98.8 L 187.4 97.3 L 187.3 96.4 L 186.9 94.9 L 186.3 94.0 L 185.4 93.8 L 184.8 93.8 L 183.9 94.2 L 183.3 95.1 L 183.1 96.6 L 183.2 97.5 L 183.6 99.0 L 184.2 99.9 L 185.1 100.1 L 185.6 100.1 M 86.1 91.6 L 83.6 90.0 L 81.8 92.0 L 82.2 91.9 L 83.2 92.2 L 83.9 92.7 L 84.5 93.5 L 84.6 94.3 L 84.4 95.2 L 84.0 95.7 L 83.3 96.3 L 82.5 96.4 L 81.5 96.2 L 80.8 95.7 L 80.2 94.9 L 80.1 94.5 L 80.2 93.8 M 86.7 93.7 L 87.3 93.8 L 88.6 93.6 L 85.0 98.8 M 85.8 66.5 L 87.4 64.0 L 85.3 62.3 L 85.4 62.7 L 85.1 63.6 L 84.6 64.4 L 83.9 64.9 L 83.1 65.1 L 82.2 64.9 L 81.7 64.6 L 81.1 63.8 L 80.9 63.0 L 81.1 62.1 L 81.6 61.3 L 82.4 60.7 L 82.8 60.6 L 83.4 60.7 M 83.8 69.5 L 84.1 68.6 L 83.6 67.6 L 82.5 66.5 L 81.8 66.0 L 80.4 65.4 L 79.3 65.5 L 78.5 66.0 L 78.2 66.5 L 78.0 67.5 L 78.4 68.5 L 79.5 69.5 L 80.2 70.0 L 81.7 70.6 L 82.7 70.6 L 83.5 70.0 L 83.7 69.6 M 57.1 137.1 L 58.8 139.5 L 61.2 138.3 L 60.8 138.2 L 60.0 137.6 L 59.5 136.9 L 59.2 136.0 L 59.4 135.1 L 60.0 134.4 L 60.5 134.0 L 61.4 133.8 L 62.2 133.9 L 63.0 134.5 L 63.5 135.2 L 63.7 136.2 L 63.7 136.6 L 63.3 137.2 M 55.1 134.1 L 55.8 134.7 L 56.9 134.7 L 58.3 134.1 L 59.1 133.6 L 60.1 132.5 L 60.5 131.5 L 60.3 130.6 L 59.9 130.1 L 59.2 129.5 L 58.1 129.5 L 56.7 130.1 L 55.9 130.6 L 54.9 131.7 L 54.5 132.7 L 54.7 133.6 L 55.0 134.0 M 49.8 122.4 L 47.5 117.8 L 45.4 121.8 M 49.8 122.4 L 44.3 119.5 M 47.9 126.0 L 48.0 125.1 L 47.6 124.6 L 47.1 124.3 L 46.4 124.3 L 45.9 124.7 L 45.0 125.6 L 44.4 126.3 L 43.6 126.5 L 42.9 126.5 L 42.1 126.1 L 41.7 125.5 L 41.6 125.1 L 41.7 124.2 L 42.3 123.1 L 43.0 122.5 L 43.4 122.3 L 44.0 122.4 L 44.8 122.8 L 45.2 123.3 L 45.5 124.1 L 45.3 125.1 L 45.0 126.3 L 45.0 126.9 L 45.4 127.5 L 45.9 127.8 L 46.6 127.8 L 47.3 127.1 L 47.9 125.9 M 110.9 39.8 L 111.4 34.7 L 107.5 36.9 M 110.9 39.8 L 107.8 34.3 M 107.3 41.8 L 107.9 41.1 L 107.9 40.4 L 107.6 39.9 L 107.0 39.5 L 106.3 39.6 L 105.1 39.9 L 104.2 40.1 L 103.4 39.9 L 102.8 39.5 L 102.4 38.7 L 102.3 38.1 L 102.5 37.6 L 103.1 36.9 L 104.1 36.3 L 105.1 36.2 L 105.5 36.3 L 106.0 36.6 L 106.5 37.4 L 106.5 38.1 L 106.3 38.9 L 105.7 39.6 L 104.8 40.5 L 104.4 41.0 L 104.4 41.7 L 104.7 42.2 L 105.3 42.6 L 106.2 42.4 L 107.4 41.7 M 119.9 58.3 L 125.0 59.5 L 123.3 55.3 M 119.9 58.3 L 125.8 56.0 M 119.5 51.4 L 120.5 51.4 L 121.2 51.7 L 121.9 52.4 L 122.0 52.7 L 122.0 53.6 L 121.7 54.4 L 121.0 55.0 L 120.7 55.1 L 119.7 55.2 L 119.0 54.9 L 118.4 54.1 L 118.2 53.9 L 118.2 52.9 L 118.5 52.1 L 119.5 51.4 L 120.9 50.9 L 122.4 50.6 L 123.5 50.8 L 124.1 51.5 L 124.3 52.1 L 124.4 53.0 L 123.9 53.5"
       id="nums_001"
       stroke="black"
       stroke-width="1" />
    <path
       d="m 415.8,122.2 -21.4,-45.1 -66.7,33.6 -3.9,-89.1 53.9,13.2 55.5,1.2 62.9,63.1 -10.9,73.9 14.7,47.7 -23.7,6.7 -32,-26.4 15.8,38.4 17.2,17.5 34.3,24.9 -46.1,71.2 0.4,40.9 -8.2,47.1 -38,63.1 15.4,22.6 64.6,1.5 -24.2,51.5 -82.1,81.9 -9.7,-25.3 -16.2,-24.3 -45.4,11.1 10.5,92.3 -55.8,-40.2 -17.6,-37.7 1.9,41.5 -61.9,30.2 31.5,-87.5 17.5,-43.3 29.2,-1.4 16.8,21.2 37.4,-109.8 -47.2,31.7 -75.2,-61.6 -69.2,-11 47.3,29.5 26.1,26.1 42.2,-1.4 35.9,48.2 -60.9,16.8 -45,-7.8 -34.3,-41.5 25.1,47.6 -59.2,-2.2 -25,-52.8 -37,-17.8 36.6,-63.2 27,-44.3 -50.8,36.9 -7,-116.7 L 40.7,242.5 18.5,186 35,132.8 47.6,108.7 78.3,153.5 102.4,112.6 63.1,86.1 92.8,40.6 l 23.6,-13.5 20.7,51.6 -15.1,58.9 -1.6,65.6 -52.7,6.3 18.8,51.9 70.7,81 -58.6,12.2 59.4,7 30.1,-46.9 51.5,29.4 60.3,5.5 31,44.8 -82.9,36.9 -27.6,-20.2 26.4,21.8 90.6,-3.9 45.6,-23.1 3.9,82.8 30.2,-77.2 11.1,-44.2 7.7,-48.2 -17.8,45.4 -35.5,28.7 -45.4,-23.3 26,-47.9 -4.5,-60.4 -59,-6.2 5,55.5 -107.2,-7.7 -38.5,-39.5 -3.9,-52.9 -6.3,-116.7 74,-4.6 13.3,91.3 -29.9,58.7 43.2,27.4 -18.3,-41.6 22.3,-58.8 61.3,-6.9 5.7,47.2 29.8,1.6 -3.1,-33.7 -25.6,-41.8 39,-12.7 75,39.5 z"
       id="coupes_001"
       stroke="#ff0000"
       stroke-width="1.27"
       sodipodi:nodetypes="cccccccccccccccccccccccccccccccccccccccccccccccccccccccccccccccccccccccccccccccccccccccccccccccccccccccccccc" />
    <path
       d="M 331.5 488.4 L 337.4 429.0 M 337.4 429.0 L 386.9 488.7 M 284.3 520.1 L 246.8 432.9 M 209.1 458.5 L 246.8 432.9 M 209.1 458.5 L 220.4 411.1 M 118.7 384.7 L 220.4 411.1 M 209.1 458.5 L 118.7 384.7 M 92.1 510.0 L 91.7 429.0 M 139.9 447.5 L 92.1 510.0 M 158.0 361.6 L 220.4 411.1 M 118.7 384.7 L 98.6 354.6 M 67.9 421.6 L 98.6 354.6 M 60.9 304.9 L 98.6 354.6 M 86.5 261.4 L 98.6 354.6 M 40.7 242.5 L 86.5 261.4 M 158.0 361.6 L 239.6 344.1 M 299.9 349.6 L 220.4 411.1 M 299.9 349.6 L 248.0 431.3 M 18.5 186.0 L 67.7 209.5 M 35.0 132.8 L 67.7 209.5 M 386.9 488.7 L 322.0 623.1 M 332.5 715.4 L 294.1 598.2 M 276.7 675.2 L 294.1 598.2 M 276.7 675.2 L 277.3 577.0 M 187.2 477.0 L 151.2 517.4 M 151.2 517.4 L 92.1 510.0 M 213.3 503.1 L 185.5 558.9 M 255.5 501.7 L 185.5 558.9 M 176.3 565.0 L 92.1 510.0 M 255.5 501.7 L 230.5 566.7 M 386.9 488.7 L 419.6 504.1 M 419.6 504.1 L 367.4 612.0 M 435.0 526.7 L 367.4 612.0 M 435.0 526.7 L 383.6 636.3 M 475.4 579.7 L 383.6 636.3 M 386.9 488.7 L 457.6 441.0 M 428.2 367.3 L 457.6 441.0 M 428.2 367.3 L 465.8 393.9 M 428.2 367.3 L 465.4 353.0 M 435.9 319.1 L 465.4 353.0 M 259.1 637.5 L 277.3 577.0 M 259.1 637.5 L 248.1 578.4 M 259.1 637.5 L 199.1 709.2 M 435.9 319.1 L 477.2 256.9 M 477.2 256.9 L 465.4 353.0 M 363.2 322.0 L 460.0 239.4 M 435.9 319.1 L 363.2 322.0 M 358.7 261.6 L 460.0 239.4 M 418.1 364.5 L 363.2 322.0 M 358.7 261.6 L 444.2 201.0 M 350.2 208.4 L 444.2 201.0 M 231.1 225.3 L 320.4 206.8 M 347.1 174.7 L 444.2 201.0 M 347.1 174.7 L 435.5 159.7 M 435.5 159.7 L 444.2 201.0 M 299.7 255.4 L 249.4 266.9 M 321.5 132.9 L 435.5 159.7 M 435.5 159.7 L 485.2 173.0 M 485.2 173.0 L 444.2 201.0 M 435.5 159.7 L 496.1 99.1 M 415.8 122.2 L 496.1 99.1 M 415.8 122.2 L 433.2 36.0 M 394.4 77.1 L 433.2 36.0 M 394.4 77.1 L 377.7 34.8 M 485.2 173.0 L 476.2 227.4 M 418.1 364.5 L 337.2 369.9 M 327.7 110.7 L 377.7 34.8 M 35.0 132.8 L 78.3 153.5 M 78.3 153.5 L 120.4 203.2 M 78.3 153.5 L 122.0 137.6 M 102.4 112.6 L 122.0 137.6 M 102.4 112.6 L 137.1 78.7 M 102.4 112.6 L 92.8 40.6 M 92.8 40.6 L 137.1 78.7 M 197.5 303.2 L 249.4 266.9 M 159.0 263.7 L 206.2 239.5 M 155.1 210.8 L 236.1 180.8 M 155.1 210.8 L 222.8 89.5"
       id="plisM_001"
       stroke="brown"
       stroke-dasharray="4" />
    <path
       d="M 332.5 456.7 L 336.5 460.7 M 336.5 456.7 L 332.5 460.7 M 360.1 456.8 L 364.1 460.8 M 364.1 456.8 L 360.1 460.8 M 263.5 474.5 L 267.5 478.5 M 267.5 474.5 L 263.5 478.5 M 225.9 443.7 L 229.9 447.7 M 229.9 443.7 L 225.9 447.7 M 212.7 432.8 L 216.7 436.8 M 216.7 432.8 L 212.7 436.8 M 167.5 395.9 L 171.5 399.9 M 171.5 395.9 L 167.5 399.9 M 161.9 419.6 L 165.9 423.6 M 165.9 419.6 L 161.9 423.6 M 89.9 467.5 L 93.9 471.5 M 93.9 467.5 L 89.9 471.5 M 114.0 476.7 L 118.0 480.7 M 118.0 476.7 L 114.0 480.7 M 187.2 384.4 L 191.2 388.4 M 191.2 384.4 L 187.2 388.4 M 106.6 367.7 L 110.6 371.7 M 110.6 367.7 L 106.6 371.7 M 81.2 386.1 L 85.2 390.1 M 85.2 386.1 L 81.2 390.1 M 77.8 327.8 L 81.8 331.8 M 81.8 327.8 L 77.8 331.8 M 90.5 306.0 L 94.5 310.0 M 94.5 306.0 L 90.5 310.0 M 61.6 250.0 L 65.6 254.0 M 65.6 250.0 L 61.6 254.0 M 196.8 350.9 L 200.8 354.9 M 200.8 350.9 L 196.8 354.9 M 258.1 378.4 L 262.1 382.4 M 262.1 378.4 L 258.1 382.4 M 271.9 388.4 L 275.9 392.4 M 275.9 388.4 L 271.9 392.4 M 41.1 195.7 L 45.1 199.7 M 45.1 195.7 L 41.1 199.7 M 49.4 169.2 L 53.4 173.2 M 53.4 169.2 L 49.4 173.2 M 352.4 553.9 L 356.4 557.9 M 356.4 553.9 L 352.4 557.9 M 311.3 654.8 L 315.3 658.8 M 315.3 654.8 L 311.3 658.8 M 283.4 634.7 L 287.4 638.7 M 287.4 634.7 L 283.4 638.7 M 275.0 624.1 L 279.0 628.1 M 279.0 624.1 L 275.0 628.1 M 167.2 495.2 L 171.2 499.2 M 171.2 495.2 L 167.2 499.2 M 119.6 511.7 L 123.6 515.7 M 123.6 511.7 L 119.6 515.7 M 197.4 529.0 L 201.4 533.0 M 201.4 529.0 L 197.4 533.0 M 218.5 528.3 L 222.5 532.3 M 222.5 528.3 L 218.5 532.3 M 132.2 535.5 L 136.2 539.5 M 136.2 535.5 L 132.2 539.5 M 241.0 532.2 L 245.0 536.2 M 245.0 532.2 L 241.0 536.2 M 401.2 494.4 L 405.2 498.4 M 405.2 494.4 L 401.2 498.4 M 391.5 556.1 L 395.5 560.1 M 395.5 556.1 L 391.5 560.1 M 399.2 567.4 L 403.2 571.4 M 403.2 567.4 L 399.2 571.4 M 407.3 579.5 L 411.3 583.5 M 411.3 579.5 L 407.3 583.5 M 427.5 606.0 L 431.5 610.0 M 431.5 606.0 L 427.5 610.0 M 420.2 462.9 L 424.2 466.9 M 424.2 462.9 L 420.2 466.9 M 440.9 402.2 L 444.9 406.2 M 444.9 402.2 L 440.9 406.2 M 445.0 378.6 L 449.0 382.6 M 449.0 378.6 L 445.0 382.6 M 444.8 358.2 L 448.8 362.2 M 448.8 358.2 L 444.8 362.2 M 448.6 334.0 L 452.6 338.0 M 452.6 334.0 L 448.6 338.0 M 266.2 605.2 L 270.2 609.2 M 270.2 605.2 L 266.2 609.2 M 251.6 605.9 L 255.6 609.9 M 255.6 605.9 L 251.6 609.9 M 227.1 671.3 L 231.1 675.3 M 231.1 671.3 L 227.1 675.3 M 454.6 286.0 L 458.6 290.0 M 458.6 286.0 L 454.6 290.0 M 469.3 303.0 L 473.3 307.0 M 473.3 303.0 L 469.3 307.0 M 409.6 278.7 L 413.6 282.7 M 413.6 278.7 L 409.6 282.7 M 397.6 318.5 L 401.6 322.5 M 401.6 318.5 L 397.6 322.5 M 407.4 248.5 L 411.4 252.5 M 411.4 248.5 L 407.4 252.5 M 388.6 341.3 L 392.6 345.3 M 392.6 341.3 L 388.6 345.3 M 399.5 229.3 L 403.5 233.3 M 403.5 229.3 L 399.5 233.3 M 395.2 202.7 L 399.2 206.7 M 399.2 202.7 L 395.2 206.7 M 273.7 214.0 L 277.7 218.0 M 277.7 214.0 L 273.7 218.0 M 393.7 185.9 L 397.7 189.9 M 397.7 185.9 L 393.7 189.9 M 389.3 165.2 L 393.3 169.2 M 393.3 165.2 L 389.3 169.2 M 437.9 178.4 L 441.9 182.4 M 441.9 178.4 L 437.9 182.4 M 272.5 259.1 L 276.5 263.1 M 276.5 259.1 L 272.5 263.1 M 376.5 144.3 L 380.5 148.3 M 380.5 144.3 L 376.5 148.3 M 458.4 164.4 L 462.4 168.4 M 462.4 164.4 L 458.4 168.4 M 462.7 185.0 L 466.7 189.0 M 466.7 185.0 L 462.7 189.0 M 463.8 127.4 L 467.8 131.4 M 467.8 127.4 L 463.8 131.4 M 454.0 108.7 L 458.0 112.7 M 458.0 108.7 L 454.0 112.7 M 422.5 77.1 L 426.5 81.1 M 426.5 77.1 L 422.5 81.1 M 411.8 54.6 L 415.8 58.6 M 415.8 54.6 L 411.8 58.6 M 384.1 54.0 L 388.1 58.0 M 388.1 54.0 L 384.1 58.0 M 478.7 198.2 L 482.7 202.2 M 482.7 198.2 L 478.7 202.2 M 375.6 365.2 L 379.6 369.2 M 379.6 365.2 L 375.6 369.2 M 350.7 70.8 L 354.7 74.8 M 354.7 70.8 L 350.7 74.8 M 54.7 141.1 L 58.7 145.1 M 58.7 141.1 L 54.7 145.1 M 97.4 176.3 L 101.4 180.3 M 101.4 176.3 L 97.4 180.3 M 98.2 143.5 L 102.2 147.5 M 102.2 143.5 L 98.2 147.5 M 110.2 123.1 L 114.2 127.1 M 114.2 123.1 L 110.2 127.1 M 117.7 93.7 L 121.7 97.7 M 121.7 93.7 L 117.7 97.7 M 95.6 74.6 L 99.6 78.6 M 99.6 74.6 L 95.6 78.6 M 112.9 57.7 L 116.9 61.7 M 116.9 57.7 L 112.9 61.7 M 221.5 283.1 L 225.5 287.1 M 225.5 283.1 L 221.5 287.1 M 180.6 249.6 L 184.6 253.6 M 184.6 249.6 L 180.6 253.6 M 193.6 193.8 L 197.6 197.8 M 197.6 193.8 L 193.6 197.8 M 186.9 148.2 L 190.9 152.2 M 190.9 148.2 L 186.9 152.2"
       display="none"
       id="marqueM_001"
       stroke="brown" />
    <path
       d="M 386.9 488.7 L 331.5 488.4 M 284.3 520.1 L 337.4 429.0 M 139.9 447.5 L 118.7 384.7 M 139.9 447.5 L 91.7 429.0 M 118.7 384.7 L 158.0 361.6 M 60.9 304.9 L 86.5 261.4 M 40.7 242.5 L 67.7 209.5 M 239.6 344.1 L 220.4 411.1 M 386.9 488.7 L 294.1 598.2 M 322.0 623.1 L 294.1 598.2 M 187.2 477.0 L 92.1 510.0 M 213.3 503.1 L 151.2 517.4 M 386.9 488.7 L 367.4 612.0 M 435.0 526.7 L 475.4 579.7 M 417.1 411.5 L 457.6 441.0 M 259.1 637.5 L 230.6 621.7 M 435.9 319.1 L 460.0 239.4 M 358.7 261.6 L 350.2 208.4 M 358.7 261.6 L 320.4 206.8 M 299.7 255.4 L 320.4 206.8 M 299.7 255.4 L 231.1 225.3 M 253.4 166.5 L 320.4 206.8 M 78.3 153.5 L 67.7 209.5 M 304.7 310.9 L 249.4 266.9 M 159.0 263.7 L 249.4 266.9 M 155.1 210.8 L 206.2 239.5"
       id="plisV_001"
       stroke="green"
       stroke-dasharray="4 1 1 1"
       stroke-width="1.27" />
    <path
       d="M 357.2 486.5 L 361.2 490.5 M 361.2 486.5 L 357.2 490.5 M 308.8 472.6 L 312.8 476.6 M 312.8 472.6 L 308.8 476.6 M 127.3 414.1 L 131.3 418.1 M 131.3 414.1 L 127.3 418.1 M 113.8 436.2 L 117.8 440.2 M 117.8 436.2 L 113.8 440.2 M 136.3 371.2 L 140.3 375.2 M 140.3 371.2 L 136.3 375.2 M 71.7 281.2 L 75.7 285.2 M 75.7 281.2 L 71.7 285.2 M 52.2 224.0 L 56.2 228.0 M 56.2 224.0 L 52.2 228.0 M 228.0 375.6 L 232.0 379.6 M 232.0 375.6 L 228.0 379.6 M 338.5 541.4 L 342.5 545.4 M 342.5 541.4 L 338.5 545.4 M 306.1 608.6 L 310.1 612.6 M 310.1 608.6 L 306.1 612.6 M 137.6 491.5 L 141.6 495.5 M 141.6 491.5 L 137.6 495.5 M 180.3 508.3 L 184.3 512.3 M 184.3 508.3 L 180.3 512.3 M 375.1 548.3 L 379.1 552.3 M 379.1 548.3 L 375.1 552.3 M 453.2 551.2 L 457.2 555.2 M 457.2 551.2 L 453.2 555.2 M 435.3 424.3 L 439.3 428.3 M 439.3 424.3 L 435.3 428.3 M 242.9 627.6 L 246.9 631.6 M 246.9 627.6 L 242.9 631.6 M 446.0 277.2 L 450.0 281.2 M 450.0 277.2 L 446.0 281.2 M 352.5 233.0 L 356.5 237.0 M 356.5 233.0 L 352.5 237.0 M 337.6 232.2 L 341.6 236.2 M 341.6 232.2 L 337.6 236.2 M 308.0 229.1 L 312.0 233.1 M 312.0 229.1 L 308.0 233.1 M 263.4 238.4 L 267.4 242.4 M 267.4 238.4 L 263.4 242.4 M 284.9 184.6 L 288.9 188.6 M 288.9 184.6 L 284.9 188.6 M 71.0 179.5 L 75.0 183.5 M 75.0 179.5 L 71.0 183.5 M 275.1 286.9 L 279.1 290.9 M 279.1 286.9 L 275.1 290.9 M 202.2 263.3 L 206.2 267.3 M 206.2 263.3 L 202.2 267.3 M 178.6 223.2 L 182.6 227.2 M 182.6 223.2 L 178.6 227.2"
       id="marqueV_001"
       stroke="green" />
    <path
       d="M 251.0 359.4 L 252.5 358.7 L 254.7 356.4 L 254.7 372.2"
       id="titre_1"
       stroke="indigo" />
  </g>
  <g
     id="page_002">
    <path
       d="M 997.6 556.7 L 997.1 556.2 L 996.0 555.7 L 1002.0 553.7 M 986.0 585.1 L 985.4 585.9 L 985.6 586.6 L 985.9 587.1 L 986.5 587.3 L 987.2 587.2 L 988.3 586.7 L 989.2 586.4 L 990.1 586.5 L 990.7 586.8 L 991.2 587.5 L 991.4 588.2 L 991.3 588.6 L 990.8 589.4 L 989.8 590.1 L 988.9 590.4 L 988.5 590.4 L 987.9 590.1 L 987.4 589.4 L 987.2 588.7 L 987.3 587.9 L 987.9 587.1 L 988.6 586.1 L 988.9 585.5 L 988.8 584.9 L 988.4 584.4 L 987.8 584.1 L 986.9 584.4 L 985.9 585.2 M 992.4 581.3 L 991.8 581.0 L 990.9 581.3 L 990.4 581.7 L 989.9 582.5 L 990.0 583.5 L 990.7 584.9 L 991.6 586.1 L 992.6 586.9 L 993.4 587.0 L 994.3 586.7 L 994.5 586.5 L 995.1 585.7 L 995.2 584.9 L 994.9 584.0 L 994.7 583.7 L 993.9 583.2 L 993.0 583.1 L 992.1 583.4 L 991.9 583.6 L 991.4 584.4 L 991.3 585.2 L 991.6 586.1 M 971.9 581.2 L 971.2 580.6 L 970.5 580.7 L 970.0 581.1 L 969.7 581.6 L 969.8 582.3 L 970.2 583.5 L 970.5 584.4 L 970.4 585.2 L 970.0 585.8 L 969.3 586.3 L 968.6 586.4 L 968.2 586.3 L 967.5 585.8 L 966.8 584.8 L 966.5 583.9 L 966.6 583.4 L 966.9 582.9 L 967.6 582.3 L 968.3 582.3 L 969.1 582.4 L 969.9 583.0 L 970.8 583.8 L 971.4 584.1 L 972.1 584.0 L 972.6 583.7 L 972.9 583.1 L 972.6 582.2 L 971.9 581.1 M 976.2 587.3 L 974.5 584.8 L 972.1 586.1 L 972.5 586.2 L 973.3 586.8 L 973.8 587.5 L 974.0 588.4 L 973.9 589.2 L 973.3 590.0 L 972.8 590.3 L 971.9 590.6 L 971.1 590.5 L 970.3 589.9 L 969.8 589.2 L 969.5 588.2 L 969.6 587.8 L 969.9 587.2 M 993.5 496.9 L 993.6 497.8 L 994.2 498.2 L 994.8 498.3 L 995.4 498.1 L 995.8 497.6 L 996.3 496.4 L 996.7 495.6 L 997.4 495.1 L 998.0 494.9 L 998.9 495.0 L 999.5 495.4 L 999.7 495.8 L 999.9 496.7 L 999.7 497.9 L 999.2 498.7 L 998.9 499.0 L 998.3 499.2 L 997.4 499.0 L 996.8 498.7 L 996.3 498.0 L 996.2 497.0 L 996.1 495.8 L 995.9 495.2 L 995.3 494.8 L 994.7 494.7 L 994.1 494.9 L 993.7 495.7 L 993.4 497.0 M 994.5 490.0 L 998.2 493.6 L 998.9 489.2 M 994.5 490.0 L 1000.7 491.0 M 995.3 457.6 L 996.2 458.0 L 996.8 457.7 L 997.2 457.3 L 997.4 456.6 L 997.1 456.0 L 996.4 455.0 L 996.0 454.2 L 995.9 453.3 L 996.1 452.7 L 996.7 452.0 L 997.3 451.7 L 997.7 451.7 L 998.6 452.1 L 999.5 452.9 L 1000.0 453.7 L 1000.0 454.1 L 999.8 454.8 L 999.2 455.5 L 998.6 455.7 L 997.8 455.8 L 996.9 455.4 L 995.8 454.8 L 995.1 454.6 L 994.5 454.9 L 994.1 455.3 L 993.9 456.0 L 994.4 456.8 L 995.4 457.7 M 993.0 453.6 L 992.8 453.8 L 992.2 454.0 L 991.8 454.1 L 991.2 453.9 L 990.3 453.1 L 990.0 452.5 L 990.0 452.1 L 990.2 451.4 L 990.6 451.0 L 991.2 450.7 L 992.2 450.4 L 996.5 450.2 L 993.3 447.4 M 942.6 521.6 L 942.9 520.7 L 942.7 520.1 L 942.2 519.7 L 941.5 519.6 L 940.9 519.8 L 939.9 520.5 L 939.1 521.0 L 938.3 521.1 L 937.6 520.9 L 936.9 520.4 L 936.7 519.7 L 936.6 519.3 L 937.0 518.4 L 937.8 517.5 L 938.6 517.0 L 939.0 517.0 L 939.7 517.2 L 940.3 517.7 L 940.6 518.4 L 940.7 519.2 L 940.3 520.1 L 939.8 521.2 L 939.6 521.8 L 939.9 522.5 L 940.3 522.9 L 941.0 523.0 L 941.8 522.5 L 942.7 521.5 M 938.9 525.9 L 939.2 525.0 L 939.0 524.0 L 938.0 522.8 L 937.3 522.2 L 936.0 521.5 L 934.9 521.3 L 934.1 521.8 L 933.7 522.3 L 933.4 523.2 L 933.7 524.2 L 934.6 525.4 L 935.3 526.0 L 936.6 526.7 L 937.7 526.9 L 938.5 526.4 L 938.8 526.0 M 986.2 411.6 L 985.9 411.5 L 985.3 411.1 L 985.1 410.8 L 984.9 410.1 L 985.1 409.0 L 985.6 408.4 L 985.9 408.2 L 986.5 408.0 L 987.1 408.1 L 987.7 408.5 L 988.4 409.3 L 990.8 412.8 L 991.6 408.7 M 985.7 405.8 L 986.4 402.5 L 988.4 404.8 L 988.5 403.9 L 989.0 403.3 L 989.3 403.1 L 990.2 403.0 L 990.8 403.1 L 991.7 403.5 L 992.1 404.2 L 992.3 405.2 L 992.1 406.1 L 991.6 406.9 L 991.3 407.1 L 990.6 407.3 M 973.5 340.6 L 973.2 340.8 L 972.5 340.8 L 972.1 340.7 L 971.6 340.3 L 971.0 339.2 L 971.0 338.5 L 971.1 338.1 L 971.5 337.6 L 972.1 337.3 L 972.7 337.3 L 973.8 337.4 L 977.8 338.7 L 975.9 335.0 M 969.8 332.4 L 970.8 332.3 L 971.6 332.5 L 972.3 333.2 L 972.4 333.5 L 972.6 334.4 L 972.3 335.2 L 971.6 335.9 L 971.4 336.0 L 970.4 336.2 L 969.6 335.9 L 968.9 335.3 L 968.8 335.0 L 968.7 334.1 L 968.9 333.3 L 969.8 332.4 L 971.2 331.7 L 972.6 331.3 L 973.7 331.4 L 974.4 332.1 L 974.7 332.6 L 974.8 333.6 L 974.4 334.1 M 840.7 376.1 L 844.8 370.5 M 844.9 376.9 L 840.7 376.1 M 838.1 375.7 L 839.0 375.5 L 839.4 375.0 L 839.6 374.4 L 839.4 373.8 L 838.8 373.4 L 837.7 372.9 L 836.9 372.4 L 836.4 371.7 L 836.2 371.1 L 836.3 370.2 L 836.7 369.7 L 837.1 369.4 L 838.0 369.3 L 839.2 369.5 L 840.0 369.9 L 840.3 370.3 L 840.5 370.9 L 840.3 371.8 L 839.9 372.3 L 839.2 372.8 L 838.3 373.0 L 837.0 373.1 L 836.4 373.3 L 836.0 373.8 L 835.9 374.4 L 836.1 375.0 L 836.9 375.5 L 838.3 375.7 M 885.4 294.4 L 886.1 294.3 L 886.7 293.6 L 886.9 293.1 L 887.0 292.1 L 886.4 291.2 L 885.1 290.4 L 883.7 289.8 L 882.5 289.7 L 881.7 290.0 L 881.1 290.7 L 881.0 291.0 L 880.9 292.0 L 881.3 292.7 L 882.0 293.3 L 882.3 293.5 L 883.2 293.5 L 884.0 293.2 L 884.6 292.5 L 884.7 292.2 L 884.8 291.2 L 884.4 290.4 L 883.7 289.8 M 885.2 297.5 L 885.2 296.5 L 884.8 296.0 L 884.2 295.8 L 883.6 295.9 L 883.1 296.3 L 882.3 297.3 L 881.7 298.0 L 881.0 298.4 L 880.3 298.4 L 879.4 298.1 L 879.0 297.6 L 878.8 297.2 L 878.9 296.3 L 879.3 295.1 L 879.9 294.4 L 880.3 294.2 L 881.0 294.2 L 881.8 294.5 L 882.3 295.0 L 882.6 295.8 L 882.6 296.8 L 882.4 298.0 L 882.5 298.6 L 882.9 299.1 L 883.5 299.4 L 884.1 299.3 L 884.7 298.6 L 885.2 297.3 M 917.3 285.9 L 922.2 280.9 M 921.3 287.3 L 917.3 285.9 M 780.8 335.3 L 780.2 338.3 L 782.7 339.2 L 782.5 338.8 L 782.4 337.9 L 782.6 337.0 L 783.1 336.2 L 783.8 335.7 L 784.8 335.6 L 785.3 335.7 L 786.2 336.2 L 786.6 337.0 L 786.7 337.9 L 786.5 338.8 L 786.0 339.6 L 785.7 339.8 L 785.0 340.0 M 784.1 330.3 L 784.9 330.8 L 785.4 331.5 L 785.5 332.4 L 785.4 332.7 L 784.9 333.5 L 784.2 334.0 L 783.3 334.1 L 783.0 334.0 L 782.1 333.5 L 781.7 332.8 L 781.6 331.9 L 781.7 331.6 L 782.2 330.8 L 782.9 330.3 L 784.1 330.3 L 785.6 330.6 L 787.0 331.2 L 787.7 332.0 L 787.8 333.0 L 787.7 333.6 L 787.2 334.4 L 786.5 334.5 M 724.1 361.7 L 724.0 361.0 L 723.3 360.4 L 722.7 360.2 L 721.7 360.2 L 720.9 360.9 L 720.1 362.2 L 719.6 363.6 L 719.5 364.8 L 719.9 365.6 L 720.6 366.2 L 720.9 366.3 L 721.8 366.3 L 722.6 365.9 L 723.2 365.2 L 723.3 364.9 L 723.3 363.9 L 722.9 363.2 L 722.2 362.6 L 721.9 362.5 L 720.9 362.5 L 720.2 362.8 L 719.6 363.6 M 728.7 364.6 L 728.2 365.3 L 727.4 365.7 L 726.5 365.7 L 726.2 365.6 L 725.4 365.0 L 725.0 364.2 L 725.1 363.3 L 725.2 363.0 L 725.7 362.2 L 726.5 361.9 L 727.5 361.9 L 727.7 362.0 L 728.5 362.6 L 728.9 363.3 L 728.7 364.6 L 728.2 366.0 L 727.5 367.3 L 726.6 367.9 L 725.7 367.9 L 725.1 367.7 L 724.3 367.1 L 724.3 366.5 M 710.4 314.6 L 710.4 313.7 L 709.9 313.2 L 709.3 313.0 L 708.7 313.1 L 708.2 313.6 L 707.5 314.6 L 707.0 315.4 L 706.2 315.7 L 705.5 315.8 L 704.7 315.6 L 704.2 315.1 L 704.0 314.7 L 704.0 313.8 L 704.4 312.6 L 705.0 311.9 L 705.4 311.7 L 706.0 311.6 L 706.9 311.9 L 707.3 312.3 L 707.7 313.1 L 707.7 314.0 L 707.6 315.3 L 707.7 315.9 L 708.2 316.4 L 708.8 316.6 L 709.4 316.5 L 710.0 315.7 L 710.4 314.5 M 787.4 284.6 L 786.8 284.9 L 786.4 285.8 L 786.4 286.4 L 786.7 287.3 L 787.6 287.9 L 789.1 288.2 L 790.6 288.2 L 791.8 287.9 L 792.4 287.4 L 792.7 286.5 L 792.7 286.2 L 792.5 285.3 L 791.9 284.7 L 791.0 284.3 L 790.7 284.3 L 789.8 284.6 L 789.2 285.2 L 788.8 286.1 L 788.8 286.4 L 789.1 287.3 L 789.7 287.9 L 790.6 288.2 M 786.6 279.5 L 786.5 282.5 L 789.2 282.9 L 788.9 282.6 L 788.6 281.7 L 788.6 280.8 L 789.0 279.9 L 789.6 279.3 L 790.5 279.0 L 791.1 279.0 L 792.0 279.3 L 792.5 279.9 L 792.8 280.8 L 792.8 281.7 L 792.5 282.6 L 792.2 282.9 L 791.6 283.2 M 732.3 232.2 L 732.4 232.8 L 733.1 233.9 L 727.0 232.5 M 732.4 238.2 L 729.0 234.3 L 728.0 238.7 M 732.4 238.2 L 726.3 236.8 M 819.0 152.0 L 816.1 153.6 L 816.5 150.6 L 815.7 151.1 L 815.0 151.1 L 814.6 151.0 L 813.9 150.3 L 813.6 149.8 L 813.5 148.9 L 813.7 148.1 L 814.3 147.4 L 815.1 146.9 L 816.1 146.8 L 816.5 146.9 L 817.0 147.3 M 814.2 153.0 L 813.8 153.6 L 813.4 154.8 L 810.4 149.3 M 845.7 188.0 L 845.3 187.5 L 844.4 187.4 L 843.8 187.6 L 843.0 188.1 L 842.6 189.1 L 842.6 190.6 L 843.0 192.1 L 843.5 193.2 L 844.2 193.6 L 845.2 193.7 L 845.5 193.6 L 846.3 193.1 L 846.7 192.4 L 846.8 191.5 L 846.8 191.2 L 846.3 190.4 L 845.5 189.9 L 844.6 189.8 L 844.3 189.9 L 843.5 190.4 L 843.0 191.1 L 843.0 192.1 M 847.5 186.7 L 850.7 186.0 L 849.5 188.7 L 850.4 188.5 L 851.0 188.7 L 851.4 188.9 L 851.9 189.7 L 852.0 190.3 L 851.9 191.3 L 851.5 192.0 L 850.7 192.5 L 849.8 192.7 L 848.8 192.6 L 848.5 192.3 L 848.1 191.8 M 894.1 201.5 L 894.2 200.9 L 893.8 200.1 L 893.3 199.7 L 892.4 199.3 L 891.4 199.5 L 890.2 200.5 L 889.2 201.6 L 888.6 202.7 L 888.6 203.5 L 889.1 204.3 L 889.3 204.5 L 890.2 204.9 L 891.0 204.9 L 891.9 204.4 L 892.1 204.2 L 892.4 203.3 L 892.4 202.5 L 891.9 201.6 L 891.7 201.4 L 890.8 201.1 L 890.0 201.1 L 889.2 201.6 M 898.7 204.5 L 892.3 207.2 M 895.6 201.7 L 898.7 204.5 M 903.1 169.4 L 903.1 170.1 L 903.8 170.7 L 904.4 171.0 L 905.3 171.1 L 906.2 170.5 L 907.1 169.3 L 907.8 168.0 L 908.0 166.7 L 907.7 166.0 L 907.1 165.3 L 906.8 165.2 L 905.8 165.1 L 905.0 165.3 L 904.4 166.0 L 904.3 166.3 L 904.1 167.2 L 904.4 168.0 L 905.1 168.7 L 905.4 168.8 L 906.3 168.9 L 907.1 168.6 L 907.8 168.0 M 902.1 168.4 L 901.4 168.4 L 900.2 168.8 L 902.9 163.1 M 923.6 513.4 L 923.2 514.2 L 923.3 514.9 L 923.7 515.3 L 924.4 515.6 L 925.0 515.4 L 926.1 514.8 L 927.0 514.5 L 927.8 514.5 L 928.5 514.8 L 929.1 515.4 L 929.2 516.1 L 929.2 516.5 L 928.7 517.3 L 927.8 518.1 L 927.0 518.5 L 926.5 518.5 L 925.9 518.2 L 925.3 517.5 L 925.1 516.9 L 925.2 516.0 L 925.7 515.2 L 926.4 514.2 L 926.6 513.6 L 926.4 512.9 L 926.0 512.5 L 925.4 512.2 L 924.5 512.6 L 923.5 513.5 M 927.9 509.7 L 927.4 510.5 L 927.5 511.5 L 928.3 512.9 L 928.9 513.5 L 930.1 514.5 L 931.2 514.7 L 932.1 514.4 L 932.5 514.0 L 933.0 513.1 L 932.8 512.1 L 932.1 510.8 L 931.5 510.1 L 930.2 509.2 L 929.2 508.9 L 928.3 509.3 L 928.0 509.6 M 841.4 422.4 L 839.0 428.9 M 837.2 422.8 L 841.4 422.4 M 846.6 424.0 L 846.4 424.9 L 845.9 425.5 L 845.0 425.9 L 844.7 426.0 L 843.8 425.7 L 843.1 425.2 L 842.7 424.3 L 842.7 424.0 L 842.9 423.1 L 843.4 422.5 L 844.3 422.1 L 844.6 422.1 L 845.5 422.3 L 846.2 422.8 L 846.6 424.0 L 846.7 425.5 L 846.6 427.0 L 846.1 427.9 L 845.2 428.3 L 844.6 428.4 L 843.7 428.2 L 843.3 427.6 M 762.7 452.6 L 765.0 459.2 M 759.7 455.6 L 762.7 452.6 M 763.9 451.4 L 766.2 449.0 L 766.7 452.0 L 767.3 451.4 L 767.9 451.1 L 768.4 451.1 L 769.2 451.6 L 769.6 452.0 L 770.1 452.8 L 770.1 453.7 L 769.6 454.5 L 769.0 455.2 L 768.2 455.6 L 767.7 455.6 L 767.1 455.4 M 634.6 459.3 L 628.0 461.5 M 631.7 456.3 L 634.6 459.3 M 638.2 463.1 L 631.5 465.2 M 635.3 460.0 L 638.2 463.1 M 693.2 379.7 L 687.1 376.2 M 693.5 375.5 L 693.2 379.7 M 691.7 380.7 L 691.9 381.3 L 692.8 382.2 L 686.5 381.8 M 721.5 378.5 L 721.6 379.2 L 722.4 379.7 L 723.0 379.9 L 723.9 379.9 L 724.7 379.2 L 725.4 377.8 L 725.8 376.4 L 725.9 375.1 L 725.5 374.4 L 724.7 373.8 L 724.4 373.8 L 723.4 373.8 L 722.7 374.2 L 722.2 375.0 L 722.1 375.3 L 722.1 376.2 L 722.5 377.0 L 723.3 377.5 L 723.6 377.6 L 724.6 377.6 L 725.3 377.1 L 725.8 376.4 M 716.6 375.9 L 717.2 375.1 L 717.9 374.7 L 718.9 374.7 L 719.2 374.8 L 719.9 375.3 L 720.4 376.0 L 720.4 377.0 L 720.3 377.3 L 719.8 378.1 L 719.0 378.5 L 718.1 378.5 L 717.8 378.4 L 717.0 377.9 L 716.6 377.2 L 716.6 375.9 L 717.1 374.5 L 717.8 373.1 L 718.6 372.4 L 719.5 372.4 L 720.1 372.5 L 720.9 373.1 L 721.0 373.7 M 898.9 508.8 L 898.0 508.6 L 897.4 508.9 L 897.1 509.4 L 897.0 510.1 L 897.3 510.7 L 898.1 511.6 L 898.7 512.3 L 898.9 513.2 L 898.8 513.8 L 898.3 514.6 L 897.7 514.9 L 897.3 515.0 L 896.4 514.7 L 895.4 514.1 L 894.8 513.3 L 894.7 512.9 L 894.8 512.3 L 895.3 511.5 L 895.9 511.2 L 896.7 511.0 L 897.6 511.2 L 898.8 511.7 L 899.5 511.7 L 900.1 511.4 L 900.4 510.9 L 900.5 510.2 L 899.9 509.5 L 898.8 508.7 M 901.2 512.1 L 901.9 512.2 L 903.2 511.9 L 899.7 517.2 M 754.3 148.5 L 752.0 146.1 L 755.0 145.7 L 754.4 145.1 L 754.2 144.5 L 754.2 144.0 L 754.7 143.2 L 755.1 142.8 L 756.0 142.4 L 756.8 142.4 L 757.6 142.8 L 758.3 143.5 L 758.7 144.4 L 758.7 144.8 L 758.4 145.4 M 748.6 142.4 L 750.6 144.6 L 752.8 143.0 L 752.4 143.0 L 751.5 142.5 L 750.9 141.9 L 750.5 141.0 L 750.5 140.2 L 751.0 139.3 L 751.4 138.9 L 752.3 138.5 L 753.1 138.5 L 754.0 139.0 L 754.6 139.6 L 755.0 140.5 L 755.0 140.9 L 754.8 141.5 M 697.5 180.6 L 698.2 180.5 L 699.3 179.9 L 697.2 185.9 M 703.5 181.1 L 699.3 184.1 L 703.5 185.6 M 703.5 181.1 L 701.4 187.0 M 686.2 534.9 L 686.2 534.2 L 685.9 533.0 L 691.3 536.1 M 687.8 532.2 L 687.5 532.1 L 687.2 531.5 L 687.1 531.1 L 687.1 530.4 L 687.7 529.4 L 688.2 529.0 L 688.7 528.9 L 689.3 528.9 L 689.8 529.2 L 690.2 529.8 L 690.7 530.8 L 691.8 534.9 L 693.9 531.2 M 638.1 502.7 L 635.4 496.2 M 640.9 499.5 L 638.1 502.7 M 636.1 504.9 L 636.5 504.0 L 636.2 503.0 L 635.3 501.7 L 634.6 501.1 L 633.3 500.4 L 632.2 500.2 L 631.4 500.7 L 631.0 501.2 L 630.7 502.0 L 630.9 503.1 L 631.9 504.3 L 632.5 504.9 L 633.8 505.7 L 634.9 505.8 L 635.7 505.3 L 636.0 505.0 M 656.1 560.4 L 654.7 567.2 M 652.0 561.4 L 656.1 560.4 M 657.5 561.5 L 658.0 561.0 L 658.6 559.9 L 660.2 566.1 M 636.1 539.1 L 629.2 538.6 M 634.6 535.2 L 636.1 539.1 M 635.3 541.2 L 635.6 541.1 L 636.3 541.2 L 636.7 541.3 L 637.2 541.8 L 637.6 542.9 L 637.5 543.6 L 637.4 544.0 L 636.9 544.5 L 636.4 544.7 L 635.7 544.6 L 634.6 544.4 L 630.8 542.7 L 632.3 546.6 M 679.2 137.4 L 679.4 138.1 L 680.2 139.1 L 673.9 138.1 M 679.9 142.1 L 679.7 141.1 L 678.9 140.4 L 677.5 139.8 L 676.6 139.7 L 675.1 139.7 L 674.1 140.2 L 673.7 141.0 L 673.6 141.6 L 673.7 142.5 L 674.5 143.3 L 675.9 143.8 L 676.8 144.0 L 678.3 143.9 L 679.3 143.5 L 679.8 142.7 L 679.8 142.2 M 848.0 345.7 L 842.6 350.1 M 844.2 343.9 L 848.0 345.7 M 850.4 346.8 L 849.5 346.7 L 849.0 347.1 L 848.7 347.6 L 848.7 348.3 L 849.1 348.8 L 850.1 349.6 L 850.8 350.3 L 851.1 351.0 L 851.1 351.7 L 850.7 352.5 L 850.2 353.0 L 849.8 353.1 L 848.9 353.0 L 847.8 352.5 L 847.1 351.8 L 846.9 351.4 L 846.9 350.8 L 847.3 350.0 L 847.8 349.5 L 848.6 349.2 L 849.6 349.4 L 850.8 349.6 L 851.4 349.6 L 852.0 349.1 L 852.2 348.6 L 852.2 347.9 L 851.5 347.3 L 850.3 346.7 M 850.8 311.5 L 850.5 312.1 L 850.9 313.0 L 851.3 313.4 L 852.2 313.8 L 853.2 313.7 L 854.5 312.9 L 855.6 311.9 L 856.3 310.8 L 856.3 310.0 L 855.9 309.1 L 855.7 308.9 L 854.9 308.4 L 854.1 308.4 L 853.2 308.8 L 853.0 309.0 L 852.5 309.8 L 852.5 310.7 L 852.9 311.5 L 853.1 311.8 L 853.9 312.2 L 854.8 312.2 L 855.6 311.9 M 847.9 309.7 L 848.7 310.1 L 849.8 310.0 L 851.1 309.2 L 851.7 308.6 L 852.6 307.3 L 852.9 306.3 L 852.5 305.4 L 852.1 305.0 L 851.3 304.5 L 850.2 304.7 L 848.9 305.5 L 848.2 306.1 L 847.3 307.3 L 847.1 308.4 L 847.5 309.3 L 847.8 309.6 M 805.5 306.8 L 806.0 303.8 L 803.4 303.1 L 803.6 303.4 L 803.8 304.4 L 803.6 305.2 L 803.1 306.1 L 802.5 306.6 L 801.5 306.7 L 800.9 306.6 L 800.1 306.1 L 799.6 305.4 L 799.5 304.5 L 799.6 303.6 L 800.1 302.8 L 800.4 302.5 L 801.1 302.4 M 802.4 312.0 L 801.6 311.5 L 801.1 310.8 L 801.0 309.9 L 801.0 309.6 L 801.5 308.8 L 802.1 308.3 L 803.1 308.1 L 803.4 308.2 L 804.2 308.6 L 804.7 309.3 L 804.8 310.3 L 804.8 310.6 L 804.3 311.4 L 803.6 311.9 L 802.4 312.0 L 800.9 311.7 L 799.5 311.2 L 798.7 310.4 L 798.6 309.5 L 798.7 308.9 L 799.1 308.1 L 799.8 307.9 M 821.9 296.6 L 824.9 297.1 L 825.6 294.5 L 825.3 294.7 L 824.4 294.9 L 823.5 294.7 L 822.6 294.2 L 822.2 293.5 L 822.0 292.6 L 822.1 292.0 L 822.6 291.2 L 823.3 290.7 L 824.2 290.6 L 825.1 290.7 L 825.9 291.2 L 826.2 291.5 L 826.4 292.2 M 818.7 296.0 L 819.7 295.8 L 820.1 295.3 L 820.2 294.7 L 820.0 294.1 L 819.4 293.7 L 818.3 293.2 L 817.5 292.7 L 817.0 292.0 L 816.8 291.4 L 817.0 290.5 L 817.4 289.9 L 817.7 289.7 L 818.7 289.6 L 819.8 289.8 L 820.7 290.2 L 820.9 290.6 L 821.1 291.2 L 820.9 292.1 L 820.5 292.6 L 819.8 293.1 L 818.9 293.3 L 817.7 293.4 L 817.0 293.5 L 816.6 294.1 L 816.5 294.7 L 816.7 295.3 L 817.5 295.8 L 818.9 296.0 M 747.1 507.4 L 746.6 506.9 L 745.5 506.2 L 751.6 504.6 M 744.7 503.7 L 745.2 504.5 L 745.8 504.6 L 746.4 504.5 L 746.9 504.1 L 747.1 503.4 L 747.1 502.2 L 747.1 501.2 L 747.6 500.5 L 748.1 500.0 L 748.9 499.8 L 749.6 500.0 L 750.0 500.2 L 750.5 501.0 L 750.8 502.1 L 750.7 503.1 L 750.5 503.4 L 750.0 503.9 L 749.1 504.1 L 748.5 504.0 L 747.7 503.5 L 747.2 502.7 L 746.6 501.7 L 746.2 501.2 L 745.5 501.0 L 744.9 501.2 L 744.4 501.6 L 744.4 502.5 L 744.7 503.9 M 733.3 507.3 L 733.9 507.3 L 735.1 506.7 L 732.9 512.6 M 739.2 510.2 L 738.6 511.0 L 737.8 511.3 L 736.9 511.3 L 736.6 511.2 L 735.8 510.6 L 735.5 509.8 L 735.5 508.9 L 735.6 508.6 L 736.2 507.9 L 737.0 507.5 L 737.9 507.5 L 738.2 507.6 L 739.0 508.2 L 739.3 509.0 L 739.2 510.2 L 738.7 511.6 L 737.9 512.9 L 737.0 513.6 L 736.0 513.6 L 735.5 513.3 L 734.7 512.8 L 734.7 512.1 M 657.7 72.5 L 660.1 74.8 L 657.1 75.3 L 657.8 75.9 L 658.0 76.5 L 658.0 76.9 L 657.6 77.8 L 657.2 78.2 L 656.3 78.7 L 655.5 78.7 L 654.6 78.3 L 654.0 77.6 L 653.6 76.8 L 653.5 76.4 L 653.7 75.7 M 663.4 77.9 L 658.4 78.9 L 661.6 82.0 M 663.4 77.9 L 659.1 82.5 M 663.9 66.4 L 660.6 66.6 L 662.3 64.1 L 661.4 64.1 L 660.7 63.9 L 660.4 63.6 L 660.1 62.7 L 660.0 62.1 L 660.3 61.2 L 660.8 60.6 L 661.7 60.2 L 662.6 60.1 L 663.5 60.4 L 663.9 60.7 L 664.2 61.3 M 658.6 66.7 L 655.3 66.9 L 656.9 64.4 L 656.0 64.4 L 655.4 64.2 L 655.1 63.9 L 654.7 63.0 L 654.7 62.4 L 655.0 61.5 L 655.5 60.9 L 656.4 60.5 L 657.3 60.5 L 658.2 60.7 L 658.5 61.0 L 658.9 61.6 M 895.6 123.4 L 895.0 123.2 L 894.1 123.6 L 893.7 124.0 L 893.2 124.8 L 893.4 125.9 L 894.2 127.2 L 895.2 128.3 L 896.2 129.0 L 897.1 129.0 L 898.0 128.6 L 898.2 128.4 L 898.6 127.5 L 898.7 126.7 L 898.3 125.8 L 898.1 125.6 L 897.2 125.2 L 896.4 125.1 L 895.5 125.5 L 895.3 125.7 L 894.8 126.6 L 894.8 127.4 L 895.2 128.3 M 895.3 73.5 L 898.3 73.9 L 899.0 71.2 L 898.6 71.5 L 897.7 71.7 L 896.8 71.5 L 895.9 71.1 L 895.4 70.4 L 895.3 69.5 L 895.3 68.9 L 895.8 68.1 L 896.4 67.6 L 897.4 67.4 L 898.3 67.5 L 899.1 67.9 L 899.4 68.3 L 899.6 68.9 M 918.8 89.5 L 919.7 86.3 L 921.5 88.8 L 921.8 87.9 L 922.2 87.4 L 922.6 87.2 L 923.6 87.2 L 924.1 87.4 L 924.9 87.9 L 925.3 88.7 L 925.3 89.6 L 925.0 90.5 L 924.5 91.3 L 924.1 91.5 L 923.5 91.6 M 720.9 49.1 L 721.9 44.1 L 717.8 46.0 M 720.9 49.1 L 718.2 43.4 M 762.3 104.6 L 765.6 104.3 L 764.0 106.8 L 764.9 106.8 L 765.5 107.0 L 765.8 107.3 L 766.2 108.2 L 766.2 108.8 L 766.0 109.7 L 765.4 110.3 L 764.6 110.7 L 763.7 110.8 L 762.8 110.5 L 762.4 110.3 L 762.1 109.7 M 770.6 103.9 L 767.6 104.1 L 767.5 106.9 L 767.8 106.5 L 768.7 106.2 L 769.6 106.1 L 770.5 106.3 L 771.1 106.9 L 771.5 107.7 L 771.5 108.3 L 771.3 109.3 L 770.8 109.9 L 769.9 110.3 L 769.0 110.3 L 768.1 110.1 L 767.7 109.8 L 767.4 109.3 M 790.2 80.2 L 790.0 76.9 L 792.5 78.5 L 792.4 77.6 L 792.7 77.0 L 793.0 76.7 L 793.8 76.3 L 794.4 76.2 L 795.3 76.5 L 796.0 77.0 L 796.4 77.9 L 796.4 78.8 L 796.2 79.7 L 796.0 80.0 L 795.4 80.4 M 791.3 75.4 L 790.9 74.9 L 789.9 74.0 L 796.2 73.5 M 774.9 42.3 L 771.8 41.3 L 774.2 39.6 L 773.4 39.3 L 772.9 38.8 L 772.7 38.5 L 772.7 37.5 L 772.9 36.9 L 773.4 36.2 L 774.2 35.8 L 775.1 35.8 L 776.0 36.0 L 776.8 36.6 L 776.9 37.0 L 777.1 37.6 M 770.4 39.3 L 770.3 39.6 L 769.8 40.1 L 769.4 40.3 L 768.8 40.4 L 767.6 40.0 L 767.2 39.5 L 767.0 39.2 L 766.9 38.5 L 767.0 37.9 L 767.5 37.4 L 768.3 36.8 L 772.1 34.8 L 768.1 33.5 M 836.7 89.2 L 839.1 87.4 L 837.7 85.0 L 837.7 85.5 L 837.1 86.2 L 836.4 86.8 L 835.5 87.1 L 834.7 86.9 L 833.9 86.4 L 833.5 85.9 L 833.2 85.0 L 833.4 84.2 L 833.9 83.4 L 834.6 82.9 L 835.5 82.6 L 835.9 82.6 L 836.5 82.9 M 823.5 107.3 L 826.2 109.2 L 823.3 110.1 L 824.0 110.7 L 824.4 111.3 L 824.4 111.7 L 824.2 112.6 L 823.8 113.1 L 823.1 113.6 L 822.2 113.8 L 821.3 113.5 L 820.6 113.0 L 820.0 112.2 L 819.9 111.8 L 820.0 111.1 M 826.9 111.6 L 827.1 111.3 L 827.7 111.0 L 828.1 110.9 L 828.8 111.0 L 829.7 111.7 L 830.1 112.3 L 830.1 112.7 L 830.0 113.4 L 829.7 113.9 L 829.1 114.2 L 828.1 114.6 L 823.9 115.3 L 827.3 117.7 M 853.1 455.8 L 852.9 448.9 M 856.8 453.9 L 853.1 455.8 M 847.6 456.2 L 847.5 455.3 L 847.8 454.5 L 848.4 453.8 L 848.7 453.7 L 849.6 453.5 L 850.4 453.8 L 851.1 454.5 L 851.2 454.7 L 851.4 455.7 L 851.1 456.5 L 850.5 457.2 L 850.2 457.3 L 849.2 457.4 L 848.4 457.2 L 847.6 456.2 L 847.0 454.9 L 846.5 453.4 L 846.7 452.4 L 847.3 451.7 L 847.9 451.4 L 848.8 451.3 L 849.4 451.7 M 857.8 503.3 L 857.0 510.2 M 853.8 504.7 L 857.8 503.3 M 861.8 501.8 L 860.4 506.8 L 864.6 505.3 M 861.8 501.8 L 863.9 507.8 M 828.9 487.8 L 822.3 490.0 M 826.0 484.8 L 828.9 487.8 M 832.2 491.1 L 830.1 489.0 L 828.0 490.7 L 828.4 490.7 L 829.3 491.1 L 829.9 491.7 L 830.3 492.6 L 830.3 493.5 L 829.9 494.3 L 829.4 494.7 L 828.6 495.1 L 827.7 495.1 L 826.9 494.7 L 826.3 494.1 L 825.8 493.2 L 825.8 492.8 L 826.1 492.1 M 900.3 539.6 L 901.2 539.5 L 901.6 538.9 L 901.7 538.3 L 901.5 537.7 L 900.9 537.3 L 899.8 536.8 L 898.9 536.4 L 898.4 535.7 L 898.2 535.1 L 898.4 534.2 L 898.7 533.6 L 899.1 533.4 L 900.0 533.2 L 901.2 533.4 L 902.1 533.8 L 902.3 534.2 L 902.5 534.8 L 902.4 535.7 L 902.0 536.2 L 901.3 536.7 L 900.4 536.9 L 899.1 537.0 L 898.5 537.2 L 898.1 537.8 L 898.0 538.4 L 898.2 539.0 L 899.1 539.4 L 900.4 539.6 M 896.7 537.6 L 896.1 537.8 L 895.1 538.6 L 896.0 532.4 M 949.1 595.5 L 949.4 596.4 L 950.0 596.7 L 950.6 596.7 L 951.2 596.4 L 951.5 595.8 L 951.9 594.6 L 952.2 593.7 L 952.8 593.1 L 953.4 592.8 L 954.3 592.9 L 954.9 593.2 L 955.2 593.5 L 955.5 594.4 L 955.4 595.6 L 955.1 596.5 L 954.8 596.8 L 954.2 597.1 L 953.3 597.0 L 952.7 596.7 L 952.1 596.1 L 951.8 595.2 L 951.6 594.0 L 951.3 593.4 L 950.7 593.1 L 950.1 593.1 L 949.5 593.4 L 949.2 594.3 L 949.1 595.6 M 949.3 588.0 L 949.2 591.0 L 951.9 591.4 L 951.6 591.1 L 951.3 590.2 L 951.4 589.3 L 951.7 588.4 L 952.3 587.8 L 953.2 587.5 L 953.8 587.5 L 954.7 587.8 L 955.3 588.4 L 955.6 589.3 L 955.5 590.2 L 955.2 591.1 L 954.9 591.4 L 954.3 591.7 M 858.7 535.0 L 861.9 528.9 M 862.8 535.2 L 858.7 535.0 M 854.4 535.0 L 857.5 530.9 L 853.0 530.7 M 854.4 535.0 L 854.6 528.7 M 820.7 512.1 L 827.6 511.0 M 823.1 515.6 L 820.7 512.1 M 818.7 507.7 L 818.4 508.3 L 818.7 509.2 L 819.0 509.7 L 819.8 510.2 L 820.8 510.2 L 822.2 509.6 L 823.5 508.8 L 824.3 507.8 L 824.4 507.0 L 824.2 506.1 L 824.0 505.9 L 823.2 505.3 L 822.4 505.1 L 821.5 505.4 L 821.3 505.6 L 820.7 506.3 L 820.5 507.2 L 820.8 508.1 L 821.0 508.3 L 821.7 508.9 L 822.6 509.0 L 823.5 508.8 M 785.0 504.9 L 785.0 505.6 L 785.5 506.7 L 779.7 504.3 M 783.7 511.6 L 779.0 506.4 M 785.3 507.7 L 783.7 511.6 M 803.0 495.0 L 802.4 495.4 L 801.6 496.4 L 801.0 490.1 M 796.8 496.2 L 797.2 496.7 L 798.1 496.9 L 798.7 496.9 L 799.6 496.5 L 800.1 495.5 L 800.2 494.0 L 800.1 492.5 L 799.6 491.4 L 799.0 490.8 L 798.1 490.6 L 797.8 490.6 L 796.9 491.0 L 796.4 491.7 L 796.2 492.6 L 796.2 492.9 L 796.6 493.8 L 797.2 494.3 L 798.2 494.5 L 798.5 494.5 L 799.3 494.1 L 799.9 493.4 L 800.1 492.5 M 774.8 566.1 L 774.0 565.8 L 773.4 565.2 L 773.1 564.3 L 773.1 564.0 L 773.5 563.1 L 774.1 562.5 L 775.0 562.2 L 775.3 562.2 L 776.2 562.6 L 776.8 563.2 L 777.0 564.1 L 777.0 564.4 L 776.7 565.3 L 776.1 565.9 L 774.8 566.1 L 773.3 566.1 L 771.9 565.7 L 771.0 565.1 L 770.7 564.2 L 770.8 563.6 L 771.1 562.7 L 771.7 562.4 M 776.9 568.0 L 776.7 571.3 L 774.4 569.3 L 774.4 570.2 L 774.0 570.8 L 773.7 571.1 L 772.8 571.4 L 772.2 571.4 L 771.3 571.0 L 770.8 570.4 L 770.5 569.5 L 770.5 568.6 L 770.9 567.7 L 771.2 567.4 L 771.8 567.1 M 792.0 633.7 L 792.6 634.4 L 792.7 635.3 L 792.5 636.2 L 792.3 636.4 L 791.6 637.0 L 790.7 637.2 L 789.8 636.9 L 789.6 636.8 L 789.0 636.0 L 788.8 635.2 L 789.1 634.3 L 789.2 634.0 L 790.0 633.4 L 790.8 633.3 L 792.0 633.7 L 793.2 634.5 L 794.3 635.6 L 794.7 636.6 L 794.5 637.5 L 794.2 638.0 L 793.4 638.6 L 792.7 638.5 M 791.9 630.1 L 791.6 631.0 L 792.0 632.0 L 793.1 633.1 L 793.9 633.5 L 795.3 634.1 L 796.4 634.1 L 797.1 633.5 L 797.4 633.0 L 797.7 632.1 L 797.3 631.1 L 796.2 630.0 L 795.4 629.5 L 794.0 629.0 L 792.9 629.0 L 792.2 629.6 L 791.9 629.9 M 743.7 601.2 L 744.5 600.7 L 745.3 600.7 L 746.2 601.0 L 746.4 601.2 L 746.9 602.0 L 747.0 602.9 L 746.6 603.7 L 746.4 604.0 L 745.6 604.5 L 744.8 604.5 L 743.9 604.2 L 743.7 604.0 L 743.2 603.2 L 743.1 602.3 L 743.7 601.2 L 744.6 600.1 L 745.8 599.1 L 746.9 598.8 L 747.7 599.2 L 748.2 599.6 L 748.7 600.4 L 748.5 601.0 M 742.0 600.6 L 741.8 600.8 L 741.2 601.1 L 740.8 601.1 L 740.1 601.0 L 739.2 600.2 L 738.9 599.6 L 738.9 599.2 L 739.0 598.5 L 739.4 598.1 L 740.1 597.8 L 741.1 597.5 L 745.3 597.1 L 742.1 594.4 M 685.9 603.1 L 685.0 603.2 L 684.2 602.9 L 683.6 602.2 L 683.4 601.9 L 683.3 601.0 L 683.6 600.2 L 684.3 599.5 L 684.6 599.4 L 685.5 599.3 L 686.3 599.6 L 687.0 600.3 L 687.1 600.6 L 687.2 601.5 L 686.9 602.3 L 685.9 603.1 L 684.6 603.7 L 683.1 604.1 L 682.0 603.9 L 681.4 603.2 L 681.1 602.6 L 681.0 601.7 L 681.4 601.2 M 687.0 603.8 L 687.5 604.2 L 688.7 604.6 L 683.0 607.2 M 702.2 588.3 L 703.0 588.0 L 703.3 587.3 L 703.3 586.7 L 703.0 586.2 L 702.3 585.9 L 701.1 585.6 L 700.2 585.4 L 699.6 584.8 L 699.3 584.2 L 699.2 583.3 L 699.5 582.7 L 699.8 582.4 L 700.7 582.1 L 701.9 582.0 L 702.8 582.3 L 703.1 582.5 L 703.4 583.1 L 703.5 584.0 L 703.2 584.6 L 702.6 585.3 L 701.7 585.6 L 700.5 586.0 L 700.0 586.3 L 699.7 586.9 L 699.7 587.5 L 700.1 588.1 L 701.0 588.4 L 702.3 588.3 M 694.3 586.6 L 694.6 585.7 L 695.1 585.0 L 696.0 584.7 L 696.3 584.7 L 697.2 584.9 L 697.9 585.5 L 698.2 586.4 L 698.2 586.7 L 698.0 587.6 L 697.4 588.2 L 696.5 588.6 L 696.2 588.6 L 695.3 588.3 L 694.7 587.8 L 694.3 586.6 L 694.2 585.1 L 694.5 583.6 L 695.0 582.6 L 695.9 582.3 L 696.5 582.3 L 697.4 582.5 L 697.8 583.1 M 761.8 681.5 L 761.3 682.3 L 760.6 682.7 L 759.6 682.7 L 759.3 682.6 L 758.5 682.1 L 758.1 681.4 L 758.1 680.4 L 758.2 680.1 L 758.7 679.4 L 759.4 678.9 L 760.4 678.9 L 760.7 679.0 L 761.5 679.5 L 761.9 680.2 L 761.8 681.5 L 761.4 682.9 L 760.7 684.3 L 759.9 685.0 L 759.0 685.0 L 758.4 684.9 L 757.6 684.3 L 757.5 683.7 M 766.6 680.6 L 762.5 683.8 L 766.9 685.0 M 766.6 680.6 L 764.9 686.6 M 790.4 682.0 L 791.3 681.8 L 792.1 682.1 L 792.8 682.8 L 792.9 683.0 L 793.1 684.0 L 792.8 684.8 L 792.1 685.5 L 791.8 685.6 L 790.9 685.7 L 790.1 685.4 L 789.4 684.8 L 789.3 684.5 L 789.2 683.6 L 789.4 682.8 L 790.4 682.0 L 791.7 681.3 L 793.2 680.9 L 794.3 681.0 L 795.0 681.7 L 795.2 682.2 L 795.3 683.2 L 794.9 683.7 M 786.4 678.6 L 787.7 681.3 L 790.3 680.4 L 789.9 680.3 L 789.2 679.6 L 788.8 678.8 L 788.7 677.8 L 789.0 677.0 L 789.6 676.4 L 790.2 676.1 L 791.1 676.0 L 791.9 676.3 L 792.6 676.9 L 793.0 677.7 L 793.1 678.7 L 793.0 679.1 L 792.6 679.6 M 632.5 665.1 L 631.6 664.7 L 631.0 664.1 L 630.7 663.2 L 630.7 662.9 L 631.0 662.0 L 631.6 661.4 L 632.5 661.2 L 632.8 661.2 L 633.7 661.5 L 634.3 662.1 L 634.6 663.0 L 634.6 663.3 L 634.3 664.2 L 633.7 664.8 L 632.5 665.1 L 631.0 665.0 L 629.5 664.7 L 628.6 664.1 L 628.3 663.2 L 628.3 662.6 L 628.6 661.7 L 629.2 661.4 M 633.6 669.8 L 634.2 669.5 L 634.5 668.6 L 634.5 668.0 L 634.2 667.1 L 633.3 666.5 L 631.9 666.2 L 630.4 666.2 L 629.1 666.4 L 628.5 667.0 L 628.2 667.9 L 628.2 668.2 L 628.5 669.1 L 629.1 669.7 L 630.0 670.1 L 630.3 670.1 L 631.2 669.8 L 631.8 669.2 L 632.1 668.3 L 632.1 668.0 L 631.8 667.1 L 631.2 666.5 L 630.4 666.2 M 668.6 679.5 L 668.5 680.5 L 668.0 681.2 L 667.2 681.7 L 666.9 681.8 L 666.0 681.7 L 665.3 681.2 L 664.8 680.4 L 664.7 680.1 L 664.8 679.1 L 665.3 678.4 L 666.1 677.9 L 666.4 677.9 L 667.3 678.0 L 668.0 678.4 L 668.6 679.5 L 668.9 681.0 L 668.9 682.5 L 668.6 683.5 L 667.7 684.0 L 667.2 684.2 L 666.2 684.1 L 665.8 683.5 M 672.3 676.5 L 670.3 681.3 L 674.7 680.3 M 672.3 676.5 L 673.7 682.7 M 673.2 612.0 L 674.1 611.8 L 674.9 612.0 L 675.6 612.6 L 675.8 612.9 L 676.0 613.8 L 675.8 614.7 L 675.2 615.4 L 674.9 615.5 L 674.0 615.7 L 673.2 615.5 L 672.5 614.9 L 672.3 614.7 L 672.1 613.7 L 672.3 612.9 L 673.2 612.0 L 674.5 611.3 L 675.9 610.7 L 677.0 610.8 L 677.7 611.4 L 678.0 611.9 L 678.2 612.9 L 677.9 613.4 M 672.0 611.5 L 671.5 611.1 L 670.2 610.8 L 675.6 607.6 M 626.6 605.7 L 625.7 605.6 L 625.0 605.1 L 624.5 604.3 L 624.5 604.0 L 624.6 603.1 L 625.0 602.3 L 625.8 601.9 L 626.1 601.8 L 627.1 601.9 L 627.8 602.4 L 628.3 603.2 L 628.3 603.5 L 628.2 604.4 L 627.8 605.2 L 626.6 605.7 L 625.2 606.0 L 623.6 606.0 L 622.6 605.6 L 622.2 604.8 L 622.0 604.2 L 622.2 603.3 L 622.7 602.8 M 628.8 610.1 L 629.3 609.7 L 629.4 608.7 L 629.3 608.2 L 628.8 607.3 L 627.8 606.9 L 626.3 606.9 L 624.8 607.2 L 623.7 607.8 L 623.2 608.5 L 623.1 609.4 L 623.2 609.7 L 623.7 610.5 L 624.4 611.0 L 625.3 611.1 L 625.6 611.1 L 626.4 610.6 L 626.9 609.9 L 627.0 608.9 L 626.9 608.6 L 626.5 607.8 L 625.8 607.4 L 624.8 607.2 M 639.8 588.1 L 640.2 587.3 L 640.9 586.7 L 641.8 586.5 L 642.1 586.6 L 643.0 587.0 L 643.5 587.6 L 643.7 588.6 L 643.7 588.9 L 643.3 589.7 L 642.6 590.3 L 641.7 590.5 L 641.4 590.4 L 640.5 590.0 L 640.0 589.4 L 639.8 588.1 L 640.0 586.6 L 640.5 585.2 L 641.1 584.4 L 642.1 584.2 L 642.7 584.2 L 643.5 584.6 L 643.8 585.2 M 634.9 589.7 L 637.9 590.0 L 638.5 587.4 L 638.1 587.6 L 637.2 587.8 L 636.3 587.8 L 635.5 587.4 L 634.9 586.7 L 634.7 585.8 L 634.8 585.2 L 635.2 584.3 L 635.8 583.8 L 636.8 583.6 L 637.7 583.7 L 638.5 584.1 L 638.8 584.4 L 639.0 585.0 M 824.6 242.7 L 824.2 242.1 L 823.3 241.9 L 822.7 242.0 L 821.9 242.4 L 821.3 243.3 L 821.2 244.9 L 821.4 246.4 L 821.8 247.5 L 822.5 248.0 L 823.4 248.2 L 823.7 248.2 L 824.5 247.8 L 825.1 247.2 L 825.3 246.2 L 825.2 245.9 L 824.9 245.1 L 824.2 244.5 L 823.3 244.3 L 823.0 244.4 L 822.1 244.8 L 821.6 245.4 L 821.4 246.4 M 829.6 242.2 L 829.3 241.6 L 828.3 241.4 L 827.7 241.5 L 826.9 241.8 L 826.4 242.8 L 826.2 244.3 L 826.4 245.8 L 826.8 247.0 L 827.5 247.5 L 828.4 247.7 L 828.7 247.7 L 829.6 247.3 L 830.1 246.6 L 830.3 245.7 L 830.3 245.4 L 829.9 244.5 L 829.2 244.0 L 828.3 243.8 L 828.0 243.8 L 827.1 244.2 L 826.6 244.9 L 826.4 245.8 M 851.1 205.9 L 851.4 206.5 L 852.3 206.7 L 852.9 206.7 L 853.8 206.3 L 854.4 205.4 L 854.6 203.9 L 854.5 202.4 L 854.2 201.2 L 853.5 200.6 L 852.6 200.4 L 852.3 200.4 L 851.4 200.7 L 850.9 201.4 L 850.6 202.3 L 850.6 202.6 L 851.0 203.5 L 851.6 204.0 L 852.5 204.3 L 852.8 204.3 L 853.7 203.9 L 854.3 203.3 L 854.5 202.4 M 849.1 206.9 L 845.8 207.0 L 847.5 204.6 L 846.6 204.6 L 846.0 204.3 L 845.7 204.1 L 845.3 203.2 L 845.3 202.6 L 845.5 201.7 L 846.1 201.0 L 847.0 200.7 L 847.9 200.6 L 848.8 200.9 L 849.1 201.2 L 849.4 201.7 M 857.1 221.7 L 856.5 221.8 L 855.9 222.6 L 855.8 223.2 L 855.8 224.2 L 856.6 225.0 L 857.9 225.6 L 859.4 226.0 L 860.6 226.1 L 861.4 225.6 L 861.9 224.8 L 862.0 224.5 L 861.9 223.6 L 861.5 222.9 L 860.7 222.3 L 860.4 222.3 L 859.4 222.3 L 858.7 222.7 L 858.2 223.5 L 858.1 223.8 L 858.2 224.8 L 858.6 225.5 L 859.4 226.0 M 857.4 217.0 L 860.7 221.0 L 861.8 216.7 M 857.4 217.0 L 863.5 218.6 M 948.4 194.3 L 948.3 194.9 L 948.9 195.7 L 949.4 196.0 L 950.3 196.2 L 951.3 195.8 L 952.4 194.7 L 953.2 193.5 L 953.6 192.3 L 953.4 191.5 L 952.8 190.7 L 952.6 190.5 L 951.7 190.3 L 950.8 190.5 L 950.1 191.1 L 949.9 191.3 L 949.7 192.3 L 949.9 193.1 L 950.5 193.8 L 950.7 194.0 L 951.6 194.2 L 952.5 194.0 L 953.2 193.5 M 947.1 192.7 L 946.9 193.0 L 946.3 193.3 L 945.9 193.4 L 945.3 193.3 L 944.2 192.7 L 943.9 192.1 L 943.8 191.7 L 943.9 191.0 L 944.2 190.5 L 944.8 190.2 L 945.8 189.7 L 949.9 188.8 L 946.4 186.6 M 936.2 230.2 L 936.2 229.5 L 935.5 228.9 L 935.0 228.6 L 934.1 228.5 L 933.1 229.0 L 932.2 230.3 L 931.6 231.6 L 931.3 232.8 L 931.6 233.6 L 932.3 234.3 L 932.5 234.4 L 933.5 234.5 L 934.3 234.3 L 934.9 233.6 L 935.1 233.3 L 935.2 232.4 L 934.9 231.6 L 934.2 230.9 L 934.0 230.8 L 933.0 230.6 L 932.2 230.9 L 931.6 231.6 M 941.6 231.8 L 936.1 236.1 M 937.8 229.9 L 941.6 231.8 M 956.8 224.2 L 956.2 224.4 L 955.7 225.2 L 955.5 225.8 L 955.6 226.7 L 956.3 227.5 L 957.7 228.2 L 959.2 228.5 L 960.4 228.5 L 961.2 228.1 L 961.7 227.3 L 961.7 227.0 L 961.6 226.0 L 961.2 225.3 L 960.4 224.8 L 960.1 224.7 L 959.2 224.8 L 958.4 225.3 L 957.9 226.1 L 957.9 226.3 L 957.9 227.3 L 958.4 228.0 L 959.2 228.5 M 957.0 219.6 L 960.3 223.5 L 961.4 219.1 M 957.0 219.6 L 963.1 221.0 M 652.0 403.2 L 655.8 397.4 M 656.2 403.8 L 652.0 403.2 M 650.6 401.5 L 650.5 401.8 L 650.1 402.4 L 649.8 402.6 L 649.2 402.8 L 648.0 402.7 L 647.4 402.3 L 647.2 401.9 L 647.0 401.3 L 647.0 400.7 L 647.4 400.2 L 648.1 399.4 L 651.5 396.8 L 647.4 396.2 M 583.6 416.8 L 582.7 416.5 L 582.1 416.8 L 581.7 417.3 L 581.6 417.9 L 581.9 418.5 L 582.7 419.5 L 583.2 420.3 L 583.4 421.1 L 583.3 421.8 L 582.7 422.5 L 582.1 422.8 L 581.7 422.9 L 580.8 422.6 L 579.8 421.9 L 579.3 421.1 L 579.2 420.7 L 579.3 420.0 L 579.9 419.3 L 580.5 419.0 L 581.3 418.8 L 582.2 419.1 L 583.4 419.6 L 584.0 419.7 L 584.6 419.4 L 585.0 418.9 L 585.1 418.3 L 584.5 417.5 L 583.5 416.7 M 587.9 420.0 L 587.0 419.7 L 586.4 420.0 L 586.0 420.5 L 585.9 421.1 L 586.2 421.7 L 587.0 422.7 L 587.5 423.5 L 587.7 424.3 L 587.6 425.0 L 587.0 425.7 L 586.4 426.0 L 586.0 426.0 L 585.1 425.7 L 584.1 425.0 L 583.6 424.3 L 583.5 423.8 L 583.6 423.2 L 584.2 422.5 L 584.8 422.2 L 585.6 422.0 L 586.5 422.3 L 587.7 422.8 L 588.3 422.9 L 588.9 422.6 L 589.3 422.1 L 589.4 421.5 L 588.8 420.7 L 587.8 419.9 M 583.6 383.1 L 584.1 382.2 L 583.9 381.6 L 583.5 381.1 L 582.9 380.9 L 582.2 381.1 L 581.1 381.6 L 580.3 382.0 L 579.4 381.9 L 578.8 381.7 L 578.2 381.0 L 578.0 380.4 L 578.1 379.9 L 578.5 379.1 L 579.4 378.3 L 580.3 378.0 L 580.7 378.0 L 581.4 378.2 L 581.9 378.9 L 582.1 379.6 L 582.1 380.4 L 581.6 381.2 L 580.9 382.3 L 580.6 382.9 L 580.8 383.5 L 581.2 384.0 L 581.8 384.2 L 582.7 383.9 L 583.7 383.0 M 577.7 388.3 L 575.8 381.6 M 580.8 385.5 L 577.7 388.3 M 638.2 378.3 L 636.6 385.0 M 634.1 379.1 L 638.2 378.3 M 641.1 377.6 L 640.3 378.1 L 639.9 379.1 L 639.9 380.6 L 640.1 381.5 L 640.7 382.9 L 641.5 383.7 L 642.4 383.8 L 643.0 383.6 L 643.8 383.2 L 644.2 382.2 L 644.2 380.6 L 644.0 379.7 L 643.4 378.3 L 642.6 377.6 L 641.7 377.5 L 641.2 377.6 M 880.3 641.4 L 879.4 641.7 L 878.5 641.7 L 877.7 641.2 L 877.5 641.0 L 877.1 640.1 L 877.2 639.3 L 877.7 638.4 L 877.9 638.2 L 878.8 637.9 L 879.6 637.9 L 880.4 638.4 L 880.6 638.6 L 881.0 639.5 L 881.0 640.3 L 880.3 641.4 L 879.1 642.4 L 877.8 643.1 L 876.7 643.3 L 875.9 642.8 L 875.5 642.3 L 875.1 641.5 L 875.4 640.8 M 881.8 642.2 L 882.0 642.0 L 882.7 641.9 L 883.1 641.9 L 883.7 642.1 L 884.5 643.0 L 884.7 643.7 L 884.7 644.1 L 884.4 644.7 L 884.0 645.1 L 883.3 645.3 L 882.2 645.4 L 878.0 645.2 L 880.8 648.3 M 829.3 641.4 L 828.8 642.2 L 828.9 642.9 L 829.3 643.3 L 829.9 643.6 L 830.6 643.4 L 831.7 642.9 L 832.6 642.5 L 833.4 642.6 L 834.0 642.8 L 834.6 643.5 L 834.8 644.2 L 834.7 644.6 L 834.3 645.4 L 833.3 646.2 L 832.5 646.5 L 832.0 646.5 L 831.4 646.3 L 830.8 645.6 L 830.7 644.9 L 830.7 644.1 L 831.2 643.3 L 832.0 642.3 L 832.2 641.6 L 832.1 641.0 L 831.7 640.5 L 831.0 640.3 L 830.2 640.6 L 829.1 641.5 M 836.5 638.0 L 836.9 638.8 L 836.8 639.7 L 836.3 640.5 L 836.1 640.7 L 835.2 641.1 L 834.4 641.0 L 833.5 640.5 L 833.4 640.3 L 833.0 639.4 L 833.1 638.5 L 833.6 637.7 L 833.8 637.5 L 834.7 637.2 L 835.5 637.2 L 836.5 638.0 L 837.5 639.1 L 838.2 640.4 L 838.4 641.5 L 837.9 642.3 L 837.4 642.7 L 836.5 643.1 L 835.9 642.8 M 819.3 638.2 L 818.4 638.0 L 817.7 637.5 L 817.4 636.6 L 817.3 636.3 L 817.5 635.4 L 818.1 634.7 L 818.9 634.4 L 819.2 634.3 L 820.2 634.5 L 820.8 635.1 L 821.2 635.9 L 821.2 636.2 L 821.0 637.2 L 820.5 637.8 L 819.3 638.2 L 817.8 638.4 L 816.3 638.2 L 815.4 637.7 L 815.0 636.9 L 814.9 636.3 L 815.1 635.3 L 815.7 635.0 M 821.7 641.0 L 821.3 640.1 L 820.4 639.6 L 818.8 639.4 L 817.9 639.5 L 816.5 640.0 L 815.6 640.7 L 815.4 641.6 L 815.5 642.2 L 815.9 643.1 L 816.8 643.6 L 818.4 643.7 L 819.3 643.6 L 820.7 643.2 L 821.6 642.5 L 821.8 641.6 L 821.7 641.1 M 656.1 359.0 L 662.0 362.8 M 655.6 363.1 L 656.1 359.0 M 656.8 353.8 L 662.7 357.6 M 656.3 358.0 L 656.8 353.8 M 611.1 319.1 L 610.8 318.2 L 610.3 317.9 L 609.7 317.8 L 609.0 318.1 L 608.7 318.7 L 608.4 319.9 L 608.0 320.8 L 607.4 321.3 L 606.8 321.6 L 605.9 321.6 L 605.3 321.2 L 605.0 320.9 L 604.7 320.0 L 604.8 318.8 L 605.1 317.9 L 605.5 317.6 L 606.1 317.4 L 607.0 317.4 L 607.6 317.7 L 608.1 318.4 L 608.4 319.3 L 608.6 320.5 L 608.9 321.1 L 609.5 321.4 L 610.1 321.5 L 610.7 321.2 L 611.0 320.3 L 611.1 319.0 M 610.7 327.0 L 604.6 323.7 M 610.9 322.8 L 610.7 327.0 M 633.8 321.2 L 634.7 321.5 L 635.3 321.2 L 635.6 320.7 L 635.8 320.0 L 635.5 319.4 L 634.7 318.5 L 634.2 317.7 L 634.1 316.8 L 634.2 316.2 L 634.7 315.5 L 635.3 315.2 L 635.8 315.1 L 636.7 315.4 L 637.6 316.2 L 638.1 316.9 L 638.2 317.4 L 638.1 318.0 L 637.5 318.7 L 636.9 319.0 L 636.1 319.1 L 635.2 318.8 L 634.1 318.3 L 633.4 318.2 L 632.8 318.5 L 632.4 319.0 L 632.3 319.6 L 632.8 320.4 L 633.9 321.3 M 629.5 317.9 L 630.4 318.2 L 631.0 317.9 L 631.4 317.4 L 631.5 316.8 L 631.2 316.2 L 630.5 315.2 L 629.9 314.4 L 629.8 313.6 L 629.9 312.9 L 630.5 312.2 L 631.1 311.9 L 631.5 311.9 L 632.4 312.2 L 633.4 312.9 L 633.9 313.7 L 634.0 314.1 L 633.8 314.8 L 633.3 315.5 L 632.7 315.8 L 631.8 315.9 L 630.9 315.6 L 629.8 315.1 L 629.1 315.0 L 628.5 315.3 L 628.2 315.7 L 628.1 316.4 L 628.6 317.2 L 629.7 318.0 M 981.3 620.0 L 982.2 619.8 L 982.6 619.2 L 982.7 618.6 L 982.4 618.0 L 981.9 617.6 L 980.7 617.2 L 979.9 616.8 L 979.4 616.1 L 979.1 615.5 L 979.3 614.6 L 979.6 614.0 L 980.0 613.8 L 980.9 613.6 L 982.1 613.7 L 982.9 614.1 L 983.2 614.5 L 983.4 615.1 L 983.3 616.0 L 982.9 616.5 L 982.3 617.1 L 981.3 617.3 L 980.1 617.4 L 979.5 617.6 L 979.1 618.2 L 979.0 618.8 L 979.2 619.4 L 980.1 619.8 L 981.4 620.0 M 974.0 618.1 L 974.2 618.8 L 975.1 619.2 L 975.7 619.3 L 976.6 619.1 L 977.3 618.3 L 977.8 616.8 L 978.0 615.3 L 977.9 614.1 L 977.3 613.4 L 976.5 613.0 L 976.2 613.0 L 975.2 613.2 L 974.6 613.7 L 974.2 614.5 L 974.1 614.8 L 974.3 615.8 L 974.8 616.4 L 975.7 616.8 L 976.0 616.9 L 976.9 616.7 L 977.6 616.2 L 978.0 615.3 M 983.8 637.1 L 986.9 641.3 L 988.3 637.0 M 983.8 637.1 L 989.8 639.1 M 986.3 634.6 L 986.0 634.5 L 985.5 634.0 L 985.3 633.6 L 985.2 633.0 L 985.6 631.8 L 986.1 631.4 L 986.5 631.2 L 987.1 631.1 L 987.7 631.3 L 988.2 631.7 L 988.8 632.6 L 990.8 636.4 L 992.1 632.4 M 937.8 657.2 L 937.5 658.2 L 937.0 658.8 L 936.1 659.2 L 935.8 659.2 L 934.9 658.9 L 934.2 658.4 L 933.9 657.5 L 933.9 657.2 L 934.1 656.3 L 934.7 655.6 L 935.6 655.3 L 935.9 655.3 L 936.8 655.5 L 937.4 656.1 L 937.8 657.2 L 937.9 658.7 L 937.7 660.3 L 937.1 661.2 L 936.2 661.5 L 935.6 661.6 L 934.7 661.3 L 934.4 660.8 M 939.4 655.0 L 942.7 654.8 L 941.0 657.4 L 941.9 657.3 L 942.5 657.6 L 942.9 657.8 L 943.2 658.7 L 943.3 659.3 L 943.0 660.2 L 942.4 660.9 L 941.6 661.2 L 940.7 661.3 L 939.8 661.0 L 939.4 660.8 L 939.1 660.2"
       id="nums_002"
       stroke="black"
       stroke-width="1" />
    <path
       d="m 613.6,449.3 -63.9,-47.3 51.4,-45.4 3.2,-68.4 63.1,48.3 -5.9,45.1 -41,8.9 62.9,8.7 2.9,-38.3 71.8,20.4 -70.4,-24.6 29.1,-87.5 15.8,-69.1 -66.9,-23.4 12.3,-73.1 -45.1,-43.7 51.8,-3 66.1,-30.9 44.3,14.1 6,69.7 -67.1,5.3 46.3,48.8 61.3,-33.8 -38,-26.7 58.1,-43 71.6,10.1 -12.2,39.2 -42.8,39.8 53.6,25.4 38.4,24.7 -11.9,49.4 -48.3,-23.2 -39.9,-35.8 -42.9,9.8 43.9,-2.3 -13.1,49 -62.8,6.7 -1.1,60.1 -10,44.6 113.8,19.9 -104.9,-48.4 7.9,-45 41.6,7.5 25.1,27 20.7,-51.8 66.2,23 45.1,86.1 -12,63.6 20.5,18.2 -11.9,72.7 14.8,45.5 -34.3,26.4 -19.1,-27.4 -0.5,33.4 42.9,5.4 -15.3,46.6 -91.1,5.4 -34.5,-39.3 -43.5,37.1 -4.7,-47.7 -26.5,40 21.8,44.2 -89.6,-25.1 -90.9,20.1 1,-58.7 -11.9,-57.4 49,5.4 28.1,46.8 -22.5,-49.8 57.1,-2.8 40.1,33.8 3.9,-91.2 13.1,-31.3 29.7,-3 27,39 34.5,1.3 45.9,7 26.2,-30.7 -30.2,26.8 -38.7,-25.5 -32.7,11.3 -43.3,-44 92.7,-46.7 -103.3,9.8 -44.5,44.5 11.4,44 -48,-17.7 -32.7,57.3 -37.3,9.3 -23.1,-59.1 27.75,-31.45 z"
       id="coupes_002"
       stroke="#ff0000"
       stroke-width="1.27"
       sodipodi:nodetypes="cccccccccccccccccccccccccccccccccccccccccccccccccccccccccccccccccccccccccccccccccccccccccccc" />
    <path
       d="M 1011.1 576.2 L 957.7 575.2 M 957.7 575.2 L 996.3 530.7 M 957.7 575.2 L 1008.2 458.0 M 947.0 503.7 L 1008.2 458.0 M 957.7 575.2 L 947.0 503.7 M 957.7 575.2 L 920.8 534.4 M 947.0 503.7 L 894.8 425.6 M 894.8 425.6 L 987.7 439.8 M 894.8 425.6 L 999.7 376.2 M 898.0 377.8 L 999.7 376.2 M 894.8 425.6 L 898.0 377.8 M 898.0 377.8 L 867.7 318.9 M 867.7 318.9 L 999.7 376.2 M 894.8 425.6 L 758.1 381.3 M 867.7 318.9 L 954.6 290.1 M 758.1 381.3 L 794.2 313.3 M 716.8 269.2 L 795.3 253.2 M 732.6 200.1 L 795.3 253.2 M 732.6 200.1 L 780.3 163.9 M 780.3 163.9 L 827.3 199.8 M 827.3 199.8 L 795.3 253.2 M 841.6 130.1 L 870.2 190.0 M 878.3 149.5 L 910.1 225.8 M 931.9 174.9 L 910.1 225.8 M 916.8 530.5 L 894.8 425.6 M 688.9 446.0 L 758.1 381.3 M 791.5 435.4 L 688.9 446.0 M 747.0 479.9 L 688.9 446.0 M 683.4 399.2 L 758.1 381.3 M 688.9 446.0 L 613.6 449.3 M 613.6 449.3 L 683.4 399.2 M 710.4 506.2 L 645.1 482.3 M 645.1 482.3 L 688.9 446.0 M 878.1 505.0 L 894.8 425.6 M 732.6 200.1 L 734.0 115.1 M 665.7 176.7 L 734.0 115.1 M 677.7 563.5 L 617.3 513.7 M 678.0 103.6 L 734.0 115.1 M 793.1 329.4 L 842.6 291.9 M 684.7 56.9 L 734.0 115.1 M 841.6 130.1 L 861.7 60.4 M 861.7 60.4 L 878.3 149.5 M 861.7 60.4 L 921.1 109.7 M 750.8 26.0 L 734.0 115.1 M 750.8 26.0 L 801.1 109.8 M 878.1 505.0 L 802.1 472.3 M 957.7 575.2 L 859.2 626.7 M 859.2 626.7 L 920.8 534.4 M 859.2 626.7 L 874.9 527.4 M 957.2 608.6 L 859.2 626.7 M 859.2 626.7 L 811.0 616.1 M 811.0 616.1 L 874.9 527.4 M 811.0 616.1 L 840.4 526.1 M 811.0 616.1 L 770.6 521.4 M 770.6 521.4 L 813.4 487.1 M 784.5 656.1 L 766.7 612.6 M 716.7 675.2 L 766.7 612.6 M 716.7 675.2 L 726.6 578.8 M 716.7 675.2 L 692.0 631.4 M 692.0 631.4 L 726.6 578.8 M 716.7 675.2 L 626.8 636.6 M 626.8 636.6 L 692.0 631.4 M 626.8 636.6 L 663.9 584.6 M 827.3 199.8 L 858.1 246.5 M 970.3 199.6 L 910.1 225.8 M 549.7 402.0 L 620.5 390.5 M 601.1 356.6 L 620.5 390.5 M 601.1 356.6 L 661.5 381.6 M 957.2 608.6 L 893.7 666.0 M 601.1 356.6 L 667.4 336.5 M 1000.1 614.0 L 893.7 666.0"
       id="plisM_002"
       stroke="brown"
       stroke-dasharray="4" />
    <path
       d="M 982.4 573.7 L 986.4 577.7 M 986.4 573.7 L 982.4 577.7 M 975.0 551.0 L 979.0 555.0 M 979.0 551.0 L 975.0 555.0 M 981.0 514.6 L 985.0 518.6 M 985.0 514.6 L 981.0 518.6 M 975.6 478.8 L 979.6 482.8 M 979.6 478.8 L 975.6 482.8 M 950.4 537.5 L 954.4 541.5 M 954.4 537.5 L 950.4 541.5 M 937.3 552.8 L 941.3 556.8 M 941.3 552.8 L 937.3 556.8 M 918.9 462.6 L 922.9 466.6 M 922.9 462.6 L 918.9 466.6 M 939.3 430.7 L 943.3 434.7 M 943.3 430.7 L 939.3 434.7 M 945.3 398.9 L 949.3 402.9 M 949.3 398.9 L 945.3 402.9 M 946.8 375.0 L 950.8 379.0 M 950.8 375.0 L 946.8 379.0 M 894.4 399.7 L 898.4 403.7 M 898.4 399.7 L 894.4 403.7 M 880.9 346.4 L 884.9 350.4 M 884.9 346.4 L 880.9 350.4 M 931.7 345.6 L 935.7 349.6 M 935.7 345.6 L 931.7 349.6 M 824.5 401.4 L 828.5 405.4 M 828.5 401.4 L 824.5 405.4 M 909.2 302.5 L 913.2 306.5 M 913.2 302.5 L 909.2 306.5 M 774.2 345.3 L 778.2 349.3 M 778.2 345.3 L 774.2 349.3 M 754.0 259.2 L 758.0 263.2 M 758.0 259.2 L 754.0 263.2 M 761.9 224.7 L 765.9 228.7 M 765.9 224.7 L 761.9 228.7 M 754.4 180.0 L 758.4 184.0 M 758.4 180.0 L 754.4 184.0 M 801.8 179.8 L 805.8 183.8 M 805.8 179.8 L 801.8 183.8 M 809.3 224.5 L 813.3 228.5 M 813.3 224.5 L 809.3 228.5 M 853.9 158.1 L 857.9 162.1 M 857.9 158.1 L 853.9 162.1 M 892.2 185.7 L 896.2 189.7 M 896.2 185.7 L 892.2 189.7 M 919.0 198.3 L 923.0 202.3 M 923.0 198.3 L 919.0 202.3 M 903.8 476.0 L 907.8 480.0 M 907.8 476.0 L 903.8 480.0 M 721.5 411.6 L 725.5 415.6 M 725.5 411.6 L 721.5 415.6 M 738.2 438.7 L 742.2 442.7 M 742.2 438.7 L 738.2 442.7 M 716.0 460.9 L 720.0 464.9 M 720.0 460.9 L 716.0 464.9 M 718.7 388.3 L 722.7 392.3 M 722.7 388.3 L 718.7 392.3 M 649.3 445.6 L 653.3 449.6 M 653.3 445.6 L 649.3 449.6 M 646.5 422.2 L 650.5 426.2 M 650.5 422.2 L 646.5 426.2 M 675.8 492.3 L 679.8 496.3 M 679.8 492.3 L 675.8 496.3 M 665.0 462.1 L 669.0 466.1 M 669.0 462.1 L 665.0 466.1 M 884.4 463.3 L 888.4 467.3 M 888.4 463.3 L 884.4 467.3 M 731.3 155.6 L 735.3 159.6 M 735.3 155.6 L 731.3 159.6 M 697.8 143.9 L 701.8 147.9 M 701.8 143.9 L 697.8 147.9 M 645.5 536.6 L 649.5 540.6 M 649.5 536.6 L 645.5 540.6 M 704.0 107.3 L 708.0 111.3 M 708.0 107.3 L 704.0 111.3 M 815.8 308.6 L 819.8 312.6 M 819.8 308.6 L 815.8 312.6 M 707.3 84.0 L 711.3 88.0 M 711.3 84.0 L 707.3 88.0 M 849.6 93.3 L 853.6 97.3 M 853.6 93.3 L 849.6 97.3 M 868.0 103.0 L 872.0 107.0 M 872.0 103.0 L 868.0 107.0 M 889.4 83.0 L 893.4 87.0 M 893.4 83.0 L 889.4 87.0 M 740.4 68.5 L 744.4 72.5 M 744.4 68.5 L 740.4 72.5 M 773.9 65.9 L 777.9 69.9 M 777.9 65.9 L 773.9 69.9 M 838.1 486.6 L 842.1 490.6 M 842.1 486.6 L 838.1 490.6 M 906.5 599.0 L 910.5 603.0 M 910.5 599.0 L 906.5 603.0 M 888.0 578.6 L 892.0 582.6 M 892.0 578.6 L 888.0 582.6 M 865.1 575.0 L 869.1 579.0 M 869.1 575.0 L 865.1 579.0 M 906.2 615.7 L 910.2 619.7 M 910.2 615.7 L 906.2 619.7 M 833.1 619.4 L 837.1 623.4 M 837.1 619.4 L 833.1 623.4 M 840.9 569.7 L 844.9 573.7 M 844.9 569.7 L 840.9 573.7 M 823.7 569.1 L 827.7 573.1 M 827.7 569.1 L 823.7 573.1 M 788.8 566.8 L 792.8 570.8 M 792.8 566.8 L 788.8 570.8 M 790.0 502.2 L 794.0 506.2 M 794.0 502.2 L 790.0 506.2 M 773.6 632.4 L 777.6 636.4 M 777.6 632.4 L 773.6 636.4 M 739.7 641.9 L 743.7 645.9 M 743.7 641.9 L 739.7 645.9 M 719.7 625.0 L 723.7 629.0 M 723.7 625.0 L 719.7 629.0 M 702.4 651.3 L 706.4 655.3 M 706.4 651.3 L 702.4 655.3 M 707.3 603.1 L 711.3 607.1 M 711.3 603.1 L 707.3 607.1 M 669.7 653.9 L 673.7 657.9 M 673.7 653.9 L 669.7 657.9 M 657.4 632.0 L 661.4 636.0 M 661.4 632.0 L 657.4 636.0 M 643.3 608.6 L 647.3 612.6 M 647.3 608.6 L 643.3 612.6 M 840.7 221.1 L 844.7 225.1 M 844.7 221.1 L 840.7 225.1 M 938.2 210.7 L 942.2 214.7 M 942.2 210.7 L 938.2 214.7 M 583.1 394.3 L 587.1 398.3 M 587.1 394.3 L 583.1 398.3 M 608.8 371.6 L 612.8 375.6 M 612.8 371.6 L 608.8 375.6 M 629.3 367.1 L 633.3 371.1 M 633.3 367.1 L 629.3 371.1 M 923.5 635.3 L 927.5 639.3 M 927.5 635.3 L 923.5 639.3 M 632.2 344.6 L 636.2 348.6 M 636.2 344.6 L 632.2 348.6 M 944.9 638.0 L 948.9 642.0 M 948.9 638.0 L 944.9 642.0"
       display="none"
       id="marqueM_002"
       stroke="brown" />
    <path
       d="M 947.0 503.7 L 987.7 439.8 M 758.1 381.3 L 898.0 377.8 M 758.1 381.3 L 784.2 357.9 M 687.7 356.7 L 794.2 313.3 M 716.8 269.2 L 794.2 313.3 M 780.3 163.9 L 795.3 253.2 M 841.6 130.1 L 827.3 199.8 M 841.6 130.1 L 878.3 149.5 M 878.3 149.5 L 870.2 190.0 M 791.5 435.4 L 758.1 381.3 M 747.0 479.9 L 710.4 506.2 M 710.4 506.2 L 688.9 446.0 M 688.9 446.0 L 683.4 399.2 M 677.7 563.5 L 645.1 482.3 M 793.1 329.4 L 867.7 318.9 M 678.0 103.6 L 684.7 56.9 M 770.6 521.4 L 840.4 526.1 M 811.0 616.1 L 766.7 612.6 M 784.5 656.1 L 716.7 675.2 M 613.6 449.3 L 620.5 390.5"
       id="plisV_002"
       stroke="green"
       stroke-dasharray="4 1 1 1"
       stroke-width="1.27" />
    <path
       d="M 965.4 469.8 L 969.4 473.8 M 969.4 469.8 L 965.4 473.8 M 826.0 377.6 L 830.0 381.6 M 830.0 377.6 L 826.0 381.6 M 769.2 367.6 L 773.2 371.6 M 773.2 367.6 L 769.2 371.6 M 739.0 333.0 L 743.0 337.0 M 743.0 333.0 L 739.0 337.0 M 753.5 289.3 L 757.5 293.3 M 757.5 289.3 L 753.5 293.3 M 785.8 206.5 L 789.8 210.5 M 789.8 206.5 L 785.8 210.5 M 832.5 162.9 L 836.5 166.9 M 836.5 162.9 L 832.5 166.9 M 858.0 137.8 L 862.0 141.8 M 862.0 137.8 L 858.0 141.8 M 872.3 167.8 L 876.3 171.8 M 876.3 167.8 L 872.3 171.8 M 772.8 406.4 L 776.8 410.4 M 776.8 406.4 L 772.8 410.4 M 726.7 491.1 L 730.7 495.1 M 730.7 491.1 L 726.7 495.1 M 697.7 474.1 L 701.7 478.1 M 701.7 474.1 L 697.7 478.1 M 684.2 420.6 L 688.2 424.6 M 688.2 420.6 L 684.2 424.6 M 659.4 520.9 L 663.4 524.9 M 663.4 520.9 L 659.4 524.9 M 828.4 322.2 L 832.4 326.2 M 832.4 322.2 L 828.4 326.2 M 679.3 78.3 L 683.3 82.3 M 683.3 78.3 L 679.3 82.3 M 803.5 521.8 L 807.5 525.8 M 807.5 521.8 L 803.5 525.8 M 786.8 612.4 L 790.8 616.4 M 790.8 612.4 L 786.8 616.4 M 748.6 663.7 L 752.6 667.7 M 752.6 663.7 L 748.6 667.7 M 615.1 417.9 L 619.1 421.9 M 619.1 417.9 L 615.1 421.9"
       id="marqueV_002"
       stroke="green" />
    <path
       d="m 803.17024,408.28818 v -0.8 l 0.7,-1.5 0.8,-0.7 1.5,-0.8 h 3 l 1.5,0.8 0.7,0.7 0.8,1.5 v 1.5 l -0.8,1.5 -1.5,2.3 -7.5,7.5 h 10.5"
       id="titre_2"
       stroke="#4b0082" />
  </g>
</svg>
