<?xml version="1.0" encoding="UTF-8" standalone="no"?>
<svg
   height="841.88977pt"
   viewBox="0 0 532.99998 754.00001"
   width="595.27557pt"
   version="1.1"
   id="svg1"
   sodipodi:docname="chaton196_H20_lang_A4x2.svg"
   inkscape:version="1.3 (0e150ed6c4, 2023-07-21)"
   xmlns:inkscape="http://www.inkscape.org/namespaces/inkscape"
   xmlns:sodipodi="http://sodipodi.sourceforge.net/DTD/sodipodi-0.dtd"
   xmlns="http://www.w3.org/2000/svg"
   xmlns:svg="http://www.w3.org/2000/svg">
  <defs
     id="defs1" />
  <sodipodi:namedview
     id="namedview1"
     pagecolor="#ffffff"
     bordercolor="#000000"
     borderopacity="0.25"
     inkscape:showpageshadow="2"
     inkscape:pageopacity="0.0"
     inkscape:pagecheckerboard="0"
     inkscape:deskcolor="#d1d1d1"
     inkscape:document-units="mm"
     showgrid="false"
     inkscape:zoom="0.54335286"
     inkscape:cx="772.97836"
     inkscape:cy="547.52633"
     inkscape:window-width="1920"
     inkscape:window-height="1057"
     inkscape:window-x="-8"
     inkscape:window-y="-8"
     inkscape:window-maximized="1"
     inkscape:current-layer="svg1" />
  <style
     type="text/css"
     id="style1"><![CDATA[
			path {
				fill: none;
			}
		]]></style>
  <g
     id="page_001">
    <path
       d="m 300.1,501.4 -0.2,-0.3 -0.1,-0.6 0.1,-0.4 0.3,-0.6 1,-0.7 0.7,-0.1 0.4,0.1 0.6,0.3 0.3,0.5 0.1,0.7 v 1.1 l -0.8,4.1 3.5,-2.3 m -1.3,-4.9 -0.2,-0.3 -0.1,-0.6 0.1,-0.4 0.3,-0.6 1,-0.7 0.7,-0.1 0.4,0.1 0.6,0.3 0.3,0.5 0.1,0.7 v 1.1 l -0.8,4.1 3.5,-2.3 m -13.3,-62.6 v 0.3 l -0.3,0.6 -0.3,0.3 -0.5,0.3 -1.2,0.1 -0.7,-0.3 -0.3,-0.3 -0.3,-0.6 v -0.6 l 0.2,-0.6 0.6,-0.9 2.9,-3.1 -4.2,0.1 m -0.9,5 -0.6,0.3 -0.8,0.9 -0.3,-6.3 m -43.5,48.3 0.2,-0.2 0.7,-0.3 h 0.4 l 0.6,0.1 1,0.8 0.2,0.6 0.1,0.4 -0.2,0.7 -0.4,0.4 -0.6,0.3 -1,0.3 -4.2,0.4 3.2,2.7 m 6.6,-0.1 -0.8,0.6 H 252 l -0.8,-0.3 -0.3,-0.2 -0.5,-0.8 -0.1,-0.8 0.4,-0.9 0.2,-0.3 0.8,-0.5 h 0.8 l 0.9,0.3 0.2,0.2 0.5,0.8 0.1,0.8 -0.5,1.1 -1,1.2 -1.1,1 -1.1,0.3 -0.9,-0.3 -0.4,-0.4 -0.5,-0.8 0.1,-0.7 m -16.9,-56.1 -2.6,-2.1 2.9,-0.7 -0.6,-0.6 -0.3,-0.6 -0.1,-0.4 0.4,-0.9 0.4,-0.4 0.8,-0.5 0.8,-0.1 0.9,0.3 0.7,0.6 0.5,0.8 v 0.4 l -0.1,0.7 m -8.8,-0.6 0.9,0.3 1,-0.3 1.2,-1 0.6,-0.7 0.7,-1.3 0.1,-1.1 -0.5,-0.8 -0.4,-0.4 -0.9,-0.3 -1.1,0.3 -1.1,1 -0.6,0.6 -0.7,1.4 -0.1,1.1 0.5,0.8 0.3,0.3 m -49.4,18 -3.9,5.7 m -0.2,-6.4 4.1,0.7 m -62.7,-37.9 -1.7,2.9 -1.1,-2.8 -0.5,0.8 -0.6,0.3 -0.4,0.1 -0.9,-0.2 -0.5,-0.3 -0.6,-0.7 -0.2,-0.9 0.2,-0.9 0.5,-0.8 0.7,-0.6 0.4,-0.1 0.7,0.1 m 1.2,7.7 -1.7,2.8 -1.1,-2.8 -0.5,0.8 -0.5,0.4 -0.5,0.1 -0.9,-0.3 -0.5,-0.3 -0.6,-0.7 -0.2,-0.8 0.2,-0.9 0.5,-0.8 0.7,-0.6 0.4,-0.1 h 0.7 m -32.4,84.2 3,1.4 -2.7,1.4 0.9,0.4 0.4,0.5 0.1,0.4 -0.1,1 -0.3,0.5 -0.6,0.7 -0.8,0.3 -1,-0.2 -0.8,-0.3 -0.7,-0.7 -0.1,-0.4 v -0.7 m 7.7,-32 -2.2,-4.7 -2.2,3.9 m 4.4,0.8 -5.5,-3.2 m 57,-95 -3.3,-0.4 2.1,-2.2 -0.9,-0.1 -0.6,-0.4 -0.2,-0.3 -0.2,-0.9 0.1,-0.6 0.4,-0.9 0.6,-0.5 1,-0.2 0.8,0.1 0.9,0.4 0.3,0.3 0.2,0.7 m -9.4,3.1 0.2,0.6 0.9,0.4 0.6,0.1 0.9,-0.2 0.7,-0.8 0.5,-1.5 0.2,-1.5 -0.2,-1.2 -0.5,-0.7 -0.9,-0.4 h -0.3 l -0.9,0.2 -0.7,0.5 -0.4,0.9 v 0.3 l 0.2,0.9 0.5,0.7 0.9,0.4 h 0.3 l 0.9,-0.2 0.7,-0.5 0.4,-0.9 m -43.2,37.3 2.7,-2 -0.1,3 0.8,-0.5 0.6,-0.1 H 89 l 0.7,0.6 0.4,0.5 0.3,0.9 -0.2,0.8 -0.5,0.8 -0.7,0.5 -1,0.3 -0.4,-0.1 -0.6,-0.3 m 3.9,-9.1 v 5.1 l 3.6,-2.6 m -3.6,-2.5 3.7,5.1 m -24,-35.4 -0.9,-0.2 -0.6,-0.6 -0.4,-0.8 v -0.3 l 0.3,-1 0.5,-0.6 0.9,-0.3 0.3,-0.1 0.9,0.3 0.7,0.5 0.3,0.9 v 0.3 l -0.2,0.9 -0.6,0.7 -1.2,0.3 -1.5,0.1 -1.5,-0.2 -0.9,-0.5 -0.4,-0.9 v -0.6 l 0.3,-0.9 0.5,-0.4 m -10.5,-91.8 0.4,0.5 1.2,0.6 -6,1.9 m 5.2,-0.5 0.4,0.5 1.2,0.5 -6,2 m 17.9,-32.1 -1.1,-3.1 2.9,0.9 -0.3,-0.9 v -0.7 l 0.2,-0.3 0.8,-0.6 0.5,-0.2 1,-0.1 0.7,0.4 0.6,0.7 0.3,0.9 0.1,0.9 -0.2,0.4 -0.5,0.5 m -7.1,-4.7 0.6,0.7 0.7,0.1 0.5,-0.2 0.5,-0.5 0.1,-0.6 -0.2,-1.3 V 234 l 0.4,-0.8 0.4,-0.5 0.9,-0.3 0.6,0.1 0.4,0.2 0.6,0.7 0.4,1.2 v 0.9 l -0.1,0.4 -0.5,0.5 -0.8,0.3 -0.7,-0.1 -0.8,-0.4 -0.6,-0.7 -0.7,-1 -0.4,-0.5 -0.7,-0.1 -0.6,0.2 -0.4,0.5 v 1 l 0.4,1.2 m 145,100.5 -0.7,-0.1 -1.2,0.4 3.1,-5.5 m -7.3,3.3 2.6,1.5 1.6,-2.2 -0.4,0.1 -0.9,-0.2 -0.8,-0.4 -0.6,-0.7 -0.3,-0.8 0.2,-1 0.3,-0.5 0.7,-0.6 0.8,-0.2 1,0.1 0.7,0.5 0.7,0.7 0.1,0.4 v 0.7 m -32,4.9 0.2,0.1 0.4,0.6 0.1,0.4 -0.1,0.7 -0.7,1 -0.5,0.3 -0.5,0.1 h -0.6 l -0.5,-0.4 -0.4,-0.5 -0.4,-1 -0.9,-4.2 -2.3,3.6 m 2.5,7.7 -3.7,-5.9 m 6,2.4 -2.3,3.5 m 93.8,9.3 3.3,-4 -4.4,-0.4 m 1.1,4.4 0.5,-6.3 m -4.9,5.8 0.9,-0.2 0.7,-0.9 0.4,-1.4 0.1,-0.9 -0.2,-1.5 -0.5,-1 -0.9,-0.4 H 267 l -0.9,0.2 -0.7,0.8 -0.4,1.5 -0.1,0.9 0.2,1.5 0.5,1 0.9,0.3 0.4,0.1 m -31.6,57 2.7,1.9 -2.9,0.9 0.7,0.5 0.4,0.6 v 0.4 l -0.3,0.9 -0.3,0.5 -0.8,0.6 -0.8,0.1 -0.9,-0.3 -0.8,-0.5 -0.5,-0.8 -0.1,-0.4 0.1,-0.7 m 8.8,0.1 -0.9,-0.3 -1,0.4 -1.1,1 -0.6,0.8 -0.6,1.4 -0.1,1 0.6,0.8 0.5,0.4 0.9,0.2 1,-0.3 1.1,-1.1 0.6,-0.7 0.6,-1.4 v -1.1 l -0.5,-0.7 -0.4,-0.3 m 41.5,-7.1 -0.1,-0.3 v -0.6 l 0.2,-0.4 0.4,-0.6 1.1,-0.4 h 0.7 l 0.4,0.1 0.5,0.5 0.2,0.5 v 0.7 l -0.2,1 -1.5,4 3.8,-1.7 m -1,-4.9 0.4,-0.5 0.5,-1.2 2.6,5.7 m 19.8,-31.8 5.1,0.1 -2.5,-3.7 m -2.6,3.6 5.1,-3.6 m -8.9,-2 6.9,-1.1 m -4.5,4.6 -2.4,-3.5 M 35.6,206.9 l 1.2,3.1 -2.9,-0.8 0.3,0.8 v 0.7 l -0.2,0.4 -0.7,0.6 -0.6,0.2 -0.9,0.1 -0.8,-0.4 -0.6,-0.7 -0.3,-0.8 -0.1,-1 0.2,-0.4 0.4,-0.5 m 6.2,7.6 h -0.9 l -0.8,-0.3 -0.6,-0.8 -0.1,-0.2 -0.1,-1 0.3,-0.8 0.8,-0.6 0.2,-0.1 h 1 l 0.8,0.3 0.6,0.7 0.1,0.3 v 1 l -0.3,0.7 -1,0.8 -1.4,0.5 -1.5,0.3 -1.1,-0.3 -0.6,-0.7 -0.2,-0.5 v -1 l 0.4,-0.5 m 3,-54.1 -3.1,-4.1 -1.3,4.3 m 4.4,-0.2 -6,-1.9 m 2,7.5 -0.8,-0.6 -0.4,-0.7 v -1 l 0.1,-0.2 0.6,-0.8 0.7,-0.4 h 1 l 0.2,0.1 0.8,0.5 0.4,0.8 v 0.9 l -0.1,0.3 -0.5,0.8 -0.8,0.4 -1.2,-0.1 -1.4,-0.4 -1.4,-0.8 -0.7,-0.8 v -1 l 0.2,-0.5 0.6,-0.8 0.6,-0.1 m 291.5,380.1 0.3,0.1 0.5,0.5 0.1,0.4 0.1,0.6 -0.4,1.2 -0.4,0.4 -0.4,0.2 -0.7,0.1 -0.5,-0.2 -0.5,-0.5 -0.7,-0.8 -1.8,-3.8 -1.4,3.9 m 4.4,6.6 1,-2.9 -2.5,-1.1 0.2,0.3 v 1 l -0.3,0.8 -0.5,0.8 -0.8,0.4 h -0.9 l -0.6,-0.2 -0.8,-0.6 -0.3,-0.8 v -0.9 l 0.3,-0.9 0.5,-0.7 0.4,-0.2 0.7,-0.1 m 5.3,130.5 h -0.3 l -0.6,-0.2 -0.3,-0.3 -0.4,-0.5 -0.2,-1.2 0.3,-0.6 0.2,-0.4 0.6,-0.3 0.6,-0.1 0.6,0.2 1,0.5 3.3,2.7 -0.5,-4.2 m -6.6,-2.2 0.4,0.8 1,0.5 1.5,0.1 0.9,-0.1 1.5,-0.4 0.8,-0.7 0.2,-1 -0.1,-0.5 -0.4,-0.9 -0.9,-0.5 -1.6,-0.1 -0.8,0.1 -1.5,0.4 -0.8,0.7 -0.2,1 v 0.4 m -14.2,18.9 0.1,-0.3 0.6,-0.3 h 0.4 l 0.7,0.1 1,0.7 0.3,0.6 0.1,0.4 -0.1,0.6 -0.4,0.5 -0.6,0.3 -1,0.4 -4.2,0.7 3.4,2.5 m 5.9,-3.6 -1,-0.3 -0.5,0.3 -0.4,0.5 -0.1,0.7 0.3,0.6 0.8,0.9 0.6,0.8 0.1,0.8 -0.1,0.7 -0.5,0.7 -0.6,0.3 -0.4,0.1 -1,-0.3 -0.9,-0.7 -0.6,-0.8 v -0.4 l 0.1,-0.6 0.5,-0.8 0.6,-0.3 0.8,-0.1 0.9,0.3 1.2,0.4 0.6,0.1 0.6,-0.3 0.4,-0.5 0.1,-0.6 -0.6,-0.8 -1.1,-0.8 m -27,-93.8 -0.3,0.2 -0.6,0.1 h -0.5 l -0.6,-0.3 -0.7,-0.9 -0.2,-0.7 0.1,-0.4 0.3,-0.6 0.4,-0.4 0.7,-0.1 1.1,-0.1 4.2,0.5 -2.6,-3.3 m -7.7,0.6 5.2,-0.3 -2.8,-3.5 m -2.4,3.8 4.9,-3.9 m -121.4,-117.2 -0.1,0.6 0.6,0.8 0.6,0.3 0.9,0.2 1,-0.4 1,-1.1 0.8,-1.3 0.4,-1.2 -0.2,-0.8 -0.6,-0.8 -0.3,-0.1 -0.9,-0.2 -0.8,0.2 -0.7,0.6 -0.2,0.2 -0.2,0.9 0.2,0.9 0.6,0.7 0.2,0.2 1,0.2 0.8,-0.2 0.7,-0.6 m -8.7,-3 0.7,-0.6 0.9,-0.2 0.9,0.2 0.2,0.2 0.6,0.7 0.2,0.9 -0.2,0.9 -0.1,0.2 -0.8,0.6 -0.8,0.2 -0.9,-0.2 -0.3,-0.1 -0.6,-0.8 -0.2,-0.8 0.4,-1.2 0.8,-1.3 1.1,-1.1 0.9,-0.4 1,0.2 0.5,0.3 0.6,0.8 -0.1,0.6 m -4.4,82.1 1.4,2.7 2.5,-1 -0.4,-0.2 -0.7,-0.6 -0.4,-0.8 -0.1,-1 0.2,-0.8 0.7,-0.7 0.5,-0.2 0.9,-0.2 0.8,0.3 0.7,0.6 0.4,0.8 0.2,0.9 -0.1,0.5 -0.4,0.5 m -8.9,-5.9 7,-0.3 m -5.1,4 -1.9,-3.7 m -9.1,15.1 -0.2,-0.6 -0.9,-0.3 -0.6,-0.1 -0.9,0.3 -0.7,0.9 -0.3,1.5 -0.1,1.5 0.3,1.2 0.5,0.6 0.9,0.3 0.3,0.1 0.9,-0.3 0.7,-0.6 0.3,-0.9 v -0.3 l -0.3,-0.9 -0.5,-0.6 -0.9,-0.3 -0.3,-0.1 -0.9,0.3 -0.7,0.6 -0.3,0.9 m 5.7,-2.5 v -0.3 l 0.3,-0.6 0.3,-0.3 0.6,-0.3 1.2,0.1 0.6,0.3 0.3,0.3 0.3,0.6 v 0.6 l -0.4,0.6 -0.6,0.9 -3.1,2.9 4.2,0.1 m -39.3,-27.8 0.4,-0.5 -0.1,-0.9 -0.3,-0.6 -0.6,-0.6 -1.1,-0.2 -1.5,0.4 -1.3,0.6 -1,0.8 -0.3,0.8 0.1,0.9 0.2,0.3 0.6,0.7 0.8,0.3 1,-0.1 0.2,-0.2 0.7,-0.6 0.3,-0.8 -0.1,-1 -0.1,-0.2 -0.7,-0.7 -0.8,-0.3 -0.9,0.1 m 234.8,79.3 -0.1,1 -0.4,0.7 -0.8,0.5 -0.3,0.1 -0.9,-0.1 -0.8,-0.4 -0.5,-0.8 v -0.3 -1 l 0.5,-0.7 0.8,-0.5 0.3,-0.1 0.9,0.1 0.7,0.4 0.6,1.1 0.4,1.5 v 1.5 l -0.3,1 -0.8,0.6 -0.6,0.1 -1,-0.1 -0.4,-0.5 m 4.8,-6.7 -0.8,0.5 -0.2,0.6 0.2,0.6 0.4,0.5 0.7,0.2 h 1.2 l 1,0.1 0.7,0.4 0.4,0.5 0.2,0.9 -0.1,0.6 -0.2,0.4 -0.8,0.5 -1.2,0.3 -1,-0.1 -0.3,-0.2 -0.5,-0.5 -0.2,-0.9 0.2,-0.6 0.4,-0.8 0.8,-0.5 1.1,-0.5 0.5,-0.5 0.2,-0.6 -0.2,-0.6 -0.4,-0.5 -0.9,-0.1 -1.3,0.3 m 78.4,-86.1 0.8,0.6 0.6,-0.1 0.5,-0.3 0.4,-0.6 -0.1,-0.7 -0.4,-1.1 -0.3,-0.9 0.2,-0.9 0.3,-0.6 0.7,-0.5 0.7,-0.1 0.4,0.1 0.8,0.6 0.6,1 0.3,0.9 -0.1,0.4 -0.3,0.6 -0.8,0.5 -0.6,0.1 -0.9,-0.2 -0.7,-0.5 -0.9,-0.9 -0.6,-0.3 -0.7,0.1 -0.5,0.3 -0.3,0.6 0.3,0.9 0.7,1.2 m -2.6,-3.8 -1.8,-2.8 3,0.2 -0.5,-0.8 -0.1,-0.6 0.1,-0.4 0.5,-0.8 0.5,-0.3 0.9,-0.3 0.9,0.2 0.7,0.5 0.5,0.8 0.3,0.9 -0.1,0.4 -0.3,0.6 m -44.4,99.2 -0.8,-0.6 -0.6,0.1 -0.5,0.3 -0.4,0.6 0.1,0.7 0.4,1.2 0.3,0.9 -0.2,0.8 -0.3,0.6 -0.8,0.5 -0.6,0.1 -0.4,-0.1 -0.8,-0.6 -0.7,-1 -0.2,-0.9 0.1,-0.4 0.3,-0.6 0.8,-0.5 0.6,-0.1 0.9,0.2 0.7,0.6 0.9,0.8 0.6,0.3 0.7,-0.1 0.5,-0.3 0.3,-0.6 -0.2,-0.9 -0.8,-1.1 m 4,5.9 -5.1,-0.2 2.4,3.8 m 2.7,-3.6 -5.2,3.5 m 100.4,-70.1 -0.2,-0.1 -0.5,-0.6 -0.1,-0.4 v -0.6 l 0.5,-1.1 0.5,-0.4 0.4,-0.2 h 0.7 l 0.5,0.3 0.5,0.5 0.5,0.9 1.5,4 1.7,-3.8 m -3.6,-3.5 -0.3,-0.2 -0.4,-0.5 -0.1,-0.4 v -0.7 l 0.5,-1 0.5,-0.5 0.4,-0.1 h 0.7 l 0.5,0.2 0.4,0.6 0.6,0.9 1.4,4 1.8,-3.8 M 472,534.3 v 0.3 l -0.3,0.6 -0.3,0.3 -0.6,0.3 -1.2,-0.1 -0.6,-0.3 -0.3,-0.3 -0.3,-0.6 0.1,-0.6 0.3,-0.6 0.6,-0.9 3.1,-2.9 -4.2,-0.1 m -1.9,6.3 -3.3,-0.1 1.8,-2.4 H 464 l -0.6,-0.3 -0.3,-0.3 -0.2,-0.9 v -0.6 l 0.3,-0.9 0.6,-0.6 0.9,-0.3 0.9,0.1 0.9,0.3 0.3,0.3 0.3,0.6 m -41,88.7 -0.2,-0.2 -0.2,-0.6 V 618 l 0.2,-0.6 0.8,-0.8 0.7,-0.3 h 0.4 l 0.6,0.3 0.5,0.4 0.2,0.6 0.2,1.1 v 4.2 l 3,-2.9 m -1.1,-7.8 -2.2,2.1 1.7,2.1 V 616 l 0.5,-0.9 0.6,-0.6 0.8,-0.4 h 0.9 l 0.8,0.4 0.5,0.4 0.4,0.9 v 0.8 l -0.4,0.9 -0.7,0.6 -0.8,0.4 h -0.5 l -0.6,-0.2 m -39.3,23.5 0.3,-0.1 0.7,0.1 0.4,0.2 0.5,0.4 0.4,1.1 -0.1,0.7 -0.2,0.4 -0.4,0.5 -0.6,0.2 -0.6,-0.1 -1.1,-0.2 -3.9,-1.7 1.5,3.9 m 7.5,1.7 -5,-1.3 1.6,4.2 m 3.4,-2.9 -5.9,2.3 m 38.2,-179.7 -0.2,0.9 0.4,0.6 0.5,0.3 h 0.7 l 0.5,-0.3 0.9,-0.9 0.7,-0.6 0.8,-0.2 h 0.7 l 0.8,0.5 0.3,0.6 0.1,0.4 -0.2,0.9 -0.6,1 -0.7,0.7 -0.4,0.1 -0.7,-0.1 -0.8,-0.5 -0.3,-0.5 -0.2,-0.8 0.2,-1 0.3,-1.2 0.1,-0.6 -0.4,-0.6 -0.5,-0.3 H 431 l -0.8,0.6 -0.7,1.1 m 4,-6.5 -1.6,2.6 2.2,1.6 -0.1,-0.4 0.2,-0.9 0.4,-0.8 0.8,-0.6 0.8,-0.2 0.9,0.2 0.5,0.3 0.6,0.8 0.2,0.8 -0.2,0.9 -0.4,0.8 -0.8,0.6 -0.4,0.1 -0.6,-0.1 m -26.1,-18.4 0.1,-0.9 -0.7,-0.9 -1.2,-0.8 -0.9,-0.3 -1.5,-0.3 -1,0.2 -0.7,0.8 -0.2,0.5 v 1 l 0.6,0.8 1.3,0.9 0.8,0.3 1.5,0.3 1.1,-0.3 0.6,-0.7 0.2,-0.4 m 19.8,-63.6 0.3,0.1 0.5,0.4 0.2,0.4 0.2,0.7 -0.3,1.1 -0.5,0.5 -0.3,0.2 -0.7,0.2 -0.6,-0.2 -0.5,-0.4 -0.7,-0.8 -2.2,-3.6 -1,4 m 30.6,25.9 -0.1,-0.6 -0.8,-1.1 6.2,1.1 m -2.7,-40.8 4.2,2.9 v -4.5 m -4.2,1.6 6.3,-0.1 m -4.9,-2.5 -0.3,-0.6 -0.9,-0.9 6.3,-0.1 m -23.1,-29.9 -3.7,-3.6 -0.7,4.5 m 4.4,-0.9 -6.2,-1 m 5.6,4.2 -0.5,3.3 -2.1,-2.2 -0.1,0.9 -0.4,0.6 -0.4,0.2 -0.9,0.2 -0.6,-0.1 -0.8,-0.5 -0.5,-0.7 -0.2,-0.9 0.1,-0.9 0.5,-0.8 0.3,-0.3 0.7,-0.2 m -162.1,309.1 -1,0.1 -0.8,-0.3 -0.6,-0.7 -0.2,-0.3 -0.1,-0.9 0.3,-0.8 0.7,-0.7 0.3,-0.1 0.9,-0.1 0.8,0.3 0.7,0.7 0.1,0.2 0.1,1 -0.3,0.8 -0.9,0.8 -1.4,0.6 -1.5,0.4 -1.1,-0.2 -0.6,-0.7 -0.3,-0.5 -0.1,-1 0.4,-0.5 m 6.7,6.4 -1,0.2 -0.8,-0.3 -0.6,-0.7 -0.1,-0.3 -0.1,-0.9 0.3,-0.8 0.6,-0.7 0.3,-0.1 1,-0.1 0.8,0.3 0.6,0.7 0.1,0.2 0.1,1 -0.3,0.8 -0.9,0.7 -1.4,0.7 -1.5,0.3 -1,-0.1 -0.7,-0.7 -0.2,-0.6 -0.1,-0.9 0.4,-0.5 m -3.7,-69.8 0.9,-0.4 0.3,-0.6 -0.1,-0.6 -0.3,-0.6 -0.6,-0.3 -1.2,-0.2 -0.9,-0.3 -0.7,-0.5 -0.3,-0.6 v -0.9 l 0.2,-0.6 0.3,-0.3 0.9,-0.4 h 1.2 l 0.9,0.2 0.3,0.3 0.4,0.6 v 0.9 l -0.3,0.6 -0.5,0.6 -0.9,0.4 -1.2,0.3 -0.6,0.4 -0.3,0.6 0.1,0.6 0.3,0.6 0.9,0.2 1.4,-0.1 m -7.2,0.4 2.8,-4.3 -4.5,0.2 m 1.7,4.1 -0.3,-6.2 m -14.2,21.4 -0.7,-0.6 -0.4,-0.8 0.1,-0.9 0.1,-0.3 0.6,-0.7 0.8,-0.4 0.9,0.1 0.3,0.1 0.7,0.6 0.4,0.8 -0.1,0.9 -0.1,0.3 -0.6,0.7 -0.8,0.4 -1.2,-0.2 -1.4,-0.6 -1.3,-0.8 -0.6,-0.9 0.1,-0.9 0.2,-0.6 0.6,-0.7 0.7,-0.1 m 2.6,7.9 0.1,-1 -0.5,-0.5 -0.5,-0.2 h -0.7 l -0.5,0.5 -0.7,1 -0.6,0.7 -0.8,0.3 -0.7,0.1 -0.8,-0.4 -0.5,-0.5 -0.1,-0.4 v -0.9 l 0.5,-1.1 0.6,-0.7 0.4,-0.2 0.7,-0.1 0.8,0.4 0.4,0.5 0.4,0.8 -0.1,0.9 -0.2,1.2 0.1,0.7 0.4,0.5 0.6,0.2 h 0.7 l 0.6,-0.7 0.5,-1.3 m -23.6,58.7 0.3,0.1 0.4,0.5 0.2,0.4 0.1,0.7 -0.4,1.1 -0.5,0.5 -0.4,0.2 h -0.7 l -0.5,-0.2 -0.5,-0.5 -0.6,-0.8 -1.8,-3.9 -1.5,4 m 5,4.9 v -1 l -0.7,-0.8 -1.3,-0.8 -0.8,-0.3 -1.5,-0.2 -1.1,0.2 -0.6,0.8 -0.2,0.5 v 1 l 0.7,0.8 1.3,0.8 0.8,0.3 1.5,0.3 1.1,-0.3 0.6,-0.7 0.1,-0.5 m 32.1,-10.7 0.9,0.3 0.6,0.6 0.4,0.9 v 0.3 l -0.3,0.9 -0.5,0.6 -0.9,0.3 -0.3,0.1 -0.9,-0.3 -0.7,-0.6 -0.3,-0.9 v -0.3 l 0.2,-0.9 0.6,-0.6 1.2,-0.4 h 1.5 l 1.5,0.2 0.9,0.6 0.4,0.9 v 0.6 l -0.3,0.9 -0.5,0.3 m -3.7,-8.5 0.9,0.3 0.6,0.5 0.3,0.9 0.1,0.3 -0.3,0.9 -0.6,0.7 -0.9,0.3 h -0.3 l -0.9,-0.2 -0.6,-0.6 -0.3,-0.9 -0.1,-0.3 0.3,-0.9 0.6,-0.6 1.2,-0.4 1.5,-0.1 1.5,0.3 0.9,0.5 0.3,0.9 0.1,0.6 -0.3,0.9 -0.6,0.3 m -34.5,32.3 -0.1,-0.3 v -0.6 l 0.1,-0.4 0.5,-0.6 1,-0.5 h 0.7 l 0.4,0.1 0.5,0.5 0.3,0.5 v 0.7 l -0.2,1 -1.3,4.1 3.7,-1.9 m -0.3,-6.8 -0.7,0.7 v 0.6 l 0.2,0.6 0.6,0.4 h 0.6 l 1.3,-0.3 0.9,-0.1 0.8,0.3 0.5,0.4 0.4,0.8 v 0.7 l -0.1,0.4 -0.7,0.6 -1.1,0.6 -0.9,0.1 -0.4,-0.2 -0.6,-0.4 -0.3,-0.8 v -0.7 l 0.2,-0.8 0.7,-0.6 1,-0.8 0.4,-0.5 v -0.7 l -0.3,-0.6 -0.5,-0.4 -1,0.2 -1.2,0.6 m 139.8,-264.8 0.2,0.2 v 0.7 l -0.2,0.4 -0.4,0.5 -1,0.6 h -0.7 l -0.4,-0.1 -0.5,-0.4 -0.3,-0.6 V 422 l 0.1,-1.1 1.3,-4.1 -3.7,1.9 m -1.8,7 0.5,0.4 1,-0.1 0.5,-0.3 0.7,-0.7 0.1,-1.1 -0.4,-1.4 -0.7,-1.4 -0.8,-0.9 -0.8,-0.3 -0.9,0.2 -0.3,0.1 -0.7,0.7 -0.2,0.8 0.1,0.9 0.1,0.3 0.7,0.7 0.8,0.2 1,-0.1 0.2,-0.1 0.7,-0.7 0.3,-0.8 -0.2,-1 m 14.8,27.3 0.4,0.9 0.9,0.6 1.5,0.2 h 0.9 l 1.5,-0.4 0.9,-0.7 0.2,-0.9 v -0.6 l -0.3,-0.9 -1,-0.5 -1.5,-0.2 h -0.9 l -1.5,0.4 -0.8,0.6 -0.3,0.9 v 0.5 m 87.1,-193.2 2.1,2.1 2.2,-1.7 h -0.5 l -0.8,-0.4 -0.6,-0.7 -0.5,-0.8 v -0.9 l 0.5,-0.8 0.4,-0.4 0.9,-0.4 h 0.8 l 0.9,0.4 0.6,0.6 0.4,0.9 v 0.4 l -0.2,0.7 m -7.8,-0.7 -2.3,-2.4 2.9,-0.4 -0.6,-0.6 -0.2,-0.6 v -0.5 l 0.4,-0.8 0.5,-0.4 0.8,-0.4 h 0.9 l 0.8,0.4 0.7,0.6 0.4,0.9 v 0.4 l -0.3,0.6 m -97.1,38.5 -4.4,-2.7 0.3,4.5 m 4.1,-1.8 -6.3,0.5 m 6.5,4 -0.3,-0.9 -1,-0.6 -1.5,-0.1 h -0.9 l -1.5,0.4 -0.8,0.7 -0.2,0.9 v 0.6 l 0.4,0.9 0.9,0.5 1.5,0.2 0.9,-0.1 1.5,-0.4 0.9,-0.6 0.2,-0.9 v -0.5 m 49,47.8 2.8,4.3 1.6,-4.2 m -4.4,-0.1 5.8,2.3 m -4.6,-5.3 1.2,-3.1 1.6,2.6 0.3,-0.8 0.5,-0.5 0.4,-0.2 0.9,0.1 0.6,0.2 0.7,0.6 0.4,0.8 -0.1,0.9 -0.3,0.9 -0.6,0.7 -0.4,0.2 h -0.7 m 21,-115.6 1.2,2.8 2.6,-0.8 -0.4,-0.1 -0.6,-0.7 -0.4,-0.9 v -0.9 l 0.3,-0.8 0.7,-0.6 0.6,-0.2 0.9,-0.1 0.8,0.3 0.6,0.7 0.4,0.9 v 0.9 l -0.1,0.4 -0.5,0.5 m -5.5,-4 -0.3,0.1 -0.7,-0.1 -0.4,-0.1 -0.5,-0.5 -0.4,-1.1 v -0.7 l 0.2,-0.3 0.4,-0.6 0.6,-0.2 0.6,0.1 1.1,0.2 3.9,1.6 -1.6,-3.9 m -110,-2.2 -0.6,0.3 -0.9,0.9 0.3,-6.3 m -5,5.3 0.2,0.6 0.9,0.4 h 0.6 l 0.9,-0.3 0.7,-0.8 0.4,-1.5 v -1.5 l -0.2,-1.2 -0.6,-0.6 -0.8,-0.4 h -0.3 l -0.9,0.2 -0.7,0.6 -0.3,0.9 v 0.3 l 0.2,0.9 0.6,0.6 0.8,0.4 h 0.3 l 1,-0.2 0.6,-0.6 0.3,-0.9 m -10,39.6 0.6,-0.2 1,-0.8 -0.7,6.2 m 5.4,-5.9 -3,-0.4 -0.5,2.7 0.3,-0.3 0.9,-0.2 0.9,0.1 0.9,0.4 0.5,0.7 0.2,0.9 -0.1,0.6 -0.3,0.9 -0.7,0.5 -0.9,0.2 -0.9,-0.1 -0.9,-0.4 -0.3,-0.3 -0.2,-0.6 m 26.8,-68.2 0.4,0.6 1,0.8 -6.3,0.6 m 6.9,4.6 -6.5,-2.4 m 6.2,-1.8 0.3,4.2 m -112.2,46.1 0.5,0.4 1.2,0.5 -5.8,2.5 m 7.1,-0.2 -0.7,-0.7 h -0.6 l -0.6,0.2 -0.4,0.5 v 0.7 l 0.2,1.2 0.1,1 -0.4,0.8 -0.4,0.5 -0.8,0.3 h -0.7 l -0.4,-0.1 -0.6,-0.7 -0.5,-1.1 -0.1,-1 0.2,-0.4 0.4,-0.5 0.8,-0.4 0.7,0.1 0.8,0.3 0.6,0.7 0.8,1 0.5,0.4 h 0.7 l 0.5,-0.2 0.4,-0.5 v -1 l -0.6,-1.2 m 92.3,-95.6 -5.1,-0.4 2.3,3.9 m 2.8,-3.5 -5.3,3.3 m 5.6,0.2 0.3,-0.1 0.7,-0.1 0.4,0.1 0.6,0.4 0.6,1 v 0.7 l -0.1,0.4 -0.3,0.5 -0.5,0.3 -0.7,0.1 h -1.1 l -4.1,-1 2.2,3.6 m 57.9,-8.2 4.7,-2.3 -4,-2.1 m -0.7,4.4 3,-5.6 m -8.1,2.9 4.6,-2.3 -3.9,-2.1 m -0.7,4.4 3,-5.6 m -48.2,-6.5 1.5,-4.9 -4.3,1.4 m 2.8,3.5 -2,-6 m -0.9,5.4 -0.5,0.5 -0.6,1.1 -1.9,-6 m -89.7,68.9 -4.8,-5 m 6.3,1.1 -1.5,3.9 m -1.5,4.1 -2.8,-4.3 -1.6,4.2 m 4.4,0.1 -5.9,-2.3 m 66.5,-14.2 6.6,2.2 m -6.1,1.9 -0.5,-4.1 m -0.7,-5.2 6.7,2.2 m -6.1,2 -0.6,-4.2 m -22.9,-8.9 2.3,-6.6 m 1.9,6.2 -4.2,0.4 m -4.8,-0.3 0.4,0.5 0.9,0.2 h 0.6 l 0.9,-0.4 0.5,-1 0.1,-1.5 -0.2,-1.5 -0.4,-1.2 -0.7,-0.5 -0.9,-0.2 H 282 l -0.9,0.4 -0.5,0.7 -0.2,0.9 0.1,0.3 0.4,0.9 0.6,0.5 0.9,0.2 h 0.3 l 0.9,-0.4 0.5,-0.7 0.2,-0.9 m 206.5,109.9 2.4,1.8 1.8,-2.1 -0.4,0.1 -0.9,-0.3 -0.7,-0.5 -0.6,-0.8 -0.1,-0.8 0.3,-0.9 0.3,-0.5 0.8,-0.6 0.8,-0.1 1,0.3 0.7,0.5 0.5,0.8 0.1,0.4 -0.1,0.7 m -9.7,-1.9 -0.1,0.7 0.5,0.8 0.5,0.3 0.9,0.3 1,-0.4 1.1,-1 0.9,-1.2 0.5,-1.2 -0.1,-0.8 -0.6,-0.8 -0.2,-0.2 -0.9,-0.3 -0.9,0.2 -0.7,0.5 -0.2,0.3 -0.3,0.9 0.1,0.8 0.6,0.8 0.2,0.2 0.9,0.2 0.9,-0.1 0.7,-0.5 m -11.7,42.4 1.9,4.8 2.4,-3.8 m -4.3,-1 5.3,3.4 m -2.2,-8.3 1.9,4.8 2.5,-3.7 m -4.4,-1.1 5.3,3.5 m -6.2,-177.1 -0.4,2.9 2.6,0.7 -0.3,-0.3 -0.1,-1 0.1,-0.8 0.4,-0.9 0.7,-0.5 0.9,-0.2 0.6,0.1 0.9,0.5 0.5,0.6 0.2,1 -0.2,0.9 -0.4,0.8 -0.3,0.3 -0.7,0.2 m -3.7,-9.6 -0.5,3 2.7,0.6 -0.3,-0.3 -0.2,-0.9 0.2,-0.9 0.4,-0.9 0.7,-0.5 0.9,-0.1 0.6,0.1 0.9,0.4 0.5,0.7 0.1,0.9 -0.1,0.9 -0.4,0.8 -0.4,0.3 -0.6,0.2 m -55.4,0.2 -1.4,-2.6 -2.5,1 0.4,0.1 0.7,0.6 0.4,0.8 0.1,1 -0.2,0.8 -0.7,0.7 -0.5,0.3 -0.9,0.1 -0.8,-0.2 -0.7,-0.7 -0.4,-0.8 -0.2,-0.9 0.1,-0.4 0.4,-0.6 m 7.9,6 0.4,-0.6 -0.2,-0.9 -0.2,-0.5 -0.7,-0.7 -1.1,-0.1 -1.5,0.4 -1.3,0.7 -0.9,0.9 -0.3,0.8 0.2,0.9 0.1,0.3 0.7,0.6 0.8,0.3 1,-0.2 0.2,-0.1 0.7,-0.7 0.2,-0.8 -0.1,-0.9 -0.2,-0.3 -0.6,-0.7 -0.9,-0.2 -0.9,0.1 m 31.2,-64 5.1,-0.8 -3.1,-3.2 m -2,4 4.5,-4.4 m -8.2,-0.7 -0.2,0.6 0.4,0.9 0.4,0.4 0.9,0.4 1.1,-0.2 1.2,-0.8 1.1,-1.1 0.6,-1 v -0.9 l -0.4,-0.8 -0.2,-0.3 -0.9,-0.4 H 460 l -0.8,0.4 -0.3,0.2 -0.4,0.9 v 0.8 l 0.4,0.9 0.2,0.2 0.9,0.4 h 0.8 l 0.9,-0.4 m -49.9,24.2 -1.3,-2.7 -2.6,0.9 0.4,0.1 0.7,0.7 0.4,0.8 0.1,0.9 -0.3,0.8 -0.7,0.7 -0.5,0.3 -1,0.1 -0.8,-0.3 -0.6,-0.7 -0.4,-0.8 -0.1,-0.9 0.1,-0.4 0.4,-0.6 m 8.3,5.5 -5.1,-0.9 2,4 m 3.1,-3.1 -5.7,2.7 m -0.4,-57.8 3.1,-4.2 -4.5,-0.1 m 1.4,4.3 0.1,-6.3 m -6.3,6.1 h 3 l 0.3,-2.7 -0.3,0.3 -0.9,0.3 h -0.9 l -0.9,-0.3 -0.6,-0.6 -0.3,-0.9 0.1,-0.6 0.3,-0.9 0.6,-0.6 0.9,-0.3 h 0.9 l 0.9,0.3 0.3,0.3 0.3,0.6 m 58.8,168.3 -2.3,-2 -1.9,1.9 h 0.4 l 0.9,0.3 0.7,0.6 0.5,0.8 0.1,0.9 -0.4,0.8 -0.4,0.5 -0.8,0.5 -0.8,0.1 -0.9,-0.3 -0.7,-0.6 -0.5,-0.8 v -0.4 l 0.1,-0.7 m 6.8,0.9 0.2,-0.2 0.6,-0.3 h 0.5 l 0.6,0.2 0.9,0.7 0.3,0.6 0.1,0.5 -0.2,0.6 -0.4,0.5 -0.6,0.2 -1,0.4 -4.2,0.4 3.2,2.6 m 20.3,-14.5 0.9,2.9 2.6,-0.5 -0.3,-0.2 -0.6,-0.8 -0.2,-0.8 v -1 l 0.4,-0.7 0.7,-0.6 0.6,-0.2 1,0.1 0.7,0.4 0.6,0.7 0.2,0.9 v 0.9 l -0.2,0.4 -0.5,0.5 m -7.4,-6.6 4.9,1.6 -1.3,-4.3 m -3.6,2.7 6,-1.9 m -5.4,22 -2.9,0.9 0.4,2.6 0.2,-0.3 0.8,-0.6 0.9,-0.2 h 0.9 l 0.8,0.5 0.5,0.7 0.2,0.6 -0.1,1 -0.4,0.7 -0.8,0.5 -0.9,0.3 -0.9,-0.1 -0.4,-0.2 -0.4,-0.5 m 4.3,-6.5 3.2,-0.9 -1.1,2.8 0.9,-0.2 0.6,0.1 0.4,0.2 0.5,0.8 0.2,0.6 -0.1,0.9 -0.4,0.8 -0.8,0.5 -0.8,0.2 h -1 l -0.3,-0.2 -0.5,-0.5 m -128.6,126.7 -2.3,-4.6 -2.1,3.9 m 4.4,0.7 -5.6,-3 m 2.3,8.9 -4.1,-5.7 m 6.1,2 -2,3.7 m 39.1,21.4 -0.2,-0.3 -0.2,-0.6 0.1,-0.4 0.2,-0.6 1,-0.8 0.6,-0.1 h 0.5 l 0.6,0.3 0.3,0.4 0.2,0.7 0.1,1.1 -0.5,4.2 3.3,-2.6 m -41.9,-3 0.1,-0.2 0.6,-0.4 0.4,-0.2 h 0.7 l 1,0.6 0.4,0.5 0.2,0.4 -0.1,0.7 -0.2,0.5 -0.6,0.4 -0.9,0.6 -4.1,1.3 3.8,1.9 m 6.7,-2.7 v -0.6 l -0.7,-0.7 -0.5,-0.3 -0.9,-0.1 -1,0.5 -0.9,1.2 -0.7,1.3 -0.3,1.2 0.2,0.8 0.7,0.7 0.3,0.2 0.9,0.1 0.8,-0.3 0.7,-0.6 0.1,-0.3 0.2,-0.9 -0.3,-0.8 -0.6,-0.7 -0.3,-0.1 -0.9,-0.2 -0.9,0.3 -0.6,0.6 m -6,-290.7 -2.7,1.3 1,2.6 0.1,-0.4 0.7,-0.7 0.8,-0.4 0.9,-0.1 0.8,0.2 0.7,0.7 0.3,0.5 0.1,1 -0.2,0.8 -0.7,0.7 -0.8,0.4 -1,0.1 -0.4,-0.1 -0.5,-0.4 m 5.7,-8.6 -2.7,1.3 1,2.6 0.1,-0.4 0.7,-0.7 0.8,-0.4 0.9,-0.1 0.8,0.2 0.7,0.7 0.3,0.5 0.1,1 -0.3,0.8 -0.6,0.7 -0.9,0.4 -0.9,0.1 -0.4,-0.1 -0.5,-0.4 M 334,63.3 l -4.3,-2.8 0.1,4.5 m 4.2,-1.7 -6.3,0.3 m 5.6,6 0.6,-0.3 0.2,-0.9 v -0.6 l -0.3,-0.9 -1,-0.6 -1.5,-0.2 -1.5,0.1 -1.2,0.3 -0.5,0.6 -0.3,1 v 0.3 l 0.4,0.8 0.6,0.6 0.9,0.3 h 0.3 l 0.9,-0.4 0.6,-0.6 0.2,-0.9 v -0.3 l -0.3,-0.9 -0.7,-0.6 -0.9,-0.2 m 21.4,-29.3 4,-3.4 -4.4,-1 m 0.4,4.4 1.5,-6.1 m -7.5,4.6 2.9,0.7 0.9,-2.6 -0.3,0.2 -1,0.1 -0.8,-0.2 -0.8,-0.5 -0.5,-0.7 -0.1,-1 0.2,-0.6 0.5,-0.8 0.7,-0.4 1,-0.1 0.8,0.2 0.8,0.5 0.3,0.4 0.1,0.7 M 89.4,200 l 0.5,-0.4 0.8,-1 0.8,6.3 m 0.9,-6.7 3.3,-0.4 -1.5,2.6 0.9,-0.1 0.6,0.2 0.4,0.3 0.4,0.9 v 0.6 l -0.2,0.9 -0.5,0.7 -0.8,0.4 -0.9,0.1 -1,-0.2 -0.3,-0.3 -0.4,-0.5 m 21.9,-30.7 -0.3,-0.6 -0.9,-0.9 6.3,0.1 m -5,-1.2 -0.3,-0.6 -0.9,-0.9 6.3,0.2 m -21.2,-32.9 1.5,-2.6 -2.2,-1.7 0.1,0.5 -0.2,0.9 -0.4,0.8 -0.7,0.6 -0.8,0.2 -1,-0.2 -0.5,-0.3 -0.6,-0.7 -0.2,-0.8 0.2,-1 0.4,-0.7 0.7,-0.7 0.5,-0.1 0.6,0.1 m 0.5,6.4 v 0.6 l 0.3,1.3 -5.4,-3.2 m 29.3,-24.7 0.8,-3.2 1.9,2.3 0.2,-0.9 0.5,-0.5 0.4,-0.2 0.9,-0.1 0.6,0.2 0.8,0.5 0.4,0.7 0.1,1 -0.2,0.9 -0.6,0.8 -0.3,0.2 -0.7,0.1 m -0.6,-9.7 0.8,0.5 0.4,0.8 0.1,0.9 -0.1,0.3 -0.5,0.8 -0.7,0.4 -1,0.1 -0.3,-0.1 -0.8,-0.5 -0.4,-0.7 -0.1,-1 0.1,-0.3 0.5,-0.8 0.8,-0.4 h 1.2 l 1.5,0.4 1.3,0.6 0.8,0.8 v 1 l -0.1,0.6 -0.5,0.8 -0.7,0.1 m 169,181.6 -0.3,0.1 -0.6,-0.3 -0.3,-0.2 -0.4,-0.6 -0.1,-1.2 0.3,-0.6 0.3,-0.4 0.5,-0.3 0.6,-0.1 0.6,0.3 1,0.5 3.3,2.7 -0.4,-4.2 m -6.8,-4.6 6.6,2.4 m -6.2,1.8 -0.4,-4.2 m -46.5,18.8 3.3,0.2 -1.9,2.3 0.9,0.1 0.5,0.3 0.3,0.3 0.3,1 -0.1,0.5 -0.3,0.9 -0.7,0.6 -0.9,0.2 h -0.9 l -0.9,-0.4 -0.3,-0.3 -0.2,-0.7 m 9.7,-4.4 -3.4,6.1 m -0.8,-6.4 4.2,0.3 m -75,-24.7 2.3,2.4 -2.9,0.4 0.6,0.6 0.2,0.6 v 0.5 l -0.4,0.8 -0.5,0.4 -0.8,0.4 h -0.9 l -0.8,-0.4 -0.6,-0.6 -0.5,-0.9 0.1,-0.4 0.2,-0.7 m 8.4,1.4 -0.8,-0.5 -0.7,0.2 -0.4,0.5 -0.2,0.6 0.2,0.6 0.6,1.1 0.4,0.9 v 0.8 l -0.2,0.6 -0.7,0.7 -0.6,0.2 h -0.4 l -0.9,-0.5 -0.8,-0.8 -0.4,-0.9 V 282 l 0.2,-0.6 0.7,-0.7 0.6,-0.2 h 0.8 l 0.9,0.5 1,0.6 0.7,0.2 0.6,-0.2 0.4,-0.4 0.3,-0.6 -0.5,-0.9 -0.9,-0.9 m 42.1,-17.8 -0.7,-0.1 -1.2,0.3 3.3,-5.3 m -6.6,1 0.7,-0.6 0.9,-0.2 0.9,0.2 0.2,0.2 0.6,0.7 0.2,0.8 -0.2,1 -0.2,0.2 -0.7,0.6 -0.8,0.2 -0.9,-0.2 -0.3,-0.2 -0.6,-0.7 -0.2,-0.8 0.4,-1.2 0.8,-1.3 1.1,-1.1 1,-0.4 0.9,0.2 0.5,0.3 0.6,0.8 -0.1,0.6 m -63.3,-23.1 0.3,0.6 1,0.8 -6.3,0.5 m 6.6,1.2 0.2,3.3 -2.5,-1.6 0.1,0.9 -0.3,0.6 -0.2,0.3 -0.9,0.4 H 161 l -0.9,-0.2 -0.7,-0.6 -0.3,-0.8 -0.1,-0.9 0.2,-0.9 0.3,-0.4 0.6,-0.3 m -41.5,75 -2.1,-2.5 3,-0.2 -0.6,-0.7 -0.2,-0.6 v -0.5 l 0.5,-0.8 0.5,-0.4 0.8,-0.3 h 0.9 l 0.8,0.5 0.6,0.7 0.4,0.9 -0.1,0.4 -0.2,0.6 m -10.1,-3.7 6.8,-1.9 m -4,5 -2.8,-3.1 m 8.9,37.2 3.2,-0.7 -1.3,2.7 0.9,-0.2 0.7,0.2 0.3,0.2 0.5,0.9 0.1,0.5 -0.1,1 -0.4,0.7 -0.9,0.5 -0.8,0.2 -1,-0.1 -0.3,-0.3 -0.5,-0.5 m 7.9,-5.9 -0.4,-0.6 -0.9,-0.1 -0.6,0.1 -0.8,0.5 -0.4,1 v 1.6 l 0.3,1.4 0.5,1.1 0.7,0.5 1,0.1 0.3,-0.1 0.8,-0.4 0.5,-0.7 0.1,-1 -0.1,-0.3 -0.5,-0.8 -0.7,-0.5 -0.9,-0.1 -0.3,0.1 -0.8,0.5 -0.5,0.7 -0.1,0.9 m 86.1,-133.9 v -0.7 l -0.4,-1.2 5.6,2.9 m -3.7,-3.8 -0.3,-0.1 -0.4,-0.6 -0.1,-0.4 v -0.6 l 0.5,-1.1 0.6,-0.4 0.4,-0.1 h 0.6 l 0.6,0.2 0.4,0.6 0.5,0.9 1.3,4.1 1.9,-3.8 m 0.6,-69.1 0.5,0.8 0.6,0.2 0.6,-0.1 0.5,-0.4 0.3,-0.6 0.1,-1.2 0.1,-1 0.6,-0.6 0.5,-0.4 0.9,-0.2 0.6,0.3 0.4,0.2 0.4,0.9 0.2,1.1 -0.2,1 -0.2,0.3 -0.6,0.4 -0.9,0.1 -0.6,-0.2 -0.7,-0.5 -0.4,-0.8 -0.5,-1.2 -0.4,-0.5 -0.6,-0.2 -0.6,0.1 -0.6,0.3 -0.1,1 0.2,1.3 m -63.3,16.1 -0.9,-0.2 -0.7,-0.6 -0.3,-0.9 v -0.3 l 0.2,-0.9 0.6,-0.6 0.9,-0.4 h 0.3 l 0.9,0.3 0.6,0.6 0.4,0.8 v 0.3 l -0.3,0.9 -0.5,0.7 -1.2,0.3 -1.5,0.1 -1.5,-0.2 -1,-0.5 -0.3,-0.9 v -0.6 l 0.2,-0.9 0.6,-0.4 m 35.4,-51.8 -0.6,0.3 -0.8,1 -0.4,-6.3 m -2.6,6.7 0.9,-0.4 0.6,-0.9 0.2,-1.5 -0.1,-0.9 -0.4,-1.5 -0.6,-0.9 -0.9,-0.2 h -0.6 l -0.9,0.4 -0.6,0.9 -0.2,1.5 0.1,0.9 0.4,1.5 0.6,0.9 0.9,0.2 h 0.5 M 86.1,91.6 83.6,90 l -1.8,2 0.4,-0.1 1,0.3 0.7,0.5 0.6,0.8 0.1,0.8 -0.2,0.9 -0.4,0.5 -0.7,0.6 -0.8,0.1 -1,-0.2 -0.7,-0.5 -0.6,-0.8 -0.1,-0.4 0.1,-0.7 m 6.5,-0.1 0.6,0.1 1.3,-0.2 -3.6,5.2 m 0.8,-32.3 1.6,-2.5 -2.1,-1.7 0.1,0.4 -0.3,0.9 -0.5,0.8 -0.7,0.5 -0.8,0.2 -0.9,-0.2 -0.5,-0.3 -0.6,-0.8 -0.2,-0.8 0.2,-0.9 0.5,-0.8 0.8,-0.6 0.4,-0.1 0.6,0.1 m 0.4,8.8 0.3,-0.9 -0.5,-1 -1.1,-1.1 -0.7,-0.5 -1.4,-0.6 -1.1,0.1 -0.8,0.5 -0.3,0.5 -0.2,1 0.4,1 1.1,1 0.7,0.5 1.5,0.6 h 1 l 0.8,-0.6 0.2,-0.4 m -26.6,67.5 1.7,2.4 2.4,-1.2 -0.4,-0.1 -0.8,-0.6 -0.5,-0.7 -0.3,-0.9 0.2,-0.9 0.6,-0.7 0.5,-0.4 0.9,-0.2 0.8,0.1 0.8,0.6 0.5,0.7 0.2,1 v 0.4 l -0.4,0.6 m -8.2,-3.1 0.7,0.6 h 1.1 l 1.4,-0.6 0.8,-0.5 1,-1.1 0.4,-1 -0.2,-0.9 -0.4,-0.5 -0.7,-0.6 h -1.1 l -1.4,0.6 -0.8,0.5 -1,1.1 -0.4,1 0.2,0.9 0.3,0.4 m -5.2,-11.6 -2.3,-4.6 -2.1,4 m 4.4,0.6 -5.5,-2.9 m 3.6,6.5 0.1,-0.9 -0.4,-0.5 -0.5,-0.3 h -0.7 l -0.5,0.4 -0.9,0.9 -0.6,0.7 -0.8,0.2 h -0.7 l -0.8,-0.4 -0.4,-0.6 -0.1,-0.4 0.1,-0.9 0.6,-1.1 0.7,-0.6 0.4,-0.2 0.6,0.1 0.8,0.4 0.4,0.5 0.3,0.8 -0.2,1 -0.3,1.2 v 0.6 l 0.4,0.6 0.5,0.3 h 0.7 l 0.7,-0.7 0.6,-1.2 m 63,-86.1 0.5,-5.1 -3.9,2.2 m 3.4,2.9 -3.1,-5.5 m -0.5,7.5 0.6,-0.7 v -0.7 l -0.3,-0.5 -0.6,-0.4 -0.7,0.1 -1.2,0.3 -0.9,0.2 -0.8,-0.2 -0.6,-0.4 -0.4,-0.8 -0.1,-0.6 0.2,-0.5 0.6,-0.7 1,-0.6 1,-0.1 0.4,0.1 0.5,0.3 0.5,0.8 v 0.7 l -0.2,0.8 -0.6,0.7 -0.9,0.9 -0.4,0.5 v 0.7 l 0.3,0.5 0.6,0.4 0.9,-0.2 1.2,-0.7 m 12.5,16.6 5.1,1.2 -1.7,-4.2 m -3.4,3 5.9,-2.3 m -6.3,-4.6 h 1 l 0.7,0.3 0.7,0.7 0.1,0.3 v 0.9 l -0.3,0.8 -0.7,0.6 -0.3,0.1 -1,0.1 -0.7,-0.3 -0.6,-0.8 -0.2,-0.2 v -1 l 0.3,-0.8 1,-0.7 1.4,-0.5 1.5,-0.3 1.1,0.2 0.6,0.7 0.2,0.6 0.1,0.9 -0.5,0.5 m 72.2,442.8 -0.2,0.7 0.4,0.8 0.4,0.4 0.9,0.5 1,-0.3 1.3,-0.8 1.1,-1.1 0.6,-1 v -0.9 l -0.4,-0.8 -0.2,-0.2 -0.9,-0.5 h -0.8 l -0.9,0.5 -0.2,0.2 -0.4,0.8 v 0.9 l 0.4,0.8 0.2,0.2 0.9,0.5 h 0.8 l 0.9,-0.5 m -7.8,-1.8 0.8,0.4 1.1,-0.2 1.2,-0.9 0.7,-0.6 0.8,-1.3 0.2,-1 -0.4,-0.9 -0.4,-0.4 -0.9,-0.4 -1,0.2 -1.3,0.8 -0.6,0.7 -0.9,1.2 -0.2,1.1 0.4,0.8 0.3,0.4 m -19.4,37.1 -1.9,-2.3 -2.2,1.5 h 0.4 l 0.8,0.5 0.6,0.7 0.3,0.9 -0.1,0.8 -0.5,0.8 -0.4,0.4 -0.9,0.4 -0.9,-0.1 -0.8,-0.5 -0.5,-0.7 -0.4,-0.9 0.1,-0.4 0.2,-0.6 m 9.9,4 -6.7,1.7 m 4.1,-5 2.6,3.3 m 59,-25.6 3,-0.1 0.2,-2.7 -0.3,0.3 -0.8,0.3 -0.9,0.1 -1,-0.3 -0.6,-0.6 -0.3,-0.9 v -0.6 l 0.2,-0.9 0.6,-0.6 0.9,-0.3 0.9,-0.1 0.9,0.3 0.3,0.3 0.3,0.6 m -6.6,5.3 0.9,-0.3 0.2,-0.6 v -0.6 l -0.3,-0.6 -0.6,-0.3 -1.2,-0.3 -0.9,-0.2 -0.6,-0.6 -0.4,-0.6 v -0.9 l 0.3,-0.6 0.3,-0.3 0.9,-0.4 h 1.2 l 0.9,0.3 0.3,0.3 0.3,0.6 v 0.9 l -0.2,0.6 -0.6,0.6 -0.9,0.3 -1.2,0.4 -0.6,0.3 -0.3,0.6 0.1,0.6 0.3,0.6 0.9,0.2 h 1.3 m -25.4,44.6 -0.2,-0.6 -0.8,-0.5 -0.6,-0.1 -1,0.2 -0.7,0.7 -0.6,1.5 -0.2,1.4 0.1,1.3 0.5,0.7 0.8,0.4 0.3,0.1 0.9,-0.2 0.7,-0.5 0.5,-0.8 v -0.3 l -0.1,-0.9 -0.5,-0.7 -0.8,-0.5 h -0.3 l -1,0.1 -0.7,0.5 -0.4,0.8 m 6.3,-3.1 3.2,0.5 -2.2,2.1 0.9,0.1 0.6,0.4 0.2,0.4 0.1,0.9 -0.1,0.6 -0.4,0.8 -0.7,0.5 -0.9,0.2 -0.9,-0.2 -0.9,-0.4 -0.2,-0.4 -0.2,-0.6 m 59.9,-28.5 -0.3,0.6 0.2,0.9 0.4,0.5 0.8,0.5 h 1.1 l 1.3,-0.7 1.3,-0.9 0.7,-0.9 0.2,-0.9 -0.3,-0.9 -0.2,-0.2 -0.8,-0.5 -0.8,-0.2 -0.9,0.3 -0.3,0.2 -0.5,0.8 -0.1,0.8 0.3,0.9 0.1,0.3 0.8,0.5 0.8,0.1 1,-0.3 m -7.9,-4.9 -0.3,0.6 0.3,0.9 0.4,0.4 0.8,0.6 1,-0.1 1.4,-0.6 1.2,-0.9 0.8,-1 0.1,-0.8 -0.3,-0.9 -0.1,-0.3 -0.8,-0.5 -0.9,-0.1 -0.9,0.3 -0.2,0.2 -0.5,0.7 -0.2,0.9 0.3,0.9 0.2,0.2 0.8,0.6 0.8,0.1 0.9,-0.3 m -12.4,23.5 -0.5,-0.5 -0.9,-0.1 -0.6,0.2 -0.8,0.5 -0.3,1 0.1,1.5 0.4,1.5 0.6,1.1 0.7,0.4 h 1 0.3 l 0.8,-0.6 0.4,-0.7 v -1 -0.2 l -0.6,-0.8 -0.7,-0.5 h -1 l -0.2,0.1 -0.8,0.5 -0.5,0.7 v 1 m 7.7,-6.5 -1.3,6.9 m -2.8,-5.8 4.1,-1.1"
       id="nums_001"
       stroke="#000000"
       stroke-width="1" />
    <path
       d="m 363.8,633.7 -1.6,-2.5 5.2,-19.2 -16.9,19.6 -4.5,1.1 -24,-9.6 17.3,19.1 5.8,50.8 -12.6,22.4 -21.3,3.2 -30.7,-22.1 -3.8,-21.3 -17.6,-37.7 12.6,27 v 0 L 261,679 l -61.9,30.2 31.5,-87.5 17.5,-43.3 29.2,-1.4 16.8,21.2 37.4,-109.8 -47.2,31.7 -75.2,-61.6 -69.2,-11 47.3,29.5 22.3,1.2 2.6,2.6 1.2,22.3 18.5,-15.6 4.2,-0.2 19.5,14.4 18.75,10.58112 11.32924,13.78399 L 291.4,549.9 l -9.7,18.2 -33.5,9.2 -17.7,-10.6 -22.8,11.3 -4.5,-0.8 -17.7,-18.3 -12.9,-0.8 v 0 l -21.4,-40.7 25.1,47.6 -13.9,14.5 -32.5,-1.2 -12.8,-15.5 -19.2,-5.5 -13.7,-29 7.9,-18.3 -23.2,5.5 -3.7,-1.8 -10.1,-21.5 -4.8,-21.8 20.2,-34.7 21.2,-6.7 27,-44.3 L 67.9,421.6 51.4,396.3 47.5,332.1 60.9,304.9 40.7,242.5 18.5,186 35,132.8 27.4,115 l 1.3,-2.4 18.9,-3.9 19.3,1.6 16.9,24.6 -5.5,18.6 24.1,-40.9 -26.1,0.5 -3.9,-2.6 -9.3,-24.4 29.7,-45.5 23.6,-13.5 18.6,6 11.3,28.4 -9.2,17.2 11.1,17 -8.2,32.4 -18,9.5 14.7,15.1 -1,36.1 -15.3,14.4 -52.7,6.3 18.4,6.6 10.3,28.5 -9.9,16.8 70.7,81 -58.6,12.2 46.3,-9.6 13.1,16.6 -3,-18.8 v 0 l 33.1,-28.1 51.5,29.4 60.3,5.5 31,44.8 -82.9,36.9 -27.6,-20.2 26.1,19.1 0.3,2.7 v 0 l 34.8,-16.5 55.8,12.6 3.5,-18.6 25.1,-12.7 17,8.2 3.9,82.8 -1.7,-36.8 31.9,-40.4 -9.6,-23.5 1.2,-4.5 19.5,-16.2 -6.1,-13 v 0 l 13.8,-35.2 -17.8,45.4 -35.5,28.7 -45.4,-23.3 -7.4,-17.9 14.4,-26.4 19,-3.6 -16,-12.5 -3.3,-34.3 14.8,-13.6 -14.8,13.6 -32.5,-3.5 -11.7,-16.3 5,55.5 -25.1,13.2 -59,-4.2 -23.1,-16.7 -38.5,-39.5 -15.9,-10.8 -2.1,-29.1 14.1,-13 -6.3,-116.7 15.7,-16 40.7,-2.5 17.6,13.9 17.8,18.4 7.4,50.2 -11.9,22.7 -29.9,58.7 43.2,27.4 -22.8,-14.4 4.5,-27.2 22.3,-58.8 12.1,-16.5 33.7,-3.7 15.5,13.3 17.4,19.4 0.6,4.7 -12.3,23.1 14.2,-14.3 3,0.2 12.6,15.7 -3.1,-33.7 -24.3,-11 -2.5,-4.2 1.2,-26.6 39,-12.7 75,39.5 -19.7,-37.5 -21.4,-45.1 -8.2,21 -36.7,18.5 -21.8,-5.9 -15.8,-19.4 -2.2,-49 14.1,-20.7 53.9,13.2 12.8,-14.7 30.5,0.6 12.2,15.3 62.9,63.1 -10.9,73.9 21,17.1 1.4,4.8 -7.7,25.8 -23.7,6.7 -32,-26.4 21.8,18 v 0 l -6,20.4 18.4,-2.6 1.8,1.7 -3,18.4 24.2,-0.9 3.5,2.5 6.6,23.3 2.2,24.2 -25.4,39.1 -22.9,7.9 15.1,18.3 0.1,4.1 -14.8,18.5 11.1,23.8 -0.8,4.7 -18.5,18.6 -38,63.1 15.4,22.6 14.8,-14.7 35.6,0.8 14.2,15.4 8.2,17.9 -13.4,28.4 -19,5.2 -7.9,29.1 -45.2,45 -29,7.8 -18.4,-6 -1,-2.6 9.7,-16.7 z"
       id="coupes_001"
       stroke="#ff0000"
       stroke-width="1.27"
       sodipodi:nodetypes="cccccccccccccccccccccccccccccccccccccccccccccccccccccccccccccccccccccccccccccccccccccccccccccccccccccccccccccccccccccccccccccccccccccccccccccccccccccccccccccccccccccccccccccccccccccccccccccccccccccccccccccccccccccccccc" />
    <path
       d="m 331.5,488.4 5.9,-59.4 m 0,0 49.5,59.7 m -102.6,31.4 -37.5,-87.2 m 0,0 90.6,-3.9 m -128.3,29.5 37.7,-25.6 m -37.7,25.6 11.3,-47.4 m 0,0 26.4,21.8 m -128.1,-48.2 101.7,26.4 m -11.3,47.4 -90.4,-73.8 M 92.1,510 91.7,429 M 139.9,447.5 92.1,510 M 55.1,492.2 91.7,429 m 66.3,-67.4 62.4,49.5 M 118.7,384.7 98.6,354.6 m 0,0 59.4,7 m -90.1,60 30.7,-67 m -30.7,67 -7,-116.7 m 0,0 37.7,49.7 M 86.5,261.4 98.6,354.6 M 40.7,242.5 86.5,261.4 m -18.8,-51.9 18.8,51.9 m 71.5,100.2 81.6,-17.5 m 60.3,5.5 -79.5,61.5 M 299.9,349.6 248,431.3 M 18.5,186 67.7,209.5 M 35,132.8 67.7,209.5 M 386.9,488.7 322,623.1 m 10.5,92.3 -38.4,-117.2 m 27.9,24.9 10.5,92.3 m -55.8,-40.2 17.4,-77 m 38.4,117.2 -55.8,-40.2 m 0,0 0.6,-98.2 m -90.1,-100 -36,40.4 m 0,0 -59.1,-7.4 m 84.2,55 -84.2,-55 m 294.8,-21.3 32.7,15.4 m 0,0 L 367.4,612 M 435,526.7 367.4,612 M 435,526.7 383.6,636.3 m 0,0 -16.2,-24.3 m 108,-32.3 -91.8,56.6 m 116,-108.1 -24.2,51.5 m -40.4,-53 64.6,1.5 m -24.2,51.5 -82.1,81.9 m 0,0 -9.7,-25.3 m 3.3,-147.6 70.7,-47.7 m -70.7,47.7 30.2,-77.2 m 0,0 11.1,-44.2 m 0,0 29.4,73.7 m -29.4,-73.7 37.6,26.6 M 428.2,367.3 465.4,353 m 0,0 0.4,40.9 m -37.6,-26.6 7.7,-48.2 m 0,0 29.5,33.9 M 259.1,637.5 277.3,577 m -18.2,60.5 -11,-59.1 m 11,59.1 -60,71.7 m 60,-71.7 1.9,41.5 m 174.9,-359.9 41.3,-62.2 m 0,0 -11.8,96.1 M 460,239.4 477.2,256.9 M 363.2,322 460,239.4 m -24.1,79.7 -72.7,2.9 M 358.7,261.6 460,239.4 M 418.1,364.5 363.2,322 m 81,-121 15.8,38.4 M 358.7,261.6 444.2,201 m -94,7.4 94,-7.4 m -123.8,5.8 29.8,1.6 m 8.5,53.2 -59,-6.2 m -68.6,-30.1 89.3,-18.5 m 26.7,-32.1 97.1,26.3 m -97.1,-26.3 88.4,-15 m 0,0 8.7,41.3 m -144.5,54.4 -50.3,11.5 m 0,0 -18.3,-41.6 m 90.4,-92.4 114,26.8 m -182.1,6.8 61.3,-6.9 M 511.5,281.8 465.4,353 M 435.5,159.7 485.2,173 m 0,0 -41,28 m -8.7,-41.3 60.6,-60.6 m -80.3,23.1 80.3,-23.1 M 415.8,122.2 433.2,36 M 394.4,77.1 433.2,36 M 377.7,34.8 433.2,36 M 394.4,77.1 377.7,34.8 m 107.5,138.2 -9,54.4 m -139,142.5 26,-47.9 m 54.9,42.5 -80.9,5.4 m -9.5,-259.2 50,-75.9 m -50,75.9 -3.9,-89.1 M 35,132.8 78.3,153.5 m 0,0 42.1,49.7 M 78.3,153.5 122,137.6 m -19.6,-25 19.6,25 m -19.6,-25 34.7,-33.9 m -34.7,33.9 -9.6,-72 m 0,0 44.3,38.1 m 167.6,232.2 -107.2,-7.7 m 0,0 51.9,-36.3 m -90.4,-3.2 47.2,-24.2 m -51.1,-28.7 81,-30 m -81,30 67.7,-121.3 m 0,0 13.3,91.3 M 102.4,112.6 63.1,86.1 m -15.5,22.6 30.7,44.8 M 35,132.8 47.6,108.7 m 68.8,-81.6 20.7,51.6 m 50.1,398.3 26.1,26.1 m 0,0 -27.8,55.8 m 0,0 -34.3,-41.5 m 104.3,-15.7 -70,57.2 m 70,-57.2 -25,65 m 25,-65 35.9,48.2 m 0,0 -60.9,16.8"
       id="plisM_001"
       stroke="#a52a2a"
       stroke-dasharray="4" />
    <path
       d="m 386.9,488.7 -55.4,-0.3 M 284.3,520.1 337.4,429 M 139.9,447.5 118.7,384.7 M 139.9,447.5 91.7,429 m 0.4,81 -37,-17.8 M 118.7,384.7 158,361.6 M 60.9,304.9 86.5,261.4 m -45.8,-18.9 27,-33 m 171.9,134.6 -19.2,67 M 158,361.6 188.1,314.7 m 198.8,174 -92.8,109.5 M 322,623.1 294.1,598.2 M 187.2,477 92.1,510 m 84.2,55 -59.2,-2.2 m 0,0 -25,-52.8 M 386.9,488.7 367.4,612 m 0,0 -45.4,11.1 m 113,-96.4 40.4,53 M 417.1,411.5 457.6,441 m 8.2,-47.1 -8.2,47.1 M 259.1,637.5 230.6,621.7 M 337.4,429 383,405.9 m 52.9,-86.8 24.1,-79.7 m -96.8,82.6 -4.5,-60.4 m 0,0 -8.5,-53.2 m 8.5,53.2 -38.3,-54.8 m -20.7,48.6 20.7,-48.6 m -20.7,48.6 -68.6,-30.1 m 116,-50.6 -25.6,-41.8 m -68.1,33.6 67,40.3 m -5.7,-47.2 5.7,47.2 m 156.8,50.1 34.3,24.9 M 485.2,173 499.9,220.7 M 394.4,77.1 327.7,110.7 m -249.4,42.8 -10.6,56 m 54.3,-71.9 -1.6,65.6 M 137.1,78.7 122,137.6 m 182.7,173.3 -55.3,-44 m -90.4,-3.2 90.4,3.2 m -90.4,-3.2 -3.9,-52.9 m 0,0 51.1,28.7 m -57.4,-145.4 74,-4.6 m -9.5,413.6 -62.1,14.3 m 62.1,-14.3 42.2,-1.4 m -25,65 -45,-7.8"
       id="plisV_001"
       stroke="#008000"
       stroke-dasharray="4, 1, 1, 1"
       stroke-width="1.27" />
    <path
       d="m 357.2,486.5 4,4 m 0,-4 -4,4 m -48.4,-17.9 4,4 m 0,-4 -4,4 m -181.5,-62.5 4,4 m 0,-4 -4,4 m -13.5,18.1 4,4 m 0,-4 -4,4 m -42.2,58.9 4,4 m 0,-4 -4,4 m 64.7,-131.9 4,4 m 0,-4 -4,4 m -64.6,-94 4,4 m 0,-4 -4,4 M 52.2,224 l 4,4 m 0,-4 -4,4 m 175.8,147.6 4,4 m 0,-4 -4,4 m -57,-43.4 4,4 m 0,-4 -4,4 m 167.5,201.2 4,4 m 0,-4 -4,4 m -32.4,63.2 4,4 m 0,-4 -4,4 m -168.5,-121.1 4,4 m 0,-4 -4,4 m 7.1,66.4 4,4 m 0,-4 -4,4 m -42.1,-31.5 4,4 m 0,-4 -4,4 m 272.5,9.9 4,4 m 0,-4 -4,4 m -32.4,63.2 4,4 m 0,-4 -4,4 m 110.5,-68.3 4,4 m 0,-4 -4,4 m -17.9,-130.9 4,4 m 0,-4 -4,4 m 24.4,-12.8 4,4 m 0,-4 -4,4 m -216.8,208.1 4,4 m 0,-4 -4,4 m 115.3,-216.1 4,4 m 0,-4 -4,4 m 87.8,-142.3 4,4 m 0,-4 -4,4 m -87,8.6 4,4 m 0,-4 -4,4 m -6.5,-60.8 4,4 m 0,-4 -4,4 m -14.9,-4.8 4,4 m 0,-4 -4,4 m -29.6,-7.1 4,4 m 0,-4 -4,4 m -44.6,5.3 4,4 m 0,-4 -4,4 m 68.9,-90.6 4,4 m 0,-4 -4,4 m -47.4,28.8 4,4 m 0,-4 -4,4 m 30.6,-7.4 4,4 m 0,-4 -4,4 m 176.8,82.2 4,4 m 0,-4 -4,4 m -1.8,-76.5 4,4 m 0,-4 -4,4 m -131.4,-107 4,4 m 0,-4 -4,4 M 71,179.5 l 4,4 m 0,-4 -4,4 m 48.2,-15.1 4,4 m 0,-4 -4,4 m 8.4,-66.2 4,4 m 0,-4 -4,4 m 147.5,176.7 4,4 m 0,-4 -4,4 m -72.9,-27.6 4,4 m 0,-4 -4,4 m -47.2,-32 4,4 m 0,-4 -4,4 m 23.6,-16.1 4,4 m 0,-4 -4,4 m 5.2,-137.4 4,4 m 0,-4 -4,4 m -3.5,414.5 4,4 m 0,-4 -4,4 m 52.1,-11.9 4,4 m 0,-4 -4,4 m -26.4,56.4 4,4 m 0,-4 -4,4"
       id="marqueV_001"
       stroke="#008000" />
    <path
       d="m 251,359.4 1.5,-0.7 2.2,-2.3 v 15.8"
       id="titre_1"
       stroke="#4b0082" />
  </g>
  <g
     id="page_002">
    <path
       d="m 997.6,556.7 -0.5,-0.5 -1.1,-0.5 6,-2 m -16,31.4 -0.6,0.8 0.2,0.7 0.3,0.5 0.6,0.2 0.7,-0.1 1.1,-0.5 0.9,-0.3 0.9,0.1 0.6,0.3 0.5,0.7 0.2,0.7 -0.1,0.4 -0.5,0.8 -1,0.7 -0.9,0.3 h -0.4 l -0.6,-0.3 -0.5,-0.7 -0.2,-0.7 0.1,-0.8 0.6,-0.8 0.7,-1 0.3,-0.6 -0.1,-0.6 -0.4,-0.5 -0.6,-0.3 -0.9,0.3 -1,0.8 m 6.3,-4.9 1.5,6.8 m -4.8,-4.2 3.3,-2.6 m -20.3,0.9 -0.7,-0.6 -0.7,0.1 -0.5,0.4 -0.3,0.5 0.1,0.7 0.4,1.2 0.3,0.9 -0.1,0.8 -0.4,0.6 -0.7,0.5 -0.7,0.1 -0.4,-0.1 -0.7,-0.5 -0.7,-1 -0.3,-0.9 0.1,-0.5 0.3,-0.5 0.7,-0.6 h 0.7 l 0.8,0.1 0.8,0.6 0.9,0.8 0.6,0.3 0.7,-0.1 0.5,-0.3 0.3,-0.6 -0.3,-0.9 -0.7,-1.1 m 3.6,6.7 0.3,-0.6 -0.3,-0.9 -0.3,-0.5 -0.8,-0.5 h -1.1 l -1.4,0.6 -1.2,0.8 -0.8,1 -0.2,0.8 0.3,0.9 0.2,0.3 0.7,0.5 0.9,0.2 0.9,-0.3 0.2,-0.2 0.6,-0.7 0.1,-0.9 -0.2,-0.9 -0.2,-0.2 -0.8,-0.6 -0.8,-0.1 -0.9,0.2 m 22.8,-90 0.2,0.9 0.5,0.4 0.6,0.1 0.6,-0.2 0.4,-0.5 0.5,-1.2 0.4,-0.8 0.7,-0.5 0.7,-0.2 0.9,0.1 0.5,0.4 0.3,0.4 0.1,0.9 -0.2,1.2 -0.4,0.8 -0.4,0.3 -0.6,0.2 -0.9,-0.2 -0.5,-0.4 -0.5,-0.7 -0.2,-0.9 -0.1,-1.2 -0.2,-0.7 -0.5,-0.4 h -0.6 l -0.7,0.1 -0.4,0.9 -0.2,1.3 m 1.2,-7.5 -0.5,3 2.6,0.7 -0.2,-0.3 -0.2,-1 0.2,-0.8 0.4,-0.9 0.7,-0.5 0.9,-0.1 0.6,0.1 0.9,0.4 0.5,0.7 0.1,0.9 -0.1,0.9 -0.5,0.9 -0.3,0.2 -0.7,0.2 m -3.9,-36.2 0.9,0.4 0.6,-0.3 0.4,-0.4 0.2,-0.6 -0.3,-0.7 -0.6,-1 -0.5,-0.8 -0.1,-0.9 0.2,-0.6 0.6,-0.7 0.6,-0.2 0.4,-0.1 0.9,0.4 0.9,0.8 0.5,0.8 v 0.5 l -0.2,0.6 -0.6,0.7 -0.6,0.2 -0.8,0.1 -0.9,-0.4 -1.1,-0.6 -0.6,-0.1 -0.7,0.2 -0.4,0.5 -0.1,0.6 0.4,0.8 1,0.9 m -3.4,-3 -2.5,-2.2 3,-0.6 -0.7,-0.6 -0.2,-0.6 -0.1,-0.5 0.4,-0.8 0.4,-0.5 0.8,-0.5 h 0.9 l 0.9,0.4 0.6,0.6 0.5,0.8 v 0.4 l -0.1,0.7 m -53.2,70.4 0.3,-0.9 -0.2,-0.6 -0.5,-0.4 -0.7,-0.1 -0.6,0.2 -1,0.7 -0.8,0.5 -0.8,0.1 -0.7,-0.2 -0.7,-0.5 -0.2,-0.7 -0.1,-0.4 0.4,-0.9 0.8,-0.9 0.8,-0.5 h 0.4 l 0.7,0.2 0.6,0.5 0.3,0.7 0.1,0.8 -0.4,0.9 -0.5,1.1 -0.2,0.6 0.3,0.7 0.4,0.4 0.7,0.1 0.8,-0.5 0.9,-1 m -3.7,2.1 -0.1,0.6 0.1,1.3 -4.8,-4.1 m 52,-109.8 -0.3,-0.1 -0.6,-0.4 -0.2,-0.3 -0.2,-0.7 0.2,-1.1 0.5,-0.6 0.3,-0.2 0.6,-0.2 0.6,0.1 0.6,0.4 0.7,0.8 2.4,3.5 0.8,-4.1 m -5.9,-2.9 0.7,-3.3 2,2.3 0.1,-0.9 0.5,-0.6 0.3,-0.2 0.9,-0.1 0.6,0.1 0.9,0.4 0.4,0.7 0.2,1 -0.2,0.9 -0.5,0.8 -0.3,0.2 -0.7,0.2 m -17.1,-66.7 -0.3,0.2 h -0.7 l -0.4,-0.1 -0.5,-0.4 -0.6,-1.1 v -0.7 l 0.1,-0.4 0.4,-0.5 0.6,-0.3 h 0.6 l 1.1,0.1 4,1.3 -1.9,-3.7 m -6.1,-2.6 1,-0.1 0.8,0.2 0.7,0.7 0.1,0.3 0.2,0.9 -0.3,0.8 -0.7,0.7 -0.2,0.1 -1,0.2 -0.8,-0.3 -0.7,-0.6 -0.1,-0.3 -0.1,-0.9 0.2,-0.8 0.9,-0.9 1.4,-0.7 1.4,-0.4 1.1,0.1 0.7,0.7 0.3,0.5 0.1,1 -0.4,0.5 m -133.8,42 4.1,-5.7 m 0.1,6.5 -4.2,-0.8 m -4.6,-2.9 0.5,-0.8 0.7,-0.5 0.9,-0.2 0.3,0.1 0.8,0.4 0.5,0.7 0.2,1 -0.1,0.3 -0.4,0.8 -0.7,0.5 -1,0.1 h -0.3 l -0.8,-0.5 -0.5,-0.7 -0.1,-1.2 0.3,-1.5 0.5,-1.4 0.8,-0.8 0.9,-0.1 0.6,0.1 0.9,0.4 0.2,0.7 m 45.2,-76.1 h 0.7 l 0.6,-0.7 0.2,-0.6 v -0.9 l -0.6,-0.9 -1.2,-0.9 -1.4,-0.5 -1.3,-0.2 -0.7,0.3 -0.7,0.8 -0.1,0.2 v 1 l 0.3,0.8 0.7,0.6 0.3,0.1 1,0.1 0.7,-0.4 0.7,-0.7 0.1,-0.3 v -0.9 l -0.3,-0.8 -0.7,-0.6 m -1.4,9.1 -0.7,-0.6 -0.4,-0.8 0.1,-1 0.1,-0.3 0.6,-0.7 0.8,-0.3 h 0.9 l 0.3,0.2 0.7,0.6 0.4,0.7 -0.1,1 -0.1,0.3 -0.6,0.7 -0.8,0.3 -1.2,-0.1 -1.4,-0.6 -1.3,-0.8 -0.6,-0.9 0.1,-1 0.2,-0.5 0.6,-0.7 0.7,-0.1 m 36.7,-8.6 4.9,-5 m -0.9,6.4 -4,-1.4 m -136.5,49.4 -0.6,3 2.5,0.9 -0.2,-0.4 -0.1,-0.9 0.2,-0.9 0.5,-0.8 0.7,-0.5 1,-0.1 0.5,0.1 0.9,0.5 0.4,0.8 0.1,0.9 -0.2,0.9 -0.5,0.8 -0.3,0.2 -0.7,0.2 m -0.9,-9.7 0.8,0.5 0.5,0.7 0.1,0.9 -0.1,0.3 -0.5,0.8 -0.7,0.5 -0.9,0.1 -0.3,-0.1 -0.9,-0.5 -0.4,-0.7 -0.1,-0.9 0.1,-0.3 0.5,-0.8 0.7,-0.5 h 1.2 l 1.5,0.3 1.4,0.6 0.7,0.8 0.1,1 -0.1,0.6 -0.5,0.8 -0.7,0.1 m -61.9,26.4 -4.9,4.9 m 0.9,-6.3 4,1.4 m 2.8,1 -1,-0.1 -0.8,0.7 -0.8,1.3 -0.3,0.9 -0.2,1.5 0.3,1 0.7,0.6 0.6,0.2 h 0.9 l 0.9,-0.6 0.8,-1.4 0.3,-0.8 0.2,-1.5 -0.3,-1.1 -0.7,-0.5 -0.5,-0.2 m -17.1,-47.3 v -0.9 l -0.5,-0.5 -0.6,-0.2 -0.6,0.1 -0.5,0.5 -0.7,1 -0.5,0.8 -0.8,0.3 -0.7,0.1 -0.8,-0.2 -0.5,-0.5 -0.2,-0.4 v -0.9 l 0.4,-1.2 0.6,-0.7 0.4,-0.2 0.6,-0.1 0.9,0.3 0.4,0.4 0.4,0.8 v 0.9 l -0.1,1.3 0.1,0.6 0.5,0.5 0.6,0.2 0.6,-0.1 0.6,-0.8 0.4,-1.2 m 77,-30.1 -0.6,0.3 -0.3,0.9 -0.1,0.6 0.3,0.9 0.9,0.6 1.5,0.4 h 1.5 l 1.2,-0.3 0.6,-0.6 0.3,-0.9 V 286 l -0.2,-0.9 -0.6,-0.6 -0.9,-0.3 h -0.3 l -0.9,0.3 -0.6,0.6 -0.4,0.9 v 0.3 l 0.3,0.9 0.6,0.6 0.9,0.3 m -3.1,-8.7 -0.6,0.3 -0.4,0.9 v 0.6 l 0.3,0.9 0.9,0.6 1.5,0.3 h 1.5 l 1.2,-0.2 0.6,-0.6 0.3,-0.9 V 281 l -0.3,-0.9 -0.5,-0.6 -0.9,-0.4 h -0.3 l -0.9,0.3 -0.7,0.6 -0.3,0.9 v 0.3 l 0.3,0.9 0.6,0.6 0.9,0.3 m -58.4,-50.8 0.1,0.6 0.7,1.1 -6.1,-1.4 m 5.4,5.7 -3.4,-3.9 -1,4.4 m 4.4,-0.5 -6.1,-1.4 M 819,152 l -2.9,1.6 0.4,-3 -0.8,0.5 H 815 l -0.4,-0.1 -0.7,-0.7 -0.3,-0.5 -0.1,-0.9 0.2,-0.8 0.6,-0.7 0.8,-0.5 1,-0.1 0.4,0.1 0.5,0.4 m -2.8,5.7 -0.4,0.6 -0.4,1.2 -3,-5.5 m 35.1,38.8 -0.4,-0.5 -1,-0.1 -0.5,0.1 -0.9,0.5 -0.3,1 v 1.5 l 0.3,1.5 0.6,1.1 0.7,0.5 0.9,0.1 0.3,-0.1 0.9,-0.5 0.4,-0.7 0.1,-1 -0.1,-0.3 -0.5,-0.8 -0.7,-0.4 -0.9,-0.1 -0.3,0.1 -0.8,0.4 -0.5,0.8 -0.1,0.9 m 7.1,-6 -2,4.8 4.4,-1 m -2.4,-3.8 1.4,6.2 m 42.8,9.2 0.2,-0.7 -0.5,-0.8 -0.4,-0.4 -0.9,-0.4 -1.1,0.3 -1.2,0.9 -1,1.1 -0.6,1.1 0.1,0.9 0.5,0.8 0.2,0.2 0.8,0.4 0.9,-0.1 0.8,-0.4 0.2,-0.3 0.4,-0.8 -0.1,-0.9 -0.4,-0.8 -0.2,-0.2 -0.9,-0.4 -0.9,0.1 -0.8,0.4 m 7.7,1.3 -0.9,-0.4 -0.6,0.2 -0.4,0.5 -0.2,0.6 0.3,0.7 0.7,1 0.4,0.8 0.1,0.9 -0.2,0.6 -0.6,0.7 -0.6,0.2 h -0.4 l -0.9,-0.3 -0.9,-0.8 -0.5,-0.9 v -0.4 l 0.2,-0.6 0.6,-0.7 0.6,-0.2 0.8,-0.1 0.9,0.4 1.1,0.6 0.7,0.1 0.6,-0.2 0.4,-0.5 0.2,-0.6 -0.5,-0.8 -1,-0.9 m 6.7,-33.2 v 0.7 l 0.7,0.6 0.5,0.3 0.9,0.1 1,-0.5 0.9,-1.3 0.6,-1.3 0.3,-1.2 -0.3,-0.8 -0.7,-0.7 -0.3,-0.1 -0.9,-0.1 -0.8,0.2 -0.7,0.7 -0.1,0.3 -0.1,0.9 0.3,0.8 0.7,0.7 0.2,0.1 1,0.1 0.8,-0.2 0.6,-0.7 m -6.2,0 -0.1,0.3 -0.5,0.4 -0.4,0.2 h -0.7 l -1.1,-0.5 -0.4,-0.6 -0.1,-0.4 v -0.6 l 0.2,-0.6 0.5,-0.4 1,-0.5 4,-1.5 -3.8,-1.8 m 23.2,351.3 -0.4,0.8 0.1,0.7 0.4,0.4 0.7,0.3 0.6,-0.2 1.1,-0.6 0.9,-0.3 h 0.8 l 0.7,0.3 0.6,0.6 0.1,0.7 v 0.4 l -0.5,0.8 -0.9,0.8 -0.8,0.4 h -0.5 l -0.6,-0.3 -0.6,-0.7 -0.2,-0.6 0.1,-0.9 0.5,-0.8 0.7,-1 0.2,-0.6 -0.2,-0.7 -0.4,-0.4 -0.6,-0.3 -0.9,0.4 -1,0.9 m 3.9,-1.5 0.3,-0.7 v -1.2 l 4.2,4.7 m -93.2,-92.2 -0.9,0.4 -0.2,0.6 v 0.6 l 0.4,0.6 0.6,0.2 1.2,0.2 1,0.2 0.6,0.6 0.4,0.5 0.1,0.9 -0.3,0.7 -0.3,0.3 -0.8,0.4 -1.2,0.1 -0.9,-0.2 -0.4,-0.3 -0.3,-0.6 -0.1,-0.9 0.2,-0.6 0.6,-0.6 0.8,-0.4 1.2,-0.4 0.6,-0.4 0.2,-0.6 v -0.6 l -0.4,-0.6 -0.9,-0.2 -1.4,0.1 m 5.8,-0.5 -0.9,0.4 -0.5,0.9 -0.1,1.5 0.1,0.9 0.4,1.5 0.7,0.8 0.9,0.3 0.6,-0.1 0.9,-0.4 0.5,-0.9 0.1,-1.6 v -0.9 l -0.5,-1.4 -0.7,-0.9 -0.9,-0.2 -0.4,0.1 m -82,30.6 2.4,6.6 m -5.3,-3.6 2.9,-3 m 3,-3 0.9,5.1 3.1,-3.2 m -4,-1.9 4.5,4.4 m -135.5,5.1 -6.6,2.2 m 3.7,-5.2 2.9,3 m 1.9,2 -0.9,-0.5 -0.6,0.2 -0.5,0.4 -0.2,0.7 0.2,0.6 0.6,1.1 0.4,0.8 v 0.9 l -0.2,0.6 -0.7,0.6 -0.6,0.2 h -0.4 l -0.9,-0.4 -0.8,-0.9 -0.4,-0.8 v -0.5 l 0.2,-0.6 0.7,-0.6 0.6,-0.2 h 0.9 l 0.8,0.4 1.1,0.7 0.6,0.2 0.6,-0.2 0.5,-0.4 0.2,-0.6 -0.4,-0.9 -0.9,-0.9 m 56.9,-81.6 -6.1,-3.5 m 6.4,-0.7 -0.3,4.2 m -1.6,1.6 h 0.3 l 0.5,0.3 0.3,0.4 0.3,0.6 -0.1,1.2 -0.4,0.5 -0.3,0.3 -0.6,0.3 -0.6,-0.1 -0.6,-0.3 -0.8,-0.7 -2.8,-3.2 -0.3,4.2 m 34.5,-5.3 4.6,-5.2 m -0.6,6.4 -4,-1.2 m -2.8,-0.8 h 0.9 l 0.8,-0.7 0.7,-1.4 0.3,-0.8 0.1,-1.6 -0.3,-1 -0.8,-0.5 -0.6,-0.2 -0.9,0.1 -0.9,0.7 -0.7,1.3 -0.2,0.9 -0.1,1.5 0.3,1 0.8,0.6 0.4,0.1 m 180.8,130.3 -0.9,-0.3 -0.6,0.4 -0.3,0.5 -0.1,0.6 0.3,0.6 0.9,0.9 0.5,0.8 0.2,0.8 -0.1,0.7 -0.5,0.7 -0.5,0.3 -0.5,0.1 -0.9,-0.2 -1,-0.7 -0.6,-0.7 v -0.4 -0.7 l 0.5,-0.7 0.6,-0.4 0.8,-0.2 1,0.3 1.1,0.4 0.7,0.1 0.6,-0.4 0.3,-0.5 0.1,-0.6 -0.6,-0.8 -1.1,-0.7 m 2.9,3.7 0.2,-0.2 0.6,-0.4 h 0.4 0.6 l 1,0.7 0.4,0.6 0.1,0.4 -0.1,0.7 -0.4,0.5 -0.5,0.3 -1,0.4 -4.2,0.9 3.5,2.3 m -147.9,-370.1 -2.3,-2.4 3,-0.4 -0.6,-0.6 -0.2,-0.6 V 144 l 0.5,-0.8 0.4,-0.4 0.9,-0.4 h 0.8 l 0.8,0.4 0.7,0.7 0.4,0.9 v 0.4 l -0.3,0.6 m -9.8,-3 2,2.2 2.2,-1.6 h -0.4 l -0.9,-0.5 -0.6,-0.6 -0.4,-0.9 v -0.8 l 0.5,-0.9 0.4,-0.4 0.9,-0.4 h 0.8 l 0.9,0.5 0.6,0.6 0.4,0.9 v 0.4 l -0.2,0.6 m -57.3,39.1 0.7,-0.1 1.1,-0.6 -2.1,6 m 6.3,-4.8 -4.2,3 4.2,1.5 m 0,-4.5 -2.1,5.9 m -15.2,347.9 v -0.7 l -0.3,-1.2 5.4,3.1 m -3.5,-3.9 -0.3,-0.1 -0.3,-0.6 -0.1,-0.4 v -0.7 l 0.6,-1 0.5,-0.4 0.5,-0.1 h 0.6 l 0.5,0.3 0.4,0.6 0.5,1 1.1,4.1 2.1,-3.7 m -55.9,-28.5 -2.7,-6.4 m 5.5,3.3 -2.8,3.1 m -1.7,-0.1 -0.2,0.6 0.1,1.3 -4.7,-4.2 m 24.4,60.1 -1.4,6.8 m -2.6,-5.8 4,-1 m 2,1.1 -0.1,-0.3 0.2,-0.7 0.2,-0.4 0.5,-0.4 1.2,-0.3 0.6,0.2 0.4,0.2 0.4,0.5 0.2,0.6 -0.2,0.6 -0.3,1 -2.2,3.7 4.1,-1 m -26.7,-26 -7,-0.5 m 5.4,-3.4 1.6,3.9 m 0.6,1.6 1.2,3.1 -2.9,-0.8 0.3,0.9 v 0.6 l -0.2,0.4 -0.7,0.6 -0.6,0.2 -0.9,0.1 -0.8,-0.4 -0.6,-0.7 -0.3,-0.8 -0.1,-1 0.2,-0.4 0.4,-0.5 m 47.4,-404.7 0.2,0.7 0.8,1 -6.3,-1 m 6,4 -0.2,-1 -0.8,-0.7 -1.4,-0.6 -0.9,-0.1 h -1.5 l -1,0.5 -0.4,0.8 -0.1,0.6 0.1,0.9 0.8,0.8 1.4,0.5 0.9,0.2 1.5,-0.1 1,-0.4 0.5,-0.8 v -0.5 m 168.3,203.5 -5.4,4.5 m 1.6,-6.3 3.8,1.8 m 3.7,4 -0.7,0.7 -0.8,0.3 -0.9,-0.1 -0.3,-0.1 -0.7,-0.7 -0.3,-0.8 0.1,-0.9 0.2,-0.3 0.6,-0.7 0.8,-0.3 1,0.1 0.2,0.2 0.7,0.6 0.3,0.8 -0.2,1.2 -0.6,1.4 -0.9,1.2 -1,0.6 -0.9,-0.1 -0.6,-0.3 -0.6,-0.6 -0.1,-0.7 m 3.7,-39.7 -0.3,0.6 0.4,0.9 0.4,0.4 0.9,0.4 1,-0.1 1.3,-0.8 1.1,-1 0.7,-1.1 V 310 l -0.4,-0.9 -0.2,-0.2 -0.8,-0.5 h -0.8 l -0.9,0.4 -0.2,0.2 -0.5,0.8 v 0.9 l 0.4,0.8 0.2,0.3 0.8,0.4 h 0.9 l 0.8,-0.3 m -7.7,-2.2 0.8,0.4 1.1,-0.1 1.3,-0.8 0.6,-0.6 0.9,-1.3 0.3,-1 -0.4,-0.9 -0.4,-0.4 -0.8,-0.5 -1.1,0.2 -1.3,0.8 -0.7,0.6 -0.9,1.2 -0.2,1.1 0.4,0.9 0.3,0.3 m -42.3,-2.8 0.5,-3 -2.6,-0.7 0.2,0.3 0.2,1 -0.2,0.8 -0.5,0.9 -0.6,0.5 -1,0.1 -0.6,-0.1 -0.8,-0.5 -0.5,-0.7 -0.1,-0.9 0.1,-0.9 0.5,-0.8 0.3,-0.3 0.7,-0.1 m 1.3,9.6 -0.8,-0.5 -0.5,-0.7 -0.1,-0.9 v -0.3 l 0.5,-0.8 0.6,-0.5 1,-0.2 0.3,0.1 0.8,0.4 0.5,0.7 0.1,1 v 0.3 l -0.5,0.8 -0.7,0.5 -1.2,0.1 -1.5,-0.3 -1.4,-0.5 -0.8,-0.8 -0.1,-0.9 0.1,-0.6 0.4,-0.8 0.7,-0.2 m 22.1,-11.3 3,0.5 0.7,-2.6 -0.3,0.2 -0.9,0.2 -0.9,-0.2 -0.9,-0.5 -0.4,-0.7 -0.2,-0.9 0.1,-0.6 0.5,-0.8 0.7,-0.5 0.9,-0.1 0.9,0.1 0.8,0.5 0.3,0.3 0.2,0.7 m -7.7,3.8 1,-0.2 0.4,-0.5 0.1,-0.6 -0.2,-0.6 -0.6,-0.4 -1.1,-0.5 -0.8,-0.5 -0.5,-0.7 -0.2,-0.6 0.2,-0.9 0.4,-0.6 0.3,-0.2 1,-0.1 1.1,0.2 0.9,0.4 0.2,0.4 0.2,0.6 -0.2,0.9 -0.4,0.5 -0.7,0.5 -0.9,0.2 -1.2,0.1 -0.7,0.1 -0.4,0.6 -0.1,0.6 0.2,0.6 0.8,0.5 1.4,0.2 m -71.8,211.4 -0.5,-0.5 -1.1,-0.7 6.1,-1.6 m -6.9,-0.9 0.5,0.8 0.6,0.1 0.6,-0.1 0.5,-0.4 0.2,-0.7 v -1.2 -1 l 0.5,-0.7 0.5,-0.5 0.8,-0.2 0.7,0.2 0.4,0.2 0.5,0.8 0.3,1.1 -0.1,1 -0.2,0.3 -0.5,0.5 -0.9,0.2 -0.6,-0.1 -0.8,-0.5 -0.5,-0.8 -0.6,-1 -0.4,-0.5 -0.7,-0.2 -0.6,0.2 -0.5,0.4 v 0.9 l 0.3,1.4 m -11.4,3.4 h 0.6 l 1.2,-0.6 -2.2,5.9 m 6.3,-2.4 -0.6,0.8 -0.8,0.3 h -0.9 l -0.3,-0.1 -0.8,-0.6 -0.3,-0.8 v -0.9 l 0.1,-0.3 0.6,-0.7 0.8,-0.4 h 0.9 l 0.3,0.1 0.8,0.6 0.3,0.8 -0.1,1.2 -0.5,1.4 -0.8,1.3 -0.9,0.7 h -1 l -0.5,-0.3 -0.8,-0.5 v -0.7 m -77,-439.6 2.4,2.3 -3,0.5 0.7,0.6 0.2,0.6 v 0.4 l -0.4,0.9 -0.4,0.4 -0.9,0.5 h -0.8 l -0.9,-0.4 -0.6,-0.7 -0.4,-0.8 -0.1,-0.4 0.2,-0.7 m 9.7,2.2 -5,1 3.2,3.1 m 1.8,-4.1 -4.3,4.6 m 4.8,-16.1 -3.3,0.2 1.7,-2.5 h -0.9 l -0.7,-0.2 -0.3,-0.3 -0.3,-0.9 -0.1,-0.6 0.3,-0.9 0.5,-0.6 0.9,-0.4 0.9,-0.1 0.9,0.3 0.4,0.3 0.3,0.6 m -5.6,5.4 -3.3,0.2 1.6,-2.5 H 656 l -0.6,-0.2 -0.3,-0.3 -0.4,-0.9 v -0.6 l 0.3,-0.9 0.5,-0.6 0.9,-0.4 h 0.9 l 0.9,0.2 0.3,0.3 0.4,0.6 m 236.7,61.8 -0.6,-0.2 -0.9,0.4 -0.4,0.4 -0.5,0.8 0.2,1.1 0.8,1.3 1,1.1 1,0.7 h 0.9 l 0.9,-0.4 0.2,-0.2 0.4,-0.9 0.1,-0.8 -0.4,-0.9 -0.2,-0.2 -0.9,-0.4 -0.8,-0.1 -0.9,0.4 -0.2,0.2 -0.5,0.9 v 0.8 l 0.4,0.9 m 0.1,-54.8 3,0.4 0.7,-2.7 -0.4,0.3 -0.9,0.2 -0.9,-0.2 -0.9,-0.4 -0.5,-0.7 -0.1,-0.9 v -0.6 l 0.5,-0.8 0.6,-0.5 1,-0.2 0.9,0.1 0.8,0.4 0.3,0.4 0.2,0.6 m 19.2,20.6 0.9,-3.2 1.8,2.5 0.3,-0.9 0.4,-0.5 0.4,-0.2 h 1 l 0.5,0.2 0.8,0.5 0.4,0.8 v 0.9 l -0.3,0.9 -0.5,0.8 -0.4,0.2 -0.6,0.1 m -202.6,-42.5 1,-5 -4.1,1.9 m 3.1,3.1 -2.7,-5.7 m 44.1,61.2 3.3,-0.3 -1.6,2.5 h 0.9 l 0.6,0.2 0.3,0.3 0.4,0.9 v 0.6 l -0.2,0.9 -0.6,0.6 -0.8,0.4 -0.9,0.1 -0.9,-0.3 -0.4,-0.2 -0.3,-0.6 m 8.5,-5.8 -3,0.2 -0.1,2.8 0.3,-0.4 0.9,-0.3 0.9,-0.1 0.9,0.2 0.6,0.6 0.4,0.8 v 0.6 l -0.2,1 -0.5,0.6 -0.9,0.4 H 769 l -0.9,-0.2 -0.4,-0.3 -0.3,-0.5 m 22.8,-29.1 -0.2,-3.3 2.5,1.6 -0.1,-0.9 0.3,-0.6 0.3,-0.3 0.8,-0.4 0.6,-0.1 0.9,0.3 0.7,0.5 0.4,0.9 v 0.9 l -0.2,0.9 -0.2,0.3 -0.6,0.4 m -4.1,-5 -0.4,-0.5 -1,-0.9 6.3,-0.5 m -21.3,-31.2 -3.1,-1 2.4,-1.7 -0.8,-0.3 -0.5,-0.5 -0.2,-0.3 v -1 l 0.2,-0.6 0.5,-0.7 0.8,-0.4 h 0.9 l 0.9,0.2 0.8,0.6 0.1,0.4 0.2,0.6 m -6.7,1.7 -0.1,0.3 -0.5,0.5 -0.4,0.2 -0.6,0.1 -1.2,-0.4 -0.4,-0.5 -0.2,-0.3 -0.1,-0.7 0.1,-0.6 0.5,-0.5 0.8,-0.6 3.8,-2 -4,-1.3 m 68.6,55.7 2.4,-1.8 -1.4,-2.4 v 0.5 l -0.6,0.7 -0.7,0.6 -0.9,0.3 -0.8,-0.2 -0.8,-0.5 -0.4,-0.5 -0.3,-0.9 0.2,-0.8 0.5,-0.8 0.7,-0.5 0.9,-0.3 h 0.4 l 0.6,0.3 m -13,24.4 2.7,1.9 -2.9,0.9 0.7,0.6 0.4,0.6 v 0.4 l -0.2,0.9 -0.4,0.5 -0.7,0.5 -0.9,0.2 -0.9,-0.3 -0.7,-0.5 -0.6,-0.8 -0.1,-0.4 0.1,-0.7 m 6.9,0.5 0.2,-0.3 0.6,-0.3 0.4,-0.1 0.7,0.1 0.9,0.7 0.4,0.6 v 0.4 l -0.1,0.7 -0.3,0.5 -0.6,0.3 -1,0.4 -4.2,0.7 3.4,2.4 m 28.2,336.9 0.7,-0.6 v -0.7 l -0.3,-0.6 -0.5,-0.4 h -0.7 l -1.2,0.3 -1,0.2 -0.8,-0.3 -0.5,-0.4 -0.4,-0.8 v -0.7 l 0.1,-0.4 0.7,-0.7 1.1,-0.5 0.9,-0.1 0.4,0.1 0.5,0.4 0.4,0.8 v 0.7 l -0.2,0.8 -0.7,0.6 -0.9,0.9 -0.4,0.5 v 0.7 l 0.2,0.5 0.6,0.4 0.9,-0.1 1.2,-0.6 m -5.1,2.6 0.6,-0.7 0.2,-1.1 -0.5,-1.5 -0.4,-0.8 -0.9,-1.2 -0.9,-0.5 -1,0.1 -0.5,0.3 -0.7,0.7 -0.1,1.1 0.4,1.4 0.4,0.8 0.9,1.2 1,0.6 0.9,-0.2 0.4,-0.2 m 7.7,46 -0.8,6.9 m -3.2,-5.5 4,-1.4 m 4.5,-1.5 -2.8,0.9 0.6,2.7 0.1,-0.4 0.8,-0.6 0.8,-0.3 h 1 l 0.8,0.4 0.5,0.7 0.2,0.6 v 1 l -0.3,0.7 -0.8,0.6 -0.8,0.3 h -1 l -0.4,-0.2 -0.4,-0.4 m -31.8,-19.9 -6.6,2.3 m 3.6,-5.3 3,3 m 2.6,4 0.3,-0.6 -0.5,-0.9 -0.4,-0.4 -0.8,-0.4 -1.1,0.2 -1.3,0.8 -1,1.1 -0.7,1 v 0.9 l 0.4,0.8 0.2,0.2 0.9,0.5 h 0.8 l 0.9,-0.4 0.2,-0.2 0.4,-0.9 v -0.8 l -0.4,-0.9 -0.2,-0.2 -0.8,-0.4 h -0.9 l -0.8,0.4 m 73.6,48 0.9,-0.1 0.4,-0.6 0.1,-0.6 -0.2,-0.6 -0.6,-0.4 -1.1,-0.5 -0.9,-0.4 -0.5,-0.7 -0.2,-0.6 0.2,-0.9 0.4,-0.6 0.3,-0.2 0.9,-0.2 1.2,0.2 0.9,0.4 0.2,0.4 0.2,0.6 -0.1,0.9 -0.4,0.6 -0.7,0.5 -0.9,0.1 -1.3,0.1 -0.6,0.2 -0.4,0.6 -0.1,0.6 0.2,0.6 0.9,0.4 1.3,0.3 m -4.2,-2.2 -0.1,0.3 -0.4,0.5 -0.3,0.3 -0.6,0.2 -1.2,-0.2 -0.6,-0.4 -0.2,-0.3 -0.2,-0.7 0.1,-0.6 0.3,-0.5 0.8,-0.8 3.4,-2.5 -4.2,-0.7 m 56,63.4 0.3,0.9 0.6,0.3 h 0.6 l 0.6,-0.3 0.3,-0.6 0.4,-1.2 0.3,-0.9 0.6,-0.6 0.6,-0.3 0.9,0.1 0.6,0.3 0.3,0.3 0.3,0.9 -0.1,1.2 -0.3,0.9 -0.3,0.3 -0.6,0.3 -0.9,-0.1 -0.6,-0.3 -0.6,-0.6 -0.3,-0.9 -0.2,-1.2 -0.3,-0.6 -0.6,-0.3 h -0.6 l -0.6,0.3 -0.3,0.9 -0.1,1.3 m 1.1,-7.6 -0.6,0.3 -0.3,0.9 -0.1,0.6 0.3,0.9 0.9,0.6 1.5,0.4 h 1.5 l 1.2,-0.3 0.6,-0.6 0.3,-0.9 v -0.3 l -0.2,-0.9 -0.6,-0.6 -0.9,-0.3 h -0.3 l -0.9,0.3 -0.6,0.6 -0.4,0.9 v 0.3 l 0.3,0.9 0.6,0.6 0.9,0.3 m -95,-56.7 3.2,-6.2 m 1,6.4 -4.2,-0.2 m -4.7,-0.1 3,0.1 0.4,-2.7 -0.3,0.3 -0.9,0.2 H 855 l -0.9,-0.3 -0.6,-0.6 -0.3,-1 0.1,-0.6 0.3,-0.8 0.6,-0.6 0.9,-0.3 h 0.9 l 0.9,0.4 0.3,0.3 0.3,0.6 m -36.8,-17.8 6.9,-1.1 m -4.5,4.6 -2.4,-3.5 m -3,-4.3 6.9,-1.1 m -4.5,4.6 -2.4,-3.5 M 785,504.9 v 0.7 l 0.5,1.1 -5.8,-2.4 m 4,7.3 -4.7,-5.2 m 6.3,1.3 -1.6,3.9 M 803,495 l -0.6,0.4 -0.8,1 -0.6,-6.3 m -4.2,6.1 0.4,0.5 0.9,0.2 h 0.6 l 0.9,-0.4 0.5,-1 0.1,-1.5 -0.1,-1.5 -0.5,-1.1 -0.6,-0.6 -0.9,-0.2 h -0.3 l -0.9,0.4 -0.5,0.7 -0.2,0.9 v 0.3 l 0.4,0.9 0.6,0.5 1,0.2 h 0.3 l 0.8,-0.4 0.6,-0.7 0.2,-0.9 m -25.2,73.4 -0.9,-0.3 -0.6,-0.7 -0.3,-0.9 v -0.3 l 0.4,-0.9 0.6,-0.5 0.9,-0.3 h 0.3 l 0.9,0.4 0.6,0.6 0.2,0.9 v 0.3 l -0.3,0.9 -0.6,0.6 -1.2,0.2 -1.5,-0.1 -1.5,-0.3 -0.9,-0.7 -0.3,-0.9 0.1,-0.6 0.3,-0.9 0.6,-0.2 m 5.1,8.1 -4,-3.2 -0.2,4.5 m 4.2,-1.3 -6.3,-0.3 m 21.6,63.6 0.5,0.7 0.2,0.8 -0.2,0.9 -0.2,0.3 -0.7,0.6 -0.9,0.2 -0.9,-0.3 -0.2,-0.2 -0.6,-0.7 -0.2,-0.8 0.2,-1 0.2,-0.2 0.8,-0.6 0.8,-0.2 1.2,0.5 1.2,0.8 1.1,1.1 0.4,1 -0.2,0.9 -0.4,0.5 -0.7,0.6 -0.7,-0.1 m -0.7,-6.1 0.1,-0.7 -0.3,-1.2 5.3,3.4 m -53.6,-32.6 0.8,-0.5 0.8,-0.1 0.9,0.3 0.2,0.2 0.5,0.8 0.1,0.9 -0.4,0.9 -0.1,0.2 -0.9,0.5 -0.8,0.1 -0.9,-0.4 -0.2,-0.2 -0.5,-0.8 -0.1,-0.8 0.6,-1.1 0.9,-1.2 1.2,-0.9 1.1,-0.3 0.8,0.3 0.5,0.4 0.5,0.8 -0.2,0.7 m -7.5,0.6 -2.5,-2.1 2.9,-0.7 -0.7,-0.5 -0.3,-0.7 v -0.4 l 0.3,-0.9 0.4,-0.4 0.8,-0.5 0.9,-0.1 0.9,0.4 0.7,0.5 0.5,0.9 v 0.4 l -0.2,0.6 m -58.8,4.8 -0.9,0.1 -0.8,-0.3 -0.6,-0.7 -0.2,-0.3 -0.1,-1 0.3,-0.8 0.7,-0.6 0.3,-0.1 0.9,-0.1 0.8,0.3 0.7,0.7 0.1,0.2 0.1,1 -0.3,0.8 -1,0.8 -1.3,0.6 -1.5,0.3 -1.1,-0.2 -0.6,-0.7 -0.3,-0.5 -0.1,-0.9 0.4,-0.6 m 5.8,3.2 0.2,-0.1 h 0.7 l 0.4,0.2 0.5,0.4 0.5,1.1 v 0.7 l -0.2,0.4 -0.4,0.5 -0.5,0.2 h -0.7 l -1.1,-0.2 -3.9,-1.5 1.7,3.9 m 15.2,-23.4 0.3,-0.9 0.5,-0.6 0.9,-0.4 h 0.3 l 0.9,0.3 0.7,0.5 0.3,0.9 v 0.3 l -0.2,0.9 -0.6,0.7 -0.9,0.3 h -0.3 l -0.9,-0.2 -0.6,-0.6 -0.4,-1.2 -0.1,-1.5 0.3,-1.5 0.5,-0.9 0.9,-0.4 h 0.6 l 0.9,0.3 0.3,0.6 m -6.2,5.7 0.9,-0.4 0.5,-0.9 0.2,-1.5 v -0.9 l -0.4,-1.5 -0.6,-0.9 -0.9,-0.2 h -0.6 l -0.9,0.3 -0.6,1 -0.2,1.5 v 0.9 l 0.4,1.5 0.7,0.8 0.9,0.3 h 0.4 m 65.6,92.9 -0.6,0.8 -0.7,0.4 -1,0.1 -0.3,-0.1 -0.7,-0.5 -0.5,-0.8 v -0.9 l 0.1,-0.3 0.5,-0.8 0.8,-0.4 h 0.9 0.3 l 0.8,0.6 0.4,0.7 v 1.2 l -0.4,1.5 -0.7,1.4 -0.9,0.7 h -0.9 l -0.6,-0.2 -0.8,-0.5 -0.1,-0.6 m 9.5,-3 -2.9,-0.8 -1,2.5 0.3,-0.2 h 1 l 0.9,0.2 0.7,0.5 0.5,0.8 v 0.9 l -0.2,0.6 -0.5,0.8 -0.7,0.4 h -1 l -0.8,-0.2 -0.8,-0.5 -0.2,-0.4 -0.2,-0.7 m 28,-2.9 1,-0.1 0.8,0.3 0.6,0.6 0.2,0.3 0.1,1 -0.3,0.8 -0.6,0.6 -0.3,0.2 -1,0.1 -0.8,-0.3 -0.6,-0.7 -0.2,-0.2 -0.1,-1 0.3,-0.8 0.9,-0.8 1.4,-0.6 1.5,-0.4 1,0.1 0.7,0.7 0.3,0.5 0.1,1 -0.4,0.5 m -7.8,-5.5 -0.4,0.5 0.2,1 0.2,0.5 0.7,0.7 1.1,0.1 1.5,-0.4 1.3,-0.6 0.9,-0.8 0.3,-0.8 -0.1,-1 -0.1,-0.2 -0.7,-0.7 -0.8,-0.3 -1,0.1 -0.2,0.2 -0.7,0.6 -0.3,0.8 0.2,1 0.1,0.2 0.7,0.7 0.8,0.3 0.9,-0.1 M 632.5,665 l -0.9,-0.3 -0.6,-0.6 -0.3,-1 v -0.3 l 0.3,-0.8 0.6,-0.6 0.9,-0.3 h 0.3 l 0.9,0.3 0.6,0.6 0.3,0.9 v 0.3 l -0.3,0.9 -0.6,0.6 -1.2,0.3 H 631 l -1.5,-0.4 -0.9,-0.6 -0.3,-0.9 v -0.6 l 0.3,-0.9 0.6,-0.3 m 5.3,8.9 -6.3,-3.1 m 6.4,-1.1 -0.1,4.2 m 34.3,9.3 -0.1,0.9 -0.4,0.8 -0.9,0.4 -0.2,0.1 -1,-0.1 -0.7,-0.5 -0.5,-0.8 -0.1,-0.3 0.1,-0.9 0.5,-0.7 0.8,-0.5 0.3,-0.1 1,0.1 0.7,0.5 0.5,1.1 0.3,1.5 0.1,1.5 -0.4,1 -0.8,0.5 -0.6,0.1 -1,-0.1 -0.4,-0.5 m 7,-7.1 -2.9,0.7 0.2,2.7 0.3,-0.4 0.8,-0.5 0.9,-0.2 0.9,0.1 0.7,0.5 0.5,0.8 0.1,0.6 -0.1,0.9 -0.4,0.7 -0.8,0.5 -0.9,0.2 -0.9,-0.1 -0.4,-0.2 -0.4,-0.5 m 2.7,-69.9 0.9,-0.3 0.9,0.3 0.7,0.6 0.1,0.2 0.2,1 -0.2,0.8 -0.6,0.7 -0.2,0.2 -1,0.2 -0.8,-0.2 -0.7,-0.7 -0.2,-0.2 -0.2,-0.9 0.2,-0.9 0.9,-0.8 1.3,-0.8 1.4,-0.5 h 1.1 l 0.7,0.6 0.3,0.5 0.3,1 -0.4,0.5 m -6.1,-2.5 -0.2,0.2 H 671 l -0.4,-0.1 -0.6,-0.3 -0.6,-1 v -0.7 l 0.1,-0.4 0.3,-0.6 0.5,-0.3 0.7,-0.1 1.1,0.1 4.1,1 -2.2,-3.6 m -47.4,0.3 -0.9,-0.1 -0.7,-0.5 -0.5,-0.8 -0.1,-0.3 0.1,-0.9 0.5,-0.7 0.8,-0.5 0.3,-0.1 1,0.1 0.7,0.5 0.5,0.8 v 0.3 l -0.1,1 -0.5,0.7 -1.1,0.5 -1.4,0.3 h -1.6 l -1,-0.4 -0.5,-0.8 -0.1,-0.6 0.1,-0.9 0.6,-0.4 m 7,7.5 -6.7,-1.7 m 5.9,-2.4 0.8,4.1 m 10,-22.2 0.4,-0.8 0.6,-0.6 1,-0.2 0.3,0.1 0.8,0.4 0.6,0.6 0.2,0.9 -0.1,0.3 -0.4,0.9 -0.6,0.5 -1,0.2 h -0.3 l -0.8,-0.4 -0.5,-0.7 -0.2,-1.2 0.1,-1.5 0.5,-1.4 0.7,-0.9 0.9,-0.2 0.6,0.1 0.9,0.4 0.2,0.6 m -8.8,3.6 0.3,0.6 0.8,0.4 0.6,0.1 1,-0.2 0.6,-0.8 0.5,-1.5 0.2,-1.5 -0.2,-1.2 -0.5,-0.7 -0.9,-0.4 h -0.3 l -0.9,0.2 -0.7,0.5 -0.4,0.9 v 0.3 l 0.2,0.9 0.5,0.7 0.9,0.4 h 0.3 l 0.9,-0.2 0.7,-0.5 0.4,-0.9 m 185.7,-343.2 -0.3,-0.6 -1,-0.2 -0.6,0.1 -0.8,0.4 -0.5,0.9 -0.2,1.6 0.2,1.5 0.4,1.1 0.7,0.6 0.9,0.2 0.3,-0.1 0.9,-0.4 0.5,-0.6 0.2,-1 v -0.3 l -0.4,-0.8 -0.7,-0.6 -0.9,-0.2 -0.3,0.1 -0.9,0.4 -0.5,0.6 -0.2,1 m 8.6,-5.2 -2.3,6.6 m -1.9,-6.1 4.2,-0.5 m 21.4,-35.3 0.4,0.5 0.9,0.3 h 0.6 l 0.9,-0.4 0.5,-0.9 0.2,-1.5 v -1.5 l -0.4,-1.2 -0.6,-0.6 -1,-0.2 h -0.3 l -0.8,0.3 -0.6,0.7 -0.3,0.9 0.1,0.3 0.3,0.9 0.6,0.5 0.9,0.3 h 0.3 l 0.9,-0.4 0.6,-0.6 0.3,-0.9 m -8,4.7 2.8,-4.4 -4.5,0.2 m 1.7,4.2 -0.3,-6.3 m 10.7,20.7 -0.7,0.1 -0.5,0.8 -0.2,0.6 0.1,0.9 0.7,0.8 1.4,0.7 1.4,0.4 h 1.3 l 0.7,-0.4 0.5,-0.8 0.1,-0.3 v -0.9 l -0.5,-0.8 -0.8,-0.5 -0.3,-0.1 -0.9,0.1 -0.7,0.4 -0.6,0.8 v 0.3 1 l 0.4,0.7 0.8,0.5 m -1.8,-9.4 -0.8,2.9 2.6,1 -0.2,-0.4 -0.1,-0.9 0.2,-0.9 0.6,-0.8 0.7,-0.4 0.9,-0.1 0.6,0.2 0.8,0.5 0.4,0.7 0.1,1 -0.2,0.8 -0.6,0.8 -0.3,0.2 -0.7,0.2 m 86.7,-27 -0.1,0.7 0.6,0.7 0.5,0.3 0.9,0.3 1,-0.5 1.1,-1.1 0.8,-1.2 0.4,-1.2 -0.2,-0.8 -0.6,-0.8 -0.2,-0.1 -0.9,-0.2 -0.9,0.1 -0.7,0.6 -0.2,0.3 -0.2,0.9 0.2,0.8 0.6,0.8 0.2,0.1 0.9,0.3 0.9,-0.2 0.7,-0.6 m -7,0.5 -2.8,-1.8 2.8,-1.1 -0.7,-0.5 -0.4,-0.5 v -0.4 l 0.2,-1 0.3,-0.5 0.8,-0.6 0.8,-0.1 0.9,0.2 0.8,0.5 0.6,0.7 v 0.4 0.7 m -13.2,40.3 v -0.7 l -0.7,-0.7 -0.6,-0.2 -0.9,-0.1 -0.9,0.5 -1,1.2 -0.6,1.4 -0.3,1.2 0.3,0.8 0.7,0.6 0.3,0.2 0.9,0.1 0.8,-0.3 0.7,-0.7 0.1,-0.2 0.1,-1 -0.3,-0.8 -0.6,-0.6 -0.3,-0.2 -0.9,-0.1 -0.8,0.3 -0.7,0.7 m 7.7,-1 -0.9,-0.1 -0.6,0.4 -0.2,0.6 v 0.6 l 0.4,0.6 1,0.8 0.6,0.6 0.3,0.8 v 0.7 l -0.4,0.8 -0.5,0.4 -0.4,0.1 -0.9,-0.1 -1.1,-0.5 -0.7,-0.7 -0.1,-0.4 v -0.6 l 0.3,-0.8 0.6,-0.4 0.8,-0.3 0.9,0.1 1.2,0.2 h 0.7 l 0.5,-0.4 0.3,-0.5 v -0.7 l -0.7,-0.6 -1.2,-0.6 m 17.8,-6.6 -0.7,0.2 -0.5,0.8 -0.1,0.6 0.1,0.9 0.7,0.8 1.4,0.6 1.4,0.4 h 1.3 l 0.7,-0.5 0.5,-0.8 0.1,-0.3 -0.1,-0.9 -0.4,-0.7 -0.9,-0.5 -0.2,-0.1 -1,0.1 -0.7,0.4 -0.5,0.8 -0.1,0.3 0.1,1 0.4,0.7 0.8,0.5 m -2,-9.4 -0.7,2.9 2.5,1 -0.2,-0.4 -0.1,-0.9 0.2,-0.9 0.5,-0.8 0.8,-0.5 0.9,-0.1 0.6,0.2 0.8,0.5 0.4,0.7 0.1,1 -0.2,0.8 -0.5,0.8 -0.4,0.3 -0.6,0.1 m -309.4,179.6 3.8,-5.8 m 0.3,6.4 -4.1,-0.6 m -1.7,-0.2 -3.3,-0.5 2.1,-2.1 -0.9,-0.1 -0.5,-0.4 -0.3,-0.4 -0.2,-0.9 0.1,-0.6 0.4,-0.8 0.7,-0.5 0.9,-0.2 0.9,0.1 0.9,0.4 0.2,0.4 0.3,0.6 m -67.9,18.8 -0.9,-0.3 -0.6,0.3 -0.4,0.5 -0.1,0.6 0.3,0.6 0.8,1 0.5,0.8 0.2,0.8 -0.1,0.7 -0.6,0.7 -0.6,0.3 -0.4,0.1 -0.9,-0.3 -1,-0.7 -0.5,-0.8 -0.1,-0.4 0.1,-0.7 0.6,-0.7 0.6,-0.3 0.8,-0.2 0.9,0.3 1.2,0.5 0.6,0.1 0.6,-0.3 0.4,-0.5 0.1,-0.6 -0.6,-0.8 -1,-0.8 m 5.1,6.4 -0.8,0.5 -0.9,0.2 -0.9,-0.3 -0.2,-0.2 -0.5,-0.8 -0.2,-0.8 0.3,-0.9 0.2,-0.3 0.8,-0.5 0.8,-0.1 0.9,0.2 0.3,0.2 0.5,0.8 0.1,0.8 -0.4,1.2 -0.9,1.2 -1.2,1 -1,0.4 -0.9,-0.3 -0.5,-0.4 -0.5,-0.7 0.1,-0.7 m -0.1,-40.5 0.5,-0.9 -0.2,-0.6 -0.4,-0.5 -0.6,-0.2 -0.7,0.2 -1.1,0.5 -0.8,0.4 -0.9,-0.1 -0.6,-0.2 -0.6,-0.7 -0.2,-0.6 0.1,-0.5 0.4,-0.8 0.9,-0.8 0.9,-0.3 h 0.4 l 0.7,0.2 0.5,0.7 0.2,0.7 v 0.8 l -0.5,0.8 -0.7,1.1 -0.3,0.6 0.2,0.6 0.4,0.5 0.6,0.2 0.9,-0.3 1,-0.9 m -4.1,3.6 0.5,-0.8 -0.2,-0.7 -0.4,-0.4 -0.6,-0.3 -0.7,0.2 -1.1,0.6 -0.8,0.3 h -0.9 l -0.6,-0.3 -0.6,-0.6 -0.2,-0.7 v -0.4 l 0.5,-0.8 0.9,-0.8 0.9,-0.4 h 0.4 l 0.6,0.3 0.6,0.7 0.2,0.6 v 0.9 l -0.5,0.8 -0.7,1 -0.3,0.6 0.2,0.7 0.4,0.4 0.6,0.3 0.9,-0.4 1,-0.9 m 58.6,-8.3 -1.6,6.8 m -2.5,-5.9 4.1,-0.9 m 1.3,1.2 0.5,-0.4 0.7,-1.1 1.4,6.2 m 238.1,257.4 -0.8,0.3 h -0.9 l -0.8,-0.5 -0.2,-0.2 -0.4,-0.9 0.1,-0.9 0.5,-0.8 0.2,-0.2 0.9,-0.3 h 0.8 l 0.8,0.5 0.2,0.2 0.4,0.9 -0.1,0.8 -0.7,1.1 -1.1,0.9 -1.3,0.8 -1.1,0.2 -0.8,-0.5 -0.4,-0.5 -0.4,-0.9 0.3,-0.6 m 7.6,0.5 2.1,2.4 -3,0.3 0.6,0.7 0.2,0.6 v 0.4 l -0.5,0.8 -0.5,0.4 -0.8,0.4 h -0.9 l -0.8,-0.5 -0.6,-0.7 -0.4,-0.9 0.1,-0.4 0.2,-0.6 m -46.2,-3 0.3,0.9 -0.1,0.9 -0.4,0.8 -0.3,0.2 -0.9,0.3 h -0.8 l -0.8,-0.5 -0.2,-0.3 -0.4,-0.8 0.1,-0.9 0.5,-0.8 0.2,-0.2 0.9,-0.3 h 0.8 l 1.1,0.7 0.9,1.2 0.8,1.3 0.1,1.1 -0.5,0.8 -0.4,0.4 -0.9,0.3 -0.6,-0.2 m 1.4,-8.4 -0.5,0.8 0.2,1.1 0.7,1.4 0.6,0.6 1.2,1 1,0.3 0.9,-0.4 0.5,-0.4 0.5,-0.8 -0.2,-1.1 -0.7,-1.3 -0.6,-0.7 -1.2,-0.9 -1,-0.3 -0.9,0.3 -0.3,0.3 m -14.3,0.7 -0.9,-0.2 -0.6,-0.6 -0.4,-0.8 -0.1,-0.3 0.3,-0.9 0.5,-0.7 0.9,-0.4 h 0.3 l 0.9,0.2 0.6,0.5 0.4,0.9 0.1,0.3 -0.3,0.9 -0.5,0.7 -1.2,0.4 -1.5,0.1 -1.5,-0.1 -0.9,-0.5 -0.4,-0.9 -0.1,-0.6 0.2,-0.9 0.6,-0.4 m 4.4,4.3 0.4,0.6 1,0.8 -6.3,0.6 m -159.1,-282.3 5.9,3.8 m -6.4,0.3 0.5,-4.1 m 0.4,-2.7 0.2,1 0.5,0.3 0.6,0.1 0.6,-0.2 0.4,-0.6 0.5,-1.1 0.4,-0.9 0.7,-0.5 0.6,-0.2 0.9,0.1 0.5,0.4 0.3,0.3 0.2,1 -0.2,1.2 -0.4,0.8 -0.3,0.3 -0.7,0.2 -0.9,-0.1 -0.5,-0.4 -0.5,-0.7 -0.2,-0.9 -0.1,-1.2 -0.3,-0.7 -0.5,-0.4 h -0.6 l -0.7,0.2 -0.4,0.8 -0.1,1.4 m -45.4,-37.5 -0.3,-0.9 -0.5,-0.3 -0.6,-0.1 -0.7,0.3 -0.3,0.6 -0.3,1.2 -0.4,0.9 -0.6,0.5 -0.6,0.3 h -0.9 l -0.6,-0.4 -0.3,-0.3 -0.3,-0.9 0.1,-1.2 0.3,-0.9 0.4,-0.3 0.6,-0.2 h 0.9 l 0.6,0.3 0.5,0.7 0.3,0.9 0.2,1.2 0.3,0.6 0.6,0.3 0.6,0.1 0.6,-0.3 0.3,-0.9 0.1,-1.3 m -0.3,5.5 -0.2,-1 -0.6,-0.3 h -0.6 l -0.6,0.3 -0.3,0.5 -0.4,1.2 -0.3,0.9 -0.7,0.6 -0.6,0.3 -0.9,-0.1 -0.6,-0.3 -0.3,-0.3 -0.2,-0.9 v -1.2 l 0.4,-0.9 0.3,-0.3 0.6,-0.3 0.9,0.1 0.6,0.3 0.6,0.6 0.2,0.9 0.3,1.2 0.2,0.7 0.6,0.3 h 0.6 l 0.6,-0.3 0.4,-0.8 v -1.4 m 23,-3.1 0.9,0.3 0.6,-0.3 0.3,-0.5 0.2,-0.7 -0.3,-0.6 -0.8,-0.9 -0.5,-0.8 -0.1,-0.9 0.1,-0.6 0.5,-0.7 0.6,-0.3 0.5,-0.1 0.9,0.3 0.9,0.8 0.5,0.7 0.1,0.5 -0.1,0.6 -0.6,0.7 -0.6,0.3 -0.8,0.1 -0.9,-0.3 -1.1,-0.5 -0.7,-0.1 -0.6,0.3 -0.4,0.5 -0.1,0.6 0.5,0.8 1.1,0.9 m -5,-6.5 0.8,-0.6 0.8,-0.1 0.9,0.3 0.3,0.2 0.5,0.8 0.1,0.9 -0.3,0.9 -0.2,0.2 -0.8,0.5 -0.8,0.1 -0.9,-0.3 -0.2,-0.2 -0.6,-0.7 -0.1,-0.9 0.5,-1.1 0.9,-1.2 1.2,-1 1,-0.4 0.9,0.3 0.5,0.4 0.5,0.8 -0.1,0.7 m 347.5,305.6 0.9,-0.2 0.4,-0.6 0.1,-0.6 -0.3,-0.6 -0.5,-0.4 -1.2,-0.4 -0.8,-0.4 -0.5,-0.7 -0.3,-0.6 0.2,-0.9 0.3,-0.6 0.4,-0.2 0.9,-0.2 1.2,0.1 0.8,0.4 0.3,0.4 0.2,0.6 -0.1,0.9 -0.4,0.5 -0.6,0.6 -1,0.2 -1.2,0.1 -0.6,0.2 -0.4,0.6 -0.1,0.6 0.2,0.6 0.9,0.4 1.3,0.2 m -7.9,-1 3.7,-5.9 m 0.4,6.4 -4.1,-0.5 m 10.3,18.1 3.1,4.2 1.4,-4.3 m -4.5,0.1 6,2 m -3.5,-4.5 -0.3,-0.1 -0.5,-0.5 -0.2,-0.4 -0.1,-0.6 0.4,-1.2 0.5,-0.4 0.4,-0.2 0.6,-0.1 0.6,0.2 0.5,0.4 0.6,0.9 2,3.8 1.3,-4 m -54.5,24.9 -0.3,0.9 -0.5,0.6 -0.9,0.4 h -0.3 l -0.9,-0.3 -0.7,-0.5 -0.3,-0.9 -0.1,-0.3 0.3,-0.9 0.6,-0.7 0.8,-0.3 h 0.3 l 1,0.2 0.6,0.6 0.4,1.2 v 1.5 l -0.2,1.5 -0.5,0.9 -0.9,0.4 h -0.6 l -0.9,-0.3 -0.3,-0.5 m 7.5,-6 -2.7,4.4 4.5,-0.3 m -1.8,-4.1 0.4,6.3"
       id="nums_002"
       stroke="#000000"
       stroke-width="1" />
    <path
       d="m 620,477.7 -3.1,-3.3 -3.3,-25.1 -63.9,-47.3 1.6,-21.5 28.3,-24.9 21.5,1 3.2,-68.4 23.3,-1 34.7,26.5 5.1,22.8 -5.9,45.1 -41,8.9 62.9,8.7 -13.6,-18.4 0.3,-3.8 16.2,-16.1 71.8,20.4 -59.8,-17 -10.6,-7.6 29.1,-87.5 15.8,-69.1 -20,8.9 -36.8,-12.9 -10.1,-19.4 12.3,-73.1 -20.6,1 -24.8,-24.1 0.3,-20.6 10.8,-15.6 28.5,-1.7 12.5,14.3 66.1,-30.9 24.5,-8 4.4,1.4 15.4,20.7 6,69.7 -14,16.1 -36.9,2.9 -16.2,-13.7 46.3,48.8 6.6,-20.7 33.7,-18.6 21,5.5 -38,-26.7 4.1,-21.7 32,-23.7 22,2.4 71.6,10.1 -12.2,39.2 -42.8,39.8 53.6,25.4 38.4,24.7 11.9,14.6 -6.5,27.2 -17.3,7.6 -17.3,8.3 -26.6,-12.8 -4.4,-18.7 -39.9,-35.8 -42.9,9.8 35.5,-8.1 v 0 l 8.4,5.8 -13.1,49 -62.8,6.7 -1.1,60.1 -10,44.6 60.6,-4.7 53.2,24.6 -104.9,-48.4 1.4,-30.4 -0.0635,1.37909 L 801,284.4 l 41.6,7.5 25.1,27 -9.2,-17.2 11.3,-28.5 18.6,-6.1 19.8,-9 36.5,12.7 9.9,19.3 23.5,12.4 24.7,47.4 -3.1,26.3 -12,63.6 19.2,-3 2,1.8 -0.7,19.4 12.1,18.7 -6.5,40.1 -17.5,13.9 14.8,45.5 -6.3,23.7 -3.4,2.7 h -24.6 l -19.1,-27.4 13.7,19.6 v 0 l -14.2,13.8 42.9,5.4 -15.3,46.6 -19.6,16.2 -50.1,3 -21.4,-13.8 -34.5,-39.3 -0.1,19.8 -23.9,20.4 -19.5,-3.1 -17.1,-20 -0.4,-4.7 12.8,-23 -26.5,40 23.3,13.3 2.1,4.4 -3.6,26.5 -24.2,8.8 -49.3,-13.8 -16.1,-20.1 -90.9,20.1 1,-58.7 -17.4,-9.8 -6.5,-31.6 12,-16 49,5.4 28.1,46.8 -25.9,-43 v 0 l 3.4,-6.8 57.1,-2.8 18.7,-3.8 22,18.5 -0.6,19.1 3.9,-91.2 -7.9,-19.8 1.3,-3.2 19.7,-8.3 29.7,-3 27,39 34.5,1.3 45.9,7 26.2,-30.7 -22.7,26.5 16,-0.5 -23.5,0.8 -29,-1.2 v 0 l -9.7,-24.3 -9.8,19.3 -3.3,1.1 -19.6,-9.1 -43.3,-44 92.7,-46.7 -36.8,18.5 -66.5,-8.7 0.6,20.6 -24.4,24.5 -20.7,-0.6 11.4,44 -16,10.1 -26.4,-9.7 -5.6,-18.1 5.7,20.3 -18,31.5 -20.4,5.5 -37.3,9.3 -19.1,-7.9 -12.8,-32.5 8.8,-18.7 1.3,-24.1 2.8,-3.1 23.65,-4.25 z"
       id="coupes_002"
       stroke="#ff0000"
       stroke-width="1.27"
       sodipodi:nodetypes="ccccccccccccccccccccccccccccccccccccccccccccccccccccccccccccccccccccccccccccccccccccccccccccccccccccccccccccccccccccccccccccccccccccccccccccccccccccccccccccccccccccccccccccc" />
    <path
       d="m 1011.1,576.2 -53.4,-1 m 0,0 38.6,-44.5 m 14.8,45.5 -34.3,26.4 M 957.7,575.2 1008.2,458 M 947,503.7 1008.2,458 M 957.7,575.2 947,503.7 m 10.7,71.5 -36.9,-40.8 M 947,503.7 894.8,425.6 m 0,0 92.9,14.2 m -92.9,-14.2 104.9,-49.4 m -101.7,1.6 101.7,-1.6 m -104.9,49.4 3.2,-47.8 m 0,0 -30.3,-58.9 m 0,0 132,57.3 M 894.8,425.6 758.1,381.3 m 109.6,-62.4 86.9,-28.8 m 0,0 45.1,86.1 M 784.2,357.9 898,377.8 m -9.6,-110.7 66.2,23 m -196.5,91.2 36.1,-68 m -77.4,-44.1 78.5,-16 m -62.7,-53.1 62.7,53.1 m -62.7,-53.1 47.7,-36.2 m 0,0 47,35.9 m 0,0 -32,53.4 m -15,-89.3 61.3,-33.8 m 0,0 28.6,59.9 m 8.1,-40.5 31.8,76.3 m 21.8,-50.9 -21.8,50.9 m 6.7,304.7 -22,-104.9 m 52.2,78.1 -30.2,26.8 M 688.9,446 758.1,381.3 M 791.5,435.4 688.9,446 M 747,479.9 688.9,446 m -5.5,-46.8 74.7,-17.9 m -69.2,64.7 -75.3,3.3 m 0,0 69.8,-50.1 m 27,107 -65.3,-23.9 m 0,0 43.8,-36.3 M 645,482.2 613.6,449.3 m 264.5,55.7 16.7,-79.4 m -162.2,-225.5 1.4,-85 m -68.3,61.6 68.3,-61.6 m -1.4,85 -66.9,-23.4 m 12,386.8 -60.4,-49.8 m 60.7,-410.1 56,11.5 m 59.1,214.3 49.5,-37.5 M 684.7,56.9 734,115.1 m -101.1,-55.2 51.8,-3 m 156.9,73.2 20.1,-69.7 m 0,0 16.6,89.1 m -16.6,-89.1 59.4,49.3 M 750.8,26 734,115.1 m 16.8,-89.1 50.3,83.8 m 0,0 -67.1,5.3 m 69.6,-11.7 58.1,-43 m 16.4,444.6 -76,-32.7 m 155.6,102.9 -98.5,51.5 m 0,0 61.6,-92.3 m -61.6,92.3 15.7,-99.3 m 82.8,47.8 -0.5,33.4 m 0,0 -98,18.1 m 0,0 -48.2,-10.6 m 0,0 63.9,-88.7 m -63.9,88.7 29.4,-90 m -29.4,90 -40.4,-94.7 m 0,0 42.8,-34.3 m -28.9,169 -17.8,-43.5 m -50,62.6 50,-62.6 m -50,62.6 9.9,-96.4 m -9.9,96.4 -24.7,-43.8 m 0,0 34.6,-52.6 m 79.7,121.5 -89.6,-25.1 m 67.8,-19.1 21.8,44.2 m -89.6,-25.1 -89.9,-38.6 m 0,0 65.2,-5.2 m -65.2,5.2 37.1,-52 m -37.1,52 -11.9,-57.4 m 212.4,-379.4 30.8,46.7 m -30.8,-46.7 43.9,-2.3 m 99.1,2.1 -60.2,26.2 M 958.4,249 910.1,225.8 M 549.7,402 620.5,390.5 m -70.8,11.5 51.4,-45.4 m 0,0 19.4,33.9 m -19.4,-33.9 60.4,25 m 295.7,227 -63.5,57.4 m -34.5,-39.3 -43.5,37.1 m 0,0 -4.7,-47.7 M 601.1,356.6 667.4,336.5 m -63.1,-48.3 63.1,48.3 M 1000.1,614 893.7,666 m 91.1,-5.4 -91.1,5.4"
       id="plisM_002"
       stroke="#a52a2a"
       stroke-dasharray="4" />
    <path
       d="m 1008.2,458 -11.9,72.7 m -8.6,-90.9 20.5,18.2 M 947,503.7 987.7,439.8 M 758.1,381.3 898,377.8 m -139.9,3.5 26.1,-23.4 m 83.5,-39 20.7,-51.8 M 758.1,381.3 687.7,356.7 m 0,0 106.5,-43.4 m -77.4,-44.1 77.4,44.1 m -13.9,-149.4 15,89.3 m 46.3,-123.1 -14.3,69.7 m 14.3,-69.7 36.7,19.4 m 0,0 -8.1,40.5 m 24.6,235.6 -103.3,9.8 m 0,0 -33.4,-54.1 m 33.4,54.1 -44.5,44.5 m 0,0 -36.6,26.3 m 0,0 -21.5,-60.2 m 0,0 -5.5,-46.8 m 0,0 2.9,-38.3 M 916.8,530.5 878.1,505 m -200.4,58.5 -32.6,-81.2 m 65.3,23.9 -32.7,57.3 m -60.4,-49.8 27.8,-31.4 m -4.7,90.5 -23.1,-59.1 m 175.8,-184.3 74.6,-10.5 m -74.6,10.5 7.9,-45 m -42.6,239.5 -48,-17.7 M 678,103.6 684.7,56.9 M 678,103.6 632.9,59.9 M 750.8,26 795.1,40.1 m 83,464.9 -32.7,11.3 m -74.8,5.1 69.8,4.7 m -69.8,-4.7 13.1,-31.3 m 27.3,126 -44.3,-3.5 m 17.8,43.5 -67.8,19.1 m 9.9,-96.4 40.1,33.8 M 692,631.4 669.5,581.6 m 300.8,-382 -11.9,49.4 m -344.8,200.3 6.9,-58.8"
       id="plisV_002"
       stroke="#008000"
       stroke-dasharray="4, 1, 1, 1"
       stroke-width="1.27" />
    <path
       d="m 1000.2,492.3 4,4 m 0,-4 -4,4 m -4.3,-49.4 4,4 m 0,-4 -4,4 m -30.5,18.9 4,4 m 0,-4 -4,4 M 826,377.6 l 4,4 m 0,-4 -4,4 m -56.8,-14 4,4 m 0,-4 -4,4 m 106.9,-80.6 4,4 m 0,-4 -4,4 m -155.2,72 4,4 m 0,-4 -4,4 m 18.1,-38 4,4 m 0,-4 -4,4 m 14.5,-47.7 4,4 m 0,-4 -4,4 m 32.3,-86.8 4,4 m 0,-4 -4,4 m 46.7,-47.6 4,4 m 0,-4 -4,4 m 25.5,-29.1 4,4 m 0,-4 -4,4 m 14.3,26 4,4 m 0,-4 -4,4 m -31.1,256.7 4,4 m 0,-4 -4,4 m -68.4,-26.1 4,4 m 0,-4 -4,4 m -5.5,45.3 4,4 m 0,-4 -4,4 m -40.6,31.4 4,4 m 0,-4 -4,4 m -29,-21 4,4 m 0,-4 -4,4 m -13.5,-57.5 4,4 m 0,-4 -4,4 m -1.3,-46.5 4,4 m 0,-4 -4,4 m 212.5,133.7 4,4 m 0,-4 -4,4 m -236,1.1 4,4 m 0,-4 -4,4 m 32.7,7.9 4,4 m 0,-4 -4,4 m -62.9,-40.8 4,4 m 0,-4 -4,4 m -2.3,41.2 4,4 m 0,-4 -4,4 m 201.5,-223 4,4 m 0,-4 -4,4 m -33.3,-21.3 4,4 m 0,-4 -4,4 m -62.7,204.1 4,4 m 0,-4 -4,4 m -53.1,-438.7 4,4 m 0,-4 -4,4 m -25.8,-2.5 4,4 m 0,-4 -4,4 M 770.9,31 l 4,4 m 0,-4 -4,4 m 88.8,473.6 4,4 m 0,-4 -4,4 m -56.2,9.2 4,4 m 0,-4 -4,4 m -28.3,-22 4,4 m 0,-4 -4,4 m 11.6,104.6 4,4 m 0,-4 -4,4 m -38.2,47.3 4,4 m 0,-4 -4,4 m -3.9,-74 4,4 m 0,-4 -4,4 m -66,6.8 4,4 m 0,-4 -4,4 m 283.7,-386.2 4,4 m 0,-4 -4,4 m -347.3,191.6 4,4 m 0,-4 -4,4"
       id="marqueV_002"
       stroke="#008000" />
    <path
       d="m 810.3,405.5 v -0.8 l 0.7,-1.5 0.8,-0.7 1.5,-0.8 h 3 l 1.5,0.8 0.7,0.7 0.8,1.5 v 1.5 l -0.8,1.5 -1.5,2.3 -7.5,7.5 H 820"
       id="titre_2"
       stroke="#4b0082" />
  </g>
</svg>
