<?xml version="1.0" encoding="UTF-8" standalone="no"?>
<svg
   height="841.88977pt"
   viewBox="0 0 532.99998 754.00001"
   width="595.27557pt"
   version="1.1"
   id="svg1"
   sodipodi:docname="Tdy236_H20_lang_A4x3.svg"
   inkscape:version="1.3 (0e150ed6c4, 2023-07-21)"
   xmlns:inkscape="http://www.inkscape.org/namespaces/inkscape"
   xmlns:sodipodi="http://sodipodi.sourceforge.net/DTD/sodipodi-0.dtd"
   xmlns="http://www.w3.org/2000/svg"
   xmlns:svg="http://www.w3.org/2000/svg">
  <defs
     id="defs1" />
  <sodipodi:namedview
     id="namedview1"
     pagecolor="#ffffff"
     bordercolor="#000000"
     borderopacity="0.25"
     inkscape:showpageshadow="2"
     inkscape:pageopacity="0.0"
     inkscape:pagecheckerboard="0"
     inkscape:deskcolor="#d1d1d1"
     inkscape:document-units="mm"
     showgrid="false"
     inkscape:zoom="0.74406139"
     inkscape:cx="1196.8098"
     inkscape:cy="573.20539"
     inkscape:window-width="1920"
     inkscape:window-height="1057"
     inkscape:window-x="-8"
     inkscape:window-y="-8"
     inkscape:window-maximized="1"
     inkscape:current-layer="svg1" />
  <style
     type="text/css"
     id="style1"><![CDATA[
			path {
				fill: none;
			}
		]]></style>
  <g
     id="page_001">
    <path
       d="m 199.1,522.8 -6.5,-2.5 m 6.2,-1.7 0.3,4.2 m -1.7,5.2 -0.9,-0.3 -0.7,-0.5 -0.3,-0.9 V 526 l 0.2,-0.9 0.5,-0.6 0.9,-0.4 h 0.3 l 0.9,0.2 0.7,0.6 0.3,0.8 0.1,0.3 -0.3,0.9 -0.5,0.7 -1.2,0.4 -1.5,0.1 -1.5,-0.2 -0.9,-0.5 -0.4,-0.9 -0.1,-0.6 0.3,-0.9 0.5,-0.4 m 97.5,36.7 0.7,0.6 h 0.6 l 0.6,-0.3 0.3,-0.6 v -0.6 l -0.3,-1.2 -0.2,-1 0.2,-0.8 0.4,-0.5 0.8,-0.5 h 0.6 l 0.4,0.1 0.7,0.6 0.6,1.1 0.2,0.9 -0.1,0.4 -0.4,0.6 -0.7,0.4 -0.7,0.1 -0.8,-0.3 -0.7,-0.6 -0.9,-0.9 -0.6,-0.4 -0.6,0.1 -0.5,0.3 -0.4,0.5 0.2,1 0.6,1.1 m -2.9,-7 -0.4,0.5 0.2,1 0.3,0.5 0.7,0.6 1.1,0.1 1.4,-0.5 1.3,-0.7 0.9,-0.9 0.2,-0.8 -0.2,-0.9 -0.1,-0.3 -0.7,-0.6 -0.8,-0.3 -1,0.2 -0.2,0.2 -0.7,0.7 -0.2,0.8 0.2,0.9 0.1,0.3 0.8,0.6 0.8,0.3 0.9,-0.2 m -8.2,-61.2 -0.1,0.9 0.4,0.6 0.5,0.3 h 0.7 l 0.5,-0.4 0.8,-0.9 0.7,-0.7 0.8,-0.2 h 0.7 l 0.8,0.4 0.4,0.5 0.1,0.4 -0.1,1 -0.6,1 -0.7,0.7 -0.4,0.1 h -0.6 l -0.8,-0.4 -0.4,-0.6 -0.3,-0.8 0.2,-0.9 0.3,-1.2 v -0.7 l -0.4,-0.5 -0.6,-0.3 h -0.6 l -0.7,0.6 -0.6,1.2 m 2.1,-4 1.5,-2.9 1.3,2.7 0.4,-0.8 0.6,-0.4 0.4,-0.1 0.9,0.1 0.5,0.3 0.7,0.7 0.3,0.8 -0.2,0.9 -0.4,0.8 -0.7,0.7 -0.4,0.1 h -0.7 m -66.3,-37.3 0.9,-0.4 0.2,-0.7 -0.1,-0.5 -0.4,-0.6 -0.7,-0.2 -1.2,-0.1 -0.9,-0.1 -0.7,-0.5 -0.4,-0.6 -0.2,-0.9 0.2,-0.6 0.3,-0.3 0.8,-0.5 1.2,-0.2 0.9,0.2 0.4,0.2 0.4,0.6 0.1,0.8 -0.2,0.7 -0.5,0.7 -0.8,0.4 -1.2,0.5 -0.5,0.4 -0.2,0.6 0.1,0.6 0.4,0.6 0.9,0.1 1.4,-0.2 m -5.8,0.9 0.9,-0.4 0.4,-1 0.1,-1.5 -0.2,-0.9 -0.5,-1.4 -0.7,-0.8 -1,-0.2 -0.6,0.1 -0.8,0.5 -0.5,1 v 1.5 l 0.1,0.9 0.6,1.4 0.7,0.8 0.9,0.1 h 0.5 m -31.4,14.5 0.3,-0.1 0.7,0.2 0.3,0.2 0.5,0.5 0.3,1.1 -0.1,0.7 -0.2,0.3 -0.5,0.5 -0.6,0.2 -0.6,-0.2 -1,-0.3 -3.8,-2 1.2,4 m 7.5,3.2 -6.9,-1.1 m 5.7,-2.9 1.2,4 m 119.4,-39.9 2.6,4.5 1.8,-4.2 m -4.4,-0.3 5.7,2.5 m -3.5,-7.8 2.7,4.4 1.8,-4.1 m -4.5,-0.3 5.8,2.5 m 25.4,-51.1 -1.9,2.3 1.8,2 v -0.4 l 0.4,-0.9 0.5,-0.7 0.8,-0.5 0.9,-0.1 0.9,0.4 0.4,0.4 0.5,0.8 0.1,0.8 -0.4,0.9 -0.5,0.7 -0.8,0.5 h -0.5 l -0.6,-0.1 m 42.8,-31.8 0.6,-0.4 0.8,-0.9 0.6,6.2 m 4.2,-6.1 -0.4,-0.5 -0.9,-0.2 h -0.6 l -0.9,0.4 -0.5,1 -0.1,1.5 0.1,1.5 0.5,1.2 0.6,0.5 1,0.2 h 0.2 l 0.9,-0.4 0.5,-0.7 0.3,-0.9 -0.1,-0.3 -0.4,-0.9 -0.6,-0.5 -1,-0.2 h -0.3 l -0.8,0.4 -0.6,0.7 -0.2,0.9 m 29.2,-46 -0.6,0.3 -0.8,1 -0.4,-6.3 m -2.5,6.7 0.8,-0.4 0.6,-0.9 0.2,-1.5 -0.1,-0.9 -0.4,-1.5 -0.6,-0.9 -1,-0.2 h -0.6 l -0.8,0.4 -0.6,0.9 -0.2,1.6 0.1,0.9 0.4,1.4 0.6,0.9 1,0.2 h 0.4 m -7.4,0.5 2.6,-6.5 m 1.6,6.2 -4.2,0.3 m 12.6,-50.3 -0.4,-0.5 -1.2,-0.6 6,-2 m -7.2,-0.7 0.6,0.8 1.1,0.2 1.5,-0.2 0.8,-0.3 1.3,-0.7 0.7,-0.9 v -1 l -0.2,-0.5 -0.6,-0.8 -1,-0.2 -1.6,0.2 -0.8,0.3 -1.3,0.7 -0.7,0.9 v 1 l 0.2,0.4 m -1.6,-4.6 0.6,0.7 0.6,0.1 0.6,-0.2 0.5,-0.5 v -0.6 l -0.1,-1.3 v -0.9 l 0.4,-0.8 0.4,-0.5 0.9,-0.3 0.7,0.1 0.3,0.2 0.6,0.7 0.4,1.2 v 0.9 l -0.2,0.4 -0.4,0.5 -0.9,0.3 -0.6,-0.1 -0.8,-0.4 -0.6,-0.7 -0.7,-1 -0.4,-0.5 -0.7,-0.1 -0.6,0.2 -0.4,0.5 v 0.9 l 0.4,1.3 m -14.3,37.2 0.4,-0.5 0.4,-1.2 2.6,5.8 m 0.1,-7.2 -0.8,0.7 -0.1,1.1 0.3,1.4 0.4,0.9 0.8,1.2 1,0.6 0.9,-0.1 0.6,-0.2 0.7,-0.7 0.1,-1 -0.3,-1.5 -0.4,-0.9 -0.8,-1.2 -1,-0.6 -0.9,0.1 -0.4,0.2 m 6.8,-3 -0.2,6.9 m -3.6,-5.2 3.8,-1.7 m 22.3,44.1 -0.3,-0.6 -0.9,-0.8 6.2,-0.4 m -6.6,-2.6 0.3,0.9 1,0.6 1.5,0.2 0.9,-0.1 1.5,-0.4 0.8,-0.6 0.3,-0.9 -0.1,-0.6 -0.3,-0.9 -1,-0.6 -1.5,-0.2 -0.9,0.1 -1.4,0.4 -0.9,0.6 -0.3,0.9 0.1,0.5 m -0.5,-6.5 4.4,2.7 -0.3,-4.5 m -4.1,1.8 6.3,-0.4 m -15.4,25.8 -2.5,1.6 1.2,2.5 0.1,-0.4 0.6,-0.8 0.7,-0.4 1,-0.3 0.8,0.2 0.7,0.6 0.3,0.6 0.3,0.9 -0.2,0.8 -0.6,0.7 -0.8,0.5 -0.9,0.2 -0.4,-0.1 -0.6,-0.3 m 5.4,-8.3 -0.6,-0.4 -0.9,0.3 -0.5,0.3 -0.6,0.7 -0.1,1.1 0.6,1.4 0.8,1.3 0.8,0.9 0.9,0.1 0.9,-0.2 0.2,-0.1 0.6,-0.8 0.2,-0.8 -0.2,-0.9 -0.1,-0.3 -0.8,-0.6 -0.8,-0.2 -0.9,0.3 -0.3,0.1 -0.6,0.7 -0.2,0.9 0.3,0.9 m -148,0.1 0.3,-0.8 0.7,-0.6 0.9,-0.2 h 0.3 l 0.9,0.4 0.5,0.6 0.2,1 v 0.3 l -0.3,0.8 -0.7,0.6 -0.9,0.2 h -0.3 l -0.9,-0.4 -0.5,-0.6 -0.2,-1.3 0.1,-1.5 0.4,-1.4 0.7,-0.9 0.9,-0.2 h 0.6 l 0.9,0.4 0.2,0.6 m -8.3,4.8 3.3,-3.9 -4.4,-0.4 m 1.1,4.3 0.5,-6.2 m -53,65.5 -0.9,-0.1 -0.5,0.4 -0.3,0.6 v 0.6 l 0.4,0.5 1,0.8 0.7,0.7 0.3,0.8 v 0.6 l -0.3,0.9 -0.6,0.4 -0.4,0.1 -0.9,-0.1 -1.1,-0.5 -0.7,-0.6 -0.1,-0.4 -0.1,-0.7 0.4,-0.8 0.5,-0.4 0.8,-0.3 1,0.1 1.2,0.2 h 0.7 l 0.5,-0.4 0.2,-0.6 v -0.7 l -0.7,-0.6 -1.2,-0.6 m 5.3,2.4 -1,-0.1 -0.9,0.6 -0.9,1.2 -0.4,0.9 -0.3,1.5 0.1,1 0.7,0.7 0.6,0.2 0.9,0.1 0.9,-0.5 0.9,-1.3 0.4,-0.8 0.4,-1.5 -0.2,-1.1 -0.7,-0.6 -0.4,-0.2 m -41.4,-55.3 -0.4,-0.8 -0.6,-0.3 -0.6,0.1 -0.6,0.3 -0.3,0.7 -0.1,1.2 -0.3,0.9 -0.5,0.7 -0.6,0.3 -0.9,0.1 -0.6,-0.2 -0.3,-0.3 -0.4,-0.9 -0.1,-1.2 0.2,-0.9 0.3,-0.3 0.5,-0.4 0.9,-0.1 0.7,0.3 0.6,0.5 0.4,0.9 0.4,1.2 0.4,0.5 0.6,0.3 0.6,-0.1 0.6,-0.3 0.2,-1 -0.2,-1.3 m -1.3,8.1 -0.9,-0.3 -0.7,-0.5 -0.4,-0.9 v -0.3 l 0.2,-0.9 0.6,-0.6 0.8,-0.4 0.3,-0.1 0.9,0.3 0.7,0.5 0.4,0.9 v 0.3 l -0.2,0.9 -0.6,0.6 -1.1,0.5 -1.5,0.1 -1.5,-0.2 -1,-0.5 -0.4,-0.8 v -0.6 l 0.2,-1 0.6,-0.3 m 47.9,-54.4 0.9,0.1 0.7,0.5 0.4,0.8 0.1,0.3 -0.1,1 -0.5,0.6 -0.9,0.5 h -0.3 l -0.9,-0.1 -0.7,-0.5 -0.4,-0.8 -0.1,-0.3 0.1,-1 0.5,-0.6 1.2,-0.5 1.4,-0.3 h 1.6 l 1,0.5 0.4,0.8 0.1,0.6 -0.1,0.9 -0.6,0.4 m -4.7,-4.5 -0.3,0.1 -0.6,-0.2 -0.4,-0.3 -0.4,-0.5 -0.2,-1.2 0.2,-0.6 0.2,-0.4 0.6,-0.4 0.6,-0.1 0.6,0.2 1,0.5 3.5,2.4 -0.7,-4.1 m -7.8,-55.2 -0.2,-0.6 -0.8,-1 6.2,0.6 m -6.1,-3.6 0.2,1 0.8,0.7 1.5,0.4 0.9,0.1 1.5,-0.2 0.9,-0.5 0.4,-0.8 0.1,-0.6 -0.2,-1 -0.9,-0.6 -1.4,-0.5 -0.9,-0.1 -1.5,0.2 -1,0.5 -0.4,0.9 v 0.4 m 0.5,-5.2 0.2,1 0.8,0.6 1.5,0.5 0.9,0.1 1.5,-0.2 1,-0.5 0.4,-0.9 v -0.6 l -0.2,-0.9 -0.8,-0.7 -1.5,-0.4 -0.9,-0.1 -1.5,0.2 -1,0.5 -0.4,0.8 v 0.5 m -14.7,-56.3 -0.5,-0.3 -1.3,-0.4 5.5,-3.1 m -5,1.6 -0.5,-0.3 -1.3,-0.4 5.5,-3.2 m -7.1,0.8 0.7,0.6 1.1,0.1 1.4,-0.5 0.8,-0.5 1.1,-1 0.5,-1 -0.2,-0.9 -0.3,-0.5 -0.7,-0.6 -1.1,-0.1 -1.4,0.5 -0.8,0.5 -1.2,1 -0.4,1 0.2,0.9 0.2,0.4 m 122.5,59.2 -0.4,0.6 -0.5,1.2 -2.7,-5.7 m 0.2,7.2 0.6,-0.7 0.2,-1.1 -0.4,-1.5 -0.4,-0.8 -0.9,-1.2 -0.9,-0.5 -1,0.1 -0.5,0.2 -0.7,0.7 -0.1,1.1 0.3,1.5 0.4,0.8 1,1.2 0.9,0.5 0.9,-0.1 0.4,-0.2 m -4.6,2.3 0.6,-0.7 0.2,-1 -0.4,-1.5 -0.4,-0.8 -0.9,-1.3 -0.9,-0.5 -1,0.1 -0.5,0.3 -0.7,0.6 -0.2,1.1 0.4,1.5 0.4,0.8 0.9,1.2 1,0.6 0.9,-0.2 0.4,-0.2 m -40.6,36.4 -0.6,-0.7 -0.2,-0.9 0.3,-0.9 0.1,-0.2 0.7,-0.6 0.9,-0.2 0.9,0.2 0.3,0.1 0.6,0.8 0.2,0.8 -0.3,0.9 -0.1,0.3 -0.7,0.6 -0.9,0.2 -1.2,-0.4 -1.2,-0.8 -1.1,-1 -0.5,-1 0.2,-0.9 0.3,-0.5 0.8,-0.7 0.6,0.1 m 0.6,6.5 0.2,0.2 0.4,0.6 0.1,0.4 -0.1,0.6 -0.6,1.1 -0.6,0.3 -0.4,0.1 h -0.7 l -0.5,-0.4 -0.3,-0.5 -0.5,-1 -0.9,-4.1 -2.2,3.5 m 15.6,40.6 -0.8,0.6 -0.8,0.1 -0.9,-0.2 -0.3,-0.2 -0.6,-0.7 -0.1,-0.9 0.2,-0.9 0.2,-0.2 0.8,-0.6 0.8,-0.2 0.9,0.3 0.3,0.2 0.5,0.7 0.2,0.9 -0.4,1.1 -0.9,1.3 -1.1,1 -1,0.4 -0.9,-0.2 -0.5,-0.4 -0.6,-0.7 0.1,-0.7 m 9.6,0 -4.8,1.7 3.7,2.6 m 1.1,-4.3 -3.6,5.2 m -147.7,318.8 -0.9,0.3 -0.9,-0.1 -0.8,-0.5 -0.1,-0.3 -0.4,-0.8 0.1,-0.9 0.6,-0.8 0.2,-0.2 0.9,-0.3 0.8,0.1 0.8,0.5 0.2,0.3 0.3,0.9 -0.1,0.8 -0.7,1 -1.2,0.9 -1.4,0.7 -1.1,0.1 -0.7,-0.5 -0.4,-0.5 -0.3,-0.9 0.3,-0.6 m 7.5,0.9 2,2.6 h -3 l 0.6,0.7 0.1,0.7 v 0.4 l -0.6,0.8 -0.4,0.4 -0.9,0.3 -0.9,-0.1 -0.8,-0.5 -0.5,-0.7 -0.3,-0.9 v -0.5 l 0.3,-0.6 m 74.6,-17.8 0.9,-0.4 0.9,0.1 0.8,0.5 0.1,0.3 0.4,0.9 -0.1,0.8 -0.5,0.8 -0.2,0.2 -0.9,0.3 -0.9,-0.1 -0.8,-0.5 -0.2,-0.2 -0.3,-0.9 0.1,-0.8 0.7,-1 1.2,-1 1.3,-0.7 1.1,-0.1 0.8,0.5 0.4,0.5 0.3,0.9 -0.2,0.6 m -8.8,-3.6 -0.3,0.6 0.3,0.9 0.4,0.4 0.8,0.5 1.1,-0.1 1.4,-0.7 1.1,-0.9 0.7,-1 0.1,-0.9 -0.3,-0.9 -0.2,-0.2 -0.8,-0.5 -0.8,-0.1 -0.9,0.4 -0.3,0.2 -0.5,0.8 -0.1,0.8 0.4,0.9 0.2,0.2 0.8,0.5 0.8,0.1 0.9,-0.3 m 0.1,73.4 -0.6,0.7 -0.8,0.4 -1,-0.1 -0.2,-0.1 -0.8,-0.7 -0.3,-0.8 0.1,-0.9 0.1,-0.3 0.7,-0.7 0.8,-0.3 0.9,0.1 0.3,0.1 0.7,0.6 0.3,0.8 -0.2,1.2 -0.6,1.4 -0.9,1.3 -0.9,0.6 -0.9,-0.1 -0.6,-0.3 -0.7,-0.6 v -0.7 m 9.2,0.4 -0.6,0.7 -0.8,0.4 -0.9,-0.1 -0.3,-0.1 -0.7,-0.7 -0.3,-0.8 0.1,-0.9 0.1,-0.3 0.6,-0.7 0.8,-0.3 0.9,0.1 0.3,0.1 0.7,0.6 0.3,0.8 -0.2,1.2 -0.6,1.4 -0.8,1.3 -0.9,0.6 -1,-0.1 -0.5,-0.3 -0.7,-0.6 -0.1,-0.7 M 121.7,548 l -2.1,-4.7 -2.3,3.9 m 4.4,0.8 -5.4,-3.2 m 2.8,4.7 v 0.7 l 0.3,1.2 -5.4,-3.2 m 65.4,-20.3 6.8,1.5 m -5.8,2.6 -1,-4.1 m 0.8,-5.4 0.9,0.1 0.8,0.5 0.5,0.8 v 0.2 1 l -0.5,0.7 -0.8,0.5 -0.3,0.1 -0.9,-0.1 -0.7,-0.4 -0.5,-0.8 -0.1,-0.3 0.1,-1 0.4,-0.7 1.1,-0.6 1.5,-0.3 1.5,-0.1 1,0.4 0.5,0.8 0.2,0.6 -0.1,0.9 -0.5,0.4 m -19.8,-39.1 -0.3,0.1 -0.7,0.1 -0.4,-0.1 -0.5,-0.4 -0.6,-1 -0.1,-0.7 0.1,-0.4 0.4,-0.6 0.5,-0.3 h 0.7 l 1.1,0.1 4.1,1.1 -2.1,-3.7 m -7.1,-1.4 -0.4,0.6 0.2,0.9 0.3,0.5 0.7,0.6 1.1,0.1 1.5,-0.5 1.3,-0.7 0.9,-0.9 0.2,-0.8 -0.2,-0.9 -0.2,-0.3 -0.7,-0.6 -0.8,-0.2 -0.9,0.1 -0.3,0.2 -0.6,0.7 -0.2,0.8 0.2,1 0.1,0.2 0.7,0.6 0.8,0.3 1,-0.2 m -30.1,-9.6 0.1,0.3 v 0.7 l -0.2,0.4 -0.4,0.5 -1.1,0.5 -0.7,-0.1 -0.4,-0.1 -0.5,-0.5 -0.2,-0.5 v -0.7 l 0.2,-1 1.6,-4 -3.9,1.7 m -1.4,7.5 1.1,-5 -4.1,1.8 m 3,3.2 -2.5,-5.7 m -40.9,106.4 2.2,-4.7 -4.4,0.8 m 2.2,3.9 -1.1,-6.2 m -2.1,6.7 -3.2,0.6 1.3,-2.7 -0.9,0.1 -0.6,-0.1 -0.3,-0.3 -0.5,-0.8 -0.1,-0.6 0.1,-1 0.5,-0.6 0.8,-0.5 0.9,-0.2 1,0.2 0.3,0.2 0.4,0.6 m 18.4,-44.1 -1.5,4.9 4.3,-1.5 m -2.8,-3.4 2.1,5.9 m 0.8,-5.4 0.5,-0.5 0.6,-1.1 2,6 m -39.7,-16.5 2.6,2.1 -2.9,0.7 0.7,0.6 0.3,0.6 v 0.4 l -0.3,0.9 -0.4,0.5 -0.8,0.5 -0.8,0.1 -0.9,-0.4 -0.7,-0.5 -0.5,-0.8 -0.1,-0.4 0.1,-0.7 m 7.9,-0.3 2.5,2.1 -2.9,0.7 0.7,0.6 0.3,0.6 0.1,0.4 -0.4,0.9 -0.3,0.5 -0.8,0.5 -0.9,0.1 -0.9,-0.3 -0.7,-0.6 -0.5,-0.8 v -0.4 l 0.1,-0.7 m 48.6,-324.2 -0.5,0.5 -0.7,1 -1.4,-6.1 m -1.4,7 0.8,-0.5 0.4,-1 -0.1,-1.5 -0.2,-0.9 -0.6,-1.4 -0.8,-0.7 -0.9,-0.1 -0.6,0.1 -0.8,0.5 -0.4,1.1 0.1,1.5 0.2,0.9 0.6,1.4 0.8,0.7 0.9,0.1 0.5,-0.1 m -3.6,-0.6 -0.5,0.4 -0.7,1.1 -1.4,-6.2 m -20.4,51.8 -0.9,-0.2 -0.7,-0.5 -0.4,-0.8 v -0.3 l 0.2,-1 0.5,-0.6 0.8,-0.4 0.3,-0.1 1,0.2 0.6,0.5 0.5,0.9 v 0.3 l -0.2,0.9 -0.5,0.7 -1.2,0.4 -1.5,0.2 -1.5,-0.1 -1,-0.5 -0.4,-0.8 v -0.6 l 0.1,-1 0.6,-0.3 m 4.5,4.1 0.4,0.6 1,0.8 -6.2,0.7 m 28,22.5 0.2,0.9 -0.1,0.9 -0.6,0.7 -0.3,0.2 -0.9,0.2 -0.8,-0.1 -0.8,-0.6 -0.1,-0.2 -0.3,-1 0.2,-0.8 0.5,-0.7 0.3,-0.2 0.9,-0.3 0.8,0.2 1,0.8 0.8,1.2 0.6,1.5 v 1 l -0.6,0.8 -0.5,0.3 -0.9,0.3 -0.5,-0.3 m 2.3,-8.2 -0.6,0.8 0.1,1 0.6,1.5 0.5,0.7 1.1,1.1 1,0.4 0.9,-0.3 0.5,-0.3 0.5,-0.8 v -1.1 l -0.6,-1.4 -0.5,-0.7 -1.1,-1.1 -1,-0.4 -0.9,0.3 -0.4,0.2 m 22.1,21 -0.7,-0.6 -0.3,-0.9 0.2,-0.9 0.1,-0.3 0.7,-0.6 0.8,-0.3 0.9,0.1 0.3,0.2 0.7,0.6 0.2,0.9 -0.1,0.9 -0.1,0.3 -0.7,0.6 -0.8,0.3 -1.2,-0.3 -1.4,-0.6 -1.2,-1 -0.5,-0.9 0.1,-1 0.3,-0.5 0.7,-0.7 h 0.6 m 1.9,8.3 0.2,-0.9 -0.6,-1 -1.2,-0.9 -0.8,-0.4 -1.5,-0.4 -1,0.1 -0.7,0.7 -0.3,0.5 -0.1,1 0.5,0.9 1.2,0.9 0.8,0.4 1.5,0.4 1.1,-0.1 0.7,-0.7 0.2,-0.4 m 28.5,73.1 0.1,0.9 0.5,0.4 0.6,0.1 0.7,-0.2 0.4,-0.5 0.5,-1.1 0.4,-0.9 0.7,-0.4 0.7,-0.2 0.9,0.1 0.5,0.4 0.2,0.4 0.2,0.9 -0.2,1.2 -0.5,0.8 -0.3,0.3 -0.7,0.2 -0.9,-0.2 -0.5,-0.4 -0.5,-0.7 -0.1,-0.9 -0.1,-1.3 -0.2,-0.6 -0.5,-0.4 -0.6,-0.1 -0.7,0.2 -0.4,0.8 -0.3,1.3 m 3.5,-7.4 0.8,0.5 0.5,0.7 0.2,0.9 -0.1,0.3 -0.4,0.9 -0.7,0.4 -1,0.2 -0.3,-0.1 -0.8,-0.4 -0.5,-0.7 -0.1,-1 v -0.3 l 0.5,-0.8 0.7,-0.5 1.2,-0.1 1.5,0.3 1.4,0.6 0.8,0.7 0.1,1 -0.1,0.5 -0.4,0.9 -0.7,0.2 M 80.1,437 v -0.3 l 0.4,-0.6 0.3,-0.3 0.6,-0.2 1.2,0.1 0.6,0.3 0.3,0.3 0.2,0.6 v 0.6 l -0.4,0.6 -0.6,0.9 -3.3,2.7 4.2,0.4 m 4.8,-6 -3.3,3.9 4.5,0.4 m -1.2,-4.3 -0.5,6.2 m -17.7,-23.6 0.2,0.1 0.5,0.5 0.2,0.4 0.1,0.6 -0.4,1.2 -0.5,0.4 -0.4,0.2 -0.6,0.1 -0.6,-0.2 -0.5,-0.5 -0.6,-0.9 -1.9,-3.8 -1.4,4 m 4.4,6.5 1,-2.8 -2.4,-1.2 0.1,0.4 v 1 l -0.3,0.8 -0.5,0.8 -0.8,0.3 h -1 l -0.5,-0.2 -0.8,-0.6 -0.3,-0.7 v -1 l 0.3,-0.8 0.6,-0.8 0.3,-0.2 h 0.7 m 94.2,10.5 -0.3,0.1 -0.6,-0.2 -0.4,-0.3 -0.4,-0.5 -0.2,-1.2 0.3,-0.7 0.2,-0.3 0.5,-0.4 0.6,-0.1 0.7,0.2 1,0.5 3.4,2.5 -0.7,-4.2 m -7,-4.1 6.7,2 m -6,2.1 -0.7,-4.1 m -19.3,17.1 v -0.3 l 0.3,-0.6 0.3,-0.3 0.7,-0.2 1.1,0.1 0.6,0.3 0.3,0.3 0.3,0.6 -0.1,0.6 -0.3,0.6 -0.7,0.9 -3.2,2.8 4.2,0.2 m 5.1,-5 -0.2,-0.7 -0.9,-0.3 -0.6,-0.1 -0.9,0.3 -0.7,0.8 -0.4,1.5 -0.1,1.5 0.2,1.2 0.6,0.7 0.9,0.3 0.3,0.1 0.9,-0.3 0.6,-0.5 0.4,-0.9 v -0.3 l -0.2,-0.9 -0.6,-0.7 -0.9,-0.3 -0.3,-0.1 -0.9,0.3 -0.6,0.5 -0.4,0.9 m -75,-78.7 1,3.1 -2.8,-1 0.2,0.9 -0.1,0.6 -0.2,0.4 -0.7,0.6 -0.6,0.2 -1,-0.1 -0.7,-0.3 -0.6,-0.8 -0.2,-0.9 v -0.9 l 0.2,-0.4 0.4,-0.5 m 5.3,4.5 0.2,-0.1 0.7,0.1 0.4,0.2 0.5,0.5 0.3,1.2 -0.1,0.6 -0.2,0.4 -0.5,0.5 -0.5,0.1 -0.7,-0.1 -1,-0.3 -3.8,-1.9 1.3,4 m 24,-59.7 4.7,-2.1 -3.8,-2.3 m -0.9,4.4 3.2,-5.4 m -6,3.7 -2.8,-1.7 2.8,-1.2 -0.8,-0.4 -0.3,-0.6 -0.1,-0.4 0.2,-0.9 0.3,-0.6 0.7,-0.6 0.8,-0.2 0.9,0.2 0.8,0.5 0.6,0.7 0.1,0.4 v 0.7 m -17.9,8.4 -1.2,3.1 -1.5,-2.6 -0.4,0.9 -0.5,0.4 -0.4,0.2 h -0.9 l -0.6,-0.3 -0.7,-0.6 -0.3,-0.7 v -1 l 0.3,-0.8 0.6,-0.8 0.4,-0.1 0.7,-0.1 m 2.6,7.4 -1.2,3.1 -1.6,-2.6 -0.3,0.9 -0.5,0.4 -0.4,0.2 -0.9,-0.1 -0.6,-0.2 -0.7,-0.6 -0.4,-0.8 0.1,-0.9 0.3,-0.9 0.6,-0.7 0.4,-0.2 h 0.7 m -0.9,158.2 -1.2,3.1 -1.6,-2.5 -0.3,0.8 -0.5,0.5 -0.4,0.2 h -1 l -0.5,-0.3 -0.8,-0.5 -0.3,-0.8 v -1 l 0.3,-0.8 0.6,-0.8 0.4,-0.1 0.7,-0.1 m 1.3,6.7 0.3,0.1 0.5,0.5 0.1,0.4 0.1,0.7 -0.4,1.1 -0.5,0.5 -0.4,0.1 -0.6,0.1 -0.6,-0.2 -0.5,-0.5 -0.6,-0.8 -1.8,-3.9 -1.4,3.9 m 28.1,-11.7 -0.2,0.3 -0.6,0.3 -0.4,0.1 -0.7,-0.1 -1,-0.7 -0.3,-0.6 -0.1,-0.4 0.1,-0.7 0.4,-0.5 0.5,-0.3 1.1,-0.4 4.1,-0.8 -3.4,-2.4 m -7.5,2.6 2.5,1.7 1.7,-2.1 -0.4,0.1 -0.9,-0.3 -0.7,-0.5 -0.6,-0.8 -0.2,-0.8 0.3,-0.9 0.3,-0.5 0.8,-0.6 0.8,-0.1 0.9,0.2 0.8,0.5 0.6,0.8 v 0.4 l -0.1,0.7 m 149,144.8 -0.7,0.6 -0.8,0.2 -0.9,-0.3 -0.3,-0.1 -0.6,-0.8 -0.2,-0.8 0.3,-0.9 0.1,-0.3 0.8,-0.5 0.8,-0.2 0.9,0.2 0.3,0.2 0.6,0.7 0.1,0.8 -0.4,1.2 -0.8,1.3 -1,1.1 -1,0.4 -0.9,-0.2 -0.5,-0.4 -0.6,-0.7 v -0.7 m 9.5,0.8 0.1,-0.7 -0.6,-0.8 -0.5,-0.3 -1,-0.2 -1,0.4 -1,1.1 -0.8,1.3 -0.4,1.2 0.2,0.8 0.6,0.7 0.2,0.2 0.9,0.2 0.9,-0.2 0.7,-0.6 0.2,-0.2 0.2,-0.9 -0.2,-0.9 -0.6,-0.7 -0.2,-0.2 -1,-0.2 -0.8,0.2 -0.7,0.6 m 36.1,84.2 -1.1,2.8 2.4,1.2 -0.2,-0.3 v -1 l 0.4,-0.8 0.6,-0.8 0.8,-0.3 0.9,0.1 0.6,0.2 0.7,0.6 0.3,0.8 v 0.9 l -0.3,0.8 -0.7,0.8 -0.3,0.1 -0.7,0.1 m -1.7,-9.8 2.8,4.3 1.6,-4.1 m -4.4,-0.2 5.8,2.3 m -9.9,-25 4.4,-2.8 -4.2,-1.6 m -0.2,4.4 2.3,-5.8 m -6.1,4.2 0.9,0.1 0.5,-0.5 0.3,-0.5 -0.1,-0.7 -0.4,-0.5 -1,-0.7 -0.8,-0.6 -0.3,-0.8 -0.1,-0.7 0.4,-0.8 0.5,-0.4 0.3,-0.2 h 1 l 1.1,0.5 0.7,0.6 0.2,0.4 0.1,0.6 -0.4,0.9 -0.5,0.4 -0.7,0.4 -1,-0.1 -1.2,-0.1 h -0.7 l -0.5,0.5 -0.2,0.5 0.1,0.7 0.7,0.6 1.2,0.5 M 127.4,85.6 l 6,-3.6 m -2.5,5.9 -3.5,-2.3 m -4,-2.7 2.5,1.7 1.8,-2.1 -0.4,0.1 -1,-0.3 -0.7,-0.5 -0.6,-0.7 -0.2,-0.8 0.3,-0.9 0.3,-0.5 0.8,-0.6 0.8,-0.2 0.9,0.2 0.8,0.5 0.5,0.8 0.1,0.4 -0.1,0.7 m -27.1,66.4 0.7,0.1 0.8,-0.5 0.3,-0.5 0.3,-0.9 -0.4,-1.1 -1,-1.1 -1.3,-0.8 -1.1,-0.5 -0.8,0.1 -0.8,0.6 -0.2,0.2 -0.3,0.9 0.2,0.9 0.5,0.7 0.3,0.2 0.9,0.3 0.8,-0.1 0.8,-0.6 0.2,-0.2 0.2,-0.9 -0.1,-0.9 -0.6,-0.7 m -1.3,9.1 -1.6,-4.9 -2.7,3.7 m 4.3,1.2 -5.1,-3.7 m -1.5,28.6 -0.1,-3 -2.7,-0.2 0.3,0.3 0.3,0.9 0.1,0.9 -0.3,0.9 -0.6,0.6 -0.9,0.4 h -0.6 l -0.9,-0.3 -0.6,-0.6 -0.3,-0.9 -0.1,-0.9 0.3,-0.9 0.3,-0.3 0.6,-0.3 m 3.3,9.1 -0.9,-0.2 -0.6,-0.6 -0.3,-0.9 -0.1,-0.3 0.3,-0.9 0.6,-0.6 0.9,-0.4 h 0.3 l 0.9,0.3 0.6,0.6 0.3,0.9 v 0.3 l -0.2,0.9 -0.6,0.6 -1.2,0.3 -1.5,0.1 -1.5,-0.2 -0.9,-0.6 -0.3,-0.9 -0.1,-0.6 0.3,-0.9 0.6,-0.3 m 22.1,6 -0.4,-0.5 -0.9,-0.1 -0.6,0.2 -0.8,0.4 -0.4,1.1 v 1.5 l 0.4,1.4 0.5,1.1 0.7,0.5 1,0.1 0.3,-0.1 0.8,-0.5 0.4,-0.7 0.1,-0.9 v -0.3 l -0.5,-0.8 -0.7,-0.5 -1,-0.1 -0.3,0.1 -0.8,0.5 -0.4,0.7 -0.1,0.9 m 5.7,-5.6 -0.8,0.5 -0.4,1 0.1,1.6 0.2,0.8 0.6,1.4 0.8,0.8 0.9,0.1 0.6,-0.2 0.8,-0.4 0.4,-1.1 V 186 l -0.2,-0.9 -0.7,-1.4 -0.8,-0.7 -0.9,-0.1 -0.4,0.1 m -18.7,-71.4 0.2,-0.6 -0.6,-0.8 -0.4,-0.4 -0.9,-0.3 -1.1,0.3 -1.1,1 -1,1.2 -0.5,1.1 0.1,0.8 0.5,0.8 0.3,0.2 0.9,0.4 0.8,-0.1 0.8,-0.6 0.2,-0.2 0.3,-0.9 -0.1,-0.8 -0.5,-0.8 -0.2,-0.2 -0.9,-0.3 -0.9,0.1 -0.8,0.5 m 9.1,1.8 -5,1.4 3.5,2.8 m 1.5,-4.2 -3.9,4.9 m -9.1,-48.9 0.2,0.6 0.9,0.5 h 0.6 l 0.9,-0.1 0.7,-0.9 0.5,-1.4 0.2,-1.5 -0.1,-1.2 -0.5,-0.7 -0.9,-0.4 -0.3,-0.1 -0.9,0.2 -0.7,0.5 -0.4,0.9 v 0.3 l 0.1,0.9 0.6,0.7 0.8,0.4 0.3,0.1 0.9,-0.2 0.7,-0.5 0.4,-0.9 m -9.1,3 3,0.4 0.6,-2.6 -0.3,0.2 -0.9,0.2 -0.9,-0.1 -0.9,-0.4 -0.5,-0.7 -0.2,-0.9 0.1,-0.6 0.4,-0.9 0.7,-0.5 1,-0.2 0.8,0.2 0.9,0.4 0.3,0.3 0.2,0.6 m 302.7,128.3 -0.2,0.6 -0.1,1.3 -4.2,-4.7 m 2.6,4.5 -0.2,0.6 -0.1,1.3 -4.2,-4.7 m 2.1,6.8 0.5,-0.8 -0.1,-1.1 -0.8,-1.3 -0.6,-0.7 -1.2,-0.9 -1.1,-0.3 -0.8,0.4 -0.5,0.4 -0.5,0.8 0.2,1.1 0.7,1.3 0.6,0.7 1.3,0.9 1,0.3 0.9,-0.4 0.3,-0.3 m 23.2,-0.9 -0.6,0.3 -0.3,0.9 0.1,0.6 0.3,0.9 0.9,0.5 1.6,0.3 1.5,-0.1 1.1,-0.3 0.6,-0.7 0.3,-0.9 v -0.3 l -0.4,-0.9 -0.6,-0.5 -0.9,-0.3 h -0.3 l -0.9,0.3 -0.6,0.7 -0.2,0.9 v 0.3 l 0.3,0.9 0.6,0.5 1,0.3 m -4.5,-6.4 0.3,0.9 0.6,0.3 h 0.6 l 0.6,-0.4 0.3,-0.6 0.2,-1.2 0.3,-0.9 0.6,-0.6 0.5,-0.3 0.9,-0.1 0.7,0.3 0.3,0.3 0.3,0.9 0.1,1.2 -0.3,0.9 -0.3,0.3 -0.6,0.3 -0.9,0.1 -0.6,-0.3 -0.6,-0.6 -0.3,-0.9 -0.4,-1.2 -0.3,-0.5 -0.6,-0.3 h -0.6 l -0.6,0.3 -0.3,0.9 0.1,1.4 m -230,-123.6 6.3,-3 m -3,5.7 -3.3,-2.7 m -0.3,-2.2 -0.2,0.3 -0.6,0.2 -0.4,0.1 -0.7,-0.1 -0.9,-0.8 -0.3,-0.6 -0.1,-0.4 0.2,-0.7 0.4,-0.5 0.6,-0.2 1,-0.4 4.2,-0.4 -3.3,-2.7 m -13.5,5.5 -5.6,-4.1 m 6.4,0 -0.8,4.1 m -0.9,4.7 0.5,-3 -2.5,-0.8 0.2,0.4 0.1,0.9 -0.2,0.9 -0.4,0.8 -0.7,0.5 -1,0.1 -0.6,-0.1 -0.8,-0.5 -0.5,-0.7 -0.1,-0.9 0.2,-0.9 0.5,-0.8 0.3,-0.3 0.7,-0.2 m 68,70.6 -0.1,-0.7 -0.8,-0.5 -0.6,-0.2 -0.9,0.1 -0.9,0.7 -0.7,1.3 -0.4,1.5 v 1.2 l 0.4,0.8 0.8,0.5 0.3,0.1 0.9,-0.1 0.7,-0.4 0.6,-0.8 0.1,-0.2 -0.1,-1 -0.4,-0.7 -0.8,-0.6 -0.3,-0.1 -0.9,0.1 -0.7,0.4 -0.6,0.8 m 7.5,-2.2 h -1 l -0.4,0.5 -0.2,0.6 0.1,0.6 0.5,0.5 1.1,0.6 0.8,0.5 0.4,0.8 0.1,0.6 -0.2,0.9 -0.5,0.5 -0.4,0.2 h -0.9 l -1.2,-0.3 -0.8,-0.5 -0.2,-0.4 -0.1,-0.7 0.3,-0.8 0.4,-0.5 0.8,-0.4 0.9,-0.1 1.3,0.1 0.6,-0.1 0.5,-0.5 0.1,-0.6 -0.1,-0.7 -0.8,-0.5 -1.3,-0.4 m -16.7,-86.5 -6.3,-3.1 m 6.3,-1.1 v 4.2 m -1.5,1.6 h 0.3 l 0.5,0.3 0.3,0.3 0.3,0.6 v 1.2 l -0.3,0.6 -0.3,0.3 -0.6,0.3 H 209 l -0.6,-0.3 -0.9,-0.6 -2.9,-3.1 -0.1,4.2 m 27.6,-26.4 0.3,0.5 0.9,0.3 h 0.6 l 0.9,-0.3 0.6,-1 0.2,-1.5 v -1.5 l -0.4,-1.2 -0.6,-0.5 -0.9,-0.3 h -0.3 l -0.9,0.3 -0.6,0.7 -0.3,0.9 0.1,0.3 0.3,0.9 0.6,0.5 0.9,0.3 h 0.3 l 0.9,-0.3 0.6,-0.7 0.3,-0.9 m -8.5,4.5 3,-0.1 0.2,-2.7 -0.3,0.3 -0.9,0.4 h -0.9 l -0.9,-0.3 -0.6,-0.5 -0.4,-0.9 V 29 l 0.3,-0.9 0.6,-0.7 0.9,-0.3 h 0.9 l 0.9,0.2 0.3,0.3 0.3,0.6 m 21.5,29.3 6.5,2.6 m -6.2,1.6 -0.3,-4.2 m 1.3,-1.1 -0.4,-0.6 -0.9,-0.8 6.3,-0.5 m 24.4,103.7 0.6,-0.1 1.2,-0.5 -2,5.9 m 4.8,-5.2 h -0.9 l -0.9,0.6 -0.7,1.4 -0.3,0.8 -0.2,1.5 0.3,1.1 0.8,0.6 0.5,0.1 h 1 l 0.8,-0.6 0.8,-1.4 0.3,-0.8 0.2,-1.5 -0.3,-1.1 -0.8,-0.5 -0.4,-0.2 m 4.6,1.6 h -0.9 l -0.5,0.4 -0.2,0.6 0.1,0.7 0.5,0.4 1,0.7 0.8,0.6 0.4,0.7 0.1,0.7 -0.3,0.8 -0.5,0.5 -0.3,0.2 h -1 l -1.1,-0.4 -0.8,-0.5 -0.2,-0.4 -0.1,-0.7 0.3,-0.8 0.5,-0.5 0.7,-0.4 h 1 l 1.2,0.1 0.7,-0.1 0.4,-0.5 0.2,-0.5 -0.1,-0.7 -0.7,-0.6 -1.3,-0.4 m 7.1,-44 -0.6,-0.1 -1.3,0.4 3.1,-5.5 m -3.4,3.9 h -0.7 l -1.2,0.3 3,-5.5 m -6.9,2.7 v 0.6 l 0.7,0.7 0.5,0.3 0.9,0.2 1,-0.5 1,-1.2 0.7,-1.3 0.3,-1.2 -0.2,-0.8 -0.7,-0.7 -0.2,-0.2 -1,-0.1 -0.8,0.2 -0.7,0.7 -0.1,0.2 -0.2,1 0.2,0.8 0.7,0.7 0.2,0.1 1,0.2 0.8,-0.3 0.7,-0.6 m 45.1,47.6 -0.5,-0.4 -1.2,-0.5 5.7,-2.7 m -5.1,1.3 -0.5,-0.4 -1.2,-0.5 5.7,-2.7 m -7.8,-1 5.1,0.9 -1.9,-4.1 m -3.2,3.2 5.7,-2.7 m -12.5,20.3 0.6,-0.4 0.9,-0.9 0.4,6.3 m 2.5,-6.7 -0.9,0.3 -0.5,1 -0.2,1.5 v 0.9 l 0.4,1.5 0.7,0.8 0.9,0.3 0.6,-0.1 0.9,-0.3 0.5,-1 0.2,-1.5 v -0.9 l -0.4,-1.5 -0.7,-0.8 -0.9,-0.3 -0.4,0.1 m 6.5,-0.5 -2.8,4.4 4.5,-0.3 m -1.7,-4.1 0.4,6.3 M 57.3,77.4 H 58 l 0.7,-0.7 0.2,-0.5 0.2,-0.9 -0.6,-1 -1.2,-0.9 -1.3,-0.7 -1.2,-0.3 -0.8,0.3 -0.7,0.7 -0.1,0.2 -0.2,1 0.3,0.8 0.7,0.6 0.2,0.2 1,0.1 0.8,-0.3 0.7,-0.6 0.1,-0.3 0.1,-0.9 -0.2,-0.8 -0.7,-0.7 m 0.3,5.7 v 0.7 l 0.4,1.2 -5.7,-2.9 m 10.5,13.9 -2.7,-1.1 -1.4,2.3 0.4,-0.1 h 1 l 0.8,0.4 0.7,0.6 0.3,0.8 -0.1,1 -0.2,0.5 -0.6,0.7 -0.8,0.3 h -1 l -0.8,-0.4 -0.7,-0.6 -0.2,-0.4 v -0.7 m 9.7,0.9 -0.7,0.7 -0.7,0.3 -1,-0.1 -0.3,-0.1 -0.7,-0.6 -0.3,-0.8 0.1,-0.9 0.1,-0.3 0.6,-0.7 0.8,-0.3 h 1 l 0.2,0.2 0.8,0.6 0.3,0.8 -0.2,1.2 -0.6,1.4 -0.9,1.2 -0.9,0.6 -0.9,-0.1 -0.6,-0.2 -0.7,-0.6 v -0.7 m 216.9,546.9 -4.9,1.7 3.7,2.6 m 1.2,-4.3 -3.7,5.1 m 7.1,-2.6 -1,-0.3 -0.5,0.3 -0.4,0.5 -0.1,0.7 0.3,0.6 0.8,0.9 0.5,0.8 0.2,0.8 -0.1,0.7 -0.6,0.7 -0.6,0.3 -0.4,0.1 -0.9,-0.3 -0.9,-0.7 -0.6,-0.8 -0.1,-0.4 0.1,-0.6 0.6,-0.8 0.6,-0.3 0.8,-0.1 0.9,0.3 1.2,0.4 0.6,0.1 0.6,-0.3 0.4,-0.5 0.1,-0.6 -0.6,-0.8 -1.1,-0.8 m 36,-101.5 -0.5,-0.8 -0.6,-0.3 -0.6,0.1 -0.5,0.4 -0.3,0.6 -0.1,1.3 -0.2,0.9 -0.5,0.7 -0.6,0.3 -0.9,0.1 -0.6,-0.2 -0.3,-0.2 -0.4,-0.9 -0.2,-1.2 0.2,-0.9 0.3,-0.3 0.5,-0.4 0.9,-0.1 0.6,0.2 0.7,0.5 0.4,0.9 0.5,1.1 0.3,0.6 0.7,0.2 0.6,-0.1 0.5,-0.4 0.2,-0.9 -0.2,-1.3 m 0.1,7.6 0.6,-0.3 0.1,-1 v -0.6 l -0.4,-0.8 -1,-0.5 -1.5,-0.1 -1.5,0.2 -1.2,0.4 -0.5,0.7 -0.2,0.9 0.1,0.3 0.4,0.9 0.6,0.5 1,0.2 0.3,-0.1 0.8,-0.4 0.5,-0.6 0.2,-1 v -0.3 l -0.4,-0.8 -0.7,-0.5 -0.9,-0.2 m 27.5,-39.6 0.8,-0.7 v -0.6 l -0.2,-0.6 -0.5,-0.4 -0.6,-0.1 -1.3,0.2 h -0.9 l -0.8,-0.3 -0.5,-0.5 -0.3,-0.8 0.1,-0.7 0.1,-0.4 0.8,-0.6 1.1,-0.4 0.9,-0.1 0.4,0.2 0.5,0.5 0.3,0.8 v 0.7 l -0.4,0.7 -0.7,0.6 -1,0.7 -0.5,0.5 v 0.7 l 0.2,0.6 0.5,0.4 h 0.9 l 1.3,-0.5 m -4.3,1.6 -3.1,1.2 0.8,-2.9 -0.8,0.4 -0.7,-0.1 -0.4,-0.2 -0.6,-0.7 -0.2,-0.6 v -0.9 l 0.3,-0.8 0.8,-0.6 0.8,-0.3 1,-0.1 0.3,0.2 0.5,0.5 m 61.1,33 -0.2,-0.2 -0.2,-0.7 V 538 l 0.3,-0.6 0.8,-0.9 0.7,-0.2 0.4,0.1 0.6,0.2 0.5,0.4 0.2,0.7 0.1,1 -0.1,4.3 3.1,-2.9 m 16,-43.9 -0.1,-3.3 2.5,1.8 v -0.9 l 0.2,-0.7 0.3,-0.3 0.9,-0.3 h 0.6 l 0.9,0.2 0.6,0.6 0.4,0.9 v 0.9 l -0.3,0.9 -0.2,0.3 -0.6,0.4 m -5.5,-8.3 4.3,2.8 -0.2,-4.5 m -4.1,1.7 6.3,-0.3 m -39.5,-22.2 -2.6,-4.5 -1.9,4.1 m 4.5,0.4 -5.8,-2.6 m 3.8,6.6 0.1,-0.9 -0.5,-0.9 -1.3,-0.9 -0.8,-0.4 -1.5,-0.4 -1,0.2 -0.7,0.7 -0.2,0.5 -0.1,1 0.5,0.9 1.3,0.9 0.8,0.4 1.5,0.3 1,-0.1 0.7,-0.7 0.2,-0.4 m -44.3,210.4 -1,2.9 2.4,1.1 -0.2,-0.3 0.1,-1 0.3,-0.8 0.5,-0.8 0.8,-0.3 h 1 l 0.5,0.2 0.8,0.6 0.3,0.7 v 1 l -0.3,0.8 -0.6,0.8 -0.4,0.2 h -0.6 m -1.8,-10.1 -1,2.8 2.4,1.2 -0.2,-0.4 v -0.9 l 0.3,-0.9 0.6,-0.7 0.8,-0.4 0.9,0.1 0.6,0.2 0.8,0.5 0.3,0.8 v 1 l -0.3,0.8 -0.6,0.7 -0.4,0.2 -0.6,0.1 m -24.4,-0.3 -2.1,-2.1 -2.1,1.7 h 0.4 l 0.9,0.4 0.6,0.7 0.4,0.8 v 0.9 l -0.4,0.8 -0.4,0.4 -0.9,0.5 h -0.8 l -0.9,-0.5 -0.6,-0.6 -0.4,-0.8 V 682 l 0.2,-0.6 m 9.6,2.3 -5,0.9 3.2,3.2 m 1.8,-4.1 -4.4,4.5 m 80.9,-93.8 -0.6,-0.2 -1.3,0.1 4,-4.8 m -6.4,3.1 0.9,0.3 1,-0.3 1.2,-0.9 0.6,-0.7 0.7,-1.4 0.1,-1 -0.5,-0.9 -0.4,-0.3 -0.9,-0.4 -1,0.3 -1.2,1 -0.6,0.7 -0.7,1.3 -0.2,1.1 0.5,0.8 0.4,0.3 m -16.1,79.9 -1.7,-2.5 -2.4,1.3 h 0.5 l 0.7,0.6 0.5,0.8 0.3,0.9 -0.2,0.8 -0.5,0.8 -0.5,0.3 -0.9,0.3 -0.9,-0.2 -0.7,-0.6 -0.5,-0.7 -0.3,-0.9 0.1,-0.4 0.3,-0.6 m 9.3,4.4 -1.7,-2.4 -2.4,1.3 h 0.4 l 0.7,0.6 0.6,0.7 0.2,1 -0.1,0.8 -0.6,0.8 -0.5,0.3 -0.9,0.3 -0.8,-0.2 -0.8,-0.6 -0.5,-0.7 -0.3,-0.9 0.1,-0.4 0.3,-0.6 m 34.7,10.6 0.4,-0.5 0.5,-1.2 2.3,5.9 m 0.4,-7.1 -0.7,0.6 -0.3,1 0.3,1.5 0.3,0.9 0.8,1.3 0.9,0.6 h 0.9 l 0.6,-0.2 0.7,-0.6 0.3,-1.1 -0.3,-1.5 -0.3,-0.9 -0.8,-1.3 -0.9,-0.6 -0.9,0.1 -0.4,0.1 m 3.7,-1.4 3.1,-1.2 -0.9,2.9 0.9,-0.3 0.6,0.1 0.4,0.1 0.6,0.8 0.2,0.5 0.1,1 -0.4,0.8 -0.7,0.6 -0.8,0.3 h -1 l -0.4,-0.2 -0.5,-0.4 m 23.3,-33.5 -0.3,-0.6 -0.8,-1 6.3,0.3 m -6.4,-3.2 0.2,0.9 0.9,0.6 1.5,0.4 h 0.9 l 1.5,-0.2 0.9,-0.6 0.4,-0.9 v -0.6 l -0.3,-0.9 -0.9,-0.6 -1.4,-0.4 h -0.9 l -1.6,0.2 -0.9,0.6 -0.3,0.9 v 0.4 m 2.4,-7.2 0.8,0.3 0.6,0.7 0.3,0.9 v 0.3 l -0.4,0.9 -0.6,0.5 -0.9,0.3 H 444 l -0.9,-0.4 -0.6,-0.6 -0.2,-0.9 v -0.3 l 0.3,-0.9 0.7,-0.5 1.2,-0.3 1.5,0.1 1.4,0.3 0.9,0.7 0.3,0.9 v 0.6 l -0.4,0.9 -0.6,0.2 m -7.7,-27.3 -0.7,0.1 -1.1,0.6 2.1,-6 m -3.8,5.6 -3.1,-1.1 2.5,-1.7 -0.9,-0.3 -0.4,-0.5 -0.2,-0.3 v -1 l 0.2,-0.6 0.6,-0.7 0.8,-0.4 h 0.9 l 0.9,0.3 0.7,0.6 0.2,0.4 0.1,0.7 m 7.3,-202.7 1.6,-2.9 1.2,2.8 0.5,-0.8 0.5,-0.4 0.4,-0.1 1,0.2 0.5,0.3 0.6,0.7 0.3,0.8 -0.2,0.9 -0.5,0.8 -0.7,0.7 -0.4,0.1 -0.7,-0.1 m -0.6,-6.4 0.1,-0.6 -0.4,-1.3 5.5,3.1 m -46.1,1.9 -2.9,-4.4 -1.6,4.2 m 4.5,0.2 -5.9,-2.3 m 3.3,4.6 0.2,0.2 0.5,0.5 0.1,0.3 0.1,0.7 -0.4,1.1 -0.5,0.5 -0.4,0.1 -0.7,0.1 -0.5,-0.2 -0.5,-0.5 -0.6,-0.9 -1.7,-3.9 -1.5,3.9 m 54.3,-37.1 -3.1,1 1,-2.8 -0.9,0.3 -0.7,-0.1 -0.3,-0.2 -0.6,-0.8 -0.2,-0.5 v -1 l 0.4,-0.7 0.8,-0.6 0.8,-0.3 h 1 l 0.4,0.2 0.4,0.5 m -7.9,5.7 0.1,-1 0.3,-0.7 0.8,-0.6 0.3,-0.1 h 0.9 l 0.8,0.4 0.6,0.8 0.1,0.3 -0.1,0.9 -0.3,0.8 -0.8,0.5 -0.3,0.1 H 447 l -0.8,-0.4 -0.7,-1 -0.4,-1.4 -0.2,-1.6 0.3,-1 0.8,-0.6 0.6,-0.2 0.9,0.1 0.5,0.4 m -356.1,263 0.7,0.6 0.3,0.8 -0.1,1 -0.1,0.2 -0.6,0.7 -0.8,0.3 h -0.9 l -0.3,-0.2 -0.7,-0.6 -0.3,-0.8 0.1,-0.9 0.1,-0.3 0.6,-0.7 0.8,-0.3 1.2,0.2 1.4,0.6 1.2,0.9 0.6,0.9 -0.1,0.9 -0.2,0.6 -0.6,0.7 h -0.7 m -2.4,-7.9 -0.1,1 0.4,0.5 0.5,0.2 h 0.7 l 0.5,-0.4 0.8,-1 0.6,-0.7 0.8,-0.3 0.7,-0.1 0.8,0.4 0.4,0.5 0.2,0.4 -0.1,0.9 -0.5,1.1 -0.6,0.7 -0.4,0.2 h -0.7 l -0.8,-0.3 -0.4,-0.5 -0.3,-0.8 v -1 l 0.3,-1.2 -0.1,-0.7 -0.4,-0.5 -0.6,-0.2 H 92.2 L 91.5,633.7 91,635 M 78,615.3 h -1 l -0.7,-0.4 -0.6,-0.8 -0.1,-0.3 v -0.9 l 0.4,-0.8 0.8,-0.6 h 0.3 0.9 l 0.8,0.3 0.5,0.8 0.1,0.3 v 0.9 l -0.4,0.8 -1,0.7 -1.4,0.4 -1.6,0.2 -1,-0.3 -0.6,-0.7 -0.2,-0.6 0.1,-1 0.4,-0.4 m 5.3,3.2 0.4,0.4 1.2,0.6 -6,2"
       id="nums_001"
       stroke="#000000"
       stroke-width="1" />
    <path
       d="m 117.6,632.2 -11.7,26.6 -18.5,5 -29.9,-91.3 45,-8.1 -3.3,-24.2 2.2,-3.6 22.6,-9 -40.3,13.8 -40.4,-32.4 20.3,-55.2 36.1,24.7 33.2,-30.8 21.3,7.1 25.8,14.6 1.5,32.8 11.2,45.6 -9.1,-37.4 v 0 l 5.6,-9.4 -13.2,-44.9 63.2,-25.6 24.4,11.2 -80.7,-36.9 -17.2,-23.3 v 0 l 10,-54.7 -14.1,77 18.1,18.5 0.7,4.6 -11.6,23.1 -54.6,-3.5 -59.3,-4.8 -7.6,-23.5 1.4,-4.2 20.7,-13.5 -18.3,-8.1 -9.8,-30.8 10.2,-17.1 -9.8,-16.3 10.3,-26.6 18.2,-5.4 14.3,0.1 -1.3,-1.3 26.2,24.7 30.9,-61.5 L 83.5,297 65.9,277.4 59.4,225 l 12.2,-23.3 69.3,-16.4 -54.8,12.4 -15.6,-17 -0.1,-3.9 14.3,-18.1 -2.8,-21.8 2.1,-2.9 21.6,-4.4 -28,-22.4 -35.8,-15.3 -5.9,-21.7 1.7,-3.4 20.9,-8.2 14.3,-13.2 29.8,4.1 10.2,16.5 24.7,-1.6 3.7,2.4 8.1,23.4 8.6,-42.9 44.3,35.5 -14.8,-13 0.4,-31.2 15.2,-12.5 54.8,-2 16,13.2 2.6,35.1 -13.9,15.4 23.2,-4.3 39.1,21.4 8.8,22 22.6,47.3 -39.3,2.5 -60.2,-19.8 -65.3,-18.8 44.6,75.8 -6,60.9 11.9,69 50.1,-10.9 24.9,17.1 -62,-42.7 -4.5,-21.3 20.2,-32.7 21.1,-5.6 5.8,-19.4 30.3,-14.7 18.9,7.5 4.9,-24.3 36.2,-32 24.8,-1.9 15.6,14.6 1.7,37.3 -14.3,15.9 18.8,8.5 11.5,32.9 -9.4,18.4 -49.5,22 39.5,-17.5 v 0 l 14.6,14.1 15.9,16.8 0.3,3.9 -14,18.6 -3.8,20 -2.6,1.7 -19.7,-5.5 -47.7,5 -38.7,45.9 -22.2,51.7 -29.5,56.2 30,22.3 5,38.9 -8.9,-69.9 8,-19.2 32.5,-12.5 18.8,8.9 -8,-18.5 13.7,-29.9 19.3,-6 -9.3,-17.4 11.5,-29.4 18.6,-6.5 74.4,-23.8 -58.5,103.2 2,55.1 -50.2,48 47.4,39.8 26.3,9.4 14.4,15.1 -1.4,35.4 -15.6,13.9 -7.9,19 -32.2,12.2 -18.5,-9.1 -33.1,-48.1 9.7,17.4 -10.8,30.3 -18.5,7.3 -43.9,-43.7 -37,-26.8 -61.3,-39.2 41,26.3 5.2,29.9 24.7,-6.4 4.2,1.7 13.6,21.5 8.9,18.4 -12.4,31.7 -19.1,7.5 -95.2,-41.1 -57.9,-73.9 z"
       id="coupes_001"
       stroke="#ff0000"
       stroke-width="1.27"
       sodipodi:nodetypes="cccccccccccccccccccccccccccccccccccccccccccccccccccccccccccccccccccccccccccccccccccccccccccccccccccccccccccccccccccccccccccccccccccccccccccccccccccccccccccccccccccc" />
    <path
       d="m 189.2,501 89.9,22.4 m 0,0 -86.4,24.4 m 0,0 -3.5,-46.8 m 74.4,-59.3 15.5,81.7 M 189.2,501 263.6,441.7 m 15.5,81.7 35,61.2 m 0,0 -121.4,-36.8 m 70.9,-106.1 45,25.5 M 176,456.1 263.6,441.7 m 50.5,142.9 -118.5,15 m 0,0 -2.9,-51.8 m 70.9,-106.1 67.2,-26.2 m -67.2,26.2 53.3,-91.7 m 0,0 13.9,65.5 M 316.9,350 369.5,369.6 M 316.9,350 387,312.5 m 0,0 -17.5,57.1 M 346.7,221.1 387,312.5 m 0,0 30.2,52.1 m -70.5,-143.5 68.9,9.6 m 0,0 -28.6,81.8 m 0,0 54.1,-3.4 m 0,0 -23.9,55.5 m -1.6,-133.9 20.9,59.8 m 4.6,18.6 2.2,39.3 m -201.4,-4.6 75,6.2 m -53.3,91.7 -21.7,-97.9 m -59,61 59,-61 m -66.2,-17 66.2,17 m -59,61 -7.2,-78 m 0,0 54.3,-52 m -89.7,-16.6 89.7,16.6 m -54.3,52 -35.4,-68.6 m 0,0 95.7,-44.3 m -95.7,44.3 0.6,-72.9 m 0,0 95.1,28.6 m 55.7,33.8 55,-26.6 M 316.9,350 291.7,247.7 m -36.8,59.6 36.8,-59.6 m -96.1,351.9 -87,15.6 m 87,-15.6 -29.1,89.5 m 75.3,-33.3 -75.3,33.3 m 29.1,-89.5 46.2,56.2 m -133.2,-40.6 -6.1,-50.8 m 0,0 90.2,-16.6 m -93,-69.3 81.8,23.7 m -27.3,-47.4 27.3,47.4 m -81.8,-23.7 54.5,-23.7 m -70.5,86.6 16,-62.9 M 43.3,509 99.7,478.5 M 140.3,258.2 71.6,201.7 M 83.5,297 71.6,201.7 m 37.8,118 30.9,-61.5 m 35.4,68.6 -66.3,-7.1 m -40,80.8 40,-80.8 m 52.2,84.1 -92.2,-3.3 m 92.2,3.3 -47.4,42.7 m 0,0 -44.8,-46 m -14.5,41.2 14.5,-41.2 m -17.9,-56 57.9,-24.8 m -40,80.8 -17.9,-56 m 0,0 18.7,-48.3 m 214.1,376.4 -22.6,57.6 m -19.9,-74.4 42.5,16.8 M 140.9,185.3 149.3,90.2 m 0,0 42.1,47.9 m -85.8,-8.5 43.7,-39.4 m -8.4,95.1 -35.3,-55.7 m 7.2,-63.6 36.5,24.2 m -43.7,39.4 7.2,-63.6 m -28.1,92.7 20.9,-29.1 m 35.3,55.7 -56.2,-26.6 m 1.4,39 -1.4,-39 M 77.6,107.2 112.8,66 m 233.9,155.1 65.9,-58.2 M 149.3,90.2 202.2,82.8 m 0,0 54.5,74.1 m -54.5,-74.1 60.3,5 m -60.3,-5 0.8,-56.7 m 0,0 59.5,61.7 m 0,0 71.1,39.1 m 0,0 -16.7,49.8 m -2.8,407.9 -20.2,81 m 20.2,-81 43.3,69.7 m 0,0 -63.5,11.3 M 378,566.7 357.4,654.3 M 314.1,584.6 378,566.7 m -72.8,-52 59.3,-22.8 m 0,0 61.7,-28.3 m -61.7,28.3 25,-54.4 m 0,0 36.7,26.1 m -68.8,190.7 -19.6,55 m 87.6,-102.8 -68,47.8 m 68,-47.8 23.7,73.8 m 0,0 -58.6,22.1 m 61.2,-86.5 -2.6,64.4 M 389.5,437.5 484.7,360.4 M 108.6,615.2 87.4,663.8"
       id="plisM_001"
       stroke="#a52a2a"
       stroke-dasharray="4"
       sodipodi:nodetypes="cccccccccccccccccccccccccccccccccccccccccccccccccccccccccccccccccccccccccccccccccccccccccccccccccccccccccccccccccccccccccccccccccccccccccccccccccccccccccccccccccccccccccccccccccccccccccccccccccccc" />
    <path
       d="m 316.9,350 29.8,-128.9 m 96.6,127.3 -26.1,16.2 M 140.9,185.3 191.4,138.1 m -82.8,477.1 84.1,-67.4 m 49.1,108 19.9,74.4 M 102.5,564.4 124,527.6 m 0,0 68.7,20.2 M 124,527.6 181.5,502.2 M 124,527.6 99.7,478.5 m 8.9,136.7 -51.1,-42.7 M 161.6,403.8 109.4,319.7 m 52.2,84.1 7.2,46.2 m -98.6,-153.8 39.2,23.5 m 204.7,264.9 -57.2,54.2 M 58.5,58.6 112.8,66 M 77.6,107.2 58.5,58.6 m 354.1,104.3 3,67.8 M 202.2,82.8 191.4,138.1 m 71.1,-50.3 -5.8,69.1 m 1.1,-132.8 4.7,63.7 m 0,0 54.4,88.9 M 41.8,91.9 58.5,58.6 m 306,433.3 13.5,74.8 m -63.9,17.9 50.4,-92.7 m 0,0 63.7,26.8 m -2.8,87.8 -34.9,95.9 m -1,-264.9 20.8,-53.3"
       id="plisV_001"
       stroke="#008000"
       stroke-dasharray="4, 1, 1, 1"
       stroke-width="1.27"
       sodipodi:nodetypes="cccccccccccccccccccccccccccccccccccccccccccccccccccccc" />
    <path
       d="m 329.8,283.6 4,4 m 0,-4 -4,4 m 98.5,66.9 4,4 m 0,-4 -4,4 m -264.1,-198.8 4,4 m 0,-4 -4,4 m -15.5,415.8 4,4 m 0,-4 -4,4 m 101.1,107.5 4,4 m 0,-4 -4,4 m -138.5,-151 4,4 m 0,-4 -4,4 m 45.1,-12.3 4,4 m 0,-4 -4,4 m -5.6,-26.8 4,4 m 0,-4 -4,4 m -40.9,-15.8 4,4 m 0,-4 -4,4 m -28.8,86.8 4,4 m 0,-4 -4,4 m 52.4,-236.1 4,4 m 0,-4 -4,4 m 29.7,61.1 4,4 m 0,-4 -4,4 M 87.8,306 l 4,4 m 0,-4 -4,4 m 195.7,299.7 4,4 m 0,-4 -4,4 M 83.7,60.3 l 4,4 m 0,-4 -4,4 m -17.6,16.6 4,4 m 0,-4 -4,4 m 346,109.9 4,4 m 0,-4 -4,4 m -217.3,-90.4 4,4 m 0,-4 -4,4 m 62.8,7.9 4,4 m 0,-4 -4,4 m 0.5,-70.4 4,4 m 0,-4 -4,4 m 29.6,72.3 4,4 m 0,-4 -4,4 m -239.5,-61 4,4 m 0,-4 -4,4 m 321.1,450.1 4,4 m 0,-4 -4,4 m -32,5 4,4 m 0,-4 -4,4 m 57,-37 4,4 m 0,-4 -4,4 m 11.7,145.2 4,4 m 0,-4 -4,4 m -8.1,-247.6 4,4 m 0,-4 -4,4"
       id="marqueV_001"
       stroke="#008000"
       sodipodi:nodetypes="cccccccccccccccccccccccccccccccccccccccccccccccccccccccccccccccccccccccccccccccccccccccccccccccccccccccccccc" />
    <path
       d="m 227.2,387.9 1.5,-0.7 2.2,-2.3 v 15.8"
       id="titre_1"
       stroke="#4b0082" />
  </g>
  <g
     id="page_002">
    <path
       d="m 701.6,422.1 3.2,0.5 -2.1,2.1 0.9,0.1 0.5,0.4 0.3,0.4 0.2,0.9 -0.1,0.6 -0.4,0.8 -0.7,0.6 -1,0.1 -0.8,-0.1 -0.9,-0.4 -0.2,-0.4 -0.3,-0.6 m 7.5,-4.1 -0.9,0.2 -0.4,0.5 -0.1,0.6 0.3,0.7 0.5,0.3 1.2,0.5 0.8,0.4 0.5,0.7 0.2,0.6 -0.1,0.9 -0.4,0.6 -0.3,0.2 -1,0.2 -1.1,-0.2 -0.9,-0.4 -0.2,-0.3 -0.3,-0.7 0.2,-0.8 0.3,-0.6 0.7,-0.5 1,-0.2 1.2,-0.1 0.6,-0.2 0.4,-0.6 0.1,-0.6 -0.2,-0.6 -0.9,-0.4 -1.3,-0.2 m 29,-153.2 0.1,5.1 3.6,-2.7 m -3.7,-2.4 3.8,5 m 1.5,-9.1 1.5,6.9 m -4.8,-4.3 3.3,-2.6 m -52.2,-58.7 1.8,-2.4 -2,-1.9 0.1,0.4 -0.3,0.9 -0.5,0.8 -0.8,0.5 -0.9,0.1 -0.9,-0.3 -0.4,-0.3 -0.6,-0.8 -0.1,-0.8 0.3,-0.9 0.5,-0.8 0.8,-0.5 0.4,-0.1 0.7,0.2 m -0.6,6.8 0.2,0.2 0.3,0.6 0.1,0.4 -0.1,0.7 -0.7,0.9 -0.6,0.3 -0.5,0.1 -0.6,-0.1 -0.5,-0.4 -0.3,-0.6 -0.4,-1 -0.6,-4.2 -2.5,3.4 m 43.6,-22.1 3,0.2 0.5,-2.7 -0.3,0.3 -0.9,0.2 H 726 l -0.9,-0.4 -0.6,-0.7 -0.2,-0.9 v -0.6 l 0.4,-0.8 0.6,-0.6 1,-0.2 h 0.9 l 0.8,0.4 0.3,0.3 0.3,0.6 m -6.3,4.7 -3.3,-0.3 2,-2.2 -0.9,-0.1 -0.6,-0.3 -0.3,-0.4 -0.2,-0.9 v -0.6 l 0.4,-0.8 0.6,-0.6 0.9,-0.2 h 0.9 l 0.9,0.4 0.3,0.3 0.3,0.6 m 162.7,115.5 -0.3,0.6 0.4,0.9 0.4,0.5 0.8,0.4 1.1,-0.2 1.3,-0.7 1.1,-1.1 0.7,-1 v -0.8 l -0.3,-0.9 -0.2,-0.2 -0.9,-0.5 h -0.8 l -0.9,0.4 -0.2,0.2 -0.5,0.8 v 0.8 l 0.4,0.9 0.2,0.2 0.8,0.5 h 0.9 l 0.8,-0.4 m -7.6,-5.1 0.9,-0.4 h 0.8 l 0.9,0.5 0.2,0.2 0.4,0.9 -0.1,0.8 -0.4,0.8 -0.3,0.2 -0.8,0.4 h -0.9 l -0.8,-0.5 -0.2,-0.2 -0.4,-0.8 v -0.9 l 0.7,-1 1.1,-1 1.3,-0.8 1.1,-0.2 0.8,0.5 0.4,0.4 0.4,0.9 -0.2,0.6 m -0.4,24.5 -2.8,1.1 0.7,2.6 0.2,-0.4 0.7,-0.6 0.9,-0.3 h 0.9 l 0.8,0.3 0.6,0.7 0.2,0.6 0.1,0.9 -0.4,0.8 -0.7,0.6 -0.8,0.4 h -1 l -0.4,-0.2 -0.5,-0.4 m 4.6,-7.3 -0.8,0.7 v 0.6 l 0.2,0.6 0.5,0.4 0.7,0.1 1.2,-0.2 h 0.9 l 0.8,0.3 0.5,0.5 0.3,0.8 v 0.7 l -0.2,0.4 -0.7,0.6 -1.2,0.4 -0.9,0.1 -0.4,-0.2 -0.5,-0.5 -0.3,-0.8 0.1,-0.7 0.3,-0.7 0.7,-0.6 1,-0.8 0.5,-0.5 0.1,-0.6 -0.3,-0.6 -0.5,-0.4 h -0.9 l -1.3,0.5 M 636.4,417.4 632,412 m 6.2,1.6 -1.8,3.8 m -2.2,4.7 -4.4,-5.4 m 6.2,1.6 -1.8,3.8 m 6.2,-93 -0.5,-0.8 -0.7,-0.1 -0.5,0.2 -0.5,0.4 -0.2,0.7 0.1,1.2 -0.1,0.9 -0.4,0.8 -0.5,0.4 -0.9,0.3 -0.6,-0.2 -0.4,-0.2 -0.5,-0.7 -0.3,-1.2 v -0.9 l 0.2,-0.4 0.5,-0.5 0.9,-0.2 0.6,0.1 0.8,0.4 0.5,0.8 0.6,1.1 0.5,0.5 0.6,0.1 0.6,-0.1 0.5,-0.5 0.1,-0.9 -0.4,-1.3 m -0.3,4.1 0.4,0.5 1.1,0.6 -6,1.7 m 102.3,68.7 -0.1,1 0.4,0.5 0.5,0.3 h 0.7 l 0.5,-0.4 0.8,-0.9 0.7,-0.6 0.9,-0.3 0.6,0.1 0.8,0.4 0.4,0.5 0.1,0.4 -0.2,1 -0.5,1 -0.7,0.7 -0.4,0.1 h -0.7 l -0.8,-0.5 -0.4,-0.5 -0.2,-0.8 0.2,-1 0.3,-1.1 v -0.7 l -0.4,-0.6 -0.5,-0.3 h -0.7 l -0.7,0.7 -0.6,1.2 m 3.8,-7.1 4.1,5.6 m -6.1,-1.9 2,-3.7 m -126.5,-192.5 -0.4,3.3 -2.2,-2.1 -0.1,0.9 -0.4,0.6 -0.3,0.2 -0.9,0.2 h -0.6 l -0.9,-0.4 -0.5,-0.7 -0.2,-0.9 0.1,-0.9 0.4,-0.9 0.4,-0.3 0.6,-0.2 m 53.7,-6.4 -0.9,2.8 2.4,1.1 -0.2,-0.4 v -0.9 l 0.3,-0.9 0.6,-0.7 0.7,-0.4 h 1 l 0.5,0.2 0.8,0.5 0.4,0.8 v 0.9 l -0.3,0.9 -0.5,0.7 -0.4,0.2 -0.7,0.1 m -1.6,-6.6 -0.3,-0.1 -0.5,-0.5 -0.2,-0.4 -0.1,-0.6 0.4,-1.2 0.5,-0.5 0.3,-0.2 0.7,-0.1 0.6,0.2 0.4,0.5 0.7,0.8 2,3.8 1.2,-4 m 128,96.1 0.5,0.4 1.3,0.4 -5.6,3 m 7.1,-0.5 -0.6,-0.7 -1.1,-0.1 -1.5,0.5 -0.8,0.4 -1.2,1 -0.5,0.9 0.2,1 0.3,0.5 0.7,0.6 1.1,0.1 1.4,-0.4 0.8,-0.4 1.2,-1 0.5,-1 -0.2,-0.9 -0.2,-0.4 m 0.6,4.2 0.2,-0.2 h 0.7 l 0.4,0.1 0.5,0.4 0.6,1.1 v 0.6 l -0.1,0.4 -0.4,0.6 -0.5,0.3 h -0.7 l -1,-0.1 -4.1,-1.2 2,3.7 M 758.4,144.2 h -0.7 l -1.2,0.3 3,-5.5 m -6.9,3.7 4.6,-2.2 -3.9,-2.2 m -0.7,4.4 3,-5.5 m -30.3,27.6 -2.9,-0.8 -1.1,2.5 0.4,-0.2 0.9,-0.1 0.9,0.3 0.8,0.5 0.4,0.8 v 0.9 l -0.1,0.6 -0.6,0.8 -0.7,0.4 h -1 l -0.8,-0.2 -0.8,-0.6 -0.2,-0.3 -0.1,-0.7 m 7.1,-3.2 3.2,0.9 -2.4,1.8 0.8,0.3 0.5,0.4 0.2,0.4 v 1 l -0.1,0.5 -0.6,0.8 -0.7,0.4 h -1 l -0.8,-0.2 -0.8,-0.6 -0.2,-0.3 -0.1,-0.7 m -30,-39.3 -1.3,-2.7 -2.5,1 0.4,0.1 0.6,0.7 0.4,0.8 0.2,0.9 -0.3,0.8 -0.7,0.7 -0.5,0.2 -1,0.2 -0.8,-0.3 -0.6,-0.7 -0.4,-0.8 -0.2,-0.9 0.2,-0.4 0.4,-0.6 m 5.6,3.2 0.5,0.4 1.2,0.4 -5.6,2.7 m 31.1,-50 -0.6,0.4 -0.2,0.9 0.1,0.6 0.4,0.8 0.9,0.5 1.6,0.2 1.5,-0.2 1.1,-0.4 0.5,-0.7 0.2,-0.9 v -0.3 l -0.4,-0.9 -0.7,-0.5 -0.9,-0.2 h -0.3 l -0.8,0.4 -0.6,0.7 -0.2,0.9 0.1,0.3 0.4,0.9 0.6,0.5 1,0.2 m -26.6,-36.1 3.8,-3.5 -4.4,-1 m 0.6,4.5 1.4,-6.2 m -7.3,2.6 0.5,-0.8 0.7,-0.5 h 0.9 0.3 l 0.8,0.5 0.5,0.7 0.1,1 -0.1,0.3 -0.5,0.8 -0.7,0.4 -1,0.1 h -0.2 l -0.9,-0.5 -0.4,-0.8 v -1.2 l 0.3,-1.5 0.6,-1.3 0.8,-0.8 1,-0.1 0.5,0.1 0.8,0.5 0.2,0.7 m -40.4,24 -1.9,-2.4 -2.2,1.5 h 0.4 l 0.8,0.6 0.5,0.7 0.4,0.8 -0.1,0.9 -0.5,0.8 -0.5,0.4 -0.9,0.3 -0.8,-0.1 -0.8,-0.5 -0.6,-0.7 -0.3,-0.9 v -0.4 l 0.3,-0.6 m 6.2,1.7 0.6,0.3 1.3,0.1 -4.9,4 m 0.6,-25.6 2.8,-0.9 -0.4,-2.7 -0.2,0.4 -0.8,0.6 -0.9,0.2 h -0.9 l -0.8,-0.4 -0.5,-0.8 -0.2,-0.6 v -0.9 l 0.4,-0.8 0.8,-0.5 0.9,-0.3 0.9,0.1 0.4,0.2 0.5,0.5 m -5.4,6.9 0.7,-0.6 0.4,-1 -0.2,-1.5 -0.2,-0.9 -0.8,-1.3 -0.8,-0.7 h -0.9 l -0.6,0.1 -0.8,0.6 -0.3,1 0.1,1.5 0.3,0.9 0.7,1.3 0.8,0.7 1,0.1 0.4,-0.2 m 226.2,190.9 0.1,-0.7 v -1.2 l 4.6,4.2 m -3,-4.2 0.2,-0.7 -0.1,-1.2 4.7,4.2 m -1.6,-7.9 -2.1,2.2 1.8,2.1 v -0.4 l 0.4,-0.9 0.6,-0.7 0.8,-0.4 0.9,-0.1 0.8,0.4 0.5,0.4 0.5,0.9 v 0.8 l -0.4,0.9 -0.6,0.6 -0.8,0.5 h -0.5 l -0.6,-0.2 m -54.7,-85.1 -0.6,0.2 -0.9,0.9 0.2,-6.3 m -5.2,4.3 0.3,-0.9 0.6,-0.6 0.9,-0.3 h 0.3 l 0.9,0.4 0.6,0.6 0.3,0.9 v 0.3 l -0.4,0.9 -0.6,0.6 -0.9,0.2 h -0.3 l -0.9,-0.3 -0.6,-0.6 -0.2,-1.2 v -1.5 l 0.4,-1.5 0.6,-0.9 0.9,-0.3 h 0.6 l 0.9,0.4 0.3,0.6 m 74,-22.9 -0.2,0.6 v 1.3 l -4.4,-4.5 m 2.3,4.7 0.2,0.2 0.2,0.7 v 0.4 l -0.2,0.6 -0.9,0.9 -0.6,0.2 h -0.4 l -0.7,-0.3 -0.4,-0.4 -0.2,-0.6 -0.2,-1.1 0.1,-4.2 -3,2.9 m 64.4,14.3 0.1,-0.7 -0.2,-1.2 5.1,3.7 m -3.5,-6.2 -0.3,0.9 0.4,1 1,1.1 0.7,0.6 1.4,0.6 1.1,0.1 0.8,-0.6 0.3,-0.5 0.3,-0.9 -0.4,-1 -1,-1.1 -0.7,-0.6 -1.4,-0.6 -1.1,-0.1 -0.7,0.6 -0.3,0.3 m 4.9,-5.1 -0.7,-0.1 -0.8,0.6 -0.3,0.5 -0.3,0.9 0.3,1 1.1,1.1 1.2,0.9 1.1,0.5 0.9,-0.2 0.7,-0.5 0.2,-0.2 0.3,-0.9 -0.1,-0.9 -0.6,-0.8 -0.2,-0.1 -0.9,-0.3 -0.8,0.1 -0.8,0.5 -0.2,0.3 -0.3,0.9 0.1,0.8 0.6,0.8 m -10.8,-55.7 -0.6,-0.2 -1.3,-0.1 4.8,-4.2 m -6.9,2.1 0.8,0.5 1.1,-0.2 1.3,-0.7 0.7,-0.6 0.9,-1.2 0.3,-1.1 -0.3,-0.8 -0.4,-0.5 -0.9,-0.5 -1,0.2 -1.4,0.7 -0.6,0.6 -1,1.2 -0.2,1.1 0.3,0.9 0.3,0.3 m -1.4,-3.9 -0.3,0.2 -0.6,0.1 h -0.4 l -0.6,-0.2 -0.8,-0.9 -0.2,-0.7 v -0.4 l 0.3,-0.6 0.4,-0.4 0.7,-0.2 1,-0.2 4.3,0.3 -2.8,-3.1 m -62.3,-27 2.9,-4.3 -4.5,0.1 m 1.6,4.2 -0.1,-6.3 m -6.6,6.3 2.9,-6.3 m 1.3,6.2 -4.2,0.1 m 8.5,44.7 -0.9,0.1 -0.4,0.6 -0.1,0.6 0.2,0.6 0.5,0.4 1.1,0.5 0.8,0.5 0.5,0.7 0.2,0.6 -0.2,0.9 -0.4,0.6 -0.3,0.2 -1,0.1 -1.1,-0.2 -0.9,-0.5 -0.2,-0.3 -0.2,-0.6 0.2,-0.9 0.4,-0.6 0.7,-0.4 0.9,-0.2 h 1.3 l 0.6,-0.2 0.4,-0.6 0.1,-0.6 -0.2,-0.6 -0.8,-0.5 -1.3,-0.2 m -29.4,-26.9 -0.9,-0.2 -0.7,-0.4 -0.5,-0.9 -0.1,-0.3 0.2,-0.9 0.5,-0.7 0.8,-0.5 h 0.3 l 0.9,0.1 0.7,0.5 0.5,0.8 v 0.3 l -0.1,1 -0.5,0.7 -1.1,0.5 -1.5,0.2 h -1.5 l -1,-0.4 -0.5,-0.8 -0.1,-0.6 0.2,-1 0.5,-0.4 m 6.9,7.7 -6.7,-1.8 m 5.9,-2.3 0.8,4.1 m -198.6,89.1 2.2,2.1 2,-1.8 H 666 l -0.8,-0.4 -0.7,-0.6 -0.5,-0.8 v -0.9 l 0.4,-0.9 0.4,-0.4 0.9,-0.4 0.8,-0.1 0.9,0.4 0.6,0.6 0.5,0.9 v 0.4 l -0.2,0.6 m -8.7,-1.1 0.9,0.4 1,-0.3 1.3,-0.9 0.6,-0.6 0.8,-1.3 0.2,-1.1 -0.5,-0.8 -0.4,-0.4 -0.9,-0.4 -1.1,0.2 -1.2,0.9 -0.6,0.7 -0.8,1.3 -0.2,1 0.5,0.9 0.3,0.3 m -21.4,3.7 -0.7,-5.1 -3.2,3.1 m 3.9,2 -4.3,-4.6 m -1.9,7.5 -0.4,-0.8 v -0.9 l 0.5,-0.8 0.2,-0.2 0.8,-0.4 h 0.9 l 0.8,0.5 0.2,0.2 0.4,0.8 v 0.9 l -0.4,0.8 -0.3,0.2 -0.8,0.4 h -0.9 l -1,-0.7 -1,-1.1 -0.9,-1.3 -0.1,-1 0.4,-0.9 0.5,-0.4 0.8,-0.4 0.6,0.3 m -41.8,98.3 -0.3,0.6 -0.2,1.2 -3.7,-5.1 m -3.5,22 1.5,3 -3,-0.6 0.4,0.8 v 0.7 l -0.1,0.4 -0.6,0.7 -0.6,0.3 -0.9,0.1 -0.8,-0.2 -0.7,-0.7 -0.4,-0.8 -0.2,-0.9 0.2,-0.4 0.4,-0.6 m 8.8,6 -7,0.3 m 5.1,-4 1.9,3.7 m 11.4,6.9 -0.8,0.6 -0.1,0.6 0.2,0.6 0.4,0.5 0.7,0.1 h 1.2 1 l 0.7,0.4 0.5,0.5 0.2,0.9 -0.1,0.6 -0.2,0.4 -0.8,0.5 -1.1,0.4 -1,-0.1 -0.4,-0.2 -0.4,-0.5 -0.3,-0.8 0.2,-0.7 0.4,-0.7 0.8,-0.6 1,-0.6 0.5,-0.4 0.1,-0.7 -0.1,-0.6 -0.5,-0.5 h -0.9 l -1.3,0.4 m 6.8,-2.1 -1.7,4.9 4.3,-1.2 m -2.6,-3.7 1.8,6.1 m 135.1,16.1 0.5,-0.8 0.7,-0.4 1,-0.1 h 0.3 l 0.8,0.6 0.4,0.7 0.1,0.9 -0.1,0.3 -0.5,0.8 -0.7,0.5 h -1 -0.3 l -0.8,-0.5 -0.4,-0.8 v -1.2 l 0.3,-1.5 0.7,-1.3 0.8,-0.8 0.9,-0.1 0.6,0.2 0.8,0.5 0.2,0.6 m -9.9,3.2 4.5,-5.4 m -0.4,6.4 -4.1,-1 m 23.7,33.2 0.9,0.4 0.5,0.6 0.3,1 -0.1,0.3 -0.4,0.8 -0.6,0.6 -0.9,0.2 h -0.3 l -0.9,-0.4 -0.5,-0.7 -0.3,-0.9 0.1,-0.3 0.4,-0.9 0.6,-0.5 1.2,-0.2 1.5,0.1 1.5,0.5 0.8,0.7 0.2,0.9 v 0.6 l -0.4,0.9 -0.6,0.2 m -4.6,-8.8 -0.3,3 2.7,0.5 -0.3,-0.3 -0.2,-0.9 0.1,-0.9 0.4,-0.9 0.6,-0.5 0.9,-0.2 h 0.6 l 0.9,0.4 0.5,0.7 0.3,0.9 -0.1,0.9 -0.4,0.8 -0.3,0.3 -0.7,0.3 m -66.6,111.4 -2.5,-2.2 3,-0.6 -0.7,-0.6 -0.2,-0.6 -0.1,-0.4 0.4,-0.9 0.4,-0.4 0.8,-0.5 h 0.9 l 0.9,0.4 0.6,0.6 0.5,0.8 v 0.4 l -0.2,0.7 m -8.5,-0.9 0.9,0.4 0.6,-0.2 0.4,-0.5 0.2,-0.6 -0.2,-0.6 -0.7,-1.1 -0.5,-0.8 v -0.9 l 0.2,-0.6 0.6,-0.7 0.6,-0.2 h 0.4 l 0.9,0.4 0.9,0.8 0.4,0.8 v 0.4 l -0.1,0.7 -0.6,0.6 -0.7,0.3 h -0.8 l -0.9,-0.4 -1.1,-0.6 -0.6,-0.1 -0.6,0.2 -0.4,0.4 -0.2,0.7 0.4,0.8 1,0.9 m -84.1,79.5 0.3,-0.2 0.6,-0.1 0.5,0.1 0.5,0.4 0.7,1 v 0.6 0.4 l -0.4,0.6 -0.5,0.3 -0.7,0.1 h -1 l -4.2,-0.9 2.3,3.5 m 4.9,-1.2 0.3,-0.1 0.6,-0.1 0.5,0.1 0.5,0.3 0.7,1 0.1,0.7 -0.1,0.4 -0.4,0.6 -0.5,0.3 -0.6,0.1 h -1.1 l -4.2,-0.9 2.3,3.5 m 0.2,-59.5 0.3,0.1 0.4,0.5 0.2,0.3 0.1,0.7 -0.3,1.1 -0.5,0.5 -0.4,0.2 -0.7,0.1 -0.5,-0.2 -0.5,-0.5 -0.7,-0.8 -1.9,-3.8 -1.3,4 m 5.4,3.6 -1,3.1 -1.7,-2.4 -0.3,0.8 -0.5,0.5 -0.3,0.2 h -1 l -0.6,-0.2 -0.7,-0.5 -0.4,-0.8 v -0.9 l 0.3,-0.9 0.5,-0.8 0.4,-0.2 0.7,-0.1 m 136.1,9.4 0.8,0.4 0.7,-0.3 0.4,-0.4 0.1,-0.7 -0.2,-0.6 -0.7,-1 -0.5,-0.8 v -0.9 l 0.2,-0.6 0.6,-0.7 0.6,-0.2 0.4,-0.1 0.9,0.4 0.9,0.8 0.4,0.8 0.1,0.5 -0.2,0.6 -0.6,0.7 -0.6,0.2 -0.9,0.1 -0.8,-0.4 -1.1,-0.6 -0.7,-0.2 -0.6,0.3 -0.4,0.4 -0.2,0.7 0.5,0.8 1,0.9 m -6,-5.4 6.4,-2.7 m -3.3,5.5 -3.1,-2.8 m -4.2,71.7 -4.7,-2.2 0.8,4.4 m 3.9,-2.2 -6.2,1.1 m 7.2,5 -0.5,-2.9 -2.7,0.2 0.3,0.2 0.5,0.8 0.2,0.9 -0.2,1 -0.4,0.7 -0.9,0.4 -0.6,0.1 -0.9,-0.1 -0.7,-0.5 -0.5,-0.8 -0.1,-0.9 0.1,-0.9 0.2,-0.4 0.6,-0.4 m 17.7,59.9 -4.8,-1.9 1.1,4.4 m 3.7,-2.5 -6.1,1.5 m 6.7,4.8 0.5,-0.4 0.1,-0.9 -0.2,-0.6 -0.5,-0.8 -1,-0.4 -1.5,0.1 -1.5,0.3 -1.1,0.6 -0.4,0.7 -0.1,1 0.1,0.3 0.5,0.8 0.7,0.4 0.9,0.1 0.3,-0.1 0.8,-0.5 0.5,-0.7 0.1,-1 -0.1,-0.3 -0.5,-0.8 -0.7,-0.4 -1,-0.1 m 11,15.1 -0.7,0.7 v 0.6 l 0.2,0.6 0.5,0.4 h 0.7 l 1.2,-0.2 1,-0.1 0.7,0.3 0.6,0.5 0.3,0.8 v 0.7 l -0.1,0.3 -0.7,0.7 -1.1,0.5 -1,0.1 -0.4,-0.2 -0.5,-0.4 -0.4,-0.8 0.1,-0.7 0.3,-0.8 0.7,-0.6 0.9,-0.8 0.5,-0.5 v -0.7 l -0.3,-0.5 -0.5,-0.5 -0.9,0.1 -1.2,0.6 m 4.7,-0.5 -0.1,-0.3 v -0.6 l 0.1,-0.4 0.5,-0.5 1.1,-0.5 h 0.6 l 0.4,0.1 0.5,0.5 0.3,0.5 v 0.7 l -0.2,1.1 -1.5,3.9 3.8,-1.7 m 50.5,-58.9 h 1 l 0.5,-0.4 0.2,-0.6 -0.1,-0.6 -0.5,-0.5 -1,-0.7 -0.7,-0.6 -0.4,-0.8 -0.1,-0.6 0.3,-0.9 0.5,-0.5 0.4,-0.1 h 0.9 l 1.2,0.4 0.7,0.6 0.2,0.4 0.1,0.6 -0.3,0.9 -0.5,0.4 -0.8,0.4 h -0.9 l -1.3,-0.1 h -0.6 l -0.5,0.5 -0.2,0.6 0.1,0.6 0.7,0.6 1.3,0.5 m -7.2,-2.6 2.9,1 1.2,-2.4 -0.4,0.2 -1,-0.1 -0.8,-0.3 -0.8,-0.6 -0.3,-0.7 v -1 l 0.2,-0.5 0.6,-0.8 0.8,-0.4 0.9,0.1 0.9,0.3 0.7,0.6 0.2,0.4 0.1,0.6 m 47.8,65 -0.1,-0.3 v -0.7 l 0.2,-0.3 0.5,-0.5 1.1,-0.5 0.6,0.1 0.4,0.2 0.5,0.4 0.2,0.6 v 0.6 l -0.3,1.1 -1.7,3.9 3.9,-1.5 m -0.6,-6.5 3.1,-1.2 -0.8,2.9 0.8,-0.4 0.7,0.1 0.4,0.2 0.6,0.7 0.2,0.6 v 0.9 l -0.3,0.8 -0.8,0.6 -0.8,0.3 -0.9,0.1 -0.4,-0.2 -0.5,-0.5 m -79.2,5.5 -0.5,-0.8 -0.7,-0.1 -0.6,0.1 -0.5,0.5 -0.1,0.6 v 1.3 0.9 l -0.4,0.7 -0.5,0.5 -0.9,0.2 -0.6,-0.1 -0.4,-0.2 -0.5,-0.8 -0.4,-1.1 0.1,-1 0.2,-0.4 0.5,-0.4 0.9,-0.2 0.6,0.1 0.8,0.4 0.5,0.8 0.6,1.1 0.4,0.5 0.7,0.1 0.6,-0.2 0.5,-0.4 v -1 l -0.3,-1.3 m -0.3,4.8 0.3,-0.1 0.7,0.1 0.3,0.2 0.5,0.5 0.3,1.2 -0.1,0.6 -0.2,0.4 -0.5,0.5 -0.6,0.1 -0.7,-0.1 -1,-0.3 -3.7,-2.1 1.1,4 m 20.7,0.8 -0.1,-0.3 0.1,-0.7 0.3,-0.4 0.5,-0.4 1.1,-0.3 0.7,0.2 0.4,0.2 0.4,0.5 0.1,0.6 -0.1,0.7 -0.4,1 -2.2,3.6 4.1,-1 m 0.5,-5 -0.1,-0.3 0.1,-0.7 0.3,-0.3 0.5,-0.5 1.1,-0.3 0.7,0.2 0.4,0.2 0.4,0.5 0.1,0.6 -0.1,0.7 -0.4,1 -2.2,3.6 4.1,-1 m 181.4,-432.6 0.4,-0.6 0.3,-1.2 3.1,5.5 m -1.6,-5 0.4,-0.5 0.3,-1.3 3.2,5.5 m -1,-7 -0.6,0.7 v 0.7 l 0.3,0.5 0.6,0.4 h 0.7 l 1.2,-0.4 0.9,-0.1 0.8,0.2 0.6,0.4 0.4,0.7 v 0.7 l -0.1,0.4 -0.6,0.7 -1,0.6 -1,0.2 -0.4,-0.1 -0.5,-0.4 -0.5,-0.8 v -0.6 l 0.2,-0.9 0.6,-0.7 0.9,-0.8 0.4,-0.6 v -0.6 l -0.3,-0.6 -0.6,-0.3 -0.9,0.1 -1.2,0.7 m 17,-12.8 -0.6,-0.2 -1.3,-0.1 4.7,-4.2 m -4.5,2.6 -0.6,-0.2 -1.3,-0.1 4.7,-4.2 m -6,3 -2.2,-2.4 3,-0.3 -0.6,-0.7 -0.2,-0.6 v -0.4 l 0.5,-0.8 0.4,-0.4 0.9,-0.4 h 0.8 l 0.9,0.5 0.6,0.7 0.3,0.8 v 0.4 l -0.2,0.7 m -148,370 -0.4,-6.9 m 4,4.9 -3.6,2 m -2.4,1.3 0.7,-0.7 -0.1,-0.7 -0.2,-0.5 -0.6,-0.4 h -0.7 l -1.2,0.3 -0.9,0.2 -0.8,-0.2 -0.6,-0.4 -0.4,-0.8 v -0.7 l 0.1,-0.4 0.7,-0.7 1,-0.6 1,-0.1 0.4,0.1 0.5,0.4 0.4,0.8 0.1,0.7 -0.3,0.8 -0.6,0.7 -0.9,0.8 -0.4,0.5 v 0.7 l 0.3,0.5 0.5,0.4 1,-0.1 1.2,-0.7 m 19.6,19.7 6.6,2.3 m -6.1,1.9 -0.5,-4.2 m -0.6,-5.2 6.6,2.3 m -6.1,1.9 -0.5,-4.2 m -48.8,-228 0.4,0.5 1.1,0.7 -6.1,1.5 m 7,1.3 -0.5,-0.8 -1,-0.4 -1.5,0.1 -0.9,0.2 -1.4,0.7 -0.7,0.8 -0.1,0.9 0.2,0.6 0.5,0.8 1,0.4 1.5,-0.1 0.9,-0.2 1.4,-0.7 0.7,-0.8 0.1,-0.9 -0.1,-0.4 m 1.6,6.7 -0.7,-2.9 -2.7,0.4 0.4,0.2 0.5,0.8 0.2,0.9 -0.1,0.9 -0.4,0.7 -0.8,0.5 -0.6,0.2 -0.9,-0.1 -0.8,-0.4 -0.5,-0.8 -0.2,-0.9 0.1,-1 0.2,-0.3 0.5,-0.5 m 61.8,-30.5 3,0.4 0.7,-2.6 -0.3,0.2 -1,0.2 -0.9,-0.1 -0.8,-0.5 -0.5,-0.7 -0.2,-0.9 0.1,-0.6 0.5,-0.8 0.6,-0.5 1,-0.2 0.9,0.2 0.8,0.4 0.3,0.3 0.2,0.7 m -7.6,4 0.9,-0.2 0.4,-0.5 0.1,-0.6 -0.2,-0.7 -0.5,-0.4 -1.2,-0.4 -0.8,-0.5 -0.5,-0.7 -0.2,-0.6 0.1,-0.9 0.4,-0.5 0.4,-0.3 0.9,-0.1 1.2,0.1 0.8,0.5 0.3,0.3 0.2,0.6 -0.2,0.9 -0.4,0.6 -0.6,0.5 -1,0.1 -1.2,0.2 -0.6,0.2 -0.4,0.5 -0.1,0.6 0.2,0.6 0.8,0.5 1.4,0.2 m -78.5,66.1 -0.6,0.2 -1,0.9 0.1,-6.3 m -3,6.5 0.9,-0.3 0.6,-0.9 0.3,-1.5 v -0.9 l -0.2,-1.5 -0.6,-0.9 -0.9,-0.3 h -0.6 l -0.9,0.3 -0.6,0.9 -0.4,1.5 v 0.9 l 0.3,1.5 0.6,0.9 0.9,0.3 h 0.4 m -6.9,-0.1 3,0.1 0.3,-2.7 -0.3,0.3 -0.9,0.2 h -0.9 l -0.9,-0.3 -0.6,-0.6 -0.3,-0.9 v -0.6 l 0.3,-0.9 0.6,-0.6 0.9,-0.3 h 0.9 l 0.9,0.4 0.3,0.3 0.3,0.6 m 7.2,63.9 0.6,-0.3 0.9,-0.8 -0.2,6.3 m 1.2,-5.1 0.6,-0.3 1,-0.8 -0.2,6.2 m 1.2,-5 0.6,-0.3 0.9,-0.9 -0.2,6.3 m -32.6,-43.2 0.3,0.6 1,0.8 -6.3,0.6 m 6.8,2.4 -0.4,-0.9 -1,-0.5 -1.5,-0.2 -0.9,0.1 -1.5,0.4 -0.8,0.7 -0.2,0.9 v 0.6 l 0.4,0.9 1,0.5 1.5,0.2 0.9,-0.1 1.4,-0.4 0.9,-0.7 0.2,-0.9 v -0.5 m -0.3,7.1 0.6,-0.4 0.2,-0.9 -0.1,-0.6 -0.4,-0.9 -0.9,-0.5 -1.5,-0.2 -1.5,0.2 -1.2,0.4 -0.5,0.6 -0.3,0.9 0.1,0.3 0.3,0.9 0.7,0.5 0.9,0.3 0.3,-0.1 0.9,-0.3 0.5,-0.7 0.3,-0.9 -0.1,-0.3 -0.3,-0.9 -0.7,-0.5 -0.9,-0.2 m 163.3,-120.4 0.6,0.2 0.9,-0.4 0.4,-0.4 0.4,-0.8 -0.2,-1.1 -0.8,-1.3 -1.1,-1.1 -1,-0.6 h -0.9 l -0.8,0.4 -0.2,0.2 -0.5,0.8 v 0.9 l 0.4,0.8 0.2,0.3 0.9,0.4 h 0.8 l 0.9,-0.4 0.2,-0.2 0.4,-0.9 0.1,-0.8 -0.5,-0.9 m -4.9,7.8 -0.4,-0.9 v -0.8 l 0.4,-0.9 0.2,-0.2 0.9,-0.4 h 0.8 l 0.9,0.5 0.2,0.2 0.4,0.8 v 0.9 l -0.4,0.8 -0.3,0.2 -0.8,0.4 h -0.9 l -1,-0.6 -1.1,-1.1 -0.8,-1.3 -0.2,-1 0.5,-0.9 0.4,-0.4 0.8,-0.4 0.7,0.2 m 12.3,98.2 -0.4,-0.6 -0.9,-0.8 6.3,-0.3 m -5.2,-0.9 -0.3,-0.5 -0.9,-0.9 6.3,-0.3 m -4.7,-4.8 0.9,0.2 0.7,0.6 0.3,0.9 v 0.3 l -0.2,0.9 -0.6,0.6 -0.9,0.4 h -0.3 l -0.9,-0.3 -0.6,-0.6 -0.4,-0.8 v -0.3 l 0.3,-1 0.5,-0.6 1.2,-0.3 1.5,-0.1 1.5,0.2 1,0.6 0.3,0.9 v 0.6 l -0.2,0.9 -0.6,0.3 m -31.4,48.8 0.4,-0.6 0.3,-1.2 3,5.6 m -1.5,-5 0.4,-0.6 0.4,-1.2 2.9,5.6 m -0.6,-7 -0.7,0.7 v 0.6 l 0.3,0.6 0.5,0.4 0.7,-0.1 1.2,-0.2 1,-0.2 0.8,0.3 0.5,0.3 0.4,0.8 v 0.7 l -0.1,0.4 -0.6,0.7 -1.1,0.6 -0.9,0.1 -0.4,-0.1 -0.6,-0.4 -0.4,-0.8 v -0.7 l 0.2,-0.8 0.7,-0.7 0.9,-0.8 0.4,-0.5 v -0.7 l -0.3,-0.5 -0.5,-0.4 -1,0.1 -1.2,0.7 m 41.7,-105.1 0.3,-0.6 v -1.3 l 4.4,4.5 m -2.4,-4.7 -0.2,-0.3 -0.2,-0.6 V 346 l 0.2,-0.6 0.9,-0.9 0.6,-0.2 h 0.5 l 0.6,0.2 0.4,0.4 0.2,0.7 0.2,1 v 4.3 l 3,-3 m -2.3,-6.5 -0.5,0.8 0.2,1.1 0.9,1.3 0.6,0.6 1.3,0.9 1,0.2 0.9,-0.4 0.4,-0.5 0.4,-0.8 -0.2,-1.1 -0.8,-1.3 -0.6,-0.6 -1.3,-0.8 -1.1,-0.3 -0.8,0.5 -0.3,0.3 m 5.8,-24.1 -0.6,-0.1 -1.3,0.1 4,-4.9 m -4.1,3.3 -0.6,-0.2 -1.3,0.2 4,-4.9 m -7.8,2.1 2.3,1.9 2,-2 -0.5,0.1 -0.8,-0.3 -0.7,-0.6 -0.6,-0.8 v -0.9 l 0.3,-0.8 0.4,-0.5 0.8,-0.5 0.8,-0.1 0.9,0.3 0.7,0.6 0.5,0.8 0.1,0.4 -0.2,0.7 m -93.1,184.6 v -0.6 l -0.5,-1.2 5.8,2.5 m -4.3,-3 v -0.7 l -0.5,-1.2 5.8,2.5 m -5.3,-4.2 1.3,-3 1.5,2.6 0.4,-0.8 0.5,-0.5 0.4,-0.1 0.9,0.1 0.6,0.2 0.7,0.6 0.3,0.8 -0.1,1 -0.3,0.8 -0.7,0.7 -0.4,0.2 h -0.6 m -26.5,-7.3 0.7,0.2 1.2,-0.2 -3.7,5 m 3.9,-3.4 0.6,0.1 1.3,-0.2 -3.8,5.1 m 4.3,-3.1 0.2,-0.2 0.6,-0.3 0.4,-0.1 0.7,0.1 1,0.7 0.3,0.6 v 0.5 l -0.1,0.6 -0.3,0.5 -0.6,0.3 -1,0.4 -4.2,0.6 3.3,2.5 m 59,-226.2 0.4,-0.6 0.2,-1.3 3.5,5.3 m -1.9,-4.9 0.3,-0.5 0.2,-1.3 3.6,5.3 m 1.7,-6.5 0.2,0.9 -0.1,0.8 -0.6,0.8 -0.2,0.1 -1,0.3 -0.8,-0.2 -0.7,-0.6 -0.2,-0.2 -0.3,-0.9 0.2,-0.8 0.6,-0.8 0.2,-0.2 0.9,-0.2 0.9,0.1 0.9,0.9 0.8,1.2 0.6,1.4 v 1.1 l -0.6,0.8 -0.5,0.3 -0.9,0.3 -0.6,-0.4 m -26.7,-17.5 0.3,0.6 1,0.8 -6.3,0.6 m 5.2,1.1 h 0.3 l 0.6,0.3 0.3,0.2 0.4,0.6 0.1,1.2 -0.3,0.6 -0.2,0.3 -0.6,0.4 -0.6,0.1 -0.6,-0.3 -1,-0.5 -3.2,-2.7 0.4,4.2 m 6.5,2.3 -0.4,-0.8 -0.9,-0.6 -1.5,-0.1 -0.9,0.1 -1.5,0.4 -0.8,0.7 -0.3,0.9 0.1,0.6 0.4,0.9 0.9,0.5 1.6,0.1 h 0.8 l 1.5,-0.5 0.9,-0.7 0.2,-0.9 -0.1,-0.4 m -108.3,293.4 -0.8,0.4 -0.2,0.7 0.1,0.6 0.5,0.5 0.6,0.2 h 1.2 l 1,0.1 0.7,0.5 0.4,0.5 0.2,0.9 -0.2,0.6 -0.2,0.4 -0.8,0.5 -1.2,0.2 -0.9,-0.1 -0.4,-0.2 -0.4,-0.5 -0.2,-0.9 0.2,-0.7 0.4,-0.7 0.9,-0.5 1.1,-0.5 0.5,-0.4 0.2,-0.7 -0.2,-0.6 -0.4,-0.5 -0.9,-0.1 -1.3,0.3 m 5.3,-1.1 -0.8,0.4 -0.1,0.7 0.1,0.6 0.4,0.5 0.6,0.2 h 1.3 l 0.9,0.1 0.7,0.5 0.5,0.5 0.1,0.9 -0.1,0.6 -0.3,0.4 -0.8,0.5 -1.2,0.2 -0.9,-0.1 -0.3,-0.2 -0.5,-0.5 -0.2,-0.9 0.2,-0.7 0.5,-0.7 0.8,-0.5 1.1,-0.5 0.5,-0.4 0.2,-0.7 -0.1,-0.6 -0.4,-0.5 -1,-0.1 -1.3,0.3 m -11.4,-37.7 0.3,-0.9 0.7,-0.5 0.9,-0.3 0.3,0.1 0.9,0.3 0.5,0.7 0.2,0.9 v 0.3 l -0.3,0.9 -0.7,0.5 -0.9,0.3 -0.3,-0.1 -0.9,-0.3 -0.5,-0.7 -0.2,-1.2 0.1,-1.5 0.4,-1.5 0.7,-0.8 0.9,-0.2 h 0.6 l 0.8,0.4 0.3,0.6 m -8.7,4.7 3,0.3 0.5,-2.7 -0.3,0.3 -1,0.2 -0.9,-0.1 -0.8,-0.3 -0.6,-0.7 -0.2,-0.9 v -0.6 l 0.4,-0.9 0.6,-0.5 1,-0.3 0.8,0.1 0.9,0.4 0.3,0.3 0.3,0.6 m 28,21 6.6,2.1 m -6,2 -0.6,-4.1 m 166.3,-362.5 -0.4,-0.5 -1,-0.8 6.2,-0.8 m -5.1,-0.4 -0.4,-0.6 -1,-0.8 6.3,-0.7 m -5.2,-1.1 -0.3,0.1 -0.6,-0.3 -0.4,-0.2 -0.3,-0.6 -0.2,-1.2 0.3,-0.6 0.2,-0.4 0.6,-0.3 0.6,-0.1 0.6,0.2 1,0.5 3.3,2.7 -0.5,-4.2 m -20.8,-1.1 -0.3,0.6 -0.3,1.2 -3.5,-5.2 m 2,4.8 -0.3,0.6 -0.3,1.3 -3.5,-5.2 m 2,4.8 -0.4,0.6 -0.2,1.2 -3.6,-5.2 m -285.5,393.2 1.3,5 2.9,-3.5 m -4.2,-1.5 4.8,4 m -0.9,-8.8 -1.9,2.3 1.9,2 v -0.5 l 0.3,-0.9 0.6,-0.7 0.8,-0.5 h 0.8 l 0.9,0.3 0.5,0.4 0.5,0.8 0.1,0.8 -0.3,0.9 -0.6,0.7 -0.8,0.5 h -0.4 l -0.7,-0.1 m -44.3,9.7 -4.6,2.4 4,2 m 0.6,-4.4 -2.9,5.6 m 8,-1.8 v -0.7 l -0.6,-0.7 -0.6,-0.3 -0.9,-0.1 -0.9,0.5 -1,1.2 -0.7,1.3 -0.3,1.2 0.3,0.8 0.6,0.7 0.3,0.2 0.9,0.1 0.8,-0.2 0.7,-0.7 0.2,-0.3 0.1,-0.9 -0.2,-0.8 -0.7,-0.7 -0.3,-0.1 -0.9,-0.2 -0.8,0.3 -0.7,0.6"
       id="nums_002"
       stroke="#000000"
       stroke-width="1" />
    <path
       d="m 599.8,557.5 -15.6,-24.3 6.2,-18.1 -9.5,-19.1 11.6,-35.3 19,-9.8 -5.9,-22.6 18.8,-39.9 21.2,-9.9 -24.3,-87.3 -11.3,18.9 -3.4,1 -19.6,-10 -21.9,-9.9 -2,-3.7 4.8,-23.7 7,-23.6 3.5,-2.5 24.6,0.6 7.5,-64.2 -1.2,-19.5 22.1,-20.7 19.3,2.4 24.6,2.4 3.2,3 4.1,24.4 7.1,27 v 0 l -27.8,37.7 40.3,-54.7 9.9,-6.6 v 0 l 32.9,9.8 -41.1,-12.2 -30.1,-62.2 -21.5,-2.6 -24.1,-29.4 1.8,-21.5 41.8,-12.5 53.8,12.2 8,71.7 48.9,26.8 85.8,2.8 48.4,-47.1 -59.8,-11.2 -17,-9.7 -5.5,-30.2 12.5,-15 71.9,-1.6 26.7,7.7 37.7,43 4.2,27.5 -43.8,59.3 54.2,-37.1 16.3,10.6 3.5,30 -13.5,14 23.9,26.6 -5.1,20.1 -30.4,17.4 -19.9,-5.9 -61.9,41.4 -6.4,-67 -36.8,40.2 46,50 -13.7,21.4 0.2,-0.4 -29.1,-4.5 45.1,6.9 0.6,-21.4 26.7,-26 21.5,0.1 19,-3.9 23.2,18.9 0.1,19.3 -0.2,21.4 -26.3,26 h -21.3 l 15.7,16 1.9,40.9 -14.2,17.5 -56.5,29.6 7.4,20.7 -1.4,3.3 -20.1,8.9 -44.2,-32.7 -15.2,14.6 -36.2,-1.1 -14.3,-15.4 -16.4,-15.2 -3.5,-40.4 13.5,-17.8 59.9,0.7 -17.7,-9.5 -7.8,-32 11.3,-16.7 -49.4,-91.5 -3.7,21.7 -31.4,24 -22,-2.2 54.2,13.3 -6.3,66.1 -31.9,58.6 -32.3,10.6 -19.8,-18 39,35.4 21.2,-1.1 27.3,24.5 1.2,21.2 16,-13.9 36.4,2.8 13.8,16.1 17.6,17.7 0.6,4.4 -12,21.9 -53.9,11.5 48.7,17.6 4.6,-19.5 28.6,-15.4 18.8,6.8 8.8,79.6 -63,24.3 -51.2,12.2 -8.9,-32.1 -7.5,19.8 -3.1,1.4 -19.8,-7.6 -13.2,-54.1 -13.5,-73.7 1,22.6 -25.9,31.9 -22.3,3.7 -18.1,7.4 -27.1,-14.2 -4.2,-19.1 z"
       id="coupes_002"
       stroke="#ff0000"
       stroke-width="1.27"
       sodipodi:nodetypes="cccccccccccccccccccccccccccccccccccccccccccccccccccccccccccccccccccccccccccccccccccccccccccccccccccccccccccccccccccccccccccccccccccccccc" />
    <path
       d="m 715,296.6 16,138 m 0,0 -52.1,-7.4 m -17,-196.4 53.1,65.8 m -36.1,130.6 -17,-196.4 m 110.2,22.3 -57.1,43.5 m -12.8,-120.5 42.8,3.2 m 0,0 27.1,73.8 M 745,179.3 867.5,265.4 m 3.4,66.5 -98.8,-78.8 m 141.4,62.3 -42.6,16.5 m -225.3,46.6 16.3,-147.7 m 17,196.4 -33.3,-48.7 m -34.1,72.4 34.1,-72.4 m 33.3,48.7 -67.4,23.7 M 715,296.6 762.9,376 M 603,238.3 661.9,230.8 M 621.3,291.2 603,238.3 m 7.5,-64.2 51.4,56.7 m 20.7,-64.7 -20.7,64.7 m 209,101.1 -49.4,12.7 m -39,-195 85,115.8 M 745,179.3 782.5,149.6 M 745,179.3 733.6,122.8 m -59.8,-17.9 59.8,17.9 m -59.8,-17.9 51.8,-53.8 m -51.8,53.8 -2,-66 m 2,66 L 630,51.4 m 152.5,98.2 121.8,75.6 m -36,-72.8 36,72.8 m -36,-72.8 75.3,22.7 m -26.9,-69.8 26.9,69.8 m -26.9,-69.8 70.7,10.5 m -68.6,-78.2 68.6,78.2 m -336.7,20.5 31.9,29.8 m -72.1,8 40.2,-37.8 M 567.9,263.8 603,238.3 m 18.3,52.9 -53.4,-27.4 m 53.4,27.4 -34.3,9.9 M 717.9,462.6 611.5,450.9 m 106.4,11.7 -99.1,96.7 m 0,0 -7.3,-108.4 m 7.3,108.4 -28.4,-44.2 m 0,0 21.1,-64.2 m 106.4,11.7 -2.5,64.4 m 0,0 -96.6,32.3 m 99.1,-96.7 49.7,44.6 m 0,0 -52.2,19.8 M 972.6,250.8 904.3,225.2 m -136.7,282 -38.7,93.5 m 57.2,-33 -57.2,33 m 43.6,40.5 -43.6,-40.5 m 57.2,-33 -13.6,73.5 m 0,0 -30.4,13.6 m 92.7,-69.5 -62.3,55.9 m 60.1,19.9 -60.1,-19.9 m 62.3,-55.9 -2.2,75.8 m 2.2,-75.8 60.8,51.5 m 108.5,-444.2 -31.5,58.2 m -29,-75.7 60.5,17.5 m 23.9,26.6 -55.4,31.6 m -101.7,81.1 -35.2,70.9 m 0,0 -14.2,-58.2 m 94.5,-5.8 -80.3,64 m 80.3,-64 -9.8,138.4 m 0,0 -70.5,-74.4 m 70.5,74.4 -58.3,0.2 m 0,0 -12.2,-74.6 m 80.3,-64 43.3,34.4 m 0,0 -53.1,104 m -58.3,0.2 -72.1,-75.3 m 72.1,75.3 -65.7,-1.9 m 182.6,-184 -5.5,81.7 M 916,338.8 964.8,291.5 m -5.5,81.7 3.4,74.4 m 44.4,-121.8 -47.8,47.4 m -53.1,104 -14.1,32.9 m -124.5,-2.9 66.2,5 m 164,-374.2 6.3,54.6 M 715.4,527 668.2,585.2 m 0,0 -49.4,-25.9"
       id="plisM_002"
       stroke="#a52a2a"
       stroke-dasharray="4" />
    <path
       d="M 678.9,427.2 715,296.6 m -53.1,-65.8 110.2,22.3 m -69.9,-77 69.9,77 m 95.4,12.3 -95.4,-12.3 m 95.4,12.3 3.4,66.5 m -249.6,-40.7 40.6,-60.4 m -51.4,-56.7 72.1,-8 m 21.3,1 29.7,-44.3 m 210,52.3 -39.3,50.1 m 12.4,-119.9 2.1,-67.7 m -2.1,67.7 -69.8,-66.1 m 10,54.9 -10,-54.9 M 587,301.1 567.9,263.8 m 375.7,-88.7 29,75.7 m -205,256.4 18.5,60.5 m 48.7,17.6 52,-28.1 m -104.6,-81.7 -6.4,-73.4 m 189,-110.6 42.3,34.3 m -239.5,181.4 72.4,49 m -6.2,-44 6.2,44"
       id="plisV_002"
       stroke="#008000"
       stroke-dasharray="4, 1, 1, 1"
       stroke-width="1.27" />
    <path
       d="m 695,359.9 4,4 m 0,-4 -4,4 m 20,-124 4,4 m 0,-4 -4,4 m 20.2,-31.3 4,4 m 0,-4 -4,4 m 82.6,40.6 4,4 m 0,-4 -4,4 m 49.4,35.4 4,4 m 0,-4 -4,4 M 639.6,259 l 4,4 m 0,-4 -4,4 m 5,-94.9 4,4 m 0,-4 -4,4 m 72.2,-29.1 4,4 m 0,-4 -4,4 m 205.2,51.2 4,4 m 0,-4 -4,4 m -6.3,-132.7 4,4 m 0,-4 -4,4 m -35.9,-3.2 4,4 m 0,-4 -4,4 m -29.9,-9.7 4,4 m 0,-4 -4,4 m -274.5,211.9 4,4 m 0,-4 -4,4 m 380.7,-73.6 4,4 m 0,-4 -4,4 m -181.2,320.5 4,4 m 0,-4 -4,4 m 83.9,29.9 4,4 m 0,-4 -4,4 M 777,436.8 l 4,4 m 0,-4 -4,4 m 206.9,-134.2 4,4 m 0,-4 -4,4 m -182.1,219.1 4,4 m 0,-4 -4,4 m 33.1,-1.5 4,4 m 0,-4 -4,4"
       id="marqueV_002"
       stroke="#008000" />
    <path
       d="m 817,301.2 v -0.7 l 0.7,-1.5 0.8,-0.8 1.5,-0.7 h 3 l 1.5,0.7 0.7,0.8 0.8,1.5 v 1.5 l -0.8,1.5 -1.5,2.2 -7.5,7.5 h 10.5"
       id="titre_2"
       stroke="#4b0082" />
  </g>
  <g
     id="page_003">
    <path
       d="m 1345.4,529.3 -0.3,-0.2 -0.3,-0.6 v -0.4 l 0.1,-0.7 0.7,-0.9 0.6,-0.3 0.5,-0.1 0.6,0.2 0.5,0.3 0.3,0.6 0.3,1.1 0.6,4.2 2.5,-3.4 m 25.5,-52.5 -0.1,-0.7 -0.5,-1.2 5.9,2.4 m -5,-5.2 v 0.9 l 0.6,0.9 1.3,0.9 0.8,0.3 1.5,0.3 1.1,-0.2 0.6,-0.7 0.2,-0.6 0.1,-0.9 -0.6,-0.9 -1.3,-0.9 -0.9,-0.3 -1.5,-0.3 -1,0.2 -0.6,0.7 -0.2,0.5 m -72.7,-32.7 0.2,0.7 0.6,1.1 -6.1,-1.5 m 4.7,2.2 0.2,0.7 0.6,1.1 -6.1,-1.5 m 25.1,-53.6 v 0.7 l 0.5,1.2 -5.7,-2.7 m 4.7,5.2 0.1,-1 -0.4,-0.5 -0.5,-0.3 -0.7,0.1 -0.5,0.4 -0.8,0.9 -0.7,0.7 -0.8,0.3 h -0.6 l -0.8,-0.4 -0.5,-0.5 -0.1,-0.4 0.1,-0.9 0.5,-1.1 0.7,-0.7 0.4,-0.1 0.6,-0.1 0.9,0.4 0.4,0.5 0.3,0.8 -0.2,1 -0.2,1.2 v 0.7 l 0.4,0.5 0.6,0.2 h 0.7 l 0.6,-0.7 0.6,-1.2 m 75.5,42.5 0.2,-0.7 0.1,-1.2 4.3,4.5 m -3.2,-5.9 2.4,-2.3 0.3,3 0.7,-0.6 0.6,-0.2 h 0.4 l 0.9,0.5 0.4,0.4 0.4,0.9 v 0.8 l -0.5,0.9 -0.6,0.6 -0.9,0.4 h -0.4 l -0.7,-0.3 m -179.1,95.2 1,-0.1 0.7,-0.8 0.6,-1.4 0.1,-0.9 v -1.5 l -0.4,-1 -0.8,-0.5 -0.6,-0.1 -1,0.2 -0.7,0.7 -0.6,1.5 -0.2,0.8 0.1,1.6 0.4,1 0.8,0.4 0.5,0.1 m -48.4,-16.4 0.9,0.1 0.5,-0.4 0.3,-0.5 v -0.7 l -0.4,-0.5 -0.9,-0.8 -0.7,-0.7 -0.2,-0.8 v -0.7 l 0.4,-0.8 0.6,-0.4 0.4,-0.1 0.9,0.1 1.1,0.6 0.6,0.7 0.2,0.4 -0.1,0.7 -0.4,0.7 -0.5,0.4 -0.8,0.3 -1,-0.2 -1.2,-0.2 -0.6,-0.1 -0.6,0.4 -0.3,0.6 v 0.6 l 0.7,0.7 1.2,0.6 m -4.9,-2.5 1,0.1 0.5,-0.3 0.3,-0.6 v -0.6 l -0.4,-0.6 -0.9,-0.8 -0.7,-0.7 -0.2,-0.8 v -0.7 l 0.4,-0.8 0.5,-0.4 0.4,-0.1 1,0.2 1,0.5 0.7,0.7 0.1,0.4 v 0.7 l -0.4,0.8 -0.6,0.4 -0.8,0.2 -0.9,-0.1 -1.2,-0.3 h -0.7 l -0.5,0.4 -0.3,0.5 v 0.7 l 0.7,0.6 1.1,0.7 m -21.3,4.2 0.1,-1 -0.4,-0.5 -0.5,-0.3 -0.7,0.1 -0.5,0.4 -0.8,0.9 -0.7,0.7 -0.8,0.3 h -0.6 l -0.8,-0.4 -0.5,-0.5 -0.1,-0.4 0.1,-0.9 0.5,-1.1 0.7,-0.7 0.4,-0.2 h 0.7 l 0.8,0.4 0.4,0.5 0.3,0.8 -0.1,1 -0.3,1.2 v 0.7 l 0.4,0.5 0.6,0.3 0.7,-0.1 0.6,-0.6 0.6,-1.3 m -3.3,6.9 1.3,-2.7 -2.3,-1.5 0.2,0.4 -0.2,1 -0.3,0.8 -0.7,0.7 -0.8,0.3 -0.9,-0.1 -0.6,-0.3 -0.7,-0.7 -0.3,-0.8 0.2,-0.9 0.3,-0.8 0.7,-0.7 0.4,-0.1 0.7,-0.1 m 203.1,-149 0.3,0.6 0.9,0.3 h 0.6 l 0.9,-0.4 0.6,-0.9 0.2,-1.5 v -1.5 l -0.4,-1.2 -0.6,-0.6 -0.9,-0.2 h -0.3 l -0.9,0.3 -0.6,0.6 -0.2,0.9 v 0.3 l 0.3,0.9 0.6,0.6 0.9,0.3 h 0.3 l 0.9,-0.4 0.6,-0.6 0.3,-0.9 m -5.5,2.9 v 0.3 l -0.3,0.6 -0.2,0.3 -0.6,0.3 -1.2,0.1 -0.6,-0.3 -0.4,-0.3 -0.3,-0.6 v -0.6 l 0.3,-0.6 0.6,-0.9 2.8,-3.1 -4.1,0.1 m 41.4,-2.4 0.5,0.5 0.9,-0.1 0.6,-0.2 0.7,-0.6 0.3,-1 -0.2,-1.5 -0.5,-1.4 -0.7,-1.1 -0.8,-0.3 h -1 l -0.2,0.1 -0.8,0.6 -0.3,0.8 v 0.9 l 0.1,0.3 0.6,0.7 0.7,0.4 h 1 l 0.3,-0.1 0.7,-0.6 0.4,-0.8 v -0.9 m -7.2,7 0.7,-6.9 m 3.3,5.5 -4,1.4 m 86.1,75.1 -0.5,-0.5 -1.1,-0.6 6,-1.9 m -5.2,0.5 -0.5,-0.4 -1.1,-0.6 6,-1.9 m -7.5,-2.1 4.9,1.6 -1.4,-4.3 m -3.5,2.7 6,-1.9 m -34.9,20.9 0.5,0.5 1.1,0.6 -6,1.8 m 7.1,1 -0.6,-0.8 -1,-0.3 -1.5,0.1 -0.9,0.3 -1.3,0.7 -0.7,0.8 -0.1,1 0.2,0.5 0.5,0.8 1.1,0.3 1.5,-0.1 0.9,-0.3 1.3,-0.7 0.7,-0.8 v -1 l -0.1,-0.4 m 0.1,7.6 h -1 l -0.7,-0.4 -0.6,-0.8 v -0.3 -0.9 l 0.4,-0.8 0.8,-0.5 0.3,-0.1 h 0.9 l 0.8,0.4 0.5,0.8 0.1,0.3 v 0.9 l -0.4,0.8 -1.1,0.6 -1.4,0.4 -1.6,0.2 -1,-0.3 -0.6,-0.8 -0.1,-0.6 v -0.9 l 0.5,-0.5 m 0.3,55.1 v 0.6 l 0.3,1.3 -5.5,-3 m 4.3,5.6 0.2,-0.9 -0.5,-0.9 -1.2,-1 -0.8,-0.4 -1.5,-0.5 -1,0.1 -0.7,0.7 -0.3,0.5 -0.2,0.9 0.5,1 1.2,1 0.8,0.4 1.5,0.4 1,-0.1 0.7,-0.6 0.2,-0.4 m -1.9,3.5 -1.5,2.9 -1.3,-2.7 -0.4,0.8 -0.6,0.3 -0.4,0.2 -0.9,-0.2 -0.5,-0.3 -0.7,-0.7 -0.2,-0.8 0.1,-0.9 0.5,-0.8 0.7,-0.7 0.4,-0.1 h 0.6 m 7,70.2 h -1 l -0.7,-0.3 -0.6,-0.7 -0.1,-0.3 -0.1,-1 0.4,-0.7 0.7,-0.7 0.3,-0.1 h 0.9 l 0.8,0.3 0.6,0.8 0.1,0.3 0.1,0.9 -0.4,0.8 -1,0.7 -1.4,0.5 -1.5,0.3 -1.1,-0.3 -0.6,-0.7 -0.2,-0.6 v -0.9 l 0.4,-0.5 m 6.2,6.9 -1,0.1 -0.7,-0.4 -0.6,-0.7 -0.1,-0.3 -0.1,-1 0.4,-0.7 0.7,-0.6 0.3,-0.1 0.9,-0.1 0.8,0.4 0.6,0.7 0.1,0.3 0.1,0.9 -0.4,0.8 -1,0.7 -1.4,0.5 -1.5,0.3 -1.1,-0.2 -0.6,-0.8 -0.2,-0.5 v -1 l 0.4,-0.5 m 104.5,12 -0.7,-0.1 -0.7,0.6 -0.4,0.4 -0.3,0.9 0.4,1.1 1,1.1 1.2,0.9 1.1,0.5 0.9,-0.2 0.8,-0.5 0.1,-0.2 0.3,-0.9 -0.1,-0.9 -0.5,-0.8 -0.3,-0.1 -0.9,-0.3 -0.8,0.1 -0.8,0.5 -0.2,0.3 -0.3,0.9 0.2,0.8 0.5,0.8 m 0.7,-5.7 0.1,-0.6 -0.1,-1.3 5,3.8 m -32.9,-62.4 -0.6,0.3 -0.8,1 -0.6,-6.3 m -0.5,5.2 -0.6,0.4 -0.8,1 -0.6,-6.3 m -4.6,7 2.4,-6.6 m 1.8,6.2 -4.2,0.4 m 33.5,22.5 6.9,0.2 m -5.2,3.6 -1.7,-3.8 m 0.8,-1.5 -0.5,-0.5 -1.2,-0.4 5.8,-2.6 m -316.2,45.1 1.6,2.9 -3,-0.4 0.5,0.8 v 0.6 l -0.1,0.5 -0.6,0.7 -0.5,0.3 -1,0.2 -0.8,-0.3 -0.7,-0.6 -0.5,-0.8 -0.1,-0.9 0.1,-0.4 0.3,-0.6 m 8.1,5.7 0.4,-0.6 -0.2,-0.9 -0.3,-0.5 -0.7,-0.7 h -1.1 l -1.4,0.5 -1.3,0.7 -0.9,0.9 -0.2,0.8 0.2,0.9 0.1,0.3 0.7,0.6 0.8,0.2 1,-0.2 0.2,-0.1 0.7,-0.7 0.2,-0.8 -0.2,-1 -0.2,-0.2 -0.7,-0.7 -0.8,-0.2 -0.9,0.2 m 279.3,-115.8 -0.6,-0.4 -1.2,-0.2 5.2,-3.5 m -4.8,1.9 -0.6,-0.3 -1.2,-0.2 5.2,-3.5 m -7.3,-0.9 -0.3,0.6 0.2,0.9 0.3,0.5 0.8,0.6 h 1.1 l 1.4,-0.6 1.2,-0.8 0.9,-0.9 0.1,-0.9 -0.2,-0.9 -0.2,-0.2 -0.7,-0.6 -0.9,-0.2 -0.9,0.3 -0.2,0.1 -0.6,0.8 -0.2,0.8 0.3,0.9 0.1,0.3 0.8,0.6 0.8,0.1 0.9,-0.2 m -4.2,34.2 0.5,-0.5 0.6,-1.1 1.9,6 m -0.6,-5.2 0.5,-0.5 0.6,-1.1 1.9,6 m 3,-7.8 -1,6.9 m -3,-5.6 4,-1.3 m -163.2,69.8 -1.3,-3 3,0.7 -0.4,-0.8 v -0.7 l 0.2,-0.4 0.7,-0.6 0.6,-0.2 0.9,-0.1 0.8,0.3 0.6,0.7 0.4,0.8 0.1,1 -0.2,0.4 -0.4,0.5 m -8.1,-5.8 5,1.1 -1.8,-4.1 m -3.2,3 5.8,-2.5 m 207,63.9 -0.1,0.7 0.5,0.8 0.5,0.3 0.9,0.3 1,-0.3 1.2,-1 0.9,-1.2 0.5,-1.1 -0.1,-0.9 -0.6,-0.8 -0.2,-0.2 -0.9,-0.3 -0.8,0.1 -0.8,0.6 -0.2,0.2 -0.3,0.9 0.1,0.9 0.5,0.7 0.3,0.2 0.9,0.3 0.8,-0.1 0.8,-0.5 m -8,-0.9 0.9,0.4 1,-0.4 1.2,-1 0.5,-0.7 0.7,-1.4 0.1,-1.1 -0.6,-0.7 -0.4,-0.4 -0.9,-0.3 -1.1,0.3 -1.1,1 -0.6,0.7 -0.6,1.4 -0.1,1.1 0.5,0.8 0.4,0.3 m -10.8,27.6 0.4,-0.5 0.3,-1.3 3.2,5.4 m -0.8,-7.1 -0.6,0.7 -0.1,1.1 0.5,1.5 0.5,0.7 1,1.2 1,0.4 0.9,-0.2 0.6,-0.3 0.6,-0.7 v -1.1 l -0.5,-1.4 -0.5,-0.8 -1,-1.1 -1,-0.5 -0.9,0.2 -0.4,0.2 m 3.6,-0.5 0.3,-0.5 0.3,-1.3 3.3,5.4 m -79.6,10.6 h -0.9 l -0.8,-0.4 -0.6,-0.7 -0.1,-0.3 v -1 l 0.4,-0.7 0.8,-0.6 0.3,-0.1 h 0.9 l 0.8,0.4 0.5,0.8 0.1,0.2 v 1 l -0.3,0.7 -1.1,0.7 -1.4,0.5 -1.5,0.2 -1.1,-0.3 -0.5,-0.8 -0.2,-0.5 v -1 l 0.4,-0.5 m 6.9,3.4 1,3.1 -2.8,-0.9 0.2,0.8 v 0.7 l -0.2,0.4 -0.8,0.5 -0.6,0.2 h -0.9 l -0.8,-0.3 -0.5,-0.8 -0.3,-0.9 v -0.9 l 0.2,-0.4 0.4,-0.5 m 25.9,23.5 0.5,0.9 -0.1,0.8 -0.4,0.9 -0.2,0.2 -0.9,0.4 h -0.8 l -0.9,-0.5 -0.2,-0.2 -0.4,-0.8 v -0.9 l 0.5,-0.8 0.2,-0.2 0.8,-0.4 h 0.9 l 1,0.6 1.1,1.1 0.8,1.3 0.2,1.1 -0.4,0.8 -0.5,0.4 -0.8,0.4 -0.7,-0.2 m 0.8,-8.2 -0.4,0.8 0.2,0.7 0.4,0.4 0.6,0.2 0.6,-0.2 1.1,-0.6 0.9,-0.4 h 0.8 l 0.7,0.2 0.6,0.7 0.2,0.6 v 0.4 l -0.5,0.9 -0.8,0.8 -0.9,0.4 h -0.4 l -0.6,-0.2 -0.7,-0.7 -0.2,-0.6 v -0.8 l 0.5,-0.9 0.6,-1 0.3,-0.7 -0.2,-0.6 -0.5,-0.4 -0.6,-0.3 -0.8,0.4 -1,1 m -73.5,-407.7 2.5,1.7 1.7,-2.1 -0.4,0.1 -0.9,-0.3 -0.7,-0.5 -0.6,-0.7 -0.2,-0.9 0.3,-0.9 0.3,-0.5 0.7,-0.6 0.9,-0.1 0.9,0.2 0.7,0.5 0.6,0.8 0.1,0.4 -0.1,0.6 m -10.6,-0.9 5.9,-3.6 m -2.4,5.9 -3.5,-2.3 m -179.1,215.4 h -0.9 l -0.9,0.5 -0.9,1.3 -0.4,0.8 -0.3,1.5 0.2,1.1 0.7,0.6 0.6,0.3 h 0.9 l 0.9,-0.6 0.9,-1.2 0.4,-0.9 0.3,-1.4 -0.2,-1.1 -0.7,-0.6 -0.5,-0.2 m -36,-21.5 -6.4,2.9 m 3.2,-5.6 3.2,2.7 m -6,-36.3 v -0.9 l -0.5,-0.5 -0.5,-0.2 -0.7,0.1 -0.5,0.5 -0.6,1 -0.6,0.8 -0.7,0.4 -0.7,0.1 -0.9,-0.3 -0.4,-0.5 -0.2,-0.3 v -1 l 0.3,-1.1 0.6,-0.8 0.4,-0.2 0.6,-0.1 0.9,0.3 0.5,0.5 0.4,0.7 v 1 l -0.1,1.2 0.1,0.7 0.4,0.4 0.6,0.2 0.7,-0.1 0.5,-0.7 0.5,-1.3 m 97.9,-10.3 -0.3,-0.6 -0.9,-0.9 6.3,0.1 m -5.1,-1.2 -0.2,-0.6 -0.9,-0.9 6.3,0.1 m -81.5,-48.5 0.1,0.7 0.5,1.1 -5.9,-2.3 m 4,3.4 0.3,0.1 0.5,0.5 0.1,0.4 0.1,0.7 -0.5,1.1 -0.5,0.4 -0.4,0.2 h -0.6 l -0.6,-0.2 -0.4,-0.5 -0.6,-0.9 -1.7,-3.9 -1.6,3.9 m 84.9,-5.4 -0.2,-0.6 -0.9,-1 6.3,0.2 m -6.4,-2.8 0.2,0.9 0.6,0.3 h 0.6 l 0.6,-0.3 0.4,-0.5 0.3,-1.2 0.3,-0.9 0.6,-0.6 0.6,-0.3 h 0.9 l 0.6,0.4 0.3,0.3 0.3,0.9 v 1.2 l -0.4,0.9 -0.3,0.3 -0.6,0.2 h -0.9 l -0.6,-0.3 -0.6,-0.6 -0.2,-0.9 -0.3,-1.2 -0.3,-0.7 -0.6,-0.3 h -0.6 l -0.6,0.3 -0.3,0.9 v 1.3 m -23.6,-35.9 -0.1,0.3 -0.5,0.4 -0.4,0.2 h -0.7 l -1.1,-0.5 -0.5,-0.5 -0.1,-0.4 -0.1,-0.6 0.3,-0.6 0.5,-0.4 0.9,-0.6 3.9,-1.6 -3.9,-1.7 m -5.1,4.7 0.9,0.1 0.9,-0.6 0.9,-1.3 0.3,-0.8 0.3,-1.5 -0.2,-1.1 -0.7,-0.6 -0.5,-0.2 -1,-0.1 -0.9,0.6 -0.8,1.3 -0.4,0.8 -0.3,1.5 0.2,1 0.7,0.7 0.4,0.1 m -60.9,-30.9 0.6,0.4 1.3,0.2 -5.3,3.5 m 6.4,1.8 -0.9,0.2 -0.8,-0.2 -0.8,-0.5 -0.1,-0.3 -0.3,-0.9 0.2,-0.8 0.6,-0.8 0.3,-0.1 0.9,-0.3 0.8,0.2 0.7,0.6 0.2,0.2 0.3,0.9 -0.2,0.9 -0.9,0.9 -1.2,0.8 -1.4,0.6 h -1.1 l -0.8,-0.6 -0.3,-0.5 -0.2,-0.9 0.3,-0.6 m 33.9,-18.9 -0.3,-0.1 -0.4,-0.5 -0.2,-0.4 -0.1,-0.7 0.3,-1.1 0.5,-0.5 0.4,-0.2 0.7,-0.1 0.5,0.2 0.5,0.5 0.7,0.9 1.9,3.8 1.3,-4 m -4.3,-2.6 -0.1,-0.7 -0.6,-1.1 6,2 m -59.8,-42.3 0.3,0.6 1,0.9 -6.3,0.1 m 6.6,4.2 -4.2,-3 v 4.5 m 4.2,-1.5 -6.3,0.1 m 74.3,-11.2 -0.1,-0.7 -0.6,-1.1 6,1.8 m -4.7,-6.8 5.2,4.7 m -6.4,-0.7 1.2,-4 m -71.3,-46.6 0.5,-0.4 0.3,-0.9 v -0.6 l -0.3,-0.9 -1,-0.5 -1.5,-0.3 -1.5,0.1 -1.2,0.3 -0.5,0.7 -0.3,0.9 v 0.3 l 0.3,0.9 0.7,0.5 0.9,0.3 h 0.3 l 0.9,-0.3 0.5,-0.7 0.3,-0.9 v -0.3 l -0.3,-0.9 -0.7,-0.5 -0.9,-0.3 m 75.7,4.2 h 1 l 0.7,0.5 0.6,0.7 v 0.3 1 l -0.4,0.7 -0.8,0.6 h -0.3 -1 l -0.7,-0.4 -0.5,-0.8 -0.1,-0.3 v -1 l 0.5,-0.7 1,-0.6 1.5,-0.4 1.5,-0.1 1,0.3 0.6,0.8 0.1,0.6 v 0.9 l -0.5,0.5 m -18,-54.7 4.6,2.2 -0.7,-4.4 m -3.9,2.2 6.2,-1.1 m -78.6,-19.4 1.2,3.1 -2.9,-0.8 0.3,0.8 v 0.7 l -0.2,0.4 -0.7,0.6 -0.6,0.2 -0.9,0.1 -0.8,-0.3 -0.6,-0.8 -0.3,-0.8 -0.1,-0.9 0.2,-0.4 0.4,-0.5 m 7.1,-37.6 -0.2,0.7 v 1.2 l -4.4,-4.5 m 203.2,22.6 1,2.8 2.7,-0.7 -0.4,-0.2 -0.6,-0.7 -0.3,-0.9 -0.1,-0.9 0.4,-0.8 0.7,-0.6 0.6,-0.2 h 0.9 l 0.8,0.3 0.6,0.8 0.3,0.8 v 0.9 l -0.1,0.4 -0.5,0.5 m -115.9,32.1 -4.8,-1.9 1.1,4.4 m 3.7,-2.5 -6.1,1.6 m -10.7,-86 -2.6,-2 2.9,-0.8 -0.7,-0.5 -0.3,-0.6 V 53 l 0.3,-0.9 0.4,-0.4 0.8,-0.5 0.8,-0.1 0.9,0.3 0.7,0.6 0.5,0.8 0.1,0.4 -0.2,0.6 m -9.1,-3.4 0.8,-0.5 0.9,-0.1 0.9,0.3 0.2,0.2 0.5,0.8 0.1,0.8 -0.3,0.9 -0.2,0.3 -0.8,0.5 -0.8,0.1 -0.9,-0.4 -0.3,-0.2 -0.5,-0.8 -0.1,-0.8 0.5,-1.1 1,-1.2 1.2,-1 1,-0.3 0.9,0.3 0.4,0.4 0.6,0.8 -0.2,0.7 M 1172.5,32 h -3.3 l 1.8,-2.4 h -0.9 l -0.6,-0.3 -0.3,-0.3 -0.3,-0.9 v -0.6 l 0.3,-0.9 0.6,-0.6 0.9,-0.3 h 0.9 l 0.9,0.3 0.3,0.3 0.3,0.6 m -7.1,5.1 0.9,-0.3 0.6,-0.9 0.2,-1.5 v -0.9 l -0.3,-1.5 -0.6,-0.9 -0.9,-0.3 h -0.6 l -0.9,0.3 -0.6,0.9 -0.3,1.5 v 0.9 l 0.4,1.5 0.6,0.9 0.9,0.3 h 0.4 m -42.6,8.4 0.2,0.3 0.2,0.6 -0.1,0.4 -0.2,0.7 -1,0.7 -0.6,0.2 -0.4,-0.1 -0.7,-0.2 -0.3,-0.5 -0.2,-0.6 -0.1,-1.1 0.4,-4.2 -3.3,2.6 m -1.1,6.5 -0.4,-0.9 0.1,-0.8 0.5,-0.8 0.2,-0.2 0.9,-0.4 0.8,0.1 0.9,0.5 0.1,0.2 0.4,0.9 -0.1,0.9 -0.5,0.8 -0.2,0.2 -0.9,0.3 -0.8,-0.1 -1,-0.7 -1,-1.1 -0.7,-1.4 -0.1,-1.1 0.5,-0.8 0.4,-0.4 0.9,-0.3 0.6,0.3 m 27.5,35.1 2.8,-1.8 -0.2,3 0.7,-0.5 0.7,-0.1 0.4,0.1 0.7,0.6 0.4,0.5 0.2,0.9 -0.2,0.8 -0.6,0.8 -0.7,0.5 -1,0.2 -0.4,-0.1 -0.5,-0.3 m 5.1,-9.4 0.9,6.9 m -4.4,-4.6 3.5,-2.3 m -32.5,-7.9 2.3,2.4 -3,0.4 0.7,0.6 0.2,0.7 -0.1,0.4 -0.4,0.8 -0.4,0.4 -0.9,0.4 h -0.8 l -0.9,-0.4 -0.6,-0.7 -0.4,-0.8 v -0.4 l 0.2,-0.7 m 9.9,2.9 -2.1,-2.1 -2.1,1.6 h 0.4 l 0.8,0.5 0.6,0.6 0.4,0.9 v 0.8 l -0.4,0.9 -0.4,0.4 -0.9,0.4 h -0.8 l -0.9,-0.5 -0.6,-0.6 -0.4,-0.9 v -0.4 l 0.2,-0.6 m 175.7,-8.5 0.1,-5.1 -3.7,2.5 m 3.6,2.6 -3.5,-5.2 m 0,5.7 0.2,0.3 0.1,0.6 -0.1,0.5 -0.3,0.5 -1,0.7 -0.6,0.1 -0.5,-0.1 -0.6,-0.3 -0.3,-0.5 -0.1,-0.6 v -1.1 l 0.8,-4.2 -3.5,2.4 m 68.8,-9.2 3.4,3.8 1,-4.4 m -4.4,0.6 6.1,1.4 m -4.8,-7.1 3.4,3.9 1,-4.4 m -4.4,0.5 6.1,1.4 m -16.5,-8.1 1.7,-4.8 -4.3,1.2 m 2.6,3.6 -1.8,-6 m -2.5,7.2 0.8,-0.5 0.3,-1 -0.1,-1.6 -0.3,-0.8 -0.7,-1.4 -0.8,-0.7 h -0.9 l -0.6,0.1 -0.8,0.6 -0.3,1 0.1,1.5 0.3,0.9 0.7,1.4 0.8,0.7 h 1 l 0.4,-0.1 m 35.1,302.3 -0.4,-0.5 -0.9,-0.3 -0.6,0.1 -0.8,0.4 -0.6,0.9 -0.1,1.5 0.1,1.5 0.4,1.2 0.6,0.5 0.9,0.3 0.3,-0.1 0.9,-0.3 0.6,-0.7 0.2,-0.9 v -0.3 l -0.4,-0.9 -0.7,-0.5 -0.9,-0.2 h -0.3 l -0.8,0.4 -0.6,0.6 -0.2,0.9 m 8.7,-4.9 -2.5,6.5 m -1.7,-6.2 4.2,-0.3 m -62.4,-92.9 -5.5,-4.2 m 6.4,0.1 -0.9,4.1 m -0.5,2.9 -0.2,-1 -0.7,-0.7 -1.4,-0.6 -0.9,-0.2 h -1.5 l -1,0.4 -0.5,0.8 -0.1,0.6 0.1,1 0.7,0.7 1.5,0.6 0.8,0.2 h 1.6 l 1,-0.4 0.4,-0.8 0.1,-0.5 m 29.5,84.9 v -0.7 l -0.6,-0.7 -0.6,-0.3 -0.9,-0.2 -1,0.5 -0.9,1.2 -0.8,1.3 -0.3,1.2 0.2,0.8 0.6,0.7 0.3,0.1 0.9,0.2 0.9,-0.2 0.7,-0.6 0.1,-0.3 0.2,-0.9 -0.2,-0.9 -0.7,-0.7 -0.2,-0.1 -1,-0.2 -0.8,0.2 -0.7,0.7 m 6.2,0.4 0.1,-0.3 0.6,-0.4 0.4,-0.1 h 0.7 l 1,0.6 0.4,0.6 0.1,0.4 v 0.7 l -0.3,0.5 -0.6,0.4 -1,0.5 -4,1.1 3.6,2.1 m -53.8,-61.8 0.5,0.4 0.9,-0.1 0.6,-0.3 0.6,-0.6 0.2,-1.1 -0.4,-1.5 -0.6,-1.3 -0.8,-1 -0.8,-0.2 -1,0.1 -0.2,0.1 -0.7,0.7 -0.3,0.8 0.1,0.9 0.1,0.3 0.7,0.7 0.8,0.2 1,-0.1 0.2,-0.1 0.7,-0.7 0.3,-0.8 -0.1,-0.9 m -3.3,6.2 -2.9,1.5 0.5,-3 -0.8,0.4 h -0.7 l -0.4,-0.1 -0.6,-0.7 -0.3,-0.6 -0.1,-0.9 0.3,-0.8 0.7,-0.7 0.8,-0.4 0.9,-0.1 0.4,0.2 0.5,0.4 m 12.4,22.1 0.2,-0.2 0.6,-0.3 h 0.4 l 0.7,0.2 0.9,0.9 0.2,0.6 v 0.4 l -0.2,0.7 -0.4,0.4 -0.7,0.2 -1,0.2 -4.3,0.1 3,2.9 m 6.5,-2.4 -0.8,-0.5 -1.1,0.3 -1.2,0.8 -0.6,0.7 -0.9,1.3 -0.2,1 0.5,0.9 0.4,0.4 0.9,0.4 1,-0.2 1.3,-0.9 0.6,-0.6 0.8,-1.3 0.2,-1.1 -0.4,-0.8 -0.3,-0.3 m -78.5,356.7 h 0.3 l 0.6,0.3 0.3,0.3 0.3,0.6 0.1,1.2 -0.3,0.6 -0.3,0.3 -0.6,0.3 h -0.6 l -0.6,-0.2 -0.9,-0.6 -3.1,-2.9 0.1,4.2 m 6.4,2.4 -0.3,-0.9 -0.6,-0.2 h -0.6 l -0.6,0.3 -0.3,0.6 -0.3,1.2 -0.2,0.9 -0.6,0.6 -0.6,0.4 h -0.9 l -0.6,-0.3 -0.3,-0.3 -0.3,-0.9 -0.1,-1.2 0.3,-0.9 0.3,-0.3 0.6,-0.3 h 0.9 l 0.6,0.2 0.6,0.6 0.3,0.9 0.4,1.2 0.3,0.6 0.6,0.3 0.6,-0.1 0.6,-0.3 0.3,-0.9 -0.1,-1.3 m 78,-7.7 1.7,-2.8 1.1,2.8 0.5,-0.8 0.6,-0.3 0.4,-0.1 0.9,0.2 0.5,0.3 0.6,0.7 0.2,0.8 -0.2,0.9 -0.4,0.8 -0.8,0.6 -0.4,0.1 h -0.6 m -0.5,-6.4 0.1,-0.7 -0.3,-1.2 5.4,3.2 m -70.1,60.9 3,-1.2 -0.7,2.9 0.8,-0.4 0.7,0.1 0.4,0.1 0.6,0.7 0.3,0.6 v 0.9 l -0.3,0.8 -0.7,0.6 -0.8,0.4 -1,0.1 -0.4,-0.2 -0.5,-0.4 m 4.6,-7.5 -0.7,0.6 -0.2,1.1 0.3,1.5 0.4,0.8 0.8,1.3 0.9,0.6 1,-0.1 0.5,-0.3 0.7,-0.6 0.2,-1 -0.3,-1.5 -0.3,-0.9 -0.9,-1.2 -0.9,-0.6 h -0.9 l -0.4,0.2 m 212.4,-323.2 -2.7,1.2 0.8,2.6 0.1,-0.4 0.7,-0.6 0.9,-0.4 h 0.9 l 0.8,0.3 0.6,0.7 0.3,0.5 0.1,1 -0.4,0.8 -0.7,0.6 -0.8,0.4 h -0.9 l -0.4,-0.1 -0.5,-0.5 m 6.5,-7.4 -0.5,-0.4 -0.9,0.1 -0.6,0.2 -0.7,0.7 -0.2,1 0.3,1.5 0.6,1.4 0.8,1 0.7,0.3 1,-0.1 0.3,-0.1 0.7,-0.6 0.3,-0.8 -0.1,-1 -0.1,-0.2 -0.6,-0.7 -0.8,-0.4 -1,0.1 -0.2,0.1 -0.8,0.7 -0.3,0.8 0.1,0.9 m -43.3,-203.8 0.1,0.7 0.7,0.6 0.6,0.2 h 0.9 l 0.9,-0.6 0.8,-1.3 0.6,-1.4 0.1,-1.2 -0.3,-0.8 -0.7,-0.6 -0.3,-0.1 h -1 l -0.7,0.3 -0.6,0.7 -0.2,0.3 v 1 l 0.3,0.7 0.8,0.6 0.3,0.2 h 0.9 l 0.8,-0.3 0.6,-0.8 m -9.3,0 0.1,0.7 0.7,0.6 0.6,0.2 h 0.9 l 0.9,-0.6 0.8,-1.3 0.6,-1.4 0.1,-1.2 -0.3,-0.8 -0.8,-0.6 -0.2,-0.1 -1,-0.1 -0.8,0.4 -0.6,0.7 -0.1,0.3 v 0.9 l 0.3,0.8 0.8,0.6 0.2,0.1 1,0.1 0.8,-0.4 0.6,-0.7 m -14.7,25.5 -5.6,-4.1 m 6.4,0 -0.8,4.1 m -1.7,4.5 0.6,-0.2 0.5,-0.8 0.1,-0.6 -0.2,-0.9 -0.7,-0.8 -1.5,-0.6 -1.4,-0.2 -1.3,0.1 -0.7,0.4 -0.4,0.9 -0.1,0.3 0.2,0.9 0.4,0.7 0.9,0.5 h 0.3 l 0.9,-0.1 0.7,-0.5 0.5,-0.8 v -0.3 l -0.1,-1 -0.5,-0.7 -0.8,-0.4 m 19.5,59.2 -1.9,-2.4 -2.3,1.5 h 0.5 l 0.7,0.5 0.6,0.7 0.3,0.9 -0.1,0.9 -0.5,0.8 -0.4,0.3 -0.9,0.4 -0.9,-0.1 -0.8,-0.5 -0.5,-0.8 -0.4,-0.8 0.1,-0.5 0.3,-0.6 m 9.8,4.2 -6.8,1.6 m 4.2,-4.9 2.6,3.3 m 67.7,-19.1 -0.7,-0.1 -1.2,0.2 3.7,-5.1 m -8,2.2 6.1,-3.3 m -2.7,5.7 -3.4,-2.4 m 3.2,75.9 -0.2,-0.7 -0.6,-1.1 6.1,1.7 m -5,-6.3 -0.8,2.9 2.5,1 -0.2,-0.4 -0.1,-0.9 0.3,-0.9 0.5,-0.8 0.7,-0.4 1,-0.1 0.6,0.2 0.8,0.5 0.4,0.8 v 0.9 l -0.2,0.9 -0.5,0.8 -0.4,0.2 -0.7,0.1 m -161.2,-111.6 -0.7,-6.9 m 4.3,4.7 -3.6,2.2 m -3.6,2.3 0.3,-5.1 -3.8,2.3 m 3.5,2.8 -3.3,-5.4 m 28.7,21.4 7,0.5 m -5.5,3.4 -1.5,-3.9 m -0.8,-4.8 -0.5,0.5 v 0.9 l 0.3,0.6 0.6,0.7 1,0.3 1.5,-0.3 1.4,-0.5 1,-0.7 0.4,-0.8 -0.1,-1 -0.1,-0.2 -0.6,-0.8 -0.7,-0.3 h -1 l -0.3,0.1 -0.7,0.6 -0.3,0.8 v 1 l 0.1,0.2 0.6,0.8 0.8,0.3 h 0.9 m -164.6,488.3 0.1,-0.3 0.5,-0.5 0.3,-0.2 0.7,-0.1 1.1,0.4 0.5,0.5 0.2,0.4 0.1,0.7 -0.2,0.5 -0.5,0.5 -0.8,0.7 -3.8,1.8 3.9,1.4 m 6.2,-2.4 -0.6,0.8 -0.8,0.4 -0.9,-0.1 -0.3,-0.1 -0.8,-0.5 -0.3,-0.8 v -0.9 l 0.1,-0.3 0.5,-0.8 0.8,-0.3 h 0.9 l 0.3,0.1 0.8,0.5 0.4,0.8 -0.1,1.2 -0.5,1.4 -0.8,1.4 -0.8,0.6 h -1 l -0.6,-0.2 -0.7,-0.5 -0.1,-0.7 m -3.2,-40 -0.1,0.3 -0.6,0.3 -0.4,0.1 h -0.7 l -1,-0.6 -0.4,-0.6 -0.1,-0.4 0.1,-0.7 0.3,-0.5 0.6,-0.4 1,-0.4 4.1,-1 -3.6,-2.2 m -5.5,4 0.9,0.2 0.5,-0.3 0.4,-0.6 v -0.6 l -0.3,-0.6 -0.9,-0.9 -0.6,-0.7 -0.2,-0.8 V 682 l 0.5,-0.8 0.6,-0.3 0.4,-0.1 0.9,0.2 1,0.6 0.6,0.7 0.1,0.5 v 0.6 l -0.5,0.8 -0.5,0.4 -0.9,0.2 -0.9,-0.3 -1.2,-0.3 -0.6,-0.1 -0.6,0.4 -0.3,0.5 -0.1,0.6 0.6,0.8 1.2,0.7 m -35.5,13.3 2.8,1.7 -2.8,1.1 0.8,0.5 0.3,0.6 0.1,0.4 -0.3,0.9 -0.3,0.5 -0.7,0.6 -0.8,0.2 -1,-0.3 -0.7,-0.5 -0.6,-0.7 -0.1,-0.4 0.1,-0.7 m 10.2,0.6 -2.5,-1.7 -1.7,2.2 0.4,-0.1 0.9,0.2 0.8,0.5 0.6,0.7 0.2,0.9 -0.3,0.9 -0.3,0.5 -0.7,0.6 -0.9,0.2 -0.9,-0.3 -0.7,-0.5 -0.6,-0.7 -0.1,-0.4 v -0.7 m 3.9,-23.1 -2.7,2 v -3 l -0.7,0.6 -0.7,0.1 h -0.4 l -0.8,-0.6 -0.3,-0.5 -0.3,-0.9 0.1,-0.8 0.5,-0.8 0.7,-0.5 0.9,-0.3 h 0.5 l 0.6,0.3 m -4.6,8.8 0.6,0.3 0.9,-0.3 0.4,-0.4 0.6,-0.8 -0.1,-1.1 -0.7,-1.3 -0.9,-1.2 -0.9,-0.8 -0.9,-0.1 -0.9,0.3 -0.2,0.2 -0.5,0.8 -0.2,0.8 0.4,0.9 0.1,0.2 0.8,0.6 0.9,0.1 0.9,-0.3 0.2,-0.2 0.5,-0.8 0.1,-0.8 -0.3,-0.9 m 332.7,-468.2 -0.2,-0.2 -0.3,-0.7 v -0.4 l 0.2,-0.6 0.9,-0.9 0.6,-0.2 h 0.4 l 0.7,0.2 0.4,0.4 0.2,0.6 0.2,1.1 0.1,4.2 2.9,-3 m -2.7,-4.2 0.2,-0.6 -0.1,-1.3 4.6,4.4 m -53.4,-43.5 0.4,-0.5 -0.1,-1 -0.3,-0.5 -0.6,-0.7 -1.1,-0.2 -1.5,0.4 -1.4,0.6 -0.9,0.8 -0.3,0.8 0.1,0.9 0.1,0.3 0.7,0.7 0.8,0.3 0.9,-0.1 0.3,-0.1 0.7,-0.7 0.3,-0.8 -0.1,-0.9 -0.2,-0.3 -0.6,-0.7 -0.8,-0.3 -1,0.1 m 6.7,6.5 0.4,-0.6 -0.1,-0.9 -0.2,-0.6 -0.7,-0.6 -1.1,-0.2 -1.4,0.4 -1.4,0.6 -1,0.8 -0.3,0.8 0.2,0.9 0.1,0.3 0.6,0.7 0.8,0.3 1,-0.1 0.2,-0.2 0.7,-0.6 0.3,-0.8 -0.1,-1 -0.1,-0.2 -0.7,-0.7 -0.8,-0.3 -0.9,0.1 m 7.9,-35.3 -4.1,-5.6 m 6.1,1.9 -2,3.7 m -1.9,3.8 -2.3,-4.6 -2.2,3.9 m 4.5,0.7 -5.6,-3 m 18.8,-1 6.9,-1.2 m -4.5,4.6 -2.4,-3.4 m -1,-1.4 -1.8,-2.7 3,0.1 -0.6,-0.8 v -0.6 -0.5 l 0.6,-0.7 0.5,-0.4 0.9,-0.2 0.8,0.1 0.8,0.6 0.5,0.7 0.3,0.9 -0.1,0.5 -0.3,0.5 m -203.1,59.6 -1,0.1 -0.8,-0.3 -0.6,-0.7 -0.1,-0.3 -0.1,-1 0.3,-0.7 0.7,-0.7 0.3,-0.1 0.9,-0.1 0.8,0.3 0.7,0.7 0.1,0.3 0.1,1 -0.4,0.7 -0.9,0.8 -1.4,0.6 -1.5,0.3 -1.1,-0.2 -0.6,-0.7 -0.2,-0.5 -0.1,-1 0.4,-0.5 m 65.9,2.5 0.4,-0.5 0.6,-1.1 2,6 m 2.5,-7.7 -2.9,1 0.6,2.6 0.1,-0.4 0.8,-0.5 0.9,-0.3 h 0.9 l 0.8,0.4 0.5,0.8 0.2,0.5 v 1 l -0.4,0.7 -0.7,0.6 -0.9,0.3 h -0.9 l -0.4,-0.2 -0.5,-0.5 m 51.3,-34.2 -0.4,-0.5 -1.2,-0.5 5.9,-2.2 m -6.9,-2.5 -0.5,0.5 0.1,0.9 0.2,0.6 0.6,0.7 1,0.3 1.5,-0.2 1.4,-0.6 1.1,-0.7 0.3,-0.7 v -1 l -0.1,-0.3 -0.6,-0.7 -0.8,-0.4 -0.9,0.1 -0.3,0.1 -0.8,0.6 -0.3,0.7 v 1 l 0.1,0.3 0.6,0.7 0.8,0.4 0.9,-0.1 m 144,22.4 -0.6,-0.2 -0.9,0.3 -0.5,0.4 -0.5,0.8 0.2,1.1 0.7,1.3 1,1.2 1,0.7 0.8,0.1 0.9,-0.4 0.2,-0.2 0.5,-0.8 0.1,-0.8 -0.4,-0.9 -0.2,-0.2 -0.8,-0.5 -0.8,-0.1 -0.9,0.4 -0.2,0.2 -0.5,0.8 -0.1,0.8 0.4,0.9 m 1.6,-6.9 2.5,-2.1 0.1,3 0.7,-0.6 0.7,-0.1 h 0.4 l 0.8,0.5 0.4,0.5 0.4,0.8 -0.1,0.9 -0.5,0.8 -0.7,0.6 -0.9,0.3 h -0.4 l -0.6,-0.3 m -20.9,-32.7 0.7,-7 m 3.3,5.6 -4,1.4 m -1.6,0.5 -3.1,1.2 0.9,-2.9 -0.9,0.3 -0.7,-0.1 -0.3,-0.2 -0.6,-0.7 -0.2,-0.6 -0.1,-0.9 0.4,-0.8 0.8,-0.6 0.8,-0.3 h 1 l 0.3,0.2 0.5,0.4 m 22.4,13.4 6.9,0.3 m -5.3,3.6 -1.6,-3.9 m -1.2,-2.7 0.6,0.7 1.1,0.2 1.5,-0.3 0.8,-0.3 1.3,-0.9 0.6,-0.9 -0.1,-1 -0.2,-0.5 -0.6,-0.7 -1.1,-0.2 -1.5,0.3 -0.8,0.3 -1.3,0.9 -0.6,0.9 0.1,1 0.2,0.4 m -344.9,452.7 -0.2,0.9 0.4,0.5 0.5,0.3 0.7,0.1 0.6,-0.4 0.8,-0.9 0.7,-0.7 0.8,-0.2 h 0.7 l 0.8,0.4 0.4,0.6 0.1,0.4 -0.2,0.9 -0.6,1.1 -0.7,0.6 -0.4,0.1 h -0.6 l -0.8,-0.4 -0.4,-0.6 -0.3,-0.8 0.2,-0.9 0.3,-1.2 0.1,-0.7 -0.4,-0.5 -0.5,-0.3 h -0.7 l -0.7,0.6 -0.7,1.2 m 3.4,-6.3 2.3,4.6 2.1,-3.9 m -4.4,-0.7 5.5,3 m -50.1,-7.5 -1,-0.1 -0.5,0.5 -0.2,0.5 v 0.7 l 0.5,0.5 0.9,0.8 0.8,0.6 0.3,0.8 v 0.6 l -0.3,0.9 -0.5,0.4 -0.4,0.2 -1,-0.1 -1.1,-0.5 -0.7,-0.6 -0.2,-0.4 v -0.7 l 0.4,-0.8 0.5,-0.4 0.8,-0.4 0.9,0.1 1.2,0.2 h 0.7 l 0.5,-0.5 0.2,-0.5 v -0.7 l -0.7,-0.6 -1.3,-0.5 m 3.1,2.8 h 0.7 l 1.1,-0.5 -2.4,5.8 m -21.3,-39.1 -3.9,-5.8 m 6.1,2.2 -2.2,3.6 m -1.3,2.3 0.2,-1 -0.4,-0.5 -0.5,-0.3 -0.7,-0.1 -0.5,0.4 -0.9,0.9 -0.7,0.6 -0.8,0.2 h -0.7 l -0.8,-0.5 -0.3,-0.5 -0.1,-0.4 0.2,-1 0.6,-1 0.7,-0.6 0.4,-0.1 h 0.7 l 0.7,0.5 0.4,0.5 0.2,0.8 -0.2,1 -0.3,1.2 -0.1,0.6 0.4,0.6 0.5,0.3 h 0.7 l 0.7,-0.6 0.7,-1.2"
       id="nums_003"
       stroke="#000000"
       stroke-width="1" />
    <path
       d="m 1351.5,640.6 -33.9,55.7 -26.7,15 -8.7,20 -35.7,15.2 -20.5,-7.6 -24.2,7.7 -4.3,-1.5 -14.6,-20.7 -18.3,6 -24.8,-16 -2.1,-19.2 8.6,-25.3 3.9,-3 26.7,-1.4 19.1,-5.9 27.6,16.8 3.4,19.7 -2,-58.7 -24.6,-42.6 -17.2,31.4 -24.6,5.7 -45.9,-19.5 -12.8,-21.8 29.8,-51.1 -8.6,-16.9 12.3,-25.7 18.5,-4.1 36.3,2.1 12.5,23.4 13.6,-5.9 35.2,14.9 -45.7,-19.4 -34.1,-28.6 -10,-17.6 10.4,-31.8 18.5,-8.4 -8.3,-19.6 13.9,-34.5 19.5,-8.5 -23.1,-7.9 -25.8,-39.6 2,-24.4 -15.2,-12.3 -0.5,-30.6 14.9,-12.7 -15.7,-15.7 -1.5,-39.6 14.4,-16.8 -19.4,-7.9 -13.3,-33 8.4,-19.1 31.1,-30.3 -35.2,22.8 -37.1,-38.9 34.9,-29.1 70.5,-0.2 23.1,-0.6 33.5,26.9 4.3,22.7 47.2,-32.4 57.4,-16.8 11.8,15.6 -6.8,30.2 -17.5,9 18.8,7.3 11.7,30.9 -9.2,17.9 21.6,15 1.7,4.5 -6.6,25.5 -36.5,21.4 v 0 l -88.8,19 -12.8,-3.6 v 0 l -8.8,-46.3 -13.2,-52.6 12.5,49.7 v 0 l -3.3,3.7 14.7,52.4 11,15.6 -8.3,27.5 -17.8,6.9 10.3,16.6 -9.6,28.9 -18.2,7.2 21.4,-7.3 38.2,16.1 9.8,20.4 -2,59.6 -1.1,49.5 0.8475,-38.13819 v 0 L 1303.4,415.9 l -7.9,-18.5 14,-29.7 19.2,-5.8 14.1,-15.5 3.2,-0.1 15,14.5 5.3,-10 v 0 l 29.3,-2.5 -36.6,3.1 -28.1,-15.9 -54.1,-52.3 6.5,-19.9 2.9,-1.4 19.5,7.2 -10.8,-22.1 0.9,-4.3 18.5,-16.2 43.2,-26.3 26,67.7 35,5.3 v 0 l 30.7,38.4 -49.3,-61.7 -11.8,-18.7 7.3,-39.2 17.7,-13.4 21.6,-7.7 3.6,1.4 10.7,20.2 -16.3,-34.9 -7.8,-17.1 13.1,-24.4 18.6,-2.9 26.8,38.4 14.8,-21.2 4.4,-1.6 24.9,7.1 16.9,40 -24.6,20.8 -38.6,39.9 42.1,30.9 -34.8,126.9 -28.2,12.2 17.8,6.7 8.7,27.5 -10.7,15.8 44.8,67.6 -46.4,14.9 36.1,-11.6 v 0 l 12.4,6.9 26,58.5 -22.2,29.8 16.9659,-1.52722 23.5494,18.09871 3.9847,17.62851 -10.1516,22.8155 -29.968,18.10873 L 1510.4,693.7 l -38.1,36.7 -21,-15.2 -16.4,-48.9 7.5,-24.8 -22.3,-16.5 -20.4,-53.3 5.7,-27.1 29.7,-55.2 -18.5,-61.7 1.2,19.5 -2,1.9 -19.4,-2.3 8.7,18.6 -12.8,31.5 -19.1,7.3 2.3,21.5 -23.2,30.3 -21.4,3.3 18.6,5.5 12,27.9 -8.9,17.3 z"
       id="coupes_003"
       stroke="#ff0000"
       stroke-width="1.27"
       sodipodi:nodetypes="cccccccccccccccccccccccccccccccccccccccccccccccccccccccccccccccccccccccccccccccccccccccccccccccccccccccccccccccccccccccccccccccccccccccccccccccccccccccccccccccccccccccccccccccccc" />
    <path
       d="m 1200.4,594.8 49.1,-67.5 m 0,0 81.4,32 m -81.4,-32 123.7,-23.1 m 0,0 -42.3,55.1 m -81.4,-32 42.1,-63.3 m 0,0 81.6,40.2 m -81.6,-40.2 104.8,-17.2 m -104.8,17.2 11.8,-48.1 m 0,0 93,30.9 m -93,-30.9 25.3,-54 m -128,156.4 48.8,9 m -49.1,67.5 -70.7,-55.3 m 22.2,-46.7 48.8,25.5 m 128,-156.4 32.3,-1.1 m 0,0 55.6,66.9 m -55.6,-66.9 34.6,-12.5 m 0,0 21,79.4 m -21,-79.4 64.7,58.3 m 0,0 15.8,50 m 0,0 -59.5,-28.9 m 59.5,28.9 -41,32.8 m 39.4,49.7 -39.4,-49.7 m 39.4,49.7 -69.1,5.5 m 69.1,-5.5 -32.1,102.4 m 0,0 -37,-96.9 m 69.1,-5.5 52.3,83.6 m 0,0 -84.4,18.8 m 32.1,-102.4 48.5,-4.7 m -192.1,24.9 -105.9,78.1 m 105.9,-78.1 21.7,50.7 m 0,0 -127.6,27.4 m 301.8,-14.7 -16.4,71 m 16.4,-71 44.5,34.2 -60.9,36.8 -68,-52.2 m 29.9,88.9 -29.9,-88.9 m -46.8,-293.2 -12.1,-80.4 m 0,0 76.8,138.7 m -76.8,-138.7 65.7,43.7 m 0,0 11.1,95 m -290.6,72.7 121.9,-15.3 m -121.9,15.3 18.9,-57.8 m 0,0 103,42.5 m -103,-42.5 104.1,-7 m -79,-55.6 79,55.6 m -79,-55.6 81,-4 m -81,4 11.6,-33.2 m -58.5,-38.7 58.5,38.7 m -58.5,-38.7 76,-14 m -76.8,-41.6 76.8,41.6 m -76,14 -0.8,-55.6 m 91.9,-8.4 -15.1,50 m -76.8,-41.6 91.9,-8.4 m -94.7,-63.7 80,11.3 m -9.2,-53.4 9.2,53.4 m -80,-11.3 70.8,-42.1 m -70.8,42.1 -24.3,-60 m 0,0 95.1,17.9 m 30,-44.6 -30,44.6 M 1138.9,99.3 1264,72.6 m 113.4,61.7 -143.4,-17.1 m 143.4,17.1 -130.2,35.5 m -44.1,-146.2 60.9,49 M 1170,69 1203.1,23.6 M 1170,69 1132.6,23.8 m 178.6,16.4 44.9,38 m 39.5,270.1 -81.3,-121.8 m 0,0 69.2,41.4 m -24.5,83.5 -44.7,-124.9 m -8.6,42.6 8.6,-42.6 m 44.7,124.9 -53.3,-82.3 m 25.2,66.4 -25.2,-66.4 m -28.9,14.1 28.9,-14.1 M 1352.6,610 1227,696.1 m 63.9,15.2 -63.9,-15.2 m 63.9,15.2 -64.9,27.6 m 0,0 1,-42.8 m 222.2,-384.5 39.3,82.8 m -39.3,-82.8 -0.2,-119.1 m 0.2,119.1 -36.1,-133 m 0,0 35.9,13.9 m -49.1,57.4 13.2,-71.3 m 35.9,13.9 32.2,44.1 M 1226,738.9 1182.9,724.4 m 0,0 44.1,-28.3 m -44.1,28.3 -6,-58.9 m 0,0 50.1,30.6 m -44.1,28.3 -45.2,-29.2 m 0,0 39.2,-29.7 m 272.1,-473 34.4,-40.9 m 0,0 -2.2,85 m 2.2,-85 36.4,45.1 m -87.1,-39.1 50.7,-6 m -50.7,6 23.9,-44.4 m -79.2,21.1 -108.6,85.4 m 0,0 -21.6,-49.9 m 146.9,9.5 -125.3,40.4 m 214.6,-68.1 61,24.3 m -61,-24.3 44.1,-15.7 m -344.3,490.3 -83.3,-35.6"
       id="plisM_003"
       stroke="#a52a2a"
       stroke-dasharray="4"
       sodipodi:nodetypes="cccccccccccccccccccccccccccccccccccccccccccccccccccccccccccccccccccccccccccccccccccccccccccccccccccccccccccccccccccccccccccccccccccccccccccccccccccccccccccccccccccccccccccccccccccccccccccccccccccccc" />
    <path
       d="m 1330.9,559.3 -130.5,35.5 m 196,-148 -23.2,57.4 m -44.5,-142.3 67.7,84.9 m -67.7,-84.9 87.9,65.8 m 0,0 -20.2,19.1 m -196,148 0.3,-76.5 m -71,21.2 71,-21.2 m -71,21.2 22.2,-46.7 m 308.4,-86.2 -43.7,21.1 m 59.5,28.9 -1.6,82.5 m 0,0 74.5,53.8 m -345.2,-85 87.8,-43.9 m -103,-42.5 25.1,-62.6 m 11.6,-33.2 69.4,29.2 m -81,4 -46.9,-71.9 m 76,-14 -17.5,52.7 m -62.1,-166.4 94.7,63.7 m -91.9,8.4 -2.8,-72.1 m 6.8,-90.3 94,3.6 m 0,0 92.1,5.6 m 0,0 -122.1,39 m 122.1,-39 21.3,56.1 M 1170,69 1097.7,52.9 m 270.9,-29.5 -12.5,54.8 m -3.5,531.8 -61.7,101.3 m 158.1,-518.8 39.5,201.9 m -7.3,-157.8 7.3,157.8 m -111.1,-260.1 16.7,45 m -210.9,446.9 -53.5,-86.7"
       id="plisV_003"
       stroke="#008000"
       stroke-dasharray="4, 1, 1, 1"
       stroke-width="1.27" />
    <path
       d="m 1263.6,575.1 4,4 m 0,-4 -4,4 m 119.2,-105.6 4,4 m 0,-4 -4,4 m -22.2,-75.1 4,4 m 0,-4 -4,4 m 10.1,-13.6 4,4 m 0,-4 -4,4 m 33.8,38.5 4,4 m 0,-4 -4,4 m -205.9,115.3 4,4 m 0,-4 -4,4 m -35.4,-31.7 4,4 m 0,-4 -4,4 m -24.4,-16.7 4,4 m 0,-4 -4,4 m 297.7,-103.1 4,4 m 0,-4 -4,4 m 36.8,76.7 4,4 m 0,-4 -4,4 m 36.4,64.2 4,4 m 0,-4 -4,4 m -264,-84.1 4,4 m 0,-4 -4,4 m -46.5,-99.7 4,4 m 0,-4 -4,4 m 58.8,-53.9 4,4 m 0,-4 -4,4 m -69.7,-21.3 4,4 m 0,-4 -4,4 m 43.8,-27.7 4,4 m 0,-4 -4,4 m -23.6,-112.2 4,4 m 0,-4 -4,4 m -45.9,0.2 4,4 m 0,-4 -4,4 m 52.4,-128.5 4,4 m 0,-4 -4,4 m 93,0.6 4,4 m 0,-4 -4,4 m -14.9,18.3 4,4 m 0,-4 -4,4 m 71.7,4.5 4,4 m 0,-4 -4,4 m -233,-49.2 4,4 m 0,-4 -4,4 m 228.6,-14.2 4,4 m 0,-4 -4,4 m -40.7,605.9 4,4 m 0,-4 -4,4 m 147.1,-371.2 4,4 m 0,-4 -4,4 m 16.1,18 4,4 m 0,-4 -4,4 m -99.1,-162.7 4,4 m 0,-4 -4,4 m -229.4,422 4,4 m 0,-4 -4,4"
       id="marqueV_003"
       stroke="#008000" />
    <path
       d="m 1338.8,395.9 h 8.2 l -4.5,6 h 2.3 l 1.5,0.7 0.7,0.8 0.8,2.2 v 1.5 l -0.8,2.3 -1.5,1.5 -2.2,0.7 h -2.3 l -2.2,-0.7 -0.8,-0.8 -0.7,-1.5"
       id="titre_3"
       stroke="#4b0082" />
  </g>
</svg>
