<?xml version="1.0" encoding="UTF-8" standalone="no"?>
<svg
   height="841.88977pt"
   viewBox="0 0 532.99998 754.00001"
   width="595.27557pt"
   version="1.1"
   id="svg1"
   sodipodi:docname="Tdy236_H40_A4x12.svg"
   inkscape:version="1.3 (0e150ed6c4, 2023-07-21)"
   xmlns:inkscape="http://www.inkscape.org/namespaces/inkscape"
   xmlns:sodipodi="http://sodipodi.sourceforge.net/DTD/sodipodi-0.dtd"
   xmlns="http://www.w3.org/2000/svg"
   xmlns:svg="http://www.w3.org/2000/svg">
  <defs
     id="defs1" />
  <sodipodi:namedview
     id="namedview1"
     pagecolor="#ffffff"
     bordercolor="#000000"
     borderopacity="0.25"
     inkscape:showpageshadow="2"
     inkscape:pageopacity="0.0"
     inkscape:pagecheckerboard="0"
     inkscape:deskcolor="#d1d1d1"
     inkscape:document-units="mm"
     showgrid="false"
     inkscape:zoom="0.14739696"
     inkscape:cx="4759.2569"
     inkscape:cy="573.28184"
     inkscape:window-width="1920"
     inkscape:window-height="1057"
     inkscape:window-x="-8"
     inkscape:window-y="-8"
     inkscape:window-maximized="1"
     inkscape:current-layer="svg1" />
  <style
     type="text/css"
     id="style1"><![CDATA[
			path {
				fill: none;
			}
		]]></style>
  <g
     id="page_001">
    <path
       d="m 152.7,315.6 v -1 l -0.5,-0.5 -0.5,-0.2 -0.7,0.1 -0.5,0.5 -0.7,1 -0.5,0.7 -0.8,0.4 -0.7,0.1 -0.8,-0.3 -0.5,-0.5 -0.2,-0.4 0.1,-0.9 0.4,-1.2 0.5,-0.7 0.4,-0.2 0.7,-0.1 0.8,0.3 0.5,0.5 0.4,0.8 -0.1,0.9 -0.1,1.3 0.1,0.6 0.5,0.5 0.5,0.2 0.7,-0.1 0.6,-0.7 0.4,-1.3 m 118.1,22.1 0.6,0.7 0.3,0.8 -0.1,0.9 -0.1,0.3 -0.7,0.7 -0.8,0.3 -1,-0.2 -0.2,-0.1 -0.7,-0.7 -0.3,-0.8 0.1,-0.9 0.2,-0.3 0.6,-0.6 0.8,-0.3 1.3,0.2 1.3,0.7 1.2,0.9 0.6,1 -0.2,0.9 -0.2,0.5 -0.7,0.7 h -0.7 m 162.2,-220 -0.1,-0.6 -0.6,-1.1 6.1,1.6 m -5.7,-4.2 0.1,0.9 0.5,0.5 0.6,0.1 0.6,-0.1 0.5,-0.5 0.5,-1.1 0.6,-0.8 0.7,-0.5 0.6,-0.1 0.9,0.2 0.5,0.5 0.2,0.3 0.1,1 -0.3,1.1 -0.5,0.8 -0.4,0.3 -0.6,0.1 -0.9,-0.2 -0.5,-0.5 -0.4,-0.7 -0.1,-0.9 V 117 l -0.1,-0.6 -0.5,-0.5 -0.6,-0.1 -0.7,0.1 -0.5,0.8 -0.3,1.3 m -41.6,-40 -0.4,0.5 -0.4,1.2 -2.8,-5.7 m -2.6,6.2 -0.1,-1 0.3,-0.8 0.6,-0.6 0.3,-0.2 1,-0.1 0.8,0.3 0.6,0.7 0.1,0.3 0.2,0.9 -0.3,0.8 -0.7,0.7 -0.3,0.1 -0.9,0.1 -0.8,-0.3 -0.8,-0.9 -0.7,-1.4 -0.3,-1.5 0.1,-1 0.7,-0.7 0.5,-0.3 1,-0.1 0.5,0.4 m 35,170.5 4.8,1.8 -1.1,-4.3 m -3.7,2.5 6.1,-1.6 m -5.4,-1.9 -0.3,0.1 -0.7,-0.1 -0.3,-0.2 -0.5,-0.5 -0.3,-1.2 0.2,-0.6 0.2,-0.4 0.5,-0.5 0.6,-0.1 0.6,0.1 1,0.4 3.7,2.1 -1.1,-4 m -48.2,19.4 -3.9,3.5 4.4,0.9 m -0.5,-4.4 -1.4,6.2 m 4.5,-5.4 3.2,0.7 -2.2,2 0.9,0.1 0.5,0.5 0.2,0.3 0.1,1 -0.1,0.6 -0.5,0.8 -0.7,0.4 -1,0.1 -0.9,-0.2 -0.8,-0.5 -0.2,-0.3 -0.2,-0.7 M 74.4,493.3 v 0.7 l 0.4,1.2 -5.6,-2.9 m 4.5,5.6 0.1,-0.9 -0.5,-1 -1.2,-0.9 -0.8,-0.4 -1.5,-0.4 -1.1,0.1 -0.7,0.7 -0.2,0.5 -0.2,0.9 0.6,1 1.2,0.9 0.8,0.4 1.5,0.4 1,-0.1 0.7,-0.7 0.2,-0.4 m 122.9,25.2 -0.7,0.1 -0.5,0.8 -0.2,0.6 v 0.9 l 0.7,0.8 1.4,0.8 1.4,0.4 1.3,0.1 0.7,-0.4 0.6,-0.8 v -0.3 -1 l -0.4,-0.7 -0.8,-0.6 h -0.2 -1 l -0.7,0.4 -0.6,0.8 -0.1,0.2 v 1 l 0.4,0.7 0.8,0.6 m -78.9,119.2 -0.3,5.1 3.8,-2.4 m -3.5,-2.7 3.4,5.3 M 54,633.8 l -1.5,-2.6 -2.5,1 0.4,0.2 0.7,0.6 0.5,0.8 0.2,0.9 -0.3,0.8 -0.6,0.7 -0.6,0.3 -0.9,0.2 -0.8,-0.2 -0.7,-0.7 -0.4,-0.8 -0.2,-0.9 0.1,-0.4 0.4,-0.6 m 101.5,-476.6 0.5,0.4 1.2,0.5 -5.7,2.6 m 5.3,-0.6 0.2,-0.1 h 0.7 l 0.4,0.1 0.5,0.5 0.5,1 v 0.7 l -0.1,0.4 -0.4,0.5 -0.6,0.3 h -0.6 l -1.1,-0.2 -4,-1.4 1.8,3.8 m 7.7,1.6 -1.3,-2.7 -2.6,0.9 0.4,0.1 0.7,0.7 0.4,0.8 0.1,0.9 -0.3,0.8 -0.7,0.7 -0.5,0.2 -1,0.2 -0.8,-0.3 -0.6,-0.7 -0.4,-0.8 -0.1,-1 0.1,-0.4 0.4,-0.5 M 270.6,83.2 270,83 h -1.3 l 4.4,-4.5 m -5.8,3.5 -2.4,-2.3 3,-0.5 -0.7,-0.6 -0.2,-0.7 v -0.4 l 0.4,-0.8 0.4,-0.5 0.9,-0.4 h 0.8 l 0.9,0.4 0.6,0.6 0.5,0.8 v 0.5 l -0.2,0.6 m -6.7,-1.5 -0.3,0.3 -0.6,0.2 h -0.4 l -0.6,-0.2 -0.9,-0.8 -0.2,-0.7 v -0.4 l 0.2,-0.6 0.4,-0.5 0.6,-0.2 1.1,-0.2 4.2,-0.1 -3,-2.9 M 186,32.9 l -0.7,0.2 -1,0.6 1.4,-6.1 m -2.2,4.7 -0.7,0.2 -1,0.7 1.4,-6.2 m -4.1,5.7 h 1 l 0.4,-0.6 0.1,-0.5 -0.1,-0.7 -0.5,-0.4 -1.1,-0.6 -0.8,-0.5 -0.5,-0.7 -0.1,-0.7 0.2,-0.8 0.4,-0.6 0.4,-0.2 0.9,-0.1 1.2,0.3 0.8,0.5 0.2,0.4 0.2,0.6 -0.2,0.9 -0.5,0.5 -0.7,0.5 -0.9,0.1 h -1.3 l -0.6,0.1 -0.5,0.5 -0.1,0.6 0.2,0.7 0.8,0.5 1.3,0.3 m -45.8,23.2 -0.1,-0.9 -0.6,-0.4 -0.6,-0.1 -0.6,0.2 -0.4,0.5 -0.5,1.1 -0.5,0.9 -0.7,0.5 -0.6,0.1 -0.9,-0.1 -0.5,-0.4 -0.3,-0.4 -0.1,-0.9 0.2,-1.2 0.5,-0.8 0.3,-0.3 0.6,-0.1 0.9,0.1 0.6,0.4 0.5,0.7 0.1,0.9 0.1,1.3 0.2,0.6 0.5,0.4 0.6,0.1 0.6,-0.2 0.5,-0.8 0.2,-1.3 m -3.4,7.4 -0.8,-0.5 -0.5,-0.7 -0.2,-0.9 0.1,-0.3 0.4,-0.8 0.7,-0.5 1,-0.2 0.3,0.1 0.8,0.5 0.5,0.6 0.1,1 v 0.3 l -0.5,0.8 -0.7,0.5 -1.2,0.1 -1.5,-0.3 -1.4,-0.5 -0.8,-0.8 -0.1,-0.9 0.1,-0.6 0.4,-0.8 0.7,-0.2 m 284.8,234.3 3.1,-4.1 -4.5,-0.2 m 1.4,4.3 0.2,-6.3 m -2.7,4.7 -0.7,0.3 -0.9,0.8 0.3,-6.3 m -61.9,69.1 -1.1,3.1 -1.7,-2.5 -0.3,0.8 -0.5,0.5 -0.4,0.2 -0.9,-0.1 -0.6,-0.2 -0.7,-0.6 -0.4,-0.7 0.1,-1 0.3,-0.8 0.6,-0.8 0.4,-0.1 0.6,-0.1 m 1.4,6.7 0.3,0.1 0.4,0.5 0.2,0.4 0.1,0.7 -0.4,1.1 -0.5,0.5 -0.4,0.1 -0.7,0.1 -0.5,-0.2 -0.5,-0.5 -0.6,-0.9 -1.8,-3.8 -1.5,3.9 m 115.4,68.5 -0.1,-3.3 2.4,1.7 v -0.9 l 0.3,-0.6 0.3,-0.4 0.9,-0.3 h 0.6 l 0.9,0.3 0.6,0.5 0.3,0.9 0.1,0.9 -0.3,0.9 -0.3,0.3 -0.6,0.4 m -5.4,-8.8 0.1,3 2.7,0.2 -0.3,-0.3 -0.3,-0.9 -0.1,-0.9 0.3,-0.9 0.6,-0.6 0.9,-0.3 h 0.6 l 0.9,0.2 0.6,0.6 0.3,0.9 0.1,0.9 -0.3,0.9 -0.3,0.3 -0.6,0.3 m -121,72.1 0.9,3.1 -2.8,-1.1 0.2,0.9 -0.1,0.7 -0.2,0.3 -0.8,0.6 -0.6,0.1 h -0.9 l -0.8,-0.4 -0.5,-0.8 -0.3,-0.9 0.1,-0.9 0.2,-0.4 0.5,-0.5 m 7.2,6.8 -4.8,-1.7 1.2,4.3 m 3.6,-2.6 -6,1.7 m 113.6,93.6 1,-3.2 1.8,2.5 0.2,-0.9 0.5,-0.5 0.4,-0.2 h 0.9 l 0.6,0.2 0.7,0.5 0.4,0.8 0.1,0.9 -0.3,0.9 -0.5,0.7 -0.4,0.2 -0.7,0.2 m -0.1,-9.8 0.7,0.6 0.4,0.7 v 1 0.3 l -0.6,0.7 -0.7,0.4 -1,0.1 -0.3,-0.1 -0.7,-0.6 -0.4,-0.7 -0.1,-1 0.1,-0.3 0.6,-0.7 0.7,-0.4 h 1.3 l 1.4,0.5 1.3,0.7 0.7,0.8 v 1 l -0.1,0.6 -0.6,0.7 -0.6,0.1 m -66.7,69.7 2.6,-2 v 3 l 0.7,-0.5 0.7,-0.2 0.4,0.1 0.8,0.5 0.3,0.5 0.4,0.9 -0.2,0.8 -0.5,0.8 -0.7,0.6 -0.9,0.3 -0.4,-0.1 -0.6,-0.3 m 2.3,-8.2 -0.5,0.8 0.1,0.7 0.4,0.4 0.6,0.3 0.7,-0.1 1.1,-0.5 0.9,-0.3 0.8,0.1 0.6,0.3 0.6,0.8 0.1,0.6 -0.1,0.4 -0.5,0.8 -1,0.7 -0.9,0.3 h -0.4 l -0.6,-0.3 -0.5,-0.7 -0.1,-0.7 0.1,-0.8 0.5,-0.8 0.8,-1 0.3,-0.6 -0.1,-0.6 -0.4,-0.5 -0.6,-0.3 -0.9,0.3 -1.1,0.8 m -125.1,43.1 3.3,-0.2 -1.6,2.5 0.9,-0.1 0.6,0.3 0.3,0.3 0.4,0.8 v 0.6 l -0.2,1 -0.5,0.6 -0.9,0.4 h -0.9 l -0.9,-0.2 -0.4,-0.3 -0.3,-0.5 m 5.5,-5.6 3.3,-0.2 -1.6,2.5 0.9,-0.1 0.6,0.3 0.3,0.3 0.4,0.8 0.1,0.6 -0.3,1 -0.5,0.6 -0.9,0.4 h -0.9 l -0.9,-0.2 -0.3,-0.3 -0.4,-0.5 m 10.2,-115 -3.2,0.5 1.4,-2.6 -0.9,0.1 -0.6,-0.2 -0.4,-0.2 -0.4,-0.9 -0.1,-0.6 0.2,-0.9 0.5,-0.7 0.8,-0.4 0.9,-0.2 0.9,0.2 0.4,0.3 0.4,0.5 m -7.7,6.4 2.4,-4.6 -4.5,0.6 m 2.1,4 -0.9,-6.3 M 142,712.5 v -0.3 l 0.4,-0.6 0.3,-0.3 0.6,-0.3 h 1.2 l 0.6,0.3 0.3,0.4 0.2,0.6 v 0.6 l -0.3,0.6 -0.6,0.8 -3,3 4.2,0.1 m 1.1,-4.9 0.6,-0.3 0.9,-0.9 v 6.3 m 9.1,-56.2 -2.2,2.4 -0.6,-2.9 -0.6,0.7 -0.6,0.2 -0.4,0.1 -0.9,-0.4 -0.4,-0.4 -0.5,-0.8 -0.1,-0.9 0.4,-0.8 0.6,-0.7 0.8,-0.5 h 0.4 l 0.7,0.1 m -1.2,6.8 0.2,0.2 0.3,0.6 v 0.5 l -0.2,0.6 -0.8,0.9 -0.6,0.3 h -0.4 l -0.7,-0.2 -0.4,-0.4 -0.3,-0.6 -0.2,-1 -0.3,-4.3 -2.8,3.2"
       id="nums_001"
       stroke="#000000"
       stroke-width="1" />
    <path
       d="m 308.7,110.3 154.7,-73.8 -43,167.4 19.9,75.4 -121.2,-27 -87,178.6 L 174.3,622.1 73.4,686 19.2,587.8 113.9,399.6 175.2,227.9 116.8,103.2 l 15.9,-90 99.7,23.7 z m 157.5,454.1 -20.9,68.4 -100.4,76 -147,11.1 -102.1,-1.1 105,-118.7 149.5,-22.6 -40.4,-145.8 54.6,-148.7 91.2,4.1 z"
       id="coupes_001"
       stroke="#ff0000"
       stroke-width="1.27"
       sodipodi:nodetypes="cccccccccccccccccccccccccc" />
    <path
       d="m 175.2,227.9 56.9,203 m 0,0 -118.2,-31.3 m 61.3,-171.7 143.9,24.4 m -10.4,-142 10.4,142 M 175.2,227.9 308.7,110.3 m 0,0 111.7,93.6 M 174.3,622.1 19.2,587.8 m 97.6,-484.6 191.9,7.1 m 147,176.8 -145.8,144.6 M 466.2,564.4 309.9,431.7 m 156.3,132.7 -115.9,13.1 m 95,55.3 -95,-55.3 m -5.4,131.3 5.4,-131.3 M 197.9,719.9 350.3,577.5 m -152.4,142.4 2.9,-119.8"
       id="plisM_001"
       stroke="#a52a2a"
       stroke-dasharray="4" />
    <path
       d="M 420.4,203.9 319.1,252.3 M 232.1,430.9 19.2,587.8 M 116.8,103.2 232.4,36.9"
       id="plisV_001"
       stroke="#008000"
       stroke-dasharray="4, 1, 1, 1"
       stroke-width="1.27" />
    <path
       d="m 367.8,226.1 4,4 m 0,-4 -4,4 m -244.2,277.2 4,4 m 0,-4 -4,4 m 49,-443.2 4,4 m 0,-4 -4,4"
       id="marqueV_001"
       stroke="#008000" />
    <path
       d="m 239.9,294.8 1.5,-0.7 2.2,-2.3 v 15.8"
       id="titre_1"
       stroke="#4b0082" />
    <path
       d="m 370.9,515.9 v -0.7 l 0.8,-1.5 0.7,-0.8 1.5,-0.7 h 3 l 1.5,0.7 0.8,0.8 0.7,1.5 v 1.5 l -0.7,1.5 -1.5,2.2 -7.5,7.5 h 10.5"
       id="titre_2"
       stroke="#4b0082" />
  </g>
  <g
     id="page_002">
    <path
       d="m 679.5,472 -0.4,-0.6 -0.9,-0.9 6.3,-0.3 m -116.2,11.6 0.2,0.6 0.7,1.1 -6.2,-1.1 m 4.8,1.9 0.2,0.7 0.7,1 -6.2,-1.1 m 7.1,-220.4 0.4,0.5 1,0.9 -6.3,0.5 m 5.1,1.2 h 0.3 l 0.7,0.2 0.3,0.3 0.3,0.6 0.2,1.2 -0.3,0.6 -0.3,0.3 -0.5,0.4 h -0.6 l -0.7,-0.2 -0.9,-0.5 -3.3,-2.7 0.4,4.1 m 90.4,-18.4 -0.4,-3.2 2.6,1.4 -0.1,-0.9 0.2,-0.6 0.2,-0.4 0.9,-0.4 0.6,-0.1 0.9,0.2 0.7,0.5 0.4,0.9 0.1,0.9 -0.1,0.9 -0.3,0.3 -0.6,0.4 m -6,-6.4 0.4,0.9 1,0.5 h 1.5 l 0.9,-0.1 1.5,-0.5 0.8,-0.7 0.2,-0.9 -0.1,-0.6 -0.4,-0.9 -1,-0.4 -1.5,-0.1 -0.9,0.1 -1.5,0.5 -0.8,0.7 -0.2,0.9 0.1,0.5 M 572,78.6 l -3.5,-3.8 -1,4.4 m 4.5,-0.6 -6.2,-1.3 m 41.9,-2.4 -0.6,-0.4 -1.2,-0.2 5.2,-3.6 m -6.4,2.3 -1.9,-2.7 3,0.1 -0.5,-0.7 -0.1,-0.7 0.1,-0.4 0.6,-0.8 0.5,-0.3 0.9,-0.3 0.8,0.2 0.8,0.5 0.5,0.8 0.3,0.9 -0.1,0.4 -0.3,0.6 m -9.1,543.7 -0.8,-0.5 -1.1,0.1 -1.4,0.7 -0.6,0.6 -1,1.2 -0.3,1 0.3,0.9 0.4,0.5 0.8,0.5 1.1,-0.1 1.3,-0.8 0.7,-0.5 1,-1.2 0.3,-1.1 -0.3,-0.9 -0.3,-0.3 m 129.9,-9.6 -0.7,-0.2 -1.3,0.1 4.1,-4.8 m -8.2,1.6 6.4,-2.8 m -3.2,5.6 -3.2,-2.8 m -19.4,89.6 0.1,-0.3 0.5,-0.4 0.3,-0.2 0.7,-0.1 1.1,0.3 0.5,0.5 0.2,0.4 0.1,0.7 -0.2,0.5 -0.5,0.5 -0.8,0.7 -3.8,1.9 4,1.3 m 54.6,-20.2 0.1,-3.3 2.3,1.9 0.1,-0.9 0.3,-0.6 0.3,-0.3 1,-0.2 h 0.6 l 0.8,0.4 0.6,0.6 0.3,0.9 -0.1,0.9 -0.4,0.9 -0.3,0.3 -0.6,0.3 m 60.6,-552.8 -0.6,0.2 -1.1,0.8 1.1,-6.2 m -3.7,5.9 0.9,-0.1 0.4,-0.6 0.1,-0.6 -0.2,-0.6 -0.5,-0.4 -1.1,-0.5 -0.9,-0.5 -0.4,-0.7 -0.2,-0.6 0.1,-0.9 0.4,-0.6 0.4,-0.2 0.9,-0.1 1.2,0.2 0.8,0.4 0.3,0.4 0.2,0.6 -0.2,0.9 -0.4,0.6 -0.7,0.4 -0.9,0.2 -1.3,0.1 -0.6,0.1 -0.4,0.6 -0.1,0.6 0.2,0.6 0.8,0.5 1.3,0.2 m 138.1,70.3 6.6,-2.3 m -3.6,5.3 -3,-3 m -247.2,-69.2 0.5,-5.2 -3.9,2.3 m 3.4,2.9 -3.2,-5.5 m -1.8,8.4 0.5,-5.2 -3.9,2.3 m 3.4,2.9 -3.2,-5.4 m 18.6,149.2 -4.2,3.1 4.3,1.3 m -0.1,-4.4 -1.9,6 m 8.2,-4 -4.7,5.1 m 0.7,-6.3 4,1.2 m -45.8,-74.5 -4.2,-3 0.1,4.5 m 4.1,-1.5 -6.3,0.1 m 6.3,4 -0.3,-0.9 -0.6,-0.3 h -0.6 l -0.6,0.3 -0.3,0.6 -0.2,1.2 -0.3,1 -0.6,0.6 -0.6,0.3 h -0.9 l -0.6,-0.3 -0.3,-0.3 -0.3,-0.9 -0.1,-1.2 0.3,-0.9 0.3,-0.3 0.6,-0.3 h 0.9 l 0.6,0.3 0.6,0.6 0.3,0.8 0.4,1.2 0.3,0.6 0.6,0.3 h 0.6 l 0.6,-0.3 0.3,-0.9 -0.1,-1.3 m 160.5,172.6 -0.1,-0.3 -0.2,-0.6 0.1,-0.4 0.2,-0.6 1,-0.8 0.6,-0.1 h 0.5 l 0.6,0.3 0.3,0.5 0.2,0.6 0.1,1.1 -0.5,4.2 3.3,-2.6 m 0.3,-7.2 -0.6,-0.3 -0.9,0.3 -0.4,0.4 -0.6,0.8 0.1,1.1 0.7,1.4 1,1.1 1,0.8 0.8,0.1 0.9,-0.4 0.2,-0.2 0.5,-0.8 0.1,-0.8 -0.3,-0.9 -0.2,-0.2 -0.8,-0.5 -0.8,-0.1 -0.9,0.3 -0.2,0.2 -0.6,0.8 -0.1,0.8 0.4,0.9 m -154.7,-11.9 -0.5,-2.9 -2.8,0.2 0.4,0.2 0.5,0.8 0.1,0.9 -0.1,0.9 -0.5,0.7 -0.8,0.5 -0.6,0.1 -0.9,-0.1 -0.7,-0.5 -0.5,-0.8 -0.2,-0.9 0.2,-0.9 0.2,-0.4 0.5,-0.4 m 6.4,6.1 -0.5,-0.8 -1,-0.5 h -1.5 l -0.9,0.2 -1.4,0.6 -0.8,0.7 -0.1,1 0.1,0.5 0.4,0.9 1,0.4 h 1.6 l 0.8,-0.2 1.5,-0.5 0.7,-0.8 0.2,-0.9 -0.1,-0.5 m 26.8,-67.3 3.4,-3.9 -4.5,-0.4 m 1.1,4.3 0.6,-6.3 m -7.2,5.6 3.5,-6 m 0.7,6.4 -4.2,-0.4 m -10.2,197.8 -3.9,-3.4 -0.4,4.5 m 4.3,-1.1 -6.3,-0.6 m 5.8,5 -0.2,-0.9 -0.8,-0.7 -1.5,-0.4 -0.9,-0.1 -1.5,0.2 -1,0.5 -0.3,0.8 -0.1,0.6 0.2,1 0.8,0.6 1.5,0.5 0.9,0.1 1.5,-0.2 1,-0.5 0.4,-0.9 v -0.4 m 30.5,38.9 3.2,-0.1 -1.6,2.5 0.9,-0.1 0.6,0.3 0.3,0.3 0.3,0.8 0.1,0.6 -0.3,1 -0.6,0.6 -0.8,0.3 -0.9,0.1 -0.9,-0.3 -0.4,-0.3 -0.3,-0.5 m 9.1,-5.6 -2.6,6.4 m -1.6,-6.2 4.2,-0.2 m 68.4,9 0.2,-0.2 0.5,-0.5 0.4,-0.1 0.6,-0.1 1.1,0.5 0.5,0.5 0.1,0.4 0.1,0.7 -0.3,0.5 -0.5,0.5 -0.9,0.6 -4,1.5 3.9,1.7 m 7.3,-3.7 -5.3,4.6 m 1.4,-6.3 3.9,1.7 m 48.1,-146.3 0.1,0.3 -0.2,0.6 -0.2,0.4 -0.4,0.5 -1.2,0.3 -0.7,-0.1 -0.3,-0.2 -0.5,-0.5 -0.2,-0.6 0.2,-0.6 0.3,-1.1 2,-3.7 -4,1.2 m -3,6.5 0.4,0.5 h 1 l 0.5,-0.1 0.8,-0.6 0.3,-1 -0.1,-1.5 -0.4,-1.5 -0.7,-1 -0.7,-0.4 -1,-0.1 -0.3,0.1 -0.7,0.6 -0.4,0.7 -0.1,1 0.1,0.3 0.6,0.7 0.7,0.4 1,0.1 0.3,-0.1 0.7,-0.6 0.4,-0.7 0.1,-1 m 85.3,36.2 -0.2,0.2 h -0.7 l -0.4,-0.1 -0.6,-0.4 -0.6,-1 v -0.7 l 0.1,-0.4 0.3,-0.5 0.6,-0.3 0.6,-0.1 1.1,0.1 4.1,1 -2.1,-3.6 m -7.7,-0.4 5.2,0.4 -2.3,-3.9 m -2.9,3.5 5.5,-3.2 m -45.9,91.6 -0.2,-0.2 v -0.7 l 0.1,-0.4 0.3,-0.6 1.1,-0.6 0.6,-0.1 0.4,0.1 0.6,0.4 0.3,0.5 0.1,0.7 -0.1,1.1 -1,4.1 3.6,-2.2 m 0.8,-7.8 -2.6,1.5 1.2,2.5 0.1,-0.4 0.6,-0.7 0.8,-0.5 0.9,-0.2 0.8,0.2 0.7,0.6 0.3,0.5 0.2,0.9 -0.2,0.9 -0.6,0.7 -0.7,0.4 -1,0.3 -0.4,-0.1 -0.5,-0.4 m 49.1,-190 0.6,-0.3 0.9,-0.9 v 6.3 m 4.7,-6.5 h -3 l -0.3,2.7 0.3,-0.3 0.9,-0.3 h 0.9 l 0.9,0.3 0.6,0.6 0.3,0.9 v 0.6 l -0.3,0.9 -0.6,0.6 -0.9,0.3 h -0.9 l -0.9,-0.3 -0.3,-0.3 -0.3,-0.6 m 56.6,-38.7 -0.3,-0.6 -0.9,-0.9 h 6.3 m -5.6,-4.8 -0.6,0.3 -0.3,0.9 v 0.6 l 0.3,0.9 0.9,0.7 1.5,0.3 h 1.5 l 1.2,-0.3 0.6,-0.6 0.3,-0.9 v -0.3 l -0.3,-0.9 -0.6,-0.6 -0.9,-0.3 h -0.3 l -0.9,0.3 -0.6,0.6 -0.3,0.9 v 0.3 l 0.3,0.9 0.6,0.6 0.9,0.3"
       id="nums_002"
       stroke="#000000"
       stroke-width="1" />
    <path
       d="m 577,18.2 68.3,99.2 36.1,260.8 9.6,184.4 81.3,69 -5,87.2 -125.4,-41.2 -95.2,-115 28.8,-159.1 -24.6,-268.8 z m 332.5,114.8 116.9,116.2 -0.4,91.4 -123.9,-0.2 -97.7,78.4 120,-35.9 59.4,100.6 -142.4,85.7 -51.1,-22.3 -96.8,4.9 9.8,-104.6 -29.8,-159.4 97,8.8 -92.9,-29.3 -2.2,-127.8 64.1,-37.7 z"
       id="coupes_002"
       stroke="#ff0000"
       stroke-width="1.27"
       sodipodi:nodetypes="cccccccccccccccccccccccccccc" />
    <path
       d="M 575.5,403.5 681.4,378.2 M 550.9,134.7 681.4,378.2 m 9.6,184.4 -49.1,115 m 130.4,-46 -130.4,46 M 909.5,133 770.5,296.6 m 0,0 -31,-194.8 M 902.1,340.4 770.5,296.6 m 139,-163.6 -7.4,207.4 m -97.7,78.4 -33.9,-122.2 m 33.9,122.2 -101.1,28.4 m 87,99.7 -87,-99.7 m 101.1,-28.4 -14.1,128.1 m 14.1,-128.1 37,150.4"
       id="plisM_002"
       stroke="#a52a2a"
       stroke-dasharray="4" />
    <path
       d="M 546.7,562.6 681.4,378.2 M 691,562.6 H 546.7 m 4.2,-427.9 94.4,-17.3 m 381.1,131.8 -124.3,91.2 M 770.5,296.6 675.4,139.5 m 27.9,307.7 67.2,-150.6 m 153.9,86.3 -83,186.3"
       id="plisV_002"
       stroke="#008000"
       stroke-dasharray="4, 1, 1, 1"
       stroke-width="1.27" />
    <path
       d="m 612,468.4 4,4 m 0,-4 -4,4 m 4.9,88.2 4,4 m 0,-4 -4,4 m -20.8,-440.5 4,4 m 0,-4 -4,4 m 366.2,164.7 4,4 m 0,-4 -4,4 M 721,216 l 4,4 m 0,-4 -4,4 m 13.9,149.9 4,4 m 0,-4 -4,4 m 146,100.2 4,4 m 0,-4 -4,4"
       id="marqueV_002"
       stroke="#008000" />
    <path
       d="m 597.1,435.7 h 8.3 l -4.5,6 h 2.2 l 1.5,0.8 0.8,0.7 0.7,2.3 v 1.5 l -0.7,2.2 -1.5,1.5 -2.3,0.8 h -2.2 l -2.3,-0.8 -0.7,-0.7 -0.8,-1.5"
       id="titre_3"
       stroke="#4b0082" />
    <path
       d="m 827.5,339.4 -7.5,10.5 h 11.2 m -3.7,-10.5 v 15.7"
       id="titre_4"
       stroke="#4b0082" />
  </g>
  <g
     id="page_003">
    <path
       d="m 1348.1,119.6 -3.3,-0.2 1.9,-2.3 h -0.9 l -0.5,-0.3 -0.3,-0.4 -0.3,-0.9 0.1,-0.6 0.3,-0.9 0.6,-0.5 1,-0.3 0.9,0.1 0.8,0.3 0.3,0.3 0.3,0.6 m -6.2,4.8 -3.3,-0.1 1.9,-2.4 h -0.9 l -0.6,-0.3 -0.2,-0.3 -0.3,-1 v -0.6 l 0.4,-0.8 0.6,-0.6 0.9,-0.3 0.9,0.1 0.9,0.3 0.3,0.3 0.3,0.7 m 91.2,82.7 -0.3,0.1 -0.6,-0.1 -0.4,-0.2 -0.5,-0.5 -0.3,-1.1 0.1,-0.7 0.2,-0.4 0.5,-0.4 0.6,-0.2 0.7,0.1 1,0.3 3.7,2.1 -1.2,-4.1 m -6.5,0.2 -1,-3.2 2.9,1.1 -0.3,-0.9 0.1,-0.7 0.2,-0.3 0.8,-0.6 0.6,-0.2 0.9,0.1 0.8,0.4 0.5,0.8 0.3,0.8 -0.1,1 -0.2,0.3 -0.5,0.5 m -123.5,150.9 0.3,0.1 0.5,0.4 0.3,0.4 0.1,0.6 -0.2,1.2 -0.5,0.5 -0.3,0.3 -0.7,0.1 -0.6,-0.1 -0.5,-0.4 -0.7,-0.8 -2.3,-3.6 -0.9,4.1 m 4.3,2.7 h 0.3 l 0.5,0.5 0.2,0.3 0.2,0.7 -0.3,1.1 -0.4,0.6 -0.4,0.2 -0.6,0.1 -0.6,-0.1 -0.5,-0.4 -0.8,-0.8 -2.2,-3.6 -1,4.1 m 165.6,-1.1 4.7,2 -0.9,-4.4 m -3.8,2.4 6.1,-1.4 m -7.4,-4.7 0.6,2.9 2.8,-0.3 -0.4,-0.2 -0.5,-0.8 -0.2,-0.9 0.1,-0.9 0.5,-0.7 0.8,-0.5 0.6,-0.2 0.9,0.1 0.7,0.5 0.5,0.8 0.2,0.9 -0.1,0.9 -0.2,0.4 -0.5,0.4 m -44.4,79 3.3,-0.5 -1.5,2.6 0.9,-0.1 0.6,0.2 0.3,0.3 0.5,0.9 v 0.6 l -0.1,0.9 -0.5,0.7 -0.9,0.4 -0.9,0.1 -0.9,-0.2 -0.4,-0.2 -0.3,-0.6 m 4.7,-4.4 0.5,-0.3 0.8,-1 0.9,6.2 m -174.1,-161 -0.1,-0.2 -0.1,-0.7 0.1,-0.4 0.3,-0.6 1.1,-0.6 0.6,-0.1 0.4,0.1 0.6,0.4 0.3,0.5 0.1,0.7 v 1.1 l -1,4.1 3.5,-2.2 m -0.7,-6.9 -0.7,0.7 v 1.1 l 0.5,1.4 0.5,0.8 1.1,1.1 0.9,0.5 1,-0.3 0.5,-0.3 0.6,-0.7 v -1.1 l -0.5,-1.4 -0.5,-0.8 -1,-1.1 -1,-0.5 -0.9,0.3 -0.4,0.2 m -43.6,-173.6 -0.2,0.2 -0.5,0.4 -0.4,0.1 h -0.7 l -1,-0.6 -0.4,-0.5 -0.1,-0.4 v -0.7 l 0.3,-0.5 0.6,-0.4 0.9,-0.5 4.1,-1.2 -3.7,-2 m -3.3,3.7 h -0.7 l -1.2,0.3 3.1,-5.5 m -94.5,216 h 0.3 l 0.6,0.1 0.4,0.3 0.4,0.5 0.2,1.2 -0.1,0.6 -0.3,0.4 -0.5,0.4 -0.6,0.1 -0.6,-0.2 -1,-0.4 -3.6,-2.3 0.9,4.1 m 5.1,4.1 -1,-0.1 -0.7,-0.5 -0.5,-0.8 v -0.3 l 0.1,-0.9 0.5,-0.7 0.8,-0.5 0.3,-0.1 0.9,0.2 0.7,0.4 0.5,0.9 0.1,0.2 -0.2,1 -0.4,0.7 -1.1,0.5 -1.5,0.3 h -1.5 l -1,-0.4 -0.5,-0.8 -0.1,-0.6 0.1,-1 0.5,-0.4 m 79.3,110.7 -0.3,-0.6 -0.8,-0.9 6.3,0.1 m -6.5,-4.4 4.1,3.1 0.1,-4.5 m -4.2,1.4 6.3,0.1 M 1104,88.9 v -3 l -2.7,-0.4 0.3,0.3 0.3,0.9 v 0.9 l -0.3,0.9 -0.6,0.6 -0.9,0.3 h -0.6 l -0.9,-0.3 -0.6,-0.6 -0.3,-0.9 v -0.9 l 0.3,-0.9 0.3,-0.3 0.6,-0.3 m 3.6,5.3 0.3,0.6 0.9,0.9 -6.3,-0.1 m 40.9,-43.4 4.3,-2.7 -4.1,-1.7 m -0.2,4.4 2.4,-5.8 m -4.3,3.5 h -0.6 l -1.2,0.5 2.4,-5.8 m 305.5,410.9 -3.3,-0.2 1.9,-2.3 h -0.9 l -0.5,-0.3 -0.3,-0.4 -0.3,-0.9 0.1,-0.6 0.3,-0.8 0.6,-0.6 1,-0.3 0.9,0.1 0.8,0.3 0.3,0.4 0.3,0.6 m -5.5,3.4 -0.6,0.2 -0.9,0.9 0.3,-6.3 m -22.1,194.1 0.1,-0.3 0.5,-0.4 0.4,-0.2 h 0.7 l 1.1,0.5 0.4,0.5 0.2,0.4 v 0.7 l -0.3,0.6 -0.5,0.4 -0.9,0.5 -4,1.5 3.8,1.8 m 7.4,-3.6 -5.4,4.5 m 1.6,-6.2 3.8,1.7 m 81,-159.6 5,1 -1.8,-4.1 m -3.2,3.1 5.7,-2.6 m -7.4,-3.5 -0.4,0.5 0.1,0.9 0.2,0.6 0.7,0.7 1,0.2 1.5,-0.4 1.4,-0.6 1,-0.7 0.3,-0.8 -0.1,-1 -0.1,-0.2 -0.7,-0.7 -0.8,-0.4 -0.9,0.1 -0.3,0.2 -0.7,0.6 -0.3,0.8 0.1,0.9 0.1,0.3 0.7,0.7 0.8,0.3 0.9,-0.1 m 36.8,62.9 5.1,-0.6 -3,-3.4 m -2.1,4 4.7,-4.2 m -7.5,-2.2 0.9,-0.4 0.8,0.1 0.9,0.5 0.2,0.2 0.3,0.9 v 0.8 l -0.5,0.8 -0.2,0.2 -0.9,0.4 h -0.8 l -0.8,-0.5 -0.2,-0.2 -0.4,-0.9 v -0.9 l 0.7,-1 1.1,-1 1.4,-0.7 1,-0.2 0.9,0.5 0.4,0.4 0.3,0.9 -0.2,0.6 m -12.3,109.1 1.1,-3.1 1.6,2.5 0.3,-0.8 0.5,-0.5 0.4,-0.2 h 1 l 0.5,0.3 0.8,0.5 0.3,0.8 v 1 l -0.3,0.8 -0.6,0.8 -0.4,0.1 -0.6,0.1 m -0.9,-9.8 h -0.7 l -0.6,0.8 -0.2,0.5 v 1 l 0.6,0.9 1.3,0.8 1.4,0.5 1.3,0.1 0.7,-0.4 0.6,-0.7 0.1,-0.3 0.1,-0.9 -0.4,-0.8 -0.7,-0.6 -0.3,-0.1 h -1 l -0.7,0.3 -0.6,0.8 -0.1,0.3 -0.1,0.9 0.4,0.8 0.7,0.6 m -59.8,41.5 2.4,2.2 -2.9,0.6 0.7,0.6 0.2,0.6 v 0.4 l -0.4,0.9 -0.4,0.4 -0.8,0.5 h -0.8 l -0.9,-0.4 -0.7,-0.6 -0.4,-0.8 -0.1,-0.4 0.2,-0.7 m 10.4,2.6 -6.4,2.6 m 3.3,-5.4 3.1,2.8 m -163.6,-59.6 0.6,-0.3 0.9,-0.9 v 6.3 m 1.7,-6.5 h 3.3 l -1.8,2.4 h 0.9 l 0.6,0.3 0.3,0.3 0.3,0.9 v 0.6 l -0.3,0.9 -0.6,0.6 -0.9,0.3 h -0.9 l -0.9,-0.3 -0.3,-0.3 -0.3,-0.6 m 5.9,-5.1 h 3.3 l -1.8,2.4 h 0.9 l 0.6,0.3 0.3,0.3 0.3,0.9 v 0.6 l -0.3,0.9 -0.6,0.6 -0.9,0.3 h -0.9 l -0.9,-0.3 -0.3,-0.3 -0.3,-0.6 m -49.1,-93.9 0.3,0.6 0.8,1 -6.3,-0.5 m 4.9,2.1 h 0.3 l 0.6,0.3 0.3,0.4 0.2,0.6 -0.1,1.2 -0.3,0.6 -0.3,0.2 -0.7,0.3 -0.6,-0.1 -0.5,-0.3 -0.9,-0.7 -2.8,-3.2 -0.3,4.2 m 5.1,5.1 0.6,-0.2 0.3,-0.9 0.1,-0.6 -0.2,-0.9 -0.9,-0.7 -1.5,-0.4 -1.5,-0.1 -1.2,0.2 -0.6,0.6 -0.4,0.8 v 0.3 l 0.2,1 0.6,0.6 0.8,0.4 h 0.3 l 1,-0.2 0.6,-0.6 0.4,-0.9 v -0.3 l -0.2,-0.9 -0.6,-0.6 -0.9,-0.4 m -137.1,-42.6 0.2,0.1 0.5,0.5 0.2,0.4 v 0.6 l -0.4,1.2 -0.4,0.4 -0.4,0.2 -0.7,0.1 -0.6,-0.2 -0.4,-0.5 -0.7,-0.9 -1.8,-3.8 -1.4,3.9 m 5,4.7 v -1 l -0.4,-0.5 -0.6,-0.2 -0.6,0.1 -0.5,0.5 -0.7,1 -0.6,0.7 -0.8,0.4 -0.7,0.1 -0.8,-0.3 -0.5,-0.5 -0.1,-0.4 v -1 l 0.4,-1.1 0.6,-0.7 0.4,-0.2 0.6,-0.1 0.9,0.3 0.4,0.5 0.4,0.8 v 0.9 l -0.2,1.3 0.1,0.6 0.5,0.5 0.5,0.2 0.7,-0.1 0.6,-0.7 0.5,-1.3 m 15.1,23 0.5,-0.5 0.4,-1.2 2.6,5.7 m 2,-8.1 -0.1,7 m -3.7,-5.2 3.8,-1.8"
       id="nums_003"
       stroke="#000000"
       stroke-width="1" />
    <path
       d="m 1417.6,115 44.8,150.8 34.7,158.3 -118.3,15.9 119.2,6.7 26.1,59 49,54.9 -59.8,163.5 -71.7,-65.2 -50.7,-23.3 -123.8,-0.3 13.8,-181.3 49.7,-217.2 -115.4,71 -5.3,207.9 -96.9,44.5 39.5,-108.2 -58.1,-293.7 2.6,-135.9 84.3,35 89,49.8 z"
       id="coupes_003"
       stroke="#ff0000"
       stroke-width="1.27"
       sodipodi:nodetypes="cccccccccccccccccccccc" />
    <path
       d="m 1417.6,115 -87,121.8 m 0,0 -60.3,-129.6 m 192.1,158.6 -83.6,174.2 m 0,0 -48.2,-203.2 m 48.2,203.2 -97.9,14 m -65.7,-146.2 55.1,-200.6 m -55.1,200.6 -33.9,-250.4 m 33.9,250.4 -62.7,144.2 m 57.4,63.7 -57.4,-63.7 m 226.3,-12 12.1,195.6 m 0,0 -110,-181.6 m 243.2,51.7 -82.5,153.2 m 131.5,-98.3 -131.5,98.3"
       id="plisM_003"
       stroke="#a52a2a"
       stroke-dasharray="4" />
    <path
       d="m 1462.4,265.8 -131.8,-29 m -115.4,71 -120.8,-149.5 m 0,0 86.9,-100.9 M 1498,446.7 1390.9,635.6 M 1498,446.7 1441.6,658.9"
       id="plisV_003"
       stroke="#008000"
       stroke-dasharray="4, 1, 1, 1"
       stroke-width="1.27" />
    <path
       d="m 1394.5,249.3 4,4 m 0,-4 -4,4 m -241.7,-22.2 4,4 m 0,-4 -4,4 m -17,-129.3 4,4 m 0,-4 -4,4 m 306.6,429.4 4,4 m 0,-4 -4,4 m 25.4,7.6 4,4 m 0,-4 -4,4"
       id="marqueV_003"
       stroke="#008000" />
    <path
       d="m 1333.5,364.6 h -7.5 l -0.7,6.7 0.7,-0.7 2.3,-0.8 h 2.2 l 2.3,0.8 1.5,1.5 0.7,2.2 v 1.5 l -0.7,2.3 -1.5,1.5 -2.3,0.7 h -2.2 l -2.3,-0.7 -0.7,-0.8 -0.8,-1.5"
       id="titre_5"
       stroke="#4b0082" />
  </g>
  <g
     id="page_004">
    <path
       d="m 2063.9,72.4 2,2.2 2.2,-1.6 h -0.4 l -0.8,-0.5 -0.7,-0.7 -0.4,-0.8 0.1,-0.9 0.4,-0.8 0.5,-0.4 0.8,-0.4 h 0.9 l 0.8,0.5 0.6,0.6 0.4,0.9 v 0.4 l -0.2,0.6 m -9.9,-3 2.1,2.2 2.2,-1.6 h -0.5 l -0.8,-0.5 -0.6,-0.7 -0.4,-0.8 v -0.9 l 0.5,-0.8 0.4,-0.4 0.9,-0.4 h 0.8 l 0.9,0.5 0.6,0.6 0.4,0.9 V 67 l -0.3,0.7 m 20.7,103.7 -0.4,2.9 2.6,0.7 -0.2,-0.3 -0.2,-1 0.1,-0.9 0.5,-0.8 0.6,-0.5 1,-0.2 0.6,0.1 0.8,0.4 0.5,0.7 0.2,0.9 -0.1,0.9 -0.4,0.8 -0.4,0.3 -0.6,0.2 m -3,-9.4 -0.6,0.2 -0.4,0.8 -0.1,0.6 0.2,1 0.8,0.7 1.4,0.5 1.5,0.2 1.2,-0.1 0.7,-0.5 0.4,-0.9 0.1,-0.3 -0.2,-0.9 -0.5,-0.7 -0.9,-0.4 -0.3,-0.1 -0.9,0.2 -0.7,0.5 -0.4,0.9 v 0.3 l 0.2,0.9 0.5,0.7 0.8,0.4 m -34.1,144.5 -0.8,2.9 2.5,1 -0.2,-0.4 v -0.9 l 0.2,-0.9 0.5,-0.8 0.7,-0.4 1,-0.1 0.6,0.2 0.8,0.5 0.4,0.8 v 0.9 l -0.2,0.9 -0.5,0.8 -0.4,0.2 -0.6,0.1 m -2,-6.6 -0.3,-0.1 -0.5,-0.4 -0.2,-0.4 -0.1,-0.6 0.3,-1.2 0.4,-0.5 0.4,-0.2 0.6,-0.1 0.6,0.1 0.5,0.5 0.7,0.8 2.2,3.6 1,-4 m -56.5,33.3 -2.1,-2.1 -2.2,1.6 h 0.4 l 0.9,0.5 0.6,0.6 0.4,0.9 v 0.8 l -0.4,0.9 -0.4,0.4 -0.9,0.4 h -0.8 l -0.9,-0.4 -0.6,-0.7 -0.4,-0.8 v -0.4 l 0.2,-0.7 m 7.8,0.6 2.3,2.4 -2.9,0.4 0.6,0.6 0.2,0.7 v 0.4 l -0.4,0.8 -0.5,0.5 -0.8,0.4 h -0.9 l -0.8,-0.4 -0.6,-0.7 -0.5,-0.8 v -0.5 l 0.3,-0.6 m -55.2,-266.7 0.7,-0.7 v -0.6 l -0.3,-0.6 -0.6,-0.3 h -0.7 l -1.2,0.3 -0.9,0.2 -0.8,-0.3 -0.6,-0.3 -0.4,-0.8 V 78 l 0.1,-0.4 0.6,-0.7 1.1,-0.6 0.9,-0.2 0.4,0.2 0.6,0.3 0.4,0.8 0.1,0.7 -0.3,0.8 -0.6,0.7 -0.9,0.9 -0.4,0.5 v 0.7 l 0.3,0.5 0.6,0.4 0.9,-0.2 1.2,-0.6 m -7.1,2.8 0.5,0.4 1,-0.2 0.5,-0.2 0.6,-0.7 0.1,-1.1 -0.4,-1.5 -0.8,-1.3 -0.8,-0.9 -0.8,-0.2 -1,0.1 -0.2,0.2 -0.7,0.7 -0.2,0.8 0.2,0.9 0.1,0.3 0.7,0.6 0.8,0.3 1,-0.2 0.2,-0.1 0.7,-0.7 0.2,-0.9 -0.2,-0.9 m -117.6,218.3 0.6,-0.8 -0.2,-0.7 -0.3,-0.4 -0.6,-0.3 -0.7,0.1 -1.1,0.5 -0.9,0.3 -0.9,-0.1 -0.6,-0.3 -0.5,-0.7 -0.1,-0.7 v -0.4 l 0.5,-0.8 1,-0.7 0.9,-0.3 h 0.4 l 0.6,0.3 0.6,0.7 0.1,0.7 -0.1,0.8 -0.5,0.8 -0.8,1 -0.3,0.6 0.1,0.7 0.4,0.4 0.6,0.3 0.9,-0.3 1.1,-0.8 m -6.4,4.9 -1.5,-6.8 m 4.8,4.2 -3.3,2.6 m -3.2,294.5 h -0.9 l -0.8,-0.4 -0.5,-0.8 -0.1,-0.3 0.1,-1 0.4,-0.7 0.8,-0.5 0.3,-0.1 0.9,0.1 0.8,0.4 0.5,0.8 0.1,0.3 -0.1,0.9 -0.4,0.7 -1.1,0.6 -1.4,0.4 -1.6,0.1 -1,-0.3 -0.5,-0.8 -0.2,-0.6 0.1,-0.9 0.5,-0.5 m 6.6,3.8 0.8,3.2 -2.7,-1.2 0.2,0.9 -0.1,0.7 -0.2,0.3 -0.8,0.6 -0.6,0.1 h -1 l -0.7,-0.5 -0.5,-0.7 -0.3,-0.9 0.1,-1 0.2,-0.3 0.5,-0.5 m 149.3,-229.7 0.6,3 2.7,-0.2 -0.4,-0.3 -0.4,-0.8 -0.2,-0.9 0.1,-0.9 0.5,-0.7 0.9,-0.5 0.5,-0.1 1,0.1 0.7,0.5 0.4,0.8 0.2,0.9 -0.1,1 -0.3,0.3 -0.5,0.4 m -6.1,-4.9 -0.6,-3.2 2.7,1.3 -0.2,-0.9 0.2,-0.6 0.2,-0.4 0.9,-0.4 0.6,-0.1 0.9,0.1 0.7,0.5 0.5,0.8 0.1,0.9 -0.1,0.9 -0.2,0.4 -0.6,0.4 m -77.4,325.5 -0.5,0.8 -0.8,0.4 h -0.9 l -0.3,-0.1 -0.8,-0.5 -0.4,-0.8 v -0.9 -0.3 l 0.6,-0.8 0.7,-0.4 h 1 l 0.3,0.1 0.7,0.5 0.5,0.8 -0.1,1.2 -0.4,1.4 -0.7,1.4 -0.9,0.7 h -0.9 l -0.6,-0.2 -0.8,-0.5 -0.1,-0.7 m 7.8,-3.3 h -0.9 l -0.9,0.7 -0.7,1.4 -0.2,0.9 -0.2,1.5 0.4,1 0.7,0.6 0.6,0.1 h 1 l 0.8,-0.7 0.7,-1.3 0.3,-0.9 0.1,-1.5 -0.3,-1.1 -0.8,-0.5 -0.4,-0.1 m 48.7,-28.6 0.2,0.9 0.6,0.3 0.6,0.1 0.6,-0.3 0.4,-0.5 0.4,-1.2 0.3,-0.9 0.7,-0.5 0.6,-0.3 0.9,0.1 0.6,0.3 0.3,0.4 0.2,0.9 -0.1,1.2 -0.4,0.9 -0.3,0.2 -0.6,0.3 -0.9,-0.1 -0.6,-0.3 -0.5,-0.7 -0.3,-0.9 -0.2,-1.2 -0.2,-0.6 -0.6,-0.4 h -0.6 l -0.6,0.2 -0.4,0.9 -0.1,1.3 m 0.6,-7.5 -0.2,3 2.6,0.5 -0.2,-0.3 -0.3,-1 0.1,-0.9 0.4,-0.8 0.6,-0.6 1,-0.2 h 0.5 l 0.9,0.4 0.6,0.7 0.2,0.9 -0.1,0.9 -0.3,0.8 -0.4,0.3 -0.6,0.3 m 90.2,-210.7 2.9,0.8 1,-2.5 -0.3,0.2 h -1 l -0.8,-0.2 -0.8,-0.6 -0.4,-0.7 -0.1,-0.9 0.2,-0.6 0.5,-0.8 0.7,-0.4 1,-0.1 0.8,0.3 0.8,0.5 0.2,0.4 0.2,0.6 m -9.6,2.7 4,-3.2 -4.3,-1.2 m 0.3,4.4 1.7,-6 m -43.9,162.8 -4.4,5.4 m 0.3,-6.4 4.1,1 m 2.6,0.7 -1,0.1 -0.4,0.5 -0.1,0.5 0.1,0.7 0.5,0.4 1.1,0.6 0.8,0.5 0.5,0.7 0.1,0.7 -0.2,0.9 -0.5,0.5 -0.3,0.2 -1,0.1 -1.1,-0.3 -0.8,-0.5 -0.2,-0.4 -0.2,-0.6 0.2,-0.9 0.5,-0.5 0.7,-0.5 h 0.9 1.3 l 0.6,-0.2 0.5,-0.5 0.1,-0.6 -0.1,-0.6 -0.8,-0.5 -1.4,-0.4 m 58.7,-68.6 4.6,5.2 m -6.3,-1.3 1.7,-3.9 m 3.9,-3.8 0.7,0.6 0.3,0.8 -0.1,0.9 -0.1,0.3 -0.6,0.7 -0.8,0.4 -0.9,-0.1 -0.3,-0.1 -0.7,-0.7 -0.3,-0.8 v -0.9 l 0.1,-0.3 0.7,-0.7 0.8,-0.3 1.2,0.2 1.4,0.6 1.2,0.8 0.6,0.9 -0.1,1 -0.2,0.5 -0.6,0.8 h -0.7 m -314.6,-61.9 0.7,0.1 1.3,-0.2 -3.9,5 m 5.4,-4.1 2.6,2 -2.9,0.9 0.7,0.5 0.3,0.6 0.1,0.4 -0.4,0.9 -0.3,0.5 -0.8,0.5 -0.8,0.1 -0.9,-0.3 -0.8,-0.5 -0.5,-0.8 v -0.4 l 0.1,-0.7 m 6.4,0.3 0.7,0.1 1.2,-0.1 -3.8,5 m -94.6,-55.8 0.6,-0.1 1.1,-0.6 -1.8,6 m 3.1,-4.3 V 430 l 0.5,-0.5 0.4,-0.2 0.6,-0.1 1.2,0.3 0.5,0.5 0.2,0.4 0.1,0.6 -0.2,0.6 -0.4,0.5 -0.9,0.7 -3.7,2 4,1.2 m 6,-2.6 -0.5,0.8 -0.8,0.4 h -0.9 -0.3 l -0.8,-0.6 -0.4,-0.7 v -1 l 0.1,-0.3 0.5,-0.8 0.8,-0.4 h 0.9 l 0.3,0.1 0.8,0.6 0.4,0.7 -0.1,1.2 -0.4,1.5 -0.7,1.3 -0.8,0.7 h -1 l -0.6,-0.1 -0.7,-0.6 -0.2,-0.6 m 42.6,-103.2 0.4,-0.8 0.7,-0.5 0.9,-0.2 h 0.3 l 0.9,0.5 0.5,0.6 0.2,1 -0.1,0.3 -0.4,0.8 -0.7,0.5 -0.9,0.2 h -0.3 l -0.8,-0.5 -0.6,-0.6 -0.1,-1.3 0.2,-1.4 0.5,-1.5 0.7,-0.8 1,-0.2 0.6,0.1 0.8,0.4 0.2,0.7 m -5.7,3.1 -0.1,0.3 -0.3,0.6 -0.4,0.2 -0.6,0.2 -1.2,-0.1 -0.6,-0.4 -0.2,-0.4 -0.2,-0.6 0.1,-0.6 0.3,-0.5 0.8,-0.8 3.3,-2.6 -4.1,-0.6 m -62.3,38.6 0.2,0.7 0.7,1 -6.2,-1.4 m 4.5,2.8 h 0.3 l 0.5,0.5 0.3,0.3 0.1,0.7 -0.2,1.1 -0.5,0.6 -0.3,0.2 -0.7,0.2 -0.6,-0.2 -0.5,-0.4 -0.7,-0.8 -2.3,-3.6 -0.9,4.1 m 5.7,3.1 -0.7,3.2 -1.9,-2.3 -0.2,0.9 -0.5,0.5 -0.3,0.3 h -1 l -0.5,-0.1 -0.9,-0.5 -0.4,-0.7 -0.1,-0.9 0.2,-0.9 0.5,-0.8 0.4,-0.3 0.6,-0.1 m 184.9,-164 -1,-0.2 -0.5,0.4 -0.3,0.5 -0.1,0.7 0.4,0.5 0.8,0.9 0.6,0.7 0.2,0.9 v 0.6 l -0.5,0.8 -0.6,0.4 -0.4,0.1 -0.9,-0.3 -1,-0.6 -0.6,-0.7 -0.1,-0.4 v -0.7 l 0.5,-0.8 0.6,-0.3 0.8,-0.2 0.9,0.2 1.2,0.4 h 0.7 l 0.5,-0.3 0.3,-0.5 0.1,-0.7 -0.6,-0.7 -1.2,-0.7 m 6.9,4.2 -5.8,3.8 m 2.2,-6 3.6,2.2 m -9.6,-53.9 0.6,-0.7 v -0.7 l -0.4,-0.5 -0.5,-0.3 h -0.7 l -1.2,0.4 -0.9,0.2 -0.8,-0.2 -0.6,-0.4 -0.5,-0.7 V 156 l 0.1,-0.4 0.6,-0.7 1,-0.7 1,-0.2 0.4,0.1 0.5,0.4 0.5,0.8 0.1,0.6 -0.2,0.8 -0.7,0.8 -0.8,0.8 -0.4,0.6 0.1,0.7 0.3,0.5 0.5,0.4 1,-0.3 1.1,-0.7 m -4.7,2.9 0.6,-0.7 V 161 l -0.3,-0.5 -0.6,-0.4 -0.7,0.1 -1.2,0.4 -0.9,0.2 -0.8,-0.2 -0.6,-0.4 -0.4,-0.8 -0.1,-0.6 0.1,-0.4 0.6,-0.8 1.1,-0.6 0.9,-0.2 0.4,0.1 0.6,0.4 0.4,0.7 0.1,0.7 -0.2,0.8 -0.6,0.7 -0.9,0.9 -0.4,0.6 0.1,0.7 0.3,0.5 0.6,0.3 0.9,-0.2 1.1,-0.7"
       id="nums_004"
       stroke="#000000"
       stroke-width="1" />
    <path
       d="m 2045.3,392.5 -83.1,-83.8 21.7,116 113.9,31.4 -70.5,165.2 -69.4,-17.2 -9.1,111.7 -113.9,-33.8 -44.1,-163.3 -88.5,-68 -85.1,-25.8 24.5,-107.4 125.4,17.3 105.8,-81.6 -113.9,-69.8 95.5,-57.8 178.4,-98.4 71.8,76.8 -18.4,133.8 z"
       id="coupes_004"
       stroke="#ff0000"
       stroke-width="1.27"
       sodipodi:nodetypes="cccccccccccccccccccc" />
    <path
       d="M 2086.3,237.8 2032.9,27.2 m 53.4,210.6 -213.4,15.4 m 0,0 160,-226 m -70.7,281.5 -89.3,-55.5 m 213.4,-15.4 -124.1,70.9 m -171.4,210 82.1,-265.5 m 0,0 -18.4,-127.6 m -63.7,393.1 -23.7,-183.9 M 1962.2,308.7 1834.9,682 m 149,-257.3 -149,257.3 m 149,-257.3 -26,179.4 m -255.6,-153.4 64.8,-115.9"
       id="plisM_004"
       stroke="#a52a2a"
       stroke-dasharray="4" />
    <path
       d="m 1962.2,308.7 -171.4,210 m 167.1,85.4 -123,77.9 m 262.9,-225.9 -139.9,148 m -340.7,-179.2 149.9,-90.1"
       id="plisV_004"
       stroke="#008000"
       stroke-dasharray="4, 1, 1, 1"
       stroke-width="1.27" />
    <path
       d="m 1874.5,411.7 4,4 m 0,-4 -4,4 m 19.9,225.4 4,4 m 0,-4 -4,4 m 131.5,-117 4,4 m 0,-4 -4,4 m -335.8,-154.3 4,4 m 0,-4 -4,4"
       id="marqueV_004"
       stroke="#008000" />
    <path
       d="m 1879.1,350.1 -0.8,-1.5 -2.2,-0.8 h -1.5 l -2.3,0.8 -1.5,2.2 -0.7,3.8 v 3.7 l 0.7,3 1.5,1.5 2.3,0.8 h 0.7 l 2.3,-0.8 1.5,-1.5 0.7,-2.2 v -0.8 l -0.7,-2.2 -1.5,-1.5 -2.3,-0.8 h -0.7 l -2.3,0.8 -1.5,1.5 -0.7,2.2"
       id="titre_6"
       stroke="#4b0082" />
  </g>
  <g
     id="page_005">
    <path
       d="m 2182.9,114.5 0.7,-0.1 0.5,-0.8 0.2,-0.6 -0.1,-1 -0.7,-0.8 -1.3,-0.7 -1.5,-0.4 h -1.2 l -0.7,0.4 -0.6,0.8 -0.1,0.3 0.1,0.9 0.4,0.8 0.8,0.5 0.3,0.1 0.9,-0.1 0.8,-0.4 0.5,-0.8 0.1,-0.3 -0.1,-0.9 -0.4,-0.7 -0.8,-0.6 m 0.9,9.2 0.6,-0.1 0.6,-0.8 0.1,-0.5 v -1 l -0.7,-0.8 -1.4,-0.7 -1.4,-0.4 -1.3,-0.1 -0.7,0.5 -0.5,0.7 -0.1,0.3 v 1 l 0.4,0.7 0.8,0.6 h 0.3 1 l 0.7,-0.4 0.5,-0.8 0.1,-0.3 v -0.9 l -0.5,-0.8 -0.7,-0.5 m 89,-37.4 -0.7,-0.1 -0.7,0.6 -0.4,0.4 -0.3,0.9 0.4,1.1 1,1.1 1.2,0.9 1.2,0.4 0.8,-0.1 0.8,-0.5 0.2,-0.3 0.3,-0.9 -0.2,-0.8 -0.5,-0.8 -0.3,-0.2 -0.9,-0.3 -0.8,0.2 -0.8,0.5 -0.2,0.3 -0.2,0.9 0.1,0.8 0.5,0.8 m 0.7,-5.7 0.1,-0.7 -0.2,-1.2 5.1,3.7 m -25.4,-26.8 0.3,0.6 0.8,0.3 h 0.6 l 1,-0.2 0.6,-0.9 0.3,-1.5 0.1,-1.5 -0.3,-1.2 -0.5,-0.6 -0.9,-0.4 h -0.3 l -0.9,0.3 -0.7,0.6 -0.3,0.8 v 0.3 l 0.3,1 0.5,0.6 0.9,0.3 h 0.3 l 0.9,-0.2 0.7,-0.6 0.3,-0.9 m -7,3.9 0.9,-0.2 0.6,-0.9 0.4,-1.5 V 49 l -0.2,-1.5 -0.6,-0.9 -0.9,-0.4 h -0.6 l -0.9,0.3 -0.6,0.9 -0.4,1.4 v 0.9 l 0.2,1.6 0.6,0.9 0.9,0.3 h 0.4 m -43.3,161.7 0.2,-0.7 -0.6,-0.8 -0.4,-0.4 -0.9,-0.3 -1,0.3 -1.2,1 -1,1.1 -0.5,1.1 0.1,0.9 0.5,0.8 0.2,0.2 0.9,0.3 0.8,-0.1 0.9,-0.5 0.1,-0.2 0.4,-0.9 -0.1,-0.8 -0.5,-0.8 -0.2,-0.2 -0.9,-0.4 -0.9,0.1 -0.8,0.5 m 9.7,2.5 -6.3,3 m 3.1,-5.6 3.2,2.6 m 78.4,-74.5 v 0.6 l 0.6,0.7 0.6,0.3 0.9,0.2 0.9,-0.6 1,-1.2 0.7,-1.3 0.3,-1.2 -0.3,-0.8 -0.6,-0.7 -0.3,-0.1 -0.9,-0.2 -0.8,0.3 -0.7,0.6 -0.2,0.3 -0.1,1 0.2,0.8 0.7,0.6 0.3,0.2 0.9,0.1 0.8,-0.2 0.7,-0.7 m -5.7,0.2 h -0.7 l -1.2,0.4 2.9,-5.6 m 86.2,-9.9 0.6,0.2 0.9,-0.3 0.5,-0.4 0.5,-0.8 -0.2,-1.1 -0.7,-1.3 -1,-1.2 -0.9,-0.7 -0.9,-0.1 -0.9,0.4 -0.2,0.1 -0.5,0.9 -0.1,0.8 0.4,0.9 0.2,0.2 0.8,0.5 0.8,0.1 0.9,-0.4 0.2,-0.2 0.5,-0.8 0.1,-0.8 -0.4,-0.9 m -2.5,7.6 0.5,-0.8 -0.1,-1.1 -0.8,-1.3 -0.5,-0.7 -1.2,-0.9 -1.1,-0.4 -0.9,0.4 -0.4,0.4 -0.5,0.8 0.1,1.1 0.7,1.3 0.6,0.7 1.2,1 1,0.3 0.9,-0.4 0.4,-0.3 m 92.2,35.4 -0.7,-0.2 -0.8,0.4 -0.5,0.4 -0.4,0.9 0.2,1 0.9,1.3 1,1.1 1.1,0.6 h 0.8 l 0.9,-0.4 0.2,-0.2 0.4,-0.9 v -0.8 l -0.4,-0.9 -0.2,-0.2 -0.9,-0.4 h -0.8 l -0.9,0.4 -0.2,0.2 -0.4,0.9 v 0.8 l 0.4,0.9 m 3.2,-9.1 -2.1,2.1 1.7,2.2 V 164 l 0.4,-0.8 0.6,-0.6 0.9,-0.5 h 0.8 l 0.9,0.5 0.4,0.4 0.4,0.9 v 0.8 l -0.4,0.8 -0.7,0.7 -0.8,0.4 h -0.4 l -0.7,-0.2 m 30.9,164.9 0.1,0.9 0.6,0.5 0.6,0.1 0.6,-0.2 0.4,-0.5 0.5,-1.2 0.5,-0.8 0.7,-0.5 0.6,-0.2 0.9,0.2 0.6,0.4 0.2,0.4 0.1,0.9 -0.2,1.2 -0.5,0.8 -0.3,0.3 -0.7,0.1 -0.8,-0.1 -0.6,-0.4 -0.5,-0.7 -0.1,-1 v -1.2 l -0.2,-0.7 -0.6,-0.4 -0.6,-0.1 -0.6,0.2 -0.5,0.8 -0.2,1.3 m 1.1,-5.6 0.1,0.9 0.8,0.8 1.4,0.5 0.9,0.2 h 1.5 l 1,-0.4 0.5,-0.9 0.1,-0.5 -0.1,-1 -0.8,-0.7 -1.4,-0.6 -0.9,-0.2 h -1.5 l -1,0.4 -0.5,0.9 -0.1,0.4 m -13.8,-118.6 0.3,0.6 0.9,0.2 h 0.6 l 0.9,-0.4 0.5,-0.9 0.2,-1.5 -0.1,-1.5 -0.4,-1.2 -0.6,-0.6 -0.9,-0.2 h -0.3 l -0.9,0.4 -0.5,0.6 -0.3,0.9 v 0.3 l 0.4,0.9 0.6,0.6 1,0.2 h 0.3 l 0.8,-0.4 0.6,-0.6 0.2,-0.9 m -8.3,4.7 3,-0.2 0.1,-2.7 -0.3,0.3 -0.9,0.4 -0.9,0.1 -0.9,-0.3 -0.6,-0.5 -0.4,-0.9 v -0.6 l 0.2,-0.9 0.6,-0.7 0.9,-0.3 0.9,-0.1 0.9,0.3 0.3,0.2 0.3,0.6 m -0.4,-118.5 0.4,0.5 0.9,0.2 0.6,-0.1 0.8,-0.4 0.5,-1 0.1,-1.5 -0.2,-1.5 -0.5,-1.1 -0.7,-0.5 -0.9,-0.2 h -0.3 l -0.9,0.5 -0.5,0.6 -0.1,1 v 0.3 l 0.4,0.8 0.7,0.5 0.9,0.2 h 0.3 l 0.9,-0.5 0.5,-0.7 0.2,-0.9 m -8.1,4.5 0.4,0.6 0.9,0.1 0.6,-0.1 0.8,-0.4 0.5,-1 0.1,-1.5 -0.2,-1.5 -0.5,-1.1 -0.7,-0.5 -0.9,-0.2 -0.3,0.1 -0.9,0.4 -0.5,0.7 -0.1,0.9 v 0.3 l 0.4,0.8 0.7,0.5 1,0.2 h 0.2 l 0.9,-0.5 0.5,-0.6 0.2,-1 m 52.7,72.9 -6.7,2 m 3.8,-5.1 2.9,3.1 m 1.8,1.9 -0.9,-0.4 -0.6,0.1 -0.5,0.5 -0.2,0.6 0.2,0.6 0.6,1.1 0.4,0.9 -0.1,0.8 -0.2,0.7 -0.7,0.6 -0.6,0.1 h -0.4 l -0.9,-0.4 -0.8,-0.9 -0.4,-0.9 v -0.4 l 0.3,-0.6 0.7,-0.6 0.6,-0.2 h 0.8 l 0.9,0.5 1,0.7 0.6,0.2 0.7,-0.2 0.4,-0.4 0.3,-0.6 -0.4,-0.9 -0.9,-1 m 56.7,-60 0.9,0.1 0.6,-0.4 0.3,-0.5 v -0.7 l -0.4,-0.5 -0.9,-0.9 -0.7,-0.6 -0.3,-0.8 V 91 l 0.5,-0.8 0.5,-0.4 0.4,-0.1 0.9,0.1 1.1,0.6 0.7,0.7 0.1,0.4 v 0.6 l -0.4,0.8 -0.6,0.4 -0.8,0.3 -0.9,-0.2 -1.2,-0.3 h -0.7 l -0.5,0.4 -0.3,0.6 v 0.6 l 0.6,0.7 1.2,0.6 m -6.3,-3.2 4.6,-2.4 -4,-2 m -0.6,4.4 2.9,-5.6 m -5.6,56.6 -0.4,0.8 0.2,0.6 0.5,0.5 0.6,0.2 0.6,-0.2 1.1,-0.7 0.8,-0.4 h 0.9 l 0.6,0.2 0.7,0.6 0.2,0.6 v 0.5 l -0.4,0.8 -0.9,0.9 -0.8,0.4 h -0.4 l -0.7,-0.2 -0.6,-0.6 -0.2,-0.7 -0.1,-0.8 0.5,-0.9 0.6,-1 0.2,-0.7 -0.2,-0.6 -0.5,-0.4 -0.6,-0.2 -0.8,0.4 -1,1 m 5.3,-5.4 -2.1,2.1 1.7,2.1 v -0.4 l 0.5,-0.9 0.6,-0.6 0.8,-0.5 h 0.9 l 0.8,0.5 0.5,0.4 0.4,0.8 v 0.9 l -0.4,0.8 -0.6,0.7 -0.9,0.4 h -0.4 l -0.7,-0.2 m -146.6,376.5 0.6,0.7 0.3,0.8 -0.2,1 -0.1,0.2 -0.7,0.7 -0.8,0.3 -1,-0.2 -0.2,-0.1 -0.7,-0.7 -0.2,-0.8 0.1,-1 0.2,-0.2 0.6,-0.7 0.9,-0.2 1.2,0.2 1.3,0.8 1.2,0.9 0.5,1 -0.2,0.9 -0.2,0.5 -0.7,0.7 h -0.7 m -1.3,-6 v -0.7 l -0.4,-1.2 5.6,2.9 m -99.3,-25.8 -2.8,-6.4 m 5.5,3.2 -2.7,3.2 m -1.9,2.3 0.4,-0.9 -0.3,-1.1 -1,-1.2 -0.7,-0.5 -1.3,-0.8 -1.1,-0.1 -0.8,0.5 -0.4,0.4 -0.3,0.9 0.3,1.1 0.9,1.2 0.7,0.5 1.3,0.8 1.1,0.1 0.8,-0.5 0.3,-0.3 m -82.6,66.4 -0.8,-0.4 -0.6,0.1 -0.5,0.4 -0.3,0.6 0.2,0.7 0.6,1.1 0.3,0.9 -0.1,0.8 -0.2,0.6 -0.7,0.6 -0.6,0.2 -0.5,-0.1 -0.8,-0.5 -0.8,-0.9 -0.3,-0.8 v -0.5 l 0.3,-0.6 0.7,-0.6 0.6,-0.1 h 0.9 l 0.8,0.5 1,0.7 0.6,0.3 0.6,-0.2 0.5,-0.3 0.3,-0.7 -0.4,-0.8 -0.9,-1.1 m 3,3.5 2.1,2.5 -2.9,0.2 0.5,0.7 0.2,0.7 v 0.4 l -0.5,0.8 -0.5,0.4 -0.9,0.3 h -0.8 l -0.8,-0.5 -0.6,-0.7 -0.4,-0.9 0.1,-0.4 0.2,-0.6 m -4.2,-48 1,-0.1 0.4,-0.5 0.1,-0.6 -0.2,-0.7 -0.5,-0.4 -1.1,-0.5 -0.8,-0.5 -0.5,-0.7 -0.2,-0.6 0.2,-0.9 0.4,-0.6 0.4,-0.2 0.9,-0.1 1.2,0.2 0.8,0.5 0.3,0.4 0.1,0.6 -0.2,0.9 -0.4,0.5 -0.7,0.5 -0.9,0.1 -1.3,0.1 -0.6,0.1 -0.4,0.6 -0.1,0.5 0.1,0.7 0.9,0.5 1.3,0.2 m -4.1,-2.3 -0.1,0.3 -0.4,0.5 -0.4,0.2 -0.6,0.2 -1.2,-0.2 -0.5,-0.5 -0.3,-0.3 -0.1,-0.7 0.1,-0.6 0.4,-0.5 0.8,-0.7 3.5,-2.4 -4.1,-0.8 m 139.4,137.6 -4.5,5.4 m 0.4,-6.4 4.1,1 m 4.3,2.1 -0.1,-0.7 -0.8,-0.5 -0.6,-0.1 h -0.9 l -0.8,0.7 -0.7,1.4 -0.4,1.5 v 1.2 l 0.5,0.7 0.8,0.6 h 0.2 1 l 0.7,-0.5 0.5,-0.8 0.1,-0.3 -0.1,-0.9 -0.4,-0.7 -0.8,-0.5 -0.3,-0.1 -0.9,0.1 -0.8,0.4 -0.5,0.8 m 86.7,-93.7 -0.1,-6.9 m 3.9,5.1 -3.8,1.8 m -4.2,2.2 2.7,-1.4 -0.9,-2.5 -0.2,0.4 -0.6,0.6 -0.9,0.4 -0.9,0.2 -0.8,-0.3 -0.7,-0.7 -0.2,-0.5 -0.2,-0.9 0.3,-0.8 0.7,-0.7 0.8,-0.4 0.9,-0.1 0.4,0.1 0.5,0.4 m 109.9,45.7 6.8,-1.8 m -4.1,5 -2.7,-3.2 m -2.8,-3.3 5.1,-0.4 -2.9,-3.4 m -2.2,3.8 4.8,-4 m -44.3,112.6 -5.5,4.3 m 1.7,-6.1 3.8,1.8 m 0.3,1.8 h 0.7 l 1.2,-0.5 -2.8,5.7 m 84.5,-5.1 -1,2.8 2.5,1.2 -0.2,-0.4 v -0.9 l 0.3,-0.9 0.6,-0.7 0.8,-0.4 h 0.9 l 0.6,0.2 0.7,0.6 0.4,0.8 v 0.9 l -0.3,0.9 -0.6,0.7 -0.4,0.2 -0.7,0.1 m 0.3,-9.7 0.7,0.6 0.4,0.7 v 1 l -0.1,0.2 -0.6,0.8 -0.8,0.4 h -0.9 l -0.3,-0.1 -0.8,-0.6 -0.3,-0.8 v -0.9 l 0.1,-0.3 0.6,-0.8 0.7,-0.3 1.3,0.1 1.4,0.5 1.3,0.7 0.7,0.9 -0.1,1 -0.2,0.5 -0.5,0.8 -0.7,0.1 M 2325,469.7 l 0.2,7 m -3.9,-5.1 3.7,-1.9 m 2.7,-1.3 -0.7,0.7 -0.1,1 0.4,1.5 0.4,0.8 0.9,1.2 1,0.6 0.9,-0.2 0.6,-0.3 0.6,-0.6 0.2,-1.1 -0.5,-1.5 -0.4,-0.8 -0.9,-1.2 -0.9,-0.5 -1,0.1 -0.4,0.2 m -71.9,-23.1 -0.8,-0.5 -0.6,0.2 -0.5,0.4 -0.2,0.6 0.1,0.7 0.6,1.1 0.3,0.8 v 0.9 l -0.3,0.6 -0.7,0.6 -0.6,0.2 -0.4,-0.1 -0.8,-0.5 -0.8,-0.9 -0.4,-0.8 V 448 l 0.3,-0.6 0.7,-0.6 0.6,-0.1 h 0.9 l 0.8,0.5 1,0.7 0.6,0.3 0.7,-0.2 0.4,-0.4 0.3,-0.6 -0.4,-0.9 -0.9,-1 m 1.9,4.4 0.2,-0.2 0.6,-0.1 h 0.5 l 0.6,0.2 0.8,1 0.1,0.6 v 0.4 l -0.3,0.6 -0.4,0.4 -0.7,0.2 -1.1,0.1 -4.2,-0.3 2.8,3.2 m -77.9,-134.2 0.4,-0.5 -0.1,-1 -0.3,-0.5 -0.6,-0.7 -1.1,-0.1 -1.5,0.4 -1.3,0.7 -1,0.8 -0.2,0.8 0.1,0.9 0.1,0.3 0.7,0.6 0.8,0.3 0.9,-0.1 0.3,-0.1 0.7,-0.7 0.2,-0.8 -0.1,-1 -0.1,-0.2 -0.7,-0.7 -0.8,-0.3 -0.9,0.2 m 6.6,3.9 -0.6,-0.6 h -0.7 l -0.5,0.2 -0.4,0.6 v 0.6 l 0.2,1.3 0.2,0.9 -0.3,0.8 -0.4,0.5 -0.8,0.4 h -0.7 l -0.4,-0.1 -0.7,-0.7 -0.5,-1 -0.1,-1 0.1,-0.4 0.4,-0.5 0.8,-0.4 h 0.7 l 0.8,0.2 0.7,0.7 0.8,1 0.5,0.4 h 0.7 l 0.5,-0.3 0.4,-0.5 -0.1,-1 -0.6,-1.2 m 6.1,-66.9 0.3,0.6 0.8,0.4 0.6,0.1 0.9,-0.2 0.8,-0.8 0.4,-1.4 0.2,-1.5 -0.1,-1.3 -0.5,-0.6 -0.9,-0.4 -0.3,-0.1 -0.9,0.2 -0.7,0.5 -0.4,0.9 v 0.3 l 0.2,0.9 0.5,0.7 0.8,0.4 h 0.3 l 1,-0.2 0.6,-0.5 0.4,-0.8 m -9.5,3 3.8,-5.9 m 0.3,6.4 -4.1,-0.5"
       id="nums_005"
       stroke="#000000"
       stroke-width="1" />
    <path
       d="m 2648.8,668.7 -30.9,88.2 -159.1,-78.7 -139.6,-35.8 -119.9,-140.5 112.3,23 58.3,-68.6 -80.3,40.6 -74.8,-86.8 -84,-168.2 111.4,14.4 -86.8,-71.2 40.3,-142.7 104.7,3.9 -50.5,69.2 75.9,39.5 80.4,-67.2 146.7,-21 77.1,40.1 -78.5,80 -48.3,-52.7 -70.1,68.9 98,-6.6 -51,265.5 -64.6,122.3 113.4,-56.9 z"
       id="coupes_005"
       stroke="#ff0000"
       stroke-width="1.27"
       sodipodi:nodetypes="ccccccccccccccccccccccccccc" />
    <path
       d="m 2249.9,115.5 -94.5,69.6 m 40.3,-142.7 54.2,73.1 m 0,0 -7.7,140.8 m 83.6,-101.3 -83.6,101.3 m 83.6,-101.3 44.1,301.3 m 63.2,-253.2 -63.2,253.2 m -44.1,-301.3 107.3,48.1 m -26.9,-115.3 26.9,115.3 m 0,0 47,258.9 m 0,0 -110.2,-5.7 m 36.3,-368.5 97,46.4 m 49.7,-67.4 -1.4,120.1 m -136,397.4 -45.6,-128 m 45.6,128 -103.9,-59.4 m 7.6,117.5 -7.6,-117.5 m 103.9,59.4 43.3,93.9 m 70.1,-150.8 -70.1,150.8 m 190,-9.5 -190,9.5 M 2289.6,496.9 2242.2,256.3 m -27.4,153.8 27.4,-153.8"
       id="plisM_005"
       stroke="#a52a2a"
       stroke-dasharray="4" />
    <path
       d="m 2369.9,456.3 -127.7,-200 m 310.7,-189.5 -49.7,67.4 m -87.7,450.1 -96.3,58.1"
       id="plisV_005"
       stroke="#008000"
       stroke-dasharray="4, 1, 1, 1"
       stroke-width="1.27" />
    <path
       d="m 2304.1,354.3 4,4 m 0,-4 -4,4 M 2526,98.5 l 4,4 m 0,-4 -4,4 m -160.7,508.8 4,4 m 0,-4 -4,4"
       id="marqueV_005"
       stroke="#008000" />
    <path
       d="m 2432.4,361.4 -7.5,15.8 m -3,-15.8 h 10.5"
       id="titre_7"
       stroke="#4b0082" />
  </g>
  <g
     id="page_006">
    <path
       d="m 3062.9,373.3 -1.2,2.7 2.3,1.4 -0.1,-0.4 0.1,-1 0.3,-0.8 0.7,-0.7 0.8,-0.3 0.9,0.1 0.6,0.2 0.7,0.7 0.3,0.8 -0.1,0.9 -0.4,0.8 -0.6,0.7 -0.4,0.2 h -0.7 m 1,-9.6 0.7,0.6 0.3,0.8 -0.1,0.9 -0.1,0.3 -0.6,0.7 -0.8,0.3 -1,-0.1 -0.2,-0.1 -0.7,-0.6 -0.3,-0.8 0.1,-1 0.1,-0.3 0.6,-0.7 0.8,-0.3 1.2,0.3 1.4,0.6 1.2,0.8 0.6,1 -0.1,0.9 -0.2,0.5 -0.7,0.8 h -0.6 m -56.9,4.1 -2.4,-1.8 -1.9,2 0.4,-0.1 0.9,0.3 0.7,0.6 0.6,0.7 0.1,0.9 -0.3,0.9 -0.3,0.5 -0.8,0.5 -0.9,0.1 -0.9,-0.3 -0.7,-0.5 -0.5,-0.8 -0.1,-0.4 0.1,-0.7 m 8.6,0 -0.9,-0.3 -0.6,0.3 -0.4,0.5 -0.1,0.7 0.3,0.6 0.8,0.9 0.5,0.8 0.2,0.8 -0.2,0.7 -0.5,0.7 -0.6,0.3 -0.4,0.1 -0.9,-0.3 -1,-0.7 -0.5,-0.8 -0.1,-0.4 0.1,-0.7 0.6,-0.7 0.6,-0.3 0.8,-0.1 0.9,0.3 1.1,0.4 0.7,0.2 0.6,-0.3 0.4,-0.5 0.1,-0.7 -0.6,-0.8 -1,-0.8 m -55,-93 -0.6,-2.9 -2.7,0.2 0.3,0.2 0.5,0.9 0.2,0.9 -0.1,0.9 -0.5,0.7 -0.8,0.5 -0.6,0.1 -1,-0.1 -0.7,-0.5 -0.4,-0.8 -0.2,-0.9 0.1,-0.9 0.2,-0.4 0.6,-0.4 m 6.8,8.2 -6.7,-1.7 m 5.9,-2.4 0.8,4.1 m 124.1,-57.3 -0.6,0.3 -0.4,0.9 v 0.6 l 0.3,0.9 0.9,0.6 1.5,0.3 h 1.5 l 1.2,-0.2 0.6,-0.6 0.3,-0.9 v -0.3 l -0.3,-0.9 -0.5,-0.6 -0.9,-0.3 -0.3,-0.1 -0.9,0.3 -0.7,0.6 -0.3,0.9 v 0.3 l 0.3,0.9 0.6,0.6 0.9,0.3 m -2.6,-5.6 h -0.3 l -0.6,-0.3 -0.3,-0.3 -0.3,-0.6 v -1.2 l 0.3,-0.6 0.4,-0.3 0.6,-0.3 h 0.6 l 0.6,0.4 0.8,0.6 3,3 0.1,-4.2 m -210.2,27.8 -2.5,1.7 1.2,2.4 0.1,-0.4 0.6,-0.8 0.7,-0.5 1,-0.2 0.8,0.1 0.7,0.6 0.4,0.5 0.2,0.9 -0.1,0.8 -0.6,0.8 -0.7,0.5 -1,0.3 -0.4,-0.1 -0.6,-0.3 m 5,-9.5 1,6.8 m -4.5,-4.5 3.5,-2.3 m -106.6,29 -3,-0.4 -0.7,2.6 0.4,-0.2 0.9,-0.2 0.9,0.1 0.9,0.4 0.5,0.7 0.1,1 v 0.6 l -0.5,0.8 -0.7,0.5 -0.9,0.2 -0.9,-0.1 -0.8,-0.5 -0.3,-0.3 -0.2,-0.6 m 7.5,-4.1 -0.9,0.1 -0.4,0.6 -0.1,0.6 0.2,0.6 0.6,0.4 1.1,0.5 0.9,0.4 0.5,0.7 0.2,0.6 -0.1,0.9 -0.4,0.6 -0.4,0.2 -0.9,0.2 -1.2,-0.2 -0.8,-0.4 -0.3,-0.4 -0.2,-0.6 0.1,-0.9 0.4,-0.5 0.7,-0.5 0.9,-0.2 1.3,-0.1 0.6,-0.2 0.4,-0.6 0.1,-0.6 -0.2,-0.6 -0.9,-0.5 -1.3,-0.1 m 99.4,-163.7 0.6,-0.2 0.5,-0.8 0.1,-0.6 -0.2,-0.9 -0.8,-0.8 -1.4,-0.5 -1.5,-0.2 -1.2,0.1 -0.7,0.5 -0.4,0.8 -0.1,0.3 0.2,0.9 0.5,0.7 0.8,0.5 h 0.3 l 0.9,-0.1 0.7,-0.5 0.5,-0.9 v -0.3 l -0.2,-0.9 -0.4,-0.7 -0.9,-0.4 m 3.3,6.2 -0.6,3.3 -2,-2.2 -0.2,0.9 -0.4,0.5 -0.3,0.3 -1,0.1 -0.6,-0.1 -0.8,-0.4 -0.5,-0.7 -0.1,-0.9 0.1,-0.9 0.4,-0.9 0.4,-0.2 0.6,-0.2 m 47.6,-28.8 -0.1,0.7 0.6,0.7 0.5,0.4 0.9,0.2 1,-0.4 1.1,-1.1 0.9,-1.2 0.4,-1.2 -0.2,-0.8 -0.6,-0.8 -0.2,-0.1 -0.9,-0.3 -0.9,0.2 -0.7,0.6 -0.2,0.2 -0.2,0.9 0.1,0.9 0.6,0.7 0.3,0.2 0.9,0.2 0.8,-0.1 0.8,-0.6 m -9.2,-1 4.8,-1.8 -3.7,-2.5 m -1.1,4.3 3.5,-5.3 m -175.6,138.5 0.6,-0.2 0.5,-0.8 0.2,-0.5 -0.1,-1 -0.7,-0.8 -1.4,-0.7 -1.4,-0.3 h -1.3 l -0.7,0.4 -0.5,0.8 -0.1,0.3 0.1,0.9 0.4,0.8 0.8,0.5 h 0.3 0.9 l 0.8,-0.5 0.5,-0.8 0.1,-0.2 -0.1,-1 -0.4,-0.7 -0.8,-0.5 m -0.2,9.2 -0.8,-0.6 -0.5,-0.7 v -0.9 -0.3 l 0.6,-0.8 0.7,-0.5 h 0.9 l 0.3,0.1 0.8,0.5 0.5,0.7 v 0.9 0.3 l -0.6,0.8 -0.7,0.5 h -1.2 l -1.5,-0.4 -1.4,-0.7 -0.7,-0.8 v -0.9 l 0.1,-0.6 0.5,-0.8 0.7,-0.1 m 35.1,-100.6 -5,-4.9 m 6.4,1 -1.4,3.9 m -1.7,4.9 -5,-4.9 m 6.4,1 -1.4,3.9 m 42.3,10.2 -0.3,0.6 0.3,0.9 0.3,0.4 0.8,0.6 1.1,-0.1 1.4,-0.7 1.2,-0.9 0.7,-1 0.1,-0.8 -0.3,-0.9 -0.1,-0.2 -0.8,-0.6 -0.9,-0.1 -0.9,0.3 -0.2,0.2 -0.5,0.8 -0.1,0.8 0.3,0.9 0.1,0.3 0.8,0.5 0.9,0.1 0.9,-0.3 m -6.8,-1.9 -2,-2.6 3,-0.1 -0.6,-0.7 -0.1,-0.6 0.1,-0.4 0.5,-0.8 0.5,-0.4 0.9,-0.3 0.8,0.1 0.8,0.5 0.6,0.7 0.3,0.9 -0.1,0.5 -0.3,0.6 m 247.1,-34 0.6,0.7 h 0.7 l 0.5,-0.3 0.5,-0.5 v -0.7 l -0.3,-1.2 -0.1,-0.9 0.2,-0.8 0.5,-0.6 0.8,-0.4 0.6,0.1 0.4,0.1 0.7,0.7 0.5,1 0.2,1 -0.2,0.4 -0.4,0.5 -0.8,0.4 h -0.7 l -0.8,-0.3 -0.6,-0.6 -0.8,-1 -0.6,-0.4 h -0.6 l -0.6,0.3 -0.4,0.5 0.1,0.9 0.6,1.3 m -1.6,-8.1 1,-0.1 0.8,0.3 0.7,0.7 0.1,0.2 0.1,1 -0.3,0.8 -0.6,0.6 -0.3,0.2 -1,0.1 -0.8,-0.3 -0.6,-0.7 -0.2,-0.2 -0.1,-1 0.3,-0.8 0.9,-0.8 1.4,-0.6 1.5,-0.4 1,0.1 0.7,0.7 0.3,0.5 0.1,1 -0.4,0.5 m -53.6,-6.5 0.6,0.3 0.9,-0.3 0.5,-0.3 0.5,-0.8 v -1.1 l -0.7,-1.4 -0.9,-1.2 -0.9,-0.8 -0.8,-0.1 -0.9,0.3 -0.3,0.1 -0.5,0.8 -0.2,0.9 0.3,0.9 0.2,0.2 0.8,0.6 0.8,0.1 0.9,-0.3 0.2,-0.2 0.6,-0.7 0.1,-0.9 -0.3,-0.9 m -4.1,8.3 v -5.2 l -3.7,2.7 m 3.7,2.5 -3.7,-5.1 m 70,377.6 2.8,-0.8 -0.5,-2.7 -0.2,0.4 -0.7,0.5 -0.9,0.3 h -0.9 l -0.8,-0.4 -0.5,-0.8 -0.2,-0.6 v -0.9 l 0.4,-0.8 0.8,-0.5 0.8,-0.3 h 1 l 0.4,0.2 0.4,0.5 m -6.6,7.4 1.7,-4.9 -4.4,1.4 m 2.7,3.5 -1.8,-6 m 43.5,60.6 -0.3,3 2.7,0.5 -0.3,-0.3 -0.2,-0.9 v -0.9 l 0.4,-0.9 0.7,-0.6 0.9,-0.2 0.6,0.1 0.9,0.4 0.5,0.6 0.2,0.9 -0.1,0.9 -0.3,0.9 -0.4,0.3 -0.6,0.2 m -3.1,-6.1 -0.3,-0.1 -0.5,-0.3 -0.3,-0.3 -0.2,-0.7 0.1,-1.2 0.3,-0.5 0.3,-0.3 0.7,-0.3 0.6,0.1 0.5,0.4 0.9,0.6 2.7,3.3 0.4,-4.2 m -75,87.9 -3,0.5 0.2,2.7 0.2,-0.3 0.9,-0.5 0.9,-0.1 0.9,0.1 0.7,0.5 0.4,0.8 0.1,0.6 -0.1,1 -0.5,0.7 -0.8,0.4 -0.9,0.2 -1,-0.2 -0.3,-0.2 -0.4,-0.6 m 8.1,-5.6 -0.4,-0.6 -0.9,-0.1 -0.6,0.1 -0.8,0.4 -0.5,1 v 1.6 l 0.2,1.4 0.5,1.2 0.7,0.5 1,0.1 0.2,-0.1 0.9,-0.4 0.5,-0.7 0.1,-0.9 v -0.3 l -0.5,-0.9 -0.7,-0.5 -0.9,-0.1 -0.3,0.1 -0.8,0.4 -0.5,0.7 -0.2,0.9 m -77.3,-150.1 1,0.3 0.5,-0.4 0.3,-0.5 0.1,-0.7 -0.4,-0.6 -0.8,-0.8 -0.6,-0.8 -0.2,-0.8 V 451 l 0.5,-0.8 0.5,-0.4 0.5,-0.1 0.9,0.2 1,0.7 0.6,0.7 0.1,0.4 v 0.7 l -0.5,0.7 -0.6,0.4 -0.8,0.2 -0.9,-0.2 -1.2,-0.4 h -0.7 l -0.5,0.3 -0.3,0.5 -0.1,0.7 0.6,0.7 1.2,0.7 m -2.7,-3.2 -0.6,-0.1 -1.3,0.3 3.3,-5.4 m -87,142.8 -6.5,-2.6 m 6.2,-1.6 0.3,4.2 m -1.3,1.7 h 0.3 l 0.6,0.3 0.3,0.3 0.3,0.5 0.1,1.2 -0.2,0.7 -0.3,0.3 -0.6,0.3 -0.6,0.1 -0.6,-0.3 -0.9,-0.5 -3.3,-2.8 0.4,4.2 m 50.7,18.8 -3,0.2 -0.2,2.7 0.3,-0.3 0.9,-0.4 h 0.9 l 0.9,0.3 0.6,0.5 0.4,0.9 v 0.6 l -0.3,0.9 -0.5,0.6 -0.9,0.4 h -0.9 l -0.9,-0.3 -0.3,-0.2 -0.4,-0.6 m 8.8,-5.5 -3,0.2 -0.2,2.7 0.3,-0.3 0.8,-0.4 h 0.9 l 1,0.3 0.6,0.5 0.3,0.9 v 0.6 l -0.2,0.9 -0.6,0.7 -0.9,0.3 h -0.9 l -0.9,-0.2 -0.3,-0.3 -0.3,-0.6 m -14.2,-261.3 0.9,0.2 0.7,0.6 0.4,0.8 v 0.3 l -0.2,0.9 -0.5,0.7 -0.9,0.4 h -0.3 l -0.9,-0.2 -0.7,-0.5 -0.4,-0.9 V 361 l 0.2,-0.9 0.5,-0.7 1.2,-0.4 1.5,-0.1 1.5,0.1 1,0.5 0.4,0.9 v 0.6 l -0.2,0.9 -0.6,0.4 m -4.4,-4.9 h -0.3 l -0.6,-0.2 -0.3,-0.3 -0.4,-0.5 -0.1,-1.2 0.3,-0.6 0.2,-0.4 0.6,-0.3 0.6,-0.1 0.6,0.2 1,0.6 3.2,2.6 -0.4,-4.1 m -54,-42.2 0.9,-0.4 0.2,-0.7 -0.1,-0.6 -0.4,-0.5 -0.7,-0.2 -1.2,-0.1 -0.9,-0.2 -0.7,-0.4 -0.4,-0.6 -0.2,-0.9 0.2,-0.6 0.3,-0.4 0.8,-0.4 1.2,-0.2 0.9,0.1 0.4,0.3 0.4,0.5 0.1,0.9 -0.2,0.7 -0.5,0.7 -0.8,0.4 -1.2,0.5 -0.5,0.4 -0.2,0.6 0.1,0.6 0.4,0.6 0.9,0.1 1.4,-0.2 m -5.5,0.9 0.9,-0.5 0.2,-0.6 -0.1,-0.6 -0.4,-0.5 -0.7,-0.2 -1.2,-0.1 -0.9,-0.2 -0.7,-0.5 -0.4,-0.5 -0.2,-0.9 0.2,-0.6 0.3,-0.4 0.8,-0.4 1.2,-0.2 0.9,0.1 0.4,0.3 0.4,0.5 0.1,0.9 -0.2,0.6 -0.5,0.7 -0.8,0.5 -1.1,0.5 -0.6,0.4 -0.2,0.6 0.1,0.6 0.4,0.5 1,0.2 1.3,-0.2 m -46.8,204.8 -6.4,-2.7 m 6.2,-1.5 0.2,4.2 m 0.1,1.7 0.1,3.3 -2.5,-1.7 0.1,0.9 -0.3,0.6 -0.3,0.4 -0.9,0.3 h -0.6 l -0.9,-0.2 -0.6,-0.6 -0.3,-0.9 -0.1,-0.9 0.3,-0.9 0.3,-0.3 0.6,-0.4 m 28.6,40.6 -1.5,6.8 m -2.6,-5.8 4.1,-1 m 2,1.1 -0.1,-0.3 0.2,-0.6 0.2,-0.4 0.5,-0.4 1.2,-0.3 0.6,0.2 0.4,0.2 0.4,0.5 0.1,0.6 -0.1,0.7 -0.4,1 -2.3,3.6 4.1,-0.9 m -98.2,-98.9 -1.8,6.8 m -2.4,-6 4.2,-0.8 m 1.7,-0.3 3.2,-0.6 -1.3,2.7 0.9,-0.2 0.6,0.2 0.4,0.3 0.4,0.8 0.1,0.6 -0.1,0.9 -0.5,0.7 -0.8,0.5 -0.9,0.1 -0.9,-0.1 -0.4,-0.2 -0.4,-0.6 m 10.6,-70.3 0.3,-0.9 -0.4,-0.6 -0.5,-0.3 -0.7,-0.1 -0.5,0.4 -0.9,0.8 -0.8,0.6 -0.8,0.1 h -0.7 l -0.7,-0.5 -0.4,-0.6 -0.1,-0.4 0.3,-0.9 0.6,-1 0.8,-0.6 0.4,-0.1 0.7,0.1 0.7,0.5 0.4,0.5 0.1,0.9 -0.2,0.9 -0.4,1.2 -0.1,0.6 0.3,0.6 0.5,0.3 0.7,0.1 0.7,-0.6 0.8,-1.1 m -4.9,5.9 h 0.6 l 0.8,-0.6 0.3,-0.5 0.2,-0.9 -0.4,-1 -1.1,-1 -1.2,-0.9 -1.2,-0.4 -0.8,0.2 -0.8,0.6 -0.1,0.2 -0.3,0.9 0.2,0.9 0.6,0.7 0.2,0.2 1,0.2 0.8,-0.1 0.7,-0.6 0.2,-0.3 0.2,-0.9 -0.1,-0.8 -0.6,-0.8"
       id="nums_006"
       stroke="#000000"
       stroke-width="1" />
    <path
       d="m 2783.5,81 79.2,102.9 20.6,-128.2 86.2,57.5 83.8,-60.8 40.3,82.1 -3.5,197.9 -38,85.5 -87.9,-65.2 -25.4,-125.9 -106.2,72.1 -108.4,-15.6 31.2,-121.8 z m 24.7,231.6 110.2,-18.4 12.6,125.9 88.5,53.7 113,-34.6 -14,159.4 -133.1,22.9 -105.1,3.9 -4.8,-66.4 -65,14.7 -4.6,-111.4 -109.6,20.5 z"
       id="coupes_006"
       stroke="#ff0000"
       stroke-width="1.27"
       sodipodi:nodetypes="ccccccccccccccccccccccccccc" />
    <path
       d="m 2964.2,352.7 125.9,-20.3 m -151.3,-105.6 151.3,105.6 m -151.3,-105.6 154.8,-92.3 m -124.1,-21.3 124.1,21.3 m -154.8,92.3 30.7,-113.6 m -106.8,70.7 106.8,-70.7 m -30.7,113.6 -76.1,-42.9 m -30.1,115 30.1,-115 m -138.5,99.4 138.5,-99.4 m 255.8,414.7 -99,-124.8 m -34.1,147.7 34.1,-147.7 M 2985.4,621.5 2875.5,559 m 0,0 144,-85.2 m -144,85.2 55.5,-138.9 m -55.5,138.9 -69.6,-96.7 m 0,0 125.1,-42.2 m -125.1,42.2 112.5,-168.1 m -112.5,168.1 2.3,-149.7"
       id="plisM_006"
       stroke="#a52a2a"
       stroke-dasharray="4" />
    <path
       d="m 2755.4,161.5 107.3,22.4"
       id="plisV_006"
       stroke="#008000"
       stroke-dasharray="4, 1, 1, 1"
       stroke-width="1.27" />
    <path
       d="m 2807,170.7 4,4 m 0,-4 -4,4"
       id="marqueV_006"
       stroke="#008000" />
    <path
       d="m 2921.9,162.2 -2.3,0.8 -0.7,1.5 v 1.5 l 0.7,1.5 1.5,0.7 3,0.8 2.3,0.7 1.5,1.5 0.7,1.5 v 2.3 l -0.7,1.5 -0.8,0.7 -2.2,0.8 h -3 l -2.3,-0.8 -0.7,-0.7 -0.8,-1.5 v -2.3 l 0.8,-1.5 1.5,-1.5 2.2,-0.7 3,-0.8 1.5,-0.7 0.8,-1.5 v -1.5 l -0.8,-1.5 -2.2,-0.8 h -3.4"
       id="titre_8"
       stroke="#4b0082" />
    <path
       d="m 2946.6,477.2 -0.8,2.2 -1.5,1.5 -2.2,0.8 h -0.8 l -2.2,-0.8 -1.5,-1.5 -0.8,-2.2 v -0.8 l 0.8,-2.2 1.5,-1.5 2.2,-0.8 h 0.8 l 2.2,0.8 1.5,1.5 0.8,3 v 3.7 l -0.8,3.8 -1.5,2.2 -2.2,0.8 h -1.5 l -2.3,-0.8 -0.7,-1.5"
       id="titre_9"
       stroke="#4b0082" />
  </g>
  <g
     id="page_007">
    <path
       d="m 3308.3,101.3 0.2,0.2 0.2,0.7 v 0.4 l -0.2,0.6 -0.8,0.9 -0.7,0.2 h -0.4 l -0.6,-0.2 -0.4,-0.5 -0.3,-0.6 -0.2,-1.1 v -4.2 l -2.9,3 m 2.6,6.3 0.4,-0.8 -0.2,-0.7 -0.5,-0.4 -0.6,-0.2 -0.6,0.2 -1.1,0.6 -0.8,0.5 h -0.9 l -0.6,-0.2 -0.7,-0.7 -0.2,-0.6 v -0.4 l 0.4,-0.9 0.9,-0.8 0.8,-0.5 h 0.5 l 0.6,0.2 0.6,0.7 0.2,0.6 v 0.9 l -0.4,0.8 -0.6,1.1 -0.2,0.6 0.2,0.6 0.4,0.5 0.7,0.2 0.8,-0.4 1,-1 m -42.2,178.8 h 0.3 l 0.6,0.3 0.3,0.3 0.3,0.7 -0.1,1.2 -0.3,0.5 -0.3,0.3 -0.6,0.3 h -0.6 l -0.6,-0.3 -0.9,-0.6 -2.9,-3.1 -0.1,4.2 m 4.1,5.2 -0.9,-0.4 -0.6,-0.6 -0.3,-0.9 v -0.3 l 0.4,-0.9 0.6,-0.6 0.9,-0.2 h 0.3 l 0.9,0.3 0.6,0.6 0.2,0.9 v 0.3 l -0.3,0.9 -0.6,0.6 -1.2,0.3 -1.5,-0.1 -1.5,-0.3 -0.9,-0.6 -0.3,-0.9 v -0.6 l 0.4,-0.9 0.6,-0.3 m 246.5,-210.9 0.8,0.5 0.4,0.7 0.1,1 v 0.3 l -0.5,0.8 -0.7,0.4 -1,0.1 h -0.3 l -0.8,-0.5 -0.4,-0.8 -0.1,-0.9 v -0.3 l 0.5,-0.8 0.7,-0.5 h 1.3 l 1.4,0.3 1.4,0.7 0.8,0.7 0.1,1 -0.1,0.6 -0.5,0.8 -0.7,0.1 m -3.6,-8.8 3.4,3.8 1,-4.4 m -4.4,0.6 6.1,1.3 m -76,-26.1 -0.5,0.4 -0.8,1.1 -1,-6.2 m -22.6,149.2 h 0.7 l 1.2,-0.3 -3.1,5.5 m 5.8,-4.2 -0.9,-0.2 -1,0.5 -1,1.1 -0.4,0.8 -0.5,1.5 0.1,1.1 0.6,0.7 0.5,0.2 1,0.2 0.9,-0.5 1,-1.1 0.5,-0.8 0.4,-1.5 v -1.1 l -0.7,-0.7 -0.4,-0.2 m 2.2,2.9 h 0.7 l 1.2,-0.3 -3.1,5.5 m -23.5,184.4 V 388 l -0.3,-1.2 5.4,3.1 m -4.1,-5.8 -0.2,0.9 0.5,1 1.1,1 0.8,0.5 1.4,0.5 1.1,-0.1 0.7,-0.6 0.3,-0.6 0.2,-0.9 -0.5,-1 -1.1,-1 -0.8,-0.4 -1.5,-0.5 -1,0.1 -0.7,0.6 -0.3,0.4 m 2,-3.5 1.7,-2.8 1.2,2.7 0.4,-0.8 0.6,-0.3 0.4,-0.1 0.9,0.2 0.5,0.3 0.7,0.7 0.2,0.8 -0.2,0.9 -0.5,0.8 -0.7,0.6 -0.4,0.1 h -0.7 m 149.8,-224.3 0.7,-0.7 0.8,-0.3 0.9,0.1 0.3,0.1 0.7,0.6 0.3,0.8 -0.1,1 -0.1,0.2 -0.7,0.7 -0.7,0.3 -1,-0.1 -0.3,-0.1 -0.7,-0.6 -0.3,-0.8 0.2,-1.2 0.7,-1.4 0.8,-1.3 0.9,-0.5 1,0.1 0.5,0.2 0.7,0.6 0.1,0.7 m -9.5,0.7 v 0.7 l 0.7,0.6 0.6,0.3 0.9,0.1 1,-0.6 0.8,-1.2 0.6,-1.4 0.3,-1.2 -0.3,-0.8 -0.7,-0.7 -0.3,-0.1 -1,-0.1 -0.8,0.3 -0.6,0.7 -0.1,0.3 -0.1,0.9 0.3,0.8 0.7,0.7 0.3,0.1 0.9,0.1 0.8,-0.3 0.6,-0.7 m -132.4,357.2 -0.6,-0.2 -1.3,0.1 4.1,-4.7 m -6.5,3 0.9,0.3 1.1,-0.3 1.2,-0.9 0.6,-0.7 0.7,-1.3 0.2,-1.1 -0.5,-0.8 -0.5,-0.4 -0.9,-0.4 -1,0.3 -1.2,1 -0.6,0.6 -0.8,1.4 -0.1,1 0.5,0.9 0.3,0.3 m -5,-4.3 5.1,-1.2 -3.4,-2.9 m -1.7,4.1 4.2,-4.7 m -144,68.2 0.6,-0.2 1,-0.7 -0.8,6.2 m 1.7,-4.9 0.7,-0.2 1,-0.8 -0.9,6.3 m 3.8,-6.1 -0.9,0.2 -0.7,0.8 -0.5,1.5 -0.2,0.9 0.1,1.5 0.5,1 0.8,0.4 0.6,0.1 1,-0.2 0.7,-0.8 0.5,-1.5 0.1,-0.8 -0.1,-1.6 -0.4,-0.9 -0.9,-0.5 h -0.4 m -31.3,-64.8 0.8,-2.9 -2.5,-1 0.2,0.3 v 1 l -0.2,0.9 -0.5,0.8 -0.8,0.4 h -0.9 l -0.6,-0.1 -0.8,-0.6 -0.4,-0.7 v -1 l 0.2,-0.8 0.5,-0.8 0.4,-0.2 0.7,-0.1 m 2.1,6 0.1,0.7 0.7,1.1 -6.1,-1.7 m 397.4,-300.7 -0.7,-0.1 -1.2,0.2 3.6,-5.1 m -6.2,3.6 0.9,0.3 1,-0.4 1.1,-1.1 0.6,-0.7 0.6,-1.4 v -1.1 l -0.6,-0.8 -0.5,-0.3 -0.9,-0.3 -1,0.4 -1.1,1.1 -0.5,0.7 -0.6,1.4 v 1.1 l 0.5,0.8 0.4,0.2 m -4,-2.8 0.9,0.3 0.6,-0.3 0.3,-0.5 0.1,-0.7 -0.3,-0.6 -0.8,-0.9 -0.6,-0.8 -0.1,-0.8 0.1,-0.7 0.5,-0.7 0.6,-0.3 0.4,-0.1 0.9,0.3 1,0.6 0.6,0.8 v 0.4 l -0.1,0.7 -0.5,0.7 -0.6,0.3 -0.8,0.2 -0.9,-0.3 -1.2,-0.4 -0.6,-0.1 -0.6,0.3 -0.4,0.5 -0.1,0.7 0.6,0.7 1.1,0.8 m 33.3,73 -0.4,-0.6 -0.9,-0.9 6.3,-0.1 m -5.1,-1 -0.3,-0.6 -1,-0.8 6.3,-0.2 m -6.6,-4.1 4.2,2.9 -0.1,-4.5 m -4.1,1.6 6.3,-0.2 m -40.7,25 h 0.7 l 1.2,-0.4 -2.7,5.6 m 3.2,-4.1 h 0.6 l 1.2,-0.5 -2.7,5.7 m 4.4,-5.1 3,1.4 -2.7,1.4 0.8,0.4 0.4,0.5 0.2,0.4 -0.1,1 -0.3,0.5 -0.6,0.7 -0.8,0.3 -1,-0.1 -0.8,-0.4 -0.7,-0.7 -0.1,-0.4 v -0.6 m -61.8,324.9 2.1,-2.5 0.7,2.9 0.6,-0.7 0.6,-0.3 h 0.4 l 0.9,0.3 0.4,0.4 0.6,0.8 v 0.8 l -0.3,0.9 -0.6,0.7 -0.8,0.5 -0.4,0.1 -0.6,-0.2 m 3.5,-9 0.5,0.8 0.1,0.8 -0.4,0.9 -0.2,0.2 -0.8,0.5 -0.8,0.1 -0.9,-0.3 -0.2,-0.2 -0.5,-0.8 -0.1,-0.9 0.3,-0.8 0.2,-0.3 0.8,-0.5 0.9,-0.1 1.1,0.6 1.1,0.9 1,1.2 0.3,1 -0.3,0.9 -0.4,0.5 -0.8,0.5 -0.6,-0.2 m 23.7,-84.4 0.4,-3.3 2.2,2.1 0.1,-0.9 0.3,-0.6 0.4,-0.2 0.9,-0.2 0.6,0.1 0.9,0.4 0.5,0.7 0.2,0.9 -0.1,0.9 -0.5,0.8 -0.3,0.3 -0.6,0.2 m -4.2,-7.4 0.2,0.9 0.5,0.4 h 0.6 l 0.6,-0.2 0.4,-0.5 0.5,-1.2 0.4,-0.8 0.7,-0.6 0.6,-0.2 0.9,0.1 0.5,0.4 0.3,0.3 0.2,1 -0.2,1.2 -0.4,0.8 -0.3,0.3 -0.7,0.2 -0.8,-0.1 -0.6,-0.4 -0.5,-0.7 -0.2,-0.9 -0.1,-1.2 -0.3,-0.6 -0.5,-0.4 -0.6,-0.1 -0.7,0.2 -0.4,0.9 -0.1,1.3 m -101.8,-56.1 0.2,0.7 0.7,1 -6.2,-1.3 m 5.8,4.3 -0.1,-1 -0.8,-0.8 -1.4,-0.6 -0.9,-0.1 h -1.5 l -1,0.4 -0.5,0.8 -0.1,0.6 0.1,0.9 0.8,0.8 1.4,0.6 0.9,0.2 h 1.5 l 1,-0.4 0.5,-0.9 0.1,-0.4 m -1.3,6.4 -3.5,-3.8 -0.9,4.4 m 4.4,-0.6 -6.2,-1.3 m -76.4,-266.1 -0.7,-0.1 -1.2,0.3 3.5,-5.2 m -6.1,3.6 0.9,0.3 1,-0.4 1.1,-1 0.5,-0.8 0.6,-1.4 0.1,-1.1 -0.6,-0.7 -0.5,-0.4 -0.9,-0.2 -1,0.4 -1.1,1 -0.5,0.8 -0.6,1.4 -0.1,1 0.6,0.8 0.4,0.3 m -1.9,-3.1 -0.7,-0.1 -1.3,0.2 3.6,-5.1 m 40,77 -0.1,-0.7 -0.5,-1.2 5.9,2.2 m -5.1,-5 v 1 l 0.6,0.8 1.3,0.8 0.9,0.4 1.5,0.2 1,-0.3 0.6,-0.7 0.2,-0.6 0.1,-0.9 -0.7,-0.9 -1.3,-0.8 -0.8,-0.3 -1.5,-0.2 -1.1,0.2 -0.6,0.7 -0.1,0.5 m 2.7,-3.2 -0.2,-0.1 -0.5,-0.5 -0.2,-0.4 v -0.6 l 0.4,-1.1 0.5,-0.5 0.3,-0.2 0.7,-0.1 0.6,0.3 0.4,0.4 0.7,0.9 1.7,3.9 1.5,-4 m 16.9,-11.8 0.1,0.6 0.5,1.2 -5.9,-2.2 m 5.1,5 v -0.9 l -0.6,-0.9 -1.3,-0.8 -0.9,-0.3 -1.5,-0.2 -1,0.2 -0.6,0.8 -0.2,0.5 v 1 l 0.6,0.9 1.3,0.7 0.9,0.4 1.5,0.2 1,-0.3 0.6,-0.7 0.2,-0.4 m -2.4,6.5 1,-2.8 -2.4,-1.2 0.1,0.4 v 0.9 l -0.3,0.9 -0.6,0.7 -0.7,0.4 h -1 l -0.6,-0.2 -0.7,-0.6 -0.4,-0.8 0.1,-0.9 0.3,-0.9 0.6,-0.7 0.3,-0.2 0.7,-0.1 m 77.7,44.3 0.1,-0.6 -0.1,-1.3 4.8,4.1 m -3.2,-4.1 0.2,-0.7 -0.1,-1.2 4.8,4.1 m -3.8,-5.6 2.1,-2.5 0.7,2.9 0.5,-0.6 0.7,-0.3 h 0.4 l 0.9,0.3 0.4,0.4 0.5,0.8 0.1,0.9 -0.4,0.9 -0.6,0.6 -0.8,0.5 -0.4,0.1 -0.6,-0.2 m -61.6,3.6 0.7,0.1 1.2,-0.1 -3.8,5 m 3.9,-3.4 0.7,0.1 1.3,-0.2 -3.8,5 m 3.9,-3.4 0.6,0.1 1.3,-0.1 -3.8,5 m 86.7,38.8 -0.4,0.6 -0.2,1.2 -3.6,-5.1 m 1.3,7 0.6,-0.8 v -1.1 l -0.7,-1.4 -0.5,-0.7 -1.1,-1.1 -1,-0.3 -0.9,0.2 -0.5,0.4 -0.6,0.7 0.1,1.1 0.6,1.4 0.5,0.8 1.1,1 1,0.4 0.9,-0.3 0.4,-0.2 m -3.3,2.3 -2.6,1.9 v -3 l -0.7,0.5 -0.7,0.1 -0.4,-0.1 -0.7,-0.6 -0.4,-0.4 -0.3,-1 0.2,-0.8 0.6,-0.8 0.7,-0.5 0.9,-0.2 h 0.4 l 0.6,0.3 m 47.5,31.7 h -0.3 l -0.6,-0.4 -0.2,-0.3 -0.2,-0.7 0.1,-1.2 0.4,-0.5 0.3,-0.3 0.7,-0.2 0.6,0.1 0.5,0.4 0.8,0.7 2.6,3.4 0.6,-4.2 m -6,-2.6 0.4,-3.2 2.2,2.1 0.1,-0.9 0.4,-0.6 0.3,-0.2 0.9,-0.2 0.6,0.1 0.9,0.4 0.5,0.7 0.2,0.9 -0.2,0.9 -0.4,0.9 -0.3,0.2 -0.7,0.2 m -310.4,240.9 v 0.7 l 0.4,1.2 -5.6,-2.9 m 4,3.3 v 0.7 l 0.4,1.2 -5.6,-2.9 m 4.4,5.6 0.1,-0.9 -0.5,-1 -1.2,-1 -0.8,-0.4 -1.4,-0.4 -1.1,0.1 -0.7,0.7 -0.3,0.5 -0.1,0.9 0.5,1 1.2,0.9 0.8,0.5 1.4,0.4 1.1,-0.1 0.7,-0.7 0.2,-0.4 m 100.2,19.4 3.3,-0.3 -1.5,2.6 0.9,-0.2 0.6,0.3 0.4,0.2 0.4,0.9 v 0.6 l -0.1,0.9 -0.6,0.7 -0.8,0.4 -0.9,0.1 -1,-0.2 -0.3,-0.3 -0.4,-0.5 m 8.3,-6.1 -3,0.3 0.1,2.7 0.2,-0.3 0.9,-0.4 0.9,-0.1 0.9,0.2 0.7,0.5 0.4,0.9 v 0.6 l -0.2,0.9 -0.5,0.7 -0.8,0.4 -0.9,0.1 -1,-0.2 -0.3,-0.3 -0.4,-0.5"
       id="nums_007"
       stroke="#000000"
       stroke-width="1" />
    <path
       d="m 3599.8,175.4 63.1,44.2 2.7,101 -84.6,-40 -60.9,71.1 -69.2,-52.5 21.9,-60.6 -122.4,-68.5 115.3,79.9 -24.6,66 -81.1,140.8 110.2,95.4 29.5,-142.7 132.9,-93.5 -21.9,155.8 -15.9,124.9 -45.2,55.4 -275.6,32.4 51.3,-97.7 -109.3,-15.7 36.2,-131 7.2,-299.3 81.3,-81.6 182.2,-30 -22.8,101.9 z"
       id="coupes_007"
       stroke="#ff0000"
       stroke-width="1.27"
       sodipodi:nodetypes="cccccccccccccccccccccccccc" />
    <path
       d="m 3340.7,59.2 9.7,110.9 m 0,0 -91,-29.3 m 81.3,-81.6 159.4,71.9 m 0,0 -149.7,39 m 0,0 -98.2,270 m 98.2,-270 9.6,286.7 m 140.1,-325.7 80.9,149.5 m 0,0 -108.2,-42 m -112.8,218.2 -34.7,130 m 0,0 -73.1,-146.7 M 3599.8,175.4 3581,280.6 m -110.8,271.6 -144.9,34.6 m 337.6,-367.2 -81.9,61 m -31.4,371.5 -224.3,-65.3 m 144.9,-34.6 79.4,99.9 m -79.4,-99.9 124.6,44.5 M 3581,280.6 3450.9,299.2"
       id="plisM_007"
       stroke="#a52a2a"
       stroke-dasharray="4" />
    <path
       d="m 3500.1,131.1 -27.3,107.5 M 3360,456.8 3252.2,440.1 m 98.2,-270 90.7,145.9 m 29.1,236.2 140.5,-80.4 m -111,-62.3 111,62.3"
       id="plisV_007"
       stroke="#008000"
       stroke-dasharray="4, 1, 1, 1"
       stroke-width="1.27" />
    <path
       d="m 3484.4,182.9 4,4 m 0,-4 -4,4 m -180.3,259.5 4,4 m 0,-4 -4,4 m 89.7,-209.3 4,4 m 0,-4 -4,4 m 144.6,264.9 4,4 m 0,-4 -4,4 m 14.8,-75.3 4,4 m 0,-4 -4,4"
       id="marqueV_007"
       stroke="#008000" />
    <path
       d="m 3375.6,305.5 1.5,-0.8 2.3,-2.2 v 15.7 m 5.8,-16.3 -2.2,0.8 -1.5,2.2 -0.8,3.8 v 2.2 l 0.8,3.8 1.5,2.2 2.2,0.8 h 1.5 l 2.3,-0.8 1.5,-2.2 0.7,-3.8 v -2.2 l -0.7,-3.8 -1.5,-2.2 -2.3,-0.8 h -1.1"
       id="titre_10"
       stroke="#4b0082" />
  </g>
  <g
     id="page_008">
    <path
       d="m 3996.6,659 0.6,0.1 1.3,-0.3 -3.5,5.3 m 3.7,-3.7 0.7,0.1 1.2,-0.2 -3.5,5.2 m 7.3,-3.1 -4.9,1.8 3.8,2.5 m 1.1,-4.3 -3.5,5.3 m 12.9,-79.2 -0.2,0.7 0.1,1.2 -4.6,-4.3 m 3,4.3 -0.2,0.6 v 1.3 l -4.5,-4.4 m 1.4,8 2.1,-2.2 -1.8,-2.1 v 0.4 l -0.4,0.9 -0.6,0.6 -0.8,0.5 h -0.9 l -0.9,-0.4 -0.4,-0.4 -0.4,-0.9 v -0.8 l 0.4,-0.9 0.6,-0.6 0.8,-0.5 h 0.4 l 0.7,0.2 m 195.5,-106.7 5.2,0.5 -2.3,-3.9 m -2.9,3.4 5.5,-3.2 m -6.9,-3.6 1,-0.2 0.8,0.2 0.7,0.7 0.1,0.2 0.2,1 -0.2,0.8 -0.6,0.7 -0.3,0.1 -0.9,0.2 -0.8,-0.2 -0.7,-0.6 -0.2,-0.3 -0.2,-0.9 0.2,-0.8 0.9,-0.9 1.3,-0.7 1.5,-0.5 h 1.1 l 0.7,0.7 0.3,0.5 0.2,0.9 -0.4,0.6 m 0.3,-114.2 0.9,-3.1 1.8,2.4 0.3,-0.9 0.4,-0.5 0.4,-0.2 h 1 l 0.5,0.2 0.8,0.5 0.4,0.8 v 0.9 l -0.2,0.9 -0.6,0.8 -0.3,0.2 -0.7,0.1 m -1.4,-9.8 -0.7,0.1 -0.6,0.8 -0.1,0.5 v 1 l 0.7,0.8 1.3,0.8 1.5,0.4 h 1.2 l 0.8,-0.4 0.5,-0.7 0.1,-0.3 v -1 l -0.4,-0.7 -0.8,-0.6 h -0.3 -0.9 l -0.8,0.4 -0.5,0.8 -0.1,0.2 v 1 l 0.4,0.7 0.8,0.6 m -65.8,-52.7 -0.1,0.7 0.1,1.3 -4.9,-4 m 3.2,6.4 0.3,-0.9 -0.3,-1 -1,-1.2 -0.7,-0.6 -1.3,-0.7 -1.1,-0.1 -0.8,0.5 -0.4,0.4 -0.3,0.9 0.3,1.1 1,1.1 0.7,0.6 1.3,0.7 1.1,0.1 0.8,-0.5 0.3,-0.3 m -3.3,4 0.3,-0.9 -0.3,-1 -1,-1.2 -0.7,-0.6 -1.3,-0.7 -1.1,-0.1 -0.8,0.5 -0.4,0.5 -0.3,0.9 0.3,1 1,1.2 0.7,0.6 1.3,0.7 1.1,0.1 0.8,-0.5 0.3,-0.4 m 73.8,-52.9 0.8,-0.5 h 0.8 l 0.9,0.3 0.2,0.2 0.5,0.8 v 0.9 l -0.3,0.9 -0.2,0.2 -0.8,0.5 h -0.9 l -0.9,-0.4 -0.2,-0.2 -0.5,-0.8 v -0.8 l 0.6,-1.1 1,-1.1 1.2,-1 1,-0.2 0.9,0.3 0.4,0.4 0.5,0.8 -0.2,0.7 m -9.8,-1.5 2.3,2 2,-1.8 h -0.4 l -0.9,-0.4 -0.7,-0.6 -0.5,-0.8 v -0.8 l 0.4,-0.9 0.4,-0.5 0.8,-0.4 0.8,-0.1 0.9,0.4 0.7,0.6 0.4,0.8 0.1,0.4 -0.2,0.7 m -139.7,419.2 0.6,-0.4 0.6,-1.1 1.5,6.1 m -0.2,-5.2 0.6,-0.4 0.6,-1.1 1.5,6.1 m -0.2,-5.2 0.5,-0.4 0.7,-1.1 1.5,6.1 m 132.6,-140.3 3.9,3.4 0.4,-4.5 m -4.3,1.1 6.2,0.5 m -4.8,-6.6 -0.6,0.2 -0.4,0.9 v 0.6 l 0.2,0.9 0.8,0.7 1.5,0.4 1.5,0.1 1.2,-0.2 0.7,-0.5 0.3,-0.9 0.1,-0.3 -0.3,-0.9 -0.5,-0.7 -0.9,-0.3 -0.3,-0.1 -0.9,0.3 -0.7,0.5 -0.3,0.9 -0.1,0.3 0.3,0.9 0.5,0.7 0.9,0.3 m -234.7,30.9 0.4,-0.6 0.2,-1.2 3.4,5.3 m -1.8,-4.9 0.3,-0.5 0.3,-1.3 3.4,5.3 m 0.5,-8 -2.6,1.6 1.2,2.5 0.1,-0.5 0.6,-0.7 0.8,-0.5 0.9,-0.2 0.8,0.2 0.8,0.6 0.3,0.5 0.2,0.9 -0.2,0.8 -0.6,0.8 -0.7,0.4 -0.9,0.3 -0.4,-0.1 -0.6,-0.4 m -69.9,-2.8 0.5,0.5 1.1,0.5 -5.8,2.3 m 7.1,0.4 -0.6,-0.8 -1,-0.2 -1.6,0.3 -0.8,0.3 -1.3,0.9 -0.6,0.8 0.1,1 0.2,0.6 0.6,0.7 1.1,0.2 1.5,-0.3 0.8,-0.3 1.3,-0.9 0.6,-0.8 -0.1,-1 -0.1,-0.4 m 1.8,4.5 -0.6,-0.7 h -0.7 l -0.5,0.2 -0.5,0.5 v 0.7 l 0.1,1.2 0.1,0.9 -0.4,0.8 -0.4,0.5 -0.8,0.3 h -0.7 l -0.4,-0.2 -0.6,-0.7 -0.4,-1.1 -0.1,-1 0.2,-0.4 0.4,-0.5 0.8,-0.3 0.7,0.1 0.8,0.3 0.6,0.7 0.7,1 0.5,0.5 h 0.7 l 0.6,-0.2 0.4,-0.5 -0.1,-0.9 -0.5,-1.3 m 176.2,-279.3 -0.1,-0.7 -0.5,-1.2 5.9,2.4 m -5,-5.2 v 1 l 0.6,0.8 1.3,0.9 0.8,0.3 1.5,0.3 1.1,-0.2 0.6,-0.8 0.2,-0.5 v -1 l -0.6,-0.9 -1.2,-0.8 -0.9,-0.3 -1.5,-0.3 -1,0.2 -0.7,0.7 -0.1,0.5 m 1.9,-4.9 -0.1,1 0.7,0.9 1.2,0.8 0.9,0.3 1.5,0.3 1,-0.2 0.7,-0.7 0.2,-0.6 v -0.9 l -0.6,-0.9 -1.3,-0.9 -0.8,-0.3 -1.5,-0.3 -1.1,0.3 -0.6,0.7 -0.1,0.4 m -185,200.4 -0.9,-0.4 -0.4,-0.7 -0.2,-1 0.1,-0.3 0.5,-0.8 0.7,-0.5 0.9,-0.1 0.3,0.1 0.8,0.4 0.5,0.7 0.1,1 v 0.3 l -0.5,0.8 -0.7,0.5 h -1.2 l -1.5,-0.3 -1.4,-0.5 -0.8,-0.8 -0.1,-0.9 0.1,-0.6 0.5,-0.9 0.6,-0.1 m 2.8,9 0.7,-0.2 0.5,-0.8 0.1,-0.6 -0.2,-0.9 -0.7,-0.8 -1.4,-0.6 -1.5,-0.2 h -1.3 l -0.7,0.5 -0.4,0.8 -0.1,0.3 0.1,1 0.5,0.7 0.9,0.4 0.2,0.1 1,-0.1 0.7,-0.5 0.5,-0.8 V 491 l -0.1,-1 -0.5,-0.7 -0.8,-0.4 m 6.2,-108.5 -0.9,-0.1 -0.7,-0.6 -0.4,-0.8 v -0.3 l 0.2,-1 0.5,-0.6 0.9,-0.4 0.3,-0.1 0.9,0.2 0.7,0.6 0.4,0.8 v 0.3 l -0.2,0.9 -0.5,0.7 -1.2,0.4 -1.5,0.2 -1.5,-0.1 -1,-0.5 -0.4,-0.9 v -0.6 l 0.2,-0.9 0.5,-0.3 m 6.4,7.2 -4.6,-2.5 0.6,4.4 m 4,-1.9 -6.3,0.7 m 116.2,-110.4 -3,1.6 0.5,-3 -0.8,0.4 h -0.6 l -0.4,-0.1 -0.7,-0.6 -0.3,-0.6 -0.2,-0.9 0.3,-0.8 0.7,-0.7 0.7,-0.4 1,-0.2 0.4,0.2 0.5,0.3 m -3.9,7.9 0.6,-0.7 0.1,-1.1 -0.4,-1.4 -0.4,-0.8 -1,-1.2 -0.9,-0.6 -1,0.2 -0.5,0.3 -0.6,0.7 -0.2,1 0.5,1.5 0.4,0.8 0.9,1.2 1,0.5 0.9,-0.1 0.4,-0.3 m 116.5,407.7 0.7,0.2 1.2,-0.2 -3.9,4.9 m 6.4,-3.2 -0.9,-0.3 -1.1,0.3 -1.1,1 -0.6,0.7 -0.7,1.3 -0.1,1.1 0.5,0.8 0.5,0.4 0.8,0.3 1.1,-0.3 1.2,-1 0.5,-0.7 0.7,-1.3 0.1,-1.1 -0.5,-0.8 -0.3,-0.3 m 5.4,4.4 -2.3,-1.9 -2,1.9 h 0.5 l 0.8,0.3 0.7,0.6 0.6,0.8 v 0.8 l -0.3,0.9 -0.4,0.5 -0.8,0.5 -0.8,0.1 -0.9,-0.4 -0.7,-0.5 -0.5,-0.8 v -0.4 l 0.1,-0.7 m 51.3,22.7 0.7,-0.2 1.1,-0.6 -1.7,6.1 m 4.6,-5.5 h -1 l -0.8,0.7 -0.7,1.4 -0.2,0.9 -0.1,1.5 0.3,1 0.8,0.6 0.6,0.1 h 1 l 0.8,-0.7 0.6,-1.4 0.3,-0.9 0.1,-1.5 -0.4,-1 -0.7,-0.6 -0.5,-0.1 m 3.4,2.5 0.1,-0.3 0.4,-0.5 0.4,-0.2 0.7,-0.1 1.1,0.3 0.5,0.4 0.2,0.4 0.2,0.6 -0.2,0.6 -0.4,0.5 -0.9,0.7 -3.6,2.1 4,1.1 m 10.3,-67.3 4.6,2.5 -0.6,-4.5 m -4,2 6.3,-0.8 m -6.9,-5.4 0.3,3 2.7,-0.1 -0.3,-0.2 -0.4,-0.9 -0.1,-0.9 0.2,-0.9 0.5,-0.7 0.9,-0.4 h 0.6 l 0.9,0.1 0.7,0.6 0.4,0.8 0.1,0.9 -0.2,1 -0.3,0.3 -0.5,0.4"
       id="nums_008"
       stroke="#000000"
       stroke-width="1" />
    <path
       d="m 4146.3,208.7 -67.7,170.4 116.5,-141.6 46,40.7 -50.4,166.6 36.7,63.7 -4.8,64.4 19.4,160.8 -68.1,-18.4 -50,-40.5 -84.5,20.7 -84.2,-55.6 100.3,-104.7 -122.3,77.9 -28.7,-71.6 20.6,-107.1 -12.1,-103.7 z"
       id="coupes_008"
       stroke="#ff0000"
       stroke-width="1.27"
       sodipodi:nodetypes="cccccccccccccccccc" />
    <path
       d="m 4055.5,535.2 -16.1,160.3 m 151.3,-250.7 -151.3,250.7 m 16.1,-160.3 135.2,-90.4 m 36.7,63.7 -188,187 m 16.1,-160.3 185.6,-257 m -185.6,257 23.1,-156.1 m 0,0 162.5,-100.9 m -13.7,230.3 -103.5,166.3 m 98.7,-101.9 -98.7,101.9 m -190.7,-61.7 145.4,-234 m -174.1,162.4 174.1,-162.4"
       id="plisM_008"
       stroke="#a52a2a"
       stroke-dasharray="4" />
    <path
       d="m 3904.5,541.5 241.8,-332.8 m -221.2,225.7 221.2,-225.7 m 76.3,364.2 -48.7,142.4"
       id="plisV_008"
       stroke="#008000"
       stroke-dasharray="4, 1, 1, 1"
       stroke-width="1.27" />
    <path
       d="m 4023.4,373.1 4,4 m 0,-4 -4,4 m 10.3,-57.6 4,4 m 0,-4 -4,4 m 162.6,318.6 4,4 m 0,-4 -4,4"
       id="marqueV_008"
       stroke="#008000" />
    <path
       d="m 4090.5,549.7 1.5,-0.8 2.2,-2.2 v 15.7 m 1.2,-12.7 1.5,-0.8 2.2,-2.2 v 15.7"
       id="titre_11"
       stroke="#4b0082" />
  </g>
  <g
     id="page_009">
    <path
       d="m 4466.1,314.8 0.8,0.6 0.3,0.8 v 0.9 l -0.1,0.3 -0.6,0.8 -0.8,0.3 h -0.9 l -0.3,-0.1 -0.7,-0.6 -0.4,-0.8 v -0.9 l 0.1,-0.3 0.6,-0.7 0.8,-0.4 1.2,0.1 1.4,0.5 1.3,0.8 0.7,0.9 v 0.9 l -0.2,0.6 -0.6,0.7 -0.7,0.1 m -0.2,-9.2 0.8,0.6 0.3,0.7 v 1 l -0.1,0.3 -0.6,0.7 -0.7,0.4 -1,-0.1 -0.3,-0.1 -0.7,-0.6 -0.4,-0.7 v -1 l 0.1,-0.3 0.6,-0.7 0.8,-0.4 1.2,0.2 1.4,0.5 1.3,0.8 0.7,0.8 v 1 l -0.2,0.6 -0.6,0.7 -0.7,0.1 m -123.5,115.7 -0.9,-0.2 -0.7,-0.4 -0.5,-0.8 -0.1,-0.3 0.1,-1 0.5,-0.7 0.8,-0.5 h 0.3 l 0.9,0.1 0.7,0.4 0.5,0.9 0.1,0.3 -0.1,0.9 -0.5,0.7 -1.1,0.6 -1.5,0.3 h -1.5 l -1,-0.4 -0.5,-0.8 -0.1,-0.6 0.1,-1 0.5,-0.4 m 126.5,15.5 h 1 l 0.7,0.3 0.6,0.8 0.1,0.2 0.1,1 -0.4,0.8 -0.7,0.6 -0.3,0.1 h -1 l -0.7,-0.4 -0.6,-0.7 -0.1,-0.3 -0.1,-0.9 0.4,-0.8 1,-0.7 1.4,-0.5 1.5,-0.3 1.1,0.3 0.6,0.7 0.2,0.6 v 0.9 l -0.4,0.5 m -7.3,-4 0.6,0.8 0.7,0.1 0.6,-0.3 0.4,-0.4 0.1,-0.7 -0.1,-1.2 -0.1,-1 0.4,-0.8 0.4,-0.5 0.9,-0.3 0.7,0.1 0.3,0.2 0.6,0.7 0.4,1.2 0.1,0.9 -0.2,0.4 -0.5,0.5 -0.8,0.3 -0.7,-0.1 -0.7,-0.3 -0.6,-0.8 -0.7,-1 -0.5,-0.5 h -0.7 l -0.6,0.2 -0.4,0.5 v 0.9 l 0.5,1.3 m -32.8,156.7 0.3,-0.6 -0.4,-0.9 -0.4,-0.5 -0.8,-0.4 -1.1,0.1 -1.3,0.8 -1.1,1 -0.7,1 -0.1,0.8 0.4,0.9 0.2,0.2 0.8,0.5 0.9,0.1 0.8,-0.4 0.3,-0.2 0.4,-0.8 0.1,-0.9 -0.4,-0.8 -0.2,-0.3 -0.8,-0.4 -0.9,-0.1 -0.8,0.4 m 100.3,39.3 0.4,0.8 -0.1,0.9 -0.4,0.8 -0.3,0.2 -0.8,0.4 -0.9,-0.1 -0.8,-0.4 -0.2,-0.3 -0.4,-0.8 0.1,-0.9 0.4,-0.8 0.3,-0.2 0.8,-0.4 0.9,0.1 1,0.7 1,1.1 0.8,1.3 0.1,1.1 -0.4,0.8 -0.5,0.4 -0.9,0.4 -0.6,-0.3 m 3,-9.9 1.9,6.7 m -5,-3.9 3.1,-2.8 m -178.3,-410.9 -0.6,0.2 -1,0.8 0.7,-6.3 m -3.7,6.2 1,-0.2 0.7,-0.9 0.4,-1.4 0.1,-0.9 -0.1,-1.5 -0.5,-1 -0.8,-0.4 -0.6,-0.1 -0.9,0.2 -0.8,0.8 -0.4,1.5 -0.1,0.9 0.1,1.5 0.5,1 0.8,0.4 h 0.5 m -6.9,-1.7 0.3,0.6 0.8,0.4 0.6,0.1 0.9,-0.2 0.7,-0.8 0.5,-1.5 0.2,-1.4 -0.2,-1.3 -0.5,-0.6 -0.8,-0.4 -0.3,-0.1 -1,0.2 -0.6,0.5 -0.4,0.9 -0.1,0.3 0.2,0.9 0.5,0.7 0.9,0.4 h 0.3 l 0.9,-0.2 0.7,-0.5 0.4,-0.8 m -21.7,50.8 -4.4,-2.7 0.3,4.5 m 4.1,-1.8 -6.3,0.4 m 6.4,2.8 0.2,3.3 -2.5,-1.6 0.1,0.9 -0.3,0.6 -0.3,0.3 -0.8,0.4 h -0.6 l -1,-0.2 -0.6,-0.6 -0.4,-0.9 v -0.9 l 0.2,-0.9 0.3,-0.3 0.6,-0.3 m 232.7,178.3 -0.2,0.7 0.1,1.2 -4.8,-4 m 3.1,6.5 0.4,-0.9 -0.3,-1.1 -1,-1.2 -0.7,-0.5 -1.3,-0.8 -1.1,-0.1 -0.8,0.5 -0.4,0.5 -0.4,0.9 0.4,1 0.9,1.2 0.7,0.6 1.4,0.7 1,0.1 0.8,-0.5 0.3,-0.3 m -6.2,4.3 -0.5,-0.8 -0.1,-0.9 0.3,-0.9 0.2,-0.2 0.8,-0.5 0.9,-0.1 0.9,0.4 0.2,0.1 0.5,0.8 0.1,0.9 -0.4,0.9 -0.2,0.2 -0.8,0.5 -0.8,0.1 -1.1,-0.5 -1.2,-1 -1,-1.2 -0.3,-1 0.4,-0.9 0.4,-0.5 0.8,-0.5 0.6,0.2 m 72.5,21.1 1.4,2.7 2.5,-0.9 -0.4,-0.1 -0.7,-0.7 -0.4,-0.8 -0.1,-1 0.3,-0.8 0.7,-0.6 0.5,-0.3 0.9,-0.1 0.8,0.2 0.7,0.7 0.4,0.8 0.1,1 -0.1,0.4 -0.4,0.5 m -7.8,-4.1 0.7,0.6 1.1,0.2 1.5,-0.4 0.8,-0.4 1.2,-1 0.5,-0.9 -0.1,-0.9 -0.3,-0.6 -0.6,-0.6 -1.1,-0.2 -1.5,0.4 -0.8,0.4 -1.2,1 -0.5,0.9 0.1,0.9 0.2,0.4 m 27.4,123.8 3.7,3.7 0.7,-4.5 m -4.4,0.8 6.3,1 m -5.5,-5.4 0.2,1 0.8,0.7 1.4,0.6 0.9,0.1 1.5,-0.1 1,-0.4 0.4,-0.8 0.1,-0.6 -0.1,-1 -0.8,-0.7 -1.4,-0.5 -0.9,-0.2 -1.6,0.1 -0.9,0.4 -0.5,0.9 -0.1,0.4 m -245.2,-413.3 0.2,0.6 0.7,1 -6.2,-1 m 5.9,4 -0.1,-0.9 -0.8,-0.8 -1.5,-0.5 -0.8,-0.2 h -1.6 l -1,0.5 -0.4,0.8 -0.1,0.6 0.1,0.9 0.8,0.8 1.4,0.5 0.9,0.2 h 1.6 l 0.9,-0.5 0.5,-0.8 0.1,-0.5 m -2.1,6.8 0.6,-0.2 0.5,-0.8 0.1,-0.6 -0.2,-1 -0.7,-0.7 -1.5,-0.6 -1.4,-0.2 -1.3,0.1 -0.7,0.4 -0.4,0.9 -0.1,0.3 0.2,0.9 0.5,0.7 0.8,0.5 h 0.3 l 0.9,-0.1 0.7,-0.5 0.5,-0.9 v -0.2 l -0.1,-1 -0.5,-0.7 -0.8,-0.4 m 84.8,-58 -0.5,-0.5 -1.2,-0.5 5.9,-2.3 m -7.1,-0.4 0.6,0.7 1,0.3 1.5,-0.3 0.9,-0.3 1.3,-0.8 0.6,-0.9 -0.1,-1 -0.2,-0.5 -0.6,-0.7 -1,-0.3 -1.5,0.3 -0.9,0.3 -1.3,0.8 -0.6,0.9 v 0.9 l 0.2,0.5 m -2.7,-7 7,0.6 m -5.5,3.3 -1.5,-3.9 m -44.4,-39.4 2.9,-4.3 -4.5,0.2 m 1.6,4.1 -0.2,-6.3 m -5.6,6.5 2.9,-4.3 -4.5,0.2 m 1.6,4.1 -0.2,-6.3 m -22.1,34.8 -4.5,-2.6 0.4,4.5 m 4.1,-1.9 -6.3,0.6 m 5,2.7 0.3,-0.1 0.6,0.3 0.4,0.3 0.3,0.5 0.1,1.2 -0.2,0.6 -0.3,0.4 -0.5,0.3 -0.6,0.1 -0.7,-0.3 -0.9,-0.5 -3.3,-2.7 0.4,4.2 m 156.6,95 h -0.7 l -1.2,0.3 3.3,-5.4 m -3.6,3.8 -0.6,-0.1 -1.3,0.3 3.3,-5.3 m -4,3.3 -0.2,0.3 -0.5,0.3 -0.5,0.1 h -0.6 l -1,-0.7 -0.4,-0.5 -0.1,-0.4 0.1,-0.7 0.3,-0.5 0.6,-0.4 0.9,-0.4 4.2,-1 -3.6,-2.2 m 0.2,95.1 -0.8,0.5 h -0.8 l -0.9,-0.3 -0.2,-0.2 -0.5,-0.9 -0.1,-0.8 0.4,-0.9 0.2,-0.2 0.8,-0.5 h 0.9 l 0.9,0.4 0.2,0.2 0.5,0.8 v 0.8 l -0.6,1.1 -1,1.1 -1.2,1 -1.1,0.2 -0.8,-0.4 -0.5,-0.4 -0.4,-0.8 0.1,-0.6 m 8.7,3.3 -0.8,0.5 h -0.9 l -0.9,-0.4 -0.2,-0.2 -0.5,-0.8 V 295 l 0.4,-0.9 0.2,-0.2 0.8,-0.5 h 0.9 l 0.8,0.3 0.2,0.2 0.5,0.9 0.1,0.8 -0.6,1.1 -1,1.1 -1.2,0.9 -1.1,0.3 -0.9,-0.4 -0.4,-0.4 -0.5,-0.8 0.2,-0.6 m 112.1,49.2 -0.5,0.9 -0.7,0.5 -0.9,0.1 h -0.3 l -0.8,-0.5 -0.5,-0.7 -0.2,-0.9 0.1,-0.3 0.4,-0.8 0.7,-0.5 0.9,-0.2 0.3,0.1 0.9,0.4 0.5,0.7 0.1,1.2 -0.3,1.5 -0.5,1.4 -0.8,0.8 -0.9,0.2 -0.6,-0.1 -0.8,-0.5 -0.2,-0.6 m 7,-4.3 -0.9,0.1 -0.4,0.6 -0.1,0.6 0.2,0.6 0.5,0.4 1.2,0.5 0.8,0.4 0.5,0.7 0.2,0.7 -0.1,0.9 -0.4,0.5 -0.4,0.2 -0.9,0.2 -1.2,-0.2 -0.8,-0.4 -0.3,-0.4 -0.2,-0.6 0.2,-0.9 0.4,-0.6 0.6,-0.5 1,-0.1 1.2,-0.1 0.7,-0.2 0.4,-0.5 0.1,-0.6 -0.2,-0.7 -0.9,-0.4 -1.3,-0.2 m 55.4,-43.5 -0.4,-0.6 -0.9,-0.9 6.3,-0.2 m -6.6,-2.7 0.3,0.8 1,0.6 1.5,0.3 0.9,-0.1 1.5,-0.3 0.8,-0.6 0.3,-0.9 v -0.6 l -0.3,-0.9 -1,-0.6 -1.5,-0.3 -0.9,0.1 -1.5,0.3 -0.8,0.7 -0.3,0.9 v 0.4 m 1.9,-7.4 0.9,0.3 0.6,0.6 0.3,0.9 v 0.3 l -0.2,0.9 -0.6,0.6 -0.9,0.3 -0.3,0.1 -0.9,-0.3 -0.6,-0.6 -0.4,-0.9 v -0.3 l 0.3,-0.9 0.6,-0.6 1.2,-0.4 h 1.5 l 1.5,0.2 0.9,0.6 0.3,0.9 v 0.6 l -0.2,0.9 -0.6,0.3 m -83.8,384.6 0.8,0.3 0.6,0.6 0.3,0.9 v 0.3 l -0.4,0.9 -0.6,0.6 -0.9,0.3 -0.3,-0.1 -0.9,-0.3 -0.6,-0.6 -0.2,-0.9 v -0.3 l 0.3,-0.9 0.6,-0.6 1.3,-0.2 h 1.5 l 1.4,0.4 0.9,0.6 0.3,0.9 -0.1,0.6 -0.3,0.9 -0.6,0.3 m -5,-8.6 -0.2,3 2.7,0.5 -0.3,-0.4 -0.2,-0.9 v -0.9 l 0.4,-0.9 0.6,-0.5 0.9,-0.3 h 0.6 l 0.9,0.4 0.6,0.6 0.2,0.9 v 0.9 l -0.4,0.9 -0.3,0.3 -0.6,0.3 m -84.8,-22.7 -0.6,-0.7 -0.2,-0.8 0.2,-0.9 0.2,-0.3 0.7,-0.6 0.8,-0.2 0.9,0.2 0.3,0.2 0.6,0.7 0.2,0.8 -0.2,0.9 -0.1,0.3 -0.8,0.6 -0.8,0.2 -1.2,-0.4 -1.3,-0.7 -1.1,-1 -0.5,-1 0.2,-0.9 0.4,-0.6 0.7,-0.6 0.6,0.1 m 0.2,10.3 -3.9,-5.8 m 6,2.2 -2.1,3.6 m 23.9,36.2 0.7,-0.2 0.9,-0.9 -0.5,6.3 m 2.3,-6.4 3.3,0.3 -2,2.3 h 0.9 l 0.6,0.4 0.2,0.3 0.3,0.9 -0.1,0.6 -0.4,0.9 -0.6,0.5 -0.9,0.3 -0.9,-0.1 -0.9,-0.4 -0.3,-0.3 -0.2,-0.6 m 20.3,-532.5 0.3,0.6 1,0.8 -6.2,0.6 m 5.1,0.6 0.4,0.5 1,0.8 -6.3,0.7 m 5.2,1.1 h 0.3 l 0.6,0.2 0.3,0.3 0.4,0.6 0.1,1.1 -0.2,0.7 -0.3,0.3 -0.6,0.4 h -0.6 l -0.6,-0.2 -0.9,-0.5 -3.3,-2.7 0.4,4.2 m 53.4,-63.2 -0.5,0.4 -0.8,1 -0.9,-6.2 m -1.9,6.9 0.8,-0.4 0.5,-1 v -1.5 l -0.1,-0.9 -0.5,-1.5 -0.8,-0.8 -0.9,-0.1 -0.6,0.1 -0.8,0.4 -0.5,1 -0.1,1.5 0.2,0.9 0.5,1.4 0.7,0.8 1,0.2 0.4,-0.1 m -7.3,1.2 2,-6.7 m 2.1,6 -4.1,0.7 m 62.7,49.4 4.7,2.1 -0.9,-4.4 m -3.8,2.3 6.2,-1.2 m -6.9,-2.9 0.4,0.8 0.7,0.2 0.6,-0.1 0.5,-0.4 0.2,-0.7 v -1.2 l 0.2,-0.9 0.4,-0.7 0.6,-0.4 0.9,-0.2 0.6,0.2 0.4,0.2 0.4,0.8 0.3,1.2 -0.2,0.9 -0.2,0.4 -0.5,0.4 -0.9,0.2 -0.7,-0.2 -0.7,-0.5 -0.4,-0.8 -0.6,-1.1 -0.4,-0.6 -0.6,-0.1 -0.6,0.1 -0.5,0.4 -0.2,0.9 0.3,1.3"
       id="nums_009"
       stroke="#000000"
       stroke-width="1" />
    <path
       d="m 4588.8,341.2 -94.9,-85.3 -43.3,120.1 47,127.4 88.3,-106.9 72.2,145.3 -16.7,103.6 -2.8,61.4 -120.2,-9.1 55.6,-93.1 -81,72.1 -132.4,-149.5 -41.4,-194.3 -7.7,-123.9 71.2,8.5 12.2,-70.6 -7.6,-77.6 74.4,-2.8 39.4,102.3 96.3,60.1 -11.7,-112.9 108.3,-16.7 24.2,125.5 4.6,138.5 z"
       id="coupes_009"
       stroke="#ff0000"
       stroke-width="1.27"
       sodipodi:nodetypes="ccccccccccccccccccccccccc" />
    <path
       d="m 4319.2,332.9 174.7,-77 m -43.3,120.1 -90,151.2 m 137,-23.8 -137,23.8 m 137,-23.8 -4.6,173.3 m 4.6,-173.3 76.4,101.2 m -191.3,-387.1 111.2,38.4 m -174.7,77 63.5,-115.4 m 118.4,-48.7 -7.2,87.1 m -111.2,-38.4 118.4,-48.7 m 157,373 -84.1,62.8 m 67.4,40.8 -67.4,-40.8 m -179.1,-457.7 106.2,21.9 m 96.3,60.1 -103.5,27 m 103.5,-27 125.4,134.4 m -125.4,-134.4 120.8,-4.1 m -79.6,482 -64.6,-102.2 m 11.7,-488.6 132.5,108.8"
       id="plisM_009"
       stroke="#a52a2a"
       stroke-dasharray="4" />
    <path
       d="m 4450.6,376 -131.4,-43.1 m 266.7,63.6 -11.9,208.1 m -179.1,-457.7 66.8,-80.4 m 135.7,162.4 -8.6,112.3"
       id="plisV_009"
       stroke="#008000"
       stroke-dasharray="4, 1, 1, 1"
       stroke-width="1.27" />
    <path
       d="m 4382.9,352.5 4,4 m 0,-4 -4,4 m 195,142 4,4 m 0,-4 -4,4 m -151.6,-397.8 4,4 m 0,-4 -4,4 m 164.8,174.4 4,4 m 0,-4 -4,4"
       id="marqueV_009"
       stroke="#008000" />
    <path
       d="m 4551.5,266.5 1.5,-0.7 2.3,-2.3 v 15.8 m 2.6,-12.6 V 266 l 0.8,-1.5 0.7,-0.8 1.5,-0.7 h 3 l 1.5,0.7 0.8,0.8 0.7,1.5 v 1.5 l -0.7,1.5 -1.5,2.2 -7.5,7.5 h 10.5"
       id="titre_12"
       stroke="#4b0082" />
  </g>
  <g
     id="page_010">
    <path
       d="m 5031.2,661.2 -0.8,-0.6 -0.7,0.1 -0.5,0.4 -0.3,0.6 0.1,0.6 0.5,1.2 0.2,0.9 -0.1,0.8 -0.3,0.6 -0.7,0.6 -0.7,0.1 -0.4,-0.1 -0.8,-0.6 -0.7,-1 -0.3,-0.9 0.1,-0.4 0.3,-0.6 0.8,-0.5 0.6,-0.1 0.9,0.1 0.7,0.6 1,0.8 0.6,0.3 0.6,-0.1 0.5,-0.3 0.3,-0.6 -0.2,-0.9 -0.8,-1.1 m 102.9,53.7 0.4,-0.5 0.6,-1.1 2.1,5.9 m -0.1,-5.3 -0.1,-0.2 0.1,-0.7 0.2,-0.4 0.4,-0.5 1.2,-0.4 0.6,0.1 0.4,0.2 0.5,0.5 0.2,0.6 -0.1,0.6 -0.3,1.1 -1.8,3.8 3.9,-1.4 m 2.5,-7.5 -2.9,1 0.6,2.6 0.2,-0.3 0.8,-0.6 0.8,-0.3 h 1 l 0.7,0.4 0.6,0.7 0.2,0.6 v 0.9 l -0.4,0.8 -0.7,0.6 -0.9,0.3 h -0.9 l -0.4,-0.2 -0.5,-0.5 m 21.5,-60.6 -0.6,-0.3 -1.2,-0.1 4.8,-4 m -4.9,1.9 -0.2,0.2 -0.7,0.1 h -0.4 l -0.6,-0.3 -0.8,-0.9 -0.1,-0.7 v -0.4 l 0.3,-0.6 0.4,-0.4 0.7,-0.1 1.1,-0.1 4.2,0.4 -2.7,-3.3 m -7.6,0.8 5.1,-0.4 -2.8,-3.5 m -2.3,3.9 4.8,-4 m -47.3,-252 -0.1,0.7 0.3,1.2 -5.3,-3.3 m 3.7,3.6 v 0.6 l 0.3,1.3 -5.4,-3.3 m 2.3,7 h 0.6 l 0.8,-0.6 0.3,-0.5 0.2,-0.9 -0.5,-1 -1.1,-1.1 -1.2,-0.7 -1.2,-0.4 -0.8,0.2 -0.8,0.6 -0.1,0.2 -0.3,1 0.2,0.8 0.6,0.7 0.3,0.2 0.9,0.2 0.8,-0.2 0.8,-0.6 0.1,-0.3 0.3,-0.9 -0.2,-0.8 -0.6,-0.7 m 74.1,-0.8 6.9,0.6 m -5.4,3.4 -1.5,-4 m 0.9,-1.5 -0.5,-0.4 -1.1,-0.5 5.8,-2.3 m -11.8,233.7 0.6,0.1 1.3,-0.2 -3.6,5.2 m 4.2,-3.2 0.2,-0.2 0.6,-0.3 0.4,-0.1 0.7,0.1 0.9,0.7 0.4,0.6 v 0.4 l -0.1,0.6 -0.3,0.5 -0.6,0.3 -1,0.4 -4.2,0.8 3.5,2.4 m 7.1,-2.8 -4.8,1.8 3.7,2.5 m 1.1,-4.3 -3.6,5.2 m 37.4,-59.7 -0.6,0.3 -0.3,0.9 0.1,0.6 0.3,0.9 1,0.6 1.5,0.2 1.5,-0.1 1.1,-0.4 0.6,-0.6 0.3,-0.9 -0.1,-0.3 -0.3,-0.9 -0.6,-0.6 -0.9,-0.2 h -0.3 l -0.9,0.4 -0.6,0.6 -0.2,0.9 v 0.3 l 0.3,0.9 0.6,0.6 1,0.2 m -3,-5.4 h -0.3 l -0.6,-0.3 -0.4,-0.2 -0.3,-0.6 -0.1,-1.2 0.3,-0.6 0.3,-0.4 0.6,-0.3 h 0.6 l 0.6,0.3 0.9,0.5 3.2,2.8 -0.2,-4.2 m -266.4,-83.3 0.4,0.5 1,0.7 -6.1,1.2 m 6.9,1.7 -0.5,-0.8 -0.9,-0.4 h -1.6 l -0.9,0.1 -1.4,0.6 -0.7,0.8 -0.2,0.9 0.1,0.6 0.5,0.8 1,0.4 h 1.5 l 0.9,-0.1 1.4,-0.6 0.8,-0.8 0.1,-0.9 -0.1,-0.4 m 117.9,-102.8 -0.1,-0.6 -0.5,-1.2 5.9,2.2 m -4.4,-2.8 -0.1,-0.6 -0.6,-1.2 6,2.2 m -3.7,-6.4 -0.6,0.1 -0.6,0.7 -0.2,0.6 -0.1,0.9 0.7,0.9 1.3,0.8 1.4,0.5 1.2,0.1 0.8,-0.3 0.6,-0.8 0.1,-0.3 v -0.9 l -0.3,-0.8 -0.8,-0.6 -0.3,-0.1 h -0.9 l -0.8,0.4 -0.6,0.7 -0.1,0.3 v 0.9 l 0.3,0.8 0.8,0.6 m -33,-98.5 4.2,-5.6 m -0.1,6.4 -4.1,-0.8 m -4.5,-1.8 0.2,0.6 0.8,0.5 0.6,0.1 1,-0.1 0.7,-0.8 0.6,-1.4 0.3,-1.5 -0.1,-1.2 -0.4,-0.7 -0.8,-0.5 h -0.3 l -1,0.1 -0.7,0.5 -0.5,0.8 v 0.3 l 0.1,0.9 0.5,0.7 0.8,0.5 0.3,0.1 0.9,-0.2 0.7,-0.4 0.5,-0.9 m -143.6,58 -1.8,-2.4 -2.3,1.4 0.4,0.1 0.8,0.5 0.5,0.7 0.3,0.9 -0.1,0.9 -0.5,0.7 -0.5,0.4 -0.9,0.3 -0.9,-0.1 -0.7,-0.6 -0.6,-0.7 -0.3,-0.9 0.1,-0.4 0.3,-0.6 m 82.9,-165.3 0.1,0.9 0.6,0.4 0.6,0.1 0.6,-0.2 0.4,-0.6 0.5,-1.1 0.4,-0.9 0.6,-0.5 0.7,-0.2 0.9,0.1 0.5,0.3 0.3,0.4 0.2,0.9 -0.2,1.2 -0.4,0.8 -0.3,0.3 -0.7,0.2 -0.9,-0.1 -0.5,-0.4 -0.5,-0.6 -0.2,-1 -0.2,-1.2 -0.2,-0.6 -0.6,-0.4 -0.5,-0.1 -0.7,0.3 -0.4,0.8 -0.2,1.4 m 0.6,-4.6 0.4,-3.3 2.2,2.1 0.1,-0.9 0.4,-0.5 0.3,-0.3 0.9,-0.2 0.6,0.1 0.9,0.4 0.5,0.7 0.2,0.9 -0.1,0.9 -0.4,0.9 -0.4,0.2 -0.6,0.2 m -26.8,-114.2 -0.7,-0.2 -1.2,0.2 3.8,-5 m -4.4,3 -0.2,0.2 -0.6,0.3 -0.4,0.1 -0.6,-0.2 -1,-0.7 -0.3,-0.6 v -0.4 l 0.1,-0.7 0.4,-0.5 0.6,-0.3 1,-0.3 4.2,-0.6 -3.3,-2.5 m -6.2,3.2 0.9,0.3 1,-0.4 1.2,-1 0.5,-0.7 0.7,-1.3 0.1,-1.1 -0.6,-0.8 -0.5,-0.4 -0.8,-0.3 -1.1,0.4 -1.1,1 -0.6,0.7 -0.7,1.4 v 1 l 0.5,0.8 0.4,0.3 m -108.5,109.3 0.4,0.6 1,0.7 -6.1,1.2 m 5.2,0.7 0.3,-0.1 0.7,0.2 0.3,0.2 0.4,0.5 0.3,1.2 -0.2,0.7 -0.2,0.3 -0.6,0.4 -0.6,0.1 -0.6,-0.1 -1,-0.4 -3.6,-2.4 0.9,4.1 m 31.6,-139.1 -0.5,0.4 -0.8,1.1 -1.1,-6.2 m -0.7,5.2 v 0.3 l -0.2,0.6 -0.2,0.4 -0.5,0.4 -1.2,0.2 -0.7,-0.2 -0.3,-0.2 -0.4,-0.6 -0.1,-0.6 0.2,-0.6 0.4,-1 2.4,-3.5 -4.1,0.8 m -4,7.1 1.8,-6.7 m 2.3,6 -4.1,0.7"
       id="nums_010"
       stroke="#000000"
       stroke-width="1" />
    <path
       d="m 5122.9,593.9 84.8,102.8 -130.2,44.7 -105,-149.2 -40,-206.8 -67.2,-89.8 -54.2,-264.4 106.6,-19.6 85.1,65.4 -22.8,183.3 141.3,28.4 -69.2,188.3 106,-170.3 63.7,165.7 10.5,197.7 z"
       id="coupes_010"
       stroke="#ff0000"
       stroke-width="1.27"
       sodipodi:nodetypes="cccccccccccccccc" />
    <path
       d="m 5122.9,593.9 -150.4,-1.7 m 0,0 79.6,-115.2 m 0,0 70.8,116.9 m 0,0 -45.4,147.5 m -25.4,-264.4 169.7,-4.6 m 0,0 -98.9,121.5 M 4932.5,385.4 5052.1,477 m -119.6,-91.6 188.8,-96.7 m -188.8,96.7 47.5,-125.1 m -114.7,35.3 52.4,-284"
       id="plisM_010"
       stroke="#a52a2a"
       stroke-dasharray="4" />
    <path
       d="M 4865.3,295.6 4980,260.3 M 4917.7,11.6 4980,260.3"
       id="plisV_010"
       stroke="#008000"
       stroke-dasharray="4, 1, 1, 1"
       stroke-width="1.27" />
    <path
       d="m 4920.6,276 4,4 m 0,-4 -4,4 m 26.3,-146.1 4,4 m 0,-4 -4,4"
       id="marqueV_010"
       stroke="#008000" />
    <path
       d="m 5027.1,374.9 1.5,-0.8 2.3,-2.2 v 15.7 m 2.8,-16.3 h 8.2 l -4.5,6 h 2.3 l 1.5,0.8 0.7,0.7 0.8,2.3 v 1.5 l -0.8,2.2 -1.5,1.5 -2.2,0.8 h -2.3 l -2.2,-0.8 -0.8,-0.7 -0.7,-1.5"
       id="titre_13"
       stroke="#4b0082" />
  </g>
  <g
     id="page_011">
    <path
       d="m 5796,394.7 4.5,5.4 m -6.2,-1.6 1.7,-3.8 m 1.8,-3.9 2.5,4.5 1.9,-4.1 m -4.4,-0.4 5.7,2.6 m 28.8,-141.4 -0.6,0.3 -0.3,0.9 0.1,0.6 0.3,0.9 1,0.6 1.5,0.2 1.5,-0.1 1.2,-0.4 0.5,-0.6 0.3,-0.9 v -0.3 l -0.4,-0.9 -0.6,-0.6 -1,-0.2 h -0.3 l -0.8,0.3 -0.6,0.7 -0.2,0.9 v 0.3 l 0.3,0.9 0.7,0.5 0.9,0.3 m -2.6,-8.8 0.9,0.2 0.6,0.6 0.4,0.9 v 0.3 l -0.3,0.9 -0.5,0.6 -0.9,0.4 h -0.3 l -0.9,-0.3 -0.7,-0.5 -0.3,-0.9 v -0.3 l 0.2,-0.9 0.6,-0.7 1.2,-0.3 1.5,-0.1 1.5,0.2 0.9,0.5 0.4,0.9 v 0.6 l -0.3,0.9 -0.5,0.4 m -44.1,289.8 7,-0.8 m -4.7,4.4 -2.3,-3.6 m -2.5,-4 1.6,2.6 2.4,-1.2 -0.4,-0.1 -0.7,-0.6 -0.5,-0.8 -0.2,-0.9 0.2,-0.8 0.6,-0.8 0.5,-0.3 0.9,-0.2 0.8,0.2 0.7,0.6 0.5,0.7 0.3,0.9 -0.1,0.5 -0.4,0.5 m -93.7,-233.6 -0.7,0.2 -1,0.8 0.9,-6.3 m -1.8,4.9 -0.6,0.2 -1,0.8 0.8,-6.2 m -6,5.7 3.8,-5.8 m 0.4,6.4 -4.2,-0.6 m 110,-142.2 6.7,-1.6 m -4.1,4.9 -2.6,-3.3 m -3.3,-4 6.8,-1.7 m -4.2,4.9 -2.6,-3.2 m -64.3,-39.2 -0.6,0.1 -1.1,0.7 1.5,-6.1 m -2.3,4.7 -0.6,0.1 -1.1,0.7 1.5,-6.1 m -4.1,5.7 0.9,-0.1 0.5,-0.5 0.1,-0.6 -0.2,-0.7 -0.5,-0.4 -1.1,-0.6 -0.8,-0.5 -0.4,-0.7 -0.2,-0.6 0.3,-0.9 0.4,-0.5 0.3,-0.2 1,-0.1 1.2,0.3 0.8,0.5 0.2,0.3 0.1,0.7 -0.2,0.8 -0.4,0.6 -0.7,0.4 -1,0.1 h -1.2 l -0.7,0.1 -0.4,0.6 -0.1,0.5 0.1,0.7 0.8,0.5 1.3,0.3 m -31.4,161.6 0.6,-0.1 1.1,-0.6 -1.8,6 m 2.5,-4.5 0.7,-0.1 1.1,-0.6 -1.9,6 m 6.9,-4.7 -4.7,5.1 m 0.7,-6.3 4,1.2 m -142.1,-191.8 -0.2,0.6 0.2,1.3 -5,-3.9 m 0.3,6.7 -0.5,-0.8 -0.1,-0.9 0.4,-0.8 0.1,-0.3 0.8,-0.5 0.9,-0.1 0.9,0.3 0.2,0.2 0.5,0.8 0.1,0.9 -0.3,0.8 -0.2,0.3 -0.8,0.5 -0.8,0.1 -1.2,-0.5 -1.1,-1 -1,-1.1 -0.3,-1.1 0.3,-0.8 0.4,-0.5 0.7,-0.5 0.7,0.1 m 86.3,-19.9 -0.7,-0.3 h -1.2 l 4.6,-4.3 m -6,3.2 -2.2,-2.5 3,-0.3 -0.7,-0.6 -0.1,-0.7 v -0.4 l 0.4,-0.8 0.5,-0.4 0.8,-0.4 h 0.9 l 0.8,0.4 0.6,0.7 0.4,0.9 V 63 l -0.2,0.6 m -6.7,-1.8 -0.2,0.2 -0.6,0.2 h -0.4 l -0.7,-0.3 -0.8,-0.9 -0.2,-0.6 V 60 l 0.3,-0.6 0.4,-0.5 0.7,-0.1 1,-0.2 4.3,0.1 -2.9,-3 m 23.6,520.5 0.6,0.4 1.2,0.4 -5.6,2.9 m 5.2,-0.8 0.2,-0.2 h 0.7 l 0.4,0.1 0.6,0.4 0.5,1.1 v 0.7 l -0.1,0.4 -0.4,0.5 -0.5,0.3 h -0.7 l -1.1,-0.1 -4,-1.3 1.9,3.7 m 5,-0.7 0.3,-0.1 h 0.7 l 0.4,0.1 0.5,0.4 0.5,1.1 0.1,0.6 -0.2,0.4 -0.4,0.6 -0.5,0.2 -0.7,0.1 -1.1,-0.2 -4,-1.3 1.9,3.8 m 81.3,84.9 0.7,0.1 1.2,-0.2 -3.6,5.1 m 4.3,-3.1 0.1,-0.3 0.6,-0.3 0.4,-0.1 0.7,0.1 1,0.7 0.3,0.6 0.1,0.4 -0.1,0.7 -0.4,0.5 -0.6,0.3 -1,0.4 -4.1,0.8 3.4,2.3 m 3.7,-3.4 0.6,0.1 1.3,-0.2 -3.6,5.2 m 61,-28.7 0.9,0.5 0.4,0.7 0.2,1 -0.1,0.3 -0.5,0.8 -0.7,0.5 -0.9,0.1 -0.3,-0.1 -0.8,-0.5 -0.5,-0.7 -0.1,-0.9 V 657 l 0.5,-0.8 0.7,-0.5 1.2,-0.1 1.5,0.3 1.4,0.6 0.8,0.8 0.1,0.9 -0.1,0.6 -0.5,0.8 -0.6,0.2 m -3,-5.3 -0.2,-0.7 -0.7,-1 6.2,1.2 m -211.8,-313.4 -0.2,0.6 v 1.3 l -4.6,-4.3 m 3.6,5.7 -2.3,2.4 -0.5,-3 -0.6,0.7 -0.7,0.2 h -0.4 l -0.8,-0.4 -0.5,-0.4 -0.4,-0.8 v -0.9 l 0.4,-0.8 0.6,-0.7 0.8,-0.4 h 0.4 l 0.7,0.2 m -1.2,8.7 0.4,-0.9 -0.3,-1.1 -0.9,-1.2 -0.6,-0.6 -1.3,-0.9 -1.1,-0.1 -0.8,0.4 -0.4,0.4 -0.4,0.9 0.2,1.1 0.9,1.2 0.6,0.6 1.3,0.8 1.1,0.2 0.8,-0.4 0.3,-0.3 m -79.7,78.1 -0.3,0.6 v 1.3 l -4.3,-4.6 m 0.4,7.3 0.6,0.3 0.9,-0.4 0.4,-0.4 0.4,-0.9 -0.1,-1 -0.8,-1.3 -1.1,-1.1 -1,-0.7 h -0.8 l -0.9,0.3 -0.2,0.3 -0.5,0.8 v 0.8 l 0.4,0.9 0.2,0.2 0.8,0.5 h 0.9 l 0.8,-0.4 0.3,-0.2 0.4,-0.8 v -0.9 l -0.4,-0.8 m 113.5,173 -0.3,-0.5 -1,-0.8 6.3,-0.6 m -5.1,-1.2 h -0.3 l -0.7,-0.2 -0.3,-0.3 -0.3,-0.6 -0.1,-1.2 0.2,-0.6 0.3,-0.3 0.6,-0.4 h 0.6 l 0.6,0.2 0.9,0.6 3.3,2.7 -0.4,-4.2 m -4.9,-1.3 -0.3,0.1 -0.6,-0.3 -0.3,-0.3 -0.4,-0.5 -0.1,-1.2 0.3,-0.6 0.3,-0.4 0.5,-0.3 0.6,-0.1 0.6,0.3 1,0.5 3.2,2.8 -0.3,-4.2 m -49.7,109.5 0.2,-0.6 0.2,-1.2 3.9,4.9 m -2.7,-6.2 2.6,-2.1 0.1,3 0.7,-0.5 0.6,-0.2 0.4,0.1 0.8,0.5 0.4,0.4 0.3,0.9 v 0.9 l -0.6,0.8 -0.7,0.5 -0.8,0.4 -0.5,-0.1 -0.6,-0.2 m 1.4,-7.7 2.6,-2.1 0.1,3 0.7,-0.6 0.7,-0.1 h 0.4 l 0.8,0.5 0.4,0.5 0.3,0.9 -0.1,0.8 -0.5,0.8 -0.7,0.6 -0.9,0.3 h -0.4 l -0.6,-0.3 m -77,-40.9 0.3,-0.1 h 0.6 l 0.4,0.2 0.5,0.4 0.5,1.1 v 0.7 l -0.2,0.4 -0.4,0.5 -0.5,0.2 h -0.7 l -1.1,-0.2 -3.9,-1.5 1.7,3.8 m 7.7,1.8 -1.3,-2.7 -2.5,0.8 0.4,0.1 0.6,0.7 0.4,0.9 0.1,0.9 -0.3,0.8 -0.7,0.6 -0.6,0.3 -0.9,0.1 -0.8,-0.3 -0.7,-0.7 -0.3,-0.8 -0.1,-1 0.1,-0.4 0.4,-0.5 m -87.9,-112.8 0.1,-0.3 0.6,-0.4 0.4,-0.1 0.7,0.1 1,0.6 0.4,0.6 0.1,0.4 -0.1,0.6 -0.3,0.6 -0.5,0.3 -1,0.5 -4.1,1 3.6,2.2 m 6.9,-3.3 -4.7,2.1 3.9,2.3 m 0.8,-4.4 -3.2,5.4 m 4.3,-60.9 -0.3,0.5 -0.3,1.3 -3.5,-5.2 m -0.3,8 2.5,-1.7 -1.2,-2.4 -0.1,0.5 -0.6,0.7 -0.7,0.5 -1,0.3 -0.8,-0.2 -0.7,-0.6 -0.4,-0.5 -0.2,-0.9 0.1,-0.8 0.6,-0.8 0.7,-0.5 1,-0.2 0.4,0.1 0.6,0.3 m 85.1,-255 -6.5,-2.6 m 6.3,-1.6 0.2,4.2 m 56.9,53.2 0.4,-0.4 0.6,-1.2 2.1,6 m -0.5,-6.8 3.1,-1 -0.9,2.8 0.8,-0.3 0.7,0.1 0.4,0.2 0.5,0.8 0.2,0.5 0.1,1 -0.4,0.7 -0.8,0.6 -0.8,0.3 h -1 l -0.4,-0.2 -0.4,-0.4 m 5.1,-7.2 -0.8,0.6 -0.3,1 0.2,1.6 0.3,0.8 0.8,1.3 0.9,0.7 h 0.9 l 0.6,-0.2 0.7,-0.6 0.3,-1 -0.2,-1.6 -0.3,-0.8 -0.8,-1.3 -0.8,-0.7 h -1 l -0.4,0.2"
       id="nums_011"
       stroke="#000000"
       stroke-width="1" />
    <path
       d="m 5843.2,313 -78.3,168 68.2,107 -27.1,135.7 -114.1,-79.2 -60.6,-118.3 10.8,132.5 -96.3,77.7 L 5478,584.7 5377.5,525.2 5480,455.6 5546.8,393.3 5647,288 l 102.8,14 -99,-30.7 -137.6,47.2 -9.7,-164.6 106.7,-134.1 72.2,77.5 99.6,24.1 53.8,66.1 z"
       id="coupes_011"
       stroke="#ff0000"
       stroke-width="1.27"
       sodipodi:nodetypes="cccccccccccccccccccccc" />
    <path
       d="m 5764.9,481 -15.1,-179 m 0,0 93.4,11 m -78.3,168 -133.6,45.2 m 0,0 L 5749.8,302 M 5631.3,526.2 5647,288 m 102.8,14 32.2,-180.6 m -131.2,149.9 31.6,-174 m -31.6,174 -147.3,-117.4 m 0,0 178.9,-56.6 M 5631.3,526.2 5480,455.6 m 151.3,70.6 -153.3,58.5 m 0,0 2,-129.1 m 162.1,203.1 -164.1,-74"
       id="plisM_011"
       stroke="#a52a2a"
       stroke-dasharray="4" />
    <path
       d="m 5749.8,302 86,-114.5 M 5833.1,588 5631.3,526.2 M 5749.8,302 5682.4,97.3 m 150.7,490.7 -141.2,56.5 m -60.6,-118.3 -84.5,-132.9"
       id="plisV_011"
       stroke="#008000"
       stroke-dasharray="4, 1, 1, 1"
       stroke-width="1.27" />
    <path
       d="m 5790.8,242.8 4,4 m 0,-4 -4,4 m -60.6,308.3 4,4 m 0,-4 -4,4 m -16.1,-361.4 4,4 m 0,-4 -4,4 m 46.4,412.6 4,4 m 0,-4 -4,4 M 5587,457.7 l 4,4 m 0,-4 -4,4"
       id="marqueV_011"
       stroke="#008000" />
    <path
       d="m 5667.3,363.2 1.5,-0.7 2.2,-2.3 V 376 m 9.3,-16.5 -7.5,10.5 h 11.2 m -3.7,-10.5 v 15.8"
       id="titre_14"
       stroke="#4b0082" />
  </g>
  <g
     id="page_012">
    <path
       d="m 6296.6,541.4 0.6,-0.2 1.1,-0.8 -1.1,6.2 m 2.5,-4.6 v -0.3 l 0.4,-0.6 0.4,-0.2 0.6,-0.2 1.2,0.2 0.6,0.4 0.2,0.4 0.2,0.6 -0.1,0.6 -0.4,0.5 -0.8,0.8 -3.4,2.5 4.1,0.7 m 1.9,-4.7 0.6,-0.2 1.1,-0.7 -1.1,6.2 M 6145,430.2 l -0.8,-0.4 -0.7,0.2 -0.4,0.4 -0.2,0.6 0.2,0.6 0.6,1.1 0.4,0.9 -0.1,0.8 -0.2,0.7 -0.7,0.6 -0.6,0.2 -0.4,-0.1 -0.9,-0.4 -0.8,-0.9 -0.4,-0.9 v -0.4 l 0.3,-0.6 0.6,-0.6 0.7,-0.2 h 0.8 l 0.9,0.5 1,0.7 0.6,0.2 0.7,-0.2 0.4,-0.4 0.2,-0.6 -0.4,-0.9 -0.9,-1 m 4,4.3 -0.9,-0.5 -1,0.2 -1.3,0.8 -0.7,0.6 -0.9,1.2 -0.2,1.1 0.4,0.8 0.4,0.5 0.8,0.4 1.1,-0.1 1.3,-0.8 0.6,-0.7 0.9,-1.2 0.3,-1 -0.4,-0.9 -0.3,-0.3 m 45.8,-111.4 -0.5,-0.5 -1.1,-0.6 6,-1.9 m -5.2,0.5 -0.4,-0.5 -1.2,-0.5 6.1,-1.9 m -5.8,-3.5 h 1 l 0.7,0.4 0.6,0.8 0.1,0.2 v 1 l -0.4,0.7 -0.8,0.6 -0.3,0.1 h -0.9 l -0.8,-0.4 -0.5,-0.8 -0.1,-0.3 v -0.9 l 0.4,-0.8 1,-0.6 1.5,-0.5 1.5,-0.1 1,0.3 0.6,0.7 0.2,0.6 -0.1,1 -0.4,0.4 m -123.3,-64.8 -5.7,-4.1 m 6.4,-0.1 -0.7,4.2 m -3,4.5 -0.8,-0.4 -0.5,-0.7 -0.2,-0.9 0.1,-0.3 0.5,-0.9 0.7,-0.5 0.9,-0.1 0.3,0.1 0.8,0.4 0.5,0.7 0.1,1 v 0.2 l -0.5,0.9 -0.7,0.5 h -1.2 l -1.5,-0.2 -1.4,-0.6 -0.8,-0.7 -0.1,-1 0.1,-0.6 0.4,-0.8 0.7,-0.2 m 293.5,224.9 -0.3,-0.6 -1,-0.9 6.3,-0.1 m -5,-1.6 h -0.3 l -0.6,-0.2 -0.3,-0.3 -0.4,-0.6 v -1.2 l 0.3,-0.6 0.3,-0.3 0.6,-0.4 h 0.6 l 0.6,0.3 0.9,0.6 3.1,2.9 -0.1,-4.2 m -5.6,-4.6 -0.5,0.3 -0.3,0.9 v 0.6 l 0.3,0.9 0.9,0.6 1.5,0.3 1.5,-0.1 1.2,-0.3 0.6,-0.6 0.3,-0.9 v -0.3 l -0.3,-0.9 -0.7,-0.6 -0.9,-0.3 h -0.3 l -0.9,0.3 -0.5,0.7 -0.3,0.9 v 0.3 l 0.3,0.9 0.6,0.5 0.9,0.3 m -147.2,-160.2 0.3,0.6 1,0.8 -6.3,0.5 m 5.2,0.7 0.3,0.5 1,0.9 -6.3,0.5 m 4.8,4.6 -0.9,-0.2 -0.6,-0.5 -0.4,-0.9 v -0.3 l 0.2,-0.9 0.5,-0.7 0.9,-0.3 0.3,-0.1 0.9,0.3 0.7,0.5 0.3,0.9 0.1,0.3 -0.3,0.9 -0.5,0.6 -1.2,0.4 -1.5,0.2 -1.5,-0.2 -0.9,-0.5 -0.4,-0.9 -0.1,-0.6 0.3,-0.9 0.5,-0.4 m 10.6,-98.3 0.2,0.6 0.7,1.1 -6.2,-1.3 m 4.6,2.7 h 0.3 l 0.5,0.4 0.2,0.4 0.2,0.6 -0.3,1.2 -0.4,0.5 -0.4,0.3 -0.6,0.1 -0.6,-0.1 -0.5,-0.4 -0.8,-0.8 -2.3,-3.6 -0.9,4.1 m 3.1,5.9 -0.8,-0.5 -0.5,-0.7 -0.1,-1 0.1,-0.3 0.4,-0.8 0.8,-0.4 0.9,-0.1 h 0.3 l 0.8,0.5 0.5,0.7 0.1,1 -0.1,0.3 -0.5,0.8 -0.7,0.4 -1.2,0.1 -1.5,-0.4 -1.4,-0.6 -0.8,-0.7 -0.1,-1 0.2,-0.6 0.5,-0.8 0.6,-0.2 m 131,50.3 -0.3,0.1 -0.6,-0.3 -0.3,-0.2 -0.4,-0.6 -0.1,-1.2 0.2,-0.6 0.3,-0.4 0.6,-0.3 0.6,-0.1 0.6,0.3 1,0.5 3.2,2.7 -0.4,-4.2 m -4.9,-1.2 h -0.3 l -0.6,-0.2 -0.3,-0.3 -0.4,-0.5 -0.1,-1.2 0.2,-0.7 0.3,-0.3 0.6,-0.3 0.6,-0.1 0.6,0.2 0.9,0.6 3.3,2.7 -0.4,-4.2 m -153.8,-143.3 0.6,0.3 1.2,0.3 -5.4,3.3 m 6.5,-1.9 1.7,2.9 -3,-0.4 0.5,0.8 v 0.7 l -0.1,0.4 -0.6,0.7 -0.5,0.3 -1,0.2 -0.8,-0.2 -0.7,-0.6 -0.5,-0.8 -0.2,-0.9 0.1,-0.4 0.4,-0.6 m 5.9,2.7 0.5,0.3 1.3,0.3 -5.5,3.2 m 119,-31.3 h -0.3 -0.7 l -0.3,-0.2 -0.5,-0.5 -0.4,-1.1 0.1,-0.7 0.2,-0.4 0.5,-0.5 0.5,-0.2 0.7,0.1 1,0.3 3.8,1.9 -1.3,-4 m -6.9,-0.8 0.5,0.8 1.1,0.3 1.5,-0.2 0.9,-0.3 1.3,-0.8 0.7,-0.8 v -1 l -0.2,-0.5 -0.6,-0.8 -1.1,-0.3 -1.5,0.2 -0.8,0.3 -1.4,0.8 -0.6,0.8 v 1 l 0.1,0.4 m -71,-34.6 -0.5,0.5 -0.5,1.2 -2.3,-5.9 m 0.3,5.3 0.1,0.3 -0.1,0.6 -0.1,0.4 -0.5,0.5 -1.1,0.5 -0.7,-0.1 -0.3,-0.2 -0.5,-0.4 -0.3,-0.6 0.1,-0.6 0.2,-1.1 1.7,-3.9 -3.9,1.6 m -0.1,6.8 0.7,-0.6 v -0.7 l -0.2,-0.5 -0.5,-0.5 h -0.7 l -1.2,0.1 -0.9,0.1 -0.8,-0.4 -0.5,-0.4 -0.3,-0.8 v -0.7 l 0.2,-0.4 0.7,-0.6 1.1,-0.5 h 1 l 0.4,0.2 0.5,0.4 0.3,0.8 -0.1,0.7 -0.3,0.8 -0.7,0.6 -1,0.7 -0.5,0.5 v 0.7 l 0.2,0.5 0.5,0.5 0.9,-0.1 1.3,-0.5 m -57.5,156.6 -0.3,-0.6 -0.9,-0.9 h 6.3 m -5,-1.6 h -0.3 l -0.6,-0.3 -0.3,-0.3 -0.3,-0.6 v -1.2 l 0.3,-0.6 0.3,-0.3 0.6,-0.3 h 0.6 l 0.6,0.3 0.9,0.6 3,2.9 v -4.2 m -6.3,-1.7 v -3.3 l 2.4,1.8 v -0.9 l 0.3,-0.6 0.3,-0.3 0.9,-0.3 h 0.6 l 0.9,0.3 0.6,0.6 0.3,0.9 v 0.9 l -0.3,0.9 -0.3,0.3 -0.6,0.3 m -44.7,-43.5 0.9,-0.3 0.3,-0.6 v -0.6 l -0.4,-0.6 -0.6,-0.3 -1.2,-0.2 -0.9,-0.3 -0.6,-0.6 -0.3,-0.6 -0.1,-0.9 0.3,-0.6 0.3,-0.3 0.9,-0.3 1.2,-0.1 0.9,0.3 0.3,0.3 0.3,0.6 0.1,0.9 -0.3,0.6 -0.6,0.6 -0.9,0.4 -1.2,0.3 -0.6,0.3 -0.2,0.6 v 0.6 l 0.3,0.6 0.9,0.3 1.4,-0.1 m -4,-1.2 -0.6,0.3 -0.9,0.9 -0.2,-6.3 m -50.3,237.7 0.9,-0.4 0.8,0.1 0.8,0.5 0.2,0.2 0.4,0.9 -0.1,0.8 -0.5,0.8 -0.2,0.2 -0.9,0.4 -0.8,-0.1 -0.8,-0.5 -0.2,-0.2 -0.4,-0.9 0.1,-0.8 0.7,-1 1.1,-1 1.3,-0.8 1.1,-0.1 0.8,0.5 0.4,0.4 0.4,0.9 -0.3,0.6 m -8.3,-1.4 0.8,0.5 1,-0.1 1.4,-0.8 0.7,-0.6 0.9,-1.2 0.3,-1 -0.4,-0.9 -0.4,-0.5 -0.8,-0.4 -1.1,0.1 -1.3,0.7 -0.7,0.6 -0.9,1.2 -0.3,1.1 0.4,0.9 0.3,0.3 m 71.1,250.4 h 0.7 l 1.2,-0.3 -3,5.5 m 3.8,-3.6 0.2,-0.3 0.5,-0.3 0.5,-0.2 0.6,0.1 1.1,0.5 0.4,0.6 0.1,0.4 -0.1,0.7 -0.3,0.5 -0.5,0.4 -1,0.5 -4,1.1 3.6,2.1 m 5.7,-4.1 -1,-0.2 -0.9,0.5 -1,1.2 -0.5,0.8 -0.4,1.4 0.1,1.1 0.6,0.7 0.5,0.3 1,0.2 0.9,-0.5 1,-1.2 0.4,-0.8 0.5,-1.4 -0.1,-1.1 -0.6,-0.7 -0.4,-0.2 m 28.3,-60.5 -0.6,0.3 -0.2,1 v 0.6 l 0.3,0.8 1,0.6 1.5,0.2 h 1.5 l 1.2,-0.4 0.5,-0.6 0.3,-0.9 v -0.3 l -0.4,-0.9 -0.6,-0.6 -0.9,-0.2 h -0.3 l -0.9,0.3 -0.6,0.6 -0.2,0.9 v 0.3 l 0.3,0.9 0.7,0.6 0.9,0.3 m -4.5,-6.4 0.3,0.9 0.6,0.3 0.6,-0.1 0.6,-0.3 0.3,-0.6 0.2,-1.2 0.3,-0.9 0.6,-0.7 0.5,-0.3 h 0.9 l 0.7,0.3 0.3,0.2 0.3,0.9 0.1,1.2 -0.3,0.9 -0.3,0.3 -0.6,0.4 h -0.9 l -0.6,-0.3 -0.6,-0.5 -0.3,-0.9 -0.4,-1.2 -0.3,-0.6 -0.6,-0.3 -0.6,0.1 -0.6,0.3 -0.3,0.9 0.1,1.4 m -31.3,-112.6 0.9,0.3 0.6,-0.2 0.4,-0.5 0.1,-0.6 -0.2,-0.6 -0.7,-1.1 -0.5,-0.8 -0.1,-0.8 0.2,-0.7 0.6,-0.6 0.6,-0.3 h 0.4 l 0.9,0.3 0.9,0.8 0.5,0.8 v 0.5 l -0.1,0.6 -0.6,0.7 -0.7,0.2 -0.8,0.1 -0.9,-0.4 -1.1,-0.5 -0.6,-0.2 -0.7,0.3 -0.3,0.4 -0.2,0.7 0.5,0.8 1,0.9 m -5.4,-4.7 5,-1.2 -3.4,-2.9 m -1.6,4.1 4.1,-4.7 m -109.4,173.4 0.5,-0.5 0.6,-1.1 1.6,6.1 m 0.3,-5.2 v -0.3 l 0.1,-0.7 0.2,-0.4 0.5,-0.4 1.2,-0.3 0.6,0.1 0.4,0.2 0.4,0.6 0.2,0.5 -0.1,0.7 -0.4,1 -2.1,3.7 4,-1.1 m 3.5,-7.4 -1.3,6.9 m -2.8,-5.8 4.1,-1.1 m -44.2,-59.8 0.3,0.6 0.8,1 -6.3,-0.4 m 5,1.4 0.3,0.6 0.9,1 -6.3,-0.4 m -88.9,-151.2 -0.5,3.3 -2.1,-2.2 -0.1,0.9 -0.4,0.6 -0.4,0.2 -0.9,0.2 -0.6,-0.1 -0.9,-0.5 -0.4,-0.7 -0.2,-0.9 0.2,-0.9 0.4,-0.8 0.3,-0.3 0.7,-0.2 m 38.1,118.3 -0.4,0.9 0.2,1.1 0.9,1.2 0.6,0.6 1.3,0.9 1,0.2 0.9,-0.5 0.4,-0.4 0.4,-0.8 -0.2,-1.1 -0.9,-1.3 -0.6,-0.6 -1.3,-0.8 -1.1,-0.2 -0.8,0.4 -0.3,0.3 m -40.7,-9.5 h 0.3 l 0.6,0.3 0.3,0.3 0.3,0.6 v 1.2 l -0.3,0.6 -0.2,0.3 -0.6,0.3 h -0.6 l -0.6,-0.3 -1,-0.5 -3,-3 0.1,4.2 m 9.2,-262 0.3,0.5 1,0.9 -6.3,0.5 m 6.9,3.7 -4.4,-2.6 0.3,4.5 m 4.1,-1.9 -6.3,0.5 m 68.2,-97.7 -0.6,0.3 -0.9,0.9 0.1,-6.3 m -1.7,5 v 0.3 l -0.3,0.6 -0.3,0.3 -0.6,0.3 -1.2,-0.1 -0.6,-0.3 -0.3,-0.3 -0.3,-0.6 v -0.6 l 0.3,-0.6 0.6,-0.9 3,-2.9 -4.2,-0.1 m -2.7,6.3 0.9,-0.3 0.3,-0.6 v -0.6 l -0.3,-0.6 -0.6,-0.3 -1.2,-0.3 -0.9,-0.3 -0.6,-0.6 -0.3,-0.6 v -0.9 l 0.3,-0.6 0.3,-0.3 0.9,-0.3 h 1.2 l 0.9,0.3 0.3,0.3 0.3,0.6 v 0.9 l -0.3,0.6 -0.6,0.6 -0.9,0.3 -1.2,0.3 -0.6,0.3 -0.3,0.6 v 0.6 l 0.3,0.6 0.9,0.3 h 1.4 m 70.2,78.1 0.9,0.3 0.6,0.6 0.4,0.9 v 0.3 l -0.3,0.9 -0.6,0.6 -0.9,0.3 h -0.3 l -0.9,-0.2 -0.6,-0.6 -0.3,-0.9 V 269 l 0.2,-0.9 0.6,-0.6 1.2,-0.4 h 1.5 l 1.5,0.3 0.9,0.6 0.4,0.8 v 0.6 l -0.3,1 -0.6,0.3 m -5.5,-5.3 -0.1,-3.3 2.5,1.8 -0.1,-0.9 0.3,-0.6 0.3,-0.3 0.9,-0.3 h 0.6 l 0.9,0.2 0.6,0.6 0.4,0.9 v 0.9 l -0.3,0.9 -0.3,0.3 -0.6,0.3"
       id="nums_012"
       stroke="#000000"
       stroke-width="1" />
    <path
       d="m 6302,28.9 43.1,128.5 20.8,221.9 4.7,181.7 -136.9,-23.5 -184.3,-197.9 32,-176.7 103.4,-4.1 0.3,110.1 29.5,94.7 -8.3,-98.9 19,-86.9 -57,-96 z m -259.1,152.4 3.5,169.1 77.6,89.9 65.6,56.9 8.7,187.8 -93.8,-52.1 -104.9,27.4 9.1,-161.5 -104.4,106.8 -3.1,-132 14.5,-86 -16.5,-207.3 z"
       id="coupes_012"
       stroke="#ff0000"
       stroke-width="1.27"
       sodipodi:nodetypes="ccccccccccccccccccccccccccc" />
    <path
       d="m 6214.6,363.6 156,197.4 m -136.9,-23.5 -19.1,-173.9 m -165.2,-24 165.2,24 m 0,0 151.3,15.7 m -140.6,-201.5 140.6,201.5 m -140.6,-201.5 119.8,-20.4 m -429.4,230.2 130.7,-37.2 m 0,0 -37.7,148.4 m 115.3,-58.5 -115.3,58.5 m 95.8,134.1 -95.8,-134.1 M 6124,440.3 6104.5,632.9 M 6124,440.3 6198.3,685 M 6008.7,498.8 5901.2,473.6"
       id="plisM_012"
       stroke="#a52a2a"
       stroke-dasharray="4" />
    <path
       d="m 6049.4,339.6 135.7,-70.7 m -103.7,-106 103.7,106 m 21.2,-4.2 159.6,114.6 m -197.6,-297.5 176.8,75.6 m -336.4,341.4 -93,-111.2 m -16.5,-207.3 147.2,170.1"
       id="plisV_012"
       stroke="#008000"
       stroke-dasharray="4, 1, 1, 1"
       stroke-width="1.27" />
    <path
       d="m 6115.2,302.2 4,4 m 0,-4 -4,4 m 16,-92.3 4,4 m 0,-4 -4,4 m 152.9,102.1 4,4 m 0,-4 -4,4 m -29.4,-206.4 4,4 m 0,-4 -4,4 m -294.5,319.6 4,4 m 0,-4 -4,4 m 10.6,-181.8 4,4 m 0,-4 -4,4"
       id="marqueV_012"
       stroke="#008000" />
    <path
       d="m 6257.6,265.1 1.5,-0.8 2.3,-2.2 v 15.7 m 10.3,-16.3 h -7.5 l -0.8,6.8 0.8,-0.8 2.2,-0.7 h 2.3 l 2.2,0.7 1.5,1.5 0.8,2.3 v 1.5 l -0.8,2.2 -1.5,1.5 -2.2,0.8 h -2.3 l -2.2,-0.8 -0.8,-0.7 -0.7,-1.5"
       id="titre_15"
       stroke="#4b0082" />
    <path
       d="m 6051.8,421 1.5,-0.7 2.3,-2.3 v 15.8 m 10.3,-14.1 -0.7,-1.5 -2.3,-0.7 h -1.5 l -2.2,0.7 -1.5,2.3 -0.8,3.7 v 3.8 l 0.8,3 1.5,1.5 2.2,0.7 h 0.8 l 2.2,-0.7 1.5,-1.5 0.8,-2.3 V 428 l -0.8,-2.3 -1.5,-1.5 -2.2,-0.7 h -0.8 l -2.2,0.7 -1.5,1.5 -0.8,2.3"
       id="titre_16"
       stroke="#4b0082" />
  </g>
</svg>
