<?xml version="1.0" encoding="UTF-8" standalone="no"?>
<svg
   height="841.88977pt"
   viewBox="0 0 532.99998 754.00001"
   width="595.27557pt"
   version="1.1"
   id="svg1"
   sodipodi:docname="Tdy236_H30_A4x7.svg"
   inkscape:version="1.3 (0e150ed6c4, 2023-07-21)"
   xmlns:inkscape="http://www.inkscape.org/namespaces/inkscape"
   xmlns:sodipodi="http://sodipodi.sourceforge.net/DTD/sodipodi-0.dtd"
   xmlns="http://www.w3.org/2000/svg"
   xmlns:svg="http://www.w3.org/2000/svg">
  <defs
     id="defs1" />
  <sodipodi:namedview
     id="namedview1"
     pagecolor="#ffffff"
     bordercolor="#000000"
     borderopacity="0.25"
     inkscape:showpageshadow="2"
     inkscape:pageopacity="0.0"
     inkscape:pagecheckerboard="0"
     inkscape:deskcolor="#d1d1d1"
     inkscape:document-units="mm"
     showgrid="false"
     inkscape:zoom="0.20105377"
     inkscape:cx="2792.7852"
     inkscape:cy="564.5256"
     inkscape:window-width="1920"
     inkscape:window-height="1057"
     inkscape:window-x="-8"
     inkscape:window-y="-8"
     inkscape:window-maximized="1"
     inkscape:current-layer="svg1" />
  <style
     type="text/css"
     id="style1"><![CDATA[
			path {
				fill: none;
			}
		]]></style>
  <g
     id="page_001">
    <path
       d="m 419.2,720.8 0.7,-0.3 0.9,-0.8 -0.5,6.3 m 1.5,-5 0.6,-0.3 1,-0.8 -0.5,6.3 m 4.8,-6.2 -3.3,3.9 4.4,0.4 m -1.1,-4.3 -0.5,6.3 M 301.5,649 l -6.4,2.7 m 3.3,-5.5 3.1,2.8 m 3.6,3.2 -2.3,-2.1 -2,1.8 h 0.4 l 0.9,0.4 0.7,0.6 0.4,0.8 0.1,0.9 -0.4,0.8 -0.4,0.5 -0.8,0.5 h -0.9 l -0.8,-0.4 -0.7,-0.6 -0.5,-0.8 v -0.4 l 0.2,-0.7 m 29,-85.5 -0.5,-0.4 -1.1,-0.5 5.8,-2.4 m -5.1,0.9 -0.5,-0.4 -1.2,-0.5 5.8,-2.4 m -7.1,-0.2 0.6,0.7 1,0.2 1.5,-0.3 0.9,-0.3 1.3,-0.9 0.6,-0.9 -0.1,-0.9 -0.2,-0.6 -0.7,-0.7 -1,-0.2 -1.5,0.3 -0.8,0.3 -1.3,0.9 -0.6,0.9 v 0.9 l 0.2,0.4 m -88,-41.6 -6,-3.5 m 6.4,-0.6 -0.4,4.1 m -0.3,4.3 -3.9,-3.4 -0.4,4.5 m 4.3,-1.1 -6.3,-0.6 m 78.8,-33.3 -0.3,-0.6 -1,-0.8 6.3,-0.6 m -5.2,-0.6 -0.4,-0.5 -0.9,-0.8 6.2,-0.6 m -6,-4.2 -0.6,0.3 -0.2,0.9 0.1,0.6 0.4,0.9 0.9,0.5 1.5,0.2 1.5,-0.1 1.2,-0.5 0.5,-0.6 0.3,-0.9 -0.1,-0.3 -0.3,-0.9 -0.7,-0.5 -0.9,-0.3 -0.3,0.1 -0.9,0.3 -0.5,0.7 -0.3,0.9 0.1,0.3 0.4,0.9 0.6,0.5 0.9,0.3 m -36.1,-28.4 2.2,-6.6 m 2,6.1 -4.2,0.5 m -4.8,-0.2 0.4,0.5 0.9,0.2 0.6,-0.1 0.8,-0.4 0.5,-1 0.1,-1.5 -0.2,-1.5 -0.4,-1.1 -0.7,-0.5 -0.9,-0.2 h -0.3 l -0.9,0.4 -0.5,0.7 -0.2,0.9 0.1,0.3 0.4,0.9 0.7,0.5 0.9,0.2 0.3,-0.1 0.8,-0.4 0.6,-0.6 0.1,-1 m 189.3,217.5 -0.3,-0.6 -1,-0.8 6.2,-0.7 m -5.1,-0.5 -0.4,-0.5 -1,-0.8 6.3,-0.7 m -5,-4.6 0.9,0.2 0.7,0.6 0.4,0.8 v 0.3 l -0.2,1 -0.5,0.6 -0.9,0.4 -0.3,0.1 -0.9,-0.2 -0.6,-0.6 -0.4,-0.8 -0.1,-0.3 0.2,-1 0.5,-0.6 1.2,-0.5 1.5,-0.1 1.5,0.1 1,0.5 0.4,0.9 v 0.6 l -0.2,0.9 -0.5,0.3 m -119.3,-112.3 0.4,0.6 1,0.7 -6.2,1.1 m 5.2,0.2 0.4,0.5 1,0.7 -6.2,1.1 m 6.9,1.8 -0.4,-0.8 -1,-0.5 h -1.5 l -0.9,0.1 -1.4,0.6 -0.8,0.7 -0.2,1 0.1,0.6 0.5,0.8 1,0.4 1.5,0.1 0.9,-0.2 1.4,-0.5 0.8,-0.8 0.1,-0.9 V 559 m -2.9,-76.2 0.2,0.6 0.8,1 -6.3,-0.8 m 4.8,2.3 h 0.3 l 0.5,0.4 0.3,0.3 0.2,0.7 -0.1,1.2 -0.4,0.5 -0.4,0.3 -0.6,0.2 -0.6,-0.1 -0.5,-0.4 -0.9,-0.7 -2.6,-3.3 -0.5,4.1 m 4.6,2.3 h 0.3 l 0.5,0.4 0.3,0.3 0.2,0.7 -0.2,1.2 -0.3,0.5 -0.4,0.3 -0.6,0.2 -0.6,-0.1 -0.5,-0.3 -0.9,-0.8 -2.6,-3.3 -0.5,4.2 m 100.5,26 h -0.3 l -0.6,-0.1 -0.4,-0.3 -0.4,-0.5 -0.2,-1.2 0.2,-0.6 0.2,-0.4 0.6,-0.4 0.6,-0.1 0.6,0.2 1,0.4 3.5,2.4 -0.8,-4.1 m -5,-0.2 -0.4,-0.5 -1,-0.7 6.2,-1.2 M 319.5,412 l 0.6,0.3 1.3,0.2 -5.1,3.7 m 5,-1.6 0.3,-0.1 0.6,-0.1 h 0.4 l 0.6,0.3 0.7,1 0.1,0.7 v 0.4 l -0.3,0.6 -0.5,0.3 -0.7,0.2 h -1.1 l -4.2,-0.7 2.5,3.4 m 6.1,-2.3 1.9,2.7 h -3 l 0.6,0.7 0.1,0.7 -0.1,0.4 -0.5,0.7 -0.5,0.4 -0.9,0.3 -0.9,-0.2 -0.7,-0.5 -0.6,-0.7 -0.3,-1 0.1,-0.4 0.3,-0.6 m 84.7,-27.7 -0.3,0.1 -0.6,-0.1 -0.4,-0.1 -0.6,-0.4 -0.4,-1.1 v -0.7 l 0.2,-0.4 0.4,-0.5 0.5,-0.3 0.7,0.1 1.1,0.2 3.9,1.5 -1.7,-3.8 m -6.9,-0.2 0.6,0.7 1.1,0.2 1.5,-0.4 0.8,-0.3 1.3,-0.9 0.5,-0.9 v -0.9 l -0.3,-0.6 -0.6,-0.7 -1.1,-0.2 -1.5,0.3 -0.8,0.4 -1.3,0.9 -0.5,0.9 v 0.9 l 0.2,0.4 m -132.7,-62.9 -0.7,-0.6 h -0.7 l -0.5,0.3 -0.4,0.5 v 0.7 l 0.3,1.2 0.2,0.9 -0.3,0.9 -0.3,0.5 -0.8,0.4 h -0.7 l -0.4,-0.1 -0.7,-0.6 -0.6,-1.1 -0.1,-0.9 0.1,-0.4 0.4,-0.6 0.8,-0.4 h 0.6 l 0.9,0.2 0.6,0.7 0.9,0.9 0.5,0.4 h 0.7 l 0.5,-0.3 0.4,-0.6 -0.2,-0.9 -0.6,-1.2 m 0.8,4.7 0.3,-0.1 0.7,-0.1 0.4,0.2 0.5,0.3 0.6,1.1 v 0.7 l -0.1,0.4 -0.4,0.5 -0.5,0.3 h -0.7 l -1.1,-0.1 -4.1,-1.2 2,3.7 m 78.1,-54.7 -0.6,-0.4 -1.3,-0.3 5.4,-3.2 m -7.8,-0.3 5.1,0.4 -2.3,-3.8 m -2.8,3.4 5.3,-3.3 m -159,-68.6 -0.1,0.7 0.2,1.2 -5.1,-3.7 m 3.5,3.9 -0.1,0.7 0.2,1.2 -5.1,-3.7 m 3.5,3.9 -0.1,0.6 0.2,1.3 -5.1,-3.7 m 0.7,87.1 0.2,7 m -3.9,-5.1 3.7,-1.9 m 2.4,-1.2 -0.7,0.7 v 0.7 l 0.3,0.5 0.5,0.4 h 0.7 l 1.2,-0.3 1,-0.1 0.8,0.3 0.5,0.4 0.4,0.8 v 0.6 l -0.1,0.4 -0.7,0.7 -1.1,0.5 -0.9,0.2 -0.4,-0.2 -0.5,-0.4 -0.5,-0.8 v -0.6 l 0.3,-0.8 0.7,-0.7 0.9,-0.8 0.4,-0.6 v -0.6 l -0.3,-0.6 -0.5,-0.4 -0.9,0.2 -1.2,0.6 m -30.5,-8.3 -5.7,-4.1 m 6.4,-0.1 -0.7,4.2 m -3,4.6 -0.9,-0.5 -0.4,-0.7 -0.2,-0.9 0.1,-0.3 0.4,-0.9 0.7,-0.4 1,-0.2 0.3,0.1 0.8,0.4 0.5,0.7 0.1,1 v 0.3 l -0.5,0.8 -0.7,0.5 -1.2,0.1 -1.5,-0.3 -1.4,-0.6 -0.8,-0.7 -0.1,-1 0.1,-0.6 0.4,-0.8 0.7,-0.2 m 146.3,-105.1 -0.3,0.1 -0.6,-0.1 -0.4,-0.2 -0.5,-0.5 -0.3,-1.1 0.1,-0.7 0.2,-0.4 0.5,-0.5 0.5,-0.1 0.7,0.1 1,0.3 3.8,1.9 -1.3,-4 m -98.5,-101.1 0.9,-0.5 0.4,-1 0.1,-1.5 -0.2,-0.9 -0.6,-1.4 -0.7,-0.8 -0.9,-0.2 -0.6,0.2 -0.9,0.4 -0.4,1 v 1.5 l 0.1,0.9 0.6,1.4 0.7,0.8 1,0.2 0.4,-0.1 m -99.2,45.5 -0.3,0.6 -0.2,1.3 -3.7,-5.1 m 212.3,2.9 -0.2,-0.3 -0.2,-0.6 v -0.4 l 0.2,-0.7 0.9,-0.8 0.6,-0.2 h 0.5 l 0.6,0.3 0.4,0.4 0.2,0.6 0.2,1.1 -0.2,4.3 3.1,-2.9 m -240.3,60.2 -0.8,0.4 h -0.8 l -0.9,-0.4 -0.2,-0.2 -0.5,-0.8 v -0.9 l 0.4,-0.8 0.2,-0.2 0.9,-0.5 h 0.8 l 0.9,0.4 0.2,0.2 0.4,0.8 0.1,0.9 -0.7,1.1 -1,1.1 -1.2,0.8 -1.1,0.3 -0.9,-0.4 -0.4,-0.4 -0.4,-0.9 0.2,-0.6 m 78.8,3.3 0.4,-0.5 0.5,-1.1 2.4,5.8 m 0.2,-7.2 -0.7,0.6 -0.2,1.1 0.3,1.5 0.4,0.8 0.8,1.3 0.9,0.6 1,-0.1 0.5,-0.2 0.7,-0.6 0.2,-1.1 -0.3,-1.5 -0.3,-0.8 -0.9,-1.3 -0.9,-0.6 -0.9,0.1 -0.4,0.2 m 138.8,-133.8 0.7,-0.7 0.2,-1 -0.3,-1.5 -0.4,-0.8 -0.8,-1.3 -0.9,-0.6 -1,0.1 -0.5,0.2 -0.7,0.7 -0.2,1 0.3,1.5 0.3,0.8 0.9,1.3 0.9,0.6 1,-0.1 0.4,-0.2 m 37.1,18.4 -0.3,-0.6 -1,-0.8 6.2,-0.7 m -7,-4.4 6.6,2.3 m -6.2,1.8 -0.4,-4.1"
       id="nums_001"
       stroke="#000000"
       stroke-width="1" />
    <path
       d="m 342.3,455.5 -48.8,-68 -59.8,-111.8 -97.6,49 15.1,-82.7 57.1,-78.3 -111.8,46.9 -59.2,-56.3 112,-81.4 92.4,-16.1 86.1,-37.2 8.6,79.5 -47.7,44.8 19.7,62.5 81.5,132.9 40.6,93.2 30.1,164.4 15.4,135.5 -103.9,-8.7 -150.6,-135.8 12.4,-134.1 77,-9.8 7.4,82.2 28.2,68.9 -12.6,-73.4 z"
       id="coupes_001"
       stroke="#ff0000"
       stroke-width="1.27"
       sodipodi:nodetypes="cccccccccccccccccccccccccc" />
    <path
       d="M 346.5,595.1 476,732.4 M 372.1,723.7 346.5,595.1 m -125,-7.2 125,7.2 m 0,0 114.1,1.8 M 342.3,455.5 460.6,596.9 m -118.3,-141.4 88.2,-23 m -137,-45 96.4,-48.2 m -156.2,-63.6 74.7,-69.3 m -74.7,69.3 -25.4,-112 m 25.4,112 -82.5,-33.7 m 57.1,-78.3 80.4,-19.8 m -80.4,19.8 33.4,-106.9 m 0,0 47,87.1 m -47,-87.1 94.7,42.3"
       id="plisM_001"
       stroke="#a52a2a"
       stroke-dasharray="4" />
    <path
       d="m 221.5,587.9 96.8,-61.7 m -84.4,-72.4 84.4,72.4 m 15.6,-4.5 126.7,75.2 m -167.1,-209.4 137,45 M 233.7,275.7 389.9,339.3 M 208.3,163.7 308.4,206.4 m -100.1,-42.7 -59,-90.8 m 59,90.8 -171,-9.4"
       id="plisV_001"
       stroke="#008000"
       stroke-dasharray="4, 1, 1, 1"
       stroke-width="1.27" />
    <path
       d="m 267.9,555.1 4,4 m 0,-4 -4,4 m 6.2,-71.1 4,4 m 0,-4 -4,4 m 121.1,65.3 4,4 m 0,-4 -4,4 M 360,408 l 4,4 m 0,-4 -4,4 m -50.2,-106.5 4,4 m 0,-4 -4,4 M 256.3,183 l 4,4 m 0,-4 -4,4 m -79.5,-70.7 4,4 m 0,-4 -4,4 m -56,36.7 4,4 m 0,-4 -4,4"
       id="marqueV_001"
       stroke="#008000" />
    <path
       d="m 303.4,325.3 1.5,-0.7 2.3,-2.3 v 15.8"
       id="titre_1"
       stroke="#4b0082" />
  </g>
  <g
     id="page_002">
    <path
       d="m 902.9,199.9 0.3,0.6 0.9,0.8 -6.2,0.4 m 6.8,3.9 -4.4,-2.8 0.3,4.5 m 4.1,-1.7 -6.3,0.4 m 66.3,78.8 -0.3,0.1 -0.6,-0.1 -0.4,-0.2 -0.4,-0.5 -0.4,-1.2 0.1,-0.6 0.2,-0.4 0.5,-0.5 0.6,-0.1 0.7,0.1 1,0.3 3.7,2.1 -1.1,-4.1 m -7.5,-3.2 6.8,1.1 m -5.7,2.9 -1.1,-4 m -92.5,38.5 0.1,0.3 0.2,0.6 -0.1,0.4 -0.3,0.6 -1,0.8 -0.6,0.1 -0.4,-0.1 -0.6,-0.3 -0.4,-0.5 -0.1,-0.6 -0.1,-1.1 0.6,-4.2 -3.3,2.5 m 1.4,6.8 0.5,-0.8 -0.1,-1 -0.6,-1.4 -0.5,-0.8 -1.2,-1 -1,-0.3 -0.9,0.3 -0.5,0.3 -0.5,0.8 v 1.1 l 0.7,1.4 0.5,0.7 1.2,1 1,0.4 0.9,-0.3 0.3,-0.3 M 812.6,431 v -0.3 l 0.3,-0.6 0.3,-0.3 0.6,-0.3 1.2,-0.1 0.6,0.3 0.3,0.3 0.3,0.6 v 0.6 l -0.2,0.6 -0.6,0.9 -2.9,3.1 4.2,-0.1 m 2.4,-6.4 -0.9,0.3 -0.2,0.6 v 0.6 l 0.3,0.6 0.6,0.3 1.2,0.3 0.9,0.2 0.7,0.6 0.3,0.6 v 0.9 l -0.3,0.6 -0.3,0.3 -0.9,0.4 h -1.2 l -0.9,-0.3 -0.3,-0.3 -0.3,-0.5 v -0.9 l 0.3,-0.7 0.5,-0.6 0.9,-0.3 1.2,-0.3 0.6,-0.4 0.3,-0.6 v -0.6 l -0.4,-0.6 -0.9,-0.2 H 819 m -73.7,-51.7 0.3,-0.1 h 0.6 l 0.4,0.2 0.5,0.5 0.5,1.1 -0.1,0.6 -0.2,0.4 -0.4,0.5 -0.6,0.3 -0.6,-0.1 -1.1,-0.2 -3.9,-1.7 1.6,3.9 m 5,-0.2 0.3,-0.1 h 0.7 l 0.4,0.2 0.5,0.4 0.4,1.2 v 0.6 l -0.2,0.4 -0.5,0.5 -0.5,0.2 h -0.7 l -1,-0.3 -3.9,-1.6 1.5,3.9 m 66.1,-196.4 -0.6,0.5 -0.6,1 -1.5,-6.1 m 0.2,5.2 -0.6,0.4 -0.6,1.1 -1.5,-6.1 m 18.4,76.2 -0.3,-0.1 -0.5,-0.3 -0.3,-0.4 -0.2,-0.6 0.2,-1.2 0.4,-0.5 0.3,-0.3 0.6,-0.2 0.6,0.1 0.6,0.3 0.8,0.8 2.5,3.3 0.6,-4.1 m -4.7,-1.7 -0.2,-0.7 -0.8,-1 6.3,0.9 m -122,6.6 1,3.2 -2.8,-1 0.2,0.8 -0.1,0.7 -0.2,0.4 -0.7,0.5 -0.6,0.2 h -1 l -0.7,-0.4 -0.6,-0.8 -0.2,-0.8 v -1 l 0.2,-0.4 0.5,-0.4 m 5.6,7.9 h -1 l -0.7,-0.4 -0.6,-0.8 -0.1,-0.3 0.1,-0.9 0.4,-0.8 0.7,-0.5 0.3,-0.1 h 1 l 0.7,0.4 0.6,0.8 0.1,0.3 -0.1,0.9 -0.4,0.8 -1,0.6 -1.4,0.4 -1.6,0.2 -1,-0.3 -0.6,-0.8 -0.1,-0.5 v -1 l 0.5,-0.5 M 704.5,59.7 V 60 l -0.4,0.6 -0.3,0.2 -0.7,0.2 -1.2,-0.1 -0.5,-0.4 -0.3,-0.4 -0.2,-0.6 0.1,-0.6 0.4,-0.6 0.8,-0.7 3.4,-2.6 -4.2,-0.6 m -5.6,5.5 2.9,0.5 0.8,-2.7 -0.4,0.3 -0.9,0.2 -0.9,-0.2 -0.9,-0.4 -0.5,-0.7 -0.1,-0.9 0.1,-0.6 0.4,-0.9 0.7,-0.5 0.9,-0.1 0.9,0.1 0.9,0.4 0.2,0.4 0.2,0.6 m -27.9,132.5 -5.2,0.4 2.9,3.5 m 2.3,-3.9 -4.9,4.1 m 7.7,-0.6 -0.8,-0.5 -1.1,0.1 -1.4,0.7 -0.6,0.6 -1,1.2 -0.3,1 0.3,0.9 0.4,0.5 0.8,0.5 1.1,-0.1 1.3,-0.8 0.7,-0.5 1,-1.2 0.3,-1.1 -0.3,-0.9 -0.3,-0.3 m -44.1,-38.1 -4.8,2 3.8,2.4 m 1,-4.4 -3.4,5.4 m 5.2,-2.4 0.2,-0.2 0.5,-0.4 h 0.4 0.7 l 1,0.7 0.4,0.5 0.1,0.5 -0.1,0.6 -0.3,0.5 -0.6,0.4 -1,0.4 -4.1,0.9 3.5,2.3 m -14.8,-84.8 -0.2,3.3 -2.3,-1.9 -0.1,0.9 -0.3,0.5 -0.3,0.3 -0.9,0.2 H 614 l -0.9,-0.4 -0.6,-0.6 -0.2,-0.9 0.1,-0.9 0.3,-0.9 0.4,-0.3 0.6,-0.2 m 3.1,6.1 h 0.3 l 0.6,0.3 0.3,0.4 0.2,0.6 v 1.2 l -0.4,0.6 -0.3,0.2 -0.6,0.3 -0.6,-0.1 -0.6,-0.3 -0.9,-0.7 -2.7,-3.2 -0.3,4.2 M 647.9,42.4 645,41 l 2.7,-1.4 -0.8,-0.4 -0.4,-0.5 -0.2,-0.4 0.2,-1 0.2,-0.5 0.7,-0.7 0.8,-0.3 0.9,0.2 0.8,0.4 0.7,0.6 0.2,0.5 v 0.6 m -7.6,2 -3,-1.5 2.7,-1.4 -0.8,-0.4 -0.4,-0.5 -0.2,-0.4 0.2,-0.9 0.2,-0.6 0.7,-0.7 0.8,-0.2 1,0.1 0.8,0.4 0.6,0.7 0.2,0.4 v 0.7 m 350.5,404.2 4.4,2.7 -0.3,-4.5 m -4.1,1.8 6.3,-0.5 m -6.7,-5.3 4.4,2.7 -0.3,-4.5 m -4.1,1.8 6.3,-0.4 m -28.8,34.4 3.1,1 -2.4,1.7 0.8,0.3 0.5,0.5 0.2,0.4 v 0.9 l -0.2,0.6 -0.5,0.7 -0.8,0.4 h -0.9 l -0.9,-0.2 -0.7,-0.6 -0.2,-0.4 -0.1,-0.6 m 10,-2.2 -2.9,-0.9 -1.1,2.5 0.4,-0.2 h 1 l 0.8,0.3 0.8,0.5 0.4,0.8 v 0.9 l -0.2,0.6 -0.5,0.7 -0.8,0.4 -0.9,0.1 -0.9,-0.3 -0.8,-0.6 -0.2,-0.3 -0.1,-0.7 m -177.4,-300.6 0.4,-0.6 0.4,-1.1 2.6,5.7 m -1.1,-5.1 0.4,-0.5 0.5,-1.2 2.6,5.8 m -30.3,-129.2 -0.5,0.4 -0.7,1.1 -1.7,-6.1 m -0.2,5.3 0.1,0.3 -0.2,0.7 -0.2,0.3 -0.5,0.5 -1.1,0.3 -0.7,-0.1 -0.3,-0.2 -0.5,-0.5 -0.2,-0.6 0.2,-0.6 0.3,-1.1 2.1,-3.7 -4.1,1.2 m -2.4,7.2 1.8,-4.8 -4.4,1.2 m 2.6,3.6 -1.7,-6 m 56.4,57.4 -0.4,-0.6 -1.1,-0.7 6.2,-1.2 m -5.2,0 -0.5,-0.6 -1,-0.7 6.2,-1.2 m -5.4,-4.1 1,0.1 0.7,0.5 0.4,0.8 0.1,0.3 -0.1,0.9 -0.5,0.7 -0.8,0.5 -0.3,0.1 -0.9,-0.1 -0.7,-0.5 -0.5,-0.8 -0.1,-0.3 0.1,-1 0.5,-0.7 1.1,-0.5 1.5,-0.3 h 1.5 l 1,0.4 0.5,0.8 0.1,0.6 -0.1,1 -0.5,0.4 m 120.5,34.4 -0.3,-0.1 -0.5,-0.4 -0.2,-0.4 -0.2,-0.7 0.3,-1.1 0.5,-0.5 0.4,-0.2 0.6,-0.2 0.6,0.2 0.5,0.4 0.7,0.8 2.1,3.7 1.1,-4 m -4,-6 -0.6,0.1 -0.5,0.8 -0.2,0.6 0.1,0.9 0.7,0.8 1.3,0.7 1.5,0.4 h 1.2 l 0.8,-0.4 0.5,-0.8 0.1,-0.3 -0.1,-0.9 -0.4,-0.8 -0.8,-0.5 -0.3,-0.1 -0.9,0.1 -0.8,0.4 -0.5,0.8 -0.1,0.3 0.1,0.9 0.4,0.8 0.8,0.5 m -13,-16.7 -0.4,0.6 -0.3,1.2 -3.1,-5.4 m -1.3,8.2 -0.5,-7 m 4.1,4.9 -3.6,2.1 m -121.7,351 0.1,0.3 -0.1,0.7 -0.1,0.4 -0.5,0.5 -1.1,0.4 -0.7,-0.1 -0.4,-0.2 -0.5,-0.5 -0.2,-0.5 0.1,-0.7 0.3,-1.1 1.8,-3.8 -3.9,1.4 m -3.4,5.6 v -0.9 l 0.3,-0.8 0.8,-0.5 0.3,-0.1 0.9,-0.1 0.8,0.4 0.6,0.8 0.1,0.2 v 1 l -0.4,0.7 -0.7,0.6 -0.3,0.1 h -1 l -0.7,-0.3 -0.7,-1.1 -0.5,-1.4 -0.2,-1.5 0.2,-1 0.8,-0.6 0.6,-0.2 h 0.9 l 0.5,0.4 m -44.4,71.6 3.1,-1.1 -0.9,2.8 0.8,-0.3 0.7,0.1 0.4,0.2 0.6,0.8 0.1,0.5 0.1,1 -0.4,0.7 -0.8,0.6 -0.8,0.3 h -1 l -0.3,-0.2 -0.5,-0.4 m 5.1,-7.2 -0.8,0.6 -0.3,1 0.2,1.6 0.3,0.8 0.8,1.3 0.9,0.7 h 0.9 l 0.6,-0.2 0.7,-0.6 0.3,-1.1 -0.2,-1.5 -0.3,-0.8 -0.8,-1.3 -0.8,-0.7 h -1 l -0.4,0.2 m -87.2,4.8 2.2,2.4 -2.9,0.3 0.6,0.6 0.2,0.7 -0.1,0.4 -0.4,0.8 -0.5,0.4 -0.8,0.4 h -0.9 l -0.8,-0.5 -0.6,-0.6 -0.4,-0.9 v -0.4 l 0.3,-0.6 m 9.5,2.7 -5.1,0.7 3,3.3 m 2.1,-4 -4.6,4.3 m 0.1,-165.5 0.2,0.1 0.4,0.6 0.2,0.4 v 0.6 l -0.5,1.1 -0.6,0.4 -0.4,0.2 H 674 l -0.5,-0.3 -0.4,-0.5 -0.5,-1 -1.4,-4 -1.9,3.8 m 4.5,5.1 0.2,-0.9 -0.5,-0.5 -0.5,-0.3 h -0.7 l -0.5,0.4 -0.8,1 -0.7,0.6 -0.8,0.3 h -0.6 l -0.8,-0.4 -0.5,-0.5 -0.1,-0.4 0.1,-1 0.6,-1 0.6,-0.7 0.4,-0.2 h 0.7 l 0.8,0.4 0.4,0.6 0.3,0.8 -0.1,0.9 -0.3,1.2 v 0.7 l 0.4,0.5 0.6,0.3 h 0.6 l 0.7,-0.7 0.6,-1.2 m 29.1,28 -0.3,0.1 -0.6,-0.2 -0.4,-0.2 -0.4,-0.5 -0.3,-1.2 0.2,-0.7 0.2,-0.3 0.5,-0.4 0.6,-0.2 0.7,0.2 1,0.4 3.6,2.3 -1,-4.1 m -5.1,-4.1 0.9,0.1 0.7,0.5 0.5,0.8 0.1,0.3 -0.1,0.9 -0.5,0.8 -0.8,0.4 -0.3,0.1 -0.9,-0.1 -0.8,-0.4 -0.4,-0.9 -0.1,-0.3 0.1,-0.9 0.4,-0.7 1.2,-0.6 1.4,-0.3 h 1.5 l 1.1,0.4 0.4,0.8 0.2,0.6 -0.1,0.9 -0.5,0.4 m -146.8,50.6 -0.9,-0.3 -0.7,-0.6 -0.3,-0.9 V 460 l 0.3,-0.9 0.5,-0.6 0.9,-0.3 h 0.3 l 0.9,0.2 0.7,0.6 0.3,0.9 v 0.3 l -0.3,0.9 -0.5,0.6 -1.2,0.4 h -1.5 l -1.5,-0.2 -1,-0.6 -0.3,-0.9 v -0.6 l 0.3,-0.9 0.5,-0.3 m 5.8,8.1 -0.2,-3 -2.7,-0.2 0.3,0.3 0.4,0.9 v 0.9 l -0.3,0.9 -0.5,0.6 -0.9,0.4 h -0.6 l -0.9,-0.3 -0.6,-0.5 -0.4,-0.9 v -0.9 l 0.2,-0.9 0.3,-0.4 0.6,-0.3 m 40.5,-35.5 0.5,-0.8 0.8,-0.4 h 0.9 0.3 l 0.8,0.6 0.4,0.7 0.1,1 -0.1,0.2 -0.5,0.8 -0.8,0.5 h -0.9 l -0.3,-0.1 -0.8,-0.5 -0.4,-0.7 v -1.3 l 0.4,-1.4 0.7,-1.4 0.8,-0.7 h 1 l 0.5,0.1 0.8,0.5 0.2,0.7 m -9.1,3.2 4,-3.3 -4.3,-1.2 m 0.3,4.5 1.7,-6.1 m -1.9,115 0.7,0.2 1.3,-0.2 -3.9,5 m 6.3,-3.4 -0.9,-0.3 -1,0.4 -1.1,1 -0.6,0.7 -0.7,1.3 v 1.1 l 0.5,0.8 0.5,0.4 0.9,0.3 1,-0.4 1.1,-1 0.6,-0.7 0.7,-1.3 v -1.1 l -0.5,-0.8 -0.4,-0.3 m 5.3,4 -5,1.5 3.6,2.7 m 1.4,-4.2 -3.9,4.9 m 35.2,4.8 1.4,-3 1.4,2.7 0.4,-0.9 0.5,-0.4 0.4,-0.1 1,0.1 0.5,0.3 0.7,0.6 0.3,0.8 -0.1,1 -0.4,0.8 -0.7,0.7 -0.4,0.1 h -0.7 m -1,-9.9 2.5,4.5 1.9,-4 m -4.4,-0.5 5.7,2.7 m 321.4,-47.3 -2.3,-2.4 3,-0.3 -0.6,-0.7 -0.2,-0.6 0.1,-0.4 0.4,-0.9 0.5,-0.4 0.8,-0.3 h 0.9 l 0.8,0.4 0.6,0.7 0.4,0.9 v 0.4 l -0.3,0.6 m -9.8,-3.1 2.1,2.2 2.2,-1.6 h -0.5 l -0.8,-0.5 -0.6,-0.6 -0.4,-0.9 0.1,-0.9 0.4,-0.8 0.5,-0.4 0.8,-0.4 0.9,0.1 0.8,0.4 0.6,0.7 0.4,0.8 v 0.5 l -0.3,0.6 m -114.3,94.1 0.3,3.3 -2.5,-1.6 v 0.9 l -0.2,0.6 -0.3,0.3 -0.9,0.4 H 845 l -0.9,-0.2 -0.6,-0.6 -0.4,-0.8 -0.1,-0.9 0.2,-0.9 0.3,-0.4 0.6,-0.3 m 5.7,6.7 -0.4,-0.9 -1,-0.5 -1.5,-0.2 -0.9,0.1 -1.4,0.4 -0.9,0.7 -0.2,0.9 v 0.6 l 0.4,0.9 1,0.5 1.5,0.2 0.9,-0.1 1.4,-0.4 0.9,-0.7 0.2,-0.9 v -0.5 m 143.3,-29.1 -0.5,-0.5 -1,-0.7 6.1,-1.4 m -7,-1.4 0.5,0.8 1,0.4 1.5,-0.1 0.9,-0.2 1.4,-0.6 0.8,-0.8 0.1,-0.9 -0.2,-0.6 -0.5,-0.8 -1,-0.4 h -1.5 l -0.9,0.2 -1.4,0.6 -0.7,0.8 -0.1,1 0.1,0.4 m 0.6,-4.1 H 991 l -0.7,-0.1 -0.3,-0.3 -0.5,-0.5 -0.2,-1.1 0.1,-0.7 0.3,-0.3 0.5,-0.5 0.6,-0.1 0.6,0.2 1,0.3 3.6,2.3 -0.9,-4.1 m -29.9,91.9 0.1,-0.6 -0.2,-1.3 5.1,3.7 m -3.6,-6.2 -0.3,0.9 0.4,1 1.1,1.2 0.7,0.5 1.4,0.6 1.1,0.1 0.7,-0.6 0.4,-0.5 0.3,-0.9 -0.4,-1 -1,-1.1 -0.8,-0.5 -1.4,-0.7 h -1 l -0.8,0.5 -0.3,0.4 m 4.1,-5.7 -1.7,2.5 2,1.8 -0.1,-0.4 0.3,-0.9 0.5,-0.7 0.8,-0.6 0.8,-0.1 0.9,0.3 0.5,0.3 0.6,0.8 0.1,0.8 -0.3,0.9 -0.5,0.8 -0.8,0.5 -0.4,0.1 -0.7,-0.1 m -83.5,31 0.7,-0.2 1,-0.7 -1.2,6.2 m 4.2,-5.9 -1,0.2 -0.7,0.7 -0.6,1.4 -0.2,0.9 v 1.6 l 0.4,0.9 0.9,0.5 0.6,0.1 0.9,-0.1 0.8,-0.8 0.5,-1.4 0.2,-0.9 v -1.5 l -0.4,-1 -0.8,-0.5 h -0.5 m 6.4,1.1 -3.7,3.6 4.4,0.9 m -0.7,-4.5 -1.2,6.2"
       id="nums_002"
       stroke="#000000"
       stroke-width="1" />
    <path
       d="m 941.7,688.6 -94,-18.3 -12.6,-153.2 -145.3,50.5 -36.2,-39.6 -23,48.5 -75.8,-58.4 -4.1,-109.3 92,25.4 48.9,-99.2 33.9,152.7 147.5,-52 -110.5,3.8 -43.4,-109.7 -36.2,-116 -31,-37.3 -46.5,-29.5 9.5,-130.2 65.2,32.3 41.3,6.4 89.3,-25.1 27.3,133.6 -67.7,30.2 72.2,-16.9 -23,165.5 81.6,-60.6 -9.6,-155.6 69.5,-39.6 -22.4,83.4 62.5,215.7 7,101.7 -65.3,-20.7 46.3,50.5 18.3,80.7 z"
       id="coupes_002"
       stroke="#ff0000"
       stroke-width="1.27"
       sodipodi:nodetypes="ccccccccccccccccccccccccccccccccccc" />
    <path
       d="m 891.5,126.6 47.1,43.8 m 0,0 -37.5,111.8 M 942.8,467.1 901.1,282.2 M 942.8,467.1 873,435.7 m 0,0 28.1,-153.5 M 873,435.7 819.5,342.8 m 123.3,124.3 -107.7,50 m 0,0 37.9,-81.4 m -110.5,3.8 57,-96.7 m -100.4,-13 51.2,-135.6 m 0,0 49.2,148.6 m -136.6,-129 87.4,-19.6 M 721.4,55.5 770.3,194.2 M 651.9,176.5 680.1,49.1 M 605.4,147 680.1,49.1 M 721.4,55.5 838,164 m -2.9,353.1 -109.6,-29.4 m -35.7,79.9 35.7,-79.9 M 653.6,528 725.5,487.7 M 653.6,528 642.7,434.2 m 0,0 82.8,53.5 m -71.9,40.3 -98.8,-9.9 m 434.3,-0.5 -154,-0.5 m 154,0.5 -141.4,152.7 m 159.7,-72 -159.7,72"
       id="plisM_002"
       stroke="#a52a2a"
       stroke-dasharray="4" />
    <path
       d="m 1001.1,386.1 -100,-103.9 m 100,103.9 -58.3,81 m -223.7,-137.3 100.4,13 M 682.9,213.8 721.4,55.5 M 682.9,213.8 680.1,49.1 m -125.3,469 87.9,-83.9"
       id="plisV_002"
       stroke="#008000"
       stroke-dasharray="4, 1, 1, 1"
       stroke-width="1.27" />
    <path
       d="m 949.1,332.1 4,4 m 0,-4 -4,4 m 20.9,88.5 4,4 m 0,-4 -4,4 m -202.7,-94.3 4,4 m 0,-4 -4,4 m -67.2,-205.7 4,4 m 0,-4 -4,4 m -20.6,-7.1 4,4 m 0,-4 -4,4 m -82.7,340.7 4,4 m 0,-4 -4,4"
       id="marqueV_002"
       stroke="#008000" />
    <path
       d="m 762.5,362.1 v -0.8 l 0.7,-1.5 0.8,-0.7 1.5,-0.8 h 3 l 1.5,0.8 0.7,0.7 0.8,1.5 v 1.5 l -0.8,1.5 -1.5,2.3 -7.5,7.5 h 10.5"
       id="titre_2"
       stroke="#4b0082" />
  </g>
  <g
     id="page_003">
    <path
       d="m 1258.3,343.7 4,3.2 0.3,-4.5 m -4.3,1.3 6.3,0.4 m -5.8,-6.6 -0.2,3 2.7,0.4 -0.3,-0.3 -0.3,-0.9 0.1,-0.9 0.3,-0.9 0.7,-0.5 0.9,-0.3 h 0.6 l 0.9,0.4 0.5,0.6 0.3,0.9 -0.1,0.9 -0.3,0.9 -0.4,0.3 -0.6,0.3 m -31.2,-65 5,-1.2 -3.4,-3 m -1.6,4.2 4.1,-4.8 m -8.2,0 -0.2,0.6 0.5,0.8 0.4,0.4 0.9,0.4 1.1,-0.3 1.2,-0.9 1,-1.2 0.5,-1.1 v -0.8 l -0.5,-0.8 -0.3,-0.2 -0.8,-0.4 -0.9,0.1 -0.8,0.4 -0.2,0.3 -0.4,0.8 0.1,0.9 0.5,0.8 0.2,0.2 0.9,0.4 0.8,-0.1 0.9,-0.5 m -9.1,128.7 -5.1,0.9 3.3,3.1 m 1.8,-4 -4.4,4.5 m 7.3,-1.6 -0.8,-0.4 -0.6,0.2 -0.5,0.4 -0.2,0.7 0.3,0.6 0.6,1.1 0.5,0.8 v 0.9 l -0.2,0.6 -0.7,0.6 -0.6,0.3 h -0.4 l -0.9,-0.4 -0.8,-0.9 -0.5,-0.8 v -0.4 l 0.2,-0.7 0.6,-0.6 0.7,-0.2 0.8,-0.1 0.9,0.4 1.1,0.7 0.6,0.2 0.6,-0.3 0.4,-0.4 0.2,-0.6 -0.4,-0.9 -1,-0.9 m -74,-137.7 2.8,-1 -0.6,-2.6 -0.1,0.3 -0.8,0.6 -0.8,0.3 h -1 l -0.8,-0.4 -0.5,-0.7 -0.2,-0.6 v -0.9 l 0.3,-0.8 0.8,-0.6 0.8,-0.3 h 1 l 0.4,0.2 0.5,0.5 m -6.8,7.7 2.8,-1 -0.6,-2.6 -0.2,0.4 -0.7,0.5 -0.9,0.3 -0.9,0.1 -0.8,-0.4 -0.6,-0.8 -0.2,-0.5 v -1 l 0.4,-0.8 0.7,-0.5 0.9,-0.3 h 0.9 l 0.4,0.2 0.5,0.4 m -16.4,45.9 -5.1,0.6 3,3.3 m 2.1,-3.9 -4.7,4.2 m 9.2,0.8 -6.7,2 m 3.9,-5.1 2.8,3.1 m 204.1,201 -0.3,0.9 0.3,0.6 0.5,0.4 0.6,0.1 0.6,-0.3 1,-0.8 0.8,-0.5 0.8,-0.1 0.7,0.1 0.7,0.6 0.3,0.6 0.1,0.4 -0.4,0.9 -0.7,0.9 -0.8,0.6 h -0.4 l -0.7,-0.1 -0.7,-0.6 -0.3,-0.6 -0.1,-0.8 0.4,-0.9 0.4,-1.1 0.2,-0.7 -0.3,-0.6 -0.5,-0.4 -0.6,-0.1 -0.8,0.5 -0.9,1.1 m 3.6,-4.6 -0.3,0.9 0.3,1 1,1.2 0.7,0.5 1.4,0.7 1.1,0.1 0.8,-0.5 0.3,-0.5 0.4,-0.9 -0.4,-1 -1,-1.2 -0.7,-0.5 -1.4,-0.7 -1,-0.1 -0.8,0.5 -0.3,0.4 m 118.6,-82.6 -0.3,-0.6 -1,-0.8 6.3,-0.5 m -5.1,-1.3 h -0.3 l -0.6,-0.2 -0.4,-0.3 -0.3,-0.6 -0.1,-1.2 0.2,-0.6 0.3,-0.3 0.6,-0.3 0.6,-0.1 0.6,0.3 1,0.5 3.2,2.8 -0.3,-4.2 m -6.4,-1.3 -0.3,-3.3 2.5,1.6 v -0.9 l 0.2,-0.6 0.3,-0.3 0.9,-0.4 h 0.6 l 0.9,0.2 0.6,0.6 0.4,0.8 0.1,0.9 -0.3,1 -0.2,0.3 -0.6,0.3 m 17.1,82.2 -0.5,-0.4 -1.2,-0.4 5.7,-2.7 m -5.2,0.6 -0.3,0.1 h -0.7 l -0.4,-0.1 -0.5,-0.4 -0.5,-1.1 v -0.7 l 0.1,-0.4 0.5,-0.5 0.5,-0.3 h 0.7 l 1,0.2 4,1.5 -1.7,-3.8 m -5.1,0.5 -0.3,0.1 h -0.6 l -0.4,-0.2 -0.6,-0.4 -0.5,-1.1 0.1,-0.6 0.1,-0.4 0.4,-0.6 0.6,-0.2 h 0.6 l 1.1,0.2 4,1.4 -1.8,-3.8 m -75.7,27.7 -0.7,-0.6 -0.7,0.1 -0.5,0.3 -0.3,0.6 0.1,0.7 0.4,1.2 0.2,0.9 -0.1,0.8 -0.4,0.6 -0.7,0.5 -0.7,0.1 -0.4,-0.1 -0.7,-0.6 -0.7,-1 -0.3,-0.9 0.1,-0.4 0.4,-0.6 0.7,-0.5 0.7,-0.1 0.8,0.2 0.7,0.6 1,0.8 0.6,0.3 0.6,-0.1 0.5,-0.3 0.3,-0.6 -0.2,-0.9 -0.8,-1.1 m 1.1,4 0.5,0.3 1.3,0.3 -5.2,3.5 m 52.6,15.5 0.4,-0.6 0.3,-1.2 3.1,5.5 m -1.6,-5 0.4,-0.5 0.4,-1.2 3,5.5 m 1.5,-7.2 -0.6,-0.4 -0.9,0.2 -0.5,0.3 -0.7,0.7 -0.1,1 0.5,1.5 0.7,1.3 0.9,0.9 0.8,0.2 0.9,-0.1 0.3,-0.2 0.6,-0.7 0.2,-0.8 -0.1,-0.9 -0.2,-0.3 -0.7,-0.6 -0.8,-0.3 -0.9,0.2 -0.3,0.2 -0.6,0.7 -0.3,0.8 0.2,0.9 m 29.1,-214.8 -0.2,0.9 0.3,0.6 0.5,0.3 0.7,0.1 0.5,-0.3 0.9,-0.9 0.8,-0.6 0.8,-0.2 0.7,0.1 0.7,0.5 0.4,0.6 0.1,0.4 -0.3,0.9 -0.6,1 -0.8,0.6 -0.4,0.1 -0.6,-0.1 -0.8,-0.5 -0.3,-0.5 -0.2,-0.9 0.2,-0.9 0.4,-1.2 0.1,-0.6 -0.3,-0.6 -0.5,-0.3 -0.7,-0.1 -0.7,0.6 -0.8,1.1 m 3.7,-2.9 -0.2,-0.2 -0.4,-0.6 v -0.4 -0.7 l 0.7,-1 0.6,-0.3 0.4,-0.1 0.6,0.1 0.5,0.3 0.4,0.6 0.4,1 0.9,4.1 2.3,-3.5 m -203.4,35.3 -1.5,-5 -2.7,3.6 m 4.2,1.4 -5,-3.9 m 1.2,8.8 1.8,-2.4 -2,-1.9 0.1,0.4 -0.3,0.9 -0.6,0.7 -0.7,0.6 -0.9,0.1 -0.9,-0.3 -0.5,-0.4 -0.5,-0.8 -0.1,-0.8 0.3,-0.9 0.6,-0.7 0.7,-0.6 h 0.5 l 0.6,0.1 m 189.1,-89.2 4.7,-5.2 m -0.6,6.3 -4.1,-1.1 m -2.5,-0.7 0.9,-0.1 0.5,-0.5 0.2,-0.5 -0.2,-0.7 -0.5,-0.5 -1,-0.6 -0.8,-0.5 -0.4,-0.7 -0.2,-0.7 0.3,-0.9 0.4,-0.5 0.4,-0.2 h 1 l 1.1,0.3 0.8,0.5 0.2,0.4 0.1,0.7 -0.2,0.8 -0.5,0.5 -0.7,0.5 h -1 -1.2 l -0.7,0.1 -0.4,0.5 -0.2,0.6 0.2,0.6 0.7,0.5 1.3,0.4 m -213.9,391.9 -0.4,-0.6 -0.9,-0.2 h -0.6 l -0.9,0.4 -0.5,0.9 -0.2,1.6 0.1,1.5 0.4,1.1 0.6,0.6 0.9,0.2 h 0.3 l 0.9,-0.3 0.6,-0.7 0.2,-0.9 v -0.3 l -0.4,-0.9 -0.6,-0.5 -0.9,-0.3 h -0.3 l -0.9,0.4 -0.6,0.6 -0.2,1 m 6.3,-4.7 -0.9,0.4 -0.3,0.6 0.1,0.6 0.3,0.6 0.6,0.2 1.2,0.3 0.9,0.2 0.7,0.6 0.3,0.5 0.1,0.9 -0.3,0.7 -0.3,0.3 -0.8,0.3 -1.2,0.1 -0.9,-0.2 -0.4,-0.3 -0.3,-0.6 -0.1,-0.9 0.3,-0.6 0.6,-0.6 0.8,-0.4 1.2,-0.4 0.6,-0.3 0.2,-0.6 v -0.6 l -0.3,-0.6 -0.9,-0.2 h -1.4 m 101.9,-99.6 0.8,-0.3 0.3,-0.6 v -0.6 l -0.3,-0.6 -0.6,-0.3 -1.3,-0.2 -0.9,-0.3 -0.6,-0.6 -0.3,-0.5 -0.1,-0.9 0.3,-0.7 0.3,-0.3 0.9,-0.3 1.2,-0.1 0.9,0.3 0.3,0.3 0.3,0.6 0.1,0.9 -0.3,0.6 -0.6,0.6 -0.9,0.3 -1.1,0.4 -0.6,0.3 -0.3,0.6 v 0.6 l 0.4,0.6 0.9,0.3 1.3,-0.1 m -5.8,0.3 0.9,-0.4 0.6,-0.9 0.2,-1.5 -0.1,-0.9 -0.3,-1.5 -0.7,-0.9 -0.9,-0.2 h -0.6 l -0.9,0.4 -0.5,0.9 -0.2,1.5 v 0.9 l 0.4,1.5 0.6,0.9 0.9,0.2 h 0.5 m 34.3,40.7 0.3,0.9 0.6,0.3 h 0.6 l 0.6,-0.3 0.3,-0.6 0.3,-1.2 0.3,-0.9 0.6,-0.5 0.7,-0.3 h 0.9 l 0.5,0.3 0.3,0.3 0.3,0.9 v 1.2 l -0.3,0.9 -0.3,0.3 -0.6,0.3 h -0.9 l -0.6,-0.3 -0.6,-0.7 -0.3,-0.9 -0.3,-1.2 -0.3,-0.6 -0.6,-0.3 h -0.6 l -0.6,0.3 -0.3,0.9 v 1.3 m 1.5,-3.9 -0.3,-0.6 -0.9,-0.9 6.3,0.1 m -195.1,-85.8 1,-5.1 -4.1,1.9 m 3.1,3.2 -2.6,-5.7 m -1.1,7.4 0.7,-0.7 v -0.6 l -0.3,-0.6 -0.5,-0.4 h -0.7 l -1.2,0.2 -0.9,0.1 -0.8,-0.2 -0.6,-0.5 -0.3,-0.8 v -0.6 l 0.1,-0.4 0.7,-0.7 1.1,-0.5 0.9,-0.1 0.4,0.1 0.6,0.4 0.3,0.9 v 0.6 l -0.3,0.8 -0.7,0.7 -0.9,0.8 -0.4,0.5 v 0.7 l 0.2,0.5 0.5,0.4 1,-0.1 1.2,-0.6 m -55.7,71 -4.8,-1.9 1,4.3 m 3.8,-2.4 -6.2,1.4 m 7.6,5.2 -6.8,-1.5 m 5.9,-2.6 0.9,4.1 m 280.1,86.7 6.2,-3.1 m -2.9,5.7 -3.3,-2.6 m -3.2,-3.6 -0.1,0.7 0.5,0.8 0.5,0.3 0.9,0.3 1,-0.3 1.1,-1 1,-1.2 0.5,-1.1 -0.1,-0.8 -0.6,-0.8 -0.2,-0.2 -0.9,-0.3 -0.8,0.1 -0.8,0.5 -0.2,0.2 -0.3,0.9 0.1,0.9 0.5,0.7 0.2,0.2 0.9,0.4 0.9,-0.2 0.8,-0.5 m -29,39.3 -2.8,1.2 0.8,2.6 0.2,-0.4 0.7,-0.7 0.8,-0.3 0.9,-0.1 0.8,0.3 0.7,0.7 0.2,0.5 0.1,1 -0.3,0.8 -0.7,0.6 -0.8,0.4 -1,0.1 -0.4,-0.2 -0.5,-0.4 m 6.5,-7.5 -0.5,-0.4 -1,0.1 -0.5,0.2 -0.7,0.7 -0.2,1 0.3,1.5 0.6,1.4 0.8,1 0.8,0.3 0.9,-0.1 0.3,-0.1 0.7,-0.7 0.3,-0.8 -0.1,-0.9 -0.1,-0.3 -0.6,-0.7 -0.8,-0.3 -1,0.1 -0.2,0.1 -0.7,0.7 -0.3,0.7 v 1 m -94.9,-8.3 0.6,-0.2 0.4,-0.9 0.1,-0.6 -0.3,-0.9 -0.8,-0.7 -1.5,-0.4 -1.5,-0.1 -1.2,0.2 -0.7,0.5 -0.3,0.9 v 0.3 l 0.2,0.9 0.5,0.7 0.9,0.3 0.3,0.1 0.9,-0.3 0.7,-0.5 0.3,-0.9 0.1,-0.3 -0.3,-0.9 -0.5,-0.7 -0.9,-0.3 m 3.7,6.8 -0.2,-0.9 -0.6,-0.3 -0.6,-0.1 -0.6,0.3 -0.4,0.5 -0.4,1.2 -0.3,0.9 -0.7,0.5 -0.6,0.3 -0.9,-0.1 -0.6,-0.3 -0.3,-0.3 -0.2,-1 0.1,-1.2 0.4,-0.8 0.3,-0.3 0.6,-0.3 0.9,0.1 0.6,0.3 0.5,0.7 0.3,0.9 0.2,1.2 0.2,0.7 0.6,0.3 h 0.6 l 0.6,-0.2 0.4,-0.9 0.1,-1.3 m 11.4,29.9 -0.4,-0.6 -0.9,-0.2 -0.6,0.1 -0.9,0.4 -0.5,0.9 -0.1,1.6 0.1,1.5 0.4,1.1 0.7,0.5 0.9,0.3 0.3,-0.1 0.9,-0.4 0.5,-0.6 0.2,-1 v -0.3 l -0.4,-0.8 -0.7,-0.6 -0.9,-0.2 -0.3,0.1 -0.8,0.4 -0.6,0.6 -0.2,1 m 8.6,-5.2 -2.3,6.6 m -1.8,-6.1 4.1,-0.5 m -122.4,-45.5 -0.6,0.1 -0.7,0.7 -0.2,0.5 -0.1,1 0.6,0.9 1.2,0.9 1.4,0.6 1.2,0.2 0.8,-0.3 0.6,-0.7 0.2,-0.3 0.1,-1 -0.4,-0.7 -0.7,-0.7 -0.2,-0.1 -1,-0.1 -0.8,0.3 -0.6,0.7 -0.1,0.3 -0.1,0.9 0.3,0.8 0.7,0.7 m -0.2,-10.1 4.6,5.3 m -6.3,-1.4 1.7,-3.9 m -68.8,24.7 -3,0.1 -0.2,2.7 0.3,-0.3 0.9,-0.4 h 0.9 l 0.9,0.3 0.6,0.5 0.3,0.9 0.1,0.6 -0.3,0.9 -0.6,0.7 -0.8,0.3 h -0.9 l -1,-0.2 -0.3,-0.3 -0.3,-0.6 m 8.8,-4.6 -0.4,-0.6 -0.9,-0.2 h -0.6 l -0.9,0.3 -0.5,1 -0.3,1.5 0.1,1.5 0.4,1.2 0.6,0.5 0.9,0.3 h 0.3 l 0.9,-0.4 0.6,-0.6 0.2,-0.9 v -0.3 l -0.3,-0.9 -0.7,-0.6 -0.9,-0.2 h -0.3 l -0.9,0.3 -0.5,0.7 -0.3,0.9 m -18.1,-31.8 2,-2.3 -1.8,-2 v 0.4 l -0.4,0.9 -0.6,0.7 -0.8,0.5 h -0.8 l -0.9,-0.3 -0.5,-0.4 -0.4,-0.8 -0.1,-0.9 0.4,-0.9 0.6,-0.6 0.8,-0.5 0.4,-0.1 0.6,0.2 m -2,10.1 2,-2.3 -1.8,-2 v 0.5 l -0.4,0.8 -0.6,0.7 -0.8,0.5 -0.8,0.1 -0.9,-0.4 -0.5,-0.4 -0.4,-0.8 -0.1,-0.9 0.4,-0.8 0.6,-0.7 0.8,-0.5 h 0.4 l 0.6,0.1 m 184.2,-405.3 -5.1,-0.9 2,4.1 m 3.1,-3.2 -5.6,2.8 m 7.5,3.2 0.4,-0.5 -0.1,-1 -0.3,-0.5 -0.6,-0.7 -1.1,-0.1 -1.5,0.4 -1.3,0.6 -1,0.8 -0.3,0.8 0.2,1 0.1,0.3 0.7,0.6 0.8,0.3 0.9,-0.1 0.3,-0.2 0.7,-0.6 0.2,-0.8 -0.1,-1 -0.1,-0.3 -0.7,-0.6 -0.8,-0.3 -0.9,0.1 m 44.2,-52.2 0.8,-6.9 m 3.2,5.6 -4,1.3 m -4,1.5 1.5,-5 -4.3,1.5 m 2.8,3.5 -2.1,-6 m 38.8,-57 0.2,-0.7 -0.5,-0.8 -0.5,-0.3 -0.9,-0.4 -1,0.3 -1.2,1 -1,1.1 -0.5,1.1 0.1,0.9 0.5,0.8 0.2,0.2 0.9,0.3 0.8,-0.1 0.8,-0.5 0.2,-0.2 0.4,-0.9 -0.1,-0.8 -0.5,-0.8 -0.2,-0.2 -0.9,-0.4 -0.8,0.1 -0.9,0.5 m 8,1.2 -0.9,-0.3 -1,0.3 -1.2,0.9 -0.6,0.7 -0.7,1.3 -0.2,1.1 0.5,0.8 0.5,0.4 0.9,0.4 1,-0.3 1.2,-1 0.6,-0.7 0.7,-1.3 0.1,-1.1 -0.5,-0.8 -0.3,-0.3 m 37.1,-33.1 -0.2,0.7 0.5,0.8 0.4,0.4 0.9,0.5 1,-0.3 1.3,-0.8 1,-1.1 0.6,-1.1 v -0.8 l -0.4,-0.9 -0.2,-0.2 -0.9,-0.4 h -0.8 l -0.9,0.4 -0.2,0.3 -0.4,0.8 v 0.9 l 0.5,0.8 0.2,0.2 0.8,0.4 h 0.9 l 0.8,-0.4 m -5.5,-1.5 -0.6,-0.2 h -1.3 l 4.4,-4.5 m -60.1,-37.2 2.6,1.3 1.5,-2.2 -0.4,0.1 -0.9,-0.1 -0.8,-0.5 -0.7,-0.6 -0.3,-0.8 0.2,-1 0.2,-0.5 0.7,-0.7 0.8,-0.2 1,0.1 0.8,0.4 0.6,0.7 0.2,0.4 v 0.7 m -7.6,1.8 -3,-1.5 2.7,-1.3 -0.8,-0.4 -0.4,-0.5 -0.1,-0.4 0.1,-1 0.3,-0.5 0.7,-0.7 0.8,-0.2 0.9,0.1 0.8,0.4 0.7,0.7 0.1,0.4 v 0.6 m -57.8,37.7 -2.8,-1 -1.2,2.4 0.4,-0.2 h 0.9 l 0.8,0.3 0.8,0.6 0.4,0.8 -0.1,0.9 -0.2,0.6 -0.5,0.8 -0.8,0.3 h -1 l -0.8,-0.3 -0.8,-0.6 -0.1,-0.4 -0.1,-0.6 m 6.2,-1.8 h 0.6 l 1.2,-0.6 -2.1,6 m -1.1,-31.9 2.6,-1.7 -1.3,-2.4 -0.1,0.4 -0.5,0.7 -0.8,0.5 -0.9,0.3 -0.9,-0.2 -0.7,-0.6 -0.3,-0.5 -0.3,-0.9 0.2,-0.8 0.6,-0.8 0.7,-0.5 1,-0.2 0.4,0.1 0.6,0.3 m -3,6.2 0.2,0.3 0.1,0.7 -0.1,0.4 -0.4,0.6 -1,0.6 -0.6,0.1 -0.4,-0.1 -0.6,-0.3 -0.3,-0.5 -0.1,-0.7 v -1.1 l 0.9,-4.1 -3.6,2.3 m 167.2,120.8 0.6,7 m -4.2,-4.8 3.6,-2.2 m 5.4,-0.8 0.2,0.9 -0.2,0.9 -0.6,0.7 -0.3,0.1 -0.9,0.2 -0.8,-0.2 -0.8,-0.6 -0.1,-0.2 -0.2,-1 0.2,-0.8 0.6,-0.7 0.3,-0.2 0.9,-0.2 0.8,0.2 0.9,0.9 0.8,1.3 0.5,1.4 -0.1,1.1 -0.6,0.7 -0.5,0.3 -0.9,0.3 -0.6,-0.4 m -5.7,-134.7 0.5,-0.4 0.3,-0.9 v -0.6 l -0.3,-0.9 -0.9,-0.5 -1.5,-0.3 h -1.5 l -1.2,0.4 -0.6,0.6 -0.3,0.9 v 0.3 l 0.3,0.9 0.7,0.6 0.9,0.2 h 0.3 l 0.9,-0.3 0.5,-0.6 0.3,-0.9 v -0.3 l -0.3,-0.9 -0.6,-0.6 -0.9,-0.3 m 4.3,5.6 0.1,3.3 -2.5,-1.8 0.1,0.9 -0.3,0.6 -0.3,0.3 -0.9,0.4 h -0.6 l -0.9,-0.3 -0.6,-0.6 -0.3,-0.9 -0.1,-0.9 0.3,-0.9 0.3,-0.3 0.6,-0.3 m 30.9,-41.5 -0.6,-0.1 -1.3,0.3 3.2,-5.4 m -3.5,3.9 -0.7,-0.1 -1.2,0.3 3.2,-5.4 m -4,3.5 -0.1,0.3 -0.6,0.3 -0.4,0.1 h -0.7 l -1,-0.6 -0.4,-0.6 -0.1,-0.4 0.1,-0.7 0.3,-0.5 0.5,-0.3 1,-0.5 4.1,-1.1 -3.6,-2.1 m 23.3,97.1 -0.2,-0.6 -0.8,-1 6.2,0.7 m -4.9,-1.6 -0.2,-0.7 -0.8,-1 6.2,0.8 m -6.2,-2.5 0.4,-3.3 2.1,2.1 0.2,-0.9 0.3,-0.6 0.4,-0.2 0.9,-0.2 h 0.6 l 0.8,0.5 0.6,0.6 0.2,1 -0.2,0.8 -0.4,0.9 -0.3,0.3 -0.6,0.2"
       id="nums_003"
       stroke="#000000"
       stroke-width="1" />
    <path
       d="m 1264.1,385.9 54,-70.2 -39.5,-79.4 127.6,-43.2 -61.6,-51.9 -83.7,-29.6 73.8,-48.4 57.3,29 63.1,61.4 -3.7,-141 69.6,40.6 -17.6,144 -72.1,43.3 105.1,29.7 -69.2,106.4 6.3,83.4 28.1,60.5 -72.2,40 -53.1,-78.7 -51.4,66.2 83.7,-3.9 -1.8,94.9 61.2,47.9 -114.9,50.6 -49.6,5.2 6.4,-83.4 -83.4,5.5 -20.2,45.7 -125.3,5.7 74.6,-85.8 -23.1,-98.7 145.3,-68.1 -115.4,-111.6 -67.4,-75.6 107.5,-37 66.9,58.1 z"
       id="coupes_003"
       stroke="#ff0000"
       stroke-width="1.27"
       sodipodi:nodetypes="ccccccccccccccccccccccccccccccccccccc" />
    <path
       d="m 1162.4,352 107,-54.5 m -5.3,88.4 -101.7,-33.9 m 0,0 40.1,-112.6 m 61.6,146.5 13.7,77.7 m 189.4,-87 -189.4,87 m 189.4,-87 -90.9,105.2 m 0,0 -98.5,-18.2 m 47.1,84.4 -47.1,-84.4 m 195.7,-3.6 -97.2,21.8 m -112.2,-95.9 272.3,-115.7 m -218.3,45.5 218.3,-45.5 m -218.3,45.5 113.2,-75.2 M 1324.9,548 1226.5,664.8 m 0,0 51.3,-201.2 m 47.1,84.4 -15,111.3 m 98.7,-115.2 -98.7,115.2 m 96.9,-20.3 -96.9,20.3 m -83.4,5.5 -94,-133.1 m 94,133.1 -70.9,-34.4 m 197.5,107.1 -43.2,-78.2 m 96.9,-20.3 -53.7,98.5 m -146.8,-27 -50.7,-80.1 m 250.6,-437.3 25.1,47.4 m 23.8,-86.9 -23.8,86.9 m -86.7,-99.3 47.4,-49 m -47.4,49 -9.9,-78 m 120.4,90.4 48.3,43.6 m -52,-184.6 52,184.6"
       id="plisM_003"
       stroke="#a52a2a"
       stroke-dasharray="4" />
    <path
       d="m 1264.1,385.9 203.1,-9.3 m 34.4,143.9 -125.3,-38.7 m -97.7,-245.5 152.7,4.2 m -25.1,-47.4 48.9,-39.5 m -110.5,-12.4 110.5,12.4"
       id="plisV_003"
       stroke="#008000"
       stroke-dasharray="4, 1, 1, 1"
       stroke-width="1.27" />
    <path
       d="m 1363.7,379.2 4,4 m 0,-4 -4,4 m 73.3,116 4,4 m 0,-4 -4,4 m -84,-266.8 4,4 m 0,-4 -4,4 m 75.6,-69.1 4,4 m 0,-4 -4,4 m -30.8,-29.9 4,4 m 0,-4 -4,4"
       id="marqueV_003"
       stroke="#008000" />
    <path
       d="m 1332.3,396.3 h 8.2 l -4.5,6 h 2.3 l 1.5,0.7 0.7,0.8 0.8,2.2 v 1.5 l -0.8,2.3 -1.5,1.5 -2.2,0.7 h -2.3 l -2.2,-0.7 -0.8,-0.8 -0.7,-1.5"
       id="titre_3"
       stroke="#4b0082" />
  </g>
  <g
     id="page_004">
    <path
       d="m 1775.5,155.6 0.6,-0.3 0.3,-0.9 v -0.6 l -0.3,-0.9 -0.9,-0.6 -1.5,-0.3 h -1.5 l -1.2,0.3 -0.6,0.6 -0.3,0.9 v 0.3 l 0.3,0.9 0.6,0.6 0.9,0.3 h 0.3 l 0.9,-0.3 0.6,-0.6 0.3,-0.9 v -0.3 l -0.3,-0.9 -0.6,-0.6 -0.9,-0.3 m 4.2,5.7 -0.1,3.3 -2.4,-1.8 v 0.9 l -0.3,0.6 -0.3,0.3 -0.9,0.2 h -0.6 l -0.9,-0.3 -0.6,-0.6 -0.3,-0.9 v -0.9 l 0.4,-0.9 0.3,-0.3 0.6,-0.3 m 29.3,-39.8 -0.1,0.7 0.6,0.8 0.4,0.3 1,0.3 1,-0.4 1.1,-1.1 0.8,-1.2 0.4,-1.2 -0.1,-0.8 -0.6,-0.8 -0.2,-0.2 -1,-0.2 -0.8,0.1 -0.7,0.6 -0.2,0.2 -0.3,1 0.2,0.8 0.6,0.8 0.2,0.1 0.9,0.3 0.8,-0.2 0.8,-0.5 m -6.1,-1 -0.2,0.3 -0.6,0.3 -0.4,0.1 -0.6,-0.1 -1,-0.7 -0.4,-0.6 v -0.4 -0.6 l 0.4,-0.5 0.6,-0.4 1,-0.4 4.1,-0.8 -3.4,-2.3 m 21.6,194.2 -0.3,-0.6 -0.9,-0.3 h -0.6 l -0.9,0.3 -0.6,0.9 -0.3,1.5 v 1.5 l 0.3,1.2 0.6,0.6 0.9,0.3 h 0.3 l 0.9,-0.3 0.6,-0.6 0.3,-0.9 V 307 l -0.3,-0.9 -0.6,-0.6 -0.9,-0.3 h -0.3 l -0.9,0.3 -0.6,0.6 -0.3,0.9 m 8.6,-4.2 h -3 l -0.3,2.7 0.3,-0.3 0.9,-0.3 h 0.9 l 0.9,0.3 0.6,0.6 0.3,0.9 v 0.6 l -0.3,0.9 -0.6,0.6 -0.9,0.3 h -0.9 l -0.9,-0.3 -0.3,-0.3 -0.3,-0.6 m -77.2,17.8 0.4,7 m -4.1,-5 3.7,-2 m 4.5,-2.5 0.4,6.9 m -4.1,-4.9 3.7,-2 m 201.8,-187.6 1.9,2.3 2.3,-1.4 -0.5,-0.1 -0.8,-0.5 -0.5,-0.7 -0.4,-0.9 0.1,-0.8 0.5,-0.8 0.5,-0.4 0.9,-0.3 0.8,0.1 0.8,0.5 0.6,0.7 0.3,0.9 v 0.4 l -0.3,0.6 m -6.5,-2.3 -0.2,0.2 -0.7,0.1 h -0.4 l -0.6,-0.3 -0.7,-0.9 -0.2,-0.7 0.1,-0.4 0.2,-0.6 0.5,-0.4 0.7,-0.1 1,-0.1 4.2,0.4 -2.6,-3.3 m -47.8,-52.1 1.7,2.5 2.4,-1.3 -0.4,-0.1 -0.8,-0.6 -0.5,-0.7 -0.3,-0.9 0.1,-0.9 0.6,-0.7 0.5,-0.4 0.9,-0.2 0.8,0.1 0.8,0.6 0.5,0.7 0.3,0.9 -0.1,0.4 -0.3,0.6 m -7.6,-1.9 -1.9,-2.6 h 3 l -0.5,-0.7 -0.1,-0.7 v -0.4 l 0.6,-0.8 0.5,-0.3 0.9,-0.3 0.8,0.2 0.8,0.5 0.5,0.7 0.3,1 -0.1,0.4 -0.3,0.6 m -79.8,20.7 0.4,-0.5 v -0.9 l -0.3,-0.6 -0.6,-0.7 -1.1,-0.2 -1.5,0.3 -1.4,0.6 -0.9,0.8 -0.3,0.8 v 0.9 l 0.2,0.3 0.6,0.7 0.8,0.3 0.9,-0.1 0.3,-0.1 0.7,-0.6 0.3,-0.8 -0.1,-1 -0.1,-0.2 -0.6,-0.7 -0.8,-0.3 h -1 m 4.7,4.1 0.3,-0.2 0.7,0.1 0.4,0.1 0.5,0.4 0.5,1.1 -0.1,0.7 -0.1,0.4 -0.4,0.5 -0.6,0.3 -0.7,-0.1 -1,-0.2 -4,-1.5 1.7,3.8 m 25.5,-41.9 0.4,0.6 0.9,0.1 0.6,-0.1 0.8,-0.4 0.5,-1 v -1.5 l -0.2,-1.5 -0.5,-1.1 -0.7,-0.5 -0.9,-0.2 -0.3,0.1 -0.9,0.4 -0.5,0.7 -0.1,0.9 v 0.3 l 0.5,0.9 0.7,0.5 0.9,0.1 h 0.3 l 0.9,-0.5 0.4,-0.7 0.2,-0.9 m -4.5,3.6 -0.5,0.3 -0.7,1.1 -1.1,-6.2 m -104.7,151.2 -0.6,-0.3 -1.3,-0.2 5.2,-3.6 m -4.8,2.1 -0.6,-0.4 -1.3,-0.2 5.2,-3.6 m -5.1,1.5 -0.2,0.2 -0.7,0.1 -0.4,-0.1 -0.6,-0.3 -0.7,-1 -0.1,-0.6 0.1,-0.4 0.3,-0.6 0.5,-0.4 0.6,-0.1 h 1.1 l 4.2,0.7 -2.4,-3.4 m -102.5,57.5 0.2,0.7 0.8,1 -6.2,-0.6 m 4.8,2.1 h 0.3 l 0.6,0.4 0.2,0.3 0.3,0.6 -0.1,1.2 -0.4,0.6 -0.3,0.3 -0.6,0.2 -0.6,-0.1 -0.6,-0.3 -0.9,-0.7 -2.6,-3.3 -0.5,4.2 m 41.1,-159.9 v 0.7 l 0.5,1.2 -5.8,-2.6 m 4.7,5.4 0.1,-1 -0.5,-0.9 -1.3,-0.9 -0.8,-0.4 -1.5,-0.3 -1.1,0.2 -0.6,0.7 -0.2,0.5 -0.1,1 0.5,0.9 1.3,0.9 0.8,0.3 1.5,0.4 1,-0.2 0.7,-0.7 0.2,-0.4 m 70.6,-57.5 -0.6,0.3 -0.8,1 -0.6,-6.3 m -0.5,5.2 -0.6,0.4 -0.8,1 -0.6,-6.3 m -0.6,5.2 -0.6,0.3 -0.8,1 -0.6,-6.3 m 9.5,59.4 V 98 l -0.4,-1.2 5.6,2.9 m -4.1,-3.3 0.1,-0.6 -0.4,-1.2 5.6,2.8 m -5,-4.5 1.5,-2.9 1.3,2.7 0.4,-0.8 0.5,-0.4 0.4,-0.2 1,0.2 0.5,0.3 0.7,0.6 0.2,0.8 -0.1,1 -0.4,0.8 -0.7,0.6 -0.4,0.2 h -0.7 m 142.9,228 -2.6,-1.4 -1.6,2.1 0.4,-0.1 1,0.2 0.7,0.5 0.7,0.7 0.2,0.8 -0.2,0.9 -0.3,0.5 -0.7,0.7 -0.8,0.2 -1,-0.2 -0.7,-0.4 -0.7,-0.7 -0.1,-0.5 0.1,-0.6 m 9.5,2 -0.7,0.6 -0.8,0.2 -1,-0.2 -0.2,-0.1 -0.7,-0.7 -0.2,-0.8 0.2,-1 0.2,-0.2 0.7,-0.7 0.8,-0.2 0.9,0.2 0.3,0.2 0.6,0.7 0.2,0.8 -0.3,1.2 -0.8,1.3 -1,1.1 -0.9,0.5 -1,-0.2 -0.5,-0.3 -0.6,-0.7 v -0.6 m 89.1,-61.4 3.1,6.2 m -5.7,-2.9 2.6,-3.3 m 2.9,-3.8 -1.8,2.4 1.9,1.9 v -0.4 l 0.3,-0.9 0.5,-0.7 0.8,-0.6 0.9,-0.1 0.9,0.3 0.4,0.4 0.6,0.8 0.1,0.8 -0.3,0.9 -0.6,0.7 -0.8,0.6 h -0.4 l -0.7,-0.1 m 59.5,-117.3 -0.6,0.3 -0.4,0.9 v 0.6 l 0.3,0.9 0.8,0.6 1.5,0.4 1.5,0.1 1.2,-0.3 0.6,-0.5 0.4,-0.9 v -0.3 l -0.2,-0.9 -0.6,-0.6 -0.9,-0.4 h -0.3 l -0.9,0.2 -0.6,0.6 -0.4,0.9 v 0.3 l 0.3,0.9 0.5,0.6 0.9,0.4 m -3.8,-7.1 0.2,0.9 0.9,0.7 1.5,0.4 h 0.9 l 1.5,-0.2 0.9,-0.6 0.4,-0.8 v -0.6 l -0.2,-1 -0.9,-0.6 -1.5,-0.4 h -0.9 l -1.5,0.2 -0.9,0.5 -0.4,0.9 v 0.5 m -19.7,-6.3 2.5,-1.8 -1.4,-2.3 v 0.4 l -0.6,0.7 -0.7,0.6 -0.9,0.2 -0.9,-0.1 -0.7,-0.5 -0.4,-0.5 -0.2,-0.9 0.1,-0.9 0.5,-0.7 0.8,-0.6 0.9,-0.3 0.4,0.1 0.6,0.3 m -2.1,6.1 -0.4,0.6 -0.2,1.2 -3.6,-5.1 m -376.8,251.2 -5,-1.4 1.5,4.2 m 3.5,-2.8 -6,2.1 m 117.7,-44.1 1,-6.9 m 3,5.6 -4,1.3 m -2,-1 0.1,0.3 -0.1,0.7 -0.2,0.3 -0.5,0.5 -1.2,0.4 -0.6,-0.2 -0.4,-0.2 -0.5,-0.4 -0.2,-0.6 0.2,-0.7 0.3,-1 2,-3.8 -4.1,1.3 m 43.3,25.2 6.7,1.8 m -5.9,2.3 -0.8,-4.1 m -0.6,-2.9 0.5,0.8 1,0.4 h 1.5 l 0.9,-0.1 1.4,-0.6 0.8,-0.8 0.1,-0.9 -0.1,-0.6 -0.5,-0.8 -1,-0.4 h -1.5 l -0.9,0.1 -1.4,0.6 -0.8,0.7 -0.1,1 0.1,0.4 m -126.2,189.7 0.3,-0.6 0.2,-1.3 3.9,5 m -1.8,-5 -0.2,-0.2 -0.2,-0.7 0.1,-0.4 0.3,-0.6 0.9,-0.8 0.7,-0.1 0.4,0.1 0.6,0.2 0.4,0.5 0.1,0.7 0.1,1 -0.5,4.3 3.3,-2.6 m -1.6,-6.8 -0.5,0.8 0.1,1.1 0.7,1.3 0.5,0.7 1.2,1 1,0.4 0.9,-0.4 0.5,-0.3 0.5,-0.8 -0.1,-1.1 -0.7,-1.4 -0.5,-0.7 -1.2,-1 -1,-0.3 -0.9,0.3 -0.4,0.3 m -22,-37.6 -0.2,-0.9 -0.6,-0.4 h -0.6 l -0.6,0.2 -0.4,0.6 -0.4,1.1 -0.4,0.9 -0.6,0.5 -0.7,0.2 -0.9,-0.1 -0.5,-0.3 -0.3,-0.3 -0.2,-1 0.1,-1.2 0.4,-0.8 0.4,-0.3 0.6,-0.2 0.9,0.1 0.5,0.3 0.6,0.7 0.2,0.9 0.1,1.2 0.3,0.7 0.5,0.3 0.6,0.1 0.7,-0.2 0.4,-0.9 0.1,-1.3 m 149.1,129.7 0.6,0.2 1.3,-0.1 -4.1,4.8 m 4.1,-3.2 0.7,0.2 1.2,-0.1 -4,4.8 m 8.1,-1.6 -6.3,2.8 m 3.1,-5.6 3.2,2.8 m -115.5,-81.5 -0.1,0.6 0.1,1.3 -4.8,-4.1 m 2.7,4.5 0.3,0.2 0.2,0.6 0.1,0.5 -0.2,0.6 -0.8,0.9 -0.6,0.3 h -0.4 l -0.6,-0.1 -0.5,-0.4 -0.3,-0.6 -0.3,-1.1 -0.3,-4.2 -2.7,3.2 m 2.9,6.3 0.3,-0.8 -0.3,-1.1 -0.9,-1.2 -0.7,-0.6 -1.4,-0.7 -1,-0.1 -0.8,0.5 -0.4,0.4 -0.4,0.9 0.3,1.1 1,1.2 0.7,0.5 1.3,0.8 1.1,0.1 0.8,-0.5 0.3,-0.3 m 4,88.9 -7,0.6 m 4.9,-4.2 2.1,3.6 m 69.5,44.6 0.6,-0.5 0.6,-1 1.5,6.1 m -0.2,-5.2 0.6,-0.5 0.6,-1 1.5,6.1 m 1,-7 -0.8,0.5 -0.1,0.7 0.1,0.6 0.5,0.5 0.6,0.1 h 1.3 l 0.9,0.1 0.7,0.5 0.5,0.5 0.2,0.9 -0.2,0.6 -0.2,0.4 -0.8,0.5 -1.2,0.3 -0.9,-0.1 -0.4,-0.2 -0.4,-0.6 -0.2,-0.8 0.1,-0.7 0.5,-0.7 0.8,-0.5 1.1,-0.6 0.5,-0.4 0.1,-0.7 -0.1,-0.6 -0.4,-0.5 -1,-0.1 -1.3,0.4 m 19.9,-37.1 -0.6,-0.3 -1.2,-0.3 5.2,-3.5 m -4.8,2 -0.6,-0.3 -1.3,-0.3 5.3,-3.5 m -8.4,-0.7 6.9,-1 m -4.5,4.5 -2.4,-3.5 m 115.9,-77.7 2.4,1.8 1.8,-2 -0.4,0.1 -0.9,-0.3 -0.7,-0.6 -0.6,-0.7 -0.1,-0.9 0.3,-0.9 0.4,-0.5 0.7,-0.5 0.9,-0.1 0.9,0.3 0.7,0.5 0.6,0.8 v 0.4 l -0.1,0.6 m -9.9,-0.8 4.9,-1.6 -3.6,-2.7 m -1.3,4.3 3.7,-5.1 m -11.6,109.2 -0.2,-0.6 -0.8,-0.5 -0.6,-0.1 -1,0.1 -0.7,0.8 -0.6,1.4 -0.3,1.5 0.1,1.2 0.4,0.7 0.9,0.5 h 0.3 l 0.9,-0.1 0.7,-0.5 0.5,-0.8 v -0.3 l -0.1,-0.9 -0.5,-0.7 -0.8,-0.5 -0.3,-0.1 -0.9,0.2 -0.7,0.4 -0.5,0.9 m 9.1,-1.6 -0.2,-0.7 -0.8,-0.4 -0.6,-0.2 -0.9,0.2 -0.8,0.7 -0.6,1.4 -0.2,1.5 v 1.3 l 0.5,0.7 0.8,0.4 0.3,0.1 1,-0.1 0.7,-0.5 0.4,-0.8 0.1,-0.3 -0.1,-1 -0.5,-0.7 -0.8,-0.4 -0.3,-0.1 -1,0.1 -0.7,0.5 -0.4,0.8 m 109.4,9.8 -0.5,2.9 2.6,0.8 -0.3,-0.3 -0.1,-1 0.2,-0.8 0.4,-0.9 0.7,-0.5 1,-0.1 0.6,0.1 0.8,0.5 0.5,0.7 0.1,0.9 -0.2,0.9 -0.4,0.8 -0.4,0.3 -0.6,0.2 m -3.3,-10.2 5.6,4.1 m -6.4,0 0.8,-4.1 m -29.9,23.5 -2.5,-1.7 -1.8,2 0.5,-0.1 0.9,0.3 0.7,0.5 0.6,0.8 0.1,0.8 -0.2,0.9 -0.4,0.5 -0.8,0.6 -0.8,0.1 -0.9,-0.2 -0.7,-0.5 -0.6,-0.8 -0.1,-0.4 0.1,-0.7 m 8.6,-0.2 -1,-0.3 -0.5,0.3 -0.4,0.5 -0.1,0.7 0.3,0.6 0.8,0.9 0.6,0.8 0.2,0.8 -0.1,0.7 -0.6,0.7 -0.5,0.3 -0.5,0.1 -0.9,-0.3 -1,-0.7 -0.5,-0.7 -0.1,-0.5 0.1,-0.6 0.5,-0.8 0.6,-0.3 0.8,-0.1 1,0.3 1.1,0.4 0.7,0.1 0.6,-0.3 0.3,-0.5 0.1,-0.7 -0.6,-0.7 -1.1,-0.8 m 11.7,-168.2 0.7,-2.9 -2.5,-0.9 0.2,0.4 0.1,0.9 -0.2,0.9 -0.5,0.8 -0.8,0.4 -0.9,0.1 -0.6,-0.1 -0.8,-0.5 -0.4,-0.7 -0.1,-1 0.2,-0.9 0.5,-0.8 0.4,-0.2 0.6,-0.1 m 3.1,9.4 -3.4,-3.9 -1.1,4.4 m 4.5,-0.5 -6.2,-1.5 m 32.9,-24 1.6,2.6 2.4,-1.1 -0.4,-0.1 -0.7,-0.6 -0.4,-0.8 -0.2,-0.9 0.2,-0.8 0.6,-0.8 0.5,-0.3 0.9,-0.2 0.9,0.2 0.7,0.7 0.4,0.7 0.2,1 -0.1,0.4 -0.3,0.5 m -8.1,-3.5 0.8,0.6 1,0.1 1.5,-0.5 0.8,-0.5 1.1,-1 0.5,-1 -0.2,-0.9 -0.3,-0.5 -0.8,-0.7 h -1 l -1.5,0.5 -0.8,0.5 -1.1,1 -0.5,0.9 0.2,1 0.3,0.4 m -117.2,28.4 -2.4,-1.7 -1.8,2 h 0.4 l 0.9,0.2 0.8,0.5 0.5,0.8 0.2,0.8 -0.3,0.9 -0.3,0.5 -0.8,0.6 -0.8,0.2 -0.9,-0.3 -0.7,-0.5 -0.6,-0.8 -0.1,-0.4 0.1,-0.6 m 8.8,-0.2 -0.9,-0.3 -1,0.4 -1.1,1.1 -0.5,0.7 -0.6,1.4 v 1.1 l 0.5,0.8 0.5,0.3 0.9,0.3 1,-0.4 1.1,-1.1 0.5,-0.8 0.6,-1.4 v -1 l -0.5,-0.8 -0.4,-0.3 m 18.2,-3.9 4.7,2.2 -0.8,-4.4 m -3.9,2.2 6.2,-1.1 m -5.2,-5.7 1,0.1 0.6,0.5 0.5,0.8 0.1,0.3 -0.2,1 -0.5,0.7 -0.8,0.4 -0.3,0.1 -0.9,-0.2 -0.7,-0.5 -0.5,-0.8 v -0.3 l 0.1,-0.9 0.5,-0.7 1.1,-0.5 1.5,-0.3 h 1.5 l 1,0.5 0.5,0.8 0.1,0.6 -0.2,0.9 -0.5,0.4 m -2.5,-109 -0.6,0.2 -0.4,0.9 -0.1,0.6 0.2,0.9 0.8,0.7 1.4,0.5 1.5,0.2 1.3,-0.1 0.6,-0.5 0.5,-0.9 v -0.3 l -0.2,-0.9 -0.5,-0.7 -0.8,-0.4 -0.3,-0.1 -1,0.2 -0.6,0.5 -0.5,0.9 v 0.3 l 0.2,0.9 0.5,0.7 0.8,0.4 m -0.8,-9.1 0.8,0.4 0.5,0.6 0.2,1 v 0.3 l -0.5,0.8 -0.6,0.5 -1,0.2 h -0.3 l -0.8,-0.4 -0.5,-0.7 -0.2,-0.9 v -0.3 l 0.4,-0.9 0.7,-0.5 1.3,-0.1 1.4,0.2 1.5,0.5 0.8,0.7 0.2,0.9 -0.1,0.6 -0.4,0.8 -0.7,0.3 m -83.8,-64.9 -4.6,-5.2 m 6.2,1.4 -1.6,3.8 m -1.2,2.7 0.1,-0.9 -0.6,-0.9 -1.3,-0.9 -0.8,-0.3 -1.5,-0.4 -1.1,0.2 -0.6,0.7 -0.2,0.6 -0.1,0.9 0.6,1 1.3,0.8 0.8,0.4 1.5,0.3 1,-0.2 0.7,-0.7 0.1,-0.4 m 50.8,-15.4 5.1,-4.7 m -1.2,6.3 -3.9,-1.6 m -0.5,-1.7 -0.6,0.1 -1.2,0.5 2.3,-5.9 m 197.2,226 3.6,-3.6 -4.4,-0.8 m 0.8,4.4 1,-6.2 m -7.1,3 0.4,-0.9 0.7,-0.4 0.9,-0.2 0.3,0.1 0.9,0.4 0.5,0.7 0.1,0.9 v 0.3 l -0.5,0.9 -0.7,0.5 -0.9,0.1 h -0.3 l -0.8,-0.5 -0.5,-0.7 -0.1,-1.2 0.2,-1.5 0.6,-1.4 0.7,-0.8 0.9,-0.2 0.6,0.1 0.9,0.5 0.2,0.6 m 21.1,49.1 -0.6,0.1 -0.6,0.8 -0.1,0.6 v 0.9 l 0.7,0.8 1.4,0.7 1.4,0.4 1.3,0.1 0.7,-0.4 0.5,-0.8 0.1,-0.3 v -1 l -0.5,-0.7 -0.7,-0.5 -0.3,-0.1 h -1 l -0.7,0.4 -0.5,0.8 -0.1,0.3 v 1 l 0.4,0.7 0.8,0.5 m -1.9,-9 3.3,4 1.2,-4.3 m -4.5,0.3 6.1,1.7 m -30.9,76.8 4.8,5 m -6.3,-1.1 1.5,-3.9 m 0.6,-1.6 1.2,-3.1 1.6,2.5 0.3,-0.8 0.5,-0.5 0.4,-0.2 0.9,0.1 0.6,0.2 0.7,0.6 0.4,0.8 -0.1,0.9 -0.3,0.8 -0.6,0.8 -0.4,0.2 h -0.6 m -31.4,-14.3 -1.8,-2.4 -2.4,1.4 h 0.5 l 0.7,0.6 0.6,0.7 0.3,0.9 -0.2,0.8 -0.5,0.8 -0.5,0.4 -0.9,0.3 -0.9,-0.2 -0.7,-0.5 -0.6,-0.7 -0.2,-0.9 v -0.5 l 0.3,-0.6 m 9.7,4.6 -6.9,1.3 m 4.4,-4.7 2.5,3.4"
       id="nums_004"
       stroke="#000000"
       stroke-width="1" />
    <path
       d="m 1841.8,533.6 111.6,81.8 32.2,-134.6 48.7,82.3 81,13.6 -25.5,90.8 -22.5,59.8 -57.5,-78.4 -17.7,95.7 -63.6,-44.6 -92.7,-18.1 -76.3,-64.5 56.1,82.7 -100.4,24.2 -67.9,-118.7 67.5,-80.5 -82.5,65.1 16.9,-157.1 -28.4,-79.2 19.4,-201.5 50.3,-110.3 96.5,-9.5 -66,129.2 46.6,65.7 1,-141 69.6,47.6 -33.8,-77.2 86.8,-14.4 37.3,52.3 55.4,68.6 72.2,-51.6 -4.4,80.5 -124.4,160.1 -71.8,-41.2 -67.5,-0.2 -77.2,42.9 80.7,-24.7 14.4,76.2 30.6,-71.3 88.6,34.7 -18.6,137.8 14.4,80.8 z"
       id="coupes_004"
       stroke="#ff0000"
       stroke-width="1.27"
       sodipodi:nodetypes="ccccccccccccccccccccccccccccccccccccccccccc" />
    <path
       d="m 1838.2,134.1 -70.6,93.4 M 1838.2,134.1 1788,311 m 140.5,-216.2 -73,216.4 m -17.3,-177.1 90.3,-39.3 m 55.4,68.6 -128.4,147.8 m -17.3,-177.1 53,-91.6 M 1620.8,353.9 1721,161.8 m -80.8,-9.4 80.8,9.4 M 1690.5,42.1 1721,161.8 m 262.9,1.6 -56.6,189 m 56.6,-189 67.8,28.9 m -340.9,161.6 -61.6,79.2 m 156.7,-27.7 -156.7,27.7 m 61.6,-79.2 95.1,51.5 m -91.1,119.7 -65.6,-92 m 156.7,-27.7 -91.1,119.7 m 127,8.5 -127,-8.5 m 91.1,-119.7 35.9,128.2 m -82.3,83.8 -44.7,-92.3 m 127,8.5 -82.3,83.8 m 0,0 -112.2,-11.8 m 112.2,11.8 -44.3,106.9 m 238.2,-108.9 -117.6,66.5 m 117.6,-66.5 -24.9,84.6 m 81.3,-51.1 -81.3,51.1 m 24.9,-84.6 56.4,33.5 m 24.5,-85.8 -24.5,85.8 m -56.4,-33.5 80.9,-52.3 m -228.4,-157.7 100.6,101.2 m -100.6,-101.2 119.2,-36.6 m 190.2,207.9 -105.5,72.2"
       id="plisM_004"
       stroke="#a52a2a"
       stroke-dasharray="4" />
    <path
       d="m 1788,311 -20.4,-83.5 m 70.6,-93.4 17.3,177.1 m -144.7,42.7 56.8,-126.4 m -56.8,126.4 10.2,-192.1 m -10.2,192.1 h -90 m 221,179.7 -6,148.3 m 70.7,-175.3 -64.7,27 m 248,133.9 -80,-18.6"
       id="plisV_004"
       stroke="#008000"
       stroke-dasharray="4, 1, 1, 1"
       stroke-width="1.27" />
    <path
       d="m 1775.8,267.2 4,4 m 0,-4 -4,4 m 69.1,-50.6 4,4 m 0,-4 -4,4 m -107.7,64.1 4,4 m 0,-4 -4,4 m -23.3,-36.8 4,4 m 0,-4 -4,4 m -50.1,92 4,4 m 0,-4 -4,4 m 173,249.9 4,4 m 0,-4 -4,4 m 35.3,-91.7 4,4 m 0,-4 -4,4 m 175.7,134.1 4,4 m 0,-4 -4,4"
       id="marqueV_004"
       stroke="#008000" />
    <path
       d="m 1857.6,356.9 -7.5,10.5 h 11.2 m -3.7,-10.5 v 15.8"
       id="titre_4"
       stroke="#4b0082" />
  </g>
  <g
     id="page_005">
    <path
       d="m 2300.9,638.6 v 0.9 l 0.4,0.5 0.5,0.2 h 0.7 l 0.5,-0.4 0.8,-1 0.6,-0.7 0.8,-0.4 h 0.6 l 0.9,0.4 0.4,0.5 0.2,0.4 -0.1,0.9 -0.5,1.1 -0.6,0.7 -0.4,0.2 h -0.7 l -0.8,-0.3 -0.4,-0.5 -0.3,-0.8 v -1 l 0.2,-1.2 v -0.7 l -0.5,-0.5 -0.5,-0.2 h -0.7 l -0.6,0.8 -0.5,1.2 m 1.7,-4.2 1.3,-3.1 1.5,2.6 0.4,-0.8 0.5,-0.4 0.4,-0.2 0.9,0.1 0.6,0.2 0.7,0.6 0.3,0.8 v 1 l -0.4,0.8 -0.6,0.7 -0.4,0.2 h -0.7 m -36.9,-6.7 0.2,-0.2 0.7,-0.2 h 0.4 l 0.6,0.3 0.8,0.9 0.2,0.7 -0.1,0.4 -0.2,0.6 -0.5,0.4 -0.6,0.2 -1.1,0.1 -4.2,-0.4 2.7,3.2 m 7.2,0.2 0.2,-0.6 -0.3,-0.9 -0.4,-0.5 -0.8,-0.5 -1.1,0.2 -1.3,0.7 -1.2,1 -0.7,1 -0.1,0.8 0.4,0.9 0.2,0.2 0.8,0.5 0.8,0.1 0.9,-0.4 0.2,-0.2 0.5,-0.8 0.1,-0.8 -0.4,-0.9 -0.2,-0.2 -0.8,-0.5 -0.8,-0.1 -0.9,0.4 m 124.9,-158.4 0.7,0.7 0.3,0.8 -0.2,0.9 -0.1,0.3 -0.7,0.7 -0.8,0.2 -0.9,-0.1 -0.3,-0.1 -0.6,-0.7 -0.3,-0.8 0.1,-0.9 0.1,-0.3 0.7,-0.7 0.8,-0.3 1.2,0.3 1.4,0.7 1.2,0.9 0.5,0.9 -0.1,1 -0.3,0.5 -0.6,0.7 h -0.7 m -0.4,-9.5 h -0.6 l -0.7,0.7 -0.3,0.5 -0.1,1 0.6,0.9 1.2,0.9 1.3,0.7 1.2,0.3 0.8,-0.3 0.7,-0.7 0.1,-0.3 0.2,-0.9 -0.3,-0.8 -0.7,-0.7 -0.3,-0.1 -0.9,-0.1 -0.8,0.3 -0.7,0.6 -0.1,0.3 -0.1,0.9 0.2,0.8 0.7,0.7 m 8.2,56.2 0.6,-0.8 0.7,-0.4 1,0.1 0.3,0.1 0.7,0.6 0.4,0.7 v 1 l -0.2,0.3 -0.5,0.7 -0.8,0.4 -1,-0.1 -0.2,-0.1 -0.8,-0.5 -0.3,-0.8 0.1,-1.2 0.5,-1.5 0.8,-1.3 0.9,-0.6 h 0.9 l 0.6,0.2 0.7,0.6 0.1,0.7 m -6.9,3.2 -3.1,-1.1 2.5,-1.6 -0.8,-0.3 -0.5,-0.5 -0.1,-0.4 v -1 l 0.2,-0.5 0.6,-0.8 0.8,-0.3 h 0.9 l 0.8,0.3 0.8,0.6 0.2,0.4 v 0.6 m -73.5,-74.4 0.2,-0.9 -0.4,-0.6 -0.5,-0.3 h -0.7 l -0.5,0.4 -0.9,0.9 -0.7,0.6 -0.8,0.3 -0.7,-0.1 -0.7,-0.4 -0.4,-0.5 -0.1,-0.5 0.1,-0.9 0.6,-1 0.7,-0.7 0.4,-0.1 h 0.7 l 0.8,0.5 0.4,0.5 0.2,0.8 -0.2,1 -0.3,1.2 v 0.6 l 0.3,0.6 0.6,0.3 h 0.6 l 0.7,-0.6 0.7,-1.2 m -3.9,7 -4.1,-5.6 m 6.1,2 -2,3.6 m 42.7,-66.2 -0.2,0.7 0.1,1.2 -4.8,-4 m 3.1,6.4 0.3,-0.9 -0.3,-1 -0.9,-1.2 -0.7,-0.6 -1.3,-0.7 -1.1,-0.1 -0.8,0.5 -0.4,0.4 -0.4,0.9 0.3,1.1 1,1.1 0.7,0.6 1.3,0.8 1.1,0.1 0.8,-0.5 0.3,-0.4 m -3.3,4 0.3,-0.9 -0.3,-1 -1,-1.2 -0.6,-0.6 -1.4,-0.7 -1.1,-0.1 -0.8,0.5 -0.4,0.4 -0.3,0.9 0.3,1 1,1.2 0.6,0.6 1.4,0.8 1.1,0.1 0.8,-0.5 0.3,-0.4 m 63.1,7.1 v -0.7 l -0.3,-1.2 5.4,3.2 m -4.1,-5.9 -0.2,1 0.5,0.9 1.1,1.1 0.8,0.4 1.4,0.5 1.1,-0.1 0.7,-0.6 0.3,-0.5 0.2,-0.9 -0.4,-1 -1.2,-1 -0.8,-0.5 -1.4,-0.5 -1.1,0.1 -0.7,0.6 -0.2,0.4 m 4.3,-5.6 h -0.7 l -0.7,0.6 -0.3,0.5 -0.2,1 0.5,0.9 1.1,1 1.3,0.8 1.2,0.3 0.8,-0.2 0.7,-0.6 0.2,-0.3 0.2,-0.9 -0.2,-0.8 -0.7,-0.7 -0.2,-0.2 -0.9,-0.2 -0.9,0.3 -0.7,0.6 -0.1,0.2 -0.2,1 0.2,0.8 0.6,0.7 m -7.9,-73.3 -0.5,-0.5 -1.2,-0.4 5.8,-2.6 m -7.2,0 0.6,0.7 1.1,0.2 1.5,-0.4 0.8,-0.4 1.3,-0.8 0.5,-1 -0.1,-0.9 -0.2,-0.5 -0.6,-0.7 -1.1,-0.2 -1.5,0.3 -0.8,0.4 -1.3,0.9 -0.5,0.9 0.1,0.9 0.1,0.5 m -1.6,-3.7 -1.4,-3 3,0.7 -0.4,-0.9 v -0.6 l 0.2,-0.4 0.7,-0.7 0.5,-0.2 1,-0.1 0.8,0.3 0.6,0.7 0.4,0.8 0.1,1 -0.2,0.4 -0.4,0.5 m -76.8,29.6 h 0.7 l 1.2,-0.5 -2.6,5.8 m 5.4,-4.7 -1,-0.1 -0.9,0.5 -0.9,1.3 -0.3,0.8 -0.4,1.5 0.2,1.1 0.7,0.6 0.5,0.3 1,0.1 0.9,-0.6 0.9,-1.3 0.3,-0.8 0.4,-1.5 -0.2,-1 -0.7,-0.7 -0.4,-0.2 m 4.8,2.2 -1,-0.1 -0.9,0.6 -0.9,1.2 -0.4,0.8 -0.3,1.5 0.1,1.1 0.7,0.6 0.6,0.3 0.9,0.1 1,-0.6 0.8,-1.2 0.4,-0.9 0.4,-1.5 -0.2,-1 -0.7,-0.7 -0.4,-0.2 m -53.8,-244.3 1,-0.1 0.8,0.3 0.6,0.8 0.1,0.2 0.1,1 -0.4,0.8 -0.7,0.6 -0.3,0.1 -0.9,0.1 -0.8,-0.4 -0.6,-0.7 -0.1,-0.3 -0.1,-0.9 0.3,-0.8 1,-0.7 1.4,-0.6 1.5,-0.3 1.1,0.2 0.6,0.8 0.2,0.5 0.1,1 -0.5,0.5 m -5.5,-3.5 -0.3,0.2 -0.7,-0.1 -0.4,-0.2 -0.5,-0.4 -0.4,-1.1 V 109 l 0.2,-0.4 0.4,-0.5 0.6,-0.2 0.7,0.1 1,0.2 3.9,1.6 -1.6,-3.9 m 30.2,-3.3 -0.9,-0.2 -0.7,-0.6 -0.4,-0.8 v -0.3 l 0.3,-0.9 0.5,-0.7 0.9,-0.4 h 0.3 l 0.9,0.3 0.6,0.5 0.4,0.9 v 0.3 l -0.2,0.9 -0.5,0.6 -1.2,0.4 -1.5,0.1 -1.5,-0.1 -1,-0.6 -0.3,-0.8 -0.1,-0.6 0.2,-1 0.6,-0.3 m 4.3,4.9 h 0.3 l 0.6,0.3 0.3,0.3 0.4,0.5 0.1,1.2 -0.3,0.6 -0.3,0.4 -0.5,0.3 -0.6,0.1 -0.6,-0.3 -1,-0.5 -3.2,-2.8 0.3,4.2 m 19.6,-65.5 0.9,-0.3 0.3,-0.7 -0.1,-0.6 -0.3,-0.5 -0.6,-0.3 -1.2,-0.3 -0.9,-0.2 -0.6,-0.6 -0.4,-0.6 V 38 l 0.3,-0.6 0.3,-0.3 0.9,-0.4 h 1.2 l 0.9,0.3 0.3,0.2 0.3,0.6 v 0.9 l -0.2,0.6 -0.6,0.7 -0.9,0.3 -1.2,0.3 -0.6,0.4 -0.2,0.6 v 0.6 l 0.3,0.6 0.9,0.2 h 1.4 m -7.7,-0.6 0.4,0.6 0.9,0.2 h 0.6 l 0.8,-0.3 0.6,-1 0.3,-1.5 -0.1,-1.5 -0.3,-1.2 -0.7,-0.5 -0.9,-0.3 h -0.3 l -0.9,0.4 -0.5,0.6 -0.3,0.9 v 0.3 l 0.3,0.9 0.7,0.6 0.9,0.2 h 0.3 l 0.9,-0.3 0.5,-0.7 0.3,-0.9 m -40.1,270.3 -0.7,-0.5 h -0.7 l -0.5,0.3 -0.3,0.6 v 0.7 l 0.4,1.2 0.3,0.9 -0.2,0.8 -0.3,0.6 -0.8,0.5 -0.7,0.1 -0.4,-0.1 -0.7,-0.6 -0.7,-1 -0.2,-1 0.1,-0.4 0.3,-0.6 0.8,-0.4 0.6,-0.1 0.9,0.2 0.7,0.6 0.9,0.8 0.6,0.3 h 0.7 l 0.5,-0.4 0.3,-0.5 -0.2,-0.9 -0.8,-1.2 m 4.4,6.8 -6.9,0.9 m 4.6,-4.4 2.3,3.5 m 83.2,-215.8 -1.5,-2.9 2.9,0.5 -0.4,-0.8 v -0.7 l 0.1,-0.4 0.7,-0.6 0.5,-0.3 1,-0.2 0.8,0.3 0.7,0.7 0.4,0.8 0.1,0.9 -0.1,0.4 -0.4,0.6 m -5.9,-3.6 -0.3,0.1 h -0.6 l -0.4,-0.1 -0.6,-0.4 -0.5,-1.1 v -0.7 l 0.1,-0.4 0.4,-0.5 0.5,-0.3 h 0.7 l 1.1,0.1 4,1.4 -1.9,-3.8 m 45.5,218.6 0.6,0.3 1.2,0.1 -4.9,3.9 m 6.9,-1.7 -0.8,-0.5 -1,0.1 -1.4,0.7 -0.7,0.5 -1,1.2 -0.4,1 0.4,0.9 0.3,0.5 0.8,0.5 1.1,-0.1 1.4,-0.6 0.7,-0.6 1,-1.2 0.3,-1 -0.3,-0.9 -0.3,-0.3 m 2.5,3.1 2,2.6 -3,0.1 0.6,0.7 0.1,0.6 -0.1,0.4 -0.5,0.8 -0.5,0.4 -0.9,0.3 -0.8,-0.1 -0.8,-0.5 -0.5,-0.7 -0.4,-0.9 0.1,-0.4 0.3,-0.6 m 12.4,-149.5 4,-3.2 -4.3,-1.2 m 0.3,4.4 1.7,-6 m -4.3,3.6 -0.1,0.3 -0.5,0.5 -0.4,0.2 -0.6,0.1 -1.2,-0.3 -0.5,-0.5 -0.2,-0.3 -0.1,-0.7 0.2,-0.6 0.4,-0.5 0.9,-0.7 3.7,-2 -4,-1.2 m 41.9,33.1 5.1,-0.4 -2.8,-3.5 m -2.3,3.9 4.9,-4 m -7.7,0.5 0.8,0.5 1.1,-0.1 1.3,-0.7 0.7,-0.6 1,-1.2 0.3,-1 -0.3,-0.9 -0.4,-0.5 -0.8,-0.5 -1.1,0.1 -1.3,0.8 -0.7,0.5 -1,1.2 -0.3,1 0.3,0.9 0.3,0.4 m 14.6,187.7 0.7,0.1 1.2,-0.2 -3.7,5.1 m 6.2,-3.6 -0.9,-0.3 -1,0.4 -1.1,1.1 -0.5,0.7 -0.7,1.4 v 1.1 l 0.5,0.7 0.5,0.4 0.9,0.3 1,-0.4 1.2,-1 0.5,-0.8 0.6,-1.4 0.1,-1.1 -0.6,-0.7 -0.4,-0.3 m 5.2,4.8 0.1,-0.6 -0.6,-0.8 -0.4,-0.3 -0.9,-0.3 -1.1,0.4 -1.1,1 -0.9,1.2 -0.4,1.2 0.1,0.8 0.6,0.8 0.2,0.1 0.9,0.3 0.9,-0.1 0.7,-0.6 0.2,-0.2 0.3,-0.9 -0.1,-0.9 -0.6,-0.7 -0.2,-0.2 -0.9,-0.3 -0.9,0.2 -0.8,0.5 m 31.1,-19.5 0.8,0.5 0.4,0.8 0.1,0.9 -0.1,0.3 -0.6,0.8 -0.7,0.4 h -1 -0.2 l -0.8,-0.6 -0.4,-0.7 -0.1,-1 0.1,-0.3 0.6,-0.7 0.7,-0.4 h 1.2 l 1.5,0.4 1.3,0.7 0.7,0.9 0.1,0.9 -0.2,0.6 -0.6,0.8 -0.6,0.1 m -2,-9.3 -0.6,0.1 -0.6,0.8 -0.1,0.6 v 0.9 l 0.7,0.9 1.3,0.7 1.5,0.4 1.2,0.1 0.8,-0.5 0.5,-0.7 0.1,-0.3 v -1 l -0.4,-0.7 -0.8,-0.6 h -0.3 -1 l -0.7,0.4 -0.5,0.8 -0.1,0.3 v 0.9 l 0.4,0.8 0.8,0.5 m -7.7,-40.5 0.5,-0.8 0.8,-0.5 h 0.9 l 0.3,0.1 0.8,0.5 0.4,0.7 0.1,1 -0.1,0.3 -0.5,0.8 -0.8,0.4 h -0.9 -0.3 l -0.8,-0.6 -0.4,-0.7 v -1.2 l 0.4,-1.5 0.7,-1.4 0.8,-0.7 h 0.9 l 0.6,0.1 0.8,0.6 0.1,0.6 m -9.9,2.9 4.6,-5.3 m -0.5,6.4 -4.1,-1.1 m 5.3,-21.3 -0.2,1 -0.5,0.6 -0.9,0.4 h -0.3 l -0.9,-0.2 -0.7,-0.6 -0.3,-0.8 -0.1,-0.3 0.3,-0.9 0.5,-0.7 0.9,-0.4 h 0.3 l 0.9,0.2 0.6,0.6 0.4,1.1 0.2,1.5 -0.2,1.6 -0.5,0.9 -0.9,0.4 h -0.6 l -0.9,-0.2 -0.4,-0.6 m 8.4,-6.1 -2.5,6.6 m -1.7,-6.2 4.2,-0.4 m 39.9,-10.9 0.1,0.9 -0.2,0.8 -0.7,0.7 -0.2,0.2 -1,0.1 -0.8,-0.2 -0.7,-0.7 -0.1,-0.2 -0.2,-1 0.3,-0.8 0.6,-0.7 0.3,-0.1 0.9,-0.2 0.8,0.3 0.9,0.9 0.7,1.3 0.4,1.5 -0.1,1 -0.6,0.7 -0.5,0.3 -1,0.2 -0.5,-0.4 m 2.1,-7.3 2.9,-1.6 -0.5,3 0.8,-0.4 0.7,-0.1 0.4,0.2 0.7,0.6 0.3,0.5 0.2,1 -0.3,0.8 -0.6,0.7 -0.8,0.4 -1,0.2 -0.4,-0.1 -0.5,-0.4 m -23.9,-39.2 -2.6,-2.1 3,-0.7 -0.7,-0.6 -0.3,-0.6 -0.1,-0.4 0.4,-0.9 0.4,-0.4 0.8,-0.5 0.8,-0.1 0.9,0.3 0.7,0.6 0.5,0.8 v 0.4 l -0.1,0.7 m -9.1,-3.6 0.8,-0.5 0.9,-0.1 0.9,0.4 0.2,0.1 0.5,0.9 0.1,0.8 -0.3,0.9 -0.2,0.2 -0.8,0.5 -0.9,0.1 -0.9,-0.3 -0.2,-0.2 -0.5,-0.8 -0.1,-0.9 0.5,-1.1 1,-1.2 1.2,-0.9 1,-0.3 0.9,0.3 0.5,0.4 0.5,0.8 -0.2,0.6 m -305.7,4.9 -0.9,-0.3 -0.6,0.3 -0.4,0.4 -0.2,0.7 0.3,0.6 0.7,1 0.5,0.8 0.1,0.9 -0.1,0.6 -0.6,0.7 -0.6,0.3 h -0.4 l -0.9,-0.3 -1,-0.8 -0.5,-0.8 v -0.4 l 0.2,-0.7 0.5,-0.7 0.6,-0.2 0.9,-0.1 0.9,0.3 1.1,0.6 0.6,0.1 0.7,-0.3 0.3,-0.4 0.2,-0.7 -0.5,-0.8 -1.1,-0.8 m 5.6,4.5 -5,1.3 3.5,2.8 m 1.5,-4.1 -4,4.8 m 10.6,230.3 1,-0.1 0.4,-0.4 0.2,-0.6 -0.1,-0.7 -0.5,-0.4 -1,-0.7 -0.8,-0.5 -0.4,-0.8 -0.1,-0.7 0.3,-0.8 0.4,-0.5 0.4,-0.2 h 1 l 1.1,0.4 0.8,0.5 0.2,0.4 0.1,0.6 -0.3,0.9 -0.5,0.5 -0.7,0.4 h -1 l -1.2,-0.1 -0.7,0.1 -0.4,0.5 -0.2,0.6 0.1,0.6 0.8,0.6 1.2,0.4 m -6.8,-2.1 4.2,-3.1 -4.3,-1.4 m 0.1,4.5 1.9,-6 m -21.8,54.5 0.4,0.5 1,0.9 -6.3,0.4 m 298.9,13.3 0.9,0.4 0.6,0.6 0.2,0.9 v 0.3 l -0.4,0.9 -0.6,0.5 -0.9,0.3 h -0.3 l -0.9,-0.4 -0.6,-0.6 -0.2,-1 v -0.3 l 0.4,-0.8 0.6,-0.6 1.2,-0.2 1.5,0.1 1.5,0.4 0.9,0.7 0.2,0.9 v 0.6 l -0.4,0.9 -0.6,0.2 m -4.9,-8.2 4,3.2 0.3,-4.4 m -4.3,1.2 6.3,0.4 m -44.6,-22 0.1,0.3 -0.1,0.7 -0.2,0.4 -0.4,0.4 -1.2,0.4 -0.7,-0.1 -0.3,-0.2 -0.5,-0.5 -0.2,-0.6 0.1,-0.6 0.3,-1.1 2,-3.7 -4,1.2 m -0.2,5.1 0.1,0.3 -0.1,0.7 -0.2,0.3 -0.5,0.5 -1.1,0.4 -0.7,-0.2 -0.3,-0.1 -0.5,-0.5 -0.2,-0.6 0.1,-0.7 0.3,-1 2,-3.8 -4,1.3 m -75.4,146.7 v -0.3 l 0.3,-0.6 0.3,-0.3 0.6,-0.3 h 1.2 l 0.6,0.3 0.3,0.3 0.3,0.6 v 0.6 l -0.3,0.6 -0.6,0.9 -3.1,3 4.2,0.1 m 5.3,-6.3 -3.1,6.3 m -1.1,-6.3 h 4.2 m -96.8,-28.8 -0.1,-1 -0.4,-0.4 -0.6,-0.2 -0.7,0.1 -0.4,0.5 -0.7,1 -0.5,0.8 -0.8,0.4 -0.7,0.1 -0.8,-0.3 -0.5,-0.4 -0.2,-0.4 v -1 l 0.3,-1.1 0.6,-0.8 0.4,-0.2 0.6,-0.1 0.9,0.3 0.5,0.5 0.4,0.7 v 1 l -0.1,1.2 0.1,0.6 0.5,0.5 0.6,0.2 0.6,-0.1 0.6,-0.8 0.4,-1.3 m -1.4,4.4 -1,3.2 -1.7,-2.5 -0.3,0.9 -0.4,0.5 -0.4,0.2 h -1 l -0.5,-0.2 -0.8,-0.6 -0.4,-0.7 v -1 l 0.2,-0.8 0.6,-0.8 0.4,-0.2 0.6,-0.1 m 307.2,27.7 -0.2,-0.6 -0.8,-1 6.3,0.8 m -6.1,-3.8 0.2,1 0.8,0.7 1.4,0.5 0.9,0.1 1.6,-0.1 0.9,-0.5 0.5,-0.8 V 664 l -0.1,-1 -0.9,-0.7 -1.4,-0.5 -0.9,-0.1 -1.5,0.1 -1,0.5 -0.4,0.8 -0.1,0.5 m 2,-3.7 h -0.3 l -0.5,-0.4 -0.3,-0.3 -0.2,-0.7 0.2,-1.2 0.4,-0.5 0.3,-0.3 0.6,-0.2 0.6,0.1 0.6,0.4 0.8,0.7 2.6,3.3 0.5,-4.1 m -53.8,25.1 -4,3.3 4.3,1.1 m -0.3,-4.4 -1.7,6.1 m 7.2,-4.6 -3.9,3.3 4.3,1.1 m -0.4,-4.4 -1.6,6.1 m 38.2,-114 -0.5,-0.5 -1.1,-0.7 6.1,-1.5 m -7,-1.3 0.5,0.8 1,0.4 1.6,-0.1 0.8,-0.2 1.4,-0.6 0.8,-0.8 v -1 l -0.1,-0.6 -0.5,-0.8 -1,-0.3 h -1.6 l -0.8,0.2 -1.4,0.7 -0.8,0.8 v 0.9 l 0.1,0.5 m -1.7,-6.8 0.7,2.9 2.7,-0.3 -0.3,-0.3 -0.6,-0.8 -0.2,-0.8 0.1,-1 0.4,-0.7 0.8,-0.5 0.6,-0.2 1,0.1 0.7,0.5 0.5,0.8 0.2,0.8 -0.1,1 -0.2,0.3 -0.5,0.5 m -40,-8.9 -0.5,-0.8 -0.1,-0.9 0.4,-0.8 0.2,-0.3 0.8,-0.5 h 0.8 l 0.9,0.3 0.2,0.2 0.5,0.8 0.1,0.9 -0.4,0.9 -0.2,0.2 -0.8,0.5 h -0.8 l -1.1,-0.5 -1.2,-1 -0.9,-1.2 -0.3,-1 0.3,-0.9 0.4,-0.5 0.9,-0.5 0.6,0.2 m -1.3,9.9 2,-2.3 -1.9,-2 v 0.4 l -0.3,0.9 -0.6,0.7 -0.8,0.5 h -0.9 l -0.9,-0.3 -0.4,-0.4 -0.5,-0.8 -0.1,-0.9 0.4,-0.8 0.6,-0.7 0.8,-0.5 0.4,-0.1 0.7,0.2 m -322.3,-513.7 -0.7,0.1 -1.1,0.6 1.8,-6 m -3.5,5.7 -3.2,-0.9 2.4,-1.8 -0.9,-0.2 -0.4,-0.5 -0.3,-0.4 v -0.9 l 0.2,-0.6 0.5,-0.8 0.8,-0.4 h 0.9 l 0.9,0.2 0.8,0.6 0.2,0.3 0.1,0.7 m -65.8,178.8 -0.5,0.8 -0.7,0.5 -1,0.1 -0.3,-0.1 -0.8,-0.5 -0.4,-0.7 -0.1,-1 v -0.3 l 0.5,-0.8 0.8,-0.4 0.9,-0.1 0.3,0.1 0.8,0.5 0.5,0.7 v 1.2 l -0.4,1.5 -0.6,1.4 -0.8,0.7 -0.9,0.1 -0.6,-0.1 -0.8,-0.5 -0.2,-0.7 m 6.2,-101.6 0.1,0.7 0.5,1.2 -5.9,-2.3 m 4.1,3.4 0.3,0.1 0.4,0.5 0.2,0.4 0.1,0.6 -0.5,1.1 -0.5,0.5 -0.4,0.2 h -0.6 l -0.6,-0.2 -0.4,-0.5 -0.7,-0.9 -1.7,-3.9 -1.5,3.9"
       id="nums_005"
       stroke="#000000"
       stroke-width="1" />
    <path
       d="m 2323.9,605.3 -27.9,66.1 -55.6,-66.1 -10.6,-138 74.7,23.6 39.6,-71.5 37.2,-44.3 -52.6,-23.9 -44.4,-68.7 -60.4,-49.9 -79.5,-18.6 73.6,-188.6 69.1,20.1 51.7,127.4 -10.3,-137.1 46,-1.8 59.1,116.4 52.9,15.5 30.8,37.4 93.9,77.1 -46.4,25.3 -48.1,4 46.6,12.7 -24.7,83.4 -57,-41.1 -74.4,-95.2 49.7,110.2 -35.4,60.6 -38.4,78.1 49.7,18 112.6,-35.3 -6.6,95.3 70.9,-83.2 26.8,108.4 -11,82.1 -98.5,-26.4 -224.5,-3.6 z"
       id="coupes_005"
       stroke="#ff0000"
       stroke-width="1.27"
       sodipodi:nodetypes="cccccccccccccccccccccccccccccccccccccc" />
    <path
       d="m 2240.4,605.3 h 83.5 m -83.5,0 64.1,-114.4 m 0,0 19.4,114.4 m 59.2,-86.9 -59.2,86.9 m -19.4,-114.4 117,-50.6 m -77.4,-20.9 77.4,20.9 m -40.2,-65.2 40.2,65.2 m -40.2,-65.2 75.6,4.6 m -75.6,-4.6 25.9,-105.6 m -25.9,105.6 -42.5,-202.2 m 0,0 68.4,96.6 m -78.5,81.7 10.1,-178.3 M 2374.5,34 2407.2,269.5 M 2338.8,172.9 2374.5,34 m 59.1,116.4 -26.4,119.1 m 26.4,-119.1 48,214.3 m 4.9,-198.8 -4.9,198.8 m 35.1,-55 -35.1,55 m 4.9,-198.8 30.2,143.8 m 0.6,-106.4 -0.6,106.4 m 0,0 21.9,96.1 M 2223.9,232.6 2287.1,45.5 m 145.7,490.9 106,60 m 0,0 -214.9,8.9 m 203.1,72 -203.1,-72 m 214.9,-8.9 97.7,25.2 m 0,0 -109.5,55.7 M 2223.9,232.6 2218,25.4"
       id="plisM_005"
       stroke="#a52a2a"
       stroke-dasharray="4" />
    <path
       d="m 2304.5,490.9 78.6,27.5 m 49.7,18 -108.9,68.9 m 4.8,-254.1 -41.6,-305.7 m -2.8,237 2.8,-237 m 230.2,157.8 47.5,102.4 m -26,290.7 -11.8,80.9"
       id="plisV_005"
       stroke="#008000"
       stroke-dasharray="4, 1, 1, 1"
       stroke-width="1.27" />
    <path
       d="m 2341.8,502.7 4,4 m 0,-4 -4,4 m 34.5,62.2 4,4 m 0,-4 -4,4 m -70.4,-376.6 4,4 m 0,-4 -4,4 m -22.2,-38.3 4,4 m 0,-4 -4,4 m 255.4,86.5 4,4 m 0,-4 -4,4 m -8.2,378.3 4,4 m 0,-4 -4,4"
       id="marqueV_005"
       stroke="#008000" />
    <path
       d="m 2423.3,386 h -7.5 l -0.7,6.7 0.7,-0.7 2.3,-0.8 h 2.2 l 2.3,0.8 1.5,1.5 0.7,2.2 v 1.5 l -0.7,2.3 -1.5,1.5 -2.3,0.7 h -2.2 l -2.3,-0.7 -0.7,-0.8 -0.8,-1.5"
       id="titre_5"
       stroke="#4b0082" />
  </g>
  <g
     id="page_006">
    <path
       d="m 2959.9,444.4 -0.6,0.4 -0.1,0.9 0.1,0.6 0.4,0.8 1,0.5 h 1.6 l 1.4,-0.3 1.2,-0.5 0.5,-0.6 0.1,-1 -0.1,-0.3 -0.4,-0.8 -0.7,-0.5 -0.9,-0.1 h -0.3 l -0.9,0.5 -0.5,0.6 -0.1,1 0.1,0.3 0.4,0.8 0.7,0.5 0.9,0.1 m -102.6,42.9 0.3,0.6 0.8,0.9 -6.3,-0.4 m 4.9,2 h 0.3 l 0.6,0.4 0.3,0.3 0.2,0.6 v 1.2 l -0.4,0.6 -0.3,0.3 -0.6,0.2 h -0.6 l -0.6,-0.4 -0.9,-0.6 -2.8,-3.2 -0.2,4.2 m 4.8,1.4 0.2,0.6 0.9,0.9 -6.3,-0.4 m -71.9,-183.1 0.6,0.2 0.9,-0.4 0.4,-0.5 0.4,-0.8 -0.1,-1.1 -0.9,-1.2 -1,-1.1 -1.1,-0.7 h -0.8 l -0.9,0.4 -0.2,0.2 -0.4,0.9 v 0.8 l 0.4,0.9 0.2,0.2 0.8,0.4 h 0.9 l 0.8,-0.4 0.2,-0.2 0.5,-0.8 v -0.9 l -0.4,-0.8 m -5,7.7 -0.4,-0.8 v -0.9 l 0.5,-0.8 0.2,-0.2 0.8,-0.5 0.9,0.1 0.8,0.4 0.2,0.2 0.4,0.9 v 0.8 l -0.4,0.9 -0.2,0.2 -0.9,0.4 h -0.8 l -1.1,-0.7 -1,-1.1 -0.9,-1.3 -0.2,-1 0.5,-0.9 0.4,-0.4 0.9,-0.4 0.6,0.2 m -23,53.3 h 0.7 l 1.2,-0.4 -2.9,5.6 m 5.6,-4.4 -0.9,-0.2 -1,0.5 -0.9,1.2 -0.5,0.8 -0.4,1.5 0.1,1.1 0.7,0.7 0.5,0.2 1,0.2 0.9,-0.5 1,-1.2 0.4,-0.8 0.4,-1.5 -0.1,-1.1 -0.7,-0.6 -0.4,-0.3 m 4.4,2.3 -1,-0.1 -0.5,0.4 -0.3,0.5 v 0.7 l 0.4,0.5 0.9,0.8 0.7,0.7 0.2,0.8 v 0.7 l -0.4,0.8 -0.5,0.4 -0.4,0.1 -1,-0.1 -1,-0.6 -0.7,-0.7 -0.1,-0.4 v -0.7 l 0.4,-0.8 0.5,-0.3 0.9,-0.3 0.9,0.1 1.2,0.3 0.7,0.1 0.5,-0.4 0.3,-0.6 v -0.6 l -0.7,-0.7 -1.2,-0.7 m 60.7,-156.2 -6.8,-1.7 m 6,-2.4 0.8,4.1 m -1.2,1.3 0.5,0.5 1,0.7 -6.2,1.3 m 101.7,5.9 -0.4,-0.6 -1,-0.8 6.3,-0.7 m -5.2,-0.5 -0.4,-0.6 -1,-0.8 6.3,-0.6 m -7,-4 0.3,2.9 2.7,0.1 -0.3,-0.3 -0.4,-0.9 -0.1,-0.9 0.2,-0.9 0.5,-0.7 0.9,-0.4 h 0.6 l 0.9,0.2 0.7,0.5 0.4,0.9 0.1,0.9 -0.2,0.9 -0.3,0.3 -0.5,0.4 m -34.3,-84.6 -0.5,-0.3 -1.3,-0.2 5.2,-3.6 m -4.8,2 -0.6,-0.3 -1.2,-0.3 5.2,-3.5 m -7.9,0.2 5.2,0.1 -2.6,-3.8 m -2.6,3.7 5.2,-3.6 m -66.5,-38.6 3,0.4 0.6,-2.7 -0.3,0.3 -1,0.2 -0.9,-0.1 -0.8,-0.4 -0.5,-0.7 -0.2,-0.9 0.1,-0.6 0.4,-0.9 0.7,-0.5 0.9,-0.2 0.9,0.1 0.8,0.4 0.3,0.4 0.2,0.6 m -9.5,1.8 0.4,-0.9 0.6,-0.5 1,-0.2 0.3,0.1 0.8,0.4 0.5,0.7 0.2,0.9 v 0.3 l -0.4,0.8 -0.7,0.6 -0.9,0.1 h -0.3 l -0.9,-0.4 -0.5,-0.7 -0.1,-1.2 0.1,-1.5 0.5,-1.4 0.7,-0.9 1,-0.1 h 0.6 l 0.8,0.5 0.2,0.6 m -57.7,20.1 0.6,0.2 0.9,-0.5 0.4,-0.4 0.4,-0.8 -0.2,-1.1 -0.9,-1.3 -1,-1 -1.1,-0.6 h -0.8 l -0.9,0.4 -0.2,0.2 -0.4,0.8 v 0.9 l 0.4,0.8 0.2,0.3 0.9,0.4 h 0.8 l 0.9,-0.5 0.2,-0.2 0.4,-0.8 V 96 l -0.4,-0.8 m -3.1,9.1 2.1,-2.2 -1.7,-2.1 v 0.5 l -0.4,0.8 -0.7,0.6 -0.8,0.5 h -0.9 l -0.8,-0.4 -0.4,-0.5 -0.5,-0.8 v -0.9 l 0.5,-0.8 0.6,-0.7 0.8,-0.4 h 0.5 l 0.6,0.2 m 5.8,84.3 0.2,7 m -3.9,-5.1 3.7,-1.9 m 2.2,0.6 -0.1,-0.3 V 182 l 0.1,-0.4 0.4,-0.5 1.1,-0.5 h 0.6 l 0.5,0.1 0.5,0.4 0.3,0.5 v 0.7 l -0.2,1.1 -1.3,4 3.8,-1.9 m -32,-22.4 -6.2,-3 m 6.3,-1.2 -0.1,4.2 m 0,5.2 -6.3,-3 m 6.3,-1.2 v 4.2 m 83.1,327.3 -0.1,-0.6 -0.5,-1.2 5.9,2.3 m -4.1,-3.4 -0.2,-0.1 -0.5,-0.5 -0.1,-0.4 -0.1,-0.6 0.4,-1.1 0.5,-0.5 0.4,-0.2 h 0.7 l 0.6,0.2 0.4,0.5 0.6,0.9 1.7,3.9 1.5,-3.9 m -4.1,-2.8 -0.1,-0.7 -0.5,-1.1 5.9,2.3 m -61.9,39.6 h 0.7 l 1.2,-0.4 -2.7,5.7 m 5.4,-4.7 -0.9,-0.1 -0.9,0.6 -0.9,1.2 -0.4,0.8 -0.4,1.5 0.2,1.1 0.7,0.6 0.5,0.3 0.9,0.1 1,-0.6 0.9,-1.2 0.4,-0.8 0.3,-1.5 -0.1,-1.1 -0.7,-0.6 -0.4,-0.2 m 5.7,5 -0.7,0.7 -0.8,0.3 -0.9,-0.1 -0.3,-0.2 -0.7,-0.6 -0.3,-0.8 0.2,-1 0.1,-0.2 0.6,-0.7 0.8,-0.3 1,0.1 0.2,0.1 0.7,0.7 0.3,0.8 -0.2,1.2 -0.6,1.3 -1,1.3 -0.9,0.5 -0.9,-0.1 -0.6,-0.2 -0.7,-0.7 v -0.6 m -45.6,-47.6 -7,0.3 m 5,-4 2,3.7 m 0.8,1.6 1.5,2.9 -2.9,-0.5 0.4,0.8 v 0.7 l -0.1,0.4 -0.7,0.7 -0.5,0.3 -1,0.1 -0.8,-0.2 -0.6,-0.7 -0.5,-0.8 -0.1,-0.9 0.1,-0.4 0.4,-0.6 m -3.5,-74.2 0.6,-0.2 0.4,-0.9 0.1,-0.6 -0.2,-0.9 -0.8,-0.7 -1.4,-0.5 -1.5,-0.2 -1.2,0.1 -0.7,0.5 -0.4,0.9 -0.1,0.3 0.2,0.9 0.5,0.7 0.9,0.4 h 0.3 l 0.9,-0.1 0.7,-0.5 0.4,-0.9 V 415 l -0.1,-0.9 -0.5,-0.7 -0.9,-0.4 m 3.1,8.7 -3.8,-3.6 -0.6,4.5 m 4.4,-0.9 -6.3,-0.9 m 42.7,-30.3 -0.7,0.1 -1.1,0.5 2,-5.9 m -4.9,5.2 h 1 l 0.8,-0.6 0.8,-1.4 0.3,-0.8 0.1,-1.5 -0.2,-1.1 -0.8,-0.6 -0.6,-0.1 h -0.9 l -0.9,0.6 -0.7,1.4 -0.3,0.8 -0.2,1.5 0.3,1.1 0.8,0.5 0.4,0.2 m -4.7,-1.5 h 1 l 0.4,-0.5 0.2,-0.6 -0.1,-0.7 -0.4,-0.4 -1.1,-0.7 -0.7,-0.6 -0.4,-0.7 -0.1,-0.7 0.3,-0.8 0.4,-0.5 0.4,-0.2 h 1 l 1.1,0.4 0.8,0.5 0.1,0.4 0.1,0.7 -0.2,0.8 -0.5,0.5 -0.8,0.4 h -0.9 l -1.2,-0.1 -0.7,0.1 -0.5,0.5 -0.2,0.6 0.1,0.6 0.8,0.6 1.3,0.4 m 231,-23.3 0.4,-0.5 0.5,-1.1 2.4,5.8 m 1.9,-7.8 -2.8,1.1 0.8,2.6 0.1,-0.4 0.7,-0.6 0.9,-0.3 0.9,-0.1 0.8,0.4 0.6,0.7 0.3,0.5 v 1 l -0.3,0.8 -0.7,0.6 -0.9,0.3 -0.9,0.1 -0.4,-0.2 -0.5,-0.4 m 44,-53.4 -0.3,-0.1 -0.5,-0.5 -0.1,-0.4 -0.1,-0.6 0.5,-1.2 0.5,-0.4 0.4,-0.2 h 0.6 l 0.6,0.2 0.4,0.5 0.6,0.9 1.7,3.9 1.6,-3.9 m -5.2,-4 1.2,-3 1.6,2.5 0.3,-0.8 0.5,-0.4 0.4,-0.2 h 0.9 l 0.6,0.3 0.7,0.6 0.3,0.8 v 0.9 l -0.3,0.8 -0.7,0.8 -0.4,0.1 -0.6,0.1 m -99.3,248 0.1,-0.7 -0.3,-1.2 5.3,3.3 m -4.1,-5.7 -0.2,1 0.3,0.5 0.5,0.4 h 0.7 l 0.6,-0.3 0.9,-0.9 0.7,-0.6 0.8,-0.2 0.7,0.1 0.8,0.5 0.3,0.5 0.1,0.4 -0.2,1 -0.6,1 -0.8,0.6 -0.4,0.1 -0.7,-0.1 -0.7,-0.5 -0.4,-0.5 -0.2,-0.9 0.3,-0.9 0.3,-1.2 0.1,-0.6 -0.3,-0.6 -0.6,-0.3 -0.6,-0.1 -0.8,0.6 -0.7,1.2 m -120,8.5 -0.7,0.2 -1,0.7 1.1,-6.2 m -4.1,5.9 1,-0.1 0.7,-0.8 0.6,-1.4 0.1,-0.9 v -1.5 l -0.4,-1 -0.9,-0.5 -0.5,-0.1 -1,0.2 -0.7,0.7 -0.6,1.5 -0.1,0.9 v 1.5 l 0.4,1 0.9,0.4 0.4,0.1 m -6.8,-3.3 0.4,-0.9 0.7,-0.5 1,-0.1 0.3,0.1 0.8,0.4 0.5,0.7 0.1,0.9 v 0.3 l -0.5,0.9 -0.7,0.5 -0.9,0.1 -0.3,-0.1 -0.9,-0.4 -0.4,-0.7 -0.1,-1.2 0.2,-1.5 0.6,-1.4 0.7,-0.8 1,-0.2 0.6,0.1 0.8,0.5 0.2,0.6 m -74.4,20.7 0.2,-0.6 -0.5,-0.9 -0.4,-0.4 -0.9,-0.3 -1,0.2 -1.3,0.9 -1,1.1 -0.6,1.1 0.1,0.9 0.4,0.8 0.2,0.2 0.9,0.4 0.9,-0.1 0.8,-0.4 0.2,-0.2 0.4,-0.9 -0.1,-0.9 -0.4,-0.8 -0.2,-0.2 -0.9,-0.4 -0.9,0.1 -0.8,0.4 m 8.6,3.4 0.2,-0.6 -0.5,-0.8 -0.4,-0.4 -0.9,-0.4 -1,0.2 -1.2,0.9 -1.1,1.1 -0.6,1.1 0.1,0.9 0.4,0.8 0.3,0.2 0.8,0.4 0.9,-0.1 0.8,-0.4 0.2,-0.2 0.4,-0.9 v -0.8 l -0.5,-0.9 -0.2,-0.2 -0.9,-0.4 -0.8,0.1 -0.9,0.4 m 3.2,-23 3,-0.1 0.2,-2.8 -0.3,0.4 -0.9,0.3 -0.9,0.1 -0.9,-0.3 -0.6,-0.6 -0.4,-0.8 v -0.6 l 0.2,-1 0.6,-0.6 0.9,-0.3 0.9,-0.1 0.9,0.3 0.3,0.2 0.4,0.6 m -6.6,5.5 0.9,-0.4 0.2,-0.6 v -0.6 l -0.3,-0.6 -0.6,-0.2 -1.3,-0.3 -0.9,-0.2 -0.6,-0.6 -0.3,-0.6 -0.1,-0.9 0.3,-0.6 0.3,-0.3 0.8,-0.3 1.2,-0.1 1,0.3 0.3,0.2 0.3,0.6 0.1,0.9 -0.3,0.6 -0.6,0.7 -0.9,0.3 -1.1,0.4 -0.6,0.3 -0.3,0.6 v 0.6 l 0.4,0.6 0.9,0.3 1.3,-0.1 m 121,99.2 0.2,-0.6 0.1,-1.3 4.4,4.5 m -0.6,-7.3 -0.6,-0.2 -0.9,0.4 -0.4,0.4 -0.4,0.9 0.2,1 0.8,1.3 1.1,1.1 1,0.6 h 0.9 l 0.8,-0.4 0.2,-0.2 0.5,-0.9 v -0.8 l -0.4,-0.9 -0.3,-0.2 -0.8,-0.4 h -0.8 l -0.9,0.4 -0.2,0.2 -0.4,0.9 v 0.8 l 0.4,0.9 m -64.9,-4.2 0.6,0.4 1.2,0.4 -5.5,3 m 5,-1.5 0.5,0.3 1.2,0.4 -5.5,3 m 7,-0.8 -0.7,-0.6 h -0.7 l -0.5,0.3 -0.4,0.5 v 0.7 l 0.3,1.2 0.2,0.9 -0.2,0.9 -0.4,0.5 -0.8,0.4 -0.7,0.1 -0.4,-0.2 -0.7,-0.6 -0.6,-1.1 -0.1,-0.9 0.1,-0.4 0.4,-0.6 0.8,-0.4 h 0.6 l 0.8,0.2 0.7,0.7 0.9,0.9 0.5,0.4 h 0.7 l 0.5,-0.3 0.4,-0.6 -0.2,-0.9 -0.6,-1.2 m 156.8,-443.2 0.1,0.6 0.6,1.1 -6.1,-1.7 m 4.6,2.4 0.2,0.7 0.6,1.1 -6.1,-1.8 m 4.9,6.4 0.9,-2.9 -2.5,-1 0.2,0.3 v 1 l -0.2,0.9 -0.6,0.7 -0.7,0.4 -1,0.1 -0.5,-0.2 -0.8,-0.5 -0.4,-0.8 -0.1,-0.9 0.3,-0.9 0.5,-0.8 0.4,-0.2 0.7,-0.1 m 63.7,-58.7 -0.5,0.5 -0.5,1.1 -2,-6 m 0,5.3 0.1,0.3 -0.1,0.6 -0.2,0.4 -0.5,0.5 -1.1,0.4 -0.7,-0.1 -0.4,-0.2 -0.4,-0.5 -0.2,-0.6 0.1,-0.6 0.3,-1.1 1.9,-3.8 -4,1.3 m -2.1,7.4 1.5,-4.9 -4.2,1.4 m 2.7,3.5 -2,-6 m 83.6,140 0.3,-0.2 h 0.7 l 0.4,0.1 0.5,0.3 0.7,1 0.1,0.7 -0.1,0.4 -0.4,0.6 -0.5,0.3 -0.7,0.1 -1,-0.1 -4.2,-0.9 2.3,3.5 m 6.2,-1.9 1.8,2.8 -3,-0.2 0.5,0.8 v 0.6 0.4 l -0.6,0.8 -0.6,0.3 -0.9,0.2 -0.8,-0.2 -0.7,-0.6 -0.5,-0.7 -0.2,-0.9 v -0.5 l 0.4,-0.5 m 64.3,13.7 0.7,2.9 2.7,-0.3 -0.3,-0.2 -0.5,-0.8 -0.2,-0.9 v -1 l 0.5,-0.7 0.8,-0.5 0.6,-0.1 h 0.9 l 0.7,0.5 0.5,0.8 0.2,0.9 v 0.9 l -0.3,0.4 -0.5,0.4 m -16.3,31.9 0.7,-0.1 1.2,-0.5 -2.5,5.9 m 6.9,-4.2 -2.8,-1.2 -1.3,2.4 0.4,-0.2 1,0.1 0.8,0.4 0.7,0.6 0.3,0.8 v 0.9 l -0.3,0.6 -0.6,0.7 -0.8,0.3 -0.9,-0.1 -0.9,-0.3 -0.7,-0.6 -0.1,-0.4 -0.1,-0.7 m 5.6,-138.1 -0.3,-0.1 -0.5,-0.4 -0.2,-0.3 -0.2,-0.7 0.2,-1.2 0.4,-0.5 0.4,-0.2 0.6,-0.2 0.6,0.1 0.5,0.4 0.8,0.8 2.4,3.5 0.8,-4.1 m -5.4,-5.5 3.5,3.8 0.9,-4.4 m -4.4,0.6 6.2,1.3 m -30.3,-60.4 -2.8,-1.8 2.9,-1 -0.8,-0.5 -0.3,-0.6 -0.1,-0.4 0.3,-0.9 0.3,-0.5 0.8,-0.6 0.8,-0.1 0.9,0.2 0.8,0.5 0.5,0.8 0.1,0.4 -0.1,0.7 m -6.4,0 -0.7,-0.1 -1.2,0.3 3.5,-5.2 m -46,-12.5 0.2,0.2 0.1,0.7 v 0.4 l -0.3,0.6 -1,0.8 -0.6,0.1 -0.4,-0.1 -0.6,-0.2 -0.4,-0.5 -0.2,-0.7 v -1 l 0.4,-4.3 -3.3,2.7 m 0.3,7.8 2.3,-1.8 -1.4,-2.3 -0.1,0.4 -0.5,0.8 -0.7,0.5 -0.9,0.4 -0.8,-0.1 -0.8,-0.5 -0.4,-0.5 -0.3,-0.9 0.1,-0.8 0.5,-0.8 0.7,-0.6 0.9,-0.3 h 0.4 l 0.6,0.3"
       id="nums_006"
       stroke="#000000"
       stroke-width="1" />
    <path
       d="m 3108,349.5 -51.9,-81.8 -35.9,89.9 -63.5,25.8 21.2,121.8 -68.1,109.1 -94.8,93.8 -49.2,-90.8 -69.6,-63.8 77.6,-4.3 75.6,13.4 8.8,-132.3 -49.1,123.2 -69.7,-32.6 -29.7,-56.6 13.3,-93.4 67,22 -62.5,-32.7 99.9,-96.7 -19.1,-93.2 -75.3,37.9 1,-88.3 47.5,-48 82.1,10.6 58.7,86.1 10.8,99 27.9,-95.6 88.3,-28.7 32.7,-26.1 80,54.4 -18.3,92.2 27.4,112.2 z"
       id="coupes_006"
       stroke="#ff0000"
       stroke-width="1.27"
       sodipodi:nodetypes="ccccccccccccccccccccccccccccccccc" />
    <path
       d="m 2977.9,505.2 -119.7,-74.9 m 0,0 98.5,-46.9 m 21.2,121.8 -128.5,57.4 m 8.8,-132.3 74.9,-162.7 M 2790,392.9 2933.1,267.6 m -74.9,162.7 -68.2,-37.4 m 37.4,-129.4 105.7,4.1 M 2790,392.9 2827.4,263.5 m -19.1,-93.2 -26.8,-98.4 m 26.8,98.4 -74.3,-50.4 m 5.4,401 50.6,-128 m 143.1,-125.3 87.1,90 m -87.1,-90 123,0.1 m -146.3,346.6 -60.4,-51.7 m 60.4,51.7 -144,3 M 2961,172 l 95.1,95.7 m -6.8,-124.4 6.8,124.4 m 87.6,-3.9 -87.6,3.9 m 87.6,-3.9 -35.7,85.7 m -58.7,-206.2 112.7,28.3"
       id="plisM_006"
       stroke="#a52a2a"
       stroke-dasharray="4" />
    <path
       d="m 2933.1,267.6 23.6,115.8 m -148.4,-213.1 124.8,97.3 m -124.8,-97.3 114,-1.7 m -114,1.7 55.3,-87.8 m -54.5,471 -19.1,-160.6 m -80.3,71.4 80.3,-71.4 m -24.2,224.4 83.6,-54.7 m -83.6,54.7 8,-68.1 m 275.5,-405.9 94.4,120.5"
       id="plisV_006"
       stroke="#008000"
       stroke-dasharray="4, 1, 1, 1"
       stroke-width="1.27" />
    <path
       d="m 2942.9,323.5 4,4 m 0,-4 -4,4 m -74.2,-110.6 4,4 m 0,-4 -4,4 m -5.4,-53.5 4,4 m 0,-4 -4,4 m -29.4,-47 4,4 m 0,-4 -4,4 m -36.4,342.8 4,4 m 0,-4 -4,4 m -49.6,-48.6 4,4 m 0,-4 -4,4 m 57.7,157.4 4,4 m 0,-4 -4,4 m -37.8,-10.7 4,4 m 0,-4 -4,4 m 326.7,-383.8 4,4 m 0,-4 -4,4"
       id="marqueV_006"
       stroke="#008000" />
    <path
       d="m 2919.8,350.3 -0.7,-1.5 -2.3,-0.7 h -1.5 l -2.2,0.7 -1.5,2.3 -0.8,3.7 v 3.8 l 0.8,3 1.5,1.5 2.2,0.7 h 0.8 l 2.2,-0.7 1.5,-1.5 0.8,-2.3 v -0.7 l -0.8,-2.3 -1.5,-1.5 -2.2,-0.7 h -0.8 l -2.2,0.7 -1.5,1.5 -0.8,2.3"
       id="titre_6"
       stroke="#4b0082" />
  </g>
  <g
     id="page_007">
    <path
       d="m 3337.7,684.1 -0.8,3.2 -1.9,-2.3 -0.2,0.8 -0.4,0.6 -0.4,0.2 -0.9,0.1 -0.6,-0.2 -0.8,-0.5 -0.5,-0.7 -0.1,-1 0.3,-0.8 0.5,-0.8 0.3,-0.3 0.7,-0.1 m 16.3,33.3 0.6,-0.4 0.7,-1.1 1,6.3 m 0.7,-6.8 3.2,-0.5 -1.3,2.7 0.8,-0.2 0.7,0.2 0.3,0.3 0.5,0.8 0.1,0.6 -0.2,0.9 -0.5,0.7 -0.8,0.5 -0.9,0.1 -0.9,-0.1 -0.4,-0.3 -0.4,-0.5 m 63.7,-54.3 0.4,0.9 0.7,0.2 0.6,-0.1 0.5,-0.3 0.2,-0.7 0.2,-1.2 0.2,-0.9 0.5,-0.7 0.6,-0.4 0.9,-0.1 0.6,0.3 0.3,0.2 0.4,0.9 0.2,1.2 -0.2,0.9 -0.3,0.3 -0.5,0.4 -0.9,0.1 -0.7,-0.2 -0.6,-0.5 -0.4,-0.9 -0.5,-1.2 -0.3,-0.5 -0.7,-0.2 h -0.6 l -0.5,0.4 -0.2,0.9 0.1,1.4 m -0.8,-7.6 0.3,3 h 2.7 l -0.3,-0.3 -0.4,-0.8 -0.1,-0.9 0.2,-0.9 0.5,-0.7 0.9,-0.4 0.6,-0.1 0.9,0.2 0.7,0.5 0.4,0.9 0.1,0.9 -0.2,0.9 -0.3,0.4 -0.6,0.3 m -20,37.8 -0.5,0.8 0.1,0.7 0.3,0.4 0.6,0.4 0.7,-0.1 1.1,-0.5 0.9,-0.3 0.9,0.2 0.5,0.3 0.6,0.7 0.1,0.7 -0.1,0.4 -0.6,0.8 -0.9,0.7 -1,0.2 h -0.4 l -0.6,-0.3 -0.5,-0.8 -0.1,-0.6 0.2,-0.9 0.5,-0.7 0.8,-1 0.3,-0.6 -0.1,-0.6 -0.3,-0.5 -0.6,-0.3 -0.9,0.2 -1.1,0.8 m 6.7,-3.6 -0.6,-0.4 -0.9,0.3 -0.5,0.4 -0.5,0.7 v 1.1 l 0.6,1.4 0.9,1.2 0.9,0.8 0.9,0.2 0.9,-0.3 0.2,-0.2 0.6,-0.7 0.1,-0.9 -0.3,-0.9 -0.1,-0.2 -0.8,-0.6 -0.8,-0.1 -0.9,0.3 -0.3,0.1 -0.5,0.8 -0.2,0.8 0.3,0.9 m 4.1,-112 0.4,0.8 0.6,0.3 h 0.6 l 0.5,-0.3 0.3,-0.6 0.3,-1.2 0.2,-1 0.6,-0.6 0.6,-0.3 h 0.9 l 0.6,0.2 0.3,0.3 0.4,0.9 v 1.2 l -0.3,0.9 -0.2,0.3 -0.6,0.4 h -0.9 l -0.6,-0.3 -0.7,-0.6 -0.3,-0.8 -0.4,-1.2 -0.3,-0.6 -0.6,-0.3 h -0.6 l -0.6,0.4 -0.2,0.9 v 1.3 m -0.2,-5.5 0.3,0.9 0.6,0.3 h 0.6 l 0.6,-0.4 0.3,-0.6 0.3,-1.2 0.2,-0.9 0.6,-0.6 0.6,-0.4 h 0.9 l 0.6,0.3 0.3,0.3 0.3,0.9 0.1,1.2 -0.3,0.9 -0.3,0.3 -0.6,0.3 h -0.8 l -0.7,-0.2 -0.6,-0.6 -0.3,-0.9 -0.4,-1.2 -0.3,-0.6 -0.6,-0.2 h -0.6 l -0.6,0.3 -0.3,0.9 0.1,1.4 m -41.1,-59.2 0.9,0.1 0.6,-0.4 0.2,-0.6 v -0.6 l -0.4,-0.6 -1,-0.7 -0.7,-0.7 -0.3,-0.8 v -0.7 l 0.4,-0.8 0.5,-0.4 0.4,-0.1 1,0.1 1,0.5 0.7,0.6 0.2,0.4 v 0.7 l -0.4,0.8 -0.5,0.4 -0.8,0.3 -0.9,-0.1 -1.3,-0.2 h -0.6 l -0.6,0.4 -0.2,0.6 v 0.6 l 0.7,0.7 1.2,0.5 m -6.3,-5.2 0.7,-0.7 0.8,-0.3 0.9,0.2 0.3,0.1 0.7,0.6 0.3,0.8 -0.1,1 -0.1,0.2 -0.7,0.7 -0.8,0.3 -0.9,-0.1 -0.3,-0.1 -0.7,-0.7 -0.3,-0.8 0.2,-1.2 0.7,-1.3 0.9,-1.3 0.9,-0.5 0.9,0.1 0.6,0.2 0.7,0.7 v 0.6 m -60.7,158.6 1.8,-2.7 1,2.8 0.5,-0.7 0.6,-0.3 0.4,-0.1 0.9,0.2 0.5,0.4 0.6,0.7 0.1,0.9 -0.2,0.9 -0.5,0.7 -0.8,0.6 -0.4,0.1 -0.6,-0.1 m -49.1,4.9 -4.9,1.5 3.6,2.7 m 1.3,-4.2 -3.8,5 m -22.5,-103.7 -0.2,-0.9 -0.6,-0.3 h -0.6 l -0.6,0.2 -0.4,0.6 -0.3,1.2 -0.4,0.9 -0.6,0.5 -0.6,0.3 h -0.9 l -0.6,-0.4 -0.3,-0.3 -0.2,-0.9 v -1.2 l 0.4,-0.9 0.3,-0.3 0.6,-0.2 h 0.9 l 0.6,0.3 0.5,0.7 0.3,0.9 0.2,1.2 0.3,0.6 0.6,0.4 h 0.6 l 0.6,-0.3 0.3,-0.9 0.1,-1.3 m -0.6,-145.4 -6.5,-2.5 m 6.2,-1.7 0.3,4.2 m 134.2,-62.2 0.8,-0.6 0.8,-0.2 0.9,0.2 0.3,0.2 0.6,0.7 0.2,0.8 -0.3,0.9 -0.1,0.3 -0.8,0.6 -0.8,0.2 -0.9,-0.2 -0.3,-0.2 -0.6,-0.7 -0.1,-0.9 0.3,-1.1 0.9,-1.3 1,-1.1 1,-0.5 0.9,0.3 0.5,0.3 0.6,0.7 v 0.7 m -6.1,0.9 -0.7,-0.1 -1.2,0.3 3.4,-5.3 m 45.3,79.6 0.9,0.2 0.6,0.5 0.4,0.9 0.1,0.3 -0.2,0.9 -0.6,0.7 -0.8,0.4 h -0.3 l -1,-0.2 -0.6,-0.5 -0.4,-0.9 V 453 l 0.2,-0.9 0.5,-0.7 1.2,-0.4 1.5,-0.2 1.5,0.2 0.9,0.5 0.4,0.8 0.1,0.6 -0.2,1 -0.6,0.3 m -6,-5.9 0.4,0.8 0.9,0.5 1.5,0.2 0.9,-0.1 1.5,-0.5 0.8,-0.7 0.2,-0.9 V 447 l -0.4,-0.8 -1,-0.6 -1.5,-0.1 -0.9,0.1 -1.5,0.5 -0.8,0.6 -0.2,1 v 0.4 m -41.3,39.2 -0.9,0.2 -0.4,0.6 v 0.6 l 0.2,0.6 0.6,0.4 1.2,0.4 0.9,0.3 0.5,0.7 0.3,0.6 -0.1,0.9 -0.3,0.6 -0.4,0.2 -0.9,0.3 -1.2,-0.1 -0.9,-0.4 -0.2,-0.3 -0.3,-0.6 0.1,-0.9 0.3,-0.6 0.7,-0.6 0.9,-0.2 1.2,-0.2 0.6,-0.3 0.4,-0.5 v -0.6 l -0.2,-0.6 -0.9,-0.4 -1.4,-0.1 m 7.8,2.7 -0.4,0.9 -0.6,0.5 -1,0.2 h -0.3 l -0.8,-0.4 -0.6,-0.6 -0.2,-0.9 v -0.3 l 0.4,-0.9 0.6,-0.5 0.9,-0.3 0.3,0.1 0.9,0.3 0.6,0.7 0.2,1.2 -0.2,1.5 -0.4,1.5 -0.6,0.8 -1,0.2 h -0.6 l -0.8,-0.4 -0.3,-0.6 m -117.1,-184.5 0.1,0.7 0.4,1.2 -5.7,-2.7 m 3.1,6.7 h 0.6 l 0.7,-0.7 0.3,-0.6 0.1,-0.9 -0.6,-0.9 -1.2,-0.9 -1.4,-0.7 -1.2,-0.2 -0.8,0.3 -0.7,0.7 -0.1,0.3 -0.1,0.9 0.3,0.8 0.7,0.7 0.3,0.1 0.9,0.1 0.8,-0.3 0.6,-0.7 0.2,-0.3 0.1,-0.9 -0.3,-0.8 -0.7,-0.7 m 73.7,-108.3 -0.2,0.6 0.1,1.3 -4.8,-4.1 m 3.2,6.2 0.4,-0.8 -0.3,-0.7 -0.4,-0.4 -0.7,-0.1 -0.6,0.2 -1,0.8 -0.8,0.4 -0.9,0.1 -0.6,-0.2 -0.7,-0.5 -0.2,-0.7 -0.1,-0.4 0.4,-0.9 0.8,-0.9 0.8,-0.5 h 0.4 l 0.7,0.2 0.6,0.6 0.3,0.6 0.1,0.8 -0.4,0.9 -0.6,1.1 -0.1,0.7 0.2,0.6 0.5,0.4 0.6,0.1 0.9,-0.5 0.8,-1 m 115.1,34 0.4,-0.6 0.3,-1.2 3,5.5 m 2.3,-6.3 0.2,1 -0.2,0.8 -0.7,0.7 -0.2,0.1 -1,0.2 -0.8,-0.2 -0.7,-0.7 -0.1,-0.2 -0.2,-1 0.2,-0.8 0.7,-0.7 0.3,-0.1 0.9,-0.2 0.8,0.2 0.8,0.9 0.8,1.4 0.4,1.4 -0.1,1.1 -0.6,0.7 -0.5,0.3 -1,0.1 -0.5,-0.3 m -48.2,69.3 -2,-2.6 3,-0.1 -0.6,-0.7 -0.1,-0.6 v -0.5 l 0.5,-0.8 0.5,-0.3 0.9,-0.4 0.8,0.1 0.8,0.6 0.6,0.7 0.3,0.9 v 0.4 l -0.3,0.6 m -8.9,-4.4 -0.3,0.6 0.4,0.9 0.3,0.5 0.8,0.5 1.1,-0.1 1.4,-0.7 1.1,-0.9 0.8,-1 0.1,-0.9 -0.3,-0.9 -0.2,-0.2 -0.8,-0.5 -0.9,-0.1 -0.9,0.3 -0.2,0.2 -0.5,0.8 -0.1,0.8 0.3,0.9 0.2,0.3 0.8,0.5 0.9,0.1 0.8,-0.3 m -30.3,22.3 3.2,-0.7 -1.3,2.7 0.9,-0.1 0.7,0.1 0.3,0.3 0.5,0.8 0.1,0.6 -0.1,0.9 -0.5,0.7 -0.8,0.5 -0.9,0.2 -0.9,-0.2 -0.4,-0.2 -0.4,-0.5 m 8.2,-6.8 -1.7,6.7 m -2.4,-5.9 4.1,-0.8 m 174.9,-188.2 -0.2,0.3 -0.5,0.4 -0.5,0.1 -0.6,-0.1 -1.1,-0.6 -0.3,-0.6 -0.1,-0.4 0.1,-0.7 0.3,-0.5 0.5,-0.3 1,-0.5 4.1,-1 -3.5,-2.2 m -7,3.2 4.7,-2 -3.8,-2.4 m -0.9,4.4 3.3,-5.4 m 97.2,20.3 -3.2,0.8 1.2,-2.8 -0.9,0.2 -0.7,-0.1 -0.3,-0.2 -0.5,-0.9 -0.2,-0.5 0.1,-1 0.5,-0.7 0.8,-0.5 0.8,-0.2 1,0.1 0.4,0.2 0.4,0.5 m -4.3,4.8 -0.5,0.4 -0.7,1.1 -1.4,-6.1 m 56.2,27.7 -1.2,-3 2.9,0.7 -0.4,-0.8 0.1,-0.7 0.1,-0.4 0.8,-0.6 0.5,-0.2 1,-0.1 0.7,0.3 0.7,0.7 0.3,0.9 0.1,0.9 -0.2,0.4 -0.4,0.5 m -7,-3.5 -1.3,-3.1 2.9,0.8 -0.3,-0.8 v -0.7 l 0.2,-0.4 0.7,-0.6 0.6,-0.3 h 0.9 l 0.8,0.3 0.6,0.7 0.4,0.8 v 1 l -0.1,0.4 -0.5,0.5 m -118.2,76.7 -0.5,5.2 3.9,-2.3 m -3.4,-2.9 3.2,5.5 m -0.4,-7 2.8,-1.7 -0.3,3 0.8,-0.5 h 0.6 l 0.5,0.1 0.7,0.6 0.3,0.5 0.2,1 -0.2,0.8 -0.7,0.7 -0.7,0.4 -1,0.2 -0.4,-0.1 -0.5,-0.3 m -97.9,54 -0.3,5.1 3.8,-2.4 m -3.5,-2.7 3.4,5.2 m -0.5,-5.4 0.4,-0.6 0.2,-1.2 3.5,5.3 m -27,-43.3 -0.2,0.6 -0.1,1.3 -4.2,-4.8 m -0.9,6.6 -0.3,-0.8 v -0.9 l 0.5,-0.8 0.2,-0.2 0.9,-0.4 0.8,0.1 0.9,0.5 0.2,0.2 0.3,0.9 v 0.8 l -0.5,0.8 -0.2,0.2 -0.9,0.4 h -0.9 l -1,-0.8 -1,-1.1 -0.7,-1.3 -0.2,-1.1 0.5,-0.8 0.5,-0.4 0.8,-0.4 0.7,0.3 m -33.8,50.4 2.9,1.5 -2.7,1.3 0.8,0.4 0.4,0.6 0.1,0.4 -0.1,0.9 -0.3,0.6 -0.7,0.6 -0.8,0.3 -0.9,-0.2 -0.8,-0.4 -0.7,-0.7 -0.1,-0.4 v -0.7 m 8.4,-1.3 -0.9,-0.2 -0.5,0.4 -0.3,0.6 v 0.6 l 0.4,0.6 0.9,0.8 0.6,0.7 0.3,0.8 v 0.7 l -0.4,0.8 -0.6,0.4 -0.4,0.1 -0.9,-0.2 -1.1,-0.5 -0.6,-0.7 -0.2,-0.4 v -0.7 l 0.5,-0.8 0.5,-0.4 0.8,-0.2 0.9,0.1 1.3,0.3 h 0.6 l 0.6,-0.4 0.2,-0.5 0.1,-0.7 -0.7,-0.7 -1.2,-0.6 m 268.7,-81.7 0.2,0.9 0.6,0.4 0.6,0.1 0.6,-0.2 0.4,-0.6 0.4,-1.1 0.4,-0.9 0.7,-0.5 0.7,-0.2 0.8,0.1 0.6,0.4 0.3,0.3 0.1,1 -0.1,1.2 -0.4,0.8 -0.4,0.3 -0.6,0.2 -0.9,-0.1 -0.6,-0.4 -0.5,-0.7 -0.2,-0.9 -0.1,-1.3 -0.2,-0.6 -0.6,-0.4 h -0.6 l -0.6,0.2 -0.4,0.8 -0.2,1.4 m 1,-7.6 -0.4,3 2.7,0.7 -0.3,-0.4 -0.2,-0.9 0.1,-0.9 0.5,-0.8 0.6,-0.6 1,-0.1 h 0.6 l 0.8,0.5 0.5,0.6 0.2,1 -0.1,0.9 -0.4,0.8 -0.4,0.3 -0.6,0.2 m -100.4,40.8 -1.3,-5 -2.9,3.4 m 4.2,1.6 -4.8,-4.1 m 2.7,6.5 -2.2,2.5 -0.6,-2.9 -0.6,0.7 -0.6,0.3 h -0.5 l -0.8,-0.4 -0.5,-0.3 -0.5,-0.9 -0.1,-0.8 0.4,-0.9 0.6,-0.7 0.8,-0.5 h 0.4 l 0.6,0.2 m 72.9,30.9 -0.2,0.9 0.4,0.6 0.5,0.3 h 0.6 l 0.6,-0.4 0.9,-0.9 0.7,-0.6 0.8,-0.2 h 0.6 l 0.8,0.5 0.4,0.5 0.1,0.4 -0.2,1 -0.6,1 -0.7,0.6 -0.4,0.2 -0.6,-0.1 -0.8,-0.4 -0.4,-0.6 -0.2,-0.8 0.2,-0.9 0.3,-1.2 v -0.7 l -0.4,-0.5 -0.5,-0.3 -0.6,-0.1 -0.8,0.7 -0.6,1.1 m 2.7,-4.8 -0.2,1 0.4,0.5 0.5,0.3 0.7,0.1 0.5,-0.4 0.9,-0.9 0.7,-0.6 0.8,-0.3 0.7,0.1 0.8,0.4 0.3,0.6 0.1,0.4 -0.1,0.9 -0.6,1 -0.7,0.7 -0.4,0.1 h -0.7 l -0.8,-0.5 -0.4,-0.5 -0.2,-0.9 0.2,-0.9 0.3,-1.2 v -0.7 l -0.3,-0.5 -0.5,-0.3 h -0.7 l -0.7,0.6 -0.7,1.2 m -120.9,57.2 0.1,0.6 0.6,1.1 -6,-1.7 m 5.4,4.6 v -0.9 l -0.7,-0.8 -1.4,-0.7 -0.9,-0.3 -1.5,-0.1 -1,0.3 -0.6,0.8 -0.1,0.6 v 0.9 l 0.7,0.8 1.4,0.7 0.8,0.3 1.6,0.1 1,-0.3 0.5,-0.8 0.2,-0.4 m -2.3,2.8 0.1,0.6 0.6,1.1 -6,-1.7 m 82.1,25.4 0.7,0.7 0.3,0.8 -0.2,0.9 -0.1,0.3 -0.7,0.6 -0.8,0.3 -1,-0.2 -0.2,-0.1 -0.7,-0.7 -0.2,-0.8 0.1,-0.9 0.1,-0.3 0.7,-0.7 0.8,-0.2 1.2,0.3 1.4,0.7 1.2,0.9 0.5,1 -0.2,0.9 -0.2,0.5 -0.7,0.7 h -0.7 m -1.8,-8.3 -0.1,0.9 0.5,1 1.2,0.9 0.8,0.4 1.5,0.5 1,-0.2 0.7,-0.6 0.3,-0.6 0.1,-0.9 -0.5,-0.9 -1.2,-1 -0.8,-0.4 -1.4,-0.4 -1.1,0.1 -0.7,0.7 -0.2,0.4 m 5.7,98.9 0.9,-0.2 0.8,0.2 0.8,0.6 0.1,0.2 0.2,0.9 -0.2,0.9 -0.6,0.7 -0.2,0.2 -0.9,0.2 -0.9,-0.2 -0.7,-0.6 -0.1,-0.3 -0.3,-0.9 0.2,-0.8 0.9,-0.9 1.3,-0.8 1.4,-0.5 h 1.1 l 0.7,0.6 0.3,0.5 0.2,0.9 -0.3,0.6 m -5.9,-1.9 -0.5,-0.3 -1.3,-0.3 5.4,-3.3 m -40.5,94.7 -0.9,0.4 -0.8,-0.1 -0.8,-0.4 -0.2,-0.2 -0.4,-0.9 V 566 l 0.4,-0.9 0.3,-0.2 0.8,-0.4 h 0.9 l 0.8,0.5 0.2,0.2 0.4,0.9 v 0.8 l -0.7,1.1 -1.1,1 -1.3,0.8 -1.1,0.2 -0.8,-0.5 -0.4,-0.4 -0.4,-0.9 0.2,-0.6 m 8.2,0.9 -0.8,-0.5 -0.6,0.2 -0.5,0.4 -0.2,0.6 0.2,0.7 0.6,1.1 0.4,0.8 v 0.9 l -0.3,0.6 -0.6,0.6 -0.7,0.2 h -0.4 l -0.8,-0.5 -0.8,-0.8 -0.4,-0.9 v -0.4 l 0.2,-0.6 0.7,-0.7 0.6,-0.1 h 0.8 l 0.9,0.4 1,0.7 0.7,0.2 0.6,-0.2 0.4,-0.4 0.3,-0.6 -0.4,-0.9 -1,-0.9 m 29.8,-14.4 2,-2.7 0.8,2.9 0.6,-0.7 0.6,-0.3 0.4,-0.1 0.9,0.3 0.5,0.4 0.5,0.8 0.1,0.8 -0.2,0.9 -0.6,0.7 -0.8,0.6 h -0.4 l -0.6,-0.1 m 1.5,-10.6 3.2,6.2 m -5.7,-2.8 2.5,-3.4 m -119.3,-45.8 -0.2,0.6 v 1.3 l -4.4,-4.5 m 2.5,6.7 0.4,-0.8 -0.2,-1.1 -0.8,-1.2 -0.7,-0.7 -1.3,-0.8 -1,-0.2 -0.9,0.4 -0.4,0.4 -0.4,0.9 0.2,1 0.9,1.3 0.6,0.6 1.3,0.9 1,0.2 0.9,-0.4 0.3,-0.4 m -5.3,5.3 -2.3,-6.5 m 5.3,3.5 -3,3 m 41,56.1 0.4,0.9 -0.1,0.9 -0.5,0.8 -0.2,0.2 -0.9,0.3 h -0.8 l -0.8,-0.5 -0.2,-0.3 -0.4,-0.9 0.1,-0.8 0.5,-0.8 0.2,-0.2 0.9,-0.4 0.8,0.1 1,0.7 1,1.2 0.7,1.3 0.2,1.1 -0.5,0.8 -0.5,0.4 -0.9,0.4 -0.6,-0.3 m 1.3,-8.2 -0.5,0.8 0.2,0.7 0.4,0.4 0.6,0.3 0.6,-0.1 1.1,-0.6 0.9,-0.3 h 0.9 l 0.6,0.3 0.6,0.7 0.1,0.6 v 0.5 l -0.5,0.8 -0.9,0.7 -0.9,0.4 h -0.4 l -0.6,-0.3 -0.6,-0.7 -0.2,-0.6 0.1,-0.9 0.5,-0.8 0.7,-1 0.3,-0.6 -0.2,-0.7 -0.4,-0.4 -0.6,-0.3 -0.9,0.4 -1,0.8 m -73.9,0.6 -0.7,-0.6 -0.4,-0.7 v -1 l 0.1,-0.3 0.6,-0.7 0.8,-0.4 h 0.9 l 0.3,0.1 0.7,0.6 0.4,0.7 v 1 l -0.1,0.3 -0.6,0.7 -0.7,0.4 -1.3,-0.1 -1.4,-0.5 -1.3,-0.8 -0.7,-0.8 0.1,-1 0.2,-0.5 0.5,-0.8 0.7,-0.1 m 0.3,9.3 -0.8,-0.6 -0.3,-0.8 v -0.9 l 0.1,-0.3 0.6,-0.7 0.7,-0.4 h 1 l 0.3,0.1 0.7,0.6 0.4,0.7 v 1 l -0.1,0.3 -0.6,0.7 -0.8,0.4 -1.2,-0.1 -1.4,-0.5 -1.3,-0.8 -0.7,-0.8 v -1 l 0.2,-0.6 0.6,-0.7 0.7,-0.1 m 7.5,45.3 2.6,2.1 -2.9,0.7 0.7,0.6 0.3,0.6 v 0.4 l -0.3,0.9 -0.3,0.5 -0.8,0.5 -0.9,0.1 -0.9,-0.3 -0.7,-0.5 -0.5,-0.8 -0.1,-0.5 0.2,-0.6 m 8.5,0.2 -0.9,-0.3 -0.6,0.2 -0.4,0.5 -0.1,0.7 0.3,0.6 0.8,1 0.5,0.7 0.1,0.9 -0.1,0.6 -0.6,0.8 -0.6,0.2 -0.4,0.1 -0.9,-0.3 -1,-0.8 -0.5,-0.7 v -0.5 l 0.1,-0.6 0.5,-0.7 0.7,-0.3 0.8,-0.1 0.9,0.3 1.1,0.5 0.7,0.1 0.6,-0.3 0.3,-0.4 0.2,-0.7 -0.5,-0.8 -1.1,-0.8 m 22.9,-2.3 1.8,-2.7 1,2.9 0.5,-0.8 0.6,-0.3 0.4,-0.1 0.9,0.3 0.5,0.3 0.6,0.8 0.2,0.8 -0.3,0.9 -0.5,0.8 -0.8,0.5 -0.4,0.1 -0.7,-0.1 m 1.6,-9.7 -0.6,-0.1 -0.8,0.5 -0.3,0.5 -0.3,1 0.4,1 1.1,1.1 1.2,0.8 1.2,0.4 0.8,-0.1 0.8,-0.6 0.1,-0.2 0.3,-1 -0.1,-0.8 -0.6,-0.7 -0.3,-0.2 -0.9,-0.3 -0.8,0.2 -0.8,0.6 -0.1,0.2 -0.3,0.9 0.2,0.8 0.5,0.8 m -18,-153.5 0.7,-0.1 1.1,-0.5 -2.4,5.9 m 5.2,-4.9 -0.9,-0.1 -0.9,0.6 -0.9,1.3 -0.3,0.8 -0.3,1.5 0.2,1.1 0.7,0.6 0.6,0.2 0.9,0.1 0.9,-0.6 0.9,-1.3 0.3,-0.8 0.3,-1.5 -0.2,-1.1 -0.7,-0.6 -0.4,-0.2 m 6.9,2.9 -5.2,4.7 m 1.3,-6.3 3.9,1.6 m -1.8,-89.2 -0.6,-0.3 -1.2,-0.2 5.1,-3.7 m -7,1.4 0.7,0.6 1.1,-0.1 1.4,-0.6 0.7,-0.6 1.1,-1.1 0.3,-1 -0.2,-0.9 -0.4,-0.5 -0.8,-0.5 h -1 l -1.4,0.7 -0.8,0.5 -1,1.1 -0.4,1 0.3,0.9 0.3,0.4 m -0.8,-3.5 -0.6,-0.3 -1.3,-0.2 5.1,-3.7 m -59.5,57.7 -0.9,0.4 -0.8,-0.1 -0.8,-0.4 -0.3,-0.3 -0.3,-0.8 v -0.9 l 0.4,-0.8 0.3,-0.2 0.8,-0.4 h 0.9 l 0.8,0.5 0.2,0.2 0.4,0.9 v 0.8 l -0.7,1.1 -1.1,1 -1.3,0.8 -1.1,0.2 -0.8,-0.5 -0.4,-0.4 -0.4,-0.9 0.2,-0.6 m 8.3,4.1 -0.8,0.4 -0.9,-0.1 -0.8,-0.4 -0.2,-0.3 -0.4,-0.8 V 419 l 0.5,-0.8 0.2,-0.2 0.9,-0.4 h 0.8 l 0.8,0.5 0.2,0.2 0.4,0.9 v 0.8 l -0.7,1.1 -1.1,1 -1.3,0.8 -1,0.2 -0.9,-0.5 -0.4,-0.4 -0.4,-0.9 0.3,-0.6 m 11.1,-58.3 -0.9,-5.1 -3.2,3.1 m 4.1,2 -4.5,-4.5 m 1.6,5.2 -0.2,0.7 v 1.2 l -4.4,-4.4 m 11.2,-282.8 2.5,1.7 1.7,-2.1 -0.4,0.1 -0.9,-0.3 -0.7,-0.5 -0.6,-0.7 -0.2,-0.9 0.3,-0.9 0.3,-0.5 0.8,-0.5 0.8,-0.2 0.9,0.2 0.8,0.5 0.5,0.8 0.1,0.4 -0.1,0.7 m -68.3,23.8 h 0.7 l 0.6,-0.7 0.3,-0.5 0.1,-1 -0.6,-0.9 -1.2,-0.9 -1.4,-0.6 -1.2,-0.3 -0.8,0.3 -0.6,0.7 -0.1,0.3 -0.2,0.9 0.3,0.8 0.7,0.7 0.3,0.1 0.9,0.1 0.8,-0.3 0.7,-0.7 0.1,-0.2 0.1,-1 -0.3,-0.8 -0.7,-0.6"
       id="nums_007"
       stroke="#000000"
       stroke-width="1" />
    <path
       d="m 3573.1,553.4 -41.1,34.6 -33.1,48.2 -44,-34.3 26.8,-77.7 46.2,-46.5 -60.5,-25.3 -56,-60.2 67.7,-67.9 53.4,73.3 25,-87.2 78.3,-93.2 -105.1,61.5 -80.4,52.2 -49.5,-25.9 111.6,-97.1 -129.7,71.2 36.4,45.7 -91.4,18.1 87.6,55.7 10.5,101.2 -103.9,-8 94.6,43.7 4,95 6.8,58.7 -37.6,26.6 -71.1,11.7 21.2,-87 -50,74.3 -66.9,-51.1 8.4,-157.8 -9.7,-136.4 56.2,-121 83.9,-97.3 52.5,-112 95.8,64.7 80.1,49.2 94,-22.5 28,67.2 -8,58.5 -46.7,82.8 -46.7,90.5 54.6,88.2 -55.4,74.8 z"
       id="coupes_007"
       stroke="#ff0000"
       stroke-width="1.27"
       sodipodi:nodetypes="ccccccccccccccccccccccccccccccccccccccccccccc" />
    <path
       d="m 3339.8,640.5 49.9,75.3 m -49.9,-75.3 80.7,-10 m 0,0 -30.8,85.3 m -49.9,-75.3 76.7,-105 m -76.7,105 -17.9,-148.7 m 17.9,148.7 -116.9,23.2 m 8.4,-157.8 90.6,-14.1 m -100.3,-122.3 100.3,122.3 m -100.3,-122.3 106.1,-26.6 m 0,0 -5.8,148.9 m 93.4,-93.2 -93.4,93.2 m -44.1,-243.3 49.9,94.4 m -49.9,-94.4 104.9,30.6 m -21,-127.9 21,127.9 m -21,-127.9 150.7,56.7 m -2.4,-104 2.4,104 M 3361.7,151.2 3510,103.9 m 80.1,49.2 -77.7,54.8 m 77.7,-54.8 45.7,64.1 m 48.3,-86.6 -48.3,86.6 m 76.3,-19.4 -76.3,19.4 m -105.1,61.5 -18.3,-70.8 m 191.7,48.4 -68.3,-39.1 m 21.6,121.9 -124.9,58.5 m -4.6,80.1 4.6,-80.1 m 78.2,32 -82.8,48.1 m 137.4,40.1 -137.4,-40.1 m 45.2,75.7 -45.2,-75.7 m 137.4,40.1 -92.2,35.6 m 0,0 -91.4,-29.2 m 50.3,63.8 -50.3,-63.8 m -14.3,-71.8 65.1,-54.8 m -65.1,54.8 11.7,-128.1"
       id="plisM_007"
       stroke="#a52a2a"
       stroke-dasharray="4" />
    <path
       d="m 3222.9,663.7 99,-171.9 m 60.8,-212.7 -55,63.8 m 308.1,-125.7 -123.4,-9.3 m -62.1,123 62.1,-123 m 191.7,48.4 -146.6,54.1 m 99.9,28.7 -99.9,-28.7 m 53.2,119.2 -78.2,-32 m -0.5,190.4 -77.1,13.9"
       id="plisV_007"
       stroke="#008000"
       stroke-dasharray="4, 1, 1, 1"
       stroke-width="1.27" />
    <path
       d="m 3270.4,575.7 4,4 m 0,-4 -4,4 m 82.8,-270.7 4,4 m 0,-4 -4,4 m 218.9,-102.4 4,4 m 0,-4 -4,4 m -92.8,52.8 4,4 m 0,-4 -4,4 m 149.5,10 4,4 m 0,-4 -4,4 m -23.4,37.4 4,4 m 0,-4 -4,4 m -35.8,84.8 4,4 m 0,-4 -4,4 m -78.1,177.4 4,4 m 0,-4 -4,4"
       id="marqueV_007"
       stroke="#008000" />
    <path
       d="m 3457.4,377.3 -7.5,15.7 m -3,-15.7 h 10.5"
       id="titre_7"
       stroke="#4b0082" />
  </g>
</svg>
