<?xml version="1.0" encoding="UTF-8" standalone="no"?>
<svg
   height="841.88977pt"
   viewBox="0 0 532.99998 754.00001"
   width="595.27557pt"
   version="1.1"
   id="svg1"
   sodipodi:docname="TeteRenard136_H20_A4x3.svg"
   inkscape:version="1.3 (0e150ed6c4, 2023-07-21)"
   xmlns:inkscape="http://www.inkscape.org/namespaces/inkscape"
   xmlns:sodipodi="http://sodipodi.sourceforge.net/DTD/sodipodi-0.dtd"
   xmlns="http://www.w3.org/2000/svg"
   xmlns:svg="http://www.w3.org/2000/svg">
  <defs
     id="defs1" />
  <sodipodi:namedview
     id="namedview1"
     pagecolor="#ffffff"
     bordercolor="#000000"
     borderopacity="0.25"
     inkscape:showpageshadow="2"
     inkscape:pageopacity="0.0"
     inkscape:pagecheckerboard="0"
     inkscape:deskcolor="#d1d1d1"
     inkscape:document-units="mm"
     showgrid="false"
     inkscape:zoom="0.37546802"
     inkscape:cx="189.09733"
     inkscape:cy="547.31692"
     inkscape:window-width="1920"
     inkscape:window-height="1057"
     inkscape:window-x="-8"
     inkscape:window-y="-8"
     inkscape:window-maximized="1"
     inkscape:current-layer="svg1" />
  <style
     type="text/css"
     id="style1"><![CDATA[
			path {
				fill: none;
			}
		]]></style>
  <g
     id="page_001">
    <path
       d="m 88.2,644 3.2,-0.9 -1.1,2.8 0.9,-0.2 0.6,0.1 0.4,0.2 0.6,0.8 0.1,0.5 v 1 l -0.4,0.7 -0.8,0.6 -0.9,0.2 h -0.9 l -0.4,-0.2 -0.5,-0.5 m 6.8,-7.3 -1.7,4.8 4.3,-1.2 m -2.6,-3.6 1.7,6 M 39.8,617 l -5,-1 1.8,4.1 m 3.2,-3.1 -5.7,2.6 m 34.9,-78.4 0.7,-3.3 2,2.3 0.2,-0.9 0.4,-0.5 0.3,-0.3 1,-0.1 0.6,0.2 0.8,0.4 0.5,0.7 0.1,1 -0.2,0.9 -0.5,0.8 -0.3,0.2 -0.7,0.2 m -47.5,-24.9 0.3,0.1 0.6,0.3 0.3,0.4 0.2,0.6 -0.1,1.2 -0.4,0.6 -0.3,0.2 -0.7,0.3 -0.6,-0.1 -0.5,-0.4 -0.8,-0.7 -2.7,-3.3 -0.5,4.2 m 90.9,-92.8 -0.2,0.9 0.4,1 1.2,1 0.7,0.5 1.5,0.5 1.1,-0.1 0.7,-0.6 0.3,-0.5 0.2,-0.9 -0.5,-1 -1.1,-1 -0.8,-0.5 -1.4,-0.5 -1.1,0.1 -0.7,0.6 -0.3,0.4 m -65,-58.5 0.2,0.6 0.7,1.1 -6.2,-1 m 97.2,-72.8 -0.1,0.7 0.5,0.8 0.4,0.4 0.9,0.3 1.1,-0.3 1.1,-1 1,-1.1 0.5,-1.2 v -0.8 l -0.6,-0.8 -0.2,-0.2 -0.9,-0.3 -0.8,0.1 -0.8,0.5 -0.2,0.2 -0.3,0.9 v 0.8 l 0.5,0.8 0.3,0.2 0.9,0.4 0.8,-0.1 0.8,-0.5 M 74,238.3 68.7,233.7 m 6.4,0.5 -1.1,4.1 m 53.7,-1.3 0.6,0.8 0.1,0.8 -0.4,0.9 -0.2,0.2 -0.8,0.6 -0.8,0.1 -0.9,-0.4 -0.2,-0.2 -0.5,-0.7 -0.1,-0.9 0.3,-0.9 0.2,-0.2 0.8,-0.5 0.8,-0.1 1.1,0.5 1.2,0.9 1,1.2 0.3,1 -0.3,0.9 -0.4,0.5 -0.8,0.5 -0.6,-0.2 m -8.4,-77.3 -0.2,0.6 -0.1,1.3 -4.1,-4.8 m 2,6.9 0.5,-0.8 -0.2,-1.1 -0.7,-1.3 -0.6,-0.7 -1.2,-1 -1,-0.3 -0.9,0.4 -0.5,0.4 -0.5,0.8 0.2,1.1 0.7,1.3 0.6,0.7 1.2,0.9 1,0.3 0.9,-0.3 0.4,-0.3 m 70.4,71.2 0.7,0.1 1.3,-0.1 -4.1,4.8 m 4.1,-3.2 0.7,0.2 1.2,-0.1 -4,4.8 m 44.8,-19.8 v -0.6 l -0.5,-1.2 5.8,2.4 m -4,-3.5 -0.2,-0.1 -0.5,-0.5 -0.1,-0.4 -0.1,-0.6 0.5,-1.1 0.5,-0.5 0.4,-0.1 0.6,-0.1 0.6,0.2 0.4,0.5 0.6,0.9 1.7,4 1.6,-3.9 M 237.5,78 l -0.3,0.6 -0.2,1.2 -3.6,-5.1 m 2.3,6.3 -2.7,1.9 0.1,-3 -0.8,0.5 -0.6,0.1 -0.4,-0.1 -0.8,-0.6 -0.3,-0.5 -0.3,-0.9 0.1,-0.8 0.6,-0.8 0.8,-0.5 0.9,-0.2 h 0.4 l 0.6,0.4 m 80.9,-14.2 -0.3,-0.5 -1.1,-0.8 6.3,-0.9 m -7.1,-3.3 4.6,2.4 -0.7,-4.5 m -3.9,2.1 6.2,-0.9 m -223.1,514.9 -1.8,2.7 -1,-2.8 -0.5,0.7 -0.6,0.4 h -0.4 l -0.9,-0.2 -0.5,-0.4 -0.6,-0.7 -0.2,-0.9 0.3,-0.9 0.5,-0.7 0.8,-0.6 0.4,-0.1 0.7,0.1 m -0.4,6.9 0.2,0.2 0.4,0.6 0.1,0.4 -0.1,0.6 -0.7,1 -0.6,0.3 -0.4,0.1 -0.7,-0.1 -0.5,-0.3 -0.3,-0.6 -0.4,-1 -0.8,-4.2 -2.4,3.5 m 52.7,9.5 -2.3,-2.3 2.9,-0.4 -0.6,-0.7 -0.2,-0.6 v -0.4 l 0.4,-0.9 0.5,-0.4 0.8,-0.4 h 0.9 l 0.8,0.4 0.6,0.7 0.5,0.8 v 0.4 l -0.3,0.7 m -7.8,-0.7 -2.3,-2.3 3,-0.4 -0.6,-0.7 -0.2,-0.6 v -0.4 l 0.4,-0.9 0.4,-0.4 0.9,-0.4 h 0.8 l 0.9,0.4 0.6,0.7 0.4,0.8 v 0.4 l -0.2,0.7 m 223.8,-392.5 -1.5,2.6 2.2,1.6 -0.1,-0.4 0.2,-0.9 0.4,-0.8 0.7,-0.6 0.9,-0.3 0.9,0.2 0.5,0.3 0.6,0.7 0.3,0.9 -0.2,0.9 -0.5,0.8 -0.7,0.6 -0.4,0.1 h -0.7 m -1,-8.5 -0.2,0.9 0.4,0.6 0.5,0.3 h 0.7 l 0.6,-0.4 0.8,-0.8 0.7,-0.7 0.8,-0.2 h 0.7 l 0.8,0.5 0.4,0.5 0.1,0.5 -0.2,0.9 -0.6,1 -0.7,0.7 -0.4,0.1 -0.7,-0.1 -0.8,-0.4 -0.4,-0.6 -0.2,-0.8 0.2,-0.9 0.4,-1.2 v -0.7 l -0.4,-0.5 -0.5,-0.3 -0.7,-0.1 -0.7,0.6 -0.7,1.2 m -33.4,-129.8 0.3,0.6 1,0.8 -6.3,0.5 m 6.9,3.8 -4.4,-2.7 0.3,4.5 m 4.1,-1.8 -6.3,0.5 m 50.5,3.3 -0.6,-0.1 -1.3,0.3 3.6,-5.2 m -8,2.4 6,-3.5 m -2.5,5.9 -3.5,-2.4 m 102.2,61.8 4.5,-2.4 -4,-2 m -0.5,4.4 2.8,-5.6 m -6.5,3.7 0.9,0.1 0.6,-0.4 0.2,-0.5 v -0.7 l -0.4,-0.5 -0.9,-0.8 -0.7,-0.7 -0.2,-0.8 v -0.6 l 0.4,-0.9 0.5,-0.4 0.4,-0.1 0.9,0.1 1.1,0.6 0.7,0.6 0.1,0.4 v 0.7 l -0.4,0.8 -0.5,0.4 -0.8,0.3 -1,-0.1 -1.2,-0.3 H 467 l -0.6,0.4 -0.2,0.5 v 0.7 l 0.6,0.7 1.2,0.6 m 4.3,40.2 -2.2,2 1.7,2.2 v -0.4 l 0.4,-0.9 0.7,-0.6 0.8,-0.4 h 0.9 l 0.8,0.5 0.4,0.4 0.4,0.9 v 0.8 l -0.4,0.9 -0.7,0.6 -0.9,0.4 h -0.4 l -0.6,-0.3 m 3,-9.8 -2.2,2.1 1.7,2.1 v -0.4 l 0.4,-0.8 0.7,-0.6 0.8,-0.4 h 0.9 l 0.8,0.4 0.4,0.5 0.4,0.8 v 0.9 l -0.5,0.8 -0.6,0.6 -0.9,0.4 h -0.4 l -0.6,-0.2 m -225,188.4 -0.4,0.5 v 1 l 0.2,0.5 0.6,0.8 1,0.2 1.5,-0.2 1.4,-0.5 1.1,-0.7 0.3,-0.8 v -0.9 l -0.1,-0.3 -0.6,-0.7 -0.8,-0.4 h -0.9 l -0.3,0.1 -0.7,0.6 -0.4,0.8 v 0.9 l 0.1,0.3 0.6,0.8 0.8,0.3 h 0.9 m -6.2,-5 0.5,0.7 1.1,0.3 1.5,-0.2 0.9,-0.3 1.3,-0.8 0.6,-0.9 v -1 l -0.2,-0.5 -0.6,-0.8 -1.1,-0.2 -1.5,0.2 -0.8,0.3 -1.3,0.8 -0.7,0.9 0.1,0.9 0.1,0.5 m -4.6,32.9 -2,2.3 1.8,2 v -0.4 l 0.3,-0.9 0.6,-0.7 0.9,-0.5 h 0.8 l 0.9,0.4 0.4,0.4 0.5,0.8 0.1,0.8 -0.4,0.9 -0.6,0.7 -0.8,0.4 -0.5,0.1 -0.6,-0.2 m 3.9,-8.9 0.5,0.8 v 0.9 l -0.4,0.8 -0.2,0.3 -0.8,0.4 -0.8,0.1 -0.9,-0.4 -0.2,-0.2 -0.5,-0.8 v -0.9 l 0.3,-0.8 0.2,-0.3 0.9,-0.4 0.8,-0.1 1.1,0.6 1.1,1 0.9,1.2 0.3,1.1 -0.4,0.8 -0.4,0.5 -0.8,0.5 -0.6,-0.2 m -57,0.1 -2.9,-0.6 -0.8,2.6 0.3,-0.2 0.9,-0.1 0.9,0.2 0.8,0.4 0.5,0.7 0.1,1 -0.1,0.6 -0.5,0.8 -0.7,0.5 -0.9,0.1 -0.9,-0.2 -0.8,-0.5 -0.3,-0.4 -0.1,-0.6 m 9.3,-3.3 -3.8,3.5 4.4,0.9 m -0.6,-4.4 -1.3,6.2 m 6.4,-84.2 0.4,-0.9 -0.2,-0.6 -0.4,-0.4 -0.6,-0.3 -0.6,0.2 -1.1,0.6 -0.9,0.4 h -0.8 l -0.7,-0.2 -0.6,-0.7 -0.2,-0.6 v -0.5 l 0.5,-0.8 0.9,-0.8 0.8,-0.4 h 0.5 l 0.6,0.2 0.6,0.7 0.2,0.6 v 0.9 l -0.5,0.8 -0.7,1.1 -0.2,0.6 0.2,0.6 0.4,0.5 0.6,0.2 0.9,-0.4 1,-0.9 m 25.1,2.5 -0.3,0.6 0.3,0.9 0.4,0.5 0.8,0.5 h 1 l 1.4,-0.7 1.2,-0.9 0.8,-1 0.1,-0.8 -0.3,-0.9 -0.2,-0.3 -0.8,-0.5 -0.8,-0.1 -0.9,0.3 -0.2,0.2 -0.6,0.8 -0.1,0.8 0.3,0.9 0.2,0.2 0.8,0.6 0.8,0.1 0.9,-0.3 m -5.2,-2.3 -0.6,-0.3 -1.3,-0.2 5,-3.8 m 44,-79.3 0.5,-0.4 0.2,-1 -0.1,-0.6 -0.4,-0.8 -1,-0.5 h -1.5 l -1.5,0.2 -1.2,0.5 -0.5,0.7 -0.1,0.9 v 0.3 l 0.5,0.8 0.6,0.5 1,0.2 h 0.3 l 0.8,-0.5 0.5,-0.7 0.2,-0.9 -0.1,-0.3 -0.4,-0.8 -0.7,-0.5 -0.9,-0.2 m 5.5,8.4 -6.7,-2.1 m 6.1,-2.1 0.6,4.2 m 26.3,21.1 0.6,6.9 m -4.2,-4.7 3.6,-2.2 m 2.5,-1.5 -0.6,0.7 -0.1,1.1 0.5,1.4 0.5,0.8 1,1.1 1,0.5 0.9,-0.2 0.6,-0.3 0.6,-0.8 v -1 l -0.5,-1.5 -0.5,-0.8 -1,-1.1 -1,-0.4 -0.9,0.2 -0.4,0.2 m -65.4,454.6 2,-2.7 0.9,2.9 0.5,-0.7 0.6,-0.3 0.4,-0.1 0.9,0.3 0.5,0.4 0.5,0.7 0.2,0.9 -0.3,0.9 -0.6,0.7 -0.8,0.5 -0.4,0.1 -0.6,-0.1 m 0.2,-6.4 0.1,-0.7 -0.2,-1.3 5,3.8 m -145.2,-39.8 -3,1.2 0.7,-2.9 -0.8,0.4 -0.7,-0.1 -0.4,-0.1 -0.6,-0.7 -0.3,-0.6 v -0.9 l 0.3,-0.8 0.7,-0.6 0.8,-0.4 1,-0.1 0.4,0.2 0.5,0.4 m -5.8,8.1 1.1,-5.1 -4.2,1.8 m 3.1,3.3 -2.5,-5.8 m 92.4,60.2 3.3,-0.6 -1.4,2.7 0.9,-0.1 0.7,0.1 0.3,0.3 0.5,0.8 0.1,0.6 -0.2,0.9 -0.4,0.7 -0.9,0.5 -0.9,0.2 -0.9,-0.2 -0.3,-0.2 -0.4,-0.5 m 7.8,-6.7 -2.9,0.6 0.2,2.7 0.2,-0.4 0.8,-0.4 0.9,-0.2 0.9,0.1 0.7,0.5 0.5,0.8 0.1,0.6 -0.1,1 -0.5,0.7 -0.8,0.4 -0.9,0.2 -1,-0.1 -0.3,-0.3 -0.4,-0.5 m -91.3,-28.4 2.7,1.8 -2.8,1 0.7,0.5 0.4,0.6 0.1,0.4 -0.3,0.9 -0.3,0.5 -0.8,0.6 -0.8,0.2 -0.9,-0.3 -0.8,-0.5 -0.5,-0.7 -0.1,-0.4 0.1,-0.7 m 9.7,1.5 0.1,-0.7 -0.6,-0.8 -0.5,-0.3 -0.9,-0.2 -1,0.4 -1.1,1.1 -0.8,1.2 -0.4,1.2 0.2,0.8 0.5,0.8 0.3,0.1 0.9,0.3 0.8,-0.2 0.8,-0.6 0.2,-0.2 0.2,-0.9 -0.2,-0.9 -0.6,-0.7 -0.2,-0.2 -0.9,-0.2 -0.8,0.1 -0.8,0.6 m 53.5,-142 1.5,2.9 -3,-0.4 0.5,0.8 v 0.6 l -0.2,0.4 -0.6,0.7 -0.5,0.3 -1,0.1 -0.8,-0.2 -0.7,-0.7 -0.4,-0.8 -0.2,-0.9 0.2,-0.4 0.4,-0.5 m 7.2,2.8 1.6,3 -3,-0.5 0.4,0.8 v 0.6 l -0.1,0.4 -0.6,0.7 -0.6,0.3 -0.9,0.2 -0.8,-0.3 -0.7,-0.6 -0.4,-0.8 -0.2,-1 0.2,-0.4 0.3,-0.5 M 167,532.7 h -3.3 l 1.8,-2.4 h -0.9 l -0.6,-0.3 -0.3,-0.3 -0.2,-0.9 v -0.6 l 0.3,-0.9 0.6,-0.6 0.9,-0.3 h 0.9 l 0.9,0.3 0.3,0.3 0.3,0.6 m -7,5 0.9,-0.3 0.3,-0.6 0.1,-0.6 -0.3,-0.6 -0.6,-0.3 -1.2,-0.3 -0.9,-0.3 -0.6,-0.6 -0.3,-0.6 v -0.9 l 0.3,-0.6 0.3,-0.3 0.9,-0.3 h 1.2 l 0.9,0.3 0.3,0.3 0.3,0.6 v 0.9 l -0.3,0.6 -0.6,0.6 -0.9,0.3 -1.2,0.3 -0.6,0.3 -0.3,0.6 -0.1,0.6 0.3,0.6 0.9,0.3 h 1.4 m 114.2,43.7 -3.3,0.5 1.4,-2.6 -0.9,0.1 -0.7,-0.2 -0.3,-0.2 -0.5,-0.8 -0.1,-0.6 0.1,-1 0.5,-0.7 0.8,-0.4 0.9,-0.2 1,0.2 0.3,0.2 0.4,0.5 m -8.5,4.7 0.1,-1 0.5,-0.7 0.8,-0.4 0.3,-0.1 1,0.1 0.7,0.5 0.4,0.8 0.1,0.3 -0.2,1 -0.4,0.7 -0.9,0.4 -0.3,0.1 -0.9,-0.1 -0.7,-0.5 -0.5,-1.1 -0.3,-1.5 v -1.5 l 0.5,-1 0.8,-0.5 0.6,-0.1 0.9,0.1 0.4,0.6 m 18.7,123.5 1.9,-2.6 0.9,2.9 0.5,-0.8 0.6,-0.3 h 0.4 l 0.9,0.3 0.5,0.3 0.6,0.8 0.1,0.9 -0.3,0.9 -0.6,0.7 -0.7,0.5 -0.5,0.1 -0.6,-0.1 m 0.2,-8.8 -0.3,0.9 0.3,1 1.1,1.1 0.7,0.6 1.4,0.6 1,0.1 0.8,-0.6 0.4,-0.4 0.3,-0.9 -0.4,-1.1 -1,-1.1 -0.7,-0.5 -1.4,-0.7 h -1.1 l -0.8,0.5 -0.2,0.4 m -16.8,5.7 1.8,2.7 -2.9,-0.1 0.5,0.7 v 0.7 0.4 l -0.6,0.7 -0.5,0.4 -0.9,0.2 -0.9,-0.1 -0.7,-0.6 -0.5,-0.8 -0.3,-0.9 0.1,-0.4 0.3,-0.6 m 6,2.3 0.6,0.4 1.3,0.2 -5.2,3.5 m 46.4,-96.3 -1.4,-2.9 2.9,0.6 -0.4,-0.9 v -0.6 l 0.2,-0.4 0.7,-0.7 0.5,-0.2 0.9,-0.1 0.8,0.2 0.7,0.7 0.4,0.8 0.1,1 -0.2,0.4 -0.4,0.5 m -8.6,-6.3 h 7 m -5.2,3.8 -1.8,-3.8 m -54.1,-41.5 3.1,-0.9 -1,2.8 0.8,-0.2 0.7,0.1 0.3,0.2 0.6,0.8 0.1,0.6 v 0.9 l -0.4,0.7 -0.8,0.6 -0.9,0.2 h -0.9 l -0.4,-0.2 -0.4,-0.5 m 8.1,-5.4 -0.1,0.9 -0.4,0.8 -0.8,0.5 -0.3,0.1 -0.9,-0.1 -0.8,-0.4 -0.5,-0.8 -0.1,-0.3 0.1,-0.9 0.4,-0.7 0.8,-0.6 0.2,-0.1 1,0.1 0.7,0.4 0.7,1.1 0.4,1.4 0.1,1.5 -0.4,1.1 -0.7,0.5 -0.6,0.2 -1,-0.1 -0.4,-0.5 m -26.7,-42.3 1.7,-4.9 -4.3,1.3 m 2.6,3.6 -1.8,-6.1 m -1,5.4 -0.5,0.4 -0.6,1.2 -1.8,-6.1 m 86.3,2.7 1.6,4.9 2.7,-3.7 m -4.3,-1.2 5.1,3.7 m -2,-5.4 -0.3,-0.2 -0.3,-0.6 v -0.4 l 0.1,-0.6 0.7,-1 0.6,-0.3 0.4,-0.1 0.6,0.1 0.5,0.4 0.3,0.6 0.4,1 0.7,4.2 2.5,-3.4 m -18.4,-49.4 0.2,0.2 0.3,0.6 0.1,0.5 -0.2,0.6 -0.7,1 -0.6,0.2 -0.4,0.1 -0.7,-0.1 -0.5,-0.4 -0.3,-0.6 -0.3,-1.1 -0.5,-4.2 -2.6,3.3 m 3.2,3.9 -0.2,0.6 0.2,1.3 -4.9,-3.9 m 74.7,-43 v 0.3 l -0.1,0.7 -0.2,0.4 -0.5,0.4 -1.2,0.3 -0.6,-0.1 -0.4,-0.2 -0.4,-0.5 -0.2,-0.6 0.1,-0.7 0.4,-1 2.1,-3.7 -4,1.1 m -2.5,7.3 1.8,-4.9 -4.4,1.2 m 2.6,3.7 -1.7,-6.1 m 123.5,134.7 0.8,2.9 2.7,-0.4 -0.4,-0.2 -0.5,-0.8 -0.3,-0.9 0.1,-0.9 0.4,-0.8 0.8,-0.5 0.6,-0.1 h 0.9 l 0.8,0.4 0.5,0.8 0.2,0.9 v 0.9 l -0.2,0.4 -0.5,0.4 m -7.7,9.6 -5.1,0.5 2.9,3.4 m 2.2,-3.9 -4.7,4.2 m -15,-111.2 -0.4,-0.6 -1.1,-0.7 6.2,-1.2 m -5.3,-4.1 0.9,0.1 0.7,0.5 0.5,0.8 0.1,0.3 -0.1,1 -0.5,0.7 -0.8,0.4 -0.3,0.1 -1,-0.1 -0.7,-0.5 -0.5,-0.8 V 458 l 0.1,-1 0.5,-0.7 1.1,-0.5 1.5,-0.3 h 1.5 l 1,0.4 0.5,0.9 0.1,0.5 -0.1,1 -0.6,0.4 m -137.5,215.9 3.1,1.1 -2.5,1.6 0.8,0.4 0.5,0.4 0.2,0.4 v 1 l -0.3,0.5 -0.5,0.8 -0.8,0.3 h -1 l -0.8,-0.3 -0.7,-0.6 -0.2,-0.4 -0.1,-0.6 m 8.4,-2.4 h -0.9 l -0.9,0.6 -0.8,1.3 -0.3,0.9 -0.2,1.5 0.3,1 0.7,0.6 0.6,0.2 0.9,0.1 0.9,-0.7 0.8,-1.3 0.3,-0.8 0.2,-1.6 -0.2,-1 -0.8,-0.6 -0.4,-0.1 m 49.7,-16.3 2.6,-2.1 0.1,3 0.7,-0.5 0.6,-0.1 h 0.4 l 0.8,0.5 0.4,0.5 0.3,0.9 -0.1,0.8 -0.5,0.8 -0.7,0.6 -0.9,0.3 -0.4,-0.1 -0.6,-0.2 m 3.9,-9.6 -2.4,1.9 1.4,2.3 0.1,-0.4 0.5,-0.8 0.7,-0.6 0.9,-0.3 0.8,0.1 0.8,0.5 0.4,0.5 0.3,0.9 -0.1,0.9 -0.5,0.7 -0.7,0.6 -0.9,0.3 h -0.4 l -0.6,-0.3 m 39.6,-62.3 3.3,3.9 1.1,-4.3 m -4.4,0.4 6.1,1.5 m -5,-5.8 0.1,0.9 0.7,0.8 1.4,0.7 0.9,0.2 1.5,0.1 1,-0.4 0.6,-0.8 0.1,-0.5 -0.1,-1 -0.7,-0.8 -1.4,-0.7 -0.8,-0.2 -1.6,-0.1 -1,0.4 -0.5,0.8 -0.1,0.4 m -23.5,-25.4 3.1,-4 -4.5,-0.2 m 1.4,4.2 0.2,-6.3 m -3.3,4.7 -0.1,0.3 -0.3,0.5 -0.3,0.3 -0.6,0.3 h -1.2 l -0.6,-0.4 -0.3,-0.3 -0.3,-0.6 0.1,-0.6 0.3,-0.6 0.6,-0.8 3.1,-2.9 -4.2,-0.2 m -43.6,35 -1.2,3.1 -1.6,-2.5 -0.3,0.8 -0.5,0.5 -0.4,0.1 h -1 l -0.5,-0.2 -0.8,-0.6 -0.3,-0.8 v -0.9 l 0.3,-0.9 0.6,-0.7 0.4,-0.2 h 0.7 m 1.4,10.6 -4.8,-5.1 m 6.3,1.1 -1.5,4 m -5.8,-84.4 -3.8,-3.5 -0.6,4.4 m 4.4,-0.9 -6.3,-0.8 m 5.7,5.2 -0.2,-0.9 -0.9,-0.8 -1.4,-0.4 -0.9,-0.2 -1.5,0.2 -1,0.4 -0.4,0.9 -0.1,0.6 0.2,0.9 0.8,0.7 1.5,0.5 0.9,0.1 1.5,-0.1 1,-0.5 0.4,-0.8 v -0.5 m 35.8,16.2 3.2,-0.6 -1.3,2.7 0.9,-0.2 0.6,0.2 0.4,0.3 0.5,0.8 0.1,0.6 -0.2,0.9 -0.4,0.7 -0.9,0.5 -0.8,0.1 -1,-0.1 -0.3,-0.2 -0.4,-0.5 m 7.9,-5.9 -0.4,-0.5 -0.9,-0.1 -0.6,0.1 -0.8,0.5 -0.4,1 v 1.5 l 0.2,1.5 0.6,1.1 0.7,0.4 0.9,0.2 0.3,-0.1 0.8,-0.5 0.5,-0.7 0.1,-0.9 V 545 l -0.5,-0.8 -0.7,-0.5 -0.9,-0.1 h -0.3 l -0.9,0.5 -0.4,0.7 -0.2,1 m 16.8,-366.6 -0.7,-2.9 -2.7,0.4 0.4,0.2 0.5,0.8 0.2,0.9 -0.1,0.9 -0.4,0.8 -0.8,0.5 -0.6,0.1 -1,-0.1 -0.7,-0.4 -0.5,-0.8 -0.2,-0.9 0.1,-0.9 0.2,-0.4 0.5,-0.4 m 7.2,7.9 -6.8,-1.4 m 5.8,-2.7 1,4.1 m 7.4,22.5 -1.9,2.3 1.9,2 v -0.5 l 0.3,-0.8 0.6,-0.7 0.8,-0.5 0.8,-0.1 0.9,0.4 0.5,0.3 0.5,0.8 0.1,0.9 -0.4,0.9 -0.6,0.7 -0.8,0.5 h -0.4 l -0.7,-0.2 m 2.6,-9.5 -0.7,-0.2 -0.8,0.5 -0.4,0.5 -0.3,0.9 0.3,1 0.9,1.2 1.2,1 1.1,0.5 0.8,-0.1 0.9,-0.5 0.1,-0.2 0.4,-0.9 -0.1,-0.8 -0.5,-0.8 -0.2,-0.2 -0.9,-0.4 -0.8,0.1 -0.8,0.5 -0.2,0.2 -0.4,0.9 0.1,0.9 0.5,0.8 m 27.6,161.9 h -0.3 l -0.7,-0.2 -0.3,-0.3 -0.4,-0.5 -0.1,-1.2 0.2,-0.7 0.2,-0.3 0.6,-0.4 h 0.6 l 0.6,0.2 1,0.4 3.4,2.6 -0.6,-4.1 m -6.6,-2.1 0.4,0.8 0.9,0.5 1.6,0.1 0.9,-0.1 1.4,-0.5 0.8,-0.7 0.2,-1 -0.1,-0.6 -0.4,-0.8 -1,-0.5 -1.5,-0.1 -0.9,0.1 -1.4,0.5 -0.8,0.7 -0.2,1 v 0.4 m -93.1,-9.2 0.2,0.2 0.2,0.7 v 0.4 l -0.3,0.6 -0.9,0.9 -0.6,0.1 h -0.4 l -0.7,-0.2 -0.4,-0.4 -0.2,-0.7 -0.1,-1.1 0.1,-4.2 -3,2.9 m 2.3,6.4 0.5,-0.9 -0.2,-0.6 -0.4,-0.4 -0.7,-0.3 -0.6,0.2 -1.1,0.6 -0.9,0.4 h -0.8 l -0.6,-0.3 -0.6,-0.6 -0.2,-0.7 v -0.4 l 0.4,-0.8 0.9,-0.8 0.9,-0.4 h 0.4 l 0.6,0.2 0.6,0.7 0.2,0.6 v 0.9 l -0.5,0.8 -0.6,1 -0.3,0.7 0.2,0.6 0.4,0.5 0.7,0.2 0.8,-0.4 1,-0.9 m -19.7,32.1 h 0.3 l 0.6,0.4 0.3,0.3 0.3,0.6 -0.1,1.2 -0.3,0.6 -0.3,0.3 -0.6,0.2 h -0.6 l -0.6,-0.3 -0.9,-0.7 -2.9,-3.1 -0.1,4.2 m 6.1,5 0.1,-3 -2.7,-0.4 0.3,0.3 0.2,0.9 v 0.9 l -0.3,0.9 -0.7,0.6 -0.9,0.2 h -0.6 l -0.9,-0.3 -0.5,-0.6 -0.3,-1 v -0.8 l 0.4,-0.9 0.3,-0.3 0.6,-0.3 m 31.8,12 v -0.3 l 0.2,-0.6 0.3,-0.3 0.5,-0.4 1.2,-0.2 0.6,0.2 0.4,0.3 0.4,0.5 v 0.6 l -0.2,0.7 -0.4,0.9 -2.6,3.4 4.2,-0.5 m 3.3,-7 -2.4,4.6 4.5,-0.6 m -2.1,-4 0.9,6.3 m 27.6,-116.3 0.3,0.1 0.4,0.6 0.1,0.4 v 0.6 l -0.6,1.1 -0.5,0.4 -0.5,0.1 h -0.6 l -0.6,-0.3 -0.3,-0.6 -0.5,-0.9 -1.2,-4.1 -2,3.7 m 1.2,6.4 -0.6,-0.7 -0.3,-0.8 0.2,-0.9 0.1,-0.3 0.7,-0.6 0.9,-0.3 0.9,0.2 0.2,0.1 0.7,0.7 0.2,0.9 -0.1,0.9 -0.2,0.2 -0.7,0.7 -0.8,0.2 -1.2,-0.3 -1.3,-0.7 -1.2,-1 -0.5,-1 0.2,-0.9 0.3,-0.5 0.7,-0.7 0.7,0.1 m 42.6,-66.4 -0.1,0.7 0.3,1.2 -5.4,-3.2 m 3.2,7.4 1.5,-2.6 -2.1,-1.6 0.1,0.4 -0.2,0.9 -0.5,0.8 -0.7,0.6 -0.8,0.2 -1,-0.2 -0.5,-0.3 -0.6,-0.7 -0.2,-0.9 0.2,-0.9 0.5,-0.8 0.7,-0.6 0.4,-0.1 0.7,0.1 m 11.4,32 -0.3,-0.5 -1,-0.9 6.3,-0.4 m -5.9,-4.4 -0.6,0.4 -0.3,0.9 0.1,0.6 0.4,0.9 0.9,0.5 1.5,0.2 1.5,-0.1 1.2,-0.4 0.5,-0.6 0.3,-1 -0.1,-0.3 -0.3,-0.8 -0.7,-0.6 -0.9,-0.2 h -0.3 l -0.9,0.4 -0.5,0.6 -0.2,0.9 v 0.3 l 0.3,0.9 0.7,0.6 0.9,0.2"
       id="nums_001"
       stroke="#000000"
       stroke-width="1" />
    <path
       d="M 51.1,663.2 13,576.9 26,461.7 54.3,278.4 78.6,190.7 146.1,133 314.8,16.2 326.1,98.5 320,15.6 l 112.9,77 80.3,39.9 -68.1,63.8 -25.6,30.4 -22,-87.8 -56.1,97.5 -65.1,39.3 -15.3,-100.3 -41.6,100.1 -68.5,-57.8 -38.6,48.6 64.7,53.2 40.8,-38.3 32.5,42.9 16.4,45 -28,31.4 -89.3,-18.7 -59.8,100.6 -24.2,117.1 40.5,-59 68.3,69.5 -45.4,-86.2 67.4,1.2 80.5,-24 55.3,-69.8 81.7,-21.9 -83.7,11.9 2,-48.5 42.2,-39.2 39.7,-72 34.4,-57.5 8.3,114.2 12.6,93.4 18.2,91.5 29.3,106.9 -62.4,-70.8 -108.7,21.1 9.2,-74.1 -49.7,68.9 -73.8,20.8 75.4,-13.9 36.5,77.1 30.4,-79.6 84.9,3.3 -18.5,72.4 -74.4,58.1 -52,-18.8 -33,44.3 -19.7,-29.2 -21.2,28.2 -92.8,17.2 -92.2,-61.4 84.5,-35.55 z"
       id="coupes_001"
       stroke="#ff0000"
       stroke-width="1.27"
       sodipodi:nodetypes="ccccccccccccccccccccccccccccccccccccccccccccccccccccccccccccccc" />
    <path
       d="m 65.4,599.5 73.8,38.6 M 13,576.9 65.4,599.5 M 13,576.9 89.6,482.4 M 26,461.7 89.6,482.4 m -35.3,-204 95.1,103.4 M 54.3,278.4 177,319.5 m -122.7,-41.1 58,-12.1 m -33.7,-75.6 33.7,75.6 m -33.7,-75.6 72.3,27 M 146.1,133 219.4,275.5 M 146.1,133 261,175.4 M 326.1,98.5 261,175.4 M 65.4,599.5 174.2,610 m 0,0 -35,28 M 326.1,98.5 341.4,236.4 m -15.3,-137.9 71.4,40.4 m 35.4,-46.3 -35.4,46.3 m 35.4,-46.3 12.2,103.7 m 0,0 -47.6,-57.4 M 177,319.5 l 73.3,4.6 m 0,0 -100.9,57.7 M 266.7,369.1 149.4,381.8 M 260.9,689.6 139.2,638 m 35,-28 86.7,79.6 M 239.7,717.8 139.2,638 m 100.5,79.8 -185,-44.2 M 196.2,525 l 35.1,50.9 m 75.4,-13.9 6.9,112.5 m 0,0 -52.7,15.1 m 82.3,-50.5 -29.6,35.4 M 196.2,525 305.1,555.1 m -28.4,-54.1 28.4,54.1 m 26.9,-123.9 22.8,55 m 58.9,-76.9 -58.9,76.9 m 58.9,-76.9 73.7,93.8 m 0,0 -132.6,-16.9 m 132.6,16.9 -33.1,36.1 m -40.6,-129.9 55.5,2.3 m -126,227.5 22.4,54.2 m -22.4,-54.2 96.8,-3.9 m -96.8,3.9 115.3,-76.3 m -44.8,-153.5 42.9,-91.1 m -82.4,15.3 82.4,-15.3 m -42.9,91.1 -39.5,-75.8 m 39.5,75.8 -81.7,-36.6 m 81.9,-111.2 42.7,56.7"
       id="plisM_001"
       stroke="#a52a2a"
       stroke-dasharray="4" />
    <path
       d="M 51.1,663.2 65.4,599.5 M 26,461.7 149.4,381.8 m 27.6,-62.3 -27.6,62.3 m -3.3,-248.8 4.8,84.7 M 314.8,16.2 261,175.4 m 80.4,61 -80.4,-61 M 320,15.6 397.5,138.9 M 174.2,610 231.3,575.9 m 0,0 29.6,113.7 M 128.8,523.8 231.3,575.9 M 306.7,562 260.9,689.6 M 276.7,501 354.8,486.2 m 99.5,53 -99.5,-53"
       id="plisV_001"
       stroke="#008000"
       stroke-dasharray="4, 1, 1, 1"
       stroke-width="1.27" />
    <path
       d="m 56.2,629.4 4,4 m 0,-4 -4,4 m 29.5,-213.6 4,4 m 0,-4 -4,4 m 75.5,-75.1 4,4 m 0,-4 -4,4 m -14.7,-179.4 4,4 m 0,-4 -4,4 m 139.4,-83.5 4,4 m 0,-4 -4,4 m 13.3,106.1 4,4 m 0,-4 -4,4 m 57.5,-132.7 4,4 m 0,-4 -4,4 m -156,511.8 4,4 m 0,-4 -4,4 m 43.4,35.8 4,4 m 0,-4 -4,4 m -66,-86.9 4,4 m 0,-4 -4,4 m 103.7,71.9 4,4 m 0,-4 -4,4 m 32,-136.2 4,4 m 0,-4 -4,4 m 88.8,15.1 4,4 m 0,-4 -4,4"
       id="marqueV_001"
       stroke="#008000" />
    <path
       d="m 217.11811,354.32648 1.5,-0.8 2.2,-2.2 v 15.7"
       id="titre_1"
       stroke="#4b0082" />
  </g>
  <g
     id="page_002">
    <path
       d="m 952.9,606.3 -2.1,4.7 4.4,-0.9 m -2.3,-3.8 1.2,6.2 m 2,-6.8 3.2,-0.7 -1.3,2.8 0.9,-0.2 0.6,0.2 0.4,0.2 0.5,0.8 0.1,0.6 -0.1,0.9 -0.5,0.7 -0.8,0.5 -0.9,0.2 -0.9,-0.1 -0.4,-0.2 -0.4,-0.6 m -128.4,-25.9 0.3,0.1 0.5,0.5 0.1,0.4 0.1,0.7 -0.5,1.1 -0.5,0.5 -0.3,0.1 -0.7,0.1 -0.6,-0.2 -0.4,-0.5 -0.6,-0.9 -1.7,-3.9 -1.6,3.9 m 4.9,4.8 0.1,-1 -0.5,-0.5 -0.5,-0.2 -0.7,0.1 -0.5,0.4 -0.7,1 -0.6,0.7 -0.8,0.4 h -0.7 l -0.8,-0.3 -0.5,-0.5 -0.1,-0.4 v -0.9 l 0.5,-1.1 0.6,-0.8 0.4,-0.1 0.6,-0.1 0.9,0.3 0.4,0.5 0.3,0.8 v 1 l -0.2,1.2 0.1,0.7 0.4,0.5 0.6,0.2 0.7,-0.1 0.6,-0.7 0.5,-1.3 m 58.7,-69.7 4.8,-1.9 -3.8,-2.4 m -1,4.3 3.4,-5.3 m -8.3,2.2 4.8,-1.9 -3.8,-2.5 m -1,4.4 3.4,-5.3 m -76.9,28 0.1,-0.3 0.6,-0.4 0.4,-0.2 h 0.6 l 1.1,0.6 0.4,0.5 0.2,0.4 v 0.7 l -0.3,0.5 -0.5,0.4 -1,0.6 -4,1.3 3.8,1.9 m 7,-3.6 -2.7,-1.3 -1.4,2.3 0.4,-0.1 0.9,0.1 0.8,0.4 0.7,0.7 0.3,0.8 -0.2,0.9 -0.2,0.5 -0.7,0.7 -0.8,0.3 -1,-0.1 -0.8,-0.4 -0.6,-0.7 -0.2,-0.4 v -0.7 m -39.2,-55.2 0.2,-0.2 h 0.7 l 0.4,0.2 0.5,0.4 0.6,1.1 v 0.6 l -0.2,0.4 -0.4,0.6 -0.5,0.2 h -0.7 l -1.1,-0.1 -4,-1.4 1.9,3.8 m 4.8,-1.2 0.6,0.4 1.2,0.4 -5.6,2.8 m 89.5,-105.1 h -0.3 l -0.6,-0.3 -0.3,-0.3 -0.3,-0.6 V 392 l 0.3,-0.6 0.3,-0.3 0.6,-0.3 h 0.6 l 0.6,0.3 0.9,0.6 3,3 v -4.2 m -6.3,-5.2 6.3,3 m -6.3,1.2 v -4.2 m -18.7,-27.2 v 0.3 l -0.4,0.6 -0.3,0.3 -0.6,0.2 h -1.2 l -0.6,-0.4 -0.2,-0.3 -0.3,-0.6 v -0.6 l 0.4,-0.6 0.7,-0.9 3.2,-2.7 -4.2,-0.3 m -2,4.6 -0.1,0.3 -0.3,0.6 -0.3,0.3 -0.6,0.2 -1.2,-0.1 -0.6,-0.3 -0.3,-0.4 -0.2,-0.6 v -0.6 l 0.3,-0.5 0.7,-0.9 3.2,-2.8 -4.1,-0.3 m -27.4,297.4 0.3,0.1 0.4,0.5 0.2,0.4 0.1,0.7 -0.5,1.1 -0.5,0.4 -0.4,0.2 h -0.6 l -0.6,-0.2 -0.4,-0.5 -0.7,-0.9 -1.7,-3.8 -1.5,3.9 m 2.1,6.2 -0.8,-0.6 -0.3,-0.8 v -0.9 l 0.2,-0.3 0.6,-0.7 0.7,-0.4 1,0.1 0.3,0.1 0.7,0.6 0.3,0.8 v 0.9 l -0.1,0.3 -0.6,0.7 -0.8,0.4 -1.2,-0.2 -1.4,-0.5 -1.3,-0.9 -0.6,-0.9 v -0.9 l 0.2,-0.6 0.6,-0.7 0.7,-0.1 m -86.6,-220.4 -4.5,2.6 4.1,1.9 m 0.4,-4.5 -2.6,5.8 m 4.3,-3.4 h 0.7 l 1.2,-0.4 -2.6,5.7 m -17.6,-111 1.4,-2.6 -2.2,-1.6 0.1,0.4 -0.1,1 -0.5,0.7 -0.7,0.7 -0.8,0.2 -0.9,-0.1 -0.6,-0.3 -0.6,-0.7 -0.2,-0.8 0.1,-1 0.5,-0.8 0.7,-0.6 0.4,-0.1 h 0.7 m 0.3,6.9 0.2,0.1 0.4,0.6 0.1,0.4 v 0.6 l -0.6,1.1 -0.5,0.4 -0.4,0.1 h -0.7 l -0.5,-0.3 -0.4,-0.6 -0.5,-0.9 -1.2,-4.1 -2,3.7 m 106.8,-5 -0.3,0.1 -0.7,-0.2 -0.3,-0.2 -0.4,-0.6 -0.3,-1.1 0.2,-0.7 0.3,-0.3 0.5,-0.4 0.6,-0.2 0.6,0.2 1,0.4 3.5,2.4 -0.8,-4.1 m -6.5,-0.5 -0.6,-3.2 2.7,1.3 -0.2,-0.9 0.2,-0.7 0.2,-0.3 0.9,-0.5 0.6,-0.1 0.9,0.1 0.7,0.5 0.5,0.8 0.1,0.9 -0.1,0.9 -0.2,0.4 -0.6,0.4 m -75.6,-56.2 0.8,-2.9 -2.5,-1 0.2,0.4 v 0.9 l -0.2,0.9 -0.5,0.8 -0.7,0.4 -1,0.1 -0.6,-0.2 -0.8,-0.5 -0.4,-0.7 -0.1,-1 0.3,-0.8 0.5,-0.8 0.4,-0.2 0.6,-0.2 m 3.5,7.1 -0.9,3.1 -1.8,-2.3 -0.3,0.9 -0.4,0.5 -0.4,0.2 -0.9,0.1 -0.6,-0.2 -0.8,-0.5 -0.4,-0.7 -0.1,-1 0.2,-0.9 0.5,-0.8 0.4,-0.2 0.7,-0.1 m 166,120.7 0.3,0.1 0.5,0.4 0.3,0.3 0.1,0.7 -0.2,1.1 -0.4,0.6 -0.3,0.2 -0.7,0.2 -0.6,-0.1 -0.5,-0.4 -0.8,-0.8 -2.4,-3.5 -0.7,4.2 m 5.2,6.2 -5.6,-4.1 m 6.4,0 -0.8,4.1 m 41.8,57.7 -1.2,2.8 2.4,1.3 -0.2,-0.4 0.1,-0.9 0.4,-0.8 0.6,-0.7 0.8,-0.4 0.9,0.1 0.6,0.3 0.7,0.6 0.3,0.8 -0.1,0.9 -0.4,0.9 -0.6,0.7 -0.4,0.1 -0.7,0.1 m -1,-10.3 -1.2,2.8 2.3,1.3 -0.1,-0.4 v -0.9 l 0.4,-0.8 0.6,-0.7 0.8,-0.3 h 1 l 0.5,0.3 0.7,0.6 0.3,0.8 -0.1,1 -0.3,0.8 -0.7,0.7 -0.3,0.1 -0.7,0.1 m -45.9,32.2 -3.5,3.9 4.5,0.5 m -1,-4.4 -0.7,6.3 m 6.9,-5.5 -3,-0.3 -0.6,2.6 0.3,-0.2 1,-0.2 0.9,0.1 0.8,0.4 0.5,0.6 0.2,1 v 0.6 l -0.4,0.8 -0.7,0.6 -0.9,0.1 -0.9,-0.1 -0.9,-0.4 -0.2,-0.3 -0.3,-0.6 m 55.4,-96.4 0.3,3 h 2.8 l -0.4,-0.3 -0.4,-0.8 v -0.9 l 0.2,-1 0.5,-0.6 0.9,-0.4 0.6,-0.1 0.9,0.2 0.6,0.6 0.4,0.9 0.1,0.8 -0.2,1 -0.3,0.3 -0.5,0.4 m -5.1,-8.5 -0.6,0.3 -0.2,1 0.1,0.5 0.4,0.9 0.9,0.5 1.6,0.2 1.5,-0.2 1.1,-0.4 0.6,-0.7 0.2,-0.9 -0.1,-0.3 -0.4,-0.8 -0.6,-0.6 -0.9,-0.2 h -0.3 l -0.9,0.4 -0.5,0.7 -0.2,0.9 v 0.3 l 0.4,0.9 0.6,0.5 1,0.2 m -62.2,-86.8 -0.1,0.2 -0.6,0.3 -0.5,0.1 -0.6,-0.1 -1,-0.7 -0.3,-0.6 -0.1,-0.4 0.1,-0.6 0.3,-0.5 0.6,-0.4 1,-0.4 4.2,-0.7 -3.4,-2.4 m -7,1.7 -0.1,0.7 0.6,0.7 0.4,0.4 1,0.3 1,-0.4 1.1,-1.1 0.8,-1.2 0.5,-1.2 -0.2,-0.8 -0.6,-0.8 -0.2,-0.2 -0.9,-0.2 -0.8,0.1 -0.8,0.6 -0.2,0.2 -0.2,0.9 0.1,0.9 0.6,0.7 0.2,0.2 0.9,0.3 0.9,-0.2 0.7,-0.5 m -28,30.4 0.2,-0.2 0.5,-0.4 0.4,-0.1 h 0.7 l 1.1,0.5 0.4,0.6 0.1,0.4 v 0.7 l -0.3,0.5 -0.6,0.4 -0.9,0.5 -4.1,1.2 3.7,2 m 3.8,-3.5 0.1,-0.2 0.5,-0.4 0.4,-0.1 h 0.7 l 1.1,0.6 0.4,0.5 0.1,0.4 v 0.7 l -0.3,0.5 -0.6,0.4 -0.9,0.5 -4.1,1.2 3.7,2 m -4.7,-33.6 0.2,0.3 0.2,0.6 v 0.4 l -0.3,0.7 -0.8,0.8 -0.6,0.2 H 849 l -0.6,-0.2 -0.4,-0.4 -0.2,-0.7 -0.2,-1 V 303 l -3,3 m 3.2,5.7 -2.4,2.3 -0.4,-3 -0.6,0.6 -0.6,0.3 -0.5,-0.1 -0.8,-0.4 -0.4,-0.4 -0.4,-0.9 v -0.8 l 0.4,-0.9 0.6,-0.6 0.9,-0.4 h 0.4 l 0.6,0.2 m 157.5,65.2 0.4,3 2.7,-0.1 -0.3,-0.3 -0.4,-0.8 -0.1,-0.9 0.1,-0.9 0.5,-0.7 0.9,-0.4 0.6,-0.1 0.9,0.1 0.7,0.6 0.4,0.8 0.1,0.9 -0.1,0.9 -0.3,0.4 -0.5,0.4 m -6,-6.1 0.4,0.8 0.6,0.2 h 0.6 l 0.6,-0.4 0.2,-0.7 0.1,-1.2 0.2,-0.9 0.5,-0.7 0.5,-0.4 0.9,-0.1 0.7,0.2 0.3,0.3 0.4,0.8 0.2,1.2 -0.2,0.9 -0.2,0.4 -0.6,0.4 -0.9,0.1 -0.6,-0.2 -0.7,-0.5 -0.4,-0.9 -0.5,-1.1 -0.3,-0.6 -0.7,-0.2 -0.6,0.1 -0.5,0.3 -0.2,1 0.2,1.3 m -17.2,22 -2.4,-1.7 -1.8,2 0.4,-0.1 0.9,0.3 0.7,0.5 0.6,0.8 0.1,0.8 -0.3,1 -0.3,0.4 -0.8,0.6 -0.8,0.1 -0.9,-0.2 -0.7,-0.6 -0.6,-0.7 -0.1,-0.5 0.1,-0.6 m 10.6,1.3 -6.1,3.4 m 2.7,-5.8 3.4,2.4 m -251.9,-178.5 1.5,-2.6 -2.2,-1.6 0.1,0.4 -0.2,0.9 -0.4,0.8 -0.7,0.6 -0.8,0.3 -0.9,-0.2 -0.6,-0.3 -0.6,-0.7 -0.2,-0.8 0.1,-1 0.5,-0.7 0.7,-0.7 0.4,-0.1 h 0.7 m -2,9.6 -0.6,-0.7 -0.2,-0.9 0.2,-0.9 0.1,-0.2 0.7,-0.7 0.8,-0.2 1,0.2 0.2,0.1 0.7,0.7 0.2,0.8 -0.2,1 -0.1,0.2 -0.7,0.7 -0.9,0.2 -1.2,-0.3 -1.3,-0.8 -1.1,-1 -0.5,-0.9 0.2,-1 0.3,-0.5 0.7,-0.6 h 0.6 m -0.8,-45 0.3,-0.6 -0.3,-0.9 -0.3,-0.5 -0.8,-0.6 -1.1,0.1 -1.4,0.6 -1.2,0.9 -0.8,0.9 -0.1,0.9 0.3,0.9 0.2,0.2 0.7,0.6 0.9,0.1 0.9,-0.3 0.2,-0.2 0.6,-0.7 0.1,-0.9 -0.3,-0.9 -0.2,-0.2 -0.7,-0.6 -0.9,-0.1 -0.9,0.3 m 7.4,3.1 -0.7,-0.6 -1.1,0.1 -1.4,0.6 -0.7,0.5 -1.1,1.1 -0.3,1 0.2,1 0.4,0.4 0.8,0.6 h 1 l 1.4,-0.7 0.8,-0.5 1,-1.1 0.4,-1 -0.3,-0.9 -0.3,-0.4 m 51.9,-56.2 -0.1,0.7 0.6,0.7 0.5,0.3 1,0.3 0.9,-0.4 1.1,-1.1 0.8,-1.3 0.5,-1.1 -0.2,-0.9 -0.6,-0.7 -0.2,-0.2 -1,-0.2 -0.8,0.1 -0.7,0.6 -0.2,0.3 -0.3,0.9 0.2,0.8 0.6,0.8 0.3,0.1 0.9,0.3 0.8,-0.2 0.7,-0.6 m -6.1,-0.8 -0.1,0.3 -0.6,0.3 -0.4,0.1 -0.7,-0.1 -1,-0.6 -0.3,-0.6 -0.1,-0.4 v -0.7 l 0.4,-0.5 0.6,-0.3 1,-0.5 4.1,-0.8 -3.5,-2.3 m -94,28.8 v -0.7 l -0.7,-0.6 -0.5,-0.3 -1,-0.1 -0.9,0.5 -0.9,1.3 -0.7,1.3 -0.2,1.2 0.3,0.8 0.6,0.7 0.3,0.1 0.9,0.1 0.9,-0.2 0.6,-0.7 0.1,-0.3 0.2,-0.9 -0.3,-0.8 -0.7,-0.7 -0.3,-0.1 -0.9,-0.2 -0.8,0.3 -0.7,0.7 m 5.7,-0.3 h 0.7 l 1.2,-0.5 -2.8,5.7 M 809.7,290 v -0.3 l 0.4,-0.5 0.4,-0.2 0.6,-0.2 1.2,0.2 0.5,0.4 0.3,0.3 0.2,0.7 -0.1,0.6 -0.4,0.5 -0.8,0.8 -3.5,2.4 4.1,0.7 m 5.7,-4.4 -0.2,-0.7 -0.8,-0.4 -0.6,-0.1 -1,0.1 -0.7,0.8 -0.6,1.4 -0.3,1.5 0.1,1.2 0.5,0.7 0.8,0.5 h 0.3 l 1,-0.1 0.7,-0.5 0.4,-0.8 0.1,-0.3 -0.1,-1 -0.5,-0.6 -0.9,-0.5 -0.3,-0.1 -0.9,0.2 -0.7,0.5 -0.5,0.8 M 795,29.3 l 0.3,0.6 0.9,0.3 h 0.6 l 0.9,-0.3 0.6,-0.9 0.3,-1.5 V 26 l -0.3,-1.2 -0.6,-0.6 -0.9,-0.3 h -0.3 l -0.9,0.3 -0.6,0.6 -0.3,0.9 V 26 l 0.3,0.9 0.6,0.6 0.9,0.3 h 0.3 l 0.9,-0.3 0.6,-0.6 0.3,-0.9 m -8.2,4.3 3,-4.2 h -4.5 m 1.5,4.2 V 24 m 37.8,31.7 h -0.7 l -0.7,0.7 -0.2,0.6 -0.1,0.9 0.5,0.9 1.2,1 1.4,0.6 1.2,0.2 0.8,-0.2 0.7,-0.7 0.1,-0.3 0.1,-0.9 -0.3,-0.8 -0.7,-0.7 -0.2,-0.1 -1,-0.1 -0.8,0.2 -0.6,0.7 -0.2,0.3 -0.1,0.9 0.3,0.8 0.7,0.7 m -1.4,-6.9 1.4,-3 1.4,2.7 0.4,-0.8 0.5,-0.4 0.4,-0.2 1,0.1 0.5,0.3 0.7,0.6 0.3,0.8 -0.1,1 -0.4,0.8 -0.7,0.7 -0.4,0.1 h -0.6 m -42,31 -0.3,-0.6 -0.9,-0.3 -0.6,0.1 -0.9,0.3 -0.6,0.9 -0.2,1.5 v 1.5 l 0.4,1.2 0.6,0.6 0.9,0.3 h 0.3 l 0.9,-0.4 0.6,-0.6 0.3,-0.9 -0.1,-0.3 -0.3,-0.9 -0.6,-0.6 -0.9,-0.2 h -0.3 l -0.9,0.3 -0.6,0.6 -0.3,0.9 m 5.5,-2.9 v -0.3 l 0.3,-0.6 0.3,-0.3 0.6,-0.3 1.2,-0.1 0.6,0.3 0.3,0.3 0.3,0.6 v 0.6 l -0.3,0.6 -0.5,0.9 -2.9,3.1 4.2,-0.1 m 93.5,47.1 -0.4,0.5 v 1 l 0.2,0.5 0.7,0.7 1,0.3 1.5,-0.3 1.4,-0.6 1,-0.7 0.3,-0.8 v -1 l -0.1,-0.3 -0.7,-0.7 -0.7,-0.3 -1,0.1 -0.3,0.1 -0.7,0.6 -0.3,0.8 0.1,0.9 0.1,0.3 0.6,0.7 0.8,0.4 0.9,-0.1 m -7.2,-6.4 1.2,2.8 2.6,-0.8 -0.4,-0.1 -0.6,-0.8 -0.4,-0.8 v -0.9 l 0.3,-0.8 0.7,-0.6 0.6,-0.3 h 0.9 l 0.8,0.3 0.6,0.7 0.4,0.8 v 1 l -0.1,0.4 -0.5,0.5 m -42.8,-9.9 0.4,0.5 0.9,0.2 h 0.6 l 0.9,-0.4 0.5,-1 0.1,-1.5 -0.2,-1.5 -0.4,-1.2 -0.7,-0.5 -0.9,-0.2 h -0.3 l -0.9,0.4 -0.5,0.7 -0.2,0.9 0.1,0.3 0.4,0.9 0.6,0.5 1,0.2 h 0.3 l 0.8,-0.4 0.5,-0.7 0.2,-0.9 m -5.1,4.8 -3.3,0.4 1.6,-2.6 -0.9,0.1 -0.7,-0.2 -0.3,-0.3 -0.4,-0.8 -0.1,-0.6 0.2,-1 0.5,-0.6 0.9,-0.4 0.9,-0.1 0.9,0.2 0.4,0.2 0.3,0.6 m -243.8,4 -0.4,0.5 -0.5,1.2 -2.4,-5.8 m 1,5.1 -0.4,0.5 -0.5,1.2 -2.5,-5.8 m -26.5,45.5 -1,-0.1 -0.7,-0.4 -0.5,-0.8 -0.1,-0.3 0.1,-1 0.4,-0.7 0.8,-0.5 0.3,-0.1 0.9,0.1 0.8,0.4 0.5,0.8 0.1,0.3 -0.1,1 -0.4,0.7 -1.1,0.6 -1.5,0.4 h -1.5 l -1,-0.3 -0.6,-0.8 -0.1,-0.6 0.1,-1 0.5,-0.4 m 83.2,-5.2 0.2,0.9 0.5,0.4 0.6,0.1 0.7,-0.3 0.3,-0.5 0.5,-1.2 0.4,-0.8 0.6,-0.6 0.6,-0.2 0.9,0.1 0.6,0.4 0.3,0.3 0.2,0.9 -0.2,1.2 -0.4,0.9 -0.3,0.2 -0.6,0.3 -0.9,-0.1 -0.6,-0.4 -0.5,-0.7 -0.2,-0.9 -0.2,-1.2 -0.2,-0.6 -0.6,-0.4 -0.6,-0.1 -0.6,0.3 -0.4,0.8 -0.1,1.4 m -36,25.2 -0.4,-0.5 -0.9,-0.2 -0.6,0.1 -0.9,0.4 -0.5,0.9 -0.1,1.6 0.2,1.5 0.5,1.1 0.6,0.5 0.9,0.2 h 0.3 l 0.9,-0.4 0.5,-0.7 0.2,-0.9 v -0.3 l -0.4,-0.9 -0.7,-0.5 -0.9,-0.2 h -0.3 l -0.9,0.5 -0.5,0.6 -0.2,1 m 79.6,-152.2 0.4,0.5 0.9,0.1 0.6,-0.1 0.8,-0.5 0.4,-1 v -1.5 l -0.3,-1.5 -0.5,-1.1 -0.7,-0.5 -0.9,-0.1 -0.3,0.1 -0.8,0.4 -0.5,0.7 -0.1,1 V 35 l 0.5,0.8 0.7,0.5 0.9,0.1 0.3,-0.1 0.9,-0.4 0.4,-0.7 0.1,-1 m -7.8,4.9 0.4,0.6 1,0.1 0.5,-0.1 0.9,-0.5 0.4,-1 v -1.5 l -0.3,-1.5 -0.5,-1.1 -0.7,-0.5 -1,-0.1 h -0.3 l -0.8,0.5 -0.5,0.7 -0.1,1 0.1,0.3 0.4,0.8 0.7,0.5 1,0.1 0.3,-0.1 0.8,-0.5 0.5,-0.7 0.1,-0.9 m -97.7,36 h 0.7 l 1.2,-0.4 -2.9,5.6 m 3.8,-3.7 0.1,-0.2 0.5,-0.4 0.4,-0.2 h 0.7 l 1.1,0.6 0.4,0.5 0.1,0.4 v 0.7 l -0.3,0.5 -0.5,0.4 -0.9,0.6 -4.1,1.3 3.8,1.9 m 0.6,-24.4 0.4,0.5 0.9,0.2 0.6,-0.1 0.9,-0.4 0.4,-1 0.1,-1.5 -0.2,-1.5 -0.5,-1.2 -0.6,-0.5 -1,-0.2 -0.3,0.1 -0.8,0.4 -0.5,0.7 -0.2,0.9 v 0.3 l 0.5,0.9 0.7,0.5 0.9,0.2 0.3,-0.1 0.8,-0.4 0.5,-0.7 0.2,-0.9 m -8.4,5.4 2.1,-6.6 m 2.1,6 -4.2,0.6 m 310.7,138.9 -0.6,0.4 -0.2,0.9 0.1,0.6 0.4,0.8 1,0.5 1.5,0.1 1.5,-0.2 1.1,-0.4 0.6,-0.7 0.1,-0.9 v -0.3 l -0.4,-0.9 -0.7,-0.5 -0.9,-0.2 -0.3,0.1 -0.9,0.4 -0.5,0.6 -0.2,1 0.1,0.3 0.4,0.8 0.7,0.5 0.9,0.2 m -5,-5.9 0.4,0.8 0.6,0.2 h 0.6 l 0.6,-0.4 0.2,-0.6 0.1,-1.3 0.2,-0.9 0.5,-0.7 0.6,-0.4 0.9,-0.1 0.6,0.3 0.4,0.2 0.4,0.9 0.1,1.2 -0.1,0.9 -0.3,0.3 -0.6,0.4 -0.9,0.1 -0.6,-0.2 -0.7,-0.5 -0.4,-0.9 -0.4,-1.1 -0.4,-0.6 -0.6,-0.2 -0.6,0.1 -0.6,0.3 -0.2,1 0.2,1.3 m -32.9,68.4 -0.6,-0.2 -0.9,0.4 -0.4,0.4 -0.5,0.8 0.2,1.1 0.8,1.3 1,1.1 1,0.7 h 0.8 l 0.9,-0.3 0.2,-0.2 0.5,-0.9 0.1,-0.8 -0.4,-0.9 -0.2,-0.2 -0.9,-0.5 h -0.8 l -0.9,0.4 -0.2,0.2 -0.5,0.8 v 0.8 l 0.4,0.9 m 5.2,-7.5 0.4,0.8 v 0.9 l -0.5,0.8 -0.2,0.2 -0.9,0.4 -0.9,-0.1 -0.8,-0.4 -0.2,-0.3 -0.4,-0.8 0.1,-0.9 0.5,-0.8 0.2,-0.2 0.8,-0.4 0.9,0.1 1,0.7 1,1.1 0.8,1.3 0.2,1.1 -0.5,0.8 -0.5,0.4 -0.8,0.4 -0.6,-0.3 m 60.6,4.7 h 0.7 l 0.7,-0.6 0.3,-0.5 0.3,-0.9 -0.5,-1 -1.1,-1.1 -1.2,-0.8 -1.2,-0.4 -0.8,0.2 -0.8,0.6 -0.1,0.3 -0.3,0.9 0.2,0.8 0.6,0.8 0.2,0.1 1,0.3 0.8,-0.2 0.7,-0.6 0.2,-0.3 0.2,-0.9 -0.1,-0.8 -0.6,-0.8 m -3.1,8.7 -0.6,-0.7 -0.2,-0.9 0.2,-0.9 0.2,-0.2 0.7,-0.6 0.9,-0.2 0.9,0.2 0.2,0.2 0.6,0.7 0.2,0.9 -0.2,0.9 -0.2,0.2 -0.7,0.6 -0.8,0.2 -1.2,-0.4 -1.3,-0.8 -1.1,-1.1 -0.4,-1 0.2,-0.9 0.4,-0.5 0.7,-0.6 0.7,0.1 m 88.5,13 3.3,6.1 m -5.8,-2.7 2.5,-3.4 m 1.7,-2.4 -0.3,0.9 0.4,1.1 1,1.1 0.8,0.5 1.3,0.6 1.1,0.1 0.8,-0.6 0.3,-0.5 0.3,-0.9 -0.4,-1 -1,-1.1 -0.7,-0.5 -1.4,-0.7 h -1.1 l -0.8,0.5 -0.2,0.4 m 7.7,-64.5 -0.5,0.5 v 0.9 l 0.2,0.6 0.5,0.8 1.1,0.3 1.5,-0.2 1.4,-0.4 1.1,-0.6 0.4,-0.8 v -0.9 l -0.1,-0.3 -0.5,-0.8 -0.8,-0.4 h -0.9 l -0.3,0.1 -0.8,0.5 -0.4,0.8 v 0.9 l 0.1,0.3 0.5,0.8 0.8,0.4 h 0.9 m -5.7,-7.3 -0.4,0.5 -0.1,0.9 0.2,0.6 0.6,0.7 1,0.4 1.5,-0.2 1.5,-0.4 1,-0.7 0.4,-0.7 v -1 l -0.1,-0.3 -0.5,-0.7 -0.8,-0.4 -0.9,-0.1 -0.3,0.1 -0.8,0.6 -0.4,0.7 v 1 l 0.1,0.3 0.6,0.7 0.7,0.4 1,0.1 m -84,-28.8 0.4,-0.5 -0.1,-0.9 -0.3,-0.6 -0.7,-0.7 -1,-0.1 -1.5,0.4 -1.4,0.6 -0.9,0.8 -0.3,0.8 0.1,1 0.2,0.2 0.6,0.7 0.8,0.3 1,-0.1 0.2,-0.2 0.7,-0.6 0.3,-0.8 -0.1,-1 -0.2,-0.2 -0.6,-0.7 -0.8,-0.3 -1,0.1 m 6.7,4.1 -0.7,-0.7 h -0.7 l -0.5,0.3 -0.4,0.5 v 0.7 l 0.2,1.2 0.2,0.9 -0.3,0.8 -0.4,0.5 -0.8,0.4 h -0.7 l -0.4,-0.1 -0.7,-0.7 -0.5,-1.1 -0.1,-0.9 0.1,-0.4 0.4,-0.5 0.8,-0.4 h 0.7 l 0.8,0.3 0.7,0.6 0.8,1 0.5,0.4 h 0.7 l 0.5,-0.3 0.4,-0.5 -0.1,-0.9 -0.6,-1.3 m -0.8,518.7 -2.6,1.5 1.2,2.5 0.1,-0.4 0.6,-0.7 0.8,-0.5 0.9,-0.2 0.8,0.2 0.7,0.6 0.3,0.5 0.3,0.9 -0.2,0.8 -0.7,0.8 -0.7,0.4 -0.9,0.2 -0.5,-0.1 -0.5,-0.3 m 3.4,-8.1 -0.6,0.7 v 1.1 l 0.5,1.5 0.5,0.7 1,1.1 1,0.5 0.9,-0.2 0.5,-0.3 0.6,-0.8 0.1,-1 -0.6,-1.5 -0.4,-0.7 -1.1,-1.2 -1,-0.4 -0.9,0.2 -0.4,0.2 m -109.1,6.4 -4.3,2.8 4.1,1.7 m 0.2,-4.5 -2.4,5.9 m 7.7,-1.4 -0.7,0.8 -0.7,0.3 -1,-0.1 -0.3,-0.1 -0.7,-0.6 -0.3,-0.8 0.1,-0.9 0.1,-0.3 0.6,-0.7 0.8,-0.4 0.9,0.1 0.3,0.1 0.7,0.6 0.3,0.8 -0.1,1.2 -0.6,1.4 -0.9,1.3 -0.9,0.6 -0.9,-0.1 -0.6,-0.2 -0.7,-0.6 v -0.7 m 164.9,-58.7 2.4,4.5 2,-4 m -4.4,-0.5 5.6,2.8 m -2,-8 h -0.7 l -0.6,0.7 -0.3,0.5 -0.1,0.9 0.5,1 1.2,0.9 1.4,0.7 1.2,0.2 0.8,-0.2 0.6,-0.7 0.2,-0.3 0.1,-0.9 -0.3,-0.8 -0.6,-0.7 -0.3,-0.1 -0.9,-0.1 -0.8,0.2 -0.7,0.7 -0.1,0.3 -0.2,0.9 0.3,0.8 0.7,0.7 m -51,-14.3 3.2,-4 -4.5,-0.2 m 1.3,4.2 0.3,-6.2 m -3.5,6 -3.3,-0.2 1.9,-2.3 h -0.9 l -0.6,-0.3 -0.3,-0.4 -0.2,-0.9 v -0.6 l 0.4,-0.9 0.6,-0.5 0.9,-0.3 0.9,0.1 0.9,0.3 0.3,0.3 0.2,0.6 M 966,144.6 v 0.7 l 0.7,0.7 0.5,0.3 0.9,0.1 1,-0.5 1,-1.1 0.7,-1.4 0.3,-1.2 -0.3,-0.8 -0.6,-0.7 -0.3,-0.1 -0.9,-0.2 -0.8,0.3 -0.7,0.6 -0.1,0.3 -0.2,0.9 0.2,0.8 0.7,0.7 0.2,0.2 1,0.1 0.8,-0.2 0.7,-0.7 m -9.3,-0.1 4.7,-2.3 -4,-2.1 m -0.7,4.4 3.1,-5.6 m -37.9,-9.4 0.6,-0.4 0.1,-1 -0.1,-0.6 -0.4,-0.8 -1,-0.4 -1.5,-0.1 -1.5,0.3 -1.1,0.4 -0.5,0.7 -0.2,1 0.1,0.3 0.4,0.8 0.7,0.5 0.9,0.2 0.3,-0.1 0.9,-0.4 0.5,-0.7 0.1,-1 v -0.3 l -0.5,-0.8 -0.7,-0.5 -0.9,-0.1 m 5.5,7.8 -0.4,-3 -2.8,0.2 0.4,0.2 0.4,0.9 0.2,0.8 -0.2,1 -0.5,0.7 -0.8,0.4 -0.6,0.1 -0.9,-0.1 -0.7,-0.5 -0.5,-0.9 -0.1,-0.9 0.1,-0.9 0.3,-0.3 0.5,-0.4 M 641.1,399 l 2.9,1.5 -2.7,1.3 0.8,0.4 0.4,0.6 0.1,0.4 -0.2,0.9 -0.3,0.5 -0.7,0.7 -0.8,0.2 -0.9,-0.1 -0.8,-0.5 -0.6,-0.7 -0.2,-0.4 0.1,-0.6 m 8.4,-1.3 -0.9,-0.1 -0.6,0.4 -0.3,0.5 v 0.7 l 0.4,0.5 0.9,0.8 0.7,0.7 0.2,0.9 v 0.6 l -0.5,0.8 -0.5,0.4 -0.4,0.1 -0.9,-0.1 -1.1,-0.6 -0.6,-0.7 -0.2,-0.4 0.1,-0.7 0.4,-0.8 0.5,-0.4 0.9,-0.2 0.9,0.2 1.2,0.3 h 0.7 l 0.5,-0.4 0.3,-0.5 v -0.7 l -0.6,-0.7 -1.2,-0.6 m 22.5,-78.1 -0.7,2.9 2.5,0.9 -0.2,-0.3 v -1 l 0.2,-0.9 0.5,-0.8 0.7,-0.4 1,-0.1 0.5,0.2 0.8,0.5 0.5,0.7 v 1 l -0.2,0.8 -0.5,0.8 -0.3,0.3 -0.7,0.1 m -2.1,-6.6 h -0.3 l -0.5,-0.5 -0.2,-0.3 -0.1,-0.7 0.3,-1.1 0.4,-0.6 0.4,-0.2 0.6,-0.1 0.6,0.1 0.5,0.5 0.7,0.8 2.2,3.6 1,-4.1 m 3.9,-61 -0.3,3 2.7,0.6 -0.3,-0.4 -0.2,-0.9 v -0.9 l 0.4,-0.8 0.7,-0.6 0.9,-0.2 0.6,0.1 0.9,0.3 0.5,0.7 0.2,0.9 -0.1,0.9 -0.3,0.9 -0.4,0.2 -0.6,0.3 m -4.5,-6.4 0.3,-3.3 2.2,2 0.1,-0.9 0.3,-0.5 0.4,-0.3 0.9,-0.2 h 0.6 l 0.9,0.4 0.5,0.7 0.2,0.9 -0.1,0.9 -0.3,0.9 -0.4,0.2 -0.6,0.3 m -104.6,163.1 1.9,-2.6 0.9,2.8 0.5,-0.7 0.6,-0.3 0.5,-0.1 0.9,0.3 0.4,0.4 0.6,0.7 0.1,0.9 -0.3,0.9 -0.5,0.7 -0.8,0.6 h -0.4 l -0.6,-0.1 m 0.5,-6.8 -0.2,-0.2 -0.4,-0.6 v -0.4 l 0.1,-0.7 0.7,-1 0.6,-0.3 h 0.4 l 0.7,0.1 0.5,0.3 0.3,0.6 0.3,1 0.7,4.2 2.5,-3.4 m -20.4,-28.6 0.3,3.3 -2.6,-1.5 0.1,0.9 -0.2,0.6 -0.3,0.3 -0.8,0.4 -0.6,0.1 -1,-0.2 -0.6,-0.6 -0.4,-0.8 -0.1,-0.9 0.2,-0.9 0.3,-0.4 0.5,-0.3 m 82,-156.2 h 3 l 0.4,-2.7 -0.3,0.3 -0.9,0.3 h -0.9 l -0.9,-0.3 -0.6,-0.6 -0.3,-0.9 v -0.6 l 0.3,-0.9 0.6,-0.6 0.9,-0.3 h 0.9 l 0.9,0.3 0.3,0.3 0.3,0.6 m -8.5,5.1 3,-4.2 -4.5,-0.1 m 1.5,4.3 v -6.3 m -56.5,54 0.1,-0.9 -0.6,-0.9 -1.3,-0.9 -0.8,-0.3 -1.5,-0.3 -1.1,0.2 -0.6,0.8 -0.2,0.5 -0.1,1 0.6,0.9 1.3,0.8 0.8,0.3 1.5,0.3 1.1,-0.2 0.6,-0.7 0.2,-0.4 m 438.6,298.5 2.3,4.7 2.1,-4 m -4.4,-0.7 5.5,3 m -1.7,-8 h -0.7 l -0.7,0.6 -0.3,0.5 -0.1,1 0.5,0.9 1.2,1 1.3,0.7 1.2,0.3 0.8,-0.2 0.7,-0.7 0.1,-0.3 0.2,-0.9 -0.3,-0.8 -0.6,-0.7 -0.3,-0.1 -0.9,-0.2 -0.8,0.3 -0.7,0.6 -0.2,0.3 -0.1,0.9 0.2,0.8 0.7,0.7 m -78.9,-67.4 -1.6,-4.9 -2.7,3.7 m 4.3,1.2 -5.1,-3.7 m 1,9.1 -3.3,-6.1 m 5.8,2.7 -2.5,3.4 m 79.1,-13.7 0.5,2.9 2.8,-0.1 -0.4,-0.3 -0.4,-0.8 -0.2,-0.9 0.1,-0.9 0.5,-0.7 0.9,-0.5 0.6,-0.1 0.9,0.2 0.7,0.4 0.4,0.9 0.2,0.9 -0.1,0.9 -0.3,0.3 -0.5,0.4 m -6.3,-6.1 0.5,0.8 1,0.5 h 1.5 l 0.9,-0.2 1.4,-0.5 0.8,-0.8 0.1,-0.9 -0.1,-0.6 -0.4,-0.8 -1,-0.5 h -1.6 l -0.8,0.2 -1.5,0.5 -0.7,0.8 -0.2,0.9 0.1,0.4 m -26.2,-33.1 2.5,-1.7 -1.3,-2.4 v 0.5 l -0.6,0.7 -0.8,0.5 -0.9,0.3 -0.8,-0.2 -0.8,-0.6 -0.3,-0.5 -0.3,-0.9 0.2,-0.8 0.6,-0.8 0.7,-0.5 0.9,-0.2 0.5,0.1 0.5,0.3 m -2.3,6 -0.3,0.6 -0.2,1.2 -3.6,-5.2 m -386.4,68.8 1.7,-2.5 -2.2,-1.8 0.1,0.5 -0.2,0.9 -0.5,0.7 -0.7,0.6 -0.9,0.2 -0.9,-0.2 -0.5,-0.4 -0.6,-0.7 -0.2,-0.8 0.3,-1 0.5,-0.7 0.7,-0.6 0.4,-0.1 0.7,0.1 m 0.2,6.4 v 0.7 l 0.2,1.2 -5.3,-3.4 m 74.7,38.9 3.7,3.6 0.7,-4.4 m -4.4,0.8 6.2,1 m -5.5,-5.1 0.2,0.9 0.5,0.4 0.6,0.1 0.7,-0.2 0.4,-0.5 0.5,-1.1 0.4,-0.9 0.7,-0.5 0.6,-0.2 0.9,0.2 0.6,0.3 0.2,0.4 0.2,0.9 -0.2,1.2 -0.5,0.9 -0.3,0.2 -0.7,0.2 -0.8,-0.1 -0.6,-0.4 -0.5,-0.7 -0.1,-1 -0.2,-1.2 -0.2,-0.6 -0.5,-0.4 -0.6,-0.1 -0.6,0.2 -0.5,0.8 -0.2,1.4 m -37.7,-100.8 -3.1,-4.1 -1.3,4.4 m 4.4,-0.3 -6,-1.8 m 4.1,8.2 -5.2,-4.7 m 6.4,0.7 -1.2,4 m 56.2,25.5 2.9,4.3 1.6,-4.2 m -4.5,-0.1 5.9,2.3 m -3.6,-8.1 -1.1,2.8 2.4,1.3 -0.1,-0.4 v -1 l 0.3,-0.8 0.6,-0.7 0.8,-0.4 1,0.1 0.5,0.2 0.8,0.6 0.3,0.8 v 0.9 l -0.4,0.9 -0.6,0.7 -0.4,0.2 h -0.6 m -24.6,-36.4 4.6,-2.2 -3.9,-2.2 m -0.7,4.4 3,-5.5 m -8.1,2.8 4.6,-2.3 -3.9,-2.1 m -0.7,4.4 3,-5.6 m -81.1,170 -4.3,-2.8 0.2,4.5 m 4.1,-1.7 -6.3,0.2 m 4.4,6.5 -0.9,-0.3 -0.6,-0.6 -0.4,-0.9 V 625 l 0.3,-0.9 0.6,-0.6 0.9,-0.3 0.3,-0.1 0.9,0.3 0.6,0.6 0.3,0.9 v 0.3 l -0.2,0.9 -0.6,0.6 -1.2,0.4 h -1.5 l -1.5,-0.2 -0.9,-0.6 -0.4,-0.9 v -0.6 l 0.3,-0.9 0.6,-0.3 m 27.2,76.9 0.7,0.1 1.2,-0.2 -3.7,5.1 m 7.7,-2.5 -2.5,-1.8 -1.8,2 h 0.4 l 0.9,0.3 0.8,0.5 0.5,0.8 0.1,0.8 -0.2,0.9 -0.4,0.5 -0.8,0.6 -0.8,0.1 -0.9,-0.3 -0.7,-0.5 -0.6,-0.8 -0.1,-0.4 0.2,-0.7 m 97,-28.7 -0.6,-0.3 -1.3,-0.3 5.4,-3.4 m -8.3,-0.9 6.9,-0.8 m -4.7,4.4 -2.2,-3.6 m -14.5,49.5 0.6,-0.4 0.9,-0.9 v 6.3 m 2.6,-6.5 -0.9,0.3 -0.2,0.6 v 0.6 l 0.3,0.6 0.6,0.3 1.2,0.3 0.9,0.3 0.6,0.6 0.3,0.6 v 0.9 l -0.3,0.6 -0.3,0.3 -0.9,0.3 h -1.2 l -0.9,-0.3 -0.3,-0.3 -0.3,-0.6 v -0.9 l 0.3,-0.6 0.6,-0.6 0.9,-0.3 1.2,-0.3 0.6,-0.3 0.3,-0.6 v -0.6 l -0.4,-0.6 -0.9,-0.3 h -1.3"
       id="nums_002"
       stroke="#000000"
       stroke-width="1" />
    <path
       d="m 888,114.9 16.9,41 9.5,73.2 -80.2,72.3 -41.9,-7.7 10.7,54.9 63.1,4.9 -0.5,72 12.9,-70.8 -55.9,-29.8 39.8,-39.2 34.9,24.3 58.4,-90.8 -32.4,-66.5 -7.2,-43.7 104,56.7 26.6,86.9 -44.4,61.8 15.5,111.3 -73.6,-52.7 4,39.5 -37.5,85.5 -56.9,-6.6 69,43.9 40.8,-55.5 60.1,-40.8 21.1,120.1 -22,41.5 -131.6,26.7 134.1,7.2 -20.9,42 -104,63.7 -121,-49.8 30,-76.6 21.2,-53.6 -43.4,-21.5 -39.8,-79.7 -76.6,-34.5 -59.2,-32.2 -42.2,57.9 -12.5,-119 43.8,-108.4 91.2,1.2 -6.2,67 -16.5,66.2 32.9,-59.7 16.9,-65.2 20.7,-36.7 -28,-38.9 L 663.3,133.2 657.1,189 574,199.2 558.8,139 641.3,103.7 544.6,54.5 645,40 l 89.1,-17.6 118.4,-0.8 -34.1,72 -51.9,1.8 42.85,28.7 z m -269.1,381.9 19.8,-66 71.9,38.9 -20.5,53.4 -14.2,88.5 72.8,115.7 -110.9,0.7 -54.2,-39.4 -4.2,-130.8 z"
       id="coupes_002"
       stroke="#ff0000"
       stroke-width="1.27"
       sodipodi:nodetypes="cccccccccccccccccccccccccccccccccccccccccccccccccccccccccccccccccccccccc" />
    <path
       d="m 830.6,560.2 192.2,40.4 m -131.6,26.7 -60.6,-67.1 m 60.6,67.1 -81.8,-13.5 m 113.4,-78.5 100,65.3 m -192.2,-40.4 92.2,-24.9 m -135.6,3.4 66.6,-47.3 m 11.8,-65.9 -11.8,65.9 M 747.4,459 865.6,425.5 M 803,348.6 865.6,425.5 M 747.4,459 803,348.6 m 88.2,278.7 -111.8,63.1 M 669.2,357.2 803,348.6 m -132.2,75.9 -1.6,-67.3 m 32.9,-59.7 100.9,51.1 m 62.6,76.9 82.6,-13 m -69.7,-57.8 69.7,57.8 M 878.5,354.7 897.3,310 m 105,4.4 -58.1,58.6 M 820.3,174.2 792.3,293.7 M 719,232.3 820.3,174.2 m -10.5,-50.2 10.5,50.2 m -80.6,21.4 70.1,-71.6 m -98.1,32.7 98.1,-32.7 m -98.1,32.7 54.8,-61.3 M 663.3,133.2 766.5,95.4 M 904.9,155.9 792.3,293.7 M 904.9,155.9 834.2,301.4 m -100.1,-279 32.4,73 m 86,-73.8 -86,73.8 m 53.8,78.8 67.7,-59.3 M 641.3,103.7 734.1,22.4 M 663.3,133.2 558.8,139 m 104.5,-5.8 -89.3,66 m 381.7,20 46.6,95.2 m -46.6,-95.2 64.4,-53.5 m -96.8,-13 96.8,13 m -128.9,461.6 113.2,49.2 m 0,0 -225,13.9 M 611.6,392.3 669.2,357.2 m -112.3,-26 112.3,26 m -57.6,35.1 -54.7,-61.1 m 0,0 135,-107.2 m 230.9,311.3 122,23.8 m -368.9,52.5 -96.5,-53.8 m 59.3,-127 51.4,92.3 M 675.9,611.6 637.8,728"
       id="plisM_002"
       stroke="#a52a2a"
       stroke-dasharray="4" />
    <path
       d="m 830.6,560.2 23.2,-68.8 m -66.6,47.3 78.4,-113.2 M 747.4,459 669.2,357.2 m 32.9,-59.7 90.2,-3.8 m -73.3,-61.4 73.3,61.4 m 155.9,118.8 -94.4,78.9 m 24.7,-136.7 65.7,18.3 m -46.9,-63 46.9,63 m -65.7,-18.3 -16.1,-69 m 34.9,24.3 105,4.4 M 739.7,195.6 820.3,174.2 m 0,0 84.6,-18.3 M 663.3,133.2 734.1,22.4 m -70.8,110.8 -22,-29.5 m 0,0 L 645,40 m 310.7,179.2 91,33.4 M 556.9,331.2 685.7,291 m 277.9,188.8 81.2,79.3 m -425.9,-62.3 57,114.8 m -57,-114.8 71.2,26.3 m -14.2,88.5 -92.3,77"
       id="plisV_002"
       stroke="#008000"
       stroke-dasharray="4, 1, 1, 1"
       stroke-width="1.27" />
    <path
       d="m 840.2,523.8 4,4 m 0,-4 -4,4 m -15.8,-47.7 4,4 m 0,-4 -4,4 m -118.1,-78 4,4 m 0,-4 -4,4 m 38.9,-116.5 4,4 m 0,-4 -4,4 m 8.5,-36.6 4,4 m 0,-4 -4,4 m 145.3,185 4,4 m 0,-4 -4,4 m 10.4,-92.1 4,4 m 0,-4 -4,4 m 9.4,-26.4 4,4 m 0,-4 -4,4 m -50.3,-25.3 4,4 m 0,-4 -4,4 m 79.3,-12 4,4 m 0,-4 -4,4 M 778,182.9 l 4,4 m 0,-4 -4,4 m 82.6,-23.9 4,4 m 0,-4 -4,4 m -163.9,-91.2 4,4 m 0,-4 -4,4 m -46.4,36.7 4,4 m 0,-4 -4,4 m -9.2,-50.6 4,4 m 0,-4 -4,4 m 358.1,160 4,4 m 0,-4 -4,4 m -379.9,71.2 4,4 m 0,-4 -4,4 m 382.9,204.3 4,4 m 0,-4 -4,4 m -356.8,30.8 4,4 m 0,-4 -4,4 m 7.1,-48.2 4,4 m 0,-4 -4,4 m -24.7,136.1 4,4 m 0,-4 -4,4"
       id="marqueV_002"
       stroke="#008000" />
    <path
       d="m 851.34341,314.44341 v -0.7 l 0.7,-1.5 0.8,-0.8 1.5,-0.7 h 3 l 1.5,0.7 0.7,0.8 0.8,1.5 v 1.5 l -0.8,1.5 -1.5,2.2 -7.5,7.5 h 10.5"
       id="titre_2"
       stroke="#4b0082" />
    <path
       d="m 620.6,543.1 h 8.3 l -4.5,6 h 2.2 l 1.5,0.7 0.8,0.8 0.7,2.2 v 1.5 l -0.7,2.3 -1.5,1.5 -2.3,0.7 h -2.2 l -2.3,-0.7 -0.7,-0.8 -0.8,-1.5"
       id="titre_3"
       stroke="#4b0082" />
  </g>
  <g
     id="page_003">
    <path
       d="m 1165.8,221.2 v 0.7 l 0.4,1.2 -5.7,-2.7 m 137.2,200.9 0.6,-0.3 0.9,-0.9 0.2,6.3 m 1.5,-6.6 3.3,-0.1 -1.7,2.4 h 0.9 l 0.6,0.3 0.3,0.3 0.3,0.9 0.1,0.6 -0.3,0.9 -0.6,0.6 -0.9,0.3 -0.9,0.1 -0.9,-0.3 -0.3,-0.3 -0.3,-0.6 m -141.8,-19.8 h 0.6 l 1.2,-0.4 -2.7,5.7 m 5.5,-4.6 -0.9,-0.2 -1,0.6 -0.9,1.2 -0.4,0.8 -0.3,1.5 0.1,1.1 0.7,0.7 0.5,0.2 1,0.1 0.9,-0.5 0.9,-1.3 0.4,-0.8 0.4,-1.5 -0.2,-1 -0.7,-0.7 -0.4,-0.2 m -36.2,-55.8 -6.3,-3 m 6.3,-1.2 v 4.2 m 362.2,-145.7 -0.3,0.1 h -0.7 l -0.4,-0.2 -0.5,-0.4 -0.4,-1.1 V 202 l 0.1,-0.4 0.5,-0.5 0.5,-0.2 h 0.7 l 1.1,0.2 3.9,1.6 -1.7,-3.9 m -6.9,-0.2 0.6,0.7 1.1,0.2 1.5,-0.3 0.8,-0.4 1.3,-0.8 0.6,-0.9 -0.1,-1 -0.2,-0.5 -0.7,-0.7 -1,-0.2 -1.5,0.3 -0.9,0.3 -1.2,0.9 -0.6,0.9 0.1,1 0.1,0.4 m -231.1,-88.4 0.1,0.3 0.1,0.7 -0.1,0.4 -0.4,0.5 -1,0.7 h -0.7 l -0.4,-0.1 -0.5,-0.3 -0.3,-0.5 -0.1,-0.7 V 110 l 1,-4.1 -3.6,2.2 m 191.2,277.5 0.3,-0.6 0.1,-1.3 4.1,4.8 m -2.2,-6.7 -0.5,0.8 0.2,0.7 0.4,0.5 0.6,0.2 0.6,-0.1 1.1,-0.6 0.9,-0.3 0.9,0.1 0.6,0.2 0.6,0.7 0.1,0.7 v 0.4 l -0.5,0.8 -0.9,0.8 -0.9,0.3 h -0.4 l -0.7,-0.3 -0.5,-0.7 -0.2,-0.6 0.1,-0.9 0.5,-0.8 0.7,-1 0.3,-0.6 -0.2,-0.7 -0.4,-0.4 -0.6,-0.3 -0.9,0.4 -1,0.8 m 51.7,-83.1 -0.2,-0.6 -0.7,-1.1 6.2,1.3 m -4.6,-5.8 -0.6,0.2 -0.5,0.8 -0.1,0.6 0.1,0.9 0.8,0.8 1.4,0.6 1.5,0.3 1.2,-0.1 0.7,-0.4 0.5,-0.8 v -0.3 l -0.1,-1 -0.4,-0.7 -0.9,-0.5 h -0.3 l -0.9,0.1 -0.7,0.5 -0.5,0.8 v 0.3 l 0.1,0.9 0.4,0.7 0.9,0.5 m -57.1,-167.9 -0.6,-0.2 h -1.3 l 4.4,-4.5 m -6.7,-0.4 0.8,-0.4 h 0.9 l 0.8,0.4 0.2,0.2 0.5,0.8 v 0.9 l -0.4,0.8 -0.2,0.3 -0.9,0.4 h -0.8 l -0.9,-0.4 -0.2,-0.2 -0.4,-0.9 v -0.8 l 0.6,-1.1 1,-1.1 1.3,-0.8 1,-0.2 0.9,0.4 0.4,0.4 0.5,0.8 -0.2,0.7 m -89.2,-33.9 3,0.4 0.6,-2.7 -0.3,0.3 -0.9,0.2 -0.9,-0.1 -0.9,-0.5 -0.5,-0.6 -0.2,-1 0.1,-0.5 0.4,-0.9 0.7,-0.5 0.9,-0.2 0.9,0.1 0.8,0.4 0.3,0.3 0.2,0.7"
       id="nums_003"
       stroke="#000000"
       stroke-width="1" />
    <path
       d="m 1489.3,352.7 -84.9,71.3 -205,8.1 -80.3,-38.2 -0.3,-91 80.6,-167.1 98.7,-60.6 110,13.7 67,65 37.1,86.5 z"
       id="coupes_003"
       stroke="#ff0000"
       stroke-width="1.27"
       sodipodi:nodetypes="ccccccccccc" />
    <path
       d="m 1199.4,135.8 205,288.2 m -205,-288.2 275.7,18.1 m -177,-78.7 177,78.7"
       id="plisM_003"
       stroke="#a52a2a"
       stroke-dasharray="4" />
    <path
       d="m 1199.4,135.8 v 296.3 m 0,0 -80.6,-129.2 m 356.3,-149 -70.7,270.1 M 1512.2,240.4 1404.4,424"
       id="plisV_003"
       stroke="#008000"
       stroke-dasharray="4, 1, 1, 1"
       stroke-width="1.27" />
    <path
       d="m 1197.4,281.9 4,4 m 0,-4 -4,4 m -40.3,79.6 4,4 m 0,-4 -4,4 m 280.6,-82.6 4,4 m 0,-4 -4,4 m 18.6,39.3 4,4 m 0,-4 -4,4"
       id="marqueV_003"
       stroke="#008000" />
    <path
       d="m 1361.3,225.3 -7.5,10.5 h 11.3 m -3.8,-10.5 v 15.8"
       id="titre_4"
       stroke="#4b0082" />
  </g>
</svg>
