<?xml version="1.0" encoding="UTF-8" standalone="no"?>
<svg
   height="841.88977pt"
   viewBox="0 0 532.99998 754.00001"
   width="595.27557pt"
   version="1.1"
   id="svg1"
   sodipodi:docname="taureau278_P20_A4x2.svg"
   inkscape:version="1.3 (0e150ed6c4, 2023-07-21)"
   xmlns:inkscape="http://www.inkscape.org/namespaces/inkscape"
   xmlns:sodipodi="http://sodipodi.sourceforge.net/DTD/sodipodi-0.dtd"
   xmlns="http://www.w3.org/2000/svg"
   xmlns:svg="http://www.w3.org/2000/svg">
  <defs
     id="defs1" />
  <sodipodi:namedview
     id="namedview1"
     pagecolor="#ffffff"
     bordercolor="#000000"
     borderopacity="0.25"
     inkscape:showpageshadow="2"
     inkscape:pageopacity="0.0"
     inkscape:pagecheckerboard="0"
     inkscape:deskcolor="#d1d1d1"
     inkscape:document-units="mm"
     showgrid="false"
     inkscape:zoom="0.5304608"
     inkscape:cx="788.93671"
     inkscape:cy="555.17769"
     inkscape:window-width="1920"
     inkscape:window-height="1057"
     inkscape:window-x="-8"
     inkscape:window-y="-8"
     inkscape:window-maximized="1"
     inkscape:current-layer="svg1" />
  <style
     type="text/css"
     id="style1"><![CDATA[
			path {
				fill: none;
			}
		]]></style>
  <g
     id="page_001">
    <path
       d="m 250.2,327.1 3,-0.2 0.1,-2.7 -0.3,0.3 -0.9,0.4 h -0.8 l -1,-0.2 -0.6,-0.6 -0.3,-0.9 -0.1,-0.6 0.3,-0.9 0.5,-0.6 0.9,-0.4 h 0.9 l 0.9,0.2 0.4,0.3 0.3,0.6 m -6.9,5.5 0.9,-0.4 0.6,-0.9 0.2,-1.5 -0.1,-0.9 -0.4,-1.5 -0.6,-0.9 -0.9,-0.2 h -0.6 l -0.9,0.4 -0.6,0.9 -0.2,1.5 0.1,0.9 0.4,1.5 0.6,0.9 0.9,0.2 h 0.5 m 25.1,14.5 -0.4,0.6 0.1,0.9 0.3,0.5 0.7,0.7 1.1,0.1 1.4,-0.4 1.4,-0.7 0.9,-0.8 0.3,-0.8 -0.2,-0.9 -0.1,-0.3 -0.7,-0.7 -0.8,-0.2 -0.9,0.1 -0.3,0.2 -0.7,0.6 -0.2,0.8 0.1,1 0.1,0.2 0.7,0.7 0.8,0.3 1,-0.2 m -6,-7 0.9,-0.1 0.9,0.2 0.6,0.7 0.2,0.3 0.1,0.9 -0.2,0.8 -0.7,0.7 -0.3,0.1 -0.9,0.2 -0.8,-0.3 -0.7,-0.6 -0.1,-0.3 -0.2,-0.9 0.3,-0.9 0.9,-0.8 1.3,-0.7 1.5,-0.4 1.1,0.1 0.7,0.7 0.2,0.5 0.2,1 -0.4,0.5 m 0.7,36.8 -0.6,0.1 -0.5,0.8 -0.2,0.6 0.1,0.9 0.7,0.8 1.4,0.7 1.5,0.3 h 1.2 l 0.8,-0.4 0.5,-0.8 v -0.3 -1 l -0.5,-0.7 -0.8,-0.5 -0.3,-0.1 -0.9,0.1 -0.8,0.5 -0.5,0.8 v 0.3 0.9 l 0.5,0.7 0.8,0.5 m -2.5,-7.3 v 0.9 l 0.6,0.5 0.5,0.1 0.7,-0.2 0.4,-0.5 0.6,-1.1 0.5,-0.8 0.7,-0.4 0.7,-0.2 0.9,0.3 0.5,0.4 0.2,0.4 0.1,0.9 -0.3,1.2 -0.5,0.8 -0.4,0.2 -0.6,0.1 -0.9,-0.2 -0.5,-0.4 -0.5,-0.7 v -1 l -0.1,-1.2 -0.1,-0.7 -0.5,-0.4 -0.6,-0.1 -0.7,0.1 -0.5,0.8 -0.3,1.3 m -80.3,-29.4 0.6,-0.2 1,-0.8 -0.6,6.2 m 2.3,-6.3 3.3,0.3 -2,2.2 0.9,0.1 0.5,0.4 0.3,0.3 0.2,0.9 v 0.6 l -0.4,0.9 -0.7,0.5 -0.9,0.2 h -0.9 l -0.9,-0.4 -0.2,-0.4 -0.3,-0.6 m 7.3,-4.4 -0.9,0.2 -0.4,0.6 v 0.6 l 0.2,0.6 0.6,0.3 1.2,0.5 0.8,0.3 0.6,0.7 0.2,0.6 -0.1,0.9 -0.3,0.6 -0.3,0.3 -1,0.2 -1.2,-0.1 -0.8,-0.4 -0.3,-0.4 -0.2,-0.6 v -0.9 l 0.4,-0.5 0.7,-0.6 0.9,-0.2 1.2,-0.2 0.6,-0.2 0.4,-0.6 v -0.6 l -0.2,-0.6 -0.9,-0.4 -1.3,-0.1 m 50.2,48.1 -2.1,4.7 4.4,-0.9 m -2.3,-3.8 1.3,6.1 m 2.8,-6.9 -0.8,0.5 -0.2,0.6 0.1,0.6 0.4,0.5 0.7,0.2 1.2,0.1 1,0.1 0.7,0.4 0.4,0.6 0.2,0.9 -0.2,0.6 -0.3,0.4 -0.8,0.4 -1.2,0.3 -0.9,-0.1 -0.3,-0.3 -0.5,-0.5 -0.1,-0.9 0.1,-0.6 0.5,-0.7 0.8,-0.5 1.1,-0.6 0.6,-0.4 0.1,-0.6 -0.1,-0.6 -0.4,-0.5 -0.9,-0.1 -1.3,0.2 m -69.8,-73.9 0.4,0.5 1,0.8 -6.2,1 m 6.7,0.6 0.5,3.3 -2.6,-1.4 0.1,0.9 -0.2,0.6 -0.2,0.4 -0.9,0.4 -0.6,0.1 -0.9,-0.1 -0.7,-0.5 -0.4,-0.9 -0.2,-0.8 0.2,-1 0.2,-0.3 0.6,-0.4 m 6.5,7.9 -0.5,-2.9 -2.7,0.1 0.3,0.3 0.4,0.8 0.2,0.9 -0.1,0.9 -0.5,0.7 -0.9,0.5 -0.6,0.1 -0.9,-0.2 -0.7,-0.5 -0.4,-0.8 -0.2,-0.9 0.2,-0.9 0.2,-0.4 0.5,-0.4 m 18.9,-33.7 -0.4,0.6 -0.3,1.2 -3.1,-5.5 m 1.6,5 -0.4,0.5 -0.3,1.3 -3.1,-5.5 m 1.7,6.5 -2.9,1.6 0.4,-3 -0.8,0.5 H 197 l -0.4,-0.1 -0.7,-0.6 -0.3,-0.6 -0.2,-0.9 0.3,-0.8 0.6,-0.7 0.8,-0.4 0.9,-0.2 0.4,0.1 0.6,0.4 m -1.8,71.4 -0.6,0.4 -0.7,1.1 -1,-6.2 m -0.7,6.7 -3.3,0.5 1.4,-2.7 -0.9,0.2 -0.6,-0.2 -0.3,-0.3 -0.5,-0.8 -0.1,-0.6 0.2,-0.9 0.5,-0.7 0.8,-0.5 0.9,-0.1 0.9,0.1 0.4,0.3 0.4,0.5 m -8.5,6.6 2,-6.7 m 2.2,6 -4.2,0.7 m -14,23.2 0.5,0.5 1.2,0.5 -6,2.2 m 6.7,-0.6 1.2,3.1 -2.9,-0.9 0.3,0.9 -0.1,0.6 -0.2,0.4 -0.7,0.6 -0.6,0.2 H 170 l -0.8,-0.3 -0.6,-0.8 -0.3,-0.8 v -1 l 0.2,-0.4 0.4,-0.4 m 6,7.6 -0.9,0.1 -0.8,-0.4 -0.6,-0.7 -0.1,-0.3 v -1 l 0.3,-0.7 0.8,-0.6 0.3,-0.1 0.9,-0.1 0.8,0.4 0.6,0.7 0.1,0.3 v 1 l -0.4,0.7 -1,0.7 -1.4,0.5 -1.5,0.3 -1.1,-0.3 -0.6,-0.7 -0.2,-0.6 v -0.9 l 0.5,-0.5 m -21.7,-34.9 0.7,0.1 1.2,-0.2 -3.5,5.2 m 7.2,-3 -4.8,1.8 3.7,2.5 m 1.1,-4.3 -3.5,5.2 m 7.2,-2.7 -0.9,-0.2 -1,0.4 -1.1,1 -0.5,0.8 -0.6,1.4 v 1.1 l 0.5,0.7 0.5,0.4 0.9,0.2 1,-0.4 1.1,-1 0.5,-0.8 0.6,-1.4 0.1,-1.1 -0.6,-0.7 -0.4,-0.3 m -0.4,-25.6 -0.3,-0.6 -0.9,-0.9 h 6.3 m -6.5,-1.7 -0.1,-3.3 2.5,1.8 -0.1,-0.9 0.3,-0.6 0.3,-0.3 0.9,-0.3 h 0.6 l 0.9,0.2 0.6,0.6 0.4,0.9 v 0.9 l -0.3,0.9 -0.3,0.3 -0.6,0.3 m -5.2,-9.3 6.3,2.9 m -6.3,1.3 V 329 m -25.1,17.7 0.7,0.2 h 1.3 l -4.3,4.6 m 7.6,-1.9 -5,1 3.3,3.1 m 1.7,-4.1 -4.2,4.6 m 7.4,-1.6 -0.8,-0.4 -1.1,0.3 -1.2,0.9 -0.6,0.7 -0.8,1.3 -0.2,1 0.5,0.9 0.4,0.4 0.9,0.4 1.1,-0.3 1.2,-0.9 0.6,-0.7 0.8,-1.3 0.1,-1.1 -0.4,-0.8 -0.3,-0.3 m -0.8,-25.1 0.1,0.7 0.5,1.2 -5.8,-2.5 m 5.3,4.2 -1.3,3 -1.5,-2.6 -0.4,0.8 -0.5,0.5 -0.4,0.1 -0.9,-0.1 -0.6,-0.2 -0.7,-0.6 -0.3,-0.8 0.1,-1 0.3,-0.8 0.7,-0.7 0.3,-0.2 h 0.7 m -0.9,9.7 -0.7,-0.6 -0.3,-0.8 0.1,-1 0.1,-0.2 0.6,-0.8 0.8,-0.3 1,0.1 0.2,0.1 0.8,0.7 0.3,0.7 -0.1,1 -0.1,0.3 -0.7,0.7 -0.7,0.3 -1.3,-0.2 -1.3,-0.6 -1.3,-0.9 -0.6,-0.9 0.1,-0.9 0.2,-0.6 0.6,-0.7 h 0.7 m 26.4,-16.5 -0.5,0.4 -0.8,1 -1,-6.2 m -0.7,6.7 -3.2,0.5 1.4,-2.6 -0.9,0.1 -0.7,-0.2 -0.3,-0.2 -0.4,-0.9 -0.1,-0.6 0.1,-0.9 0.5,-0.7 0.9,-0.4 0.9,-0.2 0.9,0.2 0.3,0.2 0.4,0.6 m -5.9,6.1 0.8,-0.4 0.2,-0.7 -0.1,-0.6 -0.4,-0.5 -0.6,-0.2 -1.3,-0.1 -0.9,-0.2 -0.7,-0.5 -0.4,-0.5 -0.1,-0.9 0.2,-0.7 0.2,-0.3 0.9,-0.4 1.2,-0.2 0.9,0.1 0.3,0.3 0.4,0.5 0.2,0.9 -0.2,0.7 -0.5,0.6 -0.9,0.5 -1.1,0.5 -0.5,0.4 -0.2,0.6 v 0.6 l 0.4,0.5 1,0.2 1.3,-0.2 m 101.7,104.1 2.3,2 2,-1.8 h -0.4 l -0.9,-0.4 -0.7,-0.6 -0.4,-0.8 -0.1,-0.8 0.4,-0.9 0.4,-0.5 0.8,-0.4 0.9,-0.1 0.8,0.4 0.7,0.6 0.5,0.8 v 0.5 l -0.2,0.6 m -6.7,-1.2 -0.3,0.2 -0.6,0.2 h -0.4 l -0.6,-0.1 -0.9,-0.8 -0.3,-0.7 V 420 l 0.2,-0.6 0.4,-0.5 0.6,-0.2 1,-0.3 4.3,-0.2 -3.1,-2.8 m -69.4,8 0.4,0.5 1,0.8 -6.2,0.8 m 6.6,0.9 0.4,3.3 -2.6,-1.5 0.1,0.9 -0.2,0.6 -0.3,0.3 -0.8,0.4 -0.6,0.1 -0.9,-0.2 -0.7,-0.5 -0.4,-0.9 -0.1,-0.9 0.2,-0.9 0.2,-0.3 0.6,-0.4 m 5.2,8.4 0.6,-0.4 0.2,-0.9 -0.1,-0.6 -0.4,-0.8 -1,-0.5 -1.5,-0.2 -1.5,0.2 -1.1,0.5 -0.6,0.6 -0.2,1 0.1,0.3 0.4,0.8 0.7,0.5 0.9,0.2 h 0.3 l 0.8,-0.4 0.6,-0.7 0.2,-0.9 -0.1,-0.3 -0.4,-0.9 -0.7,-0.5 -0.9,-0.2 m 63.9,49 0.4,0.5 1,0.8 -6.2,0.9 m 5.2,0.3 0.4,0.5 1,0.8 -6.2,0.9 m 5.2,0.9 h 0.3 l 0.6,0.2 0.4,0.2 0.3,0.6 0.2,1.2 -0.2,0.6 -0.2,0.4 -0.6,0.3 -0.6,0.1 -0.6,-0.2 -1,-0.4 -3.4,-2.6 0.6,4.2 m 38.2,-24.9 -1.4,-3 3,0.6 -0.4,-0.8 v -0.6 l 0.2,-0.4 0.7,-0.7 0.5,-0.2 1,-0.1 0.8,0.3 0.6,0.7 0.4,0.8 0.1,0.9 -0.2,0.4 -0.4,0.6 m -8.3,-6.1 1.2,2.7 2.6,-0.8 -0.4,-0.2 -0.6,-0.7 -0.4,-0.8 -0.1,-0.9 0.3,-0.8 0.7,-0.7 0.5,-0.2 1,-0.1 0.8,0.3 0.6,0.7 0.4,0.8 0.1,1 -0.2,0.4 -0.4,0.5 m 4.2,42.1 -0.6,0.2 -0.5,0.8 -0.1,0.6 0.2,0.9 0.8,0.8 1.4,0.5 1.5,0.3 1.2,-0.1 0.7,-0.5 0.4,-0.8 0.1,-0.3 -0.1,-0.9 -0.5,-0.7 -0.9,-0.5 h -0.3 l -0.9,0.1 -0.7,0.5 -0.4,0.8 -0.1,0.3 0.1,0.9 0.5,0.7 0.9,0.5 m -2.6,-9.7 5.7,4.1 m -6.4,0 0.7,-4.1 m -60.9,-194.9 3.4,3.9 1.1,-4.4 m -4.5,0.5 6.2,1.5 m -2.5,-7.3 0.8,0.5 0.4,0.7 0.1,0.9 v 0.3 l -0.5,0.8 -0.8,0.5 h -0.9 -0.3 l -0.8,-0.5 -0.5,-0.8 v -0.9 -0.3 l 0.5,-0.8 0.8,-0.4 h 1.2 l 1.5,0.3 1.3,0.7 0.8,0.8 0.1,0.9 -0.2,0.6 -0.5,0.8 -0.6,0.1 m 15.8,-36.5 0.5,5.1 3.4,-3 m -3.9,-2.1 4.1,4.7 m 1.2,-8.1 -0.6,-0.3 -0.9,0.4 -0.4,0.4 -0.5,0.8 0.1,1.1 0.8,1.3 1,1.1 1,0.7 0.8,0.1 0.9,-0.4 0.2,-0.2 0.5,-0.8 0.1,-0.8 -0.4,-0.9 -0.2,-0.2 -0.8,-0.5 -0.9,-0.1 -0.8,0.4 -0.3,0.2 -0.4,0.8 -0.1,0.9 0.4,0.8 m 29.8,-26.5 2.9,-1.7 -0.4,3 0.8,-0.4 0.6,-0.1 0.4,0.2 0.7,0.6 0.3,0.5 0.2,0.9 -0.2,0.9 -0.6,0.7 -0.8,0.4 -1,0.2 -0.4,-0.1 -0.5,-0.4 m 5.7,-8.1 -0.5,-0.3 -1,0.1 -0.5,0.3 -0.6,0.7 -0.1,1.1 0.5,1.5 0.7,1.3 0.8,0.9 0.9,0.2 0.9,-0.2 0.3,-0.1 0.6,-0.7 0.2,-0.8 -0.2,-1 -0.1,-0.2 -0.7,-0.7 -0.8,-0.2 -1,0.2 -0.2,0.1 -0.7,0.7 -0.2,0.9 0.2,0.9 m -45.6,-21.6 1.9,-4.8 -4.3,1.1 m 2.4,3.7 -1.5,-6.1 m -1.9,5.4 v 0.3 l -0.1,0.6 -0.2,0.4 -0.5,0.4 -1.2,0.3 -0.7,-0.1 -0.3,-0.3 -0.5,-0.5 -0.1,-0.6 0.2,-0.6 0.3,-1 2.2,-3.7 -4.1,1 m 95.2,13.2 -3.6,3.7 4.5,0.7 m -0.9,-4.4 -0.9,6.2 m 4.1,-5.7 3.3,0.5 -2.2,2.1 0.9,0.1 0.6,0.4 0.2,0.4 0.2,0.9 -0.1,0.6 -0.4,0.8 -0.7,0.6 -0.9,0.1 -0.9,-0.1 -0.9,-0.4 -0.2,-0.4 -0.2,-0.6 m -39.3,-34.6 2.5,-1.7 -1.3,-2.4 -0.1,0.4 -0.6,0.8 -0.7,0.5 -0.9,0.2 -0.9,-0.1 -0.7,-0.6 -0.4,-0.5 -0.2,-0.9 0.1,-0.8 0.6,-0.8 0.7,-0.5 1,-0.3 0.4,0.1 0.6,0.3 m -3,8.3 0.5,-0.8 v -1 l -0.6,-1.4 -0.5,-0.8 -1.1,-1 -1,-0.4 -0.9,0.2 -0.5,0.4 -0.6,0.7 v 1.1 l 0.7,1.4 0.5,0.7 1.1,1.1 1,0.4 0.9,-0.3 0.4,-0.2 M 154.5,426 l -0.4,0.5 -0.7,1.1 -1.7,-6.1 m 0.1,6.7 -3.2,0.9 1.1,-2.8 -0.8,0.3 -0.7,-0.2 -0.4,-0.2 -0.5,-0.8 -0.2,-0.5 0.1,-1 0.4,-0.7 0.8,-0.6 0.9,-0.2 h 0.9 l 0.4,0.3 0.4,0.5 m -7.2,7.3 2.9,-0.8 -0.5,-2.7 -0.2,0.3 -0.8,0.6 -0.8,0.2 h -1 l -0.7,-0.5 -0.5,-0.7 -0.2,-0.6 v -1 l 0.5,-0.7 0.8,-0.5 0.8,-0.3 1,0.1 0.3,0.2 0.5,0.5 m 23.2,13.9 -0.4,-0.5 -1.1,-0.7 6.2,-1.2 m -6.7,-0.5 -0.6,-3.2 2.7,1.3 -0.2,-0.9 0.2,-0.6 0.3,-0.4 0.8,-0.4 0.6,-0.1 0.9,0.1 0.7,0.5 0.5,0.8 0.1,0.9 -0.1,0.9 -0.2,0.4 -0.6,0.4 m -5.7,-8.1 -0.6,0.4 -0.1,1 0.1,0.6 0.5,0.8 1,0.4 1.5,0.1 1.5,-0.3 1.1,-0.5 0.5,-0.7 0.1,-1 v -0.3 l -0.5,-0.8 -0.7,-0.5 -0.9,-0.1 h -0.3 l -0.9,0.5 -0.4,0.7 -0.2,0.9 0.1,0.3 0.4,0.9 0.7,0.4 1,0.2 m 47.3,59.6 -0.2,-0.6 -0.6,-1.1 6.1,1.5 m -4.7,-2.3 -0.2,-0.6 -0.7,-1.1 6.2,1.5 m -4.5,-2.8 -0.3,-0.1 -0.5,-0.4 -0.2,-0.4 -0.2,-0.6 0.3,-1.2 0.4,-0.5 0.4,-0.2 0.6,-0.2 0.6,0.2 0.5,0.4 0.8,0.8 2.2,3.6 1,-4.1 m -22.3,59.8 -0.7,0.1 -0.5,0.8 -0.2,0.6 v 0.9 l 0.6,0.9 1.4,0.7 1.4,0.5 1.2,0.1 0.8,-0.4 0.6,-0.7 v -0.3 l 0.1,-1 -0.4,-0.7 -0.8,-0.6 -0.3,-0.1 h -0.9 l -0.8,0.4 -0.5,0.7 -0.1,0.3 v 1 l 0.3,0.7 0.8,0.6 m -1.4,-9.1 3,4.2 1.4,-4.3 m -4.4,0.1 5.9,2 m -17.9,12.8 2.9,1.5 -2.7,1.3 0.8,0.4 0.4,0.6 0.1,0.4 -0.1,0.9 -0.3,0.6 -0.7,0.6 -0.8,0.3 -1,-0.2 -0.7,-0.4 -0.7,-0.7 -0.1,-0.4 v -0.7 m 8.7,-1.1 -0.9,-0.2 -1,0.5 -1,1.2 -0.4,0.8 -0.4,1.5 0.1,1 0.7,0.7 0.5,0.3 0.9,0.2 1,-0.6 0.9,-1.1 0.5,-0.8 0.4,-1.5 -0.1,-1.1 -0.7,-0.7 -0.4,-0.2 m -41.6,-21.9 -2.1,2.6 -0.7,-2.9 -0.6,0.7 -0.6,0.3 h -0.4 l -0.9,-0.3 -0.5,-0.4 -0.5,-0.8 -0.1,-0.8 0.4,-0.9 0.5,-0.7 0.8,-0.5 0.5,-0.1 0.6,0.2 m 0.3,7.8 -2.1,2.6 -0.7,-3 -0.6,0.8 -0.6,0.2 -0.4,0.1 -0.9,-0.4 -0.5,-0.3 -0.5,-0.8 -0.1,-0.9 0.3,-0.9 0.6,-0.7 0.8,-0.5 h 0.4 l 0.7,0.1 m -26.8,26.1 -3.3,0.1 1.7,-2.4 h -0.9 l -0.6,-0.3 -0.4,-0.3 -0.3,-0.9 V 555 l 0.2,-0.9 0.6,-0.6 0.9,-0.3 0.9,-0.1 0.9,0.3 0.3,0.3 0.3,0.6 m -5.7,3.8 0.1,0.3 -0.3,0.6 -0.3,0.3 -0.6,0.4 h -1.2 l -0.6,-0.3 -0.3,-0.2 -0.3,-0.6 -0.1,-0.6 0.3,-0.6 0.6,-1 2.8,-3.1 -4.2,0.2 m 16.5,24.6 0.2,-0.2 0.7,-0.1 0.4,0.1 0.6,0.3 0.7,1 0.1,0.7 -0.1,0.4 -0.3,0.6 -0.5,0.3 -0.7,0.1 h -1.1 l -4.1,-0.8 2.3,3.5 m 6.7,-1.4 -0.7,-0.5 -0.7,0.1 -0.5,0.3 -0.3,0.6 0.1,0.6 0.4,1.2 0.2,0.9 -0.1,0.8 -0.3,0.6 -0.8,0.5 -0.6,0.1 -0.5,-0.1 -0.7,-0.5 -0.7,-1 -0.2,-0.9 v -0.5 l 0.4,-0.5 0.7,-0.5 0.7,-0.1 0.8,0.1 0.8,0.6 0.9,0.8 0.6,0.4 0.6,-0.1 0.5,-0.4 0.4,-0.6 -0.3,-0.9 -0.8,-1.1 m 58.8,-12.6 -3,-1.4 2.7,-1.4 -0.8,-0.4 -0.5,-0.5 -0.1,-0.4 0.1,-0.9 0.2,-0.6 0.7,-0.7 0.8,-0.3 0.9,0.1 0.9,0.4 0.6,0.7 0.2,0.4 v 0.6 m -8.6,1.7 0.9,0.1 0.9,-0.6 0.9,-1.2 0.4,-0.8 0.4,-1.5 -0.2,-1.1 -0.7,-0.7 -0.5,-0.2 -1,-0.1 -0.9,0.6 -0.9,1.2 -0.4,0.8 -0.3,1.5 0.1,1.1 0.7,0.6 0.4,0.2 m -18.8,24.3 -0.2,-0.2 -0.2,-0.6 v -0.4 l 0.2,-0.7 0.8,-0.8 0.7,-0.3 h 0.4 l 0.6,0.3 0.4,0.4 0.3,0.6 0.2,1.1 v 4.2 l 3,-3 m 0.5,-6.5 0.4,0.8 v 0.9 l -0.4,0.8 -0.2,0.2 -0.8,0.5 h -0.9 l -0.8,-0.5 -0.2,-0.2 -0.5,-0.8 v -0.9 l 0.4,-0.8 0.2,-0.2 0.9,-0.5 h 0.8 l 1.1,0.7 1.1,1 0.8,1.3 0.3,1 -0.5,0.9 -0.4,0.4 -0.8,0.5 -0.7,-0.3 m -38.6,-62.9 2.3,-2.3 0.5,2.9 0.6,-0.6 0.7,-0.3 h 0.4 l 0.9,0.4 0.4,0.5 0.4,0.8 v 0.8 l -0.4,0.9 -0.6,0.7 -0.8,0.4 h -0.4 l -0.7,-0.2 m 0.4,-7.8 2.3,-2.4 0.5,3 0.6,-0.7 0.7,-0.2 h 0.4 l 0.8,0.4 0.5,0.4 0.4,0.8 v 0.9 l -0.4,0.8 -0.6,0.7 -0.8,0.4 h -0.5 l -0.6,-0.1 m -33.6,11.8 3.3,0.1 -1.8,2.4 h 0.9 l 0.6,0.3 0.3,0.3 0.3,0.9 v 0.6 l -0.3,0.9 -0.6,0.6 -0.9,0.3 h -0.9 l -0.9,-0.4 -0.3,-0.3 -0.3,-0.6 m 5.9,-3.5 v -0.3 l 0.3,-0.6 0.3,-0.3 0.6,-0.3 h 1.2 l 0.6,0.3 0.3,0.3 0.3,0.7 v 0.6 l -0.3,0.5 -0.6,0.9 -3.1,3 4.2,0.1 m -6,-89.7 -0.1,0.7 0.3,1.2 -5.3,-3.3 m 3.7,3.6 v 0.7 l 0.3,1.2 -5.4,-3.4 m 3.8,3.7 -0.1,0.6 0.3,1.3 -5.3,-3.4 m 85.4,-188.7 0.6,-0.3 0.8,-0.9 0.3,6.3 m 0.8,-5.2 0.6,-0.3 0.9,-0.9 0.2,6.3 m 1.5,-6.6 3.3,-0.1 -1.7,2.4 h 0.9 l 0.6,0.3 0.3,0.3 0.4,0.9 v 0.6 l -0.3,0.9 -0.6,0.6 -0.9,0.3 -0.8,0.1 -1,-0.3 -0.3,-0.3 -0.3,-0.6 m -21.2,-33.1 0.4,0.6 1.1,0.7 -6.2,1.1 m 5.2,0.1 0.4,0.6 1,0.7 -6.2,1.1 m 5.2,0.2 0.4,0.5 1.1,0.7 -6.2,1.2 m 3.2,-53.8 0.6,-0.2 0.5,-0.8 0.1,-0.6 -0.1,-1 -0.8,-0.7 -1.4,-0.6 -1.4,-0.3 H 169 l -0.7,0.5 -0.5,0.8 v 0.3 l 0.1,1 0.5,0.7 0.8,0.4 0.3,0.1 0.9,-0.1 0.7,-0.5 0.5,-0.8 0.1,-0.3 -0.2,-0.9 -0.4,-0.7 -0.8,-0.5 m 3,6.3 -0.7,3.3 -2,-2.3 -0.2,0.9 -0.4,0.5 -0.3,0.3 -1,0.1 -0.5,-0.1 -0.9,-0.5 -0.4,-0.7 -0.2,-0.9 0.2,-0.9 0.5,-0.8 0.3,-0.3 0.7,-0.2 m 1,-6.8 -0.3,0.6 0.3,0.9 0.3,0.5 0.8,0.5 h 1.1 l 1.3,-0.7 1.3,-0.8 0.8,-1 0.1,-0.8 -0.3,-0.9 -0.2,-0.3 -0.7,-0.5 -0.9,-0.2 -0.9,0.3 -0.2,0.2 -0.6,0.8 -0.1,0.8 0.3,0.9 0.1,0.3 0.8,0.5 0.9,0.1 0.9,-0.2 m -5.5,-3 -0.2,0.2 -0.7,0.1 -0.4,-0.1 -0.6,-0.3 -0.7,-0.9 -0.1,-0.7 0.1,-0.4 0.3,-0.6 0.5,-0.4 0.6,-0.1 h 1.1 l 4.2,0.7 -2.5,-3.4 m -97.4,317.2 0.5,0.4 0.9,-0.1 0.6,-0.2 0.7,-0.6 0.2,-1.1 -0.3,-1.5 -0.6,-1.4 -0.8,-1 -0.8,-0.3 -0.9,0.1 -0.3,0.1 -0.7,0.7 -0.3,0.8 0.1,0.9 0.1,0.3 0.6,0.7 0.8,0.3 1,-0.1 0.2,-0.1 0.7,-0.6 0.3,-0.8 v -1 m -3.5,6.1 -3,1.4 0.6,-3 -0.8,0.4 h -0.6 l -0.4,-0.2 -0.7,-0.7 -0.2,-0.5 -0.1,-1 0.3,-0.8 0.7,-0.6 0.8,-0.4 1,-0.1 0.4,0.2 0.5,0.4 m 6.4,21 0.3,-0.2 0.6,-0.3 h 0.4 l 0.7,0.3 0.8,0.8 0.2,0.6 v 0.5 l -0.2,0.6 -0.4,0.4 -0.6,0.2 -1.1,0.3 h -4.2 l 2.9,2.9 m 8.2,-0.8 -6.6,2.4 m 3.6,-5.3 3,2.9 m 120.3,-332.1 0.5,0.5 h 0.9 l 0.6,-0.3 0.7,-0.6 0.3,-1 -0.3,-1.5 -0.5,-1.4 -0.7,-1 -0.8,-0.4 -1,0.1 -0.2,0.1 -0.8,0.6 -0.3,0.7 v 1 l 0.1,0.3 0.6,0.7 0.8,0.4 1,-0.1 0.2,-0.1 0.8,-0.6 0.3,-0.8 v -0.9 m -6.9,6.2 0.5,0.4 h 0.9 l 0.6,-0.2 0.7,-0.6 0.3,-1.1 -0.3,-1.5 -0.5,-1.4 -0.7,-1 -0.8,-0.4 -1,0.1 -0.3,0.1 -0.7,0.6 -0.3,0.8 v 0.9 l 0.1,0.3 0.6,0.7 0.8,0.4 1,-0.1 0.2,-0.1 0.8,-0.6 0.3,-0.8 v -0.9 m 21.8,6.3 0.4,5.1 3.4,-2.9 m -3.8,-2.2 4,4.8 m -0.6,-5.6 -0.2,-0.3 -0.1,-0.6 V 190 l 0.3,-0.6 0.9,-0.7 0.6,-0.2 h 0.5 l 0.6,0.3 0.4,0.5 0.1,0.6 0.1,1.1 -0.3,4.2 3.2,-2.7 m 13.9,-36.4 -0.6,0.3 -0.2,0.9 v 0.6 l 0.4,0.9 0.9,0.5 1.5,0.2 1.5,-0.1 1.2,-0.4 0.6,-0.7 0.2,-0.9 v -0.3 l -0.4,-0.9 -0.7,-0.5 -0.9,-0.2 h -0.3 l -0.9,0.4 -0.5,0.6 -0.2,0.9 v 0.3 l 0.4,0.9 0.6,0.6 0.9,0.2 m -2.8,-8.8 0.9,0.3 0.7,0.5 0.4,0.9 v 0.3 l -0.2,0.9 -0.6,0.6 -0.9,0.4 h -0.3 l -0.9,-0.2 -0.6,-0.5 -0.4,-0.9 v -0.3 l 0.2,-0.9 0.6,-0.7 1.1,-0.4 1.5,-0.1 1.5,0.2 1,0.5 0.4,0.9 v 0.6 l -0.2,0.9 -0.6,0.4 m -22.7,-5.2 0.6,-0.3 0.3,-0.9 V 147 l -0.3,-0.9 -0.9,-0.6 -1.5,-0.3 h -1.5 l -1.2,0.3 -0.6,0.6 -0.3,0.9 v 0.3 l 0.3,0.9 0.6,0.6 0.9,0.3 h 0.3 l 0.9,-0.3 0.6,-0.6 0.3,-0.9 V 147 l -0.3,-0.9 -0.6,-0.6 -0.9,-0.3 m 4.1,8.7 0.1,-3 -2.7,-0.4 0.3,0.3 0.3,1 v 0.9 l -0.4,0.8 -0.6,0.6 -0.9,0.3 h -0.6 l -0.9,-0.3 -0.6,-0.6 -0.2,-0.9 v -0.9 l 0.3,-0.9 0.3,-0.3 0.6,-0.3 m 35.6,-96.3 0.3,0.6 0.9,0.3 h 0.6 l 0.9,-0.3 0.6,-0.9 0.3,-1.5 v -1.5 l -0.3,-1.2 -0.6,-0.6 -0.9,-0.3 h -0.3 l -0.9,0.3 -0.6,0.6 -0.3,0.9 v 0.3 l 0.3,0.9 0.6,0.6 0.9,0.3 h 0.3 l 0.9,-0.3 0.6,-0.6 0.3,-0.9 m -9.1,4.2 3,-6.3 m 1.2,6.3 h -4.2 m -22.3,0 0.3,0.5 1,0.3 0.5,-0.1 0.9,-0.4 0.5,-0.9 0.2,-1.6 -0.2,-1.4 -0.4,-1.2 -0.6,-0.6 -0.9,-0.2 -0.3,0.1 -0.9,0.3 -0.6,0.7 -0.2,0.9 0.1,0.3 0.3,0.9 0.7,0.5 0.9,0.2 h 0.3 l 0.9,-0.4 0.5,-0.6 0.2,-0.9 m -4.6,3.2 -0.6,0.3 -0.8,1 -0.6,-6.2 m 33.5,66.5 -0.6,-0.3 -0.9,0.3 -0.5,0.4 -0.5,0.8 v 1 l 0.7,1.4 0.8,1.2 1,0.8 0.8,0.1 0.9,-0.2 0.3,-0.2 0.5,-0.8 0.2,-0.8 -0.3,-0.9 -0.2,-0.3 -0.8,-0.5 -0.8,-0.2 -0.9,0.3 -0.3,0.2 -0.5,0.8 -0.1,0.8 0.2,0.9 m 2.8,-7.2 -0.5,0.7 0.1,0.7 0.4,0.5 0.6,0.3 0.6,-0.1 1.2,-0.5 0.9,-0.3 0.8,0.1 0.6,0.4 0.5,0.7 0.1,0.6 v 0.5 l -0.6,0.7 -0.9,0.7 -0.9,0.3 h -0.5 l -0.5,-0.3 -0.6,-0.8 -0.1,-0.6 0.1,-0.9 0.6,-0.7 0.8,-1 0.3,-0.6 -0.1,-0.6 -0.4,-0.5 -0.6,-0.3 -0.9,0.3 -1.1,0.8 m 39.9,-0.4 2.8,1.8 -2.8,1 0.7,0.5 0.4,0.6 v 0.4 l -0.2,0.9 -0.3,0.5 -0.7,0.6 -0.9,0.2 -0.9,-0.2 -0.8,-0.5 -0.5,-0.8 -0.1,-0.4 v -0.7 m 10,0.3 -4.8,1.9 3.8,2.4 m 1,-4.3 -3.4,5.3 m 11.5,-6.1 3.6,3.7 0.8,-4.4 m -4.4,0.7 6.2,1.1 m -5.4,-5.4 0.1,0.9 0.8,0.8 1.4,0.5 0.9,0.2 1.6,-0.1 1,-0.4 0.4,-0.9 0.1,-0.6 -0.1,-0.9 -0.8,-0.7 -1.5,-0.6 -0.8,-0.1 h -1.6 l -1,0.4 -0.4,0.9 -0.1,0.4 m -9.4,-63.3 -3.2,0.6 1.4,-2.7 -0.9,0.2 -0.7,-0.2 -0.3,-0.3 -0.5,-0.8 -0.1,-0.6 0.2,-0.9 0.4,-0.7 0.9,-0.5 0.9,-0.1 0.9,0.1 0.4,0.3 0.4,0.5 m -8,6.6 3,-0.6 -0.2,-2.7 -0.2,0.4 -0.9,0.4 -0.8,0.2 -1,-0.1 -0.7,-0.5 -0.4,-0.9 -0.1,-0.6 0.1,-0.9 0.5,-0.7 0.8,-0.4 0.9,-0.2 1,0.1 0.3,0.3 0.4,0.5 m 46.9,47.3 -3.9,3.4 4.4,1.1 m -0.5,-4.5 -1.5,6.1 m 7.2,-4.7 -4,3.4 4.4,1 m -0.4,-4.4 -1.5,6.1 m 1.9,-57.2 3,-0.3 v -2.7 l -0.3,0.3 -0.9,0.4 -0.9,0.1 -0.9,-0.2 -0.6,-0.6 -0.4,-0.8 -0.1,-0.6 0.2,-0.9 0.6,-0.7 0.8,-0.4 0.9,-0.1 0.9,0.2 0.4,0.3 0.3,0.6 m -5.4,4.1 v 0.3 l -0.2,0.7 -0.3,0.3 -0.6,0.4 -1.2,0.1 -0.6,-0.3 -0.3,-0.2 -0.4,-0.6 v -0.6 l 0.2,-0.6 0.5,-1 2.7,-3.3 -4.2,0.5 m 75.2,7.2 -3.7,-3.6 -0.7,4.5 m 4.4,-0.9 -6.2,-0.9 m 5.5,5.3 -0.2,-0.9 -0.8,-0.8 -1.4,-0.5 -0.9,-0.1 -1.5,0.1 -1,0.4 -0.5,0.9 V 48 l 0.1,0.9 0.8,0.7 1.5,0.5 0.8,0.2 1.6,-0.1 1,-0.5 0.4,-0.8 0.1,-0.4 m 24.6,-18.2 -3.3,0.3 1.5,-2.6 -0.9,0.1 -0.6,-0.2 -0.3,-0.3 -0.4,-0.9 -0.1,-0.6 0.2,-0.9 0.6,-0.6 0.8,-0.4 0.9,-0.1 0.9,0.2 0.4,0.3 0.3,0.5 m -8.9,3.9 0.2,-0.9 0.6,-0.6 0.8,-0.4 0.3,-0.1 1,0.2 0.6,0.6 0.4,0.9 V 29 l -0.2,0.9 -0.5,0.6 -0.9,0.4 -0.3,0.1 -0.9,-0.3 -0.6,-0.5 -0.5,-1.2 -0.1,-1.4 0.1,-1.6 0.5,-0.9 0.9,-0.4 0.6,-0.1 0.9,0.2 0.4,0.6 m -26.1,63.2 2.7,-1.8 -0.1,3 0.7,-0.5 0.7,-0.1 0.4,0.1 0.7,0.6 0.4,0.5 0.2,0.9 -0.1,0.8 -0.6,0.8 -0.8,0.5 -0.9,0.2 -0.4,-0.1 -0.6,-0.3 m 5,-9.5 1,6.9 m -4.5,-4.5 3.5,-2.4 m -20.9,11.5 -4.8,-1.8 1.1,4.3 m 3.7,-2.5 -6.1,1.6 m 5.3,1.3 0.4,0.5 1.1,0.7 -6.1,1.5 m 2.4,-69.5 1.3,-5 -4.2,1.7 m 2.9,3.3 -2.3,-5.8 m -1.5,7.3 0.7,-0.6 v -0.7 l -0.2,-0.5 -0.5,-0.5 h -0.6 l -1.3,0.1 -0.9,0.1 -0.8,-0.4 -0.5,-0.4 -0.3,-0.8 v -0.7 l 0.2,-0.4 0.7,-0.6 1.1,-0.5 h 1 l 0.4,0.2 0.5,0.4 0.3,0.8 -0.1,0.7 -0.3,0.8 -0.7,0.6 -1,0.7 -0.5,0.5 v 0.7 l 0.2,0.6 0.5,0.4 0.9,-0.1 1.3,-0.5 m 8.5,13.2 v -3.3 l 2.4,1.9 v -0.9 l 0.3,-0.6 0.3,-0.3 0.9,-0.3 h 0.6 l 0.9,0.3 0.6,0.6 0.3,0.9 v 0.9 l -0.3,0.9 -0.3,0.3 -0.6,0.3 m -5.1,-8.6 4.2,3.1 v -4.5 m -4.2,1.4 6.3,0.1 m -26.2,64.7 4.3,2.9 -0.2,-4.5 m -4.1,1.6 6.3,-0.2 m -4.9,-2.4 -0.3,-0.6 -1,-0.9 6.3,-0.2 m -8.3,1.7 -2.9,-0.7 -0.9,2.5 0.3,-0.2 1,-0.1 0.9,0.2 0.8,0.5 0.4,0.8 0.1,0.9 -0.2,0.6 -0.5,0.8 -0.7,0.4 -1,0.1 -0.8,-0.2 -0.8,-0.5 -0.3,-0.4 -0.1,-0.6 m 6,-2.3 0.7,-0.2 1.1,-0.6 -1.6,6.1 m 95.4,-36.9 3.3,0.4 -2.1,2.2 0.9,0.1 0.5,0.4 0.3,0.3 0.2,0.9 -0.1,0.6 -0.4,0.9 -0.7,0.5 -0.9,0.2 -0.9,-0.1 -0.9,-0.4 -0.2,-0.4 -0.2,-0.6 m 9.9,-3.9 -3.7,5.9 M 486,71 l 4.1,0.5 m 18.4,2 v 3 l 2.7,0.3 -0.3,-0.3 -0.3,-0.9 v -0.9 l 0.3,-0.9 0.6,-0.6 0.9,-0.3 h 0.6 l 0.9,0.3 0.6,0.6 0.3,0.9 v 0.9 l -0.3,0.9 -0.3,0.3 -0.6,0.3 m -3.7,-5.3 -0.3,-0.6 -0.9,-0.9 h 6.3 m -6.8,-29 4.2,3 v -4.5 m -4.2,1.5 h 6.3 m -6.3,-5.8 4.2,3 -0.1,-4.5 m -4.1,1.5 h 6.3 m -17.1,-9.1 -3.3,0.2 1.7,-2.5 -0.9,0.1 -0.6,-0.3 -0.4,-0.3 -0.3,-0.8 -0.1,-0.6 0.3,-1 0.5,-0.6 0.9,-0.4 h 0.9 l 0.9,0.2 0.4,0.3 0.3,0.6 m -9,3.6 0.2,-0.9 0.6,-0.7 0.8,-0.3 h 0.3 l 1,0.2 0.6,0.6 0.4,0.8 v 0.3 l -0.3,0.9 -0.5,0.7 -0.9,0.3 -0.3,0.1 -0.9,-0.3 -0.7,-0.5 -0.3,-1.2 -0.1,-1.5 0.2,-1.5 0.5,-1 0.9,-0.3 0.6,-0.1 0.9,0.3 0.3,0.6 m -300.5,87.9 3.2,0.9 -2.4,1.8 0.8,0.2 0.5,0.5 0.2,0.4 0.1,0.9 -0.2,0.6 -0.5,0.8 -0.8,0.4 h -0.9 l -0.9,-0.2 -0.8,-0.5 -0.2,-0.4 -0.1,-0.7 m 6.1,-2.1 0.6,-0.1 1.2,-0.6 -1.8,6 M 190,50.8 v 0.3 l -0.4,0.5 -0.4,0.2 -0.6,0.2 -1.2,-0.1 -0.5,-0.4 -0.3,-0.4 -0.2,-0.6 0.1,-0.6 0.4,-0.6 0.7,-0.8 3.5,-2.4 -4.2,-0.7 m -5.7,5.4 3,0.5 0.7,-2.6 -0.3,0.3 -0.9,0.1 -0.9,-0.1 -0.9,-0.5 -0.5,-0.7 -0.1,-0.9 0.1,-0.6 0.4,-0.8 0.7,-0.5 1,-0.2 0.8,0.2 0.9,0.4 0.2,0.4 0.2,0.6 m -74.7,63.5 0.6,-0.3 0.7,-1 0.8,6.2 m 2.2,-6.8 -0.9,0.4 -0.5,1 -0.1,1.5 0.1,0.9 0.4,1.5 0.7,0.8 1,0.2 0.6,-0.1 0.8,-0.4 0.5,-0.9 0.1,-1.5 -0.1,-0.9 -0.4,-1.5 -0.7,-0.8 -0.9,-0.2 h -0.5 m 4,-0.4 3.2,-0.4 -1.5,2.6 0.9,-0.1 0.6,0.2 0.4,0.3 0.4,0.9 v 0.6 l -0.2,0.9 -0.5,0.6 -0.8,0.4 -0.9,0.1 -1,-0.2 -0.3,-0.2 -0.4,-0.6 M 41.5,59.9 41.9,59 41.6,58.4 41.1,58 l -0.6,-0.1 -0.7,0.3 -0.9,0.7 -0.8,0.5 -0.9,0.1 -0.6,-0.1 -0.7,-0.6 -0.3,-0.6 -0.1,-0.4 0.4,-0.9 0.7,-0.9 0.8,-0.6 h 0.4 l 0.7,0.1 0.7,0.6 0.3,0.6 0.1,0.8 -0.4,0.9 -0.5,1.2 -0.1,0.6 0.3,0.6 0.4,0.4 0.7,0.1 0.8,-0.5 0.8,-1 M 38,64.3 38.4,63.4 38,62.4 37,61.2 36.3,60.7 35,60 l -1.1,-0.1 -0.8,0.5 -0.4,0.5 -0.3,0.9 0.3,1 1,1.2 0.7,0.5 1.4,0.7 1.1,0.1 0.8,-0.5 0.2,-0.4 m -5.2,43.4 -6.8,-1.5 m 5.9,-2.6 0.9,4.1 m 1.2,5.1 -6.8,-1.5 m 5.9,-2.6 0.9,4.1 M 128.6,35 h -0.7 l -1.2,0.5 2.4,-5.8 m -5.2,4.9 1,0.1 0.9,-0.6 0.8,-1.3 0.4,-0.8 0.3,-1.5 -0.2,-1.1 -0.8,-0.6 -0.5,-0.3 h -1 l -0.9,0.6 -0.8,1.3 -0.4,0.8 -0.2,1.5 0.2,1.1 0.7,0.6 0.4,0.1 m -5.9,-4.7 0.6,-0.7 0.8,-0.3 h 0.9 l 0.3,0.2 0.7,0.6 0.3,0.8 v 0.9 l -0.2,0.3 -0.6,0.7 -0.8,0.3 H 119 l -0.3,-0.2 -0.7,-0.6 -0.3,-0.8 0.2,-1.2 0.5,-1.4 0.9,-1.2 0.9,-0.6 h 0.9 l 0.6,0.3 0.7,0.6 v 0.6 m -47.3,5.9 2.7,-1.4 -0.9,-2.5 -0.1,0.4 -0.7,0.6 -0.8,0.4 -0.9,0.2 -0.8,-0.3 -0.7,-0.7 -0.3,-0.5 -0.1,-1 0.3,-0.8 0.7,-0.6 0.8,-0.4 0.9,-0.2 0.4,0.2 0.5,0.4 m -3.2,117.4 7,-0.1 m -5.2,3.9 -1.8,-3.8 m -0.4,-5.5 1,-0.1 0.8,0.3 0.6,0.7 0.2,0.2 0.1,1 -0.3,0.8 -0.6,0.6 -0.3,0.2 -1,0.1 -0.8,-0.3 -0.6,-0.7 -0.2,-0.2 -0.1,-1 0.3,-0.8 0.9,-0.8 1.4,-0.6 1.5,-0.4 1,0.1 0.7,0.7 0.3,0.5 0.1,1 -0.4,0.5 m -2.2,46.6 5.5,4.3 m -6.4,-0.2 0.9,-4.1 m 0.6,-2.6 0.1,1 0.5,0.4 0.6,0.1 0.6,-0.2 0.4,-0.5 0.6,-1.1 0.5,-0.8 0.7,-0.5 0.6,-0.1 0.9,0.1 0.5,0.5 0.3,0.3 0.1,1 -0.3,1.1 -0.5,0.8 -0.3,0.3 -0.7,0.1 -0.8,-0.1 -0.6,-0.5 -0.4,-0.7 -0.1,-0.9 -0.1,-1.2 -0.2,-0.7 -0.5,-0.4 -0.6,-0.1 -0.6,0.1 -0.5,0.8 -0.3,1.4 m -18.7,14.1 -5.3,4.6 m 1.4,-6.3 3.9,1.7 m 3.9,1.6 -4.4,2.7 4.1,1.8 m 0.3,-4.5 -2.5,5.8 m -31.7,-18.7 -0.7,0.7 -0.8,0.2 -0.9,-0.1 -0.3,-0.1 -0.7,-0.7 -0.2,-0.8 0.1,-0.9 0.1,-0.3 0.7,-0.7 0.8,-0.2 0.9,0.1 0.3,0.1 0.7,0.7 0.2,0.8 -0.2,1.2 -0.7,1.3 -0.9,1.3 -1,0.5 -0.9,-0.1 -0.5,-0.3 -0.7,-0.7 v -0.6 m 9.2,0.8 -0.7,0.7 -0.8,0.3 -0.9,-0.1 -0.3,-0.2 -0.6,-0.6 -0.3,-0.8 0.1,-1 0.1,-0.3 0.7,-0.6 0.8,-0.3 1,0.1 0.2,0.2 0.7,0.6 0.3,0.8 -0.3,1.2 -0.7,1.4 -0.9,1.2 -0.9,0.5 -1,-0.1 -0.5,-0.3 -0.7,-0.6 v -0.7 m 13,-44.8 -0.2,0.6 -0.1,1.3 -4.2,-4.7 m 2.2,6.8 0.5,-0.8 -0.2,-1.1 -0.8,-1.3 -0.6,-0.7 -1.2,-0.9 -1.1,-0.2 -0.8,0.4 -0.5,0.4 -0.4,0.8 0.1,1.1 0.8,1.3 0.6,0.7 1.3,0.9 1,0.2 0.9,-0.4 0.3,-0.3 m -3.4,1.2 -0.2,0.6 -0.1,1.3 -4.2,-4.6 m -0.8,20.7 -0.8,-0.5 -0.5,-0.8 -0.1,-0.9 0.1,-0.3 0.5,-0.8 0.7,-0.5 h 1 0.3 l 0.8,0.5 0.4,0.7 0.1,1 -0.1,0.3 -0.5,0.8 -0.7,0.4 -1.2,0.1 -1.5,-0.4 -1.4,-0.6 -0.7,-0.8 -0.1,-1 0.1,-0.5 0.5,-0.8 0.7,-0.2 m 2.5,9.2 0.6,-0.2 0.5,-0.8 0.1,-0.6 V 173 l -0.8,-0.8 -1.4,-0.7 -1.4,-0.3 h -1.3 l -0.7,0.5 -0.5,0.8 -0.1,0.3 0.1,0.9 0.5,0.7 0.8,0.5 0.3,0.1 0.9,-0.1 0.7,-0.4 0.5,-0.8 0.1,-0.3 -0.1,-1 -0.4,-0.7 -0.8,-0.5 m 299.3,8.8 1.3,-5 -4.2,1.6 m 2.9,3.4 -2.3,-5.9 m -4.6,6.2 v -1 l 0.3,-0.7 0.7,-0.6 0.3,-0.1 1,-0.1 0.7,0.4 0.6,0.7 0.1,0.3 0.1,0.9 -0.4,0.8 -0.7,0.6 -0.3,0.1 h -0.9 l -0.8,-0.3 -0.7,-1 -0.5,-1.4 -0.3,-1.5 0.2,-1.1 0.8,-0.6 0.5,-0.2 h 1 l 0.5,0.4 m 36,49.8 -0.7,5.1 4,-2.1 m -3.3,-3 3,5.5 m 3,-8.6 0.3,7 m -4,-5 3.7,-2 m -1.8,-45.7 3.5,-3.8 -4.5,-0.5 m 1,4.3 0.8,-6.3 m -6.9,4.6 0.3,0.7 0.8,0.4 h 0.6 l 0.9,-0.2 0.7,-0.8 0.5,-1.5 0.2,-1.4 -0.2,-1.3 -0.5,-0.6 -0.9,-0.4 -0.3,-0.1 -0.9,0.2 -0.7,0.5 -0.4,0.9 v 0.3 l 0.2,0.9 0.5,0.7 0.9,0.4 h 0.3 l 0.9,-0.2 0.7,-0.5 0.4,-0.8 m 41.1,17.8 -2.9,-1.5 2.7,-1.3 -0.8,-0.4 -0.4,-0.6 -0.2,-0.4 0.2,-0.9 0.3,-0.5 0.6,-0.7 0.8,-0.3 1,0.2 0.8,0.4 0.6,0.7 0.2,0.4 v 0.7 m -8.5,1.3 1,0.2 0.5,-0.4 0.3,-0.5 v -0.7 l -0.4,-0.5 -0.9,-0.9 -0.7,-0.6 -0.2,-0.9 v -0.6 l 0.4,-0.8 0.5,-0.4 0.4,-0.1 1,0.1 1,0.5 0.7,0.7 0.1,0.4 v 0.7 l -0.4,0.8 -0.5,0.4 -0.8,0.3 -1,-0.2 -1.2,-0.3 h -0.7 l -0.5,0.4 -0.3,0.5 v 0.7 l 0.7,0.7 1.2,0.6 m -9.8,47.1 -4.7,-2.1 0.9,4.4 m 3.8,-2.3 -6.2,1.3 m 7.5,5.3 -6.8,-1.7 m 5.9,-2.4 0.9,4.1 m 14.2,10.7 -4.5,2.6 4.1,1.9 m 0.4,-4.5 -2.7,5.7 m 5.6,-4.3 3,1.4 -2.7,1.4 0.8,0.4 0.5,0.5 0.1,0.4 -0.1,1 -0.3,0.5 -0.6,0.7 -0.8,0.3 -0.9,-0.1 -0.9,-0.4 -0.7,-0.6 -0.1,-0.4 v -0.7 m 15.8,-4.5 2.6,4.4 1.8,-4.1 m -4.4,-0.3 5.8,2.5 m -3.3,-8.2 -1.2,2.7 2.4,1.4 -0.2,-0.4 0.1,-1 0.3,-0.8 0.7,-0.7 0.8,-0.3 0.9,0.1 0.6,0.2 0.7,0.6 0.3,0.8 -0.1,1 -0.3,0.8 -0.7,0.7 -0.4,0.2 h -0.6 m 23.9,-55.3 -3.3,0.2 1.7,-2.5 -0.9,0.1 -0.7,-0.3 -0.3,-0.3 -0.3,-0.8 -0.1,-0.6 0.3,-1 0.5,-0.6 0.9,-0.3 0.9,-0.1 0.9,0.2 0.4,0.3 0.3,0.6 m -6.5,5.5 0.8,-0.3 0.3,-0.7 v -0.6 l -0.4,-0.5 -0.6,-0.3 -1.2,-0.2 -0.9,-0.3 -0.6,-0.5 -0.4,-0.6 v -0.9 l 0.2,-0.6 0.3,-0.4 0.9,-0.3 1.2,-0.1 0.9,0.3 0.3,0.2 0.4,0.6 v 0.9 l -0.3,0.6 -0.5,0.7 -0.9,0.3 -1.2,0.4 -0.6,0.3 -0.2,0.6 v 0.6 l 0.3,0.6 1,0.3 1.3,-0.1 m 15.4,17.7 -0.1,-3.3 2.5,1.7 V 213 l 0.2,-0.6 0.3,-0.3 0.9,-0.3 h 0.6 l 0.9,0.3 0.6,0.5 0.4,0.9 v 0.9 l -0.3,0.9 -0.3,0.3 -0.5,0.4 m -4.5,-8.8 -0.6,0.3 -0.3,0.9 v 0.6 l 0.4,0.9 0.9,0.5 1.5,0.3 1.5,-0.1 1.2,-0.3 0.6,-0.6 0.2,-0.9 v -0.3 l -0.3,-0.9 -0.6,-0.6 -0.9,-0.3 h -0.3 l -0.9,0.4 -0.6,0.6 -0.3,0.9 v 0.3 l 0.4,0.9 0.6,0.6 0.9,0.2 m -15.5,17.6 -2.2,4.7 4.4,-0.8 m -2.2,-3.9 1.1,6.2 m 5.1,-7.2 -3,0.5 0.2,2.7 0.2,-0.3 0.9,-0.5 0.9,-0.1 0.9,0.1 0.7,0.5 0.4,0.9 0.1,0.6 -0.1,0.9 -0.5,0.7 -0.8,0.4 -0.9,0.2 -1,-0.2 -0.3,-0.2 -0.4,-0.5 m -202,311 0.6,-0.2 0.5,-0.8 0.1,-0.6 -0.1,-1 -0.8,-0.7 -1.4,-0.6 -1.4,-0.3 h -1.3 l -0.7,0.5 -0.5,0.8 v 0.3 l 0.1,0.9 0.4,0.7 0.9,0.5 0.3,0.1 0.9,-0.1 0.7,-0.5 0.5,-0.8 0.1,-0.3 -0.2,-0.9 -0.4,-0.8 -0.8,-0.4 m 2.5,8.9 -3.5,-3.8 -1,4.4 m 4.5,-0.6 -6.2,-1.3 m 47.6,-14.7 -0.5,0.4 -0.1,1 0.2,0.6 0.5,0.7 1.1,0.4 1.5,-0.1 1.4,-0.4 1.1,-0.7 0.4,-0.7 0.1,-0.9 -0.1,-0.3 -0.6,-0.8 -0.7,-0.4 -0.9,-0.1 -0.3,0.1 -0.8,0.5 -0.4,0.8 -0.1,0.9 0.1,0.3 0.5,0.8 0.8,0.4 0.9,0.1 m -4,-4.1 -0.5,-0.5 -1.1,-0.6 6.1,-1.7 m -32.5,113.3 -0.1,-0.3 v -0.7 l 0.2,-0.4 0.4,-0.5 1.1,-0.4 h 0.7 l 0.4,0.2 0.5,0.4 0.2,0.6 v 0.6 l -0.3,1.1 -1.6,3.9 3.9,-1.6 m 2.3,-6.8 -0.5,-0.4 h -0.9 l -0.6,0.3 -0.7,0.6 -0.2,1 0.3,1.5 0.6,1.4 0.7,1 0.8,0.4 0.9,-0.1 0.3,-0.1 0.7,-0.7 0.3,-0.7 v -1 l -0.1,-0.3 -0.7,-0.7 -0.7,-0.3 -1,0.1 -0.3,0.1 -0.7,0.6 -0.3,0.8 0.1,0.9 m 66.9,-85.9 -0.1,0.3 -0.4,0.5 -0.4,0.3 -0.6,0.1 -1.2,-0.3 -0.5,-0.4 -0.2,-0.4 -0.1,-0.7 0.1,-0.5 0.4,-0.5 0.9,-0.8 3.6,-2.1 -4.1,-1.1 m -6.1,4.9 2.9,0.8 1,-2.5 -0.4,0.2 h -1 l -0.8,-0.2 -0.8,-0.5 -0.5,-0.7 v -1 l 0.1,-0.6 0.5,-0.8 0.8,-0.4 0.9,-0.1 0.9,0.3 0.8,0.5 0.2,0.3 0.1,0.7 m -112.8,46.5 0.2,0.2 0.2,0.7 0.1,0.4 -0.2,0.6 -0.9,0.9 -0.6,0.2 h -0.4 l -0.7,-0.2 -0.4,-0.4 -0.2,-0.6 -0.3,-1.1 -0.1,-4.2 -2.9,3.1 m -0.4,6.5 -0.4,-0.8 -0.1,-0.9 0.4,-0.8 0.3,-0.2 0.8,-0.5 h 0.8 l 0.9,0.4 0.2,0.2 0.5,0.8 v 0.9 l -0.4,0.8 -0.2,0.3 -0.9,0.4 h -0.8 l -1.1,-0.6 -1.1,-1 -0.9,-1.3 -0.2,-1 0.4,-0.9 0.4,-0.4 0.8,-0.5 0.7,0.2 m -12.9,33.8 0.3,-0.2 0.6,-0.1 0.4,0.1 0.7,0.2 0.7,1 0.1,0.6 v 0.5 l -0.3,0.6 -0.5,0.3 -0.6,0.2 -1.1,0.1 -4.2,-0.6 2.6,3.3 m 6,-2.5 2,2.6 -3,0.1 0.6,0.7 0.1,0.7 v 0.4 l -0.6,0.8 -0.4,0.3 -0.9,0.4 -0.9,-0.1 -0.8,-0.6 -0.5,-0.7 -0.3,-0.9 v -0.4 l 0.3,-0.6 m 25.6,10 -0.1,-0.3 0.3,-0.7 0.2,-0.3 0.6,-0.4 1.2,-0.1 0.6,0.3 0.4,0.3 0.3,0.5 0.1,0.6 -0.3,0.6 -0.5,1 -2.7,3.3 4.2,-0.4 m 3.7,-6.8 -2.6,4.5 4.5,-0.4 m -1.9,-4.1 0.6,6.3 m 95.4,-50.1 0.1,-0.7 -0.3,-1.2 5.4,3.2 m -3.9,-3.5 0.1,-0.7 -0.3,-1.2 5.4,3.2 m -4.1,-5.9 -0.2,1 0.4,0.9 1.2,1.1 0.8,0.4 1.4,0.5 1.1,-0.1 0.7,-0.6 0.3,-0.5 0.2,-0.9 -0.5,-1 -1.1,-1 -0.8,-0.5 -1.4,-0.5 -1.1,0.1 -0.7,0.6 -0.3,0.4 m -35.6,38 0.7,-0.1 1.2,-0.5 -2.3,5.9 m 5.1,-5 -1,-0.1 -0.8,0.7 -0.9,1.3 -0.3,0.8 -0.3,1.5 0.3,1.1 0.7,0.6 0.6,0.2 h 0.9 l 0.9,-0.6 0.8,-1.3 0.3,-0.8 0.3,-1.5 -0.2,-1.1 -0.8,-0.6 -0.4,-0.2 m 6.2,3.4 v -0.6 l -0.8,-0.7 -0.5,-0.2 h -1 l -0.9,0.6 -0.8,1.3 -0.5,1.4 -0.2,1.2 0.4,0.8 0.7,0.6 0.3,0.1 0.9,0.1 0.8,-0.4 0.6,-0.7 0.1,-0.3 0.1,-0.9 -0.4,-0.8 -0.7,-0.6 -0.3,-0.1 -0.9,-0.1 -0.8,0.4 -0.6,0.7 m 129.4,-184.7 0.5,0.8 0.7,0.1 0.6,-0.2 0.4,-0.4 0.2,-0.7 -0.1,-1.2 0.1,-1 0.4,-0.7 0.5,-0.5 0.8,-0.2 0.7,0.1 0.4,0.2 0.5,0.8 0.3,1.2 v 0.9 l -0.2,0.4 -0.5,0.4 -0.9,0.3 -0.6,-0.1 -0.8,-0.4 -0.5,-0.8 -0.6,-1.1 -0.5,-0.5 -0.6,-0.1 -0.6,0.2 -0.5,0.4 -0.1,1 0.4,1.3 m -1.5,-5.3 0.5,0.8 0.7,0.1 0.6,-0.2 0.5,-0.4 0.1,-0.7 -0.1,-1.2 0.1,-1 0.4,-0.7 0.5,-0.5 0.8,-0.2 0.7,0.1 0.4,0.2 0.5,0.8 0.3,1.1 v 1 l -0.2,0.3 -0.5,0.5 -0.9,0.2 -0.6,-0.1 -0.8,-0.4 -0.5,-0.8 -0.6,-1 -0.5,-0.5 -0.6,-0.1 -0.6,0.1 -0.5,0.5 v 0.9 l 0.3,1.3 m -75.7,0.9 -4.7,-5.2 m 6.3,1.3 -1.6,3.9 m -2,1 0.2,0.1 0.5,0.5 0.1,0.4 0.1,0.7 -0.5,1.1 -0.5,0.4 -0.4,0.2 h -0.7 l -0.5,-0.2 -0.4,-0.5 -0.6,-0.9 -1.6,-4 -1.7,3.9 m 54.6,-70.9 -0.6,-0.1 -1.3,0.3 3.6,-5.2 m -4.2,3.2 -0.2,0.2 -0.6,0.3 -0.4,0.1 -0.7,-0.1 -0.9,-0.7 -0.4,-0.6 v -0.4 l 0.1,-0.7 0.3,-0.5 0.6,-0.3 1,-0.4 4.2,-0.7 -3.4,-2.4 m -5.8,3.6 0.9,0.3 0.6,-0.3 0.3,-0.5 0.1,-0.7 -0.3,-0.6 -0.8,-0.9 -0.6,-0.8 -0.1,-0.8 0.1,-0.7 0.5,-0.7 0.6,-0.3 0.4,-0.1 0.9,0.3 1,0.7 0.6,0.7 v 0.4 l -0.1,0.7 -0.5,0.7 -0.6,0.4 -0.8,0.1 -0.9,-0.3 -1.2,-0.4 -0.6,-0.1 -0.6,0.3 -0.4,0.5 -0.1,0.7 0.6,0.7 1.1,0.8 m 65,37.6 -0.4,0.8 -0.8,0.4 -0.9,0.1 -0.3,-0.1 -0.8,-0.5 -0.5,-0.7 v -0.9 -0.3 l 0.5,-0.8 0.7,-0.5 1,-0.1 0.3,0.1 0.8,0.5 0.4,0.7 v 1.3 l -0.3,1.4 -0.6,1.4 -0.8,0.7 -1,0.1 -0.6,-0.1 -0.8,-0.5 -0.1,-0.7 m 9.8,-3.2 -4.4,5.4 m 0.3,-6.4 4.1,1 m 0.6,-3.4 -0.6,-0.2 -1.3,-0.2 5,-3.9 m -6.2,2.6 -2,-2.6 h 3 l -0.6,-0.7 -0.1,-0.7 0.1,-0.4 0.5,-0.8 0.5,-0.4 0.9,-0.3 0.8,0.1 0.8,0.6 0.6,0.7 0.3,0.9 -0.1,0.4 -0.3,0.6 m -6.4,-2.4 -0.3,0.2 -0.6,0.1 -0.4,-0.1 -0.6,-0.3 -0.8,-0.9 -0.1,-0.7 0.1,-0.4 0.2,-0.6 0.5,-0.4 0.7,-0.1 1.1,-0.1 4.2,0.6 -2.6,-3.4 m -47.1,-45.5 0.5,0.5 1.1,0.6 -6,1.9 m 5.3,0.1 0.2,-0.1 0.7,0.1 0.4,0.2 0.4,0.5 0.4,1.1 -0.1,0.7 -0.2,0.4 -0.5,0.4 -0.5,0.2 -0.7,-0.1 -1.1,-0.3 -3.7,-2 1.2,4 m 5.1,0.2 0.3,-0.1 0.7,0.1 0.4,0.2 0.4,0.5 0.4,1.1 -0.1,0.7 -0.2,0.4 -0.5,0.4 -0.6,0.2 -0.6,-0.1 -1.1,-0.3 -3.7,-2 1.2,4 m 33.9,-2.2 0.2,-0.6 v -1.3 l 4.4,4.5 m -2.3,-4.8 -0.2,-0.2 -0.2,-0.6 v -0.4 l 0.2,-0.7 0.8,-0.8 0.7,-0.2 h 0.4 l 0.6,0.2 0.5,0.4 0.2,0.7 0.2,1 -0.1,4.3 3,-3 m -3.2,-5.7 2.4,-2.3 0.4,3 0.6,-0.7 0.7,-0.2 h 0.4 l 0.8,0.4 0.5,0.5 0.4,0.8 v 0.9 l -0.5,0.8 -0.6,0.6 -0.8,0.5 h -0.5 l -0.6,-0.2 m -90.3,-39 0.7,-0.1 1,-0.6 -1.5,6 m 2.3,-4.6 0.6,-0.2 1.1,-0.6 -1.6,6.1 m 4.3,-5.6 h -1 l -0.4,0.5 -0.2,0.6 0.2,0.7 0.5,0.4 1,0.6 0.8,0.5 0.5,0.8 0.1,0.6 -0.2,0.9 -0.5,0.5 -0.3,0.2 -1,0.1 -1.1,-0.3 -0.8,-0.6 -0.2,-0.3 -0.2,-0.7 0.2,-0.9 0.5,-0.5 0.7,-0.4 h 1 1.2 l 0.7,-0.2 0.4,-0.5 0.1,-0.6 -0.1,-0.6 -0.8,-0.5 -1.3,-0.4 m 17.1,-27.8 -0.2,-0.7 -0.8,-1 6.3,0.8 m -5,-1.7 -0.2,-0.6 -0.8,-1 6.2,0.7 m -6,-5 3.8,3.4 0.5,-4.4 m -4.3,1 6.3,0.7 m -12.1,-16.8 -0.6,-0.1 -1.3,0.2 3.8,-5.1 m -3.9,3.5 -0.7,-0.1 -1.2,0.1 3.7,-5 m -7.7,2.4 2.5,1.8 1.8,-2 -0.4,0.1 -0.9,-0.3 -0.7,-0.6 -0.6,-0.8 -0.1,-0.8 0.3,-0.9 0.4,-0.5 0.7,-0.5 0.9,-0.1 0.9,0.3 0.7,0.5 0.5,0.8 0.1,0.4 -0.1,0.7 m -22.5,-7.1 -0.5,0.3 -0.9,0.9 -0.2,-6.2 m -1.5,5 v 0.3 l -0.3,0.6 -0.3,0.3 -0.6,0.4 h -1.2 l -0.6,-0.3 -0.3,-0.3 -0.3,-0.6 v -0.6 l 0.3,-0.6 0.5,-0.9 2.9,-3.1 -4.2,0.2 m -0.9,4.9 -0.6,0.3 -0.8,0.9 -0.3,-6.3 m -6.5,28.9 0.2,0.6 0.9,0.9 -6.3,-0.1 m 5.1,1.1 0.3,0.6 0.9,0.9 -6.3,-0.1 m 6.5,2.8 -0.3,-0.9 -0.6,-0.3 h -0.6 l -0.6,0.3 -0.3,0.6 -0.4,1.2 -0.3,0.8 -0.6,0.6 -0.6,0.3 h -0.9 l -0.6,-0.3 -0.3,-0.3 -0.3,-0.9 0.1,-1.2 0.3,-0.9 0.3,-0.3 0.6,-0.3 h 0.9 l 0.6,0.3 0.6,0.6 0.3,1 0.2,1.2 0.3,0.6 0.6,0.3 h 0.6 l 0.6,-0.3 0.3,-0.9 0.1,-1.4 m 74.4,21.6 -0.5,0.4 -0.7,1 -1.2,-6.1 m -0.1,5.2 -0.5,0.4 -0.7,1 -1.3,-6.1 m -2.9,7.3 2.1,-4.7 -4.4,0.9 m 2.3,3.8 -1.2,-6.2 m 55.7,32.8 -0.1,-0.6 -0.7,-1.1 6.1,1.5 m -5.8,-3.3 0.8,-3.2 1.8,2.4 0.3,-0.9 0.4,-0.5 0.4,-0.2 0.9,-0.1 0.6,0.1 0.8,0.5 0.4,0.8 0.1,0.9 -0.2,0.9 -0.5,0.8 -0.4,0.2 -0.6,0.2 m -3.3,-8.2 0.1,0.9 0.7,0.8 1.4,0.7 0.9,0.2 1.5,0.1 1,-0.4 0.6,-0.8 0.1,-0.6 -0.1,-0.9 -0.7,-0.8 -1.4,-0.7 -0.8,-0.2 -1.6,-0.1 -1,0.4 -0.5,0.8 -0.1,0.4 m -16,-42.4 -0.2,0.6 v 1.3 l -4.6,-4.3 m 3,4.3 -0.1,0.6 v 1.3 l -4.6,-4.3 m 1.6,7.9 2,-2.2 -1.8,-2 v 0.4 l -0.3,0.9 -0.7,0.6 -0.8,0.5 h -0.8 l -0.9,-0.4 -0.4,-0.4 -0.5,-0.8 V 290 l 0.3,-0.9 0.6,-0.7 0.9,-0.4 0.4,-0.1 0.6,0.2 m 26.6,14.9 -0.3,-0.6 -1,-0.8 6.3,-0.5 m -5.1,-1.3 h -0.3 l -0.6,-0.2 -0.3,-0.3 -0.4,-0.6 v -1.2 l 0.2,-0.6 0.3,-0.3 0.6,-0.4 h 0.6 l 0.6,0.3 0.9,0.5 3.2,2.8 -0.3,-4.2 m -6.4,-2.2 0.3,0.9 0.7,0.2 h 0.6 l 0.5,-0.4 0.3,-0.6 0.2,-1.2 0.3,-0.9 0.5,-0.7 0.6,-0.3 h 0.9 l 0.6,0.2 0.3,0.3 0.4,0.9 0.1,1.2 -0.3,0.9 -0.3,0.3 -0.5,0.3 -0.9,0.1 -0.7,-0.3 -0.6,-0.5 -0.3,-0.9 -0.4,-1.2 -0.4,-0.6 -0.6,-0.2 H 463 l -0.6,0.4 -0.2,0.9 0.1,1.3 m -82.6,215.1 0.7,0.3 h 1.3 l -4.6,4.3 m 4.8,-2.2 0.2,-0.2 0.6,-0.2 h 0.4 l 0.7,0.2 0.8,0.9 0.2,0.6 v 0.5 l -0.2,0.6 -0.5,0.4 -0.6,0.2 -1.1,0.2 -4.2,-0.1 2.9,3 m 7.2,-0.3 0.2,-0.6 -0.4,-0.9 -0.4,-0.4 -0.9,-0.4 -1,0.2 -1.3,0.8 -1.1,1 -0.7,1.1 v 0.8 l 0.4,0.9 0.2,0.2 0.9,0.4 h 0.8 l 0.9,-0.4 0.2,-0.2 0.4,-0.8 v -0.9 l -0.4,-0.8 -0.2,-0.2 -0.8,-0.5 h -0.8 l -0.9,0.4 m 51.9,0.8 0.3,0.9 0.6,0.3 h 0.6 l 0.6,-0.3 0.3,-0.6 0.3,-1.2 0.3,-0.9 0.6,-0.6 0.6,-0.2 h 0.9 l 0.6,0.3 0.3,0.3 0.3,0.9 v 1.2 l -0.3,0.9 -0.3,0.3 -0.6,0.3 h -0.9 l -0.6,-0.4 -0.6,-0.6 -0.3,-0.9 -0.3,-1.2 -0.3,-0.6 -0.6,-0.3 h -0.6 l -0.6,0.3 -0.3,0.9 v 1.3 m 1.6,-4.5 h -0.3 l -0.6,-0.3 -0.3,-0.3 -0.3,-0.6 v -1.2 l 0.3,-0.6 0.3,-0.3 0.6,-0.3 h 0.6 l 0.6,0.4 0.9,0.6 3,3 v -4.2 m 9.9,65.1 0.9,-0.2 0.8,0.3 0.7,0.6 0.1,0.3 0.2,1 -0.3,0.8 -0.6,0.6 -0.3,0.2 -0.9,0.1 -0.8,-0.2 -0.7,-0.7 -0.2,-0.2 -0.1,-1 0.2,-0.8 1,-0.8 1.3,-0.7 1.5,-0.4 1,0.1 0.7,0.6 0.3,0.6 0.2,0.9 -0.4,0.5 m -7.9,-3.3 0.7,0.7 1.1,0.1 1.5,-0.4 0.8,-0.4 1.2,-1 0.5,-0.9 -0.2,-1 -0.2,-0.5 -0.7,-0.7 -1.1,-0.1 -1.5,0.4 -0.8,0.5 -1.2,0.9 -0.5,1 0.2,0.9 0.2,0.4 m -51.2,-11.6 -0.9,-0.4 -0.5,-0.6 -0.2,-0.9 v -0.3 l 0.3,-0.9 0.7,-0.6 0.9,-0.2 h 0.3 l 0.9,0.4 0.5,0.6 0.3,0.9 -0.1,0.3 -0.3,0.9 -0.7,0.6 -1.2,0.2 -1.5,-0.1 -1.4,-0.4 -0.9,-0.7 -0.2,-0.9 v -0.6 l 0.4,-0.9 0.6,-0.2 m 4.8,8.7 0.2,-3 -2.7,-0.5 0.3,0.3 0.2,0.9 v 0.9 l -0.4,0.9 -0.6,0.5 -0.9,0.3 -0.6,-0.1 -0.9,-0.3 -0.6,-0.7 -0.2,-0.9 0.1,-0.9 0.3,-0.8 0.3,-0.3 0.7,-0.3 m 4.8,47.5 -0.9,-0.1 -0.7,-0.5 -0.5,-0.8 -0.1,-0.3 0.2,-0.9 0.4,-0.7 0.9,-0.5 0.2,-0.1 1,0.2 0.7,0.4 0.5,0.8 v 0.3 l -0.1,1 -0.5,0.7 -1.1,0.5 -1.4,0.3 h -1.6 l -1,-0.4 -0.4,-0.8 -0.2,-0.6 0.1,-1 0.6,-0.4 m 6,7.3 0.6,-0.4 0.1,-0.9 -0.1,-0.6 -0.5,-0.8 -1,-0.4 h -1.5 l -1.5,0.3 -1.1,0.5 -0.5,0.7 -0.1,0.9 v 0.3 l 0.5,0.9 0.7,0.4 1,0.1 h 0.3 l 0.8,-0.5 0.5,-0.7 0.1,-0.9 -0.1,-0.3 -0.5,-0.9 -0.7,-0.4 -0.9,-0.1 m 72.7,38.5 0.8,0.5 0.5,0.7 0.1,0.9 v 0.3 l -0.5,0.8 -0.7,0.5 -0.9,0.1 h -0.3 l -0.8,-0.5 -0.5,-0.7 -0.1,-0.9 v -0.3 l 0.5,-0.9 0.7,-0.4 1.2,-0.1 1.5,0.3 1.4,0.5 0.8,0.8 0.1,0.9 -0.1,0.6 -0.5,0.9 -0.6,0.1 m -4.2,-7.1 0.2,0.9 0.5,0.4 0.6,0.2 0.6,-0.2 0.4,-0.6 0.6,-1.1 0.4,-0.8 0.7,-0.5 0.7,-0.2 0.9,0.2 0.5,0.4 0.2,0.4 0.2,0.9 -0.3,1.2 -0.4,0.8 -0.4,0.2 -0.6,0.2 -0.9,-0.1 -0.5,-0.5 -0.5,-0.7 -0.1,-0.9 -0.1,-1.2 -0.2,-0.7 -0.5,-0.4 -0.6,-0.1 -0.7,0.2 -0.4,0.8 -0.3,1.3 m -91.3,21.6 0.6,-0.4 0.8,-0.9 0.4,6.3 m 2.5,-6.7 -0.8,0.4 -0.6,0.9 -0.2,1.5 v 0.9 l 0.4,1.5 0.7,0.9 0.9,0.2 h 0.6 l 0.9,-0.4 0.5,-0.9 0.2,-1.5 v -0.9 l -0.4,-1.5 -0.6,-0.9 -1,-0.2 h -0.4 m 5.2,-0.3 -0.9,0.4 -0.5,0.9 -0.3,1.5 0.1,0.9 0.4,1.5 0.6,0.9 0.9,0.2 h 0.6 l 0.9,-0.4 0.6,-0.9 0.2,-1.5 -0.1,-0.9 -0.4,-1.5 -0.6,-0.9 -0.9,-0.2 h -0.5 m 3.6,-12.6 -5,-4.8 m 6.3,0.8 -1.3,4 m -2.3,4.2 0.7,-0.1 0.5,-0.7 0.2,-0.6 v -0.9 l -0.7,-0.9 -1.3,-0.7 -1.4,-0.5 -1.2,-0.1 -0.8,0.4 -0.6,0.8 -0.1,0.2 v 1 l 0.4,0.7 0.8,0.6 0.3,0.1 h 0.9 l 0.8,-0.4 0.6,-0.8 v -0.2 -1 l -0.4,-0.7 -0.7,-0.6 m 10.6,-13.8 h -0.7 l -1.2,0.4 2.6,-5.7 m -5.4,4.7 1,0.1 0.9,-0.6 0.9,-1.2 0.4,-0.8 0.3,-1.5 -0.1,-1.1 -0.7,-0.6 -0.6,-0.3 -0.9,-0.1 -0.9,0.6 -0.9,1.2 -0.4,0.8 -0.4,1.5 0.2,1.1 0.7,0.6 0.4,0.2 m -2.4,-2.7 -0.7,0.1 -1.2,0.4 2.7,-5.7 m -48.6,-146.5 0.2,0.6 0.8,1 -6.2,-0.5 m 6.3,2.2 -0.3,3.3 -2.2,-2 -0.1,0.9 -0.3,0.6 -0.3,0.3 -1,0.2 h -0.6 l -0.8,-0.4 -0.6,-0.7 -0.2,-0.9 0.1,-0.9 0.3,-0.9 0.4,-0.2 0.6,-0.3 m 4.4,8.9 -3.9,-3.3 -0.4,4.5 m 4.3,-1.2 -6.2,-0.5 m 4.3,12.7 0.5,-0.5 0.5,-1.2 2.4,5.8 m -0.9,-6.6 3,-1.3 -0.7,2.9 0.8,-0.4 0.7,0.1 0.4,0.1 0.6,0.7 0.2,0.6 0.1,0.9 -0.3,0.8 -0.7,0.6 -0.8,0.4 -1,0.1 -0.4,-0.2 -0.5,-0.4 m 3.5,-7 3,-1.3 -0.7,2.9 0.8,-0.4 0.7,0.1 0.4,0.1 0.6,0.7 0.3,0.6 v 0.9 l -0.3,0.8 -0.7,0.7 -0.8,0.3 -1,0.1 -0.4,-0.2 -0.5,-0.4 m -23.2,-95.1 -5.8,4 m 2.2,-6.1 3.6,2.1 m 2.5,1.5 -0.9,-0.2 -1,0.5 -1,1.1 -0.4,0.8 -0.5,1.4 0.1,1.1 0.6,0.7 0.5,0.3 1,0.2 0.9,-0.5 1,-1.1 0.5,-0.8 0.5,-1.5 -0.1,-1 -0.6,-0.7 -0.4,-0.3 m 35.9,-52.5 h -0.7 l -1.2,0.4 2.9,-5.6 m -4.6,5 -2.9,-1.5 2.7,-1.3 -0.8,-0.4 -0.4,-0.5 -0.1,-0.5 0.1,-0.9 0.3,-0.5 0.7,-0.7 0.8,-0.2 0.9,0.1 0.8,0.4 0.7,0.7 0.1,0.4 v 0.7 m -8.7,1.2 1,0.2 0.9,-0.5 1,-1.2 0.4,-0.8 0.4,-1.5 -0.1,-1.1 -0.7,-0.7 -0.5,-0.2 -1,-0.2 -0.9,0.5 -1,1.2 -0.4,0.8 -0.4,1.5 0.1,1.1 0.7,0.7 0.4,0.2 m -21,-10.2 -0.6,0.2 -1.1,0.6 1.4,-6.1 m -2.7,4.5 -0.1,0.3 -0.4,0.5 -0.4,0.3 -0.6,0.1 -1.2,-0.3 -0.5,-0.4 -0.2,-0.3 -0.2,-0.7 0.1,-0.6 0.5,-0.5 0.7,-0.7 3.6,-2.3 -4.1,-0.9 m -3.1,5.7 -3.2,-0.7 2.3,-2 -0.9,-0.2 -0.5,-0.4 -0.2,-0.3 -0.1,-1 0.1,-0.6 0.5,-0.8 0.8,-0.4 0.9,-0.1 0.9,0.2 0.8,0.5 0.2,0.3 0.2,0.7 m -39,48.6 0.6,0.1 1.3,-0.3 -3.4,5.3 m 6,-3.8 -0.9,-0.3 -1,0.5 -1.1,1 -0.5,0.8 -0.5,1.4 v 1.1 l 0.6,0.7 0.5,0.4 0.9,0.2 1,-0.4 1,-1.1 0.5,-0.8 0.6,-1.4 V 394 l -0.6,-0.7 -0.4,-0.3 m 4.4,2.9 -0.9,-0.3 -1,0.4 -1.1,1.1 -0.5,0.8 -0.5,1.4 v 1.1 l 0.6,0.7 0.5,0.4 0.9,0.2 1,-0.4 1,-1.1 0.5,-0.8 0.6,-1.4 v -1.1 l -0.6,-0.7 -0.4,-0.3 M 307,363.8 v 0.7 l 0.4,1.2 -5.6,-3 m 4.9,4.7 -1.5,2.9 -1.3,-2.8 -0.4,0.8 -0.6,0.4 -0.4,0.1 -0.9,-0.1 -0.6,-0.3 -0.6,-0.7 -0.2,-0.8 0.1,-0.9 0.4,-0.8 0.7,-0.7 0.4,-0.1 h 0.7 m 0.4,6.9 0.3,0.1 0.4,0.6 0.1,0.4 v 0.6 l -0.6,1.1 -0.6,0.4 -0.4,0.1 h -0.6 l -0.6,-0.3 -0.4,-0.5 -0.5,-1 -1.2,-4.1 -2,3.7 m 104.1,329.2 -1,-0.2 -0.6,-0.6 -0.4,-0.9 v -0.3 l 0.3,-0.9 0.5,-0.6 0.9,-0.4 h 0.3 l 0.9,0.2 0.7,0.6 0.3,0.9 v 0.3 l -0.2,0.9 -0.6,0.6 -1.1,0.4 -1.5,0.1 -1.6,-0.2 -0.9,-0.5 -0.3,-0.9 -0.1,-0.6 0.3,-0.9 0.5,-0.4 m 6,8.5 -6.5,-2.6 m 6.2,-1.6 0.3,4.2 m 18.5,8.9 -0.8,0.6 -0.1,0.7 0.2,0.5 0.5,0.5 0.6,0.1 h 1.3 0.9 l 0.8,0.4 0.4,0.4 0.3,0.9 -0.1,0.7 -0.2,0.3 -0.8,0.6 -1.1,0.4 -1,-0.1 -0.3,-0.2 -0.5,-0.4 -0.3,-0.9 0.1,-0.7 0.4,-0.7 0.8,-0.6 1,-0.6 0.5,-0.5 0.1,-0.6 -0.2,-0.6 -0.4,-0.5 h -1 l -1.3,0.4 m 7.7,-2.4 -0.9,6.9 m -3.1,-5.7 4,-1.2 m 45.4,-6.9 -1,0.2 -0.3,0.5 -0.1,0.6 0.2,0.6 0.6,0.4 1.1,0.5 0.9,0.4 0.5,0.7 0.2,0.6 -0.1,0.9 -0.4,0.6 -0.3,0.2 -1,0.2 -1.2,-0.2 -0.8,-0.4 -0.3,-0.3 -0.2,-0.7 0.1,-0.9 0.4,-0.5 0.7,-0.5 0.9,-0.2 1.2,-0.1 0.7,-0.3 0.4,-0.5 v -0.6 l -0.2,-0.6 -0.8,-0.5 -1.4,-0.1 m 4.6,0.6 3.2,0.4 -2.1,2.1 0.9,0.2 0.6,0.3 0.2,0.4 0.2,0.9 -0.1,0.6 -0.4,0.9 -0.6,0.5 -1,0.2 -0.9,-0.2 -0.8,-0.4 -0.3,-0.3 -0.2,-0.7 m 2.1,-33.4 0.8,-0.5 0.8,-0.1 0.9,0.4 0.2,0.1 0.5,0.8 0.1,0.9 -0.3,0.9 -0.2,0.2 -0.8,0.5 -0.8,0.1 -0.9,-0.3 -0.3,-0.2 -0.5,-0.8 -0.1,-0.9 0.6,-1.1 0.9,-1.1 1.2,-1 1,-0.3 0.9,0.3 0.5,0.4 0.5,0.8 -0.2,0.6 m -6.1,0.2 -0.6,-0.2 -1.3,0.2 3.9,-4.9 m 5.6,30.1 0.4,0.9 0.6,0.2 h 0.6 l 0.6,-0.4 0.3,-0.6 0.2,-1.2 0.2,-0.9 0.6,-0.7 0.5,-0.3 0.9,-0.1 0.6,0.3 0.4,0.3 0.3,0.8 0.1,1.2 -0.2,1 -0.3,0.3 -0.6,0.3 -0.9,0.1 -0.6,-0.3 -0.6,-0.5 -0.4,-0.9 -0.4,-1.2 -0.3,-0.5 -0.6,-0.3 H 487 l -0.6,0.4 -0.3,0.9 0.1,1.4 m 1.6,-8.1 0.9,0.2 0.6,0.6 0.4,0.9 v 0.3 l -0.2,0.9 -0.6,0.6 -0.9,0.4 h -0.3 l -0.9,-0.2 -0.6,-0.6 -0.4,-0.8 v -0.3 l 0.2,-1 0.6,-0.6 1.2,-0.4 1.5,-0.1 1.5,0.2 0.9,0.5 0.4,0.9 v 0.6 l -0.2,0.9 -0.6,0.4 m -8.4,-85.4 0.7,0.7 0.2,0.8 -0.1,1 -0.2,0.2 -0.7,0.7 -0.8,0.2 -0.9,-0.2 -0.3,-0.1 -0.6,-0.7 -0.3,-0.8 0.2,-1 0.1,-0.2 0.7,-0.7 0.8,-0.2 1.2,0.3 1.4,0.7 1.1,1 0.5,1 -0.1,0.9 -0.3,0.5 -0.7,0.7 h -0.7 m -0.9,-6.5 -0.2,-0.2 -0.4,-0.5 -0.1,-0.4 v -0.7 l 0.6,-1.1 0.5,-0.3 0.4,-0.2 0.7,0.1 0.5,0.3 0.4,0.5 0.5,1 1.2,4 2,-3.6 m -3.9,-7.8 0.4,-0.9 0.6,-0.6 0.9,-0.2 h 0.3 l 0.9,0.4 0.6,0.6 0.2,0.9 v 0.3 l -0.3,0.9 -0.7,0.5 -0.9,0.3 h -0.3 l -0.9,-0.4 -0.5,-0.6 -0.3,-1.2 0.1,-1.5 0.4,-1.5 0.6,-0.9 0.9,-0.2 h 0.6 l 0.9,0.4 0.3,0.6 m -8.2,5 3.2,-4 -4.4,-0.2 m 1.2,4.2 0.4,-6.3 M 452.7,269 l -0.6,-0.2 h -1.3 l 4.5,-4.4 m -4.7,2.3 -0.2,0.2 -0.7,0.2 h -0.4 l -0.6,-0.2 -0.9,-0.8 -0.2,-0.7 V 265 l 0.2,-0.6 0.5,-0.5 0.6,-0.2 1.1,-0.2 4.2,0.1 -2.9,-3 m -4.6,2.2 -0.2,0.2 -0.7,0.2 h -0.4 l -0.6,-0.2 -0.9,-0.9 -0.2,-0.6 V 261 l 0.2,-0.6 0.5,-0.4 0.6,-0.2 1.1,-0.2 h 4.2 l -2.9,-3 m -1.3,-8.5 0.5,0.5 1.2,0.4 -5.8,2.5 m 5.3,-0.4 0.2,-0.1 h 0.7 l 0.4,0.2 0.5,0.4 0.5,1.1 -0.1,0.7 -0.1,0.4 -0.5,0.5 -0.5,0.2 h -0.7 l -1.1,-0.2 -3.9,-1.6 1.7,3.8 m 4.9,-0.9 0.5,0.5 1.2,0.4 -5.8,2.5 m -319.3,8.7 -0.3,0.9 0.3,0.6 0.5,0.4 h 0.7 l 0.6,-0.3 0.9,-0.8 0.8,-0.6 0.8,-0.2 0.7,0.1 0.7,0.5 0.3,0.6 0.1,0.4 -0.2,0.9 -0.7,1 -0.7,0.6 -0.5,0.1 -0.6,-0.1 -0.8,-0.5 -0.3,-0.6 -0.2,-0.8 0.3,-0.9 0.4,-1.2 0.1,-0.6 -0.4,-0.6 -0.5,-0.4 h -0.6 l -0.8,0.5 -0.7,1.2 m 4.4,-6.7 3.6,6 m -5.9,-2.5 2.3,-3.5 m -9.2,-13.5 0.9,-0.2 0.3,-0.6 0.1,-0.6 -0.3,-0.6 -0.5,-0.4 -1.2,-0.4 -0.9,-0.4 -0.5,-0.6 -0.3,-0.6 0.1,-0.9 0.4,-0.6 0.3,-0.3 0.9,-0.2 1.2,0.1 0.9,0.4 0.2,0.3 0.3,0.6 -0.1,0.9 -0.3,0.6 -0.7,0.5 -0.9,0.3 -1.2,0.2 -0.6,0.2 -0.4,0.6 v 0.6 l 0.2,0.6 0.9,0.4 1.3,0.1 m -5.5,-0.5 1,-0.2 0.3,-0.6 0.1,-0.6 -0.3,-0.6 -0.6,-0.3 -1.1,-0.4 -0.9,-0.4 -0.5,-0.7 -0.3,-0.6 0.1,-0.9 0.3,-0.5 0.4,-0.3 0.9,-0.2 1.2,0.1 0.8,0.3 0.3,0.4 0.3,0.6 -0.1,0.9 -0.4,0.5 -0.6,0.6 -0.9,0.2 -1.3,0.2 -0.6,0.3 -0.3,0.5 -0.1,0.6 0.3,0.7 0.8,0.3 1.4,0.1 m -22.3,54 -0.6,0.8 v 0.6 l 0.4,0.5 0.5,0.4 0.7,-0.1 1.2,-0.4 0.9,-0.2 0.8,0.2 0.6,0.3 0.5,0.8 0.1,0.7 -0.1,0.4 -0.6,0.7 -1.1,0.7 -0.9,0.2 -0.4,-0.1 -0.6,-0.4 -0.4,-0.7 -0.1,-0.7 0.2,-0.8 0.6,-0.8 0.8,-0.8 0.4,-0.6 -0.1,-0.7 -0.3,-0.5 -0.6,-0.3 -0.9,0.2 -1.1,0.7 m 3.8,-2.4 2.8,-1.8 -0.2,3 0.7,-0.5 h 0.7 0.4 l 0.8,0.6 0.3,0.6 0.2,0.9 -0.2,0.8 -0.6,0.7 -0.7,0.5 -1,0.2 -0.4,-0.1 -0.6,-0.3 m -26.1,-40.7 0.3,-0.9 -0.3,-0.6 -0.5,-0.3 -0.6,-0.1 -0.6,0.3 -1,0.7 -0.8,0.6 -0.8,0.1 -0.7,-0.1 -0.7,-0.6 -0.3,-0.6 -0.1,-0.4 0.4,-0.9 0.7,-0.9 0.8,-0.6 h 0.4 l 0.6,0.1 0.8,0.5 0.3,0.6 0.1,0.9 -0.3,0.9 -0.5,1.1 -0.1,0.7 0.3,0.6 0.4,0.3 0.7,0.1 0.8,-0.5 0.8,-1.1 m -3.9,2.7 0.2,0.2 0.3,0.6 0.1,0.4 -0.1,0.7 -0.8,0.9 -0.6,0.3 -0.4,0.1 -0.6,-0.1 -0.5,-0.4 -0.3,-0.6 -0.4,-1 -0.6,-4.2 -2.5,3.3 m -15.9,48.6 -0.8,-0.5 -0.5,-0.7 -0.2,-0.9 0.1,-0.3 0.4,-0.8 0.7,-0.5 0.9,-0.2 0.3,0.1 0.9,0.4 0.5,0.7 0.1,0.9 v 0.3 l -0.5,0.9 -0.7,0.5 -1.2,0.1 -1.5,-0.3 -1.4,-0.5 -0.8,-0.7 -0.2,-1 0.1,-0.6 0.5,-0.8 0.6,-0.2 m 4.3,7.3 -0.2,-0.9 -0.7,-0.7 -1.5,-0.6 -0.9,-0.1 h -1.5 l -1,0.5 -0.4,0.8 -0.1,0.6 0.1,0.9 0.8,0.8 1.5,0.5 0.8,0.2 1.6,-0.1 1,-0.4 0.4,-0.9 0.1,-0.4 m 15.3,9.6 -0.3,0.8 0.2,0.7 0.5,0.4 0.6,0.2 0.6,-0.3 1.1,-0.7 0.8,-0.5 h 0.8 l 0.7,0.2 0.6,0.6 0.3,0.6 v 0.4 l -0.4,0.9 -0.8,0.9 -0.8,0.5 h -0.4 l -0.7,-0.2 -0.6,-0.6 -0.3,-0.6 v -0.9 l 0.4,-0.8 0.5,-1.1 0.2,-0.7 -0.2,-0.6 -0.5,-0.4 -0.6,-0.2 -0.9,0.5 -0.9,1 m 4.8,-5.4 1.1,5.1 3,-3.4 m -4.1,-1.7 4.7,4.2 M 46,353.9 h -1 l -0.7,-0.4 -0.6,-0.8 v -0.3 -1 l 0.4,-0.7 0.8,-0.5 0.3,-0.1 h 0.9 l 0.8,0.4 0.5,0.8 0.1,0.3 v 0.9 l -0.5,0.8 -1,0.6 -1.5,0.4 -1.5,0.2 -1,-0.4 -0.6,-0.8 -0.1,-0.5 v -1 l 0.5,-0.4 m 7.4,6 -4.8,-1.7 1.2,4.3 m 3.6,-2.6 -6,1.8 m 48.7,-4.4 0.1,0.9 0.5,0.5 0.6,0.1 0.6,-0.1 0.5,-0.5 0.5,-1.1 0.6,-0.8 0.7,-0.4 0.7,-0.2 0.8,0.3 0.5,0.4 0.2,0.4 0.1,0.9 -0.3,1.2 -0.5,0.8 -0.4,0.2 -0.6,0.1 -0.9,-0.2 -0.5,-0.5 -0.4,-0.7 -0.1,-0.9 v -1.3 l -0.1,-0.6 -0.5,-0.5 -0.6,-0.1 -0.7,0.1 -0.5,0.8 -0.3,1.3 m 2.8,-7.1 -0.7,0.1 -0.5,0.8 -0.2,0.6 0.1,1 0.7,0.8 1.4,0.6 1.4,0.4 h 1.3 l 0.7,-0.4 0.5,-0.8 0.1,-0.3 -0.1,-0.9 -0.4,-0.8 -0.8,-0.5 -0.3,-0.1 -0.9,0.1 -0.7,0.4 -0.6,0.8 v 0.3 1 l 0.5,0.7 0.7,0.5 m -12.3,-8.9 0.7,-0.6 0.1,-0.6 -0.2,-0.6 -0.5,-0.5 H 84 l -1.2,0.1 -0.9,0.1 -0.8,-0.4 -0.5,-0.4 -0.3,-0.9 v -0.6 l 0.2,-0.4 0.7,-0.6 1.2,-0.5 h 0.9 l 0.4,0.2 0.5,0.4 0.3,0.9 v 0.6 l -0.4,0.8 -0.7,0.6 -1,0.7 -0.5,0.5 -0.1,0.7 0.2,0.5 0.5,0.5 h 1 l 1.3,-0.5 m -6.7,2.6 1.3,-5 -4.2,1.6 m 2.9,3.4 -2.2,-5.9 m 22.1,3 0.9,0.3 0.6,-0.3 0.3,-0.5 0.2,-0.7 -0.3,-0.6 -0.8,-0.9 -0.5,-0.8 -0.1,-0.9 0.1,-0.6 0.5,-0.7 0.6,-0.3 0.5,-0.1 0.9,0.3 0.9,0.8 0.5,0.7 0.1,0.5 -0.1,0.6 -0.6,0.7 -0.6,0.3 -0.8,0.1 -0.9,-0.3 -1.1,-0.5 -0.7,-0.1 -0.6,0.3 -0.4,0.5 -0.1,0.6 0.5,0.8 1.1,0.8 m -6,-4.6 2.4,1.9 1.8,-2 -0.4,0.1 -0.9,-0.4 -0.7,-0.5 -0.5,-0.8 -0.1,-0.8 0.3,-0.9 0.3,-0.5 0.8,-0.5 0.9,-0.1 0.9,0.3 0.7,0.5 0.5,0.8 0.1,0.4 -0.2,0.7 m -42.8,51.4 -1,-0.1 -0.7,-0.4 -0.5,-0.8 -0.1,-0.3 0.1,-0.9 0.4,-0.8 0.8,-0.5 0.3,-0.1 0.9,0.1 0.8,0.4 0.5,0.8 0.1,0.3 -0.1,1 -0.4,0.7 -1.1,0.6 -1.5,0.4 h -1.5 l -1,-0.3 -0.5,-0.8 -0.2,-0.6 0.1,-0.9 0.5,-0.5 m 5.1,4.1 h 0.3 l 0.6,0.1 0.4,0.2 0.4,0.5 0.3,1.2 -0.1,0.6 -0.2,0.4 -0.5,0.5 -0.6,0.1 -0.7,-0.1 -1,-0.4 -3.7,-2.2 1.1,4.1 m 14,27.1 -0.9,0.1 -0.8,-0.3 -0.6,-0.7 -0.2,-0.3 -0.1,-0.9 0.3,-0.8 0.7,-0.7 0.3,-0.1 0.9,-0.1 0.8,0.3 0.7,0.7 0.1,0.2 0.1,1 -0.3,0.8 -1,0.8 -1.3,0.6 -1.5,0.4 -1.1,-0.2 -0.6,-0.7 -0.3,-0.5 -0.1,-1 0.4,-0.5 m 7.6,3.4 -0.7,-0.7 h -0.6 l -0.6,0.2 -0.4,0.5 v 0.7 l 0.2,1.2 0.1,1 -0.3,0.8 -0.4,0.5 -0.8,0.4 h -0.7 l -0.4,-0.2 -0.6,-0.7 -0.5,-1.1 -0.1,-0.9 0.1,-0.4 0.4,-0.5 0.8,-0.4 h 0.7 l 0.8,0.3 0.7,0.7 0.7,0.9 0.6,0.5 h 0.6 l 0.6,-0.3 0.4,-0.5 -0.1,-1 -0.6,-1.2 m 12,18 -0.7,0.6 -0.9,0.2 -0.9,-0.2 -0.2,-0.2 -0.6,-0.7 -0.2,-0.9 0.2,-0.9 0.2,-0.2 0.7,-0.6 0.9,-0.2 0.9,0.2 0.2,0.2 0.6,0.7 0.2,0.9 -0.4,1.1 -0.8,1.3 -1.1,1.1 -1,0.4 -0.9,-0.2 -0.5,-0.3 -0.6,-0.8 0.1,-0.6 m 6.1,-0.9 0.6,0.1 1.3,-0.3 -3.4,5.3 m 1.8,-7.1 0.9,0.3 0.6,0.6 0.3,0.8 v 0.3 l -0.2,1 -0.6,0.6 -0.9,0.3 H 82.9 L 82,442.3 81.4,441.8 81,440.9 v -0.3 l 0.3,-0.9 0.6,-0.7 1.2,-0.3 h 1.5 l 1.5,0.2 0.9,0.6 0.3,0.9 v 0.6 l -0.2,0.9 -0.6,0.3 m -5.6,-5.2 -0.1,-3.3 2.5,1.8 -0.1,-0.9 0.3,-0.6 0.3,-0.4 0.9,-0.3 h 0.6 l 0.9,0.3 0.6,0.5 0.3,0.9 0.1,0.9 -0.3,0.9 -0.3,0.3 -0.6,0.4 m 13.2,-28.2 0.2,1 -0.3,0.8 -0.7,0.6 -0.2,0.2 -1,0.1 -0.8,-0.3 -0.7,-0.7 -0.1,-0.2 -0.1,-1 0.3,-0.8 0.6,-0.6 0.3,-0.2 0.9,-0.1 0.8,0.3 0.8,0.9 0.7,1.4 0.4,1.4 -0.1,1.1 -0.7,0.7 -0.6,0.2 -0.9,0.2 -0.5,-0.4 m 2.4,-7.2 2.9,-1.5 -0.5,3 0.8,-0.4 h 0.7 l 0.4,0.1 0.6,0.7 0.3,0.5 0.1,1 -0.3,0.8 -0.6,0.6 -0.8,0.4 -1,0.2 -0.4,-0.2 -0.5,-0.4 m 15.9,-37.3 0.8,-0.4 0.2,-0.7 v -0.6 l -0.4,-0.5 -0.7,-0.2 -1.2,-0.2 -0.9,-0.1 -0.7,-0.5 -0.4,-0.6 -0.1,-0.9 0.2,-0.6 0.3,-0.4 0.8,-0.4 1.2,-0.1 0.9,0.1 0.4,0.3 0.3,0.5 0.2,0.9 -0.2,0.7 -0.6,0.6 -0.8,0.5 -1.1,0.4 -0.6,0.4 -0.2,0.6 0.1,0.6 0.4,0.6 0.9,0.2 1.3,-0.2 m -7.6,0.2 0.4,0.5 0.9,0.2 0.6,-0.1 0.8,-0.4 0.5,-1 0.1,-1.5 -0.2,-1.5 -0.5,-1.2 -0.7,-0.5 -0.9,-0.1 h -0.3 l -0.9,0.4 -0.5,0.7 -0.1,0.9 v 0.3 l 0.4,0.9 0.7,0.5 0.9,0.2 0.3,-0.1 0.9,-0.4 0.5,-0.7 0.2,-0.9 m 3.7,20 -0.2,0.9 0.4,0.6 0.6,0.2 0.6,0.1 0.6,-0.4 0.8,-1 0.7,-0.6 0.8,-0.3 0.7,0.1 0.8,0.4 0.4,0.5 0.1,0.4 -0.2,1 -0.5,1 -0.7,0.7 -0.4,0.1 h -0.7 l -0.8,-0.4 -0.4,-0.6 -0.2,-0.8 0.1,-0.9 0.3,-1.2 v -0.7 l -0.4,-0.5 -0.5,-0.3 H 118 l -0.6,0.6 -0.7,1.2 m 5.6,-6 0.6,0.7 0.3,0.8 -0.2,0.9 -0.1,0.3 -0.7,0.7 -0.8,0.2 -0.9,-0.1 -0.3,-0.2 -0.7,-0.7 -0.2,-0.8 0.1,-0.9 0.2,-0.3 0.7,-0.6 0.8,-0.3 1.2,0.3 1.3,0.7 1.2,1 0.5,0.9 -0.2,1 -0.2,0.5 -0.7,0.6 h -0.7 m 2.4,-12.6 0.7,0.7 0.7,-0.1 0.5,-0.2 0.4,-0.6 v -0.7 l -0.3,-1.2 -0.2,-0.9 0.3,-0.8 0.3,-0.6 0.8,-0.4 h 0.7 l 0.4,0.1 0.7,0.7 0.6,1 0.1,1 -0.1,0.4 -0.4,0.5 -0.8,0.4 -0.6,0.1 -0.9,-0.3 -0.6,-0.6 -0.9,-0.9 -0.5,-0.4 h -0.7 l -0.5,0.3 -0.4,0.5 0.2,1 0.6,1.1 m -3.6,-6.6 1.4,2.6 2.5,-1 -0.4,-0.1 -0.7,-0.7 -0.4,-0.8 -0.1,-0.9 0.2,-0.8 0.6,-0.7 0.6,-0.3 0.9,-0.2 0.8,0.3 0.7,0.6 0.4,0.8 0.2,1 -0.1,0.4 -0.4,0.5"
       id="nums_001"
       stroke="#000000"
       stroke-width="1" />
    <path
       d="m 17,77.5 31.5,-39.7 48,-23.4 57.3,23.6 65,10.7 22.6,-2.2 34.3,0.1 56.8,-10 44.9,-4.6 37.5,-14.9 -0.7,48.2 6.2,-40.4 47.9,-4.8 48,-3.2 0.4,43.7 v 22.5 l -63.6,-7.9 -53.3,35.5 -5.5,-22 0.7,22.7 -21.9,-5.6 -42.4,-10.3 -7,40.3 -40.6,-26 -30.8,22.6 3.5,43.6 -50.2,41.9 63.6,-15.5 32,-22.1 37.1,-14.4 41.6,4.9 38.8,20 43.6,-2.6 1.5,45 -32.7,5.6 -13.2,30.5 -38.6,-17.8 -5.1,-25.8 -23.3,12.3 -42.1,-6.3 -39.1,22.2 -31.6,27.4 -9.4,38.7 38.8,-2.1 20,38.9 -9,37 -39.6,8 33.5,30.2 23.6,52.6 -6,33.8 6.2,21.9 63.7,16.4 -53.1,90.6 -23,-8.9 -36.4,15.1 -42,3.9 -25.5,-32.7 52.3,-55.5 10.5,-50.4 -9.7,-64 -14.9,63 -16.4,48.8 -21,-11.1 21.6,10 -53.5,54.4 -46.1,-67.9 27.6,-1.3 31.4,-39 -34.6,36.2 -27.6,-0.3 -48.8,-48.4 35.8,-15.8 34.8,-55.3 50.2,-13.9 6.2,33.3 -4,-33.6 -12.8,-35.6 -20.1,-13.6 -17.9,-16.4 14.9,-34.7 26.7,-4.2 0.4,50 49.4,-8.1 -26.9,-2.5 -8.6,-51.4 37.3,-21.2 -42.8,1.7 -11.8,-64.3 7.6,-38.4 10.7,14.8 41.1,-15.9 0.4,-47.8 -55.3,-15.7 -95.6,10.8 18.9,38.6 -12.2,57.6 -45,-19.4 -15.1,-7.5 9.7,-41.2 6.1,-5.7 z m 419.3,165.1 33.1,33.7 2.6,38.9 -9.7,38.6 -22,21.8 41.1,53.2 -56.8,-13.4 19.6,67.3 -1.2,61.8 27,51.6 28.8,1.5 -19.7,35.9 -6,31.6 19.7,16 2.7,36.4 -36.5,-4.9 -62.4,19.6 -3.6,-58.3 -18.3,1.1 15,-46.3 7.6,3.5 -8.4,-41.6 4,-58.2 -26.9,-28.2 -34.1,14.5 4.6,-56.4 11.4,-27.1 -50.6,-29.2 -15.4,-9.9 31.9,-59.2 30.2,6.9 35.3,18.1 32,22.5 -14.2,-45.1 -68.1,-17.7 1.2,-70.3 31.4,-1.1 31.4,23.4 -3.9,33.6 33.2,-6.7 26.3,-29 z M 36.5,343 45.8,285.6 83,236.2 l 69.9,5.9 -36.3,54.3 -31.2,19.7 -24.6,27.4 34.4,-13.1 9.7,7.4 -8.1,31 31.7,-4.5 5.8,10.7 -17,32.3 -28.7,14.1 1.1,31.9 L 68.3,439.6 54.6,410.5 44.4,370.8 Z"
       id="coupes_001"
       stroke="#ff0000"
       stroke-width="1.27"
       sodipodi:nodetypes="cccccccccccccccccccccccccccccccccccccccccccccccccccccccccccccccccccccccccccccccccccccccccccccccccccccccccccccccccccccccccccccccccccccccccccccccccccccccccccccccccc" />
    <path
       d="M 287.5,356.8 228.7,320 m -14.4,31.3 14.4,-31.3 m 49.8,73.8 -64.2,-42.5 m 24.6,50.5 -24.6,-50.5 m -26.9,-2.5 28.7,-72.6 m 22.8,125.6 -74,-42.4 m -4,18.9 4,-18.9 m 74,42.4 -78,-23.5 m -20.1,-13.6 24.1,-5.3 m -24.1,5.3 23.7,-55.3 M 233,454.8 173.7,413.9 M 272.4,432 233,454.8 m 0,0 -55.3,-7.3 m 94.7,-15.5 -29.7,86.8 m 53.3,-34.2 -53.3,34.2 m -26.6,-242.6 22,5.1 m -22,-5.1 53.6,-22.3 m -53.6,22.3 -10.5,-58.3 m 0,0 64.1,36 m -0.5,-51.5 39.6,29.3 m -7.6,-51.4 49.7,57.7 m -189.2,273.7 16,-64.2 m 55.3,7.3 -71.3,56.9 m -40.4,-83.6 56.4,19.4 m -16,64.2 -40.4,-83.6 m 59.4,127.4 -19,-43.8 M 148.8,619.9 161.7,511.7 M 99.5,547.6 121.3,428.1 M 99.5,547.6 86.5,483.4 M 216.1,276.2 161.5,213.6 m 0,0 44.1,4.3 m -25.8,-27.9 25.8,27.9 m -44.1,-4.3 18.3,-23.6 m 41.1,-15.9 -15.3,43.8 m 15.3,-43.8 34.9,1.9 m -34.5,-49.7 31,6.1 m -31,-6.1 54.4,-79.7 m 0,0 55,48.9 m 1.8,-58.9 40.6,69.2 M 332.5,36.6 394.3,88.7 M 377.4,32 394.3,88.7 M 377.4,32 414.2,65.3 m 38.9,9.9 -58.8,13.5 m 19.9,-23.4 38.9,9.9 m -32.7,-50.3 32.7,50.3 m 15.2,-55.1 -15.2,55.1 m 15.2,-55.1 48.4,63 m -48.4,-63 48.4,40.5 M 166,110.6 153.8,38 M 48.5,37.8 153.8,38 M 70.4,121.4 48.5,37.8 M 89.3,160 32.8,143.8 M 17,190.7 32.8,143.8 m 305.5,22.1 12.6,72.1 m -12.6,-72.1 35.9,59.8 m 44.5,-34.9 -44.5,34.9 m 56.9,13.1 -56.9,-13.1 m 44.5,-34.9 12.4,48 m 0,0 -51.8,12.7 m 83,-63.3 -31.2,50.6 M 290,518.4 232.2,569.2 m 15.2,84.3 -15.2,-84.3 m 64,-28.9 -12.4,98.1 M 444.2,482.7 347.9,435.2 m 96.3,47.5 -107.7,-20.4 m 11.4,-27.1 63.4,-50.8 m 0,0 13.3,31 m -76.7,19.8 31.4,-73.3 m 17.8,-22.6 43.2,36.3 m -43.2,-36.3 65.2,14.5 m -73.2,-46.6 73.2,46.6 m -65.2,-14.5 -8,-32.1 m -60.1,14.4 60.1,-14.4 m -60.1,14.4 64,-48 m -64,48 32.6,-71.4 m 60.7,50.3 40,53.3 m -40,-53.3 49.7,14.7 m -23.4,-43.7 23.4,43.7 m -23.4,-43.7 20.8,4.8 M 444.2,482.7 366,504.2 m 78.2,-21.5 -51.3,49.7 m 50.1,12.1 -50.1,-12.1 m 77.1,63.7 -77.1,-63.7 m 77.1,63.7 -81.1,-5.5 m 81.1,5.5 -72.7,36.1 m 81.8,1.3 -81.8,-1.3 m 75.8,32.9 -80.1,8.8 M 297.3,406 l 82,-44.1 m -82,44.1 46.7,-62.2 m 129.1,321.3 -76.5,67.1 M 85.4,316.1 83,236.2 m 2.4,79.9 -39.6,-30.5 m 15,57.9 -24.3,-0.5 m 24.3,0.5 -16.4,27.3 m 52.4,-2 -52.4,2 m 16.4,-27.3 36,25.3 m -36,-25.3 44.1,-5.7 m -16.3,83.6 -34,-10.9 m 42.2,-41.7 -8.2,52.6 m 0,0 -20.3,18.2 m 28.5,-70.8 20.5,38.5 m 11.2,-43 -11.2,43"
       id="plisM_001"
       stroke="#a52a2a"
       stroke-dasharray="4" />
    <path
       d="m 287.5,356.8 -73.2,-5.5 m -26.9,-2.5 41.3,-28.8 m -12.6,-43.8 12.6,43.8 m 10.2,81.8 -65.2,12.1 m -50.8,-65.6 41.6,-38.9 m 74.4,92.4 -5.9,53 m 57,63.6 -47.3,0.4 m -37.1,-300.9 103.2,13.8 m -39.6,-29.3 81.7,35.6 m -132.8,279.8 -56.4,-6.1 m 56.4,6.1 -37.4,37.7 m 0,0 -31.9,64.4 m 0,0 -18.5,-69.2 m -3.2,-2.8 -5.8,-119.8 m 99.6,-254 31.4,-41.7 m 23.4,-85.8 -23.4,85.8 m -31,-6.1 20.1,-79.8 m -20.1,79.8 -2.5,-77.6 m 56.9,-2.1 7.4,63.2 m -7.4,-63.2 48,89.2 m 8.8,-99.2 -1.8,58.9 m 63.6,-6.8 -21.2,17.1 M 414.2,65.3 394.3,88.7 M 166,110.6 218.8,48.7 M 70.4,121.4 153.8,38 M 70.4,121.4 17,77.5 m 53.4,43.9 -37.6,22.4 m 44.3,73.8 -44.3,-73.8 m -0.7,54.4 0.7,-54.4 m 347.1,27 -5.7,54.9 m -78,314.6 -64,28.9 m 64,-28.9 -48.8,113.2 m 112.5,-96.8 -76.1,81.7 m -36.4,15.1 -67.5,-28.8 m 168,-189.5 76.7,-19.8 m -13.3,-31 70.1,44.4 m -70.1,-44.4 29,-8.8 M 366,504.2 336.5,462.3 m 133.5,133.8 9.1,37.4 m -86.1,40.4 4.3,-41.7 m 81.8,1.3 -86.1,40.4 m -18.3,1.1 22.6,-42.8 M 297.3,406 313.8,336.9 M 473.1,665.1 459,712.6 m 14.1,-47.5 22.4,52.4 M 116.6,296.4 83,236.2 m 2.4,79.9 -48.9,26.9 m 60.3,25.8 -42.2,41.7"
       id="plisV_001"
       stroke="#008000"
       stroke-dasharray="4, 1, 1, 1"
       stroke-width="1.27" />
    <path
       d="m 248.9,352 4,4 m 0,-4 -4,4 m -42.9,-23.6 4,4 m 0,-4 -4,4 m 14.4,-40.3 4,4 m 0,-4 -4,4 m -16.1,105.7 4,4 m 0,-4 -4,4 m -62.6,-82.9 4,4 m 0,-4 -4,4 m 92.3,95.4 4,4 m 0,-4 -4,4 m 30.3,86.3 4,4 m 0,-4 -4,4 m -9.1,-297.8 4,4 m 0,-4 -4,4 m 52.8,-8.6 4,4 m 0,-4 -4,4 m -120.1,290.6 4,4 m 0,-4 -4,4 m 9.5,17.9 4,4 m 0,-4 -4,4 m -34.6,47 4,4 m 0,-4 -4,4 m -25.2,-6.4 4,4 m 0,-4 -4,4 M 122.2,486 l 4,4 m 0,-4 -4,4 m 112.4,-338.7 4,4 m 0,-4 -4,4 m 27.4,-67.8 4,4 m 0,-4 -4,4 m -32.6,-7.1 4,4 m 0,-4 -4,4 m -11.4,-2.9 4,4 m 0,-4 -4,4 m 59.4,-13.3 4,4 m 0,-4 -4,4 m 20.3,9 4,4 m 0,-4 -4,4 m 31.9,-29.1 4,4 m 0,-4 -4,4 m 52.1,27.2 4,4 m 0,-4 -4,4 m 20.5,-24.3 4,4 m 0,-4 -4,4 m -211.8,-1.4 4,4 m 0,-4 -4,4 m -80.3,-3.9 4,4 m 0,-4 -4,4 m -68.4,15.7 4,4 m 0,-4 -4,4 m 7.9,29.2 4,4 m 0,-4 -4,4 m 3.4,44.1 4,4 m 0,-4 -4,4 M 30.5,169 l 4,4 m 0,-4 -4,4 m 344.5,23.2 4,4 m 0,-4 -4,4 m -112.8,352.5 4,4 m 0,-4 -4,4 m 7.6,38.2 4,4 m 0,-4 -4,4 m 50.1,-3.4 4,4 m 0,-4 -4,4 m -108.3,37.6 4,4 m 0,-4 -4,4 m 172.6,-217.8 4,4 m 0,-4 -4,4 m 60.1,-22.7 4,4 m 0,-4 -4,4 m -20.5,-30.6 4,4 m 0,-4 -4,4 m -74.5,99.2 4,4 m 0,-4 -4,4 m 123.2,127.6 4,4 m 0,-4 -4,4 m -79.4,34.2 4,4 m 0,-4 -4,4 m 40.9,-3.3 4,4 m 0,-4 -4,4 m -50,-4.1 4,4 m 0,-4 -4,4 m -80.5,-286.2 4,4 m 0,-4 -4,4 m 160.5,313.5 4,4 m 0,-4 -4,4 m 18.3,-1.6 4,4 m 0,-4 -4,4 m -384.5,-429 4,4 m 0,-4 -4,4 m -38.9,59.3 4,4 m 0,-4 -4,4 m 14.8,56 4,4 m 0,-4 -4,4"
       id="marqueV_001"
       stroke="#008000" />
    <path
       d="m 239,261.6 1.5,-0.7 2.3,-2.3 v 15.8"
       id="titre_1"
       stroke="#4b0082" />
    <path
       d="M 401,435.8 V 435 l 0.8,-1.5 0.7,-0.7 1.5,-0.8 h 3 l 1.5,0.8 0.8,0.7 0.7,1.5 v 1.5 l -0.7,1.5 -1.5,2.3 -7.5,7.5 h 10.5"
       id="titre_2"
       stroke="#4b0082" />
    <path
       d="m 83.4,337.6 h 8.3 l -4.5,6 h 2.2 l 1.5,0.8 0.8,0.7 0.7,2.3 v 1.5 l -0.7,2.2 -1.5,1.5 -2.3,0.8 h -2.2 l -2.3,-0.8 -0.7,-0.7 -0.8,-1.5"
       id="titre_3"
       stroke="#4b0082" />
  </g>
  <g
     id="page_002">
    <path
       d="m 801.2,433.3 -0.6,-6.9 m 4.2,4.8 -3.6,2.1 m -1.6,-0.7 -0.4,0.6 -0.3,1.2 -3.2,-5.4 m -10.8,20.2 -6.9,0.4 m 4.9,-4.1 2,3.7 m -0.5,2.2 0.3,-0.2 h 0.7 l 0.4,0.1 0.5,0.4 0.6,1 v 0.7 l -0.1,0.4 -0.4,0.6 -0.5,0.2 -0.7,0.1 -1,-0.1 -4.1,-1.2 2,3.7 m 15.2,93.6 -1.3,2.6 2.2,1.6 -0.1,-0.5 0.1,-0.9 0.5,-0.8 0.6,-0.7 0.8,-0.2 1,0.1 0.5,0.3 0.7,0.7 0.2,0.8 -0.1,0.9 -0.4,0.8 -0.7,0.7 -0.4,0.1 h -0.7 m -1.8,-7.6 1.5,-2.9 1.3,2.7 0.4,-0.8 0.6,-0.4 0.4,-0.2 0.9,0.2 0.6,0.3 0.6,0.6 0.3,0.9 -0.2,0.9 -0.4,0.8 -0.7,0.7 -0.4,0.1 h -0.6 m -23.9,-55.9 -4,-5.7 m 6.1,2.1 -2.1,3.6 m -1.4,2.6 0.2,-0.9 -0.5,-1 -1.2,-1 -0.8,-0.4 -1.4,-0.5 -1.1,0.1 -0.7,0.6 -0.3,0.5 -0.2,1 0.5,0.9 1.2,1 0.8,0.5 1.4,0.4 h 1.1 l 0.7,-0.7 0.2,-0.4 m -44.5,25.8 3.6,-6 m 0.6,6.4 -4.2,-0.4 m -4.6,-1.3 0.2,0.7 0.9,0.3 0.6,0.1 0.9,-0.2 0.7,-0.9 0.4,-1.4 0.2,-1.5 -0.2,-1.3 -0.6,-0.6 -0.8,-0.4 h -0.3 l -1,0.2 -0.6,0.5 -0.4,0.9 v 0.3 l 0.2,0.9 0.5,0.7 0.9,0.4 h 0.3 l 0.9,-0.2 0.7,-0.6 0.4,-0.8 m -5.2,22.4 -7,-0.8 m 5.6,-3.2 1.4,4 m 1.6,4.9 -6.9,-0.8 m 5.6,-3.1 1.3,3.9 m 154.6,-69.8 1,2.9 2.6,-0.6 -0.4,-0.2 -0.5,-0.8 -0.3,-0.8 -0.1,-1 0.4,-0.7 0.8,-0.6 0.5,-0.2 h 1 l 0.7,0.4 0.6,0.7 0.3,0.9 v 0.9 l -0.1,0.4 -0.5,0.5 m -6.9,-7.1 -0.5,0.5 v 0.9 l 0.2,0.6 0.6,0.7 1,0.3 1.6,-0.2 1.4,-0.5 1,-0.7 0.4,-0.7 v -1 l -0.1,-0.3 -0.6,-0.7 -0.8,-0.4 h -0.9 l -0.3,0.1 -0.8,0.6 -0.3,0.8 v 0.9 l 0.1,0.3 0.6,0.8 0.7,0.3 h 1 m -15.2,26.3 -1.8,2.4 2,1.8 -0.1,-0.4 0.3,-0.9 0.5,-0.7 0.8,-0.6 0.9,-0.1 0.9,0.3 0.4,0.4 0.6,0.8 0.1,0.8 -0.3,0.9 -0.5,0.7 -0.8,0.6 h -0.4 l -0.7,-0.1 m 0.9,-9.9 1.6,4.9 2.7,-3.6 m -4.3,-1.3 5.1,3.8 m -34.8,41.7 -2,-2.3 -2.2,1.6 h 0.4 l 0.8,0.5 0.6,0.7 0.4,0.8 -0.1,0.9 -0.5,0.8 -0.4,0.4 -0.9,0.4 -0.8,-0.1 -0.8,-0.5 -0.6,-0.6 -0.4,-0.9 v -0.4 l 0.3,-0.7 m 7.7,1.1 2.2,2.5 -3,0.2 0.6,0.7 0.2,0.7 -0.1,0.4 -0.4,0.8 -0.5,0.4 -0.9,0.4 -0.8,-0.1 -0.8,-0.5 -0.6,-0.6 -0.4,-0.9 v -0.4 l 0.3,-0.7 m 74.1,-0.3 -0.3,0.5 0.2,1 0.3,0.5 0.7,0.6 1.1,0.1 1.4,-0.5 1.3,-0.8 0.9,-0.9 0.2,-0.8 -0.2,-0.9 -0.2,-0.3 -0.7,-0.6 -0.8,-0.2 -0.9,0.2 -0.3,0.1 -0.6,0.8 -0.2,0.8 0.2,0.9 0.1,0.3 0.7,0.6 0.9,0.2 0.9,-0.2 m -7.1,-3.8 0.7,0.7 h 1.1 l 1.4,-0.5 0.8,-0.4 1.2,-1.1 0.4,-0.9 -0.2,-1 -0.3,-0.5 -0.7,-0.6 -1.1,-0.1 -1.4,0.5 -0.8,0.5 -1.1,1 -0.5,1 0.2,0.9 0.2,0.4 m -23.9,-10.8 h 3 l 0.3,-2.7 -0.3,0.3 -0.9,0.3 h -0.9 l -0.9,-0.3 -0.6,-0.6 -0.3,-0.9 v -0.6 l 0.4,-0.9 0.6,-0.6 0.9,-0.3 h 0.9 l 0.9,0.3 0.3,0.3 0.2,0.6 m -9.3,2.9 0.4,-0.9 0.6,-0.6 0.9,-0.3 h 0.3 l 0.9,0.3 0.6,0.6 0.2,0.9 v 0.3 l -0.3,0.9 -0.6,0.6 -0.9,0.3 h -0.3 l -0.9,-0.3 -0.6,-0.6 -0.3,-1.2 0.1,-1.5 0.3,-1.5 0.6,-0.9 0.9,-0.3 h 0.6 l 0.9,0.3 0.3,0.6 m -93.9,-129.9 -4.2,5.5 m 0.1,-6.4 4.1,0.9 m 0.8,1.6 0.6,-0.2 1.1,-0.7 -1.3,6.2 m -60.3,-224.1 0.7,-0.6 0.1,-0.6 -0.2,-0.6 -0.5,-0.5 h -0.7 l -1.2,0.1 -1,0.1 -0.7,-0.4 -0.5,-0.4 -0.4,-0.9 0.1,-0.7 0.2,-0.3 0.7,-0.6 1.2,-0.5 h 0.9 l 0.4,0.2 0.5,0.4 0.3,0.9 -0.1,0.6 -0.3,0.8 -0.8,0.6 -1,0.7 -0.4,0.5 -0.1,0.7 0.2,0.5 0.5,0.5 1,-0.1 1.2,-0.4 m 30.7,-27.4 -0.2,0.6 0.2,1.3 -5,-3.9 m 2,8.1 -3.2,-6.2 m 5.8,2.9 -2.6,3.3 m 102.7,178.2 2.3,1.9 2,-1.9 h -0.5 l -0.8,-0.3 -0.7,-0.6 -0.6,-0.8 -0.1,-0.8 0.4,-0.9 0.4,-0.5 0.7,-0.5 0.9,-0.1 0.9,0.3 0.7,0.6 0.5,0.8 v 0.4 l -0.1,0.7 m -10.5,-1.9 6.3,-3.1 m -3,5.7 -3.3,-2.6 m 21.7,38.7 -1,2.8 2.5,1.2 -0.2,-0.4 v -0.9 l 0.3,-0.9 0.6,-0.7 0.8,-0.4 0.9,0.1 0.6,0.2 0.7,0.5 0.4,0.8 v 1 l -0.3,0.8 -0.6,0.8 -0.4,0.1 -0.7,0.1 m -2.5,-8.1 v 0.9 l 0.5,0.5 0.5,0.2 0.7,-0.1 0.5,-0.5 0.7,-1 0.6,-0.7 0.7,-0.4 0.7,-0.1 0.8,0.3 0.5,0.5 0.2,0.4 v 0.9 l -0.4,1.2 -0.6,0.7 -0.4,0.2 -0.7,0.1 -0.8,-0.3 -0.5,-0.5 -0.4,-0.8 0.1,-0.9 0.1,-1.3 -0.1,-0.6 -0.5,-0.5 -0.5,-0.2 -0.7,0.1 -0.6,0.7 -0.4,1.3 m -113,-76 -5.9,-3.8 m 6.4,-0.4 -0.5,4.2 m -0.2,1.7 -0.4,3.3 -2.2,-2.1 -0.1,0.9 -0.4,0.5 -0.3,0.3 -1,0.2 -0.5,-0.1 -0.9,-0.4 -0.5,-0.7 -0.2,-0.9 0.1,-0.9 0.4,-0.9 0.4,-0.2 0.6,-0.2 m -16.2,-36.6 -2.1,6.7 m -2.1,-6.1 4.2,-0.6 m 4.7,-0.6 -3,0.4 0.1,2.7 0.2,-0.3 0.9,-0.4 0.9,-0.2 0.9,0.2 0.7,0.5 0.4,0.9 0.1,0.6 -0.2,0.9 -0.5,0.7 -0.9,0.4 -0.9,0.1 -0.9,-0.2 -0.3,-0.2 -0.4,-0.6 m -42.8,-9.1 -4.3,5.6 m 0.1,-6.4 4.2,0.8 m 2.6,0.6 -1,0.1 -0.4,0.5 -0.1,0.6 0.1,0.6 0.6,0.5 1.1,0.5 0.8,0.5 0.5,0.7 0.2,0.6 -0.2,0.9 -0.4,0.5 -0.4,0.3 -0.9,0.1 -1.2,-0.3 -0.8,-0.4 -0.3,-0.4 -0.1,-0.6 0.1,-0.9 0.5,-0.5 0.7,-0.5 0.9,-0.1 1.2,-0.1 0.7,-0.2 0.4,-0.5 0.1,-0.6 -0.2,-0.6 -0.8,-0.5 -1.3,-0.3 m -22.2,-28.2 -0.3,-0.9 -0.5,-0.3 h -0.6 l -0.7,0.2 -0.3,0.6 -0.3,1.2 -0.4,0.9 -0.6,0.5 -0.6,0.3 h -0.9 l -0.6,-0.4 -0.3,-0.3 -0.3,-0.9 0.1,-1.2 0.3,-0.9 0.4,-0.2 0.6,-0.3 h 0.9 l 0.6,0.4 0.5,0.6 0.3,0.9 0.2,1.2 0.3,0.6 0.6,0.3 0.6,0.1 0.6,-0.3 0.3,-0.9 0.1,-1.3 m -1.6,3.8 0.3,0.6 0.8,1 -6.3,-0.3 m -2.1,-44.4 0.4,-0.6 -0.3,-0.9 -0.3,-0.5 -0.8,-0.6 h -1 l -1.5,0.6 -1.2,0.8 -0.8,0.9 -0.2,0.8 0.2,0.9 0.2,0.3 0.7,0.6 0.9,0.1 0.9,-0.2 0.2,-0.2 0.6,-0.7 0.2,-0.8 -0.2,-1 -0.2,-0.2 -0.8,-0.6 -0.8,-0.2 -0.9,0.3 m 26.3,-10.9 5.1,-0.5 -2.9,-3.4 m -2.2,3.9 4.7,-4.1 m -46,-10.4 -0.9,0.3 -0.8,-0.1 -0.8,-0.6 -0.2,-0.2 -0.3,-0.9 0.2,-0.9 0.5,-0.7 0.3,-0.2 0.9,-0.3 0.8,0.2 0.8,0.5 0.2,0.3 0.3,0.9 -0.2,0.8 -0.8,0.9 -1.2,0.9 -1.4,0.7 h -1.1 l -0.7,-0.6 -0.4,-0.5 -0.3,-0.9 0.3,-0.6 m 37.9,-17.7 -0.3,-0.6 -0.8,-0.9 6.3,0.2 m -26.6,-32 0.9,0.3 1,-0.3 1.2,-1 0.6,-0.7 0.7,-1.3 0.1,-1.1 -0.5,-0.8 -0.4,-0.4 -0.9,-0.3 -1.1,0.3 -1.1,1 -0.6,0.7 -0.7,1.3 -0.1,1.1 0.5,0.8 0.3,0.3 m -23,-17.7 -0.5,0.5 -0.5,1.2 -2.4,-5.8 m -0.2,7.1 0.7,-0.6 0.2,-1.1 -0.3,-1.5 -0.3,-0.8 -0.9,-1.2 -0.9,-0.6 h -1 l -0.5,0.3 -0.7,0.6 -0.2,1.1 0.3,1.5 0.4,0.8 0.8,1.3 0.9,0.5 h 1 l 0.4,-0.2 m 207.6,157.7 h -0.6 l -1.3,0.3 3.2,-5.4 m -5.8,4.1 0.9,0.2 1,-0.5 1,-1.1 0.5,-0.8 0.5,-1.5 -0.1,-1 -0.6,-0.8 -0.5,-0.3 -1,-0.2 -0.9,0.5 -1,1.2 -0.5,0.7 -0.5,1.5 v 1.1 l 0.7,0.7 0.4,0.2 m -4.3,-2.5 1,0.2 0.5,-0.4 0.3,-0.5 0.1,-0.6 -0.4,-0.6 -0.9,-0.9 -0.6,-0.7 -0.2,-0.8 v -0.7 l 0.5,-0.8 0.6,-0.3 0.4,-0.1 0.9,0.2 1,0.6 0.7,0.7 0.1,0.4 -0.1,0.7 -0.4,0.8 -0.6,0.3 -0.8,0.2 -0.9,-0.2 -1.2,-0.3 -0.7,-0.1 -0.6,0.4 -0.3,0.5 v 0.7 l 0.6,0.7 1.2,0.7 m -36.7,-119.4 -0.4,0.5 -0.5,1.2 -2.5,-5.8 m -0.1,7.2 0.7,-0.7 0.2,-1 -0.3,-1.5 -0.4,-0.9 -0.8,-1.2 -1,-0.6 -0.9,0.1 -0.5,0.2 -0.8,0.7 -0.1,1 0.3,1.5 0.3,0.8 0.9,1.3 0.9,0.6 1,-0.1 0.4,-0.2 m -4.2,0.2 0.1,0.3 v 0.6 l -0.2,0.4 -0.4,0.6 -1.1,0.4 h -0.7 l -0.4,-0.2 -0.5,-0.4 -0.2,-0.5 v -0.7 l 0.2,-1.1 1.6,-3.9 -3.9,1.6 m 47,85.8 0.3,-0.6 0.3,-1.3 3.4,5.4 m -1,-7.1 -0.6,0.7 -0.1,1.1 0.6,1.4 0.5,0.8 1,1.1 1,0.4 0.9,-0.2 0.5,-0.3 0.6,-0.7 0.1,-1.1 -0.6,-1.5 -0.5,-0.7 -1,-1.1 -1,-0.5 -0.9,0.3 -0.4,0.2 m 4.1,-2.6 -0.6,0.7 0.1,0.7 0.3,0.5 0.6,0.3 h 0.7 l 1.1,-0.4 1,-0.2 0.8,0.1 0.6,0.4 0.4,0.8 0.1,0.6 -0.1,0.4 -0.6,0.8 -1,0.6 -0.9,0.2 -0.4,-0.1 -0.6,-0.3 -0.5,-0.8 -0.1,-0.6 0.2,-0.9 0.6,-0.7 0.9,-0.9 0.3,-0.6 v -0.6 l -0.4,-0.5 -0.5,-0.4 -0.9,0.2 -1.2,0.8 m 47.3,-2.9 0.1,-0.2 0.5,-0.5 0.4,-0.2 0.6,-0.1 1.2,0.4 0.4,0.5 0.2,0.4 0.1,0.7 -0.2,0.5 -0.5,0.5 -0.9,0.6 -3.8,1.9 4,1.4 m 3.1,-4 0.1,-0.3 0.5,-0.4 0.4,-0.2 0.7,-0.1 1.1,0.4 0.5,0.5 0.2,0.4 v 0.6 l -0.2,0.6 -0.4,0.5 -0.9,0.6 -3.8,1.8 3.9,1.4 m 20.7,-77.9 -0.2,0.2 -0.6,0.3 -0.5,0.1 -0.6,-0.2 -1,-0.7 -0.2,-0.6 -0.1,-0.5 0.2,-0.6 0.3,-0.5 0.6,-0.3 1.1,-0.3 4.2,-0.5 -3.3,-2.6 m -8,1.7 6.3,-3.1 m -3,5.7 -3.3,-2.6 m -115,-87.9 -0.6,0.1 -1.1,0.7 1.3,-6.1 m -4.2,5.7 0.9,-0.1 0.8,-0.7 0.6,-1.5 0.2,-0.8 V 38 l -0.4,-1 -0.9,-0.4 -0.5,-0.2 -1,0.1 -0.8,0.8 -0.6,1.4 -0.1,0.9 -0.1,1.5 0.5,1 0.8,0.5 0.4,0.1 m -3.9,-0.8 -3.2,-0.7 2.2,-2 -0.8,-0.2 -0.6,-0.4 -0.2,-0.3 -0.1,-1 0.1,-0.6 0.5,-0.8 0.7,-0.4 0.9,-0.2 0.9,0.2 0.8,0.5 0.3,0.4 0.1,0.6 m -4.2,79.7 0.4,-0.5 0.6,-1.1 1.9,6 m 0.9,-7.1 -0.8,0.6 -0.3,1 0.2,1.5 0.3,0.9 0.7,1.3 0.8,0.7 h 1 l 0.6,-0.2 0.7,-0.5 0.3,-1.1 -0.1,-1.5 -0.3,-0.8 -0.7,-1.4 -0.9,-0.7 h -0.9 l -0.5,0.2 m 4.2,0.2 -0.1,-0.3 0.1,-0.6 0.2,-0.4 0.5,-0.5 1.2,-0.3 0.6,0.1 0.4,0.2 0.5,0.5 0.1,0.5 -0.1,0.7 -0.3,1 -1.9,3.8 4,-1.3 m -53.7,6.6 -2.3,6.6 m -1.9,-6.1 4.2,-0.5 m -16.6,-4.9 0.5,-0.4 0.1,-0.9 -0.1,-0.6 -0.5,-0.8 -1,-0.4 h -1.5 l -1.5,0.3 -1.1,0.5 -0.5,0.7 -0.1,1 0.1,0.3 0.4,0.8 0.7,0.5 1,0.1 0.3,-0.1 0.8,-0.5 0.5,-0.7 0.1,-0.9 -0.1,-0.3 -0.5,-0.8 -0.7,-0.5 -0.9,-0.1 m 9.3,-72.9 -1.6,-6.8 m 4.9,4.2 -3.3,2.6 m -5.2,1.5 -0.4,-0.8 0.1,-0.9 0.5,-0.8 0.3,-0.2 0.9,-0.3 0.8,0.1 0.8,0.5 0.2,0.2 0.3,0.9 -0.1,0.9 -0.5,0.8 -0.2,0.2 -0.9,0.3 -0.9,-0.1 -0.9,-0.8 -1,-1.1 -0.7,-1.4 -0.1,-1.1 0.5,-0.8 0.5,-0.3 0.9,-0.4 0.6,0.3 m -7.1,32.8 -0.4,-0.8 -0.7,-0.2 h -0.6 l -0.5,0.4 -0.2,0.6 -0.2,1.3 -0.2,0.9 -0.5,0.7 -0.5,0.4 -0.9,0.1 -0.7,-0.3 -0.3,-0.2 -0.4,-0.9 -0.2,-1.2 0.2,-0.9 0.3,-0.3 0.5,-0.4 0.9,-0.1 0.7,0.2 0.6,0.5 0.4,0.9 0.5,1.1 0.4,0.6 0.6,0.2 0.6,-0.1 0.5,-0.3 0.2,-1 -0.1,-1.3 m -0.9,4.1 0.3,0.5 1,0.8 -6.2,0.8 m 158.7,208.2 -0.3,0.1 h -0.7 l -0.3,-0.2 -0.6,-0.4 -0.4,-1.1 v -0.7 l 0.2,-0.4 0.4,-0.5 0.5,-0.2 h 0.7 l 1.1,0.2 3.9,1.6 -1.6,-3.9 m -5.1,0.4 -0.3,0.1 h -0.7 l -0.4,-0.2 -0.5,-0.4 -0.4,-1.1 V 280 l 0.2,-0.4 0.4,-0.5 0.5,-0.2 h 0.7 l 1.1,0.2 3.9,1.6 -1.7,-3.9 m -18.4,23.1 0.6,-0.3 0.9,-0.9 0.1,6.3 m 2.9,-6.5 -0.9,0.3 -0.6,0.9 -0.3,1.5 v 0.9 l 0.3,1.5 0.6,0.9 0.9,0.3 h 0.6 l 0.9,-0.3 0.6,-0.9 0.3,-1.5 v -0.9 l -0.3,-1.5 -0.6,-0.9 -0.9,-0.3 h -0.5 m 7,0 h -3 l -0.3,2.7 0.3,-0.3 0.9,-0.3 h 0.9 l 0.9,0.3 0.6,0.6 0.3,0.9 v 0.6 l -0.3,0.9 -0.6,0.6 -0.9,0.3 h -0.9 l -0.9,-0.3 -0.3,-0.3 -0.3,-0.6 m -137.4,108.2 0.4,-0.5 0.3,-1.2 3.2,5.4 m -1.8,-6.5 2.9,-1.7 -0.4,3 0.8,-0.4 0.7,-0.1 0.4,0.1 0.7,0.6 0.3,0.6 0.2,0.9 -0.2,0.8 -0.6,0.7 -0.8,0.5 -1,0.2 -0.4,-0.1 -0.5,-0.4 m 4.7,-8.7 -0.5,5.1 3.9,-2.3 m -3.4,-2.8 3.2,5.4 m -88.8,-13.9 0.5,0.3 1.3,0.4 -5.5,3.1 m 6.5,-1.7 1.6,2.8 -2.9,-0.3 0.4,0.7 v 0.7 l -0.1,0.4 -0.6,0.7 -0.5,0.3 -1,0.2 -0.8,-0.2 -0.7,-0.6 -0.4,-0.8 -0.2,-1 0.1,-0.4 0.4,-0.5 m 5.8,2.7 0.5,0.4 1.3,0.3 -5.5,3.2 m 46.3,-49.1 0.8,-0.4 h 0.9 l 0.8,0.4 0.2,0.2 0.5,0.8 v 0.9 l -0.5,0.8 -0.2,0.3 -0.8,0.4 h -0.9 l -0.8,-0.4 -0.2,-0.2 -0.5,-0.9 v -0.8 l 0.7,-1.1 1,-1.1 1.3,-0.8 1,-0.2 0.9,0.4 0.4,0.4 0.5,0.8 -0.3,0.7 m -8.4,-3.7 0.8,-0.5 h 0.9 l 0.8,0.4 0.2,0.3 0.5,0.8 v 0.8 l -0.5,0.9 -0.2,0.2 -0.8,0.4 h -0.9 l -0.8,-0.4 -0.2,-0.2 -0.5,-0.8 v -0.9 l 0.7,-1 1,-1.1 1.3,-0.9 1,-0.2 0.9,0.4 0.4,0.5 0.5,0.8 -0.3,0.6 m -28,7.7 v -1 l 0.4,-0.7 0.7,-0.6 0.3,-0.1 h 1 l 0.7,0.3 0.6,0.8 0.1,0.3 v 0.9 l -0.3,0.8 -0.8,0.6 -0.3,0.1 h -0.9 l -0.8,-0.4 -0.7,-1 -0.5,-1.4 -0.2,-1.5 0.3,-1.1 0.7,-0.6 0.6,-0.2 h 0.9 l 0.5,0.5 m -6,7.9 2.8,-1 -0.6,-2.7 -0.2,0.4 -0.7,0.6 -0.9,0.3 h -0.9 l -0.8,-0.4 -0.6,-0.7 -0.2,-0.6 V 361 l 0.3,-0.8 0.8,-0.6 0.8,-0.3 h 1 l 0.4,0.2 0.5,0.5 m 20.1,78 0.3,-0.6 0.2,-1.2 3.8,5 m -1.7,-5 -0.2,-0.2 -0.1,-0.7 0.1,-0.4 0.3,-0.6 0.9,-0.7 0.7,-0.2 0.4,0.1 0.6,0.3 0.4,0.5 0.1,0.6 v 1.1 l -0.5,4.2 3.3,-2.5 m 1.5,-6.4 0.3,0.9 -0.1,0.8 -0.5,0.8 -0.3,0.2 -0.9,0.3 -0.8,-0.1 -0.8,-0.6 -0.2,-0.2 -0.3,-0.9 0.1,-0.9 0.6,-0.7 0.2,-0.2 0.9,-0.3 0.8,0.1 1,0.8 0.9,1.2 0.7,1.3 v 1.1 l -0.5,0.8 -0.5,0.4 -0.9,0.3 -0.6,-0.3 m -52.5,-12.5 -0.6,0.1 -1.1,0.7 1.5,-6.1 m -3.2,5.9 -3.3,-0.8 2.4,-1.9 -0.9,-0.2 -0.5,-0.5 -0.2,-0.3 -0.1,-1 0.1,-0.6 0.6,-0.8 0.7,-0.4 0.9,-0.1 0.9,0.2 0.8,0.6 0.2,0.3 0.2,0.7 m -6,2.3 -0.7,0.1 -1.1,0.7 1.5,-6.1 m -14.7,66 0.6,-0.4 0.7,-1.1 1.3,6.2 m -0.1,-5.2 0.6,-0.4 0.7,-1.1 1.3,6.2 m 4,-5.4 -0.1,1 -0.5,0.7 -0.8,0.5 h -0.3 l -0.9,-0.1 -0.7,-0.5 -0.5,-0.8 -0.1,-0.3 0.1,-0.9 0.5,-0.7 0.8,-0.5 0.3,-0.1 0.9,0.1 0.8,0.5 0.5,1.1 0.3,1.5 v 1.5 l -0.4,1 -0.8,0.5 -0.6,0.1 -0.9,-0.1 -0.4,-0.5 m -16,-15.8 0.5,0.5 1.1,0.6 -6,1.7 m 5.2,-0.4 0.4,0.5 1.1,0.6 -6,1.8 m 6.7,3 0.5,-0.5 v -0.9 l -0.1,-0.6 -0.6,-0.8 -1,-0.3 -1.5,0.1 -1.5,0.5 -1,0.6 -0.4,0.7 -0.1,1 0.1,0.3 0.5,0.7 0.8,0.4 0.9,0.1 0.3,-0.1 0.8,-0.5 0.4,-0.8 0.1,-0.9 -0.1,-0.3 -0.6,-0.8 -0.7,-0.4 h -1 m -11.6,-36.7 0.5,0.4 1.2,0.4 -5.7,2.8 m 5.1,-1.3 0.5,0.4 1.2,0.4 -5.6,2.8 m 8.1,1.8 -7,0.1 m 5.2,-3.9 1.8,3.8 m 13.6,-26.8 -0.6,0.3 -0.7,1.1 -0.9,-6.3 m -1,5.2 0.1,0.3 -0.2,0.6 -0.3,0.4 -0.5,0.4 -1.2,0.1 -0.7,-0.2 -0.3,-0.2 -0.4,-0.6 -0.1,-0.6 0.2,-0.6 0.5,-1 2.6,-3.4 -4.2,0.6 m -3.8,6.9 3,-0.4 -0.1,-2.7 -0.3,0.3 -0.8,0.4 -0.9,0.1 -0.9,-0.1 -0.7,-0.6 -0.4,-0.8 -0.1,-0.6 0.1,-0.9 0.6,-0.7 0.8,-0.4 0.9,-0.2 0.9,0.2 0.4,0.3 0.4,0.5 m -8,3.7 v 0.7 l 0.4,1.2 -5.6,-2.9 m 3.7,3.8 0.3,0.1 0.4,0.5 0.1,0.4 v 0.7 l -0.6,1.1 -0.5,0.4 -0.4,0.1 h -0.7 l -0.5,-0.3 -0.4,-0.5 -0.5,-1 -1.3,-4 -2,3.7 m 3.7,6.8 -2.3,-4.6 -2.1,4 m 4.4,0.6 -5.6,-2.9 m 277.6,186.5 -0.4,-3 -2.7,0.1 0.3,0.3 0.4,0.8 0.1,0.9 -0.1,0.9 -0.5,0.7 -0.9,0.4 -0.6,0.1 -0.9,-0.1 -0.7,-0.5 -0.4,-0.9 -0.1,-0.9 0.1,-0.9 0.3,-0.4 0.5,-0.3 m 6.3,8.1 -0.4,-3 -2.7,0.1 0.3,0.3 0.5,0.8 0.1,0.9 -0.2,0.9 -0.5,0.7 -0.8,0.4 -0.6,0.1 -1,-0.2 -0.6,-0.5 -0.5,-0.8 -0.1,-0.9 0.2,-0.9 0.2,-0.4 0.6,-0.4 m 12,36.6 0.5,-0.5 0.6,-1.1 1.9,6 m 2.1,-7.6 -1.6,4.9 4.3,-1.3 m -2.7,-3.6 1.9,6 m 73.5,-6.9 0.5,-0.4 0.7,-1.1 1.3,6.2 m 1.5,-7 -0.8,0.5 -0.4,1 0.1,1.5 0.2,0.9 0.6,1.4 0.7,0.7 1,0.1 0.6,-0.1 0.8,-0.5 0.4,-1 v -1.5 l -0.2,-0.9 -0.6,-1.4 -0.8,-0.7 -1,-0.1 -0.4,0.1 m 7.6,0.5 -0.1,0.9 -0.5,0.7 -0.8,0.5 -0.3,0.1 -0.9,-0.1 -0.8,-0.5 -0.4,-0.8 -0.1,-0.3 0.1,-1 0.5,-0.7 0.8,-0.5 h 0.3 l 0.9,0.1 0.7,0.4 0.6,1.2 0.3,1.4 v 1.5 l -0.4,1.1 -0.8,0.4 -0.6,0.2 -0.9,-0.1 -0.4,-0.6 m 9.2,-46.9 -0.5,-0.5 -1.1,-0.6 6,-1.8 m -5.2,0.5 -0.4,-0.5 -1.2,-0.6 6.1,-1.8 m -7.1,-1 0.6,0.8 1,0.3 1.5,-0.1 0.9,-0.3 1.3,-0.7 0.7,-0.8 v -1 l -0.1,-0.6 -0.6,-0.7 -1,-0.4 -1.5,0.2 -0.9,0.2 -1.3,0.7 -0.7,0.9 -0.1,0.9 0.2,0.4 M 946.7,543 h 0.7 l 0.7,-0.6 0.3,-0.5 0.1,-1 -0.5,-0.9 -1.2,-1 -1.3,-0.7 -1.2,-0.3 -0.9,0.3 -0.6,0.7 -0.2,0.2 -0.1,1 0.2,0.8 0.7,0.7 0.3,0.1 0.9,0.1 0.8,-0.2 0.7,-0.7 0.1,-0.2 0.2,-1 -0.3,-0.8 -0.6,-0.7 m 0.6,8 0.1,-0.9 -0.5,-0.9 -1.2,-1 -0.8,-0.4 -1.5,-0.4 -1.1,0.1 -0.6,0.7 -0.3,0.5 -0.2,0.9 0.6,1 1.2,0.9 0.8,0.4 1.4,0.5 1.1,-0.2 0.7,-0.6 0.2,-0.4 m -23.6,146.8 0.7,-0.3 0.9,-0.8 -0.4,6.2 m 5.1,-5.3 -0.3,-0.6 -0.8,-0.3 -0.6,-0.1 -0.9,0.3 -0.7,0.8 -0.4,1.5 -0.1,1.5 0.2,1.2 0.6,0.7 0.9,0.3 h 0.3 l 0.9,-0.2 0.6,-0.6 0.4,-0.8 v -0.3 l -0.2,-1 -0.6,-0.6 -0.9,-0.4 h -0.3 l -0.9,0.3 -0.6,0.5 -0.4,0.9 m -28.1,-9 0.6,-0.1 1.2,-0.5 -2,5.9 m 6.5,-4.6 -2.8,-1 -1.2,2.5 0.4,-0.2 h 1 l 0.8,0.3 0.8,0.6 0.4,0.7 v 1 l -0.2,0.5 -0.6,0.8 -0.8,0.4 H 900 l -0.9,-0.3 -0.7,-0.6 -0.2,-0.4 -0.1,-0.6 m 3,-19.8 v 0.7 l 0.4,1.2 -5.7,-2.6 m 5.2,4.3 -1.4,3 -1.4,-2.7 -0.4,0.8 -0.5,0.5 -0.4,0.1 -1,-0.1 -0.5,-0.2 -0.7,-0.7 -0.3,-0.8 0.1,-0.9 0.4,-0.9 0.6,-0.6 0.4,-0.2 h 0.7 m 68.9,-6.2 2.9,-0.4 v -2.7 l -0.3,0.3 -0.8,0.4 -0.9,0.1 -1,-0.1 -0.6,-0.6 -0.4,-0.8 -0.1,-0.6 0.2,-0.9 0.5,-0.7 0.8,-0.4 0.9,-0.1 0.9,0.1 0.4,0.3 0.4,0.5 m -18.1,30.2 0.5,-0.5 0.6,-1.1 1.7,6.1 m 3.6,-5.7 v 1 l -0.4,0.7 -0.8,0.6 h -0.3 -0.9 l -0.8,-0.4 -0.5,-0.8 -0.1,-0.3 0.1,-0.9 0.4,-0.8 0.7,-0.5 0.3,-0.1 h 1 l 0.7,0.5 0.6,1 0.5,1.5 0.1,1.5 -0.3,1 -0.8,0.6 -0.6,0.1 h -0.9 l -0.5,-0.5 m 19.7,-20.6 v -0.7 l -0.4,-1.2 5.6,3 m -4.5,-5.4 -0.1,0.9 0.3,0.5 0.6,0.3 0.6,0.1 0.6,-0.4 0.8,-0.9 0.7,-0.7 0.8,-0.2 h 0.7 l 0.8,0.4 0.4,0.6 0.1,0.4 -0.2,0.9 -0.5,1.1 -0.7,0.6 -0.4,0.1 h -0.7 l -0.8,-0.4 -0.4,-0.6 -0.2,-0.8 0.1,-0.9 0.3,-1.2 0.1,-0.7 -0.4,-0.5 -0.5,-0.3 h -0.7 l -0.7,0.6 -0.7,1.2 m -221.3,-59 -2,2.2 1.8,2 v -0.4 l 0.4,-0.8 0.6,-0.7 0.8,-0.5 h 0.9 l 0.8,0.3 0.5,0.4 0.5,0.9 v 0.8 l -0.4,0.9 -0.6,0.7 -0.8,0.4 -0.4,0.1 -0.7,-0.2 m 2.2,-10.1 -2,2.3 1.8,2 v -0.4 l 0.4,-0.9 0.6,-0.7 0.8,-0.5 h 0.8 l 0.9,0.4 0.4,0.4 0.5,0.8 0.1,0.8 -0.4,0.9 -0.6,0.7 -0.8,0.5 h -0.5 l -0.6,-0.2 m -33.2,-11.7 0.2,-0.9 -0.3,-0.6 -0.5,-0.3 -0.7,-0.1 -0.5,0.3 -1,0.8 -0.7,0.6 -0.9,0.1 -0.6,-0.1 -0.8,-0.5 -0.3,-0.6 -0.1,-0.4 0.3,-0.9 0.7,-1 0.7,-0.6 h 0.4 l 0.7,0.1 0.8,0.5 0.3,0.6 0.1,0.8 -0.2,0.9 -0.5,1.2 -0.1,0.6 0.4,0.6 0.5,0.4 0.6,0.1 0.8,-0.6 0.8,-1.1 m -3.3,4.7 0.2,-0.9 -0.4,-1 -1,-1.1 -0.8,-0.5 -1.4,-0.6 h -1.1 l -0.7,0.6 -0.4,0.5 -0.2,0.9 0.4,1 1,1.1 0.8,0.5 1.4,0.6 h 1.1 l 0.7,-0.6 0.3,-0.3 m 221.6,-107.7 -1.4,-2.6 -2.5,1 0.4,0.1 0.7,0.7 0.4,0.8 0.2,0.9 -0.3,0.8 -0.6,0.7 -0.6,0.3 -0.9,0.2 -0.8,-0.3 -0.7,-0.6 -0.4,-0.8 -0.2,-1 0.1,-0.4 0.4,-0.5 m 7,6.7 -0.9,0.2 -0.8,-0.3 -0.7,-0.6 -0.1,-0.3 -0.2,-0.9 0.3,-0.8 0.6,-0.7 0.3,-0.2 0.9,-0.1 0.8,0.2 0.7,0.7 0.1,0.2 0.2,1 -0.2,0.8 -1,0.8 -1.3,0.7 -1.4,0.5 -1.1,-0.1 -0.7,-0.7 -0.3,-0.5 -0.1,-1 0.3,-0.5 m 12.3,-9.8 3,0.3 0.6,-2.7 -0.4,0.3 -0.9,0.2 -0.9,-0.1 -0.9,-0.3 -0.5,-0.7 -0.2,-0.9 v -0.6 l 0.4,-0.9 0.6,-0.5 1,-0.2 h 0.9 l 0.8,0.4 0.3,0.3 0.2,0.6 m -8.8,4.5 3.3,-3.9 -4.5,-0.4 m 1.2,4.3 0.5,-6.3 m 26.4,54 0.5,-0.4 0.7,-1 1.4,6.1 m 1.5,-7 -0.8,0.5 -0.4,1 v 1.5 l 0.2,0.9 0.6,1.4 0.8,0.8 0.9,0.1 0.6,-0.1 0.8,-0.5 0.4,-1 v -1.6 l -0.2,-0.8 -0.6,-1.4 -0.8,-0.8 -0.9,-0.1 -0.5,0.1 m 7,-0.6 -0.4,-0.5 -0.9,-0.1 -0.6,0.1 -0.8,0.5 -0.4,1 v 1.5 l 0.3,1.5 0.6,1.1 0.7,0.5 0.9,0.1 0.3,-0.1 0.8,-0.5 0.5,-0.7 0.1,-0.9 -0.1,-0.3 -0.4,-0.9 -0.8,-0.4 -0.9,-0.1 h -0.3 l -0.8,0.5 -0.5,0.7 -0.1,1 m 18.1,-31.7 h -0.6 l -1.3,0.3 3.3,-5.4 m -5.9,4 0.9,0.2 1,-0.4 1,-1.2 0.5,-0.7 0.5,-1.5 v -1 l -0.6,-0.8 -0.5,-0.3 -0.9,-0.2 -1,0.4 -1.1,1.2 -0.4,0.7 -0.6,1.5 0.1,1.1 0.6,0.7 0.4,0.2 m -5.6,-3.4 4.7,-2 -3.8,-2.3 m -0.9,4.3 3.3,-5.3 m 5.4,27.8 -0.2,-0.2 -0.3,-0.7 v -0.4 l 0.2,-0.6 0.8,-0.9 0.7,-0.2 0.4,-0.1 0.6,0.2 0.5,0.4 0.2,0.7 0.3,1 0.1,4.3 2.9,-3.1 m -0.8,-7.2 -0.6,-0.2 -0.8,0.5 -0.5,0.4 -0.3,0.9 0.2,1 0.9,1.3 1.1,1 1.1,0.6 h 0.8 l 0.9,-0.5 0.2,-0.2 0.4,-0.9 -0.1,-0.8 -0.4,-0.9 -0.2,-0.2 -0.9,-0.4 -0.9,0.1 -0.8,0.4 -0.2,0.3 -0.4,0.8 0.1,0.9 0.4,0.8 m -274.9,-211.6 6.1,-3.4 m -2.6,5.9 -3.5,-2.5 m -1.4,-1 -2.7,-1.8 2.9,-1 -0.8,-0.5 -0.3,-0.6 -0.1,-0.4 0.3,-0.9 0.4,-0.5 0.7,-0.6 0.9,-0.1 0.9,0.3 0.7,0.5 0.6,0.7 v 0.5 l -0.1,0.6 m -23.6,23.1 -7,-0.3 m 5.4,-3.5 1.6,3.8 m 1.7,4 -5,-1.2 1.7,4.2 m 3.3,-3 -5.8,2.4 m 3.7,-33.2 -3.5,-6 m 5.9,2.6 -2.4,3.4 m -2.8,3.9 1.8,-2.5 -2.1,-1.8 0.1,0.5 -0.3,0.9 -0.5,0.7 -0.8,0.6 -0.8,0.1 -0.9,-0.2 -0.5,-0.4 -0.6,-0.7 -0.1,-0.9 0.3,-0.9 0.5,-0.7 0.7,-0.6 0.5,-0.1 0.6,0.1 m 204,119.5 -0.7,-0.1 -1.2,0.1 4,-4.9 m -6.4,3.2 0.8,0.3 1.1,-0.3 1.2,-0.9 0.5,-0.7 0.8,-1.4 0.1,-1.1 -0.5,-0.8 -0.5,-0.3 -0.9,-0.4 -1,0.3 -1.2,1 -0.6,0.7 -0.7,1.3 -0.1,1.1 0.5,0.8 0.3,0.3 m -5.7,-4.7 6.3,-3 m -3.1,5.6 -3.2,-2.6 m 35.4,42.6 -0.3,0.1 -0.7,-0.1 -0.4,-0.2 -0.5,-0.4 -0.4,-1.1 v -0.7 l 0.2,-0.4 0.5,-0.5 0.5,-0.2 0.7,0.1 1.1,0.2 3.8,1.7 -1.5,-3.9 m -7.5,-1.7 5,1.3 -1.6,-4.2 m -3.4,2.9 5.9,-2.3 m -23,23.4 0.5,-0.4 0.7,-1.1 1.5,6.1 m 1.3,-7.1 -0.8,0.5 -0.4,1.1 0.1,1.5 0.2,0.9 0.7,1.3 0.8,0.8 h 0.9 l 0.6,-0.1 0.8,-0.5 0.4,-1 -0.1,-1.6 -0.2,-0.8 -0.7,-1.4 -0.8,-0.7 -0.9,-0.1 -0.5,0.1 m 6.3,-1.7 -1.8,4.8 4.3,-1.1 m -2.5,-3.7 1.6,6.1 m -24.8,-5.1 -0.9,-2.8 -2.6,0.4 0.3,0.2 0.6,0.8 0.2,0.9 v 0.9 l -0.4,0.8 -0.8,0.5 -0.6,0.2 -0.9,-0.1 -0.7,-0.4 -0.6,-0.7 -0.2,-0.9 v -1 l 0.2,-0.3 0.5,-0.5 m 6.5,7.4 0.5,-0.4 0.1,-1 -0.2,-0.6 -0.5,-0.7 -1.1,-0.4 -1.5,0.2 -1.4,0.4 -1.1,0.6 -0.4,0.8 -0.1,0.9 0.1,0.3 0.6,0.8 0.7,0.4 h 1 l 0.3,-0.1 0.7,-0.5 0.4,-0.8 0.1,-0.9 -0.1,-0.3 -0.6,-0.8 -0.7,-0.4 h -0.9 m -241.7,46.7 0.3,0.6 0.8,1 -6.3,-0.6 m 4.8,2.1 0.3,0.1 0.6,0.3 0.3,0.3 0.2,0.7 -0.1,1.2 -0.4,0.5 -0.3,0.3 -0.6,0.2 h -0.6 l -0.6,-0.4 -0.8,-0.7 -2.7,-3.3 -0.4,4.2 m 5.9,3.6 -0.2,-0.9 -0.8,-0.7 -1.5,-0.5 -0.9,-0.1 -1.5,0.2 -0.9,0.5 -0.4,0.9 -0.1,0.5 0.2,1 0.8,0.7 1.5,0.4 0.9,0.1 1.5,-0.1 1,-0.5 0.4,-0.9 v -0.5 m 36.2,-7.6 -0.5,-0.5 -1.2,-0.4 5.7,-2.6 m -5.1,1.1 -0.5,-0.4 -1.2,-0.4 5.7,-2.7 m -8.1,-2 7,0.1 m -5.2,3.7 -1.8,-3.8 m 12.2,37 -0.4,-0.6 -1,-0.7 6.2,-0.9 m -5.2,-0.4 -0.4,-0.5 -1,-0.8 6.3,-0.8 m -6.2,-4 -0.6,0.4 -0.2,0.9 0.1,0.6 0.4,0.9 1,0.5 h 1.5 l 1.5,-0.2 1.2,-0.4 0.5,-0.7 0.1,-0.9 v -0.3 l -0.4,-0.9 -0.7,-0.5 -0.9,-0.2 -0.3,0.1 -0.9,0.4 -0.5,0.7 -0.2,0.9 0.1,0.3 0.4,0.9 0.7,0.5 0.9,0.1 m 8.9,38.6 -0.5,-0.5 -1.2,-0.4 5.8,-2.6 m -5.1,1.1 -0.5,-0.4 -1.2,-0.5 5.7,-2.5 m -6,-2.8 0.9,-0.1 0.8,0.3 0.6,0.7 0.2,0.2 0.1,1 -0.3,0.8 -0.8,0.6 -0.2,0.1 -1,0.1 -0.8,-0.3 -0.6,-0.7 -0.1,-0.3 -0.1,-0.9 0.3,-0.8 1,-0.7 1.3,-0.7 1.5,-0.3 1.1,0.2 0.6,0.7 0.3,0.5 0.1,1 -0.5,0.5 m -33.1,-6.9 0.7,-0.1 1.1,-0.6 -2,6 m 3.2,-4.2 0.1,-0.3 0.4,-0.5 0.4,-0.2 0.7,-0.1 1.1,0.4 0.5,0.5 0.2,0.4 0.1,0.6 -0.2,0.6 -0.5,0.5 -0.9,0.6 -3.8,1.9 4,1.4 m 4.8,-5 h -0.9 l -0.9,0.6 -0.7,1.3 -0.3,0.9 -0.2,1.5 0.3,1 0.7,0.6 0.6,0.2 h 0.9 l 0.9,-0.6 0.8,-1.4 0.2,-0.8 0.2,-1.5 -0.2,-1.1 -0.8,-0.5 -0.4,-0.2 m -1.1,-79.5 0.4,-0.6 0.2,-1.2 3.5,5.2 m -1.4,-5.1 -0.2,-0.3 -0.1,-0.6 0.1,-0.4 0.3,-0.6 1,-0.7 0.7,-0.1 0.4,0.1 0.6,0.3 0.3,0.5 0.1,0.7 v 1.1 l -0.8,4.1 3.5,-2.3 m 0,-7.7 -0.1,5.1 3.7,-2.5 m -3.6,-2.6 3.5,5.2 m 33.5,1.1 v -0.7 l -0.5,-1.2 5.7,2.7 m -3.8,-3.6 -0.3,-0.1 -0.4,-0.6 -0.1,-0.4 v -0.6 l 0.5,-1.1 0.5,-0.4 0.4,-0.2 h 0.7 l 0.5,0.3 0.4,0.5 0.6,0.9 1.4,4 1.8,-3.8 m -2.8,-6.6 h -0.7 l -0.6,0.7 -0.3,0.6 -0.1,0.9 0.5,0.9 1.3,0.9 1.3,0.7 1.2,0.2 0.8,-0.3 0.7,-0.6 0.1,-0.3 0.1,-1 -0.2,-0.8 -0.7,-0.6 -0.3,-0.1 -0.9,-0.2 -0.8,0.3 -0.7,0.7 -0.1,0.3 -0.1,0.9 0.2,0.8 0.7,0.7 m -22.5,3.1 h 0.7 l 1.2,-0.3 -3.1,5.5 m 3.9,-3.6 0.2,-0.2 0.5,-0.4 0.4,-0.1 h 0.7 l 1.1,0.6 0.3,0.6 0.1,0.4 v 0.6 l -0.3,0.6 -0.5,0.3 -1,0.5 -4.1,1.2 3.7,2 m 7.6,-2.9 -5.7,4 m 2,-6.1 3.7,2.1 m 9.4,-26.8 -0.6,-0.2 -1.3,-0.1 4.7,-4.2 m -6,3.1 -2.2,-2.5 2.9,-0.3 -0.6,-0.6 -0.1,-0.7 v -0.4 l 0.4,-0.8 0.5,-0.4 0.9,-0.4 h 0.8 l 0.8,0.5 0.6,0.7 0.4,0.8 v 0.5 l -0.2,0.6 m -7.8,-1 -2.2,-2.4 3,-0.3 -0.6,-0.7 -0.2,-0.6 v -0.5 l 0.5,-0.8 0.4,-0.4 0.9,-0.4 0.8,0.1 0.9,0.4 0.6,0.7 0.3,0.9 v 0.4 l -0.2,0.6 m -18.7,-5.9 -0.5,0.4 -0.7,1.1 -1.3,-6.2 m -0.6,5.3 0.1,0.3 -0.2,0.6 -0.2,0.4 -0.6,0.4 -1.1,0.2 -0.7,-0.2 -0.3,-0.2 -0.4,-0.5 -0.2,-0.6 0.2,-0.7 0.4,-1 2.4,-3.5 -4.2,0.8 m -4.1,5.2 0.1,-1 0.5,-0.7 0.8,-0.4 0.3,-0.1 1,0.1 0.7,0.5 0.5,0.8 v 0.3 l -0.1,0.9 -0.5,0.7 -0.8,0.5 -0.3,0.1 -0.9,-0.1 -0.7,-0.5 -0.6,-1.1 -0.3,-1.5 v -1.5 l 0.4,-1 0.9,-0.5 0.5,-0.1 1,0.1 0.4,0.5 m -79.2,-68.6 0.7,-0.1 1.1,-0.7 -1.3,6.1 m 2.6,-4.6 0.1,-0.2 0.4,-0.6 0.4,-0.2 0.6,-0.2 1.2,0.2 0.5,0.5 0.2,0.3 0.2,0.7 -0.1,0.5 -0.4,0.6 -0.8,0.7 -3.5,2.4 4.1,0.8 m 5.9,-5.2 -2.9,-0.6 -0.9,2.6 0.4,-0.3 0.9,-0.1 0.9,0.2 0.8,0.4 0.5,0.8 0.1,0.9 -0.1,0.6 -0.5,0.8 -0.7,0.5 -0.9,0.1 -0.9,-0.2 -0.8,-0.4 -0.2,-0.4 -0.2,-0.6 m 7.2,-8.1 -0.3,0.5 -0.2,1.3 -3.6,-5.1 m 1.5,5 0.2,0.3 0.1,0.6 -0.1,0.4 -0.3,0.6 -0.9,0.7 -0.7,0.1 h -0.4 l -0.6,-0.3 -0.4,-0.5 -0.1,-0.7 v -1.1 l 0.7,-4.2 -3.4,2.5 m -0.6,8.1 -1.2,-6.8 m 4.6,4.4 -3.4,2.4 m 296.5,-142.6 0.2,0.6 0.6,1.1 -6.1,-1.4 m 5.7,4.3 -0.1,-0.9 -0.7,-0.8 -1.4,-0.6 -0.9,-0.2 -1.5,-0.1 -1.1,0.4 -0.5,0.8 -0.1,0.6 0.1,1 0.8,0.7 1.3,0.7 0.9,0.2 h 1.6 l 1,-0.4 0.5,-0.8 0.1,-0.4 m -1.6,6.8 0.7,-2.9 -2.6,-0.9 0.2,0.3 0.1,1 -0.2,0.9 -0.5,0.8 -0.7,0.4 -0.9,0.1 -0.6,-0.1 -0.8,-0.5 -0.5,-0.7 -0.1,-1 0.2,-0.9 0.5,-0.8 0.4,-0.2 0.6,-0.2 m 20,1.6 -2.7,1.3 0.9,2.5 0.1,-0.4 0.7,-0.6 0.8,-0.4 1,-0.1 0.8,0.3 0.6,0.7 0.3,0.5 0.1,1 -0.3,0.8 -0.7,0.6 -0.8,0.4 -0.9,0.1 -0.4,-0.1 -0.6,-0.5 m 6.4,-8.5 -0.1,6.9 m -3.7,-5.2 3.8,-1.7 m 32.3,-65.6 -0.2,0.2 -0.6,0.2 h -0.4 l -0.7,-0.2 -0.8,-0.8 -0.3,-0.6 v -0.5 l 0.2,-0.6 0.4,-0.4 0.7,-0.3 1,-0.2 4.3,-0.1 -3.1,-2.9 m -6.3,2.7 0.9,0.4 0.6,-0.2 0.4,-0.4 0.2,-0.7 -0.2,-0.6 -0.6,-1 -0.5,-0.9 v -0.8 l 0.2,-0.7 0.6,-0.6 0.6,-0.3 h 0.5 l 0.8,0.4 0.9,0.9 0.4,0.8 v 0.4 l -0.2,0.7 -0.6,0.6 -0.6,0.2 -0.9,0.1 -0.8,-0.4 -1.1,-0.6 -0.6,-0.2 -0.7,0.2 -0.4,0.4 -0.2,0.7 0.5,0.8 1,0.9 m 52.3,44.6 -0.2,0.2 -0.6,0.3 -0.4,0.1 -0.7,-0.2 -0.9,-0.7 -0.3,-0.6 v -0.5 l 0.1,-0.6 0.4,-0.5 0.6,-0.3 1,-0.3 4.2,-0.5 -3.2,-2.6 m -5.3,3.9 -2.6,-2.1 2.9,-0.8 -0.7,-0.5 -0.3,-0.6 v -0.5 l 0.3,-0.8 0.4,-0.5 0.8,-0.5 0.8,-0.1 0.9,0.3 0.7,0.6 0.5,0.8 0.1,0.4 -0.2,0.6 m -8.6,35.5 0.1,-0.7 -0.2,-1.3 5.1,3.8 m -3.5,-6.3 -0.3,0.9 0.4,1.1 1,1.1 0.8,0.5 1.3,0.7 h 1.1 l 0.8,-0.5 0.4,-0.5 0.2,-0.9 -0.3,-1 -1.1,-1.2 -0.7,-0.5 -1.4,-0.6 -1,-0.1 -0.8,0.6 -0.3,0.3 m 4.4,-6 3.3,6.2 m -5.8,-2.8 2.5,-3.4 m -22.3,9.5 -1.9,-2.3 -2.3,1.5 h 0.4 l 0.8,0.5 0.6,0.7 0.3,0.9 -0.1,0.9 -0.5,0.7 -0.4,0.4 -0.9,0.4 -0.9,-0.1 -0.8,-0.6 -0.5,-0.7 -0.4,-0.8 0.1,-0.5 0.3,-0.6 m 8.2,2.2 -0.8,-0.5 -0.6,0.1 -0.5,0.4 -0.3,0.6 0.2,0.6 0.5,1.2 0.3,0.9 -0.1,0.8 -0.3,0.6 -0.7,0.6 -0.6,0.1 h -0.4 l -0.8,-0.5 -0.8,-1 -0.3,-0.9 v -0.4 l 0.3,-0.6 0.7,-0.6 0.7,-0.1 0.8,0.1 0.8,0.5 1,0.7 0.6,0.3 0.7,-0.1 0.4,-0.4 0.3,-0.6 -0.3,-0.9 -0.9,-1 m -289.9,410.2 0.6,-0.1 1.1,-0.6 -1.7,6 m 3.5,-5.7 3.1,0.9 -2.4,1.8 0.9,0.2 0.5,0.5 0.2,0.4 v 0.9 l -0.2,0.6 -0.5,0.8 -0.7,0.4 h -1 l -0.9,-0.3 -0.7,-0.5 -0.2,-0.4 -0.2,-0.6 m 11.8,-1.9 -0.3,-0.5 -1,-0.9 6.3,-0.4 m -6.8,-3.8 4.3,2.7 -0.2,-4.5 m -4.1,1.8 6.3,-0.4 m -35.8,-27 -0.3,0.7 -0.1,1.2 -3.9,-4.9 m 2,6.7 0.5,-0.8 -0.2,-0.6 -0.3,-0.5 -0.7,-0.3 -0.6,0.2 -1.1,0.5 -0.9,0.3 -0.9,-0.1 -0.6,-0.3 -0.5,-0.7 -0.2,-0.6 0.1,-0.4 0.5,-0.8 0.9,-0.8 0.9,-0.3 h 0.4 l 0.6,0.3 0.6,0.7 0.1,0.7 v 0.8 l -0.6,0.8 -0.7,1 -0.3,0.6 0.1,0.7 0.4,0.4 0.6,0.3 0.9,-0.3 1.1,-0.9 m -16.7,12.2 0.1,0.6 0.4,1.2 -5.7,-2.7 m 3.8,3.7 0.3,0.1 0.4,0.5 0.1,0.4 0.1,0.7 -0.6,1.1 -0.5,0.4 -0.4,0.1 -0.6,0.1 -0.6,-0.3 -0.4,-0.5 -0.6,-0.9 -1.4,-4 -1.8,3.8 m 21.4,26 -0.4,-0.6 -0.9,-0.8 6.3,-0.5 m -5.2,-0.6 -0.4,-0.6 -0.9,-0.9 6.3,-0.4 m -26.6,10.8 2.4,2.3 -3,0.4 0.6,0.7 0.2,0.6 v 0.4 l -0.4,0.9 -0.4,0.4 -0.9,0.4 h -0.8 l -0.9,-0.4 -0.6,-0.7 -0.4,-0.8 v -0.4 l 0.2,-0.7 m 64.2,0.9 h -0.7 l -1.2,0.4 2.8,-5.7 m -7.1,3.8 2.7,1.3 1.4,-2.3 -0.4,0.2 -0.9,-0.2 -0.8,-0.3 -0.7,-0.7 -0.3,-0.8 0.1,-1 0.3,-0.5 0.7,-0.7 0.8,-0.3 0.9,0.2 0.8,0.4 0.7,0.6 0.1,0.4 v 0.7 m -15.6,0.5 -0.3,0.6 -0.3,1.2 -3.3,-5.3 m 1.8,4.9 -0.4,0.5 -0.3,1.3 -3.3,-5.4 m 30.8,21.9 h -0.3 l -0.6,-0.2 -0.4,-0.2 -0.4,-0.5 -0.2,-1.2 0.2,-0.7 0.3,-0.3 0.5,-0.4 0.6,-0.1 0.6,0.2 1,0.4 3.5,2.5 -0.7,-4.2 m -6.7,-1.8 0.4,0.8 1,0.5 h 1.5 l 0.9,-0.1 1.4,-0.6 0.8,-0.7 0.2,-1 -0.1,-0.6 -0.5,-0.8 -1,-0.4 -1.5,-0.1 -0.9,0.2 -1.4,0.5 -0.8,0.8 -0.1,0.9 v 0.4 m -21.5,7.7 -0.1,-0.3 0.3,-0.6 0.3,-0.3 0.6,-0.4 1.2,-0.1 0.6,0.3 0.3,0.3 0.3,0.6 0.1,0.6 -0.3,0.6 -0.5,0.9 -2.8,3.2 4.2,-0.3 m -58.1,-58.2 -0.3,-0.6 -0.9,-0.9 6.3,0.2 m -4.9,-1.8 H 656 l -0.6,-0.3 -0.3,-0.4 -0.3,-0.6 0.1,-1.2 0.3,-0.6 0.3,-0.2 0.6,-0.3 h 0.6 l 0.6,0.3 0.9,0.7 2.9,3.1 0.1,-4.2 M 646.5,622 v 0.3 l -0.2,0.7 -0.2,0.3 -0.6,0.4 -1.2,0.2 -0.6,-0.2 -0.3,-0.3 -0.4,-0.5 -0.1,-0.6 0.2,-0.6 0.4,-1 2.5,-3.5 -4.1,0.7 m -0.3,5 -0.6,0.4 -0.7,1 -1,-6.2 m 13.1,17.7 -0.5,-0.5 -1.2,-0.5 5.9,-2.3 m -5.9,-3.1 h 0.9 l 0.8,0.3 0.6,0.7 0.1,0.3 v 1 l -0.3,0.7 -0.7,0.6 -0.3,0.2 h -1 l -0.7,-0.3 -0.6,-0.8 -0.2,-0.3 v -0.9 l 0.4,-0.8 1,-0.7 1.4,-0.5 1.5,-0.3 1,0.2 0.6,0.8 0.2,0.5 0.1,1 -0.5,0.5 m -56.2,11.6 0.2,0.2 0.4,0.5 0.1,0.5 v 0.6 l -0.6,1.1 -0.6,0.3 -0.4,0.2 -0.7,-0.1 -0.5,-0.3 -0.3,-0.5 -0.5,-1 -1.2,-4.1 -2,3.7 m 14.5,17.8 3.3,0.3 -2,2.2 0.8,0.1 0.6,0.4 0.3,0.3 0.2,0.9 -0.1,0.6 -0.3,0.9 -0.7,0.5 -0.9,0.2 -0.9,-0.1 -0.9,-0.3 -0.3,-0.4 -0.2,-0.6 m 19,-57.1 -0.3,-0.1 -0.5,-0.5 -0.2,-0.4 -0.1,-0.6 0.4,-1.2 0.5,-0.5 0.3,-0.2 0.7,-0.1 0.6,0.2 0.4,0.5 0.7,0.8 2,3.8 1.2,-4 m -4.3,-2.5 -0.1,-0.7 -0.6,-1.1 6,1.9 m -6.8,-3.2 -0.6,0.2 -1,0.8 0.9,-6.3 m -5.5,4.9 0.2,0.7 0.8,0.4 0.6,0.1 1,-0.2 0.7,-0.8 0.5,-1.5 0.2,-1.4 -0.1,-1.3 -0.5,-0.7 -0.9,-0.4 H 621 l -0.9,0.2 -0.7,0.5 -0.4,0.8 v 0.3 l 0.1,0.9 0.5,0.7 0.9,0.4 0.3,0.1 0.9,-0.2 0.7,-0.5 0.4,-0.8 m -8.3,1.1 h 0.3 l 0.5,0.4 0.3,0.3 0.3,0.6 -0.1,1.2 -0.4,0.6 -0.3,0.2 -0.6,0.3 -0.6,-0.1 -0.6,-0.3 -0.8,-0.7 -2.8,-3.2 -0.3,4.2 m 6,3.4 -0.2,-0.9 -0.9,-0.7 -1.4,-0.4 -0.9,-0.1 -1.6,0.2 -0.9,0.6 -0.4,0.8 v 0.6 l 0.2,0.9 0.9,0.7 1.4,0.4 0.9,0.1 1.5,-0.2 1,-0.5 0.4,-0.9 v -0.4 m 260.5,-564.4 -3.2,0.9 1.1,-2.8 -0.9,0.3 -0.6,-0.1 -0.4,-0.2 -0.5,-0.8 -0.2,-0.6 0.1,-0.9 0.4,-0.8 0.7,-0.5 0.9,-0.3 1,0.1 0.3,0.2 0.5,0.5 m -4.1,5 -0.5,0.4 -0.6,1.1 -1.7,-6 m 35.6,59.4 -0.2,-0.6 -0.9,-0.3 h -0.6 l -0.9,0.3 -0.7,0.9 -0.3,1.5 v 1.5 l 0.2,1.2 0.6,0.6 0.9,0.3 h 0.3 l 0.9,-0.3 0.6,-0.6 0.4,-0.9 V 101 l -0.3,-0.9 -0.6,-0.6 -0.9,-0.3 H 902 l -0.9,0.3 -0.6,0.6 -0.3,0.9 m 5.6,-2.6 v -0.3 l 0.3,-0.6 0.3,-0.3 0.6,-0.3 h 1.2 l 0.6,0.3 0.3,0.3 0.3,0.7 v 0.6 l -0.3,0.5 -0.6,0.9 -3.1,3 4.2,0.1 m -1.1,-51.3 -0.3,0.6 0.4,0.9 0.4,0.4 0.8,0.5 1.1,-0.2 1.3,-0.7 1.1,-1.1 0.7,-1 v -0.8 l -0.3,-0.9 -0.2,-0.2 -0.9,-0.5 h -0.8 l -0.9,0.4 -0.2,0.2 -0.5,0.8 v 0.8 l 0.4,0.9 0.2,0.2 0.8,0.5 h 0.9 l 0.8,-0.4 m -8.9,-3.5 2,2.2 2.2,-1.6 h -0.4 l -0.8,-0.5 -0.6,-0.6 -0.4,-0.9 v -0.9 l 0.5,-0.8 0.4,-0.4 0.9,-0.4 0.9,0.1 0.8,0.4 0.6,0.7 0.4,0.9 -0.1,0.4 -0.2,0.6 m 3.7,35.2 -0.7,0.1 -0.5,0.7 -0.2,0.6 -0.1,0.9 0.7,0.9 1.3,0.8 1.4,0.5 1.3,0.1 0.7,-0.4 0.6,-0.7 0.1,-0.3 v -1 l -0.4,-0.7 -0.7,-0.6 -0.3,-0.1 h -0.9 l -0.8,0.3 -0.6,0.8 -0.1,0.3 v 0.9 l 0.4,0.8 0.7,0.6 m -0.2,-9.3 -0.7,0.1 -0.6,0.8 -0.2,0.5 v 1 l 0.7,0.8 1.3,0.8 1.4,0.5 1.2,0.1 0.8,-0.3 0.6,-0.8 0.1,-0.3 v -0.9 l -0.4,-0.8 -0.7,-0.6 -0.3,-0.1 h -1 l -0.7,0.4 -0.6,0.7 -0.1,0.3 v 1 l 0.3,0.7 0.8,0.6 m -288.5,54.7 -0.5,0.8 -0.8,0.4 -0.9,0.1 -0.3,-0.1 -0.8,-0.5 -0.4,-0.8 -0.1,-0.9 0.1,-0.3 0.5,-0.8 0.8,-0.4 0.9,-0.1 0.3,0.1 0.8,0.5 0.4,0.8 v 1.2 l -0.4,1.4 -0.7,1.4 -0.8,0.7 -0.9,0.1 -0.6,-0.2 -0.8,-0.5 -0.1,-0.7 m -24.7,-19.6 -6.4,2.8 m 3.1,-5.6 3.3,2.8 m 22.8,-35.3 -0.5,-0.4 -1.2,-0.6 6,-2 m -7.1,-0.7 0.6,0.7 1,0.3 1.5,-0.2 0.9,-0.3 1.3,-0.7 0.7,-0.9 v -0.9 l -0.2,-0.6 -0.6,-0.7 -1,-0.3 -1.5,0.2 -0.9,0.2 -1.3,0.8 -0.7,0.9 v 0.9 l 0.2,0.4 m -48.8,7.6 0.5,0.4 1.3,0.3 -5.4,3.3 m 8.3,1 -6.9,0.8 m 4.7,-4.4 2.2,3.6 m 25.3,-46.2 0.8,0.6 h 1 l 1.5,-0.5 0.7,-0.5 1.1,-1.1 0.5,-1 -0.3,-0.9 -0.3,-0.5 -0.7,-0.6 h -1.1 l -1.4,0.5 -0.8,0.5 -1.1,1.1 -0.4,0.9 0.2,1 0.2,0.4 M 589.2,35 v 0.7 l 0.3,1.2 L 584,34 m -23.9,26.2 -0.6,-0.8 -0.6,-0.1 -0.6,0.2 -0.5,0.5 -0.1,0.7 0.1,1.2 v 0.9 l -0.4,0.8 -0.5,0.5 -0.9,0.2 -0.6,-0.1 -0.4,-0.2 -0.6,-0.7 -0.3,-1.2 v -0.9 l 0.2,-0.4 0.5,-0.5 0.8,-0.2 0.7,0.1 0.7,0.3 0.6,0.8 0.7,1.1 0.4,0.5 0.7,0.1 0.6,-0.2 0.4,-0.5 0.1,-0.9 -0.5,-1.3 m -0.1,-2.5 3.2,-4 -4.5,-0.3 m 1.3,4.3 0.3,-6.3"
       id="nums_002"
       stroke="#000000"
       stroke-width="1" />
    <path
       d="m 912.1,274.9 11.9,-52.3 -54.1,-19.3 -41,25.9 41.7,24.6 22.8,52.8 -53.6,0.3 58,46.4 -14.7,41.2 45.4,37.4 15.3,39.3 -50.8,12.9 -6.3,-21.5 7.3,21.2 -30.1,40.6 48,0.9 19.1,32.4 17.1,-33.4 -22.6,-42.3 50.4,4.1 44.7,27.5 -26.8,28.9 -24.1,5.2 29.9,100.8 -60.6,13.2 52.9,-7.1 -20.3,37.4 -31.7,9.2 -28.3,-1.8 -26.7,-8.9 16.6,-36 -29.2,9.3 -13.1,-92.3 -40,-45.3 -27.6,53.7 -62.3,69.4 1.9,30.6 -37.9,-11.1 1.6,20.8 17.8,-11 25.3,12.2 4,23 -58.9,4.2 -43.8,-44.5 -62,-6.1 29.1,-51.3 1.9,-23.3 28,4 -6.6,21.1 21.8,-3.5 11.8,30.8 -0.5,13.4 5.7,-12.1 33.2,-26.5 28.7,-41.8 -22.1,-64.5 48.5,4.3 28.7,-50.9 -14.4,-25.7 50.1,-29.4 -56.8,-11.9 -48.9,28.5 -28.4,21.6 34.9,-7.2 24.9,27.5 -16.7,35.2 -29.3,-16.4 -14.9,10.2 13.5,29.4 4.5,32 13.7,31.1 -77.2,-26.3 8.3,-81.1 -33.3,7 -9,-31 -14.2,-29.1 8.2,-16 28,-3.9 30.4,7.6 -15.5,-27.3 -27.7,-5.5 27.3,-19.5 55,-19.8 12,11.8 -18.6,-45.3 17.2,-24.7 49.4,34.8 7.85,-60 -29.85,4 -57.7,-11.9 2.6,-53.6 -17.1,-25.8 -20.5,-28.6 -33.9,-9.1 -31.1,-26.3 -21,-33.6 -9.5,-30.2 25.9,1.4 17.7,-34.1 33.6,53.1 6.8,20.4 19.7,-8.5 48.6,39.9 -1.4,38.4 17,19.7 29.6,-11.2 24.3,-31.4 56.2,-24.3 -58.4,18.4 -40.5,4.4 -6.4,-30.3 -6.7,-53.3 33.6,-26.8 94.2,19.6 55.3,-15.7 32.1,35.4 -14.7,41.6 -18.2,-0.4 53.7,42.9 59.5,56.6 32.4,25.8 -34.9,47.3 -27.4,-34.05 z"
       id="coupes_002"
       stroke="#ff0000"
       stroke-width="1.27"
       sodipodi:nodetypes="cccccccccccccccccccccccccccccccccccccccccccccccccccccccccccccccccccccccccccccccccccccccccccccccccccccccccccccccccccccccccccc" />
    <path
       d="M 785.5,467.1 821.2,412 m 0,0 -2,114.2 m 0,0 -33.7,-59.1 m 6.1,112.8 -34.8,-61.9 m 64.4,-106 65.5,50.6 m 7.3,21.2 -74.8,42.4 m 44.7,-1.8 -44.7,1.8 m 44.7,-1.8 67.1,33.3 m 0,0 -71.8,13.8 m -38,-159.5 61.9,-17.5 m 0,0 3.6,68.1 M 821.2,412 796.1,315.7 m -38.1,8 38.1,-8 M 821.2,412 758,323.7 m 6.4,76.4 -6.4,-76.4 m 81.8,-16.8 43.3,87.6 m -87,-78.8 43.7,-8.8 m -43.7,8.8 -30.2,-52 m 0,0 63,-34.5 m 0,0 10.9,77.7 m -94.5,-139.2 83.6,61.5 m -63,34.5 -50.2,-84.8 m 20.3,88.8 -20.3,-88.8 m -37.4,76.9 37.4,-76.9 m -34.8,23.3 34.8,-23.3 m -72.4,-31.1 55.4,11.4 m -55.4,-11.4 56.8,-27 m -56.8,27 8.2,-66.9 m -8.2,66.9 -11.5,-58.4 m 194,22.6 3.1,117.2 m -3.1,-117.2 70.3,-7.1 m 0,0 -26.2,98.4 M 949.8,147.8 924,222.6 M 825.8,112 841.6,44 M 720.5,104.5 747.4,24.4 M 710,358.9 758,323.7 M 715.5,428.6 710,358.9 m -51.1,60.3 51.1,-60.3 m -66.6,33 54.6,-44.8 m -54.6,44.8 -0.4,-25 m 44.1,83.3 -28.2,-31 m -43.4,72.4 43.4,-72.4 m 28.2,31 -38.3,34.4 m -42.3,-24 22,-49 m -36.2,19.9 36.2,-19.9 M 931,557.7 872.3,663.8 M 931,557.7 901.5,654.5 m 29.5,-96.8 68.6,90.8 m -68.6,-90.8 38.7,-10 m -30.7,114 0.9,39.5 m -28.3,-1.8 -10.1,-44.9 m -172.2,-5.2 1.1,-71.1 m -1.1,71.1 -27.6,-29.3 m 246.4,-95.7 27.8,-38.2 m -32.1,-14.9 -57.1,-8.6 M 687.1,450.2 686,499.5 m 0,0 -45.5,66.2 m 59,-36.8 -59,36.8 m 63.5,-4.8 -63.5,4.8 m 106.4,-95.2 -46,18.8 m 248.9,-341.5 55.5,77.6 M 979.4,243.5 924,222.6 m 85.3,-18.2 -4,21 m 36.4,4.8 -36.4,-4.8 m 1.5,52.1 -1.5,-52.1 m -276,423.9 -36,19.5 m 0,0 8.4,-48.8 m -6.8,69.6 -32.1,-31 m 20.3,59.4 -20.3,-59.4 m 32.1,31 -11.8,28.4 m 11.8,-28.4 43.1,1.2 m 0,0 -54.9,27.2 m -43.8,-44.5 23.5,-14.9 m -23.5,14.9 -9.6,-55.6 m 0,0 33.6,27.3 m -56.9,-29.1 23.3,1.8 m 9.6,55.6 -32.9,-57.4 m 0,0 29.9,-19.3 m 260.6,-568.5 17.4,77 m -336,7.1 53.5,-23 m -53.5,23 L 625,69 M 557.3,78.8 625,69"
       id="plisM_002"
       stroke="#a52a2a"
       stroke-dasharray="4" />
    <path
       d="m 791.6,579.9 -6.1,-112.8 m 6.1,112.8 -83.3,-66.2 m 83.3,66.2 -61.2,-1.7 m 156.3,-115.6 -67.5,63.6 m 44.7,-1.8 -4.7,47.1 m -63.1,-255.8 87,78.8 m -117.2,-130.8 73.9,43.2 m -73.9,-43.2 -20.6,-96 m 24.3,-31.4 59.3,92.9 m -165.1,-52.8 51.9,2.5 m -51.9,-2.5 34.9,-17.2 m 171.9,94.6 -30.8,53.1 m -14,-194.9 44.1,91.3 M 896.1,104.9 924,222.6 M 841.6,44 896.1,104.9 M 825.8,112 747.4,24.4 m 20,106 -20,-106 m 20,106 -46.9,-25.9 M 764.4,400.1 710,358.9 m 5.5,69.7 -56.6,-9.4 m -15.5,-27.3 66.6,-33 m -22.9,91.3 -71.6,41.4 m 0,0 13,-80 m 302.5,146.1 8,104 m 0,0 -37.5,-7.2 m 46.6,-130.2 21.6,23.4 m -29.8,153.5 -38.4,-46.7 m 90.4,0.1 -52,46.6 m 36,-215.1 -6.2,61.6 m 6.2,-61.6 17.9,56.4 M 710,358.9 l -1.4,-70 m 219.9,143 -41.8,30.7 M 686,499.5 648.8,484.6 m 38.3,-34.4 13.8,39.1 m -13.8,-39.1 59.8,20.3 M 1005.3,225.4 924,222.6 m 81.3,2.8 -25.9,18.1 M 693.3,668.8 668.5,646.5 m 24.8,22.3 -30.5,-10.2 m -33.1,-40.7 33.1,40.7 M 896.9,28.3 896.1,104.9 M 609.4,138.7 631.8,89.4 M 573.7,50 625,69 M 557.3,78.8 573.7,50"
       id="plisV_002"
       stroke="#008000"
       stroke-dasharray="4, 1, 1, 1"
       stroke-width="1.27" />
    <path
       d="m 786.5,521.5 4,4 m 0,-4 -4,4 m -38.6,19.3 4,4 m 0,-4 -4,4 m 11.1,28.2 4,4 m 0,-4 -4,4 m 92,-88.6 4,4 m 0,-4 -4,4 m 8.6,49.6 4,4 m 0,-4 -4,4 m -22,-196.9 4,4 m 0,-4 -4,4 m -36.8,-73.8 4,4 m 0,-4 -4,4 m -47.2,-73.6 4,4 m 0,-4 -4,4 m 43.6,-36.9 4,4 m 0,-4 -4,4 m -109.5,-9.2 4,4 m 0,-4 -4,4 m -8.4,-13.8 4,4 m 0,-4 -4,4 m 173.9,108.5 4,4 m 0,-4 -4,4 m -7.4,-126.7 4,4 m 0,-4 -4,4 m 62.3,2.2 4,4 m 0,-4 -4,4 m -41.2,-93.3 4,4 m 0,-4 -4,4 m -82.3,-10.3 4,4 m 0,-4 -4,4 m -29.2,5.2 4,4 m 0,-4 -4,4 m -13.5,36 4,4 m 0,-4 -4,4 m -6.7,258.1 4,4 m 0,-4 -4,4 m -50,40.4 4,4 m 0,-4 -4,4 m -10.5,-52.5 4,4 m 0,-4 -4,4 m -25.4,91.5 4,4 m 0,-4 -4,4 m -29.3,-23.3 4,4 m 0,-4 -4,4 m 313,154.1 4,4 m 0,-4 -4,4 m -14.7,44.4 4,4 m 0,-4 -4,4 m 38.6,-126.1 4,4 m 0,-4 -4,4 m -38.2,137.9 4,4 m 0,-4 -4,4 m 45.2,-4 4,4 m 0,-4 -4,4 m 6.9,-165 4,4 m 0,-4 -4,4 m 12.1,-6.6 4,4 m 0,-4 -4,4 m -275.6,-194.4 4,4 m 0,-4 -4,4 m 198.3,119.4 4,4 m 0,-4 -4,4 m -240.2,40.7 4,4 m 0,-4 -4,4 m 26.6,-26.3 4,4 m 0,-4 -4,4 m 23,-13.4 4,4 m 0,-4 -4,4 M 962.7,222 l 4,4 m 0,-4 -4,4 m 27.7,6.4 4,4 m 0,-4 -4,4 m -311.5,419.2 4,4 m 0,-4 -4,4 m -2.9,2.1 4,4 m 0,-4 -4,4 m -31.8,-29.5 4,4 m 0,-4 -4,4 m 250.3,-575.6 4,4 m 0,-4 -4,4 m -275.9,43.4 4,4 m 0,-4 -4,4 m -21.3,-58.5 4,4 m 0,-4 -4,4 m -33.8,0.9 4,4 m 0,-4 -4,4"
       id="marqueV_002"
       stroke="#008000" />
    <path
       d="m 782.9,366 -7.5,10.5 h 11.3 M 782.9,366 v 15.8"
       id="titre_4"
       stroke="#4b0082" />
  </g>
</svg>
