<?xml version="1.0" encoding="UTF-8" standalone="no"?>
<!-- Created with Inkscape (http://www.inkscape.org/) -->

<svg
   xmlns:dc="http://purl.org/dc/elements/1.1/"
   xmlns:cc="http://creativecommons.org/ns#"
   xmlns:rdf="http://www.w3.org/1999/02/22-rdf-syntax-ns#"
   xmlns:svg="http://www.w3.org/2000/svg"
   xmlns="http://www.w3.org/2000/svg"
   xmlns:sodipodi="http://sodipodi.sourceforge.net/DTD/sodipodi-0.dtd"
   xmlns:inkscape="http://www.inkscape.org/namespaces/inkscape"
   width="210mm"
   height="297mm"
   viewBox="0 0 210 297"
   version="1.1"
   id="svg8"
   inkscape:version="0.92.5 (2060ec1f9f, 2020-04-08)"
   sodipodi:docname="dessin.svg">
  <defs
     id="defs2" />
  <sodipodi:namedview
     id="base"
     pagecolor="#ffffff"
     bordercolor="#666666"
     borderopacity="1.0"
     inkscape:pageopacity="0.0"
     inkscape:pageshadow="2"
     inkscape:zoom="5.6"
     inkscape:cx="364.4278"
     inkscape:cy="599.97114"
     inkscape:document-units="mm"
     inkscape:current-layer="layer1"
     showgrid="false"
     inkscape:window-width="1920"
     inkscape:window-height="1016"
     inkscape:window-x="0"
     inkscape:window-y="27"
     inkscape:window-maximized="1" />
  <metadata
     id="metadata5">
    <rdf:RDF>
      <cc:Work
         rdf:about="">
        <dc:format>image/svg+xml</dc:format>
        <dc:type
           rdf:resource="http://purl.org/dc/dcmitype/StillImage" />
        <dc:title></dc:title>
      </cc:Work>
    </rdf:RDF>
  </metadata>
  <g
     inkscape:label="Calque 1"
     inkscape:groupmode="layer"
     id="layer1">
    <g
       id="g943"
       transform="matrix(0,-0.52916666,0.52916666,0,-192.56705,405.86794)">
      <line
         id="line433"
         y2="574.19366"
         x2="325.51871"
         y1="542.47455"
         x1="325.52924"
         style="stroke:#800000;stroke-width:0.37795276;stroke-dasharray:4.53543313;stroke-miterlimit:4;stroke-dashoffset:0" />
      <line
         id="line435"
         y2="574.19366"
         x2="325.51871"
         y1="543.92694"
         x1="337.35794"
         style="stroke:#008000;stroke-width:0.37795276;stroke-dasharray:0.37795276,3.02362208;stroke-miterlimit:4;stroke-dashoffset:0" />
      <line
         id="line445"
         y2="572.75696"
         x2="337.34442"
         y1="543.92694"
         x1="337.35794"
         style="stroke:#800000;stroke-width:0.37795276;stroke-dasharray:4.53543313;stroke-miterlimit:4;stroke-dashoffset:0" />
      <line
         id="line447"
         y2="566.99762"
         x2="357.86136"
         y1="543.92694"
         x1="337.35794"
         style="stroke:#800000;stroke-width:0.37795276;stroke-dasharray:4.53543313;stroke-miterlimit:4;stroke-dashoffset:0" />
      <line
         id="line453"
         y2="566.99762"
         x2="357.86136"
         y1="549.70367"
         x1="357.87616"
         style="stroke:#800000;stroke-width:0.37795276;stroke-dasharray:4.53543313;stroke-miterlimit:4;stroke-dashoffset:0" />
      <line
         id="line467"
         y2="564.11511"
         x2="364.82239"
         y1="552.57904"
         x1="364.81583"
         style="stroke:#008000;stroke-width:0.37795276;stroke-dasharray:0.37795276,3.02362208;stroke-miterlimit:4;stroke-dashoffset:0" />
      <line
         id="line469"
         y2="562.67114"
         x2="373.12122"
         y1="552.57904"
         x1="364.81583"
         style="stroke:#800000;stroke-width:0.37795276;stroke-dasharray:4.53543313;stroke-miterlimit:4;stroke-dashoffset:0" />
      <line
         id="line475"
         y2="562.67114"
         x2="373.12122"
         y1="554.02417"
         x1="373.12146"
         style="stroke:#008000;stroke-width:0.37795276;stroke-dasharray:0.37795276,3.02362208;stroke-miterlimit:4;stroke-dashoffset:0" />
      <line
         id="line481"
         y2="562.67114"
         x2="373.12122"
         y1="555.46967"
         x1="392.27859"
         style="stroke:#008000;stroke-width:0.37795276;stroke-dasharray:0.37795276,3.02362208;stroke-miterlimit:4;stroke-dashoffset:0" />
      <line
         id="line491"
         y2="561.22754"
         x2="392.27545"
         y1="555.46967"
         x1="392.27859"
         style="stroke:#008000;stroke-width:0.37795276;stroke-dasharray:0.37795276,3.02362208;stroke-miterlimit:4;stroke-dashoffset:0" />
      <line
         id="line493"
         y2="561.22754"
         x2="392.27545"
         y1="554.03754"
         x1="397.42136"
         style="stroke:#800000;stroke-width:0.37795276;stroke-dasharray:4.53543313;stroke-miterlimit:4;stroke-dashoffset:0" />
      <line
         id="line503"
         y2="562.68451"
         x2="397.39984"
         y1="554.03754"
         x1="397.42136"
         style="stroke:#800000;stroke-width:0.37795276;stroke-dasharray:4.53543313;stroke-miterlimit:4;stroke-dashoffset:0" />
      <line
         id="line513"
         y2="562.70325"
         x2="404.93405"
         y1="554.05627"
         x1="404.95554"
         style="stroke:#800000;stroke-width:0.37795276;stroke-dasharray:4.53543313;stroke-miterlimit:4;stroke-dashoffset:0" />
      <line
         id="line515"
         y2="561.27173"
         x2="410.06561"
         y1="554.05627"
         x1="404.95554"
         style="stroke:#800000;stroke-width:0.37795276;stroke-dasharray:4.53543313;stroke-miterlimit:4;stroke-dashoffset:0" />
      <line
         id="line521"
         y2="561.27173"
         x2="410.06561"
         y1="555.51392"
         x1="410.09109"
         style="stroke:#008000;stroke-width:0.37795276;stroke-dasharray:0.37795276,3.02362208;stroke-miterlimit:4;stroke-dashoffset:0" />
      <line
         id="line531"
         y2="562.99292"
         x2="470.43246"
         y1="555.51392"
         x1="410.09109"
         style="stroke:#008000;stroke-width:0.37795276;stroke-dasharray:0.37795276,3.02362208;stroke-miterlimit:4;stroke-dashoffset:0" />
      <line
         id="line533"
         y2="562.99292"
         x2="470.43246"
         y1="554.34601"
         x1="470.47214"
         style="stroke:#800000;stroke-width:0.37795276;stroke-dasharray:4.53543313;stroke-miterlimit:4;stroke-dashoffset:0" />
      <line
         id="line539"
         y2="562.99292"
         x2="470.43246"
         y1="554.63983"
         x1="534.51233"
         style="stroke:#008000;stroke-width:0.37795276;stroke-dasharray:0.37795276,3.02362208;stroke-miterlimit:4;stroke-dashoffset:0" />
      <line
         id="line545"
         y2="563.28674"
         x2="534.47266"
         y1="554.63983"
         x1="534.51233"
         style="stroke:#800000;stroke-width:0.37795276;stroke-dasharray:4.53543313;stroke-miterlimit:4;stroke-dashoffset:0" />
      <line
         id="line551"
         y2="563.28674"
         x2="534.47266"
         y1="556.27545"
         x1="576.09064"
         style="stroke:#008000;stroke-width:0.37795276;stroke-dasharray:0.37795276,3.02362208;stroke-miterlimit:4;stroke-dashoffset:0" />
      <line
         id="line557"
         y2="562.03333"
         x2="576.06287"
         y1="556.27545"
         x1="576.09064"
         style="stroke:#008000;stroke-width:0.37795276;stroke-dasharray:0.37795276,3.02362208;stroke-miterlimit:4;stroke-dashoffset:0" />
      <line
         id="line563"
         y2="562.03333"
         x2="576.06287"
         y1="554.86542"
         x1="581.23944"
         style="stroke:#800000;stroke-width:0.37795276;stroke-dasharray:4.53543313;stroke-miterlimit:4;stroke-dashoffset:0" />
      <line
         id="line569"
         y2="563.51221"
         x2="581.18097"
         y1="554.86542"
         x1="581.23944"
         style="stroke:#800000;stroke-width:0.37795276;stroke-dasharray:4.53543313;stroke-miterlimit:4;stroke-dashoffset:0" />
      <line
         id="line587"
         y2="563.51221"
         x2="581.18097"
         y1="553.47675"
         x1="589.55475"
         style="stroke:#800000;stroke-width:0.37795276;stroke-dasharray:4.53543313;stroke-miterlimit:4;stroke-dashoffset:0" />
      <line
         id="line597"
         y2="565.01251"
         x2="589.46979"
         y1="553.47675"
         x1="589.55475"
         style="stroke:#800000;stroke-width:0.37795276;stroke-dasharray:4.53543313;stroke-miterlimit:4;stroke-dashoffset:0" />
      <line
         id="line599"
         y2="562.19232"
         x2="597.40717"
         y1="553.47675"
         x1="589.55475"
         style="stroke:#800000;stroke-width:0.37795276;stroke-dasharray:4.53543313;stroke-miterlimit:4;stroke-dashoffset:0" />
      <line
         id="line605"
         y2="562.19232"
         x2="597.40717"
         y1="556.43475"
         x1="597.47119"
         style="stroke:#008000;stroke-width:0.37795276;stroke-dasharray:0.37795276,3.02362208;stroke-miterlimit:4;stroke-dashoffset:0" />
      <line
         id="line619"
         y2="562.23419"
         x2="601.17407"
         y1="556.47668"
         x1="601.2381"
         style="stroke:#008000;stroke-width:0.37795276;stroke-dasharray:0.37795276,3.02362208;stroke-miterlimit:4;stroke-dashoffset:0" />
      <line
         id="line621"
         y2="562.23419"
         x2="601.17407"
         y1="555.09906"
         x1="606.39569"
         style="stroke:#800000;stroke-width:0.37795276;stroke-dasharray:4.53543313;stroke-miterlimit:4;stroke-dashoffset:0" />
      <line
         id="line627"
         y2="563.7453"
         x2="606.28278"
         y1="555.09906"
         x1="606.39569"
         style="stroke:#800000;stroke-width:0.37795276;stroke-dasharray:4.53543313;stroke-miterlimit:4;stroke-dashoffset:0" />
      <line
         id="line637"
         y2="562.40955"
         x2="614.59973"
         y1="555.09906"
         x1="606.39569"
         style="stroke:#800000;stroke-width:0.37795276;stroke-dasharray:4.53543313;stroke-miterlimit:4;stroke-dashoffset:0" />
      <line
         id="line639"
         y2="562.40955"
         x2="614.59973"
         y1="556.65222"
         x1="614.68176"
         style="stroke:#008000;stroke-width:0.37795276;stroke-dasharray:0.37795276,3.02362208;stroke-miterlimit:4;stroke-dashoffset:0" />
      <line
         id="line645"
         y2="562.40955"
         x2="614.59973"
         y1="557.18927"
         x1="652.34906"
         style="stroke:#008000;stroke-width:0.37795276;stroke-dasharray:0.37795276,3.02362208;stroke-miterlimit:4;stroke-dashoffset:0" />
      <line
         id="line651"
         y2="562.94659"
         x2="652.26697"
         y1="557.18927"
         x1="652.34906"
         style="stroke:#008000;stroke-width:0.37795276;stroke-dasharray:0.37795276,3.02362208;stroke-miterlimit:4;stroke-dashoffset:0" />
      <line
         id="line657"
         y2="562.94659"
         x2="652.26697"
         y1="553.04401"
         x1="663.56403"
         style="stroke:#800000;stroke-width:0.37795276;stroke-dasharray:4.53543313;stroke-miterlimit:4;stroke-dashoffset:0" />
      <line
         id="line667"
         y2="567.46661"
         x2="663.28882"
         y1="553.04401"
         x1="663.56403"
         style="stroke:#800000;stroke-width:0.37795276;stroke-dasharray:4.53543313;stroke-miterlimit:4;stroke-dashoffset:0" />
      <line
         id="line669"
         y2="564.74561"
         x2="671.26074"
         y1="553.04401"
         x1="663.56403"
         style="stroke:#800000;stroke-width:0.37795276;stroke-dasharray:4.53543313;stroke-miterlimit:4;stroke-dashoffset:0" />
      <line
         id="line675"
         y2="564.74561"
         x2="671.26074"
         y1="556.10052"
         x1="671.44299"
         style="stroke:#800000;stroke-width:0.37795276;stroke-dasharray:4.53543313;stroke-miterlimit:4;stroke-dashoffset:0" />
      <line
         id="line689"
         y2="563.375"
         x2="674.76965"
         y1="557.61877"
         x1="674.90747"
         style="stroke:#008000;stroke-width:0.37795276;stroke-dasharray:0.37795276,3.02362208;stroke-miterlimit:4;stroke-dashoffset:0" />
      <line
         id="line695"
         y2="563.5553"
         x2="682.30176"
         y1="557.79907"
         x1="682.43951"
         style="stroke:#008000;stroke-width:0.37795276;stroke-dasharray:0.37795276,3.02362208;stroke-miterlimit:4;stroke-dashoffset:0" />
      <line
         id="line705"
         y2="565.29199"
         x2="694.0871"
         y1="557.79907"
         x1="682.43951"
         style="stroke:#008000;stroke-width:0.37795276;stroke-dasharray:0.37795276,3.02362208;stroke-miterlimit:4;stroke-dashoffset:0" />
      <line
         id="line707"
         y2="565.29199"
         x2="694.0871"
         y1="556.64764"
         x1="694.30127"
         style="stroke:#800000;stroke-width:0.37795276;stroke-dasharray:4.53543313;stroke-miterlimit:4;stroke-dashoffset:0" />
      <line
         id="line717"
         y2="565.38531"
         x2="697.85309"
         y1="556.74097"
         x1="698.06726"
         style="stroke:#008000;stroke-width:0.37795276;stroke-dasharray:0.37795276,3.02362208;stroke-miterlimit:4;stroke-dashoffset:0" />
      <line
         id="line723"
         y2="565.38531"
         x2="697.85309"
         y1="555.50226"
         x1="706.40619"
         style="stroke:#800000;stroke-width:0.37795276;stroke-dasharray:4.53543313;stroke-miterlimit:4;stroke-dashoffset:0" />
      <line
         id="line733"
         y2="567.03461"
         x2="706.11353"
         y1="555.50226"
         x1="706.40619"
         style="stroke:#800000;stroke-width:0.37795276;stroke-dasharray:4.53543313;stroke-miterlimit:4;stroke-dashoffset:0" />
      <path
         id="line759"
         style="stroke:#ff0000;stroke-width:0.37795276;stroke-miterlimit:4;stroke-dasharray:none"
         d="m 725.5824,575.69946 -11.53241,-0.2926 m 19.9046,-7.64386 -8.37219,7.93646 m -11.53241,-0.2926 -7.93646,-8.37225 m 20.19726,-19.17621 7.93646,8.37225 m 0,0 -0.29266,11.53235 m -19.17621,-20.1972 11.53241,0.2926 m -19.9046,7.64386 8.37219,-7.93646 m -8.66485,19.46881 -8.26044,-1.6493 m 0.21417,-8.64434 8.33893,-1.23871 m -8.5531,9.88305 -3.76599,-0.0933 m 0.21417,-8.64437 3.76599,0.0933 m -15.62775,1.05813 11.86176,-1.15143 m -0.21417,8.64435 -11.78534,-1.73669 m 0,0 -7.53211,-0.1803 m 0.13782,-5.75623 7.53204,0.1803 m -7.66986,5.57593 -3.50891,1.37061 m 0.18225,-8.64509 3.46448,1.51825 m -11.34344,-4.57476 7.87896,3.05651 m -0.18225,8.64509 -7.97192,2.721 m 0,0 -11.02185,-4.52002 m 0.0821,-5.75732 11.21497,-4.14526 m -11.29706,9.90258 -37.66724,-0.53704 m 0.082,-5.75733 37.6673,0.53705 m -45.95337,-2.09021 8.28607,1.55316 m -0.082,5.75733 -8.31695,1.33575 m 0,0 -5.10871,-1.51111 m 0.064,-5.75751 5.15759,-1.37762 m -5.22162,7.13513 -3.7669,-0.0419 m 0.064,-5.75754 3.76691,0.0419 m -11.68335,-2.9999 7.91644,2.958 m -0.064,5.75757 -7.93738,2.82019 m 0,0 -8.28882,-1.5003 m 0.0585,-8.64679 8.31531,-1.38867 m -318.17874,43.1405 -22.43412,-22.42359 m 54.15326,22.43409 -31.71914,-0.0105 m -22.43412,-22.42359 0.0105,-31.71911 m 332.22858,21.03766 -5.1181,-1.47888 m 0.0278,-5.75788 5.1488,-1.41003 m -5.17657,7.16791 -41.59021,1.25341 m 0.0397,-8.64691 41.57831,1.63562 m -41.61798,7.01129 -64.0402,-0.29382 m 0.0397,-8.64691 64.04019,0.29382 m -124.42124,0.87409 60.38105,-1.16791 m -0.0397,8.64691 -60.36685,-1.72119 m -5.11007,-7.21546 5.13555,1.45765 m -0.0255,5.75781 -5.13156,1.43152 m 0,0 -7.53421,-0.0187 m 0.0215,-8.64701 7.53418,0.0187 m -7.5557,8.62827 -5.12439,-1.45697 m 0.003,-5.75787 5.14277,-1.43213 m -5.14591,7.19 -19.15423,1.4436 m 2.4e-4,-8.64697 19.15713,1.4455 m -27.46276,-2.89063 8.30563,1.44513 m -2.4e-4,8.64697 -8.29883,1.44397 m 0,0 -6.96103,2.88251 m 0.0148,-17.29395 6.93967,2.87537 m -27.45789,-8.6521 20.51822,5.77673 m -0.0148,17.29395 -20.51694,5.75934 m 0,0 -11.82571,1.4367 m 0.0105,-31.71911 11.8287,1.45239 m -11.83923,30.26672 -22.42356,22.43409 m 0,-76.57679 22.43409,22.42359 m -76.57682,0 22.42359,-22.43414 m 0,0 31.71914,0.0106" />
    </g>
  </g>
</svg>
