<?xml version="1.0" encoding="UTF-8" standalone="no"?>
<svg
   height="841.88977pt"
   viewBox="0 0 532.99998 754.00001"
   width="595.27557pt"
   version="1.1"
   id="svg1"
   sodipodi:docname="cochon280_H14_lang_A4x3.svg"
   inkscape:version="1.3 (0e150ed6c4, 2023-07-21)"
   xmlns:inkscape="http://www.inkscape.org/namespaces/inkscape"
   xmlns:sodipodi="http://sodipodi.sourceforge.net/DTD/sodipodi-0.dtd"
   xmlns="http://www.w3.org/2000/svg"
   xmlns:svg="http://www.w3.org/2000/svg">
  <defs
     id="defs1" />
  <sodipodi:namedview
     id="namedview1"
     pagecolor="#ffffff"
     bordercolor="#000000"
     borderopacity="0.25"
     inkscape:showpageshadow="2"
     inkscape:pageopacity="0.0"
     inkscape:pagecheckerboard="0"
     inkscape:deskcolor="#d1d1d1"
     inkscape:document-units="mm"
     showgrid="false"
     inkscape:zoom="0.54772416"
     inkscape:cx="1185.8159"
     inkscape:cy="559.58824"
     inkscape:window-width="1920"
     inkscape:window-height="1057"
     inkscape:window-x="-8"
     inkscape:window-y="-8"
     inkscape:window-maximized="1"
     inkscape:current-layer="svg1" />
  <style
     type="text/css"
     id="style1"><![CDATA[
			path {
				fill: none;
			}
		]]></style>
  <g
     id="page_001"
     transform="translate(2.6868126)">
    <path
       d="m 497.9,578.9 -0.4,-0.5 -1.1,-0.8 6.2,-1.1 m -5.2,-0.7 h -0.3 l -0.6,-0.2 -0.4,-0.2 -0.4,-0.6 -0.2,-1.1 0.2,-0.7 0.2,-0.3 0.6,-0.4 0.6,-0.1 0.6,0.2 1,0.4 3.5,2.4 -0.8,-4.1 m -5.7,73.9 3.7,3.6 0.6,-4.4 m -4.3,0.8 6.2,1 m -34.4,-140 -0.6,-0.4 -1.2,-0.2 5.3,-3.4 m -6.4,2 -1.8,-2.7 3,0.2 -0.5,-0.8 -0.1,-0.6 0.1,-0.5 0.6,-0.7 0.5,-0.3 0.9,-0.3 0.8,0.2 0.8,0.6 0.5,0.8 0.2,0.9 -0.1,0.4 -0.3,0.6 m -25.8,18.2 2,2.7 -3,-0.1 0.5,0.8 0.1,0.6 v 0.4 l -0.6,0.8 -0.5,0.4 -0.9,0.3 -0.8,-0.2 -0.8,-0.5 -0.5,-0.8 -0.3,-0.9 0.1,-0.4 0.3,-0.6 m 8.1,2.5 -0.7,-0.5 -0.7,0.1 -0.5,0.4 -0.3,0.6 0.1,0.6 0.5,1.2 0.3,0.9 -0.2,0.8 -0.3,0.6 -0.7,0.5 -0.7,0.2 -0.4,-0.1 -0.7,-0.6 -0.8,-0.9 -0.2,-0.9 v -0.5 l 0.3,-0.6 0.8,-0.5 0.6,-0.1 0.9,0.1 0.7,0.6 1,0.8 0.6,0.3 0.6,-0.1 0.5,-0.4 0.3,-0.6 -0.3,-0.9 -0.8,-1.1 m 25.4,182 3.3,6.1 m -5.8,-2.8 2.5,-3.3 m -21.2,16.6 -0.9,-0.4 -0.6,0.3 -0.4,0.5 -0.1,0.6 0.3,0.7 0.7,0.9 0.5,0.8 0.1,0.9 -0.1,0.6 -0.6,0.7 -0.6,0.3 -0.4,0.1 -0.9,-0.4 -0.9,-0.7 -0.5,-0.8 -0.1,-0.4 0.2,-0.7 0.5,-0.7 0.6,-0.3 0.9,-0.1 0.9,0.4 1.1,0.5 0.6,0.1 0.7,-0.3 0.3,-0.4 0.2,-0.7 -0.5,-0.8 -1.1,-0.8 m -53.3,-13.7 0.7,-0.3 1,-0.7 -0.8,6.2 m 3.7,-6.1 -0.9,0.2 -0.7,0.8 -0.5,1.5 -0.1,0.9 0.1,1.5 0.5,1 0.8,0.4 0.6,0.1 1,-0.2 0.7,-0.8 0.5,-1.5 0.1,-0.9 -0.1,-1.5 -0.5,-1 -0.9,-0.4 h -0.4 m -0.8,-254 -3.2,-0.9 2.4,-1.8 -0.9,-0.3 -0.5,-0.4 -0.2,-0.4 -0.1,-0.9 0.2,-0.6 0.5,-0.8 0.7,-0.4 1,-0.1 0.8,0.2 0.8,0.5 0.2,0.4 0.2,0.7 m -9.7,0.5 0.5,-0.8 0.7,-0.4 h 1 0.2 l 0.8,0.5 0.5,0.8 v 0.9 0.3 l -0.6,0.8 -0.7,0.4 -0.9,0.1 -0.3,-0.1 -0.8,-0.5 -0.4,-0.7 v -1.3 l 0.3,-1.4 0.7,-1.4 0.8,-0.7 1,-0.1 0.5,0.2 0.8,0.5 0.2,0.7 m -45,243.1 0.6,0.2 1.3,-0.1 -4.2,4.7 m 7.6,-2 -5.1,1.1 3.3,3 m 1.8,-4.1 -4.3,4.6 m 36,-38.1 0.9,0.3 1.1,-0.4 1.1,-1 0.5,-0.8 0.6,-1.4 v -1 l -0.5,-0.8 -0.5,-0.4 -0.9,-0.2 -1.1,0.4 -1.1,1 -0.5,0.8 -0.6,1.4 v 1 l 0.5,0.8 0.4,0.3 M 319,671 h 0.6 l 1.2,-0.5 -2.4,5.8 m 6.9,-4.2 -2.8,-1.1 -1.3,2.4 0.4,-0.2 0.9,0.1 0.9,0.3 0.7,0.6 0.3,0.8 -0.1,1 -0.2,0.5 -0.6,0.7 -0.8,0.4 -1,-0.1 -0.8,-0.4 -0.7,-0.6 -0.2,-0.4 v -0.6 m 24.9,-43.8 -0.1,0.3 -0.5,0.5 -0.4,0.1 h -0.7 l -1.1,-0.5 -0.4,-0.5 -0.2,-0.4 v -0.6 l 0.2,-0.6 0.6,-0.4 0.9,-0.6 3.9,-1.5 -3.8,-1.7 m -6.3,1.8 0.6,-0.7 0.8,-0.3 1,0.1 0.2,0.1 0.7,0.6 0.3,0.8 -0.1,1 -0.1,0.2 -0.6,0.7 -0.8,0.3 -1,-0.1 -0.2,-0.1 -0.7,-0.6 -0.3,-0.8 0.2,-1.2 0.6,-1.4 0.9,-1.2 0.9,-0.6 0.9,0.1 0.6,0.2 0.7,0.6 v 0.7 m -48.1,27 2.5,2.1 -2.9,0.7 0.7,0.5 0.3,0.7 v 0.4 l -0.4,0.9 -0.4,0.4 -0.8,0.5 -0.8,0.1 -0.9,-0.4 -0.7,-0.6 -0.5,-0.8 v -0.4 l 0.2,-0.6 m 8.7,0.7 -0.9,-0.3 -1,0.3 -1.2,0.9 -0.6,0.7 -0.7,1.3 -0.2,1.1 0.5,0.8 0.5,0.4 0.8,0.4 1.1,-0.3 1.2,-1 0.6,-0.7 0.7,-1.3 0.1,-1.1 -0.4,-0.8 -0.4,-0.3 m 7.1,-43.4 -2.8,-1.8 2.8,-1 -0.8,-0.5 -0.3,-0.6 -0.1,-0.4 0.2,-0.9 0.3,-0.5 0.8,-0.6 0.8,-0.2 0.9,0.2 0.8,0.5 0.6,0.7 0.1,0.4 -0.1,0.7 m -10.7,-0.7 5.9,-3.7 m -2.3,5.9 -3.6,-2.2 m 121.8,28.1 -0.5,-0.8 -1.1,-0.3 -1.5,0.2 -0.8,0.3 -1.4,0.7 -0.7,0.8 v 1 l 0.2,0.6 0.6,0.7 1,0.3 1.5,-0.2 0.9,-0.2 1.3,-0.8 0.7,-0.8 v -1 l -0.1,-0.4 m 8.7,-87.6 -2.9,-1.7 2.8,-1.2 -0.8,-0.4 -0.4,-0.6 -0.1,-0.4 0.2,-0.9 0.3,-0.5 0.7,-0.7 0.9,-0.2 0.9,0.2 0.8,0.5 0.6,0.7 0.1,0.4 v 0.7 m -8.5,0.9 0.9,0.2 0.6,-0.4 0.3,-0.5 v -0.7 l -0.4,-0.5 -0.8,-0.9 -0.7,-0.7 -0.2,-0.8 0.1,-0.7 0.4,-0.8 0.6,-0.3 0.4,-0.1 0.9,0.2 1,0.6 0.7,0.7 0.1,0.4 -0.1,0.7 -0.4,0.7 -0.6,0.4 -0.8,0.2 -0.9,-0.2 -1.2,-0.3 -0.7,-0.1 -0.5,0.4 -0.3,0.5 -0.1,0.7 0.6,0.7 1.2,0.7 m -41.8,37.5 0.2,-0.2 0.6,-0.3 0.4,-0.1 0.7,0.1 0.9,0.7 0.4,0.6 v 0.4 l -0.1,0.7 -0.4,0.5 -0.5,0.3 -1.1,0.4 -4.2,0.6 3.4,2.5 m 6.6,-0.4 -0.8,0.5 -0.8,0.2 -0.9,-0.3 -0.3,-0.2 -0.5,-0.8 -0.2,-0.8 0.3,-0.9 0.2,-0.3 0.8,-0.5 0.8,-0.1 0.9,0.3 0.3,0.1 0.5,0.8 0.2,0.8 -0.5,1.2 -0.9,1.2 -1.1,1 -1,0.4 -0.9,-0.3 -0.5,-0.3 -0.6,-0.8 0.1,-0.7 m -44,-19.6 3.3,-0.2 -1.7,2.5 h 0.9 l 0.7,0.2 0.3,0.3 0.3,0.9 0.1,0.6 -0.3,0.9 -0.5,0.6 -0.9,0.4 -0.9,0.1 -0.9,-0.3 -0.4,-0.3 -0.3,-0.5 m 9.1,-5.7 -2.6,6.5 m -1.6,-6.3 4.2,-0.2 m -11.2,-15 -0.9,-0.4 -0.5,-0.7 -0.2,-0.9 0.1,-0.3 0.4,-0.9 0.6,-0.5 1,-0.2 h 0.3 l 0.8,0.5 0.5,0.6 0.2,1 v 0.3 l -0.4,0.8 -0.7,0.5 -1.2,0.2 -1.5,-0.2 -1.5,-0.5 -0.8,-0.7 -0.2,-0.9 0.1,-0.6 0.4,-0.9 0.7,-0.2 m 4.2,9.4 -5.9,-3.8 m 6.4,-0.4 -0.5,4.2 M 367,532 l 0.2,-0.9 0.5,-0.7 0.8,-0.5 h 0.3 l 0.9,0.1 0.7,0.5 0.5,0.9 v 0.3 l -0.1,0.9 -0.5,0.7 -0.8,0.4 -0.3,0.1 -1,-0.2 -0.7,-0.4 -0.5,-1.2 -0.2,-1.5 V 529 l 0.5,-1 0.8,-0.4 0.6,-0.1 0.9,0.1 0.4,0.6 m -5.2,6.3 0.8,-0.4 0.2,-0.6 -0.1,-0.6 -0.4,-0.6 -0.6,-0.2 -1.3,-0.1 -0.9,-0.1 -0.7,-0.5 -0.4,-0.5 -0.1,-0.9 0.1,-0.7 0.3,-0.3 0.8,-0.5 1.2,-0.2 1,0.2 0.3,0.2 0.4,0.6 0.1,0.9 -0.1,0.6 -0.5,0.7 -0.9,0.4 -1.1,0.5 -0.5,0.4 -0.2,0.7 0.1,0.6 0.4,0.5 0.9,0.1 1.3,-0.2 m 20,-45.7 -0.3,0.9 -0.7,0.5 -0.9,0.3 -0.3,-0.1 -0.9,-0.3 -0.5,-0.7 -0.2,-0.9 v -0.3 l 0.4,-0.9 0.6,-0.5 0.9,-0.2 h 0.3 l 0.9,0.4 0.5,0.6 0.2,1.2 -0.1,1.5 -0.4,1.5 -0.7,0.8 -0.9,0.3 -0.6,-0.1 -0.8,-0.4 -0.3,-0.6 m 6.7,-4.9 -1,0.3 -0.3,0.5 -0.1,0.6 0.3,0.7 0.6,0.3 1.1,0.4 0.9,0.4 0.6,0.6 0.2,0.6 -0.1,0.9 -0.3,0.6 -0.3,0.3 -0.9,0.2 -1.2,-0.1 -0.9,-0.4 -0.3,-0.3 -0.2,-0.6 V 491 l 0.4,-0.6 0.6,-0.5 0.9,-0.3 1.3,-0.2 0.6,-0.2 0.3,-0.6 0.1,-0.6 -0.3,-0.6 -0.9,-0.4 -1.3,-0.1 m -51.3,24.6 0.7,0.7 0.2,0.9 -0.2,0.9 -0.2,0.2 -0.7,0.7 -0.8,0.2 -0.9,-0.2 -0.3,-0.2 -0.6,-0.7 -0.2,-0.8 0.2,-0.9 0.1,-0.3 0.7,-0.6 0.8,-0.2 1.2,0.3 1.3,0.8 1.2,1 0.4,1 -0.2,0.9 -0.3,0.5 -0.7,0.6 h -0.6 m -0.3,-10.3 4,5.7 m -6.1,-2.1 2.1,-3.6 m -40.6,18.5 3.3,0.2 -2,2.3 0.9,0.1 0.6,0.3 0.3,0.3 0.2,0.9 v 0.6 l -0.4,0.9 -0.6,0.6 -0.9,0.2 H 297 l -0.9,-0.4 -0.3,-0.3 -0.2,-0.6 m 5.4,-3.4 0.7,-0.2 0.9,-0.9 -0.4,6.3 m -35.5,26.1 -0.3,0.7 0.1,1.3 -4.5,-4.5 m 2.7,6.5 0.5,-0.9 -0.3,-0.6 -0.4,-0.4 -0.6,-0.2 -0.7,0.2 -1,0.6 -0.9,0.5 h -0.8 l -0.6,-0.3 -0.7,-0.6 -0.2,-0.6 v -0.4 l 0.4,-0.9 0.9,-0.8 0.8,-0.5 h 0.4 l 0.7,0.2 0.6,0.7 0.2,0.6 v 0.9 l -0.4,0.8 -0.6,1.1 -0.2,0.6 0.2,0.6 0.4,0.5 0.6,0.2 0.9,-0.5 0.9,-0.9 m 12.2,12.7 -0.9,-3.2 2.8,1 -0.3,-0.8 0.1,-0.7 0.2,-0.4 0.8,-0.5 0.6,-0.2 0.9,0.1 0.8,0.4 0.5,0.7 0.3,0.9 v 1 l -0.2,0.3 -0.5,0.5 m -5.1,-4 -0.4,-0.5 -1.1,-0.6 6,-1.8 m -46.5,71.9 0.4,0.5 1.1,0.7 -6.2,1.2 m 5.2,0.1 0.4,0.5 1.1,0.7 -6.2,1.2 m 7.2,3 -4.7,-2.1 0.9,4.4 m 3.8,-2.3 -6.1,1.2 m -25.5,-32 0.6,-0.4 0.8,-1 0.7,6.3 m 0.5,-5.2 0.6,-0.4 0.8,-1 0.7,6.3 m -9.8,-35.3 0.3,0.6 0.9,0.9 -6.3,0.1 m 6.6,2.9 -0.3,-0.9 -0.9,-0.6 -1.5,-0.3 h -0.9 l -1.5,0.3 -0.9,0.6 -0.3,0.9 v 0.6 l 0.3,0.9 0.9,0.6 1.5,0.3 h 0.9 l 1.5,-0.3 0.9,-0.6 0.3,-0.9 v -0.5 m 25,-26.9 -0.6,-0.3 -1.3,-0.2 5.2,-3.6 m -8.4,-0.5 6.9,-1.2 m -4.4,4.6 -2.5,-3.4 m -10.8,-4.9 0.6,-0.7 v -0.7 l -0.4,-0.5 -0.5,-0.4 -0.7,0.1 -1.2,0.3 -0.9,0.2 -0.8,-0.2 -0.6,-0.3 -0.4,-0.8 -0.1,-0.7 0.1,-0.4 0.6,-0.7 1.1,-0.6 0.9,-0.2 0.4,0.1 0.6,0.4 0.4,0.7 0.1,0.7 -0.2,0.8 -0.7,0.7 -0.8,0.9 -0.4,0.6 0.1,0.6 0.3,0.6 0.5,0.3 1,-0.2 1.1,-0.7 m 69.3,120.9 -1.4,-3 3,0.6 -0.4,-0.8 v -0.7 l 0.1,-0.4 0.7,-0.6 0.6,-0.3 0.9,-0.1 0.8,0.3 0.7,0.7 0.3,0.8 0.2,1 -0.2,0.4 -0.4,0.5 m -7.7,-4.3 0.7,0.7 1.1,0.1 1.4,-0.3 0.9,-0.4 1.2,-0.9 0.5,-1 -0.1,-0.9 -0.2,-0.5 -0.7,-0.7 -1,-0.2 -1.5,0.4 -0.8,0.4 -1.3,0.9 -0.5,0.9 0.1,0.9 0.2,0.4 m 5.2,33.2 -0.3,-0.6 -0.8,-1 6.3,0.7 m -5.9,-5.5 -0.4,3 2.7,0.6 -0.3,-0.3 -0.2,-0.9 0.1,-0.9 0.4,-0.9 0.7,-0.5 0.9,-0.2 h 0.6 l 0.9,0.4 0.5,0.7 0.2,0.9 -0.1,0.9 -0.4,0.9 -0.4,0.3 -0.6,0.2 m -24.1,9.3 0.6,-0.2 0.9,-0.9 -0.3,6.3 m 1.3,-5 0.7,-0.3 0.9,-0.8 -0.4,6.3 m 2,-4.9 V 708 l 0.3,-0.6 0.4,-0.3 0.6,-0.3 1.2,0.1 0.6,0.3 0.2,0.4 0.3,0.6 v 0.6 l -0.4,0.6 -0.6,0.8 -3.2,2.8 4.2,0.3 m -50.8,-0.1 0.5,-0.4 0.7,-1.1 1.5,6.1 m -0.2,-5.2 0.5,-0.5 0.6,-1.1 1.6,6.2 m 0.1,-6.8 3.2,-0.8 -1.2,2.8 0.9,-0.2 0.6,0.1 0.4,0.2 0.5,0.8 0.2,0.6 -0.1,1 -0.4,0.7 -0.8,0.5 -0.9,0.2 -1,-0.1 -0.3,-0.2 -0.5,-0.5 m -24.3,-14.6 0.6,0.3 1.2,0.3 -5.3,3.3 m 7.1,-0.9 -0.8,-0.6 h -1 l -1.5,0.5 -0.7,0.5 -1.2,1 -0.4,1 0.2,0.9 0.3,0.5 0.7,0.6 1.1,0.1 1.5,-0.6 0.7,-0.4 1.1,-1.1 0.5,-1 -0.2,-0.9 -0.3,-0.4 m 3.9,6.4 -6.9,0.7 m 4.7,-4.3 2.2,3.6 m 2.1,-40.3 -0.6,0.1 -1.1,0.6 1.8,-6 m -2.5,4.5 -0.7,0.1 -1.1,0.6 1.9,-6 m -6.1,5 4.1,-3.1 -4.3,-1.4 m 0.2,4.5 1.9,-6 m -36.9,32.3 0.5,-0.4 0.7,-1.1 1.5,6.1 m 1.3,-7 -0.8,0.5 -0.4,1 0.1,1.5 0.2,0.9 0.6,1.4 0.8,0.7 1,0.1 0.6,-0.2 0.8,-0.5 0.3,-1 v -1.5 l -0.2,-0.9 -0.7,-1.4 -0.8,-0.7 -0.9,-0.1 -0.5,0.1 m 7.3,-1.7 -1.5,6.8 m -2.6,-5.8 4.1,-1 m -5.4,-27 -0.5,0.4 -0.7,1.1 -1.5,-6.1 m 0.2,5.2 -0.5,0.5 -0.7,1.1 -1.5,-6.2 m -29,8.4 -0.6,0.3 -0.9,0.9 v -6.3 m -4.3,6.5 3.1,-4.2 h -4.5 m 1.4,4.2 0.1,-6.3 m -9.3,12.2 0.3,0.6 1,0.7 -6.2,0.8 m 5.2,0.4 0.3,0.6 1.1,0.8 -6.3,0.8 m 5.2,1 h 0.3 l 0.6,0.2 0.3,0.2 0.4,0.6 0.2,1.2 -0.3,0.6 -0.2,0.4 -0.6,0.3 -0.6,0.1 -0.6,-0.2 -1,-0.5 -3.3,-2.6 0.5,4.2 m 15,10.1 0.6,-0.3 1,-0.8 -0.3,6.3 m 1.3,-5.1 0.6,-0.3 0.9,-0.8 -0.3,6.3 m 2.1,-6.4 3.3,0.1 -1.9,2.3 0.9,0.1 0.6,0.3 0.2,0.3 0.3,0.9 v 0.6 l -0.4,0.9 -0.6,0.6 -0.9,0.2 h -0.9 l -0.9,-0.4 -0.3,-0.3 -0.3,-0.6 m 116,-228.5 -4.9,-1.5 1.5,4.3 m 3.4,-2.8 -5.9,2.1 m 5.5,1.4 0.3,-0.1 h 0.7 l 0.4,0.2 0.4,0.5 0.4,1.1 v 0.7 l -0.2,0.4 -0.5,0.5 -0.6,0.2 -0.6,-0.1 -1.1,-0.3 -3.8,-1.8 1.4,3.9 m 7.4,-52.2 2.7,-4.4 -4.5,0.3 m 1.8,4.1 -0.5,-6.3 m -2.7,6.4 -3.3,0.3 1.6,-2.5 h -0.9 l -0.6,-0.2 -0.4,-0.3 -0.3,-0.9 -0.1,-0.6 0.3,-0.9 0.5,-0.6 0.9,-0.4 0.9,-0.1 0.9,0.3 0.3,0.2 0.4,0.6 m 36.5,-33.9 0.7,-0.3 0.3,-0.9 0.1,-0.6 -0.2,-0.9 -0.9,-0.7 -1.5,-0.4 -1.5,-0.1 -1.2,0.2 -0.6,0.6 -0.4,0.8 v 0.3 l 0.2,0.9 0.6,0.7 0.8,0.4 h 0.3 l 1,-0.2 0.6,-0.6 0.4,-0.9 v -0.3 l -0.2,-0.9 -0.6,-0.6 -0.9,-0.4 m 3.6,8.5 -3.9,-3.3 -0.4,4.5 m 4.3,-1.2 -6.2,-0.5 m 82.4,-93.9 0.5,0.4 1,-0.1 0.5,-0.3 0.7,-0.6 0.1,-1.1 -0.3,-1.5 -0.7,-1.3 -0.8,-1 -0.8,-0.3 -0.9,0.2 -0.3,0.1 -0.7,0.6 -0.3,0.8 0.2,1 0.1,0.3 0.7,0.6 0.8,0.3 0.9,-0.1 0.3,-0.1 0.6,-0.7 0.3,-0.8 -0.1,-0.9 m -5.9,7.5 2.7,-1.3 -0.9,-2.6 -0.2,0.4 -0.7,0.7 -0.8,0.4 -0.9,0.1 -0.8,-0.3 -0.7,-0.7 -0.2,-0.5 -0.2,-0.9 0.3,-0.8 0.7,-0.7 0.8,-0.4 0.9,-0.1 0.4,0.1 0.6,0.4 m 9.8,24.1 -0.6,0.2 -0.4,0.9 v 0.6 l 0.2,0.9 0.8,0.7 1.5,0.4 1.5,0.1 1.2,-0.1 0.7,-0.6 0.3,-0.9 0.1,-0.3 -0.3,-0.9 -0.5,-0.6 -0.9,-0.4 H 383 l -0.9,0.2 -0.6,0.5 -0.4,0.9 v 0.3 l 0.2,0.9 0.5,0.7 0.9,0.3 m -2.5,-8.9 -0.6,0.3 -0.4,0.8 -0.1,0.6 0.2,1 0.9,0.6 1.4,0.5 1.5,0.1 1.3,-0.2 0.6,-0.5 0.4,-0.9 v -0.3 l -0.2,-0.9 -0.5,-0.7 -0.9,-0.3 -0.3,-0.1 -0.9,0.3 -0.7,0.5 -0.4,0.9 v 0.3 l 0.2,0.9 0.6,0.6 0.8,0.4 m -54,-33.7 -0.5,-0.4 -1.2,-0.4 5.6,-2.9 m -7.2,0.4 0.7,0.7 1.1,0.1 1.5,-0.4 0.8,-0.4 1.2,-1 0.5,-0.9 -0.2,-1 -0.2,-0.5 -0.7,-0.7 -1.1,-0.1 -1.5,0.4 -0.8,0.4 -1.2,1 -0.5,0.9 0.2,1 0.2,0.4 m -3.2,-6.2 1.3,2.6 2.6,-0.9 -0.4,-0.2 -0.7,-0.6 -0.4,-0.8 -0.2,-1 0.3,-0.8 0.6,-0.7 0.6,-0.2 0.9,-0.2 0.8,0.3 0.7,0.6 0.4,0.8 0.2,1 -0.2,0.4 -0.4,0.5 m -98,18 -1,-0.2 -0.5,0.4 -0.3,0.5 v 0.7 l 0.4,0.5 0.9,0.9 0.6,0.7 0.2,0.8 v 0.6 l -0.4,0.8 -0.6,0.4 -0.4,0.1 -0.9,-0.1 -1.1,-0.6 -0.6,-0.7 -0.1,-0.4 v -0.7 l 0.4,-0.8 0.6,-0.4 0.8,-0.2 0.9,0.2 1.2,0.3 h 0.7 l 0.6,-0.4 0.2,-0.5 0.1,-0.7 -0.7,-0.7 -1.2,-0.6 m 6.3,3.4 -4.6,2.2 3.9,2.2 m 0.7,-4.4 -3,5.5 m 59.8,-73 6.9,-1.4 m -4.3,4.7 -2.6,-3.3 m -1.3,-5.3 0.9,-0.3 0.8,0.1 0.8,0.5 0.2,0.3 0.3,0.9 -0.1,0.8 -0.6,0.8 -0.2,0.2 -0.9,0.3 -0.9,-0.1 -0.7,-0.6 -0.2,-0.2 -0.3,-0.9 0.1,-0.8 0.8,-1 1.2,-0.9 1.3,-0.7 h 1.1 l 0.8,0.5 0.4,0.5 0.3,0.9 -0.3,0.6 m -39.9,-5.6 -0.1,-1 0.2,-0.8 0.6,-0.7 0.3,-0.1 0.9,-0.2 0.9,0.3 0.7,0.6 0.1,0.3 0.2,0.9 -0.3,0.8 -0.6,0.7 -0.3,0.2 -0.9,0.1 -0.9,-0.2 -0.8,-0.9 -0.7,-1.4 -0.4,-1.4 0.1,-1.1 0.6,-0.7 0.5,-0.3 1,-0.1 0.5,0.3 m -2.2,5.8 -0.4,0.5 -0.4,1.2 -2.9,-5.5 m -78.9,89.2 1.8,6.7 m -5,-4 3.2,-2.7 m 4.2,-2.4 -0.6,-0.3 -0.9,0.4 -0.5,0.4 -0.4,0.8 0.1,1.1 0.7,1.3 1,1.1 1,0.8 h 0.9 l 0.8,-0.3 0.3,-0.2 0.5,-0.8 v -0.9 l -0.3,-0.9 -0.2,-0.2 -0.8,-0.5 -0.9,-0.1 -0.9,0.4 -0.2,0.2 -0.5,0.8 v 0.9 l 0.3,0.8 m -34.1,9.1 -5.8,3.9 m 2.2,-6.1 3.6,2.2 m 4.4,2.7 -5.8,3.8 m 2.2,-6 3.6,2.2 m -51,6.7 0.4,-0.5 0.3,-1.3 3.3,5.3 m -1.3,-5.1 -0.1,-0.2 -0.1,-0.7 0.1,-0.4 0.3,-0.6 1.1,-0.6 0.6,-0.1 0.4,0.1 0.6,0.3 0.3,0.5 0.1,0.7 v 1.1 l -0.9,4.1 3.5,-2.3 m 0.2,-7.6 -0.3,5.1 3.8,-2.4 m -3.5,-2.7 3.4,5.3 m 44.3,-64.7 -0.4,0.5 -0.4,1.2 -2.7,-5.6 m 0.7,5.2 0.1,0.3 v 0.6 l -0.2,0.4 -0.4,0.6 -1.1,0.5 h -0.6 l -0.4,-0.1 -0.6,-0.5 -0.2,-0.5 v -0.7 l 0.1,-1 1.4,-4 -3.8,1.8 m 0.4,6.8 0.7,-0.6 v -0.7 l -0.3,-0.6 -0.5,-0.4 h -0.7 l -1.2,0.3 -0.9,0.1 -0.8,-0.3 -0.5,-0.4 -0.4,-0.8 v -0.7 l 0.1,-0.4 0.7,-0.6 1.1,-0.6 0.9,-0.1 0.4,0.2 0.5,0.4 0.4,0.8 v 0.7 l -0.3,0.8 -0.6,0.6 -1,0.8 -0.4,0.5 v 0.7 l 0.3,0.6 0.5,0.4 0.9,-0.2 1.3,-0.6 m -45.2,6.7 3.3,-4 -4.5,-0.4 m 1.2,4.4 0.5,-6.3 m -3.8,5.9 -3.2,-0.3 2,-2.2 -0.9,-0.1 -0.6,-0.3 -0.3,-0.4 -0.2,-0.9 0.1,-0.6 0.3,-0.9 0.7,-0.5 0.9,-0.2 0.9,0.1 0.9,0.3 0.3,0.4 0.2,0.6 M 37,294.2 30.1,294.1 m 5.2,-3.7 1.7,3.8 m -0.6,2.1 0.2,-0.1 h 0.7 l 0.4,0.2 0.5,0.4 0.5,1.1 v 0.6 l -0.1,0.4 -0.4,0.6 -0.6,0.2 h -0.7 l -1,-0.2 -4,-1.4 1.8,3.8 m 12.9,-29.1 0.4,0.6 0.9,0.2 0.6,-0.1 0.9,-0.4 0.4,-1 0.1,-1.5 -0.2,-1.5 -0.4,-1.2 -0.7,-0.5 -0.9,-0.2 -0.3,0.1 -0.9,0.4 -0.5,0.7 -0.2,0.9 0.1,0.3 0.4,0.8 0.7,0.6 0.9,0.1 h 0.3 l 0.8,-0.4 0.6,-0.7 0.1,-0.9 m -7.5,5.3 2.4,-4.6 -4.5,0.6 m 2.1,4 -0.8,-6.3 m 18.8,83.2 0.4,-0.6 0.3,-1.2 3.4,5.3 m -1.4,-5.1 -0.1,-0.3 -0.1,-0.6 0.1,-0.4 0.3,-0.6 1.1,-0.7 h 0.6 0.4 l 0.6,0.4 0.3,0.5 0.1,0.7 v 1 l -0.9,4.2 3.5,-2.3 m -1.2,-4.9 -0.1,-0.3 -0.1,-0.6 0.1,-0.5 0.3,-0.5 1,-0.7 0.7,-0.1 0.4,0.1 0.6,0.4 0.3,0.5 0.1,0.6 v 1.1 l -0.9,4.2 3.5,-2.3 m -20.4,-10.4 0.4,0.5 1.1,0.6 -6.1,1.5 m 5.2,0.5 0.3,-0.1 0.7,0.1 0.3,0.3 0.5,0.5 0.2,1.1 -0.1,0.7 -0.2,0.4 -0.6,0.4 -0.5,0.1 -0.7,-0.1 -1,-0.4 -3.6,-2.2 0.9,4.1 m 6.6,0.2 0.7,3.2 -2.7,-1.2 0.2,0.9 -0.2,0.6 -0.2,0.4 -0.8,0.5 -0.6,0.1 H 52 l -0.7,-0.5 -0.5,-0.8 -0.2,-0.9 v -0.9 l 0.3,-0.4 0.5,-0.4 m 217.4,41.9 4.4,5.5 m -6.2,-1.7 1.8,-3.8 m 2.1,-0.8 -0.3,-0.1 -0.4,-0.6 -0.1,-0.4 v -0.6 l 0.5,-1.1 0.6,-0.4 0.4,-0.2 h 0.6 l 0.6,0.3 0.4,0.5 0.5,1 1.4,4 1.8,-3.8 m -40.3,28.5 0.6,-0.3 0.9,-1 0.3,6.3 m 1.4,-5.1 v -0.3 l 0.3,-0.6 0.2,-0.3 0.6,-0.4 h 1.2 l 0.6,0.2 0.4,0.3 0.3,0.6 v 0.6 l -0.2,0.6 -0.6,1 -2.8,3.1 4.2,-0.2 m 1.3,-6.4 3.3,-0.2 -1.6,2.5 h 0.9 l 0.6,0.2 0.3,0.3 0.4,0.9 v 0.6 l -0.2,0.9 -0.6,0.6 -0.9,0.4 h -0.9 l -0.9,-0.2 -0.3,-0.3 -0.4,-0.6 m -44.8,-38.1 -0.2,0.6 -0.1,1.3 -4.3,-4.6 m 3.2,5.9 -2.4,2.3 -0.3,-3 -0.7,0.6 -0.6,0.2 h -0.4 l -0.9,-0.5 -0.4,-0.4 -0.4,-0.8 V 381 l 0.5,-0.8 0.7,-0.6 0.8,-0.4 h 0.4 l 0.7,0.2 m -1.8,6.6 0.2,0.3 0.2,0.6 v 0.4 l -0.3,0.7 -0.8,0.8 -0.7,0.2 h -0.4 l -0.6,-0.3 -0.5,-0.4 -0.1,-0.7 -0.2,-1 0.1,-4.3 -3.1,2.9 m 16.8,57 0.1,-0.7 -0.3,-1.2 5.3,3.4 m -3.3,-4.1 -0.3,-0.2 -0.3,-0.6 -0.1,-0.4 0.1,-0.7 0.6,-1 0.6,-0.3 0.4,-0.1 0.7,0.1 0.5,0.3 0.3,0.6 0.5,0.9 0.9,4.2 2.2,-3.6 m -3.1,-3.9 -0.3,-0.2 -0.3,-0.6 -0.1,-0.4 0.1,-0.7 0.6,-1 0.6,-0.3 0.4,-0.1 0.7,0.1 0.5,0.3 0.3,0.6 0.5,1 0.9,4.1 2.2,-3.6 M 172.8,412 v 0.7 l 0.4,1.2 -5.5,-3 m 4.8,4.6 -1.6,2.9 -1.2,-2.7 -0.5,0.8 -0.5,0.3 -0.4,0.2 -1,-0.2 -0.5,-0.3 -0.6,-0.7 -0.3,-0.8 0.2,-1 0.5,-0.7 0.7,-0.7 0.4,-0.1 h 0.6 m 0.7,6.4 -0.1,0.7 0.4,1.2 -5.5,-3.1 m 8.6,43.3 0.5,-0.5 0.5,-1.2 2.1,6 m -0.1,-5.3 -0.1,-0.3 0.1,-0.6 0.2,-0.4 0.5,-0.5 1.1,-0.4 0.7,0.1 0.4,0.2 0.4,0.4 0.2,0.6 -0.1,0.7 -0.2,1 -1.9,3.8 4,-1.3 m 2,-7.5 -1.5,5 4.3,-1.5 m -2.8,-3.5 2,6 m -44.7,-17.2 -0.5,0.4 -0.6,1.2 -1.8,-6.1 m 0.2,6.8 -3.2,0.9 1.1,-2.8 -0.9,0.2 -0.6,-0.1 -0.4,-0.2 -0.5,-0.8 -0.2,-0.5 v -1 l 0.4,-0.7 0.8,-0.6 0.9,-0.2 h 0.9 l 0.4,0.2 0.4,0.5 m -4,5 -0.5,0.5 -0.6,1.1 -1.7,-6 m -6.2,15.1 0.5,0.4 1.2,0.5 -5.7,2.6 m 6.6,-1.1 1.4,3 -2.9,-0.7 0.4,0.9 -0.1,0.6 -0.1,0.4 -0.7,0.7 -0.5,0.2 -1,0.1 -0.8,-0.3 -0.6,-0.7 -0.4,-0.8 -0.1,-0.9 0.1,-0.4 0.5,-0.5 m 5.7,3.8 0.2,-0.1 h 0.7 l 0.4,0.1 0.5,0.5 0.5,1 v 0.7 l -0.1,0.4 -0.5,0.5 -0.5,0.3 h -0.7 l -1,-0.2 -4,-1.5 1.7,3.8 m 15.9,1.9 -0.1,7 m -3.8,-5.2 3.9,-1.8 m 4.7,-2.2 -0.1,7 m -3.7,-5.2 3.8,-1.8 m 58.9,-262.5 -0.6,-0.3 -1.2,-0.3 5.3,-3.3 m -7.8,-0.2 5.1,0.3 -2.3,-3.8 m -2.8,3.5 5.3,-3.3 m -8.4,-1.6 5.2,0.3 -2.4,-3.8 m -2.8,3.5 5.4,-3.4 m -51.2,15.3 0.5,0.4 1.3,0.3 -5.6,3 m 7.9,0.6 -5.2,-0.6 2.2,4 m 3,-3.4 -5.6,3.1 m 7.1,-0.2 1.5,2.9 -2.9,-0.4 0.4,0.8 v 0.6 l -0.1,0.4 -0.6,0.7 -0.6,0.3 -0.9,0.2 -0.8,-0.2 -0.7,-0.7 -0.4,-0.8 -0.2,-0.9 0.1,-0.4 0.4,-0.6 m -15.4,-52.7 -0.5,-0.9 -0.6,-0.1 -0.6,0.1 -0.6,0.4 -0.1,0.6 -0.1,1.3 -0.1,0.9 -0.5,0.7 -0.5,0.4 -0.9,0.2 -0.6,-0.2 -0.4,-0.2 -0.5,-0.8 -0.2,-1.2 0.1,-0.9 0.3,-0.4 0.5,-0.4 0.9,-0.2 0.6,0.2 0.7,0.5 0.5,0.8 0.5,1.1 0.4,0.5 0.7,0.2 0.6,-0.1 0.5,-0.4 0.1,-1 -0.2,-1.3 m 1.4,7.5 -0.6,-3 -2.7,0.3 0.4,0.2 0.5,0.8 0.1,0.9 -0.1,0.9 -0.5,0.7 -0.8,0.5 -0.6,0.1 -0.9,-0.1 -0.7,-0.5 -0.5,-0.8 -0.2,-0.9 0.2,-0.9 0.2,-0.4 0.5,-0.4 m 12.7,-30.7 0.3,-0.9 -0.3,-0.6 -0.4,-0.3 -0.7,-0.2 -0.6,0.3 -1,0.8 -0.8,0.5 -0.8,0.1 -0.7,-0.1 -0.7,-0.6 -0.3,-0.6 v -0.4 l 0.3,-0.9 0.7,-1 0.8,-0.5 h 0.5 l 0.6,0.1 0.7,0.6 0.3,0.6 0.1,0.8 -0.3,0.9 -0.5,1.1 -0.1,0.7 0.2,0.6 0.5,0.4 0.7,0.1 0.8,-0.5 0.8,-1.1 m -5.4,5.4 0.7,0.2 0.8,-0.6 0.3,-0.4 0.3,-0.9 -0.3,-1 -1,-1.2 -1.2,-0.9 -1.1,-0.5 -0.8,0.1 -0.8,0.5 -0.2,0.2 -0.3,0.9 0.1,0.9 0.5,0.8 0.2,0.1 0.9,0.4 0.9,-0.1 0.8,-0.6 0.1,-0.2 0.4,-0.9 -0.1,-0.8 -0.6,-0.8 m 54.5,1.3 -0.3,0.9 0.4,0.6 0.4,0.3 0.7,0.1 0.6,-0.3 0.9,-0.7 0.8,-0.6 0.9,-0.1 0.6,0.1 0.7,0.5 0.4,0.6 v 0.4 l -0.3,0.9 -0.7,1 -0.8,0.6 h -0.4 l -0.6,-0.1 -0.8,-0.5 -0.3,-0.6 -0.1,-0.9 0.3,-0.9 0.5,-1.1 0.1,-0.7 -0.3,-0.6 -0.5,-0.3 -0.7,-0.1 -0.7,0.5 -0.8,1.1 m 3.2,-4.4 -0.3,0.9 0.3,0.6 0.5,0.3 0.7,0.1 0.6,-0.3 0.9,-0.8 0.8,-0.5 0.8,-0.1 0.7,0.1 0.7,0.5 0.3,0.6 0.1,0.4 -0.3,0.9 -0.7,1 -0.8,0.6 h -0.4 l -0.7,-0.1 -0.7,-0.5 -0.3,-0.6 -0.1,-0.9 0.3,-0.9 0.4,-1.1 0.2,-0.7 -0.3,-0.6 -0.5,-0.3 -0.7,-0.1 -0.8,0.5 -0.8,1.1 m -41.5,-35.7 -0.8,-0.3 -0.6,-0.7 -0.2,-0.9 0.1,-0.3 0.3,-0.9 0.7,-0.5 0.9,-0.2 h 0.3 l 0.9,0.4 0.5,0.6 0.2,1 v 0.3 l -0.4,0.8 -0.6,0.6 -1.3,0.1 -1.4,-0.1 -1.5,-0.4 -0.8,-0.7 -0.3,-1 0.1,-0.6 0.4,-0.8 0.6,-0.3 m 4.8,7.1 -0.3,-0.9 -0.8,-0.7 -1.5,-0.5 -0.9,-0.1 -1.5,0.2 -0.9,0.5 -0.4,0.9 -0.1,0.6 0.2,0.9 0.9,0.7 1.4,0.4 0.9,0.1 1.6,-0.1 0.9,-0.5 0.4,-0.9 v -0.5 m 60.7,-8.1 0.1,1 0.4,0.4 0.6,0.2 0.7,-0.1 0.4,-0.5 0.7,-1 0.5,-0.8 0.8,-0.4 0.7,-0.1 0.8,0.3 0.5,0.5 0.2,0.3 v 1 l -0.4,1.1 -0.5,0.8 -0.4,0.2 -0.7,0.1 -0.8,-0.3 -0.5,-0.4 -0.4,-0.8 V 99 l 0.1,-1.3 -0.1,-0.6 -0.5,-0.5 -0.6,-0.2 -0.6,0.1 -0.6,0.8 -0.4,1.3 m 1.8,-5.6 v 1 l 0.6,0.8 1.4,0.8 0.8,0.2 1.6,0.2 1,-0.3 0.6,-0.7 0.1,-0.6 v -1 l -0.6,-0.8 -1.4,-0.8 -0.8,-0.2 -1.6,-0.2 -1,0.3 -0.6,0.8 -0.1,0.4 M 177.7,32.9 179,26 m 2.8,5.8 -4.1,1.1 m -1.4,-1.1 -0.5,0.4 -0.6,1.1 -1.6,-6.1 m -73.6,-3.4 -0.4,0.4 -0.6,1.1 -1.9,-6 m -0.1,5.3 0.1,0.3 -0.1,0.6 -0.2,0.4 -0.5,0.5 -1.2,0.3 -0.6,-0.1 -0.4,-0.2 -0.5,-0.5 -0.1,-0.5 0.1,-0.7 0.3,-1 2,-3.8 -4,1.2 m -2.7,7.5 2.8,-0.9 -0.5,-2.7 -0.2,0.4 -0.7,0.5 -0.9,0.3 H 88.8 L 88,25.8 87.5,25 87.3,24.4 v -0.9 l 0.4,-0.8 0.8,-0.5 0.8,-0.3 h 1 l 0.4,0.2 0.4,0.5 m 50.1,6.8 -0.7,0.1 -1.2,0.5 2.2,-5.9 m -3.3,4.1 -0.1,0.3 -0.5,0.5 -0.4,0.2 h -0.6 l -1.1,-0.4 -0.5,-0.5 -0.2,-0.4 v -0.6 l 0.2,-0.6 0.5,-0.5 0.8,-0.6 3.9,-1.7 -3.9,-1.5 m -6.2,2.1 0.6,-0.7 0.7,-0.3 h 1 l 0.3,0.1 0.7,0.6 0.3,0.8 v 0.9 l -0.1,0.3 -0.6,0.7 -0.8,0.4 h -0.9 l -0.3,-0.2 -0.7,-0.5 -0.4,-0.8 0.2,-1.3 0.5,-1.4 0.8,-1.3 0.9,-0.6 h 0.9 l 0.6,0.3 0.7,0.6 0.1,0.6 m -60,11.6 0.2,0.6 0.8,1 -6.3,-0.7 m 6.3,2.4 -0.3,3.3 -2.2,-2 -0.1,0.9 -0.4,0.5 -0.3,0.3 -1,0.2 -0.6,-0.1 -0.8,-0.4 -0.5,-0.6 -0.2,-1 0.1,-0.9 0.4,-0.8 0.3,-0.3 0.6,-0.2 m 4.3,7.7 -0.2,-1 -0.8,-0.7 -1.5,-0.4 -0.9,-0.1 -1.5,0.1 -1,0.5 -0.4,0.8 V 44 l 0.2,1 0.8,0.7 1.4,0.4 0.9,0.1 1.6,-0.1 0.9,-0.5 0.4,-0.8 0.1,-0.5 m 153.4,-8.3 3,0.5 0.7,-2.6 -0.4,0.2 -0.9,0.2 -0.9,-0.2 -0.8,-0.4 -0.5,-0.7 -0.2,-1 0.1,-0.6 0.5,-0.8 0.7,-0.5 0.9,-0.1 0.9,0.1 0.8,0.5 0.3,0.3 0.2,0.6 m -10.1,3.5 4,-5.7 m 0.1,6.4 -4.1,-0.7 m 37,34.8 h -0.9 l -0.5,0.5 -0.1,0.6 0.1,0.7 0.5,0.4 1.1,0.6 0.8,0.6 0.4,0.7 0.1,0.7 -0.2,0.8 -0.5,0.5 -0.3,0.2 -1,0.1 -1.2,-0.3 -0.7,-0.6 -0.2,-0.3 -0.2,-0.7 0.3,-0.8 0.4,-0.5 0.7,-0.5 h 1 1.2 l 0.7,-0.1 0.4,-0.5 0.2,-0.6 -0.1,-0.7 -0.8,-0.5 -1.3,-0.3 m 4.4,1.2 3.2,0.8 -2.4,1.9 0.9,0.2 0.5,0.5 0.2,0.3 v 1 l -0.1,0.6 -0.6,0.8 -0.7,0.4 H 264 l -0.9,-0.2 -0.8,-0.5 -0.2,-0.4 -0.1,-0.7 m 38.7,-0.5 0.5,-0.4 0.6,-1.2 1.7,6.1 m 0.3,-5.3 -0.1,-0.3 0.1,-0.6 0.2,-0.4 0.5,-0.4 1.2,-0.4 0.6,0.2 0.4,0.2 0.4,0.5 0.2,0.5 -0.1,0.7 -0.3,1 -2.1,3.7 4,-1.1 m 3.3,-7.5 -1.2,6.9 m -2.8,-5.8 4,-1.1 m -16.2,-9.6 v 0.6 l 0.6,0.8 0.5,0.3 0.9,0.2 1,-0.4 1.1,-1.2 0.7,-1.2 0.4,-1.2 -0.2,-0.8 -0.6,-0.8 -0.2,-0.1 -0.9,-0.2 -0.9,0.2 -0.7,0.6 -0.2,0.2 -0.2,0.9 0.2,0.9 0.6,0.7 0.3,0.1 0.9,0.3 0.8,-0.2 0.7,-0.6 m -9.9,-1.3 5.9,-3.7 m -2.3,5.9 -3.6,-2.2 m -188.7,18.4 0.6,-0.3 0.9,-0.9 0.2,6.3 m 1.5,-6.6 3.3,-0.1 -1.7,2.5 0.9,-0.1 0.6,0.3 0.3,0.3 0.4,0.9 V 80 l -0.3,0.9 -0.6,0.6 -0.9,0.3 -0.9,0.1 -0.9,-0.3 -0.3,-0.3 -0.3,-0.6 m 8.3,-5.4 -2.8,4.3 4.5,-0.2 m -1.7,-4.1 0.2,6.3 M 73,62.4 l 0.3,0.6 1,0.8 -6.3,0.5 m 6.6,1.3 0.3,3.3 -2.6,-1.7 0.1,0.9 -0.3,0.7 -0.2,0.3 -0.9,0.3 -0.6,0.1 -0.9,-0.3 -0.7,-0.5 -0.3,-0.9 -0.1,-0.9 0.2,-0.9 0.3,-0.3 0.6,-0.4 m 5.7,8.6 -0.2,-3 -2.7,-0.1 0.3,0.3 0.4,0.8 v 0.9 l -0.2,1 -0.5,0.6 -0.9,0.4 H 70.8 L 69.9,74.6 69.2,74 68.9,73.1 68.8,72.2 69,71.3 69.3,71 69.9,70.7 m 341,327.5 -0.3,0.6 0.4,0.9 0.4,0.4 0.8,0.5 1.1,-0.1 1.3,-0.8 1.1,-1 0.7,-1 0.1,-0.8 -0.4,-0.9 -0.2,-0.2 -0.8,-0.5 -0.9,-0.1 -0.8,0.4 -0.3,0.2 -0.4,0.8 -0.1,0.9 0.4,0.8 0.2,0.3 0.8,0.4 0.8,0.1 0.9,-0.4 m -7.7,-2.3 0.8,0.4 1.1,-0.1 1.3,-0.8 0.7,-0.6 0.9,-1.2 0.3,-1 -0.3,-0.9 -0.4,-0.5 -0.9,-0.4 -1,0.1 -1.4,0.8 -0.6,0.6 -1,1.2 -0.2,1 0.3,0.9 0.3,0.3 m -12.2,26.9 3.3,-0.2 -1.6,2.5 h 0.9 l 0.6,0.2 0.3,0.3 0.4,0.9 v 0.6 l -0.2,0.9 -0.6,0.6 -0.9,0.4 -0.9,0.1 -0.9,-0.3 -0.3,-0.3 -0.4,-0.6 m 9.1,-3.5 -0.3,0.9 -0.5,0.6 -0.9,0.4 h -0.3 l -0.9,-0.2 -0.7,-0.6 -0.3,-0.9 v -0.3 l 0.2,-0.9 0.6,-0.6 0.8,-0.4 h 0.3 l 1,0.2 0.6,0.6 0.4,1.2 0.1,1.5 -0.2,1.5 -0.6,0.9 -0.8,0.4 h -0.6 l -1,-0.2 -0.3,-0.6 m -188,-99.1 -6.4,-2.6 m 6.2,-1.5 0.2,4.1 m -0.6,4.8 0.6,-0.3 0.2,-0.9 v -0.6 l -0.3,-0.9 -1,-0.5 -1.5,-0.3 -1.5,0.1 -1.2,0.4 -0.5,0.6 -0.3,1 v 0.3 l 0.4,0.8 0.6,0.6 0.9,0.2 h 0.3 l 0.9,-0.3 0.6,-0.7 0.2,-0.9 v -0.3 l -0.3,-0.9 -0.7,-0.5 -0.9,-0.3 m 20.3,-14.6 h 1 l 0.5,-0.4 0.2,-0.6 -0.1,-0.7 -0.4,-0.5 -1,-0.7 -0.8,-0.6 -0.3,-0.8 -0.1,-0.6 0.4,-0.9 0.5,-0.4 0.3,-0.2 1,0.1 1.1,0.4 0.7,0.6 0.2,0.4 0.1,0.7 -0.4,0.8 -0.5,0.4 -0.7,0.4 -1,-0.1 -1.2,-0.1 h -0.7 l -0.5,0.5 -0.2,0.5 0.1,0.7 0.7,0.6 1.2,0.5 m -6.6,-2.5 4.3,-2.8 -4.2,-1.7 m -0.1,4.5 2.3,-5.9 m 154.2,-166.2 -3.2,-0.9 2.4,-1.8 -0.9,-0.3 -0.5,-0.4 -0.2,-0.4 v -0.9 l 0.1,-0.6 0.5,-0.8 0.8,-0.4 0.9,-0.1 0.9,0.3 0.8,0.5 0.2,0.3 0.1,0.7 m -11.4,80.6 0.7,0.1 1.2,-0.3 -3.3,5.4 m 3.6,-3.8 h 0.7 l 1.2,-0.3 -3.3,5.4 m 6,-4 -1,-0.2 -1,0.4 -1,1.2 -0.5,0.7 -0.5,1.5 v 1 l 0.7,0.8 0.5,0.3 0.9,0.2 1,-0.5 1,-1.1 0.5,-0.7 0.5,-1.5 v -1.1 l -0.6,-0.7 -0.4,-0.2 m -37.6,-14.8 0.7,-0.1 1.1,-0.6 -2,6 m 4.9,-5.2 h -1 l -0.8,0.6 -0.8,1.3 -0.3,0.9 -0.2,1.5 0.3,1.1 0.8,0.5 0.5,0.2 h 1 l 0.8,-0.6 0.8,-1.4 0.3,-0.8 0.2,-1.5 -0.3,-1.1 -0.7,-0.6 -0.5,-0.1 m 6.4,3.1 -0.1,-0.7 -0.8,-0.5 -0.5,-0.2 h -1 l -0.9,0.6 -0.7,1.4 -0.5,1.4 -0.1,1.2 0.4,0.8 0.7,0.5 0.3,0.1 h 1 l 0.7,-0.3 0.6,-0.8 0.1,-0.3 v -0.9 l -0.4,-0.8 -0.7,-0.6 -0.3,-0.1 h -1 l -0.7,0.4 -0.6,0.8 m 47.6,18 0.6,-0.2 1.1,-0.6 -1.5,6.1 m 2.3,-4.7 0.6,-0.1 1.1,-0.7 -1.5,6.1 m 2.3,-4.7 0.6,-0.1 1.1,-0.7 -1.5,6.1 m -72.5,-122.3 -0.6,-0.1 -1.3,0.2 3.8,-5 m 96.7,44.1 -0.1,0.2 -0.4,0.6 -0.4,0.2 -0.6,0.1 -1.2,-0.3 -0.5,-0.4 -0.2,-0.4 -0.2,-0.6 0.2,-0.6 0.4,-0.5 0.8,-0.7 3.6,-2.2 -4,-1 m -6,4 0.2,0.7 0.8,0.5 0.6,0.1 h 0.9 l 0.8,-0.8 0.7,-1.3 0.3,-1.5 v -1.2 l -0.4,-0.8 -0.8,-0.5 h -0.3 -0.9 l -0.8,0.5 -0.5,0.8 v 0.3 0.9 l 0.5,0.7 0.8,0.5 0.3,0.1 0.9,-0.1 0.7,-0.4 0.5,-0.8 m -107.7,24.5 0.5,0.3 1.3,0.3 -5.4,3.3 m 7.1,-0.8 -0.8,-0.7 h -1 l -1.5,0.5 -0.8,0.5 -1.1,1 -0.4,1 0.2,0.9 0.3,0.5 0.7,0.6 1.1,0.1 1.4,-0.5 0.8,-0.5 1.1,-1 0.5,-1 -0.2,-0.9 -0.3,-0.4 m 2.6,4.2 -0.8,-0.6 h -0.6 l -0.5,0.3 -0.4,0.6 0.1,0.7 0.3,1.2 0.2,0.9 -0.2,0.8 -0.3,0.6 -0.8,0.4 -0.7,0.1 -0.4,-0.1 -0.7,-0.6 -0.6,-1.1 -0.2,-0.9 0.1,-0.4 0.3,-0.6 0.8,-0.4 0.7,-0.1 0.8,0.2 0.7,0.6 0.9,0.9 0.6,0.4 0.6,-0.1 0.5,-0.3 0.4,-0.6 -0.2,-0.9 -0.7,-1.1 m 119.5,3 -0.6,-3.3 2.7,1.4 -0.2,-0.9 0.2,-0.7 0.3,-0.3 0.8,-0.5 0.6,-0.1 0.9,0.1 0.7,0.5 0.5,0.9 0.1,0.8 -0.1,1 -0.2,0.3 -0.6,0.4 m -6.1,-4.9 -0.6,-3.2 2.7,1.3 -0.2,-0.9 0.2,-0.6 0.3,-0.4 0.8,-0.4 0.6,-0.1 0.9,0.1 0.7,0.5 0.5,0.8 0.2,0.9 -0.2,0.9 -0.2,0.4 -0.5,0.4 m -151.8,-72.7 0.2,0.3 0.1,0.6 v 0.4 l -0.3,0.7 -0.9,0.7 -0.7,0.2 -0.4,-0.1 -0.6,-0.2 -0.4,-0.5 -0.2,-0.7 -0.1,-1 0.4,-4.3 -3.2,2.7 m 1.8,4.8 0.2,0.2 0.1,0.7 v 0.4 l -0.3,0.6 -0.9,0.7 -0.7,0.2 h -0.4 l -0.6,-0.3 -0.4,-0.5 -0.2,-0.6 -0.1,-1.1 0.4,-4.2 -3.2,2.6 m 135.9,143.8 0.3,0.6 0.9,1 -6.3,-0.2 m 5,1.2 0.3,0.6 0.9,0.9 -6.3,-0.2 m 5.1,1.3 0.2,0.6 0.9,0.9 -6.3,-0.2 m 46.9,8.8 -0.2,-0.7 -0.6,-1.1 6.1,1.6 m -5.6,-4.5 0.1,1 0.7,0.8 1.4,0.6 0.9,0.3 h 1.5 l 1,-0.3 0.5,-0.8 0.2,-0.6 -0.1,-1 -0.7,-0.8 -1.4,-0.6 -0.9,-0.2 -1.5,-0.1 -1,0.3 -0.6,0.8 -0.1,0.5 m 3.9,-6.6 0.8,0.5 0.4,0.8 0.1,0.9 -0.1,0.3 -0.5,0.8 -0.8,0.4 -0.9,0.1 -0.3,-0.1 -0.8,-0.5 -0.4,-0.7 -0.1,-1 0.1,-0.3 0.5,-0.8 0.7,-0.4 h 1.3 l 1.4,0.4 1.4,0.6 0.7,0.8 0.1,1 -0.2,0.6 -0.5,0.8 -0.6,0.1 m -45,10.3 0.6,0.2 h 1.3 l -4.4,4.4 m 4.3,-2.8 0.6,0.2 h 1.3 l -4.4,4.4 m 6.7,-2.5 -0.9,-0.4 -1.1,0.2 -1.2,0.9 -0.7,0.6 -0.8,1.3 -0.2,1 0.4,0.9 0.4,0.4 0.9,0.4 1,-0.2 1.3,-0.8 0.6,-0.7 0.9,-1.2 0.2,-1.1 -0.4,-0.9 -0.3,-0.3 m 11.3,4.2 0.5,-0.4 0.7,-1 1.3,6.1 m 1.6,-6.9 -0.9,0.5 -0.4,1 v 1.5 l 0.2,0.9 0.6,1.4 0.8,0.7 0.9,0.2 0.6,-0.2 0.8,-0.4 0.4,-1 v -1.6 l -0.1,-0.8 -0.6,-1.5 -0.8,-0.7 -0.9,-0.1 -0.5,0.1 m 7.1,-0.5 -0.5,-0.6 -0.9,-0.1 -0.6,0.1 -0.8,0.5 -0.4,1 v 1.5 l 0.3,1.5 0.5,1.1 0.7,0.5 0.9,0.1 h 0.3 l 0.9,-0.5 0.4,-0.7 0.2,-1 -0.1,-0.3 -0.5,-0.8 -0.7,-0.5 -0.9,-0.1 -0.3,0.1 -0.8,0.5 -0.5,0.7 -0.1,0.9 m 37.2,-74.3 0.1,0.3 -0.2,0.6 -0.2,0.4 -0.5,0.4 -1.2,0.3 -0.6,-0.1 -0.4,-0.3 -0.4,-0.5 -0.2,-0.6 0.2,-0.6 0.4,-1 2.2,-3.6 -4.1,0.9 m -0.2,6.6 -3.2,0.7 1.2,-2.7 -0.9,0.2 -0.7,-0.2 -0.3,-0.2 -0.5,-0.8 -0.2,-0.6 0.1,-0.9 0.4,-0.7 0.9,-0.5 0.8,-0.2 h 1 l 0.3,0.3 0.5,0.5 m 8.1,38.3 0.7,-0.1 1.1,-0.6 -1.9,6.1 m 4.8,-5.4 h -1 l -0.8,0.7 -0.7,1.4 -0.3,0.8 -0.2,1.5 0.3,1.1 0.8,0.5 0.6,0.2 h 0.9 l 0.9,-0.7 0.7,-1.3 0.3,-0.9 0.1,-1.5 -0.3,-1 -0.7,-0.6 -0.5,-0.1 m 6.4,4.2 -0.6,0.7 -0.8,0.4 -0.9,0.1 -0.3,-0.1 -0.8,-0.6 -0.3,-0.7 -0.1,-1 0.1,-0.3 0.6,-0.8 0.7,-0.3 1,-0.1 0.3,0.1 0.7,0.6 0.4,0.7 v 1.3 l -0.5,1.4 -0.7,1.3 -0.9,0.7 h -0.9 l -0.6,-0.1 -0.8,-0.6 -0.1,-0.7 m 6,-15.7 -0.3,-0.6 -1,-0.8 6.2,-0.6 m -6.7,-2.3 0.4,0.9 0.9,0.5 1.5,0.1 h 0.9 l 1.5,-0.5 0.8,-0.7 0.2,-0.9 v -0.6 l -0.4,-0.9 -1,-0.5 -1.5,-0.1 -0.9,0.1 -1.4,0.4 -0.9,0.7 -0.2,0.9 0.1,0.5 m -0.5,-4.9 0.3,0.9 0.7,0.2 0.6,-0.1 0.5,-0.3 0.3,-0.6 0.2,-1.3 0.2,-0.9 0.5,-0.6 0.6,-0.4 0.9,-0.1 0.6,0.2 0.3,0.3 0.4,0.9 0.1,1.2 -0.2,0.9 -0.2,0.3 -0.6,0.4 -0.9,0.1 -0.6,-0.3 -0.7,-0.5 -0.4,-0.9 -0.4,-1.1 -0.4,-0.6 -0.6,-0.2 H 495 l -0.6,0.4 -0.2,0.9 0.2,1.4 m -226.9,-51 -0.2,-0.3 -0.1,-0.6 V 169 l 0.2,-0.7 0.9,-0.8 0.6,-0.2 0.5,0.1 0.6,0.2 0.4,0.4 0.2,0.7 0.2,1 -0.2,4.3 3.1,-2.9 m -3,-5.8 2.4,-2.2 0.3,3 0.7,-0.6 0.6,-0.2 h 0.4 l 0.9,0.5 0.4,0.4 0.4,0.9 -0.1,0.8 -0.4,0.8 -0.7,0.6 -0.9,0.4 h -0.4 l -0.6,-0.2 m -22.1,-14.1 1.3,3 -2.9,-0.7 0.4,0.9 -0.1,0.6 -0.1,0.4 -0.7,0.7 -0.6,0.2 -0.9,0.1 -0.8,-0.3 -0.6,-0.7 -0.4,-0.9 -0.1,-0.9 0.2,-0.4 0.4,-0.5 m 7,3.4 1.4,3 -3,-0.7 0.4,0.8 v 0.7 l -0.2,0.4 -0.7,0.6 -0.6,0.3 -0.9,0.1 -0.8,-0.3 -0.6,-0.7 -0.4,-0.9 -0.1,-0.9 0.2,-0.4 0.4,-0.5 m 7.6,-31.3 0.2,0.3 0.1,0.6 -0.1,0.5 -0.4,0.5 -1,0.7 -0.6,0.1 -0.5,-0.1 -0.5,-0.4 -0.4,-0.5 v -0.6 -1.1 l 0.8,-4.2 -3.5,2.3 m -0.9,8.2 -0.9,-6.9 m 4.4,4.6 -3.5,2.3"
       id="nums_001"
       stroke="#000000"
       stroke-width="1" />
    <path
       d="m 354.5,492.6 -24.7,42.2 -14,14.2 -32.2,-1.9 -12.3,-15.8 -38.7,-109.4 54,-4.1 4.4,-55.4 -28.00035,57.19877 L 225.1,422.7 203,457.5 l -43.6,15.3 -30.1,13.9 -18.6,-40.6 42.2,-12.5 -3.4,-24.6 2.2,-3.8 22.7,-10 4.4,-24.7 3.2,-3.1 24.9,-2.9 -15.8,-14.4 -2.2,-37.3 14.1,-16.1 v 0 l 7.2,-4 44.1,24.1 -48.3,-26.4 -51.7,44.1 -20.6,5.1 -2.8,-1.7 -5,-20.6 -9.4,23.9 -3.9,2.5 L 87,342.2 79.5,364.9 76,367.1 52.3,364.6 33.8,351.6 33,348 43.7,328.1 23.9,321.2 9,288.9 l 7.4,-19.6 10.5,-16.4 30.3,-4 14.4,13.2 13.4,-13.8 29.7,2.6 10.8,16.1 10.4,-21.8 3.8,-1.8 23.5,5.2 -20.1,-5.5 -17,-31.2 6.2,-20 -18.2,-14.5 -0.8,-3.9 11.2,-20.4 -2,-21.8 2.2,-2.8 21.6,-3.3 -13,-20.7 0.4,-4.3 L 150.5,82.4 132.4,98 86.9,99.5 67.8,85.1 51.8,72.1 51.6,69 65.5,53.8 52,39.7 52.3,37 68.6,26.2 l 45.9,-14 45.4,16.9 29.5,-7.9 77.4,12.8 63.8,39.8 -43,12.2 -53.2,-14.6 -16.6,52 -31.9,43.2 21.7,6.4 21.7,35.1 -3.8,22.2 5.5,-20 30.7,-16.4 19.6,6.4 20.2,1.9 20.1,26.6 -3.7,19.9 19.8,5.6 15.7,30.3 -6.9,19.4 13.3,-23.1 4.4,-2.2 26.3,4 13.5,17.9 -3.8,40.6 -16.4,15.2 25.5,6.2 34.7,39.4 3,26.1 -92.4,5.9 47.7,-3 41.9,26.4 53.9,83.2 11.6,66.3 -11.8,79.5 -39.6,53.3 -22.9,-18.3 -17.4,12.9 -38.1,-4.9 -13.6,-16.9 -23.2,-0.8 -2.9,-2.6 -3,-23 -21.4,7.3 -3.4,-1.4 -9.7,-20.4 v 0 l -12.3,1.9 -9.7,-20.6 12.3,26.1 -4.2,37.2 -40.9,-2.4 -38.5,9.6 -16.4,-26.8 -10.1,18 -3.1,0.7 -17.2,-11.2 -18.6,14.1 -3.9,-0.1 -17.1,-15.9 -17.2,-16.4 -0.5,-4.1 12.6,-20.1 39.3,0.1 29,-7.2 15.2,-11 26.4,8.3 6.3,17.6 -9.6,-49.3 -11.6,16.4 -3,0.4 -15,-13.4 -0.7,-69.8 3.6,-19.6 2.6,-1.5 19,6.1 23.5,33.1 32.3,-32.6 16.8,56.2 28.4,18.1 45.5,20.2 49.6,16.4 7.5,23.6 -21.3,-66.4 -26.9,-1.2 -4,-2.9 -9.2,-25.3 -14.2,15.8 -3.4,0.3 -16,-14.1 -12.1,-23.7 0.6,-4.8 17.6,-20 11.3,-17.1 33.8,-5.8 16.4,12.4 66.7,38.8 -37.13514,-29.21293 -12.2913,-9.66914 L 416.7,497.5 Z M 257.2,189 l -18.8,-5.8 -12.5,-28.7 8.6,-17.7 4.5,-20.8 2.8,-1.9 20.9,4.2 39.6,-32.6 54,40.8 46.7,12.6 37.2,9.3 10.6,55.9 7.5,-17.2 26.9,-6.6 14.6,12 6.2,61.4 -20.5,9.3 -3.6,-1.1 -11.4,-19.4 -9.1,36.1 -35.2,7.1 -17.5,-17.5 0.9,-29.3 -16.4,11.5 -2.8,-0.8 -9.2,-17.7 -17.3,7 -2.1,-1.3 -1.6,-18.6 -20.2,9 -3.4,-1.1 -10.5,-19.4 -20,-4.2 -17.5,-29.1 5.6,-19.6 z"
       id="coupes_001"
       stroke="#ff0000"
       stroke-width="1.27"
       sodipodi:nodetypes="cccccccccccccccccccccccccccccccccccccccccccccccccccccccccccccccccccccccccccccccccccccccccccccccccccccccccccccccccccccccccccccccccccccccccccccccccccccccccccccccccccccccccccccccccccccccccccccccccccccccccccccccccccc" />
    <path
       d="m 423,673.7 39.3,-114 m 0,0 47.4,47.2 m 0,0 -86.7,66.8 m 39.3,-114 35.8,-19.1 M 497.9,686.4 423,673.7 m 39.3,-114 -18.1,-102.3 m 53.7,229 -62.5,35 m 0,0 -12.4,-47.7 m -6.3,-176.2 27.5,-40.1 m 18.1,102.3 -45.6,-62.2 m 18.7,223.9 -69.1,-8.9 m 0,0 56.7,-38.8 M 416.7,497.5 354.6,434 m 0,0 89.6,23.4 m -107,228.7 85.8,-12.4 m -85.8,12.4 28.7,-52.4 m -63.2,37.9 63.2,-37.9 m -63.2,37.9 17.7,-58.1 m -17.7,58.1 -22,-18.7 m 0,0 39.7,-39.4 m -39.7,39.4 11.3,-57.5 m 109.7,11.9 60.6,-47.6 m -60.6,47.6 -6.1,-86.4 m -34,57 34,-57 m -67.6,59 6.1,-48.5 m 0,0 61.5,-10.5 m -41.1,-28.3 0.1,-58.6 m -83.3,97.3 83.3,-97.3 m -0.1,58.6 -83.2,38.7 m 15.3,-113.5 68,16.2 m -73.9,218.9 -46.6,16.5 m 0,0 8.8,-97.6 m -18.4,48.3 -30.3,-66.4 m 0,0 25.2,-15 M 293,679 234.1,669.4 m 13.8,44.4 -13.8,-44.4 M 293,679 247.9,713.8 M 193,696.6 234.1,669.4 m -41.1,27.2 -6.8,-42.1 m 6.8,42.1 -30.4,7.5 m 0,0 -5.4,-42.4 m 5.4,42.4 -44.7,-42.5 m 5.1,40.6 -5.1,-40.6 m 44.7,42.5 -39.6,-1.9 M 383.8,356.4 354.6,434 m -63.6,-71.6 92.8,-6 m -92.8,6 55.5,-58.4 m 0,0 37.3,52.4 m -37.3,-52.4 44,-21.3 m 0,0 -6.7,73.7 M 254.3,316.8 346.5,304 m -92.2,12.8 63.6,-68.1 m 0,0 28.6,55.3 M 206,290.4 317.9,248.7 M 206,290.4 281.3,200.3 m 0,0 36.6,48.4 M 206,290.4 225.5,230.3 M 206,290.4 163.2,248.6 m 42.8,41.8 -80.1,26.9 m 0,0 37.3,-68.7 M 87,342.2 163.2,248.6 M 87,342.2 125.5,267 M 87,342.2 71.6,262.1 M 87,342.2 43.7,328.1 m 0,0 27.9,-66 m -27.9,66 -27.3,-58.8 M 87,342.2 52.3,364.6 m 0,0 -8.6,-36.5 m 181.4,94.6 29.2,-105.9 m 36.7,45.6 -65.9,60.3 m 0,0 -50.7,-27.5 m 0,0 32.5,-30.7 m -54,69.1 21.5,-38.4 m 28.6,62.3 -50.1,-23.9 m 6.5,39.2 -6.5,-39.2 m 33,-267 39.6,63.7 m -62.3,18.3 22.7,-82 m -22.7,82 -30.9,-56.7 m -7.8,-38.8 61.4,13.5 m -53.6,25.3 -7.8,-38.8 m 0,0 21.8,-27.9 m 0,0 39.6,41.4 m -39.6,-41.4 71.5,-1.8 m -67.3,-41 67.3,41 m -67.3,-41 83.9,-11 m -83.9,11 -81.9,-56.2 m 0,0 91.3,2.9 m -9.4,53.3 -85,-28.6 m 0,0 3.1,-27.6 M 266.8,34 234.4,71.4 M 266.8,34 287.6,86 M 150.5,82.4 67.8,85.1 m 0,0 -2.3,-31.3 M 383.8,356.4 447,428.1 M 206.9,364.5 203,296.7 m 0,0 51.3,20.1 m 105.9,-97.6 -3.9,-92.7 m 46.7,12.6 -21.8,93 m 0,0 -21,-12.9 m 0,0 -34.1,-11.5 m 0,0 30.2,-81.2 m 46.7,12.6 6.6,100 m 0,0 -28.4,-7 m -55.1,-24.4 -23.8,-122 m 137.9,62.7 -30.6,90.7 m -115.4,-84.3 8.1,-69.1 m 148.5,118.6 -41.2,34.8 m 41.2,-34.8 19.7,38.4 m 0,0 -60.9,-3.6 M 294.2,154.8 262.7,118.3 m 207.8,124.4 -61.8,25.7 m 52.7,10.4 -52.7,-10.4 m 91.1,-75.9 -29.3,50.2 M 506,253.9 470.5,242.7 M 257.2,189 l 5.5,-70.7 m -5.5,70.7 -22.7,-52.2"
       id="plisM_001"
       stroke="#a52a2a"
       stroke-dasharray="4" />
    <path
       d="m 366.3,712.5 -29.1,-26.4 m 28.7,-52.4 57.1,40 m -85.8,12.4 -34.5,-14.5 m -59.8,-99.8 49.1,23.6 m -11.3,57.5 -37.8,-81.1 m 158.8,35.5 -40.1,-29.4 m -33.6,2 67.6,-59 m -34,57 -33.6,2 m 1.8,-45.1 -58.5,-3.5 m 0,0 15.3,-113.5 m -62.1,202.3 18.4,-48.3 m -48.7,-18.1 48.7,18.1 m -18.4,48.3 -29.6,3.4 m 14.5,99.9 24.7,-54 m -47.9,-14.9 47.9,14.9 m -71.5,34.7 23.6,-49.6 m 100.4,-236.7 97.2,-61.4 m -92.8,6 -36.7,-45.6 m -28.8,-86.5 55.8,-30 m -118.1,48.3 62.3,-18.3 m -71.2,104.2 -28.4,-17.2 m 0,0 -38.9,24.9 m 38.5,-75.2 37.7,-18.4 m -91.6,13.5 53.9,4.9 m -109.1,2.3 55.2,-7.2 m 135.3,102.4 47.4,-47.7 m -29.2,105.9 -18.2,-58.2 m -3.9,93 -28.6,-62.3 m -15,77.6 -48.7,-26.7 m 21.6,-254.2 53.6,-25.3 m -39.6,-41.4 4.2,-42.8 m 0,0 9.4,-53.3 m 0,0 74.5,42.3 m -45,-50.2 45,50.2 m 168.6,67.7 -42.8,80.1 m -34.1,-11.5 -31.9,-52.9 m 156.6,49.5 49,-11.8 m -265.3,-55.7 28.2,-18.5"
       id="plisV_001"
       stroke="#008000"
       stroke-dasharray="4, 1, 1, 1"
       stroke-width="1.27" />
    <path
       d="m 349.7,697.3 4,4 m 0,-4 -4,4 m 42.8,-49.6 4,4 m 0,-4 -4,4 m -74.6,21.1 4,4 m 0,-4 -4,4 m -52.5,-99.2 4,4 m 0,-4 -4,4 m -5.6,24.7 4,4 m 0,-4 -4,4 m 119.9,-23.7 4,4 m 0,-4 -4,4 m -19.9,-46.2 4,4 m 0,-4 -4,4 m -17,24.5 4,4 m 0,-4 -4,4 m -44.2,-49.9 4,4 m 0,-4 -4,4 m -21.7,-62.4 4,4 m 0,-4 -4,4 m -45.2,117.4 4,4 m 0,-4 -4,4 m -15.2,-37.2 4,4 m 0,-4 -4,4 m -8.8,55 4,4 m 0,-4 -4,4 m 12.1,70.6 4,4 m 0,-4 -4,4 m -11.7,-38.5 4,4 m 0,-4 -4,4 m -35.7,13.4 4,4 m 0,-4 -4,4 m 160.8,-296.2 4,4 m 0,-4 -4,4 m -62.5,-51.5 4,4 m 0,-4 -4,4 m -19.3,-128.3 4,4 m 0,-4 -4,4 m -59,20.2 4,4 m 0,-4 -4,4 m -54.3,82.4 4,4 m 0,-4 -4,4 m -33.7,-0.1 4,4 m 0,-4 -4,4 m 38,-76 4,4 m 0,-4 -4,4 m -45.9,2.8 4,4 m 0,-4 -4,4 m -54.5,-2.9 4,4 m 0,-4 -4,4 m 186.6,71 4,4 m 0,-4 -4,4 m -14.6,48.9 4,4 m 0,-4 -4,4 m -27.3,28.8 4,4 m 0,-4 -4,4 m -53.7,29.1 4,4 m 0,-4 -4,4 m 24.1,-284.2 4,4 m 0,-4 -4,4 m -10.7,-79.5 4,4 m 0,-4 -4,4 m 6.8,-52.1 4,4 m 0,-4 -4,4 m 42,-9.4 4,4 m 0,-4 -4,4 m 14.7,-8 4,4 m 0,-4 -4,4 m 169.7,128.8 4,4 m 0,-4 -4,4 m -71.4,-1.9 4,4 m 0,-4 -4,4 m 165.1,13.2 4,4 m 0,-4 -4,4 m -226.7,-74.8 4,4 m 0,-4 -4,4"
       id="marqueV_001"
       stroke="#008000" />
    <path
       d="m 257.61765,358.17331 1.5,-0.8 2.3,-2.2 v 15.7"
       id="titre_1"
       stroke="#4b0082" />
    <path
       d="m 364.90804,166.40415 v -0.8 l 0.7,-1.5 0.8,-0.7 1.5,-0.8 h 3 l 1.5,0.8 0.7,0.7 0.8,1.5 v 1.5 l -0.8,1.5 -1.5,2.3 -7.5,7.5 h 10.5"
       id="titre_2"
       stroke="#4b0082" />
  </g>
  <g
     id="page_002">
    <path
       d="m 888.8,165 h 3 l 0.3,-2.7 -0.3,0.3 -0.9,0.3 H 890 l -0.9,-0.3 -0.6,-0.6 -0.3,-0.9 v -0.6 l 0.3,-0.9 0.6,-0.6 0.9,-0.3 h 0.9 l 0.9,0.3 0.3,0.3 0.3,0.6 m -5.3,3.7 -0.6,0.3 -0.9,0.9 v -6.3 m -16.1,34.8 0.2,-0.6 0.2,-1.3 4,4.8 m -1,-7.8 0.5,5.2 3.4,-2.9 m -3.9,-2.3 4.1,4.8 m -0.6,-5.6 -0.2,-0.3 -0.2,-0.6 v -0.4 l 0.3,-0.7 0.9,-0.7 0.7,-0.2 h 0.4 l 0.6,0.3 0.4,0.5 0.2,0.6 0.1,1.1 -0.4,4.2 3.2,-2.7 m -5.4,-9.6 0.6,-0.3 0.4,-0.9 v -0.6 l -0.2,-0.9 -0.9,-0.6 -1.5,-0.4 -1.5,-0.1 -1.2,0.2 -0.6,0.5 -0.4,0.9 v 0.3 l 0.2,0.9 0.6,0.7 0.9,0.3 0.3,0.1 0.9,-0.3 0.6,-0.5 0.4,-0.9 v -0.3 l -0.2,-0.9 -0.6,-0.7 -0.9,-0.3 m 2.4,5.7 h 0.2 l 0.6,0.3 0.3,0.4 0.3,0.6 -0.1,1.2 -0.3,0.6 -0.4,0.2 -0.6,0.3 h -0.6 l -0.6,-0.4 -0.8,-0.6 -2.8,-3.2 -0.3,4.2 m 38.4,-5.6 -0.6,-0.3 -1.2,-0.3 5.3,-3.4 m -5.2,1.3 -0.2,0.2 -0.7,0.1 -0.4,-0.1 -0.6,-0.4 -0.6,-1 -0.1,-0.7 0.1,-0.4 0.3,-0.5 0.5,-0.4 h 0.7 1.1 l 4.1,0.9 -2.2,-3.6 m -4.7,1.8 -0.6,-0.3 -1.2,-0.3 5.2,-3.4 m -10.8,8.9 0.6,-0.4 0.8,-0.9 0.4,6.3 m 3.9,-6.9 -2.7,4.4 4.4,-0.3 m -1.7,-4.1 0.4,6.3 m 2.8,-4.9 v -0.3 l 0.3,-0.6 0.3,-0.4 0.5,-0.3 1.2,-0.1 0.7,0.3 0.3,0.3 0.3,0.5 v 0.6 l -0.2,0.7 -0.6,0.9 -2.7,3.2 4.1,-0.3 m -188.2,318.3 -5.2,0.6 3,3.3 m 2.2,-3.9 -4.7,4.2 m 8.5,0.1 -5.1,0.6 3,3.3 m 2.1,-3.9 -4.6,4.2 m 14.6,-44.8 1.5,2.5 2.5,-1.1 -0.4,-0.1 -0.7,-0.6 -0.5,-0.8 -0.2,-0.9 0.2,-0.8 0.6,-0.7 0.6,-0.3 0.9,-0.2 0.8,0.2 0.7,0.6 0.5,0.8 0.2,0.9 -0.1,0.4 -0.4,0.6 m -8,-3.6 0.7,0.6 1.1,0.1 1.4,-0.5 0.8,-0.5 1.1,-1 0.5,-1 -0.2,-0.9 -0.3,-0.5 -0.7,-0.6 -1.1,-0.1 -1.4,0.5 -0.8,0.5 -1.2,1 -0.4,1 0.2,0.9 0.2,0.4 m 14.8,27.5 1.3,2.7 2.6,-0.9 -0.4,-0.2 -0.7,-0.7 -0.4,-0.8 -0.1,-0.9 0.3,-0.8 0.7,-0.7 0.5,-0.2 0.9,-0.1 0.8,0.2 0.7,0.7 0.4,0.8 0.1,1 -0.1,0.4 -0.4,0.5 m -7.2,-3.1 -1.4,-3 2.9,0.6 -0.4,-0.8 v -0.7 l 0.2,-0.4 0.6,-0.7 0.6,-0.2 0.9,-0.2 0.8,0.3 0.7,0.7 0.4,0.8 0.1,1 -0.1,0.4 -0.5,0.5 m -45.6,-22.6 -4.2,-3 0.1,4.5 m 4.1,-1.5 -6.3,0.1 m 6.4,6.1 -0.1,-3 -2.7,-0.3 0.3,0.3 0.3,0.9 0.1,0.9 -0.3,0.9 -0.6,0.7 -0.9,0.3 h -0.6 l -0.9,-0.3 -0.6,-0.6 -0.3,-0.9 -0.1,-0.9 0.3,-0.9 0.3,-0.3 0.6,-0.3 m 76.2,37.4 2.9,-0.3 V 498 l -0.2,0.4 -0.9,0.4 -0.9,0.1 -0.9,-0.2 -0.7,-0.6 -0.4,-0.8 -0.1,-0.6 0.2,-0.9 0.6,-0.7 0.8,-0.4 0.9,-0.1 1,0.2 0.3,0.3 0.4,0.5 m -7.9,6.1 2.5,-4.5 -4.5,0.5 m 2,4 -0.7,-6.3 m -15.9,8 -2.5,1.7 1.3,2.4 v -0.4 l 0.6,-0.7 0.8,-0.5 0.9,-0.3 0.8,0.2 0.8,0.5 0.3,0.5 0.3,1 -0.2,0.8 -0.6,0.7 -0.7,0.5 -0.9,0.3 -0.5,-0.1 -0.5,-0.3 m 4.5,-9.2 -2.5,1.6 1.3,2.5 0.1,-0.5 0.6,-0.7 0.7,-0.5 0.9,-0.3 0.8,0.2 0.8,0.6 0.3,0.5 0.3,0.9 -0.2,0.8 -0.6,0.8 -0.7,0.5 -0.9,0.2 -0.4,-0.1 -0.6,-0.3 m -40.7,-81.9 1.8,-2.4 -2,-1.8 v 0.4 l -0.3,0.9 -0.5,0.7 -0.8,0.6 -0.8,0.1 -0.9,-0.3 -0.5,-0.3 -0.5,-0.8 -0.2,-0.8 0.3,-0.9 0.5,-0.8 0.8,-0.5 0.4,-0.1 0.7,0.1 m -1.9,9.7 0.7,0.1 0.8,-0.5 0.3,-0.5 0.3,-0.9 -0.4,-1 -1,-1.1 -1.2,-0.9 -1.2,-0.5 -0.8,0.1 -0.8,0.6 -0.2,0.2 -0.2,0.9 0.1,0.9 0.5,0.8 0.3,0.1 0.9,0.3 0.8,-0.1 0.8,-0.6 0.2,-0.2 0.3,-0.9 -0.2,-0.9 -0.5,-0.7 m 19.4,5.8 -1.7,2.5 2.1,1.8 -0.1,-0.5 0.3,-0.9 0.5,-0.7 0.7,-0.6 0.9,-0.2 0.9,0.3 0.5,0.3 0.5,0.8 0.2,0.8 -0.3,0.9 -0.5,0.8 -0.7,0.6 h -0.4 l -0.7,-0.1 m -0.2,-8.7 -0.3,0.9 0.5,1 1,1.1 0.8,0.5 1.4,0.6 h 1.1 l 0.7,-0.6 0.4,-0.5 0.2,-0.9 -0.4,-1 -1.1,-1.1 -0.7,-0.5 -1.4,-0.6 h -1.1 l -0.8,0.6 -0.2,0.3 m 36.6,-30.8 1,2.8 2.7,-0.7 -0.4,-0.1 -0.6,-0.8 -0.4,-0.8 v -1 l 0.4,-0.7 0.7,-0.6 0.6,-0.3 h 0.9 l 0.8,0.4 0.6,0.7 0.3,0.8 v 1 l -0.1,0.4 -0.5,0.5 m -7.2,-4.6 0.6,0.7 0.7,0.1 0.5,-0.2 0.5,-0.5 0.1,-0.7 -0.2,-1.2 v -1 l 0.3,-0.8 0.5,-0.4 0.8,-0.4 0.7,0.1 0.4,0.2 0.6,0.7 0.4,1.1 v 1 l -0.1,0.4 -0.5,0.5 -0.8,0.3 -0.7,-0.1 -0.8,-0.3 -0.6,-0.8 -0.7,-1 -0.5,-0.4 -0.6,-0.1 -0.6,0.2 -0.5,0.5 0.1,0.9 0.5,1.3 m -29.8,-1.1 1.6,-2.5 -2.2,-1.7 0.1,0.4 -0.2,0.9 -0.5,0.8 -0.7,0.6 -0.8,0.2 -1,-0.3 -0.5,-0.3 -0.6,-0.7 -0.2,-0.9 0.3,-0.9 0.5,-0.7 0.7,-0.6 0.4,-0.1 h 0.7 m -2.5,9.5 -0.6,-0.8 -0.1,-0.8 0.2,-0.9 0.2,-0.3 0.7,-0.6 0.8,-0.2 0.9,0.3 0.3,0.1 0.6,0.8 0.2,0.8 -0.3,0.9 -0.1,0.3 -0.8,0.6 -0.8,0.1 -1.2,-0.3 -1.2,-0.9 -1.1,-1 -0.5,-1 0.3,-0.9 0.3,-0.5 0.7,-0.6 h 0.7 m 23.5,-6.3 3,0.1 0.4,-2.7 -0.3,0.3 -0.9,0.3 h -0.9 l -0.9,-0.3 -0.6,-0.7 -0.3,-0.9 v -0.6 l 0.3,-0.9 0.7,-0.5 0.9,-0.3 h 0.9 l 0.9,0.3 0.2,0.3 0.3,0.6 m -6.9,5 0.9,-0.3 0.3,-0.6 v -0.6 l -0.3,-0.6 -0.6,-0.3 -1.2,-0.4 -0.9,-0.3 -0.6,-0.6 -0.2,-0.6 V 379 l 0.3,-0.6 0.3,-0.3 0.9,-0.3 1.2,0.1 0.9,0.3 0.3,0.3 0.3,0.6 v 0.9 l -0.4,0.6 -0.6,0.6 -0.9,0.3 -1.2,0.2 -0.6,0.3 -0.3,0.6 v 0.6 l 0.3,0.6 0.9,0.3 1.3,0.1 m 8.1,36.1 -2.6,-1.6 -1.7,2.1 0.4,-0.1 1,0.3 0.7,0.4 0.6,0.8 0.2,0.8 -0.2,0.9 -0.3,0.5 -0.8,0.6 -0.8,0.2 -0.9,-0.2 -0.8,-0.5 -0.6,-0.7 -0.1,-0.4 0.1,-0.7 m 7.7,-1.2 2.8,1.8 -2.8,1.1 0.8,0.4 0.3,0.6 0.1,0.4 -0.2,0.9 -0.3,0.6 -0.7,0.6 -0.9,0.1 -0.9,-0.2 -0.7,-0.4 -0.6,-0.8 -0.1,-0.4 v -0.7 m 21.4,18.9 -0.9,-2.9 -2.7,0.6 0.4,0.2 0.5,0.7 0.3,0.9 v 0.9 l -0.4,0.8 -0.8,0.6 -0.5,0.1 h -1 l -0.7,-0.4 -0.6,-0.7 -0.3,-0.9 v -0.9 l 0.2,-0.4 0.5,-0.5 m 7.5,6.5 -4.9,-1.5 1.4,4.2 m 3.5,-2.7 -6,1.9 m 14.8,-28.3 2.5,1.7 1.7,-2 h -0.4 l -0.9,-0.2 -0.8,-0.5 -0.5,-0.8 -0.2,-0.8 0.3,-0.9 0.3,-0.5 0.8,-0.6 0.8,-0.2 0.9,0.3 0.8,0.5 0.5,0.8 0.1,0.4 -0.1,0.6 m -9.3,-2.7 0.7,-0.6 0.9,-0.1 0.9,0.2 0.2,0.2 0.6,0.8 0.2,0.8 -0.3,0.9 -0.2,0.3 -0.7,0.5 -0.8,0.2 -1,-0.3 -0.2,-0.1 -0.6,-0.8 -0.1,-0.8 0.4,-1.2 0.8,-1.2 1.1,-1.1 1,-0.4 0.9,0.3 0.5,0.3 0.6,0.7 -0.1,0.7 m -7.5,22 -1.8,2.3 1.9,1.9 v -0.4 l 0.3,-0.9 0.6,-0.7 0.7,-0.5 0.9,-0.1 0.9,0.3 0.5,0.3 0.5,0.8 0.1,0.9 -0.3,0.9 -0.6,0.7 -0.8,0.5 -0.4,0.1 -0.6,-0.2 m 2.1,-9.6 -0.6,-0.1 -0.8,0.5 -0.4,0.5 -0.3,0.9 0.3,1 1,1.1 1.2,1 1.2,0.4 0.8,-0.1 0.8,-0.5 0.2,-0.2 0.3,-0.9 -0.1,-0.9 -0.6,-0.7 -0.2,-0.2 -0.9,-0.3 -0.8,0.1 -0.8,0.5 -0.2,0.2 -0.3,0.9 0.1,0.9 0.5,0.8 m -25.8,-178.9 0.6,-0.2 0.4,-0.9 v -0.6 l -0.2,-0.9 -0.9,-0.7 -1.4,-0.4 -1.5,-0.1 -1.2,0.2 -0.7,0.6 -0.3,0.9 -0.1,0.3 0.3,0.9 0.5,0.6 0.9,0.4 h 0.3 l 0.9,-0.2 0.7,-0.6 0.3,-0.9 v -0.3 l -0.2,-0.9 -0.6,-0.6 -0.8,-0.4 m 2.3,5.8 h 0.3 l 0.6,0.3 0.3,0.3 0.2,0.6 -0.1,1.2 -0.3,0.6 -0.3,0.3 -0.6,0.3 -0.6,-0.1 -0.6,-0.3 -0.9,-0.7 -2.8,-3.2 -0.3,4.2 m 19.4,20.5 v -0.7 l -0.8,-0.6 -0.5,-0.2 -1,-0.1 -0.9,0.6 -0.8,1.2 -0.6,1.4 -0.2,1.3 0.3,0.7 0.8,0.7 0.2,0.1 1,0.1 0.8,-0.4 0.6,-0.7 0.1,-0.3 0.1,-0.9 -0.3,-0.8 -0.8,-0.6 -0.2,-0.1 -1,-0.1 -0.8,0.3 -0.6,0.7 m 5.7,-0.6 0.6,-0.1 1.2,-0.4 -2.4,5.8 m 43.9,-5.2 -0.5,-0.5 h -0.9 l -0.6,0.2 -0.8,0.5 -0.3,1 0.1,1.6 0.4,1.4 0.7,1.1 0.7,0.4 h 0.9 l 0.3,-0.1 0.8,-0.5 0.4,-0.7 0.1,-1 -0.1,-0.3 -0.6,-0.8 -0.7,-0.4 h -1 l -0.2,0.1 -0.8,0.5 -0.4,0.8 -0.1,0.9 m 4.3,-5.6 3.2,-0.9 -1.1,2.8 0.9,-0.2 0.6,0.1 0.4,0.2 0.5,0.8 0.2,0.5 -0.1,1 -0.4,0.7 -0.7,0.6 -0.9,0.2 h -1 l -0.3,-0.2 -0.5,-0.5 m 38.8,-55.6 0.5,0.5 0.9,0.1 0.6,-0.1 0.8,-0.5 0.4,-1 V 234 l -0.4,-1.5 -0.5,-1.1 -0.7,-0.4 -1,-0.1 h -0.3 l -0.8,0.5 -0.5,0.7 v 1 0.3 l 0.5,0.8 0.7,0.4 1,0.1 h 0.3 l 0.8,-0.5 0.4,-0.7 0.1,-1 m -7.9,6.1 1.5,-6.8 m 2.6,5.9 -4.1,0.9 m 92,61.3 -4.9,1.6 3.6,2.7 m 1.3,-4.3 -3.7,5.1 m 4.9,-2.4 0.6,0.1 1.3,-0.2 -3.7,5.1 m 68,-30.9 5.2,0.4 -2.4,-3.9 m -2.8,3.5 5.4,-3.3 m -7.8,-2.5 -0.4,0.6 0.2,0.9 0.3,0.5 0.8,0.6 h 1 l 1.5,-0.5 1.3,-0.8 0.8,-0.9 0.2,-0.8 -0.2,-0.9 -0.2,-0.3 -0.7,-0.6 -0.8,-0.2 -0.9,0.3 -0.3,0.1 -0.6,0.7 -0.2,0.9 0.2,0.9 0.2,0.2 0.7,0.7 0.8,0.1 1,-0.2 m -19.3,33.3 -0.5,5.1 3.9,-2.3 m -3.4,-2.8 3.2,5.4 m 2.6,-8.8 0.6,7 m -4.2,-4.8 3.6,-2.2 m -67.7,-82.3 2.9,-0.8 -0.3,-2.6 -0.2,0.3 -0.9,0.5 -0.8,0.2 h -1 l -0.7,-0.5 -0.5,-0.8 -0.1,-0.6 v -0.9 l 0.5,-0.7 0.8,-0.6 0.9,-0.2 0.9,0.1 0.4,0.2 0.4,0.5 m -7.9,7.2 1.4,-6.8 m 2.7,5.8 -4.1,1 m 69.6,-25.4 6.2,3.2 m -6.3,1 0.1,-4.2 m 0.1,-3 0.3,0.9 0.8,0.7 1.5,0.3 h 0.9 l 1.5,-0.2 1,-0.6 0.3,-0.9 v -0.6 l -0.3,-0.9 -0.8,-0.6 -1.5,-0.4 h -0.9 l -1.5,0.3 -0.9,0.5 -0.4,0.9 v 0.5 m -28,-7.9 -6.9,-0.4 m 5.3,-3.5 1.6,3.9 m -0.9,1.5 0.5,0.4 1.2,0.5 -5.8,2.4 m -35.6,133.3 5.2,-0.1 -2.7,-3.6 m -2.5,3.7 5.1,-3.7 m -5.4,0.8 -0.6,-0.3 -1.2,-0.2 5,-3.8 m -7.8,43.3 0.3,5.2 3.5,-2.8 m -3.8,-2.4 3.9,5 m -0.3,-7.7 -0.5,0.8 0.1,1.1 0.6,1.4 0.6,0.7 1.1,1 1.1,0.3 0.9,-0.3 0.4,-0.4 0.6,-0.8 -0.1,-1 -0.7,-1.4 -0.5,-0.7 -1.2,-1 -1,-0.4 -0.9,0.4 -0.4,0.2 m -83.6,113.7 -0.5,3.2 -2.1,-2.1 -0.2,0.9 -0.3,0.5 -0.4,0.3 -0.9,0.2 -0.6,-0.1 -0.9,-0.5 -0.5,-0.6 -0.1,-1 0.1,-0.9 0.4,-0.8 0.4,-0.3 0.6,-0.2 m 3.9,9.2 -3.7,-3.6 -0.7,4.4 m 4.4,-0.8 -6.3,-0.9 m 13.7,49.3 1.7,2.8 -3,-0.2 0.5,0.7 v 0.7 l -0.1,0.4 -0.6,0.7 -0.5,0.4 -0.9,0.2 -0.8,-0.2 -0.8,-0.6 -0.4,-0.8 -0.2,-0.9 v -0.4 l 0.4,-0.6 m 6.1,3.1 0.3,-0.2 h 0.7 l 0.4,0.1 0.6,0.3 0.6,1 v 0.7 l -0.1,0.4 -0.3,0.6 -0.5,0.3 -0.7,0.1 -1.1,-0.1 -4.1,-0.9 2.2,3.5 m 89.5,-165.2 0.3,-5.2 -3.8,2.5 m 3.5,2.7 -3.4,-5.3 m -0.4,7.6 0.6,-0.7 0.1,-1.1 -0.6,-1.4 -0.5,-0.8 -1,-1.1 -1,-0.4 -0.9,0.2 -0.6,0.4 -0.5,0.7 -0.1,1.1 0.6,1.4 0.5,0.8 1,1.1 1,0.4 0.9,-0.2 0.4,-0.3 m -16.7,89.4 -0.7,0.6 -0.8,0.3 -1,-0.2 -0.2,-0.2 -0.7,-0.7 -0.2,-0.8 0.2,-0.9 0.1,-0.3 0.7,-0.6 0.8,-0.3 1,0.2 0.2,0.2 0.7,0.7 0.2,0.8 -0.3,1.2 -0.7,1.3 -1,1.2 -1,0.5 -0.9,-0.2 -0.5,-0.3 -0.7,-0.7 v -0.7 m 9.6,-0.9 -4.7,2.2 4,2.2 m 0.7,-4.4 -3.1,5.5 m 29.8,-12.9 0.6,0.7 0.3,0.8 -0.1,0.9 -0.2,0.3 -0.6,0.6 -0.9,0.3 -0.9,-0.1 -0.3,-0.2 -0.6,-0.6 -0.3,-0.8 0.1,-1 0.2,-0.2 0.7,-0.7 0.8,-0.3 1.2,0.3 1.3,0.7 1.2,0.9 0.5,1 -0.1,0.9 -0.3,0.5 -0.6,0.7 H 962 m -2.4,-7.2 1.5,-2.9 1.3,2.6 0.4,-0.8 0.5,-0.4 0.4,-0.1 1,0.1 0.5,0.3 0.7,0.7 0.3,0.8 -0.2,0.9 -0.4,0.8 -0.7,0.7 -0.4,0.1 h -0.6 m -57,29.7 h 0.9 l 0.8,0.3 0.6,0.8 0.1,0.3 v 0.9 l -0.3,0.8 -0.7,0.6 -0.3,0.1 h -1 l -0.7,-0.3 -0.6,-0.7 -0.1,-0.3 -0.1,-1 0.4,-0.7 1,-0.8 1.4,-0.5 1.5,-0.3 1,0.3 0.6,0.7 0.2,0.6 0.1,0.9 -0.5,0.5 m -7.9,-5.4 5,1.3 -1.6,-4.2 m -3.4,2.9 5.9,-2.3 m 44.3,34.3 0.3,-0.9 0.5,-0.6 0.9,-0.4 h 0.3 l 0.9,0.3 0.7,0.5 0.3,0.9 v 0.3 l -0.2,0.9 -0.6,0.6 -0.9,0.4 h -0.3 l -0.9,-0.2 -0.6,-0.6 -0.4,-1.2 -0.1,-1.5 0.2,-1.5 0.6,-0.9 0.9,-0.4 h 0.6 l 0.9,0.2 0.3,0.6 m -5,5.7 -3.3,0.2 1.7,-2.5 -0.9,0.1 -0.6,-0.3 -0.4,-0.3 -0.3,-0.9 -0.1,-0.6 0.3,-0.9 0.6,-0.6 0.8,-0.4 h 0.9 l 1,0.2 0.3,0.3 0.3,0.6 m -95.1,61.4 -0.1,-1 0.3,-0.8 0.7,-0.6 0.3,-0.2 0.9,-0.1 0.8,0.3 0.6,0.7 0.2,0.3 0.1,0.9 -0.3,0.8 -0.7,0.7 -0.3,0.1 -0.9,0.1 -0.8,-0.3 -0.8,-0.9 -0.6,-1.4 -0.4,-1.5 0.2,-1 0.7,-0.7 0.5,-0.3 0.9,-0.1 0.6,0.5 m -5.3,8.4 2.7,-1.3 -0.8,-2.6 -0.2,0.4 -0.7,0.7 -0.8,0.4 -0.9,0.1 -0.8,-0.3 -0.7,-0.7 -0.2,-0.5 -0.1,-1 0.2,-0.8 0.7,-0.6 0.8,-0.4 1,-0.1 0.4,0.1 0.5,0.4 m 13.3,47.6 h 0.7 l 1.2,-0.3 -3.1,5.5 m 6.6,-1.4 -0.7,0.7 -0.8,0.2 -1,-0.2 -0.2,-0.1 -0.7,-0.7 -0.2,-0.9 0.2,-0.9 0.1,-0.3 0.7,-0.6 0.9,-0.2 0.9,0.2 0.2,0.1 0.7,0.7 0.2,0.8 -0.3,1.2 -0.7,1.3 -1,1.2 -1,0.5 -0.9,-0.2 -0.6,-0.3 -0.6,-0.7 V 624 m 41.1,-27.6 0.5,0.8 v 0.8 l -0.4,0.9 -0.2,0.2 -0.8,0.5 h -0.8 l -0.9,-0.4 -0.2,-0.2 -0.5,-0.8 v -0.8 l 0.3,-0.9 0.3,-0.2 0.8,-0.5 h 0.8 l 1.1,0.6 1.1,1 0.9,1.2 0.3,1 -0.4,0.9 -0.4,0.5 -0.8,0.4 -0.7,-0.2 m 0.7,-6.5 -0.2,-0.2 -0.3,-0.6 v -0.4 l 0.2,-0.7 0.8,-0.9 0.6,-0.2 h 0.4 l 0.7,0.2 0.4,0.4 0.3,0.6 0.2,1 0.2,4.3 2.9,-3.1 m -86.5,36.7 -0.2,-0.2 -0.2,-0.7 v -0.4 l 0.2,-0.6 0.9,-0.9 0.6,-0.2 h 0.4 l 0.7,0.3 0.4,0.4 0.2,0.6 0.2,1.1 v 4.2 l 3,-2.9 m -2.7,-4.3 0.2,-0.6 v -1.3 l 4.4,4.5 m -30.4,45.5 -0.3,-0.1 -0.5,-0.5 -0.2,-0.4 -0.1,-0.6 0.4,-1.2 0.4,-0.5 0.4,-0.2 0.7,-0.1 0.5,0.2 0.5,0.5 0.7,0.8 2,3.7 1.2,-4 m -4.8,-5.9 3.1,4.1 1.3,-4.3 m -4.4,0.2 6,1.8 m -29.3,-38.5 0.6,-0.3 0.3,-0.9 v -0.6 l -0.3,-0.9 -0.9,-0.6 -1.5,-0.3 -1.5,-0.1 -1.2,0.3 -0.6,0.6 -0.3,0.9 v 0.3 l 0.3,0.9 0.6,0.6 0.9,0.3 h 0.3 l 0.9,-0.2 0.6,-0.6 0.3,-0.9 v -0.3 l -0.3,-0.9 -0.6,-0.6 -0.9,-0.4 m 200.2,-92.7 1,0.1 0.7,0.4 0.5,0.8 0.1,0.3 v 0.9 l -0.5,0.8 -0.7,0.5 -0.3,0.1 -1,-0.1 -0.7,-0.4 -0.5,-0.8 -0.1,-0.3 v -0.9 l 0.4,-0.7 1.1,-0.7 1.5,-0.4 1.5,-0.1 1,0.4 0.5,0.7 0.2,0.6 v 1 l -0.5,0.4 m -6.6,-6.8 -0.5,0.4 -0.1,1 0.2,0.6 0.5,0.8 1,0.3 1.6,-0.1 1.4,-0.4 1.1,-0.6 0.4,-0.8 0.1,-0.9 -0.1,-0.3 -0.6,-0.8 -0.7,-0.4 -0.9,-0.1 -0.3,0.1 -0.8,0.5 -0.4,0.8 -0.1,0.9 0.1,0.3 0.5,0.8 0.8,0.4 0.9,0.1 m -17.5,20.9 0.6,-0.3 0.7,-1.1 0.9,6.3 m 3.9,-6.3 -0.3,-0.5 -1,-0.2 -0.6,0.1 -0.8,0.4 -0.5,1 -0.1,1.5 0.2,1.5 0.5,1.2 0.7,0.5 0.9,0.1 h 0.3 l 0.9,-0.4 0.5,-0.7 0.1,-0.9 v -0.3 l -0.4,-0.9 -0.7,-0.5 -0.9,-0.2 -0.3,0.1 -0.9,0.4 -0.5,0.7 -0.2,0.9 m 36.6,-194.7 3.4,-3.9 -4.5,-0.5 m 1.1,4.4 0.6,-6.3 m -7.3,5.5 3.6,-6 m 0.6,6.4 -4.2,-0.4 m 28.3,33.3 -0.3,-0.1 -0.5,-0.3 -0.3,-0.4 -0.2,-0.6 0.2,-1.2 0.4,-0.6 0.3,-0.2 0.6,-0.2 0.6,0.1 0.6,0.3 0.8,0.8 2.6,3.3 0.5,-4.1 m -5.8,-3.5 0.1,0.9 0.6,0.4 0.6,0.1 0.6,-0.2 0.4,-0.6 0.5,-1.1 0.4,-0.9 0.7,-0.5 0.6,-0.2 0.9,0.1 0.5,0.4 0.3,0.3 0.2,1 -0.2,1.2 -0.4,0.8 -0.4,0.3 -0.6,0.2 -0.9,-0.2 -0.5,-0.3 -0.6,-0.7 -0.1,-0.9 -0.2,-1.3 -0.2,-0.6 -0.5,-0.4 -0.6,-0.1 -0.7,0.2 -0.4,0.9 -0.2,1.3 m -24,34.4 -0.2,0.9 -0.4,0.7 -0.9,0.4 -0.3,0.1 -0.9,-0.2 -0.7,-0.5 -0.4,-0.8 -0.1,-0.3 0.2,-0.9 0.4,-0.7 0.9,-0.5 h 0.3 l 0.9,0.1 0.7,0.5 0.5,1.2 0.2,1.5 v 1.5 l -0.5,1 -0.8,0.4 -0.6,0.1 -0.9,-0.1 -0.4,-0.6 m 7.5,-5.8 -0.4,-0.5 -0.9,-0.2 -0.6,0.1 -0.9,0.5 -0.4,0.9 -0.1,1.6 0.3,1.5 0.5,1.1 0.7,0.5 0.9,0.1 h 0.3 l 0.8,-0.5 0.5,-0.6 0.2,-1 -0.1,-0.3 -0.4,-0.8 -0.7,-0.5 -0.9,-0.2 -0.3,0.1 -0.9,0.4 -0.5,0.7 -0.1,1 m -167.9,-40 0.1,0.7 0.4,1.2 -5.7,-2.6 m 4.2,3.1 v 0.7 l 0.4,1.1 -5.7,-2.6 m 3.2,6.7 h 0.6 l 0.7,-0.7 0.2,-0.6 0.1,-0.9 -0.6,-0.9 -1.2,-0.9 -1.4,-0.7 -1.2,-0.2 -0.8,0.3 -0.6,0.7 -0.1,0.3 -0.1,0.9 0.3,0.8 0.7,0.7 0.2,0.1 1,0.1 0.8,-0.3 0.6,-0.7 0.1,-0.3 0.1,-0.9 -0.3,-0.8 -0.7,-0.7 m 5.1,24.8 0.6,0.2 1.3,0.1 -4.7,4.2 m 4.5,-2.6 0.7,0.3 h 1.2 l -4.6,4.2 m 8,-0.8 -2.1,-2.2 -2.2,1.6 h 0.5 l 0.8,0.4 0.6,0.7 0.4,0.9 -0.1,0.8 -0.4,0.8 -0.5,0.5 -0.8,0.3 h -0.9 l -0.8,-0.5 -0.6,-0.6 -0.4,-0.9 v -0.4 l 0.3,-0.7 m -2.1,-114.2 0.5,0.4 h 1 l 0.5,-0.3 0.8,-0.6 0.2,-1 -0.3,-1.5 -0.6,-1.4 -0.8,-1 -0.8,-0.3 h -0.9 l -0.3,0.1 -0.7,0.7 -0.3,0.8 0.1,0.9 0.1,0.3 0.6,0.7 0.8,0.3 0.9,-0.1 0.3,-0.1 0.7,-0.6 0.3,-0.8 v -0.9 m -3.6,6 -3,1.3 0.7,-2.9 -0.8,0.3 h -0.7 l -0.4,-0.2 -0.6,-0.7 -0.3,-0.5 v -1 l 0.3,-0.8 0.7,-0.6 0.8,-0.3 1,-0.1 0.4,0.2 0.5,0.4 m -15.5,50.9 h 0.6 l 1.2,-0.5 -2.4,5.8 m 3.4,-3.9 0.2,-0.3 0.5,-0.5 0.4,-0.1 0.6,-0.1 1.1,0.5 0.5,0.5 0.1,0.4 0.1,0.7 -0.3,0.5 -0.5,0.5 -0.9,0.6 -3.9,1.6 3.9,1.6 m 5.1,-4.7 h -0.9 l -0.9,0.6 -0.9,1.2 -0.3,0.9 -0.3,1.4 0.2,1.1 0.7,0.6 0.5,0.3 h 1 l 0.9,-0.6 0.9,-1.2 0.3,-0.8 0.3,-1.5 -0.2,-1.1 -0.7,-0.6 -0.4,-0.2 m -26.4,-27.3 -0.1,0.6 0.2,1.3 -5.2,-3.5 m 3.6,3.7 v 0.7 l 0.2,1.2 -5.2,-3.4 m 3.9,5.8 0.3,-1 -0.3,-0.5 -0.6,-0.4 h -0.6 l -0.6,0.3 -0.9,0.8 -0.8,0.6 -0.8,0.2 -0.6,-0.1 -0.8,-0.5 -0.3,-0.6 -0.1,-0.4 0.2,-0.9 0.7,-1 0.7,-0.6 0.4,-0.1 0.7,0.1 0.8,0.5 0.3,0.6 0.2,0.8 -0.3,0.9 -0.4,1.2 -0.1,0.7 0.4,0.5 0.5,0.4 h 0.6 l 0.8,-0.5 0.7,-1.2 m -8.3,8.6 0.7,-0.1 1.1,-0.6 -1.9,6 m 2.6,-4.5 0.6,-0.1 1.2,-0.6 -2,6 m 6.2,-2.6 -0.6,0.8 -0.7,0.3 h -1 l -0.3,-0.1 -0.7,-0.5 -0.4,-0.8 v -0.9 l 0.1,-0.3 0.5,-0.8 0.8,-0.4 h 1 l 0.2,0.1 0.8,0.6 0.4,0.8 -0.1,1.2 -0.5,1.4 -0.7,1.3 -0.9,0.7 h -0.9 l -0.6,-0.2 -0.8,-0.5 -0.1,-0.7 m -50.9,-97.3 0.2,-0.7 -0.1,-1.3 4.6,4.3 m -2.5,-4.6 -0.2,-0.2 -0.3,-0.6 V 247 l 0.2,-0.6 0.8,-0.9 0.7,-0.2 h 0.4 l 0.6,0.2 0.5,0.4 0.2,0.6 0.3,1 0.1,4.3 2.9,-3.1 m -2.9,-4.1 0.2,-0.6 v -1.3 l 4.6,4.3 m -52.3,25.4 0.4,-0.5 0.5,-1.2 2.6,5.8 m 0,-7.2 -0.7,0.7 -0.2,1 0.4,1.5 0.3,0.8 0.9,1.3 0.9,0.6 1,-0.1 0.5,-0.3 0.7,-0.6 0.2,-1.1 -0.3,-1.5 -0.4,-0.8 -0.9,-1.2 -0.9,-0.6 -1,0.1 -0.4,0.2 m 3.7,-1.7 3,-1.3 -0.7,2.9 0.8,-0.4 0.7,0.1 0.4,0.1 0.7,0.7 0.2,0.6 0.1,0.9 -0.3,0.8 -0.7,0.6 -0.8,0.4 -1,0.1 -0.4,-0.1 -0.5,-0.5 m -23.9,-59.9 -0.6,0.3 -0.9,1 -0.1,-6.3 m -2.8,6.5 0.9,-0.3 0.5,-0.9 0.3,-1.5 v -0.9 l -0.3,-1.5 -0.7,-0.9 -0.9,-0.3 H 681 l -0.9,0.4 -0.5,0.9 -0.3,1.5 v 0.9 l 0.3,1.5 0.7,0.9 0.9,0.2 h 0.4 m -6.5,0.2 2.9,-4.2 -4.5,0.1 m 1.6,4.1 -0.2,-6.3 m -35.7,18.5 -0.3,0.6 -0.2,1.3 -3.8,-5 m 1.6,7 0.5,-0.8 v -1.1 l -0.7,-1.4 -0.5,-0.7 -1.2,-1 -1,-0.4 -0.9,0.4 -0.5,0.3 -0.5,0.8 v 1.1 l 0.7,1.4 0.6,0.7 1.1,1 1,0.3 0.9,-0.3 0.4,-0.3 m -3.5,0.9 -0.3,0.6 -0.2,1.3 -3.8,-5 m -20.5,29.8 0.3,0.1 0.4,0.5 0.2,0.3 0.2,0.7 -0.4,1.2 -0.5,0.4 -0.3,0.2 -0.7,0.1 -0.6,-0.1 -0.5,-0.5 -0.6,-0.8 -2,-3.8 -1.3,4 m 4.7,6.4 0.8,-2.9 -2.4,-1 0.2,0.3 v 1 l -0.3,0.8 -0.5,0.8 -0.8,0.4 h -0.9 l -0.6,-0.1 -0.8,-0.6 -0.4,-0.7 v -1 l 0.3,-0.9 0.5,-0.7 0.4,-0.2 0.6,-0.1 m -0.3,38.9 -0.9,-0.2 -0.7,-0.6 -0.3,-0.9 v -0.3 l 0.2,-0.9 0.5,-0.6 0.9,-0.4 h 0.3 l 0.9,0.2 0.7,0.6 0.3,0.9 0.1,0.3 -0.3,0.9 -0.5,0.6 -1.2,0.4 -1.5,0.1 -1.5,-0.2 -1,-0.5 -0.3,-0.9 -0.1,-0.6 0.3,-0.9 0.5,-0.3 m 4,8.3 -0.9,-0.2 -0.7,-0.6 -0.4,-0.8 v -0.3 l 0.3,-0.9 0.5,-0.7 0.9,-0.4 h 0.3 l 0.9,0.3 0.6,0.5 0.4,0.9 v 0.3 l -0.2,0.9 -0.6,0.7 -1.1,0.3 -1.5,0.1 -1.5,-0.1 -1,-0.6 -0.3,-0.8 -0.1,-0.6 0.2,-1 0.6,-0.3 m 4,73.3 3.2,-0.8 -1.1,2.7 0.9,-0.2 0.6,0.1 0.4,0.3 0.5,0.7 0.2,0.6 -0.1,1 -0.4,0.7 -0.8,0.5 -0.9,0.3 -0.9,-0.1 -0.4,-0.2 -0.4,-0.5 m 4.7,-5 -0.1,-0.3 0.2,-0.6 0.2,-0.4 0.5,-0.5 1.1,-0.3 0.7,0.2 0.4,0.2 0.4,0.5 0.2,0.6 -0.2,0.6 -0.3,1 -2.1,3.7 4,-1.1 m 85.4,-21.6 0.6,-0.2 1.1,-0.8 -1.1,6.3 m 4,-6 -0.9,0.2 -0.8,0.8 -0.5,1.4 -0.2,0.9 0.1,1.5 0.4,1 0.8,0.5 0.6,0.1 1,-0.2 0.7,-0.8 0.6,-1.4 0.1,-0.9 v -1.5 l -0.5,-1 -0.8,-0.5 h -0.4 m 5.1,0.8 -1,0.2 -0.7,0.8 -0.6,1.4 -0.1,0.9 v 1.5 l 0.5,1 0.8,0.5 0.6,0.1 0.9,-0.2 0.8,-0.8 0.5,-1.4 0.2,-0.9 -0.1,-1.5 -0.4,-1 -0.8,-0.4 -0.5,-0.1 m 12,1.3 0.3,-0.6 0.3,-1.3 3.6,5.2 m -1.3,-7 -0.6,0.7 v 1.1 l 0.6,1.4 0.5,0.8 1.2,1 1,0.4 0.9,-0.3 0.5,-0.3 0.5,-0.8 v -1 l -0.6,-1.4 -0.5,-0.8 -1.1,-1 -1,-0.4 -0.9,0.2 -0.4,0.3 m 4,-1 -0.1,-0.3 -0.1,-0.6 0.1,-0.4 0.3,-0.6 1,-0.7 0.6,-0.1 0.4,0.1 0.6,0.3 0.4,0.5 0.1,0.6 v 1.1 l -0.7,4.2 3.4,-2.4 m -14.3,-63 -0.5,0.3 -0.8,1 -0.6,-6.3 m -2.4,6.8 0.9,-0.4 0.5,-0.9 0.2,-1.6 -0.1,-0.9 -0.4,-1.4 -0.7,-0.9 -1,-0.2 -0.6,0.1 -0.8,0.4 -0.5,0.9 -0.2,1.5 0.1,0.9 0.4,1.5 0.7,0.8 1,0.3 0.4,-0.1 m -4,0.4 -3.3,0.3 1.6,-2.5 h -0.9 l -0.6,-0.2 -0.3,-0.3 -0.4,-0.8 -0.1,-0.6 0.2,-1 0.6,-0.6 0.8,-0.4 0.9,-0.1 1,0.2 0.3,0.3 0.3,0.6 m 34.6,12.7 1,2.9 2.6,-0.6 -0.4,-0.2 -0.5,-0.8 -0.3,-0.8 v -1 l 0.3,-0.7 0.8,-0.6 0.5,-0.2 h 1 l 0.7,0.3 0.6,0.8 0.3,0.8 v 1 l -0.1,0.4 -0.5,0.4 m -5.2,-3.7 -0.5,-0.5 -1.2,-0.5 6,-2.1 m -9.7,34.2 -1.2,2.8 2.3,1.3 -0.1,-0.4 0.1,-0.9 0.3,-0.8 0.7,-0.7 0.8,-0.3 0.9,0.1 0.6,0.2 0.7,0.7 0.3,0.8 -0.1,0.9 -0.4,0.8 -0.6,0.7 -0.4,0.2 h -0.7 m -0.9,-6.8 -0.3,-0.1 -0.4,-0.6 -0.1,-0.4 -0.1,-0.6 0.5,-1.1 0.5,-0.5 0.4,-0.1 h 0.7 l 0.6,0.2 0.4,0.5 0.6,0.9 1.5,4 1.7,-3.8 m 71.9,-106.9 -0.3,-0.6 -0.9,-0.9 h 6.3 m -5,-1.6 h -0.3 l -0.6,-0.3 -0.3,-0.3 -0.3,-0.6 v -1.2 l 0.3,-0.6 0.3,-0.3 0.6,-0.3 h 0.6 l 0.6,0.3 0.9,0.6 3,3 v -4.2 m -6.3,-5.2 6.3,3 m -6.3,1.2 v -4.2 m -78.4,-12.2 0.7,-0.6 0.1,-0.7 -0.3,-0.5 -0.5,-0.4 -0.6,-0.1 -1.3,0.2 -0.9,0.1 -0.8,-0.3 -0.5,-0.4 -0.4,-0.9 0.1,-0.6 0.1,-0.4 0.7,-0.7 1.1,-0.4 1,-0.1 0.4,0.1 0.5,0.5 0.3,0.8 v 0.7 l -0.3,0.8 -0.7,0.6 -1,0.7 -0.4,0.6 -0.1,0.6 0.3,0.6 0.5,0.4 0.9,-0.1 1.3,-0.5 m -4.2,0.2 -0.4,0.6 -0.5,1.1 -2.5,-5.7 m 92.8,-26.1 0.1,0.9 0.5,0.5 0.5,0.2 0.7,-0.2 0.4,-0.5 0.7,-1 0.5,-0.8 0.7,-0.4 0.7,-0.1 0.9,0.2 0.5,0.5 0.2,0.3 v 1 l -0.3,1.1 -0.6,0.8 -0.3,0.2 -0.7,0.1 -0.9,-0.2 -0.5,-0.5 -0.4,-0.7 v -0.9 -1.3 l -0.1,-0.6 -0.5,-0.5 -0.6,-0.2 -0.6,0.2 -0.5,0.7 -0.4,1.3 m 1.2,-4.4 1,-3.1 1.8,2.4 0.2,-0.9 0.5,-0.5 0.3,-0.2 h 1 l 0.6,0.1 0.8,0.6 0.4,0.7 v 0.9 l -0.2,0.9 -0.6,0.8 -0.4,0.2 -0.6,0.1 m -2.1,-46.9 0.4,0.8 0.7,0.2 0.6,-0.2 0.5,-0.4 0.2,-0.6 v -1.3 l 0.2,-0.9 0.4,-0.7 0.6,-0.4 0.8,-0.2 0.7,0.2 0.3,0.2 0.5,0.8 0.3,1.2 -0.2,1 -0.2,0.3 -0.5,0.4 -0.9,0.2 -0.7,-0.2 -0.7,-0.4 -0.4,-0.9 -0.6,-1.1 -0.4,-0.5 -0.6,-0.2 -0.6,0.1 -0.5,0.4 -0.2,1 0.3,1.3 m -1.1,-5.7 0.4,0.8 1,0.5 h 1.6 l 0.8,-0.2 1.5,-0.6 0.7,-0.8 0.1,-0.9 -0.1,-0.6 -0.5,-0.8 -1,-0.4 h -1.5 l -0.9,0.1 -1.4,0.6 -0.7,0.8 -0.2,0.9 0.1,0.5 m -88.3,57.2 -0.9,0.3 -0.3,0.6 v 0.6 l 0.4,0.6 0.6,0.3 1.2,0.3 0.9,0.3 0.6,0.6 0.3,0.6 v 0.9 l -0.3,0.6 -0.3,0.3 -0.9,0.3 h -1.2 l -0.9,-0.3 -0.3,-0.3 -0.3,-0.6 v -0.9 l 0.3,-0.6 0.6,-0.6 0.9,-0.3 1.2,-0.3 0.6,-0.3 0.2,-0.6 v -0.6 l -0.3,-0.6 -0.9,-0.3 H 742 m 4.5,1.5 v -0.3 l 0.3,-0.6 0.3,-0.3 0.6,-0.4 h 1.2 l 0.6,0.3 0.3,0.3 0.3,0.6 v 0.6 l -0.3,0.6 -0.6,0.9 -2.9,3.1 4.2,-0.1 m -60.7,-5.1 -0.9,0.3 -0.3,0.6 v 0.6 l 0.4,0.6 0.6,0.3 1.2,0.3 0.9,0.3 0.6,0.5 0.3,0.6 v 0.9 l -0.3,0.6 -0.2,0.4 -0.9,0.3 H 690 l -0.9,-0.3 -0.3,-0.3 -0.4,-0.6 v -0.9 l 0.3,-0.6 0.6,-0.6 0.9,-0.3 1.2,-0.3 0.6,-0.3 0.2,-0.7 v -0.6 l -0.3,-0.5 -0.9,-0.3 h -1.3 m 8,-0.2 -2.8,6.4 m -1.4,-6.3 4.2,-0.1 m 14.9,-63.6 6.8,-1.6 m -4.2,4.8 -2.6,-3.2 m -2.9,-3.8 1.9,2.4 2.3,-1.4 -0.5,-0.1 -0.8,-0.5 -0.5,-0.7 -0.3,-0.9 0.1,-0.9 0.5,-0.8 0.5,-0.3 0.8,-0.3 0.9,0.1 0.8,0.5 0.5,0.7 0.4,0.9 -0.1,0.4 -0.3,0.6 m -9.9,0.4 -5.6,-4.1 m 6.4,0 -0.8,4.1 m -0.3,1.7 -0.6,3.3 -2,-2.2 -0.2,0.9 -0.4,0.5 -0.4,0.2 -0.9,0.2 -0.6,-0.2 -0.8,-0.4 -0.5,-0.7 -0.1,-1 0.1,-0.8 0.5,-0.9 0.3,-0.2 0.7,-0.2 m -38.5,8.6 6.2,-3.2 m -2.9,5.7 -3.3,-2.5 m -3.5,-2.6 4.9,-1.5 -3.5,-2.7 m -1.4,4.2 3.8,-5 m 161.3,-41 0.4,0.9 0.6,0.3 0.6,-0.1 0.6,-0.3 0.2,-0.6 0.3,-1.2 0.2,-0.9 0.6,-0.7 0.6,-0.3 0.9,-0.1 0.6,0.3 0.3,0.3 0.3,0.9 0.1,1.2 -0.2,0.9 -0.3,0.3 -0.6,0.3 -0.9,0.1 -0.6,-0.3 -0.6,-0.5 -0.4,-0.9 -0.4,-1.2 -0.3,-0.6 -0.6,-0.3 -0.6,0.1 -0.6,0.3 -0.2,0.9 v 1.4 m -0.3,-5.5 0.4,0.9 0.6,0.2 h 0.6 l 0.6,-0.3 0.2,-0.7 0.3,-1.2 0.2,-0.9 0.6,-0.6 0.5,-0.4 h 0.9 l 0.7,0.3 0.3,0.2 0.3,0.9 0.1,1.2 -0.2,0.9 -0.3,0.4 -0.6,0.3 h -0.9 l -0.6,-0.2 -0.7,-0.6 -0.3,-0.9 -0.4,-1.1 -0.3,-0.6 -0.6,-0.3 h -0.6 l -0.6,0.4 -0.3,0.9 0.1,1.3 m -32.7,22.3 0.5,-0.8 -0.2,-0.6 -0.4,-0.5 -0.6,-0.2 -0.7,0.2 -1.1,0.6 -0.8,0.4 h -0.9 l -0.6,-0.3 -0.6,-0.6 -0.2,-0.7 v -0.4 l 0.5,-0.8 0.8,-0.9 0.9,-0.3 h 0.4 l 0.6,0.2 0.7,0.7 0.2,0.6 -0.1,0.8 -0.4,0.9 -0.7,1 -0.2,0.6 0.2,0.7 0.4,0.4 0.6,0.3 0.9,-0.4 0.9,-1 m -7.2,3.9 -0.4,-0.9 0.1,-0.8 0.4,-0.8 0.2,-0.2 0.9,-0.4 h 0.9 l 0.8,0.4 0.2,0.3 0.4,0.8 v 0.9 l -0.5,0.8 -0.2,0.2 -0.9,0.4 h -0.8 l -1.1,-0.7 -1,-1.1 -0.8,-1.3 -0.2,-1.1 0.5,-0.8 0.4,-0.4 0.9,-0.4 0.6,0.2 m 157.6,75.1 h 0.7 l 1.2,-0.4 -2.7,5.7 m 3.7,-3.8 0.1,-0.3 0.5,-0.4 0.4,-0.2 h 0.7 l 1.1,0.5 0.4,0.5 0.1,0.4 v 0.7 l -0.2,0.6 -0.5,0.4 -1,0.5 -3.9,1.5 3.8,1.8 m 6.3,-1.7 -0.6,0.7 -0.8,0.3 -1,-0.1 -0.3,-0.2 -0.6,-0.6 -0.3,-0.8 0.1,-1 0.1,-0.2 0.7,-0.7 0.8,-0.3 0.9,0.1 0.3,0.1 0.7,0.7 0.2,0.8 -0.2,1.2 -0.6,1.4 -0.9,1.2 -1,0.5 -0.9,-0.1 -0.5,-0.2 -0.7,-0.7 v -0.6 m -26,-38 0.5,0.5 1.1,0.6 -6.1,1.7 m 5.3,0.3 0.3,-0.1 0.6,0.1 0.4,0.2 0.5,0.5 0.3,1.2 -0.1,0.6 -0.3,0.4 -0.4,0.5 -0.6,0.1 -0.7,-0.1 -1,-0.3 -3.7,-2.1 1.1,4 m 6.5,3.1 0.5,-0.4 0.1,-1 -0.2,-0.5 -0.5,-0.8 -1.1,-0.3 -1.5,0.1 -1.4,0.4 -1.1,0.6 -0.4,0.7 -0.1,1 0.1,0.3 0.5,0.8 0.8,0.4 h 0.9 l 0.3,-0.1 0.8,-0.5 0.4,-0.7 0.1,-1 -0.1,-0.3 -0.6,-0.8 -0.7,-0.4 h -0.9 m 87,-6.1 0.4,0.9 0.6,0.2 h 0.6 l 0.6,-0.4 0.2,-0.6 0.2,-1.2 0.3,-0.9 0.5,-0.7 0.6,-0.3 0.9,-0.1 0.6,0.3 0.3,0.3 0.4,0.8 0.1,1.2 -0.2,0.9 -0.3,0.4 -0.6,0.3 -0.9,0.1 -0.6,-0.3 -0.7,-0.5 -0.3,-0.9 -0.4,-1.2 -0.4,-0.6 -0.6,-0.2 h -0.6 l -0.5,0.4 -0.3,0.9 0.1,1.3 m -0.5,-7.5 0.2,3 2.7,0.1 -0.3,-0.3 -0.4,-0.9 -0.1,-0.9 0.3,-0.9 0.5,-0.6 0.9,-0.4 h 0.6 l 0.9,0.2 0.7,0.5 0.3,0.9 0.1,0.9 -0.2,0.9 -0.3,0.3 -0.6,0.4 M 931,97 l -0.2,0.7 0.2,1.2 -5,-3.8 m 4.1,5.3 -2,2.7 -0.8,-2.9 -0.5,0.7 -0.6,0.3 -0.5,0.1 -0.9,-0.4 -0.4,-0.3 -0.6,-0.8 -0.1,-0.8 0.3,-0.9 0.6,-0.8 0.7,-0.5 h 0.5 l 0.6,0.1 m 0.5,7.8 -2,2.6 -0.8,-2.9 -0.6,0.7 -0.6,0.3 -0.4,0.1 -0.9,-0.3 -0.5,-0.4 -0.5,-0.7 -0.1,-0.9 0.3,-0.9 0.5,-0.7 0.8,-0.5 0.4,-0.1 0.7,0.1 m 90.3,-14.2 -0.2,0.9 0.5,0.5 0.5,0.3 h 0.7 l 0.5,-0.4 0.8,-1 0.6,-0.7 0.8,-0.3 h 0.7 l 0.8,0.4 0.4,0.5 0.2,0.4 -0.1,1 -0.5,1.1 -0.7,0.6 -0.4,0.2 h -0.7 l -0.8,-0.4 -0.4,-0.5 -0.3,-0.8 0.1,-0.9 0.3,-1.3 v -0.6 l -0.5,-0.6 -0.5,-0.2 h -0.7 l -0.6,0.7 -0.6,1.2 m 4,-6.5 h -0.6 l -0.7,0.7 -0.2,0.6 -0.1,0.9 0.5,0.9 1.2,0.9 1.4,0.7 1.2,0.2 0.8,-0.3 0.7,-0.7 0.1,-0.2 0.1,-1 -0.3,-0.8 -0.7,-0.6 -0.2,-0.1 -1,-0.2 -0.8,0.3 -0.6,0.7 -0.2,0.3 -0.1,0.9 0.3,0.8 0.7,0.7 m -3.7,-29.5 1,-0.1 0.8,0.2 0.7,0.7 0.1,0.2 0.2,1 -0.3,0.8 -0.7,0.7 -0.2,0.1 -1,0.2 -0.8,-0.3 -0.7,-0.7 -0.1,-0.2 -0.1,-1 0.2,-0.8 0.9,-0.8 1.4,-0.7 1.5,-0.4 1,0.1 0.7,0.7 0.3,0.5 0.1,1 -0.4,0.5 m -7.8,-3.4 0.7,0.7 1.1,0.1 1.5,-0.4 0.8,-0.4 1.2,-1 0.5,-0.9 -0.2,-0.9 -0.2,-0.6 -0.7,-0.6 -1.1,-0.2 -1.5,0.5 -0.8,0.4 -1.2,0.9 -0.5,1 0.2,0.9 0.2,0.4 m -35.6,-11.7 -0.6,0.3 -0.8,1 -0.5,-6.3 m -1.2,6.6 -3.3,0.3 1.6,-2.5 h -0.9 l -0.6,-0.2 -0.3,-0.3 -0.4,-0.9 -0.1,-0.6 0.3,-0.9 0.5,-0.6 0.9,-0.4 0.9,-0.1 0.9,0.2 0.3,0.3 0.4,0.6 m -8.1,5.8 2.7,-4.4 -4.5,0.3 m 1.8,4.1 -0.5,-6.3 m -150,522.4 -0.5,-0.3 -1.3,-0.2 5.2,-3.6 m -6.4,2.3 -1.8,-2.7 3,0.1 -0.5,-0.8 -0.1,-0.6 v -0.4 l 0.6,-0.8 0.5,-0.3 0.9,-0.3 0.9,0.2 0.7,0.5 0.5,0.8 0.3,0.9 -0.1,0.4 -0.3,0.6 m -8.5,-5 -0.4,0.6 0.3,0.9 0.3,0.5 0.8,0.6 1.1,-0.1 1.4,-0.6 1.2,-0.8 0.8,-0.9 0.2,-0.9 -0.3,-0.9 -0.1,-0.2 -0.8,-0.6 -0.8,-0.2 -1,0.3 -0.2,0.2 -0.6,0.7 -0.1,0.9 0.2,0.9 0.2,0.2 0.8,0.6 0.8,0.1 0.9,-0.2 m -229.9,-205.1 -0.2,0.6 -0.2,1.3 -3.9,-5 m 2.7,6.2 -2.7,2 v -3 l -0.7,0.5 -0.7,0.2 -0.4,-0.1 -0.8,-0.5 -0.3,-0.5 -0.4,-0.9 0.1,-0.8 0.6,-0.8 0.7,-0.6 0.9,-0.3 0.4,0.1 0.6,0.3 m -4.5,8.8 0.6,0.3 0.9,-0.3 0.5,-0.4 0.5,-0.8 -0.1,-1.1 -0.7,-1.4 -0.9,-1.1 -0.9,-0.8 -0.9,-0.1 -0.9,0.3 -0.2,0.2 -0.5,0.8 -0.2,0.8 0.4,0.9 0.1,0.2 0.8,0.6 0.9,0.1 0.9,-0.3 0.2,-0.2 0.5,-0.8 0.1,-0.8 -0.3,-0.9 m -7.1,22.1 -0.8,0.5 -0.9,0.1 -0.9,-0.3 -0.2,-0.1 -0.5,-0.8 -0.2,-0.9 0.4,-0.9 0.1,-0.2 0.8,-0.5 0.9,-0.2 0.9,0.3 0.2,0.2 0.5,0.8 0.1,0.8 -0.4,1.2 -0.9,1.2 -1.2,1 -1,0.4 -0.9,-0.4 -0.5,-0.3 -0.5,-0.8 0.1,-0.7 m 9.9,0.8 -2.4,-1.8 -1.9,1.9 h 0.5 l 0.9,0.3 0.7,0.5 0.5,0.8 0.1,0.8 -0.3,0.9 -0.3,0.5 -0.8,0.6 -0.9,0.1 -0.9,-0.3 -0.7,-0.6 -0.5,-0.8 -0.1,-0.4 0.2,-0.6 m 224.3,166.6 -0.2,0.6 v 1.3 l -4.3,-4.6 m 3.1,5.9 -2.4,2.3 -0.3,-3 -0.7,0.6 -0.6,0.2 h -0.4 l -0.9,-0.4 -0.4,-0.5 -0.4,-0.8 0.1,-0.9 0.4,-0.8 0.7,-0.6 0.8,-0.4 h 0.5 l 0.6,0.2 m -1.5,8.4 0.4,-0.8 -0.2,-0.7 -0.4,-0.4 -0.6,-0.2 -0.6,0.2 -1.1,0.6 -0.9,0.4 -0.8,-0.1 -0.7,-0.2 -0.6,-0.7 -0.2,-0.6 v -0.4 l 0.5,-0.9 0.9,-0.8 0.8,-0.4 h 0.5 l 0.6,0.3 0.6,0.6 0.2,0.7 v 0.8 l -0.5,0.8 -0.7,1.1 -0.2,0.6 0.2,0.7 0.4,0.4 0.6,0.2 0.9,-0.4 1,-0.9 m -6.5,31.2 0.5,-0.5 v -0.9 l -0.2,-0.6 -0.5,-0.8 -1,-0.3 -1.6,0.1 -1.4,0.4 -1.1,0.7 -0.4,0.7 v 0.9 l 0.1,0.3 0.5,0.8 0.7,0.4 1,0.1 0.3,-0.1 0.8,-0.6 0.4,-0.7 v -1 l -0.1,-0.2 -0.5,-0.8 -0.8,-0.4 -0.9,-0.1 m 8,114.5 -0.3,0.9 -0.6,0.5 -1,0.3 h -0.3 l -0.8,-0.3 -0.6,-0.6 -0.3,-0.9 V 692 l 0.3,-0.9 0.6,-0.6 0.9,-0.3 h 0.3 l 0.9,0.3 0.6,0.7 0.3,1.2 v 1.5 l -0.4,1.5 -0.6,0.8 -0.9,0.3 h -0.6 l -0.9,-0.3 -0.3,-0.6 m 8.7,-3.1 -0.3,0.9 -0.6,0.6 -0.9,0.2 h -0.3 l -0.9,-0.3 -0.6,-0.6 -0.3,-0.9 v -0.3 l 0.4,-0.9 0.6,-0.6 0.9,-0.3 h 0.3 l 0.9,0.4 0.6,0.6 0.2,1.2 v 1.5 l -0.3,1.5 -0.7,0.9 -0.9,0.2 h -0.6 l -0.9,-0.3 -0.2,-0.6 m -6.6,-22.5 v 0.6 l 0.5,1.2 -5.8,-2.5 m 5.3,4.2 -1.4,3 -1.4,-2.6 -0.4,0.8 -0.5,0.4 -0.4,0.2 -1,-0.1 -0.5,-0.2 -0.7,-0.7 -0.3,-0.8 0.1,-0.9 0.3,-0.8 0.7,-0.7 0.4,-0.2 h 0.6 m 1.9,8.3 0.1,-0.9 -0.4,-0.6 -0.6,-0.2 h -0.6 l -0.5,0.5 -0.8,0.9 -0.6,0.7 -0.8,0.3 -0.7,0.1 -0.8,-0.4 -0.5,-0.5 -0.1,-0.4 0.1,-0.9 0.5,-1.1 0.6,-0.7 0.4,-0.2 h 0.7 l 0.8,0.3 0.4,0.6 0.3,0.7 -0.1,1 -0.2,1.2 0.1,0.7 0.4,0.5 0.5,0.2 h 0.7 l 0.6,-0.7 0.6,-1.2 m -107.3,-305.2 0.2,-0.6 -0.1,-1.3 4.7,4.1 m -3.8,-5.6 2.2,-2.5 0.6,3 0.6,-0.7 0.7,-0.3 h 0.4 l 0.9,0.4 0.4,0.4 0.5,0.8 v 0.8 l -0.3,0.9 -0.6,0.7 -0.8,0.5 h -0.4 l -0.7,-0.2 m 3.8,-8.9 0.5,0.8 v 0.8 l -0.3,0.9 -0.2,0.2 -0.8,0.5 -0.9,0.1 -0.9,-0.4 -0.2,-0.2 -0.5,-0.8 v -0.8 l 0.3,-0.9 0.2,-0.2 0.9,-0.5 0.8,-0.1 1.1,0.6 1.1,1 1,1.2 0.3,1 -0.4,0.9 -0.4,0.4 -0.8,0.5 -0.7,-0.1 m -33.8,33.2 -0.5,3.2 -2.1,-2.1 -0.2,0.9 -0.4,0.5 -0.3,0.2 -0.9,0.2 -0.6,-0.1 -0.9,-0.5 -0.5,-0.7 -0.1,-0.9 0.2,-0.9 0.4,-0.8 0.3,-0.3 0.7,-0.2 m 3.6,9.3 -3.6,-3.7 -0.8,4.4 m 4.4,-0.7 -6.2,-1.1 m 27,2.4 -0.4,-0.6 -1,-0.7 6.2,-0.9 m -6.6,-0.8 -0.5,-3.3 2.6,1.5 -0.1,-0.9 0.2,-0.7 0.3,-0.3 0.8,-0.4 0.6,-0.1 1,0.2 0.6,0.5 0.5,0.8 0.1,0.9 -0.2,1 -0.3,0.3 -0.5,0.4 m -4.2,-8.8 0.9,0.2 0.7,0.5 0.4,0.9 v 0.3 l -0.1,0.9 -0.5,0.7 -0.9,0.4 H 661 l -0.9,-0.1 -0.7,-0.6 -0.4,-0.8 -0.1,-0.3 0.2,-0.9 0.5,-0.7 1.2,-0.5 1.5,-0.2 1.5,0.1 1,0.5 0.4,0.8 0.1,0.6 -0.2,1 -0.6,0.3 m -3.4,41.3 -0.2,-0.6 -0.8,-1 6.3,0.6 m -6.3,-3.6 0.3,1 0.8,0.6 1.5,0.5 0.9,0.1 1.5,-0.2 0.9,-0.5 0.4,-0.9 0.1,-0.6 -0.2,-0.9 -0.9,-0.7 -1.4,-0.4 -0.9,-0.1 -1.6,0.1 -0.9,0.6 -0.4,0.8 v 0.5 m 0.4,-5.2 0.3,0.9 0.8,0.7 1.5,0.4 0.9,0.1 1.5,-0.1 0.9,-0.6 0.4,-0.8 0.1,-0.6 -0.2,-0.9 -0.9,-0.7 -1.5,-0.5 h -0.8 l -1.6,0.1 -0.9,0.5 -0.4,0.9 v 0.5 m -31.6,25.9 0.1,0.7 0.7,1.1 -6.1,-1.7 m 4.6,2.4 0.2,0.7 0.6,1.1 -6.1,-1.7 m 5,6.3 0.8,-2.9 -2.5,-1 0.2,0.4 0.1,0.9 -0.3,0.9 -0.5,0.8 -0.7,0.4 h -1 l -0.6,-0.1 -0.7,-0.6 -0.5,-0.7 v -0.9 l 0.2,-0.9 0.5,-0.8 0.4,-0.2 0.7,-0.1 m 39.6,24.5 -0.3,-0.6 -1,-0.8 6.2,-0.7 m -5.1,-0.5 -0.4,-0.6 -1,-0.8 6.3,-0.6 m -7.1,-4.5 6.6,2.3 m -6.1,1.9 -0.5,-4.2 m -46,22 v 0.7 l 0.4,1.2 -5.7,-2.6 m 4.2,3.1 v 0.7 l 0.5,1.1 -5.8,-2.5 m 3.2,6.6 h 0.7 l 0.7,-0.7 0.2,-0.6 0.1,-0.9 -0.6,-0.9 -1.2,-0.9 -1.4,-0.6 -1.2,-0.2 -0.8,0.3 -0.7,0.7 -0.1,0.2 -0.1,1 0.3,0.8 0.7,0.6 0.3,0.1 1,0.1 0.7,-0.3 0.7,-0.7 0.1,-0.2 0.1,-1 -0.3,-0.8 -0.7,-0.6 m -0.4,21.3 0.6,0.3 1.2,0.3 -5.3,3.4 m 5.1,-1.3 0.3,-0.2 h 0.6 l 0.4,0.1 0.6,0.3 0.7,1 v 0.7 l -0.1,0.4 -0.3,0.6 -0.5,0.3 -0.7,0.1 h -1.1 l -4.1,-1 2.3,3.6 m 6.9,-0.9 -0.8,-0.6 H 615 l -1.4,0.5 -0.8,0.5 -1.1,1.1 -0.4,0.9 0.2,1 0.4,0.5 0.7,0.6 h 1.1 l 1.4,-0.6 0.8,-0.4 1.1,-1.1 0.4,-1 -0.2,-0.9 -0.3,-0.4 m 76.7,18 0.5,-0.5 0.5,-1.2 2.2,5.9 m 0.4,-7.1 -0.7,0.6 -0.2,1 0.2,1.5 0.4,0.9 0.8,1.3 0.9,0.6 h 0.9 l 0.6,-0.3 0.7,-0.6 0.2,-1 -0.2,-1.5 -0.3,-0.9 -0.9,-1.3 -0.8,-0.6 -1,0.1 -0.4,0.1 m 4.2,0 -0.1,-0.3 v -0.6 l 0.2,-0.4 0.5,-0.5 1.1,-0.4 h 0.6 l 0.4,0.2 0.5,0.4 0.2,0.6 v 0.7 l -0.3,1 -1.7,3.9 3.9,-1.5 m -14.5,-12.4 -0.7,-0.2 h -1.2 l 4.4,-4.5 m -4.4,2.9 -0.6,-0.2 h -1.3 l 4.5,-4.5 m -8.3,1 6.5,-2.4 m -3.5,5.4 -3,-3 m -31.8,27.4 0.4,0.5 1.1,0.8 -6.2,1 m 5.2,0.2 0.4,0.6 1,0.7 -6.2,1 m 6.8,1.6 -0.4,-0.9 -0.6,-0.2 -0.6,0.1 -0.6,0.4 -0.2,0.7 -0.1,1.2 -0.1,0.9 -0.5,0.7 -0.5,0.4 -0.9,0.2 -0.7,-0.2 -0.3,-0.3 -0.5,-0.8 -0.2,-1.2 0.2,-0.9 0.2,-0.4 0.6,-0.4 0.9,-0.1 0.6,0.2 0.7,0.5 0.4,0.8 0.5,1.2 0.4,0.5 0.7,0.2 0.6,-0.1 0.5,-0.4 0.1,-0.9 -0.2,-1.4 m 17.9,21.5 -0.1,-0.6 -0.8,-0.6 -0.6,-0.2 H 671 l -0.9,0.6 -0.7,1.4 -0.5,1.4 -0.1,1.2 0.3,0.8 0.8,0.6 0.3,0.1 h 0.9 l 0.8,-0.4 0.6,-0.8 0.1,-0.2 v -1 l -0.4,-0.8 -0.7,-0.5 -0.3,-0.1 h -1 l -0.7,0.3 -0.6,0.8 m 5.6,-1 0.6,-0.1 1.2,-0.6 -2.1,6 m 9.8,-11 0.2,3 2.7,0.1 -0.3,-0.3 -0.4,-0.9 v -0.9 l 0.2,-0.9 0.6,-0.6 0.8,-0.4 h 0.6 l 1,0.2 0.6,0.5 0.4,0.9 v 0.9 l -0.2,0.9 -0.3,0.4 -0.6,0.3 m -4,-5.6 H 685 l -0.6,-0.2 -0.3,-0.3 -0.4,-0.6 v -1.2 l 0.2,-0.6 0.3,-0.3 0.6,-0.4 h 0.6 l 0.6,0.3 0.9,0.5 3.2,2.8 -0.3,-4.2 m -65.2,-35.9 0.6,-0.4 0.7,-1 0.9,6.2 m 0.4,-5.2 0.5,-0.4 0.8,-1 0.9,6.3 m 4.3,-5.1 -0.1,0.9 -0.5,0.7 -0.9,0.4 -0.3,0.1 -0.9,-0.2 -0.7,-0.5 -0.4,-0.9 -0.1,-0.3 0.2,-0.9 0.5,-0.7 0.9,-0.4 h 0.3 l 0.9,0.1 0.7,0.5 0.4,1.2 0.3,1.5 -0.1,1.5 -0.5,1 -0.8,0.4 -0.6,0.1 -1,-0.2 -0.4,-0.5 m -15.2,-432.5 0.7,0.1 1.2,-0.1 -3.8,5 m 7.4,-2.7 -4.9,1.6 3.5,2.7 m 1.4,-4.3 -3.8,5.1 m 4.9,-2.3 0.7,0.1 1.3,-0.2 -3.8,5 m 7.3,-27 -0.3,0.6 -0.3,1.2 -3.4,-5.2 m 1.1,7 0.6,-0.7 v -1.1 l -0.6,-1.4 -0.5,-0.8 -1,-1 -1,-0.5 -1,0.3 -0.5,0.3 -0.5,0.7 -0.1,1.1 0.6,1.4 0.5,0.8 1.1,1.1 1,0.4 0.9,-0.2 0.4,-0.3 m -5.5,3.7 0.2,-5.2 -3.7,2.5 m 3.5,2.7 -3.4,-5.3 m 4.3,48.7 -0.5,0.4 -0.8,1 -0.9,-6.2 m -3.3,7.1 2.4,-4.6 -4.5,0.6 m 2.1,4 -0.9,-6.2 m -1.9,5.1 -0.5,0.4 -0.8,1 -0.9,-6.2 m -24,32.7 v -0.9 l -0.5,-0.5 -0.6,-0.2 -0.6,0.1 -0.5,0.5 -0.7,1 -0.6,0.8 -0.7,0.3 -0.7,0.1 -0.9,-0.3 -0.4,-0.5 -0.2,-0.3 v -1 l 0.4,-1.1 0.6,-0.8 0.4,-0.2 h 0.6 l 0.9,0.2 0.4,0.5 0.4,0.8 v 0.9 l -0.1,1.3 0.1,0.6 0.4,0.5 0.6,0.2 0.7,-0.1 0.6,-0.7 0.4,-1.3 m -2.6,3.2 0.1,0.7 0.5,1.1 -5.9,-2 m 50.1,6.2 -0.7,0.7 v 0.7 l 0.3,0.5 0.6,0.4 h 0.6 l 1.2,-0.3 1,-0.1 0.8,0.2 0.5,0.4 0.4,0.8 0.1,0.7 -0.2,0.4 -0.6,0.7 -1.1,0.5 -0.9,0.2 -0.4,-0.2 -0.6,-0.4 -0.4,-0.7 v -0.7 l 0.2,-0.8 0.7,-0.7 0.9,-0.8 0.4,-0.6 v -0.7 l -0.3,-0.5 -0.5,-0.4 -1,0.2 -1.2,0.6 m 7.2,-3.7 0.3,6.9 m -4,-5 3.7,-1.9 m -53.1,17.8 -0.9,0.4 -0.2,0.6 v 0.6 l 0.4,0.6 0.6,0.2 1.2,0.2 1,0.3 0.6,0.5 0.4,0.6 0.1,0.9 -0.3,0.6 -0.3,0.3 -0.8,0.4 -1.2,0.1 -0.9,-0.2 -0.4,-0.3 -0.3,-0.6 -0.1,-0.8 0.2,-0.7 0.6,-0.6 0.8,-0.4 1.2,-0.4 0.6,-0.4 0.2,-0.6 v -0.6 l -0.4,-0.6 -0.9,-0.2 -1.3,0.1 m 4.6,1.1 v -0.3 l 0.2,-0.6 0.3,-0.3 0.5,-0.4 1.2,-0.1 0.7,0.3 0.3,0.2 0.3,0.6 0.1,0.6 -0.2,0.6 -0.6,1 -2.7,3.2 4.2,-0.3 M 917,42.6 l -0.7,0.1 -1.1,0.5 2,-5.9 m -3.7,5.6 -3.2,-1.1 2.5,-1.7 -0.8,-0.3 -0.5,-0.4 -0.2,-0.4 v -1 l 0.2,-0.5 0.6,-0.8 0.8,-0.4 h 0.9 l 0.9,0.3 0.7,0.6 0.2,0.4 0.1,0.6 m -10.1,2 2.8,1 1.2,-2.5 -0.4,0.2 h -1 l -0.8,-0.3 -0.8,-0.6 -0.3,-0.8 v -0.9 l 0.2,-0.6 0.5,-0.7 0.8,-0.4 h 1 l 0.8,0.3 0.8,0.6 0.1,0.4 0.1,0.6 m -3.3,47 0.5,-0.4 0.6,-1.1 1.5,6.1 m 0.2,-6.7 3.2,-0.8 -1.2,2.7 0.9,-0.2 0.6,0.2 0.4,0.2 0.5,0.8 0.1,0.6 v 0.9 l -0.5,0.7 -0.8,0.6 -0.8,0.2 -1,-0.1 -0.4,-0.2 -0.4,-0.5 m 4.5,-6.4 3.2,-0.8 -1.1,2.8 0.8,-0.3 0.7,0.2 0.4,0.2 0.5,0.8 0.1,0.6 -0.1,0.9 -0.4,0.8 -0.8,0.5 -0.9,0.2 -0.9,-0.1 -0.4,-0.2 -0.4,-0.5 m -20.2,-46.5 -0.4,0.5 -0.2,1.3 -3.4,-5.3 m 2,6.4 -2.8,1.8 0.3,-3 -0.8,0.5 h -0.7 l -0.4,-0.1 -0.7,-0.5 -0.3,-0.6 -0.3,-0.9 0.2,-0.8 0.6,-0.7 0.8,-0.5 0.9,-0.3 0.4,0.1 0.6,0.4 m -3.3,8.1 0.6,-0.7 v -1.1 l -0.5,-1.4 -0.5,-0.8 -1.1,-1.1 -1,-0.4 -0.9,0.2 -0.5,0.4 -0.6,0.7 V 42 l 0.5,1.4 0.5,0.8 1.1,1.1 1,0.4 0.9,-0.2 0.4,-0.3 m -14.2,17.3 v 0.6 l 0.5,1.2 -5.8,-2.6 m 3.9,3.6 0.3,0.1 0.4,0.6 0.2,0.4 V 67 l -0.5,1.1 -0.5,0.4 -0.4,0.2 h -0.7 l -0.5,-0.2 -0.5,-0.6 -0.5,-0.9 -1.5,-3.9 -1.8,3.8 m 3.8,6.9 1.3,-2.7 -2.4,-1.4 0.2,0.4 -0.1,0.9 -0.4,0.8 -0.6,0.7 -0.8,0.3 -1,-0.1 -0.5,-0.2 -0.7,-0.7 -0.3,-0.7 0.1,-1 0.4,-0.8 0.6,-0.7 0.4,-0.2 h 0.7 m 3.7,14.2 0.6,-0.2 1,-0.8 -0.7,6.3 m 2.2,-4.8 v -0.3 l 0.4,-0.6 0.3,-0.2 0.7,-0.3 1.2,0.2 0.5,0.3 0.3,0.4 0.2,0.6 -0.1,0.6 -0.3,0.6 -0.7,0.8 -3.3,2.6 4.1,0.5 m 5.4,-4.8 -0.3,-0.6 -0.8,-0.4 -0.6,-0.1 -1,0.2 -0.6,0.8 -0.5,1.5 -0.2,1.4 0.2,1.3 0.5,0.6 0.9,0.4 0.3,0.1 0.9,-0.2 0.6,-0.5 0.4,-0.9 0.1,-0.3 -0.2,-0.9 -0.5,-0.7 -0.9,-0.4 h -0.3 l -0.9,0.2 -0.7,0.5 -0.4,0.8"
       id="nums_002"
       stroke="#000000"
       stroke-width="1" />
    <path
       d="m 885.6,141.8 h 3.2 l 14.5,15 20.1,3.4 1.7,2.6 -5.1,19.7 -29.5,1.9 -0.4,20 -2.3,2 -19.8,-2.9 -13.6,-22 0.3,-4.7 16.4,-20.05 z m -150.2,303.1 19.5,3.7 1.5,2.5 -6.2,18.9 18.8,4.6 1.2,2.4 -8.1,17.7 10.7,-16.3 2.8,-0.4 14.1,13.5 -3.6,20.5 -29.2,19.7 -20.3,-4.4 -19.5,0.8 -20.2,-22.5 2.9,-19.2 -15.4,-20.3 -0.1,-4.5 14.7,-20.8 0.6,-26.4 2.9,-3.9 24.9,-8.8 -5.2,-19.8 1.7,-2.6 20.2,-3.8 31.8,0.9 19.2,8.1 1.1,3 -8.9,18.7 25.6,17.4 -29.5,38.3 -8.4,-26.5 -23.3,-14.5 z m -136.4,80.8 -6.5,-22.4 1.7,-3.6 20.9,-10.3 -9,-23.8 1.2,-4.4 19.9,-15.8 12.2,-70.7 -9.2,18 -32,8.5 -16.9,-11 -32.9,-24.9 50.1,-38.7 -16.5,-20.9 -0.4,-4.9 13.3,-23.1 -9.6,-19.7 1.1,-3.4 19,-10.9 1.9,-20.3 26.8,-20.5 20.1,3.5 50.1,-1 62.7,-27.1 -42,0.5 -13.7,15.3 -34.4,0.9 -14.5,-14.6 -55.4,29.1 -17.5,16.6 -4.2,0.4 -20.2,-13.2 -9.1,-19.4 12.4,-35.6 19.2,-9.6 48.9,-6.8 -26.8,-1.5 -3.9,-3 -8.6,-25.4 1.2,-18.7 23,-15.1 17.7,6.4 21.3,-2.6 29.9,22.8 3.1,21.3 8.6,-45.3 19.2,0.1 18,22.8 -4.3,18.7 11.2,-31.1 52.5,-49.1 31.7,-9.1 15.7,11.2 1.8,29.5 -14.3,13 17.2,9 5.9,29.4 -12.3,15 11,16.1 -8.4,29.2 -17.9,7.7 15,20.2 -0.1,4.4 -15,20.1 13.2,-18.3 40.4,-9.1 19.8,10.9 13.6,-18.7 41.9,-10.3 20.7,10.4 -20.7,-10.4 v 0 l 9.2,-17.8 -26.1,4.3 -4.4,-2 -13.4,-22.9 -11.9,-42.2 -2.5,-21.6 v 0 l 23.2,-5.8 -33.3,8.3 -21.3,12.7 -4.4,-0.5 -17.9,-17.2 -4.8,-25.9 2,-4.3 22.6,-13.5 23.4,-15.1 29.6,10.2 82.6,-6.4 19.6,38.3 -15,32 2.9,39.6 14.2,24 -1.9,57.6 -15.8,23 28.3,46.1 -6.1,21 -33.6,19.9 -21.4,-4.8 -58.2,-42.7 v 0 L 964.87436,317.12878 966,345 l -48.7,37.8 45,-34.9 6.9,1.8 v 0 l 70.7,7.3 -9.4,66.9 -50.7,8.3 -26.3,52.1 -43.7,-7.2 -8.5,-21.9 21.6,55.7 12.3,-15.7 32,-1.8 13.9,14.2 17.6,7.1 7.6,27.2 -11.3,15.2 -47.4,6.8 -64.8,71.3 -29.6,-16.6 -29.6,29.1 10.9,16 -8.7,28.2 -17.8,7.2 -49.1,-1.1 19.1,-43.2 -14.9,-22.4 0.1,-5 15.1,-22.2 -13.9,-47.7 5.3,-25.5 3.5,-3.2 25.7,-3.5 20.4,3.2 19.8,28.7 -4.3,20.3 10.4,-21.5 3.8,-1.8 23.1,5.7 -31.6,-51.1 -12.5,-18.1 5.7,-39.1 17.2,-13.8 -30.6,-33.8 16.4,-36.2 -19.9,7.9 -3.1,-1.4 -8.3,-19.7 -15.9,10.5 -2.5,-0.8 -6.6,-17.9 24,-36.5 54.7,-23 -49.8,21 -7.2,-4.6 v 0 l -41.9,-17.5 3.1,-46.8 -20.8,22.5 -64.8,29 46.25306,-20.69967 L 748.4,283.7 l 10.7,30.4 5.6,24.1 -1.8,4 -21.7,11.8 -0.7,18.7 -2,1.5 -17.9,-5.8 -16.8,12.3 -3.1,-0.6 -11.7,-17.2 0.6,22.2 -2.4,2.7 -22.1,2.6 4.9,36 -2.9,32 16.2,11.3 3.4,31.4 -13.6,14.5 40.9,40.4 -23.4,9 3,43.6 -24.1,7.5 -4.3,-1.4 -14.4,-20.9 -18.1,-16.9 -0.7,-4.3 11.6,-21.8 -26.15,3.65 z"
       id="coupes_002"
       stroke="#ff0000"
       stroke-width="1.27"
       sodipodi:nodetypes="ccccccccccccccccccccccccccccccccccccccccccccccccccccccccccccccccccccccccccccccccccccccccccccccccccccccccccccccccccccccccccccccccccccccccccccccccccccccccccccccccccccccccccccccccccccccccccccccccccccccccccccccccccccccccccccccccccccccccccccccccccc" />
    <path
       d="m 871.1,156.8 h 32.2 m -35.3,46.7 3.1,-46.8 m 32.2,0.1 16.7,25.7 M 699.8,486.4 750.2,470 m 0,0 -13.6,57.3 m -1.2,-82.4 14.8,25.1 m -50.4,16.4 35.6,-41.5 m 26.7,49.8 -25.5,32.6 m -37.6,-86.5 36.4,4.1 m -36.4,-4.1 28.4,-39.1 m 0,0 8,43.2 m -8,-43.2 24.3,19.2 m -24.3,-19.2 48.5,-25.3 m 0,0 -24.2,44.5 m 24.2,-44.5 11.4,29.8 m -59.9,-4.5 16.7,-26.2 m 43.2,30.7 -12.3,29.2 m 12.3,-29.2 -3.9,55.7 M 763.3,239 l 38.8,64.3 m 26.8,-65.4 -26.8,65.4 m 26.8,-65.4 30.2,49 m -30.2,-49 73.4,-16.5 m 0,0 -43.2,65.5 m 43.2,-65.5 21.1,65.3 m 0,0 -64.3,0.2 m 155.3,-39.7 -91,39.5 m 91,-39.5 -32.8,82.2 m 61.1,-36.1 -61.1,36.1 m -79.3,-108 76.2,-18.6 m 39.4,-60.2 -3.5,104.6 M 978.5,202.8 967,174.6 m -130.3,193.2 22.4,-80.9 m 64.3,-0.2 -86.7,81.1 m 86.7,-81.1 -6.1,96.1 m 0,0 -80.6,-15 M 923.4,286.7 966,345 m -48.7,37.8 -16,72.4 m 0,0 -50.4,-17.4 m 50.4,17.4 -29.2,104.7 m 45.2,-177.1 62.5,49.4 m 0,0 -78.5,23 m -60.8,53.6 10.4,-71 m 66.4,-55 51.9,-33.1 m 0,0 10.6,82.5 m -26.3,52.1 -52.2,-29.1 m 21.6,55.7 -50.8,49 m 50.8,-49 24.7,53 m -24.7,-53 58.2,-3.3 m 0,0 -33.5,56.3 m 0,0 -94.4,54.7 m 0,0 -18.4,-41.1 m 0,0 37.3,-17.6 m -18.9,58.7 -74.9,-13.4 m 0,0 56.5,-27.7 m -11.2,70.2 -45.3,-42.5 m 29.7,93.9 -30,-44.3 m 0,0 0.3,-49.6 m 202.8,-97.6 13.9,49.5 m 44.9,-200.1 -60.1,75.2 m -174.4,-77.6 -1,-44.7 m 32.3,57.9 -31.3,-13.2 m 0,0 -25,-8.2 m -76.1,-141 124.6,32.5 m -86.4,23.6 -38.2,-56.1 m -26.6,85.1 26.6,-85.1 m -26.6,85.1 -23.5,-84.1 m -48.8,37.3 48.8,-37.3 m 23.5,84.1 -72.3,-46.8 m 72.3,46.8 -82.8,-12.8 m 0,0 10.5,-34 m 72.3,46.8 -79.2,36.1 m 40.9,48.1 -40.9,-48.1 m 40.9,48.1 -58.1,15.5 M 689,362.9 639.4,374.7 m 38.3,-84.2 42.9,77.9 m -42.9,-77.9 63.5,63.5 m -63.5,-63.5 70.7,-6.8 m 0,0 -7.2,70.3 m 87.8,-160.8 -0.1,44.7 m -61.9,-59.6 62,14.9 m 15.3,-53 -15.3,53 m -94.1,-70.8 98.6,-35.6 m 0,0 10.8,53.4 m -119.3,38.6 9.9,-56.4 m -9.9,56.4 -62.6,1.6 m 0,0 72.5,-58 m -72.5,58 31,-54.3 m -31,54.3 -25.9,-38.5 m 0,0 2.6,-57.3 m 191.2,-51.5 3.2,53.7 m 77.7,25 106.7,30.8 M 967,174.6 923.1,154 m 8.8,-69.6 83.1,18.6 m -103.8,8.8 20.7,-27.4 m 0,0 L 1030,71 M 927.8,39.1 1030,71 m -98.1,13.4 -4.1,-45.3 m -149.5,566.1 20.6,-79.9 m -34.5,32.2 34.5,-32.2 M 670,426.4 l -42.8,19 m -12.1,44 12.1,-44 m 39.9,13 6,57.2 m 0,0 -58,-26.2 m 58,26.2 -48,-0.3 m 0,0 -10,-25.9 m 10,25.9 -26.1,10.4 m 0,0 16.1,-36.3 m 10,25.9 -7.8,39.1 m 55.8,-38.8 -29.5,35.2 m 29.5,-35.2 17.5,49.4 m -39.8,28.8 -7.2,-43 M 636.5,141.9 597.2,112 m 65.2,68.4 -74.8,-31.7 m 19.4,60.8 -41.9,3.8 M 898.6,92.7 898.2,28.9 M 898.6,92.7 874.8,44 M 855,87.7 874.8,44 m 23.8,48.7 -43.6,-5"
       id="plisM_002"
       stroke="#a52a2a"
       stroke-dasharray="4" />
    <path
       d="m 903.3,156.8 -12.8,27.6 m 0,0 -19.4,-27.6 m 19.4,27.6 -22.5,19.1 M 736.6,527.3 699.8,486.4 m 50.4,-16.4 11.9,24.7 m -62.3,-8.3 -0.8,-45.6 m 63.1,53.9 27.6,-3.2 m 0,0 -53.1,35.8 m 50.7,-121.1 -35.6,14.7 m 11.6,-181.9 65.6,-1.1 m 30.2,49 -57,16.4 m 100.2,-81.9 112.1,25.8 m -35.9,-44.4 35.9,44.4 m -35.9,-44.4 39.4,-60.2 m -50.9,32 50.9,-32 m -167,295.2 -14.2,-70 m 80.6,15 -66.4,55 m 21.2,122.1 -21.2,-122.1 m 96.7,126.1 -75.5,-4 m -18.9,58.7 18.9,-58.7 m -48.5,87.8 -15.6,51.4 m 0,0 -29.7,-93.9 m 58.4,-237.4 -32.3,-57.9 m -41.1,-70.9 -59,-33.6 m -105.8,121.2 -3.6,-48.9 m 82.8,12.8 -38.3,84.2 m -58.1,15.5 17.2,-63.6 m 79.2,-36.1 11.3,72.4 m 31.6,5.5 -31.6,-5.5 m 52.2,-8.9 -20.6,14.4 M 759.1,314.1 741.2,354 M 704.3,205.4 829,193.2 m -62,-14.9 77.3,-38.1 M 734.9,122.4 844.3,140.2 M 767,178.3 734.9,122.4 m -41.5,3.7 41.5,-3.7 M 702,80.8 l 32.9,41.6 m -98.4,19.5 56.9,-15.8 m -54.3,-41.5 54.3,41.5 m 41.5,-3.7 95.4,-89.3 M 967,174.6 911.2,111.8 m 0,0 103.8,-8.8 m -216.1,422.3 35.9,52.2 M 689,362.9 665.1,390.4 m 0,0 -25.7,-15.7 m 25.7,15.7 -37.9,55 m 39.9,13 -39.9,-13 m 39.9,13 -52,31 m 28.5,61.4 -18.5,-35.5 m 65.5,49.7 -47,-14.2 m 47,14.2 -39.8,28.8 m 42.8,14.8 -42.8,-14.8 M 597.2,112 639.1,84.6 m 23.3,95.8 -97.3,32.9 m 0,0 22.5,-64.6 M 931.9,84.4 898.2,28.9"
       id="plisV_002"
       stroke="#008000"
       stroke-dasharray="4, 1, 1, 1"
       stroke-width="1.27" />
    <path
       d="m 894.9,168.6 4,4 m 0,-4 -4,4 m -16.1,-4 4,4 m 0,-4 -4,4 m -1.5,19.4 4,4 m 0,-4 -4,4 m -161.1,308.8 4,4 m 0,-4 -4,4 m 37.9,-28.5 4,4 m 0,-4 -4,4 m -56.7,-22.7 4,4 m 0,-4 -4,4 m 76.5,25.5 4,4 m 0,-4 -4,4 m -12.8,12.3 4,4 m 0,-4 -4,4 m 6.4,-99.9 4,4 m 0,-4 -4,4 m 26.6,-179 4,4 m 0,-4 -4,4 m 34.5,52.6 4,4 m 0,-4 -4,4 m 127.8,-64.8 4,4 m 0,-4 -4,4 m 38.1,-13.3 4,4 m 0,-4 -4,4 m 1.7,-56.3 4,4 m 0,-4 -4,4 m -5.7,-18.1 4,4 m 0,-4 -4,4 m -148.7,240.2 4,4 m 0,-4 -4,4 m 40.3,3.5 4,4 m 0,-4 -4,4 m -22.6,84.6 4,4 m 0,-4 -4,4 m 48.4,59 4,4 m 0,-4 -4,4 m -47.2,23.4 4,4 m 0,-4 -4,4 m -46.9,80.1 4,4 m 0,-4 -4,4 m -22.7,-25.3 4,4 m 0,-4 -4,4 m 27.5,-317.2 4,4 m 0,-4 -4,4 m -86.8,-120.7 4,4 m 0,-4 -4,4 m -137.1,75.9 4,4 m 0,-4 -4,4 m 61.8,26.5 4,4 m 0,-4 -4,4 m -68.6,21.8 4,4 m 0,-4 -4,4 m 93.4,-35.7 4,4 m 0,-4 -4,4 m 21.5,34.9 4,4 m 0,-4 -4,4 m 26.1,-8.4 4,4 m 0,-4 -4,4 m 19.2,-31.2 4,4 m 0,-4 -4,4 m 16.6,-138.7 4,4 m 0,-4 -4,4 m 39,-44.1 4,4 m 0,-4 -4,4 m -16.1,-31.9 4,4 m 0,-4 -4,4 m -38.7,15 4,4 m 0,-4 -4,4 m -36.8,-30.1 4,4 m 0,-4 -4,4 m 4.3,-26.6 4,4 m 0,-4 -4,4 m -53.5,28.4 4,4 m 0,-4 -4,4 m 1.3,-32.7 4,4 m 0,-4 -4,4 m 116.4,-31.6 4,4 m 0,-4 -4,4 m 156.5,61.5 4,4 m 0,-4 -4,4 m 24,-39.8 4,4 m 0,-4 -4,4 m -146.2,440 4,4 m 0,-4 -4,4 m -139.8,-178.8 4,4 m 0,-4 -4,4 m -24.9,1.9 4,4 m 0,-4 -4,4 m -6,31.4 4,4 m 0,-4 -4,4 m 0.9,30 4,4 m 0,-4 -4,4 m -6,18 4,4 m 0,-4 -4,4 m -6.8,55.1 4,4 m 0,-4 -4,4 m 32.8,20.9 4,4 m 0,-4 -4,4 m 3.6,17.5 4,4 m 0,-4 -4,4 m 1.5,17.8 4,4 m 0,-4 -4,4 m -54.1,-506.9 4,4 m 0,-4 -4,4 m -4.3,94.5 4,4 m 0,-4 -4,4 m -37.5,-19.8 4,4 m 0,-4 -4,4 M 913,54.7 l 4,4 m 0,-4 -4,4"
       id="marqueV_002"
       stroke="#008000" />
    <path
       d="m 885.25055,166.85339 h 8.3 l -4.5,6 h 2.2 l 1.5,0.7 0.8,0.8 0.7,2.2 v 1.5 l -0.7,2.3 -1.5,1.5 -2.3,0.7 h -2.2 l -2.3,-0.7 -0.7,-0.8 -0.8,-1.5"
       id="titre_3"
       stroke="#4b0082" />
    <path
       d="m 751.50123,395.0965 -7.5,10.5 h 11.3 m -3.8,-10.5 v 15.7"
       id="titre_4"
       stroke="#4b0082" />
    <path
       d="m 836.79056,321.86489 h -7.5 l -0.7,6.7 0.7,-0.7 2.3,-0.8 h 2.2 l 2.3,0.8 1.5,1.5 0.7,2.2 v 1.5 l -0.7,2.3 -1.5,1.5 -2.3,0.7 h -2.2 l -2.3,-0.7 -0.7,-0.8 -0.8,-1.5"
       id="titre_5"
       stroke="#4b0082" />
  </g>
  <g
     id="page_003">
    <path
       d="m 1369,502.9 -0.4,0.6 -0.3,1.2 -3.1,-5.5 m 19.4,11.9 -0.3,-0.1 -0.5,-0.3 -0.3,-0.4 -0.3,-0.6 0.2,-1.2 0.3,-0.5 0.3,-0.3 0.7,-0.3 0.6,0.1 0.5,0.4 0.9,0.6 2.7,3.3 0.4,-4.2 m 52.5,67.4 0.9,-0.1 0.8,0.2 0.7,0.6 0.1,0.3 0.2,0.9 -0.2,0.9 -0.7,0.7 -0.2,0.1 -1,0.2 -0.8,-0.3 -0.7,-0.6 -0.1,-0.3 -0.2,-0.9 0.2,-0.8 1,-0.9 1.3,-0.7 1.4,-0.4 h 1.1 l 0.7,0.7 0.3,0.5 0.2,1 -0.4,0.5 m -39.5,-35 2.9,-0.7 -0.4,-2.7 -0.2,0.4 -0.8,0.5 -0.8,0.2 h -1 l -0.7,-0.5 -0.5,-0.8 -0.2,-0.6 0.1,-0.9 0.4,-0.7 0.8,-0.5 0.9,-0.3 0.9,0.1 0.4,0.2 0.4,0.5 m 13.8,75.9 -0.3,0.9 -0.6,0.6 -0.9,0.3 h -0.3 l -0.9,-0.3 -0.6,-0.6 -0.3,-0.9 v -0.3 l 0.3,-0.9 0.6,-0.6 0.9,-0.3 h 0.3 l 0.9,0.3 0.6,0.6 0.3,1.2 v 1.5 l -0.3,1.5 -0.6,0.9 -0.9,0.3 h -0.6 l -0.9,-0.3 -0.3,-0.6 m 5.3,-3.9 v -0.3 l 0.3,-0.6 0.3,-0.3 0.6,-0.3 h 1.2 l 0.6,0.3 0.3,0.3 0.3,0.6 v 0.6 l -0.3,0.6 -0.6,0.9 -3,3 h 4.2 m -92.6,-78.3 -0.9,3.1 -1.8,-2.4 -0.3,0.9 -0.4,0.4 -0.4,0.2 -1,0.1 -0.5,-0.2 -0.8,-0.6 -0.4,-0.7 v -1 l 0.2,-0.8 0.6,-0.8 0.3,-0.2 0.7,-0.1 m 18.4,71.4 0.7,-0.2 1,-0.8 -1,6.2 m 5.6,-4.8 -0.2,-0.7 -0.9,-0.4 -0.6,-0.1 -0.9,0.2 -0.7,0.8 -0.6,1.4 -0.2,1.5 0.1,1.2 0.5,0.7 0.9,0.5 h 0.3 l 0.9,-0.2 0.7,-0.5 0.4,-0.8 0.1,-0.3 -0.2,-0.9 -0.5,-0.7 -0.8,-0.5 h -0.3 l -1,0.2 -0.6,0.5 -0.5,0.8 m -40.3,-36.8 0.2,0.2 v 0.7 l -0.1,0.4 -0.4,0.6 -1,0.6 h -0.7 l -0.4,-0.1 -0.6,-0.3 -0.3,-0.6 v -0.6 l 0.1,-1.1 1,-4.1 -3.6,2.1 m -1.4,7.1 0.6,0.3 0.9,-0.2 0.6,-0.3 0.6,-0.7 v -1.1 l -0.5,-1.4 -0.7,-1.3 -0.9,-0.9 -0.8,-0.2 -0.9,0.2 -0.3,0.2 -0.6,0.7 -0.2,0.8 0.2,0.9 0.1,0.3 0.7,0.6 0.9,0.2 0.9,-0.2 0.2,-0.1 0.7,-0.7 0.2,-0.9 -0.2,-0.9 m -26.8,17.1 0.1,0.2 v 0.7 l -0.2,0.4 -0.4,0.5 -1.1,0.5 h -0.7 l -0.4,-0.2 -0.5,-0.4 -0.2,-0.6 v -0.7 l 0.2,-1 1.6,-4 -3.9,1.7 m -2.3,7.8 0.3,-6.9 m 3.6,5.3 -3.9,1.6 m 25.7,38.4 -0.2,-0.2 -0.2,-0.6 v -0.4 l 0.2,-0.7 0.8,-0.8 0.7,-0.2 0.4,-0.1 0.6,0.2 0.5,0.5 0.2,0.6 0.2,1 0.1,4.3 2.9,-3 m -2.7,-6.3 -0.4,0.8 0.2,0.7 0.5,0.4 0.6,0.2 0.6,-0.2 1.1,-0.7 0.8,-0.4 h 0.9 l 0.6,0.2 0.7,0.6 0.2,0.6 v 0.4 l -0.4,0.9 -0.9,0.9 -0.8,0.4 h -0.4 l -0.7,-0.2 -0.6,-0.6 -0.2,-0.7 v -0.8 l 0.4,-0.9 0.6,-1 0.2,-0.7 -0.2,-0.6 -0.5,-0.4 -0.6,-0.2 -0.9,0.4 -0.9,1 m -144,-71.2 -0.1,0.7 0.3,1.2 -5.4,-3.3 m 4.2,5.7 0.2,-0.9 -0.3,-0.6 -0.5,-0.3 -0.7,-0.1 -0.6,0.4 -0.9,0.9 -0.7,0.6 -0.8,0.2 -0.7,-0.1 -0.7,-0.5 -0.4,-0.5 -0.1,-0.4 0.2,-1 0.6,-1 0.8,-0.6 0.4,-0.1 0.6,0.1 0.8,0.4 0.4,0.6 0.2,0.8 -0.2,0.9 -0.4,1.2 -0.1,0.7 0.4,0.6 0.5,0.3 h 0.7 l 0.7,-0.6 0.7,-1.1 m 29.8,-26.5 -0.4,0.5 -0.5,1.1 -2.3,-5.8 m -2.5,7.9 0.5,-6.9 m 3.4,5.4 -3.9,1.5 m 67.5,34.8 h -0.3 l -0.7,-0.2 -0.3,-0.3 -0.4,-0.5 -0.1,-1.2 0.2,-0.7 0.2,-0.3 0.6,-0.4 0.6,-0.1 0.6,0.3 1,0.4 3.4,2.6 -0.6,-4.1 m -5,-1.1 -0.3,0.1 -0.6,-0.2 -0.3,-0.3 -0.4,-0.6 -0.2,-1.1 0.3,-0.7 0.2,-0.3 0.6,-0.4 0.6,-0.1 0.6,0.3 1,0.4 3.3,2.6 -0.5,-4.2 m 24.7,-30.5 v -0.3 l 0.2,-0.7 0.3,-0.3 0.6,-0.4 1.2,-0.1 0.6,0.3 0.3,0.2 0.4,0.6 v 0.6 l -0.2,0.6 -0.5,1 -2.7,3.3 4.2,-0.5 m 9.3,-12.1 1.6,2.5 2.4,-1.3 h -0.4 l -0.7,-0.6 -0.5,-0.8 -0.3,-0.9 0.2,-0.8 0.6,-0.8 0.5,-0.3 0.9,-0.3 0.8,0.2 0.8,0.6 0.5,0.7 0.2,1 -0.1,0.4 -0.3,0.6 m -77,-28.6 -4.6,-5.2 m 6.2,1.4 -1.6,3.8 m -0.6,-75.3 -5,-1.3 1.6,4.2 m 3.4,-2.9 -5.9,2.3 m 118.9,54 0.2,0.9 -0.3,0.8 -0.7,0.7 -0.3,0.1 -0.9,0.2 -0.8,-0.3 -0.7,-0.7 -0.1,-0.3 -0.1,-0.9 0.2,-0.8 0.7,-0.7 0.3,-0.1 0.9,-0.1 0.8,0.2 0.8,1 0.7,1.3 0.4,1.5 -0.2,1.1 -0.6,0.7 -0.6,0.2 -0.9,0.1 -0.5,-0.4 m -144.6,-132.3 0.6,0.4 1.2,0.4 -5.6,2.8 m 5.2,-0.8 0.2,-0.1 h 0.7 l 0.4,0.1 0.6,0.4 0.5,1.1 v 0.7 l -0.1,0.4 -0.4,0.5 -0.6,0.3 h -0.7 l -1,-0.1 -4,-1.4 1.8,3.8 m 138.7,-39.4 1.8,-2.8 1.1,2.8 0.5,-0.8 0.5,-0.3 0.4,-0.1 1,0.3 0.5,0.3 0.6,0.7 0.1,0.8 -0.2,1 -0.5,0.7 -0.7,0.6 -0.4,0.1 -0.7,-0.1 m 0.6,-10.2 -1.7,2.5 2.1,1.7 -0.1,-0.4 0.3,-0.9 0.5,-0.8 0.7,-0.6 0.8,-0.2 1,0.3 0.5,0.3 0.6,0.7 0.1,0.9 -0.2,0.9 -0.5,0.7 -0.7,0.6 -0.4,0.1 h -0.7 m -34.7,-73.3 -1.3,3.1 -1.5,-2.6 -0.4,0.8 -0.5,0.4 -0.4,0.2 -0.9,-0.1 -0.6,-0.3 -0.7,-0.6 -0.3,-0.8 0.1,-0.9 0.3,-0.9 0.7,-0.7 0.4,-0.1 0.6,-0.1 m 0.3,9.9 h 0.7 l 0.6,-0.7 0.3,-0.6 v -0.9 l -0.5,-0.9 -1.3,-0.9 -1.4,-0.6 -1.2,-0.2 -0.8,0.3 -0.6,0.7 -0.1,0.3 -0.1,0.9 0.3,0.8 0.7,0.7 0.3,0.1 0.9,0.1 0.8,-0.3 0.6,-0.7 0.2,-0.3 v -1 l -0.3,-0.8 -0.7,-0.6 m 81.2,20.8 -0.6,5.1 3.9,-2.2 m -3.3,-2.9 3,5.5 m 0.6,-7.5 -0.6,0.7 v 0.7 l 0.3,0.5 0.6,0.4 h 0.6 l 1.2,-0.4 0.9,-0.1 0.9,0.2 0.5,0.4 0.5,0.8 v 0.6 l -0.1,0.4 -0.7,0.7 -1,0.6 -0.9,0.2 -0.4,-0.1 -0.6,-0.4 -0.4,-0.8 -0.1,-0.6 0.3,-0.9 0.6,-0.7 0.9,-0.8 0.4,-0.6 -0.1,-0.6 -0.3,-0.6 -0.5,-0.3 -0.9,0.1 -1.2,0.7 m -27.2,-50.7 2.3,-4.6 -4.4,0.6 m 2.1,4 -1,-6.3 m -5.8,5.1 0.2,-0.9 0.5,-0.7 0.8,-0.4 0.3,-0.1 0.9,0.2 0.7,0.5 0.4,0.8 0.1,0.3 -0.2,1 -0.5,0.6 -0.8,0.5 h -0.3 l -0.9,-0.1 -0.7,-0.5 -0.5,-1.2 -0.2,-1.5 v -1.5 l 0.5,-1 0.8,-0.4 0.6,-0.1 1,0.2 0.3,0.5 m 14.4,180.2 -0.7,-0.1 -1.2,0.3 3.4,-5.3 m -5,4.5 -2.8,-1.8 2.9,-1 -0.8,-0.5 -0.3,-0.6 -0.1,-0.4 0.2,-0.9 0.4,-0.5 0.7,-0.6 0.9,-0.2 0.9,0.3 0.7,0.5 0.6,0.7 0.1,0.4 -0.1,0.7 m -10.6,-0.9 5.9,-3.6 m -2.4,5.9 -3.5,-2.3 m 45.5,69.7 0.6,-0.3 0.9,-0.9 -0.1,6.3 m 5.1,-4.3 -0.3,0.9 -0.6,0.6 -0.9,0.3 h -0.3 l -0.9,-0.4 -0.6,-0.6 -0.3,-0.9 V 455 l 0.4,-0.9 0.6,-0.6 0.9,-0.2 h 0.3 l 0.9,0.3 0.6,0.6 0.2,1.2 v 1.5 l -0.3,1.5 -0.7,0.9 -0.9,0.3 -0.6,-0.1 -0.9,-0.3 -0.2,-0.6 m 28.7,-26.8 -0.1,0.3 -0.6,0.4 -0.4,0.1 -0.6,-0.1 -1.1,-0.6 -0.4,-0.5 -0.1,-0.4 0.1,-0.7 0.3,-0.5 0.5,-0.4 1,-0.5 4.1,-1.1 -3.6,-2.1 m -5.7,4 0.9,0.2 1,-0.5 1,-1.1 0.4,-0.8 0.5,-1.4 V 425 l -0.7,-0.7 -0.5,-0.3 -0.9,-0.2 -1,0.4 -1,1.2 -0.5,0.8 -0.4,1.4 v 1.1 l 0.6,0.7 0.4,0.2 m 4.3,17.3 -0.1,-0.2 -0.2,-0.7 0.1,-0.4 0.3,-0.6 0.9,-0.7 0.7,-0.2 0.4,0.1 0.6,0.3 0.4,0.5 0.1,0.6 0.1,1.1 -0.6,4.2 3.3,-2.5 m -2.1,-4.6 0.3,-0.6 0.2,-1.2 3.8,5 m -170.9,230.9 1.6,4.9 2.7,-3.6 m -4.3,-1.3 5,3.8 m -0.4,-8.2 -0.7,-0.2 -0.8,0.6 -0.3,0.5 -0.3,0.9 0.3,1 1,1.1 1.2,0.9 1.2,0.5 0.8,-0.1 0.8,-0.5 0.2,-0.3 0.3,-0.9 -0.2,-0.8 -0.5,-0.8 -0.2,-0.2 -0.9,-0.3 -0.9,0.1 -0.7,0.6 -0.2,0.2 -0.3,0.9 0.1,0.8 0.5,0.8 m -120.2,-401 0.6,0.3 1.2,0.3 -5.3,3.3 m 6.4,-2 1.8,2.8 -3,-0.2 0.5,0.7 0.1,0.7 -0.1,0.4 -0.6,0.8 -0.5,0.3 -1,0.2 -0.8,-0.2 -0.7,-0.6 -0.5,-0.7 -0.2,-1 0.1,-0.4 0.3,-0.5 m 26.9,-67.7 5.2,0.4 -2.4,-3.9 m -2.8,3.5 5.4,-3.3 m -8.6,-2 1.6,2.5 2.5,-1.1 -0.5,-0.1 -0.7,-0.6 -0.5,-0.8 -0.2,-0.9 0.2,-0.9 0.6,-0.7 0.6,-0.3 0.9,-0.2 0.8,0.2 0.7,0.6 0.5,0.8 0.2,0.9 -0.1,0.4 -0.3,0.6 m -64.3,-16.1 0.5,-0.4 0.1,-1 -0.2,-0.5 -0.5,-0.8 -1,-0.4 -1.6,0.1 -1.4,0.4 -1.1,0.6 -0.4,0.8 -0.1,0.9 0.1,0.3 0.5,0.8 0.8,0.4 0.9,0.1 0.3,-0.1 0.8,-0.5 0.4,-0.8 0.1,-0.9 -0.1,-0.3 -0.5,-0.8 -0.8,-0.4 -0.9,-0.1 m 5.8,5.5 -0.5,-0.8 -1,-0.3 -1.5,0.1 -0.9,0.2 -1.4,0.7 -0.7,0.8 v 1 l 0.1,0.6 0.6,0.8 1,0.3 1.5,-0.1 0.9,-0.2 1.3,-0.7 0.8,-0.8 v -1 l -0.1,-0.4 m 106.5,20.6 0.1,-5.1 -3.7,2.5 m 3.6,2.6 -3.6,-5.1 m -1.1,8.4 v -5.1 l -3.7,2.5 m 3.7,2.6 -3.6,-5.1 m 62.9,31.1 0.7,-3.2 1.9,2.3 0.2,-0.9 0.4,-0.5 0.4,-0.3 0.9,-0.1 0.6,0.1 0.8,0.5 0.5,0.7 0.1,1 -0.2,0.9 -0.5,0.8 -0.3,0.2 -0.7,0.2 m -2.2,-9.7 -0.6,0.2 -0.5,0.8 -0.1,0.6 0.1,1 0.7,0.7 1.4,0.6 1.5,0.4 1.2,-0.1 0.7,-0.4 0.5,-0.9 0.1,-0.2 -0.1,-1 -0.5,-0.7 -0.8,-0.5 -0.3,-0.1 -0.9,0.2 -0.8,0.4 -0.4,0.8 -0.1,0.3 0.1,1 0.5,0.7 0.8,0.5 M 1261,160.8 v 0.6 l 0.2,1.3 -5.3,-3.4 m 3.3,7.1 -2,-4.8 -2.4,3.8 m 4.4,1 -5.3,-3.4 m 2.8,7.2 0.3,-1 -0.5,-1 -1.1,-1 -0.7,-0.5 -1.5,-0.6 -1,0.1 -0.8,0.6 -0.3,0.5 -0.2,0.9 0.4,1 1.1,1 0.8,0.5 1.4,0.6 h 1.1 l 0.7,-0.6 0.2,-0.4 m 56.5,6.9 0.3,5.2 3.5,-2.8 m -3.8,-2.4 3.9,4.9 m 2.5,-7.3 0.4,0.9 -0.1,0.8 -0.5,0.8 -0.3,0.2 -0.9,0.4 -0.8,-0.1 -0.8,-0.5 -0.2,-0.3 -0.3,-0.9 0.1,-0.8 0.5,-0.8 0.2,-0.2 0.9,-0.3 0.9,0.1 0.9,0.7 1,1.2 0.7,1.3 0.1,1.1 -0.5,0.8 -0.5,0.4 -0.9,0.3 -0.6,-0.3 m -8.3,-62.3 0.5,0.3 0.9,-0.2 0.6,-0.3 0.6,-0.7 0.1,-1 -0.5,-1.5 -0.7,-1.3 -0.9,-0.9 -0.8,-0.2 -0.9,0.2 -0.3,0.1 -0.6,0.7 -0.3,0.8 0.2,1 0.2,0.2 0.7,0.7 0.8,0.2 0.9,-0.2 0.3,-0.1 0.6,-0.7 0.2,-0.9 -0.1,-0.9 m -3.7,6.9 0.7,-0.7 -0.1,-0.7 -0.3,-0.5 -0.5,-0.4 -0.7,0.1 -1.2,0.3 -0.9,0.2 -0.8,-0.3 -0.6,-0.3 -0.4,-0.8 -0.1,-0.7 0.2,-0.4 0.6,-0.7 1,-0.6 1,-0.2 0.4,0.1 0.5,0.4 0.5,0.8 v 0.7 l -0.2,0.8 -0.7,0.7 -0.8,0.8 -0.4,0.6 v 0.7 l 0.3,0.5 0.6,0.4 0.9,-0.2 1.2,-0.7 m 31.5,7.3 -0.5,0.4 v 0.9 l 0.1,0.6 0.5,0.8 1.1,0.4 1.5,-0.1 1.4,-0.4 1.1,-0.6 0.5,-0.7 v -0.9 -0.3 l -0.6,-0.8 -0.7,-0.5 h -0.9 -0.3 l -0.8,0.6 -0.5,0.7 v 0.9 0.3 l 0.6,0.8 0.7,0.5 h 0.9 m -4.2,-8.1 h 0.9 l 0.8,0.5 0.5,0.8 v 0.3 0.9 l -0.5,0.7 -0.8,0.6 h -0.2 -1 l -0.7,-0.5 -0.5,-0.8 -0.1,-0.3 0.1,-0.9 0.4,-0.7 1.1,-0.6 1.4,-0.4 1.6,-0.1 1,0.4 0.5,0.8 0.1,0.6 v 0.9 l -0.5,0.4 m -228.2,504.6 -2,-4.7 -2.3,3.9 m 4.3,0.8 -5.4,-3.2 m 2.5,5.1 0.2,0.2 0.4,0.5 0.1,0.5 v 0.6 l -0.6,1.1 -0.6,0.3 -0.4,0.1 h -0.7 l -0.5,-0.3 -0.4,-0.6 -0.4,-1 -1.1,-4.1 -2.1,3.6 m -18.2,56.5 0.5,0.5 1.1,0.6 -6,1.9 m 5.3,0.1 0.3,-0.1 0.7,0.1 0.3,0.2 0.5,0.5 0.4,1.1 -0.2,0.7 -0.1,0.4 -0.5,0.4 -0.6,0.2 -0.7,-0.1 -1,-0.3 -3.8,-2 1.3,4.1 m 6.8,0.6 -0.6,-0.8 -0.6,-0.1 -0.6,0.2 -0.5,0.5 -0.1,0.6 0.1,1.3 v 0.9 l -0.4,0.8 -0.5,0.4 -0.9,0.3 -0.6,-0.1 -0.4,-0.2 -0.6,-0.8 -0.3,-1.1 v -1 l 0.2,-0.3 0.5,-0.5 0.8,-0.3 0.7,0.1 0.8,0.4 0.5,0.8 0.7,1 0.4,0.5 0.7,0.1 0.6,-0.2 0.4,-0.4 0.1,-1 -0.4,-1.3 m 450.4,-476.3 3.9,-5.8 m 0.2,6.4 -4.1,-0.6 m -1.7,-0.3 -3.3,-0.5 2.1,-2.1 -0.9,-0.1 -0.5,-0.4 -0.3,-0.4 -0.1,-0.9 0.1,-0.6 0.4,-0.8 0.7,-0.5 0.9,-0.2 0.9,0.1 0.9,0.5 0.2,0.3 0.2,0.6 m 16.5,36.2 6.4,2.8 m -6.3,1.4 -0.1,-4.2 m -0.3,-4.2 4.3,2.8 -0.1,-4.5 m -4.2,1.7 6.3,-0.3 m -22.7,64.5 0.1,-0.6 -0.3,-1.3 5.3,3.5 m -3.8,-6.1 -0.3,0.9 0.5,1 1.1,1.1 0.7,0.5 1.4,0.6 h 1.1 l 0.8,-0.6 0.3,-0.5 0.2,-0.9 -0.4,-1 -1.1,-1.1 -0.7,-0.5 -1.5,-0.6 h -1 l -0.8,0.6 -0.2,0.4 m 3,-2 v -0.7 l -0.2,-1.2 5.3,3.4 m -165.4,-22.9 -0.6,-5.2 -3.4,3 m 4,2.2 -4.2,-4.7 m 1,7.4 0.5,-0.8 -0.2,-0.7 -0.4,-0.4 -0.6,-0.3 -0.7,0.2 -1.1,0.6 -0.8,0.3 h -0.9 l -0.6,-0.3 -0.6,-0.6 -0.2,-0.7 0.1,-0.4 0.4,-0.8 0.9,-0.8 0.9,-0.4 h 0.4 l 0.6,0.3 0.6,0.6 0.2,0.7 v 0.8 l -0.5,0.9 -0.7,1 -0.2,0.6 0.1,0.7 0.4,0.4 0.6,0.3 0.9,-0.4 1,-0.9 m 86.8,101.3 0.1,-0.3 0.5,-0.4 0.4,-0.2 h 0.7 l 1.1,0.4 0.5,0.5 0.1,0.4 0.1,0.7 -0.3,0.6 -0.5,0.4 -0.9,0.6 -3.9,1.7 3.9,1.5 m 5.1,-4.7 -0.9,-0.1 -0.9,0.7 -0.9,1.2 -0.3,0.9 -0.3,1.5 0.2,1 0.8,0.6 0.5,0.3 h 1 l 0.9,-0.6 0.8,-1.3 0.3,-0.8 0.3,-1.5 -0.2,-1.1 -0.7,-0.6 -0.4,-0.1 m 52.7,-30.1 h -0.3 l -0.6,-0.2 -0.3,-0.3 -0.4,-0.6 -0.1,-1.2 0.3,-0.6 0.3,-0.3 0.5,-0.4 h 0.6 l 0.7,0.2 0.9,0.6 3.2,2.7 -0.3,-4.2 m -6.7,-4.2 0.3,3 2.7,0.1 -0.3,-0.3 -0.4,-0.9 -0.1,-0.9 0.2,-0.9 0.6,-0.6 0.9,-0.4 h 0.6 l 0.9,0.2 0.6,0.5 0.4,0.9 0.1,0.9 -0.2,0.9 -0.3,0.3 -0.6,0.4 m -24.1,32.9 -0.2,-0.2 -0.2,-0.6 0.1,-0.5 0.2,-0.6 1,-0.8 0.6,-0.1 h 0.4 l 0.6,0.3 0.4,0.4 0.2,0.7 0.1,1.1 -0.3,4.2 3.2,-2.7 m -0.9,-7.6 0.5,5.1 3.4,-2.9 m -3.9,-2.2 4.1,4.8 m -158.7,-52.9 -0.7,3.3 -1.9,-2.3 -0.2,0.9 -0.5,0.5 -0.3,0.2 -1,0.1 -0.5,-0.1 -0.9,-0.5 -0.4,-0.7 -0.1,-1 0.2,-0.8 0.5,-0.9 0.3,-0.2 0.7,-0.1 m 3,9.8 0.7,-2.9 -2.6,-0.9 0.2,0.3 0.1,1 -0.2,0.9 -0.5,0.8 -0.7,0.4 -0.9,0.1 -0.6,-0.1 -0.8,-0.5 -0.5,-0.7 -0.1,-1 0.2,-0.8 0.5,-0.8 0.4,-0.3 0.6,-0.1 m 35.7,36 0.6,-0.3 1,-0.7 -0.8,6.2 m 2.6,-6.2 3.2,0.4 -2.1,2.1 0.9,0.1 0.6,0.4 0.3,0.4 0.1,0.9 v 0.6 l -0.5,0.8 -0.6,0.6 -1,0.1 -0.8,-0.1 -0.9,-0.4 -0.3,-0.3 -0.2,-0.7 m 10,-3.8 -3.8,5.8 m -0.4,-6.4 4.2,0.6 m 5.2,-197.3 h 0.6 l 0.7,-0.7 0.3,-0.5 0.1,-1 -0.6,-0.9 -1.2,-0.9 -1.4,-0.7 -1.2,-0.2 -0.8,0.3 -0.6,0.7 -0.2,0.2 -0.1,1 0.3,0.8 0.7,0.6 0.3,0.2 0.9,0.1 0.8,-0.3 0.7,-0.7 0.1,-0.3 0.1,-0.9 -0.3,-0.8 -0.7,-0.7 m -1.9,9 -0.7,-0.6 -0.3,-0.8 0.1,-1 0.2,-0.2 0.6,-0.7 0.8,-0.3 1,0.1 0.2,0.1 0.7,0.7 0.3,0.8 -0.1,0.9 -0.1,0.3 -0.7,0.7 -0.8,0.3 -1.2,-0.3 -1.4,-0.6 -1.2,-0.9 -0.5,-1 0.1,-0.9 0.2,-0.5 0.7,-0.7 h 0.7 m -287.1,-50.7 0.7,0.1 0.8,-0.6 0.3,-0.5 0.3,-0.9 -0.4,-1 -1.1,-1.1 -1.2,-0.8 -1.2,-0.5 -0.8,0.2 -0.8,0.5 -0.2,0.3 -0.2,0.9 0.1,0.8 0.6,0.8 0.3,0.2 0.9,0.2 0.8,-0.1 0.8,-0.6 0.1,-0.2 0.3,-1 -0.2,-0.8 -0.5,-0.7 m -2.2,8.9 0.6,0.1 0.8,-0.5 0.3,-0.5 0.3,-0.9 -0.4,-1 -1.1,-1.1 -1.2,-0.9 -1.2,-0.4 -0.8,0.1 -0.8,0.6 -0.1,0.3 -0.3,0.9 0.2,0.8 0.5,0.8 0.3,0.1 0.9,0.3 0.8,-0.2 0.8,-0.5 0.2,-0.3 0.2,-0.9 -0.1,-0.8 -0.6,-0.8 m 79.7,55.1 -3,0.2 -0.1,2.8 0.3,-0.4 0.9,-0.3 0.9,-0.1 0.9,0.2 0.6,0.5 0.4,0.9 0.1,0.6 -0.2,0.9 -0.6,0.7 -0.9,0.4 h -0.9 l -0.9,-0.2 -0.3,-0.3 -0.4,-0.5 m 8.5,-5.9 -3,0.3 -0.1,2.7 0.3,-0.3 0.9,-0.4 0.9,-0.1 0.9,0.2 0.7,0.6 0.3,0.8 0.1,0.6 -0.2,0.9 -0.6,0.7 -0.8,0.4 -0.9,0.1 -1,-0.3 -0.3,-0.2 -0.3,-0.6 m 23.8,-30.9 -0.4,-0.6 -0.9,-0.9 6.3,-0.3 m -6.8,-3.9 4.4,2.8 -0.2,-4.5 m -4.2,1.7 6.3,-0.3 m -6.4,-4.2 0.3,0.9 1,0.5 1.5,0.3 0.9,-0.1 1.5,-0.3 0.8,-0.7 0.3,-0.9 v -0.6 l -0.4,-0.9 -0.9,-0.5 -1.5,-0.3 -0.9,0.1 -1.5,0.4 -0.9,0.6 -0.2,0.9 v 0.5 m 10.6,-72.9 -0.6,0.1 -0.6,0.7 -0.2,0.6 v 1 l 0.7,0.8 1.4,0.7 1.4,0.5 1.2,0.1 0.8,-0.4 0.5,-0.8 0.1,-0.3 v -0.9 l -0.4,-0.8 -0.8,-0.5 -0.2,-0.1 h -1 l -0.7,0.4 -0.6,0.7 -0.1,0.3 v 1 l 0.4,0.7 0.8,0.6 m -2.1,-7.5 0.1,0.9 0.4,0.5 0.6,0.2 0.7,-0.1 0.4,-0.5 0.7,-1.1 0.5,-0.7 0.8,-0.4 0.6,-0.1 0.9,0.2 0.5,0.5 0.2,0.4 v 0.9 l -0.4,1.2 -0.5,0.7 -0.4,0.2 -0.6,0.1 -0.9,-0.2 -0.5,-0.5 -0.4,-0.7 v -1 l 0.1,-1.2 -0.1,-0.7 -0.5,-0.5 -0.6,-0.1 -0.7,0.1 -0.5,0.7 -0.4,1.3 m -43.2,-28.2 3.3,-6.1 m 0.9,6.4 -4.2,-0.3 m -2.7,-0.1 0.9,-0.3 0.4,-0.6 V 35 l -0.3,-0.6 -0.5,-0.3 -1.2,-0.4 -0.9,-0.3 -0.6,-0.7 -0.2,-0.6 v -0.9 l 0.4,-0.6 0.3,-0.2 0.9,-0.3 1.2,0.1 0.9,0.3 0.3,0.4 0.2,0.6 v 0.9 l -0.4,0.5 -0.6,0.6 -0.9,0.3 -1.2,0.2 -0.7,0.3 -0.3,0.5 v 0.6 l 0.2,0.7 0.9,0.3 1.4,0.1 m -69.9,11.9 -0.1,0.7 0.2,1.3 -5.1,-3.8 m 3.5,6.3 0.3,-0.9 -0.4,-1.1 -1,-1.1 -0.7,-0.5 -1.4,-0.7 h -1.1 l -0.8,0.5 -0.3,0.5 -0.3,0.9 0.3,1 1.1,1.2 0.7,0.5 1.4,0.6 1,0.1 0.8,-0.6 0.3,-0.3 m -4.2,5.6 1.8,-2.4 -2,-1.9 0.1,0.5 -0.3,0.9 -0.5,0.7 -0.8,0.5 -0.9,0.2 -0.9,-0.3 -0.4,-0.4 -0.6,-0.8 -0.1,-0.8 0.3,-0.9 0.5,-0.7 0.8,-0.6 h 0.4 l 0.7,0.1 m 4,21.7 -0.2,-0.7 -0.7,-0.6 -0.6,-0.1 h -0.9 l -0.9,0.7 -0.7,1.3 -0.4,1.5 -0.1,1.2 0.4,0.7 0.8,0.6 0.2,0.1 h 1 l 0.7,-0.4 0.6,-0.8 0.1,-0.3 v -1 l -0.4,-0.7 -0.8,-0.6 h -0.3 -0.9 l -0.8,0.4 -0.5,0.8 m 9.4,-1.5 -2.8,-0.9 -1.1,2.5 0.4,-0.2 h 0.9 l 0.9,0.2 0.7,0.6 0.4,0.7 0.1,1 -0.2,0.5 -0.6,0.8 -0.7,0.4 h -1 l -0.8,-0.2 -0.8,-0.6 -0.2,-0.4 -0.1,-0.6 m 9.8,639.6 h 0.6 l 1.2,-0.6 -2.2,5.9 m 6.3,-4.7 -4.2,2.9 4.2,1.6 m 0,-4.5 -2.1,5.9 m 5.1,-4.7 3.1,1.1 -2.5,1.6 0.9,0.3 0.4,0.5 0.2,0.4 v 1 l -0.2,0.5 -0.6,0.8 -0.8,0.3 h -0.9 l -0.9,-0.3 -0.7,-0.6 -0.2,-0.4 -0.1,-0.6 m 73.4,-11.9 -0.7,7 m -3.3,-5.5 4,-1.5 m 2.8,-1 -0.8,0.6 -0.2,1.1 0.2,1.5 0.3,0.8 0.8,1.3 0.9,0.7 0.9,-0.1 0.6,-0.2 0.7,-0.5 0.3,-1.1 -0.3,-1.5 -0.3,-0.9 -0.8,-1.3 -0.8,-0.6 h -1 l -0.4,0.2 m 227.8,-632 -6,-3.5 m 6.3,-0.7 -0.3,4.2 m -0.3,2.6 -0.2,-0.9 -0.6,-0.3 -0.5,-0.1 -0.7,0.3 -0.3,0.5 -0.4,1.2 -0.4,0.9 -0.7,0.5 -0.6,0.3 -0.9,-0.1 -0.6,-0.4 -0.2,-0.3 -0.2,-0.9 0.1,-1.2 0.3,-0.9 0.4,-0.3 0.6,-0.2 0.9,0.1 0.6,0.3 0.5,0.7 0.2,0.9 0.2,1.2 0.3,0.6 0.5,0.4 h 0.6 l 0.7,-0.2 0.3,-0.9 0.2,-1.3 m 13.8,-36.8 6.6,-2.3 m -3.6,5.3 -3,-3 m -2.1,-5 0.8,-0.4 h 0.9 l 0.8,0.4 0.2,0.2 0.5,0.8 v 0.9 l -0.4,0.8 -0.3,0.3 -0.8,0.4 h -0.9 l -0.8,-0.4 -0.2,-0.3 -0.4,-0.8 v -0.9 l 0.6,-1 1,-1.1 1.3,-0.8 1.1,-0.2 0.8,0.4 0.5,0.4 0.4,0.9 -0.2,0.6 m 97.6,150.4 -0.5,6.9 m -3.4,-5.4 3.9,-1.5 m 4.4,-1.8 -2.8,1.1 0.7,2.7 0.2,-0.4 0.7,-0.6 0.8,-0.4 h 1 l 0.8,0.3 0.6,0.7 0.2,0.6 0.1,0.9 -0.4,0.8 -0.7,0.6 -0.8,0.4 h -1 l -0.4,-0.2 -0.5,-0.4 m 23.9,-69 0.2,0.9 0.5,0.4 h 0.6 l 0.7,-0.2 0.3,-0.6 0.4,-1.1 0.4,-0.9 0.7,-0.5 0.6,-0.3 0.9,0.1 0.6,0.4 0.3,0.3 0.2,0.9 -0.2,1.2 -0.4,0.9 -0.3,0.3 -0.6,0.2 -0.9,-0.1 -0.6,-0.3 -0.5,-0.7 -0.2,-0.9 -0.2,-1.3 -0.2,-0.6 -0.6,-0.3 -0.6,-0.1 -0.6,0.2 -0.4,0.9 -0.1,1.3 m 2.9,-7.6 0.8,0.4 0.6,0.6 0.2,1 -0.1,0.3 -0.4,0.8 -0.6,0.6 -0.9,0.2 -0.3,-0.1 -0.9,-0.3 -0.5,-0.7 -0.3,-0.9 0.1,-0.3 0.4,-0.9 0.6,-0.5 1.3,-0.2 1.4,0.2 1.5,0.4 0.8,0.7 0.2,0.9 v 0.6 l -0.4,0.9 -0.6,0.2 m -76.7,-77.3 -0.3,-0.9 0.1,-0.9 0.6,-0.7 0.2,-0.2 0.9,-0.3 0.8,0.1 0.8,0.5 0.2,0.2 0.3,0.9 -0.1,0.9 -0.5,0.8 -0.3,0.2 -0.9,0.3 -0.8,-0.2 -1,-0.7 -0.9,-1.2 -0.7,-1.4 v -1.1 l 0.5,-0.8 0.5,-0.3 0.9,-0.3 0.6,0.3 m -1.3,6 -0.3,0.6 -0.2,1.2 -3.8,-5 m 60.9,6.2 -0.6,-0.1 -1.3,0.4 3.1,-5.5 m -7,3.6 4.7,-2.2 -3.9,-2.2 m -0.8,4.4 3.1,-5.5 m -8.1,2.7 4.7,-2.2 -4,-2.2 m -0.7,4.4 3.1,-5.5"
       id="nums_003"
       stroke="#000000"
       stroke-width="1" />
    <path
       d="m 1225.5,182.2 -63.8,5.7 23.8,38.9 45.3,-31.3 -3.3,-22.7 22.8,-35.8 21.9,-6.5 7.6,-21.6 36.7,-20.8 22.4,4.6 18.1,10.1 8.7,34 -10.9,17.7 -69.1,55.3 -14.4,66.5 12.2,-56.2 15.1,-6.1 v 0 l 17.4,-17.9 48.1,-7.4 22,11.8 27.3,-57.7 -12.4,-29.5 6.1,-68.8 17.4,-26.8 43,42.8 50.4,-38.4 65.5,36.5 -13.5,130.1 -49.2,19.5 27.4,-10.9 h -0.1 l 18.2,18 2.7,68.3 -33.7,51.4 2.9,35.4 -41.1,34.6 -16.6,9.4 -27,-11 -5.4,-18.3 -79.2,5 v 0 l -26.2,-18.4 16.8,-75.5 40,-35.6 -34.9,31 -11.8,-4.7 v 0 l 3.1,22.7 -23.1,35.7 -22,6.4 88.6,58.6 45.8,26.5 -5.9,23.2 -3.3,2.6 -24,-0.7 -15.6,14.6 -3.3,-0.1 -15,-15.3 -91.3,45 21.6,5.1 2,3 -3.4,21.9 -56.8,5.9 16.4,9.5 3.7,27.9 -13.3,13.4 30.9,-13.2 7.3,-21.7 3.3,-2 22.5,4.2 -8,-25.2 1.4,-4.6 20.7,-16.4 6.1,-20.5 32.6,-18 20.5,5.8 13.8,14.2 -3,31.2 -16.1,11.4 35,-9.2 24.2,12.9 26.9,49 -2.1,27.3 -21.8,14.9 -53,-0.1 -21.6,-15.1 -23.5,11.7 -4.8,-0.7 -19.1,-18.1 0.3,21.4 -25.8,26.8 -21.3,0.5 4.6,18.8 -18,23.7 -19.3,0.6 -98.4,35.8 -60.8,-21.9 -12.5,-40 0.4,-30.2 32.5,-54.9 26.2,-14.8 -2.1,-25.5 2.4,-3.9 23.5,-9.8 11.5,-20.7 3.7,-1.5 22.5,7.2 -7.9,-19.6 14.4,-33.6 19.7,-7.8 -20.6,-11.4 -16,-41.2 7.4,-22.3 -20.2,-6.8 -16.6,-33.2 6.7,-20.2 -24.6,-10.9 -29.1,-46.1 0.7,-26.8 -25,-92.3 41.9,-61 -46.8,-14.4 37,-49.9 125.4,7.3 -22.8,73.2 z"
       id="coupes_003"
       stroke="#ff0000"
       stroke-width="1.27"
       sodipodi:nodetypes="ccccccccccccccccccccccccccccccccccccccccccccccccccccccccccccccccccccccccccccccccccccccccccccccccccccccccccccccccccccccccccccccc" />
    <path
       d="m 1335,513.9 59.2,-32.7 m -5.3,56.8 -53.9,-24.1 m 53.9,24.1 84,80 m -96.4,-0.3 -41.5,-103.8 m 41.5,103.8 -55.6,-57.6 m 8.2,50.5 -8.2,-50.5 m 8.2,50.5 -41.3,-31 m -5.5,79.7 -25.4,-66.5 m 25.4,66.5 -145.3,-82.9 m 0,0 119.9,16.4 m -58.4,-70.6 58.4,70.6 m -119.9,-16.4 23.8,-39.2 m 37.7,-15 51.6,19.8 m 36.6,-35.9 20.2,30 m -82.2,-74.9 62,44.9 m -91.2,-119.8 91.2,119.8 m -91.2,-119.8 182.5,74.8 m -182.5,-74.8 115.2,-34.6 m 0,0 67.3,109.4 m -182.5,-74.8 75.8,-110 m 0,0 39.4,75.4 m -145.3,-25.6 105.9,-49.8 m -75.8,110 -30.1,-60.2 m 105.9,-49.8 81.4,10.6 m 0,0 -42,64.8 m -39.4,-75.4 27.3,-62.3 m 0,0 54.1,72.9 m -54.1,-72.9 100.8,46.6 m 0,0 -46.7,26.3 m -54.1,-72.9 87.5,-13.5 m 0,0 13.3,60.1 m -234,65.5 20.1,-99.3 m 213.8,183.5 12.6,51.6 m 0,0 -33.9,-0.8 M 1249.6,702.4 1137,576.4 m -24.6,-334.1 73.1,-15.5 m -73.1,15.5 49.3,-54.4 m -74.3,-37.9 74.3,37.9 m 69.1,7.6 40.5,80.8 m -40.5,-80.8 54.9,14.3 m -54.9,-14.3 41.4,-65 m 0,0 13.5,79.3 m -13.5,-79.3 82.6,24 m -82.6,-24 66.7,-37.8 m 0,0 15.9,61.8 m -105.2,547.9 -171.7,-26.1 m 0,0 59.1,-99.9 m 249.1,-375.9 134.6,7.7 m 48.2,75.4 -169.5,-23 m 121.3,-52.4 45.5,7.1 m -31,119.7 -135.8,-74.4 m 135.8,74.4 -175.8,-38.8 m 88.6,88.9 -88.6,-88.9 m 175.8,38.8 -38.2,70 m 0,0 -49,-19.9 m 0,0 -105.4,-13.4 m 70.8,-228.9 107.3,65.4 M 1129.3,89 l 32.4,98.9 m -32.4,-98.9 96.2,93.2 m -96.2,-93.2 92.8,16.2 M 1129.3,89 1244.9,32 m -115.6,57 -9.8,-64.3 m 293.9,118.1 54.1,-82.3 m -54.1,82.3 11.1,-125.1 m 43,42.8 102.4,128.2 M 1467.5,60.5 1583.4,58.6"
       id="plisM_003"
       stroke="#a52a2a"
       stroke-dasharray="4" />
    <path
       d="m 1394.2,481.2 -5.3,56.8 m 84,80 L 1335,513.9 m 88.9,14.9 49,89.2 m 0,0 -96.4,-0.3 m -55.6,-57.6 14.1,-46.2 m 41.5,103.8 -47.4,-7.1 m -41.3,-31 33.1,-19.5 m 8.2,50.5 -72.2,-17.8 m 72.2,17.8 -46.8,48.7 m -145.3,-82.9 61.5,-54.2 m -37.7,15 37.7,-15 m 51.6,19.8 6.8,50.8 m -58.4,-70.6 88.2,-16.1 m 0,0 -36.6,35.9 m -51.6,-19.8 26.2,-61 m 0,0 -29.2,-74.9 m -10,-159.5 85.8,49.5 m 128,134 -21.3,50.8 m 67.1,-24.3 -33.2,25.1 m -129.6,197.4 -32.7,43.1 m -84.2,-376.3 -53,-83.8 m 137.2,460.1 -159.2,13.9 m 430.3,-508.1 -121.3,52.4 m 121.3,-52.4 48.2,75.4 m -33.7,51.4 -87.2,50.1 m 19.5,-324.6 53.2,147.7"
       id="plisV_003"
       stroke="#008000"
       stroke-dasharray="4, 1, 1, 1"
       stroke-width="1.27" />
    <path
       d="m 1389.5,507.6 4,4 m 0,-4 -4,4 m 12.4,52.3 4,4 m 0,-4 -4,4 m 44.5,3.5 4,4 m 0,-4 -4,4 m -23.7,40.5 4,4 m 0,-4 -4,4 M 1326,535 l 4,4 m 0,-4 -4,4 m 24.8,73.2 4,4 m 0,-4 -4,4 m -48.4,-48.4 4,4 m 0,-4 -4,4 m -11.4,27.9 4,4 m 0,-4 -4,4 m 12.7,29.3 4,4 m 0,-4 -4,4 m -137.9,-89.7 4,4 m 0,-4 -4,4 m 11.9,-23.6 4,4 m 0,-4 -4,4 m 73.8,33.7 4,4 m 0,-4 -4,4 m -10.9,-57.3 4,4 m 0,-4 -4,4 m 25.8,5.9 4,4 m 0,-4 -4,4 m -56.8,-36.3 4,4 m 0,-4 -4,4 m -1.5,-72 4,4 m 0,-4 -4,4 m 18.3,-176.2 4,4 m 0,-4 -4,4 m 160.3,180.2 4,4 m 0,-4 -4,4 m 39.8,9.6 4,4 m 0,-4 -4,4 m -162.5,227.6 4,4 m 0,-4 -4,4 m -127.1,-400.7 4,4 m 0,-4 -4,4 m 31.1,421.2 4,4 m 0,-4 -4,4 m 290,-479 4,4 m 0,-4 -4,4 m 84.8,7.5 4,4 m 0,-4 -4,4 m -53.2,110.1 4,4 m 0,-4 -4,4 m 2.5,-229.7 4,4 m 0,-4 -4,4"
       id="marqueV_003"
       stroke="#008000" />
    <path
       d="m 1315.4,294.8 -0.8,-1.5 -2.2,-0.7 h -1.5 l -2.3,0.7 -1.5,2.3 -0.7,3.7 v 3.8 l 0.7,3 1.5,1.5 2.3,0.7 h 0.7 l 2.3,-0.7 1.5,-1.5 0.7,-2.3 v -0.7 l -0.7,-2.3 -1.5,-1.5 -2.3,-0.7 h -0.7 l -2.3,0.7 -1.5,1.5 -0.7,2.3"
       id="titre_6"
       stroke="#4b0082" />
  </g>
</svg>
