<?xml version="1.0" encoding="UTF-8" standalone="no"?>
<svg
   xmlns:dc="http://purl.org/dc/elements/1.1/"
   xmlns:cc="http://creativecommons.org/ns#"
   xmlns:rdf="http://www.w3.org/1999/02/22-rdf-syntax-ns#"
   xmlns:svg="http://www.w3.org/2000/svg"
   xmlns="http://www.w3.org/2000/svg"
   xmlns:sodipodi="http://sodipodi.sourceforge.net/DTD/sodipodi-0.dtd"
   xmlns:inkscape="http://www.inkscape.org/namespaces/inkscape"
   width="771.5293mm"
   height="769.30963mm"
   viewBox="0 0 771.52927 769.30967"
   version="1.1"
   id="svg34"
   sodipodi:docname="sq0004.svg"
   inkscape:version="1.0.1 (3bc2e813f5, 2020-09-07)"
   inkscape:export-filename="/home/gilb-r/Documents/Designs2020/MEUBLES/sq0004.png"
   inkscape:export-xdpi="96"
   inkscape:export-ydpi="96">
  <metadata
     id="metadata40">
    <rdf:RDF>
      <cc:Work
         rdf:about="">
        <dc:format>image/svg+xml</dc:format>
        <dc:type
           rdf:resource="http://purl.org/dc/dcmitype/StillImage" />
        <dc:title></dc:title>
      </cc:Work>
    </rdf:RDF>
  </metadata>
  <defs
     id="defs38">
    <rect
       x="189.25671"
       y="386.4476"
       width="7.3189111"
       height="14.015785"
       id="rect44" />
  </defs>
  <sodipodi:namedview
     pagecolor="#ffffff"
     bordercolor="#666666"
     borderopacity="1"
     objecttolerance="10"
     gridtolerance="10"
     guidetolerance="10"
     inkscape:pageopacity="0"
     inkscape:pageshadow="2"
     inkscape:window-width="1920"
     inkscape:window-height="1016"
     id="namedview36"
     showgrid="false"
     inkscape:zoom="0.25"
     inkscape:cx="1082.1713"
     inkscape:cy="1440.3088"
     inkscape:window-x="0"
     inkscape:window-y="27"
     inkscape:window-maximized="1"
     inkscape:current-layer="svg34"
     inkscape:snap-global="false" />
  <text
     xml:space="preserve"
     id="text42"
     style="font-style:normal;font-variant:normal;font-weight:normal;font-stretch:normal;font-size:22.5778px;line-height:1.25;font-family:sans-serif;-inkscape-font-specification:'sans-serif, Normal';font-variant-ligatures:normal;font-variant-caps:normal;font-variant-numeric:normal;font-variant-east-asian:normal;white-space:pre;shape-inside:url(#rect44);fill:#000000;fill-opacity:1;stroke:none;"
     transform="translate(-112.35698,206.7711)"><tspan
       style="visibility:hidden"
       x="189.25586"
       y="420.43895"><tspan
         style="font-style:normal;font-variant:normal;font-weight:normal;font-stretch:normal;font-size:22.5778px;font-family:sans-serif;-inkscape-font-specification:'sans-serif, Normal';font-variant-ligatures:normal;font-variant-caps:normal;font-variant-numeric:normal;font-variant-east-asian:normal">A</tspan></tspan></text>
  <g
     id="g96"
     transform="rotate(-90,531.11016,264.54141)">
    <g
       id="g8"
       style="fill:none;stroke:#000000;stroke-width:2;stroke-opacity:1">
      <path
         d="m 440.2591,102.0629 0.0393,2.8134 3.8995,4.4916 12.4493,12.8632 17.7048,-1.4558 0.2404,0.018 V 60.6372 h 5.9998 v 60.6354 l 0.2601,0.0212 5.1786,-0.6003 10.0399,-1.2169 h 67.7294 V 59.7392 H 569.8 v 59.7374 h 83.2081 V 59.7392 h 5.9997 v 59.7374 h 67.7294 l 10.04,1.2169 1.7223,0.1996 V 60.647 h 5.9998 v 60.444 l 3.9568,-0.3157 17.7048,1.4558 12.4493,-12.8632 3.8995,-4.4916 0.0392,-2.8134 2.4176,-9.4085 7.112,-16.0283 2.2001,-23.1304 -0.6363,-13.6695 1.001,-6.0145 L 792.9258,16.6254 791.156,1e-4 H 431.652 l -1.7698,16.6253 -1.7175,17.1863 1.0011,6.0145 -0.6363,13.6695 2.2,23.1304 7.112,16.0283 2.4176,9.4085"
         id="path6"
         style="fill:none;stroke:#000000;stroke-width:2;stroke-opacity:1" />
    </g>
    <text
       xml:space="preserve"
       style="font-style:normal;font-variant:normal;font-weight:normal;font-stretch:normal;font-size:22.5778px;line-height:1.25;font-family:sans-serif;-inkscape-font-specification:'sans-serif, Normal';font-variant-ligatures:normal;font-variant-caps:normal;font-variant-numeric:normal;font-variant-east-asian:normal;fill:#000000;fill-opacity:1;stroke:none;stroke-width:0.264583"
       x="599.31287"
       y="55.56876"
       id="text50"><tspan
         sodipodi:role="line"
         id="tspan76"
         x="599.31287"
         y="55.56876">B</tspan></text>
  </g>
  <g
     id="g108"
     transform="rotate(-90,1092.0543,550.01211)">
    <g
       id="g16"
       style="fill:none;stroke:#000000;stroke-width:2;stroke-opacity:1">
      <path
         d="m 1528.288,120.8599 19.0808,3.1177 17.7504,1.574 10.9289,93.4912 1.5873,7.8341 0.3198,1.6102 h 12.1432 V 117.2836 h 6.0012 v 111.2035 h 18.7934 l 9.587,-63.5462 8.78,-60.3525 -3.3803,-7.5029 -8.6905,-19.5623 3.6658,-17.6762 1.2942,-12.5829 -3.2033,-7.4381 L 1610.3193,27.8103 1584.4398,8e-4 h -242.8716 l -25.8795,27.8095 -12.6266,12.0157 -3.2033,7.4381 1.2943,12.5829 3.6658,17.6762 -8.6906,19.5623 -3.3803,7.5029 8.78,60.3525 9.5871,63.5462 h 15.0762 v -109.205 h 6.0012 v 109.205 h 15.8603 l 0.3198,-1.6102 1.5874,-7.8341 10.9289,-93.4912 17.7503,-1.574 19.0809,-3.1177 17.6799,-0.3825 V 60.4827 h 5.9993 v 59.8652 l 40.3105,-0.8717 h 2.5885 l 40.3105,0.8717 V 60.4827 h 5.9992 v 59.9947 l 17.68,0.3825"
         id="path14"
         style="fill:none;stroke:#000000;stroke-width:2;stroke-opacity:1" />
    </g>
    <text
       xml:space="preserve"
       style="font-style:normal;font-variant:normal;font-weight:normal;font-stretch:normal;font-size:22.5778px;line-height:1.25;font-family:sans-serif;-inkscape-font-specification:'sans-serif, Normal';font-variant-ligatures:normal;font-variant-caps:normal;font-variant-numeric:normal;font-variant-east-asian:normal;fill:#000000;fill-opacity:1;stroke:none;stroke-width:0.264583"
       x="1448.7882"
       y="62.60289"
       id="text54"><tspan
         sodipodi:role="line"
         id="tspan52"
         x="1448.7882"
         y="62.60289"
         style="font-style:normal;font-variant:normal;font-weight:normal;font-stretch:normal;font-size:22.5778px;font-family:sans-serif;-inkscape-font-specification:'sans-serif, Normal';font-variant-ligatures:normal;font-variant-caps:normal;font-variant-numeric:normal;font-variant-east-asian:normal;stroke-width:0.264583">D</tspan></text>
  </g>
  <g
     id="g132"
     transform="rotate(-90,61.005051,698.70575)">
    <g
       id="g20"
       style="fill:none;stroke:#000000;stroke-width:2;stroke-opacity:1">
      <path
         d="m 29.6755,664.2365 -18.9674,14.2902 -1.6065,2.9523 0.4011,7.0438 4.2821,27.6798 L 0.8444,743.367 0,745.0458 l 2.2142,12.3928 0.4693,2.5412 19.7957,107.2075 h 36.1497 l 3.7124,-31.0975 8.4458,-71.4469 34.1119,-2.7818 14.2441,-2.4108 66.0919,-1.2736 h 0.7381 l 66.0918,1.2736 14.2441,2.4108 34.112,2.7818 8.4457,71.4469 3.7124,31.0975 h 36.1497 l 20.265,-109.7487 2.2142,-12.3928 -0.8443,-1.6788 -12.9404,-27.1644 4.282,-27.6798 0.4011,-7.0438 -1.6065,-2.9523 -22.3027,-16.8013 -0.9126,-0.8604 v 97.1171 h -6.0008 v -102.759 l -17.5715,-16.5224 h -65.6366 v 60.3357 h -5.9988 V 638.7007 H 124.8832 v 60.6365 h -5.9988 V 638.7007 H 57.4957 l -21.8194,20.5177 v 100.7614 h -6.0008 v -95.7433"
         id="path18"
         style="fill:none;stroke:#000000;stroke-width:2;stroke-opacity:1" />
    </g>
    <text
       xml:space="preserve"
       style="font-style:normal;font-variant:normal;font-weight:normal;font-stretch:normal;font-size:22.5778px;line-height:1.25;font-family:sans-serif;-inkscape-font-specification:'sans-serif, Normal';font-variant-ligatures:normal;font-variant-caps:normal;font-variant-numeric:normal;font-variant-east-asian:normal;fill:#000000;fill-opacity:1;stroke:none;stroke-width:0.264583"
       x="167.34201"
       y="701.1734"
       id="text58"><tspan
         sodipodi:role="line"
         id="tspan56"
         x="167.34201"
         y="701.1734"
         style="font-style:normal;font-variant:normal;font-weight:normal;font-stretch:normal;font-size:22.5778px;font-family:sans-serif;-inkscape-font-specification:'sans-serif, Normal';font-variant-ligatures:normal;font-variant-caps:normal;font-variant-numeric:normal;font-variant-east-asian:normal;stroke-width:0.264583">1</tspan></text>
  </g>
  <g
     id="g126"
     transform="translate(-204.66708,-184.26456)">
    <g
       id="g24"
       style="fill:none;stroke:#000000;stroke-width:2;stroke-opacity:1">
      <path
         d="m 818.9926,676.7833 -15.787,-38.0822 h -40.1208 v 60.4816 h -6.0006 v -60.4816 h -83.2085 v 59.7367 h -5.9989 V 638.7011 H 550.6849 v 59.7367 h -6.0006 v -59.7367 h -83.2086 v 60.6544 h -5.9988 v -60.6544 h -35.8744 l -15.7871,38.0822 -0.3868,1.7417 -0.1926,0.5812 0.1926,1.0166 3.3449,35.1205 15.6718,23.0004 0.7827,0.9806 0.4103,0.4768 2.465,1.0904 27.5887,19.3623 24.3822,-1.9775 h 266.6596 l 24.3823,1.9775 27.5886,-19.3623 2.4651,-1.0904 0.4102,-0.4768 0.7827,-0.9806 15.6719,-23.0004 3.3449,-35.1205 0.1925,-1.0166 -0.1925,-0.5812 -0.3869,-1.7417"
         id="path22"
         style="fill:none;stroke:#000000;stroke-width:2;stroke-opacity:1" />
    </g>
    <text
       xml:space="preserve"
       style="font-style:normal;font-variant:normal;font-weight:normal;font-stretch:normal;font-size:22.5778px;line-height:1.25;font-family:sans-serif;-inkscape-font-specification:'sans-serif, Normal';font-variant-ligatures:normal;font-variant-caps:normal;font-variant-numeric:normal;font-variant-east-asian:normal;fill:#000000;fill-opacity:1;stroke:none;stroke-width:0.264583"
       x="599.6875"
       y="704.94995"
       id="text62"><tspan
         sodipodi:role="line"
         id="tspan60"
         x="599.6875"
         y="704.94995"
         style="font-style:normal;font-variant:normal;font-weight:normal;font-stretch:normal;font-size:22.5778px;font-family:sans-serif;-inkscape-font-specification:'sans-serif, Normal';font-variant-ligatures:normal;font-variant-caps:normal;font-variant-numeric:normal;font-variant-east-asian:normal;stroke-width:0.264583">2</tspan></text>
  </g>
  <g
     id="g120"
     transform="translate(-630.46732,-56.023308)">
    <g
       id="g28"
       style="fill:none;stroke:#000000;stroke-width:2;stroke-opacity:1">
      <path
         d="m 1243.7248,671.9845 -13.7962,-33.2834 h -41.0447 v 60.4813 h -6.0007 v -60.4813 h -83.2066 v 59.7371 h -6.0008 V 638.7011 H 976.4849 v 59.7371 h -6.0008 v -59.7371 h -83.2084 v 60.6543 h -5.9989 v -60.6543 h -36.7973 l -13.7963,33.2834 -1.4542,6.5413 -0.7263,2.1805 0.7263,3.8167 2.9228,30.6938 13.6954,20.1016 2.3589,2.9481 1.2325,1.4344 7.4136,3.2815 24.1128,16.921 21.309,-1.7282 h 269.8601 l 21.3089,1.7282 24.1129,-16.921 7.4135,-3.2815 1.2326,-1.4344 2.3588,-2.9481 13.6954,-20.1016 2.9229,-30.6938 0.7262,-3.8167 -0.7262,-2.1805 -1.4543,-6.5413"
         id="path26"
         style="fill:none;stroke:#000000;stroke-width:2;stroke-opacity:1" />
    </g>
    <text
       xml:space="preserve"
       style="font-style:normal;font-variant:normal;font-weight:normal;font-stretch:normal;font-size:22.5778px;line-height:1.25;font-family:sans-serif;-inkscape-font-specification:'sans-serif, Normal';font-variant-ligatures:normal;font-variant-caps:normal;font-variant-numeric:normal;font-variant-east-asian:normal;fill:#000000;fill-opacity:1;stroke:none;stroke-width:0.264583"
       x="1022.4278"
       y="706.03894"
       id="text66"><tspan
         sodipodi:role="line"
         id="tspan64"
         x="1022.4278"
         y="706.03894"
         style="font-style:normal;font-variant:normal;font-weight:normal;font-stretch:normal;font-size:22.5778px;font-family:sans-serif;-inkscape-font-specification:'sans-serif, Normal';font-variant-ligatures:normal;font-variant-caps:normal;font-variant-numeric:normal;font-variant-east-asian:normal;stroke-width:0.264583">3</tspan></text>
  </g>
  <g
     id="g114"
     transform="rotate(90,1138.7221,254.10328)">
    <g
       id="g32"
       style="fill:none;stroke:#000000;stroke-width:2;stroke-opacity:1">
      <path
         d="m 1396.2831,638.7 h -72.4925 l -10.7155,10.0769 v 109.2045 h -5.9993 V 654.4183 l -3.0607,2.8777 -22.8789,17.2354 -1.1165,2.4343 0.083,1.5599 -1.1043,4.8239 5.0537,32.673 -10.8578,22.7935 3.1075,6.0522 0.5369,1.7124 9.9101,52.2188 12.7023,68.3885 h 23.5602 l 4.2972,-82.7768 0.9883,-19.1613 1.2507,-0.1383 2.5645,-0.299 38.705,-3.142 33.1855,-2.7068 3.0445,-0.5146 14.1279,-0.2725 h 83.6574 l 14.128,0.2725 3.0444,0.5146 33.1856,2.7068 38.7049,3.142 2.5645,0.299 1.2507,0.1383 0.9884,19.1613 4.2972,82.7768 h 23.5601 l 12.7024,-68.3885 9.9101,-52.2188 0.5369,-1.7124 3.1074,-6.0522 -10.8578,-22.7935 5.0537,-32.673 -1.1043,-4.8239 0.083,-1.5599 -1.1165,-2.4343 -22.8789,-17.2354 -7.309,-6.8718 v 105.5601 h -5.9993 V 644.7828 l -6.4671,-6.0828 h -76.7409 v 60.3637 h -6.0014 V 638.7 h -117.1907 v 60.6484 h -6.0014 V 638.7"
         id="path30"
         style="fill:none;stroke:#000000;stroke-width:2;stroke-opacity:1" />
    </g>
    <text
       xml:space="preserve"
       style="font-style:normal;font-variant:normal;font-weight:normal;font-stretch:normal;font-size:22.5778px;line-height:1.25;font-family:sans-serif;-inkscape-font-specification:'sans-serif, Normal';font-variant-ligatures:normal;font-variant-caps:normal;font-variant-numeric:normal;font-variant-east-asian:normal;fill:#000000;fill-opacity:1;stroke:none;stroke-width:0.264583"
       x="1446.5594"
       y="707.57336"
       id="text70"><tspan
         sodipodi:role="line"
         id="tspan68"
         x="1446.5594"
         y="707.57336"
         style="font-style:normal;font-variant:normal;font-weight:normal;font-stretch:normal;font-size:22.5778px;font-family:sans-serif;-inkscape-font-specification:'sans-serif, Normal';font-variant-ligatures:normal;font-variant-caps:normal;font-variant-numeric:normal;font-variant-east-asian:normal;stroke-width:0.264583">4</tspan></text>
  </g>
  <g
     id="g102"
     transform="rotate(-90,809.35431,414.37676)">
    <g
       id="g12"
       style="fill:none;stroke:#000000;stroke-width:2;stroke-opacity:1">
      <path
         d="m 856.2008,76.5818 9.4873,21.3755 0.8806,3.4308 0.0148,1.025 1.4219,1.6384 17.1837,17.7561 15.2026,-1.2497 V 60.3377 h 6.0007 v 59.7266 l 3.239,-0.2673 1.6105,0.1295 1.2808,-0.1492 2.4862,-0.3018 h 74.5913 V 59.7391 h 5.9991 v 59.7364 h 83.2094 V 59.7391 h 5.9991 v 59.7364 h 74.5913 l 2.4863,0.3018 1.2808,0.1492 1.1332,-0.0902 V 60.364 h 5.9991 v 59.8872 l 18.9204,1.5564 17.1838,-17.7561 1.4219,-1.6384 0.015,-1.025 0.8807,-3.4308 9.4873,-21.3755 2.9323,-30.8498 -0.2755,-5.9055 0.4346,-2.5994 -0.743,-7.4258 -3.1733,-29.8002 h -360.357 l -3.1734,29.8002 -0.7429,7.4258 0.4346,2.5994 -0.2755,5.9055 2.9323,30.8498"
         id="path10"
         style="fill:none;stroke:#000000;stroke-width:2;stroke-opacity:1" />
    </g>
    <text
       xml:space="preserve"
       style="font-style:normal;font-variant:normal;font-weight:normal;font-stretch:normal;font-size:22.5778px;line-height:1.25;font-family:sans-serif;-inkscape-font-specification:'sans-serif, Normal';font-variant-ligatures:normal;font-variant-caps:normal;font-variant-numeric:normal;font-variant-east-asian:normal;fill:#000000;fill-opacity:1;stroke:none;stroke-width:0.264583"
       x="1018.9556"
       y="58.239071"
       id="text74"><tspan
         sodipodi:role="line"
         id="tspan78"
         x="1018.9556"
         y="58.239071">C</tspan></text>
  </g>
  <g
     id="g90"
     transform="rotate(-90,181.45878,174.109)">
    <g
       id="g4"
       style="fill:none;stroke:#000000;stroke-width:2;stroke-opacity:1">
      <path
         d="m 21.194,101.7416 15.8414,108.9026 2.1366,11.2365 1.3945,6.6072 H 48.792 V 121.2782 h 5.9995 V 228.4879 H 70.907 l 1.4039,-6.1225 8.1714,-41.219 11.4584,-56.5608 16.0912,-2.6288 29.9677,-0.6488 V 60.6549 h 6.0013 v 60.5245 l 1.2641,-0.028 28.3363,-6.0591 h 24.0054 l 28.3364,6.0591 1.264,0.028 V 60.6549 h 6.0014 v 60.6531 l 29.9676,0.6488 16.0913,2.6288 11.4583,56.5608 8.1715,41.219 1.4038,6.1225 h 12.398 V 119.2815 h 5.9995 v 109.2064 h 11.9431 l 1.3945,-6.6072 2.1365,-11.2365 15.8415,-108.9026 -7.8341,-17.3982 -2.9587,-6.6576 1.2473,-6.0162 2.0582,-20.0139 L 337.4334,39.8264 317.3506,20.7167 298.0731,0 H 73.1349 l -19.2774,20.7167 -20.0829,19.1097 -5.0934,11.8293 2.0583,20.0139 1.2472,6.0162 -2.9587,6.6576 -7.834,17.3982"
         id="path2"
         style="fill:none;stroke:#000000;stroke-width:2;stroke-opacity:1" />
    </g>
    <text
       xml:space="preserve"
       style="font-style:normal;font-variant:normal;font-weight:normal;font-stretch:normal;font-size:22.5778px;line-height:1.25;font-family:sans-serif;-inkscape-font-specification:'sans-serif, Normal';font-variant-ligatures:normal;font-variant-caps:normal;font-variant-numeric:normal;font-variant-east-asian:normal;fill:#000000;fill-opacity:1;stroke:none;stroke-width:0.264583"
       x="176.7135"
       y="52.927029"
       id="text82"><tspan
         sodipodi:role="line"
         id="tspan84"
         x="176.7135"
         y="52.927029">A</tspan></text>
  </g>
</svg>
