<svg height="297mm" viewBox="0 0 533 754" width="210mm" xmlns="http://www.w3.org/2000/svg">
	<style type="text/css">
		<![CDATA[
			path {
				fill: none;
				stroke-width: 0.15mm;
			}
		]]>
	</style>
	<g id="page_001">
		<path d="M 172.5 170.9 L 172.9 171.4 L 174.1 172.0 L 168.0 173.8 M 173.6 177.4 L 172.7 177.4 L 171.9 177.0 L 171.4 176.2 L 171.3 175.9 L 171.4 175.0 L 171.8 174.2 L 172.6 173.7 L 172.9 173.6 L 173.8 173.6 L 174.5 174.0 L 175.1 174.8 L 175.2 175.1 L 175.1 176.1 L 174.7 176.8 L 173.6 177.4 L 172.2 177.8 L 170.7 178.0 L 169.6 177.6 L 169.1 176.8 L 168.9 176.3 L 169.0 175.3 L 169.5 174.9 M 126.9 69.8 L 126.9 69.5 L 127.2 68.9 L 127.5 68.6 L 128.1 68.3 L 129.3 68.3 L 129.9 68.6 L 130.2 68.9 L 130.5 69.5 L 130.5 70.1 L 130.2 70.7 L 129.6 71.6 L 126.6 74.6 L 130.8 74.6 M 133.7 68.3 L 132.8 68.6 L 132.2 69.5 L 132.0 71.0 L 132.0 71.9 L 132.3 73.4 L 132.9 74.3 L 133.8 74.6 L 134.4 74.5 L 135.3 74.2 L 135.9 73.3 L 136.2 71.8 L 136.2 70.9 L 135.8 69.4 L 135.2 68.5 L 134.3 68.2 L 133.9 68.3 M 131.8 44.9 L 132.1 44.8 L 132.7 45.1 L 133.0 45.4 L 133.3 46.0 L 133.3 47.2 L 133.0 47.8 L 132.7 48.1 L 132.1 48.4 L 131.5 48.5 L 130.9 48.2 L 130.0 47.6 L 127.0 44.6 L 127.0 48.8 M 131.9 49.8 L 132.2 50.4 L 133.1 51.3 L 126.8 51.4 M 229.3 94.8 L 228.6 91.5 L 231.4 92.8 L 231.2 91.9 L 231.3 91.3 L 231.6 90.9 L 232.4 90.4 L 233.0 90.3 L 233.9 90.4 L 234.6 90.9 L 235.1 91.7 L 235.3 92.6 L 235.2 93.5 L 235.0 93.9 L 234.4 94.3 M 228.2 89.5 L 227.5 86.3 L 230.3 87.6 L 230.1 86.7 L 230.3 86.0 L 230.5 85.7 L 231.3 85.2 L 231.9 85.1 L 232.8 85.2 L 233.5 85.7 L 234.0 86.5 L 234.2 87.4 L 234.1 88.3 L 233.9 88.7 L 233.3 89.1 M 256.8 127.8 L 260.1 127.7 L 258.3 130.2 L 259.2 130.2 L 259.8 130.4 L 260.1 130.7 L 260.5 131.6 L 260.5 132.2 L 260.2 133.1 L 259.6 133.7 L 258.7 134.1 L 257.8 134.1 L 256.9 133.8 L 256.6 133.5 L 256.3 132.9 M 264.7 127.6 L 261.8 131.9 L 266.3 131.8 M 264.7 127.6 L 264.8 133.9 M 248.2 174.8 L 247.9 174.8 L 247.2 174.7 L 246.9 174.4 L 246.4 173.9 L 246.2 172.7 L 246.4 172.1 L 246.6 171.7 L 247.1 171.3 L 247.7 171.2 L 248.3 171.3 L 249.3 171.7 L 252.9 174.0 L 252.0 169.9 M 247.0 169.3 L 246.7 169.4 L 246.0 169.2 L 245.7 169.0 L 245.3 168.5 L 245.0 167.3 L 245.2 166.6 L 245.4 166.3 L 245.9 165.9 L 246.5 165.7 L 247.2 165.9 L 248.2 166.3 L 251.7 168.6 L 250.9 164.5 M 238.8 67.2 L 242.1 67.2 L 240.3 69.6 L 241.2 69.6 L 241.9 69.9 L 242.2 70.2 L 242.5 71.1 L 242.5 71.7 L 242.2 72.6 L 241.6 73.2 L 240.7 73.5 L 239.8 73.5 L 238.9 73.2 L 238.6 72.9 L 238.3 72.3 M 247.2 67.1 L 244.2 67.2 L 243.9 69.9 L 244.2 69.6 L 245.1 69.3 L 246.0 69.3 L 246.9 69.5 L 247.5 70.1 L 247.8 71.0 L 247.8 71.6 L 247.5 72.5 L 246.9 73.1 L 246.0 73.5 L 245.1 73.5 L 244.2 73.2 L 243.9 72.9 L 243.6 72.3 M 266.2 109.6 L 262.9 109.6 L 264.7 107.2 L 263.8 107.2 L 263.2 106.9 L 262.9 106.6 L 262.5 105.7 L 262.5 105.1 L 262.8 104.2 L 263.4 103.6 L 264.3 103.3 L 265.2 103.3 L 266.1 103.6 L 266.4 103.9 L 266.7 104.5 M 260.9 108.1 L 260.9 108.4 L 260.6 109.0 L 260.3 109.3 L 259.7 109.6 L 258.5 109.7 L 257.9 109.4 L 257.6 109.1 L 257.3 108.5 L 257.3 107.9 L 257.6 107.3 L 258.2 106.4 L 261.2 103.3 L 257.0 103.4 M 193.5 30.6 L 190.2 30.7 L 191.9 28.2 L 191.0 28.2 L 190.4 28.0 L 190.1 27.7 L 189.8 26.8 L 189.8 26.2 L 190.1 25.3 L 190.7 24.7 L 191.6 24.3 L 192.5 24.3 L 193.4 24.6 L 193.7 24.9 L 194.0 25.5 M 185.1 29.8 L 185.4 30.4 L 186.3 30.7 L 186.9 30.7 L 187.8 30.4 L 188.4 29.5 L 188.7 28.0 L 188.7 26.5 L 188.4 25.3 L 187.8 24.7 L 186.9 24.4 L 186.6 24.4 L 185.7 24.7 L 185.1 25.3 L 184.8 26.2 L 184.8 26.5 L 185.1 27.4 L 185.7 28.0 L 186.6 28.3 L 186.9 28.3 L 187.8 28.0 L 188.4 27.4 L 188.7 26.5 M 244.8 53.2 L 244.8 49.9 L 247.2 51.7 L 247.2 50.8 L 247.5 50.2 L 247.8 49.9 L 248.7 49.6 L 249.3 49.6 L 250.2 49.9 L 250.8 50.5 L 251.1 51.4 L 251.1 52.3 L 250.8 53.2 L 250.5 53.5 L 249.9 53.8 M 244.7 44.4 L 251.1 47.4 M 244.8 48.6 L 244.7 44.4 M 267.4 207.6 L 267.4 207.9 L 267.2 208.5 L 266.9 208.9 L 266.3 209.2 L 265.1 209.2 L 264.5 208.9 L 264.2 208.6 L 263.8 208.0 L 263.8 207.4 L 264.1 206.8 L 264.7 205.9 L 267.7 202.8 L 263.5 202.9 M 259.3 209.3 L 262.2 205.1 L 257.7 205.1 M 259.3 209.3 L 259.2 203.0 M 277.9 164.9 L 278.2 164.9 L 278.8 165.3 L 279.0 165.7 L 279.2 166.3 L 278.9 167.5 L 278.5 168.0 L 278.2 168.3 L 277.5 168.5 L 276.9 168.3 L 276.4 167.9 L 275.7 167.2 L 273.3 163.7 L 272.5 167.8 M 275.6 173.5 L 274.8 173.1 L 274.3 172.4 L 274.2 171.4 L 274.3 171.1 L 274.7 170.3 L 275.4 169.8 L 276.4 169.7 L 276.7 169.8 L 277.5 170.2 L 278.0 170.9 L 278.1 171.9 L 278.0 172.2 L 277.6 173.0 L 276.9 173.5 L 275.6 173.5 L 274.2 173.2 L 272.7 172.7 L 272.0 171.9 L 271.9 171.0 L 272.0 170.4 L 272.4 169.5 L 273.1 169.4 M 293.6 84.5 L 293.9 84.6 L 294.4 85.0 L 294.7 85.3 L 294.9 86.0 L 294.6 87.2 L 294.2 87.7 L 293.9 87.9 L 293.2 88.1 L 292.7 88.0 L 292.1 87.6 L 291.3 86.8 L 289.0 83.3 L 288.2 87.5 M 293.9 91.2 L 293.7 90.3 L 293.2 89.9 L 292.6 89.8 L 292.0 90.0 L 291.6 90.5 L 291.0 91.6 L 290.6 92.4 L 289.9 92.9 L 289.2 93.1 L 288.4 92.9 L 287.8 92.5 L 287.6 92.2 L 287.5 91.2 L 287.7 90.1 L 288.1 89.2 L 288.5 89.0 L 289.1 88.8 L 290.0 89.0 L 290.6 89.4 L 291.0 90.1 L 291.2 91.0 L 291.2 92.3 L 291.4 92.9 L 291.9 93.3 L 292.5 93.4 L 293.2 93.2 L 293.6 92.4 L 293.9 91.1 M 333.2 177.7 L 332.9 177.6 L 332.4 177.2 L 332.2 176.8 L 332.0 176.2 L 332.3 175.0 L 332.8 174.5 L 333.1 174.3 L 333.8 174.2 L 334.4 174.3 L 334.9 174.8 L 335.6 175.6 L 337.7 179.2 L 338.8 175.2 M 333.2 171.9 L 334.0 168.7 L 335.9 171.1 L 336.1 170.2 L 336.5 169.7 L 336.9 169.5 L 337.9 169.4 L 338.4 169.6 L 339.2 170.1 L 339.7 170.8 L 339.7 171.8 L 339.5 172.6 L 339.0 173.4 L 338.6 173.6 L 337.9 173.8 M 274.1 66.9 L 277.4 66.8 L 275.6 69.3 L 276.5 69.3 L 277.1 69.6 L 277.4 69.8 L 277.7 70.7 L 277.7 71.3 L 277.4 72.2 L 276.8 72.9 L 275.9 73.2 L 275.0 73.2 L 274.1 72.9 L 273.8 72.6 L 273.5 72.0 M 280.6 66.8 L 279.7 67.1 L 279.1 68.0 L 278.9 69.5 L 278.9 70.4 L 279.2 71.9 L 279.8 72.8 L 280.7 73.1 L 281.3 73.1 L 282.2 72.8 L 282.8 71.9 L 283.1 70.4 L 283.0 69.5 L 282.7 68.0 L 282.1 67.1 L 281.2 66.8 L 280.8 66.8 M 276.9 43.7 L 276.9 47.0 L 274.5 45.3 L 274.5 46.2 L 274.2 46.8 L 273.9 47.1 L 273.0 47.4 L 272.4 47.4 L 271.5 47.1 L 270.9 46.5 L 270.6 45.6 L 270.6 44.7 L 270.9 43.8 L 271.2 43.5 L 271.8 43.2 M 275.5 48.4 L 275.9 49.0 L 276.8 49.9 L 270.5 50.0 M 329.2 27.8 L 329.2 28.1 L 328.9 28.7 L 328.6 29.0 L 328.1 29.3 L 326.9 29.3 L 326.2 29.0 L 325.9 28.7 L 325.6 28.1 L 325.6 27.5 L 325.9 26.9 L 326.5 26.0 L 329.5 23.0 L 325.3 23.0 M 320.2 29.4 L 323.1 23.1 M 324.4 29.3 L 320.2 29.4 M 373.7 52.3 L 373.4 52.3 L 372.8 52.0 L 372.4 51.7 L 372.1 51.1 L 372.1 49.9 L 372.4 49.3 L 372.7 49.0 L 373.3 48.7 L 373.9 48.7 L 374.5 49.0 L 375.4 49.6 L 378.5 52.5 L 378.4 48.3 M 372.1 43.7 L 372.1 46.7 L 374.8 46.9 L 374.5 46.6 L 374.2 45.7 L 374.2 44.8 L 374.5 43.9 L 375.1 43.3 L 376.0 43.0 L 376.6 43.0 L 377.5 43.3 L 378.1 43.9 L 378.4 44.8 L 378.4 45.7 L 378.1 46.6 L 377.8 46.9 L 377.2 47.2 M 369.1 67.5 L 369.1 67.2 L 369.4 66.5 L 369.7 66.2 L 370.3 65.9 L 371.5 65.9 L 372.1 66.2 L 372.4 66.5 L 372.7 67.1 L 372.7 67.7 L 372.4 68.3 L 371.8 69.2 L 368.9 72.3 L 373.1 72.2 M 377.8 66.8 L 377.5 66.2 L 376.6 65.9 L 376.0 65.9 L 375.1 66.2 L 374.5 67.1 L 374.2 68.6 L 374.2 70.1 L 374.5 71.3 L 375.1 71.9 L 376.0 72.2 L 376.3 72.2 L 377.2 71.9 L 377.8 71.3 L 378.1 70.4 L 378.1 70.1 L 377.8 69.2 L 377.2 68.6 L 376.3 68.3 L 376.0 68.3 L 375.1 68.6 L 374.5 69.2 L 374.2 70.1 M 306.5 311.6 L 306.4 308.3 L 308.8 310.1 L 308.8 309.2 L 309.1 308.6 L 309.4 308.3 L 310.3 308.0 L 310.9 308.0 L 311.8 308.3 L 312.4 308.9 L 312.7 309.8 L 312.7 310.7 L 312.5 311.6 L 312.2 311.9 L 311.6 312.2 M 308.5 303.0 L 309.4 303.3 L 310.0 303.8 L 310.3 304.7 L 310.3 305.0 L 310.0 305.9 L 309.4 306.6 L 308.5 306.9 L 308.2 306.9 L 307.3 306.6 L 306.7 306.0 L 306.4 305.1 L 306.4 304.8 L 306.7 303.9 L 307.3 303.3 L 308.5 303.0 L 310.0 302.9 L 311.5 303.2 L 312.4 303.8 L 312.7 304.7 L 312.7 305.3 L 312.4 306.2 L 311.8 306.5 M 204.0 303.4 L 204.1 306.7 L 201.6 304.9 L 201.7 305.8 L 201.4 306.5 L 201.1 306.8 L 200.2 307.1 L 199.6 307.1 L 198.7 306.8 L 198.1 306.2 L 197.7 305.3 L 197.7 304.4 L 198.0 303.5 L 198.3 303.2 L 198.9 302.9 M 204.1 309.7 L 203.8 308.8 L 203.2 308.5 L 202.6 308.5 L 202.0 308.8 L 201.7 309.4 L 201.4 310.6 L 201.1 311.5 L 200.5 312.1 L 199.9 312.4 L 199.0 312.4 L 198.4 312.1 L 198.1 311.8 L 197.8 310.9 L 197.8 309.7 L 198.1 308.8 L 198.4 308.5 L 199.0 308.2 L 199.9 308.2 L 200.5 308.5 L 201.1 309.1 L 201.4 310.0 L 201.7 311.2 L 202.0 311.8 L 202.6 312.1 L 203.2 312.1 L 203.8 311.8 L 204.1 310.9 L 204.1 309.5 M 260.6 407.2 L 261.2 406.9 L 262.1 405.9 L 262.1 412.2 M 267.2 405.7 L 264.3 412.0 M 263.0 405.7 L 267.2 405.7 M 279.5 443.7 L 279.9 444.3 L 281.0 444.9 L 274.8 446.3 M 249.0 449.0 L 248.8 448.4 L 248.1 447.3 L 254.3 448.5 M 248.4 444.7 L 248.5 445.6 L 249.0 446.0 L 249.6 446.2 L 250.3 446.0 L 250.7 445.4 L 251.2 444.3 L 251.7 443.5 L 252.4 443.0 L 253.0 442.8 L 253.9 443.0 L 254.4 443.4 L 254.7 443.8 L 254.8 444.7 L 254.6 445.9 L 254.1 446.7 L 253.8 447.0 L 253.1 447.1 L 252.2 447.0 L 251.7 446.6 L 251.2 445.9 L 251.1 444.9 L 251.0 443.7 L 250.9 443.0 L 250.3 442.6 L 249.7 442.5 L 249.1 442.7 L 248.6 443.5 L 248.4 444.8 M 177.7 441.8 L 177.6 440.8 L 176.9 440.0 L 175.5 439.3 L 174.7 439.1 L 173.1 439.0 L 172.1 439.4 L 171.6 440.2 L 171.4 440.7 L 171.5 441.7 L 172.2 442.5 L 173.6 443.2 L 174.5 443.4 L 176.0 443.5 L 177.0 443.1 L 177.5 442.3 L 177.7 441.9 M 233.3 529.4 L 233.1 528.7 L 232.4 527.7 L 238.6 528.9 M 232.7 524.7 L 232.9 525.7 L 233.6 526.4 L 235.1 527.0 L 235.9 527.2 L 237.5 527.2 L 238.5 526.7 L 238.9 525.9 L 239.0 525.3 L 238.9 524.4 L 238.1 523.6 L 236.7 523.1 L 235.8 522.9 L 234.3 522.9 L 233.3 523.3 L 232.8 524.2 L 232.8 524.6 M 262.9 506.7 L 263.4 506.4 L 264.3 505.5 L 264.4 511.8 M 265.4 506.7 L 266.0 506.4 L 266.9 505.5 L 267.0 511.8 M 263.6 485.1 L 263.9 484.2 L 264.5 483.6 L 265.4 483.3 L 265.7 483.3 L 266.6 483.6 L 267.2 484.2 L 267.5 485.1 L 267.5 485.4 L 267.2 486.3 L 266.6 486.9 L 265.7 487.2 L 265.4 487.2 L 264.5 486.9 L 263.9 486.3 L 263.6 485.1 L 263.6 483.6 L 263.9 482.1 L 264.5 481.2 L 265.4 480.9 L 266.0 480.9 L 266.9 481.2 L 267.2 481.8 M 337.6 442.5 L 337.3 442.6 L 336.7 442.5 L 336.3 442.3 L 335.9 441.8 L 335.5 440.7 L 335.6 440.0 L 335.9 439.6 L 336.3 439.2 L 336.9 439.0 L 337.6 439.1 L 338.6 439.5 L 342.3 441.5 L 341.2 437.5 M 298.2 523.6 L 297.7 522.8 L 297.1 522.7 L 296.5 522.8 L 296.0 523.2 L 295.8 523.8 L 295.8 525.1 L 295.7 526.0 L 295.2 526.7 L 294.7 527.2 L 293.8 527.3 L 293.1 527.2 L 292.8 526.9 L 292.3 526.1 L 292.1 524.9 L 292.2 524.0 L 292.4 523.6 L 292.9 523.2 L 293.8 523.0 L 294.5 523.2 L 295.2 523.7 L 295.6 524.5 L 296.2 525.6 L 296.6 526.1 L 297.2 526.3 L 297.8 526.2 L 298.4 525.8 L 298.5 524.8 L 298.2 523.5 M 377.2 567.3 L 377.2 564.0 L 379.6 565.7 L 379.6 564.8 L 379.9 564.2 L 380.2 563.9 L 381.1 563.6 L 381.7 563.6 L 382.6 563.9 L 383.2 564.5 L 383.5 565.4 L 383.5 566.3 L 383.2 567.2 L 382.9 567.5 L 382.3 567.8 M 378.3 546.9 L 381.3 542.6 L 376.8 542.7 M 378.3 546.9 L 378.3 540.6 M 330.8 584.3 L 327.8 584.3 L 327.6 587.0 L 327.9 586.7 L 328.8 586.4 L 329.7 586.4 L 330.6 586.7 L 331.2 587.3 L 331.5 588.2 L 331.5 588.8 L 331.2 589.7 L 330.6 590.3 L 329.7 590.6 L 328.8 590.6 L 327.9 590.3 L 327.6 590.0 L 327.3 589.4 M 282.1 546.8 L 282.5 547.4 L 283.4 547.7 L 284.0 547.7 L 284.9 547.4 L 285.4 546.5 L 285.7 545.0 L 285.7 543.5 L 285.4 542.3 L 284.8 541.7 L 283.9 541.4 L 283.6 541.4 L 282.7 541.7 L 282.1 542.3 L 281.8 543.2 L 281.8 543.5 L 282.1 544.4 L 282.7 545.0 L 283.6 545.3 L 283.9 545.3 L 284.8 545.0 L 285.4 544.4 L 285.7 543.5 M 282.0 567.9 L 275.7 564.9 M 282.0 563.7 L 282.0 567.9 M 190.3 587.1 L 190.9 586.8 L 191.8 585.9 L 191.9 592.2 M 193.5 587.2 L 193.5 586.9 L 193.8 586.2 L 194.1 585.9 L 194.7 585.6 L 195.9 585.6 L 196.5 585.9 L 196.8 586.2 L 197.1 586.8 L 197.1 587.4 L 196.8 588.0 L 196.2 588.9 L 193.2 592.0 L 197.4 591.9 M 251.3 570.4 L 251.0 569.8 L 250.1 569.0 L 256.4 568.9 M 249.9 567.2 L 249.8 563.9 L 252.2 565.7 L 252.2 564.8 L 252.5 564.2 L 252.8 563.9 L 253.7 563.6 L 254.3 563.6 L 255.2 563.9 L 255.8 564.5 L 256.1 565.4 L 256.2 566.3 L 255.9 567.2 L 255.6 567.5 L 255.0 567.8 M 252.2 546.6 L 251.6 546.9 L 250.7 547.8 L 250.7 541.5 M 246.4 548.1 L 249.4 543.9 L 244.9 544.0 M 246.4 548.1 L 246.4 541.9 M 136.9 563.8 L 137.2 564.4 L 138.1 565.3 L 131.8 565.3 M 138.4 570.0 L 138.4 567.0 L 135.7 566.7 L 136.0 567.0 L 136.3 567.9 L 136.3 568.8 L 136.0 569.7 L 135.4 570.3 L 134.5 570.7 L 133.9 570.7 L 133.0 570.4 L 132.4 569.8 L 132.1 568.9 L 132.1 568.0 L 132.4 567.1 L 132.7 566.8 L 133.3 566.5 M 140.2 547.7 L 139.6 548.0 L 138.7 548.9 L 138.7 542.6 M 134.0 548.3 L 134.3 548.9 L 135.2 549.2 L 135.8 549.2 L 136.7 548.9 L 137.3 548.0 L 137.5 546.5 L 137.5 545.0 L 137.2 543.8 L 136.6 543.2 L 135.7 542.9 L 135.4 542.9 L 134.5 543.2 L 133.9 543.8 L 133.6 544.7 L 133.6 545.0 L 133.9 545.9 L 134.5 546.5 L 135.4 546.8 L 135.7 546.8 L 136.6 546.5 L 137.2 545.9 L 137.5 545.0 M 365.8 690.9 L 366.4 690.6 L 367.3 689.7 L 367.3 696.0 M 371.7 640.9 L 371.7 641.2 L 371.4 641.8 L 371.1 642.1 L 370.5 642.4 L 369.3 642.5 L 368.7 642.2 L 368.4 641.9 L 368.1 641.3 L 368.1 640.7 L 368.4 640.1 L 369.0 639.2 L 372.0 636.1 L 367.8 636.2 M 362.7 640.4 L 363.0 639.5 L 363.6 638.9 L 364.5 638.6 L 364.8 638.6 L 365.7 638.9 L 366.3 639.5 L 366.6 640.4 L 366.6 640.7 L 366.3 641.6 L 365.7 642.2 L 364.8 642.5 L 364.5 642.5 L 363.6 642.2 L 363.0 641.6 L 362.7 640.4 L 362.7 638.9 L 363.0 637.4 L 363.6 636.5 L 364.5 636.2 L 365.1 636.2 L 366.0 636.5 L 366.3 637.1 M 398.0 690.7 L 398.6 690.4 L 399.5 689.5 L 399.5 695.8 M 404.7 689.3 L 401.7 695.6 M 400.5 689.3 L 404.7 689.3 M 323.4 642.7 L 320.1 642.7 L 321.9 640.3 L 321.0 640.3 L 320.4 640.0 L 320.1 639.7 L 319.8 638.8 L 319.8 638.2 L 320.1 637.3 L 320.7 636.7 L 321.6 636.4 L 322.5 636.4 L 323.4 636.7 L 323.7 637.0 L 324.0 637.6 M 315.5 642.8 L 318.5 638.5 L 314.0 638.6 M 315.5 642.8 L 315.5 636.5 M 406.6 640.8 L 406.6 641.1 L 406.3 641.7 L 406.0 642.0 L 405.4 642.3 L 404.2 642.3 L 403.6 642.0 L 403.3 641.7 L 403.0 641.1 L 403.0 640.5 L 403.3 639.9 L 403.9 639.0 L 406.9 636.0 L 402.7 636.0 M 398.4 642.4 L 401.4 638.2 L 396.9 638.2 M 398.4 642.4 L 398.4 636.1 M 312.0 663.7 L 307.8 660.7 L 307.8 665.2 M 312.0 663.7 L 305.7 663.7 M 310.4 666.9 L 310.7 666.9 L 311.3 667.2 L 311.6 667.5 L 311.9 668.1 L 311.9 669.3 L 311.6 669.9 L 311.3 670.2 L 310.8 670.5 L 310.2 670.5 L 309.5 670.2 L 308.6 669.6 L 305.6 666.6 L 305.7 670.8 M 320.3 691.8 L 320.0 692.7 L 319.4 693.3 L 318.5 693.6 L 318.2 693.6 L 317.3 693.3 L 316.7 692.7 L 316.4 691.8 L 316.4 691.5 L 316.7 690.6 L 317.3 690.0 L 318.2 689.7 L 318.5 689.7 L 319.4 690.0 L 320.0 690.6 L 320.3 691.8 L 320.3 693.3 L 320.0 694.8 L 319.5 695.7 L 318.6 696.0 L 318.0 696.0 L 317.1 695.7 L 316.8 695.1 M 432.7 690.6 L 433.3 690.3 L 434.2 689.4 L 434.2 695.7 M 436.8 689.2 L 435.9 689.5 L 435.6 690.1 L 435.6 690.7 L 436.0 691.3 L 436.6 691.6 L 437.8 691.9 L 438.7 692.2 L 439.3 692.7 L 439.6 693.3 L 439.6 694.2 L 439.3 694.8 L 439.0 695.2 L 438.1 695.5 L 436.9 695.5 L 436.0 695.2 L 435.7 694.9 L 435.4 694.3 L 435.4 693.4 L 435.7 692.8 L 436.3 692.2 L 437.2 691.9 L 438.4 691.6 L 439.0 691.3 L 439.2 690.6 L 439.2 690.0 L 438.9 689.5 L 438.0 689.2 L 436.7 689.2 M 441.3 640.6 L 441.3 640.9 L 441.0 641.5 L 440.7 641.8 L 440.1 642.1 L 438.9 642.2 L 438.3 641.9 L 438.0 641.6 L 437.7 641.0 L 437.7 640.4 L 438.0 639.8 L 438.6 638.9 L 441.6 635.8 L 437.4 635.9 M 435.7 640.7 L 435.7 641.0 L 435.4 641.6 L 435.1 641.9 L 434.5 642.2 L 433.3 642.2 L 432.7 641.9 L 432.4 641.6 L 432.1 641.0 L 432.1 640.4 L 432.4 639.8 L 433.0 638.9 L 436.0 635.9 L 431.8 635.9 M 461.3 668.1 L 465.6 671.0 L 465.5 666.5 M 461.3 668.1 L 467.6 668.0 M 462.9 664.9 L 462.6 664.9 L 462.0 664.6 L 461.7 664.3 L 461.4 663.7 L 461.4 662.5 L 461.7 661.9 L 462.0 661.6 L 462.6 661.3 L 463.2 661.3 L 463.8 661.6 L 464.7 662.2 L 467.7 665.2 L 467.7 661.0 M 35.1 664.6 L 30.9 661.6 L 30.9 666.1 M 35.1 664.6 L 28.8 664.7 M 35.1 669.0 L 34.8 668.1 L 33.9 667.6 L 32.4 667.3 L 31.5 667.3 L 30.0 667.6 L 29.1 668.2 L 28.8 669.1 L 28.8 669.7 L 29.1 670.6 L 30.0 671.2 L 31.5 671.5 L 32.4 671.5 L 33.9 671.2 L 34.8 670.5 L 35.1 669.6 L 35.1 669.2 M 55.4 690.4 L 52.5 696.7 M 51.2 690.4 L 55.4 690.4 M 58.0 643.4 L 54.7 643.4 L 56.4 641.0 L 55.5 641.0 L 54.9 640.7 L 54.6 640.4 L 54.3 639.5 L 54.3 638.9 L 54.6 638.0 L 55.2 637.4 L 56.1 637.1 L 57.0 637.1 L 57.9 637.4 L 58.2 637.7 L 58.5 638.3 M 53.3 642.0 L 52.7 642.3 L 51.8 643.2 L 51.7 636.9 M 91.6 690.9 L 91.3 690.3 L 90.4 690.1 L 89.8 690.1 L 88.9 690.4 L 88.3 691.3 L 88.0 692.8 L 88.0 694.3 L 88.4 695.5 L 89.0 696.1 L 89.9 696.4 L 90.2 696.4 L 91.1 696.1 L 91.7 695.4 L 91.9 694.5 L 91.9 694.2 L 91.6 693.3 L 91.0 692.8 L 90.1 692.5 L 89.8 692.5 L 88.9 692.8 L 88.3 693.4 L 88.0 694.3 M 94.5 643.0 L 91.2 643.0 L 93.0 640.6 L 92.1 640.6 L 91.5 640.3 L 91.2 640.0 L 90.9 639.1 L 90.9 638.5 L 91.2 637.6 L 91.8 637.0 L 92.7 636.7 L 93.6 636.7 L 94.5 637.0 L 94.8 637.3 L 95.1 637.9 M 88.0 643.1 L 88.9 642.8 L 89.5 641.9 L 89.7 640.4 L 89.7 639.5 L 89.4 638.0 L 88.8 637.1 L 87.9 636.8 L 87.3 636.8 L 86.4 637.1 L 85.8 638.0 L 85.5 639.5 L 85.5 640.4 L 85.9 641.9 L 86.5 642.8 L 87.4 643.1 L 87.8 643.1 M 112.5 689.8 L 111.6 690.1 L 111.3 690.8 L 111.3 691.4 L 111.6 691.9 L 112.2 692.2 L 113.4 692.5 L 114.3 692.8 L 114.9 693.4 L 115.2 694.0 L 115.2 694.9 L 114.9 695.5 L 114.6 695.8 L 113.7 696.1 L 112.5 696.1 L 111.6 695.8 L 111.3 695.6 L 111.0 695.0 L 111.0 694.1 L 111.3 693.5 L 111.9 692.8 L 112.8 692.5 L 114.0 692.2 L 114.6 691.9 L 114.9 691.3 L 114.9 690.7 L 114.6 690.1 L 113.7 689.8 L 112.3 689.8 M 117.9 641.3 L 117.9 641.6 L 117.6 642.2 L 117.3 642.5 L 116.7 642.8 L 115.5 642.8 L 114.9 642.5 L 114.6 642.2 L 114.3 641.6 L 114.3 641.0 L 114.6 640.4 L 115.2 639.5 L 118.2 636.5 L 114.0 636.5 M 111.4 642.8 L 112.3 642.5 L 112.6 641.9 L 112.6 641.3 L 112.3 640.7 L 111.7 640.4 L 110.4 640.2 L 109.5 639.9 L 108.9 639.3 L 108.6 638.7 L 108.6 637.8 L 108.9 637.2 L 109.2 636.9 L 110.1 636.6 L 111.3 636.5 L 112.2 636.8 L 112.5 637.1 L 112.8 637.7 L 112.8 638.6 L 112.5 639.2 L 111.9 639.8 L 111.0 640.2 L 109.9 640.5 L 109.3 640.8 L 109.0 641.4 L 109.0 642.0 L 109.3 642.6 L 110.2 642.9 L 111.5 642.8 M 153.3 642.4 L 150.0 642.5 L 151.7 640.1 L 150.8 640.1 L 150.2 639.8 L 149.9 639.5 L 149.6 638.6 L 149.6 638.0 L 149.9 637.1 L 150.5 636.5 L 151.4 636.2 L 152.3 636.1 L 153.2 636.4 L 153.5 636.7 L 153.8 637.3 M 148.0 641.0 L 148.0 641.3 L 147.7 641.9 L 147.4 642.2 L 146.8 642.5 L 145.6 642.5 L 145.0 642.2 L 144.7 641.9 L 144.4 641.3 L 144.4 640.7 L 144.7 640.1 L 145.3 639.2 L 148.2 636.2 L 144.0 636.2 M 146.5 690.9 L 147.1 690.6 L 148.0 689.7 L 148.1 696.0 M 149.1 690.9 L 149.7 690.6 L 150.6 689.7 L 150.6 696.0 M 180.6 690.6 L 181.2 690.3 L 182.1 689.4 L 182.2 695.7 M 185.1 689.1 L 184.2 689.4 L 183.6 690.3 L 183.3 691.8 L 183.3 692.7 L 183.6 694.2 L 184.2 695.1 L 185.1 695.4 L 185.7 695.4 L 186.6 695.1 L 187.2 694.2 L 187.5 692.7 L 187.5 691.8 L 187.2 690.3 L 186.6 689.4 L 185.7 689.1 L 185.2 689.1 M 188.7 642.1 L 185.4 642.1 L 187.1 639.7 L 186.2 639.7 L 185.6 639.4 L 185.3 639.1 L 185.0 638.2 L 185.0 637.6 L 185.3 636.7 L 185.9 636.1 L 186.8 635.8 L 187.7 635.8 L 188.6 636.1 L 188.9 636.4 L 189.2 637.0 M 183.3 642.1 L 180.0 642.2 L 181.8 639.8 L 180.9 639.8 L 180.3 639.5 L 180.0 639.2 L 179.7 638.3 L 179.7 637.7 L 180.0 636.8 L 180.6 636.2 L 181.5 635.9 L 182.4 635.9 L 183.3 636.1 L 183.6 636.4 L 183.9 637.0 M 211.8 641.9 L 208.5 641.9 L 210.2 639.5 L 209.3 639.5 L 208.7 639.2 L 208.4 638.9 L 208.1 638.0 L 208.1 637.4 L 208.4 636.5 L 209.0 635.9 L 209.9 635.6 L 210.8 635.6 L 211.7 635.9 L 212.0 636.2 L 212.3 636.8 M 203.4 642.0 L 206.4 641.9 L 206.7 639.2 L 206.4 639.5 L 205.5 639.8 L 204.6 639.8 L 203.7 639.5 L 203.1 639.0 L 202.8 638.1 L 202.8 637.5 L 203.1 636.6 L 203.7 635.9 L 204.6 635.6 L 205.5 635.6 L 206.4 635.9 L 206.7 636.2 L 207.0 636.8 M 203.5 690.4 L 204.1 690.1 L 205.0 689.1 L 205.1 695.4 M 209.3 688.8 L 206.4 693.1 L 210.9 693.0 M 209.3 688.8 L 209.4 695.1 M 240.3 690.0 L 240.9 689.7 L 241.8 688.8 L 241.9 695.1 M 243.5 688.6 L 246.8 688.5 L 245.1 690.9 L 246.0 690.9 L 246.6 691.2 L 246.9 691.5 L 247.2 692.4 L 247.2 693.0 L 246.9 693.9 L 246.3 694.5 L 245.4 694.8 L 244.5 694.9 L 243.6 694.6 L 243.3 694.3 L 243.0 693.7 M 248.3 641.5 L 245.0 641.5 L 246.8 639.1 L 245.9 639.1 L 245.3 638.8 L 245.0 638.5 L 244.7 637.6 L 244.7 637.0 L 245.0 636.1 L 245.6 635.5 L 246.5 635.2 L 247.4 635.2 L 248.3 635.5 L 248.6 635.8 L 248.9 636.4 M 239.5 641.6 L 242.5 635.3 M 243.7 641.6 L 239.5 641.6 M 262.4 667.4 L 266.7 670.3 L 266.6 665.8 M 262.4 667.4 L 268.7 667.3 M 263.9 664.8 L 263.6 664.2 L 262.7 663.3 L 269.0 663.2 M 397.1 382.3 L 397.4 382.3 L 398.0 382.6 L 398.3 382.9 L 398.6 383.5 L 398.6 384.7 L 398.3 385.3 L 398.0 385.6 L 397.4 385.9 L 396.8 385.9 L 396.2 385.6 L 395.3 385.0 L 392.3 382.0 L 392.3 386.2 M 398.6 387.9 L 398.6 391.2 L 396.2 389.4 L 396.2 390.3 L 395.9 390.9 L 395.6 391.2 L 394.7 391.5 L 394.1 391.5 L 393.2 391.3 L 392.6 390.7 L 392.3 389.8 L 392.3 388.9 L 392.6 388.0 L 392.9 387.7 L 393.5 387.4 M 418.4 482.7 L 421.7 482.7 L 420.0 485.1 L 420.9 485.1 L 421.5 485.4 L 421.8 485.7 L 422.1 486.5 L 422.1 487.1 L 421.8 488.1 L 421.2 488.7 L 420.3 489.0 L 419.4 489.0 L 418.5 488.7 L 418.2 488.4 L 417.9 487.8 M 427.1 484.7 L 426.8 485.6 L 426.2 486.2 L 425.3 486.5 L 425.0 486.5 L 424.1 486.2 L 423.5 485.6 L 423.2 484.7 L 423.2 484.4 L 423.5 483.5 L 424.1 482.9 L 425.0 482.6 L 425.3 482.6 L 426.2 482.9 L 426.8 483.5 L 427.1 484.7 L 427.1 486.2 L 426.8 487.7 L 426.2 488.6 L 425.3 488.9 L 424.7 488.9 L 423.8 488.6 L 423.5 488.0 M 447.1 388.8 L 446.8 388.8 L 446.2 388.5 L 445.9 388.2 L 445.6 387.6 L 445.6 386.4 L 445.9 385.8 L 446.2 385.5 L 446.8 385.2 L 447.4 385.2 L 448.0 385.5 L 448.9 386.1 L 451.9 389.1 L 451.9 384.9 M 444.5 275.8 L 448.7 278.8 L 448.6 274.3 M 444.5 275.8 L 450.8 275.8 M 396.0 271.8 L 396.3 271.8 L 396.9 272.1 L 397.2 272.4 L 397.5 273.0 L 397.5 274.2 L 397.2 274.8 L 396.9 275.1 L 396.3 275.4 L 395.7 275.4 L 395.1 275.1 L 394.2 274.5 L 391.2 271.6 L 391.2 275.8 M 396.7 280.4 L 397.3 280.1 L 397.5 279.2 L 397.5 278.6 L 397.2 277.7 L 396.3 277.2 L 394.8 276.9 L 393.3 276.9 L 392.1 277.2 L 391.5 277.8 L 391.2 278.7 L 391.2 279.0 L 391.6 279.9 L 392.2 280.5 L 393.1 280.8 L 393.4 280.8 L 394.3 280.5 L 394.9 279.9 L 395.1 279.0 L 395.1 278.7 L 394.8 277.8 L 394.2 277.2 L 393.3 276.9 M 444.2 244.9 L 444.2 241.6 L 446.6 243.3 L 446.6 242.4 L 446.9 241.8 L 447.2 241.5 L 448.1 241.2 L 448.7 241.2 L 449.6 241.5 L 450.2 242.1 L 450.5 243.0 L 450.5 243.9 L 450.2 244.8 L 449.9 245.1 L 449.3 245.4 M 395.6 238.5 L 395.9 238.5 L 396.6 238.8 L 396.9 239.1 L 397.2 239.7 L 397.2 240.9 L 396.9 241.5 L 396.6 241.8 L 396.0 242.1 L 395.4 242.1 L 394.8 241.8 L 393.9 241.2 L 390.8 238.3 L 390.9 242.5 M 397.2 247.1 L 397.2 244.1 L 394.5 243.9 L 394.8 244.1 L 395.1 245.0 L 395.1 245.9 L 394.8 246.8 L 394.2 247.5 L 393.3 247.8 L 392.7 247.8 L 391.8 247.5 L 391.2 246.9 L 390.9 246.0 L 390.9 245.1 L 391.2 244.2 L 391.5 243.9 L 392.1 243.6 M 394.8 155.9 L 395.1 155.9 L 395.7 156.2 L 396.0 156.5 L 396.4 157.1 L 396.4 158.3 L 396.1 158.9 L 395.8 159.2 L 395.2 159.5 L 394.6 159.5 L 394.0 159.2 L 393.1 158.6 L 390.0 155.7 L 390.1 159.9 M 396.4 165.0 L 390.1 162.1 M 396.4 160.8 L 396.4 165.0 M 421.9 113.0 L 424.9 108.8 L 420.4 108.8 M 421.9 113.0 L 421.9 106.7 M 417.5 113.0 L 418.4 112.7 L 419.0 111.8 L 419.2 110.3 L 419.2 109.4 L 418.9 107.9 L 418.3 107.0 L 417.4 106.7 L 416.8 106.7 L 415.9 107.0 L 415.3 107.9 L 415.0 109.4 L 415.0 110.3 L 415.4 111.8 L 416.0 112.7 L 416.9 113.0 L 417.3 113.0 M 443.4 159.3 L 443.4 162.3 L 446.1 162.5 L 445.8 162.2 L 445.5 161.3 L 445.5 160.4 L 445.8 159.5 L 446.4 158.9 L 447.3 158.6 L 447.9 158.6 L 448.8 158.9 L 449.4 159.5 L 449.7 160.4 L 449.7 161.3 L 449.4 162.2 L 449.1 162.5 L 448.5 162.8 M 47.6 443.8 L 47.5 447.1 L 45.2 445.2 L 45.2 446.1 L 44.8 446.7 L 44.5 447.0 L 43.6 447.3 L 43.0 447.3 L 42.1 447.0 L 41.5 446.4 L 41.3 445.5 L 41.3 444.6 L 41.6 443.7 L 41.9 443.4 L 42.5 443.1 M 46.6 452.1 L 47.2 451.8 L 47.5 450.9 L 47.5 450.3 L 47.2 449.4 L 46.3 448.8 L 44.8 448.5 L 43.3 448.5 L 42.1 448.8 L 41.5 449.4 L 41.2 450.3 L 41.2 450.6 L 41.5 451.5 L 42.1 452.1 L 43.0 452.4 L 43.3 452.4 L 44.2 452.1 L 44.8 451.5 L 45.1 450.6 L 45.1 450.3 L 44.8 449.4 L 44.2 448.8 L 43.3 448.5 M 68.1 504.2 L 65.1 508.4 L 69.6 508.4 M 68.1 504.2 L 68.1 510.5 M 70.7 505.7 L 71.3 505.4 L 72.2 504.5 L 72.1 510.8 M 95.9 452.7 L 95.6 452.1 L 94.7 451.2 L 101.0 451.3 M 96.0 449.6 L 95.7 449.6 L 95.1 449.3 L 94.8 449.0 L 94.5 448.4 L 94.5 447.2 L 94.8 446.6 L 95.2 446.3 L 95.8 446.0 L 96.4 446.0 L 97.0 446.3 L 97.8 446.9 L 100.8 449.9 L 100.9 445.7 M 96.6 361.9 L 96.3 361.3 L 95.4 360.3 L 101.7 360.4 M 95.2 355.6 L 95.2 358.6 L 97.9 358.9 L 97.6 358.6 L 97.3 357.7 L 97.3 356.8 L 97.6 355.9 L 98.2 355.3 L 99.2 355.0 L 99.8 355.0 L 100.6 355.4 L 101.2 356.0 L 101.5 356.9 L 101.5 357.8 L 101.2 358.7 L 100.9 359.0 L 100.3 359.3 M 46.8 352.7 L 47.1 352.7 L 47.7 353.0 L 48.0 353.3 L 48.3 353.9 L 48.2 355.1 L 47.9 355.7 L 47.6 356.0 L 47.0 356.3 L 46.4 356.3 L 45.8 356.0 L 44.9 355.4 L 42.0 352.4 L 41.9 356.6 M 46.8 357.7 L 47.1 358.3 L 48.0 359.2 L 41.7 359.1 M 96.9 328.4 L 96.6 327.8 L 95.7 326.9 L 102.0 327.0 M 96.4 322.2 L 95.8 322.5 L 95.5 323.4 L 95.5 324.0 L 95.8 324.9 L 96.7 325.5 L 98.2 325.8 L 99.7 325.8 L 100.9 325.5 L 101.5 324.9 L 101.8 324.0 L 101.8 323.7 L 101.5 322.8 L 100.9 322.2 L 100.0 321.9 L 99.7 321.9 L 98.8 322.2 L 98.2 322.8 L 97.9 323.7 L 97.9 324.0 L 98.2 324.9 L 98.8 325.5 L 99.7 325.8 M 47.0 319.4 L 47.3 319.4 L 47.9 319.7 L 48.2 320.0 L 48.5 320.6 L 48.5 321.8 L 48.2 322.4 L 47.9 322.7 L 47.3 323.0 L 46.7 323.0 L 46.1 322.7 L 45.2 322.1 L 42.2 319.1 L 42.2 323.3 M 48.5 326.3 L 48.2 325.4 L 47.3 324.7 L 45.8 324.4 L 44.9 324.4 L 43.4 324.7 L 42.5 325.3 L 42.2 326.2 L 42.2 326.8 L 42.5 327.7 L 43.4 328.3 L 44.9 328.6 L 45.8 328.6 L 47.3 328.3 L 48.2 327.8 L 48.5 326.9 L 48.5 326.4 M 47.9 210.1 L 48.2 210.7 L 49.1 211.6 L 42.8 211.5 M 47.2 216.6 L 46.3 216.3 L 45.7 215.7 L 45.4 214.8 L 45.4 214.5 L 45.7 213.6 L 46.3 213.0 L 47.2 212.7 L 47.5 212.7 L 48.4 213.0 L 49.0 213.6 L 49.3 214.5 L 49.3 214.8 L 49.0 215.7 L 48.4 216.3 L 47.2 216.6 L 45.7 216.6 L 44.2 216.3 L 43.3 215.7 L 43.0 214.8 L 43.0 214.2 L 43.3 213.3 L 43.9 213.0 M 78.2 118.3 L 74.9 118.3 L 76.7 115.9 L 75.8 115.9 L 75.2 115.6 L 74.9 115.3 L 74.6 114.4 L 74.6 113.8 L 74.9 112.9 L 75.5 112.3 L 76.4 112.0 L 77.3 112.0 L 78.2 112.3 L 78.5 112.6 L 78.8 113.2 M 71.9 118.3 L 72.8 118.0 L 73.1 117.4 L 73.1 116.8 L 72.8 116.2 L 72.2 115.9 L 71.0 115.6 L 70.1 115.3 L 69.5 114.7 L 69.3 114.1 L 69.3 113.2 L 69.6 112.6 L 69.9 112.3 L 70.8 112.0 L 72.0 112.0 L 72.9 112.3 L 73.2 112.6 L 73.5 113.2 L 73.5 114.1 L 73.1 114.7 L 72.5 115.3 L 71.6 115.6 L 70.4 115.9 L 69.8 116.2 L 69.5 116.8 L 69.5 117.4 L 69.8 118.0 L 70.7 118.3 L 72.1 118.3 M 96.3 214.9 L 96.6 215.8 L 97.5 216.4 L 99.0 216.7 L 99.9 216.7 L 101.4 216.4 L 102.3 215.9 L 102.6 215.0 L 102.6 214.4 L 102.3 213.5 L 101.4 212.8 L 99.9 212.5 L 99.0 212.5 L 97.5 212.8 L 96.6 213.4 L 96.3 214.3 L 96.3 214.8" id="nums_001" stroke="black" />
		<path d="M 195.5 276.4 L 138.4 76.5 M 138.4 76.5 L 125.3 76.6 M 125.3 76.6 L 124.8 23.0 M 233.7 75.5 L 239.2 101.6 M 276.7 135.8 L 246.7 136.1 M 246.7 136.1 L 260.7 201.0 M 253.3 75.3 L 233.7 75.5 M 239.2 101.6 L 283.6 101.2 M 124.8 23.0 L 252.8 21.8 M 252.8 21.8 L 253.3 75.3 M 260.7 201.0 L 264.0 200.9 M 264.0 200.9 L 276.7 135.8 M 283.6 101.2 L 288.6 75.0 M 367.6 74.2 L 314.3 275.2 M 288.6 75.0 L 269.0 75.2 M 269.0 75.2 L 268.4 21.6 M 268.4 21.6 L 380.1 20.5 M 380.1 20.5 L 380.6 74.1 M 380.6 74.1 L 367.6 74.2 M 314.3 275.2 L 315.0 338.7 M 196.1 339.9 L 195.5 276.4 M 266.1 413.9 L 262.8 414.0 M 280.1 478.8 L 266.1 413.9 M 262.8 414.0 L 250.1 479.1 M 142.9 540.8 L 196.1 339.9 M 243.2 513.7 L 238.3 539.9 M 287.6 513.3 L 243.2 513.7 M 250.1 479.1 L 280.1 478.8 M 315.0 338.7 L 372.1 538.6 M 293.1 539.4 L 287.6 513.3 M 385.2 538.5 L 385.7 592.0 M 372.1 538.6 L 385.2 538.5 M 385.7 592.0 L 274.0 593.1 M 273.5 539.6 L 293.1 539.4 M 274.0 593.1 L 273.5 539.6 M 258.4 593.3 L 130.4 594.5 M 257.8 539.7 L 258.4 593.3 M 238.3 539.9 L 257.8 539.7 M 130.4 594.5 L 129.9 541.0 M 129.9 541.0 L 142.9 540.8 M 400.2 697.6 L 385.3 712.6 L 348.8 712.8 L 333.9 697.9 M 333.6 634.4 L 348.4 619.3 L 384.9 619.1 L 399.9 634.1 M 403.5 697.6 L 402.0 712.6 L 401.7 712.6 L 400.2 697.6 M 303.5 634.5 L 317.0 619.4 L 320.0 619.4 L 333.6 634.4 M 399.9 634.1 L 401.3 619.1 L 401.6 619.1 L 403.2 634.1 M 303.8 698.0 L 288.8 683.8 L 288.6 648.8 L 303.5 634.5 M 333.9 697.9 L 320.4 712.9 L 317.4 712.9 L 303.8 698.0 M 469.8 697.3 L 454.9 712.3 L 418.4 712.5 L 403.5 697.6 M 403.2 634.1 L 418.0 619.0 L 454.5 618.8 L 469.5 633.8 M 469.5 633.8 L 469.8 697.3 M 27.1 698.9 L 26.5 635.4 M 80.7 698.4 L 68.8 713.5 L 39.3 713.8 L 27.1 698.9 M 26.5 635.4 L 38.4 620.3 L 67.8 620.0 L 80.0 634.9 M 100.2 698.2 L 91.6 713.3 L 89.6 713.3 L 80.7 698.4 M 80.0 634.9 L 88.7 619.8 L 90.7 619.8 L 99.6 634.7 M 126.9 698.0 L 115.0 713.1 L 112.4 713.1 L 100.2 698.2 M 99.6 634.7 L 111.5 619.6 L 114.1 619.6 L 126.3 634.5 M 126.3 634.5 L 146.1 619.3 L 150.5 619.2 L 170.7 634.0 M 171.3 697.5 L 151.4 712.7 L 147.0 712.8 L 126.9 698.0 M 197.9 697.3 L 186.1 712.4 L 183.4 712.4 L 171.3 697.5 M 170.7 634.0 L 182.5 618.9 L 185.2 618.9 L 197.3 633.8 M 197.3 633.8 L 206.0 618.7 L 207.9 618.7 L 216.9 633.6 M 217.5 697.1 L 208.8 712.2 L 206.9 712.2 L 197.9 697.3 M 271.0 696.5 L 259.1 711.7 L 229.7 711.9 L 217.5 697.1 M 216.9 633.6 L 228.8 618.5 L 258.2 618.2 L 270.4 633.0 M 270.4 633.0 L 271.0 696.5 M 391.4 491.2 L 375.9 444.6 L 374.8 330.2 L 389.3 283.3 M 454.9 490.6 L 440.7 505.7 L 405.8 506.1 L 391.4 491.2 M 452.8 282.7 L 468.3 329.3 L 469.4 443.7 L 454.9 490.6 M 452.7 269.6 L 467.8 275.3 L 467.8 276.7 L 452.8 282.7 M 389.3 283.3 L 374.3 277.6 L 374.3 276.3 L 389.2 270.2 M 452.2 216.1 L 467.3 228.0 L 467.6 257.4 L 452.7 269.6 M 389.2 270.2 L 374.1 258.3 L 373.8 228.9 L 388.7 216.7 M 388.7 216.7 L 373.4 191.7 L 372.8 130.3 L 387.6 105.0 M 387.6 105.0 L 401.7 89.9 L 436.7 89.6 L 451.1 104.4 M 451.1 104.4 L 466.3 129.4 L 466.9 190.8 L 452.2 216.1 M 38.8 512.3 L 24.0 483.4 L 24.6 413.0 L 39.8 384.3 M 102.3 512.8 L 87.9 527.7 L 53.0 527.4 L 38.8 512.3 M 103.3 384.8 L 118.1 413.7 L 117.5 484.1 L 102.3 512.8 M 103.7 331.3 L 118.6 343.4 L 118.4 372.9 L 103.3 384.8 M 39.8 384.3 L 24.9 372.1 L 25.1 342.7 L 40.2 330.8 M 103.8 318.2 L 118.7 324.2 L 118.7 325.5 L 103.7 331.3 M 40.2 330.8 L 25.2 324.8 L 25.2 323.5 L 40.3 317.7 M 40.3 317.7 L 25.6 270.8 L 26.5 156.5 L 41.9 109.8 M 41.9 109.8 L 56.3 94.9 L 91.2 95.2 L 105.4 110.3 M 105.4 110.3 L 120.0 157.2 L 119.1 271.5 L 103.8 318.2" id="coupes_001" stroke="red" />
		<path d="M 314.3 275.2 L 195.5 276.4 M 315.0 338.7 L 196.1 339.9 M 400.2 697.6 L 333.9 697.9 M 333.6 634.4 L 399.9 634.1 M 403.5 697.6 L 400.2 697.6 M 303.5 634.5 L 333.6 634.4 M 399.9 634.1 L 403.2 634.1 M 333.9 697.9 L 303.8 698.0 M 469.8 697.3 L 403.5 697.6 M 403.2 634.1 L 469.5 633.8 M 80.7 698.4 L 27.1 698.9 M 26.5 635.4 L 80.0 634.9 M 80.0 634.9 L 80.7 698.4 M 100.2 698.2 L 80.7 698.4 M 80.0 634.9 L 99.6 634.7 M 126.9 698.0 L 100.2 698.2 M 99.6 634.7 L 126.3 634.5 M 126.3 634.5 L 170.7 634.0 M 171.3 697.5 L 126.9 698.0 M 197.9 697.3 L 171.3 697.5 M 170.7 634.0 L 197.3 633.8 M 197.3 633.8 L 216.9 633.6 M 216.9 633.6 L 217.5 697.1 M 217.5 697.1 L 197.9 697.3 M 271.0 696.5 L 217.5 697.1 M 216.9 633.6 L 270.4 633.0 M 391.4 491.2 L 389.3 283.3 M 454.9 490.6 L 391.4 491.2 M 452.8 282.7 L 454.9 490.6 M 452.7 269.6 L 452.8 282.7 M 389.3 283.3 L 389.2 270.2 M 389.2 270.2 L 452.7 269.6 M 452.2 216.1 L 452.7 269.6 M 389.2 270.2 L 388.7 216.7 M 388.7 216.7 L 452.2 216.1 M 388.7 216.7 L 387.6 105.0 M 387.6 105.0 L 451.1 104.4 M 451.1 104.4 L 452.2 216.1 M 38.8 512.3 L 39.8 384.3 M 102.3 512.8 L 38.8 512.3 M 39.8 384.3 L 103.3 384.8 M 103.3 384.8 L 102.3 512.8 M 103.7 331.3 L 103.3 384.8 M 39.8 384.3 L 40.2 330.8 M 40.2 330.8 L 103.7 331.3 M 103.8 318.2 L 103.7 331.3 M 40.2 330.8 L 40.3 317.7 M 40.3 317.7 L 41.9 109.8 M 41.9 109.8 L 105.4 110.3 M 105.4 110.3 L 103.8 318.2" id="plisM_001" stroke="brown" stroke-dasharray="4" />
		<path d="M 252.9 273.8 L 256.9 277.8 M 256.9 273.8 L 252.9 277.8 M 253.6 337.3 L 257.6 341.3 M 257.6 337.3 L 253.6 341.3 M 365.0 695.7 L 369.0 699.7 M 369.0 695.7 L 365.0 699.7 M 364.7 632.2 L 368.7 636.2 M 368.7 632.2 L 364.7 636.2 M 399.8 695.6 L 403.8 699.6 M 403.8 695.6 L 399.8 699.6 M 316.6 632.4 L 320.6 636.4 M 320.6 632.4 L 316.6 636.4 M 399.5 632.1 L 403.5 636.1 M 403.5 632.1 L 399.5 636.1 M 316.8 695.9 L 320.8 699.9 M 320.8 695.9 L 316.8 699.9 M 434.6 695.4 L 438.6 699.4 M 438.6 695.4 L 434.6 699.4 M 434.3 631.9 L 438.3 635.9 M 438.3 631.9 L 434.3 635.9 M 51.9 696.7 L 55.9 700.7 M 55.9 696.7 L 51.9 700.7 M 51.3 633.2 L 55.3 637.2 M 55.3 633.2 L 51.3 637.2 M 78.3 664.7 L 82.3 668.7 M 82.3 664.7 L 78.3 668.7 M 88.5 696.3 L 92.5 700.3 M 92.5 696.3 L 88.5 700.3 M 87.8 632.8 L 91.8 636.8 M 91.8 632.8 L 87.8 636.8 M 111.6 696.1 L 115.6 700.1 M 115.6 696.1 L 111.6 700.1 M 110.9 632.6 L 114.9 636.6 M 114.9 632.6 L 110.9 636.6 M 146.5 632.2 L 150.5 636.2 M 150.5 632.2 L 146.5 636.2 M 147.1 695.7 L 151.1 699.7 M 151.1 695.7 L 147.1 699.7 M 182.6 695.4 L 186.6 699.4 M 186.6 695.4 L 182.6 699.4 M 182.0 631.9 L 186.0 635.9 M 186.0 631.9 L 182.0 635.9 M 205.1 631.7 L 209.1 635.7 M 209.1 631.7 L 205.1 635.7 M 215.2 663.3 L 219.2 667.3 M 219.2 663.3 L 215.2 667.3 M 205.7 695.2 L 209.7 699.2 M 209.7 695.2 L 205.7 699.2 M 242.3 694.8 L 246.3 698.8 M 246.3 694.8 L 242.3 698.8 M 241.7 631.3 L 245.7 635.3 M 245.7 631.3 L 241.7 635.3 M 388.4 385.2 L 392.4 389.2 M 392.4 385.2 L 388.4 389.2 M 421.1 488.9 L 425.1 492.9 M 425.1 488.9 L 421.1 492.9 M 451.8 384.6 L 455.8 388.6 M 455.8 384.6 L 451.8 388.6 M 450.8 274.1 L 454.8 278.1 M 454.8 274.1 L 450.8 278.1 M 387.3 274.8 L 391.3 278.8 M 391.3 274.8 L 387.3 278.8 M 419.0 267.9 L 423.0 271.9 M 423.0 267.9 L 419.0 271.9 M 450.4 240.8 L 454.4 244.8 M 454.4 240.8 L 450.4 244.8 M 386.9 241.5 L 390.9 245.5 M 390.9 241.5 L 386.9 245.5 M 418.4 214.4 L 422.4 218.4 M 422.4 214.4 L 418.4 218.4 M 386.1 158.9 L 390.1 162.9 M 390.1 158.9 L 386.1 162.9 M 417.3 102.7 L 421.3 106.7 M 421.3 102.7 L 417.3 106.7 M 449.6 158.3 L 453.6 162.3 M 453.6 158.3 L 449.6 162.3 M 37.3 446.3 L 41.3 450.3 M 41.3 446.3 L 37.3 450.3 M 68.5 510.5 L 72.5 514.5 M 72.5 510.5 L 68.5 514.5 M 69.5 382.6 L 73.5 386.6 M 73.5 382.6 L 69.5 386.6 M 100.8 446.8 L 104.8 450.8 M 104.8 446.8 L 100.8 450.8 M 101.5 356.0 L 105.5 360.0 M 105.5 356.0 L 101.5 360.0 M 38.0 355.5 L 42.0 359.5 M 42.0 355.5 L 38.0 359.5 M 69.9 329.0 L 73.9 333.0 M 73.9 329.0 L 69.9 333.0 M 101.7 322.7 L 105.7 326.7 M 105.7 322.7 L 101.7 326.7 M 38.2 322.2 L 42.2 326.2 M 42.2 322.2 L 38.2 326.2 M 39.1 211.8 L 43.1 215.8 M 43.1 211.8 L 39.1 215.8 M 71.6 108.0 L 75.6 112.0 M 75.6 108.0 L 71.6 112.0 M 102.6 212.2 L 106.6 216.2 M 106.6 212.2 L 102.6 216.2" id="marqueM_001" stroke="brown" />
		<path d="M 399.9 634.1 L 400.2 697.6 M 333.9 697.9 L 333.6 634.4 M 403.2 634.1 L 403.5 697.6 M 303.8 698.0 L 303.5 634.5 M 403.2 634.1 L 469.8 697.3 M 99.6 634.7 L 100.2 698.2 M 126.3 634.5 L 126.9 698.0 M 170.7 634.0 L 171.3 697.5 M 197.3 633.8 L 197.9 697.3 M 389.3 283.3 L 454.9 490.6 M 389.3 283.3 L 452.8 282.7 M 40.3 317.7 L 103.8 318.2 M 41.9 109.8 L 103.8 318.2" id="plisV_001" stroke="green" stroke-dasharray="4 1 1 1" />
		<path d="M 398.1 663.8 L 402.1 667.8 M 402.1 663.8 L 398.1 667.8 M 331.7 664.1 L 335.7 668.1 M 335.7 664.1 L 331.7 668.1 M 401.3 663.8 L 405.3 667.8 M 405.3 663.8 L 401.3 667.8 M 301.7 664.2 L 305.7 668.2 M 305.7 664.2 L 301.7 668.2 M 434.5 663.7 L 438.5 667.7 M 438.5 663.7 L 434.5 667.7 M 97.9 664.5 L 101.9 668.5 M 101.9 664.5 L 97.9 668.5 M 124.6 664.2 L 128.6 668.2 M 128.6 664.2 L 124.6 668.2 M 169.0 663.8 L 173.0 667.8 M 173.0 663.8 L 169.0 667.8 M 195.6 663.5 L 199.6 667.5 M 199.6 663.5 L 195.6 667.5 M 420.1 384.9 L 424.1 388.9 M 424.1 384.9 L 420.1 388.9 M 419.1 281.0 L 423.1 285.0 M 423.1 281.0 L 419.1 285.0 M 70.0 316.0 L 74.0 320.0 M 74.0 316.0 L 70.0 320.0 M 70.8 212.0 L 74.8 216.0 M 74.8 212.0 L 70.8 216.0" id="marqueV_001" stroke="green" />
		<path d="M 272.7 287.9 L 274.2 287.2 L 276.4 284.9 L 276.4 300.7" id="titre_1" stroke="indigo" />
		<path d="M 373.4 667.9 L 373.4 667.1 L 374.2 665.6 L 374.9 664.9 L 376.4 664.1 L 379.4 664.1 L 380.9 664.9 L 381.7 665.6 L 382.4 667.1 L 382.4 668.6 L 381.7 670.1 L 380.2 672.4 L 372.7 679.9 L 383.2 679.9" id="titre_2" stroke="indigo" />
		<path d="M 152.2 664.1 L 160.4 664.1 L 155.9 670.1 L 158.2 670.1 L 159.7 670.9 L 160.4 671.6 L 161.2 673.9 L 161.2 675.4 L 160.4 677.6 L 158.9 679.1 L 156.7 679.9 L 154.4 679.9 L 152.2 679.1 L 151.4 678.4 L 150.7 676.9" id="titre_3" stroke="indigo" />
		<path d="M 412.2 261.9 L 404.7 272.4 L 415.9 272.4 M 412.2 261.9 L 412.2 277.6" id="titre_4" stroke="indigo" />
		<path d="M 86.0 314.4 L 78.5 314.4 L 77.7 321.1 L 78.5 320.4 L 80.7 319.6 L 83.0 319.6 L 85.2 320.4 L 86.7 321.9 L 87.5 324.1 L 87.5 325.6 L 86.7 327.9 L 85.2 329.4 L 83.0 330.1 L 80.7 330.1 L 78.5 329.4 L 77.7 328.6 L 77.0 327.1" id="titre_5" stroke="indigo" />
	</g>
</svg>