<?xml version="1.0" encoding="UTF-8" standalone="no"?>
<svg
   height="841.88977pt"
   viewBox="0 0 532.99998 754.00001"
   width="595.27557pt"
   version="1.1"
   id="svg194"
   sodipodi:docname="LapinAssis192_H25_A4x4.svg"
   inkscape:version="1.3 (0e150ed6c4, 2023-07-21)"
   xmlns:inkscape="http://www.inkscape.org/namespaces/inkscape"
   xmlns:sodipodi="http://sodipodi.sourceforge.net/DTD/sodipodi-0.dtd"
   xmlns="http://www.w3.org/2000/svg"
   xmlns:svg="http://www.w3.org/2000/svg">
  <defs
     id="defs194" />
  <sodipodi:namedview
     id="namedview194"
     pagecolor="#ffffff"
     bordercolor="#000000"
     borderopacity="0.25"
     inkscape:showpageshadow="2"
     inkscape:pageopacity="0.0"
     inkscape:pagecheckerboard="0"
     inkscape:deskcolor="#d1d1d1"
     inkscape:document-units="mm"
     showgrid="false"
     inkscape:zoom="1.5028288"
     inkscape:cx="2292.0109"
     inkscape:cy="345.01601"
     inkscape:window-width="1920"
     inkscape:window-height="1057"
     inkscape:window-x="-8"
     inkscape:window-y="-8"
     inkscape:window-maximized="1"
     inkscape:current-layer="svg194" />
  <style
     type="text/css"
     id="style1"><![CDATA[
			path {
				fill: none;
			}
		]]></style>
  <g
     id="page_001">
    <path
       d="m 493.1,463 -65.3,88.6 -34,-14.2 7.5,-68.3 -4.3,-85.3 -69.3,33.7 -83,-29 -45.5,-22.1 28.3,-3.3 34.1,-26.7 -37.5,21.7 L 209.4,333.6 109,280.3 49.1,213.3 9,163 11.3,93.1 83.2,40.7 145,19.6 l 38.8,15.9 -26,51 -42.7,25 29.6,35.5 -55,8 55.8,55.7 17.1,49 23.3,1.5 27.9,32.7 14.2,-40.5 -6.5,-22.5 37.2,-36.2 -18,-76.7 -22.4,-50.8 87.7,-18.8 38.5,26.6 -18.8,22.1 7.6,27.9 44.4,14.5 -55.5,70.3 45.9,-5.1 2.8,49.5 25.2,51.3 -43.1,42.9 50.4,-34 10.3,-40.6 82,9.1 5.7,46.4 23,40.8 -71.4,41.4 z"
       id="coupes_001"
       stroke="#ff0000"
       stroke-width="1.27"
       sodipodi:nodetypes="ccccccccccccccccccccccccccccccccccccccccccccccccc" />
    <path
       d="m 279.5,262.4 116.6,43.1 m -134.5,30.9 17.9,-74 m 73.5,86 -91.4,-12 m 91.4,12 -25.3,69.1 m 0,0 -66.1,-81.1 m -16.9,52.1 -17.2,-25.4 m -13.7,-69.2 65.7,-31.5 m -17.9,74 -47.8,-42.5 m 10.3,64.2 -10.3,-64.2 m -4.4,39.7 4.4,-39.7 m -51.2,-34.2 51.2,34.2 m 139.2,54.5 44,35.4 M 228,253.4 258.7,194.7 m 0,0 20.8,67.7 m 0,0 42.7,-52.6 m 0,0 48.7,44.4 M 109,280.3 145.5,210.7 m -96.4,2.6 96.4,-2.6 M 49.1,213.3 89.7,155 m 169,39.7 74.6,-69.7 m 0,0 -53.8,137.4 m -20.8,-67.7 67,-97.6 m -85,20.9 85,-20.9 m -314.4,-4 103.8,18.4 M 306,48.4 325.7,97.1 M 240.7,118 306,48.4 m 47,300 148.4,-19.1 m 0,0 L 397,383.8 M 524.4,370.1 397,383.8 m 56,27.7 -51.7,57.6 m 91.8,-6.1 -91.8,6.1 m 2.1,-154.7 98,14.9 m -98,-14.9 92.3,-31.5 M 83.2,40.7 157.8,86.5"
       id="plisM_001"
       stroke="#a52a2a"
       stroke-dasharray="4" />
    <path
       d="m 353,348.4 -73.5,-86 m -34.8,126.1 16.9,-52.1 m -52.2,-2.8 -46.8,-73.9 m -53.6,20.6 53.6,-20.6 m 65.4,-6.3 51.5,9 m 0,0 91.4,-8.2 M 333.3,125 322.2,209.8 M 9,163 89.7,155 M 9,163 115.1,111.5 m 0,0 -25.4,43.5 m -6.5,-114.3 31.9,70.8 m 337.9,300 -56,-27.7 m 96.1,79.2 -99.3,74.4 M 145,19.6 157.8,86.5"
       id="plisV_001"
       stroke="#008000"
       stroke-dasharray="4, 1, 1, 1"
       stroke-width="1.27" />
    <path
       d="m 314.3,303.4 4,4 m 0,-4 -4,4 m -63.2,53.1 4,4 m 0,-4 -4,4 m -67.1,-69.8 4,4 m 0,-4 -4,4 m -50.2,-30.7 4,4 m 0,-4 -4,4 m 117.9,-16.1 4,4 m 0,-4 -4,4 m 71.5,-3.6 4,4 m 0,-4 -4,4 m 2.5,-94.9 4,4 m 0,-4 -4,4 M 47.4,157 l 4,4 m 0,-4 -4,4 m 12.6,-25.8 4,4 m 0,-4 -4,4 m 40.4,-8 4,4 m 0,-4 -4,4 m -3.3,-61.1 4,4 m 0,-4 -4,4 m 325.9,317.6 4,4 m 0,-4 -4,4 m 18.5,98.5 4,4 m 0,-4 -4,4 M 149.4,51 l 4,4 m 0,-4 -4,4"
       id="marqueV_001"
       stroke="#008000" />
    <g
       id="nums_001">
      <path
         d="m 363.2,322.2 0.2,-0.9 -0.2,-1.9 7.4,7.5 m -5.3,-10.1 -0.4,1.1 0.5,1.6 1.5,2 1.1,1.1 2,1.5 1.6,0.5 1.2,-0.4 0.5,-0.5 0.4,-1.2 -0.5,-1.6 -1.5,-2 -1.1,-1.1 -2,-1.5 -1.6,-0.5 -1.1,0.4 -0.4,0.4"
         stroke="#000000"
         stroke-width="1"
         id="path1" />
      <path
         d="m 288.6,389.3 3.9,1.3 -3.5,3.1 1.1,0.3 0.5,0.7 0.2,0.6 -0.1,1.6 -0.4,0.9 -0.8,1.3 -1,0.7 -1.3,0.1 -1,-0.4 -0.9,-0.8 -0.2,-0.6 V 397"
         stroke="#000000"
         stroke-width="1"
         id="path2" />
      <path
         d="m 252.91782,358.31216 0.5,-1.1 -0.3,-1.6 -1.3,-2.2 -0.9,-1.2 -1.8,-1.7 -1.5,-0.7 -1.2,0.3 -0.6,0.4 -0.6,1.1 0.3,1.6 1.3,2.2 0.9,1.2 1.9,1.8 1.5,0.7 1.2,-0.3 0.4,-0.4"
         stroke="#000000"
         stroke-width="1"
         id="path3" />
      <path
         d="m 225.58826,368.94654 0.9,-0.1 1.6,-0.9 -4.6,9.4"
         stroke="#000000"
         stroke-width="1"
         id="path4" />
      <path
         d="m 223.35743,373.01824 0.1,0.5 -0.3,1 -0.3,0.5 -0.7,0.6 -1.4,0.2 -0.8,-0.4 -0.5,-0.5 -0.5,-0.9 -0.1,-1 0.3,-1.1 0.6,-1.5 3.1,-5.4 -5.2,0.6"
         stroke="#000000"
         stroke-width="1"
         id="path5" />
      <path
         d="m 235.3,335.7 -0.7,1 0.1,1.7 0.9,2.3 0.7,1.3 1.6,2 1.4,0.9 1.2,-0.1 0.7,-0.4 0.7,-1 -0.1,-1.6 -0.9,-2.4 -0.8,-1.3 -1.5,-2 -1.4,-0.9 -1.3,0.1 -0.5,0.3"
         stroke="#000000"
         stroke-width="1"
         id="path6" />
      <path
         d="m 225.1,337.9 0.4,-0.3 1.1,-0.2 0.6,0.1 0.8,0.4 0.8,1.3 -0.1,0.9 -0.2,0.6 -0.7,0.8 -0.8,0.5 -1.1,0.2 -1.6,0.1 -6.3,-0.6 2.7,4.5"
         stroke="#000000"
         stroke-width="1"
         id="path7" />
      <path
         d="m 166.2,295 -6.6,4.4 5,2.7 m 1.6,-7.1 -4.9,9.3"
         stroke="#000000"
         stroke-width="1"
         id="path8" />
      <path
         d="m 178.04569,273.31782 3.8,0.3 0.6,-4.5 -0.4,0.5 -1.1,0.4 -1.2,-0.1 -1,-0.6 -0.7,-1 -0.3,-1.5 0.1,-1 0.4,-1.5 0.9,-0.9 1.1,-0.5 1.1,0.1 1.1,0.6 0.4,0.5 0.3,1"
         stroke="#000000"
         stroke-width="1"
         id="path9" />
      <path
         d="m 189.5,284.3 -0.6,0.9 0.4,1.2 0.5,0.6 1.1,0.5 1.6,-0.4 2.2,-1.3 1.9,-1.7 1.3,-1.5 0.2,-1.3 -0.3,-1.1 -0.3,-0.3 -1.1,-0.6 -1.2,0.1 -1.4,0.7 -0.4,0.3 -0.9,1.3 -0.3,1.2 0.4,1.2 0.2,0.3 1.1,0.5 1.3,-0.1 1.4,-0.7"
         stroke="#000000"
         stroke-width="1"
         id="path10" />
      <path
         d="m 358.3,387.4 1.2,11.1 m -6,-8.8 4.8,-2.3"
         stroke="#000000"
         stroke-width="1"
         id="path11" />
      <path
         d="m 231.9,279.3 1.1,-0.1 0.8,-0.9 0.3,-0.7 -0.1,-1.2 -1.2,-1.2 -2.2,-1.2 -2.4,-0.8 -2,-0.3 -1.2,0.4 -0.9,0.9 -0.1,0.3 0.1,1.3 0.7,1 1.3,0.8 0.5,0.2 1.5,0.2 1.2,-0.4 0.9,-0.9 0.1,-0.4 -0.1,-1.2 -0.7,-1 -1.3,-0.9"
         stroke="#000000"
         stroke-width="1"
         id="path12" />
      <path
         d="m 374.5,287.5 -0.7,-0.5 -1.9,-0.3 9.4,-4.7 m -8.1,2.8 -0.7,-0.4 -1.9,-0.4 9.4,-4.6"
         stroke="#000000"
         stroke-width="1"
         id="path13" />
      <path
         d="m 246.93041,220.15828 -0.1,0.9 0.2,1.8 -7.3,-7.5 m 4.5,7.3 0.3,0.3 0.5,1 v 0.6 l -0.2,0.9 -1,1.1 -0.9,0.1 -0.6,-0.1 -1,-0.4 -0.7,-0.7 -0.4,-1 -0.5,-1.6 -0.8,-6.2 -3.8,3.6"
         stroke="#000000"
         stroke-width="1"
         id="path14" />
      <path
         d="m 235.72998,234.55997 -1,-3.6 -4.4,0.9 0.5,0.2 0.8,1 0.3,1.1 -0.1,1.2 -0.8,1 -1.3,0.8 -1,0.2 -1.5,0.1 -1.2,-0.4 -0.8,-1 -0.3,-1.1 0.2,-1.2 0.4,-0.5 0.8,-0.6"
         stroke="#000000"
         stroke-width="1"
         id="path15" />
      <path
         d="m 144.9,243.4 -0.8,-0.5 -1.8,-0.6 10,-3.4 m -8.5,1 -0.5,0.2 -1.1,-0.1 -0.6,-0.1 -0.7,-0.6 -0.5,-1.4 0.2,-0.9 0.4,-0.5 0.8,-0.7 1,-0.3 h 1 l 1.7,0.2 6,1.9 -1.8,-4.9"
         stroke="#000000"
         stroke-width="1"
         id="path16" />
      <path
         d="m 84.5,235.8 0.8,0.2 1.9,-0.2 -7.8,7 m 9.3,-5.8 2.8,3.1 -4.5,1 0.7,0.8 0.2,0.9 -0.2,0.6 -0.8,1.3 -0.8,0.7 -1.3,0.7 -1.3,0.1 -1.1,-0.5 -0.8,-0.8 -0.3,-1.2 0.1,-0.6 0.5,-1"
         stroke="#000000"
         stroke-width="1"
         id="path17" />
      <path
         d="m 113.8,195 -0.4,0.3 -0.9,0.5 h -0.6 l -0.9,-0.1 -1.1,-1.1 -0.2,-0.9 0.1,-0.6 0.5,-1 0.7,-0.7 0.9,-0.4 1.6,-0.5 6.2,-0.9 -3.7,-3.7 m -9.8,5 1.1,0.4 1.6,-0.5 2,-1.5 1.1,-1.1 1.5,-2 0.5,-1.6 -0.4,-1.2 -0.6,-0.5 -1.1,-0.4 -1.6,0.5 -2,1.5 -1.1,1.1 -1.5,2 -0.5,1.6 0.4,1.1 0.4,0.4"
         stroke="#000000"
         stroke-width="1"
         id="path18" />
      <path
         d="m 320.2,119.6 -0.5,0.2 -1.1,-0.1 -0.5,-0.3 -0.7,-0.6 -0.4,-1.4 0.3,-0.9 0.4,-0.5 0.8,-0.6 1,-0.2 1.1,0.1 1.6,0.3 5.8,2.3 -1.4,-5 m -8.1,1 -0.7,-0.6 -1.7,-0.7 10.1,-2.7"
         stroke="#000000"
         stroke-width="1"
         id="path19" />
      <path
         d="m 352.2,217.8 0.1,0.5 -0.3,1 -0.3,0.6 -0.7,0.6 -1.5,0.1 -0.8,-0.4 -0.4,-0.4 -0.5,-1 -0.1,-1 0.3,-1 0.5,-1.6 3.2,-5.4 -5.2,0.6 m -0.9,8.1 v 0.5 l -0.2,1.1 -0.4,0.5 -0.6,0.6 -1.5,0.2 -0.8,-0.5 -0.5,-0.4 -0.4,-1 -0.2,-1 0.3,-1 0.6,-1.6 3.2,-5.3 -5.3,0.5"
         stroke="#000000"
         stroke-width="1"
         id="path20" />
      <path
         d="m 358.6,236 h -0.5 l -1,-0.3 -0.5,-0.4 -0.6,-0.7 v -1.5 l 0.4,-0.8 0.5,-0.4 1,-0.4 1,-0.1 1,0.3 1.5,0.7 5.2,3.5 -0.3,-5.3 m -10.6,-1.3 -0.2,-4.1 4.1,2 v -1.1 l 0.4,-0.8 0.5,-0.4 1.5,-0.4 1,-0.1 1.5,0.3 1,0.7 0.6,1.1 0.1,1.1 -0.5,1.2 -0.5,0.4 -0.9,0.4"
         stroke="#000000"
         stroke-width="1"
         id="path21" />
      <path
         d="m 259.3,148.1 0.5,-0.1 1.1,0.1 0.6,0.3 0.6,0.6 0.4,1.4 -0.4,0.9 -0.4,0.5 -0.8,0.5 -1,0.3 -1.1,-0.2 -1.6,-0.4 -5.7,-2.5 1.2,5.1 m 11,1 -0.8,-1 -1.6,-0.4 -2.5,0.2 -1.5,0.4 -2.3,0.9 -1.3,1.1 -0.3,1.2 0.2,0.7 0.8,1 1.6,0.4 2.5,-0.2 1.5,-0.4 2.3,-0.9 1.3,-1.1 0.2,-1.2 -0.1,-0.5"
         stroke="#000000"
         stroke-width="1"
         id="path22" />
      <path
         d="m 34.2,176.5 0.4,-0.3 1,-0.3 h 0.6 l 0.9,0.2 0.9,1.2 0.1,0.9 -0.2,0.6 -0.5,0.9 -0.8,0.7 -1,0.3 -1.7,0.3 -6.2,0.2 3.3,4.1 m 12.1,-1.6 -10.6,3.6 m 7.3,-7.7 3.3,4.1"
         stroke="#000000"
         stroke-width="1"
         id="path23" />
      <path
         d="m 107.02998,141.80566 -0.1,-0.5 0.3,-1.1 0.3,-0.5 0.6,-0.6 1.5,-0.3 0.8,0.4 0.5,0.5 0.5,0.9 0.1,1 -0.2,1 -0.5,1.6 -3,5.5 5.2,-0.7 m 3.5,-11.3 -2.7,7.5 5.6,-0.8 m -2.9,-6.7 1.5,10.4"
         stroke="#000000"
         stroke-width="1"
         id="path24" />
      <path
         d="m 125,141 -0.4,0.3 -1,0.3 -0.6,0.1 -0.9,-0.3 -1,-1.1 -0.1,-0.9 0.2,-0.6 0.5,-1 0.8,-0.6 1,-0.4 1.6,-0.3 6.3,-0.4 -3.4,-4 m -7.3,3.7 -0.4,0.3 -1,0.4 h -0.6 l -0.9,-0.2 -1,-1.2 -0.1,-0.9 0.2,-0.6 0.5,-0.9 0.8,-0.7 1,-0.3 1.6,-0.4 6.3,-0.3 -3.4,-4"
         stroke="#000000"
         stroke-width="1"
         id="path25" />
      <path
         d="m 21.6,122.6 h 0.5 l 1,0.4 0.4,0.4 0.5,0.7 v 1.5 l -0.6,0.8 -0.5,0.3 -1,0.4 -1,-0.1 -1,-0.4 -1.4,-0.8 -4.9,-3.9 -0.2,5.3 m 10.4,3.4 -0.5,-1.2 -0.9,-0.4 h -1 l -1.1,0.3 -0.5,0.8 -0.5,1.5 -0.6,1.1 -1,0.7 -1,0.3 h -1.5 l -1,-0.4 -0.5,-0.4 -0.4,-1.2 v -1.5 l 0.5,-1.1 0.6,-0.3 1,-0.4 1.5,0.1 1,0.4 0.9,0.8 0.5,1.1 0.4,1.5 0.5,0.8 1,0.4 h 1 l 1,-0.3 0.6,-1.1 v -1.7"
         stroke="#000000"
         stroke-width="1"
         id="path26" />
      <path
         d="m 58.6,72.6 0.3,0.4 0.3,1 v 0.6 l -0.3,0.9 -1.2,0.9 h -0.9 l -0.6,-0.2 -0.9,-0.6 -0.6,-0.8 -0.3,-1 -0.3,-1.7 0.1,-6.2 L 50,69 m 0.7,10.6 0.8,0.6 1.3,-0.3 0.6,-0.4 0.6,-1.1 -0.3,-1.6 -1.2,-2.3 -1.4,-2 -1.5,-1.4 -1.2,-0.4 -1.2,0.3 -0.3,0.2 -0.6,1.1 -0.1,1.2 0.6,1.5 0.3,0.4 1.2,1 1.2,0.3 1.2,-0.2 0.3,-0.2 0.6,-1.1 v -1.3 l -0.5,-1.4"
         stroke="#000000"
         stroke-width="1"
         id="path27" />
      <path
         d="m 357.6,144.8 -0.1,0.4 -0.7,0.9 -0.5,0.3 -0.9,0.3 -1.4,-0.5 -0.6,-0.7 -0.2,-0.6 v -1 l 0.3,-1 0.7,-0.8 1.1,-1.2 5.2,-3.6 -5,-1.6 m -8,4.7 0.8,-1.3 1.1,-0.7 1.2,-0.1 0.4,0.1 0.9,0.8 0.4,1.2 -0.1,1.5 -0.2,0.5 -0.8,1.3 -1,0.7 -1.3,0.2 -0.3,-0.1 -0.9,-0.9 -0.4,-1.1 0.2,-2.1 0.8,-2.3 1.1,-2.3 1.2,-1.2 1.2,-0.1 0.7,0.2 1,0.8 v 1.1"
         stroke="#000000"
         stroke-width="1"
         id="path28" />
      <path
         d="m 337.5,172.3 -0.4,-0.3 -0.6,-0.9 -0.1,-0.6 0.1,-0.9 0.9,-1.2 0.8,-0.3 h 0.7 l 1,0.4 0.8,0.6 0.5,0.9 0.7,1.5 1.6,6 3.3,-4.1 m -4.7,-10.9 -2.4,2.9 3.3,3.1 -0.1,-0.6 0.3,-1.2 0.7,-0.9 1.1,-0.5 h 1.2 l 1.4,0.6 0.8,0.6 0.9,1.3 0.4,1.2 -0.3,1.2 -0.7,0.9 -1.1,0.5 h -0.7 l -1,-0.3"
         stroke="#000000"
         stroke-width="1"
         id="path29" />
      <path
         d="m 270.2,67.6 0.1,0.5 -0.1,1 -0.3,0.6 -0.6,0.6 -1.5,0.4 -0.8,-0.4 -0.5,-0.4 -0.6,-0.9 -0.2,-1 0.2,-1 0.4,-1.6 2.6,-5.7 -5.1,1.1 m -3.3,11.4 3.6,-0.8 -0.5,-4.4 -0.3,0.5 -1,0.8 -1.1,0.2 -1.2,-0.3 -0.9,-0.8 -0.7,-1.4 -0.2,-1 v -1.5 l 0.5,-1.1 1,-0.8 1.1,-0.2 1.2,0.3 0.5,0.4 0.6,0.9"
         stroke="#000000"
         stroke-width="1"
         id="path30" />
      <path
         d="m 237.4,82.5 0.4,-0.2 h 1.1 l 0.6,0.1 0.8,0.5 0.6,1.4 -0.2,0.9 -0.3,0.5 -0.7,0.7 -1,0.4 -1,0.1 -1.7,-0.1 -6.1,-1.4 2.1,4.8 m 11.8,0.4 -7.9,-0.6 2.3,5.2 m 5.6,-4.6 -9.6,4.3"
         stroke="#000000"
         stroke-width="1"
         id="path31" />
      <path
         d="m 322.7,83.2 -0.4,-0.3 -0.5,-0.9 -0.1,-0.6 0.1,-0.9 1,-1.2 0.8,-0.2 h 0.6 l 1.1,0.4 0.7,0.6 0.5,0.9 0.7,1.6 1.4,6.1 3.4,-4 m -5.5,-6.1 0.1,-0.9 -0.5,-1.8 8.1,6.8"
         stroke="#000000"
         stroke-width="1"
         id="path32" />
      <path
         d="m 323.7,74.3 -0.3,0.4 -0.9,0.6 -0.6,0.2 H 321 l -1.2,-0.8 -0.3,-0.9 -0.1,-0.6 0.3,-1 0.6,-0.9 0.8,-0.6 1.5,-0.8 5.9,-2 -4.3,-3 m -9,2.4 1.2,-1.1 1.2,-0.4 1.2,0.3 0.3,0.2 0.6,1 0.1,1.3 -0.6,1.4 -0.2,0.4 -1.2,1.1 -1.2,0.4 -1.2,-0.3 -0.3,-0.2 -0.6,-1 -0.1,-1.3 0.8,-1.8 1.5,-2.1 1.7,-1.8 1.5,-0.8 1.2,0.2 0.6,0.4 0.6,1.1 -0.2,1"
         stroke="#000000"
         stroke-width="1"
         id="path33" />
      <path
         d="m 505.2,359.2 -0.8,-0.4 -1.9,-0.2 9.1,-5.2 m -12.5,-0.1 11,-1.9 m -8.4,6.5 -2.6,-4.6"
         stroke="#000000"
         stroke-width="1"
         id="path34" />
      <path
         d="m 485.3,380.9 0.4,1.5 -0.1,1.3 -0.8,1 -0.3,0.1 -1.2,0.2 -1.2,-0.5 -1,-1.1 -0.3,-0.5 -0.4,-1.4 0.1,-1.3 0.7,-1 0.4,-0.2 1.2,-0.1 1.1,0.5 1.4,1.5 1.2,2.2 1,2.3 0.1,1.7 -0.8,1 -0.6,0.4 -1.2,0.1 -0.9,-0.7"
         stroke="#000000"
         stroke-width="1"
         id="path35" />
      <path
         d="m 412.8,424.6 -0.5,-1.1 -1,-0.3 -1,0.1 -1,0.4 -0.5,0.8 -0.4,1.5 -0.4,1.1 -1,0.8 -1,0.5 h -1.5 l -1,-0.3 -0.5,-0.3 -0.6,-1.1 v -1.5 l 0.4,-1.2 0.5,-0.4 1,-0.4 1.5,-0.1 1,0.3 1,0.7 0.6,1.1 0.5,1.5 0.6,0.7 1,0.4 1,-0.1 1,-0.4 0.4,-1.2 -0.1,-1.7"
         stroke="#000000"
         stroke-width="1"
         id="path36" />
      <path
         d="m 466.8,447.8 -0.9,-0.3 -1.8,0.1 8.2,-6.5 m -9.5,-0.3 1.4,-0.6 h 1.3 l 1.1,0.6 0.2,0.3 0.3,1.2 -0.3,1.2 -1,1.2 -0.4,0.3 -1.4,0.6 h -1.2 l -1.1,-0.5 -0.3,-0.3 -0.3,-1.2 0.4,-1.2 1.3,-1.6 2,-1.5 2.2,-1.2 1.6,-0.4 1.1,0.6 0.5,0.6 0.3,1.2 -0.6,0.9"
         stroke="#000000"
         stroke-width="1"
         id="path37" />
      <path
         d="m 409.4,499.9 0.4,0.8 1.4,1.3 -10.4,-1.1 m 10.4,4.2 -0.4,-1.2 -0.9,-0.5 -1,-0.1 -1,0.3 -0.6,0.7 -0.7,1.4 -0.6,1.1 -1.1,0.6 -1,0.3 -1.5,-0.2 -1,-0.5 -0.4,-0.4 -0.4,-1.2 0.2,-1.5 0.6,-1 0.5,-0.3 1.1,-0.3 1.5,0.2 0.9,0.4 0.9,0.9 0.4,1.2 0.3,1.5 0.5,0.8 0.9,0.5 1,0.1 1,-0.3 0.7,-1 0.1,-1.7"
         stroke="#000000"
         stroke-width="1"
         id="path38" />
      <path
         d="m 448.4,504.5 v -0.9 l -0.5,-1.8 8.4,6.3 m -5.7,-10.7 3.4,7.2 3.3,-4.5 m -6.7,-2.7 8.4,6.3"
         stroke="#000000"
         stroke-width="1"
         id="path39" />
      <path
         d="m 411,532.2 0.9,-0.1 1.6,-1 -4.1,9.7 m 9.4,-7.8 -3.4,-1.5 -2.1,4 0.5,-0.3 h 1.2 l 1.1,0.4 0.8,0.9 0.3,1.2 -0.2,1.6 -0.4,0.9 -0.9,1.2 -1.1,0.7 h -1.2 l -1.1,-0.5 -0.8,-0.9 -0.2,-0.6 0.1,-1"
         stroke="#000000"
         stroke-width="1"
         id="path40" />
      <path
         d="m 388.4,338.3 -0.3,0.8 -0.1,1.9 -5.9,-8.7 m 3.2,10.9 0.7,-1 -0.2,-1.7 -1.1,-2.3 -0.9,-1.2 -1.7,-1.9 -1.4,-0.8 -1.2,0.2 -0.7,0.4 -0.6,1.1 0.2,1.6 1.1,2.3 0.8,1.3 1.7,1.8 1.5,0.8 1.2,-0.2 0.5,-0.3"
         stroke="#000000"
         stroke-width="1"
         id="path41" />
      <path
         d="m 487.8,312 -0.6,-0.7 -1.6,-0.9 10.4,-1.3 m -11.5,-4.9 10.8,2.5 m -10.2,2.7 -0.6,-5.2"
         stroke="#000000"
         stroke-width="1"
         id="path42" />
      <path
         d="m 451.6,288.3 0.5,-1.5 0.8,-0.9 1.2,-0.3 h 0.4 l 1.1,0.6 0.6,1.1 0.2,1.5 -0.1,0.5 -0.5,1.5 -0.9,0.9 -1.1,0.4 -0.4,-0.1 -1.1,-0.6 -0.6,-1.1 -0.1,-2 0.2,-2.5 0.7,-2.4 0.9,-1.4 1.2,-0.4 0.7,0.1 1.1,0.6 0.2,1"
         stroke="#000000"
         stroke-width="1"
         id="path43" />
      <path
         d="m 420.7,292.6 0.3,0.8 1.2,1.5 -10.2,-2.6 m 7.7,7.8 1,-0.1 0.8,-1 0.2,-0.7 -0.3,-1.2 -1.2,-1.1 -2.4,-1 -2.4,-0.6 -2,-0.1 -1.2,0.5 -0.7,0.9 -0.1,0.4 0.2,1.2 0.8,1 1.3,0.7 0.5,0.1 h 1.6 l 1.1,-0.4 0.8,-1 0.1,-0.4 -0.2,-1.2 -0.8,-1 -1.4,-0.7"
         stroke="#000000"
         stroke-width="1"
         id="path44" />
      <path
         d="m 125.7,92.2 -0.3,-0.4 -0.1,-1 v -0.7 l 0.4,-0.8 1.3,-0.7 h 0.9 l 0.6,0.3 0.8,0.6 0.5,0.9 0.2,1.1 0.1,1.6 -0.7,6.2 4.5,-2.6 m -3.6,-10 3.6,-2.1 v 4.6 l 1,-0.6 0.9,0.1 0.6,0.2 1.1,1.1 0.5,0.9 0.4,1.5 -0.2,1.2 -0.7,1 -0.9,0.6 -1.3,0.1 -0.5,-0.2 -0.9,-0.7"
         stroke="#000000"
         stroke-width="1"
         id="path45" />
      <path
         d="m 122,39.5 -0.6,0.7 -0.5,1.8 -3.4,-9.9 m -3.4,8.9 -0.1,-1.6 0.4,-1.1 0.9,-0.9 0.3,-0.1 1.3,0.1 1,0.7 0.8,1.3 0.2,0.5 0.1,1.5 -0.4,1.2 -0.9,0.8 -0.3,0.2 -1.3,-0.1 -1,-0.7 -1,-1.8 -0.8,-2.4 -0.5,-2.5 0.3,-1.6 0.9,-0.9 0.7,-0.2 1.2,0.1 0.7,0.8"
         stroke="#000000"
         stroke-width="1"
         id="path46" />
      <path
         d="m 159.3,58.4 -0.1,-0.9 -0.8,-1.7 9.4,4.8 m -7.1,-4.8 -0.1,-0.9 -0.9,-1.7 9.4,4.8"
         stroke="#000000"
         stroke-width="1"
         id="path47" />
      <path
         d="m 164.1,39.8 -0.9,0.2 -1.6,0.9 4,-9.7 m -8.8,6.5 v 1.1 l 0.8,0.8 0.7,0.3 h 1.3 l 1.2,-1.1 1.3,-2.2 1,-2.3 0.4,-2 -0.3,-1.2 -0.9,-0.9 -0.3,-0.1 h -1.3 l -1,0.7 -0.9,1.2 -0.2,0.5 -0.3,1.5 0.4,1.2 0.8,0.9 0.3,0.1 h 1.3 l 1.1,-0.6 0.9,-1.3"
         stroke="#000000"
         stroke-width="1"
         id="path48" />
    </g>
    <path
       d="m 253.5,228 1.2,-0.8 1.6,-2.2 v 15.7"
       id="titre_1"
       stroke="#4b0082"
       style="stroke-width:1.90404" />
  </g>
  <g
     id="page_002">
    <path
       d="m 840.8,298.9 -77.4,22.9 108.6,13.8 105.6,28.8 79,16.6 -17.3,51.4 -55.8,15.5 40.1,21.3 24.6,70 -111.1,0.6 -11.8,-72 44.5,-79.9 -53.1,3.3 -74.2,-1.7 -70.3,23.7 -36.5,-39.8 -82.6,-21.1 25.8,34.2 45.5,45.1 -75.6,77.7 -40.9,-78.3 -37.5,-21.5 -5.7,-52.7 -17.5,-52.9 12.1,-34.7 20.9,-33.1 35.6,-50.6 -15.9,-49.1 -47.3,-39.4 25.8,-29.9 85.9,50 37.2,-11.7 -6.7,-38.4 97.1,-21.1 8.1,82.7 50.8,-65.8 37.1,-13.5 43.7,46.7 35.4,24.2 -77.7,34.9 8.1,53.4 -52.5,-7.7 -91.4,0.3 -72.9,-3.4 -50.6,99 71.7,-19.2 1.9,-45.3 55.3,17.3 34.6,-41.8 102.65,4.6 z"
       id="coupes_002"
       stroke="#ff0000"
       stroke-width="1.27"
       sodipodi:nodetypes="ccccccccccccccccccccccccccccccccccccccccccccccccccc" />
    <path
       d="m 547.2,303.9 82.8,-7.2 m 0,0 -65.3,60.1 m -5.4,-87.6 70.7,27.5 m 23.1,55.6 -88.4,4.5 m 137,-79.3 -48.6,74.8 m 0,0 -45.2,78.7 M 580.2,236.1 680.6,197.7 m 82.8,124.1 -110.3,30.5 m 25.8,34.2 -71,44.5 M 813,261.1 763.4,321.8 M 701.7,277.5 813,261.1 m -197.2,-75.6 48.5,-68.4 m 0,0 16.3,80.6 m 21.1,79.8 57.2,-28 m 4.5,72.3 79.1,67.7 m 0,0 -106.8,-16.1 m -135.8,-237 64.4,-19.3 m 37.2,-11.7 -20.9,92.3 M 813,261.1 896.3,212.6 M 758.9,249.5 896,212 m -24,123.6 -29.5,53.9 m -141,-284.1 52,95.7 M 872,335.6 916.7,391.2 M 701.5,105.4 800,128.6 m 0,0 -46.5,72.5 M 872,335.6 969.8,387.9 M 800,128.6 l 44.9,72.2 m 211.7,180.2 -86.8,6.9 m 86.8,-6.9 -73.1,66.9 m 0,0 -58.2,19.9 m 58.2,-19.9 -46.4,91.9 m 86.5,-70.6 -86.5,70.6 M 800,128.6 l 89.3,26.5 m -38.5,-92.3 38.5,92.3 M 931.6,96 889.3,155.1 M 701.5,105.4 791.9,45.9 m -113,340.6 -30.1,122.8"
       id="plisM_002"
       stroke="#a52a2a"
       stroke-dasharray="4" />
    <path
       d="m 630,296.7 23.1,55.6 M 580.2,236.1 630,296.7 M 607.9,431 564.7,356.8 m 137,-79.3 61.7,44.3 m -147.6,-136.3 64.8,12.2 m 82.8,124.1 -27.7,51.6 M 813,261.1 840.8,298.9 M 758.9,249.5 813,261.1 M 552.6,97 664.3,117.1 m 313.3,247.3 -7.8,23.5 m 13.7,60 -13.7,-60 m -80.5,-232.8 -44.4,45.7 m 43,-151.5 1.4,105.8"
       id="plisV_002"
       stroke="#008000"
       stroke-dasharray="4, 1, 1, 1"
       stroke-width="1.27" />
    <path
       d="m 639.5,322.5 4,4 m 0,-4 -4,4 m -36.4,-62.1 4,4 m 0,-4 -4,4 m -18.8,123.5 4,4 m 0,-4 -4,4 m 146.3,-98.2 4,4 m 0,-4 -4,4 m -84.4,-112.1 4,4 m 0,-4 -4,4 m 101.4,152 4,4 m 0,-4 -4,4 m 77.3,-71.6 4,4 m 0,-4 -4,4 m -41,-28.7 4,4 m 0,-4 -4,4 M 606.4,105 l 4,4 m 0,-4 -4,4 m 365.3,265.1 4,4 m 0,-4 -4,4 m 2.9,37.8 4,4 m 0,-4 -4,4 m -109.5,-244 4,4 m 0,-4 -4,4 m 21.5,-79.7 4,4 m 0,-4 -4,4"
       id="marqueV_002"
       stroke="#008000" />
    <g
       id="nums_002">
      <path
         d="m 567.3,320.8 1.3,3.9 -4.5,-0.8 0.3,1 -0.2,0.9 -0.4,0.5 -1.3,0.8 -0.9,0.4 -1.6,0.1 -1.2,-0.4 -0.8,-0.9 -0.3,-1.1 0.1,-1.2 0.3,-0.6 0.9,-0.6 m 10.8,5.6 -0.9,-0.9 -1.6,-0.3 -2.5,0.4 -1.4,0.5 -2.3,1.1 -1.2,1.2 -0.1,1.3 0.2,0.7 0.9,0.9 1.6,0.2 2.5,-0.4 1.4,-0.5 2.3,-1.1 1.2,-1.2 0.1,-1.2 -0.2,-0.6"
         stroke="#000000"
         stroke-width="1"
         id="path49" />
      <path
         d="m 568.1,285.8 -1.3,3.9 -3.1,-3.5 -0.3,1.1 -0.8,0.5 -0.5,0.2 -1.6,-0.1 -0.9,-0.3 -1.3,-0.9 -0.7,-1 -0.1,-1.3 0.3,-1 0.9,-0.9 0.6,-0.2 h 1.1 m 3.3,8.6 0.5,0.2 0.8,0.7 0.3,0.5 0.3,0.9 -0.5,1.4 -0.8,0.5 -0.6,0.2 h -1 l -1,-0.3 -0.8,-0.7 -1.2,-1.2 -3.4,-5.2 -1.8,5"
         stroke="#000000"
         stroke-width="1"
         id="path50" />
      <path
         d="m 584.3,255.3 -2.2,3.5 -2.1,-4 -0.6,0.9 -0.9,0.4 h -0.6 l -1.5,-0.4 -0.8,-0.6 -1.1,-1.1 -0.4,-1.2 0.2,-1.2 0.6,-0.9 1,-0.7 0.6,-0.1 1.1,0.3 m 1.3,13.7 2,-3.2 -3.6,-2.7 0.3,0.6 -0.2,1.2 -0.6,1 -1,0.7 -1.3,0.1 -1.5,-0.5 -0.8,-0.6 -1.1,-1.1 -0.4,-1.1 0.2,-1.3 0.6,-0.9 1,-0.7 h 0.6 l 1,0.2"
         stroke="#000000"
         stroke-width="1"
         id="path51" />
      <path
         d="m 674.7,299 -4,1 1.2,-4.4 -1.1,0.3 -0.9,-0.3 -0.5,-0.4 -0.7,-1.3 -0.3,-1 v -1.6 l 0.5,-1.1 0.9,-0.8 1.1,-0.3 1.2,0.2 0.5,0.4 0.6,0.9 m -5.8,10.3 1,-0.7 0.1,-1.1 -0.3,-1 -0.6,-0.8 -0.9,-0.3 -1.5,-0.1 -1.3,-0.2 -0.9,-0.8 -0.7,-0.9 -0.3,-1.4 0.1,-1.1 0.2,-0.6 1,-0.7 1.4,-0.4 1.2,0.2 0.5,0.4 0.6,0.8 0.4,1.5 -0.1,1 -0.5,1.2 -0.9,0.8 -1.3,0.9 -0.6,0.6 -0.1,1.1 0.2,1 0.6,0.8 1.3,0.2 1.6,-0.4"
         stroke="#000000"
         stroke-width="1"
         id="path52" />
      <path
         d="m 640.5,245.9 1.9,-3.7 2.5,3.8 0.6,-1 0.7,-0.4 0.7,-0.1 1.5,0.3 0.8,0.5 1.2,1 0.6,1.1 -0.1,1.2 -0.5,1 -1,0.8 -0.6,0.1 -1,-0.1 m -1.3,-12.9 -1.1,-0.1 -0.9,0.7 -0.4,0.7 v 1.2 l 1,1.4 2,1.4 2.2,1.2 2,0.6 1.2,-0.3 1,-0.7 0.2,-0.4 V 242 l -0.5,-1.1 -1.2,-1 -0.4,-0.3 -1.5,-0.3 -1.3,0.2 -0.9,0.8 -0.2,0.3 -0.1,1.2 0.6,1.2 1.1,1"
         stroke="#000000"
         stroke-width="1"
         id="path53" />
      <path
         d="m 656.7,380 7.8,-1.2 -3.3,-4.5 m -4.5,5.7 8.4,-6.3 m -10.6,3.3 -2.5,-3.3 4.6,-0.7 -0.7,-0.9 -0.1,-0.9 0.2,-0.6 1,-1.2 0.8,-0.6 1.4,-0.6 h 1.3 l 1,0.6 0.7,0.9 0.3,1.2 -0.2,0.6 -0.6,0.9"
         stroke="#000000"
         stroke-width="1"
         id="path54" />
      <path
         d="m 584.16039,403.70042 3.6,2.1 -3.9,2.3 0.9,0.6 0.4,0.8 0.1,0.6 -0.4,1.5 -0.5,0.8 -1.1,1.2 -1.1,0.5 -1.2,-0.2 -1,-0.5 -0.8,-1 v -0.6 l 0.1,-1.1 m 10.5,-3.8 3.5,2 -3.9,2.4 1,0.5 0.4,0.9 0.1,0.6 -0.5,1.5 -0.4,0.8 -1.1,1.1 -1.2,0.5 -1.2,-0.1 -1,-0.5 -0.7,-1 -0.1,-0.7 0.2,-1"
         stroke="#000000"
         stroke-width="1"
         id="path55" />
      <path
         d="m 580.15304,386.2918 0.4,4.1 -4.2,-1.8 0.1,1.1 -0.4,0.8 -0.4,0.5 -1.5,0.5 -1,0.1 -1.5,-0.2 -1.1,-0.6 -0.6,-1.1 -0.1,-1.1 0.3,-1.2 0.5,-0.4 1,-0.5 m 9.6,9.4 -7.3,-3 0.6,5.6 m 6.7,-2.6 -10.4,1.1"
         stroke="#000000"
         stroke-width="1"
         id="path56" />
      <path
         d="m 612.4,214.2 -2.4,3.4 -1.9,-4.2 -0.7,1 -0.8,0.3 h -0.7 l -1.4,-0.6 -0.8,-0.5 -1,-1.2 -0.4,-1.2 0.2,-1.2 0.7,-0.9 1,-0.6 0.7,-0.1 1,0.3 m 0.3,14.3 -6.4,-9.1 m 9.4,4.8 -3,4.3"
         stroke="#000000"
         stroke-width="1"
         id="path57" />
      <path
         d="m 695.1,348.7 -5.4,5.9 5.5,1.4 m -0.1,-7.3 -2.6,10.2 m 9.4,-8.4 -5.4,5.8 5.4,1.4 m 0,-7.2 -2.6,10.1"
         stroke="#000000"
         stroke-width="1"
         id="path58" />
      <path
         d="m 795.4,297.9 -1.6,7.8 5.4,-1.6 m -3.8,-6.2 3,10.1 m 1.3,-8.7 -0.1,-0.4 v -1.1 l 0.3,-0.6 0.5,-0.7 1.5,-0.4 0.8,0.2 0.5,0.4 0.7,0.9 0.3,0.9 -0.1,1.1 -0.3,1.6 -2.2,5.9 5.1,-1.5"
         stroke="#000000"
         stroke-width="1"
         id="path59" />
      <path
         d="m 620.4,155.1 -1.2,-3.6 -4.4,1 0.6,0.2 0.8,1 0.4,1 -0.1,1.3 -0.8,1 -1.3,0.8 -0.9,0.3 -1.6,0.1 -1.1,-0.4 -0.9,-0.9 -0.3,-1.1 0.1,-1.2 0.4,-0.5 0.8,-0.7 m 10.3,4.2 1.3,3.9 -4.5,-0.9 0.3,1.1 -0.2,0.9 -0.4,0.5 -1.3,0.8 -1,0.3 -1.5,0.1 -1.2,-0.4 -0.8,-0.9 -0.3,-1.1 0.1,-1.2 0.3,-0.5 0.9,-0.7"
         stroke="#000000"
         stroke-width="1"
         id="path60" />
      <path
         d="m 688.7,123.8 3.6,-1.1 -1,-4.4 -0.2,0.6 -0.9,0.8 -1.1,0.3 -1.2,-0.1 -1.1,-0.7 -0.8,-1.3 -0.3,-1 -0.1,-1.5 0.5,-1.2 0.9,-0.8 1.1,-0.4 1.2,0.2 0.5,0.3 0.6,0.9 m -7.8,11.4 3.6,-1.2 -1,-4.4 -0.2,0.6 -0.9,0.8 -1.1,0.4 -1.2,-0.2 -1.1,-0.7 -0.8,-1.3 -0.3,-1 -0.1,-1.5 0.5,-1.2 0.9,-0.8 1,-0.3 1.3,0.1 0.5,0.4 0.6,0.8"
         stroke="#000000"
         stroke-width="1"
         id="path61" />
      <path
         d="m 854,252.9 2.3,-3.4 2.1,4 0.6,-0.9 0.8,-0.4 h 0.7 l 1.4,0.5 0.9,0.5 1,1.1 0.5,1.2 -0.2,1.2 -0.6,1 -1.1,0.6 -0.6,0.1 -1,-0.2 m -1.8,-8.7 v -0.9 l -0.6,-1.8 8.8,5.7"
         stroke="#000000"
         stroke-width="1"
         id="path62" />
      <path
         d="m 716.6,249.9 -0.2,4.2 -3.9,-2.5 v 1.2 l -0.5,0.7 -0.6,0.4 -1.5,0.3 -1,-0.1 -1.5,-0.4 -0.9,-0.8 -0.5,-1.1 0.1,-1.2 0.5,-1.1 0.5,-0.3 1,-0.4 m 4.6,11.5 -1.5,-0.4 -1,-0.8 -0.4,-1.1 v -0.4 l 0.5,-1.1 1.1,-0.7 1.5,-0.3 h 0.5 l 1.5,0.4 0.9,0.8 0.5,1.2 v 0.3 l -0.6,1.1 -1,0.8 -2,0.2 -2.5,-0.1 -2.5,-0.4 -1.5,-0.8 -0.4,-1.2 v -0.7 l 0.5,-1.1 1.1,-0.4"
         stroke="#000000"
         stroke-width="1"
         id="path63" />
      <path
         d="m 729.8,254.9 5.7,-5.5 -5.4,-1.7 m -0.3,7.2 3.2,-10 m -8.2,8.3 1.2,-0.1 1.2,-1.2 1.1,-2.3 0.4,-1.4 0.4,-2.5 -0.2,-1.7 -1,-0.8 -0.7,-0.2 -1.2,0.1 -1.2,1.2 -1.1,2.3 -0.4,1.4 -0.4,2.5 0.3,1.7 0.9,0.8 0.5,0.2"
         stroke="#000000"
         stroke-width="1"
         id="path64" />
      <path
         d="m 818.8,342.8 4.6,-6.4 -5.6,-0.8 m 1,7.2 1.3,-10.4 m -9.3,9.3 5,-9.9 m 0.2,10.6 -5.2,-0.7"
         stroke="#000000"
         stroke-width="1"
         id="path65" />
      <path
         d="m 801.3,388.9 -3.5,1.2 1.1,4.4 0.2,-0.6 0.9,-0.8 1,-0.4 1.3,0.1 1,0.7 0.8,1.3 0.3,1 0.2,1.5 -0.4,1.2 -0.9,0.8 -1.1,0.4 -1.2,-0.1 -0.5,-0.4 -0.7,-0.8 m 4,-7.8 0.6,-0.8 0.6,-1.7 3.3,9.9"
         stroke="#000000"
         stroke-width="1"
         id="path66" />
      <path
         d="m 762.2,381.8 -7.6,2 3.8,4.2 m 3.8,-6.2 -7.7,7.1 m 11,-3.3 -1.1,-0.5 -1,0.4 -0.7,0.6 -0.5,1 0.1,0.9 0.7,1.4 0.3,1.2 -0.2,1.2 -0.5,1 -1.1,1 -1,0.4 h -0.6 l -1.1,-0.4 -1,-1.2 -0.4,-1.1 0.1,-0.6 0.5,-1 1.1,-1 1,-0.4 1.2,-0.1 1.1,0.5 1.4,0.7 0.9,0.3 1,-0.4 0.7,-0.7 0.5,-1 -0.4,-1.1 -1.1,-1.3"
         stroke="#000000"
         stroke-width="1"
         id="path67" />
      <path
         d="m 585.28784,106.4761 -2.9,-2.4 -3.2,3.2 0.6,-0.1 1.2,0.3 0.9,0.8 0.5,1.1 v 1.2 l -0.7,1.4 -0.7,0.8 -1.2,0.9 -1.2,0.3 -1.2,-0.4 -0.9,-0.7 -0.5,-1.1 v -0.6 l 0.4,-1 m 13.5,0 -7.4,3 4.3,3.6 m 3.1,-6.6 -6.8,8.1"
         stroke="#000000"
         stroke-width="1"
         id="path68" />
      <path
         d="m 714.8,185.4 -4.1,6.9 5.6,0.2 m -1.5,-7.1 -0.5,10.5 m 8,-10 -3.8,-0.2 -0.5,4.5 0.4,-0.5 1.1,-0.5 1.1,0.1 1.1,0.6 0.7,1 0.3,1.5 v 1 l -0.5,1.5 -0.7,0.9 -1.2,0.5 -1.1,-0.1 -1.1,-0.5 -0.4,-0.5 -0.3,-1"
         stroke="#000000"
         stroke-width="1"
         id="path69" />
      <path
         d="m 878.2,376.6 -3.7,-0.1 -0.5,4.5 0.4,-0.5 1.1,-0.5 1.1,0.1 1.1,0.5 0.8,1 0.3,1.5 v 1 l -0.4,1.5 -0.8,1 -1.1,0.5 -1.2,-0.1 -1.1,-0.5 -0.3,-0.5 -0.4,-1 m 6.5,-6 0.7,-0.5 1.2,-1.5 -0.2,10.5"
         stroke="#000000"
         stroke-width="1"
         id="path70" />
      <path
         d="m 577.2,89.6 2.4,-2.8 -3.2,-3.3 0.2,0.7 -0.4,1.1 -0.7,0.9 -1.1,0.5 -1.3,-0.1 -1.4,-0.7 -0.7,-0.6 -0.9,-1.3 -0.3,-1.2 0.4,-1.2 0.7,-0.8 1.1,-0.6 0.7,0.1 1,0.3 m -0.1,9.3 0.4,0.4 0.5,0.9 0.1,0.6 -0.1,0.9 -1,1.1 -0.9,0.3 -0.6,-0.1 -1,-0.3 -0.7,-0.7 -0.6,-0.9 -0.6,-1.6 -1.3,-6.1 -3.5,4"
         stroke="#000000"
         stroke-width="1"
         id="path71" />
      <path
         d="m 616,104.9 3.2,1.9 2.6,-3.7 -0.6,0.2 -1.2,-0.1 -1,-0.6 -0.7,-1 -0.1,-1.2 0.4,-1.5 0.5,-0.9 1.1,-1.1 1.1,-0.5 1.2,0.2 1,0.5 0.7,1 0.1,0.6 -0.2,1.1 m -12.9,0.5 -0.2,1.1 0.7,1 0.6,0.4 1.3,0.1 1.4,-0.9 1.6,-2 1.2,-2.1 0.7,-2 -0.2,-1.2 -0.7,-1 -0.3,-0.2 -1.2,-0.1 -1.2,0.5 -1.1,1.1 -0.2,0.4 -0.4,1.5 0.1,1.2 0.7,1 0.4,0.2 1.2,0.1 1.1,-0.4 1.1,-1.1"
         stroke="#000000"
         stroke-width="1"
         id="path72" />
      <path
         d="m 935.14215,376.34696 -3.3,7.3 5.6,-0.4 m -2.3,-6.9 0.7,10.5 m 7.5,-7.4 -0.3,1.5 -0.7,1.1 -1.1,0.6 h -0.4 l -1.1,-0.4 -0.8,-1 -0.5,-1.5 v -0.5 l 0.2,-1.5 0.7,-1 1.1,-0.6 h 0.4 l 1.1,0.4 0.9,1 0.5,1.9 0.1,2.5 -0.2,2.5 -0.7,1.6 -1.1,0.6 h -0.7 l -1.2,-0.4 -0.4,-1"
         stroke="#000000"
         stroke-width="1"
         id="path73" />
      <path
         d="m 796.2,187.1 -3.7,7 h 5.6 m -1.9,-7 0.1,10.5 m 7.5,-8.9 -0.4,-1 -1.1,-0.5 h -0.7 l -1.2,0.5 -0.7,1.5 -0.4,2.5 v 2.5 l 0.4,2 0.8,1 1.1,0.5 h 0.4 l 1.1,-0.5 0.7,-1 0.4,-1.5 v -0.5 l -0.4,-1.5 -0.7,-1 -1.2,-0.5 h -0.3 l -1.2,0.5 -0.7,1 -0.4,1.5"
         stroke="#000000"
         stroke-width="1"
         id="path74" />
      <path
         d="m 934.2918,365.44088 5.5,-5.8 -5.4,-1.4 m -0.1,7.2 2.8,-10.1 m -10.6,7.9 6.4,-9.2 m -1.3,10.6 -5.1,-1.4"
         stroke="#000000"
         stroke-width="1"
         id="path75" />
      <path
         d="m 1005.2556,383.22433 5.1,-6.1 -5.5,-1.1 m 0.4,7.2 2.1,-10.3 m -5.2,7 -0.1,0.5 -0.6,0.9 -0.5,0.4 -0.8,0.4 -1.50002,-0.4 -0.6,-0.6 -0.3,-0.6 -0.1,-1 0.2,-1 0.6,-0.9 1,-1.3 4.70002,-4.1 -5.10002,-1.1"
         stroke="#000000"
         stroke-width="1"
         id="path76" />
      <path
         d="m 961,432.1 -4.3,-6.7 -2.7,4.9 m 7,1.8 -9.1,-5.1 m 4.1,10.9 1,0.1 1,-0.7 0.4,-0.6 0.1,-1.3 -1,-1.4 -2,-1.5 -2.2,-1.2 -1.9,-0.7 -1.2,0.2 -1,0.7 -0.2,0.4 -0.1,1.2 0.5,1.1 1.1,1.1 0.5,0.2 1.5,0.4 1.2,-0.1 1,-0.8 0.2,-0.3 0.1,-1.2 -0.5,-1.2 -1.2,-1"
         stroke="#000000"
         stroke-width="1"
         id="path77" />
      <path
         d="m 944.4,498.7 -7.5,-2.6 0.9,5.6 m 6.6,-3 -10.4,1.7 m 11.5,5.7 -0.6,-3.7 -4.5,0.4 0.5,0.3 0.7,1 0.2,1.1 -0.3,1.2 -0.9,0.9 -1.4,0.6 -1,0.2 -1.5,-0.1 -1.1,-0.6 -0.7,-1 -0.2,-1.2 0.3,-1.1 0.5,-0.5 0.9,-0.5"
         stroke="#000000"
         stroke-width="1"
         id="path78" />
      <path
         d="m 1001.9,473.3 -3.6,-2 3.8,-2.4 -0.9,-0.6 -0.5,-0.8 -0.1,-0.6 0.4,-1.5 0.5,-0.9 1,-1.1 1.1,-0.5 h 1.3 l 1,0.6 0.7,0.9 0.1,0.6 -0.1,1.1 m -12.4,-0.9 1.1,-1.1 1.1,-0.6 1.2,0.1 0.4,0.2 0.7,1 0.2,1.2 -0.4,1.5 -0.2,0.5 -1,1.1 -1.2,0.5 h -1.2 l -0.3,-0.2 -0.8,-1 -0.2,-1.2 0.6,-2 1.2,-2.2 1.5,-2 1.4,-1 1.2,0.1 0.7,0.3 0.7,1 -0.1,1.1"
         stroke="#000000"
         stroke-width="1"
         id="path79" />
      <path
         d="m 987.1,525.8 4.1,-0.1 -2.2,4.1 1.1,-0.1 0.7,0.5 0.4,0.5 0.4,1.5 v 1 l -0.4,1.5 -0.7,1 -1.1,0.6 h -1.2 l -1.1,-0.5 -0.4,-0.5 -0.3,-1 m 10.9,-7.1 -0.4,-1 -1.1,-0.5 H 995 l -1.1,0.5 -0.8,1.5 -0.3,2.5 v 2.5 l 0.4,2 0.7,1 1.2,0.5 h 0.3 l 1.2,-0.5 0.7,-1 0.4,-1.5 v -0.5 l -0.4,-1.5 -0.8,-1 -1.1,-0.5 H 995 l -1.1,0.5 -0.7,1 -0.4,1.5"
         stroke="#000000"
         stroke-width="1"
         id="path80" />
      <path
         d="m 1024.7,513.9 -1.3,-3.8 4.5,0.8 -0.4,-1.1 0.2,-0.9 0.4,-0.5 1.3,-0.9 0.9,-0.3 1.6,-0.1 1.2,0.3 0.8,0.9 0.4,1.1 -0.1,1.2 -0.4,0.5 -0.8,0.7 m -10.8,-5 0.9,0.9 h 1 l 1,-0.3 0.8,-0.7 0.2,-0.9 v -1.5 l 0.1,-1.3 0.7,-1 0.8,-0.7 1.4,-0.5 h 1.1 l 0.6,0.2 0.8,0.9 0.5,1.4 -0.1,1.3 -0.3,0.5 -0.8,0.7 -1.4,0.5 -1.1,-0.1 -1.2,-0.3 -0.8,-0.9 -1,-1.3 -0.7,-0.5 h -1.1 l -0.9,0.3 -0.9,0.7 -0.1,1.2 0.6,1.6"
         stroke="#000000"
         stroke-width="1"
         id="path81" />
      <path
         d="m 1010.5987,426.14738 -1.8,7.7 5.5,-1.5 m -3.7,-6.2 2.8,10.1 m 2.3,-11.4 -0.9,0.7 -0.3,1.7 0.3,2.5 0.4,1.4 1,2.4 1.1,1.2 1.2,0.2 0.8,-0.2 0.9,-0.8 0.3,-1.7 -0.3,-2.5 -0.4,-1.4 -1,-2.3 -1.1,-1.3 -1.3,-0.1 -0.5,0.1"
         stroke="#000000"
         stroke-width="1"
         id="path82" />
      <path
         d="m 1033.3413,408.91089 5.4,5.8 1.8,-5.4 m -7.2,-0.4 9.9,3.3 m -6.6,-5.3 -0.3,-0.9 -1,-1.5 9.9,3.3"
         stroke="#000000"
         stroke-width="1"
         id="path83" />
      <path
         d="m 788.7,235.2 -3,-7.3 -3.6,4.3 m 6.6,3 -8.1,-6.7 m 4.3,7.4 -0.1,0.9 0.5,1.8 -8.1,-6.7"
         stroke="#000000"
         stroke-width="1"
         id="path84" />
      <path
         d="m 849.6,223.8 -4.1,-0.2 2.4,-3.9 h -1.1 l -0.7,-0.5 -0.4,-0.6 -0.3,-1.5 0.1,-1 0.4,-1.5 0.8,-0.9 1.1,-0.5 1.2,0.1 1.1,0.5 0.3,0.5 0.3,1.1 m -6.5,5.8 -0.8,0.5 -1.2,1.4 0.4,-10.4"
         stroke="#000000"
         stroke-width="1"
         id="path85" />
      <path
         d="m 837.3,102.7 2.3,-3 -3.3,-3 0.2,0.6 -0.3,1.2 -0.7,0.9 -1.1,0.6 h -1.2 l -1.5,-0.7 -0.7,-0.6 -1,-1.2 -0.3,-1.2 0.3,-1.2 0.6,-0.9 1.1,-0.6 h 0.6 l 1.1,0.4 m -0.3,14.3 -6.1,-9.4 m 9.3,5.2 -3.2,4.2"
         stroke="#000000"
         stroke-width="1"
         id="path86" />
      <path
         d="m 875.8,68.3 3.6,-1.3 -1.2,-4.3 -0.2,0.6 -0.9,0.8 -1.1,0.4 -1.2,-0.1 -1,-0.7 -0.9,-1.2 -0.3,-1 -0.2,-1.5 0.3,-1.2 0.9,-0.9 1.1,-0.4 1.2,0.1 0.5,0.4 0.7,0.8 m -4.5,8 0.1,0.5 v 1.1 l -0.2,0.6 -0.5,0.7 -1.4,0.5 -0.9,-0.2 -0.5,-0.3 -0.7,-0.9 -0.3,-0.9 v -1.1 l 0.2,-1.6 1.8,-6 -5,1.8"
         stroke="#000000"
         stroke-width="1"
         id="path87" />
      <path
         d="m 900.9,83.3 2.6,2.8 3.5,-2.8 h -0.6 l -1.1,-0.5 -0.8,-0.8 -0.4,-1.1 0.2,-1.3 0.8,-1.3 0.8,-0.7 1.3,-0.7 1.3,-0.1 1.1,0.4 0.8,0.9 0.4,1.1 -0.1,0.6 -0.5,1 m -12.2,-0.5 1.2,0.4 1.6,-0.4 2.1,-1.5 1.1,-1 1.5,-2 0.6,-1.6 -0.4,-1.1 -0.5,-0.6 -1.1,-0.4 -1.6,0.4 -2.1,1.5 -1.1,1 -1.6,2 -0.6,1.5 0.4,1.2 0.4,0.4"
         stroke="#000000"
         stroke-width="1"
         id="path88" />
      <path
         d="m 919.8,126.2 -0.5,7.9 5.1,-2.3 m -4.6,-5.6 4.3,9.6 m 2.1,-12.5 -0.5,7.9 5.1,-2.3 m -4.6,-5.6 4.3,9.6"
         stroke="#000000"
         stroke-width="1"
         id="path89" />
      <path
         d="m 943.9,121.1 7,-3.6 -4.6,-3.2 m -2.4,6.8 5.9,-8.6 m -9,6.4 -3.4,-2.3 4.1,-2 -0.9,-0.7 -0.3,-0.8 -0.1,-0.6 0.6,-1.5 0.5,-0.8 1.2,-1 1.2,-0.4 1.2,0.2 0.9,0.6 0.7,1.1 v 0.6 l -0.3,1"
         stroke="#000000"
         stroke-width="1"
         id="path90" />
      <path
         d="m 782.4,90.3 0.4,3.8 4.5,-0.1 -0.5,-0.3 -0.6,-1.1 -0.1,-1.1 0.3,-1.2 1,-0.8 1.4,-0.6 1,-0.1 1.5,0.3 1.1,0.6 0.6,1.1 0.1,1.1 -0.4,1.2 -0.4,0.4 -1,0.5 m -9.6,-10.6 10.9,2.7 m -10.3,2.5 -0.6,-5.2"
         stroke="#000000"
         stroke-width="1"
         id="path91" />
      <path
         d="m 747.9,69.5 3.7,-0.8 -0.6,-4.5 -0.2,0.6 -1,0.7 -1.1,0.3 -1.2,-0.3 -1,-0.8 -0.7,-1.4 -0.2,-1 0.1,-1.5 0.5,-1.2 1,-0.7 1.1,-0.2 1.2,0.2 0.5,0.4 0.5,0.9 m -9.2,9.2 0.6,0.9 1.2,0.2 0.7,-0.1 1,-0.7 0.5,-1.7 -0.2,-2.5 -0.5,-2.4 -0.8,-1.9 -1,-0.8 -1.2,-0.3 -0.3,0.1 -1,0.7 -0.6,1.2 v 1.5 l 0.1,0.5 0.7,1.4 0.9,0.8 1.2,0.3 0.4,-0.1 1,-0.7 0.5,-1.2 0.1,-1.5"
         stroke="#000000"
         stroke-width="1"
         id="path92" />
      <path
         d="m 711.4,82.1 -0.7,-3.7 -4.5,0.4 0.6,0.3 0.7,1 0.2,1.1 -0.3,1.2 -0.9,0.9 -1.4,0.6 -1,0.2 -1.5,-0.1 -1.1,-0.6 -0.7,-1 -0.2,-1.1 0.3,-1.2 0.4,-0.4 0.9,-0.6 m 10.3,9.3 -0.7,-3.7 -4.5,0.4 0.6,0.3 0.7,1 0.2,1.1 -0.3,1.2 -0.9,0.9 -1.4,0.6 -1,0.2 -1.5,-0.1 -1.1,-0.6 -0.7,-1 -0.2,-1.1 0.3,-1.2 0.4,-0.4 0.9,-0.6"
         stroke="#000000"
         stroke-width="1"
         id="path93" />
      <path
         d="m 637,464.5 -1.5,0.4 -1.3,-0.2 -0.9,-0.8 -0.2,-0.3 -0.1,-1.3 0.5,-1.1 1.2,-1 0.4,-0.2 1.6,-0.4 1.2,0.2 0.9,0.8 0.2,0.3 0.1,1.2 -0.5,1.2 -1.6,1.2 -2.3,1.2 -2.3,0.8 h -1.7 l -1,-0.7 -0.3,-0.7 -0.1,-1.2 0.7,-0.8 m 11.4,5.5 0.7,-0.8 -0.1,-1.2 -0.3,-0.7 -1,-0.7 H 639 l -2.4,0.8 -2.2,1.2 -1.6,1.2 -0.5,1.2 v 1.2 l 0.2,0.3 1,0.8 1.2,0.2 1.5,-0.4 0.5,-0.2 1.1,-1 0.6,-1.1 -0.1,-1.3 -0.2,-0.3 -1,-0.8 -1.2,-0.2 -1.5,0.4"
         stroke="#000000"
         stroke-width="1"
         id="path94" />
      <path
         d="m 675.9,461.6 4.9,10.1 m -8.5,-6.3 3.6,-3.8 m 2.2,-2.1 -0.4,1.1 0.4,1 0.7,0.7 1,0.4 0.9,-0.2 1.4,-0.7 1.1,-0.5 1.3,0.2 0.9,0.4 1.1,1.1 0.5,0.9 0.1,0.6 -0.5,1.2 -1,1.1 -1.1,0.4 h -0.7 l -0.9,-0.5 -1.1,-1 -0.5,-1 -0.2,-1.2 0.5,-1.2 0.7,-1.4 0.1,-0.9 -0.4,-1 -0.8,-0.6 -0.9,-0.5 -1.2,0.5 -1.2,1.2"
         stroke="#000000"
         stroke-width="1"
         id="path95" />
      <path
         d="m 693.2,420.1 2.7,2.6 3.4,-2.9 -0.6,0.1 -1.2,-0.5 -0.8,-0.8 -0.4,-1.1 0.2,-1.2 0.8,-1.4 0.7,-0.7 1.3,-0.8 1.2,-0.2 1.2,0.5 0.8,0.8 0.4,1.1 -0.1,0.6 -0.4,1 m -12.2,-0.1 1.2,0.5 1.6,-0.6 2,-1.5 1.1,-1.1 1.5,-2 0.5,-1.6 -0.5,-1.1 -0.5,-0.6 -1.1,-0.4 -1.6,0.5 -2.1,1.5 -1,1.1 -1.5,2.1 -0.5,1.5 0.4,1.2 0.4,0.4"
         stroke="#000000"
         stroke-width="1"
         id="path96" />
      <path
         d="m 880.1,186.8 7.5,2.6 -0.9,-5.6 m -6.6,3 10.4,-1.6 m -11.1,-3.3 0.7,1 1,0.2 1,-0.1 1,-0.6 0.3,-0.8 0.3,-1.5 0.3,-1.2 0.9,-0.9 0.9,-0.5 1.5,-0.3 1.1,0.3 0.5,0.2 0.7,1.1 0.2,1.5 -0.3,1.2 -0.4,0.4 -1,0.5 -1.5,0.3 -1,-0.3 -1.1,-0.6 -0.7,-1 -0.7,-1.4 -0.6,-0.7 -1,-0.2 -1,0.2 -1,0.5 -0.3,1.2 0.3,1.6"
         stroke="#000000"
         stroke-width="1"
         id="path97" />
      <path
         d="m 870.3,190.5 -4.7,6.4 5.5,0.8 m -0.8,-7.2 -1.5,10.4 m 8.8,-5.7 -0.6,1.5 -0.8,0.9 -1.2,0.3 -0.4,-0.1 -1,-0.6 -0.6,-1.1 -0.2,-1.6 0.1,-0.5 0.6,-1.4 0.9,-0.9 1.2,-0.3 0.3,0.1 1.1,0.6 0.6,1.1 v 2 l -0.3,2.5 -0.8,2.4 -0.9,1.4 -1.2,0.3 -0.7,-0.1 -1.1,-0.6 -0.2,-1.1"
         stroke="#000000"
         stroke-width="1"
         id="path98" />
    </g>
    <path
       d="m 755.8,278.2 v -0.7 l 0.6,-1.5 0.6,-0.8 1.1,-0.7 h 2.2 l 1.2,0.7 0.5,0.8 0.6,1.5 v 1.5 l -0.6,1.5 -1.1,2.2 -5.6,7.5 h 7.8"
       id="titre_2"
       stroke="#4b0082"
       style="stroke-width:1.90404" />
  </g>
  <g
     id="page_003">
    <path
       d="m 1092.2,116.5 -18.2,-19.3 29,-28.9 91.6,-34.4 58.6,26 -77.7,36.9 73.9,-31.9 81.6,47.9 -21,84.1 47.4,-47.5 27.9,17.9 -8.4,-57.6 42.9,15.5 -11.8,-40.5 17,-20.2 49.6,25.7 50,25.1 -49.5,30.5 -31.9,8.9 -22.5,63.3 -32.2,80.6 -47.1,23.3 51.3,-11.3 90.4,-28 -61.9,-51.6 85.2,-12.1 73.7,91.2 -42.8,73.5 -51.3,-29.9 21.7,55.3 84.9,-5.7 -60.3,90.1 -60.1,-13.2 -45.7,23.9 -61.5,-6.2 9.7,-59.4 44.9,-45.7 -61.5,17.8 -39,45.9 -38.3,-8.1 -20.8,-59.8 56.3,-82.6 -43.1,-101.4 -60.3,-65.4 -90.1,38.5 -31.3,26.3 -6.35,-42.05 z"
       id="coupes_003"
       stroke="#ff0000"
       stroke-width="1.27"
       sodipodi:nodetypes="cccccccccccccccccccccccccccccccccccccccccccccccc" />
    <path
       d="m 1316.3,306 2.8,150.5 m 22.3,-134.6 -22.3,134.6 m -2.8,-150.5 25.1,15.9 m 0,0 16.7,88.7 M 1316.3,306 1357.4,149.4 m 0,0 -16,172.5 m 43.9,-154.6 -43.9,154.6 m 51.3,-11.3 26.9,82.2 m -146.4,-188.2 36.8,-7.7 m 75.3,-29.6 3.2,131.3 m -115.3,-94 -23.8,-139.7 m -36.5,74.3 -98.4,18.3 m 8.3,20.2 -8.3,-20.2 m 8.3,20.2 -37.6,-15.3 m 0,0 29.3,-4.9 m -22.3,-41 83.3,-19.7 m 217.2,213.8 93.3,43.1 m 0,0 -66.4,39.1 m 63.5,-110.2 2.9,71.1 m -66.2,-228.5 0.9,92.8 m -0.9,-92.8 23.4,29.5 m -23.4,-29.5 54.8,-35 m 0,0 -31.4,64.5 m 31.4,-64.5 0.5,55.6 m -67.1,-61.1 66.6,5.5 m 33.1,318.8 -88.1,-16.2 m 88.1,16.2 -35.5,71.2 m 0,0 -52.6,-87.4 m 6.9,111.3 -6.9,-111.3 m 6.9,111.3 -51.8,-65.6 m 133,-29.5 24.6,84.4 m 47.8,-183.3 -94.1,43.6 M 1074,97.2 1175.5,96.8 M 1103,68.3 1253.2,59.9"
       id="plisM_003"
       stroke="#a52a2a"
       stroke-dasharray="4" />
    <path
       d="m 1316.3,306 -35.5,142.4 m 111.9,-137.8 -34.6,100 M 1316.3,306 1310,196.9 m 75.3,-29.6 35.4,50.7 m -147.5,-13.4 57.8,-91.8 m -118.1,26.4 36.5,-74.3 m -36.5,74.3 -37.4,-42.4 m -61,60.7 61,-60.7 m -61,60.7 -22.3,-41 m 293.1,50.8 34.5,-42.1 m 63.3,157.4 97,27.5 m -97,-27.5 23.3,-63.7 M 1103,68.3 l 72.5,28.5"
       id="plisV_003"
       stroke="#008000"
       stroke-dasharray="4, 1, 1, 1"
       stroke-width="1.27" />
    <path
       d="m 1296.5,375.2 4,4 m 0,-4 -4,4 m 76.9,-20.6 4,4 m 0,-4 -4,4 m -62.3,-113.2 4,4 m 0,-4 -4,4 m 89.9,-62.8 4,4 m 0,-4 -4,4 m -100.9,-37.9 4,4 m 0,-4 -4,4 m -71,-60.7 4,4 m 0,-4 -4,4 m -36.9,12 4,4 m 0,-4 -4,4 m -49.2,5.1 4,4 m 0,-4 -4,4 m -41.6,5.9 4,4 m 0,-4 -4,4 m 299.1,5.2 4,4 m 0,-4 -4,4 m 129.1,146.1 4,4 m 0,-4 -4,4 m -36.8,-49.6 4,4 m 0,-4 -4,4 m -355.6,-172.2 4,4 m 0,-4 -4,4"
       id="marqueV_003"
       stroke="#008000" />
    <g
       id="nums_003">
      <path
         d="m 1282.8,412.3 -1.2,-3.5 -4.4,1.1 0.6,0.2 0.8,0.9 0.4,1 -0.1,1.3 -0.7,1 -1.3,0.8 -0.9,0.4 -1.6,0.1 -1.2,-0.4 -0.8,-0.9 -0.4,-1 0.1,-1.3 0.4,-0.5 0.8,-0.7 m 10.8,5.1 -0.9,-0.9 h -1 l -1,0.3 -0.8,0.7 -0.2,0.9 v 1.5 l -0.1,1.3 -0.7,1 -0.8,0.7 -1.5,0.5 h -1 l -0.6,-0.2 -0.9,-0.9 -0.5,-1.5 0.1,-1.2 0.4,-0.5 0.8,-0.7 1.4,-0.5 1.1,0.1 1.2,0.3 0.8,0.9 1,1.3 0.7,0.5 1.1,0.1 0.9,-0.4 0.9,-0.7 0.1,-1.2 -0.6,-1.6"
         stroke="#000000"
         stroke-width="1"
         id="path99" />
      <path
         d="m 1300.5,353.6 2.1,-3.1 -3.5,-2.9 0.2,0.6 -0.2,1.2 -0.6,1 -1.1,0.6 -1.2,0.1 -1.5,-0.6 -0.8,-0.5 -1,-1.2 -0.4,-1.2 0.2,-1.2 0.6,-0.9 1.1,-0.7 h 0.6 l 1,0.3 m -2.2,12.1 -1,-1.1 -0.5,-1.2 0.3,-1.2 0.2,-0.3 1,-0.7 h 1.3 l 1.4,0.5 0.4,0.3 1.1,1.1 0.4,1.2 -0.2,1.2 -0.3,0.3 -1,0.7 h -1.3 l -1.8,-0.8 -2.1,-1.4 -1.8,-1.7 -0.9,-1.5 0.3,-1.2 0.4,-0.6 1,-0.6 1.1,0.2"
         stroke="#000000"
         stroke-width="1"
         id="path100" />
      <path
         d="m 1297.4,437.9 4.1,0.8 -3.1,3.5 1.1,0.2 0.7,0.7 0.2,0.5 0.1,1.6 -0.2,0.9 -0.7,1.4 -0.9,0.9 -1.2,0.2 -1.1,-0.2 -1,-0.7 -0.3,-0.6 -0.2,-1.1 m 12.5,-6 -3.7,-0.8 -1.3,4.3 0.5,-0.4 1.2,-0.2 1.1,0.2 1,0.7 0.5,1.1 v 1.6 l -0.2,1 -0.6,1.4 -1,0.8 -1.2,0.2 -1.1,-0.2 -1,-0.7 -0.2,-0.6 -0.2,-1"
         stroke="#000000"
         stroke-width="1"
         id="path101" />
      <path
         d="m 1331.0444,422.37533 -1,-0.3 -1.1,0.5 -0.5,0.6 -0.3,1.2 0.7,1.5 1.6,1.9 1.9,1.6 1.8,1 1.2,0.1 1.2,-0.5 0.2,-0.3 0.3,-1.2 -0.2,-1.2 -0.9,-1.3 -0.4,-0.3 -1.4,-0.7 h -1.3 l -1.1,0.5 -0.2,0.3 -0.4,1.2 0.3,1.2 0.9,1.2 m 0.1,-10.8 -0.4,1.1 0.7,1.6 1.6,1.9 1.2,1 2.1,1.3 1.7,0.4 1.1,-0.5 0.5,-0.6 0.3,-1.2 -0.7,-1.5 -1.6,-1.9 -1.2,-1 -2.1,-1.3 -1.6,-0.4 -1.2,0.5 -0.3,0.4"
         stroke="#000000"
         stroke-width="1"
         id="path102" />
      <path
         d="m 1371,328 0.6,0.8 1.2,0.3 0.8,-0.2 1,-0.7 0.4,-1.6 -0.2,-2.5 -0.5,-2.5 -0.8,-1.9 -1,-0.8 -1.2,-0.2 -0.4,0.1 -0.9,0.7 -0.6,1.1 v 1.6 l 0.1,0.5 0.7,1.3 0.9,0.9 1.2,0.2 0.4,-0.1 1,-0.7 0.5,-1.1 0.1,-1.6 m -4.9,5.8 -0.6,0.7 -0.8,1.7 -2.2,-10.3"
         stroke="#000000"
         stroke-width="1"
         id="path103" />
      <path
         d="m 1343.5,180.7 0.9,0.4 1.2,-0.4 0.5,-0.5 0.5,-1.2 -0.6,-1.6 -1.5,-2 -1.8,-1.8 -1.6,-1.1 -1.3,-0.2 -1.1,0.5 -0.3,0.2 -0.4,1.2 0.2,1.2 0.7,1.3 0.4,0.4 1.3,0.8 1.3,0.2 1.1,-0.5 0.3,-0.3 0.4,-1.1 -0.2,-1.2 -0.8,-1.4 m -2.4,12.4 2.6,-2.6 -2.9,-3.5 0.1,0.6 -0.5,1.2 -0.8,0.8 -1.1,0.4 -1.2,-0.1 -1.4,-0.8 -0.7,-0.7 -0.8,-1.4 -0.1,-1.2 0.4,-1.2 0.8,-0.7 1.1,-0.5 0.7,0.1 0.9,0.4"
         stroke="#000000"
         stroke-width="1"
         id="path104" />
      <path
         d="m 1365.9,169.4 -0.2,1 0.6,1 0.7,0.4 1.2,0.2 1.4,-0.8 1.7,-1.9 1.4,-2.1 0.7,-1.9 -0.1,-1.3 -0.6,-1 -0.4,-0.2 -1.2,-0.2 -1.1,0.4 -1.2,1.1 -0.2,0.4 -0.5,1.5 0.1,1.2 0.6,1.1 0.3,0.2 1.3,0.2 1.1,-0.5 1.2,-1 m -11.9,-1.1 -0.2,1 0.6,1 0.7,0.5 1.2,0.1 1.4,-0.8 1.7,-1.9 1.4,-2.1 0.7,-1.9 -0.1,-1.2 -0.6,-1.1 -0.4,-0.2 -1.2,-0.2 -1.1,0.5 -1.2,1 -0.2,0.4 -0.5,1.5 0.1,1.3 0.6,1 0.3,0.2 1.3,0.2 1.1,-0.5 1.2,-1"
         stroke="#000000"
         stroke-width="1"
         id="path105" />
      <path
         d="m 1383.9,390.4 -0.6,-0.9 -1.2,-0.2 -0.7,0.2 -1,0.8 -0.3,1.7 0.3,2.5 0.7,2.4 1,1.8 1,0.8 1.2,0.1 0.3,-0.1 1,-0.8 0.4,-1.1 V 396 l -0.2,-0.5 -0.8,-1.3 -1,-0.8 -1.2,-0.1 -0.3,0.1 -1,0.8 -0.4,1.1 v 1.6 m 4.6,-8.6 4,-1.2 -1.1,4.5 1.1,-0.3 0.9,0.3 0.5,0.3 0.7,1.4 0.3,0.9 0.1,1.6 -0.5,1.1 -0.9,0.8 -1.1,0.4 -1.2,-0.2 -0.5,-0.4 -0.7,-0.8"
         stroke="#000000"
         stroke-width="1"
         id="path106" />
      <path
         d="m 1303.3,246.3 0.8,0.5 1.8,0.5 -9.7,4.1 m 12.1,0.4 -7.9,-0.7 2.2,5.2 m 5.7,-4.5 -9.6,4.1"
         stroke="#000000"
         stroke-width="1"
         id="path107" />
      <path
         d="m 1358.3,299.9 -0.8,-0.7 h -1.2 l -0.7,0.3 -0.8,1 v 1.7 l 0.8,2.4 1.1,2.2 1.2,1.6 1.1,0.6 1.3,-0.1 0.3,-0.1 0.8,-1 0.2,-1.2 -0.3,-1.5 -0.2,-0.5 -1.1,-1.1 -1.1,-0.6 -1.2,0.1 -0.3,0.1 -0.8,1 -0.2,1.2 0.3,1.5 m 3.2,-6.8 0.5,-0.8 0.3,-1.8 4.7,9.4"
         stroke="#000000"
         stroke-width="1"
         id="path108" />
      <path
         d="m 1392.5,255.5 -1,-0.1 -0.9,0.9 -0.3,0.7 v 1.2 l 1.2,1.3 2.1,1.2 2.4,1 2,0.4 1.2,-0.4 0.8,-0.8 0.2,-0.4 -0.1,-1.2 -0.6,-1.1 -1.3,-0.9 -0.4,-0.2 -1.6,-0.2 -1.2,0.4 -0.8,0.8 -0.2,0.4 0.1,1.2 0.6,1.1 1.3,0.9 m -2.9,-11.9 5.1,6 2.1,-5.2 m -7.2,-0.8 9.7,3.9"
         stroke="#000000"
         stroke-width="1"
         id="path109" />
      <path
         d="m 1308.2,158.91479 -1.1,0.1 -0.8,1 -0.1,0.7 0.2,1.2 1.2,1.1 2.4,1 2.4,0.6 2,0.1 1.2,-0.5 0.7,-0.9 0.1,-0.4 -0.2,-1.2 -0.8,-1 -1.3,-0.7 -0.5,-0.1 h -1.6 l -1.1,0.4 -0.8,1 -0.1,0.4 0.2,1.2 0.8,1 1.4,0.7 m -4.5,-11.4 5.9,5.3 1.4,-5.5 m -7.3,0.2 10.2,2.5"
         stroke="#000000"
         stroke-width="1"
         id="path110" />
      <path
         d="m 1285.5,100.3 -0.2,1 0.7,1 0.7,0.4 1.2,0.1 1.4,-0.9 1.6,-1.9 1.2,-2.2 0.7,-1.9 -0.1,-1.3 -0.7,-1 -0.3,-0.1 -1.3,-0.2 -1.1,0.5 -1.1,1.1 -0.3,0.4 -0.4,1.5 0.1,1.3 0.8,1 0.3,0.1 1.2,0.2 1.2,-0.5 1,-1.1 m -8,0.5 -0.3,0.4 -0.8,0.7 -0.6,0.2 -0.9,0.1 -1.3,-0.8 -0.4,-0.8 v -0.6 l 0.2,-1.1 0.5,-0.8 0.8,-0.7 1.4,-0.9 5.8,-2.4 -4.6,-2.7"
         stroke="#000000"
         stroke-width="1"
         id="path111" />
      <path
         d="m 1247.3,160 0.4,-0.4 1,-0.4 h 0.6 l 0.9,0.2 1,1.1 0.1,0.9 -0.1,0.6 -0.5,0.9 -0.7,0.7 -1,0.4 -1.6,0.5 -6.2,0.6 3.5,3.9 m 10.5,-2 0.5,-0.9 -0.4,-1.2 -0.5,-0.5 -1.1,-0.5 -1.7,0.5 -2,1.4 -1.9,1.7 -1.2,1.6 -0.2,1.2 0.4,1.2 0.2,0.3 1.2,0.5 1.2,-0.2 1.4,-0.7 0.3,-0.3 0.9,-1.3 0.2,-1.3 -0.4,-1.1 -0.3,-0.3 -1.1,-0.5 -1.2,0.1 -1.4,0.8"
         stroke="#000000"
         stroke-width="1"
         id="path112" />
      <path
         d="m 1218.6,91.5 0.7,0.8 h 1.2 l 0.7,-0.3 0.9,-0.9 0.1,-1.6 -0.7,-2.5 -1,-2.3 -1.1,-1.7 -1.1,-0.6 h -1.2 l -0.4,0.1 -0.8,0.9 -0.3,1.3 0.2,1.5 0.2,0.4 1,1.3 1.1,0.6 h 1.2 l 0.3,-0.1 0.9,-0.9 0.3,-1.3 -0.3,-1.5 m -8.6,7.6 -0.3,-1.6 0.3,-1.2 0.8,-0.9 0.4,-0.1 h 1.2 l 1.1,0.6 0.9,1.2 0.2,0.5 0.3,1.5 -0.3,1.2 -0.8,0.9 -0.4,0.2 h -1.2 l -1.1,-0.6 -1.1,-1.7 -1,-2.3 -0.7,-2.5 0.1,-1.6 0.9,-1 0.6,-0.3 1.3,0.1 0.7,0.7"
         stroke="#000000"
         stroke-width="1"
         id="path113" />
      <path
         d="m 1145.7396,156.23329 -0.8,-0.7 h -1.2 l -0.7,0.2 -0.8,0.9 -0.1,1.7 0.6,2.5 1,2.3 1.1,1.7 1.1,0.6 h 1.3 l 0.3,-0.1 0.8,-0.9 0.3,-1.3 -0.2,-1.5 -0.2,-0.4 -0.9,-1.3 -1.1,-0.6 h -1.3 l -0.3,0.1 -0.8,0.9 -0.3,1.2 0.2,1.6 m 7.5,-10.8 0.7,11.1 m -5.5,-9.1 4.8,-2"
         stroke="#000000"
         stroke-width="1"
         id="path114" />
      <path
         d="m 1099.2383,181.94814 3.9,10.4 m -7.9,-7 4,-3.4 m 1.5,-1.2 3.1,-2.7 0.9,4.5 0.8,-0.7 0.9,-0.1 0.6,0.1 1.3,0.9 0.6,0.8 0.7,1.4 0.1,1.3 -0.6,1.1 -0.8,0.7 -1.2,0.3 -0.6,-0.1 -1,-0.5"
         stroke="#000000"
         stroke-width="1"
         id="path115" />
      <path
         d="m 1099.5877,174.21114 -11,-2.1 m 10.2,-3.1 0.8,5.2 m -2.2,2.2 0.4,-0.1 1.1,0.2 0.5,0.3 0.6,0.7 0.3,1.5 -0.4,0.8 -0.4,0.4 -1,0.6 -1,0.1 -1,-0.2 -1.6,-0.5 -5.5,-3 0.8,5.2"
         stroke="#000000"
         stroke-width="1"
         id="path116" />
      <path
         d="m 1100.5037,144.84072 -9.8,-5.3 m 10.6,0.1 -0.8,5.2 m -2.5,0.7 0.4,0.8 1.3,1.4 -10.4,-1.7"
         stroke="#000000"
         stroke-width="1"
         id="path117" />
      <path
         d="m 1443.2,307.8 0.6,0.8 1.3,0.2 0.7,-0.2 0.9,-0.8 0.3,-1.7 -0.4,-2.5 -0.8,-2.4 -0.9,-1.8 -1,-0.7 -1.2,-0.2 -0.4,0.1 -0.9,0.9 -0.4,1.1 v 1.6 l 0.2,0.5 0.8,1.3 1,0.7 1.2,0.2 0.4,-0.2 0.9,-0.8 0.4,-1.1 -0.1,-1.6 m -5,6.3 0.1,0.5 v 1 l -0.2,0.6 -0.6,0.7 -1.4,0.5 -0.9,-0.3 -0.5,-0.3 -0.7,-0.9 -0.3,-0.9 0.1,-1.1 0.3,-1.7 2.1,-5.9 -5,1.6"
         stroke="#000000"
         stroke-width="1"
         id="path118" />
      <path
         d="m 1393.4938,137.77036 -11,-2.2 m 10.2,-3 0.8,5.2 m 0.4,3.4 -0.6,-1 -1.6,-0.6 h -2.5 l -1.5,0.2 -2.4,0.8 -1.4,0.9 -0.3,1.2 0.1,0.8 0.6,1 1.6,0.5 h 2.5 l 1.5,-0.2 2.4,-0.7 1.4,-1 0.4,-1.2 -0.1,-0.5"
         stroke="#000000"
         stroke-width="1"
         id="path119" />
      <path
         d="m 1394.6,130.7 7.1,-8.6 m -2.2,10.4 -4.9,-1.8 m -0.2,-2.6 -0.9,0.2 -1.5,1 3.5,-9.8"
         stroke="#000000"
         stroke-width="1"
         id="path120" />
      <path
         d="m 1424.7987,170.58401 h -1.1 l -0.8,0.9 -0.3,0.7 0.1,1.2 1.2,1.3 2.2,1.1 2.3,0.9 2.1,0.3 1.1,-0.4 0.9,-0.9 0.1,-0.3 -0.1,-1.2 -0.7,-1.1 -1.3,-0.8 -0.4,-0.2 -1.6,-0.2 -1.2,0.4 -0.8,0.9 -0.1,0.4 0.1,1.2 0.7,1 1.2,0.9 m -3,-12.3 -1.3,3.6 4.1,1.8 -0.3,-0.5 -0.1,-1.2 0.4,-1.1 0.8,-0.9 1.2,-0.4 1.5,0.2 1,0.3 1.3,0.9 0.7,1 0.1,1.3 -0.4,1 -0.9,0.9 -0.6,0.2 h -1"
         stroke="#000000"
         stroke-width="1"
         id="path121" />
      <path
         d="m 1457.5025,137.53581 -0.6,-0.8 -1.2,-0.2 -0.7,0.2 -1,0.8 -0.3,1.6 0.3,2.5 0.7,2.4 0.9,1.8 1,0.8 1.2,0.2 0.3,-0.1 1,-0.8 0.4,-1.2 v -1.5 l -0.1,-0.5 -0.8,-1.3 -1,-0.8 -1.2,-0.2 -0.4,0.1 -0.9,0.8 -0.5,1.2 0.1,1.5 m 8.7,-8.1 -0.6,-0.9 -1.3,-0.1 -0.7,0.2 -0.9,0.7 -0.4,1.7 0.4,2.5 0.6,2.4 0.9,1.8 1,0.8 1.2,0.2 0.4,-0.1 0.9,-0.8 0.5,-1.2 -0.1,-1.5 -0.1,-0.5 -0.7,-1.3 -1,-0.8 -1.3,-0.2 -0.3,0.1 -1,0.8 -0.4,1.2 v 1.5"
         stroke="#000000"
         stroke-width="1"
         id="path122" />
      <path
         d="m 1426.7,99.9 -11.1,-0.6 m 9.7,-4.4 1.4,5 m -1.9,2.5 0.5,-0.2 1.1,0.1 0.6,0.2 0.7,0.6 0.4,1.4 -0.3,0.9 -0.4,0.5 -0.8,0.6 -1,0.3 -1,-0.1 -1.7,-0.3 -5.8,-2.2 1.4,5.1"
         stroke="#000000"
         stroke-width="1"
         id="path123" />
      <path
         d="m 1427.542,80.329641 -5.7,-9.7 m 9,5.6 -3.3,4.1 m -4.1,4.7 -5.6,-9.6 m 9,5.6 -3.4,4"
         stroke="#000000"
         stroke-width="1"
         id="path124" />
      <path
         d="m 1436.6568,84.153114 8.1,-7.6 m -3.5,10 -4.6,-2.4 m -4.4,-4 -0.1,1.1 0.7,1 0.7,0.3 1.2,0.1 1.4,-1 1.5,-2.1 1.1,-2.2 0.6,-1.9 -0.2,-1.3 -0.8,-0.9 -0.3,-0.2 -1.2,-0.1 -1.1,0.6 -1.1,1.1 -0.2,0.5 -0.4,1.5 0.3,1.2 0.7,1 0.4,0.2 h 1.2 l 1.1,-0.5 1,-1.2"
         stroke="#000000"
         stroke-width="1"
         id="path125" />
      <path
         d="m 1492.6617,113.28766 8,-7.7 m -3.3,10 -4.7,-2.3 m -4.5,-3.9 -0.1,1 0.8,1 0.7,0.3 1.2,0.1 1.4,-1 1.4,-2.1 1.1,-2.2 0.6,-2 -0.2,-1.2 -0.8,-1 -0.3,-0.1 -1.3,-0.1 -1.1,0.6 -1,1.1 -0.2,0.5 -0.4,1.5 0.3,1.2 0.7,1 0.4,0.1 1.2,0.1 1.1,-0.6 1,-1.1"
         stroke="#000000"
         stroke-width="1"
         id="path126" />
      <path
         d="m 1491.7,119.4 2.3,10.9 m -6.8,-8.1 4.5,-2.8 m 2.9,-1.8 -0.7,1 0.2,1.7 1,2.3 0.8,1.3 1.6,1.9 1.4,0.9 1.2,-0.1 0.7,-0.4 0.7,-1.1 -0.2,-1.6 -1,-2.4 -0.8,-1.2 -1.6,-2 -1.4,-0.8 -1.2,0.1 -0.5,0.3"
         stroke="#000000"
         stroke-width="1"
         id="path127" />
      <path
         d="m 1485.7,390.5 0.9,0.8 h 1 l 1,-0.4 0.8,-0.7 0.1,-0.9 v -1.5 -1.3 l 0.7,-1 0.8,-0.7 1.4,-0.6 h 1 l 0.6,0.2 0.9,0.8 0.6,1.4 -0.1,1.3 -0.3,0.5 -0.8,0.7 -1.4,0.5 -1.1,0.1 -1.2,-0.4 -0.9,-0.8 -1,-1.2 -0.7,-0.6 -1.1,0.1 -0.9,0.3 -0.8,0.7 -0.1,1.3 0.7,1.5 m -2.6,-6.5 0.9,0.9 1.6,0.1 2.5,-0.5 1.4,-0.6 2.2,-1.2 1.1,-1.3 0.1,-1.2 -0.3,-0.7 -0.9,-0.9 -1.7,-0.1 -2.4,0.5 -1.4,0.6 -2.2,1.2 -1.1,1.3 -0.1,1.2 0.2,0.5"
         stroke="#000000"
         stroke-width="1"
         id="path128" />
      <path
         d="m 1441.4,480.8 -3.3,1.7 1.7,4.2 0.1,-0.6 0.8,-1 1,-0.5 1.2,-0.1 1.1,0.5 1.1,1.2 0.4,0.9 0.4,1.5 -0.2,1.2 -0.8,1 -1,0.5 -1.2,0.1 -0.6,-0.3 -0.8,-0.7 m 2.4,-10.9 3.7,-1.9 -0.2,4.6 1,-0.5 0.9,0.1 0.6,0.3 1,1.1 0.5,0.9 0.4,1.5 -0.2,1.2 -0.8,1 -1,0.5 -1.2,0.1 -0.6,-0.3 -0.8,-0.7"
         stroke="#000000"
         stroke-width="1"
         id="path129" />
      <path
         d="m 1407,423.1 0.9,0.4 1.2,-0.4 0.5,-0.5 0.4,-1.2 -0.5,-1.6 -1.5,-2 -1.8,-1.8 -1.7,-1.1 -1.2,-0.2 -1.2,0.5 -0.2,0.3 -0.5,1.1 0.2,1.3 0.8,1.3 0.4,0.3 1.3,0.8 1.3,0.2 1.1,-0.5 0.3,-0.3 0.4,-1.1 -0.2,-1.2 -0.8,-1.4 m 0.2,9.8 -2.8,2.9 -1.3,-4.4 -0.8,0.8 -0.9,0.2 -0.6,-0.1 -1.3,-0.8 -0.8,-0.7 -0.8,-1.3 -0.2,-1.2 0.5,-1.2 0.8,-0.8 1.1,-0.4 0.6,0.1 1,0.4"
         stroke="#000000"
         stroke-width="1"
         id="path130" />
      <path
         d="m 1391.6,486.8 4.1,0.4 -2.6,3.7 1.1,0.2 0.7,0.5 0.3,0.6 0.3,1.5 -0.1,1 -0.6,1.5 -0.8,0.9 -1.2,0.4 -1.1,-0.2 -1.1,-0.6 -0.3,-0.5 -0.3,-1 m 12.3,-7.3 -4.8,10 m -0.4,-10.6 5.2,0.6"
         stroke="#000000"
         stroke-width="1"
         id="path131" />
      <path
         d="m 1382.2,468.6 1,-0.2 0.7,-1 0.1,-0.8 -0.3,-1.1 -1.3,-1 -2.4,-0.8 -2.5,-0.4 h -2 l -1.2,0.6 -0.6,1 -0.1,0.4 0.3,1.2 0.9,0.9 1.4,0.6 0.5,0.1 1.5,-0.1 1.1,-0.6 0.7,-1 0.1,-0.4 -0.3,-1.2 -0.9,-0.9 -1.4,-0.6 m 5.6,9.3 -0.4,-1.2 -1.3,-0.9 -2.4,-0.8 -1.5,-0.3 h -2.5 l -1.6,0.5 -0.7,1 -0.1,0.8 0.3,1.2 1.3,0.9 2.4,0.8 1.5,0.3 h 2.6 l 1.6,-0.5 0.6,-1 0.1,-0.6"
         stroke="#000000"
         stroke-width="1"
         id="path132" />
      <path
         d="m 1503.2,472.9 -3.7,-0.8 -1.3,4.3 0.5,-0.4 1.2,-0.2 1.1,0.2 1,0.7 0.5,1.2 v 1.5 l -0.2,1 -0.7,1.4 -0.9,0.8 -1.2,0.2 -1.1,-0.2 -1,-0.7 -0.3,-0.6 -0.1,-1.1 m 11.9,-6.1 -5.1,6 5.5,1.2 m -0.4,-7.2 -2.2,10.2"
         stroke="#000000"
         stroke-width="1"
         id="path133" />
      <path
         d="m 1533.2,274 10.5,-3.7 m -7.2,7.8 -3.3,-4.1 m -3.5,-4.4 2.3,2.9 3.8,-2.5 h -0.7 l -1.1,-0.6 -0.7,-0.9 -0.3,-1.1 0.3,-1.3 0.9,-1.2 0.8,-0.6 1.4,-0.7 h 1.3 l 1.1,0.5 0.7,0.9 0.3,1.2 -0.2,0.6 -0.5,0.9"
         stroke="#000000"
         stroke-width="1"
         id="path134" />
      <path
         d="m 1458.9,246.5 0.4,-1 -0.5,-1.1 -0.6,-0.5 -1.2,-0.3 -1.5,0.6 -1.9,1.7 -1.6,1.9 -1,1.8 -0.1,1.3 0.6,1.1 0.2,0.2 1.2,0.3 1.2,-0.3 1.3,-0.9 0.3,-0.3 0.7,-1.4 v -1.3 l -0.5,-1.1 -0.3,-0.2 -1.2,-0.4 -1.2,0.3 -1.2,0.9 m 10.6,4.3 -1.2,1 -1.3,0.2 -1.1,-0.3 -0.3,-0.2 -0.6,-1.1 0.1,-1.3 0.7,-1.4 0.3,-0.4 1.2,-0.9 1.2,-0.3 1.2,0.4 0.3,0.2 0.6,1.1 -0.1,1.3 -1,1.7 -1.6,2 -1.9,1.6 -1.5,0.7 -1.2,-0.3 -0.6,-0.5 -0.5,-1.1 0.3,-1"
         stroke="#000000"
         stroke-width="1"
         id="path135" />
      <path
         d="m 1467.1,238.4 2.2,-10.9 m 3,10.1 -5.2,0.8 m -5.1,0.8 2.8,-7.5 -5.6,0.8 m 2.8,6.7 -1.4,-10.4"
         stroke="#000000"
         stroke-width="1"
         id="path136" />
      <path
         d="m 1552.1,419.8 3,-10.7 m 2.2,10.4 -5.2,0.3 m -6.3,-3.1 0.3,-1.5 0.7,-1 1.1,-0.6 h 0.3 l 1.2,0.4 0.8,0.9 0.5,1.5 v 0.5 l -0.3,1.5 -0.6,1.1 -1.1,0.5 -0.4,0.1 -1.2,-0.5 -0.8,-0.9 -0.5,-2 -0.1,-2.5 0.2,-2.5 0.6,-1.5 1.1,-0.6 0.7,-0.1 1.2,0.5 0.4,0.9"
         stroke="#000000"
         stroke-width="1"
         id="path137" />
      <path
         d="m 1550.4,441.6 6.7,9 m -9.6,-4.6 2.9,-4.4 m 1.7,-2.5 -0.2,1.2 0.7,0.9 0.8,0.5 1,0.3 0.9,-0.4 1.2,-1 1.1,-0.6 1.2,-0.1 1,0.3 1.3,0.8 0.6,0.9 0.2,0.6 -0.2,1.2 -0.8,1.2 -1.1,0.7 h -0.6 l -1,-0.2 -1.3,-0.9 -0.6,-0.8 -0.4,-1.2 0.2,-1.2 0.4,-1.6 v -0.9 l -0.6,-0.8 -0.8,-0.6 -1.1,-0.2 -1,0.6 -1,1.4"
         stroke="#000000"
         stroke-width="1"
         id="path138" />
      <path
         d="m 1546.3,340.8 7.2,8.5 m -9.8,-3.9 2.6,-4.6 m 6.1,-3.5 1.1,1.1 0.5,1.2 -0.2,1.2 -0.2,0.3 -1,0.7 -1.2,0.2 -1.5,-0.5 -0.4,-0.2 -1.1,-1.1 -0.5,-1.1 0.1,-1.3 0.2,-0.3 1,-0.7 1.3,-0.2 1.9,0.7 2.1,1.3 2,1.6 0.9,1.4 -0.1,1.2 -0.4,0.6 -1,0.8 -1,-0.2"
         stroke="#000000"
         stroke-width="1"
         id="path139" />
      <path
         d="m 1514.8,354.6 -1.2,-0.1 -0.8,0.6 -0.5,0.9 -0.2,1.1 0.4,0.8 1,1.2 0.7,1 0.2,1.2 -0.2,1.1 -0.7,1.2 -0.9,0.7 -0.5,0.3 -1.3,-0.2 -1.3,-0.7 -0.7,-1 -0.1,-0.6 0.2,-1.1 0.8,-1.3 0.8,-0.7 1.2,-0.5 1.2,0.2 1.5,0.3 0.9,-0.1 0.9,-0.6 0.5,-0.9 0.1,-1 -0.7,-1 -1.4,-0.9 m 6,3.5 -1.2,-0.1 -1.4,0.9 -1.6,2 -0.8,1.3 -0.9,2.3 -0.1,1.7 0.7,1 0.7,0.4 1.2,0.1 1.4,-0.9 1.6,-2 0.7,-1.3 1,-2.3 0.1,-1.7 -0.7,-1 -0.5,-0.3"
         stroke="#000000"
         stroke-width="1"
         id="path140" />
      <path
         d="m 1096.3506,101.91479 -10.2,4.5 m 6.6,-8.3 3.6,3.8 m 4.3,4.5 -10.2,4.5 m 6.6,-8.3 3.6,3.8"
         stroke="#000000"
         stroke-width="1"
         id="path141" />
      <path
         d="m 1101.0543,89.171617 -4.8,-10.1 m 8.5,6.4 -3.7,3.7 m -1.4,1.3 -2.9,3 -1.2,-4.5 -0.8,0.8 -0.9,0.2 -0.6,-0.1 -1.3,-0.8 -0.7,-0.7 -0.8,-1.3 -0.2,-1.2 0.4,-1.2 0.8,-0.8 1.2,-0.4 0.6,0.1 1,0.4"
         stroke="#000000"
         stroke-width="1"
         id="path142" />
      <path
         d="m 1207.2,66.5 1.1,11.1 m -5.9,-8.8 4.8,-2.3 m 4.6,-2.3 -0.4,8 5.1,-2.4 m -4.7,-5.6 4.5,9.5"
         stroke="#000000"
         stroke-width="1"
         id="path143" />
      <path
         d="m 1216.2914,56.329641 -0.1,1.1 0.8,0.9 0.7,0.3 h 1.2 l 1.3,-1 1.4,-2.2 1,-2.3 0.5,-1.9 -0.3,-1.3 -0.8,-0.9 -0.4,-0.1 h -1.2 l -1.1,0.6 -1,1.2 -0.2,0.5 -0.2,1.5 0.3,1.2 0.8,0.9 0.3,0.2 h 1.3 l 1,-0.6 1,-1.3 m -10.1,3.2 h 1.2 l 0.8,-0.8 0.4,-0.9 0.1,-1 -0.5,-0.8 -1.2,-1.1 -0.8,-0.9 -0.3,-1.2 0.1,-1.1 0.6,-1.3 0.7,-0.8 0.6,-0.3 h 1.2 l 1.4,0.6 0.8,0.9 0.1,0.6 v 1.1 l -0.6,1.4 -0.8,0.7 -1.1,0.6 h -1.2 l -1.6,-0.1 -0.9,0.1 -0.7,0.8 -0.4,0.9 -0.1,1.1 0.8,0.9 1.6,0.7"
         stroke="#000000"
         stroke-width="1"
         id="path144" />
      <path
         d="m 1161.9271,59.155569 0.7,0.8 1.2,0.1 0.7,-0.3 0.9,-0.8 0.2,-1.7 -0.6,-2.5 -0.8,-2.3 -1.1,-1.7 -1.1,-0.7 -1.2,-0.1 -0.3,0.1 -0.9,0.9 -0.4,1.2 0.2,1.5 0.2,0.5 0.9,1.3 1,0.7 h 1.2 l 0.4,-0.1 0.9,-0.9 0.3,-1.2 -0.1,-1.5 m -8,10.5 -0.2,-11.2 m 5.1,9.3 -4.9,1.9"
         stroke="#000000"
         stroke-width="1"
         id="path145" />
    </g>
    <path
       d="m 1335.2,246.7 h 6.2 l -3.4,6 h 1.7 l 1.1,0.8 0.6,0.7 0.5,2.3 v 1.5 l -0.5,2.2 -1.2,1.5 -1.6,0.8 h -1.7 l -1.7,-0.8 -0.6,-0.7 -0.5,-1.5"
       id="titre_3"
       stroke="#4b0082"
       style="stroke-width:1.90404" />
  </g>
  <g
     id="page_004">
    <path
       d="m 1957.1,195.9 -5,50.6 16,-48.3 26.5,-79.3 75.7,84.8 3.8,50.4 46.8,74.5 -84.3,10.8 -48.8,-26.3 37.3,41 73,43.7 29.1,71.3 -56.2,64.3 -42.1,-54.5 5.5,68.6 -63.7,-25.6 -8.8,-71.6 -36.1,-61.7 23.1,67.7 3.6,72 -6.5,36.2 -77.6,-62.9 32.8,-42.9 -41.1,35 -61.6,14.7 -1,-36.7 -43.1,-35.3 -46.1,-26.2 73.8,-98.3 85,20.2 -62.5,-61.1 56.7,-17.8 -59.2,5.1 -121.3,-19.6 -40.3,-15.5 -34.1,-81.5 103.8,-54.5 21,40 53.1,29.4 95.1,18.7 -91.8,-31.1 36.7,-20.3 -40.9,9.3 -43.2,-42.8 -25.4,-37.3 47,-43.5 40.9,56.6 64.3,2 77.8,45 z"
       id="coupes_004"
       stroke="#ff0000"
       stroke-width="1.27"
       sodipodi:nodetypes="cccccccccccccccccccccccccccccccccccccccccccccccccc" />
    <path
       d="m 2025.1,354.1 -99.3,34.5 m 0,0 62,-75.5 m 37.3,41 3.8,124.8 m 0,0 -67,-28.6 m 136.2,-52.5 -69.2,81.1 m 98.3,-9.8 -98.3,9.8 m -103.1,-90.3 -58.7,-56.5 m 0,0 120.7,-19 m -120.7,19 85,-85.6 m 0,0 35.7,66.6 m -62,75.5 -128.3,83.1 m 0,0 69.6,-139.6 m 0,0 -5.8,-78.9 m 0,0 90.8,-6.7 m -90.8,6.7 95.8,-57.3 m 71.8,283 -58.2,43 m -69.5,-63.2 -103.7,13 m 128.3,-83.1 -24.6,70.1 m 47.7,-2.4 -47.7,2.4 m 51.3,69.6 -51.3,-69.6 m -39.9,-205.5 18.1,-77.9 m 0,0 77.7,20.6 m -77.7,-20.6 65.4,-62.1 m -142.7,145.1 77.3,-83 m 0,0 -55.1,-51.4 m -22.2,134.4 -17.8,-101.7 m -103.5,82.1 103.5,-82.1 m 168.2,371.7 -84.1,-26.7 m -114,-65.2 112.7,-104.3 m -112.7,104.3 27.7,-124.5 m 42.2,-188 42.7,-55.7 m -126.8,22.2 62.5,-24.2 m -162.2,157 90.7,-96 m 220.9,119.3 118.2,-42.8 m 0,0 -82.5,109.4 m -19.7,-114.9 102.2,5.5 m 3.8,50.4 -86.3,59 m 86.3,-59 -37.5,85.3"
       id="plisM_004"
       stroke="#a52a2a"
       stroke-dasharray="4" />
    <path
       d="m 2025.1,354.1 -63.2,96.2 m -137.6,-326.4 120.5,-10.7 m -84.7,380.5 -62.6,-22 m 26.8,-347.8 -21.6,-57.7 m -19.3,67 19.3,-67 m -121.9,172.5 50.4,-111.5 m 9,-36.8 21.6,-80.8 m -121.3,213.6 69.7,-136"
       id="plisV_004"
       stroke="#008000"
       stroke-dasharray="4, 1, 1, 1"
       stroke-width="1.27" />
    <path
       d="m 1991.5,400.2 4,4 m 0,-4 -4,4 m -109,-287.7 4,4 m 0,-4 -4,4 m -55.7,360.2 4,4 m 0,-4 -4,4 m -15.3,-391.6 4,4 m 0,-4 -4,4 m -20.5,0.6 4,4 m 0,-4 -4,4 m -87,79.3 4,4 m 0,-4 -4,4 m 45,-137 4,4 m 0,-4 -4,4 m -75.7,101.2 4,4 m 0,-4 -4,4"
       id="marqueV_004"
       stroke="#008000" />
    <g
       id="nums_004">
      <path
         d="m 1999.2,346.1 1.1,0.5 1,-0.4 0.8,-0.7 0.5,-0.9 -0.2,-0.9 -0.6,-1.5 -0.4,-1.2 0.2,-1.2 0.5,-0.9 1.1,-1 1,-0.4 0.6,-0.1 1.2,0.5 1,1.1 0.4,1.2 -0.2,0.6 -0.4,0.9 -1.1,1.1 -1,0.3 -1.3,0.2 -1.1,-0.5 -1.4,-0.8 -0.9,-0.2 -1,0.4 -0.7,0.6 -0.5,1 0.4,1.2 1.1,1.2 m -1.3,-5 -0.9,-0.2 -1.9,0.2 7.8,-7.1"
         stroke="#000000"
         stroke-width="1"
         id="path146" />
      <path
         d="m 1953.4,408.6 -1,-0.7 -1,0.2 -0.9,0.5 -0.7,0.8 v 0.9 l 0.3,1.6 0.1,1.2 -0.4,1.1 -0.7,0.9 -1.3,0.7 -1.1,0.2 -0.6,-0.1 -1,-0.7 -0.7,-1.3 -0.2,-1.2 0.3,-0.6 0.6,-0.8 1.3,-0.8 1.1,-0.2 1.2,0.2 1,0.7 1.2,1 0.8,0.4 1.1,-0.1 0.8,-0.5 0.7,-0.9 -0.1,-1.2 -0.9,-1.5 m 0.6,6 0.4,-0.3 1.1,-0.2 0.6,0.1 0.8,0.4 0.8,1.3 -0.1,0.9 -0.2,0.6 -0.7,0.8 -0.9,0.5 -1,0.2 -1.7,0.1 -6.2,-0.7 2.7,4.5"
         stroke="#000000"
         stroke-width="1"
         id="path147" />
      <path
         d="m 2058.3,390 1.2,0.1 0.8,-0.6 0.5,-0.9 0.2,-1 -0.4,-0.9 -1,-1.2 -0.7,-1 -0.1,-1.2 0.2,-1.1 0.7,-1.2 0.9,-0.7 0.6,-0.3 1.2,0.2 1.3,0.8 0.7,1 v 0.6 l -0.2,1 -0.7,1.3 -0.9,0.7 -1.1,0.5 -1.2,-0.2 -1.6,-0.3 h -0.9 l -0.8,0.7 -0.5,0.8 -0.2,1.1 0.7,1 1.4,0.9 m -4.7,-2.8 -3.5,-2.2 4,-2.2 -1,-0.6 -0.4,-0.8 v -0.6 l 0.4,-1.5 0.5,-0.9 1.1,-1.1 1.2,-0.4 1.2,0.1 1,0.6 0.7,1 v 0.6 l -0.1,1.1"
         stroke="#000000"
         stroke-width="1"
         id="path148" />
      <path
         d="m 2099.1,436.7 11.1,-0.5 m -9.1,5.3 -2,-4.8"
         stroke="#000000"
         stroke-width="1"
         id="path149" />
      <path
         d="m 1940.4,224.5 0.4,1.1 1,0.5 1,0.1 1,-0.3 0.6,-0.7 0.6,-1.4 0.6,-1.1 1.1,-0.6 1,-0.3 1.5,0.1 1,0.5 0.4,0.4 0.4,1.2 -0.1,1.5 -0.6,1.1 -0.6,0.3 -1,0.3 -1.5,-0.2 -1,-0.4 -0.9,-0.9 -0.4,-1.2 -0.3,-1.5 -0.4,-0.8 -1,-0.5 -1,-0.1 -1,0.3 -0.6,1.1 -0.2,1.7 m 0.8,-8.7 6.6,4.4 0.5,-5.6 m -7.1,1.2 10.4,1"
         stroke="#000000"
         stroke-width="1"
         id="path150" />
      <path
         d="m 1842.4,288.7 -1.2,-0.5 -1,0.5 -0.7,0.7 -0.4,1 0.2,0.9 0.7,1.4 0.5,1.1 -0.2,1.3 -0.4,0.9 -1.1,1.1 -0.9,0.5 -0.7,0.1 -1.1,-0.5 -1.1,-1 -0.4,-1.2 v -0.6 l 0.5,-1 1,-1 1,-0.5 1.2,-0.2 1.2,0.5 1.4,0.6 0.9,0.2 1,-0.4 0.7,-0.8 0.4,-0.9 -0.5,-1.2 -1.2,-1.2 m 6.6,6.5 -2.7,-2.6 -3.4,2.9 0.6,-0.1 1.2,0.5 0.8,0.7 0.5,1.2 -0.2,1.2 -0.8,1.4 -0.7,0.7 -1.3,0.8 -1.2,0.2 -1.2,-0.5 -0.8,-0.7 -0.5,-1.2 0.1,-0.6 0.5,-1"
         stroke="#000000"
         stroke-width="1"
         id="path151" />
      <path
         d="m 1841.3,273.9 0.9,-0.8 0.1,-1.1 -0.3,-0.9 -0.7,-0.9 -0.9,-0.2 -1.5,-0.1 -1.3,-0.1 -1,-0.7 -0.6,-0.9 -0.5,-1.4 0.1,-1.1 0.2,-0.6 0.9,-0.8 1.4,-0.4 1.3,0.1 0.5,0.4 0.6,0.8 0.5,1.5 -0.1,1 -0.4,1.2 -0.9,0.8 -1.3,0.9 -0.6,0.7 v 1.1 l 0.3,1 0.6,0.8 1.3,0.1 1.6,-0.5 m -9.3,1.4 0.6,0.8 1.3,0.2 0.7,-0.3 0.9,-0.8 0.3,-1.6 -0.4,-2.5 -0.8,-2.4 -0.9,-1.8 -1,-0.7 -1.3,-0.2 -0.3,0.1 -1,0.9 -0.4,1.1 0.1,1.6 0.2,0.5 0.8,1.3 1,0.7 1.2,0.1 0.4,-0.1 0.9,-0.8 0.4,-1.2 -0.1,-1.5"
         stroke="#000000"
         stroke-width="1"
         id="path152" />
      <path
         d="m 1979.4,480.1 -0.6,-1.1 -1.1,-0.2 -1,0.1 -0.9,0.5 -0.4,0.8 -0.3,1.6 -0.4,1.1 -0.9,0.9 -0.9,0.5 -1.5,0.2 -1.1,-0.3 -0.5,-0.3 -0.6,-1 -0.2,-1.5 0.3,-1.2 0.5,-0.4 0.9,-0.5 1.5,-0.2 1.1,0.2 1.1,0.7 0.6,1 0.7,1.5 0.6,0.6 1,0.3 1,-0.1 0.9,-0.5 0.4,-1.2 -0.2,-1.7 m 0.8,6.6 -0.6,-1.1 -1.1,-0.2 -1,0.1 -0.9,0.5 -0.4,0.8 -0.3,1.6 -0.4,1.1 -0.9,0.9 -0.9,0.5 -1.5,0.2 -1.1,-0.3 -0.5,-0.3 -0.6,-1 -0.2,-1.5 0.3,-1.2 0.5,-0.4 0.9,-0.5 1.5,-0.2 1.1,0.2 1,0.7 0.7,1 0.7,1.4 0.5,0.7 1.1,0.3 1,-0.1 0.9,-0.5 0.4,-1.2 -0.2,-1.7"
         stroke="#000000"
         stroke-width="1"
         id="path153" />
      <path
         d="m 2018.3,518.6 0.6,1.1 1,0.3 1,-0.1 1,-0.4 0.4,-0.8 0.4,-1.5 0.4,-1.2 0.9,-0.8 1,-0.5 1.5,-0.1 1,0.3 0.6,0.3 0.5,1.1 0.2,1.5 -0.4,1.2 -0.5,0.4 -1,0.4 -1.5,0.2 -1,-0.3 -1.1,-0.7 -0.5,-1.1 -0.7,-1.4 -0.5,-0.8 -1.1,-0.2 h -1 l -0.9,0.5 -0.4,1.2 0.1,1.6 m 2.7,-9.8 1.6,0.2 1,0.7 0.6,1.1 v 0.3 l -0.4,1.2 -0.9,0.8 -1.5,0.5 -0.5,0.1 -1.5,-0.3 -1.1,-0.7 -0.6,-1 v -0.4 l 0.4,-1.2 1,-0.8 1.9,-0.5 2.5,-0.2 2.5,0.1 1.6,0.7 0.6,1 v 0.8 l -0.4,1.1 -0.9,0.5"
         stroke="#000000"
         stroke-width="1"
         id="path154" />
      <path
         d="m 2002.5,522.4 0.9,-0.2 1.6,-1 -3.9,9.8 m 6.9,-8.9 h -1.3 l -0.7,0.8 -0.4,0.9 v 1.1 l 0.5,0.7 1.2,1.1 0.9,0.8 0.3,1.2 v 1.1 l -0.6,1.4 -0.7,0.8 -0.5,0.3 -1.3,0.1 -1.3,-0.6 -0.9,-0.9 -0.2,-0.6 0.1,-1.1 0.5,-1.3 0.7,-0.8 1.1,-0.7 h 1.2 l 1.6,0.1 0.9,-0.2 0.7,-0.8 0.4,-0.9 v -1.1 l -0.8,-0.9 -1.6,-0.6"
         stroke="#000000"
         stroke-width="1"
         id="path155" />
      <path
         d="m 1925.8,431.1 0.8,0.9 1.1,0.1 0.9,-0.4 0.8,-0.6 0.3,-0.9 -0.1,-1.6 0.2,-1.2 0.7,-1 0.8,-0.7 1.4,-0.5 h 1.1 l 0.6,0.2 0.8,0.9 0.5,1.4 -0.1,1.3 -0.4,0.5 -0.8,0.7 -1.4,0.4 h -1.1 l -1.2,-0.4 -0.8,-0.9 -1,-1.2 -0.7,-0.6 h -1.1 l -0.9,0.3 -0.8,0.7 -0.1,1.2 0.5,1.6 m 0.6,-5.9 -0.4,0.2 -1.1,-0.1 -0.6,-0.2 -0.7,-0.5 -0.5,-1.4 0.2,-0.9 0.4,-0.5 0.8,-0.7 1,-0.3 h 1 l 1.7,0.2 5.9,2 -1.7,-5"
         stroke="#000000"
         stroke-width="1"
         id="path156" />
      <path
         d="m 1937.2,497.4 0.5,1.1 1,0.3 1,-0.1 1,-0.4 0.5,-0.8 0.4,-1.5 0.4,-1.1 1,-0.8 1,-0.5 h 1.5 l 1,0.3 0.5,0.3 0.6,1.1 v 1.5 l -0.4,1.2 -0.5,0.4 -1,0.4 -1.5,0.1 -1,-0.3 -1,-0.7 -0.6,-1.1 -0.5,-1.5 -0.6,-0.7 -1,-0.4 -1,0.1 -1,0.4 -0.4,1.2 0.1,1.7 m -0.4,-6.7 0.6,1.1 1,0.4 1,-0.1 1,-0.4 0.4,-0.8 0.5,-1.5 0.4,-1.2 1,-0.8 1,-0.4 1.5,-0.1 1,0.4 0.5,0.3 0.5,1.1 0.1,1.5 -0.4,1.2 -0.5,0.4 -1,0.4 -1.5,0.1 -1,-0.4 -1,-0.7 -0.6,-1.1 -0.6,-1.4 -0.5,-0.8 -1,-0.3 -1,0.1 -1,0.4 -0.4,1.1 v 1.7"
         stroke="#000000"
         stroke-width="1"
         id="path157" />
      <path
         d="m 1938,160.9 0.6,1 1.1,0.2 1,-0.1 0.9,-0.5 0.4,-0.8 0.3,-1.6 0.3,-1.2 0.9,-0.9 0.9,-0.5 1.5,-0.2 1,0.2 0.6,0.3 0.6,1.1 0.3,1.4 -0.4,1.2 -0.4,0.5 -0.9,0.5 -1.5,0.2 -1.1,-0.2 -1.1,-0.6 -0.6,-1.1 -0.7,-1.4 -0.6,-0.6 -1.1,-0.3 -1,0.2 -0.9,0.5 -0.3,1.2 0.2,1.7 m -1.4,-9.7 10.9,2.1 m -10.2,3.1 -0.7,-5.2"
         stroke="#000000"
         stroke-width="1"
         id="path158" />
      <path
         d="m 1826.2,242.4 -1.1,0.6 -0.3,1 0.1,1 0.5,1 0.7,0.4 1.6,0.4 1.1,0.4 0.9,0.9 0.4,1 0.2,1.5 -0.3,1 -0.4,0.5 -1,0.6 -1.5,0.2 -1.2,-0.4 -0.4,-0.5 -0.5,-1 -0.1,-1.5 0.3,-1 0.7,-1 1,-0.6 1.5,-0.7 0.7,-0.5 0.3,-1.1 -0.1,-1 -0.5,-0.9 -1.1,-0.4 -1.7,0.1 m 9.3,0.7 -0.4,-0.9 -1.2,-0.4 h -0.7 l -1.1,0.6 -0.6,1.6 -0.2,2.5 0.2,2.5 0.6,2 0.8,0.9 1.2,0.4 h 0.3 l 1.1,-0.6 0.7,-1.1 0.2,-1.5 v -0.5 l -0.5,-1.5 -0.9,-0.9 -1.1,-0.4 h -0.4 l -1.1,0.6 -0.6,1.1 -0.3,1.5"
         stroke="#000000"
         stroke-width="1"
         id="path159" />
      <path
         d="m 2088,493 -0.4,1.2 0.5,0.9 0.8,0.7 1,0.4 0.8,-0.3 1.4,-0.8 1.1,-0.5 1.3,0.1 1,0.4 1.1,1 0.5,0.9 0.1,0.6 -0.3,1.2 -1,1.1 -1.1,0.6 -0.7,-0.1 -1,-0.4 -1.1,-1 -0.5,-0.9 -0.2,-1.2 0.3,-1.2 0.6,-1.4 0.1,-0.9 -0.5,-1 -0.7,-0.6 -1,-0.4 -1.1,0.5 -1.1,1.3"
         stroke="#000000"
         stroke-width="1"
         id="path160" />
      <path
         d="m 2058.1,494.2 -1.1,-0.5 -1,0.3 -0.8,0.6 -0.5,0.9 v 0.9 l 0.6,1.5 0.2,1.2 -0.3,1.2 -0.5,0.9 -1.2,0.9 -1.1,0.3 h -0.6 l -1.1,-0.5 -0.9,-1.2 -0.3,-1.2 0.2,-0.6 0.6,-0.9 1.1,-1 1.1,-0.3 h 1.2 l 1.1,0.6 1.3,0.9 0.9,0.3 1,-0.3 0.8,-0.7 0.5,-0.9 -0.3,-1.2 -1,-1.3 m 3.1,9.8 -1.4,0.6 h -1.2 l -1.1,-0.6 -0.3,-0.3 -0.2,-1.2 0.3,-1.2 0.9,-1.2 0.4,-0.3 1.5,-0.6 h 1.2 l 1.1,0.5 0.2,0.3 0.3,1.2 -0.3,1.2 -1.4,1.6 -2,1.5 -2.2,1.2 -1.6,0.3 -1.1,-0.5 -0.4,-0.6 -0.3,-1.2 0.5,-0.9"
         stroke="#000000"
         stroke-width="1"
         id="path161" />
      <path
         d="m 1835.7,149.7 -0.9,1.3 -1,0.7 -1.2,0.1 -0.4,-0.1 -0.9,-0.9 -0.4,-1.2 0.1,-1.5 0.2,-0.5 0.8,-1.3 1.1,-0.7 1.2,-0.1 0.3,0.1 0.9,0.9 0.4,1.1 -0.2,2.1 -0.8,2.3 -1.2,2.3 -1.2,1.2 -1.2,0.1 -0.7,-0.3 -0.9,-0.8 -0.1,-1.1 m 10.4,-6 -1.2,0.2 -1.2,1.1 -1.1,2.3 -0.5,1.4 -0.5,2.5 0.3,1.7 0.9,0.8 0.7,0.2 1.2,-0.1 1.2,-1.2 1.2,-2.2 0.4,-1.4 0.5,-2.5 -0.3,-1.7 -0.9,-0.8 -0.5,-0.2"
         stroke="#000000"
         stroke-width="1"
         id="path162" />
      <path
         d="m 1811.8,142.5 -0.4,-1.5 0.2,-1.2 0.7,-1 0.3,-0.2 1.3,-0.1 1.1,0.5 1,1.2 0.3,0.4 0.4,1.5 -0.2,1.2 -0.7,1 -0.3,0.2 -1.3,0.1 -1.1,-0.5 -1.3,-1.6 -1.2,-2.2 -0.9,-2.3 -0.1,-1.7 0.8,-1 0.6,-0.3 1.2,-0.2 0.9,0.7 m -1.7,8.6 -0.4,0.8 -0.3,1.8 -5.1,-9.2"
         stroke="#000000"
         stroke-width="1"
         id="path163" />
      <path
         d="m 1831,176.2 0.7,-1.4 0.9,-0.8 1.2,-0.3 0.4,0.1 1,0.7 0.5,1.1 0.1,1.6 -0.1,0.5 -0.6,1.4 -1,0.8 -1.2,0.3 -0.3,-0.1 -1,-0.7 -0.6,-1.1 v -2.1 l 0.5,-2.4 0.9,-2.4 1,-1.3 1.2,-0.3 0.7,0.1 1,0.8 0.2,1 m -9.5,7.3 1.2,-0.3 1,-1.3 0.9,-2.4 0.3,-1.4 0.1,-2.6 -0.5,-1.6 -1,-0.7 -0.7,-0.1 -1.2,0.2 -1,1.4 -0.9,2.3 -0.3,1.5 -0.1,2.5 0.5,1.7 1,0.7 0.5,0.1"
         stroke="#000000"
         stroke-width="1"
         id="path164" />
      <path
         d="m 1741.8,238.2 -0.6,1.4 -0.9,0.9 -1.2,0.3 -0.4,-0.1 -1,-0.6 -0.6,-1.1 -0.1,-1.6 v -0.5 l 0.6,-1.4 0.9,-0.9 1.2,-0.3 0.4,0.1 1,0.7 0.6,1.1 0.1,2 -0.4,2.5 -0.8,2.4 -1,1.3 -1.2,0.3 -0.7,-0.1 -1,-0.6 -0.3,-1.1 m 7.3,-5.4 0.1,-0.5 0.5,-0.9 0.5,-0.5 0.8,-0.3 1.5,0.2 0.6,0.6 0.3,0.6 0.2,1 -0.1,1 -0.5,0.9 -1,1.4 -4.5,4.3 5.2,0.9"
         stroke="#000000"
         stroke-width="1"
         id="path165" />
      <path
         d="m 1893.6,485.4 -0.9,-1.2 -0.4,-1.2 0.3,-1.2 0.3,-0.3 1,-0.6 h 1.3 l 1.4,0.6 0.4,0.3 1,1.3 0.3,1.2 -0.3,1.2 -0.2,0.3 -1.1,0.5 h -1.2 l -1.9,-0.9 -1.9,-1.5 -1.8,-1.8 -0.7,-1.5 0.3,-1.2 0.4,-0.6 1.1,-0.6 1,0.3 m 3.3,10.5 -2.5,3.3 -1.8,-4.2 -0.7,0.9 -0.9,0.3 h -0.6 l -1.4,-0.6 -0.8,-0.6 -1,-1.3 -0.3,-1.2 0.3,-1.2 0.6,-0.8 1.1,-0.6 h 0.7 l 1,0.3"
         stroke="#000000"
         stroke-width="1"
         id="path166" />
      <path
         d="m 1937.2,548.9 -0.4,-0.8 -1.2,-1.4 10.3,1.9 m -9.7,-7.5 -0.6,3.7 4.3,1.2 -0.4,-0.5 -0.3,-1.2 0.2,-1.1 0.7,-1 1.1,-0.6 1.6,-0.1 0.9,0.2 1.4,0.6 0.9,1 0.3,1.1 -0.2,1.2 -0.7,1 -0.6,0.3 -1,0.1"
         stroke="#000000"
         stroke-width="1"
         id="path167" />
      <path
         d="m 1914.5,521.3 -2.9,-2.4 -3.2,3.3 0.6,-0.2 1.2,0.3 0.9,0.7 0.6,1.1 -0.1,1.3 -0.6,1.4 -0.7,0.8 -1.2,0.9 -1.2,0.3 -1.2,-0.3 -0.9,-0.7 -0.5,-1.1 V 526 l 0.3,-1 m 12,3.3 -1.3,0.9 -1.2,0.3 -1.2,-0.3 -0.3,-0.3 -0.5,-1 v -1.3 l 0.7,-1.4 0.3,-0.4 1.2,-0.9 1.2,-0.3 1.2,0.3 0.3,0.2 0.6,1.1 -0.1,1.3 -0.9,1.8 -1.6,1.9 -1.9,1.7 -1.5,0.7 -1.2,-0.3 -0.6,-0.5 -0.5,-1.1 0.3,-1"
         stroke="#000000"
         stroke-width="1"
         id="path168" />
      <path
         d="m 1870.8877,471.47036 0.7,1.4 0.1,1.3 -0.5,1.1 -0.3,0.2 -1.2,0.4 -1.2,-0.3 -1.3,-0.9 -0.3,-0.4 -0.7,-1.4 -0.1,-1.2 0.6,-1.1 0.2,-0.3 1.2,-0.3 1.2,0.3 1.6,1.2 1.7,1.9 1.3,2.2 0.4,1.6 -0.5,1.1 -0.6,0.5 -1.2,0.4 -0.9,-0.6 m -1,-11 3.1,-2.6 0.9,4.5 0.9,-0.8 0.9,-0.1 0.6,0.2 1.2,0.9 0.7,0.7 0.7,1.4 0.1,1.3 -0.6,1.1 -0.8,0.7 -1.2,0.4 -0.6,-0.2 -1,-0.5"
         stroke="#000000"
         stroke-width="1"
         id="path169" />
      <path
         d="m 1824.4,488.1 -3.7,0.9 0.7,4.4 0.3,-0.5 0.9,-0.8 1.1,-0.2 1.2,0.2 1,0.8 0.7,1.4 0.3,0.9 -0.1,1.6 -0.5,1.1 -0.9,0.8 -1.1,0.2 -1.2,-0.2 -0.5,-0.4 -0.6,-0.9 m 6.1,-10.2 -1,0.8 -0.1,1 0.2,1 0.6,0.9 0.9,0.3 1.5,0.1 1.2,0.3 1,0.8 0.6,0.8 0.4,1.5 -0.2,1.1 -0.2,0.5 -1,0.8 -1.5,0.3 -1.2,-0.2 -0.5,-0.4 -0.6,-0.9 -0.3,-1.4 0.1,-1.1 0.5,-1.1 1,-0.8 1.3,-0.8 0.7,-0.7 0.1,-1 -0.2,-1 -0.6,-0.9 -1.2,-0.2 -1.7,0.4"
         stroke="#000000"
         stroke-width="1"
         id="path170" />
      <path
         d="m 1811.6,484 0.1,4.1 -4.1,-2.1 0.1,1.1 -0.5,0.8 -0.5,0.4 -1.5,0.4 h -1 l -1.5,-0.3 -1,-0.7 -0.6,-1.1 v -1.2 l 0.5,-1.1 0.5,-0.4 1,-0.4 m 6.2,6.9 h 0.5 l 1,0.3 0.5,0.4 0.5,0.7 v 1.5 l -0.4,0.8 -0.5,0.4 -1,0.4 h -1 l -1,-0.3 -1.5,-0.7 -5.2,-3.6 0.2,5.2"
         stroke="#000000"
         stroke-width="1"
         id="path171" />
      <path
         d="m 1780.4,439.9 3.1,2.6 -4.2,1.7 0.8,0.7 0.3,0.9 v 0.6 l -0.7,1.4 -0.6,0.8 -1.3,0.9 -1.2,0.3 -1.2,-0.3 -0.8,-0.7 -0.6,-1.1 V 447 l 0.4,-1 m 12.1,-1.1 -1.2,-0.3 -1.5,0.7 -1.9,1.7 -0.9,1.2 -1.3,2.1 -0.4,1.7 0.6,1.1 0.5,0.4 1.2,0.4 1.5,-0.7 1.9,-1.7 1,-1.2 1.3,-2.1 0.3,-1.7 -0.5,-1.1 -0.5,-0.3"
         stroke="#000000"
         stroke-width="1"
         id="path172" />
      <path
         d="m 1825.7,336.4 1.2,-0.2 0.6,-0.9 0.2,-1 -0.1,-1 -0.6,-0.7 -1.4,-0.8 -0.9,-0.8 -0.5,-1.1 -0.2,-1.1 0.4,-1.4 0.6,-0.9 0.5,-0.4 1.2,-0.3 1.4,0.4 1,0.7 0.3,0.6 0.1,1.1 -0.4,1.4 -0.5,0.9 -1,0.8 -1.2,0.2 -1.6,0.2 -0.8,0.3 -0.6,0.9 -0.3,1 0.2,1 0.9,0.8 1.7,0.4 m -9,-2.2 3.7,0.9 1.4,-4.3 -0.5,0.4 -1.2,0.2 -1.1,-0.2 -1,-0.8 -0.5,-1.1 v -1.6 l 0.2,-0.9 0.7,-1.4 1,-0.8 1.2,-0.2 1.1,0.2 1,0.8 0.2,0.5 0.2,1.1"
         stroke="#000000"
         stroke-width="1"
         id="path173" />
      <path
         d="m 1733.1,408.5 3.6,2 -4,2.4 1,0.5 0.4,0.8 0.1,0.7 -0.4,1.5 -0.5,0.8 -1.1,1.1 -1.1,0.5 -1.2,-0.1 -1,-0.5 -0.8,-1 v -0.6 l 0.1,-1.1 m 13.3,-2.3 -6.7,4.2 4.9,2.8 m 1.8,-7 -5.2,9.1"
         stroke="#000000"
         stroke-width="1"
         id="path174" />
      <path
         d="m 1754.2,366.2 -1,-1.2 -0.3,-1.2 0.2,-1.2 0.3,-0.3 1,-0.6 h 1.3 l 1.4,0.6 0.4,0.3 1,1.2 0.3,1.2 -0.2,1.2 -0.3,0.3 -1,0.6 h -1.3 l -1.8,-0.9 -2,-1.5 -1.8,-1.8 -0.7,-1.5 0.2,-1.2 0.5,-0.6 1.1,-0.6 1,0.3 m 1.4,8.9 0.4,0.3 0.6,0.9 0.1,0.6 v 0.9 l -0.9,1.2 -0.9,0.3 h -0.6 l -1,-0.3 -0.8,-0.6 -0.6,-0.9 -0.7,-1.5 -1.8,-6 -3.1,4.2"
         stroke="#000000"
         stroke-width="1"
         id="path175" />
      <path
         d="m 1904.2,102.8 -0.9,0.1 -1.8,0.7 5.3,-9.1 m -7.1,8.5 -3.6,-2.1 4,-2.3 -1,-0.6 -0.4,-0.8 -0.1,-0.6 0.5,-1.5 0.5,-0.9 1,-1.1 1.2,-0.5 1.2,0.2 1,0.5 0.7,1 0.1,0.6 -0.2,1.1"
         stroke="#000000"
         stroke-width="1"
         id="path176" />
      <path
         d="m 1840.4,78.6 v 0.5 l -0.4,1 -0.4,0.5 -0.8,0.5 -1.5,-0.1 -0.7,-0.5 -0.4,-0.5 -0.3,-1 v -1 l 0.4,-1 0.8,-1.5 3.9,-4.9 -5.3,-0.1 m -6.5,10.3 4,-10.4 m 1.2,10.5 -5.2,-0.1"
         stroke="#000000"
         stroke-width="1"
         id="path177" />
      <path
         d="m 1800.6,118.7 v 1.6 l -0.6,1.1 -0.9,0.8 h -0.4 l -1.2,-0.2 -1,-0.8 -0.7,-1.4 -0.1,-0.5 0.1,-1.5 0.5,-1.2 1,-0.7 0.3,-0.1 1.2,0.3 1,0.8 0.8,1.8 0.5,2.5 0.2,2.5 -0.4,1.6 -1,0.8 -0.7,0.1 -1.2,-0.2 -0.6,-0.9 m 4,-7.7 0.6,-0.7 0.8,-1.7 2.3,10.3"
         stroke="#000000"
         stroke-width="1"
         id="path178" />
      <path
         d="m 1768,103.5 -1.4,0.8 -1.2,0.2 -1.2,-0.5 -0.2,-0.2 -0.5,-1.2 0.2,-1.2 0.8,-1.4 0.3,-0.3 1.4,-0.8 1.2,-0.2 1.2,0.4 0.2,0.3 0.5,1.1 -0.2,1.3 -1.1,1.7 -1.8,1.7 -2,1.6 -1.6,0.5 -1.2,-0.4 -0.5,-0.6 -0.5,-1.1 0.5,-1 m 13.2,0.3 -7.6,2.4 4,3.9 m 3.6,-6.3 -7.4,7.5"
         stroke="#000000"
         stroke-width="1"
         id="path179" />
      <path
         d="m 1754,151.6 1.1,-1.1 1.1,-0.5 1.3,0.1 0.3,0.2 0.7,0.9 0.2,1.3 -0.4,1.5 -0.2,0.4 -1.1,1.1 -1.1,0.5 -1.3,-0.1 -0.3,-0.1 -0.7,-1 -0.2,-1.3 0.6,-1.9 1.2,-2.2 1.6,-2 1.4,-0.9 1.2,0.1 0.7,0.3 0.7,1 -0.2,1.1 m -12.8,3.3 6.7,-4.3 -4.9,-2.8 m -1.8,7.1 5.1,-9.2"
         stroke="#000000"
         stroke-width="1"
         id="path180" />
      <path
         d="m 1660.4,216.2 3.9,1.4 -3.6,3 1.1,0.4 0.5,0.7 0.2,0.6 -0.2,1.5 -0.4,1 -0.9,1.2 -1,0.7 -1.2,0.1 -1.1,-0.4 -0.9,-0.9 -0.1,-0.6 v -1.1 m 9.7,-5.3 3.9,1.5 -3.6,2.9 1.1,0.4 0.5,0.7 0.2,0.6 -0.2,1.6 -0.4,0.9 -0.9,1.2 -1,0.7 -1.3,0.1 -1,-0.4 -0.9,-0.9 -0.2,-0.6 0.1,-1.1"
         stroke="#000000"
         stroke-width="1"
         id="path181" />
      <path
         d="m 1776.6,49.3 -0.4,0.2 -1.1,0.3 h -0.6 l -0.8,-0.3 -0.9,-1.2 v -0.9 l 0.1,-0.6 0.6,-0.9 0.8,-0.6 1.1,-0.3 1.6,-0.2 6.3,0.1 -3.1,-4.3 m -10.3,3.7 1.1,0.6 1,-0.3 0.8,-0.6 0.6,-0.9 v -0.9 l -0.5,-1.5 -0.3,-1.2 0.4,-1.2 0.6,-0.9 1.2,-0.8 1.1,-0.3 h 0.6 l 1,0.6 0.9,1.2 0.3,1.2 -0.2,0.6 -0.6,0.9 -1.2,0.9 -1.1,0.3 h -1.2 l -1.1,-0.7 -1.3,-0.9 -0.8,-0.3 -1,0.3 -0.8,0.6 -0.6,0.9 0.2,1.2 1,1.3"
         stroke="#000000"
         stroke-width="1"
         id="path182" />
      <path
         d="m 1735.3,65 -1.5,0.6 -1.2,-0.1 -1,-0.7 -0.3,-0.3 -0.2,-1.2 0.4,-1.2 1.1,-1.1 0.4,-0.3 1.4,-0.5 h 1.3 l 1,0.7 0.2,0.3 0.2,1.2 -0.4,1.2 -1.4,1.4 -2.1,1.4 -2.2,1.1 -1.7,0.2 -1.1,-0.6 -0.4,-0.6 -0.2,-1.2 0.6,-0.9 m 13.2,3.3 -2.1,-3.1 -4,2.2 0.7,0.1 1,0.6 0.6,0.9 0.3,1.3 -0.4,1.1 -1.1,1.2 -0.8,0.6 -1.5,0.5 -1.2,-0.1 -1,-0.6 -0.7,-0.9 -0.2,-1.3 0.2,-0.5 0.6,-0.9"
         stroke="#000000"
         stroke-width="1"
         id="path183" />
      <path
         d="m 1747.8,39.3 0.9,0.4 1.2,-0.4 0.5,-0.5 0.5,-1.1 -0.5,-1.6 -1.4,-2.1 -1.7,-1.8 -1.6,-1.2 -1.2,-0.3 -1.2,0.4 -0.3,0.3 -0.5,1.1 0.2,1.3 0.7,1.3 0.3,0.4 1.3,0.8 1.3,0.2 1.1,-0.4 0.3,-0.2 0.5,-1.1 -0.1,-1.3 -0.8,-1.3 m -1.1,10.5 0.5,-1.1 -0.4,-1 -0.6,-0.8 -1,-0.4 -0.9,0.1 -1.4,0.7 -1.2,0.4 -1.2,-0.3 -1,-0.5 -1,-1.1 -0.4,-0.9 -0.1,-0.7 0.5,-1.1 1.1,-1 1.2,-0.4 0.6,0.1 1,0.5 1,1.1 0.4,1 0.1,1.2 -0.5,1.1 -0.7,1.4 -0.3,0.9 0.4,1 0.7,0.7 1,0.5 1.1,-0.4 1.3,-1.1"
         stroke="#000000"
         stroke-width="1"
         id="path184" />
      <path
         d="m 1712.1,113 1.5,-0.3 1.3,0.2 0.9,0.7 0.2,0.4 0.1,1.2 -0.6,1.1 -1.1,1 -0.5,0.3 -1.5,0.3 -1.2,-0.2 -1,-0.7 -0.1,-0.4 -0.1,-1.2 0.5,-1.1 1.6,-1.3 2.2,-1.1 2.4,-0.9 h 1.7 l 1,0.8 0.3,0.6 0.1,1.3 -0.7,0.8 m -12.7,-4.9 1.7,3.4 4.2,-1.8 -0.6,-0.1 -1,-0.8 -0.5,-1 -0.1,-1.2 0.5,-1.1 1.2,-1 0.9,-0.5 1.5,-0.4 1.2,0.2 1,0.8 0.5,1 0.1,1.2 -0.3,0.6 -0.7,0.8"
         stroke="#000000"
         stroke-width="1"
         id="path185" />
      <path
         d="m 1632.5,177.6 -1.5,0.2 -1.2,-0.3 -0.9,-0.8 -0.2,-0.4 0.1,-1.2 0.6,-1.1 1.2,-0.9 0.5,-0.2 1.5,-0.2 1.2,0.3 0.9,0.8 0.2,0.4 -0.1,1.2 -0.6,1.1 -1.7,1.1 -2.3,0.9 -2.5,0.7 -1.6,-0.1 -0.9,-0.9 -0.3,-0.7 v -1.2 l 0.8,-0.7 m 10.8,6.5 0.8,-0.8 0.1,-1.2 -0.3,-0.7 -0.9,-0.8 -1.7,-0.2 -2.5,0.7 -2.3,0.9 -1.7,1.1 -0.6,1.1 v 1.3 l 0.1,0.3 0.9,0.8 1.2,0.4 1.6,-0.3 0.4,-0.2 1.3,-0.9 0.6,-1.1 v -1.2 l -0.1,-0.4 -0.9,-0.8 -1.2,-0.3 -1.6,0.2"
         stroke="#000000"
         stroke-width="1"
         id="path186" />
      <path
         d="m 1665.6,126.1 -1.5,-11 m 6.2,8.6 -4.7,2.4 m -5,2.7 3.3,-1.8 -1.7,-4.1 -0.1,0.6 -0.8,1 -1,0.5 -1.2,0.1 -1.1,-0.6 -1.1,-1.1 -0.4,-0.9 -0.4,-1.5 0.2,-1.3 0.8,-0.9 1,-0.5 1.2,-0.1 0.6,0.2 0.8,0.8"
         stroke="#000000"
         stroke-width="1"
         id="path187" />
      <path
         d="m 1974.6,222.3 -0.1,-1.2 -0.9,-0.7 -0.9,-0.3 h -1.1 l -0.7,0.6 -0.9,1.2 -0.9,0.9 -1.2,0.4 -1,0.1 -1.4,-0.5 -0.9,-0.7 -0.3,-0.5 -0.2,-1.2 0.5,-1.4 0.8,-0.9 0.6,-0.2 1.1,-0.1 1.4,0.5 0.9,0.7 0.7,1 0.1,1.2 v 1.6 l 0.2,0.9 0.9,0.6 0.9,0.4 1.1,-0.1 0.8,-0.9 0.5,-1.6 m -2.6,8.3 -5.5,-5.8 -1.7,5.3 m 7.2,0.5 -10,-3.3"
         stroke="#000000"
         stroke-width="1"
         id="path188" />
      <path
         d="m 1995.7,158.8 -0.1,-1.3 -0.8,-0.6 -1,-0.3 h -1 l -0.7,0.6 -1,1.2 -0.8,0.9 -1.2,0.4 -1.1,0.1 -1.4,-0.5 -0.8,-0.7 -0.4,-0.5 -0.1,-1.2 0.5,-1.4 0.8,-1 0.6,-0.2 h 1.1 l 1.4,0.5 0.8,0.7 0.7,1 0.2,1.2 v 1.6 l 0.2,0.9 0.8,0.6 1,0.3 h 1 l 0.9,-0.9 0.5,-1.6 m -3.1,9.3 -8.8,-6.9 m 10.5,1.9 -1.7,5"
         stroke="#000000"
         stroke-width="1"
         id="path189" />
      <path
         d="m 2021.7,170.1 7.7,-1.9 -3.7,-4.2 m -4,6.1 7.8,-7"
         stroke="#000000"
         stroke-width="1"
         id="path190" />
      <path
         d="m 2061,231.1 -0.6,-0.7 -1.6,-1 10.5,-0.8"
         stroke="#000000"
         stroke-width="1"
         id="path191" />
      <path
         d="m 2014.9,312.1 -1.3,-0.1 -0.8,0.7 -0.5,0.9 -0.1,1 0.4,0.8 1.1,1.2 0.8,0.9 0.1,1.3 -0.1,1 -0.7,1.4 -0.8,0.7 -0.6,0.2 -1.2,-0.1 -1.3,-0.7 -0.8,-1 -0.1,-0.6 0.2,-1 0.7,-1.4 0.8,-0.7 1.1,-0.5 1.2,0.1 1.6,0.3 0.9,-0.1 0.8,-0.7 0.5,-0.9 0.1,-1 -0.7,-1 -1.5,-0.8 m 3,4.3 0.9,-0.1 1.7,-0.8 -5,9.2"
         stroke="#000000"
         stroke-width="1"
         id="path192" />
      <path
         d="m 2087.1,300.6 -2.2,-3.5 4.6,-0.2 -0.6,-1 V 295 l 0.2,-0.5 1.1,-1.2 0.9,-0.5 1.4,-0.5 1.3,0.1 1,0.7 0.6,1 0.2,1.2 -0.3,0.6 -0.6,0.8"
         stroke="#000000"
         stroke-width="1"
         id="path193" />
      <path
         d="m 2072.6,320.9 -1,0.7 -0.3,1 0.2,1 0.5,0.9 0.8,0.4 1.5,0.4 1.2,0.3 0.9,0.9 0.5,0.9 0.2,1.5 -0.3,1.1 -0.3,0.5 -1,0.7 -1.5,0.1 -1.2,-0.3 -0.4,-0.5 -0.5,-0.9 -0.2,-1.5 0.2,-1 0.6,-1.1 1.1,-0.7 1.4,-0.6 0.7,-0.6 0.2,-1.1 -0.1,-1 -0.5,-0.9 -1.2,-0.4 -1.6,0.3 m 5.4,-0.7 4.1,-0.6 -1.8,4.3 1.2,-0.2 0.8,0.4 0.4,0.5 0.6,1.4 0.1,1 -0.2,1.6 -0.6,1 -1.1,0.7 -1.1,0.1 -1.2,-0.3 -0.4,-0.5 -0.5,-0.9"
         stroke="#000000"
         stroke-width="1"
         id="path194" />
    </g>
    <path
       d="m 1894.7,264.7 -5.6,10.5 h 8.4 m -2.8,-10.5 v 15.8"
       id="titre_4"
       stroke="#4b0082"
       style="stroke-width:1.90404" />
  </g>
</svg>
