<?xml version="1.0" encoding="UTF-8" standalone="no"?>
<svg
   height="297mm"
   viewBox="0 0 533 754"
   width="210mm"
   version="1.1"
   id="svg196"
   xmlns="http://www.w3.org/2000/svg"
   xmlns:svg="http://www.w3.org/2000/svg">
  <defs
     id="defs196" />
  <style
     type="text/css"
     id="style1"><![CDATA[
			path {
				fill: none;
			}
		]]></style>
  <g
     id="page_001"
     transform="translate(-0.75459883,76.060572)">
    <path
       d="M 57.9,192.7 34.5,138 l 91,-48.7 34.3,24.2 -26.2,-32.8 19.7,-57.5 49,45.7 26.2,58.7 8.3,-63.7 51.8,-46.9 87.7,15.3 58.2,29.8 15.4,38.9 -54.7,16.8 -57.7,31.7 10.1,-45.1 -49,12 -1.3,78.8 -23.3,46.4 10.9,60.6 46.8,-40.1 -7.8,22.1 11.7,-20.3 51.9,1.7 42.7,-66.3 -24.7,-43.9 45.7,-7.5 74.3,50 -21.2,48 -14.9,24.9 27.2,-10.1 -6.7,52.1 -89.2,8.9 1.9,65.9 -19.4,53.7 31.8,-27.3 61.8,54.7 -22.1,41.3 -4.6,46.5 -82.3,-7.2 -29.8,-54.9 -15.6,-54.2 5.1,56.2 -72.4,-26.5 61.7,46.3 -79.5,58.8 -72.1,9.9 -62.7,-34.5 67.6,-80.5 -90,54.2 L 31,481 9,405 l 87.4,-25.3 48.7,57.7 93.2,-47.3 6.3,-30 42.9,5.9 -41.6,-11.9 7.4,-27.5 -89.7,-49.4 58.3,-59.9 -69.2,47.1 -15.2,-78.9 4.7,80.2 47.9,90.5 -10.8,26.4 -30.5,2.8 -95,-43.8 38.8,-64.9 z"
       id="coupes_001"
       stroke="#ff0000"
       stroke-width="1.27" />
    <path
       d="m 284.9,302.2 39,-18 63.6,-18.6 -34.3,61.9 z m -39,51.9 39,-51.9 2.6,63.8 54.9,74.2 -67.3,29.7 L 257.3,575 190.1,469.9 h 85 m 23.5,-353.5 -70.1,11.2 68.8,67.6 -75.4,22.1 31.4,109.3 31.6,-24.4 m -56.4,-174.6 -68.7,-14.1 -22.3,72 84.4,31.8 z m 297,70.3 -95.3,1.4 74.1,46.6 -116.8,19.7 101.9,5.2 -136.2,56.7 67.5,-5.8 M 376.3,32.3 395.2,117.8 347.6,104.4 288.6,17 m 200.8,253.8 20.5,42 M 470.1,556.5 358,494.4 474.7,510 l -71.5,-68.7 93.6,27.4 m -22.1,41.3 -132.3,-69.8 60.8,1.1 -50,-113.8 -65.7,38.5 -12.4,103.9 -36.8,-79.8 -48.2,79.8 -45,-32.5 L 31,481 96.4,379.7 M 34.5,138 l 103,47.5 -79.6,7.2 84.3,73 -49.6,11 97.5,79.5 -136.3,-14.6 m 46.3,182.5 45,-86.7"
       id="plisM_001"
       stroke="#a52a2a"
       stroke-dasharray="4" />
    <path
       d="m 376.2,382.4 4,4 m 0,-4 -4,4 m -5.4,52.4 4,4 m 0,-4 -4,4 m -52.4,-98 4,4 m 0,-4 -4,4 m -5.4,52.3 4,4 m 0,-4 -4,4 m -6.2,48 4,4 m 0,-4 -4,4 m -27.5,-41.1 4,4 m 0,-4 -4,4 m -24.6,8 4,4 m 0,-4 -4,4 m 62.4,-119.2 4,4 m 0,-4 -4,4 m -32.9,15.3 4,4 m 0,-4 -4,4 m -20.8,-10 4,4 m 0,-4 -4,4 m 3.7,-17.7 4,4 m 0,-4 -4,4 m 35.3,-25.2 4,4 m 0,-4 -4,4 m 51.3,-22.3 4,4 m 0,-4 -4,4 m 14.6,17.6 4,4 m 0,-4 -4,4 m 16.7,24.1 4,4 m 0,-4 -4,4 m 51.4,-60.4 4,4 m 0,-4 -4,4 m -17.1,26.9 4,4 m 0,-4 -4,4 m 24.6,-47.4 4,4 m 0,-4 -4,4 m 21.3,-37.1 4,4 m 0,-4 -4,4 m -229.6,45.3 4,4 m 0,-4 -4,4 m 22,-69.7 4,4 m 0,-4 -4,4 m -34.4,-37.7 4,4 m 0,-4 -4,4 m 37.7,-15.1 4,4 m 0,-4 -4,4 m 0.7,-43.4 4,4 m 0,-4 -4,4 m -69.5,-5.4 4,4 m 0,-4 -4,4 m -45.5,24.9 4,4 m 0,-4 -4,4 m 31.1,47.9 4,4 m 0,-4 -4,4 m 298.2,-6.8 4,4 m 0,-4 -4,4 m -38.9,273 4,4 m 0,-4 -4,4 m -30.4,-4.5 4,4 m 0,-4 -4,4 M 448,453 l 4,4 m 0,-4 -4,4 m -33.6,43.2 4,4 m 0,-4 -4,4 m -98.3,-445.5 4,4 m 0,-4 -4,4 m 67.7,10.4 4,4 m 0,-4 -4,4 m -14.4,32 4,4 m 0,-4 -4,4 m 128.2,176.7 4,4 m 0,-4 -4,4 M 84,159.7 l 4,4 m 0,-4 -4,4 m 11.7,23.4 4,4 m 0,-4 -4,4 m 2.3,36.1 4,4 m 0,-4 -4,4 m 17.4,38 4,4 m 0,-4 -4,4 m 296.6,250.3 4,4 m 0,-4 -4,4 m -181.4,-59.6 4,4 m 0,-4 -4,4 m -18.4,-43.9 4,4 m 0,-4 -4,4 m -46.6,19.6 4,4 m 0,-4 -4,4 m -26.3,-141.1 4,4 m 0,-4 -4,4 m -19.4,28.4 4,4 m 0,-4 -4,4 m 0.7,127.9 4,4 m 0,-4 -4,4 m -34.5,-25.6 4,4 m 0,-4 -4,4 m -24.4,-32.9 4,4 m 0,-4 -4,4 m 202.5,88.2 4,4 m 0,-4 -4,4 m -42.5,-4.1 4,4 m 0,-4 -4,4"
       display="none"
       id="marqueM_001"
       stroke="#a52a2a" />
    <path
       d="M 342.4,440.2 353.2,327.5 M 238.3,390.1 287.5,366 m 36.4,-81.8 29.3,43.3 69.4,60.1 m 66.8,-116.8 -68.7,50.9 m -167.4,4.9 20.7,-85 -52.1,-24.3 -62.1,-103.8 42.5,-44.6 -68.7,11.8 m 3.9,104.8 -12,-96.2 m 250.8,-57 -28.7,72.1 -110.8,-40.5 61.8,52.5 m 135.9,-54.3 -39.3,55.7 m 35,81.5 21,-51.4 m -261.1,208.3 -41.3,29.2 m 36.4,199.5 4.9,-115"
       id="plisV_001"
       stroke="#008000"
       stroke-dasharray="4, 1, 1, 1"
       stroke-width="1.27" />
    <path
       d="m 345.8,381.8 4,4 m 0,-4 -4,4 m -84.9,-9.7 4,4 m 0,-4 -4,4 m 75.7,-76.3 4,4 m 0,-4 -4,4 m 49.3,47.7 4,4 m 0,-4 -4,4 m 67.1,-65.3 4,4 m 0,-4 -4,4 m -191.4,-16.1 4,4 m 0,-4 -4,4 m -15.7,-58.7 4,4 m 0,-4 -4,4 m -57.1,-68 4,4 m 0,-4 -4,4 m -9.8,-78.2 4,4 m 0,-4 -4,4 m -49.5,42.2 4,4 m 0,-4 -4,4 m 136.2,-51.3 4,4 m 0,-4 -4,4 m 24.5,-10 4,4 m 0,-4 -4,4 m 69.7,-19.7 4,4 m 0,-4 -4,4 m 53,17.5 4,4 m 0,-4 -4,4 m 25.8,79.7 4,4 m 0,-4 -4,4 M 165.9,72.8 l 4,4 m 0,-4 -4,4 m 1.5,292 4,4 m 0,-4 -4,4 m 18.3,152.6 4,4 m 0,-4 -4,4"
       id="marqueV_001"
       stroke="#008000" />
    <g
       id="nums_001">
      <path
         d="m 263.54495,374.90843 1.2,-0.3 0.9,-1.4 0.7,-2.5 0.2,-1.4 v -2.6 l -0.5,-1.6 -1.1,-0.6 -0.7,-0.1 -1.2,0.3 -1,1.4 -0.7,2.4 -0.2,1.5 0.1,2.6 0.5,1.5 1,0.7 0.6,0.1"
         stroke="#000000"
         stroke-width="1"
         id="path1" />
      <path
         d="m 252.9,372.89888 0.4,0.8 1.2,1.4 -10.3,-2.2"
         stroke="#000000"
         stroke-width="1"
         id="path2" />
      <path
         d="m 269.8,346.6 -1.3,0.2 -1.1,1.2 -1,2.3 -0.4,1.5 -0.4,2.5 0.3,1.6 1,0.8 0.7,0.2 1.2,-0.1 1.1,-1.3 1.1,-2.3 0.4,-1.4 0.3,-2.5 -0.3,-1.7 -0.9,-0.8 -0.6,-0.1"
         stroke="#000000"
         stroke-width="1"
         id="path3" />
      <path
         d="m 259.64495,341.52753 0.5,0.1 0.9,0.7 0.4,0.5 0.3,0.8 -0.4,1.5 -0.7,0.6 -0.6,0.2 -1.1,0.1 -0.9,-0.3 -0.9,-0.6 -1.2,-1.1 -3.9,-4.9 -1.4,5"
         stroke="#000000"
         stroke-width="1"
         id="path4" />
      <path
         d="m 400.6,414.9 -0.2,-0.9 -1,-1.5 9.9,3.5 m -9.1,-6.9 0.1,1.3 1.2,1.2 2.2,1.2 1.4,0.5 2.5,0.5 1.6,-0.2 0.9,-0.9 0.3,-0.7 -0.1,-1.2 -1.2,-1.3 -2.2,-1.2 -1.4,-0.5 -2.5,-0.5 -1.7,0.2 -0.8,0.9 -0.2,0.5"
         stroke="#000000"
         stroke-width="1"
         id="path5" />
      <path
         d="m 410.3,357.8 -0.5,-0.7 -1.5,-1.1 10.5,-0.3 m -8.5,-0.8 -0.6,-0.8 -1.5,-1 10.5,-0.3"
         stroke="#000000"
         stroke-width="1"
         id="path6" />
      <path
         d="m 361.24383,275.71798 -0.8,0.5 -1.1,1.4 0.3,-10.5 m -2.1,8.3 v 0.5 l -0.4,1 -0.4,0.5 -0.8,0.5 -1.5,-0.1 -0.7,-0.5 -0.4,-0.5 -0.3,-1 v -1 l 0.4,-1 0.8,-1.5 3.9,-4.9 -5.2,-0.1"
         stroke="#000000"
         stroke-width="1"
         id="path7" />
      <path
         d="m 342.20955,277.10732 1.9,-3.3 -3.7,-2.6 0.2,0.6 -0.1,1.2 -0.6,1 -0.9,0.7 -1.3,0.2 -1.5,-0.4 -0.8,-0.5 -1.2,-1.1 -0.5,-1.2 0.2,-1.2 0.5,-1 1,-0.7 0.6,-0.1 1.1,0.2"
         stroke="#000000"
         stroke-width="1"
         id="path8" />
      <path
         d="m 483.68146,258.82808 v -0.9 l -0.8,-1.8 9.1,5.4 m -7.8,-8.2 -0.1,1.2 0.6,0.9 0.9,0.5 1,0.2 0.9,-0.4 1.2,-1 1,-0.8 1.2,-0.1 1.1,0.2 1.2,0.8 0.7,0.8 0.2,0.6 -0.1,1.2 -0.8,1.3 -1,0.7 -0.6,0.1 -1.1,-0.2 -1.2,-0.8 -0.7,-0.8 -0.5,-1.2 0.2,-1.2 0.3,-1.5 v -0.9 l -0.7,-0.9 -0.9,-0.5 -1,-0.2 -1,0.7 -0.9,1.5"
         stroke="#000000"
         stroke-width="1"
         id="path9" />
      <path
         d="m 420.9,234.8 v 0.9 l 0.6,1.8 -8.8,-5.7 m 5.7,11.1 -6.8,-8.8 m 9.7,4.4 -2.9,4.4"
         stroke="#000000"
         stroke-width="1"
         id="path10" />
      <path
         d="m 307.63317,297.75617 -1.7,-7.8 -4.3,3.7 m 6,4.1 -6.8,-8"
         stroke="#000000"
         stroke-width="1"
         id="path11" />
      <path
         d="m 312.82641,279.71345 -1.2,3.6 4.1,1.8 -0.4,-0.5 -0.1,-1.2 0.4,-1.1 0.9,-0.9 1.2,-0.4 1.5,0.2 0.9,0.3 1.3,0.9 0.7,1 0.1,1.2 -0.4,1.1 -0.8,0.9 -0.6,0.2 h -1.1"
         stroke="#000000"
         stroke-width="1"
         id="path12" />
      <path
         d="m 267.30056,278.35617 7.5,2.5 -1,-5.6 m -6.5,3.1 10.3,-1.9"
         stroke="#000000"
         stroke-width="1"
         id="path13" />
      <path
         d="m 273.3,217.5 -0.1,-0.9 -0.8,-1.7 9.4,4.7 m -6.7,-5.3 -0.4,-0.3 -0.7,-0.8 -0.3,-0.5 -0.1,-0.9 0.6,-1.3 0.8,-0.5 0.6,-0.1 1.1,0.1 0.9,0.5 0.7,0.7 1,1.4 2.8,5.6 2.4,-4.7"
         stroke="#000000"
         stroke-width="1"
         id="path14" />
      <path
         d="m 286.5,160.1 -0.5,-0.7 -1.5,-1.2 10.5,0.2 m -10.7,-6.4 10.4,3.9 m -10.5,1.3 0.1,-5.2"
         stroke="#000000"
         stroke-width="1"
         id="path15" />
      <path
         d="m 207.5,108.2 -0.5,0.2 -1,0.1 -0.6,-0.1 -0.8,-0.5 -0.6,-1.4 0.1,-0.9 0.3,-0.5 0.8,-0.8 0.9,-0.4 h 1.1 1.7 l 6.1,1.4 -2.2,-4.8 m -10.3,2.6 -1.7,-3.8 4.5,0.4 -0.4,-1 0.1,-0.9 0.3,-0.5 1.3,-1 0.9,-0.4 1.5,-0.3 1.2,0.3 0.9,0.8 0.5,1.1 V 99 l -0.3,0.5 -0.8,0.8"
         stroke="#000000"
         stroke-width="1"
         id="path16" />
      <path
         d="m 154.9,221.5 -1.5,-0.1 -1.2,-0.5 -0.7,-1 v -0.4 l 0.2,-1.2 0.9,-0.9 1.4,-0.7 h 0.5 1.5 l 1.1,0.6 0.7,1 0.1,0.4 -0.3,1.2 -0.8,0.9 -1.9,0.7 -2.5,0.5 -2.5,0.1 -1.6,-0.4 -0.7,-1 -0.1,-0.8 0.2,-1.2 0.9,-0.5 m 10.8,7.7 -7.6,-2.4 1.1,5.6 m 6.5,-3.2 -10.3,2"
         stroke="#000000"
         stroke-width="1"
         id="path17" />
      <path
         d="m 180.6,233 0.5,1.5 v 1.2 l -0.7,1.1 -0.3,0.2 -1.2,0.2 -1.2,-0.4 -1.2,-1 -0.2,-0.5 -0.6,-1.4 0.1,-1.3 0.6,-1 0.3,-0.2 1.3,-0.2 1.1,0.4 1.5,1.4 1.4,2.1 1.1,2.3 0.2,1.6 -0.6,1.1 -0.7,0.4 -1.2,0.2 -0.8,-0.6 m 0.2,-11 3.4,-2.4 0.4,4.6 0.9,-0.6 h 0.9 l 0.6,0.2 1.2,1 0.5,0.8 0.6,1.5 -0.1,1.2 -0.7,1.1 -0.9,0.6 -1.2,0.2 -0.6,-0.2 -0.9,-0.6"
         stroke="#000000"
         stroke-width="1"
         id="path18" />
      <path
         d="m 137.6,110.4 1.2,-1 1.2,-0.4 1.2,0.2 0.3,0.2 0.6,1.1 v 1.3 l -0.5,1.4 -0.3,0.4 -1.2,1 -1.2,0.4 -1.2,-0.2 -0.3,-0.3 -0.6,-1 v -1.3 l 0.8,-1.8 1.4,-2.1 1.8,-1.8 1.5,-0.8 1.2,0.3 0.6,0.4 0.6,1 -0.2,1.1 m -14,1.1 9.1,-6.4 m -4.8,9.5 -4.3,-3.1"
         stroke="#000000"
         stroke-width="1"
         id="path19" />
      <path
         d="m 502.2,222.7 -0.4,-0.2 -0.8,-0.7 -0.3,-0.6 -0.1,-0.8 0.6,-1.4 0.7,-0.5 0.6,-0.1 h 1.1 l 0.9,0.4 0.8,0.8 1.1,1.3 3,5.4 2.1,-4.8 m -7.3,-9.4 -1.5,3.4 4,2.2 -0.3,-0.6 v -1.2 l 0.4,-1 0.9,-0.8 1.2,-0.3 1.6,0.2 0.9,0.5 1.2,0.9 0.6,1.1 v 1.2 l -0.4,1.1 -1,0.8 -0.6,0.1 h -1"
         stroke="#000000"
         stroke-width="1"
         id="path20" />
      <path
         d="m 473.6,488 -0.1,-0.9 -0.8,-1.7 9.2,5 m -6.9,-10.1 -1.7,3.3 3.8,2.4 -0.3,-0.5 0.1,-1.3 0.5,-1 1,-0.7 1.2,-0.2 1.5,0.4 0.9,0.5 1.1,1 0.6,1.1 -0.1,1.3 -0.6,0.9 -0.9,0.8 -0.6,0.1 -1.1,-0.1"
         stroke="#000000"
         stroke-width="1"
         id="path21" />
      <path
         d="m 457.6,447.7 1.3,-0.9 1.2,-0.2 1.2,0.4 0.3,0.2 0.5,1.1 -0.1,1.3 -0.8,1.3 -0.3,0.4 -1.3,0.9 -1.2,0.2 -1.2,-0.3 -0.2,-0.3 -0.5,-1.1 0.1,-1.2 1,-1.8 1.7,-1.9 1.9,-1.6 1.5,-0.6 1.2,0.4 0.6,0.5 0.5,1.1 -0.4,1"
         stroke="#000000"
         stroke-width="1"
         id="path22" />
      <path
         d="m 430.2,433.1 -0.2,0.9 0.1,1.9 -6.8,-8 m 3.2,11.7 -1.7,-7.8 -4.3,3.7 m 6,4.1 -6.8,-8"
         stroke="#000000"
         stroke-width="1"
         id="path23" />
      <path
         d="m 362.4,465.5 0.9,-0.6 0.2,-1.3 -0.2,-0.7 -0.8,-0.9 -1.7,-0.3 -2.5,0.3 -2.4,0.7 -1.8,0.9 -0.8,1 -0.1,1.2 0.1,0.4 0.8,0.9 1.1,0.5 1.6,-0.1 0.5,-0.1 1.3,-0.8 0.7,-1 0.2,-1.2 -0.1,-0.4 -0.8,-0.9 -1.1,-0.5 -1.6,0.1"
         stroke="#000000"
         stroke-width="1"
         id="path24" />
      <path
         d="m 244.6,91.4 0.5,0.1 0.9,0.5 0.5,0.4 0.4,0.8 -0.2,1.5 -0.6,0.7 -0.6,0.3 -1,0.2 -1,-0.1 -0.9,-0.5 -1.4,-1 -4.5,-4.3 -0.7,5.2 m 10.2,3.2 -0.6,4.1 -3.6,-2.7 -0.2,1.1 -0.6,0.7 -0.5,0.3 -1.6,0.2 -0.9,-0.2 -1.5,-0.5 -0.9,-0.9 -0.3,-1.2 0.1,-1.1 0.7,-1.1 0.5,-0.3 1,-0.2"
         stroke="#000000"
         stroke-width="1"
         id="path25" />
      <path
         d="m 314.7,100.9 -0.1,-0.5 0.1,-1.1 0.3,-0.6 0.6,-0.6 1.4,-0.4 0.9,0.3 0.5,0.4 0.6,0.9 0.2,1 -0.1,1 -0.4,1.7 -2.4,5.7 5.1,-1.2 m 0.8,-11.1 -1,0.8 -0.4,1.6 0.3,2.6 0.3,1.4 1,2.3 1.1,1.3 1.2,0.2 0.7,-0.1 1,-0.8 0.4,-1.6 -0.3,-2.5 -0.3,-1.5 -1,-2.3 -1.1,-1.3 -1.2,-0.2 -0.5,0.1"
         stroke="#000000"
         stroke-width="1"
         id="path26" />
      <path
         d="m 274.8,44.7 0.3,0.4 0.4,1 v 0.6 l -0.2,0.9 -1.1,1 -0.9,0.1 -0.6,-0.1 -0.9,-0.5 -0.7,-0.7 -0.4,-1 -0.5,-1.6 -0.5,-6.3 -3.9,3.6 m 3.3,11.3 -1.9,-7.7 -4.2,3.7 m 6.1,4 -7.1,-7.8"
         stroke="#000000"
         stroke-width="1"
         id="path27" />
      <path
         d="m 336.3,36.8 -0.1,0.4 -0.5,1 -0.5,0.4 -0.8,0.4 -1.5,-0.3 -0.6,-0.6 -0.3,-0.6 -0.2,-1 0.2,-1 0.5,-0.9 1,-1.4 4.6,-4.3 -5.2,-0.9 m -3.2,7.6 -0.1,0.5 -0.5,0.9 -0.5,0.4 -0.8,0.4 -1.5,-0.3 -0.6,-0.6 -0.3,-0.5 -0.2,-1.1 0.2,-1 0.5,-0.9 1,-1.3 4.6,-4.3 -5.2,-0.9"
         stroke="#000000"
         stroke-width="1"
         id="path28" />
      <path
         d="m 404.2,59.4 -0.9,0.1 -1.7,0.8 4.8,-9.3 m -9.4,5.7 -0.1,1.1 0.8,0.9 0.7,0.4 h 1.2 l 1.3,-1 1.5,-2 1.1,-2.3 0.6,-1.9 -0.2,-1.2 -0.8,-1 -0.3,-0.2 h -1.2 l -1.2,0.5 -1,1.2 -0.2,0.4 -0.3,1.5 0.2,1.3 0.7,0.9 0.4,0.2 1.2,0.1 1.1,-0.6 1,-1.2"
         stroke="#000000"
         stroke-width="1"
         id="path29" />
      <path
         d="m 414.8,99.9 0.6,-0.7 0.6,-1.8 3.1,10.1 m 0.1,-11.4 -0.9,0.8 -0.3,1.6 0.4,2.5 0.4,1.5 1.1,2.2 1.2,1.3 1.2,0.1 0.7,-0.2 0.9,-0.8 0.3,-1.7 -0.4,-2.5 -0.4,-1.4 -1.1,-2.3 -1.1,-1.2 -1.3,-0.1 -0.5,0.1"
         stroke="#000000"
         stroke-width="1"
         id="path30" />
      <path
         d="m 433.4,90.3 -0.7,-0.5 -1.9,-0.5 9.8,-3.9 m -12.1,-0.7 7.9,0.9 -2,-5.2 m -5.9,4.3 9.8,-3.9"
         stroke="#000000"
         stroke-width="1"
         id="path31" />
      <path
         d="m 354.6,125.1 0.3,0.9 1.3,1.4 -10.3,-2.3 m 5.9,7.5 -1.4,-0.7 -0.8,-0.9 -0.3,-1.2 0.1,-0.4 0.7,-1 1.2,-0.5 h 1.5 l 0.5,0.1 1.4,0.7 0.8,0.9 0.2,1.2 v 0.4 l -0.8,1 -1.1,0.5 -2,-0.1 -2.5,-0.5 -2.3,-0.9 -1.3,-1.1 -0.3,-1.2 0.2,-0.7 0.7,-1 1.1,-0.2"
         stroke="#000000"
         stroke-width="1"
         id="path32" />
      <path
         d="m 358.4,125.1 0.4,-0.8 0.2,-1.9 5.1,9.2 m -3.2,-8 0.5,-0.8 0.2,-1.8 5.1,9.2"
         stroke="#000000"
         stroke-width="1"
         id="path33" />
      <path
         d="m 486.9,185.5 -0.2,0.4 -0.9,0.7 -0.6,0.2 h -0.9 l -1.2,-0.9 -0.4,-0.8 v -0.6 l 0.2,-1.1 0.6,-0.8 0.9,-0.6 1.4,-0.9 5.9,-2 -4.3,-2.9 m -5.5,6.1 H 481 l -1.8,0.6 5.9,-8.7"
         stroke="#000000"
         stroke-width="1"
         id="path34" />
      <path
         d="m 424.8,166.7 0.4,-0.2 1.1,-0.2 0.6,0.1 0.8,0.4 0.7,1.3 v 0.9 l -0.3,0.6 -0.7,0.8 -0.9,0.5 -1,0.2 h -1.7 l -6.2,-0.8 2.6,4.6 m 10.8,-2.2 -1,-0.7 -1.6,0.1 -2.4,0.9 -1.3,0.7 -2,1.6 -0.9,1.4 0.1,1.2 0.3,0.6 1,0.8 1.7,-0.1 2.4,-0.9 1.3,-0.7 2,-1.6 0.9,-1.4 -0.1,-1.2 -0.3,-0.5"
         stroke="#000000"
         stroke-width="1"
         id="path35" />
      <path
         d="m 434.6,162.2 -0.7,0.6 -0.9,1.7 -1.7,-10.4 m -4.8,8.2 0.2,-1.5 0.5,-1.1 1.1,-0.7 0.3,-0.1 1.2,0.4 0.9,0.8 0.6,1.4 0.1,0.5 -0.1,1.6 -0.6,1.1 -1,0.7 h -0.4 l -1.2,-0.3 -0.9,-0.9 -0.7,-1.9 -0.4,-2.4 v -2.6 l 0.5,-1.6 1,-0.6 0.8,-0.2 1.1,0.3 0.6,1"
         stroke="#000000"
         stroke-width="1"
         id="path36" />
      <path
         d="m 458.3,306.6 v -0.5 l 0.3,-1 0.3,-0.5 0.7,-0.6 1.5,-0.2 0.8,0.5 0.4,0.4 0.5,1 0.1,1 -0.3,1 -0.6,1.6 -3.3,5.3 5.3,-0.5 m 0.2,-8.2 0.7,-0.6 1,-1.6 1,10.5"
         stroke="#000000"
         stroke-width="1"
         id="path37" />
      <path
         d="m 332.6,467.7 -1,0.5 -0.4,1.2 0.1,0.7 0.6,1.1 1.6,0.6 2.5,0.1 2.5,-0.2 1.9,-0.5 1,-0.9 0.4,-1.1 -0.1,-0.4 -0.6,-1.1 -1,-0.6 -1.6,-0.3 -0.5,0.1 -1.4,0.5 -0.9,0.8 -0.4,1.2 v 0.4 l 0.6,1 1.1,0.7 1.5,0.2"
         stroke="#000000"
         stroke-width="1"
         id="path38" />
      <path
         d="m 318,471 -7.1,8.6 m 2.2,-10.4 4.9,1.8"
         stroke="#000000"
         stroke-width="1"
         id="path39" />
      <path
         d="m 85.8,122.1 -0.3,-1.5 0.2,-1.2 0.7,-1 0.3,-0.2 1.3,-0.1 1.1,0.6 1,1.1 0.3,0.4 0.3,1.5 -0.1,1.3 -0.8,1 -0.3,0.1 -1.3,0.1 -1.1,-0.5 -1.3,-1.6 -1.1,-2.2 -0.9,-2.4 v -1.7 l 0.7,-0.9 0.7,-0.4 1.2,-0.1 0.8,0.7 m -2.4,11.5 0.7,-0.9 -0.1,-1.1 -0.5,-0.9 -0.8,-0.7 -0.9,-0.1 -1.5,0.3 -1.3,0.1 -1.1,-0.5 -0.8,-0.7 -0.7,-1.4 -0.1,-1 0.1,-0.6 0.7,-1 1.3,-0.7 1.3,-0.1 0.5,0.3 0.8,0.7 0.7,1.3 0.2,1 -0.2,1.3 -0.8,0.9 -1.1,1.2 -0.4,0.8 0.2,1.1 0.4,0.8 0.8,0.7 1.3,-0.1 1.5,-0.7"
         stroke="#000000"
         stroke-width="1"
         id="path40" />
      <path
         d="m 55.1,160.1 -1.6,0.2 -1.2,-0.3 -0.9,-0.8 -0.1,-0.4 v -1.2 l 0.6,-1.1 1.2,-0.9 0.5,-0.2 1.5,-0.2 1.2,0.2 0.9,0.9 0.2,0.3 v 1.3 l -0.6,1 -1.7,1.2 -2.3,1 -2.5,0.6 -1.7,-0.1 -0.9,-0.8 -0.3,-0.7 0.1,-1.3 0.7,-0.7 m 8.5,3.3 0.5,-0.2 1,-0.1 0.6,0.2 0.8,0.5 0.6,1.3 -0.2,0.9 -0.3,0.6 -0.8,0.7 -0.9,0.4 h -1.1 l -1.6,-0.1 -6.1,-1.4 2.1,4.8"
         stroke="#000000"
         stroke-width="1"
         id="path41" />
      <path
         d="m 129.7,227.6 1.5,0.3 1.1,0.7 0.5,1.1 v 0.4 l -0.4,1.1 -0.9,0.9 -1.5,0.4 h -0.5 l -1.5,-0.2 -1.1,-0.7 -0.5,-1.1 -0.1,-0.4 0.5,-1.2 0.9,-0.8 2,-0.5 2.5,-0.1 2.5,0.2 1.5,0.7 0.6,1.1 0.1,0.7 -0.5,1.2 -1,0.4 m -9.6,-9.1 7.2,3.4 -0.3,-5.6 m -6.9,2.2 10.5,-0.6"
         stroke="#000000"
         stroke-width="1"
         id="path42" />
      <path
         d="m 86.3,225.4 -0.9,-0.8 h -1.1 l -0.9,0.4 -0.8,0.7 -0.2,0.9 0.1,1.6 v 1.2 l -0.6,1.1 -0.8,0.7 -1.4,0.6 h -1.1 l -0.6,-0.2 -0.9,-0.8 -0.5,-1.4 v -1.2 l 0.3,-0.6 0.8,-0.7 1.4,-0.6 h 1 l 1.2,0.3 0.9,0.9 1.1,1.2 0.7,0.5 1.1,-0.1 0.9,-0.3 0.8,-0.8 v -1.2 l -0.6,-1.6 m 0.4,10.3 -1.5,0.2 -1.2,-0.3 -0.9,-0.9 -0.2,-0.3 0.1,-1.2 0.6,-1.1 1.3,-0.9 0.4,-0.2 1.6,-0.3 1.2,0.4 0.9,0.8 0.1,0.3 v 1.3 l -0.7,1.1 -1.7,1.1 -2.3,0.9 -2.4,0.6 -1.7,-0.1 -0.9,-0.8 -0.3,-0.7 v -1.3 l 0.8,-0.7"
         stroke="#000000"
         stroke-width="1"
         id="path43" />
      <path
         d="m 200.9,253.6 -0.8,-1.3 -0.2,-1.3 0.4,-1.1 0.3,-0.3 1.1,-0.5 1.2,0.2 1.4,0.8 0.3,0.3 0.9,1.3 0.1,1.3 -0.4,1.1 -0.2,0.3 -1.2,0.5 -1.2,-0.2 -1.7,-1.1 -1.8,-1.8 -1.5,-2 -0.6,-1.6 0.4,-1.1 0.6,-0.6 1.1,-0.4 1,0.4 m 2,10.9 -2.9,2.9 -1.3,-4.4 -0.8,0.8 -0.9,0.2 -0.6,-0.1 -1.3,-0.7 -0.7,-0.7 -0.9,-1.3 -0.2,-1.3 0.5,-1.1 0.8,-0.8 1.1,-0.5 0.6,0.1 1,0.4"
         stroke="#000000"
         stroke-width="1"
         id="path44" />
      <path
         d="m 211.2,287.8 -1.2,-0.2 -0.8,0.7 -0.5,0.9 -0.1,1.1 0.4,0.8 1,1.1 0.8,1 0.2,1.3 -0.2,1 -0.7,1.3 -0.8,0.7 -0.6,0.3 -1.2,-0.1 -1.3,-0.7 -0.8,-1 -0.1,-0.6 0.2,-1.1 0.7,-1.3 0.8,-0.7 1.2,-0.5 1.2,0.1 1.5,0.3 0.9,-0.1 0.8,-0.7 0.5,-0.9 0.2,-1 -0.8,-1 -1.4,-0.8 m 5.8,3.2 -1.3,-0.2 -0.8,0.7 -0.5,0.9 -0.1,1.1 0.4,0.8 1.1,1.1 0.7,1 0.2,1.3 -0.1,1 -0.8,1.3 -0.8,0.7 -0.6,0.3 -1.2,-0.1 -1.3,-0.7 -0.7,-1 -0.1,-0.6 0.1,-1.1 0.8,-1.3 0.8,-0.7 1.1,-0.5 1.2,0.1 1.6,0.3 0.9,-0.1 0.8,-0.7 0.5,-0.9 0.1,-1 -0.7,-1 -1.5,-0.8"
         stroke="#000000"
         stroke-width="1"
         id="path45" />
      <path
         d="m 154,89.8 -1.4,0.7 h -1.2 l -1.1,-0.6 -0.3,-0.3 -0.3,-1.2 0.3,-1.2 1,-1.2 0.4,-0.3 1.4,-0.6 1.2,-0.1 1.1,0.6 0.2,0.3 0.4,1.2 -0.4,1.2 -1.3,1.5 -1.9,1.6 -2.2,1.2 -1.7,0.4 -1.1,-0.6 -0.4,-0.6 -0.3,-1.2 0.5,-0.9 m 13.7,2.8 -10.5,3.6 m 7.3,-7.7 3.2,4.1"
         stroke="#000000"
         stroke-width="1"
         id="path46" />
      <path
         d="m 156.8,48.2 0.2,0.9 1,1.5 -9.9,-3.4 m 9.2,6.8 -0.2,-1.2 -1.1,-1.2 -2.3,-1.2 -1.4,-0.5 -2.5,-0.4 -1.6,0.2 -0.9,0.9 -0.2,0.7 0.1,1.2 1.2,1.2 2.2,1.2 1.4,0.5 2.5,0.4 1.7,-0.2 0.8,-0.9 0.2,-0.5 m -3.5,2.9 0.2,0.9 1.1,1.5 -9.9,-3.4"
         stroke="#000000"
         stroke-width="1"
         id="path47" />
      <path
         d="m 175.8,59.8 -0.9,-0.1 -1.8,0.3 7.1,-7.6 m -9.9,5.5 1.2,0.4 1.6,-0.5 1.9,-1.6 1.1,-1.1 1.4,-2.1 0.5,-1.6 -0.5,-1.1 -0.6,-0.5 -1.1,-0.4 -1.6,0.5 -2,1.6 -1,1.1 -1.4,2.1 -0.5,1.6 0.5,1.1 0.4,0.4 m -1.7,-5 -0.3,0.4 -1,0.5 -0.6,0.1 -0.9,-0.2 -1.1,-1 -0.2,-0.9 0.1,-0.6 0.4,-1 0.7,-0.7 0.9,-0.5 1.6,-0.6 6.1,-1.1 -3.8,-3.6"
         stroke="#000000"
         stroke-width="1"
         id="path48" />
      <path
         d="m 460.6,536.7 -0.4,-0.8 -1.4,-1.3 10.4,1 m -10.2,-6.7 -0.4,3.8 4.5,0.8 -0.5,-0.4 -0.4,-1.2 0.1,-1.1 0.6,-1.1 1.1,-0.6 1.5,-0.3 1,0.1 1.5,0.6 0.9,0.8 0.4,1.2 -0.1,1.1 -0.6,1.1 -0.6,0.3 -1,0.3"
         stroke="#000000"
         stroke-width="1"
         id="path49" />
      <path
         d="m 431.8,542.9 -0.5,1.4 -0.8,1 -1.2,0.4 -0.3,-0.1 -1.1,-0.6 -0.7,-1 -0.2,-1.6 v -0.5 l 0.5,-1.4 0.9,-0.9 1.1,-0.4 h 0.4 l 1.1,0.6 0.6,1 0.2,2.1 -0.2,2.5 -0.6,2.4 -0.8,1.4 -1.2,0.4 h -0.7 l -1.1,-0.6 -0.3,-1"
         stroke="#000000"
         stroke-width="1"
         id="path50" />
      <path
         d="m 384.4,514.3 -0.9,-0.8 -1.1,0.2 -0.9,0.5 -0.7,0.8 -0.1,0.9 0.3,1.5 0.1,1.3 -0.5,1.1 -0.7,0.8 -1.3,0.7 -1.1,0.2 -0.6,-0.1 -1,-0.8 -0.7,-1.3 -0.1,-1.2 0.3,-0.6 0.7,-0.8 1.3,-0.7 1,-0.2 1.3,0.2 1,0.8 1.1,1 0.8,0.5 1.1,-0.2 0.9,-0.5 0.6,-0.8 v -1.2 l -0.9,-1.5"
         stroke="#000000"
         stroke-width="1"
         id="path51" />
      <path
         d="m 511.3,274.9 -0.6,0.7 -0.5,1.8 -3.6,-9.9 m 0.9,11.3 0.8,-0.9 v -1.1 l -0.3,-0.9 -0.7,-0.8 -0.9,-0.2 h -1.6 -1.2 l -1,-0.7 -0.7,-0.8 -0.6,-1.4 0.1,-1.1 0.1,-0.6 0.9,-0.9 1.4,-0.5 1.3,0.1 0.5,0.3 0.7,0.8 0.5,1.5 v 1 l -0.4,1.2 -0.9,0.9 -1.2,1 -0.5,0.7 v 1.1 l 0.3,0.9 0.7,0.8 1.2,0.1 1.6,-0.6"
         stroke="#000000"
         stroke-width="1"
         id="path52" />
      <path
         d="m 502.17303,291.78202 -0.5,-0.1 -0.9,-0.5 -0.5,-0.4 -0.4,-0.8 0.2,-1.5 0.6,-0.7 0.6,-0.3 1,-0.3 1,0.2 0.9,0.5 1.4,0.9 4.5,4.4 0.7,-5.2 m -9.7,-7 -0.5,3.7 4.4,1 -0.4,-0.5 -0.4,-1.1 0.2,-1.2 0.6,-1 1.1,-0.6 1.5,-0.2 1,0.1 1.5,0.6 0.9,0.9 0.3,1.1 -0.1,1.2 -0.7,1 -0.5,0.3 -1.1,0.3"
         stroke="#000000"
         stroke-width="1"
         id="path53" />
      <path
         d="m 198.9,425.6 -1.5,-11.1 m 6.1,8.7 -4.6,2.4 m -7,-0.4 -0.4,-1.5 0.2,-1.3 0.8,-0.9 0.3,-0.2 h 1.3 l 1.1,0.5 1,1.2 0.2,0.4 0.4,1.5 -0.2,1.3 -0.8,0.9 -0.3,0.2 h -1.3 l -1.1,-0.5 -1.2,-1.6 -1.2,-2.2 -0.8,-2.4 v -1.7 l 0.8,-1 0.7,-0.3 1.2,-0.1 0.8,0.7"
         stroke="#000000"
         stroke-width="1"
         id="path54" />
      <path
         d="m 156,321.3 1,0.7 1.1,-0.1 0.8,-0.5 0.7,-0.8 0.1,-0.9 -0.2,-1.5 -0.1,-1.3 0.5,-1.1 0.7,-0.8 1.4,-0.7 1,-0.1 0.6,0.1 1,0.7 0.7,1.3 0.1,1.3 -0.3,0.5 -0.7,0.8 -1.3,0.7 -1.1,0.2 -1.2,-0.2 -1,-0.8 -1.1,-1.1 -0.8,-0.4 -1.1,0.1 -0.9,0.5 -0.7,0.8 0.1,1.2 0.8,1.5 m -3.1,-5.8 1,0.7 1,-0.1 0.9,-0.5 0.7,-0.8 0.1,-0.9 -0.2,-1.5 -0.1,-1.3 0.5,-1.1 0.7,-0.8 1.4,-0.7 1,-0.1 0.6,0.1 1,0.7 0.7,1.3 0.1,1.3 -0.3,0.5 -0.7,0.8 -1.3,0.7 -1.1,0.2 -1.2,-0.2 -1,-0.8 -1.1,-1.1 -0.8,-0.4 -1.1,0.1 -0.9,0.5 -0.7,0.8 0.1,1.2 0.8,1.5"
         stroke="#000000"
         stroke-width="1"
         id="path55" />
      <path
         d="m 87.2,312.5 0.2,-1.3 -0.7,-0.8 -0.8,-0.5 -1.1,-0.2 -0.8,0.4 -1.2,1 -1,0.7 -1.3,0.2 -1,-0.2 -1.3,-0.8 -0.7,-0.8 -0.2,-0.6 0.2,-1.2 0.7,-1.3 1,-0.7 0.6,-0.1 1.1,0.2 1.3,0.8 0.7,0.8 0.4,1.2 -0.1,1.2 -0.4,1.5 0.1,0.9 0.6,0.9 0.9,0.5 1.1,0.2 1,-0.7 0.8,-1.5 m -4.4,2.8 0.1,0.9 0.7,1.7 -9,-5.4"
         stroke="#000000"
         stroke-width="1"
         id="path56" />
      <path
         d="m 106.1,350.6 -7.8,8 m 3.1,-10.2 4.7,2.2 m 4.1,5.7 -1,1.2 -1.1,0.6 h -1.2 l -0.4,-0.2 -0.8,-0.9 -0.2,-1.2 0.2,-1.5 0.2,-0.5 1,-1.2 1.1,-0.6 h 1.2 l 0.4,0.2 0.8,0.9 0.3,1.2 -0.5,2 -1.1,2.3 -1.4,2.1 -1.3,1 h -1.2 l -0.7,-0.3 -0.8,-0.9 0.1,-1.1"
         stroke="#000000"
         stroke-width="1"
         id="path57" />
      <path
         d="m 175.04606,364.15338 -0.5,-0.2 -0.7,-0.8 -0.4,-0.5 -0.1,-0.9 0.5,-1.4 0.8,-0.5 0.6,-0.1 h 1 l 1,0.4 0.8,0.7 1.1,1.3 3.2,5.3 2,-4.8"
         stroke="#000000"
         stroke-width="1"
         id="path58" />
      <path
         d="m 160.29045,372.94551 0.7,-0.6 1,-1.6 0.9,10.5"
         stroke="#000000"
         stroke-width="1"
         id="path59" />
      <path
         d="m 134.1,487.5 -0.7,1 0.2,1.1 0.5,0.8 0.9,0.7 h 0.9 l 1.5,-0.3 1.2,-0.2 1.2,0.5 0.8,0.7 0.8,1.3 0.2,1 -0.1,0.6 -0.7,1 -1.3,0.8 -1.2,0.2 -0.6,-0.3 -0.8,-0.6 -0.8,-1.3 -0.2,-1.1 0.2,-1.2 0.7,-1 1,-1.2 0.4,-0.8 -0.2,-1.1 -0.5,-0.8 -0.9,-0.7 -1.2,0.2 -1.4,0.8 m 5.9,-0.6 -0.3,-0.4 -0.2,-1.1 0.1,-0.6 0.4,-0.8 1.3,-0.8 h 0.9 l 0.5,0.3 0.9,0.6 0.5,0.9 0.2,1 0.1,1.7 -0.6,6.2 4.5,-2.7"
         stroke="#000000"
         stroke-width="1"
         id="path60" />
      <path
         d="m 70,493.2 -1.1,1.1 -1.2,0.5 -1.2,-0.2 -0.3,-0.2 -0.7,-1 -0.1,-1.3 0.4,-1.5 0.3,-0.4 1.1,-1.1 1.2,-0.4 1.2,0.2 0.3,0.2 0.7,1 0.1,1.2 -0.7,1.9 -1.4,2.1 -1.6,2 -1.4,0.8 -1.3,-0.1 -0.6,-0.4 -0.7,-1 0.2,-1.1 m 11.5,-3.4 -1.2,-0.2 -1.4,0.9 -1.7,1.9 -0.8,1.3 -1,2.3 -0.1,1.7 0.7,1 0.6,0.4 1.2,0.2 1.5,-0.9 1.6,-1.9 0.8,-1.3 1,-2.3 0.2,-1.7 -0.7,-1 -0.5,-0.3"
         stroke="#000000"
         stroke-width="1"
         id="path61" />
      <path
         d="m 113.1,420.8 1.1,0.5 1,-0.4 0.7,-0.6 0.6,-0.9 -0.1,-0.9 -0.6,-1.5 -0.4,-1.2 0.3,-1.2 0.5,-0.9 1.2,-1 1,-0.4 h 0.6 l 1.1,0.5 1,1.2 0.3,1.2 -0.1,0.6 -0.5,0.9 -1.2,1 -1,0.3 -1.2,0.1 -1.1,-0.5 -1.4,-0.9 -0.8,-0.2 -1.1,0.4 -0.7,0.6 -0.5,0.9 0.3,1.2 1.1,1.3 m -1.2,-5.1 -0.9,-0.2 -1.8,0.1 8,-6.8"
         stroke="#000000"
         stroke-width="1"
         id="path62" />
      <path
         d="m 29.6,439.2 h -1.5 l -1.2,-0.4 -0.8,-1 -0.1,-0.3 0.2,-1.2 0.7,-1 1.3,-0.8 0.5,-0.2 h 1.6 l 1.1,0.4 0.8,1 0.1,0.3 -0.1,1.3 -0.8,1 -1.8,0.9 -2.4,0.7 -2.5,0.3 -1.7,-0.3 -0.8,-0.9 -0.2,-0.8 0.2,-1.2 0.9,-0.6 m 7.9,3.5 0.7,0.6 1.7,0.6 -10,2.9"
         stroke="#000000"
         stroke-width="1"
         id="path63" />
      <path
         d="m 60.7,404.3 1,-0.8 0.1,-1.1 -0.3,-0.9 -0.7,-0.9 -0.8,-0.2 -1.6,-0.1 -1.2,-0.2 -1,-0.7 -0.6,-0.9 -0.5,-1.4 0.1,-1.1 0.2,-0.6 1,-0.8 1.4,-0.4 1.2,0.2 0.5,0.4 0.7,0.8 0.4,1.5 -0.1,1 -0.4,1.2 -1,0.8 -1.3,0.9 -0.6,0.7 v 1 l 0.2,1 0.7,0.9 1.2,0.1 1.6,-0.5 m -10.2,-0.6 -0.1,-1.6 0.5,-1.2 0.9,-0.7 0.4,-0.1 1.2,0.1 1,0.8 0.8,1.3 0.1,0.5 0.1,1.5 -0.5,1.2 -0.9,0.8 -0.4,0.1 -1.2,-0.2 -1,-0.7 -0.9,-1.8 -0.7,-2.4 -0.3,-2.5 0.3,-1.7 0.9,-0.8 0.7,-0.2 1.3,0.2 0.6,0.8"
         stroke="#000000"
         stroke-width="1"
         id="path64" />
      <path
         d="m 214.8,567 -1,0.6 -0.3,1 0.2,1 0.5,1 0.8,0.4 1.5,0.3 1.2,0.3 0.9,0.9 0.5,0.9 0.2,1.5 -0.2,1.1 -0.3,0.5 -1.1,0.7 -1.5,0.2 -1.2,-0.4 -0.4,-0.4 -0.5,-1 -0.2,-1.4 0.2,-1.1 0.6,-1.1 1.1,-0.6 1.4,-0.7 0.7,-0.6 0.2,-1.1 -0.1,-1 -0.5,-0.9 -1.2,-0.3 -1.7,0.2 m 8.6,-1.3 -2.8,7.5 5.6,-0.8 m -2.8,-6.7 1.4,10.4"
         stroke="#000000"
         stroke-width="1"
         id="path65" />
      <path
         d="m 156.6,553.5 -1.2,-0.1 -0.8,0.7 -0.5,0.8 -0.1,1.1 0.4,0.8 1.1,1.1 0.7,1 0.2,1.3 -0.2,1 -0.7,1.3 -0.8,0.7 -0.6,0.3 -1.2,-0.1 -1.3,-0.7 -0.8,-1 v -0.6 l 0.1,-1.1 0.7,-1.3 0.8,-0.7 1.2,-0.5 1.2,0.1 1.6,0.3 0.9,-0.1 0.8,-0.7 0.5,-0.9 0.1,-1 -0.7,-1 -1.5,-0.8 m 4.8,2.6 3.6,2 -3.9,2.4 1,0.6 0.4,0.8 0.1,0.6 -0.4,1.5 -0.5,0.8 -1.1,1.2 -1.1,0.5 -1.2,-0.1 -1,-0.6 -0.8,-0.9 v -0.7 l 0.1,-1"
         stroke="#000000"
         stroke-width="1"
         id="path66" />
      <path
         d="m 169.7,515.5 0.4,-1.2 -0.5,-0.9 -0.8,-0.7 -1,-0.3 -0.9,0.2 -1.3,0.9 -1.1,0.5 -1.3,-0.1 -1,-0.3 -1.1,-1 -0.6,-0.9 -0.1,-0.6 0.3,-1.2 1,-1.2 1.1,-0.5 h 0.6 l 1,0.4 1.2,1 0.5,0.9 0.3,1.2 -0.4,1.2 -0.5,1.5 -0.1,0.9 0.5,0.9 0.8,0.6 1,0.4 1.1,-0.6 1.1,-1.2 m -5.4,2.5 0.4,0.3 0.5,0.9 0.1,0.6 -0.1,0.9 -0.9,1.2 -0.9,0.2 H 163 l -1,-0.4 -0.8,-0.6 -0.5,-0.9 -0.7,-1.6 -1.4,-6.1 -3.4,4.1"
         stroke="#000000"
         stroke-width="1"
         id="path67" />
      <path
         d="m 296,502.8 9.3,-6.2 m -5.1,9.3 -4.2,-3.1"
         stroke="#000000"
         stroke-width="1"
         id="path68" />
      <path
         d="m 285.3,537.2 -0.6,1 0.3,1.1 0.6,0.8 0.9,0.6 0.9,-0.1 1.5,-0.5 1.2,-0.2 1.2,0.3 0.9,0.6 0.9,1.2 0.3,1 v 0.6 l -0.6,1.1 -1.2,0.9 -1.2,0.3 -0.6,-0.2 -0.9,-0.6 -0.9,-1.2 -0.3,-1 v -1.3 l 0.6,-1 0.9,-1.3 0.3,-0.9 -0.3,-1 -0.6,-0.8 -0.8,-0.6 -1.2,0.3 -1.4,1 m 8.3,-4.3 -0.9,-0.6 -1.2,0.3 -0.6,0.4 -0.6,1.1 0.3,1.6 1.2,2.3 1.5,2 1.5,1.4 1.2,0.3 1.2,-0.2 0.3,-0.3 0.6,-1 V 539 l -0.6,-1.4 -0.3,-0.4 -1.2,-1 -1.2,-0.4 -1.2,0.3 -0.3,0.2 -0.6,1.1 v 1.3 l 0.6,1.4"
         stroke="#000000"
         stroke-width="1"
         id="path69" />
    </g>
    <path
       d="m 248.23825,261.70229 1.1,-0.7 1.7,-2.3 v 15.8"
       id="titre_1"
       stroke="#4b0082"
       style="stroke-width:1.90404" />
  </g>
  <g
     id="page_002"
     transform="translate(10.403312,79.939129)">
    <path
       d="m 558.2,115.7 -13,-58.8 74,-6.3 52.9,54.5 -36.3,45.9 39,84.6 29.6,-88.3 -25.6,-52.6 101.2,-24.6 86.8,-57.5 22.2,11 -3.9,52.9 -61.3,36.7 -65.7,27.8 -9.6,52.3 39.7,47.1 -42.6,44.2 -5.9,72.8 -14.4,64.3 58.9,18.6 38.9,-4.9 32.8,-16.4 6.5,66 52.5,12.6 -48.7,-23.3 -5.4,-66.2 14.7,-53.7 5.2,-52.8 -39.2,-18.1 33.9,26.8 -2.2,53 L 799.6,413 785,354.5 764.6,316.8 812.9,200 l 51.6,-86.6 55.5,39 18.3,41.3 51.1,32.8 11.1,102.6 56.7,17.9 -40.5,68 -27.7,76.5 -52.5,48.7 -64.3,32.6 -35.8,8.8 -28.9,-6.8 -45,-78.3 -53.2,35.6 -73,24.7 -93.9,-44.1 83.9,-14.5 -84.3,-11.8 33.1,-122 44.4,46.2 56.1,25.2 -17,-65 -10.4,-37.6 -38.7,5.4 -56.4,-36.5 -0.7,-61.6 39.5,0.3 -34.7,-18.9 6.3,-63.7 z"
       id="coupes_002"
       stroke="#ff0000"
       stroke-width="1.27" />
    <path
       d="m 725.3,421.7 -66.7,-50.9 m 0,0 81.1,-13.4 m 5.9,-72.8 -97.4,48.6 91.5,24.2 M 635.8,151 l -43.9,89.8 56.3,92.4 26.6,-97.6 73.7,-42.3 -2.9,91.3 -70.8,-49 -82.9,5.2 17.6,97.8 M 758.1,141 l -53.7,6.3 75.6,-77.2 43.8,43.1 43,-100.6 M 563.5,158.2 635.8,151 558.2,115.7 m 151.1,416.4 -33.7,-96.3 -49.3,62.4 83,33.9 16,-110.4 37.2,74.8 21.7,-56.2 23.3,134.5 m -23.3,-134.5 52.2,141.3 m -13.3,-146.2 39.3,49.6 9.8,87.8 42.7,-75.2 21.6,42.6 m -75.7,-132.1 54.1,89.5 74.1,-6.1 -128.2,-83.4 155.9,6.9 -16.2,-85.9 -125,25.3 141.2,60.6 m -16.2,-85.9 -119.8,-27.5 108.7,-75.1 m -353.1,330.3 -10,-58.6 -6.8,-87.6 -77.5,75.8 m 222.6,-169.6 76.9,-33.3 96.8,-89.8 m -266.2,-88.6 -113.9,10.6 61,-65.1 m 254,312.7 -88.2,-8.8 56.5,-71 L 812.9,200 920,152.4 M 889,23.6 823.8,113.2"
       id="plisM_002"
       stroke="#a52a2a"
       stroke-dasharray="4" />
    <path
       d="m 689.9,394.3 4,4 m 0,-4 -4,4 m 7.3,-36.2 4,4 m 0,-4 -4,4 m -5.2,-22.8 4,4 m 0,-4 -4,4 m 2.9,-40.4 4,4 m 0,-4 -4,4 m -35.4,-28.5 4,4 m 0,-4 -4,4 m 48.7,-28.3 4,4 m 0,-4 -4,4 m 1.4,-49.7 4,4 m 0,-4 -4,4 m 35.5,20.6 4,4 m 0,-4 -4,4 m -15.8,-98.8 4,4 m 0,-4 -4,4 m 10.9,-39.5 4,4 m 0,-4 -4,4 M 618,285 l 4,4 m 0,-4 -4,4 m 13.3,-52.8 4,4 m 0,-4 -4,4 m -32.6,47.5 4,4 m 0,-4 -4,4 m 13.1,-97.8 4,4 m 0,-4 -4,4 m -14.2,-45.3 4,4 m 0,-4 -4,4 m -2.6,-25.3 4,4 m 0,-4 -4,4 m 95.5,346.7 4,4 m 0,-4 -4,4 m 24.8,-11.1 4,4 m 0,-4 -4,4 m 26.6,-21.8 4,4 m 0,-4 -4,4 m 29.5,5.3 4,4 m 0,-4 -4,4 m 22.4,35.2 4,4 m 0,-4 -4,4 m 14.5,-0.6 4,4 m 0,-4 -4,4 m 32.4,-54.8 4,4 m 0,-4 -4,4 m 24.6,64.7 4,4 m 0,-4 -4,4 m 26.2,2.3 4,4 m 0,-4 -4,4 m 32.2,-20.3 4,4 m 0,-4 -4,4 m 26.2,-28.3 4,4 m 0,-4 -4,4 m -64,-45.7 4,4 m 0,-4 -4,4 m 37,-7.1 4,4 m 0,-4 -4,4 m 13.8,-42.2 4,4 m 0,-4 -4,4 m 7.4,-30.9 4,4 m 0,-4 -4,4 m -8.1,-46.9 4,4 m 0,-4 -4,4 m 70.6,26.2 4,4 m 0,-4 -4,4 m -68,-60.6 4,4 m 0,-4 -4,4 m -5.5,-55.3 4,4 m 0,-4 -4,4 m -45.2,-29.5 4,4 m 0,-4 -4,4 m -62.7,-0.9 4,4 m 0,-4 -4,4 m 39.2,-69.5 4,4 m 0,-4 -4,4 m -198.6,335 4,4 m 0,-4 -4,4 M 649,465 l 4,4 m 0,-4 -4,4 m -19.7,56.5 4,4 m 0,-4 -4,4 m -8.4,-77.1 4,4 m 0,-4 -4,4 m -42.2,-9.9 4,4 m 0,-4 -4,4 m 222.4,-152.3 4,4 m 0,-4 -4,4 m -187.9,-193.8 4,4 m 0,-4 -4,4 m -26.5,-31.2 4,4 m 0,-4 -4,4 m 224.6,231.8 4,4 m 0,-4 -4,4 m 15.8,35.9 4,4 m 0,-4 -4,4 m -27.2,-271.2 4,4 m 0,-4 -4,4 m 43.4,-32.8 4,4 m 0,-4 -4,4 m 11.1,1.5 4,4 m 0,-4 -4,4"
       display="none"
       id="marqueM_002"
       stroke="#a52a2a" />
    <path
       d="m 725.3,421.7 -49.7,14.1 m 28.8,-288.5 44.1,46 M 780,70.1 758.1,141 M 609.5,338.6 552.4,240.5 m 4.8,-18.6 78.6,-70.9 m 187.3,284.4 13.3,146.2 26,-96.6 m 18.3,-183.4 57.6,-107.9 m -18.3,-41.3 -78.5,131.1 31.7,79.8"
       id="plisV_002"
       stroke="#008000"
       stroke-dasharray="4, 1, 1, 1"
       stroke-width="1.27" />
    <path
       d="m 698.5,426.8 4,4 m 0,-4 -4,4 m 26,-262.5 4,4 m 0,-4 -4,4 m 42.5,-68.7 4,4 m 0,-4 -4,4 m -188,180 4,4 m 0,-4 -4,4 m 15.5,-107.1 4,4 m 0,-4 -4,4 m 233.2,318 4,4 m 0,-4 -4,4 m 19.7,20.8 4,4 m 0,-4 -4,4 m 60.1,-289.7 4,4 m 0,-4 -4,4 m -28.8,-33.7 4,4 m 0,-4 -4,4 m -23.4,101.5 4,4 m 0,-4 -4,4"
       id="marqueV_002"
       stroke="#008000" />
    <g
       id="nums_002">
      <path
         d="m 717.8,392.2 0.9,-4.1 3.4,3.1 0.3,-1.1 0.6,-0.6 0.6,-0.3 h 1.5 l 1,0.2 1.4,0.7 0.8,1 0.3,1.2 -0.3,1.1 -0.7,1 -0.6,0.2 -1.1,0.2 m -6.1,-12 6,5.2 1.3,-5.5 m -7.3,0.3 10.3,2.3"
         stroke="#000000"
         stroke-width="1"
         id="path70" />
      <path
         d="m 679.9,398 -0.9,-3.6 -4.5,0.8 0.6,0.2 0.8,0.9 0.3,1.1 -0.2,1.3 -0.8,0.9 -1.4,0.8 -0.9,0.2 h -1.6 l -1.1,-0.4 -0.8,-1 -0.3,-1.1 0.2,-1.2 0.4,-0.5 0.9,-0.6 m 7.6,5.3 0.5,-0.1 1,0.1 0.6,0.2 0.7,0.6 0.3,1.5 -0.2,0.8 -0.4,0.5 -0.9,0.7 -1,0.2 -1,-0.1 -1.7,-0.3 -5.8,-2.4 1.4,5.1"
         stroke="#000000"
         stroke-width="1"
         id="path71" />
      <path
         d="m 666.2,346.7 -1,-3.7 -4.5,0.9 0.6,0.2 0.8,1 0.3,1 -0.2,1.3 -0.8,1 -1.3,0.7 -1,0.3 h -1.5 l -1.2,-0.4 -0.8,-1 -0.3,-1.1 0.2,-1.2 0.4,-0.5 0.9,-0.6 m 11.1,8.2 -1,-3.6 -4.5,0.9 0.6,0.2 0.8,0.9 0.3,1.1 -0.2,1.2 -0.7,1 -1.4,0.8 -1,0.3 h -1.5 l -1.2,-0.5 -0.7,-0.9 -0.3,-1.1 0.1,-1.2 0.4,-0.5 0.9,-0.6"
         stroke="#000000"
         stroke-width="1"
         id="path72" />
      <path
         d="m 728.6,322.8 6.7,4.3 0.5,-5.6 m -7.2,1.3 10.5,0.8 M 729,319 l 0.4,-4.1 3.8,2.6 0.1,-1.2 0.5,-0.7 0.5,-0.3 1.6,-0.3 1,0.1 1.4,0.5 1,0.8 0.4,1.2 -0.1,1.1 -0.6,1.1 -0.5,0.3 -1.1,0.3"
         stroke="#000000"
         stroke-width="1"
         id="path73" />
      <path
         d="m 703.7,193.1 -5.5,-5.8 -1.8,5.4 m 7.3,0.4 -10,-3.3 m 7.3,11 -8.8,-6.9 m 10.4,1.9 -1.6,5"
         stroke="#000000"
         stroke-width="1"
         id="path74" />
      <path
         d="m 739.2,167.5 6.2,4.9 1,-5.5 m -7.2,0.6 10.3,1.9 m -9.4,-6.7 0.3,1.1 0.9,0.6 1,0.2 1.1,-0.2 0.6,-0.7 0.8,-1.3 0.7,-1.1 1.1,-0.5 1,-0.2 1.5,0.3 0.9,0.5 0.4,0.5 0.3,1.2 -0.2,1.4 -0.7,1.1 -0.6,0.2 -1,0.2 -1.5,-0.2 -0.9,-0.6 -0.9,-0.9 -0.3,-1.2 -0.2,-1.6 -0.3,-0.8 -1,-0.6 -0.9,-0.1 -1.1,0.2 -0.7,1 -0.3,1.6"
         stroke="#000000"
         stroke-width="1"
         id="path75" />
      <path
         d="m 735.5,95.2 2,-7.7 -5.5,1.3 m 3.5,6.4 L 733,85 m -5.2,10.4 0.6,0.9 1.2,0.2 0.7,-0.2 1,-0.7 0.3,-1.6 -0.2,-2.6 -0.6,-2.4 -0.8,-1.8 -1,-0.8 -1.2,-0.3 -0.3,0.1 -1,0.8 -0.5,1.1 v 1.6 l 0.1,0.5 0.7,1.3 1,0.8 1.2,0.2 h 0.4 l 0.9,-0.8 0.5,-1.1 V 89"
         stroke="#000000"
         stroke-width="1"
         id="path76" />
      <path
         d="m 702.8,112.4 -7.9,-0.4 2.4,5.1 m 5.5,-4.7 -9.4,4.5 m 12.6,2.3 -1.6,-3.4 -4.2,1.6 0.6,0.1 0.9,0.8 0.5,1 0.1,1.3 -0.6,1.1 -1.2,1 -0.9,0.4 -1.5,0.3 -1.2,-0.2 -1,-0.8 -0.5,-1 v -1.2 l 0.3,-0.6 0.7,-0.8"
         stroke="#000000"
         stroke-width="1"
         id="path77" />
      <path
         d="m 625.2,322.5 -3.7,0.6 0.3,4.5 0.3,-0.6 1,-0.6 1.1,-0.2 1.2,0.4 0.9,0.8 0.6,1.5 0.1,1 -0.2,1.5 -0.6,1.1 -1,0.6 -1.1,0.2 -1.2,-0.3 -0.4,-0.5 -0.6,-0.9 m 9.7,-9.9 -3.8,0.5 0.3,4.5 0.3,-0.6 1,-0.6 1.2,-0.2 1.1,0.4 0.9,0.9 0.6,1.4 0.1,1 -0.1,1.5 -0.6,1.1 -1.1,0.7 -1.1,0.1 -1.2,-0.3 -0.4,-0.5 -0.5,-0.9"
         stroke="#000000"
         stroke-width="1"
         id="path78" />
      <path
         d="m 573.8,254.5 h 3.7 l 0.4,-4.5 -0.3,0.5 -1.2,0.5 h -1.1 l -1.1,-0.5 -0.8,-1 -0.3,-1.5 v -1 l 0.4,-1.5 0.7,-1 1.2,-0.5 h 1.1 l 1.1,0.5 0.4,0.5 0.3,1 m -6.3,6.1 -0.8,0.5 -1.1,1.5 0.1,-10.5"
         stroke="#000000"
         stroke-width="1"
         id="path79" />
      <path
         d="m 566.35449,274.20167 -0.1,-3.7 -4.5,-0.3 0.5,0.3 0.5,1.2 v 1.1 l -0.5,1.1 -0.9,0.8 -1.5,0.4 h -1 l -1.5,-0.4 -1.1,-0.7 -0.5,-1.1 v -1.2 l 0.5,-1.1 0.5,-0.4 1,-0.4 m 8.6,7.1 v 4.1 l -4,-2.2 v 1.1 l -0.5,0.8 -0.5,0.4 -1.5,0.4 h -1 l -1.5,-0.4 -1,-0.7 -0.5,-1.1 v -1.2 l 0.5,-1.1 0.5,-0.4 1,-0.4"
         stroke="#000000"
         stroke-width="1"
         id="path80" />
      <path
         d="m 581.96181,304.01686 -3.2,-2 -2.7,3.5 0.5,-0.2 1.3,0.2 0.9,0.6 0.7,1.1 0.1,1.2 -0.5,1.5 -0.6,0.8 -1.1,1.1 -1.2,0.4 -1.2,-0.2 -0.9,-0.6 -0.7,-1 -0.1,-0.7 0.3,-1 m 9.2,-1.2 0.2,-0.4 0.9,-0.7 0.6,-0.2 h 0.9 l 1.3,0.8 0.3,0.8 0.1,0.7 -0.3,1 -0.5,0.9 -0.9,0.6 -1.4,0.8 -5.9,2.2 4.4,2.9"
         stroke="#000000"
         stroke-width="1"
         id="path81" />
      <path
         d="m 643.9,201.7 8,0.5 -2.4,-5.1 m -5.6,4.6 9.6,-4.4 m -12.9,-3 11.1,-1 m -8.9,5.8 -2.2,-4.8"
         stroke="#000000"
         stroke-width="1"
         id="path82" />
      <path
         d="m 579.6,218.5 -3.3,-1.8 -2.5,3.8 0.6,-0.3 1.2,0.1 1,0.5 0.7,1 0.2,1.2 -0.4,1.5 -0.4,0.9 -1.1,1.2 -1.1,0.5 -1.3,-0.1 -0.9,-0.6 -0.8,-0.9 -0.1,-0.7 0.2,-1 m 8.5,-2.4 0.9,-0.1 1.7,-0.7 -5.1,9.2"
         stroke="#000000"
         stroke-width="1"
         id="path83" />
      <path
         d="m 574.4,188.6 -6.6,-4.4 -0.5,5.5 m 7.1,-1.1 -10.4,-1.1 m 6,8.6 -1.4,-0.5 -0.9,-0.8 -0.4,-1.2 v -0.4 l 0.6,-1.1 1.1,-0.6 1.5,-0.2 h 0.5 l 1.5,0.5 0.9,0.9 0.4,1.1 -0.1,0.4 -0.6,1.1 -1,0.6 -2.1,0.2 -2.4,-0.2 -2.5,-0.6 -1.4,-0.9 -0.4,-1.2 0.1,-0.8 0.6,-1 1,-0.3"
         stroke="#000000"
         stroke-width="1"
         id="path84" />
      <path
         d="m 574.2,132.4 -7.4,-2.9 0.7,5.6 m 6.7,-2.7 -10.4,1.3 m 8.3,2.7 0.5,-0.1 1,0.3 0.6,0.3 0.6,0.7 0.2,1.5 -0.4,0.8 -0.5,0.4 -0.9,0.5 -1,0.1 -1.1,-0.2 -1.6,-0.6 -5.4,-3.1 0.7,5.2"
         stroke="#000000"
         stroke-width="1"
         id="path85" />
      <path
         d="m 726.8,503.9 -3.1,2 2.2,4 v -0.6 l 0.7,-1.1 0.9,-0.6 1.2,-0.2 1.2,0.4 1.1,1 0.6,0.9 0.5,1.4 v 1.3 l -0.7,1 -0.9,0.7 -1.3,0.2 -0.5,-0.2 -0.9,-0.7 m 6.6,-10.4 0.5,1.4 v 1.3 l -0.7,1 -0.3,0.2 -1.2,0.2 -1.2,-0.4 -1.1,-1 -0.3,-0.4 -0.5,-1.5 v -1.2 l 0.7,-1.1 0.3,-0.2 1.2,-0.2 1.2,0.4 1.4,1.5 1.4,2.1 1.1,2.3 0.2,1.6 -0.7,1.1 -0.6,0.4 -1.2,0.2 -0.9,-0.6"
         stroke="#000000"
         stroke-width="1"
         id="path86" />
      <path
         d="m 755.8,445.8 -3.9,-1.3 3.3,-3.1 -1,-0.3 -0.6,-0.7 -0.2,-0.6 0.1,-1.6 0.3,-0.9 0.8,-1.3 1,-0.8 1.2,-0.1 1.1,0.3 0.9,0.9 0.2,0.5 0.1,1.1 m -9.4,6 -3.9,-1.3 3.3,-3.1 -1,-0.4 -0.6,-0.7 -0.2,-0.6 0.1,-1.5 0.3,-1 0.8,-1.3 1,-0.7 1.2,-0.1 1.1,0.3 0.9,0.8 0.2,0.6 0.1,1.1"
         stroke="#000000"
         stroke-width="1"
         id="path87" />
      <path
         d="m 796.1,527.3 -1.9,-3.3 -4.1,2 h 0.6 l 1,0.8 0.6,0.9 0.1,1.3 -0.5,1.1 -1.1,1.1 -0.9,0.5 -1.5,0.4 -1.2,-0.2 -1,-0.7 -0.6,-1 -0.1,-1.2 0.3,-0.6 0.6,-0.8 m 13.1,5.8 -10.9,1.9 m 8.3,-6.5 2.6,4.6"
         stroke="#000000"
         stroke-width="1"
         id="path88" />
      <path
         d="m 819.90787,563.23596 -3.6,-0.9 -1.4,4.3 0.4,-0.4 1.2,-0.2 1.1,0.3 1,0.7 0.5,1.2 v 1.5 l -0.2,1 -0.7,1.3 -1,0.8 -1.2,0.3 -1.1,-0.3 -0.9,-0.7 -0.3,-0.6 -0.1,-1.1 m 12.2,-4.3 -0.1,-1 -1,-0.8 -0.7,-0.1 -1.2,0.2 -1.1,1.3 -0.9,2.3 -0.6,2.5 -0.1,2 0.5,1.1 1,0.8 0.3,0.1 1.3,-0.3 0.9,-0.8 0.7,-1.3 0.1,-0.5 v -1.6 l -0.5,-1.1 -1,-0.8 -0.3,-0.1 -1.2,0.3 -1,0.8 -0.7,1.4"
         stroke="#000000"
         stroke-width="1"
         id="path89" />
      <path
         d="m 811,450.8 -4.1,0.5 1.7,-4.2 -1.1,0.1 -0.8,-0.4 -0.5,-0.4 -0.5,-1.5 -0.2,-1 0.2,-1.5 0.6,-1.1 1.1,-0.6 1.1,-0.2 1.2,0.4 0.4,0.4 0.5,1 m -6.2,6.8 v 0.5 l -0.2,1.1 -0.3,0.5 -0.7,0.6 -1.5,0.2 -0.8,-0.4 -0.4,-0.5 -0.5,-0.9 -0.2,-1 0.3,-1 0.5,-1.6 3.1,-5.5 -5.2,0.7"
         stroke="#000000"
         stroke-width="1"
         id="path90" />
      <path
         d="m 847.1,567.2 0.6,-0.6 0.7,-1.8 2.6,10.2 m -0.8,-11 4,-1 -1.2,4.5 1.1,-0.3 0.8,0.3 0.5,0.4 0.7,1.4 0.3,0.9 v 1.6 l -0.5,1.1 -1,0.8 -1.1,0.3 -1.2,-0.3 -0.5,-0.4 -0.6,-0.8"
         stroke="#000000"
         stroke-width="1"
         id="path91" />
      <path
         d="m 849.8,434.6 0.2,0.5 0.1,1 -0.1,0.7 -0.4,0.7 -1.4,0.7 -0.9,-0.1 -0.5,-0.3 -0.8,-0.7 -0.5,-0.9 -0.1,-1.1 v -1.6 l 1.1,-6.2 -4.7,2.4 m -2.2,8.9 -0.4,-1.5 0.2,-1.2 0.8,-1 0.4,-0.1 1.2,-0.1 1.1,0.6 1,1.1 0.2,0.5 0.4,1.5 -0.2,1.2 -0.8,1 -0.4,0.1 -1.2,0.1 -1.1,-0.6 -1.2,-1.6 -1.2,-2.2 -0.7,-2.4 v -1.7 l 0.7,-0.9 0.7,-0.4 h 1.2 l 0.8,0.7"
         stroke="#000000"
         stroke-width="1"
         id="path92" />
      <path
         d="m 848.6,460.9 -0.6,-0.7 -1.6,-1 10.4,-1 m -11.1,-2.3 0.6,1 1.6,0.6 2.5,0.2 1.5,-0.2 2.5,-0.6 1.4,-0.9 0.4,-1.2 -0.1,-0.7 -0.6,-1.1 -1.6,-0.6 -2.5,-0.1 -1.5,0.1 -2.4,0.6 -1.5,0.9 -0.4,1.2 0.1,0.6 m -0.6,-6.3 0.6,1.1 1.6,0.6 2.5,0.1 1.5,-0.1 2.4,-0.6 1.5,-0.9 0.3,-1.2 v -0.7 l -0.6,-1.1 -1.6,-0.6 -2.5,-0.1 -1.5,0.1 -2.5,0.6 -1.4,0.9 -0.4,1.2 0.1,0.6"
         stroke="#000000"
         stroke-width="1"
         id="path93" />
      <path
         d="m 887.2,501.5 0.8,-1.3 0.9,-0.8 1.2,-0.3 0.4,0.1 1,0.8 0.5,1.1 v 1.6 l -0.1,0.5 -0.7,1.3 -1,0.8 -1.2,0.3 -0.4,-0.1 -1,-0.8 -0.5,-1.1 0.1,-2.1 0.6,-2.4 1,-2.3 1.1,-1.3 1.2,-0.2 0.7,0.1 1,0.8 0.1,1 m -11.6,2.9 0.8,-1.3 0.9,-0.8 1.2,-0.3 0.4,0.1 1,0.8 0.5,1.1 v 1.6 l -0.1,0.4 -0.7,1.4 -1,0.8 -1.2,0.2 h -0.4 l -1,-0.8 -0.5,-1.1 0.1,-2.1 0.6,-2.4 1,-2.3 1.1,-1.3 1.2,-0.3 0.7,0.2 1,0.8 0.1,1"
         stroke="#000000"
         stroke-width="1"
         id="path94" />
      <path
         d="m 898.6,547.9 0.4,1.5 -0.2,1.2 -0.8,1 -0.4,0.1 -1.2,0.1 -1.1,-0.6 -1,-1.1 -0.2,-0.5 -0.4,-1.5 0.2,-1.2 0.8,-1 0.3,-0.1 1.3,-0.1 1.1,0.5 1.2,1.7 1.2,2.2 0.8,2.4 v 1.7 l -0.8,0.9 -0.7,0.4 h -1.2 l -0.8,-0.7 m 5,-12.6 -3.4,1.7 1.7,4.2 0.2,-0.7 0.7,-0.9 1,-0.5 1.3,-0.1 1.1,0.6 1,1.1 0.4,0.9 0.4,1.5 -0.2,1.3 -0.8,0.9 -1,0.5 -1.2,0.1 -0.6,-0.3 -0.8,-0.7"
         stroke="#000000"
         stroke-width="1"
         id="path95" />
      <path
         d="m 950.2,508.7 -0.5,1.2 0.4,0.9 0.7,0.8 0.9,0.5 0.9,-0.2 1.4,-0.6 1.2,-0.4 1.2,0.2 1,0.5 1,1.1 0.4,1 0.1,0.6 -0.5,1.1 -1.1,1 -1.2,0.4 -0.6,-0.1 -0.9,-0.5 -1.1,-1.1 -0.4,-1 -0.1,-1.2 0.5,-1.1 0.8,-1.4 0.2,-0.9 -0.4,-1 -0.7,-0.7 -1,-0.5 -1.1,0.4 -1.3,1.2 m 4,-3.8 3,-2.8 1.1,4.5 0.8,-0.8 0.9,-0.1 0.6,0.1 1.3,0.8 0.7,0.8 0.8,1.3 0.1,1.3 -0.5,1.1 -0.8,0.8 -1.2,0.4 -0.6,-0.1 -0.9,-0.5"
         stroke="#000000"
         stroke-width="1"
         id="path96" />
      <path
         d="m 873.90899,438.0292 0.6,0.7 1.6,1 -10.5,0.8 m 11.1,2.6 -0.6,-1.1 -1.5,-0.6 -2.6,-0.2 -1.5,0.1 -2.4,0.6 -1.5,0.9 -0.4,1.1 0.1,0.8 0.6,1.1 1.5,0.6 2.6,0.2 1.5,-0.2 2.4,-0.5 1.5,-0.9 0.4,-1.2 -0.1,-0.5 m 0.5,6.2 -0.6,-1.1 -1.5,-0.6 -2.5,-0.2 -1.5,0.1 -2.5,0.6 -1.4,0.9 -0.4,1.2 v 0.7 l 0.6,1.1 1.6,0.6 2.5,0.2 1.5,-0.1 2.4,-0.6 1.5,-0.9 0.4,-1.1 -0.1,-0.6"
         stroke="#000000"
         stroke-width="1"
         id="path97" />
      <path
         d="m 894.1,476.3 -1,1.2 -1.1,0.6 -1.2,-0.1 -0.4,-0.1 -0.8,-1 -0.2,-1.2 0.3,-1.5 0.2,-0.5 1,-1.2 1.1,-0.5 h 1.2 l 0.4,0.2 0.8,0.9 0.2,1.2 -0.5,2 -1.1,2.2 -1.4,2.1 -1.3,1.1 -1.3,-0.1 -0.6,-0.3 -0.8,-0.9 v -1.1 m 12,-0.4 -1,1.2 -1.1,0.6 -1.3,-0.1 -0.3,-0.1 -0.8,-1 -0.3,-1.2 0.4,-1.5 0.2,-0.5 1,-1.1 1.1,-0.6 h 1.2 l 0.3,0.2 0.8,0.9 0.3,1.2 -0.5,2 -1.1,2.3 -1.4,2.1 -1.4,1 -1.2,-0.1 -0.7,-0.3 -0.8,-0.9 0.1,-1.1"
         stroke="#000000"
         stroke-width="1"
         id="path98" />
      <path
         d="m 992.8,450.9 1.3,0.8 0.6,1.1 0.1,1.2 -0.1,0.4 -0.9,0.9 -1.2,0.3 -1.5,-0.1 -0.5,-0.2 -1.2,-0.9 -0.7,-1 -0.1,-1.2 0.1,-0.4 0.9,-0.9 1.2,-0.4 2,0.4 2.3,0.8 2.2,1.2 1.2,1.3 0.1,1.2 -0.3,0.7 -0.8,0.9 h -1.1 m -5.7,-10.5 v 1.2 l 1.2,1.2 2.2,1.2 1.4,0.5 2.5,0.5 1.7,-0.2 0.8,-0.9 0.3,-0.7 -0.1,-1.2 -1.2,-1.2 -2.2,-1.2 -1.4,-0.5 -2.5,-0.5 -1.6,0.2 -0.9,0.8 -0.2,0.6"
         stroke="#000000"
         stroke-width="1"
         id="path99" />
      <path
         d="m 880.6,378.6 0.4,0.1 0.9,0.6 0.4,0.5 0.3,0.9 -0.4,1.4 -0.7,0.6 -0.6,0.2 -1,0.1 -1,-0.2 -0.9,-0.6 -1.2,-1.2 -3.9,-4.9 -1.3,5.1 m 8.4,8.8 -9.1,-6.4 m 10.5,1.3 -1.4,5.1"
         stroke="#000000"
         stroke-width="1"
         id="path100" />
      <path
         d="m 1027,348.2 0.8,-1.3 1,-0.7 1.3,-0.2 0.3,0.2 0.9,0.8 0.5,1.1 -0.1,1.6 -0.2,0.5 -0.8,1.3 -1,0.7 -1.2,0.1 -0.4,-0.1 -0.9,-0.8 -0.4,-1.2 0.2,-2 0.8,-2.4 1.1,-2.2 1.2,-1.2 1.2,-0.2 0.7,0.2 0.9,0.9 0.1,1 m -8,4.3 -0.2,0.5 -0.6,0.8 -0.5,0.4 -0.9,0.3 -1.4,-0.5 -0.6,-0.7 -0.2,-0.6 -0.1,-1.1 0.3,-0.9 0.7,-0.8 1.2,-1.3 5,-3.6 -5,-1.6"
         stroke="#000000"
         stroke-width="1"
         id="path101" />
      <path
         d="m 1027.6,376.6 1.1,1.1 0.5,1.2 -0.2,1.2 -0.1,0.3 -1.1,0.7 -1.2,0.1 -1.5,-0.4 -0.4,-0.3 -1.1,-1 -0.5,-1.2 0.2,-1.2 0.2,-0.3 1,-0.8 1.2,-0.1 1.9,0.7 2.2,1.3 1.9,1.6 0.9,1.4 -0.1,1.2 -0.4,0.7 -1,0.7 -1.1,-0.2 m -2.8,-8.2 -0.1,-0.9 -0.7,-1.7 9,5.3"
         stroke="#000000"
         stroke-width="1"
         id="path102" />
      <path
         d="m 892.3,323.9 -0.4,4.1 -3.7,-2.6 -0.1,1.1 -0.6,0.7 -0.6,0.3 -1.5,0.3 -1,-0.1 -1.4,-0.6 -1,-0.8 -0.3,-1.2 0.1,-1.1 0.6,-1.1 0.5,-0.3 1,-0.3 m 5.5,6.9 0.5,0.8 1.3,1.3 -10.4,-1"
         stroke="#000000"
         stroke-width="1"
         id="path103" />
      <path
         d="m 984.9,280.1 1.5,0.2 1.1,0.6 0.6,1.1 v 0.4 l -0.3,1.1 -0.9,0.9 -1.5,0.5 -0.5,0.1 -1.5,-0.2 -1.1,-0.7 -0.6,-1 -0.1,-0.4 0.4,-1.2 0.9,-0.8 2,-0.6 2.5,-0.3 2.5,0.1 1.6,0.6 0.6,1.1 0.1,0.7 -0.4,1.2 -1,0.5 m -9.7,-6.6 0.6,1.1 1,0.2 1,-0.1 1,-0.5 0.4,-0.8 0.3,-1.5 0.4,-1.2 0.9,-0.8 1,-0.5 1.5,-0.2 1,0.3 0.5,0.3 0.6,1.1 0.2,1.5 -0.4,1.1 -0.4,0.5 -1,0.5 -1.5,0.1 -1,-0.3 -1.1,-0.6 -0.6,-1.1 -0.7,-1.4 -0.5,-0.7 -1.1,-0.3 -1,0.2 -0.9,0.4 -0.4,1.2 0.2,1.7"
         stroke="#000000"
         stroke-width="1"
         id="path104" />
      <path
         d="m 964.3,223.9 h -0.9 l -1.8,0.7 5.7,-8.9 m -8.8,7.3 1.2,0.2 1.5,-0.9 1.7,-1.9 0.8,-1.2 1,-2.3 0.2,-1.7 -0.7,-1 -0.6,-0.4 -1.2,-0.2 -1.5,0.8 -1.7,1.9 -0.8,1.3 -1,2.3 -0.2,1.7 0.7,1 0.5,0.3 m -2,-4.1 h -0.9 l -1.8,0.7 5.7,-8.8"
         stroke="#000000"
         stroke-width="1"
         id="path105" />
      <path
         d="m 861.9,277.8 3.7,1.7 -3.7,2.7 1,0.5 0.5,0.7 0.1,0.6 -0.3,1.6 -0.4,0.9 -0.9,1.2 -1.1,0.6 -1.3,-0.1 -1,-0.4 -0.8,-1 -0.1,-0.6 v -1 m 11.5,-4.1 h -1.2 l -1.3,1 -1.4,2.1 -0.7,1.4 -0.7,2.4 0.1,1.7 0.8,0.9 0.7,0.3 1.2,0.1 1.3,-1.1 1.4,-2.1 0.6,-1.4 0.7,-2.4 v -1.7 l -0.8,-0.9 -0.5,-0.2"
         stroke="#000000"
         stroke-width="1"
         id="path106" />
      <path
         d="m 921.9,184.8 -0.8,-0.5 -1.8,-0.4 9.6,-4.3 m -11.3,1.3 0.9,0.8 1.7,0.1 2.4,-0.7 1.4,-0.6 2.1,-1.3 1.1,-1.3 v -1.3 l -0.3,-0.7 -0.9,-0.8 -1.7,-0.1 -2.5,0.7 -1.3,0.6 -2.2,1.4 -1,1.3 v 1.2 l 0.2,0.5 m -1.9,-4.3 -1.7,-3.8 4.6,0.5 -0.5,-1 0.2,-0.9 0.3,-0.6 1.2,-0.9 0.9,-0.4 1.5,-0.3 1.3,0.3 0.9,0.8 0.4,1 v 1.3 l -0.3,0.5 -0.7,0.8"
         stroke="#000000"
         stroke-width="1"
         id="path107" />
      <path
         d="m 851.1,162.7 -7.1,-8.6 m 9.8,4.1 -2.7,4.5 m -3.1,0.3 0.5,0.2 0.6,0.9 0.3,0.5 v 0.9 l -0.8,1.3 -0.8,0.4 -0.6,0.1 -1,-0.2 -0.9,-0.5 -0.7,-0.9 -0.9,-1.4 -2.3,-5.8 -2.7,4.6"
         stroke="#000000"
         stroke-width="1"
         id="path108" />
      <path
         d="m 885.2,144.8 9.1,-6.5 m -4.8,9.5 -4.3,-3 m -1.6,-1.1 -3.3,-2.4 4.1,-2 -0.9,-0.6 -0.3,-0.9 -0.1,-0.6 0.6,-1.4 0.6,-0.9 1.1,-1 1.2,-0.4 1.2,0.3 1,0.6 0.6,1.1 v 0.6 l -0.3,1"
         stroke="#000000"
         stroke-width="1"
         id="path109" />
      <path
         d="m 667.2,533.4 -0.6,-0.9 -1.3,-0.1 -0.7,0.3 -0.9,0.8 -0.2,1.7 0.4,2.5 0.8,2.3 1,1.8 1.1,0.7 1.2,0.1 0.3,-0.1 1,-0.8 0.3,-1.2 -0.1,-1.6 -0.1,-0.4 -0.9,-1.3 -1,-0.7 -1.2,-0.2 -0.4,0.2 -0.9,0.8 -0.4,1.2 0.1,1.5 m 4.9,-6.4 -0.1,-0.5 v -1 l 0.2,-0.6 0.6,-0.7 1.4,-0.5 0.9,0.2 0.5,0.4 0.7,0.8 0.3,1 -0.1,1 -0.2,1.7 -1.9,5.9 4.9,-1.7"
         stroke="#000000"
         stroke-width="1"
         id="path110" />
      <path
         d="m 587.8,518.8 1.9,-11 m 3.2,10.1 -5.1,0.9 m -3,0.5 1,-0.6 0.2,-1.1 -0.2,-1 -0.5,-0.9 -0.9,-0.4 -1.5,-0.2 -1.2,-0.3 -0.9,-0.9 -0.6,-0.9 -0.2,-1.5 0.2,-1 0.3,-0.6 1,-0.7 1.5,-0.2 1.2,0.3 0.4,0.4 0.6,0.9 0.2,1.5 -0.2,1.1 -0.6,1.1 -1,0.7 -1.4,0.7 -0.6,0.6 -0.2,1.1 0.1,1 0.6,0.9 1.2,0.3 1.6,-0.3"
         stroke="#000000"
         stroke-width="1"
         id="path111" />
      <path
         d="m 596.23707,522.81854 -7.8,7.9 m 3.1,-10.1 4.7,2.2 m 5.1,2.4 -3.4,-1.6 -2.2,3.9 0.5,-0.3 1.3,0.1 1,0.4 0.8,1 0.2,1.2 -0.3,1.5 -0.4,0.9 -1,1.2 -1.1,0.6 h -1.2 l -1,-0.5 -0.8,-0.9 -0.1,-0.6 v -1.1"
         stroke="#000000"
         stroke-width="1"
         id="path112" />
      <path
         d="m 643.5,436.5 3.4,1.5 2.2,-3.9 -0.5,0.3 h -1.3 l -1,-0.5 -0.8,-0.9 -0.3,-1.2 0.3,-1.6 0.4,-0.9 1,-1.2 1.1,-0.6 h 1.2 l 1,0.5 0.8,0.9 0.2,0.6 -0.1,1.1 m -10,4.8 -3.8,-1.7 3.7,-2.7 -1,-0.5 -0.5,-0.8 -0.1,-0.6 0.3,-1.5 0.4,-0.9 0.9,-1.2 1.1,-0.6 h 1.2 l 1.1,0.5 0.8,0.9 0.1,0.6 v 1"
         stroke="#000000"
         stroke-width="1"
         id="path113" />
      <path
         d="m 585,478.6 -5.2,9.8 m 0,-10.6 5.2,0.8 m 3,0.4 -1.2,0.3 -0.5,1 -0.1,1 0.2,1 0.7,0.6 1.4,0.7 1,0.7 0.6,1.1 0.3,1 -0.2,1.5 -0.5,0.9 -0.5,0.5 -1.2,0.3 -1.4,-0.2 -1.1,-0.7 -0.3,-0.5 -0.2,-1 0.2,-1.5 0.5,-1 0.9,-0.9 1.2,-0.3 1.5,-0.3 0.8,-0.4 0.5,-0.9 0.2,-1 -0.3,-1 -1,-0.7 -1.7,-0.2"
         stroke="#000000"
         stroke-width="1"
         id="path114" />
      <path
         d="m 572.1,428.1 -9.2,-6.4 m 10.6,1.3 -1.4,5.1 m -1.6,6 -9.2,-6.4 m 10.5,1.3 -1.3,5.1"
         stroke="#000000"
         stroke-width="1"
         id="path115" />
      <path
         d="m 589.3,399.2 7.6,-2.2 -3.9,-4 m -3.7,6.2 7.6,-7.3 m -10.5,-0.9 1.3,-0.8 1.3,-0.2 1.1,0.5 0.3,0.3 0.4,1.1 -0.2,1.3 -0.8,1.3 -0.4,0.3 -1.3,0.8 -1.3,0.1 -1.1,-0.4 -0.3,-0.3 -0.4,-1.2 0.2,-1.2 1.2,-1.6 1.8,-1.8 2.1,-1.4 1.6,-0.5 1.1,0.4 0.5,0.6 0.4,1.1 -0.4,1"
         stroke="#000000"
         stroke-width="1"
         id="path116" />
      <path
         d="m 801.8,262.7 -8.2,-7.5 m 10.2,2.7 -2,4.8 m -2.3,5.8 -8.3,-7.5 m 10.3,2.6 -2,4.9"
         stroke="#000000"
         stroke-width="1"
         id="path117" />
      <path
         d="m 759.6,227.9 7.8,-1.6 -3.6,-4.3 m -4.2,5.9 8,-6.7 m -8,2.9 -0.9,-0.2 -1.8,0.1 8,-6.8"
         stroke="#000000"
         stroke-width="1"
         id="path118" />
      <path
         d="m 754.9,255 2.5,7.5 3.9,-4 m -6.4,-3.5 7.6,7.2 m -2.7,-12.3 2.4,7.6 3.9,-4.1 m -6.3,-3.5 7.5,7.3"
         stroke="#000000"
         stroke-width="1"
         id="path119" />
      <path
         d="m 641.3,121.7 3.2,7.3 3.5,-4.4 m -6.7,-2.9 8.3,6.5 m -3.5,-12.3 -2.3,2.9 3.3,3.1 -0.2,-0.6 0.3,-1.2 0.7,-0.9 1.1,-0.5 h 1.2 l 1.4,0.6 0.8,0.7 1,1.2 0.3,1.2 -0.3,1.2 -0.7,0.9 -1.1,0.5 H 651 l -1,-0.3"
         stroke="#000000"
         stroke-width="1"
         id="path120" />
      <path
         d="m 639.7,91.4 -2.9,-2.9 4.4,-1.2 -0.8,-0.8 -0.1,-0.9 0.1,-0.6 0.8,-1.3 0.7,-0.7 1.3,-0.8 1.3,-0.2 1.1,0.5 0.8,0.8 0.4,1.1 -0.1,0.7 -0.4,0.9 m -11.9,0 1.1,0.5 1,-0.5 0.7,-0.7 0.5,-0.9 -0.2,-0.9 -0.7,-1.4 -0.4,-1.2 0.2,-1.2 0.4,-1 1.1,-1 1,-0.5 0.6,-0.1 1.2,0.5 1,1.1 0.4,1.1 -0.1,0.7 -0.4,0.9 -1.1,1.1 -1,0.4 -1.2,0.1 -1.2,-0.4 -1.4,-0.7 -0.8,-0.2 -1,0.4 -0.7,0.7 -0.5,1 0.4,1.1 1.2,1.2"
         stroke="#000000"
         stroke-width="1"
         id="path121" />
      <path
         d="m 564,77.9 0.8,4.1 -4.3,-1.4 0.2,1.1 -0.3,0.9 -0.4,0.4 -1.4,0.7 -1,0.3 -1.5,-0.1 -1.2,-0.5 -0.7,-1 -0.3,-1.1 0.3,-1.2 0.4,-0.5 0.9,-0.6 m 10.6,8.8 -0.8,-3.6 -4.4,0.6 0.5,0.3 0.8,0.9 0.2,1.1 -0.2,1.2 -0.9,1 -1.3,0.7 -1,0.2 h -1.6 l -1.1,-0.6 -0.7,-0.9 -0.3,-1.1 0.3,-1.3 0.4,-0.4 0.9,-0.6"
         stroke="#000000"
         stroke-width="1"
         id="path122" />
      <path
         d="m 588.8,67 -4.1,0.4 1.9,-4.2 -1.1,0.1 -0.8,-0.5 -0.4,-0.4 -0.5,-1.5 -0.1,-1 0.3,-1.5 0.6,-1.1 1.1,-0.6 1.1,-0.1 1.2,0.4 0.4,0.5 0.5,1 m -10.3,7.9 0.4,0.9 1.2,0.4 h 0.7 l 1.1,-0.6 0.6,-1.6 0.2,-2.5 -0.2,-2.5 -0.6,-2 -0.8,-0.9 -1.2,-0.4 h -0.3 l -1.1,0.6 -0.7,1.1 -0.2,1.5 v 0.5 l 0.5,1.5 0.9,0.9 1.1,0.4 h 0.4 l 1.1,-0.6 0.6,-1.1 0.3,-1.5"
         stroke="#000000"
         stroke-width="1"
         id="path123" />
      <path
         d="m 785.7,326.6 h -8 l 2.7,5 m 5.3,-5 -9.3,5 m 8.7,-0.5 0.5,-0.3 1,-0.1 0.6,0.1 0.8,0.4 0.8,1.3 -0.1,0.9 -0.3,0.6 -0.7,0.8 -0.9,0.5 -1,0.1 -1.7,0.1 -6.2,-1 2.5,4.7"
         stroke="#000000"
         stroke-width="1"
         id="path124" />
      <path
         d="m 860.02021,314.01011 -3.2,-2.6 4.3,-1.7 -0.9,-0.7 -0.3,-0.9 v -0.6 l 0.6,-1.4 0.7,-0.8 1.2,-0.9 1.2,-0.3 1.2,0.3 0.9,0.7 0.5,1.1 v 0.6 l -0.3,1 m -12.1,1.3 1.2,0.3 1.5,-0.7 1.9,-1.8 0.9,-1.1 1.3,-2.2 0.3,-1.7 -0.6,-1.1 -0.6,-0.4 -1.1,-0.3 -1.6,0.7 -1.8,1.7 -0.9,1.2 -1.3,2.2 -0.3,1.6 0.5,1.1 0.5,0.4"
         stroke="#000000"
         stroke-width="1"
         id="path125" />
      <path
         d="m 861.17303,328.31351 0.2,-4.1 3.9,2.4 v -1.1 l 0.6,-0.7 0.5,-0.4 1.5,-0.3 h 1 l 1.5,0.5 0.9,0.8 0.5,1.1 -0.1,1.1 -0.5,1.1 -0.5,0.4 -1,0.3 m -5.9,-6.5 -0.5,-0.8 -1.4,-1.2 10.5,0.4"
         stroke="#000000"
         stroke-width="1"
         id="path126" />
      <path
         d="m 804.3,375.1 1,4 -4.4,-1.2 0.3,1.1 -0.3,0.8 -0.4,0.5 -1.4,0.7 -1,0.3 h -1.5 l -1.2,-0.5 -0.7,-1 -0.3,-1.1 0.2,-1.2 0.4,-0.5 0.9,-0.6 m 10.9,8.5 -0.9,-3.6 -4.5,0.7 0.6,0.3 0.7,0.9 0.3,1.1 -0.2,1.2 -0.8,1 -1.4,0.7 -0.9,0.3 h -1.6 l -1.1,-0.5 -0.8,-1 -0.2,-1.1 0.2,-1.2 0.4,-0.5 0.8,-0.6"
         stroke="#000000"
         stroke-width="1"
         id="path127" />
      <path
         d="m 825.2,382.1 -0.3,-0.4 -0.2,-1.1 V 380 l 0.4,-0.8 1.2,-0.9 h 0.9 l 0.6,0.2 0.9,0.7 0.5,0.8 0.3,1 0.2,1.7 -0.3,6.2 4.3,-2.9 m -0.3,-10.6 -0.9,-0.7 -1.2,0.3 -0.6,0.4 -0.7,1 0.3,1.7 1.1,2.3 1.4,2 1.4,1.5 1.2,0.4 1.2,-0.2 0.3,-0.2 0.6,-1.1 0.1,-1.2 -0.5,-1.5 -0.3,-0.4 -1.2,-1 -1.1,-0.4 -1.3,0.2 -0.3,0.2 -0.6,1 -0.1,1.3 0.6,1.4"
         stroke="#000000"
         stroke-width="1"
         id="path128" />
      <path
         d="m 783.7,115.3 -3.4,1.4 1.4,4.3 0.1,-0.6 0.9,-0.9 1,-0.4 h 1.2 l 1.1,0.6 0.9,1.3 0.4,0.9 0.3,1.5 -0.3,1.2 -0.9,0.9 -1,0.5 -1.2,-0.1 -0.6,-0.3 -0.7,-0.8 m 6.2,-11.9 -0.7,7.9 5.1,-2.2 m -4.4,-5.7 4.1,9.7"
         stroke="#000000"
         stroke-width="1"
         id="path129" />
      <path
         d="m 833.5,51.3 -0.8,-7.9 -4.7,3.1 m 5.5,4.8 -5.8,-8.7 m -1.4,11.5 0.8,0.7 1.3,-0.2 0.6,-0.4 0.6,-1.1 -0.2,-1.6 -1,-2.3 -1.4,-2.1 -1.4,-1.5 -1.2,-0.4 -1.2,0.2 -0.3,0.2 -0.7,1.1 -0.1,1.2 0.5,1.5 0.3,0.4 1.2,1 1.1,0.4 1.3,-0.2 0.3,-0.2 0.6,-1 0.1,-1.3 -0.5,-1.4"
         stroke="#000000"
         stroke-width="1"
         id="path130" />
      <path
         d="m 874.3,31.7 6.5,-4.6 -5,-2.5 m -1.5,7.1 4.7,-9.4 m -9.4,7 1.3,0.1 1.3,-1.1 1.4,-2 0.7,-1.4 0.8,-2.4 v -1.7 l -0.8,-0.9 -0.7,-0.3 -1.2,-0.1 -1.4,1 -1.4,2.1 -0.7,1.3 -0.7,2.4 V 28 l 0.8,1 0.5,0.2"
         stroke="#000000"
         stroke-width="1"
         id="path131" />
      <path
         d="m 851.27471,80.898884 -3.2,2 2,4 0.1,-0.6 0.7,-1 0.9,-0.6 1.3,-0.1 1.1,0.4 1.1,1.1 0.5,0.9 0.5,1.5 -0.2,1.2 -0.7,1 -0.9,0.6 -1.3,0.1 -0.5,-0.2 -0.9,-0.7 m 4.5,-12.7 0.4,8 4.8,-2.9 m -5.2,-5.1 5.4,9"
         stroke="#000000"
         stroke-width="1"
         id="path132" />
      <path
         d="m 873,56.701674 6.7,4.2 0.4,-5.6 m -7.1,1.4 10.5,0.8 m -10,-5.7 0.4,1.1 1,0.5 h 1 l 1,-0.3 0.5,-0.7 0.7,-1.4 0.5,-1.1 1.1,-0.7 1,-0.3 1.5,0.1 1,0.5 0.5,0.4 0.4,1.1 -0.1,1.5 -0.6,1.1 -0.6,0.4 -1,0.3 -1.5,-0.1 -0.9,-0.5 -1,-0.8 -0.4,-1.2 -0.4,-1.5 -0.4,-0.8 -1,-0.4 -1,-0.1 -1,0.3 -0.6,1.1 -0.1,1.7"
         stroke="#000000"
         stroke-width="1"
         id="path133" />
    </g>
    <path
       d="m 793.5,309.7 v -0.8 l 0.6,-1.5 0.5,-0.7 1.2,-0.8 h 2.2 l 1.1,0.8 0.6,0.7 0.6,1.5 v 1.5 l -0.6,1.5 -1.1,2.3 -5.6,7.5 h 7.8"
       id="titre_2"
       stroke="#4b0082"
       style="stroke-width:1.90404" />
  </g>
  <g
     id="page_003"
     transform="rotate(90,1266.4565,309.16804)">
    <path
       d="m 1391.5,392.1 10.4,-68 -41.5,54.9 -35.3,-92.3 51.3,-35.7 64.4,-10.3 -62.2,-63.6 -38.6,-41.3 3.5,85.9 -16.9,24.4 -28.4,-35.7 -26.4,0.4 2.2,26.4 33.7,30.7 10.3,36.2 -45,50 -13.3,-60.5 -16.8,28.6 -22.2,-68.2 -23.2,-67.9 37.4,4.4 14,-26.2 21.1,5.6 -20.2,-8.4 0.4,-86 56.4,3.6 -20,-67 67,-2.2 11.7,43.7 47.7,48.1 -47.5,-88.8 96.7,37.3 74.2,20.7 55.6,31.9 -52.3,73.6 -43.7,-29.2 -18.6,84.8 46,-49 28.4,17.1 36.8,49.7 -29.8,81.5 -46.4,24.7 -25.5,-15.2 -28.9,22.8 -7.8,71.7 z m -189.8,-225.2 -19.3,60.7 1.4,74.2 69.7,55 -49.4,25.6 -36.2,-6.5 -36.1,-15.4 -55.5,-27.1 1.8,-65.9 11.4,-72.1 61.5,-0.5 -27.1,-55.3 2.2,-24.7 -48,-58.9 62.5,-12.2 44.3,-31.3 97.8,30.9 -75.7,69.45 z"
       id="coupes_003"
       stroke="#ff0000"
       stroke-width="1.27" />
    <path
       d="m 1440.8,240.7 36.6,-8.7 m 9.5,108.8 -46.1,-100.1 m 0,0 -27.8,-139 m 110.4,81.3 -36.5,157.8 m 36.5,-157.8 -11,173 m 39.4,-155.9 -39.4,155.9 m 39.4,-155.9 7,131.2 M 1340,135.8 l 73,-34.1 m -73,34.1 25.3,-82.2 M 1270,169.9 1365.3,53.6 m -95.3,116.3 36.6,-90.8 m 106.4,22.6 49.2,-51.5 m 0,0 33.8,97 m 40.4,-76.3 -40.4,76.3 m -94.1,176.9 38.9,-83.4 m 17.2,122.9 -56.1,-39.5 m -61.9,-188.3 -68.2,75 m 0,0 -1.8,-40.9 m 70,-34.1 -41.8,74.6 m -48.4,-48.9 56.8,-82.4 m -34.8,131.7 -36.9,-20.3 m 0,0 35.1,-20.6 m 1.8,40.9 -51.1,43.2 m 0,0 14.2,-63.5 m 39.1,46.7 -53.3,16.8 m 53.3,-16.8 -14.3,56.4 m 0,0 -39,-39.6 m 87,13.9 -34.7,86.2 m 128.9,-30 -25.5,-73.1 m 25.5,73.1 -76.8,-37.4 m 132.9,76.9 -66.5,28.5 M 1189.8,69.2 1078.1,56 m 62.5,-12.2 142.1,-0.4 m 0,0 -92.9,25.8 m 0,0 -63.7,45.7 m 80.7,-2 -80.7,2 m 80.7,-2 -82.9,26.7 m 82.9,-26.7 -55.8,82 m 31.4,32.7 -31.4,-32.7 m 31.4,32.7 -104.3,39.9 m 0,0 72.9,-72.6 m -19.2,165.6 -53.7,-93 m 105.7,34.3 -15.9,74.1 m 15.9,-74.1 20.3,80.6"
       id="plisM_003"
       stroke="#a52a2a"
       stroke-dasharray="4" />
    <path
       d="m 1457.1,234.3 4,4 m 0,-4 -4,4 m 4.8,50.4 4,4 m 0,-4 -4,4 m -37,-123.5 4,4 m 0,-4 -4,4 m 78.3,86.7 4,4 m 0,-4 -4,4 m 12.7,3.6 4,4 m 0,-4 -4,4 m 14.2,4.5 4,4 m 0,-4 -4,4 m 23.2,-16.3 4,4 m 0,-4 -4,4 m -178.8,-150.9 4,4 m 0,-4 -4,4 m -23.8,-28.1 4,4 m 0,-4 -4,4 m -35,13 4,4 m 0,-4 -4,4 m -29.4,8.8 4,4 m 0,-4 -4,4 m 149.3,-52.5 4,4 m 0,-4 -4,4 m 41.5,18.7 4,4 m 0,-4 -4,4 m 37.1,6.4 4,4 m 0,-4 -4,4 m -94.8,169.3 4,4 m 0,-4 -4,4 m 8.6,57.4 4,4 m 0,-4 -4,4 m -124.1,-174.5 4,4 m 0,-4 -4,4 m -35,13.1 4,4 m 0,-4 -4,4 m 48.2,-21.3 4,4 m 0,-4 -4,4 m -40.9,-56.8 4,4 m 0,-4 -4,4 m -24.9,76.4 4,4 m 0,-4 -4,4 m -0.9,-24.5 4,4 m 0,-4 -4,4 m -6.2,48.2 4,4 m 0,-4 -4,4 m -18.4,-14.2 4,4 m 0,-4 -4,4 m 19.5,19.4 4,4 m 0,-4 -4,4 m 19.6,15.8 4,4 m 0,-4 -4,4 m -26.7,4.4 4,4 m 0,-4 -4,4 m 50.1,33.2 4,4 m 0,-4 -4,4 m 98.8,-27.4 4,4 m 0,-4 -4,4 m -25.6,13.8 4,4 m 0,-4 -4,4 m 61.3,68.5 4,4 m 0,-4 -4,4 M 1132,60.6 l 4,4 m 0,-4 -4,4 m 77.7,-23 4,4 m 0,-4 -4,4 m 24.6,8.7 4,4 m 0,-4 -4,4 M 1156,90 l 4,4 m 0,-4 -4,4 m 8.5,17.9 4,4 m 0,-4 -4,4 m -1.1,8.3 4,4 m 0,-4 -4,4 m 13.5,23.7 4,4 m 0,-4 -4,4 m -12.2,53.3 4,4 m 0,-4 -4,4 m -36.4,32.4 4,4 m 0,-4 -4,4 m -15.7,-20.4 4,4 m 0,-4 -4,4 m -9.6,78.8 4,4 m 0,-4 -4,4 m 70.9,20.9 4,4 m 0,-4 -4,4 m 18.1,-0.8 4,4 m 0,-4 -4,4"
       display="none"
       id="marqueM_003"
       stroke="#a52a2a" />
    <path
       d="m 1477.4,232 9.5,108.8 m -108.3,-163.7 34.4,-75.4 83,45.5 96,-44.4 m -252,33 -70,34.1 m 95.3,-116.3 -58.7,25.5 47,-69.2 M 1458,363.6 1440.8,240.7 1496,147.2 m -152.5,74.5 -45.3,-11.3 m 9.5,57.5 -48,25.7 m -119.1,-249.8 49.2,25.4 17.4,43.6 m -5.5,54.1 -50.7,28 m -19.2,165.6 52,-58.7 -105.7,-34.3"
       id="plisV_003"
       stroke="#008000"
       stroke-dasharray="4, 1, 1, 1"
       stroke-width="1.27" />
    <path
       d="m 1480.1,284.4 4,4 m 0,-4 -4,4 m -13.7,-96.4 4,4 m 0,-4 -4,4 m -13.9,-73.5 4,4 m 0,-4 -4,4 m -58.7,10.9 4,4 m 0,-4 -4,4 m -90.8,9.5 4,4 m 0,-4 -4,4 m 31,-90.5 4,4 m 0,-4 -4,4 m -5.9,-25.9 4,4 m 0,-4 -4,4 m 119.3,253.6 4,4 m 0,-4 -4,4 m -128.5,-90 4,4 m 0,-4 -4,4 M 1542,123 l 4,4 m 0,-4 -4,4 m -260.3,151.8 4,4 m 0,-4 -4,4 m -118.5,-228.3 4,4 m 0,-4 -4,4 m 33.3,30.5 4,4 m 0,-4 -4,4 m -22.1,85.9 4,4 m 0,-4 -4,4 m -45.4,99.8 4,4 m 0,-4 -4,4 m 26.8,42.5 4,4 m 0,-4 -4,4"
       id="marqueV_003"
       stroke="#008000" />
    <g
       id="nums_003">
      <path
         d="m 1472.5084,197.37582 -1.1,0.2 -0.7,0.9 -0.2,0.8 0.3,1.2 1.3,1 2.3,0.9 2.5,0.6 h 2 l 1.1,-0.5 0.8,-1 0.1,-0.3 -0.3,-1.2 -0.8,-1 -1.4,-0.7 -0.5,-0.1 -1.5,0.1 -1.2,0.5 -0.7,1 -0.1,0.3 0.3,1.2 0.8,1 1.4,0.7 m -5.1,-9.6 0.3,1.2 1.3,1 2.3,0.9 1.5,0.3 2.5,0.2 1.6,-0.4 0.8,-1 0.1,-0.7 -0.2,-1.2 -1.3,-1.1 -2.4,-0.9 -1.4,-0.3 -2.6,-0.2 -1.6,0.4 -0.7,1 -0.1,0.6"
         stroke="#000000"
         stroke-width="1"
         id="path134" />
      <path
         d="m 1510.4,214.8 1,0.4 1.1,-0.5 0.5,-0.5 0.4,-1.2 -0.6,-1.6 -1.5,-2 -1.8,-1.7 -1.8,-1.1 -1.2,-0.1 -1.1,0.5 -0.3,0.2 -0.4,1.2 0.2,1.2 0.8,1.3 0.4,0.4 1.4,0.7 1.2,0.2 1.1,-0.5 0.3,-0.3 0.4,-1.2 -0.2,-1.2 -0.8,-1.3 m 0.4,9.7 -2.8,3 -1.4,-4.3 -0.8,0.8 -0.8,0.2 -0.7,-0.1 -1.3,-0.7 -0.7,-0.7 -0.9,-1.3 -0.2,-1.3 0.4,-1.1 0.8,-0.8 1.1,-0.5 0.6,0.1 1,0.4"
         stroke="#000000"
         stroke-width="1"
         id="path135" />
      <path
         d="m 1505.2,335.7 -3.2,-2 -2.7,3.7 0.6,-0.2 1.2,0.1 1,0.6 0.7,1 0.2,1.2 -0.5,1.5 -0.5,0.9 -1.1,1.1 -1.2,0.5 -1.2,-0.2 -0.9,-0.6 -0.8,-1 v -0.6 l 0.2,-1 m 13,-0.5 0.1,-1 -0.7,-1 -0.6,-0.4 -1.2,-0.1 -1.4,0.9 -1.6,1.9 -1.3,2.2 -0.7,1.9 0.1,1.2 0.7,1 0.3,0.2 1.3,0.2 1.1,-0.5 1.1,-1.1 0.3,-0.4 0.4,-1.5 -0.1,-1.3 -0.7,-1 -0.4,-0.2 -1.2,-0.1 -1.1,0.5 -1.1,1.1"
         stroke="#000000"
         stroke-width="1"
         id="path136" />
      <path
         d="m 1532.6,202.9 -0.2,1 0.7,1 0.7,0.4 1.2,0.1 1.4,-0.8 1.6,-2 1.3,-2.1 0.7,-1.9 -0.1,-1.3 -0.7,-1 -0.3,-0.2 -1.3,-0.1 -1.1,0.4 -1.1,1.1 -0.3,0.4 -0.4,1.5 0.1,1.3 0.7,1 0.3,0.2 1.3,0.1 1.1,-0.4 1.1,-1.1 m -12.6,0.5 3.2,2 2.6,-3.7 -0.5,0.2 -1.3,-0.1 -0.9,-0.6 -0.7,-1 -0.2,-1.3 0.5,-1.4 0.5,-0.9 1.1,-1.1 1.2,-0.4 1.2,0.1 0.9,0.6 0.8,1 v 0.6 l -0.2,1.1"
         stroke="#000000"
         stroke-width="1"
         id="path137" />
      <path
         d="m 1527.6,332.3 -3.3,1.8 1.8,4.1 0.1,-0.6 0.7,-1 1,-0.5 1.2,-0.1 1.2,0.6 1,1.1 0.5,0.9 0.4,1.5 -0.2,1.2 -0.8,1 -1,0.5 -1.2,0.1 -0.6,-0.3 -0.8,-0.7 m 3.4,-11.4 -0.8,1 0.1,1.1 0.5,0.8 0.8,0.7 0.9,0.1 1.6,-0.2 1.2,-0.1 1.1,0.5 0.8,0.7 0.7,1.3 0.2,1.1 -0.1,0.6 -0.8,1 -1.3,0.7 -1.2,0.1 -0.6,-0.3 -0.8,-0.7 -0.7,-1.3 -0.1,-1.1 0.2,-1.2 0.7,-1 1.1,-1.1 0.4,-0.8 -0.1,-1.1 -0.5,-0.9 -0.8,-0.7 -1.2,0.1 -1.5,0.8"
         stroke="#000000"
         stroke-width="1"
         id="path138" />
      <path
         d="m 1561.2,233.4 -0.6,0.9 0.3,1.2 0.4,0.6 1.1,0.6 1.7,-0.3 2.2,-1.2 2,-1.5 1.4,-1.5 0.3,-1.2 -0.2,-1.2 -0.3,-0.3 -1,-0.6 h -1.3 l -1.4,0.6 -0.4,0.3 -1,1.2 -0.3,1.2 0.2,1.2 0.2,0.3 1.1,0.6 h 1.3 l 1.4,-0.6 m -7.3,-2 -0.8,-0.3 h -1.9 l 8.4,-6.3"
         stroke="#000000"
         stroke-width="1"
         id="path139" />
      <path
         d="m 1561.7,287.8 h -1.1 l -0.8,0.9 -0.3,0.7 0.1,1.2 1.1,1.2 2.3,1.2 2.3,0.9 2,0.3 1.2,-0.3 0.9,-0.9 0.1,-0.4 -0.1,-1.2 -0.7,-1 -1.2,-0.9 -0.5,-0.2 -1.6,-0.1 -1.1,0.3 -0.9,0.9 -0.1,0.4 v 1.2 l 0.7,1 1.3,0.9 m -3.7,-10.2 0.1,1.2 1.1,1.2 2.2,1.3 1.5,0.5 2.4,0.5 1.7,-0.2 0.9,-0.9 0.2,-0.7 -0.1,-1.2 -1.1,-1.3 -2.2,-1.2 -1.4,-0.5 -2.5,-0.5 -1.7,0.2 -0.8,0.9 -0.2,0.5"
         stroke="#000000"
         stroke-width="1"
         id="path140" />
      <path
         d="m 1413.7,196.8 0.3,-0.3 1,-0.5 h 0.6 l 0.9,0.1 1.1,1.1 0.1,0.9 -0.1,0.6 -0.4,1 -0.7,0.7 -1,0.4 -1.6,0.5 -6.2,0.8 3.7,3.8 m 7,-4.3 0.3,-0.3 1,-0.5 h 0.6 l 0.9,0.1 1,1.1 0.2,0.9 -0.1,0.6 -0.4,1 -0.8,0.7 -0.9,0.4 -1.6,0.5 -6.2,0.8 3.6,3.8"
         stroke="#000000"
         stroke-width="1"
         id="path141" />
      <path
         d="m 1367.2,146.9 0.5,-0.9 -0.4,-1.2 -0.6,-0.6 -1.1,-0.4 -1.6,0.4 -2.1,1.5 -1.8,1.7 -1.2,1.6 -0.2,1.3 0.4,1.1 0.2,0.3 1.2,0.5 1.2,-0.2 1.4,-0.7 0.3,-0.4 0.9,-1.3 0.2,-1.2 -0.4,-1.1 -0.3,-0.3 -1.1,-0.5 -1.2,0.1 -1.4,0.8 m 10.5,1 -1.1,-0.5 -1,0.4 -0.7,0.7 -0.5,1 0.2,0.9 0.6,1.4 0.4,1.2 -0.2,1.2 -0.5,0.9 -1.1,1.1 -1,0.4 h -0.6 l -1.1,-0.4 -1,-1.1 -0.4,-1.2 0.1,-0.6 0.4,-1 1.1,-1 1,-0.4 1.3,-0.1 1.1,0.4 1.4,0.8 0.9,0.2 1,-0.4 0.7,-0.7 0.5,-0.9 -0.4,-1.2 -1.2,-1.2"
         stroke="#000000"
         stroke-width="1"
         id="path142" />
      <path
         d="m 1380.2,88.1 10.1,-4.7 m -6.4,8.4 -3.7,-3.7 m -1.4,-1.4 -2.9,-2.9 4.5,-1.2 -0.8,-0.8 -0.2,-0.9 0.1,-0.6 0.8,-1.3 0.7,-0.7 1.3,-0.8 1.3,-0.2 1.1,0.4 0.8,0.8 0.4,1.2 -0.1,0.6 -0.4,1"
         stroke="#000000"
         stroke-width="1"
         id="path143" />
      <path
         d="m 1497.7,72.8 0.1,1.1 0.9,0.8 0.7,0.2 1.2,-0.2 1.2,-1.3 1,-2.3 0.7,-2.4 0.2,-2 -0.5,-1.2 -1,-0.8 -0.3,-0.1 -1.2,0.2 -1,0.8 -0.8,1.3 -0.1,0.5 -0.1,1.6 0.5,1.1 0.9,0.8 0.4,0.1 1.2,-0.2 1,-0.7 0.8,-1.4 m -7.7,2.6 -0.1,0.4 -0.6,0.9 -0.5,0.4 -0.9,0.3 -1.4,-0.4 -0.6,-0.7 -0.3,-0.6 -0.1,-1.1 0.3,-0.9 0.6,-0.9 1.2,-1.2 4.9,-3.9 -5,-1.4"
         stroke="#000000"
         stroke-width="1"
         id="path144" />
      <path
         d="m 1350.5,42.3 -0.7,-0.6 -1.7,-0.7 10.1,-2.7 m -11.3,-0.5 0.7,0.9 1.7,0.3 2.5,-0.2 1.4,-0.4 2.4,-1 1.2,-1.2 0.2,-1.2 -0.2,-0.7 -0.8,-0.9 -1.6,-0.4 -2.5,0.3 -1.5,0.4 -2.3,1 -1.2,1.1 -0.2,1.2 0.1,0.6 m -1.2,-4.6 -1.1,-4 4.5,1.2 -0.3,-1.1 0.3,-0.9 0.3,-0.5 1.4,-0.7 1,-0.3 h 1.5 l 1.2,0.5 0.7,0.9 0.3,1.1 -0.2,1.2 -0.3,0.5 -0.9,0.6"
         stroke="#000000"
         stroke-width="1"
         id="path145" />
      <path
         d="m 1305.7,36.7 0.5,-0.2 1,0.1 0.6,0.2 0.7,0.6 0.4,1.4 -0.2,0.9 -0.4,0.5 -0.9,0.6 -0.9,0.3 -1.1,-0.1 -1.6,-0.2 -5.9,-2.2 1.5,5 m 11.6,1.9 -7.8,-1.6 1.6,5.4 m 6.2,-3.8 -10,3"
         stroke="#000000"
         stroke-width="1"
         id="path146" />
      <path
         d="m 1328.5,22.2 -0.8,0.5 -1,1.5 -0.4,-10.5 m -3.1,11 1.2,-0.5 0.7,-1.6 0.2,-2.5 v -1.5 l -0.5,-2.5 -0.8,-1.4 -1.1,-0.5 h -0.8 l -1.1,0.6 -0.7,1.5 -0.3,2.5 0.1,1.5 0.5,2.5 0.8,1.5 1.1,0.4 h 0.6 m -4.8,-2.3 0.1,0.5 -0.4,1 -0.3,0.5 -0.8,0.5 -1.5,0.1 -0.7,-0.5 -0.4,-0.5 -0.4,-1 -0.1,-1 0.4,-1 0.7,-1.5 3.6,-5.2 -5.3,0.2"
         stroke="#000000"
         stroke-width="1"
         id="path147" />
      <path
         d="m 1461.8,346.1 0.3,-0.9 -0.1,-1.8 6.5,8.2 m -5.2,-9.7 3.2,-2.6 0.7,4.6 0.9,-0.7 0.9,-0.1 0.6,0.2 1.2,0.9 0.7,0.8 0.6,1.4 v 1.2 l -0.5,1.1 -0.9,0.7 -1.2,0.3 -0.6,-0.1 -0.9,-0.6"
         stroke="#000000"
         stroke-width="1"
         id="path148" />
      <path
         d="m 1290.4932,197.91854 -3.6,10.6 m -1.7,-10.5 5.3,-0.1 m 5.7,1.4 -0.4,-1 -1.1,-0.5 -0.8,0.1 -1.1,0.5 -0.7,1.5 -0.3,2.5 v 2.5 l 0.4,2 0.8,1 1.1,0.5 0.4,-0.1 1.1,-0.5 0.7,-1 0.4,-1.5 v -0.5 l -0.4,-1.5 -0.8,-1 -1.1,-0.5 -0.4,0.1 -1.1,0.5 -0.8,1 -0.3,1.5"
         stroke="#000000"
         stroke-width="1"
         id="path149" />
      <path
         d="m 1328.1,180.3 10.6,3.3 m -10.4,2 -0.2,-5.3 m 2.3,-1.2 -0.6,-0.7 -1.5,-1 10.5,-0.5"
         stroke="#000000"
         stroke-width="1"
         id="path150" />
      <path
         d="m 1319.3539,220.03652 0.6,-0.9 -0.3,-1.2 -0.5,-0.6 -1.1,-0.6 -1.6,0.4 -2.2,1.2 -2,1.6 -1.3,1.5 -0.3,1.2 0.3,1.2 0.2,0.3 1.1,0.6 1.3,-0.1 1.4,-0.6 0.4,-0.3 0.9,-1.2 0.3,-1.2 -0.3,-1.2 -0.2,-0.3 -1.1,-0.6 h -1.3 l -1.4,0.7 m 9.6,6.4 -1.4,0.6 h -1.3 l -1.1,-0.5 -0.2,-0.3 -0.3,-1.2 0.3,-1.2 0.9,-1.3 0.4,-0.3 1.4,-0.6 h 1.3 l 1.1,0.5 0.2,0.3 0.3,1.2 -0.3,1.2 -1.3,1.6 -2,1.5 -2.2,1.3 -1.6,0.3 -1.1,-0.5 -0.5,-0.6 -0.3,-1.2 0.6,-0.9"
         stroke="#000000"
         stroke-width="1"
         id="path151" />
      <path
         d="m 1323.682,228.74606 6.5,9 m -9.5,-4.7 3,-4.3 m 2,-2.9 -0.2,1.3 0.8,1.4 1.8,1.8 1.2,0.8 2.3,1.1 1.7,0.3 1,-0.7 0.5,-0.6 0.2,-1.2 -0.8,-1.5 -1.9,-1.7 -1.2,-0.9 -2.3,-1.1 -1.6,-0.2 -1.1,0.6 -0.3,0.5"
         stroke="#000000"
         stroke-width="1"
         id="path152" />
      <path
         d="m 1263.3,153.8 v -1 l -0.9,-0.9 -0.6,-0.3 h -1.3 l -1.2,1.1 -1.4,2.2 -0.9,2.3 -0.4,2 0.3,1.2 0.8,0.9 0.4,0.1 h 1.2 l 1.1,-0.6 0.9,-1.3 0.2,-0.4 0.2,-1.6 -0.3,-1.2 -0.8,-0.9 -0.4,-0.1 h -1.2 l -1.1,0.6 -0.9,1.3 m 12.9,-2.2 -7.5,8.3 m 2.7,-10.3 4.8,2"
         stroke="#000000"
         stroke-width="1"
         id="path153" />
      <path
         d="m 1263.7,117.6 -10.4,-3.8 m 10.5,-1.5 -0.1,5.3 m -2.3,1 0.5,0.8 1.5,1.1 h -10.5"
         stroke="#000000"
         stroke-width="1"
         id="path154" />
      <path
         d="m 1279.1,89.7 0.4,1 1,0.5 0.8,0.1 1.2,-0.4 0.8,-1.5 0.5,-2.5 0.2,-2.4 -0.3,-2.1 -0.6,-1 -1.1,-0.6 h -0.4 l -1.2,0.4 -0.8,1 -0.4,1.4 -0.1,0.5 0.3,1.6 0.7,1 1.1,0.6 h 0.4 l 1.1,-0.4 0.8,-1 0.5,-1.4 m -8.4,6.4 1.2,-0.4 0.4,-1 0.1,-1 -0.3,-1 -0.7,-0.5 -1.5,-0.6 -1.1,-0.6 -0.7,-1 -0.3,-1.1 0.1,-1.5 0.4,-0.9 0.4,-0.5 1.2,-0.4 1.5,0.1 1.1,0.5 0.3,0.5 0.3,1.1 -0.1,1.5 -0.4,0.9 -0.8,1 -1.2,0.4 -1.5,0.4 -0.8,0.5 -0.4,0.9 -0.1,1 0.3,1.1 1.1,0.5 1.7,0.1"
         stroke="#000000"
         stroke-width="1"
         id="path155" />
      <path
         d="m 1256.6815,177.84495 0.1,1.1 0.9,0.7 0.7,0.2 1.3,-0.2 1.1,-1.2 1,-2.3 0.6,-2.4 0.2,-2.1 -0.5,-1.1 -0.9,-0.8 -0.4,-0.1 -1.2,0.2 -1,0.8 -0.8,1.3 -0.1,0.5 v 1.5 l 0.5,1.2 0.9,0.8 0.4,0.1 1.2,-0.2 1,-0.8 0.7,-1.3 m -12.5,3.8 6.3,-9.1 m -1.3,10.5 -5,-1.4"
         stroke="#000000"
         stroke-width="1"
         id="path156" />
      <path
         d="m 1250.8624,185.81011 -7.5,-8.3 m 10,3.6 -2.5,4.7 m -1.6,3 0.1,-1.2 -1,-1.4 -2,-1.5 -1.3,-0.7 -2.4,-0.8 -1.7,-0.1 -0.9,0.8 -0.4,0.6 -0.1,1.3 1,1.3 2,1.5 1.3,0.7 2.4,0.9 h 1.7 l 1,-0.7 0.2,-0.5"
         stroke="#000000"
         stroke-width="1"
         id="path157" />
      <path
         d="m 1558.9,99.6 3.2,1.9 2.6,-3.7 -0.6,0.2 -1.2,-0.1 -1,-0.6 -0.7,-0.9 -0.2,-1.3 0.5,-1.5 0.5,-0.8 1,-1.2 1.2,-0.4 1.2,0.1 1,0.5 0.7,1 0.1,0.7 -0.2,1 m -12.3,-1.3 1.1,-1.1 1.1,-0.5 1.3,0.1 0.3,0.2 0.7,1 0.2,1.3 -0.5,1.4 -0.2,0.5 -1.1,1.1 -1.1,0.5 -1.2,-0.1 -0.4,-0.2 -0.7,-1 -0.2,-1.3 0.7,-1.9 1.3,-2.2 1.5,-1.9 1.4,-1 1.3,0.2 0.6,0.3 0.7,1 -0.1,1.1"
         stroke="#000000"
         stroke-width="1"
         id="path158" />
      <path
         d="m 1524,149.4 -3.1,-2.1 -2.8,3.5 0.6,-0.2 1.2,0.2 0.9,0.7 0.7,1 v 1.2 l -0.5,1.5 -0.5,0.8 -1.2,1.1 -1.2,0.4 -1.2,-0.2 -0.9,-0.6 -0.7,-1.1 V 155 l 0.2,-1 m 11.7,-2.5 -1.2,-0.2 -0.9,0.6 -0.6,0.8 -0.2,1.1 0.3,0.8 1,1.3 0.7,1 v 1.2 l -0.2,1.1 -0.8,1.2 -0.9,0.7 -0.6,0.2 -1.2,-0.2 -1.2,-0.9 -0.7,-1 v -0.6 l 0.2,-1.1 0.8,-1.2 0.9,-0.6 1.2,-0.5 1.2,0.2 1.5,0.5 h 0.9 l 0.9,-0.7 0.5,-0.8 0.3,-1 -0.7,-1.1 -1.4,-0.9"
         stroke="#000000"
         stroke-width="1"
         id="path159" />
      <path
         d="m 1553.6,133 -2.1,3.1 3.4,2.9 -0.2,-0.6 0.3,-1.2 0.6,-0.9 1.1,-0.6 1.2,-0.1 1.5,0.6 0.8,0.6 1,1.1 0.4,1.2 -0.3,1.2 -0.6,1 -1.1,0.6 h -0.6 l -1,-0.3 m -0.3,-14.3 6.4,9.2 m -9.4,-4.9 3,-4.3"
         stroke="#000000"
         stroke-width="1"
         id="path160" />
      <path
         d="m 1260.173,228.67359 10.8,2.8 m -10.4,2.4 -0.4,-5.2 m 1,-5.8 -1,0.4 -0.4,1.2 0.1,0.8 0.6,1 1.5,0.7 2.6,0.1 2.5,-0.2 1.9,-0.5 0.9,-0.9 0.4,-1.1 v -0.4 l -0.6,-1.1 -1,-0.7 -1.6,-0.2 h -0.5 l -1.4,0.5 -1,0.9 -0.4,1.1 0.1,0.4 0.6,1.1 1,0.7 1.6,0.2"
         stroke="#000000"
         stroke-width="1"
         id="path161" />
      <path
         d="m 1283.6,262.5 -0.4,1 0.5,1.2 0.6,0.5 1.1,0.3 1.6,-0.6 2,-1.6 1.6,-1.8 1.1,-1.7 0.1,-1.3 -0.5,-1.1 -0.2,-0.3 -1.2,-0.3 -1.2,0.2 -1.3,0.8 -0.4,0.4 -0.7,1.4 -0.1,1.2 0.5,1.1 0.3,0.3 1.1,0.4 1.3,-0.2 1.2,-0.9 m -10.4,-4.8 1.3,-0.8 1.2,-0.3 1.2,0.4 0.3,0.3 0.5,1.1 -0.2,1.2 -0.7,1.4 -0.3,0.4 -1.3,0.8 -1.2,0.3 -1.2,-0.4 -0.3,-0.3 -0.5,-1.1 0.1,-1.3 1.1,-1.7 1.7,-1.8 1.9,-1.6 1.6,-0.6 1.2,0.4 0.5,0.5 0.5,1.1 -0.4,1"
         stroke="#000000"
         stroke-width="1"
         id="path162" />
      <path
         d="m 1278,319.9 0.9,-0.6 0.3,-1.2 -0.2,-0.7 -0.7,-1 -1.7,-0.5 -2.5,0.2 -2.4,0.6 -1.9,0.7 -0.8,1 -0.3,1.2 0.1,0.4 0.7,1 1.2,0.5 h 1.5 l 0.5,-0.1 1.4,-0.7 0.8,-0.9 0.3,-1.2 -0.1,-0.4 -0.7,-1 -1.2,-0.5 h -1.5 m 5.8,4.8 0.6,0.6 1.7,0.8 -10.2,2.2"
         stroke="#000000"
         stroke-width="1"
         id="path163" />
      <path
         d="m 1302.9095,296.14718 -0.9,0.6 -0.2,1.2 0.2,0.7 0.8,1 1.7,0.3 2.5,-0.3 2.4,-0.7 1.8,-0.9 0.8,-1 0.1,-1.2 -0.1,-0.4 -0.7,-0.9 -1.2,-0.5 -1.6,0.1 -0.4,0.1 -1.4,0.8 -0.7,1 -0.2,1.2 0.1,0.3 0.8,1 1.1,0.4 h 1.6 m -9.6,-7.7 7.8,1.7 -1.6,-5.4 m -6.2,3.7 10.1,-2.9"
         stroke="#000000"
         stroke-width="1"
         id="path164" />
      <path
         d="m 1293.6938,313.99721 -1,-0.4 -1.2,0.5 -0.5,0.6 -0.3,1.2 0.6,1.5 1.6,2 1.8,1.7 1.8,1 1.2,0.1 1.1,-0.5 0.3,-0.2 0.4,-1.2 -0.3,-1.2 -0.8,-1.3 -0.4,-0.4 -1.4,-0.7 -1.2,-0.1 -1.1,0.5 -0.3,0.3 -0.4,1.2 0.3,1.2 0.8,1.3 m -0.6,-9.8 2.7,-3 1.5,4.3 0.8,-0.8 0.8,-0.2 h 0.6 l 1.4,0.8 0.8,0.6 0.8,1.3 0.3,1.2 -0.4,1.2 -0.8,0.8 -1.1,0.5 h -0.6 l -1,-0.4"
         stroke="#000000"
         stroke-width="1"
         id="path165" />
      <path
         d="m 1241.3994,281.98146 0.9,-0.7 0.1,-1.2 -0.3,-0.7 -0.8,-1 -1.6,-0.2 -2.5,0.4 -2.4,0.8 -1.8,1 -0.7,1 -0.1,1.2 0.1,0.4 0.8,0.9 1.2,0.4 1.5,-0.1 0.5,-0.2 1.3,-0.8 0.7,-1 0.2,-1.2 -0.2,-0.4 -0.8,-0.9 -1.2,-0.4 -1.5,0.1 m 8.5,8.3 0.8,-0.6 0.2,-1.3 -0.3,-0.7 -0.8,-0.9 -1.7,-0.2 -2.5,0.4 -2.3,0.8 -1.8,0.9 -0.7,1.1 -0.2,1.2 0.2,0.3 0.8,1 1.2,0.4 1.5,-0.2 0.5,-0.1 1.3,-0.8 0.7,-1.1 0.1,-1.2 -0.1,-0.3 -0.8,-1 -1.2,-0.4 -1.5,0.2"
         stroke="#000000"
         stroke-width="1"
         id="path166" />
      <path
         d="m 1241.7461,299.21686 -1.1,-0.2 -1,0.8 -0.4,0.6 -0.1,1.2 0.9,1.4 2,1.6 2.1,1.3 2,0.7 1.2,-0.2 1,-0.7 0.2,-0.3 0.1,-1.2 -0.5,-1.2 -1.1,-1.1 -0.4,-0.2 -1.5,-0.5 -1.2,0.2 -1,0.7 -0.2,0.3 -0.1,1.3 0.4,1.1 1.1,1.1 m -0.7,-12.6 -1.9,3.2 3.7,2.6 -0.2,-0.6 0.1,-1.2 0.6,-1 1,-0.7 1.2,-0.1 1.5,0.4 0.9,0.5 1.1,1.1 0.5,1.2 -0.2,1.2 -0.5,1 -1,0.7 h -0.7 l -1,-0.1"
         stroke="#000000"
         stroke-width="1"
         id="path167" />
      <path
         d="m 1220.2,214.8 0.9,-0.7 0.1,-1.2 -0.3,-0.8 -0.8,-0.9 -1.7,-0.2 -2.5,0.5 -2.3,0.8 -1.8,1 -0.7,1 -0.1,1.2 0.1,0.4 0.8,0.9 1.2,0.4 1.6,-0.1 0.4,-0.2 1.3,-0.8 0.7,-1.1 0.2,-1.2 -0.2,-0.4 -0.8,-0.9 -1.2,-0.4 -1.5,0.2 m 8.6,8.2 0.8,-0.7 0.1,-1.2 -0.2,-0.7 -0.9,-0.9 -1.6,-0.2 -2.5,0.4 -2.4,0.8 -1.7,1 -0.8,1 -0.1,1.3 0.2,0.3 0.8,0.9 1.2,0.4 1.5,-0.1 0.5,-0.2 1.3,-0.8 0.7,-1 0.1,-1.3 -0.1,-0.3 -0.8,-0.9 -1.2,-0.4 -1.6,0.1"
         stroke="#000000"
         stroke-width="1"
         id="path168" />
      <path
         d="m 1216.6,200.7 0.2,1 1.1,0.6 0.7,0.1 1.2,-0.3 0.9,-1.5 0.7,-2.4 0.3,-2.5 -0.1,-2 -0.7,-1.1 -1,-0.6 -0.4,-0.1 -1.2,0.4 -0.8,0.9 -0.6,1.5 v 0.5 l 0.2,1.5 0.6,1.1 1,0.6 h 0.4 l 1.2,-0.3 0.9,-0.9 0.5,-1.5 m -10.8,5.9 4.6,-6.5 -5.6,-0.7 m 1,7.2 1.3,-10.4"
         stroke="#000000"
         stroke-width="1"
         id="path169" />
      <path
         d="m 1414.8,256.4 -0.7,0.6 -0.9,1.7 -1.6,-10.4 m -4.1,10.2 0.5,0.9 1.2,0.3 0.7,-0.1 1,-0.7 0.5,-1.6 v -2.5 l -0.4,-2.5 -0.7,-1.9 -0.9,-0.9 -1.1,-0.3 -0.4,0.1 -1.1,0.7 -0.5,1.1 -0.2,1.5 0.1,0.5 0.6,1.4 0.9,0.9 1.2,0.3 0.4,-0.1 1,-0.6 0.6,-1.1 0.1,-1.6"
         stroke="#000000"
         stroke-width="1"
         id="path170" />
      <path
         d="m 1359.5,279.5 0.6,-1.1 -0.2,-1 -0.6,-0.8 -0.9,-0.6 h -0.9 l -1.5,0.4 -1.2,0.3 -1.2,-0.4 -0.9,-0.6 -0.8,-1.3 -0.3,-1 v -0.6 l 0.7,-1.1 1.2,-0.8 1.2,-0.3 0.6,0.2 0.9,0.6 0.9,1.3 0.2,1 v 1.3 l -0.7,1 -0.9,1.3 -0.3,0.8 0.2,1 0.6,0.9 0.9,0.6 1.2,-0.3 1.4,-0.9"
         stroke="#000000"
         stroke-width="1"
         id="path171" />
      <path
         d="m 1372.3,346.1 1,1.2 0.4,1.2 -0.3,1.2 -0.2,0.3 -1.1,0.6 h -1.3 l -1.4,-0.6 -0.4,-0.3 -1,-1.2 -0.3,-1.2 0.3,-1.2 0.2,-0.3 1.1,-0.6 h 1.2 l 1.8,0.9 2,1.6 1.8,1.8 0.7,1.5 -0.2,1.2 -0.5,0.6 -1.1,0.6 -1,-0.3 m 0.2,-12.7 -1,-0.3 -1.1,0.6 -0.5,0.6 -0.3,1.2 0.8,1.5 1.8,1.8 2,1.5 1.8,0.9 h 1.2 l 1.1,-0.6 0.2,-0.3 0.3,-1.2 -0.3,-1.2 -1,-1.2 -0.4,-0.3 -1.4,-0.6 h -1.3 l -1.1,0.6 -0.2,0.3 -0.3,1.2 0.4,1.2 1,1.2"
         stroke="#000000"
         stroke-width="1"
         id="path172" />
      <path
         d="m 1354,323.8 -0.9,-0.8 h -1 l -1,0.3 -0.8,0.7 -0.2,0.9 0.1,1.6 -0.1,1.2 -0.6,1.1 -0.8,0.7 -1.4,0.5 h -1.1 l -0.6,-0.1 -0.9,-0.9 -0.5,-1.4 0.1,-1.2 0.3,-0.6 0.8,-0.7 1.4,-0.5 h 1.1 l 1.2,0.3 0.8,0.9 1,1.2 0.8,0.5 h 1 l 1,-0.3 0.8,-0.7 v -1.3 l -0.6,-1.5 m 1.9,9.1 0.8,-0.7 0.1,-1.2 -0.3,-0.7 -0.8,-0.9 -1.7,-0.1 -2.5,0.5 -2.3,0.9 -1.7,1.1 -0.7,1 -0.1,1.2 0.2,0.4 0.8,0.9 1.2,0.3 1.6,-0.2 0.4,-0.2 1.3,-0.8 0.7,-1.1 V 332 l -0.1,-0.4 -0.9,-0.9 -1.2,-0.3 -1.5,0.2"
         stroke="#000000"
         stroke-width="1"
         id="path173" />
      <path
         d="m 1407,358.6 -1.4,-0.5 -0.9,-0.9 -0.3,-1.2 v -0.4 l 0.7,-1 1.1,-0.6 1.5,-0.2 0.5,0.1 1.4,0.6 0.9,0.9 0.3,1.2 v 0.4 l -0.7,1 -1.1,0.6 h -2 l -2.5,-0.3 -2.4,-0.8 -1.4,-0.9 -0.3,-1.2 0.1,-0.8 0.7,-1 1,-0.2 m 5.9,11.2 1,-0.2 0.7,-1.1 0.1,-0.7 -0.3,-1.2 -1.4,-1 -2.4,-0.7 -2.5,-0.4 -2,0.1 -1.1,0.6 -0.7,1 v 0.4 l 0.3,1.2 0.9,0.8 1.4,0.6 0.5,0.1 1.5,-0.1 1.1,-0.6 0.7,-1.1 0.1,-0.3 -0.4,-1.2 -0.8,-0.9 -1.5,-0.6"
         stroke="#000000"
         stroke-width="1"
         id="path174" />
      <path
         d="m 1443.8,399.5 1.4,0.5 0.9,0.9 0.4,1.1 v 0.4 l -0.6,1.1 -1.1,0.6 -1.5,0.2 h -0.5 l -1.5,-0.6 -0.9,-0.8 -0.4,-1.2 0.1,-0.4 0.6,-1 1.1,-0.7 2,-0.1 2.5,0.2 2.4,0.7 1.4,0.9 0.4,1.2 -0.1,0.7 -0.6,1.1 -1,0.2 m -7.9,-11 -0.4,3.7 4.4,0.9 -0.4,-0.5 -0.4,-1.1 0.1,-1.2 0.7,-1 1,-0.7 1.6,-0.2 1,0.1 1.4,0.6 0.9,0.8 0.4,1.2 -0.1,1.1 -0.6,1.1 -0.6,0.3 -1,0.3"
         stroke="#000000"
         stroke-width="1"
         id="path175" />
      <path
         d="m 1425.2,399.9 -1.2,-0.3 -0.9,0.6 -0.6,0.8 -0.2,1 0.3,0.9 0.9,1.3 0.6,1 v 1.3 l -0.3,1 -0.9,1.2 -0.9,0.6 -0.6,0.2 -1.2,-0.3 -1.2,-0.9 -0.6,-1.1 v -0.6 l 0.3,-1 0.9,-1.2 0.9,-0.6 1.2,-0.4 1.2,0.3 1.5,0.5 h 0.9 l 0.9,-0.5 0.6,-0.9 0.3,-1 -0.7,-1.1 -1.3,-1 m 7,5.1 -7.1,3.4 4.5,3.4 m 2.6,-6.8 -6.2,8.5"
         stroke="#000000"
         stroke-width="1"
         id="path176" />
      <path
         d="m 1400.8,49.7 -11,1.7 m 8.5,-6.3 2.5,4.6 m -1.3,2.8 0.4,-0.2 1.1,-0.2 0.6,0.1 0.8,0.5 0.7,1.3 -0.1,0.9 -0.3,0.5 -0.7,0.8 -0.9,0.5 -1,0.2 h -1.7 l -6.2,-0.9 2.5,4.6"
         stroke="#000000"
         stroke-width="1"
         id="path177" />
      <path
         d="m 1409.9,44.7 7.3,-8.4 m -2.4,10.3 -4.9,-1.9 m -5.3,-2 3.5,1.4 2,-4.1 -0.5,0.3 -1.3,0.1 -1,-0.4 -0.9,-0.9 -0.3,-1.2 0.2,-1.5 0.3,-1 0.9,-1.2 1.1,-0.7 h 1.2 l 1.1,0.4 0.8,0.8 0.2,0.6 v 1.1"
         stroke="#000000"
         stroke-width="1"
         id="path178" />
      <path
         d="m 1131.223,58.325852 -4.1,0.8 1.5,-4.4 -1.1,0.2 -0.9,-0.3 -0.4,-0.5 -0.7,-1.4 -0.2,-0.9 0.1,-1.6 0.6,-1.1 1,-0.7 1.1,-0.2 1.2,0.2 0.4,0.5 0.6,0.9 m -9.7,10.5 1.7,-11 m 3.5,10 -5.2,1"
         stroke="#000000"
         stroke-width="1"
         id="path179" />
      <path
         d="m 1233,73.8 -0.3,-0.4 -0.4,-1 -0.1,-0.6 0.2,-0.9 1.1,-1 0.9,-0.1 0.6,0.1 1,0.5 0.7,0.7 0.4,1 0.4,1.6 0.6,6.2 3.9,-3.5 m -4.8,-9.8 -0.5,1.1 0.4,1 0.7,0.7 0.9,0.5 0.9,-0.1 1.4,-0.7 1.2,-0.4 1.2,0.3 1,0.5 1,1.1 0.4,1 0.1,0.6 -0.5,1.1 -1.1,1 -1.2,0.4 -0.6,-0.1 -1,-0.5 -1,-1.1 -0.4,-1 -0.1,-1.2 0.5,-1.2 0.8,-1.3 0.2,-0.9 -0.4,-1 -0.7,-0.7 -1,-0.5 -1.1,0.4 -1.3,1.1"
         stroke="#000000"
         stroke-width="1"
         id="path180" />
      <path
         d="m 1109.3,72.5 2.6,3.2 -4.5,0.8 0.7,0.8 0.1,0.9 -0.2,0.6 -0.9,1.3 -0.8,0.6 -1.4,0.7 h -1.2 l -1.1,-0.6 -0.7,-0.8 -0.4,-1.2 0.2,-0.6 0.5,-0.9 m 11.9,1 -1.1,-0.5 -1.1,0.3 -0.7,0.7 -0.6,0.9 0.1,0.9 0.6,1.4 0.3,1.2 -0.3,1.2 -0.5,1 -1.2,0.9 -1,0.4 h -0.6 l -1.1,-0.6 -1,-1.1 -0.3,-1.2 0.1,-0.6 0.6,-0.9 1.1,-1 1.1,-0.3 1.2,-0.1 1.1,0.6 1.3,0.8 0.9,0.3 1,-0.4 0.8,-0.6 0.5,-0.9 -0.3,-1.2 -1.1,-1.3"
         stroke="#000000"
         stroke-width="1"
         id="path181" />
      <path
         d="m 1177.6736,33.5354 -3.4,2.3 -0.4,-4.5 -1,0.6 h -0.9 l -0.5,-0.2 -1.2,-1 -0.6,-0.8 -0.6,-1.4 0.1,-1.3 0.6,-1 0.9,-0.7 1.2,-0.2 0.6,0.2 0.9,0.6 m -6.3,10.6 -0.6,-1.5 v -1.2 l 0.7,-1.1 0.3,-0.2 1.2,-0.2 1.2,0.4 1.1,1 0.3,0.4 0.6,1.4 v 1.3 l -0.7,1 -0.3,0.2 -1.2,0.3 -1.2,-0.4 -1.4,-1.4 -1.5,-2.1 -1.1,-2.2 -0.3,-1.7 0.7,-1 0.6,-0.5 1.2,-0.2 0.9,0.6"
         stroke="#000000"
         stroke-width="1"
         id="path182" />
      <path
         d="m 1236.1,40.5 -0.2,0.5 -0.7,0.8 -0.5,0.4 -0.8,0.2 -1.5,-0.4 -0.5,-0.7 -0.2,-0.6 -0.1,-1.1 0.3,-0.9 0.7,-0.9 1.1,-1.2 5.1,-3.6 -5,-1.6 m -6.1,9.1 1.3,-0.2 0.6,-0.8 0.3,-0.9 v -1.1 l -0.6,-0.7 -1.3,-0.9 -0.9,-0.9 -0.4,-1.1 -0.1,-1.1 0.5,-1.4 0.6,-0.9 0.5,-0.3 1.3,-0.2 1.4,0.5 0.9,0.8 0.2,0.6 0.1,1 -0.5,1.5 -0.6,0.8 -1,0.7 -1.3,0.2 h -1.5 l -0.9,0.3 -0.7,0.8 -0.3,0.9 0.1,1.1 0.9,0.8 1.6,0.5"
         stroke="#000000"
         stroke-width="1"
         id="path183" />
      <path
         d="m 1139,125.6 -6.6,-4.3 -0.5,5.6 m 7.1,-1.3 -10.4,-0.9 m 9.9,6.2 -0.4,-1.2 -1.5,-0.8 -2.4,-0.6 -1.5,-0.2 -2.5,0.2 -1.6,0.6 -0.6,1.1 -0.1,0.7 0.4,1.2 1.5,0.8 2.4,0.6 1.5,0.2 2.5,-0.2 1.6,-0.6 0.6,-1.1 0.1,-0.5"
         stroke="#000000"
         stroke-width="1"
         id="path184" />
      <path
         d="m 1148.6,158.5 -7.9,-0.2 2.4,5 m 5.5,-4.8 -9.4,4.7 m 8.5,-0.9 0.8,0.4 1.8,0.4 -9.4,4.6"
         stroke="#000000"
         stroke-width="1"
         id="path185" />
      <path
         d="m 1190.1,148.61066 0.4,-4.1 3.7,2.6 0.1,-1.1 0.6,-0.7 0.5,-0.3 1.6,-0.3 1,0.1 1.4,0.5 1,0.9 0.3,1.1 -0.1,1.2 -0.6,1 -0.5,0.4 -1,0.2 m -3.9,-11.7 1.4,0.5 0.9,0.9 0.4,1.1 v 0.4 l -0.6,1.1 -1.1,0.6 -1.5,0.3 -0.5,-0.1 -1.5,-0.5 -0.9,-0.8 -0.4,-1.2 0.1,-0.4 0.6,-1 1,-0.7 2.1,-0.2 2.4,0.2 2.5,0.7 1.4,0.8 0.4,1.2 -0.1,0.8 -0.6,1 -1,0.3"
         stroke="#000000"
         stroke-width="1"
         id="path186" />
      <path
         d="m 1177.3,198.3 1.3,-3.9 3.1,3.4 0.3,-1.1 0.7,-0.6 0.6,-0.2 1.6,0.1 0.9,0.3 1.3,0.8 0.8,1.1 0.1,1.2 -0.4,1 -0.8,1 -0.6,0.2 h -1 m -4.6,-13.5 8.8,6.7 m -10.4,-1.7 1.6,-5"
         stroke="#000000"
         stroke-width="1"
         id="path187" />
      <path
         d="m 1169.5,270.5 -0.1,-4.1 4,2.1 v -1.1 l 0.5,-0.8 0.5,-0.3 1.5,-0.4 1,-0.1 1.5,0.4 1,0.7 0.5,1.1 0.1,1.2 -0.5,1.1 -0.5,0.4 -1,0.4 m -7.2,-10.8 -1,0.4 -0.5,1.1 v 0.7 l 0.6,1.2 1.5,0.7 2.5,0.3 h 2.5 l 2,-0.5 0.9,-0.7 0.5,-1.2 V 262 l -0.5,-1.1 -1,-0.8 -1.5,-0.3 h -0.5 l -1.5,0.4 -1,0.8 -0.5,1.1 v 0.4 l 0.6,1.1 1,0.7 1.5,0.4"
         stroke="#000000"
         stroke-width="1"
         id="path188" />
      <path
         d="m 1150,353.4 3.8,1.6 -3.6,2.8 1,0.4 0.5,0.8 0.2,0.6 -0.3,1.5 -0.4,0.9 -0.9,1.3 -1.1,0.6 h -1.2 l -1,-0.4 -0.9,-0.9 -0.1,-0.6 v -1.1 m 8.9,-2.8 0.2,-0.4 0.7,-0.8 0.6,-0.3 0.8,-0.2 1.4,0.6 0.5,0.8 0.2,0.6 -0.1,1.1 -0.4,0.9 -0.7,0.7 -1.3,1.1 -5.4,3.2 4.8,2"
         stroke="#000000"
         stroke-width="1"
         id="path189" />
      <path
         d="m 1182.2,367 0.1,-0.4 0.5,-1 0.5,-0.4 0.8,-0.4 1.5,0.3 0.6,0.6 0.3,0.6 0.2,1 -0.2,1 -0.5,0.9 -1,1.4 -4.6,4.3 5.2,0.9 m 7.2,-5.8 -0.7,1.4 -0.9,0.8 -1.2,0.3 -0.4,-0.1 -1,-0.6 -0.5,-1.2 -0.1,-1.5 v -0.5 l 0.7,-1.4 0.9,-0.9 1.2,-0.3 0.4,0.1 1,0.7 0.5,1.1 0.1,2.1 -0.5,2.4 -0.8,2.4 -1,1.4 -1.2,0.2 -0.7,-0.1 -1,-0.7 -0.2,-1"
         stroke="#000000"
         stroke-width="1"
         id="path190" />
      <path
         d="m 1216.3,341.8 -0.3,0.4 -0.9,0.5 -0.6,0.2 -0.9,-0.1 -1.2,-0.9 -0.3,-0.9 0.1,-0.6 0.3,-1 0.6,-0.8 0.9,-0.5 1.5,-0.8 6.1,-1.6 -4.1,-3.2 m -10.1,3.5 -0.3,1 0.6,1.1 0.5,0.5 1.2,0.3 1.6,-0.7 1.8,-1.7 1.6,-2 0.9,-1.8 v -1.3 l -0.5,-1 -0.3,-0.3 -1.2,-0.3 -1.2,0.3 -1.3,1 -0.3,0.4 -0.6,1.4 v 1.2 l 0.5,1.1 0.3,0.3 1.2,0.3 1.2,-0.4 1.3,-0.9"
         stroke="#000000"
         stroke-width="1"
         id="path191" />
      <path
         d="m 1218.4,362.3 -0.2,-0.4 -0.2,-1.1 0.2,-0.6 0.4,-0.8 1.3,-0.7 0.9,0.1 0.6,0.3 0.8,0.7 0.4,0.9 0.2,1 v 1.7 l -1.1,6.2 4.7,-2.4 m 0.7,-12.2 1.5,11 m -6.1,-8.6 4.6,-2.4"
         stroke="#000000"
         stroke-width="1"
         id="path192" />
      <path
         d="m 1105.2,332.2 3.7,1.8 -3.8,2.6 1,0.5 0.5,0.8 0.1,0.6 -0.4,1.5 -0.4,0.9 -1,1.2 -1.1,0.6 -1.2,-0.1 -1,-0.5 -0.8,-0.9 -0.1,-0.6 0.1,-1.1 m 10.1,-4.5 3.7,1.8 -3.8,2.6 1,0.5 0.5,0.8 0.1,0.6 -0.3,1.5 -0.4,0.9 -1,1.2 -1.1,0.6 -1.3,-0.1 -1,-0.4 -0.8,-1 -0.1,-0.6 0.1,-1.1"
         stroke="#000000"
         stroke-width="1"
         id="path193" />
      <path
         d="m 1091.1,295.1 -0.1,4.1 -3.9,-2.4 -0.1,1.1 -0.5,0.8 -0.5,0.3 -1.5,0.4 -1,-0.1 -1.5,-0.4 -1,-0.7 -0.4,-1.2 v -1.1 l 0.5,-1.1 0.5,-0.4 1,-0.3 m 8.4,10.6 -6.9,-4 -0.2,5.7 m 7.1,-1.7 -10.5,-0.3"
         stroke="#000000"
         stroke-width="1"
         id="path194" />
      <path
         d="m 1098,230.8 -6.4,-4.8 -0.8,5.6 m 7.2,-0.8 -10.4,-1.6 m 9.7,5.3 -0.7,4.1 -3.6,-2.9 -0.1,1.2 -0.7,0.6 -0.5,0.3 -1.5,0.2 -1,-0.2 -1.5,-0.6 -0.8,-0.9 -0.3,-1.2 0.1,-1.1 0.7,-1 0.6,-0.3 1,-0.2"
         stroke="#000000"
         stroke-width="1"
         id="path195" />
      <path
         d="m 1123.3,209 3.7,-7.1 -5.7,0.1 m 2,7 -0.1,-10.5 m -6.9,10.5 3.7,-7 -5.7,0.1 m 2,6.9 -0.1,-10.5"
         stroke="#000000"
         stroke-width="1"
         id="path196" />
    </g>
    <path
       d="m 1407.6,160.8 h 6.2 l -3.4,6 h 1.7 l 1.2,0.7 0.5,0.8 0.6,2.2 v 1.5 l -0.6,2.3 -1.1,1.5 -1.7,0.7 h -1.7 l -1.7,-0.7 -0.5,-0.8 -0.6,-1.5"
       id="titre_3"
       stroke="#4b0082"
       style="stroke-width:1.90404" />
    <path
       d="m 1141.3321,217.22071 -5.7,10.5 h 8.5 m -2.8,-10.5 v 15.8"
       id="titre_4"
       stroke="#4b0082"
       style="stroke-width:1.90404" />
  </g>
</svg>
