<?xml version="1.0" encoding="UTF-8" standalone="no"?>
<svg
   height="841.88977pt"
   viewBox="0 0 532.99998 754.00001"
   width="595.27557pt"
   version="1.1"
   id="svg40"
   sodipodi:docname="Etoile5.svg"
   inkscape:version="1.3 (0e150ed6c4, 2023-07-21)"
   xmlns:inkscape="http://www.inkscape.org/namespaces/inkscape"
   xmlns:sodipodi="http://sodipodi.sourceforge.net/DTD/sodipodi-0.dtd"
   xmlns="http://www.w3.org/2000/svg"
   xmlns:svg="http://www.w3.org/2000/svg">
  <defs
     id="defs40" />
  <sodipodi:namedview
     id="namedview40"
     pagecolor="#ffffff"
     bordercolor="#000000"
     borderopacity="0.25"
     inkscape:showpageshadow="2"
     inkscape:pageopacity="0.0"
     inkscape:pagecheckerboard="0"
     inkscape:deskcolor="#d1d1d1"
     inkscape:document-units="mm"
     showgrid="false"
     inkscape:zoom="0.76034707"
     inkscape:cx="397.18704"
     inkscape:cy="560.92805"
     inkscape:window-width="1920"
     inkscape:window-height="1057"
     inkscape:window-x="-8"
     inkscape:window-y="-8"
     inkscape:window-maximized="1"
     inkscape:current-layer="svg40" />
  <style
     type="text/css"
     id="style1"><![CDATA[
			path {
				fill: none;
			}
		]]></style>
  <g
     id="page_001"
     transform="translate(-1.160486,2.9763018)">
    <path
       d="M 369.3,247.9 477.3,393.5 330.6,499.9 292,480.5 388.8,410.2 301.8,348 196.7,495.7 50.2,389.1 l 6.5,-42.7 96.8,70.4 32.2,-102 L 12.8,260.5 68.9,88.1 111.5,81.2 74.5,194.9 181.4,194.1 179.7,12.9 360.9,13 380.7,51.4 261.1,51.3 294.9,152.7 466.7,95 522.6,267.4 492.2,298.1 455.3,184.3 Z m -173.6,372 -38.9,18.8 -56.7,-90.7 119.6,-4.1 -29.9,-31.2 68.8,-81.9 40.8,112.4 20.4,-38 99.2,40 -94.3,73.6 42.5,7.7 -7.5,106.7 -99.1,-67 5.8,42.8 -103.7,25.9 z"
       id="coupes_001"
       stroke="#ff0000"
       stroke-width="1.27"
       sodipodi:nodetypes="cccccccccccccccccccccccccccccccccccccccccc" />
    <path
       d="m 301.8,348 175.5,45.5 -88.5,16.7 M 294.9,152.7 179.7,12.9 261.1,51.3 360.9,13 m 8.4,234.9 97.4,-152.9 -11.4,89.3 m -273.9,9.8 -168.6,66.4 61.7,-65.6 m 79,221.9 43.2,78.9 -11,-180.9 m 139,304 35,114.4 m -99.1,-67 -97.9,68.7 m 33,-115 -95.6,-71.9 m 119.6,-4.1 38.9,-113.1 m 40.8,112.4 119.6,2"
       id="plisM_001"
       stroke="#a52a2a"
       stroke-dasharray="4"
       sodipodi:nodetypes="cccccccccccccccccccccccccc" />
    <path
       d="M 522.6,267.4 455.3,184.3 M 68.9,88.1 74.5,194.9 m -24.3,194.2 103.3,27.7 m 177.1,83.1 58.2,-89.7"
       id="plisV_001"
       stroke="#008000"
       stroke-dasharray="4, 1, 1, 1"
       stroke-width="1.27" />
    <path
       d="m 487,223.9 4,4 m 0,-4 -4,4 m -417.3,-88.4 4,4 m 0,-4 -4,4 m 30.1,257.4 4,4 m 0,-4 -4,4 m 257.9,48.2 4,4 m 0,-4 -4,4"
       id="marqueV_001"
       stroke="#008000" />
    <g
       id="nums_001">
      <path
         d="m 348.3,367.2 h 0.9 l 1.8,-0.5 -6.1,8.5 m 11.4,-5.2 -9.2,6.4 m 4.9,-9.4 4.3,3"
         stroke="#000000"
         stroke-width="1"
         id="path1" />
      <path
         d="m 415.8,329.4 -0.4,0.3 -1.1,0.3 h -0.6 l -0.8,-0.3 -0.9,-1.2 -0.1,-0.9 0.2,-0.6 0.6,-0.9 0.8,-0.6 1,-0.3 1.7,-0.3 h 6.2 l -3.1,-4.2"
         stroke="#000000"
         stroke-width="1"
         id="path2" />
      <path
         d="m 192,102 0.5,0.7 1.5,1.1 -10.5,0.1"
         stroke="#000000"
         stroke-width="1"
         id="path3" />
      <path
         d="m 268.6,110 -0.7,-0.6 -1.7,-0.6 9.9,-3.3 m -12.1,-1.9 1.2,3.5 4.4,-1 -0.6,-0.2 -0.8,-0.9 -0.4,-1.1 0.2,-1.2 0.7,-1.1 1.3,-0.8 0.9,-0.3 1.6,-0.1 1.1,0.4 0.9,0.9 0.3,1.1 -0.1,1.2 -0.3,0.5 -0.9,0.7"
         stroke="#000000"
         stroke-width="1"
         id="path4" />
      <path
         d="m 386,136.7 0.9,-0.9 0.2,-1.6 -0.4,-2.5 -0.5,-1.4 -1.2,-2.3 -1.2,-1.2 -1.2,-0.1 -0.7,0.3 -0.9,0.8 -0.2,1.7 0.4,2.4 0.5,1.5 1.1,2.2 1.2,1.2 1.2,0.1 0.6,-0.2"
         stroke="#000000"
         stroke-width="1"
         id="path5" />
      <path
         d="m 402,209.6 0.3,-0.9 v -1.9 l 6.3,8.5 m -1,-10.9 -0.9,-0.6 -1.2,0.3 -0.6,0.4 -0.6,1.1 0.3,1.6 1.1,2.3 1.5,2 1.5,1.4 1.2,0.3 1.2,-0.2 0.3,-0.3 0.6,-1 v -1.3 l -0.6,-1.4 -0.3,-0.4 -1.1,-1 -1.2,-0.3 -1.2,0.2 -0.3,0.2 -0.7,1.1 v 1.3 l 0.6,1.4"
         stroke="#000000"
         stroke-width="1"
         id="path6" />
      <path
         d="m 104,274.6 -5.7,5.6 5.4,1.6 m 0.3,-7.2 -3.1,10"
         stroke="#000000"
         stroke-width="1"
         id="path7" />
      <path
         d="m 132.5,205.9 -0.7,0.5 -1.2,1.5 v -10.5 m -6,7.4 0.3,-1.5 0.8,-1 1.1,-0.5 h 0.4 l 1.1,0.5 0.7,0.9 0.4,1.5 v 0.5 l -0.3,1.5 -0.8,1 -1.1,0.6 h -0.4 l -1.1,-0.5 -0.8,-1 -0.3,-2 -0.1,-2.5 0.4,-2.5 0.7,-1.5 1.1,-0.5 h 0.8 l 1.1,0.4 0.4,1"
         stroke="#000000"
         stroke-width="1"
         id="path8" />
      <path
         d="m 236.7,415.8 2.4,-3.4 2,4.2 0.6,-1 0.9,-0.3 h 0.6 l 1.4,0.6 0.9,0.5 1,1.2 0.3,1.2 -0.2,1.2 -0.7,0.9 -1,0.7 h -0.6 l -1.1,-0.3"
         stroke="#000000"
         stroke-width="1"
         id="path9" />
      <path
         d="m 181.8,364.8 0.3,0.9 1.1,1.5 -10,-3.2 m 9.4,6.2 -0.1,-1.2 -0.9,-0.7 -0.9,-0.3 -1.1,0.1 -0.7,0.6 -0.9,1.2 -0.8,1 -1.2,0.4 h -1.1 l -1.4,-0.4 -0.9,-0.7 -0.3,-0.5 -0.2,-1.2 0.5,-1.4 0.8,-1 0.6,-0.2 h 1.1 l 1.4,0.4 0.8,0.7 0.8,1 0.1,1.2 v 1.6 l 0.3,0.9 0.8,0.6 1,0.3 h 1 l 0.8,-1 0.6,-1.6"
         stroke="#000000"
         stroke-width="1"
         id="path10" />
      <path
         d="m 271.7,24.3 -0.8,0.5 -1.1,1.5 V 15.8"
         stroke="#000000"
         stroke-width="1"
         id="path11" />
      <path
         d="m 357.6,36.6 11.1,-1.5 m -8.7,6.1 -2.4,-4.6"
         stroke="#000000"
         stroke-width="1"
         id="path12" />
      <path
         d="m 319.7,37.6 -1.1,0.5 -0.4,1 v 1 l 0.4,1 0.8,0.5 1.5,0.5 1.1,0.5 0.7,1 0.4,1 v 1.5 l -0.4,1 -0.3,0.5 -1.2,0.5 h -1.5 l -1.1,-0.5 -0.4,-0.5 -0.3,-1 v -1.5 l 0.3,-1 0.8,-1 1.1,-0.5 1.5,-0.5 0.8,-0.5 0.3,-1 v -1 l -0.3,-1 -1.2,-0.5 h -1.6"
         stroke="#000000"
         stroke-width="1"
         id="path13" />
      <path
         d="m 481.9,186.2 0.8,0.9 1.6,0.3 2.5,-0.4 1.5,-0.5 2.2,-1.1 1.2,-1.2 0.1,-1.2 -0.2,-0.7 -0.8,-0.9 -1.7,-0.3 -2.5,0.4 -1.4,0.5 -2.3,1.1 -1.1,1.2 -0.2,1.2 0.2,0.6"
         stroke="#000000"
         stroke-width="1"
         id="path14" />
      <path
         d="m 487.3,238.4 -1.1,-3.6 -4.4,1 0.6,0.2 0.8,1 0.3,1 -0.1,1.2 -0.7,1.1 -1.3,0.8 -1,0.3 -1.5,0.1 -1.2,-0.4 -0.8,-0.9 -0.4,-1.1 0.1,-1.2 0.4,-0.5 0.8,-0.7"
         stroke="#000000"
         stroke-width="1"
         id="path15" />
      <path
         d="m 499.9,273 -1,-0.5 -1.1,0.5 -0.5,0.5 -0.5,1.2 0.6,1.6 1.5,2 1.7,1.8 1.7,1.1 1.3,0.2 1.1,-0.5 0.3,-0.2 0.4,-1.2 -0.2,-1.2 -0.8,-1.4 -0.3,-0.3 -1.4,-0.8 -1.2,-0.2 -1.1,0.5 -0.3,0.2 -0.4,1.2 0.1,1.2 0.8,1.4"
         stroke="#000000"
         stroke-width="1"
         id="path16" />
      <path
         d="m 53.8,179.2 -5.5,-5.8 -1.7,5.4 m 7.2,0.4 -9.9,-3.3"
         stroke="#000000"
         stroke-width="1"
         id="path17" />
      <path
         d="m 89.9,95.1 0.1,-1.5 0.6,-1.1 1,-0.7 0.4,-0.1 1.2,0.3 0.9,0.9 0.6,1.4 0.1,0.5 -0.2,1.6 -0.5,1.1 -1.1,0.6 -0.3,0.1 -1.2,-0.3 -0.9,-0.9 -0.7,-1.9 -0.4,-2.5 -0.1,-2.5 0.5,-1.6 1.1,-0.7 0.7,-0.1 1.2,0.3 0.5,1"
         stroke="#000000"
         stroke-width="1"
         id="path18" />
      <path
         d="m 80.8,138.9 -0.3,-0.9 -1.1,-1.5 10,3.3 m -9.2,-6.7 0.1,1.3 1.2,1.1 2.3,1.2 1.4,0.4 2.5,0.5 1.6,-0.3 0.9,-0.9 0.2,-0.7 -0.1,-1.2 -1.2,-1.2 -2.3,-1.2 -1.4,-0.4 -2.5,-0.4 -1.7,0.2 -0.8,0.9 -0.2,0.6"
         stroke="#000000"
         stroke-width="1"
         id="path19" />
      <path
         d="m 129.7,429.9 3.3,2.4 -4.2,1.9 1,0.7 0.3,0.9 v 0.6 l -0.6,1.4 -0.6,0.8 -1.2,1 -1.2,0.4 -1.2,-0.3 -0.9,-0.6 -0.6,-1.1 v -0.6 l 0.3,-1.1"
         stroke="#000000"
         stroke-width="1"
         id="path20" />
      <path
         d="m 65.2,366.6 0.3,0.8 1.4,1.4 -10.4,-1.6 m 8.2,2.3 0.4,0.9 1.3,1.3 -10.4,-1.6"
         stroke="#000000"
         stroke-width="1"
         id="path21" />
      <path
         d="m 102.2,393.6 -0.9,-0.1 -1.8,0.6 6.2,-8.5 m -6.4,5.7 -0.3,0.4 -0.9,0.6 -0.6,0.2 -0.9,-0.1 -1.2,-0.9 -0.3,-0.8 v -0.6 l 0.3,-1.1 0.6,-0.8 0.9,-0.6 1.5,-0.7 5.9,-1.9 -4.2,-3.1"
         stroke="#000000"
         stroke-width="1"
         id="path22" />
      <path
         d="m 395.3,439.1 -0.3,-0.5 -0.3,-1 V 437 l 0.3,-0.9 1.2,-0.8 0.9,-0.1 0.6,0.2 0.9,0.6 0.6,0.8 0.3,1 0.3,1.7 -0.1,6.2 4.2,-3"
         stroke="#000000"
         stroke-width="1"
         id="path23" />
      <path
         d="m 312.3,477.9 0.9,-0.1 1.7,-0.8 -4.7,9.4 m 6.6,-8.9 3.6,1.9 -3.8,2.5 1,0.5 0.5,0.8 0.1,0.6 -0.4,1.6 -0.4,0.8 -1,1.2 -1.1,0.6 -1.3,-0.1 -1,-0.5 -0.7,-0.9 -0.2,-0.7 0.2,-1"
         stroke="#000000"
         stroke-width="1"
         id="path24" />
      <path
         d="m 351.1,451.7 -0.3,0.8 -0.1,1.9 -6.1,-8.5 m 2.3,11.9 -1.1,-7.9 -4.6,3.3 m 5.7,4.6 -6.2,-8.5"
         stroke="#000000"
         stroke-width="1"
         id="path25" />
      <path
         d="m 319.1,689.1 -3.1,-2.1 -2.9,3.5 0.6,-0.2 1.2,0.3 1,0.6 0.6,1 0.1,1.3 -0.5,1.4 -0.6,0.9 -1.2,1 -1.1,0.4 -1.2,-0.2 -1,-0.6 -0.6,-1.1 -0.1,-0.6 0.3,-1"
         stroke="#000000"
         stroke-width="1"
         id="path26" />
      <path
         d="m 192.7,680.1 -0.1,-1.2 -0.9,-0.6 -1,-0.3 -1,0.1 -0.7,0.5 -0.9,1.3 -0.8,1 -1.2,0.4 -1,0.1 -1.5,-0.4 -0.8,-0.6 -0.4,-0.5 -0.2,-1.2 0.4,-1.5 0.8,-0.9 0.6,-0.3 h 1.1 l 1.4,0.4 0.9,0.6 0.7,1 0.2,1.2 0.1,1.6 0.2,0.9 0.9,0.6 1,0.3 1,-0.1 0.8,-0.9 0.5,-1.7"
         stroke="#000000"
         stroke-width="1"
         id="path27" />
      <path
         d="m 164.9,557.2 -0.7,0.5 -1.1,1.6 -0.3,-10.5 m -3.1,10.9 1.1,-0.5 0.7,-1.5 0.3,-2.5 -0.1,-1.5 -0.4,-2.5 -0.8,-1.5 -1.2,-0.5 -0.7,0.1 -1.1,0.5 -0.7,1.5 -0.3,2.5 v 1.5 l 0.5,2.5 0.8,1.5 1.1,0.5 0.6,-0.1"
         stroke="#000000"
         stroke-width="1"
         id="path28" />
      <path
         d="m 269.9,495.4 -0.7,-0.6 -1.8,-0.5 9.8,-3.6 m -8.4,1.1 -0.5,0.2 h -1.1 l -0.6,-0.2 -0.7,-0.5 -0.5,-1.4 0.2,-0.9 0.3,-0.5 0.9,-0.7 0.9,-0.4 h 1.1 l 1.6,0.2 6,1.9 -1.8,-5"
         stroke="#000000"
         stroke-width="1"
         id="path29" />
      <path
         d="m 361,576.1 0.3,-0.9 -0.1,-1.9 6.5,8.3 m -2.7,-11.8 1.3,7.8 4.5,-3.4 m -5.8,-4.4 6.4,8.3"
         stroke="#000000"
         stroke-width="1"
         id="path30" />
      <path
         d="m 213.6,522.7 -1.4,0.8 -1.2,0.1 -1.2,-0.5 -0.2,-0.2 -0.4,-1.2 0.2,-1.2 0.8,-1.3 0.3,-0.4 1.4,-0.7 1.2,-0.2 1.2,0.5 0.2,0.2 0.4,1.2 -0.2,1.2 -1.1,1.7 -1.8,1.7 -2.1,1.5 -1.6,0.5 -1.2,-0.5 -0.5,-0.5 -0.4,-1.2 0.5,-1"
         stroke="#000000"
         stroke-width="1"
         id="path31" />
      <path
         d="m 235.9,475.5 -0.1,0.9 0.4,1.9 -8,-6.8 m 6.3,9.3 0.4,-1.1 -0.6,-1 -0.7,-0.6 -1,-0.4 -0.9,0.3 -1.4,0.8 -1.1,0.5 H 228 l -1,-0.4 -1.2,-0.9 -0.5,-1 -0.1,-0.6 0.3,-1.2 1,-1.1 1.1,-0.6 0.6,0.1 1,0.3 1.2,1 0.5,0.9 0.3,1.2 -0.4,1.2 -0.6,1.5 -0.1,0.9 0.6,0.9 0.7,0.7 1,0.3 1.2,-0.5 1,-1.3"
         stroke="#000000"
         stroke-width="1"
         id="path32" />
      <path
         d="m 172.2,616 1.2,11.1 m -5.9,-8.8 4.7,-2.3"
         stroke="#000000"
         stroke-width="1"
         id="path33" />
      <path
         d="m 135.8,583.6 0.8,0.3 1.9,0.2 -8.9,5.6 m 9.4,1.2 -1.4,0.5 -1.3,-0.1 -1,-0.7 -0.2,-0.3 -0.2,-1.3 0.5,-1.1 1,-1.1 0.5,-0.3 1.4,-0.5 1.3,0.1 1,0.7 0.2,0.3 0.2,1.3 -0.5,1.1 -1.5,1.4 -2.1,1.3 -2.3,1 -1.7,0.2 -1,-0.7 -0.4,-0.6 -0.2,-1.3 0.7,-0.8"
         stroke="#000000"
         stroke-width="1"
         id="path34" />
      <path
         d="m 251.2,687.6 -1,0.6 -0.3,1.1 0.1,0.8 0.6,1 1.6,0.6 h 2.5 l 2.5,-0.3 1.9,-0.7 0.9,-0.9 0.4,-1.1 -0.1,-0.4 -0.6,-1.1 -1.1,-0.6 -1.5,-0.1 h -0.5 l -1.5,0.6 -0.9,0.9 -0.3,1.2 v 0.3 l 0.7,1.1 1.1,0.6 1.5,0.2"
         stroke="#000000"
         stroke-width="1"
         id="path35" />
      <path
         d="m 207.3,712 0.6,-0.6 0.8,-1.8 2.5,10.2 m 2.9,-11.9 -3.7,0.9 0.7,4.5 0.3,-0.6 1,-0.7 1.1,-0.3 1.2,0.2 0.9,0.8 0.8,1.3 0.2,1 v 1.6 l -0.5,1.1 -1,0.8 -1,0.2 -1.3,-0.2 -0.4,-0.4 -0.6,-0.8"
         stroke="#000000"
         stroke-width="1"
         id="path36" />
      <path
         d="m 348.4,634.7 -0.8,0.4 -1.4,1.2 1.9,-10.3 m -3.8,10.3 -4.1,-0.7 3,-3.5 -1.1,-0.2 -0.7,-0.7 -0.3,-0.5 -0.1,-1.6 0.2,-0.9 0.7,-1.5 0.9,-0.8 1.2,-0.3 1.1,0.2 1,0.7 0.3,0.6 0.2,1"
         stroke="#000000"
         stroke-width="1"
         id="path37" />
      <path
         d="m 351.8,683.5 -0.5,-0.8 -1.4,-1.2 10.5,0.7 m -8.9,-6.3 -1.1,0.3 -0.5,1.1 -0.1,0.7 0.4,1.2 1.5,0.8 2.4,0.6 2.5,0.1 2.1,-0.2 1,-0.7 0.6,-1.1 v -0.3 l -0.4,-1.2 -1,-0.8 -1.4,-0.5 H 357 l -1.5,0.2 -1.1,0.7 -0.6,1.1 v 0.4 l 0.4,1.1 1,0.9 1.4,0.4"
         stroke="#000000"
         stroke-width="1"
         id="path38" />
      <path
         d="m 321,527.1 0.1,0.9 0.8,1.7 -9.3,-5 m 7,5 0.1,0.9 0.8,1.7 -9.2,-5"
         stroke="#000000"
         stroke-width="1"
         id="path39" />
      <path
         d="m 369.3,537.5 -0.8,0.2 -1.6,0.9 3.9,-9.7 m -9.9,7.7 7.4,-8.3 m -2.5,10.3 -4.9,-2"
         stroke="#000000"
         stroke-width="1"
         id="path40" />
    </g>
    <path
       d="m 257.6,222.8 1.1,-0.8 1.7,-2.2 v 15.7"
       id="titre_1"
       stroke="#4b0082" />
    <path
       d="m 269.7,585.4 v -0.8 l 0.6,-1.5 0.6,-0.7 1.1,-0.8 h 2.2 l 1.2,0.8 0.5,0.7 0.6,1.5 v 1.5 l -0.6,1.5 -1.1,2.3 -5.6,7.5 h 7.8"
       id="titre_2"
       stroke="#4b0082" />
  </g>
</svg>
