<?xml version="1.0" encoding="UTF-8" standalone="no"?>
<svg
   height="841.88977pt"
   viewBox="0 0 532.99998 754.00001"
   width="595.27557pt"
   version="1.1"
   id="svg1"
   sodipodi:docname="bouledogue200_H25_A4x5.svg"
   inkscape:version="1.3 (0e150ed6c4, 2023-07-21)"
   xmlns:inkscape="http://www.inkscape.org/namespaces/inkscape"
   xmlns:sodipodi="http://sodipodi.sourceforge.net/DTD/sodipodi-0.dtd"
   xmlns="http://www.w3.org/2000/svg"
   xmlns:svg="http://www.w3.org/2000/svg">
  <defs
     id="defs1" />
  <sodipodi:namedview
     id="namedview1"
     pagecolor="#ffffff"
     bordercolor="#000000"
     borderopacity="0.25"
     inkscape:showpageshadow="2"
     inkscape:pageopacity="0.0"
     inkscape:pagecheckerboard="0"
     inkscape:deskcolor="#d1d1d1"
     inkscape:document-units="mm"
     showgrid="false"
     inkscape:zoom="0.28179503"
     inkscape:cx="1971.291"
     inkscape:cy="551.81953"
     inkscape:window-width="1920"
     inkscape:window-height="1057"
     inkscape:window-x="-8"
     inkscape:window-y="-8"
     inkscape:window-maximized="1"
     inkscape:current-layer="svg1" />
  <style
     type="text/css"
     id="style1"><![CDATA[
			path {
				fill: none;
			}
		]]></style>
  <g
     id="page_001">
    <path
       d="m 169.9,435.1 0.9,0.2 1,-0.5 1,-1.1 0.4,-0.8 0.5,-1.5 -0.1,-1 -0.6,-0.8 -0.5,-0.3 -0.9,-0.1 -1,0.4 -1,1.2 -0.5,0.8 -0.5,1.4 0.1,1.1 0.6,0.7 0.4,0.2 m 82.3,56 -2.6,-2 2.8,-0.8 -0.7,-0.6 -0.3,-0.6 -0.1,-0.4 0.3,-0.9 0.4,-0.5 0.7,-0.5 0.9,-0.1 0.9,0.2 0.7,0.6 0.6,0.8 v 0.4 l -0.1,0.6 m 32.4,58 2.4,4.6 2.1,-4 m -4.5,-0.6 5.6,2.9 m -95.7,91 -0.2,-0.7 -0.7,-0.5 -0.6,-0.2 -1,0.1 -0.8,0.7 -0.7,1.3 -0.4,1.5 v 1.2 l 0.4,0.8 0.8,0.5 0.3,0.1 0.9,-0.1 0.7,-0.4 0.6,-0.8 0.1,-0.3 -0.1,-0.9 -0.4,-0.8 -0.8,-0.5 -0.3,-0.1 -0.9,0.1 -0.8,0.4 -0.5,0.8 m -102.7,-13.2 0.5,-0.4 0.7,-1.1 1.1,6.2 m 4.2,-5.2 -0.1,1 -0.5,0.7 -0.8,0.4 -0.3,0.1 -1,-0.2 -0.7,-0.5 -0.4,-0.8 -0.1,-0.3 0.2,-0.9 0.5,-0.7 0.8,-0.5 h 0.3 l 0.9,0.1 0.7,0.5 0.5,1.1 0.3,1.5 v 1.5 l -0.5,1 -0.8,0.5 -0.6,0.1 -0.9,-0.2 -0.4,-0.5 M 80,453 l -0.5,0.5 -0.5,1.1 -2,-6 m 0.6,5.2 -0.5,0.5 -0.6,1.1 -1.9,-6 m -30.1,39.1 1.6,-2.5 -2.1,-1.7 0.1,0.4 -0.3,1 -0.4,0.7 -0.8,0.6 -0.8,0.2 -0.9,-0.2 -0.5,-0.3 -0.6,-0.7 -0.2,-0.9 0.2,-0.9 0.5,-0.7 0.7,-0.7 0.4,-0.1 0.7,0.1 m 4.7,89.7 1,3.1 -2.8,-1 0.3,0.9 -0.1,0.6 -0.2,0.4 -0.8,0.6 -0.6,0.2 -0.9,-0.1 -0.8,-0.4 -0.5,-0.7 -0.3,-0.9 v -0.9 l 0.2,-0.4 0.5,-0.5 M 95,417.5 l 0.5,0.5 1.1,0.6 -6.1,1.7 m 5.2,-0.3 0.5,0.5 1.1,0.6 -6.1,1.7 m 26.7,-34.2 -0.6,-0.3 -1.2,-0.1 4.9,-4 m -63.1,-5.4 -2.6,-1.5 -1.6,2.3 0.4,-0.2 0.9,0.2 0.8,0.5 0.7,0.6 0.2,0.9 -0.2,0.9 -0.3,0.5 -0.7,0.7 -0.8,0.2 -0.9,-0.2 -0.8,-0.4 -0.6,-0.7 -0.1,-0.4 v -0.7 m 16.8,-44 -0.7,-0.2 -1.2,0.1 4.1,-4.7 m -29.4,7.7 v -0.9 l -0.6,-0.9 -1.3,-0.8 -0.8,-0.3 -1.5,-0.3 -1.1,0.2 -0.6,0.8 -0.2,0.5 v 1 l 0.6,0.9 1.3,0.8 0.8,0.3 1.5,0.3 1.1,-0.3 0.6,-0.7 0.2,-0.4 M 284.6,659.3 V 659 l 0.4,-0.6 0.3,-0.2 0.6,-0.3 1.2,0.1 0.6,0.4 0.3,0.3 0.2,0.6 v 0.6 l -0.4,0.6 -0.7,0.8 -3.2,2.8 4.2,0.3 m 16.8,-108.1 -1.8,-4.9 -2.6,3.8 m 4.4,1.1 -5.2,-3.6 m 62.6,130.7 h 0.7 l 1.1,-0.5 -2.6,5.7 m 3.6,-3.8 0.1,-0.3 0.6,-0.4 0.4,-0.1 h 0.6 l 1.1,0.5 0.4,0.5 0.2,0.4 v 0.7 l -0.3,0.5 -0.5,0.4 -0.9,0.6 -4,1.4 3.8,1.8 m 71,-24.6 0.1,-0.7 -0.2,-1.2 5.1,3.7 m -4.2,-5.2 1.9,-2.7 0.9,2.9 0.5,-0.8 0.6,-0.3 0.4,-0.1 0.9,0.3 0.5,0.4 0.6,0.8 0.1,0.8 -0.3,0.9 -0.5,0.7 -0.8,0.6 h -0.4 l -0.6,-0.1 m -113.5,-178.7 0.2,0.7 0.7,1 -6.2,-1 m 3.5,5.7 -0.8,-0.5 -0.5,-0.7 -0.2,-0.9 0.1,-0.3 0.4,-0.8 0.7,-0.5 1,-0.2 0.3,0.1 0.8,0.4 0.5,0.7 0.1,0.9 v 0.3 l -0.4,0.9 -0.7,0.5 -1.3,0.1 -1.4,-0.3 -1.5,-0.5 -0.8,-0.8 -0.1,-0.9 0.1,-0.6 0.4,-0.8 0.7,-0.2 m 102.6,16.8 -0.3,-0.1 -0.4,-0.5 -0.1,-0.4 -0.1,-0.7 0.5,-1.1 0.6,-0.4 0.4,-0.1 0.6,-0.1 0.6,0.3 0.4,0.5 0.6,0.9 1.5,4 1.7,-3.8 m -3.7,-3.5 -0.3,-0.2 -0.4,-0.5 -0.1,-0.4 -0.1,-0.6 0.5,-1.1 0.6,-0.5 0.4,-0.1 h 0.6 l 0.6,0.2 0.4,0.5 0.6,1 1.5,3.9 1.7,-3.8 m -81.1,-93.6 0.2,0.1 0.5,0.5 0.1,0.4 0.1,0.7 -0.5,1.1 -0.5,0.4 -0.4,0.2 -0.6,0.1 -0.6,-0.3 -0.4,-0.5 -0.6,-0.9 -1.7,-3.9 -1.6,3.9 m 5.2,4 -1.2,3.1 -1.6,-2.6 -0.3,0.8 -0.5,0.4 -0.4,0.2 -1,-0.1 -0.5,-0.2 -0.7,-0.6 -0.4,-0.8 0.1,-0.9 0.3,-0.9 0.7,-0.7 0.4,-0.1 0.6,-0.1 m 126.1,150.7 v 0.3 l -0.4,0.5 -0.4,0.3 -0.7,0.1 -1.1,-0.2 -0.6,-0.4 -0.2,-0.4 -0.1,-0.6 0.1,-0.6 0.4,-0.6 0.8,-0.7 3.5,-2.3 -4.1,-0.9 m -5.5,5.3 3.8,-3.5 -4.4,-0.9 m 0.6,4.4 1.3,-6.1 m 25.6,37.8 -0.3,-0.2 -0.2,-0.6 -0.1,-0.4 0.2,-0.7 0.7,-0.9 0.6,-0.3 0.4,-0.1 0.7,0.2 0.5,0.4 0.2,0.6 0.4,1 0.4,4.2 2.7,-3.3 m -2,-7.6 -1.9,2.4 1.9,1.9 V 588 l 0.3,-0.8 0.6,-0.7 0.8,-0.6 0.8,-0.1 0.9,0.4 0.5,0.3 0.5,0.8 0.1,0.9 -0.3,0.9 -0.6,0.7 -0.8,0.5 h -0.4 l -0.7,-0.1 m -23.5,-171.8 -0.2,-0.1 -0.4,-0.6 v -0.4 -0.7 l 0.7,-1 0.6,-0.3 0.4,-0.1 h 0.6 l 0.5,0.4 0.4,0.5 0.4,1 0.9,4.2 2.3,-3.5 m -3.9,-5.7 -0.2,0.9 0.3,0.6 0.5,0.3 0.7,0.1 0.6,-0.3 0.9,-0.9 0.7,-0.6 0.9,-0.1 h 0.6 l 0.8,0.5 0.3,0.6 0.1,0.4 -0.2,0.9 -0.7,1 -0.7,0.6 -0.4,0.1 -0.7,-0.1 -0.8,-0.4 -0.3,-0.6 -0.2,-0.9 0.3,-0.9 0.4,-1.1 v -0.7 l -0.3,-0.6 -0.5,-0.3 -0.7,-0.1 -0.7,0.6 -0.7,1.1 m -61,-64.8 1,-5.1 -4.1,1.9 m 3.1,3.2 -2.6,-5.7 m -0.3,7 -3,1.4 0.6,-2.9 -0.8,0.3 h -0.7 l -0.4,-0.1 -0.6,-0.7 -0.3,-0.6 -0.1,-0.9 0.3,-0.8 0.7,-0.6 0.8,-0.4 0.9,-0.1 0.4,0.1 0.6,0.4 m 77.6,-34.3 4.9,1.7 -1.3,-4.3 m -3.6,2.6 6,-1.8 m -7.7,-3.7 4.9,1.6 -1.3,-4.3 m -3.6,2.7 6,-1.8 m -67,7.9 -3.1,4.1 4.5,0.1 m -1.4,-4.2 -0.2,6.3 m 6.4,-6.2 h -3 l -0.4,2.7 0.3,-0.3 0.9,-0.3 h 0.9 l 0.9,0.3 0.6,0.6 0.3,0.9 v 0.6 l -0.3,0.9 -0.6,0.6 -0.9,0.3 h -0.9 l -0.9,-0.3 -0.3,-0.3 -0.3,-0.6 m 48.6,-121.8 -0.5,3 2.6,0.8 -0.3,-0.4 -0.1,-0.9 0.1,-0.9 0.5,-0.8 0.7,-0.5 0.9,-0.1 0.6,0.1 0.9,0.4 0.4,0.7 0.2,1 -0.2,0.9 -0.4,0.8 -0.4,0.2 -0.6,0.2 m -2.7,-5.8 -0.2,-0.7 -0.7,-1 6.2,1.1 m -128.6,124.1 -2.9,0.5 v 2.7 l 0.3,-0.4 0.9,-0.4 0.8,-0.1 1,0.2 0.7,0.5 0.4,0.8 0.1,0.6 -0.2,1 -0.5,0.6 -0.9,0.5 -0.9,0.1 -0.9,-0.2 -0.3,-0.3 -0.4,-0.5 m 5.2,-5.9 3.2,-0.4 -1.4,2.6 0.9,-0.1 0.6,0.2 0.3,0.2 0.5,0.9 v 0.6 l -0.1,0.9 -0.5,0.7 -0.9,0.4 -0.9,0.1 -0.9,-0.1 -0.4,-0.3 -0.3,-0.5 m 29.1,-162.8 -0.8,2.9 2.6,1 -0.2,-0.4 -0.1,-1 0.2,-0.8 0.6,-0.8 0.7,-0.4 0.9,-0.1 0.6,0.1 0.8,0.6 0.4,0.7 0.1,1 -0.2,0.8 -0.6,0.8 -0.3,0.2 -0.7,0.2 m -0.5,-9.7 0.8,0.5 0.4,0.7 0.1,1 -0.1,0.2 -0.5,0.8 -0.8,0.5 h -0.9 l -0.3,-0.1 -0.8,-0.5 -0.4,-0.7 -0.1,-1 0.1,-0.2 0.5,-0.8 0.8,-0.5 1.2,0.1 1.4,0.3 1.4,0.7 0.7,0.8 0.1,1 -0.2,0.5 -0.5,0.8 -0.6,0.2 m -117.4,77.8 1.1,-2.8 -2.4,-1.3 0.2,0.4 -0.1,1 -0.3,0.8 -0.6,0.7 -0.8,0.4 -1,-0.1 -0.5,-0.2 -0.7,-0.7 -0.4,-0.8 0.1,-0.9 0.3,-0.8 0.7,-0.7 0.4,-0.2 0.6,-0.1 m 2.1,8.3 0.1,-0.9 -0.5,-0.5 -0.5,-0.3 -0.7,0.1 -0.5,0.4 -0.7,1 -0.6,0.7 -0.8,0.4 h -0.7 l -0.8,-0.3 -0.5,-0.5 -0.1,-0.4 v -1 l 0.5,-1.1 0.6,-0.7 0.4,-0.2 h 0.7 l 0.8,0.3 0.4,0.5 0.4,0.8 -0.1,1 -0.2,1.2 0.1,0.7 0.4,0.5 0.6,0.2 0.6,-0.1 0.7,-0.7 0.5,-1.2 m 39.2,-94.9 1.1,-2.7 -2.3,-1.3 0.1,0.3 v 1 l -0.4,0.8 -0.6,0.7 -0.8,0.4 -0.9,-0.1 -0.6,-0.2 -0.7,-0.6 -0.3,-0.8 v -1 l 0.4,-0.8 0.6,-0.7 0.4,-0.2 h 0.7 m 1.9,8.5 0.1,-0.9 -0.6,-0.9 -1.3,-0.9 -0.8,-0.3 -1.5,-0.3 -1.1,0.2 -0.6,0.7 -0.2,0.6 -0.1,0.9 0.6,0.9 1.3,0.9 0.8,0.3 1.5,0.3 1.1,-0.2 0.6,-0.7 0.2,-0.4 m 98.3,-71.4 -0.8,2.9 2.4,1.1 -0.2,-0.4 v -1 l 0.3,-0.8 0.5,-0.8 0.8,-0.4 h 0.9 l 0.6,0.2 0.8,0.5 0.4,0.8 v 0.9 l -0.3,0.9 -0.5,0.7 -0.4,0.2 -0.7,0.2 m -2.4,-9.7 3.1,4.1 1.4,-4.3 m -4.5,0.2 6,1.9 M 361.2,51 l 1.5,-2.6 -2.1,-1.6 0.1,0.4 -0.2,0.9 -0.5,0.8 -0.7,0.6 -0.8,0.2 -1,-0.2 -0.5,-0.3 -0.6,-0.7 -0.2,-0.9 0.2,-0.9 0.5,-0.8 0.7,-0.6 0.4,-0.1 0.7,0.1 m 0.4,6.4 v 0.7 l 0.3,1.2 -5.4,-3.2 m 47.4,-18.6 2.5,1.8 1.7,-2.1 -0.4,0.1 -0.9,-0.3 -0.7,-0.5 -0.6,-0.8 -0.1,-0.8 0.2,-0.9 0.4,-0.5 0.7,-0.6 0.9,-0.1 0.9,0.3 0.7,0.5 0.6,0.7 0.1,0.5 -0.1,0.6 m -6.9,-0.4 -0.2,0.3 -0.6,0.3 -0.4,0.1 -0.6,-0.1 -1,-0.7 -0.3,-0.6 -0.1,-0.4 0.1,-0.7 0.3,-0.5 0.6,-0.3 1,-0.4 4.2,-0.7 -3.4,-2.5 m -117.3,344.7 -0.6,-0.1 -0.8,0.5 -0.3,0.5 -0.3,0.9 0.4,1 1.1,1.1 1.2,0.9 1.1,0.4 0.9,-0.1 0.7,-0.6 0.2,-0.2 0.3,-0.9 -0.2,-0.9 -0.5,-0.7 -0.3,-0.2 -0.9,-0.3 -0.8,0.2 -0.8,0.5 -0.2,0.3 -0.2,0.9 0.1,0.8 0.6,0.8 m 0.5,-8 -0.3,0.9 0.4,1 1,1.1 0.8,0.5 1.4,0.6 h 1.1 l 0.7,-0.5 0.4,-0.5 0.2,-0.9 -0.4,-1 -1,-1.1 -0.8,-0.6 -1.4,-0.6 h -1 l -0.8,0.6 -0.3,0.3 m -75.1,1.1 -4.9,1.7 3.7,2.6 m 1.2,-4.3 -3.6,5.2 m 6.9,-2.8 -0.9,-0.2 -0.6,0.3 -0.3,0.5 -0.1,0.6 0.3,0.6 0.8,1 0.6,0.7 0.2,0.9 -0.1,0.6 -0.6,0.8 -0.5,0.3 -0.5,0.1 -0.9,-0.3 -1,-0.7 -0.5,-0.8 -0.1,-0.4 0.1,-0.6 0.5,-0.8 0.6,-0.3 0.8,-0.1 0.9,0.2 1.2,0.5 0.7,0.1 0.6,-0.4 0.3,-0.5 0.1,-0.6 -0.6,-0.8 -1.1,-0.8 m -67.4,-76.2 1.1,3.1 -2.9,-0.9 0.3,0.9 -0.1,0.6 -0.2,0.4 -0.7,0.6 -0.6,0.2 h -0.9 l -0.8,-0.3 -0.6,-0.8 -0.3,-0.8 v -1 l 0.2,-0.4 0.5,-0.5 m 6.9,7.1 0.4,-0.5 v -0.9 l -0.2,-0.6 -0.5,-0.7 -1.1,-0.3 -1.5,0.2 -1.4,0.5 -1.1,0.7 -0.3,0.7 v 1 l 0.1,0.3 0.6,0.7 0.7,0.4 h 1 l 0.3,-0.1 0.7,-0.6 0.4,-0.8 v -0.9 l -0.1,-0.3 -0.6,-0.7 -0.8,-0.4 h -0.9 m 104.2,-66.4 -0.2,3 2.7,0.5 -0.3,-0.3 -0.2,-0.9 v -0.9 l 0.4,-0.9 0.6,-0.6 0.9,-0.2 h 0.6 l 0.9,0.4 0.6,0.6 0.2,1 v 0.8 l -0.4,0.9 -0.3,0.3 -0.6,0.3 m -4.7,-7.2 0.3,0.9 0.5,0.4 h 0.6 l 0.7,-0.3 0.3,-0.5 0.4,-1.2 0.3,-0.9 0.7,-0.6 0.6,-0.2 h 0.9 l 0.6,0.4 0.2,0.3 0.3,0.9 -0.1,1.2 -0.4,0.9 -0.3,0.3 -0.6,0.2 h -0.9 l -0.6,-0.4 -0.5,-0.6 -0.3,-0.9 -0.2,-1.2 -0.2,-0.7 -0.6,-0.3 h -0.6 l -0.6,0.2 -0.4,0.9 -0.1,1.4 m -132.2,3.6 1.9,2.7 -3,-0.1 0.5,0.7 0.1,0.7 -0.1,0.4 -0.6,0.8 -0.4,0.3 -1,0.3 -0.8,-0.2 -0.8,-0.5 -0.5,-0.8 -0.2,-0.9 v -0.4 l 0.4,-0.6 m 9.3,4.4 -1.8,-2.4 -2.4,1.3 h 0.5 l 0.7,0.6 0.5,0.7 0.3,0.9 -0.1,0.9 -0.6,0.7 -0.5,0.4 -0.9,0.3 -0.8,-0.2 -0.8,-0.6 -0.5,-0.7 -0.3,-0.9 0.1,-0.4 0.3,-0.6 m 41.6,-94.6 -0.2,0.2 -0.5,0.4 h -0.4 -0.7 l -1,-0.7 -0.4,-0.6 -0.1,-0.4 0.1,-0.6 0.3,-0.5 0.6,-0.4 1,-0.4 4.2,-0.9 -3.6,-2.3 m -5.6,3.9 0.9,0.2 0.6,-0.3 0.3,-0.5 0.1,-0.7 -0.4,-0.6 -0.8,-0.9 -0.6,-0.7 -0.2,-0.8 0.1,-0.7 0.5,-0.8 0.5,-0.3 0.5,-0.1 0.9,0.2 1,0.7 0.6,0.7 0.1,0.4 -0.1,0.7 -0.5,0.8 -0.6,0.3 -0.8,0.2 -0.9,-0.3 -1.2,-0.3 -0.6,-0.1 -0.6,0.3 -0.3,0.5 -0.1,0.7 0.6,0.7 1.1,0.8 M 68,108.4 v 0.3 l -0.3,0.5 -0.4,0.3 -0.6,0.3 h -1.2 l -0.6,-0.4 -0.2,-0.3 -0.3,-0.6 v -0.6 l 0.3,-0.6 0.7,-0.9 3.1,-2.8 -4.2,-0.2 m -1.9,4.7 v 0.3 l -0.3,0.6 -0.3,0.3 -0.6,0.3 -1.2,-0.1 -0.6,-0.3 -0.3,-0.3 -0.3,-0.6 0.1,-0.6 0.3,-0.6 0.6,-0.9 3.1,-2.9 -4.2,-0.1 m -9.1,102.4 v -0.3 l 0.4,-0.6 0.3,-0.2 0.7,-0.3 1.1,0.2 0.6,0.4 0.3,0.3 0.2,0.7 -0.1,0.6 -0.4,0.5 -0.7,0.8 -3.4,2.6 4.2,0.6 m 5.4,-4.8 -0.2,-0.6 -0.8,-0.4 -0.6,-0.1 -1,0.2 -0.7,0.8 -0.5,1.4 -0.2,1.5 0.1,1.3 0.6,0.6 0.8,0.4 0.3,0.1 0.9,-0.2 0.7,-0.5 0.4,-0.9 0.1,-0.3 -0.2,-0.9 -0.5,-0.7 -0.9,-0.4 h -0.3 l -0.9,0.2 -0.7,0.5 -0.4,0.8 m -29.3,-59.7 0.3,0.1 0.6,0.3 0.2,0.4 0.3,0.6 -0.2,1.2 -0.3,0.6 -0.4,0.2 -0.6,0.3 -0.6,-0.1 -0.5,-0.4 -0.9,-0.7 -2.6,-3.3 -0.5,4.2 m 5.9,5 -3.9,-3.5 -0.4,4.5 m 4.3,-1 -6.3,-0.7 m 482.1,-42.6 -1.2,2.7 2.3,1.4 -0.2,-0.4 0.1,-0.9 0.4,-0.9 0.7,-0.7 0.8,-0.2 0.9,0.1 0.6,0.2 0.6,0.7 0.3,0.8 -0.1,0.9 -0.4,0.8 -0.6,0.7 -0.4,0.2 h -0.7 m -0.8,-6.9 -0.2,-0.1 -0.4,-0.5 -0.2,-0.4 v -0.7 l 0.5,-1.1 0.5,-0.4 0.4,-0.1 h 0.7 l 0.5,0.2 0.5,0.5 0.5,1 1.5,4 1.7,-3.8 m -26.8,-60.5 1.9,-2.4 -2,-1.9 0.1,0.4 -0.3,0.9 -0.6,0.7 -0.8,0.5 -0.8,0.1 -0.9,-0.3 -0.5,-0.4 -0.5,-0.8 -0.1,-0.8 0.3,-0.9 0.6,-0.7 0.8,-0.5 0.4,-0.1 0.7,0.2 m -1.7,10.1 1.9,-2.3 -1.9,-2 v 0.5 l -0.3,0.9 -0.6,0.7 -0.8,0.5 -0.8,0.1 -0.9,-0.4 -0.5,-0.4 -0.5,-0.8 -0.1,-0.8 0.4,-0.9 0.5,-0.7 0.8,-0.5 h 0.5 l 0.6,0.1 m 24.2,11.5 1.2,2.8 2.6,-0.9 -0.4,-0.1 -0.7,-0.7 -0.3,-0.8 -0.1,-1 0.3,-0.8 0.7,-0.6 0.5,-0.2 1,-0.1 0.7,0.3 0.7,0.7 0.4,0.8 0.1,0.9 -0.2,0.4 -0.4,0.5 m -8.2,-5.6 5,1 -1.8,-4.1 m -3.2,3.1 5.7,-2.6 m -65.1,41.6 2.3,-2 -1.6,-2.2 v 0.4 l -0.5,0.8 -0.7,0.6 -0.8,0.4 -0.9,-0.1 -0.8,-0.5 -0.4,-0.4 -0.4,-0.9 0.1,-0.8 0.5,-0.9 0.7,-0.6 0.8,-0.3 h 0.5 l 0.6,0.3 m -3.4,9.7 2.2,-2 -1.5,-2.2 v 0.4 l -0.5,0.8 -0.7,0.6 -0.9,0.4 -0.8,-0.1 -0.8,-0.5 -0.4,-0.4 -0.4,-0.9 0.1,-0.9 0.5,-0.8 0.6,-0.6 0.9,-0.3 h 0.4 l 0.7,0.3 m -29.9,66.8 0.8,-2.9 -2.5,-1.1 0.2,0.4 v 1 l -0.2,0.8 -0.5,0.8 -0.8,0.4 -0.9,0.1 -0.6,-0.2 -0.8,-0.5 -0.4,-0.7 v -1 l 0.2,-0.9 0.5,-0.7 0.4,-0.3 0.7,-0.1 m 0.4,9.7 -0.8,-0.5 -0.4,-0.7 -0.1,-1 0.1,-0.3 0.5,-0.8 0.8,-0.4 h 0.9 l 0.3,0.1 0.8,0.5 0.4,0.7 0.1,1 -0.1,0.3 -0.5,0.7 -0.8,0.5 -1.2,-0.1 -1.5,-0.4 -1.3,-0.7 -0.7,-0.8 -0.1,-0.9 0.2,-0.6 0.5,-0.8 0.7,-0.1 m -125,-25.1 -1.4,2.6 2.3,1.6 -0.2,-0.5 0.2,-0.9 0.4,-0.8 0.7,-0.6 0.8,-0.3 0.9,0.2 0.6,0.2 0.6,0.7 0.3,0.8 -0.2,1 -0.4,0.8 -0.7,0.6 -0.4,0.2 -0.7,-0.1 m -1.1,-8.7 -0.2,1 0.5,0.9 1.2,1 0.8,0.4 1.5,0.4 1,-0.1 0.7,-0.6 0.3,-0.6 0.2,-0.9 -0.6,-0.9 -1.1,-1 -0.8,-0.4 -1.5,-0.5 -1.1,0.1 -0.7,0.7 -0.2,0.4 m -13.1,1.9 -0.2,-5.2 -3.5,2.7 m 3.7,2.5 -3.8,-5 m -0.8,8.5 -0.2,-5.2 -3.5,2.8 m 3.7,2.4 -3.8,-5"
       id="nums_001"
       stroke="#000000"
       stroke-width="1" />
    <path
       d="m 314.7,668.8 -57.2,-5.1 -125.9,-35.8 -72.2,12.5 -39.7,-127.3 36.7,-59.6 38.2,-12.4 -11,-38.6 -61.3,-34 23.3,-60.7 54.2,47.5 45.4,56 56.3,32.6 107.6,78.6 -28,53.8 34.2,-50 12,-72.4 37.3,-91 93.7,-43.9 -56.8,-1.1 -83.3,11.6 L 261,412 151.2,335.5 125.4,261.8 95.1,218.5 12,207.3 23.4,99.7 l 80,3.4 101.3,64.9 104.4,-79.8 -51.5,97.6 -5.7,88.5 33.9,-81.9 42.1,-102 50.8,-84.5 52.1,36.4 -20.7,66.9 -26,98.2 27.1,-97.9 45.4,-39.2 37.7,-46.7 28.8,63.8 -27,57.6 -18,96.9 38.8,125.6 -65.3,101 -33,72.9 105.7,22.7 -45,56.4 -67.85,93.25 z"
       id="coupes_001"
       stroke="#ff0000"
       stroke-width="1.27"
       sodipodi:nodetypes="ccccccccccccccccccccccccccccccccccccccccccccccccccc" />
    <path
       d="m 281.1,576.3 -135.9,-165 m 135.9,165 -23.6,87.4 m 0,0 L 145.2,411.3 M 257.5,663.7 94.6,441.1 m 0,0 50.6,-29.8 m -13.6,216.6 -37,-186.8 m -35.2,199.3 -3,-186.9 m 27.2,-51 16.2,-47.2 m -77.5,13.2 77.5,-13.2 m 181.3,221 33.6,92.5 m -33.6,-92.5 98.8,45.8 m 0,0 -65.2,46.7 m 0.6,-142.5 64.6,95.8 m -64.6,-95.8 103.3,15.1 m -38.7,80.7 31.4,91.7 m 7.3,-172.4 60.7,79.1 m 0,0 -99.4,1.6 m -52.6,-168.2 124.3,14.6 m -87,-105.6 87,105.6 m -87,-105.6 152.3,4.6 M 458.3,319 478.1,241.9 m -76.6,76 L 496.1,145 M 318.2,329.5 496.1,145 M 318.2,329.5 384.1,207.4 m 0,0 112,-62.4 M 251.9,274.3 384.1,207.4 m -65.9,122.1 -66.3,-55.2 m 0,0 158.2,-165.1 M 285.8,192.4 410.1,109.2 M 327.9,90.4 430.8,42.3 M 261,412 251.9,274.3 m -100.7,61.2 100.7,-61.2 m -126.5,-12.5 126.5,12.5 m -126.5,-12.5 132.2,-76 M 204.7,168 257.6,185.8 M 95.1,218.5 204.7,168 M 95.1,218.5 103.4,103.1 M 384.1,207.4 456.6,70.3 m 0,0 39.5,74.7 m -39.5,-74.7 66.5,17.1"
       id="plisM_001"
       stroke="#a52a2a"
       stroke-dasharray="4" />
    <path
       d="m 201.5,443.9 79.6,132.4 M 59.4,640.4 94.6,441.1 m -11,-38.6 61.6,8.8 m 273.4,130.1 -38.7,80.7 m -52.6,-168.2 91.3,87.5 m 39.7,-222.4 58.6,48.5 m -115.4,-49.6 76.6,-76 M 327.9,90.4 410.1,109.2 M 125.4,261.8 204.7,168 M 95.1,218.5 23.4,99.7"
       id="plisV_001"
       stroke="#008000"
       stroke-dasharray="4, 1, 1, 1"
       stroke-width="1.27" />
    <path
       d="m 239.3,508.1 4,4 m 0,-4 -4,4 M 75,538.8 l 4,4 m 0,-4 -4,4 m 37.4,-137.9 4,4 m 0,-4 -4,4 m 284.8,170.9 4,4 m 0,-4 -4,4 m -26.3,-88.1 4,4 m 0,-4 -4,4 m 114.7,-158.5 4,4 m 0,-4 -4,4 m -47.8,-67.3 4,4 m 0,-4 -4,4 M 367,97.8 l 4,4 m 0,-4 -4,4 m -204,111.1 4,4 m 0,-4 -4,4 m -105.8,-59.8 4,4 m 0,-4 -4,4"
       id="marqueV_001"
       stroke="#008000" />
    <path
       d="m 274.7,329.8 1.5,-0.8 2.3,-2.2 v 15.7"
       id="titre_1"
       stroke="#4b0082" />
  </g>
  <g
     id="page_002">
    <path
       d="m 835.1,301.5 0.4,-0.8 0.6,-0.6 1,-0.1 h 0.3 l 0.8,0.4 0.5,0.7 0.2,0.9 v 0.3 l -0.4,0.9 -0.7,0.5 -0.9,0.2 -0.3,-0.1 -0.9,-0.4 -0.5,-0.7 -0.1,-1.2 0.2,-1.5 0.4,-1.4 0.8,-0.8 0.9,-0.2 0.6,0.1 0.8,0.4 0.3,0.6 m 80.3,178.6 2.8,-1.7 -0.3,3 0.8,-0.4 0.6,-0.1 0.4,0.1 0.8,0.6 0.3,0.6 0.2,0.9 -0.2,0.8 -0.7,0.7 -0.7,0.5 -1,0.2 -0.4,-0.1 -0.5,-0.4 m 5.4,-9.2 0.7,7 m -4.3,-4.8 3.6,-2.2 m -67.6,-7.3 1.9,2.7 -3,-0.1 0.5,0.7 v 0.7 0.4 l -0.6,0.8 -0.5,0.3 -0.9,0.2 -0.9,-0.1 -0.7,-0.6 -0.5,-0.7 -0.3,-1 0.1,-0.4 0.3,-0.6 m 6.3,2.9 0.3,-0.2 h 0.6 0.4 l 0.6,0.4 0.7,1 0.1,0.6 -0.1,0.4 -0.3,0.6 -0.5,0.4 h -0.7 l -1.1,0.1 -4.2,-0.9 2.4,3.5 m -26.6,-115 0.6,-0.3 1,-0.8 -0.3,6.2 m 5.5,-6.2 -3.3,6.1 m -0.9,-6.3 4.2,0.2 m -105.1,-49.9 -0.4,0.6 -0.4,1.2 -2.9,-5.6 m -1.2,8 2.7,-1.4 -1,-2.5 -0.1,0.4 -0.7,0.6 -0.8,0.5 -0.9,0.1 -0.8,-0.2 -0.7,-0.7 -0.3,-0.5 -0.1,-1 0.2,-0.8 0.7,-0.7 0.8,-0.4 0.9,-0.1 0.4,0.1 0.6,0.4 m -3.6,74.6 -0.1,-0.3 -0.1,-0.7 0.1,-0.4 0.4,-0.5 1,-0.7 h 0.7 l 0.4,0.1 0.5,0.3 0.4,0.5 v 0.7 1.1 l -1,4.1 3.6,-2.2 m -1.7,-4.7 0.4,-0.6 0.3,-1.2 3.3,5.4 M 592,365.7 l 0.2,-0.2 0.7,-0.2 0.4,0.1 0.6,0.3 0.7,0.9 0.2,0.7 -0.1,0.4 -0.3,0.6 -0.4,0.4 -0.7,0.1 -1.1,0.1 -4.2,-0.5 2.6,3.3 m 6.8,-1.6 -0.8,-0.5 -1.1,0.1 -1.4,0.7 -0.7,0.5 -1,1.2 -0.3,1 0.3,0.9 0.4,0.5 0.8,0.5 1.1,-0.1 1.3,-0.7 0.7,-0.5 1,-1.2 0.4,-1 -0.4,-0.9 -0.2,-0.4 m 68.6,-48.1 h -0.6 l -1.2,0.4 2.8,-5.6 m -6.7,2.8 -0.1,0.7 0.7,0.7 0.5,0.2 1,0.2 0.9,-0.5 1,-1.2 0.7,-1.4 0.2,-1.2 -0.2,-0.8 -0.7,-0.7 -0.2,-0.1 -1,-0.1 -0.8,0.2 -0.7,0.7 -0.1,0.2 -0.1,1 0.2,0.8 0.7,0.7 0.2,0.1 1,0.2 0.8,-0.3 0.7,-0.7 m -101.1,-5 0.4,0.4 1.2,0.5 -5.8,2.3 m 7,0.1 -0.6,-0.7 -0.7,-0.1 -0.6,0.2 -0.4,0.5 -0.1,0.7 0.2,1.2 v 1 l -0.3,0.8 -0.4,0.5 -0.9,0.3 -0.7,-0.1 -0.3,-0.1 -0.6,-0.8 -0.5,-1.1 v -0.9 l 0.1,-0.4 0.5,-0.5 0.8,-0.4 0.7,0.1 0.8,0.3 0.6,0.8 0.7,1 0.5,0.4 0.7,0.1 0.5,-0.2 0.5,-0.5 -0.1,-1 -0.5,-1.2 m 25.5,-12.8 3.8,-5.8 m 0.4,6.4 -4.2,-0.6 m -7.9,104.8 v 0.3 l -0.2,0.7 -0.2,0.3 -0.6,0.4 -1.2,0.2 -0.6,-0.2 -0.4,-0.2 -0.3,-0.6 -0.1,-0.6 0.2,-0.6 0.4,-1 2.5,-3.4 -4.2,0.6 m -1.9,6.7 0.9,-0.4 0.4,-1 0.1,-1.5 -0.2,-0.9 -0.5,-1.4 -0.7,-0.8 -1,-0.2 -0.6,0.1 -0.8,0.4 -0.5,1 v 1.6 l 0.1,0.9 0.6,1.4 0.7,0.8 0.9,0.1 h 0.5 m -4.2,11 0.7,0.2 1.2,-0.1 -4.3,4.6 m 6.4,-2.9 -0.9,-0.4 -0.6,0.2 -0.4,0.5 -0.2,0.6 0.2,0.7 0.7,1 0.4,0.8 0.1,0.9 -0.2,0.6 -0.6,0.7 -0.7,0.2 h -0.4 l -0.9,-0.4 -0.8,-0.8 -0.5,-0.8 v -0.5 l 0.2,-0.6 0.6,-0.7 0.7,-0.2 h 0.8 l 0.9,0.4 1,0.6 0.7,0.2 0.6,-0.2 0.4,-0.5 0.2,-0.6 -0.4,-0.9 -1,-0.9 m 68,31.3 -4.4,5.5 m 0.3,-6.4 4.1,0.9 m 385.1,-109.7 -0.3,0.1 -0.7,-0.1 -0.3,-0.2 -0.5,-0.4 -0.4,-1.2 0.1,-0.6 0.2,-0.4 0.5,-0.5 0.5,-0.2 0.7,0.1 1,0.3 3.8,1.9 -1.3,-4 m -7.6,-2.9 6.9,0.8 m -5.6,3.2 -1.3,-4 m -66.8,-61.5 -0.6,-0.1 -1.3,0.3 3.5,-5.3 m -6.1,3.9 1,0.2 1,-0.4 1,-1.1 0.5,-0.8 0.6,-1.4 v -1.1 l -0.6,-0.7 -0.5,-0.3 -1,-0.3 -1,0.5 -1,1.1 -0.5,0.7 -0.6,1.4 v 1.1 l 0.6,0.8 0.4,0.2 m -113.2,8.3 -0.5,0.8 -0.7,0.4 -1,0.1 -0.3,-0.1 -0.8,-0.5 -0.4,-0.7 -0.1,-0.9 0.1,-0.3 0.5,-0.8 0.7,-0.5 0.9,-0.1 0.3,0.1 0.8,0.5 0.5,0.7 v 1.3 l -0.3,1.4 -0.7,1.4 -0.8,0.8 h -0.9 l -0.6,-0.1 -0.8,-0.5 -0.2,-0.6 m -5.1,-78.6 1,0.1 0.5,-0.5 0.2,-0.5 v -0.7 l -0.4,-0.5 -1,-0.8 -0.7,-0.6 -0.3,-0.8 v -0.7 l 0.4,-0.8 0.5,-0.4 0.4,-0.2 0.9,0.1 1.1,0.5 0.7,0.7 0.2,0.4 v 0.6 l -0.4,0.9 -0.5,0.4 -0.8,0.3 -0.9,-0.1 -1.2,-0.2 h -0.7 l -0.5,0.4 -0.3,0.6 v 0.6 l 0.7,0.7 1.3,0.5 m -104.8,39.8 h 0.7 l 1.1,-0.5 -2.5,5.8 m 6.6,-4.3 -4.5,2.6 4.1,1.9 m 0.4,-4.5 -2.6,5.8 m -61,-58.5 0.3,-0.2 0.6,-0.1 0.4,0.1 0.6,0.4 0.7,1 v 0.6 l -0.1,0.5 -0.3,0.5 -0.5,0.4 h -0.7 -1.1 l -4.1,-0.9 2.2,3.5 m 4.7,-1.7 0.6,0.3 1.3,0.3 -5.4,3.4 m 366.9,237.3 0.1,-3.3 2.4,1.8 v -0.9 l 0.3,-0.6 0.3,-0.3 0.9,-0.2 h 0.6 l 0.9,0.3 0.6,0.6 0.3,0.9 v 0.9 l -0.4,0.9 -0.3,0.3 -0.6,0.3 m -5,-6 v -3.3 l 2.4,1.8 v -0.9 l 0.3,-0.6 0.3,-0.3 0.9,-0.3 h 0.6 l 0.9,0.3 0.6,0.6 0.3,0.9 v 0.9 l -0.3,0.9 -0.3,0.3 -0.6,0.3 m -40.6,129.5 -1.4,2.6 2.2,1.6 -0.1,-0.5 0.1,-0.9 0.5,-0.8 0.7,-0.6 0.8,-0.2 0.9,0.1 0.6,0.3 0.6,0.7 0.2,0.8 -0.2,1 -0.4,0.8 -0.7,0.6 -0.4,0.1 h -0.7 m 0.7,-9.9 h -0.6 l -0.7,0.6 -0.3,0.6 -0.2,0.9 0.5,1 1.1,0.9 1.4,0.8 1.1,0.3 0.9,-0.2 0.7,-0.7 0.1,-0.2 0.2,-1 -0.2,-0.8 -0.7,-0.7 -0.2,-0.1 -1,-0.2 -0.8,0.2 -0.7,0.7 -0.1,0.2 -0.2,1 0.2,0.8 0.7,0.7 m -92.7,-3.1 -2.9,-1.7 2.8,-1.1 -0.8,-0.5 -0.3,-0.6 -0.1,-0.4 0.2,-0.9 0.3,-0.5 0.7,-0.6 0.8,-0.2 1,0.2 0.7,0.4 0.6,0.7 0.2,0.5 -0.1,0.6 m -8.5,0.9 0.9,0.2 0.6,-0.4 0.3,-0.5 0.1,-0.7 -0.4,-0.5 -0.9,-0.9 -0.6,-0.7 -0.2,-0.8 v -0.7 l 0.5,-0.8 0.6,-0.4 0.4,-0.1 0.9,0.3 1,0.6 0.7,0.7 0.1,0.4 -0.1,0.7 -0.4,0.7 -0.6,0.4 -0.8,0.2 -1,-0.2 -1.1,-0.4 h -0.7 l -0.6,0.4 -0.3,0.5 v 0.6 l 0.6,0.8 1.1,0.6 m 28.1,84.9 -2.5,1.6 1.1,2.4 0.1,-0.4 0.6,-0.7 0.8,-0.5 0.9,-0.2 0.8,0.2 0.8,0.6 0.3,0.6 0.2,0.9 -0.2,0.8 -0.6,0.7 -0.8,0.5 -0.9,0.2 -0.4,-0.1 -0.6,-0.3 m 5.4,-9.3 0.7,6.9 m -4.3,-4.7 3.6,-2.2 m -61.7,4.8 -4.5,2.4 4,2 m 0.5,-4.4 -2.8,5.6 m 8,-2 v -0.7 l -0.7,-0.6 -0.5,-0.3 -1,-0.1 -0.9,0.5 -0.9,1.2 -0.7,1.4 -0.3,1.2 0.3,0.8 0.7,0.6 0.3,0.2 0.9,0.1 0.8,-0.3 0.7,-0.6 0.1,-0.3 0.1,-0.9 -0.2,-0.8 -0.7,-0.7 -0.3,-0.1 -0.9,-0.2 -0.8,0.3 -0.7,0.7 m 38.4,-110.7 2.5,2.2 -3,0.6 0.7,0.6 0.2,0.6 v 0.4 l -0.3,0.9 -0.4,0.4 -0.9,0.5 h -0.8 l -0.9,-0.3 -0.6,-0.6 -0.5,-0.9 v -0.4 l 0.1,-0.6 m 8.5,0.8 -0.8,-0.4 -0.6,0.2 -0.5,0.5 -0.1,0.6 0.2,0.6 0.7,1.1 0.5,0.8 v 0.9 l -0.2,0.6 -0.6,0.7 -0.6,0.2 h -0.4 l -0.9,-0.4 -0.9,-0.8 -0.4,-0.8 -0.1,-0.4 0.2,-0.7 0.6,-0.6 0.6,-0.3 h 0.9 l 0.9,0.4 1,0.6 0.7,0.1 0.6,-0.2 0.4,-0.5 0.2,-0.6 -0.5,-0.8 -1,-0.9 m 24.2,-48.1 -2.3,2.4 -0.5,-3 -0.6,0.7 -0.6,0.2 h -0.4 l -0.9,-0.4 -0.4,-0.4 -0.5,-0.9 v -0.8 l 0.4,-0.9 0.6,-0.6 0.9,-0.5 h 0.4 l 0.6,0.2 m -2.8,10.4 -2.4,-6.6 m 5.3,3.5 -2.9,3.1 m -110.6,112.1 -5,1.4 3.5,2.8 m 1.5,-4.2 -4,4.9 m 5,-2.1 0.7,0.2 1.3,-0.2 -4,4.9 m 36.4,-109.4 -1.9,-2.8 3,0.2 -0.5,-0.8 v -0.6 l 0.1,-0.5 0.5,-0.7 0.5,-0.3 1,-0.3 0.8,0.2 0.7,0.6 0.5,0.7 0.3,1 -0.1,0.4 -0.3,0.6 m -6.3,-3 -0.2,0.2 -0.7,0.1 -0.4,-0.1 -0.6,-0.3 -0.6,-1.1 -0.1,-0.6 0.1,-0.4 0.3,-0.6 0.5,-0.3 0.7,-0.1 h 1 l 4.2,0.8 -2.3,-3.5 m -41.9,-41.7 -2.5,-2.2 2.9,-0.6 -0.7,-0.6 -0.2,-0.6 -0.1,-0.4 0.4,-0.9 0.4,-0.5 0.8,-0.5 0.8,-0.1 0.9,0.4 0.7,0.6 0.5,0.8 v 0.4 l -0.1,0.7 m -9.9,-1.6 5,-1.2 -3.4,-2.9 m -1.6,4.1 4.1,-4.8 m -37.9,37.6 -2.2,-4.7 -2.2,3.9 m 4.4,0.8 -5.5,-3.2 m 3.2,7 0.2,-0.9 -0.5,-1 -1.1,-1 -0.8,-0.5 -1.5,-0.4 h -1 l -0.7,0.7 -0.3,0.5 -0.2,0.9 0.5,1 1.1,1 0.8,0.4 1.4,0.5 1.1,-0.1 0.7,-0.6 0.3,-0.4 m -45.8,181.8 2.3,2.4 -3,0.3 0.6,0.7 0.2,0.6 v 0.5 l -0.5,0.8 -0.4,0.4 -0.9,0.4 h -0.8 l -0.9,-0.5 -0.6,-0.7 -0.4,-0.8 v -0.5 l 0.3,-0.6 m 8.5,4.8 -0.9,0.4 -0.9,-0.1 -0.8,-0.4 -0.2,-0.2 -0.4,-0.9 0.1,-0.9 0.4,-0.8 0.2,-0.2 0.9,-0.4 0.8,0.1 0.9,0.4 0.2,0.2 0.4,0.9 -0.1,0.9 -0.6,1 -1.1,1 -1.4,0.8 -1,0.2 -0.9,-0.5 -0.4,-0.4 -0.3,-0.9 0.2,-0.6 m 87.3,-49.6 5,-1.1 -3.4,-3 m -1.6,4.1 4.1,-4.7 m -5.1,1.9 -0.6,-0.2 -1.3,0.1 4.2,-4.7 m -32.6,41.7 -0.2,5.2 3.7,-2.5 m -3.5,-2.7 3.4,5.3 m 0.1,-5.7 -0.2,-0.3 v -0.6 -0.5 l 0.4,-0.5 1,-0.7 0.6,-0.1 0.5,0.1 0.5,0.4 0.4,0.5 v 0.6 1.1 l -0.8,4.2 3.5,-2.3 m -84,-111.6 1.7,-4.9 -4.3,1.3 m 2.6,3.6 -1.8,-6.1 m -4.5,6.9 0.5,0.5 h 0.9 l 0.6,-0.1 0.8,-0.6 0.3,-1 -0.1,-1.5 -0.5,-1.5 -0.6,-1 -0.7,-0.4 -1,-0.1 -0.3,0.1 -0.8,0.6 -0.4,0.7 v 1 l 0.1,0.3 0.5,0.7 0.8,0.4 0.9,0.1 0.3,-0.1 0.8,-0.6 0.4,-0.7 v -1 m -28.7,103.6 -2.9,4.3 4.5,-0.1 m -1.6,-4.2 0.1,6.3 m 6.6,-6.4 -2.9,6.4 m -1.3,-6.3 4.2,-0.1 m -44.3,-52.9 -0.9,-5.1 -3.1,3.2 m 4,1.9 -4.5,-4.4 m 1.2,5.6 0.2,0.2 0.2,0.6 v 0.4 l -0.2,0.7 -0.8,0.8 -0.6,0.3 h -0.5 l -0.6,-0.2 -0.4,-0.5 -0.2,-0.6 -0.3,-1 v -4.3 l -3,3 m -9.5,68.3 -0.7,5.1 4,-2.1 m -3.3,-3 3,5.6 m 3,-8.7 0.3,7 m -4,-5 3.7,-2 m -22.1,-9.4 0.6,3.2 -2.7,-1.3 0.2,0.9 -0.2,0.6 -0.3,0.4 -0.8,0.4 -0.6,0.1 -0.9,-0.1 -0.7,-0.5 -0.5,-0.8 -0.1,-0.9 0.1,-1 0.2,-0.3 0.6,-0.4 m 4.5,8.6 -0.9,-0.2 -0.7,-0.4 -0.4,-0.9 -0.1,-0.3 0.2,-0.9 0.4,-0.7 0.9,-0.5 h 0.3 l 0.9,0.1 0.7,0.5 0.5,0.8 v 0.3 l -0.1,1 -0.5,0.7 -1.2,0.5 -1.4,0.2 h -1.6 l -0.9,-0.4 -0.5,-0.9 -0.1,-0.6 0.1,-0.9 0.6,-0.4 m 138.8,-239.7 -0.7,0.2 -1.1,0.6 1.5,-6.1 m -5.7,5.4 3.9,-3.4 -4.4,-1 m 0.5,4.4 1.5,-6.1 m 11.9,43 0.1,-0.6 -0.2,-1.3 5.1,3.7 m -2.6,-7.7 -1.7,2.5 2,1.8 v -0.4 l 0.2,-0.9 0.6,-0.8 0.7,-0.5 0.9,-0.2 0.9,0.3 0.5,0.4 0.5,0.7 0.2,0.9 -0.3,0.9 -0.5,0.7 -0.8,0.6 h -0.4 l -0.7,-0.1 m -45.2,16.1 h 0.6 l 1.3,-0.4 -3,5.6 m 6.9,-2.7 v -0.7 l -0.7,-0.7 -0.5,-0.3 -1,-0.1 -0.9,0.5 -1,1.2 -0.7,1.3 -0.3,1.2 0.3,0.8 0.7,0.7 0.2,0.1 1,0.2 0.8,-0.3 0.7,-0.6 0.1,-0.3 0.1,-0.9 -0.2,-0.8 -0.7,-0.7 -0.2,-0.2 -1,-0.1 -0.8,0.2 -0.7,0.7 m 124.1,-74.8 0.2,3.3 -2.5,-1.7 v 0.9 l -0.3,0.6 -0.2,0.4 -0.9,0.3 -0.6,0.1 -0.9,-0.3 -0.7,-0.5 -0.3,-0.9 -0.1,-0.9 0.3,-0.9 0.2,-0.4 0.6,-0.3 m 4,5 0.4,0.6 0.9,0.9 -6.3,0.3 m 40.7,-28.5 0.1,0.3 -0.2,0.6 -0.2,0.4 -0.5,0.4 -1.2,0.2 -0.7,-0.2 -0.3,-0.2 -0.4,-0.5 -0.2,-0.6 0.2,-0.7 0.4,-1 2.4,-3.5 -4.1,0.8 m -4.2,5.1 0.2,-0.9 0.4,-0.7 0.9,-0.5 h 0.3 l 0.9,0.1 0.7,0.5 0.5,0.8 v 0.3 l -0.1,0.9 -0.5,0.7 -0.8,0.5 -0.3,0.1 -0.9,-0.2 -0.7,-0.4 -0.6,-1.2 -0.2,-1.4 v -1.6 l 0.4,-1 0.8,-0.4 0.6,-0.1 0.9,0.1 0.4,0.5 m -257.7,-274.8 0.6,0.3 1.2,0.1 -5,3.8 m 8.3,0.3 -6.8,1.4 m 4.3,-4.8 2.5,3.4 m -6.5,-63.8 0.1,0.3 v 0.7 l -0.1,0.4 -0.4,0.5 -1.1,0.5 h -0.7 l -0.4,-0.2 -0.5,-0.4 -0.3,-0.5 v -0.7 l 0.2,-1.1 1.4,-4 -3.8,1.8 m -2.7,6 -0.2,-0.9 0.3,-0.8 0.7,-0.7 0.3,-0.1 0.9,-0.1 0.8,0.3 0.7,0.6 0.1,0.3 0.1,0.9 -0.3,0.8 -0.6,0.7 -0.3,0.1 -1,0.1 -0.8,-0.2 -0.7,-1 -0.7,-1.3 -0.4,-1.5 0.2,-1.1 0.7,-0.7 0.5,-0.2 1,-0.1 0.5,0.4 m 60.4,20.1 -2.3,-2.4 3,-0.3 -0.6,-0.7 -0.2,-0.6 v -0.5 l 0.4,-0.8 0.5,-0.4 0.8,-0.4 h 0.9 l 0.8,0.5 0.6,0.6 0.4,0.9 v 0.4 l -0.2,0.6 m -8.6,-1.6 0.8,0.4 1.1,-0.2 1.3,-0.8 0.6,-0.6 0.9,-1.3 0.2,-1 -0.4,-0.9 -0.4,-0.4 -0.8,-0.5 -1.1,0.2 -1.3,0.8 -0.6,0.7 -0.9,1.2 -0.2,1.1 0.4,0.8 0.3,0.3 m 87.5,17.2 0.7,-0.6 0.1,-0.6 -0.2,-0.6 -0.5,-0.5 h -0.6 l -1.3,0.1 h -0.9 l -0.8,-0.4 -0.5,-0.5 -0.3,-0.8 0.1,-0.7 0.2,-0.4 0.8,-0.5 1.1,-0.4 h 1 l 0.3,0.1 0.5,0.5 0.3,0.9 -0.1,0.6 -0.3,0.8 -0.8,0.6 -1,0.6 -0.5,0.5 -0.1,0.7 0.2,0.6 0.5,0.4 h 0.9 l 1.3,-0.4 m -7.1,2.5 2.8,-1 -0.6,-2.7 -0.2,0.4 -0.7,0.6 -0.9,0.3 h -0.9 l -0.8,-0.4 -0.6,-0.7 -0.2,-0.6 V 77 l 0.4,-0.8 0.7,-0.6 0.9,-0.3 h 0.9 l 0.4,0.2 0.5,0.5 m 32.3,42.1 0.2,1 0.6,0.3 h 0.6 l 0.6,-0.2 0.3,-0.6 0.4,-1.2 0.4,-0.9 0.6,-0.6 0.6,-0.2 h 0.9 l 0.6,0.4 0.3,0.3 0.2,0.9 v 1.2 l -0.4,0.9 -0.3,0.3 -0.6,0.2 h -0.9 l -0.6,-0.4 -0.6,-0.6 -0.2,-0.9 -0.3,-1.2 -0.2,-0.6 -0.6,-0.4 h -0.6 l -0.6,0.3 -0.4,0.8 v 1.4 m 0.3,-7.1 4,3.2 0.3,-4.5 m -4.3,1.3 6.3,0.3"
       id="nums_002"
       stroke="#000000"
       stroke-width="1" />
    <path
       d="m 775.4,172.1 118.4,53.5 132,85.2 18.9,56.1 -0.9,137.8 -70.6,126 -64.7,39.5 -62.9,-31.3 -39.1,-32.1 37.9,33.4 -94.4,61.7 -35.6,-38.7 -56.4,1.3 -49.9,26.4 -9.2,-51.9 78.6,-80.9 67.4,-20 59.6,-104.4 40.4,34.1 48.3,73.6 38.9,23.3 -33.6,-30.4 77,-80.7 -95.9,57 -49,-73.1 -3.2,-50.4 76,-15.2 -134.6,-6.6 -68.8,42.1 85.5,20.4 -50.1,70.5 -46.7,-24.4 -93.7,-21.8 -46.9,-44.4 60.5,-9.9 -37.8,-48.3 -23.6,-60.1 95.3,12.9 46.9,24.1 76.7,-40 142.6,18.5 -140.1,-32.5 -80.3,-35.7 -43.2,-68.2 -81,-107.6 70,-33.2 58,60.9 89.7,-31.3 z"
       id="coupes_002"
       stroke="#ff0000"
       stroke-width="1.27"
       sodipodi:nodetypes="ccccccccccccccccccccccccccccccccccccccccccccccccc" />
    <path
       d="M 903.4,371.9 766.1,286.4 m 142.6,18.5 66.8,148.7 m -95.9,57 23.8,-138.7 m -134.6,-6.6 -79.4,-38.9 m 10.6,81 -91.4,-9.6 m 0,0 80.8,-71.4 m -118.6,23.1 118.6,-23.1 m -118.6,23.1 71.7,-47.2 M 595,452.1 608.6,397.8 m 91.4,9.6 -105,44.7 m 449.7,-85.2 -69.2,86.7 m -66.8,-148.7 117.1,5.9 m -117.1,-5.9 -14.9,-79.3 m -125.2,46.8 125.2,-46.8 m -125.2,46.8 6.8,-100.3 m -87.1,64.6 87.1,-64.6 m -87.1,64.6 3.8,-148.1 m -47,79.9 47,-79.9 m 351.7,416.1 -68.3,-51.1 m 68.3,51.1 -111.7,60 m 0,0 43.4,-111.1 m -2.3,177.1 -41.1,-66 m 41.1,66 -127.6,8.2 m 0,0 86.5,-74.2 m -86.5,74.2 47.6,-97.5 m -86.7,65.4 86.7,-65.4 m -86.7,65.4 38.4,-139 m -38.4,139 -2,-173.1 m -90.1,229.5 30.5,-125.1 m 61.6,68.7 -92.1,56.4 M 806.5,606.8 750,701.9 M 658,664.5 677.5,558.1 M 658,664.5 598.9,639 m 186.6,-211.2 -96.8,46.1"
       id="plisM_002"
       stroke="#a52a2a"
       stroke-dasharray="4" />
    <path
       d="m 908.7,304.9 -5.3,67 m 72.1,81.7 -72.1,-81.7 m -72.8,65.6 72.8,-65.6 m -134.6,-6.6 -2.7,-78.9 m -66.1,121 -10.6,-81 m 10.6,81 -11.3,66.5 m 220,-169 136,62 M 692.1,88.6 l 83.3,83.5 m 31.1,434.7 -61.6,-68.7 M 714.4,663.2 677.5,558.1 M 564.1,60.9 l 128,27.7"
       id="plisV_002"
       stroke="#008000"
       stroke-dasharray="4, 1, 1, 1"
       stroke-width="1.27" />
    <path
       d="m 904,336.4 4,4 m 0,-4 -4,4 m 33.4,70.3 4,4 m 0,-4 -4,4 m -72.4,-12 4,4 m 0,-4 -4,4 m -99.6,-82.9 4,4 m 0,-4 -4,4 m -72.7,37.1 4,4 m 0,-4 -4,4 m -0.3,69.8 4,4 m 0,-4 -4,4 m 282.3,-108.8 4,4 m 0,-4 -4,4 m -243,-209.5 4,4 m 0,-4 -4,4 m 42,438.1 4,4 m 0,-4 -4,4 m -79.8,34.2 4,4 m 0,-4 -4,4 m -67.8,-539.9 4,4 m 0,-4 -4,4"
       id="marqueV_002"
       stroke="#008000" />
    <path
       d="M 720.2,427.7 V 427 l 0.7,-1.5 0.8,-0.8 1.5,-0.7 h 3 l 1.5,0.7 0.7,0.8 0.8,1.5 v 1.5 l -0.8,1.5 -1.5,2.2 -7.5,7.5 h 10.5"
       id="titre_2"
       stroke="#4b0082" />
  </g>
  <g
     id="page_003">
    <path
       d="m 1431.3,670.3 -0.3,-0.2 -0.2,-0.6 v -0.4 l 0.3,-0.7 0.8,-0.8 0.6,-0.2 h 0.5 l 0.6,0.2 0.4,0.4 0.2,0.7 0.2,1 v 4.3 l 3,-3 m -1.1,-7.8 -2.1,2.1 1.7,2.1 V 667 l 0.4,-0.8 0.7,-0.7 0.8,-0.4 h 0.9 l 0.8,0.5 0.4,0.4 0.5,0.8 -0.1,0.9 -0.4,0.8 -0.6,0.7 -0.9,0.4 h -0.4 l -0.6,-0.2 m -42.8,-34.6 0.4,-0.5 -0.1,-0.9 -0.2,-0.6 -0.6,-0.7 -1.1,-0.2 -1.5,0.3 -1.4,0.7 -0.9,0.7 -0.4,0.8 0.1,0.9 0.2,0.3 0.6,0.7 0.8,0.3 0.9,-0.1 0.3,-0.1 0.7,-0.6 0.3,-0.8 -0.1,-0.9 -0.1,-0.3 -0.6,-0.7 -0.8,-0.3 -1,0.1 m 6.5,6.6 0.5,-0.6 -0.1,-0.9 -0.3,-0.6 -0.6,-0.7 -1.1,-0.2 -1.5,0.4 -1.3,0.6 -1,0.7 -0.3,0.8 0.1,1 0.1,0.2 0.6,0.7 0.8,0.4 1,-0.1 0.2,-0.1 0.7,-0.7 0.3,-0.8 v -0.9 l -0.2,-0.3 -0.6,-0.7 -0.8,-0.3 -0.9,0.1 m -53.8,-78.6 v -0.6 l -0.7,-0.7 -0.5,-0.3 -0.9,-0.2 -1,0.5 -1,1.2 -0.7,1.3 -0.3,1.2 0.2,0.8 0.7,0.7 0.2,0.1 1,0.2 0.8,-0.2 0.7,-0.7 0.1,-0.2 0.2,-1 -0.2,-0.8 -0.7,-0.7 -0.2,-0.1 -1,-0.2 -0.8,0.2 -0.7,0.7 m 10,0.7 -5.7,4.1 m 2,-6.1 3.7,2 m 157.7,-30 0.3,0.6 0.9,0.3 h 0.6 l 0.9,-0.3 0.6,-1 0.3,-1.5 -0.1,-1.5 -0.3,-1.2 -0.6,-0.5 -0.9,-0.3 h -0.3 l -0.9,0.3 -0.6,0.6 -0.3,0.9 v 0.3 l 0.4,0.9 0.6,0.6 0.9,0.3 h 0.3 l 0.9,-0.3 0.6,-0.7 0.2,-0.9 m -8,4.5 2.8,-4.3 -4.5,0.2 m 1.7,4.1 -0.2,-6.3 m 19,100.9 0.5,-0.4 0.6,-1.1 1.6,6.1 m 0.1,-6.7 3.2,-0.8 -1.2,2.7 0.9,-0.2 0.6,0.2 0.4,0.2 0.5,0.8 0.2,0.6 -0.1,0.9 -0.4,0.7 -0.8,0.5 -0.9,0.3 -1,-0.1 -0.3,-0.2 -0.5,-0.5 m 35.2,-55.4 -0.5,0.4 v 1 l 0.2,0.6 0.6,0.7 1,0.3 1.5,-0.2 1.4,-0.5 1.1,-0.7 0.4,-0.7 v -1 l -0.1,-0.3 -0.6,-0.7 -0.8,-0.4 h -0.9 l -0.3,0.1 -0.8,0.6 -0.3,0.8 v 0.9 l 0.1,0.3 0.5,0.7 0.8,0.4 h 0.9 m -4.3,-4.4 -0.3,0.1 -0.6,-0.1 -0.4,-0.2 -0.5,-0.4 -0.4,-1.2 0.1,-0.6 0.2,-0.4 0.5,-0.5 0.5,-0.2 0.7,0.1 1,0.3 3.8,1.9 -1.3,-4 m -201.8,-127.6 0.5,0.4 1,-0.1 0.5,-0.2 0.7,-0.7 0.2,-1.1 -0.4,-1.4 -0.6,-1.4 -0.8,-1 -0.8,-0.3 -0.9,0.1 -0.3,0.2 -0.7,0.6 -0.3,0.8 0.1,1 0.1,0.2 0.7,0.7 0.8,0.3 0.9,-0.1 0.3,-0.1 0.7,-0.7 0.3,-0.8 -0.1,-0.9 m -3.4,4.6 -0.4,0.5 -0.4,1.2 -2.7,-5.7 m 168.6,53.3 -0.2,0.7 0.4,0.8 0.5,0.4 0.8,0.4 1.1,-0.2 1.2,-0.8 1.1,-1.1 0.6,-1.1 v -0.8 l -0.4,-0.9 -0.3,-0.2 -0.8,-0.4 h -0.9 l -0.8,0.5 -0.2,0.2 -0.4,0.8 v 0.9 l 0.4,0.8 0.2,0.2 0.9,0.4 h 0.8 l 0.9,-0.4 m -7,-0.9 -2.3,-2.4 2.9,-0.4 -0.6,-0.6 -0.2,-0.7 v -0.4 l 0.4,-0.9 0.4,-0.4 0.8,-0.4 h 0.9 l 0.8,0.4 0.7,0.6 0.4,0.9 v 0.4 l -0.2,0.6 m -27.1,20.9 -0.4,-0.5 h -1 l -0.6,0.2 -0.7,0.5 -0.4,1 0.2,1.6 0.4,1.4 0.6,1.1 0.8,0.4 h 0.9 l 0.3,-0.1 0.8,-0.5 0.4,-0.8 v -0.9 l -0.1,-0.3 -0.5,-0.8 -0.8,-0.4 h -0.9 l -0.3,0.1 -0.8,0.5 -0.4,0.7 v 1 m 6.7,-6.4 -1.7,4.9 4.3,-1.3 m -2.6,-3.6 1.7,6.1 m -60.5,-98.5 1.4,-6.9 m 2.7,5.9 -4.1,1 m -2.9,0.7 0.8,-0.5 0.4,-1 -0.1,-1.6 -0.2,-0.8 -0.6,-1.4 -0.8,-0.7 -1,-0.1 -0.6,0.1 -0.8,0.5 -0.3,1 v 1.6 l 0.2,0.8 0.7,1.4 0.8,0.8 h 0.9 l 0.5,-0.1 m 49.2,20.8 7,0.7 m -5.6,3.2 -1.4,-3.9 m 1,-1.5 -0.5,-0.5 -1.1,-0.5 5.9,-2.1 m -220.2,216.7 -0.6,-0.3 -0.9,0.3 -0.5,0.4 -0.5,0.8 v 1.1 l 0.7,1.3 1,1.2 0.9,0.8 0.9,0.1 0.9,-0.4 0.2,-0.1 0.5,-0.8 0.1,-0.9 -0.3,-0.9 -0.2,-0.2 -0.8,-0.5 -0.8,-0.1 -0.9,0.3 -0.2,0.2 -0.6,0.8 -0.1,0.8 0.4,0.9 m 4.7,-7.9 -0.6,-0.3 -0.9,0.3 -0.4,0.4 -0.6,0.8 0.1,1 0.7,1.4 0.9,1.2 1,0.7 0.9,0.2 0.8,-0.4 0.3,-0.2 0.5,-0.7 0.1,-0.9 -0.3,-0.9 -0.2,-0.2 -0.8,-0.5 -0.8,-0.1 -0.9,0.3 -0.3,0.2 -0.5,0.8 -0.1,0.8 0.3,0.9 m 37.1,-62.1 -0.5,0.5 v 0.9 l 0.1,0.6 0.6,0.8 1,0.3 1.5,-0.1 1.5,-0.4 1,-0.6 0.4,-0.8 0.1,-0.9 -0.1,-0.3 -0.5,-0.8 -0.8,-0.4 -0.9,-0.1 -0.3,0.1 -0.8,0.6 -0.4,0.7 -0.1,1 0.1,0.2 0.6,0.8 0.7,0.4 1,0.1 m -6.6,-7.6 6.9,1.1 m -5.7,2.9 -1.2,-4 M 1179,688.9 v -0.3 l 0.2,-0.6 0.2,-0.3 0.6,-0.4 1.2,-0.2 0.6,0.2 0.3,0.2 0.4,0.6 0.1,0.6 -0.2,0.6 -0.5,1 -2.5,3.4 4.2,-0.6 m 3.9,-6.1 -0.4,-0.5 -1,-0.2 -0.5,0.1 -0.9,0.5 -0.4,0.9 -0.1,1.6 0.2,1.4 0.5,1.2 0.7,0.5 0.9,0.2 0.3,-0.1 0.8,-0.4 0.5,-0.7 0.2,-0.9 v -0.3 l -0.5,-0.9 -0.7,-0.5 -0.9,-0.2 -0.3,0.1 -0.8,0.4 -0.5,0.7 -0.2,0.9 m -40,-153.5 v -7 m 3.8,5.2 -3.8,1.8 m -4.3,2 2.7,-1.3 -0.8,-2.6 -0.2,0.4 -0.7,0.7 -0.8,0.4 -0.9,0.1 -0.8,-0.3 -0.7,-0.7 -0.2,-0.6 -0.2,-0.9 0.3,-0.8 0.7,-0.6 0.8,-0.4 1,-0.1 0.4,0.1 0.5,0.4 m -41.5,81.8 -0.3,-0.9 -0.6,-0.3 -0.6,0.1 -0.6,0.3 -0.3,0.6 -0.2,1.2 -0.3,0.9 -0.6,0.6 -0.6,0.3 -0.9,0.1 -0.6,-0.3 -0.3,-0.3 -0.3,-0.9 -0.1,-1.2 0.3,-0.9 0.3,-0.3 0.6,-0.3 0.9,-0.1 0.6,0.3 0.6,0.6 0.3,0.9 0.4,1.2 0.3,0.6 0.6,0.3 0.6,-0.1 0.6,-0.3 0.3,-0.9 -0.1,-1.3 m 0.2,5.8 -0.3,-0.9 -1,-0.6 -1.5,-0.3 -0.9,0.1 -1.5,0.3 -0.8,0.6 -0.3,0.9 v 0.6 l 0.3,0.9 0.9,0.6 1.6,0.3 0.9,-0.1 1.4,-0.3 0.9,-0.6 0.3,-0.9 v -0.5 m 16.8,62.6 3.1,1.1 -2.5,1.7 0.9,0.3 0.5,0.4 0.2,0.4 -0.1,1 -0.2,0.5 -0.5,0.8 -0.8,0.4 -0.9,-0.1 -0.9,-0.2 -0.7,-0.6 -0.2,-0.4 -0.1,-0.7 m 10.1,-1.9 -2.9,-1 -1.1,2.5 0.4,-0.2 h 0.9 l 0.9,0.3 0.7,0.6 0.4,0.7 v 1 l -0.2,0.6 -0.6,0.7 -0.7,0.4 h -1 l -0.8,-0.3 -0.8,-0.6 -0.2,-0.4 -0.1,-0.6 m 216.6,-273.9 -0.7,-0.2 -0.8,0.4 -0.5,0.4 -0.4,0.9 0.2,1 0.9,1.3 1.1,1.1 1,0.6 h 0.9 l 0.8,-0.4 0.2,-0.2 0.4,-0.9 V 419 l -0.4,-0.9 -0.2,-0.2 -0.8,-0.4 h -0.9 l -0.8,0.4 -0.3,0.2 -0.4,0.9 v 0.8 l 0.5,0.9 m 1.5,-5.5 0.2,-0.7 v -1.2 l 4.5,4.4 m -86.9,-100.7 -5.4,-4.3 m 6.4,0.3 -1,4 m -1.9,1.3 0.3,0.1 0.6,0.4 0.2,0.4 0.1,0.6 -0.3,1.2 -0.4,0.5 -0.3,0.2 -0.7,0.2 -0.6,-0.2 -0.5,-0.4 -0.7,-0.8 -2.3,-3.6 -0.9,4.1 m 115.7,23.2 6.5,2.7 m -6.2,1.5 -0.3,-4.2 m -0.1,-3 0.3,0.9 1,0.6 1.5,0.2 h 0.9 l 1.5,-0.4 0.8,-0.7 0.3,-0.9 -0.1,-0.6 -0.3,-0.9 -0.9,-0.5 -1.5,-0.2 h -0.9 l -1.5,0.4 -0.9,0.6 -0.2,1 v 0.4 m -0.9,-66.1 6.1,3.3 m -6.4,0.8 0.3,-4.1 m 0.1,-1.8 0.2,-3.3 2.3,2 0.1,-0.9 0.3,-0.6 0.3,-0.3 0.9,-0.2 h 0.6 l 0.9,0.4 0.6,0.6 0.2,0.9 v 0.9 l -0.4,0.9 -0.3,0.3 -0.6,0.2 m -95.8,-39.2 -5.7,-4 m 6.4,-0.1 -0.7,4.1 m -1.7,4.6 0.6,-0.2 0.5,-0.9 0.1,-0.6 -0.1,-0.9 -0.8,-0.7 -1.5,-0.6 -1.4,-0.3 -1.3,0.1 -0.7,0.5 -0.4,0.9 -0.1,0.2 0.2,1 0.5,0.7 0.8,0.4 0.3,0.1 0.9,-0.2 0.7,-0.4 0.5,-0.9 v -0.3 l -0.1,-0.9 -0.5,-0.7 -0.8,-0.5 m 135.9,-98 5.4,-4.4 m -1.6,6.2 -3.8,-1.8 m -3.9,-1.8 4.5,-2.5 -4.1,-1.9 m -0.4,4.4 2.7,-5.6 m -11.3,98.9 -0.6,-0.3 -0.9,0.3 -0.5,0.3 -0.6,0.8 0.1,1.1 0.6,1.4 0.9,1.2 0.9,0.8 0.9,0.1 0.9,-0.3 0.2,-0.2 0.6,-0.7 0.1,-0.9 -0.3,-0.9 -0.1,-0.2 -0.8,-0.6 -0.9,-0.1 -0.9,0.3 -0.2,0.2 -0.6,0.7 -0.1,0.9 0.3,0.9 m 6,-7 0.3,0.9 -0.1,0.9 -0.6,0.7 -0.2,0.2 -0.9,0.3 -0.9,-0.1 -0.7,-0.6 -0.2,-0.2 -0.3,-0.9 0.1,-0.9 0.6,-0.7 0.2,-0.2 0.9,-0.3 0.9,0.1 0.9,0.8 0.9,1.2 0.6,1.4 0.1,1.1 -0.6,0.8 -0.5,0.3 -0.9,0.3 -0.6,-0.3 m 43.7,-22.8 -0.4,-0.6 -0.9,-0.3 -0.6,0.1 -0.9,0.3 -0.5,0.9 -0.3,1.5 0.1,1.5 0.3,1.2 0.6,0.6 0.9,0.3 0.3,-0.1 0.9,-0.3 0.6,-0.6 0.3,-0.9 v -0.3 l -0.4,-0.9 -0.6,-0.6 -0.9,-0.3 -0.3,0.1 -0.9,0.3 -0.6,0.6 -0.2,0.9 m 6.4,-4.4 -0.9,0.3 -0.3,0.6 v 0.6 l 0.3,0.6 0.7,0.3 1.2,0.3 0.9,0.2 0.6,0.6 0.3,0.6 v 0.9 l -0.2,0.6 -0.3,0.3 -0.9,0.3 -1.2,0.1 -0.9,-0.3 -0.3,-0.3 -0.4,-0.6 v -0.9 l 0.3,-0.6 0.6,-0.6 0.9,-0.3 1.2,-0.4 0.5,-0.3 0.3,-0.6 v -0.6 l -0.3,-0.6 -0.9,-0.2 h -1.4 m 29.7,-68.4 0.5,0.5 h 0.9 l 0.6,-0.2 0.8,-0.6 0.2,-1 -0.2,-1.6 -0.5,-1.4 -0.6,-1 -0.8,-0.4 h -0.9 l -0.3,0.1 -0.8,0.6 -0.4,0.8 0.1,0.9 0.1,0.3 0.5,0.7 0.8,0.4 h 0.9 l 0.3,-0.1 0.8,-0.6 0.3,-0.7 v -1 m -6.8,6.8 2.9,-1 -0.6,-2.6 -0.2,0.4 -0.8,0.5 -0.8,0.3 h -1 l -0.7,-0.3 -0.6,-0.8 -0.2,-0.6 v -0.9 l 0.4,-0.8 0.7,-0.5 0.9,-0.3 h 0.9 l 0.4,0.1 0.5,0.5 m 3.8,31.4 -0.6,0.1 -0.7,0.7 -0.2,0.6 -0.1,0.9 0.6,0.9 1.3,0.9 1.4,0.5 1.2,0.2 0.8,-0.3 0.6,-0.7 0.1,-0.3 0.1,-0.9 -0.3,-0.8 -0.7,-0.6 -0.3,-0.2 h -0.9 l -0.8,0.3 -0.7,0.7 -0.1,0.3 v 0.9 l 0.3,0.8 0.7,0.6 m -0.4,-6.1 -0.2,-0.1 -0.5,-0.6 -0.1,-0.3 -0.1,-0.7 0.5,-1.1 0.5,-0.5 0.4,-0.1 0.6,-0.1 0.6,0.3 0.4,0.5 0.6,0.9 1.7,3.9 1.6,-3.9 m -219.9,2.4 -6.6,2.2 m 3.7,-5.2 2.9,3 m 3.6,3.8 -6.7,2.2 m 3.8,-5.2 2.9,3 m -110,293.4 -6.4,2.8 m 3.2,-5.6 3.2,2.8 m 3.5,3.1 -2.2,-1.9 -2,1.8 h 0.4 l 0.9,0.3 0.6,0.6 0.5,0.9 0.1,0.8 -0.4,0.9 -0.4,0.4 -0.8,0.5 -0.9,0.1 -0.8,-0.4 -0.7,-0.6 -0.5,-0.8 v -0.5 l 0.2,-0.6 m -33.2,-92.2 -6.2,-3.3 m 6.3,-0.9 -0.1,4.2 m -2.3,4.9 -0.9,-0.3 -0.6,-0.6 -0.3,-0.9 v -0.3 l 0.4,-0.9 0.6,-0.6 0.9,-0.2 h 0.3 l 0.9,0.3 0.6,0.6 0.2,0.9 v 0.3 l -0.3,0.9 -0.6,0.6 -1.2,0.2 h -1.5 l -1.5,-0.4 -0.9,-0.6 -0.3,-0.9 0.1,-0.6 0.3,-0.9 0.6,-0.3 m 45.4,-65.8 0.7,-6.9 m 3.3,5.5 -4,1.4 m -2.5,0.9 0.8,-0.6 0.1,-0.6 -0.2,-0.6 -0.5,-0.5 h -0.7 l -1.2,0.1 h -1 l -0.7,-0.3 -0.5,-0.5 -0.3,-0.8 v -0.7 l 0.2,-0.4 0.8,-0.6 1.1,-0.4 h 0.9 l 0.4,0.2 0.5,0.4 0.3,0.9 -0.1,0.6 -0.3,0.8 -0.8,0.6 -1,0.7 -0.5,0.5 v 0.6 l 0.2,0.6 0.5,0.5 0.9,-0.1 1.3,-0.4 m 55.4,14.7 7,-0.8 m -4.7,4.4 -2.3,-3.6 m 0.4,-2.2 -0.2,0.2 h -0.7 -0.4 l -0.6,-0.4 -0.6,-1 -0.1,-0.7 0.1,-0.4 0.3,-0.6 0.5,-0.3 0.7,-0.1 1.1,0.1 4.1,0.9 -2.2,-3.6 m 102.8,-206 1,-0.1 0.4,-0.6 0.1,-0.6 -0.2,-0.6 -0.6,-0.4 -1.1,-0.5 -0.8,-0.5 -0.5,-0.7 -0.2,-0.6 0.2,-0.9 0.4,-0.5 0.3,-0.3 0.9,-0.1 1.2,0.2 0.9,0.4 0.2,0.4 0.2,0.6 -0.2,0.9 -0.4,0.6 -0.7,0.4 -0.9,0.2 -1.2,0.1 -0.7,0.2 -0.4,0.5 -0.1,0.6 0.2,0.6 0.8,0.5 1.4,0.2 m -3.6,-2.1 -0.7,0.2 -1,0.8 1.1,-6.2 M 1211.5,95 l 3.6,-3.7 -4.5,-0.7 m 0.9,4.4 1,-6.2 m -7.2,3.1 0.5,-0.9 0.7,-0.5 0.9,-0.1 h 0.3 l 0.8,0.4 0.5,0.7 0.2,1 -0.1,0.3 -0.4,0.8 -0.7,0.5 -0.9,0.2 -0.3,-0.1 -0.9,-0.4 -0.4,-0.7 -0.2,-1.2 0.3,-1.5 0.5,-1.5 0.7,-0.8 1,-0.1 0.6,0.1 0.8,0.4 0.2,0.7 m 5.7,91.1 -0.1,0.9 0.4,0.6 0.5,0.2 h 0.7 l 0.5,-0.4 0.8,-0.9 0.7,-0.7 0.8,-0.2 h 0.7 l 0.8,0.4 0.4,0.5 0.1,0.4 -0.1,1 -0.6,1 -0.6,0.7 -0.4,0.1 h -0.7 l -0.8,-0.4 -0.4,-0.5 -0.3,-0.8 0.2,-1 0.2,-1.2 v -0.6 l -0.4,-0.6 -0.5,-0.2 h -0.7 l -0.6,0.6 -0.6,1.2 m 3.3,-3.3 -0.2,-0.2 -0.4,-0.5 -0.2,-0.4 v -0.7 l 0.6,-1 0.5,-0.4 0.4,-0.2 h 0.7 l 0.5,0.3 0.4,0.5 0.5,1 1.4,4 1.9,-3.7 m -90.2,-92.4 -3.3,-0.5 2.1,-2.1 -0.9,-0.2 -0.5,-0.3 -0.3,-0.4 -0.1,-0.9 0.1,-0.6 0.4,-0.8 0.7,-0.6 0.9,-0.1 0.9,0.1 0.8,0.4 0.3,0.4 0.2,0.6 m -9.5,2.9 0.3,0.6 0.8,0.5 h 0.6 l 0.9,-0.1 0.8,-0.8 0.5,-1.5 0.2,-1.5 -0.2,-1.2 -0.5,-0.7 -0.8,-0.4 h -0.3 l -0.9,0.1 -0.7,0.5 -0.4,0.9 -0.1,0.3 0.2,0.9 0.5,0.7 0.8,0.4 0.3,0.1 1,-0.2 0.6,-0.5 0.5,-0.9 m 23.2,116.2 -3.4,6.1 m -0.8,-6.3 4.2,0.2 m 4.9,2.4 -0.4,0.9 -0.6,0.6 -0.9,0.2 h -0.3 l -0.9,-0.3 -0.6,-0.7 -0.2,-0.9 v -0.3 l 0.4,-0.9 0.6,-0.5 0.9,-0.3 h 0.3 l 0.9,0.4 0.6,0.6 0.2,1.2 -0.1,1.5 -0.4,1.5 -0.7,0.9 -0.9,0.2 h -0.6 l -0.9,-0.4 -0.2,-0.6 m -52,-69.9 -0.3,-0.9 -0.6,-0.3 -0.6,0.1 -0.6,0.3 -0.3,0.6 -0.2,1.2 -0.3,0.9 -0.6,0.6 -0.6,0.3 -0.9,0.1 -0.6,-0.3 -0.3,-0.3 -0.3,-0.9 -0.1,-1.2 0.3,-0.9 0.3,-0.3 0.6,-0.3 0.9,-0.1 0.6,0.3 0.6,0.6 0.3,0.9 0.4,1.2 0.3,0.6 0.6,0.3 0.6,-0.1 0.6,-0.3 0.3,-0.9 -0.1,-1.3 m 0.2,5.8 -0.3,-0.9 -0.9,-0.6 -1.5,-0.3 -0.9,0.1 -1.5,0.3 -0.9,0.7 -0.3,0.9 v 0.6 l 0.4,0.9 0.9,0.5 1.5,0.3 0.9,-0.1 1.5,-0.3 0.9,-0.6 0.2,-0.9 v -0.5 m 288.6,177.8 0.6,-0.3 0.3,-0.9 v -0.6 l -0.3,-0.9 -0.9,-0.5 -1.5,-0.3 h -1.5 l -1.2,0.3 -0.6,0.6 -0.3,0.9 v 0.3 l 0.3,0.9 0.6,0.6 0.9,0.3 h 0.3 l 0.9,-0.3 0.6,-0.6 0.3,-0.9 v -0.3 l -0.3,-0.9 -0.6,-0.6 -0.9,-0.3 m 4.2,5.6 v 3.3 l -2.4,-1.8 v 0.9 l -0.3,0.6 -0.3,0.3 -0.9,0.3 h -0.6 l -0.9,-0.3 -0.6,-0.6 -0.3,-0.9 v -0.9 l 0.3,-0.9 0.3,-0.3 0.6,-0.3 m 46.4,-36.7 0.7,-0.6 v -0.7 l -0.2,-0.5 -0.5,-0.5 h -0.7 l -1.2,0.2 -1,0.1 -0.8,-0.4 -0.5,-0.4 -0.3,-0.8 v -0.7 l 0.2,-0.4 0.7,-0.6 1.1,-0.5 0.9,-0.1 0.4,0.2 0.5,0.4 0.4,0.9 v 0.6 l -0.4,0.8 -0.7,0.7 -1,0.7 -0.4,0.5 v 0.7 l 0.2,0.5 0.5,0.5 1,-0.1 1.2,-0.5 m -7.4,2.1 0.6,0.4 h 0.9 l 0.6,-0.3 0.7,-0.6 0.2,-1.1 -0.3,-1.5 -0.6,-1.3 -0.8,-1 -0.8,-0.3 h -0.9 l -0.3,0.2 -0.7,0.6 -0.3,0.8 0.1,0.9 0.1,0.3 0.6,0.7 0.8,0.3 0.9,-0.1 0.3,-0.1 0.7,-0.6 0.3,-0.8 v -0.9 m -24.2,63.9 -0.1,-0.7 -0.7,-0.6 -0.5,-0.3 h -1 l -0.9,0.6 -0.8,1.2 -0.6,1.4 -0.2,1.3 0.4,0.7 0.7,0.7 0.3,0.1 h 0.9 l 0.8,-0.3 0.6,-0.7 0.1,-0.3 0.1,-0.9 -0.3,-0.8 -0.8,-0.6 -0.2,-0.1 -1,-0.1 -0.8,0.3 -0.6,0.7 m 7.7,-1.4 h -1 l -0.5,0.4 -0.2,0.6 v 0.6 l 0.5,0.6 1,0.7 0.7,0.6 0.3,0.8 0.1,0.7 -0.4,0.8 -0.5,0.4 -0.4,0.2 -0.9,-0.1 -1.1,-0.4 -0.8,-0.6 -0.1,-0.4 -0.1,-0.7 0.4,-0.8 0.5,-0.5 0.8,-0.3 0.9,0.1 1.2,0.1 h 0.7 l 0.5,-0.5 0.2,-0.5 v -0.7 l -0.7,-0.6 -1.3,-0.5 m 43.3,17.1 -0.1,-0.7 -0.7,-0.6 -0.6,-0.2 h -0.9 l -0.9,0.7 -0.8,1.3 -0.5,1.4 -0.1,1.3 0.4,0.7 0.8,0.6 0.2,0.1 h 1 l 0.8,-0.4 0.5,-0.7 0.1,-0.3 v -0.9 l -0.3,-0.8 -0.8,-0.6 -0.3,-0.1 h -0.9 l -0.8,0.4 -0.6,0.7 m 9.2,1 -0.6,0.7 -0.7,0.4 h -1 l -0.3,-0.1 -0.7,-0.6 -0.4,-0.8 v -0.9 l 0.1,-0.3 0.6,-0.7 0.7,-0.4 h 1 l 0.3,0.1 0.7,0.6 0.4,0.7 -0.1,1.3 -0.5,1.4 -0.8,1.3 -0.8,0.7 h -1 l -0.6,-0.2 -0.7,-0.6 -0.1,-0.7 m 50,9.4 -4.4,5.4 m 0.3,-6.4 4.1,1 m 1.7,0.4 3.2,0.8 -2.3,1.9 0.9,0.2 0.5,0.4 0.2,0.4 0.1,1 -0.1,0.5 -0.5,0.8 -0.8,0.5 -0.9,0.1 -0.9,-0.2 -0.8,-0.5 -0.2,-0.4 -0.2,-0.7 m 15.9,-41.7 0.9,0.4 0.6,0.6 0.3,0.9 v 0.3 l -0.3,0.9 -0.7,0.6 -0.9,0.2 h -0.3 l -0.9,-0.3 -0.5,-0.6 -0.3,-0.9 v -0.3 l 0.3,-0.9 0.6,-0.6 1.2,-0.3 1.5,0.1 1.5,0.3 0.9,0.6 0.3,0.9 v 0.6 l -0.4,0.9 -0.6,0.3 m -3.8,-5.3 h -0.3 l -0.6,-0.3 -0.3,-0.3 -0.3,-0.6 v -1.2 l 0.3,-0.6 0.3,-0.3 0.6,-0.3 h 0.6 l 0.6,0.3 0.9,0.6 3,3 v -4.2 m -26,-120.5 v -1 l -0.5,-0.5 -0.5,-0.2 -0.7,0.1 -0.5,0.5 -0.7,1 -0.5,0.8 -0.8,0.3 -0.7,0.1 -0.8,-0.3 -0.5,-0.5 -0.2,-0.3 v -1 l 0.4,-1.1 0.6,-0.8 0.4,-0.2 h 0.7 l 0.8,0.3 0.5,0.4 0.4,0.8 -0.1,1 -0.1,1.2 0.1,0.7 0.5,0.4 0.5,0.2 0.7,-0.1 0.6,-0.7 0.4,-1.3 m -3.3,6.9 0.6,-0.1 0.6,-0.7 0.2,-0.6 v -1 l -0.6,-0.8 -1.3,-0.8 -1.5,-0.5 -1.2,-0.1 -0.8,0.4 -0.5,0.7 -0.1,0.3 v 0.9 l 0.3,0.8 0.8,0.6 0.3,0.1 h 0.9 l 0.8,-0.4 0.5,-0.7 0.1,-0.3 0.1,-0.9 -0.4,-0.8 -0.8,-0.6 m 45.9,-23.8 5.1,-4.9 m -1.2,6.4 -3.9,-1.5 m -0.5,-1.7 h -0.7 l -1.1,0.5 2.2,-5.8 m 7,55.5 0.7,0.7 0.2,0.8 -0.2,0.9 -0.1,0.3 -0.7,0.6 -0.9,0.2 -0.9,-0.1 -0.2,-0.2 -0.7,-0.7 -0.2,-0.8 0.2,-0.9 0.1,-0.3 0.7,-0.6 0.8,-0.3 1.2,0.4 1.3,0.7 1.2,1 0.5,1 -0.2,0.9 -0.3,0.5 -0.7,0.7 -0.7,-0.1 m -0.8,-6.5 -0.2,-0.1 -0.4,-0.6 -0.1,-0.4 v -0.7 l 0.6,-1 0.6,-0.4 0.4,-0.1 h 0.6 l 0.6,0.3 0.3,0.6 0.5,1 1.2,4 2,-3.6"
       id="nums_003"
       stroke="#000000"
       stroke-width="1" />
    <path
       d="m 1271.3,190.7 -34,-36.1 -26.2,52 -114.5,-7.1 -4.4,-130.4 77.3,10.9 81.6,12.8 124.9,22.2 59.7,28.6 63.3,-21.8 -38.7,93.4 -39.9,1.4 -48.2,34.8 -2.8,46 4.7,90.6 -63.8,64.1 82.1,-38.1 88,-21.8 25.4,73 35,34.3 -86.3,25.2 89.9,-2.3 32.5,95.7 -111.7,28.3 -51.4,50.6 -50.8,-116.1 -54,-29.7 17.1,59.2 -99.8,78.2 -82.9,12.6 -50,-17.2 -3.6,-130.4 100.3,-46.7 -83.1,-73.1 4.4,-114.7 84.4,-30.6 42.1,65.7 18,-75.9 z m 229.7,-24.9 72.2,27.6 -50.4,89.4 -0.7,102.7 -44.9,-10.8 -56.1,-19.5 -36.9,-15.2 -0.5,-49.1 86.2,-36.7 z"
       id="coupes_003"
       stroke="#ff0000"
       stroke-width="1.27"
       sodipodi:nodetypes="ccccccccccccccccccccccccccccccccccccccccccccccccc" />
    <path
       d="m 1454.5,524.7 10.7,121.7 m 0,0 -102.2,-65.5 m 0,0 91.5,-56.2 m -145.5,26.5 1.3,-99.1 m 82.1,-38.1 62.1,110.7 m -62.1,-110.7 113.4,51.2 m 0,0 -51.3,59.5 M 1309,551.2 1190.1,506.9 m 0,0 120.2,-54.8 m -1.3,99.1 -82.7,137.4 m -82.9,12.6 46.7,-194.3 m 0,0 47.8,-152.7 m 0,0 72.4,97.9 m -72.4,-97.9 136.2,33.8 M 1255.9,278.3 1374.1,388 m -118.2,-109.7 113.5,19.1 m -113.5,-19.1 116.3,-26.9 m -100.9,-60.7 100.9,60.7 M 1271.3,190.7 1376,115 m 0,0 -3.8,136.4 m 63.5,-107.8 -15.3,73 m 15.3,-73 24.6,71.6 M 1107,433.8 1237.9,354.2 m -126.5,-35.1 126.5,35.1 m -0.6,-199.6 13.8,-61.8 m -40,113.8 L 1169.5,80 m 300.4,174.2 -85.7,85.8 m 85.7,-85.8 -48.8,101 m 101.7,-72.4 -101.7,72.4 m 48.8,-101 52.9,28.6 m 0,0 -45.6,91.9"
       id="plisM_003"
       stroke="#a52a2a"
       stroke-dasharray="4" />
    <path
       d="m 1363,580.9 -52.7,-128.8 m 0,0 144.2,72.6 m 89.9,-2.3 -79.2,124 m -238.9,42.2 -36.2,-181.7 m -46.7,194.3 -53.6,-147.6 m 345.9,-410 -63.5,107.8 M 1237.3,154.6 1376,115 M 1237.3,154.6 1169.5,80 m 41.6,126.6 -118.9,-137.5 m 408.8,96.7 21.8,117"
       id="plisV_003"
       stroke="#008000"
       stroke-dasharray="4, 1, 1, 1"
       stroke-width="1.27" />
    <path
       d="m 1334.6,514.5 4,4 m 0,-4 -4,4 m 45.8,-32.1 4,4 m 0,-4 -4,4 m 122.4,92 4,4 m 0,-4 -4,4 m -296.6,9.3 4,4 m 0,-4 -4,4 m -91.6,25.7 4,4 m 0,-4 -4,4 m 287.4,-433.9 4,4 m 0,-4 -4,4 m -97.4,-66.7 4,4 m 0,-4 -4,4 m -103.2,-21.5 4,4 m 0,-4 -4,4 m -51.7,16.5 4,4 m 0,-4 -4,4 m 360.2,82.5 4,4 m 0,-4 -4,4"
       id="marqueV_003"
       stroke="#008000" />
    <path
       d="m 1303.3,385.7 h 8.3 l -4.5,6 h 2.2 l 1.5,0.8 0.8,0.7 0.7,2.3 v 1.5 l -0.7,2.2 -1.5,1.5 -2.3,0.8 h -2.2 l -2.3,-0.8 -0.7,-0.7 -0.8,-1.5"
       id="titre_3"
       stroke="#4b0082" />
    <path
       d="m 1473,284.9 -7.5,10.5 h 11.3 m -3.8,-10.5 v 15.7"
       id="titre_4"
       stroke="#4b0082" />
  </g>
  <g
     id="page_004">
    <path
       d="m 1677.4,377.1 0.2,-0.2 0.6,-0.2 h 0.4 l 0.7,0.2 0.8,0.8 0.3,0.6 v 0.4 l -0.2,0.7 -0.4,0.4 -0.6,0.2 -1.1,0.3 -4.2,0.1 3,2.9 m 74,-70.6 0.4,0.8 0.6,0.3 0.6,-0.1 0.6,-0.3 0.2,-0.6 0.2,-1.3 0.2,-0.9 0.6,-0.6 0.6,-0.4 0.8,-0.1 0.7,0.3 0.3,0.2 0.4,0.9 0.1,1.2 -0.2,0.9 -0.3,0.3 -0.6,0.4 -0.9,0.1 -0.6,-0.3 -0.6,-0.5 -0.4,-0.9 -0.4,-1.1 -0.4,-0.6 -0.6,-0.2 h -0.6 l -0.6,0.4 -0.2,0.9 0.1,1.3 m -0.4,-4.5 -0.3,-3.3 2.6,1.5 -0.1,-0.8 0.2,-0.7 0.3,-0.3 0.9,-0.4 h 0.6 l 0.9,0.2 0.6,0.5 0.4,0.9 0.1,0.9 -0.2,0.9 -0.3,0.3 -0.6,0.4 m -28.6,98.9 -0.9,-0.1 -0.5,0.5 -0.3,0.5 0.1,0.7 0.4,0.5 1,0.8 0.7,0.6 0.4,0.8 v 0.6 l -0.3,0.9 -0.5,0.4 -0.4,0.2 -1,-0.1 -1.1,-0.5 -0.7,-0.6 -0.2,-0.4 v -0.6 l 0.3,-0.9 0.5,-0.4 0.8,-0.3 h 1 l 1.2,0.2 h 0.7 l 0.5,-0.5 0.2,-0.5 -0.1,-0.7 -0.7,-0.6 -1.2,-0.5 m 7.4,3 -5.2,4.7 m 1.3,-6.3 3.9,1.6 m -90.5,-103.3 0.4,0.5 1.1,0.6 -6,1.8 m 5.3,0.2 0.3,-0.1 0.6,0.1 0.4,0.2 0.4,0.5 0.4,1.2 -0.1,0.6 -0.2,0.4 -0.5,0.5 -0.6,0.1 -0.7,-0.1 -1,-0.3 -3.7,-2 1.2,4 m 0.9,-83.9 0.7,-0.1 0.6,-0.7 0.2,-0.6 V 229 l -0.6,-0.9 -1.3,-0.8 -1.5,-0.5 -1.2,-0.1 -0.8,0.4 -0.5,0.7 -0.1,0.3 -0.1,0.9 0.4,0.8 0.7,0.6 0.3,0.1 h 1 l 0.7,-0.4 0.6,-0.7 0.1,-0.3 0.1,-0.9 -0.4,-0.8 -0.8,-0.6 m 1.1,9.6 1,-2.9 -2.4,-1.2 0.1,0.4 v 1 l -0.3,0.8 -0.6,0.8 -0.7,0.3 h -1 l -0.6,-0.2 -0.7,-0.6 -0.4,-0.7 0.1,-1 0.3,-0.8 0.6,-0.8 0.3,-0.2 0.7,-0.1 m 36.8,-53.4 -2.8,-6.4 m 5.6,3.2 -2.8,3.2 m -2.7,3.3 -1.2,-5 -2.9,3.4 m 4.1,1.6 -4.8,-4.1 m 177,208.6 0.9,-0.1 0.4,-0.6 0.1,-0.6 -0.2,-0.6 -0.5,-0.4 -1.2,-0.5 -0.8,-0.4 -0.5,-0.7 -0.2,-0.7 0.2,-0.9 0.3,-0.5 0.4,-0.3 0.9,-0.1 1.2,0.2 0.9,0.4 0.2,0.4 0.2,0.6 -0.2,0.9 -0.3,0.6 -0.7,0.5 -1,0.1 -1.2,0.1 -0.7,0.2 -0.3,0.5 -0.1,0.6 0.2,0.7 0.8,0.4 1.3,0.2 m -7.4,-3.3 0.4,-0.9 0.7,-0.5 0.9,-0.1 h 0.3 l 0.9,0.5 0.5,0.7 0.1,0.9 v 0.3 l -0.5,0.8 -0.7,0.5 -0.9,0.2 -0.3,-0.1 -0.8,-0.4 -0.5,-0.7 -0.1,-1.2 0.2,-1.5 0.6,-1.4 0.7,-0.8 0.9,-0.2 0.6,0.1 0.9,0.5 0.2,0.6 m -32.4,87.1 -0.8,0.4 -0.9,0.1 -0.8,-0.4 -0.3,-0.2 -0.4,-0.9 v -0.8 l 0.3,-0.9 0.2,-0.2 0.9,-0.5 h 0.8 l 0.9,0.4 0.2,0.2 0.5,0.8 v 0.9 l -0.6,1.1 -1,1.1 -1.3,0.9 -1,0.2 -0.9,-0.4 -0.4,-0.4 -0.5,-0.8 0.2,-0.7 m 8.5,0.5 -0.9,-0.4 -1,0.3 -1.3,0.9 -0.6,0.6 -0.8,1.3 -0.1,1.1 0.4,0.8 0.5,0.5 0.8,0.3 1.1,-0.2 1.2,-0.9 0.6,-0.7 0.8,-1.3 0.2,-1 -0.5,-0.9 -0.3,-0.3 m 119.5,67.2 0.8,0.7 0.3,0.8 -0.1,0.9 -0.1,0.3 -0.7,0.7 -0.8,0.3 -0.9,-0.1 -0.3,-0.1 -0.7,-0.6 -0.3,-0.8 0.1,-1 0.1,-0.2 0.6,-0.8 0.8,-0.3 1.2,0.2 1.4,0.7 1.3,0.8 0.6,0.9 -0.1,1 -0.3,0.5 -0.6,0.7 -0.7,0.1 m 0.5,-9.3 0.7,0.7 0.3,0.8 -0.1,0.9 -0.1,0.3 -0.7,0.7 -0.7,0.3 -1,-0.1 -0.3,-0.1 -0.7,-0.7 -0.3,-0.8 0.1,-0.9 0.1,-0.3 0.7,-0.7 0.8,-0.3 1.2,0.2 1.4,0.6 1.2,0.9 0.6,0.9 -0.1,1 -0.2,0.5 -0.7,0.7 h -0.6 m -153.8,133.9 -5.1,-0.9 2,4 m 3.1,-3.1 -5.7,2.7 m 7,0.2 1.5,3 -3,-0.6 0.4,0.8 v 0.7 l -0.1,0.4 -0.7,0.6 -0.6,0.3 -0.9,0.1 -0.8,-0.3 -0.7,-0.6 -0.4,-0.9 -0.1,-0.9 0.2,-0.4 0.4,-0.5 m 45.6,39.9 -3.1,4.1 4.5,0.1 m -1.4,-4.2 -0.1,6.3 m 6.3,-6.2 h -3 l -0.3,2.7 0.3,-0.3 0.9,-0.3 h 0.9 l 0.9,0.3 0.6,0.6 0.2,0.9 v 0.6 l -0.3,0.9 -0.6,0.6 -0.9,0.3 h -0.9 l -0.9,-0.3 -0.3,-0.3 -0.3,-0.6 m 65.6,-13.8 0.5,-0.4 0.6,-1.2 1.7,6.1 m 1.1,-7 -0.8,0.5 -0.3,1 0.1,1.5 0.2,0.9 0.7,1.4 0.8,0.7 h 1 l 0.6,-0.1 0.7,-0.5 0.4,-1.1 -0.1,-1.5 -0.3,-0.9 -0.6,-1.3 -0.9,-0.7 -0.9,-0.1 -0.4,0.1 m 3.5,0.5 0.5,-0.4 0.7,-1.1 1.6,6 m -182.5,-122.5 0.2,-0.2 0.7,-0.2 h 0.4 l 0.6,0.2 0.9,0.9 0.2,0.6 v 0.5 l -0.3,0.6 -0.4,0.4 -0.6,0.2 -1.1,0.2 h -4.2 l 2.9,3 m 5.7,-3.2 2.3,2.4 -3,0.4 0.7,0.6 0.2,0.7 v 0.4 l -0.5,0.8 -0.4,0.4 -0.8,0.5 -0.9,-0.1 -0.8,-0.4 -0.7,-0.6 -0.4,-0.9 v -0.4 l 0.2,-0.6 m 75,-102.9 0.7,-0.6 0.9,-0.2 0.9,0.2 0.3,0.2 0.6,0.7 0.2,0.8 -0.3,0.9 -0.1,0.3 -0.7,0.6 -0.9,0.2 -0.9,-0.2 -0.3,-0.2 -0.6,-0.7 -0.2,-0.8 0.4,-1.2 0.8,-1.3 1.1,-1.1 0.9,-0.5 1,0.3 0.5,0.3 0.6,0.7 -0.1,0.7 m -8.4,1.1 0.9,0.2 1,-0.4 1.1,-1.1 0.4,-0.8 0.6,-1.4 -0.1,-1.1 -0.6,-0.7 -0.5,-0.4 -0.9,-0.2 -1,0.5 -1,1.1 -0.5,0.8 -0.5,1.4 v 1.1 l 0.6,0.7 0.4,0.2 m -102.9,5.3 0.6,-0.4 0.3,-0.9 -0.1,-0.6 -0.3,-0.9 -0.9,-0.5 -1.5,-0.3 -1.5,0.1 -1.2,0.3 -0.6,0.6 -0.3,1 0.1,0.3 0.3,0.8 0.6,0.6 0.9,0.3 h 0.3 l 0.9,-0.4 0.6,-0.6 0.3,-0.9 -0.1,-0.3 -0.3,-0.9 -0.6,-0.6 -0.9,-0.2 m 27.3,-42.7 h 1 l 0.5,-0.5 0.2,-0.5 -0.1,-0.7 -0.5,-0.5 -1,-0.6 -0.8,-0.6 -0.4,-0.8 -0.1,-0.6 0.3,-0.9 0.5,-0.5 0.4,-0.2 0.9,0.1 1.2,0.3 0.7,0.6 0.2,0.4 0.1,0.7 -0.3,0.8 -0.5,0.5 -0.7,0.4 -1,-0.1 -1.2,-0.1 -0.7,0.1 -0.4,0.5 -0.2,0.6 0.1,0.6 0.7,0.6 1.3,0.4 m -7.6,-2.6 4.8,-4.9 m -0.9,6.3 -3.9,-1.4 m 239.8,-225.5 0.9,0.2 0.7,0.6 0.3,0.9 0.1,0.3 -0.3,0.9 -0.5,0.6 -0.9,0.4 h -0.3 l -0.9,-0.2 -0.7,-0.6 -0.3,-0.9 -0.1,-0.3 0.3,-0.9 0.5,-0.6 1.2,-0.4 1.5,-0.1 1.5,0.2 1,0.5 0.3,0.9 0.1,0.6 -0.3,0.9 -0.6,0.4 m -5.7,-5 -0.2,-3.3 2.5,1.7 v -0.9 l 0.2,-0.7 0.3,-0.3 0.9,-0.3 0.6,-0.1 0.9,0.3 0.6,0.5 0.4,0.9 v 0.9 l -0.2,0.9 -0.3,0.3 -0.6,0.4 m -28.9,76 0.5,0.8 0.1,0.8 -0.3,0.9 -0.2,0.2 -0.8,0.6 h -0.8 l -0.9,-0.3 -0.2,-0.2 -0.5,-0.8 -0.1,-0.8 0.3,-0.9 0.2,-0.2 0.8,-0.5 0.8,-0.1 1.1,0.5 1.2,0.9 1,1.2 0.3,1 -0.3,0.9 -0.4,0.5 -0.8,0.5 -0.6,-0.2 m -0.3,-6.1 0.2,-0.7 -0.2,-1.2 5,3.9 m -98.9,-10 -1,-0.2 -0.5,0.4 -0.3,0.5 -0.1,0.7 0.4,0.5 0.9,0.9 0.6,0.7 0.3,0.8 -0.1,0.7 -0.4,0.8 -0.6,0.4 -0.4,0.1 -0.9,-0.2 -1.1,-0.6 -0.6,-0.7 -0.1,-0.4 v -0.7 l 0.5,-0.8 0.5,-0.4 0.9,-0.2 0.9,0.2 1.2,0.3 0.6,0.1 0.6,-0.4 0.3,-0.5 v -0.7 l -0.6,-0.7 -1.2,-0.7 m 4.8,2.8 -0.9,-0.2 -0.6,0.4 -0.3,0.5 v 0.6 l 0.4,0.6 0.9,0.9 0.6,0.7 0.2,0.8 v 0.6 l -0.5,0.8 -0.5,0.4 -0.4,0.1 -1,-0.2 -1,-0.6 -0.6,-0.7 -0.2,-0.4 0.1,-0.6 0.4,-0.8 0.6,-0.4 0.8,-0.2 0.9,0.2 1.2,0.3 h 0.7 l 0.6,-0.3 0.3,-0.6 v -0.6 l -0.6,-0.7 -1.2,-0.7 m -137.1,-205.9 -0.3,-0.9 -0.6,-0.2 h -0.6 l -0.6,0.3 -0.3,0.7 -0.2,1.2 -0.3,0.9 -0.5,0.6 -0.6,0.4 h -0.9 l -0.6,-0.2 -0.3,-0.3 -0.4,-0.9 -0.1,-1.2 0.3,-0.9 0.3,-0.3 0.5,-0.4 h 0.9 l 0.7,0.2 0.6,0.6 0.4,0.9 0.3,1.2 0.4,0.5 0.6,0.3 h 0.6 l 0.6,-0.4 0.2,-0.9 -0.1,-1.3 m -1.1,4 0.3,0.5 0.9,0.9 -6.2,0.4 m 51.3,-46.1 0.5,-0.8 0.7,-0.5 0.9,-0.1 0.3,0.1 0.8,0.5 0.5,0.7 0.1,0.9 -0.1,0.3 -0.4,0.8 -0.8,0.5 -0.9,0.1 -0.3,-0.1 -0.8,-0.5 -0.5,-0.7 v -1.2 l 0.3,-1.5 0.6,-1.4 0.8,-0.7 0.9,-0.1 0.6,0.1 0.8,0.5 0.2,0.6 m -9.1,2.7 0.2,0.6 0.8,0.5 0.6,0.1 0.9,-0.1 0.8,-0.7 0.6,-1.4 0.3,-1.5 v -1.2 l -0.5,-0.8 -0.8,-0.4 -0.3,-0.1 -0.9,0.1 -0.8,0.5 -0.4,0.8 -0.1,0.3 0.1,0.9 0.5,0.7 0.8,0.5 0.3,0.1 0.9,-0.1 0.7,-0.5 0.5,-0.8 m 144.9,44.8 0.6,-0.8 0.7,-0.3 h 1 l 0.3,0.1 0.7,0.5 0.4,0.8 v 0.9 l -0.1,0.3 -0.6,0.8 -0.7,0.4 -1,-0.1 h -0.3 l -0.7,-0.6 -0.4,-0.8 0.1,-1.2 0.5,-1.4 0.8,-1.4 0.8,-0.6 h 1 l 0.5,0.2 0.8,0.6 0.1,0.6 m -9.6,2.4 2.8,1 1.1,-2.5 -0.3,0.2 h -1 l -0.8,-0.3 -0.8,-0.5 -0.4,-0.8 0.1,-1 0.1,-0.5 0.6,-0.8 0.8,-0.4 0.9,0.1 0.9,0.3 0.7,0.5 0.2,0.4 0.1,0.7 m 71.2,60.6 0.7,0.6 0.4,0.7 v 1 l -0.1,0.3 -0.5,0.7 -0.8,0.4 h -0.9 l -0.3,-0.1 -0.8,-0.5 -0.4,-0.8 v -0.9 l 0.1,-0.3 0.6,-0.8 0.7,-0.4 1.3,0.1 1.4,0.5 1.3,0.7 0.7,0.9 v 0.9 l -0.2,0.6 -0.5,0.8 -0.7,0.1 m -2.8,-9.2 3.1,4.1 1.4,-4.3 m -4.5,0.2 6,1.9 m 4.8,279.9 1,0.1 0.5,-0.5 0.2,-0.5 v -0.7 l -0.5,-0.5 -1,-0.8 -0.7,-0.6 -0.3,-0.8 -0.1,-0.6 0.4,-0.9 0.5,-0.4 0.4,-0.2 0.9,0.1 1.1,0.5 0.8,0.6 0.1,0.4 0.1,0.7 -0.4,0.8 -0.5,0.4 -0.8,0.3 h -0.9 l -1.2,-0.2 h -0.7 l -0.5,0.5 -0.2,0.5 v 0.7 l 0.7,0.6 1.3,0.5 m -7,-2.9 2.7,1.2 1.3,-2.4 -0.3,0.2 -1,-0.1 -0.8,-0.4 -0.7,-0.6 -0.4,-0.8 0.1,-0.9 0.2,-0.6 0.7,-0.7 0.7,-0.3 1,0.1 0.8,0.3 0.7,0.6 0.2,0.4 v 0.7 m 16.4,77.4 -0.4,0.8 -0.7,0.5 -1,0.1 -0.3,-0.1 -0.8,-0.4 -0.5,-0.8 -0.1,-0.9 0.1,-0.3 0.4,-0.8 0.8,-0.5 0.9,-0.1 0.3,0.1 0.8,0.4 0.5,0.7 v 1.3 l -0.3,1.4 -0.5,1.4 -0.8,0.8 -0.9,0.1 -0.6,-0.1 -0.9,-0.5 -0.1,-0.6 m 9.7,-3.6 -4.2,5.6 m 0,-6.4 4.2,0.8 m 69.7,-70.1 -3.1,1.2 0.8,-2.9 -0.8,0.3 h -0.7 l -0.4,-0.2 -0.6,-0.7 -0.2,-0.6 v -0.9 l 0.3,-0.8 0.7,-0.6 0.9,-0.4 h 0.9 l 0.4,0.2 0.5,0.4 m -4.8,7.4 0.7,-0.6 0.3,-1.1 -0.3,-1.5 -0.3,-0.8 -0.8,-1.3 -0.9,-0.7 -1,0.1 -0.5,0.2 -0.8,0.6 -0.2,1.1 0.3,1.5 0.3,0.8 0.8,1.3 0.9,0.6 h 1 l 0.4,-0.2 m 43.3,6.8 -1.4,-3 2.9,0.6 -0.3,-0.8 v -0.7 l 0.1,-0.4 0.7,-0.7 0.5,-0.2 1,-0.1 0.8,0.3 0.6,0.6 0.4,0.9 0.1,0.9 -0.1,0.4 -0.4,0.5 m -5.6,-3.2 -0.5,-0.4 -1.2,-0.4 5.7,-2.7 m -6.7,49.2 1.2,-3.1 1.6,2.6 0.3,-0.8 0.5,-0.5 0.4,-0.1 h 1 l 0.5,0.3 0.7,0.6 0.3,0.8 v 0.9 l -0.4,0.9 -0.6,0.7 -0.4,0.1 -0.7,0.1 m -1.4,-9.9 2.7,4.4 1.7,-4.1 m -4.4,-0.3 5.8,2.5 m -50,46.8 0.3,0.9 -0.2,0.8 -0.6,0.8 -0.2,0.1 -1,0.3 -0.8,-0.2 -0.7,-0.6 -0.2,-0.2 -0.2,-1 0.1,-0.8 0.6,-0.7 0.3,-0.2 0.9,-0.2 0.8,0.1 0.9,0.9 0.9,1.2 0.5,1.5 v 1 l -0.6,0.8 -0.5,0.3 -0.9,0.3 -0.6,-0.4 m 2.3,-7.9 -0.6,0.7 0.1,0.7 0.3,0.5 0.6,0.3 h 0.7 l 1.1,-0.4 1,-0.3 0.8,0.2 0.6,0.3 0.5,0.8 v 0.7 l -0.1,0.4 -0.5,0.7 -1.1,0.7 -0.9,0.2 -0.4,-0.1 -0.6,-0.3 -0.5,-0.8 v -0.6 l 0.1,-0.9 0.6,-0.7 0.9,-0.9 0.3,-0.6 v -0.7 l -0.4,-0.5 -0.6,-0.3 -0.9,0.2 -1.1,0.8 m -35.4,8.5 -0.9,0.1 -0.8,-0.4 -0.6,-0.7 -0.2,-0.3 v -0.9 l 0.3,-0.8 0.7,-0.6 0.3,-0.1 0.9,-0.1 0.8,0.3 0.7,0.7 0.1,0.3 v 1 l -0.3,0.8 -1,0.7 -1.4,0.6 -1.5,0.3 -1,-0.3 -0.7,-0.7 -0.2,-0.5 -0.1,-1 0.5,-0.5 m 8.3,6.1 -6.9,-0.4 m 5.3,-3.5 1.6,3.9 m -0.2,146.2 0.5,-0.5 0.6,-1.1 2.1,5.9 m 0.6,-7.1 -0.8,0.6 -0.2,1 0.2,1.6 0.3,0.8 0.7,1.3 0.9,0.7 h 1 l 0.5,-0.2 0.8,-0.6 0.2,-1.1 -0.2,-1.5 -0.3,-0.8 -0.8,-1.4 -0.8,-0.6 h -1 l -0.4,0.2 m 6.6,-2.4 -2.8,1 0.6,2.7 0.2,-0.4 0.7,-0.6 0.9,-0.3 h 0.9 l 0.8,0.4 0.6,0.7 0.2,0.6 v 0.9 l -0.4,0.8 -0.7,0.6 -0.9,0.3 h -0.9 l -0.4,-0.2 -0.5,-0.5 m 43.4,-59 -0.6,-0.3 -1.3,-0.2 5.1,-3.7 m -7,1.5 0.8,0.6 1.1,-0.1 1.3,-0.7 0.8,-0.5 1,-1.1 0.3,-1.1 -0.3,-0.9 -0.3,-0.4 -0.8,-0.6 -1.1,0.1 -1.4,0.6 -0.7,0.6 -1,1.1 -0.4,1 0.3,0.9 0.3,0.4 m -4,-5.2 5.2,-0.1 -2.7,-3.6 m -2.5,3.7 5.1,-3.8 m -64.1,-62.1 -0.6,-0.2 -1.3,0.2 4,-4.9 m -6.4,3.1 0.9,0.4 1,-0.3 1.2,-1 0.6,-0.7 0.7,-1.3 0.1,-1.1 -0.5,-0.8 -0.5,-0.4 -0.8,-0.3 -1.1,0.3 -1.2,0.9 -0.5,0.7 -0.8,1.4 -0.1,1.1 0.5,0.8 0.4,0.3 m -4,-3.4 0.9,0.4 1,-0.3 1.2,-1 0.5,-0.7 0.8,-1.3 0.1,-1.1 -0.5,-0.8 -0.5,-0.4 -0.9,-0.3 -1,0.3 -1.2,0.9 -0.6,0.7 -0.7,1.4 -0.1,1.1 0.5,0.8 0.4,0.2 m -45.2,12.3 -0.6,-0.7 -0.3,-0.8 0.2,-1 0.1,-0.2 0.7,-0.7 0.8,-0.2 0.9,0.1 0.3,0.2 0.7,0.6 0.2,0.8 -0.2,1 -0.1,0.2 -0.7,0.7 -0.8,0.3 -1.2,-0.3 -1.3,-0.7 -1.2,-1 -0.5,-1 0.1,-0.9 0.3,-0.5 0.7,-0.7 h 0.7 m -1.2,9.2 -0.6,-0.7 -0.3,-0.8 0.2,-0.9 0.1,-0.3 0.7,-0.6 0.8,-0.3 1,0.2 0.2,0.1 0.7,0.7 0.2,0.8 -0.1,0.9 -0.2,0.3 -0.6,0.7 -0.8,0.2 -1.3,-0.3 -1.3,-0.7 -1.2,-0.9 -0.5,-1 0.2,-0.9 0.3,-0.6 0.6,-0.6 h 0.7"
       id="nums_004"
       stroke="#000000"
       stroke-width="1" />
    <path
       d="m 1680.7,21.5 115,24.9 174.7,60.2 -21.9,68.2 5.4,84.3 -58.7,74.2 -141.7,-80.8 10.5,111.4 155.1,25.9 87.7,36.7 78.4,-30.6 21.4,45.6 -20.3,48.8 -72.3,46.7 -15.8,-38.3 -40.6,-8.1 -40,90.9 46.4,-87.8 71.4,58.9 66.6,88.8 -156.8,55.2 -91,24.9 -56.7,-0.8 -45,-93.2 -68.8,-70.3 -4.6,-130.8 65.6,22.4 106,65.5 -91.4,-84.7 -64,-26.5 -42,-39.2 -30,-102.2 22.6,-63 42.8,-50.5 z"
       id="coupes_004"
       stroke="#ff0000"
       stroke-width="1.27"
       sodipodi:nodetypes="ccccccccccccccccccccccccccccccccccc" />
    <path
       d="m 1764,363.9 -68.7,39.2 m -42,-39.2 100.2,-111.4 m -130.2,9.2 130.2,-9.2 m -107.6,-53.8 107.6,53.8 m -64.8,-104.3 259.8,26.6 m 0,0 -195,77.7 m 165.6,137.3 -159.8,39.8 m 159.8,-39.8 -68.4,124.5 m 106.9,-23.7 -106.9,23.7 m 66.9,67.2 -66.9,-67.2 m 66.9,67.2 -165.1,46 m 0,0 98.2,-113.2 m 66.9,67.2 -120.1,139.2 m 120.1,-139.2 -63.4,140 m -170.5,-164.3 167,-42.9 m 103.2,-255.2 -200.4,-6.6 m -72.8,-231 267.8,153.3 m 58.3,251.7 -8.6,72.2 m 87,-102.8 -87,102.8 m 108.4,-57.2 -108.4,57.2 m 88.1,-8.4 -88.1,8.4 m 37.2,53.9 -90.2,144 m -27.6,-115.1 117.8,-28.9"
       id="plisM_004"
       stroke="#a52a2a"
       stroke-dasharray="4" />
    <path
       d="M 1653.3,363.9 H 1764 m 0,0 -4.7,65.7 m -70.6,-281.4 64.8,104.3 m 165.6,137.3 38.5,100.8 m -40,90.9 27.6,115.1 m -261.5,-139.4 61,-108.4 m 51,-402.4 152.8,128.4 m 58.3,251.7 -49.2,64.1"
       id="plisV_004"
       stroke="#008000"
       stroke-dasharray="4, 1, 1, 1"
       stroke-width="1.27" />
    <path
       d="m 1706.7,361.9 4,4 m 0,-4 -4,4 m 52.9,28.9 4,4 m 0,-4 -4,4 m -40.5,-200.5 4,4 m 0,-4 -4,4 m 217.2,235.9 4,4 m 0,-4 -4,4 m -6.9,194.8 4,4 m 0,-4 -4,4 m -217.2,-140 4,4 m 0,-4 -4,4 m 157.9,-396.4 4,4 m 0,-4 -4,4 m 110.1,343.9 4,4 m 0,-4 -4,4"
       id="marqueV_004"
       stroke="#008000" />
    <path
       d="m 1846.4,432.2 h -7.5 l -0.7,6.8 0.7,-0.8 2.3,-0.7 h 2.2 l 2.3,0.7 1.5,1.5 0.7,2.3 v 1.5 l -0.7,2.2 -1.5,1.5 -2.3,0.8 h -2.2 l -2.3,-0.8 -0.7,-0.7 -0.8,-1.5"
       id="titre_5"
       stroke="#4b0082" />
  </g>
  <g
     id="page_005">
    <path
       d="m 2464.5,399.5 -0.8,-0.6 -0.3,-0.8 -0.1,-0.9 0.1,-0.3 0.6,-0.8 0.8,-0.3 0.9,-0.1 0.3,0.1 0.8,0.6 0.3,0.8 0.1,0.9 -0.1,0.3 -0.6,0.8 -0.8,0.3 h -1.2 l -1.4,-0.5 -1.4,-0.7 -0.6,-0.9 v -0.9 l 0.1,-0.6 0.6,-0.8 0.7,-0.1 m 2.8,9.2 -3.1,-4.1 -1.4,4.2 m 4.5,-0.1 -6,-1.9 m 98.1,25.5 h -0.3 l -0.6,-0.3 -0.3,-0.3 -0.2,-0.6 v -1.2 l 0.3,-0.6 0.3,-0.3 0.6,-0.3 h 0.6 l 0.6,0.4 0.9,0.6 2.9,3.1 0.2,-4.2 m -6.1,-5.4 6.1,3.2 m -6.3,1 0.2,-4.2 m -89.8,51.2 h -1 l -0.8,-0.4 -0.5,-0.7 -0.1,-0.3 v -1 l 0.3,-0.7 0.8,-0.6 0.3,-0.1 h 0.9 l 0.8,0.3 0.6,0.8 0.1,0.3 v 0.9 l -0.4,0.8 -1,0.7 -1.5,0.5 -1.5,0.2 -1,-0.3 -0.6,-0.8 -0.2,-0.5 v -1 l 0.5,-0.5 m 6.8,3.3 1.1,3.1 -2.9,-0.9 0.3,0.9 -0.1,0.6 -0.2,0.4 -0.7,0.6 -0.6,0.2 h -0.9 l -0.8,-0.4 -0.6,-0.7 -0.3,-0.9 v -0.9 l 0.2,-0.4 0.5,-0.5 m 95.8,-142.9 0.2,-3.3 2.3,1.9 v -0.9 l 0.4,-0.6 0.3,-0.3 0.9,-0.2 h 0.6 l 0.9,0.3 0.5,0.7 0.3,0.9 v 0.9 l -0.4,0.9 -0.3,0.3 -0.6,0.2 m -4.8,-6.1 0.1,-3.3 2.3,1.9 v -0.9 l 0.4,-0.6 0.3,-0.3 0.9,-0.2 h 0.6 l 0.9,0.3 0.6,0.6 0.2,1 v 0.9 l -0.4,0.8 -0.3,0.3 -0.6,0.3 m -174,-11.6 -0.7,0.6 -0.8,0.2 -0.9,-0.1 -0.3,-0.2 -0.6,-0.7 -0.2,-0.8 0.1,-1 0.2,-0.2 0.7,-0.6 0.8,-0.3 0.9,0.2 0.3,0.2 0.6,0.7 0.3,0.8 -0.4,1.2 -0.7,1.3 -1,1.1 -1,0.5 -0.9,-0.2 -0.5,-0.3 -0.7,-0.7 0.1,-0.6 m 9.9,-0.6 -2.6,-1.5 -1.6,2.2 0.4,-0.1 0.9,0.2 0.8,0.4 0.6,0.8 0.2,0.8 -0.1,0.9 -0.3,0.5 -0.8,0.7 -0.8,0.2 -0.9,-0.2 -0.8,-0.5 -0.6,-0.7 -0.1,-0.4 v -0.6 m 192.4,-130.3 -0.8,2.9 2.5,1.1 -0.2,-0.4 -0.1,-1 0.3,-0.8 0.5,-0.8 0.8,-0.4 h 0.9 l 0.6,0.1 0.8,0.6 0.4,0.7 v 1 l -0.2,0.8 -0.6,0.8 -0.3,0.2 -0.7,0.1 m -1.5,-9.7 -0.7,0.1 -0.5,0.8 -0.2,0.5 v 1 l 0.7,0.8 1.4,0.7 1.4,0.4 1.3,0.1 0.7,-0.4 0.6,-0.8 v -0.3 -0.9 l -0.4,-0.8 -0.8,-0.5 -0.3,-0.1 h -0.9 l -0.8,0.4 -0.5,0.8 -0.1,0.3 v 1 l 0.5,0.7 0.7,0.5 m -96.9,8.4 0.1,0.6 0.6,1.1 -6,-1.8 m 5.4,4.7 v -0.9 l -0.7,-0.9 -1.4,-0.7 -0.8,-0.2 -1.6,-0.2 -1,0.3 -0.5,0.8 -0.2,0.6 v 0.9 l 0.7,0.9 1.4,0.7 0.8,0.2 1.5,0.2 1.1,-0.3 0.5,-0.8 0.2,-0.4 m -1.9,6.3 -3.1,-4.1 -1.3,4.3 m 4.4,-0.2 -6,-1.9 m 131.4,-122.7 -0.9,2.9 2.5,1 -0.2,-0.3 v -1 l 0.2,-0.9 0.6,-0.7 0.7,-0.4 1,-0.1 0.5,0.2 0.8,0.5 0.4,0.8 0.1,0.9 -0.3,0.9 -0.5,0.8 -0.4,0.2 -0.7,0.1 m -2.2,-10.5 5.2,4.7 m -6.4,-0.6 1.2,-4.1 m -36.5,-8.4 1.9,-4.7 -4.3,1 m 2.4,3.7 -1.5,-6.1 m -2.8,7.1 0.8,-0.5 0.3,-1 v -1.5 l -0.2,-0.9 -0.7,-1.4 -0.8,-0.7 -0.9,-0.1 -0.6,0.1 -0.8,0.5 -0.4,1.1 0.1,1.5 0.2,0.9 0.6,1.3 0.8,0.8 1,0.1 0.4,-0.1 m -110.3,36.5 0.6,0.2 1.3,-0.1 -4.4,4.6 m 6.7,-2.7 -0.9,-0.4 -1.1,0.2 -1.2,0.9 -0.6,0.7 -0.8,1.3 -0.2,1 0.4,0.9 0.5,0.4 0.8,0.4 1.1,-0.3 1.2,-0.8 0.6,-0.7 0.9,-1.3 0.1,-1.1 -0.4,-0.8 -0.3,-0.3 m 3.7,3.6 -0.8,-0.4 -1.1,0.2 -1.2,0.9 -0.6,0.6 -0.9,1.3 -0.1,1.1 0.4,0.8 0.4,0.5 0.9,0.4 1.1,-0.3 1.2,-0.9 0.6,-0.6 0.8,-1.3 0.2,-1.1 -0.4,-0.8 -0.4,-0.3 m 2.9,-26.5 0.2,-0.9 0.5,-0.7 0.9,-0.4 h 0.3 l 0.9,0.2 0.7,0.5 0.3,0.9 0.1,0.3 -0.2,0.9 -0.6,0.7 -0.8,0.4 h -0.3 l -1,-0.2 -0.6,-0.5 -0.4,-1.2 -0.2,-1.5 0.2,-1.5 0.5,-1 0.8,-0.4 h 0.6 l 1,0.2 0.3,0.6 m -5.7,6 0.9,-0.4 0.2,-0.7 v -0.6 l -0.4,-0.5 -0.6,-0.3 -1.2,-0.1 -1,-0.2 -0.6,-0.6 -0.4,-0.5 -0.1,-0.9 0.3,-0.7 0.2,-0.3 0.9,-0.4 1.2,-0.1 0.9,0.2 0.4,0.3 0.3,0.5 0.1,0.9 -0.2,0.7 -0.6,0.6 -0.8,0.4 -1.2,0.4 -0.6,0.4 -0.2,0.6 0.1,0.6 0.3,0.6 0.9,0.2 1.4,-0.2 m 99,449.6 -0.4,-0.5 -1.1,-0.7 6.2,-1.2 m -6.9,-1.7 0.4,0.8 1,0.5 h 1.6 l 0.9,-0.2 1.4,-0.6 0.7,-0.7 0.2,-1 -0.2,-0.6 -0.4,-0.8 -1,-0.4 h -1.5 l -0.9,0.1 -1.4,0.6 -0.8,0.8 -0.1,0.9 0.1,0.5 m -101.3,28.4 -0.8,-0.5 -0.4,-0.8 -0.1,-0.9 0.1,-0.3 0.5,-0.8 0.7,-0.4 1,-0.1 0.3,0.1 0.8,0.5 0.4,0.7 v 1 0.3 l -0.6,0.8 -0.7,0.4 h -1.2 l -1.5,-0.4 -1.3,-0.7 -0.8,-0.8 v -1 l 0.1,-0.5 0.6,-0.8 0.6,-0.2 m 2.7,5.6 0.1,0.6 0.6,1.1 -6.1,-1.6 m 110.8,110.3 0.2,1 0.5,0.3 0.6,0.1 0.6,-0.2 0.4,-0.5 0.5,-1.1 0.4,-0.9 0.7,-0.5 0.7,-0.2 0.9,0.2 0.5,0.4 0.3,0.3 0.1,0.9 -0.2,1.2 -0.4,0.9 -0.4,0.2 -0.6,0.2 -0.9,-0.1 -0.5,-0.4 -0.5,-0.7 -0.2,-0.9 -0.1,-1.3 -0.2,-0.6 -0.5,-0.4 -0.6,-0.1 -0.7,0.2 -0.4,0.8 -0.2,1.4 m -57.3,36.1 h -0.9 l -0.5,0.5 -0.2,0.6 0.1,0.6 0.4,0.5 1.1,0.7 0.7,0.6 0.4,0.7 0.1,0.7 -0.3,0.9 -0.5,0.4 -0.4,0.2 h -0.9 l -1.2,-0.4 -0.7,-0.6 -0.2,-0.4 -0.1,-0.6 0.3,-0.9 0.5,-0.5 0.8,-0.3 h 0.9 l 1.2,0.1 0.7,-0.1 0.5,-0.4 0.2,-0.6 -0.1,-0.7 -0.7,-0.6 -1.3,-0.4 m 6.7,2.3 -4.2,3 4.3,1.5 m -0.1,-4.5 -2,5.9 M 2389.5,661 h -0.9 l -0.5,0.4 -0.2,0.6 0.1,0.7 0.4,0.5 1,0.6 0.8,0.6 0.3,0.8 0.1,0.7 -0.3,0.8 -0.5,0.5 -0.4,0.2 -0.9,-0.1 -1.1,-0.4 -0.8,-0.6 -0.2,-0.4 v -0.6 l 0.3,-0.9 0.5,-0.4 0.7,-0.4 h 1 l 1.2,0.2 0.7,-0.1 0.5,-0.5 0.2,-0.5 -0.1,-0.7 -0.7,-0.6 -1.3,-0.4 m 6.7,4.7 -0.6,0.7 -0.8,0.3 h -0.9 l -0.3,-0.1 -0.8,-0.6 -0.3,-0.7 v -1 l 0.1,-0.3 0.6,-0.7 0.8,-0.4 0.9,0.1 0.3,0.1 0.8,0.6 0.3,0.7 -0.1,1.3 -0.5,1.4 -0.8,1.3 -0.9,0.6 h -1 l -0.5,-0.2 -0.8,-0.6 v -0.7 m 27.5,-477 -0.6,-0.3 -1.2,-0.3 5.3,-3.4 m -7.1,1.1 0.7,0.6 h 1.1 l 1.5,-0.6 0.7,-0.5 1.1,-1 0.4,-1 -0.2,-0.9 -0.3,-0.5 -0.7,-0.6 -1.1,-0.1 -1.5,0.6 -0.7,0.5 -1.1,1 -0.4,1 0.2,1 0.2,0.3 m -3.7,-5.9 1.6,2.6 2.4,-1.2 -0.4,-0.1 -0.7,-0.6 -0.5,-0.8 -0.3,-0.9 0.2,-0.8 0.6,-0.8 0.5,-0.3 1,-0.2 0.8,0.2 0.7,0.6 0.5,0.7 0.2,0.9 -0.1,0.5 -0.3,0.5 m -106.4,-45.5 0.7,-0.3 0.4,-0.8 0.1,-0.6 -0.2,-0.9 -0.8,-0.7 -1.5,-0.5 -1.5,-0.2 -1.2,0.1 -0.7,0.6 -0.4,0.8 v 0.3 l 0.2,0.9 0.5,0.7 0.8,0.4 0.3,0.1 1,-0.2 0.6,-0.5 0.4,-0.9 0.1,-0.3 -0.2,-0.9 -0.5,-0.7 -0.9,-0.4 m 3.3,7.3 -0.2,-0.9 -0.8,-0.7 -1.4,-0.5 -0.9,-0.1 -1.5,0.1 -1,0.5 -0.4,0.8 -0.1,0.6 0.2,1 0.8,0.7 1.5,0.4 0.9,0.2 1.5,-0.2 0.9,-0.4 0.5,-0.9 v -0.4 m -56.6,105.7 -0.6,0.7 -0.8,0.4 -0.9,-0.1 -0.3,-0.1 -0.8,-0.6 -0.3,-0.8 v -0.9 l 0.2,-0.3 0.6,-0.7 0.7,-0.4 1,0.1 0.3,0.1 0.7,0.6 0.3,0.8 -0.1,1.2 -0.6,1.4 -0.8,1.3 -0.9,0.6 -0.9,-0.1 -0.6,-0.2 -0.7,-0.6 -0.1,-0.6 m 9.4,-1.2 v -0.7 l -0.7,-0.6 -0.6,-0.2 -1,-0.1 -0.8,0.7 -0.9,1.3 -0.5,1.4 -0.2,1.2 0.4,0.8 0.7,0.6 0.3,0.1 h 0.9 l 0.8,-0.3 0.6,-0.8 0.1,-0.2 0.1,-1 -0.4,-0.8 -0.7,-0.6 -0.3,-0.1 h -0.9 l -0.8,0.3 -0.6,0.8 m 86.7,-191.6 1.7,-2.4 -2,-1.9 0.1,0.5 -0.3,0.9 -0.5,0.7 -0.8,0.6 -0.8,0.1 -0.9,-0.3 -0.5,-0.3 -0.6,-0.8 -0.1,-0.8 0.2,-0.9 0.6,-0.8 0.7,-0.5 0.5,-0.1 0.6,0.1 m 0.7,7.8 -1.9,2.7 -0.9,-2.9 -0.5,0.7 -0.6,0.4 h -0.4 l -1,-0.3 -0.4,-0.3 -0.6,-0.8 -0.1,-0.8 0.2,-0.9 0.6,-0.7 0.7,-0.6 0.5,-0.1 0.6,0.1 m 25.1,18 -0.4,-0.6 -1,-0.7 6.2,-1.1 m -7,-1.7 0.5,0.8 1,0.4 h 1.5 l 0.9,-0.1 1.4,-0.6 0.8,-0.8 0.1,-0.9 -0.1,-0.6 -0.4,-0.8 -1,-0.4 -1.6,-0.1 -0.9,0.2 -1.4,0.6 -0.7,0.7 -0.2,1 0.1,0.4 m 0.8,-3.5 -0.4,-0.5 -1.1,-0.8 6.2,-1.1 m -47.5,520.1 -0.4,-0.8 -0.7,-0.3 -0.5,0.1 -0.6,0.4 -0.2,0.6 -0.2,1.2 -0.2,1 -0.5,0.6 -0.6,0.4 -0.9,0.1 -0.6,-0.2 -0.4,-0.3 -0.4,-0.9 -0.1,-1.2 0.2,-0.9 0.3,-0.3 0.5,-0.4 0.9,-0.1 0.7,0.2 0.6,0.6 0.4,0.8 0.5,1.2 0.3,0.6 0.6,0.2 0.6,-0.1 0.6,-0.3 0.2,-1 -0.1,-1.3 m 0.5,4.6 0.3,3.2 -2.6,-1.5 0.1,0.9 -0.2,0.6 -0.3,0.4 -0.8,0.4 h -0.6 l -0.9,-0.2 -0.7,-0.5 -0.4,-0.9 -0.1,-0.9 0.2,-0.9 0.3,-0.3 0.5,-0.4 m 63.4,-10 1,0.1 0.5,-0.4 0.3,-0.6 v -0.6 l -0.4,-0.6 -1,-0.8 -0.6,-0.6 -0.3,-0.8 V 572 l 0.4,-0.8 0.5,-0.4 0.4,-0.2 1,0.2 1,0.5 0.7,0.7 0.1,0.4 v 0.7 l -0.4,0.8 -0.5,0.4 -0.8,0.2 -0.9,-0.1 -1.2,-0.3 h -0.7 l -0.5,0.4 -0.3,0.6 v 0.6 l 0.7,0.7 1.2,0.6 m -5,-2.4 1,0.1 0.5,-0.4 0.3,-0.5 v -0.7 l -0.4,-0.5 -1,-0.8 -0.6,-0.7 -0.3,-0.8 v -0.7 l 0.4,-0.8 0.5,-0.4 0.4,-0.1 1,0.1 1,0.5 0.7,0.7 0.2,0.4 v 0.7 l -0.4,0.8 -0.6,0.4 -0.8,0.3 -0.9,-0.2 -1.2,-0.2 h -0.7 l -0.5,0.4 -0.3,0.5 v 0.7 l 0.7,0.6 1.2,0.6 m -138.8,-395.7 3.9,-3.3 -4.3,-1.1 m 0.4,4.4 1.5,-6.1 m -5.5,5.1 0.9,-0.1 0.5,-0.5 0.1,-0.6 -0.1,-0.7 -0.5,-0.4 -1.1,-0.6 -0.8,-0.5 -0.5,-0.7 -0.1,-0.7 0.2,-0.9 0.4,-0.5 0.4,-0.2 1,-0.1 1.1,0.3 0.8,0.6 0.2,0.3 0.2,0.7 -0.2,0.8 -0.5,0.6 -0.7,0.4 -0.9,0.1 h -1.3 l -0.6,0.1 -0.5,0.5 -0.1,0.6 0.1,0.6 0.8,0.6 1.3,0.3 m -39,8.8 -5.1,-1.2 1.7,4.1 m 3.4,-2.9 -5.9,2.3 m 6.3,4.5 -0.9,0.1 -0.8,-0.3 -0.6,-0.7 -0.1,-0.3 -0.1,-1 0.3,-0.8 0.8,-0.6 0.2,-0.1 h 1 l 0.8,0.3 0.6,0.7 0.1,0.3 0.1,0.9 -0.4,0.8 -1,0.7 -1.4,0.6 -1.5,0.3 -1,-0.2 -0.6,-0.7 -0.3,-0.6 V 192 l 0.4,-0.6 m 140.9,240.5 -6.6,2.2 m 3.7,-5.3 2.9,3.1 m 2.7,4 0.2,-0.7 -0.4,-0.8 -0.4,-0.4 -0.9,-0.5 -1.1,0.2 -1.2,0.9 -1.1,1 -0.7,1.1 v 0.8 l 0.4,0.9 0.3,0.2 0.8,0.4 h 0.8 l 0.9,-0.4 0.2,-0.2 0.4,-0.8 0.1,-0.9 -0.5,-0.8 -0.2,-0.3 -0.8,-0.4 h -0.9 l -0.8,0.4 m 13.1,-99.1 -0.7,-0.1 -1.2,0.3 3.4,-5.3 m -6,3.9 0.9,0.2 1,-0.4 1,-1.1 0.5,-0.8 0.6,-1.4 v -1.1 l -0.6,-0.7 -0.5,-0.3 -1,-0.3 -1,0.5 -1,1.1 -0.5,0.7 -0.6,1.5 0.1,1 0.6,0.8 0.3,0.2 m -2.5,-3.4 -0.1,0.3 -0.6,0.3 -0.4,0.1 h -0.7 l -1,-0.7 -0.3,-0.6 -0.1,-0.4 0.1,-0.6 0.3,-0.5 0.6,-0.4 0.9,-0.4 4.2,-0.9 -3.5,-2.3 m 70.3,64.2 -0.7,-0.2 -1.2,-0.1 4.5,-4.3 m -6.7,2.4 0.8,0.4 1.1,-0.2 1.3,-0.8 0.6,-0.6 0.9,-1.3 0.2,-1 -0.4,-0.9 -0.4,-0.4 -0.9,-0.5 -1,0.2 -1.3,0.8 -0.7,0.7 -0.8,1.2 -0.3,1.1 0.4,0.8 0.4,0.4 m -1.7,-3.9 -0.2,0.2 -0.6,0.2 h -0.5 l -0.6,-0.2 -0.8,-0.9 -0.2,-0.6 v -0.5 l 0.2,-0.6 0.5,-0.4 0.6,-0.2 1.1,-0.2 4.2,0.1 -2.9,-3 m -125.9,-12.7 -6.9,1.4 m 4.3,-4.7 2.6,3.3 m 1.6,2.1 -0.8,-0.5 -0.7,0.1 -0.5,0.4 -0.3,0.6 0.2,0.6 0.5,1.2 0.3,0.9 -0.1,0.8 -0.3,0.6 -0.8,0.6 -0.6,0.1 -0.4,-0.1 -0.8,-0.5 -0.7,-1 -0.4,-0.9 0.1,-0.4 0.3,-0.6 0.7,-0.5 0.7,-0.2 0.8,0.2 0.8,0.5 1,0.8 0.6,0.3 0.6,-0.2 0.5,-0.3 0.3,-0.6 -0.3,-0.9 -0.8,-1.1 m 131,92.4 -0.1,-0.6 -0.5,-1.2 5.8,2.4 m -4.8,-5.2 -0.1,0.9 0.6,0.9 1.3,0.9 0.8,0.4 1.5,0.3 1.1,-0.2 0.6,-0.8 0.2,-0.5 0.1,-0.9 -0.6,-1 -1.2,-0.8 -0.9,-0.4 -1.5,-0.3 -1,0.2 -0.7,0.7 -0.1,0.5 m 1.5,-3.7 1.3,-3.1 1.5,2.6 0.4,-0.8 0.5,-0.4 0.4,-0.2 0.9,0.1 0.6,0.2 0.7,0.7 0.3,0.7 -0.1,1 -0.3,0.8 -0.7,0.7 -0.4,0.2 h -0.6 m -31.8,25.2 -6.3,3 m 3,-5.6 3.3,2.6 m 4.1,3.2 -6.3,3.1 m 3,-5.7 3.3,2.6 m -123.3,-178.4 -0.7,0.2 -1,0.8 1.1,-6.2 m -4.1,5.8 1,-0.1 0.7,-0.8 0.6,-1.4 0.2,-0.9 -0.1,-1.5 -0.4,-1 -0.8,-0.5 -0.6,-0.1 -0.9,0.2 -0.8,0.7 -0.6,1.5 -0.1,0.8 v 1.6 l 0.4,1 0.9,0.4 0.4,0.1 m -3.9,-0.7 -3.3,-0.6 2.2,-2.1 -0.8,-0.1 -0.6,-0.4 -0.2,-0.4 -0.2,-0.9 0.2,-0.6 0.4,-0.8 0.7,-0.5 0.9,-0.1 0.9,0.1 0.9,0.5 0.2,0.3 0.2,0.7 m -25.4,4.7 -0.8,-0.6 -0.6,0.1 -0.5,0.4 -0.4,0.5 0.1,0.7 0.4,1.2 0.3,0.9 -0.2,0.8 -0.3,0.6 -0.8,0.5 -0.6,0.1 -0.4,-0.1 -0.8,-0.6 -0.6,-1 -0.3,-0.9 0.1,-0.4 0.3,-0.6 0.8,-0.5 0.6,-0.1 0.9,0.2 0.7,0.6 0.9,0.8 0.6,0.3 0.7,-0.1 0.5,-0.3 0.3,-0.6 -0.2,-0.9 -0.8,-1.1 m 1.3,4.6 0.2,-0.2 0.7,-0.1 0.4,0.1 0.6,0.3 0.6,1 0.1,0.7 -0.1,0.4 -0.3,0.6 -0.5,0.3 -0.6,0.1 h -1.1 l -4.2,-0.8 2.3,3.5"
       id="nums_005"
       stroke="#000000"
       stroke-width="1" />
    <path
       d="m 2633.4,44.7 -21.7,72.6 -40.6,138.6 -5.6,137.7 -2.3,59.2 29.9,154.2 -20.6,128.2 -108.6,-38 -147.5,-54.4 -12.2,-111.2 146,72.6 24.5,-91.3 -27.4,-79.9 21.9,-68.3 -160.3,-91.9 -109.6,-42.5 -31.2,-76.4 129.8,32.7 12.4,-99.6 48.9,-68.4 17.3,92.7 89.6,140 32,-106.2 -67.2,-63.7 85.6,-8.6 z m -396.8,290.4 -32.3,-48.4 96.5,17.7 71.1,45.5 58.4,60.9 -38.3,90.3 -38.7,-30.9 -62.2,-63.7 z"
       id="coupes_005"
       stroke="#ff0000"
       stroke-width="1.27"
       sodipodi:nodetypes="ccccccccccccccccccccccccccccccccccc" />
    <path
       d="m 2469.2,364.7 96.3,28.9 m 0,0 -118.2,39.4 m 115.9,19.8 -115.9,-19.8 m 115.9,19.8 -88.5,60.1 m -5.5,-148.2 101.9,-108.8 m -105,-4.6 105,4.6 m -262.2,16.9 157.2,-21.5 m 0,0 145.6,-134 m -113.6,27.8 113.6,-27.8 M 2498.1,145.1 2633.4,44.7 M 2593.1,607 2474.7,512.9 m 118.4,94.1 -142.9,-2.8 m 122.3,131 -122.3,-131 m -133.8,38.6 133.8,-38.6 m -152.3,-417.6 168.2,64.7 M 2310.3,87 l 66.2,24.3 m -177.2,119 98.6,-43.7 m -6.8,219.9 80.8,-56.6 m 0,0 -18.6,120.3 m -62.2,-63.7 9.7,-102.1 m -64.2,30.7 64.2,-30.7"
       id="plisM_005"
       stroke="#a52a2a"
       stroke-dasharray="4" />
    <path
       d="m 2469.2,364.7 -3.1,-113.4 m 32,-106.2 18.4,-72.3 m -52.6,624.4 -13.7,-93 m -141.3,-331.4 -11,-86.2 m 0,0 78.6,-75.3 m 53.8,299.5 -77,59.4"
       id="plisV_005"
       stroke="#008000"
       stroke-dasharray="4, 1, 1, 1"
       stroke-width="1.27" />
    <path
       d="m 2465.7,306 4,4 m 0,-4 -4,4 m 39.6,-203.1 4,4 m 0,-4 -4,4 m -50.2,537.8 4,4 m 0,-4 -4,4 m -153.7,-425 4,4 m 0,-4 -4,4 m 33.8,-84.7 4,4 m 0,-4 -4,4 m 54.6,287.5 4,4 m 0,-4 -4,4"
       id="marqueV_005"
       stroke="#008000" />
    <path
       d="m 2418.6,286.2 -0.8,-1.5 -2.2,-0.8 h -1.5 l -2.3,0.8 -1.5,2.2 -0.7,3.8 v 3.7 l 0.7,3 1.5,1.5 2.3,0.8 h 0.7 l 2.3,-0.8 1.5,-1.5 0.7,-2.2 v -0.8 l -0.7,-2.2 -1.5,-1.5 -2.3,-0.8 h -0.7 l -2.3,0.8 -1.5,1.5 -0.7,2.2"
       id="titre_6"
       stroke="#4b0082" />
    <path
       d="m 2326,341.2 -7.5,15.8 m -3,-15.8 h 10.5"
       id="titre_7"
       stroke="#4b0082" />
  </g>
</svg>
