<?xml version="1.0" encoding="UTF-8" standalone="no"?>
<svg
   height="841.88977pt"
   viewBox="0 0 532.99998 754.00001"
   width="595.27557pt"
   version="1.1"
   id="svg1"
   sodipodi:docname="bouledogue200_H25_lang_A4x5.svg"
   inkscape:version="1.3 (0e150ed6c4, 2023-07-21)"
   xmlns:inkscape="http://www.inkscape.org/namespaces/inkscape"
   xmlns:sodipodi="http://sodipodi.sourceforge.net/DTD/sodipodi-0.dtd"
   xmlns="http://www.w3.org/2000/svg"
   xmlns:svg="http://www.w3.org/2000/svg">
  <defs
     id="defs1" />
  <sodipodi:namedview
     id="namedview1"
     pagecolor="#ffffff"
     bordercolor="#000000"
     borderopacity="0.25"
     inkscape:showpageshadow="2"
     inkscape:pageopacity="0.0"
     inkscape:pagecheckerboard="0"
     inkscape:deskcolor="#d1d1d1"
     inkscape:document-units="mm"
     showgrid="false"
     inkscape:zoom="0.3227174"
     inkscape:cx="1975.4125"
     inkscape:cy="556.2142"
     inkscape:window-width="1920"
     inkscape:window-height="1057"
     inkscape:window-x="-8"
     inkscape:window-y="-8"
     inkscape:window-maximized="1"
     inkscape:current-layer="svg1" />
  <style
     type="text/css"
     id="style1"><![CDATA[
			path {
				fill: none;
			}
		]]></style>
  <g
     id="page_001">
    <path
       d="m 188.7,459.5 h 0.9 l 0.9,-0.5 0.9,-1.3 0.4,-0.8 0.3,-1.5 -0.2,-1.1 -0.7,-0.6 -0.5,-0.2 -0.9,-0.1 -1,0.5 -0.8,1.3 -0.4,0.8 -0.3,1.5 0.1,1.1 0.7,0.6 0.4,0.2 m 128.3,99.4 1.2,-3.1 1.6,2.6 0.3,-0.8 0.5,-0.5 0.4,-0.2 1,0.1 0.5,0.2 0.8,0.6 0.3,0.8 -0.1,0.9 -0.3,0.9 -0.6,0.7 -0.4,0.2 h -0.7 m -83.5,98.2 -0.2,-0.6 -0.9,-0.5 -0.6,-0.1 -0.9,0.1 -0.7,0.8 -0.6,1.5 -0.3,1.4 0.1,1.3 0.5,0.7 0.9,0.4 0.3,0.1 0.9,-0.2 0.7,-0.5 0.4,-0.8 0.1,-0.3 -0.2,-0.9 -0.4,-0.7 -0.9,-0.5 h -0.3 l -0.9,0.1 -0.7,0.5 -0.5,0.8 m -104.6,-2 -0.1,-0.2 0.1,-0.7 0.3,-0.4 0.4,-0.4 1.2,-0.3 0.7,0.1 0.3,0.2 0.5,0.5 0.1,0.6 -0.1,0.6 -0.3,1 -2.1,3.7 4.1,-1.1 m 1.1,-6.9 -0.8,0.6 -0.3,1 0.1,1.5 0.2,0.9 0.7,1.4 0.9,0.7 h 0.9 l 0.6,-0.2 0.8,-0.5 0.3,-1 -0.1,-1.5 -0.3,-0.9 -0.7,-1.4 -0.8,-0.7 h -0.9 l -0.5,0.1 m -37.9,-74.2 -0.4,-3 h -2.7 l 0.3,0.3 0.4,0.8 0.1,0.9 -0.2,0.9 -0.5,0.7 -0.8,0.4 -0.6,0.1 -1,-0.2 -0.6,-0.5 -0.4,-0.9 -0.2,-0.9 0.2,-0.9 0.3,-0.3 0.6,-0.4 m 9.3,-92.8 -0.4,0.5 -0.5,1.2 -2.5,-5.8 m 1.1,5.1 -0.5,0.5 -0.4,1.2 -2.6,-5.7 m 17,-33.9 0.5,0.4 1.2,0.5 -5.9,2.4 m 5.2,-0.9 0.5,0.4 1.1,0.5 -5.8,2.3 m 23,-36.8 -0.7,-0.2 h -1.2 l 4.4,-4.4 m -63.8,0.8 -4.4,2.7 4.1,1.8 m 0.3,-4.5 -2.5,5.8 m 257.8,249.8 v -0.3 l 0.3,-0.6 0.3,-0.3 0.6,-0.3 h 1.2 l 0.6,0.3 0.3,0.3 0.3,0.6 v 0.6 l -0.2,0.6 -0.6,0.9 -3,3.1 4.2,-0.1 m 6.5,-111.4 -1.6,2.9 -1.3,-2.7 -0.4,0.8 -0.5,0.3 -0.5,0.2 -0.9,-0.2 -0.5,-0.3 -0.7,-0.7 -0.2,-0.8 0.2,-0.9 0.4,-0.8 0.7,-0.7 0.4,-0.1 h 0.7 m 73.5,125.5 0.7,-0.1 1.1,-0.6 -2,6 m 3.2,-4.2 0.1,-0.3 0.4,-0.5 0.4,-0.2 h 0.7 l 1.1,0.3 0.5,0.5 0.2,0.4 0.1,0.7 -0.2,0.5 -0.5,0.5 -0.9,0.7 -3.8,1.8 4,1.4 m 68.2,-110.2 -0.6,-0.2 h -1.3 l 4.6,-4.4 m -7.7,1.4 5.1,-0.7 -3.1,-3.2 m -2,3.9 4.5,-4.3 m 0.3,85.8 0.1,-0.7 -0.4,-1.2 5.5,3.1 m -4.8,-4.7 1.7,-2.9 1.2,2.8 0.4,-0.8 0.6,-0.4 0.4,-0.1 0.9,0.2 0.5,0.3 0.7,0.7 0.2,0.9 -0.2,0.9 -0.5,0.8 -0.7,0.6 -0.4,0.1 h -0.7 M 352.1,493.8 h 0.3 l 0.6,0.4 0.2,0.3 0.3,0.6 -0.1,1.2 -0.3,0.6 -0.3,0.3 -0.6,0.2 h -0.6 l -0.6,-0.3 -0.9,-0.7 -2.8,-3.2 -0.2,4.2 m 6.1,3.3 -0.3,-0.9 -0.8,-0.6 -1.5,-0.4 -0.9,-0.1 -1.5,0.2 -1,0.6 -0.3,0.9 v 0.6 l 0.2,0.9 0.9,0.6 1.4,0.4 0.9,0.1 1.6,-0.2 0.9,-0.6 0.3,-0.9 0.1,-0.4 m 98.6,2.8 -0.3,-0.1 -0.5,-0.4 -0.1,-0.4 -0.1,-0.7 0.3,-1.1 0.5,-0.5 0.4,-0.2 0.7,-0.1 0.5,0.2 0.5,0.5 0.7,0.8 1.9,3.8 1.3,-4 m -5.4,-3.6 1,-3.1 1.7,2.4 0.3,-0.8 0.5,-0.5 0.3,-0.2 h 1 l 0.6,0.2 0.7,0.6 0.4,0.7 v 1 l -0.3,0.8 -0.5,0.8 -0.4,0.2 -0.7,0.1 m -87.9,-88.5 h 0.3 l 0.5,0.5 0.2,0.4 0.1,0.6 -0.3,1.2 -0.5,0.5 -0.4,0.2 -0.6,0.1 -0.6,-0.2 -0.5,-0.4 -0.7,-0.9 -2,-3.7 -1.2,4.1 m 4.9,5.9 -3.2,-4.1 -1.2,4.3 m 4.4,-0.2 -6,-1.8 m 129.2,-7.2 -0.2,-0.2 -0.4,-0.5 -0.2,-0.4 v -0.7 l 0.6,-1 0.5,-0.4 0.4,-0.2 h 0.7 l 0.5,0.3 0.4,0.5 0.6,1 1.3,4 1.9,-3.7 m -4.4,-5.2 -0.2,0.9 0.4,0.5 0.6,0.3 h 0.6 l 0.6,-0.4 0.8,-0.9 0.7,-0.7 0.8,-0.3 h 0.6 l 0.8,0.5 0.4,0.5 0.2,0.4 -0.2,0.9 -0.5,1.1 -0.7,0.7 -0.4,0.1 h -0.7 l -0.8,-0.4 -0.4,-0.5 -0.2,-0.8 0.1,-1 0.3,-1.2 v -0.7 l -0.4,-0.5 -0.5,-0.3 h -0.7 l -0.7,0.7 -0.6,1.2 m -67.4,-58.1 0.4,-5.2 -3.8,2.3 m 3.4,2.9 -3.2,-5.4 m 0.4,7 -2.8,1.7 0.3,-3 -0.8,0.5 h -0.6 l -0.4,-0.1 -0.8,-0.6 -0.3,-0.5 -0.2,-1 0.2,-0.8 0.6,-0.7 0.8,-0.5 0.9,-0.2 0.4,0.1 0.6,0.4 m 73.6,-42.2 5.1,1.1 -1.8,-4.1 m -3.3,3 5.8,-2.5 m -8,-2.8 5,1.1 -1.8,-4.2 m -3.2,3.1 5.8,-2.5 m -65.9,14.9 -2.6,4.4 4.4,-0.4 m -1.8,-4 0.5,6.2 m 5.7,-6.7 -3,0.2 -0.1,2.8 0.3,-0.4 0.9,-0.3 0.9,-0.1 0.9,0.2 0.7,0.5 0.3,0.9 0.1,0.6 -0.2,0.9 -0.6,0.7 -0.9,0.4 h -0.8 l -1,-0.2 -0.3,-0.3 -0.3,-0.5 m 35.6,-126.2 -0.3,3 2.7,0.5 -0.3,-0.3 -0.2,-0.9 0.1,-0.9 0.4,-0.9 0.6,-0.5 0.9,-0.3 0.6,0.1 0.9,0.4 0.5,0.6 0.3,0.9 -0.1,0.9 -0.4,0.9 -0.3,0.3 -0.6,0.2 m -3.3,-5.5 -0.2,-0.6 -0.9,-1 6.3,0.5 m -114.8,136.9 -3,0.7 0.4,2.7 0.2,-0.4 0.8,-0.5 0.9,-0.2 0.9,0.1 0.8,0.4 0.5,0.8 0.1,0.6 v 0.9 l -0.5,0.8 -0.8,0.5 -0.9,0.2 -0.9,-0.1 -0.4,-0.2 -0.4,-0.5 m 4.5,-6.4 3.2,-0.8 -1.1,2.8 0.8,-0.2 0.7,0.1 0.3,0.2 0.6,0.8 0.1,0.6 -0.1,1 -0.4,0.7 -0.8,0.5 -0.9,0.2 -0.9,-0.1 -0.4,-0.2 -0.4,-0.5 m 11.9,-164.9 -0.4,2.9 2.6,0.7 -0.2,-0.3 -0.2,-0.9 0.1,-0.9 0.5,-0.9 0.7,-0.5 0.9,-0.1 0.6,0.1 0.8,0.4 0.5,0.7 0.2,0.9 -0.2,0.9 -0.4,0.9 -0.3,0.2 -0.7,0.2 m -1.5,-9.6 0.8,0.4 0.5,0.7 0.2,1 -0.1,0.3 -0.4,0.8 -0.7,0.5 -0.9,0.2 -0.3,-0.1 -0.8,-0.4 -0.5,-0.7 -0.2,-0.9 V 157 l 0.5,-0.9 0.7,-0.5 1.2,-0.1 1.5,0.2 1.4,0.6 0.8,0.7 0.2,0.9 -0.1,0.6 -0.5,0.9 -0.6,0.2 m -108.6,89.7 0.8,-2.9 -2.5,-1.1 0.2,0.4 0.1,1 -0.3,0.8 -0.5,0.8 -0.8,0.4 h -0.9 l -0.6,-0.1 -0.8,-0.6 -0.4,-0.7 v -1 l 0.2,-0.8 0.6,-0.8 0.3,-0.2 0.7,-0.1 m 3,8 -0.1,-1 -0.5,-0.4 -0.5,-0.2 -0.7,0.1 -0.5,0.5 -0.6,1.1 -0.5,0.8 -0.8,0.4 -0.6,0.1 -0.9,-0.3 -0.5,-0.4 -0.2,-0.4 v -1 l 0.3,-1.1 0.6,-0.8 0.3,-0.2 0.7,-0.1 0.9,0.2 0.4,0.5 0.5,0.8 v 0.9 l -0.1,1.2 0.1,0.7 0.5,0.5 0.6,0.1 0.7,-0.1 0.5,-0.8 0.4,-1.3 m 29.1,-98.4 0.8,-2.9 -2.5,-1 0.2,0.3 0.1,1 -0.3,0.9 -0.5,0.7 -0.8,0.4 -0.9,0.1 -0.6,-0.2 -0.8,-0.5 -0.4,-0.8 v -0.9 l 0.2,-0.9 0.6,-0.8 0.4,-0.2 0.6,-0.1 m 2.9,8.3 -0.1,-0.9 -0.6,-0.9 -1.4,-0.7 -0.9,-0.2 -1.5,-0.2 -1,0.3 -0.6,0.8 -0.1,0.6 v 1 l 0.7,0.8 1.3,0.7 0.9,0.2 1.5,0.2 1.1,-0.3 0.5,-0.8 0.1,-0.4 m 90.4,-81.3 -0.6,3 2.6,0.8 -0.2,-0.4 -0.1,-0.9 0.1,-0.9 0.5,-0.8 0.7,-0.5 0.9,-0.1 0.6,0.1 0.9,0.5 0.4,0.7 0.2,0.9 -0.2,0.9 -0.5,0.8 -0.3,0.3 -0.7,0.1 m -3.4,-9.3 3.5,3.8 0.9,-4.5 m -4.4,0.7 6.2,1.2 m -60.2,-15.1 1.3,-2.7 -2.3,-1.4 0.1,0.4 -0.1,1 -0.4,0.8 -0.6,0.7 -0.8,0.2 -1,-0.1 -0.5,-0.2 -0.7,-0.7 -0.3,-0.8 0.1,-0.9 0.4,-0.8 0.6,-0.7 0.4,-0.2 h 0.7 m 1.1,6.4 V 59 l 0.5,1.2 -5.7,-2.6 m 45.2,-23.4 2.6,1.4 1.6,-2.2 -0.4,0.1 -1,-0.1 -0.7,-0.5 -0.7,-0.7 -0.2,-0.8 0.2,-0.9 0.2,-0.5 0.7,-0.7 0.9,-0.2 0.9,0.2 0.8,0.4 0.6,0.7 0.1,0.4 v 0.7 m -6.9,0.3 -0.1,0.2 -0.6,0.4 -0.4,0.1 h -0.6 l -1.1,-0.6 -0.4,-0.5 -0.1,-0.4 v -0.7 l 0.3,-0.5 0.6,-0.4 1,-0.5 4,-1.2 -3.6,-2 m -80.6,355 -0.7,-0.1 -0.7,0.7 -0.3,0.5 -0.1,1 0.5,0.9 1.1,1 1.4,0.7 1.2,0.3 0.8,-0.2 0.7,-0.6 0.1,-0.3 0.2,-0.9 -0.3,-0.9 -0.6,-0.7 -0.3,-0.1 -0.9,-0.2 -0.8,0.3 -0.7,0.6 -0.2,0.3 -0.1,0.9 0.2,0.8 0.7,0.7 m -0.4,-8 -0.2,0.9 0.5,1 1.2,1 0.8,0.4 1.4,0.5 1.1,-0.1 0.7,-0.7 0.3,-0.5 0.2,-0.9 -0.5,-1 -1.2,-1 -0.8,-0.4 -1.5,-0.5 -1,0.1 -0.7,0.7 -0.3,0.4 m -74.6,8.9 -4.6,2.2 3.9,2.2 m 0.7,-4.4 -3,5.5 m 6.6,-3.5 -0.9,-0.1 -0.6,0.3 -0.3,0.6 v 0.6 l 0.4,0.6 0.9,0.8 0.6,0.7 0.3,0.8 -0.1,0.7 -0.4,0.8 -0.5,0.4 -0.4,0.1 -1,-0.2 -1,-0.5 -0.7,-0.7 -0.1,-0.5 V 392 l 0.5,-0.8 0.5,-0.4 0.8,-0.2 1,0.1 1.2,0.4 h 0.6 l 0.6,-0.4 0.3,-0.5 v -0.7 l -0.6,-0.7 -1.2,-0.6 m -75.1,-68.8 1.4,3 -2.9,-0.6 0.4,0.8 v 0.7 l -0.2,0.4 -0.7,0.6 -0.5,0.3 -0.9,0.1 -0.8,-0.3 -0.7,-0.7 -0.4,-0.8 -0.1,-0.9 0.2,-0.4 0.4,-0.6 m 7.6,6.3 0.4,-0.5 -0.1,-0.9 -0.3,-0.6 -0.6,-0.7 -1.1,-0.1 -1.5,0.4 -1.3,0.6 -1,0.8 -0.3,0.8 0.1,0.9 0.2,0.3 0.6,0.7 0.8,0.3 1,-0.1 0.2,-0.2 0.7,-0.6 0.3,-0.8 -0.1,-1 -0.1,-0.2 -0.7,-0.7 -0.8,-0.3 -0.9,0.1 m 96.7,-76.9 0.1,3 2.7,0.2 -0.3,-0.3 -0.3,-0.9 -0.1,-0.9 0.3,-0.9 0.6,-0.6 0.9,-0.3 0.6,-0.1 0.9,0.3 0.6,0.6 0.3,0.9 0.1,0.9 -0.3,0.9 -0.3,0.3 -0.6,0.3 m -5.3,-6.6 0.3,0.9 0.6,0.2 h 0.6 l 0.6,-0.3 0.3,-0.6 0.2,-1.2 0.3,-1 0.6,-0.6 0.6,-0.3 h 0.9 l 0.6,0.2 0.3,0.3 0.3,0.9 0.1,1.2 -0.3,0.9 -0.3,0.3 -0.6,0.4 h -0.9 l -0.6,-0.3 -0.6,-0.6 -0.4,-0.8 -0.3,-1.2 -0.3,-0.6 -0.6,-0.3 h -0.6 l -0.6,0.4 -0.3,0.9 0.1,1.3 m -131.2,17.5 2.2,2.4 -3,0.3 0.6,0.6 0.2,0.7 -0.1,0.4 -0.4,0.8 -0.5,0.4 -0.9,0.4 -0.8,-0.1 -0.8,-0.5 -0.6,-0.6 -0.4,-0.9 v -0.4 l 0.3,-0.7 m 9.7,3.4 -2,-2.2 -2.2,1.5 0.4,0.1 0.8,0.4 0.6,0.7 0.4,0.9 -0.1,0.8 -0.4,0.9 -0.5,0.3 -0.9,0.4 H 113 l -0.8,-0.5 -0.6,-0.7 -0.4,-0.9 v -0.4 l 0.3,-0.6 m 31.5,-98.5 -0.2,0.3 -0.5,0.4 -0.4,0.1 h -0.7 l -1,-0.5 -0.4,-0.6 -0.2,-0.4 v -0.6 l 0.3,-0.6 0.5,-0.4 1,-0.5 4,-1.3 -3.8,-1.9 m -5.2,4.4 1,0.1 0.5,-0.4 0.3,-0.5 v -0.7 l -0.4,-0.5 -0.9,-0.8 -0.7,-0.7 -0.3,-0.8 v -0.7 l 0.4,-0.8 0.6,-0.4 0.4,-0.1 0.9,0.1 1.1,0.6 0.6,0.6 0.2,0.5 v 0.6 l -0.4,0.8 -0.6,0.4 -0.8,0.3 -0.9,-0.1 -1.2,-0.3 h -0.7 l -0.5,0.4 -0.3,0.5 v 0.7 l 0.7,0.7 1.2,0.6 M 53.2,145.1 v 0.3 l -0.2,0.7 -0.3,0.3 -0.6,0.3 -1.2,0.1 -0.6,-0.3 -0.3,-0.2 -0.4,-0.6 v -0.6 l 0.3,-0.6 0.5,-1 2.8,-3.2 -4.2,0.3 m -1.3,6.4 -3.3,0.2 1.6,-2.5 -0.9,0.1 -0.6,-0.3 -0.3,-0.3 -0.4,-0.9 v -0.6 l 0.3,-0.9 0.5,-0.6 0.9,-0.4 h 0.9 l 0.9,0.2 0.3,0.3 0.4,0.6 m -2.9,101.9 v -0.3 l 0.3,-0.6 0.3,-0.3 0.6,-0.3 h 1.2 l 0.6,0.3 0.3,0.4 0.3,0.6 -0.1,0.6 -0.3,0.6 -0.6,0.8 -3.1,2.9 4.2,0.2 m 4.9,-5.3 -0.3,-0.6 -0.9,-0.3 h -0.6 l -0.9,0.2 -0.6,0.9 -0.3,1.5 -0.1,1.5 0.3,1.2 0.6,0.6 0.9,0.4 h 0.3 l 0.9,-0.3 0.6,-0.6 0.3,-0.9 v -0.3 l -0.3,-0.9 -0.5,-0.6 -0.9,-0.3 h -0.3 l -0.9,0.2 -0.7,0.6 -0.3,0.9 M 14.6,190.4 h 0.3 l 0.6,0.3 0.3,0.3 0.3,0.6 v 1.2 l -0.3,0.6 -0.3,0.3 -0.6,0.3 h -0.6 l -0.6,-0.3 -0.9,-0.6 -3,-3 v 4.2 m 6.3,4.8 v -3 l -2.7,-0.3 0.3,0.3 0.3,0.9 v 0.9 l -0.3,0.9 -0.6,0.6 -0.9,0.3 h -0.6 l -0.9,-0.3 -0.6,-0.6 -0.3,-0.9 V 197 l 0.3,-0.9 0.3,-0.3 0.6,-0.3 m 473.9,-89.8 -1,2.8 2.5,1.2 -0.2,-0.4 v -0.9 l 0.3,-0.9 0.6,-0.7 0.7,-0.4 h 1 l 0.5,0.2 0.8,0.6 0.4,0.8 v 0.9 l -0.3,0.9 -0.6,0.7 -0.4,0.2 -0.7,0.1 m -1.4,-6.7 -0.3,-0.1 -0.5,-0.5 -0.2,-0.4 -0.1,-0.7 0.4,-1.1 0.5,-0.5 0.4,-0.1 0.6,-0.1 0.6,0.2 0.5,0.4 0.6,0.9 1.9,3.8 1.4,-3.9 m -33.1,-57.4 1.6,-2.5 -2.1,-1.7 0.1,0.4 -0.2,0.9 -0.5,0.7 -0.7,0.6 -0.9,0.2 -0.9,-0.2 -0.5,-0.4 -0.6,-0.7 -0.2,-0.8 0.3,-0.9 0.5,-0.8 0.7,-0.6 0.4,-0.1 0.7,0.1 m -0.6,10.3 1.6,-2.5 -2.1,-1.8 0.1,0.4 -0.2,1 -0.5,0.7 -0.7,0.6 -0.9,0.2 -0.9,-0.2 -0.5,-0.4 -0.6,-0.7 -0.2,-0.8 0.3,-1 0.5,-0.7 0.7,-0.6 0.4,-0.1 0.7,0.1 m 25.2,8.9 1.5,2.6 2.5,-1.1 -0.4,-0.1 -0.7,-0.6 -0.5,-0.8 -0.2,-0.9 0.2,-0.8 0.7,-0.7 0.5,-0.4 0.9,-0.1 0.8,0.2 0.8,0.6 0.4,0.8 0.2,0.9 -0.1,0.4 -0.4,0.6 m -8.7,-4.8 5.1,0.5 -2.2,-3.9 m -2.9,3.4 5.4,-3.1 m -60.4,48.1 2,-2.2 -1.7,-2 v 0.4 l -0.4,0.8 -0.6,0.7 -0.8,0.5 h -0.9 l -0.9,-0.4 -0.4,-0.4 -0.4,-0.9 -0.1,-0.8 0.4,-0.9 0.6,-0.6 0.9,-0.5 h 0.4 l 0.6,0.2 m -2.3,10 2,-2.2 -1.8,-2.1 v 0.5 l -0.3,0.8 -0.7,0.7 -0.8,0.4 -0.8,0.1 -0.9,-0.4 -0.4,-0.4 -0.5,-0.9 v -0.8 l 0.4,-0.9 0.6,-0.6 0.8,-0.5 h 0.4 l 0.7,0.2 m -22.7,69.5 0.5,-2.9 -2.6,-0.8 0.2,0.4 0.2,0.9 -0.2,0.9 -0.4,0.8 -0.7,0.5 -1,0.2 -0.5,-0.1 -0.9,-0.5 -0.5,-0.7 -0.1,-0.9 0.1,-0.9 0.5,-0.8 0.3,-0.3 0.7,-0.2 m 1.4,9.7 -0.8,-0.5 -0.5,-0.7 -0.2,-0.9 0.1,-0.3 0.4,-0.9 0.7,-0.4 0.9,-0.2 0.3,0.1 0.9,0.4 0.5,0.7 0.1,0.9 v 0.3 l -0.5,0.9 -0.7,0.5 -1.2,0.1 -1.5,-0.3 -1.4,-0.5 -0.8,-0.8 -0.2,-0.9 0.1,-0.6 0.5,-0.8 0.6,-0.2 m -126.9,-11.9 -1.1,2.7 2.4,1.3 -0.2,-0.4 0.1,-0.9 0.3,-0.9 0.6,-0.7 0.8,-0.3 h 1 l 0.5,0.3 0.8,0.6 0.3,0.8 -0.1,0.9 -0.3,0.8 -0.6,0.8 -0.4,0.1 -0.7,0.1 m -2.1,-8.5 v 0.9 l 0.6,0.9 1.3,0.8 0.8,0.4 1.5,0.2 1.1,-0.2 0.6,-0.7 0.2,-0.6 0.1,-0.9 -0.6,-0.9 -1.3,-0.8 -0.9,-0.4 -1.5,-0.2 -1,0.2 -0.6,0.7 -0.2,0.4 m -12.9,3.2 -0.7,-5.1 -3.2,3.1 m 3.9,2 -4.3,-4.5 m 0.1,8.5 -0.7,-5.1 -3.2,3.1 m 3.9,2 -4.3,-4.6 m -19.4,280.6 -4.7,-2.2 0.9,4.4 m 3.8,-2.2 -6.2,1.2 m 48.9,38.3 2,2.2 2.2,-1.6 h -0.4 l -0.9,-0.5 -0.6,-0.6 -0.4,-0.9 v -0.8 l 0.5,-0.9 0.4,-0.4 0.9,-0.4 h 0.8 l 0.9,0.5 0.6,0.6 0.4,0.9 v 0.4 l -0.2,0.6 m -193.4,-95 -0.6,-0.1 -1.3,0.2 3.7,-5.1 m -28.5,10.8 v -1 l -0.7,-0.8 -1.4,-0.7 -0.9,-0.2 -1.5,-0.1 -1,0.4 -0.6,0.7 -0.1,0.6 v 1 l 0.8,0.8 1.3,0.7 0.9,0.2 1.5,0.1 1.1,-0.4 0.5,-0.7 0.1,-0.5"
       id="nums_001"
       stroke="#000000"
       stroke-width="1" />
    <path
       d="m 430.4,717.8 -55.4,-19.1 -17.8,-22 -12.7,15.2 -31.6,0.5 -13.1,-14.8 -31.6,9.8 -70.9,-12.4 -26.5,-19.8 -11.8,19 -38.8,10.9 -19.9,-9.9 -20,-40 -12.3,-102 9.8,-43.6 36.7,-16.3 -20.7,-11.2 -1.5,-3.7 7.2,-22.4 -20.4,7.7 -35.5,-15.1 -8.6,-19.9 16.8,-62.9 58.8,41.7 22.1,0.8 28.1,28 0.9,22.1 19.4,-7.8 32.7,14.6 7.3,19.6 -13.2,-68.8 128.4,135.8 v 0 l 3.9,8 -26.1,48.4 28.8,-53.3 4.3,-73.2 27.6,-94.5 88.6,-53.4 -56.6,4.8 -14.7,19.2 -44.9,11.1 -22,-10 2.3,27.1 -26.6,48.4 -24,12.5 -117.2,-64.5 -21.1,-9.5 -18.3,-38.8 6.1,-22.3 -19.2,0.9 -19,-22 3.5,-18.8 L 72.4,266.3 26.3,265 7.8,249.4 7.9,141.2 25,125.1 l 43.9,-2.7 19,13.8 30.9,-1.3 59.1,29.7 17.5,25.5 11.1,-31.2 52.6,-49.6 31.8,-9.4 4.7,28.6 -22.5,56.4 -23.2,17.5 3.5,88.6 -1.8,-46.6 27,-38.5 31.2,-105.8 -4.2,-26.4 22.9,-49.2 23,-13.8 55.6,30.9 -13.5,68.7 9.2,38.4 -8.6,-35.7 -16.3,97.6 16.8,-100.2 41,-43.8 -5.2,-19.5 17.9,-27.7 19.9,-3.1 20.9,6 19.5,33.3 -5,21.1 9.5,18.5 -11.5,33 -18.9,8.7 -7.8,98.2 51.8,120.8 -54.4,107.3 -25.3,76 26.3,5.9 37.8,39.8 4.6,26.6 -57.75,99.85 z"
       id="coupes_001"
       stroke="#ff0000"
       stroke-width="1.27"
       sodipodi:nodetypes="ccccccccccccccccccccccccccccccccccccccccccccccccccccccccccccccccccccccccccccccccccccccccccccccccccccc" />
    <path
       d="M 314.1,588.2 161.7,438.4 m 59.4,26.4 115.2,67 m -22.2,56.4 -14.3,89.4 m 0,0 L 161.7,438.4 M 299.8,677.6 114.5,473.3 m 0,0 47.2,-34.9 m 9.1,216.8 -56.3,-181.9 M 100.3,675.2 77.8,489.6 m 36.7,-16.3 -15,-37.3 m 0,0 11.1,-48.5 m 0,0 51.1,50.9 M 35,408.7 110.6,387.5 m 246.6,289.2 -57.4,0.9 m 14.3,-89.4 43.1,88.5 m -43.1,-88.5 103,35.3 m 0,0 -59.9,53.2 m -14.3,-141.8 74.2,88.6 m -74.2,-88.6 104.2,4.3 m -30,84.3 40.8,87.9 m 0,0 -100.7,-34.7 m 89.9,-137.5 68.7,72.3 m 0,0 -98.7,12 m -69.9,-161.8 125.2,1.5 m -97.6,-96 97.6,96 m -97.6,-96 152,-11.3 M 463.4,313.8 475,235.1 m -68.2,83.5 76,-181.7 m -157.6,202 157.6,-202 m -157.6,202 52.7,-128.3 m 0,0 104.9,-73.7 M 253.4,291 377.9,210.6 M 325.2,338.9 253.4,291 m 0,0 140.2,-180.7 m -115,95.6 115,-95.6 m -83.8,-10.2 97.3,-58.5 m -97.3,58.5 41.7,-89.4 m -26.3,328.2 -48.3,88 m 0,0 L 253.4,291 m -93.7,71.4 93.7,-71.4 m -127,0.8 127,-0.8 m -127,0.8 123.5,-89.4 m -54.5,-12.3 54.5,12.3 M 91.7,251.9 195.4,190.1 M 87.9,136.2 195.4,190.1 M 91.7,251.9 87.9,136.2 m -80,5 80,-5 m 290,74.4 57.8,-144 m 0,0 47.1,70.3 m -47.1,-70.3 68,10.1 m 0,0 -20.9,60.2 M 435.7,66.6 468.3,16.3 m 0,0 35.4,60.4 M 195.4,190.1 290.9,99.9"
       id="plisM_001"
       stroke="#a52a2a"
       stroke-dasharray="4" />
    <path
       d="m 161.7,438.4 59.4,26.4 m 0,0 93,123.4 m 22.2,-56.4 -22.2,56.4 m -14.3,89.4 -129,-22.4 m 0,0 -70.5,20 m 0,0 14.2,-201.9 m -15,-37.3 62.2,2.4 M 99.5,436 35,408.7 m 412.1,130.5 -30,84.3 m -69.9,-161.8 99.9,77.5 m 16.3,-225.4 63.4,42.1 m -120,-37.3 68.2,-83.5 m -68.2,83.5 -81.6,20.3 M 393.6,110.3 377.9,210.6 M 253.4,291 278.6,205.9 m 31.2,-105.8 83.8,10.2 M 159.7,362.4 126.4,291.8 m 0,0 69,-101.7 m -69,101.7 -34.7,-39.9 m 0,0 L 7.9,141.2 M 91.7,251.9 7.8,249.4 m 283.1,-149.5 -41,102.5"
       id="plisV_001"
       stroke="#008000"
       stroke-dasharray="4, 1, 1, 1"
       stroke-width="1.27" />
    <path
       d="m 189.4,449.6 4,4 m 0,-4 -4,4 m 76.2,70.9 4,4 m 0,-4 -4,4 m 57.6,29.5 4,4 m 0,-4 -4,4 m -89.9,102.4 4,4 m 0,-4 -4,4 m -99.7,-5.2 4,4 m 0,-4 -4,4 m -28.2,-95 4,4 m 0,-4 -4,4 m 23.2,-141 4,4 m 0,-4 -4,4 m -63.4,-18.9 4,4 m 0,-4 -4,4 m 364.9,155 4,4 m 0,-4 -4,4 m -34.9,-84.8 4,4 m 0,-4 -4,4 m 97.9,-169.6 4,4 m 0,-4 -4,4 m -54.2,-62 4,4 m 0,-4 -4,4 m -74.9,47.9 4,4 m 0,-4 -4,4 m 19.7,-172.3 4,4 m 0,-4 -4,4 m -119.7,84 4,4 m 0,-4 -4,4 m 85.7,-147.3 4,4 m 0,-4 -4,4 M 141,325.1 l 4,4 m 0,-4 -4,4 m 17.9,-90.1 4,4 m 0,-4 -4,4 m -51.9,26.8 4,4 m 0,-4 -4,4 m -59.2,-79.2 4,4 m 0,-4 -4,4 m 0,50 4,4 m 0,-4 -4,4 m 220.6,-103.5 4,4 m 0,-4 -4,4"
       id="marqueV_001"
       stroke="#008000" />
    <path
       d="m 282.9,343.4 1.5,-0.7 2.2,-2.3 v 15.8"
       id="titre_1"
       stroke="#4b0082" />
  </g>
  <g
     id="page_002">
    <path
       d="m 835.1,301.5 0.4,-0.8 0.6,-0.6 1,-0.1 h 0.3 l 0.8,0.4 0.5,0.7 0.2,0.9 v 0.3 l -0.4,0.9 -0.7,0.5 -0.9,0.2 -0.3,-0.1 -0.9,-0.4 -0.5,-0.7 -0.1,-1.2 0.2,-1.5 0.4,-1.4 0.8,-0.8 0.9,-0.2 0.6,0.1 0.8,0.4 0.3,0.6 m 80.3,178.6 2.8,-1.7 -0.3,3 0.8,-0.4 0.6,-0.1 0.4,0.1 0.8,0.6 0.3,0.6 0.2,0.9 -0.2,0.8 -0.7,0.7 -0.7,0.5 -1,0.2 -0.4,-0.1 -0.5,-0.4 m 5.4,-9.2 0.7,7 m -4.3,-4.8 3.6,-2.2 m -67.6,-7.3 1.9,2.7 -3,-0.1 0.5,0.7 v 0.7 0.4 l -0.6,0.8 -0.5,0.3 -0.9,0.2 -0.9,-0.1 -0.7,-0.6 -0.5,-0.7 -0.3,-1 0.1,-0.4 0.3,-0.6 m 6.3,2.9 0.3,-0.2 h 0.6 0.4 l 0.6,0.4 0.7,1 0.1,0.6 -0.1,0.4 -0.3,0.6 -0.5,0.4 h -0.7 l -1.1,0.1 -4.2,-0.9 2.4,3.5 m -26.6,-115 0.6,-0.3 0.9,-0.8 -0.3,6.2 m 3,-6.3 -0.9,0.2 -0.4,0.6 v 0.6 l 0.3,0.6 0.6,0.4 1.1,0.3 0.9,0.4 0.6,0.6 0.3,0.6 -0.1,0.9 -0.3,0.6 -0.3,0.3 -0.9,0.2 h -1.2 l -0.9,-0.4 -0.3,-0.3 -0.3,-0.6 0.1,-0.9 0.3,-0.6 0.6,-0.6 0.9,-0.2 1.3,-0.3 0.6,-0.2 0.3,-0.6 v -0.6 l -0.2,-0.6 -0.9,-0.4 h -1.4 m -102.4,-49.7 -0.4,0.5 -0.4,1.3 -2.9,-5.6 m -1.6,7.1 0.5,0.4 1,-0.1 0.5,-0.3 0.7,-0.7 0.1,-1 -0.5,-1.5 -0.6,-1.3 -0.9,-1 -0.8,-0.2 -0.9,0.1 -0.3,0.2 -0.6,0.6 -0.3,0.9 0.2,0.9 0.1,0.3 0.7,0.6 0.8,0.3 0.9,-0.2 0.3,-0.1 0.6,-0.7 0.3,-0.8 -0.1,-0.9 m -3.9,73.7 -0.1,-0.3 -0.1,-0.7 0.1,-0.4 0.4,-0.5 1,-0.7 h 0.7 l 0.4,0.1 0.5,0.3 0.4,0.5 v 0.7 1.1 l -1,4.1 3.6,-2.2 m -1.1,-4.9 -0.2,-0.3 v -0.7 l 0.1,-0.4 0.3,-0.5 1,-0.7 h 0.7 l 0.4,0.1 0.6,0.3 0.3,0.5 0.1,0.7 -0.1,1.1 -1,4.1 3.6,-2.2 M 592,365.7 l 0.2,-0.2 0.7,-0.2 0.4,0.1 0.6,0.3 0.7,0.9 0.2,0.7 -0.1,0.4 -0.3,0.6 -0.4,0.4 -0.7,0.1 -1.1,0.1 -4.2,-0.5 2.6,3.3 m 4.5,-2.2 0.6,0.3 1.3,0.2 -5,3.8 m 74.2,-51.6 -0.7,-0.1 -1.2,0.4 2.9,-5.6 m -7.6,3.4 5.6,-4.2 m -1.9,6.2 -3.7,-2 m -95.6,-6.8 0.5,0.4 1.2,0.6 -5.9,2.3 m 6,3 -1,0.1 -0.8,-0.3 -0.6,-0.8 -0.1,-0.2 v -1 l 0.3,-0.8 0.7,-0.6 0.3,-0.1 h 1 l 0.7,0.3 0.6,0.7 0.2,0.3 v 1 l -0.3,0.7 -1,0.7 -1.4,0.6 -1.5,0.3 -1.1,-0.3 -0.6,-0.7 -0.2,-0.6 -0.1,-0.9 0.5,-0.5 m 30.8,-13.9 3.8,-5.8 m 0.4,6.4 -4.2,-0.6 m -7.9,104.8 v 0.3 l -0.2,0.7 -0.2,0.3 -0.6,0.4 -1.2,0.2 -0.6,-0.2 -0.4,-0.2 -0.3,-0.6 -0.1,-0.6 0.2,-0.6 0.4,-1 2.5,-3.4 -4.2,0.6 m -0.2,5 -0.6,0.4 -0.7,1.1 -1,-6.3 m -3.6,17.7 0.7,0.2 h 1.2 l -4.3,4.5 m 6.7,0.3 -0.8,0.4 -0.9,0.1 -0.8,-0.4 -0.2,-0.2 -0.5,-0.9 v -0.8 l 0.4,-0.9 0.2,-0.2 0.8,-0.5 h 0.9 l 0.8,0.4 0.2,0.2 0.5,0.9 v 0.8 l -0.6,1.1 -1,1.1 -1.3,0.9 -1,0.2 -0.9,-0.4 -0.4,-0.4 -0.5,-0.8 0.2,-0.7 m 72.4,28 -4.4,5.5 m 0.3,-6.4 4.1,0.9 m 385.1,-109.7 -0.3,0.1 -0.7,-0.1 -0.3,-0.2 -0.5,-0.4 -0.4,-1.2 0.1,-0.6 0.2,-0.4 0.5,-0.5 0.5,-0.2 0.7,0.1 1,0.3 3.8,1.9 -1.3,-4 m -7.6,-2.9 6.9,0.8 m -5.6,3.2 -1.3,-4 m -66.8,-61.5 -0.6,-0.1 -1.3,0.3 3.5,-5.3 m -6.1,3.9 1,0.2 1,-0.4 1,-1.1 0.5,-0.8 0.6,-1.4 v -1.1 l -0.6,-0.7 -0.5,-0.3 -1,-0.3 -1,0.5 -1,1.1 -0.5,0.7 -0.6,1.4 v 1.1 l 0.6,0.8 0.4,0.2 m -113.2,8.3 -0.5,0.8 -0.7,0.4 -1,0.1 -0.3,-0.1 -0.8,-0.5 -0.4,-0.7 -0.1,-0.9 0.1,-0.3 0.5,-0.8 0.7,-0.5 0.9,-0.1 0.3,0.1 0.8,0.5 0.5,0.7 v 1.3 l -0.3,1.4 -0.7,1.4 -0.8,0.8 h -0.9 l -0.6,-0.1 -0.8,-0.5 -0.2,-0.6 m -5.1,-78.6 1,0.1 0.5,-0.5 0.2,-0.5 v -0.7 l -0.4,-0.5 -1,-0.8 -0.7,-0.6 -0.3,-0.8 v -0.7 l 0.4,-0.8 0.5,-0.4 0.4,-0.2 0.9,0.1 1.1,0.5 0.7,0.7 0.2,0.4 v 0.6 l -0.4,0.9 -0.5,0.4 -0.8,0.3 -0.9,-0.1 -1.2,-0.2 h -0.7 l -0.5,0.4 -0.3,0.6 v 0.6 l 0.7,0.7 1.3,0.5 m -104.6,39.9 h 0.7 l 1.2,-0.5 -2.6,5.8 m 7,-4.1 -2.8,-1.2 -1.3,2.4 0.3,-0.2 1,0.1 0.8,0.4 0.7,0.6 0.3,0.8 -0.1,0.9 -0.2,0.6 -0.7,0.7 -0.7,0.3 -1,-0.1 -0.8,-0.4 -0.7,-0.6 -0.2,-0.4 v -0.7 m -58.8,-56.2 0.3,-0.2 0.6,-0.1 0.4,0.1 0.6,0.4 0.7,1 v 0.6 l -0.1,0.5 -0.3,0.5 -0.5,0.4 h -0.7 -1.1 l -4.1,-0.9 2.2,3.5 m 5,-1.2 0.2,-0.1 0.7,-0.1 0.4,0.1 0.6,0.4 0.6,1 0.1,0.6 -0.1,0.5 -0.3,0.5 -0.5,0.4 h -0.7 -1.1 l -4.1,-0.9 2.2,3.5 m 365.1,234.9 0.1,-3.3 2.4,1.8 v -0.9 l 0.3,-0.6 0.3,-0.3 0.9,-0.2 h 0.6 l 0.9,0.3 0.6,0.6 0.3,0.9 v 0.9 l -0.4,0.9 -0.3,0.3 -0.6,0.3 m -5,-6 v -3.3 l 2.4,1.8 v -0.9 l 0.3,-0.6 0.3,-0.3 0.9,-0.3 h 0.6 l 0.9,0.3 0.6,0.6 0.3,0.9 v 0.9 l -0.3,0.9 -0.3,0.3 -0.6,0.3 m -40.6,129.5 -1.4,2.6 2.2,1.6 -0.1,-0.5 0.1,-0.9 0.5,-0.8 0.7,-0.6 0.8,-0.2 0.9,0.1 0.6,0.3 0.6,0.7 0.2,0.8 -0.2,1 -0.4,0.8 -0.7,0.6 -0.4,0.1 h -0.7 m 0.7,-9.9 h -0.6 l -0.7,0.6 -0.3,0.6 -0.2,0.9 0.5,1 1.1,0.9 1.4,0.8 1.1,0.3 0.9,-0.2 0.7,-0.7 0.1,-0.2 0.2,-1 -0.2,-0.8 -0.7,-0.7 -0.2,-0.1 -1,-0.2 -0.8,0.2 -0.7,0.7 -0.1,0.2 -0.2,1 0.2,0.8 0.7,0.7 m -92.7,-3.1 -2.9,-1.7 2.8,-1.1 -0.8,-0.5 -0.3,-0.6 -0.1,-0.4 0.2,-0.9 0.3,-0.5 0.7,-0.6 0.8,-0.2 1,0.2 0.7,0.4 0.6,0.7 0.2,0.5 -0.1,0.6 m -8.5,0.9 0.9,0.2 0.6,-0.4 0.3,-0.5 0.1,-0.7 -0.4,-0.5 -0.9,-0.9 -0.6,-0.7 -0.2,-0.8 v -0.7 l 0.5,-0.8 0.6,-0.4 0.4,-0.1 0.9,0.3 1,0.6 0.7,0.7 0.1,0.4 -0.1,0.7 -0.4,0.7 -0.6,0.4 -0.8,0.2 -1,-0.2 -1.1,-0.4 h -0.7 l -0.6,0.4 -0.3,0.5 v 0.6 l 0.6,0.8 1.1,0.6 m 28.1,84.9 -2.5,1.6 1.1,2.4 0.1,-0.4 0.6,-0.7 0.8,-0.5 0.9,-0.2 0.8,0.2 0.8,0.6 0.3,0.6 0.2,0.9 -0.2,0.8 -0.6,0.7 -0.8,0.5 -0.9,0.2 -0.4,-0.1 -0.6,-0.3 m 5.4,-9.3 0.7,6.9 m -4.3,-4.7 3.6,-2.2 m -61.7,4.8 -4.5,2.4 4,2 m 0.5,-4.4 -2.8,5.6 m 8,-2 v -0.7 l -0.7,-0.6 -0.5,-0.3 -1,-0.1 -0.9,0.5 -0.9,1.2 -0.7,1.4 -0.3,1.2 0.3,0.8 0.7,0.6 0.3,0.2 0.9,0.1 0.8,-0.3 0.7,-0.6 0.1,-0.3 0.1,-0.9 -0.2,-0.8 -0.7,-0.7 -0.3,-0.1 -0.9,-0.2 -0.8,0.3 -0.7,0.7 m 38.4,-110.7 2.5,2.2 -3,0.6 0.7,0.6 0.2,0.6 v 0.4 l -0.3,0.9 -0.4,0.4 -0.9,0.5 h -0.8 l -0.9,-0.3 -0.6,-0.6 -0.5,-0.9 v -0.4 l 0.1,-0.6 m 8.5,0.8 -0.8,-0.4 -0.6,0.2 -0.5,0.5 -0.1,0.6 0.2,0.6 0.7,1.1 0.5,0.8 v 0.9 l -0.2,0.6 -0.6,0.7 -0.6,0.2 h -0.4 l -0.9,-0.4 -0.9,-0.8 -0.4,-0.8 -0.1,-0.4 0.2,-0.7 0.6,-0.6 0.6,-0.3 h 0.9 l 0.9,0.4 1,0.6 0.7,0.1 0.6,-0.2 0.4,-0.5 0.2,-0.6 -0.5,-0.8 -1,-0.9 m 24.2,-48.1 -2.3,2.4 -0.5,-3 -0.6,0.7 -0.6,0.2 h -0.4 l -0.9,-0.4 -0.4,-0.4 -0.5,-0.9 v -0.8 l 0.4,-0.9 0.6,-0.6 0.9,-0.5 h 0.4 l 0.6,0.2 m -2.8,10.4 -2.4,-6.6 m 5.3,3.5 -2.9,3.1 m -110.6,112.1 -5,1.4 3.5,2.8 m 1.5,-4.2 -4,4.9 m 5,-2.1 0.7,0.2 1.3,-0.2 -4,4.9 m 36.4,-109.4 -1.9,-2.8 3,0.2 -0.5,-0.8 v -0.6 l 0.1,-0.5 0.5,-0.7 0.5,-0.3 1,-0.3 0.8,0.2 0.7,0.6 0.5,0.7 0.3,1 -0.1,0.4 -0.3,0.6 m -6.3,-3 -0.2,0.2 -0.7,0.1 -0.4,-0.1 -0.6,-0.3 -0.6,-1.1 -0.1,-0.6 0.1,-0.4 0.3,-0.6 0.5,-0.3 0.7,-0.1 h 1 l 4.2,0.8 -2.3,-3.5 m -41.9,-41.7 -2.5,-2.2 2.9,-0.6 -0.7,-0.6 -0.2,-0.6 -0.1,-0.4 0.4,-0.9 0.4,-0.5 0.8,-0.5 0.8,-0.1 0.9,0.4 0.7,0.6 0.5,0.8 v 0.4 l -0.1,0.7 m -9.9,-1.6 5,-1.2 -3.4,-2.9 m -1.6,4.1 4.1,-4.8 m -37.9,37.6 -2.2,-4.7 -2.2,3.9 m 4.4,0.8 -5.5,-3.2 m 3.2,7 0.2,-0.9 -0.5,-1 -1.1,-1 -0.8,-0.5 -1.5,-0.4 h -1 l -0.7,0.7 -0.3,0.5 -0.2,0.9 0.5,1 1.1,1 0.8,0.4 1.4,0.5 1.1,-0.1 0.7,-0.6 0.3,-0.4 m -45.8,181.8 2.3,2.4 -3,0.3 0.6,0.7 0.2,0.6 v 0.5 l -0.5,0.8 -0.4,0.4 -0.9,0.4 h -0.8 l -0.9,-0.5 -0.6,-0.7 -0.4,-0.8 v -0.5 l 0.3,-0.6 m 8.5,4.8 -0.9,0.4 -0.9,-0.1 -0.8,-0.4 -0.2,-0.2 -0.4,-0.9 0.1,-0.9 0.4,-0.8 0.2,-0.2 0.9,-0.4 0.8,0.1 0.9,0.4 0.2,0.2 0.4,0.9 -0.1,0.9 -0.6,1 -1.1,1 -1.4,0.8 -1,0.2 -0.9,-0.5 -0.4,-0.4 -0.3,-0.9 0.2,-0.6 m 87.3,-49.6 5,-1.1 -3.4,-3 m -1.6,4.1 4.1,-4.7 m -5.1,1.9 -0.6,-0.2 -1.3,0.1 4.2,-4.7 m -32.6,41.7 -0.2,5.2 3.7,-2.5 m -3.5,-2.7 3.4,5.3 m 0.1,-5.7 -0.2,-0.3 v -0.6 -0.5 l 0.4,-0.5 1,-0.7 0.6,-0.1 0.5,0.1 0.5,0.4 0.4,0.5 v 0.6 1.1 l -0.8,4.2 3.5,-2.3 m -84,-111.6 1.7,-4.9 -4.3,1.3 m 2.6,3.6 -1.8,-6.1 m -4.5,6.9 0.5,0.5 h 0.9 l 0.6,-0.1 0.8,-0.6 0.3,-1 -0.1,-1.5 -0.5,-1.5 -0.6,-1 -0.7,-0.4 -1,-0.1 -0.3,0.1 -0.8,0.6 -0.4,0.7 v 1 l 0.1,0.3 0.5,0.7 0.8,0.4 0.9,0.1 0.3,-0.1 0.8,-0.6 0.4,-0.7 v -1 m -28.7,103.6 -2.9,4.3 4.5,-0.1 m -1.6,-4.2 0.1,6.3 m 6.6,-6.4 -2.9,6.4 m -1.3,-6.3 4.2,-0.1 m -44.3,-52.9 -0.9,-5.1 -3.1,3.2 m 4,1.9 -4.5,-4.4 m 1.2,5.6 0.2,0.2 0.2,0.6 v 0.4 l -0.2,0.7 -0.8,0.8 -0.6,0.3 h -0.5 l -0.6,-0.2 -0.4,-0.5 -0.2,-0.6 -0.3,-1 v -4.3 l -3,3 m -9.5,68.3 -0.7,5.1 4,-2.1 m -3.3,-3 3,5.6 m 3,-8.7 0.3,7 m -4,-5 3.7,-2 m -22.1,-9.4 0.6,3.2 -2.7,-1.3 0.2,0.9 -0.2,0.6 -0.3,0.4 -0.8,0.4 -0.6,0.1 -0.9,-0.1 -0.7,-0.5 -0.5,-0.8 -0.1,-0.9 0.1,-1 0.2,-0.3 0.6,-0.4 m 4.5,8.6 -0.9,-0.2 -0.7,-0.4 -0.4,-0.9 -0.1,-0.3 0.2,-0.9 0.4,-0.7 0.9,-0.5 h 0.3 l 0.9,0.1 0.7,0.5 0.5,0.8 v 0.3 l -0.1,1 -0.5,0.7 -1.2,0.5 -1.4,0.2 h -1.6 l -0.9,-0.4 -0.5,-0.9 -0.1,-0.6 0.1,-0.9 0.6,-0.4 m 138.5,-239.7 -0.6,0.1 -1.1,0.7 1.5,-6.2 m -6.1,5.3 2.9,0.7 0.9,-2.6 -0.4,0.2 -0.9,0.1 -0.9,-0.2 -0.8,-0.5 -0.4,-0.7 -0.1,-1 0.1,-0.5 0.5,-0.8 0.7,-0.5 1,-0.1 0.9,0.2 0.8,0.5 0.2,0.4 0.1,0.7 m 9.5,41.1 0.1,-0.6 -0.2,-1.3 5.1,3.6 m -1.8,-7.1 -0.7,-0.1 -0.8,0.6 -0.3,0.5 -0.3,0.9 0.4,1 1.1,1.1 1.2,0.9 1.1,0.4 0.9,-0.1 0.7,-0.6 0.2,-0.2 0.3,-0.9 -0.2,-0.9 -0.5,-0.7 -0.3,-0.2 -0.9,-0.3 -0.8,0.2 -0.8,0.5 -0.1,0.3 -0.3,0.9 0.1,0.8 0.6,0.8 m -44.7,16.7 h 0.7 l 1.2,-0.4 -2.9,5.6 m 7.6,-3.4 -5.6,4.2 m 1.9,-6.1 3.7,1.9 m 118.6,-72.9 0.2,3.3 -2.5,-1.7 v 0.9 l -0.3,0.6 -0.2,0.4 -0.9,0.3 -0.6,0.1 -0.9,-0.3 -0.7,-0.5 -0.3,-0.9 -0.1,-0.9 0.3,-0.9 0.2,-0.4 0.6,-0.3 m 4,5 0.4,0.6 0.9,0.9 -6.3,0.3 m 40.7,-28.5 0.1,0.3 -0.2,0.6 -0.2,0.4 -0.5,0.4 -1.2,0.2 -0.7,-0.2 -0.3,-0.2 -0.4,-0.5 -0.2,-0.6 0.2,-0.7 0.4,-1 2.4,-3.5 -4.1,0.8 m -4.2,5.1 0.2,-0.9 0.4,-0.7 0.9,-0.5 h 0.3 l 0.9,0.1 0.7,0.5 0.5,0.8 v 0.3 l -0.1,0.9 -0.5,0.7 -0.8,0.5 -0.3,0.1 -0.9,-0.2 -0.7,-0.4 -0.6,-1.2 -0.2,-1.4 v -1.6 l 0.4,-1 0.8,-0.4 0.6,-0.1 0.9,0.1 0.4,0.5 m -257.8,-274.9 0.6,0.3 1.3,0.2 -5,3.8 m 6.8,-1.8 -0.8,-0.6 -0.7,0.1 -0.5,0.4 -0.3,0.6 0.2,0.7 0.4,1.1 0.3,0.9 -0.1,0.8 -0.3,0.6 -0.7,0.6 -0.7,0.1 h -0.4 l -0.8,-0.6 -0.7,-0.9 -0.3,-0.9 0.1,-0.5 0.3,-0.6 0.7,-0.5 0.7,-0.1 0.8,0.1 0.8,0.5 0.9,0.8 0.6,0.3 0.7,-0.1 0.5,-0.4 0.3,-0.6 -0.3,-0.9 -0.8,-1.1 m -4.9,-61.5 0.1,0.3 v 0.7 l -0.1,0.4 -0.4,0.5 -1.1,0.5 h -0.7 l -0.4,-0.2 -0.5,-0.4 -0.3,-0.5 v -0.7 l 0.2,-1.1 1.4,-4 -3.8,1.8 m -2.7,6 -0.2,-0.9 0.3,-0.8 0.7,-0.7 0.3,-0.1 0.9,-0.1 0.8,0.3 0.7,0.6 0.1,0.3 0.1,0.9 -0.3,0.8 -0.6,0.7 -0.3,0.1 -1,0.1 -0.8,-0.2 -0.7,-1 -0.7,-1.3 -0.4,-1.5 0.2,-1.1 0.7,-0.7 0.5,-0.2 1,-0.1 0.5,0.4 m 60.4,20.1 -2.3,-2.4 3,-0.3 -0.6,-0.7 -0.2,-0.6 v -0.5 l 0.4,-0.8 0.5,-0.4 0.8,-0.4 h 0.9 l 0.8,0.5 0.6,0.6 0.4,0.9 v 0.4 l -0.2,0.6 m -8.6,-1.6 0.8,0.4 1.1,-0.2 1.3,-0.8 0.6,-0.6 0.9,-1.3 0.2,-1 -0.4,-0.9 -0.4,-0.4 -0.8,-0.5 -1.1,0.2 -1.3,0.8 -0.6,0.7 -0.9,1.2 -0.2,1.1 0.4,0.8 0.3,0.3 m 87.5,17.2 0.7,-0.6 0.1,-0.6 -0.2,-0.6 -0.5,-0.5 h -0.6 l -1.3,0.1 h -0.9 l -0.8,-0.4 -0.5,-0.5 -0.3,-0.8 0.1,-0.7 0.2,-0.4 0.8,-0.5 1.1,-0.4 h 1 l 0.3,0.1 0.5,0.5 0.3,0.9 -0.1,0.6 -0.3,0.8 -0.8,0.6 -1,0.6 -0.5,0.5 -0.1,0.7 0.2,0.6 0.5,0.4 h 0.9 l 1.3,-0.4 m -7.1,2.5 2.8,-1 -0.6,-2.7 -0.2,0.4 -0.7,0.6 -0.9,0.3 h -0.9 l -0.8,-0.4 -0.6,-0.7 -0.2,-0.6 V 77 l 0.4,-0.8 0.7,-0.6 0.9,-0.3 h 0.9 l 0.4,0.2 0.5,0.5 m 32.3,42.1 0.2,1 0.6,0.3 h 0.6 l 0.6,-0.2 0.3,-0.6 0.4,-1.2 0.4,-0.9 0.6,-0.6 0.6,-0.2 h 0.9 l 0.6,0.4 0.3,0.3 0.2,0.9 v 1.2 l -0.4,0.9 -0.3,0.3 -0.6,0.2 h -0.9 l -0.6,-0.4 -0.6,-0.6 -0.2,-0.9 -0.3,-1.2 -0.2,-0.6 -0.6,-0.4 h -0.6 l -0.6,0.3 -0.4,0.8 v 1.4 m 0.3,-7.1 4,3.2 0.3,-4.5 m -4.3,1.3 6.3,0.3"
       id="nums_002"
       stroke="#000000"
       stroke-width="1" />
    <path
       d="m 937,493.9 -57.4,16.7 v 0 l -8.5,-3 -40.5,-70.1 -15.7,-10.4 -1.7,-27.7 14.2,-12.3 76,-15.2 -134.6,-6.6 -7.6,22.3 -37.9,23.1 -23.3,-3.3 85.5,20.4 -50.1,70.5 -17.5,7.8 -25.7,-13.4 -3.5,-18.8 -24.5,9.7 -51.5,-12 -17.7,-19.5 -20.9,0.9 -25.8,-24.4 -0.2,-20.9 11.2,-17 33.2,-5.5 16.1,12.6 -37.8,-48.3 -23.6,-60.1 95.3,12.9 46.9,24.1 10.3,-22.3 42.2,-22 24.2,4.3 142.6,18.5 -118.1,-15.4 -22,-17.1 v 0 l -24.2,5.6 -44.1,-19.6 -12,-21.7 -43.2,-68.2 -30.2,-15.2 -44.6,-59.2 -6.2,-33.2 9.3,-21 38.5,-18.3 22.2,6.1 23.9,3.4 31.9,33.5 2.2,24 15.2,-21.2 49.4,-17.2 25.1,7.1 13.6,26.6 -3.6,63.2 -16.4,25 118.4,53.5 132,85.2 18.9,56.1 -0.9,137.8 -70.6,126 -64.7,39.5 -62.9,-31.3 -39.1,-32.1 38.1,31.3 -0.2,2.1 v 0 l -13,26.5 -51.9,33.9 -29.5,1.3 -19,1.5 -19.7,-21.3 3.1,-18.9 -12.4,15.3 -31,0.7 -13,-14.7 -49.9,26.4 -9.2,-51.9 78.6,-80.9 10.9,-18.8 37.1,-11.1 19.4,9.9 0.4,-30.9 32.8,-57.4 26.4,-16.1 40.4,34.1 48.3,73.6 38.9,23.3 -31.2,-18.7 -2.4,-11.7 v 0 l 77,-80.7 z"
       id="coupes_002"
       stroke="#ff0000"
       stroke-width="1.27"
       sodipodi:nodetypes="cccccccccccccccccccccccccccccccccccccccccccccccccccccccccccccccccccccccccccccccccccccccccccccc" />
    <path
       d="M 903.4,371.9 766.1,286.4 m 142.6,18.5 66.8,148.7 m 0,0 -95.9,57 m 0,0 23.8,-138.7 m -134.6,-6.6 -79.4,-38.9 m 0,0 76.7,-40 m -66.1,121 -91.4,-9.6 m 0,0 80.8,-71.4 m -118.6,23.1 118.6,-23.1 m -118.6,23.1 71.7,-47.2 M 595,452.1 608.6,397.8 m 91.4,9.6 -105,44.7 m -46.9,-44.4 60.5,-9.9 M 595,452.1 548.1,407.7 M 688.7,473.9 595,452.1 m 449.7,-85.2 -69.2,86.7 m -66.8,-148.7 117.1,5.9 m -117.1,-5.9 -14.9,-79.3 m 14.9,79.3 -140.1,-32.5 m 0,0 125.2,-46.8 m -125.2,46.8 6.8,-100.3 m -87.1,64.6 87.1,-64.6 m -87.1,64.6 3.8,-148.1 m -47,79.9 47,-79.9 m 351.7,416.1 -68.3,-51.1 m 68.3,51.1 -111.7,60 m 0,0 43.4,-111.1 m -2.3,177.1 -41.1,-66 m 41.1,66 -127.6,8.2 m 0,0 86.5,-74.2 m -86.5,74.2 47.6,-97.5 m -86.7,65.4 86.7,-65.4 m -86.7,65.4 38.4,-139 m -38.4,139 -2,-173.1 m -59.6,104.4 59.6,-104.4 m -90.1,229.5 30.5,-125.1 m 61.6,68.7 -92.1,56.4 m 92.1,-56.4 -56.5,95.1 m 0,0 -35.6,-38.7 m 92.1,-56.4 37.9,33.4 m 0,0 -94.4,61.7 m -35.6,-38.7 -56.4,1.3 m 0,0 19.5,-106.4 M 658,664.5 598.9,639 m 186.6,-211.2 -96.8,46.1 m 46.7,24.4 -46.7,-24.4 m 141.9,-36.4 -3.2,-50.4 M 645.1,168.5 564.1,60.9 m 0,0 70,-33.2 m 0,0 58,60.9 m 89.7,-31.3 -6.4,114.8"
       id="plisM_002"
       stroke="#a52a2a"
       stroke-dasharray="4" />
    <path
       d="m 908.7,304.9 -5.3,67 m 72.1,81.7 -72.1,-81.7 m -23.8,138.7 -49,-73.1 m 0,0 72.8,-65.6 m -134.6,-6.6 -2.7,-78.9 m 2.7,78.9 -68.8,42.1 m 0,0 -10.6,-81 m 10.6,81 -11.3,66.5 m 220,-169 136,62 M 768.6,272.4 688.3,236.7 m 3.8,-148.1 83.3,83.5 m 156.7,392.6 -33.6,-30.4 m -92,72.5 -61.6,-68.7 M 714.4,663.2 677.5,558.1 m 0,0 67.4,-20 M 564.1,60.9 l 128,27.7 m 0,0 89.7,-31.3"
       id="plisV_002"
       stroke="#008000"
       stroke-dasharray="4, 1, 1, 1"
       stroke-width="1.27" />
    <path
       d="m 904,336.4 4,4 m 0,-4 -4,4 m 33.4,70.3 4,4 m 0,-4 -4,4 m -84.3,57.3 4,4 m 0,-4 -4,4 m 11.9,-73.3 4,4 m 0,-4 -4,4 m -99.6,-82.9 4,4 m 0,-4 -4,4 m -33,56.6 4,4 m 0,-4 -4,4 m -39.7,-23.5 4,4 m 0,-4 -4,4 m -0.3,69.8 4,4 m 0,-4 -4,4 m 282.3,-108.8 4,4 m 0,-4 -4,4 m -248.2,-85.4 4,4 m 0,-4 -4,4 m 5.2,-128.1 4,4 m 0,-4 -4,4 m 181.6,415.1 4,4 m 0,-4 -4,4 m -139.6,19 4,4 m 0,-4 -4,4 m -79.8,34.2 4,4 m 0,-4 -4,4 m 15.3,-66.6 4,4 m 0,-4 -4,4 m -83.1,-477.3 4,4 m 0,-4 -4,4 M 735,71 l 4,4 m 0,-4 -4,4"
       id="marqueV_002"
       stroke="#008000" />
    <path
       d="M 720.2,427.7 V 427 l 0.7,-1.5 0.8,-0.8 1.5,-0.7 h 3 l 1.5,0.7 0.7,0.8 0.8,1.5 v 1.5 l -0.8,1.5 -1.5,2.2 -7.5,7.5 h 10.5"
       id="titre_2"
       stroke="#4b0082" />
  </g>
  <g
     id="page_003">
    <path
       d="m 1394.6,634.8 0.4,-0.5 -0.1,-0.9 -0.2,-0.6 -0.6,-0.7 -1.1,-0.2 -1.5,0.3 -1.4,0.7 -0.9,0.7 -0.4,0.8 0.1,0.9 0.2,0.3 0.6,0.7 0.8,0.3 0.9,-0.1 0.3,-0.1 0.7,-0.6 0.3,-0.8 -0.1,-0.9 -0.1,-0.3 -0.6,-0.7 -0.8,-0.3 -1,0.1 m 6.5,6.6 0.5,-0.6 -0.1,-0.9 -0.3,-0.6 -0.6,-0.7 -1.1,-0.2 -1.5,0.4 -1.3,0.6 -1,0.7 -0.3,0.8 0.1,1 0.1,0.2 0.6,0.7 0.8,0.4 1,-0.1 0.2,-0.1 0.7,-0.7 0.3,-0.8 v -0.9 l -0.2,-0.3 -0.6,-0.7 -0.8,-0.3 -0.9,0.1 m -53.8,-78.6 v -0.6 l -0.7,-0.7 -0.5,-0.3 -0.9,-0.2 -1,0.5 -1,1.2 -0.7,1.3 -0.3,1.2 0.2,0.8 0.7,0.7 0.2,0.1 1,0.2 0.8,-0.2 0.7,-0.7 0.1,-0.2 0.2,-1 -0.2,-0.8 -0.7,-0.7 -0.2,-0.1 -1,-0.2 -0.8,0.2 -0.7,0.7 m 10,0.7 -5.7,4.1 m 2,-6.1 3.7,2 m 157.7,-30 0.3,0.6 0.9,0.3 h 0.6 l 0.9,-0.3 0.6,-1 0.3,-1.5 -0.1,-1.5 -0.3,-1.2 -0.6,-0.5 -0.9,-0.3 h -0.3 l -0.9,0.3 -0.6,0.6 -0.3,0.9 v 0.3 l 0.4,0.9 0.6,0.6 0.9,0.3 h 0.3 l 0.9,-0.3 0.6,-0.7 0.2,-0.9 m -8,4.5 2.8,-4.3 -4.5,0.2 m 1.7,4.1 -0.2,-6.3 m 19,100.9 0.5,-0.4 0.6,-1.1 1.6,6.1 m 0.1,-6.7 3.2,-0.8 -1.2,2.7 0.9,-0.2 0.6,0.2 0.4,0.2 0.5,0.8 0.2,0.6 -0.1,0.9 -0.4,0.7 -0.8,0.5 -0.9,0.3 -1,-0.1 -0.3,-0.2 -0.5,-0.5 m 35.2,-55.4 -0.5,0.4 v 1 l 0.2,0.6 0.6,0.7 1,0.3 1.5,-0.2 1.4,-0.5 1.1,-0.7 0.4,-0.7 v -1 l -0.1,-0.3 -0.6,-0.7 -0.8,-0.4 h -0.9 l -0.3,0.1 -0.8,0.6 -0.3,0.8 v 0.9 l 0.1,0.3 0.5,0.7 0.8,0.4 h 0.9 m -4.3,-4.4 -0.3,0.1 -0.6,-0.1 -0.4,-0.2 -0.5,-0.4 -0.4,-1.2 0.1,-0.6 0.2,-0.4 0.5,-0.5 0.5,-0.2 0.7,0.1 1,0.3 3.8,1.9 -1.3,-4 m -201.8,-127.6 0.5,0.4 1,-0.1 0.5,-0.2 0.7,-0.7 0.2,-1.1 -0.4,-1.4 -0.6,-1.4 -0.8,-1 -0.8,-0.3 -0.9,0.1 -0.3,0.2 -0.7,0.6 -0.3,0.8 0.1,1 0.1,0.2 0.7,0.7 0.8,0.3 0.9,-0.1 0.3,-0.1 0.7,-0.7 0.3,-0.8 -0.1,-0.9 m -3.4,4.6 -0.4,0.5 -0.4,1.2 -2.7,-5.7 m 168.6,53.3 -0.2,0.7 0.4,0.8 0.5,0.4 0.8,0.4 1.1,-0.2 1.2,-0.8 1.1,-1.1 0.6,-1.1 v -0.8 l -0.4,-0.9 -0.3,-0.2 -0.8,-0.4 h -0.9 l -0.8,0.5 -0.2,0.2 -0.4,0.8 v 0.9 l 0.4,0.8 0.2,0.2 0.9,0.4 h 0.8 l 0.9,-0.4 m -7,-0.9 -2.3,-2.4 2.9,-0.4 -0.6,-0.6 -0.2,-0.7 v -0.4 l 0.4,-0.9 0.4,-0.4 0.8,-0.4 h 0.9 l 0.8,0.4 0.7,0.6 0.4,0.9 v 0.4 l -0.2,0.6 m -27.1,20.9 -0.4,-0.5 h -1 l -0.6,0.2 -0.7,0.5 -0.4,1 0.2,1.6 0.4,1.4 0.6,1.1 0.8,0.4 h 0.9 l 0.3,-0.1 0.8,-0.5 0.4,-0.8 v -0.9 l -0.1,-0.3 -0.5,-0.8 -0.8,-0.4 h -0.9 l -0.3,0.1 -0.8,0.5 -0.4,0.7 v 1 m 6.7,-6.4 -1.7,4.9 4.3,-1.3 m -2.6,-3.6 1.7,6.1 m -60.5,-98.5 1.4,-6.9 m 2.7,5.9 -4.1,1 m -2.9,0.7 0.8,-0.5 0.4,-1 -0.1,-1.6 -0.2,-0.8 -0.6,-1.4 -0.8,-0.7 -1,-0.1 -0.6,0.1 -0.8,0.5 -0.3,1 v 1.6 l 0.2,0.8 0.7,1.4 0.8,0.8 h 0.9 l 0.5,-0.1 m 49.2,20.8 7,0.7 m -5.6,3.2 -1.4,-3.9 m 1,-1.5 -0.5,-0.5 -1.1,-0.5 5.9,-2.1 m -220.2,216.7 -0.6,-0.3 -0.9,0.3 -0.5,0.4 -0.5,0.8 v 1.1 l 0.7,1.3 1,1.2 0.9,0.8 0.9,0.1 0.9,-0.4 0.2,-0.1 0.5,-0.8 0.1,-0.9 -0.3,-0.9 -0.2,-0.2 -0.8,-0.5 -0.8,-0.1 -0.9,0.3 -0.2,0.2 -0.6,0.8 -0.1,0.8 0.4,0.9 m 4.7,-7.9 -0.6,-0.3 -0.9,0.3 -0.4,0.4 -0.6,0.8 0.1,1 0.7,1.4 0.9,1.2 1,0.7 0.9,0.2 0.8,-0.4 0.3,-0.2 0.5,-0.7 0.1,-0.9 -0.3,-0.9 -0.2,-0.2 -0.8,-0.5 -0.8,-0.1 -0.9,0.3 -0.3,0.2 -0.5,0.8 -0.1,0.8 0.3,0.9 m 37.1,-62.1 -0.5,0.5 v 0.9 l 0.1,0.6 0.6,0.8 1,0.3 1.5,-0.1 1.5,-0.4 1,-0.6 0.4,-0.8 0.1,-0.9 -0.1,-0.3 -0.5,-0.8 -0.8,-0.4 -0.9,-0.1 -0.3,0.1 -0.8,0.6 -0.4,0.7 -0.1,1 0.1,0.2 0.6,0.8 0.7,0.4 1,0.1 m -6.6,-7.6 6.9,1.1 m -5.7,2.9 -1.2,-4 M 1179,688.9 v -0.3 l 0.2,-0.6 0.2,-0.3 0.6,-0.4 1.2,-0.2 0.6,0.2 0.3,0.2 0.4,0.6 0.1,0.6 -0.2,0.6 -0.5,1 -2.5,3.4 4.2,-0.6 m 3.9,-6.1 -0.4,-0.5 -1,-0.2 -0.5,0.1 -0.9,0.5 -0.4,0.9 -0.1,1.6 0.2,1.4 0.5,1.2 0.7,0.5 0.9,0.2 0.3,-0.1 0.8,-0.4 0.5,-0.7 0.2,-0.9 v -0.3 l -0.5,-0.9 -0.7,-0.5 -0.9,-0.2 -0.3,0.1 -0.8,0.4 -0.5,0.7 -0.2,0.9 m -40,-153.5 v -7 m 3.8,5.2 -3.8,1.8 m -4.3,2 2.7,-1.3 -0.8,-2.6 -0.2,0.4 -0.7,0.7 -0.8,0.4 -0.9,0.1 -0.8,-0.3 -0.7,-0.7 -0.2,-0.6 -0.2,-0.9 0.3,-0.8 0.7,-0.6 0.8,-0.4 1,-0.1 0.4,0.1 0.5,0.4 m -41.5,81.8 -0.3,-0.9 -0.6,-0.3 -0.6,0.1 -0.6,0.3 -0.3,0.6 -0.2,1.2 -0.3,0.9 -0.6,0.6 -0.6,0.3 -0.9,0.1 -0.6,-0.3 -0.3,-0.3 -0.3,-0.9 -0.1,-1.2 0.3,-0.9 0.3,-0.3 0.6,-0.3 0.9,-0.1 0.6,0.3 0.6,0.6 0.3,0.9 0.4,1.2 0.3,0.6 0.6,0.3 0.6,-0.1 0.6,-0.3 0.3,-0.9 -0.1,-1.3 m 0.2,5.8 -0.3,-0.9 -1,-0.6 -1.5,-0.3 -0.9,0.1 -1.5,0.3 -0.8,0.6 -0.3,0.9 v 0.6 l 0.3,0.9 0.9,0.6 1.6,0.3 0.9,-0.1 1.4,-0.3 0.9,-0.6 0.3,-0.9 v -0.5 m 16.8,62.6 3.1,1.1 -2.5,1.7 0.9,0.3 0.5,0.4 0.2,0.4 -0.1,1 -0.2,0.5 -0.5,0.8 -0.8,0.4 -0.9,-0.1 -0.9,-0.2 -0.7,-0.6 -0.2,-0.4 -0.1,-0.7 m 10.1,-1.9 -2.9,-1 -1.1,2.5 0.4,-0.2 h 0.9 l 0.9,0.3 0.7,0.6 0.4,0.7 v 1 l -0.2,0.6 -0.6,0.7 -0.7,0.4 h -1 l -0.8,-0.3 -0.8,-0.6 -0.2,-0.4 -0.1,-0.6 m 216.6,-273.9 -0.7,-0.2 -0.8,0.4 -0.5,0.4 -0.4,0.9 0.2,1 0.9,1.3 1.1,1.1 1,0.6 h 0.9 l 0.8,-0.4 0.2,-0.2 0.4,-0.9 V 419 l -0.4,-0.9 -0.2,-0.2 -0.8,-0.4 h -0.9 l -0.8,0.4 -0.3,0.2 -0.4,0.9 v 0.8 l 0.5,0.9 m 1.5,-5.5 0.2,-0.7 v -1.2 l 4.5,4.4 m -86.9,-100.7 -5.4,-4.3 m 6.4,0.3 -1,4 m -1.9,1.3 0.3,0.1 0.6,0.4 0.2,0.4 0.1,0.6 -0.3,1.2 -0.4,0.5 -0.3,0.2 -0.7,0.2 -0.6,-0.2 -0.5,-0.4 -0.7,-0.8 -2.3,-3.6 -0.9,4.1 m 115.7,23.2 6.5,2.7 m -6.2,1.5 -0.3,-4.2 m -0.1,-3 0.3,0.9 1,0.6 1.5,0.2 h 0.9 l 1.5,-0.4 0.8,-0.7 0.3,-0.9 -0.1,-0.6 -0.3,-0.9 -0.9,-0.5 -1.5,-0.2 h -0.9 l -1.5,0.4 -0.9,0.6 -0.2,1 v 0.4 m -0.9,-66.1 6.1,3.3 m -6.4,0.8 0.3,-4.1 m 0.1,-1.8 0.2,-3.3 2.3,2 0.1,-0.9 0.3,-0.6 0.3,-0.3 0.9,-0.2 h 0.6 l 0.9,0.4 0.6,0.6 0.2,0.9 v 0.9 l -0.4,0.9 -0.3,0.3 -0.6,0.2 m -95.8,-39.2 -5.7,-4 m 6.4,-0.1 -0.7,4.1 m -1.7,4.6 0.6,-0.2 0.5,-0.9 0.1,-0.6 -0.1,-0.9 -0.8,-0.7 -1.5,-0.6 -1.4,-0.3 -1.3,0.1 -0.7,0.5 -0.4,0.9 -0.1,0.2 0.2,1 0.5,0.7 0.8,0.4 0.3,0.1 0.9,-0.2 0.7,-0.4 0.5,-0.9 v -0.3 l -0.1,-0.9 -0.5,-0.7 -0.8,-0.5 m 135.9,-98 5.4,-4.4 m -1.6,6.2 -3.8,-1.8 m -3.9,-1.8 4.5,-2.5 -4.1,-1.9 m -0.4,4.4 2.7,-5.6 m -11.3,98.9 -0.6,-0.3 -0.9,0.3 -0.5,0.3 -0.6,0.8 0.1,1.1 0.6,1.4 0.9,1.2 0.9,0.8 0.9,0.1 0.9,-0.3 0.2,-0.2 0.6,-0.7 0.1,-0.9 -0.3,-0.9 -0.1,-0.2 -0.8,-0.6 -0.9,-0.1 -0.9,0.3 -0.2,0.2 -0.6,0.7 -0.1,0.9 0.3,0.9 m 6,-7 0.3,0.9 -0.1,0.9 -0.6,0.7 -0.2,0.2 -0.9,0.3 -0.9,-0.1 -0.7,-0.6 -0.2,-0.2 -0.3,-0.9 0.1,-0.9 0.6,-0.7 0.2,-0.2 0.9,-0.3 0.9,0.1 0.9,0.8 0.9,1.2 0.6,1.4 0.1,1.1 -0.6,0.8 -0.5,0.3 -0.9,0.3 -0.6,-0.3 m 43.7,-22.8 -0.4,-0.6 -0.9,-0.3 -0.6,0.1 -0.9,0.3 -0.5,0.9 -0.3,1.5 0.1,1.5 0.3,1.2 0.6,0.6 0.9,0.3 0.3,-0.1 0.9,-0.3 0.6,-0.6 0.3,-0.9 v -0.3 l -0.4,-0.9 -0.6,-0.6 -0.9,-0.3 -0.3,0.1 -0.9,0.3 -0.6,0.6 -0.2,0.9 m 6.4,-4.4 -0.9,0.3 -0.3,0.6 v 0.6 l 0.3,0.6 0.7,0.3 1.2,0.3 0.9,0.2 0.6,0.6 0.3,0.6 v 0.9 l -0.2,0.6 -0.3,0.3 -0.9,0.3 -1.2,0.1 -0.9,-0.3 -0.3,-0.3 -0.4,-0.6 v -0.9 l 0.3,-0.6 0.6,-0.6 0.9,-0.3 1.2,-0.4 0.5,-0.3 0.3,-0.6 v -0.6 l -0.3,-0.6 -0.9,-0.2 h -1.4 m 29.7,-68.4 0.5,0.5 h 0.9 l 0.6,-0.2 0.8,-0.6 0.2,-1 -0.2,-1.6 -0.5,-1.4 -0.6,-1 -0.8,-0.4 h -0.9 l -0.3,0.1 -0.8,0.6 -0.4,0.8 0.1,0.9 0.1,0.3 0.5,0.7 0.8,0.4 h 0.9 l 0.3,-0.1 0.8,-0.6 0.3,-0.7 v -1 m -6.8,6.8 2.9,-1 -0.6,-2.6 -0.2,0.4 -0.8,0.5 -0.8,0.3 h -1 l -0.7,-0.3 -0.6,-0.8 -0.2,-0.6 v -0.9 l 0.4,-0.8 0.7,-0.5 0.9,-0.3 h 0.9 l 0.4,0.1 0.5,0.5 m 3.8,31.4 -0.6,0.1 -0.7,0.7 -0.2,0.6 -0.1,0.9 0.6,0.9 1.3,0.9 1.4,0.5 1.2,0.2 0.8,-0.3 0.6,-0.7 0.1,-0.3 0.1,-0.9 -0.3,-0.8 -0.7,-0.6 -0.3,-0.2 h -0.9 l -0.8,0.3 -0.7,0.7 -0.1,0.3 v 0.9 l 0.3,0.8 0.7,0.6 m -0.4,-6.1 -0.2,-0.1 -0.5,-0.6 -0.1,-0.3 -0.1,-0.7 0.5,-1.1 0.5,-0.5 0.4,-0.1 0.6,-0.1 0.6,0.3 0.4,0.5 0.6,0.9 1.7,3.9 1.6,-3.9 m -219.9,2.4 -6.6,2.2 m 3.7,-5.2 2.9,3 m 3.6,3.8 -6.7,2.2 m 3.8,-5.2 2.9,3 m -110,293.4 -6.4,2.8 m 3.2,-5.6 3.2,2.8 m 3.5,3.1 -2.2,-1.9 -2,1.8 h 0.4 l 0.9,0.3 0.6,0.6 0.5,0.9 0.1,0.8 -0.4,0.9 -0.4,0.4 -0.8,0.5 -0.9,0.1 -0.8,-0.4 -0.7,-0.6 -0.5,-0.8 v -0.5 l 0.2,-0.6 m -33.2,-92.2 -6.2,-3.3 m 6.3,-0.9 -0.1,4.2 m -2.3,4.9 -0.9,-0.3 -0.6,-0.6 -0.3,-0.9 v -0.3 l 0.4,-0.9 0.6,-0.6 0.9,-0.2 h 0.3 l 0.9,0.3 0.6,0.6 0.2,0.9 v 0.3 l -0.3,0.9 -0.6,0.6 -1.2,0.2 h -1.5 l -1.5,-0.4 -0.9,-0.6 -0.3,-0.9 0.1,-0.6 0.3,-0.9 0.6,-0.3 m 45.4,-65.8 0.7,-6.9 m 3.3,5.5 -4,1.4 m -2.5,0.9 0.8,-0.6 0.1,-0.6 -0.2,-0.6 -0.5,-0.5 h -0.7 l -1.2,0.1 h -1 l -0.7,-0.3 -0.5,-0.5 -0.3,-0.8 v -0.7 l 0.2,-0.4 0.8,-0.6 1.1,-0.4 h 0.9 l 0.4,0.2 0.5,0.4 0.3,0.9 -0.1,0.6 -0.3,0.8 -0.8,0.6 -1,0.7 -0.5,0.5 v 0.6 l 0.2,0.6 0.5,0.5 0.9,-0.1 1.3,-0.4 m 55.4,14.7 7,-0.8 m -4.7,4.4 -2.3,-3.6 m 0.4,-2.2 -0.2,0.2 h -0.7 -0.4 l -0.6,-0.4 -0.6,-1 -0.1,-0.7 0.1,-0.4 0.3,-0.6 0.5,-0.3 0.7,-0.1 1.1,0.1 4.1,0.9 -2.2,-3.6 m 102.8,-206 1,-0.1 0.4,-0.6 0.1,-0.6 -0.2,-0.6 -0.6,-0.4 -1.1,-0.5 -0.8,-0.5 -0.5,-0.7 -0.2,-0.6 0.2,-0.9 0.4,-0.5 0.3,-0.3 0.9,-0.1 1.2,0.2 0.9,0.4 0.2,0.4 0.2,0.6 -0.2,0.9 -0.4,0.6 -0.7,0.4 -0.9,0.2 -1.2,0.1 -0.7,0.2 -0.4,0.5 -0.1,0.6 0.2,0.6 0.8,0.5 1.4,0.2 m -3.6,-2.1 -0.7,0.2 -1,0.8 1.1,-6.2 M 1211.5,95 l 3.6,-3.7 -4.5,-0.7 m 0.9,4.4 1,-6.2 m -7.2,3.1 0.5,-0.9 0.7,-0.5 0.9,-0.1 h 0.3 l 0.8,0.4 0.5,0.7 0.2,1 -0.1,0.3 -0.4,0.8 -0.7,0.5 -0.9,0.2 -0.3,-0.1 -0.9,-0.4 -0.4,-0.7 -0.2,-1.2 0.3,-1.5 0.5,-1.5 0.7,-0.8 1,-0.1 0.6,0.1 0.8,0.4 0.2,0.7 m 5.7,91.1 -0.1,0.9 0.4,0.6 0.5,0.2 h 0.7 l 0.5,-0.4 0.8,-0.9 0.7,-0.7 0.8,-0.2 h 0.7 l 0.8,0.4 0.4,0.5 0.1,0.4 -0.1,1 -0.6,1 -0.6,0.7 -0.4,0.1 h -0.7 l -0.8,-0.4 -0.4,-0.5 -0.3,-0.8 0.2,-1 0.2,-1.2 v -0.6 l -0.4,-0.6 -0.5,-0.2 h -0.7 l -0.6,0.6 -0.6,1.2 m 3.3,-3.3 -0.2,-0.2 -0.4,-0.5 -0.2,-0.4 v -0.7 l 0.6,-1 0.5,-0.4 0.4,-0.2 h 0.7 l 0.5,0.3 0.4,0.5 0.5,1 1.4,4 1.9,-3.7 m -90.2,-92.4 -3.3,-0.5 2.1,-2.1 -0.9,-0.2 -0.5,-0.3 -0.3,-0.4 -0.1,-0.9 0.1,-0.6 0.4,-0.8 0.7,-0.6 0.9,-0.1 0.9,0.1 0.8,0.4 0.3,0.4 0.2,0.6 m -9.5,2.9 0.3,0.6 0.8,0.5 h 0.6 l 0.9,-0.1 0.8,-0.8 0.5,-1.5 0.2,-1.5 -0.2,-1.2 -0.5,-0.7 -0.8,-0.4 h -0.3 l -0.9,0.1 -0.7,0.5 -0.4,0.9 -0.1,0.3 0.2,0.9 0.5,0.7 0.8,0.4 0.3,0.1 1,-0.2 0.6,-0.5 0.5,-0.9 m 23.2,116.2 -3.4,6.1 m -0.8,-6.3 4.2,0.2 m 4.9,2.4 -0.4,0.9 -0.6,0.6 -0.9,0.2 h -0.3 l -0.9,-0.3 -0.6,-0.7 -0.2,-0.9 v -0.3 l 0.4,-0.9 0.6,-0.5 0.9,-0.3 h 0.3 l 0.9,0.4 0.6,0.6 0.2,1.2 -0.1,1.5 -0.4,1.5 -0.7,0.9 -0.9,0.2 h -0.6 l -0.9,-0.4 -0.2,-0.6 m -52,-69.9 -0.3,-0.9 -0.6,-0.3 -0.6,0.1 -0.6,0.3 -0.3,0.6 -0.2,1.2 -0.3,0.9 -0.6,0.6 -0.6,0.3 -0.9,0.1 -0.6,-0.3 -0.3,-0.3 -0.3,-0.9 -0.1,-1.2 0.3,-0.9 0.3,-0.3 0.6,-0.3 0.9,-0.1 0.6,0.3 0.6,0.6 0.3,0.9 0.4,1.2 0.3,0.6 0.6,0.3 0.6,-0.1 0.6,-0.3 0.3,-0.9 -0.1,-1.3 m 0.2,5.8 -0.3,-0.9 -0.9,-0.6 -1.5,-0.3 -0.9,0.1 -1.5,0.3 -0.9,0.7 -0.3,0.9 v 0.6 l 0.4,0.9 0.9,0.5 1.5,0.3 0.9,-0.1 1.5,-0.3 0.9,-0.6 0.2,-0.9 v -0.5 m 359.8,570.4 0.1,-0.3 0.5,-0.4 0.4,-0.2 0.7,-0.1 1.1,0.4 0.5,0.5 0.1,0.3 0.1,0.7 -0.2,0.6 -0.4,0.5 -0.9,0.6 -3.8,1.9 4,1.3 m 6.5,-4.4 -2.9,-1 -1.1,2.5 0.4,-0.2 h 0.9 l 0.9,0.3 0.7,0.6 0.4,0.7 v 1 l -0.2,0.6 -0.6,0.7 -0.7,0.4 h -1 l -0.8,-0.3 -0.8,-0.6 -0.2,-0.4 -0.1,-0.6 m 20.8,-15.4 -0.6,-0.4 -1.2,-0.3 5.4,-3.2 m -7.8,-0.3 5.1,0.4 -2.3,-3.9 m -2.8,3.5 5.4,-3.2 m -96.8,-374.9 0.6,-0.3 0.3,-0.9 v -0.6 l -0.3,-0.9 -0.9,-0.5 -1.5,-0.3 h -1.5 l -1.2,0.3 -0.6,0.6 -0.3,0.9 v 0.3 l 0.3,0.9 0.6,0.6 0.9,0.3 h 0.3 l 0.9,-0.3 0.6,-0.6 0.3,-0.9 v -0.3 l -0.3,-0.9 -0.6,-0.6 -0.9,-0.3 m 4.2,5.6 v 3.3 l -2.4,-1.8 v 0.9 l -0.3,0.6 -0.3,0.3 -0.9,0.3 h -0.6 l -0.9,-0.3 -0.6,-0.6 -0.3,-0.9 v -0.9 l 0.3,-0.9 0.3,-0.3 0.6,-0.3 m 46.4,-36.7 0.7,-0.6 v -0.7 l -0.2,-0.5 -0.5,-0.5 h -0.7 l -1.2,0.2 -1,0.1 -0.8,-0.4 -0.5,-0.4 -0.3,-0.8 v -0.7 l 0.2,-0.4 0.7,-0.6 1.1,-0.5 0.9,-0.1 0.4,0.2 0.5,0.4 0.4,0.9 v 0.6 l -0.4,0.8 -0.7,0.7 -1,0.7 -0.4,0.5 v 0.7 l 0.2,0.5 0.5,0.5 1,-0.1 1.2,-0.5 m -7.4,2.1 0.6,0.4 h 0.9 l 0.6,-0.3 0.7,-0.6 0.2,-1.1 -0.3,-1.5 -0.6,-1.3 -0.8,-1 -0.8,-0.3 h -0.9 l -0.3,0.2 -0.7,0.6 -0.3,0.8 0.1,0.9 0.1,0.3 0.6,0.7 0.8,0.3 0.9,-0.1 0.3,-0.1 0.7,-0.6 0.3,-0.8 v -0.9 m -24.2,63.9 -0.1,-0.7 -0.7,-0.6 -0.5,-0.3 h -1 l -0.9,0.6 -0.8,1.2 -0.6,1.4 -0.2,1.3 0.4,0.7 0.7,0.7 0.3,0.1 h 0.9 l 0.8,-0.3 0.6,-0.7 0.1,-0.3 0.1,-0.9 -0.3,-0.8 -0.8,-0.6 -0.2,-0.1 -1,-0.1 -0.8,0.3 -0.6,0.7 m 7.7,-1.4 h -1 l -0.5,0.4 -0.2,0.6 v 0.6 l 0.5,0.6 1,0.7 0.7,0.6 0.3,0.8 0.1,0.7 -0.4,0.8 -0.5,0.4 -0.4,0.2 -0.9,-0.1 -1.1,-0.4 -0.8,-0.6 -0.1,-0.4 -0.1,-0.7 0.4,-0.8 0.5,-0.5 0.8,-0.3 0.9,0.1 1.2,0.1 h 0.7 l 0.5,-0.5 0.2,-0.5 v -0.7 l -0.7,-0.6 -1.3,-0.5 m 43.3,17.1 -0.1,-0.7 -0.7,-0.6 -0.6,-0.2 h -0.9 l -0.9,0.7 -0.8,1.3 -0.5,1.4 -0.1,1.3 0.4,0.7 0.8,0.6 0.2,0.1 h 1 l 0.8,-0.4 0.5,-0.7 0.1,-0.3 v -0.9 l -0.3,-0.8 -0.8,-0.6 -0.3,-0.1 h -0.9 l -0.8,0.4 -0.6,0.7 m 9.2,1 -0.6,0.7 -0.7,0.4 h -1 l -0.3,-0.1 -0.7,-0.6 -0.4,-0.8 v -0.9 l 0.1,-0.3 0.6,-0.7 0.7,-0.4 h 1 l 0.3,0.1 0.7,0.6 0.4,0.7 -0.1,1.3 -0.5,1.4 -0.8,1.3 -0.8,0.7 h -1 l -0.6,-0.2 -0.7,-0.6 -0.1,-0.7 m 50,9.4 -4.4,5.4 m 0.3,-6.4 4.1,1 m 1.7,0.4 3.2,0.8 -2.3,1.9 0.9,0.2 0.5,0.4 0.2,0.4 0.1,1 -0.1,0.5 -0.5,0.8 -0.8,0.5 -0.9,0.1 -0.9,-0.2 -0.8,-0.5 -0.2,-0.4 -0.2,-0.7 m 15.9,-41.7 0.9,0.4 0.6,0.6 0.3,0.9 v 0.3 l -0.3,0.9 -0.7,0.6 -0.9,0.2 h -0.3 l -0.9,-0.3 -0.5,-0.6 -0.3,-0.9 v -0.3 l 0.3,-0.9 0.6,-0.6 1.2,-0.3 1.5,0.1 1.5,0.3 0.9,0.6 0.3,0.9 v 0.6 l -0.4,0.9 -0.6,0.3 m -3.8,-5.3 h -0.3 l -0.6,-0.3 -0.3,-0.3 -0.3,-0.6 v -1.2 l 0.3,-0.6 0.3,-0.3 0.6,-0.3 h 0.6 l 0.6,0.3 0.9,0.6 3,3 v -4.2 m -26,-120.5 v -1 l -0.5,-0.5 -0.5,-0.2 -0.7,0.1 -0.5,0.5 -0.7,1 -0.5,0.8 -0.8,0.3 -0.7,0.1 -0.8,-0.3 -0.5,-0.5 -0.2,-0.3 v -1 l 0.4,-1.1 0.6,-0.8 0.4,-0.2 h 0.7 l 0.8,0.3 0.5,0.4 0.4,0.8 -0.1,1 -0.1,1.2 0.1,0.7 0.5,0.4 0.5,0.2 0.7,-0.1 0.6,-0.7 0.4,-1.3 m -3.3,6.9 0.6,-0.1 0.6,-0.7 0.2,-0.6 v -1 l -0.6,-0.8 -1.3,-0.8 -1.5,-0.5 -1.2,-0.1 -0.8,0.4 -0.5,0.7 -0.1,0.3 v 0.9 l 0.3,0.8 0.8,0.6 0.3,0.1 h 0.9 l 0.8,-0.4 0.5,-0.7 0.1,-0.3 0.1,-0.9 -0.4,-0.8 -0.8,-0.6 m 45.9,-23.8 5.1,-4.9 m -1.2,6.4 -3.9,-1.5 m -0.5,-1.7 h -0.7 l -1.1,0.5 2.2,-5.8 m 7,55.5 0.7,0.7 0.2,0.8 -0.2,0.9 -0.1,0.3 -0.7,0.6 -0.9,0.2 -0.9,-0.1 -0.2,-0.2 -0.7,-0.7 -0.2,-0.8 0.2,-0.9 0.1,-0.3 0.7,-0.6 0.8,-0.3 1.2,0.4 1.3,0.7 1.2,1 0.5,1 -0.2,0.9 -0.3,0.5 -0.7,0.7 -0.7,-0.1 m -0.8,-6.5 -0.2,-0.1 -0.4,-0.6 -0.1,-0.4 v -0.7 l 0.6,-1 0.6,-0.4 0.4,-0.1 h 0.6 l 0.6,0.3 0.3,0.6 0.5,1 1.2,4 2,-3.6"
       id="nums_003"
       stroke="#000000"
       stroke-width="1" />
    <path
       d="m 1237.3,154.6 7.5,18.5 -14.4,28.6 -19.3,4.9 -26.7,13.4 -63,-4 -24.8,-16.5 -16,-28.9 -2.4,-71.7 14,-29.8 77.3,10.9 81.6,12.8 30.7,-9.8 68.7,12.3 25.5,19.7 19.9,-7.1 32.9,15.8 6.9,19.9 9.4,-19.1 34.7,-11.9 19.2,9.2 5.1,26.8 -21.3,51.3 -22.5,15.3 -17.4,15.6 -4,0.1 -18.5,-14.3 -2,20 -26.5,19.1 -19.7,-4.3 13.7,21.6 -0.3,4.6 -16.2,19.8 4.7,90.6 -63.8,64.1 30.5,-30.7 51.6,-7.4 16.2,-19.4 48.4,-12 23.4,9.6 19.9,11.5 13.9,40.1 -8.4,21.4 26.3,4.7 3.5,3.5 5.2,26.1 -27.4,23.7 v 0 l -58.9,1.5 89.9,-2.3 32.5,95.7 -21.5,20.9 -61.4,15.5 -28.8,-8.1 51,85.6 -27.9,6.3 -56.3,-19.2 -18.2,-22.1 -25.2,-20.1 -27.9,-63.9 2.3,-32.1 -48.1,-9.4 -5.9,-20.3 17.1,59.2 -99.8,78.2 -82.9,12.6 -50,-17.2 -3.6,-130.4 100.3,-46.7 -28.6,-5.2 -45.7,-40.2 -8.8,-27.7 4.4,-114.7 13.9,-21 46.4,-16.8 24.1,7.2 42.1,65.7 -10.6,-20.5 9.9,-41.8 18.7,-13.6 -11.3,-22.3 8.5,-48.2 18.2,-17.1 z m 263.7,11.2 72.2,27.6 -50.4,89.4 14.8,23.2 -0.4,56.5 -15.1,23 -44.9,-10.8 -56.1,-19.5 -36.9,-15.2 -0.5,-49.1 13.5,-22 47.5,-20.2 25.2,5.5 z"
       id="coupes_003"
       stroke="#ff0000"
       stroke-width="1.27"
       sodipodi:nodetypes="cccccccccccccccccccccccccccccccccccccccccccccccccccccccccccccccccccccccccccccccccccccccccccccccccc" />
    <path
       d="m 1454.5,524.7 10.7,121.7 m 0,0 -102.2,-65.5 m 0,0 91.5,-56.2 M 1413.8,697 1363,580.9 m -54,-29.7 1.3,-99.1 m 52.7,128.8 -54,-29.7 m 1.3,-99.1 82.1,-38.1 m 0,0 62.1,110.7 m -62.1,-110.7 113.4,51.2 m 0,0 -51.3,59.5 m 86.3,-25.2 -86.3,25.2 m -62.1,-110.7 88,-21.8 m -171.4,159 -118.9,-44.3 m 0,0 120.2,-54.8 m -1.3,99.1 -82.7,137.4 m -82.9,12.6 46.7,-194.3 m 0,0 47.8,-152.7 m 0,0 72.4,97.9 m -72.4,-97.9 136.2,33.8 m -136.2,-33.8 18,-75.9 m 0,0 118.2,109.7 m -118.2,-109.7 113.5,19.1 m -113.5,-19.1 116.3,-26.9 m -100.9,-60.7 100.9,60.7 M 1271.3,190.7 1376,115 m 0,0 -3.8,136.4 m 63.5,-107.8 -15.3,73 m 15.3,-73 24.6,71.6 m 38.7,-93.4 -38.7,93.4 M 1190.1,506.9 1107,433.8 m 0,0 130.9,-79.6 m -126.5,-35.1 126.5,35.1 m -0.6,-199.6 13.8,-61.8 m -40,113.8 L 1169.5,80 m 41.6,126.6 -114.5,-7.1 m 0,0 -4.4,-130.4 m 424,662.9 -102.4,-35 m 56.1,-442.8 -85.7,85.8 m -0.5,-49.1 86.2,-36.7 m 0,0 -48.8,101 m 101.7,-72.4 -101.7,72.4 m 48.8,-101 52.9,28.6 m 0,0 -45.6,91.9 m 45.6,-91.9 -0.7,102.7"
       id="plisM_003"
       stroke="#a52a2a"
       stroke-dasharray="4" />
    <path
       d="M 1465.2,646.4 1413.8,697 M 1363,580.9 1310.3,452.1 m 0,0 144.2,72.6 m 89.9,-2.3 -79.2,124 m 111.7,-28.3 -111.7,28.3 m 40.6,-181.2 35,34.3 m -60.4,-107.3 25.4,73 m -279.5,223.4 -36.2,-181.7 m -46.7,194.3 -53.6,-147.6 m 282.4,-302.2 -2.8,46 m -113.5,-19.1 15.4,-87.6 M 1376,115 l 59.7,28.6 m 0,0 -63.5,107.8 m 48.2,-34.8 -48.2,34.8 m 88.1,-36.2 -39.9,1.4 m 15.3,-73 63.3,-21.8 M 1237.3,154.6 1376,115 m -264.6,204.1 84.4,-30.6 M 1251.1,92.8 1376,115 M 1237.3,154.6 1169.5,80 m 67.8,74.6 -26.2,52 m 0,0 -118.9,-137.5 m 408.8,96.7 21.8,117"
       id="plisV_003"
       stroke="#008000"
       stroke-dasharray="4, 1, 1, 1"
       stroke-width="1.27" />
    <path
       d="m 1437.5,669.7 4,4 m 0,-4 -4,4 m -102.9,-159.2 4,4 m 0,-4 -4,4 m 45.8,-32.1 4,4 m 0,-4 -4,4 m 122.4,92 4,4 m 0,-4 -4,4 m 16.2,43.8 4,4 m 0,-4 -4,4 m 2.3,-153.8 4,4 m 0,-4 -4,4 m -30.2,-57.7 4,4 m 0,-4 -4,4 m -284.9,165 4,4 m 0,-4 -4,4 m -91.6,25.7 4,4 m 0,-4 -4,4 m 254.2,-357 4,4 m 0,-4 -4,4 m -107.2,-43.9 4,4 m 0,-4 -4,4 m 142.3,-109.2 4,4 m 0,-4 -4,4 m -1.9,64.2 4,4 m 0,-4 -4,4 m -7.7,32.5 4,4 m 0,-4 -4,4 m 44.1,-22.1 4,4 m 0,-4 -4,4 m 27,-87.2 4,4 m 0,-4 -4,4 m -160.8,-1.9 4,4 m 0,-4 -4,4 m -153,165 4,4 m 0,-4 -4,4 m 159.9,-203.9 4,4 m 0,-4 -4,4 m -110.1,9.4 4,4 m 0,-4 -4,4 m 20.8,59.3 4,4 m 0,-4 -4,4 m -72.5,-46.8 4,4 m 0,-4 -4,4 m 360.2,82.5 4,4 m 0,-4 -4,4"
       id="marqueV_003"
       stroke="#008000" />
    <path
       d="m 1303.3,385.7 h 8.3 l -4.5,6 h 2.2 l 1.5,0.8 0.8,0.7 0.7,2.3 v 1.5 l -0.7,2.2 -1.5,1.5 -2.3,0.8 h -2.2 l -2.3,-0.8 -0.7,-0.7 -0.8,-1.5"
       id="titre_3"
       stroke="#4b0082" />
    <path
       d="m 1473,284.9 -7.5,10.5 h 11.3 m -3.8,-10.5 v 15.7"
       id="titre_4"
       stroke="#4b0082" />
  </g>
  <g
     id="page_004">
    <path
       d="m 1677.4,377.1 0.2,-0.2 0.6,-0.2 h 0.4 l 0.7,0.2 0.8,0.8 0.3,0.6 v 0.4 l -0.2,0.7 -0.4,0.4 -0.6,0.2 -1.1,0.3 -4.2,0.1 3,2.9 m 74,-70.6 0.4,0.8 0.6,0.3 0.6,-0.1 0.6,-0.3 0.2,-0.6 0.2,-1.3 0.2,-0.9 0.6,-0.6 0.6,-0.4 0.8,-0.1 0.7,0.3 0.3,0.2 0.4,0.9 0.1,1.2 -0.2,0.9 -0.3,0.3 -0.6,0.4 -0.9,0.1 -0.6,-0.3 -0.6,-0.5 -0.4,-0.9 -0.4,-1.1 -0.4,-0.6 -0.6,-0.2 h -0.6 l -0.6,0.4 -0.2,0.9 0.1,1.3 m -0.4,-4.5 -0.3,-3.3 2.6,1.5 -0.1,-0.8 0.2,-0.7 0.3,-0.3 0.9,-0.4 h 0.6 l 0.9,0.2 0.6,0.5 0.4,0.9 0.1,0.9 -0.2,0.9 -0.3,0.3 -0.6,0.4 m -28.6,98.9 -0.9,-0.1 -0.5,0.5 -0.3,0.5 0.1,0.7 0.4,0.5 1,0.8 0.7,0.6 0.4,0.8 v 0.6 l -0.3,0.9 -0.5,0.4 -0.4,0.2 -1,-0.1 -1.1,-0.5 -0.7,-0.6 -0.2,-0.4 v -0.6 l 0.3,-0.9 0.5,-0.4 0.8,-0.3 h 1 l 1.2,0.2 h 0.7 l 0.5,-0.5 0.2,-0.5 -0.1,-0.7 -0.7,-0.6 -1.2,-0.5 m 7.4,3 -5.2,4.7 m 1.3,-6.3 3.9,1.6 m -90.5,-103.3 0.4,0.5 1.1,0.6 -6,1.8 m 5.3,0.2 0.3,-0.1 0.6,0.1 0.4,0.2 0.4,0.5 0.4,1.2 -0.1,0.6 -0.2,0.4 -0.5,0.5 -0.6,0.1 -0.7,-0.1 -1,-0.3 -3.7,-2 1.2,4 m 0.9,-83.9 0.7,-0.1 0.6,-0.7 0.2,-0.6 V 229 l -0.6,-0.9 -1.3,-0.8 -1.5,-0.5 -1.2,-0.1 -0.8,0.4 -0.5,0.7 -0.1,0.3 -0.1,0.9 0.4,0.8 0.7,0.6 0.3,0.1 h 1 l 0.7,-0.4 0.6,-0.7 0.1,-0.3 0.1,-0.9 -0.4,-0.8 -0.8,-0.6 m 1.1,9.6 1,-2.9 -2.4,-1.2 0.1,0.4 v 1 l -0.3,0.8 -0.6,0.8 -0.7,0.3 h -1 l -0.6,-0.2 -0.7,-0.6 -0.4,-0.7 0.1,-1 0.3,-0.8 0.6,-0.8 0.3,-0.2 0.7,-0.1 m 36.8,-53.4 -2.8,-6.4 m 5.6,3.2 -2.8,3.2 m -2.7,3.3 -1.2,-5 -2.9,3.4 m 4.1,1.6 -4.8,-4.1 m 177,208.6 0.9,-0.1 0.4,-0.6 0.1,-0.6 -0.2,-0.6 -0.5,-0.4 -1.2,-0.5 -0.8,-0.4 -0.5,-0.7 -0.2,-0.7 0.2,-0.9 0.3,-0.5 0.4,-0.3 0.9,-0.1 1.2,0.2 0.9,0.4 0.2,0.4 0.2,0.6 -0.2,0.9 -0.3,0.6 -0.7,0.5 -1,0.1 -1.2,0.1 -0.7,0.2 -0.3,0.5 -0.1,0.6 0.2,0.7 0.8,0.4 1.3,0.2 m -7.4,-3.3 0.4,-0.9 0.7,-0.5 0.9,-0.1 h 0.3 l 0.9,0.5 0.5,0.7 0.1,0.9 v 0.3 l -0.5,0.8 -0.7,0.5 -0.9,0.2 -0.3,-0.1 -0.8,-0.4 -0.5,-0.7 -0.1,-1.2 0.2,-1.5 0.6,-1.4 0.7,-0.8 0.9,-0.2 0.6,0.1 0.9,0.5 0.2,0.6 m -32.4,87.1 -0.8,0.4 -0.9,0.1 -0.8,-0.4 -0.3,-0.2 -0.4,-0.9 v -0.8 l 0.3,-0.9 0.2,-0.2 0.9,-0.5 h 0.8 l 0.9,0.4 0.2,0.2 0.5,0.8 v 0.9 l -0.6,1.1 -1,1.1 -1.3,0.9 -1,0.2 -0.9,-0.4 -0.4,-0.4 -0.5,-0.8 0.2,-0.7 m 8.5,0.5 -0.9,-0.4 -1,0.3 -1.3,0.9 -0.6,0.6 -0.8,1.3 -0.1,1.1 0.4,0.8 0.5,0.5 0.8,0.3 1.1,-0.2 1.2,-0.9 0.6,-0.7 0.8,-1.3 0.2,-1 -0.5,-0.9 -0.3,-0.3 m 119.5,67.2 0.8,0.7 0.3,0.8 -0.1,0.9 -0.1,0.3 -0.7,0.7 -0.8,0.3 -0.9,-0.1 -0.3,-0.1 -0.7,-0.6 -0.3,-0.8 0.1,-1 0.1,-0.2 0.6,-0.8 0.8,-0.3 1.2,0.2 1.4,0.7 1.3,0.8 0.6,0.9 -0.1,1 -0.3,0.5 -0.6,0.7 -0.7,0.1 m 0.5,-9.3 0.7,0.7 0.3,0.8 -0.1,0.9 -0.1,0.3 -0.7,0.7 -0.7,0.3 -1,-0.1 -0.3,-0.1 -0.7,-0.7 -0.3,-0.8 0.1,-0.9 0.1,-0.3 0.7,-0.7 0.8,-0.3 1.2,0.2 1.4,0.6 1.2,0.9 0.6,0.9 -0.1,1 -0.2,0.5 -0.7,0.7 h -0.6 m -153.8,133.9 -5.1,-0.9 2,4 m 3.1,-3.1 -5.7,2.7 m 7,0.2 1.5,3 -3,-0.6 0.4,0.8 v 0.7 l -0.1,0.4 -0.7,0.6 -0.6,0.3 -0.9,0.1 -0.8,-0.3 -0.7,-0.6 -0.4,-0.9 -0.1,-0.9 0.2,-0.4 0.4,-0.5 m 45.6,39.9 -3.1,4.1 4.5,0.1 m -1.4,-4.2 -0.1,6.3 m 6.3,-6.2 h -3 l -0.3,2.7 0.3,-0.3 0.9,-0.3 h 0.9 l 0.9,0.3 0.6,0.6 0.2,0.9 v 0.6 l -0.3,0.9 -0.6,0.6 -0.9,0.3 h -0.9 l -0.9,-0.3 -0.3,-0.3 -0.3,-0.6 m 65.6,-13.8 0.5,-0.4 0.6,-1.2 1.7,6.1 m 1.1,-7 -0.8,0.5 -0.3,1 0.1,1.5 0.2,0.9 0.7,1.4 0.8,0.7 h 1 l 0.6,-0.1 0.7,-0.5 0.4,-1.1 -0.1,-1.5 -0.3,-0.9 -0.6,-1.3 -0.9,-0.7 -0.9,-0.1 -0.4,0.1 m 3.5,0.5 0.5,-0.4 0.7,-1.1 1.6,6 m -182.6,-122.5 0.2,-0.3 0.7,-0.2 h 0.4 l 0.6,0.3 0.9,0.8 0.2,0.7 v 0.4 l -0.2,0.6 -0.5,0.4 -0.6,0.2 -1.1,0.2 h -4.2 l 2.9,3 m 7.6,-1.4 -5.1,0.8 3.1,3.2 m 2,-4 -4.5,4.4 m 73.6,-105.8 0.7,-0.6 0.9,-0.2 0.9,0.2 0.3,0.2 0.6,0.7 0.2,0.8 -0.3,0.9 -0.1,0.3 -0.7,0.6 -0.9,0.2 -0.9,-0.2 -0.3,-0.2 -0.6,-0.7 -0.2,-0.8 0.4,-1.2 0.8,-1.3 1.1,-1.1 0.9,-0.5 1,0.3 0.5,0.3 0.6,0.7 -0.1,0.7 m -8.4,1.1 0.9,0.2 1,-0.4 1.1,-1.1 0.4,-0.8 0.6,-1.4 -0.1,-1.1 -0.6,-0.7 -0.5,-0.4 -0.9,-0.2 -1,0.5 -1,1.1 -0.5,0.8 -0.5,1.4 v 1.1 l 0.6,0.7 0.4,0.2 m -102.9,5.3 0.6,-0.4 0.3,-0.9 -0.1,-0.6 -0.3,-0.9 -0.9,-0.5 -1.5,-0.3 -1.5,0.1 -1.2,0.3 -0.6,0.6 -0.3,1 0.1,0.3 0.3,0.8 0.6,0.6 0.9,0.3 h 0.3 l 0.9,-0.4 0.6,-0.6 0.3,-0.9 -0.1,-0.3 -0.3,-0.9 -0.6,-0.6 -0.9,-0.2 m 27.3,-42.7 h 1 l 0.5,-0.5 0.2,-0.5 -0.1,-0.7 -0.5,-0.5 -1,-0.6 -0.8,-0.6 -0.4,-0.8 -0.1,-0.6 0.3,-0.9 0.5,-0.5 0.4,-0.2 0.9,0.1 1.2,0.3 0.7,0.6 0.2,0.4 0.1,0.7 -0.3,0.8 -0.5,0.5 -0.7,0.4 -1,-0.1 -1.2,-0.1 -0.7,0.1 -0.4,0.5 -0.2,0.6 0.1,0.6 0.7,0.6 1.3,0.4 m -7.6,-2.6 4.8,-4.9 m -0.9,6.3 -3.9,-1.4 m 239.8,-225.5 0.9,0.2 0.7,0.6 0.3,0.9 0.1,0.3 -0.3,0.9 -0.5,0.6 -0.9,0.4 h -0.3 l -0.9,-0.2 -0.7,-0.6 -0.3,-0.9 -0.1,-0.3 0.3,-0.9 0.5,-0.6 1.2,-0.4 1.5,-0.1 1.5,0.2 1,0.5 0.3,0.9 0.1,0.6 -0.3,0.9 -0.6,0.4 m -5.7,-5 -0.2,-3.3 2.5,1.7 v -0.9 l 0.2,-0.7 0.3,-0.3 0.9,-0.3 0.6,-0.1 0.9,0.3 0.6,0.5 0.4,0.9 v 0.9 l -0.2,0.9 -0.3,0.3 -0.6,0.4 m -28.9,76 0.5,0.8 0.1,0.8 -0.3,0.9 -0.2,0.2 -0.8,0.6 h -0.8 l -0.9,-0.3 -0.2,-0.2 -0.5,-0.8 -0.1,-0.8 0.3,-0.9 0.2,-0.2 0.8,-0.5 0.8,-0.1 1.1,0.5 1.2,0.9 1,1.2 0.3,1 -0.3,0.9 -0.4,0.5 -0.8,0.5 -0.6,-0.2 m -0.3,-6.1 0.2,-0.7 -0.2,-1.2 5,3.9 m -98.9,-10 -1,-0.2 -0.5,0.4 -0.3,0.5 -0.1,0.7 0.4,0.5 0.9,0.9 0.6,0.7 0.3,0.8 -0.1,0.7 -0.4,0.8 -0.6,0.4 -0.4,0.1 -0.9,-0.2 -1.1,-0.6 -0.6,-0.7 -0.1,-0.4 v -0.7 l 0.5,-0.8 0.5,-0.4 0.9,-0.2 0.9,0.2 1.2,0.3 0.6,0.1 0.6,-0.4 0.3,-0.5 v -0.7 l -0.6,-0.7 -1.2,-0.7 m 4.8,2.8 -0.9,-0.2 -0.6,0.4 -0.3,0.5 v 0.6 l 0.4,0.6 0.9,0.9 0.6,0.7 0.2,0.8 v 0.6 l -0.5,0.8 -0.5,0.4 -0.4,0.1 -1,-0.2 -1,-0.6 -0.6,-0.7 -0.2,-0.4 0.1,-0.6 0.4,-0.8 0.6,-0.4 0.8,-0.2 0.9,0.2 1.2,0.3 h 0.7 l 0.6,-0.3 0.3,-0.6 v -0.6 l -0.6,-0.7 -1.2,-0.7 m -137.1,-205.9 -0.3,-0.9 -0.6,-0.2 h -0.6 l -0.6,0.3 -0.3,0.7 -0.2,1.2 -0.3,0.9 -0.5,0.6 -0.6,0.4 h -0.9 l -0.6,-0.2 -0.3,-0.3 -0.4,-0.9 -0.1,-1.2 0.3,-0.9 0.3,-0.3 0.5,-0.4 h 0.9 l 0.7,0.2 0.6,0.6 0.4,0.9 0.3,1.2 0.4,0.5 0.6,0.3 h 0.6 l 0.6,-0.4 0.2,-0.9 -0.1,-1.3 m -1.1,4 0.3,0.5 0.9,0.9 -6.2,0.4 m 51.3,-46.1 0.5,-0.8 0.7,-0.5 0.9,-0.1 0.3,0.1 0.8,0.5 0.5,0.7 0.1,0.9 -0.1,0.3 -0.4,0.8 -0.8,0.5 -0.9,0.1 -0.3,-0.1 -0.8,-0.5 -0.5,-0.7 v -1.2 l 0.3,-1.5 0.6,-1.4 0.8,-0.7 0.9,-0.1 0.6,0.1 0.8,0.5 0.2,0.6 m -9.1,2.7 0.2,0.6 0.8,0.5 0.6,0.1 0.9,-0.1 0.8,-0.7 0.6,-1.4 0.3,-1.5 v -1.2 l -0.5,-0.8 -0.8,-0.4 -0.3,-0.1 -0.9,0.1 -0.8,0.5 -0.4,0.8 -0.1,0.3 0.1,0.9 0.5,0.7 0.8,0.5 0.3,0.1 0.9,-0.1 0.7,-0.5 0.5,-0.8 m 144.9,44.8 0.6,-0.8 0.7,-0.3 h 1 l 0.3,0.1 0.7,0.5 0.4,0.8 v 0.9 l -0.1,0.3 -0.6,0.8 -0.7,0.4 -1,-0.1 h -0.3 l -0.7,-0.6 -0.4,-0.8 0.1,-1.2 0.5,-1.4 0.8,-1.4 0.8,-0.6 h 1 l 0.5,0.2 0.8,0.6 0.1,0.6 m -9.6,2.4 2.8,1 1.1,-2.5 -0.3,0.2 h -1 l -0.8,-0.3 -0.8,-0.5 -0.4,-0.8 0.1,-1 0.1,-0.5 0.6,-0.8 0.8,-0.4 0.9,0.1 0.9,0.3 0.7,0.5 0.2,0.4 0.1,0.7 m 71.2,60.6 0.7,0.6 0.4,0.7 v 1 l -0.1,0.3 -0.5,0.7 -0.8,0.4 h -0.9 l -0.3,-0.1 -0.8,-0.5 -0.4,-0.8 v -0.9 l 0.1,-0.3 0.6,-0.8 0.7,-0.4 1.3,0.1 1.4,0.5 1.3,0.7 0.7,0.9 v 0.9 l -0.2,0.6 -0.5,0.8 -0.7,0.1 m -2.8,-9.2 3.1,4.1 1.4,-4.3 m -4.5,0.2 6,1.9 m 4.8,279.9 1,0.1 0.5,-0.5 0.2,-0.5 v -0.7 l -0.5,-0.5 -1,-0.8 -0.7,-0.6 -0.3,-0.8 -0.1,-0.6 0.4,-0.9 0.5,-0.4 0.4,-0.2 0.9,0.1 1.1,0.5 0.8,0.6 0.1,0.4 0.1,0.7 -0.4,0.8 -0.5,0.4 -0.8,0.3 h -0.9 l -1.2,-0.2 h -0.7 l -0.5,0.5 -0.2,0.5 v 0.7 l 0.7,0.6 1.3,0.5 m -7,-2.9 2.7,1.2 1.3,-2.4 -0.3,0.2 -1,-0.1 -0.8,-0.4 -0.7,-0.6 -0.4,-0.8 0.1,-0.9 0.2,-0.6 0.7,-0.7 0.7,-0.3 1,0.1 0.8,0.3 0.7,0.6 0.2,0.4 v 0.7 m 16.4,77.4 -0.4,0.8 -0.7,0.5 -1,0.1 -0.3,-0.1 -0.8,-0.4 -0.5,-0.8 -0.1,-0.9 0.1,-0.3 0.4,-0.8 0.8,-0.5 0.9,-0.1 0.3,0.1 0.8,0.4 0.5,0.7 v 1.3 l -0.3,1.4 -0.5,1.4 -0.8,0.8 -0.9,0.1 -0.6,-0.1 -0.9,-0.5 -0.1,-0.6 m 9.7,-3.6 -4.2,5.6 m 0,-6.4 4.2,0.8 m 69.7,-70.1 -3.1,1.2 0.8,-2.9 -0.8,0.3 h -0.7 l -0.4,-0.2 -0.6,-0.7 -0.2,-0.6 v -0.9 l 0.3,-0.8 0.7,-0.6 0.9,-0.4 h 0.9 l 0.4,0.2 0.5,0.4 m -4.8,7.4 0.7,-0.6 0.3,-1.1 -0.3,-1.5 -0.3,-0.8 -0.8,-1.3 -0.9,-0.7 -1,0.1 -0.5,0.2 -0.8,0.6 -0.2,1.1 0.3,1.5 0.3,0.8 0.8,1.3 0.9,0.6 h 1 l 0.4,-0.2 m 43.3,6.8 -1.4,-3 2.9,0.6 -0.3,-0.8 v -0.7 l 0.1,-0.4 0.7,-0.7 0.5,-0.2 1,-0.1 0.8,0.3 0.6,0.6 0.4,0.9 0.1,0.9 -0.1,0.4 -0.4,0.5 m -5.6,-3.2 -0.5,-0.4 -1.2,-0.4 5.7,-2.7 m -6.7,49.2 1.2,-3.1 1.6,2.6 0.3,-0.8 0.5,-0.5 0.4,-0.1 h 1 l 0.5,0.3 0.7,0.6 0.3,0.8 v 0.9 l -0.4,0.9 -0.6,0.7 -0.4,0.1 -0.7,0.1 m -1.4,-9.9 2.7,4.4 1.7,-4.1 m -4.4,-0.3 5.8,2.5 m -55.3,26.1 -0.2,1 -0.5,0.6 -0.9,0.4 h -0.3 l -0.9,-0.2 -0.7,-0.5 -0.4,-0.9 v -0.3 l 0.2,-0.9 0.6,-0.7 0.8,-0.4 h 0.3 l 0.9,0.2 0.7,0.6 0.4,1.1 0.2,1.5 -0.2,1.6 -0.5,0.9 -0.9,0.4 h -0.6 l -0.9,-0.2 -0.4,-0.5 m 5.8,-6 -0.9,0.4 -0.3,0.6 0.1,0.6 0.4,0.6 0.6,0.2 1.2,0.2 0.9,0.2 0.7,0.6 0.3,0.5 0.1,0.9 -0.2,0.6 -0.3,0.4 -0.9,0.4 -1.1,0.1 -1,-0.2 -0.3,-0.3 -0.4,-0.6 v -0.9 l 0.2,-0.6 0.5,-0.7 0.9,-0.3 1.2,-0.5 0.5,-0.3 0.3,-0.6 -0.1,-0.6 -0.3,-0.6 -1,-0.2 -1.3,0.1 m -27.7,178.6 0.5,-0.5 0.6,-1.1 2.1,5.9 m 0.6,-7.1 -0.8,0.6 -0.2,1 0.2,1.6 0.3,0.8 0.7,1.3 0.9,0.7 h 1 l 0.5,-0.2 0.8,-0.6 0.2,-1.1 -0.2,-1.5 -0.3,-0.8 -0.8,-1.4 -0.8,-0.6 h -1 l -0.4,0.2 m 6.6,-2.4 -2.8,1 0.6,2.7 0.2,-0.4 0.7,-0.6 0.9,-0.3 h 0.9 l 0.8,0.4 0.6,0.7 0.2,0.6 v 0.9 l -0.4,0.8 -0.7,0.6 -0.9,0.3 h -0.9 l -0.4,-0.2 -0.5,-0.5 m 43.3,-59.2 -0.6,-0.3 -1.3,-0.1 5,-3.8 m -6.9,1.5 0.7,0.6 1.1,-0.1 1.4,-0.6 0.7,-0.6 1,-1.1 0.4,-1 -0.3,-0.9 -0.4,-0.5 -0.7,-0.6 -1.1,0.1 -1.4,0.7 -0.7,0.5 -1,1.1 -0.4,1.1 0.3,0.9 0.3,0.3 m -2.4,-3.2 -2,-2.6 h 3 l -0.5,-0.7 -0.2,-0.7 0.1,-0.4 0.5,-0.8 0.5,-0.4 0.9,-0.3 0.9,0.2 0.7,0.5 0.6,0.7 0.3,0.9 -0.1,0.4 -0.3,0.6 m -64.9,-65.1 -0.6,-0.2 -1.3,0.2 4,-4.9 m -6.4,3.1 0.9,0.4 1,-0.3 1.2,-1 0.6,-0.7 0.7,-1.3 0.1,-1.1 -0.5,-0.8 -0.5,-0.4 -0.8,-0.3 -1.1,0.3 -1.2,0.9 -0.5,0.7 -0.8,1.4 -0.1,1.1 0.5,0.8 0.4,0.3 m -4,-3.4 0.9,0.4 1,-0.3 1.2,-1 0.5,-0.7 0.8,-1.3 0.1,-1.1 -0.5,-0.8 -0.5,-0.4 -0.9,-0.3 -1,0.3 -1.2,0.9 -0.6,0.7 -0.7,1.4 -0.1,1.1 0.5,0.8 0.4,0.2 m -45.2,12.3 -0.6,-0.7 -0.3,-0.8 0.2,-1 0.1,-0.2 0.7,-0.7 0.8,-0.2 0.9,0.1 0.3,0.2 0.7,0.6 0.2,0.8 -0.2,1 -0.1,0.2 -0.7,0.7 -0.8,0.3 -1.2,-0.3 -1.3,-0.7 -1.2,-1 -0.5,-1 0.1,-0.9 0.3,-0.5 0.7,-0.7 h 0.7 m -1.2,9.2 -0.6,-0.7 -0.3,-0.8 0.2,-0.9 0.1,-0.3 0.7,-0.6 0.8,-0.3 1,0.2 0.2,0.1 0.7,0.7 0.2,0.8 -0.1,0.9 -0.2,0.3 -0.6,0.7 -0.8,0.2 -1.3,-0.3 -1.3,-0.7 -1.2,-0.9 -0.5,-1 0.2,-0.9 0.3,-0.6 0.6,-0.6 h 0.7"
       id="nums_004"
       stroke="#000000"
       stroke-width="1" />
    <path
       d="m 1964,493.7 71.4,58.9 66.6,88.8 -30.3,26.6 -86.2,30.3 -40.3,-1.7 -16.5,20.1 -50,13.7 -24.5,-8.9 -13,14.8 -31.2,-0.4 -12.5,-15.2 -23.7,-14.4 -24.7,-51.3 3.4,-27.5 -26.2,-5.3 -37.8,-38.7 -4.8,-26.3 -4.6,-130.8 65.6,22.4 106,65.5 -66.3,-41 v 0 l -25.1,-43.7 -20.2,7.9 -35.2,-14.6 -8.6,-19.8 -42,-39.2 -30,-102.2 22.6,-63 42.8,-50.5 -8,-126.7 29.1,-9.1 63.2,13.8 22.7,20.2 44.2,-0.6 96.1,33 34.4,27.8 -21.9,68.2 16.2,18 2.9,46.4 -13.7,19.9 -58.7,74.2 -141.7,-80.8 10.5,111.4 155.1,25.9 87.7,36.7 78.4,-30.6 21.4,45.6 9.3,16.8 -11.2,26.8 -18.4,5.2 -18.4,16.8 -48.4,4.6 -21.3,-13 -40.6,-8.1 v 0 l 2,11.4 -42,79.5 z"
       id="coupes_004"
       stroke="#ff0000"
       stroke-width="1.27"
       sodipodi:nodetypes="cccccccccccccccccccccccccccccccccccccccccccccccccccccccccccc" />
    <path
       d="m 1764,363.9 -68.7,39.2 m -42,-39.2 100.2,-111.4 m 5.8,177.1 -64,-26.5 m -72,-141.4 130.2,-9.2 m -107.6,-53.8 107.6,53.8 m -64.8,-104.3 259.8,26.6 m 0,0 -195,77.7 m 165.6,137.3 -159.8,39.8 m 159.8,-39.8 -68.4,124.5 m 0,0 -91.4,-84.7 m 198.3,61 -106.9,23.7 m 106.9,-23.7 -40,90.9 m 0,0 -66.9,-67.2 m 66.9,67.2 -165.1,46 m 0,0 98.2,-113.2 m 66.9,67.2 -120.1,139.2 m 0,0 -45,-93.2 m 165.1,-46 -63.4,140 m -101.7,-94 -68.8,-70.3 m 0,0 167,-42.9 m 97.8,-339.5 5.4,84.3 m 0,0 -200.4,-6.6 m -72.8,-231 267.8,153.3 m -267.8,-153.3 115,24.9 m 0,0 174.7,60.2 m 36.4,319.9 -8.6,72.2 m 87,-102.8 -87,102.8 m 108.4,-57.2 -108.4,57.2 m 88.1,-8.4 -88.1,8.4 m 37.2,53.9 -90.2,144 m -27.6,-115.1 117.8,-28.9 m 66.6,88.8 -156.8,55.2"
       id="plisM_004"
       stroke="#a52a2a"
       stroke-dasharray="4" />
    <path
       d="M 1653.3,363.9 H 1764 m 0,0 -4.7,65.7 m -70.6,-281.4 64.8,104.3 m 165.6,137.3 38.5,100.8 m -103.4,230.9 -56.7,-0.8 m 120.1,-139.2 27.6,115.1 m 0,0 -91,24.9 m -170.5,-164.3 61,-108.4 m 51,-402.4 152.8,128.4 m 58.3,251.7 -49.2,64.1 m 149,-49.1 -20.3,48.8"
       id="plisV_004"
       stroke="#008000"
       stroke-dasharray="4, 1, 1, 1"
       stroke-width="1.27" />
    <path
       d="m 1706.7,361.9 4,4 m 0,-4 -4,4 m 52.9,28.9 4,4 m 0,-4 -4,4 m -40.5,-200.5 4,4 m 0,-4 -4,4 m 217.2,235.9 4,4 m 0,-4 -4,4 m -112.5,276.9 4,4 m 0,-4 -4,4 m 105.6,-86.1 4,4 m 0,-4 -4,4 m -31.7,66.1 4,4 m 0,-4 -4,4 M 1712.2,501 l 4,4 m 0,-4 -4,4 m 157.9,-396.4 4,4 m 0,-4 -4,4 m 110.1,343.9 4,4 m 0,-4 -4,4 m 114.2,3.4 4,4 m 0,-4 -4,4"
       id="marqueV_004"
       stroke="#008000" />
    <path
       d="m 1846.4,432.2 h -7.5 l -0.7,6.8 0.7,-0.8 2.3,-0.7 h 2.2 l 2.3,0.7 1.5,1.5 0.7,2.3 v 1.5 l -0.7,2.2 -1.5,1.5 -2.3,0.8 h -2.2 l -2.3,-0.8 -0.7,-0.7 -0.8,-1.5"
       id="titre_5"
       stroke="#4b0082" />
  </g>
  <g
     id="page_005">
    <path
       d="m 2465.5,400.5 -0.8,-0.6 -0.3,-0.8 -0.1,-0.9 0.1,-0.3 0.6,-0.8 0.8,-0.3 0.9,-0.1 0.3,0.1 0.8,0.6 0.3,0.8 0.1,0.9 -0.1,0.3 -0.6,0.8 -0.8,0.3 h -1.2 l -1.4,-0.5 -1.4,-0.7 -0.6,-0.9 v -0.9 l 0.1,-0.6 0.6,-0.8 0.7,-0.1 m 2.8,9.2 -3.1,-4.1 -1.4,4.2 m 4.5,-0.1 -6,-1.9 m 98.1,25.5 h -0.3 l -0.6,-0.3 -0.3,-0.3 -0.2,-0.6 v -1.2 l 0.3,-0.6 0.3,-0.3 0.6,-0.3 h 0.6 l 0.6,0.4 0.9,0.6 2.9,3.1 0.2,-4.2 m -6.1,-5.4 6.1,3.2 m -6.3,1 0.2,-4.2 m -89.8,51.2 h -1 l -0.8,-0.4 -0.5,-0.7 -0.1,-0.3 v -1 l 0.3,-0.7 0.8,-0.6 0.3,-0.1 h 0.9 l 0.8,0.3 0.6,0.8 0.1,0.3 v 0.9 l -0.4,0.8 -1,0.7 -1.5,0.5 -1.5,0.2 -1,-0.3 -0.6,-0.8 -0.2,-0.5 v -1 l 0.5,-0.5 m 6.8,3.3 1.1,3.1 -2.9,-0.9 0.3,0.9 -0.1,0.6 -0.2,0.4 -0.7,0.6 -0.6,0.2 h -0.9 l -0.8,-0.4 -0.6,-0.7 -0.3,-0.9 v -0.9 l 0.2,-0.4 0.5,-0.5 m 95.8,-142.9 0.2,-3.3 2.3,1.9 v -0.9 l 0.4,-0.6 0.3,-0.3 0.9,-0.2 h 0.6 l 0.9,0.3 0.5,0.7 0.3,0.9 v 0.9 l -0.4,0.9 -0.3,0.3 -0.6,0.2 m -4.8,-6.1 0.1,-3.3 2.3,1.9 v -0.9 l 0.4,-0.6 0.3,-0.3 0.9,-0.2 h 0.6 l 0.9,0.3 0.6,0.6 0.2,1 v 0.9 l -0.4,0.8 -0.3,0.3 -0.6,0.3 m -174,-11.6 -0.7,0.6 -0.8,0.2 -0.9,-0.1 -0.3,-0.2 -0.6,-0.7 -0.2,-0.8 0.1,-1 0.2,-0.2 0.7,-0.6 0.8,-0.3 0.9,0.2 0.3,0.2 0.6,0.7 0.3,0.8 -0.4,1.2 -0.7,1.3 -1,1.1 -1,0.5 -0.9,-0.2 -0.5,-0.3 -0.7,-0.7 0.1,-0.6 m 9.9,-0.6 -2.6,-1.5 -1.6,2.2 0.4,-0.1 0.9,0.2 0.8,0.4 0.6,0.8 0.2,0.8 -0.1,0.9 -0.3,0.5 -0.8,0.7 -0.8,0.2 -0.9,-0.2 -0.8,-0.5 -0.6,-0.7 -0.1,-0.4 v -0.6 m 192.4,-130.3 -0.8,2.9 2.5,1.1 -0.2,-0.4 -0.1,-1 0.3,-0.8 0.5,-0.8 0.8,-0.4 h 0.9 l 0.6,0.1 0.8,0.6 0.4,0.7 v 1 l -0.2,0.8 -0.6,0.8 -0.3,0.2 -0.7,0.1 m -1.5,-9.7 -0.7,0.1 -0.5,0.8 -0.2,0.5 v 1 l 0.7,0.8 1.4,0.7 1.4,0.4 1.3,0.1 0.7,-0.4 0.6,-0.8 v -0.3 -0.9 l -0.4,-0.8 -0.8,-0.5 -0.3,-0.1 h -0.9 l -0.8,0.4 -0.5,0.8 -0.1,0.3 v 1 l 0.5,0.7 0.7,0.5 m -96.9,8.6 0.1,0.6 0.6,1.2 -6.1,-1.9 m 5.4,4.7 v -0.9 l -0.7,-0.8 -1.3,-0.8 -0.9,-0.2 -1.5,-0.2 -1.1,0.3 -0.5,0.8 -0.2,0.6 0.1,0.9 0.6,0.9 1.4,0.7 0.9,0.3 1.5,0.1 1,-0.3 0.6,-0.8 0.1,-0.4 m -1.2,3.8 -0.9,3.2 -1.8,-2.5 -0.3,0.9 -0.4,0.5 -0.4,0.2 h -0.9 l -0.6,-0.2 -0.8,-0.5 -0.4,-0.7 v -1 l 0.2,-0.9 0.6,-0.7 0.4,-0.2 0.6,-0.1 m 129.5,-120.3 -0.9,2.9 2.5,1 -0.2,-0.3 v -1 l 0.2,-0.9 0.6,-0.7 0.7,-0.4 1,-0.1 0.5,0.2 0.8,0.5 0.4,0.8 0.1,0.9 -0.3,0.9 -0.5,0.8 -0.4,0.2 -0.7,0.1 m -2.2,-10.5 5.2,4.7 m -6.4,-0.6 1.2,-4.1 m -36.5,-8.4 1.9,-4.7 -4.3,1 m 2.4,3.7 -1.5,-6.1 m -2.8,7.1 0.8,-0.5 0.3,-1 v -1.5 l -0.2,-0.9 -0.7,-1.4 -0.8,-0.7 -0.9,-0.1 -0.6,0.1 -0.8,0.5 -0.4,1.1 0.1,1.5 0.2,0.9 0.6,1.3 0.8,0.8 1,0.1 0.4,-0.1 m -110.3,36.5 0.6,0.2 1.3,-0.1 -4.4,4.6 m 6.7,-2.7 -0.9,-0.4 -1.1,0.2 -1.2,0.9 -0.6,0.7 -0.8,1.3 -0.2,1 0.4,0.9 0.5,0.4 0.8,0.4 1.1,-0.3 1.2,-0.8 0.6,-0.7 0.9,-1.3 0.1,-1.1 -0.4,-0.8 -0.3,-0.3 m 3.7,3.6 -0.8,-0.4 -1.1,0.2 -1.2,0.9 -0.6,0.6 -0.9,1.3 -0.1,1.1 0.4,0.8 0.4,0.5 0.9,0.4 1.1,-0.3 1.2,-0.9 0.6,-0.6 0.8,-1.3 0.2,-1.1 -0.4,-0.8 -0.4,-0.3 m 99.6,425.4 -0.4,-0.5 -1.1,-0.7 6.2,-1.2 m -6.9,-1.7 0.4,0.8 1,0.5 h 1.6 l 0.9,-0.2 1.4,-0.6 0.7,-0.7 0.2,-1 -0.2,-0.6 -0.4,-0.8 -1,-0.4 h -1.5 l -0.9,0.1 -1.4,0.6 -0.8,0.8 -0.1,0.9 0.1,0.5 m -101.3,28.4 -0.8,-0.5 -0.4,-0.8 -0.1,-0.9 0.1,-0.3 0.5,-0.8 0.7,-0.4 1,-0.1 0.3,0.1 0.8,0.5 0.4,0.7 v 1 0.3 l -0.6,0.8 -0.7,0.4 h -1.2 l -1.5,-0.4 -1.3,-0.7 -0.8,-0.8 v -1 l 0.1,-0.5 0.6,-0.8 0.6,-0.2 m 2.7,5.6 0.1,0.6 0.6,1.1 -6.1,-1.6 m 110.8,110.3 0.2,1 0.5,0.3 0.6,0.1 0.6,-0.2 0.4,-0.5 0.5,-1.1 0.4,-0.9 0.7,-0.5 0.7,-0.2 0.9,0.2 0.5,0.4 0.3,0.3 0.1,0.9 -0.2,1.2 -0.4,0.9 -0.4,0.2 -0.6,0.2 -0.9,-0.1 -0.5,-0.4 -0.5,-0.7 -0.2,-0.9 -0.1,-1.3 -0.2,-0.6 -0.5,-0.4 -0.6,-0.1 -0.7,0.2 -0.4,0.8 -0.2,1.4 m -57.3,36.1 h -0.9 l -0.5,0.5 -0.2,0.6 0.1,0.6 0.4,0.5 1.1,0.7 0.7,0.6 0.4,0.7 0.1,0.7 -0.3,0.9 -0.5,0.4 -0.4,0.2 h -0.9 l -1.2,-0.4 -0.7,-0.6 -0.2,-0.4 -0.1,-0.6 0.3,-0.9 0.5,-0.5 0.8,-0.3 h 0.9 l 1.2,0.1 0.7,-0.1 0.5,-0.4 0.2,-0.6 -0.1,-0.7 -0.7,-0.6 -1.3,-0.4 m 6.7,2.3 -4.2,3 4.3,1.5 m -0.1,-4.5 -2,5.9 M 2390.5,662 h -0.9 l -0.5,0.4 -0.2,0.6 0.1,0.7 0.4,0.5 1,0.6 0.8,0.6 0.3,0.8 0.1,0.7 -0.3,0.8 -0.5,0.5 -0.4,0.2 -0.9,-0.1 -1.1,-0.4 -0.8,-0.6 -0.2,-0.4 v -0.6 l 0.3,-0.9 0.5,-0.4 0.7,-0.4 h 1 l 1.2,0.2 0.7,-0.1 0.5,-0.5 0.2,-0.5 -0.1,-0.7 -0.7,-0.6 -1.3,-0.4 m 6.7,4.7 -0.6,0.7 -0.8,0.3 h -0.9 l -0.3,-0.1 -0.8,-0.6 -0.3,-0.7 v -1 l 0.1,-0.3 0.6,-0.7 0.8,-0.4 0.9,0.1 0.3,0.1 0.8,0.6 0.3,0.7 -0.1,1.3 -0.5,1.4 -0.8,1.3 -0.9,0.6 h -1 l -0.5,-0.2 -0.8,-0.6 v -0.7 m 27.5,-477 -0.6,-0.3 -1.2,-0.3 5.3,-3.4 m -7.1,1.1 0.7,0.6 h 1.1 l 1.5,-0.6 0.7,-0.5 1.1,-1 0.4,-1 -0.2,-0.9 -0.3,-0.5 -0.7,-0.6 -1.1,-0.1 -1.5,0.6 -0.7,0.5 -1.1,1 -0.4,1 0.2,1 0.2,0.3 m -3.7,-5.9 1.6,2.6 2.4,-1.2 -0.4,-0.1 -0.7,-0.6 -0.5,-0.8 -0.3,-0.9 0.2,-0.8 0.6,-0.8 0.5,-0.3 1,-0.2 0.8,0.2 0.7,0.6 0.5,0.7 0.2,0.9 -0.1,0.5 -0.3,0.5 m -106.4,-45.5 0.7,-0.3 0.4,-0.8 0.1,-0.6 -0.2,-0.9 -0.8,-0.7 -1.5,-0.5 -1.5,-0.2 -1.2,0.1 -0.7,0.6 -0.4,0.8 v 0.3 l 0.2,0.9 0.5,0.7 0.8,0.4 0.3,0.1 1,-0.2 0.6,-0.5 0.4,-0.9 0.1,-0.3 -0.2,-0.9 -0.5,-0.7 -0.9,-0.4 m 3.3,7.3 -0.2,-0.9 -0.8,-0.7 -1.4,-0.5 -0.9,-0.1 -1.5,0.1 -1,0.5 -0.4,0.8 -0.1,0.6 0.2,1 0.8,0.7 1.5,0.4 0.9,0.2 1.5,-0.2 0.9,-0.4 0.5,-0.9 v -0.4 m -56.6,105.7 -0.6,0.7 -0.8,0.4 -0.9,-0.1 -0.3,-0.1 -0.8,-0.6 -0.3,-0.8 v -0.9 l 0.2,-0.3 0.6,-0.7 0.7,-0.4 1,0.1 0.3,0.1 0.7,0.6 0.3,0.8 -0.1,1.2 -0.6,1.4 -0.8,1.3 -0.9,0.6 -0.9,-0.1 -0.6,-0.2 -0.7,-0.6 -0.1,-0.6 m 9.4,-1.2 v -0.7 l -0.7,-0.6 -0.6,-0.2 -1,-0.1 -0.8,0.7 -0.9,1.3 -0.5,1.4 -0.2,1.2 0.4,0.8 0.7,0.6 0.3,0.1 h 0.9 l 0.8,-0.3 0.6,-0.8 0.1,-0.2 0.1,-1 -0.4,-0.8 -0.7,-0.6 -0.3,-0.1 h -0.9 l -0.8,0.3 -0.6,0.8 m 86.7,-191.6 1.7,-2.4 -2,-1.9 0.1,0.5 -0.3,0.9 -0.5,0.7 -0.8,0.6 -0.8,0.1 -0.9,-0.3 -0.5,-0.3 -0.6,-0.8 -0.1,-0.8 0.2,-0.9 0.6,-0.8 0.7,-0.5 0.5,-0.1 0.6,0.1 m 0.7,7.8 -1.9,2.7 -0.9,-2.9 -0.5,0.7 -0.6,0.4 h -0.4 l -1,-0.3 -0.4,-0.3 -0.6,-0.8 -0.1,-0.8 0.2,-0.9 0.6,-0.7 0.7,-0.6 0.5,-0.1 0.6,0.1 m 25.1,18 -0.4,-0.6 -1,-0.7 6.2,-1.1 m -7,-1.7 0.5,0.8 1,0.4 h 1.5 l 0.9,-0.1 1.4,-0.6 0.8,-0.8 0.1,-0.9 -0.1,-0.6 -0.4,-0.8 -1,-0.4 -1.6,-0.1 -0.9,0.2 -1.4,0.6 -0.7,0.7 -0.2,1 0.1,0.4 m 0.8,-3.5 -0.4,-0.5 -1.1,-0.8 6.2,-1.1 m -47.5,520.1 -0.4,-0.8 -0.7,-0.3 -0.5,0.1 -0.6,0.4 -0.2,0.6 -0.2,1.2 -0.2,1 -0.5,0.6 -0.6,0.4 -0.9,0.1 -0.6,-0.2 -0.4,-0.3 -0.4,-0.9 -0.1,-1.2 0.2,-0.9 0.3,-0.3 0.5,-0.4 0.9,-0.1 0.7,0.2 0.6,0.6 0.4,0.8 0.5,1.2 0.3,0.6 0.6,0.2 0.6,-0.1 0.6,-0.3 0.2,-1 -0.1,-1.3 m 0.5,4.6 0.3,3.2 -2.6,-1.5 0.1,0.9 -0.2,0.6 -0.3,0.4 -0.8,0.4 h -0.6 l -0.9,-0.2 -0.7,-0.5 -0.4,-0.9 -0.1,-0.9 0.2,-0.9 0.3,-0.3 0.5,-0.4 m 63.4,-10 1,0.1 0.5,-0.4 0.3,-0.6 v -0.6 l -0.4,-0.6 -1,-0.8 -0.6,-0.6 -0.3,-0.8 V 573 l 0.4,-0.8 0.5,-0.4 0.4,-0.2 1,0.2 1,0.5 0.7,0.7 0.1,0.4 v 0.7 l -0.4,0.8 -0.5,0.4 -0.8,0.2 -0.9,-0.1 -1.2,-0.3 h -0.7 l -0.5,0.4 -0.3,0.6 v 0.6 l 0.7,0.7 1.2,0.6 m -5,-2.4 1,0.1 0.5,-0.4 0.3,-0.5 v -0.7 l -0.4,-0.5 -1,-0.8 -0.6,-0.7 -0.3,-0.8 v -0.7 l 0.4,-0.8 0.5,-0.4 0.4,-0.1 1,0.1 1,0.5 0.7,0.7 0.2,0.4 v 0.7 l -0.4,0.8 -0.6,0.4 -0.8,0.3 -0.9,-0.2 -1.2,-0.2 h -0.7 l -0.5,0.4 -0.3,0.5 v 0.7 l 0.7,0.6 1.2,0.6 m -138.8,-395.7 3.9,-3.3 -4.3,-1.1 m 0.4,4.4 1.5,-6.1 m -5.5,5.1 0.9,-0.1 0.5,-0.5 0.1,-0.6 -0.1,-0.7 -0.5,-0.4 -1.1,-0.6 -0.8,-0.5 -0.5,-0.7 -0.1,-0.7 0.2,-0.9 0.4,-0.5 0.4,-0.2 1,-0.1 1.1,0.3 0.8,0.6 0.2,0.3 0.2,0.7 -0.2,0.8 -0.5,0.6 -0.7,0.4 -0.9,0.1 h -1.3 l -0.6,0.1 -0.5,0.5 -0.1,0.6 0.1,0.6 0.8,0.6 1.3,0.3 m -39,8.8 -5.1,-1.2 1.7,4.1 m 3.4,-2.9 -5.9,2.3 m 6.3,4.5 -0.9,0.1 -0.8,-0.3 -0.6,-0.7 -0.1,-0.3 -0.1,-1 0.3,-0.8 0.8,-0.6 0.2,-0.1 h 1 l 0.8,0.3 0.6,0.7 0.1,0.3 0.1,0.9 -0.4,0.8 -1,0.7 -1.4,0.6 -1.5,0.3 -1,-0.2 -0.6,-0.7 -0.3,-0.6 V 193 l 0.4,-0.6 m 287.7,-128.8 0.6,-0.7 0.8,-0.4 0.9,0.1 0.3,0.1 0.8,0.6 0.3,0.8 -0.1,0.9 -0.1,0.3 -0.6,0.7 -0.8,0.4 -0.9,-0.1 -0.3,-0.1 -0.7,-0.6 -0.4,-0.8 0.2,-1.2 0.6,-1.4 0.8,-1.3 0.9,-0.6 h 0.9 l 0.6,0.3 0.7,0.6 0.1,0.6 m -7.8,2.7 0.9,0.1 0.5,-0.4 0.2,-0.6 v -0.7 l -0.5,-0.5 -1,-0.7 -0.7,-0.6 -0.3,-0.8 -0.1,-0.7 0.3,-0.8 0.6,-0.4 0.3,-0.2 1,0.1 1.1,0.4 0.7,0.6 0.2,0.4 0.1,0.7 -0.4,0.8 -0.5,0.4 -0.8,0.4 -0.9,-0.1 -1.2,-0.1 h -0.7 l -0.5,0.5 -0.2,0.5 v 0.7 l 0.8,0.6 1.2,0.5 m -32.3,-3.4 -0.8,-0.4 -0.6,-0.6 -0.2,-1 v -0.3 l 0.4,-0.8 0.6,-0.6 1,-0.2 h 0.3 l 0.8,0.4 0.6,0.7 0.2,0.9 v 0.3 l -0.4,0.8 -0.6,0.6 -1.3,0.2 -1.5,-0.1 -1.4,-0.5 -0.9,-0.6 -0.2,-1 0.1,-0.5 0.3,-0.9 0.6,-0.3 m 4.7,9.2 -6,-3.5 m 6.4,-0.6 -0.4,4.1 m -147.1,354.4 -6.6,2.2 m 3.7,-5.3 2.9,3.1 m 2.7,4 0.2,-0.7 -0.4,-0.8 -0.4,-0.4 -0.9,-0.5 -1.1,0.2 -1.2,0.9 -1.1,1 -0.7,1.1 v 0.8 l 0.4,0.9 0.3,0.2 0.8,0.4 h 0.8 l 0.9,-0.4 0.2,-0.2 0.4,-0.8 0.1,-0.9 -0.5,-0.8 -0.2,-0.3 -0.8,-0.4 h -0.9 l -0.8,0.4 m 13.1,-99.1 -0.7,-0.1 -1.2,0.3 3.4,-5.3 m -6,3.9 0.9,0.2 1,-0.4 1,-1.1 0.5,-0.8 0.6,-1.4 v -1.1 l -0.6,-0.7 -0.5,-0.3 -1,-0.3 -1,0.5 -1,1.1 -0.5,0.7 -0.6,1.5 0.1,1 0.6,0.8 0.3,0.2 m -2.5,-3.4 -0.1,0.3 -0.6,0.3 -0.4,0.1 h -0.7 l -1,-0.7 -0.3,-0.6 -0.1,-0.4 0.1,-0.6 0.3,-0.5 0.6,-0.4 0.9,-0.4 4.2,-0.9 -3.5,-2.3 m 70.3,64.2 -0.7,-0.2 -1.2,-0.1 4.5,-4.3 m -6.7,2.4 0.8,0.4 1.1,-0.2 1.3,-0.8 0.6,-0.6 0.9,-1.3 0.2,-1 -0.4,-0.9 -0.4,-0.4 -0.9,-0.5 -1,0.2 -1.3,0.8 -0.7,0.7 -0.8,1.2 -0.3,1.1 0.4,0.8 0.4,0.4 m -1.7,-3.9 -0.2,0.2 -0.6,0.2 h -0.5 l -0.6,-0.2 -0.8,-0.9 -0.2,-0.6 v -0.5 l 0.2,-0.6 0.5,-0.4 0.6,-0.2 1.1,-0.2 4.2,0.1 -2.9,-3 m -117.9,-54.6 -0.4,0.5 -0.5,1.2 -2.7,-5.7 m 0.2,7.2 0.7,-0.7 0.1,-1.1 -0.4,-1.4 -0.4,-0.9 -0.9,-1.2 -0.9,-0.5 -0.9,0.1 -0.6,0.2 -0.7,0.7 -0.1,1.1 0.4,1.5 0.3,0.8 1,1.2 0.9,0.5 0.9,-0.1 0.4,-0.2 m -5.8,2.9 0.9,-5.1 -4.1,2 m 3.2,3.1 -2.7,-5.7 m 4.1,41.5 -6.9,1.4 m 4.3,-4.7 2.6,3.3 m 1.6,2.1 -0.8,-0.5 -0.7,0.1 -0.5,0.4 -0.3,0.6 0.2,0.6 0.5,1.2 0.3,0.9 -0.1,0.8 -0.3,0.6 -0.8,0.6 -0.6,0.1 -0.4,-0.1 -0.8,-0.5 -0.7,-1 -0.4,-0.9 0.1,-0.4 0.3,-0.6 0.7,-0.5 0.7,-0.2 0.8,0.2 0.8,0.5 1,0.8 0.6,0.3 0.6,-0.2 0.5,-0.3 0.3,-0.6 -0.3,-0.9 -0.8,-1.1 m 105.7,111.7 -6.3,3 m 3,-5.6 3.3,2.6 m 4.1,3.2 -6.3,3.1 m 3,-5.7 3.3,2.6 m 52,-28.2 -0.4,-0.5 -1.1,-0.7 6.2,-1.4 m -7.1,-1.4 0.5,0.8 1.1,0.4 1.5,-0.1 0.9,-0.2 1.4,-0.6 0.7,-0.8 0.1,-0.9 -0.1,-0.6 -0.5,-0.8 -1.1,-0.4 h -1.5 l -0.9,0.2 -1.4,0.7 -0.7,0.8 -0.1,0.9 0.1,0.4 m -1.5,-6.3 4.8,2 -1.1,-4.4 m -3.7,2.4 6.1,-1.4 m -22.7,42.6 -0.8,0.6 v 0.7 l 0.2,0.6 0.5,0.4 0.7,0.1 1.2,-0.2 h 0.9 l 0.8,0.3 0.5,0.5 0.3,0.8 v 0.7 l -0.2,0.4 -0.7,0.6 -1.1,0.4 h -1 l -0.4,-0.1 -0.5,-0.5 -0.3,-0.8 0.1,-0.7 0.3,-0.8 0.7,-0.6 1,-0.7 0.5,-0.5 0.1,-0.6 -0.3,-0.6 -0.5,-0.5 -0.9,0.1 -1.3,0.5 m 4.8,-0.3 -0.1,-0.2 v -0.7 l 0.2,-0.4 0.5,-0.5 1.1,-0.4 h 0.7 l 0.3,0.2 0.5,0.5 0.3,0.5 -0.1,0.7 -0.2,1 -1.8,3.9 4,-1.5"
       id="nums_005"
       stroke="#000000"
       stroke-width="1" />
    <path
       d="m 2580.9,408.5 -1.2,32.5 -15.5,12.8 21.5,31.8 16.4,84.8 -8,37.6 10.2,31.2 -11.4,70.6 -19.4,26.4 -108.6,-38 -38.4,1.9 -81.1,-30 -28,-26.3 -17.7,-23.4 -6.7,-61.1 12.2,-26.7 39.5,2.9 80.3,40 26.2,29.7 -9,-24.4 13.5,-50.3 20,-16.6 -27.4,-79.9 -9.4,-19.9 12.1,-37.6 19.2,-10.8 -160.3,-91.9 -109.6,-42.5 -20.9,-11.5 -17.1,-42.1 6.8,-22.8 32.9,-7.2 71.3,18 25.6,21.9 12.4,-99.6 48.9,-68.4 17.3,92.7 89.6,140 -7.1,-28.2 17.6,-58.5 21.5,-19.5 -25.4,-3.5 -37,-35 -4.8,-25.2 -13.4,-19.8 0.3,-4.2 16.5,-17.3 82.2,32.7 116.9,-28.1 9.5,20.6 -12,40 -19.2,12 5.2,35.4 -22.3,76.3 -23.5,26.9 13.7,31.6 -3.1,75.7 -16.2,30.4 z m -218.1,-66.3 32.2,33.5 2.3,24.1 18.2,12.2 8.8,38.2 -11.1,18.9 -54.2,21 -26.8,-2.2 -3.9,-3.1 -8,-25.6 -62.2,-63.7 -54.5,-71.4 64.2,-30.7 71.1,45.5 z"
       id="coupes_005"
       stroke="#ff0000"
       stroke-width="1.27"
       sodipodi:nodetypes="cccccccccccccccccccccccccccccccccccccccccccccccccccccccccccccccccccccccccc" />
    <path
       d="m 2448.3,434 21.9,-68.3 m 0,0 96.3,28.9 m 0,0 -118.2,39.4 m 118.2,-39.4 -2.3,59.2 m 0,0 -115.9,-19.8 m 115.9,19.8 -88.5,60.1 m -5.5,-148.2 101.9,-108.8 m 0,0 -5.6,137.7 m -99.4,-142.3 105,4.6 m -262.2,16.9 157.2,-21.5 m 0,0 145.6,-134 m 0,0 -40.6,138.6 m -73,-110.8 113.6,-27.8 m 21.7,-72.6 -21.7,72.6 m -113.6,27.8 135.3,-100.4 m -70.2,408.1 29.9,154.2 m 0,0 -118.4,-94.1 m 118.4,94.1 -142.9,-2.8 m 122.3,131 -122.3,-131 m 142.9,2.8 -20.6,128.2 m -256.1,-92.4 133.8,-38.6 m -152.3,-417.6 168.2,64.7 M 2311.3,88 l 66.2,24.3 m -177.2,119 98.6,-43.7 m 6.3,345 146,72.6 m -19.3,-522.8 3.4,-41.3 m -177.2,354.4 80.8,-56.6 m 0,0 -18.6,120.3 m -62.2,-63.7 9.7,-102.1 m 71.1,45.5 58.4,60.9 m 0,0 -38.3,90.3 m 38.3,-90.3 15.9,69.3"
       id="plisM_005"
       stroke="#a52a2a"
       stroke-dasharray="4" />
    <path
       d="m 2470.2,365.7 -3.1,-113.4 m 0,0 32,-106.2 m 0,0 18.4,-72.3 m -18.4,72.3 -67.2,-63.7 m 0,0 85.6,-8.6 m -66.3,531.4 24.5,-91.3 m -10.8,184.3 -13.7,-93 m 13.7,93 -147.5,-54.4 m -7.5,-370 -11,-86.2 m 0,0 78.6,-75.3 m -60.1,531.5 -12.2,-111.2 m -136.1,-377.7 129.8,32.7 m -98.6,43.7 -31.2,-76.4 m 228.2,244.9 -77,59.4 m 38.7,30.9 -38.7,-30.9"
       id="plisV_005"
       stroke="#008000"
       stroke-dasharray="4, 1, 1, 1"
       stroke-width="1.27" />
    <path
       d="m 2466.7,307 4,4 m 0,-4 -4,4 m 14.4,-113.8 4,4 m 0,-4 -4,4 m 25.2,-93.3 4,4 m 0,-4 -4,4 m -42.8,0.3 4,4 m 0,-4 -4,4 m 9.2,-40.1 4,4 m 0,-4 -4,4 m -11.2,477.4 4,4 m 0,-4 -4,4 m -5.4,88.2 4,4 m 0,-4 -4,4 m -66.9,15.3 4,4 m 0,-4 -4,4 m -86.8,-444.3 4,4 m 0,-4 -4,4 m 33.8,-84.7 4,4 m 0,-4 -4,4 m -26.9,434.2 4,4 m 0,-4 -4,4 m -77.3,-420.9 4,4 m 0,-4 -4,4 m -49.3,17.8 4,4 m 0,-4 -4,4 m 174.1,232.4 4,4 m 0,-4 -4,4 m -19.2,41.2 4,4 m 0,-4 -4,4"
       id="marqueV_005"
       stroke="#008000" />
    <path
       d="m 2419.6,287.2 -0.8,-1.5 -2.2,-0.8 h -1.5 l -2.3,0.8 -1.5,2.2 -0.7,3.8 v 3.7 l 0.7,3 1.5,1.5 2.3,0.8 h 0.7 l 2.3,-0.8 1.5,-1.5 0.7,-2.2 v -0.8 l -0.7,-2.2 -1.5,-1.5 -2.3,-0.8 h -0.7 l -2.3,0.8 -1.5,1.5 -0.7,2.2"
       id="titre_6"
       stroke="#4b0082" />
    <path
       d="m 2310.5,385.5 -7.5,15.7 m -3,-15.7 h 10.5"
       id="titre_7"
       stroke="#4b0082" />
  </g>
</svg>
