<?xml version="1.0" encoding="UTF-8" standalone="no"?>
<!-- Created by JSCAD SVG Serializer -->

<svg
   width="210.10001mm"
   height="297.10001mm"
   viewBox="0 0 210.10001 297.10001"
   fill="none"
   fill-rule="evenodd"
   stroke-width="0.1px"
   version="1.1"
   id="svg436"
   sodipodi:docname="coeur88_H10_cricut.svg"
   inkscape:version="1.1.1 (3bf5ae0d25, 2021-09-20)"
   xmlns:inkscape="http://www.inkscape.org/namespaces/inkscape"
   xmlns:sodipodi="http://sodipodi.sourceforge.net/DTD/sodipodi-0.dtd"
   xmlns="http://www.w3.org/2000/svg"
   xmlns:svg="http://www.w3.org/2000/svg">
  <defs
     id="defs440">
    <rect
       x="-136.50314"
       y="934.72004"
       width="918.5889"
       height="372.36447"
       id="rect10782" />
  </defs>
  <sodipodi:namedview
     id="namedview438"
     pagecolor="#ffffff"
     bordercolor="#666666"
     borderopacity="1.0"
     inkscape:pageshadow="2"
     inkscape:pageopacity="0.0"
     inkscape:pagecheckerboard="0"
     inkscape:document-units="mm"
     showgrid="false"
     inkscape:zoom="0.81122218"
     inkscape:cx="502.32848"
     inkscape:cy="512.19014"
     inkscape:window-width="1920"
     inkscape:window-height="1016"
     inkscape:window-x="0"
     inkscape:window-y="0"
     inkscape:window-maximized="1"
     inkscape:current-layer="svg436"
     inkscape:snap-global="false" />
  <path
     id="1643317854703"
     style="fill:none;stroke:#008000;stroke-width:0.3;stroke-miterlimit:4;stroke-dasharray:2.4, 0.6, 0.3, 0.6;stroke-dashoffset:0"
     d="m 180.00211,106.46879 10.58296,-17.094942 m -12.2799,34.547462 1.69694,-17.45252 m 3.14628,34.96822 -4.84322,-17.5157 m -28.72271,91.80307 -7.34835,29.18642" />
  <path
     id="1643317854739"
     style="fill:none;stroke:#800000;stroke-width:0.200001;stroke-miterlimit:4;stroke-dasharray:2.39999, 2.39999;stroke-dashoffset:0;stroke-opacity:1"
     d="m 200.46798,62.164457 -16.75999,-7.935874 m 0,0 -22.46152,14.710102 m 29.3386,20.435163 9.88291,-27.209391 m 0,0 -39.22151,6.774228 m 0,0 -5.07326,17.964313 m 34.41186,2.47085 -29.3386,-20.435163 m -5.07326,17.964313 8.63084,16.151812 m 25.78102,-13.680962 -34.41186,-2.47085 m 34.41186,2.47085 -25.78102,13.680962 m 15.19806,3.41398 -15.19806,-3.41398 m 13.50112,20.8665 -13.50112,-20.8665 m 0,0 -9.03669,15.19971 m -5.47105,16.04839 9.19085,27.50171 m 18.81801,-37.88331 -22.53781,-5.66679 m 28.52853,35.18538 -1.1475,-12.00289 m -32.85208,-7.1341 33.99958,19.13699 m -1.1475,-12.00289 -27.38103,-23.18249 m -5.47105,16.04839 32.85208,7.1341 m -33.56593,74.28737 -19.95876,15.58998 m 12.61041,13.59644 32.31858,-6.36022 m 0,0 11.61435,-16.55385 m -36.58458,-6.27235 24.97023,22.8262 m -24.97023,-22.8262 36.58458,6.27235 m -22.50431,-17.10977 -14.08027,10.83742 m 36.58458,6.27235 9.11827,-4.63887 m -31.62258,-12.4709 22.50431,17.10977 m -22.50431,-17.10977 31.62258,12.4709 m -37.7532,-28.39205 6.13062,15.92115 m -6.13062,-15.92115 37.7532,28.39205 m -14.86362,-25.84227 -22.88958,-2.54978 m 34.9383,-17.39929 -8.17454,-18.12661 m 0,0 -24.80554,8.37395 m 35.79498,55.544 2.85817,-13.1234 m -17.72179,-12.71887 14.86362,25.84227 m -35.79498,-55.544 20.93136,29.70173 m 12.04872,-19.94907 -32.98008,-9.75266 m 38.65315,42.4206 -5.67307,-32.66794 m -12.04872,19.94907 17.72179,12.71887 m -5.67307,-32.66794 -12.04872,19.94907 M 61.006351,82.713938 77.173062,103.44497 m 11.427387,-6.588302 -11.427387,6.588302 m 5.29961,98.2507 5.624139,25.08513 M 103.61727,114.55174 77.173062,103.44497 m 22.849198,92.74661 -17.549588,5.50409 m 0,0 27.324178,27.56349 m -6.17958,-114.70742 -16.653971,11.30222 m 13.058961,70.33762 9.77459,33.06758 m -6.17958,-114.70742 3.28495,19.29446 m -6.87996,62.34538 26.86699,38.32211 m -8.58381,-111.80829 -11.40322,11.1408 m -6.87996,62.34538 25.22767,9.2925 M 124.1469,145.999 106.90222,133.8462 m 6.89092,54.22346 11.45679,17.41442 m -1.10303,-59.48508 -17.18549,3.17288 m 6.83173,38.89778 5.91506,-17.00818 m 0,0 -12.74679,-21.8896 m -12.644848,15.03178 25.391638,6.85782 M 53.243197,160.58607 78.560978,143.0385 m -30.530604,2.43342 5.212823,15.11415 m 25.317781,-17.54757 19.35287,3.36201 m 0,0 8.838582,-12.52026 m -58.722056,11.59167 30.530604,-2.43342 m -10.464522,-8.94305 -20.066082,11.37647 m 58.722056,-11.59167 -19.87668,-8.14588 m -8.314772,17.30413 28.191452,-9.15825 M 68.836261,109.22459 55.625143,122.76326 m 31.250607,2.97111 -18.039489,-16.50978 m -0.739805,24.87086 10.464522,8.94305 m 0,0 8.314772,-17.30413 m -31.250607,-2.97111 12.471314,11.33219 m 18.779293,-8.36108 -31.250607,-2.97111 m 12.471314,11.33219 18.779293,-8.36108 M 168.02394,56.151819 155.541,40.908978 m -3.00214,22.148238 3.00214,-22.148238 m 0,0 -27.59398,12.75915 m 24.59184,9.389088 -24.59184,-9.389088 m 0,0 -10.34311,16.496402 m 14.99346,13.943548 -4.65035,-30.43995 m -19.50814,38.29242 24.15849,-7.85247 m 0,0 -14.99346,-13.943548 m -9.16503,21.796018 9.16503,-21.796018 m 0,0 -14.54729,-6.366018 m 5.38226,28.162036 -5.38226,-28.162039 M 75.474004,36.277885 91.206677,55.314381 M 93.937151,32.237737 75.474004,36.277885 M 91.206677,55.314381 93.937151,32.237737 M 91.206677,55.314381 72.243231,62.944195 M 93.491162,100.18382 103.05662,63.798509 M 91.206677,55.314381 82.893376,85.922088 M 103.05662,63.798509 91.206677,55.314381 M 82.893376,85.922088 103.05662,63.798509 M 147.56059,18.479902 155.541,40.908971 M 173.06642,30.007879 147.56059,18.479902 M 173.06642,30.007879 155.541,40.908971 m 26.69046,4.9537 -26.69046,-4.9537 M 132.69392,34.220113 104.25,45.125343 m 23.70341,8.556402 4.74051,-19.461632 M 127.95341,53.681745 104.25,45.125343 M 69.46148,22.531222 47.322549,27.443254 m 0,0 -11.957405,13.296144 M 70.882711,32.662759 47.322549,27.443254 M 12.534977,112.47683 39.774538,123.49946 M 70.882711,32.662759 35.365144,40.739398 M 23.980018,92.286858 12.534977,112.47683 m 0,0 32.276757,-6.43826 m -9.44659,-65.299172 -5.907932,21.02726 M 64.722653,44.597731 35.365144,40.739398 M 23.980018,92.286858 44.811734,106.03857 M 64.722653,44.597731 29.457212,61.766658 m -5.477194,30.5202 26.602444,3.16471 m -21.12525,-33.68491 -5.477194,30.5202 M 53.42839,75.771661 29.457212,61.766658 m -5.477194,30.5202 29.448372,-16.515197 m -40.8959,36.711529 2.152567,16.66139 m 23.104328,76.33825 17.938007,22.8827 m 0,0 9.623807,-13.85232 m -25.57666,-91.01375 -25.089483,5.64512 m 23.104328,76.33825 27.561815,9.03038 M 14.685057,129.14458 12.12681,153.02278 M 38.977521,141.01612 14.685057,129.14458 m 1.448884,49.01342 21.655444,27.32483 m 0,0 26.547331,-23.89314 M 38.977521,141.01612 12.12681,153.02278 m 4.007131,25.13522 48.202775,3.43169 M 12.12681,153.02278 16.133941,178.158 M 44.747253,160.27619 12.12681,153.02278 m 4.007131,25.13522 28.613312,-17.88181" />
  <path
     id="1643317854741"
     style="font-variation-settings:normal;vector-effect:none;fill:none;fill-opacity:1;stroke:#000000;stroke-width:0.300001;stroke-linecap:butt;stroke-linejoin:miter;stroke-miterlimit:4;stroke-dasharray:none;stroke-dashoffset:0;stroke-opacity:1;-inkscape-stroke:none;stop-color:#000000"
     d="m 192.28466,57.17599 -0.25678,0.542228 -1.44606,-0.68469 0.42798,-0.903791 0.97972,-0.199954 -0.46625,-0.884578 0.4279,-0.903857 1.44614,0.684746 -0.25677,0.542239 m -0.38963,2.692236 1.44608,0.684822 0.68473,-1.446171 -1.44606,-0.684691 0.68469,-1.446094 1.44606,0.68469 m -24.58832,6.194072 0.46197,-2.215106 -0.87654,-1.338536 -1.33851,0.876561 0.87654,1.338536 1.33851,-0.876561 m 0.66922,-0.438234 1.33857,-0.876647 -0.12738,1.995938 -1.75314,-2.676995 m 26.12756,17.719736 -0.54623,1.50388 -1.50384,-0.546235 0.54622,-1.503872 3.00768,1.092453 -0.54621,1.503882 m -2.32325,1.709581 -0.95756,-2.05017 3.00762,1.09253 m -40.47087,1.09106 0.43482,-1.53975 -1.53972,-0.434822 -0.43481,1.539752 -1.5398,-0.43488 0.43482,-1.539752 m 1.7572,-0.335 0.43486,-1.539827 1.21365,1.589677 -3.0795,-0.86972 m 1.71732,20.730152 2.82233,-1.50822 0.75399,1.41118 -2.82228,1.50815 -0.75404,-1.41111 m 1.03409,-1.45976 -0.75405,-1.4111 1.97672,0.30432 -2.82227,1.50814 m 31.85763,3.92995 -2.72079,-1.68446 0.84225,-1.3604 2.72072,1.68441 -0.84218,1.36045 m -3.30386,0.777252 -0.68017,-0.421072 0.84217,-1.36045 1.36037,0.84227 -0.84219,1.360322 1.36037,0.84227 0.84226,-1.3604 m -8.41147,13.10506 -0.15484,1.59247 1.59243,0.15485 0.15484,-1.59247 1.59242,0.15484 -0.15474,1.59252 m -2.62098,2.15651 -0.79621,-0.0775 0.15474,-1.59254 1.59257,0.15486 -0.15484,1.59246 1.59242,0.15485 0.15485,-1.59249 m -25.00725,-4.93374 0.8176,-1.37527 1.37532,0.81767 -0.81766,1.37536 -2.7505,-1.63539 0.8176,-1.37526 m 3.46131,-0.73425 0.51576,0.3066 -0.81766,1.37534 -0.85956,-0.51108 -0.10686,-0.99427 -0.92459,0.381 -0.85956,-0.51109 0.81768,-1.3752 0.51575,0.30659 m -7.44871,42.18609 3.035,-1.01433 0.50714,1.51746 -3.03492,1.01439 -0.50722,-1.51752 m 2.78139,-1.7731 -0.50707,-1.51755 -1.51751,0.50724 0.50715,1.51746 -1.51743,0.50715 -0.50722,-1.51752 m 31.53255,-15.8772 -0.41837,0.73822 -0.77114,0.21322 -0.31976,-1.15655 0.77106,-0.21329 0.73821,0.4184 0.17227,-0.87765 1.34937,-0.37314 0.4264,1.54217 -1.34937,0.37313 -0.59867,-0.66451 m 0.27451,3.24419 -0.77105,0.21326 -0.42641,-1.54216 1.54213,-0.42642 0.42632,1.54212 1.54213,-0.42643 -0.4264,-1.54217 m 0.23289,14.71816 -0.59728,0.0571 -0.15231,-1.59279 0.99546,-0.0952 0.67343,0.73919 0.52113,-0.85345 0.99547,-0.0952 0.15231,1.59279 -0.59736,0.0571 m -1.56338,2.56052 -0.79638,0.0761 -0.15223,-1.59273 1.59275,-0.15231 0.15222,1.59272 1.5927,-0.15224 -0.15223,-1.59272 m -36.27875,-21.48473 0.99813,2.03071 -3.0288,-1.0327 m 3.80325,-1.23901 0.51627,-1.51436 -1.51441,-0.51636 -0.51634,1.51445 -1.51433,-0.51631 0.51629,-1.51436 m -11.87482,112.65811 0.43991,-0.40804 1.08809,1.17312 -0.7332,0.68009 -0.98393,-0.17865 0.10418,0.99462 -0.73328,0.68003 -1.088,-1.17305 0.43991,-0.40803 m 1.3622,-2.35465 -1.08795,-1.17315 -1.17309,1.08811 1.08801,1.17307 -1.17303,1.08804 -1.08809,-1.17312 m 4.20614,-13.29678 0.36933,0.47286 -1.26091,0.98496 -0.61556,-0.78817 0.26116,-0.9653 -0.9998,0.0196 -0.61562,-0.78809 1.26099,-0.98491 0.36932,0.47286 m 1.24597,0.29565 1.26099,-0.98491 0.0392,1.99963 -1.96974,-2.52189 m 22.34833,23.4959 -1.5699,0.30895 0.86852,-1.80164 0.6178,3.13981 m -3.99563,-1.65972 -0.15439,-0.78499 1.56989,-0.30894 0.30894,1.56993 -1.5699,0.30894 0.30894,1.56993 1.56989,-0.30894 m 24.71655,-13.02333 -2.61953,-1.83792 0.91892,-1.30986 2.61953,1.83792 -0.91892,1.30986 m -3.50679,0.47135 -0.49114,-0.34467 0.91888,-1.30977 0.81864,0.57436 0.0317,0.99956 0.95062,-0.31032 0.81856,0.57432 -0.91893,1.30986 -0.49114,-0.34466 m -26.06649,-25.47074 -0.29214,2.24383 -1.9517,-2.53589 m 2.87778,-0.19584 1.26785,-0.97597 0.025,1.99993 -1.9517,-2.53588 m 36.12345,15.1813 0.70064,-2.15155 1.4509,2.85212 m -4.04518,-1.07334 -0.2721,-0.53481 1.42605,-0.7255 0.45349,0.89132 -0.44099,0.89746 0.98509,0.17209 0.4534,0.89128 -1.42604,0.72551 -0.27201,-0.53474 m -30.53945,-25.75444 0.57497,1.49311 -3.56121,-0.3432 m 1.20565,-1.32151 -0.57491,-1.49319 1.92431,0.54486 -2.98629,1.14999 m 11.745,-8.9395 0.52984,0.66278 -0.0886,0.79502 -1.19258,-0.13281 0.0886,-0.79515 0.66277,-0.52984 -0.75081,-0.4861 0.15502,-1.39145 1.59011,0.17712 -0.15502,1.39145 -0.8393,0.30898 m 1.61228,-0.0216 1.59011,0.17711 -1.36968,1.45735 0.35422,-3.1803 m 19.51133,-25.60211 -2.11625,-0.80076 2.917,-1.31555 m -0.54343,4.63301 -0.72928,0.32893 -0.65775,-1.45853 1.45855,-0.65786 0.6578,1.45867 1.4585,-0.65777 -0.6577,-1.45863 m 5.59479,47.76161 1.22278,1.9039 1.56338,0.34053 0.34052,-1.56343 -1.56338,-0.34052 -0.34052,1.56342 m -1.29236,2.17476 -0.78165,-0.17024 0.34048,-1.56333 1.56329,0.34048 -0.34047,1.56332 1.56338,0.34053 0.34047,-1.56332 m -30.84697,-32.98856 -0.92165,-1.30787 1.30785,-0.92168 0.92165,1.30788 -2.61559,1.8434 -0.92174,-1.30792 m 0.84705,-1.57559 -0.92174,-1.30792 1.99911,0.0593 -2.61568,1.84336 m 30.06246,9.3281 -0.78814,0.13684 -0.27374,-1.57637 1.57632,-0.27375 0.27384,1.57641 1.57633,-0.27374 -0.2737,-1.57646 m -1.68017,4.3517 -0.78827,0.13685 -0.27375,-1.57636 1.57639,-0.27383 0.27377,1.5765 1.57638,-0.27384 -0.27375,-1.57635 M 69.773958,94.495968 l -2.245635,-0.27773 -1.261676,0.98398 0.983958,1.26171 1.261677,-0.98398 -0.983959,-1.26171 m -1.439138,-1.6034 2.245609,0.27783 -2.523327,1.96786 m 7.557879,-3.3885 0.260332,0.80762 -0.364856,0.712 -1.067906,-0.54738 0.364829,-0.71191 0.807602,-0.26033 -0.529476,-0.72079 0.638526,-1.24592 1.423878,0.7297 -0.638526,1.24592 -0.894402,-0.009 m 2.861571,0.99967 -2.15366,0.69418 1.459564,-2.84777 m 1.05489,119.772622 -1.352191,0.85543 -0.358663,-3.55978 m 2.883603,0.0691 -0.496751,2.20756 -1.710783,-2.70423 m 5.299594,10.00056 -2.226339,0.40409 -0.911125,1.31524 1.315212,0.91115 0.911126,-1.31524 -1.315213,-0.91115 m -1.972758,-1.36676 2.226339,-0.40409 -1.822348,2.63045 m 15.00059,-111.18281 1.035224,1.21993 1.219925,-1.03534 -1.035346,-1.21986 1.219925,-1.03534 1.03532,1.21995 m 0.332985,2.86515 -2.255149,-0.18458 2.439728,-2.07062 m -12.334781,87.78601 -0.251628,-1.58008 1.768772,0.93348 -3.160081,0.50326 m 1.013818,-3.80687 1.831765,1.32847 -3.160203,0.50333 m 6.542535,1.08959 -0.289618,0.52546 -1.40112,-0.77255 0.482721,-0.87574 0.99031,-0.1391 -0.41088,-0.91178 0.482818,-0.87571 1.401119,0.77256 -0.289715,0.52544 m 1.618923,2.0345 -2.173652,0.6286 1.544968,-2.80233 m 9.043553,33.2243 0.09077,-0.79483 1.589629,0.18155 -0.18155,1.58967 -1.589628,-0.18156 -0.181575,1.58976 1.589623,0.18156 m -3.792515,-2.04356 1.771203,-1.4082 -0.363125,3.17942 m -14.015422,-113.4755 2.10667,0.82565 -2.9323,1.28107 m -0.135264,-4.30605 2.106767,0.82568 -2.932327,1.28115 m 36.980653,116.14164 -1.52937,-0.47023 0.47019,-1.52931 1.52931,0.47011 -0.94022,3.05877 -1.52941,-0.47013 m -7.34291,-109.76474 0.23335,0.81587 -0.3882,0.69948 -1.04923,-0.58242 0.3883,-0.69946 0.81578,-0.23347 -0.50536,-0.738 0.67955,-1.22407 1.39888,0.77661 -0.67952,1.22397 -0.89355,-0.0385 m 12.12013,100.3675 -0.0902,-1.59749 3.28502,1.41705 m -8.09083,-86.3142 1.94116,1.16276 1.55184,-0.38924 -0.38911,-1.55195 -1.55195,0.38922 0.38922,1.55197 m -10.66897,59.64833 1.37817,-0.81278 -0.81277,-1.3782 -1.37819,0.81288 -0.81277,-1.37821 1.37807,-0.8128 m 0.96103,-50.26708 -0.006,-1.59996 1.60462,1.19379 -3.19997,0.0124 m 11.68048,48.48381 -0.59234,0.0953 -0.25433,-1.57967 0.98726,-0.15888 0.71952,0.69444 0.46519,-0.88524 0.98726,-0.15888 0.25433,1.57967 -0.59234,0.0953 m -2.7204,-30.50959 -0.78766,-0.1395 0.27902,-1.57546 1.57542,0.27903 -0.27902,1.57546 1.57552,0.27905 0.27902,-1.57546 m -16.14206,15.71559 2.2512,0.22796 -2.47915,2.0233 m -2.90348,-19.72013 2.44878,2.05996 -1.02995,1.22441 -2.44879,-2.05996 1.02996,-1.22441 m -35.70578,-2.05239 0.403624,-2.22647 1.822797,2.63011 m -17.976758,-0.7463 -0.521613,-1.51263 -1.512549,0.52171 0.521704,1.51259 -1.512549,0.52171 -0.521705,-1.51258 m 39.86733,-5.16183 0.547597,-3.15282 1.576462,0.27388 -0.547729,3.15277 -1.57633,-0.27383 m 17.942849,-7.80406 -0.92276,1.30702 -0.615,-1.9031 2.61422,1.84558 m -47.755571,-3.15646 0.295932,0.52186 -1.391846,0.78914 -0.493244,-0.8699 0.399996,-0.91653 -0.991759,-0.12744 -0.493244,-0.86989 1.391845,-0.78914 0.295973,0.52194 m 2.580917,-0.31366 -0.60272,2.18102 -1.57816,-2.7838 m 4.263855,-20.1194 -1.117444,1.14511 -1.172819,-3.38001 m 2.821212,-0.60029 0.02777,2.26264 -2.290264,-2.23491 m 19.35133,3.09188 -2.260453,0.10017 2.160379,-2.36071 m 1.870567,3.88093 -2.260494,0.10007 2.160378,-2.36071 m -19.800534,15.42495 -1.184099,-1.07602 1.964029,-0.37726 -2.151905,2.36843 m -1.58845,-3.60523 2.260184,-0.10815 -2.151947,2.36834 m 100.895756,-72.920401 0.80963,-2.112954 1.30328,2.922603 m -3.49515,-1.945191 -1.46131,0.651704 0.65158,1.461252 1.46132,-0.651609 0.65159,1.461348 -1.46121,0.651602 m -15.76043,13.169795 -2.32315,-2.200759 1.10041,-1.161514 2.32306,2.200777 -1.10032,1.161496 m -2.87325,-1.619913 -1.10041,1.161513 1.16158,1.100423 1.1003,-1.161597 1.1616,1.100428 -1.10042,1.161508 m -18.7741,21.910687 -0.87186,1.34158 -1.34158,-0.87184 0.87185,-1.34159 2.68315,1.74369 -0.87189,1.34163 m -1.77749,-0.20103 -0.87185,1.341582 -0.68767,-1.878102 2.68317,1.74379 m -8.14125,3.631632 0.47569,-0.70273 0.78553,-0.15144 0.22711,1.17832 -0.78553,0.15144 -0.70279,-0.47559 -0.24133,0.86121 -1.37467,0.265 -0.30278,-1.57109 1.37467,-0.265 0.54411,0.70988 m -0.49916,-1.53321 -0.30278,-1.57109 1.79816,0.87542 -3.14211,0.60568 m 10.48752,-40.642823 0.67782,0.425055 -0.84993,1.355624 -1.35559,-0.849949 0.84993,-1.355624 -1.35553,-0.850024 -0.85001,1.355556 m 4.32766,-2.007745 0.50833,0.318728 -0.84993,1.355624 -0.84722,-0.531185 -0.0833,-0.996556 -0.93328,0.359038 -0.84721,-0.53118 0.84992,-1.355615 0.50834,0.318741 m -11.03394,7.653681 -0.24019,0.549865 -1.4658,-0.641438 0.40059,-0.916243 0.97348,-0.228938 -0.49238,-0.870407 0.40059,-0.916243 1.46575,0.641414 -0.24019,0.549867 m 1.39689,2.794425 -0.24018,0.549831 -1.46575,-0.641526 0.4006,-0.916285 0.97341,-0.228918 -0.4924,-0.870408 0.40061,-0.916282 1.46579,0.641435 -0.24017,0.549842 m -14.270749,27.511901 1.401879,-0.77123 0.14054,3.57504 m -1.47215,-1.01634 -1.40188,0.77123 0.280253,-1.98031 1.54232,2.80382 m -21.967506,-44.32402 -1.395494,-1.781159 -1.588329,-0.192761 -0.192781,1.588278 1.588272,0.192873 0.192845,-1.588393 m 0.09633,-0.794168 0.192869,-1.588308 1.443687,1.38401 -3.176609,-0.385643 m 1.994845,-20.817305 -0.51224,-1.515822 -1.515699,0.512546 0.512249,1.515825 -1.515701,0.512546 -0.512235,-1.515833 m 1.25974,-1.27009 -0.512249,-1.515826 1.899957,0.624621 -3.03158,1.024513 m 6.362535,0.628236 1.396942,0.780007 -1.82766,0.812069 1.559804,-2.794106 m 0.966381,2.371907 1.397034,0.779968 -1.827747,0.812096 1.559936,-2.794031 m 10.627925,16.616164 0.187999,-1.588961 2.989831,1.964965 m -2.864019,2.077878 -0.59583,-0.0705 0.187997,-1.588952 0.99309,0.117494 0.501808,0.86494 0.689857,-0.723927 0.993076,0.117503 -0.187997,1.588953 -0.59583,-0.0705 m -14.719919,27.063839 0.544335,-0.252284 0.672802,1.451601 -0.907227,0.420532 -0.88074,-0.473522 -0.208029,0.978188 -0.907219,0.420537 -0.672807,-1.451697 0.544334,-0.252282 m 0.570826,-1.146333 -0.672808,-1.451696 1.956219,0.415883 -2.903225,1.345731 m 12.33435,18.622206 2.238495,0.32993 -2.568428,1.90871 m -0.147287,-2.88069 -0.954339,-1.28429 1.999943,0.009 -2.568419,1.90872 m 7.827626,-33.341966 2.232312,-0.369572 0.931054,-1.301116 -1.301141,-0.931115 -0.931087,1.301166 1.301199,0.931156 m 1.369232,2.210224 -0.349091,0.488066 -1.301141,-0.931115 0.582003,-0.813117 0.999772,-0.02216 -0.301226,-0.953603 0.582041,-0.813176 1.301144,0.931113 -0.34905,0.487998 m 51.17525,-26.689784 -0.53634,-1.507396 -1.50745,0.536331 0.53642,1.507512 -1.50746,0.536325 -0.53633,-1.507494 m 1.64495,-3.132746 0.56529,-0.201131 0.53641,1.507509 -0.94217,0.335201 -0.83345,-0.552564 -0.29711,0.954815 -0.94208,0.335225 -0.53633,-1.507403 0.56518,-0.201139 m 11.64953,-7.273403 1.45802,0.658987 -1.75248,0.9638 1.31794,-2.916093 m 1.16356,2.281771 1.45789,0.659042 -1.75235,0.963722 1.3179,-2.916001 m 14.08276,16.960136 -2.77042,1.601557 -0.80077,-1.385201 2.77042,-1.601554 0.80077,1.385198 m -0.98482,1.493368 0.80076,1.385201 -1.98577,-0.238068 2.77033,-1.60158 m -2.61092,8.860424 -1.29546,0.939103 -0.93896,-1.295503 1.29536,-0.939021 1.87802,2.590927 -1.29541,0.939066 m -3.46908,-0.696638 -0.35218,-0.485802 1.29546,-0.938984 0.58695,0.809582 -0.2956,0.955406 0.9998,0.01622 0.58691,0.809696 -1.29547,0.938985 -0.35209,-0.485695 m -51.63654,-14.546952 -1.58959,-0.182341 1.95425,-2.996891 m 2.088,2.856565 -0.0683,0.596188 -1.58948,-0.182371 0.11396,-0.993519 0.86312,-0.504909 -0.72636,-0.687278 0.11395,-0.993523 1.58949,0.182372 -0.0684,0.596094 m -13.36742,6.778095 -0.89969,-2.076193 -1.48788,-0.588299 -0.58826,1.48802 1.48786,0.588211 0.58832,-1.487912 m 1.81231,-1.864219 0.55795,0.220602 -0.5882,1.487891 -0.92994,-0.367697 -0.26383,-0.964506 -0.85215,0.523329 -0.92991,-0.367609 0.58825,-1.48802 0.55794,0.220611 m 32.40521,4.292918 1.53556,0.449484 0.44951,-1.535508 -1.53551,-0.449614 0.44952,-1.535507 1.53556,0.449484 m 1.57273,3.169638 -0.16857,0.5758 -1.53556,-0.449485 0.28098,-0.959693 0.93629,-0.35112 -0.59918,-0.800639 0.28099,-0.959693 1.5356,0.449579 -0.16859,0.575862 m -35.97643,11.950446 0.56528,-0.201191 0.53587,1.507637 -0.94233,0.334695 -0.83322,-0.552945 -0.29752,0.954764 -0.94234,0.334691 -0.53587,-1.507637 0.56526,-0.201195 m 1.08086,-2.931159 0.56527,-0.201196 0.53588,1.507641 -0.94234,0.334692 -0.83321,-0.552942 -0.29752,0.954765 -0.94234,0.33469 -0.53587,-1.507637 0.56526,-0.201195 m 10.34759,4.018851 -0.26321,-0.755466 1.5109,-0.526442 0.52643,1.51093 -1.51089,0.526446 0.52643,1.510929 1.51089,-0.526447 m -4.63269,-1.139152 -0.19741,-0.566596 1.51089,-0.526446 0.32903,0.944334 -0.55804,0.82982 0.95285,0.303374 0.32903,0.944334 -1.5109,0.526443 -0.19741,-0.5666 m -59.837562,-32.947875 1.562017,-0.346555 0.346547,1.562052 -1.562017,0.346555 -0.693094,-3.124105 1.562017,-0.346555 m 2.862846,1.823246 0.173274,0.781026 -1.562017,0.346556 -0.346547,-1.562053 1.562016,-0.346555 -0.346647,-1.562049 -1.561917,0.346552 m 9.636269,6.553501 -1.806745,-1.362259 3.168972,-0.444527 m -2.01904,4.3224 -0.594212,0.08341 -0.22231,-1.584571 0.990323,-0.138909 0.705319,0.708931 0.483008,-0.87564 0.990323,-0.138909 0.222307,1.58447 -0.594212,0.08341 m -29.817997,3.229252 1.069981,-1.189635 1.189604,1.069905 -1.069881,1.189632 -2.379309,-2.139807 1.069881,-1.189631 m 0.834018,82.162456 -0.74285,0.41017 -0.76864,-0.22173 0.332586,-1.15303 0.768644,0.22183 0.41026,0.74276 0.605995,-0.65779 1.345195,0.38803 -0.443551,1.53731 -1.345095,-0.38803 -0.162544,-0.87952 m -1.463558,2.90834 -0.76864,-0.22173 0.443551,-1.53732 1.53728,0.44346 -0.443551,1.53732 1.537283,0.44356 0.443548,-1.53742 m 23.675716,-79.932943 0.687963,2.155657 1.421685,0.733843 0.733923,-1.421821 -1.421786,-0.733839 -0.733822,1.421817 m -1.811679,1.765758 -0.710894,-0.366969 0.733823,-1.421818 1.421788,0.73394 -0.733826,1.421717 1.421785,0.73384 0.733826,-1.421718 m -49.536379,64.390546 0.789013,-1.39198 -1.391849,-0.78904 -0.789017,1.39188 -1.39195,-0.78903 0.789117,-1.39188 m 2.575422,-1.298842 0.602834,2.180912 -2.7838,-1.578062 m 15.662741,-48.90527 0.770168,0.216378 -0.432847,1.540375 -1.540237,-0.43276 0.432748,-1.540372 -1.54034,-0.432857 -0.432747,1.540372 m 2.622307,-3.418075 1.107489,1.973132 -3.080675,-0.865614 m 15.554415,49.744741 -0.526828,-0.28716 0.765787,-1.40484 0.878077,0.47854 0.143884,0.98958 0.90967,-0.41525 0.87808,0.47863 -0.765786,1.404842 -0.526828,-0.28716 m -2.729108,1.24587 -0.702406,-0.38295 0.765787,-1.404842 1.404807,0.765802 -0.765686,1.40484 1.404807,0.7658 0.765783,-1.40494 m 9.458173,-41.976846 -0.752168,-0.272488 0.545068,-1.504275 1.504237,0.544981 -0.544965,1.504371 1.504336,0.544977 0.544969,-1.504271 m -3.618925,2.943262 -0.752168,-0.272489 0.544965,-1.504371 1.504337,0.544978 -0.545065,1.504374 1.504337,0.544977 0.544968,-1.504271 m -8.418192,24.593899 -1.354537,-1.81258 3.167076,0.45801 m -2.947811,3.61538 -0.791694,-0.11453 0.228952,-1.58353 1.583486,0.22896 -0.228949,1.58362 1.583486,0.22896 0.229053,-1.58352 m -26.539596,-8.58192 0.696526,-0.484607 0.787458,0.14138 -0.212022,1.181057 -0.787355,-0.14128 -0.484607,-0.69655 -0.534959,0.71673 -1.377974,-0.24729 0.28256,-1.574844 1.377973,0.2473 0.2524,0.858104 m 0.368378,-3.185054 1.292254,1.85751 -3.149624,-0.56523 m 48.153382,146.920926 -2.451842,2.05632 -1.028136,-1.22595 2.451842,-2.05632 1.028136,1.22595 m -0.450005,3.50971 -0.459659,0.38549 -1.028136,-1.22595 0.766229,-0.64253 0.973786,0.22739 -0.05435,-0.99856 0.76623,-0.64253 1.028051,1.226 -0.459659,0.38549 m -3.553841,1.99172 -1.595684,-0.11585 0.115795,-1.5958 1.595769,0.1158 -0.231676,3.19166 -1.595822,-0.11588 m -2.219875,-2.56746 0.05797,-0.79789 1.595769,0.1158 -0.11588,1.59586 -1.595737,-0.11594 -0.11588,1.59586 1.595822,0.11588 m -54.490885,-107.40629 0.518152,-0.67193 0.793382,-0.10243 0.153757,1.19009 -0.793381,0.10243 -0.671909,-0.51816 -0.294165,0.84467 -1.388514,0.17943 -0.2049995,-1.58683 1.3884295,-0.17938 0.499249,0.74211 m 34.4356,96.08915 0.987145,1.25923 -3.505466,0.71505 m -8.216217,-88.5578 -0.0727,1.59835 1.598315,0.0727 0.0727,-1.59835 1.598368,0.0728 -0.0727,1.59835 m -2.506651,2.28843 -0.799142,-0.0364 0.0727,-1.59835 1.598367,0.0728 -0.0727,1.59835 1.598315,0.0727 0.0727,-1.59835 m 23.85537,63.50162 0.04931,1.59923 -1.636274,-1.15014 3.198517,-0.0986 m -2.287964,3.67228 -0.799664,0.0246 -0.04922,-1.59928 1.59919,-0.0493 0.04928,1.59937 1.59919,-0.0493 -0.04922,-1.59928 m -51.117586,-57.20365 -1.420379,-1.76134 -1.5909111,-0.17049 -0.17048,1.59095 1.5908581,0.1704 0.170533,-1.59086 m 14.156296,51.86313 0.470269,-0.37267 0.993738,1.25394 -0.783718,0.62114 -0.967054,-0.25435 0.02665,0.99972 -0.783719,0.62114 -0.993738,-1.25393 0.470216,-0.37275 m 16.974019,-42.15311 -3.06537,0.9183 -0.459143,-1.53272 3.06537,-0.9183 0.459143,1.53272 m -1.610313,2.98781 -0.766411,0.22956 -0.459143,-1.53272 1.532685,-0.45916 0.459143,1.53272 1.53277,-0.4592 -0.459228,-1.53267 m 10.355604,19.71744 1.082739,1.17803 -1.178002,1.08276 -1.082739,-1.17803 2.356004,-2.16552 1.082739,1.17803 m 0.446148,2.84978 -2.260741,-0.0953 2.355919,-2.16547 m -41.72351,-7.14298 0.790022,-0.12592 0.251925,1.58002 -1.580046,0.25185 -0.251924,-1.58003 -1.579993,0.25193 0.251924,1.58003" />
  <path
     id="path7557"
     style="fill:none;stroke:#ff0000;stroke-width:0.200001;stroke-miterlimit:4;stroke-dasharray:none"
     d="m 127.95341,53.681745 -6.42667,2.23201 -3.84865,6.474851 -0.0742,7.775924 M 91.206677,55.314381 96.032132,48.372104 96.942811,40.538032 93.93715,32.237737 m 106.53083,29.92672 -4.15425,-6.392821 -5.02806,-2.380783 -7.57768,0.83773 m 0,0 -10.05298,1.802166 -6.73841,4.413082 -5.67013,8.494854 m 29.3386,20.435163 7.21863,-8.15762 2.96495,-8.162821 -0.30067,-10.88895 m -39.22151,6.774228 -5.62502,5.20033 -1.52197,5.389273 2.07373,7.37471 m 0,0 -0.50718,7.53832 2.58932,4.84559 6.5486,3.767892 m 15.19816,3.41399 7.10499,-3.87765 3.17486,-5.128482 0.30311,-8.08881 m -12.2799,34.547462 4.57513,-5.72133 0.50905,-5.23568 -3.38724,-6.49551 m -24.23475,11.78573 -5.84206,4.49158 -1.52286,4.55221 1.89387,7.0046 m 14.50774,-31.2481 -6.60101,3.27577 -2.71095,4.55985 0.27527,7.36409 m -5.47105,16.04839 -0.57691,10.89349 2.7573,8.25046 7.01046,8.35776 m 23.66123,-20.36761 2.1601,-7.19655 -1.45288,-5.25467 -5.55044,-5.06448 m 5.99072,29.51859 3.58017,-4.58169 -0.34421,-3.60091 -4.38346,-3.82029 m -27.38103,-23.18249 -5.47105,16.04839 m -0.71385,81.42147 -9.44778,2.30417 -5.98762,4.67693 -4.52336,8.60888 m 12.61041,13.59644 12.08386,1.69862 9.69556,-1.90802 10.53916,-6.15082 m 0,0 7.33937,-3.49644 3.48434,-4.96611 0.79064,-8.0913 m -22.50431,-17.10977 -7.36781,0.62323 -4.2241,3.25127 -2.48836,6.96292 m 36.58458,6.27235 5.00504,1.94161 2.73551,-1.39165 1.37772,-5.18883 m -37.7532,-28.39205 -1.587,7.0098 1.83916,4.77639 5.87846,4.13496 m 16.75896,-13.37137 -7.56851,-4.86789 -6.8669,-0.76493 -8.45417,3.08304 m 34.9383,-17.39929 0.78523,-7.98871 -2.4524,-5.43803 -6.50737,-4.69987 m 10.98944,63.91795 4.90869,-3.742 0.85736,-3.93697 -2.90788,-5.44443 m -38.65315,-42.4206 4.05631,12.69987 6.27947,8.91047 10.59558,8.09139 m 17.72179,12.71887 1.95537,-12.11818 -1.70188,-9.8004 -5.92656,-10.74936 m -62.84671,59.74784 12.61041,13.59644 M 61.006352,82.713938 l 2.504223,9.71569 4.849933,6.21934 8.812555,4.796002 M 88.600449,96.856668 61.006351,82.713938 m 21.46632,118.981732 -15.985662,10.11366 m 0,0 21.609801,14.97147 M 103.61727,114.55174 88.600449,96.856668 m -8.778143,88.197692 2.650365,16.64131 m 17.549589,-5.50409 -20.199954,-11.13722 m 8.274504,41.72644 21.70004,2.47836 M 77.173062,103.44497 86.9633,125.85396 m 22.83355,103.4052 17.0924,5.25453 m -8.58381,-111.80829 -14.68817,-8.15366 m 23.27198,119.96195 -1.63932,-29.02961 M 124.1469,145.999 118.30544,122.7054 m -4.5123,65.36426 -13.77088,8.12192 m 6.87996,-62.34538 0.0592,15.32568 m 18.28851,56.3122 -5.54173,-34.4226 m 0,0 4.4387,-25.06248 m -29.830338,18.20466 19.476578,23.866 m -6.83173,-38.89778 -12.644848,15.03178 m -41.073366,-3.61759 11.139728,-2.85396 7.595292,-5.26432 6.582762,-9.42929 m -30.530604,2.43342 -1.956831,6.59414 1.563791,4.53429 5.605863,3.98572 m 25.317781,-17.54757 6.088931,5.1177 5.805904,1.00866 7.458035,-2.76435 m 0,0 6.361242,-2.07515 2.65162,-3.75605 -0.17428,-6.68906 m -38.655974,0.2152 -8.995813,0.502 -6.019902,3.41299 -5.050367,7.46148 m 20.805887,-36.24733 -7.486721,1.94485 -3.96329,4.06168 -1.761108,7.53214 m 31.250608,2.97111 -3.613361,-8.72927 -5.4118,-4.95297 -9.014328,-2.82754 m -13.211119,13.53867 1.675058,6.92668 3.741443,3.39967 7.054813,1.00584 m 34.960164,-70.296941 -1.6185,-5.972966 -3.85505,-2.798583 -6.376393,0.287421 m 26.397233,14.850149 -3.48802,-5.892705 -4.3642,-1.909777 -6.69507,1.436462 m 49.48224,-0.741294 15.48508,-6.905397 m -35.42657,27.956259 19.94149,-21.050862 m -39.74118,51.518774 19.79969,-30.467912 m -24.15849,7.85247 4.3588,22.615442 M 93.491162,100.18382 108.43888,91.960548 M 75.474004,36.277885 72.238501,62.93226 m -2.74062,-44.338759 5.976123,17.684384 M 93.937151,32.237737 69.497881,18.593501 m 2.74535,44.350694 10.650145,22.977893 m 0,0 10.597786,14.261732 m 54.069428,-81.703918 -0.97533,9.191025 2.39404,6.728811 6.5617,6.509233 m 17.52542,-10.901092 -7.27965,-7.679818 -7.65178,-3.458416 -10.5744,-0.389762 m 34.67087,27.382788 -9.16504,-15.854792 M 167.9144,56.240836 182.23146,45.862671 M 132.69392,34.220113 109.60821,31.571885 m 0,0 -5.35821,13.553458 m 51.291,-4.216373 -22.84708,-6.688857 m -28.44392,10.90523 5.31704,14.962786 m 0,0 18.38637,-6.406384 M 69.461481,22.531222 60.846425,20.345379 54.204774,21.818937 47.32255,27.443254 m 0,0 -7.15922,1.978816 -3.58719,3.988893 -1.210995,7.328435 m -11.385127,51.54746 -7.485537,5.09379 -3.433422,6.057032 -0.526082,9.03915 m 22.830168,-71.737432 -5.918672,6.27749 -1.772379,6.308198 1.783119,8.441572 M 70.882711,32.662759 69.46148,22.531222 M 39.774538,123.49946 44.811734,106.03857 M 64.722653,44.597731 70.882711,32.662759 M 44.811734,106.03857 50.582462,95.451568 M 53.42839,75.771661 64.722653,44.597731 M 50.582462,95.451568 53.42839,75.771661 M 38.977521,141.01611 39.77454,123.49946 m -27.24205,-11.01627 -3.2136369,6.34401 0.6457772,4.99844 4.7204267,5.31894 m 23.104328,76.33825 3.13037,10.47671 5.3814,6.86479 9.426237,5.5412 m -41.042335,-99.22095 -4.8725898,7.93122 -0.7675193,7.1635 3.0818621,8.78348 m 17.330402,-91.256122 -5.946642,9.677624 -1.858368,10.293296 2.327816,10.54928 m -7.846077,85.871142 4.44458,12.04817 6.496651,8.19749 10.714213,7.07917 m -25.662575,-52.46005 -2.5475322,9.42707 1.2021252,7.54056 5.352538,8.16759 M 78.345117,230.0076 65.3512,214.51321 m -9.623808,13.85232 22.617725,1.64207 M 65.351199,214.51321 64.336716,181.58969 m -19.589463,-21.3135 -5.769732,-19.26007 m 25.359195,40.57357 -19.589463,-21.3135" />
</svg>
