<?xml version="1.0" encoding="UTF-8" standalone="no"?>
<!-- Created by JSCAD SVG Serializer -->

<svg
   width="210mm"
   height="297mm"
   viewBox="0 0 210 297"
   fill="none"
   fill-rule="evenodd"
   stroke-width="0.1px"
   version="1.1"
   id="svg767"
   sodipodi:docname="teteRenardA4.svg"
   inkscape:version="1.1.1 (26b7af14f2, 2022-01-19)"
   xmlns:inkscape="http://www.inkscape.org/namespaces/inkscape"
   xmlns:sodipodi="http://sodipodi.sourceforge.net/DTD/sodipodi-0.dtd"
   xmlns="http://www.w3.org/2000/svg"
   xmlns:svg="http://www.w3.org/2000/svg">
  <defs
     id="defs771" />
  <sodipodi:namedview
     id="namedview769"
     pagecolor="#ffffff"
     bordercolor="#666666"
     borderopacity="1.0"
     inkscape:pageshadow="2"
     inkscape:pageopacity="0.0"
     inkscape:pagecheckerboard="0"
     inkscape:document-units="mm"
     showgrid="false"
     inkscape:snap-global="true"
     inkscape:zoom="1.1477877"
     inkscape:cx="399.46412"
     inkscape:cy="574.58361"
     inkscape:window-width="1080"
     inkscape:window-height="1856"
     inkscape:window-x="0"
     inkscape:window-y="27"
     inkscape:window-maximized="1"
     inkscape:current-layer="svg767" />
  <path
     id="1644004993020"
     style="font-variation-settings:normal;opacity:1;vector-effect:none;fill:none;fill-opacity:1;stroke:#008000;stroke-width:0.3;stroke-linecap:butt;stroke-linejoin:miter;stroke-miterlimit:4;stroke-dasharray:2.4, 0.6, 0.3, 0.6;stroke-dashoffset:0;stroke-opacity:1;-inkscape-stroke:none;stop-color:#000000;stop-opacity:1"
     d="M 71.757581,114.28569 87.350428,97.275706 m 0,0 9.043321,-15.084607 M 87.350428,97.275706 86.834179,82.760694 m 0.515689,14.514474 7.315344,11.392102 M 127.04906,94.266009 115.54133,110.99334 m 21.44331,41.01049 -12.01249,5.05476 m 32.93473,29.28842 -17.64564,11.31458 m 17.23345,0.32488 0.41219,-11.63946 m -0.20902,30.27077 -17.43662,-18.95619 m -79.145907,18.98628 0.534554,21.28609 M 182.86843,221.36119 165.7806,207.08965 M 24.881555,49.267363 18.902724,42.544384 m 5.978831,6.722979 19.36518,18.277034 M 39.902414,43.074942 24.881555,49.267363 M 56.782977,60.566144 80.233192,46.743772 M 39.902414,43.074942 56.782977,60.566144 M 51.983815,33.459338 39.902414,43.074942 M 41.657665,113.47074 39.76413,97.254257 M 17.955879,122.62756 41.657665,113.47074 M 22.927128,87.014179 39.76413,97.254257 M 44.248246,67.546951 22.927128,87.014179 M 89.278787,24.767375 83.912857,46.252849 M 128.1229,66.855821 111.80159,73.825083 M 13.06716,236.74486 28.023863,217.35114 m 0,0 12.964561,-7.3663 m -29.605603,-30.67192 31.50237,6.29855 M 27.476072,152.81608 38.401169,170.83574 M 201.13995,89.767045 190.26851,82.580238 m 0,0 5.54414,-24.444241 m -25.23045,23.596248 19.68631,0.847993 M 155.0802,41.571499 160.38806,30.795823 m -19.46106,52.187693 10.19326,9.482107 m 0,0 15.10027,9.333767 m 31.69437,-1.6752 -27.33277,-18.392101 m 27.33277,18.392101 -31.69437,1.6752 m 28.02749,38.73145 -16.49163,-24.62194 m -2.47392,25.73881 -11.20382,29.89261 m 30.16937,-31.00948 -18.96555,1.11687 M 70.785047,209.32693 115.38709,152.60005 m -44.602043,56.72688 -6.379035,-69.76617 m 6.379035,69.76617 -21.230156,-56.93766 m 21.230156,56.93766 -26.275643,-24.97664 m 159.760566,69.76163 -21.15479,-8.53547 m -54.19034,11.15578 -24.6313,-2.96028 m -47.255502,-1.39445 -23.874877,7.97781" />
  <path
     id="path12146"
     style="font-variation-settings:normal;opacity:1;vector-effect:none;fill:none;fill-opacity:1;stroke:#800000;stroke-width:0.2;stroke-linecap:butt;stroke-linejoin:miter;stroke-miterlimit:4;stroke-dasharray:2.4, 2.4;stroke-dashoffset:0;stroke-opacity:1;-inkscape-stroke:none;stop-color:#000000;stop-opacity:1"
     d="m 203.59601,223.7714 -9.0411,-9.97598 M 58.374626,136.1254 71.757581,114.28569 m -27.89443,8.48612 27.89443,-8.48612 M 55.123099,91.98237 43.863151,122.77181 M 55.123099,91.98237 71.757581,114.28569 M 55.123099,91.98237 87.350428,97.275706 M 62.559382,78.077051 55.123099,91.98237 M 87.350428,97.275706 62.559382,78.077051 M 86.834179,82.760694 62.556962,78.08008 M 114.68002,93.66521 96.400125,82.194695 m -9.050257,15.080473 28.191462,13.718172 m -0.86131,-17.32813 -27.330152,3.609958 m 27.330152,-3.609958 0.86131,17.32813 m 15.82222,-0.76948 -15.82222,0.76948 m 15.82222,-0.76948 -6.99926,10.88141 m 12.04696,-5.72955 -12.04696,5.72955 m 12.04696,-5.72955 -11.4391,41.68287 m 12.01249,-5.05476 -13.60268,15.4061 m 23.18802,-5.36209 -23.18803,5.36206 m 23.18803,-5.36206 -17.07986,14.51804 m 28.41676,9.78113 -28.41676,-9.78113 m 28.00457,21.42059 -17.23345,-0.32488 m 17.43662,18.95619 -20.80598,-4.43077 m 21.7083,29.37999 -0.90232,-24.94922 m -20.80598,-4.43077 -2.2805,30.22999 m 23.9888,-0.85 -21.7083,-29.37999 m -2.42774,30.21817 -7.76158,-7.94779 m -16.15288,15.80811 16.15288,-15.80811 M 110.54968,250.2655 99.734962,230.75054 M 86.24817,245.07602 99.734962,230.75054 m -54.90275,-15.29698 16.817675,22.4804 m 24.598283,7.14206 4.790724,-25.73751 M 86.24817,245.07602 61.115333,216.64787 m 121.753097,4.71332 2.1091,-35.5509 m -2.1091,35.5509 -9.30054,-27.22967 m 30.02812,29.63988 -20.72758,-2.41021 m -2.34817,11.52025 2.34817,-11.52025 m -2.34817,11.52025 -14.73966,-25.79179 m 14.73966,25.79179 -22.8224,-16.26366 M 17.759262,66.203251 21.284531,76.630016 M 18.902724,42.544384 17.759262,66.203251 m 0,0 26.487473,1.341146 M 24.881555,49.267363 17.759262,66.203251 m 26.487473,1.341146 12.536242,-6.978253 M 39.902414,43.074942 44.246735,67.544397 M 80.233192,46.743772 64.032294,40.254615 m 0,0 -12.048479,-6.795277 m 4.799162,27.106806 7.249317,-20.311529 m -12.048479,-6.795277 4.799162,27.106806 m -27.774619,69.673596 12.649307,-16.769 m -23.701786,9.15682 11.052479,7.61218 M 17.955879,122.62756 39.76413,97.254257 M 22.927128,87.014179 17.955879,122.62756 m 3.344462,-45.95907 1.626787,10.345689 M 44.248246,67.546951 21.300341,76.66849 M 39.76413,97.254257 44.248246,67.546951 M 102.27927,36.85547 83.912857,46.252849 M 102.27927,36.85547 100.7245,59.891661 M 119.63031,42.432588 100.7245,59.891661 m 27.3984,6.96416 -27.3984,-6.96416 M 141.3181,95.92469 111.80159,73.825083 M 10.21371,215.62779 l 2.85345,21.11707 m -2.904954,-49.53478 0.0515,28.41771 m 4e-6,0 17.810153,1.72335 m -17.861657,-30.14106 17.861657,30.14106 m -17.861657,-30.14106 30.826218,22.77476 m -29.605603,-30.67192 -1.220615,7.89716 m 0,0 34.480655,14.55346 m -33.26004,-22.45062 33.26004,22.45062 m -6.241573,-30.92773 -27.018467,8.47711 m 16.093251,-26.49684 -16.108088,26.44963 m 16.108088,-26.44963 16.906586,5.54724 M 200.55535,45.103008 172.30966,30.410605 m 23.24128,20.268936 -23.24128,-20.268936 m -11.9216,0.38522 11.9216,-0.38522 m 25.62067,69.690795 3.20962,-10.334355 M 197.93033,100.1014 190.26851,82.580238 M 170.5822,81.732245 195.81265,58.135997 m -18.30669,1.912376 -6.92376,21.683872 m 25.23045,-23.596248 -0.24344,-7.488704 m -18.06325,9.40108 18.30669,-1.912376 m -18.30669,1.912376 18.06325,-9.40108 m -27.85228,-0.777045 9.78903,10.178125 m 18.06325,-9.40108 -35.18115,-19.85147 m 7.32887,19.074425 27.85228,0.777045 m -27.85228,-0.777045 -7.32887,-19.074425 m -5.30786,10.775676 12.63673,8.298749 m -24.56889,-12.005997 11.93216,3.707248 m 5.30786,-10.775676 -17.24002,7.068428 m 27.43409,43.867838 -29.65513,1.251427 m 29.65513,-1.251427 -19.46187,10.733534 m 19.46187,-10.733534 -4.3616,20.067301 m 0,0 11.53586,14.10951 m 19.24209,11.01332 0.91642,-26.79803 m 0,0 -20.15851,15.78471 m 16.49163,24.62194 2.75046,-13.60862 m 0,0 -19.24209,-11.01332 m 0,0 -2.47392,25.73881 m -11.20382,29.89261 12.35546,0.83428 m 14.44573,4.6337 3.36818,-36.47746 m -18.96555,1.11687 1.15164,30.72689 m 14.44573,4.6337 -15.59737,-35.36059 m 13.11714,42.13326 2.48023,-6.77267 m -14.44573,-4.6337 11.9655,11.40637 m 2.48023,-6.77267 -14.44573,-4.6337 m -59.24868,35.97421 7.89488,-15.98783 m -22.05723,22.92243 22.05723,-22.92243 m -54.295263,16.96595 54.295263,-16.96595 m -9.69322,-39.76093 -50.981078,-13.03929 m 139.863958,114.55116 -1.90685,-9.3844 m 0,0 -19.24794,0.84893 m 8.16566,33.03244 12.98913,-24.49697 m -21.15479,-8.53547 -17.6965,1.91471 m 25.86216,31.11773 -8.16566,-33.03244 m 8.16566,33.03244 -25.86216,-31.11773 m -14.60448,25.0093 40.46664,6.10843 m -25.86216,-31.11773 -19.70481,8.96366 m 5.10033,16.04564 14.60448,-25.0093 m -19.70481,8.96366 -16.78903,0.27741 m 21.88936,15.76823 -5.10033,-16.04564 m 5.10033,16.04564 -21.88936,-15.76823 m -6.00808,11.29811 27.89744,4.47012 m -27.89744,-4.47012 6.00808,-11.29811 m -6.00808,11.29811 -18.62322,-14.25839 m -10.551988,12.01724 29.175208,2.24115 m -18.62322,-14.25839 -23.502986,2.0674 m 12.950998,9.94984 10.551988,-12.01724 m -10.551988,12.01724 -12.950998,-9.94984 m -6.66522,10.51709 19.616218,-0.56725 M 80.790554,255.83935 57.038038,252.3775 m 17.087296,13.97894 6.66522,-10.51709 m -6.66522,10.51709 -17.087296,-13.97894 m -15.035095,17.86259 32.122391,-3.88365 M 42.002943,270.24009 57.038038,252.3775 M 5.3857994,278.46909 23.701103,274.1714 m -15.3485436,-15.19793 -2.96676,19.49562 m 18.3153036,-4.29769 18.30184,-3.93131 m 0,0 -8.839782,-9.88478 M 8.3525594,258.97347 23.701103,274.1714 m 9.462058,-13.81609 -24.8106016,-1.38184 m 15.3485436,15.19793 9.462058,-13.81609" />
  <path
     id="1644004992534-3"
     style="font-variation-settings:normal;opacity:1;vector-effect:none;fill:none;fill-opacity:1;stroke:#ff0000;stroke-width:0.3;stroke-linecap:butt;stroke-linejoin:miter;stroke-miterlimit:4;stroke-dasharray:none;stroke-dashoffset:0;stroke-opacity:1;-inkscape-stroke:none;stop-color:#000000;stop-opacity:1"
     d="m 62.556962,78.08008 -6.014337,3.663811 -1.938415,3.569208 c 0.221734,1.917871 0.1342,9.886143 0.665203,5.753613 M 203.59601,223.7714 l -0.81331,-5.90026 -2.50818,-2.7406 -5.71961,-1.33512 M 58.374626,136.1254 l 7.523835,-5.90379 4.014915,-6.55192 1.844205,-9.384 m -16.634482,-22.30332 -7.068924,9.63248 -3.377979,9.2368 -0.813045,11.92016 m 27.89443,-8.48612 7.912595,-3.70295 4.677874,-5.10309 3.002378,-8.203944 M 43.863151,122.77181 58.374626,136.1254 M 69.060802,61.477991 62.556962,78.08008 M 86.834179,82.760694 69.060802,61.477991 m 27.332947,20.713108 -9.55957,0.569595 m 0.515689,14.514474 -0.242199,5.786782 2.194655,3.41763 5.362888,2.18769 m 20.014808,-15.00206 -4.62768,-6.835766 -5.48395,-3.44118 -8.168265,-1.193569 m 61.094565,115.791775 3.47278,-3.9559 0.12367,-3.49184 -3.18426,-4.19172 m -63.241668,-77.67974 20.876118,2.32607 M 127.04906,94.266009 114.68002,93.66521 m 16.68353,16.55865 -4.31449,-15.957851 m -11.50773,16.727331 8.82296,10.11193 m 12.04696,-5.72955 -5.0477,-5.15186 m -6.99926,10.88141 0.60786,35.95332 m 12.01249,-5.05476 -0.57339,-36.62811 m -11.4391,41.68287 -1.59019,10.35134 m 23.18802,-5.36209 -9.58534,-10.04401 m -13.60268,15.4061 6.10816,9.15595 m 28.41676,9.78113 -11.3369,-24.29917 m -17.07986,14.51804 10.77112,21.09571 m 17.43662,18.95619 -0.20317,-18.63131 m -17.23345,-0.32488 -3.36936,14.52542 m -2.2805,30.22999 23.9888,-0.85 m -21.70828,-29.38032 -10.18934,22.27071 m -16.15288,15.80811 23.91446,-7.86032 m -7.76158,-7.94779 -26.967598,-3.70685 m -13.486792,14.32548 24.30151,5.18948 m -69.884151,-21.9303 20.984358,9.59876 m -16.817675,-22.4804 -4.166683,12.88164 m 59.069433,2.41534 -8.696068,-11.41203 m -29.923561,-2.69064 -16.283121,-1.19431 m 46.206682,3.88495 -29.923561,-2.69064 m 0.534554,21.28609 24.598283,7.14206 m 116.82538,-45.45725 -18.09602,-13.80848 m -2.1091,35.5509 20.20512,-21.74242 m -18.09602,-13.80848 -11.40964,8.32123 m 20.98702,19.6639 -11.68648,7.56577 m -9.30054,-27.22967 -7.78729,12.95813 m 14.73966,25.79179 23.07575,-9.11004 m -37.81541,-16.68175 -8.08274,9.52813 m 0.88526,24.9499 21.93714,-8.68624 M 17.759262,66.203251 l -1.921224,4.716076 1.057514,3.127983 4.388979,2.582706 m 3.597024,-27.362653 0.396182,-4.566262 -1.793661,-2.016961 -4.581352,-0.139756 m 0,0 -3.726847,8.119724 -0.343063,7.097665 2.926448,8.441478 m 22.143152,-23.128309 -6.526747,-0.911795 -4.506238,1.85774 -3.987874,5.246476 m 19.36518,18.277034 6.007568,0.467689 3.760893,-2.093455 2.767781,-5.352487 m 23.450215,-13.822372 -4.431956,-5.362983 -4.860252,-1.946691 -6.90869,0.820517 m -7.249317,20.311529 9.898858,-1.968648 7.035091,-4.146665 6.516266,-7.707059 m -28.249377,-13.284434 -6.302546,0.759551 -3.624457,2.884612 -2.154398,5.971441 m 24.12988,-2.820327 -2.580867,-5.279297 -3.614488,-2.03861 -5.853124,0.52263 m -22.975457,96.780402 7.086182,-3.86347 3.794762,-5.03067 1.768363,-7.87486 m -23.701786,9.15682 1.979251,5.40718 3.315661,2.28364 5.757567,-0.0786 m 12.649307,-16.76904 2.645366,-6.06193 -0.56806,-4.86494 -3.970841,-5.289613 M 22.927128,87.014179 17.888601,99.01837 l -1.491339,10.68399 1.558617,12.9252 m 3.344462,-45.95907 -2.720745,4.138223 0.48807,3.103756 3.859462,3.10371 M 39.944924,97.282868 44.807649,87.382453 46.152885,78.470238 44.42904,67.575561 M 77.261968,30.791132 83.928853,46.202387 M 77.261968,30.791132 89.274685,24.71182 M 102.27927,36.85547 89.278787,24.767375 M 83.912857,46.252849 100.7245,59.891661 M 119.63031,42.432588 102.27927,36.85547 M 128.1229,66.855821 119.63031,42.432588 M 100.7245,59.891661 111.80161,73.825067 M 141.3181,95.92469 128.1229,66.855821 m -7.84587,24.271802 21.04107,4.797067 m -29.51651,-22.099607 8.47544,17.30254 M 10.21371,215.62779 l -2.3018063,7.83697 0.856064,6.33511 4.2991923,6.94499 m 0,0 7.87214,-4.7538 4.487027,-5.81816 2.597536,-8.82176 m -17.861657,-30.14106 -3.3124819,9.95225 0.015423,8.5253 3.3485639,9.94016 m 17.810152,1.72335 6.182884,0.31762 3.889395,-2.20991 2.892282,-5.47401 m -29.605603,-30.67192 -3.6869536,1.72587 -0.4917019,3.29247 2.9580405,2.87882 m 30.826218,22.77476 3.654437,-8.2213 m 0,0 -1.75767,-16.15207 m 0,0 -4.483903,-14.77566 m -31.3697723,1.71803 4.3364683,6.71187 M 27.476072,152.81608 7.0315157,172.55384 m 31.3696533,-1.7181 5.981489,-12.47242 m 0.778162,-17.43483 -17.684748,11.88759 m 16.906586,5.54724 0.778162,-17.43483 m 139.35413,-115.086205 -12.20529,4.56832 m 28.24569,14.692403 -16.0404,-19.260723 m 11.03599,24.837256 5.00441,-5.576533 m -28.24569,-14.692403 -5.49053,-9.325029 m 0,0 -6.43107,9.710249 m 37.54227,69.305575 4.30415,-2.629239 0.96284,-3.100348 -2.05737,-4.604768 m 0,0 -1.96827,-5.293663 -3.26139,-2.156084 -5.64178,0.26294 m 0,0 5.18855,-7.818875 1.6632,-7.333214 -1.30761,-9.292152 m -18.30669,1.912376 -5.59608,6.576292 -2.07712,6.505156 0.74944,8.602424 m 25.23045,-23.596248 3.24362,-2.729287 -0.073,-2.246551 -3.41405,-2.512866 m -27.85229,-0.777045 1.02562,5.871013 2.93671,3.053426 5.8267,1.253691 m -22.42576,-18.476879 2.5945,5.688436 3.79109,2.489657 6.25114,0.120656 m -24.56889,-12.005997 3.18805,4.478013 3.57963,1.112259 5.16448,-1.883024 m 5.30786,-10.775676 -7.29752,-0.607652 -5.17196,2.120569 -4.77054,5.555511 m -2.22104,45.119265 1.29914,5.757292 3.05796,2.84462 5.83616,0.880195 m 19.46187,-10.733534 -10.51972,-2.889504 -8.89661,0.375401 -10.2388,3.76553 m 10.19326,9.482107 3.5339,6.099784 4.53009,2.800133 7.03628,0.43385 m 0,0 1.45907,7.04642 3.4607,4.23278 6.61609,2.83031 m 19.24209,11.01332 3.64943,-9.26553 0.27491,-8.03941 -3.00792,-9.49309 m -3.66688,40.40665 4.22732,-4.10324 0.82509,-4.08258 -2.30195,-5.4228 m -19.24209,-11.01332 -4.18123,8.68992 -0.74214,7.72165 2.44945,9.32724 m -11.20382,29.89261 4.10005,3.61495 3.7067,0.2503 4.54871,-3.03097 m -1.15164,-30.72689 -7.04006,9.2936 -3.3611,8.96777 -0.80266,11.63124 m 26.80119,5.46798 4.49536,-12.46088 1.01043,-10.94324 -2.13761,-13.07334 m -5.84841,43.25013 3.82761,-0.71682 1.13425,-3.12683 -2.48163,-2.92902 m -14.44573,-4.6337 1.88981,6.40286 3.58967,3.42186 6.48602,1.58165 m -71.21418,24.56784 5.74947,-4.12113 2.36843,-4.79631 -0.22302,-7.07039 m -22.05723,22.92243 14.16235,-6.9346 m -46.400383,0.97812 32.238033,5.95648 M 115.38709,152.60005 93.305578,134.9744 m 0,0 -28.899566,4.58636 m 60.674298,52.80022 -9.69322,-39.76093 M 64.406012,139.56076 49.554891,152.38927 m 0,0 -5.045487,31.96102 m 0,0 9.755369,15.9766 m 0,0 16.520274,9.00004 m 133.484923,44.78499 2.59644,-3.94769 -0.57203,-2.81531 -3.93126,-2.6214 m 0,0 -6.88353,-3.03009 -5.77435,0.25472 -6.59006,3.6243 m 8.16566,33.03244 7.48867,-7.01382 3.89676,-7.34909 1.6037,-10.13406 m -21.15479,-8.53547 -6.55198,-2.64097 -5.30897,0.57443 -5.83555,3.98125 m -14.60448,25.0093 13.6662,5.43102 12.13998,1.83258 14.66046,-1.15517 m -25.86216,-31.11773 -8.27582,0.10581 -5.91141,2.68908 -5.51758,6.16877 m 0,0 -5.93125,-3.23289 -5.03668,0.0833 -5.8211,3.42704 m -6.00808,11.29807 9.23713,4.853 8.36928,1.34104 10.29103,-1.72392 m -21.88936,-15.76823 -8.22358,-4.34277 -7.38939,-0.88806 -9.01833,2.27055 m -10.551988,12.01724 9.956208,4.10511 8.75259,0.67229 10.46641,-2.53625 m -18.62322,-14.25839 -8.517892,-2.59404 -7.050889,0.62024 -7.934205,4.0412 m -6.66522,10.51709 6.961981,3.13053 5.884851,-0.17015 6.769386,-3.52763 m -12.950998,-9.94984 -7.833096,-4.50726 -7.125663,-1.03854 -8.793757,2.08395 m -15.035095,17.86259 11.642636,1.9471 9.636728,-1.16507 10.843027,-4.66568 m -17.087296,-13.97894 -9.411703,-0.36651 -7.162507,2.39337 -7.300667,5.95095 m -27.7773616,18.11378 7.1711816,1.73818 5.494612,-1.28932 5.64951,-4.74655 m -15.3485436,-15.19793 -4.3309707,6.32243 -0.8900549,5.8486 2.2542656,7.32459 m 18.3153036,-4.29769 7.105159,1.88026 5.490493,-1.17943 5.706188,-4.63214 m -8.839782,-9.88478 -8.498488,-3.80889 -7.443197,-0.41456 -8.8689166,2.84161" />
  <path
     id="6_0-6-0-0-6"
     style="font-variation-settings:normal;vector-effect:none;fill:none;fill-opacity:1;stroke:#0000ff;stroke-width:0.4;stroke-linecap:butt;stroke-linejoin:miter;stroke-miterlimit:4;stroke-dasharray:none;stroke-dashoffset:0;stroke-opacity:1;-inkscape-stroke:none;stop-color:#000000"
     d="m 170.74769,270.51679 -2.10266,1.89383 -0.23868,2.09208 1.86396,0.19813 0.23862,-2.09206 -1.8639,-0.19815 m 4.55992,-1.37674 -1.78498,-0.27614 -0.26749,2.09501 1.78506,0.27605 -0.26741,2.0951 -1.78505,-0.27605 m -55.88164,-100.39347 2.54579,1.23561 2.02816,-0.566 -0.51775,-1.80154 -2.02811,0.56604 0.5177,1.8015 m -2.99124,-3.70686 0.41575,1.75771 2.04171,-0.5404 -0.41586,-1.75776 2.04176,-0.54051 0.41586,1.75775 m -37.354784,-30.84724 1.78856,-0.25193 -0.349399,-2.08294 -1.788603,0.25206 -0.3504,-2.08282 1.788595,-0.25205 m -2.938534,2.90094 0.692881,0.69649 0.198674,1.04777 -1.087359,0.17858 -0.198751,-1.04766 0.394573,-0.87524 -0.914906,-0.38977 -0.347942,-1.8334 1.630982,-0.26806 0.348063,1.83347 -0.716151,0.65778 m 19.118906,6.05914 2.776095,-0.54878 1.27703,-1.6742 -1.4991,-1.12531 -1.27698,1.67421 1.49905,1.1253 m -0.76809,2.1055 1.3913,1.15183 1.30328,-1.66196 -1.39144,-1.15176 1.30322,-1.66209 1.39143,1.15177 m -52.788244,-36.47206 0.944581,-0.26963 1.012988,0.33295 -0.369928,1.03845 -1.012993,-0.33279 -0.574648,-0.76898 -0.783934,0.61242 -1.772604,-0.58254 0.555043,-1.55787 1.772429,0.58263 0.229032,0.94545 m 2.020751,-2.79699 0.739423,0.2627 -0.525704,1.46906 -1.319808,-0.19317 -0.476522,-0.9972 -1.002148,0.47177 -1.144693,-0.68279 0.525725,-1.46888 0.739324,0.26262 m 37.805992,103.15156 -0.416548,-0.88962 0.167473,-1.05307 1.084093,0.19992 -0.167311,1.05305 -0.667707,0.68972 0.729393,0.67646 -0.292975,1.84273 -1.626348,-0.3 0.293083,-1.84257 0.896941,-0.3766 m -3.082975,-1.54979 0.141655,-0.77181 1.534009,0.28517 0.01936,1.33373 -0.908629,0.62917 0.625266,0.91428 -0.491885,1.23878 -1.533833,-0.28522 0.141593,-0.7717 m -23.50483,-122.497967 0.713488,0.368126 -0.747792,1.424519 -1.313837,-0.376053 -0.339528,-1.080271 -1.08744,0.344099 -1.064594,-0.850861 0.747764,-1.424524 0.713562,0.368024 m 3.423739,-0.982764 0.713488,0.368126 -0.747792,1.424519 -1.313837,-0.376053 -0.339528,-1.080271 -1.08744,0.344099 -1.064594,-0.85086 0.747764,-1.424524 0.713562,0.368023 m 47.877108,122.967143 -0.36719,-0.71397 1.43591,-0.72568 0.85139,1.06898 -0.35075,1.07668 1.08517,0.35119 0.37279,1.31086 -1.43589,0.7257 -0.36731,-0.71393 m -3.35818,-1.18762 -0.36719,-0.71397 1.43591,-0.72568 0.85139,1.06898 -0.35075,1.07668 1.08517,0.35119 0.37279,1.31086 -1.43589,0.7257 -0.36731,-0.71393 m -44.749618,-84.61431 -3.633037,-2.22315 0.973902,-1.58726 3.633049,2.22312 -0.973914,1.58729 m 12.911319,-24.20449 -1.265535,1.33426 1.577892,1.39785 1.265507,-1.33426 1.577785,1.39786 -1.265551,1.33425 m -9.542444,-34.049786 1.257878,2.507993 -3.827969,-1.551126 m 4.671459,-0.676329 -1.257877,-2.507992 -1.913986,-0.77563 -0.655976,1.732492 1.913858,0.775634 0.656104,-1.732496 m 6.904847,2.424049 -3.222594,2.702288 -1.177383,-1.415726 3.222594,-2.702287 1.177383,1.415725 m -2.714573,3.345469 2.788743,0.06451 1.61136,-1.351212 -1.177514,-1.415721 -1.611229,1.351207 1.177383,1.415726 m 11.583612,10.354834 1.833867,-0.109311 0.124831,2.095071 -1.833871,0.10918 -0.249659,-4.190012 1.833871,-0.10918 m 0.889698,4.13507 1.833866,-0.109311 -0.124827,-2.094941 -1.833871,0.10918 -0.124958,-2.094936 1.833871,-0.10918 m 12.379937,21.310548 1.82052,0.2033 -2.28424,3.96721 m -0.0564,-4.22864 -1.82052,-0.2033 -0.23191,2.0853 1.82051,0.2033 -0.23173,2.08532 -1.82069,-0.20332 m -7.595735,-4.76842 -1.069687,-1.61354 2.66802,-0.0316 -3.569873,2.22022 m 10.487315,-12.676592 -0.41786,0.666683 -1.332,-0.836575 0.47454,-1.250536 1.08389,-0.248251 -0.24809,-1.085009 0.91852,-0.971555 1.33201,0.836575 -0.41786,0.666683 m 0.95176,3.387585 -0.55716,0.888753 -1.55404,-0.976026 1.11452,-1.777662 1.55394,0.976104 1.11453,-1.777661 -1.55405,-0.976027 m 13.32528,9.877822 1.80735,0.08918 0.10031,-2.098593 -1.80734,-0.08918 0.10032,-2.098594 1.80734,0.08918 m 0.52582,4.269096 1.80735,0.08918 0.10032,-2.098594 -1.80735,-0.08918 0.10032,-2.098594 1.80735,0.08918 m 2.78566,5.642798 0.50584,1.76772 -2.49938,-0.71643 4.00889,-1.0241 m -3.91019,3.05363 0.50584,1.76772 2.13804,-0.54622 -0.50583,-1.76771 2.13805,-0.54622 0.50583,1.76772 m -5.08653,9.14655 0.58614,-0.51722 1.0229,1.18566 -0.80647,1.05961 -1.09755,-0.0755 -0.0748,1.11007 -1.14745,0.66439 -1.02283,-1.18555 0.58614,-0.51722 m 2.08943,-2.78675 -1.19335,-1.38321 -1.56305,1.37928 1.19335,1.38321 -1.56316,1.37935 -1.19335,-1.38321 m 11.21196,1.31156 -0.74115,0.72516 -1.27077,-1.29519 1.48222,-1.45041 1.27077,1.29518 1.4823,-1.4503 -1.50472,-1.49178 m -0.99264,4.87638 1.27074,1.29537 1.48222,-1.45041 -1.27066,-1.29526 1.4823,-1.45031 1.27066,1.29526 m -7.30416,21.18115 2.21816,1.80286 -4.37176,0.0711 m 4.33014,-2.43474 -0.0323,-1.83839 -2.18582,0.0355 0.0323,1.83838 -2.18583,0.0355 -0.0323,-1.83838 m 10.89412,1.86431 -4.20095,0.0658 -0.0287,-1.83637 4.20085,-0.0657 0.0288,1.83629 m -4.16292,0.7302 0.0287,1.83619 2.1004,-0.0328 -0.0287,-1.83637 2.1004,-0.0327 0.0287,1.83618 m -9.2361,24.96985 0.28923,-1.85802 2.15137,0.32616 -0.28912,1.85794 -4.30304,-0.65226 0.28923,-1.85802 m 1.79337,-0.20504 0.28913,-1.85794 1.94495,1.65332 -4.03401,-0.61171 m 13.89987,-1.28527 -0.20638,0.94496 -0.75633,0.74186 -0.72179,-0.77734 0.75633,-0.74186 0.92817,-0.16762 -0.16319,-0.95389 1.32363,-1.29825 1.08259,1.166 -1.32362,1.29825 -0.91941,-0.21211 m 1.56741,0.46254 1.26313,1.3604 -2.41487,0.5119 2.83625,-2.78178 m -11.72519,11.30956 1.01581,1.56353 -4.49615,0.82061 m 1.11601,-1.4724 -1.0158,-1.56353 2.46565,-0.0753 -3.26279,2.23511 m 20.41476,2.87691 2.58712,0.78541 1.83711,-0.89708 -0.74999,-1.68266 -1.83713,0.89726 0.75001,1.68248 m 0.699,0.26726 0.74998,1.68266 -2.37288,-0.3047 3.44469,-1.68211 m -11.653,11.97764 -0.81724,-1.65486 -1.82939,0.96567 0.81731,1.65497 -1.82938,0.96567 -0.81714,-1.65494 m 1.14781,-1.08485 -0.81714,-1.65494 2.41295,0.21635 -3.42987,1.81076 m 18.06681,4.18526 2.03579,1.90227 2.10094,0.074 0.0651,-1.82835 -2.10086,-0.0739 -0.0651,1.82824 m -1.3968,2.30443 -0.78778,-0.0278 0.0558,-1.56709 1.32235,-0.21493 0.76003,0.81129 0.81564,-0.75582 1.30379,0.30741 -0.0558,1.56709 -0.78788,-0.0277 m -1.09643,9.87733 0.0208,1.83045 -2.20618,-1.28475 4.10868,-0.0427 m -1.89643,1.85037 0.0207,1.83034 -2.20621,-1.28456 4.10879,-0.0428 m -14.48868,-0.56098 0.79017,0.18257 -0.36656,1.57366 -1.37804,-0.042 -0.60694,-0.96935 -0.97343,0.60441 -1.2559,-0.56651 0.36667,-1.57374 0.79017,0.18256 m 0.86705,-0.12084 0.42769,-1.83608 1.80164,1.79818 -3.95079,-0.91253 m 6.84161,32.98201 -0.0377,-1.04865 1.864,-0.065 0.0755,2.09741 -1.8641,0.065 0.0755,2.0974 1.864,-0.065 m -2.41417,-1.54672 -1.86392,0.0651 1.25591,-2.14385 0.14148,3.93266 m -13.78517,-15.64083 3.91798,1.72569 -0.78426,1.65019 -3.91798,-1.72569 0.78426,-1.65019 m 2.81839,-1.56743 1.17478,2.51299 -3.91797,-1.72569 m -9.18947,17.99699 -0.78492,-0.59062 -0.34563,-1.00874 1.05135,-0.3315 0.34576,1.00864 -0.26656,0.92222 0.96137,0.2557 0.60487,1.76511 -1.57726,0.49725 -0.6047,-1.76502 0.61581,-0.75307 m -8.67929,-5.55232 -1.93014,-0.24761 2.53666,-3.86895 m 25.42779,32.32182 -2.17688,1.80807 -0.32231,2.08083 1.85454,0.27265 0.32226,-2.08082 -1.85449,-0.27266 m -0.33082,-2.21668 -1.77249,-0.34744 -0.35122,2.08262 1.77258,0.34731 -0.35111,2.0827 -1.77257,-0.34732 m -34.15532,-26.09315 -2.282379,1.67292 -0.447726,2.05749 1.834627,0.38446 0.447686,-2.05749 -1.834587,-0.38446 m 9.868789,17.12925 -1.79786,-0.17355 -0.14767,2.10687 1.79793,0.17344 -0.14667,2.10699 -1.79792,-0.17345 m 3.53573,-2.13284 -0.51068,-0.83928 0.052,-1.06517 1.09896,0.0808 -0.0519,1.06508 -0.58841,0.75862 0.79831,0.59302 -0.0907,1.86392 -1.64843,-0.121 0.0906,-1.86402 0.85018,-0.47195 m -55.98204,-35.26697 -1.632261,-0.7734 -0.853463,1.93191 1.632373,0.7733 -0.853374,1.932 -1.632374,-0.77329 m -5.15911,-7.20095 0.590094,-2.05152 1.663731,2.22383 -3.909632,-1.42198 m 49.484092,5.55485 -0.636894,0.48883 -0.970526,-1.28317 0.899682,-1.02866 1.122026,0.15276 0.151674,-1.13045 1.22318,-0.60097 0.97054,1.28315 -0.636828,0.48894 m -40.739251,-7.0129 -0.08108,1.04852 -1.934247,-0.13458 0.162159,-2.09701 1.934237,0.13458 0.162141,-2.09701 -1.934234,-0.13458 m 25.40686,4.38972 -2.12037,1.96045 0.395204,-4.25586 m -3.549375,21.35321 1.205599,-4.0666 1.816529,0.51661 -1.205586,4.06639 -1.816542,-0.5164 m 119.655156,-45.18169 -2.78627,0.54758 2.59592,-3.29558 m 1.4549,4.98641 -0.64899,0.82397 -1.48825,-1.10024 1.2979,-1.64776 1.48825,1.10023 1.29802,-1.64781 -1.48837,-1.10019 m -0.86498,15.41143 -3.07462,-2.85688 1.25008,-1.34511 3.07468,2.85701 -1.25014,1.34498 m -4.1239,-0.19218 -0.7687,-0.71424 1.25009,-1.34511 1.53728,1.42853 -1.25002,1.34494 1.53728,1.42852 1.25008,-1.34511 m 3.38549,10.02122 1.20026,1.39505 -1.57373,1.38961 -1.20015,-1.39499 3.14735,-2.77928 1.20015,1.39499 m 0.30491,3.14633 -2.77376,-0.005 3.14735,-2.77928 m -18.04614,-25.87971 -1.50941,1.08436 -1.00672,-4.48262 m 3.19877,0.30505 -0.25129,2.78347 -2.51631,-3.39834 m 11.09556,31.98588 0.40237,-2.66523 -1.1448,-1.70146 -1.54718,0.96376 1.14481,1.70147 1.54717,-0.96377 m 2.10719,-1.65593 -0.40232,2.66535 -2.28961,-3.40293 m -17.03967,-12.28168 0.965,-1.52456 -1.83516,-1.04689 -0.96505,1.52443 -1.83504,-1.04694 0.96487,-1.52451 m 3.05529,-1.43426 0.87029,2.5714 -3.67038,-2.09391 m 21.81126,24.56313 -1.70183,0.70417 0.44777,-2.53947 1.43993,3.81911 m -4.3754,-0.42952 0.93406,-2.74052 1.53616,4.07362 m -25.46767,-13.27744 0.60754,0.50524 -1.03069,1.1909 -1.18431,-0.64337 -0.0922,-1.10069 -1.12296,0.0904 -0.84069,-1.04031 1.03064,-1.19102 0.60762,0.50507 m 2.62537,-1.52043 0.41754,2.73645 -3.24015,-2.69399 m 4.71887,23.0901 0.92893,-2.68529 1.53565,3.98863 m -4.64611,-0.41494 0.92892,-2.68529 1.53565,3.98863 M 24.297157,70.338016 l 0.581227,1.808607 -4.51086,-0.410922 m 1.397989,-0.88738 -0.581355,-1.808583 2.380037,0.593088 -3.683954,1.310246 m 0.401649,-23.749155 1.273532,1.36114 -2.546304,0.411122 3.068651,-2.593844 m -2.066502,4.527921 2.910277,-0.02219 1.636611,-1.383303 -1.273556,-1.361268 -1.636587,1.383432 1.273532,1.361139 m 0.256511,5.420198 0.09129,-1.86962 -2.156779,-0.10335 -0.09129,1.86962 -2.156755,-0.103219 0.09129,-1.869619 m 1.732495,-0.136576 0.09129,-1.869619 2.09158,1.438733 -4.043979,-0.193694 m 14.848558,-3.162193 0.300518,0.728007 -1.45778,0.600276 -0.743784,-1.113307 0.428373,-1.028145 -1.029408,-0.427869 -0.257885,-1.313305 1.45778,-0.600276 0.300518,0.728007 m 1.974731,2.87304 0.899401,-2.641458 -0.801417,-1.941302 -1.700665,0.700263 0.801288,1.941325 1.700794,-0.700286 m 12.584398,12.636457 -0.394351,-0.697175 1.416687,-0.776113 0.89335,1.032541 -0.314113,1.085322 1.10268,0.309053 0.421095,1.291342 -1.416684,0.776112 -0.39435,-0.697175 m 22.420984,-19.037488 -1.563169,3.902933 -1.707565,-0.683895 1.563168,-3.902933 1.707566,0.683895 m 0.925267,4.05044 -0.293006,0.731826 -1.463698,-0.586164 0.24457,-1.317413 1.024996,-0.438702 -0.438702,-1.024866 0.732434,-1.121975 1.463569,0.586188 -0.293136,0.731849 m -7.14884,3.689372 1.621951,-0.925327 0.56343,4.51352 M 47.810591,41.71597 l 0.644609,0.820693 -1.417411,1.143152 -1.289368,-1.641493 1.417561,-1.143046 -1.289345,-1.641364 -1.417434,1.143023 m 4.762679,1.55272 0.128088,-2.784388 -1.289368,-1.641493 -1.417411,1.143153 1.289345,1.641364 1.417434,-1.143024 m 6.662015,0.939618 -0.515443,0.906628 -1.599299,-0.894759 1.030779,-1.813106 1.599299,0.894759 1.03078,-1.813106 -1.59917,-0.894782 m 2.199894,5.120082 -0.386502,0.679858 -1.37085,-0.766951 0.41585,-1.260927 1.071981,-0.296458 -0.298869,-1.06341 0.87262,-1.005289 1.370849,0.766951 -0.386502,0.679859 m -28.157319,79.682126 1.107546,-1.45879 2.248807,3.97389 m -3.672819,-2.09832 -1.107634,1.45869 1.678176,1.25755 1.107634,-1.4587 1.678176,1.25755 -1.107634,1.4587 m -7.014889,-0.0149 0.439337,-0.6478 1.275757,0.89235 -0.519594,1.22855 -1.077168,0.20157 0.198581,1.09411 -0.944867,0.93088 -1.275757,-0.89234 0.439337,-0.64779 m 1.222722,-3.29332 -1.488394,-1.04118 -1.17148,1.72761 1.488394,1.04117 -1.171568,1.72751 -1.488307,-1.04108 m 14.896501,-17.98358 -1.047116,0.12398 -0.214036,-1.85766 2.094417,-0.2479 0.214037,1.85768 2.094416,-0.24789 -0.213946,-1.85758 m -17.034055,0.48718 1.785192,2.08383 -4.06718,-0.5734 m 4.670209,-1.62752 0.248355,-1.79718 -2.033547,-0.28665 -0.248441,1.79708 -2.033452,-0.28674 0.248347,-1.797 m 3.408641,-20.45758 -0.279582,-1.846386 2.032032,-0.331803 0.279669,1.846486 -4.064151,0.663506 -0.279583,-1.846387 m 1.473835,-0.765446 -0.279582,-1.846386 2.231681,0.98707 -3.809992,0.622109 m 16.610209,3.922389 -1.833506,-2.238323 4.225272,0.658755 M 83.274027,36.3358 l 0.507827,-0.796139 0.951389,-0.417642 0.411478,0.965677 -0.951388,0.417642 -0.919306,-0.169538 -0.167018,0.933103 -1.664934,0.731139 -0.617354,-1.448566 1.664949,-0.731008 0.784357,0.515332 m -1.872693,-3.010722 2.622983,0.854538 -3.805526,1.670829 m 2.343004,-4.3599 1.609249,-0.885918 1.027038,1.813175 -1.609249,0.885918 -2.054206,-3.626335 1.609249,-0.885918 m 3.121788,0.354081 -0.582081,2.699079 -2.054191,-3.626207 m 7.993281,3.219511 1.345282,1.251223 -1.429598,1.538082 -1.345387,-1.251302 2.859301,-3.076084 1.345308,1.251407 m -0.255858,4.034747 -0.714798,0.76904 -1.345387,-1.251302 1.429703,-1.538002 1.345386,1.251302 1.429519,-1.537976 -1.345203,-1.251328 m -0.06169,19.428741 0.08865,-0.943316 0.663378,-0.816255 0.81772,0.662209 -0.663378,0.816255 -0.906367,0.281107 0.281621,0.904758 -1.160846,1.428413 -1.22662,-0.993261 1.160925,-1.428518 0.94492,0.08861 m -2.159971,-2.76443 0.663378,-0.816255 1.431003,1.158984 -1.326782,1.632326 -1.430978,-1.1588 -1.326756,1.63251 1.430977,1.1588 m 16.201255,-8.048376 -1.76913,-0.557672 3.06893,-3.407847 m 1.26866,3.930977 -0.32495,0.99138 -1.76914,-0.557672 0.6499,-1.982759 1.76914,0.557671 0.64989,-1.982759 -1.76913,-0.557672 m 8.19517,13.848804 2.54409,1.045071 1.95059,-0.68914 -0.5935,-1.734209 -1.95059,0.689139 0.5935,1.73421 m -0.179,2.775539 -0.9753,0.344569 -0.5935,-1.734209 1.95067,-0.689244 0.59342,1.734314 1.95059,-0.689139 -0.59342,-1.734314 m -11.18573,10.741531 -1.13098,-1.437767 -1.6259,1.306299 1.13098,1.437767 -1.62591,1.306299 -1.13098,-1.437767 m 0.8284,-3.986018 0.81309,-0.653123 1.13098,1.437767 -1.6259,1.306299 -1.13108,-1.437846 -1.62591,1.306299 1.13108,1.437846 m 23.38939,12.795216 0.79884,1.665369 -2.58177,-0.325618 3.77083,-1.619867 m -1.42694,4.846335 -1.00548,0.432005 -0.79876,-1.665474 2.01107,-0.863931 0.79876,1.665474 2.01108,-0.86393 -0.79876,-1.665475 m -4.26852,7.734073 0.17457,-0.767718 1.53101,0.350081 -0.0357,1.337999 -0.94011,0.59273 0.59108,0.942784 -0.54616,1.221236 -1.531,-0.35008 0.17456,-0.767718 m -2.0714,-2.911792 0.23259,-1.023693 1.78626,0.408462 -0.46536,2.047414 -1.78626,-0.408462 -0.46537,2.047414 1.78616,0.408383 m -6.14043,-7.964791 0.94288,-0.454031 0.80816,1.622234 -1.88577,0.908061 -0.80815,-1.622234 -1.88576,0.90806 0.80823,1.622131 m 0.84834,-5.316613 0.94288,-0.45403 0.80823,1.622131 -1.88576,0.90806 -0.80823,-1.62213 -1.88566,0.908137 0.80823,1.622131 M 14.165114,225.09534 l 2.423965,1.53633 -4.335179,0.56117 m 3.174014,-4.63836 0.812831,-0.10515 0.219643,1.55739 -1.31816,0.43494 -0.922747,-0.67343 -0.702942,0.88385 -1.39133,-0.0842 -0.219643,-1.55739 0.812831,-0.10514 m 7.850313,2.53315 -3.382078,-2.53048 1.141108,-1.43551 3.382208,2.53051 -1.141238,1.43548 m -2.994874,0.91693 -0.549854,-2.7008 3.382078,2.53049 m -7.618153,-21.85029 -0.0034,-1.7904 2.111215,1.27516 -3.954073,0.007 m 3.662157,-3.94633 0.790892,-0.001 0.0029,1.53467 -1.317596,0.25811 -0.792333,-0.7659 -0.789322,0.76868 -1.318556,-0.25319 -0.0029,-1.53467 0.790763,-10e-4 m 20.316536,10.28867 -0.3918,-0.67578 1.379167,-0.76806 0.883004,0.99847 -0.297797,1.05987 1.081371,0.29181 0.423255,1.2544 -1.379271,0.76791 -0.391929,-0.67581 m -0.910692,-0.41752 -1.609249,0.89605 0.104623,-2.44226 1.959077,3.37917 m 7.922237,-11.42599 -0.733669,1.72355 -1.362308,-2.1066 3.536852,1.64161 m -4.270495,0.0818 1.15263,2.59904 1.886274,0.87564 0.733668,-1.72355 -1.886298,-0.8755 -0.733644,1.72341 m -23.92785,-20.25783 0.280935,-1.77935 -2.077446,-0.31422 -0.281039,1.7792 -2.077446,-0.31423 0.280936,-1.77935 m 3.737148,-1.77694 0.779146,0.11799 -0.240909,1.52503 -1.338534,0.0578 -0.658626,-0.88049 -0.899433,0.6447 -1.258402,-0.45059 0.240908,-1.52503 0.779043,0.11783 m 26.630608,11.86557 -0.783614,0.0854 -0.17054,-1.56936 1.277506,-0.40384 0.868885,0.69928 0.698344,-0.87006 1.33437,0.11918 0.17054,1.56936 -0.783615,0.0854 m -3.338626,0.89309 2.288524,1.60315 2.089552,-0.22772 -0.198972,-1.83087 -2.089552,0.22772 0.198972,1.83087 m -4.319348,-16.6449 -1.005767,0.29945 -0.534118,-1.72676 2.011533,-0.5989 0.534119,1.72676 2.011662,-0.59887 -0.534248,-1.72679 m -3.336379,3.41782 2.545781,1.12788 2.011533,-0.5989 -0.534144,-1.72663 -2.011534,0.5989 0.534145,1.72663 m -23.916926,-7.34074 -0.988488,-1.54504 -1.748644,1.1409 0.988623,1.54491 -1.748644,1.1409 -0.9884878,-1.54504 m 1.5704868,-3.84032 0.655656,-0.42774 0.847294,1.3243 -0.951523,0.93364 -1.079371,-0.23434 -0.232077,1.08995 -1.2341811,0.49242 -0.8472948,-1.3243 0.6557918,-0.42787 m 7.0502951,-3.98688 1.312474,-1.32423 0.510511,2.51361 -2.715009,-2.93939 m 4.796904,-0.297 0.543058,0.5878 -1.125051,1.13503 -1.092386,-0.79051 0.01934,-1.15538 -1.105449,-0.0204 -0.717535,-1.16904 1.12492,-1.13503 0.543058,0.58779 m 19.780529,-1.73515 -0.940083,-0.4546 0.789026,-1.65859 1.880302,0.90908 -0.789026,1.65859 1.880302,0.90909 0.789026,-1.6586 m -4.859008,2.31379 -0.705063,-0.34092 0.676247,-1.42154 1.287887,0.3311 0.367005,1.0517 1.043252,-0.36985 1.062465,0.80508 -0.676383,1.42167 -0.705063,-0.34092 m -2.910535,-15.05271 -0.350309,2.83883 -2.322151,-3.57495 m 5.341469,0.50163 0.435292,0.67025 -1.295399,0.90119 -0.94164,-0.96704 0.212408,-1.12085 -1.083245,-0.21981 -0.509669,-1.26738 1.295393,-0.90105 0.435422,0.67026 m 6.385384,2.64398 -4.200163,-0.18745 0.08202,-1.8376 4.200162,0.18745 -0.08202,1.8376 m -3.518082,2.21032 -0.78753,-0.0351 0.0703,-1.57509 1.324268,-0.20393 0.75238,0.82269 0.822681,-0.7524 1.300834,0.32109 -0.0703,1.57509 -0.787531,-0.0352 M 179.84434,30.374984 l -0.98692,2.668574 -1.47555,-4.0205 m 2.95527,1.16376 1.72459,-0.658398 -0.49409,2.480592 -1.38337,-3.769329 m 11.19798,6.646721 -3.21206,2.720947 -1.17029,-1.429513 3.212,-2.720836 1.17035,1.429402 m -1.27171,1.768882 1.17035,1.429402 -2.442,0.33937 3.01136,-2.550808 m 4.71139,8.646786 -1.22855,1.369102 -1.56456,-1.404116 1.22848,-1.368992 3.12919,2.808122 -1.22859,1.36892 m -4.1219,-0.521381 -0.58677,-0.526484 1.05299,-1.173505 1.15335,0.682035 0.0603,1.113237 1.11326,-0.06027 0.8023,1.073119 -1.05302,1.173324 -0.58666,-0.526412 m -27.48779,-17.304206 -0.93778,-1.600089 4.57836,-0.553222 m -1.75228,3.806589 -0.68253,0.403789 -0.8038,-1.371452 1.00369,-0.901484 1.08454,0.28201 0.28074,-1.089442 1.27154,-0.444284 0.80388,1.371341 -0.68264,0.403716 m -5.58905,-0.496071 -0.7363,-2.639246 -1.75099,-1.137023 -1.01469,1.502222 1.75099,1.137024 1.01469,-1.502223 m 2.51516,-1.306857 0.65662,0.426383 -0.86974,1.287619 -1.23932,-0.496036 -0.22176,-1.070193 -1.09149,0.217426 -0.94941,-0.925243 0.86973,-1.287619 0.65663,0.426383 m 29.42117,67.432734 0.54151,-1.774178 3.44396,3.033557 m -3.93443,1.257754 -0.74716,-0.236167 0.46414,-1.520665 1.32283,0.140099 0.51511,0.996589 0.97938,-0.524314 1.16797,0.647066 -0.46414,1.520665 -0.74716,-0.236168 m -2.45591,-7.523465 -2.81987,0.75023 2.42719,-3.559178 m 0.89174,2.697852 1.6064,1.029418 -2.36092,1.044299 2.2754,-3.336774 m -4.63279,-17.134398 -4.22923,-0.949306 0.4197,-1.831448 4.22916,0.949426 -0.41963,1.831328 m -1.70142,0.17779 -0.41964,1.831328 -1.81488,-1.782868 3.96486,0.890098 m -15.6143,-0.427604 1.41376,2.415459 -3.92399,-1.29157 m 4.46996,-3.075143 0.98106,0.322847 -0.54818,1.769703 -1.96206,-0.645814 0.54818,-1.769703 -1.962,-0.645636 -0.54812,1.769583 m 17.74718,-17.3295 0.0597,1.833182 -2.09915,0.06803 -0.0597,-1.833065 4.19835,-0.136183 0.0597,1.833065 m -3.25228,2.735893 -0.78714,0.0256 -0.0512,-1.571282 1.30344,-0.304391 0.81292,0.76004 0.7615,-0.811182 1.32049,0.21935 0.0512,1.571282 -0.78721,0.02542 m -18.1644,-4.924029 1.28223,1.346349 -4.32961,1.613537 m -0.12497,-3.21118 2.80597,-0.133564 -3.04733,2.960064 m -8.74351,-13.133432 -1.48728,-1.028055 -1.11625,1.788962 1.48723,1.027876 -1.11619,1.788843 -1.48735,-1.027935 m -1.18509,-3.00776 2.60353,-0.760908 -2.23255,3.577746 m -8.41553,-7.668061 0.2303,-0.775065 1.48295,0.481664 -0.13685,1.372114 -0.97183,0.534354 0.51112,1.016018 -0.63111,1.211538 -1.48283,-0.481603 0.23036,-0.775187 m -2.30421,-1.894913 2.34429,-1.505121 -1.22866,4.134025 m 3.983,-3.381657 1.71337,-0.726808 -0.42105,2.545239 -1.50532,-3.798922 m 2.41584,1.045927 1.71337,-0.726808 -0.42105,2.545239 -1.50532,-3.798923 m -4.4436,52.361885 -2.68968,0.289249 -1.38603,1.554743 1.30376,1.265533 1.38592,-1.554783 -1.30365,-1.265493 m -2.05441,-1.61657 2.68968,-0.28925 -2.77203,3.109359 m 8.8949,-3.911298 0.17676,4.200082 -1.83162,0.07747 -0.17667,-4.199917 1.83153,-0.07764 m 2.80638,3.037806 0.0441,1.049991 -1.83154,0.07764 -0.0884,-2.100062 1.83166,-0.0776 -0.0883,-2.099897 -1.83162,0.07748 m 6.48301,12.459072 -1.56229,-0.966165 1.1037,-1.786281 1.56229,0.966165 -2.20727,3.572603 -1.56229,-0.966165 m -0.5361,-4.043914 0.55187,-0.893204 1.56228,0.966166 -1.10369,1.786281 -1.56229,-0.966165 -1.10357,1.786321 1.56216,0.966126 m 17.87148,10.272556 1.17119,1.43173 -4.44529,1.24383 m 0.94983,-3.84746 0.81854,-0.66881 1.17119,1.43173 -1.63707,1.33763 -1.17119,-1.43173 -1.63699,1.3378 1.17107,1.43169 m 19.42041,2.28856 2.07671,1.9373 2.14068,0.0728 0.0641,-1.86435 -2.14068,-0.0728 -0.0641,1.86435 m 0.48841,0.59019 -0.0641,1.86448 -2.09498,-1.40467 4.0139,0.13659 m -3.80878,17.61608 -0.91063,0.37005 -1.07003,-0.21466 0.21622,-1.06194 1.07008,0.21453 0.69436,0.69202 0.69721,-0.68918 1.87251,0.37571 -0.32438,1.59303 -1.87251,-0.37571 -0.37283,-0.90385 m 0.50126,1.42995 -0.37852,1.85856 -1.86966,-1.75691 4.01258,0.80503 m -13.9216,-3.14236 -1.91664,-2.00939 -2.09262,-0.19889 -0.17601,1.81062 2.09265,0.19877 0.17598,-1.8105 m 1.27039,-2.45816 1.04626,0.0994 -0.17601,1.81062 -2.09262,-0.19889 0.17602,-1.81063 -2.09262,-0.19889 -0.17601,1.81062 m -5.42106,39.3696 -1.79512,-0.12398 -0.13859,2.09735 1.79512,0.12398 -0.13848,2.09739 -1.79512,-0.12398 m -0.52774,-4.23075 -1.795,-0.12394 -0.1386,2.09735 1.79512,0.12398 -0.13847,2.09739 -1.79512,-0.12397 m 3.53066,-11.28009 0.63371,-1.7601 1.47993,2.01122 -3.62361,-1.41364 m 4.39316,-2.58404 0.96635,0.37694 -0.63388,1.76019 -1.93253,-0.75398 0.63375,-1.76022 -1.93258,-0.75385 -0.63387,1.76019 m 21.71675,1.17042 -4.18471,-0.38064 0.16911,-1.8033 4.18458,0.3806 -0.16898,1.80334 m -4.27709,0.40886 -0.1691,1.8033 2.09231,0.19024 0.16907,-1.80318 2.09231,0.19023 -0.16911,1.80331 m -5.36515,17.22067 -0.97984,-0.35451 0.62798,-1.69409 1.95981,0.70905 -0.62798,1.6941 1.9598,0.70905 0.62787,-1.69414 m -4.8014,0.94522 -0.62803,1.69422 1.95985,0.70893 0.62786,-1.69414 1.95981,0.70906 -0.62799,1.69409 m -4.21217,-4.32166 -1.36554,-1.25563 2.4631,-0.60835 -2.7894,2.82219 m 1.70789,-4.33897 -1.36546,-1.25546 -1.48767,1.5051 1.36542,1.25559 -1.48767,1.50511 -1.36545,-1.25546 m -61.77084,24.62324 -1.04764,-2.62023 3.68965,1.89058 m -4.93623,0.0891 1.0477,2.62011 1.84478,0.94525 0.79712,-1.67497 -1.84477,-0.94525 -0.79713,1.67497 m -60.045275,-51.76943 1.399743,-1.20246 1.381906,1.59102 -1.399796,1.20228 -2.763705,-3.18168 1.399742,-1.20245 m 3.163714,2.8382 0.01789,-2.7933 -1.381853,-1.59083 -1.399743,1.20245 1.381853,1.59084 1.399743,-1.20246 m -10.162738,24.20508 0.855965,-0.39732 1.032523,0.16435 -0.162997,1.04117 -1.032524,-0.16434 -0.692967,-0.64386 -0.63845,0.69867 -1.806932,-0.28758 0.244439,-1.5618 1.806932,0.28758 0.394011,0.86313 m 2.051486,-1.27414 -1.77983,-2.15077 -2.065047,-0.3287 -0.285218,1.82207 2.065048,0.3287 0.285217,-1.82207 m 4.729424,23.60986 0.963262,1.59924 -4.569354,0.63271 m 3.330903,-2.68873 -2.766429,-0.48318 -1.802989,1.116 0.963326,1.59913 1.802988,-1.11601 -0.963325,-1.59912 m 14.025743,10.13475 -2.569763,0.96485 -0.986055,1.84371 1.58371,0.87886 0.986054,-1.84371 -1.583709,-0.87886 m 0.323276,-2.22183 -2.569763,0.96485 -0.986054,1.8437 1.583709,0.87886 0.986054,-1.8437 -1.583709,-0.87886 m 138.862754,45.63965 0.36453,1.79895 -2.05026,0.4177 -0.36453,-1.79895 4.10049,-0.83558 0.36445,1.79906 m -3.92856,1.55325 0.36445,1.79906 2.05026,-0.4177 -0.36445,-1.79905 2.05016,-0.41778 0.36445,1.79906 m -10.07949,-1.04213 0.0459,1.05051 -1.82216,0.0811 -0.0919,-2.10102 1.82216,-0.0811 -0.0918,-2.10095 -1.82216,0.0811 m 4.48554,3.00339 0.0459,1.05033 -1.82216,0.0811 -0.0918,-2.10095 1.82209,-0.081 -0.0919,-2.10102 -1.82216,0.0811 m 3.98863,19.41928 -3.70706,-1.96544 0.85994,-1.6218 3.70706,1.96545 -0.85994,1.62179 m -4.13976,-1.25955 0.99356,2.60457 1.85356,0.98267 0.85994,-1.6218 -1.85356,-0.98267 -0.85994,1.6218 m -21.1963,-14.7835 1.82525,-0.1973 -0.22579,-2.08433 -1.82524,0.1973 -0.22568,-2.08426 1.82525,-0.1973 m 2.87029,2.8432 0.11284,1.04213 -1.82514,0.19737 -0.22578,-2.08433 1.82525,-0.1973 -0.22568,-2.08426 -1.82524,0.1973 m -19.39806,8.02106 0.80483,0.50039 0.43521,0.95776 -0.95666,0.43559 -0.43528,-0.95765 0.1519,-0.93609 -0.93519,-0.15205 -0.76157,-1.67593 1.43502,-0.65345 0.76175,1.6759 -0.50001,0.80553 m 3.43587,-0.69761 0.43521,0.95776 -1.67431,0.7623 -0.87039,-1.91535 1.67421,-0.76237 -0.87039,-1.91534 -1.67439,0.76241 m -19.37569,6.96154 0.53563,0.77339 0.0173,1.0426 -1.04541,0.0171 -0.0174,-1.0425 0.50985,-0.79063 -0.79278,-0.50827 -0.0302,-1.82452 1.56812,-0.0259 0.0303,1.82449 -0.77552,0.53415 m 3.33904,-0.59983 -1.79496,2.11528 -0.0691,-4.17032 m -23.82805,0.43344 1.7887,0.2221 -1.52323,1.95317 0.46059,-3.95967 m 3.69284,2.6452 -2.0342,1.88973 0.4913,-4.22362 m -24.672588,1.3577 -1.637383,2.29446 -0.365978,-4.26085 m 4.34366,1.7555 -1.637275,2.29453 -0.366085,-4.26092 m -7.356529,8.25659 -1.835764,0.0533 -0.06056,-2.1029 1.83569,-0.0532 0.121306,4.20576 -1.835797,0.0532 m -0.809141,-4.25575 -1.775053,2.15601 0.06067,2.10297 1.835764,-0.0533 -0.06074,-2.10286 -1.835689,0.0532 m -12.745198,-5.15552 -0.154802,1.0678 -1.858994,-0.27236 0.309681,-2.13571 1.858993,0.27236 0.309681,-2.13571 -1.858993,-0.27236 m 2.115785,1.97635 1.858993,0.27236 -1.63758,1.94106 0.580615,-4.00446 m -11.078359,9.86214 -0.617065,-0.71968 -0.126249,-1.04391 1.044572,-0.12623 0.126249,1.04391 -0.427507,0.84591 0.846645,0.42727 0.221029,1.8267 -1.566967,0.18927 -0.22092,-1.82663 0.720213,-0.61661 m -1.787887,-1.63736 -1.5757,2.30842 0.252646,2.0876 1.828056,-0.22086 -0.252647,-2.0876 -1.828055,0.22086 m -10.518029,-6.05722 0.787695,0.58712 0.350568,1.00717 -1.049291,0.33647 -0.350646,-1.00704 0.261674,-0.92372 -0.962254,-0.25109 -0.613543,-1.76238 1.573862,-0.50486 0.613657,1.76245 -0.611722,0.75588 m -29.930938,11.60341 -1.309291,2.42873 0.479901,2.01498 1.789011,-0.41372 -0.479793,-2.01491 -1.789119,0.41365 m -1.26455,-1.84529 -1.309292,2.42874 0.479827,2.01509 1.789011,-0.41373 -0.479719,-2.01501 -1.789119,0.41365 m 42.521741,-146.23912 -1.328061,-1.27398 1.433755,-1.53362 1.327948,1.27394 -2.867397,3.06729 -1.327939,-1.27394 m -41.4413181,142.05723 0.3002593,-1.81566 2.0755408,0.31587 -0.300286,1.81554 -4.1510558,-0.63162 0.3002864,-1.81553 m 24.4970224,-0.6219 1.819993,-0.38754 -0.926397,4.51138 m -1.707347,-4.1017 -1.37314,2.4495 0.446744,2.06188 1.819993,-0.38754 -0.446853,-2.06195 -1.819884,0.38761 m -10.02092,-5.27662 2.030218,-1.98455 0.121533,-2.08616 -1.908799,-0.10168 -0.121533,2.08616 1.908799,0.10168" />
</svg>
