<?xml version="1.0" encoding="UTF-8" standalone="no"?>
<!-- Created with Inkscape (http://www.inkscape.org/) -->

<svg
   width="210mm"
   height="297mm"
   viewBox="0 0 210 297"
   version="1.1"
   id="svg5"
   inkscape:version="1.1.1 (3bf5ae0d25, 2021-09-20)"
   sodipodi:docname="gnomeCricut.svg"
   xmlns:inkscape="http://www.inkscape.org/namespaces/inkscape"
   xmlns:sodipodi="http://sodipodi.sourceforge.net/DTD/sodipodi-0.dtd"
   xmlns="http://www.w3.org/2000/svg"
   xmlns:svg="http://www.w3.org/2000/svg">
  <sodipodi:namedview
     id="namedview7"
     pagecolor="#ffffff"
     bordercolor="#666666"
     borderopacity="1.0"
     inkscape:pageshadow="2"
     inkscape:pageopacity="0.0"
     inkscape:pagecheckerboard="0"
     inkscape:document-units="mm"
     showgrid="false"
     inkscape:zoom="0.13230607"
     inkscape:cx="532.85536"
     inkscape:cy="1522.9838"
     inkscape:window-width="1920"
     inkscape:window-height="1016"
     inkscape:window-x="0"
     inkscape:window-y="0"
     inkscape:window-maximized="1"
     inkscape:current-layer="layer1"
     showguides="true"
     inkscape:guide-bbox="true" />
  <defs
     id="defs2" />
  <g
     inkscape:label="Calque 1"
     inkscape:groupmode="layer"
     id="layer1">
    <path
       id="path1095"
       style="fill:none;stroke:#ff0000;stroke-width:0.4;stroke-miterlimit:4;stroke-dasharray:none;stop-color:#000000"
       d="m -208.48778,249.84648 32.06066,5.91057 46.78073,0.85157 32.411018,-4.66499 16.548506,-25.41629 5.030724,-29.80168 -76.276258,2.01946 z m -40.2222,12.15798 27.23297,-20.71872 28.00535,-25.94656 26.68468,-14.79344 36.86896,-10.07913 32.084273,-12.06752 29.732265,-31.91333 18.402724,-37.43153 9.837478,-40.630127 -2.546901,-43.565049 -58.531809,20.176247 -11.9532,41.274184 -17.16545,39.336785 -32.15943,24.77286 -37.4773,22.07264 -38.60389,20.04313 -38.15259,14.09034 z m -13.08638,-111.21175 33.55527,-28.04669 34.0673,-23.912245 31.38288,-27.519329 35.15563,-25.915385 -18.95178,-25.606527 -38.1132,23.783223 -32.18496,26.392836 -33.32751,25.008921 -32.02813,31.308516 z m 146.46331,-66.431801 -27.23503,20.916431 -30.07033,23.64522 -23.44588,19.30872 -29.70051,24.13107 -26.22639,22.15606 -27.84677,-15.21024 37.76943,-25.73132 13.57242,-24.25831 15.1635,5.56146 11.44331,-2.67642 15.05809,-12.1762 5.07635,-10.45645 -2.32237,-16.01121 26.65831,-8.163119 33.1294,-31.396472 z" />
    <path
       id="path1226"
       style="fill:none;stroke:#0000ff;stroke-width:0.4;stroke-miterlimit:4;stroke-dasharray:1.6, 1.6;stroke-dashoffset:0;stop-color:#000000"
       d="m -97.235372,251.94363 -54.697028,-53.19851 22.28601,57.8635 m -46.78073,-0.85157 0.59799,-2.32823 23.89673,-54.6837 71.245534,27.78222 M -39.86128,68.424103 -100.93999,45.035301 m 51.241232,64.018929 -63.194432,-22.744745 m 15.059443,92.089605 -32.224893,-52.75282 61.957158,20.83949 m -94.116588,3.93337 32.30005,40.04748 m -36.86896,10.07913 -32.73933,-28.03052 6.05465,42.82396 m -28.00535,25.94656 v 0 l -16.82225,-48.75084 m 10.05817,-69.78888 -21.97164,-27.768506 m 56.03894,3.856261 -22.63176,-28.85384 m 54.01464,1.334513 -21.90935,-27.738689 m -28.65237,91.304221 -28.73591,18.69685 16.30008,18.81464 m 29.63947,-24.11332 -5.76032,-16.07459 m 20.13445,-22.63263 v 0 l 24.33594,-24.174329 14.92027,19.886039 m -44.33256,14.74473 v 0 l 13.85442,8.78017" />
    <path
       id="path17904"
       style="font-variation-settings:normal;vector-effect:none;fill:none;fill-opacity:1;stroke:#ff0000;stroke-width:0.4;stroke-linecap:butt;stroke-linejoin:miter;stroke-miterlimit:4;stroke-dasharray:none;stroke-dashoffset:0;stroke-opacity:1;-inkscape-stroke:none;stop-color:#000000"
       d="m -157.96085,498.96683 12.50544,-8.74564 19.70758,3.7733 24.68296,15.63711 14.62819,3.41523 2.42702,8.3063 -7.82261,24.7639 -11.2384,2.17487 -11.25979,-10.34126 -27.32734,-9.62106 -15.38947,-11.83026 z m 39.41742,-87.78966 15.06873,-1.1059 10.46316,14.10514 -4.13738,18.87515 -14.64321,24.93349 -2.05276,15.23079 -9.97525,5.57058 -21.96425,-14.1061 -3.3583,-7.82298 8.81203,-11.97978 9.07088,-27.9352 z m 69.44178,4.31552 14.95124,3.93585 -2.15879,28.83749 -4.01751,18.89123 -0.96852,17.51152 0.57723,15.04978 3.60934,20.1084 0.95515,29.18119 -14.5816,3.20452 -4.71206,-28.66907 -1.72946,-20.04107 0.41167,-18.77804 1.94341,-21.92398 3.76344,-21.79583 z m -24.6928,13.05735 14.56664,3.51924 -1.59955,29.30806 -4.00334,19.83364 -1.06643,15.19497 0.58026,17.41313 3.59279,19.02782 1.4004,28.96723 -14.92386,3.4406 -1.29423,-25.84868 -3.26342,-21.53475 -1.45151,-21.88801 -0.0753,-18.68332 2.30716,-20.19309 z m -29.70938,-64.06207 8.28288,-1.96394 5.80539,26.86543 2.72646,11.96418 10.4057,8.87062 15.96513,-5.49306 6.14303,-9.82464 10.45059,-25.43017 9.44609,6.43801 -9.04556,24.19182 -14.10387,16.68293 -21.37493,5.3087 -15.93186,-9.7667 -7.35161,-18.9315 z m -16.21459,20.53233 -7.75898,-3.88777 8.51673,-27.86356 11.69594,-16.49699 17.78851,-5.60847 19.464,10.40952 9.57217,19.48835 3.06125,25.85505 -10.79795,3.81422 -4.09424,-27.35192 -3.46925,-10.97226 -14.07394,-9.08361 -12.44605,6.05484 -5.48987,11.05456 z m -27.7684,-48.91598 11.79512,-4.01624 12.34767,6.15704 -1.35456,16.88844 -9.40932,6.56664 z m -80.12682,29.76082 70.93579,-36.21045 18.37147,38.79571 8.2582,42.08571 -17.77052,36.56066 -14.50598,41.11496 0.0256,43.36641 4.73896,40.36056 -69.95055,-38.15242 7.8658,-31.69529 7.92295,-46.09877 3.02734,-32.53599 -8.69137,-29.05272 z m 6.38153,-7.65813 -3.49939,-10.98481 9.05992,-14.18364 13.5517,2.48906 6.92573,10.23108 z" />
    <path
       id="path18202"
       style="font-variation-settings:normal;vector-effect:none;fill:none;fill-opacity:1;stroke:#0000ff;stroke-width:0.4;stroke-linecap:butt;stroke-linejoin:miter;stroke-miterlimit:4;stroke-dasharray:1.6, 1.6;stroke-dashoffset:0;stroke-opacity:1;-inkscape-stroke:none;stop-color:#000000"
       d="m -60.82736,461.37734 -18.19748,-4.27046 m 14.19414,24.1041 -16.5013,-3.91101 m 0.11351,18.54706 15.32136,0.55892 m -13.90806,21.46535 14.48832,-4.05222 m 3.59279,19.02782 v 0 l -14.81769,6.55915 m 21.0946,-15.86245 18.33851,-3.71664 m -20.06797,-16.32443 16.45863,-3.78397 m -16.04696,-14.99407 15.46973,-0.0557 m -13.52632,-21.86828 14.49484,4.35675 m -10.7314,-26.15258 14.74891,7.26135 m -17.86604,-53.35947 10.85112,5.19966 m -16.99415,4.62498 2.89028,12.05794 m -21.37493,5.30871 2.51952,-11.87359 m -10.4057,-8.87062 -8.04568,10.97751 m -7.35161,-18.9315 12.68292,-4.06495 m 28.96342,-28.27332 -11.83094,2.31735 m -3.46925,-10.97226 v 0 l 5.72802,-10.83344 m -19.464,-10.40952 -0.33796,12.15935 m -12.44605,6.05484 v 0 l -5.0045,-12.60572 m -11.69594,16.49699 11.12624,7.1419 m -23.42535,66.53149 v 0 l 34.11086,16.1092 m -14.64321,24.93349 v 0 l -28.53853,-13.10749 m -1.32714,73.45202 v 0 l 15.90997,-34.33509 m 11.41737,43.95615 13.26559,-28.31904 m -46.75383,-62.53483 v 0 l -63.90319,8.89545 49.39721,32.21951 -57.32016,13.87926 57.34578,29.48715 m -46.39549,-108.12191 78.64637,-12.92012 m -87.41487,-16.17017 79.15667,-25.91554" />
    <path
       id="path68006"
       style="font-variation-settings:normal;vector-effect:none;fill:none;fill-opacity:1;stroke:#ff0000;stroke-width:0.4;stroke-linecap:butt;stroke-linejoin:miter;stroke-miterlimit:4;stroke-dasharray:none;stroke-dashoffset:0;stroke-opacity:1;-inkscape-stroke:none;stop-color:#000000"
       d="m 71.01905,189.93456 24.093115,7.36216 13.968165,-17.07269 43.07123,36.89223 -32.32505,15.93103 -11.29195,-24.81197 -25.848313,13.0244 z M 61.243488,28.118928 74.30613,3.8599029 98.610309,21.566152 l 46.863411,35.065672 30.6797,31.95333 25.66451,36.807636 25.29173,52.49981 12.56679,27.21387 -26.20084,8.12631 L 202.12692,187.73009 177.91901,141.36018 153.95469,107.01992 124.7804,76.513526 83.716132,44.166612 Z M 20.024426,56.593702 3.1959202,109.10817 l 26.1957878,7.30342 -8.678245,27.59136 32.788869,6.51002 -11.307248,-22.72012 14.931393,-15.89929 z M 17.537114,39.163925 47.519581,23.89932 l -0.640166,32.909681 41.312098,-5.91175 3.907609,44.332233 20.775428,36.143726 32.2286,26.37835 43.45689,11.23186 -12.84523,39.48682 32.49984,5.03933 -20.04752,26.81402 L 164.24011,222.00023 121.07316,182.82919 90.549367,150.28467 63.42088,114.83776 31.916742,65.869355 Z m 120.659206,90.997095 -8.0977,-0.19427 -17.01471,-2.61719 -10.50226,-15.42831 3.44257,-18.338134 14.68633,-9.195943 7.29709,-3.38151 -1.79702,9.454659 -11.82581,8.221826 -3.37273,11.449782 7.6432,9.24132 14.09474,2.81663 z m -9.66785,-40.527823 5.42657,6.161204 10.79842,13.395719 11.46604,14.71165 11.52751,14.71133 10.53277,13.68883 4.57399,6.79566 -16.23036,0.83414 -10.20224,-12.39397 -12.12548,-14.16767 -10.87249,-15.2912 -9.71237,-12.93435 z m -69.702722,76.918723 4.692066,-18.32663 12.520701,-9.97987 6.712682,9.58694 11.892629,15.12644 7.829884,8.80922 -12.622691,9.89819 -18.68182,0.33052 12.283776,-11.21855 -10.916193,-13.62755 z" />
    <path
       id="path68235"
       style="font-variation-settings:normal;vector-effect:none;fill:none;fill-opacity:1;stroke:#0000ff;stroke-width:0.4;stroke-linecap:butt;stroke-linejoin:miter;stroke-miterlimit:4;stroke-dasharray:1.6, 1.6;stroke-dashoffset:0;stroke-opacity:1;-inkscape-stroke:none;stop-color:#000000"
       d="m 109.08033,180.22403 -0.54577,28.01129 m 93.6463,-20.39063 24.84423,-10.15476 m -25.20716,-52.29714 v 0 l -23.89892,15.96739 M 176.15342,88.585154 153.95469,107.01992 M 98.680567,21.577267 83.737522,44.242771 m 61.736198,12.389052 v 0 L 124.7804,76.513525 m -67.653921,35.380035 -27.734771,4.51803 12.803376,11.38126 M 46.879415,56.809001 31.916742,65.869355 M 63.420881,114.83776 92.099123,95.229485 m 20.775427,36.143725 -22.325183,18.91146 m 30.523793,32.54452 0.79456,-1.20898 23.23543,-23.86865 m 30.61166,50.71868 -11.4747,13.52999 M 120.71055,84.387173 v 0 l 5.50007,6.073149 m -20.1864,3.122794 8.36059,5.099032 m -11.80316,13.239102 8.43042,-1.78936 m 2.07184,17.21767 5.57137,-7.97631 m 11.44334,10.5935 2.6514,-7.77687 m -9.03904,-17.04546 10.24406,-9.350019 m -0.5317,22.284379 11.33012,-8.88866 m -0.45762,24.17985 11.92363,-9.46818 m 0.20185,23.63584 11.32583,-8.92466 m -1.12359,21.31865 11.65637,-7.62981 m -83.581357,10.83045 -11.24557,7.64592 6.398044,10.88803 m -26.333233,-33.44092 9.018996,8.92534 10.229283,-9.36759" />
    <path
       id="path50524"
       style="font-variation-settings:normal;fill:none;fill-opacity:1;stroke:#008000;stroke-width:0.4;stroke-linecap:butt;stroke-linejoin:miter;stroke-miterlimit:4;stroke-dasharray:1.6, 0.799999, 0.4, 0.799999;stroke-dashoffset:0;stroke-opacity:1;stop-color:#000000"
       d="m 144.66153,383.77327 49.82114,14.33932 m -53.19153,21.72228 v 0 l 33.7936,22.42925 m -72.03834,13.50404 v 0 l 18.40791,37.14505 m -57.002876,-32.72177 12.15282,50.29378 m 68.740606,-19.29429 -18.16434,23.57921 m 29.30279,-14.48301 6.83752,26.06067 m 9.97596,-41.32319 27.54946,6.69022 m -10.47914,-34.48104 -25.24333,16.05057"
       sodipodi:nodetypes="cccccccccccccccccc" />
    <path
       id="path50222"
       style="font-variation-settings:normal;vector-effect:none;fill:none;fill-opacity:1;stroke:#ff0000;stroke-width:0.4;stroke-linecap:butt;stroke-linejoin:miter;stroke-miterlimit:4;stroke-dasharray:none;stroke-dashoffset:0;stroke-opacity:1;-inkscape-stroke:none;stop-color:#000000"
       d="m 57.78153,364.56696 26.26146,32.59641 -27.44362,17.94718 -11.02464,-20.90246 z m 20.178796,160.32132 0.24723,-0.91391 8.91264,-16.88638 28.554294,0.0314 -12.48553,18.08556 z M 43.93365,364.29567 l 58.50487,-6.31131 -0.64432,66.44523 -57.72727,-9.63424 z m -14.038,-12.17415 49.56944,-23.32082 26.30221,1.53854 15.44305,22.94868 13.75727,50.73022 -20.1046,36.70526 -39.92035,12.08455 -46.83388,-23.61123 -19.3207,-20.28763 3.59263,-25.1957 z m 109.78813,18.1794 38.19954,-25.15111 6.72089,31.46829 9.87846,21.49449 -10.98579,16.88748 -8.41214,27.26405 -20.55,27.96879 -33.08043,22.6803 -27.768036,7.34461 -17.08202,10.2274 -21.267793,-10.87229 -31.196233,-7.95956 26.808126,-37.03696 13.50308,5.57503 19.96704,-3.85147 18.627926,-0.57181 20.68451,-19.92582 17.56023,-16.00747 -1.34135,-15.89015 4.71174,-20.17145 z m -76.186746,-6.00247 28.669549,0.43937 8.107937,18.13984 -25.002426,-0.61193 z m 116.504626,-43.34981 -43.44074,50.51314 -30.87292,-47.54184 39.66983,-5.39578 z m -63.44256,184.09024 20.54888,-18.90597 8.23672,5.05784 11.13844,9.0962 11.33252,-5.25194 5.48097,-10.01057 -8.17301,-11.74026 -4.20506,-8.70472 20.4887,-18.7813 8.95985,11.43563 9.0897,18.5728 1.38944,15.90824 -12.57113,20.11859 -24.95429,14.51438 -18.52899,-0.9329 -17.61132,-10.64476 z m -104.91276,-82.6928 28.174785,15.95892 3.939827,23.35511 -32.797224,2.27294 z" />
    <path
       id="path50351"
       style="font-variation-settings:normal;vector-effect:none;fill:none;fill-opacity:1;stroke:#0000ff;stroke-width:0.4;stroke-linecap:butt;stroke-linejoin:miter;stroke-miterlimit:4;stroke-dasharray:1.6, 1.6;stroke-dashoffset:0;stroke-opacity:1;-inkscape-stroke:none;stop-color:#000000"
       d="m 84.04299,397.16337 -38.46826,-2.95528 m 57.61423,130.99682 -16.068764,-18.11692 m 52.563584,-136.78707 44.92043,6.31718 m -44.65442,27.32662 43.54709,11.05535 m -28.96214,55.23284 v 0 l -30.51967,-34.32309 m -39.596596,20.43015 9.2678,43.91785 m -38.349813,-0.64489 -4.388107,-44.99652 m 41.218229,-89.87859 -16.894489,17.52791 m 70.085726,-63.74157 -8.79691,52.93762 m 31.25491,123.57341 20.4593,16.79823 -14.97833,-26.80881 26.16002,-9.21802 m -54.66497,49.60831 11.69147,-25.12777 M 10.963728,463.93305 39.821125,438.305"
       sodipodi:nodetypes="ccccccccccccccccccccccccccc" />
  </g>
</svg>
