<?xml version="1.0" encoding="UTF-8" standalone="no"?>
<svg
   height="841.88977pt"
   viewBox="0 0 532.99998 754.00001"
   width="595.27557pt"
   version="1.1"
   id="svg210"
   sodipodi:docname="Corgi200_H20_A4x4.svg"
   inkscape:version="1.3 (0e150ed6c4, 2023-07-21)"
   xmlns:inkscape="http://www.inkscape.org/namespaces/inkscape"
   xmlns:sodipodi="http://sodipodi.sourceforge.net/DTD/sodipodi-0.dtd"
   xmlns="http://www.w3.org/2000/svg"
   xmlns:svg="http://www.w3.org/2000/svg">
  <defs
     id="defs210" />
  <sodipodi:namedview
     id="namedview210"
     pagecolor="#ffffff"
     bordercolor="#000000"
     borderopacity="0.25"
     inkscape:showpageshadow="2"
     inkscape:pageopacity="0.0"
     inkscape:pagecheckerboard="0"
     inkscape:deskcolor="#d1d1d1"
     inkscape:document-units="mm"
     showgrid="false"
     inkscape:zoom="2.3081746"
     inkscape:cx="2791.1667"
     inkscape:cy="154.8843"
     inkscape:window-width="1920"
     inkscape:window-height="1057"
     inkscape:window-x="-8"
     inkscape:window-y="-8"
     inkscape:window-maximized="1"
     inkscape:current-layer="svg210" />
  <style
     type="text/css"
     id="style1"><![CDATA[
			path {
				fill: none;
			}
		]]></style>
  <g
     id="page_001">
    <path
       d="m 185,615.7 66.8,10.9 42.1,-52.9 -10.2,-68.5 36.3,0.3 42.4,40 76.7,43.5 -116.2,40.8 -31.1,36.5 -29.9,32 -47.1,-28.1 -179.6,-4 10.2,-79.6 9.8,-41.7 L 74,483.3 6.1,437 l 17.4,-56.6 13.8,-57.6 30,-76.5 35.5,-53.8 10.3,-41.6 34.6,-63.4 41.3,22.3 38.2,-33.2 -9,-49.9 h 46.9 l 64.1,33.5 -37.5,70.9 -17.4,28.4 -27.2,38 -32.8,39.5 -60.7,38.5 -13.4,62.4 -8.8,59.4 11.8,49.8 2.2,88.1 -29.1,50.6 -0.3,36.2 z m 272.2,-426.6 8.8,40.7 -15.8,47.7 -5.5,57 22.7,67.9 -2.6,92.8 -74.3,23.9 -83.7,-42.7 -35.7,-16.9 2.6,-60.1 -5.4,-63.5 25.2,-67.3 1.4,-51.4 -8.2,-46 37.3,-39.4 90.4,-13.2 z"
       id="coupes_001"
       stroke="#ff0000"
       stroke-width="1.27"
       sodipodi:nodetypes="cccccccccccccccccccccccccccccccccccccccccccccccccccccccc" />
    <path
       d="M 23.5,380.4 140.2,337.9 37.3,322.8 153.6,275.5 189,109.8 102.8,192.5 M 131.4,397.3 23.5,380.4 74,483.3 145.4,535.2 M 143.2,447.1 74,483.3 M 116.3,585.8 45.4,586.6 116,622 35.2,666.2 M 214.3,237 189,109.8 l 58.1,87.7 -19.9,-120.9 37.9,-49.9 26.6,104.4 -64.5,-54.5 47.1,82.9 m -12.4,538.8 -10.1,-71.7 71.1,3.2 39.5,-84.3 -68.5,28.2 26.1,-68.2 m -28.2,160.8 -40,-39.7 -37,43.6 L 116,622 m 348.8,-126.8 -158,-18.8 160.6,-74 -193.7,-3 171,-64.9 m -176.4,1.4 176.4,-1.4 -151.2,-65.9 156.7,8.9 L 294.9,217.2 466,229.8 M 286.7,171.2 457.2,189.1 324,131.8"
       id="plisM_001"
       stroke="#a52a2a"
       stroke-dasharray="4"
       sodipodi:nodetypes="cccccccccccccccccccccccccccccccccccccccccccccccc" />
    <path
       d="m 131.4,397.3 -57.4,86 m 28.8,-290.8 50.8,83 -86.3,-29.2 m 78.1,288.9 -90.2,9.7 61.1,40.9 M 113.1,150.9 189,109.8 m -4,505.9 29.8,54.5 m 79.1,-96.5 29,56.1 m -49.2,-230.4 33.1,77 M 294.9,217.2 457.2,189.1"
       id="plisV_001"
       stroke="#008000"
       stroke-dasharray="4, 1, 1, 1"
       stroke-width="1.27"
       sodipodi:nodetypes="cccccccccccccccccc" />
    <path
       d="m 100.7,438.3 4,4 m 0,-4 -4,4 m 7.8,-183.4 4,4 m 0,-4 -4,4 m 17.7,-30.9 4,4 m 0,-4 -4,4 m -27.9,302.1 4,4 m 0,-4 -4,4 m -14.6,21.3 4,4 m 0,-4 -4,4 m 65.3,-439 4,4 m 0,-4 -4,4 m 48.9,508.6 4,4 m 0,-4 -4,4 m 108.5,-45.2 4,4 m 0,-4 -4,4 m -18.1,-167.9 4,4 m 0,-4 -4,4 m 85.8,-238.7 4,4 m 0,-4 -4,4"
       id="marqueV_001"
       stroke="#008000" />
    <g
       id="nums_001">
      <path
         d="m 121.6,369.9 0.3,1.2 0.9,0.5 1,0.2 1.1,-0.2 0.6,-0.7 0.7,-1.4 0.7,-1.1 1.1,-0.5 1,-0.3 1.5,0.2 0.9,0.6 0.5,0.4 0.3,1.2 -0.2,1.5 -0.7,1 -0.5,0.3 -1.1,0.2 -1.5,-0.2 -0.9,-0.5 -0.9,-0.9 -0.3,-1.2 -0.3,-1.5 -0.4,-0.8 -0.9,-0.6 -1,-0.1 -1,0.2 -0.7,1.1 -0.3,1.6 m 3.1,-4.2 -0.4,-0.8 -1.3,-1.4 10.3,1.6"
         stroke="#000000"
         stroke-width="1"
         id="path1" />
      <path
         d="m 44.8,350.5 -0.2,-1.2 -0.9,-0.6 -1,-0.2 -1.1,0.1 -0.6,0.6 -0.9,1.4 -0.7,1 -1.2,0.5 -1,0.1 -1.5,-0.4 -0.9,-0.5 -0.4,-0.5 -0.2,-1.2 0.4,-1.5 0.7,-1 0.6,-0.2 1.1,-0.2 1.4,0.4 0.9,0.6 0.8,1 0.2,1.2 0.2,1.5 0.3,0.9 0.9,0.6 0.9,0.2 1.1,-0.1 0.7,-1 0.4,-1.6 m -1.2,5.3 -1,4 -3.4,-3.1 -0.2,1.1 -0.7,0.6 -0.6,0.2 h -1.5 l -1,-0.2 -1.4,-0.7 -0.8,-1 -0.2,-1.2 0.3,-1.1 0.7,-1 0.6,-0.2 1.1,-0.1"
         stroke="#000000"
         stroke-width="1"
         id="path2" />
      <path
         d="m 132.5,308.1 0.3,1.2 0.9,0.6 1,0.2 1,-0.1 0.7,-0.7 0.8,-1.3 0.7,-1 1.1,-0.5 1.1,-0.2 1.5,0.3 0.9,0.6 0.4,0.5 0.2,1.2 -0.3,1.4 -0.7,1 -0.6,0.3 -1,0.1 -1.5,-0.3 -0.9,-0.5 -0.8,-1 -0.3,-1.2 -0.2,-1.6 -0.3,-0.8 -0.9,-0.6 -1,-0.2 -1,0.2 -0.7,1 -0.4,1.6 m 2.1,-9.6 9.4,5.9 m -10.5,-0.7 1.1,-5.2"
         stroke="#000000"
         stroke-width="1"
         id="path3" />
      <path
         d="m 125,429.9 0.7,1 1.1,0.2 1,-0.3 0.9,-0.6 0.3,-0.8 0.1,-1.6 0.2,-1.2 0.8,-1 0.9,-0.6 1.5,-0.3 1,0.1 0.6,0.3 0.8,1 0.3,1.4 -0.2,1.2 -0.4,0.5 -0.9,0.6 -1.5,0.4 -1,-0.2 -1.2,-0.5 -0.7,-1 -0.8,-1.3 -0.7,-0.6 -1.1,-0.2 -0.9,0.3 -0.9,0.6 -0.3,1.2 0.4,1.6 m -2.1,-8.4 7.7,2 -1.3,-5.4 m -6.4,3.4 10.3,-2.4"
         stroke="#000000"
         stroke-width="1"
         id="path4" />
      <path
         d="m 66.8,285.4 -0.1,-1.2 -0.8,-0.7 -0.9,-0.4 h -1.1 l -0.7,0.5 -1,1.2 -0.9,0.9 -1.2,0.3 H 59 l -1.4,-0.6 -0.8,-0.7 -0.3,-0.5 -0.1,-1.2 0.6,-1.4 0.9,-0.9 0.6,-0.2 h 1 l 1.4,0.6 0.8,0.7 0.7,1.1 v 1.2 1.6 l 0.1,0.9 0.8,0.7 1,0.3 1,0.1 0.9,-0.9 0.6,-1.6 m -4.3,4.1 0.5,0.2 0.8,0.7 0.3,0.6 0.2,0.8 -0.5,1.4 -0.8,0.5 -0.6,0.2 h -1 l -1,-0.4 -0.8,-0.7 -1.1,-1.2 -3.3,-5.4 -1.9,4.9"
         stroke="#000000"
         stroke-width="1"
         id="path5" />
      <path
         d="m 130.7,495.9 0.5,1.1 1,0.4 h 1 l 1,-0.4 0.5,-0.8 0.5,-1.5 0.4,-1.2 1,-0.7 1,-0.4 1.5,-0.1 1,0.4 0.5,0.3 0.5,1.1 0.1,1.5 -0.5,1.2 -0.5,0.4 -1,0.4 h -1.5 l -1,-0.3 -1,-0.8 -0.5,-1.1 -0.6,-1.5 -0.5,-0.7 -1,-0.3 h -1 l -1,0.4 -0.5,1.1 0.1,1.7 m -0.2,-6.6 0.5,1.1 1.1,0.3 h 1 l 0.9,-0.4 0.5,-0.7 0.5,-1.6 0.5,-1.1 0.9,-0.8 1,-0.4 h 1.5 l 1,0.3 0.5,0.4 0.6,1.1 v 1.5 l -0.5,1.2 -0.4,0.3 -1,0.4 -1.5,0.1 -1,-0.4 -1.1,-0.7 -0.5,-1.1 -0.5,-1.5 -0.6,-0.7 -1,-0.4 h -1 l -1,0.4 -0.4,1.2 v 1.7"
         stroke="#000000"
         stroke-width="1"
         id="path6" />
      <path
         d="m 94.4,223.9 -1.1,-1.1 -0.4,-1.2 0.2,-1.2 0.2,-0.3 1,-0.7 h 1.3 l 1.4,0.5 0.5,0.3 1,1.1 0.4,1.2 -0.2,1.2 -0.2,0.3 -1,0.7 h -1.3 l -1.8,-0.8 -2.1,-1.3 -1.9,-1.7 -0.8,-1.5 0.2,-1.2 0.4,-0.6 1,-0.7 1,0.3 m 2,8.8 0.4,0.3 0.6,0.9 0.3,0.6 v 0.9 l -0.9,1.2 -0.8,0.4 h -0.6 l -1.1,-0.2 -0.8,-0.6 -0.6,-0.9 -0.9,-1.4 -2.1,-5.9 -2.9,4.4"
         stroke="#000000"
         stroke-width="1"
         id="path7" />
      <path
         d="m 74.8,515.8 -1.3,-0.8 -0.8,-1 -0.1,-1.2 0.1,-0.3 0.8,-1 1.2,-0.4 1.5,0.1 0.5,0.1 1.3,0.8 0.8,1 0.1,1.3 -0.1,0.3 -0.8,0.9 -1.2,0.5 -2,-0.3 -2.4,-0.7 -2.3,-1.1 -1.2,-1.1 -0.1,-1.3 0.2,-0.7 0.8,-0.9 1.1,-0.1 m 4.3,8 0.5,0.1 0.8,0.7 0.4,0.5 0.3,0.8 -0.5,1.5 -0.7,0.6 -0.6,0.2 h -1 l -1,-0.3 -0.8,-0.6 -1.2,-1.2 -3.7,-5 -1.6,5"
         stroke="#000000"
         stroke-width="1"
         id="path8" />
      <path
         d="m 121.2,556.7 1.2,1 0.5,1.2 -0.2,1.2 -0.2,0.3 -1,0.8 -1.2,0.1 -1.5,-0.4 -0.4,-0.3 -1.1,-1 -0.5,-1.2 0.1,-1.2 0.2,-0.3 1,-0.7 1.2,-0.2 1.9,0.7 2.2,1.2 2,1.6 0.9,1.4 -0.1,1.2 -0.4,0.7 -1,0.7 -1,-0.2 m -3.1,-12.9 4.2,6.8 2.8,-4.9 m -7,-1.9 9.1,5.3"
         stroke="#000000"
         stroke-width="1"
         id="path9" />
      <path
         d="m 120.52808,163.10564 -1.4,-0.7 -0.8,-1 -0.2,-1.2 0.1,-0.3 0.7,-1 1.2,-0.5 h 1.5 l 0.5,0.1 1.4,0.7 0.8,1 0.2,1.2 -0.1,0.4 -0.7,0.9 -1.2,0.5 -2,-0.1 -2.5,-0.6 -2.3,-0.9 -1.3,-1.1 -0.2,-1.2 0.2,-0.8 0.8,-0.9 1,-0.2 m 6.9,9.5 -0.2,-1.2 -0.9,-0.6 -0.9,-0.2 -1.1,0.1 -0.7,0.6 -0.8,1.3 -0.8,1 -1.1,0.5 -1.1,0.1 -1.4,-0.3 -0.9,-0.6 -0.4,-0.5 -0.2,-1.2 0.3,-1.5 0.8,-1 0.6,-0.2 1,-0.1 1.5,0.3 0.9,0.6 0.8,1 0.2,1.2 0.1,1.6 0.3,0.8 0.9,0.6 1,0.3 1,-0.1 0.8,-1 0.4,-1.7"
         stroke="#000000"
         stroke-width="1"
         id="path10" />
      <path
         d="m 60.5,567 -1.4,-0.8 -0.8,-0.9 -0.2,-1.2 0.1,-0.4 0.7,-1 1.2,-0.5 h 1.5 l 0.5,0.1 1.4,0.7 0.8,1 0.2,1.2 -0.1,0.4 -0.7,0.9 -1.2,0.5 h -2 l -2.4,-0.6 -2.4,-1 -1.3,-1 -0.2,-1.2 0.2,-0.8 0.7,-1 1.1,-0.1 m 7,9.4 -0.2,-1.2 -0.9,-0.6 -1,-0.2 -1,0.1 -0.7,0.7 -0.8,1.3 -0.8,1 -1.1,0.5 -1.1,0.1 -1.4,-0.3 -0.9,-0.6 -0.4,-0.5 -0.3,-1.2 0.4,-1.5 0.7,-1 0.6,-0.2 1.1,-0.1 1.4,0.3 0.9,0.6 0.8,1 0.2,1.2 0.2,1.5 0.3,0.9 0.9,0.6 1,0.2 1,-0.1 0.8,-1 0.4,-1.6"
         stroke="#000000"
         stroke-width="1"
         id="path11" />
      <path
         d="m 169.8,112.4 -0.9,0.1 -1.7,0.8 5,-9.2 m -8.2,7.9 1.3,0.1 1.3,-1 1.6,-2 0.7,-1.3 0.8,-2.4 0.1,-1.7 -0.8,-1 -0.6,-0.3 -1.3,-0.1 -1.3,0.9 -1.5,2.1 -0.8,1.3 -0.8,2.4 -0.1,1.6 0.8,1 0.5,0.3 m -4.2,-2.3 -3.6,-1.9 3.9,-2.5 -1,-0.5 -0.4,-0.8 -0.1,-0.6 0.4,-1.5 0.4,-0.9 1.1,-1.1 1.1,-0.6 1.2,0.1 1,0.6 0.8,0.9 0.1,0.7 -0.2,1"
         stroke="#000000"
         stroke-width="1"
         id="path12" />
      <path
         d="m 144.2,117.8 v 0.9 l 0.8,1.7 -9.2,-5 m 7.9,8.2 0.1,-1.2 -1,-1.4 -2,-1.5 -1.3,-0.8 -2.4,-0.8 -1.7,-0.1 -0.9,0.8 -0.4,0.6 -0.1,1.2 1,1.4 2,1.5 1.3,0.8 2.4,0.8 1.6,0.1 1,-0.8 0.3,-0.4 m -3.9,2.2 v 0.9 l 0.8,1.7 -9.2,-5"
         stroke="#000000"
         stroke-width="1"
         id="path13" />
      <path
         d="m 105.9,604.9 1.5,0.4 1,0.8 0.5,1.1 v 0.4 l -0.6,1.1 -1,0.7 -1.5,0.4 h -0.5 l -1.5,-0.4 -1,-0.8 -0.4,-1.1 v -0.4 l 0.5,-1.1 1,-0.7 2,-0.4 h 2.5 l 2.5,0.4 1.5,0.8 0.5,1.1 v 0.8 l -0.6,1.1 -1,0.4 m -8.9,-10.9 10.5,3.9 m -10.5,1.4 v -5.3"
         stroke="#000000"
         stroke-width="1"
         id="path14" />
      <path
         d="m 52.6,620.1 0.4,0.8 1.3,1.3 -10.4,-1.4 m 10.3,4.8 -0.3,-1.2 -1.4,-0.9 -2.4,-0.7 -1.5,-0.2 -2.6,0.1 -1.5,0.5 -0.7,1.1 -0.1,0.7 0.4,1.2 1.4,1 2.4,0.6 1.5,0.2 h 2.5 l 1.6,-0.6 0.6,-1 0.1,-0.6 m -0.8,6.2 -0.3,-1.2 -1.4,-0.9 -2.5,-0.7 -1.4,-0.2 -2.6,0.1 -1.6,0.5 -0.6,1.1 -0.1,0.7 0.4,1.2 1.4,0.9 2.4,0.7 1.5,0.2 h 2.5 l 1.6,-0.6 0.6,-1 0.1,-0.6"
         stroke="#000000"
         stroke-width="1"
         id="path15" />
      <path
         d="m 123.5,654.4 -3.7,-0.1 -0.5,4.5 0.4,-0.5 1.1,-0.5 1.2,0.1 1.1,0.5 0.7,1 0.3,1.5 v 1 l -0.4,1.5 -0.8,1 -1.1,0.5 -1.1,-0.1 -1.1,-0.5 -0.4,-0.5 -0.3,-1 m 11,-6.8 -0.3,-1 -1.1,-0.5 h -0.8 l -1.1,0.5 -0.8,1.4 -0.4,2.5 -0.1,2.5 0.4,2 0.7,1.1 1.1,0.5 h 0.4 l 1.1,-0.5 0.8,-1 0.4,-1.5 v -0.5 l -0.3,-1.5 -0.8,-1 -1.1,-0.5 h -0.4 l -1.1,0.5 -0.8,0.9 -0.4,1.5"
         stroke="#000000"
         stroke-width="1"
         id="path16" />
      <path
         d="m 177.4,248.2 0.5,1.5 -0.1,1.3 -0.7,1 -0.3,0.2 -1.2,0.2 -1.2,-0.5 -1.1,-1 -0.2,-0.5 -0.5,-1.4 0.1,-1.3 0.6,-1 0.4,-0.2 1.2,-0.2 1.1,0.5 1.4,1.4 1.4,2.1 1,2.4 0.2,1.6 -0.7,1.1 -0.6,0.4 -1.3,0.1 -0.8,-0.6 m 0.6,-11 3.4,-2.2 0.3,4.5 0.9,-0.6 0.9,0.1 0.6,0.2 1.1,1 0.6,0.9 0.5,1.5 -0.1,1.2 -0.7,1 -1,0.6 -1.2,0.2 -0.6,-0.2 -0.8,-0.7"
         stroke="#000000"
         stroke-width="1"
         id="path17" />
      <path
         d="m 222.1,211.5 1,1.2 0.2,1.2 -0.3,1.2 -0.2,0.3 -1.1,0.5 h -1.3 l -1.4,-0.7 -0.4,-0.3 -0.9,-1.3 -0.3,-1.2 0.4,-1.2 0.2,-0.2 1.1,-0.6 1.3,0.1 1.7,1 2,1.6 1.6,1.8 0.7,1.6 -0.3,1.2 -0.5,0.5 -1.1,0.6 -1,-0.4 m 2.5,-11.6 0.9,1.2 0.3,1.3 -0.3,1.1 -0.3,0.3 -1.1,0.6 -1.2,-0.1 -1.4,-0.6 -0.4,-0.4 -0.9,-1.2 -0.3,-1.2 0.3,-1.2 0.3,-0.3 1.1,-0.5 h 1.2 l 1.8,1 1.9,1.6 1.7,1.9 0.7,1.5 -0.3,1.2 -0.5,0.6 -1.1,0.5 -1,-0.3"
         stroke="#000000"
         stroke-width="1"
         id="path18" />
      <path
         d="m 221.7,96.5 -0.2,0.9 0.1,1.8 -6.9,-7.9 m 4.6,10.4 0.5,-1.1 -0.4,-1.6 -1.4,-2.1 -1,-1.2 -1.9,-1.6 -1.6,-0.6 -1.1,0.3 -0.6,0.5 -0.5,1.1 0.4,1.7 1.4,2.1 0.9,1.1 2,1.7 1.5,0.6 1.2,-0.4 0.4,-0.3 m -5.9,5.3 -1.8,-7.8 -4.2,3.7 m 6,4.1 -6.9,-8"
         stroke="#000000"
         stroke-width="1"
         id="path19" />
      <path
         d="m 246.8,178.3 v -0.9 l -0.6,-1.8 8.6,6.2 m -6.9,-9.2 -0.2,1.3 0.8,1.4 1.8,1.8 1.2,0.9 2.3,1.1 1.6,0.3 1.1,-0.6 0.4,-0.7 0.3,-1.2 -0.8,-1.4 -1.8,-1.8 -1.2,-0.9 -2.3,-1.1 -1.7,-0.3 -1,0.6 -0.3,0.5 m 4.7,-2.3 -0.4,-0.3 -0.6,-0.9 -0.2,-0.6 v -0.9 l 0.9,-1.2 0.8,-0.3 h 0.7 l 1,0.2 0.8,0.6 0.6,0.9 0.8,1.5 1.9,5.9 3,-4.2"
         stroke="#000000"
         stroke-width="1"
         id="path20" />
      <path
         d="m 271.7,140.2 -1,-0.2 -1,0.7 -0.4,0.7 -0.2,1.2 0.9,1.4 1.9,1.6 2.2,1.3 1.9,0.8 1.2,-0.1 1,-0.7 0.2,-0.4 0.2,-1.2 -0.5,-1.1 -1,-1.2 -0.5,-0.2 -1.4,-0.5 -1.3,0.1 -1,0.7 -0.2,0.3 -0.2,1.3 0.5,1.1 1.1,1.1 m -1.6,-10.7 -0.2,1.2 0.9,1.4 1.9,1.7 1.3,0.7 2.3,1 1.7,0.2 1,-0.7 0.4,-0.6 0.2,-1.3 -0.9,-1.4 -2,-1.6 -1.2,-0.8 -2.4,-1 -1.6,-0.1 -1,0.7 -0.3,0.4"
         stroke="#000000"
         stroke-width="1"
         id="path21" />
      <path
         d="m 232.5,41.6 0.6,0.7 1.7,0.8 -10.4,1.9 m 11.3,1.4 -0.7,-1 -1.6,-0.5 -2.5,0.1 -1.5,0.3 -2.4,0.8 -1.3,1 -0.3,1.2 0.1,0.7 0.7,1.1 1.6,0.4 h 2.6 l 1.4,-0.3 2.4,-0.8 1.4,-1 0.3,-1.2 -0.1,-0.6 m 1.5,7.8 -7.6,-2.4 1,5.5 m 6.6,-3.1 -10.3,1.9"
         stroke="#000000"
         stroke-width="1"
         id="path22" />
      <path
         d="m 249.5,38.1 -0.8,0.5 -1.1,1.5 V 29.6 m -3.4,10.9 1.1,-0.5 0.7,-1.5 0.4,-2.5 V 34.5 L 246,32 245.3,30.5 244.2,30 h -0.8 l -1.1,0.5 -0.8,1.5 -0.3,2.5 V 36 l 0.3,2.5 0.8,1.5 1.1,0.5 h 0.6 m -4.7,0 h -4.2 l 2.3,-4 h -1.1 L 235.5,36 235.1,35.5 234.8,34 v -1 l 0.3,-1.5 0.8,-1 1.1,-0.5 h 1.1 l 1.2,0.5 0.3,0.5 0.4,1"
         stroke="#000000"
         stroke-width="1"
         id="path23" />
      <path
         d="m 44.1,446.3 -1.2,-0.3 -0.9,0.7 -0.5,0.8 -0.3,1 0.3,0.9 1,1.2 0.6,1.1 0.1,1.2 -0.2,1 -0.9,1.3 -0.9,0.6 -0.6,0.2 -1.2,-0.2 -1.2,-0.9 -0.7,-1 v -0.6 l 0.3,-1.1 0.8,-1.2 0.9,-0.6 1.2,-0.4 1.2,0.2 1.5,0.4 h 0.9 l 0.9,-0.6 0.5,-0.8 0.3,-1.1 -0.7,-1 -1.4,-0.9 m 3.1,5 0.3,-0.4 0.8,-0.6 0.6,-0.2 h 0.9 l 1.3,0.9 0.3,0.8 v 0.6 l -0.2,1.1 -0.6,0.8 -0.8,0.6 -1.5,0.8 -5.9,2 4.3,3"
         stroke="#000000"
         stroke-width="1"
         id="path24" />
      <path
         d="m 29.2,408.6 -0.1,-1.3 -0.9,-0.6 -0.9,-0.3 -1.1,0.1 -0.7,0.5 -0.9,1.3 -0.8,0.9 -1.2,0.5 h -1 l -1.5,-0.4 -0.8,-0.7 -0.4,-0.5 -0.1,-1.2 0.4,-1.4 0.8,-0.9 0.6,-0.3 h 1.1 l 1.4,0.4 0.8,0.7 0.8,1 0.1,1.2 0.1,1.6 0.2,0.8 0.9,0.7 0.9,0.3 1.1,-0.1 0.8,-0.9 0.5,-1.6 m -1.6,5.2 -1.2,3.9 -3.2,-3.3 -0.3,1.1 -0.7,0.6 -0.6,0.2 -1.5,-0.1 -1,-0.3 -1.3,-0.8 -0.8,-1 -0.1,-1.2 0.3,-1.1 0.8,-0.9 0.6,-0.2 1.1,-0.1"
         stroke="#000000"
         stroke-width="1"
         id="path25" />
      <path
         d="m 152.4,629 0.3,-1.5 0.6,-1.1 1.1,-0.6 h 0.4 l 1.1,0.4 0.9,0.9 0.5,1.4 v 0.5 l -0.2,1.6 -0.7,1 -1,0.6 -0.4,0.1 -1.2,-0.4 -0.8,-1 -0.6,-1.9 -0.2,-2.5 0.2,-2.5 0.6,-1.6 1,-0.6 0.8,-0.1 1.2,0.4 0.4,1 m -9.4,8.4 0.4,1 1.2,0.4 0.7,-0.1 1.1,-0.6 0.6,-1.6 0.2,-2.5 -0.3,-2.5 -0.5,-1.9 -0.9,-1 -1.1,-0.4 -0.4,0.1 -1.1,0.6 -0.6,1 -0.3,1.6 0.1,0.5 0.5,1.4 0.8,0.9 1.2,0.4 h 0.4 l 1,-0.6 0.7,-1.1 0.2,-1.5"
         stroke="#000000"
         stroke-width="1"
         id="path26" />
      <path
         d="m 217.9,631.5 0.6,-1.4 0.9,-0.9 1.2,-0.3 h 0.4 l 1,0.7 0.6,1.1 0.1,1.6 -0.1,0.5 -0.6,1.4 -0.9,0.8 -1.2,0.4 -0.3,-0.1 -1.1,-0.7 -0.6,-1.1 v -2 l 0.4,-2.5 0.8,-2.4 1,-1.4 1.1,-0.3 0.8,0.2 1,0.6 0.2,1.1 m -11.4,7.2 3.7,0.6 1.1,-4.4 -0.5,0.5 -1.2,0.3 -1.1,-0.2 -1,-0.7 -0.6,-1.1 -0.1,-1.5 0.1,-1 0.6,-1.4 0.9,-0.9 1.2,-0.3 1.1,0.2 1.1,0.7 0.3,0.5 0.2,1.1"
         stroke="#000000"
         stroke-width="1"
         id="path27" />
      <path
         d="m 243.7,671.4 -3.2,-1.9 -2.6,3.7 0.5,-0.2 1.3,0.1 0.9,0.6 0.7,1 0.2,1.2 -0.5,1.5 -0.5,0.9 -1.1,1.1 -1.1,0.4 -1.2,-0.1 -1,-0.6 -0.7,-1 -0.1,-0.6 0.2,-1.1 m 9.1,-1.5 0.3,-0.4 0.8,-0.7 0.6,-0.2 0.9,-0.1 1.3,0.8 0.4,0.8 0.1,0.6 -0.2,1.1 -0.5,0.8 -0.9,0.7 -1.4,0.9 -5.8,2.4 4.5,2.7"
         stroke="#000000"
         stroke-width="1"
         id="path28" />
      <path
         d="m 268.7,676 0.8,1.3 0.2,1.2 -0.4,1.2 -0.3,0.3 -1.1,0.5 -1.2,-0.2 -1.4,-0.7 -0.3,-0.4 -0.9,-1.3 -0.2,-1.2 0.4,-1.2 0.3,-0.2 1.1,-0.5 1.2,0.1 1.8,1.1 1.8,1.7 1.5,2 0.6,1.6 -0.4,1.1 -0.5,0.6 -1.1,0.5 -1,-0.5 m -1.1,-8.6 0.2,-0.9 -0.3,-1.8 7.6,7.2"
         stroke="#000000"
         stroke-width="1"
         id="path29" />
      <path
         d="m 298.8,642.3 0.9,1.2 0.2,1.3 -0.3,1.1 -0.3,0.3 -1.1,0.6 -1.2,-0.1 -1.4,-0.7 -0.4,-0.3 -0.9,-1.3 -0.2,-1.2 0.3,-1.2 0.2,-0.3 1.2,-0.5 1.2,0.1 1.8,1 1.9,1.6 1.6,1.9 0.7,1.6 -0.4,1.1 -0.5,0.6 -1.1,0.5 -1,-0.3 m -1.7,-11.9 -0.3,1.2 0.6,1.5 1.7,1.9 1.1,1 2.2,1.3 1.6,0.4 1.1,-0.5 0.5,-0.6 0.4,-1.1 -0.7,-1.6 -1.7,-1.9 -1.1,-1 -2.1,-1.3 -1.7,-0.4 -1.1,0.5 -0.3,0.5"
         stroke="#000000"
         stroke-width="1"
         id="path30" />
      <path
         d="m 281.6,605.7 -1,-1.3 -0.3,-1.2 0.3,-1.2 0.2,-0.3 1.1,-0.5 h 1.3 l 1.4,0.6 0.4,0.3 0.9,1.3 0.3,1.2 -0.3,1.2 -0.2,0.3 -1.1,0.5 h -1.2 l -1.8,-0.9 -2,-1.6 -1.7,-1.9 -0.7,-1.5 0.3,-1.2 0.5,-0.6 1,-0.5 1.1,0.3 m 0.7,13.6 2.3,-3 -3.3,-3.1 0.2,0.6 -0.3,1.2 -0.7,0.9 -1.1,0.6 -1.3,-0.1 -1.4,-0.6 -0.8,-0.6 -0.9,-1.3 -0.3,-1.2 0.3,-1.2 0.7,-0.8 1.1,-0.6 h 0.6 l 1,0.3"
         stroke="#000000"
         stroke-width="1"
         id="path31" />
      <path
         d="m 397.8,581.4 1.2,0.1 0.8,-0.7 0.5,-0.9 0.2,-1 -0.4,-0.8 -1.1,-1.2 -0.7,-1 -0.2,-1.2 0.2,-1.1 0.7,-1.3 0.8,-0.7 0.6,-0.2 1.2,0.1 1.3,0.7 0.8,1 0.1,0.6 -0.2,1.1 -0.7,1.3 -0.9,0.7 -1.1,0.5 -1.2,-0.1 -1.6,-0.3 h -0.9 l -0.8,0.7 -0.5,0.9 -0.2,1 0.8,1 1.4,0.9 m -5.7,-3.3 1.2,0.1 0.8,-0.7 0.5,-0.8 0.2,-1.1 -0.4,-0.8 -1.1,-1.2 -0.7,-1 -0.2,-1.2 0.2,-1.1 0.7,-1.3 0.8,-0.6 0.6,-0.3 1.2,0.1 1.3,0.8 0.8,1 0.1,0.6 -0.2,1 -0.7,1.3 -0.9,0.7 -1.1,0.5 -1.2,-0.1 -1.6,-0.3 -0.9,0.1 -0.8,0.6 -0.5,0.9 -0.2,1.1 0.8,1 1.4,0.8"
         stroke="#000000"
         stroke-width="1"
         id="path32" />
      <path
         d="m 372.3,597.9 -0.9,0.8 v 1.1 l 0.3,0.9 0.7,0.8 0.9,0.3 1.6,-0.1 1.2,0.1 1,0.7 0.7,0.8 0.5,1.5 v 1 l -0.2,0.6 -0.9,0.9 -1.4,0.5 -1.2,-0.1 -0.6,-0.4 -0.7,-0.8 -0.5,-1.4 0.1,-1.1 0.3,-1.2 0.9,-0.8 1.3,-1 0.5,-0.7 0.1,-1.1 -0.4,-0.9 -0.7,-0.8 -1.2,-0.1 -1.6,0.5 m 9.2,-1.6 -0.6,-0.9 h -1.3 l -0.7,0.2 -0.9,0.8 -0.2,1.7 0.5,2.5 0.8,2.3 1,1.8 1.1,0.7 1.2,0.1 0.4,-0.1 0.9,-0.9 0.3,-1.2 -0.1,-1.5 -0.2,-0.5 -0.8,-1.3 -1.1,-0.7 -1.2,-0.1 -0.3,0.2 -0.9,0.8 -0.4,1.2 0.1,1.5"
         stroke="#000000"
         stroke-width="1"
         id="path33" />
      <path
         d="m 335.2,534 1.3,-0.9 1.3,-0.2 1.1,0.4 0.3,0.3 0.5,1.1 -0.2,1.3 -0.7,1.3 -0.4,0.4 -1.3,0.8 -1.2,0.2 -1.2,-0.4 -0.2,-0.3 -0.5,-1.1 0.1,-1.2 1.1,-1.7 1.7,-1.9 2,-1.5 1.6,-0.6 1.2,0.4 0.5,0.5 0.5,1.2 -0.4,0.9 m -13.3,0.1 7.6,-2.6 -4.1,-3.8 m -3.5,6.4 7.2,-7.7"
         stroke="#000000"
         stroke-width="1"
         id="path34" />
      <path
         d="m 298.8,537 -1.5,-0.2 -1.1,-0.6 -0.7,-1 -0.1,-0.4 0.4,-1.2 0.9,-0.9 1.4,-0.6 h 0.5 l 1.5,0.1 1.1,0.6 0.7,1 v 0.4 l -0.3,1.2 -0.9,0.9 -1.9,0.7 -2.5,0.3 h -2.5 l -1.6,-0.5 -0.7,-1 -0.1,-0.8 0.4,-1.2 0.9,-0.5 m 8.9,9 0.9,-0.5 0.4,-1.2 -0.1,-0.8 -0.7,-1 -1.6,-0.5 H 298 l -2.5,0.3 -1.9,0.7 -0.9,0.9 -0.3,1.2 v 0.4 l 0.7,1 1.1,0.6 1.5,0.1 h 0.5 l 1.5,-0.6 0.8,-0.9 0.4,-1.2 -0.1,-0.4 -0.7,-1 -1,-0.6 -1.6,-0.2"
         stroke="#000000"
         stroke-width="1"
         id="path35" />
      <path
         d="m 302.8,515.6 0.4,-1.5 0.8,-1 1.1,-0.5 h 0.4 l 1.1,0.5 0.8,1 0.3,1.5 v 0.5 l -0.4,1.5 -0.7,1 -1.2,0.5 h -0.3 l -1.2,-0.5 -0.7,-1 -0.4,-2 0.1,-2.5 0.4,-2.5 0.7,-1.5 1.2,-0.5 h 0.7 l 1.1,0.5 0.4,1 m -10.8,8.9 3.8,-10.4 m 1.4,10.5 -5.2,-0.1"
         stroke="#000000"
         stroke-width="1"
         id="path36" />
      <path
         d="m 296.7,97.3 -0.1,-0.9 -0.8,-1.7 9.3,4.9 m -8,-8.1 -0.1,1.2 1,1.4 2,1.5 1.4,0.7 2.3,0.8 h 1.7 l 1,-0.7 0.3,-0.7 0.1,-1.2 -1,-1.4 -2,-1.5 -1.3,-0.7 -2.4,-0.8 h -1.7 l -1,0.7 -0.2,0.5 m 2.9,-5.5 -0.1,1.2 1,1.4 2,1.5 1.4,0.7 2.3,0.8 1.7,0.1 1,-0.8 0.3,-0.7 0.1,-1.2 -1,-1.4 -2,-1.5 -1.3,-0.7 -2.4,-0.8 h -1.7 l -0.9,0.7 -0.3,0.5"
         stroke="#000000"
         stroke-width="1"
         id="path37" />
      <path
         d="m 298.8,57.2 -0.9,0.1 -1.7,0.8 4.9,-9.3 m -8.1,8 1.2,0.1 1.4,-1 1.5,-2 0.7,-1.4 0.8,-2.3 v -1.7 l -0.7,-1 -0.7,-0.3 -1.2,-0.1 -1.4,1 -1.5,2 -0.7,1.3 -0.8,2.4 v 1.7 l 0.7,1 0.5,0.2 m -2.3,-3.8 -0.9,0.1 -1.7,0.8 4.9,-9.3"
         stroke="#000000"
         stroke-width="1"
         id="path38" />
      <path
         d="m 285.71798,436.46739 -0.4,-1.2 -1,-0.4 h -1 l -1,0.3 -0.6,0.7 -0.5,1.5 -0.6,1.1 -1,0.7 -1,0.4 -1.5,-0.1 -1,-0.4 -0.5,-0.4 -0.4,-1.2 v -1.5 l 0.6,-1.1 0.5,-0.3 1,-0.4 1.5,0.1 1,0.4 1,0.8 0.4,1.2 0.4,1.5 0.5,0.8 1,0.4 h 1 l 1,-0.3 0.6,-1.1 v -1.7 m -2.5,4.5 0.4,0.8 1.5,1.2 -10.5,-0.5"
         stroke="#000000"
         stroke-width="1"
         id="path39" />
      <path
         d="m 290.9,453.6 h -1.3 l -0.7,0.7 -0.5,0.9 v 1.1 l 0.4,0.8 1.2,1.1 0.8,0.9 0.2,1.2 -0.1,1.1 -0.6,1.3 -0.8,0.8 -0.5,0.3 -1.3,-0.1 -1.3,-0.6 -0.8,-0.9 -0.1,-0.6 v -1.1 l 0.7,-1.4 0.7,-0.7 1.2,-0.6 h 1.2 l 1.6,0.2 0.8,-0.1 0.8,-0.7 0.4,-0.9 0.1,-1.1 -0.8,-0.9 -1.5,-0.8 m 8.3,4 -3.4,-1.6 -2.2,3.9 0.5,-0.3 h 1.3 l 1,0.5 0.8,0.9 0.2,1.3 -0.3,1.5 -0.4,0.9 -1,1.2 -1.1,0.6 -1.2,-0.1 -1,-0.5 -0.8,-0.9 -0.2,-0.6 0.1,-1.1"
         stroke="#000000"
         stroke-width="1"
         id="path40" />
      <path
         d="m 454.8,451 h -0.5 l -1,-0.4 -0.5,-0.4 -0.5,-0.8 0.1,-1.5 0.5,-0.7 0.5,-0.3 1,-0.4 h 1 l 1,0.4 1.5,0.8 4.9,3.9 0.1,-5.2"
         stroke="#000000"
         stroke-width="1"
         id="path41" />
      <path
         d="m 418.2,495.8 3.9,-1.3 -0.9,4.5 1.1,-0.3 0.8,0.2 0.6,0.4 0.8,1.3 0.3,0.9 0.1,1.6 -0.4,1.2 -1,0.8 -1,0.3 -1.2,-0.1 -0.6,-0.4 -0.6,-0.8 m 9.2,-8.2 0.1,1.5 -0.4,1.2 -0.9,0.8 -0.4,0.1 -1.2,-0.1 -1,-0.7 -0.8,-1.3 -0.2,-0.5 -0.1,-1.6 0.4,-1.1 1,-0.9 0.3,-0.1 1.2,0.2 1.1,0.7 0.9,1.8 0.8,2.3 0.4,2.5 -0.3,1.7 -0.9,0.8 -0.7,0.2 -1.2,-0.1 -0.7,-0.8"
         stroke="#000000"
         stroke-width="1"
         id="path42" />
      <path
         d="m 352.4,484.1 -6.5,4.5 5,2.6 m 1.5,-7.1 -4.8,9.3 m 9.5,-6.8 -1.3,-0.1 -1.3,1 -1.5,2.1 -0.7,1.3 -0.8,2.4 v 1.7 l 0.8,0.9 0.7,0.4 1.2,0.1 1.3,-1 1.5,-2.1 0.7,-1.3 0.8,-2.4 v -1.7 l -0.8,-1 -0.5,-0.2"
         stroke="#000000"
         stroke-width="1"
         id="path43" />
      <path
         d="m 446.7,376.4 -0.8,-0.6 -1.7,-0.5 9.9,-3.4 m -10.9,1.7 -1.3,-4 4.5,0.9 -0.3,-1.1 0.2,-0.8 0.4,-0.5 1.3,-0.9 0.9,-0.3 1.6,-0.1 1.1,0.4 0.9,0.9 0.3,1.1 -0.1,1.2 -0.3,0.5 -0.9,0.7"
         stroke="#000000"
         stroke-width="1"
         id="path44" />
      <path
         d="m 284.3,362.1 -0.6,-1 -1,-0.3 -1,0.1 -1,0.4 -0.4,0.8 -0.4,1.5 -0.4,1.2 -0.9,0.8 -1,0.5 -1.5,0.1 -1,-0.3 -0.5,-0.3 -0.6,-1.1 -0.1,-1.5 0.4,-1.1 0.4,-0.4 1,-0.5 1.5,-0.1 1,0.3 1.1,0.6 0.6,1.1 0.6,1.4 0.6,0.8 1,0.2 h 1 l 0.9,-0.5 0.5,-1.2 -0.2,-1.6 m 0.8,9.7 -10.7,-2.8 m 10.3,-2.4 0.4,5.2"
         stroke="#000000"
         stroke-width="1"
         id="path45" />
      <path
         d="m 290.9,304.7 -1.3,-0.9 -0.6,-1 -0.1,-1.2 0.1,-0.4 0.9,-0.9 1.2,-0.3 1.5,0.2 0.5,0.1 1.3,0.9 0.6,1.1 0.1,1.2 -0.1,0.3 -0.9,0.9 -1.2,0.4 -2,-0.4 -2.3,-0.9 -2.2,-1.2 -1.2,-1.2 -0.1,-1.2 0.3,-0.7 0.9,-0.9 h 1 m 6.2,9.1 -1.4,3.9 -3,-3.5 -0.4,1 -0.7,0.6 -0.6,0.1 -1.6,-0.1 -0.9,-0.4 -1.3,-0.9 -0.6,-1 -0.1,-1.2 0.4,-1.1 0.8,-0.9 0.6,-0.2 h 1.1"
         stroke="#000000"
         stroke-width="1"
         id="path46" />
      <path
         d="m 435.6,309.5 -0.4,-0.8 -1.4,-1.3 10.5,1 m -10.5,-4.1 0.4,1.2 0.9,0.5 1,0.1 1.1,-0.3 0.5,-0.7 0.7,-1.4 0.6,-1.1 1,-0.7 1.1,-0.2 1.5,0.1 0.9,0.5 0.5,0.4 0.4,1.2 -0.2,1.5 -0.6,1 -0.5,0.4 -1,0.2 -1.5,-0.1 -1,-0.5 -0.9,-0.8 -0.4,-1.2 -0.4,-1.5 -0.4,-0.8 -0.9,-0.5 -1,-0.1 -1.1,0.3 -0.6,1.1 -0.1,1.6"
         stroke="#000000"
         stroke-width="1"
         id="path47" />
      <path
         d="m 304.5,242.2 -1.5,-0.4 -1,-0.8 -0.5,-1.1 0.1,-0.4 0.5,-1.1 1,-0.8 1.5,-0.3 h 0.5 l 1.5,0.4 1,0.8 0.5,1.2 -0.1,0.3 -0.5,1.1 -1,0.8 -2,0.3 -2.5,-0.1 -2.5,-0.4 -1.5,-0.8 -0.5,-1.2 0.1,-0.7 0.5,-1.1 1,-0.4 m 5.2,10.7 -1.5,-0.4 -1,-0.8 -0.4,-1.1 v -0.4 l 0.5,-1.1 1,-0.7 1.6,-0.3 h 0.5 l 1.4,0.4 1,0.8 0.5,1.1 v 0.4 l -0.6,1.1 -1,0.7 -2,0.3 h -2.5 l -2.5,-0.5 -1.5,-0.8 -0.4,-1.1 v -0.7 l 0.5,-1.2 1,-0.3"
         stroke="#000000"
         stroke-width="1"
         id="path48" />
      <path
         d="m 445.6,255.7 -0.5,-0.2 -0.8,-0.6 -0.4,-0.5 -0.2,-0.9 0.4,-1.4 0.7,-0.6 0.6,-0.2 h 1.1 l 0.9,0.3 0.9,0.6 1.2,1.2 3.5,5.2 1.7,-5 m -8.2,-8.7 -1.2,3.6 4.2,1.7 -0.4,-0.5 -0.1,-1.2 0.3,-1.1 0.9,-0.9 1.1,-0.4 1.6,0.1 0.9,0.4 1.3,0.8 0.8,1 0.1,1.2 -0.4,1.1 -0.8,0.9 -0.6,0.2 h -1.1"
         stroke="#000000"
         stroke-width="1"
         id="path49" />
      <path
         d="m 451.8,217.5 -0.5,0.1 -1,-0.1 -0.6,-0.3 -0.6,-0.6 -0.3,-1.5 0.3,-0.8 0.4,-0.5 0.9,-0.6 1,-0.2 1,0.2 1.6,0.4 5.7,2.6 -1.1,-5.1 m -8.1,-4.5 1.5,0.1 1.2,0.5 0.7,1 0.1,0.4 -0.3,1.2 -0.8,0.9 -1.4,0.7 -0.5,0.1 h -1.5 l -1.1,-0.6 -0.8,-1 v -0.3 l 0.2,-1.2 0.8,-1 1.9,-0.8 2.4,-0.5 2.6,-0.2 1.6,0.5 0.7,1 0.2,0.7 -0.3,1.2 -0.9,0.6"
         stroke="#000000"
         stroke-width="1"
         id="path50" />
      <path
         d="m 300.6,184.4 0.6,0.6 1.7,0.9 -10.3,1.8 m 11.3,1.5 -0.7,-1 -1.6,-0.5 -2.6,0.1 -1.4,0.2 -2.4,0.8 -1.4,1 -0.3,1.2 0.2,0.8 0.7,1 1.6,0.5 2.5,-0.1 1.5,-0.3 2.4,-0.8 1.3,-1 0.3,-1.2 -0.1,-0.5 m -1.6,5 0.4,-0.1 1.1,0.2 0.6,0.3 0.6,0.6 0.2,1.5 -0.3,0.8 -0.4,0.5 -1,0.5 -0.9,0.2 -1.1,-0.2 -1.6,-0.5 -5.6,-2.8 0.9,5.2"
         stroke="#000000"
         stroke-width="1"
         id="path51" />
      <path
         d="m 316.5,159.7 2.6,-2.7 -3,-3.4 0.1,0.6 -0.4,1.2 -0.8,0.8 -1.1,0.5 -1.3,-0.2 -1.3,-0.7 -0.7,-0.7 -0.9,-1.3 -0.2,-1.2 0.4,-1.2 0.8,-0.8 1.1,-0.5 0.7,0.1 0.9,0.4 m -4.1,11.7 -0.8,-1.4 -0.2,-1.2 0.4,-1.1 0.2,-0.3 1.2,-0.5 1.2,0.2 1.3,0.7 0.4,0.4 0.8,1.3 0.3,1.2 -0.5,1.2 -0.2,0.2 -1.2,0.5 -1.2,-0.1 -1.7,-1.1 -1.8,-1.8 -1.6,-2 -0.5,-1.5 0.4,-1.2 0.5,-0.5 1.1,-0.5 1,0.4"
         stroke="#000000"
         stroke-width="1"
         id="path52" />
      <path
         d="m 372.9,138.6 3.7,-0.6 -0.2,-4.5 -0.3,0.6 -1.1,0.6 -1.1,0.2 -1.2,-0.3 -0.9,-0.9 -0.6,-1.4 -0.1,-1 0.1,-1.6 0.6,-1.1 1.1,-0.6 1.1,-0.2 1.2,0.3 0.4,0.5 0.5,0.9 m -7,9.6 1.1,-0.6 0.2,-1.1 -0.1,-1 -0.5,-0.9 -0.9,-0.4 -1.5,-0.3 -1.2,-0.3 -0.9,-0.9 -0.5,-0.9 -0.2,-1.5 0.2,-1 0.3,-0.6 1,-0.6 1.5,-0.3 1.2,0.4 0.5,0.4 0.5,1 0.2,1.4 -0.2,1.1 -0.6,1.1 -1.1,0.6 -1.4,0.7 -0.7,0.7 -0.2,1 0.2,1 0.5,0.9 1.2,0.4 1.6,-0.3"
         stroke="#000000"
         stroke-width="1"
         id="path53" />
      <path
         d="m 425,162.5 1.9,3.2 4,-2 -0.6,-0.1 -1,-0.7 -0.6,-0.9 -0.1,-1.3 0.4,-1.1 1.1,-1.1 0.9,-0.5 1.5,-0.5 1.2,0.1 1,0.7 0.6,1 0.1,1.2 -0.2,0.6 -0.6,0.8 m -13.3,-5.4 10.9,-2.2 m -8.2,6.7 -2.7,-4.5"
         stroke="#000000"
         stroke-width="1"
         id="path54" />
    </g>
    <path
       d="m 71.621449,418.56745 1.1,-0.7 1.7,-2.3 v 15.8"
       id="titre_1"
       stroke="#4b0082"
       style="stroke-width:2.53872" />
    <path
       d="m 331.9,304.3 v -0.7 l 0.6,-1.5 0.6,-0.8 1.1,-0.7 h 2.2 l 1.2,0.7 0.5,0.8 0.6,1.5 v 1.5 l -0.6,1.5 -1.1,2.2 -5.6,7.5 h 7.9"
       id="titre_2"
       stroke="#4b0082"
       style="stroke-width:2.53872" />
  </g>
  <g
     id="page_002"
     transform="translate(-0.29101055,0.29101055)">
    <path
       d="m 986.8,120.2 20.1,93.9 -45.4,-4.1 1.6,45.6 -30.8,23.5 33.5,19.4 1.2,96 17.2,74.2 -25.2,46.5 48,21.8 -34.2,46.2 46.1,34.4 -19.7,73.7 -91.4,-7.8 -40.9,-56.1 -121.7,44 -78.7,29.5 -52.1,37.2 -44,-115.1 18.5,-47.7 39.4,3.5 91.1,23 60.7,-49.2 88.5,-3.8 2.8,-76.6 4.8,-51.8 41.1,-9 -35,-40.3 -48.4,-46 36.3,-8.6 -52.9,-46.4 -33.3,78.5 -73.5,-19.8 9,-40.6 -17.5,-80.6 -91.3,1.3 -48.1,25 -9.5,-31.9 58.7,-169.7 45.9,63.5 77.2,13.3 -3.4,-74.6 128.2,-18 -46.7,87.6 75.5,-64.5 7.35,68.7 z m -251.6,261.7 68.7,48.4 -5.7,74.5 -75.7,20 -74,-25.7 15.9,-52.5 -5.2,-43.4 16.6,-45 z"
       id="coupes_002"
       stroke="#ff0000"
       stroke-width="1.27"
       sodipodi:nodetypes="cccccccccccccccccccccccccccccccccccccccccccccccccccccccc" />
    <path
       d="m 883.3,220.4 -21.5,-38.1 99.7,27.7 z m 0,0 49,58.7 -115,-9 L 702,207.6 Z M 734.9,109.1 813,104.1 731.5,34.5 M 986.8,120.2 961.5,210 895.85,108.3 813,104.1 861.2,182.6 702,207.6 657.7,95.8 m 212.5,220.7 62.1,-37.4 -50,92 m 83.5,-72.6 -48.5,112.9 66.9,57.3 m -112.8,3.5 87.6,43 -41.7,-103.8 m -48.7,137.4 90.4,-33.6 13.8,68 26.4,108.1 m -26.4,-108.1 -104.2,-34.4 -149.2,53 -52.9,99.1 -38.2,-122.1 -13.9,159.3 m 252.5,-110.7 105.9,-44.2 -65,100.3 M 866.9,627.4 719.4,601.8 M 611.8,32.3 610.7,208.9 553.1,202 M 784,348.6 719.5,288.2 m 3,236.6 -58.1,-78.2 139.5,-16.3 m -144.7,-27.1 76,-21.3"
       id="plisM_002"
       stroke="#a52a2a"
       stroke-dasharray="4"
       sodipodi:nodetypes="ccccccccccccccccccccccccccccccccccccccccccccccccccccc" />
    <path
       d="m 719.5,288.2 97.8,-18.1 66,-49.7 79.8,35.2 M 702,207.6 734.9,109.1 861.5,182.45 895.9,108 m -285.2,100.9 47,-113.1 m 224.6,275.3 -12.1,-54.6 m 62.1,-37.4 -15,132.3 -45.9,60.8 m 95.6,-77.7 -49.7,16.9 m -50.4,216 1.7,-78.6 M 745.2,671.4 719.4,601.8 m -149,21.2 57.9,-44.2 m 175.6,-148.5 -81.4,94.5 m -58.1,-78.2 70.8,-64.7"
       id="plisV_002"
       stroke="#008000"
       stroke-dasharray="4, 1, 1, 1"
       stroke-width="1.27"
       sodipodi:nodetypes="ccccccccccccccccccccccccccc" />
    <path
       d="m 921.2,236 4,4 m 0,-4 -4,4 m -44.4,-96.9 4,4 m 0,-4 -4,4 m -28.5,96.2 4,4 m 0,-4 -4,4 m -81.9,29.8 4,4 m 0,-4 -4,4 m -50,-124.8 4,4 m 0,-4 -4,4 m 79.6,-16.4 4,4 m 0,-4 -4,4 m -163.8,2.4 4,4 m 0,-4 -4,4 m 242.1,187.5 4,4 m 0,-4 -4,4 m 48.5,-2.6 4,4 m 0,-4 -4,4 m 17.3,53.7 4,4 m 0,-4 -4,4 m -47.8,34.9 4,4 m 0,-4 -4,4 m -26.5,142.3 4,4 m 0,-4 -4,4 m -135.5,44.5 4,4 m 0,-4 -4,4 m -132.9,-39.7 4,4 m 0,-4 -4,4 m 163.8,-127.3 4,4 m 0,-4 -4,4 m -63.4,-67.3 4,4 m 0,-4 -4,4"
       id="marqueV_002"
       stroke="#008000" />
    <g
       id="nums_002">
      <path
         d="m 937.9,257.5 -2.9,2.3 2.4,3.8 V 263 l 0.6,-1.1 0.9,-0.7 1.2,-0.3 1.2,0.4 1.2,0.9 0.6,0.8 0.6,1.4 v 1.3 l -0.6,1.1 -0.9,0.6 -1.2,0.3 -0.6,-0.1 -0.9,-0.6 m 1.8,-12 -0.6,1 0.3,1.7 1.2,2.2 0.9,1.2 1.8,1.8 1.5,0.7 1.2,-0.3 0.6,-0.5 0.6,-1 -0.3,-1.7 -1.2,-2.2 -0.9,-1.2 -1.8,-1.7 -1.6,-0.8 -1.2,0.3 -0.4,0.4"
         stroke="#000000"
         stroke-width="1"
         id="path55" />
      <path
         d="m 948.6,235 0.1,3.8 4.5,0.2 -0.5,-0.4 -0.5,-1.1 -0.1,-1.1 0.5,-1.1 1,-0.8 1.4,-0.4 1,-0.1 1.6,0.3 1,0.8 0.5,1.1 0.1,1.1 -0.5,1.1 -0.5,0.4 -1,0.4 m -8.7,-6.8 -0.2,-4.1 4.1,2.1 v -1.2 l 0.4,-0.7 0.5,-0.4 1.5,-0.4 1,-0.1 1.5,0.3 1.1,0.8 0.5,1.1 v 1.1 l -0.4,1.1 -0.5,0.4 -1,0.4"
         stroke="#000000"
         stroke-width="1"
         id="path56" />
      <path
         d="m 723.8,243.2 -0.8,-3.6 -4.5,0.5 0.6,0.3 0.7,1 0.3,1.1 -0.3,1.2 -0.8,1 -1.4,0.6 -1,0.2 h -1.5 l -1.1,-0.5 -0.8,-1 -0.2,-1.1 0.2,-1.2 0.5,-0.5 0.8,-0.6 m 10.8,9.5 -11.1,-1.5 m 10,-3.7 1.1,5.2"
         stroke="#000000"
         stroke-width="1"
         id="path57" />
      <path
         d="m 861.9,80.5 -1.7,-7.8 -4.3,3.7 m 6,4.1 -6.8,-8 m 1,12.8 2.9,-2.4 -2.7,-3.7 0.1,0.6 -0.5,1.1 -0.9,0.8 -1.2,0.3 -1.2,-0.3 -1.3,-0.9 -0.6,-0.7 -0.7,-1.4 -0.1,-1.3 0.6,-1.1 0.8,-0.7 1.2,-0.3 0.6,0.1 0.9,0.5"
         stroke="#000000"
         stroke-width="1"
         id="path58" />
      <path
         d="m 878.7,78.4 7.3,3 -0.6,-5.6 m -6.7,2.6 10.4,-1.1 m -8.2,-2.8 h -0.5 l -1.1,-0.2 -0.5,-0.4 -0.6,-0.6 -0.1,-1.5 0.4,-0.8 0.4,-0.5 1,-0.4 1,-0.1 1,0.2 1.6,0.6 5.4,3.2 -0.6,-5.2"
         stroke="#000000"
         stroke-width="1"
         id="path59" />
      <path
         d="m 695.7,116.3 3.7,0.6 1.1,-4.3 -0.4,0.4 -1.2,0.3 -1.1,-0.2 -1.1,-0.7 -0.5,-1.1 -0.1,-1.5 0.1,-1 0.7,-1.4 0.9,-0.9 1.2,-0.3 1.1,0.2 1,0.7 0.3,0.5 0.2,1.1 m -12.2,6.5 3.7,0.7 1.1,-4.4 -0.4,0.4 -1.2,0.3 -1.1,-0.2 -1.1,-0.7 -0.5,-1.1 -0.1,-1.5 0.1,-1 0.6,-1.4 1,-0.9 1.1,-0.3 1.2,0.2 1,0.7 0.3,0.6 0.2,1"
         stroke="#000000"
         stroke-width="1"
         id="path60" />
      <path
         d="m 848.7,279.3 3.1,2.8 -4.3,1.5 0.8,0.7 0.3,0.9 -0.1,0.6 -0.7,1.4 -0.7,0.7 -1.2,0.9 -1.3,0.3 -1.1,-0.4 -0.9,-0.7 -0.5,-1.1 0.1,-0.7 0.3,-1 m 11,-1.6 3.1,2.7 -4.3,1.5 0.8,0.7 0.3,0.9 -0.1,0.6 -0.7,1.4 -0.6,0.8 -1.3,0.8 -1.2,0.3 -1.2,-0.4 -0.9,-0.7 -0.5,-1.1 0.1,-0.6 0.3,-1"
         stroke="#000000"
         stroke-width="1"
         id="path61" />
      <path
         d="m 654.4,194.5 h -3.8 l -0.3,4.5 0.4,-0.5 1.1,-0.5 h 1.1 l 1.1,0.5 0.8,1 0.4,1.5 v 1 l -0.3,1.5 -0.8,1 -1.1,0.5 h -1.1 l -1.2,-0.5 -0.3,-0.5 -0.4,-0.9 m 8.2,-8.7 -1.2,0.5 -0.3,1.1 v 1 l 0.4,0.9 0.7,0.5 1.6,0.5 1.1,0.5 0.8,1 0.3,1 0.1,1.5 -0.4,1 -0.4,0.5 -1.1,0.5 h -1.5 l -1.1,-0.5 -0.4,-0.4 -0.4,-1 v -1.5 l 0.4,-1 0.7,-1.1 1.1,-0.5 1.5,-0.5 0.7,-0.5 0.4,-1 v -1 l -0.4,-1 -1.1,-0.5 H 658"
         stroke="#000000"
         stroke-width="1"
         id="path62" />
      <path
         d="m 908.4,380 -7.8,1.8 3.7,4.2 m 4.1,-6 -8,6.9 m 11.1,-3.1 -1.1,-0.5 -1,0.4 -0.7,0.6 -0.5,0.9 0.1,0.9 0.6,1.5 0.3,1.2 -0.2,1.2 -0.5,0.9 -1.2,1 -1,0.4 h -0.6 l -1.1,-0.5 -1,-1.1 -0.4,-1.2 0.2,-0.6 0.5,-0.9 1.1,-1 1,-0.4 1.3,-0.1 1.1,0.5 1.3,0.8 0.9,0.3 1,-0.4 0.8,-0.6 0.5,-1 -0.4,-1.2 -1.1,-1.2"
         stroke="#000000"
         stroke-width="1"
         id="path63" />
      <path
         d="m 943.7,301.6 3.2,1.9 2.6,-3.7 -0.5,0.2 -1.3,-0.1 -0.9,-0.6 -0.8,-1 -0.1,-1.2 0.4,-1.5 0.5,-0.9 1.1,-1.1 1.1,-0.5 1.3,0.2 0.9,0.5 0.8,1 v 0.6 l -0.1,1.1 m -11.8,3 1.2,0.1 1.4,-0.9 1.6,-2 0.7,-1.3 1,-2.3 0.1,-1.7 -0.8,-1 -0.6,-0.4 -1.2,-0.1 -1.4,0.9 -1.6,2 -0.8,1.3 -0.9,2.3 -0.1,1.7 0.7,1 0.5,0.3"
         stroke="#000000"
         stroke-width="1"
         id="path64" />
      <path
         d="m 952.6,349.5 7,3.7 -0.1,-5.6 m -6.9,1.9 10.5,-0.1 m -7,-7.8 1.5,0.3 1,0.7 0.5,1.2 v 0.3 l -0.5,1.2 -1,0.7 -1.5,0.4 h -0.5 l -1.5,-0.3 -1,-0.8 -0.5,-1.1 v -0.4 l 0.5,-1.1 1,-0.7 2,-0.4 2.5,-0.1 2.5,0.4 1.5,0.7 0.5,1.1 v 0.8 l -0.5,1.1 -1,0.4"
         stroke="#000000"
         stroke-width="1"
         id="path65" />
      <path
         d="m 962.7,437.5 7.7,2.1 -1.3,-5.5 m -6.4,3.4 10.2,-2.3 m -10.3,-5.4 -0.9,0.6 -0.3,1.2 0.2,0.7 0.8,1 1.6,0.4 2.5,-0.2 2.4,-0.5 1.9,-0.9 0.8,-0.9 0.2,-1.2 v -0.4 l -0.8,-1 -1.1,-0.5 h -1.6 l -0.5,0.1 -1.3,0.7 -0.8,1 -0.3,1.2 0.1,0.3 0.7,1 1.2,0.5 1.5,0.1"
         stroke="#000000"
         stroke-width="1"
         id="path66" />
      <path
         d="m 956.9,490.2 1.9,-3.6 2.5,3.9 0.5,-1 0.8,-0.4 0.6,-0.1 1.5,0.4 0.9,0.4 1.1,1.1 0.6,1.1 -0.1,1.3 -0.6,0.9 -1,0.8 -0.6,0.1 -1,-0.2 m -2,-14.1 7.4,8.3 m -9.9,-3.7 2.5,-4.6"
         stroke="#000000"
         stroke-width="1"
         id="path67" />
      <path
         d="m 883.7,512.5 0.1,-3.8 -4.4,-0.5 0.5,0.4 0.4,1.1 v 1.1 l -0.6,1.1 -1,0.8 -1.5,0.3 -1,-0.1 -1.5,-0.4 -1,-0.8 -0.4,-1.1 v -1.1 l 0.6,-1.2 0.5,-0.3 1,-0.3"
         stroke="#000000"
         stroke-width="1"
         id="path68" />
      <path
         d="m 771.72133,576.2517 -3.2,2.6 -0.8,-4.5 -0.9,0.7 -0.9,0.1 -0.6,-0.2 -1.2,-0.9 -0.6,-0.8 -0.7,-1.4 v -1.2 l 0.5,-1.1 0.9,-0.7 1.2,-0.3 0.6,0.1 0.9,0.6 m -5.6,11 -0.7,-1.4 v -1.3 l 0.5,-1.1 0.3,-0.2 1.2,-0.3 1.2,0.3 1.3,0.9 0.3,0.4 0.6,1.4 0.1,1.2 -0.6,1.1 -0.3,0.3 -1.2,0.3 -1.2,-0.3 -1.5,-1.3 -1.6,-2 -1.3,-2.2 -0.3,-1.6 0.5,-1.1 0.6,-0.5 1.2,-0.3 0.9,0.6"
         stroke="#000000"
         stroke-width="1"
         id="path69" />
      <path
         d="m 814.6416,564.69101 1.1,-0.5 0.7,-1.5 0.3,-2.6 -0.1,-1.5 -0.5,-2.4 -0.8,-1.5 -1.1,-0.4 h -0.8 l -1.1,0.5 -0.6,1.6 -0.3,2.5 v 1.5 l 0.5,2.5 0.8,1.4 1.2,0.5 0.6,-0.1"
         stroke="#000000"
         stroke-width="1"
         id="path70" />
      <path
         d="m 798.6,637.4 -1.1,7.8 5.3,-1.9 m -4.2,-5.9 3.6,9.9 m 3,-12.3 -1.1,7.9 5.3,-2 m -4.2,-5.9 3.6,9.9"
         stroke="#000000"
         stroke-width="1"
         id="path71" />
      <path
         d="m 896.09777,429.96404 2.2,-7.6 -5.5,1.2 m 3.3,6.4 -2.2,-10.3 m -5.8,11.9 1.5,-11 m 3.7,9.9 -5.2,1.1"
         stroke="#000000"
         stroke-width="1"
         id="path72" />
      <path
         d="m 885.6,437.84383 0.4,0.7 1.4,1.3 -10.4,-1 m 10.4,6.2 -6.6,-4.4 -0.5,5.6 m 7.1,-1.2 -10.4,-1"
         stroke="#000000"
         stroke-width="1"
         id="path73" />
      <path
         d="m 698.3,674.2 -1.1,7.9 5.3,-2 m -4.2,-5.9 3.7,9.8 m -0.1,-8.6 0.5,-0.7 0.6,-1.8 3.6,9.9"
         stroke="#000000"
         stroke-width="1"
         id="path74" />
      <path
         d="m 673.3,604.4 5.3,-5.8 -5.4,-1.4 m 0.1,7.2 2.5,-10.1 m -7.6,8.7 1.2,-0.2 1.1,-1.2 0.9,-2.4 0.4,-1.4 0.2,-2.5 -0.3,-1.7 -1,-0.7 -0.7,-0.2 -1.2,0.2 -1.1,1.3 -1,2.3 -0.4,1.5 -0.2,2.5 0.4,1.6 0.9,0.8 0.6,0.1"
         stroke="#000000"
         stroke-width="1"
         id="path75" />
      <path
         d="m 624.7,73.5 2.2,3.1 3.8,-2.4 h -0.6 l -1.1,-0.6 -0.6,-0.9 -0.3,-1.2 0.4,-1.2 1,-1.2 0.8,-0.6 1.4,-0.5 h 1.3 l 1,0.6 0.7,0.9 0.3,1.2 -0.2,0.6 -0.6,0.9 m -8.7,-1.5 -0.9,-0.3 -1.8,-0.1 8.5,-6.1"
         stroke="#000000"
         stroke-width="1"
         id="path76" />
      <path
         d="m 596,120 1.3,-3.5 -4.2,-1.9 0.4,0.6 0.1,1.2 -0.4,1.1 -0.8,0.9 -1.2,0.3 -1.5,-0.1 -1,-0.3 -1.3,-0.9 -0.7,-1 -0.1,-1.2 0.4,-1.1 0.8,-0.9 0.6,-0.2 h 1.1 m 3,12.6 h 1.1 l 0.8,-0.9 0.3,-0.7 -0.1,-1.3 -1.2,-1.2 -2.2,-1.1 -2.4,-0.8 -2,-0.3 -1.2,0.3 -0.9,0.9 -0.1,0.4 0.1,1.2 0.7,1.1 1.3,0.8 0.5,0.2 1.5,0.1 1.2,-0.4 0.9,-0.9 0.1,-0.3 -0.1,-1.3 -0.7,-1 -1.3,-0.8"
         stroke="#000000"
         stroke-width="1"
         id="path77" />
      <path
         d="m 578.7,210 -3.3,1.7 1.7,4.2 0.1,-0.6 0.8,-1 1,-0.5 1.2,-0.1 1.1,0.6 1.1,1.1 0.4,0.9 0.4,1.5 -0.2,1.3 -0.8,0.9 -1,0.5 -1.2,0.1 -0.6,-0.3 -0.8,-0.7 m 7.8,-9.6 0.3,1.5 -0.2,1.2 -0.7,1 -0.4,0.1 -1.2,0.1 -1.1,-0.5 -1.1,-1.2 -0.2,-0.4 -0.4,-1.5 0.2,-1.3 0.8,-0.9 0.3,-0.2 1.3,-0.1 1.1,0.6 1.3,1.6 1.1,2.2 0.8,2.4 0.1,1.7 -0.8,0.9 -0.7,0.4 h -1.2 l -0.8,-0.7"
         stroke="#000000"
         stroke-width="1"
         id="path78" />
      <path
         d="m 569.1,213 0.9,-0.6 0.1,-1.3 -0.2,-0.7 -0.8,-0.9 -1.6,-0.3 -2.5,0.3 -2.4,0.7 -1.8,1 -0.8,1 -0.1,1.2 0.1,0.4 0.8,0.9 1.1,0.4 h 1.6 l 0.5,-0.2 1.3,-0.8 0.7,-1 0.2,-1.2 -0.1,-0.3 -0.8,-1 -1.2,-0.4 h -1.5 m 9.1,6 -0.8,-0.9 -1.7,-0.3 -2.5,0.3 -1.4,0.5 -2.3,1 -1.2,1.2 -0.2,1.2 0.2,0.7 0.8,1 1.7,0.3 2.5,-0.4 1.4,-0.4 2.3,-1.1 1.2,-1.1 0.2,-1.3 -0.2,-0.5"
         stroke="#000000"
         stroke-width="1"
         id="path79" />
      <path
         d="m 746.9,69.1 -0.2,-3.7 -4.5,-0.2 0.5,0.4 0.6,1.1 v 1.1 l -0.4,1.1 -1,0.8 -1.5,0.5 h -1 l -1.5,-0.3 -1,-0.7 -0.6,-1.1 V 67 l 0.4,-1.2 0.5,-0.4 1,-0.4 m 9,10 -7.1,-3.4 0.2,5.6 m 6.9,-2.2 -10.5,0.5"
         stroke="#000000"
         stroke-width="1"
         id="path80" />
      <path
         d="m 822.8,56.3 4.4,6.6 2.7,-5 m -7.1,-1.6 9.3,4.9 m -5.7,-11.5 -1.7,3.3 3.8,2.5 -0.3,-0.6 0.1,-1.2 0.5,-1 1,-0.8 1.2,-0.2 1.5,0.4 0.9,0.5 1.1,1 0.6,1.1 -0.1,1.3 -0.5,1 -1,0.7 -0.6,0.1 -1.1,-0.1"
         stroke="#000000"
         stroke-width="1"
         id="path81" />
      <path
         d="m 800.4,38.8 2.7,-7.5 -5.5,0.8 m 2.8,6.7 -1.5,-10.4 m -5.4,11.4 2.7,-7.5 -5.6,0.8 m 2.9,6.7 -1.5,-10.4"
         stroke="#000000"
         stroke-width="1"
         id="path82" />
      <path
         d="m 982.3,540.9 -3.7,-1.7 3.7,-2.7 -1.1,-0.5 -0.4,-0.8 -0.2,-0.6 0.3,-1.5 0.4,-0.9 1,-1.2 1.1,-0.6 h 1.2 l 1,0.5 0.9,0.9 0.1,0.6 -0.1,1.1 m -14,2.9 7.8,-8 m -3,10.2 -4.8,-2.2"
         stroke="#000000"
         stroke-width="1"
         id="path83" />
      <path
         d="m 975.6,556.4 2.4,-3.4 1.9,4.2 0.7,-0.9 0.8,-0.3 h 0.7 l 1.4,0.6 0.8,0.6 1,1.2 0.3,1.2 -0.2,1.2 -0.7,0.9 -1.1,0.6 H 983 l -1,-0.3 m -1.9,-11.7 -0.3,1.2 0.6,0.9 0.8,0.6 1,0.3 0.9,-0.3 1.3,-0.9 1.1,-0.6 1.2,-0.1 1,0.3 1.2,0.9 0.6,0.9 0.2,0.6 -0.3,1.2 -0.9,1.2 -1,0.6 h -0.7 l -1,-0.2 -1.2,-0.9 -0.6,-0.9 -0.3,-1.2 0.2,-1.2 0.5,-1.5 0.1,-0.9 -0.6,-0.9 -0.8,-0.6 -1,-0.3 -1.1,0.6 -1,1.3"
         stroke="#000000"
         stroke-width="1"
         id="path84" />
      <path
         d="m 785.8,309.1 1.6,-3.8 2.8,3.6 0.5,-1 0.7,-0.5 0.6,-0.2 1.6,0.3 0.9,0.4 1.2,0.9 0.7,1.1 v 1.2 l -0.5,1 -0.9,0.9 -0.6,0.1 h -1 m -3.6,-13.4 -1.5,3.5 4,2.1 -0.3,-0.6 v -1.2 l 0.4,-1 0.9,-0.9 1.2,-0.3 1.6,0.3 0.9,0.4 1.2,0.9 0.7,1.1 v 1.2 l -0.5,1 -0.9,0.9 -0.6,0.1 h -1"
         stroke="#000000"
         stroke-width="1"
         id="path85" />
      <path
         d="m 727.2,305.2 0.5,0.1 0.9,0.6 0.4,0.4 0.4,0.9 -0.4,1.4 -0.6,0.7 -0.6,0.2 -1.1,0.2 -0.9,-0.3 -0.9,-0.5 -1.3,-1.1 -4.1,-4.7 -1.1,5.1 m 5.5,7.4 -1.4,-0.7 -0.8,-0.9 -0.3,-1.2 0.1,-0.4 0.8,-1 1.1,-0.5 h 1.5 l 0.5,0.1 1.4,0.7 0.8,0.9 0.3,1.2 -0.1,0.4 -0.7,1 -1.2,0.5 -2,-0.1 -2.5,-0.5 -2.3,-0.9 -1.3,-1.1 -0.3,-1.2 0.2,-0.7 0.7,-1 1.1,-0.2"
         stroke="#000000"
         stroke-width="1"
         id="path86" />
      <path
         d="m 744.5,326.3 0.1,-0.5 0.6,-0.8 0.5,-0.4 0.9,-0.3 1.4,0.4 0.6,0.7 0.3,0.5 0.1,1.1 -0.3,1 -0.6,0.8 -1.1,1.3 -5,3.8 5.1,1.4 m 5.7,-9.3 -1.2,0.2 -0.6,0.8 -0.3,1 0.1,1.1 0.6,0.6 1.3,0.9 1,0.8 0.4,1.1 0.1,1.1 -0.4,1.5 -0.6,0.8 -0.5,0.4 -1.2,0.2 -1.5,-0.4 -0.9,-0.8 -0.2,-0.6 -0.1,-1 0.4,-1.5 0.6,-0.8 1,-0.8 1.2,-0.2 1.6,-0.1 0.8,-0.3 0.6,-0.8 0.3,-1 -0.1,-1.1 -1,-0.7 -1.6,-0.5"
         stroke="#000000"
         stroke-width="1"
         id="path87" />
      <path
         d="m 861.6,335.9 0.4,-0.3 0.9,-0.5 0.7,-0.1 0.8,0.1 1.1,1.1 0.2,0.9 v 0.6 l -0.5,1 -0.6,0.7 -1,0.5 -1.6,0.5 -6.1,1.1 3.8,3.6 m 8.6,-6.3 3,2.8 -4.4,1.4 0.8,0.7 0.2,0.9 -0.1,0.6 -0.8,1.4 -0.6,0.7 -1.3,0.8 -1.3,0.3 -1.1,-0.5 -0.9,-0.7 -0.4,-1.2 v -0.6 l 0.5,-1"
         stroke="#000000"
         stroke-width="1"
         id="path88" />
      <path
         d="m 860.5,330.4 0.2,0.4 -0.2,1.1 -0.2,0.6 -0.6,0.6 -1.5,0.4 -0.8,-0.3 -0.5,-0.4 -0.6,-0.9 -0.3,-1 0.2,-1.1 0.4,-1.6 2.5,-5.7 -5.1,1.2 m -2.6,11.5 2,-7.7 -5.4,1.3 m 3.4,6.4 L 849,325"
         stroke="#000000"
         stroke-width="1"
         id="path89" />
      <path
         d="m 628.9,710.8 -0.7,1.1 0.3,1 0.6,0.8 0.9,0.6 h 0.9 l 1.5,-0.5 1.2,-0.2 1.2,0.4 0.9,0.5 0.8,1.3 0.3,1 v 0.6 l -0.6,1.1 -1.2,0.9 -1.2,0.2 -0.6,-0.2 -0.9,-0.6 -0.9,-1.2 -0.3,-1 0.1,-1.3 0.6,-1 0.9,-1.3 0.3,-0.9 -0.2,-1 -0.6,-0.8 -0.9,-0.6 -1.2,0.2 -1.4,1 m 9.9,-2.7 0.5,1.4 v 1.3 l -0.6,1 -0.3,0.2 -1.2,0.3 -1.2,-0.4 -1.2,-1 -0.3,-0.4 -0.5,-1.4 v -1.3 l 0.6,-1 0.3,-0.3 1.2,-0.2 1.2,0.4 1.5,1.4 1.4,2 1.2,2.3 0.2,1.6 -0.6,1.1 -0.6,0.4 -1.2,0.3 -0.9,-0.6"
         stroke="#000000"
         stroke-width="1"
         id="path90" />
      <path
         d="m 603.7,671.6 -0.9,-0.9 h -1.1 l -0.9,0.4 -0.8,0.7 -0.2,0.8 0.1,1.6 -0.1,1.2 -0.7,1.1 -0.8,0.7 -1.4,0.5 -1,0.1 -0.6,-0.2 -0.9,-0.9 -0.5,-1.4 v -1.2 l 0.4,-0.6 0.8,-0.7 1.4,-0.5 h 1 l 1.2,0.3 0.9,0.9 1,1.2 0.7,0.6 h 1.1 l 0.9,-0.4 0.8,-0.7 0.1,-1.2 -0.6,-1.6 m 1.9,9.2 0.8,-0.7 0.1,-1.3 -0.3,-0.7 -0.9,-0.8 -1.6,-0.2 -2.5,0.5 -2.3,0.9 -1.8,1.1 -0.6,1 -0.1,1.3 0.1,0.3 0.9,0.9 1.2,0.3 1.5,-0.1 0.5,-0.2 1.3,-0.9 0.6,-1.1 0.1,-1.2 -0.1,-0.3 -0.9,-0.9 -1.2,-0.4 -1.5,0.2"
         stroke="#000000"
         stroke-width="1"
         id="path91" />
      <path
         d="m 595.36404,596.59888 -0.1,-1.2 -0.8,-0.7 -0.9,-0.4 h -1.1 l -0.7,0.5 -1,1.3 -0.9,0.8 -1.2,0.4 -1.1,-0.1 -1.4,-0.5 -0.8,-0.7 -0.3,-0.5 v -1.3 l 0.5,-1.4 0.9,-0.8 0.6,-0.2 h 1 l 1.4,0.6 0.8,0.7 0.7,1 0.1,1.3 -0.1,1.5 0.2,0.9 0.8,0.7 0.9,0.4 h 1.1 l 0.8,-0.9 0.7,-1.5 m -3.1,8.1 -5.2,-6 -2,5.2 m 7.2,0.8 -9.8,-3.8"
         stroke="#000000"
         stroke-width="1"
         id="path92" />
      <path
         d="m 605.10676,591.2 1.1,-0.4 0.5,-1 0.1,-1 -0.3,-1 -0.7,-0.6 -1.4,-0.6 -1.1,-0.6 -0.7,-1.1 -0.3,-1 0.2,-1.5 0.4,-0.9 0.5,-0.5 1.1,-0.4 1.5,0.1 1.1,0.6 0.3,0.6 0.3,1 -0.1,1.5 -0.5,0.9 -0.8,1 -1.2,0.4 -1.5,0.3 -0.8,0.5 -0.5,0.9 -0.1,1 0.3,1.1 1.1,0.5 1.7,0.2 m -9.2,-0.8 3.7,0.3 0.8,-4.4 -0.4,0.4 -1.2,0.4 -1.1,-0.1 -1.1,-0.6 -0.6,-1 -0.3,-1.6 0.1,-1 0.5,-1.4 0.8,-0.9 1.2,-0.4 1.1,0.1 1.1,0.6 0.3,0.5 0.3,1"
         stroke="#000000"
         stroke-width="1"
         id="path93" />
      <path
         d="m 896.9,645 -7.9,1.1 3.3,4.5 m 4.6,-5.6 -8.5,6.2 m 8.5,-1.7 0.4,-0.3 1.1,-0.3 h 0.6 l 0.8,0.4 0.9,1.2 0.1,0.9 -0.2,0.6 -0.6,0.9 -0.8,0.6 -1,0.2 -1.7,0.3 -6.3,-0.1 3.1,4.3"
         stroke="#000000"
         stroke-width="1"
         id="path94" />
      <path
         d="m 951.8,673.4 -4.3,6.6 5.6,0.5 m -1.3,-7.1 -0.9,10.4 m 4.7,-10 4.1,0.3 -2.6,3.8 1.1,0.1 0.7,0.6 0.4,0.5 0.2,1.5 -0.1,1 -0.5,1.5 -0.8,0.9 -1.2,0.4 -1.1,-0.1 -1.1,-0.6 -0.3,-0.5 -0.3,-1"
         stroke="#000000"
         stroke-width="1"
         id="path95" />
      <path
         d="m 994.9,653.7 5.8,5.4 1.5,-5.5 m -7.3,0.1 10.2,2.7 m -6.7,-9.6 -1.1,0.1 -0.7,0.9 -0.2,0.7 0.2,1.3 1.2,1.1 2.4,1 2.4,0.6 2,0.2 1.2,-0.5 0.7,-1 0.1,-0.3 -0.2,-1.2 -0.7,-1 -1.4,-0.8 -0.5,-0.1 h -1.5 l -1.2,0.5 -0.8,0.9 -0.1,0.4 0.2,1.2 0.8,1 1.4,0.7"
         stroke="#000000"
         stroke-width="1"
         id="path96" />
      <path
         d="m 992,614.7 -3.3,-2.4 4.2,-1.9 -0.9,-0.7 -0.3,-0.8 v -0.7 l 0.6,-1.4 0.6,-0.8 1.2,-1 1.2,-0.3 1.2,0.3 0.9,0.6 0.6,1.1 v 0.6 l -0.3,1.1 m -11.7,1.8 1.2,0.3 0.9,-0.6 0.6,-0.8 0.3,-1 -0.3,-0.9 -0.9,-1.3 -0.6,-1.1 v -1.2 l 0.3,-1 0.8,-1.2 0.9,-0.6 0.6,-0.2 1.2,0.3 1.2,0.9 0.7,1.1 v 0.6 l -0.3,1 -0.9,1.2 -0.9,0.6 -1.2,0.3 -1.2,-0.2 -1.5,-0.5 -0.9,-0.1 -0.9,0.6 -0.6,0.8 -0.3,1 0.6,1.1 1.3,1"
         stroke="#000000"
         stroke-width="1"
         id="path97" />
      <path
         d="m 942.4,128.2 4.6,-6.4 -5.6,-0.8 m 1,7.2 1.4,-10.4 m -5.2,9.8 -4,-0.5 2.7,-3.7 -1.1,-0.1 -0.7,-0.6 -0.3,-0.6 -0.2,-1.5 0.2,-1 0.5,-1.4 0.9,-0.9 1.2,-0.4 1.1,0.2 1.1,0.6 0.3,0.6 0.2,1"
         stroke="#000000"
         stroke-width="1"
         id="path98" />
      <path
         d="m 983.9,172.8 7.6,2.2 -1.1,-5.5 m -6.5,3.3 10.3,-2.2 m -8.4,-6.3 1.5,0.1 1.2,0.5 0.7,1 0.1,0.4 -0.3,1.2 -0.8,0.9 -1.4,0.7 -0.5,0.1 -1.5,-0.1 -1.2,-0.5 -0.7,-1 -0.1,-0.3 0.3,-1.2 0.8,-1 1.9,-0.8 2.4,-0.5 2.5,-0.2 1.7,0.5 0.7,1 0.1,0.7 -0.2,1.2 -0.9,0.6"
         stroke="#000000"
         stroke-width="1"
         id="path99" />
      <path
         d="m 983.6,198.2 -3.7,-0.3 -0.8,4.4 0.5,-0.5 1.1,-0.4 1.1,0.1 1.1,0.6 0.7,1.1 0.2,1.5 -0.1,1 -0.5,1.5 -0.8,0.9 -1.2,0.4 -1.1,-0.1 -1.1,-0.6 -0.3,-0.5 -0.3,-1 m 7.9,-7.9 4.1,0.4 -2.6,3.8 1.1,0.1 0.7,0.5 0.3,0.6 0.3,1.5 -0.1,1 -0.5,1.5 -0.8,0.9 -1.2,0.4 -1.1,-0.1 -1.1,-0.6 -0.3,-0.5 -0.3,-1.1"
         stroke="#000000"
         stroke-width="1"
         id="path100" />
      <path
         d="m 688.4,498.4 -3.5,-1.2 -1.9,4.1 0.5,-0.3 1.3,-0.1 1,0.3 0.9,0.9 0.4,1.2 -0.1,1.5 -0.4,0.9 -0.8,1.3 -1,0.7 -1.3,0.1 -1,-0.3 -0.9,-0.9 -0.2,-0.6 v -1 m 7.9,-3.8 0.9,-0.2 1.6,-1.1 -3.5,10"
         stroke="#000000"
         stroke-width="1"
         id="path101" />
      <path
         d="m 670.2,475 1.1,-3.5 -4.2,-1.7 0.4,0.5 0.1,1.2 -0.3,1.1 -0.8,0.9 -1.2,0.5 -1.5,-0.1 -1,-0.3 -1.3,-0.8 -0.8,-1 -0.1,-1.2 0.3,-1.1 0.8,-0.9 0.6,-0.3 h 1.1 m 3.7,8.5 0.4,0.1 0.9,0.7 0.4,0.5 0.2,0.8 -0.4,1.5 -0.7,0.6 -0.6,0.2 h -1.1 l -0.9,-0.3 -0.9,-0.6 -1.2,-1.2 -3.7,-5 -1.5,5"
         stroke="#000000"
         stroke-width="1"
         id="path102" />
      <path
         d="m 764,419.1 7.1,-3.6 -4.6,-3.2 m -2.5,6.8 6,-8.6 m -7,4.9 -0.9,-0.1 -1.8,0.6 6,-8.6"
         stroke="#000000"
         stroke-width="1"
         id="path103" />
      <path
         d="m 755.2,502 -3.6,0.9 0.7,4.5 0.3,-0.6 0.9,-0.8 1.1,-0.3 1.2,0.2 1,0.8 0.8,1.3 0.2,1 v 1.6 l -0.4,1.1 -1,0.8 -1.1,0.3 -1.2,-0.2 -0.5,-0.4 -0.6,-0.9 m 8.4,-11 -3.7,1 0.8,4.4 0.3,-0.6 0.9,-0.7 1.1,-0.3 1.2,0.2 1,0.8 0.8,1.3 0.2,1 v 1.5 l -0.4,1.2 -1,0.8 -1.1,0.2 -1.2,-0.2 -0.5,-0.3 -0.6,-0.9"
         stroke="#000000"
         stroke-width="1"
         id="path104" />
      <path
         d="m 787.2,468.5 -0.3,3.8 4.5,0.7 -0.5,-0.4 -0.4,-1.2 0.1,-1.1 0.6,-1.1 1,-0.7 1.6,-0.2 1,0.1 1.4,0.5 1,0.8 0.4,1.1 -0.1,1.2 -0.6,1 -0.5,0.4 -1,0.3 m -7.8,-11 6.7,4.2 0.4,-5.6 m -7.1,1.4 10.4,0.8"
         stroke="#000000"
         stroke-width="1"
         id="path105" />
      <path
         d="m 671.8,422.7 -1.5,-0.2 -1.1,-0.6 -0.6,-1.1 -0.1,-0.4 0.4,-1.1 0.9,-0.9 1.5,-0.6 h 0.5 l 1.5,0.2 1.1,0.6 0.6,1 v 0.4 l -0.3,1.2 -0.9,0.9 -2,0.6 -2.4,0.3 -2.6,-0.1 -1.5,-0.6 -0.7,-1 -0.1,-0.8 0.4,-1.1 0.9,-0.5 m 7.3,4.7 0.6,0.7 1.6,0.9 -10.4,1.3"
         stroke="#000000"
         stroke-width="1"
         id="path106" />
      <path
         d="m 677.5,383.1 -1.3,-0.9 -0.7,-1 v -1.3 l 0.1,-0.3 0.8,-0.9 1.2,-0.3 1.6,0.1 0.5,0.2 1.2,0.9 0.7,1 0.1,1.2 -0.1,0.4 -0.9,0.9 -1.2,0.3 -2,-0.3 -2.4,-0.9 -2.2,-1.2 -1.1,-1.2 -0.1,-1.2 0.3,-0.7 0.8,-0.9 h 1.1 m 5.7,10.5 -0.1,-1.2 -1.1,-1.2 -2.3,-1.2 -1.4,-0.6 -2.4,-0.5 -1.7,0.2 -0.9,0.9 -0.2,0.7 0.1,1.2 1.1,1.3 2.2,1.2 1.4,0.5 2.5,0.5 1.7,-0.2 0.8,-0.9 0.2,-0.5"
         stroke="#000000"
         stroke-width="1"
         id="path107" />
      <path
         d="m 704.5,384.4 h 1.2 l 0.7,-0.8 0.4,-1 v -1 l -0.5,-0.8 -1.2,-1 -0.9,-0.9 -0.3,-1.2 v -1 l 0.6,-1.4 0.7,-0.8 0.5,-0.4 h 1.3 l 1.4,0.6 0.8,0.8 0.2,0.6 v 1.1 l -0.6,1.4 -0.7,0.8 -1.1,0.6 -1.2,0.1 -1.6,-0.1 -0.9,0.2 -0.7,0.8 -0.4,0.9 v 1.1 l 0.9,0.8 1.6,0.7 m -7.7,-6.8 0.9,-1.3 1.1,-0.6 1.2,-0.1 0.4,0.1 0.8,0.9 0.3,1.2 -0.2,1.6 -0.2,0.4 -0.9,1.3 -1,0.6 -1.3,0.1 -0.3,-0.2 -0.9,-0.8 -0.3,-1.2 0.4,-2 0.9,-2.4 1.3,-2.1 1.3,-1.2 h 1.2 l 0.7,0.3 0.8,0.8 v 1.1"
         stroke="#000000"
         stroke-width="1"
         id="path108" />
    </g>
    <path
       d="m 888.68308,313.85059 h 6.2 l -3.4,6 h 1.7 l 1.1,0.8 0.6,0.7 0.5,2.3 v 1.5 l -0.5,2.2 -1.2,1.5 -1.7,0.8 h -1.6 l -1.7,-0.8 -0.6,-0.7 -0.6,-1.5"
       id="titre_3"
       stroke="#4b0082"
       style="stroke-width:2.53872" />
    <path
       d="m 731.5,454.7 -5.6,10.5 h 8.4 m -2.8,-10.5 v 15.8"
       id="titre_4"
       stroke="#4b0082"
       style="stroke-width:2.53872" />
  </g>
  <g
     id="page_003">
    <path
       d="m 1090.8,52.3 85,-29.2 32.6,47.4 86.4,-10.1 29.9,-19.4 65.8,10.1 -71.3,50.6 50.5,71.3 -1.9,-66.6 16.5,-31.5 86.5,10.3 23.9,52.3 -32.4,29.2 -23.6,30.9 -31,77.2 -28.5,67.9 19.6,89.1 9.7,57.8 37.7,75.7 -8.7,73.8 -13.5,67.9 -64.5,-19.7 -66.6,-14.8 64.4,-84.8 5.4,-45.4 -19.1,41.5 -106.5,2.2 6.1,-40.8 31,-40.7 -43.1,27.5 -18,-101.2 28,-39.1 58.5,-10.6 38.1,81.4 -11.6,-89.1 -58.7,-9.3 -39,28.1 -66.5,52.5 -1.2,-73.3 -29.2,-52.8 43.3,-57.9 41.3,39.1 53.2,-20.2 60.4,-39.8 -27.2,-54 -58.7,-43.8 26.6,80.5 -101.2,-18.2 -16.3,-37.9 -48.5,-48.1 z"
       id="coupes_003"
       stroke="#ff0000"
       stroke-width="1.27"
       sodipodi:nodetypes="ccccccccccccccccccccccccccccccccccccccccccccccccccc" />
    <path
       d="m 1213.1,430.8 61.1,73.7 -33.1,-112.8 96.6,70.8 -63.5,42 88.5,37.8 45.8,-52.7 -70.8,-27.1 61.1,-30.7 -72.7,-58.4 -56.8,-93.8 109.9,63.1 m -150.8,49.5 -12.3,-92.4 51.3,64.3 1.9,-84.5 138.4,-4.8 -78,-35 40,-66.8 38,101.8 m -247,96.6 55.4,-71.6 -84.6,18.8 m 225.8,269.1 88.9,-22.4 -83.5,-23 -25,-79.8 m -94.5,82.7 100.4,38.6 -69.4,-79.3 m 95.5,-331.5 69,24.6 -70.9,-91.2 94.5,60.3 m -309.4,-0.3 141.9,-106 24.4,41.3 -16.7,84.1 m 81.8,-110.9 110.4,62.6 m -390.3,-19.2 104,-47.8 -117.6,-18.2 m 268.7,635 -2.2,-99.6 80.2,51.4 z m -190.3,-483 74.6,-62.3 75.4,-40.3 5.5,-60.7"
       id="plisM_003"
       stroke="#a52a2a"
       stroke-dasharray="4"
       sodipodi:nodetypes="ccccccccccccccccccccccccccccccccccccccccccccccccccc" />
    <path
       d="m 1326.1,373.4 53.1,-30.7 m -150.8,49.5 -67.7,-20.8 m 141.8,-185.6 67.2,-12.8 m -74.9,-112.6 -51,81.6 -90.9,24.4 55.5,-95.9 m 175.9,4.4 78,91.8"
       id="plisV_003"
       stroke="#008000"
       stroke-dasharray="4, 1, 1, 1"
       stroke-width="1.27"
       sodipodi:nodetypes="cccccccccccc" />
    <path
       d="m 1350.7,356 4,4 m 0,-4 -4,4 m -158.1,19.8 4,4 m 0,-4 -4,4 m 141.5,-206.4 4,4 m 0,-4 -4,4 m -66.8,-82.2 4,4 m 0,-4 -4,4 m -70.9,49 4,4 m 0,-4 -4,4 m 224.9,-37.4 4,4 m 0,-4 -4,4 m -242.7,-6.4 4,4 m 0,-4 -4,4"
       id="marqueV_003"
       stroke="#008000" />
    <g
       id="nums_003">
      <path
         d="m 1376.7,388.3 -0.9,0.6 -0.3,1.2 0.2,0.7 0.7,1 1.6,0.4 2.6,-0.2 2.4,-0.5 1.9,-0.8 0.8,-1 0.2,-1.2 -0.1,-0.3 -0.7,-1 -1.1,-0.5 -1.6,-0.1 -0.5,0.1 -1.3,0.7 -0.9,1 -0.2,1.2 0.1,0.3 0.7,1 1.1,0.5 1.6,0.1"
         stroke="#000000"
         stroke-width="1"
         id="path109" />
      <path
         d="m 1343.9,414.6 0.9,-0.5 0.4,-1.1 -0.1,-0.8 -0.7,-1 -1.6,-0.6 h -2.5 l -2.5,0.3 -1.9,0.6 -0.9,0.9 -0.4,1.2 0.1,0.3 0.6,1.1 1.1,0.6 1.6,0.2 0.5,-0.1 1.4,-0.5 0.9,-0.9 0.3,-1.2 v -0.4 l -0.6,-1 -1.1,-0.6 -1.6,-0.2 m 5.4,6.1 0.4,-0.1 1.1,0.2 0.5,0.3 0.6,0.7 0.2,1.5 -0.4,0.8 -0.4,0.5 -1,0.5 -1,0.1 -1,-0.3 -1.6,-0.5 -5.4,-3.1 0.6,5.2"
         stroke="#000000"
         stroke-width="1"
         id="path110" />
      <path
         d="m 1380.3,304.5 v 1.2 l 0.8,0.7 0.9,0.4 1.1,0.1 0.8,-0.5 1,-1.2 0.9,-0.9 1.2,-0.3 1.1,0.1 1.4,0.6 0.7,0.7 0.4,0.5 v 1.3 l -0.6,1.3 -0.9,0.9 -0.6,0.1 h -1.1 l -1.4,-0.6 -0.7,-0.7 -0.7,-1.1 v -1.2 l 0.1,-1.6 -0.1,-0.9 -0.8,-0.7 -0.9,-0.4 h -1.1 l -0.9,0.8 -0.7,1.6"
         stroke="#000000"
         stroke-width="1"
         id="path111" />
      <path
         d="m 1297.3,356.4 -0.2,-1 -1,-0.7 -0.8,-0.1 -1.2,0.3 -1,1.4 -0.7,2.4 -0.4,2.4 0.1,2.1 0.5,1.1 1.1,0.7 h 0.4 l 1.1,-0.3 0.9,-0.9 0.6,-1.4 0.1,-0.5 -0.1,-1.5 -0.6,-1.1 -1,-0.7 -0.4,-0.1 -1.2,0.4 -0.9,0.8 -0.6,1.4 m 6.6,-3.6 0.8,-0.4 1.4,-1.3 -1.7,10.4"
         stroke="#000000"
         stroke-width="1"
         id="path112" />
      <path
         d="m 1393.2,467.3 -0.6,-0.7 -1.7,-0.8 10.4,-1.8 m -8.6,-0.4 -0.5,0.1 -1,-0.2 -0.6,-0.3 -0.6,-0.7 -0.2,-1.4 0.3,-0.9 0.5,-0.4 0.9,-0.6 1,-0.1 1,0.2 1.6,0.5 5.6,2.8 -0.9,-5.1"
         stroke="#000000"
         stroke-width="1"
         id="path113" />
      <path
         d="m 1307.5,269.1 0.9,0.6 1.2,-0.2 0.6,-0.4 0.7,-1.1 -0.2,-1.6 -1.1,-2.3 -1.3,-2.1 -1.5,-1.5 -1.1,-0.4 -1.3,0.2 -0.3,0.2 -0.6,1.1 -0.1,1.2 0.5,1.5 0.3,0.4 1.1,1 1.2,0.5 1.2,-0.3 0.3,-0.2 0.7,-1 0.1,-1.2 -0.5,-1.5 m -5,11.6 3.2,-2 -2.2,-4 v 0.6 l -0.7,1.1 -0.9,0.6 -1.3,0.2 -1.1,-0.4 -1.2,-1.1 -0.5,-0.8 -0.5,-1.5 v -1.2 l 0.7,-1 0.9,-0.7 1.2,-0.2 0.6,0.2 0.9,0.7"
         stroke="#000000"
         stroke-width="1"
         id="path114" />
      <path
         d="m 1248.5,300.6 0.7,0.8 1.2,0.1 0.7,-0.3 0.9,-0.8 0.2,-1.7 -0.6,-2.5 -0.8,-2.3 -1.1,-1.7 -1.1,-0.7 -1.2,-0.1 -0.3,0.2 -0.9,0.8 -0.4,1.2 0.2,1.6 0.2,0.4 0.9,1.3 1,0.7 h 1.3 l 0.3,-0.1 0.9,-0.9 0.3,-1.2 -0.1,-1.5 m -3.9,8.9 -3.9,1.5 0.7,-4.5 -1,0.4 -0.9,-0.2 -0.5,-0.4 -0.9,-1.2 -0.4,-1 -0.2,-1.5 0.4,-1.2 0.9,-0.9 1,-0.4 1.3,0.1 0.5,0.3 0.7,0.8"
         stroke="#000000"
         stroke-width="1"
         id="path115" />
      <path
         d="m 1239.2,369.3 -0.8,-0.6 -1.3,0.2 -0.6,0.5 -0.6,1 0.3,1.7 1.1,2.2 1.5,2.1 1.5,1.4 1.2,0.4 1.2,-0.3 0.3,-0.2 0.6,-1.1 v -1.2 l -0.5,-1.5 -0.3,-0.4 -1.2,-1 -1.2,-0.3 -1.2,0.2 -0.3,0.2 -0.6,1.1 -0.1,1.2 0.6,1.5 m 4,-11.6 1,7.8 4.6,-3.2 m -5.6,-4.6 6.1,8.5"
         stroke="#000000"
         stroke-width="1"
         id="path116" />
      <path
         d="m 1419.2,536.7 -0.8,-0.5 -1.8,-0.3 9.4,-4.7 m -12.2,-0.2 1.6,3.3 4.2,-1.6 -0.6,-0.1 -0.9,-0.8 -0.5,-1 -0.1,-1.3 0.6,-1.1 1.1,-1 0.9,-0.4 1.5,-0.4 1.3,0.3 0.9,0.7 0.5,1 0.1,1.3 -0.3,0.5 -0.7,0.8"
         stroke="#000000"
         stroke-width="1"
         id="path117" />
      <path
         d="m 1372.3,565 1.1,-0.2 0.6,-1.1 0.1,-0.7 -0.4,-1.2 -1.4,-0.9 -2.4,-0.7 -2.5,-0.3 -2,0.2 -1.1,0.6 -0.6,1.1 -0.1,0.3 0.4,1.2 0.9,0.9 1.4,0.5 0.5,0.1 1.6,-0.2 1,-0.7 0.7,-1 v -0.4 l -0.4,-1.2 -0.9,-0.8 -1.4,-0.6 m 2.2,11.3 -1.5,-0.5 -0.9,-0.9 -0.3,-1.2 v -0.4 l 0.6,-1 1.1,-0.6 1.6,-0.2 h 0.5 l 1.4,0.6 0.9,0.8 0.4,1.2 -0.1,0.4 -0.6,1 -1.1,0.7 -2,0.1 -2.5,-0.3 -2.4,-0.7 -1.4,-0.9 -0.4,-1.2 0.1,-0.7 0.6,-1.1 1.1,-0.2"
         stroke="#000000"
         stroke-width="1"
         id="path118" />
      <path
         d="m 1341.4,559.2 -1,-0.1 -1,0.8 -0.3,0.7 v 1.3 l 1.1,1.3 2.1,1.3 2.3,1.1 1.9,0.5 1.3,-0.3 0.9,-0.8 0.1,-0.3 v -1.3 l -0.5,-1.1 -1.3,-0.9 -0.4,-0.2 -1.5,-0.3 -1.3,0.2 -0.9,0.9 -0.1,0.3 v 1.2 l 0.6,1.1 1.2,1 m 1.3,-11.4 1.2,1 0.6,1.1 v 1.2 l -0.1,0.3 -1,0.8 -1.2,0.3 -1.5,-0.3 -0.5,-0.2 -1.2,-1 -0.6,-1.1 0.1,-1.2 0.1,-0.3 0.9,-0.8 1.3,-0.3 1.9,0.5 2.3,1 2.1,1.4 1.1,1.3 v 1.2 l -0.4,0.7 -0.9,0.8 h -1"
         stroke="#000000"
         stroke-width="1"
         id="path119" />
      <path
         d="m 1185.8,408.3 3.5,10.6 m -7.6,-7.3 4.1,-3.3 m 2.7,-2.1 -0.6,1.1 0.4,1.6 1.2,2.2 0.9,1.2 1.9,1.7 1.5,0.7 1.2,-0.3 0.6,-0.4 0.6,-1.1 -0.4,-1.7 -1.2,-2.2 -1,-1.1 -1.8,-1.8 -1.5,-0.7 -1.2,0.3 -0.5,0.4"
         stroke="#000000"
         stroke-width="1"
         id="path120" />
      <path
         d="m 1175,406.8 -10.5,-3.5 m 10.5,-1.7 v 5.2 m -2.3,1.2 0.5,0.7 1.5,1.1 -10.5,0.2"
         stroke="#000000"
         stroke-width="1"
         id="path121" />
      <path
         d="m 1156.1,337.9 0.7,-0.8 -0.1,-1.2 -0.3,-0.7 -1,-0.7 h -1.7 l -2.4,0.9 -2.2,1.2 -1.5,1.3 -0.5,1.2 0.1,1.2 0.2,0.3 0.9,0.8 1.3,0.1 1.5,-0.4 0.4,-0.2 1.1,-1.1 0.6,-1.1 -0.2,-1.2 -0.1,-0.4 -1,-0.7 -1.3,-0.2 -1.5,0.4 m 10,6.6 0.7,-0.8 -0.1,-1.2 -0.4,-0.7 -1,-0.7 h -1.7 l -2.3,0.9 -2.2,1.2 -1.6,1.3 -0.5,1.2 0.1,1.2 0.2,0.3 1,0.8 1.2,0.1 1.5,-0.4 0.5,-0.2 1.1,-1.1 0.5,-1.1 -0.1,-1.2 -0.2,-0.4 -1,-0.7 -1.2,-0.2 -1.5,0.4"
         stroke="#000000"
         stroke-width="1"
         id="path122" />
      <path
         d="m 1430,605.3 -0.4,-0.8 -1.3,-1.3 10.4,1.2 m -6.6,-6.9 1.4,0.6 0.9,0.8 0.4,1.2 v 0.4 l -0.7,1.1 -1,0.6 -1.6,0.2 -0.5,-0.1 -1.4,-0.5 -0.9,-0.9 -0.4,-1.2 0.1,-0.3 0.6,-1.1 1.1,-0.6 2,-0.2 2.5,0.3 2.4,0.7 1.4,0.9 0.4,1.2 -0.1,0.7 -0.6,1.1 -1.1,0.2"
         stroke="#000000"
         stroke-width="1"
         id="path123" />
      <path
         d="m 1269.4,531.1 1,0.3 1.1,-0.6 0.4,-0.6 0.3,-1.2 -0.7,-1.5 -1.8,-1.8 -2,-1.5 -1.8,-0.9 -1.3,-0.1 -1,0.6 -0.3,0.3 -0.2,1.2 0.3,1.2 1,1.2 0.4,0.3 1.4,0.7 h 1.2 l 1.1,-0.6 0.2,-0.3 0.3,-1.2 -0.3,-1.2 -1,-1.2 m -1.2,13.1 -6,-9.4 m 9.2,5.2 -3.2,4.2"
         stroke="#000000"
         stroke-width="1"
         id="path124" />
      <path
         d="m 1289,571.2 -3.5,10.6 m -1.7,-10.5 5.2,-0.1 m 1.9,0 4.1,-0.1 -2.1,4 h 1.1 l 0.8,0.5 0.3,0.5 0.4,1.5 0.1,1 -0.4,1.5 -0.7,1 -1.1,0.5 h -1.2 l -1.1,-0.4 -0.4,-0.5 -0.4,-1"
         stroke="#000000"
         stroke-width="1"
         id="path125" />
      <path
         d="m 1254,566.3 -9.9,-5.3 m 10.6,0.1 -0.7,5.2 m -0.7,5.1 -6.4,-4.8 -0.8,5.6 m 7.2,-0.8 -10.4,-1.6"
         stroke="#000000"
         stroke-width="1"
         id="path126" />
      <path
         d="m 1326.4,206.1 0.7,-0.8 V 204 l -0.4,-0.6 -0.9,-0.8 h -1.7 l -2.4,0.8 -2.2,1.1 -1.6,1.2 -0.6,1.2 0.1,1.2 0.1,0.3 1,0.8 1.2,0.2 1.5,-0.3 0.5,-0.2 1.1,-1 0.6,-1.2 -0.1,-1.2 -0.1,-0.3 -1,-0.8 -1.2,-0.2 -1.5,0.3 m 9.6,7 0.8,-0.8 -0.1,-1.2 -0.3,-0.7 -1,-0.8 h -1.7 l -2.4,0.8 -2.2,1.1 -1.6,1.3 -0.6,1.1 0.1,1.2 0.2,0.3 0.9,0.8 1.2,0.2 1.5,-0.3 0.5,-0.2 1.2,-1 0.5,-1.1 v -1.3 l -0.2,-0.3 -1,-0.8 -1.2,-0.2 -1.5,0.3"
         stroke="#000000"
         stroke-width="1"
         id="path127" />
      <path
         d="m 1334,146.3 10.7,-3 m -7.7,7.3 -3,-4.3 m 1,-3 -0.5,0.3 -1,0.3 h -0.6 l -0.9,-0.3 -0.8,-1.3 v -0.9 l 0.1,-0.6 0.6,-0.8 0.9,-0.6 1,-0.3 1.7,-0.2 6.2,0.1 -3,-4.3"
         stroke="#000000"
         stroke-width="1"
         id="path128" />
      <path
         d="m 1411,236.1 -0.2,-0.9 -1,-1.6 9.8,3.9 m -7.8,-9.8 8.4,7.4 m -10.3,-2.5 1.9,-4.9"
         stroke="#000000"
         stroke-width="1"
         id="path129" />
      <path
         d="m 1382.5,138.3 -10.6,-3.4 m 10.4,-1.8 0.2,5.2 m -1.4,5.7 1,-0.4 0.5,-1.1 v -0.8 l -0.6,-1.1 -1.5,-0.7 -2.5,-0.3 -2.5,0.1 -2,0.4 -1,0.8 -0.4,1.2 v 0.3 l 0.5,1.1 1,0.8 1.5,0.3 h 0.5 l 1.5,-0.4 1,-0.8 0.5,-1.2 v -0.3 l -0.6,-1.1 -1,-0.8 -1.5,-0.3"
         stroke="#000000"
         stroke-width="1"
         id="path130" />
      <path
         d="m 1280.6,152.3 -9.3,6.2 m 5.1,-9.3 4.2,3.1 m -0.5,2.5 0.9,0.1 1.8,-0.6 -6.3,8.5"
         stroke="#000000"
         stroke-width="1"
         id="path131" />
      <path
         d="m 1438,180 -0.4,-0.3 -0.5,-0.9 -0.2,-0.6 v -0.9 l 1,-1.2 0.8,-0.3 h 0.6 l 1.1,0.3 0.7,0.6 0.6,0.9 0.8,1.5 1.6,6 3.2,-4.1 m -3.7,-10 -1,-0.3 -1.1,0.6 -0.4,0.6 -0.3,1.2 0.7,1.5 1.8,1.8 2,1.5 1.8,0.9 h 1.2 l 1.1,-0.6 0.2,-0.3 0.3,-1.2 -0.3,-1.2 -1,-1.2 -0.4,-0.3 -1.4,-0.6 h -1.2 l -1.1,0.6 -0.2,0.3 -0.3,1.2 0.3,1.2 1,1.2"
         stroke="#000000"
         stroke-width="1"
         id="path132" />
      <path
         d="m 1314.7079,64.801116 -2.6,-10.8 m 7,8 -4.4,2.8 m -2.6,1.7 0.7,-1 -0.3,-1.1 -0.5,-0.8 -0.9,-0.6 h -0.9 l -1.5,0.4 -1.2,0.2 -1.2,-0.5 -0.9,-0.6 -0.8,-1.3 -0.2,-1 v -0.6 l 0.7,-1.1 1.3,-0.8 1.2,-0.2 0.6,0.2 0.8,0.7 0.8,1.2 0.3,1.1 -0.1,1.2 -0.7,1.1 -1,1.2 -0.3,0.8 0.2,1.1 0.6,0.8 0.8,0.6 1.2,-0.2 1.4,-0.9"
         stroke="#000000"
         stroke-width="1"
         id="path133" />
      <path
         d="m 1356.5,59.8 5.3,-9.8 m -0.1,10.6 -5.2,-0.8 m -5.4,-2.4 0.2,1.1 1,0.7 0.8,0.1 1.2,-0.4 0.9,-1.3 0.8,-2.4 0.4,-2.5 -0.1,-2 -0.6,-1.1 -1,-0.7 -0.4,-0.1 -1.2,0.4 -0.9,0.8 -0.6,1.5 V 52 l 0.1,1.5 0.6,1.1 1,0.7 h 0.4 l 1.2,-0.3 0.9,-0.9 0.6,-1.4"
         stroke="#000000"
         stroke-width="1"
         id="path134" />
      <path
         d="m 1345.9,65.9 3,10.7 m -7.3,-7.7 4.3,-3 m 2.9,1 -0.2,-0.5 -0.3,-1 v -0.6 l 0.3,-0.9 1.2,-0.8 0.9,-0.1 0.6,0.2 0.9,0.6 0.6,0.9 0.3,1 0.2,1.6 -0.1,6.3 4.3,-3"
         stroke="#000000"
         stroke-width="1"
         id="path135" />
      <path
         d="m 1388.7,96.1 -7.5,-8.2 m 10,3.6 -2.5,4.6 m -1.4,2.7 0.1,-1.2 -0.7,-0.8 -0.9,-0.5 -1.1,-0.1 -0.8,0.4 -1.1,1.1 -1,0.8 -1.2,0.2 -1.1,-0.2 -1.3,-0.7 -0.7,-0.8 -0.3,-0.5 0.1,-1.2 0.7,-1.4 1,-0.7 0.6,-0.1 1.1,0.1 1.3,0.7 0.7,0.8 0.5,1.1 -0.1,1.3 -0.2,1.5 0.1,0.9 0.7,0.8 0.9,0.5 1,0.1 1,-0.8 0.8,-1.4"
         stroke="#000000"
         stroke-width="1"
         id="path136" />
      <path
         d="m 1465.2,145.6 3,-2.8 1.1,4.5 0.8,-0.7 0.9,-0.2 0.6,0.2 1.3,0.8 0.6,0.8 0.8,1.3 0.1,1.3 -0.5,1.1 -0.8,0.8 -1.2,0.3 -0.6,-0.1 -1,-0.5 m 0.6,-8.8 0.2,-0.9 -0.2,-1.8 7.1,7.8"
         stroke="#000000"
         stroke-width="1"
         id="path137" />
      <path
         d="m 1257.5,78.6 1.1,-0.6 0.3,-1 -0.2,-1 -0.5,-1 -0.8,-0.4 -1.5,-0.3 -1.2,-0.4 -0.8,-0.9 -0.5,-0.9 -0.2,-1.5 0.3,-1.1 0.3,-0.5 1,-0.6 1.5,-0.2 1.2,0.4 0.4,0.4 0.5,1 0.2,1.5 -0.3,1 -0.6,1.1 -1.1,0.6 -1.4,0.7 -0.7,0.6 -0.2,1 0.1,1 0.5,0.9 1.1,0.4 1.7,-0.2 m -6.9,0.8 1,-0.6 0.6,-1.6 0.1,-2.5 -0.2,-1.5 -0.7,-2.4 -0.9,-1.4 -1.1,-0.4 -0.8,0.1 -1.1,0.6 -0.5,1.6 -0.1,2.5 0.2,1.5 0.6,2.4 1,1.4 1.1,0.4 0.6,-0.1"
         stroke="#000000"
         stroke-width="1"
         id="path138" />
      <path
         d="m 1430.3,94.2 1.2,-0.3 0.4,-1 0.2,-1 -0.3,-1 -0.7,-0.6 -1.4,-0.7 -1.1,-0.6 -0.6,-1.1 -0.2,-1 0.1,-1.5 0.5,-1 0.5,-0.4 1.1,-0.4 1.5,0.2 1.1,0.6 0.3,0.6 0.2,1 -0.1,1.5 -0.5,0.9 -0.9,0.9 -1.2,0.4 -1.5,0.3 -0.8,0.4 -0.5,1 -0.1,1 0.2,1 1.1,0.6 1.7,0.2 m -7,-0.8 1.2,-0.3 0.9,-1.4 0.7,-2.5 0.2,-1.5 -0.1,-2.5 -0.6,-1.6 -1,-0.6 -0.8,-0.1 -1.2,0.4 -0.9,1.4 -0.7,2.4 -0.1,1.5 v 2.5 l 0.6,1.6 1.1,0.6 0.5,0.1"
         stroke="#000000"
         stroke-width="1"
         id="path139" />
      <path
         d="m 1470.6,118 11.1,-1 m -8.9,5.7 -2.2,-4.7 m 0.7,-7 1.5,-0.3 1.2,0.3 0.9,0.8 0.2,0.3 v 1.3 l -0.6,1.1 -1.2,0.9 -0.4,0.2 -1.6,0.3 -1.2,-0.2 -0.9,-0.9 -0.2,-0.3 v -1.2 l 0.6,-1.1 1.7,-1.2 2.3,-1 2.4,-0.7 h 1.7 l 0.9,0.8 0.3,0.7 v 1.3 l -0.7,0.7"
         stroke="#000000"
         stroke-width="1"
         id="path140" />
      <path
         d="m 1137.5,131.8 -10,4.8 m 6.3,-8.5 3.7,3.7 m 4.1,4 -2.7,-2.6 -3.4,2.9 0.6,-0.1 1.1,0.4 0.8,0.8 0.5,1.2 -0.2,1.2 -0.8,1.3 -0.7,0.7 -1.3,0.8 -1.2,0.2 -1.2,-0.4 -0.8,-0.8 -0.4,-1.1 v -0.7 l 0.5,-0.9"
         stroke="#000000"
         stroke-width="1"
         id="path141" />
      <path
         d="M 1110.9,81.6 1099.8,80 m 10,-3.6 1.1,5.2 m 1.2,6.1 -11,-1.6 m 10,-3.5 1,5.1"
         stroke="#000000"
         stroke-width="1"
         id="path142" />
      <path
         d="m 1143,48.9 -3.9,1.4 0.8,-4.5 -1.1,0.3 -0.9,-0.2 -0.5,-0.3 -0.8,-1.3 -0.3,-1 -0.2,-1.5 0.4,-1.2 0.9,-0.9 1.1,-0.3 1.2,0.1 0.5,0.3 0.7,0.9 m -8.1,10.1 0.7,0.9 1.2,0.1 0.7,-0.3 1,-0.8 0.2,-1.7 -0.5,-2.5 -0.8,-2.3 -1,-1.8 -1,-0.7 -1.3,-0.1 -0.3,0.1 -0.9,0.9 -0.4,1.1 0.1,1.6 0.2,0.5 0.8,1.3 1.1,0.7 1.2,0.1 0.4,-0.2 0.9,-0.8 0.3,-1.2 -0.1,-1.5"
         stroke="#000000"
         stroke-width="1"
         id="path143" />
      <path
         d="m 1181.3,55.4 10.8,-2.8 m -7.8,7.2 -3,-4.4 m -0.5,-6.9 1.4,-0.6 1.3,0.1 1,0.6 0.2,0.3 0.2,1.2 -0.4,1.2 -1,1.2 -0.4,0.3 -1.4,0.5 h -1.3 l -1,-0.7 -0.3,-0.3 -0.2,-1.2 0.4,-1.2 1.5,-1.4 2,-1.4 2.3,-1.2 1.6,-0.2 1.1,0.7 0.4,0.6 0.2,1.2 -0.6,0.9"
         stroke="#000000"
         stroke-width="1"
         id="path144" />
      <path
         d="m 1416.1,676.1 0.8,-4.1 3.5,3 0.2,-1.1 0.7,-0.6 0.5,-0.3 1.6,-0.1 0.9,0.2 1.4,0.7 0.9,0.9 0.3,1.2 -0.3,1.1 -0.7,1 -0.5,0.3 -1.1,0.2 m -6.4,-11.9 6.1,5 1.1,-5.5 m -7.2,0.5 10.3,2.1"
         stroke="#000000"
         stroke-width="1"
         id="path145" />
      <path
         d="m 1394.8,683.7 -6.7,9 m 1.7,-10.5 5,1.5 m 6,1.9 -6.7,8.9 m 1.7,-10.5 5,1.6"
         stroke="#000000"
         stroke-width="1"
         id="path146" />
      <path
         d="m 1328.1,666.3 -5.9,9.4 m 0.8,-10.6 5.1,1.2 m 5.5,1.2 -3.6,-0.8 -1.4,4.3 0.5,-0.4 1.2,-0.3 1.1,0.3 1,0.7 0.5,1.1 0.1,1.6 -0.3,1 -0.6,1.4 -1,0.8 -1.2,0.2 -1.1,-0.2 -1,-0.8 -0.2,-0.5 -0.2,-1.1"
         stroke="#000000"
         stroke-width="1"
         id="path147" />
      <path
         d="m 1336.7,637.5 -6.1,-9.3 m 9.3,5.2 -3.2,4.1 m -1.1,1.6 -2.5,3.2 -1.9,-4.2 -0.6,0.9 -0.9,0.3 h -0.6 l -1.4,-0.6 -0.8,-0.6 -1,-1.2 -0.4,-1.2 0.3,-1.2 0.7,-0.9 1.1,-0.6 h 0.6 l 1,0.3"
         stroke="#000000"
         stroke-width="1"
         id="path148" />
      <path
         d="m 1173.1,178.6 -11.1,0.7 m 9.1,-5.5 2,4.8 m 2.2,4.7 -7.9,-0.7 2.2,5.2 m 5.7,-4.5 -9.7,4.1"
         stroke="#000000"
         stroke-width="1"
         id="path149" />
      <path
         d="m 1244.4,187.6 11.2,0.2 m -9.5,4.8 -1.7,-5 m -1.1,-3.3 0.9,0.9 1.6,0.3 2.5,-0.5 1.4,-0.4 2.3,-1.2 1.2,-1.2 0.1,-1.2 -0.2,-0.7 -0.8,-0.9 -1.7,-0.2 -2.5,0.4 -1.4,0.5 -2.3,1.1 -1.2,1.2 -0.1,1.2 0.2,0.5"
         stroke="#000000"
         stroke-width="1"
         id="path150" />
      <path
         d="m 1220.5,201 -0.2,-1 -1.1,-0.7 -0.7,-0.1 -1.2,0.2 -1,1.4 -0.8,2.4 -0.4,2.4 v 2.1 l 0.5,1.1 1.1,0.7 0.3,0.1 1.2,-0.3 0.9,-0.9 0.7,-1.4 0.1,-0.5 -0.1,-1.5 -0.6,-1.1 -1,-0.7 -0.4,-0.1 -1.2,0.3 -0.9,0.8 -0.6,1.4 m 9,-5.4 -1.2,0.3 -0.5,0.9 -0.2,1 0.2,1 0.6,0.6 1.4,0.8 1,0.7 0.6,1.1 0.2,1 -0.3,1.5 -0.5,0.9 -0.5,0.5 -1.2,0.3 -1.5,-0.3 -1,-0.7 -0.2,-0.6 -0.2,-1 0.2,-1.5 0.6,-0.9 0.9,-0.8 1.2,-0.3 1.5,-0.3 0.9,-0.3 0.5,-0.9 0.2,-1 -0.2,-1.1 -1,-0.7 -1.7,-0.3"
         stroke="#000000"
         stroke-width="1"
         id="path151" />
      <path
         d="m 1163.8,295.8 1.1,0.3 1,-0.6 0.5,-0.6 0.3,-1.2 -0.8,-1.5 -1.8,-1.8 -2,-1.5 -1.8,-0.9 h -1.2 l -1.1,0.6 -0.2,0.3 -0.3,1.2 0.3,1.2 1,1.2 0.4,0.3 1.4,0.6 h 1.3 l 1.1,-0.6 0.2,-0.3 0.3,-1.2 -0.4,-1.2 -1,-1.2 m -0.7,12.6 2.3,-3 -3.4,-3 0.2,0.6 -0.3,1.2 -0.7,0.9 -1,0.6 h -1.3 l -1.4,-0.6 -0.8,-0.6 -1,-1.2 -0.3,-1.2 0.2,-1.2 0.7,-0.9 1.1,-0.6 h 0.6 l 1,0.3"
         stroke="#000000"
         stroke-width="1"
         id="path152" />
      <path
         d="m 1188.1,290.2 -0.4,1 0.5,1.1 0.5,0.6 1.2,0.4 1.6,-0.6 2,-1.6 1.7,-1.8 1.1,-1.7 0.1,-1.2 -0.4,-1.2 -0.3,-0.2 -1.2,-0.4 -1.2,0.2 -1.3,0.8 -0.4,0.4 -0.7,1.3 -0.2,1.3 0.5,1.1 0.3,0.2 1.1,0.5 1.3,-0.3 1.3,-0.8 m -9.8,0.4 -2.9,-2.8 4.3,-1.4 -0.8,-0.7 -0.2,-0.9 0.1,-0.6 0.7,-1.4 0.7,-0.7 1.3,-0.8 1.3,-0.2 1.1,0.4 0.8,0.7 0.5,1.2 -0.1,0.6 -0.4,1"
         stroke="#000000"
         stroke-width="1"
         id="path153" />
      <path
         d="m 1273.9,398.2 0.5,0.9 1.2,0.3 0.7,-0.1 1.1,-0.7 0.4,-1.6 v -2.5 l -0.5,-2.5 -0.7,-1.9 -0.9,-0.9 -1.2,-0.2 h -0.4 l -1,0.7 -0.6,1.1 -0.1,1.6 0.1,0.5 0.6,1.4 1,0.8 1.2,0.3 0.3,-0.1 1,-0.6 0.6,-1.2 0.1,-1.5 m -5,5.6 -0.7,0.7 -0.8,1.6 -1.9,-10.3"
         stroke="#000000"
         stroke-width="1"
         id="path154" />
      <path
         d="m 1308.3,428.5 -0.8,0.8 0.1,1.2 0.3,0.7 0.9,0.8 h 1.7 l 2.4,-0.7 2.3,-1 1.6,-1.2 0.6,-1.1 v -1.3 l -0.2,-0.3 -0.9,-0.8 -1.2,-0.3 -1.5,0.3 -0.5,0.2 -1.2,1 -0.6,1.1 v 1.2 l 0.2,0.4 0.9,0.8 1.3,0.2 1.5,-0.2 m -6.9,-4.2 -0.5,0.2 -1.1,0.1 -0.6,-0.1 -0.7,-0.5 -0.7,-1.4 0.2,-0.9 0.2,-0.5 0.8,-0.8 0.9,-0.4 1.1,-0.1 1.6,0.1 6.2,1.2 -2.3,-4.7"
         stroke="#000000"
         stroke-width="1"
         id="path155" />
      <path
         d="m 1238.1,416.9 1.1,0.2 1,-0.6 0.5,-0.6 0.2,-1.2 -0.8,-1.5 -1.8,-1.8 -2,-1.4 -1.9,-0.9 -1.2,0.1 -1.1,0.6 -0.2,0.3 -0.2,1.2 0.3,1.2 1,1.2 0.4,0.3 1.5,0.5 h 1.2 l 1.1,-0.6 0.2,-0.3 0.3,-1.2 -0.4,-1.2 -1,-1.2 m -0.1,12.3 -3.5,-7.2 -3.2,4.6 m 6.7,2.6 -8.5,-6.1"
         stroke="#000000"
         stroke-width="1"
         id="path156" />
      <path
         d="m 1244.8,508.7 -0.8,-0.6 -1.2,0.2 -0.7,0.4 -0.7,1 0.2,1.7 1.1,2.3 1.3,2.1 1.4,1.5 1.2,0.4 1.2,-0.2 0.3,-0.2 0.7,-1 0.1,-1.3 -0.5,-1.4 -0.3,-0.5 -1.1,-1 -1.2,-0.5 -1.2,0.2 -0.3,0.2 -0.7,1.1 -0.1,1.2 0.5,1.5 m 5.6,-11.9 2.5,10.9 m -6.9,-8.1 4.4,-2.8"
         stroke="#000000"
         stroke-width="1"
         id="path157" />
      <path
         d="m 1233.9,477.7 0.9,-0.5 0.3,-1.2 -0.1,-0.8 -0.7,-1 -1.6,-0.5 -2.5,0.1 -2.5,0.4 -1.9,0.8 -0.8,0.9 -0.3,1.2 v 0.3 l 0.7,1.1 1.1,0.5 1.6,0.1 0.5,-0.1 1.4,-0.6 0.8,-0.9 0.3,-1.2 v -0.4 l -0.7,-1 -1.1,-0.5 -1.6,-0.2 m 8.3,6.6 -0.7,-1 -1,-0.2 -1,0.2 -1,0.5 -0.3,0.9 -0.2,1.5 -0.3,1.2 -0.9,0.9 -0.9,0.6 -1.5,0.2 -1,-0.1 -0.6,-0.3 -0.7,-1 -0.2,-1.5 0.2,-1.2 0.5,-0.5 0.9,-0.5 1.5,-0.3 1,0.2 1.1,0.6 0.7,1 0.8,1.4 0.6,0.6 1.1,0.2 0.9,-0.1 1,-0.6 0.3,-1.2 -0.3,-1.6"
         stroke="#000000"
         stroke-width="1"
         id="path158" />
    </g>
    <path
       d="m 1327.3,319.5 h -5.6 l -0.6,6.8 0.6,-0.8 1.7,-0.7 h 1.6 l 1.7,0.7 1.2,1.5 0.5,2.3 v 1.5 l -0.5,2.2 -1.2,1.5 -1.7,0.8 h -1.6 l -1.7,-0.8 -0.6,-0.7 -0.6,-1.5"
       id="titre_5"
       stroke="#4b0082"
       style="stroke-width:2.53872" />
  </g>
  <g
     id="page_004">
    <path
       d="m 1865.3,258.2 33.2,-25.9 -25.2,-45.5 -74.5,-18.1 -5.4,-88.4 85.1,-37.3 36.3,36.4 -32.7,50 168.3,-2.3 -12.8,48.6 14.1,62.7 14.8,81.8 12.7,36.7 15.1,40.9 -19.7,87.6 -36,59.2 -52.6,52.4 -46.6,70.7 -55.7,18.3 -88.5,22 -73,-9.7 54,-34.8 46.6,-18.7 45,-21.9 -13.5,-78.2 55.2,-29.3 18,-72.9 71.6,-16.6 27.9,-46 5.8,-48.6 -19.8,-53.2 -122.6,27.1 z m -167.9,67.2 -62.7,-57.8 56.1,-42.5 13.6,34.7 23.6,-62.5 124.7,14 7.1,56.3 -5.8,48.5 -17.7,50.9 -62.6,38.4 15.3,73.6 -26.5,56.5 64.9,45.6 -12,48.5 -167.9,11.7 25.3,-54.1 -43.1,-28 15.8,-69.8 8.3,-56.6 -6.3,-49.9 z"
       id="coupes_004"
       stroke="#ff0000"
       stroke-width="1.27"
       sodipodi:nodetypes="cccccccccccccccccccccccccccccccccccccccccccccccccccccc" />
    <path
       d="m 1873.3,186.8 164.3,-11.1 -155.5,-46.3 m 130.9,148.7 -114.5,-45.8 153.2,6.1 -38.7,39.7 53.5,42.1 -33.7,11.1 46.4,25.6 -52.2,23 67.3,17.9 m -295.5,-229.1 83.3,-39.3 -88.7,-49.1 121.4,-0.9 m 159.8,406 -75.5,-59.5 m -222.9,237.6 19,44.5 27.6,-63.2 60.9,41.2 -15.9,-63.1 71.6,44.8 -85.1,-123 131.7,52.3 -76.5,-81.6 129.1,29.2 -111.1,-102.1 M 1704.4,259.8 1859.8,267.6 1728,197.3 M 1836.3,367 1697.4,325.4 m 76.3,80 -126.2,-22.5 m 6.3,49.9 135.2,46.2 -143.5,10.4 117,46.1 -132.8,23.7 m 197.7,21.9 -154.6,6.1 m -38.1,-319.6 69.7,-7.8 149.6,56.3"
       id="plisM_004"
       stroke="#a52a2a"
       stroke-dasharray="4"
       sodipodi:nodetypes="cccccccccccccccccccccccccccccccccccccccccccccc" />
    <path
       d="m 1873.3,186.8 8.8,-57.4 m 8.3,175.8 8.1,-72.9 139.1,-56.6 m 37,309.7 -47.6,-105.5 m 11.6,164.7 -39.5,-118.7 M 1836.3,367 1704.4,259.8 l -7,65.6 76.3,80 M 1789,479 1647.5,382.9 m 115,152.6 -89.7,51.7 142.6,42.4"
       id="plisV_004"
       stroke="#008000"
       stroke-dasharray="4, 1, 1, 1"
       stroke-width="1.27"
       sodipodi:nodetypes="cccccccccccccccccc" />
    <path
       d="m 1875.7,156.1 4,4 m 0,-4 -4,4 m 90.4,41.9 4,4 m 0,-4 -4,4 m -73.6,60.7 4,4 m 0,-4 -4,4 m 156.3,160 4,4 m 0,-4 -4,4 m -32,48.5 4,4 m 0,-4 -4,4 m -248.4,-175.8 4,4 m 0,-4 -4,4 m -69.5,-24.8 4,4 m 0,-4 -4,4 m 34.7,68.8 4,4 m 0,-4 -4,4 m -17.4,61.5 4,4 m 0,-4 -4,4 m -0.6,126.5 4,4 m 0,-4 -4,4 m 26.5,43 4,4 m 0,-4 -4,4"
       id="marqueV_004"
       stroke="#008000" />
    <g
       id="nums_004">
      <path
         d="m 2031.3,145.8 9.2,6.3 m -10.6,-1.2 1.4,-5.1"
         stroke="#000000"
         stroke-width="1"
         id="path159" />
      <path
         d="m 1965.8,142.1 3.7,-7 h -5.7 m 2,7 -0.1,-10.5"
         stroke="#000000"
         stroke-width="1"
         id="path160" />
      <path
         d="m 1893.5,199.7 0.8,0.4 1.9,0.3 -9.2,5.1 m 12,-0.8 -7.9,0.1 2.7,4.9 m 5.2,-5 -9.2,5"
         stroke="#000000"
         stroke-width="1"
         id="path161" />
      <path
         d="m 2034.2,207.3 h 1.5 l 1.2,0.5 0.7,1 0.1,0.4 -0.2,1.2 -0.9,1 -1.3,0.7 -0.5,0.1 -1.6,-0.1 -1.1,-0.5 -0.7,-1 -0.1,-0.3 0.2,-1.3 0.8,-0.9 1.9,-0.8 2.4,-0.5 2.6,-0.2 1.6,0.4 0.7,1 0.2,0.7 -0.3,1.2 -0.8,0.6"
         stroke="#000000"
         stroke-width="1"
         id="path162" />
      <path
         d="m 2048.7,285.8 -0.6,-0.7 -1.7,-0.8 10.3,-1.9 m -11.8,-4.2 11,1.8 m -10,3.4 -1,-5.2"
         stroke="#000000"
         stroke-width="1"
         id="path163" />
      <path
         d="m 1943.5,281.9 -0.1,-0.4 0.2,-1.1 0.2,-0.6 0.7,-0.6 1.4,-0.3 0.9,0.3 0.4,0.4 0.6,0.9 0.2,1 -0.1,1 -0.4,1.6 -2.6,5.7 5.1,-1.1 m -0.7,-8.2 0.6,-0.6 0.8,-1.7 2.3,10.2"
         stroke="#000000"
         stroke-width="1"
         id="path164" />
      <path
         d="m 2033.1461,299.37415 0.5,-0.2 h 1 l 0.6,0.2 0.8,0.5 0.5,1.4 -0.2,0.9 -0.4,0.5 -0.8,0.7 -0.9,0.4 h -1.1 l -1.6,-0.2 -6,-1.8 1.8,4.9 m 8.1,-1 0.5,-0.2 h 1.1 l 0.6,0.2 0.7,0.5 0.5,1.4 -0.2,0.9 -0.3,0.5 -0.8,0.7 -1,0.3 h -1 l -1.7,-0.1 -6,-1.8 1.8,4.9"
         stroke="#000000"
         stroke-width="1"
         id="path165" />
      <path
         d="m 2062.7449,343.14383 -0.5,0.2 -1.1,-0.1 -0.6,-0.2 -0.7,-0.5 -0.5,-1.4 0.3,-0.9 0.3,-0.5 0.8,-0.7 1,-0.3 h 1 l 1.7,0.2 6,1.9 -1.8,-4.9 m -10.3,-2.5 -0.8,0.7 -0.2,1.3 0.3,0.7 0.8,0.9 1.7,0.2 2.5,-0.5 2.3,-0.8 1.8,-1 0.7,-1.1 0.1,-1.2 -0.1,-0.3 -0.8,-0.9 -1.2,-0.4 -1.6,0.1 -0.5,0.2 -1.2,0.8 -0.7,1.1 -0.1,1.2 0.1,0.4 0.8,0.8 1.2,0.4 1.5,-0.1"
         stroke="#000000"
         stroke-width="1"
         id="path166" />
      <path
         d="m 2044.2,351.7 -0.5,4.1 -3.7,-2.7 -0.1,1.1 -0.6,0.7 -0.5,0.3 -1.6,0.2 -1,-0.1 -1.4,-0.5 -0.9,-0.9 -0.4,-1.2 0.2,-1.1 0.6,-1 0.5,-0.4 1.1,-0.2 m 7.4,9.6 -0.4,-1.2 -1.4,-0.9 -2.4,-0.6 -1.5,-0.2 h -2.5 l -1.6,0.6 -0.6,1.1 -0.1,0.7 0.3,1.2 1.4,0.9 2.5,0.7 1.5,0.2 2.5,-0.1 1.6,-0.6 0.6,-1 0.1,-0.6"
         stroke="#000000"
         stroke-width="1"
         id="path167" />
      <path
         d="m 2075.8,387.2 -1.5,-3.8 4.6,0.7 -0.4,-1 0.2,-0.9 0.3,-0.5 1.3,-0.9 0.9,-0.4 1.6,-0.1 1.2,0.3 0.8,0.9 0.4,1.1 -0.1,1.2 -0.3,0.5 -0.8,0.7 m -8,-3.8 -0.7,-0.5 -1.8,-0.6 9.9,-3.6"
         stroke="#000000"
         stroke-width="1"
         id="path168" />
      <path
         d="m 2069.8,444 0.9,-4 3.4,3 0.3,-1.1 0.6,-0.6 0.6,-0.3 h 1.6 l 0.9,0.2 1.4,0.7 0.8,1 0.3,1.2 -0.3,1.1 -0.7,1 -0.6,0.2 -1,0.2 m -4.5,-12.2 -1,0.1 -0.8,1 -0.1,0.7 0.2,1.2 1.3,1.1 2.4,0.9 2.4,0.6 h 2 l 1.2,-0.5 0.7,-1 0.1,-0.3 -0.3,-1.2 -0.8,-1 -1.3,-0.7 -0.5,-0.1 h -1.6 l -1.1,0.6 -0.8,0.9 v 0.4 l 0.2,1.2 0.8,1 1.4,0.7"
         stroke="#000000"
         stroke-width="1"
         id="path169" />
      <path
         d="m 1840.7,164.7 -3.7,-0.9 -1.4,4.3 0.5,-0.4 1.2,-0.2 1.1,0.3 1,0.7 0.5,1.2 v 1.5 l -0.3,1 -0.7,1.4 -0.9,0.8 -1.2,0.2 -1.1,-0.3 -1,-0.7 -0.3,-0.6 -0.1,-1.1"
         stroke="#000000"
         stroke-width="1"
         id="path170" />
      <path
         d="m 1809.8,122.9 -0.6,-1.1 -1.5,-0.6 -2.5,-0.3 -1.5,0.1 -2.5,0.6 -1.5,0.8 -0.4,1.1 v 0.8 l 0.6,1.1 1.6,0.6 2.5,0.3 1.5,-0.1 2.4,-0.5 1.5,-0.9 0.4,-1.1 v -0.6"
         stroke="#000000"
         stroke-width="1"
         id="path171" />
      <path
         d="m 1888.2,99.3 v -0.9 l -0.7,-1.7 8.8,5.7"
         stroke="#000000"
         stroke-width="1"
         id="path172" />
      <path
         d="m 1842.8,71 0.2,0.4 0.1,1.1 -0.2,0.6 -0.5,0.7 -1.3,0.6 -0.9,-0.1 -0.6,-0.3 -0.7,-0.8 -0.4,-0.9 -0.1,-1.1 0.1,-1.6 1.4,-6.1 -4.8,2.1"
         stroke="#000000"
         stroke-width="1"
         id="path173" />
      <path
         d="m 1888.6,72.6 -2.9,-3 4.4,-1.2 -0.8,-0.8 -0.2,-0.9 0.1,-0.6 0.8,-1.3 0.7,-0.7 1.3,-0.8 1.3,-0.2 1.1,0.5 0.8,0.7 0.5,1.2 -0.1,0.6 -0.5,1"
         stroke="#000000"
         stroke-width="1"
         id="path174" />
      <path
         d="m 2027.7,405.2 -2.1,3.5 -2.3,-4 -0.5,1 -0.9,0.4 h -0.6 l -1.4,-0.4 -0.9,-0.6 -1.1,-1.1 -0.5,-1.1 0.2,-1.2 0.6,-1 1,-0.7 0.6,-0.1 1.1,0.2 m 1.4,9.2 0.5,0.2 0.6,0.9 0.2,0.6 0.1,0.9 -0.8,1.3 -0.8,0.3 -0.6,0.1 -1.1,-0.2 -0.8,-0.5 -0.7,-0.9 -0.9,-1.4 -2.3,-5.8 -2.7,4.5"
         stroke="#000000"
         stroke-width="1"
         id="path175" />
      <path
         d="m 2041.8,512.8 2.2,-3.5 2.2,4 0.6,-1 0.8,-0.4 h 0.6 l 1.5,0.4 0.9,0.6 1.1,1.1 0.4,1.1 -0.1,1.2 -0.6,1 -1,0.7 -0.7,0.1 -1,-0.2 m -1.9,-13.4 4,6.9 2.9,-4.8 m -6.9,-2.1 8.9,5.5"
         stroke="#000000"
         stroke-width="1"
         id="path176" />
      <path
         d="m 1971.6,443.8 0.1,0.5 -0.1,1.1 -0.3,0.6 -0.6,0.6 -1.5,0.4 -0.8,-0.4 -0.5,-0.4 -0.6,-0.9 -0.2,-0.9 0.1,-1.1 0.4,-1.6 2.5,-5.7 -5.1,1.1 m -3.7,11.7 1.3,-11.1 m 3.8,9.9 -5.1,1.2"
         stroke="#000000"
         stroke-width="1"
         id="path177" />
      <path
         d="m 1930.9,476 0.4,0.1 0.9,0.6 0.4,0.5 0.3,0.8 -0.3,1.5 -0.7,0.6 -0.6,0.2 -1,0.2 -1,-0.3 -0.9,-0.6 -1.3,-1.1 -3.9,-4.8 -1.3,5.1 m 9.4,5.9 -0.2,-1.3 -1.3,-1 -2.3,-1 -1.5,-0.4 -2.5,-0.2 -1.7,0.4 -0.7,0.9 -0.2,0.8 0.2,1.2 1.3,1.1 2.3,0.9 1.5,0.4 2.5,0.2 1.6,-0.3 0.8,-1 0.1,-0.6"
         stroke="#000000"
         stroke-width="1"
         id="path178" />
      <path
         d="m 2001.1,565.9 0.2,-0.9 -0.3,-1.9 7.4,7.5 m -0.9,-9.5 0.8,1.3 0.2,1.2 -0.5,1.2 -0.2,0.2 -1.2,0.5 -1.2,-0.2 -1.3,-0.8 -0.4,-0.3 -0.8,-1.4 -0.2,-1.2 0.5,-1.2 0.3,-0.2 1.1,-0.5 1.2,0.2 1.7,1.2 1.8,1.7 1.5,2.1 0.5,1.6 -0.4,1.1 -0.6,0.5 -1.1,0.5 -1,-0.5"
         stroke="#000000"
         stroke-width="1"
         id="path179" />
      <path
         d="m 1891.2,538.1 -0.5,0.8 -0.3,1.8 -4.9,-9.3 m -0.6,11 0.8,0.7 1.2,-0.1 0.7,-0.4 0.7,-0.9 V 540 l -0.9,-2.4 -1.1,-2.2 -1.3,-1.6 -1.1,-0.5 h -1.3 l -0.3,0.2 -0.8,1 -0.1,1.2 0.3,1.5 0.3,0.5 1,1.1 1.1,0.5 h 1.3 l 0.3,-0.2 0.7,-1 0.2,-1.2 -0.3,-1.5"
         stroke="#000000"
         stroke-width="1"
         id="path180" />
      <path
         d="M 1950.7,629.9 V 629 l -0.7,-1.7 8.8,5.7 m -6,-10.7 -2,3.2 3.5,2.8 -0.2,-0.6 0.2,-1.2 0.6,-1 1.1,-0.6 1.2,-0.1 1.5,0.5 0.8,0.6 1.1,1.1 0.4,1.2 -0.2,1.2 -0.6,0.9 -1.1,0.7 h -0.6 l -1,-0.2"
         stroke="#000000"
         stroke-width="1"
         id="path181" />
      <path
         d="m 1871.8,579 0.6,0.7 1.7,0.8 -10.4,1.8 m 8.6,-0.4 0.6,0.7 1.7,0.8 -10.4,1.8"
         stroke="#000000"
         stroke-width="1"
         id="path182" />
      <path
         d="m 1903.5,667.5 0.6,-0.7 0.6,-1.8 3.3,10 m -0.9,-8.5 -0.2,-0.5 0.1,-1 0.2,-0.6 0.5,-0.7 1.4,-0.5 0.9,0.2 0.5,0.4 0.7,0.8 0.3,1 v 1 l -0.3,1.7 -2,5.9 5,-1.6"
         stroke="#000000"
         stroke-width="1"
         id="path183" />
      <path
         d="m 1854.5,642.1 -0.5,0.7 -0.3,1.9 -4.6,-9.5 m 1.6,11.3 0.8,-0.9 v -1.7 l -0.7,-2.4 -0.7,-1.4 -1.4,-2.1 -1.4,-1 -1.2,0.1 -0.7,0.3 -0.8,0.9 v 1.7 l 0.8,2.4 0.6,1.4 1.5,2 1.3,1.1 1.2,-0.1 0.5,-0.2"
         stroke="#000000"
         stroke-width="1"
         id="path184" />
      <path
         d="m 1838.2,684.7 -0.7,-0.8 -1.2,-0.3 -0.7,0.2 -1,0.8 -0.3,1.6 0.2,2.5 0.6,2.5 0.9,1.8 0.9,0.8 1.2,0.2 0.4,-0.1 1,-0.7 0.5,-1.2 v -1.5 l -0.2,-0.5 -0.7,-1.4 -1,-0.8 -1.2,-0.2 -0.3,0.1 -1,0.8 -0.5,1.1 v 1.6"
         stroke="#000000"
         stroke-width="1"
         id="path185" />
      <path
         d="m 1802.6,667.7 -0.4,-11.2 m 5.3,9.2 -4.9,2"
         stroke="#000000"
         stroke-width="1"
         id="path186" />
      <path
         d="m 1765.5112,689.4 -1.2,0.3 -0.5,0.9 -0.1,1 0.2,1.1 0.7,0.6 1.4,0.7 1.1,0.6 0.6,1.1 0.2,1 -0.2,1.5 -0.5,1 -0.4,0.4 -1.2,0.4 -1.5,-0.2 -1.1,-0.7 -0.3,-0.5 -0.2,-1.1 0.2,-1.5 0.5,-0.9 0.9,-0.9 1.2,-0.3 1.5,-0.3 0.8,-0.4 0.5,-1 0.2,-1 -0.3,-1 -1,-0.7 -1.7,-0.2"
         stroke="#000000"
         stroke-width="1"
         id="path187" />
      <path
         d="m 1753,690.6 -0.5,-1.5 0.1,-1.2 0.7,-1.1 0.3,-0.2 1.2,-0.2 1.2,0.5 1.1,1 0.3,0.5 0.5,1.4 -0.1,1.3 -0.7,1 -0.3,0.2 -1.2,0.2 -1.2,-0.4 -1.4,-1.5 -1.3,-2.1 -1.1,-2.3 -0.2,-1.7 0.7,-1 0.6,-0.4 1.3,-0.2 0.8,0.6"
         stroke="#000000"
         stroke-width="1"
         id="path188" />
      <path
         d="m 1885.8899,267.36181 h -8 l 2.7,5 m 5.3,-5 -9.3,5 m 11.5,-0.6 -1,-0.7 -1,0.1 -0.9,0.5 -0.7,0.8 -0.1,0.9 0.2,1.5 0.1,1.3 -0.5,1.1 -0.7,0.8 -1.3,0.7 -1.1,0.2 -0.6,-0.1 -1,-0.8 -0.7,-1.3 -0.1,-1.3 0.3,-0.5 0.7,-0.8 1.3,-0.7 1.1,-0.2 1.2,0.2 1,0.8 1.1,1.1 0.8,0.4 1.1,-0.1 0.9,-0.5 0.7,-0.8 -0.1,-1.2 -0.8,-1.5"
         stroke="#000000"
         stroke-width="1"
         id="path189" />
      <path
         d="m 1889.7899,255.85505 -1.3,-7.8 -4.5,3.4 m 5.8,4.4 -6.5,-8.3 m 0,13.2 -3.5,-10.6 m 7.7,7.4 -4.2,3.2"
         stroke="#000000"
         stroke-width="1"
         id="path190" />
      <path
         d="m 1842.6,295.7 0.5,-4.1 3.7,2.7 0.1,-1.1 0.6,-0.7 0.6,-0.3 1.5,-0.2 1,0.1 1.4,0.6 0.9,0.8 0.4,1.2 -0.1,1.1 -0.7,1.1 -0.5,0.3 -1,0.2 m -7.4,-9.6 0.3,1.2 1.4,0.9 2.5,0.7 1.4,0.1 h 2.6 l 1.5,-0.6 0.7,-1.1 0.1,-0.7 -0.4,-1.2 -1.4,-0.9 -2.4,-0.7 -1.5,-0.1 h -2.5 l -1.6,0.6 -0.7,1.1 v 0.5"
         stroke="#000000"
         stroke-width="1"
         id="path191" />
      <path
         d="m 1830.3,342.4 1.4,-3.9 3,3.4 0.4,-1.1 0.7,-0.5 0.6,-0.2 1.5,0.1 1,0.4 1.3,0.8 0.7,1.1 0.1,1.2 -0.4,1 -0.8,0.9 -0.6,0.2 -1.1,0.1 m -3.3,-8.7 -0.5,-0.2 -0.8,-0.6 -0.4,-0.6 -0.2,-0.8 0.5,-1.5 0.7,-0.5 0.6,-0.2 h 1.1 l 0.9,0.3 0.8,0.7 1.2,1.2 3.5,5.2 1.7,-5"
         stroke="#000000"
         stroke-width="1"
         id="path192" />
      <path
         d="m 1794.1,379.7 -0.2,-0.4 -0.2,-1.1 v -0.6 l 0.4,-0.8 1.3,-0.8 h 0.9 l 0.6,0.2 0.8,0.7 0.5,0.8 0.2,1.1 0.2,1.7 -0.6,6.2 4.5,-2.8 m -0.2,-12.2 2.3,10.9 m -6.8,-8.1 4.5,-2.8"
         stroke="#000000"
         stroke-width="1"
         id="path193" />
      <path
         d="m 1684.8,357.1 0.4,0.3 0.5,1 0.1,0.6 -0.1,0.9 -1,1.1 -0.8,0.3 -0.7,-0.1 -1,-0.4 -0.7,-0.6 -0.5,-1 -0.7,-1.5 -1.3,-6.1 -3.4,3.9 m 5.9,9.2 0.3,-1.1 -0.5,-1 -0.7,-0.6 -1,-0.4 -0.9,0.2 -1.3,0.8 -1.2,0.6 -1.2,-0.1 -1,-0.4 -1.1,-1 -0.6,-0.9 -0.1,-0.6 0.4,-1.2 1,-1.1 1.1,-0.6 0.6,0.1 1,0.4 1.1,0.9 0.5,1 0.3,1.2 -0.4,1.2 -0.6,1.4 -0.1,0.9 0.5,1 0.8,0.6 1,0.4 1.1,-0.5 1.1,-1.3"
         stroke="#000000"
         stroke-width="1"
         id="path194" />
      <path
         d="m 1771.5,450.2 -0.5,0.1 -1,-0.1 -0.6,-0.3 -0.6,-0.6 -0.3,-1.5 0.3,-0.8 0.4,-0.5 0.9,-0.6 1,-0.2 1.1,0.2 1.6,0.4 5.6,2.7 -1,-5.2 m -11,-1.2 0.7,1 1.6,0.4 2.6,-0.1 1.4,-0.3 2.4,-0.9 1.3,-1 0.3,-1.2 -0.2,-0.8 -0.7,-1 -1.6,-0.4 -2.5,0.1 -1.5,0.3 -2.4,0.9 -1.3,1.1 -0.3,1.2 0.2,0.5"
         stroke="#000000"
         stroke-width="1"
         id="path195" />
      <path
         d="m 1661.1,400.6 0.5,-0.1 1,0.3 0.5,0.3 0.6,0.7 0.2,1.5 -0.4,0.8 -0.4,0.4 -1,0.5 -1,0.1 -1,-0.2 -1.6,-0.6 -5.4,-3.1 0.6,5.2 m 11.2,4.3 -0.5,-3.7 -4.5,0.2 0.5,0.3 0.7,1.1 0.1,1.1 -0.4,1.2 -0.9,0.8 -1.4,0.6 -1,0.1 -1.5,-0.2 -1.1,-0.6 -0.7,-1 -0.1,-1.2 0.4,-1.1 0.4,-0.5 1,-0.5"
         stroke="#000000"
         stroke-width="1"
         id="path196" />
      <path
         d="m 1661.6,458.2 0.4,0.8 1.3,1.3 -10.4,-1.5 m 10.3,4.6 -0.3,-1.2 -1,-0.5 -0.9,-0.1 -1.1,0.2 -0.6,0.6 -0.7,1.5 -0.7,1 -1.1,0.6 -1,0.2 -1.5,-0.2 -0.9,-0.5 -0.5,-0.4 -0.3,-1.2 0.2,-1.5 0.7,-1.1 0.5,-0.3 1.1,-0.2 1.5,0.2 0.9,0.5 0.9,0.9 0.3,1.2 0.3,1.6 0.4,0.8 0.9,0.5 1,0.1 1,-0.2 0.7,-1 0.2,-1.7"
         stroke="#000000"
         stroke-width="1"
         id="path197" />
      <path
         d="m 1763.5,506.4 -0.1,-0.9 -0.9,-1.6 9.5,4.4 m -6,-9.1 -1.1,-0.1 -0.9,0.8 -0.4,0.7 v 1.2 l 1.1,1.4 2.1,1.4 2.2,1 2,0.5 1.2,-0.2 0.9,-0.8 0.2,-0.4 v -1.2 l -0.6,-1.1 -1.2,-1 -0.4,-0.2 -1.5,-0.3 -1.2,0.3 -1,0.8 -0.1,0.3 -0.1,1.2 0.6,1.1 1.2,1"
         stroke="#000000"
         stroke-width="1"
         id="path198" />
      <path
         d="m 1649.7,522.4 0.4,0.8 1.2,1.4 -10.3,-2.3 m 10.2,4.3 -0.9,4 -3.4,-3.1 -0.3,1.1 -0.6,0.6 -0.6,0.3 h -1.5 l -1,-0.2 -1.4,-0.7 -0.8,-1 -0.2,-1.2 0.2,-1.1 0.7,-1 0.6,-0.2 1.1,-0.2"
         stroke="#000000"
         stroke-width="1"
         id="path199" />
      <path
         d="m 1656.8,560.4 3.4,2.2 -4,2.2 0.9,0.6 0.4,0.8 v 0.6 l -0.5,1.5 -0.5,0.8 -1.1,1.1 -1.2,0.4 -1.2,-0.2 -1,-0.6 -0.6,-1 -0.1,-0.6 0.2,-1.1"
         stroke="#000000"
         stroke-width="1"
         id="path200" />
      <path
         d="m 1790.8,569.3 h -0.9 l -1.8,0.6 6,-8.6 m -5.8,6.3 h -0.9 l -1.7,0.6 6,-8.6"
         stroke="#000000"
         stroke-width="1"
         id="path201" />
      <path
         d="m 1809.3,607.1 -0.3,-0.8 -1.2,-1.5 10.2,2.5 m -9.7,-5.9 0.2,1.2 1.2,1.1 2.4,1 1.4,0.3 2.6,0.2 1.6,-0.3 0.7,-1 0.2,-0.7 -0.2,-1.2 -1.3,-1.1 -2.3,-1 -1.5,-0.3 -2.5,-0.3 -1.6,0.4 -0.8,1 -0.1,0.5"
         stroke="#000000"
         stroke-width="1"
         id="path202" />
      <path
         d="m 1671.1,617.8 0.1,0.9 0.9,1.6 -9.5,-4.4"
         stroke="#000000"
         stroke-width="1"
         id="path203" />
      <path
         d="m 1731.1,621.6 -3.2,7.2 5.6,-0.3 m -2.4,-6.9 0.8,10.5"
         stroke="#000000"
         stroke-width="1"
         id="path204" />
      <path
         d="m 1728.8,227 0.4,0.2 0.8,0.7 0.4,0.5 0.2,0.9 -0.5,1.4 -0.8,0.5 -0.6,0.2 h -1 l -1,-0.3 -0.8,-0.7 -1.1,-1.3 -3.4,-5.2 -1.8,4.9 m 9.1,5.4 -1.4,3.9 -3,-3.5 -0.4,1 -0.7,0.6 -0.6,0.1 -1.5,-0.1 -1,-0.4 -1.3,-0.9 -0.6,-1 -0.1,-1.3 0.4,-1 0.9,-0.9 0.6,-0.2 h 1"
         stroke="#000000"
         stroke-width="1"
         id="path205" />
      <path
         d="m 1845.8,246.6 -0.5,0.1 -1,-0.2 -0.5,-0.3 -0.6,-0.7 -0.2,-1.5 0.4,-0.8 0.4,-0.5 1,-0.5 1,-0.1 1,0.3 1.6,0.5 5.4,3.1 -0.6,-5.2 m -8.2,-0.8 -0.5,0.1 -1,-0.3 -0.6,-0.3 -0.6,-0.7 -0.2,-1.5 0.4,-0.8 0.5,-0.4 0.9,-0.5 1,-0.1 1.1,0.2 1.5,0.6 5.5,3.1 -0.7,-5.2"
         stroke="#000000"
         stroke-width="1"
         id="path206" />
      <path
         d="m 1794.9,216.1 v 0.5 l -0.5,1 -0.5,0.4 -0.8,0.4 -1.5,-0.1 -0.6,-0.6 -0.4,-0.6 -0.2,-1 0.1,-1 0.5,-0.9 0.9,-1.4 4.3,-4.6 -5.2,-0.6 m -2,8 -0.8,0.4 -1.3,1.4 1.2,-10.5"
         stroke="#000000"
         stroke-width="1"
         id="path207" />
      <path
         d="m 1671.3,282.7 3.1,2.8 -4.4,1.4 0.8,0.8 0.3,0.8 -0.1,0.7 -0.8,1.3 -0.6,0.7 -1.3,0.9 -1.2,0.2 -1.2,-0.4 -0.8,-0.7 -0.5,-1.2 v -0.6 l 0.4,-1 m 13.8,1.2 -2.7,-2.6 -3.4,3.1 0.6,-0.1 1.2,0.4 0.8,0.7 0.5,1.1 -0.1,1.3 -0.7,1.3 -0.7,0.8 -1.3,0.8 -1.2,0.3 -1.2,-0.4 -0.8,-0.8 -0.5,-1.1 v -0.6 l 0.4,-1"
         stroke="#000000"
         stroke-width="1"
         id="path208" />
      <path
         d="m 1675.4,254 -3.3,2.5 -0.6,-4.6 -0.9,0.7 -0.9,0.1 -0.6,-0.2 -1.2,-1 -0.6,-0.8 -0.6,-1.4 V 248 l 0.6,-1 0.9,-0.7 1.2,-0.3 0.6,0.2 0.9,0.6 m -0.6,11 -3.3,2.5 -0.6,-4.5 -0.9,0.7 h -0.9 l -0.6,-0.1 -1.2,-1 -0.6,-0.8 -0.6,-1.4 v -1.3 l 0.6,-1.1 0.9,-0.6 1.2,-0.3 0.6,0.1 0.9,0.6"
         stroke="#000000"
         stroke-width="1"
         id="path209" />
      <path
         d="m 1689.3,252.2 -0.5,0.1 -1,0.1 -0.6,-0.2 -0.8,-0.5 -0.5,-1.4 0.2,-0.9 0.3,-0.5 0.8,-0.7 0.9,-0.4 h 1.1 l 1.7,0.1 6,1.7 -1.9,-4.9 m -11.8,-0.9 7.9,0.9 -2,-5.2 m -5.9,4.3 9.8,-3.8"
         stroke="#000000"
         stroke-width="1"
         id="path210" />
    </g>
    <path
       d="m 1991.1,460.9 -0.5,-1.5 -1.7,-0.8 h -1.1 l -1.7,0.8 -1.2,2.2 -0.5,3.8 v 3.7 l 0.5,3 1.2,1.5 1.7,0.8 h 0.5 l 1.7,-0.8 1.1,-1.5 0.6,-2.2 v -0.8 l -0.6,-2.2 -1.1,-1.5 -1.7,-0.8 h -0.5 l -1.7,0.8 -1.2,1.5 -0.5,2.2"
       id="titre_6"
       stroke="#4b0082"
       style="stroke-width:2.53872" />
    <path
       d="m 1740.2,410 -5.7,15.8 m -2.2,-15.8 h 7.9"
       id="titre_7"
       stroke="#4b0082"
       style="stroke-width:2.53872" />
  </g>
</svg>
