<?xml version="1.0" encoding="UTF-8" standalone="no"?>
<svg
   height="841.88977pt"
   viewBox="0 0 532.99998 754.00001"
   width="595.27557pt"
   version="1.1"
   id="svg1"
   sodipodi:docname="Corgi200_H15_A4x2.svg"
   inkscape:version="1.3 (0e150ed6c4, 2023-07-21)"
   xmlns:inkscape="http://www.inkscape.org/namespaces/inkscape"
   xmlns:sodipodi="http://sodipodi.sourceforge.net/DTD/sodipodi-0.dtd"
   xmlns="http://www.w3.org/2000/svg"
   xmlns:svg="http://www.w3.org/2000/svg">
  <defs
     id="defs1" />
  <sodipodi:namedview
     id="namedview1"
     pagecolor="#ffffff"
     bordercolor="#000000"
     borderopacity="0.25"
     inkscape:showpageshadow="2"
     inkscape:pageopacity="0.0"
     inkscape:pagecheckerboard="0"
     inkscape:deskcolor="#d1d1d1"
     inkscape:document-units="mm"
     showgrid="false"
     inkscape:zoom="0.76561114"
     inkscape:cx="865.32179"
     inkscape:cy="670.70602"
     inkscape:window-width="1920"
     inkscape:window-height="1057"
     inkscape:window-x="-8"
     inkscape:window-y="-8"
     inkscape:window-maximized="1"
     inkscape:current-layer="svg1" />
  <style
     type="text/css"
     id="style1"><![CDATA[
			path {
				fill: none;
			}
		]]></style>
  <g
     id="page_001">
    <path
       d="m 69.3,331.3 -0.7,-2.9 -2.7,0.3 0.4,0.2 0.5,0.8 0.2,0.9 -0.1,0.9 -0.5,0.8 -0.8,0.4 -0.6,0.2 -0.9,-0.1 -0.7,-0.5 -0.5,-0.8 -0.2,-0.9 0.1,-0.9 0.2,-0.4 0.5,-0.4 m 33.2,-17.2 -0.5,0.3 -0.2,1 0.1,0.6 0.4,0.8 0.9,0.5 1.6,0.1 1.5,-0.2 1.1,-0.4 0.5,-0.7 0.2,-0.9 v -0.3 l -0.5,-0.9 -0.6,-0.5 -1,-0.2 h -0.3 l -0.8,0.5 -0.5,0.6 -0.2,1 v 0.3 l 0.4,0.8 0.7,0.5 1,0.2 m -5.3,-7.6 4.5,2.5 -0.6,-4.5 m -3.9,2 6.2,-0.8 M 64.6,395.6 60,390.4 m 6.3,1.3 -1.7,3.9 m 65.8,-42.2 0.3,0.7 0.8,0.4 0.6,0.1 0.9,-0.2 0.8,-0.8 0.5,-1.4 0.2,-1.5 -0.1,-1.2 -0.5,-0.7 -0.8,-0.4 -0.3,-0.1 -1,0.2 -0.7,0.5 -0.4,0.8 v 0.3 l 0.1,1 0.5,0.6 0.9,0.5 h 0.3 l 0.9,-0.1 0.7,-0.5 0.4,-0.9 m -6.2,3.3 -3.3,-0.5 2.2,-2.1 -0.9,-0.1 -0.5,-0.4 -0.3,-0.4 -0.1,-0.9 V 349 l 0.5,-0.8 0.7,-0.5 0.9,-0.2 0.9,0.1 0.8,0.5 0.3,0.3 0.2,0.7 m -73.6,-77.2 0.4,0.5 1,0.8 -6.2,1 m 5.2,0.8 h 0.3 l 0.7,0.2 0.3,0.2 0.4,0.6 0.2,1.1 -0.2,0.7 -0.2,0.3 -0.6,0.4 -0.6,0.1 -0.6,-0.2 -1,-0.4 -3.5,-2.5 0.7,4.2 m 70.6,142.6 -0.6,-0.3 -0.9,0.2 -0.5,0.3 -0.6,0.8 v 1.1 l 0.6,1.4 0.8,1.2 0.9,0.9 0.8,0.1 1,-0.2 0.2,-0.2 0.6,-0.7 0.2,-0.8 -0.3,-1 -0.1,-0.2 -0.8,-0.6 -0.8,-0.2 -0.9,0.3 -0.3,0.1 -0.6,0.8 -0.1,0.8 0.2,0.9 m 5.4,-7.5 -0.6,-0.3 -0.9,0.2 -0.5,0.4 -0.6,0.7 v 1.1 l 0.6,1.4 0.8,1.3 0.9,0.8 0.9,0.2 0.9,-0.3 0.2,-0.1 0.6,-0.8 0.2,-0.8 -0.3,-0.9 -0.1,-0.3 -0.8,-0.6 -0.8,-0.1 -0.9,0.2 -0.3,0.2 -0.6,0.7 -0.1,0.8 0.2,1 m 46.3,-80.3 0.6,0.3 0.9,-0.3 0.5,-0.3 0.5,-0.8 v -1.1 l -0.7,-1.4 -0.8,-1.2 -1,-0.8 -0.8,-0.1 -0.9,0.3 -0.3,0.1 -0.5,0.8 -0.2,0.9 0.3,0.9 0.2,0.2 0.8,0.6 0.8,0.1 0.9,-0.3 0.3,-0.2 0.5,-0.7 0.1,-0.9 -0.2,-0.9 m -4.6,8.5 2.5,-1.8 -1.4,-2.3 -0.1,0.4 -0.5,0.7 -0.7,0.6 -0.9,0.3 -0.9,-0.2 -0.7,-0.5 -0.4,-0.5 -0.3,-0.9 0.2,-0.9 0.5,-0.7 0.7,-0.6 0.9,-0.2 h 0.5 l 0.6,0.3 m -132.1,-121 0.5,0.4 1.2,0.4 -5.6,2.8 m 7.9,1.3 -1.3,-2.7 -2.5,1 0.4,0.1 0.6,0.7 0.4,0.8 0.2,0.9 -0.3,0.8 -0.7,0.7 -0.5,0.3 -1,0.1 -0.8,-0.3 -0.6,-0.6 -0.4,-0.9 -0.2,-0.9 0.2,-0.4 0.4,-0.5 m 75.3,243.1 -0.4,0.5 0.1,1 0.3,0.5 0.6,0.7 1.1,0.1 1.5,-0.4 1.3,-0.7 1,-0.8 0.2,-0.8 -0.1,-0.9 -0.1,-0.3 -0.7,-0.7 -0.8,-0.2 -1,0.1 -0.2,0.1 -0.7,0.7 -0.3,0.8 0.2,1 0.1,0.2 0.7,0.7 0.8,0.3 0.9,-0.2 m -6.7,-3.9 0.7,0.6 h 0.7 l 0.5,-0.2 0.4,-0.6 v -0.6 l -0.3,-1.3 -0.1,-0.9 0.3,-0.8 0.4,-0.5 0.8,-0.4 h 0.6 l 0.4,0.1 0.7,0.7 0.6,1 0.1,1 -0.1,0.4 -0.4,0.5 -0.8,0.4 h -0.7 l -0.8,-0.2 -0.7,-0.7 -0.8,-1 -0.5,-0.4 h -0.7 l -0.5,0.3 -0.5,0.6 0.2,0.9 0.6,1.2 m -56.3,10 -5,5 m 1,-6.4 4,1.4 m 4.9,1.8 -5,4.9 m 1,-6.3 4,1.4 m -13.2,-32.9 0.1,0.7 0.5,1.2 -5.9,-2.4 m 5.1,4.9 v -1 l -0.4,-0.5 -0.6,-0.2 -0.6,0.1 -0.5,0.4 -0.8,1 -0.6,0.7 -0.8,0.4 H 38 l -0.9,-0.3 -0.4,-0.5 -0.2,-0.4 0.1,-0.9 0.4,-1.2 0.6,-0.7 0.4,-0.1 0.7,-0.1 0.8,0.3 0.5,0.5 0.3,0.8 v 1 l -0.2,1.2 v 0.7 l 0.5,0.5 0.5,0.2 0.7,-0.1 0.6,-0.7 0.5,-1.2 m 161.9,-81.2 -0.7,-0.2 -0.8,0.6 -0.3,0.4 -0.4,0.9 0.4,1.1 1,1.1 1.2,0.9 1.1,0.5 0.9,-0.1 0.7,-0.5 0.2,-0.3 0.3,-0.8 -0.1,-0.9 -0.5,-0.8 -0.2,-0.2 -0.9,-0.3 -0.9,0.1 -0.8,0.6 -0.1,0.2 -0.4,0.9 0.1,0.8 0.6,0.8 m 2.2,-9.7 3.2,6.2 m -5.7,-2.9 2.5,-3.3 m -133,-163.7 5.9,3.7 m -6.4,0.5 0.5,-4.2 m 1.5,-0.9 -0.2,-0.6 -0.8,-1 6.3,0.7 m 14.6,5.7 -4.5,-5.3 m 6.2,1.5 -1.7,3.8 m -1.7,0.4 v 0.7 l 0.4,1.2 -5.7,-2.7 m 123.6,112.1 -1.5,-6.8 m 4.8,4.2 -3.3,2.6 m -2.2,-0.1 0.2,0.2 0.1,0.7 -0.1,0.4 -0.2,0.6 -1,0.7 -0.6,0.2 -0.5,-0.1 -0.6,-0.3 -0.3,-0.4 -0.2,-0.7 -0.1,-1.1 0.5,-4.2 -3.3,2.6 m 19.4,4.7 6.4,2.9 m -6.3,1.3 -0.1,-4.2 m 0,-1.7 -0.1,-3.3 2.5,1.8 -0.1,-0.9 0.3,-0.6 0.3,-0.3 0.9,-0.4 h 0.6 l 0.9,0.3 0.6,0.6 0.4,0.9 v 0.9 l -0.3,0.9 -0.3,0.3 -0.6,0.3 M 28.6,166.8 h 0.3 l 0.6,0.4 0.2,0.3 0.3,0.6 -0.2,1.2 -0.3,0.6 -0.4,0.2 -0.6,0.3 -0.6,-0.1 -0.6,-0.4 -0.8,-0.7 -2.6,-3.3 -0.5,4.2 m 5.9,3.6 -0.2,-0.9 -0.8,-0.7 -1.5,-0.5 -0.9,-0.1 -1.5,0.1 -0.9,0.5 -0.5,0.9 v 0.6 l 0.2,0.9 0.8,0.7 1.4,0.5 0.9,0.1 1.6,-0.1 0.9,-0.5 0.4,-0.9 0.1,-0.4 m 122.8,51.6 -0.7,-0.2 -0.8,0.6 -0.4,0.4 -0.3,0.9 0.4,1.1 1,1.1 1.2,0.9 1.1,0.5 0.9,-0.1 0.8,-0.5 0.1,-0.3 0.3,-0.9 -0.1,-0.8 -0.5,-0.8 -0.2,-0.2 -0.9,-0.3 -0.9,0.1 -0.8,0.6 -0.1,0.2 -0.3,0.9 0.1,0.8 0.5,0.8 m 3.8,-8.4 0.5,0.8 0.1,0.8 -0.3,0.9 -0.2,0.3 -0.8,0.5 -0.8,0.1 -0.9,-0.3 -0.3,-0.2 -0.5,-0.7 -0.1,-0.9 0.3,-0.9 0.2,-0.2 0.8,-0.6 0.8,-0.1 1.2,0.5 1.1,0.9 1.1,1.2 0.3,1 -0.3,0.9 -0.4,0.5 -0.7,0.5 -0.7,-0.1 m -12.9,280 6.1,-3.2 m -2.8,5.7 -3.3,-2.5 m -1.4,-1 -2.7,-2 2.9,-0.9 -0.7,-0.5 -0.3,-0.6 -0.1,-0.4 0.3,-0.9 0.4,-0.5 0.8,-0.5 0.8,-0.2 0.9,0.3 0.7,0.6 0.6,0.8 v 0.4 l -0.1,0.6 m -9.5,-310 2.9,-6.3 m 1.3,6.2 -4.2,0.1 m -4.3,0.2 2.9,-4.3 -4.4,0.1 m 1.5,4.2 -0.1,-6.3 m -2.9,370.7 -7,0.7 m 4.8,-4.3 2.2,3.6 m 0.7,5.5 -0.9,0.2 -0.8,-0.3 -0.7,-0.6 -0.2,-0.2 -0.2,-1 0.2,-0.8 0.6,-0.7 0.3,-0.2 0.9,-0.2 0.8,0.3 0.8,0.6 0.1,0.2 0.2,1 -0.2,0.8 -0.9,0.9 -1.3,0.7 -1.4,0.5 H 126 l -0.7,-0.7 -0.3,-0.5 -0.2,-0.9 0.3,-0.6 M 38.7,114.8 38,118 l -2,-2.2 -0.1,0.9 -0.5,0.5 -0.3,0.2 -1,0.2 -0.5,-0.1 -0.9,-0.5 -0.4,-0.7 -0.2,-1 0.2,-0.8 0.5,-0.9 0.3,-0.2 0.7,-0.2 m 2.4,9.6 0.6,-0.2 0.5,-0.8 0.1,-0.6 -0.1,-0.9 -0.8,-0.8 -1.4,-0.6 -1.5,-0.3 -1.2,0.1 -0.7,0.5 -0.5,0.8 v 0.3 l 0.1,0.9 0.4,0.7 0.9,0.5 0.3,0.1 0.9,-0.2 0.7,-0.4 0.5,-0.9 v -0.2 l -0.1,-1 -0.4,-0.7 -0.9,-0.5 m 73.7,2.2 4.3,-5.5 m -0.2,6.5 -4.1,-1 m -4.6,-1 2.9,0.7 0.9,-2.6 -0.3,0.2 -1,0.1 -0.9,-0.2 -0.8,-0.5 -0.4,-0.7 -0.1,-0.9 0.1,-0.6 0.5,-0.8 0.7,-0.5 1,-0.1 0.8,0.2 0.9,0.5 0.2,0.4 0.1,0.6 m -5.7,30.4 3.2,6.2 m -5.8,-2.9 2.6,-3.3 m 2.5,-3.5 1.5,4.9 2.8,-3.5 m -4.3,-1.4 5,3.8 m 98.2,55.1 4.7,-5.2 m -0.7,6.4 -4,-1.2 m -4.3,-2.2 0.1,0.6 0.8,0.6 0.5,0.1 h 1 l 0.8,-0.7 0.8,-1.3 0.4,-1.5 v -1.2 l -0.4,-0.7 -0.7,-0.6 -0.3,-0.1 -1,0.1 -0.7,0.4 -0.6,0.7 v 0.3 1 l 0.4,0.7 0.8,0.6 h 0.2 1 l 0.7,-0.4 0.6,-0.8 m -0.3,317.6 1.2,-6.9 m 2.8,5.8 -4,1.1 m -4.9,0.3 0.5,0.5 0.9,0.1 0.6,-0.2 0.8,-0.5 0.4,-1 -0.1,-1.5 -0.4,-1.5 -0.6,-1.1 -0.8,-0.4 -0.9,-0.1 -0.3,0.1 -0.8,0.5 -0.4,0.8 -0.1,0.9 0.1,0.3 0.5,0.8 0.8,0.4 0.9,0.1 0.3,-0.1 0.8,-0.5 0.4,-0.7 0.1,-1 m 21.9,-277.3 5.4,4.4 m -6.4,-0.3 1,-4.1 m 1.8,-1.2 -0.3,-0.1 -0.5,-0.4 -0.2,-0.4 -0.2,-0.6 0.3,-1.2 0.4,-0.5 0.4,-0.2 0.7,-0.2 0.5,0.1 0.6,0.5 0.7,0.8 2.2,3.6 1,-4.1 m -30.5,3 -6.5,2.6 m 3.4,-5.4 3.1,2.8 m 2.2,1.9 -0.9,-0.3 -1,0.2 -1.3,0.9 -0.6,0.7 -0.7,1.3 -0.2,1.1 0.5,0.8 0.4,0.4 0.9,0.4 1,-0.3 1.3,-0.9 0.6,-0.7 0.7,-1.3 0.2,-1 -0.5,-0.9 -0.3,-0.3 m 2.3,298.1 -0.2,1 0.3,0.5 0.6,0.3 0.6,0.1 0.6,-0.4 0.9,-0.9 0.7,-0.6 0.8,-0.3 0.7,0.1 0.7,0.4 0.4,0.6 0.1,0.4 -0.2,0.9 -0.6,1.1 -0.7,0.6 -0.4,0.1 h -0.7 l -0.7,-0.5 -0.4,-0.5 -0.2,-0.9 0.2,-0.9 0.3,-1.2 V 532 l -0.3,-0.6 -0.6,-0.3 h -0.6 l -0.7,0.6 -0.7,1.2 m 3.2,-2.7 v -0.7 l -0.3,-1.2 5.4,3.1 M 49.3,55.9 l -0.6,3.2 -2,-2.2 -0.2,0.9 -0.4,0.6 -0.3,0.2 -1,0.2 -0.5,-0.1 -0.9,-0.5 -0.5,-0.7 -0.1,-0.9 0.1,-0.9 0.5,-0.8 0.3,-0.3 0.7,-0.2 M 48.3,62 48.1,61.1 47.6,60.7 47,60.6 46.3,60.8 45.9,61.3 45.4,62.5 45,63.3 44.3,63.8 43.7,64 42.8,63.8 42.2,63.4 42,63.1 41.8,62.2 42,61 l 0.5,-0.9 0.3,-0.2 0.7,-0.2 0.9,0.1 0.5,0.4 0.5,0.7 0.1,1 0.1,1.2 0.2,0.6 0.6,0.4 0.6,0.1 0.6,-0.2 0.5,-0.8 0.2,-1.3 M 72.1,31.4 73,31 73.2,30.4 V 29.8 L 72.8,29.2 72.2,29 70.9,28.8 70,28.6 69.4,28.1 69,27.5 68.9,26.6 69.1,26 l 0.3,-0.4 0.9,-0.4 1.2,-0.1 0.9,0.2 0.3,0.3 0.4,0.6 0.1,0.9 -0.3,0.6 -0.5,0.6 -0.9,0.4 -1.1,0.5 -0.6,0.3 -0.2,0.6 v 0.6 l 0.4,0.6 0.9,0.2 1.4,-0.1 m -4.7,-1 0.1,0.2 -0.3,0.7 -0.2,0.3 -0.6,0.4 -1.2,0.1 -0.6,-0.2 -0.4,-0.3 -0.3,-0.6 -0.1,-0.6 0.2,-0.6 0.6,-1 2.6,-3.3 -4.2,0.5 m 42.2,38.3 0.7,0.6 0.7,-0.1 0.5,-0.3 0.4,-0.6 -0.1,-0.6 -0.3,-1.2 -0.3,-0.9 0.2,-0.9 0.4,-0.5 0.8,-0.5 0.6,-0.1 0.5,0.1 0.7,0.7 0.6,1 0.2,0.9 -0.1,0.4 -0.3,0.6 -0.8,0.5 h -0.7 l -0.8,-0.2 -0.7,-0.6 -0.9,-0.9 -0.6,-0.3 h -0.6 l -0.6,0.3 -0.3,0.6 0.2,0.9 0.7,1.2 m -0.8,-4.1 -0.6,-0.4 -1.2,-0.3 5.3,-3.2 m -4,35.6 -1,6.9 m -3,-5.7 4,-1.2 m 4.6,-1.3 -2.9,0.8 0.5,2.7 0.2,-0.4 0.8,-0.5 0.8,-0.3 1,0.1 0.7,0.4 0.6,0.7 0.1,0.6 v 1 l -0.4,0.7 -0.8,0.5 -0.8,0.3 h -1 l -0.4,-0.2 -0.4,-0.5 m 98.8,498.1 0.8,0.5 0.6,-0.1 0.5,-0.4 0.3,-0.6 -0.2,-0.7 -0.5,-1.1 -0.3,-0.9 0.1,-0.8 0.3,-0.6 0.7,-0.6 0.7,-0.1 h 0.4 l 0.8,0.6 0.7,0.9 0.4,0.9 -0.1,0.4 -0.3,0.6 -0.7,0.6 -0.7,0.1 -0.8,-0.1 -0.8,-0.5 -1,-0.8 -0.6,-0.3 -0.6,0.2 -0.5,0.3 -0.3,0.6 0.3,0.9 0.9,1.1 m -1.6,-4.5 -0.3,0.2 -0.6,0.1 h -0.4 l -0.7,-0.3 -0.7,-1 -0.1,-0.6 v -0.4 l 0.3,-0.6 0.5,-0.4 0.6,-0.1 1.1,-0.1 4.2,0.5 -2.5,-3.3 m -1.2,32 1.8,-2.7 1,2.8 0.5,-0.7 0.6,-0.3 0.4,-0.1 0.9,0.2 0.5,0.4 0.6,0.7 0.2,0.9 -0.3,0.9 -0.5,0.7 -0.8,0.6 -0.4,0.1 -0.7,-0.1 m 0.4,-6.9 -0.3,-0.2 -0.3,-0.5 -0.1,-0.5 0.1,-0.6 0.7,-1 0.6,-0.3 0.4,-0.1 0.7,0.1 0.5,0.3 0.3,0.6 0.4,1 0.8,4.2 2.4,-3.5 m -77.5,-23.7 v -1 l -0.5,-0.4 -0.6,-0.2 -0.7,0.2 -0.4,0.5 -0.6,1.1 -0.5,0.8 -0.8,0.4 -0.6,0.1 -0.9,-0.2 -0.5,-0.4 -0.2,-0.4 -0.1,-0.9 0.3,-1.2 0.5,-0.8 0.4,-0.2 0.7,-0.2 0.8,0.3 0.5,0.4 0.5,0.7 v 1 1.2 l 0.2,0.7 0.5,0.4 0.6,0.2 0.6,-0.2 0.5,-0.8 0.4,-1.3 m -1.5,5.6 v -0.9 l -0.8,-0.8 -1.3,-0.7 -0.9,-0.2 -1.5,-0.1 -1.1,0.4 -0.5,0.8 -0.1,0.6 v 0.9 l 0.8,0.8 1.3,0.7 0.9,0.2 1.5,0.1 1.1,-0.4 0.5,-0.8 0.1,-0.4 m 54.6,51.4 -0.2,-0.1 -0.5,-0.5 -0.1,-0.4 -0.1,-0.7 0.5,-1.1 0.5,-0.4 0.4,-0.2 h 0.7 l 0.6,0.2 0.4,0.5 0.6,1 1.5,3.9 1.7,-3.8 m -3.7,-7.3 4.6,5.3 m -6.3,-1.5 1.7,-3.8 m -53.5,-12.7 -6.8,-1.3 m 5.7,-2.8 1.1,4.1 m 0.7,2.5 -0.5,-0.8 -0.7,-0.1 -0.6,0.1 -0.5,0.5 -0.1,0.7 v 1.2 0.9 l -0.4,0.8 -0.5,0.4 -0.9,0.3 -0.7,-0.2 -0.3,-0.2 -0.6,-0.8 -0.3,-1.1 0.1,-1 0.2,-0.4 0.5,-0.4 0.9,-0.2 0.6,0.1 0.8,0.4 0.5,0.8 0.6,1.1 0.4,0.5 0.7,0.1 0.6,-0.1 0.5,-0.5 v -0.9 l -0.3,-1.3 m 25.4,19.5 -3.7,5.9 m -0.5,-6.4 4.2,0.5 m 5.1,0.6 -3.6,5.9 m -0.6,-6.4 4.2,0.5 m 5.2,-335.5 -0.7,-0.1 -0.7,0.5 -0.4,0.5 -0.3,0.9 0.4,1 1.1,1.1 1.2,0.9 1.1,0.5 0.9,-0.2 0.7,-0.5 0.2,-0.3 0.3,-0.9 -0.1,-0.8 -0.6,-0.8 -0.3,-0.2 -0.9,-0.2 -0.8,0.1 -0.8,0.6 -0.1,0.2 -0.3,0.9 0.1,0.8 0.6,0.8 m 1.6,-9.5 -1.8,2.5 2.1,1.8 -0.1,-0.4 0.3,-0.9 0.5,-0.8 0.8,-0.5 0.8,-0.2 0.9,0.3 0.5,0.4 0.6,0.7 0.1,0.9 -0.3,0.9 -0.5,0.7 -0.8,0.6 h -0.4 l -0.7,-0.1 m -11.5,-72.9 0.6,0.3 0.9,-0.2 0.5,-0.3 0.6,-0.7 v -1.1 l -0.5,-1.5 -0.9,-1.2 -0.9,-0.9 -0.8,-0.1 -0.9,0.2 -0.3,0.1 -0.5,0.8 -0.2,0.8 0.2,0.9 0.2,0.3 0.7,0.6 0.8,0.2 0.9,-0.3 0.3,-0.1 0.6,-0.8 0.2,-0.8 -0.3,-0.9 m -6.4,6.6 -0.2,-0.9 0.2,-0.9 0.6,-0.7 0.2,-0.2 1,-0.2 0.8,0.2 0.7,0.6 0.2,0.2 0.2,0.9 -0.2,0.9 -0.6,0.7 -0.2,0.2 -0.9,0.2 -0.9,-0.2 -0.9,-0.8 -0.8,-1.3 -0.5,-1.4 v -1.1 l 0.6,-0.7 0.5,-0.4 0.9,-0.2 0.6,0.4 m 13.8,27.4 6.7,1.9 m -6,2.3 -0.7,-4.2 m -0.5,-2.9 0.4,0.9 1,0.4 h 1.6 l 0.9,-0.1 1.4,-0.6 0.8,-0.7 0.1,-1 -0.1,-0.6 -0.5,-0.8 -1,-0.4 -1.5,-0.1 -0.9,0.2 -1.4,0.6 -0.8,0.7 -0.1,0.9 0.1,0.5 m -30.4,64.8 -0.4,-0.5 -1,-0.2 -0.6,0.2 -0.8,0.4 -0.4,1 -0.1,1.5 0.3,1.5 0.5,1.1 0.7,0.5 1,0.2 0.3,-0.1 0.8,-0.5 0.5,-0.7 0.1,-0.9 -0.1,-0.3 -0.4,-0.8 -0.7,-0.5 -0.9,-0.1 h -0.3 l -0.9,0.5 -0.5,0.7 -0.1,0.9 m 4.8,-5.1 3.3,-0.6 -1.4,2.7 0.9,-0.2 0.6,0.2 0.4,0.2 0.4,0.9 0.2,0.6 -0.2,0.9 -0.5,0.7 -0.8,0.4 -0.9,0.2 -0.9,-0.1 -0.4,-0.3 -0.4,-0.5 m -29.7,-28.1 0.4,-0.5 -0.1,-0.9 -0.3,-0.6 -0.6,-0.7 -1.1,-0.1 -1.5,0.3 -1.3,0.7 -1,0.8 -0.3,0.7 0.1,1 0.2,0.3 0.6,0.6 0.8,0.3 1,-0.1 0.2,-0.1 0.7,-0.7 0.3,-0.8 -0.1,-0.9 -0.1,-0.3 -0.7,-0.7 -0.8,-0.2 -0.9,0.1 m 7.3,5.6 -5.1,-1 1.9,4.1 m 3.2,-3.1 -5.7,2.7 m -36.9,209.6 -5.7,-3.9 m 6.4,-0.2 -0.7,4.1 m -0.4,2.6 -0.1,-0.9 -0.6,-0.4 -0.6,-0.1 -0.6,0.2 -0.4,0.6 -0.5,1.1 -0.4,0.9 -0.7,0.5 -0.6,0.2 -0.9,-0.2 -0.6,-0.4 -0.2,-0.3 -0.2,-0.9 0.2,-1.2 0.5,-0.9 0.3,-0.2 0.6,-0.2 0.9,0.1 0.6,0.4 0.5,0.7 0.1,0.9 0.1,1.3 0.2,0.6 0.6,0.4 0.6,0.1 0.6,-0.2 0.5,-0.9 0.2,-1.3 m 13.2,28.7 0.6,6.9 m -4.2,-4.8 3.6,-2.1 m 5.4,-0.8 0.2,0.9 -0.2,0.9 -0.6,0.7 -0.3,0.1 -0.9,0.2 -0.9,-0.2 -0.7,-0.6 -0.1,-0.3 -0.2,-0.9 0.2,-0.8 0.6,-0.7 0.3,-0.2 0.9,-0.2 0.8,0.2 0.9,0.9 0.7,1.3 0.6,1.5 -0.1,1 -0.6,0.8 -0.5,0.3 -1,0.2 -0.5,-0.4 m -16.8,-7 -0.8,-0.6 -0.6,0.1 -0.5,0.3 -0.4,0.6 0.1,0.7 0.4,1.1 0.3,1 -0.2,0.8 -0.4,0.6 -0.7,0.5 h -0.7 l -0.4,-0.1 -0.7,-0.5 -0.7,-1.1 -0.2,-0.9 0.1,-0.4 0.3,-0.6 0.7,-0.5 h 0.7 l 0.8,0.1 0.8,0.6 0.9,0.9 0.6,0.3 0.6,-0.1 0.5,-0.3 0.4,-0.6 -0.3,-0.9 -0.7,-1.1 m 3.2,4.9 -0.8,-0.6 h -1.1 l -1.4,0.5 -0.7,0.5 -1.1,1.1 -0.5,1 0.3,0.9 0.3,0.5 0.7,0.6 h 1.1 l 1.5,-0.6 0.7,-0.5 1.1,-1 0.4,-1 -0.2,-0.9 -0.3,-0.4 m 86.1,-118.3 0.4,-0.5 -0.2,-1 -0.3,-0.5 -0.6,-0.7 -1.1,-0.1 -1.5,0.4 -1.3,0.7 -0.9,0.8 -0.3,0.9 0.1,0.9 0.2,0.3 0.7,0.6 0.8,0.3 0.9,-0.2 0.3,-0.1 0.6,-0.7 0.3,-0.8 -0.2,-0.9 -0.1,-0.3 -0.7,-0.7 -0.8,-0.2 -0.9,0.1 m 6.9,6.2 0.4,-0.6 -0.2,-0.9 -0.2,-0.5 -0.7,-0.7 -1.1,-0.1 -1.5,0.4 -1.3,0.7 -0.9,0.8 -0.3,0.8 0.2,1 0.1,0.2 0.7,0.7 0.8,0.3 0.9,-0.2 0.3,-0.1 0.7,-0.7 0.2,-0.8 -0.1,-1 -0.2,-0.2 -0.6,-0.7 -0.9,-0.2 -0.9,0.1 m 32.9,-2.6 -0.4,0.6 0.2,0.9 0.2,0.5 0.7,0.7 1.1,0.1 1.5,-0.4 1.3,-0.6 0.9,-0.8 0.3,-0.8 -0.1,-1 -0.2,-0.2 -0.6,-0.7 -0.8,-0.3 -1,0.2 -0.2,0.1 -0.7,0.7 -0.3,0.8 0.1,0.9 0.2,0.3 0.7,0.6 0.8,0.3 0.9,-0.1 m -7.8,-6.3 7,-0.1 m -5.1,3.9 -1.9,-3.8 m -0.1,24.4 -0.4,-0.6 -0.9,-0.2 h -0.6 l -0.8,0.4 -0.6,0.9 -0.2,1.5 0.1,1.5 0.3,1.2 0.7,0.5 0.9,0.3 h 0.3 l 0.9,-0.4 0.5,-0.6 0.3,-0.9 v -0.3 l -0.4,-0.9 -0.6,-0.6 -0.9,-0.2 h -0.3 l -0.9,0.4 -0.6,0.6 -0.2,0.9 m 6.3,-4.6 -0.9,0.4 -0.3,0.6 0.1,0.6 0.3,0.6 0.6,0.3 1.2,0.2 0.9,0.2 0.7,0.6 0.3,0.6 0.1,0.9 -0.3,0.6 -0.3,0.3 -0.9,0.4 h -1.2 l -0.9,-0.2 -0.3,-0.3 -0.3,-0.6 -0.1,-0.9 0.3,-0.6 0.5,-0.6 0.9,-0.4 1.2,-0.3 0.6,-0.4 0.3,-0.6 -0.1,-0.6 -0.3,-0.6 -0.9,-0.2 -1.4,0.1 m 107.5,-40.3 0.4,0.9 0.6,0.2 0.6,-0.1 0.5,-0.3 0.3,-0.7 0.1,-1.2 0.2,-0.9 0.6,-0.7 0.5,-0.3 0.9,-0.1 0.6,0.2 0.4,0.3 0.4,0.8 0.1,1.2 -0.2,0.9 -0.2,0.4 -0.6,0.3 -0.9,0.1 -0.6,-0.2 -0.7,-0.5 -0.4,-0.9 -0.4,-1.1 -0.4,-0.6 -0.6,-0.2 h -0.6 l -0.6,0.4 -0.2,0.9 0.2,1.4 m -0.5,-4.6 -0.4,-3.3 2.6,1.6 -0.1,-0.9 0.2,-0.7 0.3,-0.3 0.8,-0.4 0.6,-0.1 0.9,0.2 0.7,0.6 0.4,0.8 0.1,0.9 -0.2,0.9 -0.2,0.4 -0.6,0.3 m -68.2,4.7 -0.3,-0.9 -0.6,-0.2 h -0.6 l -0.6,0.3 -0.3,0.6 -0.3,1.2 -0.3,0.9 -0.5,0.6 -0.6,0.3 -0.9,0.1 -0.6,-0.3 -0.3,-0.3 -0.4,-0.9 v -1.2 l 0.3,-0.9 0.3,-0.3 0.6,-0.3 h 0.9 l 0.6,0.2 0.6,0.6 0.3,0.9 0.3,1.2 0.3,0.6 0.7,0.3 h 0.6 l 0.5,-0.4 0.3,-0.9 v -1.3 m 0.2,7.6 -0.1,-3 -2.7,-0.3 0.3,0.3 0.3,0.9 0.1,0.9 -0.3,0.9 -0.6,0.6 -0.9,0.4 h -0.6 l -0.9,-0.3 -0.6,-0.6 -0.3,-0.9 -0.1,-0.9 0.3,-0.9 0.3,-0.3 0.6,-0.3 m 64.5,-51 0.3,0.8 0.6,0.3 h 0.6 l 0.6,-0.4 0.3,-0.6 0.2,-1.2 0.3,-0.9 0.6,-0.6 0.5,-0.4 h 0.9 l 0.7,0.3 0.3,0.2 0.3,0.9 0.1,1.2 -0.3,0.9 -0.3,0.4 -0.5,0.3 h -0.9 l -0.7,-0.2 -0.6,-0.6 -0.3,-0.9 -0.4,-1.2 -0.3,-0.6 -0.6,-0.2 h -0.6 l -0.6,0.3 -0.3,1 0.1,1.3 m -0.3,-5.5 0.4,0.9 0.6,0.3 0.6,-0.1 0.6,-0.3 0.2,-0.6 0.3,-1.2 0.2,-0.9 0.6,-0.7 0.6,-0.3 h 0.9 l 0.6,0.2 0.3,0.3 0.3,0.9 0.1,1.2 -0.2,0.9 -0.3,0.3 -0.6,0.3 -0.9,0.1 -0.6,-0.3 -0.7,-0.5 -0.3,-0.9 -0.4,-1.2 -0.3,-0.6 -0.6,-0.3 -0.6,0.1 -0.6,0.3 -0.2,0.9 v 1.4 m 18.3,93.8 0.7,0.6 h 0.7 l 0.5,-0.3 0.4,-0.5 v -0.7 l -0.3,-1.2 -0.2,-1 0.2,-0.8 0.4,-0.5 0.8,-0.4 0.7,-0.1 0.4,0.2 0.7,0.6 0.5,1.1 0.2,0.9 -0.1,0.4 -0.4,0.6 -0.8,0.4 h -0.7 l -0.8,-0.2 -0.7,-0.7 -0.8,-0.9 -0.5,-0.4 h -0.7 l -0.5,0.3 -0.4,0.6 0.1,0.9 0.7,1.2 m -2.8,-7.1 -0.4,0.5 0.1,1 0.3,0.5 0.7,0.6 1.1,0.1 1.5,-0.4 1.3,-0.7 0.9,-0.9 0.2,-0.8 -0.1,-0.9 -0.2,-0.3 -0.7,-0.6 -0.8,-0.3 -0.9,0.2 -0.3,0.1 -0.6,0.7 -0.3,0.8 0.2,1 0.1,0.2 0.7,0.7 0.8,0.2 1,-0.1 m -76,-88 -0.2,-1 -0.6,-0.3 -0.6,-0.1 -0.6,0.2 -0.4,0.6 -0.4,1.2 -0.4,0.8 -0.7,0.5 -0.6,0.3 -0.9,-0.1 -0.6,-0.4 -0.2,-0.3 -0.2,-0.9 0.1,-1.2 0.4,-0.9 0.3,-0.3 0.7,-0.2 0.9,0.1 0.5,0.4 0.5,0.6 0.2,1 0.2,1.2 0.2,0.6 0.6,0.4 0.6,0.1 0.6,-0.3 0.4,-0.8 0.2,-1.4 m -0.8,7.1 -3.8,-3.4 -0.5,4.4 m 4.3,-1 -6.2,-0.7 m 58,159.9 -0.9,-0.4 -0.6,-0.6 -0.3,-0.9 v -0.3 l 0.4,-0.9 0.6,-0.6 0.9,-0.2 h 0.3 l 0.9,0.3 0.6,0.6 0.2,0.9 v 0.3 l -0.3,0.9 -0.6,0.6 -1.2,0.3 -1.5,-0.1 -1.5,-0.3 -0.9,-0.7 -0.3,-0.9 v -0.6 l 0.4,-0.9 0.6,-0.3 m 3.8,4.8 0.3,0.7 0.9,0.9 -6.3,-0.2 m 49.1,18.6 0.7,0.5 0.5,0.8 v 0.9 l -0.1,0.3 -0.5,0.8 -0.7,0.4 -1,0.1 -0.2,-0.1 -0.8,-0.5 -0.5,-0.7 v -1 l 0.1,-0.3 0.5,-0.8 0.7,-0.4 h 1.3 l 1.4,0.4 1.4,0.7 0.7,0.8 v 0.9 l -0.1,0.6 -0.5,0.8 -0.7,0.2 m -3.8,-6.6 0.8,-3.2 1.9,2.4 0.2,-0.9 0.5,-0.5 0.3,-0.2 1,-0.1 0.5,0.2 0.8,0.5 0.5,0.7 v 1 l -0.2,0.9 -0.5,0.8 -0.4,0.2 -0.7,0.1 m 15.9,0.1 -1,-0.3 -0.6,-0.5 -0.3,-0.9 v -0.3 l 0.2,-0.9 0.6,-0.7 0.9,-0.3 h 0.3 l 0.9,0.2 0.6,0.6 0.4,0.9 v 0.3 l -0.3,0.9 -0.6,0.6 -1.1,0.4 -1.5,0.1 -1.5,-0.3 -1,-0.5 -0.3,-0.9 v -0.6 l 0.2,-0.9 0.6,-0.3 m 5.6,5 0.2,3.3 -2.5,-1.7 0.1,0.9 -0.3,0.6 -0.3,0.4 -0.9,0.3 h -0.6 l -0.9,-0.2 -0.6,-0.6 -0.4,-0.9 v -0.9 l 0.2,-0.9 0.3,-0.3 0.6,-0.3 m -61.1,17.5 -0.9,-0.3 -0.6,-0.5 -0.3,-0.9 v -0.3 l 0.2,-0.9 0.6,-0.7 0.9,-0.3 h 0.3 l 0.9,0.3 0.6,0.6 0.4,0.8 v 0.3 l -0.3,1 -0.6,0.6 -1.2,0.3 -1.5,0.1 -1.5,-0.3 -0.9,-0.6 -0.3,-0.9 V 563 l 0.2,-0.9 0.6,-0.3 m 5.6,6.1 -0.3,-0.9 -0.6,-0.3 h -0.6 l -0.6,0.4 -0.3,0.6 -0.3,1.2 -0.2,0.9 -0.6,0.6 -0.6,0.3 h -0.9 l -0.6,-0.2 -0.3,-0.3 -0.4,-0.9 v -1.2 l 0.3,-0.9 0.3,-0.3 0.6,-0.3 0.9,-0.1 0.6,0.3 0.6,0.6 0.3,0.9 0.3,1.2 0.4,0.6 0.6,0.2 h 0.6 l 0.6,-0.3 0.2,-0.9 v -1.4 m 126.5,-10 -0.8,0.4 H 424 l -0.8,-0.4 -0.3,-0.2 -0.4,-0.9 v -0.8 l 0.4,-0.9 0.2,-0.2 0.9,-0.4 h 0.8 l 0.9,0.4 0.2,0.2 0.4,0.9 v 0.8 l -0.6,1.1 -1.1,1 -1.2,0.9 -1.1,0.2 -0.8,-0.4 -0.5,-0.4 -0.4,-0.9 0.2,-0.6 m 9.7,2 -2.1,-2.1 -2.1,1.7 h 0.4 l 0.9,0.4 0.6,0.7 0.4,0.8 0.1,0.9 -0.5,0.8 -0.4,0.4 -0.8,0.5 h -0.9 l -0.8,-0.4 -0.7,-0.7 -0.4,-0.8 v -0.4 l 0.2,-0.7 m 14.4,-55.2 0.2,-0.9 0.5,-0.7 0.9,-0.3 0.3,-0.1 0.9,0.2 0.7,0.6 0.4,0.8 v 0.3 l -0.2,1 -0.5,0.6 -0.9,0.4 h -0.3 l -0.9,-0.2 -0.7,-0.5 -0.4,-1.2 -0.1,-1.5 0.1,-1.5 0.5,-0.9 0.9,-0.4 0.6,-0.1 0.9,0.2 0.4,0.6 m -6,6 0.8,-0.4 0.5,-0.9 0.2,-1.6 -0.1,-0.9 -0.4,-1.4 -0.7,-0.9 -0.9,-0.2 -0.6,0.1 -0.9,0.4 -0.5,0.9 -0.2,1.5 0.1,0.9 0.5,1.5 0.6,0.8 1,0.3 0.4,-0.1 m -51,57.1 0.6,0.8 0.1,0.8 -0.3,0.9 -0.1,0.3 -0.8,0.5 -0.8,0.2 -0.9,-0.3 -0.3,-0.2 -0.5,-0.8 -0.2,-0.8 0.3,-0.9 0.2,-0.3 0.7,-0.5 0.9,-0.1 1.1,0.4 1.2,0.9 1.1,1.1 0.4,1 -0.3,0.9 -0.4,0.5 -0.7,0.6 -0.7,-0.1 m 1.2,-9.5 -0.6,-0.1 -0.8,0.6 -0.4,0.5 -0.2,0.9 0.3,1 1.1,1.1 1.2,0.9 1.2,0.4 0.8,-0.1 0.8,-0.6 0.1,-0.2 0.3,-0.9 -0.1,-0.8 -0.6,-0.8 -0.2,-0.2 -0.9,-0.3 -0.9,0.2 -0.7,0.5 -0.2,0.3 -0.3,0.9 0.1,0.8 0.6,0.8 m -18.1,9 -0.8,0.4 h -0.9 l -0.8,-0.4 -0.2,-0.2 -0.5,-0.9 v -0.8 l 0.5,-0.9 0.2,-0.2 0.8,-0.4 h 0.9 l 0.8,0.4 0.2,0.2 0.5,0.8 v 0.9 l -0.7,1.1 -1,1 -1.3,0.9 -1,0.2 -0.9,-0.4 -0.4,-0.4 -0.4,-0.9 0.2,-0.6 m 10,2.3 -6.5,2.4 m 3.5,-5.3 3,2.9 m -34,7.8 h 0.9 l 0.7,0.5 0.6,0.8 v 0.3 0.9 l -0.5,0.7 -0.8,0.6 h -0.3 -0.9 l -0.7,-0.5 -0.5,-0.8 -0.1,-0.3 v -0.9 l 0.5,-0.7 1.1,-0.6 1.4,-0.4 1.5,-0.1 1.1,0.4 0.5,0.8 0.1,0.6 v 0.9 l -0.5,0.4 m -7.5,-7.1 6.9,1.3 m -5.8,2.7 -1.1,-4 m -16.3,2.8 -0.5,0.9 -0.7,0.4 -0.9,0.1 h -0.3 l -0.9,-0.5 -0.4,-0.7 -0.1,-0.9 v -0.3 l 0.5,-0.9 0.7,-0.4 1,-0.1 h 0.2 l 0.9,0.5 0.4,0.7 0.1,1.2 -0.3,1.5 -0.6,1.4 -0.8,0.8 -0.9,0.1 -0.6,-0.1 -0.8,-0.5 -0.2,-0.6 m 9.1,-1.5 -0.4,0.8 -0.8,0.5 -0.9,0.1 -0.3,-0.1 -0.8,-0.5 -0.5,-0.7 -0.1,-0.9 0.1,-0.3 0.4,-0.8 0.8,-0.5 0.9,-0.1 h 0.3 l 0.8,0.5 0.5,0.7 v 1.3 l -0.3,1.4 -0.6,1.4 -0.7,0.8 -1,0.1 -0.6,-0.1 -0.8,-0.5 -0.2,-0.6 m 137.8,-10.2 -3,-0.7 -0.9,2.5 0.4,-0.2 0.9,-0.1 0.9,0.2 0.8,0.6 0.4,0.7 0.1,0.9 -0.2,0.6 -0.5,0.8 -0.7,0.5 h -0.9 l -0.9,-0.2 -0.8,-0.5 -0.2,-0.4 -0.2,-0.6 m 9.9,-2.8 -2.9,-0.7 -0.9,2.5 0.3,-0.2 1,-0.1 0.9,0.2 0.8,0.6 0.4,0.7 0.1,0.9 -0.2,0.6 -0.5,0.8 -0.7,0.4 -1,0.1 -0.8,-0.2 -0.8,-0.5 -0.3,-0.4 -0.1,-0.6 m 2.7,-12.8 0.9,-0.1 0.8,0.3 0.7,0.7 0.1,0.2 0.1,1 -0.3,0.8 -0.7,0.6 -0.3,0.1 -0.9,0.1 -0.8,-0.2 -0.7,-0.7 -0.1,-0.3 -0.1,-1 0.3,-0.8 1,-0.7 1.3,-0.7 1.5,-0.3 1.1,0.2 0.6,0.6 0.3,0.6 0.1,0.9 -0.4,0.6 m -8.3,-4.9 5.1,0.9 -1.9,-4 m -3.2,3.1 5.7,-2.7 m 1.8,-47.3 0.6,0.8 0.1,0.9 -0.3,0.9 -0.1,0.2 -0.8,0.6 -0.8,0.1 -0.9,-0.3 -0.3,-0.2 -0.5,-0.7 -0.2,-0.9 0.3,-0.9 0.2,-0.2 0.8,-0.6 0.8,-0.1 1.1,0.4 1.3,0.9 1,1.2 0.4,1 -0.3,0.9 -0.4,0.5 -0.7,0.5 -0.7,-0.1 m 0.2,-9.6 1.7,4.9 2.6,-3.6 m -4.3,-1.3 5.1,3.7 m -11.5,-39.5 5.2,-0.2 -2.8,-3.6 m -2.4,3.8 5,-3.9 m -9.1,-1.4 6.8,-1.5 m -4.2,4.8 -2.6,-3.3 M 255.1,310 l -0.8,-0.6 -0.4,-0.8 v -0.9 l 0.1,-0.3 0.6,-0.7 0.7,-0.4 h 1 l 0.3,0.1 0.7,0.5 0.4,0.8 v 0.9 l -0.1,0.3 -0.6,0.8 -0.7,0.4 -1.2,-0.1 -1.5,-0.5 -1.3,-0.8 -0.7,-0.8 v -1 l 0.2,-0.5 0.6,-0.8 0.7,-0.1 m 2.3,5.7 0.1,0.7 0.5,1.1 -5.9,-2 m 12.2,-42.3 -0.9,-0.3 -0.6,-0.6 -0.3,-0.8 v -0.3 l 0.3,-1 0.6,-0.6 0.9,-0.3 h 0.3 l 0.9,0.3 0.6,0.6 0.3,0.9 v 0.3 l -0.3,0.9 -0.6,0.6 -1.2,0.3 h -1.5 l -1.5,-0.2 -0.9,-0.6 -0.3,-0.9 v -0.6 l 0.3,-0.9 0.6,-0.3 m 5.5,6.1 -0.3,-0.9 -0.6,-0.3 -0.6,0.1 -0.6,0.3 -0.3,0.6 -0.3,1.2 -0.3,0.9 -0.6,0.6 -0.6,0.3 h -0.9 l -0.6,-0.3 -0.3,-0.3 -0.3,-0.9 v -1.2 l 0.3,-0.9 0.3,-0.3 0.6,-0.3 h 0.9 l 0.6,0.3 0.6,0.6 0.3,0.9 0.3,1.2 0.3,0.6 0.6,0.3 0.6,-0.1 0.6,-0.3 0.3,-0.9 v -1.3 m 6,-48.5 0.2,0.7 0.6,1.1 -6.1,-1.5 m 5.6,4.4 v -1 l -0.8,-0.8 -1.4,-0.6 -0.8,-0.2 -1.6,-0.1 -1,0.4 -0.5,0.8 -0.1,0.6 0.1,0.9 0.7,0.8 1.4,0.7 0.8,0.2 h 1.6 l 1,-0.3 0.5,-0.8 0.1,-0.5 m -2.4,3.5 h 0.3 l 0.5,0.5 0.2,0.3 0.2,0.7 -0.3,1.2 -0.4,0.5 -0.4,0.2 -0.6,0.1 -0.6,-0.1 -0.5,-0.4 -0.8,-0.8 -2.2,-3.7 -1,4.1 M 262.1,483 h -1 l -0.5,0.5 -0.2,0.6 0.1,0.6 0.5,0.5 1,0.7 0.8,0.6 0.3,0.7 0.1,0.7 -0.3,0.8 -0.5,0.5 -0.3,0.2 h -1 L 260,489 259.2,488.4 259,488 v -0.6 l 0.3,-0.9 0.4,-0.5 0.8,-0.3 h 1 l 1.2,0.1 0.7,-0.1 0.4,-0.5 0.2,-0.5 -0.1,-0.7 -0.7,-0.6 -1.3,-0.4 m 6.8,2.3 -4.2,3 4.2,1.4 m 0,-4.4 -2.1,5.9 m -23.5,-34.8 -0.2,-1 -0.6,-0.3 h -0.6 l -0.6,0.3 -0.4,0.6 -0.3,1.2 -0.3,0.8 -0.7,0.6 -0.6,0.3 h -0.9 l -0.6,-0.4 -0.2,-0.3 -0.3,-0.9 v -1.2 l 0.4,-0.9 0.3,-0.2 0.6,-0.3 h 0.9 l 0.6,0.3 0.5,0.6 0.3,1 0.3,1.2 0.2,0.6 0.6,0.3 h 0.6 l 0.6,-0.3 0.4,-0.8 v -1.4 m -0.2,7.6 0.1,-3 -2.7,-0.4 0.3,0.3 0.2,0.9 v 0.9 l -0.3,0.9 -0.7,0.6 -0.9,0.2 h -0.6 l -0.9,-0.3 -0.5,-0.6 -0.3,-0.9 v -0.9 l 0.4,-0.9 0.3,-0.3 0.6,-0.3 m 9.8,-286.1 0.6,0.2 1.3,-0.1 -4.1,4.8 m 6.5,-3 -0.9,-0.4 -1,0.3 -1.3,0.9 -0.5,0.7 -0.8,1.4 -0.1,1 0.4,0.8 0.5,0.4 0.9,0.4 1,-0.3 1.2,-0.9 0.6,-0.7 0.8,-1.3 0.1,-1.1 -0.5,-0.8 -0.3,-0.3 m 2,3.7 0.2,-0.2 0.6,-0.3 h 0.4 l 0.6,0.1 1,0.8 0.2,0.7 v 0.4 l -0.1,0.6 -0.4,0.5 -0.6,0.2 -1.1,0.3 -4.2,0.3 3.2,2.8 m 186.1,298.4 -0.6,0.7 -0.8,0.3 -0.9,-0.1 -0.3,-0.1 -0.7,-0.7 -0.3,-0.8 0.1,-0.9 0.1,-0.3 0.7,-0.7 0.7,-0.3 1,0.1 0.3,0.1 0.7,0.7 0.3,0.8 -0.3,1.2 -0.6,1.3 -0.9,1.3 -0.9,0.6 -0.9,-0.1 -0.6,-0.3 -0.7,-0.6 v -0.7 m 8.2,-2.2 -1,-0.1 -0.9,0.6 -0.9,1.2 -0.3,0.8 -0.4,1.5 0.2,1.1 0.7,0.6 0.5,0.3 1,0.1 0.9,-0.6 0.9,-1.3 0.4,-0.8 0.3,-1.5 -0.2,-1 -0.7,-0.7 -0.4,-0.2 m -2.1,-22 0.1,-1 -0.4,-0.5 -0.5,-0.2 h -0.7 l -0.5,0.4 -0.8,0.9 -0.7,0.7 -0.8,0.3 h -0.6 l -0.8,-0.4 -0.5,-0.5 -0.1,-0.4 0.1,-1 0.5,-1 0.7,-0.7 0.4,-0.2 h 0.7 l 0.8,0.4 0.4,0.5 0.3,0.8 -0.1,1 -0.3,1.2 v 0.7 l 0.4,0.5 0.6,0.3 h 0.6 l 0.7,-0.7 0.6,-1.2 m -5.3,6.2 -0.7,-0.7 -0.3,-0.8 0.1,-0.9 0.2,-0.3 0.6,-0.7 0.8,-0.3 1,0.1 0.2,0.2 0.7,0.6 0.3,0.8 -0.1,1 -0.2,0.2 -0.6,0.7 -0.8,0.3 -1.2,-0.2 -1.4,-0.7 -1.2,-0.9 -0.6,-0.9 0.2,-1 0.2,-0.5 0.7,-0.7 h 0.7 m -20.4,16.8 0.1,1 0.5,0.4 0.6,0.1 0.7,-0.2 0.4,-0.5 0.5,-1.2 0.4,-0.8 0.7,-0.5 0.7,-0.2 0.8,0.2 0.6,0.4 0.2,0.3 0.2,1 -0.2,1.1 -0.5,0.9 -0.3,0.2 -0.7,0.2 -0.9,-0.2 -0.5,-0.4 -0.5,-0.6 -0.1,-1 -0.1,-1.2 -0.2,-0.7 -0.6,-0.4 -0.5,-0.1 -0.7,0.2 -0.4,0.9 -0.3,1.3 m 3.5,-7.4 0.8,0.4 0.5,0.7 0.1,1 v 0.3 l -0.5,0.8 -0.7,0.5 -0.9,0.1 H 417 l -0.8,-0.5 -0.5,-0.7 -0.2,-0.9 0.1,-0.3 0.4,-0.9 0.7,-0.4 1.3,-0.1 1.4,0.2 1.5,0.6 0.8,0.7 0.1,1 -0.1,0.6 -0.5,0.8 -0.6,0.2 m -37.1,-36.8 4.6,-2.3 -3.9,-2.2 m -0.7,4.5 3,-5.6 m -5.8,4 -2.9,-1.6 2.7,-1.3 -0.8,-0.4 -0.4,-0.5 -0.1,-0.4 0.2,-1 0.3,-0.5 0.6,-0.6 0.9,-0.3 0.9,0.2 0.8,0.4 0.6,0.7 0.2,0.4 -0.1,0.7 m -49.8,4.4 -0.7,-0.7 -0.6,-0.1 -0.6,0.3 -0.4,0.5 -0.1,0.7 0.2,1.2 0.1,0.9 -0.3,0.8 -0.4,0.5 -0.9,0.4 -0.6,-0.1 -0.4,-0.1 -0.7,-0.7 -0.4,-1.1 -0.1,-1 0.2,-0.4 0.4,-0.5 0.8,-0.3 h 0.7 l 0.8,0.3 0.6,0.7 0.8,1 0.5,0.4 0.6,0.1 0.6,-0.2 0.4,-0.6 -0.1,-0.9 -0.5,-1.2 m 2.2,7.3 0.4,-0.5 -0.1,-1 -0.2,-0.5 -0.6,-0.7 -1.1,-0.2 -1.5,0.3 -1.4,0.6 -1,0.7 -0.3,0.8 0.1,1 0.1,0.2 0.7,0.8 0.7,0.3 1,-0.1 0.3,-0.1 0.7,-0.7 0.3,-0.8 -0.1,-0.9 -0.1,-0.3 -0.6,-0.7 -0.8,-0.3 -1,0.1 m 8.2,-21.6 0.5,-0.8 -0.1,-0.6 -0.4,-0.5 -0.6,-0.3 -0.7,0.2 -1.1,0.5 -0.9,0.4 -0.8,-0.1 -0.6,-0.3 -0.6,-0.7 -0.1,-0.7 v -0.4 l 0.5,-0.8 0.9,-0.7 0.9,-0.4 0.4,0.1 0.7,0.2 0.5,0.7 0.2,0.7 -0.1,0.8 -0.5,0.8 -0.8,1 -0.2,0.6 0.1,0.7 0.4,0.5 0.6,0.2 0.9,-0.3 1,-0.9 m -6.2,5.1 -1.7,-6.7 m 5,4.1 -3.3,2.6 m -11.2,-113.7 0.4,0.8 0.1,0.8 -0.4,0.9 -0.2,0.2 -0.8,0.5 h -0.9 l -0.9,-0.4 -0.2,-0.2 -0.4,-0.8 -0.1,-0.9 0.4,-0.8 0.2,-0.2 0.9,-0.5 h 0.8 l 1.1,0.6 1.1,1 0.9,1.2 0.2,1.1 -0.3,0.8 -0.4,0.5 -0.9,0.4 -0.6,-0.2 m 0.7,-6.5 -0.3,-0.2 -0.2,-0.6 v -0.4 l 0.2,-0.7 0.8,-0.9 0.6,-0.2 h 0.4 l 0.7,0.2 0.4,0.4 0.3,0.6 0.2,1.1 0.2,4.2 2.8,-3.1 m 3.8,-67 -0.7,-0.1 h -1.3 l 4.2,-4.7 m -6.5,2.9 0.9,0.4 1,-0.3 1.2,-0.9 0.6,-0.7 0.8,-1.3 0.1,-1.1 -0.4,-0.8 -0.5,-0.4 -0.9,-0.4 -1,0.3 -1.2,0.9 -0.6,0.7 -0.8,1.3 -0.1,1.1 0.4,0.8 0.4,0.3 m -1.6,-3.2 -0.6,-0.2 -1.3,0.1 4.2,-4.7 m 15.8,47.3 v -0.7 l -0.5,-1.2 5.8,2.6 m -4.7,-5.4 -0.1,1 0.5,0.9 1.3,0.9 0.8,0.4 1.5,0.3 1.1,-0.1 0.6,-0.7 0.3,-0.6 0.1,-0.9 -0.6,-0.9 -1.2,-0.9 -0.9,-0.4 -1.5,-0.4 -1,0.2 -0.7,0.7 -0.2,0.4 m 2.2,-4.7 -0.1,0.9 0.6,0.9 1.2,0.9 0.8,0.4 1.5,0.4 1.1,-0.2 0.6,-0.7 0.3,-0.5 0.1,-1 -0.6,-0.9 -1.2,-0.9 -0.8,-0.4 -1.5,-0.3 -1.1,0.1 -0.6,0.7 -0.2,0.4 M 218.1,136 l -0.9,0.2 -0.8,-0.3 -0.7,-0.6 -0.2,-0.3 -0.2,-0.9 0.3,-0.8 0.6,-0.7 0.3,-0.2 0.9,-0.1 0.8,0.2 0.7,0.6 0.2,0.3 0.1,0.9 -0.2,0.8 -0.9,0.9 -1.3,0.7 -1.5,0.5 -1,-0.1 -0.7,-0.6 -0.3,-0.5 -0.2,-1 0.4,-0.5 m 7.1,5.9 -0.9,0.2 -0.9,-0.3 -0.7,-0.6 -0.1,-0.3 -0.2,-0.9 0.2,-0.8 0.7,-0.7 0.2,-0.2 1,-0.1 0.8,0.2 0.7,0.6 0.1,0.3 0.2,0.9 -0.2,0.8 -0.9,0.9 -1.3,0.7 -1.5,0.5 -1.1,-0.1 -0.7,-0.6 -0.3,-0.5 -0.1,-1 0.3,-0.5 m -6.9,-49.7 2.5,1.8 1.8,-2.1 -0.5,0.1 -0.9,-0.3 -0.7,-0.5 -0.6,-0.7 -0.1,-0.9 0.3,-0.9 0.3,-0.5 0.8,-0.5 0.8,-0.2 0.9,0.3 0.8,0.5 0.5,0.8 0.1,0.4 -0.1,0.7 m -8.6,0.2 1,0.2 0.5,-0.3 0.4,-0.5 0.1,-0.6 -0.3,-0.6 -0.8,-1 -0.6,-0.7 -0.1,-0.9 0.1,-0.6 0.5,-0.8 0.6,-0.3 h 0.4 l 0.9,0.2 1,0.7 0.5,0.8 0.1,0.4 -0.1,0.7 -0.5,0.7 -0.6,0.3 -0.8,0.2 -0.9,-0.3 -1.2,-0.5 -0.7,-0.1 -0.5,0.4 -0.4,0.5 -0.1,0.6 0.6,0.8 1.1,0.8 m -28.5,8.2 -0.7,0.6 -0.8,0.3 -1,-0.2 -0.2,-0.2 -0.7,-0.7 -0.2,-0.8 0.2,-0.9 0.1,-0.3 0.7,-0.6 0.8,-0.2 1,0.1 0.2,0.2 0.7,0.7 0.2,0.8 -0.3,1.2 -0.7,1.3 -1,1.2 -1,0.5 -0.9,-0.2 -0.5,-0.3 -0.7,-0.7 v -0.7 m 9.5,0.1 0.1,-0.7 -0.7,-0.7 -0.5,-0.2 -0.9,-0.2 -1,0.5 -1,1.2 -0.7,1.3 -0.3,1.2 0.2,0.8 0.7,0.7 0.2,0.1 1,0.2 0.8,-0.2 0.7,-0.7 0.1,-0.3 0.2,-0.9 -0.3,-0.8 -0.6,-0.7 -0.3,-0.1 -0.9,-0.2 -0.8,0.2 -0.7,0.7 m -16.5,-32.8 -0.9,-0.4 -0.5,-0.6 -0.2,-1 V 63 l 0.4,-0.8 0.7,-0.6 0.9,-0.2 0.3,0.1 0.8,0.3 0.6,0.7 0.2,0.9 v 0.3 l -0.4,0.9 -0.7,0.5 -1.2,0.2 -1.5,-0.1 -1.4,-0.5 -0.9,-0.7 -0.2,-0.9 0.1,-0.6 0.3,-0.8 0.7,-0.3 m 4.6,8.8 0.2,-3 -2.6,-0.5 0.3,0.3 0.2,0.9 -0.1,0.9 -0.4,0.9 -0.7,0.5 -0.9,0.2 h -0.6 l -0.8,-0.4 -0.6,-0.6 -0.2,-1 0.1,-0.9 0.4,-0.8 0.3,-0.3 0.6,-0.2 m 178.1,142.6 0.6,-0.2 1.1,-0.7 -1.2,6.2 m 4.1,-5.9 -0.9,0.1 -0.8,0.8 -0.6,1.4 -0.1,0.9 v 1.5 l 0.4,1 0.9,0.5 0.5,0.1 1,-0.1 0.7,-0.8 0.6,-1.4 0.2,-0.9 v -1.5 l -0.5,-1 -0.8,-0.5 -0.4,-0.1 m 3,2 0.6,-0.2 1.1,-0.7 -1.2,6.2 m -0.6,-26.8 -0.6,0.2 -1.1,0.6 1.6,-6.1 m -4.5,5.6 0.9,-0.1 0.8,-0.7 0.7,-1.4 0.2,-0.9 0.1,-1.5 -0.4,-1 -0.8,-0.5 -0.5,-0.2 -1,0.1 -0.8,0.7 -0.7,1.4 -0.2,0.9 -0.1,1.5 0.4,1 0.8,0.5 0.4,0.1 m -3.8,-1 -3.2,-0.8 2.3,-1.9 -0.9,-0.2 -0.5,-0.4 -0.2,-0.4 v -0.9 l 0.1,-0.6 0.5,-0.8 0.8,-0.5 h 0.9 l 0.9,0.2 0.8,0.5 0.2,0.4 0.1,0.6 m 160.9,40.9 -0.7,-3.2 2.8,1.2 -0.2,-0.8 0.1,-0.7 0.3,-0.3 0.8,-0.5 0.6,-0.2 0.9,0.2 0.7,0.4 0.5,0.8 0.2,0.9 -0.1,0.9 -0.2,0.4 -0.5,0.4 m -6.5,-5.9 0.4,0.8 1,0.4 h 1.6 l 0.9,-0.2 1.4,-0.6 0.7,-0.8 0.1,-0.9 -0.1,-0.6 -0.5,-0.8 -1,-0.4 H 500 l -0.9,0.2 -1.4,0.6 -0.8,0.8 -0.1,0.9 0.1,0.5 m -2,36 -0.2,-0.1 -0.5,-0.5 -0.2,-0.4 -0.1,-0.6 0.4,-1.2 0.4,-0.4 0.4,-0.2 0.7,-0.1 0.5,0.2 0.5,0.4 0.7,0.9 1.9,3.8 1.3,-4 m -3.6,-6.2 -0.7,0.1 -0.6,0.7 -0.2,0.6 0.1,1 0.6,0.8 1.4,0.8 1.4,0.4 1.2,0.1 0.8,-0.4 0.5,-0.7 0.1,-0.3 v -1 l -0.4,-0.7 -0.7,-0.6 -0.3,-0.1 h -1 l -0.7,0.4 -0.6,0.8 -0.1,0.3 v 0.9 l 0.4,0.8 0.8,0.5 M 387,236.8 l 0.2,0.6 0.9,0.9 -6.3,-0.1 m 6.5,3.1 -0.3,-0.9 -0.9,-0.6 -1.5,-0.4 h -0.9 l -1.5,0.3 -0.9,0.5 -0.3,0.9 -0.1,0.6 0.3,0.9 0.9,0.7 1.5,0.3 h 0.9 l 1.5,-0.2 0.9,-0.6 0.3,-0.9 0.1,-0.5 m -0.2,5.2 -0.3,-0.9 -0.8,-0.6 -1.5,-0.3 -0.9,-0.1 -1.5,0.3 -1,0.6 -0.3,0.9 v 0.6 l 0.3,0.9 0.9,0.6 1.5,0.3 0.9,0.1 1.5,-0.3 0.9,-0.6 0.3,-0.9 v -0.4 m 99.7,46.5 -0.2,-0.6 -0.8,-1 6.3,0.6 m -4,-5.5 0.9,0.4 0.5,0.7 0.3,0.9 -0.1,0.3 -0.4,0.9 -0.6,0.5 -0.9,0.2 h -0.3 l -0.9,-0.4 -0.5,-0.6 -0.3,-1 0.1,-0.3 0.4,-0.8 0.6,-0.6 1.2,-0.2 1.5,0.2 1.5,0.4 0.8,0.7 0.2,0.9 v 0.6 l -0.4,0.9 -0.6,0.2 m -115.8,-2 -0.8,-0.6 -0.3,-0.8 v -0.9 l 0.1,-0.3 0.6,-0.8 0.8,-0.3 h 0.9 l 0.3,0.1 0.8,0.6 0.3,0.8 v 0.9 l -0.1,0.3 -0.6,0.8 -0.8,0.3 -1.2,-0.1 -1.4,-0.5 -1.3,-0.9 -0.7,-0.8 0.1,-1 0.2,-0.5 0.6,-0.8 h 0.6 m 1.9,6.2 0.3,0.1 0.4,0.5 0.2,0.4 0.1,0.7 -0.5,1.1 -0.5,0.5 -0.3,0.1 -0.7,0.1 -0.6,-0.2 -0.4,-0.5 -0.7,-0.9 -1.7,-3.8 -1.5,3.9 m 0.3,40 -0.4,-0.9 -0.6,-0.2 h -0.6 l -0.6,0.4 -0.2,0.6 -0.2,1.2 -0.3,1 -0.5,0.6 -0.6,0.4 h -0.9 l -0.6,-0.2 -0.3,-0.3 -0.4,-0.8 -0.1,-1.2 0.2,-1 0.3,-0.3 0.6,-0.3 0.9,-0.1 0.6,0.2 0.6,0.6 0.4,0.8 0.4,1.2 0.4,0.6 0.6,0.2 h 0.6 l 0.6,-0.4 0.2,-0.9 -0.1,-1.3 m 0.4,5.4 -0.3,-0.8 -0.7,-0.3 -0.6,0.1 -0.5,0.3 -0.3,0.6 -0.2,1.3 -0.2,0.9 -0.5,0.6 -0.6,0.4 -0.9,0.1 -0.6,-0.3 -0.3,-0.3 -0.4,-0.8 -0.1,-1.2 0.2,-0.9 0.3,-0.4 0.5,-0.3 0.9,-0.1 0.7,0.3 0.6,0.5 0.4,0.9 0.4,1.1 0.3,0.6 0.7,0.3 0.6,-0.1 0.5,-0.3 0.3,-1 -0.2,-1.3 m 125.2,5.3 -0.5,-0.5 -1.1,-0.6 6,-2 m -6.8,0.5 -1,-3.2 2.8,1 -0.3,-0.9 0.1,-0.6 0.2,-0.4 0.8,-0.6 0.6,-0.2 h 0.9 l 0.8,0.4 0.5,0.8 0.3,0.8 v 1 l -0.2,0.3 -0.4,0.5 m 3.5,60 h -0.3 l -0.6,-0.3 -0.3,-0.3 -0.3,-0.6 v -1.2 l 0.3,-0.6 0.3,-0.3 0.6,-0.3 h 0.6 l 0.6,0.4 0.9,0.6 2.9,3.1 0.2,-4.2 m -59.8,21.1 -3.5,3.9 4.5,0.5 m -1,-4.4 -0.7,6.3 m 3.1,-4.5 0.6,-0.2 1,-0.8 -0.7,6.2 m -78.6,-43.8 -0.2,-0.9 -0.6,-0.3 -0.6,-0.1 -0.6,0.3 -0.3,0.6 -0.4,1.2 -0.3,0.9 -0.6,0.5 -0.7,0.3 h -0.9 l -0.5,-0.3 -0.3,-0.4 -0.3,-0.9 0.1,-1.2 0.3,-0.9 0.3,-0.2 0.6,-0.3 h 0.9 l 0.6,0.3 0.6,0.7 0.2,0.9 0.3,1.2 0.3,0.6 0.5,0.3 0.6,0.1 0.7,-0.3 0.3,-0.9 0.1,-1.4 m -0.2,4.6 -0.2,3.3 -2.3,-1.9 v 0.9 l -0.4,0.6 -0.3,0.3 -0.9,0.3 -0.6,-0.1 -0.9,-0.3 -0.5,-0.6 -0.3,-0.9 v -0.9 l 0.4,-0.9 0.3,-0.3 0.6,-0.3 m 9.5,19.5 -0.9,-0.1 -0.6,0.4 -0.2,0.6 v 0.6 l 0.4,0.6 1,0.7 0.7,0.7 0.2,0.8 0.1,0.7 -0.4,0.8 -0.6,0.4 -0.4,0.1 -0.9,-0.1 -1.1,-0.5 -0.7,-0.6 -0.1,-0.4 v -0.7 l 0.4,-0.8 0.5,-0.4 0.8,-0.3 0.9,0.1 1.2,0.2 h 0.7 l 0.5,-0.4 0.3,-0.5 v -0.7 l -0.7,-0.7 -1.2,-0.5 m 7.2,3.4 -5.3,4.4 m 1.5,-6.2 3.8,1.8 m 10.7,-227.6 0.6,0.2 0.8,-0.4 0.5,-0.5 0.4,-0.8 -0.3,-1.1 -0.9,-1.2 -1.1,-1 -1,-0.7 -0.9,0.1 -0.8,0.4 -0.2,0.2 -0.4,0.9 v 0.8 l 0.4,0.9 0.3,0.2 0.8,0.4 h 0.9 l 0.8,-0.5 0.2,-0.2 0.4,-0.9 v -0.8 l -0.5,-0.8 m -1.3,5.5 -0.2,0.6 v 1.3 l -4.6,-4.3 m 50.2,-15.1 0.4,0.5 0.9,0.2 0.6,-0.1 0.8,-0.5 0.5,-0.9 0.1,-1.6 -0.2,-1.4 -0.5,-1.2 -0.7,-0.5 -0.9,-0.2 -0.3,0.1 -0.9,0.4 -0.5,0.7 -0.2,0.9 0.1,0.3 0.4,0.9 0.7,0.5 0.9,0.1 h 0.3 l 0.9,-0.4 0.5,-0.7 0.2,-0.9 m -6.2,5.1 0.8,-0.4 0.5,-1 0.1,-1.5 -0.2,-0.9 -0.5,-1.4 -0.7,-0.8 -0.9,-0.2 -0.6,0.1 -0.9,0.4 -0.4,1 -0.1,1.5 0.1,0.9 0.5,1.4 0.8,0.8 0.9,0.2 0.4,-0.1 m 44.6,18.6 1.5,2.6 2.5,-1.2 -0.4,-0.1 -0.7,-0.6 -0.5,-0.8 -0.2,-0.9 0.2,-0.8 0.6,-0.7 0.5,-0.4 0.9,-0.2 0.8,0.2 0.8,0.6 0.4,0.8 0.3,0.9 -0.1,0.4 -0.4,0.6 m -7.4,-6.3 0.9,-0.2 0.9,0.2 0.7,0.6 0.1,0.2 0.3,1 -0.2,0.8 -0.7,0.7 -0.2,0.2 -0.9,0.2 -0.9,-0.2 -0.7,-0.6 -0.1,-0.3 -0.3,-0.9 0.2,-0.8 0.9,-0.9 1.3,-0.8 1.4,-0.5 h 1.1 l 0.7,0.6 0.4,0.5 0.2,1 -0.4,0.5 m -193,-31.8 -0.5,-0.5 -1.1,-0.6 6.1,-1.8 m -7.1,-1 0.5,0.8 1.1,0.3 1.5,-0.1 0.9,-0.3 1.3,-0.7 0.7,-0.8 0.1,-1 -0.2,-0.6 -0.6,-0.7 -1,-0.4 -1.5,0.2 -0.9,0.2 -1.3,0.7 -0.7,0.9 -0.1,0.9 0.2,0.4 m -1.1,-3.8 -1,-3.2 2.8,1.1 -0.2,-0.9 0.1,-0.6 0.2,-0.4 0.8,-0.5 0.6,-0.2 h 0.9 l 0.8,0.4 0.5,0.8 0.3,0.9 -0.1,0.9 -0.2,0.4 -0.5,0.5 m -9,-21 0.6,0.2 0.8,-0.4 0.5,-0.4 0.4,-0.8 -0.2,-1.1 -0.9,-1.3 -1,-1 -1.1,-0.7 h -0.8 l -0.9,0.4 -0.2,0.3 -0.4,0.8 v 0.9 l 0.4,0.8 0.2,0.2 0.9,0.4 h 0.8 l 0.9,-0.4 0.2,-0.2 0.4,-0.8 v -0.9 l -0.4,-0.8 m -2,5.8 0.2,0.2 0.2,0.6 v 0.5 l -0.2,0.6 -0.9,0.9 -0.6,0.2 h -0.4 l -0.7,-0.2 -0.4,-0.5 -0.2,-0.6 -0.2,-1.1 v -4.2 l -3,3"
       id="nums_001"
       stroke="#000000"
       stroke-width="1" />
    <path
       d="m 99.4,275.7 8.7,66.8 44.1,6.9 29.2,-21 49.9,-39.4 0.9,54.9 -41.5,53.7 30.2,60.8 -45.2,2.5 -24.9,-48.1 -45.3,29.9 20.4,40.4 44,32.9 68.2,-18.3 -41.6,71.9 26.5,34 -18.5,27 -11.8,26.6 -54.7,-5.9 -13,-48.3 6.6,-25.8 -18.3,-31 -31,18.3 -14.5,-22.4 7.6,-49.4 -51.7,-18.4 23.3,-57.9 21.4,-51 -14.7,-66.7 -7.3,-43.4 -28.3,-56.8 6.5,-55.3 10.2,-51 11.2,-66.4 42.9,-4.5 43.3,71 -49.1,14.7 50,11.1 -48.4,63.6 -4,34.1 14.3,-31.2 79.9,-1.6 67.6,20.4 -14.9,61.8 -57.3,-51.6 -23.2,30.5 32.3,-20.6 13.5,75.9 -21,29.3 -43.9,8 z m 256.6,294.1 -2.1,-43.7 -11.3,42.2 6.8,26.3 -58,-11.9 -1,-32.1 1.7,-48.3 -58.1,-20.3 1.5,-44.4 -1.2,-44.4 7,-61.3 15.2,-45.9 -0.6,-32.1 12.8,-52.6 -40.9,-35.6 -29.1,-51.6 -45.6,-25.1 4.4,-46.3 109.9,77.8 17.7,-17.7 19.9,68.7 69.2,17.9 27.9,-29.6 67.7,-10.1 32.3,52.8 6.6,30.5 -11.7,35.9 -4,42.7 17.1,50.9 -1.7,69.6 -118.5,-13.8 -26.9,-12.6 1.9,-45.1 -4.2,-47.6 18.8,-50.6 0.9,-38.5 -77.5,-14.5 59.1,52.3 -16.1,34.9 -36.5,39.8 2.5,47.7 5.1,44.8 18.2,33.8 -15.1,-35.3 22.9,-18.8 84.5,45.3 -8.4,47.3 35.9,-3.5 -32.8,-14.8 20.8,-43.3 44.8,56.4 -31.9,43.9 22.7,49.3 -39.8,-10 -33.2,-32.7 -30.2,42.3 z"
       id="coupes_001"
       stroke="#ff0000"
       stroke-width="1.27"
       sodipodi:nodetypes="cccccccccccccccccccccccccccccccccccccccccccccccccccccccccccccccccccccccccccccccccccccccccccccccccccccccccccc" />
    <path
       d="m 53.7,298.7 54.4,43.8 m 42.7,70.3 -82.4,-47.4 m 39.7,-22.9 42.7,70.3 M 53.7,298.7 99.4,275.7 M 150.8,412.8 47,416.4 m 105.2,-67 -1.4,63.4 M 46.4,255.3 l 53,20.4 m 6.1,167 L 47,416.4 m 105.2,-67 38.5,48.2 m 0,0 -39.9,15.2 M 46.4,255.3 80.7,215.8 m 0,0 18.7,59.9 m 6.1,167 -30.1,50 m 0,0 L 47,416.4 m 134.4,-88 9.3,69.2 M 18.1,198.5 80.7,215.8 m 0,0 66.4,28.3 m 0,0 -47.7,31.6 M 18.1,198.5 84.7,181.7 m 10.3,2.9 52.1,59.5 m -21.2,239 -12.6,63.1 m 0,0 -37.9,-53.5 M 24.6,143.2 84.7,181.7 m 10.3,2.9 75.3,29 M 169.9,516 113.3,546.2 M 24.6,143.2 83.1,107 m 0,0 1.6,74.7 m 90.2,1.3 -4.6,30.6 M 34.8,92.2 83.1,107 m 159.4,96.4 -72.2,10.2 m 67.8,284.1 -106.5,79.5 M 34.8,92.2 88.9,21.3 m 0,0 -5.8,85.7 m 113.4,462.6 -64.9,7.6 M 223,603.6 131.6,577.2 M 204.5,630.6 125,603 M 192.7,657.2 125,603 m 22.1,-358.9 24.8,84.6 m 0,0 -72.5,-53 m 47.7,-31.6 45.8,55.3 m -79.6,246.8 -45.5,-4.1 m 122.9,-144.5 -15,63.3 m 59.8,-23.3 76.4,-53.5 m 5.1,44.8 -81.5,8.7 m -1.2,-44.4 77.6,-9.1 m -19.8,118.2 -56.6,-64.7 m -1.2,-44.4 75.1,-56.8 m 25.8,126.3 -43.1,39.6 m 43.1,-39.6 18.7,63.4 m 0,0 -61.8,-23.8 m 127,-1.1 -65.2,24.9 m -18.7,-63.4 83.9,38.5 m -13.5,45.3 -51.7,-20.4 m 102,13.8 -50.3,6.6 m 13.5,-45.3 36.8,38.7 m -50.3,6.6 -49.6,23.3 m -13.4,-1.5 -51.2,14.4 m 164.5,-42.8 -17.1,39.3 m 16.2,-81.5 0.9,42.2 M 455,497.7 487.8,496 M 455,497.7 443,439.6 M 256.5,286 302.9,209.4 m 0,0 6.5,127 m -40.7,-135.1 34.2,8.1 m -34.2,-8.1 36.3,-29.8 m 0,0 -2.1,37.9 m -35.5,-88.9 37.6,51 m -36.3,29.8 -1.3,-80.8 m 75.6,288.1 76.1,92.6 m -116.2,-291.8 43,87.2 m -147.2,-182.5 68.7,6.4 m -68.7,-6.4 -41.2,-71.4 m 147.5,128.8 75.4,52.4 m -6.2,-34.5 127.9,13.1 m 6.6,30.5 -128.3,-9.1 m 116.6,45 -116.6,-45 m 116.6,45 -117.5,-6.5 M 493,311.6 379.5,262.4 M 493,311.6 360.7,313 m 132.3,-1.4 -128.1,49 m 145.2,1.9 -145.2,-1.9 m 145.2,1.9 -120.2,55.8 m 12.2,-258.5 100,42.7"
       id="plisM_001"
       stroke="#a52a2a"
       stroke-dasharray="4" />
    <path
       d="m 108.1,342.5 -39.7,22.9 m 57.5,117.7 -50.5,9.6 m 106,-164.3 50.8,15.5 M 169.9,516 131.6,577.2 m 72.9,53.4 -72.9,-53.4 M 317,428.9 292.1,502.3 m -50.8,-170.4 68.1,4.5 m 44.5,189.7 -63.5,24.5 m 128.7,-49.4 -13.5,45.3 m -63,21.8 -52.2,-17.7 M 256.5,286 l 52.9,50.4 m -53.5,-82.5 47,-44.5 m -75.1,-43.7 39.6,-45.2 m 67.8,342.2 7.8,-54.1 m 31.2,-219.2 6.2,34.5 m 121.7,-21.4 -121.7,21.4 m 9.5,194.4 -25,-57.7"
       id="plisV_001"
       stroke="#008000"
       stroke-dasharray="4, 1, 1, 1"
       stroke-width="1.27" />
    <path
       d="m 86.2,352 4,4 m 0,-4 -4,4 m 12.4,129.9 4,4 m 0,-4 -4,4 m 106.2,-155.8 4,4 m 0,-4 -4,4 m -56.1,206.5 4,4 m 0,-4 -4,4 m 17.4,53.3 4,4 m 0,-4 -4,4 m 136.5,-142.3 4,4 m 0,-4 -4,4 m -29.2,-135.5 4,4 m 0,-4 -4,4 m 46.8,200.2 4,4 m 0,-4 -4,4 m 90.2,-18.5 4,4 m 0,-4 -4,4 m -95.9,31.7 4,4 m 0,-4 -4,4 M 281,309.2 l 4,4 m 0,-4 -4,4 m -3.6,-83.5 4,4 m 0,-4 -4,4 m -31.8,-92.6 4,4 m 0,-4 -4,4 m 91.5,288.5 4,4 m 0,-4 -4,4 m 38.2,-232.9 4,4 m 0,-4 -4,4 m 64,2.5 4,4 m 0,-4 -4,4 m -63.9,172.2 4,4 m 0,-4 -4,4"
       id="marqueV_001"
       stroke="#008000" />
    <path
       d="m 134.7,359.4 1.5,-0.8 2.3,-2.2 v 15.7"
       id="titre_1"
       stroke="#4b0082" />
    <path
       d="m 390.94471,382.17068 v -0.7 l 0.8,-1.5 0.7,-0.8 1.5,-0.7 h 3 l 1.5,0.7 0.8,0.8 0.7,1.5 v 1.5 l -0.7,1.5 -1.5,2.2 -7.5,7.5 h 10.5"
       id="titre_2"
       stroke="#4b0082" />
  </g>
  <g
     id="page_002">
    <path
       d="m 899.6,154.8 0.2,-0.7 -0.1,-1.2 4.7,4.1 m -3.1,-4.2 0.2,-0.6 -0.1,-1.3 4.7,4.2 m -14.8,-73.5 -0.6,0.4 -0.8,1 -0.6,-6.3 m -4.1,6.9 3,-0.2 v -2.8 l -0.3,0.4 -0.8,0.4 h -0.9 l -0.9,-0.2 -0.7,-0.5 -0.4,-0.9 v -0.6 l 0.2,-0.9 0.5,-0.7 0.9,-0.3 0.9,-0.1 0.9,0.2 0.3,0.3 0.4,0.5 m -23.8,84.6 h 0.6 l 1.2,-0.5 -2.4,5.8 m 6.5,-3.3 v -0.7 l -0.7,-0.6 -0.6,-0.2 -0.9,-0.1 -0.9,0.6 -0.9,1.3 -0.6,1.3 -0.2,1.3 0.3,0.7 0.7,0.7 0.3,0.1 1,0.1 0.8,-0.3 0.6,-0.8 0.1,-0.2 0.1,-1 -0.3,-0.8 -0.7,-0.6 -0.3,-0.1 -1,-0.1 -0.8,0.3 -0.6,0.7 M 831.6,82.6 v 0.3 l -0.4,0.6 -0.3,0.2 -0.6,0.3 -1.2,-0.2 -0.6,-0.3 -0.3,-0.4 -0.2,-0.6 0.1,-0.6 0.3,-0.6 0.7,-0.8 3.3,-2.6 -4.2,-0.5 m -3.6,6 1,-0.2 0.7,-0.9 0.4,-1.4 0.1,-0.9 -0.1,-1.6 -0.5,-0.9 -0.9,-0.4 -0.6,-0.1 -0.9,0.2 -0.7,0.9 -0.5,1.4 -0.1,0.9 0.2,1.5 0.5,1 0.8,0.4 h 0.5 m -13.6,86 -0.2,-0.3 0.1,-0.6 0.1,-0.4 0.4,-0.6 1.1,-0.5 0.7,0.1 0.4,0.1 0.5,0.4 0.3,0.6 -0.1,0.6 -0.1,1.1 -1.5,4 3.8,-1.8 m -1.1,-4.9 0.5,-0.5 0.4,-1.2 2.7,5.7 m -47.7,-11.1 0.2,-0.2 0.6,-0.3 h 0.4 l 0.7,0.1 0.9,0.7 0.3,0.6 0.1,0.4 -0.2,0.7 -0.3,0.5 -0.6,0.3 -1.1,0.3 -4.2,0.5 3.3,2.6 m 6,-3.3 -0.9,-0.3 -0.6,0.2 -0.4,0.5 -0.1,0.7 0.3,0.6 0.8,1 0.5,0.7 0.1,0.9 -0.1,0.6 -0.6,0.8 -0.6,0.2 -0.4,0.1 -0.9,-0.3 -1,-0.8 -0.5,-0.7 v -0.5 l 0.1,-0.6 0.5,-0.7 0.6,-0.3 0.9,-0.1 0.9,0.3 1.1,0.5 0.7,0.1 0.6,-0.3 0.3,-0.4 0.2,-0.7 -0.5,-0.8 -1.1,-0.8 m 2.5,-79.4 -3.3,0.5 1.5,-2.6 -0.9,0.1 -0.7,-0.2 -0.3,-0.3 -0.4,-0.9 -0.1,-0.6 0.2,-0.9 0.5,-0.7 0.8,-0.4 0.9,-0.1 1,0.2 0.3,0.2 0.4,0.6 m -8.3,5.3 0.3,0.6 1,0.2 0.6,-0.1 0.8,-0.4 0.5,-1 0.1,-1.5 -0.2,-1.5 -0.5,-1.1 -0.6,-0.6 -1,-0.1 H 772 l -0.8,0.4 -0.5,0.7 -0.2,0.9 v 0.3 l 0.5,0.9 0.6,0.5 1,0.2 0.3,-0.1 0.8,-0.4 0.5,-0.7 0.2,-0.9 m -50.9,66.7 3.3,-0.4 -1.5,2.6 0.9,-0.1 0.7,0.2 0.3,0.2 0.4,0.9 0.1,0.6 -0.2,0.9 -0.5,0.7 -0.8,0.4 -0.9,0.1 -1,-0.2 -0.3,-0.2 -0.4,-0.6 m 5.2,-5.8 3.3,-0.5 -1.5,2.7 0.9,-0.2 0.7,0.3 0.3,0.2 0.4,0.9 0.1,0.6 -0.2,0.9 -0.5,0.7 -0.9,0.4 -0.8,0.1 -1,-0.2 -0.3,-0.2 -0.4,-0.6 m -3,-51.4 -3,1.5 0.6,-3 -0.8,0.4 H 722 l -0.4,-0.1 -0.7,-0.7 -0.2,-0.5 -0.2,-1 0.3,-0.8 0.7,-0.6 0.8,-0.4 0.9,-0.2 0.4,0.2 0.6,0.4 m -3.9,7.6 0.7,-0.7 V 101 l -0.3,-0.5 -0.5,-0.4 h -0.7 l -1.2,0.3 -1,0.1 -0.8,-0.3 -0.5,-0.4 -0.4,-0.8 v -0.7 l 0.1,-0.4 0.7,-0.6 1.1,-0.6 0.9,-0.1 0.4,0.1 0.6,0.4 0.4,0.9 v 0.6 l -0.3,0.8 -0.7,0.7 -0.9,0.8 -0.4,0.5 v 0.7 l 0.2,0.5 0.6,0.4 0.9,-0.1 1.2,-0.6 m -31.4,21.1 -1.7,2.9 -1.1,-2.8 -0.5,0.8 -0.5,0.3 -0.4,0.1 -1,-0.2 -0.5,-0.3 -0.6,-0.7 -0.2,-0.8 0.2,-1 0.5,-0.7 0.7,-0.7 0.4,-0.1 0.7,0.1 m 0,6.9 0.3,0.1 0.4,0.6 0.1,0.4 -0.1,0.7 -0.6,1 -0.6,0.4 -0.4,0.1 -0.6,-0.1 -0.6,-0.3 -0.3,-0.6 -0.5,-0.9 -1,-4.1 -2.2,3.6 m 6.5,34 2.8,-1.7 -0.3,2.9 0.8,-0.4 0.7,-0.1 0.4,0.1 0.7,0.6 0.3,0.5 0.3,0.9 -0.2,0.9 -0.6,0.7 -0.8,0.5 -0.9,0.2 -0.4,-0.1 -0.6,-0.4 m 2.5,-5.9 0.3,-0.6 0.3,-1.2 3.4,5.3 m -22.3,-15.3 0.2,0.2 0.4,0.6 0.1,0.4 -0.1,0.7 -0.6,1 -0.6,0.3 -0.4,0.1 h -0.7 l -0.5,-0.4 -0.3,-0.5 -0.5,-1 -0.9,-4.1 -2.2,3.5 m 2.6,7.8 -3.8,-5.9 m 6,2.3 -2.2,3.6 m -9.3,37.9 -0.2,-0.1 -0.4,-0.6 -0.1,-0.4 v -0.7 l 0.7,-1 0.5,-0.4 0.4,-0.1 0.7,0.1 0.5,0.3 0.4,0.5 0.5,1 1,4.1 2.1,-3.6 m -4.5,-4.7 1.7,-2.8 1.1,2.7 0.5,-0.7 0.6,-0.4 0.4,-0.1 0.9,0.2 0.5,0.3 0.6,0.7 0.2,0.8 -0.2,1 -0.4,0.7 -0.7,0.7 -0.4,0.1 -0.7,-0.1 m -21.5,-5.9 -0.2,0.7 0.1,1.3 -4.8,-4.1 m 3.2,6.2 0.4,-0.9 -0.3,-0.6 -0.4,-0.4 -0.7,-0.1 -0.6,0.2 -1,0.7 -0.8,0.5 -0.9,0.1 -0.6,-0.2 -0.7,-0.6 -0.3,-0.6 v -0.4 l 0.4,-0.9 0.7,-0.9 0.9,-0.5 h 0.4 l 0.6,0.2 0.7,0.5 0.3,0.7 v 0.8 l -0.3,0.9 -0.6,1.1 -0.1,0.6 0.2,0.7 0.5,0.3 0.6,0.2 0.8,-0.5 0.9,-1 m -9,12.9 0.7,-0.2 0.9,-0.8 -0.5,6.2 m 5.7,-6 -3.5,6 m -0.7,-6.4 4.2,0.4 m 297.1,-111.3 -0.7,-0.1 -1.3,0.3 3.5,-5.3 m -4.2,3.3 -0.1,0.3 -0.6,0.3 -0.4,0.1 -0.7,-0.1 -1,-0.6 -0.3,-0.6 -0.1,-0.4 0.1,-0.7 0.3,-0.5 0.6,-0.3 0.9,-0.4 4.2,-0.9 -3.5,-2.3 m 13.8,54 -0.7,0.7 -0.8,0.3 -0.9,-0.1 -0.3,-0.1 -0.7,-0.7 -0.3,-0.8 0.1,-0.9 0.2,-0.3 0.6,-0.7 0.8,-0.3 1,0.1 0.2,0.2 0.7,0.6 0.3,0.8 -0.2,1.2 -0.7,1.4 -0.9,1.2 -0.9,0.6 -0.9,-0.1 -0.6,-0.3 -0.7,-0.6 v -0.7 m 34.4,-17.1 2.4,1.9 1.9,-2 h -0.4 l -0.9,-0.3 -0.7,-0.5 -0.6,-0.8 -0.1,-0.8 0.3,-0.9 0.4,-0.5 0.8,-0.5 0.8,-0.2 0.9,0.3 0.7,0.6 0.6,0.8 v 0.4 l -0.1,0.6 m -1.6,33.8 v -0.7 l -0.6,-0.7 -0.5,-0.3 -1,-0.2 -0.9,0.5 -1,1.2 -0.8,1.3 -0.3,1.2 0.2,0.8 0.7,0.7 0.3,0.1 0.9,0.2 0.8,-0.2 0.7,-0.7 0.1,-0.2 0.2,-1 -0.2,-0.8 -0.6,-0.7 -0.3,-0.1 -0.9,-0.2 -0.9,0.2 -0.7,0.7 m 40.1,8.3 6.9,-0.8 m -4.7,4.3 -2.2,-3.5 m 1,4.9 h -1 l -0.4,0.5 -0.2,0.6 0.1,0.6 0.4,0.5 1.1,0.7 0.8,0.5 0.3,0.8 0.1,0.7 -0.2,0.8 -0.5,0.5 -0.4,0.2 h -0.9 l -1.2,-0.4 -0.7,-0.5 -0.2,-0.4 -0.1,-0.7 0.2,-0.8 0.5,-0.5 0.8,-0.4 h 0.9 l 1.3,0.1 0.6,-0.1 0.5,-0.5 0.2,-0.6 -0.1,-0.6 -0.8,-0.6 -1.3,-0.4 M 602,275.1 l -3.3,-0.2 2,-2.3 -0.9,-0.1 -0.6,-0.3 -0.3,-0.3 -0.3,-0.9 0.1,-0.6 0.3,-0.9 0.7,-0.6 0.9,-0.2 h 0.9 l 0.9,0.4 0.2,0.3 0.3,0.6 m -9.2,4.6 3,0.2 0.4,-2.7 -0.3,0.3 -0.9,0.2 H 595 l -0.9,-0.4 -0.5,-0.6 -0.3,-0.9 0.1,-0.6 0.3,-0.9 0.6,-0.6 0.9,-0.2 h 0.9 l 0.9,0.4 0.3,0.3 0.3,0.6 m -29.7,18.2 2.1,2.5 -3,0.2 0.6,0.7 0.1,0.6 v 0.4 l -0.5,0.8 -0.5,0.4 -0.9,0.4 -0.8,-0.1 -0.8,-0.5 -0.6,-0.7 -0.3,-0.9 v -0.4 l 0.3,-0.6 m 9.4,3.2 -5.2,0.4 2.9,3.4 m 2.3,-3.8 -4.9,4 m -0.3,-22.9 0.1,0.3 v 0.7 l -0.2,0.4 -0.4,0.5 -1.1,0.5 -0.7,-0.1 -0.4,-0.1 -0.5,-0.4 -0.2,-0.6 v -0.7 l 0.2,-1 1.5,-4 -3.9,1.7 m -1.3,7.6 1.1,-5.1 -4.1,1.9 m 3,3.2 -2.5,-5.7 m 56.6,38.4 3.3,0.4 -2.1,2.2 0.9,0.1 0.6,0.3 0.3,0.4 0.2,0.9 -0.1,0.6 -0.4,0.8 -0.7,0.6 -0.9,0.2 -0.9,-0.1 -0.9,-0.4 -0.2,-0.4 -0.2,-0.6 m 9.9,-4 -3.7,5.9 m -0.5,-6.4 4.2,0.5 m 30.1,-1.8 1.7,-2.8 1.2,2.7 0.4,-0.8 0.6,-0.3 0.4,-0.2 0.9,0.2 0.5,0.3 0.7,0.7 0.2,0.8 -0.2,1 -0.4,0.7 -0.7,0.7 -0.4,0.1 h -0.7 m -0.9,-8.8 -0.2,1 0.5,0.9 1.1,1 0.8,0.5 1.5,0.4 h 1 l 0.7,-0.7 0.3,-0.5 0.2,-0.9 -0.5,-1 -1.1,-1 -0.8,-0.4 -1.5,-0.5 -1.1,0.1 -0.7,0.6 -0.2,0.4 m -1.1,-70.7 0.2,0.2 0.3,0.6 0.1,0.4 -0.2,0.6 -0.7,1 -0.6,0.3 h -0.4 l -0.7,-0.1 -0.5,-0.3 -0.2,-0.6 -0.4,-1.1 -0.6,-4.2 -2.5,3.4 m 0.3,6.5 -0.6,-0.8 -0.1,-0.8 0.3,-0.9 0.2,-0.2 0.8,-0.6 0.8,-0.1 0.9,0.3 0.3,0.2 0.5,0.8 0.1,0.8 -0.3,0.9 -0.2,0.3 -0.8,0.5 -0.8,0.1 -1.1,-0.5 -1.2,-0.9 -1,-1.1 -0.4,-1 0.3,-0.9 0.4,-0.5 0.8,-0.6 0.6,0.2 m 56.5,-40.5 0.1,0.3 -0.1,0.7 -0.2,0.4 -0.4,0.4 -1.1,0.5 -0.7,-0.1 -0.4,-0.2 -0.5,-0.4 -0.2,-0.6 0.1,-0.7 0.2,-1 1.7,-3.9 -3.9,1.5 m 0.8,5 -0.5,0.5 -0.5,1.1 -2.3,-5.9 m -15.7,93.6 -0.1,-0.3 0.1,-0.6 0.2,-0.4 0.5,-0.5 1.1,-0.3 0.7,0.1 0.4,0.2 0.4,0.5 0.2,0.6 -0.1,0.6 -0.3,1.1 -2.1,3.7 4,-1.2 m 3.1,-6.5 -0.5,-0.5 h -0.9 l -0.6,0.1 -0.8,0.6 -0.3,1 0.1,1.5 0.5,1.5 0.6,1.1 0.7,0.4 h 1 l 0.3,-0.1 0.7,-0.5 0.5,-0.8 v -0.9 l -0.1,-0.3 -0.5,-0.8 -0.8,-0.4 h -0.9 l -0.3,0.1 -0.8,0.5 -0.4,0.7 v 1 m 36.7,-8.4 0.6,-0.3 0.9,-0.9 v 6.3 m 5,-4.5 -0.2,0.9 -0.6,0.6 -0.9,0.3 h -0.3 l -0.9,-0.3 -0.6,-0.6 -0.4,-0.9 v -0.3 l 0.3,-0.9 0.6,-0.6 0.9,-0.3 h 0.3 l 0.9,0.3 0.6,0.6 0.3,1.2 0.1,1.5 -0.3,1.5 -0.6,0.9 -0.9,0.3 h -0.6 l -0.9,-0.3 -0.3,-0.6 m 21.8,-88.3 -0.6,0.1 -1.1,0.6 1.7,-6.1 m -6.1,4.1 0.1,0.7 0.8,0.5 0.6,0.2 0.9,-0.1 0.9,-0.7 0.7,-1.3 0.4,-1.5 v -1.2 l -0.4,-0.7 -0.8,-0.6 h -0.3 -0.9 l -0.8,0.4 -0.5,0.8 -0.1,0.3 0.1,0.9 0.4,0.8 0.8,0.5 0.2,0.1 1,-0.1 0.7,-0.4 0.6,-0.8 m 25.5,89.1 0.7,-0.3 0.9,-0.8 -0.4,6.3 m 2.2,-6.4 3.2,0.2 -1.9,2.3 h 0.9 l 0.6,0.4 0.2,0.3 0.3,0.9 -0.1,0.6 -0.3,0.9 -0.6,0.5 -1,0.3 -0.9,-0.1 -0.8,-0.3 -0.3,-0.4 -0.3,-0.6 m 16.2,-53.1 -0.6,-0.2 -1.3,-0.2 4.9,-3.9 m -6.9,1.8 0.8,0.5 1.1,-0.1 1.3,-0.7 0.7,-0.6 1,-1.2 0.3,-1 -0.3,-0.9 -0.4,-0.5 -0.8,-0.5 -1.1,0.1 -1.3,0.7 -0.7,0.6 -1,1.2 -0.3,1 0.3,0.9 0.3,0.3 m 43.5,79.3 0.2,-0.3 0.7,-0.2 h 0.4 l 0.6,0.2 0.9,0.9 0.2,0.6 v 0.5 l -0.2,0.6 -0.5,0.4 -0.6,0.2 -1.1,0.2 H 828 l 3,3 m 10,-48.2 -0.6,0.1 -1.1,0.7 1.3,-6.1 m 38.4,57.3 -0.7,0.6 -0.2,1.1 0.4,1.5 0.4,0.8 0.9,1.2 0.9,0.6 0.9,-0.1 0.6,-0.3 0.7,-0.6 0.1,-1.1 -0.3,-1.5 -0.4,-0.8 -0.9,-1.2 -0.9,-0.6 -1,0.1 -0.4,0.2 m 9,-51.3 -3.2,0.7 1.2,-2.7 -0.9,0.2 -0.6,-0.2 -0.4,-0.2 -0.5,-0.8 -0.1,-0.6 0.1,-0.9 0.5,-0.7 0.8,-0.5 0.9,-0.2 0.9,0.1 0.4,0.2 0.4,0.5 m 13.6,22 4.5,2.4 -0.5,-4.4 m -4,2 6.2,-0.8 m 81.8,-97.6 -0.2,0.3 -0.6,0.3 -0.4,0.1 -0.7,-0.1 -1,-0.7 -0.3,-0.6 -0.1,-0.4 0.2,-0.7 0.3,-0.5 0.6,-0.3 1,-0.4 4.2,-0.7 -3.4,-2.4 m -6.6,0.5 0.8,-0.6 0.8,-0.1 0.9,0.3 0.3,0.1 0.5,0.8 0.2,0.8 -0.3,0.9 -0.2,0.3 -0.7,0.5 -0.9,0.2 -0.9,-0.3 -0.2,-0.2 -0.6,-0.7 -0.1,-0.9 0.4,-1.1 0.9,-1.2 1.1,-1.1 1,-0.4 0.9,0.3 0.5,0.3 0.6,0.8 -0.1,0.7 m -44,-5.8 0.2,0.3 0.2,0.6 v 0.4 l -0.2,0.7 -0.9,0.8 -0.6,0.2 -0.5,-0.1 -0.6,-0.2 -0.4,-0.4 -0.2,-0.7 -0.2,-1.1 0.2,-4.2 -3.1,2.8 m 2.3,6.5 0.5,-0.8 -0.2,-0.7 -0.4,-0.4 -0.6,-0.3 -0.7,0.2 -1,0.6 -0.9,0.4 h -0.9 l -0.6,-0.3 -0.6,-0.6 -0.2,-0.7 v -0.4 l 0.5,-0.8 0.9,-0.9 0.8,-0.3 h 0.5 l 0.6,0.2 0.6,0.7 0.2,0.6 v 0.9 l -0.5,0.8 -0.7,1 -0.2,0.7 0.2,0.6 0.4,0.4 0.6,0.3 0.9,-0.4 1,-0.9 m 77.7,52.1 -0.3,-3.3 2.6,1.6 -0.1,-0.9 0.2,-0.6 0.3,-0.3 0.9,-0.4 0.6,-0.1 0.9,0.3 0.7,0.5 0.3,0.9 0.1,0.9 -0.2,0.9 -0.3,0.3 -0.5,0.4 m -5.9,-8.5 0.3,3 2.7,0.1 -0.4,-0.3 -0.3,-0.9 -0.1,-0.9 0.2,-0.9 0.6,-0.6 0.8,-0.4 0.6,-0.1 0.9,0.3 0.7,0.5 0.4,0.9 0.1,0.9 -0.3,0.9 -0.2,0.3 -0.6,0.4 m -101.3,-18.9 -0.4,3.3 -2.1,-2.1 -0.2,0.9 -0.4,0.5 -0.3,0.3 -0.9,0.2 -0.6,-0.1 -0.9,-0.5 -0.5,-0.6 -0.1,-1 0.1,-0.9 0.4,-0.8 0.3,-0.3 0.7,-0.2 m 4.2,6.6 -0.5,3.3 -2.1,-2.1 -0.1,0.9 -0.4,0.5 -0.3,0.3 -1,0.1 -0.6,-0.1 -0.8,-0.4 -0.5,-0.7 -0.2,-0.9 0.1,-0.9 0.5,-0.8 0.3,-0.3 0.6,-0.2 m 3.3,32.5 0.2,3.3 -2.5,-1.6 0.1,0.9 -0.3,0.6 -0.2,0.3 -0.9,0.4 H 914 l -0.9,-0.2 -0.7,-0.6 -0.3,-0.8 -0.1,-0.9 0.2,-1 0.3,-0.3 0.6,-0.3 m 4,5 0.4,0.5 0.9,0.9 -6.2,0.4 m 11,30.3 0.3,-0.1 0.6,0.1 0.4,0.2 0.5,0.5 0.4,1.1 -0.1,0.7 -0.2,0.4 -0.5,0.5 -0.6,0.1 -0.6,-0.1 -1.1,-0.2 -3.8,-2 1.4,4 m 6.5,-0.3 1,3.1 -2.8,-0.9 0.3,0.8 -0.1,0.7 -0.2,0.4 -0.8,0.6 -0.6,0.1 h -0.9 l -0.8,-0.3 -0.5,-0.8 -0.3,-0.9 v -0.9 l 0.2,-0.4 0.5,-0.5 m 83,43.3 -0.3,-0.1 -0.5,-0.5 -0.2,-0.3 -0.2,-0.7 0.3,-1.1 0.4,-0.5 0.4,-0.3 0.7,-0.1 0.5,0.1 0.5,0.5 0.8,0.8 2.2,3.6 1,-4.1 m -4.3,-2.7 -0.3,-0.1 -0.5,-0.4 -0.2,-0.4 -0.1,-0.7 0.3,-1.1 0.4,-0.5 0.4,-0.3 0.6,-0.1 0.6,0.1 0.5,0.5 0.7,0.8 2.2,3.6 1,-4 m -95.5,1.7 -0.3,0.6 -0.1,1.2 -3.9,-4.9 m -0.1,8.3 -1.5,-6.8 m 4.8,4.2 -3.3,2.6 m -9,26.8 -0.4,-0.9 -0.6,-0.2 h -0.6 l -0.6,0.4 -0.3,0.6 -0.2,1.2 -0.2,0.9 -0.5,0.7 -0.6,0.3 -0.9,0.1 -0.6,-0.2 -0.3,-0.3 -0.4,-0.9 -0.1,-1.2 0.2,-0.9 0.3,-0.3 0.5,-0.4 h 0.9 l 0.7,0.2 0.6,0.6 0.4,0.8 0.4,1.2 0.3,0.6 0.7,0.2 h 0.6 l 0.5,-0.4 0.3,-0.9 -0.2,-1.4 m 105.2,22.5 -0.5,-0.4 -1.1,-0.5 5.9,-2.3 m -7.7,-1.6 5,1.2 -1.6,-4.2 m -3.4,3 5.9,-2.3 m -5.2,39.4 1,-3.2 1.8,2.4 0.2,-0.8 0.5,-0.5 0.3,-0.2 1,-0.1 0.6,0.2 0.8,0.6 0.4,0.7 v 1 l -0.3,0.8 -0.5,0.8 -0.4,0.2 -0.6,0.1 m -114.3,-9.5 0.7,-0.1 0.6,-0.7 0.3,-0.5 v -1 l -0.6,-0.9 -1.2,-0.8 -1.4,-0.6 -1.2,-0.2 -0.8,0.3 -0.7,0.7 -0.1,0.3 v 1 l 0.3,0.7 0.7,0.7 0.3,0.1 0.9,0.1 0.8,-0.4 0.6,-0.7 0.1,-0.3 0.1,-0.9 -0.3,-0.8 -0.7,-0.6 m 94,48.5 0.1,-0.6 -0.2,-1.3 5.1,3.7 m -113.8,-11.3 -0.7,-0.6 -0.3,-0.8 0.1,-1 0.1,-0.2 0.7,-0.7 0.8,-0.3 0.9,0.1 0.3,0.1 0.7,0.7 0.3,0.8 -0.2,0.9 -0.1,0.3 -0.6,0.7 -0.8,0.3 -1.2,-0.3 -1.4,-0.6 -1.2,-0.9 -0.6,-0.9 0.1,-1 0.3,-0.5 0.6,-0.7 h 0.7 m 60.8,42.7 0.4,-0.5 0.6,-1.1 2,5.9 m 0.7,-7.1 -0.7,0.6 -0.3,1 0.2,1.5 0.3,0.9 0.7,1.3 0.9,0.7 h 1 l 0.5,-0.2 0.8,-0.6 0.2,-1.1 -0.2,-1.5 -0.2,-0.8 -0.8,-1.3 -0.9,-0.7 h -0.9 l -0.5,0.2 m -52.1,-7.4 0.6,0.3 h 1.3 l -4.5,4.4 m 4.4,-2.8 0.6,0.2 h 1.3 l -4.6,4.4 m 147.6,-203 -0.2,0.2 -0.7,0.3 h -0.4 l -0.6,-0.2 -0.9,-0.8 -0.2,-0.6 -0.1,-0.4 0.2,-0.7 0.4,-0.4 0.7,-0.3 1,-0.2 4.3,-0.2 -3.1,-2.8 m -7.5,1.7 5,-1 -3.3,-3.1 m -1.7,4.1 4.3,-4.6 m -8.8,24.3 -0.2,-0.2 -0.2,-0.7 v -0.4 l 0.2,-0.6 0.8,-0.9 0.6,-0.2 h 0.4 l 0.7,0.1 0.4,0.5 0.2,0.6 0.3,1 0.1,4.3 2.9,-3.1 m -1.3,-7.7 -2.1,2.1 1.8,2.1 -0.1,-0.4 0.4,-0.9 0.7,-0.6 0.8,-0.5 h 0.9 l 0.8,0.4 0.4,0.4 0.5,0.9 v 0.8 l -0.4,0.9 -0.6,0.6 -0.8,0.5 h -0.5 l -0.6,-0.2 m -219,305.2 -2.8,-1.3 -1.4,2.3 0.4,-0.1 1,0.1 0.8,0.4 0.7,0.6 0.3,0.8 -0.1,0.9 -0.3,0.6 -0.6,0.7 -0.8,0.3 -1,-0.1 -0.8,-0.4 -0.7,-0.6 -0.1,-0.4 v -0.7 m 6.8,-0.8 0.1,-0.3 0.5,-0.4 0.4,-0.2 h 0.7 l 1.1,0.5 0.4,0.5 0.2,0.4 v 0.7 l -0.3,0.5 -0.5,0.5 -0.9,0.5 -4,1.5 3.8,1.7 m 61.9,56.2 -0.9,2.9 2.4,1.1 -0.2,-0.4 v -0.9 l 0.3,-0.9 0.6,-0.7 0.8,-0.4 h 0.9 l 0.6,0.2 0.7,0.6 0.4,0.7 v 1 l -0.3,0.8 -0.6,0.8 -0.3,0.2 -0.7,0.1 m -1.1,-9.9 -0.6,0.1 -0.6,0.8 -0.2,0.6 v 0.9 l 0.6,0.9 1.4,0.7 1.4,0.5 1.2,0.1 0.8,-0.3 0.5,-0.8 0.1,-0.3 0.1,-0.9 -0.4,-0.8 -0.8,-0.6 -0.3,-0.1 h -0.9 l -0.8,0.4 -0.5,0.8 -0.1,0.2 -0.1,1 0.4,0.7 0.8,0.6 m -64.1,-14.1 -0.4,-5.2 -3.5,3 m 3.9,2.2 -4.1,-4.8 m -0.7,8.8 2.3,-2 -1.5,-2.2 -0.1,0.4 -0.4,0.8 -0.7,0.6 -0.9,0.4 -0.9,-0.1 -0.8,-0.5 -0.4,-0.5 -0.3,-0.8 0.1,-0.9 0.4,-0.8 0.7,-0.6 0.9,-0.3 h 0.4 l 0.7,0.3 m 49.1,72 3.4,3.8 1,-4.3 m -4.4,0.5 6.1,1.4 m -4.8,-7.1 3.4,3.9 1,-4.4 m -4.4,0.5 6.1,1.4 m -42.1,-15.4 -5,1 3.3,3.1 m 1.7,-4.1 -4.3,4.6 m 5.6,-1.3 0.2,-0.2 0.6,-0.2 h 0.4 l 0.7,0.1 0.9,0.9 0.2,0.6 v 0.4 l -0.2,0.7 -0.4,0.4 -0.6,0.2 -1.1,0.3 -4.2,0.1 3,2.9 m 95.1,-63.2 -2.6,-1.5 -1.7,2.1 0.5,-0.1 0.9,0.2 0.7,0.5 0.7,0.7 0.2,0.9 -0.3,0.9 -0.3,0.5 -0.7,0.6 -0.8,0.2 -0.9,-0.2 -0.8,-0.5 -0.6,-0.7 -0.1,-0.4 v -0.7 m 10.7,0.6 -5.8,3.8 m 2.2,-6 3.6,2.2 m 13.6,-100.4 -0.5,3 2.7,0.7 -0.3,-0.3 -0.1,-0.9 0.1,-0.9 0.4,-0.9 0.7,-0.5 1,-0.1 0.6,0.1 0.8,0.4 0.5,0.7 0.2,0.9 -0.2,0.9 -0.4,0.9 -0.4,0.2 -0.6,0.2 m -1.5,-9.6 0.8,0.5 0.5,0.6 0.2,1 -0.1,0.3 -0.4,0.8 -0.7,0.5 -0.9,0.2 -0.3,-0.1 -0.9,-0.4 -0.5,-0.7 -0.1,-1 v -0.3 l 0.5,-0.8 0.7,-0.5 1.2,-0.1 1.5,0.3 1.4,0.5 0.8,0.7 0.2,1 -0.1,0.6 -0.5,0.8 -0.6,0.2 m -26,-27.8 -3.2,-0.6 2.2,-2 -0.9,-0.2 -0.5,-0.4 -0.2,-0.4 -0.2,-0.9 0.1,-0.6 0.5,-0.8 0.7,-0.5 1,-0.1 0.8,0.1 0.9,0.5 0.2,0.4 0.2,0.6 m -10.2,3.2 4.1,-5.6 m 0,6.4 -4.1,-0.8 m -118.9,-40.8 2.9,-0.9 -0.4,-2.6 -0.2,0.3 -0.8,0.6 -0.9,0.2 h -0.9 l -0.8,-0.4 -0.5,-0.8 -0.2,-0.6 0.1,-0.9 0.4,-0.8 0.8,-0.5 0.8,-0.3 1,0.1 0.3,0.2 0.5,0.5 m -4.1,5 -0.4,0.4 -0.7,1.1 -1.7,-6 m -47.6,8.7 3,0.1 0.4,-2.7 -0.3,0.3 -0.9,0.3 -0.9,-0.1 -0.9,-0.3 -0.6,-0.6 -0.2,-0.9 v -0.6 l 0.3,-0.9 0.6,-0.6 1,-0.3 0.9,0.1 0.8,0.3 0.3,0.3 0.3,0.6 m -7.4,4.8 1,-0.2 0.6,-0.9 0.4,-1.5 v -0.9 l -0.2,-1.5 -0.6,-0.9 -0.9,-0.4 h -0.6 l -0.9,0.3 -0.6,0.9 -0.4,1.4 v 0.9 l 0.2,1.6 0.6,0.9 0.8,0.3 h 0.5 m -20.3,32.6 -2.9,0.9 0.6,2.7 0.2,-0.4 0.8,-0.6 0.8,-0.3 h 1 l 0.7,0.4 0.6,0.8 0.2,0.5 v 1 l -0.4,0.8 -0.8,0.5 -0.8,0.3 h -1 l -0.3,-0.2 -0.5,-0.5 m 4,-6.7 3.1,-1 -0.9,2.8 0.8,-0.2 h 0.7 l 0.4,0.2 0.6,0.8 0.1,0.6 v 0.9 l -0.3,0.8 -0.8,0.5 -0.9,0.3 h -0.9 l -0.4,-0.2 -0.5,-0.4 M 598,460.4 l -3.3,-0.3 2.1,-2.2 -0.9,-0.1 -0.6,-0.4 -0.3,-0.3 -0.2,-0.9 0.1,-0.6 0.4,-0.9 0.6,-0.5 1,-0.2 0.9,0.1 0.8,0.4 0.3,0.3 0.2,0.6 m -9.5,2.1 0.4,-0.9 0.7,-0.5 0.9,-0.2 h 0.3 l 0.9,0.4 0.5,0.6 0.2,1 v 0.3 l -0.4,0.8 -0.7,0.6 -0.9,0.2 -0.3,-0.1 -0.9,-0.3 -0.5,-0.7 -0.2,-1.2 0.2,-1.5 0.4,-1.5 0.7,-0.8 0.9,-0.2 h 0.6 l 0.9,0.4 0.2,0.6 m -14.9,27.8 -4.4,-2.8 0.3,4.5 m 4.1,-1.7 -6.3,0.4 m 6.4,4 -0.3,-0.8 -0.9,-0.6 -1.6,-0.2 h -0.8 l -1.5,0.4 -0.9,0.7 -0.2,0.9 v 0.6 l 0.3,0.9 1,0.5 1.5,0.2 h 0.9 l 1.5,-0.4 0.8,-0.6 0.3,-1 v -0.4 m 15.5,101.6 2.3,4.5 2.1,-4 m -4.4,-0.5 5.6,2.8 m -2.8,-4.9 -0.3,-0.2 -0.4,-0.5 -0.1,-0.4 v -0.7 l 0.6,-1.1 0.5,-0.4 0.4,-0.1 h 0.7 l 0.5,0.3 0.4,0.5 0.5,1 1.3,4 2,-3.7 m -31.1,-30.2 v -1 l -0.7,-0.8 -1.4,-0.6 -0.9,-0.3 -1.5,-0.1 -1,0.4 -0.5,0.8 -0.2,0.6 0.1,0.9 0.7,0.8 1.4,0.7 0.8,0.2 1.6,0.1 1,-0.3 0.5,-0.8 0.1,-0.5 m -11.1,88.1 -4,-3.2 -0.3,4.5 m 4.3,-1.3 -6.3,-0.3 m 4.7,2.8 0.3,0.6 0.8,1 -6.3,-0.3 m 39.2,43.1 -2.4,4.5 4.5,-0.6 m -2.1,-3.9 0.9,6.2 m 2.3,-6.7 3.3,-0.4 -1.5,2.6 0.9,-0.1 0.7,0.2 0.3,0.2 0.4,0.9 0.1,0.6 -0.2,0.9 -0.5,0.7 -0.8,0.4 -0.9,0.1 -0.9,-0.1 -0.4,-0.3 -0.4,-0.5 m 12,-52.5 2.1,-4.7 -4.4,0.9 m 2.3,3.8 -1.3,-6.2 m -4.4,7.3 2.1,-4.7 -4.4,0.9 m 2.3,3.8 -1.3,-6.2 m 75.3,-184.5 4.7,-2 -3.8,-2.4 m -0.9,4.4 3.3,-5.4 m -8.1,1.2 -0.1,0.7 0.6,0.7 0.5,0.3 0.9,0.3 1,-0.5 1.1,-1.1 0.8,-1.3 0.4,-1.1 -0.2,-0.9 -0.6,-0.7 -0.3,-0.1 -0.9,-0.3 -0.8,0.2 -0.8,0.6 -0.1,0.3 -0.3,0.9 0.2,0.8 0.6,0.8 0.3,0.1 0.9,0.2 0.8,-0.2 0.8,-0.6 m -45.4,-22.8 -0.4,3.3 -2.2,-2 -0.1,0.9 -0.3,0.5 -0.4,0.3 -0.9,0.2 -0.6,-0.1 -0.9,-0.3 -0.5,-0.7 -0.2,-0.9 0.1,-0.9 0.4,-0.9 0.3,-0.3 0.6,-0.2 m 2.1,9.5 -0.9,-0.4 -0.5,-0.6 -0.2,-1 v -0.3 l 0.4,-0.8 0.6,-0.6 1,-0.2 0.3,0.1 0.8,0.4 0.6,0.6 0.2,0.9 -0.1,0.3 -0.3,0.9 -0.7,0.5 -1.2,0.2 -1.5,-0.1 -1.5,-0.5 -0.8,-0.7 -0.2,-0.9 v -0.6 l 0.4,-0.9 0.7,-0.2 m 16.1,-82.8 4,-3.3 -4.3,-1.2 m 0.3,4.5 1.7,-6.1 m -14.4,22.9 -4.6,-2.5 0.6,4.5 m 4,-2 -6.3,0.7 m 6.8,3.7 -0.4,-0.9 -1,-0.5 -1.5,-0.1 -0.9,0.1 -1.5,0.5 -0.8,0.7 -0.2,1 0.1,0.6 0.4,0.8 1,0.5 1.5,0.1 0.9,-0.1 1.4,-0.5 0.9,-0.7 0.1,-0.9 v -0.5 m 48.5,315.3 -3.1,4.1 4.5,0.1 m -1.4,-4.2 -0.1,6.3 m 6.8,-6.2 -3.1,6.3 m -1.1,-6.3 h 4.2 m 15.7,-306.3 4.1,3 0.1,-4.5 m -4.2,1.5 6.3,0.1 m -6.2,-4.3 0.3,0.9 0.6,0.3 h 0.6 l 0.6,-0.3 0.3,-0.6 0.3,-1.1 0.3,-0.9 0.6,-0.6 0.6,-0.3 h 0.9 l 0.6,0.3 0.3,0.3 0.3,0.9 v 1.2 l -0.3,0.9 -0.3,0.3 -0.6,0.3 h -0.9 l -0.6,-0.3 -0.6,-0.6 -0.3,-0.9 -0.3,-1.3 -0.3,-0.6 -0.6,-0.3 h -0.6 l -0.6,0.3 -0.3,0.9 v 1.4 m -8.3,-12.6 -0.6,0.1 -1.2,0.5 2,-5.9 m -6.1,4.8 4.2,-3 -4.3,-1.4 m 0.1,4.4 2,-5.9 m 13.9,59.2 4.5,2.6 -0.4,-4.5 m -4.1,1.9 6.3,-0.6 m -4.7,-6.1 0.9,0.2 0.7,0.6 0.3,0.8 0.1,0.3 -0.3,1 -0.5,0.6 -0.9,0.4 h -0.3 l -0.9,-0.2 -0.6,-0.5 -0.4,-0.9 v -0.3 l 0.2,-0.9 0.5,-0.7 1.2,-0.4 1.5,-0.1 1.5,0.1 0.9,0.5 0.4,0.9 0.1,0.6 -0.2,0.9 -0.6,0.4 m -26.3,11.2 -3,4.2 4.5,0.1 m -1.5,-4.3 -0.1,6.3 m 6.3,-5.3 -0.3,-0.6 -0.9,-0.3 h -0.6 l -0.9,0.3 -0.6,0.9 -0.3,1.5 v 1.5 l 0.3,1.2 0.6,0.6 0.9,0.3 h 0.3 l 0.9,-0.3 0.6,-0.6 0.3,-0.9 v -0.3 l -0.3,-0.9 -0.6,-0.6 -0.9,-0.3 h -0.3 l -0.9,0.3 -0.6,0.6 -0.3,0.9 m 48.3,225.7 1.3,2.6 2.6,-1 -0.4,-0.1 -0.7,-0.6 -0.4,-0.8 -0.2,-1 0.3,-0.8 0.6,-0.7 0.6,-0.2 0.9,-0.2 0.8,0.3 0.7,0.6 0.4,0.8 0.2,1 -0.2,0.4 -0.4,0.5 m -8.5,-5.1 5.1,0.7 -2,-4 m -3.1,3.3 5.6,-3 m -6.5,31.8 -2.6,1.5 1.1,2.4 0.1,-0.4 0.6,-0.7 0.8,-0.4 0.9,-0.2 0.8,0.2 0.8,0.6 0.3,0.6 0.1,0.9 -0.2,0.8 -0.6,0.7 -0.8,0.5 -0.9,0.2 -0.4,-0.2 -0.6,-0.3 m 5.2,-8.9 -2.6,1.5 1.1,2.5 0.1,-0.4 0.6,-0.7 0.8,-0.5 1,-0.2 0.8,0.3 0.7,0.6 0.3,0.5 0.2,0.9 -0.3,0.9 -0.6,0.7 -0.8,0.4 -0.9,0.2 -0.4,-0.1 -0.6,-0.4 m -36.2,-65.5 2.6,1.4 1.6,-2.2 -0.4,0.1 -1,-0.1 -0.8,-0.5 -0.6,-0.7 -0.2,-0.8 0.1,-0.9 0.3,-0.5 0.7,-0.7 0.8,-0.2 0.9,0.1 0.8,0.5 0.7,0.7 0.1,0.4 v 0.6 m -10.7,0 5.6,-4.1 m -1.9,6.1 -3.7,-2 m -32.2,4.7 2.3,-2 -1.6,-2.2 -0.1,0.4 -0.4,0.8 -0.7,0.6 -0.9,0.4 h -0.8 l -0.8,-0.5 -0.4,-0.4 -0.4,-0.9 v -0.8 l 0.5,-0.9 0.6,-0.6 0.9,-0.4 0.4,0.1 0.7,0.2 m -3.8,9.1 0.6,0.3 0.9,-0.4 0.4,-0.4 0.5,-0.8 -0.2,-1.1 -0.8,-1.3 -1,-1.1 -1,-0.7 -0.9,-0.1 -0.8,0.4 -0.3,0.2 -0.4,0.9 -0.1,0.8 0.4,0.9 0.2,0.2 0.9,0.5 h 0.8 l 0.9,-0.4 0.2,-0.2 0.5,-0.8 v -0.9 l -0.4,-0.8 m 125.4,-77.3 -0.6,-2.9 -2.7,0.2 0.4,0.2 0.4,0.9 0.2,0.8 -0.1,1 -0.5,0.7 -0.8,0.5 -0.6,0.1 -0.9,-0.1 -0.7,-0.5 -0.5,-0.8 -0.2,-0.9 0.1,-1 0.3,-0.3 0.5,-0.4 m 6.2,4.8 0.6,3.2 -2.7,-1.3 0.2,0.9 -0.2,0.7 -0.2,0.3 -0.9,0.5 -0.5,0.1 -1,-0.1 -0.7,-0.5 -0.5,-0.8 -0.1,-0.9 0.1,-0.9 0.2,-0.4 0.5,-0.4 m 88,-61.8 -1.5,-2.9 2.9,0.5 -0.4,-0.8 V 473 l 0.1,-0.4 0.7,-0.7 0.5,-0.3 1,-0.1 0.8,0.2 0.6,0.7 0.5,0.8 0.1,0.9 -0.1,0.4 -0.4,0.6 m -8.5,-5.2 5.1,0.7 -2.1,-4 m -3,3.3 5.6,-2.9 m -13.1,-38.6 h -0.2 l -0.6,-0.4 -0.2,-0.4 -0.2,-0.6 0.1,-1.2 0.4,-0.5 0.4,-0.3 0.6,-0.2 0.6,0.1 0.6,0.4 0.7,0.7 2.5,3.5 0.7,-4.2 m -5.5,-5.6 -0.5,2.9 2.7,0.7 -0.3,-0.3 -0.1,-0.9 0.1,-0.9 0.4,-0.9 0.7,-0.5 1,-0.1 0.6,0.1 0.8,0.4 0.5,0.7 0.2,0.9 -0.2,0.9 -0.4,0.9 -0.4,0.2 -0.6,0.2 m 5.7,-43.7 -0.3,-0.1 -0.5,-0.4 -0.2,-0.4 -0.2,-0.6 0.3,-1.2 0.5,-0.5 0.3,-0.2 0.7,-0.1 0.6,0.1 0.5,0.5 0.7,0.8 2.1,3.6 1.1,-4 m -4.2,-2.9 h -0.3 l -0.5,-0.5 -0.2,-0.3 -0.1,-0.7 0.3,-1.2 0.4,-0.5 0.4,-0.2 0.6,-0.1 0.6,0.1 0.5,0.5 0.7,0.8 2.2,3.7 1,-4.1 m 0.3,-7.9 0.6,-5.1 -3.9,2.2 m 3.3,2.9 -3.1,-5.5 m -0.5,7.5 0.6,-0.7 v -0.7 l -0.3,-0.5 -0.6,-0.4 h -0.6 l -1.2,0.4 -0.9,0.2 -0.9,-0.3 -0.5,-0.4 -0.5,-0.7 v -0.7 l 0.1,-0.4 0.7,-0.7 1,-0.6 0.9,-0.2 0.4,0.1 0.6,0.4 0.4,0.8 0.1,0.7 -0.3,0.8 -0.6,0.7 -0.9,0.8 -0.4,0.6 0.1,0.7 0.3,0.5 0.5,0.4 1,-0.2 1.1,-0.7 m -66.9,70.2 -1.8,-2.3 -2.3,1.4 0.4,0.1 0.8,0.5 0.6,0.7 0.3,0.9 -0.1,0.8 -0.5,0.8 -0.5,0.4 -0.9,0.3 -0.8,-0.1 -0.8,-0.5 -0.6,-0.7 -0.3,-0.9 v -0.4 l 0.3,-0.6 m 6.2,1.8 0.6,0.3 1.2,0.2 -4.9,3.9 m 9.7,-43.8 1.1,-2.8 -2.4,-1.2 0.2,0.4 -0.1,0.9 -0.3,0.9 -0.6,0.7 -0.8,0.3 h -0.9 l -0.6,-0.2 -0.7,-0.6 -0.4,-0.8 0.1,-0.9 0.3,-0.9 0.6,-0.7 0.4,-0.2 h 0.6 m 2.3,8.5 v -1 l -0.6,-0.9 -1.3,-0.8 -0.9,-0.3 -1.5,-0.3 -1,0.3 -0.6,0.7 -0.2,0.6 -0.1,0.9 0.7,0.9 1.2,0.8 0.9,0.3 1.5,0.3 1.1,-0.3 0.6,-0.7 0.1,-0.4 m 27.6,-29.2 3.2,-4 -4.5,-0.2 m 1.3,4.2 0.3,-6.3 m -6.7,3.8 0.3,-0.8 0.6,-0.6 0.9,-0.3 h 0.3 l 0.9,0.4 0.6,0.6 0.2,0.9 v 0.3 l -0.3,0.9 -0.6,0.6 -0.9,0.2 h -0.3 l -0.9,-0.3 -0.6,-0.6 -0.2,-1.3 v -1.5 l 0.4,-1.4 0.6,-0.9 0.9,-0.3 0.6,0.1 0.9,0.3 0.3,0.6 m 145.3,219 v 0.7 l 0.8,0.6 0.5,0.2 h 1 l 0.9,-0.6 0.8,-1.3 0.5,-1.4 0.1,-1.2 -0.3,-0.8 -0.7,-0.6 -0.3,-0.1 -1,-0.1 -0.7,0.4 -0.6,0.7 -0.1,0.3 -0.1,1 0.4,0.7 0.7,0.6 0.3,0.1 0.9,0.1 0.8,-0.4 0.6,-0.7 m -7.9,1.5 h 1 l 0.8,-0.6 0.9,-1.3 0.3,-0.8 0.2,-1.5 -0.2,-1.1 -0.8,-0.6 -0.5,-0.2 h -1 l -0.9,0.6 -0.8,1.3 -0.3,0.8 -0.2,1.5 0.2,1.1 0.8,0.6 0.4,0.1 m -12.3,95.7 -0.8,-2.9 -2.7,0.4 0.4,0.2 0.5,0.8 0.2,0.9 v 0.9 l -0.5,0.7 -0.8,0.6 -0.5,0.1 -1,-0.1 -0.7,-0.4 -0.5,-0.8 -0.3,-0.9 0.1,-0.9 0.2,-0.4 0.5,-0.4 m 7.1,6.9 -4.8,-1.8 1.1,4.3 m 3.7,-2.5 -6.1,1.6 m 41.1,-29.3 -1.9,2.3 1.8,2 v -0.5 l 0.3,-0.8 0.6,-0.7 0.8,-0.5 0.9,-0.1 0.9,0.4 0.4,0.4 0.5,0.8 0.1,0.8 -0.4,0.9 -0.6,0.7 -0.8,0.5 h -0.4 l -0.7,-0.2 m 0.6,-8.5 -0.3,0.9 0.2,0.6 0.5,0.4 0.6,0.2 0.7,-0.3 1,-0.7 0.8,-0.5 0.8,-0.1 0.7,0.2 0.7,0.6 0.2,0.6 v 0.4 l -0.3,0.9 -0.8,0.9 -0.8,0.5 h -0.4 l -0.7,-0.1 -0.7,-0.6 -0.2,-0.6 -0.1,-0.9 0.4,-0.8 0.5,-1.2 0.2,-0.6 -0.3,-0.6 -0.4,-0.4 -0.7,-0.2 -0.8,0.5 -0.9,1 m 33.1,-60.2 0.4,0.6 0.9,0.2 h 0.6 l 0.9,-0.4 0.5,-1 0.1,-1.5 -0.1,-1.5 -0.4,-1.2 -0.7,-0.5 -0.9,-0.2 h -0.3 l -0.9,0.4 -0.5,0.7 -0.2,0.9 v 0.3 l 0.4,0.9 0.7,0.5 0.9,0.2 h 0.3 l 0.8,-0.4 0.6,-0.7 0.2,-0.9 m -4.7,3.3 -0.5,0.3 -0.8,1 -0.7,-6.2 m 13.1,9.3 -0.7,0.2 -0.3,0.9 -0.1,0.6 0.2,0.9 0.9,0.7 1.4,0.4 1.5,0.1 1.3,-0.1 0.6,-0.6 0.4,-0.9 v -0.3 l -0.2,-0.9 -0.6,-0.6 -0.8,-0.4 h -0.3 l -0.9,0.2 -0.7,0.5 -0.4,0.9 v 0.3 l 0.2,0.9 0.6,0.7 0.8,0.3 m -2.2,-5.7 -0.3,-0.1 -0.5,-0.3 -0.3,-0.3 -0.3,-0.7 0.1,-1.1 0.4,-0.6 0.3,-0.3 0.6,-0.2 h 0.6 l 0.6,0.4 0.9,0.6 2.7,3.3 0.4,-4.2 M 675,556.9 l 0.5,3 2.7,-0.2 -0.3,-0.2 -0.5,-0.9 -0.1,-0.8 0.1,-1 0.5,-0.7 0.8,-0.4 0.6,-0.1 1,0.1 0.7,0.5 0.4,0.9 0.2,0.8 -0.2,1 -0.2,0.3 -0.6,0.4 m -4.5,-5.2 -0.3,0.1 -0.6,-0.2 -0.4,-0.3 -0.4,-0.5 -0.2,-1.2 0.2,-0.6 0.3,-0.4 0.5,-0.4 0.6,-0.1 0.6,0.2 1,0.5 3.5,2.4 -0.7,-4.1 m -19,4.3 -5,1.6 3.7,2.7 m 1.3,-4.3 -3.8,5.1 m 8.7,-1.3 -2.4,-1.8 -1.8,2 0.4,-0.1 0.9,0.3 0.7,0.6 0.5,0.7 0.2,0.9 -0.3,0.9 -0.4,0.5 -0.8,0.5 -0.8,0.1 -0.9,-0.3 -0.7,-0.5 -0.6,-0.8 v -0.4 l 0.1,-0.7"
       id="nums_002"
       stroke="#000000"
       stroke-width="1" />
    <path
       d="m 709.2,156.9 -31.1,19.5 -21.6,36.7 -41.4,-3.8 40.7,-47.3 15.4,-24.7 16.7,-28.1 60.4,-29.9 51.4,-6.9 55.5,5.9 63.1,-6.2 37,23.8 54.6,41.2 28.8,47.2 -45.8,-15 -32.9,-18.4 -34,-15.9 -39.2,44.8 -43.1,-18.4 -51,23.9 -43.5,-33.9 z m 41,130.2 -42.9,0.6 -36.3,10.5 -15.3,27.2 -74.1,-8.3 -33.9,-40.4 25.5,-11.5 49.4,2.7 50.3,-65.9 52.6,-19.9 45.1,12.9 48.8,60.4 43.8,9.3 42.5,-9.4 7.6,57 -60.4,27.7 -49.2,-49.4 z m 205,-133.3 67.7,48 4.3,49.3 20.5,19 -28.9,30.4 -13.4,53.3 14.1,36.4 -12.4,41.7 -26.4,36.3 -73.3,25.2 -41.4,-42.8 15.8,-34.1 14.4,-34.8 -4,-48 32.8,-25.6 -13.3,-40.4 -2.7,-36.6 5.7,-40 z M 764,494.6 677.6,523.2 688,584.5 628.4,540 l -51.1,100 54.6,-11 41.4,-37.7 51.6,28 27.2,52.1 -35.6,20.5 -72,-1.1 -94.9,14 5.9,-119.2 16.9,-64.2 -4,-72.2 51.8,5.1 5.4,-51.7 -8.9,-71.8 55.4,15.3 37,12.5 -0.6,31.6 3.7,39.2 -57.2,-0.4 48.5,30.4 71.9,3 27.9,-8 -18,-22.8 25.5,-67.2 39.3,1.8 27.5,-15.5 -14.1,53.2 -6.6,41.5 24.2,46.9 73.2,14.3 -9.9,61 64.1,24.2 40.4,-4.3 -2.2,24.9 -87.6,102.3 -14.6,-56.9 -50.2,-30.5 -18.1,53 -12.6,54.2 -81.8,-76.9 56.6,-48.3 -56.6,-25.7 z"
       id="coupes_002"
       stroke="#ff0000"
       stroke-width="1.27"
       sodipodi:nodetypes="cccccccccccccccccccccccccccccccccccccccccccccccccccccccccccccccccccccccccccccccccccccccccccccccccccccccccc" />
    <path
       d="M 886.8,179.8 918.3,72.1 m 0,0 7.7,62.9 M 886.8,179.8 855.2,78.3 m -11.5,83.1 11.5,-83.1 m -11.5,83.1 -44,-89 m -7,112.9 7,-112.9 m -50.5,79 -0.9,-72.1 m -39.1,77.6 -21.3,-47.7 m 21.3,47.7 -38,-19.6 m 6.9,39.1 -6.9,-39.1 m 6.9,39.1 -22.3,-14.4 m 0.7,51.1 -0.7,-51.1 M 955.3,95.9 926,135 m 29.3,-39.1 4.7,55 m 49.9,-13.8 -49.9,13.8 m 49.9,-13.8 -17,32.2 m -370.3,98.6 -41,49.2 m 0,0 -8.4,-51.9 m 49.4,2.7 33.1,57.5 M 672.9,202 671,298.2 m 54.5,-116.1 -18.2,105.6 m 18.2,-105.6 24.7,105 m 20.4,-92.1 -20.4,92.1 m 20.4,-92.1 33.1,95.6 m 15.7,-35.2 -15.7,35.2 m 15.7,-35.2 33.5,84.6 m 10.3,-75.3 -10.3,75.3 m 10.3,-75.3 50.1,47.6 M 1022.9,201.8 914.7,191.1 m 112.5,60 -118.2,-20 m 118.2,20 -115.5,16.6 m 107.1,32.8 -107.1,-32.8 m 107.1,32.8 -93.8,7.6 m 80.4,45.7 -80.4,-45.7 m 80.4,45.7 -113.2,-20.1 m 127.3,56.5 -123.3,-8.5 m 110.9,50.2 -110.9,-50.2 m 110.9,50.2 -125.3,-15.4 M 980.7,468.2 866,450.6 m -39.6,90.7 12,68 m 55.9,18 -55.9,-18 m 37.8,71 -37.8,-71 m 37.8,71 -94.4,-22.7 m 44.6,-116.3 118,26.3 m 0,0 0.1,90.2 m -123.1,-149 123,58.8 m -118,-26.3 -5,-32.5 m 59.7,-16.5 63.3,75.3 m -123,-58.8 -18.1,-54.4 m 0,0 77.8,37.9 M 821.4,508.8 764,494.6 m 0,0 11.4,-32.2 M 764,494.6 703.5,459.4 m -83.3,-5.1 83.3,5.1 m -25.9,63.8 -57.4,-68.9 m 8.2,85.7 -8.2,-85.7 m -47.8,67.1 47.8,-67.1 M 577.3,640 572.4,521.4 m 4.9,118.6 -27.7,64.8 m 27.7,-64.8 67.2,50.8 M 620.2,454.3 655,429 M 625.6,402.6 655,429 m -29.4,-26.4 82.9,-12.4 m 0,0 L 655,429 m -29.4,-26.4 46.5,-56.5 m -40.2,282.9 84.6,62.9 m 8.4,-72.6 -8.4,72.6 M 825.9,541.4 764,494.6 m 39.3,-40.2 53.6,-9 m -53.6,9 60.2,-50.5 m -78.2,27.7 64.8,-65.4 m 158.4,225.6 -49.4,122.9 m 49.4,-122.9 38.2,20.6"
       id="plisM_002"
       stroke="#a52a2a"
       stroke-dasharray="4" />
    <path
       d="m 749.2,151.4 50.5,-79 m -90.5,84.5 39.1,-77.6 M 622.6,267.9 671,298.2 M 725.5,182.1 671,298.2 m 356.2,-47.1 -112.5,-60 m 112.5,60 -8.4,49.4 m -13.4,53.3 -109.2,27.9 m 84.5,86.5 -98.9,-51.7 m -99.9,166.9 44.5,-42.1 m 0,0 67.9,86 m 50.1,-59.7 -50.1,59.7 m -72.9,-118.5 59.7,-16.5 m -59.7,16.5 -46,-46.4 m -97.8,60.8 25.9,-63.8 m -25.9,63.8 -49.2,16.8 m 0,0 -56,-18.6 m 4.9,118.6 -21.8,-54.4 m 76.4,43.4 12.6,61.8 m 27.6,-344.7 36.4,44.1 m -76.6,238.8 93,-9.7 m 78.4,-164.9 46.8,-88.2 m 0,0 13.4,37.7 m 145,187.9 -64,66"
       id="plisV_002"
       stroke="#008000"
       stroke-dasharray="4, 1, 1, 1"
       stroke-width="1.27" />
    <path
       d="m 772.5,109.9 4,4 m 0,-4 -4,4 m -45.8,2.2 4,4 m 0,-4 -4,4 m -81.9,161 4,4 m 0,-4 -4,4 m 51.5,-47 4,4 m 0,-4 -4,4 m 272.6,-23 4,4 m 0,-4 -4,4 m 52.1,50.7 4,4 m 0,-4 -4,4 m -72.2,88 4,4 m 0,-4 -4,4 m -19.5,70.6 4,4 m 0,-4 -4,4 m -127.1,115.9 4,4 m 0,-4 -4,4 m 56.2,18 4,4 m 0,-4 -4,4 m 58.9,9.2 4,4 m 0,-4 -4,4 m -68.1,-101 4,4 m 0,-4 -4,4 m -52.8,-18.9 4,4 m 0,-4 -4,4 m -107.8,1.7 4,4 m 0,-4 -4,4 m -37.6,36.3 4,4 m 0,-4 -4,4 m -52.6,-4.9 4,4 m 0,-4 -4,4 m -34,78.1 4,4 m 0,-4 -4,4 m 71.8,43.1 4,4 m 0,-4 -4,4 m 52.1,-295.7 4,4 m 0,-4 -4,4 m -11.9,252 4,4 m 0,-4 -4,4 m 148.3,-217.9 4,4 m 0,-4 -4,4 m 30.1,-29.2 4,4 m 0,-4 -4,4 m 119.7,235.7 4,4 m 0,-4 -4,4"
       id="marqueV_002"
       stroke="#008000" />
    <path
       d="m 807.9,127.3 h 8.3 l -4.5,6 h 2.2 l 1.5,0.8 0.8,0.7 0.7,2.3 v 1.5 l -0.7,2.2 -1.5,1.5 -2.3,0.8 h -2.2 l -2.3,-0.8 -0.7,-0.7 -0.8,-1.5"
       id="titre_3"
       stroke="#4b0082" />
    <path
       d="m 729.4,239.7 -7.5,10.5 h 11.2 m -3.7,-10.5 v 15.8"
       id="titre_4"
       stroke="#4b0082" />
    <path
       d="m 942.95659,322.18682 h -7.5 l -0.8,6.8 0.8,-0.8 2.2,-0.7 h 2.3 l 2.2,0.7 1.5,1.5 0.8,2.3 v 1.5 l -0.8,2.2 -1.5,1.5 -2.2,0.8 h -2.3 l -2.2,-0.8 -0.8,-0.7 -0.7,-1.5"
       id="titre_5"
       stroke="#4b0082" />
    <path
       d="m 794.3,529.8 -0.7,-1.5 -2.3,-0.8 h -1.5 l -2.2,0.8 -1.5,2.2 -0.8,3.8 v 3.7 l 0.8,3 1.5,1.5 2.2,0.8 h 0.8 l 2.2,-0.8 1.5,-1.5 0.8,-2.2 V 538 l -0.8,-2.2 -1.5,-1.5 -2.2,-0.8 h -0.8 l -2.2,0.8 -1.5,1.5 -0.8,2.2"
       id="titre_6"
       stroke="#4b0082" />
  </g>
</svg>
