<?xml version="1.0" encoding="UTF-8" standalone="no"?>
<svg
   height="841.88977pt"
   viewBox="0 0 532.99998 754.00001"
   width="595.27557pt"
   version="1.1"
   id="svg1"
   sodipodi:docname="chibiTri300_H18_A4x5.svg"
   inkscape:version="1.3 (0e150ed6c4, 2023-07-21)"
   xmlns:inkscape="http://www.inkscape.org/namespaces/inkscape"
   xmlns:sodipodi="http://sodipodi.sourceforge.net/DTD/sodipodi-0.dtd"
   xmlns="http://www.w3.org/2000/svg"
   xmlns:svg="http://www.w3.org/2000/svg">
  <defs
     id="defs1" />
  <sodipodi:namedview
     id="namedview1"
     pagecolor="#ffffff"
     bordercolor="#000000"
     borderopacity="0.25"
     inkscape:showpageshadow="2"
     inkscape:pageopacity="0.0"
     inkscape:pagecheckerboard="0"
     inkscape:deskcolor="#d1d1d1"
     inkscape:document-units="mm"
     showgrid="false"
     inkscape:zoom="0.27149905"
     inkscape:cx="2478.83"
     inkscape:cy="561.69626"
     inkscape:window-width="1560"
     inkscape:window-height="943"
     inkscape:window-x="180"
     inkscape:window-y="32"
     inkscape:window-maximized="1"
     inkscape:current-layer="svg1" />
  <style
     type="text/css"
     id="style1"><![CDATA[
			path {
				fill: none;
			}
		]]></style>
  <g
     id="page_001">
    <path
       d="m 385.4,255.2 0.4,-0.6 0.2,-1.2 3.4,5.3 m -1,-7.1 -0.6,0.8 v 1.1 l 0.5,1.4 0.5,0.7 1.1,1.1 1,0.5 0.9,-0.2 0.5,-0.4 0.6,-0.7 v -1.1 l -0.5,-1.4 -0.5,-0.8 -1.1,-1.1 -1,-0.4 -0.9,0.2 -0.4,0.3 m 3.6,-0.6 0.3,-0.6 0.3,-1.2 3.4,5.3 m -46.4,-113.7 -0.5,0.4 -0.7,1.1 -1.3,-6.2 m 0,5.2 -0.5,0.4 -0.7,1.1 -1.3,-6.2 m -1.6,7 0.8,-0.5 0.5,-1 -0.1,-1.5 -0.1,-0.9 -0.6,-1.4 -0.8,-0.8 -1,-0.1 -0.5,0.1 -0.9,0.5 -0.4,1 v 1.5 l 0.2,0.9 0.6,1.4 0.8,0.8 0.9,0.1 0.5,-0.1 m 46.1,49 -0.3,0.1 -0.7,0.1 -0.4,-0.1 -0.6,-0.3 -0.6,-1 -0.1,-0.7 0.1,-0.4 0.3,-0.6 0.5,-0.3 0.7,-0.1 h 1.1 l 4.1,0.9 -2.2,-3.5 m -5,1.2 -0.2,0.2 h -0.7 l -0.4,-0.1 -0.6,-0.3 -0.6,-1 -0.1,-0.7 0.1,-0.4 0.3,-0.6 0.5,-0.3 0.7,-0.1 1.1,0.1 4.1,0.8 -2.3,-3.5 m -93.2,112.5 0.4,-0.5 0.6,-1.2 2.1,6 m 0.6,-7.1 -0.8,0.5 -0.2,1.1 0.2,1.5 0.3,0.9 0.8,1.3 0.8,0.6 h 1 l 0.6,-0.2 0.7,-0.6 0.3,-1 -0.3,-1.5 -0.3,-0.9 -0.7,-1.3 -0.9,-0.7 -1,0.1 -0.4,0.1 m 4.9,-1.7 -0.7,0.6 -0.3,1 0.2,1.5 0.3,0.9 0.8,1.3 0.9,0.6 h 0.9 l 0.6,-0.2 0.7,-0.6 0.3,-1 -0.2,-1.5 -0.3,-0.9 -0.8,-1.3 -0.9,-0.6 H 304 l -0.4,0.1 m -98.8,28.2 -0.5,-0.9 v -0.8 l 0.4,-0.9 0.2,-0.2 0.9,-0.5 h 0.8 l 0.9,0.4 0.2,0.2 0.4,0.9 0.1,0.8 -0.4,0.9 -0.3,0.2 -0.8,0.4 -0.8,0.1 -1.1,-0.6 -1.1,-1.1 -0.9,-1.2 -0.2,-1.1 0.4,-0.9 0.4,-0.4 0.8,-0.4 0.7,0.2 m -2.2,10.1 -2.5,-6.6 m 5.4,3.5 -2.9,3.1 m -4.9,-46.3 -0.8,0.5 h -0.8 l -0.9,-0.3 -0.2,-0.2 -0.5,-0.9 -0.1,-0.8 0.4,-0.9 0.2,-0.2 0.8,-0.5 0.8,-0.1 0.9,0.4 0.3,0.2 0.4,0.8 0.1,0.9 -0.6,1.1 -0.9,1.1 -1.2,0.9 -1.1,0.3 -0.9,-0.3 -0.4,-0.4 -0.5,-0.8 0.2,-0.7 m 8.2,0 -0.9,-0.4 -0.6,0.3 -0.4,0.5 -0.1,0.6 0.2,0.6 0.7,1 0.5,0.9 0.1,0.8 -0.2,0.6 -0.6,0.7 -0.6,0.3 h -0.4 l -0.9,-0.3 -0.9,-0.8 -0.5,-0.8 v -0.5 l 0.2,-0.6 0.6,-0.7 0.6,-0.3 h 0.8 l 0.9,0.3 1.1,0.6 0.7,0.2 0.6,-0.3 0.4,-0.5 0.1,-0.6 -0.5,-0.8 -1,-0.9 m 42.4,-66.5 h -0.7 l -1.2,0.3 2.9,-5.6 m -3.3,4.1 h -0.7 l -1.2,0.3 2.9,-5.5 m -3.3,4 h -0.7 l -1.2,0.4 3,-5.6 m -34.5,-11.5 -0.7,0.1 -1,0.7 1.3,-6.1 m -4.3,5.7 1,-0.1 0.8,-0.8 0.6,-1.4 0.2,-0.8 V 187 l -0.4,-1 -0.8,-0.5 -0.6,-0.1 -0.9,0.1 -0.8,0.8 -0.6,1.4 -0.2,0.8 -0.1,1.6 0.4,1 0.9,0.5 0.4,0.1 m -6.7,-3.7 0.5,-0.8 0.7,-0.4 1,-0.1 h 0.3 l 0.8,0.5 0.4,0.7 0.1,1 v 0.3 l -0.5,0.8 -0.7,0.4 -1,0.1 h -0.3 l -0.8,-0.5 -0.4,-0.7 -0.1,-1.3 0.3,-1.4 0.7,-1.4 0.7,-0.8 1,-0.1 0.6,0.1 0.8,0.5 0.1,0.7 m -26.5,-15.1 -0.7,-0.2 -1.2,-0.1 4.6,-4.2 m -6.8,2.2 0.8,0.5 1.1,-0.2 1.3,-0.8 0.7,-0.6 0.9,-1.2 0.2,-1.1 -0.4,-0.9 -0.4,-0.4 -0.8,-0.5 -1.1,0.2 -1.3,0.8 -0.7,0.6 -0.8,1.3 -0.3,1 0.4,0.9 0.3,0.3 m -4.8,-5.1 2.1,2.2 2.2,-1.6 h -0.5 l -0.8,-0.5 -0.6,-0.6 -0.4,-0.9 v -0.9 l 0.5,-0.8 0.4,-0.4 0.9,-0.4 h 0.8 l 0.9,0.5 0.6,0.7 0.4,0.8 v 0.4 l -0.3,0.7 m -13,80.7 0.7,0.1 1.2,-0.2 -3.7,5.1 m 6.2,-3.5 -0.9,-0.3 -1,0.4 -1.1,1 -0.5,0.7 -0.7,1.4 v 1.1 l 0.5,0.8 0.5,0.3 0.9,0.3 1,-0.4 1.1,-1 0.6,-0.7 0.6,-1.4 0.1,-1.1 -0.6,-0.8 -0.3,-0.2 m 2.2,3.5 0.2,-0.3 0.6,-0.3 h 0.4 l 0.7,0.1 0.9,0.7 0.4,0.6 v 0.4 l -0.1,0.7 -0.4,0.5 -0.5,0.3 -1.1,0.3 -4.2,0.7 3.4,2.5 m -26.7,-122.7 -0.7,-0.3 -1.2,-0.1 4.7,-4.1 m -6.8,2 0.8,0.5 1.1,-0.1 1.3,-0.8 0.7,-0.5 0.9,-1.3 0.3,-1 -0.3,-0.9 -0.4,-0.4 -0.9,-0.5 -1,0.1 -1.4,0.8 -0.6,0.6 -1,1.2 -0.3,1 0.4,0.9 0.3,0.3 m -2.6,-3 -2.2,-2.5 3,-0.2 -0.6,-0.7 -0.1,-0.6 v -0.4 l 0.5,-0.9 0.4,-0.3 0.9,-0.4 0.9,0.1 0.8,0.4 0.6,0.7 0.3,0.9 v 0.4 l -0.3,0.6 m -21.6,121.1 0.1,0.9 -0.3,0.8 -0.7,0.7 -0.3,0.1 -1,0.1 -0.7,-0.4 -0.7,-0.7 -0.1,-0.3 -0.1,-0.9 0.4,-0.8 0.7,-0.6 0.2,-0.1 1,-0.1 0.8,0.3 0.7,1 0.6,1.4 0.3,1.5 -0.2,1 -0.7,0.7 -0.5,0.2 -1,0.1 -0.5,-0.5 m 3.9,-7.5 -0.7,0.6 -0.2,1.1 0.3,1.5 0.4,0.8 0.8,1.3 0.9,0.6 1,-0.1 0.5,-0.2 0.7,-0.6 0.2,-1.1 -0.3,-1.5 -0.3,-0.8 -0.9,-1.3 -0.9,-0.6 -0.9,0.1 -0.4,0.2 m -25.2,-27.5 -0.9,-0.1 -0.7,-0.5 -0.5,-0.8 -0.1,-0.3 0.1,-0.9 0.5,-0.8 0.8,-0.4 0.3,-0.1 1,0.1 0.7,0.5 0.5,0.8 v 0.3 l -0.1,1 -0.5,0.7 -1.1,0.5 -1.5,0.3 h -1.5 l -1,-0.4 -0.5,-0.8 -0.1,-0.6 0.1,-1 0.6,-0.4 m 6,7.3 0.5,-0.4 0.2,-0.9 -0.2,-0.6 -0.4,-0.8 -1,-0.5 h -1.6 l -1.4,0.3 -1.1,0.6 -0.5,0.7 -0.1,0.9 v 0.3 l 0.5,0.8 0.7,0.5 0.9,0.1 H 88 l 0.9,-0.5 0.4,-0.7 0.1,-1 v -0.3 l -0.5,-0.8 -0.7,-0.4 -0.9,-0.2 M 63.1,54.9 v 0.3 l -0.3,0.6 -0.3,0.3 -0.6,0.2 H 60.7 L 60.1,56 59.8,55.7 59.5,55.1 V 54.5 L 59.8,53.9 60.5,53 63.6,50.1 59.4,50 m -2.3,56.3 -0.9,0.1 -0.8,-0.4 -0.6,-0.7 -0.1,-0.3 v -1 l 0.4,-0.7 0.7,-0.6 0.3,-0.1 0.9,-0.1 0.8,0.4 0.6,0.7 0.1,0.3 v 1 l -0.3,0.7 -1.1,0.7 -1.4,0.5 -1.5,0.3 -1,-0.3 -0.6,-0.7 -0.2,-0.6 -0.1,-0.9 0.5,-0.5 m 7.9,6 -1,-2.9 -2.6,0.7 0.4,0.2 0.5,0.7 0.3,0.9 0.1,0.9 -0.4,0.8 -0.7,0.6 -0.6,0.2 h -0.9 l -0.8,-0.4 -0.6,-0.7 -0.3,-0.9 v -0.9 l 0.1,-0.4 0.5,-0.5 m 70.9,-54.5 -0.6,0.3 -0.9,1 -0.4,-6.3 m -2.5,6.7 0.9,-0.4 0.5,-0.9 0.2,-1.6 v -0.9 l -0.4,-1.4 -0.7,-0.9 -0.9,-0.2 h -0.6 l -0.9,0.4 -0.5,0.9 -0.2,1.5 V 53 l 0.4,1.5 0.7,0.9 0.9,0.2 h 0.5 m -6.6,0.5 2.8,-4.4 -4.5,0.3 m 1.7,4.1 -0.4,-6.3 m 195.9,96.4 -0.6,0.3 -0.8,1 -0.4,-6.3 m -0.8,5.2 -0.6,0.3 -0.8,0.9 -0.4,-6.2 m -4.3,6.8 3,-0.2 0.1,-2.7 -0.3,0.3 -0.9,0.3 -0.9,0.1 -0.9,-0.3 -0.6,-0.5 -0.4,-0.9 v -0.6 l 0.2,-0.9 0.6,-0.7 0.9,-0.3 0.9,-0.1 0.9,0.3 0.3,0.3 0.4,0.5 m -54.2,44.4 0.7,0.2 h 1.2 l -4.2,4.6 m 4.2,-3 0.7,0.1 h 1.2 l -4.2,4.6 m 4.2,-3 0.7,0.2 1.2,-0.1 -4.2,4.7 m 15.7,-54 -0.7,-0.1 -1.2,0.3 3.3,-5.3 m -3.6,3.7 h -0.7 l -1.2,0.3 3.3,-5.4 m -4,3.4 -0.2,0.2 -0.6,0.4 -0.4,0.1 -0.6,-0.1 -1.1,-0.6 -0.3,-0.6 -0.1,-0.4 0.1,-0.7 0.3,-0.5 0.5,-0.3 1,-0.5 4.2,-0.9 -3.6,-2.3 m -55.6,27.4 0.6,-0.1 1.1,-0.7 -1.4,6.1 m 4.3,-5.7 -0.9,0.1 -0.8,0.8 -0.6,1.4 -0.2,0.8 -0.1,1.6 0.4,1 0.8,0.5 0.6,0.1 1,-0.1 0.8,-0.7 0.6,-1.4 0.2,-0.9 v -1.6 l -0.4,-1 -0.8,-0.5 -0.4,-0.1 m 6.6,3.7 -0.5,0.8 -0.7,0.5 -0.9,0.1 -0.3,-0.1 -0.8,-0.5 -0.5,-0.7 -0.1,-1 0.1,-0.3 0.5,-0.8 0.7,-0.4 0.9,-0.1 0.3,0.1 0.8,0.4 0.5,0.8 v 1.2 l -0.3,1.5 -0.6,1.4 -0.8,0.7 -0.9,0.1 -0.6,-0.1 -0.8,-0.5 -0.2,-0.7 m -18.2,-44.5 -0.5,0.5 -0.6,1.1 -1.6,-6.1 m -1.2,7 0.8,-0.5 0.3,-1 -0.1,-1.6 -0.2,-0.8 -0.7,-1.4 -0.8,-0.7 -0.9,-0.1 -0.6,0.2 -0.8,0.5 -0.4,1 0.1,1.6 0.3,0.8 0.6,1.4 0.8,0.7 1,0.1 0.4,-0.1 m -7,0.9 0.5,0.5 h 0.9 l 0.6,-0.1 0.8,-0.5 0.3,-1.1 -0.1,-1.5 -0.3,-1.4 -0.6,-1.1 -0.8,-0.4 -0.9,-0.1 -0.3,0.1 -0.8,0.5 -0.4,0.7 -0.1,1 0.1,0.3 0.5,0.8 0.7,0.4 h 1 0.3 l 0.8,-0.6 0.4,-0.7 0.1,-0.9 m 1.5,13.4 0.6,0.3 1.2,0.3 -5.2,3.4 m 7,-1.1 -0.7,-0.6 h -1.1 l -1.4,0.6 -0.8,0.5 -1,1.1 -0.5,1 0.3,0.9 0.3,0.5 0.8,0.6 h 1.1 l 1.4,-0.6 0.7,-0.5 1.1,-1.1 0.4,-1 -0.2,-0.9 -0.3,-0.4 m 3.9,5.8 -1.7,-2.5 -2.4,1.3 0.4,0.1 0.8,0.5 0.5,0.8 0.2,0.9 -0.1,0.8 -0.6,0.8 -0.5,0.3 -0.9,0.3 -0.9,-0.2 -0.7,-0.6 -0.5,-0.7 -0.3,-0.9 0.1,-0.5 0.3,-0.5 m 33,-56.7 v 0.7 l 0.5,1.2 -5.8,-2.7 m 4.7,5.4 0.1,-0.9 -0.5,-0.9 -1.3,-0.9 -0.8,-0.4 -1.5,-0.4 -1.1,0.2 -0.6,0.7 -0.3,0.6 -0.1,0.9 0.6,0.9 1.2,0.9 0.9,0.4 1.5,0.4 1,-0.2 0.7,-0.7 0.2,-0.4 m -3.2,6.7 -4.4,-5.3 m 6.2,1.5 -1.8,3.8 m 44.5,20.1 0.6,-0.3 0.8,-1 0.3,6.3 m 0.8,-5.1 0.6,-0.4 0.9,-0.9 0.3,6.3 m 1.4,-5.1 v -0.3 l 0.3,-0.6 0.2,-0.3 0.6,-0.4 h 1.2 l 0.6,0.2 0.4,0.3 0.3,0.6 v 0.6 l -0.3,0.6 -0.5,0.9 -2.9,3.2 4.2,-0.2 m -33,-71.4 v 0.7 l 0.3,1.2 -5.5,-2.9 m 4,3.3 v 0.7 l 0.4,1.2 -5.6,-2.9 m 3.8,6.8 -2.3,-4.6 -2.1,4 m 4.4,0.6 -5.6,-2.9 m 33.8,0.4 -0.1,0.3 -0.5,0.5 -0.4,0.1 -0.6,0.1 -1.2,-0.5 -0.4,-0.5 -0.2,-0.4 v -0.6 l 0.2,-0.6 0.5,-0.4 0.9,-0.6 3.9,-1.7 -3.9,-1.6 m -6.3,2.1 0.6,-0.8 0.8,-0.3 1,0.1 0.2,0.1 0.8,0.6 0.3,0.8 -0.1,0.9 -0.1,0.3 -0.6,0.7 -0.8,0.3 H 259 l -0.3,-0.1 -0.7,-0.6 -0.3,-0.8 0.1,-1.2 0.6,-1.4 0.8,-1.3 0.9,-0.6 h 0.9 l 0.6,0.3 0.7,0.6 0.1,0.6 m 52.6,21.1 -3.2,-0.6 2.2,-2 -0.8,-0.2 -0.6,-0.4 -0.2,-0.4 -0.1,-0.9 0.1,-0.6 0.5,-0.8 0.7,-0.5 0.9,-0.1 0.9,0.2 0.8,0.5 0.3,0.3 0.1,0.7 m -9.7,3.2 2.9,0.6 0.8,-2.6 -0.3,0.2 -1,0.1 -0.8,-0.1 -0.9,-0.5 -0.4,-0.7 -0.1,-1 0.1,-0.5 0.4,-0.9 0.8,-0.4 0.9,-0.2 0.9,0.2 0.8,0.5 0.2,0.3 0.2,0.7 m -9.8,46.1 0.6,-0.5 0.6,-1.1 1.6,6.1 m -0.3,-5.2 0.5,-0.4 0.7,-1.1 1.6,6.1 m 2.9,-7.5 -2.9,0.7 0.4,2.7 0.2,-0.4 0.8,-0.5 0.9,-0.2 0.9,0.1 0.8,0.4 0.5,0.8 0.1,0.6 v 0.9 l -0.5,0.7 -0.8,0.6 -0.8,0.2 -1,-0.1 -0.3,-0.2 -0.5,-0.5 m 36.5,-19.1 -1.8,-2.7 3,0.2 -0.5,-0.8 -0.1,-0.7 0.1,-0.4 0.6,-0.7 0.5,-0.4 0.9,-0.2 0.8,0.2 0.8,0.5 0.5,0.8 0.2,0.9 -0.1,0.4 -0.3,0.6 m -8.4,-5.1 -0.4,0.6 0.3,0.9 0.3,0.5 0.8,0.6 h 1 l 1.4,-0.6 1.3,-0.8 0.8,-1 0.2,-0.8 -0.3,-0.9 -0.1,-0.3 -0.8,-0.5 -0.8,-0.2 -0.9,0.2 -0.3,0.2 -0.6,0.8 -0.1,0.8 0.2,0.9 0.2,0.3 0.7,0.5 0.9,0.2 0.9,-0.2 m -4.7,13.7 0.5,-0.4 0.8,-1 1.1,6.2 m 0.1,-5.2 0.6,-0.4 0.7,-1 1.1,6.2 m 1.8,-7 -0.9,0.5 -0.4,1 v 1.5 l 0.1,0.9 0.6,1.4 0.7,0.8 1,0.1 0.5,-0.1 0.9,-0.4 0.4,-1 v -1.5 l -0.1,-0.9 -0.6,-1.5 -0.7,-0.7 -1,-0.2 -0.4,0.1 m -125.2,274.2 0.6,0.4 1.2,0.3 -5.5,3 m 6.5,-1.6 1.6,2.9 -3,-0.4 0.5,0.8 v 0.7 l -0.1,0.4 -0.7,0.7 -0.5,0.3 -0.9,0.1 -0.8,-0.2 -0.7,-0.7 -0.5,-0.7 -0.1,-1 0.1,-0.4 0.4,-0.5 m 8,5.8 0.3,-0.6 -0.1,-0.9 -0.3,-0.5 -0.7,-0.7 -1.1,-0.1 -1.5,0.5 -1.3,0.7 -0.9,0.9 -0.2,0.8 0.2,0.9 0.1,0.3 0.7,0.6 0.8,0.3 0.9,-0.2 0.3,-0.2 0.7,-0.6 0.2,-0.9 -0.2,-0.9 -0.1,-0.3 -0.7,-0.6 -0.8,-0.2 -1,0.1 m 9.9,15.7 0.4,0.5 1,0.7 -6.1,1.3 m 6.7,0.4 0.7,3.2 -2.7,-1.3 0.1,0.9 -0.1,0.7 -0.3,0.3 -0.8,0.5 -0.6,0.1 -0.9,-0.1 -0.7,-0.4 -0.5,-0.9 -0.2,-0.8 0.1,-1 0.3,-0.3 0.5,-0.5 m 6.8,7.8 -0.6,-3 -2.7,0.3 0.3,0.2 0.5,0.8 0.2,0.9 -0.1,0.9 -0.5,0.8 -0.8,0.4 -0.6,0.2 -0.9,-0.2 -0.7,-0.4 -0.5,-0.8 -0.2,-0.9 0.1,-1 0.2,-0.3 0.6,-0.4 m 7,-1.7 0.4,-0.6 0.3,-1.2 3,5.6 m -0.9,-5.2 -0.1,-0.3 -0.1,-0.7 0.2,-0.4 0.4,-0.5 1,-0.6 h 0.7 l 0.4,0.1 0.5,0.4 0.3,0.6 v 0.6 l -0.1,1.1 -1.2,4.1 3.7,-2 m 1.7,-7 -0.6,-0.4 -0.9,0.2 -0.6,0.2 -0.6,0.7 -0.1,1.1 0.4,1.5 0.7,1.3 0.9,0.9 0.8,0.3 0.9,-0.2 0.3,-0.1 0.6,-0.7 0.3,-0.8 -0.2,-1 -0.1,-0.2 -0.7,-0.7 -0.8,-0.2 -1,0.1 -0.2,0.2 -0.7,0.6 -0.2,0.9 0.1,0.9 m 139,43 -0.4,-0.5 -1.1,-0.7 6.1,-1.4 m -5.2,-0.5 -0.3,0.1 -0.7,-0.2 -0.3,-0.2 -0.5,-0.5 -0.2,-1.2 0.1,-0.6 0.3,-0.4 0.5,-0.4 0.6,-0.2 0.6,0.2 1,0.4 3.6,2.2 -0.9,-4.1 m -7.4,-3.6 6.9,1.5 m -5.9,2.6 -1,-4.1 m 19.9,71.9 5,1.2 -1.7,-4.2 m -3.3,3 5.8,-2.4 m -7,-0.7 -1.2,-3 2.9,0.8 -0.3,-0.9 v -0.6 l 0.2,-0.4 0.7,-0.7 0.6,-0.2 h 0.9 l 0.8,0.3 0.6,0.7 0.4,0.9 v 0.9 l -0.2,0.4 -0.4,0.5 m 6.5,64.2 4.5,2.5 -0.5,-4.5 m -4,2 6.3,-0.8 m -5.1,-2.5 h -0.3 l -0.6,-0.2 -0.4,-0.3 -0.3,-0.6 -0.2,-1.2 0.3,-0.6 0.2,-0.3 0.6,-0.4 0.6,-0.1 0.6,0.3 1,0.5 3.3,2.6 -0.5,-4.2 m -23.9,27 3,1.4 -2.7,1.4 0.8,0.4 0.5,0.5 0.1,0.4 -0.1,0.9 -0.3,0.6 -0.6,0.7 -0.8,0.3 -1,-0.2 -0.8,-0.3 -0.7,-0.7 -0.1,-0.4 v -0.7 m 8.3,-1.7 -0.9,-0.1 -0.5,0.4 -0.3,0.6 v 0.7 l 0.4,0.5 1,0.8 0.7,0.6 0.3,0.8 v 0.7 l -0.4,0.8 -0.5,0.4 -0.4,0.2 -1,-0.1 -1.1,-0.6 -0.6,-0.6 -0.2,-0.4 v -0.7 l 0.4,-0.8 0.5,-0.4 0.8,-0.3 1,0.1 1.2,0.3 0.6,-0.1 0.6,-0.4 0.2,-0.5 v -0.7 l -0.7,-0.6 -1.2,-0.6 m -45.8,-32 0.6,0.3 1.2,0.1 -5,3.8 m 4.7,-2.2 0.6,0.3 1.3,0.2 -5,3.8 m 7.3,0.4 0.3,-0.6 -0.3,-0.9 -0.3,-0.5 -0.8,-0.6 -1.1,0.1 -1.4,0.7 -1.2,0.9 -0.8,1 -0.1,0.8 0.3,0.9 0.2,0.2 0.8,0.6 0.8,0.1 0.9,-0.3 0.3,-0.2 0.5,-0.8 0.1,-0.8 -0.3,-0.9 -0.2,-0.3 -0.7,-0.5 -0.9,-0.1 -0.9,0.3 m -23.7,-51.6 -0.7,0.1 -1.1,0.5 2.2,-5.9 m -2.8,4.4 -0.7,0.1 -1.1,0.5 2.2,-5.9 m -7.2,4.3 5,-4.8 m -1,6.3 -4,-1.5 m -22.3,-3.6 -0.2,0.6 0.1,1.3 -4.7,-4.2 m 3,4.2 -0.1,0.6 v 1.3 l -4.6,-4.2 m -0.2,6.7 -0.4,-0.8 -0.1,-0.9 0.4,-0.8 0.2,-0.3 0.8,-0.4 0.9,-0.1 0.9,0.4 0.2,0.2 0.4,0.8 0.1,0.9 -0.4,0.8 -0.2,0.3 -0.8,0.4 -0.9,0.1 -1.1,-0.6 -1.1,-1 -0.9,-1.2 -0.2,-1.1 0.3,-0.9 0.4,-0.4 0.9,-0.5 0.6,0.2 m 34.8,-45.5 v 0.7 l 0.3,1.2 -5.4,-3.2 m 3.4,4 0.3,0.1 0.3,0.6 0.1,0.4 v 0.7 l -0.6,1 -0.6,0.4 -0.4,0.1 -0.7,-0.1 -0.5,-0.3 -0.3,-0.6 -0.5,-0.9 -1,-4.2 -2.2,3.6 m 4.5,4.8 -1.7,2.8 -1.1,-2.8 -0.5,0.8 -0.5,0.4 -0.5,0.1 -0.9,-0.2 -0.5,-0.4 -0.6,-0.7 -0.2,-0.8 0.2,-0.9 0.5,-0.8 0.7,-0.6 0.4,-0.1 h 0.7 m 11.8,21 0.7,0.1 1.2,-0.2 -3.7,5.1 m 3.9,-3.5 0.7,0.1 1.2,-0.2 -3.7,5.1 m 8.1,-2.2 -6.2,3.3 m 2.8,-5.8 3.4,2.5 m -54.6,30.9 0.1,0.6 0.7,1.1 -6.1,-1.5 m 4.5,2.8 0.2,0.1 0.6,0.4 0.2,0.4 0.1,0.7 -0.3,1.1 -0.4,0.5 -0.4,0.3 -0.6,0.1 -0.6,-0.1 -0.5,-0.5 -0.7,-0.8 -2.2,-3.6 -1,4.1 m 2.9,5.9 -0.8,-0.5 -0.5,-0.7 -0.1,-1 0.1,-0.3 0.5,-0.8 0.7,-0.4 1,-0.1 0.3,0.1 0.8,0.5 0.4,0.7 0.1,1 -0.1,0.2 -0.5,0.8 -0.7,0.5 h -1.2 l -1.5,-0.4 -1.4,-0.6 -0.7,-0.8 -0.1,-0.9 0.1,-0.6 0.5,-0.8 0.7,-0.2 m 32.2,22.6 0.5,-0.5 0.5,-1.2 2.3,5.9 m -0.9,-5.2 0.4,-0.5 0.5,-1.2 2.4,5.9 m 0,-7 -0.7,0.6 -0.1,0.6 0.3,0.6 0.5,0.4 0.6,0.1 1.3,-0.2 h 0.9 l 0.8,0.3 0.5,0.4 0.3,0.9 v 0.6 l -0.2,0.4 -0.7,0.6 -1.1,0.5 h -1 l -0.4,-0.1 -0.5,-0.5 -0.3,-0.8 v -0.7 l 0.4,-0.7 0.7,-0.7 1,-0.7 0.4,-0.5 0.1,-0.7 -0.2,-0.5 -0.5,-0.5 -1,0.1 -1.2,0.5 m 9.1,20.3 -0.6,0.3 -0.8,1 -0.6,-6.3 m -0.6,5.2 -0.5,0.4 -0.8,1 -0.7,-6.3 m -2,6.8 0.9,-0.4 0.2,-0.7 v -0.6 l -0.4,-0.5 -0.6,-0.3 -1.2,-0.1 -1,-0.2 -0.6,-0.6 -0.4,-0.5 -0.1,-0.9 0.3,-0.7 0.2,-0.3 0.9,-0.4 1.2,-0.1 0.9,0.2 0.4,0.3 0.3,0.5 0.1,0.9 -0.2,0.7 -0.6,0.6 -0.8,0.4 -1.2,0.4 -0.6,0.4 -0.2,0.6 0.1,0.6 0.3,0.6 1,0.2 1.3,-0.2 m 0.5,44.8 0.5,0.5 1.2,0.4 -5.8,2.5 m 5.2,-0.4 0.3,-0.1 h 0.7 l 0.4,0.2 0.5,0.4 0.4,1.1 v 0.7 l -0.2,0.4 -0.4,0.5 -0.6,0.2 h -0.6 l -1.1,-0.2 -3.9,-1.7 1.6,3.9 m 7,0.3 -0.7,-0.7 -1,-0.2 -1.5,0.3 -0.9,0.3 -1.2,0.9 -0.6,0.9 v 0.9 l 0.3,0.6 0.6,0.7 1.1,0.2 1.5,-0.3 0.8,-0.3 1.3,-0.9 0.6,-0.9 -0.1,-0.9 -0.2,-0.4 m 9,-11.9 1.1,5 3,-3.3 m -4.1,-1.7 4.6,4.2 m -0.7,-8.5 1.1,5 3,-3.3 m -4.1,-1.7 4.7,4.2 m 5.6,-27.3 -0.6,-0.3 -1.2,-0.3 5.3,-3.3 m -4.9,1.7 -0.5,-0.3 -1.3,-0.3 5.4,-3.3 m -7.3,-1.1 -0.3,0.6 0.2,0.9 0.3,0.5 0.7,0.6 h 1.1 l 1.5,-0.5 1.2,-0.8 0.9,-0.8 0.2,-0.9 -0.2,-0.9 -0.2,-0.3 -0.7,-0.6 -0.8,-0.2 -0.9,0.2 -0.3,0.2 -0.6,0.7 -0.2,0.9 0.2,0.9 0.2,0.2 0.7,0.6 0.8,0.2 0.9,-0.2 m -64.9,31.9 0.5,-0.5 0.6,-1.1 1.7,6.1 m 0.3,-5.3 -0.1,-0.3 0.1,-0.6 0.2,-0.4 0.5,-0.4 1.2,-0.3 0.7,0.1 0.3,0.2 0.5,0.5 0.1,0.6 -0.1,0.6 -0.3,1.1 -2.2,3.6 4.1,-1.1 m -0.2,-5 0.5,-0.4 0.6,-1.1 1.6,6.1 m -25.2,-17.1 0.5,0.4 1.2,0.5 -5.7,2.6 m 5.2,-0.6 0.3,-0.1 h 0.7 l 0.4,0.2 0.5,0.4 0.5,1.1 v 0.7 l -0.2,0.4 -0.4,0.5 -0.5,0.2 h -0.7 l -1.1,-0.2 -4,-1.4 1.8,3.8 m 7.7,1.7 -1.3,-2.8 -2.5,0.9 0.4,0.1 0.6,0.7 0.4,0.8 0.1,1 -0.3,0.8 -0.7,0.6 -0.6,0.3 -0.9,0.1 -0.8,-0.3 -0.6,-0.7 -0.4,-0.8 -0.1,-1 0.1,-0.4 0.5,-0.5 m 44.5,-277.7 -0.6,0.3 -0.9,0.9 v -6.3 m -3,6.5 0.9,-0.3 0.6,-0.9 0.3,-1.5 0.1,-0.9 -0.3,-1.5 -0.6,-0.9 -0.9,-0.3 h -0.6 l -0.9,0.2 -0.6,0.9 -0.3,1.5 -0.1,0.9 0.3,1.5 0.6,0.9 0.9,0.4 h 0.5 m -5.2,-0.1 0.9,-0.3 0.6,-0.9 0.3,-1.5 v -0.9 l -0.3,-1.5 -0.6,-0.9 -0.9,-0.3 h -0.6 l -0.9,0.3 -0.6,0.9 -0.3,1.5 v 0.9 l 0.3,1.5 0.6,0.9 0.9,0.3 h 0.4 m 108.5,47 -0.8,0.4 -0.2,0.7 0.1,0.5 0.4,0.6 0.7,0.2 h 1.2 l 0.9,0.2 0.7,0.5 0.4,0.5 0.2,0.9 -0.2,0.6 -0.2,0.4 -0.8,0.4 -1.2,0.3 -1,-0.2 -0.3,-0.2 -0.4,-0.6 -0.2,-0.8 0.2,-0.7 0.5,-0.7 0.8,-0.4 1.1,-0.6 0.6,-0.4 0.2,-0.6 -0.1,-0.6 -0.4,-0.5 -1,-0.2 -1.3,0.3 m 7.4,-1.4 -2.9,0.6 0.2,2.7 0.2,-0.4 0.9,-0.4 0.8,-0.2 1,0.1 0.7,0.5 0.4,0.8 0.1,0.6 -0.1,1 -0.5,0.7 -0.8,0.4 -0.9,0.2 -0.9,-0.1 -0.4,-0.3 -0.4,-0.5 m -8.9,-83.3 -0.3,0.6 v 1.3 l -4.3,-4.7 m 2.2,6.8 0.5,-0.8 -0.2,-1.1 -0.8,-1.3 -0.6,-0.7 -1.2,-0.9 -1,-0.2 -0.9,0.3 -0.5,0.4 -0.4,0.9 0.1,1 0.8,1.3 0.6,0.7 1.2,0.9 1.1,0.3 0.9,-0.4 0.3,-0.3 m -3.4,1.2 -0.3,0.6 v 1.3 l -4.2,-4.7 m 56.5,-3.6 1,0.1 0.9,-0.5 1,-1.1 0.4,-0.8 0.5,-1.5 -0.1,-1.1 -0.6,-0.7 -0.6,-0.3 -0.9,-0.1 -1,0.5 -0.9,1.1 -0.5,0.8 -0.4,1.5 0.1,1.1 0.6,0.7 0.4,0.2 m 11,43.3 v -0.7 l -0.5,-1.2 5.7,2.7 m -317.4,58.8 -0.2,-0.9 -0.5,-0.4 -0.6,-0.1 -0.7,0.2 -0.3,0.5 -0.5,1.2 -0.5,0.8 -0.7,0.5 -0.6,0.2 -0.9,-0.1 -0.5,-0.4 -0.3,-0.4 -0.1,-0.9 0.2,-1.2 0.4,-0.8 0.3,-0.3 0.7,-0.2 0.9,0.2 0.5,0.3 0.5,0.7 0.2,1 0.1,1.2 0.2,0.6 0.5,0.4 0.6,0.1 0.6,-0.2 0.5,-0.8 0.2,-1.4 m -3.3,7.5 -0.9,-0.4 -0.5,-0.7 -0.1,-0.9 v -0.3 l 0.5,-0.9 0.7,-0.5 0.9,-0.1 h 0.3 l 0.8,0.5 0.5,0.6 0.2,1 -0.1,0.3 -0.4,0.8 -0.7,0.5 -1.2,0.1 -1.5,-0.2 -1.4,-0.6 -0.8,-0.7 -0.2,-0.9 0.1,-0.6 0.4,-0.9 0.7,-0.2 m 36.4,36.4 0.3,-0.6 0.1,-1.3 3.9,5 m -1.8,-5 -0.2,-0.2 -0.1,-0.7 v -0.4 l 0.3,-0.6 1,-0.8 0.6,-0.1 0.4,0.1 0.7,0.2 0.3,0.5 0.2,0.7 v 1 l -0.5,4.3 3.3,-2.6 m -0.5,-7.7 0.2,5.2 3.6,-2.8 m -3.8,-2.4 3.9,5 m -78.8,31.5 -0.5,-0.8 -0.1,-0.8 0.3,-0.9 0.2,-0.2 0.8,-0.5 0.9,-0.1 0.9,0.3 0.2,0.2 0.5,0.8 0.1,0.9 -0.4,0.9 -0.2,0.2 -0.8,0.5 -0.8,0.1 -1.1,-0.6 -1.2,-0.9 -0.9,-1.2 -0.3,-1.1 0.3,-0.9 0.4,-0.4 0.8,-0.5 0.6,0.1 m -1.9,9.3 0.7,0.2 0.8,-0.5 0.4,-0.5 0.3,-0.8 -0.3,-1.1 -0.9,-1.2 -1.2,-0.9 -1.1,-0.6 -0.8,0.1 -0.9,0.5 -0.1,0.2 -0.4,0.9 0.1,0.8 0.5,0.9 0.2,0.1 0.9,0.4 0.8,-0.1 0.8,-0.5 0.2,-0.2 0.4,-0.9 -0.1,-0.8 -0.5,-0.8 m 10.3,152.4 0.6,-0.3 0.9,-0.9 0.2,6.3 m 1.5,-6.6 3.3,-0.2 -1.7,2.5 h 0.9 l 0.6,0.3 0.3,0.2 0.4,0.9 v 0.6 l -0.3,0.9 -0.5,0.7 -0.9,0.3 h -0.9 l -0.9,-0.2 -0.4,-0.3 -0.3,-0.6 m 5.1,-3.9 0.6,-0.3 0.9,-1 0.2,6.3 m 5.6,-38.1 -0.6,-0.2 -1.3,-0.1 4.8,-4.1 m -4.9,2 -0.2,0.2 -0.7,0.1 h -0.4 l -0.6,-0.3 -0.8,-0.9 -0.1,-0.7 v -0.4 l 0.3,-0.6 0.4,-0.4 0.7,-0.1 1.1,-0.2 4.2,0.4 -2.7,-3.2 m -6.5,2 0.8,0.5 0.6,-0.1 0.5,-0.4 0.2,-0.6 -0.1,-0.7 -0.6,-1.1 -0.3,-0.9 0.1,-0.8 0.2,-0.6 0.7,-0.6 0.7,-0.2 0.4,0.1 0.8,0.4 0.8,1 0.3,0.8 v 0.5 l -0.3,0.6 -0.7,0.6 -0.6,0.1 h -0.9 l -0.8,-0.5 -1,-0.8 -0.6,-0.2 -0.6,0.1 -0.5,0.4 -0.3,0.6 0.4,0.9 0.9,1 m 39.1,-92.9 -0.6,-0.4 -1.2,-0.3 5.5,-3.1 m -6.5,1.7 -1.7,-2.9 3,0.4 -0.4,-0.8 -0.1,-0.7 0.2,-0.4 0.6,-0.7 0.5,-0.3 0.9,-0.1 0.9,0.2 0.7,0.6 0.4,0.8 0.2,0.9 -0.1,0.4 -0.4,0.6 m -8.7,-4.9 5.2,0.6 -2.3,-3.9 m -2.9,3.3 5.5,-3 m -28,82.3 0.6,-0.3 0.9,-0.9 0.1,6.3 m 1.6,-6.6 h 3.3 l -1.8,2.4 h 0.9 l 0.6,0.3 0.3,0.3 0.4,0.9 v 0.6 l -0.3,0.9 -0.6,0.6 -0.9,0.3 h -0.9 l -0.9,-0.3 -0.3,-0.3 -0.3,-0.6 m 5.8,-3.7 v -0.3 l 0.3,-0.6 0.3,-0.3 0.6,-0.3 h 1.2 l 0.6,0.3 0.3,0.3 0.3,0.6 v 0.6 l -0.3,0.6 -0.6,0.9 -3,3 h 4.2 m 24.6,-40.3 -0.3,-0.6 -1,-0.8 6.2,-0.7 m -6.7,-1 -0.3,-3.2 2.6,1.5 -0.1,-0.9 0.2,-0.6 0.3,-0.4 0.8,-0.4 h 0.6 l 0.9,0.2 0.7,0.5 0.4,0.8 0.1,0.9 -0.2,1 -0.3,0.3 -0.5,0.4 m -5.8,-5.4 -0.3,-3.2 2.6,1.5 -0.1,-0.9 0.2,-0.6 0.3,-0.4 0.8,-0.4 h 0.6 l 0.9,0.2 0.7,0.5 0.4,0.8 0.1,0.9 -0.2,1 -0.3,0.3 -0.5,0.4 m -13.7,37.9 0.1,-0.7 -0.2,-1.2 5.2,3.6 m -3.2,-4.3 -0.2,-0.1 -0.4,-0.6 v -0.4 l 0.1,-0.7 0.7,-1 0.6,-0.3 0.4,-0.1 0.6,0.1 0.5,0.4 0.3,0.5 0.4,1.1 0.8,4.1 2.4,-3.4 m -2.5,-7.5 -1.7,2.5 2.1,1.7 -0.1,-0.4 0.3,-0.9 0.5,-0.7 0.7,-0.6 0.9,-0.1 0.9,0.2 0.5,0.4 0.5,0.7 0.2,0.9 -0.3,0.9 -0.5,0.7 -0.8,0.6 -0.4,0.1 -0.6,-0.1 m 39.5,-153.4 -0.5,-0.4 -1.2,-0.4 5.7,-2.7 m -6.6,1.2 -1.4,-3 2.9,0.6 -0.4,-0.8 v -0.7 l 0.2,-0.4 0.7,-0.6 0.5,-0.3 0.9,-0.1 0.8,0.3 0.7,0.7 0.4,0.8 0.1,0.9 -0.1,0.4 -0.5,0.6 m -7.6,-6.3 -0.4,0.5 0.1,0.9 0.3,0.6 0.6,0.7 1.1,0.1 1.5,-0.4 1.3,-0.6 1,-0.8 0.3,-0.8 -0.1,-0.9 -0.2,-0.3 -0.6,-0.7 -0.8,-0.3 -1,0.2 -0.2,0.1 -0.7,0.6 -0.3,0.8 0.1,1 0.1,0.3 0.7,0.6 0.8,0.3 0.9,-0.1 m 0.1,28 -0.2,-0.7 -0.7,-1 6.2,1.1 m -6.1,-2.8 0.6,-3.3 2,2.2 0.2,-0.9 0.4,-0.5 0.3,-0.3 1,-0.1 0.6,0.1 0.8,0.5 0.5,0.7 0.1,0.9 -0.1,0.9 -0.5,0.8 -0.3,0.3 -0.7,0.2 m -3.4,-9.7 -0.5,2.9 2.6,0.8 -0.3,-0.4 -0.1,-0.9 0.1,-0.9 0.5,-0.8 0.7,-0.5 0.9,-0.1 0.6,0.1 0.9,0.4 0.4,0.7 0.2,1 -0.2,0.8 -0.4,0.9 -0.4,0.2 -0.6,0.2 m -90.6,-307.4 0.7,-0.2 1,-0.8 -0.7,6.3 m 3.6,-6.2 -0.9,0.2 -0.7,0.8 -0.5,1.5 v 0.9 l 0.1,1.5 0.5,1 0.9,0.4 h 0.6 l 0.9,-0.2 0.7,-0.8 0.4,-1.5 0.1,-0.9 -0.1,-1.5 -0.5,-1 -0.9,-0.3 -0.4,-0.1 m 4.8,0.5 -0.9,0.2 -0.4,0.6 v 0.6 l 0.2,0.6 0.6,0.4 1.2,0.4 0.8,0.4 0.6,0.6 0.2,0.7 -0.1,0.9 -0.4,0.5 -0.3,0.3 -0.9,0.2 -1.2,-0.1 -0.9,-0.4 -0.2,-0.3 -0.3,-0.7 0.1,-0.9 0.4,-0.5 0.6,-0.6 1,-0.2 1.2,-0.2 0.6,-0.2 0.4,-0.6 v -0.6 l -0.2,-0.6 -0.9,-0.4 -1.3,-0.1 m 19.1,-11.9 0.1,-0.7 -0.1,-1.2 4.9,4 m -3.3,-4.1 0.2,-0.6 -0.1,-1.3 4.8,4 m -3.9,-5.5 2.1,-2.5 0.7,2.9 0.6,-0.7 0.6,-0.2 0.4,-0.1 0.9,0.4 0.5,0.4 0.5,0.8 0.1,0.8 -0.4,0.9 -0.6,0.7 -0.8,0.5 h -0.4 L 163.5,83 m 12.1,-40.1 -0.5,0.4 -0.6,1.2 -1.9,-6.1 m -0.9,7.1 0.8,-0.5 0.3,-1 -0.1,-1.6 -0.3,-0.8 -0.7,-1.4 -0.9,-0.6 -0.9,-0.1 -0.6,0.2 -0.8,0.6 -0.3,1 0.2,1.5 0.2,0.9 0.8,1.3 0.8,0.7 h 1 l 0.4,-0.1 m -6.2,2 1.6,-4.9 -4.3,1.4 m 2.7,3.5 -1.9,-6 m 16,8.2 -0.1,-0.6 -0.7,-1.1 6.1,1.4 m -5.7,-4 0.1,0.9 0.5,0.4 0.6,0.2 0.6,-0.2 0.4,-0.5 0.6,-1.1 0.5,-0.8 0.7,-0.5 0.7,-0.1 0.8,0.2 0.6,0.4 0.2,0.3 0.1,1 -0.3,1.2 -0.5,0.8 -0.4,0.2 -0.6,0.2 -0.9,-0.2 -0.5,-0.5 -0.5,-0.7 v -0.9 l -0.1,-1.3 -0.1,-0.6 -0.5,-0.4 -0.6,-0.2 -0.7,0.2 -0.5,0.8 -0.3,1.3 M 63.8,560.4 63,559.8 62.7,559 v -1 l 0.1,-0.2 0.7,-0.8 0.7,-0.3 1,0.1 0.3,0.1 0.7,0.6 0.3,0.7 v 1 l -0.1,0.3 -0.6,0.7 -0.8,0.3 -1.2,-0.1 -1.4,-0.6 -1.3,-0.8 -0.6,-0.9 v -0.9 l 0.2,-0.6 0.6,-0.7 0.7,-0.1 m 2,9.8 1.1,-2.8 -2.4,-1.3 0.1,0.4 v 0.9 l -0.3,0.9 -0.6,0.7 -0.8,0.3 h -1 l -0.5,-0.2 -0.8,-0.6 -0.3,-0.8 0.1,-1 0.3,-0.8 0.6,-0.7 0.4,-0.2 0.6,-0.1 m 10.7,54.8 -3,-0.2 -0.4,2.7 0.3,-0.3 0.9,-0.2 h 0.9 l 0.9,0.4 0.5,0.6 0.3,0.9 -0.1,0.6 -0.3,0.9 -0.6,0.6 -1,0.2 h -0.9 l -0.8,-0.4 -0.3,-0.3 -0.3,-0.6 m 9.4,-2.5 -0.3,0.9 -0.7,0.6 -0.9,0.2 h -0.3 l -0.9,-0.4 -0.5,-0.6 -0.3,-0.9 V 617 l 0.4,-0.9 0.6,-0.5 0.9,-0.3 H 75 l 0.9,0.4 0.6,0.6 0.2,1.2 -0.1,1.5 -0.4,1.5 -0.6,0.9 -0.9,0.2 h -0.6 l -0.9,-0.4 -0.3,-0.6 m 97.6,-10.8 -0.6,-0.1 -1.3,0.2 3.6,-5.2 m -4.2,3.2 -0.2,0.3 -0.6,0.3 -0.4,0.1 -0.7,-0.1 -0.9,-0.7 -0.4,-0.6 -0.1,-0.4 0.1,-0.7 0.4,-0.4 0.6,-0.4 1,-0.4 4.1,-0.8 -3.4,-2.3 m -4.1,3 -0.2,0.2 -0.6,0.4 -0.4,0.1 -0.7,-0.1 -0.9,-0.7 -0.4,-0.6 -0.1,-0.4 0.1,-0.7 0.4,-0.5 0.6,-0.3 1,-0.4 4.1,-0.8 -3.4,-2.4 m -2.5,15.2 0.5,-0.5 0.6,-1.1 1.8,6 m -0.2,-6.7 3.1,-1 -1,2.9 0.9,-0.3 0.6,0.1 0.4,0.2 0.5,0.8 0.2,0.6 v 0.9 l -0.4,0.7 -0.8,0.6 -0.9,0.3 -0.9,-0.1 -0.4,-0.2 -0.4,-0.5 m 3.9,-5 0.5,-0.5 0.6,-1.1 1.8,6 m 88.3,-204.2 -0.2,0.6 -0.1,1.3 -4.1,-4.9 m 1.9,4.9 0.2,0.3 0.2,0.6 v 0.4 l -0.3,0.7 -0.9,0.7 -0.7,0.2 -0.4,-0.1 -0.6,-0.2 -0.4,-0.5 -0.2,-0.7 -0.1,-1 0.4,-4.3 -3.2,2.7 m -0.2,7.2 0.6,0.3 0.9,-0.4 0.4,-0.3 0.5,-0.8 -0.1,-1.1 -0.7,-1.4 -1,-1.1 -1,-0.8 h -0.8 l -0.9,0.3 -0.2,0.2 -0.5,0.8 -0.1,0.8 0.3,0.9 0.2,0.3 0.8,0.5 h 0.9 l 0.9,-0.3 0.2,-0.2 0.5,-0.8 0.1,-0.8 -0.4,-0.9 m 55.7,48.9 0.1,-0.6 -0.2,-1.3 5.2,3.7 m -3.1,-4.3 -0.3,-0.2 -0.3,-0.6 -0.1,-0.4 0.1,-0.6 0.7,-1 0.6,-0.3 0.4,-0.1 0.7,0.1 0.5,0.3 0.3,0.6 0.4,1.1 0.7,4.1 2.4,-3.4 m -4.1,-5.1 1.9,-2.6 0.9,2.8 0.6,-0.7 0.6,-0.3 0.4,-0.1 0.9,0.3 0.5,0.3 0.5,0.8 0.2,0.8 -0.3,1 -0.5,0.7 -0.8,0.5 -0.4,0.1 -0.7,-0.1 m -86.6,-7.7 v 0.7 l 0.4,1.2 -5.6,-2.8 m 3.7,3.7 0.3,0.1 0.4,0.6 0.1,0.4 v 0.7 l -0.5,1 -0.6,0.4 -0.4,0.2 h -0.6 l -0.6,-0.3 -0.4,-0.6 -0.5,-0.9 -1.4,-4 -1.8,3.7 m 3.7,6.7 -2.4,-4.5 -2,4 m 4.4,0.5 -5.6,-2.8 m 66.7,25.4 0.3,-0.6 0.1,-1.3 4,4.9 m -2.4,-4.6 0.3,-0.6 0.1,-1.3 4,4.9 m 1.1,-6.7 0.3,0.9 v 0.9 l -0.5,0.8 -0.3,0.2 -0.9,0.3 -0.8,-0.1 -0.8,-0.5 -0.2,-0.2 -0.3,-0.9 v -0.8 l 0.5,-0.8 0.3,-0.2 0.9,-0.4 0.8,0.1 1,0.7 1,1.2 0.7,1.4 0.1,1 -0.5,0.8 -0.5,0.4 -0.9,0.4 -0.6,-0.3 m -76.4,4.4 0.6,0.2 1.3,-0.1 -4.4,4.5 m 5.8,-3.4 2.3,2.3 -2.9,0.5 0.6,0.6 0.2,0.6 0.1,0.5 -0.5,0.8 -0.4,0.4 -0.8,0.5 h -0.9 l -0.8,-0.4 -0.7,-0.7 -0.4,-0.8 V 494 l 0.2,-0.7 m 9.7,2.3 -5.1,0.9 3.2,3.1 m 1.9,-4 -4.4,4.5 m 26.5,-1 0.5,-0.5 0.7,-1.1 1.6,6.1 m 0,-6.7 3.2,-0.8 -1.1,2.7 0.8,-0.2 0.7,0.1 0.4,0.3 0.5,0.7 0.1,0.6 v 1 l -0.5,0.7 -0.8,0.5 -0.8,0.3 -1,-0.1 -0.3,-0.2 -0.5,-0.5 m 5.6,-6.8 -0.8,0.5 -0.3,1.1 0.1,1.5 0.2,0.9 0.7,1.3 0.8,0.8 h 0.9 l 0.6,-0.1 0.8,-0.5 0.4,-1.1 -0.1,-1.5 -0.3,-0.9 -0.6,-1.3 -0.8,-0.8 h -1 l -0.4,0.1 m -10.8,68.8 0.6,0.2 1.3,0.1 -4.8,4.1 m 6.1,-2.9 2.1,2.5 -3,0.2 0.6,0.7 0.2,0.6 -0.1,0.5 -0.4,0.8 -0.5,0.4 -0.9,0.3 h -0.8 l -0.8,-0.5 -0.6,-0.7 -0.4,-0.9 V 569 l 0.3,-0.6 m 7.7,1.1 2.2,2.5 -3,0.2 0.6,0.7 0.1,0.7 v 0.4 l -0.5,0.8 -0.4,0.4 -0.9,0.4 -0.8,-0.1 -0.9,-0.5 -0.5,-0.7 -0.4,-0.8 V 573 l 0.3,-0.6 m 10.3,-36 -0.2,0.7 0.1,1.2 -4.7,-4.1 m 3.7,5.6 -2.2,2.5 -0.6,-3 -0.6,0.7 -0.6,0.3 h -0.4 l -0.9,-0.4 -0.4,-0.4 -0.5,-0.8 -0.1,-0.9 0.4,-0.8 0.6,-0.7 0.8,-0.5 h 0.4 l 0.7,0.2 m -0.9,8.7 0.4,-0.9 -0.3,-1 -0.9,-1.2 -0.7,-0.6 -1.3,-0.8 -1.1,-0.1 -0.8,0.4 -0.4,0.5 -0.4,0.9 0.3,1 0.9,1.2 0.7,0.6 1.3,0.8 1.1,0.1 0.8,-0.4 0.3,-0.4 m 13.7,-8.9 -0.5,-0.4 -1.2,-0.6 6,-2.1 m -5.3,0.1 -0.3,0.1 -0.6,-0.1 -0.4,-0.1 -0.5,-0.5 -0.4,-1.1 0.1,-0.7 0.2,-0.4 0.4,-0.5 0.6,-0.2 0.7,0.1 1,0.3 3.8,1.8 -1.3,-3.9 m -5.7,-3.4 h 1 l 0.7,0.3 0.6,0.8 0.1,0.3 v 0.9 l -0.3,0.8 -0.8,0.6 -0.3,0.1 h -0.9 l -0.8,-0.4 -0.6,-0.7 -0.1,-0.3 v -1 l 0.4,-0.7 1,-0.7 1.4,-0.5 1.6,-0.2 1,0.2 0.6,0.8 0.2,0.6 v 0.9 l -0.5,0.5 m -104.9,-229 0.1,-0.9 0.5,-0.7 0.8,-0.5 h 0.3 l 1,0.1 0.6,0.5 0.5,0.8 v 0.3 l -0.1,1 -0.5,0.7 -0.8,0.4 -0.3,0.1 -0.9,-0.2 -0.7,-0.5 -0.5,-1.1 -0.3,-1.5 v -1.5 l 0.5,-1 0.8,-0.4 0.6,-0.1 0.9,0.1 0.4,0.5 m -5.2,6.4 0.8,-0.4 0.2,-0.7 -0.1,-0.5 -0.4,-0.6 -0.6,-0.2 -1.2,-0.1 -1,-0.1 -0.7,-0.5 -0.4,-0.5 -0.1,-0.9 0.2,-0.7 0.2,-0.3 0.8,-0.5 1.2,-0.2 1,0.2 0.3,0.2 0.4,0.6 0.2,0.8 -0.2,0.7 -0.5,0.7 -0.9,0.4 -1.1,0.5 -0.5,0.4 -0.2,0.7 0.1,0.6 0.4,0.5 0.9,0.1 1.4,-0.2 m 18.9,9.5 0.9,0.3 0.6,0.6 0.3,0.9 v 0.3 l -0.3,0.9 -0.6,0.6 -0.9,0.3 h -0.3 l -0.9,-0.3 -0.6,-0.6 -0.3,-0.9 v -0.3 l 0.3,-0.9 0.6,-0.6 1.2,-0.3 h 1.5 l 1.5,0.3 0.9,0.6 0.3,0.9 v 0.6 l -0.3,0.9 -0.6,0.3 m -5.3,-8.8 6.3,3 m -6.3,1.2 v -4.2 m -55.8,2.3 -0.5,0.4 -0.6,1.1 -1.6,-6.1 m -1.2,7.1 0.8,-0.6 0.3,-1 -0.1,-1.5 -0.2,-0.9 -0.6,-1.4 -0.9,-0.7 h -0.9 l -0.6,0.1 -0.8,0.5 -0.3,1 0.1,1.6 0.2,0.8 0.6,1.4 0.8,0.7 1,0.1 0.4,-0.1 m -4.1,-0.5 v 0.3 l -0.1,0.7 -0.2,0.3 -0.5,0.5 -1.2,0.3 -0.6,-0.2 -0.4,-0.2 -0.4,-0.5 -0.2,-0.6 0.1,-0.6 0.4,-1.1 2.2,-3.6 -4.1,1 m -40.8,9 0.3,-0.9 0.5,-0.6 0.9,-0.4 h 0.3 l 0.9,0.3 0.6,0.6 0.4,0.9 v 0.3 l -0.3,0.9 -0.6,0.6 -0.9,0.3 h -0.3 l -0.9,-0.2 -0.6,-0.6 -0.3,-1.2 -0.1,-1.5 0.3,-1.5 0.6,-0.9 0.9,-0.4 h 0.6 l 0.9,0.3 0.3,0.6 m -6.4,5.5 0.9,-0.3 0.5,-0.9 0.3,-1.5 v -0.9 l -0.3,-1.5 -0.7,-0.9 -0.9,-0.3 -0.6,0.1 -0.9,0.3 -0.5,0.9 -0.3,1.5 v 0.9 l 0.3,1.5 0.7,0.9 0.9,0.3 0.4,-0.1 m -5.1,17.6 -0.6,-0.7 -0.7,-0.1 -0.5,0.2 -0.5,0.5 v 0.7 l 0.1,1.2 0.1,1 -0.3,0.7 -0.5,0.5 -0.8,0.4 -0.7,-0.1 -0.4,-0.2 -0.6,-0.7 -0.4,-1.1 -0.1,-0.9 0.2,-0.4 0.4,-0.5 0.9,-0.4 0.6,0.1 0.8,0.3 0.6,0.8 0.7,1 0.5,0.4 0.7,0.1 0.6,-0.2 0.4,-0.5 v -1 l -0.5,-1.3 m 2,5.2 -0.6,-0.8 h -0.7 l -0.6,0.2 -0.4,0.5 -0.1,0.7 0.2,1.2 0.1,0.9 -0.4,0.8 -0.4,0.5 -0.9,0.3 H 56.5 L 56.1,342.8 55.5,342.1 55,341 v -1 l 0.1,-0.4 0.5,-0.5 0.8,-0.3 0.7,0.1 0.8,0.3 0.6,0.7 0.7,1 0.5,0.5 h 0.7 l 0.5,-0.2 0.5,-0.5 -0.1,-0.9 -0.5,-1.3 m 32.1,48.3 -0.9,-0.4 -0.6,0.3 -0.4,0.4 -0.2,0.6 0.2,0.7 0.7,1 0.4,0.8 v 0.9 l -0.2,0.6 -0.6,0.7 -0.6,0.2 h -0.4 l -0.9,-0.4 -0.9,-0.8 -0.4,-0.8 v -0.5 l 0.2,-0.6 0.6,-0.7 0.6,-0.2 h 0.9 l 0.8,0.4 1.1,0.6 0.7,0.2 0.6,-0.2 0.4,-0.5 0.2,-0.6 -0.4,-0.8 -1,-1 m 4,3.8 -0.9,-0.4 -0.6,0.2 -0.4,0.5 -0.2,0.6 0.2,0.7 0.7,1 0.4,0.8 v 0.9 l -0.2,0.6 -0.6,0.7 -0.6,0.2 h -0.4 l -0.9,-0.4 -0.9,-0.8 -0.4,-0.9 v -0.4 l 0.2,-0.6 0.6,-0.7 0.6,-0.2 h 0.9 l 0.8,0.4 1.1,0.6 0.6,0.2 0.7,-0.2 0.4,-0.5 0.2,-0.6 -0.5,-0.9 -0.9,-0.9 m 25.8,3.4 -0.3,0.9 0.4,0.6 0.4,0.4 0.7,0.1 0.6,-0.3 0.9,-0.8 0.8,-0.6 0.8,-0.1 0.7,0.1 0.7,0.5 0.4,0.6 v 0.5 l -0.3,0.9 -0.7,0.9 -0.7,0.6 h -0.5 l -0.6,-0.1 -0.8,-0.5 -0.3,-0.6 -0.1,-0.8 0.3,-0.9 0.5,-1.2 0.1,-0.6 -0.4,-0.6 -0.4,-0.4 -0.7,-0.1 -0.8,0.6 -0.8,1.1 m 6.4,-5.2 0.5,0.8 0.2,0.8 -0.3,0.9 -0.2,0.2 -0.8,0.6 -0.8,0.1 -0.9,-0.3 -0.3,-0.1 -0.5,-0.8 -0.1,-0.8 0.2,-0.9 0.2,-0.3 0.8,-0.5 0.8,-0.2 1.2,0.5 1.2,0.9 1,1.1 0.4,1 -0.3,0.9 -0.3,0.5 -0.8,0.5 -0.7,-0.1"
       id="nums_001"
       stroke="#000000"
       stroke-width="1" />
    <path
       d="m 111.3,625.7 -78,-4.6 48.6,-123.8 57.2,-68.3 9.1,-56.5 -33.6,46.4 -49.4,-47 -25.1,-63.4 51.4,-1.2 42.9,-11.1 50.9,-8.9 -0.4,42.5 29.4,-30.7 L 175.1,265.4 139.4,239.3 92,259.4 74.5,172 29,47 l 64.4,2.1 49.8,-3.2 47.7,-15 -7.7,33.3 -34.7,41.6 -27.8,-2.8 32.9,38.1 37.2,39.9 19.5,4.3 66,34.5 -55.3,-49.9 -19.5,-4.4 -30.2,-45.4 32,-8.4 21.1,-45.9 14.6,-27.9 49.7,19.7 47,9.5 25.5,38.3 -29.3,5.2 -47.1,12.4 -31.4,1.6 26.7,16.6 48.6,-3.1 29.1,-6 68.5,105.3 -63.3,40.1 -119.7,42.4 127,1.1 55.7,-50.1 62.2,34.1 -33.8,71.3 -74.9,13.7 22.7,96.1 12,29.9 10.9,93.7 -62.4,-29.6 -24.2,-31.8 -39.4,16 42.3,-4.4 20.8,34.2 -40,43.7 -11.4,-27.4 -38.3,10.4 -14.4,-31.3 -27.7,-32.2 36.1,-40.9 7.6,21.8 5.5,-22.5 21.3,-23.6 53.8,20 -46.5,-33.6 18.6,-31 -21.1,29.4 -24.5,20.2 -52.8,13.8 -25.5,-24.9 31.6,-62.8 30.1,-24.9 -34.5,18.3 -4.6,-22.2 -12.8,-23.4 11.4,24.1 -4,22.3 -55.4,43.4 17.6,31.1 4.8,42.2 -19.7,28.2 -38.1,0.6 21.1,24.9 36.8,25 -37.1,11.2 z"
       id="coupes_001"
       stroke="#ff0000"
       stroke-width="1.27"
       sodipodi:nodetypes="ccccccccccccccccccccccccccccccccccccccccccccccccccccccccccccccccccccccccccccccccccccccccccc" />
    <path
       d="m 328.7,138.1 97.6,99.3 m -150,-17.6 52.4,-81.7 M 363,277.5 276.3,219.8 m -33,100.1 33,-100.1 m -62,79.3 62,-79.3 m -33,100.1 -29,-20.8 m 29,20.8 -58.4,9.9 m 58.4,-9.9 -30.6,51.1 m 0,0 -27.8,-41.2 m -36.7,42.7 36.7,-42.7 m 27.8,41.2 -64.5,1.5 m 26.9,-107.1 101.2,-45.6 m -101.2,45.6 35.2,-80.1 M 175.1,265.4 153.6,141.1 M 139.4,239.3 120.7,103 m -46.2,69 46.2,-69 M 139.4,239.3 74.5,172 m 0,0 18.9,-122.9 m 49.8,-3.2 -22.5,57.1 m 155.6,116.8 3.8,-78.6 m -59.1,28.7 32.4,-45.3 m -50.1,-12.9 50.1,12.9 M 221,169.9 203.3,111.7 m -1.8,53.8 1.8,-53.8 m 21.1,-45.9 29,58.8 M 239,37.9 284.8,123 m 3.9,-65.4 -3.9,65.4 m 50.9,-55.9 -3.8,43.5 m -88.6,209.3 21.3,78.4 m 0,0 -51.9,-27.3 m 30.6,-51.1 136.2,70.1 m 0,0 -114.9,8.3 m 114.9,-8.3 -52.7,57.5 m 0,0 -62.2,-49.2 m 137.6,87.8 -75.4,-38.6 m 27.9,64.6 -27.9,-64.6 m 87.4,68.5 -59.5,-3.9 m 8,68 -8,-68 m -16.2,36.2 -37.6,-56.2 m 37.6,56.2 -64.4,-10.1 m 25,26.1 -25,-26.1 m 25,26.1 -41,25.2 m 0,0 16,-51.3 m 36.7,72.2 -52.7,-20.9 m 41,-25.2 11.7,46.1 M 370.3,321 454.4,376.3 M 426,270.9 454.4,376.3 m -234.3,41.1 -71.9,-44.9 m 64.5,-1.5 7.4,46.4 M 164.7,460.8 139.1,429 m -9.8,133.9 -47.4,-65.6 m 82.8,-36.5 -35.4,102.1 m -18,62.8 -29.4,-128.4 m 47.4,65.6 20.8,61.1 m 0.3,-36.2 -0.3,36.2 m -6.9,-578.1 5.3,59.9 m -5.3,-59.9 40,18.3 m 122.5,412.7 -71.2,-53.7 m 71.2,53.7 -102.8,9.1 m 27.5,71.3 43.7,-19.1 M 65.2,371.9 184.9,329.8 m -36.7,42.7 -83,-0.6 m 0,0 69.2,-75.7 m 0,0 50.5,33.6 M 65.2,371.9 91.5,307.3"
       id="plisM_001"
       stroke="#a52a2a"
       stroke-dasharray="4" />
    <path
       d="M 363,277.5 328.7,138.1 M 175.1,265.4 190.8,181 m -51.4,58.3 14.2,-98.2 M 93.4,49.1 120.7,103 M 221,169.9 280.1,141.2 M 224.4,65.8 284.8,123 M 335.7,67.1 284.8,123 m -20.2,275.3 -39.1,-3.9 m 176.7,91.7 -47.5,26 m 59.5,3.9 -51.5,64.1 m -24.2,-31.8 16.2,-36.2 m -16.2,36.2 -58.9,-32.6 m 61.8,44.2 -30.6,50.5 m 30.6,-50.5 -19.2,77.9 m 48.1,-316.8 9.2,69 m -159.4,27.4 -81,11.6 m 25.6,31.8 -82.8,36.5 m 47.4,65.6 -18,62.8 m 71,-133.8 -53,71 m 53,-71 -14.9,70.4 M 326.8,447.5 234.5,423.2 m 46.7,73.9 -78.3,-11.1"
       id="plisV_001"
       stroke="#008000"
       stroke-dasharray="4, 1, 1, 1"
       stroke-width="1.27" />
    <path
       d="m 343.8,205.8 4,4 m 0,-4 -4,4 m -162.8,11.4 4,4 m 0,-4 -4,4 m -36.5,-37 4,4 m 0,-4 -4,4 m -39.4,-118.1 4,4 m 0,-4 -4,4 m 143.5,75.5 4,4 m 0,-4 -4,4 m 4,-65.2 4,4 m 0,-4 -4,4 m 55.6,-3.4 4,4 m 0,-4 -4,4 m -65.1,297.4 4,4 m 0,-4 -4,4 m 133.3,98.7 4,4 m 0,-4 -4,4 m 10.1,44.9 4,4 m 0,-4 -4,4 m -41.9,-21.8 4,4 m 0,-4 -4,4 M 307,530 l 4,4 m 0,-4 -4,4 m 17.1,49.2 4,4 m 0,-4 -4,4 m 5.7,9.6 4,4 m 0,-4 -4,4 m 43.1,-247.3 4,4 m 0,-4 -4,4 m -195.3,63.7 4,4 m 0,-4 -4,4 m -56.3,51.8 4,4 m 0,-4 -4,4 m -3,111.3 4,4 m 0,-4 -4,4 m 35.5,-70.9 4,4 m 0,-4 -4,4 m 19,-4.3 4,4 m 0,-4 -4,4 m 105.8,-95.8 4,4 m 0,-4 -4,4 m -38.6,52.3 4,4 m 0,-4 -4,4"
       id="marqueV_001"
       stroke="#008000" />
    <path
       d="m 237.9,354.2 1.5,-0.7 2.3,-2.3 V 367"
       id="titre_1"
       stroke="#4b0082" />
  </g>
  <g
     id="page_002">
    <path
       d="m 882.7,342.2 2.4,-4.6 -4.5,0.7 m 2.1,3.9 -0.9,-6.2 m -3.5,6.8 0.8,-0.5 0.5,-0.9 0.1,-1.6 -0.2,-0.9 -0.5,-1.4 -0.7,-0.8 -0.9,-0.2 -0.6,0.1 -0.9,0.4 -0.4,1 -0.1,1.5 0.1,0.9 0.5,1.5 0.7,0.8 1,0.1 h 0.4 m 28.9,11.3 4.5,2.6 -0.4,-4.4 m -4.1,1.8 6.3,-0.5 m -5,-2.2 -0.4,-0.5 -0.9,-0.9 6.2,-0.5 m -116.7,109.7 -3.7,-3.7 -0.7,4.4 m 4.4,-0.7 -6.2,-1.1 m 4.1,3.9 0.3,0.1 0.5,0.4 0.2,0.3 0.2,0.7 -0.2,1.2 -0.4,0.5 -0.3,0.2 -0.7,0.2 -0.6,-0.1 -0.5,-0.4 -0.8,-0.7 -2.4,-3.5 -0.7,4.1 m 12.9,64.6 2.7,-1.9 -0.1,3 0.8,-0.5 0.6,-0.1 h 0.4 l 0.8,0.6 0.4,0.5 0.2,0.9 -0.1,0.8 -0.6,0.8 -0.7,0.5 -0.9,0.3 -0.4,-0.1 -0.6,-0.3 m 5.8,-7.8 0.3,0.9 -0.2,0.8 -0.5,0.8 -0.3,0.2 -0.9,0.3 -0.8,-0.2 -0.8,-0.5 -0.2,-0.3 -0.2,-0.9 0.1,-0.8 0.6,-0.8 0.2,-0.2 0.9,-0.2 0.8,0.1 1,0.8 0.9,1.2 0.6,1.4 v 1.1 l -0.5,0.8 -0.5,0.3 -0.9,0.3 -0.6,-0.3 m -16.7,-11.5 1,3.1 -2.8,-1 0.3,0.9 -0.1,0.7 -0.2,0.3 -0.8,0.6 -0.5,0.2 h -1 l -0.8,-0.4 -0.5,-0.8 -0.3,-0.8 v -1 l 0.2,-0.3 0.5,-0.5 m 7.8,7.3 -7,-0.9 m 5.6,-3.1 1.4,4 m 164.1,-17.2 2.8,0.9 1.1,-2.4 -0.3,0.1 h -1 l -0.8,-0.3 -0.8,-0.5 -0.4,-0.8 v -0.9 l 0.2,-0.6 0.6,-0.8 0.8,-0.3 h 0.9 l 0.9,0.3 0.7,0.5 0.2,0.4 0.1,0.7 m -7.3,2.9 -3.1,-1.1 2.5,-1.6 -0.9,-0.3 -0.4,-0.5 -0.2,-0.4 v -0.9 l 0.2,-0.6 0.5,-0.8 0.8,-0.3 h 1 l 0.8,0.2 0.8,0.6 0.2,0.4 v 0.7 m 44.7,68.5 -1,2.9 2.5,1.1 -0.2,-0.4 v -0.9 l 0.3,-0.9 0.6,-0.7 0.7,-0.4 h 1 l 0.6,0.2 0.7,0.6 0.4,0.7 v 1 l -0.3,0.8 -0.6,0.8 -0.4,0.2 -0.6,0.1 m -2.2,-9.7 3,4.2 1.5,-4.3 m -4.5,0.1 6,2 m -183.7,-19.4 0.8,-2.8 -2.5,-1.1 0.2,0.4 0.1,0.9 -0.3,0.9 -0.5,0.8 -0.8,0.4 h -0.9 l -0.6,-0.1 -0.8,-0.6 -0.4,-0.7 v -1 l 0.2,-0.8 0.6,-0.8 0.4,-0.2 0.6,-0.1 m 1.5,9.7 0.7,-0.1 0.5,-0.8 0.2,-0.5 v -1 l -0.7,-0.8 -1.4,-0.7 -1.4,-0.5 H 822 l -0.7,0.4 -0.6,0.8 v 0.3 0.9 l 0.4,0.8 0.8,0.5 0.3,0.1 0.9,-0.1 0.8,-0.4 0.5,-0.7 0.1,-0.3 v -1 l -0.5,-0.7 -0.7,-0.6 m 93.5,115.6 h 0.6 l 1.2,-0.6 -2.1,6 m 3.8,-5.6 3.1,1 -2.5,1.7 0.9,0.3 0.4,0.5 0.2,0.4 v 0.9 l -0.2,0.6 -0.5,0.7 -0.8,0.4 h -1 l -0.8,-0.3 -0.8,-0.6 -0.1,-0.3 -0.1,-0.7 m 77.9,4.4 -2.8,1 0.6,2.7 0.2,-0.4 0.8,-0.6 0.8,-0.3 h 1 l 0.7,0.3 0.6,0.8 0.2,0.6 v 0.9 l -0.3,0.8 -0.8,0.6 -0.8,0.3 h -1 l -0.4,-0.2 -0.4,-0.5 m 8.8,-27.6 1.5,2.7 2.5,-1 -0.4,-0.2 -0.7,-0.6 -0.5,-0.8 -0.1,-0.9 0.2,-0.9 0.7,-0.6 0.5,-0.3 0.9,-0.2 0.9,0.2 0.6,0.7 0.5,0.8 0.1,0.9 -0.1,0.4 -0.4,0.6 m -8.7,-5.5 1.4,2.7 2.5,-1 -0.4,-0.2 -0.7,-0.6 -0.4,-0.8 -0.1,-0.9 0.2,-0.9 0.6,-0.6 0.6,-0.3 0.9,-0.2 0.8,0.3 0.7,0.6 0.4,0.8 0.2,0.9 -0.1,0.4 -0.4,0.6 m -182.8,-2.6 -3,6.2 m -1.2,-6.3 4.2,0.1 m -65.4,-6.3 0.7,-0.1 1.1,-0.6 -1.9,6 m 2.6,-4.5 0.6,-0.1 1.2,-0.6 -1.9,6 m 19.1,-69.4 4.3,-2.9 -4.3,-1.6 m 0,4.5 2.2,-5.9 m -7.7,2.9 v 0.6 l 0.8,0.6 0.5,0.2 h 1 l 0.9,-0.6 0.8,-1.3 0.5,-1.4 0.1,-1.2 -0.4,-0.8 -0.7,-0.6 -0.3,-0.1 H 777 l -0.8,0.3 -0.6,0.8 -0.1,0.3 v 0.9 l 0.3,0.8 0.8,0.6 0.3,0.1 h 0.9 l 0.8,-0.4 0.6,-0.7 m -47.1,-12.8 4.3,-2.9 -4.2,-1.6 m -0.1,4.5 2.2,-5.9 m -8,3.6 2.8,1.1 1.2,-2.4 -0.4,0.2 -0.9,-0.1 -0.9,-0.3 -0.7,-0.6 -0.3,-0.8 v -0.9 l 0.2,-0.6 0.6,-0.7 0.8,-0.4 0.9,0.1 0.9,0.3 0.7,0.6 0.2,0.4 v 0.6 m -29.4,87.3 3.2,-0.7 -1.2,2.7 0.9,-0.2 0.7,0.2 0.3,0.2 0.5,0.8 0.2,0.6 -0.1,0.9 -0.5,0.8 -0.8,0.5 -0.9,0.2 -0.9,-0.1 -0.4,-0.2 -0.4,-0.6 m -37.9,-30.3 -1.3,-2.8 -2.5,0.9 0.3,0.1 0.7,0.7 0.4,0.8 0.1,1 -0.3,0.8 -0.7,0.6 -0.6,0.3 -0.9,0.1 -0.8,-0.3 -0.7,-0.7 -0.3,-0.9 -0.1,-0.9 0.1,-0.4 0.4,-0.5 m 6.6,7.2 -1,0.1 -0.8,-0.3 -0.6,-0.7 -0.1,-0.3 -0.1,-0.9 0.3,-0.8 0.7,-0.7 0.2,-0.1 1,-0.1 0.8,0.3 0.6,0.7 0.2,0.3 v 0.9 l -0.3,0.8 -0.9,0.8 -1.4,0.6 -1.5,0.3 -1,-0.1 -0.7,-0.7 -0.2,-0.6 -0.1,-0.9 0.4,-0.5 m -64.8,-139.8 -5.1,-0.9 1.9,4.1 m 3.2,-3.2 -5.7,2.7 m 8.1,2.6 -5,-0.9 1.9,4 m 3.1,-3.1 -5.7,2.7 m 47.5,-42.7 -1.8,-2.8 3,0.2 -0.5,-0.7 -0.1,-0.7 0.1,-0.4 0.6,-0.7 0.5,-0.4 0.9,-0.2 0.9,0.2 0.7,0.6 0.5,0.7 0.2,1 -0.1,0.4 -0.3,0.6 m -9.4,-5.2 6.9,-0.9 m -4.6,4.4 -2.3,-3.5 m -21.8,5.4 -2.7,1.9 0.1,-3 -0.7,0.5 -0.7,0.1 H 609 l -0.8,-0.6 -0.3,-0.5 -0.3,-0.9 0.1,-0.8 0.6,-0.8 0.8,-0.5 0.9,-0.3 0.4,0.1 0.6,0.3 m -2.7,8.1 0.6,-0.7 -0.1,-0.7 -0.4,-0.5 -0.6,-0.3 -0.6,0.1 -1.2,0.4 -0.9,0.3 -0.8,-0.1 -0.6,-0.4 -0.6,-0.7 v -0.7 -0.4 l 0.6,-0.7 1,-0.7 0.9,-0.3 0.4,0.1 0.6,0.3 0.5,0.7 0.1,0.7 -0.1,0.8 -0.6,0.8 -0.8,0.9 -0.3,0.6 0.1,0.7 0.3,0.5 0.6,0.3 0.9,-0.3 1.1,-0.8 m 109.5,78.6 1.6,4.9 2.6,-3.7 m -4.2,-1.2 5,3.7 m -1.3,-8.7 -1.8,2.4 2,1.8 v -0.4 l 0.3,-0.9 0.5,-0.7 0.8,-0.6 0.8,-0.1 0.9,0.3 0.5,0.4 0.5,0.7 0.2,0.9 -0.3,0.9 -0.6,0.7 -0.7,0.5 -0.5,0.1 -0.6,-0.1 m 3.4,-42.2 4.4,2.7 -0.3,-4.5 m -4.1,1.8 6.3,-0.5 m -5.8,-5.8 -0.6,0.3 -0.2,1 v 0.6 l 0.4,0.8 1,0.6 1.5,0.2 1.5,-0.2 1.1,-0.4 0.6,-0.6 0.2,-0.9 v -0.3 l -0.4,-0.9 -0.6,-0.5 -0.9,-0.3 h -0.3 l -0.9,0.4 -0.5,0.7 -0.3,0.9 v 0.3 l 0.4,0.9 0.7,0.5 0.9,0.2 m -28.2,-39.9 2.6,1.6 1.6,-2.2 -0.4,0.1 -0.9,-0.2 -0.8,-0.5 -0.6,-0.7 -0.2,-0.8 0.2,-0.9 0.3,-0.6 0.7,-0.6 0.8,-0.2 0.9,0.2 0.8,0.5 0.6,0.7 0.1,0.4 v 0.7 m -9.9,-1 v 0.7 l 0.6,0.7 0.5,0.3 1,0.2 0.9,-0.5 1.1,-1.1 0.7,-1.3 0.4,-1.2 -0.2,-0.8 -0.6,-0.7 -0.3,-0.2 -0.9,-0.2 -0.9,0.2 -0.7,0.7 -0.1,0.2 -0.2,1 0.2,0.8 0.6,0.7 0.3,0.1 0.9,0.2 0.8,-0.2 0.7,-0.6 m -26.8,-0.3 -1.8,2.8 -1.1,-2.8 -0.5,0.7 -0.5,0.4 -0.4,0.1 -1,-0.2 -0.5,-0.3 -0.6,-0.8 -0.2,-0.8 0.2,-0.9 0.5,-0.8 0.7,-0.6 0.5,-0.1 0.6,0.1 m -2.3,9.4 -0.6,-0.7 -0.2,-0.8 0.2,-1 0.2,-0.2 0.7,-0.6 0.8,-0.2 1,0.2 0.2,0.2 0.6,0.7 0.2,0.8 -0.2,0.9 -0.2,0.3 -0.7,0.6 -0.8,0.2 -1.2,-0.4 -1.3,-0.8 -1.1,-1 -0.4,-1 0.2,-0.9 0.3,-0.5 0.7,-0.6 h 0.7 m -55.4,136.2 0.6,-0.2 1.1,-0.8 -1,6.3 m 2.4,-4.8 0.1,-0.3 0.3,-0.5 0.4,-0.3 0.6,-0.2 1.2,0.2 0.6,0.4 0.2,0.3 0.2,0.7 -0.1,0.5 -0.3,0.6 -0.8,0.8 -3.4,2.5 4.2,0.6 m 2.3,-4.5 0.1,-0.3 0.3,-0.5 0.4,-0.3 0.6,-0.2 1.2,0.2 0.6,0.4 0.2,0.3 0.2,0.7 -0.1,0.5 -0.3,0.6 -0.8,0.8 -3.4,2.5 4.2,0.6 m -51.3,-57.6 0.1,0.6 0.5,1.2 -5.9,-2.2 m 4.1,3.3 0.3,0.1 0.5,0.5 0.1,0.4 0.1,0.6 -0.4,1.2 -0.5,0.4 -0.4,0.2 -0.7,0.1 -0.5,-0.2 -0.5,-0.5 -0.6,-0.9 -1.8,-3.9 -1.4,4 m 4.2,2.7 v 0.6 l 0.6,1.2 -5.9,-2.2 m 26.7,-12 -0.7,0.2 -1,0.8 0.9,-6.2 m -2.4,4.7 v 0.3 l -0.4,0.5 -0.3,0.3 -0.7,0.2 -1.1,-0.2 -0.6,-0.4 -0.2,-0.3 -0.3,-0.7 0.1,-0.5 0.4,-0.6 0.7,-0.8 3.4,-2.5 -4.1,-0.6 m -3.8,5.8 0.9,-0.2 0.7,-0.8 0.5,-1.4 0.2,-0.9 -0.1,-1.6 -0.5,-0.9 -0.8,-0.5 -0.6,-0.1 -1,0.2 -0.7,0.8 -0.5,1.5 -0.1,0.8 v 1.6 l 0.5,0.9 0.9,0.5 h 0.4 m -8.9,56.8 0.6,-0.4 0.7,-1 0.9,6.3 m 0.9,-5.2 v -0.3 l 0.2,-0.7 0.3,-0.3 0.5,-0.4 1.2,-0.1 0.6,0.2 0.4,0.2 0.4,0.6 v 0.6 l -0.2,0.6 -0.4,1 -2.6,3.4 4.2,-0.6 m 1.7,-6.6 -0.8,0.4 -0.2,0.6 v 0.6 l 0.4,0.6 0.7,0.2 1.2,0.1 0.9,0.2 0.7,0.5 0.4,0.6 0.1,0.9 -0.2,0.6 -0.3,0.3 -0.8,0.5 -1.2,0.1 -0.9,-0.1 -0.4,-0.3 -0.4,-0.6 -0.1,-0.9 0.2,-0.6 0.5,-0.7 0.9,-0.4 1.1,-0.4 0.6,-0.4 0.2,-0.7 -0.1,-0.6 -0.4,-0.5 -0.9,-0.2 -1.3,0.2 m -15.5,-15.7 0.4,0.5 1,0.8 -6.2,1.1 m 6.7,0.5 0.6,3.3 -2.7,-1.4 0.2,0.9 -0.2,0.7 -0.3,0.3 -0.8,0.5 -0.6,0.1 -0.9,-0.2 -0.7,-0.5 -0.5,-0.8 -0.1,-0.9 0.1,-0.9 0.3,-0.4 0.5,-0.4 m 4.6,5.2 0.2,-0.1 0.7,0.2 0.3,0.3 0.4,0.5 0.2,1.2 -0.1,0.6 -0.3,0.4 -0.5,0.4 -0.6,0.1 -0.7,-0.2 -0.9,-0.4 -3.5,-2.5 0.7,4.2 m 223.8,-176.8 -5.1,0.9 3.2,3.2 m 1.9,-4.1 -4.5,4.5 m 6.7,-2.1 2.4,2.3 -3,0.4 0.6,0.7 0.2,0.6 v 0.4 l -0.4,0.9 -0.4,0.4 -0.9,0.4 h -0.8 l -0.9,-0.4 -0.6,-0.6 -0.4,-0.9 v -0.4 l 0.2,-0.6 m 113.6,-117.1 4.4,2.7 -0.3,-4.5 m -4.1,1.8 6.3,-0.5 m -6.7,-6.2 6.5,2.5 m -6.2,1.7 -0.3,-4.2 m -26.5,46.4 -1.8,4.8 4.3,-1.1 m -2.5,-3.7 1.6,6.1 m 2.7,-7.2 -0.8,0.5 -0.3,1.1 0.1,1.5 0.2,0.9 0.7,1.3 0.8,0.8 h 0.9 l 0.6,-0.1 0.8,-0.6 0.4,-1 -0.1,-1.5 -0.3,-0.9 -0.6,-1.3 -0.9,-0.8 h -0.9 l -0.4,0.1 m 11.7,-107.5 2.9,0.6 0.9,-2.5 -0.3,0.2 -1,0.1 -0.9,-0.2 -0.8,-0.5 -0.4,-0.7 -0.1,-1 0.1,-0.6 0.5,-0.8 0.7,-0.4 1,-0.1 0.8,0.2 0.8,0.5 0.3,0.3 0.1,0.7 m -8.1,3.4 1,-0.1 0.8,-0.8 0.6,-1.4 0.2,-0.8 v -1.6 l -0.4,-1 -0.8,-0.5 -0.6,-0.1 -0.9,0.1 -0.8,0.7 -0.6,1.4 -0.2,0.9 -0.1,1.5 0.4,1.1 0.8,0.4 0.5,0.1 m -76.7,28.7 3,0.1 0.3,-2.7 -0.3,0.3 -0.9,0.3 h -0.9 l -0.9,-0.4 -0.6,-0.6 -0.2,-0.9 v -0.6 l 0.3,-0.9 0.6,-0.6 0.9,-0.2 h 0.9 l 0.9,0.3 0.3,0.3 0.3,0.6 m -6,3.5 v 0.3 l -0.3,0.6 -0.3,0.3 -0.6,0.2 h -1.2 l -0.6,-0.3 -0.3,-0.3 -0.3,-0.6 v -0.6 l 0.4,-0.6 0.6,-0.9 3.1,-2.9 -4.2,-0.1 m 134.7,26.1 -5.2,0.7 3.1,3.3 m 2.1,-4 -4.7,4.3 m 9.1,0.7 -6.6,2.1 m 3.8,-5.2 2.8,3.1 m 47.9,-12.1 5.1,0.1 -2.5,-3.7 m -2.6,3.6 5.2,-3.6 m -7.1,-3 0.9,-0.3 0.8,0.2 0.8,0.5 0.1,0.3 0.3,0.9 -0.2,0.8 -0.5,0.8 -0.3,0.1 -0.9,0.3 -0.8,-0.2 -0.8,-0.5 -0.2,-0.3 -0.2,-0.9 0.1,-0.8 0.9,-0.9 1.2,-0.9 1.4,-0.6 h 1.1 l 0.7,0.6 0.4,0.5 0.2,0.9 -0.3,0.6 m -15.8,28.1 0.2,5.2 3.6,-2.8 m -3.8,-2.4 3.9,5 m -0.5,-7.5 -0.6,0.8 0.2,0.7 0.3,0.4 0.6,0.3 0.7,-0.1 1.1,-0.5 0.9,-0.3 0.9,0.1 0.6,0.3 0.5,0.7 0.1,0.7 v 0.4 l -0.6,0.8 -0.9,0.7 -0.9,0.3 h -0.4 l -0.6,-0.3 -0.6,-0.7 -0.1,-0.7 0.1,-0.8 0.5,-0.8 0.8,-1 0.3,-0.6 -0.1,-0.7 -0.4,-0.4 -0.6,-0.3 -0.9,0.3 -1.1,0.8 m 7.9,-75.3 -1.1,2.8 2.4,1.3 -0.2,-0.4 0.1,-0.9 0.3,-0.8 0.6,-0.8 0.8,-0.3 1,0.1 0.5,0.2 0.7,0.7 0.4,0.7 -0.1,1 -0.4,0.8 -0.6,0.7 -0.4,0.2 H 992 m -1,-10.6 4.6,5.2 m -6.2,-1.3 1.6,-3.9 m -190.1,9.5 v -3 l -2.7,-0.3 0.3,0.3 0.3,0.9 v 0.9 l -0.3,0.9 -0.6,0.6 -0.9,0.2 h -0.6 l -0.9,-0.3 -0.6,-0.6 -0.3,-0.9 v -0.9 l 0.3,-0.9 0.3,-0.3 0.6,-0.3 m 5.1,6.9 -0.3,-0.9 -0.6,-0.3 h -0.6 l -0.6,0.3 -0.3,0.6 -0.4,1.2 -0.3,0.9 -0.6,0.6 -0.6,0.3 h -0.9 l -0.6,-0.3 -0.3,-0.3 -0.3,-0.9 0.1,-1.2 0.3,-0.9 0.3,-0.3 0.6,-0.3 h 0.9 l 0.6,0.3 0.6,0.6 0.3,0.9 0.2,1.2 0.3,0.6 0.6,0.3 h 0.6 l 0.6,-0.3 0.3,-0.9 0.1,-1.3 m 9.1,13.5 -2.9,-0.9 -1.1,2.4 0.4,-0.2 h 0.9 l 0.9,0.3 0.7,0.6 0.4,0.8 v 0.9 l -0.2,0.6 -0.6,0.7 -0.7,0.4 h -1 l -0.8,-0.3 -0.8,-0.6 -0.2,-0.3 -0.1,-0.7 m 6.8,-1.5 v -0.3 l 0.5,-0.5 0.4,-0.2 0.7,-0.1 1.1,0.4 0.5,0.5 0.2,0.4 0.1,0.6 -0.2,0.6 -0.5,0.5 -0.9,0.6 -3.8,1.9 4,1.4 m -37.5,-6.4 1.3,2.8 2.5,-0.9 -0.4,-0.1 -0.6,-0.7 -0.4,-0.9 -0.1,-0.9 0.3,-0.8 0.7,-0.6 0.5,-0.3 1,-0.1 0.8,0.3 0.6,0.7 0.4,0.8 0.1,0.9 -0.1,0.4 -0.5,0.6 m -7.5,-4.1 0.7,0.7 h 0.6 l 0.6,-0.2 0.4,-0.6 v -0.6 l -0.2,-1.3 -0.1,-0.9 0.3,-0.8 0.4,-0.5 0.8,-0.4 h 0.7 l 0.4,0.2 0.6,0.7 0.5,1 0.1,1 -0.1,0.4 -0.4,0.5 -0.8,0.4 h -0.7 l -0.8,-0.3 -0.7,-0.7 -0.7,-1 -0.6,-0.4 h -0.6 l -0.6,0.2 -0.4,0.6 0.1,0.9 0.6,1.2 m 50.1,-50.2 0.6,0.2 0.9,-0.3 0.4,-0.4 0.5,-0.8 -0.1,-1.1 -0.8,-1.3 -1,-1.2 -1,-0.7 h -0.9 l -0.8,0.3 -0.3,0.2 -0.4,0.8 -0.1,0.9 0.4,0.9 0.2,0.2 0.8,0.5 h 0.8 l 0.9,-0.3 0.2,-0.2 0.5,-0.8 0.1,-0.9 -0.4,-0.9 m -2.4,7.7 0.5,-0.8 -0.1,-1.1 -0.8,-1.3 -0.6,-0.7 -1.2,-0.9 -1.1,-0.3 -0.8,0.4 -0.5,0.3 -0.5,0.9 0.2,1 0.7,1.4 0.6,0.6 1.2,1 1.1,0.3 0.9,-0.4 0.3,-0.3 m 27.4,4 1.2,2.8 2.6,-0.8 -0.4,-0.1 -0.6,-0.8 -0.4,-0.8 v -0.9 l 0.3,-0.8 0.7,-0.6 0.6,-0.3 h 0.9 l 0.8,0.3 0.6,0.7 0.4,0.9 v 0.9 l -0.1,0.4 -0.5,0.5 m -5.4,-3.5 -0.5,-0.4 -1.2,-0.5 5.9,-2.4 m -110,13.9 -0.1,0.6 0.4,0.9 0.5,0.4 0.9,0.3 1,-0.3 1.2,-0.9 1,-1.1 0.6,-1.1 -0.1,-0.9 -0.5,-0.8 -0.2,-0.2 -0.9,-0.4 -0.8,0.1 -0.8,0.5 -0.2,0.2 -0.4,0.9 0.1,0.8 0.4,0.9 0.3,0.1 0.8,0.4 h 0.9 l 0.8,-0.5 m -7.9,-1.4 0.9,0.4 1,-0.3 1.2,-0.9 0.6,-0.7 0.8,-1.3 0.1,-1.1 -0.5,-0.8 -0.4,-0.4 -0.9,-0.4 -1.1,0.3 -1.2,1 -0.6,0.6 -0.7,1.4 -0.1,1 0.4,0.9 0.4,0.2 m 231.2,-12.5 0.1,0.6 0.8,0.5 0.6,0.2 0.9,-0.1 0.8,-0.7 0.7,-1.4 0.4,-1.5 -0.1,-1.2 -0.4,-0.7 -0.8,-0.5 -0.3,-0.1 -0.9,0.1 -0.8,0.4 -0.5,0.8 v 0.3 0.9 l 0.5,0.8 0.8,0.5 0.3,0.1 0.9,-0.1 0.7,-0.5 0.6,-0.8 m -5.5,1.6 -0.7,0.1 -1.1,0.7 1.5,-6.2 m -57.7,10.5 2.7,-1.3 -0.8,-2.6 -0.2,0.4 -0.7,0.7 -0.8,0.4 -0.9,0.1 -0.8,-0.3 -0.7,-0.7 -0.2,-0.5 -0.1,-1 0.2,-0.8 0.7,-0.6 0.8,-0.4 1,-0.1 0.4,0.1 0.5,0.4 m -3.2,5.6 -0.4,0.5 -0.4,1.2 -2.7,-5.6 m -8.8,18.8 -2.2,-2 -2,1.7 h 0.4 l 0.8,0.4 0.7,0.6 0.4,0.9 0.1,0.8 -0.4,0.9 -0.5,0.4 -0.8,0.5 h -0.8 l -0.9,-0.4 -0.7,-0.6 -0.4,-0.9 v -0.4 l 0.2,-0.6 m 8.7,1.2 -0.9,-0.4 -1,0.2 -1.3,0.9 -0.6,0.7 -0.8,1.3 -0.2,1 0.4,0.9 0.5,0.4 0.8,0.4 1.1,-0.3 1.2,-0.8 0.7,-0.7 0.8,-1.3 0.2,-1.1 -0.5,-0.8 -0.3,-0.3 m -202.4,-8.6 0.6,0.3 0.9,-0.3 0.5,-0.4 0.5,-0.8 -0.1,-1.1 -0.8,-1.4 -0.9,-1.1 -1,-0.8 h -0.8 l -0.9,0.3 -0.3,0.2 -0.5,0.8 -0.1,0.8 0.4,0.9 0.2,0.3 0.8,0.5 h 0.8 l 0.9,-0.3 0.2,-0.2 0.5,-0.8 0.1,-0.8 -0.3,-0.9 m -2.1,5.3 -0.3,0.6 -0.1,1.3 -4,-4.9 m -11.8,67.3 0.7,-0.2 0.9,-0.8 -0.5,6.2 m -55.6,-31.8 0.7,0.3 1.2,0.1 -4.9,4 m 5,-1.9 0.2,-0.2 0.7,-0.1 h 0.4 l 0.6,0.3 0.7,0.9 0.2,0.7 -0.1,0.4 -0.2,0.6 -0.5,0.4 -0.6,0.2 -1.1,0.1 -4.2,-0.5 2.6,3.3 m 9.8,-19.2 0.3,0.6 0.9,0.3 0.6,-0.1 0.9,-0.3 0.5,-1 0.2,-1.5 -0.1,-1.5 -0.4,-1.2 -0.6,-0.5 -0.9,-0.3 -0.3,0.1 -0.9,0.3 -0.6,0.7 -0.2,0.9 v 0.3 l 0.4,0.9 0.6,0.5 1,0.2 h 0.3 l 0.8,-0.3 0.6,-0.7 0.2,-0.9 m -5.3,3.1 v 0.3 l -0.3,0.6 -0.2,0.3 -0.6,0.4 -1.2,0.1 -0.6,-0.3 -0.4,-0.3 -0.3,-0.6 v -0.5 l 0.2,-0.7 0.5,-0.9 2.8,-3.2 -4.2,0.3 m 86.2,87.2 v -0.9 l -0.5,-0.5 -0.5,-0.2 -0.7,0.1 -0.5,0.4 -0.7,1 -0.6,0.8 -0.8,0.3 -0.6,0.1 -0.9,-0.3 -0.4,-0.5 -0.2,-0.4 v -0.9 l 0.4,-1.2 0.6,-0.7 0.4,-0.2 h 0.7 l 0.8,0.3 0.5,0.5 0.3,0.7 v 1 l -0.1,1.2 0.1,0.7 0.4,0.5 0.6,0.2 0.6,-0.1 0.6,-0.7 0.5,-1.3 m -2.6,7.1 1,-2.8 -2.4,-1.2 0.2,0.4 -0.1,0.9 -0.3,0.9 -0.6,0.7 -0.7,0.3 h -1 l -0.5,-0.2 -0.8,-0.6 -0.3,-0.8 v -0.9 l 0.3,-0.8 0.6,-0.8 0.4,-0.2 h 0.6 m 21.5,55.8 0.6,0.2 1.3,-0.2 -4,4.9 m 4.5,-2.8 0.2,-0.3 0.6,-0.2 0.4,-0.1 0.6,0.1 1,0.8 0.3,0.6 v 0.4 l -0.1,0.7 -0.4,0.5 -0.6,0.2 -1.1,0.4 -4.2,0.4 3.3,2.6 m 8,-1.6 -6.3,3 m 3,-5.6 3.3,2.6 m 173.7,96.5 -0.6,-0.4 -0.9,0.3 -0.5,0.3 -0.6,0.7 v 1.1 l 0.6,1.4 0.8,1.3 0.9,0.8 0.8,0.2 0.9,-0.2 0.3,-0.2 0.6,-0.7 0.1,-0.9 -0.2,-0.9 -0.2,-0.2 -0.7,-0.6 -0.8,-0.2 -0.9,0.2 -0.3,0.2 -0.6,0.7 -0.2,0.9 0.3,0.9 m 4.5,-8 -0.2,5.1 3.8,-2.4 m -3.6,-2.7 3.4,5.2 m 5.5,-45.2 -0.4,0.5 0.2,1 0.3,0.5 0.7,0.6 1.1,0.1 1.5,-0.5 1.3,-0.7 0.8,-0.9 0.3,-0.8 -0.2,-0.9 -0.2,-0.3 -0.7,-0.6 -0.8,-0.2 -0.9,0.1 -0.3,0.2 -0.6,0.7 -0.2,0.8 0.1,0.9 0.2,0.3 0.7,0.6 0.8,0.3 1,-0.2 m -6.5,-2.8 -1.6,-2.9 3,0.4 -0.5,-0.8 V 405 l 0.1,-0.4 0.6,-0.7 0.5,-0.3 1,-0.2 0.8,0.2 0.7,0.7 0.4,0.8 0.2,0.9 -0.1,0.4 -0.4,0.6"
       id="nums_002"
       stroke="#000000"
       stroke-width="1" />
    <path
       d="m 714.6,545.8 36.2,13.7 59.8,21.6 17.7,-60.1 -35.7,25.4 -13,-39.7 16.5,-92.9 -22.8,-22.8 -77.1,-61.8 26.4,-71.5 -78.6,-6.1 -37.3,-46.1 59.6,-4.3 56.5,-46.3 52.7,46 15.1,32.4 34.9,1 -33,-11.1 0.3,-35.8 52.7,-46 24.2,59.8 40.9,9.3 -30.4,-28.9 58.4,-27.6 70.8,17.6 -24.9,59.5 23,33.7 -45.7,35.1 -56,-61.2 5.8,82.8 -66.8,17.6 68.5,-9.6 3.6,42.8 37.7,66.2 -62.6,40.7 137,46.3 -33.2,98.5 27.9,51.6 -51.8,18.4 -107.4,-36.7 -84.1,-1 -42.7,-13.5 -63.8,15.2 -32.2,-71.2 -44,-6.4 -32.3,4.5 -6.6,-37.5 13.9,-37.2 29.3,4.3 -25.4,-53.5 56.6,-39.7 22.5,35.2 23,-37.3 54,32 4.8,63.4 z"
       id="coupes_002"
       stroke="#ff0000"
       stroke-width="1.27"
       sodipodi:nodetypes="cccccccccccccccccccccccccccccccccccccccccccccccccccccccc" />
    <path
       d="M 892,479.2 844.8,339.1 m 0,0 72.1,33.2 M 892,479.2 796.1,413.8 m 0,0 48.7,-74.7 M 892,479.2 828.3,521 m 0,0 -48.7,-14.3 M 1029,525.5 828.3,521 M 995.8,624 828.3,521 M 995.8,624 810.6,581.1 M 995.8,624 864.5,657.3 M 995.8,624 971.9,694 m -234.2,-51.2 13.1,-83.3 m -13.1,83.3 -23.1,-97 M 673.9,658 714.6,545.8 m -72.9,41 72.9,-41 M 602,514.5 714.6,545.8 m -58.9,-89.3 58.9,89.3 m -58.9,-89.3 81.8,58.1 m -139.8,65.8 4.3,-65.9 m -4.3,65.9 -38.9,-33 M 773.3,391 825.5,234.3 m 0,0 19.3,104.8 m -19.3,-104.8 44.2,-33.1 m 0,0 -24.9,137.9 m 24.9,-137.9 36.1,37.5 m 0,0 -61,100.4 M 825.5,234.3 792.8,187.4 m 0,0 76.9,13.8 m 40.9,9.3 -4.8,28.2 M 773.3,391 790.6,233.3 m -68,24.4 68,-24.4 m 120,-22.8 73.9,20.6 m 0,0 -78.7,7.6 m -183.2,19 52.9,-56.8 m -52.9,56.8 0.2,-102.8 m 187.8,55.6 28,-56.5 M 644,251.6 666.3,201.2"
       id="plisM_002"
       stroke="#a52a2a"
       stroke-dasharray="4" />
    <path
       d="M 916.9,372.3 892,479.2 M 828.3,521 796.1,413.8 m 68.4,243.5 -53.9,-76.2 m -30.2,75.2 30.2,-75.2 m -72.9,61.7 72.9,-61.7 M 641.7,586.8 602,514.5 m 0,0 53.7,-58 m -79.1,4.5 79.1,-4.5 m 0,0 77,-5.3 M 558.8,547.4 602,514.5 M 773.3,391 844.8,339.1 M 773.3,391 722.6,257.7 m 261.9,-26.6 -22.7,68.8 m -51.2,-89.4 98.8,-38.9 m -286.8,86.1 -56.3,-56.5"
       id="plisV_002"
       stroke="#008000"
       stroke-dasharray="4, 1, 1, 1"
       stroke-width="1.27" />
    <path
       d="m 902.4,423.7 4,4 m 0,-4 -4,4 m -92.2,37.7 4,4 m 0,-4 -4,4 m 25.3,147.8 4,4 m 0,-4 -4,4 m -42,-4.5 4,4 m 0,-4 -4,4 m -21.4,-10.7 4,4 m 0,-4 -4,4 m -152.2,-65.3 4,4 m 0,-4 -4,4 m 7,-69.2 4,4 m 0,-4 -4,4 m -12.7,-30.8 4,4 m 0,-4 -4,4 m 78,-8.9 4,4 m 0,-4 -4,4 m -113.8,73.2 4,4 m 0,-4 -4,4 m 228.7,-169.9 4,4 m 0,-4 -4,4 m -61.1,-44.7 4,4 m 0,-4 -4,4 m 225.2,-62.9 4,4 m 0,-4 -4,4 m -13.2,-78.4 4,4 m 0,-4 -4,4 m -265.5,34.4 4,4 m 0,-4 -4,4"
       id="marqueV_002"
       stroke="#008000" />
    <path
       d="m 835.22275,372.11995 v -0.8 l 0.7,-1.5 0.8,-0.7 1.5,-0.8 h 3 l 1.5,0.8 0.7,0.7 0.8,1.5 v 1.5 l -0.8,1.5 -1.5,2.3 -7.5,7.5 h 10.5"
       id="titre_2"
       stroke="#4b0082" />
  </g>
  <g
     id="page_003">
    <path
       d="m 1285,479.8 0.2,-0.9 -0.5,-1 -1.2,-1 -0.7,-0.4 -1.5,-0.5 -1.1,0.1 -0.7,0.7 -0.3,0.5 -0.1,0.9 0.5,1 1.1,1 0.8,0.4 1.5,0.5 1.1,-0.1 0.7,-0.7 0.2,-0.4 m -33.4,52.7 -0.1,0.7 0.2,1.2 -5.2,-3.5 m 3.2,4.1 0.3,0.2 0.3,0.6 0.1,0.4 -0.1,0.7 -0.7,1 -0.6,0.3 -0.4,0.1 -0.7,-0.1 -0.5,-0.3 -0.3,-0.6 -0.4,-1 -0.8,-4.2 -2.4,3.5 m 73.6,38.4 0.5,-0.3 0.8,-1 0.7,6.2 m 4.5,-5 -0.1,1 -0.6,0.6 -0.8,0.4 -0.3,0.1 -1,-0.2 -0.6,-0.5 -0.4,-0.9 -0.1,-0.3 0.2,-0.9 0.6,-0.7 0.8,-0.4 h 0.3 l 0.9,0.2 0.7,0.5 0.4,1.1 0.2,1.5 -0.1,1.6 -0.5,0.9 -0.9,0.4 -0.5,0.1 -1,-0.2 -0.3,-0.6 m 7.1,-70.7 -0.2,-0.2 -0.2,-0.7 v -0.4 l 0.2,-0.6 0.9,-0.9 0.7,-0.1 h 0.4 l 0.6,0.2 0.4,0.4 0.2,0.7 0.2,1.1 -0.2,4.2 3.1,-2.9 m -2.1,-6.6 -0.5,0.8 0.2,1.1 0.8,1.3 0.6,0.7 1.3,0.9 1,0.2 0.9,-0.4 0.4,-0.4 0.5,-0.8 -0.2,-1.1 -0.8,-1.3 -0.6,-0.7 -1.3,-0.8 -1,-0.3 -0.9,0.4 -0.3,0.3 m 21.9,-17.7 -0.2,-0.2 -0.1,-0.7 v -0.4 l 0.3,-0.6 0.9,-0.8 0.7,-0.1 h 0.4 l 0.6,0.3 0.4,0.5 0.1,0.6 0.1,1.1 -0.4,4.2 3.3,-2.6 m -2.3,-4.5 0.3,-0.6 0.1,-1.3 4,4.9 m -50.6,-103.8 0.2,0.1 0.6,0.3 0.3,0.4 0.2,0.6 -0.2,1.2 -0.4,0.6 -0.3,0.2 -0.7,0.2 -0.6,-0.1 -0.5,-0.4 -0.8,-0.7 -2.6,-3.4 -0.6,4.2 m 4.5,2.3 0.3,0.1 0.6,0.3 0.2,0.4 0.2,0.6 -0.1,1.2 -0.4,0.6 -0.4,0.2 -0.6,0.2 -0.6,-0.1 -0.5,-0.4 -0.8,-0.7 -2.6,-3.4 -0.6,4.2 m -31.6,220.8 -0.2,-0.1 -0.4,-0.6 -0.1,-0.4 v -0.7 l 0.6,-1 0.6,-0.4 0.4,-0.1 0.7,0.1 0.5,0.3 0.4,0.6 0.4,0.9 1.1,4.1 2.1,-3.6 m -4.5,-4.7 1.7,-2.8 1.1,2.8 0.5,-0.8 0.5,-0.4 0.5,-0.1 0.9,0.2 0.5,0.3 0.6,0.7 0.2,0.9 -0.2,0.9 -0.4,0.8 -0.7,0.6 -0.5,0.1 -0.6,-0.1 m -50.9,14.6 0.6,-0.2 1,-0.8 -0.8,6.3 m 6,-5.8 -3.8,5.8 m -0.3,-6.4 4.1,0.6 m -52.8,-66.7 -0.6,0.1 -1.1,0.7 1.4,-6.1 m -5.9,4.4 0.2,0.7 0.8,0.5 0.6,0.1 0.9,-0.1 0.8,-0.8 0.6,-1.4 0.4,-1.4 -0.1,-1.3 -0.4,-0.7 -0.9,-0.5 h -0.2 l -1,0.1 -0.7,0.4 -0.5,0.8 -0.1,0.3 0.1,1 0.5,0.7 0.8,0.5 h 0.3 l 1,-0.1 0.7,-0.4 0.5,-0.8 m -14.1,60.8 -0.9,0.1 -0.4,0.6 -0.1,0.6 0.3,0.6 0.5,0.4 1.2,0.5 0.8,0.4 0.5,0.7 0.2,0.6 -0.1,0.9 -0.4,0.5 -0.3,0.3 -0.9,0.2 -1.2,-0.2 -0.9,-0.4 -0.2,-0.4 -0.3,-0.6 0.2,-0.9 0.4,-0.5 0.6,-0.6 1,-0.1 1.2,-0.2 0.6,-0.2 0.4,-0.5 0.1,-0.6 -0.2,-0.7 -0.9,-0.4 -1.3,-0.2 m -24.8,-34.2 -0.9,-0.3 -0.6,-0.5 -0.4,-0.9 V 575 l 0.3,-0.9 0.6,-0.7 0.8,-0.3 h 0.3 l 0.9,0.2 0.7,0.6 0.3,0.9 v 0.3 l -0.2,0.9 -0.6,0.6 -1.2,0.4 -1.5,0.1 -1.5,-0.3 -0.9,-0.5 -0.4,-0.9 v -0.6 l 0.3,-0.9 0.6,-0.4 m 263.7,-114.9 3.1,-1.1 -0.9,2.9 0.8,-0.3 0.7,0.1 0.4,0.1 0.6,0.8 0.2,0.6 v 0.9 l -0.4,0.8 -0.7,0.6 -0.9,0.3 h -0.9 l -0.4,-0.2 -0.5,-0.5 m 4.3,-5.3 -0.1,-0.3 0.1,-0.7 0.2,-0.4 0.4,-0.4 1.2,-0.5 0.6,0.1 0.4,0.2 0.5,0.5 0.2,0.5 -0.1,0.7 -0.2,1.1 -1.9,3.8 4,-1.4 m -54.7,-167.6 -0.9,-3.2 2.8,1.1 -0.2,-0.9 0.1,-0.6 0.2,-0.4 0.8,-0.5 0.6,-0.2 0.9,0.1 0.8,0.4 0.5,0.8 0.2,0.9 v 0.9 l -0.2,0.4 -0.5,0.4 m -6.5,-4.4 -0.9,-3.2 2.8,1.2 -0.2,-0.9 0.1,-0.7 0.2,-0.3 0.8,-0.6 0.6,-0.1 h 0.9 l 0.7,0.4 0.6,0.8 0.2,0.9 v 1 l -0.3,0.3 -0.5,0.5 m -34.9,-68.5 -3.2,0.6 1.3,-2.7 -0.9,0.2 -0.6,-0.2 -0.4,-0.2 -0.5,-0.8 -0.1,-0.6 0.1,-0.9 0.5,-0.8 0.8,-0.4 0.9,-0.2 0.9,0.1 0.4,0.2 0.4,0.6 m -7.3,6.8 2.1,-4.8 -4.4,0.9 m 2.3,3.9 -1.3,-6.2 m 139.3,127.1 -2.2,-2.4 2.9,-0.3 -0.6,-0.7 -0.2,-0.6 0.1,-0.5 0.4,-0.8 0.4,-0.4 0.9,-0.4 h 0.9 l 0.8,0.5 0.6,0.7 0.4,0.8 v 0.4 l -0.3,0.7 m -8.6,-1.8 0.9,0.5 1,-0.2 1.3,-0.8 0.7,-0.6 0.9,-1.3 0.3,-1 -0.4,-0.9 -0.5,-0.4 -0.8,-0.5 -1.1,0.2 -1.3,0.8 -0.6,0.6 -0.9,1.3 -0.3,1 0.4,0.9 0.3,0.3 m 48.3,47 -0.2,0.2 -0.6,0.2 h -0.5 l -0.6,-0.2 -0.9,-0.8 -0.2,-0.6 v -0.4 l 0.2,-0.7 0.4,-0.4 0.6,-0.3 1.1,-0.2 4.2,-0.1 -3.1,-2.9 m -8.1,1 6.5,-2.5 m -3.4,5.4 -3.1,-2.9 m 4.5,46.9 -0.1,-0.6 -0.5,-1.2 5.9,2.1 m -4.4,-7 5,4.9 m -6.4,-1 1.4,-3.9 M 1394,279.7 v 3.3 l -2.4,-1.8 v 0.9 l -0.3,0.6 -0.3,0.3 -0.9,0.3 h -0.6 l -0.9,-0.3 -0.6,-0.5 -0.3,-0.9 v -0.9 l 0.3,-0.9 0.3,-0.4 0.6,-0.3 m 5.1,6 0.1,3.3 -2.4,-1.8 v 0.9 l -0.3,0.6 -0.3,0.3 -0.9,0.3 h -0.6 l -0.9,-0.3 -0.6,-0.6 -0.3,-0.9 V 286 l 0.2,-0.9 0.3,-0.3 0.6,-0.3 m 15.4,-111.7 0.3,0.1 0.4,0.5 0.2,0.4 v 0.6 l -0.4,1.1 -0.5,0.5 -0.4,0.2 h -0.7 l -0.5,-0.2 -0.5,-0.5 -0.6,-0.9 -1.7,-3.9 -1.5,3.9 m 4.1,6.7 1.1,-2.8 -2.4,-1.2 0.2,0.4 -0.1,0.9 -0.3,0.8 -0.6,0.8 -0.8,0.3 h -1 l -0.5,-0.3 -0.7,-0.6 -0.4,-0.8 0.1,-0.9 0.3,-0.8 0.6,-0.8 0.4,-0.1 0.7,-0.1 m 74.5,100.6 -0.2,-0.3 v -0.6 l 0.1,-0.4 0.4,-0.6 1.1,-0.5 h 0.7 l 0.4,0.1 0.5,0.4 0.3,0.5 v 0.7 l -0.1,1.1 -1.3,4 3.7,-1.9 m 1.8,-7 -0.6,-0.4 -0.9,0.2 -0.5,0.2 -0.7,0.7 -0.1,1.1 0.4,1.5 0.7,1.3 0.8,0.9 0.8,0.3 0.9,-0.2 0.3,-0.1 0.7,-0.7 0.2,-0.8 -0.1,-0.9 -0.2,-0.3 -0.6,-0.6 -0.8,-0.3 -1,0.1 -0.2,0.2 -0.7,0.7 -0.3,0.8 0.2,0.9 m 65.7,-64.9 1.7,-2.9 1.2,2.8 0.4,-0.8 0.6,-0.4 0.4,-0.1 0.9,0.2 0.5,0.3 0.7,0.8 0.2,0.8 -0.2,0.9 -0.5,0.8 -0.7,0.6 -0.4,0.1 h -0.7 m -0.5,-6.4 0.1,-0.7 -0.4,-1.2 5.5,3.2 m 17.5,-107.8 4.3,2.9 -0.1,-4.5 m -4.2,1.6 6.3,-0.1 m -21,-45.9 2.7,-1.3 -0.8,-2.5 -0.2,0.4 -0.7,0.6 -0.8,0.4 -0.9,0.1 -0.8,-0.3 -0.7,-0.7 -0.2,-0.5 -0.1,-1 0.3,-0.8 0.6,-0.6 0.9,-0.4 0.9,-0.1 0.4,0.1 0.5,0.5 m -81.7,13.4 -0.6,0.3 -0.9,0.8 0.3,-6.2 m -2.1,6.4 -3.3,-0.2 2,-2.3 -0.9,-0.1 -0.6,-0.3 -0.3,-0.3 -0.2,-1 V 60 l 0.3,-0.9 0.7,-0.6 0.9,-0.2 h 0.9 l 0.9,0.4 0.3,0.3 0.2,0.6 m -125.8,20.8 0.4,-0.5 -0.3,-0.9 -0.3,-0.6 -0.7,-0.6 h -1.1 l -1.4,0.5 -1.3,0.8 -0.9,0.9 -0.2,0.8 0.3,0.9 0.1,0.3 0.7,0.6 0.9,0.2 0.9,-0.2 0.2,-0.2 0.7,-0.7 0.2,-0.8 -0.3,-0.9 -0.1,-0.3 -0.7,-0.6 -0.9,-0.2 -0.9,0.2 m 32.1,-8.3 1.5,-6.8 m 2.6,5.9 -4.1,0.9 m 8.1,60.9 h 0.6 l 1.2,-0.6 -2.2,5.9 m 6.7,-4.4 -2.8,-1.1 -1.2,2.5 0.4,-0.2 h 0.9 l 0.9,0.3 0.7,0.6 0.3,0.8 v 0.9 l -0.2,0.6 -0.6,0.7 -0.8,0.4 h -0.9 l -0.9,-0.3 -0.7,-0.6 -0.2,-0.4 v -0.7 m -24.6,-29.5 0.5,0.4 1.2,0.5 -5.9,2.3 m 7.7,1.6 -5,-1.2 1.6,4.2 m 3.4,-3 -5.9,2.3 m -55.4,180.7 2.1,2.6 -3,0.1 0.6,0.7 0.1,0.7 -0.1,0.4 -0.5,0.8 -0.4,0.4 -0.9,0.3 -0.9,-0.1 -0.8,-0.5 -0.5,-0.7 -0.4,-0.9 0.1,-0.4 0.3,-0.6 m 8.8,4.3 0.3,-0.6 -0.3,-0.9 -0.4,-0.4 -0.8,-0.6 -1.1,0.1 -1.3,0.7 -1.2,1 -0.7,1 -0.1,0.8 0.3,0.9 0.2,0.2 0.8,0.5 0.8,0.1 0.9,-0.3 0.3,-0.2 0.5,-0.8 0.1,-0.8 -0.4,-0.9 -0.2,-0.2 -0.8,-0.6 -0.8,-0.1 -0.9,0.4 m -37,-38.2 2.8,1.9 -2.8,1 0.7,0.5 0.3,0.6 0.1,0.4 -0.2,0.9 -0.3,0.5 -0.8,0.6 -0.8,0.1 -0.9,-0.2 -0.8,-0.5 -0.6,-0.7 -0.1,-0.5 0.1,-0.6 m 10.3,0.6 -2.5,-1.6 -1.8,2.1 0.5,-0.1 0.9,0.2 0.7,0.5 0.6,0.8 0.2,0.8 -0.3,0.9 -0.3,0.5 -0.7,0.6 -0.9,0.2 -0.9,-0.3 -0.7,-0.5 -0.6,-0.7 -0.1,-0.4 0.1,-0.7 M 1223.9,94 l 0.3,0.1 0.4,0.5 0.1,0.4 0.1,0.7 -0.5,1.1 -0.5,0.4 -0.4,0.1 -0.7,0.1 -0.5,-0.3 -0.5,-0.5 -0.5,-0.9 -1.6,-4 -1.7,3.9 m 4.1,6.5 -2.6,-4.5 -1.9,4.2 m 4.5,0.3 -5.8,-2.6 m 54.4,-33.8 -0.4,0.5 -0.5,1.2 -2.5,-5.8 m -0.1,7.2 0.7,-0.6 0.2,-1.1 -0.4,-1.5 -0.3,-0.8 -0.9,-1.3 -0.9,-0.6 -0.9,0.1 -0.6,0.3 -0.7,0.6 -0.2,1.1 0.3,1.4 0.4,0.9 0.9,1.2 0.9,0.6 0.9,-0.1 0.4,-0.1 m 22.3,19.4 v -0.6 l -0.5,-1.3 5.7,2.8 m -4,-6.7 2.4,4.5 2,-4 m -4.4,-0.5 5.6,2.7 m 2.1,-29.8 -0.6,0.3 -0.3,0.9 v 0.6 l 0.4,0.9 0.9,0.6 1.5,0.3 h 1.5 l 1.2,-0.3 0.6,-0.6 0.2,-0.9 v -0.3 l -0.3,-0.9 -0.6,-0.6 -0.9,-0.3 h -0.3 l -0.9,0.3 -0.6,0.6 -0.3,0.9 v 0.3 l 0.4,0.9 0.6,0.6 0.9,0.3 m -72.1,171.1 0.3,-0.2 0.6,-0.1 h 0.4 l 0.6,0.3 0.8,0.9 0.1,0.7 v 0.4 l -0.3,0.6 -0.4,0.4 -0.7,0.1 -1.1,0.1 -4.2,-0.4 2.7,3.3 m 6.4,1.2 -0.9,0.4 -0.8,-0.1 -0.8,-0.5 -0.2,-0.3 -0.4,-0.8 0.1,-0.9 0.5,-0.8 0.3,-0.2 0.9,-0.3 0.8,0.1 0.8,0.5 0.2,0.2 0.3,0.9 -0.1,0.9 -0.7,0.9 -1.2,1 -1.3,0.7 -1.1,0.1 -0.8,-0.5 -0.4,-0.5 -0.3,-0.9 0.3,-0.6 m -93.2,-93.5 0.7,-0.1 1.1,-0.5 -2.3,5.8 m 4.9,-5 h -1 l -0.5,0.4 -0.2,0.6 v 0.6 l 0.5,0.5 1,0.8 0.7,0.6 0.3,0.8 0.1,0.6 -0.4,0.9 -0.5,0.4 -0.4,0.2 -0.9,-0.1 -1.1,-0.5 -0.7,-0.6 -0.2,-0.4 v -0.6 l 0.3,-0.9 0.5,-0.4 0.8,-0.3 h 0.9 l 1.3,0.2 h 0.6 l 0.5,-0.5 0.3,-0.5 -0.1,-0.7 -0.7,-0.6 -1.3,-0.5 m 58.2,-42.7 h -0.3 l -0.6,-0.1 -0.4,-0.3 -0.4,-0.5 -0.2,-1.2 0.2,-0.6 0.2,-0.4 0.6,-0.4 0.6,-0.1 0.6,0.2 1,0.4 3.5,2.4 -0.8,-4.1 m -7,-3.1 4.7,2.2 -0.9,-4.4 m -3.8,2.2 6.2,-1.1 m -100.3,23.8 0.2,-0.2 0.7,-0.2 h 0.4 l 0.6,0.2 0.9,0.8 0.2,0.7 v 0.4 l -0.2,0.6 -0.4,0.5 -0.6,0.2 -1.1,0.2 -4.2,0.1 3,2.9 m 2.4,-44.4 -2.1,2.5 -0.7,-2.9 -0.6,0.7 -0.6,0.3 -0.4,0.1 -0.9,-0.4 -0.5,-0.3 -0.5,-0.8 -0.1,-0.9 0.3,-0.9 0.6,-0.7 0.8,-0.5 h 0.4 l 0.7,0.1 m 199.9,123.5 1.7,-2.7 1.1,2.8 0.5,-0.8 0.6,-0.3 0.4,-0.1 0.9,0.2 0.5,0.3 0.6,0.7 0.2,0.9 -0.2,0.9 -0.5,0.8 -0.7,0.6 h -0.5 -0.6 m 0.1,-10 2,4.8 2.4,-3.8 m -4.4,-1 5.4,3.4 m 10.6,-40.9 h -0.3 l -0.5,-0.4 -0.3,-0.4 -0.1,-0.6 0.2,-1.2 0.4,-0.5 0.4,-0.3 0.6,-0.2 0.6,0.2 0.5,0.4 0.8,0.7 2.3,3.6 0.9,-4.1 m -5.3,-5.9 -0.6,2.9 2.6,0.8 -0.2,-0.3 -0.1,-0.9 0.2,-0.9 0.4,-0.9 0.7,-0.4 1,-0.1 0.6,0.1 0.8,0.5 0.5,0.7 0.1,0.9 -0.2,0.9 -0.5,0.8 -0.3,0.2 -0.7,0.2 m -12.3,-27.9 -0.6,0.1 -1.2,0.6 2.1,-6 m -6.6,4.6 2.8,1 1.2,-2.5 -0.4,0.2 h -0.9 l -0.9,-0.3 -0.7,-0.6 -0.4,-0.8 v -0.9 l 0.2,-0.6 0.6,-0.7 0.8,-0.4 h 0.9 l 0.9,0.3 0.7,0.6 0.2,0.4 0.1,0.7 m -157.1,63.8 0.2,0.7 0.6,1.1 -6.1,-1.7 m 4.6,2.4 0.2,0.6 0.6,1.1 -6.1,-1.6 m 5.8,3.4 -0.8,3.1 -1.9,-2.3 -0.2,0.8 -0.5,0.5 -0.3,0.2 -1,0.1 -0.6,-0.2 -0.7,-0.5 -0.5,-0.7 v -1 l 0.2,-0.9 0.6,-0.7 0.3,-0.2 0.7,-0.2 m 40.1,39.9 0.3,-0.6 0.2,-1.3 3.7,5.1 m -2.1,-4.7 0.3,-0.6 0.2,-1.3 3.7,5.1 m -0.4,-7.8 v 5.1 l 3.7,-2.6 m -3.7,-2.5 3.7,5.1 m -41.6,29.8 0.2,-0.6 v -1.3 l 4.4,4.5 m -2.4,-6.7 -0.4,0.8 0.2,1.1 0.8,1.3 0.6,0.6 1.3,0.9 1,0.2 0.9,-0.4 0.4,-0.4 0.5,-0.9 -0.2,-1 -0.9,-1.3 -0.6,-0.7 -1.2,-0.8 -1.1,-0.2 -0.9,0.4 -0.3,0.3 m 5.4,-5.2 2.2,6.6 m -5.3,-3.7 3.1,-2.9 m -35,12 h 0.7 l 1.2,-0.5 -2.5,5.8 m 5.3,-4.9 h -0.9 l -1,0.6 -0.8,1.2 -0.4,0.9 -0.3,1.5 0.2,1 0.7,0.6 0.6,0.3 0.9,0.1 0.9,-0.6 0.9,-1.3 0.4,-0.8 0.3,-1.5 -0.2,-1.1 -0.7,-0.6 -0.5,-0.2 m 6.1,3.6 v -0.7 l -0.7,-0.6 -0.6,-0.3 h -0.9 l -0.9,0.5 -0.9,1.3 -0.6,1.4 -0.2,1.2 0.4,0.8 0.7,0.6 0.2,0.1 1,0.1 0.8,-0.3 0.6,-0.7 0.1,-0.3 0.1,-0.9 -0.3,-0.8 -0.7,-0.6 -0.3,-0.2 h -1 l -0.7,0.3 -0.7,0.7 m -5.1,-45.3 -0.6,0.3 -1,0.9 0.3,-6.3 m -3.2,6.3 0.9,-0.2 0.6,-0.9 0.4,-1.5 v -0.9 l -0.2,-1.5 -0.5,-0.9 -0.9,-0.4 h -0.6 l -0.9,0.3 -0.7,0.8 -0.4,1.5 v 0.9 l 0.2,1.5 0.6,0.9 0.9,0.4 h 0.4 m -4.9,-0.2 0.9,-0.3 0.4,-0.6 v -0.6 l -0.3,-0.6 -0.6,-0.3 -1.1,-0.4 -0.9,-0.3 -0.6,-0.6 -0.3,-0.7 0.1,-0.9 0.3,-0.5 0.3,-0.3 0.9,-0.3 1.2,0.1 0.9,0.3 0.3,0.3 0.3,0.6 -0.1,0.9 -0.3,0.6 -0.6,0.6 -0.9,0.3 -1.3,0.2 -0.6,0.3 -0.3,0.5 v 0.6 l 0.2,0.7 0.9,0.3 1.4,0.1 m -1.4,8.6 0.4,0.6 1,0.7 -6.2,0.9 m 6.9,2 -0.4,-0.8 -1,-0.5 -1.6,-0.1 -0.8,0.2 -1.5,0.5 -0.8,0.7 -0.2,0.9 0.1,0.6 0.5,0.9 0.9,0.4 1.6,0.1 0.8,-0.1 1.5,-0.5 0.8,-0.8 0.2,-0.9 -0.1,-0.4 m 0.6,3.9 0.4,3.3 -2.6,-1.5 0.1,0.9 -0.2,0.7 -0.2,0.3 -0.9,0.4 -0.6,0.1 -0.9,-0.1 -0.7,-0.6 -0.4,-0.8 -0.1,-0.9 0.1,-0.9 0.3,-0.4 0.5,-0.4 m 379.2,258.7 -0.3,0.1 -0.7,-0.1 -0.4,-0.2 -0.4,-0.4 -0.4,-1.2 0.1,-0.6 0.2,-0.4 0.4,-0.5 0.6,-0.2 0.7,0.1 1,0.3 3.8,1.9 -1.3,-4 m -6.6,0.4 -1,-3.2 2.8,1 -0.3,-0.9 0.1,-0.6 0.2,-0.4 0.8,-0.6 0.5,-0.2 h 1 l 0.8,0.4 0.5,0.7 0.3,0.9 v 0.9 l -0.2,0.4 -0.4,0.5 m -17.6,27.9 0.5,-0.4 0.6,-1.1 1.7,6 m 3.6,-5.6 v 0.9 l -0.4,0.8 -0.8,0.5 -0.3,0.1 -0.9,-0.1 -0.8,-0.4 -0.5,-0.8 -0.1,-0.2 v -1 l 0.5,-0.7 0.7,-0.6 0.3,-0.1 1,0.1 0.7,0.4 0.6,1.1 0.5,1.4 0.1,1.5 -0.3,1.1 -0.8,0.5 -0.6,0.2 -0.9,-0.1 -0.5,-0.5 m -50.1,-31.8 -1.7,2.8 -1.1,-2.8 -0.5,0.8 -0.6,0.3 -0.4,0.1 -0.9,-0.2 -0.5,-0.3 -0.6,-0.7 -0.2,-0.9 0.2,-0.9 0.5,-0.8 0.7,-0.6 0.4,-0.1 0.7,0.1 m 0,6.9 0.2,0.1 0.4,0.6 0.1,0.4 -0.1,0.7 -0.6,1 -0.6,0.4 -0.4,0.1 -0.7,-0.1 -0.5,-0.3 -0.3,-0.6 -0.5,-1 -1,-4.1 -2.2,3.6 m -76.9,61.3 -0.3,-0.1 -0.5,-0.5 -0.2,-0.4 -0.1,-0.6 0.4,-1.2 0.5,-0.5 0.3,-0.1 0.7,-0.1 0.6,0.1 0.5,0.5 0.6,0.9 2,3.7 1.2,-4 m -5.1,-4.4 v 0.9 l 0.5,0.5 0.5,0.2 0.7,-0.1 0.5,-0.5 0.6,-1 0.6,-0.8 0.7,-0.4 0.7,-0.1 0.8,0.3 0.5,0.4 0.2,0.4 v 1 l -0.3,1.1 -0.6,0.8 -0.4,0.2 -0.6,0.1 -0.9,-0.3 -0.5,-0.5 -0.4,-0.7 v -1 l 0.1,-1.2 -0.1,-0.7 -0.5,-0.4 -0.5,-0.2 -0.7,0.1 -0.6,0.7 -0.4,1.3 m -1.1,-16.2 v 0.3 l -0.3,0.6 -0.3,0.3 -0.5,0.4 h -1.2 l -0.6,-0.2 -0.4,-0.3 -0.3,-0.6 -0.1,-0.6 0.3,-0.6 0.5,-0.9 2.8,-3.2 -4.2,0.3 m -2.5,6.5 0.9,-0.4 0.5,-0.9 0.2,-1.5 v -0.9 l -0.5,-1.5 -0.6,-0.9 -0.9,-0.2 h -0.6 l -0.9,0.4 -0.5,1 -0.2,1.5 v 0.9 l 0.5,1.4 0.6,0.9 0.9,0.2 h 0.5 m 70.7,-4.5 h 0.3 l 0.6,0.3 0.3,0.3 0.3,0.5 0.1,1.2 -0.3,0.7 -0.3,0.3 -0.6,0.3 h -0.6 l -0.6,-0.3 -0.9,-0.6 -3.1,-2.9 0.1,4.2 m 4.9,0.9 0.3,0.6 1,0.9 -6.3,0.2 m 20.8,-3.1 -0.1,-0.3 0.1,-0.7 0.2,-0.3 0.5,-0.5 1.2,-0.3 0.6,0.1 0.4,0.3 0.5,0.5 0.1,0.5 -0.1,0.7 -0.4,1 -2.1,3.7 4.1,-1.1 m 0.9,-6.8 -0.8,0.5 -0.1,0.7 0.1,0.6 0.5,0.5 0.6,0.1 h 1.3 0.9 l 0.8,0.5 0.4,0.5 0.2,0.8 -0.1,0.7 -0.2,0.4 -0.8,0.5 -1.2,0.3 h -0.9 l -0.4,-0.3 -0.4,-0.5 -0.3,-0.8 0.2,-0.7 0.4,-0.7 0.8,-0.5 1.1,-0.7 0.5,-0.4 0.1,-0.7 -0.2,-0.5 -0.4,-0.5 -0.9,-0.1 -1.4,0.4 M 1168.6,50.8 1168,50.6 h -1.3 l 4.7,-4.3 m -6.8,2.2 0.8,0.5 1.1,-0.2 1.3,-0.8 0.6,-0.6 0.9,-1.2 0.3,-1.1 -0.4,-0.8 -0.4,-0.5 -0.8,-0.4 -1.1,0.1 -1.3,0.8 -0.7,0.6 -0.9,1.3 -0.2,1 0.4,0.9 0.3,0.3 m -28.8,-17.6 v 0.7 l 0.2,1.2 -5.3,-3.4 m 3.7,3.7 v 0.6 l 0.2,1.3 -5.3,-3.4"
       id="nums_003"
       stroke="#000000"
       stroke-width="1" />
    <path
       d="m 1118.2,258.1 -7.2,-49.8 27.9,1.4 14.5,-52.3 -31.6,-12.9 -46.1,-45.1 40.9,-51.3 24.1,-37.7 60.6,65.9 6.9,36.4 15,-33.8 82.1,-35.8 0.3,26.9 -17,35.2 44.9,16 -11.5,56.8 -24.8,39.2 45.4,-9.6 43.5,159.3 -0.6,-165.1 21.4,-53.9 -44.7,-16.8 -14.3,-36.4 -14,-22.9 82,-18.8 113.3,6.8 49.8,-23.2 1.3,131.6 -51.7,87.8 -95.2,49 52.3,56.3 31.3,29.2 -24.3,68.3 18.4,54.5 -48.7,14.1 -57.5,15.6 -0.6,-22.9 42.6,-68.9 -76.3,27.2 -17.9,14.3 -33.9,31.7 46.3,-3.6 -18.3,56.7 -50.4,5.9 -29.4,49.5 -71.8,-9.3 -58.1,-8.1 -3.9,-79.5 93.7,20.6 33.5,-49.1 34.2,-62.1 18.4,-124.3 -28.8,-35.9 -40.1,-26.3 -33.7,-41.4 -25.5,18.4 -36.3,35.1 z"
       id="coupes_003"
       stroke="#ff0000"
       stroke-width="1.27"
       sodipodi:nodetypes="cccccccccccccccccccccccccccccccccccccccccccccccccccccccccc" />
    <path
       d="m 1294.6,445.4 24.2,79 m 0,0 -58.4,-16.9 m 58.4,16.9 -22.4,59 m 0,0 -36,-75.9 m 36,75.9 -69.5,-26.8 m 91.9,-32.2 28,53.1 m -52.2,-132.1 58.1,47.3 M 1313,321.1 1370.6,478.4 M 1267,632.9 1226.9,556.6 m 86.1,-235.5 73.1,45.8 m 0,0 -15.5,111.5 m 15.5,-111.5 60.8,84.3 M 1313,321.1 1297.2,217.2 m 88.9,149.7 47.3,-61.9 m 0,0 13.5,146.2 m 45.8,7.6 -45.8,-7.6 m 38.8,-89.9 7,97.5 m -107.2,-257 47.9,103.2 M 1406.9,147.9 1528.6,256 m -121.7,-108.1 173.4,20.3 m -51.1,-108.4 51.1,108.4 m -173.4,-20.3 122.3,-88.1 m -181.3,34.9 181.3,-34.9 m -245,225.4 13,-68 m -53.1,41.7 53.1,-41.7 m -89,-104.5 89,104.5 m -74,-138.3 74,138.3 m -74,-138.3 65.4,26.3 m -78.2,112.3 -2.2,-104.8 m 2.2,104.8 -57,-60.1 m 0,0 54.8,-44.7 m -86.4,31.8 86.4,-31.8 M 1075.7,99.4 1201.3,76.3 m -84.7,-28.2 84.7,28.2 m 9.1,141.2 -71.5,-7.8 m -20.7,48.4 20.7,-48.4 m 323.5,317.7 -15.5,-76.2 m 45.8,7.6 -30.3,68.6 m 0,0 -58.1,-7.3"
       id="plisM_003"
       stroke="#a52a2a"
       stroke-dasharray="4" />
    <path
       d="m 1294.6,445.4 76,33 m -175.4,145.2 31.7,-67 m -31.7,67 -62,-87.6 M 1313,321.1 1342.6,207.6 m 90.8,97.4 59.3,153.8 m -85.8,-310.9 26.5,157.1 m -26.5,-157.1 -59,-53.2 m 0,0 68,-41.7 m -171.8,205.9 -35.9,-146.2 m 80.4,-7.5 8.6,112 m 8.1,-174.1 -16.7,62.1 m -166.8,39.3 79.5,-68.2 m 87.3,28.9 33.4,72.8 m -137.1,57.9 -46,-26.2 m 46,26.2 -66.7,22.2"
       id="plisV_003"
       stroke="#008000"
       stroke-dasharray="4, 1, 1, 1"
       stroke-width="1.27" />
    <path
       d="m 1330.6,459.9 4,4 m 0,-4 -4,4 m -121.5,124.2 4,4 m 0,-4 -4,4 m -46.9,-14.3 4,4 m 0,-4 -4,4 m 163.6,-319.4 4,4 m 0,-4 -4,4 m 135.2,113.5 4,4 m 0,-4 -4,4 m -42.9,-159.5 4,4 m 0,-4 -4,4 m -42.7,-109.1 4,4 m 0,-4 -4,4 m 4.5,-51.4 4,4 m 0,-4 -4,4 m -155.8,107.9 4,4 m 0,-4 -4,4 m 66.8,-28.6 4,4 m 0,-4 -4,4 m 4.1,-91 4,4 m 0,-4 -4,4 m -135.4,32.2 4,4 m 0,-4 -4,4 m 143.7,27.2 4,4 m 0,-4 -4,4 m -143.4,77.2 4,4 m 0,-4 -4,4 m -10.3,20.2 4,4 m 0,-4 -4,4"
       id="marqueV_003"
       stroke="#008000" />
    <path
       d="m 1294,262.1 h 8.3 l -4.5,6 h 2.2 l 1.5,0.8 0.8,0.7 0.7,2.3 v 1.5 l -0.7,2.2 -1.5,1.5 -2.3,0.8 h -2.2 l -2.3,-0.8 -0.7,-0.7 -0.8,-1.5"
       id="titre_3"
       stroke="#4b0082" />
  </g>
  <g
     id="page_004">
    <path
       d="m 1831.7,177.1 -0.5,0.4 -0.1,1 0.2,0.5 0.5,0.8 1.1,0.3 1.5,-0.1 1.4,-0.4 1.1,-0.6 0.4,-0.7 0.1,-1 -0.1,-0.3 -0.5,-0.8 -0.8,-0.4 h -0.9 l -0.3,0.1 -0.8,0.5 -0.4,0.7 -0.1,1 0.1,0.3 0.6,0.8 0.7,0.4 h 0.9 m -4.4,-8 h 0.9 l 0.8,0.4 0.5,0.8 0.1,0.3 -0.1,1 -0.4,0.7 -0.8,0.5 -0.2,0.1 h -1 l -0.7,-0.4 -0.6,-0.8 v -0.3 -1 l 0.4,-0.7 1.1,-0.6 1.4,-0.4 1.6,-0.2 1,0.4 0.5,0.8 0.2,0.5 -0.1,1 -0.5,0.4 m -118.3,105.3 0.7,-0.3 0.3,-0.9 0.1,-0.6 -0.2,-0.9 -0.9,-0.7 -1.4,-0.4 -1.5,-0.1 -1.2,0.1 -0.7,0.6 -0.4,0.9 v 0.3 l 0.2,0.9 0.6,0.6 0.8,0.4 h 0.3 l 0.9,-0.2 0.7,-0.5 0.4,-0.9 v -0.3 l -0.2,-0.9 -0.5,-0.7 -0.9,-0.3 m 3.6,6 -0.3,3.2 -2.2,-2 -0.1,0.9 -0.3,0.6 -0.3,0.3 -1,0.2 -0.6,-0.1 -0.8,-0.4 -0.6,-0.6 -0.2,-0.9 0.1,-0.9 0.4,-0.9 0.3,-0.3 0.6,-0.2 m 172.2,-8.3 -0.5,0.4 v 1 l 0.2,0.6 0.5,0.7 1,0.4 1.5,-0.1 1.5,-0.5 1.1,-0.6 0.4,-0.7 v -1 l -0.1,-0.3 -0.5,-0.7 -0.7,-0.4 -1,-0.1 -0.3,0.1 -0.8,0.5 -0.4,0.8 v 0.9 l 0.1,0.3 0.5,0.8 0.7,0.4 h 1 m -6.4,-7.1 0.8,2.9 2.7,-0.5 -0.4,-0.2 -0.5,-0.8 -0.3,-0.8 0.1,-1 0.4,-0.7 0.8,-0.6 0.6,-0.1 h 0.9 l 0.7,0.4 0.6,0.8 0.2,0.9 v 0.9 l -0.2,0.4 -0.5,0.5 m -31.2,26.4 -0.5,-0.5 -0.9,-0.1 -0.6,0.2 -0.8,0.5 -0.3,1 0.1,1.6 0.4,1.4 0.6,1.1 0.7,0.4 0.9,0.1 0.3,-0.1 0.8,-0.5 0.4,-0.8 0.1,-0.9 -0.1,-0.3 -0.5,-0.8 -0.7,-0.4 -1,-0.1 -0.3,0.1 -0.8,0.5 -0.4,0.8 v 0.9 m 7.5,-5.4 -0.5,-0.5 -0.9,-0.1 -0.6,0.2 -0.8,0.5 -0.3,1 v 1.6 l 0.4,1.4 0.6,1.1 0.8,0.4 0.9,0.1 0.3,-0.1 0.8,-0.5 0.4,-0.8 0.1,-0.9 -0.1,-0.3 -0.5,-0.8 -0.8,-0.4 -0.9,-0.1 -0.3,0.1 -0.8,0.5 -0.4,0.8 -0.1,0.9 m 4.2,15.2 0.4,0.5 0.9,0.2 0.6,-0.1 0.9,-0.5 0.4,-0.9 0.1,-1.6 -0.2,-1.5 -0.5,-1.1 -0.7,-0.5 -0.9,-0.2 -0.3,0.1 -0.9,0.4 -0.5,0.7 -0.1,0.9 v 0.3 l 0.4,0.9 0.7,0.5 1,0.1 h 0.3 l 0.8,-0.4 0.5,-0.7 0.2,-1 m -8.1,4.6 0.4,0.6 0.9,0.1 0.6,-0.1 0.9,-0.4 0.4,-1 0.1,-1.5 -0.2,-1.5 -0.5,-1.1 -0.7,-0.5 -0.9,-0.2 -0.3,0.1 -0.9,0.4 -0.5,0.7 -0.1,0.9 v 0.3 l 0.5,0.9 0.6,0.5 1,0.1 h 0.3 l 0.8,-0.5 0.5,-0.7 0.2,-0.9 m 24.9,34.2 6,3.7 m -6.4,0.4 0.4,-4.1 m 0.4,-3 0.2,1 0.8,0.7 1.4,0.4 0.9,0.1 1.6,-0.1 0.9,-0.5 0.4,-0.9 0.1,-0.6 -0.2,-0.9 -0.8,-0.7 -1.5,-0.5 -0.9,-0.1 -1.5,0.2 -1,0.5 -0.4,0.8 v 0.5 m -27.5,57.9 1.1,6.9 m -4.6,-4.6 3.5,-2.3 m 1.7,0.5 0.3,-0.6 0.2,-1.2 3.6,5.2 M 1813.6,65.5 v -7 m 3.8,5.2 -3.8,1.8 m -4.7,2.2 v -6.9 m 3.8,5.2 -3.8,1.7 m 28.6,58.5 2.9,6.4 m -5.6,-3.2 2.7,-3.2 m 3.8,-3 -0.7,-0.2 -0.8,0.5 -0.4,0.5 -0.3,0.9 0.3,1 0.9,1.2 1.2,1 1.1,0.5 h 0.8 l 0.8,-0.5 0.2,-0.3 0.4,-0.8 -0.1,-0.9 -0.5,-0.8 -0.2,-0.2 -0.9,-0.3 h -0.8 l -0.9,0.5 -0.1,0.2 -0.4,0.9 0.1,0.9 0.5,0.8 m -79.6,-53.8 0.9,-0.2 0.3,-0.6 0.1,-0.6 -0.3,-0.6 -0.6,-0.4 -1.2,-0.3 -0.8,-0.4 -0.6,-0.6 -0.2,-0.7 V 69 l 0.4,-0.5 0.3,-0.3 0.9,-0.3 1.2,0.1 0.9,0.4 0.2,0.3 0.3,0.6 -0.1,0.9 -0.3,0.6 -0.6,0.6 -1,0.2 -1.2,0.2 -0.6,0.3 -0.3,0.5 -0.1,0.6 0.3,0.7 0.9,0.3 1.3,0.1 m -5.8,-0.4 0.9,-0.2 0.7,-0.9 0.4,-1.5 0.1,-0.8 -0.2,-1.6 -0.6,-0.9 -0.8,-0.4 h -0.6 l -1,0.2 -0.6,0.9 -0.4,1.5 -0.1,0.9 0.2,1.5 0.5,0.9 0.9,0.4 h 0.5 m 113.8,380.2 6.1,-3.4 m -2.6,5.9 -3.5,-2.5 m -3.9,-2.7 2.5,1.7 1.8,-2 -0.4,0.1 -0.9,-0.3 -0.8,-0.5 -0.5,-0.8 -0.2,-0.8 0.3,-0.9 0.4,-0.5 0.7,-0.6 0.9,-0.1 0.9,0.2 0.7,0.6 0.6,0.7 v 0.4 l -0.1,0.7 m -15.5,51.9 -0.9,-0.1 -0.6,0.3 -0.3,0.5 v 0.7 l 0.4,0.6 0.8,0.8 0.7,0.7 0.2,0.9 -0.1,0.6 -0.4,0.8 -0.6,0.4 -0.4,0.1 -0.9,-0.2 -1,-0.6 -0.7,-0.7 -0.1,-0.4 0.1,-0.7 0.4,-0.8 0.6,-0.3 0.8,-0.3 0.9,0.2 1.2,0.4 h 0.7 l 0.5,-0.4 0.3,-0.5 0.1,-0.6 -0.6,-0.8 -1.2,-0.6 m 2.7,3.2 h 0.6 l 1.3,-0.3 -3.2,5.4 m -19,37.2 0.6,0.7 0.6,0.1 0.6,-0.2 0.4,-0.5 0.1,-0.7 -0.2,-1.2 v -1 l 0.3,-0.8 0.4,-0.5 0.9,-0.3 h 0.6 l 0.4,0.2 0.6,0.7 0.5,1.1 0.1,1 -0.2,0.4 -0.4,0.5 -0.9,0.3 h -0.7 l -0.7,-0.4 -0.6,-0.7 -0.8,-1 -0.5,-0.4 -0.7,-0.1 -0.5,0.3 -0.5,0.5 0.1,0.9 0.5,1.3 m -0.3,-4.8 -0.3,0.1 h -0.6 l -0.4,-0.2 -0.5,-0.4 -0.5,-1.1 0.1,-0.7 0.1,-0.4 0.5,-0.5 0.5,-0.2 h 0.7 l 1.1,0.2 3.9,1.7 -1.6,-3.9 m -44.2,41.8 -0.9,0.3 -0.3,0.6 v 0.6 l 0.3,0.6 0.6,0.3 1.2,0.3 0.9,0.3 0.6,0.6 0.3,0.6 -0.1,0.9 -0.3,0.6 -0.3,0.3 -0.9,0.3 h -1.2 l -0.9,-0.3 -0.3,-0.3 -0.3,-0.6 0.1,-0.9 0.3,-0.6 0.6,-0.6 0.9,-0.3 1.2,-0.3 0.6,-0.3 0.3,-0.6 v -0.6 l -0.3,-0.6 -0.9,-0.3 h -1.4 m 4.6,0 3.3,0.1 -1.8,2.3 0.9,0.1 0.6,0.3 0.3,0.3 0.3,0.9 v 0.6 l -0.3,0.9 -0.6,0.6 -0.9,0.2 h -0.9 l -0.9,-0.3 -0.3,-0.3 -0.3,-0.6 m 178.2,-72 0.6,0.7 h 0.7 l 0.5,-0.2 0.5,-0.5 v -0.7 l -0.2,-1.2 -0.1,-0.9 0.4,-0.8 0.4,-0.5 0.8,-0.4 0.7,0.1 0.4,0.1 0.6,0.7 0.5,1.1 0.1,1 -0.2,0.4 -0.4,0.5 -0.9,0.3 h -0.6 l -0.8,-0.3 -0.6,-0.7 -0.8,-1 -0.5,-0.5 h -0.7 l -0.5,0.2 -0.5,0.6 0.1,0.9 0.5,1.2 m -2.1,-7.3 -0.4,0.5 v 1 l 0.3,0.5 0.6,0.7 1.1,0.2 1.5,-0.3 1.3,-0.6 1,-0.7 0.3,-0.8 v -1 l -0.2,-0.2 -0.6,-0.8 -0.8,-0.3 -0.9,0.1 -0.3,0.1 -0.7,0.7 -0.3,0.7 0.1,1 0.1,0.3 0.6,0.7 0.8,0.3 0.9,-0.1 m -42.9,-39 0.6,-6.9 m 3.3,5.5 -3.9,1.4 m -4,1.6 1.3,-5 -4.2,1.6 m 2.9,3.4 -2.2,-5.9 m 107.5,62.8 0.8,0.4 0.6,0.7 0.2,0.9 -0.1,0.3 -0.4,0.9 -0.7,0.5 -0.9,0.2 h -0.3 l -0.8,-0.5 -0.6,-0.6 -0.2,-0.9 0.1,-0.3 0.4,-0.9 0.7,-0.5 1.2,-0.2 1.5,0.2 1.4,0.5 0.8,0.7 0.2,0.9 v 0.6 l -0.4,0.9 -0.7,0.2 m -3.4,-5.1 -0.2,-0.7 -0.8,-1 6.3,0.8 m -27.8,-27.5 -0.3,-0.9 -0.6,-0.3 h -0.6 l -0.6,0.3 -0.3,0.6 -0.3,1.2 -0.3,0.9 -0.6,0.6 -0.6,0.3 h -0.9 l -0.6,-0.3 -0.3,-0.3 -0.3,-0.9 v -1.2 l 0.3,-0.9 0.3,-0.3 0.6,-0.3 h 0.9 l 0.6,0.3 0.6,0.6 0.3,0.9 0.3,1.2 0.3,0.6 0.6,0.3 h 0.6 l 0.6,-0.3 0.3,-0.9 v -1.4 m -0.9,7.7 0.6,-0.3 0.3,-1 V 502 l -0.3,-0.8 -0.9,-0.6 -1.5,-0.3 h -1.5 l -1.2,0.3 -0.6,0.6 -0.3,0.9 v 0.3 l 0.3,0.9 0.6,0.6 0.9,0.3 h 0.3 l 0.9,-0.3 0.6,-0.6 0.3,-0.9 v -0.3 l -0.3,-0.9 -0.6,-0.6 -0.9,-0.3 m 37.9,-60.7 0.2,0.9 0.5,0.4 0.6,0.1 0.7,-0.2 0.4,-0.5 0.5,-1.2 0.4,-0.8 0.7,-0.5 0.6,-0.2 0.9,0.1 0.6,0.4 0.2,0.4 0.2,0.9 -0.2,1.2 -0.5,0.8 -0.3,0.3 -0.7,0.2 -0.9,-0.2 -0.5,-0.4 -0.5,-0.6 -0.1,-1 -0.1,-1.2 -0.2,-0.7 -0.6,-0.4 -0.6,-0.1 -0.6,0.2 -0.5,0.9 -0.2,1.3 m 1.3,-7.9 5.8,4 m -6.4,0.1 0.6,-4.1 m -14.7,-77.8 0.7,0.6 0.7,-0.1 0.5,-0.3 0.3,-0.6 -0.1,-0.7 -0.4,-1.1 -0.3,-1 0.2,-0.8 0.3,-0.6 0.7,-0.5 0.7,-0.1 0.4,0.1 0.8,0.6 0.7,1 0.2,0.9 v 0.4 l -0.4,0.6 -0.7,0.5 -0.7,0.1 -0.8,-0.2 -0.8,-0.5 -0.9,-0.9 -0.6,-0.3 -0.6,0.1 -0.5,0.3 -0.4,0.6 0.3,0.9 0.8,1.2 m -4.1,-5.9 5.1,0.1 -2.5,-3.7 m -2.6,3.6 5.1,-3.6 m -11.3,232.3 0.6,0.6 0.3,0.8 -0.2,1 -0.1,0.2 -0.7,0.7 -0.8,0.3 -0.9,-0.2 -0.3,-0.1 -0.6,-0.7 -0.3,-0.8 0.1,-0.9 0.2,-0.3 0.6,-0.7 0.8,-0.2 1.3,0.3 1.3,0.6 1.2,1 0.5,0.9 -0.1,1 -0.3,0.5 -0.7,0.7 h -0.6 m -1.1,-6.5 -0.3,-0.1 -0.4,-0.6 -0.1,-0.4 v -0.6 l 0.5,-1.1 0.6,-0.4 0.4,-0.2 0.6,0.1 0.6,0.2 0.4,0.6 0.5,0.9 1.3,4 1.9,-3.7 m -15.2,14.3 -0.6,0.8 -0.7,0.4 -0.9,0.1 -0.3,-0.1 -0.8,-0.5 -0.5,-0.7 v -1 -0.3 l 0.5,-0.8 0.8,-0.4 0.9,-0.1 0.3,0.1 0.8,0.5 0.4,0.7 0.1,1.3 -0.4,1.4 -0.7,1.4 -0.8,0.7 -0.9,0.1 -0.6,-0.1 -0.8,-0.6 -0.1,-0.6 m 6.4,-4 3.2,0.8 -2.3,1.9 0.9,0.2 0.5,0.5 0.2,0.3 0.1,1 -0.1,0.6 -0.5,0.8 -0.8,0.4 -0.9,0.1 -0.9,-0.2 -0.8,-0.5 -0.2,-0.4 -0.2,-0.7 m -117.1,-32.1 h -1 l -0.7,-0.4 -0.6,-0.8 -0.1,-0.3 0.1,-0.9 0.4,-0.8 0.7,-0.5 0.3,-0.1 h 1 l 0.7,0.4 0.6,0.8 0.1,0.3 -0.1,0.9 -0.4,0.8 -1,0.6 -1.5,0.4 -1.5,0.2 -1,-0.3 -0.6,-0.8 -0.2,-0.6 0.1,-0.9 0.5,-0.5 m 7.4,6 -4.8,-1.7 1.2,4.3 m 3.6,-2.6 -6,1.8 m 55.6,29.8 -0.4,0.8 -0.6,0.6 -1,0.2 h -0.3 l -0.8,-0.4 -0.6,-0.6 -0.2,-0.9 v -0.3 l 0.3,-0.9 0.7,-0.6 0.9,-0.2 h 0.3 l 0.9,0.4 0.5,0.6 0.3,1.3 -0.1,1.4 -0.5,1.5 -0.6,0.9 -0.9,0.2 h -0.6 l -0.9,-0.4 -0.3,-0.6 m 8.9,-2.7 -0.4,0.9 -0.6,0.5 -0.9,0.3 -0.3,-0.1 -0.9,-0.3 -0.6,-0.7 -0.2,-0.9 V 594 l 0.4,-0.8 0.6,-0.6 0.9,-0.2 h 0.3 l 0.9,0.3 0.6,0.7 0.2,1.2 -0.1,1.5 -0.4,1.5 -0.7,0.8 -0.9,0.3 -0.6,-0.1 -0.9,-0.3 -0.2,-0.7 m 46.2,-2 0.5,0.8 0.2,0.8 -0.3,0.9 -0.2,0.3 -0.8,0.5 -0.8,0.2 -0.9,-0.3 -0.2,-0.2 -0.6,-0.8 -0.1,-0.8 0.2,-0.9 0.2,-0.2 0.8,-0.6 0.8,-0.1 1.2,0.4 1.2,0.9 1,1.1 0.4,1 -0.3,0.9 -0.3,0.5 -0.8,0.6 -0.6,-0.1 m -1.3,-7.5 1.9,-2.7 0.9,2.9 0.5,-0.8 0.6,-0.3 h 0.4 l 1,0.2 0.4,0.4 0.6,0.8 0.1,0.8 -0.2,0.9 -0.6,0.7 -0.7,0.6 -0.5,0.1 -0.6,-0.1 m -69.5,-234.6 v -7 m 3.8,5.2 -3.8,1.8 m -1.5,-0.8 -0.5,0.5 -0.4,1.2 -2.7,-5.7 m 49,72.1 -3.6,5.9 m -0.6,-6.3 4.2,0.4 m 4.2,0.3 -3.4,3.9 4.5,0.5 m -1.1,-4.4 -0.6,6.3 m -49.6,-40.2 -6.9,1.2 m 4.5,-4.6 2.4,3.4 m 2.7,3.9 -1.7,-2.4 -2.4,1.3 h 0.5 l 0.7,0.6 0.5,0.7 0.3,0.9 -0.1,0.9 -0.6,0.7 -0.5,0.4 -0.9,0.3 -0.8,-0.2 -0.8,-0.5 -0.5,-0.8 -0.3,-0.9 0.1,-0.4 0.3,-0.6 m -233.5,-11.6 -2.2,-2 -2,1.8 h 0.4 l 0.9,0.4 0.6,0.6 0.5,0.8 0.1,0.8 -0.4,0.9 -0.4,0.5 -0.8,0.4 -0.9,0.1 -0.8,-0.4 -0.7,-0.6 -0.5,-0.8 V 390 l 0.2,-0.7 m 7.8,0.1 2.5,2.2 -3,0.6 0.7,0.6 0.2,0.7 0.1,0.4 -0.4,0.8 -0.4,0.5 -0.8,0.5 h -0.9 l -0.8,-0.3 -0.7,-0.6 -0.5,-0.9 v -0.4 l 0.2,-0.6 m -17.5,-54.2 0.5,0.4 h 0.9 l 0.6,-0.3 0.7,-0.6 0.2,-1.1 -0.3,-1.5 -0.6,-1.3 -0.8,-1 -0.7,-0.4 -1,0.1 -0.3,0.1 -0.7,0.7 -0.3,0.8 0.1,0.9 0.1,0.3 0.6,0.7 0.8,0.3 0.9,-0.1 0.3,-0.1 0.7,-0.6 0.4,-0.8 -0.1,-0.9 m -5.9,7.1 1.1,-5.1 -4.1,1.8 m 3,3.3 -2.5,-5.8 m 56.8,220.8 -1.7,-2.5 -2.4,1.3 0.4,0.1 0.8,0.5 0.5,0.8 0.3,0.9 -0.2,0.8 -0.6,0.8 -0.4,0.3 -1,0.3 -0.8,-0.2 -0.8,-0.5 -0.5,-0.8 -0.2,-0.9 v -0.4 l 0.4,-0.6 m 9.3,4.4 -1.8,-2.4 -2.3,1.3 h 0.4 l 0.7,0.6 0.5,0.7 0.3,1 -0.1,0.8 -0.6,0.8 -0.5,0.3 -0.9,0.3 -0.8,-0.2 -0.8,-0.5 -0.5,-0.8 -0.3,-0.9 0.1,-0.4 0.3,-0.6 m 9.6,-68.3 1.2,-2.8 -2.3,-1.3 0.1,0.3 v 1 l -0.4,0.8 -0.6,0.7 -0.8,0.3 -1,-0.1 -0.5,-0.2 -0.7,-0.6 -0.3,-0.8 0.1,-1 0.3,-0.8 0.7,-0.7 0.3,-0.1 0.7,-0.1 m 1.3,9.9 -2.6,-4.5 -1.8,4.2 m 4.4,0.3 -5.7,-2.6 m 9,-337 -3.3,4 4.5,0.2 m -1.2,-4.2 -0.4,6.2 m 6.8,-3.7 -0.4,0.9 -0.6,0.6 -0.9,0.2 h -0.3 l -0.9,-0.4 -0.5,-0.6 -0.3,-0.9 v -0.3 l 0.4,-0.9 0.6,-0.6 0.9,-0.2 h 0.3 l 0.9,0.4 0.6,0.6 0.2,1.2 -0.1,1.5 -0.4,1.5 -0.6,0.9 -1,0.2 h -0.6 l -0.8,-0.4 -0.3,-0.6 m -52.7,-12.8 -3,-0.6 -0.8,2.6 0.4,-0.2 0.9,-0.1 0.9,0.1 0.8,0.5 0.5,0.7 0.1,0.9 -0.1,0.6 -0.4,0.8 -0.7,0.5 -1,0.2 -0.8,-0.2 -0.9,-0.5 -0.2,-0.3 -0.2,-0.7 m 10.2,-3.3 -4.1,5.7 m -0.1,-6.4 4.2,0.7 m -38.2,-30.8 0.5,-0.5 0.1,-0.9 -0.2,-0.6 -0.5,-0.8 -1,-0.3 -1.6,0.1 -1.4,0.3 -1.1,0.6 -0.4,0.8 -0.1,0.9 0.1,0.3 0.5,0.8 0.7,0.4 1,0.1 0.3,-0.1 0.8,-0.5 0.4,-0.7 0.1,-1 -0.1,-0.3 -0.5,-0.8 -0.8,-0.4 -0.9,-0.1 m 4,4.7 h 0.3 l 0.7,0.1 0.3,0.2 0.5,0.5 0.3,1.2 -0.2,0.6 -0.2,0.4 -0.5,0.4 -0.6,0.2 -0.6,-0.1 -1,-0.4 -3.7,-2.1 1.1,4 m 40.6,-42.8 -0.5,0.5 -0.6,1.1 -2,-5.9 m -2.7,6.8 0.5,0.5 h 0.9 l 0.6,-0.2 0.8,-0.6 0.2,-1.1 -0.2,-1.5 -0.4,-1.4 -0.7,-1 -0.8,-0.4 h -0.9 l -0.3,0.1 -0.8,0.6 -0.3,0.7 v 1 l 0.1,0.3 0.5,0.7 0.8,0.4 h 1 l 0.2,-0.1 0.8,-0.6 0.4,-0.7 v -1 m 187.9,118.4 0.4,0.5 h 1 l 0.5,-0.1 0.8,-0.5 0.4,-1.1 -0.1,-1.5 -0.4,-1.4 -0.6,-1.1 -0.7,-0.5 h -1 l -0.3,0.1 -0.8,0.5 -0.4,0.7 -0.1,1 0.1,0.3 0.5,0.8 0.8,0.4 h 0.9 0.3 l 0.8,-0.6 0.4,-0.7 0.1,-0.9 m -7.7,6.4 1.3,-6.9 m 2.7,5.8 -4,1.1 m 13.8,13.2 -0.6,0.2 -0.4,0.8 -0.1,0.6 0.1,1 0.8,0.7 1.4,0.5 1.5,0.3 1.3,-0.1 0.6,-0.5 0.5,-0.9 v -0.3 l -0.1,-0.9 -0.5,-0.7 -0.9,-0.4 -0.3,-0.1 -0.9,0.2 -0.7,0.5 -0.4,0.8 -0.1,0.3 0.2,0.9 0.5,0.7 0.8,0.5 m -3.1,-7.2 0.2,1 0.5,0.4 h 0.6 l 0.6,-0.2 0.4,-0.5 0.5,-1.1 0.5,-0.9 0.6,-0.5 0.7,-0.2 0.9,0.2 0.5,0.4 0.3,0.3 0.1,0.9 -0.2,1.2 -0.4,0.9 -0.3,0.2 -0.7,0.2 -0.9,-0.1 -0.5,-0.4 -0.5,-0.7 -0.2,-0.9 -0.1,-1.3 -0.2,-0.6 -0.5,-0.4 -0.6,-0.1 -0.7,0.2 -0.4,0.8 -0.2,1.4 m 71.4,82.3 -6.9,-1.1 m 5.7,-2.9 1.2,4 m 0.8,2.8 -0.6,-0.8 -1,-0.3 -1.5,0.1 -0.9,0.3 -1.3,0.7 -0.7,0.8 -0.1,1 0.2,0.6 0.6,0.7 1,0.4 1.5,-0.2 0.9,-0.2 1.3,-0.7 0.7,-0.9 0.1,-0.9 -0.2,-0.4 m 39.4,-63 3,-6.3 m 1.2,6.4 -4.2,-0.1 m -1.7,-1.5 v 0.3 l -0.3,0.6 -0.3,0.3 -0.6,0.3 h -1.2 l -0.6,-0.3 -0.3,-0.3 -0.3,-0.6 v -0.6 l 0.3,-0.6 0.6,-0.9 3,-3 h -4.2 m 32.4,29 7,-0.3 m -5,4 -2,-3.7 m -1.2,-2.3 0.6,0.6 h 0.7 l 0.5,-0.3 0.4,-0.5 v -0.7 l -0.3,-1.2 -0.1,-0.9 0.2,-0.8 0.4,-0.6 0.8,-0.4 h 0.7 l 0.4,0.1 0.7,0.6 0.5,1.1 0.2,0.9 -0.1,0.4 -0.4,0.6 -0.8,0.4 h -0.7 l -0.8,-0.2 -0.7,-0.7 -0.8,-0.9 -0.6,-0.4 h -0.6 l -0.6,0.3 -0.4,0.6 0.2,0.9 0.6,1.2 m 2.3,32.6 2.7,6.4 m -5.5,-3.3 2.8,-3.1 m 5,-2.4 0.5,0.9 v 0.8 l -0.4,0.9 -0.2,0.2 -0.8,0.5 h -0.9 l -0.8,-0.4 -0.3,-0.2 -0.4,-0.8 -0.1,-0.8 0.4,-0.9 0.2,-0.2 0.9,-0.5 h 0.8 l 1.1,0.5 1.1,1.1 0.9,1.2 0.3,1 -0.4,0.9 -0.4,0.4 -0.8,0.5 -0.7,-0.2 m -170.5,-224.9 4.9,-5 m -0.9,6.3 -4,-1.3 m -2.5,-0.9 h 0.9 l 0.5,-0.4 0.2,-0.6 -0.1,-0.7 -0.5,-0.4 -1,-0.7 -0.8,-0.6 -0.3,-0.7 -0.1,-0.7 0.3,-0.9 0.4,-0.4 0.4,-0.2 h 1 l 1.1,0.4 0.8,0.6 0.2,0.3 v 0.7 l -0.2,0.8 -0.5,0.5 -0.8,0.4 h -0.9 l -1.3,-0.1 -0.6,0.1 -0.5,0.4 -0.2,0.6 0.1,0.7 0.7,0.6 1.3,0.4 m 10.7,22.3 4,5.8 m -6.1,-2.2 2.1,-3.6 m 0.9,-1.5 1.7,-2.9 1.1,2.8 0.5,-0.8 0.6,-0.3 0.4,-0.2 0.9,0.2 0.5,0.3 0.6,0.7 0.3,0.9 -0.2,0.9 -0.5,0.8 -0.7,0.6 -0.4,0.1 h -0.7 m 61.1,139.8 0.5,-0.5 -0.1,-0.9 -0.2,-0.6 -0.6,-0.7 -1.1,-0.3 -1.5,0.3 -1.4,0.6 -1,0.7 -0.3,0.8 v 0.9 l 0.1,0.3 0.7,0.7 0.7,0.4 1,-0.1 0.3,-0.1 0.7,-0.6 0.3,-0.8 v -0.9 l -0.1,-0.3 -0.6,-0.7 -0.8,-0.4 -1,0.1 m 7.1,6.5 -1.1,-2.8 -2.6,0.7 0.4,0.1 0.6,0.8 0.3,0.8 0.1,1 -0.4,0.7 -0.7,0.6 -0.6,0.3 h -0.9 l -0.8,-0.3 -0.6,-0.7 -0.3,-0.9 -0.1,-0.9 0.2,-0.4 0.4,-0.5 m 7.4,-46.3 h 0.7 l 0.7,-0.7 0.2,-0.5 0.1,-1 -0.5,-0.9 -1.3,-0.9 -1.3,-0.6 -1.2,-0.3 -0.8,0.3 -0.7,0.7 -0.1,0.3 -0.1,0.9 0.3,0.8 0.6,0.7 0.3,0.1 1,0.1 0.8,-0.3 0.6,-0.7 0.1,-0.2 0.1,-1 -0.2,-0.8 -0.7,-0.6 m 1,7.7 0.1,-1 -0.4,-0.5 -0.6,-0.2 h -0.6 l -0.6,0.4 -0.7,0.9 -0.7,0.7 -0.8,0.3 h -0.7 l -0.8,-0.3 -0.4,-0.6 -0.1,-0.4 0.1,-0.9 0.5,-1.1 0.6,-0.7 0.4,-0.1 h 0.7 l 0.8,0.3 0.4,0.6 0.3,0.8 -0.1,0.9 -0.2,1.2 v 0.7 l 0.4,0.5 0.6,0.3 0.6,-0.1 0.7,-0.6 0.6,-1.3 m 41.1,17.6 3.7,5.9 m -6,-2.4 2.3,-3.5 m 2.1,-0.6 -0.2,-0.2 -0.4,-0.6 v -0.4 -0.6 l 0.7,-1.1 0.5,-0.3 0.5,-0.1 0.6,0.1 0.5,0.3 0.4,0.6 0.4,1 0.9,4.1 2.3,-3.5 m -2.1,-37 6.7,1.8 m -6,2.3 -0.7,-4.1 m -0.3,-1.7 -0.6,-3.3 2.7,1.4 -0.2,-0.9 0.2,-0.6 0.3,-0.4 0.8,-0.4 0.6,-0.2 0.9,0.2 0.7,0.5 0.5,0.8 0.1,0.9 -0.1,0.9 -0.2,0.4 -0.6,0.4 m -20.4,-37.9 6.8,-1.5 m -4.2,4.9 -2.6,-3.4 m -2.2,-4.3 -0.3,0.6 0.3,0.9 0.4,0.5 0.8,0.5 h 1.1 l 1.3,-0.7 1.2,-0.9 0.8,-1 0.1,-0.9 -0.3,-0.9 -0.2,-0.2 -0.8,-0.5 -0.8,-0.1 -0.9,0.3 -0.3,0.2 -0.5,0.8 -0.1,0.8 0.3,0.9 0.2,0.2 0.8,0.6 0.8,0.1 0.9,-0.3 m -33,-4.3 0.4,0.5 h 1 l 0.5,-0.2 0.8,-0.5 0.3,-1 -0.1,-1.6 -0.5,-1.4 -0.6,-1.1 -0.7,-0.4 h -1 l -0.3,0.1 -0.7,0.5 -0.4,0.8 -0.1,0.9 0.1,0.3 0.6,0.8 0.7,0.4 h 1 l 0.2,-0.1 0.8,-0.5 0.4,-0.7 v -1 m -7.9,4.6 v -1 l 0.4,-0.7 0.8,-0.5 0.3,-0.1 h 0.9 l 0.8,0.4 0.5,0.8 0.1,0.3 v 0.9 l -0.4,0.8 -0.8,0.5 -0.3,0.1 h -0.9 l -0.8,-0.4 -0.6,-1.1 -0.5,-1.4 -0.1,-1.6 0.3,-1 0.8,-0.5 0.6,-0.2 h 0.9 l 0.5,0.5 m -5.7,17.2 0.2,-0.6 -0.4,-0.8 -0.4,-0.5 -0.9,-0.4 -1,0.1 -1.3,0.9 -1.1,1 -0.7,1 v 0.9 l 0.4,0.8 0.2,0.3 0.8,0.4 h 0.9 l 0.9,-0.4 0.2,-0.2 0.4,-0.8 V 135 l -0.4,-0.8 -0.2,-0.2 -0.8,-0.5 h -0.8 l -0.9,0.4 m 9.3,3.7 -6.6,2.2 m 3.7,-5.2 2.9,3 m -190.9,51.1 0.1,-5.2 -3.7,2.6 m 3.6,2.6 -3.6,-5.2 m 0.1,7.5 0.6,-0.8 -0.1,-0.6 -0.4,-0.5 -0.5,-0.4 -0.7,0.1 -1.2,0.5 -0.9,0.2 -0.8,-0.1 -0.6,-0.4 -0.5,-0.7 -0.1,-0.7 0.1,-0.4 0.6,-0.8 0.9,-0.6 1,-0.3 0.4,0.1 0.6,0.3 0.5,0.8 0.1,0.6 -0.2,0.9 -0.6,0.7 -0.8,0.9 -0.3,0.6 0.1,0.7 0.3,0.5 0.6,0.3 0.9,-0.2 1.1,-0.8 m -17.1,26.6 -4.5,-2.6 0.5,4.5 m 4,-1.9 -6.3,0.6 m 5.1,2.1 0.3,0.6 1,0.8 -6.3,0.6"
       id="nums_004"
       stroke="#000000"
       stroke-width="1" />
    <path
       d="m 1846,200.7 48.1,-12.8 -9.1,56.8 13.6,47.9 -75.8,20.3 77.6,-12 -10.1,88.1 -49.9,34.2 66.8,47.1 54.6,-20.3 47,109.9 -0.6,-119.5 -58,-5.8 -47.1,-66.7 54.7,-26 -24.9,-85.1 -18.3,-46.3 24.4,-52.1 -34.2,-36.2 53.6,-16.1 25.8,33.2 9.4,53.2 -22.5,35.2 41.8,0.2 27.7,52 -25.4,28 52.9,76.5 -17.6,105.8 -8.8,71 -17.6,34.8 -13.2,-3.2 -7.9,11 -97.1,-6.7 -20.7,-69.7 -59.4,-34.4 38.2,94.1 -126.3,-0.7 -33.7,-48.1 41.7,-95.2 -108.2,-96 68.7,-29.1 7.1,-75.8 -4.1,-42.7 47.6,-32.5 -40.7,-2.6 -63.3,-11.8 -15.2,-57.9 90.8,-31 60.6,4.2 40.3,-18.9 55.8,19 -27,46.8 -27.3,32.1 z"
       id="coupes_004"
       stroke="#ff0000"
       stroke-width="1.27"
       sodipodi:nodetypes="cccccccccccccccccccccccccccccccccccccccccccccccccccccc" />
    <path
       d="M 1846,200.7 1756.8,167 m 0,0 74,-20.1 m 15.2,53.8 -132.7,41.5 M 1846,200.7 1706.2,318 m 116.6,-5.1 -116.6,5.1 m 139.8,-117.3 39,44 m 0,0 -62.2,68.2 m 0,0 -77.1,130.2 m 0,0 -39.5,-125.1 m 194.2,-17.1 -60,122.3 m 0,0 -94.7,19.9 m 80.1,49.9 -80.1,-49.9 m 43.3,-375.2 41.8,79 m -1.5,-97.9 28.8,65.8 m 49.1,355.5 -81.4,22.7 m 81.4,-22.7 101.6,89.6 m -183,-66.9 -88.1,93.4 m 0,0 8,-143.3 m 263.1,116.8 2.1,32.9 m 0,0 -125.7,-65.4 m 123.6,32.5 32.9,1.3 m 0,0 -30.8,31.6 m -2.1,-32.9 41.7,-69.7 m -42.3,-49.8 42.3,49.8 m -42.3,-49.8 7,-132.5 m -7,132.5 -50.4,-98.5 m 50.4,98.5 -105.1,-72.5 m -250.3,-215.3 75.6,-88.9 m 242.7,164 44.1,80.2 m -57.4,34 13.3,-114.2 m -38.2,29.1 38.2,-29.1 m 41.8,0.2 2.3,80 m -100.6,-97.4 56.5,17.2 m -32.1,-69.3 32.1,69.3 m -32.1,-69.3 54.6,34.1 m -54.6,-34.1 45.2,-19.1 m -45.2,19.1 19.4,-52.3"
       id="plisM_004"
       stroke="#a52a2a"
       stroke-dasharray="4" />
    <path
       d="m 1713.3,242.2 43.5,-75.2 m 89.2,33.7 -23.2,112.2 m 77.6,-12 -154.7,142.2 m 94.7,-19.9 -14.6,69.8 m -69,-326 32.2,-99.1 m 40.3,-18.9 1.5,97.9 m -74,20.1 -28.4,-103.3 m 178.8,406.6 -22,57.1 m 123.6,32.5 -123.6,-32.5 m 123,-87 59.9,-56 m -110.3,-42.5 57.4,-34 m -4.3,284.9 -105,4.3 M 1716.1,164.4 1728.4,63.7"
       id="plisV_004"
       stroke="#008000"
       stroke-dasharray="4, 1, 1, 1"
       stroke-width="1.27" />
    <path
       d="m 1733.1,202.6 4,4 m 0,-4 -4,4 m 99.3,48.2 4,4 m 0,-4 -4,4 M 1821,370 l 4,4 m 0,-4 -4,4 m 10.1,82.1 4,4 m 0,-4 -4,4 m -60.2,-344.6 4,4 m 0,-4 -4,4 m 57.2,-23.5 4,4 m 0,-4 -4,4 m -87.5,13.4 4,4 m 0,-4 -4,4 m 153.6,379.5 4,4 m 0,-4 -4,4 m 50.8,40.8 4,4 m 0,-4 -4,4 m 91.2,-135.3 4,4 m 0,-4 -4,4 m -51.7,-91.5 4,4 m 0,-4 -4,4 m -28.1,266 4,4 m 0,-4 -4,4 m -236.1,-484.8 4,4 m 0,-4 -4,4"
       id="marqueV_004"
       stroke="#008000" />
    <path
       d="m 1870.6,270.9 -7.5,10.5 h 11.2 m -3.7,-10.5 v 15.7"
       id="titre_4"
       stroke="#4b0082" />
  </g>
  <g
     id="page_005">
    <path
       d="m 2290.1,550.2 0.5,-0.4 0.8,-1 1,6.2 m 0.7,-6.7 3.2,-0.5 -1.4,2.6 0.9,-0.1 0.6,0.2 0.4,0.2 0.4,0.9 0.1,0.6 -0.1,0.9 -0.5,0.7 -0.9,0.4 -0.9,0.2 -0.9,-0.2 -0.3,-0.2 -0.4,-0.6 m 5.9,-6.1 -0.8,0.4 -0.2,0.7 0.1,0.6 0.4,0.5 0.6,0.2 1.2,0.1 1,0.2 0.7,0.5 0.4,0.5 0.1,0.9 -0.2,0.7 -0.2,0.3 -0.9,0.4 -1.2,0.2 -0.9,-0.1 -0.4,-0.3 -0.3,-0.5 -0.2,-0.9 0.2,-0.6 0.5,-0.7 0.9,-0.5 1.1,-0.5 0.5,-0.3 0.2,-0.7 -0.1,-0.6 -0.3,-0.5 -1,-0.2 -1.3,0.2 m -136.7,-103.8 -0.4,-0.9 -0.6,-0.2 h -0.6 l -0.6,0.3 -0.2,0.6 -0.3,1.3 -0.2,0.9 -0.6,0.6 -0.5,0.3 -0.9,0.1 -0.7,-0.3 -0.3,-0.3 -0.3,-0.8 -0.1,-1.2 0.3,-1 0.2,-0.3 0.6,-0.3 0.9,-0.1 0.6,0.3 0.7,0.6 0.3,0.9 0.4,1.1 0.3,0.6 0.6,0.3 0.6,-0.1 0.6,-0.3 0.3,-0.9 -0.1,-1.4 m 0.3,5.8 -0.3,-0.8 -1,-0.6 -1.5,-0.2 -0.9,0.1 -1.5,0.3 -0.8,0.7 -0.3,0.9 0.1,0.6 0.3,0.9 1,0.5 1.5,0.2 h 0.9 l 1.4,-0.4 0.9,-0.6 0.3,-1 -0.1,-0.4 m 78.9,-62.4 0.1,0.7 0.5,1.1 -5.9,-2.3 m 4.6,6.4 -2.8,-4.3 -1.7,4.2 m 4.5,0.1 -5.9,-2.3 m 4.7,5.3 -1.2,3.1 -1.6,-2.5 -0.3,0.8 -0.5,0.4 -0.4,0.2 h -1 l -0.5,-0.3 -0.8,-0.6 -0.3,-0.7 v -1 l 0.4,-0.8 0.6,-0.8 0.4,-0.1 0.6,-0.1 m -52.7,-0.8 -0.5,-0.8 -0.1,-0.9 0.4,-0.9 0.2,-0.2 0.8,-0.5 h 0.9 l 0.9,0.3 0.2,0.2 0.5,0.9 v 0.8 l -0.3,0.9 -0.2,0.2 -0.9,0.5 h -0.8 l -1.1,-0.5 -1.1,-1 -1,-1.2 -0.3,-1.1 0.4,-0.8 0.4,-0.5 0.8,-0.5 0.7,0.2 m 25.8,9.3 -0.5,-0.5 -1.1,-0.6 6.1,-1.6 m -6.7,-0.1 -0.8,-3.2 2.7,1.2 -0.2,-0.9 0.2,-0.6 0.2,-0.4 0.8,-0.5 0.6,-0.2 0.9,0.1 0.7,0.4 0.5,0.8 0.3,0.9 -0.1,0.9 -0.2,0.4 -0.5,0.4 m -5.2,-8.2 0.9,0.1 0.7,0.4 0.6,0.8 v 0.3 1 l -0.5,0.7 -0.8,0.5 -0.2,0.1 -1,-0.1 -0.7,-0.4 -0.5,-0.8 -0.1,-0.3 v -0.9 l 0.5,-0.8 1.1,-0.6 1.4,-0.3 1.5,-0.1 1.1,0.3 0.5,0.8 0.1,0.6 v 1 l -0.5,0.4 m 51,44.4 v -0.7 l -0.5,-1.2 5.7,2.7 m -4.1,-6.7 2.5,4.5 2,-4 m -4.5,-0.5 5.7,2.7 m -3.2,-4.4 -0.1,-0.7 -0.4,-1.2 5.7,2.8 m 52.7,40.4 h -0.6 l -1.2,0.4 2.6,-5.7 m -6.6,4.2 4.4,-2.6 -4,-1.9 m -0.4,4.5 2.6,-5.7 m -7.9,3.2 4.5,-2.5 -4.1,-1.9 m -0.4,4.4 2.6,-5.7 m -28.2,2 -0.5,0.4 -0.6,1.1 -1.7,-6 m -2.3,7.5 1.7,-4.9 -4.3,1.3 m 2.6,3.6 -1.8,-6.1 m -1.7,5.5 0.1,0.3 -0.1,0.6 -0.2,0.4 -0.5,0.4 -1.2,0.4 -0.6,-0.1 -0.4,-0.2 -0.5,-0.5 -0.1,-0.6 0.1,-0.7 0.3,-1 2.1,-3.7 -4.1,1.1 m -14,-123.4 0.1,0.7 0.7,1.1 -6.1,-1.5 m 5.3,5.7 -3.3,-3.9 -1.1,4.4 m 4.4,-0.5 -6.1,-1.5 m 3.7,7.3 0.6,-0.1 0.5,-0.8 0.2,-0.6 -0.1,-0.9 -0.7,-0.8 -1.4,-0.7 -1.5,-0.3 h -1.2 l -0.7,0.4 -0.5,0.8 -0.1,0.3 0.1,0.9 0.4,0.8 0.8,0.5 h 0.3 1 l 0.7,-0.5 0.5,-0.8 0.1,-0.3 -0.1,-0.9 -0.5,-0.7 -0.8,-0.5 m 46.8,49 0.6,-0.3 1,-0.8 -0.2,6.3 m 4.5,-6.5 -3.1,4.1 4.5,0.1 m -1.4,-4.2 -0.2,6.3 m 6.8,-6.2 -3.1,6.3 m -1.1,-6.3 h 4.2 m 141.9,219.8 1,0.1 0.7,0.5 0.4,0.8 0.1,0.3 -0.2,1 -0.4,0.7 -0.9,0.4 -0.3,0.1 -0.9,-0.2 -0.7,-0.4 -0.5,-0.9 v -0.3 l 0.1,-0.9 0.5,-0.7 1.1,-0.5 1.5,-0.3 h 1.5 l 1,0.5 0.5,0.8 0.1,0.6 -0.1,0.9 -0.6,0.4 m -4.8,-7.9 0.9,0.2 0.7,0.4 0.5,0.9 0.1,0.3 -0.2,0.9 -0.5,0.7 -0.8,0.5 h -0.3 l -0.9,-0.1 -0.7,-0.5 -0.5,-0.8 v -0.3 l 0.1,-1 0.5,-0.7 1.1,-0.5 1.5,-0.3 1.5,0.1 1,0.4 0.5,0.8 0.1,0.6 -0.2,1 -0.5,0.4 m -150.1,-245.9 0.3,-0.6 0.2,-1.2 3.9,4.9 m -0.8,-7.8 0.3,5.1 3.5,-2.8 m -3.8,-2.3 4,4.9 m -0.7,-7.5 -0.5,0.8 0.1,0.7 0.4,0.4 0.6,0.3 0.7,-0.1 1.1,-0.5 0.9,-0.4 0.8,0.1 0.6,0.3 0.6,0.7 0.2,0.7 -0.1,0.4 -0.5,0.8 -0.9,0.7 -0.9,0.4 -0.5,-0.1 -0.6,-0.3 -0.5,-0.7 -0.2,-0.6 0.1,-0.9 0.5,-0.8 0.8,-1 0.3,-0.6 -0.2,-0.6 -0.4,-0.5 -0.6,-0.3 -0.9,0.4 -1,0.8 m 14.3,16 -0.4,0.5 -0.5,1.2 -2.3,-5.9 m -1.6,7.7 1.2,-5 -4.1,1.6 m 2.9,3.4 -2.3,-5.9 m -1.6,7.3 0.7,-0.6 0.1,-0.6 -0.2,-0.6 -0.5,-0.4 -0.7,-0.1 -1.2,0.2 h -1 l -0.7,-0.3 -0.5,-0.5 -0.4,-0.8 0.1,-0.7 0.2,-0.4 0.7,-0.6 1.1,-0.4 0.9,-0.1 0.4,0.2 0.5,0.4 0.4,0.9 -0.1,0.7 -0.3,0.7 -0.8,0.6 -1,0.8 -0.4,0.5 -0.1,0.6 0.2,0.6 0.5,0.4 h 1 l 1.2,-0.5 m -6.4,-36.5 -0.6,-0.3 -1.2,-0.4 5.5,-3.1 m -8,-0.9 1.5,2.6 2.5,-1.1 -0.5,-0.1 -0.7,-0.6 -0.4,-0.8 -0.2,-0.9 0.3,-0.8 0.6,-0.7 0.5,-0.3 1,-0.2 0.8,0.2 0.7,0.7 0.4,0.7 0.2,1 -0.1,0.4 -0.4,0.5 m -7.9,-3.7 0.7,0.6 1,0.1 1.5,-0.5 0.8,-0.4 1.1,-1 0.5,-1 -0.1,-0.9 -0.3,-0.5 -0.7,-0.7 h -1.1 l -1.5,0.4 -0.8,0.5 -1.1,1 -0.5,0.9 0.2,1 0.2,0.4 m 34,58.6 0.5,-0.4 0.8,-1.1 0.9,6.3 m 3.3,-7.2 -2.4,4.6 4.5,-0.7 m -2.1,-3.9 0.9,6.2 m 5.9,-5 -0.2,0.9 -0.5,0.7 -0.8,0.4 -0.3,0.1 -1,-0.2 -0.7,-0.5 -0.4,-0.8 v -0.3 l 0.1,-1 0.5,-0.7 0.9,-0.4 h 0.3 l 0.9,0.1 0.7,0.5 0.5,1.2 0.2,1.5 -0.1,1.5 -0.4,1 -0.9,0.4 -0.6,0.1 -0.9,-0.2 -0.4,-0.5 m 3.5,-22.7 -0.6,0.2 -1,0.9 0.5,-6.3 m -5.2,6.1 3,0.2 0.5,-2.6 -0.4,0.2 -0.9,0.3 -0.9,-0.1 -0.9,-0.4 -0.5,-0.6 -0.2,-0.9 v -0.6 l 0.4,-0.9 0.6,-0.5 0.9,-0.3 0.9,0.1 0.9,0.4 0.3,0.3 0.2,0.6 m -6.1,3.1 v 0.3 l -0.3,0.6 -0.4,0.3 -0.6,0.2 h -1.2 l -0.6,-0.4 -0.2,-0.3 -0.3,-0.6 0.1,-0.6 0.3,-0.6 0.7,-0.9 3.2,-2.7 -4.2,-0.3 m 18.9,22.1 -0.4,-0.5 -1.1,-0.7 6.1,-1.6 m -7.6,-2.9 0.8,2.9 2.7,-0.4 -0.4,-0.2 -0.5,-0.8 -0.2,-0.9 v -0.9 l 0.5,-0.8 0.8,-0.5 0.5,-0.1 h 1 l 0.7,0.5 0.5,0.7 0.3,0.9 -0.1,1 -0.2,0.3 -0.5,0.5 m -6.5,-4.5 -0.8,-3.1 2.8,1.1 -0.3,-0.9 0.2,-0.6 0.2,-0.4 0.8,-0.5 0.6,-0.2 0.9,0.1 0.7,0.4 0.6,0.8 0.2,0.9 -0.1,0.9 -0.2,0.4 -0.5,0.4 m -22.1,-164.5 h -0.7 l -1.2,0.4 2.9,-5.6 m -7.2,3.6 2.7,1.4 1.5,-2.3 -0.4,0.2 -1,-0.2 -0.7,-0.4 -0.7,-0.7 -0.3,-0.8 0.2,-0.9 0.3,-0.6 0.7,-0.6 0.8,-0.3 0.9,0.2 0.8,0.4 0.7,0.7 0.1,0.4 v 0.6 m -9.9,0.7 4.6,-2.4 -4,-2 m -0.6,4.4 2.9,-5.6 m -57.8,-13.9 -0.6,0.4 -0.8,0.9 -0.6,-6.2 m -4.1,6.9 3,-0.3 0.1,-2.7 -0.3,0.3 -0.9,0.4 -0.9,0.1 -0.9,-0.2 -0.6,-0.6 -0.4,-0.8 -0.1,-0.6 0.2,-1 0.6,-0.6 0.8,-0.4 0.9,-0.1 1,0.2 0.3,0.3 0.3,0.6 m -4.8,4.1 -0.6,0.4 -0.8,1 -0.6,-6.3 m -40.3,135.3 0.4,-0.4 0.6,-1.2 2,6 m 2,-7.6 -1.5,4.9 4.2,-1.4 m -2.7,-3.5 2,6 m 4.2,-7 -0.4,-0.5 h -1 l -0.6,0.2 -0.7,0.5 -0.3,1.1 0.2,1.5 0.5,1.4 0.6,1.1 0.8,0.4 h 0.9 l 0.3,-0.1 0.8,-0.6 0.3,-0.8 v -0.9 -0.3 l -0.6,-0.8 -0.8,-0.3 h -0.9 l -0.3,0.1 -0.8,0.5 -0.3,0.8 v 0.9 m 180.8,324.8 -0.5,-0.4 -1.2,-0.5 5.8,-2.5 m -6.7,1 -1.3,-3 2.9,0.7 -0.4,-0.8 0.1,-0.7 0.1,-0.4 0.7,-0.6 0.6,-0.3 0.9,-0.1 0.8,0.3 0.7,0.7 0.3,0.9 0.1,0.9 -0.1,0.4 -0.5,0.5 m -8.4,-6.5 6.9,0.2 m -5.2,3.6 -1.7,-3.8 m -14,3.6 -0.6,0.7 -0.8,0.4 -0.9,-0.1 -0.3,-0.1 -0.8,-0.5 -0.3,-0.8 v -1 l 0.1,-0.2 0.6,-0.8 0.7,-0.3 h 1 l 0.3,0.1 0.7,0.6 0.4,0.7 -0.1,1.3 -0.5,1.4 -0.8,1.3 -0.9,0.6 h -0.9 l -0.6,-0.2 -0.8,-0.6 v -0.6 m 5.7,-2.2 0.7,-0.1 1.1,-0.6 -2.1,6 m -89.2,-80.4 -0.5,0.4 -0.7,1.1 -1.5,-6.1 m -0.1,6.8 -3.2,0.8 1.1,-2.8 -0.8,0.2 -0.7,-0.1 -0.3,-0.2 -0.6,-0.8 -0.1,-0.6 0.1,-0.9 0.4,-0.8 0.8,-0.5 0.9,-0.2 0.9,0.1 0.4,0.2 0.4,0.5 m -5.4,6.6 0.8,-0.5 0.2,-0.7 -0.2,-0.5 -0.4,-0.5 -0.7,-0.2 h -1.2 -0.9 l -0.8,-0.5 -0.4,-0.5 -0.2,-0.9 0.1,-0.6 0.2,-0.4 0.8,-0.5 1.2,-0.3 0.9,0.1 0.4,0.2 0.4,0.5 0.3,0.9 -0.2,0.6 -0.4,0.8 -0.8,0.5 -1.1,0.6 -0.5,0.4 -0.2,0.7 0.2,0.5 0.4,0.5 1,0.1 1.3,-0.3 m 23.7,22.4 -0.9,-0.3 -0.6,0.2 -0.4,0.5 -0.1,0.6 0.2,0.7 0.7,1 0.5,0.8 0.1,0.8 -0.1,0.7 -0.6,0.7 -0.6,0.2 -0.5,0.1 -0.8,-0.4 -1,-0.8 -0.5,-0.8 v -0.4 l 0.2,-0.7 0.5,-0.6 0.7,-0.3 0.8,-0.1 0.9,0.4 1.1,0.5 0.6,0.2 0.7,-0.3 0.4,-0.4 0.1,-0.7 -0.5,-0.8 -1,-0.9 m 6.1,5.2 -6.3,2.9 m 3.1,-5.6 3.2,2.7 m 41.4,-147.9 -0.2,0.6 v 1.3 l -4.4,-4.5 m 1.6,7.7 -0.9,-5.1 -3.2,3.2 m 4.1,1.9 -4.5,-4.4 m 0,8.8 2.1,-2.1 -1.7,-2.2 v 0.5 l -0.4,0.8 -0.6,0.6 -0.9,0.5 h -0.8 l -0.9,-0.5 -0.4,-0.4 -0.4,-0.8 v -0.9 l 0.4,-0.8 0.7,-0.7 0.8,-0.4 h 0.4 l 0.7,0.2 m 68.9,10.6 h -0.6 l -1.2,0.4 2.9,-5.6 m -6.9,3.9 4.6,-2.4 -4,-2 m -0.6,4.4 2.9,-5.6 m -6.8,3.5 0.9,0.1 1,-0.5 0.9,-1.2 0.5,-0.8 0.4,-1.5 -0.1,-1 -0.7,-0.7 -0.5,-0.3 -1,-0.1 -0.9,0.5 -1,1.2 -0.4,0.8 -0.4,1.4 0.1,1.1 0.7,0.7 0.4,0.2 m -52.4,-157.8 0.6,-0.4 0.7,-1 1,6.2 m 3.7,-7.2 -3,0.5 0.1,2.7 0.3,-0.3 0.8,-0.5 0.9,-0.1 0.9,0.2 0.7,0.5 0.4,0.8 0.1,0.6 -0.1,0.9 -0.5,0.7 -0.9,0.5 -0.9,0.1 -0.9,-0.2 -0.3,-0.2 -0.4,-0.6 m 5.1,-5.9 3.2,-0.5 -1.4,2.6 0.9,-0.1 0.6,0.2 0.4,0.3 0.4,0.8 0.1,0.6 -0.2,0.9 -0.5,0.7 -0.8,0.4 -0.9,0.2 -0.9,-0.2 -0.4,-0.2 -0.4,-0.6 m -51.2,9.5 h 0.7 l 1.2,-0.3 -3.1,5.5 m 7.3,-3.3 -2.6,-1.5 -1.6,2.2 0.4,-0.1 0.9,0.2 0.8,0.4 0.7,0.7 0.2,0.9 -0.2,0.9 -0.3,0.5 -0.7,0.6 -0.9,0.2 -0.9,-0.1 -0.8,-0.5 -0.6,-0.7 -0.1,-0.4 v -0.7 m 8.8,-0.8 -0.9,-0.2 -1,0.5 -1,1.1 -0.5,0.8 -0.5,1.4 0.1,1.1 0.6,0.7 0.5,0.3 1,0.2 0.9,-0.4 1.1,-1.2 0.4,-0.8 0.5,-1.4 -0.1,-1.1 -0.6,-0.7 -0.4,-0.2 m 12.3,9.2 -0.1,-0.6 -0.5,-1.2 5.9,2.3 m -4.4,-6.8 -1,2.8 2.4,1.3 -0.2,-0.4 v -1 l 0.4,-0.8 0.6,-0.7 0.7,-0.4 1,0.1 0.6,0.2 0.7,0.6 0.3,0.8 v 0.9 l -0.3,0.9 -0.7,0.7 -0.3,0.2 h -0.7 m -1.2,-6.8 -0.3,-0.1 -0.5,-0.5 -0.1,-0.3 -0.1,-0.7 0.4,-1.1 0.5,-0.5 0.4,-0.2 h 0.7 l 0.6,0.2 0.4,0.5 0.6,0.9 1.7,3.9 1.6,-3.9 m 129.3,231.2 v 0.9 l -0.5,0.7 -0.8,0.6 h -0.3 l -0.9,-0.1 -0.7,-0.4 -0.5,-0.8 -0.1,-0.3 0.1,-0.9 0.4,-0.8 0.8,-0.5 h 0.3 0.9 l 0.8,0.5 0.5,1.1 0.4,1.4 0.1,1.6 -0.4,1 -0.8,0.5 -0.6,0.1 -0.9,-0.1 -0.5,-0.5 m 6.4,-7.2 -1.9,4.8 4.3,-1 m -2.4,-3.8 1.5,6.2 m 35.7,-54 1,-0.1 0.4,-0.5 0.1,-0.6 -0.2,-0.6 -0.5,-0.5 -1.1,-0.5 -0.8,-0.5 -0.5,-0.7 -0.2,-0.6 0.2,-0.9 0.4,-0.5 0.4,-0.3 0.9,-0.1 1.2,0.3 0.8,0.4 0.2,0.4 0.2,0.6 -0.2,0.9 -0.4,0.5 -0.7,0.5 -0.9,0.1 -1.3,0.1 -0.6,0.2 -0.4,0.5 -0.2,0.6 0.2,0.6 0.8,0.5 1.4,0.3 m -4.2,-2.4 v 0.3 l -0.4,0.5 -0.4,0.2 -0.6,0.2 -1.2,-0.2 -0.5,-0.4 -0.3,-0.4 -0.1,-0.6 0.1,-0.6 0.4,-0.5 0.8,-0.8 3.5,-2.4 -4.1,-0.8 m 20.9,28.8 -0.4,0.9 0.2,0.6 0.4,0.5 0.6,0.2 0.7,-0.2 1,-0.6 0.9,-0.4 0.8,0.1 0.7,0.2 0.6,0.7 0.2,0.6 v 0.4 l -0.5,0.9 -0.9,0.8 -0.8,0.4 -0.5,-0.1 -0.6,-0.2 -0.6,-0.6 -0.2,-0.7 v -0.8 l 0.5,-0.9 0.7,-1 0.2,-0.6 -0.2,-0.7 -0.4,-0.4 -0.6,-0.3 -0.9,0.4 -1,0.9 m 3.9,-1.6 0.2,-0.6 0.1,-1.3 4.2,4.7 M 2180.6,308.1 h 0.6 l 1.2,-0.4 -2.8,5.6 m 6.8,-3.9 -4.6,2.4 4,2 m 0.6,-4.4 -2.8,5.6 m 5.6,-4.1 3,1.5 -2.7,1.3 0.8,0.4 0.4,0.6 0.1,0.4 -0.1,0.9 -0.3,0.5 -0.6,0.7 -0.8,0.3 -1,-0.2 -0.8,-0.4 -0.7,-0.6 -0.1,-0.4 v -0.7 m 3.7,-31.5 -0.3,0.6 -0.1,1.3 -4,-4.9 m 2.8,6.1 -2.6,2.1 -0.1,-3 -0.7,0.6 -0.7,0.1 h -0.4 l -0.8,-0.5 -0.4,-0.5 -0.3,-0.9 0.1,-0.8 0.5,-0.8 0.7,-0.6 0.9,-0.3 h 0.4 l 0.6,0.3 m -5.3,8.2 -0.3,-0.9 0.1,-0.9 0.5,-0.8 0.2,-0.2 0.9,-0.3 0.9,0.1 0.8,0.5 0.1,0.2 0.4,0.9 -0.1,0.9 -0.5,0.8 -0.2,0.2 -0.9,0.3 -0.9,-0.1 -1,-0.7 -0.9,-1.2 -0.7,-1.4 -0.1,-1 0.5,-0.8 0.4,-0.4 0.9,-0.3 0.6,0.2 m 47.2,257.5 -0.9,0.2 -0.4,0.5 -0.1,0.6 0.2,0.6 0.6,0.4 1.1,0.5 0.8,0.4 0.5,0.7 0.2,0.7 -0.1,0.9 -0.4,0.5 -0.3,0.2 -1,0.2 -1.1,-0.2 -0.9,-0.4 -0.2,-0.4 -0.2,-0.6 0.1,-0.9 0.4,-0.5 0.7,-0.5 0.9,-0.2 1.2,-0.1 0.7,-0.2 0.4,-0.6 0.1,-0.5 -0.2,-0.7 -0.9,-0.4 -1.3,-0.2 m 7,1 -3.6,3.7 4.5,0.7 m -0.9,-4.4 -0.9,6.2 m -70.7,-51 -6.2,-3.2 m 6.4,-1 -0.2,4.2 m -0.2,5.2 -6.1,-3.2 m 6.3,-1 -0.2,4.2 m 10.5,21.7 -6.2,3.3 m 2.8,-5.8 3.4,2.5 m 2.8,4.7 -0.8,0.6 -0.8,0.1 -0.9,-0.3 -0.3,-0.2 -0.5,-0.8 -0.2,-0.8 0.3,-0.9 0.2,-0.2 0.8,-0.6 0.8,-0.1 0.9,0.3 0.3,0.2 0.5,0.7 0.1,0.9 -0.4,1.1 -0.9,1.2 -1.1,1 -1.1,0.4 -0.9,-0.3 -0.5,-0.3 -0.5,-0.8 0.1,-0.7 m 57.6,-333.1 0.1,0.2 v 0.7 l -0.1,0.4 -0.5,0.5 -1.1,0.5 h -0.6 l -0.4,-0.1 -0.5,-0.5 -0.3,-0.5 V 199 l 0.2,-1 1.4,-4 -3.8,1.7 m -2,8 v -7 m 3.8,5.2 -3.8,1.8 m -9.3,27.5 -0.3,-0.9 -0.7,-0.2 h -0.6 l -0.5,0.3 -0.3,0.6 -0.2,1.3 -0.3,0.9 -0.6,0.6 -0.5,0.3 -0.9,0.1 -0.7,-0.3 -0.3,-0.3 -0.3,-0.8 -0.1,-1.2 0.3,-1 0.2,-0.3 0.6,-0.3 0.9,-0.1 0.6,0.3 0.7,0.6 0.3,0.9 0.4,1.1 0.3,0.6 0.6,0.3 h 0.6 l 0.6,-0.4 0.3,-0.9 -0.1,-1.3 m 257.5,11.3 -0.5,-0.5 -1.1,-0.7 6.1,-1.7 m -7.5,-2.3 4.8,1.7 -1.2,-4.3 m -3.6,2.6 6,-1.7 m -7.7,-4.3 0.8,2.9 2.7,-0.5 -0.4,-0.2 -0.5,-0.8 -0.2,-0.8 v -1 l 0.4,-0.7 0.8,-0.6 0.6,-0.1 h 0.9 l 0.8,0.4 0.5,0.8 0.3,0.9 -0.1,0.9 -0.2,0.4 -0.5,0.4 m -9.2,49.2 v -0.7 l -0.3,-1.2 5.5,3.2 m -3.6,-7 2.2,4.7 2.2,-3.9 m -4.4,-0.8 5.5,3.1 m -2.6,-8.2 2.2,4.7 2.2,-3.8 m -4.4,-0.9 5.5,3.2 m -73.6,39.4 0.4,0.6 1.1,0.7 -6.2,1.2 m 7.3,2.9 -4.7,-2.1 0.9,4.4 m 3.8,-2.3 -6.1,1.3 m 5.3,5.6 -0.9,-0.2 -0.7,-0.4 -0.5,-0.9 -0.1,-0.2 0.2,-1 0.4,-0.7 0.8,-0.5 h 0.3 l 1,0.1 0.7,0.5 0.5,0.8 v 0.3 l -0.1,0.9 -0.5,0.7 -1.1,0.6 -1.4,0.3 h -1.6 l -1,-0.4 -0.4,-0.9 -0.2,-0.6 0.1,-0.9 0.6,-0.4 m 15.5,26.6 0.7,0.2 1.2,0.2 -4.9,3.9 m 7.8,-0.7 -5.2,0.2 2.8,3.6 m 2.4,-3.8 -5,3.9 m 9.1,1.4 -6.8,1.5 m 4.2,-4.8 2.6,3.3 m 23.3,-3.1 0.3,-0.5 0.3,-1.3 3.4,5.3 m 0,-7.9 -0.2,5.2 3.8,-2.5 m -3.6,-2.7 3.5,5.3 m -0.5,-5.4 0.3,-0.6 0.3,-1.3 3.4,5.3 m 14.1,-26.7 -0.5,-0.4 -1.3,-0.4 5.5,-3 m -7.8,-0.6 5.1,0.6 -2.2,-3.9 m -2.9,3.3 5.5,-3 m -5.7,-0.5 -0.2,0.1 -0.7,0.1 -0.4,-0.1 -0.6,-0.4 -0.5,-1.1 -0.1,-0.6 0.1,-0.5 0.4,-0.5 0.5,-0.3 h 0.7 l 1.1,0.1 4.1,1.1 -2.1,-3.6 m -33,-203.2 -3.3,0.3 1.5,-2.6 -0.9,0.1 -0.6,-0.2 -0.3,-0.3 -0.4,-0.9 v -0.6 l 0.2,-0.9 0.5,-0.7 0.9,-0.3 0.9,-0.1 0.9,0.2 0.3,0.3 0.4,0.5 m -4.9,4.2 -0.6,0.3 -0.8,1 -0.6,-6.3 m -87.4,82.1 0.6,0.1 1.3,-0.2 -3.7,5.1 m 7.6,-2.4 -2.4,-1.8 -1.8,2 0.4,-0.1 0.9,0.3 0.7,0.5 0.6,0.8 0.1,0.9 -0.3,0.9 -0.3,0.4 -0.8,0.6 -0.8,0.1 -0.9,-0.3 -0.8,-0.5 -0.5,-0.8 -0.1,-0.4 0.1,-0.7 m 9.9,0.9 -4.9,1.6 3.7,2.7 m 1.2,-4.3 -3.7,5.1 m 162.9,-11.6 0.4,-0.5 0.6,-1.1 1.9,6 m 2.2,-7.5 -1.7,4.9 4.3,-1.4 m -2.6,-3.5 1.8,6 m 2.4,-7.3 -0.7,0.6 -0.4,1 0.2,1.5 0.3,0.9 0.7,1.3 0.8,0.7 h 1 l 0.6,-0.1 0.7,-0.6 0.3,-1 -0.1,-1.6 -0.3,-0.8 -0.7,-1.4 -0.9,-0.6 -0.9,-0.1 -0.4,0.2 m 25.3,-97.8 1.4,-4.9 -4.2,1.5 m 2.8,3.4 -2.1,-5.9 m 35.1,37.4 v 1 l 0.5,0.4 0.6,0.2 0.7,-0.2 0.4,-0.4 0.6,-1.1 0.6,-0.8 0.7,-0.4 0.7,-0.1 0.8,0.2 0.5,0.5 0.2,0.3 0.1,1 -0.3,1.1 -0.6,0.8 -0.4,0.2 -0.6,0.1 -0.9,-0.2 -0.5,-0.5 -0.4,-0.7 v -0.9 -1.3 l -0.1,-0.6 -0.5,-0.5 -0.6,-0.2 -0.6,0.2 -0.6,0.7 -0.3,1.3 m 1.2,-4.4 0.9,-3.1 1.8,2.4 0.3,-0.9 0.4,-0.5 0.4,-0.2 h 1 l 0.5,0.1 0.8,0.6 0.4,0.7 0.1,0.9 -0.3,0.9 -0.5,0.8 -0.4,0.2 -0.6,0.1 m -253.8,-6.6 -0.1,0.3 -0.4,0.5 -0.3,0.3 -0.6,0.1 -1.2,-0.2 -0.6,-0.3 -0.2,-0.4 -0.2,-0.6 0.1,-0.6 0.4,-0.6 0.7,-0.8 3.5,-2.4 -4.2,-0.7 m -5.5,4.5 0.2,0.7 0.8,0.4 0.6,0.1 0.9,-0.1 0.8,-0.8 0.5,-1.5 0.3,-1.4 -0.1,-1.3 -0.5,-0.7 -0.9,-0.4 -0.3,-0.1 -0.9,0.2 -0.7,0.5 -0.4,0.8 -0.1,0.3 0.2,1 0.5,0.6 0.8,0.5 h 0.3 l 0.9,-0.1 0.7,-0.5 0.5,-0.8 m -54.9,55.2 0.6,-0.3 1,-0.8 -0.5,6.3 m 5.2,-6.1 -3,-0.3 -0.5,2.7 0.3,-0.3 1,-0.2 0.9,0.1 0.8,0.3 0.6,0.7 0.2,0.9 -0.1,0.6 -0.3,0.9 -0.7,0.5 -0.9,0.3 -0.9,-0.1 -0.9,-0.4 -0.2,-0.3 -0.3,-0.6 m 5.6,-3.3 0.6,-0.2 1,-0.8 -0.6,6.2 m -8.4,-39.2 -0.9,3.1 -1.8,-2.4 -0.3,0.8 -0.4,0.5 -0.4,0.2 h -1 l -0.5,-0.1 -0.8,-0.6 -0.4,-0.8 v -0.9 l 0.3,-0.9 0.5,-0.7 0.4,-0.2 0.7,-0.1 m 2.7,8.3 v -0.9 l -0.7,-0.9 -1.4,-0.7 -0.8,-0.3 -1.5,-0.1 -1.1,0.3 -0.5,0.7 -0.2,0.6 v 0.9 l 0.7,0.9 1.3,0.7 0.9,0.3 1.5,0.2 1,-0.3 0.6,-0.8 0.1,-0.4 m 154.6,495 0.6,0.4 1.2,0.3 -5.6,3 m 6.6,-1.5 1.6,2.9 -3,-0.5 0.4,0.8 v 0.7 l -0.1,0.4 -0.6,0.7 -0.6,0.3 -0.9,0.1 -0.8,-0.2 -0.7,-0.7 -0.4,-0.7 -0.2,-1 0.1,-0.4 0.4,-0.5 m 9,5.8 -7,0.4 m 5,-4.1 2,3.7 m 18.8,12.4 -0.3,0.9 -0.6,0.6 -0.9,0.3 h -0.3 l -0.9,-0.3 -0.6,-0.6 -0.3,-0.9 v -0.3 l 0.3,-0.9 0.6,-0.6 0.9,-0.3 h 0.3 l 0.9,0.3 0.6,0.6 0.3,1.2 v 1.5 l -0.3,1.5 -0.6,0.9 -0.9,0.3 h -0.6 l -0.9,-0.3 -0.3,-0.6 m 5.3,-3.9 v -0.3 l 0.3,-0.6 0.3,-0.3 0.6,-0.3 h 1.2 l 0.6,0.4 0.3,0.3 0.3,0.6 v 0.6 l -0.3,0.6 -0.7,0.9 -3,2.9 4.2,0.1"
       id="nums_005"
       stroke="#000000"
       stroke-width="1" />
    <path
       d="m 2294,180.4 87,45.6 -79.3,-58 -52.5,-4.4 23.2,-73.2 105.6,17.8 101.4,-9.3 123.6,-45.2 -34.7,121.4 -101.4,31.5 15.4,54.3 -21.8,37.7 22.3,40.2 -58.4,38.3 -27.1,-34.4 -8.3,-40.5 -29.6,4.5 -10.3,26.4 -45.9,-26.6 25.9,46.4 -24,19.2 28.6,-11.2 28.3,2.1 7.7,28.9 -40.9,6.3 -43.7,-0.8 -30,63.1 44.1,-12.7 39.5,18.3 40.1,-39.8 94.2,48.9 99.5,20.2 -50.5,46.6 -70.5,17.4 17.6,95.7 -39,-0.3 -20.8,-38.6 17.6,40.1 -67.4,-24.1 -81.8,-69.2 40.7,-10.4 -41.5,6.6 -91.9,-14.3 -30.4,-22.4 1.5,-44.5 -3.5,-60.6 52.3,-60 16.3,63.1 23,-59.1 10.9,-44 -43,14.2 -56.7,-28.5 50.6,-41.1 -3.3,-58.6 38.8,-18 z"
       id="coupes_005"
       stroke="#ff0000"
       stroke-width="1.27"
       sodipodi:nodetypes="cccccccccccccccccccccccccccccccccccccccccccccccccccccccc" />
    <path
       d="m 2255.1,460.5 21.8,98.7 m 0,0 -120.8,-81.2 m 0,0 65.1,-57.5 m 33.9,40 63.3,92.1 m -165.8,-135.2 68.6,3.1 m 117.5,45.6 -20.3,86.5 m -74.2,-191.2 40.9,36 m 53.6,68.7 70.6,150.1 m 0,0 -90.9,-63.6 m -74.2,-191.2 60.9,10.7 m 0,0 -20,25.3 m -30,-80 50,54.7 m 0,0 23.7,26.1 m 140.3,256.9 -59.8,-38.9 m -154.2,-298.8 74,35.5 m 4.6,8 -4.9,37.3 m -73.7,-80.8 48.1,-10.9 m 30.5,54.4 36,31 m -75.7,-211.5 9.2,126.1 m 77.8,-80.5 -77.8,80.5 m -48.1,10.9 -13.6,-132 m 13.6,132 L 2206,262 m 6.1,69.6 -6.1,-69.6 m 153.5,370.2 -41.1,-79.6 m 60.4,-126.3 72.7,133.1 m 21.5,-84.2 -21.5,84.2 M 2381,226 l -21.6,80.7 m 0,0 -56.2,-0.2 m 77.8,-80.5 8,76.2 m 84,173 49,66.8 m -141,-316 85.9,-19.4 m 0,0 -77.9,95.6 m 71.5,-3.6 -63.2,44.1 M 2381,226 2479.4,98.9 m 0,0 -12.5,107.7 M 2381,226 2378,108.2 m -76.3,59.8 76.3,-59.8 m 101.4,-9.3 88.9,76.2 M 2301.7,168 2272.4,90.4"
       id="plisM_005"
       stroke="#a52a2a"
       stroke-dasharray="4" />
    <path
       d="m 2156.1,478 99,-17.5 m -33.9,-40 33.9,40 m -10.9,-99.1 10.9,99.1 m 0,0 83.6,5.6 m 0,0 112.8,93.3 m 0,0 -42.2,56.8 m -154.2,-298.8 38.9,-137 m -88,81.6 35.5,-76.6 m 167.8,430.8 -49.8,16 M 2185,544.9 2156.1,478 m 304.4,-179.4 -71.5,3.6 m 77.9,-95.6 -6.4,92 m 0,0 -36.1,78.5"
       id="plisV_005"
       stroke="#008000"
       stroke-dasharray="4, 1, 1, 1"
       stroke-width="1.27" />
    <path
       d="m 2203.6,467.3 4,4 m 0,-4 -4,4 m 32.5,-32.8 4,4 m 0,-4 -4,4 m 11.5,-33.5 4,4 m 0,-4 -4,4 m 47.3,48.3 4,4 m 0,-4 -4,4 m 98.2,45.5 4,4 m 0,-4 -4,4 m 35.3,71 4,4 m 0,-4 -4,4 m -155.9,-342.9 4,4 m 0,-4 -4,4 m -50.7,-29.2 4,4 m 0,-4 -4,4 m 160.6,396.5 4,4 m 0,-4 -4,4 m -213.8,-116.8 4,4 m 0,-4 -4,4 m 254.2,-215 4,4 m 0,-4 -4,4 m 38.9,-51.8 4,4 m 0,-4 -4,4 m -21.3,81.3 4,4 m 0,-4 -4,4"
       id="marqueV_005"
       stroke="#008000" />
    <path
       d="m 2288.3307,371.90351 h -7.5 l -0.8,6.7 0.8,-0.7 2.2,-0.8 h 2.3 l 2.2,0.8 1.5,1.5 0.8,2.2 v 1.5 l -0.8,2.3 -1.5,1.5 -2.2,0.7 h -2.3 l -2.2,-0.7 -0.8,-0.8 -0.7,-1.5"
       id="titre_5"
       stroke="#4b0082" />
  </g>
</svg>
