<?xml version="1.0" encoding="UTF-8" standalone="no"?>
<svg
   xmlns:dc="http://purl.org/dc/elements/1.1/"
   xmlns:cc="http://creativecommons.org/ns#"
   xmlns:rdf="http://www.w3.org/1999/02/22-rdf-syntax-ns#"
   xmlns:svg="http://www.w3.org/2000/svg"
   xmlns="http://www.w3.org/2000/svg"
   xmlns:sodipodi="http://sodipodi.sourceforge.net/DTD/sodipodi-0.dtd"
   xmlns:inkscape="http://www.inkscape.org/namespaces/inkscape"
   width="297mm"
   height="420mm"
   viewBox="0 0 297 420"
   version="1.1"
   id="svg538"
   inkscape:version="1.0.2 (e86c870879, 2021-01-15)"
   sodipodi:docname="nid_002_puzl.svg"
   role="img"
   aria-labelledby="title-0"
   data-src="002.svg"
   class="injected-svg">
  <defs
     id="defs532" />
  <sodipodi:namedview
     id="base"
     pagecolor="#ffffff"
     bordercolor="#666666"
     borderopacity="1.0"
     inkscape:pageopacity="0.0"
     inkscape:pageshadow="2"
     inkscape:zoom="0.42003718"
     inkscape:cx="573.9589"
     inkscape:cy="825.74971"
     inkscape:document-units="mm"
     inkscape:current-layer="svg538"
     inkscape:document-rotation="0"
     showgrid="false"
     inkscape:window-width="1920"
     inkscape:window-height="1016"
     inkscape:window-x="0"
     inkscape:window-y="0"
     inkscape:window-maximized="1"
     role="presentation"
     inkscape:snap-global="false" />
  <metadata
     id="metadata535"
     role="presentation">
    <rdf:RDF>
      <cc:Work
         rdf:about="">
        <dc:format>image/svg+xml</dc:format>
        <dc:type
           rdf:resource="http://purl.org/dc/dcmitype/StillImage" />
        <dc:title></dc:title>
      </cc:Work>
    </rdf:RDF>
  </metadata>
  <g
     inkscape:label="Calque 1"
     inkscape:groupmode="layer"
     id="layer1"
     role="presentation" />
  <path
     d="m 175.32283,341.37947 29.81111,7.63606 m 25.63232,22.99848 -49.42973,-0.45142 m -6.0137,-30.18312 33.75446,-29.94535 m -33.75446,29.94535 -44.91809,4.38878 m 0,0 -38.916721,-22.84928 m 96.580051,-107.60133 21.76076,24.52681 M 91.488019,322.91897 73.438223,281.56455 m 0,0 9.699238,-44.07086 m 0,0 33.759519,-29.95849 m 0,0 44.909,-4.3848 m 0,0 26.26209,12.16724 m 30.71754,52.0416 -9.70832,44.07488 m 0.75154,-71.58967 8.95678,27.51479 m 21.19228,22.31311 -30.9006,21.76177 M 73.438223,281.56455 54.533572,248.84286 m 18.904651,32.72169 -53.639551,-33.7096 m 53.639551,33.7096 -63.5829559,6.0532 m 81.6327519,35.30122 -30.260925,-5.59553 m 69.177646,28.44481 -36.957998,7.86644 m 137.319518,18.37932 -29.75156,28.18966 m -84.11772,-192.66847 25.27529,-28.085 m 111.74366,62.68373 -35.13032,25.22531 m -56.97963,-64.20884 29.22415,-31.88388 m 16.45847,4.40116 44.01342,49.60765 m 20.51105,78.23014 -62.93578,7.92865 m 55.51527,32.38761 -55.51527,-32.38761 m 41.39773,-129.57707 1.027,43.41828 M 83.137461,237.49369 79.111134,206.97932 m 37.785846,0.55588 15.36568,-61.54107 M 116.89698,207.5352 91.357285,148.55452 m 0,0 40.905375,-2.56039 m 23.81243,26.91821 34.95504,-1.64582 M 53.888246,227.92975 59.323941,178.7927 M 27.799825,204.97578 59.323941,178.7927 m 104.506009,-39.90049 27.20018,32.37431 m 62.8858,70.86741 -5.78795,34.49958 M 73.353552,347.78729 27.914721,326.16899 m 102.490019,19.59926 -49.974669,39.77952 m 49.974669,-39.77952 -15.21173,61.4964 M 43.070888,364.24441 27.914721,326.16899 M 86.373322,113.64342 132.26266,145.99413 M 86.373322,113.64342 135.45541,110.56467 M 147.69466,62.928895 135.45541,110.56467 M 86.373322,113.64342 68.271943,67.910107 M 86.373322,113.64342 35.606906,84.373182 M 106.17651,36.570911 147.69466,62.928895 M 68.271943,67.910107 106.17651,36.570911"
     id="PLIINT"
     fill="none"
     stroke="#0000ff"
     stroke-width="0.4"
     style="stroke:#800000" />
  <path
     d="m 205.13394,349.01553 -23.79741,22.54706 m 6.73154,-156.24495 63.43395,9.95769 m -197.613774,2.65442 25.222888,-20.95043 m 84.718816,-68.08711 58.06668,1.82268 M 73.353552,347.78729 61.227094,317.32344 M 106.17651,36.570911 161.98119,30.346642 M 47.589992,37.740593 106.17651,36.570907 m 144.29851,145.286143 43.07122,38.99036"
     id="PLIEXT"
     fill="none"
     stroke="#008000"
     stroke-width="0.4" />
  <path
     id="path331"
     style="font-variation-settings:normal;vector-effect:none;fill:none;fill-opacity:1;stroke:#0000ff;stroke-width:0.4;stroke-linecap:butt;stroke-linejoin:miter;stroke-miterlimit:4;stroke-dasharray:none;stroke-dashoffset:0;stroke-opacity:1;stop-color:#000000"
     d="m 268.34655,193.353 1.74928,-0.11551 0.4272,0.86382 -0.68447,0.8194 -0.89748,0.0358 0.91056,-0.0255 0.93744,1.13562 -0.9904,1.00307 -1.38054,-0.0994 m 2.36964,-3.66373 1.74928,-0.1155 0.42718,0.86381 -0.68446,0.8194 -0.89748,0.0358 0.91055,-0.0255 0.93745,1.13562 -0.9904,1.00308 -1.38053,-0.0995 m -116.36835,-118.1935 1.74928,-0.115545 0.42718,0.863817 -0.68445,0.819395 -0.89749,0.03574 0.91055,-0.02594 0.93744,1.135623 -0.9904,1.003077 -1.38053,-0.09946 m 2.36963,-3.663724 1.74928,-0.115545 0.42719,0.863817 -0.68447,0.819395 -0.89748,0.03574 0.91055,-0.02594 0.93744,1.135622 -0.99039,1.003077 -1.38055,-0.09946 m 118.75631,117.999848 1.74928,-0.1155 0.42719,0.86382 -0.68446,0.81939 -0.89749,0.0358 0.91056,-0.0255 0.93744,1.13562 -0.9904,1.00308 -1.38053,-0.0995 m 5.5601,0.005 -2.62896,0.0103 2.07259,-1.96855 0.20152,-1.6317 -1.25486,-0.18891 -1.16381,0.60112 M 149.16939,43.925037 l 1.74927,-0.115545 0.4272,0.863817 -0.68447,0.819394 -0.89748,0.03574 0.91055,-0.02594 0.93744,1.135623 -0.9904,1.003076 -1.38054,-0.09946 m 5.56012,0.0049 -2.62897,0.01028 2.07259,-1.96854 0.20152,-1.6317 -1.25487,-0.188916 -1.1638,0.601124 m -85.768653,-0.07973 1.749281,-0.115546 0.427188,0.863818 -0.684466,0.819394 -0.897483,0.03574 0.910551,-0.02594 0.937439,1.135622 -0.990398,1.003077 -1.380537,-0.09946 m 2.407306,-3.372921 1.295522,-0.244992 0.07702,3.999259 m -48.484691,307.792826 1.749281,-0.1155 0.427188,0.86381 -0.684466,0.8194 -0.897483,0.0357 0.910558,-0.0255 0.937439,1.13562 -0.990398,1.00308 -1.380535,-0.0995 m 2.407304,-3.37293 1.295522,-0.24499 0.07702,3.99926 m 28.85041,-274.710942 1.749281,-0.115545 0.427188,0.863817 -0.684466,0.819394 -0.897483,0.03574 0.910551,-0.02594 0.937439,1.135622 -0.990398,1.003077 -1.380537,-0.09946 m 3.083871,-3.7603 1.640039,-0.03609 0.05776,3.497806 -1.575516,0.07175 z M 18.867123,339.6984 l 1.749282,-0.1155 0.427188,0.86381 -0.684466,0.81939 -0.897482,0.0358 0.910559,-0.0255 0.937439,1.13563 -0.990398,1.00308 -1.380537,-0.0995 m 3.083871,-3.7603 1.640029,-0.0366 0.05776,3.4978 -1.575516,0.0718 z m 43.04194,-310.883993 -2.628965,0.01027 2.072596,-1.968539 0.201515,-1.631699 -1.254863,-0.188917 -1.163808,0.601125 m 2.952953,3.013582 0.956395,0.204417 1.263498,-0.678073 0.200927,-2.117184 -0.637744,-1.000082 -1.045403,-0.07336 -0.683041,0.655851 -0.0064,1.119616 0.710294,0.462052 0.863762,-0.09 0.747699,-0.274354 m 34.692638,361.139517 -2.628961,0.0102 2.072591,-1.96854 0.20152,-1.63169 -1.25487,-0.18893 -1.163806,0.60114 m 2.952966,3.01357 0.95639,0.20443 1.2635,-0.67808 0.20093,-2.11718 -0.63775,-1.00009 -1.04541,-0.0734 -0.68303,0.65585 -0.006,1.11962 0.7103,0.46204 0.86376,-0.0901 0.7477,-0.27434 m -51.201868,-39.93965 -2.628964,0.0103 2.072596,-1.96854 0.201516,-1.6317 -1.254864,-0.18891 -1.163808,0.60112 m 4.067559,1.12962 -0.820683,-0.59792 -0.009,-0.77952 0.760882,-0.39567 0.945231,0.38498 0.0388,0.77604 -1.944806,1.37747 -0.0049,0.89292 0.69703,0.47209 1.099578,-0.0486 0.4531,-0.62039 -0.104375,-0.83281 z m 34.64166,25.28603 -2.628963,0.0103 2.072595,-1.96855 0.201516,-1.63169 -1.254863,-0.18892 -1.163808,0.60112 m 4.067559,1.12961 -0.820684,-0.5979 -0.009,-0.77952 0.760883,-0.39567 0.945231,0.38498 0.0388,0.77604 -1.944806,1.37746 -0.0049,0.89293 0.697029,0.47208 1.099579,-0.0486 0.4531,-0.62038 -0.104376,-0.8328 z m 179.334657,-153.33904 -2.62896,0.0103 2.07259,-1.96854 0.20152,-1.6317 -1.25486,-0.18892 -1.16381,0.60113 m 2.76448,-0.63999 2.59951,-0.0501 -1.72456,3.93393 m -5.02351,46.33958 -2.62897,0.0103 2.0726,-1.96853 0.20152,-1.63171 -1.25487,-0.18891 -1.1638,0.60112 m 2.76447,-0.63998 2.59952,-0.0501 -1.72457,3.93394 M 148.03063,92.478356 l -2.62897,0.01027 2.07259,-1.96854 0.20152,-1.6317 -1.25487,-0.188916 -1.1638,0.601124 m 5.61406,-0.694876 -1.46694,0.04243 -1.14062,1.830486 0.18143,1.339172 0.80565,0.652551 1.14821,-0.05535 0.53003,-0.789198 -0.0881,-1.073621 -0.8693,-0.362235 -0.76434,0.04833 -0.94581,0.245508 m 58.41112,42.380012 -2.62897,0.0103 2.0726,-1.96855 0.20152,-1.63169 -1.25486,-0.18892 -1.16381,0.60113 m 5.61406,-0.69488 -1.46695,0.0425 -1.14061,1.8305 0.18143,1.33916 0.80565,0.65256 1.1482,-0.0553 0.53004,-0.7892 -0.0881,-1.07363 -0.8693,-0.36222 -0.76434,0.0483 -0.9458,0.24551 m -85.14204,-1.52608 -2.62896,0.0103 2.07259,-1.96854 0.20152,-1.6317 -1.25486,-0.18891 -1.16382,0.60112 m 4.99965,-0.68305 -2.00846,0.0629 0.006,1.49654 0.96061,-0.0623 1.21832,0.8149 -0.0297,0.73135 -0.93518,0.78973 -1.34084,-0.22164 m 58.57183,1.62227 -2.62896,0.0103 2.07259,-1.96855 0.20152,-1.63169 -1.25487,-0.18892 -1.1638,0.60112 m 4.99963,-0.68305 -2.00845,0.0629 0.006,1.49655 0.96062,-0.0623 1.21831,0.81488 -0.0297,0.73136 -0.93517,0.78973 -1.34084,-0.22164 M 90.80382,27.474231 l -2.628965,0.01028 2.072596,-1.968539 0.201515,-1.631699 -1.254863,-0.188917 -1.163808,0.601125 m 6.348439,2.55765 -0.856877,0.0106 -2.265555,0.02799 2.109789,-2.914191 0.155763,2.886232 0.02819,0.617479 m 127.127891,366.461552 -2.62896,0.0103 2.0726,-1.96853 0.2015,-1.63171 -1.25486,-0.18891 -1.16381,0.60112 m 6.34845,2.55765 -0.85689,0.0105 -2.26555,0.028 2.10979,-2.91418 0.15576,2.88622 0.0282,0.61749 m -95.31858,-362.760644 -2.62896,0.01027 2.07259,-1.968539 0.20152,-1.631699 -1.25486,-0.188916 -1.16382,0.601124 m 2.78247,-0.552459 1.74928,-0.115545 0.42719,0.863817 -0.68446,0.819394 -0.89748,0.03574 0.91055,-0.02594 0.93744,1.135623 -0.9904,1.003076 -1.38054,-0.09946 m 104.14472,360.877672 -2.62897,0.0103 2.0726,-1.96855 0.20152,-1.63169 -1.25487,-0.18892 -1.16381,0.60113 m 2.78247,-0.55246 1.74928,-0.11551 0.4272,0.86382 -0.68447,0.81939 -0.89748,0.0357 0.91055,-0.0255 0.93745,1.13562 -0.9904,1.00307 -1.38054,-0.0994 M 66.861745,108.23637 l -2.628965,0.0102 2.072595,-1.96855 0.201516,-1.63169 -1.254863,-0.18892 -1.163808,0.60113 m 5.972931,3.11613 -2.628965,0.0102 2.072595,-1.96855 0.201516,-1.63169 -1.254864,-0.18892 -1.163807,0.60113 m -37.246751,81.68261 -2.628964,0.0103 2.072596,-1.96854 0.201516,-1.6317 -1.254864,-0.18892 -1.163807,0.60113 m 5.972931,3.11613 -2.628964,0.0103 2.072596,-1.96854 0.201515,-1.6317 -1.254863,-0.18892 -1.163808,0.60113 m 62.39665,-50.78136 -2.628964,0.0103 2.072595,-1.96854 0.201516,-1.63169 -1.254863,-0.18893 -1.163808,0.60113 m 2.820127,-0.26166 1.295522,-0.24499 0.07702,3.99926 m -51.927657,44.38501 -2.628965,0.0102 2.072595,-1.96854 0.201516,-1.6317 -1.254863,-0.18892 -1.163808,0.60113 m 2.820126,-0.26166 1.295522,-0.24499 0.07702,3.99926 m 16.891735,25.64236 -2.628966,0.0102 2.072596,-1.96853 0.201516,-1.6317 -1.254864,-0.18891 -1.163807,0.60112 m 2.972788,-0.37064 1.640029,-0.0366 0.05776,3.4978 -1.575515,0.0718 z m 31.981494,-33.66481 -2.628965,0.0102 2.072595,-1.96855 0.201516,-1.6317 -1.254863,-0.18891 -1.163808,0.60112 m 2.972893,-0.36521 1.640049,-0.0356 0.05776,3.49781 -1.575515,0.0718 z m 76.435674,-6.08507 1.29552,-0.24499 0.077,3.99926 m 0.7321,-0.44673 0.95639,0.20441 1.2635,-0.67808 0.20093,-2.11718 -0.63775,-1.00008 -1.0454,-0.0734 -0.68304,0.65586 -0.006,1.11962 0.71029,0.46205 0.86376,-0.09 0.7477,-0.27436 m -41.07652,4.40819 1.29552,-0.24499 0.077,3.99926 m 0.73211,-0.44674 0.95639,0.20442 1.2635,-0.67808 0.20093,-2.11718 -0.63775,-1.00008 -1.0454,-0.0734 -0.68304,0.65586 -0.006,1.11961 0.7103,0.46206 0.86376,-0.09 0.7477,-0.27436 m -37.872047,27.43276 1.295517,-0.24499 0.077,3.99926 m 1.84671,-2.33071 -0.82069,-0.5979 -0.009,-0.77952 0.76088,-0.39567 0.94523,0.38498 0.0387,0.77604 -1.9448,1.37746 -0.005,0.89293 0.69703,0.47208 1.09958,-0.0486 0.45311,-0.62038 -0.10436,-0.83281 z m -7.972554,24.61734 1.295522,-0.24499 0.07702,3.99925 m 1.846215,-2.35624 -0.820683,-0.59791 -0.009,-0.77952 0.760882,-0.39567 0.945232,0.38498 0.0388,0.77604 -1.944806,1.37746 -0.0049,0.89293 0.697029,0.47208 1.099577,-0.0487 0.4531,-0.62038 -0.104376,-0.83281 z m 97.500284,-70.225 1.29553,-0.24499 0.077,3.99926 m 0.54535,-4.0109 2.59952,-0.0501 -1.72457,3.93394 m 27.77868,27.05095 1.29552,-0.24499 0.077,3.99926 m 0.5456,-3.99813 2.59951,-0.0501 -1.72457,3.93393 m -91.0092,-155.084413 1.29552,-0.244991 0.077,3.999258 m 3.36685,-4.116541 -1.46695,0.04244 -1.14062,1.830485 0.18143,1.339172 0.80565,0.652551 1.14821,-0.05535 0.53003,-0.789198 -0.0881,-1.07362 -0.8693,-0.362236 -0.76434,0.04833 -0.9458,0.245508 m 122.5043,292.545162 1.29552,-0.24499 0.077,3.99926 m 3.39412,-4.10803 -1.46695,0.0425 -1.14061,1.83049 0.18143,1.33917 0.80565,0.65255 1.14821,-0.0553 0.53003,-0.78919 -0.088,-1.07363 -0.86931,-0.36224 -0.76433,0.0483 -0.94581,0.24551 m -3.87246,-51.94122 1.29552,-0.245 0.077,3.99926 m 2.7797,-4.0962 -2.00846,0.0629 0.006,1.49656 0.96063,-0.0623 1.2183,0.81488 -0.0297,0.73136 -0.93517,0.78972 -1.34085,-0.22164 m -13.33276,32.66738 1.29553,-0.24499 0.077,3.99926 m 2.77969,-4.09621 -2.00845,0.0629 0.006,1.49655 0.96061,-0.0623 1.21831,0.81488 -0.0297,0.73136 -0.93518,0.78972 -1.34083,-0.22163 m -44.78597,-114.21025 1.29553,-0.24499 0.077,3.99926 m 4.14059,-0.69689 -0.85688,0.0105 -2.26555,0.028 2.10979,-2.91419 0.15576,2.88623 0.0282,0.61748 m -27.67259,-8.77041 1.29552,-0.24499 0.077,3.99926 m 4.13173,-0.68768 -0.85688,0.0105 -2.26556,0.028 2.1098,-2.91419 0.15575,2.88623 0.0282,0.61747 m 39.02784,33.60751 1.29552,-0.24499 0.077,3.99926 m 0.56025,-4.08301 1.74928,-0.11551 0.42719,0.86381 -0.68447,0.8194 -0.89747,0.0358 0.91055,-0.0255 0.93744,1.13562 -0.99039,1.00307 -1.38055,-0.0994 m 0.20502,18.83655 1.29552,-0.24499 0.077,3.99926 m 0.56026,-4.08302 1.74928,-0.1155 0.42719,0.86381 -0.68446,0.8194 -0.89749,0.0358 0.91056,-0.0255 0.93744,1.13561 -0.9904,1.00308 -1.38053,-0.0994 m -71.59756,-71.30288 1.29552,-0.24499 0.077,3.99926 m 3.75072,-0.41443 -2.62896,0.0103 2.07259,-1.96853 0.20152,-1.6317 -1.25486,-0.18891 -1.16381,0.60112 m -24.61787,12.61468 1.29552,-0.24499 0.077,3.99926 m 3.75072,-0.41442 -2.62896,0.0103 2.07259,-1.96853 0.20152,-1.6317 -1.25486,-0.18893 -1.16381,0.60114 m -16.93336,197.9893 1.29552,-0.24499 0.077,3.99926 m 0.59793,-3.79222 1.29552,-0.24499 0.077,3.99926 m 71.7068,-20.56035 1.29552,-0.24499 0.077,3.99926 m 0.59793,-3.79222 1.29552,-0.24499 0.077,3.99926 m -125.281115,-47.13369 1.295522,-0.24499 0.07702,3.99925 m 0.754392,-3.70355 1.640029,-0.0366 0.05776,3.49781 -1.575516,0.0717 z m 23.651148,5.30408 1.29553,-0.24499 0.077,3.99926 m 0.75306,-3.77203 1.64003,-0.0366 0.0574,3.49782 -1.57551,0.0718 z m 28.40867,28.8863 0.95639,0.20442 1.2635,-0.67807 0.20093,-2.11719 -0.63774,-1.00008 -1.04541,-0.0734 -0.68304,0.65584 -0.006,1.11963 0.71029,0.46204 0.86376,-0.09 0.7477,-0.27435 m 16.23414,-16.68801 0.95639,0.20441 1.2635,-0.67806 0.20093,-2.11719 -0.63775,-1.00008 -1.04539,-0.0734 -0.68305,0.65584 -0.006,1.11962 0.7103,0.46205 0.86375,-0.09 0.74771,-0.27435 m -104.837524,-14.9897 -0.820683,-0.5979 -0.009,-0.77953 0.760882,-0.39566 0.945231,0.38498 0.0388,0.77604 -1.944807,1.37746 -0.0049,0.89293 0.69703,0.47208 1.099578,-0.0486 0.4531,-0.62038 -0.104375,-0.8328 z m -25.510799,-40.02102 -0.820683,-0.59791 -0.009,-0.77953 0.760882,-0.39566 0.945231,0.38498 0.0388,0.77604 -1.944807,1.37746 -0.0049,0.89293 0.69703,0.47208 1.099578,-0.0486 0.4531,-0.62038 -0.104375,-0.8328 z m 53.480985,7.93797 2.599518,-0.0501 -1.724569,3.93394 m -22.975362,-14.55763 2.599518,-0.0501 -1.724569,3.93394 m -7.779492,-192.86755 -1.46695,0.0424 -1.140612,1.83049 0.18143,1.33917 0.805645,0.65255 1.148208,-0.0553 0.530031,-0.78919 -0.08804,-1.07362 -0.869299,-0.36224 -0.764339,0.0483 -0.945803,0.24551 m -18.378789,164.41217 -1.46695,0.0425 -1.140612,1.83048 0.181431,1.33918 0.805644,0.65254 1.148208,-0.0553 0.530032,-0.78919 -0.08804,-1.07362 -0.869298,-0.36224 -0.764339,0.0483 -0.945803,0.2455 m 25.776846,-63.60246 -2.008456,0.0629 0.0058,1.49656 0.96062,-0.0623 1.21831,0.81488 -0.02972,0.73136 -0.935175,0.78973 -1.340843,-0.22164 m -8.747552,39.08206 -2.008456,0.0629 0.0058,1.49654 0.96062,-0.0623 1.218311,0.81489 -0.02972,0.73136 -0.935175,0.78973 -1.340843,-0.22165 m 31.056372,-20.20669 -0.856878,0.0105 -2.265555,0.028 2.10979,-2.91419 0.155762,2.88623 0.02819,0.61748 m 4.599874,23.91811 -0.856879,0.0105 -2.265554,0.028 2.109789,-2.91419 0.155763,2.88624 0.02819,0.61747 m 167.865266,3.21353 1.7493,-0.11551 0.42718,0.86383 -0.68447,0.81939 -0.89748,0.0358 0.91056,-0.0255 0.93744,1.13562 -0.9904,1.00308 -1.38054,-0.0995 m -10.46471,16.85612 1.74929,-0.1155 0.42718,0.86382 -0.68447,0.81939 -0.89748,0.0357 0.91056,-0.0255 0.93744,1.13562 -0.9904,1.00308 -1.38054,-0.0994 m -6.01107,42.32856 -2.62896,0.0103 2.07259,-1.96854 0.20151,-1.6317 -1.25486,-0.18892 -1.16381,0.60113 m -21.29429,8.50247 -2.62896,0.0103 2.07259,-1.96855 0.20151,-1.63169 -1.25486,-0.18892 -1.16381,0.60112 m 48.12205,11.86486 1.29552,-0.24499 0.077,3.99926 m -37.14177,23.29759 1.29553,-0.24499 0.077,3.99926 m -44.513,-16.40411 1.64003,-0.0366 0.0574,3.49782 -1.57552,0.0718 z m 23.8955,-0.71179 1.64003,-0.0366 0.0574,3.49781 -1.57551,0.0718 z"
     sodipodi:nodetypes="cccccccccccccccccccccccccccccccccccccccccccccccccccccccccccccccccccccccccccccccccccccccccccccccccccccccccccccccccccccccccccccccccccccccccccccccccccccccccccccccccccccccccccccccccccccccccccccccccccccccccccccccccccccccccccccccccccccccccccccccccccccccccccccccccccccccccccccccccccccccccccccccccccccccccccccccccccccccccccccccccccccccccccccccccccccccccccccccccccccccccccccccccccccccccccccccccccccccccccccccccccccccccccccccccccccccccccccccccccccccccccccccccccccccccccccccccccccccccccccccccccccccccccccccccccccccccccccccccccccccccccccccccccccccccccccccccccccccccccccccccccccccccccccccccccccccccccccccccccccccccccccccccccccccccccccccccccccccccccccccccccccccccccccccccccccccccccccccccccccccccccccccccccccccccccccccccccccccccccccccccccccccccccccccccccccccccccc" />
  <path
     id="path1288-6-0-6-3-4-5"
     style="font-variation-settings:normal;vector-effect:none;fill:none;fill-opacity:1;stroke:#ff0000;stroke-width:0.4;stroke-linecap:butt;stroke-linejoin:miter;stroke-miterlimit:4;stroke-dasharray:none;stroke-dashoffset:0;stroke-opacity:1;stop-color:#000000"
     inkscape:transform-center-x="-17.425604"
     inkscape:transform-center-y="-2.8020415"
     d="m 209.08781,311.46492 c 3.96278,1.74645 8.29495,8.10354 7.78404,10.77154 -0.79764,4.16541 -2.66869,1.19835 -5.57008,3.96133 -2.90132,2.76293 3.88509,8.90182 6.66553,7.15948 2.78046,-1.74236 0.56463,-5.95961 4.34355,-4.40447 3.77895,1.5551 8.00425,13.7725 8.00425,13.7725 3.71949,-2.21797 9.07293,-1.23535 10.95144,0.72691 2.93284,3.06355 -0.56952,2.86942 0.001,6.83506 0.57088,3.96554 9.5064,1.99121 9.69732,-1.28452 0.19087,-3.27568 -4.5302,-3.91318 -1.07319,-6.09211 3.457,-2.17895 14.69766,0.98393 14.69766,0.98393 0.13103,-3.70621 0.69539,-14.16052 1.82766,-15.95343 2.26455,-3.58592 2.7425,1.01822 6.74844,1.08461 4.00588,0.0664 3.47627,-9.06929 0.2725,-9.77819 -3.20375,-0.70895 -4.58321,3.8509 -6.18521,0.0916 -1.60208,-3.75928 4.71379,-15.77563 4.71379,-15.77563 0,0 -9.26374,-7.13727 -13.27944,-6.38042 -4.0157,0.75683 0.14121,3.08386 -1.23951,6.06045 -1.38077,2.97663 -10.41688,1.53086 -9.49127,-2.36717 0.92564,-3.89812 4.11189,-2.43111 2.50932,-6.35777 -1.02645,-2.51509 -6.17175,-5.53981 -10.44591,-4.84307 -2.85659,-2.24895 -5.73798,-3.69898 -6.51629,-5.67148 -1.55678,-3.94504 3.5424,-1.17932 5.96152,-4.37305 2.41906,-3.19367 -5.31364,-8.68794 -7.77763,-6.521 -2.46393,2.16697 0.40145,5.97287 -3.57842,5.04585 -3.9799,-0.92692 -9.33795,-10.74598 -9.33795,-10.74598 0,0 9.42858,6.01378 13.36042,4.90046 3.93185,-1.11321 -0.4167,-3.05882 0.69206,-6.14708 1.10877,-3.08828 10.53416,-2.01864 9.96119,1.94659 -0.57298,3.96532 -6.37374,4.01041 -3.10331,6.71065 1.63514,1.35012 4.85843,1.22592 8.44635,1.81298 3.38012,-2.70716 9.34768,-2.60128 11.47758,-0.91522 3.32531,2.63234 -0.17059,2.92042 0.93881,6.77027 1.10938,3.84977 9.68966,0.66852 9.42948,-2.60242 -0.2602,-3.27092 -5.02411,-3.25485 -1.89862,-5.88735 3.12547,-2.63251 14.70084,-0.9687 14.70084,-0.9687 -2.89298,-2.20192 -11.68244,-10.43313 -12.49292,-12.39263 -1.62105,-3.91908 2.41447,-1.65175 4.78105,-4.88462 2.36653,-3.2328 -5.39924,-8.0737 -7.82742,-5.86674 -2.42817,2.20693 0.49904,5.96542 -3.49546,5.10365 -3.99453,-0.86173 -9.81341,-12.8466 -9.81341,-12.8466 0,0 -14.38673,-4.50315 -17.87281,-2.37097 -3.48606,2.13213 1.226,2.83321 0.99095,6.10603 -0.23504,3.27284 -9.19637,5.12653 -9.71373,1.15365 -0.51736,-3.97296 3.96814,-5.11596 0.0908,-6.83444 -1.93861,-0.85925 -13.98004,-0.75344 -17.57715,-0.33316 3.20686,-1.72466 14.30786,-6.39101 16.42753,-6.33149 4.23943,0.11895 0.52294,2.87827 2.50894,6.35791 1.98597,3.47956 9.57402,-1.6354 8.54979,-4.75273 -1.02421,-3.11731 -5.64996,-1.97824 -3.23345,-5.27356 2.4165,-3.29536 17.42056,-4.57441 17.42056,-4.57441 0,0 13.07162,2.57361 16.16382,-0.098 3.09221,-2.67148 -1.6711,-2.59567 -1.97229,-5.86305 -0.30121,-3.26742 8.2385,-6.55603 9.39607,-2.72048 1.1576,3.83563 -3.08182,5.69399 1.02366,6.75796 2.05268,0.532 13.91607,-1.53379 17.3805,-2.51227 0,0 1.54773,-10.54265 -1.21622,-13.55254 -2.76386,-3.00992 -2.54387,1.74894 -5.80064,2.14889 -3.25679,0.4 -6.80247,-8.03622 -3.00372,-9.30939 3.79881,-1.27322 5.78469,2.90803 6.72388,-1.22779 0.46961,-2.06785 -1.5384,-9.66995 -2.62803,-13.13921 0,0 -12.117,-4.50319 -15.71928,-2.57385 -3.60227,1.92936 1.06199,2.89872 0.6402,6.15274 -0.42177,3.25402 -9.47443,4.5923 -9.76379,0.59635 -0.28937,-3.99606 3.19056,-3.55502 0.48142,-6.81809 -1.73516,-2.0901 -8.88739,-3.26161 -12.75207,-1.29308 -3.63271,0.0926 -15.63439,-0.89084 -17.48737,-1.92185 -3.70608,-2.06203 0.8644,-2.79477 0.70838,-6.79824 -0.15602,-4.00338 -9.24826,-2.96755 -9.77825,0.27064 -0.53,3.23815 4.09935,4.36241 0.43479,6.17061 -3.66458,1.80825 -16.80134,-3.84264 -16.80134,-3.84264 0,0 -9.79083,11.45924 -9.21297,15.50461 0.5778,4.04533 3.08708,-0.004 5.99943,1.50737 2.9124,1.51154 1.06687,10.47455 -2.78622,9.3768 -3.85318,-1.09778 -3.12699,-5.66932 -6.2401,-2.78912 -1.55653,1.44005 -6.22651,12.53954 -7.26447,16.00903 -0.32629,-3.62656 -0.25755,-15.66826 0.62974,-17.59421 1.77452,-3.85203 2.85236,0.64958 6.83241,0.18987 3.97996,-0.45971 2.25639,-9.44697 -1.01271,-9.72943 -3.26906,-0.28247 -4.03837,4.41892 -6.11974,0.90231 -2.08143,-3.51662 2.64654,-17.83674 2.64654,-17.83674 0,0 12.50198,-7.08933 13.27271,-11.10242 0.77073,-4.01306 -2.92025,-1.00116 -5.18181,-3.37854 -2.26158,-2.37739 2.40154,-10.25119 5.68731,-7.95878 3.28581,2.2925 1.1108,6.37851 4.99202,4.66878 1.94057,-0.85481 9.96985,-9.82911 12.10543,-12.77138 -4.3147,-0.37032 -9.78734,-5.12184 -10.16707,-7.81167 -0.593,-4.19945 2.13741,-1.99734 3.98876,-5.55047 1.8513,-3.55304 -6.55634,-7.16596 -8.62347,-4.61771 -2.06712,2.54825 1.39401,5.82172 -2.68482,5.57293 -4.07884,-0.24876 -11.99021,-10.48569 -11.99021,-10.48569 -1.52656,3.99362 -7.2052,7.51224 -9.8935,7.12197 -4.19707,-0.60923 -1.31732,-2.61201 -4.20815,-5.38603 -2.89079,-2.77397 -8.71785,4.28201 -6.85205,6.9812 1.86581,2.69914 5.97898,0.29566 4.5956,4.14078 -1.38337,3.84513 -12.22984,8.21412 -12.22984,8.21412 0,0 -5.06532,9.70165 -3.63446,13.52939 1.43079,3.82773 3.01457,-0.66523 6.18307,0.18749 3.16854,0.85273 3.28545,10.00302 -0.71332,9.75595 -3.99889,-0.2471 -3.09692,-3.63687 -6.69265,-1.38793 -2.30309,1.44047 -4.29899,7.84632 -2.89138,11.93604 1.16364,3.43873 2.79108,6.22376 2.37004,8.30205 -0.84203,4.15667 -3.61344,-0.93942 -7.38141,0.4224 -3.76785,1.36181 -0.27297,10.18044 2.97358,9.70426 3.24653,-0.47616 2.91514,-5.22859 5.74875,-2.28421 2.83367,2.94434 1.99332,14.09412 1.99332,14.09412 0,0 -4.63347,-10.17658 -8.53883,-11.37949 -3.90532,-1.20299 -1.31303,2.79394 -3.92243,4.78332 -2.60942,1.98941 -9.93912,-4.03205 -7.30271,-7.04878 2.63649,-3.01679 7.52984,0.0987 6.25268,-3.94557 -0.63853,-2.02209 -3.4115,-3.67002 -6.10386,-6.11316 -3.23521,-2.87875 -4.62453,-9.44291 -3.3192,-11.82521 2.03799,-3.71934 2.90772,-0.32112 6.51728,-2.05988 3.60946,-1.73872 -0.9644,-9.66469 -4.14551,-8.86015 -3.18109,0.80454 -2.36708,5.49842 -5.48602,2.85819 -3.11902,-2.64022 -3.43841,-13.57897 -3.43841,-13.57897 0,0 3.91846,-11.01831 1.95549,-14.60237 -1.96295,-3.58407 -2.88862,1.08904 -6.14645,0.69774 -3.25786,-0.39133 -4.68079,-9.43108 -0.68769,-9.7578 3.99316,-0.32673 3.58475,3.15712 6.82228,0.4176 2.07372,-1.7547 3.20161,-8.33918 1.20046,-12.19729 0,0 12.6082,-2.79623 14.58918,-6.37037 1.98102,-3.57412 -2.46385,-1.86001 -3.87354,-4.823004 -1.4097,-2.963001 5.47166,-8.995279 7.88114,-5.794388 2.40954,3.200968 -0.75371,4.716958 3.29177,5.990167 2.59117,0.815615 9.23623,-2.077439 11.42852,-5.812104 -3.99771,-1.664986 -7.76605,-7.855806 -7.30975,-10.533708 0.71224,-4.180878 2.64361,-1.252695 5.48786,-4.074476 2.84417,-2.821709 -4.06643,-8.820476 -6.81063,-7.02159 -2.74419,1.798875 -0.44256,5.969907 -4.25253,4.492427 -3.80996,-1.477461 -8.23312,-13.635981 -8.23312,-13.635981 1.03801,-3.529288 3.52134,-10.98967 5.04675,-12.462646 3.05086,-2.946063 2.42251,1.639957 6.29827,2.655155 3.87567,1.015189 5.52925,-7.985211 2.58524,-9.43418 -2.94398,-1.44898 -5.36617,2.653221 -6.03025,-1.378839 -0.66419,-4.032089 6.43219,-12.030777 6.43219,-12.030777 0,0 -8.79052,-10.388204 -12.87614,-10.307268 -4.08558,0.08089 -0.37178,3.064601 -2.22677,5.771192 -1.85494,2.706636 -10.52651,-0.216634 -8.96769,-3.907379 1.55881,-3.690807 6.00792,-2.41331 3.52826,-5.853994 -1.23978,-1.720315 -10.72552,-6.1511096 -14.05358,-7.6320525 0,0 -8.67596,6.4794935 -8.90694,10.5593715 -0.231,4.079871 3.02736,0.604523 5.58458,2.660518 2.55722,2.05598 -1.019,10.479293 -4.58007,8.6435 -3.56116,-1.835826 -1.37099,-4.575829 -5.56782,-3.964508 -2.68813,0.391445 -7.41575,5.884752 -7.75009,10.247406 -4.25285,-0.67522 -10.123131,-6.442336 -10.281829,-9.154179 -0.247939,-4.233864 2.293456,-1.816059 4.428889,-5.206041 2.1354,-3.389903 -5.94897,-7.677643 -8.217359,-5.306808 -2.268404,2.370823 0.913692,5.916136 -3.131172,5.334941 -4.044872,-0.581174 -9.692586,-10.538122 -9.692586,-10.538122 -2.332796,2.74812 -10.079189,10.601013 -12.096272,11.255167 -4.034243,1.308383 -1.457109,-2.536696 -4.494202,-5.149762 -3.037041,-2.613 -8.472655,4.748769 -6.463122,7.342719 2.009502,2.593915 5.986202,-0.02919 4.8135,3.885314 -1.172659,3.914566 -13.434005,8.749708 -13.434005,8.749708 0,0 4.033727,11.514893 7.839877,13.00217 3.806147,1.487266 1.515269,-2.689675 4.264088,-4.481474 2.748811,-1.791806 9.643941,4.224725 6.792517,7.039107 -2.8515,2.814449 -4.775324,-0.118701 -5.498326,4.060341 -0.463198,2.676713 3.289207,8.877209 7.281503,10.558074 0,0 -12.982155,2.275457 -14.917494,5.87454 -1.935372,3.599017 2.487308,1.828496 3.934599,4.773296 1.447308,2.944839 -5.356721,9.064212 -7.806748,5.894237 -2.450085,-3.170052 0.847127,-6.418848 -3.367743,-5.947795 -2.107381,0.235491 -7.534654,3.816131 -10.466755,5.869505 1.823989,3.020748 6.925261,12.800912 6.929824,14.921411 0.0092,4.241099 -2.861169,0.609656 -6.27922,2.699879 -3.417956,2.0902 1.923928,9.52025 5.008892,8.4023 3.084916,-1.11794 1.806631,-5.70715 5.173444,-3.3913 3.366883,2.31583 4.27783,15.36191 4.27783,15.36191 0,0 13.223442,0.67327 15.935058,-2.38386 2.711646,-3.05705 -1.999777,-2.3518 -2.730568,-5.55061 -0.730802,-3.19886 7.298815,-7.58827 8.953621,-3.93956 1.654837,3.64878 -2.301508,6.05164 1.908652,6.56316 2.105016,0.25577 8.210609,-1.97984 11.540467,-3.41924 0.999353,3.49324 2.826015,11.14095 2.307371,13.19705 -1.037254,4.1123 -2.923143,-0.11497 -6.751161,1.06755 -3.827946,1.18248 -0.483883,9.70063 2.781505,9.37819 3.265349,-0.32243 3.158586,-5.08514 5.8501,-2.01036 2.691602,3.07476 0.830326,13.27683 0.830326,13.27683 1.980511,3.85558 0.909914,10.47919 -1.166492,12.23068 -3.241821,2.73452 -2.827952,-0.74874 -6.821625,-0.42821 -3.993575,0.32052 -2.584725,9.36245 0.672513,9.75885 3.257222,0.39639 4.190162,-4.27529 6.147524,-0.68817 1.957428,3.58712 -1.935671,13.42932 -1.935671,13.42932 4.279842,0.66091 10.110125,5.67962 10.307448,8.38893 0.307998,4.22989 -2.267437,1.84842 -4.354555,5.26838 -2.087052,3.41989 6.057347,7.59243 8.291897,5.18961 2.23453,-2.4028 -0.9976,-5.90257 3.05509,-5.37885 4.05273,0.52369 11.30515,11.22551 11.30515,11.22551 0,0 -12.42362,-3.55076 -15.86489,-1.34699 -3.441252,2.20372 1.2843,2.80727 1.11694,6.08425 -0.16736,3.277 -9.088458,5.31549 -9.687818,1.35416 -0.599363,-3.96144 2.904309,-3.79248 -0.05046,-6.83488 -1.892604,-1.94867 -9.584825,-2.04583 -13.288269,0.19881 0,0 -3.386372,-10.02784 -7.197845,-11.50151 -3.811414,-1.4737 -1.505624,2.69504 -4.248041,4.49664 -2.742438,1.80161 -9.658988,-4.19028 -6.81761,-7.01481 2.841437,-2.82461 4.775713,0.10164 5.483804,-4.07993 0.453511,-2.67835 -3.008146,-8.42598 -7.007502,-10.08701 M 175.33801,341.38773 c 0,0 -7.71136,8.10361 -7.37457,12.17612 0.33667,4.07251 3.08188,0.17903 5.89942,1.86073 2.81756,1.68169 -0.0439,10.72574 -3.82501,9.40127 -3.78125,-1.3245 -2.71047,-7.02577 -5.989,-4.33536 -1.63925,1.34514 -2.13694,4.5322 -3.35277,7.86339 -4.26717,-0.41837 -10.45395,-4.99042 -10.85181,-7.67762 -0.62116,-4.19536 2.12396,-2.01164 3.95145,-5.5771 1.82742,-3.56537 -6.60426,-7.12182 -8.65426,-4.55975 -2.05,2.56205 1.43301,5.81224 -2.64738,5.5908 -4.08042,-0.2214 -12.10944,-10.3555 -12.10944,-10.3555 0,0 -0.25892,12.93044 2.75151,15.69381 3.01037,2.76338 2.38556,-1.9594 5.59639,-2.63552 3.21085,-0.67613 7.46267,7.42718 3.78629,9.01951 -3.67649,1.59236 -4.40902,-1.83805 -6.59475,1.79644 -1.40001,2.32794 0.47298,9.7893 3.57382,12.7738 0,0 -10.01496,5.70663 -10.59961,9.75101 -0.58469,4.04435 2.96336,0.86531 5.33224,3.13576 2.36886,2.27045 -1.92585,10.3511 -5.3139,8.21279 -3.38812,-2.1384 -0.96814,-4.67768 -5.20224,-4.43339 -2.71197,0.15636 -7.79608,3.90632 -8.52138,8.17573 -3.33998,-1.43607 -13.24608,-6.28826 -14.50683,-7.99327 -2.521587,-3.41007 1.94279,-2.18714 3.45634,-5.89675 1.5135,-3.70954 -7.193191,-6.52646 -9.014872,-3.79731 -1.821658,2.72912 1.928357,5.66718 -2.155938,5.79805 -4.084336,0.13097 -12.55904,-9.96061 -12.55904,-9.96061 0,0 6.895637,-9.44498 6.035322,-13.4398 -0.860306,-3.99481 -3.079176,0.22081 -6.090447,-1.08257 -3.011305,-1.30343 -1.799398,-10.37387 2.121244,-9.54924 3.920724,0.82465 2.536505,4.04773 6.420456,2.34427 2.487749,-1.09106 5.247802,-5.78222 4.440912,-10.03697 -0.728741,-3.56185 -1.992334,-6.52972 -1.312793,-8.53839 1.359014,-4.01748 3.466278,1.38718 7.375791,0.51093 3.909425,-0.87625 1.553425,-10.06492 -1.727233,-10.00157 -3.280648,0.0633 -3.550664,4.81965 -5.990722,1.54172 -2.440136,-3.27789 -0.175523,-14.22742 -0.175523,-14.22742 0,0 -8.714781,7.01077 -8.923536,11.09186 -0.208837,4.08106 3.030579,0.58798 5.59898,2.63004 2.568421,2.04205 -1.472312,10.6243 -5.043322,8.80792 -3.571096,-1.81642 -1.750373,-7.32422 -5.358078,-5.09454 -1.803837,1.11477 -2.72165,4.20712 -4.500091,7.46711 -2.145067,3.85183 -7.254502,5.7276 -9.869777,4.993 -4.083094,-1.14682 -0.968508,-2.76042 -3.476374,-5.88495 -2.507813,-3.12448 -9.198346,3.11879 -7.697224,6.03658 1.50113,2.91773 5.890547,1.0663 4.021585,4.70025 -1.868955,3.63397 -13.192355,6.56792 -13.192355,6.56792 0,0 -10.82174,-5.62571 -14.614779,-4.10529 -3.793026,1.5204 0.735913,2.99813 -0.04208,6.18579 -0.777973,3.18768 -9.922988,3.51968 -9.770009,-0.48382 0.152982,-4.00357 3.563073,-3.18155 1.23021,-6.72342 -1.494136,-2.26867 -8.473584,-4.22161 -12.5317866,-2.71033 0,0 10.2772996,-8.24869 10.2370986,-12.33493 -0.04014,-4.08619 -3.060755,-0.40234 -5.748742,-2.28415 -2.6880249,-1.88184 0.321539,-10.52384 3.996551,-8.92832 3.6751,1.59554 2.353327,6.03167 5.818551,3.58642 1.732581,-1.22257 4.760343,-6.97661 6.270229,-10.28387 2.907734,-3.20921 8.314397,-3.836 10.684844,-2.50926 3.700881,2.07133 0.294988,2.91049 2.001217,6.53552 1.706188,3.62497 9.672977,-0.87746 8.897052,-4.06569 -0.775935,-3.18818 -5.476905,-2.4164 -2.808749,-5.51149 2.668156,-3.09513 14.435474,-3.30485 14.435474,-3.30485 -0.91035,-4.2328 1.568384,-11.51537 4.008078,-12.71002 3.808962,-1.86513 2.561376,1.41326 6.513297,2.07244 3.951819,0.65915 4.781539,-8.4542 1.718149,-9.62993 -3.063377,-1.17573 -5.10317,3.12941 -6.130568,-0.82572 -1.027432,-3.95516 6.202384,-14.66443 6.202384,-14.66443 0,0 -12.370121,3.75607 -14.070992,7.4717 -1.700882,3.71559 2.599332,1.66543 4.232251,4.51151 1.632928,2.8461 -4.765206,9.38868 -7.41323,6.38213 -2.648082,-3.00663 0.389491,-4.7609 -3.741762,-5.7199 -2.646124,-0.61425 -9.166839,3.46745 -11.076332,7.23271 0,0 -9.292076,-7.24043 -13.305864,-6.47336 -4.013766,0.76703 0.149022,3.08348 -1.224137,6.06359 -1.373202,2.98012 -10.412956,1.55729 -9.497229,-2.34309 0.915731,-3.90045 4.1057,-2.44154 2.49316,-6.36412 -1.032819,-2.51248 -5.65842,-5.38104 -9.8835379,-4.62403 0.3600919,-3.5727 1.8506859,-14.50216 3.0727149,-16.23513 2.444027,-3.46607 2.687139,1.15637 6.68454,1.42649 3.997298,0.2701 3.933118,-8.88071 0.769537,-9.75168 -3.163532,-0.87094 -4.773174,3.6128 -6.181881,-0.22311 -1.40877,-3.83592 5.483585,-15.06615 5.483585,-15.06615 0,0 10.049161,3.24359 13.50371,1.06068 3.45454,-2.18286 -1.267269,-2.81499 -1.080085,-6.0909 0.187203,-3.27593 9.120472,-5.26038 9.695827,-1.29549 0.575391,3.96498 -2.927205,3.77481 0.0091,6.83504 1.880763,1.9601 8.867789,2.67687 12.583899,0.45773 3.159012,-1.79502 5.588256,-3.91725 7.708645,-3.89458 4.240866,0.0452 -0.243051,3.72564 1.803143,7.17023 2.046147,3.44449 10.050093,-1.64661 8.971813,-4.74566 -1.078259,-3.09903 -5.683551,-1.87974 -3.324648,-5.21654 2.35885,-3.33687 13.474315,-4.58199 13.474315,-4.58199 0,0 -9.351891,-6.1295 -13.298615,-5.07014 -3.946721,1.05927 0.374791,3.06425 -0.776147,6.13703 -1.150935,3.07281 -10.560812,1.87422 -9.933615,-2.08278 0.627225,-3.95712 6.428067,-3.92278 3.194916,-6.66754 -1.616513,-1.37239 -4.841199,-1.29232 -8.420737,-1.92846 -4.278889,-0.66706 -9.193899,-5.68453 -9.387315,-8.39411 -0.301924,-4.23034 2.270093,-1.84516 4.362106,-5.26213 2.091975,-3.41686 -6.046421,-7.60111 -8.284421,-5.20151 -2.23798,2.3996 0.989123,5.90401 -3.062821,5.37445 -4.051994,-0.5295 -9.71597,-9.47067 -9.71597,-9.47067 0,0 3.105158,-12.80696 0.57895,-16.01899 -2.526119,-3.21206 -2.669925,1.54969 -5.947708,1.69999 -3.277833,0.15035 -6.169402,-8.53188 -2.284575,-9.51148 3.884907,-0.97961 5.545921,3.34098 6.797957,-0.71112 0.626034,-2.02598 -0.488201,-8.43182 -1.296662,-12.06359 0,0 8.413446,5.98593 12.348174,4.88283 3.93471,-1.10301 -0.408726,-3.0599 0.70804,-6.14523 1.116776,-3.08538 10.244368,-2.43054 9.661085,1.5332 -0.583282,3.96382 -5.210565,3.84308 -1.947181,6.55182 1.631632,1.35436 9.319665,3.00311 12.906034,3.59949 M 175.28511,341.38707 c 0,0 -0.72682,11.16267 2.14152,14.07325 2.86825,2.91064 2.48064,-1.83754 5.7213,-2.35209 3.24067,-0.51458 6.83972,8.26205 3.08823,9.66837 -3.75157,1.40634 -6.58311,-3.65661 -7.37587,0.50976 -0.39642,2.08312 1.26388,4.8487 2.47116,8.27243 0,0 3.67489,10.91639 7.52901,12.27454 3.85409,1.35818 1.42376,-2.73919 4.11063,-4.62261 2.68687,-1.8834 9.78084,3.89735 7.02587,6.8062 -2.75504,2.90891 -4.77662,0.0423 -5.35837,4.24334 -0.37273,2.69079 2.31969,8.4058 6.36728,9.94557 0,0 10.22097,5.32207 13.94067,3.63013 3.71969,-1.69191 -0.87197,-2.96142 -0.24026,-6.18127 0.6317,-3.21984 9.75204,-3.96886 9.78191,0.0374 0.0299,4.00639 -3.41417,3.34085 -0.9221,6.77257 1.59611,2.19812 9.64973,3.88894 13.54926,2.20207 -3.01994,-3.17656 -3.85263,-10.3761 -2.31784,-12.61746 2.39605,-3.49944 2.92523,-0.0318 6.68912,-1.40483 3.76381,-1.37299 -0.003,-9.7127 -3.24834,-9.22689 -3.24506,0.48578 -2.89958,5.23716 -5.74196,2.30125 -2.84239,-2.93591 -1.73007,-13.70484 -1.73007,-13.70484 0,0 -6.60474,-9.65064 -10.65778,-10.17177 -4.05304,-0.52114 -0.81869,2.97654 -3.05165,5.38079 -2.23304,2.40425 -10.38011,-1.76311 -8.29522,-5.18432 2.08494,-3.42128 4.6619,-1.04146 4.35119,-5.27116 -0.19899,-2.70919 -3.70118,-6.87566 -7.98034,-7.64309 0,0 4.65889,-12.16841 2.77606,-15.79523 -1.88278,-3.62683 -2.9121,1.02459 -6.16044,0.56093 -3.24834,-0.46366 -4.46995,-9.53279 -0.4706,-9.77067 3.99945,-0.23789 3.51365,3.23606 6.81131,0.56917 2.11221,-1.70818 2.90606,-9.35998 1.00632,-13.2516 m -52.17121,-86.10396 18.09312,8.38227 14.99195,16.89706 6.17072,18.95556 -6.68852,30.36416 -23.25497,20.63005 -30.94608,3.02355 -26.81147,-15.74137 -12.435293,-28.48999 6.682263,-30.3614 23.25845,-20.63909 z"
     sodipodi:nodetypes="csssscsssscsssccsssscssscccssscsssscsssscsssscsssscssssccssscsssccsssscsssscsssscssssccsssccsssccssscssscccssscsssccsssscssscccssscssscccccscssscccssccccsccssscccssccccscccssscsssccssscccssscssssccssscccssscsssscsssscsssccsssscsssscssscccssscsssscsssccsssscsssscsssscsssscsssscsssscssssccsscccssscsssccccscccssscccssscsssccssscccssscsssscssssccccccccccccc" />
</svg>
