<?xml version="1.0" encoding="UTF-8" standalone="no"?>
<svg
   height="841.88977pt"
   viewBox="0 0 532.99998 754.00001"
   width="595.27557pt"
   version="1.1"
   id="svg1"
   sodipodi:docname="Totodile226_H20_A4x3.svg"
   inkscape:version="1.3 (0e150ed6c4, 2023-07-21)"
   xmlns:inkscape="http://www.inkscape.org/namespaces/inkscape"
   xmlns:sodipodi="http://sodipodi.sourceforge.net/DTD/sodipodi-0.dtd"
   xmlns="http://www.w3.org/2000/svg"
   xmlns:svg="http://www.w3.org/2000/svg">
  <defs
     id="defs1" />
  <sodipodi:namedview
     id="namedview1"
     pagecolor="#ffffff"
     bordercolor="#000000"
     borderopacity="0.25"
     inkscape:showpageshadow="2"
     inkscape:pageopacity="0.0"
     inkscape:pagecheckerboard="0"
     inkscape:deskcolor="#d1d1d1"
     inkscape:document-units="mm"
     showgrid="false"
     inkscape:zoom="2.1719924"
     inkscape:cx="506.67765"
     inkscape:cy="846.45784"
     inkscape:window-width="1920"
     inkscape:window-height="1057"
     inkscape:window-x="-8"
     inkscape:window-y="-8"
     inkscape:window-maximized="1"
     inkscape:current-layer="svg1" />
  <style
     type="text/css"
     id="style1"><![CDATA[
			path {
				fill: none;
			}
		]]></style>
  <g
     id="page_001">
    <path
       d="m 164.3,698.3 0.4,0.9 1,0.5 1.5,0.2 0.9,-0.1 1.4,-0.4 0.9,-0.7 0.2,-0.9 v -0.6 l -0.4,-0.9 -1,-0.5 -1.5,-0.1 h -0.9 l -1.4,0.5 -0.9,0.6 -0.2,1 v 0.4 m -61.6,31.2 0.5,-0.4 0.8,-1 0.8,6.3 m 10,-98.6 -0.2,0.7 v 1.2 l -4.4,-4.5 m 2.4,6.7 0.4,-0.8 -0.2,-1.1 -0.8,-1.3 -0.6,-0.6 -1.3,-0.9 -1,-0.2 -0.9,0.4 -0.4,0.4 -0.5,0.9 0.2,1 0.9,1.3 0.6,0.7 1.2,0.8 1.1,0.3 0.9,-0.4 0.3,-0.4 m -85.7,54.1 0.3,-0.1 0.7,0.1 0.4,0.2 0.4,0.5 0.4,1.2 -0.2,0.6 -0.2,0.4 -0.5,0.5 -0.5,0.1 -0.7,-0.1 -1,-0.3 -3.7,-2.1 1.1,4.1 m 17.7,-32.6 -3.2,-0.7 2.3,-1.9 -0.9,-0.2 -0.6,-0.5 -0.2,-0.3 -0.1,-1 0.1,-0.5 0.5,-0.9 0.7,-0.4 1,-0.1 0.9,0.2 0.8,0.5 0.2,0.3 0.2,0.7 m 185.5,-20 -0.5,-0.5 -1.1,-0.5 5.9,-2.1 m -7.7,-2.3 1,2.8 2.6,-0.6 -0.4,-0.2 -0.6,-0.7 -0.3,-0.9 v -0.9 l 0.4,-0.8 0.7,-0.6 0.6,-0.2 h 0.9 l 0.8,0.4 0.6,0.7 0.3,0.9 v 0.9 l -0.2,0.4 -0.4,0.5 m -17.7,39.5 h 0.7 l 1.2,-0.5 -2.5,5.8 m 6.6,-3.4 -0.1,-0.6 -0.7,-0.6 -0.5,-0.3 -1,-0.1 -0.9,0.6 -0.8,1.3 -0.6,1.4 -0.2,1.2 0.3,0.8 0.7,0.6 0.3,0.1 0.9,0.1 0.8,-0.3 0.7,-0.7 0.1,-0.3 v -0.9 l -0.3,-0.8 -0.7,-0.6 -0.3,-0.2 h -0.9 l -0.8,0.3 -0.6,0.7 m -23.7,-143.9 -0.5,-0.5 -1.1,-0.5 5.9,-2.1 m -7.6,-1.9 5,1.4 -1.5,-4.2 m -3.5,2.8 6,-2.1 m -87.3,-22.4 0.4,0.6 1.1,0.6 -6.1,1.5 m 5.2,0.4 h 0.3 l 0.7,0.1 0.3,0.3 0.5,0.5 0.2,1.1 -0.1,0.7 -0.2,0.4 -0.6,0.4 -0.5,0.1 -0.7,-0.1 -1,-0.4 -3.6,-2.3 0.9,4.1 m 55.3,-68.6 -0.3,0.1 -0.7,-0.1 -0.4,-0.1 -0.5,-0.5 -0.4,-1.1 0.1,-0.7 0.2,-0.4 0.4,-0.5 0.6,-0.2 0.7,0.1 1,0.2 3.9,1.8 -1.5,-3.9 m -5.1,0.1 -0.3,0.1 -0.6,-0.1 -0.4,-0.2 -0.5,-0.4 -0.4,-1.1 0.1,-0.7 0.1,-0.4 0.5,-0.5 0.6,-0.2 0.6,0.1 1.1,0.2 3.8,1.8 -1.4,-3.9 m -59.6,19.4 0.2,0.6 0.9,1 -6.3,-0.3 m 6.2,5.5 -6.1,-3.3 m 6.4,-0.9 -0.3,4.2 M 54.7,364.5 H 55 l 0.5,0.5 0.2,0.3 0.1,0.7 -0.3,1.2 -0.4,0.5 -0.4,0.2 -0.6,0.1 -0.6,-0.1 -0.5,-0.4 -0.7,-0.8 -2.2,-3.7 -1,4.1 m 5.1,5.7 -3.3,-3.9 -1.1,4.3 m 4.4,-0.4 -6.1,-1.5 m 14,50.5 0.1,-0.3 0.5,-0.4 0.4,-0.2 h 0.7 l 1.1,0.4 0.4,0.5 0.2,0.4 v 0.7 l -0.2,0.5 -0.5,0.5 -0.9,0.6 -3.9,1.6 3.9,1.6 m 6.8,-4 -2.8,-1.2 -1.3,2.4 0.4,-0.1 h 0.9 l 0.8,0.4 0.8,0.6 0.3,0.8 -0.1,0.9 -0.2,0.6 -0.6,0.7 -0.8,0.3 h -0.9 l -0.9,-0.4 -0.7,-0.6 -0.2,-0.4 V 427 m 21.1,-109.6 -3.2,1 1,-2.8 -0.8,0.3 -0.7,-0.1 -0.4,-0.2 -0.6,-0.8 -0.1,-0.5 v -1 l 0.3,-0.7 0.8,-0.6 0.9,-0.3 h 0.9 l 0.4,0.2 0.5,0.5 m -4.5,5.2 0.1,0.3 -0.1,0.7 -0.2,0.4 -0.5,0.4 -1.1,0.4 -0.7,-0.1 -0.3,-0.2 -0.5,-0.5 -0.2,-0.5 0.1,-0.7 0.3,-1 1.9,-3.8 -4,1.3 m 77.8,38.2 -0.3,-0.2 -0.3,-0.5 -0.1,-0.5 v -0.6 l 0.6,-1.1 0.5,-0.3 0.4,-0.2 0.7,0.1 0.5,0.3 0.4,0.5 0.5,1 1.2,4.1 2,-3.7 m -4.7,-4.6 1.6,-2.9 1.3,2.8 0.4,-0.8 0.6,-0.4 0.4,-0.1 0.9,0.2 0.5,0.2 0.7,0.7 0.2,0.9 -0.2,0.9 -0.4,0.8 -0.7,0.6 -0.4,0.1 h -0.7 m 30,-70.6 -0.7,0.1 -0.6,0.7 -0.2,0.5 -0.1,1 0.6,0.9 1.2,0.9 1.4,0.5 1.2,0.2 0.8,-0.3 0.6,-0.7 0.2,-0.3 v -0.9 l -0.3,-0.8 -0.7,-0.6 -0.3,-0.1 -0.9,-0.1 -0.8,0.3 -0.6,0.7 -0.1,0.3 -0.1,0.9 0.3,0.8 0.7,0.6 m -0.3,-6.1 -0.3,-0.1 -0.4,-0.6 -0.2,-0.3 V 276 l 0.5,-1.1 0.5,-0.5 0.4,-0.1 0.6,-0.1 0.6,0.3 0.4,0.5 0.6,0.9 1.6,3.9 1.7,-3.8 m -61.3,-60.4 0.5,-0.5 -0.2,-0.9 -0.2,-0.6 -0.7,-0.7 -1,-0.1 -1.5,0.3 -1.4,0.7 -0.9,0.7 -0.3,0.8 0.1,1 0.1,0.3 0.7,0.6 0.8,0.3 0.9,-0.1 0.3,-0.1 0.7,-0.6 0.3,-0.8 -0.2,-1 -0.1,-0.3 -0.6,-0.6 -0.8,-0.3 -1,0.1 m 7.3,5.6 -5,-1 1.9,4.1 m 3.1,-3.1 -5.7,2.7 m 74.1,-61.1 -0.1,0.6 0.5,0.8 0.5,0.4 0.9,0.3 1,-0.4 1.2,-1 0.9,-1.2 0.5,-1.1 -0.2,-0.9 -0.5,-0.8 -0.2,-0.1 -0.9,-0.3 -0.9,0.1 -0.8,0.5 -0.1,0.3 -0.3,0.9 0.1,0.8 0.5,0.8 0.3,0.2 0.9,0.3 0.8,-0.2 0.8,-0.5 m -8.4,-3.7 0.8,-0.6 0.8,-0.1 0.9,0.3 0.2,0.2 0.6,0.8 0.1,0.8 -0.3,0.9 -0.2,0.3 -0.8,0.5 -0.8,0.1 -0.9,-0.3 -0.3,-0.2 -0.5,-0.7 -0.1,-0.9 0.5,-1.1 0.9,-1.2 1.1,-1 1,-0.4 0.9,0.3 0.5,0.4 0.6,0.8 -0.2,0.6 m -48.4,17.1 -2.5,-6.5 m 5.4,3.5 -2.9,3 m -2.1,2.1 0.4,-0.8 -0.2,-1.1 -0.9,-1.2 -0.6,-0.6 -1.3,-0.9 -1.1,-0.1 -0.8,0.4 -0.5,0.4 -0.4,0.9 0.3,1.1 0.9,1.2 0.6,0.6 1.3,0.8 1.1,0.2 0.8,-0.4 0.3,-0.3 m 72.2,22.7 -0.2,1 0.3,0.5 0.6,0.3 0.6,0.1 0.6,-0.4 0.8,-0.9 0.8,-0.6 0.8,-0.2 h 0.7 l 0.7,0.5 0.4,0.5 0.1,0.5 -0.2,0.9 -0.6,1 -0.7,0.6 -0.4,0.2 -0.7,-0.1 -0.8,-0.4 -0.3,-0.6 -0.2,-0.8 0.1,-1 0.4,-1.1 v -0.7 l -0.3,-0.6 -0.5,-0.3 h -0.7 l -0.7,0.6 -0.7,1.2 m 2.9,-5 -0.2,0.9 0.5,1 1.1,1 0.8,0.4 1.5,0.5 h 1 l 0.8,-0.7 0.3,-0.5 0.1,-0.9 -0.4,-1 -1.2,-1 -0.7,-0.5 -1.5,-0.4 h -1.1 l -0.7,0.6 -0.2,0.4 m -1.3,-70.7 -0.5,-0.8 -0.6,-0.1 -0.6,0.1 -0.5,0.5 -0.2,0.6 v 1.3 0.9 l -0.5,0.7 -0.5,0.5 -0.8,0.2 -0.7,-0.2 -0.4,-0.2 -0.5,-0.8 -0.3,-1.1 0.1,-1 0.2,-0.3 0.5,-0.5 0.9,-0.2 0.6,0.1 0.8,0.5 0.5,0.8 0.6,1.1 0.4,0.5 0.7,0.1 0.6,-0.1 0.5,-0.5 v -0.9 l -0.3,-1.3 m 2,7.8 -6.9,-1.4 m 5.8,-2.7 1.1,4.1 m 1.8,-46.8 0.7,-7 m 3.3,5.5 -4,1.5 m -4.9,1.8 0.7,-7 m 3.3,5.5 -4,1.5 m 61.8,47.6 -0.7,0.6 v 0.7 l 0.2,0.6 0.5,0.4 h 0.7 l 1.2,-0.2 1,-0.1 0.8,0.3 0.5,0.4 0.4,0.8 -0.1,0.7 -0.1,0.4 -0.7,0.6 -1.1,0.5 -0.9,0.1 -0.4,-0.1 -0.6,-0.4 -0.3,-0.9 v -0.6 l 0.3,-0.8 0.7,-0.7 0.9,-0.7 0.5,-0.6 v -0.6 l -0.3,-0.6 -0.5,-0.4 -0.9,0.1 -1.2,0.6 m 6.9,-3.2 -2.8,1.3 0.9,2.5 0.1,-0.4 0.7,-0.6 0.8,-0.4 1,-0.1 0.8,0.3 0.6,0.7 0.3,0.6 0.1,0.9 -0.3,0.8 -0.7,0.6 -0.8,0.4 -1,0.1 -0.4,-0.1 -0.5,-0.5 m -8.8,-78.9 -0.4,-7 m 4.1,4.9 -3.7,2.1 m -1.5,0.8 -2.9,1.6 0.4,-2.9 -0.8,0.4 H 283 l -0.4,-0.1 -0.7,-0.6 -0.3,-0.6 -0.2,-0.9 0.2,-0.8 0.7,-0.7 0.8,-0.4 0.9,-0.2 0.4,0.1 0.5,0.4 m 49.4,-1.3 5.9,-3.7 m -2.3,6 -3.6,-2.3 m -3.6,-2.2 4.8,-2 -3.8,-2.4 m -1,4.4 3.4,-5.4 m 26.1,80.9 h -0.9 l -0.5,0.4 -0.2,0.6 v 0.7 l 0.5,0.5 1,0.7 0.7,0.6 0.4,0.7 0.1,0.7 -0.4,0.8 -0.4,0.5 -0.4,0.2 -1,-0.1 -1.1,-0.4 -0.7,-0.6 -0.2,-0.4 -0.1,-0.6 0.3,-0.9 0.5,-0.4 0.8,-0.4 h 0.9 l 1.3,0.2 0.6,-0.1 0.5,-0.4 0.2,-0.6 v -0.7 l -0.8,-0.6 -1.2,-0.4 m 6.8,3.5 -0.1,-0.7 -0.7,-0.6 -0.6,-0.2 h -0.9 l -0.9,0.6 -0.8,1.3 -0.6,1.4 -0.1,1.2 0.4,0.8 0.7,0.6 0.3,0.1 h 0.9 l 0.8,-0.3 0.6,-0.8 0.1,-0.2 v -1 l -0.3,-0.8 -0.8,-0.6 -0.2,-0.1 h -1 l -0.8,0.4 -0.6,0.7 m 25.5,-65.7 0.8,-0.3 0.3,-0.6 v -0.6 l -0.3,-0.6 -0.6,-0.3 -1.2,-0.3 -0.9,-0.3 -0.6,-0.6 -0.3,-0.6 v -0.9 l 0.3,-0.6 0.3,-0.3 0.9,-0.3 h 1.2 l 0.9,0.3 0.3,0.3 0.3,0.6 v 0.9 l -0.3,0.6 -0.6,0.6 -0.9,0.3 -1.2,0.3 -0.6,0.3 -0.3,0.6 v 0.6 l 0.3,0.6 1,0.3 h 1.3 m -5.5,0.1 0.9,-0.3 0.3,-0.6 v -0.6 l -0.3,-0.6 -0.6,-0.3 -1.2,-0.3 -0.9,-0.3 -0.7,-0.6 -0.3,-0.6 v -0.9 l 0.3,-0.6 0.3,-0.3 0.9,-0.3 h 1.2 l 0.9,0.3 0.3,0.3 0.3,0.6 v 0.9 l -0.3,0.6 -0.5,0.6 -0.9,0.3 -1.2,0.3 -0.6,0.3 -0.3,0.6 V 64 l 0.3,0.6 0.9,0.3 h 1.4 m 46.2,9.6 0.9,0.1 0.5,-0.4 0.3,-0.6 V 73 l -0.4,-0.6 -1,-0.8 -0.6,-0.6 -0.3,-0.8 v -0.7 l 0.4,-0.8 0.5,-0.4 0.4,-0.2 0.9,0.2 1.1,0.5 0.7,0.6 0.1,0.4 v 0.7 l -0.4,0.8 -0.5,0.4 -0.8,0.3 -0.9,-0.1 -1.2,-0.3 -0.7,0.1 -0.5,0.4 -0.3,0.5 v 0.7 l 0.7,0.6 1.2,0.6 m -3.4,-3.3 -0.1,0.3 -0.6,0.4 -0.4,0.1 h -0.6 l -1.1,-0.5 -0.4,-0.5 -0.2,-0.4 v -0.7 l 0.3,-0.5 0.5,-0.4 0.9,-0.6 4.1,-1.4 -3.8,-1.8 m -1.9,83.2 -0.9,-0.1 -0.5,0.5 -0.2,0.6 v 0.6 l 0.5,0.5 1,0.7 0.8,0.6 0.3,0.8 0.1,0.6 -0.3,0.9 -0.5,0.4 -0.4,0.2 h -0.9 l -1.2,-0.4 -0.7,-0.6 -0.2,-0.4 -0.1,-0.7 0.4,-0.8 0.4,-0.5 0.8,-0.3 h 1 l 1.2,0.1 h 0.7 l 0.4,-0.5 0.3,-0.6 -0.1,-0.6 -0.8,-0.6 -1.2,-0.5 m 3.2,2.7 0.6,-0.1 1.2,-0.5 -2.2,5.9 M 475.8,27.2 480,21.7 m -0.1,6.4 -4.1,-0.9 m -0.8,-1.6 -0.6,0.2 -1.1,0.7 1.3,-6.2 m -28.8,18 -6.9,-1.1 m 5.7,-3 1.2,4.1 m -1,2 0.3,-0.1 0.7,0.1 0.3,0.2 0.5,0.5 0.3,1.2 -0.1,0.6 -0.2,0.4 -0.5,0.5 -0.5,0.1 -0.7,-0.1 -1,-0.3 -3.8,-2 1.2,4 m 70.9,57.6 0.3,0.9 0.6,0.3 0.6,0.1 0.6,-0.3 0.3,-0.6 0.4,-1.2 0.3,-0.8 0.7,-0.6 0.6,-0.3 0.9,0.1 0.6,0.3 0.2,0.3 0.3,0.9 -0.1,1.2 -0.3,0.9 -0.3,0.3 -0.6,0.3 -0.9,-0.1 -0.6,-0.3 -0.6,-0.6 -0.2,-1 -0.3,-1.2 -0.2,-0.6 -0.6,-0.3 h -0.6 l -0.6,0.2 -0.4,0.9 -0.1,1.4 m 0.3,-4.6 0.2,-3.3 2.3,1.9 v -0.9 l 0.3,-0.6 0.4,-0.3 0.9,-0.2 h 0.6 l 0.8,0.4 0.6,0.6 0.3,0.9 -0.1,0.9 -0.3,0.9 -0.3,0.3 -0.7,0.2 m -34.7,62.5 -0.9,0.3 -0.3,0.6 v 0.6 l 0.3,0.6 0.6,0.3 1.2,0.3 0.9,0.3 0.6,0.6 0.2,0.6 v 0.9 l -0.3,0.6 -0.3,0.3 -0.9,0.3 h -1.2 l -0.9,-0.3 -0.3,-0.3 -0.3,-0.6 v -0.9 l 0.4,-0.6 0.6,-0.6 0.9,-0.3 1.2,-0.3 0.6,-0.3 0.3,-0.6 v -0.6 l -0.3,-0.6 -0.9,-0.3 h -1.4 m 7.2,0 -3.1,4.2 h 4.5 m -1.4,-4.2 -0.1,6.3 m -398.2,97.7 0.5,0.4 1.1,0.5 -5.8,2.4 m 5.1,-0.9 0.5,0.4 1.2,0.5 -5.9,2.4 m 7.8,1.9 -1.1,-2.7 -2.6,0.7 0.4,0.1 0.6,0.8 0.3,0.8 0.1,1 -0.3,0.7 -0.8,0.6 -0.5,0.3 h -1 l -0.8,-0.3 -0.6,-0.7 -0.3,-0.9 -0.1,-0.9 0.2,-0.4 0.5,-0.5 m 28.3,-37.5 -0.1,0.7 0.6,0.7 0.5,0.4 0.9,0.2 1,-0.4 1.1,-1.1 0.8,-1.3 0.4,-1.2 -0.2,-0.8 -0.6,-0.7 -0.2,-0.2 -0.9,-0.2 -0.9,0.1 -0.7,0.6 -0.2,0.3 -0.2,0.9 0.2,0.8 0.6,0.8 0.2,0.1 0.9,0.3 0.9,-0.2 0.7,-0.6 m -9.2,-0.9 4.8,-1.9 -3.8,-2.4 m -1,4.3 3.4,-5.3 m -63.8,-26.9 0.6,0.3 1.3,0.2 -5.1,3.6 m 5,-1.5 0.2,-0.2 0.7,-0.1 0.4,0.1 0.6,0.3 0.7,1 0.1,0.6 -0.1,0.4 -0.3,0.6 -0.5,0.4 -0.6,0.1 h -1.1 l -4.2,-0.7 2.5,3.4 m 6.8,-1.2 -0.8,-0.6 -1,0.1 -1.4,0.6 -0.8,0.5 -1,1.1 -0.4,1 0.3,0.9 0.3,0.5 0.8,0.6 h 1.1 l 1.4,-0.7 0.7,-0.5 1,-1.1 0.4,-1 -0.3,-0.9 -0.2,-0.4 m 19.9,-30.8 6.9,0.6 m -5.5,3.3 -1.4,-3.9 m -1.1,-2.7 0.6,0.7 1.1,0.2 1.5,-0.2 0.8,-0.3 1.3,-0.8 0.7,-0.9 -0.1,-1 -0.2,-0.5 -0.6,-0.8 -1,-0.2 -1.6,0.2 -0.8,0.4 -1.3,0.8 -0.6,0.8 v 1 l 0.2,0.4 m -40.5,-50.2 0.3,0.6 0.8,0.9 -6.3,-0.3 m 4.9,1.9 h 0.3 l 0.6,0.4 0.3,0.3 0.3,0.6 -0.1,1.2 -0.3,0.6 -0.3,0.3 -0.6,0.2 h -0.6 l -0.6,-0.3 -0.9,-0.7 -2.8,-3.1 -0.3,4.2 m 4.8,1.9 h 0.3 l 0.5,0.3 0.3,0.3 0.3,0.7 -0.1,1.2 -0.3,0.5 -0.3,0.3 -0.6,0.3 h -0.6 l -0.6,-0.4 -0.9,-0.6 -2.8,-3.2 -0.2,4.2 M 82.8,98.8 83.7,98.7 84.1,98.1 84.2,97.5 84,96.9 83.4,96.5 82.3,96 81.5,95.6 81,94.9 l -0.2,-0.6 0.1,-0.9 0.4,-0.6 0.3,-0.2 1,-0.2 1.2,0.2 0.8,0.4 0.2,0.4 0.3,0.6 -0.2,0.9 -0.4,0.6 -0.7,0.5 -0.9,0.1 -1.2,0.1 -0.7,0.2 -0.4,0.6 -0.1,0.6 0.3,0.6 0.8,0.5 1.3,0.2 M 75,97.6 78.9,91.9 m 0.2,6.4 -4.1,-0.7 m 19.2,10.5 -0.6,-0.3 -0.9,0.2 -0.5,0.3 -0.6,0.7 -0.1,1.1 0.5,1.4 0.8,1.3 0.9,0.9 0.8,0.2 0.9,-0.2 0.3,-0.2 0.6,-0.7 0.2,-0.8 -0.2,-0.9 -0.1,-0.3 -0.8,-0.6 -0.8,-0.2 -0.9,0.2 -0.3,0.1 -0.6,0.8 -0.2,0.8 0.2,0.9 m 6.6,-6.4 0.2,0.9 -0.2,0.9 -0.6,0.7 -0.3,0.1 -0.9,0.2 -0.8,-0.2 -0.7,-0.6 -0.2,-0.2 -0.2,-1 0.2,-0.8 0.6,-0.7 0.3,-0.2 0.9,-0.2 0.8,0.2 0.9,0.9 0.8,1.3 0.5,1.4 -0.1,1.1 -0.6,0.7 -0.5,0.4 -0.9,0.2 -0.6,-0.4 m -12.6,460.7 -0.4,0.6 -0.3,1.3 -3.3,-5.4 m 1.9,6.4 -2.8,1.8 0.3,-3 -0.8,0.4 -0.6,0.1 -0.4,-0.1 -0.8,-0.6 -0.3,-0.5 -0.2,-1 0.2,-0.8 0.6,-0.7 0.8,-0.5 0.9,-0.2 0.4,0.1 0.6,0.4 m 16.2,43.5 v 0.9 l -0.3,0.8 -0.7,0.7 -0.2,0.1 -1,0.1 -0.8,-0.3 -0.6,-0.8 -0.1,-0.2 -0.1,-1 0.3,-0.8 0.7,-0.6 0.3,-0.1 0.9,-0.1 0.8,0.3 0.8,1 0.6,1.4 0.3,1.5 -0.2,1 -0.7,0.7 -0.6,0.2 -0.9,0.1 -0.5,-0.4 M 58,604.4 l 0.4,0.5 1,0.8 -6.2,1 m 5.2,0.8 h 0.3 l 0.6,0.2 0.4,0.2 0.4,0.5 0.2,1.2 -0.2,0.7 -0.3,0.3 -0.5,0.4 -0.6,0.1 -0.7,-0.2 -0.9,-0.4 -3.5,-2.5 0.7,4.1 m 7,3.2 -4.7,-2.2 0.8,4.4 m 3.9,-2.2 -6.2,1.1 m 426,-379.7 1.4,2.7 2.5,-0.9 -0.4,-0.2 -0.7,-0.6 -0.4,-0.8 -0.1,-1 0.3,-0.8 0.6,-0.7 0.6,-0.2 0.9,-0.2 0.8,0.3 0.7,0.7 0.4,0.8 0.1,0.9 -0.1,0.4 -0.4,0.6 m 6,86.3 -0.7,0.2 -0.4,0.9 -0.2,0.5 0.2,1 0.8,0.7 1.4,0.6 1.5,0.3 1.2,-0.1 0.7,-0.5 0.4,-0.8 0.1,-0.3 -0.1,-0.9 -0.5,-0.7 -0.8,-0.5 -0.3,-0.1 -1,0.2 -0.7,0.5 -0.4,0.8 -0.1,0.3 0.1,0.9 0.5,0.7 0.9,0.5 m -28.7,46 -1.6,6.8 m -2.5,-5.9 4.1,-0.9 m -49.7,5.6 -0.9,0.3 -0.3,0.6 v 0.6 l 0.3,0.6 0.6,0.3 1.2,0.3 1,0.3 0.6,0.6 0.3,0.6 v 0.9 l -0.3,0.6 -0.3,0.3 -0.9,0.3 h -1.2 l -0.9,-0.3 -0.3,-0.3 -0.3,-0.6 V 384 l 0.3,-0.6 0.6,-0.6 0.8,-0.3 1.2,-0.3 0.6,-0.3 0.3,-0.6 v -0.6 l -0.3,-0.6 -0.9,-0.3 h -1.3 m 10.2,-188.4 3.9,-3.4 -4.4,-1 m 0.5,4.4 1.5,-6.1 m -82,105.9 0.6,-0.3 0.8,-1 0.6,6.3 m 4.6,-4.8 -0.2,0.9 -0.6,0.6 -0.8,0.4 h -0.3 l -0.9,-0.2 -0.7,-0.5 -0.4,-0.9 v -0.3 l 0.2,-0.9 0.6,-0.7 0.8,-0.4 h 0.3 l 1,0.2 0.6,0.6 0.4,1.2 0.1,1.5 -0.1,1.5 -0.6,0.9 -0.8,0.4 h -0.6 l -0.9,-0.2 -0.4,-0.5 m -12.1,-16.9 0.3,0.1 0.5,0.5 0.2,0.4 0.1,0.6 -0.4,1.2 -0.5,0.5 -0.4,0.2 -0.6,0.1 -0.6,-0.2 -0.5,-0.5 -0.6,-0.8 -2,-3.8 -1.3,4 m 5.1,4.7 v -0.9 l -0.6,-0.9 -1.4,-0.7 -0.8,-0.3 -1.6,-0.2 -1,0.3 -0.6,0.8 -0.1,0.6 v 0.9 l 0.6,0.9 1.4,0.7 0.8,0.3 1.6,0.1 1,-0.2 0.6,-0.8 0.1,-0.4 m 23.3,27 -0.4,0.6 -0.4,1.2 -2.9,-5.6 m -2.5,6.2 -0.1,-0.9 0.2,-0.8 0.7,-0.7 0.3,-0.1 0.9,-0.2 0.8,0.3 0.7,0.6 0.1,0.3 0.2,1 -0.3,0.8 -0.6,0.6 -0.3,0.2 -0.9,0.1 -0.8,-0.2 -0.9,-1 -0.6,-1.3 -0.5,-1.5 0.1,-1 0.7,-0.7 0.5,-0.3 1,-0.1 0.5,0.4 m -19,34.2 h 0.3 l 0.6,0.3 0.3,0.3 0.3,0.6 v 1.2 l -0.3,0.6 -0.3,0.3 -0.5,0.3 h -0.6 l -0.7,-0.2 -0.9,-0.6 -3,-3 0.1,4.2 m 4.9,1 0.3,0.6 0.9,0.9 -6.3,0.1 m -17.3,-111.7 0.7,0.1 1.3,-0.3 -3.5,5.3 m 5.8,-4 -0.9,-0.2 -0.6,0.3 -0.3,0.5 -0.1,0.7 0.3,0.5 0.9,1 0.6,0.7 0.1,0.8 -0.1,0.7 -0.4,0.8 -0.6,0.3 -0.4,0.1 -1,-0.3 -1,-0.6 -0.6,-0.8 v -0.4 -0.6 l 0.5,-0.8 0.6,-0.3 0.8,-0.2 1,0.2 1.1,0.4 0.7,0.1 0.6,-0.3 0.3,-0.5 0.1,-0.7 -0.6,-0.7 -1.1,-0.8 m 32.3,-73.7 4.4,-2.7 -4.2,-1.7 m -0.2,4.4 2.4,-5.8 m -40.5,30.9 0.8,-2.9 -2.5,-1 0.2,0.4 v 0.9 l -0.2,0.9 -0.6,0.7 -0.7,0.5 h -1 l -0.5,-0.2 -0.8,-0.5 -0.4,-0.8 -0.1,-0.9 0.3,-0.9 0.5,-0.8 0.4,-0.2 0.7,-0.1 m 70.7,225.8 0.1,0.9 0.6,0.5 0.6,0.1 0.6,-0.2 0.4,-0.5 0.5,-1.2 0.5,-0.8 0.7,-0.5 0.7,-0.1 0.8,0.1 0.6,0.4 0.2,0.4 0.1,0.9 -0.2,1.2 -0.5,0.8 -0.3,0.3 -0.7,0.1 -0.8,-0.1 -0.6,-0.4 -0.5,-0.7 -0.1,-1 v -1.2 l -0.2,-0.7 -0.6,-0.4 -0.5,-0.1 -0.7,0.2 -0.5,0.8 -0.2,1.4 m -38.9,-17.2 0.5,0.5 1,0.7 -6.2,1.2 m 5.2,0.1 0.4,0.5 1.1,0.7 -6.2,1.2 m 28.8,21.5 -5.1,4.7 m 1.2,-6.3 3.9,1.6 m 67.5,273.9 -0.2,-0.1 -0.4,-0.6 -0.2,-0.4 v -0.6 l 0.5,-1.1 0.6,-0.4 0.4,-0.2 h 0.7 l 0.5,0.3 0.4,0.5 0.5,1 1.4,4 1.9,-3.8 m -2.8,-6.6 h -0.7 l -0.6,0.6 -0.3,0.6 -0.1,0.9 0.5,1 1.2,0.9 1.4,0.6 1.2,0.3 0.8,-0.3 0.7,-0.7 0.1,-0.2 0.1,-1 -0.3,-0.8 -0.6,-0.6 -0.3,-0.2 -0.9,-0.1 -0.8,0.3 -0.7,0.7 -0.1,0.2 -0.2,1 0.3,0.8 0.7,0.6 M 382.6,722 v -0.3 l 0.2,-0.6 0.2,-0.4 0.6,-0.4 1.2,-0.2 0.6,0.2 0.3,0.3 0.4,0.5 0.1,0.6 -0.2,0.6 -0.4,1 -2.4,3.5 4.1,-0.7 m 4.1,-7.1 -1.9,6.7 m -2.3,-6 4.2,-0.7 m 52.1,-81 h -0.3 l -0.6,-0.2 -0.3,-0.2 -0.4,-0.6 -0.2,-1.2 0.2,-0.6 0.3,-0.3 0.5,-0.4 0.6,-0.1 0.7,0.2 0.9,0.5 3.4,2.5 -0.6,-4.2 m -6.6,-1.7 0.4,0.9 0.7,0.2 0.6,-0.1 0.5,-0.4 0.2,-0.6 0.2,-1.3 0.1,-0.9 0.5,-0.7 0.6,-0.3 0.9,-0.2 0.6,0.2 0.3,0.3 0.5,0.8 0.1,1.2 -0.1,1 -0.3,0.3 -0.5,0.4 -0.9,0.1 -0.7,-0.2 -0.6,-0.5 -0.5,-0.9 -0.4,-1.1 -0.4,-0.6 -0.6,-0.2 -0.6,0.1 -0.6,0.4 -0.2,0.9 0.2,1.4 m -109,92.2 3.3,0.5 -2.1,2.1 0.8,0.1 0.6,0.4 0.2,0.4 0.2,0.9 -0.1,0.6 -0.4,0.8 -0.7,0.5 -0.9,0.2 -0.9,-0.1 -0.9,-0.5 -0.2,-0.3 -0.2,-0.6 m 9.6,-1.6 -0.5,0.8 -0.6,0.5 -1,0.2 -0.3,-0.1 -0.8,-0.4 -0.5,-0.7 -0.2,-0.9 0.1,-0.3 0.4,-0.8 0.7,-0.6 0.9,-0.1 h 0.3 l 0.9,0.5 0.5,0.6 0.1,1.3 -0.2,1.5 -0.6,1.4 -0.7,0.8 -0.9,0.2 -0.6,-0.1 -0.9,-0.5 -0.2,-0.6 m 68.8,-148.2 1,3.2 -2.8,-1 0.3,0.8 -0.1,0.7 -0.2,0.4 -0.8,0.5 -0.6,0.2 H 401 l -0.8,-0.4 -0.5,-0.8 -0.3,-0.8 v -1 l 0.2,-0.4 0.5,-0.4 m 6.9,5 -0.5,-0.8 -0.7,-0.1 -0.6,0.2 -0.5,0.5 -0.1,0.6 0.1,1.3 v 0.9 l -0.4,0.8 -0.5,0.4 -0.8,0.3 -0.7,-0.1 -0.4,-0.2 -0.5,-0.8 -0.4,-1.1 v -1 l 0.2,-0.4 0.5,-0.4 0.9,-0.3 0.6,0.1 0.8,0.4 0.5,0.8 0.7,1 0.4,0.5 0.7,0.1 0.6,-0.2 0.5,-0.4 v -1 l -0.4,-1.3 m 10.8,2.7 -2.9,-1.6 2.8,-1.2 -0.8,-0.5 -0.4,-0.5 -0.1,-0.4 0.2,-1 0.3,-0.5 0.7,-0.6 0.8,-0.2 0.9,0.2 0.8,0.4 0.6,0.7 0.2,0.4 -0.1,0.7 m -6.4,0.6 -0.7,-0.1 -1.2,0.4 3.2,-5.5 m -25.3,15.7 -1.4,-3 2.9,0.6 -0.3,-0.8 v -0.7 l 0.1,-0.4 0.7,-0.6 0.6,-0.3 0.9,-0.1 0.8,0.4 0.7,0.6 0.3,0.9 0.1,0.9 -0.1,0.4 -0.4,0.5 m -7.5,-4.1 0.6,0.7 h 0.7 l 0.6,-0.3 0.4,-0.5 v -0.6 l -0.2,-1.3 -0.1,-0.9 0.3,-0.8 0.4,-0.5 0.9,-0.4 h 0.6 l 0.4,0.2 0.7,0.7 0.5,1.1 v 0.9 l -0.1,0.4 -0.4,0.5 -0.8,0.4 h -0.7 l -0.8,-0.3 -0.7,-0.7 -0.7,-1 -0.5,-0.4 h -0.7 l -0.6,0.2 -0.4,0.5 0.1,1 0.6,1.2 m -72.7,124.2 -2.4,-1.7 -1.8,2.1 0.4,-0.1 0.9,0.2 0.8,0.5 0.6,0.8 0.1,0.8 -0.2,0.9 -0.4,0.5 -0.7,0.6 -0.9,0.2 -0.9,-0.3 -0.7,-0.5 -0.6,-0.7 -0.1,-0.4 0.1,-0.7 m 10.7,1 -6.1,3.6 m 2.6,-5.9 3.5,2.3 m 36.9,-152.8 4.2,-3 -4.2,-1.5 m 0,4.5 2.1,-6 m -6.3,4.4 h 1 l 0.8,-0.6 0.8,-1.3 0.3,-0.9 0.2,-1.5 -0.2,-1 -0.8,-0.6 -0.6,-0.2 h -0.9 l -0.9,0.6 -0.8,1.3 -0.3,0.9 -0.2,1.5 0.3,1 0.7,0.6 0.5,0.2 m -70.9,112.9 -1.8,-2.4 -2.4,1.4 0.5,0.1 0.7,0.5 0.6,0.7 0.3,0.9 -0.1,0.9 -0.5,0.8 -0.5,0.3 -0.9,0.3 -0.9,-0.1 -0.7,-0.5 -0.6,-0.7 -0.3,-0.9 0.1,-0.4 0.2,-0.6 m 8.3,2.3 -0.8,-0.6 -0.7,0.2 -0.5,0.3 -0.2,0.6 0.1,0.7 0.5,1.1 0.3,0.9 -0.1,0.9 -0.3,0.6 -0.7,0.5 -0.7,0.2 -0.4,-0.1 -0.8,-0.5 -0.7,-1 -0.3,-0.9 v -0.4 l 0.3,-0.6 0.7,-0.6 0.7,-0.1 0.8,0.1 0.8,0.6 1,0.7 0.6,0.3 0.6,-0.1 0.5,-0.4 0.3,-0.6 -0.3,-0.9 -0.8,-1 m 19.5,-100.8 -0.3,-0.6 -0.9,-0.3 h -0.6 l -0.9,0.3 -0.6,0.9 -0.3,1.5 v 1.5 l 0.3,1.2 0.6,0.6 0.9,0.3 h 0.3 l 0.9,-0.3 0.6,-0.6 0.3,-0.9 v -0.3 l -0.3,-0.9 -0.6,-0.6 -0.9,-0.3 h -0.3 l -0.9,0.3 -0.6,0.6 -0.3,0.9 m 6.9,-4.2 -0.9,0.3 -0.6,0.9 -0.3,1.5 v 0.9 l 0.3,1.5 0.6,0.9 0.9,0.3 h 0.6 l 0.9,-0.3 0.6,-0.9 0.3,-1.5 v -0.9 l -0.3,-1.5 -0.6,-0.9 -0.9,-0.3 h -0.5 m -39.6,45.8 0.6,-0.1 0.6,-0.8 0.1,-0.6 v -1 l -0.7,-0.8 -1.3,-0.7 -1.5,-0.4 -1.2,-0.1 -0.7,0.4 -0.6,0.8 -0.1,0.3 0.1,0.9 0.4,0.8 0.7,0.5 0.3,0.1 h 1 l 0.7,-0.4 0.6,-0.8 v -0.3 -0.9 l -0.4,-0.8 -0.8,-0.5 m 1.3,5.5 0.1,0.7 0.6,1.1 -6,-1.8 m 46.4,-27.2 0.3,0.6 1,0.2 0.6,-0.1 0.8,-0.4 0.5,-0.9 0.1,-1.6 -0.1,-1.4 -0.5,-1.2 -0.6,-0.5 -0.9,-0.2 h -0.3 l -0.9,0.4 -0.5,0.7 -0.2,0.9 v 0.3 l 0.4,0.9 0.7,0.5 0.9,0.2 0.3,-0.1 0.9,-0.4 0.5,-0.6 0.2,-0.9 m -6.4,4.9 0.9,-0.4 0.5,-1 0.1,-1.5 -0.1,-0.9 -0.4,-1.4 -0.7,-0.9 -1,-0.2 -0.6,0.1 -0.8,0.4 -0.5,1 -0.1,1.5 0.1,0.9 0.4,1.4 0.7,0.9 0.9,0.2 0.5,-0.1 m -46.7,-45.5 0.3,-0.5 -0.2,-1 -0.3,-0.5 -0.7,-0.6 -1.1,-0.1 -1.4,0.5 -1.3,0.8 -0.9,0.8 -0.2,0.8 0.2,1 0.1,0.2 0.7,0.7 0.9,0.2 0.9,-0.2 0.2,-0.2 0.7,-0.7 0.2,-0.8 -0.2,-0.9 -0.1,-0.3 -0.8,-0.6 -0.8,-0.2 -0.9,0.2 m 6.4,2.7 1.7,2.9 -3,-0.4 0.5,0.8 v 0.7 l -0.1,0.4 -0.6,0.7 -0.6,0.3 -0.9,0.2 -0.8,-0.2 -0.7,-0.7 -0.5,-0.7 -0.2,-1 0.2,-0.4 0.3,-0.5 m -32.7,-67.9 -1.5,-2.6 -2.5,1 0.4,0.1 0.7,0.7 0.4,0.8 0.2,0.9 -0.2,0.8 -0.6,0.7 -0.6,0.3 -0.9,0.2 -0.8,-0.2 -0.7,-0.7 -0.5,-0.8 -0.1,-0.9 0.1,-0.4 0.3,-0.6 m 7.2,6.6 -0.9,0.2 -0.8,-0.2 -0.7,-0.7 -0.2,-0.2 -0.2,-1 0.2,-0.8 0.7,-0.7 0.2,-0.1 1,-0.2 0.8,0.2 0.7,0.7 0.1,0.2 0.2,1 -0.2,0.8 -0.9,0.8 -1.3,0.8 -1.5,0.4 h -1 l -0.7,-0.7 -0.3,-0.5 -0.2,-0.9 0.4,-0.6 m 47.1,-23.5 -1.8,-2.7 3,0.1 -0.5,-0.7 -0.1,-0.7 0.1,-0.4 0.5,-0.8 0.5,-0.3 0.9,-0.2 0.9,0.1 0.7,0.6 0.5,0.8 0.3,0.9 -0.1,0.4 -0.3,0.6 m -9.5,-5 6.9,-1 m -4.6,4.5 -2.3,-3.5 m 89.7,64.3 -0.7,5.1 4,-2.1 m -3.3,-3 2.9,5.6 m 1.1,-7.6 -0.7,0.7 -0.1,1 0.4,1.5 0.4,0.8 1,1.2 0.9,0.5 1,-0.1 0.5,-0.3 0.7,-0.7 0.1,-1.1 -0.4,-1.4 -0.4,-0.8 -1,-1.2 -0.9,-0.5 -1,0.1 -0.4,0.2 m -36.1,-61.7 -1.9,2.7 -0.9,-2.9 -0.6,0.7 -0.6,0.3 -0.4,0.1 -0.9,-0.3 -0.5,-0.3 -0.5,-0.8 -0.2,-0.8 0.3,-0.9 0.5,-0.8 0.8,-0.5 0.4,-0.1 0.7,0.1 m -1.3,10.6 -3.4,-6.1 m 5.8,2.7 -2.4,3.4 m 65.9,22.1 0.5,-3.2 2.1,2.1 0.2,-0.9 0.3,-0.6 0.4,-0.2 0.9,-0.2 0.6,0.1 0.9,0.5 0.5,0.6 0.1,1 -0.1,0.9 -0.4,0.8 -0.4,0.3 -0.6,0.2 m -2.9,-5.8 -0.2,-0.6 -0.7,-1.1 6.2,1 m -24.5,-31.4 -3.1,-1.2 2.5,-1.6 -0.8,-0.3 -0.5,-0.5 -0.1,-0.4 v -1 l 0.2,-0.5 0.6,-0.8 0.8,-0.3 1,0.1 0.8,0.3 0.7,0.6 0.2,0.4 0.1,0.6 m -8.5,2.2 h 0.9 l 0.9,-0.6 0.8,-1.3 0.3,-0.8 0.3,-1.5 -0.2,-1.1 -0.8,-0.6 -0.5,-0.2 h -1 l -0.8,0.6 -0.9,1.3 -0.3,0.8 -0.3,1.5 0.3,1.1 0.7,0.6 0.4,0.1 M 232,408.7 l -1.2,-3.1 2.9,0.9 -0.3,-0.9 V 405 l 0.2,-0.4 0.8,-0.6 0.5,-0.2 1,-0.1 0.7,0.4 0.6,0.7 0.4,0.9 v 0.9 l -0.2,0.4 -0.4,0.5 m -7.3,-4.9 0.6,0.7 1,0.3 1.5,-0.3 0.9,-0.3 1.3,-0.8 0.6,-0.9 v -0.9 l -0.2,-0.6 -0.6,-0.7 -1.1,-0.3 -1.5,0.3 -0.8,0.3 -1.3,0.8 -0.7,0.9 0.1,0.9 0.1,0.4 m -48,21.1 0.3,-0.1 0.7,-0.1 0.4,0.1 0.5,0.4 0.6,1 0.1,0.7 -0.1,0.4 -0.4,0.6 -0.5,0.3 h -0.7 l -1,-0.1 -4.2,-1 2.2,3.6 m 6.2,2.2 -1,0.2 -0.8,-0.2 -0.7,-0.6 -0.1,-0.3 -0.2,-0.9 0.2,-0.8 0.6,-0.7 0.2,-0.2 1,-0.2 0.8,0.2 0.7,0.6 0.2,0.3 0.2,0.9 -0.3,0.9 -0.8,0.8 -1.3,0.8 -1.5,0.5 -1,-0.1 -0.8,-0.6 -0.3,-0.5 -0.2,-0.9 0.4,-0.6 m 20.6,-39.9 0.2,0.3 v 0.7 l -0.1,0.4 -0.4,0.5 -1.1,0.6 h -0.7 l -0.4,-0.1 -0.5,-0.4 -0.3,-0.5 V 391 l 0.1,-1.1 1.2,-4 -3.7,1.9 m 0.6,6.8 0.7,-0.6 v -0.7 l -0.3,-0.5 -0.6,-0.4 h -0.6 l -1.2,0.3 -1,0.1 -0.8,-0.2 -0.5,-0.4 -0.4,-0.8 -0.1,-0.7 0.2,-0.4 0.6,-0.7 1.1,-0.5 0.9,-0.2 0.4,0.1 0.6,0.4 0.4,0.8 v 0.7 l -0.2,0.8 -0.7,0.7 -0.9,0.8 -0.4,0.6 v 0.6 l 0.3,0.6 0.5,0.4 1,-0.2 1.2,-0.6"
       id="nums_001"
       stroke="#000000"
       stroke-width="1" />
    <path
       d="m 93.7,442.1 -59.3,-24.4 25,-100 40.1,-13.2 -24.9,-62.5 -45.4,-63.7 5,-95.4 92.4,14.4 -55,32.9 32.4,86.4 33.7,21.9 -16.9,-36.5 63.5,-67 51.1,38.7 L 212.3,83 249.5,69.3 317.4,31.5 357.9,57 410,56.2 447.9,74.6 428.5,8.9 l 96,20.1 -7.6,141.5 -60.5,-0.7 -67.1,-24.9 -57,-21.4 -67.8,30.9 -52.5,90 -30.9,72.6 -38.4,68.9 40.4,108.5 25.6,73.3 49.2,136 -88,-36.9 5.1,60.3 L 34.5,745 7.4,650.8 74.3,665.3 140.2,601.7 56.6,638 48.1,586.6 108.9,549.5 92,476.9 Z m 299.8,-53.6 -9.6,49.4 -44.7,-17.7 -7.9,-41.8 -1.2,-57.8 48.6,-25.2 -54.5,4.6 12.4,-38.6 -43.7,-28.5 26,-89.1 72.7,30.6 76.7,18.1 41.4,83 -18.9,102.1 -47,10.05 z m -45.3,346.4 -25.5,-3.9 -21.5,-14.4 -50,-65 16.7,-56.2 74,-8.4 -74.5,-0.3 -31.8,-55.3 -41.1,-72.8 -32.4,-54.9 64,-34.2 23.9,64 38.4,57.2 39.8,-56.1 63.7,24.8 -9.1,60.3 -54.2,28 57.5,20.2 19.8,44 -14.5,-46 52.9,30.4 10.4,71.8 -25.7,52.7 z"
       id="coupes_001"
       stroke="#ff0000"
       stroke-width="1.27"
       sodipodi:nodetypes="cccccccccccccccccccccccccccccccccccccccccccccccccccccccccccccccccccccccccccccccccccc" />
    <path
       d="M 34.5,745 169.9,666.8 M 34.5,745 74.3,665.3 m 65.9,-63.6 29.7,65.1 m 38.8,-99.1 -38.8,99.1 m -61,-117.3 99.8,18.2 m -68.5,34 -31.3,-52.2 M 92,476.9 183.1,494.4 M 92,476.9 l 50.7,-91 m -49,56.2 49,-56.2 m -49,56.2 -34.3,-124.4 m 0,0 83.3,68.2 m -43.2,-81.4 43.2,81.4 m -43.2,-81.4 38.2,-66 m 0,0 5,147.4 m -5,-147.4 43.4,78.5 m -43.4,-78.5 74.3,5.9 M 120.8,202 212,244.4 M 120.8,202 235.4,173.7 m 0,0 -23.4,70.7 m 23.4,-70.7 29.1,-19.3 M 212.3,83 264.5,154.4 M 357.9,57 332.3,123.5 M 410,56.2 389.3,144.9 M 447.9,74.6 524.5,29 m 0,0 -68.1,140.8 M 74.6,242 104,216.6 M 29.2,178.3 104,216.6 m 405.7,58.9 -65.9,112.1 m 0,0 24.5,-195.1 m -74.8,196 -14.8,-93.1 m 0,0 89.6,-102.9 m -89.6,102.9 12.9,-121 m -55,87 55,-87 m -60.3,204 47.4,-83 m 14.8,93.1 -62.2,-10.1 m -38.4,-145.5 98.7,-58.5 m -7.7,263.5 -52.6,-59.5 M 429,720.8 405.9,611.9 m -57.7,123 57.7,-123 m 0,0 38.4,-15.6 M 322.7,731 405.9,611.9 M 322.7,731 386.1,567.9 M 322.7,731 341.9,587 m 0,0 44.2,-19.1 M 301.2,716.6 341.9,587 m 0,0 -13.3,-39.3 M 251.2,651.6 341.9,587 m -74.5,-0.3 61.2,-39 m -93,-16.3 93,16.3 m -40.2,-57 40.2,57 m -93,-16.3 52.8,-40.7 m -93.9,-32.1 93.9,32.1 M 194.5,458.6 250,433.5 m 38.4,57.2 94.4,29 m -54.6,-85.1 54.6,85.1"
       id="plisM_001"
       stroke="#a52a2a"
       stroke-dasharray="4" />
    <path
       d="m 74.3,665.3 95.6,1.5 m -29.7,-65.1 68.5,-34 m -99.8,-18.2 74.2,-55.1 m 66.4,-425.1 15,85.1 m -15,-85.1 82.8,54.2 m -14.9,-92 14.9,92 m 25.6,-66.5 31.4,87.9 m 58.6,-70.3 -58.6,70.3 m 58.6,-70.3 8.5,95.2 M 74.6,242 137.7,238.5 M 29.2,178.3 71.6,130.2 M 34.2,82.9 71.6,130.2 m 68.6,471.5 -92.1,-15.1 m 345.4,-198.1 74.8,-196 m -89.6,102.9 -42.1,-34 m 69.3,350.5 48.8,56.2 M 194.5,458.6 226.1,369.5"
       id="plisV_001"
       stroke="#008000"
       stroke-dasharray="4, 1, 1, 1"
       stroke-width="1.27" />
    <path
       d="m 120.1,664 4,4 m 0,-4 -4,4 m 52.4,-85.3 4,4 m 0,-4 -4,4 m -28.5,-66.8 4,4 m 0,-4 -4,4 m 111,-414 4,4 m 0,-4 -4,4 m 33.9,-19.5 4,4 m 0,-4 -4,4 m 34,-22.9 4,4 m 0,-4 -4,4 m 48.7,19.5 4,4 m 0,-4 -4,4 m 45,4.7 4,4 m 0,-4 -4,4 m 33.5,8.5 4,4 m 0,-4 -4,4 m -345.9,114 4,4 m 0,-4 -4,4 m -55.8,-90 4,4 m 0,-4 -4,4 m 2.5,-51.7 4,4 m 0,-4 -4,4 m 41.2,483.7 4,4 m 0,-4 -4,4 m 336.8,-307.7 4,4 m 0,-4 -4,4 m -73.3,-16.1 4,4 m 0,-4 -4,4 m 72.7,357.6 4,4 m 0,-4 -4,4 m -220,-229.9 4,4 m 0,-4 -4,4"
       id="marqueV_001"
       stroke="#008000" />
    <path
       d="m 151.6,305 1.5,-0.8 2.2,-2.2 v 15.7"
       id="titre_1"
       stroke="#4b0082" />
    <path
       d="m 408.9,283.5 v -0.8 l 0.8,-1.5 0.7,-0.7 1.5,-0.8 h 3 l 1.5,0.8 0.8,0.7 0.7,1.5 v 1.5 l -0.7,1.5 -1.5,2.3 -7.5,7.5 h 10.5"
       id="titre_2"
       stroke="#4b0082" />
    <path
       d="m 315.31705,562.74341 h 8.2 l -4.5,6 h 2.3 l 1.5,0.8 0.7,0.7 0.8,2.3 v 1.5 l -0.8,2.2 -1.5,1.5 -2.2,0.8 h -2.3 l -2.2,-0.8 -0.8,-0.7 -0.7,-1.5"
       id="titre_3"
       stroke="#4b0082" />
  </g>
  <g
     id="page_002">
    <path
       d="m 721.8,247.3 -0.4,-0.4 -1,-0.1 -0.6,0.2 -0.7,0.6 -0.3,1 0.1,1.5 0.5,1.5 0.6,1 0.8,0.4 h 0.9 0.3 l 0.8,-0.6 0.4,-0.8 v -0.9 l -0.1,-0.3 -0.6,-0.8 -0.7,-0.4 h -1 l -0.2,0.1 -0.8,0.6 -0.4,0.7 v 1 m 7,-6.6 -2.9,0.9 0.5,2.7 0.2,-0.4 0.8,-0.6 0.8,-0.2 h 1 l 0.7,0.4 0.6,0.7 0.2,0.6 v 1 l -0.4,0.7 -0.8,0.6 -0.9,0.2 h -0.9 l -0.4,-0.2 -0.5,-0.5 m 19.7,-33 6.5,2.4 m -6.1,1.8 -0.4,-4.2 m -0.5,-4.7 0.3,3 h 2.7 l -0.3,-0.3 -0.4,-0.8 -0.1,-0.9 0.2,-1 0.6,-0.6 0.8,-0.4 0.6,-0.1 1,0.3 0.6,0.5 0.4,0.9 0.1,0.9 -0.2,0.9 -0.3,0.3 -0.6,0.4 m -22.3,-52.3 0.5,0.4 1,-0.1 0.5,-0.2 0.7,-0.6 0.2,-1.1 -0.4,-1.5 -0.6,-1.4 -0.7,-0.9 -0.8,-0.3 -1,0.1 -0.2,0.1 -0.7,0.6 -0.3,0.8 0.1,1 0.1,0.2 0.6,0.7 0.8,0.3 1,-0.1 0.2,-0.1 0.7,-0.6 0.3,-0.8 -0.1,-1 m -6.5,6.6 0.5,0.4 1,-0.1 0.5,-0.2 0.7,-0.7 0.2,-1 -0.4,-1.5 -0.6,-1.4 -0.7,-1 -0.8,-0.3 -1,0.1 -0.2,0.1 -0.7,0.7 -0.3,0.8 v 0.9 l 0.2,0.3 0.6,0.7 0.8,0.3 0.9,-0.1 0.3,-0.1 0.7,-0.7 0.3,-0.8 -0.1,-0.9 m 17,7.2 -0.6,0.3 -0.2,0.9 v 0.6 l 0.4,0.9 0.9,0.6 1.5,0.2 1.5,-0.1 1.2,-0.4 0.5,-0.6 0.3,-0.9 V 170 l -0.4,-0.9 -0.6,-0.6 -0.9,-0.2 h -0.3 l -0.9,0.4 -0.6,0.6 -0.2,0.9 v 0.3 l 0.4,0.9 0.6,0.6 0.9,0.2 m -4.7,-8.9 6.5,2.7 m -6.3,1.5 -0.2,-4.2 m -103.9,-92.1 0.5,0.5 0.9,-0.1 0.6,-0.2 0.7,-0.6 0.3,-1 -0.3,-1.5 -0.5,-1.4 -0.7,-1 -0.8,-0.4 -1,0.1 -0.3,0.1 -0.7,0.6 -0.3,0.7 v 1 l 0.1,0.3 0.6,0.7 0.8,0.3 h 1 l 0.2,-0.1 0.8,-0.6 0.3,-0.8 v -0.9 m -4.6,6.2 0.7,-0.6 0.1,-0.6 -0.3,-0.6 -0.5,-0.4 -0.6,-0.1 -1.2,0.1 -1,0.1 -0.8,-0.4 -0.5,-0.4 -0.3,-0.9 0.1,-0.6 0.1,-0.4 0.8,-0.6 1.1,-0.4 0.9,-0.1 0.4,0.2 0.5,0.4 0.4,0.9 -0.1,0.6 -0.4,0.8 -0.7,0.6 -1,0.7 -0.5,0.5 v 0.7 l 0.2,0.6 0.5,0.4 h 0.9 l 1.3,-0.5 m 35.2,184.9 -2.2,6.7 m -2,-6.2 4.2,-0.5 m 4.8,0.4 -0.4,-0.6 -0.9,-0.2 -0.6,0.1 -0.8,0.4 -0.5,1 -0.1,1.5 0.1,1.5 0.5,1.1 0.6,0.6 1,0.1 h 0.3 l 0.8,-0.4 0.6,-0.7 0.1,-0.9 v -0.3 l -0.4,-0.8 -0.7,-0.6 -0.9,-0.2 -0.3,0.1 -0.8,0.4 -0.6,0.6 -0.2,1 m -82,-137.4 -5,-4.9 m 6.3,0.9 -1.3,4 m -3.6,4.1 -0.8,-0.6 -0.4,-0.7 v -1 l 0.1,-0.2 0.6,-0.8 0.8,-0.4 h 0.9 l 0.3,0.1 0.8,0.6 0.3,0.8 v 0.9 l -0.1,0.3 -0.5,0.7 -0.8,0.4 -1.2,-0.1 -1.5,-0.5 -1.3,-0.7 -0.6,-0.9 v -0.9 l 0.2,-0.6 0.5,-0.8 0.7,-0.1 m 127.3,20.8 -0.6,-0.2 -0.8,0.5 -0.4,0.4 -0.4,0.9 0.2,1 0.9,1.3 1.1,1 1.1,0.6 h 0.8 l 0.8,-0.5 0.2,-0.2 0.4,-0.8 v -0.9 l -0.4,-0.8 -0.3,-0.2 -0.8,-0.4 H 711 l -0.8,0.5 -0.2,0.2 -0.4,0.8 v 0.9 l 0.5,0.8 m 3.5,-8.5 -0.6,-0.2 -0.9,0.4 -0.4,0.4 -0.4,0.9 0.3,1.1 0.8,1.2 1.1,1 1.1,0.6 h 0.9 l 0.8,-0.4 0.2,-0.2 0.4,-0.9 v -0.9 l -0.5,-0.8 -0.2,-0.2 -0.8,-0.4 h -0.9 l -0.8,0.5 -0.2,0.2 -0.4,0.9 v 0.8 l 0.4,0.8 m 34.9,-39.4 1.9,6.8 m -5.1,-4 3.2,-2.8 m 2,-1.7 -0.5,0.8 0.2,0.7 0.4,0.4 0.6,0.3 0.7,-0.2 1.1,-0.6 0.8,-0.3 h 0.9 l 0.6,0.3 0.6,0.7 0.2,0.6 -0.1,0.5 -0.4,0.8 -1,0.8 -0.8,0.3 h -0.5 l -0.6,-0.3 -0.6,-0.6 -0.1,-0.7 v -0.8 l 0.5,-0.9 0.7,-1 0.3,-0.6 -0.2,-0.6 -0.4,-0.5 -0.6,-0.3 -0.9,0.4 -1,0.9 M 587.1,213.2 h -1 l -0.7,-0.3 -0.6,-0.8 -0.1,-0.3 v -0.9 l 0.4,-0.8 0.7,-0.6 0.3,-0.1 h 1 l 0.7,0.4 0.6,0.8 0.1,0.3 v 0.9 l -0.4,0.8 -1,0.6 -1.5,0.5 -1.5,0.2 -1,-0.3 -0.6,-0.8 -0.2,-0.5 v -1 l 0.5,-0.4 m 7.2,4.5 -0.6,-0.8 -1,-0.3 -1.5,0.2 -0.9,0.3 -1.3,0.8 -0.7,0.8 v 1 l 0.2,0.5 0.6,0.8 1,0.3 1.5,-0.2 0.9,-0.3 1.3,-0.7 0.7,-0.9 V 216 l -0.2,-0.5 m 4.5,69.1 0.3,-0.9 -0.3,-0.6 -0.5,-0.4 -0.7,-0.1 -0.6,0.3 -0.9,0.8 -0.8,0.6 -0.8,0.1 -0.7,-0.1 -0.7,-0.5 -0.3,-0.6 -0.1,-0.4 0.3,-0.9 0.7,-1 0.7,-0.5 0.4,-0.1 0.7,0.1 0.7,0.5 0.4,0.6 0.1,0.8 -0.3,1 -0.4,1.1 -0.1,0.7 0.3,0.6 0.5,0.3 0.6,0.1 0.8,-0.6 0.8,-1.1 m -6.3,5.3 -0.5,-0.8 -0.2,-0.8 0.3,-0.9 0.2,-0.3 0.7,-0.5 0.9,-0.2 0.9,0.3 0.2,0.2 0.6,0.7 0.1,0.9 -0.3,0.9 -0.1,0.2 -0.8,0.6 -0.8,0.1 -1.2,-0.4 -1.2,-0.9 -1.1,-1.1 -0.4,-1 0.3,-0.9 0.4,-0.5 0.7,-0.6 0.7,0.1 m 43.4,7.5 5.3,4.5 m -6.4,-0.4 1.1,-4.1 m 2.1,-4.4 -0.7,0.2 -0.5,0.8 -0.2,0.5 0.1,1 0.7,0.8 1.4,0.7 1.4,0.4 h 1.3 l 0.7,-0.4 0.5,-0.8 0.1,-0.3 -0.1,-1 -0.4,-0.7 -0.8,-0.5 -0.3,-0.1 -0.9,0.1 -0.7,0.4 -0.6,0.8 v 0.3 0.9 l 0.4,0.7 0.8,0.6 m -31.6,9.2 -0.1,-0.7 -0.7,-0.5 -0.6,-0.2 h -1 l -0.8,0.7 -0.7,1.4 -0.4,1.4 -0.1,1.2 0.4,0.8 0.8,0.5 0.3,0.1 h 0.9 l 0.8,-0.4 0.5,-0.8 0.1,-0.3 v -0.9 l -0.4,-0.8 -0.8,-0.5 -0.3,-0.1 h -1 l -0.7,0.4 -0.5,0.8 m 9.4,-1.6 -2.8,-0.8 -1.1,2.5 0.4,-0.2 h 0.9 l 0.9,0.2 0.8,0.6 0.4,0.7 v 1 l -0.2,0.5 -0.5,0.8 -0.8,0.4 H 606 l -0.9,-0.2 -0.8,-0.6 -0.2,-0.3 -0.1,-0.7 m 103.6,-269.6 0.5,0.3 1,-0.2 0.5,-0.3 0.6,-0.7 0.1,-1.1 -0.6,-1.4 -0.7,-1.3 -0.9,-0.9 -0.8,-0.2 -0.9,0.2 -0.3,0.2 -0.6,0.7 -0.2,0.8 0.2,0.9 0.1,0.3 0.7,0.6 0.9,0.2 0.9,-0.2 0.2,-0.1 0.7,-0.7 0.2,-0.9 -0.2,-0.9 m -3.5,7 0.6,-0.8 v -0.6 l -0.3,-0.5 -0.6,-0.4 h -0.7 l -1.2,0.4 -0.9,0.2 -0.8,-0.2 -0.6,-0.4 -0.4,-0.8 -0.1,-0.6 0.1,-0.4 0.6,-0.8 1.1,-0.6 0.9,-0.2 0.4,0.1 0.6,0.4 0.4,0.8 0.1,0.6 -0.2,0.9 -0.7,0.7 -0.8,0.9 -0.4,0.5 0.1,0.7 0.3,0.5 0.5,0.4 0.9,-0.2 1.2,-0.7 m 42.7,18.8 7,0.2 m -5.3,3.6 -1.7,-3.8 m -0.2,-5.5 1,-0.1 0.8,0.3 0.6,0.7 0.1,0.3 0.1,0.9 -0.3,0.8 -0.7,0.7 -0.2,0.1 -1,0.1 -0.8,-0.3 -0.6,-0.7 -0.1,-0.3 -0.1,-0.9 0.3,-0.8 0.9,-0.8 1.4,-0.6 1.5,-0.3 1.1,0.2 0.6,0.7 0.3,0.5 v 0.9 l -0.4,0.6 m -59.1,418.5 -0.2,0.2 -0.7,0.2 -0.4,-0.1 -0.6,-0.2 -0.7,-1 -0.2,-0.6 0.1,-0.4 0.2,-0.7 0.5,-0.3 0.6,-0.2 1.1,-0.1 4.2,0.4 -2.6,-3.2 m -7.2,-0.3 -0.3,0.6 0.4,0.9 0.3,0.5 0.8,0.5 1.1,-0.1 1.4,-0.7 1.1,-1 0.8,-1 0.1,-0.8 -0.4,-0.9 -0.2,-0.2 -0.8,-0.5 -0.8,-0.1 -0.9,0.3 -0.2,0.2 -0.5,0.8 -0.1,0.8 0.3,0.9 0.2,0.3 0.8,0.5 0.9,0.1 0.8,-0.4 m 14.4,57 h -0.3 l -0.6,-0.3 -0.3,-0.3 -0.3,-0.6 v -1.2 l 0.3,-0.6 0.3,-0.3 0.6,-0.3 h 0.6 l 0.6,0.3 0.9,0.6 3,3.1 v -4.2 m -4.1,-5.1 0.9,0.3 0.6,0.6 0.3,0.9 v 0.3 l -0.3,0.9 -0.6,0.6 -0.9,0.3 -0.3,-0.1 -0.9,-0.3 -0.6,-0.6 -0.3,-0.9 v -0.3 l 0.3,-0.9 0.6,-0.6 1.2,-0.2 h 1.5 l 1.5,0.3 0.9,0.6 0.3,0.9 v 0.6 l -0.3,0.9 -0.6,0.3 m -90.4,-57.5 0.3,0.7 0.8,0.9 -6.2,-0.3 m 6.3,3.2 -0.2,-0.9 -0.9,-0.6 -1.5,-0.4 h -0.9 l -1.5,0.2 -0.9,0.6 -0.4,0.9 v 0.6 l 0.3,0.9 0.9,0.6 1.4,0.4 h 0.9 l 1.6,-0.2 0.9,-0.6 0.3,-0.9 v -0.4 m -2.4,7.2 -0.8,-0.3 -0.6,-0.7 -0.3,-0.9 v -0.3 l 0.4,-0.9 0.6,-0.5 0.9,-0.3 h 0.3 l 0.9,0.4 0.6,0.6 0.2,0.9 v 0.3 l -0.3,0.9 -0.6,0.6 -1.3,0.2 -1.5,-0.1 -1.4,-0.3 -0.9,-0.7 -0.3,-0.9 v -0.6 l 0.4,-0.9 0.6,-0.2 m 117.5,120.8 1.9,2.3 2.3,-1.4 -0.4,-0.1 -0.8,-0.5 -0.6,-0.7 -0.3,-0.9 0.1,-0.8 0.5,-0.8 0.5,-0.4 0.9,-0.3 0.8,0.1 0.8,0.5 0.6,0.7 0.3,0.9 -0.1,0.4 -0.2,0.6 m -8.1,-5.4 0.8,-0.3 0.9,0.1 0.8,0.5 0.2,0.3 0.3,0.8 -0.1,0.9 -0.5,0.8 -0.2,0.2 -0.9,0.3 -0.9,-0.1 -0.8,-0.5 -0.2,-0.2 -0.3,-0.9 0.1,-0.9 0.8,-1 1.1,-0.9 1.4,-0.7 1.1,-0.1 0.8,0.5 0.3,0.5 0.4,0.9 -0.3,0.6 m -111.8,-180.8 0.2,0.7 0.8,0.9 -6.2,-0.5 m 4.9,1.5 0.3,0.6 0.8,1 -6.3,-0.5 m 6.3,3.5 -0.3,-1 -0.8,-0.6 -1.5,-0.5 h -0.9 l -1.5,0.1 -0.9,0.5 -0.4,0.9 -0.1,0.6 0.3,0.9 0.8,0.7 1.5,0.4 0.9,0.1 1.5,-0.2 0.9,-0.5 0.4,-0.8 v -0.5 m 57.1,-6.2 -0.3,-0.1 -0.5,-0.4 -0.2,-0.4 -0.1,-0.7 0.4,-1.1 0.5,-0.5 0.4,-0.2 0.7,-0.1 0.5,0.2 0.5,0.5 0.7,0.9 1.8,3.8 1.4,-4 m -4.3,-7 5,4.9 m -6.3,-0.9 1.3,-4 m -81.5,284.3 0.7,-0.3 0.9,-0.8 -0.6,6.3 m 1.6,-5 0.6,-0.2 1,-0.8 -0.6,6.3 m 5.3,-6 -2.9,-0.3 -0.6,2.6 0.3,-0.3 0.9,-0.2 0.9,0.1 0.9,0.4 0.5,0.7 0.2,0.9 v 0.6 l -0.4,0.9 -0.7,0.5 -0.9,0.2 -0.9,-0.1 -0.9,-0.4 -0.2,-0.3 -0.3,-0.6 m 35.1,-338 -0.1,0.7 0.3,1.2 -5.4,-3.2 m 4.1,5.9 0.2,-1 -0.4,-0.9 -1.2,-1.1 -0.8,-0.4 -1.4,-0.5 -1.1,0.1 -0.7,0.6 -0.3,0.5 -0.2,0.9 0.5,1 1.1,1 0.8,0.5 1.4,0.5 1.1,-0.1 0.7,-0.6 0.3,-0.4 m -2.5,4.2 0.2,-0.9 -0.4,-0.6 -0.5,-0.3 h -0.7 l -0.5,0.4 -0.9,0.8 -0.7,0.7 -0.8,0.2 -0.7,-0.1 -0.8,-0.4 -0.3,-0.6 -0.1,-0.4 0.1,-0.9 0.7,-1.1 0.7,-0.6 0.4,-0.1 0.6,0.1 0.8,0.4 0.4,0.6 0.2,0.8 -0.2,0.9 -0.3,1.2 -0.1,0.7 0.4,0.5 0.5,0.3 0.7,0.1 0.7,-0.6 0.7,-1.2 m 33.4,327.3 0.6,-0.3 0.9,-1 0.3,6.3 m 1.4,-5.1 v -0.3 l 0.3,-0.6 0.2,-0.3 0.6,-0.3 1.2,-0.1 0.6,0.3 0.4,0.3 0.3,0.5 v 0.6 l -0.2,0.7 -0.6,0.9 -2.8,3.1 4.1,-0.2 m 2.7,-6.4 -0.9,0.3 -0.6,1 -0.2,1.5 0.1,0.9 0.3,1.5 0.7,0.8 0.9,0.3 0.6,-0.1 0.9,-0.3 0.5,-0.9 0.3,-1.5 -0.1,-0.9 -0.4,-1.5 -0.6,-0.9 -0.9,-0.2 h -0.5 M 671.2,306 l -0.1,0.7 0.1,1.2 -4.9,-3.9 m 3.3,4 -0.1,0.7 0.2,1.3 -5,-3.9 m 3.4,4 -0.2,0.6 0.2,1.3 -5,-3.9 m 133.1,322.2 0.2,0.6 0.8,0.5 0.6,0.1 0.9,-0.1 0.8,-0.7 0.6,-1.4 0.3,-1.5 v -1.2 l -0.5,-0.7 -0.8,-0.5 -0.3,-0.1 -0.9,0.1 -0.7,0.5 -0.5,0.8 -0.1,0.3 0.1,0.9 0.5,0.8 0.8,0.4 0.3,0.1 0.9,-0.1 0.7,-0.5 0.5,-0.8 m -6.4,2.9 -3.2,-0.7 2.3,-1.9 -0.9,-0.2 -0.5,-0.4 -0.3,-0.4 -0.1,-0.9 0.2,-0.6 0.4,-0.8 0.7,-0.5 1,-0.1 0.9,0.2 0.8,0.5 0.2,0.3 0.2,0.7 m -87.4,-338.5 -0.6,0.3 -0.8,1 -0.4,-6.3 m -0.8,5.1 -0.6,0.4 -0.8,0.9 -0.3,-6.3 m -1.4,6.6 -3.3,0.2 1.6,-2.5 h -0.8 l -0.7,-0.3 -0.3,-0.2 -0.3,-0.9 -0.1,-0.6 0.3,-0.9 0.6,-0.7 0.9,-0.3 h 0.9 l 0.9,0.2 0.3,0.3 0.3,0.6 m 55.6,414.8 h 0.7 l 1.2,-0.4 -2.7,5.6 m 3.6,-3.8 0.2,-0.2 0.5,-0.4 0.4,-0.2 h 0.7 l 1.1,0.5 0.4,0.6 0.1,0.4 v 0.6 l -0.2,0.6 -0.6,0.4 -0.9,0.5 -4,1.4 3.8,1.9 m 3.6,-3.6 0.1,-0.3 0.5,-0.4 0.4,-0.2 h 0.7 l 1.1,0.5 0.4,0.6 0.1,0.4 v 0.6 l -0.2,0.6 -0.6,0.4 -0.9,0.5 -4,1.4 3.8,1.9 m -55.9,-353.3 3.3,-0.1 -1.7,2.4 h 0.9 l 0.6,0.3 0.3,0.3 0.3,0.8 0.1,0.6 -0.3,1 -0.6,0.6 -0.8,0.3 -0.9,0.1 -1,-0.3 -0.3,-0.3 -0.3,-0.6 m 9.1,-3.4 -0.3,0.9 -0.5,0.6 -0.9,0.4 h -0.3 l -0.9,-0.3 -0.7,-0.5 -0.3,-0.9 V 357 l 0.2,-0.9 0.6,-0.7 0.9,-0.3 h 0.3 l 0.9,0.2 0.6,0.6 0.4,1.2 0.1,1.5 -0.3,1.5 -0.5,0.9 -0.9,0.4 h -0.6 l -0.9,-0.2 -0.3,-0.6 m 123.3,297.6 -0.2,0.6 0.3,0.9 0.3,0.4 0.8,0.6 1.1,-0.1 1.4,-0.7 1.2,-0.9 0.7,-1 0.1,-0.8 -0.3,-0.9 -0.2,-0.3 -0.8,-0.5 -0.8,-0.1 -0.9,0.3 -0.2,0.2 -0.6,0.8 -0.1,0.8 0.3,0.9 0.2,0.3 0.8,0.5 0.9,0.1 0.9,-0.3 m -5.3,-2.2 -0.6,-0.3 -1.3,-0.2 5,-3.8 M 758,268.7 l -0.4,0.6 -0.4,1.2 -3,-5.5 m 1.5,5 -0.4,0.5 -0.3,1.3 -3.1,-5.5 m -0.5,7.8 0.6,-5.1 -4,2.2 m 3.4,2.9 -3.1,-5.5 m 76.4,455.3 -4.1,5.7 m 0,-6.4 4.1,0.7 m 5.2,1 -4.2,5.6 m 0,-6.4 4.2,0.8 m -51.2,-438.8 -0.4,-0.5 -1.2,-0.6 6.1,-1.7 m -5.2,0.4 -0.5,-0.5 -1.1,-0.6 6.1,-1.8 m -7.7,-3.2 6.9,1.1 m -5.7,2.9 -1.2,-4 m -22.2,55.9 0.3,-0.7 v -1.2 l 4.2,4.7 m -2.6,-4.6 0.3,-0.6 0.1,-1.2 4.1,4.7 m -0.1,-7.4 -0.6,-0.2 -0.9,0.3 -0.5,0.4 -0.4,0.9 0.1,1 0.8,1.4 1,1.1 1,0.7 h 0.8 l 0.9,-0.3 0.2,-0.2 0.5,-0.9 0.1,-0.8 -0.4,-0.9 -0.2,-0.2 -0.8,-0.5 h -0.9 l -0.8,0.3 -0.3,0.2 -0.4,0.9 -0.1,0.8 0.4,0.9 m 123.9,400.8 -3.9,5.9 m -0.3,-6.4 4.2,0.5 m 1.7,0.3 3.2,0.4 -2.1,2.2 0.9,0.1 0.6,0.4 0.2,0.3 0.2,0.9 -0.1,0.6 -0.4,0.9 -0.7,0.5 -0.9,0.2 -0.9,-0.1 -0.9,-0.5 -0.2,-0.3 -0.2,-0.6 m 24.1,-58.8 3,-0.3 v -2.7 l -0.3,0.3 -0.9,0.4 -0.8,0.1 -1,-0.2 -0.6,-0.5 -0.4,-0.9 -0.1,-0.6 0.2,-0.9 0.5,-0.7 0.9,-0.4 0.9,-0.1 0.9,0.3 0.4,0.2 0.3,0.6 m -6.2,5.8 0.8,-0.4 0.2,-0.6 v -0.6 l -0.4,-0.6 -0.6,-0.2 -1.2,-0.2 -1,-0.2 -0.6,-0.5 -0.4,-0.6 -0.1,-0.9 0.3,-0.6 0.2,-0.4 0.9,-0.4 1.2,-0.1 0.9,0.2 0.3,0.3 0.4,0.6 0.1,0.8 -0.2,0.7 -0.6,0.6 -0.8,0.4 -1.2,0.5 -0.6,0.3 -0.2,0.6 0.1,0.6 0.3,0.6 1,0.2 1.3,-0.1 m 33.4,54.6 0.5,-0.5 0.6,-1.1 1.8,6 m -0.5,-5.2 0.5,-0.5 0.6,-1.1 1.9,6 m 0.6,-7 -0.8,0.6 -0.1,0.6 0.2,0.6 0.4,0.5 0.7,0.1 1.2,-0.1 h 1 l 0.7,0.4 0.5,0.5 0.3,0.9 -0.1,0.6 -0.2,0.4 -0.8,0.6 -1.1,0.3 h -1 l -0.4,-0.2 -0.4,-0.5 -0.3,-0.8 0.1,-0.7 0.4,-0.7 0.8,-0.6 1,-0.6 0.5,-0.5 0.1,-0.7 -0.2,-0.5 -0.4,-0.5 h -1 l -1.3,0.4 m 41.8,-14.7 0.5,-0.5 0.4,-1.2 2.7,5.7 m -0.7,-5.3 -0.1,-0.2 v -0.7 l 0.2,-0.4 0.4,-0.5 1.1,-0.5 h 0.6 l 0.4,0.1 0.6,0.5 0.2,0.5 v 0.7 l -0.2,1 -1.4,4 3.8,-1.8 m -1.1,-6.4 3,-1.4 -0.6,2.9 0.8,-0.3 h 0.7 l 0.4,0.1 0.6,0.7 0.3,0.6 0.1,0.9 -0.3,0.8 -0.7,0.6 -0.8,0.4 -1,0.1 -0.4,-0.1 -0.5,-0.4 m 24.3,-26.5 -0.2,-0.7 -0.6,-1.1 6.1,1.7 m -4.6,-2.4 -0.2,-0.6 -0.6,-1.1 6.1,1.7 m -2.9,-6.1 0.8,0.5 0.4,0.8 0.1,0.9 -0.1,0.3 -0.6,0.8 -0.7,0.4 -0.9,0.1 -0.3,-0.1 -0.8,-0.6 -0.4,-0.7 -0.1,-0.9 0.1,-0.3 0.5,-0.8 0.8,-0.4 h 1.2 l 1.5,0.4 1.3,0.7 0.7,0.8 0.1,1 -0.2,0.6 -0.5,0.7 -0.7,0.2 m -28.6,-23.4 -0.6,0.1 -1.2,0.6 1.9,-6 m -2.5,4.5 -0.7,0.2 -1.1,0.6 1.8,-6.1 m -6.2,4 0.2,0.7 0.7,0.5 0.6,0.2 h 0.9 l 0.9,-0.7 0.7,-1.4 0.4,-1.4 0.1,-1.2 -0.4,-0.8 -0.8,-0.5 -0.3,-0.1 h -0.9 l -0.8,0.4 -0.5,0.8 -0.1,0.3 v 0.9 l 0.4,0.8 0.8,0.5 0.3,0.1 h 0.9 l 0.8,-0.4 0.5,-0.8 m -33.6,-2.7 0.8,-2.9 -2.5,-1 0.2,0.4 0.1,0.9 -0.3,0.9 -0.5,0.8 -0.7,0.4 h -1 l -0.6,-0.1 -0.7,-0.6 -0.5,-0.7 v -1 l 0.2,-0.8 0.6,-0.8 0.3,-0.2 0.7,-0.2 m 2.4,10.5 -5.3,-4.6 m 6.4,0.5 -1.1,4.1 m -377.1,-3.3 0.5,3.2 -2.6,-1.4 0.1,0.9 -0.2,0.6 -0.3,0.3 -0.8,0.4 -0.6,0.1 -1,-0.1 -0.6,-0.6 -0.5,-0.8 -0.1,-0.9 0.2,-0.9 0.2,-0.4 0.6,-0.4 m 4.4,5.4 0.3,-0.1 0.6,0.2 0.3,0.3 0.4,0.6 0.2,1.2 -0.2,0.6 -0.3,0.3 -0.6,0.4 -0.6,0.1 -0.6,-0.2 -1,-0.5 -3.3,-2.6 0.5,4.2 m 9.7,-80 h 0.3 l 0.6,0.4 0.2,0.3 0.2,0.7 -0.1,1.2 -0.4,0.5 -0.4,0.3 -0.6,0.2 -0.6,-0.1 -0.5,-0.4 -0.8,-0.7 -2.6,-3.4 -0.6,4.1 m 5.7,5.2 -3.7,-3.6 -0.7,4.5 m 4.4,-0.9 -6.3,-0.9 m 29.6,-83.8 v 0.6 l 0.4,1.2 -5.6,-2.9 m 3.6,3.8 0.3,0.1 0.4,0.6 0.1,0.4 v 0.7 l -0.6,1 -0.5,0.4 -0.4,0.1 h -0.7 l -0.5,-0.3 -0.4,-0.5 -0.5,-1 -1.3,-4 -1.9,3.7 m 3.3,7.1 1.4,-2.6 -2.2,-1.6 0.1,0.4 -0.2,1 -0.4,0.8 -0.7,0.6 -0.8,0.3 -0.9,-0.2 -0.6,-0.3 -0.6,-0.7 -0.3,-0.8 0.2,-0.9 0.4,-0.8 0.7,-0.6 0.4,-0.2 h 0.7 m 165.6,-149.6 -0.6,0.4 -0.7,1 -1,-6.2 m -3.8,6.3 0.4,0.6 0.9,0.1 0.6,-0.1 0.9,-0.4 0.4,-1 0.1,-1.5 -0.3,-1.5 -0.5,-1.2 -0.6,-0.5 -1,-0.1 h -0.3 l -0.8,0.5 -0.5,0.7 -0.2,0.9 0.1,0.3 0.4,0.8 0.7,0.5 0.9,0.2 0.3,-0.1 0.9,-0.4 0.5,-0.7 0.1,-0.9 m -15.7,40.3 -0.9,0.3 -0.8,-0.2 -0.8,-0.5 -0.1,-0.3 -0.3,-0.9 0.1,-0.8 0.6,-0.8 0.3,-0.2 0.9,-0.2 0.8,0.1 0.8,0.6 0.1,0.2 0.3,0.9 -0.1,0.9 -0.9,0.9 -1.2,0.9 -1.4,0.6 h -1.1 l -0.7,-0.6 -0.4,-0.4 -0.2,-1 0.3,-0.5 m 5.9,1.5 0.6,0.3 1.3,0.2 -5.2,3.6 m 103.8,-49.9 0.3,-0.9 0.6,-0.6 0.9,-0.3 h 0.3 l 0.9,0.3 0.6,0.6 0.3,0.9 v 0.3 l -0.3,0.9 -0.6,0.6 -0.9,0.3 h -0.3 l -0.9,-0.3 -0.6,-0.6 -0.3,-1.2 v -1.5 l 0.3,-1.5 0.6,-0.9 0.9,-0.3 h 0.6 l 0.9,0.3 0.3,0.6 m -7.9,5.4 3,-4.2 h -4.5 m 1.5,4.2 v -6.3 m 83.3,-11.3 -3,1.3 0.6,-2.9 -0.8,0.4 -0.7,-0.1 -0.4,-0.1 -0.6,-0.7 -0.3,-0.5 -0.1,-1 0.3,-0.8 0.7,-0.6 0.9,-0.4 0.9,-0.1 0.4,0.2 0.5,0.4 m -3.3,7.1 -3,1.3 0.6,-2.9 -0.8,0.4 -0.6,-0.1 -0.4,-0.1 -0.7,-0.7 -0.2,-0.6 -0.1,-0.9 0.3,-0.8 0.7,-0.6 0.8,-0.4 0.9,-0.1 0.4,0.1 0.6,0.5 m 71.9,2.5 -0.7,0.1 -1.2,0.6 2.1,-6 m -2.7,4.5 -0.6,0.1 -1.2,0.6 2,-6 m -3.1,4.2 -0.1,0.3 -0.5,0.5 -0.4,0.2 h -0.7 l -1.1,-0.3 -0.5,-0.5 -0.2,-0.4 -0.1,-0.7 0.2,-0.5 0.5,-0.5 0.9,-0.7 3.8,-1.8 -4,-1.4 m -225.7,173.1 -0.8,0.4 -0.8,0.1 -0.9,-0.4 -0.2,-0.2 -0.5,-0.8 -0.1,-0.9 0.4,-0.8 0.2,-0.3 0.8,-0.4 0.9,-0.1 0.9,0.4 0.2,0.2 0.5,0.8 v 0.9 l -0.6,1.1 -1,1.1 -1.2,0.9 -1,0.3 -0.9,-0.4 -0.5,-0.4 -0.4,-0.8 0.1,-0.7 m 7.6,-0.5 2.5,2.2 -2.9,0.6 0.6,0.6 0.3,0.6 v 0.5 l -0.4,0.8 -0.4,0.5 -0.8,0.5 h -0.8 l -0.9,-0.4 -0.7,-0.6 -0.5,-0.8 v -0.4 l 0.2,-0.6 m 2.5,-39.1 0.2,0.2 0.3,0.6 v 0.4 l -0.1,0.6 -0.8,1 -0.6,0.2 -0.4,0.1 -0.7,-0.2 -0.4,-0.3 -0.3,-0.7 -0.3,-1 -0.4,-4.2 -2.7,3.2 m 3.1,4 -0.1,0.6 0.1,1.3 -4.9,-4 m 162.6,105.5 0.6,0.2 1.3,-0.2 -3.8,5 m 4.3,-3 0.2,-0.2 0.6,-0.3 0.4,-0.1 0.7,0.1 1,0.7 0.3,0.6 v 0.5 l -0.1,0.6 -0.4,0.5 -0.6,0.3 -1,0.4 -4.2,0.6 3.4,2.5 m 3.8,-3.3 0.6,0.1 1.3,-0.2 -3.8,5.1 m -5.7,12.4 -0.7,-0.2 h -1.2 l 4.3,-4.5 m -4.7,2.5 -0.2,0.2 -0.6,0.2 h -0.4 l -0.7,-0.2 -0.8,-0.8 -0.3,-0.6 v -0.5 l 0.2,-0.6 0.4,-0.4 0.7,-0.3 1,-0.2 4.3,-0.1 -3.1,-2.9 m -4.1,2.8 -0.7,-0.2 h -1.2 l 4.3,-4.5 m -112.3,6.6 -0.8,0.5 -0.8,0.2 -0.9,-0.3 -0.3,-0.2 -0.5,-0.8 -0.1,-0.8 0.3,-0.9 0.2,-0.3 0.7,-0.5 0.9,-0.1 0.9,0.3 0.2,0.1 0.6,0.8 0.1,0.9 -0.5,1.1 -0.9,1.2 -1.2,1 -1,0.4 -0.9,-0.3 -0.5,-0.4 -0.5,-0.8 0.1,-0.6 m 10.3,1 -6.2,3.2 m 2.9,-5.8 3.3,2.6 m -24.6,-41.6 -0.8,-0.5 -0.5,-0.7 -0.1,-0.9 v -0.3 l 0.5,-0.8 0.7,-0.5 1,-0.1 0.3,0.1 0.8,0.4 0.5,0.8 0.1,0.9 -0.1,0.3 -0.5,0.8 -0.7,0.5 h -1.2 l -1.5,-0.3 -1.4,-0.6 -0.8,-0.8 -0.1,-0.9 0.2,-0.6 0.4,-0.8 0.7,-0.2 m 3.6,9.3 0.6,-3 -2.6,-0.8 0.2,0.4 0.1,0.9 -0.2,0.9 -0.4,0.8 -0.7,0.5 -1,0.1 -0.6,-0.2 -0.8,-0.4 -0.5,-0.7 -0.1,-1 0.2,-0.9 0.5,-0.8 0.4,-0.2 0.6,-0.2 m 134.3,69.7 1.7,6.8 m -4.9,-4.2 3.2,-2.6 m 3.7,-3 -2.3,1.9 1.5,2.3 V 630 l 0.5,-0.8 0.7,-0.6 0.9,-0.3 0.8,0.1 0.8,0.5 0.4,0.5 0.4,0.8 -0.1,0.9 -0.6,0.8 -0.7,0.5 -0.8,0.4 -0.5,-0.1 -0.6,-0.2 m -59.6,-1.9 0.7,-0.1 1.2,-0.5 -2.3,5.9 m 5.1,-5 h -0.9 l -0.9,0.6 -0.9,1.3 -0.3,0.8 -0.2,1.5 0.2,1.1 0.7,0.6 0.6,0.2 h 0.9 l 0.9,-0.6 0.8,-1.3 0.4,-0.8 0.2,-1.5 -0.2,-1.1 -0.7,-0.6 -0.5,-0.1 m 3.1,2.8 0.2,-0.3 0.5,-0.5 0.3,-0.1 0.7,-0.1 1.1,0.4 0.5,0.5 0.1,0.4 0.1,0.7 -0.2,0.5 -0.5,0.5 -0.9,0.6 -3.9,1.7 3.9,1.5 m 165.3,-110.4 1,0.2 0.6,0.6 0.4,0.9 v 0.3 l -0.2,0.9 -0.6,0.6 -0.8,0.4 h -0.3 l -1,-0.2 -0.6,-0.5 -0.4,-0.9 v -0.3 l 0.2,-0.9 0.6,-0.7 1.1,-0.4 1.5,-0.1 1.5,0.2 1,0.5 0.4,0.9 v 0.6 l -0.2,0.9 -0.6,0.3 m -4,-8.3 0.9,0.2 0.7,0.6 0.3,0.8 0.1,0.3 -0.3,1 -0.5,0.6 -0.9,0.4 h -0.3 l -0.9,-0.2 -0.6,-0.6 -0.4,-0.8 v -0.3 l 0.2,-1 0.5,-0.6 1.2,-0.4 1.5,-0.1 1.5,0.1 1,0.6 0.3,0.8 0.1,0.6 -0.2,0.9 -0.6,0.4 m -4.6,92.9 -0.2,-0.7 -0.8,-0.9 6.2,0.4 m -6.2,-3.4 0.2,0.9 0.8,0.7 1.5,0.4 0.9,0.1 1.5,-0.2 1,-0.5 0.3,-0.9 0.1,-0.6 -0.2,-0.9 -0.9,-0.7 -1.5,-0.4 -0.9,-0.1 -1.5,0.2 -0.9,0.6 -0.4,0.8 v 0.5 m 1.4,-6.9 -0.6,0.2 -0.4,0.9 v 0.6 l 0.2,0.9 0.8,0.7 1.5,0.4 1.5,0.1 1.2,-0.2 0.7,-0.6 0.3,-0.8 0.1,-0.3 -0.3,-1 -0.5,-0.6 -0.9,-0.4 h -0.3 l -0.9,0.2 -0.7,0.6 -0.3,0.9 -0.1,0.3 0.3,0.9 0.5,0.6 0.9,0.4 m -45.5,14.6 0.7,0.1 1.2,-0.4 -3.1,5.5 m 5.8,-4.2 -0.9,-0.2 -1,0.5 -1,1.2 -0.5,0.7 -0.5,1.5 0.1,1.1 0.6,0.7 0.5,0.3 1,0.2 0.9,-0.5 1.1,-1.1 0.4,-0.8 0.5,-1.5 -0.1,-1 -0.6,-0.8 -0.4,-0.2 m 6.5,3.8 -5.8,3.9 m 2.1,-6 3.7,2.1 m 39,-179.4 -1,2.8 2.4,1.2 -0.2,-0.4 v -0.9 l 0.4,-0.8 0.5,-0.8 0.8,-0.4 0.9,0.1 0.6,0.2 0.8,0.5 0.3,0.8 v 1 l -0.3,0.8 -0.6,0.8 -0.4,0.1 -0.6,0.1 m -1,-9.8 -0.7,0.1 -0.5,0.7 -0.2,0.6 -0.1,0.9 0.7,0.9 1.3,0.8 1.4,0.5 1.2,0.1 0.8,-0.4 0.6,-0.7 0.1,-0.3 v -1 l -0.3,-0.7 -0.8,-0.6 -0.3,-0.1 h -0.9 l -0.8,0.3 -0.6,0.8 -0.1,0.3 v 0.9 l 0.4,0.8 0.7,0.6 m -3.5,-61.2 -0.5,-0.4 -1.2,-0.5 5.8,-2.5 m -5.1,1 -0.5,-0.4 -1.2,-0.5 5.8,-2.5 m -5.3,0.5 -0.2,0.1 h -0.7 l -0.4,-0.2 -0.5,-0.4 -0.5,-1.1 v -0.7 l 0.2,-0.4 0.4,-0.5 0.6,-0.2 h 0.7 l 1,0.2 4,1.6 -1.7,-3.9 m -217.6,-250.9 -3.3,0.2 1.7,-2.5 -0.9,0.1 -0.7,-0.3 -0.3,-0.3 -0.3,-0.8 -0.1,-0.6 0.2,-0.9 0.6,-0.7 0.9,-0.4 h 0.9 l 0.9,0.2 0.3,0.3 0.4,0.6 m -8.6,5.7 3,-0.2 0.1,-2.7 -0.3,0.3 -0.8,0.4 h -0.9 l -1,-0.2 -0.6,-0.6 -0.4,-0.8 v -0.6 l 0.2,-0.9 0.6,-0.7 0.8,-0.4 h 0.9 l 1,0.2 0.3,0.3 0.3,0.6 m 48.8,65.4 2.8,4.3 1.7,-4.1 m -4.5,-0.2 5.9,2.4 m -4.2,-6.3 -0.1,1 0.5,0.5 0.5,0.2 h 0.7 l 0.5,-0.5 0.7,-1 0.6,-0.7 0.8,-0.3 0.7,-0.1 0.8,0.4 0.5,0.5 0.1,0.4 v 0.9 l -0.5,1.1 -0.6,0.8 -0.4,0.1 -0.7,0.1 -0.8,-0.4 -0.4,-0.5 -0.4,-0.8 0.1,-0.9 0.2,-1.2 -0.1,-0.7 -0.4,-0.5 -0.6,-0.2 h -0.6 l -0.7,0.7 -0.5,1.3 m -0.4,-44.1 4.8,-1.8 -3.7,-2.5 m -1.1,4.3 3.5,-5.2 m -7.8,-0.2 0.8,-0.6 0.8,-0.2 0.9,0.3 0.3,0.1 0.6,0.8 0.1,0.8 -0.2,0.9 -0.2,0.3 -0.7,0.6 -0.9,0.1 -0.9,-0.2 -0.2,-0.2 -0.6,-0.7 -0.2,-0.8 0.4,-1.2 0.9,-1.3 1,-1 1,-0.5 1,0.3 0.5,0.3 0.5,0.8 v 0.6 m -87.5,16.9 1.5,-2.7 -2.3,-1.5 0.1,0.4 -0.1,0.9 -0.5,0.8 -0.6,0.7 -0.9,0.2 -0.9,-0.2 -0.5,-0.2 -0.7,-0.7 -0.2,-0.9 0.2,-0.9 0.4,-0.8 0.7,-0.6 0.4,-0.1 h 0.7 m 0.2,10.3 1.4,-2.7 -2.2,-1.5 0.1,0.4 -0.2,0.9 -0.4,0.8 -0.7,0.6 -0.8,0.3 -1,-0.2 -0.5,-0.3 -0.6,-0.7 -0.3,-0.8 0.2,-0.9 0.4,-0.8 0.7,-0.6 0.4,-0.2 0.7,0.1 m -5.1,48.5 -0.5,-3 -2.7,0.2 0.4,0.2 0.4,0.8 0.2,0.9 -0.2,1 -0.5,0.7 -0.8,0.4 -0.6,0.1 -1,-0.2 -0.7,-0.5 -0.4,-0.8 -0.1,-0.9 0.1,-0.9 0.3,-0.4 0.5,-0.4 m 6.2,6.3 -0.5,-0.9 -0.9,-0.4 -1.6,-0.1 -0.9,0.2 -1.4,0.5 -0.8,0.8 -0.1,0.9 0.1,0.6 0.4,0.8 1,0.5 h 1.5 l 0.9,-0.1 1.4,-0.5 0.8,-0.8 0.2,-0.9 -0.1,-0.5 m 39.1,18.9 -3.1,4.1 4.5,0.1 m -1.4,-4.2 -0.2,6.3 m 4.4,-6.1 -0.9,0.2 -0.4,0.6 v 0.6 l 0.3,0.6 0.6,0.4 1.2,0.3 0.9,0.3 0.5,0.7 0.3,0.6 v 0.9 l -0.3,0.6 -0.3,0.2 -1,0.3 h -1.2 l -0.8,-0.4 -0.3,-0.3 -0.3,-0.6 v -0.9 l 0.3,-0.6 0.7,-0.5 0.9,-0.3 1.2,-0.3 0.6,-0.3 0.3,-0.5 v -0.6 l -0.2,-0.7 -0.9,-0.3 H 812 m 28.9,97.6 3.2,0.8 -2.4,1.9 0.9,0.2 0.5,0.4 0.2,0.4 0.1,1 -0.2,0.5 -0.5,0.8 -0.7,0.5 h -1 l -0.9,-0.2 -0.7,-0.5 -0.3,-0.4 -0.1,-0.7 m 7.1,-3.4 3.1,0.9 -2.3,1.8 0.9,0.3 0.5,0.4 0.2,0.4 v 0.9 l -0.1,0.6 -0.5,0.8 -0.8,0.4 -0.9,0.1 -0.9,-0.2 -0.8,-0.6 -0.2,-0.3 -0.1,-0.7 m -9,-74.3 2.8,-1 -0.7,-2.6 -0.1,0.3 -0.8,0.6 -0.8,0.4 h -1 l -0.7,-0.4 -0.6,-0.7 -0.2,-0.6 -0.1,-0.9 0.4,-0.8 0.7,-0.6 0.9,-0.3 h 0.9 l 0.4,0.2 0.5,0.4 m -4.3,5.4 0.2,0.3 -0.1,0.7 -0.2,0.4 -0.5,0.5 -1.1,0.4 -0.6,-0.1 -0.4,-0.2 -0.5,-0.4 -0.2,-0.6 v -0.7 l 0.3,-1 1.8,-3.9 -4,1.5 m -20.4,37.8 -0.8,-2.9 -2.7,0.4 0.4,0.2 0.5,0.8 0.2,0.9 v 0.9 l -0.4,0.7 -0.8,0.6 -0.6,0.1 h -0.9 l -0.8,-0.4 -0.5,-0.8 -0.3,-0.9 0.1,-0.9 0.2,-0.4 0.5,-0.4 m 6.5,4.3 0.9,3.2 -2.8,-1.1 0.2,0.9 -0.1,0.6 -0.2,0.4 -0.8,0.5 -0.6,0.2 -0.9,-0.1 -0.7,-0.4 -0.6,-0.8 -0.2,-0.8 v -1 l 0.2,-0.4 0.5,-0.4 m 105.4,28.1 -2.7,1.2 0.8,2.5 0.2,-0.3 0.7,-0.7 0.8,-0.3 0.9,-0.1 0.8,0.3 0.7,0.7 0.2,0.5 0.1,1 -0.3,0.8 -0.7,0.6 -0.9,0.4 -0.9,0.1 -0.4,-0.2 -0.5,-0.4 m 6.5,-7.5 -0.5,-0.4 -0.9,0.1 -0.6,0.2 -0.7,0.7 -0.2,1 0.3,1.5 0.6,1.4 0.8,1 0.8,0.3 0.9,-0.1 0.3,-0.1 0.7,-0.6 0.3,-0.8 -0.1,-1 -0.1,-0.2 -0.6,-0.7 -0.8,-0.4 -1,0.1 -0.2,0.1 -0.7,0.7 -0.4,0.8 0.1,0.9 m 30.6,-41.1 -0.3,3 2.6,0.6 -0.3,-0.3 -0.2,-0.9 0.2,-0.9 0.4,-0.9 0.6,-0.5 1,-0.2 0.6,0.1 0.8,0.4 0.5,0.7 0.2,0.9 -0.1,0.9 -0.4,0.8 -0.3,0.3 -0.7,0.2 m -4.1,-9 3.9,3.5 0.5,-4.5 m -4.4,1 6.3,0.7 m -36.2,-27.9 2.9,0.6 0.9,-2.6 -0.4,0.2 -0.9,0.1 -0.9,-0.1 -0.8,-0.5 -0.5,-0.7 -0.1,-1 0.1,-0.6 0.5,-0.8 0.7,-0.4 0.9,-0.1 0.9,0.1 0.8,0.5 0.3,0.4 0.2,0.6 m -6.5,2.3 -0.1,0.3 -0.4,0.6 -0.4,0.2 -0.6,0.2 -1.2,-0.3 -0.5,-0.4 -0.2,-0.3 -0.2,-0.7 0.1,-0.6 0.4,-0.5 0.8,-0.8 3.6,-2.3 -4.2,-0.8 m 17.4,-86.9 -0.5,3.3 -2.1,-2.2 -0.1,0.9 -0.4,0.6 -0.4,0.2 -0.9,0.2 -0.6,-0.1 -0.9,-0.5 -0.4,-0.7 -0.2,-0.9 0.1,-0.9 0.5,-0.8 0.3,-0.3 0.7,-0.2 m 3.7,9.2 -3.7,-3.6 -0.7,4.4 m 4.4,-0.8 -6.2,-1 m 5.7,35.4 -0.4,-3 H 920 l 0.3,0.3 0.4,0.9 0.1,0.8 -0.1,1 -0.6,0.6 -0.8,0.5 h -0.6 l -0.9,-0.2 -0.7,-0.5 -0.4,-0.8 -0.1,-0.9 0.2,-1 0.2,-0.3 0.6,-0.4 m 4.3,4.8 0.3,0.6 1.1,0.7 -6.3,0.8 m 44.3,26.7 -4.3,2.9 4.2,1.5 m 0.1,-4.4 -2.2,5.9 m 7.7,-2.9 -0.1,-0.6 -0.7,-0.6 -0.6,-0.2 -0.9,-0.1 -0.9,0.7 -0.8,1.3 -0.5,1.4 -0.2,1.2 0.4,0.8 0.7,0.6 0.3,0.1 h 1 l 0.7,-0.3 0.6,-0.8 0.1,-0.3 0.1,-0.9 -0.4,-0.8 -0.7,-0.6 -0.3,-0.1 h -1 l -0.7,0.3 -0.6,0.8 m 50.7,-17.2 2.4,4.5 2,-4 m -4.4,-0.5 5.6,2.8 m -3.1,-8 2.5,4.6 2,-4.1 m -4.5,-0.5 5.7,2.8 m -4.8,-61.9 5,1 -1.8,-4.1 m -3.2,3.1 5.7,-2.6 m -8.1,-2.7 5,1 -1.8,-4.1 m -3.2,3.1 5.7,-2.6 m -51.8,-12.5 1.5,-5 -4.2,1.4 m 2.7,3.6 -2,-6 m -4,7.8 2.9,-0.9 -0.6,-2.7 -0.2,0.4 -0.7,0.6 -0.9,0.3 h -0.9 l -0.8,-0.4 -0.5,-0.8 -0.2,-0.6 v -0.9 l 0.4,-0.8 0.7,-0.5 0.9,-0.3 h 0.9 l 0.4,0.2 0.5,0.5 m -96.1,-79.2 -3.3,0.3 1.6,-2.5 h -0.9 l -0.7,-0.2 -0.3,-0.3 -0.4,-0.8 v -0.6 l 0.2,-1 0.5,-0.6 0.9,-0.4 0.9,-0.1 0.9,0.3 0.4,0.2 0.3,0.6 m -8.5,5 0.3,0.5 0.9,0.3 0.6,-0.1 0.9,-0.4 0.5,-0.9 0.2,-1.5 -0.1,-1.5 -0.4,-1.2 -0.7,-0.6 -0.9,-0.2 -0.3,0.1 -0.9,0.3 -0.5,0.7 -0.3,0.9 0.1,0.3 0.4,0.9 0.6,0.5 0.9,0.2 h 0.3 l 0.9,-0.4 0.5,-0.6 0.3,-0.9 m 76,5.9 3.5,-3.8 -4.5,-0.5 m 1,4.3 0.8,-6.2 m -7.4,5.3 3.7,-5.9 m 0.4,6.4 -4.1,-0.5 m -91.4,50 -4.5,2.6 4.1,1.9 m 0.4,-4.5 -2.6,5.8 m 4.3,-3.3 0.7,-0.1 1.2,-0.4 -2.6,5.7 m -31.4,-40.1 -0.5,-5.2 -3.4,3 m 3.9,2.2 -4.1,-4.8 m 0.6,5.6 0.2,0.3 0.2,0.6 -0.1,0.5 -0.2,0.6 -0.9,0.7 -0.7,0.2 h -0.4 l -0.6,-0.3 -0.4,-0.5 -0.2,-0.6 -0.1,-1.1 0.4,-4.2 -3.2,2.7 M 992,72 l 5,-1.1 -3.3,-3 m -1.7,4.1 4.2,-4.6 m -6.6,2.4 -2.4,-2.3 3,-0.5 -0.7,-0.6 -0.2,-0.6 -0.1,-0.5 0.4,-0.8 0.4,-0.5 0.9,-0.4 0.8,-0.1 0.9,0.4 0.6,0.6 0.5,0.9 v 0.4 l -0.2,0.6 m -41.5,35.4 -1.2,5 4.2,-1.7 m -3,-3.3 2.4,5.8 m 0.5,-5.4 0.5,-0.5 0.4,-1.2 2.5,5.8"
       id="nums_002"
       stroke="#000000"
       stroke-width="1" />
    <path
       d="m 697.8,168.9 49.4,-22.1 2.2,40.5 5.6,57.5 -59.2,18.3 -50,6 -13,48.7 -59.4,-17.7 24.4,-34.5 -32.5,-98.7 29.8,-87.8 73.6,-28.4 67.8,-40.1 37.8,84.8 -39.4,34.1 z m -83.7,278.5 6.8,-77.4 24.7,-42.3 35.8,-45.8 42.8,-2.1 51.5,-28.8 16.4,56.7 -62.3,55.1 -25.9,1.3 -26.7,77.4 37,45.5 -1.2,63.8 52.1,65.3 62.4,13.4 36,46.3 81.6,-8.8 7,-24.8 79.6,24 -11.6,41.2 -52.7,24.6 -46.7,14.6 -77,-10.7 -39,-7.3 -86.1,-41.4 -78.1,4 -66.9,-7 -5.6,-41.8 15.3,-102 28.8,-53.3 z m 275,122.1 49.8,47.3 -45.1,36.2 -70.4,-27.3 -55.7,-42.1 10.4,-49.5 -44,-39 36.5,-44.8 -57.3,-82.1 94.2,-14.9 78.4,0.2 67.1,-30.1 73.4,24.8 30.8,71.1 -24.6,69.3 6.8,78.2 -7.1,95.1 -87.75,-51.1 z M 785.3,124 l 60.5,-4.6 44.6,29.6 -34.6,84.2 -91.1,-3.1 -8.5,-52.8 z m 5.6,136.6 79.7,-29.6 83.2,17.3 -7.6,62 -67.4,29.4 -71.1,-18.9 z m 128.4,-123.9 87.3,-28.5 32.6,72.1 -35.4,70.9 -86.2,-31.9 -5.1,-41.4 z m 55.2,-92 42.5,39 -119.1,49.6 -117,-54.1 44,-37.4 74.9,-6.6 z"
       id="coupes_002"
       stroke="#ff0000"
       stroke-width="1.27"
       sodipodi:nodetypes="ccccccccccccccccccccccccccccccccccccccccccccccccccccccccccccccccccccccccccccccccccccccccccccc" />
    <path
       d="m 697.8,168.9 57.2,75.9 m -59.2,18.3 2,-94.2 m 0,0 51.6,18.4 M 595.1,79.1 697.8,168.9 M 668.7,50.7 697.8,168.9 m -52,100.2 -50.7,-190 m 50.7,190 -80.5,-102.2 M 668.7,50.7 734.9,129.5 M 668.7,50.7 774.3,95.4 m -128.5,173.7 -48,-3.5 m 48,3.5 -72.4,31 M 612.5,487 h 101.7 m -80.7,93.2 -21,-93.2 m 0,0 64.7,-45.5 M 713,550.8 633.5,580.2 M 765.1,616.1 633.5,580.2 M 620.9,370 l 56.3,71.5 m -31.6,-113.8 58.3,36.4 m 61.2,252 -46.5,71.1 m -37.2,-405.3 22.5,82.2 m 123.6,265.4 -22.8,99.1 m -80.5,-448.8 5.6,83 m 133.7,313 -58.8,52.8 M 775.7,251 729.8,362.8 m 133.7,313 57.2,70.8 m 24.4,-79.6 22.3,65 m -22.3,-65 75,40.4 M 568,642.4 633.5,580.2 M 885.9,353.5 770.6,450.3 m 115.3,-96.8 140.5,-5.3 m 0,0 -255.8,102.1 M 1026.4,348.2 778.1,534.1 m 0,0 -7.5,-83.8 M 1026.4,348.2 889.1,569.5 m 137.3,-221.3 -50.7,182.3 m 0,0 -86.6,39 m 0,0 -65.7,56.2 m 0,0 -45.3,-91.6 m 197.6,-3.6 -31.6,80.1 m 88.5,-122 -56.9,41.9 m 50.7,-182.3 6.2,140.4 m -186.8,-369.2 10,113.8 m 0,0 L 785.3,124 m 70.5,109.2 -99.6,-55.9 m 51.5,143.5 62.9,-89.8 m 0,0 8.2,108.7 m -8.2,-108.7 75.6,79.3 m -26.9,-173.6 119.9,43.6 m 0,0 -126.7,-2.4 m 126.7,2.4 -121.6,39 m -17.8,-184.1 -1.9,98.1 m 0,0 -73,-91.5 m 149.6,2.9 -76.6,88.6"
       id="plisM_002"
       stroke="#a52a2a"
       stroke-dasharray="4" />
    <path
       d="M 695.8,263.1 595.1,79.1 M 714.2,487 633.5,580.2 m -19.4,-132.8 63.1,-5.9 m 87.9,174.6 -191.5,68.1 m 0,0 59.9,-104 M 620.9,370 l 83,-5.9 m 61.2,252 -124.6,75.1 m 187,-61.7 -108.9,57.7 m 5.6,-407.4 -20.3,84.3 m 159.6,311.7 -19.8,60.1 M 945.1,667 920.7,746.6 m 24.4,-79.6 86.6,-0.8 m -448.4,-125.8 50.2,39.8 m 174,-226.9 -36.9,97 m 118.5,119.2 -111,-35.4 m 160.8,82.7 -115.5,8.9 m 216,-58.9 -63.7,-36.3 m 63.7,36.3 L 945,611"
       id="plisV_002"
       stroke="#008000"
       stroke-dasharray="4, 1, 1, 1"
       stroke-width="1.27" />
    <path
       d="m 643.4,169.1 4,4 m 0,-4 -4,4 m 28.4,358.5 4,4 m 0,-4 -4,4 m -28.2,-93.1 4,4 m 0,-4 -4,4 m 23.8,201.7 4,4 m 0,-4 -4,4 m -65.8,-22 4,4 m 0,-4 -4,4 m 58.8,-269.2 4,4 m 0,-4 -4,4 m 40.4,282.6 4,4 m 0,-4 -4,4 m 70.3,0.8 4,4 m 0,-4 -4,4 m -59,-340.5 4,4 m 0,-4 -4,4 m 139.5,379.9 4,4 m 0,-4 -4,4 m 79.3,-3 4,4 m 0,-4 -4,4 m 55.5,-44.2 4,4 m 0,-4 -4,4 m -380,-110.3 4,4 m 0,-4 -4,4 m 180.7,-162.5 4,4 m 0,-4 -4,4 m 44.5,146 4,4 m 0,-4 -4,4 m 47.5,65.5 4,4 m 0,-4 -4,4 m 126.4,-76.7 4,4 m 0,-4 -4,4 m -15.3,36.3 4,4 m 0,-4 -4,4"
       id="marqueV_002"
       stroke="#008000" />
    <path
       d="m 664.6,157.8 -7.5,10.5 h 11.3 m -3.8,-10.5 v 15.8"
       id="titre_4"
       stroke="#4b0082" />
    <path
       d="m 707.3,570 h -7.5 l -0.7,6.8 0.7,-0.8 2.3,-0.7 h 2.2 l 2.3,0.7 1.5,1.5 0.7,2.3 v 1.5 l -0.7,2.2 -1.5,1.5 -2.3,0.8 h -2.2 l -2.3,-0.8 -0.7,-0.7 -0.8,-1.5"
       id="titre_5"
       stroke="#4b0082" />
    <path
       d="m 901.7,473.8 -0.8,-1.5 -2.2,-0.7 h -1.5 l -2.3,0.7 -1.5,2.3 -0.7,3.7 v 3.8 l 0.7,3 1.5,1.5 2.3,0.7 h 0.7 l 2.3,-0.7 1.5,-1.5 0.7,-2.3 v -0.7 l -0.7,-2.3 -1.5,-1.5 -2.3,-0.7 h -0.7 l -2.3,0.7 -1.5,1.5 -0.7,2.3"
       id="titre_6"
       stroke="#4b0082" />
    <path
       d="m 803.8,165.8 -7.5,15.7 m -3,-15.7 h 10.5"
       id="titre_7"
       stroke="#4b0082" />
    <path
       d="m 850.5,284.8 -2.2,0.7 -0.8,1.5 v 1.5 l 0.8,1.5 1.5,0.8 3,0.7 2.2,0.8 1.5,1.5 0.8,1.5 v 2.2 l -0.8,1.5 -0.7,0.8 -2.3,0.7 h -3 l -2.2,-0.7 -0.8,-0.8 -0.7,-1.5 v -2.2 l 0.7,-1.5 1.5,-1.5 2.3,-0.8 3,-0.7 1.5,-0.8 0.7,-1.5 V 287 l -0.7,-1.5 -2.3,-0.7 h -3.3"
       id="titre_8"
       stroke="#4b0082" />
    <path
       d="m 962.94341,161.83023 -0.8,2.3 -1.5,1.5 -2.2,0.7 h -0.8 l -2.2,-0.7 -1.5,-1.5 -0.8,-2.3 v -0.7 l 0.8,-2.3 1.5,-1.5 2.2,-0.7 h 0.8 l 2.2,0.7 1.5,1.5 0.8,3 v 3.8 l -0.8,3.7 -1.5,2.3 -2.2,0.7 h -1.5 l -2.3,-0.7 -0.7,-1.5"
       id="titre_9"
       stroke="#4b0082" />
    <path
       d="m 903.88803,74.823042 1.5,-0.7 2.2,-2.3 v 15.8 m 5.9,-16.3 -2.3,0.8 -1.5,2.2 -0.7,3.8 v 2.2 l 0.7,3.8 1.5,2.2 2.3,0.8 h 1.5 l 2.2,-0.8 1.5,-2.2 0.8,-3.8 v -2.2 l -0.8,-3.8 -1.5,-2.2 -2.2,-0.8 h -1.1"
       id="titre_10"
       stroke="#4b0082" />
  </g>
  <g
     id="page_003">
    <path
       d="m 1421.1,692.1 v -0.3 l 0.3,-0.6 0.3,-0.3 0.6,-0.3 h 1.2 l 0.6,0.3 0.3,0.3 0.3,0.6 v 0.6 l -0.3,0.6 -0.6,0.9 -3,3 h 4.2 m 1.7,-6.3 h 3.3 l -1.8,2.4 h 0.9 l 0.6,0.3 0.3,0.3 0.3,0.9 v 0.6 l -0.3,0.9 -0.6,0.6 -0.9,0.3 h -0.9 l -0.9,-0.3 -0.3,-0.3 -0.3,-0.6 m 23.4,-47.9 -0.2,0.1 -0.7,-0.2 -0.3,-0.2 -0.4,-0.6 -0.2,-1.2 0.1,-0.6 0.3,-0.3 0.5,-0.4 0.6,-0.2 0.7,0.2 0.9,0.5 3.5,2.4 -0.7,-4.1 m -5,-0.8 h -0.3 l -0.7,-0.2 -0.3,-0.2 -0.4,-0.5 -0.2,-1.2 0.2,-0.7 0.2,-0.3 0.6,-0.4 0.5,-0.1 0.7,0.2 1,0.4 3.5,2.4 -0.8,-4.1 m -39.1,-8.6 -2.6,-4.5 -1.8,4.1 m 4.4,0.4 -5.7,-2.6 m 3.1,8.3 1.3,-2.8 -2.4,-1.4 0.2,0.4 -0.1,1 -0.4,0.8 -0.6,0.7 -0.8,0.3 -1,-0.1 -0.5,-0.2 -0.7,-0.7 -0.3,-0.8 0.1,-0.9 0.3,-0.8 0.7,-0.7 0.4,-0.2 h 0.6 m -62.4,63 -0.3,-0.6 -0.9,-0.3 -0.6,0.1 -0.9,0.3 -0.5,0.9 -0.3,1.5 v 1.5 l 0.4,1.2 0.6,0.6 0.9,0.3 h 0.3 l 0.9,-0.4 0.6,-0.6 0.2,-0.9 v -0.3 l -0.3,-0.9 -0.6,-0.6 -0.9,-0.2 h -0.3 l -0.9,0.3 -0.6,0.6 -0.3,0.9 m 5.5,-2.8 v -0.3 l 0.3,-0.6 0.3,-0.3 0.6,-0.4 h 1.2 l 0.6,0.3 0.3,0.3 0.3,0.6 v 0.6 l -0.3,0.6 -0.5,0.9 -3,3.1 4.2,-0.1 m 8.7,-63.4 5.1,0.9 -1.9,-4.1 m -3.2,3.2 5.7,-2.8 m -7.5,-3.3 -0.4,0.5 0.1,1 0.3,0.5 0.6,0.7 1.1,0.1 1.5,-0.3 1.4,-0.7 0.9,-0.8 0.3,-0.8 -0.1,-0.9 -0.2,-0.3 -0.6,-0.7 -0.8,-0.2 -1,0.1 -0.2,0.1 -0.7,0.7 -0.3,0.8 0.1,0.9 0.2,0.3 0.6,0.7 0.8,0.2 1,-0.1 m 76.4,-80 -0.2,-0.6 -0.9,-0.9 6.3,0.1 m -6.5,-4.4 4.1,3.1 0.1,-4.5 m -4.2,1.4 6.3,0.1 m -166.8,108.8 -0.8,-0.5 -0.7,0.1 -0.4,0.4 -0.3,0.7 0.2,0.6 0.5,1.1 0.4,0.9 -0.1,0.8 -0.2,0.7 -0.7,0.5 -0.7,0.2 h -0.4 l -0.8,-0.5 -0.8,-0.9 -0.3,-0.9 v -0.4 l 0.2,-0.6 0.7,-0.6 0.7,-0.2 0.8,0.1 0.8,0.5 1,0.7 0.7,0.2 0.6,-0.1 0.5,-0.4 0.2,-0.7 -0.3,-0.8 -0.9,-1.1 m 3.8,4.4 -0.8,-0.4 -1.1,0.1 -1.3,0.7 -0.7,0.6 -1,1.2 -0.2,1.1 0.3,0.9 0.4,0.4 0.8,0.5 1.1,-0.1 1.3,-0.8 0.7,-0.6 0.9,-1.2 0.3,-1 -0.3,-0.9 -0.3,-0.4 m 48.6,-117 0.3,0.5 1,0.9 -6.3,0.3 m 6.6,2.6 -0.3,-0.8 -0.9,-0.6 -1.5,-0.2 h -0.9 l -1.5,0.4 -0.9,0.6 -0.3,0.9 0.1,0.6 0.3,0.9 0.9,0.6 1.6,0.2 h 0.9 l 1.4,-0.4 0.9,-0.6 0.3,-1 -0.1,-0.4 m 0.4,6.5 -4.3,-2.8 0.2,4.5 m 4.1,-1.7 -6.3,0.3 m 76.7,18 3.1,1.1 -2.5,1.7 0.8,0.3 0.5,0.5 0.2,0.3 v 1 l -0.2,0.6 -0.6,0.7 -0.8,0.4 h -0.9 l -0.9,-0.3 -0.7,-0.6 -0.2,-0.4 -0.1,-0.7 m 9.7,-2 -4.2,2.9 4.2,1.5 m 0,-4.4 -2.1,5.9 m -158.7,2.9 -0.3,-0.9 -0.6,-0.3 h -0.6 l -0.6,0.3 -0.3,0.6 -0.4,1.2 -0.3,0.9 -0.6,0.5 -0.6,0.3 h -0.9 l -0.6,-0.3 -0.3,-0.3 -0.3,-0.9 0.1,-1.2 0.3,-0.9 0.3,-0.3 0.6,-0.3 h 0.9 l 0.6,0.3 0.6,0.7 0.2,0.9 0.3,1.2 0.3,0.6 0.6,0.3 h 0.6 l 0.6,-0.3 0.3,-0.9 0.1,-1.3 m -0.2,7.6 v -3 l -2.6,-0.4 0.2,0.3 0.3,0.9 v 0.9 l -0.3,0.9 -0.6,0.6 -0.9,0.3 h -0.6 l -0.9,-0.4 -0.6,-0.6 -0.3,-0.9 v -0.9 l 0.3,-0.9 0.4,-0.3 0.6,-0.3 m 42.7,-9 h -0.7 l -1.2,0.5 2.7,-5.8 m -5.4,4.7 0.9,0.1 0.9,-0.5 1,-1.3 0.3,-0.8 0.4,-1.5 -0.2,-1.1 -0.7,-0.6 -0.5,-0.3 -1,-0.1 -0.9,0.6 -0.9,1.2 -0.4,0.9 -0.3,1.4 0.1,1.1 0.7,0.7 0.4,0.2 m -6.3,-3 2.7,1.3 1.4,-2.3 -0.4,0.1 -0.9,-0.1 -0.8,-0.4 -0.7,-0.6 -0.3,-0.8 0.1,-1 0.3,-0.5 0.6,-0.7 0.8,-0.3 1,0.1 0.8,0.4 0.7,0.6 0.1,0.4 v 0.7 m 81.3,3.3 -2.8,1.1 0.6,2.6 0.2,-0.4 0.7,-0.6 0.9,-0.3 0.9,-0.1 0.8,0.4 0.6,0.7 0.2,0.6 0.1,0.9 -0.4,0.8 -0.7,0.6 -0.9,0.3 -0.9,0.1 -0.4,-0.2 -0.5,-0.5 m 3.6,-5.3 0.5,-0.5 0.5,-1.1 2.2,5.9 m 45,-38.1 -1.7,2.9 -1.2,-2.7 -0.4,0.7 -0.6,0.4 -0.4,0.1 -0.9,-0.1 -0.5,-0.3 -0.7,-0.7 -0.2,-0.9 0.2,-0.9 0.4,-0.8 0.7,-0.6 0.4,-0.1 h 0.7 m -0.7,9.9 h 0.7 l 0.7,-0.6 0.3,-0.6 0.1,-0.9 -0.5,-1 -1.1,-1 -1.3,-0.7 -1.2,-0.3 -0.8,0.2 -0.7,0.7 -0.2,0.2 -0.2,1 0.3,0.8 0.6,0.7 0.3,0.1 0.9,0.2 0.8,-0.2 0.7,-0.7 0.2,-0.2 0.1,-1 -0.2,-0.8 -0.6,-0.7 m -70.1,-27.3 0.3,-1 0.5,-0.6 0.9,-0.3 h 0.3 l 0.9,0.2 0.7,0.6 0.3,0.9 v 0.3 l -0.2,0.9 -0.6,0.6 -0.9,0.3 -0.3,0.1 -0.9,-0.3 -0.6,-0.6 -0.4,-1.1 -0.1,-1.5 0.3,-1.6 0.5,-0.9 0.9,-0.3 0.6,-0.1 0.9,0.3 0.3,0.6 m -5.9,5.7 0.9,-0.4 0.2,-0.6 v -0.6 l -0.3,-0.6 -0.6,-0.2 -1.3,-0.3 -0.9,-0.2 -0.6,-0.6 -0.3,-0.6 -0.1,-0.9 0.3,-0.6 0.3,-0.3 0.9,-0.3 1.2,-0.1 0.9,0.3 0.3,0.2 0.3,0.6 0.1,0.9 -0.3,0.6 -0.6,0.7 -0.9,0.3 -1.1,0.4 -0.6,0.3 -0.3,0.6 v 0.6 l 0.4,0.6 0.9,0.3 1.3,-0.1 m 27.2,29.8 5.2,0.5 -2.3,-3.9 m -2.9,3.4 5.4,-3.2 m -8.7,-2.6 6.9,-0.6 m -4.8,4.2 -2.1,-3.6 m 48.3,-62.6 -5.1,0.7 3,3.3 m 2.1,-4 -4.7,4.3 m 5.7,-0.9 0.2,-0.2 0.6,-0.2 0.5,0.1 0.6,0.2 0.8,0.9 0.2,0.6 v 0.5 l -0.3,0.6 -0.4,0.4 -0.7,0.2 -1,0.1 -4.3,-0.1 2.9,3.1 m 2.4,-38.2 -0.8,-5.1 -3.2,3.2 m 4,1.9 -4.4,-4.4 m -1.7,7.5 -0.4,-0.8 v -0.9 l 0.4,-0.8 0.2,-0.2 0.8,-0.4 h 0.9 l 0.8,0.4 0.3,0.2 0.4,0.8 v 0.9 l -0.4,0.8 -0.3,0.3 -0.8,0.4 h -0.9 l -1,-0.7 -1.1,-1 -0.8,-1.3 -0.2,-1 0.4,-0.9 0.4,-0.4 0.9,-0.4 0.6,0.2 m 39.2,-8.8 -0.3,-0.6 -0.8,-0.9 6.3,0.1 m -6.5,-4.8 v 3 l 2.7,0.3 -0.3,-0.3 -0.3,-0.9 v -0.9 l 0.3,-0.9 0.6,-0.6 1,-0.3 0.6,0.1 0.8,0.3 0.6,0.6 0.3,0.9 v 0.9 l -0.3,0.9 -0.3,0.3 -0.6,0.3 m -42.4,-41.9 2.1,2.5 -3,0.2 0.6,0.7 0.2,0.7 -0.1,0.4 -0.4,0.8 -0.5,0.4 -0.9,0.4 -0.8,-0.1 -0.8,-0.5 -0.6,-0.7 -0.4,-0.8 v -0.5 l 0.3,-0.6 m 9.7,3.4 -2,-2.2 -2.2,1.5 h 0.4 l 0.8,0.5 0.6,0.7 0.4,0.9 -0.1,0.8 -0.5,0.8 -0.4,0.4 -0.9,0.4 -0.8,-0.1 -0.8,-0.4 -0.6,-0.7 -0.4,-0.9 v -0.4 l 0.3,-0.6 m 0.4,-83.7 2.1,-2.1 -1.6,-2.2 v 0.5 l -0.5,0.8 -0.6,0.6 -0.9,0.4 h -0.8 l -0.9,-0.4 -0.4,-0.4 -0.4,-0.9 V 313 l 0.5,-0.9 0.6,-0.6 0.9,-0.4 h 0.4 l 0.6,0.2 m -0.7,7.8 -2.4,2.3 -0.3,-3 -0.7,0.6 -0.6,0.2 h -0.5 l -0.8,-0.4 -0.4,-0.4 -0.4,-0.9 v -0.8 l 0.4,-0.9 0.7,-0.6 0.8,-0.4 h 0.5 l 0.6,0.2 m 31.2,15.5 0.9,-0.1 0.8,0.3 0.7,0.7 0.1,0.3 0.1,0.9 -0.3,0.8 -0.7,0.7 -0.3,0.1 -0.9,0.1 -0.8,-0.3 -0.7,-0.7 -0.1,-0.3 -0.1,-0.9 0.3,-0.8 1,-0.8 1.4,-0.6 1.5,-0.3 1,0.2 0.7,0.7 0.2,0.5 0.1,0.9 -0.4,0.6 m -8.2,-5 5,1 -1.8,-4.1 m -3.2,3.1 5.7,-2.6 m -112,19.2 -0.8,-0.4 -0.6,-0.7 -0.1,-0.9 v -0.3 l 0.4,-0.9 0.7,-0.5 0.9,-0.2 0.3,0.1 0.9,0.4 0.5,0.7 0.2,0.9 -0.1,0.3 -0.4,0.8 -0.7,0.6 -1.2,0.1 -1.5,-0.2 -1.4,-0.5 -0.8,-0.7 -0.2,-0.9 0.1,-0.6 0.4,-0.9 0.6,-0.2 m 2.2,9 -0.9,-0.4 -0.5,-0.7 -0.2,-0.9 v -0.3 l 0.5,-0.9 0.6,-0.5 1,-0.2 0.3,0.1 0.8,0.4 0.5,0.7 0.2,0.9 v 0.3 l -0.4,0.8 -0.7,0.6 -1.2,0.1 -1.5,-0.2 -1.5,-0.5 -0.8,-0.7 -0.2,-0.9 0.1,-0.6 0.4,-0.9 0.7,-0.2 m 27.8,-17 2.6,1.3 1.6,-2.2 -0.4,0.1 -1,-0.1 -0.8,-0.4 -0.6,-0.7 -0.3,-0.8 0.2,-1 0.2,-0.5 0.7,-0.7 0.8,-0.2 1,0.1 0.8,0.5 0.6,0.6 0.2,0.4 -0.1,0.7 m -9.9,0.6 4.6,-2.3 -4,-2.1 m -0.6,4.4 2.9,-5.5 m -10,79.5 0.6,0.3 h 1.3 l -4.7,4.3 m 6.8,-2.2 -0.8,-0.5 -1.1,0.2 -1.3,0.8 -0.6,0.6 -1,1.2 -0.2,1 0.4,0.9 0.4,0.5 0.8,0.4 1.1,-0.1 1.3,-0.8 0.6,-0.6 0.9,-1.2 0.3,-1.1 -0.4,-0.9 -0.3,-0.3 m 3.5,3.9 -0.8,-0.5 -1.1,0.2 -1.3,0.7 -0.7,0.6 -0.9,1.3 -0.2,1 0.3,0.9 0.4,0.4 0.9,0.5 1,-0.2 1.3,-0.7 0.7,-0.6 0.9,-1.3 0.3,-1 -0.4,-0.9 -0.3,-0.3 m 19.6,-0.5 -1.3,2.8 2.4,1.4 -0.2,-0.4 0.1,-1 0.4,-0.8 0.6,-0.7 0.8,-0.3 1,0.1 0.5,0.3 0.7,0.6 0.3,0.8 -0.1,0.9 -0.4,0.9 -0.6,0.7 -0.4,0.1 h -0.7 m -0.9,-10.2 -1.3,2.7 2.4,1.4 -0.2,-0.4 0.1,-0.9 0.4,-0.9 0.6,-0.7 0.8,-0.3 1,0.1 0.5,0.3 0.7,0.6 0.3,0.8 -0.1,1 -0.4,0.8 -0.6,0.7 -0.4,0.1 -0.7,0.1 M 1101.4,138 l 0.1,0.7 0.7,1.1 -6.1,-1.6 m 83,2.2 -0.7,0.1 -0.5,0.7 -0.2,0.6 v 1 l 0.7,0.8 1.3,0.8 1.4,0.4 1.3,0.1 0.7,-0.4 0.6,-0.8 0.1,-0.2 v -1 l -0.4,-0.7 -0.8,-0.6 -0.3,-0.1 h -0.9 l -0.8,0.4 -0.5,0.8 -0.1,0.3 v 0.9 l 0.4,0.8 0.7,0.5 m -1.2,77.4 -0.6,-0.3 -1.2,-0.3 5.3,-3.3 m -6.9,1.2 0.7,0.6 0.7,-0.1 0.5,-0.3 0.4,-0.6 -0.1,-0.6 -0.4,-1.2 -0.2,-0.9 0.2,-0.9 0.3,-0.5 0.8,-0.5 0.7,-0.1 0.4,0.1 0.7,0.6 0.6,1 0.3,1 -0.1,0.4 -0.4,0.5 -0.7,0.5 -0.7,0.1 -0.8,-0.2 -0.8,-0.6 -0.9,-0.9 -0.5,-0.3 h -0.7 l -0.5,0.4 -0.4,0.5 0.3,1 0.7,1.1 m -52.2,-180.3 -0.2,-0.9 -0.8,-0.7 -1.5,-0.6 -0.8,-0.1 -1.6,0.1 -1,0.5 -0.4,0.8 -0.1,0.6 0.2,0.9 0.8,0.8 1.5,0.5 0.8,0.1 1.6,-0.1 0.9,-0.4 0.5,-0.9 v -0.4 m -13.5,200.1 0.3,-0.2 0.6,-0.1 h 0.5 l 0.6,0.3 0.7,1 0.1,0.6 -0.1,0.5 -0.2,0.6 -0.5,0.3 -0.7,0.1 -1.1,0.1 -4.2,-0.6 2.6,3.4 m 54.2,-208.8 0.7,-0.7 0.8,-0.3 0.9,0.2 0.3,0.1 0.6,0.6 0.3,0.9 -0.1,0.9 -0.1,0.3 -0.7,0.6 -0.8,0.3 -0.9,-0.1 -0.3,-0.1 -0.7,-0.7 -0.3,-0.8 0.3,-1.2 0.7,-1.4 0.9,-1.2 0.9,-0.5 1,0.1 0.5,0.3 0.7,0.6 v 0.7 m -6,1.5 h -0.6 l -1.2,0.5 2.7,-5.7 m 35.6,42.9 -0.2,-0.6 -0.7,-1.1 6.2,1.3 m -4.8,-2.1 -0.1,-0.7 -0.7,-1 6.1,1.3 m 9.6,185.7 -0.2,0.3 -0.6,0.3 h -0.4 l -0.7,-0.1 -0.9,-0.6 -0.4,-0.6 v -0.5 l 0.1,-0.6 0.3,-0.5 0.6,-0.3 1,-0.4 4.2,-0.7 -3.4,-2.5 m -6.1,3.5 0.9,0.3 1,-0.4 1.1,-1.1 0.6,-0.7 0.6,-1.4 v -1.1 l -0.6,-0.8 -0.4,-0.3 -1,-0.3 -1,0.4 -1.1,1.1 -0.5,0.7 -0.6,1.4 v 1.1 l 0.5,0.8 0.4,0.2 m -73.5,49.1 -0.7,-0.7 -0.3,-0.8 0.1,-0.9 0.1,-0.3 0.7,-0.7 0.8,-0.3 0.9,0.1 0.3,0.1 0.7,0.7 0.3,0.8 -0.1,0.9 -0.2,0.3 -0.6,0.7 -0.8,0.3 -1.2,-0.2 -1.4,-0.7 -1.2,-0.9 -0.6,-0.9 0.1,-1 0.3,-0.5 0.6,-0.7 h 0.7 m 1.3,6.4 0.3,0.1 0.4,0.6 0.1,0.4 0.1,0.6 -0.6,1.1 -0.5,0.4 -0.4,0.2 h -0.7 l -0.5,-0.3 -0.4,-0.5 -0.6,-0.9 -1.4,-4 -1.8,3.8 m 122.5,-22 0.8,-0.5 0.9,-0.1 0.8,0.3 0.3,0.2 0.5,0.8 0.1,0.8 -0.4,0.9 -0.2,0.3 -0.8,0.5 -0.8,0.1 -0.9,-0.4 -0.2,-0.2 -0.5,-0.8 -0.1,-0.8 0.5,-1.1 1,-1.2 1.1,-1 1.1,-0.3 0.9,0.4 0.4,0.3 0.5,0.8 -0.1,0.7 m -7.6,0.8 -2.5,-2.1 2.9,-0.7 -0.7,-0.6 -0.3,-0.6 V 281 l 0.3,-0.9 0.4,-0.5 0.8,-0.5 0.9,-0.1 0.8,0.4 0.7,0.5 0.5,0.8 0.1,0.5 -0.2,0.6 m 6.6,36.3 0.6,0.7 0.2,0.8 -0.1,0.9 -0.2,0.3 -0.7,0.6 -0.8,0.3 -0.9,-0.2 -0.3,-0.1 -0.6,-0.7 -0.3,-0.9 0.2,-0.9 0.2,-0.3 0.7,-0.6 0.8,-0.2 1.2,0.3 1.3,0.7 1.1,1 0.5,1 -0.1,0.9 -0.3,0.5 -0.7,0.7 -0.7,-0.1 m -0.7,-9.9 -1.4,2.7 2.2,1.5 -0.1,-0.4 0.1,-0.9 0.5,-0.8 0.7,-0.6 0.8,-0.3 0.9,0.2 0.6,0.3 0.6,0.7 0.2,0.8 -0.1,1 -0.5,0.7 -0.7,0.7 -0.4,0.1 h -0.7 m -135.7,29.2 -0.9,-0.3 -0.6,-0.6 -0.2,-0.9 v -0.3 l 0.3,-0.9 0.6,-0.6 0.9,-0.3 h 0.3 l 0.9,0.3 0.6,0.6 0.3,0.9 v 0.3 l -0.4,0.9 -0.6,0.6 -1.2,0.3 h -1.5 l -1.5,-0.3 -0.9,-0.6 -0.2,-1 v -0.6 l 0.3,-0.8 0.6,-0.3 m 4.4,8.4 0.6,-0.3 0.3,-0.9 v -0.6 l -0.3,-0.9 -0.9,-0.6 -1.5,-0.4 h -1.5 l -1.2,0.3 -0.6,0.6 -0.3,0.9 v 0.3 l 0.3,0.9 0.6,0.6 0.9,0.3 h 0.3 l 0.9,-0.3 0.6,-0.6 0.3,-0.9 v -0.3 l -0.3,-0.9 -0.6,-0.6 -0.9,-0.3 m 126,29.7 0.9,0.2 0.6,0.5 0.4,0.9 0.1,0.3 -0.2,0.9 -0.6,0.7 -0.8,0.4 h -0.3 l -1,-0.2 -0.6,-0.5 -0.4,-0.9 v -0.3 l 0.2,-0.9 0.5,-0.7 1.2,-0.4 1.4,-0.2 1.6,0.2 0.9,0.5 0.4,0.8 0.1,0.6 -0.2,1 -0.6,0.3 m -6.3,-8.2 6.6,2.4 m -6.1,1.8 -0.5,-4.2 m -118.9,25.3 0.4,0.5 0.9,0.8 -6.2,0.6 m 6.7,2.4 -0.4,-0.9 -0.9,-0.5 -1.5,-0.2 -0.9,0.1 -1.5,0.4 -0.8,0.7 -0.3,0.9 0.1,0.6 0.4,0.9 0.9,0.5 1.6,0.2 0.8,-0.1 1.5,-0.4 0.9,-0.7 0.2,-0.9 -0.1,-0.5 m -1.1,3.4 0.4,0.6 1,0.8 -6.3,0.6 m 117.6,44.2 -0.1,-0.7 -0.7,-1.1 6.1,1.6 m -5.5,-4.5 v 1 l 0.8,0.8 1.3,0.6 0.9,0.3 1.5,0.1 1.1,-0.4 0.5,-0.8 0.1,-0.6 v -0.9 l -0.8,-0.8 -1.3,-0.7 -0.9,-0.2 -1.5,-0.1 -1.1,0.3 -0.5,0.8 -0.1,0.5 m 2.4,-3.4 -0.2,-0.1 -0.5,-0.5 -0.3,-0.3 -0.1,-0.7 0.3,-1.1 0.4,-0.5 0.4,-0.3 0.7,-0.1 0.5,0.2 0.6,0.4 0.7,0.8 2.1,3.7 1.1,-4.1 m -112.4,0.4 0.6,0.4 1.2,0.3 -5.4,3.2 m 7.1,-0.7 -0.7,-0.7 h -1.1 l -1.5,0.5 -0.7,0.4 -1.2,1 -0.5,1 0.2,0.9 0.3,0.5 0.7,0.7 h 1.1 l 1.5,-0.5 0.8,-0.4 1.1,-1 0.5,-1 -0.2,-0.9 -0.2,-0.4 m 2,3.4 1.6,2.9 -3,-0.4 0.5,0.8 v 0.7 l -0.1,0.4 -0.6,0.7 -0.5,0.3 -1,0.2 -0.8,-0.2 -0.7,-0.6 -0.4,-0.8 -0.2,-0.9 0.1,-0.5 0.3,-0.5 m 81.1,41.6 -0.6,-0.3 -0.9,0.4 -0.4,0.4 -0.5,0.8 0.1,1.1 0.7,1.3 1,1.2 1,0.7 0.8,0.1 0.9,-0.4 0.2,-0.2 0.5,-0.8 0.1,-0.8 -0.3,-0.9 -0.2,-0.2 -0.8,-0.5 -0.9,-0.1 -0.9,0.3 -0.2,0.2 -0.5,0.8 -0.1,0.9 0.4,0.9 m 4.3,-9.1 1.7,6.8 m -4.9,-4.1 3.2,-2.7 m -97.1,25 -3.7,-5.9 m 6,2.4 -2.3,3.5 m -1.7,0.1 -0.1,0.7 0.3,1.3 -5.3,-3.4 m 70.6,18.6 4.2,5.5 m -6.1,-1.8 1.9,-3.7 m 1.2,-2.4 -0.1,0.9 0.4,0.6 0.5,0.3 h 0.7 l 0.5,-0.4 0.8,-1 0.7,-0.6 0.8,-0.3 h 0.7 l 0.8,0.5 0.4,0.5 0.1,0.4 -0.1,0.9 -0.6,1.1 -0.7,0.7 -0.4,0.1 h -0.6 l -0.8,-0.4 -0.4,-0.6 -0.3,-0.8 0.2,-0.9 0.2,-1.2 v -0.7 l -0.3,-0.5 -0.6,-0.3 h -0.6 l -0.7,0.6 -0.7,1.2 m -69.2,83.7 -0.6,-0.8 -0.7,-0.1 -0.5,0.2 -0.5,0.5 -0.1,0.7 0.1,1.2 v 1 l -0.3,0.7 -0.5,0.5 -0.9,0.3 -0.6,-0.1 -0.4,-0.2 -0.6,-0.7 -0.4,-1.2 v -0.9 l 0.2,-0.4 0.5,-0.5 0.8,-0.3 0.7,0.1 0.8,0.4 0.5,0.7 0.7,1.1 0.5,0.5 h 0.6 l 0.6,-0.1 0.5,-0.5 v -1 l -0.5,-1.2 m 1.5,4.3 1.1,3.1 -2.9,-0.9 0.3,0.8 -0.1,0.7 -0.2,0.4 -0.7,0.6 -0.6,0.1 -0.9,0.1 -0.8,-0.4 -0.6,-0.8 -0.3,-0.8 v -1 l 0.2,-0.4 0.5,-0.4 m 82.2,-9.4 h 0.9 l 0.8,0.3 0.6,0.7 0.1,0.3 0.1,0.9 -0.3,0.8 -0.7,0.6 -0.3,0.1 -1,0.1 -0.7,-0.3 -0.7,-0.7 -0.1,-0.3 v -1 l 0.3,-0.7 1,-0.8 1.4,-0.6 1.5,-0.2 1,0.2 0.6,0.7 0.3,0.5 v 1 l -0.4,0.5 m -7.5,-4 0.6,0.7 1.1,0.2 1.5,-0.3 0.8,-0.3 1.3,-0.9 0.6,-0.9 -0.1,-0.9 -0.2,-0.6 -0.6,-0.7 -1.1,-0.2 -1.5,0.3 -0.8,0.4 -1.3,0.8 -0.6,0.9 0.1,0.9 0.1,0.5 m -45.3,103.2 -0.5,-0.8 -0.6,-0.2 -0.6,0.2 -0.5,0.4 -0.2,0.6 v 1.3 l -0.1,0.9 -0.5,0.7 -0.5,0.5 -0.9,0.2 -0.6,-0.2 -0.4,-0.2 -0.5,-0.8 -0.2,-1.2 0.1,-0.9 0.2,-0.4 0.5,-0.4 0.9,-0.2 0.6,0.1 0.7,0.5 0.5,0.8 0.6,1.1 0.4,0.5 0.7,0.2 0.6,-0.2 0.5,-0.4 0.1,-0.9 -0.3,-1.3 m 1.6,6.9 -4.7,-2 1,4.4 m 3.7,-2.4 -6.1,1.4 m 77.8,-38.7 0.6,0.8 0.6,0.1 0.6,-0.2 0.5,-0.4 0.1,-0.7 -0.1,-1.2 v -1 l 0.4,-0.7 0.5,-0.5 0.9,-0.3 0.6,0.1 0.4,0.2 0.6,0.8 0.3,1.1 v 1 l -0.2,0.3 -0.5,0.5 -0.8,0.3 -0.7,-0.1 -0.7,-0.4 -0.6,-0.8 -0.7,-1 -0.4,-0.5 -0.7,-0.1 -0.6,0.2 -0.4,0.4 v 1 l 0.4,1.3 m -0.4,-8.2 h 0.9 l 0.8,0.4 0.5,0.8 0.1,0.3 v 0.9 l -0.4,0.8 -0.8,0.5 -0.2,0.1 h -1 l -0.7,-0.4 -0.6,-0.7 -0.1,-0.3 v -1 l 0.4,-0.7 1.1,-0.7 1.4,-0.4 1.5,-0.2 1,0.3 0.6,0.7 0.2,0.6 v 1 l -0.5,0.4 m -43.3,43 0.4,-0.6 0.3,-1.2 3.2,5.4 m -0.8,-7.1 -0.6,0.7 -0.1,1.1 0.5,1.4 0.5,0.8 1,1.1 1,0.5 0.9,-0.2 0.5,-0.3 0.6,-0.7 0.1,-1.1 -0.5,-1.4 -0.5,-0.8 -1,-1.2 -1,-0.4 -0.9,0.2 -0.4,0.2 m 6.4,-3.8 0.7,7 m -4.3,-4.9 3.6,-2.1 m 264.8,-547.2 0.5,0.5 1,0.7 -6.1,1.4 m 5.3,0.5 0.3,-0.1 0.6,0.2 0.4,0.2 0.4,0.5 0.3,1.2 -0.2,0.6 -0.2,0.4 -0.5,0.4 -0.6,0.1 -0.6,-0.1 -1,-0.4 -3.7,-2.2 1,4.1 m 7.2,2.7 -4.8,-2 1.1,4.4 m 3.7,-2.4 -6.1,1.4 m 79.3,-31.5 -0.1,-0.7 -0.7,-1.1 6.1,1.6 m -4.7,-2.3 -0.1,-0.7 -0.7,-1.1 6.2,1.6 m -4.7,-2.3 -0.2,-0.7 -0.6,-1 6.1,1.5 m -30.7,51.5 0.2,-0.7 -0.2,-1.3 5,4 m -3.3,-6.4 -0.3,0.9 0.3,1 1,1.2 0.7,0.5 1.4,0.7 1,0.1 0.8,-0.5 0.4,-0.5 0.3,-0.8 -0.3,-1.1 -1,-1.1 -0.7,-0.6 -1.4,-0.7 -1,-0.1 -0.8,0.5 -0.3,0.4 m 3,-3.9 -0.3,0.9 0.3,0.6 0.5,0.4 0.6,0.2 0.6,-0.3 1,-0.8 0.8,-0.5 0.8,-0.1 0.7,0.1 0.7,0.6 0.3,0.6 v 0.4 l -0.3,0.9 -0.7,1 -0.8,0.5 h -0.5 l -0.6,-0.1 -0.7,-0.6 -0.3,-0.6 -0.1,-0.8 0.3,-0.9 0.5,-1.1 0.2,-0.7 -0.3,-0.6 -0.5,-0.4 -0.6,-0.1 -0.8,0.5 -0.9,1.1 m -64.2,46.5 v 0.7 l 0.4,1.2 -5.7,-2.7 m 5.2,4.4 -1.4,3 -1.4,-2.7 -0.4,0.8 -0.5,0.4 -0.4,0.2 -1,-0.1 -0.5,-0.3 -0.7,-0.6 -0.3,-0.8 0.1,-1 0.4,-0.8 0.7,-0.7 0.4,-0.1 h 0.6 m 27.3,-146.1 -2.2,2.5 -0.6,-3 -0.6,0.7 -0.6,0.2 h -0.4 l -0.9,-0.4 -0.4,-0.4 -0.5,-0.8 v -0.9 l 0.4,-0.8 0.6,-0.7 0.8,-0.4 0.4,-0.1 0.7,0.2 m 38.7,173.4 -0.4,-0.5 -1.1,-0.6 6.1,-1.6 m -5.2,0.2 -0.4,-0.5 -1.1,-0.6 6.1,-1.6 m -7.1,-1.2 0.5,0.8 1,0.3 1.6,-0.1 0.8,-0.2 1.4,-0.7 0.7,-0.8 0.1,-0.9 -0.1,-0.6 -0.6,-0.8 -1,-0.3 h -1.5 l -0.9,0.3 -1.4,0.6 -0.7,0.8 v 1 l 0.1,0.4 m 41.7,-150.1 -0.1,-0.7 -0.5,-1.1 5.9,2 m -4.5,-2.7 -0.1,-0.6 -0.5,-1.2 5.9,2 m -5.6,-3.7 1.1,-3.1 1.7,2.5 0.3,-0.9 0.4,-0.5 0.4,-0.2 h 1 l 0.5,0.2 0.8,0.6 0.4,0.8 v 0.9 l -0.3,0.9 -0.6,0.7 -0.4,0.2 -0.6,0.1 m -41.6,-40.5 -0.1,-1 0.4,-0.8 0.7,-0.6 0.3,-0.1 0.9,-0.1 0.8,0.4 0.6,0.7 0.1,0.3 0.1,0.9 -0.3,0.8 -0.7,0.6 -0.3,0.1 -1,0.1 -0.8,-0.3 -0.7,-1 -0.6,-1.4 -0.3,-1.5 0.2,-1.1 0.8,-0.6 0.5,-0.2 1,-0.1 0.5,0.4 m -3.4,5.7 0.1,0.2 v 0.7 l -0.2,0.4 -0.4,0.5 -1.1,0.5 -0.7,-0.1 -0.4,-0.1 -0.5,-0.5 -0.2,-0.5 v -0.7 l 0.2,-1.1 1.6,-3.9 -3.8,1.6 m 51.1,-17.1 -0.1,-0.9 0.4,-0.8 0.7,-0.6 0.2,-0.1 1,-0.1 0.8,0.3 0.6,0.7 0.1,0.3 0.1,0.9 -0.3,0.8 -0.7,0.6 -0.3,0.2 h -0.9 l -0.8,-0.3 -0.8,-1 -0.6,-1.3 -0.3,-1.5 0.2,-1.1 0.7,-0.6 0.6,-0.3 0.9,-0.1 0.5,0.5 m -5.9,7.4 0.5,0.4 h 1 l 0.5,-0.3 0.7,-0.6 0.2,-1.1 -0.3,-1.5 -0.6,-1.3 -0.7,-1 -0.8,-0.3 h -0.9 l -0.3,0.2 -0.7,0.6 -0.3,0.8 v 0.9 l 0.2,0.3 0.6,0.7 0.8,0.3 0.9,-0.1 0.3,-0.1 0.7,-0.6 0.3,-0.8 -0.1,-0.9 m 8.9,16.5 -0.2,-0.7 -0.6,-1.1 6.1,1.7 m -4.6,-2.4 -0.2,-0.7 -0.6,-1.1 6.1,1.8 m -5.2,-6 3.3,4.1 1.2,-4.4 m -4.5,0.3 6.1,1.8 m -124.3,249.2 0.5,0.5 1.1,0.5 -5.9,2.1 m 5.3,-0.1 0.2,-0.1 0.7,0.1 0.4,0.2 0.5,0.5 0.4,1.1 -0.1,0.7 -0.2,0.4 -0.5,0.4 -0.5,0.2 -0.7,-0.1 -1,-0.2 -3.9,-1.9 1.4,4 m 85.5,11.8 -0.5,-0.4 -1.2,-0.5 5.8,-2.5 m -7.2,-0.1 0.7,0.7 1,0.2 1.5,-0.3 0.9,-0.4 1.2,-0.9 0.6,-0.9 -0.1,-0.9 -0.2,-0.6 -0.7,-0.7 -1,-0.2 -1.5,0.4 -0.8,0.3 -1.3,0.9 -0.6,0.9 0.1,0.9 0.2,0.5 m -1,-7.6 0.9,-0.1 0.8,0.4 0.7,0.7 0.1,0.2 0.1,1 -0.3,0.8 -0.7,0.6 -0.3,0.1 -1,0.1 -0.8,-0.3 -0.6,-0.7 -0.1,-0.3 -0.1,-0.9 0.3,-0.8 1,-0.8 1.4,-0.6 1.5,-0.3 1,0.2 0.7,0.7 0.2,0.5 0.1,1 -0.4,0.5 m -67.3,42.5 0.4,0.5 1.1,0.8 -6.2,1.1 m 7.3,3.9 -6.7,-1.8 m 5.9,-2.3 0.8,4.1 m 58.1,2.9 -0.1,-0.6 -0.6,-1.2 6,1.9 m -4.2,-3.1 -0.3,-0.1 -0.5,-0.4 -0.2,-0.4 -0.1,-0.7 0.4,-1.1 0.4,-0.5 0.4,-0.2 0.7,-0.1 0.5,0.2 0.5,0.5 0.7,0.8 1.9,3.8 1.3,-4 m -4.5,-6.4 -0.9,2.8 2.4,1.1 -0.2,-0.4 v -0.9 l 0.3,-0.9 0.6,-0.7 0.7,-0.4 h 1 l 0.5,0.1 0.8,0.6 0.4,0.8 v 0.9 l -0.3,0.9 -0.5,0.7 -0.4,0.2 -0.7,0.1 m -41.7,17.8 v -0.3 l 0.4,-0.5 0.4,-0.2 0.6,-0.2 1.2,0.2 0.5,0.4 0.3,0.3 0.2,0.7 -0.1,0.6 -0.4,0.5 -0.8,0.8 -3.5,2.4 4.2,0.8 m 5.7,-5.4 -2.9,-0.5 -0.8,2.6 0.4,-0.3 0.9,-0.1 0.9,0.2 0.8,0.4 0.5,0.7 0.1,1 -0.1,0.5 -0.4,0.9 -0.7,0.5 -1,0.1 -0.8,-0.2 -0.9,-0.4 -0.2,-0.4 -0.2,-0.6 m -87.4,-235.1 -0.4,0.9 -0.7,0.5 -1,0.1 h -0.3 l -0.8,-0.4 -0.5,-0.7 -0.2,-0.9 0.1,-0.3 0.4,-0.9 0.7,-0.5 0.9,-0.2 0.3,0.1 0.9,0.4 0.5,0.7 0.1,1.2 -0.2,1.5 -0.6,1.5 -0.7,0.8 -0.9,0.1 -0.6,-0.1 -0.9,-0.4 -0.2,-0.6 m 6,-12.7 -0.5,0.5 -0.6,1.2 -2,-6 m -0.7,7.1 0.7,-0.6 0.3,-1 -0.2,-1.6 -0.2,-0.8 -0.8,-1.3 -0.8,-0.7 h -1 l -0.6,0.2 -0.7,0.5 -0.3,1.1 0.2,1.5 0.2,0.9 0.8,1.3 0.8,0.7 h 1 l 0.4,-0.2 m 64.2,-78.5 0.2,-0.6 v -1.3 l 4.5,4.5 m -2.5,-6.7 -0.5,0.8 0.3,1.1 0.8,1.3 0.6,0.6 1.3,0.9 1.1,0.2 0.8,-0.4 0.4,-0.5 0.5,-0.8 -0.2,-1.1 -0.9,-1.3 -0.6,-0.6 -1.3,-0.8 -1.1,-0.3 -0.8,0.5 -0.3,0.3 m 3.3,-1.4 0.2,-0.6 V 39 l 4.5,4.5 m -5.5,-12.5 -0.6,0.2 -1,0.8 0.6,-6.2 m -1.6,5 -0.6,0.2 -1,0.8 0.6,-6.3 m -5.8,6 3.6,-6 m 0.6,6.4 -4.2,-0.4 m -29.2,49.9 0.2,-0.6 -0.1,-1.3 4.6,4.3 m -2.7,-6.6 -0.4,0.9 0.2,1 0.9,1.3 0.7,0.6 1.3,0.8 1,0.2 0.9,-0.5 0.4,-0.4 0.4,-0.9 -0.2,-1 -0.9,-1.3 -0.7,-0.6 -1.3,-0.8 -1,-0.2 -0.9,0.5 -0.3,0.3 m 2.7,-2.9 2.3,-2.4 0.5,3 0.6,-0.7 0.7,-0.2 h 0.4 l 0.9,0.4 0.4,0.4 0.4,0.8 0.1,0.9 -0.4,0.8 -0.7,0.7 -0.8,0.4 h -0.4 l -0.7,-0.1 m -20,-51.3 -0.6,0.3 -1,0.8 0.4,-6.3 m -1.4,5.1 -0.6,0.2 -0.9,0.9 0.3,-6.3 m -5.3,4.1 0.4,-0.8 0.6,-0.6 0.9,-0.3 0.3,0.1 0.9,0.3 0.6,0.6 0.2,0.9 v 0.3 l -0.3,0.9 -0.7,0.6 -0.9,0.2 h -0.3 l -0.9,-0.3 -0.5,-0.6 -0.3,-1.3 0.1,-1.5 0.4,-1.4 0.6,-0.9 0.9,-0.3 0.6,0.1 0.9,0.3 0.3,0.6 m -22.9,78.5 -0.5,6.9 m -3.4,-5.4 3.9,-1.5 m 2.1,0.8 -0.1,-0.3 v -0.7 l 0.2,-0.4 0.4,-0.5 1.2,-0.4 h 0.6 l 0.4,0.2 0.5,0.4 0.2,0.6 v 0.7 l -0.2,1 -1.7,3.9 3.9,-1.5 m -54.1,-2.2 -0.9,-0.1 -0.6,0.4 -0.2,0.5 v 0.7 l 0.4,0.5 1,0.8 0.6,0.7 0.3,0.8 v 0.6 l -0.4,0.9 -0.5,0.4 -0.4,0.1 -0.9,-0.1 -1.1,-0.5 -0.7,-0.7 -0.1,-0.4 -0.1,-0.7 0.4,-0.8 0.6,-0.4 0.8,-0.3 0.9,0.2 1.2,0.2 h 0.7 l 0.5,-0.4 0.3,-0.6 v -0.6 l -0.7,-0.7 -1.2,-0.6 m 3.4,3.3 0.1,-0.2 0.6,-0.5 0.4,-0.1 h 0.6 l 1.1,0.5 0.4,0.5 0.2,0.4 v 0.7 l -0.3,0.6 -0.5,0.4 -1,0.5 -4,1.4 3.8,1.8 m 21.1,-89.3 -0.7,0.2 -1,0.8 0.8,-6.3 m -2.3,4.8 v 0.3 l -0.4,0.5 -0.3,0.3 -0.7,0.2 -1.1,-0.1 -0.6,-0.4 -0.3,-0.3 -0.2,-0.7 0.1,-0.6 0.4,-0.5 0.7,-0.8 3.4,-2.6 -4.2,-0.6 m -2.6,6 -3.2,-0.4 2.1,-2.1 -0.9,-0.1 -0.6,-0.4 -0.2,-0.4 -0.2,-0.9 0.1,-0.6 0.4,-0.8 0.7,-0.6 0.9,-0.1 0.9,0.1 0.8,0.4 0.3,0.3 0.2,0.7 m -57,61 -0.9,-0.2 -0.5,0.3 -0.4,0.5 -0.1,0.6 0.3,0.6 0.8,1 0.6,0.7 0.2,0.9 -0.1,0.6 -0.5,0.8 -0.6,0.3 -0.5,0.1 -0.9,-0.3 -0.9,-0.7 -0.6,-0.8 -0.1,-0.4 0.1,-0.6 0.5,-0.8 0.6,-0.3 0.8,-0.2 1,0.3 1.1,0.5 0.7,0.1 0.6,-0.4 0.3,-0.5 0.1,-0.6 -0.6,-0.8 -1.1,-0.8 m 4.5,3.2 -0.9,-0.3 -0.6,0.3 -0.3,0.5 -0.1,0.7 0.3,0.6 0.8,0.9 0.6,0.8 0.2,0.8 -0.1,0.7 -0.6,0.7 -0.5,0.3 -0.5,0.1 -0.9,-0.3 -1,-0.6 -0.5,-0.8 -0.1,-0.4 0.1,-0.7 0.5,-0.7 0.6,-0.3 0.8,-0.2 0.9,0.3 1.2,0.4 0.7,0.1 0.6,-0.3 0.3,-0.5 0.1,-0.7 -0.6,-0.7 -1.1,-0.8 m -15.9,-32.9 -5.8,-3.8 m 6.4,-0.4 -0.6,4.2 m -0.5,4.3 -3.7,-3.6 -0.6,4.5 m 4.3,-0.9 -6.2,-0.8 m 31.8,-29.2 -0.5,0.5 -0.6,1.1 -1.8,-6 m 0.5,5.2 -0.5,0.5 -0.6,1.1 -1.9,-6 m -0.6,7 0.8,-0.6 0.1,-0.6 -0.2,-0.6 -0.4,-0.5 -0.7,-0.1 h -1.2 -1 l -0.7,-0.4 -0.5,-0.5 -0.3,-0.8 0.2,-0.7 0.2,-0.4 0.7,-0.5 1.2,-0.4 0.9,0.1 0.4,0.2 0.5,0.5 0.2,0.8 -0.1,0.7 -0.4,0.7 -0.8,0.6 -1,0.6 -0.5,0.5 -0.1,0.6 0.2,0.6 0.4,0.5 h 1 l 1.3,-0.4 m -62.7,84.2 -0.7,0.1 -1.1,0.5 2.4,-5.8 m -5.2,4.8 0.9,0.1 0.9,-0.6 0.9,-1.3 0.3,-0.8 0.3,-1.5 -0.2,-1.1 -0.7,-0.6 -0.5,-0.2 -1,-0.1 -0.9,0.6 -0.9,1.3 -0.3,0.8 -0.3,1.5 0.2,1.1 0.7,0.6 0.4,0.2 m -4.8,-2.1 1,0.1 0.9,-0.6 0.8,-1.3 0.4,-0.8 0.3,-1.5 -0.2,-1 -0.7,-0.7 -0.6,-0.2 -0.9,-0.1 -0.9,0.6 -0.9,1.3 -0.3,0.8 -0.3,1.5 0.2,1.1 0.7,0.6 0.4,0.2 m -22.7,21.5 0.3,0.7 0.8,0.9 -6.3,-0.5 m 6.3,3.5 -0.2,-0.9 -0.9,-0.7 -1.5,-0.4 -0.8,-0.1 -1.6,0.2 -0.9,0.5 -0.4,0.9 v 0.6 l 0.2,0.9 0.8,0.7 1.5,0.4 0.9,0.1 1.5,-0.2 1,-0.5 0.3,-0.9 0.1,-0.5 m -1.5,7 0.6,-0.3 0.4,-0.9 0.1,-0.6 -0.3,-0.9 -0.8,-0.7 -1.5,-0.4 -1.5,-0.1 -1.2,0.2 -0.6,0.5 -0.4,0.9 v 0.3 l 0.2,0.9 0.5,0.7 0.9,0.4 h 0.3 l 0.9,-0.2 0.7,-0.6 0.3,-0.9 0.1,-0.3 -0.3,-0.9 -0.5,-0.6 -0.9,-0.4 m 18.4,66 -0.7,-0.5 -0.7,0.1 -0.5,0.4 -0.3,0.6 0.2,0.6 0.5,1.2 0.3,0.8 -0.1,0.9 -0.3,0.6 -0.7,0.6 -0.7,0.1 -0.4,-0.1 -0.8,-0.5 -0.7,-0.9 -0.3,-0.9 v -0.5 l 0.3,-0.6 0.7,-0.5 0.7,-0.1 0.8,0.1 0.8,0.5 1,0.7 0.6,0.3 0.6,-0.1 0.5,-0.4 0.3,-0.6 -0.3,-0.9 -0.8,-1 m 1.2,3.9 0.7,0.3 1.2,0.2 -5,3.8 m 40.8,46.5 -0.8,-0.6 -0.6,0.1 -0.6,0.3 -0.3,0.6 0.1,0.6 0.3,1.2 0.2,1 -0.2,0.8 -0.3,0.5 -0.8,0.5 -0.6,0.1 -0.5,-0.1 -0.7,-0.6 -0.6,-1.1 -0.2,-0.9 0.1,-0.4 0.3,-0.6 0.8,-0.4 0.7,-0.1 0.8,0.2 0.7,0.6 0.9,0.9 0.6,0.3 h 0.6 l 0.5,-0.3 0.4,-0.6 -0.2,-0.9 -0.7,-1.2 m 3.2,7 0.3,-0.6 -0.2,-0.9 -0.3,-0.5 -0.7,-0.6 -1.1,-0.1 -1.4,0.5 -1.3,0.8 -0.9,0.9 -0.2,0.8 0.2,1 0.2,0.2 0.7,0.6 0.9,0.2 0.9,-0.2 0.2,-0.2 0.6,-0.7 0.2,-0.8 -0.2,-0.9 -0.1,-0.3 -0.8,-0.6 -0.8,-0.2 -0.9,0.2 m 45.1,4.5 0.4,-0.5 0.4,-1.2 2.8,5.6 m -0.2,-7.1 -0.7,0.6 -0.2,1.1 0.4,1.5 0.4,0.8 0.9,1.2 1,0.6 0.9,-0.2 0.6,-0.2 0.6,-0.7 0.2,-1.1 -0.4,-1.4 -0.4,-0.8 -0.9,-1.3 -1,-0.5 -0.9,0.1 -0.4,0.2 m 6.3,-3 -2.7,1.3 0.9,2.5 0.1,-0.4 0.7,-0.6 0.8,-0.4 1,-0.2 0.8,0.3 0.6,0.7 0.3,0.5 0.1,1 -0.3,0.8 -0.6,0.6 -0.9,0.4 -0.9,0.2 -0.4,-0.2 -0.5,-0.4 m 14.7,-35.4 -0.7,-0.2 -1.2,-0.1 4.6,-4.3 m -6.8,2.3 0.8,0.5 1.1,-0.2 1.3,-0.8 0.7,-0.6 0.8,-1.3 0.3,-1 -0.4,-0.9 -0.4,-0.4 -0.9,-0.5 -1,0.2 -1.3,0.8 -0.7,0.6 -0.9,1.3 -0.2,1 0.4,0.9 0.3,0.3 m -4.5,-4.7 5.1,-0.7 -3.1,-3.3 m -2,4 4.6,-4.3 m -27.6,-95.5 3,0.2 0.5,-2.7 -0.3,0.3 -0.9,0.2 h -0.9 l -0.9,-0.4 -0.6,-0.6 -0.2,-0.9 v -0.6 l 0.4,-0.9 0.6,-0.6 0.9,-0.2 h 0.9 l 0.9,0.4 0.3,0.3 0.2,0.6 m -7.4,4.7 0.9,-0.3 0.7,-0.8 0.4,-1.5 V 122 l -0.2,-1.5 -0.5,-1 -0.9,-0.3 -0.6,-0.1 -0.9,0.3 -0.7,0.8 -0.4,1.5 v 0.9 l 0.2,1.5 0.5,1 0.9,0.3 0.4,0.1 m 13.6,56.5 0.4,0.9 v 0.8 l -0.5,0.8 -0.2,0.2 -0.9,0.4 h -0.8 l -0.8,-0.4 -0.2,-0.3 -0.4,-0.8 v -0.9 l 0.4,-0.8 0.3,-0.2 0.8,-0.4 h 0.9 l 1,0.7 1,1.1 0.8,1.3 0.2,1.1 -0.4,0.8 -0.5,0.4 -0.8,0.4 -0.7,-0.2 m 0.9,-8.2 -0.4,0.8 0.1,0.6 0.5,0.5 0.6,0.2 0.6,-0.2 1.1,-0.6 0.9,-0.4 h 0.8 l 0.6,0.3 0.7,0.6 0.2,0.7 -0.1,0.4 -0.4,0.8 -0.9,0.9 -0.9,0.3 h -0.4 l -0.6,-0.2 -0.6,-0.7 -0.2,-0.6 v -0.8 l 0.5,-0.9 0.6,-1 0.3,-0.6 -0.2,-0.7 -0.4,-0.4 -0.7,-0.3 -0.8,0.4 -1,1 m 6.4,-28.6 4.2,3.1 v -4.5 m -4.2,1.4 6.3,0.1 m -6.2,-3.3 0.1,-3.3 2.4,1.8 v -0.9 l 0.3,-0.6 0.3,-0.2 0.9,-0.3 h 0.6 l 0.9,0.3 0.6,0.6 0.3,0.9 v 0.9 l -0.4,0.9 -0.3,0.3 -0.6,0.3"
       id="nums_003"
       stroke="#000000"
       stroke-width="1" />
    <path
       d="m 1347.6,507.3 38.2,64.9 -39,14.7 39.4,83 37.5,-83.9 -39.4,-13.8 36.6,-65.7 -39.1,-42.5 37.8,-37.9 -39.7,-46 -25.1,55.3 -47.1,-52.2 10.2,-77.8 55.4,29 44.8,-43.5 31.9,71.7 -2.9,144.6 -1.8,77.7 20.1,113.9 h -78.9 l -78.9,1.9 -68.1,-78.8 1.8,-74.5 83.8,38.9 -3.6,-77.7 z m -197.2,237.4 -13.4,-59.1 -45.7,-134.1 52.6,-82.7 -19.8,-34.3 -5.2,-57 0.7,-57.6 16.7,-35.5 -59.1,-78.1 34.6,-137.5 8.6,-59.9 90,43.8 -8.8,41.7 -31.8,98.8 27.7,44.2 33.1,23.3 45.6,37.3 -24.6,44.2 7.3,69.4 -19,73.1 -31.2,26 -24,46.2 39.8,96 12.9,40.2 z m 304,-414.5 -24.5,-70.3 30.3,-64.5 -12.1,-50.7 -90.1,-13.5 87,-28.5 46.7,-50.1 36.2,-15 52.9,-22.8 -16.2,56.7 -13.5,40.6 -14,56.5 -30.4,38.4 19.6,75.2 15.8,36.3 -18.4,57.5 -63,-11.4 z M 1328,102.7 l -42.8,-29.8 6.2,-47.4 46.8,-14.3 57.6,7.5 42.8,2.2 58.7,5.6 -40.4,40.5 -27.3,28.7 -63.6,25.2 z m -110.6,-14.4 64.8,27.4 53.5,3.3 -1.2,57.8 -19.1,17.9 53.2,56.6 -83.1,40.4 -31.9,-51.9 -44,-56.4 z"
       id="coupes_003"
       stroke="#ff0000"
       stroke-width="1.27"
       sodipodi:nodetypes="cccccccccccccccccccccccccccccccccccccccccccccccccccccccccccccccccccccccccccccccccccccccccc" />
    <path
       d="m 1386.5,698.8 -0.3,-28.9 m -78.6,30.8 17.5,-114.4 m -85.6,35.6 85.6,-35.6 m 59.2,-14.1 62.8,-65 m -125.6,1.4 64.3,63.6 m -4,-108.2 65.3,43.2 m -67.2,-127.1 -6.6,-45.7 m 0,0 76.7,28.2 m -142.3,20.6 65.6,-48.8 m -203.5,-141.2 -92.6,13.1 m 34.6,-137.5 89.8,25.6 m -81.2,-85.5 81.2,85.5 m -4.1,143 -61.2,47 m 94.3,-23.7 -111,59.2 m 132,22.3 -132,-22.3 m 132,22.3 -132.7,35.3 m 140,34.1 -140,-34.1 m 140,34.1 -134.8,22.9 m 84.6,76.2 -64.8,-41.9 m 40.8,88.1 -93.4,-5.4 m 133.2,101.4 -87.5,32.7 m 87.5,-32.7 -74.1,91.8 m 297.7,-600 89,23.9 m 0,0 -76.9,26.8 m -12.1,-50.7 103,-32.6 m -44.4,94.9 -46.5,-11.6 m -12.1,-50.7 -3.1,-42 m 46.7,-50.1 59.4,59.5 m -23.2,-74.5 36.7,33.9 m -22.5,247 -87.7,11.7 m 87.7,-11.7 -81.4,46.1 M 1456.9,67 1438.6,20.9 m -9,74.8 -33.8,-77 m -67.8,84 67.8,-84 m -67.8,84 10.2,-91.5 m -53,61.7 53,-61.7 m -22.8,183.5 -98,-106.4 m 98,106.4 -105.8,-11.3 m 105.8,11.3 -29.9,97 m 50.2,-172.7 -20.3,75.7"
       id="plisM_003"
       stroke="#a52a2a"
       stroke-dasharray="4" />
    <path
       d="m 1386.5,698.8 58.8,-113.9 m -59.1,85 59.1,-85 m -58.8,113.9 -61.4,-112.5 m 0,0 61.1,83.6 m 37.5,-83.9 21.6,-1.1 m -120.2,1.4 21.7,0.6 m 76.9,-0.9 23.4,-78.8 m -125.6,1.4 25.3,78.3 m 74.1,-80.4 26.2,0.7 m -27.5,-81.1 27.5,81.1 m -27.5,-81.1 30.4,-63.5 m -70.1,17.5 70.1,-17.5 m -70.1,17.5 -72.2,3.1 m -195.9,-314.4 58,124.4 m 27.7,44.2 -120.3,-31.1 m 153.4,54.4 -94.3,23.7 m 139.9,13.6 -156.6,21.9 m 120.3,164.8 -115.8,-50.2 m 115.8,50.2 -96,-15.9 m 64.8,41.9 -117.4,40.8 m 93.4,5.4 -47.7,128.7 m 308,-582.9 106.1,9.4 m -44.4,94.9 -76.8,52.9 m 96.4,22.3 -96.4,-22.3 m 61.8,-207.3 72.9,18.9 m -38.3,210.7 -71.9,48 m -24.8,-234.5 9,-74.8 m -72.6,100 29.8,-102.2 m -113.6,97 33.2,79 m 0,0 -61.8,45.1"
       id="plisV_003"
       stroke="#008000"
       stroke-dasharray="4, 1, 1, 1"
       stroke-width="1.27" />
    <path
       d="m 1413.9,639.8 4,4 m 0,-4 -4,4 m -0.2,-18.4 4,4 m 0,-4 -4,4 m -59.9,11.1 4,4 m 0,-4 -4,4 m -0.1,-18.4 4,4 m 0,-4 -4,4 m 78.8,-46.6 4,4 m 0,-4 -4,4 m -98.5,-2.9 4,4 m 0,-4 -4,4 m 99.4,-44 4,4 m 0,-4 -4,4 m -101.3,-2.8 4,4 m 0,-4 -4,4 m 99.9,-45 4,4 m 0,-4 -4,4 m -0.7,-44.2 4,4 m 0,-4 -4,4 m 1.5,-76.3 4,4 m 0,-4 -4,4 m -19.9,-26.9 4,4 m 0,-4 -4,4 m -71.1,6.2 4,4 m 0,-4 -4,4 m -203,-254.6 4,4 m 0,-4 -4,4 m -3.5,86.8 4,4 m 0,-4 -4,4 m 46.2,46.8 4,4 m 0,-4 -4,4 m 14.4,32.4 4,4 m 0,-4 -4,4 m -15.9,146.6 4,4 m 0,-4 -4,4 m 9.9,13.1 4,4 m 0,-4 -4,4 m -41.9,50.4 4,4 m 0,-4 -4,4 m 10.9,86.2 4,4 m 0,-4 -4,4 m 337.2,-517.9 4,4 m 0,-4 -4,4 m -29.8,122 4,4 m 0,-4 -4,4 m 9.8,33.6 4,4 m 0,-4 -4,4 m 50,-212.9 4,4 m 0,-4 -4,4 m -37.7,240.1 4,4 m 0,-4 -4,4 m -56.3,-251.9 4,4 m 0,-4 -4,4 m -53.2,7.5 4,4 m 0,-4 -4,4 m -82.1,81.4 4,4 m 0,-4 -4,4 m -14.3,58 4,4 m 0,-4 -4,4"
       id="marqueV_003"
       stroke="#008000" />
    <path
       d="m 1340.183,517.81318 1.5,-0.7 2.2,-2.3 v 15.8 m 1.2,-12.8 1.5,-0.7 2.3,-2.3 v 15.8"
       id="titre_11"
       stroke="#4b0082" />
    <path
       d="m 1154.9,337.7 1.5,-0.8 2.2,-2.2 v 15.7 m 2.7,-12.5 v -0.7 l 0.7,-1.5 0.8,-0.8 1.5,-0.7 h 3 l 1.5,0.7 0.7,0.8 0.8,1.5 v 1.5 l -0.8,1.5 -1.5,2.2 -7.5,7.5 h 10.5"
       id="titre_12"
       stroke="#4b0082" />
    <path
       d="m 1492.1881,188.50481 1.5,-0.8 2.3,-2.2 v 15.7 m 2.8,-16.3 h 8.2 l -4.5,6 h 2.3 l 1.5,0.8 0.7,0.7 0.8,2.3 v 1.5 l -0.8,2.2 -1.5,1.5 -2.2,0.8 h -2.3 l -2.2,-0.8 -0.8,-0.7 -0.7,-1.5"
       id="titre_13"
       stroke="#4b0082" />
    <path
       d="m 1388.4,69.6 1.5,-0.8 2.2,-2.2 v 15.7 m 9.3,-16.4 -7.5,10.5 h 11.2 m -3.7,-10.5 v 15.8"
       id="titre_14"
       stroke="#4b0082" />
    <path
       d="m 1251.3,197.1 1.5,-0.8 2.3,-2.2 v 15.7 m 10.3,-16.2 h -7.5 l -0.7,6.7 0.7,-0.7 2.3,-0.8 h 2.2 l 2.3,0.8 1.5,1.5 0.7,2.2 v 1.5 l -0.7,2.3 -1.5,1.5 -2.3,0.7 h -2.2 l -2.3,-0.7 -0.7,-0.8 -0.8,-1.5"
       id="titre_15"
       stroke="#4b0082" />
  </g>
</svg>
