<?xml version="1.0" encoding="UTF-8" standalone="no"?>
<svg
   height="297mm"
   viewBox="0 0 533 754"
   width="210mm"
   version="1.1"
   id="svg1"
   sodipodi:docname="teteGirafe146_H15_lang_A4x2.svg"
   inkscape:version="1.3 (1:1.3+202307231459+0e150ed6c4)"
   xmlns:inkscape="http://www.inkscape.org/namespaces/inkscape"
   xmlns:sodipodi="http://sodipodi.sourceforge.net/DTD/sodipodi-0.dtd"
   xmlns="http://www.w3.org/2000/svg"
   xmlns:svg="http://www.w3.org/2000/svg">
  <defs
     id="defs1" />
  <sodipodi:namedview
     id="namedview1"
     pagecolor="#ffffff"
     bordercolor="#000000"
     borderopacity="0.25"
     inkscape:showpageshadow="2"
     inkscape:pageopacity="0.0"
     inkscape:pagecheckerboard="0"
     inkscape:deskcolor="#d1d1d1"
     inkscape:document-units="mm"
     showgrid="false"
     inkscape:zoom="0.76613131"
     inkscape:cx="725.72416"
     inkscape:cy="465.97756"
     inkscape:window-width="1920"
     inkscape:window-height="1007"
     inkscape:window-x="0"
     inkscape:window-y="0"
     inkscape:window-maximized="1"
     inkscape:current-layer="svg1" />
  <style
     type="text/css"
     id="style1"><![CDATA[
			path {
				fill: none;
			}
		]]></style>
  <g
     id="page_001">
    <path
       d="M 358.7 270.0 L 358.0 270.0 L 357.4 270.8 L 357.2 271.3 L 357.1 272.3 L 357.7 273.2 L 359.0 274.0 L 360.4 274.6 L 361.6 274.8 L 362.4 274.4 L 363.0 273.7 L 363.1 273.4 L 363.2 272.5 L 362.8 271.7 L 362.1 271.1 L 361.8 271.0 L 360.9 270.9 L 360.1 271.2 L 359.5 271.9 L 359.4 272.2 L 359.3 273.2 L 359.6 274.0 L 360.4 274.6 M 333.5 285.3 L 330.7 284.3 L 329.5 286.7 L 329.9 286.5 L 330.9 286.6 L 331.7 286.9 L 332.4 287.4 L 332.8 288.2 L 332.8 289.1 L 332.6 289.7 L 332.0 290.5 L 331.2 290.8 L 330.3 290.8 L 329.5 290.5 L 328.7 289.9 L 328.5 289.5 L 328.4 288.9 M 377.2 231.9 L 376.6 231.8 L 375.8 232.4 L 375.5 232.9 L 375.2 233.8 L 375.7 234.8 L 376.8 235.9 L 378.0 236.7 L 379.2 237.1 L 380.0 237.0 L 380.7 236.4 L 380.9 236.1 L 381.2 235.2 L 381.0 234.4 L 380.4 233.6 L 380.1 233.5 L 379.2 233.2 L 378.4 233.4 L 377.7 234.0 L 377.5 234.2 L 377.2 235.1 L 377.4 236.0 L 378.0 236.7 M 378.3 228.7 L 378.0 229.6 L 378.4 230.6 L 379.5 231.7 L 380.3 232.2 L 381.7 232.7 L 382.8 232.7 L 383.5 232.1 L 383.9 231.6 L 384.1 230.7 L 383.7 229.7 L 382.6 228.7 L 381.8 228.2 L 380.4 227.6 L 379.3 227.6 L 378.6 228.2 L 378.3 228.6 M 379.9 199.9 L 380.4 202.9 L 383.1 202.7 L 382.8 202.5 L 382.3 201.7 L 382.2 200.8 L 382.3 199.8 L 382.8 199.1 L 383.7 198.7 L 384.3 198.6 L 385.2 198.7 L 385.9 199.2 L 386.3 200.1 L 386.5 201.0 L 386.3 201.9 L 386.1 202.3 L 385.5 202.6 M 381.1 194.0 L 382.0 194.2 L 382.7 194.7 L 383.1 195.5 L 383.2 195.8 L 383.0 196.7 L 382.5 197.4 L 381.7 197.9 L 381.4 197.9 L 380.5 197.8 L 379.8 197.3 L 379.3 196.4 L 379.3 196.1 L 379.4 195.2 L 379.9 194.5 L 381.1 194.0 L 382.6 193.8 L 384.1 193.8 L 385.1 194.3 L 385.5 195.1 L 385.6 195.7 L 385.5 196.6 L 384.9 197.0 M 322.0 186.8 L 322.7 186.9 L 323.4 186.3 L 323.8 185.7 L 324.0 184.8 L 323.5 183.8 L 322.4 182.8 L 321.1 182.0 L 319.9 181.7 L 319.1 181.9 L 318.4 182.5 L 318.2 182.7 L 318.0 183.6 L 318.2 184.5 L 318.8 185.2 L 319.1 185.4 L 320.0 185.6 L 320.8 185.4 L 321.5 184.8 L 321.7 184.5 L 321.9 183.6 L 321.7 182.7 L 321.1 182.0 M 320.5 188.2 L 320.8 188.3 L 321.1 188.9 L 321.2 189.3 L 321.2 190.0 L 320.5 191.0 L 320.0 191.4 L 319.6 191.5 L 318.9 191.4 L 318.4 191.1 L 318.0 190.5 L 317.6 189.5 L 316.6 185.4 L 314.4 189.0 M 351.9 130.9 L 347.3 125.6 M 353.6 127.0 L 351.9 130.9 M 351.2 132.4 L 349.9 135.5 L 348.4 132.9 L 348.1 133.7 L 347.6 134.1 L 347.2 134.3 L 346.2 134.2 L 345.7 134.0 L 345.0 133.4 L 344.7 132.6 L 344.7 131.6 L 345.1 130.8 L 345.7 130.1 L 346.1 129.9 L 346.8 129.9 M 388.5 149.8 L 387.9 149.8 L 387.1 150.4 L 386.8 150.9 L 386.6 151.8 L 387.0 152.8 L 388.1 153.8 L 389.4 154.7 L 390.5 155.0 L 391.4 154.9 L 392.1 154.3 L 392.3 154.0 L 392.5 153.1 L 392.3 152.3 L 391.7 151.5 L 391.5 151.4 L 390.6 151.1 L 389.7 151.3 L 389.0 151.9 L 388.8 152.2 L 388.6 153.1 L 388.8 153.9 L 389.4 154.7 M 389.7 149.0 L 389.8 148.3 L 389.5 147.1 L 394.8 150.4 M 394.9 67.2 L 391.6 67.1 L 393.5 64.7 L 392.6 64.7 L 392.0 64.4 L 391.7 64.1 L 391.5 63.1 L 391.5 62.5 L 391.8 61.7 L 392.5 61.1 L 393.4 60.8 L 394.3 60.9 L 395.2 61.2 L 395.4 61.5 L 395.7 62.1 M 386.1 66.8 L 389.4 60.6 M 390.3 67.0 L 386.1 66.8 M 438.9 83.0 L 441.2 80.6 L 441.7 83.6 L 442.3 83.0 L 442.9 82.7 L 443.3 82.7 L 444.2 83.1 L 444.6 83.5 L 445.1 84.4 L 445.1 85.2 L 444.7 86.1 L 444.1 86.7 L 443.2 87.2 L 442.8 87.2 L 442.2 87.0 M 443.2 78.5 L 442.8 79.4 L 443.0 80.0 L 443.5 80.4 L 444.1 80.6 L 444.7 80.4 L 445.8 79.7 L 446.6 79.3 L 447.5 79.3 L 448.1 79.5 L 448.8 80.1 L 449.0 80.7 L 449.0 81.1 L 448.6 82.0 L 447.8 82.9 L 446.9 83.3 L 446.5 83.3 L 445.9 83.1 L 445.2 82.5 L 445.0 81.9 L 445.0 81.0 L 445.4 80.2 L 446.0 79.1 L 446.2 78.4 L 446.0 77.8 L 445.5 77.4 L 444.9 77.2 L 444.0 77.6 L 443.1 78.6 M 436.0 119.2 L 435.6 119.7 L 435.8 120.7 L 436.1 121.2 L 436.8 121.8 L 437.9 121.9 L 439.4 121.4 L 440.7 120.6 L 441.6 119.8 L 441.8 118.9 L 441.6 118.0 L 441.4 117.8 L 440.7 117.1 L 439.9 116.9 L 439.0 117.1 L 438.7 117.3 L 438.1 118.0 L 437.9 118.8 L 438.1 119.7 L 438.2 120.0 L 438.9 120.6 L 439.7 120.8 L 440.7 120.6 M 433.5 114.8 L 433.1 115.4 L 433.3 116.3 L 433.6 116.8 L 434.3 117.5 L 435.4 117.5 L 436.8 117.0 L 438.1 116.3 L 439.0 115.4 L 439.2 114.6 L 439.0 113.7 L 438.9 113.4 L 438.2 112.8 L 437.4 112.6 L 436.4 112.7 L 436.2 112.9 L 435.5 113.6 L 435.3 114.4 L 435.5 115.4 L 435.7 115.6 L 436.4 116.2 L 437.2 116.5 L 438.1 116.3 M 416.8 145.9 L 417.3 146.4 L 418.3 147.1 L 412.2 148.5 M 418.9 148.8 L 419.6 152.0 L 416.9 150.8 L 417.1 151.6 L 416.9 152.3 L 416.7 152.6 L 415.9 153.1 L 415.3 153.3 L 414.3 153.2 L 413.6 152.7 L 413.1 151.9 L 412.9 151.0 L 413.0 150.1 L 413.3 149.7 L 413.8 149.3 M 449.6 156.8 L 454.5 158.5 L 453.2 154.1 M 449.6 156.8 L 455.7 155.0 M 448.8 153.7 L 447.8 150.5 L 450.6 151.5 L 450.4 150.7 L 450.5 150.0 L 450.7 149.6 L 451.5 149.1 L 452.0 148.9 L 453.0 149.0 L 453.7 149.4 L 454.3 150.1 L 454.5 151.0 L 454.5 151.9 L 454.3 152.3 L 453.8 152.8 M 426.4 171.1 L 427.0 171.3 L 428.3 171.4 L 423.6 175.6 M 428.4 173.5 L 428.6 173.3 L 429.3 173.1 L 429.7 173.1 L 430.3 173.4 L 431.1 174.3 L 431.3 174.9 L 431.3 175.3 L 431.0 176.0 L 430.6 176.4 L 429.9 176.5 L 428.9 176.7 L 424.6 176.4 L 427.4 179.6 M 455.1 203.1 L 454.5 203.4 L 454.1 204.3 L 454.1 204.9 L 454.3 205.8 L 455.2 206.4 L 456.7 206.8 L 458.2 206.9 L 459.4 206.7 L 460.0 206.1 L 460.4 205.2 L 460.4 204.9 L 460.1 204.0 L 459.6 203.4 L 458.7 203.0 L 458.4 203.0 L 457.5 203.3 L 456.8 203.8 L 456.5 204.7 L 456.5 205.0 L 456.7 205.9 L 457.3 206.5 L 458.2 206.9 M 454.3 201.0 L 454.5 197.7 L 456.8 199.7 L 456.8 198.8 L 457.2 198.2 L 457.5 197.9 L 458.4 197.7 L 459.0 197.7 L 459.9 198.0 L 460.4 198.7 L 460.7 199.6 L 460.6 200.5 L 460.3 201.4 L 460.0 201.7 L 459.4 201.9 M 442.1 217.8 L 442.8 217.6 L 443.8 216.9 L 442.6 223.1 M 446.7 217.3 L 445.8 217.4 L 445.0 218.2 L 444.5 219.6 L 444.3 220.5 L 444.3 222.0 L 444.7 223.0 L 445.5 223.4 L 446.1 223.6 L 447.1 223.4 L 447.8 222.7 L 448.4 221.3 L 448.6 220.4 L 448.6 218.8 L 448.2 217.8 L 447.3 217.4 L 446.9 217.3 M 437.9 204.1 L 438.1 204.7 L 438.8 205.8 L 432.6 204.8 M 437.5 206.6 L 437.7 207.3 L 438.4 208.3 L 432.2 207.4 M 348.1 86.5 L 342.3 90.3 M 344.5 84.3 L 348.1 86.5 M 348.8 88.6 L 348.9 88.4 L 349.5 88.0 L 349.9 87.9 L 350.6 88.0 L 351.6 88.6 L 351.9 89.2 L 352.0 89.6 L 352.0 90.3 L 351.7 90.8 L 351.1 91.1 L 350.1 91.6 L 346.0 92.6 L 349.6 94.8 M 359.8 75.8 L 357.3 77.9 L 357.1 74.9 L 356.4 75.5 L 355.8 75.7 L 355.4 75.7 L 354.5 75.2 L 354.1 74.7 L 353.8 73.8 L 353.8 73.0 L 354.3 72.2 L 355.0 71.6 L 355.9 71.2 L 356.3 71.3 L 356.9 71.5 M 353.2 81.5 L 351.3 74.8 M 356.3 78.8 L 353.2 81.5 M 422.1 46.1 L 415.9 42.8 M 422.3 41.9 L 422.1 46.1 M 420.5 47.7 L 420.8 47.7 L 421.4 48.0 L 421.7 48.3 L 422.0 48.9 L 421.9 50.1 L 421.6 50.7 L 421.3 51.0 L 420.7 51.3 L 420.1 51.3 L 419.5 50.9 L 418.6 50.3 L 415.7 47.2 L 415.6 51.4 M 434.3 59.4 L 440.5 56.2 M 437.6 62.0 L 434.3 59.4 M 432.9 58.4 L 430.3 56.4 L 433.1 55.6 L 432.4 55.0 L 432.1 54.4 L 432.1 54.0 L 432.4 53.1 L 432.7 52.6 L 433.5 52.1 L 434.3 52.0 L 435.2 52.3 L 436.0 52.8 L 436.5 53.6 L 436.6 54.0 L 436.4 54.7 M 242.0 242.8 L 239.1 244.4 L 239.6 241.4 L 238.8 241.8 L 238.1 241.8 L 237.7 241.7 L 237.0 241.1 L 236.7 240.5 L 236.6 239.6 L 236.8 238.8 L 237.5 238.1 L 238.3 237.7 L 239.2 237.5 L 239.6 237.7 L 240.2 238.1 M 236.2 245.9 L 236.9 245.2 L 237.0 244.1 L 236.6 242.7 L 236.1 241.9 L 235.2 240.7 L 234.2 240.2 L 233.3 240.3 L 232.8 240.6 L 232.1 241.3 L 232.0 242.3 L 232.4 243.8 L 232.8 244.6 L 233.8 245.8 L 234.8 246.3 L 235.7 246.2 L 236.1 246.0 M 276.5 292.3 L 275.8 293.0 L 275.9 293.6 L 276.2 294.2 L 276.8 294.5 L 277.4 294.5 L 278.6 294.1 L 279.5 293.9 L 280.4 294.1 L 280.9 294.5 L 281.4 295.2 L 281.4 295.9 L 281.3 296.3 L 280.7 297.0 L 279.7 297.7 L 278.8 297.9 L 278.4 297.8 L 277.8 297.4 L 277.3 296.6 L 277.3 296.0 L 277.5 295.1 L 278.1 294.4 L 279.0 293.5 L 279.3 293.0 L 279.3 292.3 L 279.0 291.8 L 278.4 291.4 L 277.5 291.6 L 276.3 292.3 M 210.2 231.9 L 210.4 228.7 L 212.7 230.6 L 212.7 229.7 L 213.1 229.1 L 213.4 228.8 L 214.3 228.6 L 214.9 228.6 L 215.8 228.9 L 216.3 229.6 L 216.6 230.5 L 216.6 231.4 L 216.2 232.3 L 215.9 232.5 L 215.3 232.8 M 210.6 225.4 L 210.8 226.3 L 211.7 227.0 L 213.2 227.3 L 214.1 227.4 L 215.6 227.2 L 216.5 226.6 L 216.8 225.7 L 216.9 225.1 L 216.6 224.2 L 215.8 223.6 L 214.3 223.2 L 213.4 223.2 L 211.9 223.4 L 210.9 223.9 L 210.6 224.8 L 210.6 225.3 M 181.9 195.8 L 182.2 195.9 L 182.7 196.3 L 183.0 196.6 L 183.2 197.2 L 182.9 198.4 L 182.5 199.0 L 182.2 199.2 L 181.5 199.4 L 181.0 199.3 L 180.4 198.9 L 179.6 198.1 L 177.2 194.6 L 176.5 198.8 M 182.2 202.5 L 182.1 201.6 L 181.5 201.2 L 180.9 201.1 L 180.3 201.2 L 179.9 201.8 L 179.4 202.9 L 178.9 203.7 L 178.2 204.2 L 177.6 204.4 L 176.7 204.2 L 176.2 203.8 L 175.9 203.5 L 175.8 202.6 L 176.0 201.4 L 176.5 200.5 L 176.8 200.3 L 177.4 200.1 L 178.3 200.3 L 178.9 200.7 L 179.3 201.4 L 179.5 202.3 L 179.6 203.6 L 179.7 204.2 L 180.3 204.6 L 180.9 204.7 L 181.5 204.5 L 182.0 203.7 L 182.2 202.4 M 197.9 204.7 L 195.2 202.9 L 198.0 201.9 L 197.3 201.4 L 196.9 200.8 L 196.9 200.4 L 197.1 199.5 L 197.4 199.0 L 198.2 198.4 L 199.0 198.2 L 199.9 198.5 L 200.7 199.0 L 201.3 199.7 L 201.3 200.1 L 201.3 200.8 M 194.8 200.9 L 194.2 200.9 L 192.9 201.1 L 196.4 195.9 M 159.8 284.3 L 156.0 280.8 L 155.5 285.3 M 159.8 284.3 L 153.6 283.5 M 159.1 290.0 L 155.3 286.6 L 154.8 291.0 M 159.1 290.0 L 152.9 289.3 M 158.3 226.4 L 161.2 222.1 L 156.7 222.3 M 158.3 226.4 L 158.1 220.1 M 152.1 226.6 L 155.1 226.5 L 155.3 223.8 L 155.0 224.1 L 154.1 224.4 L 153.2 224.5 L 152.3 224.2 L 151.7 223.7 L 151.3 222.8 L 151.3 222.2 L 151.6 221.3 L 152.1 220.6 L 153.0 220.3 L 153.9 220.3 L 154.8 220.5 L 155.2 220.8 L 155.5 221.4 M 151.5 341.4 L 148.0 337.6 L 147.0 342.0 M 151.5 341.4 L 145.3 340.1 M 149.2 347.3 L 149.9 347.2 L 150.3 346.4 L 150.5 345.8 L 150.4 344.8 L 149.6 344.0 L 148.2 343.4 L 146.7 343.1 L 145.5 343.2 L 144.8 343.6 L 144.3 344.5 L 144.2 344.8 L 144.4 345.7 L 144.8 346.4 L 145.6 346.9 L 145.9 347.0 L 146.9 346.8 L 147.6 346.4 L 148.1 345.6 L 148.1 345.3 L 148.0 344.3 L 147.6 343.6 L 146.7 343.1 M 157.2 369.5 L 152.0 370.1 L 155.0 373.4 M 157.2 369.5 L 152.4 373.7 M 161.6 374.6 L 154.8 376.5 M 158.8 371.4 L 161.6 374.6 M 199.7 399.1 L 202.8 403.3 L 204.2 399.0 M 199.7 399.1 L 205.7 401.1 M 201.1 395.2 L 201.1 396.1 L 201.6 396.6 L 202.1 396.8 L 202.8 396.7 L 203.3 396.2 L 203.9 395.2 L 204.5 394.4 L 205.2 394.0 L 205.9 393.9 L 206.8 394.2 L 207.2 394.7 L 207.4 395.0 L 207.4 396.0 L 207.1 397.1 L 206.5 397.9 L 206.1 398.1 L 205.5 398.2 L 204.6 397.9 L 204.1 397.4 L 203.8 396.7 L 203.7 395.7 L 203.8 394.5 L 203.7 393.8 L 203.2 393.4 L 202.7 393.2 L 202.0 393.3 L 201.5 394.0 L 201.0 395.3 M 186.9 393.3 L 182.4 395.8 L 186.4 397.7 M 186.9 393.3 L 184.1 399.0 M 191.8 398.1 L 191.2 398.8 L 190.4 399.1 L 189.4 399.0 L 189.2 398.8 L 188.5 398.2 L 188.2 397.4 L 188.3 396.4 L 188.5 396.1 L 189.1 395.5 L 189.9 395.2 L 190.9 395.3 L 191.1 395.5 L 191.8 396.1 L 192.1 396.9 L 191.8 398.1 L 191.2 399.5 L 190.2 400.7 L 189.3 401.2 L 188.4 401.1 L 187.8 400.8 L 187.2 400.2 L 187.1 399.5 M 110.2 212.9 L 112.8 214.3 L 114.4 212.0 L 114.0 212.1 L 113.0 212.0 L 112.2 211.6 L 111.6 210.9 L 111.3 210.1 L 111.4 209.1 L 111.7 208.6 L 112.4 207.9 L 113.2 207.7 L 114.1 207.8 L 114.9 208.2 L 115.6 208.9 L 115.7 209.3 L 115.7 210.0 M 108.9 210.5 L 108.7 210.8 L 108.2 211.2 L 107.8 211.3 L 107.1 211.3 L 106.0 210.7 L 105.6 210.2 L 105.5 209.8 L 105.5 209.1 L 105.8 208.6 L 106.3 208.2 L 107.3 207.7 L 111.3 206.4 L 107.6 204.4 M 48.2 195.2 L 49.5 192.5 L 47.2 191.1 L 47.3 191.5 L 47.2 192.4 L 46.8 193.2 L 46.2 193.9 L 45.4 194.2 L 44.4 194.1 L 43.9 193.8 L 43.2 193.1 L 42.9 192.3 L 43.1 191.4 L 43.5 190.6 L 44.1 189.9 L 44.5 189.8 L 45.2 189.8 M 46.2 196.1 L 46.2 196.8 L 46.6 198.0 L 40.9 195.2 M 248.7 344.1 L 252.9 347.1 L 253.0 342.6 M 248.7 344.1 L 255.0 344.1 M 248.8 339.6 L 249.1 340.5 L 250.0 341.1 L 251.5 341.4 L 252.4 341.5 L 253.9 341.2 L 254.8 340.6 L 255.1 339.7 L 255.2 339.1 L 254.9 338.2 L 254.0 337.6 L 252.5 337.3 L 251.6 337.2 L 250.1 337.5 L 249.2 338.1 L 248.9 339.0 L 248.8 339.5 M 235.7 393.4 L 229.7 396.9 M 232.3 391.0 L 235.7 393.4 M 239.6 396.1 L 237.2 394.4 L 235.4 396.5 L 235.8 396.4 L 236.7 396.7 L 237.4 397.2 L 238.0 397.9 L 238.2 398.8 L 237.9 399.7 L 237.6 400.2 L 236.8 400.7 L 236.0 400.9 L 235.1 400.6 L 234.3 400.1 L 233.7 399.4 L 233.7 398.9 L 233.8 398.3 M 269.6 415.1 L 265.0 417.3 L 268.9 419.5 M 269.6 415.1 L 266.5 420.6 M 271.1 417.6 L 271.8 417.7 L 273.0 417.3 L 269.9 422.8 M 280.0 388.9 L 276.9 387.6 L 279.5 386.1 L 278.7 385.7 L 278.3 385.2 L 278.1 384.8 L 278.2 383.9 L 278.5 383.3 L 279.1 382.6 L 279.9 382.3 L 280.8 382.4 L 281.6 382.7 L 282.4 383.4 L 282.5 383.8 L 282.5 384.4 M 272.9 383.5 L 273.5 382.8 L 274.3 382.5 L 275.2 382.6 L 275.5 382.7 L 276.2 383.3 L 276.5 384.1 L 276.4 385.1 L 276.3 385.4 L 275.7 386.1 L 274.9 386.4 L 274.0 386.3 L 273.7 386.2 L 273.0 385.5 L 272.7 384.8 L 272.9 383.5 L 273.5 382.2 L 274.3 380.9 L 275.2 380.3 L 276.2 380.4 L 276.7 380.6 L 277.4 381.3 L 277.5 381.9 M 317.8 415.6 L 324.3 413.0 M 320.9 418.5 L 317.8 415.6 M 314.6 412.8 L 319.7 411.7 L 316.4 408.7 M 314.6 412.8 L 318.9 408.1 M 292.8 453.6 L 292.7 450.6 L 290.0 450.4 L 290.3 450.7 L 290.6 451.6 L 290.6 452.5 L 290.4 453.4 L 289.8 454.0 L 288.9 454.3 L 288.3 454.3 L 287.4 454.0 L 286.8 453.5 L 286.4 452.6 L 286.4 451.7 L 286.7 450.8 L 287.0 450.5 L 287.6 450.1 M 292.9 459.0 L 292.8 456.0 L 290.1 455.7 L 290.4 456.0 L 290.7 456.9 L 290.8 457.8 L 290.5 458.7 L 289.9 459.3 L 289.0 459.7 L 288.4 459.7 L 287.5 459.4 L 286.9 458.8 L 286.6 457.9 L 286.5 457.0 L 286.8 456.1 L 287.1 455.8 L 287.7 455.5 M 310.6 506.3 L 311.1 507.1 L 311.1 508.0 L 310.8 508.8 L 310.6 509.1 L 309.8 509.6 L 309.0 509.7 L 308.1 509.3 L 307.8 509.1 L 307.3 508.3 L 307.3 507.5 L 307.6 506.6 L 307.8 506.4 L 308.6 505.9 L 309.4 505.8 L 310.6 506.3 L 311.7 507.3 L 312.7 508.5 L 313.0 509.5 L 312.6 510.4 L 312.3 510.8 L 311.5 511.3 L 310.8 511.2 M 272.6 527.5 L 269.9 526.3 L 268.5 528.6 L 268.9 528.4 L 269.9 528.5 L 270.7 528.9 L 271.4 529.5 L 271.7 530.3 L 271.6 531.3 L 271.4 531.8 L 270.7 532.5 L 269.9 532.8 L 269.0 532.7 L 268.2 532.4 L 267.5 531.7 L 267.3 531.3 L 267.3 530.7 M 277.9 529.8 L 272.6 534.4 M 274.1 528.1 L 277.9 529.8 M 250.3 465.5 L 248.3 460.7 L 245.9 464.5 M 250.3 465.5 L 244.9 462.1 M 247.7 466.9 L 247.6 467.5 L 247.9 468.8 L 242.6 465.4 M 264.0 469.7 L 266.2 471.8 L 268.3 470.0 L 267.9 470.0 L 267.0 469.6 L 266.3 469.0 L 265.9 468.2 L 265.8 467.3 L 266.2 466.5 L 266.6 466.0 L 267.5 465.6 L 268.3 465.5 L 269.2 465.9 L 269.9 466.6 L 270.3 467.4 L 270.3 467.8 L 270.1 468.5 M 260.1 466.1 L 262.3 468.1 L 264.4 466.4 L 263.9 466.4 L 263.1 466.0 L 262.4 465.4 L 262.0 464.6 L 261.9 463.7 L 262.3 462.8 L 262.7 462.4 L 263.6 461.9 L 264.4 461.9 L 265.3 462.3 L 265.9 462.9 L 266.4 463.8 L 266.4 464.2 L 266.2 464.8 M 228.0 520.6 L 228.0 520.3 L 228.3 519.7 L 228.7 519.4 L 229.3 519.1 L 230.5 519.2 L 231.1 519.5 L 231.3 519.8 L 231.6 520.4 L 231.6 521.0 L 231.3 521.6 L 230.7 522.5 L 227.6 525.4 L 231.8 525.5 M 236.3 519.3 L 233.1 523.4 L 237.6 523.5 M 236.3 519.3 L 236.1 525.6 M 92.0 280.9 L 98.6 283.2 M 92.5 285.1 L 92.0 280.9 M 93.3 279.7 L 93.0 279.1 L 92.0 278.3 L 98.2 277.6 M 50.0 283.6 L 50.3 283.0 L 50.0 282.1 L 49.6 281.6 L 48.8 281.1 L 47.8 281.1 L 46.4 281.8 L 45.2 282.7 L 44.4 283.7 L 44.3 284.5 L 44.6 285.4 L 44.8 285.6 L 45.5 286.2 L 46.4 286.3 L 47.3 286.0 L 47.5 285.8 L 48.1 285.0 L 48.2 284.2 L 47.9 283.3 L 47.7 283.1 L 46.9 282.5 L 46.1 282.4 L 45.2 282.7 M 52.5 285.4 L 51.7 284.9 L 51.0 285.0 L 50.6 285.4 L 50.3 286.0 L 50.4 286.6 L 50.9 287.8 L 51.2 288.7 L 51.0 289.5 L 50.7 290.1 L 50.0 290.6 L 49.4 290.8 L 48.9 290.7 L 48.2 290.2 L 47.4 289.2 L 47.1 288.3 L 47.2 287.9 L 47.5 287.3 L 48.2 286.7 L 48.9 286.6 L 49.7 286.7 L 50.5 287.3 L 51.5 288.1 L 52.1 288.4 L 52.7 288.2 L 53.2 287.9 L 53.5 287.3 L 53.2 286.4 L 52.4 285.3 M 33.4 234.7 L 34.2 231.8 L 31.6 230.8 L 31.8 231.2 L 31.9 232.1 L 31.7 233.0 L 31.2 233.8 L 30.4 234.2 L 29.5 234.3 L 28.9 234.2 L 28.1 233.6 L 27.7 232.9 L 27.6 232.0 L 27.8 231.1 L 28.3 230.3 L 28.7 230.1 L 29.4 229.9 M 31.7 235.9 L 31.8 236.6 L 32.5 237.7 L 26.3 236.2 M 89.2 153.5 L 89.8 153.8 L 90.7 153.5 L 91.2 153.2 L 91.7 152.4 L 91.7 151.3 L 91.0 149.9 L 90.1 148.7 L 89.2 147.9 L 88.4 147.8 L 87.5 148.1 L 87.2 148.3 L 86.7 149.0 L 86.5 149.9 L 86.8 150.8 L 87.0 151.0 L 87.8 151.6 L 88.6 151.7 L 89.5 151.4 L 89.8 151.2 L 90.3 150.5 L 90.4 149.6 L 90.1 148.7 M 87.3 156.0 L 87.9 155.2 L 87.8 154.5 L 87.4 154.0 L 86.8 153.7 L 86.2 153.9 L 85.0 154.3 L 84.1 154.6 L 83.3 154.5 L 82.7 154.2 L 82.2 153.4 L 82.0 152.8 L 82.1 152.4 L 82.7 151.6 L 83.6 150.9 L 84.5 150.6 L 84.9 150.7 L 85.5 151.0 L 86.1 151.7 L 86.2 152.4 L 86.1 153.2 L 85.5 154.0 L 84.7 154.9 L 84.4 155.5 L 84.5 156.2 L 84.9 156.7 L 85.5 157.0 L 86.4 156.7 L 87.5 155.9 M 110.0 173.4 L 107.2 174.4 L 107.7 177.0 L 107.9 176.6 L 108.7 176.1 L 109.5 175.8 L 110.5 175.8 L 111.2 176.1 L 111.8 176.9 L 112.0 177.5 L 112.0 178.4 L 111.6 179.2 L 110.9 179.7 L 110.0 180.0 L 109.1 180.0 L 108.7 179.8 L 108.2 179.4 M 112.6 174.1 L 112.5 173.8 L 112.6 173.1 L 112.8 172.8 L 113.3 172.3 L 114.4 171.9 L 115.1 172.0 L 115.5 172.2 L 115.9 172.6 L 116.1 173.2 L 116.0 173.9 L 115.8 174.9 L 113.9 178.7 L 117.9 177.4 M 153.2 158.6 L 151.7 163.6 L 156.0 162.1 M 153.2 158.6 L 155.3 164.6 M 159.2 156.7 L 156.3 157.7 L 156.9 160.3 L 157.1 159.9 L 157.8 159.4 L 158.7 159.1 L 159.6 159.1 L 160.4 159.4 L 161.0 160.2 L 161.2 160.8 L 161.2 161.7 L 160.8 162.5 L 160.0 163.0 L 159.2 163.3 L 158.2 163.3 L 157.9 163.1 L 157.4 162.7 M 145.0 105.4 L 145.2 105.6 L 145.5 106.3 L 145.5 106.7 L 145.3 107.3 L 144.4 108.2 L 143.8 108.4 L 143.4 108.4 L 142.7 108.2 L 142.3 107.8 L 142.1 107.1 L 141.9 106.1 L 141.8 101.8 L 138.9 104.8 M 138.3 111.4 L 137.9 110.5 L 137.9 109.7 L 138.3 108.8 L 138.5 108.6 L 139.4 108.2 L 140.2 108.2 L 141.1 108.6 L 141.3 108.8 L 141.7 109.6 L 141.7 110.5 L 141.3 111.3 L 141.1 111.6 L 140.2 112.0 L 139.4 112.0 L 138.3 111.4 L 137.2 110.3 L 136.4 109.0 L 136.2 108.0 L 136.6 107.1 L 137.0 106.7 L 137.9 106.3 L 138.5 106.5 M 180.6 147.6 L 180.4 147.3 L 180.3 146.6 L 180.4 146.2 L 180.7 145.6 L 181.7 145.0 L 182.4 144.9 L 182.8 145.0 L 183.4 145.3 L 183.7 145.8 L 183.8 146.5 L 183.8 147.6 L 183.0 151.7 L 186.5 149.4 M 185.2 142.7 L 184.6 143.4 L 184.7 144.1 L 185.0 144.6 L 185.6 144.9 L 186.3 144.9 L 187.4 144.4 L 188.3 144.2 L 189.2 144.4 L 189.8 144.7 L 190.3 145.4 L 190.3 146.1 L 190.3 146.5 L 189.7 147.3 L 188.7 147.9 L 187.8 148.2 L 187.3 148.1 L 186.8 147.8 L 186.3 147.0 L 186.2 146.3 L 186.3 145.5 L 186.9 144.8 L 187.8 143.9 L 188.1 143.3 L 188.0 142.6 L 187.7 142.1 L 187.1 141.8 L 186.2 142.0 L 185.1 142.8 M 165.9 61.6 L 165.7 64.9 L 163.4 62.9 L 163.3 63.8 L 163.0 64.4 L 162.7 64.7 L 161.8 64.9 L 161.2 64.9 L 160.3 64.5 L 159.7 63.9 L 159.5 62.9 L 159.6 62.0 L 159.9 61.2 L 160.2 60.9 L 160.9 60.6 M 164.0 66.7 L 164.3 66.8 L 164.9 67.1 L 165.2 67.4 L 165.4 68.0 L 165.4 69.2 L 165.0 69.8 L 164.7 70.1 L 164.1 70.3 L 163.5 70.3 L 162.9 70.0 L 162.0 69.3 L 159.3 66.1 L 159.0 70.3 M 172.4 63.9 L 169.5 62.3 L 172.3 61.1 L 171.5 60.6 L 171.1 60.1 L 171.0 59.7 L 171.2 58.8 L 171.5 58.2 L 172.2 57.6 L 173.0 57.4 L 173.9 57.6 L 174.7 58.0 L 175.4 58.7 L 175.5 59.1 L 175.4 59.8 M 167.8 61.3 L 164.9 59.7 L 167.6 58.5 L 166.9 58.0 L 166.5 57.5 L 166.4 57.0 L 166.6 56.1 L 166.8 55.6 L 167.6 55.0 L 168.4 54.7 L 169.3 54.9 L 170.1 55.4 L 170.7 56.1 L 170.8 56.5 L 170.8 57.1 M 208.0 510.3 L 202.8 511.0 L 205.9 514.3 M 208.0 510.3 L 203.4 514.6 M 210.7 513.4 L 209.9 512.9 L 209.3 513.1 L 208.8 513.5 L 208.6 514.1 L 208.8 514.8 L 209.4 515.9 L 209.8 516.7 L 209.8 517.6 L 209.5 518.2 L 208.9 518.8 L 208.2 519.0 L 207.8 519.0 L 207.0 518.5 L 206.1 517.7 L 205.7 516.8 L 205.8 516.4 L 206.0 515.8 L 206.7 515.1 L 207.3 514.9 L 208.1 515.0 L 209.0 515.4 L 210.0 516.1 L 210.6 516.3 L 211.3 516.1 L 211.7 515.7 L 212.0 515.1 L 211.6 514.2 L 210.6 513.3 M 219.5 499.7 L 217.9 492.9 M 222.7 497.0 L 219.5 499.7 M 215.8 502.6 L 218.1 500.7 L 216.7 498.4 L 216.6 498.9 L 216.1 499.7 L 215.4 500.2 L 214.5 500.6 L 213.7 500.5 L 212.9 499.9 L 212.5 499.5 L 212.2 498.6 L 212.2 497.7 L 212.8 496.9 L 213.5 496.4 L 214.4 496.1 L 214.8 496.1 L 215.4 496.4 M 198.4 109.7 L 204.4 113.3 M 198.0 113.9 L 198.4 109.7 M 198.9 104.5 L 204.9 108.1 M 198.5 108.7 L 198.9 104.5 M 208.2 60.8 L 205.2 62.3 L 205.8 59.3 L 205.0 59.7 L 204.3 59.7 L 203.9 59.6 L 203.3 58.9 L 203.0 58.3 L 202.9 57.4 L 203.1 56.6 L 203.8 55.9 L 204.6 55.6 L 205.6 55.4 L 206.0 55.6 L 206.5 56.0 M 203.4 63.2 L 200.4 64.6 L 201.0 61.6 L 200.2 62.0 L 199.5 62.0 L 199.1 61.9 L 198.4 61.2 L 198.2 60.7 L 198.1 59.7 L 198.3 58.9 L 199.0 58.3 L 199.8 57.9 L 200.8 57.8 L 201.2 57.9 L 201.7 58.3 M 233.9 83.7 L 231.4 82.2 L 229.7 84.3 L 230.1 84.2 L 231.1 84.4 L 231.8 84.9 L 232.4 85.6 L 232.6 86.4 L 232.4 87.4 L 232.1 87.9 L 231.4 88.5 L 230.6 88.7 L 229.7 88.5 L 228.9 88.0 L 228.3 87.3 L 228.2 86.9 L 228.2 86.2 M 238.2 86.2 L 233.4 88.2 L 237.3 90.6 M 238.2 86.2 L 234.9 91.6 M 239.1 54.8 L 235.8 55.1 L 237.4 52.6 L 236.5 52.6 L 235.9 52.4 L 235.6 52.1 L 235.2 51.2 L 235.1 50.6 L 235.4 49.7 L 235.9 49.1 L 236.8 48.7 L 237.7 48.6 L 238.6 48.9 L 238.9 49.1 L 239.3 49.7 M 233.7 53.8 L 233.7 54.1 L 233.5 54.7 L 233.2 55.0 L 232.6 55.4 L 231.4 55.5 L 230.8 55.2 L 230.5 54.9 L 230.2 54.4 L 230.1 53.8 L 230.4 53.1 L 230.9 52.2 L 233.6 49.0 L 229.4 49.3 M 268.5 100.0 L 268.3 99.4 L 267.5 98.9 L 266.9 98.8 L 266.0 98.9 L 265.2 99.7 L 264.7 101.2 L 264.4 102.6 L 264.5 103.9 L 265.0 104.6 L 265.8 105.0 L 266.1 105.1 L 267.1 104.9 L 267.8 104.4 L 268.2 103.6 L 268.3 103.3 L 268.1 102.4 L 267.6 101.7 L 266.8 101.2 L 266.5 101.2 L 265.6 101.3 L 264.9 101.8 L 264.4 102.6 M 273.5 100.9 L 273.3 100.2 L 272.5 99.8 L 271.9 99.7 L 271.0 99.8 L 270.2 100.6 L 269.7 102.0 L 269.4 103.5 L 269.5 104.7 L 270.0 105.4 L 270.8 105.9 L 271.1 105.9 L 272.0 105.8 L 272.7 105.3 L 273.2 104.5 L 273.2 104.2 L 273.1 103.2 L 272.6 102.5 L 271.8 102.1 L 271.5 102.0 L 270.5 102.2 L 269.8 102.7 L 269.4 103.5 M 284.5 90.6 L 283.8 90.7 L 283.2 91.4 L 283.0 92.0 L 282.9 92.9 L 283.5 93.8 L 284.8 94.6 L 286.2 95.2 L 287.4 95.4 L 288.2 95.1 L 288.8 94.3 L 288.9 94.1 L 289.0 93.1 L 288.7 92.3 L 287.9 91.7 L 287.7 91.6 L 286.7 91.5 L 285.9 91.9 L 285.3 92.6 L 285.2 92.9 L 285.1 93.8 L 285.5 94.6 L 286.2 95.2 M 285.7 85.2 L 290.4 90.4 M 284.1 89.1 L 285.7 85.2 M 276.6 68.1 L 276.5 68.4 L 275.9 68.7 L 275.5 68.8 L 274.8 68.7 L 273.8 68.1 L 273.4 67.5 L 273.3 67.1 L 273.4 66.5 L 273.7 66.0 L 274.3 65.6 L 275.3 65.1 L 279.4 64.2 L 275.8 62.0 M 269.3 62.9 L 270.0 62.3 L 270.9 62.1 L 271.8 62.3 L 272.0 62.5 L 272.6 63.2 L 272.8 64.0 L 272.6 64.9 L 272.5 65.2 L 271.7 65.8 L 270.9 66.0 L 270.0 65.8 L 269.7 65.6 L 269.1 64.9 L 268.9 64.1 L 269.3 62.9 L 270.1 61.6 L 271.1 60.5 L 272.1 60.0 L 273.0 60.3 L 273.6 60.6 L 274.2 61.3 L 274.1 62.0 M 254.0 198.3 L 254.5 201.6 L 251.8 200.2 L 252.0 201.1 L 251.8 201.7 L 251.5 202.1 L 250.7 202.5 L 250.1 202.6 L 249.1 202.4 L 248.5 201.9 L 248.0 201.1 L 247.9 200.2 L 248.0 199.3 L 248.3 198.9 L 248.8 198.5 M 253.3 203.2 L 253.7 203.7 L 254.7 204.5 L 248.5 205.5 M 279.0 186.4 L 278.5 186.9 L 278.6 187.8 L 278.8 188.4 L 279.5 189.1 L 280.5 189.3 L 282.0 189.0 L 283.4 188.4 L 284.4 187.7 L 284.7 186.9 L 284.6 186.0 L 284.5 185.7 L 283.9 185.0 L 283.1 184.6 L 282.2 184.7 L 281.9 184.8 L 281.2 185.5 L 280.9 186.2 L 280.9 187.2 L 281.0 187.5 L 281.7 188.2 L 282.5 188.5 L 283.4 188.4 M 278.8 184.4 L 278.5 184.5 L 277.8 184.4 L 277.4 184.3 L 276.9 183.8 L 276.4 182.7 L 276.5 182.1 L 276.6 181.7 L 277.1 181.2 L 277.6 180.9 L 278.3 181.0 L 279.4 181.2 L 283.3 182.8 L 281.7 178.9 M 234.9 147.2 L 227.9 147.5 M 232.9 143.5 L 234.9 147.2 M 237.3 151.8 L 230.3 152.1 M 235.3 148.1 L 237.3 151.8 M 241.7 125.5 L 244.6 124.7 L 244.2 122.1 L 244.0 122.4 L 243.2 123.0 L 242.3 123.2 L 241.4 123.1 L 240.6 122.7 L 240.1 121.9 L 240.0 121.4 L 240.0 120.4 L 240.4 119.7 L 241.2 119.1 L 242.1 118.9 L 243.0 119.0 L 243.4 119.2 L 243.8 119.7 M 237.0 126.9 L 238.8 122.0 L 234.5 123.2 M 237.0 126.9 L 235.4 120.8 M 260.4 138.2 L 259.5 135.0 L 262.3 136.1 L 262.1 135.3 L 262.2 134.6 L 262.4 134.2 L 263.2 133.7 L 263.8 133.6 L 264.8 133.6 L 265.5 134.1 L 266.0 134.9 L 266.2 135.7 L 266.2 136.7 L 266.0 137.0 L 265.4 137.5 M 258.8 132.1 L 259.3 132.9 L 260.0 133.1 L 260.6 132.9 L 261.1 132.5 L 261.2 131.8 L 261.2 130.6 L 261.3 129.6 L 261.7 128.9 L 262.2 128.5 L 263.1 128.2 L 263.7 128.4 L 264.1 128.6 L 264.6 129.4 L 264.9 130.6 L 264.8 131.5 L 264.6 131.9 L 264.1 132.3 L 263.2 132.5 L 262.6 132.4 L 261.9 132.0 L 261.3 131.2 L 260.8 130.1 L 260.3 129.6 L 259.7 129.4 L 259.1 129.6 L 258.6 130.0 L 258.5 131.0 L 258.8 132.3 M 406.2 470.4 L 409.0 466.1 L 404.5 466.3 M 406.2 470.4 L 405.8 464.1 M 450.3 545.3 L 447.6 546.8 L 448.7 549.3 L 448.8 548.9 L 449.4 548.2 L 450.2 547.7 L 451.2 547.6 L 452.0 547.8 L 452.7 548.5 L 453.0 549.0 L 453.1 549.9 L 452.9 550.7 L 452.2 551.4 L 451.4 551.9 L 450.5 552.0 L 450.1 551.9 L 449.6 551.5 M 459.4 482.3 L 464.6 477.6 M 463.3 483.9 L 459.4 482.3 M 479.7 512.7 L 479.6 513.7 L 480.0 514.2 L 480.6 514.5 L 481.2 514.5 L 481.8 514.0 L 482.5 513.1 L 483.2 512.4 L 484.0 512.1 L 484.7 512.1 L 485.5 512.5 L 485.9 513.0 L 486.0 513.4 L 485.9 514.3 L 485.4 515.4 L 484.8 516.1 L 484.4 516.3 L 483.7 516.3 L 482.9 515.9 L 482.5 515.4 L 482.2 514.6 L 482.3 513.6 L 482.5 512.4 L 482.5 511.7 L 482.1 511.2 L 481.5 511.0 L 480.9 511.0 L 480.2 511.7 L 479.6 512.9 M 363.5 516.4 L 362.6 516.5 L 361.8 516.2 L 361.1 515.5 L 361.0 515.2 L 360.9 514.2 L 361.2 513.5 L 361.9 512.8 L 362.2 512.7 L 363.2 512.6 L 364.0 512.9 L 364.6 513.6 L 364.7 513.9 L 364.8 514.8 L 364.5 515.6 L 363.5 516.4 L 362.1 517.0 L 360.6 517.3 L 359.6 517.1 L 358.9 516.4 L 358.7 515.9 L 358.6 514.9 L 359.0 514.4 M 416.6 654.0 L 416.9 653.4 L 417.2 652.2 L 420.6 657.5 M 419.3 650.6 L 418.7 651.3 L 418.8 652.0 L 419.1 652.5 L 419.7 652.8 L 420.3 652.7 L 421.5 652.4 L 422.4 652.1 L 423.3 652.3 L 423.8 652.6 L 424.3 653.4 L 424.4 654.1 L 424.3 654.5 L 423.7 655.2 L 422.7 655.9 L 421.8 656.1 L 421.4 656.0 L 420.8 655.7 L 420.3 654.9 L 420.2 654.2 L 420.4 653.4 L 421.0 652.7 L 421.9 651.8 L 422.2 651.2 L 422.1 650.5 L 421.8 650.0 L 421.2 649.7 L 420.3 649.9 L 419.2 650.6 M 383.5 654.5 L 379.2 657.4 L 383.4 659.0 M 383.5 654.5 L 381.3 660.4 M 385.9 657.1 L 386.0 656.8 L 386.5 656.3 L 386.9 656.2 L 387.5 656.1 L 388.7 656.5 L 389.1 657.0 L 389.3 657.4 L 389.4 658.0 L 389.2 658.6 L 388.7 659.1 L 387.8 659.7 L 383.9 661.5 L 387.9 662.9 M 362.7 570.9 L 365.3 569.3 L 364.1 566.9 L 364.0 567.3 L 363.4 568.0 L 362.7 568.5 L 361.7 568.7 L 360.9 568.5 L 360.2 567.9 L 359.9 567.4 L 359.7 566.4 L 359.8 565.6 L 360.5 564.9 L 361.2 564.4 L 362.1 564.2 L 362.6 564.3 L 363.1 564.7 M 357.8 573.9 L 357.0 567.0 M 361.4 571.7 L 357.8 573.9 M 346.8 647.8 L 343.8 647.9 L 343.6 650.6 L 343.9 650.3 L 344.8 650.0 L 345.7 650.0 L 346.6 650.2 L 347.2 650.8 L 347.5 651.7 L 347.5 652.3 L 347.3 653.2 L 346.7 653.8 L 345.8 654.1 L 344.9 654.2 L 344.0 653.9 L 343.7 653.6 L 343.4 653.0 M 350.4 647.7 L 349.5 648.1 L 348.9 649.0 L 348.7 650.5 L 348.7 651.4 L 349.0 652.9 L 349.6 653.8 L 350.5 654.0 L 351.1 654.0 L 352.0 653.7 L 352.6 652.8 L 352.9 651.3 L 352.8 650.4 L 352.5 648.9 L 351.9 648.0 L 351.0 647.7 L 350.5 647.7 M 330.4 587.9 L 330.5 588.2 L 330.5 588.8 L 330.4 589.2 L 330.0 589.8 L 329.0 590.4 L 328.3 590.4 L 327.9 590.3 L 327.4 589.9 L 327.1 589.3 L 327.1 588.7 L 327.2 587.6 L 328.4 583.5 L 324.7 585.5 M 323.9 593.2 L 324.6 588.0 L 320.6 590.2 M 323.9 593.2 L 320.9 587.6 M 394.5 441.7 L 395.2 446.9 L 398.5 443.7 M 394.5 441.7 L 398.9 446.3 M 374.1 421.0 L 373.7 414.0 M 377.8 419.0 L 374.1 421.0 M 370.4 423.1 L 371.0 418.0 L 367.0 420.2 M 370.4 423.1 L 367.3 417.6 M 449.7 409.4 L 449.4 416.3 M 445.9 411.0 L 449.7 409.4 M 423.5 393.6 L 420.6 395.2 L 421.0 392.2 L 420.2 392.6 L 419.5 392.7 L 419.1 392.6 L 418.4 391.9 L 418.1 391.4 L 418.0 390.5 L 418.2 389.7 L 418.8 388.9 L 419.6 388.5 L 420.5 388.3 L 421.0 388.4 L 421.5 388.8 M 414.9 396.0 L 414.7 395.0 L 415.0 394.2 L 415.6 393.5 L 415.9 393.4 L 416.8 393.2 L 417.6 393.4 L 418.3 394.1 L 418.4 394.3 L 418.6 395.2 L 418.4 396.1 L 417.8 396.8 L 417.5 396.9 L 416.6 397.1 L 415.7 396.9 L 414.9 396.0 L 414.2 394.7 L 413.7 393.2 L 413.8 392.1 L 414.4 391.4 L 414.9 391.1 L 415.9 390.9 L 416.4 391.3 M 460.1 398.2 L 464.7 395.8 L 460.7 393.8 M 460.1 398.2 L 463.0 392.6 M 456.2 396.1 L 457.1 396.3 L 458.1 395.7 L 459.0 394.5 L 459.5 393.7 L 459.9 392.3 L 459.7 391.2 L 459.1 390.5 L 458.5 390.3 L 457.6 390.1 L 456.7 390.6 L 455.7 391.8 L 455.3 392.6 L 454.9 394.1 L 455.0 395.2 L 455.7 395.9 L 456.1 396.1 M 444.6 591.1 L 444.3 591.7 L 444.7 592.6 L 445.1 593.0 L 445.9 593.5 L 447.0 593.3 L 448.3 592.5 L 449.4 591.5 L 450.1 590.5 L 450.2 589.6 L 449.8 588.8 L 449.6 588.6 L 448.7 588.1 L 447.9 588.0 L 447.0 588.4 L 446.8 588.6 L 446.3 589.5 L 446.3 590.3 L 446.7 591.2 L 446.9 591.4 L 447.7 591.9 L 448.6 591.9 L 449.4 591.5 M 468.2 626.1 L 467.8 626.5 L 467.7 627.5 L 467.9 628.0 L 468.4 628.8 L 469.5 629.1 L 471.0 629.0 L 472.4 628.5 L 473.5 627.9 L 473.9 627.2 L 473.9 626.2 L 473.8 625.9 L 473.3 625.2 L 472.5 624.8 L 471.6 624.7 L 471.3 624.8 L 470.5 625.4 L 470.1 626.1 L 470.1 627.1 L 470.2 627.4 L 470.7 628.1 L 471.5 628.5 L 472.4 628.5 M 466.4 623.2 L 467.0 624.0 L 468.0 624.3 L 469.5 624.2 L 470.4 623.9 L 471.7 623.2 L 472.4 622.3 L 472.5 621.4 L 472.3 620.8 L 471.7 620.0 L 470.7 619.7 L 469.2 619.9 L 468.3 620.1 L 467.0 620.9 L 466.3 621.7 L 466.3 622.6 L 466.4 623.1 M 457.9 632.8 L 455.0 633.5 L 455.4 636.2 L 455.6 635.9 L 456.4 635.3 L 457.3 635.1 L 458.2 635.2 L 458.9 635.7 L 459.4 636.5 L 459.6 637.1 L 459.5 638.0 L 459.0 638.7 L 458.2 639.2 L 457.4 639.4 L 456.4 639.4 L 456.1 639.1 L 455.6 638.6 M 461.1 632.1 L 460.3 632.6 L 460.1 633.2 L 460.3 633.8 L 460.7 634.3 L 461.4 634.5 L 462.6 634.5 L 463.5 634.6 L 464.3 635.0 L 464.7 635.5 L 464.9 636.4 L 464.8 637.0 L 464.5 637.4 L 463.7 637.9 L 462.6 638.2 L 461.6 638.1 L 461.3 637.9 L 460.8 637.4 L 460.6 636.5 L 460.8 635.8 L 461.2 635.1 L 462.0 634.6 L 463.1 634.0 L 463.6 633.6 L 463.8 633.0 L 463.6 632.4 L 463.2 631.9 L 462.3 631.8 L 461.0 632.1 M 115.8 256.0 L 109.3 258.5 M 112.8 253.1 L 115.8 256.0 M 118.0 258.0 L 117.1 257.6 L 116.1 257.8 L 114.8 258.7 L 114.2 259.4 L 113.4 260.7 L 113.2 261.8 L 113.7 262.6 L 114.1 263.0 L 115.0 263.4 L 116.0 263.2 L 117.3 262.3 L 117.9 261.6 L 118.7 260.3 L 118.9 259.2 L 118.4 258.4 L 118.1 258.1 M 134.5 257.5 L 133.9 257.3 L 133.0 257.6 L 132.5 258.0 L 132.1 258.8 L 132.2 259.9 L 133.0 261.2 L 134.0 262.4 L 135.0 263.1 L 135.9 263.1 L 136.7 262.7 L 136.9 262.5 L 137.4 261.7 L 137.5 260.9 L 137.1 260.0 L 136.9 259.8 L 136.1 259.3 L 135.2 259.3 L 134.4 259.6 L 134.1 259.8 L 133.7 260.6 L 133.6 261.5 L 134.0 262.4 M 139.3 254.9 L 139.7 255.7 L 139.6 256.6 L 139.1 257.4 L 138.9 257.6 L 138.0 258.0 L 137.2 257.9 L 136.4 257.4 L 136.2 257.2 L 135.8 256.3 L 135.9 255.5 L 136.3 254.7 L 136.6 254.5 L 137.4 254.1 L 138.3 254.2 L 139.3 254.9 L 140.3 256.0 L 141.1 257.3 L 141.2 258.4 L 140.7 259.2 L 140.3 259.6 L 139.4 260.0 L 138.8 259.7 M 300.9 614.3 L 299.1 609.5 L 296.6 613.2 M 300.9 614.3 L 295.7 610.8 M 295.5 618.5 L 294.9 617.8 L 294.7 617.0 L 295.0 616.0 L 295.1 615.8 L 295.9 615.2 L 296.7 615.1 L 297.6 615.3 L 297.9 615.5 L 298.5 616.2 L 298.6 617.1 L 298.4 618.0 L 298.2 618.2 L 297.5 618.8 L 296.6 619.0 L 295.5 618.5 L 294.2 617.7 L 293.1 616.6 L 292.7 615.6 L 293.0 614.7 L 293.3 614.2 L 294.1 613.6 L 294.7 613.7 M 309.9 634.8 L 307.3 633.4 L 305.8 635.7 L 306.2 635.6 L 307.1 635.7 L 307.9 636.1 L 308.6 636.8 L 308.9 637.6 L 308.7 638.5 L 308.5 639.0 L 307.8 639.7 L 307.0 640.0 L 306.0 639.8 L 305.2 639.4 L 304.6 638.8 L 304.4 638.4 L 304.4 637.7 M 314.3 638.0 L 314.3 637.3 L 313.7 636.6 L 313.1 636.3 L 312.2 636.2 L 311.2 636.7 L 310.3 638.0 L 309.6 639.3 L 309.4 640.5 L 309.6 641.3 L 310.3 642.0 L 310.6 642.1 L 311.5 642.2 L 312.3 642.0 L 313.0 641.3 L 313.1 641.0 L 313.2 640.1 L 313.0 639.3 L 312.3 638.6 L 312.0 638.5 L 311.1 638.4 L 310.3 638.6 L 309.6 639.3 M 86.7 332.2 L 85.8 335.0 L 88.2 336.1 L 88.0 335.8 L 88.0 334.8 L 88.3 334.0 L 88.9 333.2 L 89.6 332.8 L 90.6 332.8 L 91.2 333.0 L 91.9 333.6 L 92.3 334.3 L 92.3 335.3 L 92.0 336.1 L 91.5 336.9 L 91.1 337.1 L 90.4 337.2 M 87.4 330.0 L 88.5 326.8 L 90.2 329.3 L 90.5 328.4 L 90.9 327.9 L 91.3 327.8 L 92.3 327.7 L 92.8 327.9 L 93.6 328.5 L 94.0 329.3 L 94.0 330.2 L 93.7 331.1 L 93.1 331.8 L 92.7 332.0 L 92.1 332.1 M 84.6 336.1 L 85.1 335.5 L 84.9 334.6 L 84.7 334.0 L 84.0 333.4 L 83.0 333.2 L 81.5 333.6 L 80.1 334.2 L 79.2 335.0 L 78.9 335.8 L 79.0 336.7 L 79.1 337.0 L 79.8 337.7 L 80.6 338.0 L 81.5 337.9 L 81.8 337.7 L 82.5 337.1 L 82.8 336.3 L 82.6 335.3 L 82.5 335.1 L 81.9 334.4 L 81.1 334.1 L 80.1 334.2 M 87.8 340.6 L 80.8 340.6 M 86.0 336.8 L 87.8 340.6"
       id="nums_001"
       stroke="black"
       stroke-width="1" />
    <path
       d="m 352.6,544.3 -18.2,-41.7 6.3,-23.1 -52.8,63.8 -34.3,-15.3 -41.5,-1.1 -18.6,2.1 -1.7,-1.9 3.2,-18.5 36.9,-29.5 20,-31.9 33.1,30.8 -15.4,-20 -0.1,-4.5 14.6,-20.7 -22.1,4.7 -3.3,-1.8 -7.4,-21.4 -26,0.2 -3.9,-2.7 -9,-24.4 -7.8,23.8 -23.8,5.1 -3.8,-1.9 -10.6,-21.9 -23.7,-4.1 -2.7,-3.1 -1.2,-24 8,-38.2 8.9,-74.6 -30.8,27.3 -27.9,-26.1 6.2,58.7 10.6,15.8 -9,27.4 -17.9,6.5 -16.6,-35.3 -23.4,-6.1 -27.8,-37 0.6,-24.1 10.7,-42.8 -4.8,-24.4 2,-3.9 22.2,-11.2 67.8,-49.7 38.4,-38.9 2.7,-38 27.5,15.6 6.3,-19.7 2.9,-1.4 19.3,7.3 15.9,-16.3 3.8,-0.3 18.3,13.6 18.4,-6.4 25.5,15.8 2.6,19.2 7.2,21.9 -1.5,3.7 -20.5,10.5 -31.7,-5.5 -17.4,7 -23.6,-14.3 -2,-18.7 -6,61.6 -30.7,20.4 -29.5,10 -58.5,19.9 19.7,-6.7 35.2,35 13.3,-15.6 3.1,-0.1 14.7,14.3 -11.7,-19 0.7,-3.6 17.7,-13.6 42,28 -2,37 7.8,-21.1 3.3,-1.7 21.7,5.6 -16.6,-8.9 -4.4,-27.4 13.1,-13.5 -19.8,-5.3 -16,-30 6.8,-19.3 48.4,-13.2 19.2,14.4 1.1,4.1 -9.9,21.9 25.5,60.4 -5.1,-20.4 18.7,-30.8 20.5,-4.8 -8.4,-18.4 13.1,-30.5 19.1,-6.5 -17.7,6.7 -2.2,-1.4 -2.1,-18.8 34.2,-29.7 21.1,-14 4.5,0.2 19.7,15.9 1,-25.8 48.2,36.3 -28.9,30.2 20.3,4.9 1.6,2.8 -5.7,20.1 20.7,17 1.5,4.8 -8,25.7 14.3,12.7 -1.6,28.9 -15.7,11 -17.6,11.9 -3.2,-0.6 -12,-17.6 5,-33.1 -18.5,-20.8 -7.4,-34.1 1.9,24.8 -2.3,3.7 -23.3,8.7 16.7,9.1 4.6,28.3 -12.9,14 5.5,19.1 -1.6,2.4 -19.6,2.5 8.8,18 -12.4,30 -19,6.5 -15.8,10.3 -26.3,-9.3 -5.8,-18 -3.2,19.4 -26.6,16.1 -18.6,-6.3 14.8,12.8 -0.3,31.1 -15.1,12.6 25.9,-5.1 4.5,1.9 14,22.4 19.8,-2.2 23.3,21.6 -0.6,19.8 50.6,-27.9 42.2,-23.6 50.4,25.8 -10.1,20.5 -38.9,16.6 -21.8,-7.1 -4.1,24.7 -3.3,3.1 -24.8,3 44.5,-2.6 71.2,28.9 -24,51.2 -44.6,24.3 39.7,43.6 8.3,27.5 -12.3,18.3 -3.5,0.9 -19.4,-10.8 -10.2,24.3 -4,2.6 -26.4,-1 -23.4,7.4 -4.1,-1.5 -13.1,-20.8 -12.3,15.3 -2.8,0.1 -12.9,-14.8 -18.8,7.4 -29.7,-14.9 -5.4,-19.4 23.8,-35.3 9.4,-22 3.6,-2 23.5,4.4 6.6,-21.6 3.2,-2 22.65,4.25 z"
       id="coupes_001"
       stroke="#ff0000"
       stroke-width="1.27"
       sodipodi:nodetypes="cccccccccccccccccccccccccccccccccccccccccccccccccccccccccccccccccccccccccccccccccccccccccccccccccccccccccccccccccccccccccccccccccccccccccccccccccccccccccccccccccccccccccccccccccccccccccccc" />
    <path
       d="M 305.8 284.2 L 376.3 246.7 M 376.3 246.7 L 353.7 301.2 M 297.9 212.3 L 376.3 246.7 M 305.8 284.2 L 297.9 212.3 M 392.0 222.7 L 376.3 246.7 M 297.9 212.3 L 392.0 222.7 M 383.6 171.3 L 392.0 222.7 M 297.9 212.3 L 332.0 156.3 M 332.0 156.3 L 355.8 100.9 M 355.8 100.9 L 383.6 171.3 M 355.8 100.9 L 368.0 57.7 M 368.0 57.7 L 407.3 134.1 M 368.0 57.7 L 433.6 100.5 M 368.0 57.7 L 413.3 59.8 M 413.3 59.8 L 433.6 100.5 M 413.3 59.8 L 462.5 70.3 M 449.8 128.3 L 414.7 168.2 M 464.0 175.8 L 414.7 168.2 M 464.0 175.8 L 433.2 189.0 M 461.0 228.4 L 428.2 222.1 M 355.8 100.9 L 333.8 87.4 M 250.5 229.1 L 297.9 212.3 M 217.7 246.3 L 250.5 229.1 M 305.8 284.2 L 217.7 246.3 M 257.4 313.4 L 217.7 246.3 M 211.9 342.6 L 217.7 246.3 M 155.7 248.5 L 217.7 246.3 M 171.0 217.5 L 217.7 246.3 M 211.9 342.6 L 146.8 323.1 M 155.7 248.5 L 139.9 218.9 M 139.9 218.9 L 171.0 217.5 M 211.9 342.6 L 212.3 387.4 M 212.3 387.4 L 138.8 361.3 M 212.3 387.4 L 166.4 392.5 M 204.6 411.2 L 166.4 392.5 M 155.7 248.5 L 97.0 249.7 M 85.0 190.6 L 139.9 218.9 M 30.4 212.8 L 85.0 190.6 M 97.0 249.7 L 30.4 212.8 M 30.4 212.8 L 49.8 173.3 M 49.8 173.3 L 85.0 190.6 M 256.8 369.9 L 211.9 342.6 M 251.3 414.3 L 212.5 387.4 M 256.8 369.9 L 284.1 432.8 M 284.1 432.8 L 251.3 414.3 M 301.2 389.1 L 284.1 432.8 M 256.8 369.9 L 301.2 389.1 M 301.2 389.1 L 343.7 428.3 M 343.7 428.3 L 284.1 432.8 M 343.7 428.3 L 285.0 478.0 M 285.0 478.0 L 284.1 432.8 M 343.7 428.3 L 340.7 479.5 M 340.7 479.5 L 285.0 478.0 M 287.9 543.3 L 285.0 478.0 M 253.6 528.0 L 285.0 478.0 M 231.9 479.1 L 285.0 478.0 M 212.1 526.9 L 231.9 479.1 M 103.2 308.4 L 30.4 212.8 M 70.3 322.8 L 19.7 255.6 M 117.6 123.6 L 85.0 190.6 M 156.0 84.7 L 173.0 160.7 M 156.0 84.7 L 186.2 62.3 M 186.2 62.3 L 173.0 160.7 M 186.2 62.3 L 203.7 140.3 M 186.2 62.3 L 209.7 78.7 M 186.2 62.3 L 214.7 48.5 M 214.7 48.5 L 209.7 78.7 M 214.7 48.5 L 252.7 104.7 M 214.7 48.5 L 252.7 45.5 M 252.7 45.5 L 284.4 110.2 M 299.2 74.1 L 284.4 110.2 M 252.7 45.5 L 299.2 74.1 M 250.5 229.1 L 242.6 179.3 M 242.6 179.3 L 297.9 212.3 M 213.6 124.7 L 272.4 151.9 M 343.7 428.3 L 383.9 463.4 M 383.9 463.4 L 340.7 479.5 M 383.9 463.4 L 401.6 514.0 M 401.6 514.0 L 340.7 479.5 M 428.4 460.8 L 475.6 540.9 M 475.6 540.9 L 401.6 514.0 M 431.0 565.2 L 401.6 514.0 M 373.8 555.4 L 340.7 479.5 M 443.8 644.7 L 373.1 554.9 M 443.8 644.7 L 403.2 670.6 M 403.2 670.6 L 373.1 554.9 M 403.2 670.6 L 362.6 655.7 M 362.6 655.7 L 373.1 554.9 M 362.6 655.7 L 341.0 574.5 M 362.6 655.7 L 334.6 656.3 M 334.6 656.3 L 341.0 574.5 M 334.6 656.3 L 304.5 594.1 M 416.1 432.6 L 383.9 463.4 M 343.7 428.3 L 416.1 432.6 M 394.3 400.4 L 416.1 432.6 M 486.9 402.6 L 416.1 432.6 M 394.3 400.4 L 486.9 402.6 M 470.7 608.8 L 443.8 644.7 M 479.0 636.3 L 443.8 644.7"
       id="plisM_001"
       stroke="brown"
       stroke-dasharray="4" />
    <path
       d="M 339.1 263.5 L 343.1 267.5 M 343.1 263.5 L 339.1 267.5 M 363.0 271.9 L 367.0 275.9 M 367.0 271.9 L 363.0 275.9 M 335.1 227.5 L 339.1 231.5 M 339.1 227.5 L 335.1 231.5 M 299.9 246.3 L 303.9 250.3 M 303.9 246.3 L 299.9 250.3 M 382.2 232.7 L 386.2 236.7 M 386.2 232.7 L 382.2 236.7 M 343.0 215.5 L 347.0 219.5 M 347.0 215.5 L 343.0 219.5 M 385.8 195.0 L 389.8 199.0 M 389.8 195.0 L 385.8 199.0 M 313.0 182.3 L 317.0 186.3 M 317.0 182.3 L 313.0 186.3 M 341.9 126.6 L 345.9 130.6 M 345.9 126.6 L 341.9 130.6 M 367.7 134.1 L 371.7 138.1 M 371.7 134.1 L 367.7 138.1 M 359.9 77.3 L 363.9 81.3 M 363.9 77.3 L 359.9 81.3 M 385.7 93.9 L 389.7 97.9 M 389.7 93.9 L 385.7 97.9 M 398.8 77.1 L 402.8 81.1 M 402.8 77.1 L 398.8 81.1 M 388.7 56.8 L 392.7 60.8 M 392.7 56.8 L 388.7 60.8 M 421.5 78.1 L 425.5 82.1 M 425.5 78.1 L 421.5 82.1 M 435.9 63.1 L 439.9 67.1 M 439.9 63.1 L 435.9 67.1 M 430.2 146.2 L 434.2 150.2 M 434.2 146.2 L 430.2 150.2 M 437.3 170.0 L 441.3 174.0 M 441.3 170.0 L 437.3 174.0 M 446.6 180.4 L 450.6 184.4 M 450.6 180.4 L 446.6 184.4 M 442.6 223.3 L 446.6 227.3 M 446.6 223.3 L 442.6 227.3 M 342.8 92.1 L 346.8 96.1 M 346.8 92.1 L 342.8 96.1 M 272.2 218.7 L 276.2 222.7 M 276.2 218.7 L 272.2 222.7 M 232.1 235.7 L 236.1 239.7 M 236.1 235.7 L 232.1 239.7 M 259.8 263.2 L 263.8 267.2 M 263.8 263.2 L 259.8 267.2 M 235.5 277.8 L 239.5 281.8 M 239.5 277.8 L 235.5 281.8 M 212.8 292.4 L 216.8 296.4 M 216.8 292.4 L 212.8 296.4 M 184.7 245.4 L 188.7 249.4 M 188.7 245.4 L 184.7 249.4 M 192.4 229.9 L 196.4 233.9 M 196.4 229.9 L 192.4 233.9 M 177.3 330.8 L 181.3 334.8 M 181.3 330.8 L 177.3 334.8 M 145.8 231.7 L 149.8 235.7 M 149.8 231.7 L 145.8 235.7 M 153.5 216.2 L 157.5 220.2 M 157.5 216.2 L 153.5 220.2 M 210.1 363.0 L 214.1 367.0 M 214.1 363.0 L 210.1 367.0 M 173.5 372.3 L 177.5 376.3 M 177.5 372.3 L 173.5 376.3 M 187.3 388.0 L 191.3 392.0 M 191.3 388.0 L 187.3 392.0 M 183.5 399.9 L 187.5 403.9 M 187.5 399.9 L 183.5 403.9 M 124.4 247.1 L 128.4 251.1 M 128.4 247.1 L 124.4 251.1 M 110.5 202.8 L 114.5 206.8 M 114.5 202.8 L 110.5 206.8 M 55.7 199.7 L 59.7 203.7 M 59.7 199.7 L 55.7 203.7 M 61.7 229.3 L 65.7 233.3 M 65.7 229.3 L 61.7 233.3 M 38.1 191.1 L 42.1 195.1 M 42.1 191.1 L 38.1 195.1 M 65.4 179.9 L 69.4 183.9 M 69.4 179.9 L 65.4 183.9 M 232.3 354.3 L 236.3 358.3 M 236.3 354.3 L 232.3 358.3 M 229.9 398.8 L 233.9 402.8 M 233.9 398.8 L 229.9 402.8 M 268.4 399.4 L 272.4 403.4 M 272.4 399.4 L 268.4 403.4 M 265.7 421.5 L 269.7 425.5 M 269.7 421.5 L 265.7 425.5 M 290.7 408.9 L 294.7 412.9 M 294.7 408.9 L 290.7 412.9 M 277.0 377.5 L 281.0 381.5 M 281.0 377.5 L 277.0 381.5 M 320.5 406.7 L 324.5 410.7 M 324.5 406.7 L 320.5 410.7 M 311.9 428.6 L 315.9 432.6 M 315.9 428.6 L 311.9 432.6 M 312.3 451.2 L 316.3 455.2 M 316.3 451.2 L 312.3 455.2 M 282.6 453.4 L 286.6 457.4 M 286.6 453.4 L 282.6 457.4 M 340.2 451.9 L 344.2 455.9 M 344.2 451.9 L 340.2 455.9 M 310.9 476.8 L 314.9 480.8 M 314.9 476.8 L 310.9 480.8 M 284.5 508.6 L 288.5 512.6 M 288.5 508.6 L 284.5 512.6 M 267.3 501.0 L 271.3 505.0 M 271.3 501.0 L 267.3 505.0 M 256.5 476.6 L 260.5 480.6 M 260.5 476.6 L 256.5 480.6 M 220.0 501.0 L 224.0 505.0 M 224.0 501.0 L 220.0 505.0 M 64.8 258.6 L 68.8 262.6 M 68.8 258.6 L 64.8 262.6 M 43.0 287.2 L 47.0 291.2 M 47.0 287.2 L 43.0 291.2 M 99.3 155.1 L 103.3 159.1 M 103.3 155.1 L 99.3 159.1 M 162.5 120.7 L 166.5 124.7 M 166.5 120.7 L 162.5 124.7 M 169.1 71.5 L 173.1 75.5 M 173.1 71.5 L 169.1 75.5 M 177.6 109.5 L 181.6 113.5 M 181.6 109.5 L 177.6 113.5 M 193.0 99.3 L 197.0 103.3 M 197.0 99.3 L 193.0 103.3 M 196.0 68.5 L 200.0 72.5 M 200.0 68.5 L 196.0 72.5 M 198.5 53.4 L 202.5 57.4 M 202.5 53.4 L 198.5 57.4 M 210.2 61.6 L 214.2 65.6 M 214.2 61.6 L 210.2 65.6 M 231.7 74.6 L 235.7 78.6 M 235.7 74.6 L 231.7 78.6 M 231.7 45.0 L 235.7 49.0 M 235.7 45.0 L 231.7 49.0 M 266.6 75.8 L 270.6 79.8 M 270.6 75.8 L 266.6 79.8 M 289.8 90.2 L 293.8 94.2 M 293.8 90.2 L 289.8 94.2 M 274.0 57.8 L 278.0 61.8 M 278.0 57.8 L 274.0 61.8 M 244.5 202.2 L 248.5 206.2 M 248.5 202.2 L 244.5 206.2 M 268.2 193.8 L 272.2 197.8 M 272.2 193.8 L 268.2 197.8 M 241.0 136.3 L 245.0 140.3 M 245.0 136.3 L 241.0 140.3 M 361.8 443.9 L 365.8 447.9 M 365.8 443.9 L 361.8 447.9 M 360.3 469.5 L 364.3 473.5 M 364.3 469.5 L 360.3 473.5 M 390.7 486.7 L 394.7 490.7 M 394.7 486.7 L 390.7 490.7 M 369.1 494.8 L 373.1 498.8 M 373.1 494.8 L 369.1 498.8 M 450.0 498.9 L 454.0 502.9 M 454.0 498.9 L 450.0 502.9 M 436.6 525.5 L 440.6 529.5 M 440.6 525.5 L 436.6 529.5 M 414.3 537.6 L 418.3 541.6 M 418.3 537.6 L 414.3 541.6 M 355.3 515.5 L 359.3 519.5 M 359.3 515.5 L 355.3 519.5 M 406.5 597.8 L 410.5 601.8 M 410.5 597.8 L 406.5 601.8 M 421.5 655.7 L 425.5 659.7 M 425.5 655.7 L 421.5 659.7 M 386.1 610.7 L 390.1 614.7 M 390.1 610.7 L 386.1 614.7 M 380.9 661.2 L 384.9 665.2 M 384.9 661.2 L 380.9 665.2 M 365.9 603.3 L 369.9 607.3 M 369.9 603.3 L 365.9 607.3 M 349.8 613.1 L 353.8 617.1 M 353.8 613.1 L 349.8 617.1 M 346.6 654.0 L 350.6 658.0 M 350.6 654.0 L 346.6 658.0 M 335.8 613.4 L 339.8 617.4 M 339.8 613.4 L 335.8 617.4 M 317.6 623.2 L 321.6 627.2 M 321.6 623.2 L 317.6 627.2 M 398.0 446.0 L 402.0 450.0 M 402.0 446.0 L 398.0 450.0 M 377.9 428.5 L 381.9 432.5 M 381.9 428.5 L 377.9 432.5 M 403.2 414.5 L 407.2 418.5 M 407.2 414.5 L 403.2 418.5 M 449.5 415.6 L 453.5 419.6 M 453.5 415.6 L 449.5 419.6 M 438.6 399.5 L 442.6 403.5 M 442.6 399.5 L 438.6 403.5 M 455.3 624.8 L 459.3 628.8 M 459.3 624.8 L 455.3 628.8 M 459.4 638.5 L 463.4 642.5 M 463.4 638.5 L 459.4 642.5"
       display="none"
       id="marqueM_001"
       stroke="brown" />
    <path
       d="M 353.7 301.2 L 305.8 284.2 M 297.9 212.3 L 383.6 171.3 M 332.0 156.3 L 383.6 171.3 M 355.8 100.9 L 407.3 134.1 M 407.3 134.1 L 383.6 171.3 M 433.6 100.5 L 407.3 134.1 M 433.6 100.5 L 449.8 128.3 M 449.8 128.3 L 407.3 134.1 M 449.8 128.3 L 464.0 175.8 M 464.0 175.8 L 461.0 228.4 M 461.0 228.4 L 433.2 189.0 M 305.8 284.2 L 250.5 229.1 M 305.8 284.2 L 257.4 313.4 M 257.4 313.4 L 211.9 342.6 M 211.9 342.6 L 155.7 248.5 M 155.7 248.5 L 171.0 217.5 M 171.0 217.5 L 219.7 209.3 M 171.0 217.5 L 177.7 181.3 M 212.3 387.4 L 146.8 323.1 M 166.4 392.5 L 138.8 361.3 M 97.0 249.7 L 139.9 218.9 M 97.0 249.7 L 85.0 190.6 M 257.4 313.4 L 256.8 369.9 M 256.8 369.9 L 212.5 387.4 M 256.8 369.9 L 251.3 414.3 M 253.6 528.0 L 231.9 479.1 M 103.2 308.4 L 70.3 322.8 M 70.3 322.8 L 30.4 212.8 M 117.6 123.6 L 143.5 170.7 M 117.6 123.6 L 173.0 160.7 M 212.1 526.9 L 195.0 508.6 M 252.7 104.7 L 209.7 78.7 M 252.7 45.5 L 252.7 104.7 M 242.6 179.3 L 272.4 151.9 M 242.6 179.3 L 213.6 124.7 M 262.0 111.5 L 272.4 151.9 M 428.4 460.8 L 401.6 514.0 M 431.0 565.2 L 373.1 554.9 M 373.1 554.9 L 401.6 514.0 M 431.0 565.2 L 443.8 644.7 M 341.0 574.5 L 373.1 554.9 M 304.5 594.1 L 341.0 574.5 M 334.6 656.3 L 280.7 629.4 M 103.2 308.4 L 86.9 358.1"
       id="plisV_001"
       stroke="green"
       stroke-dasharray="4 1 1 1"
       stroke-width="1.27" />
    <path
       d="M 327.8 290.7 L 331.8 294.7 M 331.8 290.7 L 327.8 294.7 M 338.7 189.8 L 342.7 193.8 M 342.7 189.8 L 338.7 193.8 M 355.8 161.8 L 359.8 165.8 M 359.8 161.8 L 355.8 165.8 M 379.5 115.5 L 383.5 119.5 M 383.5 115.5 L 379.5 119.5 M 393.4 150.7 L 397.4 154.7 M 397.4 150.7 L 393.4 154.7 M 418.5 115.3 L 422.5 119.3 M 422.5 115.3 L 418.5 119.3 M 439.7 112.4 L 443.7 116.4 M 443.7 112.4 L 439.7 116.4 M 426.5 129.2 L 430.5 133.2 M 430.5 129.2 L 426.5 133.2 M 454.9 150.0 L 458.9 154.0 M 458.9 150.0 L 454.9 154.0 M 460.5 200.1 L 464.5 204.1 M 464.5 200.1 L 460.5 204.1 M 445.1 206.7 L 449.1 210.7 M 449.1 206.7 L 445.1 210.7 M 276.2 254.7 L 280.2 258.7 M 280.2 254.7 L 276.2 258.7 M 279.6 296.8 L 283.6 300.8 M 283.6 296.8 L 279.6 300.8 M 232.6 326.0 L 236.6 330.0 M 236.6 326.0 L 232.6 330.0 M 181.8 293.6 L 185.8 297.6 M 185.8 293.6 L 181.8 297.6 M 161.4 231.0 L 165.4 235.0 M 165.4 231.0 L 161.4 235.0 M 193.4 211.4 L 197.4 215.4 M 197.4 211.4 L 193.4 215.4 M 172.4 197.4 L 176.4 201.4 M 176.4 197.4 L 172.4 201.4 M 177.6 353.2 L 181.6 357.2 M 181.6 353.2 L 177.6 357.2 M 150.6 374.9 L 154.6 378.9 M 154.6 374.9 L 150.6 378.9 M 116.5 232.3 L 120.5 236.3 M 120.5 232.3 L 116.5 236.3 M 89.0 218.1 L 93.0 222.1 M 93.0 218.1 L 89.0 222.1 M 255.1 339.6 L 259.1 343.6 M 259.1 339.6 L 255.1 343.6 M 232.7 376.6 L 236.7 380.6 M 236.7 376.6 L 232.7 380.6 M 252.1 390.1 L 256.1 394.1 M 256.1 390.1 L 252.1 394.1 M 240.7 501.6 L 244.7 505.6 M 244.7 501.6 L 240.7 505.6 M 84.7 313.6 L 88.7 317.6 M 88.7 313.6 L 84.7 317.6 M 48.3 265.8 L 52.3 269.8 M 52.3 265.8 L 48.3 269.8 M 128.6 145.2 L 132.6 149.2 M 132.6 145.2 L 128.6 149.2 M 143.3 140.1 L 147.3 144.1 M 147.3 140.1 L 143.3 144.1 M 201.6 515.8 L 205.6 519.8 M 205.6 515.8 L 201.6 519.8 M 229.2 89.7 L 233.2 93.7 M 233.2 89.7 L 229.2 93.7 M 250.7 73.1 L 254.7 77.1 M 254.7 73.1 L 250.7 77.1 M 255.5 163.6 L 259.5 167.6 M 259.5 163.6 L 255.5 167.6 M 226.1 150.0 L 230.1 154.0 M 230.1 150.0 L 226.1 154.0 M 265.2 129.7 L 269.2 133.7 M 269.2 129.7 L 265.2 133.7 M 413.0 485.4 L 417.0 489.4 M 417.0 485.4 L 413.0 489.4 M 400.0 558.1 L 404.0 562.1 M 404.0 558.1 L 400.0 562.1 M 385.3 532.4 L 389.3 536.4 M 389.3 532.4 L 385.3 536.4 M 435.4 603.0 L 439.4 607.0 M 439.4 603.0 L 435.4 607.0 M 355.1 562.7 L 359.1 566.7 M 359.1 562.7 L 355.1 566.7 M 320.8 582.3 L 324.8 586.3 M 324.8 582.3 L 320.8 586.3 M 305.7 640.8 L 309.7 644.8 M 309.7 640.8 L 305.7 644.8 M 93.0 331.2 L 97.0 335.2 M 97.0 331.2 L 93.0 335.2"
       id="marqueV_001"
       stroke="green" />
    <path
       d="M 258.0 272.4 L 259.5 271.7 L 261.8 269.4 L 261.8 285.2"
       id="titre_1"
       stroke="indigo" />
  </g>
  <g
     id="page_002">
    <path
       d="M 849.2 437.9 L 847.6 435.0 L 850.6 435.5 L 850.1 434.7 L 850.1 434.0 L 850.2 433.6 L 850.9 432.9 L 851.4 432.6 L 852.4 432.5 L 853.2 432.7 L 853.9 433.3 L 854.3 434.1 L 854.5 435.1 L 854.3 435.5 L 853.9 436.0 M 845.4 431.0 L 850.5 431.7 L 848.3 427.7 M 845.4 431.0 L 850.9 428.0 M 848.7 443.9 L 848.5 443.2 L 847.8 442.2 L 854.0 443.3 M 838.7 472.0 L 838.7 472.9 L 839.4 473.8 L 840.7 474.6 L 841.6 474.9 L 843.1 475.1 L 844.1 474.8 L 844.7 474.0 L 844.9 473.4 L 844.9 472.5 L 844.2 471.6 L 842.9 470.9 L 842.1 470.6 L 840.5 470.4 L 839.5 470.7 L 838.9 471.4 L 838.8 471.8 M 812.1 483.8 L 812.2 483.5 L 812.6 483.0 L 812.9 482.8 L 813.6 482.6 L 814.8 482.8 L 815.3 483.2 L 815.5 483.5 L 815.7 484.2 L 815.6 484.8 L 815.2 485.3 L 814.5 486.1 L 811.0 488.5 L 815.1 489.2 M 817.6 484.8 L 817.7 484.5 L 818.1 484.0 L 818.4 483.7 L 819.0 483.5 L 820.2 483.7 L 820.8 484.1 L 821.0 484.5 L 821.2 485.1 L 821.1 485.7 L 820.7 486.3 L 820.0 487.0 L 816.5 489.5 L 820.6 490.2 M 716.6 429.9 L 716.8 429.8 L 717.5 429.9 L 717.9 430.1 L 718.3 430.6 L 718.7 431.8 L 718.5 432.4 L 718.3 432.8 L 717.8 433.2 L 717.3 433.4 L 716.6 433.3 L 715.6 433.0 L 711.9 430.9 L 713.0 434.9 M 720.4 437.8 L 719.5 434.9 L 716.9 435.3 L 717.2 435.5 L 717.8 436.3 L 718.0 437.2 L 718.0 438.1 L 717.6 438.9 L 716.8 439.4 L 716.2 439.6 L 715.3 439.5 L 714.5 439.1 L 714.0 438.3 L 713.7 437.5 L 713.8 436.5 L 714.0 436.1 L 714.5 435.7 M 776.9 542.3 L 776.6 542.2 L 776.0 541.8 L 775.8 541.5 L 775.6 540.9 L 775.8 539.7 L 776.2 539.1 L 776.5 538.9 L 777.1 538.7 L 777.7 538.8 L 778.3 539.1 L 779.1 539.9 L 781.6 543.3 L 782.2 539.1 M 777.5 537.3 L 777.3 536.7 L 776.6 535.7 L 782.8 536.6 M 694.2 349.4 L 694.2 349.1 L 694.4 348.5 L 694.7 348.1 L 695.3 347.8 L 696.5 347.7 L 697.1 348.0 L 697.4 348.3 L 697.7 348.8 L 697.8 349.4 L 697.5 350.1 L 697.0 351.0 L 694.2 354.2 L 698.4 353.9 M 791.6 308.4 L 792.0 305.1 L 794.2 307.3 L 794.3 306.4 L 794.7 305.8 L 795.0 305.6 L 795.9 305.4 L 796.5 305.5 L 797.4 305.9 L 797.9 306.6 L 798.1 307.6 L 797.9 308.5 L 797.5 309.3 L 797.1 309.5 L 796.5 309.8 M 792.8 300.2 L 792.4 303.1 L 795.0 303.8 L 794.7 303.5 L 794.6 302.5 L 794.7 301.7 L 795.1 300.8 L 795.8 300.3 L 796.7 300.1 L 797.3 300.2 L 798.2 300.7 L 798.7 301.4 L 798.9 302.3 L 798.7 303.2 L 798.3 304.0 L 797.9 304.3 L 797.3 304.5 M 785.1 241.5 L 782.6 239.2 L 785.6 238.7 L 784.9 238.1 L 784.7 237.4 L 784.7 237.0 L 785.0 236.1 L 785.5 235.7 L 786.3 235.2 L 787.1 235.2 L 788.0 235.6 L 788.7 236.2 L 789.1 237.0 L 789.1 237.5 L 789.0 238.1 M 779.5 235.1 L 779.3 235.8 L 779.8 236.6 L 780.2 237.0 L 781.1 237.4 L 782.2 237.2 L 783.4 236.2 L 784.4 235.1 L 785.0 234.1 L 785.0 233.2 L 784.5 232.4 L 784.3 232.2 L 783.4 231.8 L 782.6 231.8 L 781.7 232.3 L 781.5 232.5 L 781.1 233.4 L 781.2 234.2 L 781.6 235.0 L 781.9 235.3 L 782.7 235.6 L 783.6 235.6 L 784.4 235.1 M 689.4 204.7 L 691.8 206.6 L 693.7 204.6 L 693.2 204.7 L 692.3 204.3 L 691.6 203.8 L 691.1 203.0 L 691.0 202.2 L 691.3 201.3 L 691.7 200.8 L 692.5 200.3 L 693.3 200.2 L 694.2 200.5 L 694.9 201.0 L 695.4 201.8 L 695.5 202.2 L 695.4 202.9 M 687.5 203.3 L 684.9 201.2 L 687.8 200.5 L 687.1 199.9 L 686.8 199.3 L 686.8 198.9 L 687.1 198.0 L 687.5 197.5 L 688.3 197.0 L 689.1 196.9 L 690.0 197.2 L 690.7 197.8 L 691.2 198.5 L 691.3 199.0 L 691.2 199.6 M 666.6 204.2 L 664.9 199.3 L 662.3 203.0 M 666.6 204.2 L 661.4 200.5 M 664.7 206.8 L 662.8 209.5 L 661.9 206.6 L 661.3 207.4 L 660.8 207.7 L 660.3 207.8 L 659.4 207.5 L 658.9 207.1 L 658.4 206.4 L 658.2 205.5 L 658.5 204.6 L 659.0 203.9 L 659.8 203.3 L 660.2 203.3 L 660.9 203.4 M 679.1 352.8 L 679.6 352.3 L 680.2 351.2 L 682.1 357.2 M 685.1 349.4 L 684.2 356.3 M 681.1 350.7 L 685.1 349.4 M 656.9 358.6 L 660.0 357.6 L 659.1 360.4 L 659.9 360.1 L 660.6 360.2 L 661.0 360.4 L 661.5 361.2 L 661.7 361.7 L 661.7 362.7 L 661.3 363.4 L 660.6 364.0 L 659.7 364.3 L 658.8 364.3 L 658.4 364.1 L 657.9 363.6 M 617.3 330.8 L 617.9 331.1 L 619.2 331.2 L 614.4 335.2 M 621.8 335.2 L 622.0 334.6 L 621.7 333.7 L 621.3 333.3 L 620.5 332.8 L 619.4 332.9 L 618.1 333.6 L 616.9 334.6 L 616.2 335.6 L 616.1 336.5 L 616.5 337.3 L 616.7 337.6 L 617.5 338.1 L 618.3 338.1 L 619.2 337.8 L 619.4 337.6 L 619.9 336.8 L 620.0 335.9 L 619.6 335.1 L 619.5 334.8 L 618.6 334.3 L 617.8 334.3 L 616.9 334.6 M 705.7 385.5 L 706.6 388.7 L 703.8 387.6 L 704.0 388.5 L 703.9 389.1 L 703.7 389.5 L 702.9 390.0 L 702.3 390.2 L 701.3 390.1 L 700.6 389.7 L 700.1 388.9 L 699.8 388.1 L 699.9 387.1 L 700.1 386.7 L 700.6 386.3 M 698.0 360.5 L 698.5 361.0 L 699.5 361.8 L 693.3 363.0 M 700.7 366.8 L 694.0 365.1 M 699.9 362.7 L 700.7 366.8 M 701.4 363.4 L 701.5 363.7 L 701.4 364.4 L 701.3 364.7 L 700.8 365.2 L 699.7 365.7 L 699.0 365.6 L 698.6 365.4 L 698.1 364.9 L 697.9 364.4 L 698.0 363.7 L 698.3 362.7 L 700.0 358.8 L 696.1 360.3 M 618.6 226.9 L 618.9 227.5 L 619.8 227.9 L 620.4 227.9 L 621.3 227.7 L 622.0 226.8 L 622.4 225.4 L 622.5 223.9 L 622.3 222.7 L 621.8 222.0 L 620.9 221.6 L 620.6 221.6 L 619.7 221.8 L 619.0 222.4 L 618.7 223.2 L 618.6 223.5 L 618.9 224.5 L 619.4 225.1 L 620.3 225.5 L 620.6 225.5 L 621.5 225.3 L 622.1 224.8 L 622.5 223.9 M 616.5 227.6 L 613.3 227.3 L 615.3 225.0 L 614.4 225.0 L 613.8 224.6 L 613.5 224.3 L 613.3 223.4 L 613.4 222.8 L 613.7 221.9 L 614.4 221.4 L 615.3 221.1 L 616.2 221.2 L 617.1 221.6 L 617.3 221.9 L 617.6 222.5 M 573.1 276.6 L 573.4 276.0 L 573.1 275.1 L 572.7 274.7 L 571.9 274.1 L 570.8 274.2 L 569.4 275.0 L 568.3 275.9 L 567.5 276.9 L 567.4 277.7 L 567.8 278.6 L 568.0 278.8 L 568.8 279.4 L 569.6 279.4 L 570.5 279.1 L 570.7 278.9 L 571.2 278.1 L 571.3 277.3 L 571.0 276.4 L 570.8 276.2 L 570.0 275.7 L 569.2 275.6 L 568.3 275.9 M 576.7 279.6 L 571.6 279.9 L 574.4 283.4 M 576.7 279.6 L 571.8 283.6 M 578.8 240.8 L 578.6 241.5 L 578.7 242.8 L 574.0 238.5 M 573.8 245.2 L 573.4 244.3 L 573.3 243.5 L 573.7 242.6 L 573.9 242.4 L 574.8 241.9 L 575.6 241.9 L 576.5 242.3 L 576.7 242.5 L 577.2 243.3 L 577.2 244.2 L 576.8 245.1 L 576.6 245.3 L 575.8 245.7 L 574.9 245.8 L 573.8 245.2 L 572.7 244.1 L 571.8 242.9 L 571.6 241.8 L 572.0 241.0 L 572.4 240.5 L 573.2 240.1 L 573.9 240.3 M 840.5 324.2 L 838.1 326.5 L 837.8 323.5 L 837.1 324.1 L 836.5 324.3 L 836.1 324.3 L 835.2 323.8 L 834.8 323.4 L 834.4 322.5 L 834.4 321.7 L 834.9 320.9 L 835.5 320.2 L 836.4 319.8 L 836.8 319.9 L 837.5 320.1 M 834.5 329.9 L 836.6 327.9 L 835.0 325.7 L 835.0 326.1 L 834.5 327.0 L 833.9 327.6 L 833.0 328.0 L 832.2 328.0 L 831.3 327.5 L 830.9 327.1 L 830.5 326.2 L 830.6 325.4 L 831.0 324.5 L 831.7 323.9 L 832.5 323.5 L 832.9 323.5 L 833.6 323.7 M 858.3 419.8 L 860.5 422.3 L 857.5 422.5 L 858.1 423.2 L 858.3 423.8 L 858.2 424.3 L 857.8 425.1 L 857.3 425.5 L 856.4 425.9 L 855.6 425.8 L 854.8 425.3 L 854.2 424.7 L 853.8 423.8 L 853.8 423.4 L 854.1 422.8 M 863.6 425.6 L 858.4 426.2 L 861.5 429.6 M 863.6 425.6 L 858.9 429.8 M 898.9 322.4 L 902.1 328.6 M 896.4 325.7 L 898.9 322.4 M 902.5 319.1 L 901.8 319.0 L 901.0 319.5 L 900.7 320.0 L 900.4 320.9 L 900.7 321.9 L 901.7 323.1 L 902.9 324.0 L 904.1 324.5 L 904.9 324.3 L 905.7 323.8 L 905.9 323.6 L 906.2 322.7 L 906.1 321.8 L 905.5 321.0 L 905.3 320.9 L 904.4 320.6 L 903.6 320.7 L 902.8 321.2 L 902.6 321.5 L 902.3 322.4 L 902.4 323.2 L 902.9 324.0 M 907.7 294.4 L 912.4 296.6 L 911.6 292.2 M 907.7 294.4 L 913.9 293.3 M 907.6 288.0 L 907.0 288.4 L 906.9 289.4 L 907.0 290.0 L 907.4 290.8 L 908.4 291.2 L 910.0 291.3 L 911.4 291.0 L 912.6 290.5 L 913.1 289.8 L 913.2 288.9 L 913.1 288.6 L 912.7 287.7 L 912.0 287.3 L 911.1 287.1 L 910.8 287.2 L 909.9 287.6 L 909.4 288.3 L 909.3 289.3 L 909.3 289.6 L 909.8 290.4 L 910.5 290.9 L 911.4 291.0 M 869.8 249.9 L 870.6 253.1 L 867.9 252.0 L 868.1 252.9 L 868.0 253.5 L 867.8 253.9 L 867.0 254.4 L 866.4 254.6 L 865.4 254.5 L 864.7 254.1 L 864.2 253.3 L 863.9 252.5 L 864.0 251.5 L 864.2 251.1 L 864.7 250.7 M 871.1 258.2 L 871.6 257.8 L 871.7 256.8 L 871.5 256.2 L 871.0 255.4 L 870.0 255.1 L 868.4 255.2 L 867.0 255.6 L 865.9 256.2 L 865.5 257.0 L 865.4 257.9 L 865.5 258.2 L 866.0 259.0 L 866.8 259.4 L 867.7 259.5 L 868.0 259.4 L 868.8 258.8 L 869.2 258.1 L 869.3 257.2 L 869.2 256.9 L 868.7 256.1 L 867.9 255.7 L 867.0 255.6 M 876.5 219.4 L 877.1 219.6 L 878.0 219.2 L 878.4 218.8 L 878.9 218.0 L 878.7 216.9 L 877.9 215.6 L 876.9 214.5 L 875.9 213.8 L 875.0 213.8 L 874.1 214.2 L 873.9 214.4 L 873.5 215.2 L 873.4 216.1 L 873.8 216.9 L 874.0 217.1 L 874.8 217.6 L 875.7 217.6 L 876.6 217.3 L 876.8 217.1 L 877.2 216.2 L 877.3 215.4 L 876.9 214.5 M 871.7 222.1 L 871.3 221.2 L 871.4 220.4 L 871.8 219.6 L 872.0 219.4 L 872.9 219.0 L 873.8 219.0 L 874.6 219.5 L 874.8 219.7 L 875.2 220.6 L 875.1 221.4 L 874.7 222.2 L 874.5 222.4 L 873.6 222.8 L 872.7 222.8 L 871.7 222.1 L 870.7 221.0 L 869.9 219.7 L 869.7 218.6 L 870.2 217.8 L 870.6 217.4 L 871.5 217.0 L 872.1 217.2 M 892.0 241.3 L 897.0 242.7 L 895.4 238.5 M 892.0 241.3 L 897.9 239.1 M 889.9 235.9 L 894.9 237.2 L 893.3 233.0 M 889.9 235.9 L 895.8 233.7 M 685.9 565.4 L 686.4 565.0 L 686.7 564.1 L 686.7 563.5 L 686.3 562.6 L 685.4 562.1 L 683.9 561.9 L 682.4 562.0 L 681.2 562.3 L 680.6 563.0 L 680.4 563.9 L 680.4 564.2 L 680.7 565.1 L 681.4 565.6 L 682.3 565.9 L 682.6 565.9 L 683.5 565.5 L 684.0 564.9 L 684.3 564.0 L 684.3 563.7 L 683.9 562.8 L 683.3 562.2 L 682.4 562.0 M 687.1 569.9 L 682.7 567.2 L 683.0 571.6 M 687.1 569.9 L 680.8 570.3 M 729.7 623.0 L 726.9 624.1 L 727.7 626.7 L 727.8 626.3 L 728.6 625.7 L 729.4 625.4 L 730.3 625.3 L 731.1 625.6 L 731.7 626.4 L 732.0 626.9 L 732.0 627.9 L 731.7 628.6 L 731.0 629.3 L 730.1 629.6 L 729.2 629.6 L 728.8 629.5 L 728.3 629.0 M 733.0 621.6 L 732.3 622.3 L 732.1 623.3 L 732.4 624.8 L 732.7 625.7 L 733.5 626.9 L 734.4 627.5 L 735.4 627.5 L 735.9 627.3 L 736.6 626.7 L 736.9 625.6 L 736.6 624.1 L 736.3 623.3 L 735.4 622.0 L 734.5 621.4 L 733.6 621.4 L 733.2 621.6 M 686.3 608.1 L 686.6 608.2 L 687.2 608.5 L 687.5 608.8 L 687.7 609.4 L 687.7 610.6 L 687.3 611.2 L 687.0 611.5 L 686.4 611.8 L 685.8 611.7 L 685.2 611.4 L 684.4 610.7 L 681.5 607.6 L 681.3 611.8 M 687.4 615.1 L 687.2 614.2 L 686.3 613.5 L 684.8 613.1 L 683.9 613.1 L 682.4 613.3 L 681.5 613.8 L 681.1 614.7 L 681.1 615.3 L 681.4 616.2 L 682.2 616.9 L 683.7 617.3 L 684.6 617.3 L 686.1 617.1 L 687.0 616.6 L 687.4 615.7 L 687.4 615.2 M 698.3 624.1 L 694.9 627.9 L 699.3 628.4 M 698.3 624.1 L 697.6 630.3 M 701.3 626.0 L 701.3 625.7 L 701.7 625.1 L 702.0 624.9 L 702.7 624.6 L 703.9 624.8 L 704.4 625.2 L 704.7 625.5 L 704.9 626.1 L 704.8 626.7 L 704.5 627.3 L 703.7 628.1 L 700.4 630.7 L 704.6 631.2 M 742.5 199.9 L 740.7 193.2 M 745.7 197.2 L 742.5 199.9 M 740.7 199.5 L 740.5 200.2 L 740.4 201.4 L 736.3 196.6 M 754.6 196.6 L 761.3 198.4 M 755.3 200.7 L 754.6 196.6 M 754.0 193.7 L 754.5 194.5 L 755.5 194.9 L 757.0 195.0 L 757.9 194.8 L 759.3 194.2 L 760.1 193.5 L 760.2 192.5 L 760.1 191.9 L 759.6 191.1 L 758.6 190.7 L 757.1 190.7 L 756.2 190.8 L 754.8 191.4 L 754.0 192.2 L 753.9 193.1 L 754.0 193.5 M 776.7 628.9 L 774.0 627.7 L 772.6 630.0 L 773.0 629.9 L 773.9 630.0 L 774.8 630.3 L 775.5 631.0 L 775.8 631.8 L 775.7 632.7 L 775.4 633.3 L 774.8 634.0 L 774.0 634.3 L 773.0 634.2 L 772.2 633.8 L 771.5 633.2 L 771.4 632.8 L 771.3 632.1 M 781.2 631.9 L 781.2 631.2 L 780.5 630.6 L 780.0 630.3 L 779.0 630.2 L 778.1 630.8 L 777.2 632.1 L 776.6 633.4 L 776.4 634.7 L 776.7 635.5 L 777.4 636.1 L 777.7 636.2 L 778.6 636.3 L 779.4 636.0 L 780.0 635.3 L 780.2 635.0 L 780.3 634.1 L 779.9 633.3 L 779.2 632.7 L 779.0 632.5 L 778.0 632.4 L 777.2 632.7 L 776.6 633.4 M 808.4 597.5 L 808.4 597.8 L 808.1 598.4 L 807.8 598.7 L 807.2 599.0 L 806.0 598.9 L 805.4 598.6 L 805.1 598.3 L 804.8 597.7 L 804.8 597.1 L 805.1 596.5 L 805.8 595.6 L 808.9 592.7 L 804.7 592.6 M 802.7 598.8 L 799.4 598.7 L 801.3 596.4 L 800.4 596.3 L 799.8 596.0 L 799.5 595.7 L 799.3 594.8 L 799.3 594.2 L 799.6 593.3 L 800.2 592.7 L 801.1 592.5 L 802.0 592.5 L 802.9 592.8 L 803.2 593.1 L 803.5 593.7 M 815.8 634.4 L 814.8 639.4 L 818.9 637.6 M 815.8 634.4 L 818.4 640.2 M 822.0 631.8 L 821.8 638.7 M 818.2 633.5 L 822.0 631.8 M 828.0 614.9 L 834.8 616.4 M 828.9 619.0 L 828.0 614.9 M 827.8 610.1 L 827.3 610.5 L 827.2 611.5 L 827.3 612.0 L 827.8 612.9 L 828.8 613.2 L 830.4 613.2 L 831.8 612.8 L 832.9 612.3 L 833.4 611.6 L 833.4 610.6 L 833.4 610.3 L 832.9 609.5 L 832.2 609.1 L 831.2 609.0 L 830.9 609.0 L 830.1 609.5 L 829.7 610.3 L 829.6 611.2 L 829.7 611.5 L 830.1 612.3 L 830.9 612.8 L 831.8 612.8 M 918.5 364.5 L 918.4 364.8 L 917.8 365.2 L 917.4 365.3 L 916.7 365.3 L 915.7 364.7 L 915.3 364.2 L 915.2 363.8 L 915.2 363.1 L 915.5 362.6 L 916.0 362.2 L 917.0 361.7 L 921.0 360.4 L 917.3 358.5 M 912.8 363.2 L 909.9 361.6 L 912.6 360.4 L 911.8 359.9 L 911.5 359.4 L 911.3 359.0 L 911.5 358.1 L 911.8 357.5 L 912.5 356.9 L 913.3 356.6 L 914.2 356.8 L 915.0 357.2 L 915.7 357.9 L 915.8 358.3 L 915.8 359.0 M 869.7 432.9 L 870.3 433.0 L 871.6 432.8 L 867.7 437.8 M 896.0 450.3 L 895.0 450.0 L 894.0 450.4 L 892.9 451.5 L 892.4 452.2 L 891.8 453.6 L 891.8 454.7 L 892.3 455.5 L 892.8 455.8 L 893.7 456.1 L 894.7 455.7 L 895.8 454.6 L 896.4 453.9 L 897.0 452.5 L 897.0 451.4 L 896.4 450.7 L 896.1 450.4 M 944.1 426.2 L 943.8 426.3 L 943.1 426.1 L 942.8 425.8 L 942.4 425.3 L 942.2 424.1 L 942.4 423.5 L 942.6 423.1 L 943.2 422.7 L 943.8 422.6 L 944.4 422.8 L 945.4 423.3 L 948.8 425.7 L 948.2 421.6 M 943.2 421.3 L 942.8 420.8 L 941.7 420.1 L 947.9 419.0 M 929.6 464.2 L 929.6 463.9 L 929.9 463.3 L 930.2 463.0 L 930.9 462.7 L 932.1 462.7 L 932.6 463.0 L 932.9 463.3 L 933.2 464.0 L 933.2 464.6 L 932.9 465.1 L 932.3 466.0 L 929.2 469.0 L 933.4 469.1 M 935.2 464.3 L 935.2 464.0 L 935.5 463.4 L 935.8 463.1 L 936.4 462.8 L 937.6 462.8 L 938.2 463.1 L 938.5 463.4 L 938.8 464.1 L 938.8 464.7 L 938.5 465.2 L 937.9 466.1 L 934.8 469.1 L 939.0 469.2 M 675.5 491.1 L 675.9 491.7 L 676.9 492.4 L 670.7 493.5 M 677.1 497.2 L 677.6 496.8 L 677.8 495.9 L 677.7 495.3 L 677.2 494.4 L 676.2 494.0 L 674.7 494.0 L 673.2 494.2 L 672.1 494.7 L 671.6 495.4 L 671.4 496.4 L 671.5 496.7 L 671.9 497.5 L 672.6 498.0 L 673.6 498.1 L 673.9 498.1 L 674.7 497.6 L 675.2 496.9 L 675.3 496.0 L 675.3 495.7 L 674.8 494.9 L 674.1 494.4 L 673.2 494.2 M 694.0 466.3 L 694.0 466.5 L 693.5 467.1 L 693.2 467.3 L 692.5 467.5 L 691.4 467.2 L 690.8 466.8 L 690.6 466.4 L 690.4 465.8 L 690.6 465.2 L 691.0 464.7 L 691.8 463.9 L 695.3 461.6 L 691.2 460.7 M 685.3 465.9 L 688.2 466.5 L 689.1 464.0 L 688.7 464.2 L 687.8 464.3 L 686.9 464.1 L 686.1 463.6 L 685.6 462.9 L 685.5 462.0 L 685.6 461.4 L 686.1 460.6 L 686.8 460.1 L 687.8 460.0 L 688.6 460.2 L 689.5 460.7 L 689.7 461.0 L 689.9 461.7 M 909.3 112.3 L 908.8 112.6 L 907.9 113.6 L 907.5 107.3 M 902.7 112.1 L 903.0 111.1 L 903.5 110.5 L 904.4 110.1 L 904.7 110.1 L 905.6 110.3 L 906.3 110.9 L 906.6 111.8 L 906.7 112.1 L 906.4 113.0 L 905.9 113.6 L 905.0 114.0 L 904.7 114.0 L 903.8 113.8 L 903.1 113.2 L 902.7 112.1 L 902.6 110.6 L 902.8 109.0 L 903.4 108.1 L 904.2 107.7 L 904.8 107.7 L 905.8 107.9 L 906.1 108.5 M 927.2 125.5 L 926.9 125.5 L 926.3 125.2 L 926.0 124.9 L 925.7 124.3 L 925.8 123.1 L 926.1 122.5 L 926.4 122.2 L 927.0 121.9 L 927.6 121.9 L 928.2 122.3 L 929.1 122.9 L 931.9 126.0 L 932.1 121.8 M 926.0 118.6 L 926.2 119.5 L 927.1 120.2 L 928.6 120.5 L 929.5 120.6 L 931.0 120.3 L 931.9 119.8 L 932.3 118.9 L 932.3 118.3 L 932.0 117.4 L 931.2 116.7 L 929.7 116.4 L 928.8 116.3 L 927.3 116.6 L 926.3 117.1 L 926.0 118.0 L 926.0 118.5 M 907.4 150.8 L 907.7 150.2 L 907.8 148.9 L 911.8 153.8 M 909.7 147.1 L 909.2 147.9 L 909.4 148.5 L 909.7 149.0 L 910.4 149.3 L 911.0 149.1 L 912.1 148.6 L 913.0 148.2 L 913.9 148.3 L 914.5 148.6 L 915.0 149.3 L 915.2 149.9 L 915.2 150.4 L 914.6 151.2 L 913.7 151.9 L 912.8 152.3 L 912.4 152.2 L 911.8 152.0 L 911.2 151.3 L 911.1 150.6 L 911.2 149.8 L 911.7 149.0 L 912.4 148.0 L 912.7 147.4 L 912.5 146.7 L 912.1 146.2 L 911.5 146.0 L 910.6 146.3 L 909.6 147.2 M 861.2 104.7 L 860.5 104.6 L 859.2 104.7 L 863.3 99.9 M 856.9 102.9 L 857.7 103.3 L 858.8 103.0 L 860.0 102.0 L 860.6 101.3 L 861.3 100.0 L 861.4 98.9 L 860.9 98.1 L 860.5 97.7 L 859.6 97.4 L 858.6 97.7 L 857.4 98.6 L 856.8 99.3 L 856.0 100.6 L 855.9 101.7 L 856.4 102.5 L 856.7 102.8 M 875.2 172.8 L 872.7 174.4 L 873.9 176.9 L 874.0 176.5 L 874.6 175.7 L 875.3 175.2 L 876.3 175.0 L 877.1 175.2 L 877.8 175.7 L 878.2 176.2 L 878.4 177.2 L 878.2 178.0 L 877.6 178.7 L 876.9 179.2 L 876.0 179.5 L 875.5 179.4 L 875.0 179.0 M 877.9 171.0 L 877.3 171.8 L 877.4 172.4 L 877.7 172.9 L 878.3 173.3 L 879.0 173.2 L 880.1 172.8 L 881.1 172.6 L 881.9 172.7 L 882.5 173.1 L 883.0 173.8 L 883.0 174.5 L 883.0 174.9 L 882.4 175.7 L 881.4 176.3 L 880.4 176.5 L 880.0 176.5 L 879.4 176.1 L 879.0 175.4 L 878.9 174.7 L 879.1 173.9 L 879.6 173.1 L 880.5 172.2 L 880.8 171.6 L 880.8 171.0 L 880.4 170.5 L 879.8 170.1 L 878.9 170.4 L 877.8 171.1 M 856.2 161.5 L 854.4 159.1 L 852.0 160.4 L 852.5 160.5 L 853.2 161.1 L 853.8 161.8 L 854.1 162.7 L 853.9 163.5 L 853.4 164.3 L 852.9 164.7 L 852.0 164.9 L 851.2 164.8 L 850.4 164.3 L 849.9 163.5 L 849.6 162.6 L 849.6 162.2 L 849.9 161.6 M 857.8 167.3 L 856.9 167.6 L 856.1 167.5 L 855.3 166.9 L 855.1 166.7 L 854.8 165.8 L 855.0 164.9 L 855.5 164.2 L 855.8 164.0 L 856.7 163.7 L 857.5 163.8 L 858.3 164.4 L 858.5 164.6 L 858.7 165.5 L 858.6 166.4 L 857.8 167.3 L 856.6 168.2 L 855.2 168.8 L 854.1 168.9 L 853.4 168.3 L 853.0 167.9 L 852.7 167.0 L 853.0 166.4 M 820.8 92.1 L 821.1 92.7 L 821.9 93.0 L 822.5 93.1 L 823.5 92.8 L 824.1 91.9 L 824.5 90.5 L 824.5 89.0 L 824.3 87.8 L 823.7 87.1 L 822.9 86.8 L 822.6 86.8 L 821.6 87.0 L 821.0 87.6 L 820.7 88.5 L 820.7 88.8 L 820.9 89.7 L 821.5 90.3 L 822.4 90.7 L 822.7 90.7 L 823.6 90.4 L 824.2 89.8 L 824.5 89.0 M 815.7 92.7 L 818.7 92.9 L 819.1 90.2 L 818.8 90.5 L 817.9 90.7 L 817.0 90.7 L 816.1 90.4 L 815.6 89.7 L 815.3 88.8 L 815.3 88.2 L 815.7 87.3 L 816.3 86.8 L 817.2 86.5 L 818.1 86.5 L 819.0 86.9 L 819.3 87.2 L 819.6 87.8 M 811.6 139.7 L 811.3 139.1 L 810.4 138.8 L 809.8 138.9 L 808.9 139.2 L 808.3 140.1 L 808.0 141.6 L 808.0 143.1 L 808.4 144.3 L 809.0 144.9 L 809.9 145.1 L 810.2 145.1 L 811.1 144.8 L 811.7 144.2 L 812.0 143.3 L 811.9 143.0 L 811.6 142.1 L 811.0 141.5 L 810.1 141.2 L 809.8 141.3 L 808.9 141.6 L 808.3 142.2 L 808.0 143.1 M 813.0 140.2 L 813.6 139.9 L 814.4 139.0 L 814.6 145.3 M 776.2 130.7 L 776.9 130.7 L 778.1 130.4 L 774.9 135.8 M 779.7 131.1 L 782.5 132.8 L 779.8 133.9 L 780.5 134.4 L 780.9 135.0 L 781.0 135.4 L 780.8 136.3 L 780.5 136.8 L 779.8 137.4 L 779.0 137.6 L 778.0 137.4 L 777.3 137.0 L 776.6 136.3 L 776.5 135.9 L 776.6 135.2 M 773.8 87.2 L 773.2 87.3 L 772.1 88.0 L 773.3 81.9 M 767.9 87.5 L 771.6 83.9 L 767.2 83.1 M 767.9 87.5 L 769.1 81.3 M 736.4 87.0 L 735.8 87.4 L 735.2 88.5 L 733.7 82.3 M 730.6 89.8 L 733.5 89.1 L 733.2 86.4 L 733.0 86.7 L 732.2 87.2 L 731.3 87.4 L 730.4 87.3 L 729.6 86.9 L 729.1 86.1 L 729.0 85.5 L 729.1 84.6 L 729.5 83.8 L 730.3 83.3 L 731.2 83.1 L 732.2 83.2 L 732.5 83.5 L 733.0 84.0 M 742.2 133.0 L 742.6 132.4 L 742.9 131.2 L 746.1 136.6 M 744.9 131.4 L 744.8 131.2 L 744.7 130.5 L 744.8 130.1 L 745.2 129.5 L 746.2 128.9 L 746.9 128.9 L 747.3 129.0 L 747.9 129.3 L 748.2 129.8 L 748.2 130.5 L 748.2 131.6 L 747.2 135.7 L 750.8 133.5 M 704.7 98.4 L 704.9 98.7 L 705.0 99.3 L 705.0 99.7 L 704.7 100.4 L 703.7 101.1 L 703.1 101.2 L 702.7 101.2 L 702.1 100.9 L 701.7 100.4 L 701.6 99.8 L 701.5 98.7 L 702.0 94.5 L 698.7 97.0 M 698.3 104.2 L 698.9 104.5 L 699.8 104.2 L 700.2 103.8 L 700.8 103.0 L 700.7 102.0 L 700.0 100.6 L 699.1 99.4 L 698.1 98.7 L 697.2 98.5 L 696.4 98.9 L 696.1 99.1 L 695.6 99.8 L 695.5 100.7 L 695.8 101.6 L 696.0 101.8 L 696.8 102.3 L 697.6 102.4 L 698.5 102.1 L 698.8 101.9 L 699.3 101.1 L 699.4 100.3 L 699.1 99.4 M 717.1 140.4 L 717.6 140.0 L 718.4 139.0 L 719.4 145.2 M 719.6 140.0 L 720.2 139.6 L 720.9 138.5 L 721.9 144.8 M 671.7 147.8 L 671.3 147.3 L 670.3 147.1 L 669.8 147.2 L 668.9 147.7 L 668.5 148.7 L 668.4 150.2 L 668.7 151.7 L 669.2 152.8 L 669.9 153.3 L 670.8 153.4 L 671.1 153.4 L 672.0 152.9 L 672.5 152.2 L 672.6 151.3 L 672.6 151.0 L 672.1 150.2 L 671.4 149.7 L 670.5 149.5 L 670.2 149.6 L 669.3 150.0 L 668.8 150.7 L 668.7 151.7 M 676.5 146.0 L 673.5 146.6 L 673.7 149.3 L 673.9 148.9 L 674.8 148.5 L 675.7 148.3 L 676.6 148.4 L 677.3 148.9 L 677.8 149.8 L 677.9 150.4 L 677.7 151.3 L 677.2 152.0 L 676.4 152.4 L 675.5 152.6 L 674.6 152.5 L 674.2 152.2 L 673.8 151.7 M 653.5 104.5 L 653.4 104.8 L 653.0 105.2 L 652.6 105.5 L 652.0 105.6 L 650.8 105.3 L 650.3 104.8 L 650.1 104.4 L 650.0 103.8 L 650.1 103.2 L 650.6 102.7 L 651.4 102.0 L 655.1 99.9 L 651.1 98.8 M 644.4 103.4 L 649.0 98.2 M 648.4 104.6 L 644.4 103.4 M 623.5 149.0 L 624.1 148.8 L 625.2 148.1 L 624.0 154.3 M 629.4 148.7 L 625.7 152.2 L 630.1 153.1 M 629.4 148.7 L 628.2 154.9 M 590.5 132.2 L 591.2 132.3 L 592.4 132.1 L 588.8 137.2 M 596.4 134.7 L 594.0 132.9 L 592.2 134.9 L 592.6 134.9 L 593.5 135.2 L 594.2 135.7 L 594.8 136.4 L 594.9 137.3 L 594.6 138.2 L 594.3 138.7 L 593.5 139.2 L 592.7 139.4 L 591.8 139.1 L 591.0 138.6 L 590.5 137.8 L 590.4 137.4 L 590.5 136.7 M 562.3 107.1 L 562.5 106.9 L 563.2 106.7 L 563.6 106.7 L 564.2 107.0 L 565.0 107.8 L 565.2 108.5 L 565.2 108.9 L 565.0 109.5 L 564.5 109.9 L 563.9 110.1 L 562.8 110.3 L 558.6 110.1 L 561.4 113.2 M 568.6 113.0 L 568.9 112.4 L 568.5 111.5 L 568.1 111.1 L 567.2 110.6 L 566.2 110.8 L 564.9 111.6 L 563.8 112.6 L 563.1 113.7 L 563.1 114.5 L 563.4 115.4 L 563.6 115.6 L 564.5 116.1 L 565.3 116.1 L 566.2 115.7 L 566.4 115.5 L 566.9 114.7 L 566.9 113.8 L 566.5 113.0 L 566.3 112.7 L 565.5 112.3 L 564.6 112.2 L 563.8 112.6 M 589.9 100.8 L 589.9 101.1 L 589.8 101.7 L 589.5 102.1 L 589.0 102.5 L 587.9 102.8 L 587.2 102.7 L 586.9 102.4 L 586.4 101.9 L 586.3 101.3 L 586.4 100.7 L 586.8 99.7 L 589.0 96.1 L 584.9 97.0 M 581.4 104.4 L 582.8 97.5 M 585.4 103.4 L 581.4 104.4"
       id="nums_002"
       stroke="black"
       stroke-width="1" />
    <path
       d="m 664.2,613.6 0.2,-3.5 15.8,-14.7 -15.7,-11.7 -1.7,-30.7 14.2,-13.4 -15.2,-87.2 16.1,-11.8 31.8,6.8 9.8,17.4 -16.2,-56.8 -10.2,-36.9 -2.1,-11 12.2,-4.5 -11.4,4.2 5.2,11.2 -6.8,-14.6 -0.2,15.8 -1.1,0.4 -9.4,-12.8 -11.7,19.7 -3.6,1.2 -21.1,-8.9 -24.3,-5.5 -31.4,-37.1 -1.5,-24.9 -35,-43.5 40.7,-43.7 52.5,4.6 28.5,-40.6 41.2,32.2 0.5,-20 24.8,-21 19.8,2.9 17.9,14.1 0.8,3.8 -11.6,19.7 42.5,39 -16.2,106.6 7.4,-27.6 43.1,-40.7 27.9,-5.8 -17.9,-8.5 -8.4,-30.6 11,-16.5 3.5,-23.5 3,-2.8 23.8,-1.5 20,10.6 14.5,38.6 -8.2,21.1 17.9,14.7 0.7,3.9 -11.7,19.9 -25.6,33.7 17.9,-7.4 26.5,14.1 3.7,19 17,102.4 -48,-0.9 -37.2,-26.2 -15.4,6.9 -1.4,-1.1 3.2,-16.6 -15,5.8 12.2,-4.7 -5.7,-10.5 6,11.1 -3,17.1 7.6,24.2 -1.5,4.4 -20.8,14.5 -23.9,11 -4.7,-0.8 -18.7,-18.5 11.3,25.3 -8.6,56.4 -18.3,20.8 54.5,1.8 18.9,15.1 1,4.1 -10.3,22 -38.3,16.6 -55,-24.5 -26,10.4 -42.9,-5.2 z M 865.9,188.7 835,146.6 l -44,0.8 -21.1,4.9 -3,-1.8 -5.8,-20.9 -3,19.3 -2.4,1.5 -18.5,-6.4 -12.4,17.3 -3.3,0.5 -17.3,-12.3 -10.8,17.1 -32.8,5.9 -16,-12.4 -19.4,11.5 -3.7,-0.7 -13.7,-17.9 -25,0.5 -3.6,-2.6 -7.6,-23.8 -21.8,-23.6 67.4,-16.2 19.1,-10.3 36.8,10.4 10.9,18.6 2.2,-20.7 2.5,-2 20.6,2.9 43.4,-10.1 36.8,7.1 60.4,3 25.4,21.6 12.4,-15.9 32.7,-2.3 14.5,14 -1.6,34.6 -37.1,30.8 z"
       id="coupes_002"
       stroke="#ff0000"
       stroke-width="1.27"
       sodipodi:nodetypes="cccccccccccccccccccccccccccccccccccccccccccccccccccccccccccccccccccccccccccccccccccccccccccccccccccccccccccccccccccccccccccccc" />
    <path
       d="M 792.3 358.4 L 851.1 424.2 M 851.1 424.2 L 792.1 487.2 M 854.1 452.4 L 792.1 487.2 M 854.1 452.4 L 839.4 495.5 M 839.4 495.5 L 792.1 487.2 M 792.1 487.2 L 719.5 464.8 M 792.1 487.2 L 677.0 539.6 M 677.0 539.6 L 719.5 464.8 M 703.2 355.6 L 792.3 358.4 M 703.2 355.6 L 713.8 213.3 M 703.2 355.6 L 690.2 356.4 M 690.2 356.4 L 713.8 213.3 M 766.0 212.8 L 792.3 358.4 M 690.2 356.4 L 672.6 181.1 M 690.2 356.4 L 679.5 359.8 M 679.5 359.8 L 644.1 221.7 M 679.5 359.8 L 643.1 371.8 M 643.1 371.8 L 644.1 221.7 M 643.1 371.8 L 585.9 304.3 M 693.1 371.1 L 703.2 355.6 M 585.9 304.3 L 591.6 217.1 M 870.7 284.3 L 851.1 424.2 M 792.3 358.4 L 870.7 284.3 M 859.6 433.6 L 851.1 424.2 M 893.3 343.4 L 859.6 433.6 M 912.0 271.2 L 918.9 309.7 M 870.7 284.3 L 912.0 271.2 M 855.4 228.7 L 912.0 271.2 M 885.7 200.9 L 912.0 271.2 M 747.3 624.8 L 677.0 539.6 M 776.5 589.7 L 747.3 624.8 M 680.2 595.4 L 677.0 539.6 M 721.3 635.2 L 680.2 595.4 M 678.4 630.0 L 680.2 595.4 M 758.9 175.2 L 766.0 212.8 M 776.5 589.7 L 802.3 649.3 M 831.0 591.5 L 802.3 649.3 M 831.0 591.5 L 840.6 632.7 M 941.4 369.1 L 859.6 433.6 M 873.2 444.4 L 859.6 433.6 M 941.4 369.1 L 873.2 444.4 M 941.4 369.1 L 910.4 470.6 M 661.8 452.4 L 719.5 464.8 M 933.3 138.2 L 875.3 107.8 M 896.2 169.0 L 875.3 107.8 M 835.0 146.6 L 789.5 83.2 M 791.0 147.4 L 789.5 83.2 M 761.1 129.6 L 752.7 76.1 M 761.1 129.6 L 709.3 86.2 M 737.2 144.0 L 709.3 86.2 M 684.0 106.0 L 709.3 86.2 M 737.2 144.0 L 684.0 106.0 M 704.2 149.5 L 684.0 106.0 M 644.6 160.1 L 617.2 87.3 M 617.2 87.3 L 684.0 106.0 M 644.6 160.1 L 607.8 153.0 M 607.8 153.0 L 617.2 87.3 M 607.8 153.0 L 571.6 127.1 M 571.6 127.1 L 617.2 87.3"
       id="plisM_002"
       stroke="brown"
       stroke-dasharray="4" />
    <path
       d="M 819.7 389.3 L 823.7 393.3 M 823.7 389.3 L 819.7 393.3 M 819.6 453.7 L 823.6 457.7 M 823.6 453.7 L 819.6 457.7 M 821.1 467.8 L 825.1 471.8 M 825.1 467.8 L 821.1 471.8 M 844.8 472.0 L 848.8 476.0 M 848.8 472.0 L 844.8 476.0 M 813.8 489.3 L 817.8 493.3 M 817.8 489.3 L 813.8 493.3 M 753.8 474.0 L 757.8 478.0 M 757.8 474.0 L 753.8 478.0 M 732.6 511.4 L 736.6 515.4 M 736.6 511.4 L 732.6 515.4 M 696.3 500.2 L 700.3 504.2 M 700.3 500.2 L 696.3 504.2 M 745.8 355.0 L 749.8 359.0 M 749.8 355.0 L 745.8 359.0 M 706.5 282.4 L 710.5 286.4 M 710.5 282.4 L 706.5 286.4 M 694.7 354.0 L 698.7 358.0 M 698.7 354.0 L 694.7 358.0 M 700.0 282.8 L 704.0 286.8 M 704.0 282.8 L 700.0 286.8 M 777.2 283.6 L 781.2 287.6 M 781.2 283.6 L 777.2 287.6 M 679.4 266.8 L 683.4 270.8 M 683.4 266.8 L 679.4 270.8 M 682.9 356.1 L 686.9 360.1 M 686.9 356.1 L 682.9 360.1 M 659.8 288.8 L 663.8 292.8 M 663.8 288.8 L 659.8 292.8 M 659.3 363.8 L 663.3 367.8 M 663.3 363.8 L 659.3 367.8 M 641.6 294.8 L 645.6 298.8 M 645.6 294.8 L 641.6 298.8 M 612.5 336.1 L 616.5 340.1 M 616.5 336.1 L 612.5 340.1 M 696.2 361.3 L 700.2 365.3 M 700.2 361.3 L 696.2 365.3 M 586.8 258.7 L 590.8 262.7 M 590.8 258.7 L 586.8 262.7 M 858.9 352.3 L 862.9 356.3 M 862.9 352.3 L 858.9 356.3 M 829.5 319.4 L 833.5 323.4 M 833.5 319.4 L 829.5 323.4 M 853.3 426.9 L 857.3 430.9 M 857.3 426.9 L 853.3 430.9 M 874.4 386.5 L 878.4 390.5 M 878.4 386.5 L 874.4 390.5 M 913.4 288.4 L 917.4 292.4 M 917.4 288.4 L 913.4 292.4 M 889.4 275.8 L 893.4 279.8 M 893.4 275.8 L 889.4 279.8 M 881.7 248.0 L 885.7 252.0 M 885.7 248.0 L 881.7 252.0 M 896.9 234.1 L 900.9 238.1 M 900.9 234.1 L 896.9 238.1 M 710.2 580.2 L 714.2 584.2 M 714.2 580.2 L 710.2 584.2 M 759.9 605.3 L 763.9 609.3 M 763.9 605.3 L 759.9 609.3 M 676.6 565.5 L 680.6 569.5 M 680.6 565.5 L 676.6 569.5 M 698.7 613.3 L 702.7 617.3 M 702.7 613.3 L 698.7 617.3 M 677.3 610.7 L 681.3 614.7 M 681.3 610.7 L 677.3 614.7 M 760.5 192.0 L 764.5 196.0 M 764.5 192.0 L 760.5 196.0 M 787.4 617.5 L 791.4 621.5 M 791.4 617.5 L 787.4 621.5 M 814.7 618.4 L 818.7 622.4 M 818.7 618.4 L 814.7 622.4 M 833.8 610.1 L 837.8 614.1 M 837.8 610.1 L 833.8 614.1 M 898.5 399.4 L 902.5 403.4 M 902.5 399.4 L 898.5 403.4 M 864.4 437.0 L 868.4 441.0 M 868.4 437.0 L 864.4 441.0 M 905.3 404.7 L 909.3 408.7 M 909.3 404.7 L 905.3 408.7 M 923.9 417.9 L 927.9 421.9 M 927.9 417.9 L 923.9 421.9 M 688.6 456.6 L 692.6 460.6 M 692.6 456.6 L 688.6 460.6 M 902.3 121.0 L 906.3 125.0 M 906.3 121.0 L 902.3 125.0 M 883.8 136.4 L 887.8 140.4 M 887.8 136.4 L 883.8 140.4 M 810.3 112.9 L 814.3 116.9 M 814.3 112.9 L 810.3 116.9 M 788.2 113.3 L 792.2 117.3 M 792.2 113.3 L 788.2 117.3 M 754.9 100.9 L 758.9 104.9 M 758.9 100.9 L 754.9 104.9 M 733.2 105.9 L 737.2 109.9 M 737.2 105.9 L 733.2 109.9 M 721.3 113.1 L 725.3 117.1 M 725.3 113.1 L 721.3 117.1 M 694.7 94.1 L 698.7 98.1 M 698.7 94.1 L 694.7 98.1 M 708.6 123.0 L 712.6 127.0 M 712.6 123.0 L 708.6 127.0 M 692.1 125.8 L 696.1 129.8 M 696.1 125.8 L 692.1 129.8 M 628.9 121.7 L 632.9 125.7 M 632.9 121.7 L 628.9 125.7 M 648.6 94.6 L 652.6 98.6 M 652.6 94.6 L 648.6 98.6 M 624.2 154.5 L 628.2 158.5 M 628.2 154.5 L 624.2 158.5 M 610.5 118.1 L 614.5 122.1 M 614.5 118.1 L 610.5 122.1 M 587.7 138.0 L 591.7 142.0 M 591.7 138.0 L 587.7 142.0 M 592.4 105.2 L 596.4 109.2 M 596.4 105.2 L 592.4 109.2"
       display="none"
       id="marqueM_002"
       stroke="brown" />
    <path
       d="M 792.1 487.2 L 792.3 358.4 M 857.1 435.3 L 792.1 487.2 M 792.1 487.2 L 703.3 408.0 M 703.3 408.0 L 792.3 358.4 M 792.1 487.2 L 776.5 589.7 M 776.5 589.7 L 677.0 539.6 M 703.3 408.0 L 703.2 355.6 M 713.8 213.3 L 792.3 358.4 M 713.8 213.3 L 766.0 212.8 M 690.2 356.4 L 644.1 221.7 M 585.9 304.3 L 644.1 221.7 M 870.7 284.3 L 859.6 433.6 M 870.7 284.3 L 893.3 343.4 M 870.7 284.3 L 918.9 309.7 M 870.7 284.3 L 855.4 228.7 M 855.4 228.7 L 885.7 200.9 M 747.3 624.8 L 680.2 595.4 M 713.8 213.3 L 758.9 175.2 M 893.3 343.4 L 941.4 369.1 M 875.3 107.8 L 934.9 103.6 M 835.0 146.6 L 875.3 107.8 M 896.2 169.0 L 835.0 146.6 M 835.0 146.6 L 849.9 86.2 M 761.1 129.6 L 789.5 83.2 M 791.0 147.4 L 761.1 129.6 M 761.1 129.6 L 737.2 144.0 M 737.2 144.0 L 704.2 149.5 M 704.2 149.5 L 644.6 160.1 M 644.6 160.1 L 684.0 106.0"
       id="plisV_002"
       stroke="green"
       stroke-dasharray="4 1 1 1"
       stroke-width="1.27" />
    <path
       d="M 790.2 420.8 L 794.2 424.8 M 794.2 420.8 L 790.2 424.8 M 822.6 459.2 L 826.6 463.2 M 826.6 459.2 L 822.6 463.2 M 745.7 445.6 L 749.7 449.6 M 749.7 445.6 L 745.7 449.6 M 745.8 381.2 L 749.8 385.2 M 749.8 381.2 L 745.8 385.2 M 782.3 536.4 L 786.3 540.4 M 786.3 536.4 L 782.3 540.4 M 724.7 562.6 L 728.7 566.6 M 728.7 562.6 L 724.7 566.6 M 701.3 379.8 L 705.3 383.8 M 705.3 379.8 L 701.3 383.8 M 751.1 283.9 L 755.1 287.9 M 755.1 283.9 L 751.1 287.9 M 737.9 211.0 L 741.9 215.0 M 741.9 211.0 L 737.9 215.0 M 665.2 287.1 L 669.2 291.1 M 669.2 287.1 L 665.2 291.1 M 613.0 261.0 L 617.0 265.0 M 617.0 261.0 L 613.0 265.0 M 863.1 357.0 L 867.1 361.0 M 867.1 357.0 L 863.1 361.0 M 880.0 311.9 L 884.0 315.9 M 884.0 311.9 L 880.0 315.9 M 892.8 295.0 L 896.8 299.0 M 896.8 295.0 L 892.8 299.0 M 861.0 254.5 L 865.0 258.5 M 865.0 254.5 L 861.0 258.5 M 868.5 212.8 L 872.5 216.8 M 872.5 212.8 L 868.5 216.8 M 711.8 608.1 L 715.8 612.1 M 715.8 608.1 L 711.8 612.1 M 734.4 192.3 L 738.4 196.3 M 738.4 192.3 L 734.4 196.3 M 915.4 354.3 L 919.4 358.3 M 919.4 354.3 L 915.4 358.3 M 903.1 103.7 L 907.1 107.7 M 907.1 103.7 L 903.1 107.7 M 853.2 125.2 L 857.2 129.2 M 857.2 125.2 L 853.2 129.2 M 863.6 155.8 L 867.6 159.8 M 867.6 155.8 L 863.6 159.8 M 840.5 114.4 L 844.5 118.4 M 844.5 114.4 L 840.5 118.4 M 773.3 104.4 L 777.3 108.4 M 777.3 104.4 L 773.3 108.4 M 774.0 136.5 L 778.0 140.5 M 778.0 136.5 L 774.0 140.5 M 747.1 134.8 L 751.1 138.8 M 751.1 134.8 L 747.1 138.8 M 718.7 144.7 L 722.7 148.7 M 722.7 144.7 L 718.7 148.7 M 672.4 152.8 L 676.4 156.8 M 676.4 152.8 L 672.4 156.8 M 662.3 131.0 L 666.3 135.0 M 666.3 131.0 L 662.3 135.0"
       id="marqueV_002"
       stroke="green" />
    <path
       d="M 758.0 409.2 L 758.0 408.5 L 758.8 407.0 L 759.5 406.2 L 761.0 405.5 L 764.0 405.5 L 765.5 406.2 L 766.3 407.0 L 767.0 408.5 L 767.0 410.0 L 766.3 411.5 L 764.8 413.7 L 757.3 421.2 L 767.8 421.2"
       id="titre_2"
       stroke="indigo" />
    <path
       d="m 733.54107,115.68769 h 8.2 l -4.5,6 h 2.3 l 1.5,0.7 0.7,0.8 0.8,2.2 v 1.5 l -0.8,2.3 -1.5,1.5 -2.2,0.7 h -2.3 l -2.2,-0.7 -0.8,-0.8 -0.7,-1.5"
       id="titre_3"
       stroke="#4b0082" />
  </g>
</svg>
