<?xml version="1.0" encoding="UTF-8" standalone="no"?>
<svg
   height="297mm"
   viewBox="0 0 533 754"
   width="210mm"
   version="1.1"
   id="svg1"
   sodipodi:docname="teteGirafe_H10_A4x1.svg"
   inkscape:version="1.3 (1:1.3+202307231459+0e150ed6c4)"
   xmlns:inkscape="http://www.inkscape.org/namespaces/inkscape"
   xmlns:sodipodi="http://sodipodi.sourceforge.net/DTD/sodipodi-0.dtd"
   xmlns="http://www.w3.org/2000/svg"
   xmlns:svg="http://www.w3.org/2000/svg">
  <defs
     id="defs1" />
  <sodipodi:namedview
     id="namedview1"
     pagecolor="#ffffff"
     bordercolor="#000000"
     borderopacity="0.25"
     inkscape:showpageshadow="2"
     inkscape:pageopacity="0.0"
     inkscape:pagecheckerboard="0"
     inkscape:deskcolor="#d1d1d1"
     inkscape:document-units="mm"
     showgrid="false"
     inkscape:zoom="0.76791526"
     inkscape:cx="362.01911"
     inkscape:cy="378.94806"
     inkscape:window-width="1920"
     inkscape:window-height="1007"
     inkscape:window-x="0"
     inkscape:window-y="0"
     inkscape:window-maximized="1"
     inkscape:current-layer="svg1" />
  <style
     type="text/css"
     id="style1"><![CDATA[
			path {
				fill: none;
			}
		]]></style>
  <g
     id="page_001"
     transform="translate(-5.6435958,97.408346)">
    <path
       d="m 145.1,86.6 -2.8,1.7 0.2,-3 -0.7,0.5 h -0.7 l -0.4,-0.1 -0.8,-0.6 -0.3,-0.5 -0.2,-0.9 0.2,-0.8 0.6,-0.7 0.8,-0.5 0.9,-0.2 0.4,0.1 0.6,0.3 m -3.2,8 0.7,-0.8 -0.1,-0.6 -0.3,-0.6 -0.6,-0.3 -0.7,0.1 -1.1,0.3 -1,0.2 -0.8,-0.1 -0.6,-0.4 -0.4,-0.8 -0.1,-0.6 0.1,-0.4 0.6,-0.8 1,-0.6 0.9,-0.2 0.5,0.1 0.5,0.3 0.5,0.8 0.1,0.7 -0.2,0.8 -0.6,0.7 -0.9,0.9 -0.3,0.6 v 0.6 l 0.3,0.5 0.6,0.4 0.9,-0.2 1.2,-0.7 m 21.5,6.4 -2.2,-2.5 3,-0.1 -0.6,-0.7 -0.1,-0.7 v -0.4 l 0.5,-0.8 0.5,-0.4 0.9,-0.4 0.8,0.1 0.8,0.5 0.6,0.7 0.4,0.9 -0.1,0.4 -0.3,0.6 m -9.4,-3.2 5.2,-0.4 -2.9,-3.4 m -2.3,3.8 4.9,-4 m 3.3,35.3 0.7,-3.3 1.9,2.3 0.2,-0.9 0.4,-0.5 0.4,-0.2 0.9,-0.1 0.6,0.1 0.8,0.5 0.5,0.7 0.1,0.9 -0.2,0.9 -0.5,0.8 -0.3,0.3 -0.7,0.1 m -3.7,-6.8 0.7,-3.3 1.9,2.3 0.2,-0.9 0.5,-0.5 0.3,-0.2 1,-0.1 0.5,0.1 0.9,0.5 0.4,0.7 0.1,0.9 -0.2,0.9 -0.5,0.8 -0.3,0.3 -0.7,0.1 m -64.3,-6.4 -2.8,1.8 0.2,-3 -0.8,0.5 -0.6,0.1 -0.4,-0.1 -0.8,-0.6 -0.3,-0.5 -0.3,-0.9 0.2,-0.9 0.6,-0.7 0.8,-0.5 0.9,-0.2 h 0.4 l 0.6,0.4 m -3,6.2 0.2,0.3 0.1,0.6 -0.1,0.4 -0.3,0.6 -1,0.7 -0.7,0.1 -0.4,-0.1 -0.6,-0.4 -0.3,-0.5 -0.1,-0.6 v -1.1 l 0.9,-4.2 -3.6,2.3 m -12.9,18.6 0.4,0.6 1.1,0.7 -6.2,1.2 m 7,1.6 -0.5,-0.8 -1,-0.4 h -1.5 l -0.9,0.2 -1.4,0.5 -0.8,0.8 -0.1,1 0.1,0.5 0.5,0.9 1,0.4 h 1.5 l 0.9,-0.2 1.4,-0.6 0.8,-0.7 0.1,-1 -0.1,-0.4 m 2.8,14.1 -0.5,-0.9 -0.6,-0.2 -0.6,0.2 -0.6,0.4 -0.1,0.6 -0.1,1.2 -0.1,1 -0.5,0.7 -0.6,0.4 -0.8,0.2 -0.7,-0.2 -0.3,-0.3 -0.5,-0.8 -0.2,-1.2 0.1,-0.9 0.2,-0.4 0.6,-0.4 0.9,-0.1 0.6,0.2 0.7,0.4 0.5,0.9 0.5,1.1 0.4,0.5 0.6,0.2 0.6,-0.1 0.6,-0.4 0.1,-1 -0.3,-1.3 m 87.1,16.7 0.9,5.1 3.1,-3.2 m -4,-1.9 4.5,4.5 m 0,-8.8 -2.2,2.1 1.7,2.1 v -0.4 l 0.5,-0.9 0.6,-0.6 0.8,-0.4 h 0.9 l 0.8,0.4 0.5,0.4 0.4,0.9 v 0.8 l -0.4,0.9 -0.7,0.6 -0.8,0.4 h -0.4 l -0.7,-0.2 m -94,-6.1 -0.9,-0.4 -0.5,-0.6 -0.3,-0.9 0.1,-0.3 0.3,-0.9 0.6,-0.6 1,-0.2 h 0.3 l 0.8,0.4 0.6,0.6 0.3,0.9 -0.1,0.3 -0.3,0.9 -0.7,0.5 -1.2,0.3 -1.5,-0.1 -1.4,-0.4 -0.9,-0.7 -0.3,-0.9 0.1,-0.6 0.3,-0.9 0.7,-0.2 m 0.2,37.4 -5.8,-3.9 m 6.4,-0.2 -0.6,4.1 m 76.4,7.2 0.4,-3.3 2.1,2.1 0.1,-0.9 0.4,-0.6 0.3,-0.2 1,-0.2 h 0.6 l 0.8,0.4 0.5,0.7 0.2,0.9 -0.1,0.9 -0.4,0.9 -0.3,0.3 -0.6,0.2 m -2,-9.5 0.9,0.4 0.5,0.6 0.2,0.9 v 0.3 l -0.4,0.9 -0.7,0.5 -0.9,0.2 h -0.3 l -0.9,-0.4 -0.5,-0.7 -0.2,-0.9 v -0.3 l 0.4,-0.9 0.7,-0.5 1.2,-0.1 1.5,0.1 1.5,0.5 0.8,0.7 0.2,0.9 -0.1,0.6 -0.4,0.9 -0.6,0.2 m -12.5,40.7 3.5,3.8 0.9,-4.4 m -4.4,0.6 6.2,1.3 m -5.2,-5.7 0.1,1 0.8,0.8 1.4,0.6 0.9,0.1 1.5,0.1 1,-0.4 0.5,-0.9 0.1,-0.5 -0.1,-1 -0.8,-0.8 -1.4,-0.6 -0.9,-0.2 h -1.5 l -1,0.4 -0.5,0.9 -0.1,0.4 m -8.4,21 -4.1,-3.2 -0.2,4.5 m 4.3,-1.3 -6.3,-0.3 m 4.7,2.8 0.2,0.6 0.9,0.9 -6.3,-0.3 m -68.6,-7.9 -3.1,-4.2 -1.4,4.3 m 4.5,-0.1 -6,-1.9 m -4.8,33.5 0.6,-0.1 0.6,-0.8 0.2,-0.5 -0.1,-1 -0.6,-0.8 -1.4,-0.8 -1.4,-0.4 -1.3,-0.1 -0.7,0.4 -0.6,0.8 -0.1,0.3 0.1,0.9 0.4,0.8 0.7,0.5 0.3,0.1 h 1 l 0.7,-0.4 0.6,-0.8 0.1,-0.3 -0.1,-0.9 -0.4,-0.8 -0.7,-0.5 m 107.3,8.8 -0.2,0.1 -0.7,0.1 -0.4,-0.1 -0.6,-0.4 -0.6,-1 v -0.7 l 0.1,-0.4 0.3,-0.6 0.6,-0.3 h 0.6 1.1 l 4.1,1.1 -2.1,-3.6 m -6.3,1.7 -1.7,-2.9 3,0.4 -0.4,-0.8 -0.1,-0.7 0.1,-0.4 0.6,-0.7 0.6,-0.3 0.9,-0.2 0.8,0.2 0.7,0.6 0.5,0.8 0.2,0.9 -0.1,0.5 -0.4,0.5 m 6.5,36.5 0.1,-0.3 0.5,-0.4 0.4,-0.2 h 0.6 l 1.2,0.4 0.4,0.5 0.2,0.4 v 0.7 l -0.2,0.5 -0.5,0.5 -0.9,0.6 -3.9,1.6 3.9,1.6 m 5.1,-4.7 -1,-0.1 -0.8,0.6 -0.9,1.3 -0.3,0.8 -0.3,1.5 0.2,1.1 0.7,0.6 0.6,0.2 0.9,0.1 0.9,-0.6 0.9,-1.3 0.3,-0.8 0.3,-1.5 -0.2,-1.1 -0.8,-0.6 -0.4,-0.2 m 19.9,-9.5 -0.6,0.2 -1.1,0.7 1.2,-6.2 m -5.8,3.4 0.5,-0.8 0.7,-0.5 0.9,-0.1 h 0.3 l 0.8,0.5 0.5,0.7 0.1,0.9 v 0.3 l -0.5,0.8 -0.7,0.5 -0.9,0.2 -0.3,-0.1 -0.9,-0.5 -0.4,-0.7 -0.1,-1.2 0.3,-1.5 0.6,-1.4 0.7,-0.8 0.9,-0.1 0.6,0.1 0.9,0.5 0.1,0.6 m 0.8,36.7 0.4,0.5 1.1,0.7 -6.2,1.3 m 7,1.2 -0.5,-0.8 -0.7,-0.2 -0.6,0.2 -0.5,0.4 -0.1,0.6 -0.1,1.3 -0.1,0.9 -0.4,0.7 -0.6,0.4 -0.8,0.2 -0.7,-0.1 -0.4,-0.3 -0.4,-0.8 -0.3,-1.1 0.1,-1 0.2,-0.3 0.6,-0.5 0.8,-0.2 0.7,0.2 0.7,0.5 0.5,0.8 0.5,1.1 0.5,0.5 0.6,0.2 0.6,-0.2 0.5,-0.4 0.1,-0.9 -0.3,-1.3 m 1.6,7.8 0.5,-0.5 0.6,-1.1 1.9,6 m 3,-7.7 -1,6.9 m -3,-5.7 4,-1.2 m 28.9,-38.9 -0.6,0.4 -0.8,0.9 -0.4,-6.3 m -1.4,6.6 -3.3,0.2 1.7,-2.5 -0.9,0.1 -0.6,-0.3 -0.3,-0.3 -0.4,-0.9 v -0.6 l 0.2,-0.9 0.6,-0.6 0.9,-0.4 h 0.9 l 0.9,0.2 0.3,0.3 0.4,0.6 m -2.3,53.9 0.5,0.4 1.3,0.3 -5.4,3.3 m 4.9,-1.8 0.6,0.4 1.2,0.3 -5.3,3.3 m 34.7,-47.3 h -0.7 l -1.2,0.2 3.4,-5.3 m -4.1,3.3 -0.2,0.3 -0.6,0.3 -0.4,0.1 -0.7,-0.1 -1,-0.6 -0.3,-0.6 -0.1,-0.4 0.1,-0.7 0.3,-0.5 0.6,-0.3 1,-0.4 4.1,-0.9 -3.5,-2.3 m 18.1,33.1 -0.5,-0.4 -1.1,-0.6 6,-2 m -7.6,-2 4.9,1.5 -1.4,-4.2 m -3.5,2.7 6,-2 m -35.1,42.4 0.2,-0.2 0.6,-0.2 0.4,-0.1 0.7,0.2 0.9,0.8 0.2,0.6 0.1,0.4 -0.2,0.7 -0.4,0.4 -0.6,0.3 -1.1,0.3 -4.2,0.2 3.2,2.8 m 8,-1.3 -6.4,2.8 m 3.3,-5.6 3.1,2.8 m 30.8,-2.4 -0.3,0.1 -0.6,-0.3 -0.4,-0.3 -0.3,-0.6 -0.1,-1.1 0.3,-0.7 0.3,-0.3 0.5,-0.3 0.6,-0.1 0.6,0.3 1,0.5 3.2,2.8 -0.3,-4.2 m -6.6,-4.3 0.2,3 2.7,0.1 -0.3,-0.2 -0.4,-0.9 v -0.9 l 0.2,-0.9 0.6,-0.7 0.8,-0.3 0.6,-0.1 0.9,0.3 0.7,0.5 0.3,0.9 0.1,0.9 -0.2,0.9 -0.3,0.3 -0.6,0.4 m 9.1,76.7 h 0.6 l 1.2,-0.5 -2.3,5.8 m 4.9,-5 -1,-0.1 -0.5,0.5 -0.2,0.5 v 0.7 l 0.5,0.5 1,0.7 0.7,0.6 0.3,0.8 0.1,0.7 -0.3,0.8 -0.5,0.5 -0.4,0.1 h -1 l -1.1,-0.5 -0.7,-0.6 -0.2,-0.4 v -0.6 l 0.3,-0.9 0.5,-0.4 0.8,-0.4 0.9,0.1 1.3,0.2 0.6,-0.1 0.5,-0.4 0.3,-0.6 -0.1,-0.7 -0.7,-0.6 -1.3,-0.5 m -32.9,11 0.2,-0.6 -0.2,-1.3 5.1,3.7 m -2.2,-8 3.3,6.1 m -5.8,-2.7 2.5,-3.4 m 34.6,-17.6 -0.2,0.3 -0.5,0.4 -0.4,0.1 h -0.7 l -1,-0.6 -0.4,-0.5 -0.2,-0.4 0.1,-0.7 0.2,-0.5 0.6,-0.4 0.9,-0.5 4.1,-1.3 -3.7,-1.9 m -3.2,3.8 h -0.7 l -1.2,0.3 2.9,-5.5 m 17.2,23.4 -0.1,-0.3 v -0.7 l 0.2,-0.4 0.4,-0.5 1.1,-0.5 0.7,0.1 0.4,0.1 0.5,0.5 0.2,0.5 v 0.7 l -0.2,1.1 -1.6,3.9 3.9,-1.6 m 0.2,-7 -0.7,0.6 -0.2,1.1 0.3,1.5 0.4,0.8 0.8,1.3 0.9,0.6 1,-0.1 0.5,-0.2 0.7,-0.7 0.2,-1 -0.3,-1.5 -0.3,-0.8 -0.9,-1.3 -0.9,-0.6 -0.9,0.1 -0.4,0.1 m 11.1,-3.6 -0.3,-0.2 -0.4,-0.5 -0.1,-0.4 v -0.7 l 0.6,-1 0.6,-0.4 0.4,-0.1 h 0.6 l 0.6,0.3 0.3,0.5 0.5,1 1.2,4.1 2,-3.7 m -4.2,-5.4 -0.2,1 0.4,0.5 0.5,0.3 h 0.7 l 0.6,-0.3 0.8,-1 0.7,-0.6 0.8,-0.2 h 0.7 l 0.8,0.4 0.4,0.6 0.1,0.4 -0.2,0.9 -0.6,1.1 -0.7,0.6 -0.4,0.1 h -0.7 l -0.7,-0.4 -0.4,-0.6 -0.3,-0.8 0.2,-0.9 0.3,-1.2 0.1,-0.7 -0.4,-0.5 -0.5,-0.3 -0.7,-0.1 -0.7,0.7 -0.7,1.2 m -1.9,-14.2 0.2,0.2 0.2,0.7 v 0.4 l -0.3,0.6 -0.9,0.8 -0.6,0.2 h -0.5 l -0.6,-0.3 -0.4,-0.4 -0.2,-0.7 -0.1,-1 0.2,-4.3 -3.1,2.8 m 0.1,7.2 0.6,0.3 0.9,-0.4 0.4,-0.4 0.5,-0.8 -0.2,-1.1 -0.8,-1.3 -1,-1.1 -1,-0.7 -0.8,-0.1 -0.9,0.4 -0.2,0.2 -0.5,0.8 v 0.9 l 0.3,0.8 0.2,0.3 0.9,0.4 0.8,0.1 0.9,-0.4 0.2,-0.2 0.5,-0.8 v -0.9 l -0.4,-0.8 m 55.4,-5.1 -0.3,-0.1 -0.5,-0.4 -0.3,-0.3 -0.2,-0.7 0.2,-1.2 0.4,-0.5 0.4,-0.2 0.6,-0.2 0.6,0.1 0.6,0.4 0.7,0.7 2.4,3.5 0.8,-4.1 m -5.5,-5.4 3.6,3.7 0.8,-4.4 m -4.4,0.7 6.2,1.2 m -50.2,-19.8 0.5,0.4 1.1,0.6 -5.9,2.1 m 7.7,2.3 -1,-2.9 -2.6,0.7 0.4,0.1 0.6,0.8 0.3,0.8 v 1 l -0.4,0.8 -0.7,0.5 -0.6,0.2 -0.9,0.1 -0.8,-0.4 -0.6,-0.7 -0.3,-0.9 v -0.9 l 0.2,-0.4 0.4,-0.5 m 54.9,-0.6 -0.2,-0.2 -0.4,-0.6 -0.1,-0.4 0.1,-0.6 0.6,-1.1 0.6,-0.3 0.4,-0.1 0.7,0.1 0.5,0.3 0.3,0.5 0.5,1 1,4.2 2.2,-3.6 m -3.2,-4 -0.3,-0.1 -0.3,-0.6 -0.1,-0.4 V 394 l 0.7,-1 0.5,-0.3 0.4,-0.1 h 0.7 l 0.5,0.3 0.4,0.6 0.4,1 1,4.1 2.2,-3.5 m -4,-15.6 -0.5,-0.5 -1.1,-0.5 5.9,-2.3 m -7,-2.4 -0.4,0.5 v 0.9 l 0.2,0.6 0.6,0.7 1.1,0.3 1.5,-0.3 1.4,-0.5 1,-0.7 0.3,-0.8 v -0.9 l -0.1,-0.3 -0.6,-0.7 -0.8,-0.4 h -0.9 l -0.3,0.2 -0.7,0.6 -0.4,0.7 0.1,1 0.1,0.3 0.6,0.7 0.7,0.3 h 1 m -53.4,-2.9 0.1,0.7 0.5,1.1 -5.9,-2.3 m 4.5,6.4 -2.7,-4.3 -1.7,4.1 m 4.4,0.2 -5.8,-2.3 m 0.2,-40.8 0.6,0.3 1.2,0.3 -5.2,3.5 m 5.1,-1.4 0.2,-0.2 0.7,-0.1 0.4,0.1 0.6,0.4 0.7,1 v 0.6 0.4 l -0.4,0.6 -0.5,0.3 -0.6,0.1 h -1.1 l -4.2,-0.8 2.3,3.5 m -41.8,73.8 -0.1,-0.3 0.2,-0.6 0.2,-0.4 0.5,-0.4 1.2,-0.3 0.6,0.1 0.4,0.3 0.4,0.5 0.2,0.6 -0.2,0.6 -0.4,1 -2.2,3.6 4.1,-0.9 m -0.1,-5 0.5,-0.5 0.7,-1.1 1.5,6.2 m 8.7,-14.8 -0.3,-0.1 -0.4,-0.5 -0.2,-0.4 -0.1,-0.6 0.4,-1.2 0.5,-0.4 0.4,-0.2 0.7,-0.1 0.6,0.3 0.4,0.4 0.6,0.9 1.8,3.9 1.5,-3.9 m -3.4,-6.4 -0.7,0.1 -0.6,0.7 -0.2,0.6 v 0.9 l 0.6,0.9 1.3,0.8 1.4,0.5 1.2,0.2 0.8,-0.4 0.6,-0.7 0.1,-0.3 0.1,-0.9 -0.4,-0.8 -0.7,-0.6 -0.3,-0.1 h -1 l -0.7,0.3 -0.6,0.7 -0.1,0.3 -0.1,1 0.4,0.7 0.7,0.6 m -4.9,-20.6 0.2,0.2 0.2,0.6 0.1,0.4 -0.2,0.7 -0.8,0.9 -0.6,0.2 h -0.5 l -0.6,-0.1 -0.5,-0.4 -0.2,-0.7 -0.3,-1 -0.2,-4.2 -2.8,3.1 m 1.5,7.7 2,-2.2 -1.8,-2 v 0.4 l -0.3,0.9 -0.6,0.6 -0.9,0.5 h -0.8 l -0.9,-0.3 -0.4,-0.4 -0.5,-0.9 -0.1,-0.8 0.4,-0.9 0.6,-0.6 0.9,-0.5 h 0.4 l 0.6,0.1 m 11.4,-0.5 -0.5,-0.4 -1.1,-0.5 5.8,-2.3 m -7.8,-2 1.1,2.7 2.6,-0.7 -0.3,-0.1 -0.7,-0.8 -0.3,-0.8 v -1 l 0.3,-0.7 0.7,-0.6 0.6,-0.3 h 0.9 l 0.8,0.3 0.6,0.7 0.3,0.9 0.1,0.9 -0.2,0.4 -0.4,0.5 m 17,-87.4 -0.1,0.3 -0.5,0.5 -0.4,0.2 -0.6,0.1 -1.2,-0.4 -0.5,-0.4 -0.2,-0.4 -0.1,-0.7 0.2,-0.5 0.5,-0.5 0.8,-0.7 3.8,-2 -4,-1.2 m -6.1,2.5 0.5,-0.8 0.8,-0.4 h 0.9 l 0.3,0.1 0.8,0.5 0.4,0.8 v 0.9 l -0.1,0.3 -0.5,0.8 -0.8,0.4 H 332 l -0.3,-0.1 -0.8,-0.5 -0.4,-0.8 0.1,-1.2 0.4,-1.5 0.8,-1.3 0.8,-0.7 h 1 l 0.5,0.2 0.8,0.5 0.1,0.7 m -3.1,11.8 0.5,3.3 -2.7,-1.5 0.2,0.9 -0.2,0.7 -0.3,0.3 -0.8,0.4 -0.6,0.1 -1,-0.1 -0.6,-0.6 -0.5,-0.8 -0.1,-0.9 0.2,-0.9 0.2,-0.4 0.6,-0.4 m 6,6.4 -0.4,-0.9 -1,-0.4 -1.5,-0.1 -0.9,0.1 -1.4,0.5 -0.8,0.8 -0.2,0.9 0.1,0.6 0.4,0.8 1,0.5 1.5,0.1 0.9,-0.1 1.5,-0.6 0.8,-0.7 0.1,-0.9 v -0.5 m -89.8,104.9 2.5,2.1 -2.9,0.7 0.7,0.6 0.3,0.6 v 0.4 l -0.3,0.9 -0.4,0.5 -0.8,0.5 -0.9,0.1 -0.9,-0.4 -0.6,-0.5 -0.5,-0.9 -0.1,-0.4 0.2,-0.6 m 6.4,0.5 0.6,0.1 1.3,-0.1 -4,4.9 m 5.3,-11.8 0.1,0.3 -0.1,0.6 -0.1,0.4 -0.5,0.5 -1.1,0.5 -0.7,-0.1 -0.4,-0.2 -0.5,-0.4 -0.2,-0.6 0.1,-0.6 0.2,-1.1 1.6,-3.9 -3.8,1.6 m -2.5,7.8 0.4,-7 m 3.5,5.4 -3.9,1.6 m 14.7,49.7 h 0.7 l 1.2,-0.4 -2.8,5.6 m 3.2,-4.1 h 0.7 l 1.2,-0.4 -2.8,5.6 m 0.5,-22.9 -1.2,3.1 -1.6,-2.6 -0.3,0.9 -0.5,0.4 -0.4,0.2 h -0.9 l -0.6,-0.3 -0.7,-0.6 -0.3,-0.7 v -1 l 0.3,-0.8 0.6,-0.8 0.4,-0.1 0.7,-0.1 m 1.5,6.3 0.1,0.6 0.5,1.2 -5.9,-2.3 m -105.6,-163.7 -4.2,-3.2 -0.1,4.5 m 4.3,-1.3 -6.3,-0.2 m 4.6,3.3 h 0.3 l 0.6,0.3 0.3,0.3 0.3,0.6 -0.1,1.2 -0.3,0.6 -0.3,0.3 -0.6,0.3 h -0.6 l -0.6,-0.3 -0.9,-0.7 -2.9,-3.1 -0.1,4.2 m 7.1,27.1 -0.2,-0.2 v -0.7 l 0.1,-0.4 0.4,-0.5 1.1,-0.6 0.6,-0.1 0.4,0.2 0.6,0.3 0.3,0.6 v 0.6 l -0.1,1.1 -1.2,4.1 3.7,-2 m -0.7,-6.8 -0.7,0.7 0.1,0.6 0.3,0.6 0.5,0.3 h 0.7 l 1.2,-0.3 0.9,-0.2 0.8,0.2 0.6,0.4 0.4,0.8 v 0.7 l -0.1,0.4 -0.6,0.7 -1.1,0.6 -0.9,0.1 -0.4,-0.1 -0.6,-0.3 -0.4,-0.8 v -0.7 l 0.2,-0.8 0.7,-0.7 0.9,-0.9 0.3,-0.5 v -0.7 l -0.3,-0.5 -0.5,-0.4 -1,0.2 -1.1,0.6 m -2.5,-6.2 -4.9,-1.3 1.6,4.2 m 3.3,-2.9 -5.8,2.2 m 6.9,0.8 1.2,3.1 -2.9,-0.8 0.3,0.8 v 0.7 l -0.2,0.4 -0.7,0.6 -0.6,0.2 H 144 l -0.8,-0.3 -0.6,-0.8 -0.3,-0.8 -0.1,-1 0.2,-0.3 0.5,-0.5 m -26.1,-61.1 1.4,5 2.8,-3.6 m -4.2,-1.4 4.9,3.9 m -1.3,-8.4 1.4,4.9 2.8,-3.5 m -4.2,-1.4 4.9,3.9 m -20.2,42.5 -0.2,-3.3 2.5,1.7 v -0.9 l 0.3,-0.6 0.2,-0.3 0.9,-0.4 h 0.6 l 0.9,0.2 0.7,0.6 0.3,0.9 0.1,0.9 -0.3,0.9 -0.3,0.3 -0.6,0.3 m -5.5,-8.6 0.1,3 2.8,0.1 -0.4,-0.2 -0.3,-0.9 v -0.9 l 0.2,-0.9 0.6,-0.7 0.9,-0.3 h 0.6 l 0.9,0.2 0.6,0.6 0.4,0.9 v 0.9 l -0.3,0.9 -0.2,0.3 -0.6,0.3 m -51.7,1.3 0.4,-2.9 -2.6,-0.7 0.2,0.4 0.2,0.9 -0.1,0.9 -0.4,0.8 -0.7,0.6 -0.9,0.1 h -0.6 l -0.9,-0.4 -0.5,-0.7 -0.2,-0.9 0.2,-0.9 0.4,-0.9 0.3,-0.3 0.6,-0.2 m 1.7,20.8 h 0.3 l 0.5,0.3 0.3,0.4 0.3,0.6 -0.1,1.2 -0.4,0.6 -0.3,0.2 -0.6,0.3 -0.6,-0.1 -0.6,-0.3 -0.8,-0.7 -2.8,-3.2 -0.3,4.2 m 11,20.4 1.7,2.9 -3,-0.4 0.4,0.8 0.1,0.7 -0.1,0.4 -0.7,0.7 -0.5,0.3 -0.9,0.2 -0.8,-0.2 -0.7,-0.7 -0.5,-0.7 -0.2,-1 0.1,-0.4 0.4,-0.5 m 65.2,14.4 -1.3,-3 2.9,0.7 -0.3,-0.8 v -0.7 l 0.2,-0.4 0.7,-0.6 0.6,-0.2 0.9,-0.1 0.8,0.4 0.6,0.7 0.4,0.8 v 0.9 l -0.1,0.4 -0.5,0.5 m -8.3,-6.7 7,0.4 m -5.4,3.5 -1.6,-3.9 m -35.9,26.8 -0.7,-0.7 h -1.1 l -1.4,0.6 -0.8,0.4 -1.1,1.1 -0.4,1 0.2,0.9 0.3,0.5 0.7,0.6 h 1.1 l 1.4,-0.5 0.8,-0.5 1.1,-1 0.5,-1 -0.3,-0.9 -0.2,-0.4 m 34.5,31.5 1.7,-2.9 1.1,2.8 0.5,-0.8 0.6,-0.3 0.4,-0.1 0.9,0.2 0.5,0.3 0.6,0.7 0.2,0.8 -0.2,1 -0.4,0.7 -0.8,0.7 -0.4,0.1 -0.6,-0.1 m -0.1,-6.9 -0.3,-0.1 -0.3,-0.6 -0.1,-0.4 v -0.7 l 0.6,-1 0.6,-0.4 0.4,-0.1 0.7,0.1 0.5,0.3 0.4,0.6 0.4,0.9 1.1,4.2 2.1,-3.6 m -22.1,9 0.6,0.3 1.3,0.1 -5.1,3.8 m 259.8,37.3 -5.1,0.8 3.2,3.2 m 1.9,-4 -4.5,4.4 m 6.8,-2 2.3,2.3 -3,0.4 0.6,0.7 0.2,0.6 v 0.4 l -0.4,0.9 -0.5,0.4 -0.8,0.4 h -0.9 l -0.8,-0.4 -0.6,-0.7 -0.4,-0.8 v -0.5 l 0.2,-0.6 m 36.1,1.9 -2,-2.7 3,0.1 -0.5,-0.8 -0.1,-0.6 0.1,-0.5 0.5,-0.7 0.5,-0.4 0.9,-0.3 0.8,0.2 0.8,0.5 0.6,0.7 0.2,1 v 0.4 l -0.3,0.6 m -8.7,-4.8 -0.3,0.6 0.3,0.9 0.3,0.5 0.8,0.5 h 1.1 l 1.4,-0.7 1.2,-0.8 0.8,-1 0.1,-0.8 -0.3,-0.9 -0.1,-0.3 -0.8,-0.5 -0.9,-0.1 -0.9,0.2 -0.2,0.2 -0.6,0.8 -0.1,0.8 0.3,0.9 0.2,0.3 0.7,0.5 0.9,0.2 0.9,-0.3 m -2.1,28.7 0.9,-3.1 1.9,2.4 0.2,-0.9 0.5,-0.5 0.3,-0.2 h 1 l 0.6,0.1 0.7,0.6 0.4,0.7 0.1,0.9 -0.3,0.9 -0.5,0.8 -0.4,0.2 -0.6,0.1 m -2.5,-10 -0.8,2.9 2.5,1 -0.2,-0.3 v -1 l 0.2,-0.8 0.6,-0.8 0.7,-0.4 1,-0.1 0.5,0.2 0.8,0.5 0.4,0.8 0.1,0.9 -0.3,0.9 -0.5,0.8 -0.4,0.2 -0.7,0.1 m -23.6,0.3 -4.6,-2.3 0.7,4.4 m 3.9,-2.1 -6.2,1 m 5.2,2.3 h 0.3 l 0.6,0.2 0.4,0.2 0.3,0.6 0.2,1.2 -0.2,0.6 -0.2,0.3 -0.6,0.4 -0.5,0.1 -0.7,-0.2 -1,-0.4 -3.4,-2.5 0.7,4.2 m 7.3,24.3 1.9,4.8 2.5,-3.7 m -4.4,-1.1 5.3,3.5 m -2.1,-8.3 1.9,4.8 2.4,-3.8 m -4.3,-1 5.3,3.4 m -5.9,-0.1 -4.6,-2.3 0.6,4.4 m 4,-2.1 -6.3,0.9 m 5.2,1.9 0.3,0.5 1.1,0.8 -6.3,0.9 m 14.5,-162 0.3,0.6 1,0.2 0.5,-0.1 0.9,-0.3 0.5,-1 0.2,-1.5 -0.1,-1.5 -0.4,-1.2 -0.7,-0.5 -0.9,-0.2 h -0.3 l -0.9,0.4 -0.5,0.6 -0.3,1 0.1,0.3 0.4,0.8 0.6,0.6 0.9,0.2 h 0.3 l 0.9,-0.4 0.5,-0.7 0.3,-0.9 m -5.3,4.7 -3.3,0.3 1.6,-2.6 -0.9,0.1 -0.6,-0.2 -0.3,-0.3 -0.4,-0.9 -0.1,-0.6 0.3,-0.9 0.5,-0.6 0.9,-0.4 0.9,-0.1 0.9,0.2 0.3,0.3 0.4,0.6 m 2,9.5 -0.6,0.3 -0.3,0.9 v 0.6 l 0.3,0.9 1,0.6 1.5,0.2 h 1.5 l 1.2,-0.4 0.5,-0.6 0.3,-0.9 v -0.3 l -0.3,-0.9 -0.6,-0.6 -0.9,-0.2 h -0.3 l -0.9,0.3 -0.6,0.6 -0.3,0.9 v 0.3 l 0.3,0.9 0.7,0.6 0.9,0.3 m -2.9,-5.5 h -0.3 l -0.6,-0.3 -0.3,-0.3 -0.3,-0.6 -0.1,-1.2 0.3,-0.6 0.3,-0.3 0.6,-0.3 h 0.6 l 0.6,0.3 0.9,0.5 3.1,2.9 -0.1,-4.2 m -192.9,-205.8 -0.2,0.6 0.4,0.8 0.4,0.5 0.8,0.4 1.1,-0.2 1.3,-0.8 1.1,-1 0.7,-1 v -0.9 l -0.4,-0.9 -0.2,-0.2 -0.9,-0.4 h -0.8 l -0.9,0.4 -0.2,0.2 -0.4,0.8 -0.1,0.9 0.4,0.8 0.3,0.2 0.8,0.5 h 0.8 l 0.9,-0.4 m -8.4,-4 -0.2,0.6 0.4,0.9 0.4,0.4 0.9,0.5 1,-0.2 1.3,-0.8 1.1,-1.1 0.7,-1 v -0.9 l -0.4,-0.8 -0.2,-0.2 -0.8,-0.5 h -0.9 l -0.9,0.4 -0.2,0.2 -0.4,0.8 v 0.9 l 0.4,0.9 0.2,0.2 0.8,0.4 h 0.9 l 0.8,-0.4 m -20.9,-3.3 -3.4,-6.1 m 5.9,2.6 -2.5,3.5 m -1.7,2.4 0.3,-0.9 -0.4,-1.1 -1,-1.1 -0.8,-0.5 -1.4,-0.6 h -1 l -0.8,0.5 -0.4,0.5 -0.2,0.9 0.3,1 1.1,1.1 0.7,0.6 1.4,0.6 h 1.1 l 0.8,-0.5 0.2,-0.4 m 8.5,-5.2 0.1,0.6 0.8,0.6 0.5,0.2 1,-0.1 0.8,-0.7 0.7,-1.3 0.5,-1.4 v -1.3 l -0.4,-0.7 -0.7,-0.6 -0.3,-0.1 -1,0.1 -0.7,0.4 -0.6,0.7 v 0.3 1 l 0.4,0.7 0.7,0.6 0.3,0.1 1,-0.1 0.7,-0.4 0.6,-0.7 m -9.2,-0.6 0.6,-0.8 0.7,-0.4 h 1 l 0.2,0.1 0.8,0.5 0.4,0.8 v 0.9 0.3 l -0.6,0.8 -0.7,0.4 h -1 l -0.3,-0.1 -0.8,-0.6 -0.4,-0.7 0.1,-1.2 0.4,-1.5 0.8,-1.3 0.8,-0.7 h 1 l 0.5,0.1 0.8,0.6 0.1,0.7 m 194.2,204.7 -0.5,-0.5 -0.9,0.1 -0.6,0.2 -0.7,0.6 -0.3,1 0.2,1.5 0.5,1.4 0.7,1.1 0.8,0.3 h 0.9 l 0.3,-0.1 0.8,-0.6 0.3,-0.8 V 331 l -0.1,-0.3 -0.6,-0.7 -0.7,-0.4 h -1 l -0.3,0.1 -0.7,0.6 -0.4,0.8 v 0.9 m 3.9,-5.8 3.1,-1.2 -0.9,2.9 0.9,-0.3 0.7,0.1 0.3,0.2 0.6,0.7 0.2,0.6 0.1,0.9 -0.4,0.8 -0.7,0.6 -0.9,0.3 h -0.9 l -0.4,-0.2 -0.5,-0.4 m 22.3,-1.4 v -0.6 l -0.6,-0.7 -0.5,-0.4 -1,-0.2 -0.9,0.5 -1.1,1.2 -0.7,1.2 -0.4,1.2 0.2,0.9 0.7,0.7 0.2,0.1 0.9,0.2 0.9,-0.2 0.7,-0.6 0.1,-0.3 0.2,-0.9 -0.2,-0.8 -0.6,-0.7 -0.3,-0.2 -0.9,-0.2 -0.8,0.2 -0.7,0.6 m 6.1,0.6 0.2,-0.3 0.6,-0.4 0.4,-0.1 0.6,0.1 1.1,0.6 0.3,0.6 0.1,0.4 v 0.6 l -0.3,0.5 -0.6,0.4 -1,0.5 -4.1,1 3.6,2.2 m -35.8,-50 0.5,0.5 1,-0.1 0.5,-0.2 0.8,-0.6 0.2,-1.1 -0.3,-1.5 -0.5,-1.4 -0.8,-1 -0.7,-0.3 -1,0.1 -0.3,0.1 -0.7,0.6 -0.3,0.8 v 0.9 l 0.1,0.3 0.7,0.7 0.7,0.3 h 1 l 0.3,-0.1 0.7,-0.6 0.3,-0.8 v -1 m -3.6,4.5 -0.5,0.5 -0.5,1.1 -2.3,-5.8 m 25.9,9.4 -0.3,0.6 0.3,0.9 0.4,0.4 0.8,0.6 1.1,-0.1 1.3,-0.6 1.2,-0.9 0.8,-1 0.1,-0.8 -0.3,-0.9 -0.1,-0.3 -0.8,-0.5 -0.9,-0.1 -0.9,0.3 -0.2,0.1 -0.5,0.8 -0.2,0.9 0.3,0.9 0.2,0.2 0.8,0.5 0.8,0.2 0.9,-0.3 m -8.5,-4.4 1.8,2.4 2.3,-1.4 -0.4,-0.1 -0.8,-0.5 -0.5,-0.7 -0.3,-0.9 0.1,-0.9 0.5,-0.7 0.5,-0.4 0.9,-0.3 0.9,0.1 0.7,0.6 0.6,0.7 0.3,0.9 -0.1,0.4 -0.3,0.6 m 31.1,52.4 h 0.7 l 1.2,-0.5 -2.6,5.8 m 6.6,-3.2 v -0.7 l -0.7,-0.6 -0.5,-0.2 -1,-0.1 -0.9,0.5 -0.9,1.3 -0.6,1.4 -0.2,1.2 0.3,0.8 0.7,0.6 0.2,0.1 1,0.1 0.8,-0.3 0.6,-0.7 0.1,-0.2 0.1,-1 -0.3,-0.8 -0.7,-0.6 -0.2,-0.1 -1,-0.1 -0.8,0.3 -0.6,0.7 m 19.7,-6.9 -1.7,-2.8 3,0.3 -0.5,-0.7 v -0.7 l 0.1,-0.4 0.6,-0.7 0.5,-0.3 1,-0.2 0.8,0.2 0.7,0.6 0.4,0.8 0.2,0.9 -0.1,0.4 -0.3,0.6 m -8.8,-4.7 5.2,0.4 -2.3,-3.9 m -2.9,3.5 5.5,-3.2 m 9.2,-26.3 0.2,0.6 0.8,0.5 0.6,0.2 1,-0.2 0.7,-0.7 0.6,-1.4 0.3,-1.5 v -1.2 l -0.5,-0.7 -0.8,-0.5 -0.3,-0.1 -0.9,0.1 -0.7,0.5 -0.5,0.8 -0.1,0.3 0.1,1 0.5,0.7 0.8,0.4 0.3,0.1 1,-0.1 0.7,-0.5 0.4,-0.8 m -9.7,2.3 4.2,-5.6 m -0.1,6.4 -4.1,-0.8 m 3.1,4.6 3.3,0.4 -2.1,2.2 0.9,0.1 0.6,0.4 0.3,0.3 0.2,0.9 -0.1,0.6 -0.4,0.9 -0.7,0.5 -0.9,0.2 -0.9,-0.1 -0.9,-0.4 -0.2,-0.3 -0.3,-0.7 m 6.5,-4.3 3.3,0.3 -2.1,2.2 0.9,0.1 0.6,0.4 0.3,0.3 0.2,0.9 -0.1,0.6 -0.4,0.9 -0.7,0.5 -0.9,0.2 -0.9,-0.1 -0.9,-0.4 -0.2,-0.3 -0.3,-0.6 m 5.4,-1.3 7,0.6 m -5.6,3.3 -1.4,-3.9 m -1,-2.8 0.6,0.7 1,0.3 1.6,-0.2 0.8,-0.4 1.3,-0.8 0.6,-0.8 v -1 l -0.2,-0.5 -0.6,-0.8 -1,-0.2 -1.5,0.2 -0.9,0.3 -1.3,0.8 -0.6,0.9 v 0.9 l 0.2,0.4 m -56.6,-24.4 0.4,-0.5 -0.1,-0.9 -0.3,-0.6 -0.7,-0.6 -1.1,-0.1 -1.4,0.4 -1.4,0.7 -0.9,0.8 -0.3,0.8 0.2,0.9 0.1,0.3 0.7,0.7 0.8,0.2 0.9,-0.1 0.3,-0.2 0.7,-0.7 0.2,-0.8 -0.1,-0.9 -0.2,-0.3 -0.6,-0.6 -0.8,-0.3 -1,0.2 m 7.6,5.3 -5.1,-0.8 2,4 m 3.1,-3.2 -5.6,2.9 m -1.4,-26.3 0.7,-0.2 0.3,-0.9 0.1,-0.6 -0.3,-0.9 -0.8,-0.7 -1.5,-0.4 -1.5,-0.1 -1.2,0.2 -0.6,0.5 -0.4,0.9 v 0.3 l 0.2,0.9 0.5,0.6 0.9,0.4 h 0.3 l 0.9,-0.2 0.7,-0.5 0.4,-0.9 v -0.3 l -0.2,-0.9 -0.6,-0.7 -0.9,-0.3 m 2.6,8.8 0.7,-0.2 0.3,-0.9 0.1,-0.6 -0.3,-0.9 -0.8,-0.7 -1.5,-0.4 -1.5,-0.1 -1.2,0.2 -0.6,0.5 -0.4,0.9 v 0.3 l 0.2,0.9 0.5,0.7 0.9,0.4 h 0.3 l 0.9,-0.2 0.7,-0.6 0.4,-0.9 v -0.3 l -0.2,-0.9 -0.6,-0.6 -0.9,-0.4 m 21,-17 6.9,1.2 m -5.7,2.8 -1.2,-4 m 1.1,-1.4 -0.4,-0.5 -1.1,-0.7 6,-1.6 m -15.8,-15.6 6.7,-1.7 m -4.1,4.9 -2.6,-3.2 m 0.1,-2.3 -0.3,0.2 -0.6,0.2 -0.4,-0.1 -0.7,-0.3 -0.7,-0.9 -0.2,-0.6 0.1,-0.5 0.3,-0.6 0.4,-0.4 0.7,-0.1 1,-0.1 4.3,0.4 -2.7,-3.2 m -19.9,21.6 0.1,-0.6 -0.6,-0.8 -0.5,-0.3 -0.9,-0.2 -1,0.4 -1.1,1.1 -0.8,1.3 -0.4,1.1 0.2,0.9 0.6,0.7 0.2,0.2 0.9,0.2 0.9,-0.2 0.7,-0.6 0.2,-0.2 0.2,-1 -0.2,-0.8 -0.6,-0.7 -0.2,-0.2 -0.9,-0.2 -0.9,0.2 -0.7,0.6 m 8.7,3 -0.8,0.6 -0.8,0.2 -0.9,-0.2 -0.3,-0.2 -0.6,-0.7 -0.2,-0.9 0.3,-0.9 0.1,-0.2 0.8,-0.6 0.8,-0.2 0.9,0.2 0.3,0.2 0.6,0.7 0.1,0.9 -0.3,1.1 -0.9,1.3 -1,1.1 -1,0.4 -0.9,-0.2 -0.5,-0.3 -0.6,-0.8 v -0.6 m 62.8,31.6 -0.6,-0.2 -0.9,0.3 -0.5,0.3 -0.5,0.8 0.1,1.1 0.7,1.4 0.9,1.2 1,0.7 0.8,0.1 0.9,-0.3 0.3,-0.2 0.5,-0.8 0.1,-0.8 -0.3,-0.9 -0.2,-0.3 -0.8,-0.5 -0.9,-0.1 -0.9,0.3 -0.2,0.2 -0.5,0.8 -0.1,0.9 0.3,0.9 m 2.6,-7.4 -0.6,0.8 0.2,0.7 0.3,0.4 0.6,0.3 0.7,-0.1 1.1,-0.5 0.9,-0.4 0.9,0.1 0.6,0.3 0.5,0.7 0.2,0.7 -0.1,0.4 -0.5,0.8 -0.9,0.8 -0.9,0.3 -0.5,-0.1 -0.6,-0.3 -0.5,-0.7 -0.2,-0.6 0.1,-0.9 0.6,-0.8 0.7,-0.9 0.3,-0.6 -0.1,-0.7 -0.4,-0.5 -0.6,-0.3 -0.9,0.4 -1.1,0.8 m 8.9,-23.7 6.1,3.2 m -6.3,1 0.2,-4.2 m 0.1,-4.3 4,3.1 0.2,-4.5 m -4.2,1.4 6.3,0.2 m -75.6,-33.4 5.4,-4.4 m -1.6,6.2 -3.8,-1.8 m -1.6,-0.8 -3,-1.4 2.7,-1.4 -0.8,-0.4 -0.4,-0.5 -0.1,-0.4 0.1,-1 0.2,-0.5 0.7,-0.7 0.8,-0.3 0.9,0.1 0.8,0.4 0.7,0.7 0.2,0.4 v 0.7 m -15.9,20.1 0.3,-0.6 -0.3,-0.9 -0.3,-0.4 -0.8,-0.6 h -1.1 l -1.4,0.7 -1.2,0.9 -0.8,0.9 -0.1,0.8 0.2,0.9 0.2,0.3 0.8,0.5 0.8,0.2 0.9,-0.3 0.3,-0.2 0.5,-0.8 0.2,-0.8 -0.3,-0.9 -0.2,-0.2 -0.8,-0.6 -0.8,-0.1 -0.9,0.3 m 8.7,4.9 -6.8,1.2 m 4.4,-4.6 2.4,3.4 m 1,-15.9 0.6,0.1 0.8,-0.5 0.4,-0.4 0.3,-0.9 -0.3,-1.1 -1,-1.1 -1.2,-1 -1.1,-0.5 -0.8,0.1 -0.8,0.5 -0.2,0.2 -0.3,0.9 v 0.9 l 0.6,0.8 0.2,0.2 0.9,0.3 0.8,-0.1 0.8,-0.5 0.2,-0.2 0.3,-0.9 v -0.9 l -0.6,-0.8 m -0.8,7.8 0.3,-0.9 -0.2,-0.6 -0.5,-0.4 -0.7,-0.2 -0.6,0.3 -1,0.8 -0.8,0.5 -0.8,0.1 -0.7,-0.2 -0.7,-0.5 -0.2,-0.7 -0.1,-0.4 0.3,-0.9 0.8,-0.9 0.8,-0.5 0.4,-0.1 0.7,0.2 0.7,0.6 0.3,0.6 v 0.8 l -0.3,0.9 -0.5,1.1 -0.2,0.7 0.3,0.6 0.5,0.4 0.6,0.1 0.8,-0.5 0.9,-1.1 m 55.2,22.9 -6.4,-2.7 m 6.2,-1.5 0.2,4.2 m -1.3,1.2 0.3,0.6 0.9,0.8 -6.3,0.3 m -231.8,-92.1 -2.7,-1.4 -1.5,2.2 0.4,-0.1 0.9,0.1 0.8,0.5 0.7,0.7 0.2,0.8 -0.2,0.9 -0.2,0.5 -0.7,0.7 -0.8,0.2 -1,-0.1 -0.8,-0.5 -0.6,-0.7 -0.1,-0.4 v -0.6 m 6.4,-0.8 0.6,0.1 1.3,-0.4 -3,5.5 m 17.8,-37.4 0.6,-0.3 0.3,-0.9 0.1,-0.6 -0.3,-0.9 -0.9,-0.6 -1.5,-0.4 h -1.5 l -1.2,0.3 -0.6,0.6 -0.3,0.9 -0.1,0.3 0.3,0.9 0.6,0.6 0.9,0.3 h 0.3 l 0.9,-0.3 0.6,-0.6 0.3,-0.9 0.1,-0.3 -0.3,-0.9 -0.6,-0.6 -0.9,-0.3 m 4.1,8.3 -4.2,-3.1 -0.1,4.5 m 4.3,-1.4 -6.3,-0.2 m 27.4,40.7 0.3,6.9 m -4,-4.9 3.7,-2 m 4.1,-2.3 -2.6,1.4 1,2.5 0.1,-0.4 0.7,-0.7 0.8,-0.4 0.9,-0.2 0.8,0.3 0.7,0.6 0.3,0.5 0.2,1 -0.3,0.8 -0.6,0.7 -0.8,0.4 -0.9,0.2 -0.5,-0.1 -0.5,-0.4 m -20.3,-5.5 -5.9,3.7 m 2.3,-6 3.6,2.3 m 3.5,3.3 0.1,-0.7 -0.6,-0.7 -0.5,-0.4 -0.9,-0.2 -1,0.5 -1.1,1.1 -0.8,1.2 -0.4,1.2 0.2,0.8 0.6,0.8 0.3,0.1 0.9,0.3 0.8,-0.2 0.8,-0.6 0.1,-0.3 0.3,-0.9 -0.2,-0.8 -0.6,-0.8 -0.3,-0.1 -0.9,-0.3 -0.8,0.2 -0.8,0.6 m 37.5,-22.5 3,-6.3 m 1.2,6.3 h -4.2 m -5.2,0 3,-6.3 m 1.2,6.3 h -4.2 m -0.1,4.2 5.1,4.8 m -6.4,-0.8 1.3,-4 m 1.4,-4.5 -0.9,2.9 2.5,1.1 -0.2,-0.4 v -1 l 0.3,-0.8 0.5,-0.8 0.8,-0.4 h 0.9 l 0.6,0.2 0.8,0.6 0.3,0.7 0.1,1 -0.3,0.8 -0.6,0.8 -0.4,0.2 -0.6,0.1 m -28.2,-40.4 0.5,0.5 0.9,0.1 0.6,-0.2 0.8,-0.5 0.3,-1 -0.1,-1.5 -0.4,-1.5 -0.6,-1.1 -0.7,-0.4 -1,-0.1 -0.3,0.1 -0.7,0.5 -0.5,0.8 v 0.9 l 0.1,0.3 0.5,0.8 0.7,0.4 1,0.1 0.3,-0.1 0.7,-0.5 0.5,-0.8 v -0.9 m -7.2,6.3 2.9,-0.8 -0.4,-2.7 -0.2,0.4 -0.8,0.5 -0.9,0.3 -1,-0.1 -0.7,-0.4 -0.5,-0.8 -0.2,-0.6 0.1,-0.9 0.4,-0.8 0.8,-0.5 0.9,-0.2 h 0.9 l 0.4,0.2 0.4,0.5 m 21.2,20 2.1,6.7 m -5.2,-3.8 3.1,-2.9 m 3.8,-3.5 2.1,6.7 m -5.2,-3.8 3.1,-2.9 m 5.1,-12.4 5.1,4.9 m -6.4,-0.9 1.3,-4 m 2.4,-4.2 -0.7,0.1 -0.5,0.8 -0.2,0.5 v 1 l 0.6,0.8 1.4,0.8 1.4,0.5 1.2,0.1 0.8,-0.4 0.6,-0.8 v -0.3 -0.9 l -0.3,-0.8 -0.8,-0.5 -0.3,-0.1 h -0.9 l -0.8,0.4 -0.6,0.7 v 0.3 1 l 0.3,0.7 0.8,0.6 m -18.6,-28.8 -1.5,-2.6 -2.5,1.1 0.4,0.1 0.7,0.6 0.5,0.8 0.1,1 -0.2,0.8 -0.6,0.7 -0.5,0.3 -1,0.2 -0.8,-0.3 -0.7,-0.6 -0.4,-0.8 -0.2,-0.9 0.1,-0.4 0.4,-0.6 m 7.1,6.6 -0.9,0.2 -0.8,-0.3 -0.7,-0.6 -0.2,-0.3 -0.2,-0.9 0.3,-0.8 0.6,-0.7 0.3,-0.2 0.9,-0.1 0.8,0.2 0.7,0.6 0.2,0.3 0.2,0.9 -0.3,0.8 -0.9,0.9 -1.3,0.7 -1.4,0.5 -1.1,-0.1 -0.7,-0.6 -0.3,-0.5 -0.2,-1 0.4,-0.5 m 13.4,-8.8 0.5,0.5 h 0.9 l 0.6,-0.1 0.8,-0.6 0.4,-1 -0.1,-1.5 -0.4,-1.5 -0.6,-1 -0.8,-0.5 h -0.9 l -0.3,0.1 -0.8,0.5 -0.4,0.7 -0.1,1 0.1,0.3 0.5,0.7 0.8,0.5 h 0.9 l 0.3,-0.1 0.8,-0.5 0.4,-0.7 0.1,-1 m -5.6,5.9 0.8,-0.6 0.4,-1 -0.1,-1.5 -0.3,-0.9 -0.6,-1.3 -0.8,-0.8 h -1 l -0.6,0.1 -0.8,0.6 -0.3,1 0.1,1.5 0.2,0.9 0.7,1.4 0.8,0.7 h 1 l 0.4,-0.1 m 33.8,-11.1 1,-5 -4.1,1.8 m 3.1,3.2 -2.6,-5.7 m -3.5,7.4 0.5,0.4 0.9,-0.1 0.6,-0.2 0.7,-0.7 0.2,-1 -0.4,-1.5 -0.6,-1.4 -0.7,-1 -0.8,-0.3 -1,0.1 -0.3,0.1 -0.7,0.7 -0.3,0.8 0.1,0.9 0.2,0.3 0.6,0.7 0.8,0.3 0.9,-0.1 0.3,-0.1 0.7,-0.7 0.3,-0.8 -0.1,-0.9 m 9.7,8.4 1.8,2.3 2.3,-1.4 h -0.4 l -0.8,-0.6 -0.5,-0.7 -0.3,-0.9 0.1,-0.8 0.5,-0.8 0.5,-0.4 0.9,-0.3 0.8,0.1 0.8,0.5 0.5,0.7 0.4,0.9 -0.1,0.5 -0.3,0.6 m -6.4,-2.4 -0.3,0.1 -0.6,0.2 -0.4,-0.1 -0.6,-0.3 -0.8,-0.9 -0.1,-0.7 V 72 l 0.3,-0.6 0.5,-0.4 0.7,-0.1 1,-0.1 4.2,0.5 -2.5,-3.3 m -9.1,37.9 -1.2,-2.7 -2.6,0.8 0.4,0.1 0.6,0.7 0.4,0.8 0.1,1 -0.3,0.8 -0.7,0.6 -0.6,0.2 -0.9,0.1 -0.8,-0.3 -0.7,-0.7 -0.3,-0.8 -0.1,-1 0.1,-0.3 0.5,-0.6 m 5.5,3.4 0.5,0.4 1.2,0.5 -5.8,2.5 m 11.2,-1.4 -3,0.6 0.2,2.7 0.3,-0.4 0.8,-0.5 0.9,-0.1 0.9,0.1 0.7,0.5 0.5,0.8 0.1,0.6 -0.1,0.9 -0.5,0.7 -0.8,0.5 -0.9,0.2 -0.9,-0.2 -0.4,-0.2 -0.4,-0.5 m 4.8,-6.2 3.3,-0.6 -1.3,2.7 0.9,-0.2 0.6,0.2 0.4,0.3 0.4,0.8 0.1,0.6 -0.1,0.9 -0.5,0.7 -0.8,0.5 -0.9,0.2 -0.9,-0.2 -0.4,-0.2 -0.4,-0.5 m 21.9,-48.2 -3.8,-3.5 -0.6,4.5 m 4.4,-1 -6.3,-0.8 m 5.4,7.5 -5.9,-3.8 m 6.4,-0.4 -0.5,4.2 m 8.4,37.9 -4,3.3 4.4,1.2 m -0.4,-4.5 -1.6,6.1 m 5.6,-4.9 h -0.9 l -0.5,0.5 -0.1,0.6 0.1,0.7 0.5,0.4 1.1,0.6 0.8,0.5 0.4,0.8 0.1,0.6 -0.2,0.9 -0.4,0.5 -0.4,0.2 -0.9,0.1 -1.2,-0.3 -0.8,-0.6 -0.2,-0.3 -0.1,-0.7 0.2,-0.9 0.4,-0.5 0.8,-0.4 h 0.9 1.2 l 0.7,-0.2 0.4,-0.5 0.2,-0.5 -0.1,-0.7 -0.8,-0.5 -1.3,-0.4 m 39,-5.4 -4.7,2 3.8,2.3 m 0.9,-4.3 -3.3,5.3 m 7.8,-0.1 -0.7,0.6 -0.9,0.2 -0.9,-0.2 -0.2,-0.1 -0.6,-0.8 -0.3,-0.8 0.3,-0.9 0.1,-0.3 0.7,-0.6 0.9,-0.2 0.9,0.2 0.2,0.2 0.7,0.7 0.2,0.8 -0.4,1.2 -0.8,1.3 -1,1.1 -1,0.5 -0.9,-0.2 -0.5,-0.3 -0.6,-0.8 V 113 m -16.3,2.9 h -3 l -0.3,2.8 0.3,-0.4 0.9,-0.3 h 0.9 l 0.9,0.3 0.6,0.6 0.3,0.9 v 0.6 l -0.3,0.9 -0.6,0.6 -0.9,0.3 H 350 l -0.9,-0.3 -0.3,-0.3 -0.3,-0.5 m 8.9,-5.3 -3,0.1 -0.3,2.7 0.3,-0.3 0.9,-0.3 h 0.9 l 0.9,0.2 0.6,0.6 0.3,0.9 v 0.6 l -0.2,0.9 -0.6,0.6 -0.9,0.4 h -0.9 l -0.9,-0.3 -0.3,-0.3 -0.3,-0.6 m -1.6,0.2 1.8,2.4 2.3,-1.4 H 356 l -0.8,-0.6 -0.5,-0.7 -0.3,-0.9 0.1,-0.9 0.6,-0.7 0.5,-0.4 0.9,-0.3 0.8,0.2 0.8,0.5 0.5,0.7 0.3,0.9 -0.1,0.4 -0.3,0.6 m -8.3,-2.7 0.8,0.5 h 1.1 l 1.3,-0.6 0.8,-0.6 1,-1.1 0.4,-1 -0.3,-0.9 -0.4,-0.5 -0.8,-0.6 -1,0.1 -1.4,0.6 -0.7,0.6 -1.1,1.1 -0.3,1 0.2,0.9 0.3,0.4 m 63.7,-17.4 -3.2,0.8 1.1,-2.8 -0.9,0.3 -0.6,-0.2 -0.4,-0.2 -0.5,-0.8 -0.2,-0.5 0.1,-1 0.4,-0.7 0.8,-0.5 0.9,-0.3 0.9,0.1 0.4,0.2 0.4,0.5 m -5.6,6.8 0.8,-0.6 0.4,-1 -0.1,-1.5 -0.2,-0.9 -0.7,-1.4 -0.8,-0.7 h -1 l -0.6,0.1 -0.7,0.5 -0.4,1.1 0.1,1.5 0.2,0.9 0.7,1.3 0.8,0.8 h 1 l 0.4,-0.1 m 17.8,7.3 -0.3,-0.6 -0.9,-0.9 6.3,-0.1 m -6.6,-1.6 v -3.3 l 2.4,1.7 v -0.9 l 0.3,-0.6 0.3,-0.3 0.9,-0.3 h 0.6 l 0.9,0.3 0.6,0.6 0.3,0.9 v 0.9 l -0.3,0.9 -0.3,0.3 -0.6,0.3 m -2.5,38.5 -0.3,-0.6 -1,-0.9 6.3,-0.2 m -4.6,-4.9 0.9,0.3 0.6,0.6 0.4,0.8 v 0.3 l -0.3,0.9 -0.6,0.7 -0.8,0.3 h -0.3 l -0.9,-0.2 -0.7,-0.6 -0.3,-0.9 v -0.3 l 0.2,-0.9 0.6,-0.6 1.2,-0.4 h 1.5 l 1.5,0.2 0.9,0.5 0.4,0.9 v 0.6 l -0.3,0.9 -0.6,0.4 m -57.8,-3.6 0.7,-5.2 -4,2.2 m 3.3,3 -3,-5.6 m -3.8,6.7 -0.2,-0.9 0.3,-0.8 0.6,-0.7 0.3,-0.1 0.9,-0.2 0.8,0.3 0.7,0.6 0.2,0.3 0.1,0.9 -0.2,0.8 -0.7,0.7 -0.2,0.2 -1,0.1 -0.8,-0.2 -0.8,-1 -0.7,-1.3 -0.5,-1.4 0.1,-1.1 0.7,-0.7 0.5,-0.3 1,-0.1 0.5,0.3 m -4.4,9.1 -1.7,-2.5 -2.4,1.2 0.4,0.1 0.8,0.6 0.5,0.8 0.2,0.9 -0.1,0.8 -0.6,0.8 -0.5,0.3 -0.9,0.2 -0.9,-0.1 -0.7,-0.6 -0.5,-0.8 -0.3,-0.9 0.1,-0.4 0.4,-0.6 m 8.1,3.2 -0.7,-0.6 h -1.1 l -1.4,0.5 -0.7,0.5 -1.1,1.1 -0.5,1 0.3,0.9 0.3,0.5 0.8,0.6 h 1.1 l 1.4,-0.6 0.7,-0.4 1.1,-1.1 0.4,-1 -0.2,-0.9 -0.3,-0.4 m 44.8,24.8 -0.2,-0.2 -0.2,-0.6 v -0.5 l 0.2,-0.6 0.9,-0.8 0.6,-0.2 h 0.5 l 0.6,0.2 0.4,0.5 0.2,0.6 0.2,1.1 -0.2,4.2 3.1,-2.8 m -3,-5.8 2.4,-2.3 0.3,3 0.7,-0.6 0.6,-0.2 h 0.4 l 0.9,0.5 0.4,0.4 0.4,0.9 -0.1,0.8 -0.4,0.9 -0.7,0.6 -0.8,0.4 -0.5,-0.1 -0.6,-0.2 m -38.7,7.1 -3.3,4 4.5,0.3 m -1.2,-4.3 -0.5,6.3 m 5,-5.9 -1,0.3 -0.6,0.8 -0.5,1.5 v 0.9 l 0.2,1.5 0.5,0.9 0.9,0.4 0.6,0.1 0.9,-0.3 0.6,-0.8 0.5,-1.5 V 182 l -0.1,-1.5 -0.6,-1 -0.8,-0.3 -0.5,-0.1 m -40.6,23.7 1.1,-3.1 1.6,2.5 0.3,-0.8 0.5,-0.5 0.4,-0.2 1,0.1 0.5,0.2 0.8,0.5 0.3,0.8 v 1 l -0.3,0.8 -0.6,0.8 -0.4,0.1 -0.6,0.1 m 0.3,-9.7 0.7,0.6 0.4,0.7 v 1 l -0.1,0.3 -0.6,0.7 -0.8,0.4 h -0.9 l -0.3,-0.1 -0.8,-0.6 -0.3,-0.8 v -0.9 l 0.1,-0.3 0.6,-0.8 0.8,-0.3 1.2,0.1 1.4,0.5 1.3,0.8 0.7,0.9 -0.1,0.9 -0.2,0.6 -0.6,0.7 -0.6,0.1 m -1.7,-33.1 1,-2.8 -2.4,-1.3 0.2,0.4 -0.1,1 -0.3,0.8 -0.6,0.7 -0.8,0.4 -0.9,-0.1 -0.6,-0.2 -0.7,-0.6 -0.3,-0.7 v -1 l 0.3,-0.8 0.6,-0.8 0.4,-0.1 0.7,-0.1 m 0.7,9.9 0.7,-0.1 0.6,-0.7 0.2,-0.6 v -1 l -0.6,-0.8 -1.3,-0.9 -1.4,-0.5 -1.2,-0.1 -0.8,0.3 -0.6,0.7 -0.1,0.3 v 1 l 0.3,0.7 0.7,0.6 0.3,0.2 h 1 l 0.7,-0.4 0.6,-0.7 0.1,-0.3 0.1,-0.9 -0.4,-0.8 -0.7,-0.6 m 9.4,-4.3 2.6,1.4 1.6,-2.2 -0.4,0.1 -1,-0.2 -0.7,-0.4 -0.7,-0.7 -0.2,-0.8 0.1,-0.9 0.3,-0.6 0.7,-0.6 0.8,-0.3 1,0.2 0.7,0.4 0.7,0.7 0.1,0.4 v 0.7 m -10.3,0.2 2.6,1.5 1.6,-2.3 -0.4,0.2 -0.9,-0.2 -0.8,-0.4 -0.7,-0.7 -0.2,-0.8 0.1,-1 0.3,-0.5 0.7,-0.7 0.8,-0.2 1,0.2 0.8,0.4 0.6,0.7 0.1,0.4 v 0.7 m -35.2,11.3 1.3,2.7 2.5,-0.9 -0.4,-0.1 -0.6,-0.7 -0.4,-0.8 -0.1,-1 0.3,-0.8 0.7,-0.6 0.5,-0.3 0.9,-0.1 0.8,0.3 0.7,0.7 0.4,0.8 0.1,0.9 -0.2,0.4 -0.4,0.6 m -8.6,-6.4 7,0.1 m -5.2,3.7 -1.8,-3.8 m 20.7,72.6 3.9,3.3 0.4,-4.5 m -4.3,1.2 6.3,0.5 m -5.8,-6.7 -0.2,3 2.7,0.5 -0.3,-0.3 -0.3,-1 0.1,-0.9 0.4,-0.8 0.6,-0.6 1,-0.2 h 0.5 l 0.9,0.4 0.6,0.6 0.2,1 -0.1,0.9 -0.3,0.8 -0.4,0.3 -0.6,0.3 m -0.7,1 -1.9,-2.4 -2.2,1.5 h 0.4 l 0.8,0.5 0.5,0.7 0.4,0.9 -0.1,0.9 -0.5,0.8 -0.5,0.4 -0.9,0.3 -0.8,-0.1 -0.8,-0.5 -0.6,-0.7 -0.3,-0.9 v -0.4 l 0.3,-0.6 m 7.7,1.4 2.1,2.5 -3,0.2 0.5,0.7 0.2,0.6 -0.1,0.4 -0.5,0.8 -0.4,0.4 -0.9,0.3 -0.9,-0.1 -0.8,-0.5 -0.5,-0.7 -0.4,-0.9 0.1,-0.4 0.2,-0.6 m -44.2,-58.4 0.1,-3 -2.7,-0.3 0.3,0.3 0.2,0.9 v 0.9 l -0.3,0.9 -0.6,0.6 -0.9,0.3 h -0.6 l -0.9,-0.3 -0.6,-0.6 -0.3,-0.9 v -0.9 l 0.4,-0.9 0.3,-0.3 0.6,-0.3 m 5.1,8.5 -4.2,-3 v 4.5 m 4.2,-1.5 h -6.3 m 9.5,-31.3 0.7,-2.9 -2.6,-0.9 0.2,0.4 0.1,0.9 -0.1,0.9 -0.5,0.8 -0.7,0.4 -1,0.1 -0.6,-0.1 -0.8,-0.5 -0.5,-0.7 -0.1,-0.9 0.2,-0.9 0.5,-0.8 0.4,-0.2 0.6,-0.2 m 3.3,9.4 -3.5,-3.8 -1,4.4 m 4.5,-0.6 -6.2,-1.4 m 13.9,-6.2 3,0.7 0.8,-2.6 -0.3,0.2 -1,0.1 -0.8,-0.2 -0.9,-0.4 -0.4,-0.8 -0.1,-0.9 0.1,-0.6 0.5,-0.8 0.7,-0.5 1,-0.1 0.8,0.2 0.9,0.5 0.2,0.4 0.2,0.6 m -7.8,3.5 0.9,-0.1 0.4,-0.5 0.2,-0.6 -0.2,-0.6 -0.5,-0.4 -1.1,-0.6 -0.8,-0.5 -0.5,-0.7 -0.2,-0.6 0.2,-0.9 0.4,-0.5 0.4,-0.3 0.9,-0.1 1.2,0.3 0.8,0.5 0.3,0.3 0.1,0.7 -0.2,0.9 -0.4,0.5 -0.7,0.4 -0.9,0.1 -1.3,0.1 -0.6,0.1 -0.5,0.6 -0.1,0.5 0.2,0.7 0.8,0.5 1.3,0.3 m -9.6,58.4 0.6,-3 -2.5,-0.8 0.2,0.3 0.1,1 -0.2,0.9 -0.5,0.8 -0.7,0.5 -0.9,0.1 -0.6,-0.2 -0.8,-0.4 -0.5,-0.7 -0.1,-1 0.2,-0.9 0.5,-0.8 0.3,-0.2 0.7,-0.2 m 3.6,7.8 -0.1,-1 -0.6,-0.4 -0.5,-0.1 -0.7,0.1 -0.4,0.6 -0.5,1.1 -0.5,0.8 -0.7,0.5 -0.7,0.1 -0.9,-0.1 -0.5,-0.4 -0.2,-0.4 -0.1,-0.9 0.2,-1.2 0.5,-0.8 0.3,-0.3 0.7,-0.1 0.9,0.1 0.5,0.4 0.5,0.8 0.1,0.9 v 1.2 l 0.2,0.7 0.5,0.4 0.6,0.1 0.7,-0.2 0.4,-0.8 0.3,-1.3 m 16.7,26.5 0.7,5.1 3.3,-3.1 m -4,-2 4.3,4.6 m -1.2,-7.4 -0.5,0.8 0.2,0.6 0.4,0.5 0.7,0.2 0.6,-0.2 1.1,-0.6 0.8,-0.4 h 0.9 l 0.6,0.3 0.6,0.6 0.2,0.7 v 0.4 l -0.4,0.8 -0.9,0.9 -0.9,0.4 -0.4,-0.1 -0.6,-0.2 -0.6,-0.6 -0.2,-0.7 v -0.8 l 0.4,-0.9 0.7,-1 0.2,-0.6 -0.2,-0.7 -0.4,-0.4 -0.6,-0.3 -0.9,0.4 -0.9,1 m -27.6,12.8 -2.9,0.3 -0.1,2.7 0.3,-0.3 0.9,-0.4 0.9,-0.1 0.9,0.2 0.7,0.5 0.4,0.9 v 0.6 l -0.2,0.9 -0.5,0.7 -0.9,0.4 -0.9,0.1 -0.9,-0.3 -0.3,-0.2 -0.4,-0.6 m 8.5,-5.1 -0.4,-0.6 -0.9,-0.2 -0.6,0.1 -0.9,0.4 -0.5,0.9 -0.1,1.6 0.1,1.4 0.5,1.2 0.6,0.5 0.9,0.2 h 0.3 l 0.9,-0.4 0.5,-0.7 0.2,-0.9 v -0.3 l -0.4,-0.8 -0.6,-0.6 -1,-0.2 -0.3,0.1 -0.8,0.4 -0.6,0.6 -0.2,0.9 m -2.3,-11.6 0.9,-2.9 -2.4,-1.1 0.2,0.4 v 0.9 l -0.3,0.9 -0.6,0.8 -0.7,0.4 h -1 l -0.6,-0.2 -0.7,-0.6 -0.4,-0.7 v -1 l 0.3,-0.8 0.5,-0.8 0.4,-0.2 0.7,-0.1 m 1.9,10.5 -5,-4.8 m 6.3,0.8 -1.3,4 m 58.7,-173.5 -0.3,0.6 0.4,0.9 0.4,0.4 0.8,0.5 1,-0.1 1.4,-0.8 1.1,-1 0.7,-1 0.1,-0.8 -0.4,-0.9 -0.2,-0.2 -0.8,-0.5 -0.8,-0.1 -0.9,0.4 -0.2,0.2 -0.5,0.8 -0.1,0.8 0.4,0.9 0.2,0.2 0.8,0.5 0.8,0.1 0.9,-0.4 m -7.6,-2.4 0.8,0.5 1,-0.2 1.4,-0.7 0.7,-0.6 0.9,-1.2 0.3,-1.1 -0.4,-0.8 -0.4,-0.5 -0.8,-0.5 -1.1,0.2 -1.3,0.7 -0.7,0.6 -0.9,1.2 -0.3,1.1 0.4,0.8 0.3,0.4 m -16.7,-20 5.2,-0.1 -2.7,-3.6 m -2.5,3.7 5.1,-3.8 m -8.1,-1.7 -0.3,0.6 0.3,0.9 0.4,0.4 0.8,0.6 1.1,-0.1 1.3,-0.7 1.2,-0.9 0.8,-0.9 0.1,-0.9 -0.3,-0.9 -0.1,-0.2 -0.8,-0.5 -0.9,-0.2 -0.9,0.3 -0.2,0.2 -0.5,0.8 -0.2,0.8 0.3,0.9 0.2,0.3 0.8,0.5 0.8,0.1 0.9,-0.3 m -12,-0.6 2.9,-0.4 v -2.7 l -0.3,0.3 -0.8,0.4 -0.9,0.2 -1,-0.2 -0.6,-0.5 -0.4,-0.9 -0.1,-0.6 0.1,-0.9 0.6,-0.7 0.8,-0.4 0.9,-0.1 0.9,0.2 0.4,0.2 0.4,0.6 m -5.4,4.3 0.1,0.3 -0.3,0.6 -0.2,0.4 -0.6,0.4 -1.2,0.1 -0.6,-0.2 -0.3,-0.3 -0.4,-0.5 -0.1,-0.6 0.2,-0.6 0.5,-1 2.6,-3.4 -4.2,0.6 m 4.7,-0.7 -5,1.2 3.3,2.9 m 1.7,-4.1 -4.2,4.7 m 9.2,-0.2 -6.5,2.7 m 3.3,-5.5 3.2,2.8 m 70.2,43 -0.3,-0.1 -0.4,-0.6 -0.2,-0.3 v -0.7 l 0.5,-1.1 0.5,-0.5 0.4,-0.1 0.6,-0.1 0.6,0.3 0.4,0.5 0.6,0.9 1.6,3.9 1.6,-3.8 m -1.9,-6.3 0.8,0.6 0.3,0.8 -0.1,0.9 -0.1,0.3 -0.6,0.7 -0.8,0.3 h -1 l -0.3,-0.2 -0.7,-0.6 -0.3,-0.8 0.1,-0.9 0.1,-0.3 0.6,-0.7 0.8,-0.3 1.2,0.2 1.4,0.5 1.3,0.9 0.6,0.9 -0.1,1 -0.2,0.5 -0.7,0.7 -0.6,0.1 m -23,-16.2 v -3 l -2.7,-0.3 0.3,0.3 0.3,0.9 v 0.9 l -0.3,0.9 -0.6,0.6 -0.9,0.3 h -0.6 l -0.9,-0.3 -0.6,-0.6 -0.3,-0.9 v -0.9 l 0.3,-0.9 0.3,-0.3 0.6,-0.3 m 3.1,9.2 -0.9,-0.3 -0.6,-0.6 -0.3,-0.9 v -0.3 l 0.3,-0.9 0.6,-0.6 0.8,-0.3 h 0.3 l 1,0.3 0.6,0.6 0.3,0.9 v 0.3 l -0.3,0.9 -0.6,0.6 -1.2,0.3 h -1.5 l -1.5,-0.2 -0.9,-0.6 -0.3,-0.9 v -0.6 l 0.3,-0.9 0.6,-0.3 m 15.8,0.9 0.1,0.6 0.8,0.6 0.5,0.2 1,0.1 0.8,-0.7 0.8,-1.3 0.5,-1.4 0.1,-1.3 -0.3,-0.7 -0.8,-0.6 -0.3,-0.1 h -0.9 l -0.8,0.3 -0.6,0.8 -0.1,0.3 v 0.9 l 0.4,0.8 0.7,0.6 0.3,0.1 h 1 l 0.7,-0.4 0.6,-0.7 m -5.6,0.9 -0.7,0.1 -1.1,0.6 2.1,-6 m 74.9,156.5 -4.7,-5.2 m 6.3,1.3 -1.6,3.9 m -2,1 0.3,0.1 0.4,0.5 0.2,0.4 0.1,0.6 -0.5,1.1 -0.5,0.5 -0.4,0.1 -0.7,0.1 -0.5,-0.2 -0.5,-0.5 -0.6,-0.9 -1.6,-3.9 -1.6,3.9 m 18.5,-23.1 -3.6,-6 m 5.9,2.5 -2.3,3.5 m -1,1.4 -1.8,2.8 -1,-2.8 -0.5,0.7 -0.6,0.3 -0.4,0.1 -0.9,-0.2 -0.5,-0.4 -0.6,-0.7 -0.1,-0.9 0.2,-0.9 0.5,-0.7 0.8,-0.6 0.4,-0.1 0.6,0.1 m 6.6,14.5 7,-0.2 m -5.1,3.9 -1.9,-3.7 m -2,-3.8 5.1,0.7 -2,-4 m -3.1,3.3 5.7,-2.9 m -9.8,155.3 0.3,-0.1 0.6,0.1 0.4,0.2 0.5,0.5 0.4,1.1 -0.1,0.7 -0.2,0.3 -0.4,0.5 -0.6,0.2 -0.7,-0.1 -1,-0.2 -3.8,-1.8 1.4,3.9 m 5.1,0 0.2,-0.1 h 0.7 l 0.4,0.2 0.5,0.5 0.4,1.1 -0.1,0.7 -0.2,0.4 -0.4,0.5 -0.6,0.2 -0.7,-0.1 -1,-0.3 -3.9,-1.8 1.5,4 m 8.8,7.1 0.2,-0.2 0.6,-0.3 h 0.5 l 0.6,0.2 0.9,0.8 0.3,0.6 v 0.4 l -0.2,0.7 -0.4,0.4 -0.6,0.3 -1.1,0.2 -4.2,0.3 3.2,2.8 m 7.4,-1.9 -5,1.1 3.3,3 m 1.7,-4.1 -4.2,4.7 m 24.3,-46.1 -2.8,1.6 0.3,-3 -0.7,0.5 h -0.7 l -0.4,-0.1 -0.7,-0.6 -0.3,-0.5 -0.2,-1 0.2,-0.8 0.6,-0.7 0.8,-0.4 0.9,-0.2 0.5,0.1 0.5,0.4 m -3.4,7.8 0.7,-0.7 -0.1,-0.7 -0.3,-0.5 -0.5,-0.4 -0.7,0.1 -1.2,0.3 -0.9,0.2 -0.8,-0.2 -0.6,-0.4 -0.5,-0.8 v -0.6 l 0.1,-0.4 0.6,-0.8 1.1,-0.6 0.9,-0.1 0.4,0.1 0.6,0.3 0.4,0.8 0.1,0.7 -0.2,0.8 -0.7,0.7 -0.9,0.9 -0.3,0.5 v 0.7 l 0.3,0.5 0.6,0.4 0.9,-0.2 1.2,-0.7 m 4.5,23.7 v -3.3 l 2.4,1.8 v -0.9 l 0.3,-0.6 0.3,-0.3 0.9,-0.3 h 0.6 l 0.9,0.3 0.6,0.6 0.3,0.9 v 0.9 l -0.3,0.9 -0.3,0.3 -0.6,0.3 m -5.1,-9.4 6.3,3 m -6.3,1.2 v -4.2 m -8.8,27.8 3.3,0.8 -2.3,1.9 0.8,0.2 0.6,0.4 0.2,0.4 0.1,0.9 -0.2,0.6 -0.5,0.8 -0.7,0.5 -0.9,0.1 -0.9,-0.2 -0.8,-0.5 -0.2,-0.4 -0.2,-0.6 m 9.7,-2.1 -0.2,-0.7 -0.8,-0.5 -0.6,-0.1 -0.9,0.1 -0.8,0.7 -0.6,1.4 -0.4,1.5 0.1,1.2 0.4,0.7 0.8,0.5 0.3,0.1 0.9,-0.1 0.8,-0.4 0.5,-0.8 v -0.3 l -0.1,-1 -0.4,-0.7 -0.8,-0.5 -0.3,-0.1 -1,0.1 -0.7,0.5 -0.5,0.8 m -274.5,27.3 0.6,0.7 1.1,0.2 1.5,-0.4 0.8,-0.4 1.3,-0.9 0.5,-0.9 -0.1,-0.9 -0.2,-0.6 -0.7,-0.7 -1,-0.1 -1.5,0.3 -0.8,0.4 -1.3,0.9 -0.6,0.9 0.2,0.9 0.1,0.5 m 0.9,31.8 v -0.6 l -0.2,-1.3 5.3,3.4 m -59.7,-31.4 -3.9,-3.4 -0.5,4.5 m 4.4,-1.1 -6.3,-0.7 m 20.7,45.8 -6.8,1.8 m 4.1,-5 2.7,3.2 m -11.5,-74.9 0.6,-0.1 0.6,-0.7 0.2,-0.6 0.1,-1 -0.7,-0.8 -1.3,-0.8 -1.4,-0.5 -1.2,-0.2 -0.8,0.4 -0.6,0.7 -0.1,0.3 v 1 l 0.3,0.7 0.8,0.6 0.3,0.1 0.9,0.1 0.8,-0.4 0.6,-0.7 0.1,-0.3 v -1 l -0.4,-0.7 -0.7,-0.6 m 35.2,92.9 0.1,-0.6 -0.3,-1.3 5.3,3.5 m -3.9,-6.1 -0.2,1 0.4,1 1.1,1 0.8,0.5 1.4,0.6 h 1.1 l 0.7,-0.6 0.3,-0.5 0.3,-1 -0.5,-1 -1.1,-1 -0.7,-0.5 -1.4,-0.6 h -1.1 l -0.8,0.6 -0.2,0.4 m -31.5,-86.7 2.5,-1.6 -1.1,-2.4 -0.1,0.4 -0.6,0.7 -0.8,0.5 -0.9,0.2 -0.9,-0.2 -0.7,-0.6 -0.3,-0.5 -0.2,-0.9 0.2,-0.8 0.6,-0.8 0.8,-0.5 0.9,-0.2 0.4,0.1 0.6,0.4 m 21.5,107.1 -0.3,0.9 0.3,0.6 0.5,0.4 0.6,0.1 0.7,-0.3 0.9,-0.8 0.8,-0.5 0.8,-0.1 0.7,0.1 0.7,0.5 0.3,0.7 0.1,0.4 -0.3,0.9 -0.8,0.9 -0.7,0.6 h -0.5 l -0.6,-0.1 -0.7,-0.6 -0.3,-0.6 -0.2,-0.8 0.4,-0.9 0.4,-1.1 0.2,-0.7 -0.3,-0.6 -0.5,-0.4 -0.7,-0.1 -0.8,0.6 -0.8,1 m 5.6,0.3 -0.6,0.6 -0.9,0.3 -0.9,-0.2 -0.3,-0.1 -0.6,-0.7 -0.3,-0.8 0.2,-0.9 0.1,-0.3 0.7,-0.7 0.8,-0.2 1,0.2 0.2,0.1 0.7,0.7 0.2,0.8 -0.3,1.2 -0.7,1.3 -0.9,1.2 -1,0.5 -0.9,-0.1 -0.6,-0.3 -0.6,-0.7 v -0.7 m -3.2,-113.3 0.1,0.2 -0.1,0.7 -0.1,0.4 -0.5,0.5 -1.1,0.5 -0.6,-0.1 -0.4,-0.1 -0.5,-0.5 -0.3,-0.5 0.1,-0.7 0.2,-1.1 1.6,-3.9 -3.9,1.6 m 16.6,11 -1.7,-2.8 3,0.3 -0.5,-0.8 -0.1,-0.6 0.1,-0.5 0.6,-0.7 0.5,-0.3 1,-0.2 0.8,0.2 0.7,0.6 0.5,0.7 0.2,1 -0.1,0.4 -0.3,0.6"
       id="nums_001"
       stroke="#000000"
       stroke-width="1" />
    <path
       d="m 291.8,397.4 28.2,-31.5 8.9,22.6 -12.1,32.4 -23.7,5.6 21.5,11.5 25.7,-23.1 -8.2,-22.9 14.1,-35.3 -18.2,-27.4 -7.2,-49.9 31,9.7 39.4,-15.8 20.9,27.8 -13.1,-25.4 1.8,-22.4 -15.2,-9.8 -12.6,-17.5 19.4,-24.2 18.8,9.1 18.2,22.2 6.4,23.4 -1,-24.2 10.9,-26.7 11.5,-17.2 20.4,40 -1.8,44.8 -24.4,19.2 21.2,4.4 7.4,20.4 -33.9,-3.9 19.5,33.4 31.3,-18.1 v 72 L 468.1,394 454.5,382 445,355.7 416.6,342.9 396.5,331 l -17.5,6.3 18.5,-1.7 0.7,23.4 11.1,29.1 -14.7,23.7 -3.3,17.9 17.3,23.8 -9.8,33.9 -22.3,34.3 -5,-34.8 -4.4,-26.7 -19.2,-19.6 -7.8,14.2 -28.3,12 -29.1,-11.7 -14.8,20.3 -25.8,-12.8 12.5,-32.2 -26.5,-22 27.6,-11.1 -22.4,-19.7 -15.1,-24.5 -24,7.4 -6.7,-30.6 -28.6,-11.4 -14.2,7.8 -9.7,-25.7 0.8,-27 1.7,-35.1 -25.3,32.2 1.8,35.2 27.3,66.7 -29.4,49 -23,-30.5 -26,-41.7 -15.5,-26.9 2.2,-29.4 1.4,-11.1 2.4,-7.8 16.9,-54.5 8.9,-57 0.5,-8.4 -1.3,-7.2 -4.8,-24.3 47.8,-31.3 30.8,-19 24.8,29.5 -7.2,33.4 12.6,-17.7 17.2,5.3 15.5,16.3 0.6,-28.5 33.5,-9 L 236.3,79 275,68.7 l 18,-8.1 15.2,19.5 3,-24.2 -18.2,-16.2 24.5,-3.3 11.9,15.8 26.1,30.3 V 56.3 l 40,14.2 -12.7,30 48.8,-13 0.5,36.6 1.5,34.9 -32.1,30 -45.7,-3.6 -11.4,31.8 -2.7,33.7 -15.8,-19.6 -25.3,23.8 -33.9,3.7 12,-37.1 5.1,-24.9 0.2,-28.5 6,-27.8 24.8,5.5 16.7,35.2 12.2,-31.8 19.1,10.3 -12.4,-18.6 31.3,-16.7 -30.3,-18.4 13.2,18 -21.7,0.3 -33.6,-8.9 -24.8,4.8 -8.3,-19.1 -9.2,27.9 -12.3,11.4 16.7,0.1 -8.9,27.9 -25.7,14 -24.9,-15.6 -18.3,-9.9 -23.9,23.9 -3.8,33.5 -9.4,44.9 22,37.9 34.4,6.5 36.5,-2 27.5,18 11.85,35.9 z m -129.3,-18.1 27.1,-11.5 16.4,26.5 20.4,44.6 -20.4,32.3 -13.5,20.8 -4.4,5.8 -7.4,-4 -37,-44.2 6.5,-56.7 2.8,-7.7 z"
       id="coupes_001"
       stroke="#ff0000"
       stroke-width="1.27"
       sodipodi:nodetypes="cccccccccccccccccccccccccccccccccccccccccccccccccccccccccccccccccccccccccccccccccccccccccccccccccccccccccccccccccccccccccccccccccccccccccccccccccccccccccccccc" />
    <path
       d="M 177,102 121.4,91.5 m 48.4,43.9 -96.2,-12.6 m 96.2,12.6 -91.4,11.7 m 115.2,9.8 -113.9,-2.6 m 90,26.5 -90,-26.5 m 90,26.5 -90.5,-18.1 m 86.7,51.6 -95.6,5.4 m 67.2,18.8 -67.2,-18.8 m 86.2,39.5 -19,-20.7 m 19,20.7 -20.7,14.4 m 1.7,-35.1 -84.1,35.7 m 105.5,44.3 -23.1,-44.9 m 42.7,23.5 -19.6,21.4 m 19.6,-21.4 9,32.8 m 25.4,-26.3 -18.7,56.9 m 18.7,-56.9 5.3,49.5 m 31.2,-51.5 -31.2,51.5 m 31.2,-51.5 7.3,50.5 m 0,0 -23.4,25.5 m 43.6,-58 -20.2,32.5 m 0,0 -1,45.2 m 33.1,-42.1 -33.1,42.1 m 36.1,0.1 -36.1,-0.1 m 36.1,0.1 -37.2,33 m 0,0 1.1,-33.1 m 37.4,29.2 -38.5,3.9 m 37.2,-33 1.3,29.1 m -10.4,28.6 -28.1,-24.7 m 38.5,-3.9 -10.4,28.6 m 10.4,-28.6 18.7,40.3 m -43.9,8.6 -13.3,-45 m 60,7.6 25.5,16.8 m -25.5,-16.8 33.3,2.6 m 43.4,-10.9 -43.4,10.9 m -7.6,-25.7 51,14.8 m -51,-14.8 54.3,-3.1 m -62.5,-19.8 62.5,19.8 m -62.5,-19.8 77.2,-3.9 m -77.2,3.9 66.1,-33 m -52,-2.3 32.8,-19.4 m 0,0 19.2,21.7 m -70.2,-29.7 51,8 m -87.2,60.1 25,23.5 m -25,-23.5 37.1,-8.9 m 22.9,-99.4 27.2,48.2 m -51,-8 23.8,-40.2 M 158.9,318.5 135,300.6 M 112.2,270.7 51,282 M 114,305.9 51,282 m 63,23.9 -64.4,-12.8 m 64.4,12.8 -66.6,16.6 m 93.9,50.1 -78.4,-23.2 m 78.4,23.2 -52.4,18.5 m 319.7,62.4 -41.5,6.7 m 31.7,27.2 -31.7,-27.2 m 31.7,27.2 -27.3,-0.5 M 199.6,123 l -6,33.9 M 169.8,135.4 199.6,123 m 152.2,166.1 44.7,41.9 m 15.6,-29.9 -15.6,29.9 m 49.6,-17.7 -29.5,29.6 m 34.8,-50.5 -5.3,20.9 m 0,0 -1.1,42.4 m 20.6,-9 -20.6,9 m -32.9,-54.6 23.7,-44.6 m -36.8,19.2 36.8,-19.2 m -35,-3.2 28.6,-20.2 m -28.6,20.2 10.4,-42.4 m -25.6,32.6 25.6,-32.6 m 24.6,45.6 41.8,-28.1 m -92,15.1 6.8,-41.7 m 42.4,30.5 42.8,-3.9 m -262.5,-89.1 47.4,29.1 m 0,0 -50.6,-1.6 m 42.8,-26.4 7.8,28 m -46.8,-57.6 39,29.6 m -5.5,-38.6 5.5,38.6 M 249.2,101.8 267,129 M 249.2,101.8 275,68.7 m 18,-8.1 -16.8,40.5 m 32,-21 -23.7,40.1 m 23.7,-40.1 1.1,35.3 M 308.2,80.1 351.4,106 M 311.2,55.9 351.4,106 m -40.2,-50.1 44.3,26.6 m -4.1,23.5 -8.5,18.3 m 12.6,-41.8 27.3,18 m 0,0 -1.1,23.9 m 49.9,-36.9 -49.9,36.9 m 50.4,-0.3 -50.4,0.3 m 51.9,34.6 -51.9,-34.6 m -18.9,35.3 18.9,-35.3 m 19.8,64.6 -38.7,-29.3 m -7,25.7 -24.3,-4.2 m 0,0 31.3,-21.5 M 344.4,217.2 284,168.3 m 0,0 47.5,12.9 M 284,168.3 314.8,146 m 11.1,85.3 -42.1,-34.5 m 42.1,34.5 -47.2,-9.6 m 21.9,33.4 -21.9,-33.4 m 32.5,-165.8 18.2,-3.7 m -18.2,3.7 6.3,-19.5 m 38,46.1 40,-12 m 50.2,135.1 31.9,22.8 m -12,118.3 -11.1,35.3 M 496.9,328.6 468.1,394 M 143.7,449.6 206,394.3 m 0,76.9 -25.3,22.6 M 153,385.2 l 53,9.1"
       id="plisM_001"
       stroke="#a52a2a"
       stroke-dasharray="4" />
    <path
       d="m 147.2,94.8 4,4 m 0,-4 -4,4 m -27.5,28.3 4,4 m 0,-4 -4,4 m 2.4,8.2 4,4 m 0,-4 -4,4 m 12.6,10.3 4,4 m 0,-4 -4,4 m -12,7.9 4,4 m 0,-4 -4,4 m -0.2,0.2 4,4 m 0,-4 -4,4 m -6.4,41.3 4,4 m 0,-4 -4,4 m -14.2,8.1 4,4 m 0,-4 -4,4 m 43.1,15.7 4,4 m 0,-4 -4,4 m -0.9,13.6 4,4 m 0,-4 -4,4 m -50.7,-14.1 4,4 m 0,-4 -4,4 m 51.9,35.7 4,4 m 0,-4 -4,4 m 21.4,7.8 4,4 m 0,-4 -4,4 m 14.3,1.7 4,4 m 0,-4 -4,4 m 20.5,14.6 4,4 m 0,-4 -4,4 m 12,-7.8 4,4 m 0,-4 -4,4 m 18.3,-4.9 4,4 m 0,-4 -4,4 m 19.3,-4.6 4,4 m 0,-4 -4,4 m -8.1,34 4,4 m 0,-4 -4,4 m 21.8,-33 4,4 m 0,-4 -4,4 m -10.6,34.9 4,4 m 0,-4 -4,4 m 16.1,-2.5 4,4 m 0,-4 -4,4 m 1.4,17.1 4,4 m 0,-4 -4,4 m -0.5,12.6 4,4 m 0,-4 -4,4 m -18,-4 4,4 m 0,-4 -4,4 m 18.7,10.6 4,4 m 0,-4 -4,4 m 18.5,-20.5 4,4 m 0,-4 -4,4 m -23.7,26.8 4,4 m 0,-4 -4,4 m 19.2,-6 4,4 m 0,-4 -4,4 m 14.5,1.9 4,4 m 0,-4 -4,4 m -41.1,2.2 4,4 m 0,-4 -4,4 m 66,-10.5 4,4 m 0,-4 -4,4 m 4,-11.1 4,4 m 0,-4 -4,4 m 38.3,-8.2 4,4 m 0,-4 -4,4 m -3.8,-16.8 4,4 m 0,-4 -4,4 m 1.6,-12.9 4,4 m 0,-4 -4,4 m -4.1,-15.5 4,4 m 0,-4 -4,4 m 7.4,-15.9 4,4 m 0,-4 -4,4 m -5.6,-18.5 4,4 m 0,-4 -4,4 m -2.5,-32.5 4,4 m 0,-4 -4,4 m 26,-2.9 4,4 m 0,-4 -4,4 m -35.1,-18.8 4,4 m 0,-4 -4,4 m -49.2,71.8 4,4 m 0,-4 -4,4 m 6,-20.2 4,4 m 0,-4 -4,4 m 55.1,-83.7 4,4 m 0,-4 -4,4 m -25.5,-8 4,4 m 0,-4 -4,4 m -192.9,-3.7 4,4 m 0,-4 -4,4 m -65.4,-37.2 4,4 m 0,-4 -4,4 m 0.9,13.6 4,4 m 0,-4 -4,4 m -0.7,1.6 4,4 m 0,-4 -4,4 m -1.1,10.7 4,4 m 0,-4 -4,4 m 21.4,42.8 4,4 m 0,-4 -4,4 m 13,16.8 4,4 m 0,-4 -4,4 m 272.8,71.1 4,4 m 0,-4 -4,4 m -4.9,12.9 4,4 m 0,-4 -4,4 m 2.2,9.4 4,4 m 0,-4 -4,4 m -188.6,-351.3 4,4 m 0,-4 -4,4 m -11.9,-14.7 4,4 m 0,-4 -4,4 m 189.4,176.8 4,4 m 0,-4 -4,4 m 30.2,2 4,4 m 0,-4 -4,4 m 27.1,8.1 4,4 m 0,-4 -4,4 m 17.4,-29.2 4,4 m 0,-4 -4,4 m -3.2,27.6 4,4 m 0,-4 -4,4 m 9.7,12.7 4,4 m 0,-4 -4,4 m -31.3,-76.4 4,4 m 0,-4 -4,4 m -6.6,-16.7 4,4 m 0,-4 -4,4 m -2.3,-26.9 4,4 m 0,-4 -4,4 m -9.1,-15.1 4,4 m 0,-4 -4,4 m -7.6,-8.9 4,4 m 0,-4 -4,4 m 58.3,11.2 4,4 m 0,-4 -4,4 m -67.7,-23.7 4,4 m 0,-4 -4,4 m 67.2,3.6 4,4 m 0,-4 -4,4 m -217.4,-80.5 4,4 m 0,-4 -4,4 m -1.6,9.8 4,4 m 0,-4 -4,4 m 21.4,-17.2 4,4 m 0,-4 -4,4 m -23.4,-32.8 4,4 m 0,-4 -4,4 m 16.8,-8.5 4,4 m 0,-4 -4,4 m 6.1,-9.7 4,4 m 0,-4 -4,4 m 4,-34.2 4,4 m 0,-4 -4,4 m 22.5,-8.3 4,4 m 0,-4 -4,4 m 11.8,15.2 4,4 m 0,-4 -4,4 m 12.4,-6.4 4,4 m 0,-4 -4,4 m 21,-8.7 4,4 m 0,-4 -4,4 m 1.5,-16.1 4,4 m 0,-4 -4,4 m 2.1,-15.7 4,4 m 0,-4 -4,4 m 13.8,41.9 4,4 m 0,-4 -4,4 m 22,-27.6 4,4 m 0,-4 -4,4 m 13,16.9 4,4 m 0,-4 -4,4 m 24.5,-10.5 4,4 m 0,-4 -4,4 m 0.2,14.3 4,4 m 0,-4 -4,4 m 0.8,13.5 4,4 m 0,-4 -4,4 m -35.5,-3.7 4,4 m 0,-4 -4,4 m 9.9,28.4 4,4 m 0,-4 -4,4 m -38.4,4.9 4,4 m 0,-4 -4,4 m 3.4,-16.8 4,4 m 0,-4 -4,4 m -32.9,18.3 4,4 m 0,-4 -4,4 m -6.5,-22 4,4 m 0,-4 -4,4 m -8.3,-21.6 4,4 m 0,-4 -4,4 m 5.4,52.9 4,4 m 0,-4 -4,4 m -2.5,8.4 4,4 m 0,-4 -4,4 m -12.7,7.9 4,4 m 0,-4 -4,4 m 30.7,-188.3 4,4 m 0,-4 -4,4 m -5.9,-11.9 4,4 m 0,-4 -4,4 m 61.1,26.3 4,4 m 0,-4 -4,4 m 86.1,136.5 4,4 m 0,-4 -4,4 m -1.6,143.3 4,4 m 0,-4 -4,4 m 22.5,-7 4,4 m 0,-4 -4,4 m -307.7,56.6 4,4 m 0,-4 -4,4 m 18.5,56.6 4,4 m 0,-4 -4,4 m -13.8,-96.8 4,4 m 0,-4 -4,4"
       display="none"
       id="marqueM_001"
       stroke="#a52a2a" />
    <path
       d="M 169.8,135.4 121.4,91.5 m 48.4,43.9 -90.1,18.9 m 90.1,-18.9 23.8,21.5 m -23.9,23.9 -99.4,38.9 m 95.6,-5.4 -28.4,24.2 m 0,0 L 51,282 m 105.5,-22.8 2.4,59.3 m 54,-14.9 -25.4,26.3 m 69.2,22.2 -38.5,1 m 70.5,2.7 -32,-3.7 m 57.9,85.9 -2.8,28.8 m 28.5,-51.9 7.6,25.7 m -1.7,-83.9 52,2.3 M 114,305.9 62.9,349.4 m 328.4,80.3 -24.2,30.5 m -152,-320.9 -21.5,17.6 m 158.2,132.2 60.3,12 m 0,0 4.5,41.8 m -4.5,-41.8 34,12.2 m -34,-12.2 39.3,-8.7 m 21.2,4.4 -26.5,16.5 m -10.3,-56.8 15.6,35.9 m -50.6,-39.1 35,3.2 m 0,0 40,16.7 m -260.7,-133.9 -3.2,27.5 m 3.2,-27.5 39.6,1.1 m -5.5,-38.6 27,-0.7 m -1.2,-32.4 1.2,32.4 m 32,-21 -32,21 m 75.2,4.9 -42.1,9.4 m 46.2,-32.9 -4.1,23.5 m 31.4,-5.5 -31.4,5.5 m 82.2,53 -70.8,0.7 m -7,25.7 7,-25.7 m -18.4,57.5 -12.9,-36 m 12.9,36 -18.5,14.1 m 0,0 -41.9,-63 m 181.6,178.4 2.5,47.3 M 206,471.2 v -76.9 m 0,76.9 -62.3,-21.6 m 6.5,-56.7 55.8,1.4 m -13.5,97.7 -11.8,1.8 m -18.2,-114.5 43.5,15"
       id="plisV_001"
       stroke="#008000"
       stroke-dasharray="4, 1, 1, 1"
       stroke-width="1.27" />
    <path
       d="m 143.6,111.4 4,4 m 0,-4 -4,4 m -20.8,27.4 4,4 m 0,-4 -4,4 m 56.9,-2.7 4,4 m 0,-4 -4,4 m -61.7,50.1 4,4 m 0,-4 -4,4 m 31.7,22.2 4,4 m 0,-4 -4,4 m -57.5,29.8 4,4 m 0,-4 -4,4 m 63.5,24.6 4,4 m 0,-4 -4,4 m 42.5,24 4,4 m 0,-4 -4,4 m 37.3,31.8 4,4 m 0,-4 -4,4 m 35.2,-2.7 4,4 m 0,-4 -4,4 m 40.5,94.5 4,4 m 0,-4 -4,4 m 30.9,-28.7 4,4 m 0,-4 -4,4 m 28.1,-73.9 4,4 m 0,-4 -4,4 m -283.8,-34.1 4,4 m 0,-4 -4,4 m 290.8,113.3 4,4 m 0,-4 -4,4 m -174.8,-300.9 4,4 m 0,-4 -4,4 m 177.5,143 4,4 m 0,-4 -4,4 m 32.4,22.9 4,4 m 0,-4 -4,4 m 14.8,-18.8 4,4 m 0,-4 -4,4 m 2.6,-14.5 4,4 m 0,-4 -4,4 m 27.7,4.4 4,4 m 0,-4 -4,4 m -15.8,-34.7 4,4 m 0,-4 -4,4 m -25.3,-23.5 4,4 m 0,-4 -4,4 m 37.5,6 4,4 m 0,-4 -4,4 M 211.5,151 l 4,4 m 0,-4 -4,4 m 21.4,-17.1 4,4 m 0,-4 -4,4 m 27.8,-42.4 4,4 m 0,-4 -4,4 m 12.9,-20.6 4,4 m 0,-4 -4,4 m 16.6,1.7 4,4 m 0,-4 -4,4 m 38.1,16.1 4,4 m 0,-4 -4,4 m 23.2,-20.5 4,4 m 0,-4 -4,4 m 13.6,5 4,4 m 0,-4 -4,4 m 31.1,52.2 4,4 m 0,-4 -4,4 m -38.9,9.2 4,4 m 0,-4 -4,4 m -21.4,22.6 4,4 m 0,-4 -4,4 m -2.8,21 4,4 m 0,-4 -4,4 m -30.2,-28.4 4,4 m 0,-4 -4,4 m 161.9,166.5 4,4 m 0,-4 -4,4 m -260.8,58.4 4,4 m 0,-4 -4,4 m -31.2,23.7 4,4 m 0,-4 -4,4 m 3.3,-70.8 4,4 m 0,-4 -4,4 m 8.5,95.3 4,4 m 0,-4 -4,4 m -2.3,-110.1 4,4 m 0,-4 -4,4"
       id="marqueV_001"
       stroke="#008000" />
    <path
       d="m 294.72541,232.14981 1.5,-0.8 2.2,-2.2 v 15.7"
       id="titre_1"
       stroke="#4b0082" />
    <path
       d="M 180.7,429.7 V 429 l 0.7,-1.5 0.8,-0.8 1.5,-0.7 h 3 l 1.5,0.7 0.7,0.8 0.8,1.5 v 1.5 l -0.8,1.5 -1.5,2.2 -7.5,7.5 h 10.5"
       id="titre_2"
       stroke="#4b0082" />
  </g>
</svg>
