<?xml version="1.0" encoding="UTF-8" standalone="no"?>
<svg
   height="841.88977pt"
   viewBox="0 0 532.99998 754.00001"
   width="595.27557pt"
   version="1.1"
   id="svg1"
   sodipodi:docname="teteGirafe146_H15_lang_A4x2.svg"
   inkscape:version="1.3 (0e150ed6c4, 2023-07-21)"
   xmlns:inkscape="http://www.inkscape.org/namespaces/inkscape"
   xmlns:sodipodi="http://sodipodi.sourceforge.net/DTD/sodipodi-0.dtd"
   xmlns="http://www.w3.org/2000/svg"
   xmlns:svg="http://www.w3.org/2000/svg">
  <defs
     id="defs1" />
  <sodipodi:namedview
     id="namedview1"
     pagecolor="#ffffff"
     bordercolor="#000000"
     borderopacity="0.25"
     inkscape:showpageshadow="2"
     inkscape:pageopacity="0.0"
     inkscape:pagecheckerboard="0"
     inkscape:deskcolor="#d1d1d1"
     inkscape:document-units="mm"
     showgrid="false"
     inkscape:zoom="0.76613131"
     inkscape:cx="725.72416"
     inkscape:cy="569.74567"
     inkscape:window-width="1920"
     inkscape:window-height="1057"
     inkscape:window-x="-8"
     inkscape:window-y="-8"
     inkscape:window-maximized="1"
     inkscape:current-layer="svg1" />
  <style
     type="text/css"
     id="style1"><![CDATA[
			path {
				fill: none;
			}
		]]></style>
  <g
     id="page_001">
    <path
       d="M 358.7,270 H 358 l -0.6,0.8 -0.2,0.5 -0.1,1 0.6,0.9 1.3,0.8 1.4,0.6 1.2,0.2 0.8,-0.4 0.6,-0.7 0.1,-0.3 0.1,-0.9 -0.4,-0.8 -0.7,-0.6 -0.3,-0.1 -0.9,-0.1 -0.8,0.3 -0.6,0.7 -0.1,0.3 -0.1,1 0.3,0.8 0.8,0.6 m -26.9,10.7 -2.8,-1 -1.2,2.4 0.4,-0.2 1,0.1 0.8,0.3 0.7,0.5 0.4,0.8 v 0.9 l -0.2,0.6 -0.6,0.8 -0.8,0.3 h -0.9 l -0.8,-0.3 -0.8,-0.6 -0.2,-0.4 -0.1,-0.6 m 48.8,-57 -0.6,-0.1 -0.8,0.6 -0.3,0.5 -0.3,0.9 0.5,1 1.1,1.1 1.2,0.8 1.2,0.4 0.8,-0.1 0.7,-0.6 0.2,-0.3 0.3,-0.9 -0.2,-0.8 -0.6,-0.8 -0.3,-0.1 -0.9,-0.3 -0.8,0.2 -0.7,0.6 -0.2,0.2 -0.3,0.9 0.2,0.9 0.6,0.7 m 0.3,-8 -0.3,0.9 0.4,1 1.1,1.1 0.8,0.5 1.4,0.5 h 1.1 l 0.7,-0.6 0.4,-0.5 0.2,-0.9 -0.4,-1 -1.1,-1 -0.8,-0.5 -1.4,-0.6 h -1.1 l -0.7,0.6 -0.3,0.4 m 1.6,-28.7 0.5,3 2.7,-0.2 -0.3,-0.2 -0.5,-0.8 -0.1,-0.9 0.1,-1 0.5,-0.7 0.9,-0.4 0.6,-0.1 0.9,0.1 0.7,0.5 0.4,0.9 0.2,0.9 -0.2,0.9 -0.2,0.4 -0.6,0.3 m -4.4,-8.6 0.9,0.2 0.7,0.5 0.4,0.8 0.1,0.3 -0.2,0.9 -0.5,0.7 -0.8,0.5 h -0.3 l -0.9,-0.1 -0.7,-0.5 -0.5,-0.9 v -0.3 l 0.1,-0.9 0.5,-0.7 1.2,-0.5 1.5,-0.2 h 1.5 l 1,0.5 0.4,0.8 0.1,0.6 -0.1,0.9 -0.6,0.4 m -62.9,-10.2 0.7,0.1 0.7,-0.6 0.4,-0.6 0.2,-0.9 -0.5,-1 -1.1,-1 -1.3,-0.8 -1.2,-0.3 -0.8,0.2 -0.7,0.6 -0.2,0.2 -0.2,0.9 0.2,0.9 0.6,0.7 0.3,0.2 0.9,0.2 0.8,-0.2 0.7,-0.6 0.2,-0.3 0.2,-0.9 -0.2,-0.9 -0.6,-0.7 m -0.6,6.2 0.3,0.1 0.3,0.6 0.1,0.4 v 0.7 l -0.7,1 -0.5,0.4 -0.4,0.1 -0.7,-0.1 -0.5,-0.3 -0.4,-0.6 -0.4,-1 -1,-4.1 -2.2,3.6 m 37.5,-58.1 -4.6,-5.3 m 6.3,1.4 -1.7,3.9 m -0.7,1.5 -1.3,3.1 -1.5,-2.6 -0.3,0.8 -0.5,0.4 -0.4,0.2 -1,-0.1 -0.5,-0.2 -0.7,-0.6 -0.3,-0.8 v -1 l 0.4,-0.8 0.6,-0.7 0.4,-0.2 h 0.7 m 41.7,19.9 h -0.6 l -0.8,0.6 -0.3,0.5 -0.2,0.9 0.4,1 1.1,1 1.3,0.9 1.1,0.3 0.9,-0.1 0.7,-0.6 0.2,-0.3 0.2,-0.9 -0.2,-0.8 -0.6,-0.8 -0.2,-0.1 -0.9,-0.3 -0.9,0.2 -0.7,0.6 -0.2,0.3 -0.2,0.9 0.2,0.8 0.6,0.8 m 0.3,-5.7 0.1,-0.7 -0.3,-1.2 5.3,3.3 m 0.1,-83.2 -3.3,-0.1 1.9,-2.4 h -0.9 l -0.6,-0.3 -0.3,-0.3 -0.2,-1 v -0.6 l 0.3,-0.8 0.7,-0.6 0.9,-0.3 0.9,0.1 0.9,0.3 0.2,0.3 0.3,0.6 m -9.6,4.7 3.3,-6.2 m 0.9,6.4 -4.2,-0.2 m 52.8,16.2 2.3,-2.4 0.5,3 0.6,-0.6 0.6,-0.3 h 0.4 l 0.9,0.4 0.4,0.4 0.5,0.9 v 0.8 l -0.4,0.9 -0.6,0.6 -0.9,0.5 h -0.4 L 442.2,87 m 1,-8.5 -0.4,0.9 0.2,0.6 0.5,0.4 0.6,0.2 0.6,-0.2 1.1,-0.7 0.8,-0.4 h 0.9 l 0.6,0.2 0.7,0.6 0.2,0.6 v 0.4 l -0.4,0.9 -0.8,0.9 -0.9,0.4 h -0.4 l -0.6,-0.2 -0.7,-0.6 -0.2,-0.6 V 81 l 0.4,-0.8 0.6,-1.1 0.2,-0.7 -0.2,-0.6 -0.5,-0.4 -0.6,-0.2 -0.9,0.4 -0.9,1 m -7.1,40.6 -0.4,0.5 0.2,1 0.3,0.5 0.7,0.6 1.1,0.1 1.5,-0.5 1.3,-0.8 0.9,-0.8 0.2,-0.9 -0.2,-0.9 -0.2,-0.2 -0.7,-0.7 -0.8,-0.2 -0.9,0.2 -0.3,0.2 -0.6,0.7 -0.2,0.8 0.2,0.9 0.1,0.3 0.7,0.6 0.8,0.2 1,-0.2 m -7.2,-5.8 -0.4,0.6 0.2,0.9 0.3,0.5 0.7,0.7 h 1.1 l 1.4,-0.5 1.3,-0.7 0.9,-0.9 0.2,-0.8 -0.2,-0.9 -0.1,-0.3 -0.7,-0.6 -0.8,-0.2 -1,0.1 -0.2,0.2 -0.7,0.7 -0.2,0.8 0.2,1 0.2,0.2 0.7,0.6 0.8,0.3 0.9,-0.2 m -21.3,29.6 0.5,0.5 1,0.7 -6.1,1.4 m 6.7,0.3 0.7,3.2 -2.7,-1.2 0.2,0.8 -0.2,0.7 -0.2,0.3 -0.8,0.5 -0.6,0.2 -1,-0.1 -0.7,-0.5 -0.5,-0.8 -0.2,-0.9 0.1,-0.9 0.3,-0.4 0.5,-0.4 m 35.8,7.5 4.9,1.7 -1.3,-4.4 m -3.6,2.7 6.1,-1.8 m -6.9,-1.3 -1,-3.2 2.8,1 -0.2,-0.8 0.1,-0.7 0.2,-0.4 0.8,-0.5 0.5,-0.2 1,0.1 0.7,0.4 0.6,0.7 0.2,0.9 v 0.9 l -0.2,0.4 -0.5,0.5 m -27.4,18.3 0.6,0.2 1.3,0.1 -4.7,4.2 m 4.8,-2.1 0.2,-0.2 0.7,-0.2 h 0.4 l 0.6,0.3 0.8,0.9 0.2,0.6 v 0.4 l -0.3,0.7 -0.4,0.4 -0.7,0.1 -1,0.2 -4.3,-0.3 2.8,3.2 m 27.7,23.5 -0.6,0.3 -0.4,0.9 v 0.6 l 0.2,0.9 0.9,0.6 1.5,0.4 1.5,0.1 1.2,-0.2 0.6,-0.6 0.4,-0.9 v -0.3 l -0.3,-0.9 -0.5,-0.6 -0.9,-0.4 h -0.3 l -0.9,0.3 -0.7,0.5 -0.3,0.9 v 0.3 l 0.2,0.9 0.6,0.6 0.9,0.4 m -3.9,-5.9 0.2,-3.3 2.3,2 v -0.9 l 0.4,-0.6 0.3,-0.3 0.9,-0.2 h 0.6 l 0.9,0.3 0.5,0.7 0.3,0.9 -0.1,0.9 -0.3,0.9 -0.3,0.3 -0.6,0.2 m -17.3,15.9 0.7,-0.2 1,-0.7 -1.2,6.2 m 4.1,-5.8 -0.9,0.1 -0.8,0.8 -0.5,1.4 -0.2,0.9 v 1.5 l 0.4,1 0.8,0.4 0.6,0.2 1,-0.2 0.7,-0.7 0.6,-1.4 0.2,-0.9 v -1.6 l -0.4,-1 -0.9,-0.4 -0.4,-0.1 m -9,-13.2 0.2,0.6 0.7,1.1 -6.2,-1 m 4.9,1.8 0.2,0.7 0.7,1 -6.2,-0.9 m -84.1,-120.9 -5.8,3.8 m 2.2,-6 3.6,2.2 m 0.7,2.1 0.1,-0.2 0.6,-0.4 0.4,-0.1 0.7,0.1 1,0.6 0.3,0.6 0.1,0.4 v 0.7 l -0.3,0.5 -0.6,0.3 -1,0.5 -4.1,1 3.6,2.2 m 10.2,-19 -2.5,2.1 -0.2,-3 -0.7,0.6 -0.6,0.2 h -0.4 l -0.9,-0.5 -0.4,-0.5 -0.3,-0.9 V 73 l 0.5,-0.8 0.7,-0.6 0.9,-0.4 0.4,0.1 0.6,0.2 m -3.7,10 -1.9,-6.7 m 5,4 -3.1,2.7 m 68.9,-35.4 -6.2,-3.3 m 6.4,-0.9 -0.2,4.2 m -1.6,1.6 h 0.3 l 0.6,0.3 0.3,0.3 0.3,0.6 -0.1,1.2 -0.3,0.6 -0.3,0.3 -0.6,0.3 h -0.6 l -0.6,-0.4 -0.9,-0.6 -2.9,-3.1 -0.1,4.2 m 18.7,8 6.2,-3.2 m -2.9,5.8 -3.3,-2.6 m -1.4,-1 -2.6,-2 2.8,-0.8 -0.7,-0.6 -0.3,-0.6 V 54 l 0.3,-0.9 0.3,-0.5 0.8,-0.5 0.8,-0.1 0.9,0.3 0.8,0.5 0.5,0.8 0.1,0.4 -0.2,0.7 M 242,242.8 l -2.9,1.6 0.5,-3 -0.8,0.4 h -0.7 l -0.4,-0.1 -0.7,-0.6 -0.3,-0.6 -0.1,-0.9 0.2,-0.8 0.7,-0.7 0.8,-0.4 0.9,-0.2 0.4,0.2 0.6,0.4 m -4,7.8 0.7,-0.7 0.1,-1.1 -0.4,-1.4 -0.5,-0.8 -0.9,-1.2 -1,-0.5 -0.9,0.1 -0.5,0.3 -0.7,0.7 -0.1,1 0.4,1.5 0.4,0.8 1,1.2 1,0.5 0.9,-0.1 0.4,-0.2 m 40.4,46.3 -0.7,0.7 0.1,0.6 0.3,0.6 0.6,0.3 h 0.6 l 1.2,-0.4 0.9,-0.2 0.9,0.2 0.5,0.4 0.5,0.7 v 0.7 l -0.1,0.4 -0.6,0.7 -1,0.7 -0.9,0.2 -0.4,-0.1 -0.6,-0.4 -0.5,-0.8 V 296 l 0.2,-0.9 0.6,-0.7 0.9,-0.9 0.3,-0.5 v -0.7 l -0.3,-0.5 -0.6,-0.4 -0.9,0.2 -1.2,0.7 m -66.1,-60.4 0.2,-3.2 2.3,1.9 v -0.9 l 0.4,-0.6 0.3,-0.3 0.9,-0.2 h 0.6 l 0.9,0.3 0.5,0.7 0.3,0.9 v 0.9 l -0.4,0.9 -0.3,0.2 -0.6,0.3 m -4.7,-7.4 0.2,0.9 0.9,0.7 1.5,0.3 0.9,0.1 1.5,-0.2 0.9,-0.6 0.3,-0.9 0.1,-0.6 -0.3,-0.9 -0.8,-0.6 -1.5,-0.4 h -0.9 l -1.5,0.2 -1,0.5 -0.3,0.9 v 0.5 m -28.7,-29.5 0.3,0.1 0.5,0.4 0.3,0.3 0.2,0.6 -0.3,1.2 -0.4,0.6 -0.3,0.2 -0.7,0.2 -0.5,-0.1 -0.6,-0.4 -0.8,-0.8 -2.4,-3.5 -0.7,4.2 m 5.7,3.7 -0.1,-0.9 -0.6,-0.4 -0.6,-0.1 -0.6,0.1 -0.4,0.6 -0.5,1.1 -0.5,0.8 -0.7,0.5 -0.6,0.2 -0.9,-0.2 -0.5,-0.4 -0.3,-0.3 -0.1,-0.9 0.2,-1.2 0.5,-0.9 0.3,-0.2 0.6,-0.2 0.9,0.2 0.6,0.4 0.4,0.7 0.2,0.9 0.1,1.3 0.1,0.6 0.6,0.4 0.6,0.1 0.6,-0.2 0.5,-0.8 0.2,-1.3 m 15.7,2.3 -2.7,-1.8 2.8,-1 -0.7,-0.5 -0.4,-0.6 v -0.4 l 0.2,-0.9 0.3,-0.5 0.8,-0.6 0.8,-0.2 0.9,0.3 0.8,0.5 0.6,0.7 v 0.4 0.7 m -6.5,0.1 h -0.6 l -1.3,0.2 3.5,-5.2 m -36.6,88.4 -3.8,-3.5 -0.5,4.5 m 4.3,-1 -6.2,-0.8 m 5.5,6.5 -3.8,-3.4 -0.5,4.4 m 4.3,-1 -6.2,-0.7 m 5.4,-62.9 2.9,-4.3 -4.5,0.2 m 1.6,4.1 -0.2,-6.3 m -6,6.5 3,-0.1 0.2,-2.7 -0.3,0.3 -0.9,0.3 -0.9,0.1 -0.9,-0.3 -0.6,-0.5 -0.4,-0.9 v -0.6 l 0.3,-0.9 0.5,-0.7 0.9,-0.3 h 0.9 l 0.9,0.2 0.4,0.3 0.3,0.6 m -4,120 -3.5,-3.8 -1,4.4 m 4.5,-0.6 -6.2,-1.3 m 3.9,7.2 0.7,-0.1 0.4,-0.8 0.2,-0.6 -0.1,-1 -0.8,-0.8 -1.4,-0.6 -1.5,-0.3 -1.2,0.1 -0.7,0.4 -0.5,0.9 -0.1,0.3 0.2,0.9 0.4,0.7 0.8,0.5 0.3,0.1 1,-0.2 0.7,-0.4 0.5,-0.8 v -0.3 l -0.1,-1 -0.4,-0.7 -0.9,-0.5 m 10.5,26.4 -5.2,0.6 3,3.3 m 2.2,-3.9 -4.8,4.2 m 9.2,0.9 -6.8,1.9 m 4,-5.1 2.8,3.2 m 38.1,24.5 3.1,4.2 1.4,-4.3 m -4.5,0.1 6,2 m -4.6,-5.9 v 0.9 l 0.5,0.5 0.5,0.2 0.7,-0.1 0.5,-0.5 0.6,-1 0.6,-0.8 0.7,-0.4 0.7,-0.1 0.9,0.3 0.4,0.5 0.2,0.3 v 1 l -0.3,1.1 -0.6,0.8 -0.4,0.2 -0.6,0.1 -0.9,-0.3 -0.5,-0.5 -0.3,-0.7 -0.1,-1 0.1,-1.2 -0.1,-0.7 -0.5,-0.4 -0.5,-0.2 -0.7,0.1 -0.5,0.7 -0.5,1.3 m -14.1,-2 -4.5,2.5 4,1.9 m 0.5,-4.4 -2.8,5.7 m 7.7,-0.9 -0.6,0.7 -0.8,0.3 -1,-0.1 -0.2,-0.2 -0.7,-0.6 -0.3,-0.8 0.1,-1 0.2,-0.3 0.6,-0.6 0.8,-0.3 1,0.1 0.2,0.2 0.7,0.6 0.3,0.8 -0.3,1.2 -0.6,1.4 -1,1.2 -0.9,0.5 -0.9,-0.1 -0.6,-0.3 -0.6,-0.6 -0.1,-0.7 m -76.9,-186.6 2.6,1.4 1.6,-2.3 -0.4,0.1 -1,-0.1 -0.8,-0.4 -0.6,-0.7 -0.3,-0.8 0.1,-1 0.3,-0.5 0.7,-0.7 0.8,-0.2 0.9,0.1 0.8,0.4 0.7,0.7 0.1,0.4 v 0.7 m -6.8,0.5 -0.2,0.3 -0.5,0.4 -0.4,0.1 h -0.7 l -1.1,-0.6 -0.4,-0.5 -0.1,-0.4 v -0.7 l 0.3,-0.5 0.5,-0.4 1,-0.5 4,-1.3 -3.7,-2 m -59.4,-9.2 1.3,-2.7 -2.3,-1.4 0.1,0.4 -0.1,0.9 -0.4,0.8 -0.6,0.7 -0.8,0.3 -1,-0.1 -0.5,-0.3 -0.7,-0.7 -0.3,-0.8 0.2,-0.9 0.4,-0.8 0.6,-0.7 0.4,-0.1 h 0.7 m 1,6.3 v 0.7 l 0.4,1.2 -5.7,-2.8 m 207.8,148.9 4.2,3 0.1,-4.5 m -4.3,1.5 h 6.3 m -6.2,-4.5 0.3,0.9 0.9,0.6 1.5,0.3 0.9,0.1 1.5,-0.3 0.9,-0.6 0.3,-0.9 0.1,-0.6 -0.3,-0.9 -0.9,-0.6 -1.5,-0.3 -0.9,-0.1 -1.5,0.3 -0.9,0.6 -0.3,0.9 -0.1,0.5 m -13.1,53.9 -6,3.5 m 2.6,-5.9 3.4,2.4 m 3.9,2.7 -2.4,-1.7 -1.8,2.1 0.4,-0.1 0.9,0.3 0.7,0.5 0.6,0.7 0.2,0.9 -0.3,0.9 -0.3,0.5 -0.8,0.5 -0.8,0.2 -0.9,-0.3 -0.8,-0.5 -0.6,-0.7 v -0.5 l 0.1,-0.6 m 35.8,16.8 -4.6,2.2 3.9,2.2 m 0.7,-4.4 -3.1,5.5 m 4.6,-3 0.7,0.1 1.2,-0.4 -3.1,5.5 m 10.1,-33.9 -3.1,-1.3 2.6,-1.5 -0.8,-0.4 -0.4,-0.5 -0.2,-0.4 0.1,-0.9 0.3,-0.6 0.6,-0.7 0.8,-0.3 0.9,0.1 0.8,0.3 0.8,0.7 0.1,0.4 v 0.6 m -9.6,-0.9 0.6,-0.7 0.8,-0.3 0.9,0.1 0.3,0.1 0.7,0.6 0.3,0.8 -0.1,1 -0.1,0.3 -0.6,0.7 -0.8,0.3 -0.9,-0.1 -0.3,-0.1 -0.7,-0.7 -0.3,-0.7 0.2,-1.3 0.6,-1.3 0.8,-1.3 0.9,-0.6 1,0.1 0.5,0.2 0.7,0.7 0.1,0.6 m 40.3,33.7 6.5,-2.6 m -3.4,5.5 -3.1,-2.9 m -3.2,-2.8 5.1,-1.1 -3.3,-3 m -1.8,4.1 4.3,-4.7 m -26.1,45.5 -0.1,-3 -2.7,-0.2 0.3,0.3 0.3,0.9 v 0.9 l -0.2,0.9 -0.6,0.6 -0.9,0.3 h -0.6 l -0.9,-0.3 -0.6,-0.5 -0.4,-0.9 v -0.9 l 0.3,-0.9 0.3,-0.3 0.6,-0.4 m 5.3,8.9 -0.1,-3 -2.7,-0.3 0.3,0.3 0.3,0.9 0.1,0.9 -0.3,0.9 -0.6,0.6 -0.9,0.4 h -0.6 l -0.9,-0.3 -0.6,-0.6 -0.3,-0.9 -0.1,-0.9 0.3,-0.9 0.3,-0.3 0.6,-0.3 m 22.9,50.8 0.5,0.8 v 0.9 l -0.3,0.8 -0.2,0.3 -0.8,0.5 -0.8,0.1 -0.9,-0.4 -0.3,-0.2 -0.5,-0.8 v -0.8 l 0.3,-0.9 0.2,-0.2 0.8,-0.5 0.8,-0.1 1.2,0.5 1.1,1 1,1.2 0.3,1 -0.4,0.9 -0.3,0.4 -0.8,0.5 -0.7,-0.1 m -38.2,16.3 -2.7,-1.2 -1.4,2.3 0.4,-0.2 1,0.1 0.8,0.4 0.7,0.6 0.3,0.8 -0.1,1 -0.2,0.5 -0.7,0.7 -0.8,0.3 -0.9,-0.1 -0.8,-0.3 -0.7,-0.7 -0.2,-0.4 v -0.6 m 10.6,-0.9 -5.3,4.6 m 1.5,-6.3 3.8,1.7 m -27.6,-64.3 -2,-4.8 -2.4,3.8 m 4.4,1 -5.4,-3.4 m 2.8,4.8 -0.1,0.6 0.3,1.3 -5.3,-3.4 m 21.4,4.3 2.2,2.1 2.1,-1.8 h -0.4 l -0.9,-0.4 -0.7,-0.6 -0.4,-0.8 -0.1,-0.9 0.4,-0.8 0.4,-0.5 0.9,-0.4 0.8,-0.1 0.9,0.4 0.7,0.7 0.4,0.8 v 0.4 l -0.2,0.7 m -10,-2.4 2.2,2 2.1,-1.7 h -0.5 l -0.8,-0.4 -0.7,-0.6 -0.4,-0.8 -0.1,-0.9 0.4,-0.9 0.4,-0.4 0.9,-0.5 h 0.8 l 0.9,0.4 0.6,0.6 0.5,0.9 v 0.4 l -0.2,0.6 M 228,520.6 v -0.3 l 0.3,-0.6 0.4,-0.3 0.6,-0.3 1.2,0.1 0.6,0.3 0.2,0.3 0.3,0.6 v 0.6 l -0.3,0.6 -0.6,0.9 -3.1,2.9 4.2,0.1 m 4.5,-6.2 -3.2,4.1 4.5,0.1 m -1.3,-4.2 -0.2,6.3 M 92,280.9 l 6.6,2.3 m -6.1,1.9 -0.5,-4.2 m 1.3,-1.2 -0.3,-0.6 -1,-0.8 6.2,-0.7 m -48.2,6 0.3,-0.6 -0.3,-0.9 -0.4,-0.5 -0.8,-0.5 h -1 l -1.4,0.7 -1.2,0.9 -0.8,1 -0.1,0.8 0.3,0.9 0.2,0.2 0.7,0.6 0.9,0.1 0.9,-0.3 0.2,-0.2 0.6,-0.8 0.1,-0.8 -0.3,-0.9 -0.2,-0.2 -0.8,-0.6 -0.8,-0.1 -0.9,0.3 m 7.3,2.7 -0.8,-0.5 -0.7,0.1 -0.4,0.4 -0.3,0.6 0.1,0.6 0.5,1.2 0.3,0.9 -0.2,0.8 -0.3,0.6 -0.7,0.5 -0.6,0.2 -0.5,-0.1 -0.7,-0.5 -0.8,-1 -0.3,-0.9 0.1,-0.4 0.3,-0.6 0.7,-0.6 0.7,-0.1 0.8,0.1 0.8,0.6 1,0.8 0.6,0.3 0.6,-0.2 0.5,-0.3 0.3,-0.6 -0.3,-0.9 -0.8,-1.1 m -19,-50.6 0.8,-2.9 -2.6,-1 0.2,0.4 0.1,0.9 -0.2,0.9 -0.5,0.8 -0.8,0.4 -0.9,0.1 -0.6,-0.1 -0.8,-0.6 -0.4,-0.7 -0.1,-0.9 0.2,-0.9 0.5,-0.8 0.4,-0.2 0.7,-0.2 m 2.3,6 0.1,0.7 0.7,1.1 -6.2,-1.5 m 62.9,-82.7 0.6,0.3 0.9,-0.3 0.5,-0.3 0.5,-0.8 v -1.1 l -0.7,-1.4 -0.9,-1.2 -0.9,-0.8 -0.8,-0.1 -0.9,0.3 -0.3,0.2 -0.5,0.7 -0.2,0.9 0.3,0.9 0.2,0.2 0.8,0.6 0.8,0.1 0.9,-0.3 0.3,-0.2 0.5,-0.7 0.1,-0.9 -0.3,-0.9 m -2.8,7.3 0.6,-0.8 -0.1,-0.7 -0.4,-0.5 -0.6,-0.3 -0.6,0.2 -1.2,0.4 -0.9,0.3 -0.8,-0.1 -0.6,-0.3 -0.5,-0.8 -0.2,-0.6 0.1,-0.4 0.6,-0.8 0.9,-0.7 0.9,-0.3 0.4,0.1 0.6,0.3 0.6,0.7 0.1,0.7 -0.1,0.8 -0.6,0.8 -0.8,0.9 -0.3,0.6 0.1,0.7 0.4,0.5 0.6,0.3 0.9,-0.3 1.1,-0.8 m 22.5,17.5 -2.8,1 0.5,2.6 0.2,-0.4 0.8,-0.5 0.8,-0.3 h 1 l 0.7,0.3 0.6,0.8 0.2,0.6 v 0.9 l -0.4,0.8 -0.7,0.5 -0.9,0.3 h -0.9 l -0.4,-0.2 -0.5,-0.4 m 4.4,-5.3 -0.1,-0.3 0.1,-0.7 0.2,-0.3 0.5,-0.5 1.1,-0.4 0.7,0.1 0.4,0.2 0.4,0.4 0.2,0.6 -0.1,0.7 -0.2,1 -1.9,3.8 4,-1.3 m 35.3,-18.8 -1.5,5 4.3,-1.5 m -2.8,-3.5 2.1,6 m 3.9,-7.9 -2.9,1 0.6,2.6 0.2,-0.4 0.7,-0.5 0.9,-0.3 h 0.9 l 0.8,0.3 0.6,0.8 0.2,0.6 v 0.9 l -0.4,0.8 -0.8,0.5 -0.8,0.3 h -1 l -0.3,-0.2 -0.5,-0.4 m -12.4,-57.3 0.2,0.2 0.3,0.7 v 0.4 l -0.2,0.6 -0.9,0.9 -0.6,0.2 h -0.4 l -0.7,-0.2 -0.4,-0.4 -0.2,-0.7 -0.2,-1 -0.1,-4.3 -2.9,3 m -0.6,6.6 -0.4,-0.9 v -0.8 l 0.4,-0.9 0.2,-0.2 0.9,-0.4 h 0.8 l 0.9,0.4 0.2,0.2 0.4,0.8 v 0.9 l -0.4,0.8 -0.2,0.3 -0.9,0.4 h -0.8 l -1.1,-0.6 -1.1,-1.1 -0.8,-1.3 -0.2,-1 0.4,-0.9 0.4,-0.4 0.9,-0.4 0.6,0.2 m 42.1,41.1 -0.2,-0.3 -0.1,-0.7 0.1,-0.4 0.3,-0.6 1,-0.6 0.7,-0.1 0.4,0.1 0.6,0.3 0.3,0.5 0.1,0.7 v 1.1 l -0.8,4.1 3.5,-2.3 m -1.3,-6.7 -0.6,0.7 0.1,0.7 0.3,0.5 0.6,0.3 h 0.7 l 1.1,-0.5 0.9,-0.2 0.9,0.2 0.6,0.3 0.5,0.7 v 0.7 0.4 l -0.6,0.8 -1,0.6 -0.9,0.3 -0.5,-0.1 -0.5,-0.3 -0.5,-0.8 -0.1,-0.7 0.1,-0.8 0.6,-0.7 0.9,-0.9 0.3,-0.6 -0.1,-0.7 -0.3,-0.5 -0.6,-0.3 -0.9,0.2 -1.1,0.8 m -19.2,-81.2 -0.2,3.3 -2.3,-2 -0.1,0.9 -0.3,0.6 -0.3,0.3 -0.9,0.2 h -0.6 l -0.9,-0.4 -0.6,-0.6 -0.2,-1 0.1,-0.9 0.3,-0.8 0.3,-0.3 0.7,-0.3 m 3.1,6.1 0.3,0.1 0.6,0.3 0.3,0.3 0.2,0.6 v 1.2 l -0.4,0.6 -0.3,0.3 -0.6,0.2 h -0.6 L 162.9,70 162,69.3 159.3,66.1 159,70.3 m 13.4,-6.4 -2.9,-1.6 2.8,-1.2 -0.8,-0.5 -0.4,-0.5 -0.1,-0.4 0.2,-0.9 0.3,-0.6 0.7,-0.6 0.8,-0.2 0.9,0.2 0.8,0.4 0.7,0.7 0.1,0.4 -0.1,0.7 m -7.6,1.5 -2.9,-1.6 2.7,-1.2 -0.7,-0.5 -0.4,-0.5 -0.1,-0.5 0.2,-0.9 0.2,-0.5 0.8,-0.6 0.8,-0.3 0.9,0.2 0.8,0.5 0.6,0.7 0.1,0.4 v 0.6 m 37.2,453.2 -5.2,0.7 3.1,3.3 m 2.1,-4 -4.6,4.3 m 7.3,-1.2 -0.8,-0.5 -0.6,0.2 -0.5,0.4 -0.2,0.6 0.2,0.7 0.6,1.1 0.4,0.8 v 0.9 l -0.3,0.6 -0.6,0.6 -0.7,0.2 h -0.4 l -0.8,-0.5 -0.9,-0.8 -0.4,-0.9 0.1,-0.4 0.2,-0.6 0.7,-0.7 0.6,-0.2 0.8,0.1 0.9,0.4 1,0.7 0.6,0.2 0.7,-0.2 0.4,-0.4 0.3,-0.6 -0.4,-0.9 -1,-0.9 m 8.9,-13.6 -1.6,-6.8 m 4.8,4.1 -3.2,2.7 m -3.7,2.9 2.3,-1.9 -1.4,-2.3 -0.1,0.5 -0.5,0.8 -0.7,0.5 -0.9,0.4 -0.8,-0.1 -0.8,-0.6 -0.4,-0.4 -0.3,-0.9 v -0.9 l 0.6,-0.8 0.7,-0.5 0.9,-0.3 h 0.4 l 0.6,0.3 m -17,-386.7 6,3.6 m -6.4,0.6 0.4,-4.2 m 0.5,-5.2 6,3.6 m -6.4,0.6 0.4,-4.2 m 9.3,-43.7 -3,1.5 0.6,-3 -0.8,0.4 h -0.7 l -0.4,-0.1 -0.6,-0.7 -0.3,-0.6 -0.1,-0.9 0.2,-0.8 0.7,-0.7 0.8,-0.3 1,-0.2 0.4,0.2 0.5,0.4 m -3.1,7.2 -3,1.4 0.6,-3 -0.8,0.4 h -0.7 l -0.4,-0.1 -0.7,-0.7 -0.2,-0.5 -0.1,-1 0.2,-0.8 0.7,-0.6 0.8,-0.4 1,-0.1 0.4,0.1 0.5,0.4 m 32.2,25.4 -2.5,-1.5 -1.7,2.1 0.4,-0.1 1,0.2 0.7,0.5 0.6,0.7 0.2,0.8 -0.2,1 -0.3,0.5 -0.7,0.6 -0.8,0.2 -0.9,-0.2 -0.8,-0.5 -0.6,-0.7 -0.1,-0.4 v -0.7 m 10,0 -4.8,2 3.9,2.4 m 0.9,-4.4 -3.3,5.4 m 4.2,-36.8 -3.3,0.3 1.6,-2.5 h -0.9 l -0.6,-0.2 -0.3,-0.3 -0.4,-0.9 -0.1,-0.6 0.3,-0.9 0.5,-0.6 0.9,-0.4 0.9,-0.1 0.9,0.3 0.3,0.2 0.4,0.6 m -5.6,4.1 v 0.3 l -0.2,0.6 -0.3,0.3 -0.6,0.4 -1.2,0.1 -0.6,-0.3 -0.3,-0.3 -0.3,-0.5 -0.1,-0.6 0.3,-0.7 0.5,-0.9 2.7,-3.2 -4.2,0.3 m 39.1,50.7 -0.2,-0.6 -0.8,-0.5 -0.6,-0.1 -0.9,0.1 -0.8,0.8 -0.5,1.5 -0.3,1.4 0.1,1.3 0.5,0.7 0.8,0.4 0.3,0.1 1,-0.2 0.7,-0.5 0.4,-0.8 0.1,-0.3 -0.2,-0.9 -0.5,-0.7 -0.8,-0.5 h -0.3 l -0.9,0.1 -0.7,0.5 -0.5,0.8 m 9.1,-1.7 -0.2,-0.7 -0.8,-0.4 -0.6,-0.1 -0.9,0.1 -0.8,0.8 -0.5,1.4 -0.3,1.5 0.1,1.2 0.5,0.7 0.8,0.5 h 0.3 l 0.9,-0.1 0.7,-0.5 0.5,-0.8 v -0.3 l -0.1,-1 -0.5,-0.7 -0.8,-0.4 -0.3,-0.1 -1,0.2 -0.7,0.5 -0.4,0.8 m 15.1,-12.9 -0.7,0.1 -0.6,0.7 -0.2,0.6 -0.1,0.9 0.6,0.9 1.3,0.8 1.4,0.6 1.2,0.2 0.8,-0.3 0.6,-0.8 0.1,-0.2 0.1,-1 -0.3,-0.8 -0.8,-0.6 -0.2,-0.1 -1,-0.1 -0.8,0.4 -0.6,0.7 -0.1,0.3 -0.1,0.9 0.4,0.8 0.7,0.6 m -0.5,-10 4.7,5.2 m -6.3,-1.3 1.6,-3.9 m -9.1,-17.1 -0.1,0.3 -0.6,0.3 -0.4,0.1 -0.7,-0.1 -1,-0.6 -0.4,-0.6 -0.1,-0.4 0.1,-0.6 0.3,-0.5 0.6,-0.4 1,-0.5 4.1,-0.9 -3.6,-2.2 m -6.5,0.9 0.7,-0.6 0.9,-0.2 0.9,0.2 0.2,0.2 0.6,0.7 0.2,0.8 -0.2,0.9 -0.1,0.3 -0.8,0.6 -0.8,0.2 -0.9,-0.2 -0.3,-0.2 -0.6,-0.7 -0.2,-0.8 0.4,-1.2 0.8,-1.3 1,-1.1 1,-0.5 0.9,0.3 0.6,0.3 0.6,0.7 -0.1,0.7 m -20.1,136.3 0.5,3.3 -2.7,-1.4 0.2,0.9 -0.2,0.6 -0.3,0.4 -0.8,0.4 -0.6,0.1 -1,-0.2 -0.6,-0.5 -0.5,-0.8 -0.1,-0.9 0.1,-0.9 0.3,-0.4 0.5,-0.4 m 4.5,4.7 0.4,0.5 1,0.8 -6.2,1 m 30.5,-19.1 -0.5,0.5 0.1,0.9 0.2,0.6 0.7,0.7 1,0.2 1.5,-0.3 1.4,-0.6 1,-0.7 0.3,-0.8 -0.1,-0.9 -0.1,-0.3 -0.6,-0.7 -0.8,-0.4 -0.9,0.1 -0.3,0.1 -0.7,0.7 -0.3,0.7 v 1 l 0.1,0.3 0.7,0.7 0.8,0.3 0.9,-0.1 m -4.6,-4 -0.3,0.1 -0.7,-0.1 -0.4,-0.1 -0.5,-0.5 -0.5,-1.1 0.1,-0.6 0.1,-0.4 0.5,-0.5 0.5,-0.3 0.7,0.1 1.1,0.2 3.9,1.6 -1.6,-3.9 m -46.8,-31.7 -7,0.3 m 5,-4 2,3.7 m 2.4,4.6 -7,0.3 m 5,-4 2,3.7 m 4.4,-26.3 2.9,-0.8 -0.4,-2.6 -0.2,0.3 -0.8,0.6 -0.9,0.2 -0.9,-0.1 -0.8,-0.4 -0.5,-0.8 -0.1,-0.5 v -1 l 0.4,-0.7 0.8,-0.6 0.9,-0.2 0.9,0.1 0.4,0.2 0.4,0.5 m -6.8,7.2 1.8,-4.9 -4.3,1.2 m 2.5,3.7 -1.6,-6.1 m 25,17.4 -0.9,-3.2 2.8,1.1 -0.2,-0.8 0.1,-0.7 0.2,-0.4 0.8,-0.5 0.6,-0.1 h 1 l 0.7,0.5 0.5,0.8 0.2,0.8 v 1 l -0.2,0.3 -0.6,0.5 m -6.6,-5.4 0.5,0.8 0.7,0.2 0.6,-0.2 0.5,-0.4 0.1,-0.7 v -1.2 l 0.1,-1 0.4,-0.7 0.5,-0.4 0.9,-0.3 0.6,0.2 0.4,0.2 0.5,0.8 0.3,1.2 -0.1,0.9 -0.2,0.4 -0.5,0.4 -0.9,0.2 -0.6,-0.1 -0.7,-0.4 -0.6,-0.8 -0.5,-1.1 -0.5,-0.5 -0.6,-0.2 -0.6,0.2 -0.5,0.4 -0.1,1 0.3,1.3 m 147.4,338.1 2.8,-4.3 -4.5,0.2 m 1.7,4.1 -0.4,-6.3 m 44.5,81.2 -2.7,1.5 1.1,2.5 0.1,-0.4 0.6,-0.7 0.8,-0.5 1,-0.1 0.8,0.2 0.7,0.7 0.3,0.5 0.1,0.9 -0.2,0.8 -0.7,0.7 -0.8,0.5 -0.9,0.1 -0.4,-0.1 -0.5,-0.4 m 9.8,-69.2 5.2,-4.7 m -1.3,6.3 -3.9,-1.6 m 20.3,30.4 -0.1,1 0.4,0.5 0.6,0.3 h 0.6 l 0.6,-0.5 0.7,-0.9 0.7,-0.7 0.8,-0.3 h 0.7 l 0.8,0.4 0.4,0.5 0.1,0.4 -0.1,0.9 -0.5,1.1 -0.6,0.7 -0.4,0.2 h -0.7 l -0.8,-0.4 -0.4,-0.5 -0.3,-0.8 0.1,-1 0.2,-1.2 v -0.7 l -0.4,-0.5 -0.6,-0.2 h -0.6 l -0.7,0.7 -0.6,1.2 m -116.1,3.5 -0.9,0.1 -0.8,-0.3 -0.7,-0.7 -0.1,-0.3 -0.1,-1 0.3,-0.7 0.7,-0.7 0.3,-0.1 1,-0.1 0.8,0.3 0.6,0.7 0.1,0.3 0.1,0.9 -0.3,0.8 -1,0.8 -1.4,0.6 -1.5,0.3 -1,-0.2 -0.7,-0.7 -0.2,-0.5 -0.1,-1 0.4,-0.5 m 57.6,139.6 0.3,-0.6 0.3,-1.2 3.4,5.3 m -1.3,-6.9 -0.6,0.7 0.1,0.7 0.3,0.5 0.6,0.3 0.6,-0.1 1.2,-0.3 0.9,-0.3 0.9,0.2 0.5,0.3 0.5,0.8 0.1,0.7 -0.1,0.4 -0.6,0.7 -1,0.7 -0.9,0.2 -0.4,-0.1 -0.6,-0.3 -0.5,-0.8 -0.1,-0.7 0.2,-0.8 0.6,-0.7 0.9,-0.9 0.3,-0.6 -0.1,-0.7 -0.3,-0.5 -0.6,-0.3 -0.9,0.2 -1.1,0.7 m -35.7,3.9 -4.3,2.9 4.2,1.6 m 0.1,-4.5 -2.2,5.9 m 4.6,-3.3 0.1,-0.3 0.5,-0.5 0.4,-0.1 0.6,-0.1 1.2,0.4 0.4,0.5 0.2,0.4 0.1,0.6 -0.2,0.6 -0.5,0.5 -0.9,0.6 -3.9,1.8 4,1.4 m -25.2,-92 2.6,-1.6 -1.2,-2.4 -0.1,0.4 -0.6,0.7 -0.7,0.5 -1,0.2 -0.8,-0.2 -0.7,-0.6 -0.3,-0.5 -0.2,-1 0.1,-0.8 0.7,-0.7 0.7,-0.5 0.9,-0.2 0.5,0.1 0.5,0.4 m -5.3,9.2 -0.8,-6.9 m 4.4,4.7 -3.6,2.2 m -11,73.9 -3,0.1 -0.2,2.7 0.3,-0.3 0.9,-0.3 h 0.9 l 0.9,0.2 0.6,0.6 0.3,0.9 v 0.6 l -0.2,0.9 -0.6,0.6 -0.9,0.3 -0.9,0.1 -0.9,-0.3 -0.3,-0.3 -0.3,-0.6 m 7,-5.3 -0.9,0.4 -0.6,0.9 -0.2,1.5 v 0.9 l 0.3,1.5 0.6,0.9 0.9,0.2 h 0.6 l 0.9,-0.3 0.6,-0.9 0.3,-1.5 -0.1,-0.9 -0.3,-1.5 -0.6,-0.9 -0.9,-0.3 h -0.5 m -20.1,-59.8 0.1,0.3 v 0.6 l -0.1,0.4 -0.4,0.6 -1,0.6 h -0.7 l -0.4,-0.1 -0.5,-0.4 -0.3,-0.6 v -0.6 l 0.1,-1.1 1.2,-4.1 -3.7,2 m -0.8,7.7 0.7,-5.2 -4,2.2 m 3.3,3 -3,-5.6 m 73.6,-145.9 0.7,5.2 3.3,-3.2 m -4,-2 4.4,4.6 m -24.8,-25.3 -0.4,-7 m 4.1,5 -3.7,2 m -3.7,2.1 0.6,-5.1 -4,2.2 m 3.4,2.9 -3.1,-5.5 m 82.4,-8.2 -0.3,6.9 m -3.5,-5.3 3.8,-1.6 m -26.2,-15.8 -2.9,1.6 0.4,-3 -0.8,0.4 -0.7,0.1 -0.4,-0.1 -0.7,-0.7 -0.3,-0.5 -0.1,-0.9 0.2,-0.8 0.6,-0.8 0.8,-0.4 0.9,-0.2 0.5,0.1 0.5,0.4 m -6.6,7.2 -0.2,-1 0.3,-0.8 0.6,-0.7 0.3,-0.1 0.9,-0.2 0.8,0.2 0.7,0.7 0.1,0.2 0.2,0.9 -0.2,0.9 -0.6,0.7 -0.3,0.1 -0.9,0.2 -0.9,-0.2 -0.8,-0.9 -0.7,-1.3 -0.5,-1.5 0.1,-1.1 0.6,-0.7 0.5,-0.3 1,-0.2 0.5,0.4 m 43.7,6.9 4.6,-2.4 -4,-2 m -0.6,4.4 2.9,-5.6 m -6.8,3.5 0.9,0.2 1,-0.6 0.9,-1.2 0.5,-0.8 0.4,-1.4 -0.2,-1.1 -0.6,-0.7 -0.6,-0.2 -0.9,-0.2 -0.9,0.5 -1,1.2 -0.4,0.8 -0.4,1.5 0.1,1.1 0.7,0.7 0.4,0.2 m -11.5,195 -0.3,0.6 0.4,0.9 0.4,0.4 0.8,0.5 1.1,-0.2 1.3,-0.8 1.1,-1 0.7,-1 0.1,-0.9 -0.4,-0.8 -0.2,-0.2 -0.9,-0.5 -0.8,-0.1 -0.9,0.4 -0.2,0.2 -0.5,0.9 v 0.8 l 0.4,0.9 0.2,0.2 0.8,0.5 h 0.9 l 0.8,-0.4 m 18.8,34.6 -0.4,0.4 -0.1,1 0.2,0.5 0.5,0.8 1.1,0.3 1.5,-0.1 1.4,-0.5 1.1,-0.6 0.4,-0.7 v -1 l -0.1,-0.3 -0.5,-0.7 -0.8,-0.4 -0.9,-0.1 -0.3,0.1 -0.8,0.6 -0.4,0.7 v 1 l 0.1,0.3 0.5,0.7 0.8,0.4 h 0.9 m -6,-5.3 0.6,0.8 1,0.3 1.5,-0.1 0.9,-0.3 1.3,-0.7 0.7,-0.9 0.1,-0.9 -0.2,-0.6 -0.6,-0.8 -1,-0.3 -1.5,0.2 -0.9,0.2 -1.3,0.8 -0.7,0.8 v 0.9 l 0.1,0.5 m -8.5,9.7 -2.9,0.7 0.4,2.7 0.2,-0.3 0.8,-0.6 0.9,-0.2 0.9,0.1 0.7,0.5 0.5,0.8 0.2,0.6 -0.1,0.9 -0.5,0.7 -0.8,0.5 -0.8,0.2 h -1 l -0.3,-0.3 -0.5,-0.5 m 5.5,-6.5 -0.8,0.5 -0.2,0.6 0.2,0.6 0.4,0.5 0.7,0.2 h 1.2 l 0.9,0.1 0.8,0.4 0.4,0.5 0.2,0.9 -0.1,0.6 -0.3,0.4 -0.8,0.5 -1.1,0.3 -1,-0.1 -0.3,-0.2 -0.5,-0.5 -0.2,-0.9 0.2,-0.7 0.4,-0.7 0.8,-0.5 1.1,-0.6 0.5,-0.4 0.2,-0.6 -0.2,-0.6 -0.4,-0.5 -0.9,-0.1 -1.3,0.3 M 115.8,256 l -6.5,2.5 m 3.5,-5.4 3,2.9 m 2.2,2 -0.9,-0.4 -1,0.2 -1.3,0.9 -0.6,0.7 -0.8,1.3 -0.2,1.1 0.5,0.8 0.4,0.4 0.9,0.4 1,-0.2 1.3,-0.9 0.6,-0.7 0.8,-1.3 0.2,-1.1 -0.5,-0.8 -0.3,-0.3 m 16.4,-0.6 -0.6,-0.2 -0.9,0.3 -0.5,0.4 -0.4,0.8 0.1,1.1 0.8,1.3 1,1.2 1,0.7 h 0.9 l 0.8,-0.4 0.2,-0.2 0.5,-0.8 0.1,-0.8 -0.4,-0.9 -0.2,-0.2 -0.8,-0.5 h -0.9 l -0.8,0.3 -0.3,0.2 -0.4,0.8 -0.1,0.9 0.4,0.9 m 5.3,-7.5 0.4,0.8 -0.1,0.9 -0.5,0.8 -0.2,0.2 -0.9,0.4 -0.8,-0.1 -0.8,-0.5 -0.2,-0.2 -0.4,-0.9 0.1,-0.8 0.4,-0.8 0.3,-0.2 0.8,-0.4 0.9,0.1 1,0.7 1,1.1 0.8,1.3 0.1,1.1 -0.5,0.8 -0.4,0.4 -0.9,0.4 -0.6,-0.3 m 162.1,354.6 -1.8,-4.8 -2.5,3.7 m 4.3,1.1 -5.2,-3.5 m -0.2,7.7 -0.6,-0.7 -0.2,-0.8 0.3,-1 0.1,-0.2 0.8,-0.6 0.8,-0.1 0.9,0.2 0.3,0.2 0.6,0.7 0.1,0.9 -0.2,0.9 -0.2,0.2 -0.7,0.6 -0.9,0.2 -1.1,-0.5 -1.3,-0.8 -1.1,-1.1 -0.4,-1 0.3,-0.9 0.3,-0.5 0.8,-0.6 0.6,0.1 m 15.2,21.1 -2.6,-1.4 -1.5,2.3 0.4,-0.1 0.9,0.1 0.8,0.4 0.7,0.7 0.3,0.8 -0.2,0.9 -0.2,0.5 -0.7,0.7 -0.8,0.3 -1,-0.2 -0.8,-0.4 -0.6,-0.6 -0.2,-0.4 v -0.7 m 9.9,0.3 v -0.7 l -0.6,-0.7 -0.6,-0.3 -0.9,-0.1 -1,0.5 -0.9,1.3 -0.7,1.3 -0.2,1.2 0.2,0.8 0.7,0.7 0.3,0.1 0.9,0.1 0.8,-0.2 0.7,-0.7 0.1,-0.3 0.1,-0.9 -0.2,-0.8 -0.7,-0.7 -0.3,-0.1 -0.9,-0.1 -0.8,0.2 -0.7,0.7 M 86.7,332.2 l -0.9,2.8 2.4,1.1 -0.2,-0.3 v -1 l 0.3,-0.8 0.6,-0.8 0.7,-0.4 h 1 l 0.6,0.2 0.7,0.6 0.4,0.7 v 1 l -0.3,0.8 -0.5,0.8 -0.4,0.2 -0.7,0.1 m -3,-7.2 1.1,-3.2 1.7,2.5 0.3,-0.9 0.4,-0.5 0.4,-0.1 1,-0.1 0.5,0.2 0.8,0.6 0.4,0.8 v 0.9 l -0.3,0.9 -0.6,0.7 -0.4,0.2 -0.6,0.1 m -7.5,4 0.5,-0.6 -0.2,-0.9 -0.2,-0.6 -0.7,-0.6 -1,-0.2 -1.5,0.4 -1.4,0.6 -0.9,0.8 -0.3,0.8 0.1,0.9 0.1,0.3 0.7,0.7 0.8,0.3 0.9,-0.1 0.3,-0.2 0.7,-0.6 0.3,-0.8 -0.2,-1 -0.1,-0.2 -0.6,-0.7 -0.8,-0.3 -1,0.1 m 7.7,6.4 h -7 m 5.2,-3.8 1.8,3.8"
       id="nums_001"
       stroke="#000000"
       stroke-width="1" />
    <path
       d="m 352.6,544.3 -18.2,-41.7 6.3,-23.1 -52.8,63.8 -34.3,-15.3 -41.5,-1.1 -18.6,2.1 -1.7,-1.9 3.2,-18.5 36.9,-29.5 20,-31.9 33.1,30.8 -15.4,-20 -0.1,-4.5 14.6,-20.7 -22.1,4.7 -3.3,-1.8 -7.4,-21.4 -26,0.2 -3.9,-2.7 -9,-24.4 -7.8,23.8 -23.8,5.1 -3.8,-1.9 -10.6,-21.9 -23.7,-4.1 -2.7,-3.1 -1.2,-24 8,-38.2 8.9,-74.6 -30.8,27.3 -27.9,-26.1 6.2,58.7 10.6,15.8 -9,27.4 -17.9,6.5 -16.6,-35.3 -23.4,-6.1 -27.8,-37 0.6,-24.1 10.7,-42.8 -4.8,-24.4 2,-3.9 22.2,-11.2 67.8,-49.7 38.4,-38.9 2.7,-38 27.5,15.6 6.3,-19.7 2.9,-1.4 19.3,7.3 15.9,-16.3 3.8,-0.3 18.3,13.6 18.4,-6.4 25.5,15.8 2.6,19.2 7.2,21.9 -1.5,3.7 -20.5,10.5 -31.7,-5.5 -17.4,7 -23.6,-14.3 -2,-18.7 -6,61.6 -30.7,20.4 -29.5,10 -58.5,19.9 19.7,-6.7 35.2,35 13.3,-15.6 3.1,-0.1 14.7,14.3 -11.7,-19 0.7,-3.6 17.7,-13.6 42,28 -2,37 7.8,-21.1 3.3,-1.7 21.7,5.6 -16.6,-8.9 -4.4,-27.4 13.1,-13.5 -19.8,-5.3 -16,-30 6.8,-19.3 48.4,-13.2 19.2,14.4 1.1,4.1 -9.9,21.9 25.5,60.4 -5.1,-20.4 18.7,-30.8 20.5,-4.8 -8.4,-18.4 13.1,-30.5 19.1,-6.5 -17.7,6.7 -2.2,-1.4 -2.1,-18.8 34.2,-29.7 21.1,-14 4.5,0.2 19.7,15.9 1,-25.8 48.2,36.3 -28.9,30.2 20.3,4.9 1.6,2.8 -5.7,20.1 20.7,17 1.5,4.8 -8,25.7 14.3,12.7 -1.6,28.9 -15.7,11 -17.6,11.9 -3.2,-0.6 -12,-17.6 5,-33.1 -18.5,-20.8 -7.4,-34.1 1.9,24.8 -2.3,3.7 -23.3,8.7 16.7,9.1 4.6,28.3 -12.9,14 5.5,19.1 -1.6,2.4 -19.6,2.5 8.8,18 -12.4,30 -19,6.5 -15.8,10.3 -26.3,-9.3 -5.8,-18 -3.2,19.4 -26.6,16.1 -18.6,-6.3 14.8,12.8 -0.3,31.1 -15.1,12.6 25.9,-5.1 4.5,1.9 14,22.4 19.8,-2.2 23.3,21.6 -0.6,19.8 50.6,-27.9 42.2,-23.6 50.4,25.8 -10.1,20.5 -38.9,16.6 -21.8,-7.1 -4.1,24.7 -3.3,3.1 -24.8,3 44.5,-2.6 71.2,28.9 -24,51.2 -44.6,24.3 39.7,43.6 8.3,27.5 -12.3,18.3 -3.5,0.9 -19.4,-10.8 -10.2,24.3 -4,2.6 -26.4,-1 -23.4,7.4 -4.1,-1.5 -13.1,-20.8 -12.3,15.3 -2.8,0.1 -12.9,-14.8 -18.8,7.4 -29.7,-14.9 -5.4,-19.4 23.8,-35.3 9.4,-22 3.6,-2 23.5,4.4 6.6,-21.6 3.2,-2 22.65,4.25 z"
       id="coupes_001"
       stroke="#ff0000"
       stroke-width="1.27"
       sodipodi:nodetypes="cccccccccccccccccccccccccccccccccccccccccccccccccccccccccccccccccccccccccccccccccccccccccccccccccccccccccccccccccccccccccccccccccccccccccccccccccccccccccccccccccccccccccccccccccccccccccccc" />
    <path
       d="m 305.8,284.2 70.5,-37.5 m 0,0 -22.6,54.5 m -55.8,-88.9 78.4,34.4 m -70.5,37.5 -7.9,-71.9 m 94.1,10.4 -15.7,24 m -78.4,-34.4 94.1,10.4 m -8.4,-51.4 8.4,51.4 m -94.1,-10.4 34.1,-56 m 0,0 23.8,-55.4 m 0,0 27.8,70.4 M 355.8,100.9 368,57.7 m 0,0 39.3,76.4 M 368,57.7 433.6,100.5 M 368,57.7 l 45.3,2.1 m 0,0 20.3,40.7 m -20.3,-40.7 49.2,10.5 m -12.7,58 -35.1,39.9 m 49.3,7.6 -49.3,-7.6 m 49.3,7.6 -30.8,13.2 m 27.8,39.4 -32.8,-6.3 m -72.4,-121.2 -22,-13.5 m -83.3,141.7 47.4,-16.8 m -80.2,34 32.8,-17.2 m 55.3,55.1 -88.1,-37.9 m 39.7,67.1 -39.7,-67.1 m -5.8,96.3 5.8,-96.3 m -62,2.2 62,-2.2 m -46.7,-28.8 46.7,28.8 m -5.8,96.3 -65.1,-19.5 m 8.9,-74.6 -15.8,-29.6 m 0,0 31.1,-1.4 m 40.9,125.1 0.4,44.8 m 0,0 -73.5,-26.1 m 73.5,26.1 -45.9,5.1 m 38.2,18.7 -38.2,-18.7 m -10.7,-144 -58.7,1.2 m -12,-59.1 54.9,28.3 M 30.4,212.8 85,190.6 m 12,59.1 -66.6,-36.9 m 0,0 19.4,-39.5 m 0,0 35.2,17.3 m 171.8,179.3 -44.9,-27.3 m 39.4,71.7 -38.8,-26.9 m 44.3,-17.5 27.3,62.9 m 0,0 -32.8,-18.5 m 49.9,-25.2 -17.1,43.7 m -27.3,-62.9 44.4,19.2 m 0,0 42.5,39.2 m 0,0 -59.6,4.5 M 343.7,428.3 285,478 m 0,0 -0.9,-45.2 m 59.6,-4.5 -3,51.2 m 0,0 L 285,478 m 2.9,65.3 L 285,478 m -31.4,50 31.4,-50 m -53.1,1.1 53.1,-1.1 m -72.9,48.9 19.8,-47.8 M 103.2,308.4 30.4,212.8 m 39.9,110 -50.6,-67.2 m 97.9,-132 -32.6,67 m 71,-105.9 17,76 m -17,-76 30.2,-22.4 m 0,0 -13.2,98.4 m 13.2,-98.4 17.5,78 m -17.5,-78 23.5,16.4 M 186.2,62.3 214.7,48.5 m 0,0 -5,30.2 m 5,-30.2 38,56.2 m -38,-56.2 38,-3 m 0,0 31.7,64.7 m 14.8,-36.1 -14.8,36.1 m -31.7,-64.7 46.5,28.6 m -48.7,155 -7.9,-49.8 m 0,0 55.3,33 m -84.3,-87.6 58.8,27.2 m 71.3,276.4 40.2,35.1 m 0,0 -43.2,16.1 m 43.2,-16.1 17.7,50.6 m 0,0 -60.9,-34.5 m 87.7,-18.7 47.2,80.1 m 0,0 -74,-26.9 M 431,565.2 401.6,514 m -27.8,41.4 -33.1,-75.9 m 103.1,165.2 -70.7,-89.8 m 70.7,89.8 -40.6,25.9 m 0,0 -30.1,-115.7 m 30.1,115.7 -40.6,-14.9 m 0,0 10.5,-100.8 M 362.6,655.7 341,574.5 m 21.6,81.2 -28,0.6 m 0,0 6.4,-81.8 m -6.4,81.8 -30.1,-62.2 m 111.6,-161.5 -32.2,30.8 m -40.2,-35.1 72.4,4.3 m -21.8,-32.2 21.8,32.2 m 70.8,-30 -70.8,30 m -21.8,-32.2 92.6,2.2 m -16.2,206.2 -26.9,35.9 m 35.2,-8.4 -35.2,8.4"
       id="plisM_001"
       stroke="#a52a2a"
       stroke-dasharray="4" />
    <path
       d="m 353.7,301.2 -47.9,-17 m -7.9,-71.9 85.7,-41 m -51.6,-15 51.6,15 m -27.8,-70.4 51.5,33.2 m 0,0 -23.7,37.2 m 50,-70.8 -26.3,33.6 m 26.3,-33.6 16.2,27.8 m 0,0 -42.5,5.8 m 42.5,-5.8 14.2,47.5 m 0,0 -3,52.6 m 0,0 -27.8,-39.4 m -127.4,95.2 -55.3,-55.1 m 55.3,55.1 -48.4,29.2 m 0,0 -45.5,29.2 m 0,0 -56.2,-94.1 m 0,0 15.3,-31 m 0,0 48.7,-8.2 m -48.7,8.2 6.7,-36.2 m 34.6,206.1 -65.5,-64.3 m 19.6,69.4 -27.6,-31.2 M 97,249.7 139.9,218.9 M 97,249.7 85,190.6 m 172.4,122.8 -0.6,56.5 m 0,0 -44.3,17.5 m 44.3,-17.5 -5.5,44.4 M 253.6,528 231.9,479.1 M 103.2,308.4 70.3,322.8 m 0,0 -39.9,-110 m 87.2,-89.2 25.9,47.1 M 117.6,123.6 173,160.7 M 212.1,526.9 195,508.6 m 57.7,-403.9 -43,-26 m 43,-33.2 v 59.2 m -10.1,74.6 29.8,-27.4 m -29.8,27.4 -29,-54.6 m 48.4,-13.2 10.4,40.4 m 156,308.9 -26.8,53.2 m 29.4,51.2 -57.9,-10.3 m 0,0 28.5,-40.9 m 29.4,51.2 12.8,79.5 M 341,574.5 373.1,554.9 m -68.6,39.2 36.5,-19.6 m -6.4,81.8 -53.9,-26.9 m -177.5,-321 -16.3,49.7"
       id="plisV_001"
       stroke="#008000"
       stroke-dasharray="4, 1, 1, 1"
       stroke-width="1.27" />
    <path
       d="m 327.8,290.7 4,4 m 0,-4 -4,4 m 10.9,-104.9 4,4 m 0,-4 -4,4 m 17.1,-32 4,4 m 0,-4 -4,4 m 23.7,-50.3 4,4 m 0,-4 -4,4 m 13.9,31.2 4,4 m 0,-4 -4,4 m 25.1,-39.4 4,4 m 0,-4 -4,4 m 21.2,-6.9 4,4 m 0,-4 -4,4 m -13.2,12.8 4,4 m 0,-4 -4,4 m 28.4,16.8 4,4 m 0,-4 -4,4 m 5.6,46.1 4,4 m 0,-4 -4,4 m -15.4,2.6 4,4 m 0,-4 -4,4 m -168.9,44 4,4 m 0,-4 -4,4 m 3.4,38.1 4,4 m 0,-4 -4,4 m -47,25.2 4,4 m 0,-4 -4,4 m -50.8,-36.4 4,4 m 0,-4 -4,4 m -20.4,-66.6 4,4 m 0,-4 -4,4 m 32,-23.6 4,4 m 0,-4 -4,4 m -21,-18 4,4 m 0,-4 -4,4 m 5.2,151.8 4,4 m 0,-4 -4,4 m -27,17.7 4,4 m 0,-4 -4,4 m -34.1,-146.6 4,4 m 0,-4 -4,4 M 89,218.1 l 4,4 m 0,-4 -4,4 m 166.1,117.5 4,4 m 0,-4 -4,4 m -22.4,33 4,4 m 0,-4 -4,4 m 19.4,9.5 4,4 m 0,-4 -4,4 m -11.4,107.5 4,4 m 0,-4 -4,4 m -156,-192 4,4 m 0,-4 -4,4 m -36.4,-51.8 4,4 m 0,-4 -4,4 m 80.3,-124.6 4,4 m 0,-4 -4,4 m 14.7,-9.1 4,4 m 0,-4 -4,4 m 58.3,371.7 4,4 m 0,-4 -4,4 m 27.6,-430.1 4,4 m 0,-4 -4,4 m 21.5,-20.6 4,4 m 0,-4 -4,4 m 4.8,86.5 4,4 m 0,-4 -4,4 m -29.4,-17.6 4,4 m 0,-4 -4,4 m 39.1,-24.3 4,4 m 0,-4 -4,4 m 147.8,351.7 4,4 m 0,-4 -4,4 m -13,68.7 4,4 m 0,-4 -4,4 m -14.7,-29.7 4,4 m 0,-4 -4,4 m 50.1,66.6 4,4 m 0,-4 -4,4 m -80.3,-44.3 4,4 m 0,-4 -4,4 m -34.3,15.6 4,4 m 0,-4 -4,4 m -15.1,54.5 4,4 m 0,-4 -4,4 M 93,331.2 l 4,4 m 0,-4 -4,4"
       id="marqueV_001"
       stroke="#008000" />
    <path
       d="m 258,272.4 1.5,-0.7 2.3,-2.3 v 15.8"
       id="titre_1"
       stroke="#4b0082" />
  </g>
  <g
     id="page_002">
    <path
       d="m 849.2,437.9 -1.6,-2.9 3,0.5 -0.5,-0.8 V 434 l 0.1,-0.4 0.7,-0.7 0.5,-0.3 1,-0.1 0.8,0.2 0.7,0.6 0.4,0.8 0.2,1 -0.2,0.4 -0.4,0.5 m -8.5,-5 5.1,0.7 -2.2,-4 m -2.9,3.3 5.5,-3 m -2.2,15.9 -0.2,-0.7 -0.7,-1 6.2,1.1 M 838.7,472 v 0.9 l 0.7,0.9 1.3,0.8 0.9,0.3 1.5,0.2 1,-0.3 0.6,-0.8 0.2,-0.6 v -0.9 l -0.7,-0.9 -1.3,-0.7 -0.8,-0.3 -1.6,-0.2 -1,0.3 -0.6,0.7 -0.1,0.4 m -26.7,12 0.1,-0.3 0.4,-0.5 0.3,-0.2 0.7,-0.2 1.2,0.2 0.5,0.4 0.2,0.3 0.2,0.7 -0.1,0.6 -0.4,0.5 -0.7,0.8 -3.5,2.4 4.1,0.7 m 2.5,-4.4 0.1,-0.3 0.4,-0.5 0.3,-0.3 0.6,-0.2 1.2,0.2 0.6,0.4 0.2,0.4 0.2,0.6 -0.1,0.6 -0.4,0.6 -0.7,0.7 -3.5,2.5 4.1,0.7 m -104,-60.3 0.2,-0.1 0.7,0.1 0.4,0.2 0.4,0.5 0.4,1.2 -0.2,0.6 -0.2,0.4 -0.5,0.4 -0.5,0.2 -0.7,-0.1 -1,-0.3 -3.7,-2.1 1.1,4 m 7.4,2.9 -0.9,-2.9 -2.6,0.4 0.3,0.2 0.6,0.8 0.2,0.9 v 0.9 l -0.4,0.8 -0.8,0.5 -0.6,0.2 -0.9,-0.1 -0.8,-0.4 -0.5,-0.8 -0.3,-0.8 0.1,-1 0.2,-0.4 0.5,-0.4 m 62.4,106.6 -0.3,-0.1 -0.6,-0.4 -0.2,-0.3 -0.2,-0.6 0.2,-1.2 0.4,-0.6 0.3,-0.2 0.6,-0.2 0.6,0.1 0.6,0.3 0.8,0.8 2.5,3.4 0.6,-4.2 m -4.7,-1.8 -0.2,-0.6 -0.7,-1 6.2,0.9 M 694.2,349.4 v -0.3 l 0.2,-0.6 0.3,-0.4 0.6,-0.3 1.2,-0.1 0.6,0.3 0.3,0.3 0.3,0.5 0.1,0.6 -0.3,0.7 -0.5,0.9 -2.8,3.2 4.2,-0.3 m 93.2,-45.5 0.4,-3.3 2.2,2.2 0.1,-0.9 0.4,-0.6 0.3,-0.2 0.9,-0.2 0.6,0.1 0.9,0.4 0.5,0.7 0.2,1 -0.2,0.9 -0.4,0.8 -0.4,0.2 -0.6,0.3 m -3.7,-9.6 -0.4,2.9 2.6,0.7 -0.3,-0.3 -0.1,-1 0.1,-0.8 0.4,-0.9 0.7,-0.5 0.9,-0.2 0.6,0.1 0.9,0.5 0.5,0.7 0.2,0.9 -0.2,0.9 -0.4,0.8 -0.4,0.3 -0.6,0.2 m -12.2,-63 -2.5,-2.3 3,-0.5 -0.7,-0.6 -0.2,-0.7 V 237 l 0.3,-0.9 0.5,-0.4 0.8,-0.5 h 0.8 l 0.9,0.4 0.7,0.6 0.4,0.8 v 0.5 l -0.1,0.6 m -9.5,-3 -0.2,0.7 0.5,0.8 0.4,0.4 0.9,0.4 1.1,-0.2 1.2,-1 1,-1.1 0.6,-1 v -0.9 l -0.5,-0.8 -0.2,-0.2 -0.9,-0.4 h -0.8 l -0.9,0.5 -0.2,0.2 -0.4,0.9 0.1,0.8 0.4,0.8 0.3,0.3 0.8,0.3 h 0.9 l 0.8,-0.5 m -95,-30.4 2.4,1.9 1.9,-2 -0.5,0.1 -0.9,-0.4 -0.7,-0.5 -0.5,-0.8 -0.1,-0.8 0.3,-0.9 0.4,-0.5 0.8,-0.5 0.8,-0.1 0.9,0.3 0.7,0.5 0.5,0.8 0.1,0.4 -0.1,0.7 m -7.9,0.4 -2.6,-2.1 2.9,-0.7 -0.7,-0.6 -0.3,-0.6 v -0.4 l 0.3,-0.9 0.4,-0.5 0.8,-0.5 0.8,-0.1 0.9,0.3 0.7,0.6 0.5,0.7 0.1,0.5 -0.1,0.6 m -24.6,4.6 -1.7,-4.9 -2.6,3.7 m 4.3,1.2 -5.2,-3.7 m 3.3,6.3 -1.9,2.7 -0.9,-2.9 -0.6,0.8 -0.5,0.3 -0.5,0.1 -0.9,-0.3 -0.5,-0.4 -0.5,-0.7 -0.2,-0.9 0.3,-0.9 0.5,-0.7 0.8,-0.6 h 0.4 l 0.7,0.1 m 18.2,149.4 0.5,-0.5 0.6,-1.1 1.9,6 m 3,-7.8 -0.9,6.9 m -3.1,-5.6 4,-1.3 m -28.2,9.2 3.1,-1 -0.9,2.8 0.8,-0.3 0.7,0.1 0.4,0.2 0.5,0.8 0.2,0.5 v 1 l -0.4,0.7 -0.7,0.6 -0.9,0.3 h -0.9 l -0.4,-0.2 -0.5,-0.5 m -40.6,-32.8 0.6,0.3 1.3,0.1 -4.8,4 m 7.4,0 0.2,-0.6 -0.3,-0.9 -0.4,-0.4 -0.8,-0.5 -1.1,0.1 -1.3,0.7 -1.2,1 -0.7,1 -0.1,0.9 0.4,0.8 0.2,0.3 0.8,0.5 h 0.8 l 0.9,-0.3 0.2,-0.2 0.5,-0.8 0.1,-0.9 -0.4,-0.8 -0.1,-0.3 -0.9,-0.5 h -0.8 l -0.9,0.3 m 88.8,50.9 0.9,3.2 -2.8,-1.1 0.2,0.9 -0.1,0.6 -0.2,0.4 -0.8,0.5 -0.6,0.2 -1,-0.1 -0.7,-0.4 -0.5,-0.8 -0.3,-0.8 0.1,-1 0.2,-0.4 0.5,-0.4 m -2.6,-25.8 0.5,0.5 1,0.8 -6.2,1.2 m 7.4,3.8 -6.7,-1.7 m 5.9,-2.4 0.8,4.1 m 0.7,-3.4 0.1,0.3 -0.1,0.7 -0.1,0.3 -0.5,0.5 -1.1,0.5 -0.7,-0.1 -0.4,-0.2 -0.5,-0.5 -0.2,-0.5 0.1,-0.7 0.3,-1 1.7,-3.9 -3.9,1.5 m -77.5,-133.4 0.3,0.6 0.9,0.4 h 0.6 l 0.9,-0.2 0.7,-0.9 0.4,-1.4 0.1,-1.5 -0.2,-1.2 -0.5,-0.7 -0.9,-0.4 h -0.3 l -0.9,0.2 -0.7,0.6 -0.3,0.8 -0.1,0.3 0.3,1 0.5,0.6 0.9,0.4 h 0.3 l 0.9,-0.2 0.6,-0.5 0.4,-0.9 m -6,3.7 -3.2,-0.3 2,-2.3 h -0.9 l -0.6,-0.4 -0.3,-0.3 -0.2,-0.9 0.1,-0.6 0.3,-0.9 0.7,-0.5 0.9,-0.3 0.9,0.1 0.9,0.4 0.2,0.3 0.3,0.6 m -44.5,54.1 0.3,-0.6 -0.3,-0.9 -0.4,-0.4 -0.8,-0.6 -1.1,0.1 -1.4,0.8 -1.1,0.9 -0.8,1 -0.1,0.8 0.4,0.9 0.2,0.2 0.8,0.6 h 0.8 l 0.9,-0.3 0.2,-0.2 0.5,-0.8 0.1,-0.8 -0.3,-0.9 -0.2,-0.2 -0.8,-0.5 -0.8,-0.1 -0.9,0.3 m 8.4,3.7 -5.1,0.3 2.8,3.5 m 2.3,-3.8 -4.9,4 m 7,-42.8 -0.2,0.7 0.1,1.3 -4.7,-4.3 m -0.2,6.7 -0.4,-0.9 -0.1,-0.8 0.4,-0.9 0.2,-0.2 0.9,-0.5 h 0.8 l 0.9,0.4 0.2,0.2 0.5,0.8 v 0.9 l -0.4,0.9 -0.2,0.2 -0.8,0.4 -0.9,0.1 -1.1,-0.6 -1.1,-1.1 -0.9,-1.2 -0.2,-1.1 0.4,-0.8 0.4,-0.5 0.8,-0.4 0.7,0.2 m 266.6,83.9 -2.4,2.3 -0.3,-3 -0.7,0.6 -0.6,0.2 h -0.4 l -0.9,-0.5 -0.4,-0.4 -0.4,-0.9 v -0.8 l 0.5,-0.8 0.6,-0.7 0.9,-0.4 0.4,0.1 0.7,0.2 m -3,9.8 2.1,-2 -1.6,-2.2 v 0.4 l -0.5,0.9 -0.6,0.6 -0.9,0.4 h -0.8 l -0.9,-0.5 -0.4,-0.4 -0.4,-0.9 0.1,-0.8 0.4,-0.9 0.7,-0.6 0.8,-0.4 h 0.4 l 0.7,0.2 m 24.7,96.1 2.2,2.5 -3,0.2 0.6,0.7 0.2,0.6 -0.1,0.5 -0.4,0.8 -0.5,0.4 -0.9,0.4 -0.8,-0.1 -0.8,-0.5 -0.6,-0.6 -0.4,-0.9 v -0.4 l 0.3,-0.6 m 9.5,2.8 -5.2,0.6 3.1,3.4 m 2.1,-4 -4.7,4.2 m 40,-107.4 3.2,6.2 m -5.7,-2.9 2.5,-3.3 m 3.6,-3.3 -0.7,-0.1 -0.8,0.5 -0.3,0.5 -0.3,0.9 0.3,1 1,1.2 1.2,0.9 1.2,0.5 0.8,-0.2 0.8,-0.5 0.2,-0.2 0.3,-0.9 -0.1,-0.9 -0.6,-0.8 -0.2,-0.1 -0.9,-0.3 -0.8,0.1 -0.8,0.5 -0.2,0.3 -0.3,0.9 0.1,0.8 0.5,0.8 m 4.8,-29.6 4.7,2.2 -0.8,-4.4 m -3.9,2.2 6.2,-1.1 m -6.3,-5.3 -0.6,0.4 -0.1,1 0.1,0.6 0.4,0.8 1,0.4 1.6,0.1 1.4,-0.3 1.2,-0.5 0.5,-0.7 0.1,-0.9 -0.1,-0.3 -0.4,-0.9 -0.7,-0.4 -0.9,-0.2 -0.3,0.1 -0.9,0.4 -0.5,0.7 -0.1,1 v 0.3 l 0.5,0.8 0.7,0.5 0.9,0.1 m -41.6,-41.1 0.8,3.2 -2.7,-1.1 0.2,0.9 -0.1,0.6 -0.2,0.4 -0.8,0.5 -0.6,0.2 -1,-0.1 -0.7,-0.4 -0.5,-0.8 -0.3,-0.8 0.1,-1 0.2,-0.4 0.5,-0.4 m 6.4,7.5 0.5,-0.4 0.1,-1 -0.2,-0.6 -0.5,-0.8 -1,-0.3 -1.6,0.1 -1.4,0.4 -1.1,0.6 -0.4,0.8 -0.1,0.9 0.1,0.3 0.5,0.8 0.8,0.4 0.9,0.1 0.3,-0.1 0.8,-0.6 0.4,-0.7 0.1,-0.9 -0.1,-0.3 -0.5,-0.8 -0.8,-0.4 -0.9,-0.1 m 9.5,-36.2 0.6,0.2 0.9,-0.4 0.4,-0.4 0.5,-0.8 -0.2,-1.1 -0.8,-1.3 -1,-1.1 -1,-0.7 H 875 l -0.9,0.4 -0.2,0.2 -0.4,0.8 -0.1,0.9 0.4,0.8 0.2,0.2 0.8,0.5 h 0.9 l 0.9,-0.3 0.2,-0.2 0.4,-0.9 0.1,-0.8 -0.4,-0.9 m -5.2,7.6 -0.4,-0.9 0.1,-0.8 0.4,-0.8 0.2,-0.2 0.9,-0.4 h 0.9 l 0.8,0.5 0.2,0.2 0.4,0.9 -0.1,0.8 -0.4,0.8 -0.2,0.2 -0.9,0.4 h -0.9 l -1,-0.7 -1,-1.1 -0.8,-1.3 -0.2,-1.1 0.5,-0.8 0.4,-0.4 0.9,-0.4 0.6,0.2 m 19.9,24.1 5,1.4 -1.6,-4.2 m -3.4,2.8 5.9,-2.2 m -8,-3.2 5,1.3 -1.6,-4.2 m -3.4,2.9 5.9,-2.2 m -209.9,331.7 0.5,-0.4 0.3,-0.9 v -0.6 l -0.4,-0.9 -0.9,-0.5 -1.5,-0.2 -1.5,0.1 -1.2,0.3 -0.6,0.7 -0.2,0.9 v 0.3 l 0.3,0.9 0.7,0.5 0.9,0.3 h 0.3 l 0.9,-0.4 0.5,-0.6 0.3,-0.9 v -0.3 l -0.4,-0.9 -0.6,-0.6 -0.9,-0.2 m 4.7,7.9 -4.4,-2.7 0.3,4.4 m 4.1,-1.7 -6.3,0.4 m 48.9,52.7 -2.8,1.1 0.8,2.6 0.1,-0.4 0.8,-0.6 0.8,-0.3 0.9,-0.1 0.8,0.3 0.6,0.8 0.3,0.5 v 1 l -0.3,0.7 -0.7,0.7 -0.9,0.3 h -0.9 l -0.4,-0.1 -0.5,-0.5 m 4.7,-7.4 -0.7,0.7 -0.2,1 0.3,1.5 0.3,0.9 0.8,1.2 0.9,0.6 h 1 l 0.5,-0.2 0.7,-0.6 0.3,-1.1 -0.3,-1.5 -0.3,-0.8 -0.9,-1.3 -0.9,-0.6 h -0.9 l -0.4,0.2 m -46.9,-13.5 0.3,0.1 0.6,0.3 0.3,0.3 0.2,0.6 v 1.2 l -0.4,0.6 -0.3,0.3 -0.6,0.3 -0.6,-0.1 -0.6,-0.3 -0.8,-0.7 -2.9,-3.1 -0.2,4.2 m 6.1,3.3 -0.2,-0.9 -0.9,-0.7 -1.5,-0.4 h -0.9 l -1.5,0.2 -0.9,0.5 -0.4,0.9 v 0.6 l 0.3,0.9 0.8,0.7 1.5,0.4 h 0.9 l 1.5,-0.2 0.9,-0.5 0.4,-0.9 v -0.5 m 10.9,8.9 -3.4,3.8 4.4,0.5 m -1,-4.3 -0.7,6.2 m 3.7,-4.3 v -0.3 l 0.4,-0.6 0.3,-0.2 0.7,-0.3 1.2,0.2 0.5,0.4 0.3,0.3 0.2,0.6 -0.1,0.6 -0.3,0.6 -0.8,0.8 -3.3,2.6 4.2,0.5 m 37.9,-431.3 -1.8,-6.7 m 5,4 -3.2,2.7 m -1.8,-0.4 -0.2,0.7 -0.1,1.2 -4.1,-4.8 m 18.3,0 6.7,1.8 m -6,2.3 -0.7,-4.1 m -0.6,-2.9 0.5,0.8 1,0.4 1.5,0.1 0.9,-0.2 1.4,-0.6 0.8,-0.7 0.1,-1 -0.1,-0.6 -0.5,-0.8 -1,-0.4 h -1.5 l -0.9,0.1 -1.4,0.6 -0.8,0.8 -0.1,0.9 0.1,0.4 m 22.7,435.4 -2.7,-1.2 -1.4,2.3 0.4,-0.1 0.9,0.1 0.9,0.3 0.7,0.7 0.3,0.8 -0.1,0.9 -0.3,0.6 -0.6,0.7 -0.8,0.3 -1,-0.1 -0.8,-0.4 -0.7,-0.6 -0.1,-0.4 -0.1,-0.7 m 9.9,-0.2 v -0.7 l -0.7,-0.6 -0.5,-0.3 -1,-0.1 -0.9,0.6 -0.9,1.3 -0.6,1.3 -0.2,1.3 0.3,0.8 0.7,0.6 0.3,0.1 0.9,0.1 0.8,-0.3 0.6,-0.7 0.2,-0.3 0.1,-0.9 -0.4,-0.8 -0.7,-0.6 -0.2,-0.2 -1,-0.1 -0.8,0.3 -0.6,0.7 m 31.8,-35.9 v 0.3 l -0.3,0.6 -0.3,0.3 -0.6,0.3 -1.2,-0.1 -0.6,-0.3 -0.3,-0.3 -0.3,-0.6 v -0.6 l 0.3,-0.6 0.7,-0.9 3.1,-2.9 -4.2,-0.1 m -2,6.2 -3.3,-0.1 1.9,-2.3 -0.9,-0.1 -0.6,-0.3 -0.3,-0.3 -0.2,-0.9 v -0.6 l 0.3,-0.9 0.6,-0.6 0.9,-0.2 h 0.9 l 0.9,0.3 0.3,0.3 0.3,0.6 m 12.3,40.7 -1,5 4.1,-1.8 m -3.1,-3.2 2.6,5.8 m 3.6,-8.4 -0.2,6.9 m -3.6,-5.2 3.8,-1.7 m 6,-16.9 6.8,1.5 m -5.9,2.6 -0.9,-4.1 m -0.2,-4.8 -0.5,0.4 -0.1,1 0.1,0.5 0.5,0.9 1,0.3 h 1.6 l 1.4,-0.4 1.1,-0.5 0.5,-0.7 v -1 -0.3 l -0.5,-0.8 -0.7,-0.4 -1,-0.1 h -0.3 l -0.8,0.5 -0.4,0.8 -0.1,0.9 0.1,0.3 0.4,0.8 0.8,0.5 h 0.9 m 86.7,-248.3 -0.1,0.3 -0.6,0.4 -0.4,0.1 h -0.7 l -1,-0.6 -0.4,-0.5 -0.1,-0.4 v -0.7 l 0.3,-0.5 0.5,-0.4 1,-0.5 4,-1.3 -3.7,-1.9 m -4.5,4.7 -2.9,-1.6 2.7,-1.2 -0.8,-0.5 -0.3,-0.5 -0.2,-0.4 0.2,-0.9 0.3,-0.6 0.7,-0.6 0.8,-0.3 0.9,0.2 0.8,0.4 0.7,0.7 0.1,0.4 v 0.7 m -46.1,73.9 0.6,0.1 1.3,-0.2 -3.9,5 m 28.3,12.5 -1,-0.3 -1,0.4 -1.1,1.1 -0.5,0.7 -0.6,1.4 v 1.1 l 0.5,0.8 0.5,0.3 0.9,0.3 1,-0.4 1.1,-1.1 0.6,-0.7 0.6,-1.4 v -1.1 l -0.6,-0.7 -0.3,-0.3 m 48,-24.2 -0.3,0.1 -0.7,-0.2 -0.3,-0.3 -0.4,-0.5 -0.2,-1.2 0.2,-0.6 0.2,-0.4 0.6,-0.4 0.6,-0.1 0.6,0.2 1,0.5 3.4,2.4 -0.6,-4.1 m -5,-0.3 -0.4,-0.5 -1.1,-0.7 6.2,-1.1 m -18.3,45.2 v -0.3 l 0.3,-0.6 0.3,-0.3 0.7,-0.3 h 1.2 l 0.5,0.3 0.3,0.3 0.3,0.7 v 0.6 l -0.3,0.5 -0.6,0.9 -3.1,3 4.2,0.1 m 1.8,-4.8 V 464 l 0.3,-0.6 0.3,-0.3 0.6,-0.3 h 1.2 l 0.6,0.3 0.3,0.3 0.3,0.7 v 0.6 l -0.3,0.5 -0.6,0.9 -3.1,3 4.2,0.1 m -263.5,21.9 0.4,0.6 1,0.7 -6.2,1.1 m 6.4,3.7 0.5,-0.4 0.2,-0.9 -0.1,-0.6 -0.5,-0.9 -1,-0.4 h -1.5 l -1.5,0.2 -1.1,0.5 -0.5,0.7 -0.2,1 0.1,0.3 0.4,0.8 0.7,0.5 1,0.1 h 0.3 l 0.8,-0.5 0.5,-0.7 0.1,-0.9 v -0.3 l -0.5,-0.8 -0.7,-0.5 -0.9,-0.2 M 694,466.3 v 0.2 l -0.5,0.6 -0.3,0.2 -0.7,0.2 -1.1,-0.3 -0.6,-0.4 -0.2,-0.4 -0.2,-0.6 0.2,-0.6 0.4,-0.5 0.8,-0.8 3.5,-2.3 -4.1,-0.9 m -5.9,5.2 2.9,0.6 0.9,-2.5 -0.4,0.2 -0.9,0.1 -0.9,-0.2 -0.8,-0.5 -0.5,-0.7 -0.1,-0.9 0.1,-0.6 0.5,-0.8 0.7,-0.5 1,-0.1 0.8,0.2 0.9,0.5 0.2,0.3 0.2,0.7 m 219.4,-349.4 -0.5,0.3 -0.9,1 -0.4,-6.3 m -4.8,4.8 0.3,-1 0.5,-0.6 0.9,-0.4 h 0.3 l 0.9,0.2 0.7,0.6 0.3,0.9 0.1,0.3 -0.3,0.9 -0.5,0.6 -0.9,0.4 h -0.3 l -0.9,-0.2 -0.7,-0.6 -0.4,-1.1 -0.1,-1.5 0.2,-1.6 0.6,-0.9 0.8,-0.4 h 0.6 l 1,0.2 0.3,0.6 m 21.1,17 h -0.3 l -0.6,-0.3 -0.3,-0.3 -0.3,-0.6 0.1,-1.2 0.3,-0.6 0.3,-0.3 0.6,-0.3 h 0.6 l 0.6,0.4 0.9,0.6 2.8,3.1 0.2,-4.2 m -6.1,-3.2 0.2,0.9 0.9,0.7 1.5,0.3 0.9,0.1 1.5,-0.3 0.9,-0.5 0.4,-0.9 v -0.6 l -0.3,-0.9 -0.8,-0.7 -1.5,-0.3 -0.9,-0.1 -1.5,0.3 -1,0.5 -0.3,0.9 v 0.5 m -18.6,32.3 0.3,-0.6 0.1,-1.3 4,4.9 m -2.1,-6.7 -0.5,0.8 0.2,0.6 0.3,0.5 0.7,0.3 0.6,-0.2 1.1,-0.5 0.9,-0.4 0.9,0.1 0.6,0.3 0.5,0.7 0.2,0.6 v 0.5 l -0.6,0.8 -0.9,0.7 -0.9,0.4 -0.4,-0.1 -0.6,-0.2 -0.6,-0.7 -0.1,-0.7 0.1,-0.8 0.5,-0.8 0.7,-1 0.3,-0.6 -0.2,-0.7 -0.4,-0.5 -0.6,-0.2 -0.9,0.3 -1,0.9 m -48.4,-42.5 -0.7,-0.1 -1.3,0.1 4.1,-4.8 m -6.4,3 0.8,0.4 1.1,-0.3 1.2,-1 0.6,-0.7 0.7,-1.3 0.1,-1.1 -0.5,-0.8 -0.4,-0.4 -0.9,-0.3 -1,0.3 -1.2,0.9 -0.6,0.7 -0.8,1.3 -0.1,1.1 0.5,0.8 0.3,0.3 m 18.5,70 -2.5,1.6 1.2,2.5 0.1,-0.4 0.6,-0.8 0.7,-0.5 1,-0.2 0.8,0.2 0.7,0.5 0.4,0.5 0.2,1 -0.2,0.8 -0.6,0.7 -0.7,0.5 -0.9,0.3 -0.5,-0.1 -0.5,-0.4 m 2.9,-8 -0.6,0.8 0.1,0.6 0.3,0.5 0.6,0.4 0.7,-0.1 1.1,-0.4 1,-0.2 0.8,0.1 0.6,0.4 0.5,0.7 v 0.7 0.4 l -0.6,0.8 -1,0.6 -1,0.2 H 880 l -0.6,-0.4 -0.4,-0.7 -0.1,-0.7 0.2,-0.8 0.5,-0.8 0.9,-0.9 0.3,-0.6 V 171 l -0.4,-0.5 -0.6,-0.4 -0.9,0.3 -1.1,0.7 m -21.6,-9.6 -1.8,-2.4 -2.4,1.3 0.5,0.1 0.7,0.6 0.6,0.7 0.3,0.9 -0.2,0.8 -0.5,0.8 -0.5,0.4 -0.9,0.2 -0.8,-0.1 -0.8,-0.5 -0.5,-0.8 -0.3,-0.9 v -0.4 l 0.3,-0.6 m 7.9,5.7 -0.9,0.3 -0.8,-0.1 -0.8,-0.6 -0.2,-0.2 -0.3,-0.9 0.2,-0.9 0.5,-0.7 0.3,-0.2 0.9,-0.3 0.8,0.1 0.8,0.6 0.2,0.2 0.2,0.9 -0.1,0.9 -0.8,0.9 -1.2,0.9 -1.4,0.6 -1.1,0.1 -0.7,-0.6 -0.4,-0.4 -0.3,-0.9 0.3,-0.6 m -32.2,-74.3 0.3,0.6 0.8,0.3 0.6,0.1 1,-0.3 0.6,-0.9 0.4,-1.4 V 89 l -0.2,-1.2 -0.6,-0.7 -0.8,-0.3 h -0.3 l -1,0.2 -0.6,0.6 -0.3,0.9 v 0.3 l 0.2,0.9 0.6,0.6 0.9,0.4 h 0.3 l 0.9,-0.3 0.6,-0.6 0.3,-0.8 m -8.8,3.7 3,0.2 0.4,-2.7 -0.3,0.3 -0.9,0.2 H 817 l -0.9,-0.3 -0.5,-0.7 -0.3,-0.9 v -0.6 l 0.4,-0.9 0.6,-0.5 0.9,-0.3 h 0.9 l 0.9,0.4 0.3,0.3 0.3,0.6 m -8,51.9 -0.3,-0.6 -0.9,-0.3 -0.6,0.1 -0.9,0.3 -0.6,0.9 -0.3,1.5 v 1.5 l 0.4,1.2 0.6,0.6 0.9,0.2 h 0.3 l 0.9,-0.3 0.6,-0.6 0.3,-0.9 -0.1,-0.3 -0.3,-0.9 -0.6,-0.6 -0.9,-0.3 -0.3,0.1 -0.9,0.3 -0.6,0.6 -0.3,0.9 m 5,-2.9 0.6,-0.3 0.8,-0.9 0.2,6.3 m -38.4,-14.6 h 0.7 l 1.2,-0.3 -3.2,5.4 m 4.8,-4.7 2.8,1.7 -2.7,1.1 0.7,0.5 0.4,0.6 0.1,0.4 -0.2,0.9 -0.3,0.5 -0.7,0.6 -0.8,0.2 -1,-0.2 -0.7,-0.4 -0.7,-0.7 -0.1,-0.4 0.1,-0.7 m -2.8,-48 -0.6,0.1 -1.1,0.7 1.2,-6.1 m -5.4,5.6 3.7,-3.6 -4.4,-0.8 m 0.7,4.4 1.2,-6.2 m -32.7,5.7 -0.6,0.4 -0.6,1.1 -1.5,-6.2 m -3.1,7.5 2.9,-0.7 -0.3,-2.7 -0.2,0.3 -0.8,0.5 -0.9,0.2 -0.9,-0.1 -0.8,-0.4 -0.5,-0.8 -0.1,-0.6 0.1,-0.9 0.4,-0.8 0.8,-0.5 0.9,-0.2 1,0.1 0.3,0.3 0.5,0.5 m 9.2,49 0.4,-0.6 0.3,-1.2 3.2,5.4 m -1.2,-5.2 -0.1,-0.2 -0.1,-0.7 0.1,-0.4 0.4,-0.6 1,-0.6 h 0.7 l 0.4,0.1 0.6,0.3 0.3,0.5 v 0.7 1.1 l -1,4.1 3.6,-2.2 m -46.1,-35.1 0.2,0.3 0.1,0.6 v 0.4 l -0.3,0.7 -1,0.7 -0.6,0.1 h -0.4 l -0.6,-0.3 -0.4,-0.5 -0.1,-0.6 -0.1,-1.1 0.5,-4.2 -3.3,2.5 m -0.4,7.2 0.6,0.3 0.9,-0.3 0.4,-0.4 0.6,-0.8 -0.1,-1 -0.7,-1.4 -0.9,-1.2 -1,-0.7 -0.9,-0.2 -0.8,0.4 -0.3,0.2 -0.5,0.7 -0.1,0.9 0.3,0.9 0.2,0.2 0.8,0.5 0.8,0.1 0.9,-0.3 0.3,-0.2 0.5,-0.8 0.1,-0.8 -0.3,-0.9 m 18,41 0.5,-0.4 0.8,-1 1,6.2 m 0.2,-5.2 0.6,-0.4 0.7,-1.1 1,6.3 m -50.2,3 -0.4,-0.5 -1,-0.2 -0.5,0.1 -0.9,0.5 -0.4,1 -0.1,1.5 0.3,1.5 0.5,1.1 0.7,0.5 0.9,0.1 h 0.3 l 0.9,-0.5 0.5,-0.7 0.1,-0.9 V 151 l -0.5,-0.8 -0.7,-0.5 -0.9,-0.2 -0.3,0.1 -0.9,0.4 -0.5,0.7 -0.1,1 m 7.8,-5.7 -3,0.6 0.2,2.7 0.2,-0.4 0.9,-0.4 0.9,-0.2 0.9,0.1 0.7,0.5 0.5,0.9 0.1,0.6 -0.2,0.9 -0.5,0.7 -0.8,0.4 -0.9,0.2 -0.9,-0.1 -0.4,-0.3 -0.4,-0.5 m -20.3,-47.2 -0.1,0.3 -0.4,0.4 -0.4,0.3 -0.6,0.1 -1.2,-0.3 -0.5,-0.5 -0.2,-0.4 -0.1,-0.6 0.1,-0.6 0.5,-0.5 0.8,-0.7 3.7,-2.1 -4,-1.1 m -6.7,4.6 4.6,-5.2 m -0.6,6.4 -4,-1.2 m -20.9,45.6 0.6,-0.2 1.1,-0.7 -1.2,6.2 m 5.4,-5.6 -3.7,3.5 4.4,0.9 m -0.7,-4.4 -1.2,6.2 m -37.7,-22.7 0.7,0.1 1.2,-0.2 -3.6,5.1 m 7.6,-2.5 -2.4,-1.8 -1.8,2 h 0.4 l 0.9,0.3 0.7,0.5 0.6,0.7 0.1,0.9 -0.3,0.9 -0.3,0.5 -0.8,0.5 -0.8,0.2 -0.9,-0.3 -0.8,-0.5 -0.5,-0.8 -0.1,-0.4 0.1,-0.7 m -28.2,-29.6 0.2,-0.2 0.7,-0.2 h 0.4 l 0.6,0.3 0.8,0.8 0.2,0.7 v 0.4 l -0.2,0.6 -0.5,0.4 -0.6,0.2 -1.1,0.2 -4.2,-0.2 2.8,3.1 m 7.2,-0.2 0.3,-0.6 -0.4,-0.9 -0.4,-0.4 -0.9,-0.5 -1,0.2 -1.3,0.8 -1.1,1 -0.7,1.1 v 0.8 l 0.3,0.9 0.2,0.2 0.9,0.5 h 0.8 l 0.9,-0.4 0.2,-0.2 0.5,-0.8 v -0.9 l -0.4,-0.8 -0.2,-0.3 -0.8,-0.4 -0.9,-0.1 -0.8,0.4 m 26.1,-11.8 v 0.3 l -0.1,0.6 -0.3,0.4 -0.5,0.4 -1.1,0.3 -0.7,-0.1 -0.3,-0.3 -0.5,-0.5 -0.1,-0.6 0.1,-0.6 0.4,-1 2.2,-3.6 -4.1,0.9 m -3.5,7.4 1.4,-6.9 m 2.6,5.9 -4,1"
       id="nums_002"
       stroke="#000000"
       stroke-width="1" />
    <path
       d="m 664.2,613.6 0.2,-3.5 15.8,-14.7 -15.7,-11.7 -1.7,-30.7 14.2,-13.4 -15.2,-87.2 16.1,-11.8 31.8,6.8 9.8,17.4 -16.2,-56.8 -10.2,-36.9 -2.1,-11 12.2,-4.5 -11.4,4.2 5.2,11.2 -6.8,-14.6 -0.2,15.8 -1.1,0.4 -9.4,-12.8 -11.7,19.7 -3.6,1.2 -21.1,-8.9 -24.3,-5.5 -31.4,-37.1 -1.5,-24.9 -35,-43.5 40.7,-43.7 52.5,4.6 28.5,-40.6 41.2,32.2 0.5,-20 24.8,-21 19.8,2.9 17.9,14.1 0.8,3.8 -11.6,19.7 42.5,39 -16.2,106.6 7.4,-27.6 43.1,-40.7 27.9,-5.8 -17.9,-8.5 -8.4,-30.6 11,-16.5 3.5,-23.5 3,-2.8 23.8,-1.5 20,10.6 14.5,38.6 -8.2,21.1 17.9,14.7 0.7,3.9 -11.7,19.9 -25.6,33.7 17.9,-7.4 26.5,14.1 3.7,19 17,102.4 -48,-0.9 -37.2,-26.2 -15.4,6.9 -1.4,-1.1 3.2,-16.6 -15,5.8 12.2,-4.7 -5.7,-10.5 6,11.1 -3,17.1 7.6,24.2 -1.5,4.4 -20.8,14.5 -23.9,11 -4.7,-0.8 -18.7,-18.5 11.3,25.3 -8.6,56.4 -18.3,20.8 54.5,1.8 18.9,15.1 1,4.1 -10.3,22 -38.3,16.6 -55,-24.5 -26,10.4 -42.9,-5.2 z M 865.9,188.7 835,146.6 l -44,0.8 -21.1,4.9 -3,-1.8 -5.8,-20.9 -3,19.3 -2.4,1.5 -18.5,-6.4 -12.4,17.3 -3.3,0.5 -17.3,-12.3 -10.8,17.1 -32.8,5.9 -16,-12.4 -19.4,11.5 -3.7,-0.7 -13.7,-17.9 -25,0.5 -3.6,-2.6 -7.6,-23.8 -21.8,-23.6 67.4,-16.2 19.1,-10.3 36.8,10.4 10.9,18.6 2.2,-20.7 2.5,-2 20.6,2.9 43.4,-10.1 36.8,7.1 60.4,3 25.4,21.6 12.4,-15.9 32.7,-2.3 14.5,14 -1.6,34.6 -37.1,30.8 z"
       id="coupes_002"
       stroke="#ff0000"
       stroke-width="1.27"
       sodipodi:nodetypes="cccccccccccccccccccccccccccccccccccccccccccccccccccccccccccccccccccccccccccccccccccccccccccccccccccccccccccccccccccccccccccccc" />
    <path
       d="m 792.3,358.4 58.8,65.8 m 0,0 -59,63 m 62,-34.8 -62,34.8 m 62,-34.8 -14.7,43.1 m 0,0 -47.3,-8.3 m 0,0 -72.6,-22.4 m 72.6,22.4 -115.1,52.4 m 0,0 42.5,-74.8 m -16.3,-109.2 89.1,2.8 m -89.1,-2.8 10.6,-142.3 m -10.6,142.3 -13,0.8 m 0,0 23.6,-143.1 m 52.2,-0.5 26.3,145.6 m -102.1,-2 -17.6,-175.3 m 17.6,175.3 -10.7,3.4 m 0,0 -35.4,-138.1 m 35.4,138.1 -36.4,12 m 0,0 1,-150.1 m -1,150.1 -57.2,-67.5 m 107.2,66.8 10.1,-15.5 m -117.3,-51.3 5.7,-87.2 m 279.1,67.2 -19.6,139.9 m -58.8,-65.8 78.4,-74.1 m -11.1,149.3 -8.5,-9.4 m 42.2,-80.8 -33.7,90.2 m 52.4,-162.4 6.9,38.5 M 870.7,284.3 912,271.2 M 855.4,228.7 912,271.2 M 885.7,200.9 912,271.2 M 747.3,624.8 677,539.6 m 99.5,50.1 -29.2,35.1 M 680.2,595.4 677,539.6 m 44.3,95.6 -41.1,-39.8 m -1.8,34.6 1.8,-34.6 m 78.7,-420.2 7.1,37.6 m 10.5,376.9 25.8,59.6 m 28.7,-57.8 -28.7,57.8 m 28.7,-57.8 9.6,41.2 m 100.8,-263.6 -81.8,64.5 m 13.6,10.8 -13.6,-10.8 m 81.8,-64.5 -68.2,75.3 m 68.2,-75.3 -31,101.5 m -248.6,-18.2 57.7,12.4 m 213.8,-326.6 -58,-30.4 M 896.2,169 875.3,107.8 M 835,146.6 789.5,83.2 m 1.5,64.2 -1.5,-64.2 m -28.4,46.4 -8.4,-53.5 m 8.4,53.5 -51.8,-43.4 M 737.2,144 709.3,86.2 M 684,106 709.3,86.2 M 737.2,144 684,106 M 704.2,149.5 684,106 m -39.4,54.1 -27.4,-72.8 m 0,0 66.8,18.7 m -39.4,54.1 -36.8,-7.1 m 0,0 9.4,-65.7 m -9.4,65.7 -36.2,-25.9 m 0,0 45.6,-39.8"
       id="plisM_002"
       stroke="#a52a2a"
       stroke-dasharray="4" />
    <path
       d="m 792.1,487.2 0.2,-128.8 m 64.8,76.9 -65,51.9 m 0,0 -88.8,-79.2 m 0,0 89,-49.6 m -0.2,128.8 -15.6,102.5 m 0,0 L 677,539.6 M 703.3,408 703.2,355.6 m 10.6,-142.3 78.5,145.1 M 713.8,213.3 766,212.8 M 690.2,356.4 644.1,221.7 m -58.2,82.6 58.2,-82.6 m 226.6,62.6 -11.1,149.3 m 11.1,-149.3 22.6,59.1 m -22.6,-59.1 48.2,25.4 m -48.2,-25.4 -15.3,-55.6 m 0,0 30.3,-27.8 M 747.3,624.8 680.2,595.4 m 33.6,-382.1 45.1,-38.1 m 134.4,168.2 48.1,25.7 m -66.1,-261.3 59.6,-4.2 m -99.9,43 40.3,-38.8 M 896.2,169 835,146.6 m 0,0 14.9,-60.4 m -88.8,43.4 28.4,-46.4 m 1.5,64.2 -29.9,-17.8 m 0,0 -23.9,14.4 m 0,0 -33,5.5 m 0,0 -59.6,10.6 m 0,0 L 684,106"
       id="plisV_002"
       stroke="#008000"
       stroke-dasharray="4, 1, 1, 1"
       stroke-width="1.27" />
    <path
       d="m 790.2,420.8 4,4 m 0,-4 -4,4 m 32.4,34.4 4,4 m 0,-4 -4,4 m -76.9,-17.6 4,4 m 0,-4 -4,4 m 0.1,-68.4 4,4 m 0,-4 -4,4 m 36.5,151.2 4,4 m 0,-4 -4,4 m -57.6,22.2 4,4 m 0,-4 -4,4 m -23.4,-186.8 4,4 m 0,-4 -4,4 m 49.8,-99.9 4,4 m 0,-4 -4,4 m -13.2,-76.9 4,4 m 0,-4 -4,4 m -72.7,72.1 4,4 m 0,-4 -4,4 M 613,261 l 4,4 m 0,-4 -4,4 m 250.1,92 4,4 m 0,-4 -4,4 m 16.9,-49.1 4,4 m 0,-4 -4,4 m 12.8,-20.9 4,4 m 0,-4 -4,4 m -31.8,-44.5 4,4 m 0,-4 -4,4 m 7.5,-45.7 4,4 m 0,-4 -4,4 m -156.7,391.3 4,4 m 0,-4 -4,4 m 22.6,-419.8 4,4 m 0,-4 -4,4 m 181,158 4,4 m 0,-4 -4,4 m -12.3,-254.6 4,4 m 0,-4 -4,4 m -49.9,17.5 4,4 m 0,-4 -4,4 m 10.4,26.6 4,4 m 0,-4 -4,4 m -23.1,-45.4 4,4 m 0,-4 -4,4 m -67.2,-14 4,4 m 0,-4 -4,4 m 0.7,28.1 4,4 m 0,-4 -4,4 m -26.9,-5.7 4,4 m 0,-4 -4,4 m -28.4,5.9 4,4 m 0,-4 -4,4 m -46.3,4.1 4,4 m 0,-4 -4,4 m -10.1,-25.8 4,4 m 0,-4 -4,4"
       id="marqueV_002"
       stroke="#008000" />
    <path
       d="m 758,409.2 v -0.7 l 0.8,-1.5 0.7,-0.8 1.5,-0.7 h 3 l 1.5,0.7 0.8,0.8 0.7,1.5 v 1.5 l -0.7,1.5 -1.5,2.2 -7.5,7.5 h 10.5"
       id="titre_2"
       stroke="#4b0082" />
    <path
       d="m 733.54107,115.68769 h 8.2 l -4.5,6 h 2.3 l 1.5,0.7 0.7,0.8 0.8,2.2 v 1.5 l -0.8,2.3 -1.5,1.5 -2.2,0.7 h -2.3 l -2.2,-0.7 -0.8,-0.8 -0.7,-1.5"
       id="titre_3"
       stroke="#4b0082" />
  </g>
</svg>
