<?xml version="1.0" encoding="UTF-8" standalone="no"?>
<svg
   height="841.88977pt"
   viewBox="0 0 532.99998 754.00001"
   width="595.27557pt"
   version="1.1"
   id="svg1"
   sodipodi:docname="Gorille200_H20_A4x4.svg"
   inkscape:version="1.3 (0e150ed6c4, 2023-07-21)"
   xmlns:inkscape="http://www.inkscape.org/namespaces/inkscape"
   xmlns:sodipodi="http://sodipodi.sourceforge.net/DTD/sodipodi-0.dtd"
   xmlns="http://www.w3.org/2000/svg"
   xmlns:svg="http://www.w3.org/2000/svg">
  <defs
     id="defs1" />
  <sodipodi:namedview
     id="namedview1"
     pagecolor="#ffffff"
     bordercolor="#000000"
     borderopacity="0.25"
     inkscape:showpageshadow="2"
     inkscape:pageopacity="0.0"
     inkscape:pagecheckerboard="0"
     inkscape:deskcolor="#d1d1d1"
     inkscape:document-units="mm"
     showgrid="false"
     inkscape:zoom="0.57941256"
     inkscape:cx="1592.1298"
     inkscape:cy="570.40531"
     inkscape:window-width="1920"
     inkscape:window-height="1057"
     inkscape:window-x="-8"
     inkscape:window-y="-8"
     inkscape:window-maximized="1"
     inkscape:current-layer="svg1" />
  <style
     type="text/css"
     id="style1"><![CDATA[
			path {
				fill: none;
			}
		]]></style>
  <g
     id="page_001">
    <path
       d="m 36.4,388.9 0.7,-0.1 0.5,-0.8 0.2,-0.6 v -0.9 l -0.7,-0.9 -1.3,-0.7 -1.4,-0.5 -1.2,-0.1 -0.8,0.4 -0.6,0.7 -0.1,0.3 v 1 l 0.4,0.7 0.8,0.6 0.3,0.1 h 0.9 l 0.8,-0.4 0.5,-0.7 0.1,-0.3 v -1 l -0.3,-0.7 -0.8,-0.6 m 1.3,9.5 0.9,-2.8 -2.5,-1.2 0.2,0.4 v 1 l -0.3,0.8 -0.5,0.8 -0.8,0.4 h -0.9 l -0.6,-0.2 -0.8,-0.6 -0.3,-0.8 v -0.9 l 0.2,-0.9 0.6,-0.7 0.4,-0.2 0.7,-0.1 m 6.8,-73.4 0.5,-0.4 0.2,-1 -0.1,-0.6 -0.5,-0.8 -1,-0.4 -1.5,-0.1 -1.5,0.3 -1.1,0.5 -0.5,0.7 -0.1,0.9 v 0.3 l 0.5,0.9 0.7,0.5 0.9,0.1 0.3,-0.1 0.8,-0.4 0.5,-0.7 0.2,-0.9 -0.1,-0.3 -0.4,-0.9 -0.7,-0.5 -1,-0.1 m 5.1,4.8 0.6,3.3 -2.7,-1.4 0.2,0.9 -0.2,0.6 -0.2,0.4 -0.9,0.4 -0.6,0.2 -0.9,-0.2 -0.7,-0.5 -0.4,-0.8 -0.2,-0.9 0.1,-0.9 0.3,-0.4 0.5,-0.4 m 42,-18 0.6,0.8 0.6,0.2 0.6,-0.2 0.5,-0.4 0.1,-0.7 v -1.2 l 0.1,-1 0.4,-0.7 0.5,-0.5 0.9,-0.2 0.6,0.2 0.4,0.2 0.5,0.8 0.3,1.1 v 1 l -0.2,0.3 -0.5,0.5 -0.9,0.2 -0.7,-0.1 -0.7,-0.5 -0.5,-0.7 -0.6,-1.1 -0.5,-0.5 -0.6,-0.2 -0.6,0.2 -0.5,0.4 -0.1,1 0.4,1.3 m -1.9,-6.9 4.8,1.8 -1.1,-4.3 m -3.7,2.5 6.1,-1.6 m -50.8,183.8 0.5,-0.3 0.3,-0.9 -0.1,-0.6 -0.3,-0.9 -1,-0.5 -1.5,-0.2 -1.5,0.1 -1.2,0.4 -0.5,0.6 -0.3,0.9 0.1,0.3 0.3,0.9 0.7,0.6 0.9,0.2 h 0.3 l 0.9,-0.4 0.5,-0.6 0.3,-0.9 -0.1,-0.3 -0.3,-0.9 -0.7,-0.6 -0.9,-0.2 m 3.9,8.4 0.6,-0.4 0.2,-0.9 v -0.6 l -0.4,-0.8 -0.9,-0.6 -1.5,-0.2 -1.5,0.1 -1.2,0.4 -0.6,0.6 -0.2,1 v 0.3 l 0.4,0.8 0.6,0.6 0.9,0.2 h 0.3 l 0.9,-0.3 0.6,-0.7 0.2,-0.9 v -0.3 l -0.4,-0.9 -0.6,-0.5 -0.9,-0.3 m 2,-247.4 -0.4,-0.9 -0.6,-0.3 -0.6,0.1 -0.6,0.3 -0.2,0.6 -0.2,1.3 -0.2,0.9 -0.6,0.6 -0.6,0.4 h -0.9 l -0.6,-0.2 -0.3,-0.3 -0.4,-0.9 -0.1,-1.2 0.3,-0.9 0.2,-0.3 0.6,-0.3 0.9,-0.1 0.6,0.2 0.7,0.6 0.3,0.9 0.4,1.1 0.4,0.6 0.6,0.3 0.6,-0.1 0.6,-0.3 0.2,-1 -0.1,-1.3 m -1.1,4 0.3,0.6 1,0.8 -6.3,0.5 M 86,528 l 0.3,0.8 0.6,0.3 h 0.6 l 0.6,-0.3 0.3,-0.7 0.2,-1.2 0.3,-0.9 0.6,-0.6 0.6,-0.3 0.9,-0.1 0.6,0.3 0.3,0.3 0.3,0.9 0.1,1.2 -0.3,0.9 -0.3,0.3 -0.5,0.3 -0.9,0.1 -0.7,-0.3 -0.6,-0.6 -0.3,-0.9 -0.4,-1.2 -0.3,-0.5 -0.6,-0.3 h -0.6 l -0.6,0.3 -0.3,1 0.1,1.3 m 1.7,-8 0.9,0.3 0.7,0.5 0.3,0.9 v 0.3 l -0.2,0.9 -0.6,0.7 -0.9,0.3 h -0.3 l -0.9,-0.2 -0.6,-0.6 -0.4,-0.9 V 522 l 0.3,-0.9 0.5,-0.6 1.2,-0.4 1.5,-0.1 1.5,0.3 1,0.5 0.3,0.9 v 0.6 l -0.2,0.9 -0.6,0.4 m -27.9,16.6 -5,4.9 m 1,-6.3 4,1.4 m 4.4,1.6 -2.8,-1 -1.2,2.4 0.4,-0.1 H 65 l 0.9,0.3 0.7,0.6 0.4,0.7 v 1 l -0.2,0.6 -0.6,0.7 -0.8,0.4 -0.9,-0.1 -0.9,-0.3 -0.7,-0.6 -0.2,-0.3 -0.1,-0.7 m 24.2,-326.6 -0.1,0.9 -0.5,0.7 -0.8,0.5 -0.3,0.1 -0.9,-0.1 -0.7,-0.5 -0.5,-0.8 -0.1,-0.3 0.1,-0.9 0.5,-0.7 0.8,-0.5 0.3,-0.1 0.9,0.1 0.7,0.5 0.6,1.1 0.3,1.4 v 1.6 l -0.3,1 -0.9,0.5 -0.5,0.1 -1,-0.1 -0.4,-0.5 m 6.5,-7.1 -2,4.8 4.4,-1 m -2.4,-3.8 1.4,6.2 m 141.9,118.4 -0.2,-0.9 0.1,-0.8 0.6,-0.7 0.3,-0.2 0.9,-0.2 0.8,0.1 0.8,0.6 0.1,0.3 0.3,0.9 -0.2,0.8 -0.6,0.8 -0.2,0.1 -1,0.3 -0.8,-0.2 -0.9,-0.9 -0.8,-1.2 -0.6,-1.4 v -1.1 l 0.6,-0.8 0.5,-0.3 1,-0.2 0.5,0.3 m -2.3,6.1 0.2,0.3 0.1,0.7 -0.1,0.4 -0.4,0.6 -1,0.6 -0.6,0.1 -0.5,-0.1 -0.5,-0.3 -0.4,-0.6 v -0.6 -1.1 l 0.9,-4.1 -3.5,2.2 m -65.6,140 -0.3,0.9 -0.5,0.7 -0.9,0.3 h -0.3 l -0.9,-0.3 -0.7,-0.6 -0.3,-0.9 v -0.3 l 0.3,-0.9 0.6,-0.6 0.9,-0.3 h 0.3 l 0.9,0.3 0.6,0.5 0.3,1.2 0.1,1.5 -0.3,1.5 -0.6,1 -0.9,0.3 H 159 l -0.9,-0.3 -0.3,-0.6 m 6.4,-5.5 -0.9,0.3 -0.5,0.9 -0.3,1.5 v 0.9 l 0.3,1.5 0.6,0.9 0.9,0.3 h 0.6 l 0.9,-0.3 0.6,-0.9 0.3,-1.5 v -0.9 l -0.3,-1.5 -0.7,-0.9 -0.9,-0.3 h -0.4 M 55.4,153.9 55.7,153 55.4,152.4 55,152 l -0.7,-0.1 -0.6,0.3 -1,0.7 -0.8,0.5 -0.8,0.2 -0.7,-0.2 -0.7,-0.5 -0.3,-0.6 v -0.5 l 0.3,-0.9 0.7,-0.9 0.8,-0.5 0.4,-0.1 0.7,0.2 0.7,0.5 0.3,0.6 0.1,0.8 -0.3,0.9 -0.5,1.2 -0.1,0.6 0.2,0.6 0.5,0.4 0.7,0.1 0.8,-0.5 0.8,-1.1 m -4,2.7 0.3,0.2 0.3,0.6 v 0.4 l -0.1,0.7 -0.7,0.9 -0.6,0.3 h -0.5 l -0.6,-0.1 -0.5,-0.3 -0.3,-0.7 -0.3,-1 -0.6,-4.2 -2.5,3.3 m 193.1,256 0.4,0.8 0.1,0.9 -0.5,0.8 -0.2,0.2 -0.8,0.5 h -0.9 l -0.8,-0.4 -0.2,-0.2 -0.5,-0.9 v -0.8 l 0.4,-0.9 0.2,-0.2 0.9,-0.4 h 0.8 l 1.1,0.6 1.1,1 0.9,1.3 0.2,1 -0.4,0.9 -0.4,0.4 -0.9,0.5 -0.6,-0.2 m 2.2,-10.1 2.5,6.5 m -5.4,-3.5 2.9,-3 m 13.9,21.7 -0.2,-0.9 0.2,-0.9 0.6,-0.7 0.2,-0.1 1,-0.3 0.8,0.2 0.7,0.7 0.2,0.2 0.2,0.9 -0.2,0.9 -0.6,0.7 -0.3,0.1 -0.9,0.3 -0.8,-0.2 -0.9,-0.9 -0.8,-1.3 -0.5,-1.4 v -1.1 l 0.6,-0.7 0.5,-0.3 1,-0.3 0.5,0.4 m -4.6,9.2 -0.8,-6.9 m 4.3,4.7 -3.5,2.2 m -140.7,-304.3 -0.1,0.3 -0.4,0.5 -0.4,0.2 -0.6,0.2 -1.2,-0.2 -0.5,-0.5 -0.2,-0.3 -0.2,-0.7 0.1,-0.6 0.4,-0.5 0.8,-0.7 3.6,-2.3 -4.1,-0.9 M 105,128 v 0.3 l -0.4,0.5 -0.4,0.3 -0.6,0.1 -1.2,-0.2 -0.5,-0.4 -0.3,-0.4 -0.1,-0.7 0.1,-0.5 0.4,-0.6 0.8,-0.7 3.6,-2.3 -4.2,-0.9 m 162.3,361 0.7,-0.2 1,-0.8 -1.1,6.3 m 4.1,-6 -1,0.2 -0.7,0.8 -0.6,1.4 -0.1,0.9 v 1.5 l 0.4,1 0.9,0.4 0.6,0.2 0.9,-0.2 0.7,-0.8 0.6,-1.4 0.2,-0.9 -0.1,-1.5 -0.4,-1 -0.8,-0.5 h -0.5 m 3.6,2.1 0.1,-0.3 0.4,-0.5 0.3,-0.3 0.6,-0.2 1.2,0.3 0.6,0.4 0.2,0.3 0.2,0.6 -0.1,0.6 -0.4,0.6 -0.7,0.8 -3.5,2.4 4.1,0.7 m 32.5,-158.8 v -0.7 l -0.2,-1.2 5.3,3.3 m -3.9,-5.9 -0.3,0.9 0.5,1 1.1,1 0.7,0.5 1.5,0.6 1.1,-0.1 0.7,-0.6 0.3,-0.5 0.2,-0.9 -0.4,-1 -1.1,-1 -0.8,-0.5 -1.4,-0.6 -1.1,0.1 -0.7,0.6 -0.3,0.3 m 3,-2 0.1,-0.7 -0.3,-1.2 5.3,3.3 m -13.9,77.4 0.7,0.2 1.3,-0.1 -4.3,4.7 m 6.6,-2.8 -0.9,-0.4 -1,0.2 -1.3,0.9 -0.6,0.7 -0.8,1.3 -0.1,1.1 0.4,0.8 0.5,0.4 0.8,0.4 1.1,-0.3 1.2,-0.9 0.6,-0.6 0.8,-1.3 0.2,-1.1 -0.5,-0.8 -0.3,-0.3 m 2.9,2.7 2.4,2.2 -2.9,0.5 0.7,0.6 0.2,0.7 v 0.4 l -0.4,0.9 -0.4,0.4 -0.8,0.5 h -0.8 l -0.9,-0.4 -0.7,-0.6 -0.4,-0.8 -0.1,-0.4 0.2,-0.7 m 9.8,66.8 0.2,-0.6 v -1.3 l 4.4,4.5 m -2.4,-6.7 -0.5,0.8 0.2,1.1 0.9,1.3 0.6,0.6 1.3,0.9 1,0.2 0.9,-0.4 0.4,-0.4 0.4,-0.9 -0.2,-1 -0.8,-1.3 -0.6,-0.7 -1.3,-0.8 -1,-0.3 -0.9,0.5 -0.3,0.3 m 3.7,-3.7 -0.4,0.9 0.2,1 0.8,1.3 0.6,0.7 1.3,0.8 1.1,0.3 0.8,-0.5 0.4,-0.4 0.5,-0.8 -0.2,-1.1 -0.9,-1.3 -0.6,-0.6 -1.2,-0.9 -1.1,-0.2 -0.9,0.4 -0.3,0.3 m -6.8,-30.2 -0.7,-0.2 h -1.3 l 4.5,-4.5 m -6.7,2.6 0.8,0.4 1.1,-0.2 1.3,-0.9 0.6,-0.6 0.8,-1.3 0.3,-1.1 -0.5,-0.8 -0.4,-0.4 -0.9,-0.5 -1,0.3 -1.3,0.8 -0.6,0.7 -0.9,1.2 -0.2,1.1 0.5,0.8 0.3,0.4 m -2.8,-2.8 -2.4,-2.4 3,-0.4 -0.7,-0.6 -0.2,-0.7 v -0.4 l 0.4,-0.8 0.4,-0.5 0.9,-0.4 h 0.8 l 0.9,0.4 0.6,0.6 0.5,0.9 v 0.4 l -0.2,0.7 m -137.6,-318.3 -2.7,1.8 0.2,-3 -0.8,0.5 -0.7,0.1 -0.4,-0.1 -0.7,-0.6 -0.3,-0.5 -0.3,-0.9 0.2,-0.8 0.6,-0.7 0.7,-0.5 0.9,-0.3 0.4,0.1 0.6,0.3 m -2.9,6.3 0.2,0.2 0.1,0.7 -0.1,0.4 -0.3,0.6 -1,0.6 -0.7,0.1 -0.4,-0.1 -0.6,-0.3 -0.3,-0.5 -0.1,-0.7 v -1 l 0.8,-4.2 -3.5,2.3 m 35.4,77.8 0.1,-0.6 -0.3,-1.3 5.4,3.2 m -4.1,-5.8 -0.2,0.9 0.5,1 1.1,1 0.8,0.4 1.4,0.5 h 1.1 l 0.7,-0.6 0.3,-0.6 0.2,-0.9 -0.5,-1 -1.1,-1 -0.8,-0.4 -1.4,-0.5 H 202 l -0.7,0.7 -0.2,0.3 m 2.6,-4.4 -0.2,0.9 0.5,1 1.1,1 0.8,0.4 1.4,0.5 h 1.1 l 0.7,-0.6 0.3,-0.6 0.2,-0.9 -0.4,-1 -1.2,-1 -0.8,-0.4 -1.4,-0.5 h -1.1 l -0.7,0.6 -0.2,0.4 m -51.6,27.8 -0.2,0.9 -0.5,0.7 -0.9,0.4 h -0.3 l -0.9,-0.3 -0.7,-0.5 -0.4,-0.9 V 210 l 0.2,-0.9 0.6,-0.6 0.9,-0.4 h 0.3 l 0.9,0.2 0.6,0.5 0.4,1.2 0.2,1.5 -0.2,1.5 -0.6,1 -0.8,0.3 -0.6,0.1 -0.9,-0.2 -0.4,-0.6 m 8.4,-4 -0.3,0.9 -0.5,0.7 -0.9,0.3 -0.3,0.1 -0.9,-0.3 -0.7,-0.5 -0.3,-0.9 v -0.3 l 0.2,-0.9 0.5,-0.6 0.9,-0.4 h 0.3 l 0.9,0.2 0.7,0.5 0.4,1.2 0.1,1.5 -0.2,1.5 -0.5,1 -0.9,0.3 -0.6,0.1 -0.9,-0.2 -0.4,-0.6 m 289.3,244.7 1,0.1 0.7,0.5 0.5,0.8 v 0.3 l -0.1,0.9 -0.5,0.7 -0.8,0.5 -0.3,0.1 -0.9,-0.2 -0.7,-0.4 -0.5,-0.9 -0.1,-0.3 0.1,-0.9 0.5,-0.7 1.1,-0.5 1.5,-0.3 h 1.5 l 1,0.4 0.5,0.8 0.1,0.6 -0.1,0.9 -0.5,0.4 m -7,-7.1 0.6,3 2.7,-0.3 -0.3,-0.2 -0.5,-0.8 -0.2,-0.9 0.2,-0.9 0.4,-0.7 0.8,-0.5 0.6,-0.1 1,0.1 0.7,0.5 0.5,0.8 0.1,0.9 -0.1,0.9 -0.2,0.4 -0.5,0.4 m -80.5,12.3 -0.9,0.3 h -0.8 l -0.8,-0.5 -0.2,-0.3 -0.3,-0.9 v -0.8 l 0.5,-0.8 0.3,-0.2 0.8,-0.3 h 0.9 l 0.8,0.5 0.2,0.3 0.3,0.8 v 0.9 l -0.8,1 -1.1,0.9 -1.4,0.8 -1,0.1 -0.8,-0.5 -0.4,-0.5 -0.4,-0.8 0.3,-0.7 m 8.1,4.5 -0.9,0.4 -0.9,-0.1 -0.8,-0.5 -0.2,-0.2 -0.3,-0.9 0.1,-0.8 0.5,-0.8 0.2,-0.2 0.9,-0.4 0.8,0.1 0.8,0.5 0.2,0.2 0.4,0.9 -0.1,0.8 -0.7,1 -1.2,1 -1.3,0.7 -1.1,0.2 -0.8,-0.5 -0.4,-0.5 -0.3,-0.9 0.2,-0.6 m 80.3,59.2 0.3,0.9 0.6,0.3 h 0.6 l 0.6,-0.2 0.3,-0.6 0.3,-1.2 0.4,-0.9 0.6,-0.6 0.6,-0.3 h 0.9 l 0.6,0.4 0.3,0.3 0.3,0.9 -0.1,1.2 -0.3,0.9 -0.3,0.3 -0.6,0.2 h -0.9 l -0.6,-0.3 -0.6,-0.6 -0.3,-0.9 -0.2,-1.2 -0.3,-0.6 -0.6,-0.3 -0.6,-0.1 -0.6,0.3 -0.3,0.9 -0.1,1.4 m 0.2,-5.5 0.2,0.9 0.6,0.3 h 0.6 l 0.6,-0.3 0.4,-0.6 0.3,-1.2 0.3,-0.9 0.6,-0.5 0.6,-0.3 h 0.9 l 0.6,0.3 0.3,0.3 0.3,0.9 v 1.2 l -0.4,0.9 -0.3,0.3 -0.6,0.3 h -0.9 l -0.6,-0.3 -0.6,-0.7 -0.2,-0.9 -0.3,-1.2 -0.3,-0.6 -0.6,-0.3 h -0.6 l -0.6,0.3 -0.3,0.9 v 1.3 m -63.3,0.9 -0.6,-0.7 -0.2,-0.9 0.3,-0.9 0.2,-0.2 0.7,-0.6 0.9,-0.1 0.9,0.2 0.2,0.2 0.6,0.8 0.1,0.8 -0.2,0.9 -0.2,0.2 -0.7,0.6 -0.9,0.2 -1.1,-0.5 -1.3,-0.8 -1,-1.1 -0.4,-1 0.2,-0.9 0.4,-0.5 0.7,-0.6 0.7,0.1 m 0,9.6 -1.7,-4.9 -2.6,3.7 m 4.3,1.2 -5.2,-3.6 m -254.3,-206 v -0.9 l -0.5,-0.5 -0.6,-0.2 -0.6,0.1 -0.5,0.5 -0.6,1.1 -0.6,0.7 -0.7,0.4 -0.7,0.1 -0.9,-0.2 -0.4,-0.5 -0.2,-0.4 -0.1,-0.9 0.4,-1.2 0.6,-0.7 0.3,-0.2 0.7,-0.1 0.9,0.2 0.4,0.5 0.4,0.7 v 1 1.2 l 0.1,0.7 0.5,0.5 0.5,0.1 0.7,-0.1 0.5,-0.7 0.5,-1.3 m -2.3,7.2 0.9,-2.9 -2.5,-1 0.2,0.3 v 1 l -0.3,0.8 -0.5,0.8 -0.8,0.4 h -0.9 l -0.6,-0.2 -0.8,-0.5 -0.4,-0.8 v -0.9 l 0.3,-0.9 0.6,-0.7 0.3,-0.2 0.7,-0.2 m 291.7,264 -0.7,-0.6 -0.7,0.1 -0.5,0.4 -0.3,0.6 0.2,0.7 0.4,1.1 0.4,0.9 -0.2,0.8 -0.2,0.6 -0.8,0.6 -0.6,0.1 h -0.4 l -0.8,-0.6 -0.8,-0.9 -0.3,-0.9 0.1,-0.4 0.3,-0.6 0.7,-0.6 0.7,-0.1 0.8,0.1 0.8,0.5 0.9,0.8 0.7,0.3 0.6,-0.1 0.5,-0.4 0.3,-0.6 -0.3,-0.9 -0.8,-1.1 m 4.3,5.7 -5.1,0.1 2.7,3.6 m 2.4,-3.7 -5,3.8 m 32.6,17.7 0.2,1 0.5,0.3 0.6,0.1 0.7,-0.2 0.3,-0.6 0.5,-1.2 0.4,-0.8 0.6,-0.5 0.7,-0.3 0.9,0.1 0.5,0.4 0.3,0.3 0.2,1 -0.2,1.2 -0.4,0.8 -0.3,0.3 -0.6,0.2 -0.9,-0.1 -0.6,-0.4 -0.5,-0.6 -0.2,-1 -0.2,-1.2 -0.2,-0.6 -0.5,-0.4 -0.6,-0.1 -0.7,0.3 -0.4,0.8 -0.1,1.4 m 0.8,-7.6 -0.3,3 2.6,0.6 -0.2,-0.3 -0.2,-0.9 0.1,-0.9 0.4,-0.9 0.7,-0.5 0.9,-0.2 0.6,0.1 0.8,0.4 0.6,0.6 0.2,1 -0.1,0.9 -0.4,0.8 -0.4,0.3 -0.6,0.2 M 234.1,97.2 l -3.3,0.2 1.7,-2.5 h -0.9 l -0.6,-0.2 -0.4,-0.3 -0.3,-0.9 v -0.6 l 0.2,-0.9 0.6,-0.6 0.9,-0.4 h 0.9 l 0.9,0.2 0.3,0.3 0.3,0.6 m -5,3.9 -0.6,0.4 -0.9,0.9 -0.3,-6.3 m 99.6,176.4 0.9,0.3 0.6,0.5 0.4,0.9 v 0.3 l -0.2,0.9 -0.6,0.6 -0.8,0.4 h -0.3 l -1,-0.2 -0.6,-0.5 -0.4,-0.9 v -0.3 l 0.2,-0.9 0.6,-0.7 1.2,-0.4 1.5,-0.1 1.5,0.2 0.9,0.5 0.4,0.9 v 0.6 l -0.2,0.9 -0.6,0.4 m -5.8,-4.9 -0.2,-3.3 2.5,1.6 v -0.9 l 0.2,-0.6 0.3,-0.4 0.9,-0.3 0.6,-0.1 0.9,0.3 0.6,0.5 0.4,0.9 0.1,0.9 -0.3,0.9 -0.2,0.3 -0.6,0.4 m -135.2,61.9 1,0.2 0.6,0.6 0.4,0.8 v 0.3 l -0.3,1 -0.5,0.6 -0.9,0.4 h -0.3 l -0.9,-0.3 -0.7,-0.5 -0.3,-0.9 v -0.3 l 0.2,-0.9 0.6,-0.6 1.1,-0.4 1.5,-0.1 1.6,0.2 0.9,0.5 0.4,0.9 v 0.6 l -0.2,0.9 -0.6,0.3 m -4.3,-4.3 -0.4,-0.6 -0.9,-0.9 6.3,-0.4 m -35.8,-22.4 0.9,-0.2 0.4,-0.5 0.1,-0.6 -0.2,-0.6 -0.5,-0.4 -1.2,-0.5 -0.8,-0.5 -0.5,-0.6 -0.2,-0.7 0.1,-0.9 0.4,-0.5 0.4,-0.3 0.9,-0.1 1.2,0.2 0.8,0.4 0.3,0.4 0.2,0.6 -0.2,0.9 -0.3,0.5 -0.7,0.5 -1,0.2 -1.2,0.1 -0.6,0.2 -0.4,0.5 -0.1,0.6 0.2,0.7 0.8,0.4 1.3,0.2 m -7.9,-1.3 4,-5.7 m 0.1,6.4 -4.1,-0.7 m 77.8,-7.4 -0.8,0.6 -0.8,0.1 -0.9,-0.3 -0.3,-0.2 -0.5,-0.8 -0.1,-0.8 0.3,-0.9 0.1,-0.2 0.8,-0.6 0.9,-0.1 0.9,0.3 0.2,0.2 0.5,0.8 0.2,0.8 -0.5,1.1 -0.9,1.2 -1.2,1.1 -1,0.3 -0.9,-0.3 -0.5,-0.3 -0.5,-0.8 0.1,-0.7 m 6.6,0.1 0.2,-0.3 0.6,-0.3 h 0.4 l 0.6,0.1 1,0.7 0.3,0.6 0.1,0.4 -0.2,0.7 -0.3,0.5 -0.6,0.3 -1,0.3 -4.2,0.6 3.3,2.5 m -3.2,-29 -0.2,-0.9 0.2,-0.8 0.6,-0.7 0.3,-0.2 0.9,-0.2 0.8,0.2 0.8,0.6 0.1,0.3 0.2,0.9 -0.2,0.8 -0.6,0.8 -0.2,0.1 -1,0.2 -0.8,-0.2 -0.9,-0.9 -0.7,-1.2 -0.6,-1.5 0.1,-1.1 0.6,-0.7 0.5,-0.3 0.9,-0.2 0.6,0.4 m -1.9,5.8 -0.4,0.6 -0.3,1.2 -3.3,-5.4 m 193.9,109.7 0.3,-0.9 0.5,-0.6 0.9,-0.3 0.3,-0.1 0.9,0.3 0.7,0.6 0.3,0.9 v 0.3 l -0.3,0.9 -0.5,0.6 -0.9,0.3 -0.3,0.1 -0.9,-0.3 -0.7,-0.6 -0.3,-1.2 -0.1,-1.5 0.3,-1.5 0.5,-0.9 0.9,-0.3 0.6,-0.1 0.9,0.3 0.4,0.6 m -6.1,5.6 0.9,-0.3 0.3,-0.6 v -0.6 l -0.4,-0.6 -0.6,-0.3 -1.2,-0.2 -0.9,-0.3 -0.6,-0.6 -0.3,-0.6 -0.1,-0.9 0.3,-0.6 0.3,-0.3 0.9,-0.3 1.2,-0.1 0.9,0.3 0.3,0.3 0.3,0.6 0.1,0.9 -0.3,0.6 -0.6,0.6 -0.9,0.3 -1.2,0.4 -0.6,0.3 -0.2,0.6 v 0.6 l 0.3,0.6 0.9,0.3 1.4,-0.1 m 28,19.6 0.8,0.6 0.4,0.7 0.1,1 -0.1,0.3 -0.6,0.7 -0.7,0.4 -1,0.1 -0.3,-0.1 -0.7,-0.6 -0.4,-0.7 -0.1,-1 0.1,-0.2 0.6,-0.8 0.7,-0.4 h 1.2 l 1.5,0.5 1.3,0.7 0.7,0.8 0.1,1 -0.2,0.5 -0.6,0.8 -0.6,0.1 m -1.9,-9.3 -0.7,0.1 -0.6,0.8 -0.1,0.6 v 0.9 l 0.7,0.9 1.4,0.7 1.4,0.4 1.2,0.1 0.8,-0.4 0.5,-0.8 0.1,-0.3 V 398 l -0.4,-0.8 -0.8,-0.5 -0.3,-0.1 h -0.9 l -0.8,0.4 -0.5,0.8 -0.1,0.3 v 0.9 l 0.4,0.8 0.8,0.5 m -194.9,-236.6 0.6,-0.2 1.1,-0.8 -1,6.3 m 3.9,-6 -0.9,0.1 -0.8,0.8 -0.5,1.5 -0.1,0.9 0.1,1.5 0.4,1 0.9,0.4 0.6,0.1 0.9,-0.2 0.7,-0.8 0.5,-1.4 0.2,-0.9 -0.1,-1.5 -0.5,-1 -0.8,-0.5 h -0.5 m 3.7,2 v -0.3 l 0.4,-0.5 0.4,-0.3 0.6,-0.2 1.2,0.2 0.5,0.4 0.3,0.3 0.2,0.7 -0.1,0.6 -0.4,0.5 -0.7,0.8 -3.4,2.5 4.2,0.7 M 305.9,93.7 V 94 l -0.3,0.6 -0.3,0.3 -0.6,0.3 h -1.2 l -0.6,-0.3 -0.3,-0.3 -0.3,-0.6 v -0.6 l 0.3,-0.6 0.6,-0.9 2.9,-3 h -4.2 m -4.6,6.4 3,-0.1 0.2,-2.7 -0.3,0.3 -0.9,0.4 h -0.9 l -0.9,-0.3 -0.6,-0.6 -0.3,-0.9 v -0.6 l 0.3,-0.9 0.6,-0.6 0.9,-0.3 h 0.9 l 0.9,0.2 0.3,0.3 0.3,0.6 m -10.9,122.2 0.9,0.3 0.6,-0.3 0.3,-0.5 0.1,-0.7 -0.3,-0.6 -0.8,-0.9 -0.6,-0.8 -0.1,-0.8 0.1,-0.7 0.5,-0.7 0.6,-0.3 0.4,-0.1 0.9,0.3 1,0.7 0.5,0.7 0.1,0.4 -0.1,0.7 -0.5,0.7 -0.6,0.4 -0.8,0.1 -0.9,-0.3 -1.2,-0.4 -0.7,-0.1 -0.5,0.3 -0.4,0.5 -0.1,0.7 0.6,0.7 1.1,0.8 m -5.7,-5.1 -0.1,0.7 0.5,0.7 0.5,0.4 0.9,0.2 1.1,-0.4 1.1,-1 0.8,-1.2 0.5,-1.2 -0.2,-0.8 -0.5,-0.8 -0.3,-0.2 -0.9,-0.2 -0.8,0.1 -0.8,0.6 -0.2,0.2 -0.2,0.9 0.1,0.9 0.6,0.7 0.2,0.2 0.9,0.3 0.9,-0.2 0.7,-0.5 m -29.1,4.5 -0.3,-0.9 -0.5,-0.3 -0.6,-0.1 -0.7,0.3 -0.3,0.6 -0.3,1.2 -0.3,0.9 -0.6,0.6 -0.6,0.3 h -0.9 l -0.6,-0.4 -0.3,-0.3 -0.3,-0.9 V 211 l 0.4,-0.9 0.3,-0.3 0.6,-0.2 h 0.9 l 0.6,0.3 0.5,0.6 0.3,0.9 0.3,1.2 0.3,0.6 0.6,0.3 h 0.6 l 0.6,-0.2 0.3,-0.9 V 211 m -0.2,8.1 -6.2,-3.2 m 6.3,-1 -0.1,4.2 m 125.3,-117.9 1,-0.1 0.3,-0.6 0.1,-0.6 -0.2,-0.6 -0.6,-0.4 -1.1,-0.5 -0.8,-0.4 -0.6,-0.7 -0.2,-0.6 0.2,-0.9 0.3,-0.5 0.4,-0.3 0.9,-0.2 1.2,0.2 0.8,0.4 0.3,0.4 0.2,0.6 -0.1,0.9 -0.4,0.5 -0.7,0.6 -0.9,0.1 -1.2,0.2 -0.7,0.2 -0.3,0.5 -0.1,0.6 0.2,0.7 0.8,0.4 1.4,0.2 m 48.3,15.4 -0.6,-0.3 -1.2,-0.4 5.5,-3.1 m -70.6,68.4 -0.4,0.8 -0.7,0.5 -0.9,0.2 -0.3,-0.1 -0.9,-0.4 -0.5,-0.7 -0.1,-0.9 v -0.3 l 0.4,-0.8 0.7,-0.6 0.9,-0.1 h 0.3 l 0.9,0.5 0.5,0.6 0.1,1.3 -0.2,1.5 -0.5,1.4 -0.8,0.8 -0.9,0.2 -0.6,-0.1 -0.8,-0.5 -0.3,-0.6 m 7.3,-4.4 -0.9,0.2 -0.7,0.8 -0.5,1.4 -0.2,0.9 0.1,1.6 0.4,0.9 0.9,0.5 0.6,0.1 0.9,-0.2 0.7,-0.8 0.6,-1.4 0.1,-0.9 -0.1,-1.5 -0.4,-1 -0.9,-0.5 h -0.4 m 62.5,-15.5 0.2,0.9 0.6,0.4 0.6,0.1 0.6,-0.2 0.4,-0.6 0.4,-1.1 0.5,-0.9 0.6,-0.5 0.7,-0.2 0.9,0.1 0.5,0.4 0.3,0.3 0.1,0.9 -0.1,1.2 -0.4,0.9 -0.4,0.2 -0.6,0.3 -0.9,-0.2 -0.5,-0.3 -0.6,-0.7 -0.1,-1 -0.2,-1.2 -0.2,-0.6 -0.5,-0.4 -0.6,-0.1 -0.7,0.2 -0.4,0.9 -0.2,1.3 m 3.2,-7.5 0.8,0.4 0.5,0.7 0.2,0.9 v 0.3 l -0.4,0.9 -0.7,0.5 -1,0.1 h -0.3 l -0.8,-0.4 -0.5,-0.7 -0.2,-0.9 v -0.3 l 0.5,-0.9 0.6,-0.5 1.3,-0.1 1.5,0.2 1.4,0.5 0.8,0.7 0.2,0.9 -0.1,0.6 -0.4,0.9 -0.6,0.2 m -103.2,177.4 -0.3,0.6 -0.2,1.3 -3.9,-4.9 m 1.8,6.9 0.5,-0.8 -0.1,-1 -0.7,-1.4 -0.6,-0.7 -1.2,-1 -1,-0.3 -0.9,0.3 -0.4,0.4 -0.6,0.8 0.1,1.1 0.8,1.3 0.5,0.7 1.2,1 1,0.3 0.9,-0.3 0.4,-0.3 m -3.5,1 -0.3,0.6 -0.1,1.3 -4,-4.9 m 87.9,11.6 0.1,0.9 -0.3,0.8 -0.7,0.7 -0.3,0.1 -0.9,0.1 -0.8,-0.3 -0.6,-0.7 -0.2,-0.3 -0.1,-0.9 0.3,-0.8 0.7,-0.6 0.3,-0.2 0.9,-0.1 0.8,0.3 0.8,1 0.6,1.4 0.4,1.4 -0.2,1.1 -0.7,0.7 -0.5,0.2 -1,0.1 -0.5,-0.4 m 3.4,-7.5 -0.6,0.6 -0.1,0.7 0.3,0.5 0.5,0.5 h 0.7 l 1.2,-0.2 0.9,-0.1 0.8,0.3 0.5,0.4 0.4,0.8 v 0.7 l -0.1,0.4 -0.7,0.6 -1.1,0.5 -1,0.1 -0.4,-0.1 -0.5,-0.5 -0.4,-0.8 0.1,-0.6 0.2,-0.8 0.7,-0.7 1,-0.8 0.4,-0.5 0.1,-0.7 -0.3,-0.5 -0.5,-0.4 -1,0.1 -1.2,0.5 m -29.7,-51.5 -0.4,-0.9 0.1,-0.8 0.5,-0.8 0.3,-0.2 0.8,-0.4 0.9,0.1 0.8,0.5 0.2,0.3 0.3,0.8 -0.1,0.9 -0.5,0.8 -0.2,0.2 -0.9,0.3 -0.8,-0.1 -1,-0.7 -1,-1.2 -0.7,-1.3 -0.1,-1.1 0.5,-0.8 0.5,-0.4 0.9,-0.3 0.6,0.3 m -0.7,7.5 -2.6,2.1 -0.1,-3 -0.7,0.6 -0.7,0.1 h -0.4 l -0.8,-0.5 -0.4,-0.5 -0.3,-0.8 0.1,-0.9 0.5,-0.8 0.7,-0.6 0.9,-0.3 h 0.4 l 0.6,0.3 m 106,-38.3 0.6,0.7 0.7,0.1 0.5,-0.2 0.5,-0.5 v -0.7 l -0.1,-1.2 -0.1,-1 0.4,-0.8 0.4,-0.4 0.9,-0.4 0.6,0.1 0.4,0.2 0.6,0.7 0.5,1.1 v 0.9 l -0.2,0.4 -0.4,0.5 -0.8,0.4 -0.7,-0.1 -0.8,-0.3 -0.6,-0.8 -0.7,-1 -0.5,-0.4 -0.7,-0.1 -0.5,0.2 -0.5,0.5 0.1,1 0.5,1.2 m -2.1,-5.1 0.7,0.7 0.6,0.1 0.6,-0.2 0.4,-0.5 0.1,-0.7 -0.2,-1.2 v -1 l 0.3,-0.7 0.5,-0.5 0.8,-0.4 0.7,0.1 0.4,0.2 0.6,0.7 0.4,1.1 0.1,1 -0.2,0.4 -0.5,0.5 -0.8,0.3 -0.7,-0.1 -0.7,-0.3 -0.6,-0.8 -0.8,-1 -0.5,-0.4 -0.6,-0.1 -0.6,0.3 -0.4,0.4 v 1 l 0.5,1.3 m -35.8,-10.6 0.4,-0.9 -0.2,-0.6 -0.4,-0.4 -0.6,-0.3 -0.7,0.2 -1,0.6 -0.9,0.4 h -0.8 l -0.7,-0.3 -0.6,-0.6 -0.2,-0.7 V 239 l 0.5,-0.8 0.9,-0.8 0.8,-0.4 h 0.5 l 0.6,0.2 0.6,0.7 0.2,0.6 v 0.9 l -0.5,0.8 -0.7,1 -0.2,0.7 0.2,0.6 0.4,0.5 0.6,0.2 0.9,-0.4 1,-0.9 m -6.2,4.5 0.6,0.2 0.9,-0.4 0.4,-0.4 0.5,-0.8 -0.2,-1.1 -0.8,-1.3 -1,-1.1 -1.1,-0.6 -0.8,-0.1 -0.9,0.4 -0.2,0.2 -0.4,0.9 -0.1,0.8 0.4,0.9 0.2,0.2 0.9,0.4 0.8,0.1 0.9,-0.4 0.2,-0.2 0.5,-0.9 v -0.8 l -0.4,-0.9 m 64.5,80.2 1,0.2 0.6,0.5 0.5,0.9 v 0.3 l -0.2,0.9 -0.5,0.7 -0.8,0.4 H 509 l -1,-0.1 -0.7,-0.6 -0.4,-0.8 v -0.3 l 0.2,-0.9 0.5,-0.7 1.1,-0.5 1.5,-0.2 1.6,0.1 0.9,0.5 0.4,0.9 0.1,0.6 -0.2,0.9 -0.5,0.4 m -6.5,-7.6 0.4,3 2.7,-0.1 -0.3,-0.2 -0.4,-0.9 -0.1,-0.9 0.2,-0.9 0.5,-0.7 0.8,-0.4 0.6,-0.1 1,0.2 0.6,0.5 0.4,0.9 0.2,0.9 -0.2,0.9 -0.3,0.3 -0.5,0.4 m -25.9,15.1 -0.3,0.9 -0.7,0.5 -0.9,0.3 -0.3,-0.1 -0.9,-0.3 -0.5,-0.7 -0.3,-0.9 0.1,-0.3 0.3,-0.9 0.7,-0.5 0.9,-0.3 0.3,0.1 0.9,0.3 0.5,0.7 0.2,1.2 -0.1,1.5 -0.4,1.5 -0.6,0.8 -1,0.3 -0.6,-0.1 -0.8,-0.3 -0.3,-0.7 m 8.7,-3.9 -0.3,-0.6 -0.9,-0.4 h -0.6 l -0.9,0.2 -0.7,0.9 -0.4,1.5 -0.1,1.5 0.2,1.2 0.6,0.6 0.9,0.4 h 0.3 l 0.9,-0.2 0.6,-0.6 0.4,-0.9 v -0.3 l -0.2,-0.9 -0.6,-0.6 -0.8,-0.4 h -0.3 l -1,0.2 -0.6,0.6 -0.4,0.9"
       id="nums_001"
       stroke="#000000"
       stroke-width="1" />
    <path
       d="m 462.4,371.3 -18.1,60.6 9.5,47.2 -2.5,96.6 -8.4,73 -80.8,-105.4 26.3,-38 -53.8,-64.2 -61,-55.9 -59.8,61.6 73.1,-44.9 59,58.1 -38.8,37.8 -74.3,-12.9 -140.4,2.2 3.4,73.6 L 27.2,536 19,417.9 l 19.9,-60 -14.1,-79.5 -7,-89.5 57.5,-74.2 63.6,13.7 56.5,-37.5 67.4,-3.4 76.2,-1.1 92.5,13 14.8,25.7 -10,73 -138.8,-21.2 -74.6,-11 -27.5,46.8 -83.4,6.7 -45.1,10.1 34,128.4 22,-70.1 76.3,12.3 3.6,52.9 53.2,-34.3 -50.6,-38 45.4,-27.4 1.8,-77.2 77.9,54.7 5.4,70.1 -36.5,57.6 53.1,-42.9 54.2,-44.6 69.6,-65 35.2,89.9 6.3,47.8 -63,-4.4 -76.9,35.2 z"
       id="coupes_001"
       stroke="#ff0000"
       stroke-width="1.27"
       sodipodi:nodetypes="ccccccccccccccccccccccccccccccccccccccccccccccccccccc" />
    <path
       d="m 38.9,357.9 h 62 m 0,0 -81.9,60 m 5.8,-139.5 76.1,79.5 M 92.4,487.1 19,417.9 m 5.8,-139.5 42.1,-48.9 m 34,128.4 101.9,-4.9 m 0,0 -110.4,134.1 m 0,0 -65.2,48.9 m 175.6,-183 11,93.8 m 0,0 -121.4,40.3 M 17.8,188.9 112,219.4 m 144,99.3 -42.2,128.1 m 0,0 19,38.1 M 75.3,114.7 112,219.4 m 144,99.3 17.6,66.5 m 13.3,16.7 -54.1,83 m -93.9,-356.5 -26.9,91 m 144,99.3 43.4,39.8 m 0,0 -25.8,26.7 m 13.3,16.7 20.2,95.9 m -168.2,-369.4 84,37.5 m 33.1,152.8 79.9,-17.8 m -36.5,57.6 35.2,82.6 M 195.4,90.9 l 27.5,75 m 155,208.6 -43.3,66.6 m -35.2,-82.6 78.5,16 m 66.4,57.4 -109.7,9.2 m 43.3,-66.6 66.4,57.4 m 9.5,47.2 -65.4,26.2 m 62.9,70.4 -89.2,-32.4 M 262.8,87.5 222.9,165.9 m 33.1,152.8 74.5,-87.9 m -74.5,87.9 -5.2,-65.4 m 0,0 79.7,-22.5 M 262.8,87.5 297.5,176.9 M 339,86.4 297.5,176.9 m 134,-77.5 -134,77.5 m 148.8,-51.8 -148.8,51.8 m 55,138.7 25.4,58.9 m -25.4,-58.9 102.3,23.7 m -48.1,-68.3 48.1,68.3 m 56.7,-43.4 -56.7,43.4 M 406.7,271 511.5,295.9"
       id="plisM_001"
       stroke="#a52a2a"
       stroke-dasharray="4" />
    <path
       d="M 100.9,357.9 92.4,487.1 M 17.8,188.9 66.9,229.5 m 156,-63.6 -110.9,53.5 m 341.8,259.7 -119.2,-38 M 451.3,575.7 388.4,505.3 M 122.9,287.8 202.8,353"
       id="plisV_001"
       stroke="#008000"
       stroke-dasharray="4, 1, 1, 1"
       stroke-width="1.27" />
    <path
       d="m 94.6,420.5 4,4 m 0,-4 -4,4 m -54.3,-217.3 4,4 m 0,-4 -4,4 m 125.2,-20.5 4,4 m 0,-4 -4,4 m 226.7,263.4 4,4 m 0,-4 -4,4 m 25.7,76.4 4,4 m 0,-4 -4,4 m -257,-224.1 4,4 m 0,-4 -4,4"
       id="marqueV_001"
       stroke="#008000" />
    <path
       d="m 274,345.3 1.5,-0.8 2.3,-2.2 V 358"
       id="titre_1"
       stroke="#4b0082" />
  </g>
  <g
     id="page_002">
    <path
       d="m 849.9,262.2 -0.2,-0.7 -0.8,-0.9 6.2,0.5 m -4.9,-1.5 -0.3,-0.6 -0.8,-1 6.3,0.6 m -65.2,-32.4 -1,-0.1 -0.7,-0.4 -0.6,-0.8 -0.1,-0.2 0.1,-1 0.4,-0.7 0.7,-0.6 0.3,-0.1 1,0.1 0.7,0.4 0.6,0.8 0.1,0.2 -0.1,1 -0.4,0.7 -1,0.7 -1.5,0.4 -1.5,0.1 -1,-0.3 -0.6,-0.8 -0.2,-0.5 0.1,-1 0.5,-0.5 m 68.9,-75.9 -0.5,0.4 -0.8,1 -0.8,-6.3 m -2.1,6.9 0.8,-0.4 0.5,-1 0.1,-1.5 -0.1,-0.9 -0.5,-1.5 -0.7,-0.8 -0.9,-0.2 -0.6,0.1 -0.9,0.4 -0.4,1 -0.2,1.5 0.2,0.9 0.5,1.5 0.7,0.8 0.9,0.2 0.4,-0.1 m 9.4,30.7 -0.2,-0.7 -0.7,-1 6.2,1 m -4.9,-1.9 -0.2,-0.6 -0.7,-1 6.2,0.9 m -60.1,-70.4 -0.5,0.3 -0.9,1 -0.5,-6.3 m -1.2,5.1 v 0.3 l -0.3,0.7 -0.2,0.3 -0.6,0.3 -1.2,0.1 -0.6,-0.2 -0.3,-0.3 -0.4,-0.6 v -0.6 l 0.2,-0.6 0.5,-0.9 2.8,-3.3 -4.2,0.4 m 23.1,22.2 -0.3,-0.6 -0.8,-0.9 6.3,0.3 m -6.4,-3.3 0.3,0.9 0.8,0.7 1.5,0.3 0.9,0.1 1.5,-0.2 1,-0.6 0.3,-0.9 v -0.6 l -0.2,-0.9 -0.9,-0.6 -1.5,-0.4 -0.9,-0.1 -1.5,0.3 -0.9,0.5 -0.4,0.9 v 0.4 m -63.4,70.4 -0.5,0.7 -0.8,0.4 -0.9,0.1 -0.3,-0.1 -0.8,-0.6 -0.4,-0.7 v -1 l 0.1,-0.3 0.5,-0.7 0.8,-0.4 0.9,-0.1 0.3,0.1 0.8,0.6 0.4,0.7 -0.1,1.3 -0.4,1.4 -0.7,1.3 -0.9,0.7 -0.9,0.1 -0.6,-0.2 -0.8,-0.6 -0.1,-0.6 m 7.3,-48.3 0.2,0.1 0.4,0.5 0.2,0.4 v 0.7 l -0.6,1.1 -0.5,0.4 -0.4,0.1 h -0.7 l -0.5,-0.2 -0.4,-0.6 -0.6,-0.9 -1.3,-4 -1.9,3.7 m 3.8,6.7 -2.4,-4.5 -2,4 m 4.4,0.5 -5.6,-2.8 m -8.5,202.8 0.2,-0.2 0.7,0.1 0.4,0.1 0.5,0.5 0.5,1.1 v 0.6 l -0.2,0.4 -0.4,0.5 -0.6,0.3 -0.6,-0.1 -1.1,-0.1 -4,-1.6 1.7,3.9 m 7.9,2.2 -7,-0.2 m 5.3,-3.7 1.7,3.9 m 14.7,-76.5 0.2,0.2 0.2,0.6 v 0.5 l -0.3,0.6 -0.9,0.8 -0.6,0.1 H 761 l -0.7,-0.2 -0.4,-0.5 -0.1,-0.6 -0.2,-1.1 0.3,-4.2 -3.1,2.7 m 0.9,7.6 -0.5,-5.1 -3.4,2.9 m 3.9,2.2 -4.1,-4.7 m 52.4,130.4 0.1,-3.3 2.3,1.9 0.1,-0.9 0.3,-0.6 0.3,-0.3 0.9,-0.3 0.6,0.1 0.9,0.3 0.6,0.6 0.2,0.9 v 0.9 l -0.3,0.9 -0.3,0.3 -0.7,0.3 m -4.7,-7.4 0.2,0.9 0.9,0.7 1.5,0.3 0.9,0.1 1.5,-0.3 0.9,-0.5 0.4,-0.9 v -0.6 l -0.3,-0.9 -0.9,-0.7 -1.4,-0.3 -0.9,-0.1 -1.5,0.3 -1,0.5 -0.3,0.9 v 0.5 m -54.7,24.6 0.2,0.1 0.4,0.6 0.1,0.4 v 0.7 l -0.6,1 -0.5,0.4 -0.4,0.1 h -0.7 l -0.5,-0.3 -0.4,-0.6 -0.5,-0.9 -1.2,-4.1 -2,3.7 m 4.2,5.3 0.2,-0.9 -0.4,-0.5 -0.5,-0.3 -0.7,-0.1 -0.5,0.4 -0.9,0.9 -0.7,0.7 -0.8,0.2 h -0.7 l -0.8,-0.5 -0.3,-0.5 -0.2,-0.4 0.2,-1 0.6,-1 0.7,-0.7 0.4,-0.1 0.7,0.1 0.8,0.4 0.3,0.5 0.3,0.9 -0.2,0.9 -0.3,1.2 v 0.7 l 0.3,0.5 0.6,0.3 h 0.6 l 0.7,-0.6 0.7,-1.2 m -46.3,143.6 1.9,2.7 -3,-0.1 0.5,0.7 0.1,0.7 -0.1,0.4 -0.6,0.8 -0.5,0.3 -0.9,0.3 -0.8,-0.2 -0.8,-0.6 -0.5,-0.7 -0.2,-0.9 v -0.4 l 0.4,-0.6 m 6,2.3 0.6,0.3 1.2,0.2 -5.2,3.6 M 830.2,468 l -0.2,0.3 -0.5,0.4 -0.4,0.2 h -0.6 l -1.1,-0.4 -0.5,-0.5 -0.1,-0.4 -0.1,-0.7 0.3,-0.6 0.5,-0.4 0.9,-0.6 3.9,-1.6 -3.9,-1.6 m -6.2,1.9 0.6,-0.7 0.8,-0.3 h 0.9 l 0.3,0.1 0.7,0.7 0.3,0.8 -0.1,0.9 -0.1,0.3 -0.6,0.7 -0.8,0.3 -0.9,-0.1 -0.3,-0.1 -0.7,-0.6 -0.3,-0.8 0.2,-1.2 0.5,-1.4 0.9,-1.3 0.9,-0.6 1,0.1 0.5,0.3 0.7,0.6 0.1,0.7 m -18,60.6 -0.2,-0.2 -0.4,-0.5 -0.2,-0.4 v -0.7 l 0.6,-1 0.5,-0.5 0.4,-0.1 h 0.7 l 0.5,0.3 0.4,0.5 0.6,0.9 1.3,4 1.9,-3.7 m -2.8,-6.7 h -0.7 l -0.6,0.7 -0.3,0.6 -0.1,0.9 0.5,0.9 1.2,1 1.4,0.6 1.2,0.3 0.8,-0.3 0.7,-0.7 0.1,-0.2 0.1,-1 -0.2,-0.8 -0.7,-0.6 -0.3,-0.2 -0.9,-0.1 -0.8,0.3 -0.7,0.6 -0.1,0.3 -0.2,1 0.3,0.8 0.7,0.6 m -151.3,9.1 2.1,2.6 -3,0.1 0.6,0.7 0.1,0.6 v 0.5 l -0.5,0.8 -0.5,0.4 -0.9,0.3 -0.8,-0.1 -0.8,-0.5 -0.6,-0.7 -0.3,-0.9 v -0.4 l 0.3,-0.6 m 6.5,2.2 0.2,-0.2 0.7,-0.1 h 0.4 l 0.6,0.3 0.8,0.9 0.1,0.7 v 0.4 l -0.3,0.6 -0.4,0.4 -0.7,0.2 -1.1,0.1 -4.2,-0.5 2.7,3.3 M 843.8,378 l 0.2,-0.3 0.5,-0.4 0.5,-0.1 0.6,0.1 1,0.6 0.4,0.6 0.1,0.4 v 0.7 l -0.4,0.5 -0.5,0.3 -1,0.5 -4.1,1 3.6,2.2 m 3.4,-3.6 h 0.7 l 1.2,-0.3 -3.2,5.4 m 41.2,8.6 0.5,-0.3 0.8,-1.1 0.9,6.3 m 4.2,-7.2 -2.1,6.7 m -2.1,-6.1 4.2,-0.6 m -8,-93.2 -0.5,0.4 -0.6,1.2 -1.8,-6.1 m -0.2,5.3 0.1,0.3 -0.1,0.6 -0.2,0.4 -0.5,0.5 -1.2,0.3 -0.7,-0.1 -0.3,-0.2 -0.5,-0.5 -0.1,-0.6 0.1,-0.7 0.3,-1 2.1,-3.7 -4.1,1.2 m 67.7,96 v -0.3 l 0.4,-0.6 0.3,-0.3 0.6,-0.3 1.2,0.1 0.6,0.3 0.3,0.3 0.2,0.6 v 0.6 l -0.3,0.6 -0.6,0.9 -3.1,2.9 4.2,0.1 m 1.9,-6.2 3.3,0.1 -1.9,2.3 0.9,0.1 0.6,0.3 0.3,0.3 0.3,0.9 v 0.6 l -0.4,0.9 -0.6,0.6 -0.9,0.3 -0.9,-0.1 -0.9,-0.3 -0.3,-0.3 -0.3,-0.6 m 2.4,-77.4 -0.2,0.2 -0.5,0.4 -0.4,0.1 h -0.7 l -1.1,-0.6 -0.3,-0.5 -0.1,-0.5 v -0.6 l 0.3,-0.5 0.5,-0.4 1,-0.5 4.1,-1.2 -3.7,-2 m -7.6,2.9 5.7,-4 m -2,6.1 -3.7,-2.1 m 40.6,56.4 h -0.3 l -0.5,-0.4 -0.3,-0.3 -0.2,-0.7 0.1,-1.1 0.4,-0.6 0.3,-0.3 0.7,-0.2 0.6,0.1 0.5,0.3 0.8,0.7 2.7,3.4 0.5,-4.2 m -6,-3.4 0.2,1 0.6,0.3 0.6,0.1 0.6,-0.2 0.4,-0.6 0.4,-1.1 0.4,-0.9 0.7,-0.5 0.6,-0.2 0.9,0.1 0.6,0.3 0.2,0.4 0.2,0.9 -0.1,1.2 -0.4,0.8 -0.4,0.3 -0.6,0.2 -0.9,-0.1 -0.5,-0.3 -0.6,-0.7 -0.2,-0.9 -0.1,-1.3 -0.2,-0.6 -0.6,-0.4 h -0.6 l -0.6,0.2 -0.4,0.8 -0.2,1.4 m -281.4,74.8 -0.3,0.2 -0.7,0.1 -0.4,-0.1 -0.6,-0.3 -0.6,-1 -0.1,-0.6 v -0.5 l 0.4,-0.5 0.4,-0.4 0.7,-0.1 h 1.1 l 4.2,0.8 -2.4,-3.5 m -6.2,2.2 -1.9,-2.7 3,0.1 -0.5,-0.8 -0.1,-0.6 0.1,-0.4 0.6,-0.8 0.4,-0.3 1,-0.3 0.8,0.1 0.7,0.6 0.6,0.7 0.2,0.9 v 0.5 l -0.4,0.6 m -59.6,40 h 0.3 l 0.6,0.3 0.3,0.3 0.3,0.6 v 1.2 l -0.3,0.6 -0.3,0.3 -0.6,0.3 h -0.6 l -0.6,-0.3 -0.9,-0.6 -3.1,-2.9 0.1,4.2 m 4.9,1.6 0.3,-0.1 0.6,0.3 0.3,0.3 0.3,0.6 v 1.2 l -0.3,0.6 -0.3,0.3 -0.6,0.3 -0.6,0.1 -0.6,-0.3 -0.9,-0.6 -3,-2.9 v 4.1 m -21.5,-64 0.6,0.2 h 1.3 l -4.3,4.6 m 7.9,-1.6 -2.2,-2 -2.1,1.8 0.5,-0.1 0.8,0.4 0.7,0.6 0.4,0.9 0.1,0.8 -0.4,0.9 -0.4,0.4 -0.9,0.5 h -0.8 l -0.9,-0.4 -0.7,-0.6 -0.4,-0.8 v -0.5 l 0.2,-0.6 m 59.4,-38.6 -0.4,-0.6 -1,-0.8 6.3,-0.5 m -6.9,-4.7 6.5,2.5 m -6.2,1.7 -0.3,-4.2 m 15.7,-45.4 -0.3,-0.2 -0.4,-0.6 -0.1,-0.4 0.1,-0.6 0.6,-1.1 0.6,-0.3 0.4,-0.1 h 0.7 l 0.5,0.3 0.3,0.6 0.5,1 1,4.1 2.2,-3.6 m -3.7,-3.4 0.1,-0.7 -0.3,-1.2 5.4,3.2 m -55.6,-41.5 0.3,0.1 0.6,0.3 0.2,0.3 0.3,0.6 -0.1,1.2 -0.3,0.6 -0.3,0.3 -0.6,0.2 h -0.6 l -0.6,-0.3 -0.9,-0.7 -2.8,-3.2 -0.2,4.2 m 3.9,5.3 -0.9,-0.3 -0.6,-0.7 -0.2,-0.9 v -0.3 l 0.3,-0.9 0.7,-0.5 0.9,-0.3 0.3,0.1 0.9,0.3 0.5,0.6 0.3,1 v 0.3 l -0.4,0.8 -0.6,0.6 -1.2,0.2 -1.5,-0.1 -1.5,-0.3 -0.9,-0.7 -0.2,-0.9 V 295 l 0.4,-0.9 0.6,-0.3 m 39.4,5.7 -3.1,-1.1 2.5,-1.7 -0.8,-0.3 -0.5,-0.4 -0.2,-0.4 0.1,-1 0.2,-0.5 0.5,-0.8 0.8,-0.4 0.9,0.1 0.9,0.3 0.7,0.5 0.2,0.4 0.1,0.7 m -8.4,2.4 h 0.9 l 0.9,-0.6 0.8,-1.3 0.3,-0.9 0.2,-1.5 -0.3,-1 -0.7,-0.6 -0.6,-0.2 h -0.9 l -0.9,0.6 -0.8,1.3 -0.3,0.9 -0.2,1.5 0.3,1 0.7,0.6 0.4,0.2 m -73.1,56.7 0.2,0.2 0.2,0.6 v 0.5 l -0.2,0.6 -0.9,0.8 -0.7,0.2 h -0.4 l -0.6,-0.2 -0.4,-0.5 -0.2,-0.6 -0.2,-1.1 0.1,-4.2 -3,2.9 m 0.2,7.2 0.7,0.2 0.8,-0.4 0.5,-0.4 0.4,-0.9 -0.2,-1 -0.8,-1.3 -1,-1.1 -1.1,-0.7 h -0.8 l -0.9,0.4 -0.2,0.2 -0.4,0.9 -0.1,0.8 0.4,0.9 0.2,0.2 0.9,0.4 0.8,0.1 0.9,-0.4 0.2,-0.3 0.5,-0.8 v -0.8 l -0.4,-0.9 m -16.1,62 0.6,0.2 1.3,0.1 -4.6,4.3 m 7.3,-0.4 0.2,-0.6 -0.4,-0.9 -0.4,-0.4 -0.8,-0.5 -1.1,0.2 -1.3,0.8 -1.1,1 -0.6,1.1 v 0.8 l 0.4,0.9 0.2,0.2 0.8,0.5 h 0.8 l 0.9,-0.4 0.2,-0.2 0.5,-0.9 v -0.8 l -0.4,-0.9 -0.2,-0.2 -0.8,-0.4 -0.9,-0.1 -0.9,0.4 m 16.6,15.2 -0.4,-0.6 -1.1,-0.7 6.3,-1 m -7.2,-3.2 4.6,2.3 -0.7,-4.4 m -3.9,2.1 6.2,-1 m 154.5,200.1 0.1,-0.2 0.6,-0.4 0.4,-0.1 h 0.6 l 1.1,0.6 0.4,0.6 0.1,0.4 -0.1,0.6 -0.3,0.6 -0.5,0.3 -1,0.5 -4.1,1.2 3.7,2 m 7.2,-3.1 -2.6,-1.5 -1.6,2.2 0.4,-0.1 0.9,0.2 0.8,0.4 0.7,0.7 0.2,0.8 -0.2,1 -0.3,0.5 -0.7,0.6 -0.8,0.3 -0.9,-0.2 -0.8,-0.5 -0.7,-0.7 -0.1,-0.4 0.1,-0.7 m 151.3,12.3 0.2,-0.7 -0.2,-1.2 4.9,3.9 m -4,-5.4 2.1,-2.6 0.7,2.9 0.6,-0.7 0.6,-0.3 0.4,-0.1 0.9,0.4 0.5,0.3 0.5,0.8 0.1,0.9 -0.3,0.9 -0.6,0.7 -0.8,0.5 h -0.4 l -0.7,-0.1 m -86.6,36 -0.8,-0.5 -0.6,0.2 -0.5,0.5 -0.2,0.6 0.2,0.6 0.6,1.1 0.5,0.9 -0.1,0.8 -0.2,0.6 -0.6,0.7 -0.7,0.2 h -0.4 l -0.8,-0.5 -0.9,-0.8 -0.4,-0.9 v -0.4 l 0.2,-0.6 0.7,-0.7 0.6,-0.2 h 0.9 l 0.8,0.5 1.1,0.6 0.6,0.2 0.6,-0.2 0.5,-0.4 0.2,-0.6 -0.4,-0.9 -1,-0.9 m 40.3,12.7 2.8,6.4 m -5.6,-3.2 2.8,-3.2 m 82,-103.2 0.1,-0.7 -0.3,-1.2 5.3,3.4 m -4.1,-5.8 -0.2,1 0.4,0.5 0.5,0.4 h 0.6 l 0.6,-0.3 0.9,-0.9 0.7,-0.6 0.9,-0.2 0.6,0.1 0.8,0.5 0.3,0.6 0.1,0.4 -0.2,0.9 -0.6,1 -0.8,0.6 -0.4,0.1 -0.6,-0.1 -0.8,-0.4 -0.4,-0.6 -0.1,-0.8 0.2,-1 0.4,-1.1 v -0.7 l -0.3,-0.6 -0.5,-0.3 -0.7,-0.1 -0.7,0.6 -0.7,1.2 m -122.7,-45.1 -0.1,0.6 0.1,1.3 -5,-3.8 m 1.6,7.2 0.7,0.1 0.8,-0.5 0.3,-0.5 0.3,-0.9 -0.3,-1 -1,-1.2 -1.2,-0.9 -1.2,-0.4 -0.8,0.1 -0.8,0.5 -0.2,0.3 -0.3,0.9 0.1,0.8 0.6,0.8 0.2,0.2 0.9,0.3 0.9,-0.2 0.7,-0.5 0.2,-0.2 0.3,-0.9 -0.1,-0.9 -0.5,-0.8 m 62.4,-63.5 -2.3,2.3 -0.4,-3 -0.7,0.6 -0.6,0.2 H 877 l -0.9,-0.4 -0.4,-0.4 -0.4,-0.9 v -0.8 l 0.5,-0.9 0.6,-0.6 0.9,-0.4 h 0.4 l 0.6,0.2 m 45.1,-2 5.2,-0.2 -2.8,-3.6 m -2.4,3.8 5,-3.9 m 73.4,95.5 -3,-0.2 -0.5,2.7 0.3,-0.3 0.9,-0.2 h 0.9 l 0.9,0.4 0.5,0.6 0.3,1 -0.1,0.6 -0.4,0.8 -0.6,0.6 -0.9,0.2 -0.9,-0.1 -0.9,-0.3 -0.3,-0.3 -0.2,-0.7 m 30.6,-13.8 3.8,3.6 0.6,-4.5 m -4.4,0.9 6.3,0.9 m -5.5,-6.6 3.8,3.5 0.6,-4.4 m -4.4,0.9 6.3,0.8 m -39.6,-27.5 1,0.1 0.5,-0.5 0.2,-0.5 v -0.7 l -0.4,-0.5 -1,-0.8 -0.7,-0.6 -0.3,-0.8 -0.1,-0.6 0.4,-0.9 0.5,-0.4 0.4,-0.2 0.9,0.1 1.1,0.5 0.8,0.6 0.1,0.4 v 0.7 l -0.3,0.8 -0.5,0.5 -0.8,0.3 -1,-0.1 -1.2,-0.2 h -0.6 l -0.6,0.5 -0.2,0.5 v 0.7 l 0.7,0.6 1.3,0.5 m -4.2,-1.8 -3.1,-1.3 2.7,-1.5 -0.9,-0.3 -0.4,-0.5 -0.2,-0.4 0.1,-1 0.3,-0.5 0.6,-0.7 0.8,-0.4 0.9,0.1 0.8,0.4 0.8,0.6 0.1,0.4 v 0.7"
       id="nums_002"
       stroke="#000000"
       stroke-width="1" />
    <path
       d="m 966,572.3 -27.2,43.3 -53.2,67.2 -35.9,41.4 -65.1,-67 -66.4,-37.5 -37.9,-55.9 -42.9,-52.5 -1.3,-65 -41.5,-38.7 7.3,47.5 -57,-60.4 88.7,-84.4 2.1,-34.1 79.3,28 -34.1,56.5 3.1,40.2 43.4,62.3 31.8,-57.6 -40.7,-92.7 72.3,-62.9 -13.9,-47.1 -47,-14.4 42.6,-85.9 56.9,-4.9 -2.4,46.7 46.4,-6 -12.6,81.1 -7.6,81.6 54.9,-15.8 88.2,49.6 -7.8,65.3 -75.8,-2.6 -39.9,5.8 -56.5,-34.2 -3.7,84 31.4,13.4 -53.9,109.9 49.9,-66.5 68.6,-66.6 43.2,53.9 88.1,38.1 -5.8,42.2 z"
       id="coupes_002"
       stroke="#ff0000"
       stroke-width="1.27"
       sodipodi:nodetypes="cccccccccccccccccccccccccccccccccccccccccccc" />
    <path
       d="M 816.3,369.2 790.8,250 m 0,0 70,-30.5 m -83.9,-16.6 83.9,16.6 M 776.9,202.9 827,144.4 m 0,0 33.8,75.1 m -83.9,-16.6 -4.4,-100.3 m 0,0 54.5,41.8 M 759.2,405.6 790.8,250 m 21.8,203.2 -53.4,-47.6 m 53.4,47.6 -132.3,110.6 m 0,0 47.1,-100.6 m 85.2,-10 -94.4,166.5 m -80.8,-108.4 90,-48.1 m 125.8,-162.1 19.6,102.3 m -19.6,-102.3 59.5,96.5 m -4.6,-112.3 4.6,112.3 m -4.6,-112.3 80.4,114.9 M 637.4,511.3 684,400.9 m -47.9,45.4 47.9,-45.4 m -89.4,6.7 86.3,-46.9 m -86.3,46.9 39,-97.3 m 0,0 47.3,50.4 m -47.3,-50.4 81.4,-6.1 m 75.1,272.3 148.7,39.1 m 0,0 -154.2,41.6 m 101,25.6 -101,-25.6 m 5.5,-80.7 175.9,-4.2 M 840,510 966,572.3 m -14.2,-75 14.2,75 M 840,510 951.8,497.3 m 0,0 82.3,80.3"
       id="plisM_002"
       stroke="#a52a2a"
       stroke-dasharray="4" />
    <path
       d="m 853.2,301.1 -36.9,68.1 M 790.8,250 l 62.4,51.1 m -36.9,68.1 -57.1,36.4 m 53.4,47.6 -85.2,10 M 844,466.6 718.2,619.7 m 71.9,-43.2 -71.9,43.2 M 594.6,407.6 684,400.9 m -89.4,6.7 -49.7,-12.9 m 245.2,181.8 -5.5,80.7"
       id="plisV_002"
       stroke="#008000"
       stroke-dasharray="4, 1, 1, 1"
       stroke-width="1.27" />
    <path
       d="m 832.7,333.2 4,4 m 0,-4 -4,4 m -12.7,-63.6 4,4 m 0,-4 -4,4 m -34.3,107.8 4,4 m 0,-4 -4,4 m -17.7,66.8 4,4 m 0,-4 -4,4 m 11.1,80.9 4,4 m 0,-4 -4,4 m -26.9,51 4,4 m 0,-4 -4,4 m -114.9,-197.8 4,4 m 0,-4 -4,4 m -69.5,-7.2 4,4 m 0,-4 -4,4 m 217.5,211.7 4,4 m 0,-4 -4,4"
       id="marqueV_002"
       stroke="#008000" />
    <path
       d="M 791.5,400.7 V 400 l 0.7,-1.5 0.8,-0.8 1.5,-0.7 h 3 l 1.5,0.7 0.7,0.8 0.8,1.5 v 1.5 l -0.8,1.5 -1.5,2.2 -7.5,7.5 h 10.5"
       id="titre_2"
       stroke="#4b0082" />
  </g>
  <g
     id="page_003">
    <path
       d="m 1407.6,616 1.1,-3.1 1.7,2.5 0.3,-0.9 0.5,-0.5 0.4,-0.1 h 0.9 l 0.6,0.2 0.7,0.6 0.4,0.7 v 1 l -0.3,0.8 -0.6,0.8 -0.4,0.2 h -0.7 m -2.8,-7.3 1.1,-3.1 1.7,2.5 0.3,-0.8 0.4,-0.5 0.4,-0.2 h 1 l 0.5,0.2 0.8,0.6 0.4,0.8 -0.1,0.9 -0.3,0.9 -0.5,0.7 -0.4,0.2 -0.7,0.1 m -80.5,-127.3 -0.9,3.2 -1.8,-2.4 -0.2,0.9 -0.5,0.5 -0.4,0.2 h -0.9 l -0.6,-0.1 -0.8,-0.6 -0.4,-0.7 V 486 l 0.2,-0.9 0.5,-0.8 0.4,-0.2 0.6,-0.1 m 2.5,10.4 -5.3,-4.6 m 6.4,0.5 -1.1,4.1 m 74.6,-7.7 2.2,4.7 2.2,-3.9 m -4.4,-0.8 5.5,3.1 m -3.3,-6.9 -0.1,0.9 0.5,1 1.1,1 0.8,0.4 1.4,0.5 1.1,-0.1 0.7,-0.6 0.3,-0.5 0.2,-1 -0.5,-0.9 -1.1,-1 -0.8,-0.5 -1.5,-0.5 -1.1,0.1 -0.7,0.6 -0.2,0.4 m 14.1,-91.9 1.4,-4.9 -4.3,1.5 m 2.9,3.4 -2.2,-5.9 m -1.3,5.6 0.1,0.2 -0.1,0.7 -0.2,0.4 -0.4,0.5 -1.2,0.4 -0.6,-0.1 -0.4,-0.2 -0.5,-0.4 -0.2,-0.6 0.1,-0.6 0.2,-1.1 1.8,-3.8 -3.9,1.4 m 14.1,30.1 4,3.3 0.3,-4.5 m -4.3,1.2 6.3,0.5 m -6,-3.7 0.2,-3.3 2.3,2 V 412 l 0.4,-0.6 0.3,-0.3 0.9,-0.2 h 0.6 l 0.9,0.4 0.5,0.6 0.3,0.9 -0.1,0.9 -0.3,0.9 -0.4,0.3 -0.6,0.3 m -34.8,-45.4 2.2,4.7 2.2,-4 m -4.4,-0.7 5.5,3.1 m -2.6,-5.1 -0.3,-0.1 -0.4,-0.6 -0.1,-0.4 V 366 l 0.6,-1 0.6,-0.4 0.4,-0.1 h 0.6 l 0.6,0.3 0.4,0.6 0.5,0.9 1.1,4.1 2.1,-3.7 m -84.9,-57.7 -0.9,-0.4 -1,0.1 -1.3,0.8 -0.7,0.6 -0.9,1.2 -0.3,1.1 0.4,0.9 0.4,0.4 0.9,0.5 1,-0.2 1.3,-0.8 0.7,-0.6 0.9,-1.2 0.3,-1.1 -0.4,-0.8 -0.3,-0.4 m -18.9,-89 2.9,-6.4 m 1.3,6.3 -4.2,0.1 m -33,5.6 -0.3,0.6 -0.2,1.3 -3.7,-5.1 m 11.2,31.2 0.3,-0.1 0.6,-0.1 0.5,0.1 0.5,0.3 0.7,1 0.1,0.7 -0.1,0.4 -0.3,0.6 -0.5,0.3 -0.7,0.1 h -1.1 l -4.1,-0.9 2.3,3.5 m 140.2,32.4 4.8,-1.9 -3.7,-2.5 m -1.1,4.4 3.5,-5.3 m -7.8,-0.1 0.7,-0.6 0.9,-0.2 0.9,0.3 0.2,0.1 0.6,0.8 0.2,0.8 -0.2,0.9 -0.2,0.3 -0.7,0.6 -0.9,0.2 -0.9,-0.3 -0.2,-0.1 -0.6,-0.8 -0.2,-0.8 0.4,-1.2 0.8,-1.2 1.1,-1.1 1,-0.5 0.9,0.3 0.5,0.3 0.6,0.7 -0.1,0.7 m 32.4,43.7 5.1,0.8 -2,-4 m -3.1,3.2 5.7,-2.8 m -8.4,-2.8 1.4,2.7 2.5,-0.9 -0.4,-0.2 -0.7,-0.6 -0.4,-0.9 -0.1,-0.9 0.3,-0.8 0.7,-0.7 0.5,-0.2 0.9,-0.2 0.8,0.3 0.7,0.7 0.4,0.8 0.1,0.9 -0.1,0.4 -0.4,0.6 m -13.2,16.4 -2.6,4.5 4.5,-0.4 m -1.9,-4.1 0.6,6.3 m 5.8,-5.9 -0.4,-0.5 -0.9,-0.2 h -0.6 l -0.9,0.4 -0.5,0.9 -0.2,1.6 0.1,1.4 0.5,1.2 0.6,0.6 0.9,0.2 h 0.3 l 0.9,-0.4 0.5,-0.7 0.3,-0.9 -0.1,-0.3 -0.3,-0.9 -0.7,-0.5 -0.9,-0.2 h -0.3 l -0.9,0.4 -0.5,0.6 -0.3,0.9 m -31.1,-175.2 -0.2,0.2 -0.5,0.4 -0.4,0.1 -0.7,-0.1 -1,-0.7 -0.4,-0.6 v -0.4 -0.6 l 0.4,-0.5 0.5,-0.4 1,-0.4 4.2,-0.9 -3.5,-2.3 m -5.9,3.7 0.9,0.2 1,-0.4 1.1,-1.1 0.4,-0.7 0.6,-1.5 v -1 l -0.6,-0.8 -0.5,-0.3 -0.9,-0.3 -1,0.5 -1.1,1.1 -0.5,0.7 -0.5,1.4 v 1.1 l 0.6,0.8 0.3,0.2 m -35.2,14.3 -0.2,0.7 0.1,1.2 -4.6,-4.3 m 3.6,5.7 -2.3,2.5 -0.5,-3 -0.6,0.7 -0.7,0.2 h -0.4 l -0.9,-0.4 -0.4,-0.4 -0.4,-0.8 -0.1,-0.9 0.4,-0.8 0.6,-0.7 0.9,-0.4 0.4,-0.1 0.6,0.2 m 55.5,76.4 -2.7,4.3 4.5,-0.2 m -1.8,-4.1 0.4,6.3 m 6.3,-4.5 -0.2,0.9 -0.6,0.6 -0.9,0.4 h -0.3 l -0.9,-0.3 -0.6,-0.5 -0.4,-0.9 v -0.3 l 0.2,-0.9 0.6,-0.7 0.9,-0.3 h 0.3 l 0.9,0.2 0.6,0.6 0.4,1.2 0.1,1.5 -0.2,1.5 -0.6,0.9 -0.9,0.4 h -0.6 l -0.9,-0.2 -0.3,-0.6 m 51,-12.3 -2,4.8 4.4,-1 m -2.4,-3.8 1.4,6.2 m 4.7,-7.5 -2.9,0.7 0.3,2.7 0.2,-0.4 0.8,-0.5 0.9,-0.2 1,0.1 0.7,0.5 0.5,0.8 0.1,0.6 -0.1,0.9 -0.4,0.7 -0.9,0.5 -0.8,0.2 -1,-0.1 -0.3,-0.2 -0.5,-0.5 m 71,-112.9 5.1,-0.7 -3,-3.3 m -2.1,4 4.6,-4.3 m -7.4,1.2 0.9,0.4 0.6,-0.2 0.5,-0.4 0.2,-0.6 -0.2,-0.6 -0.6,-1.1 -0.4,-0.9 0.1,-0.8 0.2,-0.7 0.7,-0.6 0.6,-0.2 0.5,0.1 0.8,0.4 0.8,0.9 0.4,0.9 v 0.4 l -0.3,0.6 -0.6,0.6 -0.7,0.2 h -0.8 l -0.9,-0.5 -1,-0.7 -0.6,-0.2 -0.7,0.2 -0.4,0.4 -0.3,0.6 0.4,0.9 0.9,1 m -17.5,60.8 1.9,4.8 2.4,-3.7 m -4.3,-1.1 5.3,3.5 m -1.6,-9 3.7,5.9 m -6,-2.4 2.3,-3.5 m -29.9,-75.1 3,0.5 0.7,-2.6 -0.3,0.2 -1,0.2 -0.9,-0.2 -0.8,-0.4 -0.5,-0.7 -0.1,-0.9 0.1,-0.6 0.4,-0.9 0.7,-0.5 0.9,-0.1 0.9,0.1 0.9,0.5 0.2,0.3 0.2,0.7 m -9.6,3.5 2.9,0.5 0.8,-2.6 -0.4,0.3 -0.9,0.1 -0.9,-0.1 -0.9,-0.5 -0.5,-0.7 -0.1,-0.9 0.1,-0.6 0.4,-0.8 0.7,-0.5 1,-0.2 0.9,0.2 0.8,0.4 0.2,0.3 0.2,0.7 m -86.4,35.4 0.2,-0.2 0.6,-0.2 h 0.5 l 0.6,0.2 0.8,0.9 0.2,0.6 v 0.5 l -0.2,0.6 -0.4,0.4 -0.7,0.2 -1,0.2 -4.3,-0.1 3,3.1 m 6.5,-2.3 -0.8,-0.5 -1.1,0.2 -1.3,0.9 -0.6,0.6 -0.9,1.3 -0.2,1 0.4,0.9 0.4,0.4 0.9,0.4 1,-0.2 1.3,-0.8 0.7,-0.6 0.8,-1.3 0.3,-1 -0.5,-0.9 -0.3,-0.3 m -53.8,492.7 2.1,2.5 -2.9,0.2 0.5,0.7 0.2,0.7 v 0.4 l -0.5,0.8 -0.5,0.4 -0.8,0.3 h -0.9 l -0.8,-0.5 -0.6,-0.7 -0.4,-0.9 0.1,-0.4 0.2,-0.6 m 8.3,5 -0.8,0.4 -0.9,-0.1 -0.8,-0.4 -0.2,-0.3 -0.4,-0.9 0.1,-0.8 0.5,-0.8 0.2,-0.2 0.9,-0.4 0.8,0.1 0.9,0.5 0.2,0.2 0.3,0.9 v 0.8 l -0.8,1 -1.1,1 -1.3,0.8 -1.1,0.1 -0.8,-0.5 -0.4,-0.4 -0.4,-0.9 0.3,-0.6 m 23.9,15.7 1,-3.2 1.8,2.4 0.2,-0.8 0.5,-0.5 0.4,-0.2 0.9,-0.1 0.6,0.2 0.8,0.5 0.4,0.8 v 0.9 l -0.3,0.9 -0.5,0.8 -0.4,0.2 -0.6,0.1 m -2.4,-10 -0.9,2.9 2.6,1 -0.2,-0.4 -0.1,-0.9 0.3,-0.9 0.5,-0.7 0.8,-0.5 h 0.9 l 0.6,0.2 0.8,0.5 0.4,0.8 v 0.9 l -0.3,0.9 -0.5,0.8 -0.4,0.2 -0.6,0.1 m -118.2,-104.9 0.8,-5.1 -4,2 m 3.2,3.1 -2.8,-5.7 m -0.1,5.5 -0.4,0.5 -0.5,1.2 -2.8,-5.6 m -54.9,28.8 2.1,-4.7 -4.4,0.8 m 2.3,3.9 -1.2,-6.2 m -4.5,7.3 2.1,-4.7 -4.4,0.8 m 2.3,3.9 -1.2,-6.2 m -36.1,60.8 -2.5,4.5 4.5,-0.5 m -2,-4 0.7,6.3 m 2.5,-6.6 3.3,-0.3 -1.5,2.5 0.9,-0.1 0.6,0.3 0.4,0.2 0.4,0.9 v 0.6 l -0.2,0.9 -0.5,0.7 -0.9,0.4 -0.9,0.1 -0.9,-0.2 -0.3,-0.3 -0.4,-0.5 m 47.4,-134.9 -0.5,0.5 0.2,1 0.2,0.5 0.7,0.7 1,0.2 1.5,-0.4 1.4,-0.6 0.9,-0.8 0.3,-0.8 -0.1,-1 -0.1,-0.2 -0.7,-0.7 -0.8,-0.3 -0.9,0.1 -0.3,0.1 -0.7,0.7 -0.3,0.8 0.2,0.9 0.1,0.3 0.6,0.7 0.8,0.3 1,-0.1 m -13.7,41.1 -2.4,1.8 1.4,2.4 v -0.4 l 0.6,-0.8 0.7,-0.6 0.9,-0.3 0.9,0.2 0.7,0.5 0.4,0.5 0.3,0.9 -0.1,0.8 -0.6,0.8 -0.7,0.6 -0.9,0.2 h -0.4 l -0.6,-0.3 m 38.2,86.3 -4,3.2 4.3,1.2 m -0.3,-4.4 -1.7,6 m 6,-4.7 h -1 l -0.8,0.7 -0.7,1.4 -0.2,0.8 -0.2,1.6 0.4,1 0.8,0.5 0.5,0.2 h 1 l 0.8,-0.7 0.7,-1.4 0.3,-0.9 0.1,-1.5 -0.3,-1 -0.8,-0.5 -0.5,-0.2 m 45.6,-7.1 2.3,-2.4 0.5,3 0.6,-0.6 0.6,-0.3 h 0.5 l 0.8,0.4 0.5,0.4 0.4,0.9 v 0.8 l -0.4,0.9 -0.6,0.6 -0.8,0.5 h -0.5 l -0.6,-0.2 m 1.1,-8.5 -0.5,0.9 0.3,0.6 0.4,0.4 0.6,0.2 0.7,-0.2 1,-0.7 0.9,-0.4 h 0.8 l 0.7,0.2 0.6,0.6 0.2,0.6 v 0.5 l -0.4,0.8 -0.8,0.9 -0.8,0.4 h -0.5 l -0.6,-0.2 -0.7,-0.6 -0.2,-0.6 v -0.9 l 0.4,-0.8 0.6,-1.1 0.2,-0.6 -0.2,-0.7 -0.4,-0.4 -0.7,-0.2 -0.8,0.5 -1,0.9 m -167.3,-82.5 -3.1,-4.1 -1.4,4.2 m 4.5,-0.1 -6,-1.9 m 3.9,8.3 -5.1,-4.8 m 6.4,0.8 -1.3,4 m -6.6,65.4 -5.2,-0.5 2.2,3.9 m 3,-3.4 -5.5,3.1 m 7.7,2.8 0.4,-0.5 -0.2,-1 -0.3,-0.5 -0.7,-0.6 -1.1,-0.1 -1.4,0.5 -1.3,0.7 -0.9,0.9 -0.3,0.8 0.2,0.9 0.2,0.3 0.7,0.6 0.8,0.2 0.9,-0.1 0.3,-0.2 0.6,-0.7 0.2,-0.8 -0.1,-0.9 -0.2,-0.3 -0.7,-0.6 -0.8,-0.3 -0.9,0.2 M 1458.7,79 l -0.4,-0.6 -0.9,-0.8 6.3,-0.5 m -4.9,-4.7 1,0.2 0.6,0.6 0.4,0.9 v 0.3 l -0.2,0.9 -0.6,0.6 -0.8,0.4 h -0.3 l -1,-0.2 -0.6,-0.5 -0.4,-0.9 v -0.3 l 0.2,-0.9 0.6,-0.7 1.1,-0.4 1.5,-0.1 1.6,0.2 0.9,0.5 0.4,0.9 v 0.6 l -0.2,0.9 -0.6,0.3 m -51.5,38 0.1,0.6 0.7,1.1 -6.2,-1.5 m 5.7,4.1 -0.1,-0.9 -0.5,-0.5 -0.5,-0.1 -0.7,0.1 -0.4,0.6 -0.6,1 -0.5,0.8 -0.8,0.5 -0.6,0.1 -0.9,-0.2 -0.5,-0.4 -0.2,-0.4 -0.1,-0.9 0.3,-1.2 0.5,-0.8 0.4,-0.2 0.6,-0.2 0.9,0.3 0.5,0.4 0.5,0.7 v 1 1.2 l 0.2,0.7 0.5,0.4 0.6,0.1 0.6,-0.1 0.5,-0.8 0.4,-1.3 m 28.7,-44 0.7,0.3 0.8,-0.4 0.5,-0.4 0.5,-0.8 -0.2,-1.1 -0.7,-1.3 -1,-1.1 -1.1,-0.7 -0.8,-0.1 -0.9,0.4 -0.2,0.2 -0.5,0.8 v 0.8 l 0.3,0.9 0.2,0.2 0.9,0.5 0.8,0.1 0.9,-0.4 0.2,-0.2 0.5,-0.8 v -0.9 l -0.3,-0.8 m -287.1,377.1 -0.3,-3 -2.7,-0.1 0.3,0.3 0.4,0.9 0.1,0.9 -0.2,0.9 -0.6,0.7 -0.8,0.3 -0.6,0.1 -0.9,-0.2 -0.7,-0.6 -0.4,-0.8 -0.1,-0.9 0.2,-0.9 0.3,-0.4 0.6,-0.3 m 5.7,6.6 -0.3,-0.9 -1,-0.5 -1.5,-0.1 -0.9,0.1 -1.5,0.4 -0.8,0.7 -0.2,0.9 v 0.6 l 0.4,0.9 1,0.5 1.5,0.1 h 0.9 l 1.5,-0.5 0.8,-0.7 0.2,-0.9 v -0.4 m -0.3,-62.9 1,-2.8 -2.4,-1.2 0.1,0.4 v 0.9 l -0.3,0.9 -0.5,0.8 -0.8,0.3 h -0.9 l -0.6,-0.2 -0.8,-0.6 -0.3,-0.7 v -1 l 0.3,-0.8 0.5,-0.8 0.4,-0.2 h 0.7 m 2.1,9.7 -3,-4.2 -1.4,4.2 m 4.4,0 -5.9,-2.1 m 95.8,77.1 0.6,-0.4 0.7,-1 1,6.2 m 4.3,-5.1 -0.2,0.9 -0.5,0.7 -0.8,0.4 -0.3,0.1 -0.9,-0.2 -0.7,-0.5 -0.5,-0.8 v -0.3 l 0.1,-0.9 0.5,-0.7 0.9,-0.5 h 0.3 l 0.9,0.2 0.7,0.5 0.5,1.1 0.2,1.5 v 1.5 l -0.5,1 -0.8,0.4 -0.6,0.1 -1,-0.1 -0.4,-0.6 m 10.5,-29.4 1.2,2.7 2.6,-0.8 -0.4,-0.1 -0.6,-0.7 -0.4,-0.9 -0.1,-0.9 0.4,-0.8 0.7,-0.6 0.5,-0.3 h 1 l 0.7,0.3 0.7,0.7 0.3,0.8 0.1,0.9 -0.1,0.4 -0.5,0.5 m -8.2,-6.1 1.2,2.8 2.6,-0.9 -0.4,-0.1 -0.6,-0.7 -0.4,-0.8 -0.1,-1 0.3,-0.8 0.7,-0.6 0.6,-0.2 0.9,-0.1 0.8,0.3 0.6,0.7 0.4,0.8 0.1,0.9 -0.2,0.4 -0.4,0.6 m -25.8,-45.2 1.3,2.7 2.5,-0.8 -0.4,-0.2 -0.6,-0.7 -0.4,-0.8 -0.1,-0.9 0.3,-0.8 0.7,-0.7 0.5,-0.2 0.9,-0.1 0.8,0.3 0.7,0.6 0.4,0.9 0.1,0.9 -0.2,0.4 -0.4,0.5 m -8.6,-6.3 h 7 m -5.2,3.8 -1.8,-3.8 m -89.7,-44.9 -1.5,-2.6 -2.5,1.1 0.4,0.1 0.7,0.6 0.5,0.8 0.2,1 -0.3,0.8 -0.6,0.7 -0.5,0.3 -1,0.1 -0.8,-0.2 -0.7,-0.6 -0.4,-0.8 -0.2,-0.9 0.1,-0.4 0.4,-0.6 m 8,5.7 0.4,-0.5 -0.2,-0.9 -0.3,-0.6 -0.7,-0.6 -1,-0.1 -1.5,0.5 -1.3,0.7 -0.9,0.9 -0.2,0.8 0.1,0.9 0.2,0.3 0.7,0.6 0.8,0.3 0.9,-0.2 0.3,-0.2 0.6,-0.7 0.3,-0.8 -0.2,-0.9 -0.2,-0.3 -0.7,-0.6 -0.8,-0.3 -0.9,0.2 m 37.9,-56.1 2.6,-1.4 -1,-2.5 -0.1,0.4 -0.7,0.6 -0.8,0.5 -0.9,0.1 -0.8,-0.2 -0.7,-0.7 -0.3,-0.5 -0.1,-0.9 0.2,-0.8 0.7,-0.7 0.8,-0.5 0.9,-0.1 0.4,0.1 0.5,0.4 m -2.9,5.7 -0.4,0.6 -0.3,1.2 -3,-5.6 m 59.5,20.8 2.6,1.6 1.6,-2.2 -0.4,0.1 -0.9,-0.2 -0.8,-0.5 -0.6,-0.7 -0.2,-0.8 0.2,-0.9 0.3,-0.5 0.8,-0.6 0.8,-0.2 0.9,0.2 0.8,0.4 0.6,0.8 0.1,0.4 -0.1,0.6 m -8.7,0.7 0.9,0.2 1,-0.5 1,-1.1 0.5,-0.8 0.5,-1.4 v -1.1 l -0.6,-0.7 -0.5,-0.3 -1,-0.2 -0.9,0.4 -1.1,1.1 -0.5,0.8 -0.5,1.4 0.1,1.1 0.6,0.8 0.4,0.2 m -108.9,-56.4 -0.4,-3 -2.7,0.1 0.3,0.3 0.5,0.8 0.1,0.9 -0.2,0.9 -0.5,0.7 -0.8,0.4 -0.6,0.1 -1,-0.1 -0.6,-0.6 -0.5,-0.8 -0.1,-0.9 0.2,-0.9 0.2,-0.4 0.6,-0.3 m 4.4,5.2 h 0.3 l 0.6,0.2 0.4,0.2 0.3,0.6 0.2,1.2 -0.2,0.6 -0.2,0.4 -0.6,0.3 -0.6,0.1 -0.6,-0.2 -1,-0.4 -3.4,-2.6 0.6,4.2 m 39.6,16.4 -1.2,2.8 2.3,1.4 -0.2,-0.4 0.1,-1 0.4,-0.8 0.6,-0.7 0.8,-0.3 1,0.1 0.5,0.2 0.7,0.7 0.3,0.8 -0.1,0.9 -0.3,0.8 -0.7,0.7 -0.4,0.2 h -0.6 m -1.2,-6.3 -0.1,-0.7 -0.4,-1.2 5.7,2.6 m -33.1,-89.3 2.9,-0.7 -0.3,-2.7 -0.2,0.4 -0.8,0.5 -0.9,0.2 -1,-0.1 -0.7,-0.5 -0.5,-0.8 -0.1,-0.6 0.1,-0.9 0.5,-0.8 0.8,-0.4 0.9,-0.2 0.9,0.1 0.4,0.2 0.4,0.5 m -4.7,6.3 -3.2,0.7 1.2,-2.8 -0.9,0.2 -0.6,-0.1 -0.4,-0.3 -0.5,-0.8 -0.1,-0.6 0.1,-0.9 0.5,-0.7 0.8,-0.5 0.9,-0.2 0.9,0.1 0.4,0.2 0.4,0.6 m 126.1,186 -3,-0.2 -0.4,2.7 0.3,-0.3 0.9,-0.2 h 0.9 l 0.9,0.4 0.6,0.6 0.2,0.9 v 0.6 l -0.3,0.9 -0.7,0.6 -0.9,0.2 h -0.9 l -0.9,-0.4 -0.3,-0.3 -0.2,-0.6 m 9.6,-4.6 -3.3,6.1 m -0.9,-6.3 4.2,0.2 m 8.2,-13.7 3.8,3.4 0.5,-4.4 m -4.3,1 6.3,0.7 m -5.8,-4.8 0.2,0.9 0.6,0.3 0.6,0.1 0.6,-0.2 0.4,-0.6 0.4,-1.1 0.4,-0.9 0.7,-0.5 0.6,-0.2 0.9,0.1 0.6,0.3 0.2,0.4 0.2,0.9 -0.1,1.2 -0.4,0.8 -0.3,0.3 -0.7,0.2 -0.9,-0.1 -0.5,-0.3 -0.6,-0.7 -0.1,-0.9 -0.2,-1.3 -0.2,-0.6 -0.6,-0.4 h -0.6 l -0.6,0.2 -0.4,0.9 -0.2,1.3 m 181.6,260.6 1.3,3 -2.9,-0.7 0.3,0.9 v 0.6 l -0.1,0.4 -0.8,0.6 -0.5,0.3 -1,0.1 -0.7,-0.4 -0.7,-0.7 -0.3,-0.8 -0.1,-0.9 0.2,-0.4 0.4,-0.5 m 7,3.4 1.3,3 -2.9,-0.7 0.3,0.9 v 0.6 l -0.2,0.4 -0.7,0.6 -0.5,0.3 -1,0.1 -0.7,-0.4 -0.7,-0.7 -0.3,-0.8 -0.1,-0.9 0.2,-0.4 0.4,-0.5 m 14.5,63.7 -0.4,3.3 -2.2,-2 -0.1,0.8 -0.4,0.6 -0.3,0.3 -0.9,0.2 -0.6,-0.1 -0.9,-0.4 -0.5,-0.7 -0.2,-0.9 0.1,-0.9 0.4,-0.9 0.3,-0.2 0.7,-0.2 m 4.1,9 -3.8,-3.5 -0.5,4.5 m 4.3,-1 -6.3,-0.7 m 64.5,-36.7 -0.9,-3.2 2.8,1.1 -0.2,-0.8 0.1,-0.7 0.2,-0.4 0.8,-0.5 0.6,-0.1 h 1 l 0.7,0.5 0.5,0.7 0.3,0.9 -0.1,1 -0.2,0.3 -0.5,0.5 m -6.4,-7.6 -0.5,0.5 -0.1,0.9 0.2,0.6 0.5,0.8 1.1,0.3 1.5,-0.1 1.4,-0.4 1.1,-0.6 0.4,-0.7 0.1,-0.9 -0.1,-0.3 -0.5,-0.8 -0.7,-0.5 h -1 l -0.3,0.1 -0.8,0.5 -0.4,0.7 -0.1,1 0.1,0.3 0.5,0.8 0.8,0.4 h 0.9 m -4.7,44.7 0.7,-3.2 1.9,2.3 0.2,-0.9 0.5,-0.5 0.3,-0.2 1,-0.1 0.6,0.1 0.8,0.5 0.4,0.8 0.1,0.9 -0.2,0.9 -0.5,0.8 -0.4,0.2 -0.6,0.2 m -2.9,-9.9 -0.7,2.9 2.5,0.9 -0.2,-0.3 -0.1,-1 0.2,-0.9 0.5,-0.8 0.8,-0.4 0.9,-0.1 0.6,0.1 0.8,0.5 0.4,0.8 0.1,0.9 -0.2,0.9 -0.5,0.8 -0.3,0.2 -0.7,0.2 m -44.4,21.1 3.3,-0.5 -1.4,2.7 0.9,-0.2 0.6,0.2 0.4,0.3 0.4,0.8 0.1,0.6 -0.2,0.9 -0.5,0.7 -0.8,0.5 -0.9,0.1 -0.9,-0.2 -0.4,-0.2 -0.4,-0.6 m 7.6,-6.4 -2.3,4.7 4.5,-0.7 m -2.2,-4 1,6.3 m 22.4,-104.9 -0.4,-3.3 2.6,1.5 -0.1,-0.9 0.2,-0.6 0.2,-0.4 0.9,-0.4 0.6,-0.1 0.9,0.2 0.7,0.5 0.4,0.9 0.1,0.9 -0.2,0.9 -0.2,0.4 -0.6,0.3 m -5.3,-8.3 -0.5,0.3 -0.2,1 0.1,0.6 0.4,0.8 0.9,0.5 1.6,0.1 1.4,-0.2 1.2,-0.4 0.5,-0.7 0.2,-0.9 v -0.3 l -0.4,-0.9 -0.7,-0.5 -0.9,-0.2 -0.3,0.1 -0.9,0.4 -0.5,0.6 -0.2,1 v 0.3 l 0.4,0.8 0.7,0.5 0.9,0.2 m -77.6,-77.4 -3.2,0.9 1.1,-2.8 -0.9,0.2 -0.6,-0.1 -0.4,-0.2 -0.5,-0.8 -0.2,-0.6 0.1,-0.9 0.4,-0.7 0.8,-0.6 0.9,-0.2 h 0.9 l 0.4,0.3 0.4,0.5 m -5.3,6.7 0.8,-0.6 0.2,-0.6 -0.2,-0.6 -0.4,-0.5 -0.7,-0.1 h -1.2 l -1,-0.1 -0.7,-0.4 -0.5,-0.5 -0.2,-0.9 0.1,-0.6 0.2,-0.4 0.8,-0.5 1.2,-0.3 h 0.9 l 0.4,0.3 0.5,0.5 0.2,0.8 -0.1,0.7 -0.5,0.7 -0.8,0.5 -1,0.6 -0.5,0.5 -0.2,0.6 0.2,0.6 0.4,0.5 1,0.1 1.3,-0.4 m 53.6,27.5 -2,-2.6 3,-0.1 -0.5,-0.7 -0.2,-0.7 0.1,-0.4 0.5,-0.8 0.5,-0.3 0.9,-0.4 0.8,0.1 0.8,0.6 0.6,0.7 0.3,0.9 -0.1,0.4 -0.3,0.6 m -8,-5.4 0.9,-0.4 0.8,0.1 0.8,0.6 0.2,0.2 0.3,0.9 -0.1,0.8 -0.5,0.8 -0.3,0.2 -0.9,0.3 -0.8,-0.1 -0.8,-0.5 -0.2,-0.2 -0.3,-0.9 0.1,-0.9 0.8,-0.9 1.2,-1 1.3,-0.7 h 1.1 l 0.8,0.5 0.4,0.5 0.3,0.9 -0.3,0.6 M 1175,238.5 l -2.4,1.8 1.5,2.3 v -0.4 l 0.5,-0.8 0.7,-0.6 0.9,-0.3 0.9,0.1 0.8,0.6 0.3,0.4 0.4,0.9 -0.2,0.9 -0.5,0.8 -0.7,0.5 -0.9,0.3 h -0.4 l -0.6,-0.3 m 3.5,-9.3 0.2,5.2 3.6,-2.8 m -3.8,-2.4 3.9,5 m 35.6,-18 -3,0.5 0.2,2.7 0.3,-0.4 0.8,-0.4 0.9,-0.2 0.9,0.2 0.7,0.5 0.5,0.8 0.1,0.6 -0.2,0.9 -0.5,0.7 -0.8,0.5 -0.9,0.1 -0.9,-0.1 -0.4,-0.3 -0.4,-0.5 m 8.1,-5.7 -0.4,-0.5 -0.9,-0.2 -0.6,0.1 -0.8,0.5 -0.5,1 v 1.5 l 0.2,1.5 0.5,1.1 0.7,0.5 1,0.2 0.3,-0.1 0.8,-0.4 0.5,-0.7 0.1,-1 v -0.3 l -0.5,-0.8 -0.7,-0.5 -0.9,-0.1 h -0.3 l -0.8,0.5 -0.5,0.7 -0.2,0.9 m -63.9,-82.7 0.2,-3 -2.7,-0.4 0.3,0.3 0.2,0.9 v 0.9 l -0.4,0.9 -0.6,0.5 -0.9,0.3 h -0.6 l -0.9,-0.4 -0.6,-0.6 -0.2,-0.9 v -0.9 l 0.4,-0.9 0.3,-0.3 0.6,-0.3 m 4.8,6.2 -0.2,3.3 -2.3,-1.9 v 0.9 l -0.4,0.6 -0.3,0.3 -0.9,0.2 h -0.6 l -0.9,-0.4 -0.6,-0.6 -0.2,-0.9 v -0.9 l 0.4,-0.9 0.3,-0.3 0.6,-0.2 m 43.5,34.9 2,2.2 2.2,-1.7 h -0.4 l -0.9,-0.4 -0.6,-0.7 -0.4,-0.8 v -0.9 l 0.5,-0.8 0.4,-0.5 0.8,-0.4 0.9,0.1 0.8,0.4 0.7,0.7 0.4,0.8 v 0.4 l -0.3,0.7 m -6.6,-1.8 -0.2,0.2 -0.7,0.2 h -0.4 l -0.6,-0.2 -0.9,-0.9 -0.2,-0.6 v -0.4 l 0.3,-0.7 0.4,-0.4 0.6,-0.2 1.1,-0.2 4.2,0.1 -2.9,-3 m 129.3,201.5 -2.9,-6.3 m 5.6,3.2 -2.7,3.1 m -3.8,3.1 0.6,0.1 0.8,-0.5 0.4,-0.4 0.4,-0.9 -0.3,-1 -0.9,-1.2 -1.2,-1 -1.1,-0.6 -0.8,0.1 -0.8,0.5 -0.2,0.2 -0.4,0.9 0.1,0.8 0.5,0.8 0.2,0.2 0.9,0.4 0.8,-0.1 0.8,-0.5 0.2,-0.2 0.4,-0.9 -0.1,-0.8 -0.5,-0.8 m 0.7,40.3 -6.6,2.1 m 3.8,-5.1 2.8,3 m 0,2.3 0.3,-0.2 0.6,-0.2 h 0.4 l 0.7,0.2 0.8,0.9 0.2,0.7 -0.1,0.4 -0.2,0.6 -0.4,0.4 -0.7,0.2 -1,0.2 -4.3,-0.2 2.9,3.1"
       id="nums_003"
       stroke="#000000"
       stroke-width="1" />
    <path
       d="m 1390.4,148.6 40,26.3 -33.3,-34.3 12.4,-49.6 53.3,-46.8 4.9,61.1 69.2,11.4 32.9,36 -65.5,99.6 -51.6,11.8 -59.6,3.3 50.1,32.5 23.5,47.4 -49.1,4.2 -22.2,40.3 43.2,-15.8 -5.3,79 -38.1,67.3 61,-16.4 55.1,70.6 5.4,42.8 11.2,41.7 -10.5,44.3 -72.3,11.1 8.6,-72.6 -25.9,-60.4 -21.7,62 -12.9,43.6 -58.4,-67.9 -43.7,45.6 -74.3,-21.4 -78.7,8.9 -24.3,-43 36.4,-113.5 -9.5,-98.2 9.1,-26.8 -28.4,-50.6 -21.1,-143.2 46.9,-10.3 2.6,-47.9 100.1,104.5 -57.2,10 -22.4,17.3 -18.3,40.9 39.5,-21.1 84.2,51.5 -5.6,48.3 -37,-1.8 15.7,33.6 28.2,64.3 -60.5,9.4 30.4,64.1 -54.9,40.6 41.9,-8.1 77.4,-38.6 26.1,-95 -42.7,-46 45.9,-53.2 -48.2,-52.6 -39.1,-59.2 24,-17.4 54.8,-0.8 z"
       id="coupes_003"
       stroke="#ff0000"
       stroke-width="1.27"
       sodipodi:nodetypes="ccccccccccccccccccccccccccccccccccccccccccccccccccccccccccccccc" />
    <path
       d="m 1395.2,522.3 32.6,61.1 m 0,0 -116.5,-47.8 m 94.8,109.8 -94.8,-109.8 m 94.8,109.8 -71.3,-24.3 m 0,0 -23.5,-85.5 m 26.1,-95 57.8,81.7 m -57.8,-81.7 58,-48.8 m 0,0 -0.2,130.5 m -57.8,-81.7 3.2,-99.2 m 0,0 54.8,50.4 m 0,0 37.9,63.2 m -92.7,-113.6 77,10.1 m -77,-10.1 52.5,-74 m -100.7,21.4 100.7,-21.4 m -61,-56 61,56 m -100.7,21.4 -15.1,-76.6 m 165.9,87.7 -25.6,51.6 m -85.5,-140.1 98.3,-36.5 m 0,0 -37.3,92.5 m 37.3,-92.5 22.3,89.2 m -22.3,-89.2 106.5,-58.2 m 0,0 -84.2,147.4 m 84.2,-147.4 -32.6,135.6 m -73.9,-77.4 37.3,-69.6 m -70.6,35.3 70.6,-35.3 m -132.9,515.8 -100.9,-46.9 m 100.9,46.9 -118,24.2 m 0,0 -24.8,-63 m -53.9,71.9 12.1,-156.5 m 0,0 41.8,84.6 m 24.5,-104.7 -24.5,104.7 m -51.3,-182.8 75.8,78.1 m -66.7,-104.9 66.7,104.9 m -66.7,-104.9 127.2,95.5 m -127.2,-95.5 83.3,-2.4 m -111.7,-48.2 111.7,48.2 m 42.6,-46.5 -42.6,46.5 m -111.7,-48.2 154.3,1.7 m -154.3,-1.7 30.6,-28.7 m 0,0 123.7,30.4 M 1100.3,178.9 1152,293.4 m -51.7,-114.5 70,73.6 m -23.1,-83.9 23.1,83.9 m 224.9,269.8 121.5,97 m 0,0 -88.9,-35.9 m 88.9,35.9 -71.6,97.1 m 82.8,-55.4 -82.8,55.4 m -49.9,-194.1 116.1,54.2 m -364.1,-407.9 45.5,66.6 m -45.5,-66.6 102.7,56.6"
       id="plisM_003"
       stroke="#a52a2a"
       stroke-dasharray="4" />
    <path
       d="m 1311.3,535.6 83.9,-13.3 m -2.1,-254.9 24.5,84.1 m -125.2,-62.7 39.7,-77.4 m -115.3,433.9 17.1,-71.1 m -95.8,80 53.9,-71.9 m -41.8,-84.6 66.3,-20.1 m 180.6,-337 65.7,-96.4 m -313,328.5 99,31.2 m 267.9,215.4 -63,24.5"
       id="plisV_003"
       stroke="#008000"
       stroke-dasharray="4, 1, 1, 1"
       stroke-width="1.27" />
    <path
       d="m 1351.2,527 4,4 m 0,-4 -4,4 m 52.1,-223.5 4,4 m 0,-4 -4,4 m -93,-63.4 4,4 m 0,-4 -4,4 m -87,355.6 4,4 m 0,-4 -4,4 m -60.2,4.5 4,4 m 0,-4 -4,4 m 18.3,-134.5 4,4 m 0,-4 -4,4 m 246.5,-399.3 4,4 m 0,-4 -4,4 m -230.6,291.9 4,4 m 0,-4 -4,4 m 285.9,239.2 4,4 m 0,-4 -4,4"
       id="marqueV_003"
       stroke="#008000" />
    <path
       d="m 1320.2,379.8 h 8.2 l -4.5,6 h 2.3 l 1.5,0.8 0.7,0.7 0.8,2.3 v 1.5 l -0.8,2.2 -1.5,1.5 -2.2,0.8 h -2.3 l -2.2,-0.8 -0.8,-0.7 -0.7,-1.5"
       id="titre_3"
       stroke="#4b0082" />
  </g>
  <g
     id="page_004">
    <path
       d="m 1942.7,300.1 2.3,1.9 2,-1.9 -0.4,0.1 -0.9,-0.4 -0.7,-0.6 -0.5,-0.8 -0.1,-0.8 0.4,-0.9 0.4,-0.5 0.8,-0.4 0.8,-0.1 0.9,0.3 0.7,0.6 0.5,0.8 v 0.4 l -0.1,0.7 m -8.5,-0.5 0.8,0.3 0.6,-0.2 0.4,-0.5 0.2,-0.6 -0.3,-0.7 -0.7,-1 -0.5,-0.8 -0.1,-0.8 0.2,-0.7 0.6,-0.7 0.6,-0.2 0.4,-0.1 0.9,0.4 0.9,0.8 0.5,0.8 v 0.4 l -0.1,0.6 -0.6,0.7 -0.6,0.3 -0.9,0.1 -0.8,-0.4 -1.2,-0.5 -0.6,-0.2 -0.6,0.3 -0.4,0.5 -0.2,0.6 0.5,0.8 1.1,0.9 m -76.9,43.9 -0.5,-0.5 h -0.9 l -0.6,0.2 -0.8,0.5 -0.3,1.1 0.1,1.5 0.5,1.4 0.6,1.1 0.7,0.4 h 1 l 0.3,-0.1 0.8,-0.5 0.4,-0.8 v -0.9 l -0.1,-0.3 -0.5,-0.8 -0.8,-0.4 h -0.9 l -0.3,0.1 -0.8,0.5 -0.4,0.8 v 0.9 m 5.3,-6 -0.8,0.6 -0.3,1 0.2,1.5 0.2,0.9 0.7,1.3 0.9,0.7 0.9,0.1 0.6,-0.2 0.8,-0.5 0.3,-1.1 -0.1,-1.5 -0.3,-0.9 -0.7,-1.3 -0.9,-0.7 h -0.9 l -0.4,0.1 m 7.1,-107.3 6.6,-2.1 m -3.8,5.1 -2.8,-3 m -2,-2.2 0.8,0.4 1.1,-0.1 1.3,-0.8 0.6,-0.6 0.9,-1.3 0.3,-1 -0.4,-0.9 -0.4,-0.4 -0.9,-0.5 -1,0.2 -1.3,0.8 -0.7,0.6 -0.9,1.2 -0.2,1.1 0.4,0.9 0.3,0.3 m -106,-29.3 0.1,-0.7 -0.7,-0.7 -0.5,-0.3 -0.9,-0.1 -1,0.5 -1,1.2 -0.7,1.3 -0.3,1.2 0.2,0.8 0.7,0.7 0.2,0.1 1,0.2 0.8,-0.3 0.7,-0.6 0.1,-0.3 0.2,-0.9 -0.3,-0.8 -0.6,-0.7 -0.3,-0.1 -0.9,-0.2 -0.8,0.2 -0.7,0.7 m 10,0.6 -5.7,4.1 m 2,-6.1 3.7,2 m 2.1,105.7 -6.5,-2.4 m 6.2,-1.8 0.3,4.2 m 0.5,5.2 -6.5,-2.5 m 6.1,-1.7 0.4,4.2 m -35.3,-87.1 3.3,-6.1 m 0.9,6.4 -4.2,-0.3 m -1,-1.5 -0.6,0.3 -1,0.8 0.4,-6.2 m -29.6,30.2 -6.9,-1.2 m 5.8,-2.8 1.1,4 m -0.6,5.4 h -1 l -0.7,-0.4 -0.6,-0.8 v -0.3 -1 l 0.4,-0.7 0.8,-0.5 0.3,-0.1 h 0.9 l 0.8,0.5 0.5,0.7 0.1,0.3 v 1 l -0.5,0.7 -1,0.6 -1.5,0.4 -1.5,0.1 -1,-0.3 -0.6,-0.8 -0.1,-0.5 v -1 l 0.5,-0.4 m 29.2,19 v 7 m -3.8,-5.2 3.8,-1.8 m 2.4,-1.2 -0.7,0.7 v 0.7 l 0.2,0.5 0.6,0.4 h 0.6 l 1.3,-0.2 0.9,-0.1 0.8,0.3 0.5,0.4 0.4,0.8 v 0.7 l -0.1,0.4 -0.7,0.6 -1.1,0.5 -1,0.2 -0.4,-0.2 -0.5,-0.4 -0.4,-0.8 V 275 l 0.3,-0.8 0.7,-0.6 1,-0.8 0.4,-0.6 v -0.6 l -0.3,-0.6 -0.5,-0.4 -0.9,0.1 -1.2,0.6 m -12.2,-151.9 0.1,0.7 0.8,0.5 0.6,0.2 0.9,-0.1 0.8,-0.7 0.7,-1.3 0.5,-1.4 V 116 l -0.4,-0.7 -0.8,-0.6 -0.2,-0.1 -1,0.1 -0.7,0.4 -0.6,0.8 -0.1,0.2 0.1,1 0.4,0.7 0.7,0.6 0.3,0.1 1,-0.1 0.7,-0.4 0.6,-0.7 m -7.5,2.1 h 0.9 l 0.5,-0.5 0.2,-0.6 -0.1,-0.6 -0.5,-0.5 -1.1,-0.6 -0.8,-0.6 -0.4,-0.7 -0.1,-0.7 0.3,-0.8 0.4,-0.5 0.4,-0.2 0.9,-0.1 1.2,0.4 0.8,0.5 0.2,0.4 0.1,0.7 -0.3,0.8 -0.4,0.5 -0.8,0.4 h -0.9 -1.3 l -0.6,0.1 -0.5,0.5 -0.1,0.6 0.1,0.6 0.7,0.6 1.3,0.4 m -25.6,29.5 -6.4,-2.9 m 6.3,-1.3 0.1,4.2 m -1.4,1.1 0.3,0.6 0.9,0.9 -6.3,0.1 m 24.4,38.7 -0.3,-0.6 -1,-0.2 h -0.5 l -0.9,0.4 -0.5,0.9 -0.2,1.6 0.1,1.5 0.4,1.1 0.7,0.6 0.9,0.2 h 0.3 l 0.8,-0.4 0.6,-0.6 0.2,-1 v -0.3 l -0.4,-0.8 -0.6,-0.6 -1,-0.2 h -0.3 l -0.8,0.4 -0.6,0.6 -0.2,1 m 8.7,-5 -2.4,6.5 m -1.8,-6.1 4.2,-0.4 m 136.2,238.5 h -0.7 l -0.7,0.7 -0.3,0.5 -0.1,0.9 0.5,1 1.2,0.9 1.4,0.7 1.2,0.3 0.8,-0.3 0.7,-0.6 0.1,-0.3 0.1,-1 -0.2,-0.8 -0.7,-0.6 -0.3,-0.2 -0.9,-0.1 -0.8,0.3 -0.7,0.6 -0.1,0.3 -0.2,0.9 0.3,0.8 0.7,0.7 m -0.3,-5.7 v -0.7 l -0.4,-1.2 5.7,2.9 m 6.7,-56 v 0.7 l 0.7,0.6 0.6,0.3 h 0.9 l 0.9,-0.6 0.9,-1.2 0.6,-1.4 0.1,-1.2 -0.3,-0.8 -0.7,-0.6 -0.3,-0.2 h -0.9 l -0.8,0.3 -0.6,0.7 -0.1,0.3 -0.1,0.9 0.3,0.8 0.7,0.6 0.3,0.2 h 1 l 0.7,-0.3 0.7,-0.7 m -8,1.2 1,0.1 0.9,-0.6 0.8,-1.3 0.4,-0.8 0.3,-1.5 -0.2,-1.1 -0.8,-0.6 -0.5,-0.2 -1,-0.1 -0.9,0.6 -0.8,1.3 -0.4,0.8 -0.3,1.5 0.3,1.1 0.7,0.6 0.4,0.2 M 1783.6,88.4 h 0.7 l 0.6,-0.7 0.3,-0.6 0.1,-0.9 -0.6,-0.9 -1.3,-0.9 -1.3,-0.6 -1.2,-0.2 -0.8,0.3 -0.7,0.7 -0.1,0.3 -0.1,0.9 0.3,0.8 0.7,0.6 0.3,0.2 h 0.9 l 0.8,-0.3 0.7,-0.7 0.1,-0.2 0.1,-1 -0.3,-0.8 -0.7,-0.6 m 1.1,7.7 0.1,-1 -0.4,-0.5 -0.5,-0.2 h -0.7 l -0.5,0.4 -0.8,1 -0.6,0.7 -0.8,0.3 h -0.7 l -0.8,-0.3 -0.5,-0.6 -0.1,-0.3 0.1,-1 0.5,-1.1 0.6,-0.7 0.4,-0.1 0.7,-0.1 0.8,0.4 0.4,0.5 0.3,0.8 -0.1,1 -0.2,1.2 0.1,0.6 0.4,0.6 0.5,0.2 h 0.7 l 0.6,-0.7 0.6,-1.3 m 21.2,-1.6 7,-0.4 m -5,4.1 -2,-3.7 m -0.5,-5.5 0.9,-0.1 0.8,0.2 0.7,0.7 0.2,0.2 0.1,1 -0.2,0.8 -0.7,0.7 -0.2,0.1 -1,0.2 -0.8,-0.3 -0.7,-0.6 -0.1,-0.3 -0.2,-0.9 0.3,-0.9 0.9,-0.8 1.3,-0.7 1.5,-0.4 1.1,0.1 0.6,0.6 0.3,0.5 0.2,1 -0.4,0.5 m -68.9,318.9 0.3,-0.6 -0.2,-0.9 -0.3,-0.5 -0.7,-0.7 h -1.1 l -1.4,0.5 -1.3,0.8 -0.9,0.9 -0.2,0.8 0.2,0.9 0.2,0.3 0.7,0.6 0.8,0.2 0.9,-0.2 0.3,-0.2 0.6,-0.7 0.2,-0.8 -0.2,-0.9 -0.1,-0.3 -0.8,-0.6 -0.8,-0.2 -0.9,0.2 m 6.4,6.6 -0.9,0.2 -0.9,-0.2 -0.7,-0.6 -0.1,-0.3 -0.2,-0.9 0.2,-0.8 0.6,-0.8 0.2,-0.1 1,-0.2 0.8,0.2 0.7,0.6 0.2,0.3 0.2,0.9 -0.2,0.8 -0.9,0.9 -1.3,0.7 -1.4,0.6 -1.1,-0.1 -0.7,-0.6 -0.3,-0.5 -0.3,-0.9 0.4,-0.6 m 8.8,-36.8 2.8,-1.1 -0.7,-2.6 -0.2,0.4 -0.7,0.6 -0.9,0.3 -0.9,0.1 -0.8,-0.4 -0.6,-0.7 -0.2,-0.6 -0.1,-0.9 0.4,-0.8 0.7,-0.6 0.9,-0.3 0.9,-0.1 0.4,0.2 0.5,0.5 m -7.6,6.1 v -0.9 l 0.3,-0.8 0.8,-0.6 0.3,-0.1 0.9,-0.1 0.8,0.4 0.6,0.7 0.1,0.3 v 0.9 l -0.3,0.8 -0.7,0.6 -0.3,0.1 -1,0.1 -0.7,-0.4 -0.8,-1 -0.5,-1.4 -0.3,-1.5 0.3,-1.1 0.7,-0.6 0.6,-0.2 h 0.9 l 0.5,0.4 m -3.4,79.9 h 1 l 0.5,-0.5 0.1,-0.5 -0.1,-0.7 -0.5,-0.5 -1,-0.6 -0.8,-0.6 -0.4,-0.7 -0.1,-0.7 0.3,-0.8 0.5,-0.5 0.3,-0.2 h 1 l 1.1,0.3 0.8,0.6 0.2,0.4 0.1,0.6 -0.3,0.9 -0.4,0.5 -0.8,0.4 h -0.9 l -1.3,-0.1 -0.6,0.1 -0.5,0.5 -0.2,0.5 0.1,0.7 0.8,0.6 1.3,0.4 m -5.6,-1.8 h 1 l 0.8,-0.7 0.8,-1.3 0.3,-0.9 0.1,-1.5 -0.3,-1 -0.7,-0.6 -0.6,-0.2 -1,0.1 -0.8,0.6 -0.8,1.4 -0.2,0.8 -0.2,1.5 0.3,1.1 0.8,0.5 0.4,0.2 m -53.8,3.3 0.8,-0.5 0.2,-0.6 -0.1,-0.6 -0.4,-0.5 -0.7,-0.2 -1.2,-0.1 -0.9,-0.1 -0.7,-0.5 -0.4,-0.5 -0.2,-0.9 0.2,-0.7 0.2,-0.3 0.8,-0.5 1.2,-0.2 1,0.1 0.3,0.3 0.4,0.5 0.2,0.9 -0.2,0.6 -0.5,0.7 -0.8,0.5 -1.1,0.5 -0.6,0.4 -0.2,0.7 0.2,0.5 0.4,0.6 0.9,0.1 1.3,-0.2 m -4.7,-0.7 0.1,0.3 -0.2,0.7 -0.3,0.3 -0.5,0.4 -1.2,0.2 -0.6,-0.1 -0.4,-0.3 -0.4,-0.5 -0.1,-0.6 0.2,-0.7 0.4,-1 2.4,-3.5 -4.1,0.8 m 30.2,99.3 3.1,1.1 -2.4,1.7 0.8,0.3 0.5,0.5 0.2,0.3 v 1 l -0.2,0.6 -0.6,0.7 -0.8,0.4 h -0.9 l -0.9,-0.3 -0.7,-0.6 -0.2,-0.4 -0.1,-0.6 m -61.2,-34.9 0.7,0.2 1.3,-0.2 -4.1,4.9 m 7.5,-2.3 -5,1.3 3.5,2.9 m 1.5,-4.2 -4,4.8 m -8.3,-45.2 0.2,0.6 0.7,1 -6.2,-1.1 m 5.5,5.8 0.6,-2.9 -2.6,-0.8 0.3,0.3 0.1,1 -0.2,0.9 -0.5,0.8 -0.7,0.5 -0.9,0.1 -0.6,-0.1 -0.8,-0.5 -0.5,-0.7 -0.1,-0.9 0.2,-0.9 0.4,-0.8 0.4,-0.3 0.6,-0.2 m 198.1,87.9 6.4,2.9 m -6.3,1.3 -0.1,-4.2 m -0.1,-4.3 4.2,2.9 -0.1,-4.5 m -4.1,1.6 6.3,-0.1 m -85.5,42.5 -3.3,-3.9 -1.1,4.4 m 4.4,-0.5 -6.1,-1.5 m 274.1,-285.2 0.4,0.5 1,0.1 0.6,-0.1 0.8,-0.5 0.4,-1 V 314 l -0.4,-1.4 -0.5,-1.1 -0.7,-0.5 -1,-0.1 -0.3,0.1 -0.8,0.4 -0.4,0.8 -0.1,0.9 v 0.3 l 0.5,0.8 0.7,0.5 1,0.1 0.3,-0.1 0.8,-0.5 0.4,-0.7 0.1,-0.9 m -4.8,3.8 v 0.3 l -0.1,0.6 -0.3,0.4 -0.5,0.4 -1.2,0.2 -0.6,-0.1 -0.4,-0.3 -0.4,-0.5 -0.1,-0.6 0.1,-0.6 0.4,-1 2.4,-3.6 -4.2,0.9 m 62.8,36.5 h -0.7 l -0.7,0.6 -0.3,0.6 -0.1,0.9 0.5,1 1.2,0.9 1.3,0.7 1.2,0.3 0.9,-0.3 0.6,-0.6 0.2,-0.3 0.1,-0.9 -0.2,-0.8 -0.7,-0.7 -0.3,-0.2 -0.9,-0.1 -0.8,0.3 -0.7,0.6 -0.1,0.3 -0.2,0.9 0.3,0.8 0.6,0.7 m 0.3,-9.6 -1.4,2.7 2.3,1.5 -0.2,-0.4 0.2,-1 0.4,-0.8 0.7,-0.6 0.8,-0.3 0.9,0.2 0.6,0.3 0.6,0.6 0.3,0.8 -0.2,1 -0.4,0.8 -0.7,0.6 -0.4,0.2 h -0.6 m -7.6,-29.5 v 0.7 l 0.7,0.6 0.6,0.3 0.9,0.1 0.9,-0.6 0.9,-1.3 0.6,-1.4 0.2,-1.2 -0.3,-0.8 -0.7,-0.6 -0.3,-0.1 -0.9,-0.1 -0.8,0.3 -0.6,0.7 -0.2,0.3 v 0.9 l 0.3,0.8 0.7,0.7 0.3,0.1 0.9,0.1 0.8,-0.4 0.6,-0.7 m -9.2,0.7 4.4,-2.7 -4.1,-1.8 m -0.3,4.5 2.5,-5.8 m -118.6,58.3 0.1,-0.7 -0.6,-0.7 -0.5,-0.4 -0.9,-0.3 -1,0.4 -1.1,1.1 -0.8,1.2 -0.5,1.2 0.2,0.8 0.5,0.8 0.3,0.1 0.9,0.3 0.8,-0.1 0.8,-0.6 0.1,-0.2 0.3,-0.9 -0.1,-0.9 -0.6,-0.7 -0.2,-0.2 -0.9,-0.3 -0.9,0.2 -0.7,0.5 m 5.6,0.6 0.7,0.1 1.2,-0.2 -3.6,5.1 m 93,57 -0.7,0.1 -0.5,0.7 -0.2,0.6 v 1 l 0.7,0.8 1.4,0.7 1.4,0.4 1.2,0.1 0.8,-0.4 0.5,-0.8 0.1,-0.3 V 437 l -0.4,-0.8 -0.8,-0.5 -0.3,-0.1 h -0.9 l -0.8,0.4 -0.5,0.8 -0.1,0.3 v 1 l 0.4,0.7 0.8,0.5 m -0.7,-9.2 -0.6,0.1 -0.6,0.8 -0.2,0.6 0.1,0.9 0.7,0.9 1.3,0.7 1.4,0.4 1.3,0.1 0.7,-0.4 0.6,-0.8 0.1,-0.3 -0.1,-0.9 -0.4,-0.8 -0.7,-0.5 -0.3,-0.1 h -1 l -0.7,0.4 -0.6,0.8 -0.1,0.3 0.1,0.9 0.4,0.8 0.7,0.5 m -70.9,53.4 -4.5,-5.3 m 6.2,1.5 -1.7,3.8 m -1.7,3.9 -2.6,-4.4 -1.9,4.1 m 4.5,0.3 -5.8,-2.6 m 99.4,21.1 4.5,-5.3 m -0.5,6.4 -4,-1.1 m -4.6,-1.3 2.9,0.8 1,-2.5 -0.4,0.2 h -0.9 l -0.9,-0.2 -0.8,-0.5 -0.4,-0.7 -0.1,-1 0.2,-0.6 0.5,-0.8 0.7,-0.4 h 1 l 0.9,0.2 0.8,0.5 0.2,0.4 0.1,0.6 m 6.8,31 -0.2,-0.2 -0.3,-0.6 v -0.4 l 0.1,-0.7 0.8,-0.9 0.6,-0.2 0.4,-0.1 0.7,0.2 0.4,0.4 0.3,0.6 0.3,1 0.4,4.2 2.7,-3.2 m -36.5,64.4 0.1,0.9 0.8,0.8 1.5,0.5 0.9,0.2 1.5,-0.1 1,-0.4 0.4,-0.9 0.1,-0.6 -0.1,-0.9 -0.8,-0.7 -1.5,-0.6 -0.8,-0.1 h -1.6 l -1,0.5 -0.4,0.8 -0.1,0.5 m -11.5,1.6 -6.9,1.2 m 4.5,-4.6 2.4,3.4 m 2,4.4 0.3,-0.6 -0.3,-0.9 -0.3,-0.5 -0.8,-0.5 h -1.1 l -1.4,0.6 -1.2,0.9 -0.8,0.9 -0.2,0.8 0.3,0.9 0.2,0.3 0.7,0.5 0.9,0.2 0.9,-0.3 0.2,-0.1 0.6,-0.8 0.1,-0.8 -0.2,-1 -0.2,-0.2 -0.8,-0.6 -0.8,-0.1 -0.9,0.3 m -122.1,-29.7 0.6,-7 m 3.3,5.5 -3.9,1.5 m -1.6,0.6 -3.1,1.2 0.8,-2.9 -0.8,0.3 h -0.7 l -0.4,-0.2 -0.6,-0.7 -0.2,-0.6 v -1 l 0.3,-0.7 0.7,-0.6 0.9,-0.4 h 0.9 l 0.4,0.2 0.5,0.4 m 72.4,24.3 2.2,6.6 m -5.3,-3.7 3.1,-2.9 m 2.2,-0.1 -0.2,-0.2 -0.2,-0.7 v -0.4 l 0.2,-0.6 0.9,-0.9 0.6,-0.2 h 0.4 l 0.7,0.3 0.4,0.4 0.2,0.6 0.2,1.1 -0.1,4.2 3,-2.9 m -69.5,-4.1 3,1.4 -2.6,1.4 0.8,0.4 0.4,0.5 0.2,0.4 -0.2,0.9 -0.2,0.6 -0.7,0.7 -0.8,0.3 -0.9,-0.2 -0.8,-0.3 -0.7,-0.7 -0.2,-0.4 v -0.7 m 10.7,-0.6 -5.4,4.5 m 1.6,-6.3 3.8,1.8 m -148.4,58 -0.9,-0.3 -0.6,0.3 -0.4,0.5 -0.1,0.7 0.3,0.6 0.8,0.9 0.6,0.8 0.1,0.8 -0.1,0.7 -0.5,0.7 -0.6,0.3 -0.4,0.1 -0.9,-0.3 -1,-0.7 -0.6,-0.7 v -0.5 l 0.1,-0.6 0.5,-0.8 0.6,-0.3 0.8,-0.1 0.9,0.3 1.2,0.4 0.7,0.1 0.6,-0.3 0.3,-0.5 0.1,-0.6 -0.5,-0.8 -1.1,-0.8 m 3.7,2.7 2.7,1.9 -2.9,0.9 0.7,0.6 0.3,0.5 0.1,0.5 -0.3,0.9 -0.3,0.5 -0.8,0.5 -0.8,0.1 -0.9,-0.2 -0.8,-0.6 -0.5,-0.7 -0.1,-0.4 0.1,-0.7 m 75.8,15.6 -2.3,4.6 4.4,-0.7 m -2.1,-3.9 1,6.2 m 1.7,-5.2 0.6,-0.4 0.7,-1 1.1,6.2 m 9,-15.2 5.9,-3.8 m -2.3,6 -3.6,-2.2 m -1.5,-0.9 -2.8,-1.7 2.8,-1.1 -0.8,-0.5 -0.3,-0.6 -0.1,-0.4 0.2,-0.9 0.3,-0.5 0.7,-0.6 0.9,-0.2 0.9,0.2 0.7,0.5 0.7,0.7 0.1,0.4 -0.1,0.7 m 0.1,-540.4 1.5,-6.8 m 2.6,5.8 -4.1,1 m -2.6,0.6 0.8,-0.5 0.2,-0.7 -0.2,-0.6 -0.4,-0.5 -0.7,-0.1 -1.2,-0.1 -0.9,-0.1 -0.8,-0.4 -0.4,-0.5 -0.2,-0.9 0.2,-0.7 0.2,-0.3 0.8,-0.5 1.2,-0.3 0.9,0.1 0.4,0.2 0.4,0.6 0.2,0.8 -0.1,0.7 -0.5,0.7 -0.8,0.5 -1.1,0.6 -0.5,0.4 -0.2,0.6 0.1,0.6 0.5,0.5 0.9,0.1 1.3,-0.3 m 49.4,25 6.8,-1.7 m -4.1,4.9 -2.7,-3.2 m -3.3,-4 6.8,-1.7 m -4.1,4.9 -2.7,-3.2 m -15.5,70.6 -6.3,3.1 m 3,-5.7 3.3,2.6 m 2.3,1.9 -0.9,-0.3 -1,0.3 -1.2,1 -0.6,0.7 -0.7,1.3 -0.1,1.1 0.6,0.8 0.4,0.4 0.9,0.3 1,-0.3 1.2,-1 0.6,-0.7 0.7,-1.4 0.1,-1 -0.5,-0.8 -0.4,-0.3 m 53.1,-8.9 1.1,2.8 2.6,-0.6 -0.3,-0.2 -0.6,-0.8 -0.4,-0.8 v -0.9 l 0.3,-0.8 0.8,-0.6 0.5,-0.2 1,-0.1 0.8,0.4 0.6,0.7 0.3,0.9 v 0.9 l -0.2,0.4 -0.4,0.5 m -6.1,-7.6 h 1 l 0.7,0.3 0.6,0.7 0.1,0.3 0.1,1 -0.4,0.7 -0.7,0.6 -0.3,0.1 -0.9,0.1 -0.8,-0.4 -0.6,-0.7 -0.1,-0.3 -0.1,-0.9 0.4,-0.8 1,-0.7 1.4,-0.5 1.5,-0.3 1.1,0.3 0.6,0.7 0.2,0.5 v 1 l -0.4,0.5 m 17.2,58.5 -2.8,-1 -1.2,2.4 0.3,-0.2 1,0.1 0.8,0.3 0.8,0.6 0.3,0.7 v 1 l -0.2,0.6 -0.6,0.7 -0.8,0.4 -0.9,-0.1 -0.9,-0.3 -0.7,-0.6 -0.2,-0.4 v -0.6 m 8.1,-2.5 h -0.9 l -0.5,0.5 -0.2,0.5 0.1,0.7 0.4,0.5 1.1,0.7 0.7,0.6 0.4,0.8 v 0.6 l -0.3,0.9 -0.5,0.4 -0.4,0.2 h -0.9 l -1.1,-0.4 -0.8,-0.6 -0.2,-0.4 v -0.7 l 0.3,-0.8 0.5,-0.5 0.7,-0.3 h 1 l 1.2,0.1 0.7,-0.1 0.5,-0.4 0.2,-0.6 -0.1,-0.7 -0.7,-0.5 -1.3,-0.5 m 61.8,6.8 -0.4,-0.6 -0.9,-0.1 -0.6,0.1 -0.9,0.5 -0.4,1 v 1.5 l 0.3,1.5 0.5,1.1 0.7,0.5 1,0.1 0.3,-0.1 0.8,-0.4 0.5,-0.7 0.1,-1 -0.1,-0.3 -0.4,-0.8 -0.7,-0.5 -1,-0.1 -0.3,0.1 -0.8,0.4 -0.5,0.7 -0.1,1 m 5,-3.7 -0.1,-0.3 0.2,-0.7 0.2,-0.3 0.5,-0.4 1.2,-0.2 0.7,0.1 0.3,0.3 0.4,0.5 0.1,0.6 -0.1,0.6 -0.5,1 -2.3,3.6 4.1,-0.8 m 50.6,-27.6 -0.2,0.6 0.3,0.9 0.4,0.4 0.8,0.5 1.1,-0.1 1.3,-0.7 1.2,-1 0.7,-1 0.1,-0.8 -0.4,-0.9 -0.1,-0.2 -0.9,-0.5 -0.8,-0.1 -0.9,0.3 -0.2,0.2 -0.5,0.8 -0.1,0.9 0.4,0.9 0.2,0.2 0.8,0.5 0.8,0.1 0.9,-0.4 m -6.8,-1.6 -2.2,-2.5 3,-0.2 -0.5,-0.7 -0.2,-0.6 V 240 l 0.5,-0.8 0.5,-0.4 0.9,-0.3 0.8,0.1 0.8,0.5 0.6,0.7 0.4,0.8 -0.1,0.5 -0.2,0.6 m 1.1,20.9 -0.3,-0.6 -0.9,-0.3 h -0.6 l -0.9,0.2 -0.6,0.9 -0.4,1.5 v 1.5 l 0.3,1.2 0.5,0.6 0.9,0.4 h 0.3 l 0.9,-0.3 0.7,-0.6 0.3,-0.9 v -0.3 l -0.3,-0.9 -0.6,-0.6 -0.9,-0.3 h -0.3 l -0.9,0.2 -0.6,0.6 -0.3,0.9 m 8.3,-4 -3.1,4.1 4.5,0.1 m -1.4,-4.2 -0.2,6.3 m -105.8,-69.7 h 0.6 l 0.8,-0.6 0.3,-0.5 0.2,-0.9 -0.4,-1 -1.1,-1 -1.3,-0.8 -1.2,-0.4 -0.8,0.2 -0.8,0.6 -0.1,0.2 -0.2,1 0.2,0.8 0.6,0.7 0.2,0.2 0.9,0.2 0.9,-0.2 0.7,-0.6 0.2,-0.3 0.2,-0.9 -0.2,-0.8 -0.6,-0.7 m -3,8.7 -0.6,-0.8 -0.2,-0.8 0.3,-0.9 0.1,-0.3 0.7,-0.6 0.9,-0.2 0.9,0.3 0.2,0.1 0.6,0.8 0.2,0.8 -0.2,0.9 -0.1,0.3 -0.8,0.6 -0.8,0.2 -1.2,-0.4 -1.2,-0.8 -1.2,-1.1 -0.4,-1 0.2,-0.9 0.3,-0.5 0.8,-0.6 0.6,0.1 m 37.4,-50.5 0.2,-0.9 -0.4,-0.5 -0.5,-0.4 h -0.7 l -0.5,0.4 -0.9,0.8 -0.7,0.6 -0.8,0.3 -0.7,-0.1 -0.8,-0.5 -0.3,-0.5 -0.1,-0.4 0.2,-1 0.6,-1 0.7,-0.6 0.4,-0.1 h 0.7 l 0.7,0.5 0.4,0.6 0.2,0.8 -0.2,0.9 -0.3,1.2 -0.1,0.7 0.4,0.5 0.5,0.3 0.6,0.1 0.8,-0.6 0.7,-1.2 m -3,5 0.2,-0.9 -0.5,-1 -1.1,-1 -0.8,-0.5 -1.4,-0.5 h -1.1 l -0.7,0.7 -0.3,0.5 -0.2,0.9 0.4,1 1.2,1 0.7,0.5 1.5,0.5 1,-0.1 0.8,-0.6 0.2,-0.4 m 19.9,24.7 0.7,0.7 0.7,-0.1 0.5,-0.2 0.4,-0.6 -0.1,-0.7 -0.3,-1.2 -0.2,-0.9 0.3,-0.8 0.3,-0.6 0.8,-0.4 h 0.7 l 0.4,0.1 0.7,0.6 0.6,1.1 0.2,0.9 -0.1,0.4 -0.4,0.6 -0.8,0.4 h -0.7 l -0.8,-0.2 -0.7,-0.6 -0.8,-0.9 -0.6,-0.4 h -0.7 l -0.5,0.3 -0.4,0.6 0.2,0.9 0.7,1.2 m -0.7,-4.1 -0.6,-0.4 -1.2,-0.4 5.5,-3"
       id="nums_004"
       stroke="#000000"
       stroke-width="1" />
    <path
       d="m 1865.5,580.5 63.3,-24.3 64.1,-141.1 -103.7,-73.1 -44.4,13.3 42.7,17.8 -57.4,113.1 3.3,155 58,35.2 -85.3,14.3 -77.9,-56.1 16.1,-67.2 -90.6,-30.8 -37,-30.8 10.7,-55.7 92.4,-17.3 34.8,11.1 -41.1,-68.6 55.1,-21.4 -7.5,-86.8 -51.8,24.6 -21.3,-76 99.1,5.8 -47.8,-26.2 -54.4,4.5 -1.9,-99.3 76.9,22.9 32.8,-73.3 37.3,69.5 55.8,-12.7 55.3,67.4 21,55.2 42.3,-67.9 18.8,-31.3 43.8,78.4 51.7,61.9 -51.3,-1.3 -67.5,12.9 -70.5,-25.8 -89.7,-72.1 78.4,84.3 57.4,48.2 67.3,-14.3 47.1,20.6 -29.2,56 -34,113.4 70.4,19 -45.5,54.5 -11.7,70.3 -40.2,-57.5 -45.1,43.7 z"
       id="coupes_004"
       stroke="#ff0000"
       stroke-width="1.27"
       sodipodi:nodetypes="cccccccccccccccccccccccccccccccccccccccccccccccccccc" />
    <path
       d="m 1975.5,316.8 -86.3,25.2 m 0,0 28.9,-73.4 M 1889.2,342 1787.1,221.5 m 0,0 131,47.1 m -73.3,86.7 -57.7,-133.8 m 57.7,133.8 -83.7,-88.2 m -21.8,-71.8 100.4,-11 m 5.1,171 -76.2,-1.4 m -7.5,-86.8 -73.1,-51.4 m 51.3,-20.4 20.6,-71.9 m 0,0 79.8,60.9 m -100.4,11 -56.3,-94.8 m 161.8,254.8 -14.7,130.9 m -70.2,-362.8 70.1,-3.8 m 0,0 9.7,64.7 m -85.1,259.6 14,-90 m 61.5,132.3 -85.8,81.2 m 0,0 10.3,-123.5 m -10.3,123.5 -24.5,-134.6 m 24.5,134.6 -116.9,-117.3 m 26.3,86.5 -26.3,-86.5 m 206,191.1 -89.1,-73.8 m 89.1,73.8 -105.2,-6.6 m 247.3,-317.8 85.2,62.3 m 0,0 -171.5,-37.1 m 153.6,-39.5 17.9,76.6 m -34,113.4 -27,86.3 m 0,0 -134.2,1.7 m -35.5,-460.9 111.1,54.7 m 0,0 -101.4,10 m 122.4,45.2 -32.7,26.9 m 32.7,-26.9 105.3,39.8 M 1962.1,229.5 2067,208.7 m 0,0 0.4,60.6"
       id="plisM_004"
       stroke="#a52a2a"
       stroke-dasharray="4" />
    <path
       d="m 1787.1,221.5 52.6,-37.2 m -78.6,82.8 26,-45.6 m 43,264.7 -61.5,-132.3 m 61.5,132.3 -75.5,-42.3 m 306.1,-64.8 -67.8,36 m 33.8,77.4 -33.8,-77.4 m 33.8,77.4 -97.9,63.7 m 70.9,22.6 -70.9,-22.6 m 168.3,-44.7 -97.4,67.3 m 51.9,-12.8 -51.9,12.8 m -166.3,62.4 -27.3,49.5 m 135,-516.4 -11.7,82.1 m 32.7,-26.9 37.8,52.7 m 4.5,-120.6 62.6,47.1"
       id="plisV_004"
       stroke="#008000"
       stroke-dasharray="4, 1, 1, 1"
       stroke-width="1.27" />
    <path
       d="m 1811.4,200.9 4,4 m 0,-4 -4,4 m -39.3,37.4 4,4 m 0,-4 -4,4 m 25.2,171.8 4,4 m 0,-4 -4,4 m -7,41 4,4 m 0,-4 -4,4 m 234.5,-72 4,4 m 0,-4 -4,4 m -17,52.7 4,4 m 0,-4 -4,4 m -32.1,66.6 4,4 m 0,-4 -4,4 m -13.5,39.1 4,4 m 0,-4 -4,4 m 84.2,-26.3 4,4 m 0,-4 -4,4 m -22.8,23.2 4,4 m 0,-4 -4,4 m -205.8,89.6 4,4 m 0,-4 -4,4 m 115.5,-454.7 4,4 m 0,-4 -4,4 m 45.7,36.6 4,4 m 0,-4 -4,4 m 54.7,-74.7 4,4 m 0,-4 -4,4"
       id="marqueV_004"
       stroke="#008000" />
    <path
       d="m 1855.9,392.4 -7.5,10.5 h 11.2 m -3.7,-10.5 v 15.7"
       id="titre_4"
       stroke="#4b0082" />
  </g>
</svg>
