<?xml version="1.0" encoding="UTF-8" standalone="no"?>
<!-- Created by JSCAD SVG Serializer -->

<svg
   width="3760.2851mm"
   height="1599.7703mm"
   viewBox="0 0 3760.2851 1599.7703"
   version="1.1"
   id="svg38"
   sodipodi:docname="squelette_4x5.svg"
   inkscape:version="1.1.1 (3bf5ae0d25, 2021-09-20)"
   xmlns:inkscape="http://www.inkscape.org/namespaces/inkscape"
   xmlns:sodipodi="http://sodipodi.sourceforge.net/DTD/sodipodi-0.dtd"
   xmlns="http://www.w3.org/2000/svg"
   xmlns:svg="http://www.w3.org/2000/svg">
  <defs
     id="defs42" />
  <sodipodi:namedview
     id="namedview40"
     pagecolor="#ffffff"
     bordercolor="#666666"
     borderopacity="1.0"
     inkscape:pageshadow="2"
     inkscape:pageopacity="0.0"
     inkscape:pagecheckerboard="0"
     inkscape:document-units="mm"
     showgrid="false"
     inkscape:zoom="0.12447139"
     inkscape:cx="7106.0507"
     inkscape:cy="3024.7915"
     inkscape:window-width="1920"
     inkscape:window-height="1016"
     inkscape:window-x="0"
     inkscape:window-y="0"
     inkscape:window-maximized="1"
     inkscape:current-layer="svg38" />
  <path
     d="M 78.3339,390.5094 H 66.332 V 0.1692 L 26.1596,0.1788 42.5698,55.5578 52.9718,89.7944 42.6133,122.61 26.092,174.5861 9.8461,228.4038 0,261.3933 l 9.7494,32.4482 32.3516,108.5876 9.5416,32.047 -19.4458,65.6843 -6.2353,20.6444 -0.0242,0.0871 18.0343,196.8642 6.0275,63.0596 0.0049,0.0581 50.5694,-0.0581 23.825,-260.0109 347.8864,16.6568 181.619,7.9368 13.307,2.0784 -0.1885,-4.3647 0.1934,-2.7117 -0.0919,-256.84 0.0387,-10.7597 -0.1644,-10.5035 L 666.9015,5.5297 666.8386,0 h -6.5302 V 273.7529 H 654.305 V 0.0048 L 524.0676,0.0387 V 15.951 H 518.069 V 0.0435 L 366.3219,0.0822 v 15.893 h -6.0034 V 0.087 L 215.7396,0.1257 v 15.8495 0.0193 h -5.9985 V 0.1257 L 78.3339,0.1643 v 390.3451 m 573.912,89.9249 H 524.0676 v 29.7752 H 518.069 V 480.4343 H 366.3219 v 26.121 h -6.0034 v -26.121 H 215.7396 v 22.5151 h -5.9985 V 480.4343 H 101.1873 V 275.0387 h 551.0586 v 205.3956 m 0,-243.1802 H 524.0676 v 18.8947 H 518.069 V 237.2541 H 366.3219 v 18.8947 h -6.0034 V 237.2541 H 215.7396 v 18.8947 h -5.9985 V 237.2541 H 101.1873 V 31.8633 h 551.0586 v 205.3908"
     id="path2"
     style="fill:none;stroke:#000000" />
  <path
     d="m 1312.8145,507.6749 h -6.0015 v -27.2418 h -151.749 v 23.7959 h -5.9975 v -23.7959 h -144.5809 v 20.5107 h -5.9975 V 480.4331 H 889.9329 V 275.0412 h 551.0573 v 205.3919 h -128.1757 v 27.2418 m 0,-251.5287 h -6.0015 v -18.8908 h -151.749 v 18.8908 h -5.9975 v -18.8908 h -144.5809 v 18.8908 h -5.9975 V 237.2554 H 889.9329 V 31.8635 h 551.0573 v 205.3919 h -128.1757 v 18.8908 m 0,-239.7441 h -6.0015 V 0.9407 L 1155.064,0.982 v 15.4407 h -5.9975 V 0.9861 l -144.5809,0.0371 v 15.4201 h -5.9975 V 1.0273 L 861.0793,1.0644 v 259.7025 h -6.0015 V 1.0644 l -54.2694,0.0165 21.8627,73.8815 4.4682,15.0822 -4.5218,14.8596 -21.7349,70.9344 -21.4918,71.8865 -4.4558,14.8967 4.4393,14.7277 21.5124,71.3506 21.8504,72.744 4.4723,14.8678 -4.4229,14.13 -21.9204,69.9739 v 0.004 h 4.0312 l 108.2544,0.0577 27.2501,-6.5374 47.8351,6.5415 389.9185,17.0318 81.771,12.7821 -1.1624,-26.8131 1.1995,-16.6898 -0.062,-175.1739 0.2143,-63.0615 -0.9522,-61.5776 -0.066,-175.0586 -0.3545,-31.0217 h -9.6907 V 275.305 h -6.0015 V 0.9036 l -130.2367,0.033 v 15.4655"
     id="path6"
     style="fill:none;stroke:#000000" />
  <path
     d="m 1649.826,261.1658 h -6.0012 V 1.8988 l -55.32,0.0166 21.8472,71.4226 5.1439,16.898 -4.8871,16.1275 -21.1846,69.679 -21.1306,70.7393 -4.854,16.1815 4.8333,16.1317 20.9401,69.7991 21.2964,70.8097 4.9658,16.5045 -5.2102,16.1524 -21.9217,68.0596 h 5.3013 l 108.2833,0.0249 v 0 l 0.1036,-0.0249 65.8646,-15.8004 115.7921,15.8294 223.4914,9.7619 145.1688,22.6962 -2.0625,-47.4715 -0.01,-0.1284 2.1329,-29.6294 -0.033,-99.561 0.3727,-111.493 -1.6773,-108.8673 -0.037,-99.3995 -0.6295,-54.6283 -12.6113,0.0041 v 275.0053 h -6.0013 V 1.7331 L 2101.5594,1.7704 V 16.817 h -5.9972 V 1.7746 L 1943.8124,1.816 v 15.0217 h -6.0013 V 1.816 l -144.5765,0.0414 v 15.001 h -6.0012 V 1.8574 L 1649.826,1.8988 v 259.267 m 137.4074,-23.9097 H 1678.6767 V 31.8636 h 551.0583 v 205.3925 h -128.1756 v 18.89 h -5.9972 v -18.89 h -151.7498 v 18.89 h -6.0013 v -18.89 h -144.5765 v 18.89 h -6.0012 v -18.89 m 0,243.1766 H 1678.6767 V 275.0403 h 551.0583 v 205.3924 h -128.1756 v 25.0032 h -5.9972 v -25.0032 h -151.7498 v 21.4538 h -6.0013 v -21.4538 h -144.5765 v 14.2349 h -6.0012 v -14.2349"
     id="path10"
     style="fill:none;stroke:#000000" />
  <path
     d="m 2438.5713,391.5575 h -5.9995 V 2.6982 l -36.2577,0.0096 10.9073,48.5271 12.0714,39.1608 -11.1874,37.3929 -9.405,47.2373 -4.4392,24.7322 -18.2738,61.5452 18.3317,60.5309 4.3765,26.1716 10.2503,48.3726 11.825,39.7066 -15.4334,63.2505 -6.613,21.0851 23.1719,260.0012 h 44.9864 l 23.8288,-260.0012 67.994,-16.3174 35.1418,-8.4293 181.0323,24.7467 63.719,2.7823 206.0302,32.2097 -2.937,-67.5544 3.0287,-42.0494 -0.01,-26.9686 0.5313,-157.9861 -2.3766,-154.2666 -0.014,-26.7705 -0.8888,-77.2879 -15.4189,0.0048 v 275.5796 h -5.9995 V 2.5339 l -130.2397,0.0387 v 14.646 h -5.9994 V 2.5726 l -151.75,0.0434 v 14.6219 h -5.9995 V 2.616 l -144.5766,0.0387 v 14.6026 h -5.9995 V 2.6595 l -137.4081,0.0387 v 388.8593 m 579.9101,88.8762 h -128.1771 v 25.9784 h -5.9994 V 480.4337 H 2732.555 v 17.5106 h -5.9995 v -17.5106 h -144.5766 v 9.7625 h -5.9995 v -9.7625 H 2467.4238 V 275.0413 h 551.0576 v 205.3924 m 0,-243.1765 h -128.1771 v 18.892 h -5.9994 v -18.892 H 2732.555 v 18.892 h -5.9995 v -18.892 h -144.5766 v 18.892 h -5.9995 v -18.892 H 2467.4238 V 31.8647 h 551.0576 v 205.3925"
     id="path14"
     style="fill:none;stroke:#000000" />
  <path
     d="m 374.5013,1339.1768 51.8101,-0.013 h 46.514 l 19.4574,260 h 12.7547 V 1210.302 h 5.9994 v 388.8617 h 21.3429 l 18.93,-260 -3.3535,-12.2493 -14.9348,-54.2583 -5.1115,-17.8575 9.5331,-35.5041 13.4184,-52.7024 11.3307,-42.9451 8.865,-35.1964 3.3184,-11.278 -4.4963,-14.3063 -8.7683,-32.4494 -10.377,-36.9765 -13.581,-49.05 -10.2407,-35.0997 6.5312,-24.5734 11.5065,-45.5031 4.5094,-17.5103 -510.5769,-2.9887 0.1318,20.499 0.3824,60.7895 0.5934,93.4367 0.4395,69.4259 0.9318,146.3896 2.2723,358.1133 4.6369,32.4011 24.3975,-0.1714 v -390.343 h 5.9994 v 390.299 l 14.6095,-0.1055 11.0406,-0.1011 21.844,-260.1583 46.4832,0.013 h 53.6297 v -0.013 -259.6792 h 5.9994 v 259.6924 h 33.3373 l 102.8863,-0.022 v -259.2704 h 6.0038 v 259.266 m -248.5331,-92.0082 6.1093,6.1488 -6.0785,5.8104 -2.0174,-1.969 -3.8018,-3.9733 5.7884,-6.0169 m 351.7271,7.6827 -3.1118,5.5028 -2.7909,2.6722 -8.764,-8.1618 8.698,-8.6541 5.9687,8.6409 m -344.3125,-346.2595 -8.4738,8.1662 -8.4607,-8.1882 8.531,-8.5661 8.4035,8.5881 m 338.0625,-5.3665 3.9908,5.8236 -4.0391,6.039 -6.2719,-6.0522 6.3202,-5.8104"
     id="path18"
     style="fill:none;stroke:#000000" />
  <path
     d="m 867.4118,1343.6035 34.3709,-0.1947 113.2338,-3.7363 v -19.9851 h 6.0025 v 19.787 l 7.6604,-0.2503 128.565,-13.2145 v -12.5958 h 5.999 v 11.9771 l 64.9568,-6.6732 65.5824,-0.014 v -9.7632 h 5.999 v 9.7632 h 2.1828 14.6986 v 0 l -4.8208,-11.0422 -2.1757,-8.4842 H 856.7102 v -205.3912 h 4.7026 v -18.8937 h 5.999 v 18.8937 h 147.6047 v -18.8937 h 6.0025 v 18.8937 h 136.2254 v -18.8937 h 5.999 v 18.8937 h 130.5392 v -18.8937 h 5.999 v 18.8937 h 38.5835 l 4.9424,-16.8014 -6.5969,-20.9826 H 856.7102 V 850.6109 h 4.7026 V 834.741 h 5.999 v 15.8699 h 147.6047 v -15.4215 h 6.0025 v 15.4215 h 136.2254 v -15.0044 h 5.999 v 15.0044 h 130.5392 v -14.6047 h 5.999 v 14.6047 h 7.2989 l 7.1147,-24.5764 1.1574,-4.5045 -487.6156,-2.8535 0.2016,31.9344 1.3068,205.3913 0.2399,37.784 1.5849,250.0188 30.3426,-0.1703 v -21.9419 h 5.999 v 21.9107"
     id="path22"
     style="fill:none;stroke:#000000" />
  <path
     d="m 1809.765,1346.0544 136.2247,-4.4966 v -20.9283 h 6.0014 v 20.7291 l 66.1326,-2.1807 64.4038,-6.6204 v -15.8697 h 6.0014 v 15.2543 l 33.9094,-3.4863 -2.5009,-5.7452 -6.8836,-23.5324 h -467.5995 v -205.3919 h 4.7029 v -18.8935 h 6.0014 v 18.8935 h 147.605 v -18.8935 h 6.0014 v 18.8935 h 136.2247 v -18.8935 h 6.0014 v 18.8935 h 130.5364 v -18.8935 h 6.0014 v 18.8935 h 56.0046 l 2.0704,-7.218 2.8424,-9.6549 -3.6286,-11.9316 -2.725,-8.979 H 1645.4543 V 850.6109 h 4.7029 v -15.891 h 6.0014 v 15.891 h 147.605 v -15.4428 h 6.0014 v 15.4428 h 136.2247 v -15.0266 h 6.0014 v 15.0266 h 130.5364 v -14.6281 h 6.0014 v 14.6281 h 25.0016 l 5.3077,-17.4421 3.3724,-11.5758 -505.6106,-2.9598 0.2028,31.9777 1.302,205.3919 0.2383,37.7835 1.6329,257.2307 30.1812,-0.1707 v -25.5459 h 6.0014 v 25.5139 l 11.2166,-0.064 136.3884,-4.5001 v -23.2727 h 6.0014 v 23.077"
     id="path26"
     style="fill:none;stroke:#000000" />
  <path
     d="m 2598.5101,1352.9435 136.2245,-4.4933 v -24.2676 h 6.002 v 24.0667 l 21.6812,-0.7124 108.8554,1.5562 v -23.9352 h 6.0021 v 24.0229 l 55.0706,0.7854 -14.722,-50.7892 h -483.4235 v -205.3925 h 4.7052 v -18.8902 h 5.9984 v 18.8902 h 147.604 v -18.8902 h 6.0021 v 18.8902 h 136.2245 v -18.8902 h 6.002 v 18.8902 h 130.5366 v -18.8902 h 6.0021 v 18.8902 h 77.3437 l 3.3864,-11.4927 1.4137,-5.4431 -2.3051,-6.645 -4.3253,-14.2033 H 2434.2004 V 850.6115 h 4.7052 v -15.9166 h 5.9984 v 15.9166 h 147.604 v -15.4636 h 6.0021 v 15.4636 h 136.2245 v -15.0508 h 6.002 v 15.0508 h 130.5366 v -14.6489 h 6.0021 v 14.6489 h 46.6575 l 5.6952,-18.8792 2.3015,-10.0607 -526.4644,-3.0796 0.2009,32.0195 1.3041,205.3889 0.2411,37.7841 1.6805,264.7848 22.9707,-0.1279 7.0432,-0.2338 v -29.2504 h 5.9984 v 29.0532 l 147.604,-4.8696 v -26.7189 h 6.0021 v 26.5216"
     id="path30"
     style="fill:none;stroke:#000000" />
  <path
     d="m 3195.8308,1057.45 1.9541,307.643 1.8756,-0.011 27.0317,-0.8892 0.9565,0.011 v -271.704 h 6.0005 v 271.7899 l 147.6043,2.1148 v -272.3541 h 6.0004 v 272.44 l 136.2275,1.9503 v -272.9594 h 6.0005 v 273.0453 l 130.5371,1.8682 V 1096.86 h 6.0005 v 273.6207 l 68.2127,0.9752 -2.8806,-9.9422 -12.0569,-56.7387 -1.3638,-5.5969 -0.5529,-3.4224 -9.0081,-42.4028 43.957,-147.623 3.8521,-13.1292 4.1061,-15.8268 -6.6991,-19.3239 -4.1248,-13.4766 -41.3043,-136.8141 17.5342,-51.975 2.0923,-6.9532 6.0714,-26.5199 -539.5409,-3.1571 0.5642,88.6052 0.8668,136.8141 0.086,13.4766"
     id="path34"
     style="fill:none;stroke:#000000" />
</svg>
