<?xml version="1.0" encoding="UTF-8" standalone="no"?>
<svg
   height="841.88977pt"
   viewBox="0 0 532.99998 754.00001"
   width="595.27557pt"
   version="1.1"
   id="svg162"
   sodipodi:docname="Nonosse156_H30_A4x3.svg"
   inkscape:version="1.3 (0e150ed6c4, 2023-07-21)"
   xmlns:inkscape="http://www.inkscape.org/namespaces/inkscape"
   xmlns:sodipodi="http://sodipodi.sourceforge.net/DTD/sodipodi-0.dtd"
   xmlns="http://www.w3.org/2000/svg"
   xmlns:svg="http://www.w3.org/2000/svg">
  <defs
     id="defs162" />
  <sodipodi:namedview
     id="namedview162"
     pagecolor="#ffffff"
     bordercolor="#000000"
     borderopacity="0.25"
     inkscape:showpageshadow="2"
     inkscape:pageopacity="0.0"
     inkscape:pagecheckerboard="0"
     inkscape:deskcolor="#d1d1d1"
     inkscape:document-units="mm"
     showgrid="false"
     inkscape:zoom="2.2969587"
     inkscape:cx="1976.7443"
     inkscape:cy="858.74422"
     inkscape:window-width="1920"
     inkscape:window-height="1057"
     inkscape:window-x="-8"
     inkscape:window-y="-8"
     inkscape:window-maximized="1"
     inkscape:current-layer="svg162" />
  <style
     type="text/css"
     id="style1"><![CDATA[
			path {
				fill: none;
			}
		]]></style>
  <g
     id="page_001">
    <path
       d="m 282.4,170.3 61.2,-17.4 64.4,10 -11.9,-60.3 57.5,-42.2 31.2,59.8 1.6,312 -36.3,38.7 -45.3,22.8 -50.5,-34.1 -62.3,1.6 -42.2,16.3 -33.1,3.7 -33.2,-24 -33,1.1 L 112.6,459 60.5,440.9 20.4,430.2 19.1,118.3 55.5,96 l 45.3,24.3 45,-10.5 27.2,-20.2 36.1,61.9 30.8,16.7 z"
       id="coupes_001"
       stroke="#ff0000"
       stroke-width="1.27"
       sodipodi:nodetypes="cccccccccccccccccccccccccc" />
    <path
       d="M 404.8,493.7 408,162.9 354.3,459.6 343.6,152.9 292,461.2 282.4,170.3 249.8,477.5 239.9,168.2 216.7,481.2 209.1,151.5 183.5,457.2 173,89.6 150.5,458.3 145.8,109.8 112.6,459 100.8,120.3 60.5,440.9 55.5,96 20.4,430.2 M 408,162.9 l 42.1,308 m 3.5,-410.5 -3.5,410.5 m 34.7,-350.7 -34.7,350.7"
       id="plisM_001"
       stroke="#a52a2a"
       stroke-dasharray="4"
       sodipodi:nodetypes="ccccccccccccccccccccccccc" />
    <path
       d="M 408,162.9 453.6,60.4"
       id="plisV_001"
       stroke="#008000"
       stroke-dasharray="4, 1, 1, 1"
       stroke-width="1.27" />
    <path
       d="m 428.8,109.6 4,4 m 0,-4 -4,4"
       id="marqueV_001"
       stroke="#008000" />
    <g
       id="nums_001">
      <path
         d="m 375.4,169.3 -0.8,0.4 -1.3,1.3 1.6,-10.3"
         stroke="#000000"
         stroke-width="1"
         id="path1" />
      <path
         d="m 322,446.7 -1.1,0.5 -0.7,1.5 -0.3,2.5 v 1.5 l 0.5,2.5 0.7,1.5 1.2,0.5 0.7,-0.1 1.1,-0.5 0.8,-1.5 0.3,-2.5 -0.1,-1.5 -0.4,-2.5 -0.8,-1.5 -1.1,-0.5 -0.6,0.1"
         stroke="#000000"
         stroke-width="1"
         id="path2" />
      <path
         d="m 318.5,171.7 0.1,0.5 v 1 l -0.3,0.6 -0.6,0.7 -1.4,0.4 -0.9,-0.3 -0.5,-0.3 -0.6,-0.9 -0.3,-1 0.1,-1 0.3,-1.7 2.3,-5.8 -5.1,1.4"
         stroke="#000000"
         stroke-width="1"
         id="path3" />
      <path
         d="m 263.8,457.3 3.8,-1.4 -0.6,4.5 1,-0.4 0.9,0.2 0.5,0.3 0.9,1.3 0.4,0.9 0.2,1.6 -0.4,1.2 -0.8,0.8 -1.1,0.4 h -1.2 l -0.5,-0.4 -0.8,-0.8"
         stroke="#000000"
         stroke-width="1"
         id="path4" />
      <path
         d="m 387.8,465.5 -7,3.7 4.7,3.1 m 2.3,-6.8 -5.8,8.7"
         stroke="#000000"
         stroke-width="1"
         id="path5" />
      <path
         d="m 259.1,182.9 3.7,0.2 0.6,-4.5 -0.4,0.5 -1.2,0.4 h -1.1 l -1.1,-0.6 -0.7,-1 -0.3,-1.5 0.1,-1 0.4,-1.5 0.8,-1 1.2,-0.4 h 1.1 l 1.1,0.6 0.3,0.5 0.4,1"
         stroke="#000000"
         stroke-width="1"
         id="path6" />
      <path
         d="m 233.5,467 -0.5,-1 -1.2,-0.3 h -0.7 l -1.1,0.7 -0.5,1.5 -0.1,2.6 0.2,2.4 0.6,2 0.9,0.9 1.2,0.4 0.3,-0.1 1.1,-0.6 0.6,-1.1 0.2,-1.5 v -0.5 l -0.5,-1.4 -0.9,-1 -1.2,-0.3 h -0.4 l -1,0.6 -0.6,1.1 -0.3,1.5"
         stroke="#000000"
         stroke-width="1"
         id="path7" />
      <path
         d="m 423.2,469.1 1.3,11 m -6,-8.7 4.7,-2.3"
         stroke="#000000"
         stroke-width="1"
         id="path8" />
      <path
         d="m 219,172.5 1.2,0.1 0.8,-0.7 0.5,-0.9 0.1,-1 -0.4,-0.8 -1.1,-1.2 -0.7,-1 -0.2,-1.2 0.1,-1 0.7,-1.4 0.8,-0.7 0.6,-0.2 1.2,0.1 1.4,0.7 0.7,1 0.1,0.6 -0.1,1 -0.8,1.4 -0.8,0.7 -1.1,0.5 -1.2,-0.1 -1.6,-0.3 -0.9,0.1 -0.8,0.7 -0.5,0.9 -0.1,1 0.8,1 1.4,0.8"
         stroke="#000000"
         stroke-width="1"
         id="path9" />
      <path
         d="m 207.8,462.1 -1.2,1 -1.2,0.4 -1.2,-0.3 -0.3,-0.2 -0.6,-1.1 -0.1,-1.2 0.6,-1.5 0.3,-0.4 1.2,-1 1.2,-0.3 1.2,0.2 0.3,0.2 0.6,1.1 v 1.2 l -0.8,1.9 -1.5,2 -1.8,1.8 -1.5,0.8 -1.2,-0.3 -0.6,-0.4 -0.6,-1.1 0.3,-1"
         stroke="#000000"
         stroke-width="1"
         id="path10" />
      <path
         d="m 461.2,99.7 -0.8,-0.4 -1.8,-0.3 9.3,-4.9 m -11.2,2 1,0.7 h 1.6 l 2.4,-0.8 1.4,-0.7 2,-1.5 1,-1.3 -0.1,-1.3 -0.3,-0.6 -1,-0.8 H 463 l -2.4,0.8 -1.3,0.7 -2,1.5 -1,1.4 0.1,1.2 0.2,0.5"
         stroke="#000000"
         stroke-width="1"
         id="path11" />
      <path
         d="m 182.6,128.8 -0.8,-0.4 -1.8,-0.2 9,-5.3 m -7.9,3.3 -0.8,-0.4 -1.8,-0.2 9,-5.3"
         stroke="#000000"
         stroke-width="1"
         id="path12" />
      <path
         d="m 161.9,446.5 0.7,-0.5 1.1,-1.5 0.3,10.5 m 1.6,-8.4 v -0.5 l 0.3,-1.1 0.4,-0.5 0.7,-0.5 h 1.5 l 0.7,0.4 0.4,0.5 0.4,1 0.1,1 -0.4,1 -0.7,1.5 -3.5,5.2 5.2,-0.2"
         stroke="#000000"
         stroke-width="1"
         id="path13" />
      <path
         d="m 165.70596,109.12432 -0.3,0.8 v 1.9 l -6.3,-8.4 m 1,10.9 0.9,0.6 1.2,-0.3 0.6,-0.5 0.6,-1 -0.3,-1.7 -1.2,-2.2 -1.5,-2 -1.5,-1.4 -1.2,-0.4 -1.2,0.3 -0.3,0.2 -0.6,1.1 v 1.3 l 0.6,1.4 0.3,0.4 1.2,1 1.2,0.3 1.2,-0.2 0.3,-0.3 0.6,-1 v -1.3 l -0.6,-1.4"
         stroke="#000000"
         stroke-width="1"
         id="path14" />
      <path
         d="m 126.8,447.3 0.7,-0.5 1.1,-1.5 0.2,10.5 m 6.1,-11 -3.6,10.6 m -1.7,-10.5 5.3,-0.1"
         stroke="#000000"
         stroke-width="1"
         id="path15" />
      <path
         d="m 435.4,91 -1.1,-7.9 -4.6,3.3 m 5.7,4.6 -6.2,-8.5 m 1.8,11.5 0.6,-1 -0.2,-1.7 -1.2,-2.2 -0.9,-1.2 -1.8,-1.8 -1.5,-0.8 -1.2,0.3 -0.6,0.4 -0.6,1.1 0.3,1.6 1.2,2.3 0.9,1.2 1.7,1.8 1.5,0.7 1.2,-0.2 0.5,-0.4"
         stroke="#000000"
         stroke-width="1"
         id="path16" />
      <path
         d="m 415.1,127.2 -7.6,-2.3 1.1,5.5 m 6.5,-3.2 -10.3,2 m 8.5,1.4 0.6,0.6 1.7,0.8 -10.3,2.1"
         stroke="#000000"
         stroke-width="1"
         id="path17" />
      <path
         d="m 131.6,124.7 0.1,0.4 -0.1,1.1 -0.3,0.6 -0.6,0.6 -1.4,0.4 -0.9,-0.3 -0.5,-0.4 -0.5,-0.9 -0.3,-1 0.2,-1.1 0.4,-1.6 2.5,-5.7 -5.2,1.2 m 0.9,8.2 -0.7,0.6 -0.7,1.7 -2.4,-10.2"
         stroke="#000000"
         stroke-width="1"
         id="path18" />
      <path
         d="m 84.7,437.4 0.1,-0.5 0.7,-0.8 0.5,-0.4 0.9,-0.2 1.4,0.5 0.6,0.7 0.2,0.6 v 1.1 l -0.3,0.9 -0.7,0.8 -1.2,1.2 -5.2,3.5 5,1.7 m 6.7,-8.8 -1.3,0.1 -1.2,1.2 -1.1,2.2 -0.5,1.5 -0.5,2.4 0.2,1.7 0.9,0.8 0.7,0.3 1.2,-0.1 1.2,-1.2 1.2,-2.2 0.5,-1.4 0.5,-2.5 -0.2,-1.7 -0.9,-0.8 -0.6,-0.2"
         stroke="#000000"
         stroke-width="1"
         id="path19" />
      <path
         d="m 76.7,120.3 -0.9,0.1 -1.7,0.8 4.9,-9.3 m -8.8,3.7 1.1,-1.2 1.1,-0.5 1.2,0.1 0.4,0.2 0.7,0.9 0.2,1.3 -0.4,1.5 -0.2,0.4 -1,1.1 -1.2,0.6 -1.2,-0.1 -0.3,-0.2 -0.8,-1 -0.2,-1.2 0.6,-1.9 1.2,-2.2 1.5,-2.1 1.4,-0.9 1.2,0.1 0.7,0.3 0.7,1 -0.1,1"
         stroke="#000000"
         stroke-width="1"
         id="path20" />
      <path
         d="m 38.9,423.3 0.9,-0.3 1.4,-1.1 -2.7,10.1 m 5.8,-9.7 -1.2,0.2 -0.6,0.9 -0.3,1 0.1,1 0.6,0.7 1.3,0.9 1,0.7 0.5,1.2 0.1,1.1 -0.4,1.4 -0.6,0.9 -0.5,0.4 -1.3,0.2 -1.4,-0.4 -1,-0.8 -0.2,-0.6 -0.1,-1 0.4,-1.5 0.6,-0.9 1,-0.7 1.2,-0.2 1.6,-0.1 0.8,-0.3 0.6,-0.9 0.3,-1 -0.1,-1 -1,-0.8 -1.6,-0.4"
         stroke="#000000"
         stroke-width="1"
         id="path21" />
      <path
         d="m 47.2,114.5 -0.4,0.8 -0.2,1.9 -5.5,-9 m 0.9,12.2 3.2,-1.9 -2.1,-4.1 v 0.7 l -0.7,1 -1,0.6 -1.2,0.1 -1.2,-0.4 -1.1,-1.1 -0.5,-0.9 -0.4,-1.5 0.1,-1.2 0.7,-1 0.9,-0.6 1.2,-0.2 0.6,0.3 0.9,0.6"
         stroke="#000000"
         stroke-width="1"
         id="path22" />
      <path
         d="m 31.1,269.6 0.5,0.8 1.5,1.1 H 22.6 m 10.9,1.9 v 4.1 l -4,-2.2 v 1.1 l -0.5,0.7 -0.5,0.4 -1.5,0.4 h -1 l -1.5,-0.4 -1,-0.7 -0.5,-1.1 v -1.2 l 0.5,-1.1 0.5,-0.4 1,-0.3"
         stroke="#000000"
         stroke-width="1"
         id="path23" />
      <path
         d="m 474.2,280.9 -0.5,-0.8 -1.5,-1.1 h 10.5 m -10.8,-1.9 -0.1,-4.1 4.1,2.2 v -1.1 l 0.5,-0.8 0.4,-0.3 1.5,-0.4 h 1 l 1.5,0.3 1.1,0.8 0.5,1.1 v 1.1 l -0.5,1.2 -0.5,0.3 -1,0.4"
         stroke="#000000"
         stroke-width="1"
         id="path24" />
      <path
         d="m 456.6,447.3 0.1,-0.9 -0.3,-1.8 7.7,7.2 m -4.5,-11.3 2.5,7.6 3.9,-4.1 m -6.4,-3.5 7.7,7.2"
         stroke="#000000"
         stroke-width="1"
         id="path25" />
    </g>
    <path
       d="m 255.5,263.1 1.1,-0.7 1.7,-2.3 v 15.8"
       id="titre_1"
       stroke="#4b0082"
       style="stroke-width:2.53872" />
  </g>
  <g
     id="page_002">
    <path
       d="M 640.8,197.6 655.7,79 675.3,24 713,77.7 l -10.5,84.2 54.5,-65 -27.5,-59.6 63.6,-2 42.4,2.6 31.9,14.7 41.1,58.7 24.4,-23.5 40.1,-23 51.4,-1.7 -12.6,36 -60.7,37 -49.4,44.4 -71.9,-68.2 -74.4,76.9 95.2,-48.8 60,78.8 48.3,-45.5 48.5,-52 25.3,69.7 13.9,92.9 -55.1,-14.1 26.9,50.2 -79.7,45.2 -62.3,-35.5 12.5,-47.3 -99.8,-15.3 -7.6,62.8 53.1,-34.3 22.1,98.5 -38.6,30.1 71.2,8.5 90.6,13.4 -32,48.2 54.9,-18.1 14.6,92.8 -77.6,-1.8 50.9,58.6 -68.8,27.8 -54.7,-47.3 13.5,-89.1 -71.7,54.5 14.4,70.9 -36.7,-10.6 -40.8,-12.3 13.4,-66.1 29.6,-65.4 -68,-32.6 45.6,-48.8 -61.8,25.3 30.5,68.9 -39.9,59.8 -70.4,-11.3 -29.5,53.9 -49.7,-42.1 25.2,-52.6 6.1,-119.4 46.8,31.8 -30.6,-47.5 96.7,-19.9 -64.3,-74.9 83.2,-26.8 z"
       id="coupes_002"
       stroke="#ff0000"
       stroke-width="1.27"
       sodipodi:nodetypes="ccccccccccccccccccccccccccccccccccccccccccccccccccccccccccccccccccc" />
    <path
       d="m 640.8,197.6 61.7,-35.7 6.3,90.5 M 793.1,35.3 757,96.9 l -1.6,92.3 33.7,78.3 61.5,-127.1 m -69.1,189.9 -72.7,-77.9 80.3,15.1 121.5,-48.3 80.9,51 m -156,-232.3 -5.7,74.4 37.6,-59.7 34.3,127.9 6.8,-69.2 42.6,24.8 M 856.7,394.5 781.5,330.3 689.9,354.1 708.8,252.4 755.4,189.2 702.5,161.9 655.7,79 m 335.8,191.2 -32.6,-96.5 73.8,17.7 -41.2,78.8 -52.8,95.4 -49.8,-82.8 z m -366.6,279.7 -1.1,-128.4 80.9,11 -14.8,-78.4 m 14.8,78.4 -9.4,128.7 m 194,-128.1 -100.4,55.5 -22.4,-81.4 51.6,17.4 -36.6,-94.3 -15,76.9 -76.6,-53.1 -66.1,67.4 -52.9,87.6 24.5,94.7 m 352.5,-109.1 -8.1,72.9 -17.9,86.4 m -133,-165.4 91.8,29 67.2,-22.9 -58.6,-61.6 -8.6,84.5 59.1,50 -72.6,39.1 m 13.5,-89.1 -121.4,36.4 49.7,18.1 -63.1,48 M 1011.8,99.1 973,64.8 951.1,136.1 932.9,87.8"
       id="plisM_002"
       stroke="#a52a2a"
       stroke-dasharray="4"
       sodipodi:nodetypes="ccccccccccccccccccccccccccccccccccccccccccccccccccccccccccccccccccc" />
    <path
       d="M 829.8,112.3 757,96.9 l 78.5,-59 m 75.1,181.3 -21.7,63.6 M 655.7,79 713,77.7 m -8.3,354.8 -79.8,117.4 -54,-40.8 m 247.2,-84.5 -29.2,64 m 20.1,83.5 -22.3,60.3 m 216.1,-155.8 -63,91"
       id="plisV_002"
       stroke="#008000"
       stroke-dasharray="4, 1, 1, 1"
       stroke-width="1.27"
       sodipodi:nodetypes="cccccccccccccccc" />
    <path
       d="m 791.4,102.6 4,4 m 0,-4 -4,4 m 2.9,-41.2 4,4 m 0,-4 -4,4 m 103.4,179.6 4,4 m 0,-4 -4,4 M 682.3,76.4 l 4,4 m 0,-4 -4,4 m -19.5,408.8 4,4 m 0,-4 -4,4 m 138.7,-38.6 4,4 m 0,-4 -4,4 m -5.6,141.7 4,4 m 0,-4 -4,4 m 173.4,-84.2 4,4 m 0,-4 -4,4 m -373.4,3.4 4,4 m 0,-4 -4,4"
       id="marqueV_002"
       stroke="#008000" />
    <g
       id="nums_002">
      <path
         d="m 677.3,212.6 0.3,-0.4 0.9,-0.6 0.6,-0.1 0.9,0.1 1.2,0.9 0.3,0.9 -0.1,0.6 -0.3,1 -0.6,0.8 -0.9,0.5 -1.6,0.7 -6,1.6 4.1,3.3 m 6.4,-5.1 0.3,-0.4 0.9,-0.6 0.6,-0.1 0.9,0.1 1.2,0.9 0.3,0.9 v 0.6 l -0.4,1 -0.6,0.8 -0.9,0.5 -1.5,0.7 -6.1,1.6 4.1,3.3"
         stroke="#000000"
         stroke-width="1"
         id="path26" />
      <path
         d="m 660.1,133.9 h 0.5 l 1,0.5 0.4,0.5 0.4,0.8 -0.2,1.5 -0.6,0.7 -0.5,0.3 -1,0.2 -1,-0.1 -1,-0.5 -1.4,-0.9 -4.5,-4.4 -0.6,5.2 m 10.2,3.2 -0.6,4.1 -3.6,-2.7 -0.2,1.1 -0.6,0.7 -0.5,0.3 -1.6,0.2 -0.9,-0.2 -1.5,-0.5 -0.9,-0.9 -0.3,-1.2 0.1,-1.1 0.6,-1 0.6,-0.3 1,-0.3"
         stroke="#000000"
         stroke-width="1"
         id="path27" />
      <path
         d="m 742.2,132.1 0.4,0.3 0.5,1 0.1,0.6 -0.1,0.9 -0.9,1.1 -0.9,0.3 -0.6,-0.1 -1,-0.3 -0.8,-0.7 -0.5,-0.9 -0.7,-1.5 -1.4,-6.1 -3.4,4 m 4.4,11.1 2.4,-2.9 -3.2,-3.2 0.2,0.6 -0.4,1.2 -0.7,0.9 -1.1,0.5 h -1.2 l -1.4,-0.7 -0.8,-0.7 -0.9,-1.2 -0.3,-1.2 0.3,-1.2 0.8,-0.9 1.1,-0.5 h 0.6 l 1,0.4"
         stroke="#000000"
         stroke-width="1"
         id="path28" />
      <path
         d="m 780.4,147.1 -0.3,-0.3 -0.5,-1 -0.1,-0.6 0.2,-0.9 1,-1.1 0.9,-0.1 h 0.6 l 1,0.5 0.7,0.7 0.5,0.9 0.5,1.6 1,6.2 3.7,-3.8 m -2.5,-10.3 -1,-0.5 -1.2,0.5 -0.5,0.5 -0.4,1.2 0.6,1.6 1.5,2 1.8,1.7 1.7,1.1 1.2,0.2 1.2,-0.5 0.2,-0.2 0.5,-1.2 -0.2,-1.2 -0.9,-1.3 -0.3,-0.4 -1.4,-0.8 -1.2,-0.1 -1.1,0.4 -0.3,0.3 -0.4,1.2 0.2,1.2 0.8,1.3"
         stroke="#000000"
         stroke-width="1"
         id="path29" />
      <path
         d="m 813.4,172.1 0.2,0.5 0.1,1 -0.1,0.6 -0.4,0.8 -1.4,0.7 -0.9,-0.1 -0.5,-0.3 -0.8,-0.7 -0.5,-0.9 -0.1,-1 V 171 l 1.1,-6.2 -4.7,2.4 m -1,10.6 0.8,0.7 h 1.2 l 0.7,-0.4 0.8,-0.9 v -1.7 l -0.8,-2.4 -1.2,-2.2 -1.2,-1.6 -1.1,-0.6 -1.3,0.1 -0.3,0.2 -0.8,0.9 -0.2,1.2 0.4,1.6 0.2,0.4 1,1.2 1.1,0.5 1.3,-0.1 0.3,-0.1 0.8,-1 0.2,-1.2 -0.4,-1.5"
         stroke="#000000"
         stroke-width="1"
         id="path30" />
      <path
         d="m 773.4,303.4 -0.5,-0.1 -0.9,-0.5 -0.5,-0.4 -0.4,-0.8 0.2,-1.5 0.6,-0.7 0.5,-0.3 1.1,-0.2 1,0.1 0.9,0.5 1.4,0.9 4.5,4.3 0.6,-5.2 m -6.2,-6.8 1.5,0.5 0.9,0.9 0.3,1.2 v 0.3 l -0.6,1.1 -1.1,0.6 -1.6,0.2 -0.5,-0.1 -1.4,-0.5 -0.9,-0.9 -0.4,-1.2 0.1,-0.3 0.6,-1.1 1.1,-0.6 2,-0.1 2.5,0.3 2.5,0.6 1.4,1 0.3,1.1 -0.1,0.8 -0.6,1 -1.1,0.3"
         stroke="#000000"
         stroke-width="1"
         id="path31" />
      <path
         d="m 873,192.5 -2.5,-3.3 4.5,-0.6 -0.6,-0.9 -0.1,-0.9 0.2,-0.6 0.9,-1.2 0.8,-0.6 1.5,-0.6 1.2,-0.1 1.1,0.6 0.7,0.9 0.2,1.2 -0.1,0.6 -0.6,0.9 m -8.7,-1.3 -0.9,-0.3 h -1.8 l 8.3,-6.3"
         stroke="#000000"
         stroke-width="1"
         id="path32" />
      <path
         d="m 846.8,58.2 1.2,0.1 0.8,-0.8 0.4,-0.9 0.1,-1.1 -0.5,-0.7 -1.2,-1.1 -0.8,-0.9 -0.2,-1.3 v -1 l 0.7,-1.4 0.7,-0.7 0.6,-0.3 h 1.2 l 1.4,0.6 0.8,0.9 0.1,0.6 -0.1,1.1 -0.6,1.4 -0.8,0.7 -1.1,0.6 h -1.2 l -1.6,-0.2 -0.9,0.2 -0.7,0.7 -0.4,0.9 -0.1,1.1 0.8,0.9 1.5,0.7"
         stroke="#000000"
         stroke-width="1"
         id="path33" />
      <path
         d="m 835.6,260.7 4.1,0.7 -2.8,3.6 1.1,0.1 0.7,0.6 0.3,0.6 0.1,1.5 -0.2,1 -0.6,1.5 -0.8,0.8 -1.2,0.4 -1.1,-0.2 -1.1,-0.7 -0.3,-0.5 -0.2,-1.1 m 9.9,-7.1 -1.2,0.4 -1,1.3 -0.7,2.4 -0.3,1.5 v 2.6 l 0.6,1.5 1,0.7 0.7,0.1 1.2,-0.3 1,-1.4 0.7,-2.4 0.3,-1.5 v -2.5 l -0.5,-1.6 -1.1,-0.7 h -0.5"
         stroke="#000000"
         stroke-width="1"
         id="path34" />
      <path
         d="m 662.4,304.8 0.3,-0.3 1,-0.4 h 0.7 l 0.8,0.2 1,1.1 0.1,0.9 -0.1,0.6 -0.5,1 -0.8,0.6 -1,0.4 -1.6,0.4 -6.3,0.4 3.5,4 m 11.3,-3 -7.7,1.7 3.7,4.3 m 4,-6 -7.9,6.8"
         stroke="#000000"
         stroke-width="1"
         id="path35" />
      <path
         d="m 676.3,274.7 0.1,0.5 v 1.1 l -0.2,0.6 -0.6,0.7 -1.4,0.4 -0.9,-0.2 -0.5,-0.4 -0.7,-0.8 -0.3,-0.9 0.1,-1.1 0.2,-1.7 2.1,-5.9 -5,1.6 m 0.7,8.2 0.1,0.5 v 1 l -0.2,0.6 -0.6,0.7 -1.4,0.5 -0.9,-0.2 -0.5,-0.4 -0.6,-0.8 -0.3,-1 v -1.1 l 0.3,-1.6 2,-5.9 -5,1.6"
         stroke="#000000"
         stroke-width="1"
         id="path36" />
      <path
         d="m 806.41693,49.472879 3.8,0.2 0.6,-4.5 -0.4,0.5 -1.1,0.4 h -1.2 l -1.1,-0.6 -0.7,-1 -0.2,-1.6 v -1 l 0.5,-1.4 0.8,-1 1.2,-0.4 1.1,0.1 1.1,0.5 0.3,0.5 0.3,1.1"
         stroke="#000000"
         stroke-width="1"
         id="path37" />
      <path
         d="m 871.2,132.6 3,2.9 -4.4,1.3 0.8,0.8 0.2,0.9 v 0.6 l -0.8,1.3 -0.7,0.8 -1.3,0.8 -1.2,0.2 -1.2,-0.4 -0.8,-0.8 -0.5,-1.1 0.1,-0.6 0.4,-1 m 8.8,-0.1 0.9,0.1 1.9,-0.3 -7.2,7.6"
         stroke="#000000"
         stroke-width="1"
         id="path38" />
      <path
         d="m 886.91697,99.898334 -0.9,-0.3 h -1.8 l 8.6,-6.1 m -7.6,4 -0.8,-0.3 -1.9,-0.1 8.6,-6"
         stroke="#000000"
         stroke-width="1"
         id="path39" />
      <path
         d="m 948.4,202.5 -3,2.8 -1.1,-4.5 -0.8,0.8 -0.9,0.2 -0.6,-0.1 -1.3,-0.9 -0.7,-0.7 -0.8,-1.4 -0.1,-1.2 0.5,-1.1 0.8,-0.8 1.2,-0.4 0.6,0.1 0.9,0.5 m -1.6,13.3 -2.1,-7.6 -4.1,3.8 m 6.2,3.8 -7.2,-7.6"
         stroke="#000000"
         stroke-width="1"
         id="path40" />
      <path
         d="m 1026.9,245.3 -0.6,-4.1 4.3,1.7 -0.2,-1.1 0.4,-0.9 0.4,-0.4 1.5,-0.6 0.9,-0.2 1.6,0.2 1.1,0.6 0.6,1 0.2,1.1 -0.3,1.2 -0.5,0.5 -0.9,0.5 m -10.1,-10.1 10.9,2.1 m -10.1,3.1 -0.8,-5.2"
         stroke="#000000"
         stroke-width="1"
         id="path41" />
      <path
         d="m 1017.1,262.6 4,1 -3.1,3.3 1,0.3 0.6,0.7 0.3,0.5 v 1.6 l -0.3,1 -0.7,1.3 -1,0.8 -1.2,0.2 -1.1,-0.3 -0.9,-0.7 -0.3,-0.6 -0.1,-1.1 m 12.7,-5.5 -3.7,-0.9 -1.4,4.2 0.4,-0.4 1.3,-0.2 1,0.3 1,0.8 0.5,1.1 v 1.6 l -0.3,0.9 -0.7,1.4 -1,0.8 -1.2,0.2 -1.1,-0.3 -0.9,-0.8 -0.3,-0.5 -0.1,-1.1"
         stroke="#000000"
         stroke-width="1"
         id="path42" />
      <path
         d="m 995.4,306.7 -1.9,-3.7 4.5,0.1 -0.5,-1 0.1,-0.9 0.3,-0.5 1.1,-1.1 0.9,-0.4 1.5,-0.4 1.2,0.2 1,0.7 0.5,1 0.1,1.2 -0.2,0.6 -0.7,0.8 m -12.7,-5.6 1.8,3.3 4.1,-1.8 -0.6,-0.1 -1,-0.7 -0.5,-1 -0.1,-1.2 0.5,-1.2 1.2,-1 0.9,-0.5 1.5,-0.4 1.2,0.2 1,0.8 0.5,1 0.1,1.2 -0.3,0.6 -0.7,0.8"
         stroke="#000000"
         stroke-width="1"
         id="path43" />
      <path
         d="m 967,333.7 3.6,-2 v 4.6 l 1,-0.6 0.9,0.1 0.5,0.2 1.1,1.2 0.5,0.8 0.4,1.5 -0.2,1.3 -0.7,1 -1,0.5 -1.2,0.1 -0.6,-0.2 -0.8,-0.7 m 6.1,-11.5 -0.8,-0.7 -1.3,0.1 -0.6,0.4 -0.7,1 v 1.7 l 0.9,2.3 1.3,2.2 1.3,1.6 1.1,0.5 1.3,-0.1 0.3,-0.2 0.7,-1 0.2,-1.3 -0.4,-1.5 -0.3,-0.4 -1,-1.1 -1.2,-0.5 -1.2,0.1 -0.3,0.2 -0.8,1 -0.1,1.2 0.4,1.5"
         stroke="#000000"
         stroke-width="1"
         id="path44" />
      <path
         d="m 695.9,124.2 h -0.5 l -1,-0.5 -0.4,-0.4 -0.4,-0.8 0.2,-1.5 0.6,-0.7 0.5,-0.3 1,-0.3 1,0.1 1,0.5 1.4,1 4.5,4.3 0.6,-5.2 m -9.7,-6.9 -0.5,3.7 4.5,0.9 -0.5,-0.4 -0.4,-1.2 0.2,-1.1 0.6,-1 1.1,-0.7 1.5,-0.1 1,0.1 1.5,0.5 0.9,0.9 0.3,1.2 -0.1,1.1 -0.6,1.1 -0.6,0.3 -1,0.2"
         stroke="#000000"
         stroke-width="1"
         id="path45" />
      <path
         d="m 678.1,49.8 0.4,0.1 0.9,0.7 0.3,0.6 0.2,0.8 -0.5,1.4 -0.7,0.6 -0.6,0.2 H 677 l -0.9,-0.4 -0.8,-0.6 -1.2,-1.3 -3.4,-5.2 -1.8,5 m 7.8,9.4 -8.6,-7.1 m 10.4,2.1 -1.8,5"
         stroke="#000000"
         stroke-width="1"
         id="path46" />
      <path
         d="m 688.3,62.1 -0.4,0.3 -1,0.3 h -0.6 l -0.9,-0.4 -0.8,-1.2 -0.1,-0.9 0.2,-0.6 0.6,-0.9 0.9,-0.5 1,-0.3 1.7,-0.3 6.2,0.2 -3,-4.3 m -10.4,3.6 1.1,0.6 1,-0.3 0.8,-0.5 0.6,-0.9 v -0.9 l -0.4,-1.5 -0.3,-1.2 0.4,-1.2 0.6,-0.9 1.2,-0.9 1.1,-0.2 h 0.6 l 1.1,0.6 0.8,1.2 0.3,1.2 -0.2,0.6 -0.6,0.9 -1.3,0.9 -1,0.2 h -1.2 l -1.1,-0.6 -1.3,-1 -0.8,-0.3 -1,0.3 -0.9,0.5 -0.6,0.9 0.3,1.2 0.9,1.4"
         stroke="#000000"
         stroke-width="1"
         id="path47" />
      <path
         d="m 725.3,409.2 3.8,-1.5 -0.6,4.5 1.1,-0.4 0.9,0.2 0.5,0.3 0.9,1.2 0.4,1 0.2,1.5 -0.3,1.2 -0.8,0.9 -1.1,0.4 h -1.2 l -0.6,-0.3 -0.7,-0.8 m 8.6,-8.9 0.2,1.5 -0.3,1.2 -0.8,0.9 -0.4,0.1 h -1.2 l -1.1,-0.6 -0.9,-1.3 -0.2,-0.5 -0.2,-1.5 0.3,-1.2 0.8,-0.9 0.4,-0.1 h 1.2 l 1.1,0.7 1.1,1.7 0.9,2.3 0.6,2.4 -0.1,1.7 -0.8,0.9 -0.7,0.3 -1.3,-0.1 -0.7,-0.7"
         stroke="#000000"
         stroke-width="1"
         id="path48" />
      <path
         d="m 649.7,373.9 0.1,0.4 -0.2,1.1 -0.2,0.6 -0.7,0.6 -1.4,0.3 -0.9,-0.3 -0.4,-0.4 -0.6,-0.9 -0.2,-1 0.2,-1.1 0.4,-1.6 2.7,-5.7 -5.2,1.1 m -2.9,11.4 2.3,-7.6 -5.5,1.1 m 3.2,6.5 -2.1,-10.3"
         stroke="#000000"
         stroke-width="1"
         id="path49" />
      <path
         d="m 617.1,385.7 2.2,3.4 -4.6,0.3 0.6,1 v 0.9 l -0.2,0.6 -1.1,1.1 -0.8,0.5 -1.5,0.5 -1.2,-0.1 -1,-0.7 -0.6,-0.9 -0.2,-1.2 0.2,-0.6 0.6,-0.9 m 11.7,2.4 -1.1,-0.6 -1,0.2 -0.8,0.5 -0.7,0.9 v 0.9 l 0.4,1.5 0.2,1.2 -0.5,1.2 -0.6,0.9 -1.3,0.8 -1,0.2 h -0.6 l -1.1,-0.7 -0.8,-1.3 -0.2,-1.2 0.3,-0.6 0.6,-0.8 1.3,-0.9 1,-0.2 1.3,0.1 1,0.7 1.2,1 0.8,0.3 1.1,-0.2 0.8,-0.5 0.7,-0.9 -0.2,-1.2 -0.9,-1.4"
         stroke="#000000"
         stroke-width="1"
         id="path50" />
      <path
         d="m 659.4,541.4 -4.8,6.3 5.6,0.9 m -0.8,-7.2 -1.6,10.4 m 6.8,-9.5 -1.1,0.4 -1,1.3 -0.8,2.4 -0.2,1.5 v 2.5 l 0.5,1.6 1,0.7 0.7,0.1 1.2,-0.3 1,-1.3 0.8,-2.5 0.2,-1.4 v -2.6 l -0.5,-1.6 -1,-0.6 -0.6,-0.1"
         stroke="#000000"
         stroke-width="1"
         id="path51" />
      <path
         d="m 857.5,443.2 -4.1,-0.5 2.8,-3.7 -1.2,-0.1 -0.6,-0.6 -0.4,-0.6 -0.2,-1.5 0.2,-1 0.5,-1.4 0.9,-1 1.2,-0.3 1.1,0.1 1,0.6 0.3,0.6 0.3,1 m -8.1,7.6 -4.1,-0.5 2.7,-3.7 -1.1,-0.1 -0.7,-0.6 -0.3,-0.5 -0.2,-1.6 0.1,-1 0.6,-1.4 0.8,-0.9 1.2,-0.4 1.1,0.2 1.1,0.6 0.3,0.5 0.2,1.1"
         stroke="#000000"
         stroke-width="1"
         id="path52" />
      <path
         d="m 888.1,561.4 -6.4,-4.8 -0.8,5.6 m 7.2,-0.8 -10.4,-1.6 m 9.3,8.5 -6.3,-4.8 -0.9,5.6 m 7.2,-0.8 -10.4,-1.6"
         stroke="#000000"
         stroke-width="1"
         id="path53" />
      <path
         d="m 758.3,458.6 -6.4,4.7 5,2.4 m 1.4,-7.1 -4.6,9.4 m 6.8,-5.5 0.2,-0.4 0.8,-0.8 0.5,-0.3 0.9,-0.1 1.4,0.6 0.4,0.8 0.2,0.6 -0.1,1.1 -0.5,0.9 -0.7,0.7 -1.4,1.1 -5.5,2.9 4.7,2.2"
         stroke="#000000"
         stroke-width="1"
         id="path54" />
      <path
         d="m 757.5,437 -2.8,3 -1.4,-4.4 -0.8,0.9 -0.8,0.2 -0.7,-0.1 -1.3,-0.7 -0.7,-0.7 -0.9,-1.3 -0.2,-1.3 0.4,-1.1 0.8,-0.8 1.1,-0.5 h 0.6 l 1,0.4 m -4.1,11.7 -0.8,-1.3 -0.2,-1.2 0.4,-1.2 0.2,-0.2 1.2,-0.5 1.2,0.1 1.4,0.8 0.3,0.3 0.9,1.3 0.2,1.2 -0.4,1.2 -0.3,0.3 -1.1,0.5 -1.3,-0.2 -1.7,-1.1 -1.8,-1.7 -1.6,-2 -0.5,-1.5 0.4,-1.2 0.5,-0.5 1.1,-0.5 1,0.4"
         stroke="#000000"
         stroke-width="1"
         id="path55" />
      <path
         d="m 787.9,524.4 -4.8,-6.3 -2.3,5.1 m 7.1,1.2 -9.5,-4.3 m 7.9,7.7 -1.7,3.7 -2.7,-3.7 -0.5,1.1 -0.8,0.4 -0.6,0.2 -1.5,-0.3 -0.9,-0.4 -1.2,-1 -0.6,-1.1 v -1.2 l 0.4,-1 1,-0.8 0.6,-0.2 1,0.1"
         stroke="#000000"
         stroke-width="1"
         id="path56" />
      <path
         d="m 834.2,535.6 1.2,7.8 4.5,-3.4 m -5.7,-4.4 6.3,8.4 m -0.8,-12.6 1.3,7.8 4.5,-3.4 m -5.8,-4.4 6.4,8.3"
         stroke="#000000"
         stroke-width="1"
         id="path57" />
      <path
         d="m 764.7,584.8 0.3,0.9 1.3,1.4 L 756,585 m 9.9,5.5 -0.2,-1.2 -1.3,-1 -2.4,-0.9 -1.5,-0.3 -2.5,-0.1 -1.6,0.4 -0.7,1 -0.2,0.7 0.3,1.2 1.3,1.1 2.4,0.8 1.4,0.3 2.6,0.2 1.6,-0.5 0.7,-1 0.1,-0.5"
         stroke="#000000"
         stroke-width="1"
         id="path58" />
      <path
         d="m 765.2,614 0.8,-0.3 1.5,-1.1 -3,10.1 m 8.6,-8.8 -3.6,-1.1 -1.7,4.2 0.5,-0.3 1.2,-0.2 1.1,0.3 0.9,0.8 0.5,1.2 -0.1,1.6 -0.3,0.9 -0.8,1.3 -1,0.8 -1.2,0.1 -1.1,-0.3 -0.9,-0.8 -0.2,-0.6 -0.1,-1"
         stroke="#000000"
         stroke-width="1"
         id="path59" />
      <path
         d="m 803.2,613.2 7.6,2.2 -1.1,-5.5 m -6.5,3.3 10.3,-2.1 m -11.7,-5.3 0.8,3.6 4.5,-0.5 -0.6,-0.3 -0.7,-1 -0.2,-1.1 0.2,-1.2 0.8,-0.9 1.4,-0.7 1,-0.2 1.6,0.1 1.1,0.5 0.7,1 0.2,1.1 -0.2,1.2 -0.4,0.5 -1,0.6"
         stroke="#000000"
         stroke-width="1"
         id="path60" />
      <path
         d="m 806.2,623.6 -5.6,5.7 5.4,1.5 m 0.2,-7.2 -2.9,10.1 m 9.7,-6.5 -0.1,-1 -0.9,-0.8 -0.7,-0.2 -1.3,0.1 -1.1,1.3 -1.1,2.3 -0.6,2.4 -0.2,2 0.4,1.2 0.9,0.8 0.4,0.1 1.2,-0.2 1,-0.8 0.8,-1.3 0.1,-0.5 0.1,-1.5 -0.4,-1.2 -1,-0.8 -0.3,-0.1 -1.3,0.2 -1,0.7 -0.7,1.4"
         stroke="#000000"
         stroke-width="1"
         id="path61" />
      <path
         d="m 901.5,618 -7.4,2.8 4.2,3.7 m 3.2,-6.5 -6.9,7.9 m 12.5,-2.9 -2.8,-2.5 -3.3,3.2 0.6,-0.2 1.2,0.4 0.9,0.7 0.5,1.2 -0.1,1.2 -0.7,1.4 -0.6,0.7 -1.3,0.9 -1.2,0.3 -1.2,-0.4 -0.9,-0.7 -0.5,-1.1 0.1,-0.6 0.3,-1"
         stroke="#000000"
         stroke-width="1"
         id="path62" />
      <path
         d="m 956.7,608.2 7.7,-1.8 -3.7,-4.2 m -4,6 7.9,-6.9 m -10.4,-1.5 1.4,-0.7 1.2,-0.1 1.1,0.6 0.3,0.2 0.3,1.2 -0.2,1.2 -0.9,1.3 -0.4,0.3 -1.4,0.7 -1.2,0.1 -1.1,-0.5 -0.3,-0.3 -0.3,-1.2 0.2,-1.2 1.3,-1.6 1.9,-1.6 2.1,-1.4 1.7,-0.4 1.1,0.5 0.5,0.6 0.3,1.2 -0.5,0.9"
         stroke="#000000"
         stroke-width="1"
         id="path63" />
      <path
         d="m 948.5,628.3 -0.9,7.9 5.2,-2.1 m -4.3,-5.8 3.9,9.8 m 0.7,-11.5 -0.9,0.9 v 1 l 0.4,1 0.7,0.8 0.9,0.1 1.6,-0.1 1.2,0.1 1.1,0.6 0.7,0.8 0.6,1.4 v 1.1 l -0.1,0.6 -0.9,0.9 -1.4,0.5 h -1.2 l -0.6,-0.3 -0.7,-0.8 -0.5,-1.4 -0.1,-1.1 0.4,-1.2 0.8,-0.9 1.2,-1 0.5,-0.7 v -1.1 l -0.4,-0.9 -0.7,-0.8 -1.2,-0.1 -1.6,0.7"
         stroke="#000000"
         stroke-width="1"
         id="path64" />
      <path
         d="m 951.4,464.4 -2,3.2 3.5,2.8 -0.2,-0.6 0.2,-1.2 0.6,-1 1.1,-0.6 1.2,-0.1 1.5,0.5 0.8,0.6 1,1.1 0.5,1.2 -0.3,1.2 -0.6,0.9 -1,0.7 h -0.6 l -1.1,-0.2 m -2.3,-11.9 -0.2,1.2 0.9,1.4 1.9,1.7 1.2,0.8 2.3,1.1 1.7,0.2 1,-0.6 0.4,-0.7 0.2,-1.2 -0.8,-1.4 -1.9,-1.7 -1.2,-0.9 -2.3,-1 -1.7,-0.2 -1,0.6 -0.3,0.5"
         stroke="#000000"
         stroke-width="1"
         id="path65" />
      <path
         d="m 938,454.2 -4.1,-0.6 2.8,-3.6 -1.1,-0.2 -0.6,-0.6 -0.3,-0.5 -0.2,-1.6 0.2,-1 0.5,-1.4 0.9,-0.9 1.2,-0.3 1.1,0.2 1.1,0.6 0.3,0.6 0.2,1 m -11.8,5.3 0.2,1.1 1,0.6 0.8,0.1 1.1,-0.3 1,-1.4 0.7,-2.4 0.4,-2.5 -0.1,-2 -0.6,-1.1 -1,-0.6 -0.4,-0.1 -1.2,0.3 -0.8,0.9 -0.6,1.4 -0.1,0.5 0.1,1.6 0.6,1.1 1.1,0.6 0.3,0.1 1.2,-0.3 0.9,-0.9 0.6,-1.5"
         stroke="#000000"
         stroke-width="1"
         id="path66" />
      <path
         d="m 981.3,498.2 3.6,-1.2 -1.1,-4.4 -0.2,0.6 -0.9,0.8 -1.1,0.4 -1.2,-0.2 -1,-0.7 -0.8,-1.3 -0.3,-0.9 -0.2,-1.6 0.4,-1.2 1,-0.8 1,-0.3 1.3,0.1 0.5,0.3 0.6,0.9 m -5.6,10.8 0.9,-0.9 0.3,-1.6 -0.4,-2.5 -0.5,-1.4 -1.1,-2.3 -1.2,-1.2 -1.2,-0.1 -0.8,0.2 -0.9,0.8 -0.2,1.7 0.4,2.5 0.5,1.4 1.1,2.3 1.2,1.2 1.2,0.1 0.6,-0.2"
         stroke="#000000"
         stroke-width="1"
         id="path67" />
      <path
         d="m 976.1,554.6 -3.9,6.9 5.6,0.2 m -1.7,-7.1 -0.3,10.5 m 8.1,-6.7 -0.4,1.5 -0.8,1 -1.1,0.4 h -0.4 l -1.1,-0.5 -0.7,-1 -0.4,-1.5 0.1,-0.5 0.4,-1.5 0.7,-1 1.2,-0.5 h 0.3 l 1.2,0.6 0.7,1 0.3,2 v 2.5 l -0.5,2.5 -0.8,1.5 -1.1,0.4 h -0.7 l -1.2,-0.5 -0.3,-1"
         stroke="#000000"
         stroke-width="1"
         id="path68" />
      <path
         d="m 997.4,530.6 -0.7,-4.1 4.3,1.6 -0.1,-1.1 0.3,-0.8 0.5,-0.5 1.4,-0.6 1,-0.1 1.5,0.1 1.1,0.6 0.7,1 0.2,1.1 -0.3,1.2 -0.5,0.5 -0.9,0.5 m -10.2,-10 11,2 m -10.2,3.1 -0.8,-5.1"
         stroke="#000000"
         stroke-width="1"
         id="path69" />
      <path
         d="m 909.6,333.2 3.6,2 -4,2.4 1,0.5 0.4,0.8 0.1,0.6 -0.4,1.5 -0.5,0.9 -1.1,1.1 -1.1,0.5 -1.2,-0.1 -1,-0.6 -0.8,-0.9 v -0.7 l 0.1,-1 m 10.5,-3.9 3.5,2.1 -3.9,2.3 1,0.6 0.4,0.8 0.1,0.6 -0.4,1.5 -0.5,0.9 -1.1,1.1 -1.2,0.5 -1.2,-0.1 -1,-0.6 -0.7,-1 -0.1,-0.6 0.2,-1.1"
         stroke="#000000"
         stroke-width="1"
         id="path70" />
      <path
         d="m 897.4,304.5 -1.1,4 -3.2,-3.2 -0.3,1.1 -0.7,0.6 -0.6,0.2 H 890 l -1,-0.3 -1.4,-0.7 -0.7,-1 -0.2,-1.2 0.3,-1.1 0.7,-1 0.6,-0.2 1.1,-0.1 m 4,8.4 0.5,0.1 0.8,0.6 0.4,0.5 0.3,0.9 -0.4,1.4 -0.7,0.6 -0.5,0.2 -1.1,0.1 -1,-0.2 -0.8,-0.6 -1.3,-1.1 -3.9,-4.9 -1.3,5"
         stroke="#000000"
         stroke-width="1"
         id="path71" />
      <path
         d="m 824.5,402.2 3.2,-2.5 0.7,4.5 0.9,-0.7 0.9,-0.1 0.6,0.2 1.2,1 0.6,0.7 0.7,1.5 v 1.2 l -0.6,1.1 -0.9,0.7 -1.2,0.3 -0.6,-0.2 -0.9,-0.5 m 1.9,-9.1 -0.3,-0.4 -0.3,-1 v -0.7 l 0.2,-0.8 1.2,-0.9 0.9,-0.1 0.6,0.2 0.9,0.5 0.7,0.8 0.3,1 0.3,1.7 0.1,6.2 4.2,-3.2"
         stroke="#000000"
         stroke-width="1"
         id="path72" />
      <path
         d="m 833.4,353.6 -0.9,-4 4.4,1.3 -0.2,-1.1 0.3,-0.8 0.4,-0.5 1.4,-0.7 1,-0.2 h 1.5 l 1.1,0.6 0.8,0.9 0.2,1.1 -0.2,1.2 -0.4,0.5 -0.9,0.6 m -10.2,-6.6 0.7,1 1.7,0.4 2.5,-0.2 1.4,-0.3 2.4,-0.9 1.3,-1.1 0.2,-1.2 -0.1,-0.7 -0.8,-1 -1.6,-0.4 -2.5,0.2 -1.5,0.3 -2.3,0.9 -1.3,1.1 -0.3,1.2 0.2,0.5"
         stroke="#000000"
         stroke-width="1"
         id="path73" />
      <path
         d="m 819.1,319.4 0.2,0.4 0.3,1.1 -0.1,0.6 -0.3,0.8 -1.3,0.9 -0.9,-0.1 -0.6,-0.2 -0.8,-0.6 -0.6,-0.9 -0.2,-1 -0.2,-1.7 0.4,-6.2 -4.4,2.8 m -1.3,9.2 -0.5,-1.4 0.1,-1.3 0.7,-1 0.3,-0.2 1.2,-0.2 1.2,0.4 1.1,1.1 0.3,0.4 0.5,1.5 -0.1,1.2 -0.7,1 -0.3,0.2 -1.2,0.2 -1.2,-0.4 -1.4,-1.5 -1.3,-2.1 -1.1,-2.3 -0.1,-1.7 0.6,-1 0.7,-0.4 1.2,-0.2 0.8,0.7"
         stroke="#000000"
         stroke-width="1"
         id="path74" />
      <path
         d="m 585.5,444.1 h 0.5 l 1,0.5 0.5,0.4 0.4,0.7 v 1.5 l -0.6,0.8 -0.5,0.3 -1,0.3 h -1 l -1,-0.5 -1.5,-0.8 -4.8,-4 -0.2,5.3 m 10.4,2.4 -0.3,4.1 -3.8,-2.4 -0.1,1.1 -0.5,0.7 -0.5,0.4 -1.6,0.3 -1,-0.1 -1.4,-0.4 -1,-0.8 -0.4,-1.2 v -1.1 l 0.6,-1.1 0.5,-0.4 1,-0.3"
         stroke="#000000"
         stroke-width="1"
         id="path75" />
      <path
         d="m 597.2,420.1 -3.4,-2.3 4.1,-2 -0.9,-0.7 -0.3,-0.8 -0.1,-0.6 0.6,-1.5 0.5,-0.8 1.2,-1 1.2,-0.5 1.2,0.3 0.9,0.6 0.7,1 v 0.7 l -0.3,1 m -11.6,2.4 1.2,0.2 0.9,-0.6 0.5,-0.9 0.3,-1 -0.4,-0.8 -0.9,-1.3 -0.7,-1 v -1.3 l 0.2,-1 0.9,-1.3 0.8,-0.6 0.6,-0.2 1.2,0.2 1.3,0.9 0.6,1 0.1,0.7 -0.3,1 -0.8,1.2 -0.9,0.6 -1.2,0.5 -1.2,-0.3 -1.5,-0.4 h -0.9 l -0.9,0.6 -0.6,0.8 -0.2,1.1 0.6,1 1.4,1"
         stroke="#000000"
         stroke-width="1"
         id="path76" />
      <path
         d="m 702.1,526 3.7,7 3.2,-4.7 m -6.9,-2.3 8.7,5.8 m -6.5,-8.9 2.3,-3.4 2.1,4.1 0.6,-1 0.8,-0.3 h 0.6 l 1.5,0.5 0.8,0.5 1.1,1.2 0.4,1.2 -0.2,1.2 -0.7,0.9 -1,0.7 H 712 l -1.1,-0.2"
         stroke="#000000"
         stroke-width="1"
         id="path77" />
      <path
         d="m 708.4,475.2 7.9,0.6 -2.2,-5.1 m -5.7,4.5 9.6,-4.2 m -8.7,-0.2 -0.5,0.2 h -1 l -0.6,-0.1 -0.8,-0.5 -0.6,-1.4 0.2,-0.9 0.3,-0.5 0.7,-0.7 0.9,-0.4 1.1,-0.1 1.7,0.1 6.1,1.4 -2.2,-4.8"
         stroke="#000000"
         stroke-width="1"
         id="path78" />
      <path
         d="m 912.9,151.9 3.1,-2.7 0.9,4.5 0.9,-0.8 0.9,-0.1 0.6,0.1 1.3,0.9 0.6,0.7 0.8,1.4 0.1,1.2 -0.5,1.1 -0.9,0.8 -1.1,0.4 -0.7,-0.1 -0.9,-0.5 m 2,-13.4 1.9,7.7 4.1,-3.7 m -6,-4 7,7.8"
         stroke="#000000"
         stroke-width="1"
         id="path79" />
      <path
         d="m 931.8,104.7 -0.2,0.9 0.3,1.8 -7.3,-7.5 m 2.4,10.7 0.9,0.4 1.2,-0.4 0.5,-0.5 0.5,-1.2 -0.5,-1.6 -1.5,-2 -1.7,-1.8 -1.7,-1.2 -1.2,-0.2 -1.2,0.4 -0.2,0.3 -0.5,1.1 0.2,1.3 0.7,1.3 0.4,0.4 1.3,0.8 1.2,0.2 1.2,-0.4 0.3,-0.3 0.4,-1.1 -0.1,-1.3 -0.8,-1.3"
         stroke="#000000"
         stroke-width="1"
         id="path80" />
      <path
         d="m 963.6,83.1 0.3,0.5 0.2,1 -0.1,0.6 -0.4,0.8 -1.3,0.8 -0.9,-0.1 -0.6,-0.2 -0.8,-0.7 -0.5,-0.9 -0.2,-1 -0.1,-1.7 0.8,-6.2 -4.6,2.6 m 3.2,7.6 -0.4,0.8 -0.3,1.9 -5.2,-9.1"
         stroke="#000000"
         stroke-width="1"
         id="path81" />
      <path
         d="m 596.6,572.8 4.4,6.6 2.7,-4.9 m -7.1,-1.7 9.2,5 m -5.6,-6.4 -0.1,-0.9 -0.8,-1.8 9.2,5.1"
         stroke="#000000"
         stroke-width="1"
         id="path82" />
      <path
         d="m 576.9,573.2 0.8,0.1 1.9,-0.4 -6.8,8"
         stroke="#000000"
         stroke-width="1"
         id="path83" />
      <path
         d="m 571,535 0.4,0.2 0.8,0.8 0.3,0.5 0.1,0.9 -0.7,1.4 -0.7,0.4 -0.6,0.1 -1.1,-0.1 -0.9,-0.4 -0.8,-0.8 -1,-1.3 -2.9,-5.5 -2.2,4.7 m 6.7,10.2 -7.8,-7.9 m 10.1,3.1 -2.3,4.8"
         stroke="#000000"
         stroke-width="1"
         id="path84" />
      <path
         d="M 764.2,47.5 V 48 l -0.4,1 -0.3,0.5 -0.8,0.5 -1.5,0.1 -0.7,-0.5 -0.4,-0.5 -0.4,-1 v -1 l 0.3,-1 0.7,-1.5 3.6,-5.1 -5.3,0.2"
         stroke="#000000"
         stroke-width="1"
         id="path85" />
      <path
         d="m 751,57 0.5,-0.2 1,-0.1 0.6,0.2 0.8,0.4 0.6,1.4 -0.1,0.9 -0.3,0.6 -0.7,0.7 -1,0.4 -1,0.1 h -1.7 l -6.1,-1.3 2.2,4.7 m 10.8,-1.6 -0.9,-0.8 -1.1,0.1 -0.9,0.4 -0.7,0.7 -0.2,0.9 0.2,1.6 v 1.2 l -0.6,1.1 -0.7,0.8 -1.4,0.6 -1.1,0.1 -0.6,-0.1 -0.9,-0.8 -0.6,-1.4 v -1.2 l 0.3,-0.6 0.7,-0.7 1.4,-0.7 1,-0.1 1.3,0.3 0.9,0.8 1.1,1.2 0.7,0.4 h 1.1 l 0.9,-0.5 0.8,-0.7 -0.1,-1.2 -0.7,-1.6"
         stroke="#000000"
         stroke-width="1"
         id="path86" />
      <path
         d="m 971.8,107.3 0.4,7.9 4.8,-2.9 m -5.2,-5 5.4,9 m 1.6,-13.1 2.2,10.9 m -6.7,-8.2 4.5,-2.7"
         stroke="#000000"
         stroke-width="1"
         id="path87" />
      <path
         d="m 1004,79.3 5.4,5.8 1.9,-5.3 m -7.3,-0.5 10,3.4 m -6,-10.1 -1,0.1 -0.9,0.9 -0.2,0.7 0.1,1.2 1.2,1.2 2.2,1.2 2.4,0.8 2,0.3 1.2,-0.4 0.8,-0.9 0.1,-0.3 -0.1,-1.3 -0.7,-1 -1.3,-0.8 -0.4,-0.2 -1.6,-0.1 -1.2,0.3 -0.8,0.9 -0.1,0.4 0.1,1.2 0.7,1.1 1.3,0.8"
         stroke="#000000"
         stroke-width="1"
         id="path88" />
      <path
         d="m 1003.5,75.2 -0.8,0.5 -1,1.5 -0.4,-10.5 m -5.8,7.6 0.3,-1.5 0.8,-1 1.1,-0.6 h 0.3 l 1.2,0.5 0.8,0.9 0.4,1.5 v 0.5 l -0.3,1.5 -0.7,1.1 -1.1,0.5 h -0.4 l -1.2,-0.5 -0.7,-0.9 -0.5,-2 -0.1,-2.5 0.3,-2.5 0.7,-1.5 1.1,-0.6 h 0.8 l 1.1,0.5 0.4,0.9"
         stroke="#000000"
         stroke-width="1"
         id="path89" />
      <path
         d="m 1008,164 7.9,1.1 -1.9,-5.3 m -6,4.2 9.9,-3.6 m -11.5,-1.1 0.9,0.9 h 1 l 1,-0.3 0.8,-0.7 0.2,-0.9 v -1.6 l 0.1,-1.2 0.6,-1.1 0.8,-0.7 1.5,-0.5 h 1 l 0.6,0.2 0.9,0.9 0.5,1.4 -0.1,1.2 -0.3,0.6 -0.8,0.7 -1.5,0.5 h -1 l -1.2,-0.4 -0.9,-0.9 -1,-1.2 -0.7,-0.6 h -1.1 l -0.9,0.4 -0.8,0.7 -0.1,1.2 0.6,1.6"
         stroke="#000000"
         stroke-width="1"
         id="path90" />
      <path
         d="m 995.3,155 -2.6,-7.5 -3.8,4.1 m 6.4,3.4 -7.7,-7.1 m 2,13 -5.1,-9.9 m 8.7,6.1 -3.6,3.8"
         stroke="#000000"
         stroke-width="1"
         id="path91" />
    </g>
    <path
       d="m 780.58462,369.64758 v -0.7 l 0.6,-1.5 0.5,-0.8 1.2,-0.7 h 2.2 l 1.1,0.7 0.6,0.8 0.6,1.5 v 1.5 l -0.6,1.5 -1.1,2.2 -5.7,7.5 h 7.9"
       id="titre_2"
       stroke="#4b0082"
       style="stroke-width:2.53872" />
  </g>
  <g
     id="page_003">
    <path
       d="m 1292.9,68.9 34.3,-29.5 16.8,33.5 -19.4,76.9 74.1,25.9 -47.9,-62.1 58.3,-53.9 12.3,68.7 24.2,-65.4 12.8,-35.2 61.6,9.3 -16.8,72.4 18.7,52.4 -57.4,25.9 61.6,13.3 5,44 -42.4,26.6 44.5,22.9 -53.3,93.2 -68.8,46.3 -21.8,-56.4 27.4,-79.2 -8.1,-77.6 -36.7,68.9 -82,-16.7 0.7,60.6 82.7,7.6 -64.9,42 -63.8,-4.3 49.5,40.4 70.1,32.5 107,-8.9 38.8,21.1 1,55.7 -32.4,66.9 -53.1,-30 -39.2,32.1 -23.8,47.5 -41.1,5.1 4.6,-49 -14.7,-66.9 -9.1,-63.6 -9.5,63.6 -1.8,68.4 7.5,48.6 -51.3,20.1 -76.3,24.3 -68.9,-41.9 52.6,-47.1 -17.1,-43 74.2,10.2 14.6,-60.1 -46.3,41 -34.2,-66.5 70.9,-29.6 -72.4,-25.8 -43.9,-14.7 35.2,-61.3 60.3,23.1 29.3,-64.3 -58.2,40 -12.8,-63.2 11.8,-79.8 -54.4,-58.8 36.8,-9 30.1,-13.7 40.5,5.7 30.4,85.1 88.2,8.1 -72.3,-51.2 -3.7,-90.2 z"
       id="coupes_003"
       stroke="#ff0000"
       stroke-width="1.27"
       sodipodi:nodetypes="cccccccccccccccccccccccccccccccccccccccccccccccccccccccccccccccccccccccc" />
    <path
       d="m 1249.3,213.2 -95.2,70.5 71,23.2 65.5,26.8 m -71.7,-205.6 -53,75.8 83.4,9.3 -24.2,93.7 m -76.8,-170.8 17.6,67.8 12.5,-81.5 m 193.5,167.4 -34.4,-68.5 71.1,-0.4 -9.9,-45.2 -61.2,45.6 -12.9,-71.5 -59.4,20.3 m 199.3,17.7 -55.9,33.1 80.1,50.8 m -90,-96 22.7,-47.3 43.1,59.4 z m -47.9,-62.1 70.6,14.8 81.8,-18.9 -38.7,78.3 24.2,83.9 m -227.2,-191.8 63.1,69.9 -31.7,-80.9 51.1,4 m -35.6,310.4 -17.8,-49.6 -46,45.3 -19.5,-72.1 64.8,-33.8 47.6,-51.8 m -141.7,149.9 48.8,7.8 -28,70.9 m 147.6,2 -62,10 -76,43.1 64.7,88.9 -79.3,-28.8 -57.1,32.8 M 1471.2,443 1311.3,525.5 m 75,63.3 -75,-63.3 m 159.9,-82.5 -84.9,145.8 m 84.9,-145.8 -45.7,113.7 m -63,79.6 -36.5,-43.9 m -33.3,-66.9 -66.5,-20.5 -9.6,-55.1 85.6,12 -8.1,-42.5 -77.5,30.5 -20.8,-78.7 -51.6,52.9 -8.7,-76 m 76.1,217 35.5,97.5 -92.6,-64.7 16.3,89 m 55.4,-181.9 -80.5,-25.5 m 380.4,-278.4 -37.4,70.6 m 0,0 -8.8,116.1 -63.2,-89.3 72,-26.8"
       id="plisM_003"
       stroke="#a52a2a"
       stroke-dasharray="4"
       sodipodi:nodetypes="cccccccccccccccccccccccccccccccccccccccccccccccccccccccccccccccccccccccccccccccc" />
    <path
       d="m 1249.3,213.2 40.6,59.9 M 1503.2,109.5 1445.6,63 1520,37.1 m -155.8,414.8 -52.9,73.6 m 199.7,-5.7 -85.5,36.9 m 45.7,-113.7 39.8,76.8 m -124.7,69 -60.3,3.6 m -35.1,1.5 -43.8,68.7 m 232.8,-274.8 -90.6,-10.1"
       id="plisV_003"
       stroke="#008000"
       stroke-dasharray="4, 1, 1, 1"
       stroke-width="1.27"
       sodipodi:nodetypes="ccccccccccccccccc" />
    <path
       d="m 1267.6,241.2 4,4 m 0,-4 -4,4 m 204.8,-161 4,4 m 0,-4 -4,4 m -136.6,398.5 4,4 m 0,-4 -4,4 m 130.4,45.5 4,4 m 0,-4 -4,4 m 22.9,-60.8 4,4 m 0,-4 -4,4 m -135,105.2 4,4 m 0,-4 -4,4 m -87.1,33.6 4,4 m 0,-4 -4,4 M 1480.8,48 l 4,4 m 0,-4 -4,4 m -48.2,328.7 4,4 m 0,-4 -4,4"
       id="marqueV_003"
       stroke="#008000" />
    <g
       id="nums_003">
      <path
         d="m 1172.3,244 1.1,-0.2 0.6,-1.1 0.1,-0.7 -0.3,-1.2 -1.4,-0.9 -2.4,-0.8 -2.5,-0.3 h -2 l -1.1,0.6 -0.7,1.1 v 0.3 l 0.3,1.2 0.9,0.9 1.4,0.6 0.5,0.1 1.6,-0.2 1.1,-0.6 0.6,-1 0.1,-0.4 -0.4,-1.2 -0.8,-0.9 -1.5,-0.5 m 5.7,9.2 -0.3,-1.2 -1.4,-0.9 -2.4,-0.8 -1.5,-0.2 h -2.5 l -1.6,0.5 -0.6,1.1 -0.2,0.7 0.4,1.2 1.3,1 2.5,0.7 1.4,0.2 h 2.6 l 1.6,-0.5 0.6,-1.1 0.1,-0.5"
         stroke="#000000"
         stroke-width="1"
         id="path92" />
      <path
         d="m 1221.7,177 1.3,3.5 4.4,-1.2 -0.6,-0.2 -0.9,-0.9 -0.4,-1 0.1,-1.2 0.7,-1.1 1.3,-0.8 0.9,-0.4 1.6,-0.1 1.2,0.3 0.8,0.9 0.4,1.1 -0.1,1.2 -0.3,0.5 -0.8,0.7 m -10.8,-4.9 0.8,0.9 h 1.1 l 0.9,-0.4 0.8,-0.7 0.2,-0.8 v -1.6 l 0.1,-1.2 0.7,-1.1 0.8,-0.7 1.4,-0.5 h 1.1 l 0.6,0.2 0.8,0.9 0.5,1.4 v 1.3 l -0.4,0.5 -0.8,0.7 -1.4,0.5 h -1.1 l -1.2,-0.4 -0.8,-0.9 -1,-1.2 -0.7,-0.6 h -1.1 l -0.9,0.3 -0.9,0.7 -0.1,1.2 0.6,1.6"
         stroke="#000000"
         stroke-width="1"
         id="path93" />
      <path
         d="m 1195.2,135.1 0.6,-1.4 0.9,-0.9 1.2,-0.3 h 0.3 l 1.1,0.7 0.6,1.1 0.1,1.5 v 0.5 l -0.6,1.4 -0.9,0.9 -1.2,0.4 -0.3,-0.1 -1.1,-0.6 -0.6,-1.1 -0.1,-2.1 0.4,-2.4 0.7,-2.5 0.9,-1.3 1.2,-0.4 0.8,0.1 1,0.7 0.2,1"
         stroke="#000000"
         stroke-width="1"
         id="path94" />
      <path
         d="m 1172.4,137.7 -0.5,0.7 -0.4,1.9 -4.3,-9.6 m 1.8,8.4 0.2,0.4 0.1,1.1 -0.2,0.6 -0.5,0.8 -1.3,0.6 -0.9,-0.2 -0.6,-0.3 -0.7,-0.7 -0.4,-0.9 -0.1,-1.1 0.1,-1.7 1.3,-6.1 -4.8,2.2"
         stroke="#000000"
         stroke-width="1"
         id="path95" />
      <path
         d="m 1293.9,231.1 3.7,0.3 0.8,-4.4 -0.4,0.5 -1.2,0.4 -1.1,-0.1 -1.1,-0.6 -0.6,-1.1 -0.3,-1.5 0.1,-1 0.5,-1.5 0.9,-0.9 1.1,-0.4 1.2,0.1 1,0.6 0.4,0.5 0.2,1 m -11.7,4 0.5,-1.5 0.9,-0.9 1.1,-0.4 h 0.4 l 1.1,0.6 0.6,1.1 0.3,1.5 -0.1,0.5 -0.5,1.5 -0.8,0.9 -1.2,0.4 h -0.4 l -1,-0.6 -0.7,-1.1 -0.2,-2 0.2,-2.5 0.6,-2.5 0.9,-1.4 1.2,-0.4 0.7,0.1 1.1,0.6 0.3,1"
         stroke="#000000"
         stroke-width="1"
         id="path96" />
      <path
         d="m 1331.9,267.7 -3.6,-0.8 -1.3,4.4 0.5,-0.5 1.2,-0.2 1.1,0.2 1,0.7 0.5,1.1 0.1,1.6 -0.2,1 -0.7,1.4 -0.9,0.8 -1.2,0.3 -1.1,-0.3 -1,-0.7 -0.3,-0.5 -0.2,-1.1 m 13,-6 -5.8,9.5 m 0.6,-10.6 5.2,1.1"
         stroke="#000000"
         stroke-width="1"
         id="path97" />
      <path
         d="m 1377.3,250.4 -1.8,3.3 3.8,2.5 -0.2,-0.6 0.1,-1.2 0.5,-1 1,-0.8 1.2,-0.1 1.5,0.3 0.9,0.5 1.1,1 0.6,1.2 -0.1,1.2 -0.6,1 -0.9,0.7 -0.6,0.1 -1.1,-0.1 m -1.1,-12.9 -1,-0.2 -1,0.8 -0.3,0.6 -0.1,1.3 0.9,1.3 2.1,1.5 2.2,1.2 1.9,0.6 1.3,-0.2 0.9,-0.7 0.2,-0.4 0.1,-1.2 -0.5,-1.1 -1.2,-1.1 -0.4,-0.2 -1.5,-0.4 -1.3,0.2 -0.9,0.8 -0.2,0.3 -0.1,1.2 0.5,1.2 1.2,1"
         stroke="#000000"
         stroke-width="1"
         id="path98" />
      <path
         d="m 1384.5,134.9 -2.3,-3 -3.7,2.4 h 0.6 l 1.1,0.6 0.6,0.9 0.3,1.2 -0.3,1.2 -1,1.2 -0.7,0.6 -1.5,0.6 -1.2,0.1 -1.1,-0.6 -0.7,-0.9 -0.3,-1.2 0.2,-0.6 0.6,-0.9 m 8.7,1.2 0.8,0.3 h 1.9 l -8.3,6.4"
         stroke="#000000"
         stroke-width="1"
         id="path99" />
      <path
         d="m 1358.7,176.3 3.6,1.3 1.8,-4.2 -0.5,0.4 -1.2,0.1 -1.1,-0.4 -0.9,-0.8 -0.4,-1.2 0.2,-1.5 0.3,-1 0.8,-1.3 1.1,-0.7 1.2,-0.1 1.1,0.4 0.9,0.8 0.2,0.6 v 1.1 m -8,3.7 -0.9,0.2 -1.5,1.1 3.4,-9.9"
         stroke="#000000"
         stroke-width="1"
         id="path100" />
      <path
         d="m 1447.1,98.7 1.3,-3.5 -4.1,-1.9 0.3,0.5 0.1,1.2 -0.4,1.1 -0.8,0.8 -1.2,0.4 -1.6,-0.2 -0.9,-0.3 -1.3,-0.9 -0.7,-1 -0.1,-1.3 0.4,-1 0.9,-0.9 0.6,-0.2 h 1.1 m 3.1,8.7 0.5,0.2 0.8,0.7 0.3,0.5 0.3,0.9 -0.6,1.4 -0.7,0.5 -0.6,0.2 h -1.1 l -0.9,-0.3 -0.8,-0.7 -1.2,-1.2 -3.3,-5.3 -1.9,4.9"
         stroke="#000000"
         stroke-width="1"
         id="path101" />
      <path
         d="m 1390.5,95.6 2.8,-2.6 -2.8,-3.5 0.1,0.6 -0.5,1.1 -0.8,0.8 -1.2,0.4 -1.2,-0.3 -1.3,-0.8 -0.7,-0.7 -0.7,-1.4 -0.2,-1.2 0.5,-1.2 0.9,-0.7 1.1,-0.4 0.6,0.1 1,0.5 m 0.5,11.1 -3,2.8 -1.1,-4.5 -0.8,0.8 -0.9,0.1 -0.6,-0.1 -1.3,-0.9 -0.7,-0.7 -0.7,-1.4 -0.2,-1.2 0.5,-1.1 0.9,-0.8 1.1,-0.4 0.6,0.1 1,0.5"
         stroke="#000000"
         stroke-width="1"
         id="path102" />
      <path
         d="m 1402.1,98.4 0.6,3.7 4.5,-0.5 -0.5,-0.2 -0.7,-1.1 -0.2,-1.1 0.3,-1.2 0.8,-0.9 1.4,-0.6 1,-0.2 1.6,0.1 1.1,0.6 0.7,1 0.2,1.1 -0.3,1.2 -0.5,0.5 -0.9,0.5 m -7.1,-5.9 -0.5,0.1 -1.1,-0.2 -0.5,-0.3 -0.7,-0.6 -0.2,-1.5 0.3,-0.8 0.5,-0.5 0.9,-0.5 1,-0.2 1,0.2 1.6,0.5 5.6,2.8 -0.9,-5.2"
         stroke="#000000"
         stroke-width="1"
         id="path103" />
      <path
         d="m 1307.9,183.5 -3.1,-2.2 -2.9,3.5 0.6,-0.2 1.2,0.2 0.9,0.7 0.6,1 0.1,1.3 -0.6,1.4 -0.6,0.8 -1.1,1 -1.2,0.4 -1.2,-0.2 -0.9,-0.7 -0.7,-1 v -0.7 l 0.3,-1 m 12.1,2.5 -1.2,1 -1.2,0.3 -1.2,-0.2 -0.3,-0.2 -0.6,-1.1 v -1.2 l 0.5,-1.5 0.3,-0.4 1.2,-1 1.2,-0.4 1.2,0.3 0.3,0.2 0.6,1.1 0.1,1.2 -0.9,1.9 -1.4,2 -1.8,1.8 -1.5,0.8 -1.2,-0.2 -0.6,-0.5 -0.6,-1 0.3,-1.1"
         stroke="#000000"
         stroke-width="1"
         id="path104" />
      <path
         d="m 1277,122.7 -0.2,-3.8 -4.5,-0.2 0.5,0.4 0.6,1.1 v 1.1 l -0.4,1.1 -1,0.8 -1.5,0.5 h -1 l -1.5,-0.3 -1,-0.7 -0.6,-1.1 v -1.1 l 0.5,-1.2 0.4,-0.4 1,-0.4 m 8.9,8 -0.6,-1.1 -1,-0.4 -1,0.1 -1,0.4 -0.5,0.7 -0.4,1.6 -0.5,1.1 -0.9,0.8 -1,0.4 -1.5,0.1 -1,-0.4 -0.5,-0.3 -0.6,-1.1 v -1.5 l 0.4,-1.2 0.5,-0.4 1,-0.4 h 1.5 l 1,0.3 1,0.7 0.6,1.1 0.5,1.5 0.6,0.7 1,0.4 1,-0.1 1,-0.4 0.4,-1.1 -0.1,-1.7"
         stroke="#000000"
         stroke-width="1"
         id="path105" />
      <path
         d="m 1279.7,86.5 0.7,0.8 1.2,0.1 0.7,-0.2 0.9,-0.9 0.2,-1.6 -0.5,-2.5 -0.8,-2.4 -1,-1.8 -1,-0.7 -1.3,-0.1 -0.3,0.2 -0.9,0.8 -0.4,1.2 0.1,1.5 0.2,0.5 0.9,1.3 1,0.7 1.2,0.1 0.4,-0.1 0.9,-0.9 0.4,-1.2 -0.2,-1.5"
         stroke="#000000"
         stroke-width="1"
         id="path106" />
      <path
         d="m 1320.5,109.7 -0.9,3.6 4.3,1.5 -0.4,-0.5 -0.2,-1.2 0.2,-1.1 0.8,-1 1.1,-0.4 h 1.6 l 1,0.2 1.3,0.7 0.8,1 0.2,1.2 -0.3,1.1 -0.7,1 -0.6,0.2 -1.1,0.1 m -6.5,-9 1.1,-4 3.3,3.2 0.3,-1.1 0.6,-0.6 0.6,-0.3 1.6,0.1 0.9,0.2 1.4,0.7 0.8,1 0.2,1.2 -0.3,1.1 -0.8,1 -0.5,0.2 -1.1,0.1"
         stroke="#000000"
         stroke-width="1"
         id="path107" />
      <path
         d="m 1320.8,63.1 -3.1,2.7 -0.9,-4.5 -0.9,0.7 -0.9,0.1 -0.6,-0.1 -1.3,-0.9 -0.6,-0.8 -0.7,-1.4 -0.1,-1.2 0.5,-1.1 0.9,-0.8 1.2,-0.3 0.6,0.1 0.9,0.5"
         stroke="#000000"
         stroke-width="1"
         id="path108" />
      <path
         d="m 1324.1,63.9 1.7,3.3 4.1,-1.7 -0.6,-0.1 -0.9,-0.8 -0.5,-1 -0.1,-1.2 0.6,-1.1 1.2,-1 0.9,-0.5 1.5,-0.3 1.2,0.2 0.9,0.8 0.5,1 0.1,1.2 -0.3,0.6 -0.7,0.8 m -12.5,-6 1.7,3.4 4.2,-1.7 -0.6,-0.1 -1,-0.8 -0.5,-1 v -1.2 l 0.5,-1.1 1.2,-1 0.9,-0.5 1.5,-0.3 1.2,0.2 1,0.8 0.5,1 V 57 l -0.2,0.6 -0.8,0.8"
         stroke="#000000"
         stroke-width="1"
         id="path109" />
      <path
         d="m 1278,304.9 -1,0.4 -0.5,1.1 v 0.8 l 0.6,1.1 1.5,0.7 2.5,0.4 h 2.5 l 2,-0.4 1,-0.8 0.4,-1.1 v -0.4 l -0.5,-1.1 -1,-0.8 -1.5,-0.3 h -0.5 l -1.5,0.4 -1,0.7 -0.5,1.2 v 0.3 l 0.6,1.2 1,0.7 1.5,0.4 m -4.8,-5.9 -0.5,-0.8 -1.5,-1.1 10.5,-0.1"
         stroke="#000000"
         stroke-width="1"
         id="path110" />
      <path
         d="m 1187.7,317.8 -0.9,-0.6 -1.2,0.2 -0.6,0.4 -0.7,1.1 0.3,1.6 1.1,2.3 1.4,2.1 1.4,1.4 1.2,0.4 1.2,-0.2 0.3,-0.2 0.7,-1.1 V 324 l -0.5,-1.5 -0.3,-0.4 -1.1,-1 -1.2,-0.4 -1.2,0.2 -0.3,0.2 -0.7,1.1 v 1.2 l 0.5,1.5 m 3,-7.5 -0.3,-0.5 -0.3,-1 0.1,-0.6 0.3,-0.9 1.2,-0.8 h 0.9 l 0.6,0.2 0.9,0.6 0.6,0.8 0.2,1.1 0.3,1.6 -0.3,6.3 4.3,-3"
         stroke="#000000"
         stroke-width="1"
         id="path111" />
      <path
         d="m 1172.2,311.3 0.9,-0.5 0.3,-1.2 -0.2,-0.8 -0.7,-1 -1.6,-0.4 -2.5,0.1 -2.5,0.5 -1.9,0.8 -0.8,0.9 -0.3,1.2 0.1,0.4 0.7,1 1.1,0.5 1.6,0.1 0.5,-0.1 1.4,-0.7 0.8,-0.9 0.3,-1.2 -0.1,-0.4 -0.7,-1 -1.2,-0.5 -1.5,-0.1 m 8.2,5.3 0.8,4 -4.3,-1.4 0.2,1.1 -0.4,0.8 -0.4,0.5 -1.4,0.7 -0.9,0.2 -1.6,-0.1 -1.1,-0.5 -0.7,-1 -0.3,-1.1 0.3,-1.2 0.4,-0.5 0.9,-0.6"
         stroke="#000000"
         stroke-width="1"
         id="path112" />
      <path
         d="m 1275.5,368.8 -0.3,-1.1 -1.1,-0.5 -0.8,-0.1 -1.1,0.4 -0.9,1.5 -0.5,2.5 -0.2,2.4 0.3,2.1 0.6,1 1.1,0.6 h 0.4 l 1.2,-0.4 0.8,-1 0.5,-1.4 v -0.5 l -0.3,-1.5 -0.7,-1.1 -1.1,-0.6 h -0.3 l -1.2,0.4 -0.8,1 -0.5,1.4 m 10.5,-6.4 -4.2,6.8 5.6,0.3 m -1.4,-7.1 -0.7,10.5"
         stroke="#000000"
         stroke-width="1"
         id="path113" />
      <path
         d="m 1222.3,342.6 1.1,0.1 0.9,-0.8 0.3,-0.7 v -1.3 l -1,-1.3 -2.1,-1.3 -2.3,-1.1 -2,-0.5 -1.2,0.3 -0.9,0.8 -0.2,0.4 v 1.2 l 0.6,1.1 1.2,0.9 0.5,0.3 1.5,0.2 1.2,-0.2 0.9,-0.8 0.2,-0.4 v -1.2 l -0.6,-1.1 -1.2,-1 m 1.3,8 0.4,0.2 0.8,0.7 0.3,0.6 0.1,0.9 -0.6,1.4 -0.7,0.4 -0.7,0.2 -1,-0.1 -0.9,-0.4 -0.8,-0.8 -1,-1.3 -3,-5.5 -2.2,4.8"
         stroke="#000000"
         stroke-width="1"
         id="path114" />
      <path
         d="m 1263,409.9 -0.3,1 0.5,1.1 0.6,0.4 1.2,0.4 1.5,-0.7 1.9,-1.7 1.6,-2 1,-1.7 v -1.3 l -0.5,-1.1 -0.3,-0.2 -1.2,-0.4 -1.2,0.3 -1.3,1 -0.3,0.4 -0.6,1.4 -0.1,1.2 0.6,1.1 0.3,0.2 1.1,0.4 1.3,-0.3 1.2,-1 m -12.2,-0.8 7.3,-3 -4.4,-3.6 m -2.9,6.6 6.6,-8.1"
         stroke="#000000"
         stroke-width="1"
         id="path115" />
      <path
         d="m 1324.6,448.7 7.8,-7.9 m -3,10.1 -4.8,-2.2 m -4.7,-2 6.4,-4.8 -5.1,-2.4 m -1.3,7.2 4.5,-9.6"
         stroke="#000000"
         stroke-width="1"
         id="path116" />
      <path
         d="m 1320.2,490.7 -10.9,-2.2 m 10.2,-3 0.7,5.2 m 0.8,5.6 -0.5,-3.7 -4.5,0.3 0.6,0.3 0.6,1 0.2,1.1 -0.4,1.2 -0.9,0.9 -1.4,0.6 -1,0.1 -1.5,-0.2 -1.1,-0.6 -0.7,-1 -0.1,-1.1 0.3,-1.2 0.5,-0.4 0.9,-0.6"
         stroke="#000000"
         stroke-width="1"
         id="path117" />
      <path
         d="m 1420,461 2.9,-10.7 m 2.4,10.3 -5.3,0.4 m -2,-2.3 0.1,0.5 -0.3,1 -0.4,0.6 -0.7,0.5 -1.5,0.1 -0.8,-0.4 -0.4,-0.5 -0.4,-0.9 -0.1,-1 0.3,-1 0.6,-1.6 3.3,-5.3 -5.2,0.4"
         stroke="#000000"
         stroke-width="1"
         id="path118" />
      <path
         d="m 1398.8,560.7 3.8,10.6 m -7.8,-7.2 4,-3.4"
         stroke="#000000"
         stroke-width="1"
         id="path119" />
      <path
         d="m 1489.6789,467.26973 8.3,-7.4 m -3.7,9.9 -4.6,-2.5 m -3,-1.6 1.2,0.1 1.4,-1 1.5,-2 0.7,-1.3 0.9,-2.4 v -1.7 l -0.7,-0.9 -0.7,-0.4 -1.2,-0.1 -1.4,1 -1.5,2 -0.7,1.3 -0.9,2.4 -0.1,1.7 0.8,0.9 0.5,0.3"
         stroke="#000000"
         stroke-width="1"
         id="path120" />
      <path
         d="m 1499.1773,485.21949 -1,0.4 -0.5,1.1 v 0.8 l 0.5,1.1 1.5,0.7 2.5,0.3 h 2.5 l 2,-0.4 1,-0.8 0.5,-1.1 v -0.4 l -0.5,-1.1 -1,-0.7 -1.5,-0.4 h -0.5 l -1.5,0.4 -1,0.8 -0.5,1.1 v 0.4 l 0.5,1.1 1,0.8 1.5,0.3 m -7.1,-7.8 0.5,1.1 1,0.4 1,-0.1 1,-0.3 0.5,-0.8 0.5,-1.5 0.5,-1.1 1,-0.8 0.9,-0.4 h 1.5 l 1.1,0.3 0.5,0.4 0.5,1.1 v 1.5 l -0.5,1.1 -0.5,0.4 -1,0.4 h -1.5 l -1,-0.3 -1,-0.7 -0.5,-1.2 -0.5,-1.5 -0.5,-0.7 -1,-0.4 -1,0.1 -1,0.4 -0.5,1.1 v 1.7"
         stroke="#000000"
         stroke-width="1"
         id="path121" />
      <path
         d="m 1331.9,555 -11.1,-1.4 m 10,-3.7 1.1,5.1 m 1.3,6.1 -11,-1.4 m 9.9,-3.7 1.1,5.1"
         stroke="#000000"
         stroke-width="1"
         id="path122" />
      <path
         d="m 1362,611.8 -0.1,-0.9 -0.8,-1.7 9.3,4.7 m -7.5,-9.4 4.6,6.4 2.5,-5 m -7.1,-1.4 9.4,4.6"
         stroke="#000000"
         stroke-width="1"
         id="path123" />
      <path
         d="m 1336,628.1 0.6,-0.6 1,-1.6 1.3,10.4 m 1.7,-11.2 -1.1,0.7 -0.2,1 0.1,1 0.5,0.9 0.8,0.5 1.5,0.3 1.2,0.3 0.9,0.9 0.5,1 0.2,1.5 -0.3,1 -0.3,0.5 -1.1,0.7 -1.4,0.2 -1.2,-0.4 -0.5,-0.5 -0.4,-0.9 -0.2,-1.5 0.2,-1 0.6,-1.1 1.1,-0.6 1.4,-0.7 0.7,-0.6 0.3,-1.1 -0.2,-0.9 -0.5,-1 -1.1,-0.3 -1.7,0.2"
         stroke="#000000"
         stroke-width="1"
         id="path124" />
      <path
         d="m 1337.5,617.2 -10.1,-4.8 m 10.6,-0.4 -0.5,5.2 m -2.1,5.5 1.1,-0.3 0.6,-1.1 0.1,-0.7 -0.4,-1.2 -1.5,-0.9 -2.4,-0.6 -2.5,-0.2 -2,0.2 -1.1,0.6 -0.6,1.1 v 0.4 l 0.4,1.1 0.9,0.9 1.4,0.5 h 0.5 l 1.6,-0.2 1,-0.6 0.6,-1.1 0.1,-0.4 -0.4,-1.1 -0.9,-0.9 -1.5,-0.5"
         stroke="#000000"
         stroke-width="1"
         id="path125" />
      <path
         d="m 1283.7,492.7 9.8,5.3 m -10.6,-0.1 0.8,-5.2 m 0.8,-5.6 -0.5,3.7 4.4,1.1 -0.5,-0.5 -0.3,-1.2 0.2,-1.1 0.6,-1 1.1,-0.6 1.6,-0.2 1,0.2 1.4,0.6 0.9,0.9 0.3,1.2 -0.2,1.1 -0.6,1 -0.6,0.3 -1,0.2"
         stroke="#000000"
         stroke-width="1"
         id="path126" />
      <path
         d="m 1278,560.3 10.4,4 m -10.5,1.3 0.1,-5.3 m 0.2,-6.2 10.4,4 m -10.6,1.2 0.2,-5.2"
         stroke="#000000"
         stroke-width="1"
         id="path127" />
      <path
         d="m 1232.5,537.2 -9.3,-6.1 m 10.5,1 -1.2,5.1 m -0.7,3 -0.3,-1.2 -0.8,-0.6 -1,-0.2 -1.1,0.1 -0.6,0.6 -0.9,1.4 -0.7,0.9 -1.2,0.5 -1,0.2 -1.5,-0.4 -0.9,-0.6 -0.4,-0.5 -0.2,-1.2 0.4,-1.5 0.7,-0.9 0.6,-0.3 1.1,-0.1 1.4,0.4 0.9,0.6 0.8,0.9 0.2,1.2 0.1,1.6 0.3,0.8 0.9,0.6 1,0.3 1.1,-0.1 0.7,-1 0.4,-1.7"
         stroke="#000000"
         stroke-width="1"
         id="path128" />
      <path
         d="m 1263.2,644.2 -0.2,-0.5 v -1 l 0.1,-0.6 0.6,-0.8 1.4,-0.5 0.8,0.2 0.6,0.3 0.7,0.8 0.3,0.9 0.1,1.1 -0.2,1.7 -1.7,6 4.9,-1.9 m -0.6,-11 -0.9,0.8 -0.1,1.7 0.5,2.5 0.6,1.4 1.3,2.2 1.2,1.1 h 1.2 l 0.7,-0.2 0.9,-0.9 0.1,-1.7 -0.5,-2.4 -0.6,-1.4 -1.2,-2.2 -1.3,-1.2 h -1.2 l -0.5,0.2"
         stroke="#000000"
         stroke-width="1"
         id="path129" />
      <path
         d="m 1281.2,621.3 11,2.1 m -10.2,3.1 -0.8,-5.2 m 0.6,-5.9 -0.9,0.6 -0.3,1.1 0.1,0.8 0.7,1 1.6,0.5 h 2.5 l 2.5,-0.4 1.9,-0.6 0.9,-0.9 0.3,-1.2 -0.1,-0.4 -0.6,-1 -1.1,-0.6 -1.6,-0.2 -0.5,0.1 -1.4,0.6 -0.9,0.9 -0.3,1.2 0.1,0.4 0.6,1 1.1,0.6 1.6,0.1"
         stroke="#000000"
         stroke-width="1"
         id="path130" />
      <path
         d="m 1203.7,663.5 -0.6,-0.8 -1.2,-0.1 -0.8,0.2 -0.9,0.8 -0.2,1.7 0.4,2.5 0.7,2.3 1,1.8 1,0.8 1.2,0.1 0.4,-0.1 0.9,-0.8 0.4,-1.2 -0.1,-1.6 -0.1,-0.4 -0.8,-1.4 -1.1,-0.7 -1.2,-0.1 -0.3,0.1 -1,0.8 -0.4,1.2 0.1,1.5 m 7.9,-9.8 -3.5,1.1 1,4.4 0.2,-0.6 0.9,-0.8 1.1,-0.3 1.2,0.1 1,0.7 0.8,1.3 0.3,1 0.1,1.5 -0.4,1.2 -0.9,0.8 -1.1,0.4 -1.2,-0.2 -0.5,-0.3 -0.7,-0.9"
         stroke="#000000"
         stroke-width="1"
         id="path131" />
      <path
         d="m 1187.3,477 -0.5,-11.2 m 5.4,9.1 -4.9,2.1 m -6.9,-0.9 -0.2,-1.6 0.3,-1.2 0.8,-0.9 0.4,-0.1 h 1.2 l 1.1,0.6 0.9,1.3 0.2,0.4 0.2,1.6 -0.3,1.2 -0.8,0.9 -0.4,0.1 h -1.2 l -1.1,-0.6 -1.1,-1.7 -1,-2.3 -0.6,-2.5 0.1,-1.7 0.9,-0.9 0.7,-0.3 1.2,0.1 0.7,0.8"
         stroke="#000000"
         stroke-width="1"
         id="path132" />
      <path
         d="m 1173,502.6 -0.9,-0.8 -1.1,0.1 -0.9,0.5 -0.7,0.8 -0.1,0.9 0.2,1.5 0.1,1.3 -0.5,1.1 -0.8,0.8 -1.3,0.7 -1.1,0.1 -0.6,-0.1 -0.9,-0.8 -0.7,-1.3 -0.1,-1.3 0.3,-0.5 0.7,-0.8 1.3,-0.7 1.1,-0.1 1.2,0.2 1,0.8 1.1,1.1 0.8,0.4 1.1,-0.1 0.9,-0.5 0.7,-0.8 -0.1,-1.2 -0.8,-1.5 m 3.2,6.2 -0.9,-0.7 h -1.7 l -2.4,0.8 -1.3,0.7 -2.1,1.5 -1,1.3 0.1,1.2 0.3,0.7 1,0.8 h 1.7 l 2.4,-0.9 1.3,-0.6 2.1,-1.5 1,-1.4 -0.1,-1.2 -0.3,-0.5"
         stroke="#000000"
         stroke-width="1"
         id="path133" />
      <path
         d="m 1193.1,516 4.2,10.3 m -8.1,-6.8 3.9,-3.5 m 2.3,-2.1 -0.5,1.2 0.4,1 0.6,0.7 1,0.5 0.9,-0.1 1.4,-0.6 1.2,-0.4 1.2,0.2 1,0.5 0.9,1.2 0.4,1 0.1,0.6 -0.5,1.1 -1.2,1 -1.1,0.4 -0.6,-0.2 -1,-0.5 -1,-1.1 -0.4,-1 -0.1,-1.2 0.5,-1.1 0.8,-1.4 0.3,-0.9 -0.4,-1 -0.7,-0.7 -0.9,-0.5 -1.2,0.3 -1.3,1.2"
         stroke="#000000"
         stroke-width="1"
         id="path134" />
      <path
         d="m 1184.1,423.7 -7.1,8.6 m 2.1,-10.4 5,1.8 m 4.5,5.3 -0.9,1.3 -1,0.7 -1.2,0.1 -0.4,-0.1 -0.9,-0.9 -0.3,-1.2 0.1,-1.5 0.2,-0.5 0.8,-1.3 1.1,-0.7 1.2,-0.1 0.4,0.2 0.8,0.8 0.4,1.2 -0.3,2 -0.8,2.4 -1.2,2.2 -1.2,1.2 h -1.3 l -0.7,-0.2 -0.9,-0.9 v -1"
         stroke="#000000"
         stroke-width="1"
         id="path135" />
      <path
         d="m 1162.7,371.7 v 1 l 0.9,0.9 0.7,0.3 1.2,-0.1 1.2,-1.1 1.3,-2.2 0.9,-2.4 0.3,-2 -0.3,-1.2 -0.9,-0.8 -0.3,-0.2 -1.3,0.1 -1,0.7 -0.9,1.2 -0.2,0.5 -0.2,1.5 0.4,1.2 0.9,0.9 0.3,0.1 h 1.2 l 1.1,-0.7 0.9,-1.3 m -8.8,4.1 -3.9,-1.4 3.5,-3 -1,-0.4 -0.5,-0.7 -0.2,-0.6 0.2,-1.5 0.3,-1 0.9,-1.2 1.1,-0.7 1.2,-0.1 1.1,0.4 0.8,0.9 0.2,0.6 v 1.1"
         stroke="#000000"
         stroke-width="1"
         id="path136" />
      <path
         d="m 1124.8,404.7 -0.1,-1.1 -0.9,-0.8 -0.7,-0.3 -1.2,0.1 -1.2,1.2 -1.2,2.3 -0.8,2.3 -0.2,2.1 0.4,1.1 0.9,0.9 0.3,0.1 1.3,-0.1 1,-0.7 0.8,-1.3 0.2,-0.5 0.1,-1.5 -0.4,-1.2 -0.9,-0.9 -0.4,-0.1 -1.2,0.1 -1,0.7 -0.9,1.3 m 12.8,-3.1 -6.9,8.8 m 1.9,-10.4 5,1.6"
         stroke="#000000"
         stroke-width="1"
         id="path137" />
      <path
         d="m 1129.2,383.7 1.1,0.2 1,-0.8 0.3,-0.6 0.2,-1.2 -1,-1.4 -1.9,-1.6 -2.2,-1.3 -1.9,-0.6 -1.3,0.1 -1,0.8 -0.2,0.3 -0.1,1.2 0.5,1.2 1.1,1 0.5,0.3 1.4,0.4 1.3,-0.2 1,-0.7 0.2,-0.3 0.1,-1.2 -0.5,-1.2 -1.1,-1.1 m -0.5,11.9 1.1,0.2 0.9,-0.7 0.4,-0.7 0.1,-1.2 -0.9,-1.4 -2,-1.6 -2.1,-1.2 -2,-0.7 -1.2,0.2 -1,0.7 -0.2,0.3 -0.1,1.3 0.5,1.1 1.1,1.1 0.4,0.2 1.5,0.5 1.3,-0.2 1,-0.7 0.2,-0.4 0.1,-1.2 -0.5,-1.1 -1.1,-1.1"
         stroke="#000000"
         stroke-width="1"
         id="path138" />
      <path
         d="m 1156.8,570.5 0.8,-0.7 v -1.3 l -0.2,-0.7 -0.9,-0.8 -1.7,-0.2 -2.4,0.6 -2.4,0.9 -1.7,1.1 -0.6,1.1 -0.1,1.2 0.1,0.4 0.9,0.8 1.2,0.3 1.6,-0.2 0.4,-0.1 1.3,-1 0.6,-1 0.1,-1.2 -0.2,-0.4 -0.8,-0.9 -1.2,-0.3 -1.6,0.2 m 10.6,7.8 -11.1,0.4 m 9.2,-5.3 1.9,4.9"
         stroke="#000000"
         stroke-width="1"
         id="path139" />
      <path
         d="m 1176.9,574.2 1.2,-0.3 0.5,-1 0.2,-1 -0.3,-1 -0.6,-0.6 -1.5,-0.7 -1,-0.7 -0.6,-1 -0.2,-1.1 0.2,-1.5 0.5,-0.9 0.4,-0.5 1.2,-0.3 1.5,0.2 1,0.7 0.3,0.5 0.3,1 -0.2,1.5 -0.5,1 -0.9,0.9 -1.2,0.3 -1.6,0.3 -0.8,0.4 -0.5,0.9 -0.1,1 0.2,1.1 1.1,0.6 1.6,0.2 m -6.9,-0.9 1.2,-0.4 0.9,-1.4 0.7,-2.4 0.2,-1.5 v -2.5 l -0.5,-1.6 -1.1,-0.6 -0.7,-0.1 -1.2,0.3 -0.9,1.4 -0.8,2.4 -0.2,1.5 0.1,2.5 0.5,1.6 1.1,0.7 h 0.5"
         stroke="#000000"
         stroke-width="1"
         id="path140" />
      <path
         d="m 1426.1,256.5 -0.3,-3.7 -4.6,0.1 0.6,0.3 0.6,1.1 0.1,1.1 -0.4,1.2 -0.9,0.8 -1.4,0.5 -1,0.2 -1.6,-0.3 -1,-0.6 -0.7,-1.1 -0.1,-1.1 0.4,-1.2 0.5,-0.4 0.9,-0.5 m 8.1,10.2 1,-0.5 0.4,-1.2 -0.1,-0.7 -0.6,-1.1 -1.6,-0.6 -2.5,-0.1 -2.5,0.3 -2,0.6 -0.9,0.8 -0.4,1.2 0.1,0.4 0.6,1 1.1,0.7 1.5,0.2 0.5,-0.1 1.4,-0.5 1,-0.8 0.3,-1.2 v -0.4 l -0.6,-1.1 -1.1,-0.6 -1.5,-0.2"
         stroke="#000000"
         stroke-width="1"
         id="path141" />
      <path
         d="m 1494,206.7 0.2,1.1 1,0.7 0.7,0.2 1.2,-0.3 1.1,-1.3 0.9,-2.4 0.5,-2.4 v -2 l -0.5,-1.2 -1,-0.7 -0.3,-0.1 -1.2,0.3 -1,0.8 -0.7,1.4 -0.1,0.5 0.1,1.5 0.5,1.2 1,0.7 0.3,0.1 1.3,-0.3 0.9,-0.8 0.7,-1.4 m -11.4,1.1 0.6,-1.4 1,-0.8 1.2,-0.3 0.4,0.1 0.9,0.8 0.6,1.1 v 1.5 l -0.1,0.5 -0.7,1.4 -0.9,0.8 -1.2,0.3 -0.4,-0.1 -1,-0.7 -0.5,-1.2 0.1,-2 0.5,-2.4 0.9,-2.4 1,-1.3 1.2,-0.3 0.8,0.2 1,0.7 0.1,1.1"
         stroke="#000000"
         stroke-width="1"
         id="path142" />
      <path
         d="m 1515.8773,229.60161 10.9,2.5 m -10.3,2.7 -0.6,-5.2 m -0.3,-3.4 0.6,1 1.6,0.6 2.5,0.1 1.5,-0.2 2.4,-0.7 1.4,-0.9 0.4,-1.1 -0.1,-0.8 -0.6,-1.1 -1.6,-0.5 -2.5,-0.1 -1.5,0.2 -2.5,0.6 -1.4,0.9 -0.3,1.2 v 0.6"
         stroke="#000000"
         stroke-width="1"
         id="path143" />
      <path
         d="m 1507.2562,244.56812 2.4,10.9 m -6.8,-8.1 4.4,-2.8 m 2.2,1.5 0.4,-0.9 0.1,-1.8 5.6,8.9"
         stroke="#000000"
         stroke-width="1"
         id="path144" />
      <path
         d="m 1501.6,141.3 -0.8,0.7 -0.1,1.2 0.2,0.7 0.9,0.9 1.6,0.2 2.5,-0.5 2.4,-0.8 1.7,-1 0.7,-1.1 0.1,-1.2 -0.1,-0.3 -0.9,-0.9 -1.2,-0.4 -1.5,0.1 -0.5,0.2 -1.3,0.9 -0.7,1 v 1.2 l 0.1,0.4 0.8,0.9 1.2,0.4 1.6,-0.2 m -9.3,-5.1 0.8,0.9 h 1.1 l 1,-0.3 0.8,-0.7 0.2,-0.9 v -1.6 -1.2 l 0.7,-1.1 0.9,-0.6 1.4,-0.6 1,0.1 0.6,0.1 0.9,0.9 0.5,1.5 -0.1,1.2 -0.4,0.5 -0.8,0.7 -1.4,0.5 h -1 l -1.2,-0.4 -0.9,-0.9 -1,-1.2 -0.7,-0.6 h -1.1 l -0.9,0.4 -0.8,0.6 -0.1,1.3 0.6,1.6"
         stroke="#000000"
         stroke-width="1"
         id="path145" />
      <path
         d="m 1486.9,164.2 -0.7,-0.7 h -1.2 l -0.7,0.3 -0.8,0.9 -0.1,1.7 0.7,2.4 1,2.3 1.2,1.7 1.1,0.6 h 1.2 l 0.3,-0.2 0.8,-0.9 0.3,-1.2 -0.3,-1.5 -0.2,-0.5 -0.9,-1.2 -1.1,-0.6 h -1.2 l -0.4,0.1 -0.8,1 -0.3,1.2 0.3,1.5 m 8.5,-7.7 0.3,1.6 -0.3,1.2 -0.8,0.9 -0.3,0.1 h -1.3 l -1.1,-0.6 -0.9,-1.2 -0.2,-0.4 -0.3,-1.5 0.3,-1.3 0.8,-0.9 0.3,-0.1 h 1.3 l 1.1,0.6 1.1,1.6 1.1,2.3 0.6,2.4 v 1.7 l -0.8,0.9 -0.7,0.3 h -1.3 l -0.7,-0.7"
         stroke="#000000"
         stroke-width="1"
         id="path146" />
      <path
         d="m 1331.6151,352.66973 2.6,10.9 m -7,-8.1 4.4,-2.8 m 4.3,-2.9 0.6,7.9 4.7,-3 m -5.3,-4.9 5.7,8.8"
         stroke="#000000"
         stroke-width="1"
         id="path147" />
      <path
         d="m 1324.6816,350.42271 4.7,-10.1 m 0.6,10.6 -5.3,-0.5 m -1.8,-0.2 -4.2,-0.4 2.7,-3.7 -1.2,-0.1 -0.7,-0.6 -0.3,-0.5 -0.2,-1.6 0.1,-1 0.5,-1.4 0.8,-1 1.2,-0.4 1.1,0.2 1.1,0.6 0.3,0.5 0.3,1"
         stroke="#000000"
         stroke-width="1"
         id="path148" />
      <path
         d="m 1497.8,72.2 -0.9,3.6 4.3,1.4 -0.4,-0.5 -0.2,-1.2 0.2,-1.1 0.8,-0.9 1.1,-0.5 1.6,-0.1 0.9,0.3 1.4,0.7 0.8,0.9 0.2,1.2 -0.2,1.1 -0.7,1 -0.6,0.3 -1.1,0.1 m -6,-12.1 6,5.3 1.2,-5.5 m -7.2,0.2 10.2,2.4"
         stroke="#000000"
         stroke-width="1"
         id="path149" />
      <path
         d="m 1146.6,165.1 0.5,-1 -0.4,-1.2 -0.5,-0.5 -1.1,-0.5 -1.7,0.5 -2,1.4 -1.9,1.7 -1.2,1.6 -0.2,1.2 0.4,1.2 0.2,0.3 1.2,0.5 1.2,-0.2 1.4,-0.7 0.3,-0.3 0.9,-1.3 0.2,-1.3 -0.4,-1.1 -0.2,-0.3 -1.2,-0.5 -1.2,0.1 -1.4,0.8 m 12.3,3 -2.5,-2.8 -3.6,2.8 0.6,-0.1 1.2,0.5 0.7,0.8 0.4,1.2 -0.2,1.2 -0.9,1.3 -0.7,0.7 -1.3,0.7 -1.3,0.2 -1.1,-0.5 -0.8,-0.8 -0.4,-1.2 0.1,-0.6 0.5,-1"
         stroke="#000000"
         stroke-width="1"
         id="path150" />
      <path
         d="m 1137,150.6 -0.6,0.7 -0.7,1.7 -2.5,-10.2 m -3.5,12 1.1,-11.1 m 4,9.9 -5.1,1.2"
         stroke="#000000"
         stroke-width="1"
         id="path151" />
      <path
         d="m 1137.4,629.6 0.9,0.5 1.2,-0.3 0.6,-0.5 0.5,-1.2 -0.5,-1.6 -1.4,-2.1 -1.6,-1.9 -1.6,-1.2 -1.3,-0.2 -1.1,0.3 -0.3,0.3 -0.5,1.1 0.1,1.3 0.7,1.3 0.3,0.4 1.3,0.9 1.3,0.2 1.1,-0.4 0.3,-0.2 0.5,-1.1 -0.1,-1.3 -0.7,-1.4 m -4.2,11.2 0.9,0.5 1.2,-0.4 0.6,-0.5 0.5,-1.1 -0.5,-1.6 -1.4,-2.2 -1.6,-1.8 -1.7,-1.3 -1.2,-0.2 -1.2,0.4 -0.2,0.2 -0.5,1.2 0.1,1.2 0.7,1.4 0.3,0.3 1.3,0.9 1.2,0.2 1.2,-0.3 0.3,-0.3 0.5,-1.1 -0.1,-1.2 -0.7,-1.4"
         stroke="#000000"
         stroke-width="1"
         id="path152" />
      <path
         d="m 1141.4,654.7 0.2,-1.1 -0.7,-1 -0.7,-0.4 -1.2,-0.1 -1.4,0.8 -1.6,2 -1.3,2.1 -0.8,1.9 0.2,1.3 0.7,1 0.3,0.2 1.2,0.1 1.2,-0.4 1.1,-1.1 0.2,-0.4 0.5,-1.5 -0.1,-1.3 -0.7,-1 -0.4,-0.2 -1.2,-0.1 -1.1,0.4 -1.1,1.1 m 10.7,-1.6 -1.2,-0.2 -1.4,0.9 -1.7,1.9 -0.7,1.3 -1,2.3 -0.2,1.7 0.8,1 0.6,0.4 1.2,0.2 1.4,-0.9 1.7,-2 0.7,-1.2 1,-2.4 0.1,-1.6 -0.7,-1.1 -0.4,-0.2"
         stroke="#000000"
         stroke-width="1"
         id="path153" />
      <path
         d="m 1416.6,341 1.2,-3.6 -4.1,-1.8 0.3,0.5 0.1,1.2 -0.4,1.1 -0.8,0.9 -1.2,0.4 -1.5,-0.2 -1,-0.3 -1.3,-0.8 -0.7,-1.1 -0.1,-1.2 0.4,-1.1 0.8,-0.9 0.6,-0.2 h 1.1 m 4.3,13.7 -8.7,-7 m 10.4,2 -1.7,5"
         stroke="#000000"
         stroke-width="1"
         id="path154" />
      <path
         d="m 1436.9,400.1 2.8,10.8 m -7.1,-7.8 4.3,-3 m 1.6,-1 3.4,-2.3 0.4,4.5 0.9,-0.6 h 0.9 l 0.6,0.2 1.2,1 0.5,0.9 0.6,1.4 -0.1,1.3 -0.7,1 -0.9,0.7 -1.2,0.2 -0.6,-0.2 -0.9,-0.7"
         stroke="#000000"
         stroke-width="1"
         id="path155" />
      <path
         d="m 1411.1,400.2 0.8,-0.7 0.1,-1.3 -0.3,-0.7 -0.9,-0.8 -1.6,-0.2 -2.5,0.6 -2.3,0.9 -1.8,1 -0.6,1.1 -0.1,1.2 0.1,0.4 0.9,0.8 1.2,0.4 1.5,-0.2 0.5,-0.2 1.3,-0.9 0.6,-1 0.1,-1.3 -0.1,-0.3 -0.9,-0.9 -1.2,-0.3 -1.5,0.2 m 6.4,3.8 0.8,0.6 1.8,0.5 -9.8,3.8"
         stroke="#000000"
         stroke-width="1"
         id="path156" />
      <path
         d="m 1494,335.4 7.3,8.5 m -9.9,-3.9 2.6,-4.6 m 3.1,-0.3 -0.4,-0.3 -0.7,-0.8 -0.3,-0.6 v -0.9 l 0.7,-1.3 0.8,-0.4 0.6,-0.1 1.1,0.2 0.9,0.5 0.6,0.8 1,1.4 2.5,5.8 2.6,-4.6"
         stroke="#000000"
         stroke-width="1"
         id="path157" />
      <path
         d="m 1505.5,295.8 8.2,-7.6 m -3.5,10 -4.7,-2.4 m 0.1,-2.6 -0.9,0.1 -1.6,0.8 4.8,-9.3"
         stroke="#000000"
         stroke-width="1"
         id="path158" />
      <path
         d="m 1459.4,560 -6.7,4.2 4.9,2.8 m 1.8,-7 -5.2,9.1"
         stroke="#000000"
         stroke-width="1"
         id="path159" />
      <path
         d="m 1481.5,549.1 -1.6,3.4 3.9,2.3 -0.3,-0.6 V 553 l 0.5,-1 0.9,-0.8 1.3,-0.3 1.5,0.3 0.9,0.5 1.2,1 0.5,1.1 v 1.2 l -0.5,1 -0.9,0.8 -0.6,0.1 -1.1,-0.1 m -3.2,-13 4.6,6.4 2.5,-5.1 m -7.1,-1.3 9.4,4.5"
         stroke="#000000"
         stroke-width="1"
         id="path160" />
      <path
         d="m 1487.9,46.2 1.2,-0.4 1,-1.3 0.7,-2.5 0.3,-1.4 V 38 l -0.6,-1.6 -1,-0.6 -0.7,-0.1 -1.2,0.3 -1,1.4 -0.7,2.4 -0.3,1.5 v 2.5 l 0.6,1.6 1,0.7 h 0.6"
         stroke="#000000"
         stroke-width="1"
         id="path161" />
      <path
         d="m 1465.5,48.5 1.3,-3.6 -4.1,-1.9 0.3,0.6 0.1,1.2 -0.4,1 -0.8,0.9 -1.2,0.4 -1.5,-0.2 -1,-0.3 -1.3,-0.9 -0.6,-1 -0.1,-1.2 0.4,-1.1 0.8,-0.9 0.6,-0.2 h 1.1 m 4.2,13.2 1.3,-3.6 -4.1,-1.8 0.4,0.5 v 1.2 l -0.3,1.1 -0.9,0.8 -1.2,0.4 -1.5,-0.1 -1,-0.4 -1.2,-0.9 -0.7,-1 -0.1,-1.2 0.4,-1.1 0.8,-0.9 0.6,-0.2 h 1.1"
         stroke="#000000"
         stroke-width="1"
         id="path162" />
    </g>
    <path
       d="m 1248.9404,330.47454 h 6.2 l -3.4,6 h 1.7 l 1.1,0.7 0.6,0.8 0.6,2.2 v 1.5 l -0.6,2.3 -1.1,1.5 -1.7,0.7 h -1.7 l -1.7,-0.7 -0.6,-0.8 -0.5,-1.5"
       id="titre_3"
       stroke="#4b0082"
       style="stroke-width:2.53872" />
  </g>
</svg>
