<?xml version="1.0" encoding="UTF-8" standalone="no"?>
<svg
   height="297mm"
   viewBox="0 0 533 754"
   width="210mm"
   version="1.1"
   id="svg1"
   sodipodi:docname="Nonosse156_H30_A4x3.svg"
   inkscape:version="1.3 (1:1.3+202307231459+0e150ed6c4)"
   xmlns:inkscape="http://www.inkscape.org/namespaces/inkscape"
   xmlns:sodipodi="http://sodipodi.sourceforge.net/DTD/sodipodi-0.dtd"
   xmlns="http://www.w3.org/2000/svg"
   xmlns:svg="http://www.w3.org/2000/svg">
  <defs
     id="defs1" />
  <sodipodi:namedview
     id="namedview1"
     pagecolor="#ffffff"
     bordercolor="#000000"
     borderopacity="0.25"
     inkscape:showpageshadow="2"
     inkscape:pageopacity="0.0"
     inkscape:pagecheckerboard="0"
     inkscape:deskcolor="#d1d1d1"
     inkscape:document-units="mm"
     showgrid="false"
     inkscape:zoom="1.0633188"
     inkscape:cx="844.52568"
     inkscape:cy="451.41684"
     inkscape:window-width="1920"
     inkscape:window-height="1008"
     inkscape:window-x="0"
     inkscape:window-y="0"
     inkscape:window-maximized="1"
     inkscape:current-layer="svg1" />
  <style
     type="text/css"
     id="style1"><![CDATA[
			path {
				fill: none;
			}
		]]></style>
  <g
     id="page_001">
    <path
       d="M 376.0 164.8 L 375.3 165.0 L 374.3 165.8 L 375.3 159.5 M 322.2 452.2 L 321.3 452.5 L 320.7 453.4 L 320.5 454.9 L 320.5 455.8 L 320.8 457.3 L 321.5 458.2 L 322.4 458.5 L 323.0 458.4 L 323.9 458.1 L 324.4 457.2 L 324.7 455.7 L 324.7 454.8 L 324.3 453.3 L 323.7 452.4 L 322.8 452.1 L 322.4 452.2 M 316.9 167.5 L 317.0 167.8 L 316.8 168.4 L 316.6 168.8 L 316.1 169.3 L 315.0 169.6 L 314.3 169.5 L 314.0 169.2 L 313.5 168.8 L 313.3 168.2 L 313.5 167.5 L 313.8 166.5 L 315.9 162.8 L 311.8 163.9 M 266.1 462.3 L 269.2 461.2 L 268.4 464.0 L 269.2 463.7 L 269.9 463.8 L 270.3 464.0 L 270.9 464.7 L 271.1 465.2 L 271.1 466.2 L 270.8 467.0 L 270.1 467.6 L 269.2 467.9 L 268.3 467.9 L 267.9 467.8 L 267.4 467.3 M 384.5 470.0 L 379.7 471.8 L 383.4 474.3 M 384.5 470.0 L 381.0 475.2 M 259.7 177.4 L 262.7 177.6 L 263.1 174.9 L 262.8 175.2 L 261.9 175.4 L 261.0 175.4 L 260.1 175.0 L 259.5 174.4 L 259.3 173.5 L 259.3 172.9 L 259.7 172.0 L 260.3 171.4 L 261.2 171.2 L 262.1 171.2 L 263.0 171.6 L 263.3 171.9 L 263.5 172.5 M 233.6 471.9 L 233.3 471.3 L 232.3 471.1 L 231.7 471.2 L 230.9 471.6 L 230.4 472.6 L 230.2 474.1 L 230.4 475.6 L 230.8 476.7 L 231.5 477.3 L 232.4 477.5 L 232.7 477.4 L 233.6 477.0 L 234.1 476.4 L 234.3 475.4 L 234.3 475.1 L 233.9 474.3 L 233.2 473.8 L 232.3 473.6 L 232.0 473.6 L 231.1 474.0 L 230.6 474.6 L 230.4 475.6 M 425.2 474.2 L 425.3 481.2 M 421.4 476.1 L 425.2 474.2 M 220.2 164.6 L 220.9 163.9 L 221.7 163.7 L 222.7 163.8 L 222.9 164.0 L 223.6 164.7 L 223.8 165.5 L 223.7 166.4 L 223.5 166.7 L 222.8 167.3 L 222.0 167.6 L 221.1 167.4 L 220.8 167.3 L 220.2 166.6 L 219.9 165.8 L 220.2 164.6 L 220.9 163.2 L 221.9 162.1 L 222.9 161.6 L 223.8 161.7 L 224.3 162.0 L 225.0 162.7 L 225.0 163.4 M 201.0 461.4 L 201.6 461.5 L 202.9 461.3 L 199.2 466.4 M 205.4 462.8 L 204.5 462.6 L 203.5 462.9 L 202.4 464.0 L 201.8 464.7 L 201.2 466.1 L 201.2 467.2 L 201.7 467.9 L 202.2 468.3 L 203.1 468.6 L 204.1 468.2 L 205.2 467.2 L 205.8 466.4 L 206.4 465.0 L 206.4 464.0 L 205.9 463.2 L 205.5 462.9 M 464.3 95.7 L 463.8 95.3 L 462.5 94.9 L 468.1 92.0 M 463.1 93.4 L 462.6 93.0 L 461.4 92.7 L 466.9 89.8 M 187.1 127.4 L 186.5 127.0 L 185.3 126.7 L 190.7 123.5 M 184.2 125.3 L 182.6 122.4 L 185.5 122.8 L 185.1 122.0 L 185.0 121.3 L 185.2 120.9 L 185.8 120.2 L 186.3 119.9 L 187.2 119.7 L 188.1 119.9 L 188.8 120.6 L 189.2 121.3 L 189.4 122.3 L 189.3 122.7 L 188.9 123.2 M 162.7 451.1 L 163.2 450.7 L 164.1 449.8 L 164.3 456.1 M 168.4 449.4 L 165.5 453.7 L 170.0 453.5 M 168.4 449.4 L 168.6 455.7 M 166.6 102.8 L 166.3 103.4 L 166.1 104.7 L 162.4 99.6 M 164.1 106.5 L 164.7 105.7 L 164.5 105.0 L 164.2 104.5 L 163.6 104.2 L 162.9 104.4 L 161.8 104.8 L 160.9 105.1 L 160.1 105.0 L 159.5 104.7 L 158.9 104.0 L 158.8 103.3 L 158.9 102.9 L 159.4 102.1 L 160.4 101.4 L 161.3 101.1 L 161.7 101.2 L 162.3 101.5 L 162.8 102.2 L 162.9 102.9 L 162.8 103.7 L 162.3 104.5 L 161.5 105.4 L 161.2 106.0 L 161.3 106.7 L 161.7 107.2 L 162.3 107.5 L 163.2 107.2 L 164.2 106.4 M 127.6 451.9 L 128.2 451.6 L 129.1 450.6 L 129.2 456.9 M 134.2 452.4 L 133.9 453.4 L 133.3 454.0 L 132.4 454.3 L 132.1 454.3 L 131.2 454.0 L 130.6 453.4 L 130.3 452.5 L 130.3 452.2 L 130.6 451.3 L 131.2 450.7 L 132.1 450.4 L 132.4 450.4 L 133.3 450.7 L 133.9 451.3 L 134.2 452.4 L 134.2 453.9 L 134.0 455.4 L 133.4 456.4 L 132.5 456.7 L 131.9 456.7 L 131.0 456.4 L 130.7 455.8 M 431.8 86.7 L 431.7 81.6 L 428.1 84.2 M 431.8 86.7 L 428.1 81.6 M 428.4 89.1 L 429.0 88.4 L 428.9 87.7 L 428.5 87.2 L 427.9 86.9 L 427.2 87.0 L 426.1 87.5 L 425.2 87.8 L 424.4 87.6 L 423.8 87.3 L 423.2 86.6 L 423.1 86.0 L 423.2 85.5 L 423.7 84.8 L 424.7 84.1 L 425.6 83.8 L 426.0 83.8 L 426.6 84.1 L 427.1 84.9 L 427.3 85.5 L 427.1 86.4 L 426.6 87.1 L 425.8 88.1 L 425.5 88.7 L 425.6 89.3 L 426.0 89.8 L 426.6 90.1 L 427.5 89.8 L 428.5 89.0 M 409.7 128.7 L 405.0 126.5 L 405.9 130.9 M 409.7 128.7 L 403.6 129.9 M 408.9 135.5 L 407.9 135.4 L 407.2 134.9 L 406.8 134.1 L 406.7 133.8 L 406.8 132.8 L 407.3 132.1 L 408.1 131.7 L 408.4 131.6 L 409.4 131.7 L 410.1 132.2 L 410.5 133.0 L 410.6 133.3 L 410.5 134.3 L 410.0 135.0 L 408.9 135.5 L 407.4 135.8 L 405.9 135.8 L 404.9 135.4 L 404.4 134.5 L 404.3 134.0 L 404.4 133.0 L 405.0 132.6 M 129.8 120.5 L 129.8 120.8 L 129.7 121.4 L 129.4 121.8 L 128.9 122.2 L 127.8 122.5 L 127.1 122.3 L 126.7 122.1 L 126.3 121.6 L 126.2 121.0 L 126.3 120.3 L 126.7 119.3 L 129.0 115.7 L 124.9 116.7 M 122.1 123.9 L 124.1 119.1 L 119.7 120.1 M 122.1 123.9 L 120.7 117.7 M 84.1 441.9 L 84.2 441.6 L 84.7 441.2 L 85.1 441.0 L 85.8 440.9 L 86.9 441.3 L 87.4 441.8 L 87.5 442.2 L 87.6 442.8 L 87.4 443.4 L 86.9 443.9 L 86.1 444.5 L 82.3 446.4 L 86.2 447.7 M 89.9 442.4 L 93.1 443.4 L 90.6 445.1 L 91.4 445.4 L 91.9 445.9 L 92.1 446.3 L 92.1 447.2 L 91.9 447.8 L 91.3 448.5 L 90.5 448.9 L 89.6 448.9 L 88.7 448.6 L 88.0 448.0 L 87.8 447.6 L 87.7 447.0 M 79.3 116.4 L 79.2 116.7 L 78.6 117.1 L 78.2 117.2 L 77.5 117.2 L 76.5 116.6 L 76.1 116.1 L 76.0 115.7 L 76.0 115.0 L 76.3 114.5 L 76.8 114.1 L 77.8 113.6 L 81.8 112.4 L 78.1 110.4 M 74.4 113.8 L 74.3 114.1 L 73.7 114.5 L 73.3 114.6 L 72.6 114.6 L 71.6 114.0 L 71.2 113.5 L 71.1 113.1 L 71.1 112.4 L 71.4 111.9 L 71.9 111.5 L 72.9 111.0 L 76.9 109.7 L 73.2 107.7 M 37.5 427.8 L 37.5 427.5 L 38.0 427.0 L 38.3 426.8 L 39.0 426.6 L 40.2 426.9 L 40.7 427.4 L 40.9 427.7 L 41.0 428.4 L 40.9 429.0 L 40.4 429.5 L 39.6 430.2 L 35.9 432.3 L 40.0 433.4 M 42.3 428.9 L 42.9 428.8 L 44.0 428.2 L 42.4 434.3 M 44.1 111.0 L 43.8 111.6 L 43.5 112.8 L 40.2 107.4 M 39.1 115.7 L 38.4 108.8 M 42.7 113.5 L 39.1 115.7 M 26.6 270.3 L 26.9 270.9 L 27.8 271.8 L 21.5 271.9 M 28.0 276.6 L 28.0 273.6 L 25.3 273.3 L 25.6 273.6 L 25.9 274.5 L 25.9 275.4 L 25.6 276.3 L 25.0 276.9 L 24.1 277.2 L 23.5 277.2 L 22.6 276.9 L 22.0 276.3 L 21.7 275.4 L 21.7 274.5 L 22.0 273.6 L 22.3 273.3 L 22.9 273.0 M 478.8 280.1 L 478.5 279.5 L 477.6 278.6 L 483.9 278.6 M 477.4 273.9 L 477.4 276.9 L 480.1 277.2 L 479.8 276.9 L 479.5 276.0 L 479.5 275.1 L 479.8 274.2 L 480.4 273.6 L 481.3 273.3 L 481.9 273.3 L 482.8 273.6 L 483.4 274.2 L 483.7 275.1 L 483.7 276.0 L 483.4 276.9 L 483.1 277.2 L 482.5 277.5 M 460.7 449.6 L 460.9 448.9 L 460.9 447.7 L 465.5 452.0 M 464.6 444.7 L 464.0 444.5 L 463.1 444.9 L 462.7 445.4 L 462.3 446.2 L 462.6 447.3 L 463.5 448.5 L 464.6 449.6 L 465.6 450.2 L 466.5 450.1 L 467.3 449.7 L 467.5 449.5 L 467.9 448.6 L 467.9 447.8 L 467.4 446.9 L 467.2 446.7 L 466.4 446.3 L 465.5 446.4 L 464.7 446.8 L 464.5 447.0 L 464.1 447.9 L 464.1 448.7 L 464.6 449.6"
       id="nums_001"
       stroke="black"
       stroke-width="1" />
    <path
       d="M 19.1,118.3 55.5,96 l 45.3,24.3 45,-10.5 27.2,-20.2 36.1,61.9 30.8,16.7 42.5,2.1 61.2,-17.4 64.4,10 -11.9,-60.3 57.5,-42.2 31.2,59.8 1.6,312 -36.3,38.7 -45.3,22.8 -50.5,-34.1 -62.3,1.6 -42.2,16.3 -33.1,3.7 -33.2,-24 -33,1.1 -37.9,0.7 -52.1,-18.1 -40.1,-10.7 z"
       id="coupes_001"
       stroke="#ff0000"
       stroke-width="1.27"
       sodipodi:nodetypes="cccccccccccccccccccccccccc" />
    <path
       d="M 408.0 162.9 L 354.3 459.6 M 354.3 459.6 L 343.6 152.9 M 292.0 461.2 L 343.6 152.9 M 292.0 461.2 L 282.4 170.3 M 249.8 477.5 L 282.4 170.3 M 408.0 162.9 L 404.8 493.7 M 249.8 477.5 L 239.9 168.2 M 216.7 481.2 L 239.9 168.2 M 408.0 162.9 L 450.1 470.9 M 453.6 60.4 L 450.1 470.9 M 216.7 481.2 L 209.1 151.5 M 183.5 457.2 L 209.1 151.5 M 484.8 120.2 L 450.1 470.9 M 183.5 457.2 L 173.0 89.6 M 150.5 458.3 L 173.0 89.6 M 150.5 458.3 L 145.8 109.8 M 112.6 459.0 L 145.8 109.8 M 112.6 459.0 L 100.8 120.3 M 60.5 440.9 L 100.8 120.3 M 60.5 440.9 L 55.5 96.0 M 20.4 430.2 L 55.5 96.0"
       id="plisM_001"
       stroke="brown"
       stroke-dasharray="4" />
    <path
       d="M 379.2 309.2 L 383.2 313.2 M 383.2 309.2 L 379.2 313.2 M 346.9 304.2 L 350.9 308.2 M 350.9 304.2 L 346.9 308.2 M 315.8 305.0 L 319.8 309.0 M 319.8 305.0 L 315.8 309.0 M 285.2 313.7 L 289.2 317.7 M 289.2 313.7 L 285.2 317.7 M 264.1 321.9 L 268.1 325.9 M 268.1 321.9 L 264.1 325.9 M 404.4 326.3 L 408.4 330.3 M 408.4 326.3 L 404.4 330.3 M 242.8 320.8 L 246.8 324.8 M 246.8 320.8 L 242.8 324.8 M 226.3 322.7 L 230.3 326.7 M 230.3 322.7 L 226.3 326.7 M 427.0 314.9 L 431.0 318.9 M 431.0 314.9 L 427.0 318.9 M 449.9 263.7 L 453.9 267.7 M 453.9 263.7 L 449.9 267.7 M 210.9 314.4 L 214.9 318.4 M 214.9 314.4 L 210.9 318.4 M 194.3 302.4 L 198.3 306.4 M 198.3 302.4 L 194.3 306.4 M 465.4 293.6 L 469.4 297.6 M 469.4 293.6 L 465.4 297.6 M 176.3 271.4 L 180.3 275.4 M 180.3 271.4 L 176.3 275.4 M 159.7 272.0 L 163.7 276.0 M 163.7 272.0 L 159.7 276.0 M 146.1 282.0 L 150.1 286.0 M 150.1 282.0 L 146.1 286.0 M 127.2 282.4 L 131.2 286.4 M 131.2 282.4 L 127.2 286.4 M 104.7 287.6 L 108.7 291.6 M 108.7 287.6 L 104.7 291.6 M 78.7 278.6 L 82.7 282.6 M 82.7 278.6 L 78.7 282.6 M 56.0 266.4 L 60.0 270.4 M 60.0 266.4 L 56.0 270.4 M 36.0 261.1 L 40.0 265.1 M 40.0 261.1 L 36.0 265.1"
       display="none"
       id="marqueM_001"
       stroke="brown" />
    <path
       d="M 408.0 162.9 L 453.6 60.4"
       id="plisV_001"
       stroke="green"
       stroke-dasharray="4 1 1 1"
       stroke-width="1.27" />
    <path
       d="M 428.8 109.6 L 432.8 113.6 M 432.8 109.6 L 428.8 113.6"
       id="marqueV_001"
       stroke="green" />
    <path
       d="M 255.1 263.1 L 256.6 262.4 L 258.8 260.1 L 258.8 275.9"
       id="titre_1"
       stroke="indigo" />
  </g>
  <g
     id="page_002">
    <path
       d="M 675.2 216.7 L 675.4 216.4 L 676.0 216.2 L 676.4 216.1 L 677.1 216.3 L 678.0 217.0 L 678.3 217.6 L 678.4 218.0 L 678.2 218.7 L 677.8 219.2 L 677.2 219.4 L 676.2 219.8 L 672.0 220.2 L 675.3 222.9 M 682.9 220.9 L 680.6 219.0 L 678.6 221.0 L 679.0 220.9 L 679.9 221.2 L 680.6 221.8 L 681.2 222.6 L 681.2 223.5 L 680.9 224.3 L 680.5 224.8 L 679.7 225.3 L 678.9 225.4 L 678.0 225.1 L 677.3 224.5 L 676.8 223.7 L 676.7 223.3 L 676.9 222.6 M 655.5 134.3 L 655.8 134.3 L 656.4 134.7 L 656.6 135.0 L 656.9 135.7 L 656.7 136.9 L 656.3 137.4 L 656.0 137.7 L 655.4 137.9 L 654.8 137.8 L 654.2 137.4 L 653.4 136.7 L 650.8 133.4 L 650.3 137.6 M 655.0 142.9 L 655.7 142.7 L 656.1 141.9 L 656.2 141.3 L 656.0 140.3 L 655.2 139.6 L 653.7 139.1 L 652.2 139.0 L 651.0 139.1 L 650.3 139.6 L 649.9 140.5 L 649.9 140.8 L 650.1 141.7 L 650.6 142.4 L 651.4 142.8 L 651.7 142.8 L 652.7 142.6 L 653.3 142.1 L 653.7 141.3 L 653.8 141.0 L 653.6 140.0 L 653.1 139.4 L 652.2 139.0 M 738.1 130.0 L 738.3 130.2 L 738.6 130.8 L 738.6 131.2 L 738.5 131.8 L 737.7 132.8 L 737.1 133.0 L 736.7 133.1 L 736.0 132.9 L 735.6 132.5 L 735.3 131.9 L 735.0 130.9 L 734.6 126.7 L 731.9 129.9 M 735.0 135.9 L 735.4 135.1 L 735.1 134.4 L 734.7 134.1 L 734.0 133.9 L 733.4 134.2 L 732.4 134.9 L 731.6 135.4 L 730.7 135.5 L 730.1 135.3 L 729.4 134.7 L 729.1 134.1 L 729.1 133.7 L 729.4 132.8 L 730.2 131.9 L 731.0 131.4 L 731.4 131.4 L 732.1 131.5 L 732.8 132.1 L 733.1 132.7 L 733.1 133.6 L 732.8 134.4 L 732.2 135.6 L 732.1 136.2 L 732.4 136.8 L 732.8 137.2 L 733.5 137.4 L 734.3 136.9 L 735.1 135.8 M 784.4 149.6 L 784.1 149.4 L 783.9 148.7 L 783.9 148.3 L 784.1 147.7 L 784.9 146.8 L 785.6 146.6 L 786.0 146.6 L 786.6 146.8 L 787.1 147.2 L 787.3 147.8 L 787.5 148.9 L 787.6 153.1 L 790.5 150.1 M 791.0 143.6 L 791.4 144.4 L 791.5 145.2 L 791.0 146.1 L 790.8 146.3 L 790.0 146.8 L 789.2 146.8 L 788.3 146.4 L 788.1 146.2 L 787.6 145.3 L 787.6 144.5 L 788.0 143.6 L 788.2 143.4 L 789.1 143.0 L 789.9 142.9 L 791.0 143.6 L 792.1 144.6 L 793.0 145.9 L 793.2 146.9 L 792.8 147.8 L 792.4 148.2 L 791.5 148.6 L 790.9 148.4 M 810.5 168.6 L 810.6 168.8 L 810.6 169.5 L 810.5 169.9 L 810.1 170.4 L 809.0 171.0 L 808.3 171.0 L 807.9 170.9 L 807.4 170.5 L 807.1 169.9 L 807.1 169.3 L 807.2 168.2 L 808.5 164.1 L 804.8 166.1 M 802.2 172.1 L 802.1 171.2 L 802.3 170.4 L 803.0 169.7 L 803.3 169.5 L 804.2 169.4 L 805.0 169.7 L 805.7 170.3 L 805.8 170.6 L 806.0 171.5 L 805.7 172.3 L 805.0 173.0 L 804.8 173.1 L 803.8 173.3 L 803.0 173.0 L 802.2 172.1 L 801.5 170.8 L 801.1 169.3 L 801.2 168.2 L 801.9 167.5 L 802.4 167.3 L 803.4 167.1 L 803.9 167.5 M 776.5 302.6 L 776.9 299.3 L 779.1 301.4 L 779.2 300.5 L 779.6 300.0 L 779.9 299.7 L 780.8 299.5 L 781.4 299.6 L 782.3 300.0 L 782.8 300.7 L 783.0 301.6 L 782.9 302.5 L 782.5 303.3 L 782.2 303.6 L 781.5 303.8 M 778.7 297.6 L 778.4 297.5 L 777.8 297.2 L 777.5 296.8 L 777.3 296.2 L 777.5 295.0 L 777.8 294.4 L 778.2 294.2 L 778.8 294.0 L 779.4 294.0 L 780.0 294.4 L 780.8 295.1 L 783.4 298.4 L 783.9 294.3 M 876.8 188.4 L 874.8 185.8 L 877.8 185.8 L 877.3 185.1 L 877.2 184.4 L 877.2 184.0 L 877.7 183.2 L 878.2 182.9 L 879.1 182.5 L 880.0 182.7 L 880.7 183.2 L 881.3 183.9 L 881.6 184.8 L 881.5 185.2 L 881.2 185.8 M 871.8 181.8 L 873.6 184.2 L 875.9 182.8 L 875.5 182.7 L 874.7 182.2 L 874.2 181.5 L 873.9 180.6 L 874.0 179.8 L 874.5 179.0 L 875.0 178.6 L 875.9 178.3 L 876.7 178.4 L 877.5 178.9 L 878.1 179.7 L 878.4 180.6 L 878.3 181.0 L 878.0 181.6 M 847.5 50.2 L 848.2 49.5 L 849.0 49.2 L 849.9 49.3 L 850.2 49.5 L 850.9 50.1 L 851.2 50.9 L 851.1 51.9 L 850.9 52.1 L 850.3 52.8 L 849.5 53.1 L 848.5 53.0 L 848.3 52.9 L 847.6 52.2 L 847.3 51.4 L 847.5 50.2 L 848.1 48.9 L 849.0 47.6 L 850.0 47.1 L 850.9 47.2 L 851.4 47.4 L 852.1 48.1 L 852.2 48.7 M 835.7 266.3 L 839.0 266.8 L 836.8 268.9 L 837.7 269.0 L 838.3 269.4 L 838.5 269.8 L 838.7 270.7 L 838.6 271.3 L 838.2 272.1 L 837.5 272.6 L 836.5 272.8 L 835.6 272.7 L 834.8 272.2 L 834.5 271.9 L 834.3 271.3 M 841.0 267.1 L 844.2 267.6 L 842.1 269.7 L 843.0 269.9 L 843.5 270.2 L 843.8 270.6 L 844.0 271.5 L 843.9 272.1 L 843.4 273.0 L 842.7 273.5 L 841.8 273.6 L 840.9 273.5 L 840.1 273.0 L 839.8 272.7 L 839.6 272.1 M 659.7 308.6 L 659.9 308.4 L 660.6 308.2 L 661.0 308.2 L 661.6 308.5 L 662.4 309.4 L 662.5 310.1 L 662.5 310.5 L 662.3 311.1 L 661.8 311.5 L 661.1 311.7 L 660.1 311.8 L 655.8 311.5 L 658.6 314.7 M 666.7 314.5 L 660.0 316.3 M 664.0 311.3 L 666.7 314.5 M 674.0 270.8 L 674.1 271.0 L 674.0 271.7 L 673.8 272.1 L 673.3 272.6 L 672.1 272.9 L 671.5 272.8 L 671.1 272.6 L 670.6 272.2 L 670.4 271.6 L 670.5 270.9 L 670.8 269.9 L 672.8 266.1 L 668.8 267.4 M 666.2 274.8 L 669.1 273.9 L 668.5 271.3 L 668.3 271.6 L 667.6 272.2 L 666.7 272.5 L 665.8 272.5 L 665.0 272.1 L 664.4 271.3 L 664.3 270.7 L 664.3 269.8 L 664.7 269.0 L 665.4 268.5 L 666.3 268.2 L 667.2 268.2 L 667.6 268.4 L 668.1 268.9 M 812.7 44.8 L 815.7 45.0 L 816.2 42.3 L 815.9 42.6 L 815.0 42.8 L 814.1 42.8 L 813.2 42.4 L 812.6 41.8 L 812.4 40.9 L 812.4 40.3 L 812.8 39.4 L 813.4 38.8 L 814.3 38.6 L 815.2 38.7 L 816.1 39.0 L 816.4 39.3 L 816.6 39.9 M 868.1 137.2 L 870.5 139.5 L 867.5 140.0 L 868.2 140.6 L 868.4 141.3 L 868.4 141.7 L 868.0 142.5 L 867.6 143.0 L 866.8 143.4 L 865.9 143.4 L 865.1 143.0 L 864.4 142.4 L 864.0 141.6 L 863.9 141.2 L 864.1 140.5 M 874.1 143.0 L 872.0 140.9 L 869.9 142.7 L 870.3 142.6 L 871.2 143.0 L 871.8 143.7 L 872.3 144.5 L 872.3 145.4 L 871.9 146.2 L 871.5 146.6 L 870.6 147.1 L 869.8 147.1 L 868.9 146.7 L 868.3 146.1 L 867.8 145.3 L 867.8 144.8 L 868.0 144.2 M 884.6 89.1 L 884.0 88.7 L 882.8 88.5 L 887.9 84.9 M 881.6 87.2 L 879.7 84.5 L 882.7 84.6 L 882.2 83.9 L 882.1 83.2 L 882.1 82.8 L 882.7 82.0 L 883.2 81.7 L 884.1 81.4 L 884.9 81.6 L 885.7 82.1 L 886.2 82.9 L 886.5 83.8 L 886.4 84.2 L 886.1 84.8 M 943.8 199.3 L 941.4 201.5 L 941.0 198.6 L 940.4 199.2 L 939.7 199.4 L 939.3 199.4 L 938.5 198.9 L 938.1 198.5 L 937.7 197.6 L 937.7 196.8 L 938.1 195.9 L 938.8 195.3 L 939.7 194.9 L 940.1 194.9 L 940.7 195.2 M 936.0 203.7 L 935.6 202.8 L 935.7 202.0 L 936.1 201.1 L 936.3 200.9 L 937.2 200.5 L 938.0 200.6 L 938.9 201.0 L 939.1 201.2 L 939.5 202.1 L 939.4 202.9 L 939.0 203.8 L 938.8 204.0 L 937.9 204.4 L 937.1 204.4 L 936.0 203.7 L 935.0 202.6 L 934.2 201.3 L 934.0 200.2 L 934.5 199.4 L 934.9 199.0 L 935.8 198.6 L 936.4 198.8 M 1031.8 241.5 L 1036.4 243.9 L 1035.8 239.4 M 1031.8 241.5 L 1038.1 240.6 M 1031.0 235.8 L 1035.6 238.2 L 1034.9 233.7 M 1031.0 235.8 L 1037.2 234.9 M 1018.7 268.6 L 1014.7 271.9 L 1019.1 273.0 M 1018.7 268.6 L 1017.1 274.7 M 1021.4 270.9 L 1021.4 270.6 L 1021.9 270.1 L 1022.2 269.9 L 1022.9 269.7 L 1024.1 270.0 L 1024.6 270.5 L 1024.8 270.8 L 1024.9 271.5 L 1024.8 272.1 L 1024.3 272.6 L 1023.5 273.3 L 1019.9 275.5 L 1024.0 276.5 M 998.8 301.5 L 1003.9 302.1 L 1001.8 298.1 M 998.8 301.5 L 1004.3 298.5 M 998.7 297.9 L 998.4 298.1 L 997.7 298.1 L 997.3 298.0 L 996.8 297.6 L 996.2 296.5 L 996.2 295.9 L 996.3 295.4 L 996.7 294.9 L 997.2 294.6 L 997.9 294.6 L 999.0 294.7 L 1003.0 295.9 L 1001.1 292.2 M 972.3 337.0 L 971.7 342.1 L 975.6 339.9 M 972.3 337.0 L 975.4 342.5 M 975.1 335.4 L 978.0 333.8 L 977.6 336.8 L 978.4 336.3 L 979.1 336.3 L 979.5 336.4 L 980.2 337.1 L 980.5 337.6 L 980.7 338.5 L 980.4 339.3 L 979.8 340.0 L 979.0 340.5 L 978.1 340.7 L 977.7 340.5 L 977.1 340.2 M 700.5 123.8 L 700.2 123.8 L 699.6 123.4 L 699.3 123.1 L 699.1 122.5 L 699.3 121.3 L 699.6 120.7 L 700.0 120.5 L 700.6 120.2 L 701.2 120.3 L 701.8 120.7 L 702.6 121.4 L 705.2 124.7 L 705.7 120.6 M 699.8 117.2 L 700.0 118.1 L 700.5 118.5 L 701.1 118.5 L 701.8 118.3 L 702.1 117.7 L 702.6 116.6 L 703.0 115.7 L 703.7 115.2 L 704.3 115.0 L 705.2 115.1 L 705.7 115.5 L 706.0 115.8 L 706.2 116.7 L 706.0 117.9 L 705.6 118.8 L 705.3 119.0 L 704.7 119.3 L 703.8 119.2 L 703.2 118.8 L 702.7 118.1 L 702.5 117.2 L 702.4 116.0 L 702.1 115.3 L 701.6 115.0 L 701.0 114.9 L 700.3 115.1 L 699.9 116.0 L 699.8 117.3 M 674.8 50.0 L 673.7 53.1 L 672.1 50.6 L 671.8 51.4 L 671.3 51.9 L 670.9 52.1 L 669.9 52.0 L 669.4 51.8 L 668.6 51.3 L 668.3 50.5 L 668.3 49.5 L 668.6 48.7 L 669.2 47.9 L 669.6 47.8 L 670.2 47.7 M 672.6 56.1 L 672.6 55.2 L 672.0 54.3 L 670.7 53.5 L 669.8 53.2 L 668.3 53.0 L 667.3 53.3 L 666.7 54.0 L 666.5 54.6 L 666.5 55.5 L 667.1 56.4 L 668.4 57.2 L 669.3 57.5 L 670.8 57.7 L 671.8 57.4 L 672.4 56.7 L 672.6 56.3 M 690.1 59.4 L 688.2 56.7 L 691.2 56.8 L 690.6 56.0 L 690.5 55.4 L 690.6 54.9 L 691.2 54.2 L 691.7 53.8 L 692.6 53.6 L 693.4 53.7 L 694.2 54.3 L 694.7 55.0 L 695.0 55.9 L 694.9 56.3 L 694.6 56.9 M 688.5 54.7 L 687.9 54.4 L 686.7 54.2 L 691.8 50.6 M 730.1 413.1 L 728.9 418.1 L 733.1 416.4 M 730.1 413.1 L 732.5 418.9 M 736.4 410.6 L 736.0 417.6 M 732.5 412.2 L 736.4 410.6 M 647.7 369.7 L 647.8 370.0 L 647.6 370.6 L 647.4 371.0 L 646.8 371.4 L 645.6 371.6 L 645.0 371.5 L 644.6 371.2 L 644.2 370.7 L 644.1 370.1 L 644.3 369.5 L 644.7 368.5 L 647.0 364.9 L 642.9 365.8 M 639.1 373.0 L 640.8 366.2 M 643.2 372.1 L 639.1 373.0 M 614.1 391.2 L 609.0 390.9 L 611.4 394.7 M 614.1 391.2 L 608.8 394.6 M 617.5 396.4 L 615.8 393.9 L 613.4 395.1 L 613.8 395.2 L 614.6 395.8 L 615.0 396.6 L 615.3 397.5 L 615.1 398.3 L 614.5 399.0 L 614.0 399.4 L 613.1 399.6 L 612.2 399.4 L 611.5 398.8 L 611.0 398.1 L 610.8 397.2 L 610.9 396.7 L 611.2 396.2 M 658.9 546.9 L 655.3 550.6 L 659.7 551.3 M 658.9 546.9 L 657.9 553.2 M 663.0 547.6 L 662.1 547.8 L 661.7 548.3 L 661.6 548.9 L 661.8 549.6 L 662.3 550.0 L 663.5 550.5 L 664.3 550.9 L 664.8 551.6 L 665.0 552.2 L 664.9 553.1 L 664.5 553.7 L 664.1 553.9 L 663.2 554.1 L 662.0 553.9 L 661.2 553.4 L 660.9 553.1 L 660.7 552.4 L 660.9 551.6 L 661.2 551.0 L 661.9 550.5 L 662.9 550.4 L 664.1 550.3 L 664.7 550.1 L 665.1 549.5 L 665.2 548.9 L 665.0 548.3 L 664.2 547.8 L 662.9 547.6 M 857.3 437.6 L 854.0 437.2 L 856.1 435.1 L 855.2 434.9 L 854.6 434.6 L 854.4 434.2 L 854.2 433.3 L 854.3 432.7 L 854.7 431.9 L 855.3 431.3 L 856.3 431.1 L 857.2 431.2 L 858.0 431.7 L 858.3 432.0 L 858.5 432.6 M 851.1 436.9 L 852.0 436.7 L 852.4 436.1 L 852.5 435.5 L 852.2 434.9 L 851.7 434.5 L 850.5 434.1 L 849.7 433.7 L 849.1 433.0 L 848.9 432.4 L 849.0 431.5 L 849.4 430.9 L 849.7 430.7 L 850.7 430.5 L 851.8 430.6 L 852.7 431.0 L 853.0 431.4 L 853.2 432.0 L 853.1 432.9 L 852.7 433.4 L 852.1 434.0 L 851.1 434.2 L 849.9 434.3 L 849.3 434.5 L 848.9 435.1 L 848.8 435.7 L 849.1 436.3 L 849.9 436.7 L 851.2 436.9 M 882.4 561.7 L 882.8 558.7 L 880.2 558.0 L 880.4 558.4 L 880.6 559.3 L 880.5 560.2 L 880.0 561.0 L 879.4 561.5 L 878.4 561.7 L 877.8 561.6 L 877.0 561.2 L 876.5 560.5 L 876.3 559.6 L 876.4 558.7 L 876.9 557.8 L 877.2 557.6 L 877.9 557.4 M 880.5 563.7 L 880.8 563.7 L 881.4 564.1 L 881.6 564.5 L 881.8 565.1 L 881.7 566.3 L 881.3 566.8 L 880.9 567.1 L 880.3 567.3 L 879.7 567.2 L 879.2 566.8 L 878.4 566.1 L 875.8 562.7 L 875.2 566.8 M 757.0 464.2 L 754.3 462.9 L 752.9 465.2 L 753.3 465.0 L 754.2 465.1 L 755.0 465.5 L 755.7 466.2 L 756.0 467.0 L 755.9 467.9 L 755.6 468.5 L 754.9 469.2 L 754.1 469.4 L 753.2 469.3 L 752.4 468.9 L 751.7 468.3 L 751.6 467.9 L 751.5 467.2 M 760.2 465.7 L 759.3 465.6 L 758.3 466.1 L 757.4 467.4 L 757.0 468.2 L 756.6 469.6 L 756.8 470.7 L 757.5 471.4 L 758.0 471.6 L 759.0 471.8 L 759.9 471.2 L 760.8 470.0 L 761.2 469.2 L 761.6 467.7 L 761.4 466.6 L 760.7 466.0 L 760.3 465.8 M 751.5 435.5 L 750.5 430.4 L 747.4 433.7 M 751.5 435.5 L 746.9 431.2 M 746.9 440.3 L 744.3 433.8 M 749.7 437.3 L 746.9 440.3 M 782.3 523.2 L 783.5 520.5 L 781.2 519.1 L 781.3 519.5 L 781.2 520.5 L 780.9 521.3 L 780.2 522.0 L 779.4 522.3 L 778.5 522.2 L 777.9 521.9 L 777.2 521.3 L 776.9 520.5 L 777.0 519.5 L 777.4 518.7 L 778.1 518.0 L 778.5 517.9 L 779.1 517.9 M 780.3 524.2 L 780.3 524.8 L 780.8 526.0 L 775.1 523.4 M 838.5 539.4 L 836.1 541.2 L 837.5 543.5 L 837.5 543.1 L 838.1 542.3 L 838.8 541.7 L 839.7 541.4 L 840.5 541.6 L 841.3 542.1 L 841.7 542.6 L 842.0 543.5 L 841.9 544.3 L 841.3 545.1 L 840.6 545.6 L 839.7 545.9 L 839.3 545.9 L 838.7 545.6 M 841.2 539.2 L 841.0 538.9 L 840.9 538.3 L 840.9 537.9 L 841.2 537.3 L 842.2 536.5 L 842.9 536.4 L 843.3 536.5 L 843.9 536.8 L 844.2 537.2 L 844.4 537.9 L 844.4 539.0 L 843.9 543.2 L 847.2 540.6 M 759.8 586.0 L 760.0 586.6 L 760.7 587.7 L 754.5 586.4 M 759.3 588.5 L 759.5 589.2 L 760.2 590.2 L 754.0 589.0 M 764.6 618.6 L 765.3 618.5 L 766.4 617.9 L 764.6 623.9 M 771.4 619.2 L 766.8 624.3 M 767.4 618.0 L 771.4 619.2 M 808.5 610.8 L 809.1 613.7 L 811.8 613.5 L 811.4 613.3 L 810.9 612.4 L 810.8 611.6 L 810.9 610.6 L 811.3 609.9 L 812.2 609.4 L 812.7 609.3 L 813.7 609.4 L 814.4 609.9 L 814.9 610.7 L 815.1 611.6 L 814.9 612.5 L 814.7 612.9 L 814.2 613.3 M 808.0 608.5 L 807.3 605.3 L 810.0 606.6 L 809.9 605.7 L 810.0 605.0 L 810.3 604.7 L 811.1 604.2 L 811.7 604.1 L 812.6 604.2 L 813.3 604.7 L 813.8 605.5 L 814.0 606.4 L 813.9 607.3 L 813.6 607.7 L 813.1 608.1 M 805.6 629.3 L 802.8 628.4 L 801.7 630.9 L 802.1 630.7 L 803.0 630.7 L 803.9 631.0 L 804.7 631.5 L 805.1 632.2 L 805.1 633.2 L 805.0 633.8 L 804.4 634.5 L 803.7 634.9 L 802.7 635.0 L 801.9 634.7 L 801.1 634.2 L 800.9 633.8 L 800.8 633.2 M 810.3 630.6 L 806.3 633.8 L 810.6 635.0 M 810.3 630.6 L 808.6 636.6 M 898.8 623.0 L 896.5 621.1 L 894.5 622.9 L 894.9 622.9 L 895.8 623.3 L 896.5 623.8 L 897.0 624.7 L 897.0 625.5 L 896.7 626.4 L 896.3 626.8 L 895.5 627.3 L 894.6 627.4 L 893.7 627.0 L 893.1 626.4 L 892.6 625.6 L 892.5 625.2 L 892.7 624.5 M 900.5 624.6 L 903.0 626.7 L 900.1 627.4 L 900.8 628.0 L 901.0 628.6 L 901.1 629.0 L 900.7 629.9 L 900.3 630.3 L 899.5 630.8 L 898.7 630.9 L 897.8 630.5 L 897.1 629.9 L 896.6 629.1 L 896.6 628.7 L 896.7 628.0 M 960.1 603.6 L 962.0 605.8 L 964.3 604.3 L 963.9 604.2 L 963.0 603.8 L 962.5 603.1 L 962.1 602.2 L 962.2 601.4 L 962.6 600.5 L 963.1 600.1 L 964.0 599.8 L 964.8 599.8 L 965.6 600.3 L 966.2 601.0 L 966.6 601.9 L 966.5 602.3 L 966.3 602.9 M 956.3 599.2 L 963.0 597.3 M 959.0 602.3 L 956.3 599.2 M 951.7 633.1 L 949.0 634.2 L 949.7 636.8 L 949.9 636.4 L 950.6 635.8 L 951.4 635.5 L 952.4 635.4 L 953.1 635.7 L 953.8 636.5 L 954.0 637.0 L 954.0 638.0 L 953.7 638.7 L 953.0 639.4 L 952.2 639.7 L 951.2 639.7 L 950.8 639.6 L 950.3 639.1 M 957.0 631.9 L 956.5 631.4 L 955.6 631.5 L 955.0 631.7 L 954.3 632.3 L 954.1 633.4 L 954.4 634.9 L 954.9 636.3 L 955.7 637.3 L 956.4 637.6 L 957.4 637.6 L 957.7 637.5 L 958.4 636.8 L 958.7 636.1 L 958.7 635.1 L 958.6 634.8 L 957.9 634.1 L 957.2 633.8 L 956.2 633.8 L 955.9 634.0 L 955.2 634.6 L 954.9 635.4 L 954.9 636.3 M 956.1 467.4 L 954.4 469.9 L 956.5 471.6 L 956.4 471.2 L 956.7 470.3 L 957.2 469.5 L 957.9 468.9 L 958.8 468.8 L 959.7 469.0 L 960.2 469.3 L 960.8 470.1 L 960.9 470.9 L 960.7 471.8 L 960.2 472.6 L 959.4 473.2 L 959.0 473.3 L 958.4 473.2 M 957.9 464.6 L 957.7 465.6 L 958.0 466.1 L 958.5 466.5 L 959.2 466.6 L 959.7 466.2 L 960.6 465.4 L 961.4 464.8 L 962.2 464.6 L 962.9 464.7 L 963.6 465.2 L 964.0 465.8 L 964.1 466.2 L 963.8 467.1 L 963.1 468.1 L 962.4 468.7 L 962.0 468.8 L 961.3 468.7 L 960.6 468.2 L 960.2 467.6 L 960.1 466.8 L 960.3 465.9 L 960.7 464.7 L 960.8 464.1 L 960.5 463.5 L 960.0 463.1 L 959.3 463.1 L 958.6 463.6 L 957.8 464.8 M 935.8 448.4 L 939.4 444.7 L 935.0 444.0 M 935.8 448.4 L 936.8 442.2 M 932.7 447.9 L 929.4 447.4 L 931.5 445.3 L 930.6 445.1 L 930.1 444.7 L 929.8 444.4 L 929.7 443.5 L 929.7 442.9 L 930.2 442.0 L 930.9 441.5 L 931.8 441.4 L 932.7 441.5 L 933.5 441.9 L 933.8 442.3 L 934.0 442.9 M 979.4 493.0 L 982.3 492.0 L 981.7 489.4 L 981.5 489.8 L 980.8 490.3 L 979.9 490.6 L 979.0 490.6 L 978.2 490.2 L 977.7 489.5 L 977.5 488.9 L 977.5 487.9 L 977.9 487.2 L 978.6 486.6 L 979.5 486.3 L 980.4 486.3 L 980.8 486.5 L 981.3 487.0 M 976.4 494.0 L 977.1 493.4 L 977.2 492.8 L 977.0 492.2 L 976.6 491.7 L 975.9 491.6 L 974.7 491.7 L 973.7 491.7 L 973.0 491.3 L 972.5 490.8 L 972.2 490.0 L 972.3 489.3 L 972.5 489.0 L 973.3 488.4 L 974.4 488.0 L 975.3 488.0 L 975.7 488.2 L 976.2 488.7 L 976.5 489.5 L 976.4 490.2 L 976.0 491.0 L 975.2 491.5 L 974.2 492.2 L 973.7 492.7 L 973.6 493.3 L 973.8 493.9 L 974.3 494.4 L 975.2 494.4 L 976.5 493.9 M 977.2 560.2 L 974.2 560.2 L 973.8 562.9 L 974.2 562.6 L 975.1 562.3 L 976.0 562.3 L 976.9 562.6 L 977.4 563.2 L 977.7 564.2 L 977.7 564.8 L 977.4 565.6 L 976.8 566.2 L 975.9 566.5 L 975.0 566.5 L 974.1 566.2 L 973.8 565.9 L 973.5 565.3 M 983.0 560.4 L 979.9 566.6 M 978.8 560.3 L 983.0 560.4 M 1002.3 526.8 L 1006.9 529.1 L 1006.2 524.6 M 1002.3 526.8 L 1008.5 525.8 M 1001.4 521.1 L 1006.0 523.4 L 1005.3 518.9 M 1001.4 521.1 L 1007.6 520.1 M 907.6 338.4 L 910.5 340.0 L 907.8 341.2 L 908.5 341.7 L 908.9 342.2 L 909.0 342.6 L 908.8 343.6 L 908.6 344.1 L 907.8 344.7 L 907.0 344.9 L 906.1 344.7 L 905.3 344.3 L 904.7 343.6 L 904.6 343.2 L 904.6 342.5 M 913.1 341.5 L 912.2 341.3 L 911.6 341.7 L 911.3 342.2 L 911.3 342.9 L 911.6 343.4 L 912.5 344.3 L 913.2 345.0 L 913.4 345.8 L 913.4 346.5 L 912.9 347.2 L 912.3 347.6 L 911.9 347.7 L 911.0 347.5 L 910.0 346.9 L 909.3 346.2 L 909.2 345.8 L 909.3 345.2 L 909.7 344.4 L 910.3 344.0 L 911.1 343.8 L 912.0 344.0 L 913.2 344.3 L 913.9 344.3 L 914.4 344.0 L 914.7 343.4 L 914.8 342.8 L 914.1 342.1 L 913.0 341.4 M 891.8 304.1 L 891.0 307.3 L 889.1 304.9 L 888.9 305.8 L 888.4 306.3 L 888.1 306.5 L 887.1 306.6 L 886.5 306.4 L 885.7 305.9 L 885.3 305.2 L 885.3 304.2 L 885.5 303.4 L 886.0 302.6 L 886.4 302.4 L 887.0 302.2 M 889.6 312.6 L 884.2 308.1 M 890.6 308.5 L 889.6 312.6 M 828.7 405.9 L 831.3 403.9 L 831.4 406.9 L 832.1 406.3 L 832.7 406.2 L 833.1 406.2 L 833.9 406.7 L 834.3 407.2 L 834.6 408.1 L 834.5 409.0 L 834.0 409.7 L 833.3 410.3 L 832.4 410.6 L 832.0 410.6 L 831.4 410.3 M 835.6 400.5 L 837.1 407.3 M 832.3 403.1 L 835.6 400.5 M 838.6 351.5 L 837.9 348.3 L 840.6 349.5 L 840.4 348.7 L 840.6 348.0 L 840.8 347.7 L 841.6 347.2 L 842.2 347.0 L 843.1 347.1 L 843.9 347.6 L 844.3 348.4 L 844.5 349.3 L 844.4 350.2 L 844.2 350.6 L 843.7 351.0 M 837.4 346.3 L 836.7 343.1 L 839.4 344.3 L 839.2 343.5 L 839.4 342.8 L 839.6 342.5 L 840.4 342.0 L 841.0 341.8 L 842.0 341.9 L 842.7 342.4 L 843.2 343.2 L 843.4 344.1 L 843.3 345.0 L 843.1 345.4 L 842.5 345.8 M 816.5 317.5 L 813.7 319.3 L 813.9 316.3 L 813.2 316.8 L 812.5 316.9 L 812.1 316.8 L 811.3 316.2 L 811.0 315.7 L 810.8 314.8 L 810.9 314.0 L 811.5 313.2 L 812.3 312.7 L 813.2 312.5 L 813.6 312.6 L 814.2 312.9 M 811.2 319.1 L 811.4 319.4 L 811.5 320.0 L 811.4 320.5 L 811.0 321.0 L 810.0 321.7 L 809.4 321.8 L 809.0 321.7 L 808.4 321.3 L 808.0 320.8 L 808.0 320.2 L 808.0 319.1 L 808.9 314.9 L 805.4 317.2 M 581.0 444.8 L 581.3 444.9 L 581.8 445.2 L 582.1 445.5 L 582.4 446.1 L 582.3 447.3 L 582.0 447.9 L 581.7 448.2 L 581.1 448.5 L 580.5 448.4 L 579.9 448.1 L 579.0 447.5 L 576.2 444.3 L 576.0 448.5 M 581.1 453.5 L 581.7 453.2 L 582.1 452.4 L 582.1 451.8 L 581.9 450.9 L 581.0 450.2 L 579.5 449.8 L 578.0 449.8 L 576.8 450.0 L 576.2 450.6 L 575.8 451.4 L 575.8 451.7 L 576.1 452.7 L 576.6 453.3 L 577.5 453.6 L 577.8 453.7 L 578.7 453.4 L 579.4 452.8 L 579.7 451.9 L 579.7 451.6 L 579.5 450.7 L 578.9 450.1 L 578.0 449.8 M 597.8 413.9 L 602.6 412.1 L 598.9 409.6 M 597.8 413.9 L 601.3 408.7 M 592.7 410.4 L 595.2 412.1 L 596.9 410.0 L 596.5 410.1 L 595.6 409.8 L 594.8 409.3 L 594.3 408.5 L 594.1 407.7 L 594.4 406.8 L 594.7 406.3 L 595.5 405.7 L 596.3 405.6 L 597.2 405.8 L 598.0 406.3 L 598.5 407.1 L 598.6 407.5 L 598.5 408.2 M 707.5 528.0 L 705.8 530.5 L 707.9 532.3 L 707.8 531.9 L 708.1 531.0 L 708.6 530.2 L 709.3 529.6 L 710.1 529.5 L 711.1 529.7 L 711.5 530.0 L 712.1 530.8 L 712.3 531.6 L 712.0 532.5 L 711.5 533.3 L 710.8 533.9 L 710.4 534.0 L 709.7 533.9 M 709.6 527.4 L 709.7 526.8 L 709.4 525.5 L 714.6 529.0 M 713.0 471.8 L 714.2 474.5 L 716.8 473.7 L 716.4 473.5 L 715.8 472.8 L 715.4 472.0 L 715.3 471.1 L 715.7 470.3 L 716.4 469.7 L 716.9 469.4 L 717.8 469.3 L 718.6 469.6 L 719.3 470.3 L 719.6 471.1 L 719.7 472.1 L 719.6 472.5 L 719.2 473.0 M 711.6 468.5 L 712.2 469.2 L 713.3 469.4 L 714.8 469.1 L 715.6 468.7 L 716.9 467.8 L 717.4 466.9 L 717.4 466.0 L 717.1 465.4 L 716.5 464.7 L 715.4 464.5 L 713.9 464.9 L 713.1 465.2 L 711.8 466.1 L 711.3 467.0 L 711.3 468.0 L 711.5 468.4 M 917.4 155.2 L 919.9 153.0 L 920.2 156.0 L 920.8 155.4 L 921.5 155.2 L 921.9 155.3 L 922.7 155.7 L 923.1 156.2 L 923.5 157.0 L 923.5 157.9 L 923.0 158.7 L 922.3 159.3 L 921.5 159.7 L 921.0 159.7 L 920.4 159.4 M 925.3 151.0 L 925.7 151.9 L 925.6 152.7 L 925.2 153.6 L 924.9 153.8 L 924.1 154.1 L 923.2 154.1 L 922.4 153.6 L 922.2 153.4 L 921.8 152.5 L 921.9 151.7 L 922.3 150.8 L 922.5 150.6 L 923.4 150.3 L 924.3 150.3 L 925.3 151.0 L 926.3 152.1 L 927.1 153.4 L 927.2 154.5 L 926.8 155.3 L 926.3 155.7 L 925.4 156.1 L 924.8 155.9 M 928.3 101.8 L 928.0 102.4 L 928.0 103.7 L 923.6 99.2 M 926.3 105.7 L 926.7 104.8 L 926.5 104.2 L 926.1 103.8 L 925.5 103.5 L 924.8 103.7 L 923.7 104.4 L 922.9 104.8 L 922.0 104.8 L 921.4 104.5 L 920.8 103.9 L 920.6 103.2 L 920.6 102.8 L 921.0 102.0 L 921.9 101.1 L 922.7 100.7 L 923.2 100.7 L 923.8 101.0 L 924.4 101.6 L 924.6 102.3 L 924.6 103.1 L 924.2 103.9 L 923.5 105.0 L 923.3 105.6 L 923.5 106.3 L 923.9 106.7 L 924.5 106.9 L 925.4 106.5 L 926.4 105.6 M 960.6 79.7 L 960.8 79.9 L 960.8 80.6 L 960.7 81.0 L 960.4 81.6 L 959.3 82.2 L 958.6 82.2 L 958.2 82.1 L 957.7 81.7 L 957.4 81.2 L 957.3 80.5 L 957.4 79.4 L 958.5 75.4 L 954.9 77.4 M 954.3 85.1 L 954.8 80.0 L 950.9 82.2 M 954.3 85.1 L 951.2 79.6 M 601.7 575.1 L 603.9 579.7 L 606.1 575.8 M 601.7 575.1 L 607.2 578.1 M 606.7 570.4 L 607.3 571.1 L 607.6 571.9 L 607.4 572.8 L 607.3 573.1 L 606.6 573.7 L 605.8 574.0 L 604.8 573.8 L 604.6 573.7 L 603.9 573.0 L 603.7 572.1 L 603.8 571.2 L 604.0 570.9 L 604.7 570.3 L 605.5 570.1 L 606.7 570.4 L 608.0 571.1 L 609.2 572.1 L 609.7 573.0 L 609.5 574.0 L 609.2 574.5 L 608.5 575.1 L 607.9 575.1 M 574.0 576.8 L 574.7 576.9 L 576.0 576.8 L 571.9 581.6 M 567.7 534.8 L 566.3 537.8 L 564.9 535.1 L 564.5 535.9 L 564.0 536.4 L 563.6 536.5 L 562.7 536.4 L 562.1 536.1 L 561.4 535.5 L 561.2 534.7 L 561.3 533.7 L 561.7 532.9 L 562.3 532.2 L 562.7 532.1 L 563.4 532.1 M 564.9 540.7 L 565.0 539.8 L 564.5 538.8 L 563.2 537.9 L 562.4 537.5 L 560.9 537.2 L 559.9 537.3 L 559.2 538.0 L 559.0 538.5 L 558.8 539.5 L 559.4 540.4 L 560.6 541.3 L 561.4 541.7 L 562.9 542.1 L 564.0 541.9 L 564.6 541.3 L 564.8 540.9 M 763.6 43.0 L 763.6 43.3 L 763.3 43.9 L 763.1 44.2 L 762.5 44.5 L 761.3 44.6 L 760.7 44.3 L 760.3 44.0 L 760.0 43.4 L 760.0 42.8 L 760.3 42.2 L 760.9 41.3 L 763.8 38.2 L 759.6 38.3 M 748.8 59.5 L 750.2 62.4 L 747.3 61.8 L 747.7 62.6 L 747.6 63.3 L 747.5 63.7 L 746.8 64.4 L 746.3 64.6 L 745.3 64.7 L 744.5 64.4 L 743.9 63.7 L 743.5 62.9 L 743.4 62.0 L 743.5 61.6 L 743.9 61.0 M 749.5 64.3 L 750.0 64.7 L 751.2 65.1 L 745.5 67.8 M 975.8 111.4 L 973.2 113.0 L 974.4 115.4 L 974.5 115.0 L 975.1 114.3 L 975.8 113.8 L 976.8 113.6 L 977.6 113.8 L 978.3 114.4 L 978.6 114.9 L 978.8 115.9 L 978.6 116.7 L 978.0 117.4 L 977.3 117.9 L 976.3 118.1 L 975.9 118.0 L 975.4 117.6 M 980.3 108.6 L 977.8 110.2 L 978.9 112.7 L 979.0 112.3 L 979.6 111.5 L 980.4 111.1 L 981.3 110.8 L 982.1 111.0 L 982.9 111.7 L 983.2 112.2 L 983.4 113.1 L 983.2 113.9 L 982.6 114.6 L 981.8 115.1 L 980.9 115.3 L 980.5 115.2 L 979.9 114.9 M 1009.7 80.1 L 1008.7 82.9 L 1011.1 84.1 L 1011.0 83.7 L 1011.0 82.8 L 1011.3 81.9 L 1011.8 81.2 L 1012.6 80.8 L 1013.6 80.8 L 1014.1 81.0 L 1014.9 81.6 L 1015.2 82.4 L 1015.2 83.3 L 1014.9 84.2 L 1014.4 84.9 L 1014.0 85.1 L 1013.3 85.2 M 1011.2 75.5 L 1014.2 79.7 L 1015.7 75.4 M 1011.2 75.5 L 1017.2 77.5 M 1003.8 70.5 L 1003.8 70.8 L 1003.5 71.4 L 1003.2 71.7 L 1002.6 72.0 L 1001.4 72.1 L 1000.8 71.8 L 1000.5 71.5 L 1000.2 70.9 L 1000.2 70.3 L 1000.5 69.7 L 1001.0 68.8 L 1003.9 65.7 L 999.7 65.8 M 998.2 70.7 L 998.2 71.0 L 998.0 71.6 L 997.7 71.9 L 997.1 72.2 L 995.9 72.3 L 995.3 72.0 L 995.0 71.7 L 994.6 71.1 L 994.6 70.5 L 994.9 69.9 L 995.5 69.0 L 998.4 65.9 L 994.2 66.0 M 1012.8 160.9 L 1013.9 163.7 L 1016.5 163.0 L 1016.1 162.9 L 1015.5 162.1 L 1015.2 161.3 L 1015.2 160.3 L 1015.6 159.6 L 1016.3 159.0 L 1016.9 158.8 L 1017.8 158.7 L 1018.6 159.1 L 1019.2 159.8 L 1019.5 160.7 L 1019.5 161.6 L 1019.3 162.0 L 1018.9 162.5 M 1011.9 155.5 L 1011.4 156.0 L 1011.4 157.0 L 1011.6 157.5 L 1012.2 158.3 L 1013.3 158.5 L 1014.8 158.3 L 1016.2 157.8 L 1017.2 157.1 L 1017.6 156.3 L 1017.6 155.4 L 1017.4 155.1 L 1016.9 154.4 L 1016.1 154.0 L 1015.1 154.0 L 1014.9 154.1 L 1014.1 154.7 L 1013.8 155.5 L 1013.8 156.4 L 1013.9 156.7 L 1014.5 157.5 L 1015.2 157.8 L 1016.2 157.8 M 990.3 152.1 L 992.3 149.9 L 990.6 147.9 L 990.6 148.3 L 990.2 149.2 L 989.6 149.8 L 988.7 150.3 L 987.9 150.3 L 987.0 149.9 L 986.6 149.5 L 986.1 148.7 L 986.1 147.8 L 986.5 147.0 L 987.1 146.3 L 987.9 145.9 L 988.4 145.8 L 989.0 146.0 M 986.7 156.0 L 988.7 153.9 L 986.9 151.8 L 986.9 152.2 L 986.5 153.1 L 985.9 153.7 L 985.1 154.2 L 984.3 154.2 L 983.4 153.8 L 983.0 153.4 L 982.5 152.6 L 982.5 151.7 L 982.9 150.9 L 983.5 150.2 L 984.3 149.8 L 984.7 149.7 L 985.4 149.9"
       id="nums_002"
       stroke="black"
       stroke-width="1" />
    <path
       d="m 823.4,643 -36.7,-10.6 -40.8,-12.3 13.4,-66.1 29.6,-65.4 -68,-32.6 45.6,-48.8 -61.8,25.3 30.5,68.9 -39.9,59.8 -70.4,-11.3 -29.5,53.9 -49.7,-42.1 25.2,-52.6 6.1,-119.4 46.8,31.8 -30.6,-47.5 96.7,-19.9 -64.3,-74.9 83.2,-26.8 -68,-54.8 14.9,-118.6 19.6,-55 37.7,53.7 -10.5,84.2 54.5,-65 -27.5,-59.6 63.6,-2 42.4,2.6 31.9,14.7 41.1,58.7 24.4,-23.5 40.1,-23 51.4,-1.7 -12.6,36 -60.7,37 -49.4,44.4 -71.9,-68.2 -74.4,76.9 95.2,-48.8 60,78.8 48.3,-45.5 48.5,-52 25.3,69.7 13.9,92.9 -55.1,-14.1 26.9,50.2 -79.7,45.2 -62.3,-35.5 12.5,-47.3 -99.8,-15.3 -7.6,62.8 53.1,-34.3 22.1,98.5 -38.6,30.1 71.2,8.5 90.6,13.4 -32,48.2 54.9,-18.1 14.6,92.8 -77.6,-1.8 50.9,58.6 -68.8,27.8 -54.7,-47.3 13.5,-89.1 -71.7,54.5 z"
       id="coupes_002"
       stroke="#ff0000"
       stroke-width="1.27"
       sodipodi:nodetypes="ccccccccccccccccccccccccccccccccccccccccccccccccccccccccccccccccccc" />
    <path
       d="M 640.8 197.6 L 702.5 161.9 M 702.5 161.9 L 708.8 252.4 M 655.7 79.0 L 702.5 161.9 M 702.5 161.9 L 755.4 189.2 M 755.4 189.2 L 708.8 252.4 M 757.0 96.9 L 755.4 189.2 M 755.4 189.2 L 789.1 267.5 M 789.1 267.5 L 708.8 252.4 M 850.6 140.4 L 789.1 267.5 M 781.5 330.3 L 708.8 252.4 M 835.5 37.9 L 829.8 112.3 M 910.6 219.2 L 789.1 267.5 M 867.4 52.6 L 829.8 112.3 M 781.5 330.3 L 689.9 354.1 M 689.9 354.1 L 708.8 252.4 M 757.0 96.9 L 793.1 35.3 M 867.4 52.6 L 901.7 180.5 M 908.5 111.3 L 901.7 180.5 M 910.6 219.2 L 991.5 270.2 M 991.5 270.2 L 888.9 282.8 M 958.9 173.7 L 991.5 270.2 M 958.9 173.7 L 1032.7 191.4 M 1032.7 191.4 L 991.5 270.2 M 991.5 270.2 L 938.7 365.6 M 938.7 365.6 L 888.9 282.8 M 781.5 330.3 L 766.5 407.2 M 766.5 407.2 L 689.9 354.1 M 704.7 432.5 L 689.9 354.1 M 704.7 432.5 L 623.8 421.5 M 623.8 421.5 L 689.9 354.1 M 624.9 549.9 L 623.8 421.5 M 704.7 432.5 L 695.3 561.2 M 781.5 330.3 L 818.1 424.6 M 818.1 424.6 L 766.5 407.2 M 788.9 488.6 L 766.5 407.2 M 889.3 433.1 L 788.9 488.6 M 889.3 433.1 L 880.7 517.6 M 880.7 517.6 L 788.9 488.6 M 889.3 433.1 L 947.9 494.7 M 947.9 494.7 L 880.7 517.6 M 947.9 494.7 L 939.8 567.6 M 939.8 567.6 L 880.7 517.6 M 939.8 567.6 L 867.2 606.7 M 880.7 517.6 L 759.3 554.0 M 809.0 572.1 L 759.3 554.0 M 809.0 572.1 L 745.9 620.1 M 939.8 567.6 L 921.9 654.0 M 781.5 330.3 L 856.7 394.5 M 570.9 509.1 L 623.8 421.5 M 908.5 111.3 L 951.1 136.1 M 932.9 87.8 L 951.1 136.1 M 973.0 64.8 L 951.1 136.1 M 595.4 603.8 L 570.9 509.1 M 973.0 64.8 L 1011.8 99.1"
       id="plisM_002"
       stroke="brown"
       stroke-dasharray="4" />
    <path
       d="M 669.7 177.7 L 673.7 181.7 M 673.7 177.7 L 669.7 181.7 M 703.7 205.2 L 707.7 209.2 M 707.7 205.2 L 703.7 209.2 M 677.1 118.5 L 681.1 122.5 M 681.1 118.5 L 677.1 122.5 M 727.0 173.6 L 731.0 177.6 M 731.0 173.6 L 727.0 177.6 M 730.1 218.8 L 734.1 222.8 M 734.1 218.8 L 730.1 222.8 M 754.2 141.0 L 758.2 145.0 M 758.2 141.0 L 754.2 145.0 M 770.3 226.4 L 774.3 230.4 M 774.3 226.4 L 770.3 230.4 M 747.0 258.0 L 751.0 262.0 M 751.0 258.0 L 747.0 262.0 M 817.9 202.0 L 821.9 206.0 M 821.9 202.0 L 817.9 206.0 M 743.2 289.4 L 747.2 293.4 M 747.2 289.4 L 743.2 293.4 M 830.7 73.1 L 834.7 77.1 M 834.7 73.1 L 830.7 77.1 M 847.9 241.4 L 851.9 245.4 M 851.9 241.4 L 847.9 245.4 M 846.6 80.4 L 850.6 84.4 M 850.6 80.4 L 846.6 84.4 M 733.7 340.2 L 737.7 344.2 M 737.7 340.2 L 733.7 344.2 M 697.4 301.3 L 701.4 305.3 M 701.4 301.3 L 697.4 305.3 M 773.1 64.1 L 777.1 68.1 M 777.1 64.1 L 773.1 68.1 M 882.5 114.5 L 886.5 118.5 M 886.5 114.5 L 882.5 118.5 M 903.1 143.9 L 907.1 147.9 M 907.1 143.9 L 903.1 147.9 M 949.0 242.7 L 953.0 246.7 M 953.0 242.7 L 949.0 246.7 M 938.2 274.5 L 942.2 278.5 M 942.2 274.5 L 938.2 278.5 M 973.2 220.0 L 977.2 224.0 M 977.2 220.0 L 973.2 224.0 M 993.8 180.5 L 997.8 184.5 M 997.8 180.5 L 993.8 184.5 M 1010.1 228.8 L 1014.1 232.8 M 1014.1 228.8 L 1010.1 232.8 M 963.1 315.9 L 967.1 319.9 M 967.1 315.9 L 963.1 319.9 M 911.8 322.2 L 915.8 326.2 M 915.8 322.2 L 911.8 326.2 M 772.0 366.8 L 776.0 370.8 M 776.0 366.8 L 772.0 370.8 M 726.2 378.7 L 730.2 382.7 M 730.2 378.7 L 726.2 382.7 M 695.3 391.3 L 699.3 395.3 M 699.3 391.3 L 695.3 395.3 M 662.2 425.0 L 666.2 429.0 M 666.2 425.0 L 662.2 429.0 M 654.8 385.8 L 658.8 389.8 M 658.8 385.8 L 654.8 389.8 M 622.3 483.7 L 626.3 487.7 M 626.3 483.7 L 622.3 487.7 M 698.0 494.8 L 702.0 498.8 M 702.0 494.8 L 698.0 498.8 M 797.8 375.5 L 801.8 379.5 M 801.8 375.5 L 797.8 379.5 M 790.3 413.9 L 794.3 417.9 M 794.3 413.9 L 790.3 417.9 M 775.7 445.9 L 779.7 449.9 M 779.7 445.9 L 775.7 449.9 M 837.1 458.8 L 841.1 462.8 M 841.1 458.8 L 837.1 462.8 M 883.0 473.4 L 887.0 477.4 M 887.0 473.4 L 883.0 477.4 M 832.8 501.1 L 836.8 505.1 M 836.8 501.1 L 832.8 505.1 M 916.6 461.9 L 920.6 465.9 M 920.6 461.9 L 916.6 465.9 M 912.3 504.2 L 916.3 508.2 M 916.3 504.2 L 912.3 508.2 M 941.8 529.2 L 945.8 533.2 M 945.8 529.2 L 941.8 533.2 M 908.3 540.6 L 912.3 544.6 M 912.3 540.6 L 908.3 544.6 M 901.5 585.2 L 905.5 589.2 M 905.5 585.2 L 901.5 589.2 M 818.0 533.8 L 822.0 537.8 M 822.0 533.8 L 818.0 537.8 M 782.2 561.1 L 786.2 565.1 M 786.2 561.1 L 782.2 565.1 M 775.4 594.1 L 779.4 598.1 M 779.4 594.1 L 775.4 598.1 M 928.9 608.8 L 932.9 612.8 M 932.9 608.8 L 928.9 612.8 M 817.1 360.4 L 821.1 364.4 M 821.1 360.4 L 817.1 364.4 M 595.4 463.3 L 599.4 467.3 M 599.4 463.3 L 595.4 467.3 M 927.8 121.7 L 931.8 125.7 M 931.8 121.7 L 927.8 125.7 M 940.0 110.0 L 944.0 114.0 M 944.0 110.0 L 940.0 114.0 M 960.0 98.5 L 964.0 102.5 M 964.0 98.5 L 960.0 102.5 M 581.2 554.5 L 585.2 558.5 M 585.2 554.5 L 581.2 558.5 M 990.4 80.0 L 994.4 84.0 M 994.4 80.0 L 990.4 84.0"
       display="none"
       id="marqueM_002"
       stroke="brown" />
    <path
       d="M 757.0 96.9 L 829.8 112.3 M 757.0 96.9 L 835.5 37.9 M 910.6 219.2 L 888.9 282.8 M 655.7 79.0 L 713.0 77.7 M 704.7 432.5 L 624.9 549.9 M 818.1 424.6 L 788.9 488.6 M 809.0 572.1 L 786.7 632.4 M 1002.8 476.6 L 939.8 567.6 M 624.9 549.9 L 570.9 509.1"
       id="plisV_002"
       stroke="green"
       stroke-dasharray="4 1 1 1"
       stroke-width="1.27" />
    <path
       d="M 791.4 102.6 L 795.4 106.6 M 795.4 102.6 L 791.4 106.6 M 794.3 65.4 L 798.3 69.4 M 798.3 65.4 L 794.3 69.4 M 897.7 249.0 L 901.7 253.0 M 901.7 249.0 L 897.7 253.0 M 682.3 76.4 L 686.3 80.4 M 686.3 76.4 L 682.3 80.4 M 662.8 489.2 L 666.8 493.2 M 666.8 489.2 L 662.8 493.2 M 801.5 454.6 L 805.5 458.6 M 805.5 454.6 L 801.5 458.6 M 795.9 600.3 L 799.9 604.3 M 799.9 600.3 L 795.9 604.3 M 969.3 520.1 L 973.3 524.1 M 973.3 520.1 L 969.3 524.1 M 595.9 527.5 L 599.9 531.5 M 599.9 527.5 L 595.9 531.5"
       id="marqueV_002"
       stroke="green" />
    <path
       d="M 819.7 331.6 L 819.7 330.9 L 820.5 329.4 L 821.2 328.6 L 822.7 327.9 L 825.7 327.9 L 827.2 328.6 L 828.0 329.4 L 828.7 330.9 L 828.7 332.4 L 828.0 333.9 L 826.5 336.1 L 819.0 343.6 L 829.5 343.6"
       id="titre_2"
       stroke="indigo" />
  </g>
  <g
     id="page_003">
    <path
       d="M 1168.3 243.8 L 1162.5 239.9 M 1168.9 239.7 L 1168.3 243.8 M 1166.6 245.2 L 1166.9 245.3 L 1167.4 245.7 L 1167.7 246.0 L 1167.9 246.6 L 1167.7 247.8 L 1167.3 248.4 L 1167.0 248.6 L 1166.3 248.8 L 1165.8 248.7 L 1165.2 248.4 L 1164.4 247.6 L 1161.9 244.2 L 1161.3 248.4 M 1226.7 174.5 L 1233.6 175.2 M 1228.1 178.4 L 1226.7 174.5 M 1225.7 171.7 L 1226.3 172.4 L 1227.3 172.7 L 1228.8 172.5 L 1229.7 172.2 L 1231.0 171.4 L 1231.6 170.5 L 1231.6 169.6 L 1231.4 169.0 L 1230.8 168.2 L 1229.8 168.0 L 1228.3 168.2 L 1227.4 168.5 L 1226.1 169.3 L 1225.5 170.2 L 1225.5 171.1 L 1225.6 171.5 M 1201.6 132.6 L 1200.9 132.8 L 1199.9 133.6 L 1200.8 127.3 M 1197.0 133.4 L 1197.9 133.2 L 1198.6 132.4 L 1199.1 130.9 L 1199.2 130.0 L 1199.2 128.5 L 1198.7 127.5 L 1197.8 127.1 L 1197.3 127.0 L 1196.3 127.2 L 1195.6 128.0 L 1195.1 129.5 L 1195.0 130.3 L 1195.1 131.9 L 1195.5 132.9 L 1196.4 133.3 L 1196.8 133.3 M 1169.9 133.8 L 1169.5 134.3 L 1169.1 135.5 L 1166.5 129.8 M 1165.3 137.5 L 1166.3 132.5 L 1162.2 134.3 M 1165.3 137.5 L 1162.7 131.8 M 1293.6 225.6 L 1297.2 219.6 M 1297.8 225.9 L 1293.6 225.6 M 1292.7 224.0 L 1292.1 224.3 L 1291.1 225.1 L 1291.7 218.8 M 1331.1 274.0 L 1330.9 273.4 L 1330.1 272.9 L 1329.5 272.8 L 1328.6 272.9 L 1327.8 273.7 L 1327.2 275.1 L 1326.9 276.5 L 1327.0 277.8 L 1327.4 278.5 L 1328.3 279.0 L 1328.6 279.0 L 1329.5 278.9 L 1330.2 278.4 L 1330.7 277.6 L 1330.7 277.3 L 1330.6 276.4 L 1330.1 275.7 L 1329.3 275.2 L 1329.0 275.1 L 1328.1 275.3 L 1327.4 275.7 L 1326.9 276.5 M 1336.1 276.3 L 1335.6 277.1 L 1334.9 277.6 L 1334.0 277.7 L 1333.7 277.6 L 1332.9 277.1 L 1332.4 276.4 L 1332.3 275.5 L 1332.3 275.2 L 1332.8 274.4 L 1333.5 273.9 L 1334.5 273.8 L 1334.8 273.9 L 1335.6 274.3 L 1336.0 275.0 L 1336.1 276.3 L 1335.8 277.7 L 1335.2 279.1 L 1334.4 279.9 L 1333.5 280.0 L 1332.9 279.9 L 1332.1 279.4 L 1331.9 278.8 M 1383.1 253.2 L 1382.4 253.2 L 1381.7 253.8 L 1381.5 254.3 L 1381.3 255.3 L 1381.8 256.2 L 1383.0 257.2 L 1384.3 257.9 L 1385.5 258.2 L 1386.3 258.0 L 1387.0 257.3 L 1387.2 257.0 L 1387.3 256.1 L 1387.1 255.3 L 1386.4 254.6 L 1386.1 254.5 L 1385.2 254.3 L 1384.4 254.5 L 1383.7 255.2 L 1383.6 255.5 L 1383.4 256.4 L 1383.7 257.2 L 1384.3 257.9 M 1383.7 250.1 L 1383.5 251.1 L 1383.9 251.6 L 1384.4 251.9 L 1385.1 251.9 L 1385.7 251.5 L 1386.5 250.6 L 1387.2 250.0 L 1388.0 249.7 L 1388.7 249.7 L 1389.5 250.2 L 1389.8 250.7 L 1390.0 251.1 L 1389.8 252.0 L 1389.2 253.1 L 1388.6 253.8 L 1388.2 253.9 L 1387.5 253.9 L 1386.7 253.4 L 1386.3 252.9 L 1386.0 252.1 L 1386.2 251.2 L 1386.5 249.9 L 1386.5 249.3 L 1386.1 248.7 L 1385.6 248.5 L 1384.9 248.4 L 1384.2 249.1 L 1383.6 250.3 M 1379.7 139.0 L 1379.9 138.4 L 1379.6 137.5 L 1379.3 137.0 L 1378.5 136.5 L 1377.4 136.6 L 1376.0 137.2 L 1374.8 138.2 L 1374.1 139.1 L 1374.0 140.0 L 1374.3 140.9 L 1374.5 141.1 L 1375.2 141.6 L 1376.1 141.7 L 1377.0 141.4 L 1377.2 141.3 L 1377.8 140.5 L 1377.9 139.6 L 1377.5 138.7 L 1377.4 138.5 L 1376.6 138.0 L 1375.7 137.9 L 1374.8 138.2 M 1382.3 141.0 L 1381.6 140.5 L 1380.5 140.6 L 1379.1 141.2 L 1378.4 141.8 L 1377.4 143.0 L 1377.0 144.0 L 1377.4 144.9 L 1377.7 145.3 L 1378.5 145.9 L 1379.6 145.8 L 1381.0 145.1 L 1381.7 144.6 L 1382.7 143.4 L 1383.0 142.4 L 1382.7 141.5 L 1382.4 141.1 M 1360.6 170.2 L 1360.6 170.9 L 1361.4 171.4 L 1362.0 171.6 L 1362.9 171.7 L 1363.8 171.0 L 1364.6 169.7 L 1365.0 168.3 L 1365.2 167.0 L 1364.8 166.3 L 1364.0 165.7 L 1363.8 165.6 L 1362.8 165.6 L 1362.0 165.9 L 1361.5 166.7 L 1361.4 167.0 L 1361.4 167.9 L 1361.7 168.7 L 1362.5 169.3 L 1362.8 169.4 L 1363.7 169.4 L 1364.5 169.0 L 1365.0 168.3 M 1357.2 170.0 L 1358.1 170.0 L 1359.0 169.3 L 1359.8 168.0 L 1360.1 167.2 L 1360.3 165.7 L 1360.0 164.6 L 1359.3 164.0 L 1358.7 163.8 L 1357.8 163.8 L 1356.9 164.5 L 1356.1 165.8 L 1355.8 166.6 L 1355.6 168.1 L 1355.9 169.2 L 1356.6 169.8 L 1357.1 169.9 M 1441.0 96.8 L 1441.6 96.7 L 1442.2 96.0 L 1442.4 95.4 L 1442.5 94.5 L 1441.8 93.6 L 1440.5 92.8 L 1439.1 92.3 L 1437.9 92.1 L 1437.1 92.5 L 1436.5 93.2 L 1436.4 93.5 L 1436.4 94.5 L 1436.7 95.2 L 1437.5 95.8 L 1437.8 95.9 L 1438.7 96.0 L 1439.5 95.6 L 1440.1 94.9 L 1440.2 94.6 L 1440.2 93.6 L 1439.8 92.9 L 1439.1 92.3 M 1439.7 98.4 L 1440.0 98.5 L 1440.4 99.0 L 1440.6 99.4 L 1440.7 100.1 L 1440.3 101.2 L 1439.8 101.7 L 1439.4 101.8 L 1438.7 101.9 L 1438.2 101.7 L 1437.7 101.2 L 1437.1 100.3 L 1435.3 96.5 L 1433.9 100.4 M 1386.1 90.9 L 1386.8 91.2 L 1387.6 90.8 L 1388.1 90.4 L 1388.5 89.5 L 1388.4 88.5 L 1387.6 87.2 L 1386.6 86.1 L 1385.5 85.4 L 1384.7 85.3 L 1383.8 85.7 L 1383.6 85.9 L 1383.1 86.8 L 1383.1 87.6 L 1383.5 88.5 L 1383.7 88.7 L 1384.5 89.2 L 1385.4 89.2 L 1386.2 88.8 L 1386.5 88.6 L 1386.9 87.8 L 1386.9 86.9 L 1386.6 86.1 M 1383.4 94.7 L 1382.8 89.6 L 1379.5 92.7 M 1383.4 94.7 L 1379.2 90.1 M 1408.3 96.9 L 1407.8 97.3 L 1407.6 98.2 L 1407.7 98.8 L 1408.2 99.7 L 1409.2 100.1 L 1410.7 100.1 L 1412.2 99.9 L 1413.3 99.4 L 1413.8 98.7 L 1413.9 97.7 L 1413.9 97.4 L 1413.4 96.6 L 1412.7 96.1 L 1411.8 96.0 L 1411.5 96.0 L 1410.7 96.5 L 1410.2 97.2 L 1410.0 98.1 L 1410.1 98.4 L 1410.5 99.2 L 1411.2 99.7 L 1412.2 99.9 M 1408.5 94.9 L 1408.2 94.9 L 1407.6 94.7 L 1407.3 94.5 L 1406.9 94.0 L 1406.6 92.8 L 1406.8 92.1 L 1407.1 91.8 L 1407.6 91.4 L 1408.2 91.3 L 1408.8 91.5 L 1409.8 91.9 L 1413.3 94.3 L 1412.6 90.2 M 1305.3 188.4 L 1299.2 191.8 M 1301.9 186.0 L 1305.3 188.4 M 1305.4 190.2 L 1306.0 190.3 L 1307.3 190.0 L 1303.6 195.2 M 1271.5 123.6 L 1265.1 120.8 M 1271.4 119.4 L 1271.5 123.6 M 1271.7 126.5 L 1271.3 125.6 L 1270.4 125.1 L 1268.9 124.8 L 1268.0 124.9 L 1266.5 125.2 L 1265.6 125.9 L 1265.4 126.8 L 1265.4 127.4 L 1265.7 128.3 L 1266.6 128.8 L 1268.2 129.1 L 1269.1 129.0 L 1270.5 128.7 L 1271.4 128.0 L 1271.7 127.1 L 1271.7 126.7 M 1278.5 81.7 L 1279.0 82.2 L 1279.9 82.2 L 1280.5 82.0 L 1281.2 81.4 L 1281.5 80.3 L 1281.3 78.8 L 1280.8 77.4 L 1280.1 76.4 L 1279.3 76.0 L 1278.4 76.0 L 1278.1 76.1 L 1277.4 76.7 L 1277.0 77.5 L 1277.0 78.4 L 1277.1 78.7 L 1277.7 79.5 L 1278.4 79.8 L 1279.4 79.8 L 1279.7 79.7 L 1280.4 79.1 L 1280.8 78.4 L 1280.8 77.4 M 1326.7 111.2 L 1326.1 111.3 L 1325.6 112.1 L 1325.4 112.7 L 1325.5 113.7 L 1326.2 114.5 L 1327.6 115.1 L 1329.1 115.5 L 1330.3 115.5 L 1331.0 115.0 L 1331.5 114.2 L 1331.6 114.0 L 1331.5 113.0 L 1331.1 112.3 L 1330.3 111.8 L 1330.0 111.7 L 1329.1 111.8 L 1328.3 112.2 L 1327.8 113.0 L 1327.7 113.3 L 1327.8 114.2 L 1328.3 115.0 L 1329.1 115.5 M 1326.9 106.5 L 1330.3 110.4 L 1331.4 106.1 M 1326.9 106.5 L 1333.0 108.0 M 1316.9 59.1 L 1314.4 61.3 L 1314.2 58.3 L 1313.5 58.9 L 1312.9 59.1 L 1312.5 59.0 L 1311.7 58.5 L 1311.3 58.1 L 1310.9 57.2 L 1311.0 56.4 L 1311.5 55.5 L 1312.1 55.0 L 1313.0 54.6 L 1313.4 54.6 L 1314.1 54.9 M 1329.6 60.7 L 1329.2 61.2 L 1329.4 62.1 L 1329.6 62.7 L 1330.3 63.3 L 1331.4 63.5 L 1332.9 63.1 L 1334.2 62.4 L 1335.1 61.6 L 1335.4 60.8 L 1335.3 59.9 L 1335.1 59.6 L 1334.5 58.9 L 1333.7 58.6 L 1332.7 58.8 L 1332.5 58.9 L 1331.8 59.6 L 1331.5 60.4 L 1331.7 61.3 L 1331.8 61.6 L 1332.5 62.3 L 1333.3 62.5 L 1334.2 62.4 M 1326.4 56.1 L 1333.4 56.0 M 1328.3 59.9 L 1326.4 56.1 M 1282.0 304.8 L 1288.4 307.7 M 1282.1 309.0 L 1282.0 304.8 M 1281.9 300.5 L 1286.1 303.5 L 1286.1 299.0 M 1281.9 300.5 L 1288.2 300.4 M 1190.5 320.7 L 1191.6 327.6 M 1187.0 323.1 L 1190.5 320.7 M 1194.4 318.0 L 1191.9 319.7 L 1193.2 322.1 L 1193.3 321.7 L 1193.8 321.0 L 1194.6 320.4 L 1195.5 320.2 L 1196.3 320.3 L 1197.1 320.9 L 1197.4 321.4 L 1197.7 322.3 L 1197.5 323.2 L 1197.0 323.9 L 1196.2 324.4 L 1195.3 324.7 L 1194.9 324.6 L 1194.3 324.3 M 1168.4 312.7 L 1161.6 311.0 M 1167.5 308.5 L 1168.4 312.7 M 1168.4 317.5 L 1169.0 317.1 L 1169.1 316.1 L 1169.0 315.6 L 1168.5 314.7 L 1167.5 314.3 L 1166.0 314.3 L 1164.5 314.6 L 1163.4 315.2 L 1162.9 315.9 L 1162.8 316.8 L 1162.9 317.1 L 1163.3 317.9 L 1164.0 318.4 L 1165.0 318.5 L 1165.3 318.4 L 1166.1 318.0 L 1166.6 317.3 L 1166.7 316.3 L 1166.6 316.0 L 1166.1 315.2 L 1165.4 314.7 L 1164.5 314.6 M 1276.1 372.8 L 1272.6 378.9 M 1271.9 372.5 L 1276.1 372.8 M 1281.2 373.2 L 1277.8 379.2 M 1277.1 372.9 L 1281.2 373.2 M 1218.4 341.5 L 1213.9 336.2 M 1220.2 337.7 L 1218.4 341.5 M 1216.5 345.8 L 1217.7 343.1 L 1215.4 341.7 L 1215.5 342.1 L 1215.4 343.0 L 1215.0 343.8 L 1214.4 344.5 L 1213.6 344.8 L 1212.7 344.7 L 1212.1 344.5 L 1211.4 343.8 L 1211.1 343.0 L 1211.2 342.1 L 1211.6 341.3 L 1212.2 340.6 L 1212.6 340.4 L 1213.3 340.4 M 1264.9 406.2 L 1271.2 403.2 M 1268.2 408.9 L 1264.9 406.2 M 1260.9 402.9 L 1267.2 400.0 M 1264.1 405.6 L 1260.9 402.9 M 1327.8 441.8 L 1328.5 441.1 L 1329.3 440.9 L 1330.2 441.0 L 1330.5 441.1 L 1331.2 441.7 L 1331.5 442.5 L 1331.4 443.5 L 1331.2 443.7 L 1330.6 444.4 L 1329.8 444.7 L 1328.8 444.6 L 1328.6 444.5 L 1327.9 443.8 L 1327.6 443.1 L 1327.8 441.8 L 1328.5 440.5 L 1329.4 439.2 L 1330.3 438.7 L 1331.2 438.8 L 1331.8 439.0 L 1332.5 439.7 L 1332.5 440.4 M 1323.0 442.0 L 1327.5 439.4 L 1323.4 437.6 M 1323.0 442.0 L 1325.7 436.3 M 1312.7 491.7 L 1311.8 491.5 L 1311.1 491.0 L 1310.7 490.2 L 1310.6 489.9 L 1310.8 489.0 L 1311.3 488.3 L 1312.2 487.9 L 1312.5 487.8 L 1313.4 488.0 L 1314.1 488.5 L 1314.5 489.3 L 1314.5 489.6 L 1314.4 490.6 L 1313.9 491.2 L 1312.7 491.7 L 1311.2 491.9 L 1309.7 491.8 L 1308.7 491.4 L 1308.3 490.5 L 1308.2 489.9 L 1308.4 489.0 L 1308.9 488.6 M 1315.5 496.1 L 1315.0 493.1 L 1312.3 493.2 L 1312.7 493.5 L 1313.1 494.3 L 1313.2 495.2 L 1313.0 496.1 L 1312.5 496.8 L 1311.7 497.3 L 1311.1 497.3 L 1310.2 497.2 L 1309.5 496.7 L 1309.1 495.8 L 1308.9 494.9 L 1309.1 494.0 L 1309.4 493.6 L 1309.9 493.3 M 1419.2 453.5 L 1419.4 452.6 L 1420.0 451.9 L 1420.8 451.5 L 1421.1 451.5 L 1422.1 451.7 L 1422.7 452.3 L 1423.1 453.2 L 1423.1 453.5 L 1422.9 454.4 L 1422.3 455.0 L 1421.5 455.4 L 1421.2 455.4 L 1420.2 455.2 L 1419.6 454.7 L 1419.2 453.5 L 1419.1 452.0 L 1419.2 450.5 L 1419.8 449.5 L 1420.6 449.2 L 1421.2 449.1 L 1422.2 449.3 L 1422.5 449.9 M 1418.2 454.3 L 1417.6 454.6 L 1416.8 455.6 L 1416.3 449.3 M 1401.9 565.3 L 1403.6 572.1 M 1398.6 568.0 L 1401.9 565.3 M 1489.9 462.5 L 1490.8 462.7 L 1491.4 462.3 L 1491.7 461.8 L 1491.7 461.1 L 1491.3 460.6 L 1490.4 459.7 L 1489.7 459.1 L 1489.5 458.2 L 1489.5 457.6 L 1490.0 456.8 L 1490.5 456.4 L 1490.9 456.3 L 1491.8 456.4 L 1492.9 457.0 L 1493.5 457.7 L 1493.7 458.1 L 1493.6 458.8 L 1493.2 459.6 L 1492.7 460.0 L 1491.9 460.2 L 1490.9 460.0 L 1489.7 459.7 L 1489.1 459.7 L 1488.5 460.1 L 1488.2 460.6 L 1488.2 461.3 L 1488.8 462.0 L 1490.0 462.6 M 1483.8 458.2 L 1483.8 458.9 L 1484.4 459.6 L 1484.9 459.8 L 1485.9 460.0 L 1486.8 459.5 L 1487.8 458.3 L 1488.5 457.0 L 1488.8 455.8 L 1488.6 455.0 L 1487.9 454.3 L 1487.7 454.2 L 1486.7 454.0 L 1485.9 454.2 L 1485.2 454.9 L 1485.1 455.2 L 1484.9 456.1 L 1485.2 456.9 L 1485.8 457.6 L 1486.1 457.7 L 1487.0 457.9 L 1487.8 457.7 L 1488.5 457.0 M 1502.3 495.8 L 1502.6 496.7 L 1503.2 497.0 L 1503.8 496.9 L 1504.4 496.6 L 1504.7 496.0 L 1505.0 494.8 L 1505.3 493.9 L 1505.9 493.3 L 1506.5 493.0 L 1507.4 493.0 L 1508.0 493.3 L 1508.3 493.6 L 1508.6 494.5 L 1508.6 495.7 L 1508.3 496.6 L 1508.0 496.9 L 1507.4 497.2 L 1506.5 497.2 L 1505.9 496.9 L 1505.3 496.3 L 1505.0 495.4 L 1504.7 494.2 L 1504.4 493.6 L 1503.8 493.3 L 1503.2 493.4 L 1502.6 493.7 L 1502.3 494.6 L 1502.3 495.9 M 1502.2 491.3 L 1502.2 488.0 L 1504.6 489.8 L 1504.6 488.9 L 1504.9 488.3 L 1505.2 488.0 L 1506.1 487.7 L 1506.7 487.7 L 1507.6 487.9 L 1508.2 488.5 L 1508.5 489.4 L 1508.5 490.3 L 1508.2 491.2 L 1507.9 491.5 L 1507.3 491.8 M 1324.5 556.6 L 1323.5 556.5 L 1322.8 556.0 L 1322.3 555.2 L 1322.3 554.9 L 1322.4 554.0 L 1322.8 553.3 L 1323.6 552.8 L 1323.9 552.7 L 1324.9 552.8 L 1325.6 553.3 L 1326.1 554.1 L 1326.1 554.4 L 1326.0 555.3 L 1325.6 556.0 L 1324.5 556.6 L 1323.0 556.9 L 1321.5 556.9 L 1320.5 556.5 L 1320.0 555.7 L 1319.8 555.1 L 1319.9 554.2 L 1320.5 553.8 M 1327.6 561.2 L 1320.8 559.6 M 1326.7 557.1 L 1327.6 561.2 M 1366.6 612.8 L 1366.6 612.1 L 1366.2 610.9 L 1371.8 613.7 M 1368.9 607.0 L 1368.3 607.0 L 1367.6 607.7 L 1367.3 608.2 L 1367.2 609.1 L 1367.7 610.1 L 1368.9 611.0 L 1370.3 611.7 L 1371.5 612.0 L 1372.3 611.7 L 1373.0 611.0 L 1373.1 610.7 L 1373.2 609.8 L 1373.0 609.0 L 1372.3 608.3 L 1372.0 608.2 L 1371.1 608.1 L 1370.3 608.3 L 1369.6 609.0 L 1369.5 609.3 L 1369.3 610.2 L 1369.6 611.0 L 1370.3 611.7 M 1336.3 632.7 L 1336.2 632.4 L 1336.4 631.8 L 1336.7 631.5 L 1337.3 631.1 L 1338.5 630.9 L 1339.1 631.2 L 1339.4 631.4 L 1339.8 632.0 L 1339.9 632.6 L 1339.6 633.2 L 1339.2 634.2 L 1336.5 637.5 L 1340.7 637.0 M 1341.2 632.0 L 1341.7 631.7 L 1342.5 630.7 L 1343.3 636.9 M 1329.9 616.5 L 1329.0 616.1 L 1328.5 615.4 L 1328.3 614.5 L 1328.3 614.2 L 1328.7 613.3 L 1329.4 612.8 L 1330.3 612.6 L 1330.6 612.6 L 1331.5 613.0 L 1332.0 613.6 L 1332.2 614.6 L 1332.2 614.9 L 1331.8 615.7 L 1331.1 616.3 L 1329.9 616.5 L 1328.4 616.3 L 1327.0 615.9 L 1326.1 615.2 L 1325.9 614.3 L 1326.0 613.7 L 1326.3 612.8 L 1327.0 612.6 M 1330.7 621.3 L 1331.3 621.1 L 1331.7 620.2 L 1331.7 619.6 L 1331.5 618.7 L 1330.7 618.0 L 1329.2 617.5 L 1327.7 617.4 L 1326.5 617.6 L 1325.8 618.1 L 1325.5 619.0 L 1325.4 619.3 L 1325.6 620.2 L 1326.2 620.9 L 1327.0 621.3 L 1327.3 621.3 L 1328.3 621.1 L 1328.9 620.5 L 1329.3 619.7 L 1329.3 619.4 L 1329.1 618.4 L 1328.6 617.8 L 1327.7 617.4 M 1291.2 493.9 L 1292.0 494.3 L 1292.5 495.0 L 1292.7 495.9 L 1292.7 496.2 L 1292.2 497.1 L 1291.6 497.6 L 1290.6 497.8 L 1290.3 497.7 L 1289.5 497.3 L 1289.0 496.6 L 1288.8 495.7 L 1288.9 495.4 L 1289.3 494.5 L 1290.0 494.0 L 1291.2 493.9 L 1292.7 494.1 L 1294.1 494.6 L 1294.9 495.4 L 1295.1 496.3 L 1295.0 496.9 L 1294.6 497.7 L 1293.9 498.0 M 1289.8 488.9 L 1289.4 491.9 L 1292.0 492.6 L 1291.8 492.2 L 1291.6 491.3 L 1291.7 490.4 L 1292.2 489.6 L 1292.8 489.1 L 1293.8 488.9 L 1294.4 489.0 L 1295.2 489.4 L 1295.7 490.1 L 1295.9 491.0 L 1295.7 491.9 L 1295.3 492.8 L 1295.0 493.0 L 1294.3 493.2 M 1285.6 560.6 L 1286.5 560.9 L 1287.1 561.5 L 1287.4 562.4 L 1287.4 562.7 L 1287.0 563.6 L 1286.4 564.2 L 1285.5 564.5 L 1285.2 564.5 L 1284.3 564.2 L 1283.7 563.5 L 1283.5 562.6 L 1283.5 562.3 L 1283.8 561.4 L 1284.4 560.9 L 1285.6 560.6 L 1287.1 560.6 L 1288.6 561.0 L 1289.5 561.6 L 1289.8 562.5 L 1289.8 563.1 L 1289.4 564.0 L 1288.8 564.3 M 1283.6 555.3 L 1289.9 558.5 M 1283.5 559.5 L 1283.6 555.3 M 1225.1 535.4 L 1224.3 534.9 L 1223.9 534.2 L 1223.8 533.2 L 1223.9 532.9 L 1224.4 532.1 L 1225.1 531.7 L 1226.0 531.6 L 1226.3 531.7 L 1227.1 532.2 L 1227.6 532.9 L 1227.7 533.9 L 1227.6 534.1 L 1227.1 535.0 L 1226.4 535.4 L 1225.1 535.4 L 1223.7 535.0 L 1222.3 534.4 L 1221.5 533.6 L 1221.5 532.7 L 1221.6 532.1 L 1222.1 531.3 L 1222.8 531.1 M 1226.5 538.5 L 1226.5 537.5 L 1225.9 537.1 L 1225.4 537.0 L 1224.7 537.1 L 1224.3 537.6 L 1223.7 538.7 L 1223.2 539.5 L 1222.5 540.0 L 1221.8 540.1 L 1220.9 539.9 L 1220.4 539.5 L 1220.2 539.1 L 1220.1 538.2 L 1220.4 537.0 L 1220.9 536.2 L 1221.3 536.0 L 1221.9 535.8 L 1222.8 536.0 L 1223.3 536.5 L 1223.8 537.2 L 1223.8 538.1 L 1223.9 539.4 L 1224.0 540.0 L 1224.5 540.4 L 1225.1 540.6 L 1225.8 540.4 L 1226.3 539.6 L 1226.6 538.3 M 1265.7 648.0 L 1265.6 647.8 L 1265.7 647.1 L 1265.8 646.7 L 1266.3 646.2 L 1267.4 645.8 L 1268.1 645.8 L 1268.5 646.0 L 1269.0 646.5 L 1269.2 647.0 L 1269.1 647.7 L 1268.9 648.7 L 1267.2 652.6 L 1271.1 651.1 M 1270.4 644.6 L 1273.5 643.4 L 1272.7 646.3 L 1273.5 646.0 L 1274.2 646.0 L 1274.6 646.2 L 1275.2 646.9 L 1275.4 647.5 L 1275.5 648.4 L 1275.1 649.2 L 1274.4 649.8 L 1273.6 650.1 L 1272.6 650.2 L 1272.2 650.0 L 1271.7 649.6 M 1288.7 620.1 L 1289.7 620.3 L 1290.4 620.8 L 1290.8 621.6 L 1290.8 621.9 L 1290.7 622.9 L 1290.2 623.5 L 1289.3 624.0 L 1289.0 624.0 L 1288.1 623.9 L 1287.4 623.4 L 1287.0 622.5 L 1286.9 622.2 L 1287.1 621.3 L 1287.6 620.6 L 1288.7 620.1 L 1290.2 619.9 L 1291.8 620.0 L 1292.7 620.4 L 1293.2 621.3 L 1293.3 621.9 L 1293.1 622.8 L 1292.6 623.2 M 1286.8 615.6 L 1286.3 616.0 L 1286.1 616.9 L 1286.2 617.5 L 1286.6 618.4 L 1287.6 618.8 L 1289.2 618.9 L 1290.6 618.7 L 1291.8 618.2 L 1292.3 617.5 L 1292.4 616.6 L 1292.4 616.3 L 1292.0 615.4 L 1291.3 614.9 L 1290.3 614.8 L 1290.0 614.8 L 1289.2 615.2 L 1288.7 615.9 L 1288.5 616.9 L 1288.6 617.2 L 1289.0 618.0 L 1289.7 618.5 L 1290.6 618.7 M 1205.5 667.2 L 1204.5 674.1 M 1201.5 668.5 L 1205.5 667.2 M 1210.9 667.6 L 1210.9 668.6 L 1210.5 669.3 L 1209.8 669.9 L 1209.5 670.0 L 1208.5 670.0 L 1207.8 669.6 L 1207.2 668.8 L 1207.1 668.5 L 1207.1 667.6 L 1207.5 666.8 L 1208.3 666.3 L 1208.6 666.2 L 1209.5 666.2 L 1210.3 666.6 L 1210.9 667.6 L 1211.4 669.1 L 1211.5 670.6 L 1211.2 671.6 L 1210.5 672.2 L 1209.9 672.4 L 1209.0 672.4 L 1208.5 671.9 M 1184.4 469.9 L 1184.3 469.0 L 1184.7 468.2 L 1185.4 467.6 L 1185.7 467.5 L 1186.6 467.4 L 1187.4 467.7 L 1188.0 468.4 L 1188.1 468.7 L 1188.2 469.7 L 1187.9 470.4 L 1187.2 471.1 L 1186.9 471.2 L 1185.9 471.3 L 1185.2 470.9 L 1184.4 469.9 L 1183.8 468.6 L 1183.5 467.1 L 1183.7 466.0 L 1184.5 465.4 L 1185.0 465.1 L 1186.0 465.1 L 1186.5 465.5 M 1179.8 471.9 L 1179.7 470.9 L 1180.0 470.2 L 1180.7 469.5 L 1181.0 469.4 L 1181.9 469.3 L 1182.7 469.7 L 1183.4 470.4 L 1183.5 470.7 L 1183.5 471.6 L 1183.2 472.4 L 1182.5 473.0 L 1182.2 473.1 L 1181.3 473.2 L 1180.5 472.9 L 1179.8 471.9 L 1179.2 470.5 L 1178.9 469.0 L 1179.1 467.9 L 1179.8 467.3 L 1180.4 467.1 L 1181.3 467.0 L 1181.8 467.5 M 1165.9 503.8 L 1166.4 504.2 L 1167.6 504.6 L 1162.0 507.4 M 1169.2 507.1 L 1168.5 506.4 L 1167.4 506.3 L 1165.9 506.7 L 1165.1 507.1 L 1163.9 508.1 L 1163.4 509.0 L 1163.6 510.0 L 1163.8 510.5 L 1164.5 511.2 L 1165.6 511.3 L 1167.1 510.9 L 1167.9 510.5 L 1169.1 509.5 L 1169.6 508.6 L 1169.4 507.6 L 1169.2 507.2 M 1171.6 511.9 L 1170.9 511.2 L 1169.9 511.1 L 1168.4 511.5 L 1167.6 511.9 L 1166.4 512.9 L 1165.9 513.8 L 1166.0 514.7 L 1166.3 515.3 L 1167.0 515.9 L 1168.0 516.1 L 1169.5 515.6 L 1170.3 515.2 L 1171.5 514.3 L 1172.0 513.3 L 1171.9 512.4 L 1171.7 512.0 M 1198.1 521.7 L 1198.5 522.6 L 1198.4 523.4 L 1197.9 524.2 L 1197.7 524.4 L 1196.8 524.8 L 1196.0 524.8 L 1195.2 524.3 L 1195.0 524.1 L 1194.6 523.2 L 1194.7 522.3 L 1195.1 521.5 L 1195.4 521.3 L 1196.2 520.9 L 1197.1 521.0 L 1198.1 521.7 L 1199.1 522.8 L 1199.9 524.1 L 1200.0 525.2 L 1199.5 526.0 L 1199.1 526.4 L 1198.2 526.8 L 1197.6 526.6 M 1198.7 518.4 L 1198.2 519.2 L 1198.4 519.8 L 1198.8 520.3 L 1199.4 520.5 L 1200.1 520.4 L 1201.1 519.8 L 1202.0 519.4 L 1202.9 519.5 L 1203.5 519.7 L 1204.1 520.4 L 1204.3 521.0 L 1204.2 521.5 L 1203.8 522.3 L 1202.9 523.1 L 1202.0 523.5 L 1201.6 523.4 L 1200.9 523.2 L 1200.3 522.5 L 1200.2 521.9 L 1200.2 521.0 L 1200.7 520.2 L 1201.4 519.2 L 1201.6 518.5 L 1201.5 517.9 L 1201.1 517.4 L 1200.5 517.2 L 1199.6 517.6 L 1198.6 518.5 M 1181.5 430.8 L 1180.9 431.6 L 1180.2 431.9 L 1179.2 431.9 L 1178.9 431.8 L 1178.2 431.2 L 1177.8 430.5 L 1177.8 429.5 L 1177.9 429.2 L 1178.5 428.5 L 1179.3 428.1 L 1180.2 428.2 L 1180.5 428.3 L 1181.3 428.8 L 1181.6 429.6 L 1181.5 430.8 L 1181.0 432.2 L 1180.2 433.6 L 1179.4 434.2 L 1178.4 434.2 L 1177.8 434.0 L 1177.1 433.4 L 1177.0 432.7 M 1186.3 432.5 L 1185.7 433.3 L 1184.9 433.6 L 1184.0 433.6 L 1183.7 433.5 L 1182.9 432.9 L 1182.6 432.2 L 1182.6 431.2 L 1182.7 430.9 L 1183.3 430.2 L 1184.0 429.8 L 1185.0 429.8 L 1185.3 429.9 L 1186.0 430.5 L 1186.4 431.3 L 1186.3 432.5 L 1185.8 433.9 L 1185.0 435.3 L 1184.1 435.9 L 1183.2 435.9 L 1182.6 435.7 L 1181.9 435.1 L 1181.8 434.4 M 1163.6 367.7 L 1168.7 362.9 M 1167.6 369.2 L 1163.6 367.7 M 1159.5 365.2 L 1159.6 365.9 L 1160.3 366.5 L 1160.9 366.7 L 1161.8 366.7 L 1162.7 366.1 L 1163.5 364.8 L 1164.1 363.4 L 1164.2 362.2 L 1163.9 361.4 L 1163.1 360.8 L 1162.8 360.7 L 1161.9 360.6 L 1161.1 361.0 L 1160.5 361.7 L 1160.4 362.0 L 1160.4 362.9 L 1160.7 363.7 L 1161.5 364.3 L 1161.7 364.4 L 1162.7 364.5 L 1163.5 364.1 L 1164.1 363.4 M 1121.3 407.7 L 1120.3 407.7 L 1119.9 408.2 L 1119.7 408.8 L 1119.8 409.4 L 1120.2 409.9 L 1121.3 410.6 L 1122.0 411.1 L 1122.4 411.9 L 1122.5 412.5 L 1122.2 413.4 L 1121.7 413.9 L 1121.4 414.1 L 1120.4 414.1 L 1119.3 413.7 L 1118.5 413.1 L 1118.3 412.7 L 1118.2 412.1 L 1118.5 411.2 L 1119.0 410.7 L 1119.8 410.4 L 1120.7 410.4 L 1121.9 410.5 L 1122.6 410.4 L 1123.1 409.9 L 1123.3 409.3 L 1123.2 408.7 L 1122.4 408.1 L 1121.1 407.7 M 1124.9 410.5 L 1125.0 410.2 L 1125.5 409.8 L 1125.9 409.6 L 1126.6 409.5 L 1127.7 409.9 L 1128.2 410.3 L 1128.4 410.7 L 1128.5 411.4 L 1128.3 411.9 L 1127.8 412.4 L 1126.9 413.1 L 1123.1 415.0 L 1127.1 416.3 M 1126.9 379.7 L 1127.1 378.7 L 1126.7 378.2 L 1126.2 377.9 L 1125.5 377.9 L 1125.0 378.2 L 1124.1 379.1 L 1123.4 379.7 L 1122.6 380.0 L 1121.9 379.9 L 1121.1 379.5 L 1120.8 378.9 L 1120.7 378.5 L 1120.8 377.6 L 1121.4 376.5 L 1122.2 375.9 L 1122.6 375.8 L 1123.2 375.8 L 1124.0 376.3 L 1124.4 376.8 L 1124.6 377.7 L 1124.4 378.6 L 1124.1 379.8 L 1124.0 380.5 L 1124.4 381.0 L 1124.9 381.3 L 1125.6 381.3 L 1126.3 380.7 L 1127.0 379.5 M 1123.8 382.2 L 1123.8 382.9 L 1124.1 384.1 L 1118.6 381.0 M 1152.2 569.8 L 1151.6 569.1 L 1150.9 569.0 L 1150.4 569.2 L 1149.9 569.7 L 1149.9 570.4 L 1150.0 571.6 L 1150.1 572.6 L 1149.8 573.3 L 1149.3 573.8 L 1148.5 574.2 L 1147.8 574.1 L 1147.4 573.9 L 1146.8 573.2 L 1146.4 572.1 L 1146.3 571.2 L 1146.5 570.8 L 1146.9 570.3 L 1147.8 569.9 L 1148.4 570.0 L 1149.2 570.3 L 1149.8 571.1 L 1150.5 572.1 L 1151.0 572.5 L 1151.7 572.6 L 1152.3 572.3 L 1152.7 571.8 L 1152.7 570.9 L 1152.2 569.6 M 1152.4 574.4 L 1152.7 574.3 L 1153.4 574.3 L 1153.8 574.5 L 1154.3 574.9 L 1154.7 576.1 L 1154.7 576.7 L 1154.5 577.1 L 1154.0 577.6 L 1153.5 577.8 L 1152.8 577.8 L 1151.8 577.6 L 1147.9 575.9 L 1149.4 579.8 M 1180.1 567.7 L 1179.4 567.9 L 1178.4 568.6 L 1179.3 562.4 M 1175.5 568.4 L 1176.4 568.3 L 1177.1 567.5 L 1177.6 566.0 L 1177.7 565.1 L 1177.7 563.6 L 1177.2 562.6 L 1176.3 562.2 L 1175.7 562.1 L 1174.8 562.3 L 1174.1 563.1 L 1173.6 564.6 L 1173.5 565.4 L 1173.5 567.0 L 1174.0 567.9 L 1174.9 568.4 L 1175.3 568.4 M 1170.2 567.7 L 1171.1 567.5 L 1171.8 566.7 L 1172.3 565.3 L 1172.4 564.4 L 1172.4 562.9 L 1171.9 561.9 L 1171.0 561.5 L 1170.4 561.4 L 1169.5 561.6 L 1168.8 562.4 L 1168.3 563.8 L 1168.2 564.7 L 1168.3 566.2 L 1168.7 567.2 L 1169.6 567.6 L 1170.0 567.7 M 1419.8 257.5 L 1420.4 257.1 L 1420.6 256.2 L 1420.5 255.6 L 1420.1 254.7 L 1419.2 254.2 L 1417.7 254.1 L 1416.2 254.3 L 1415.0 254.7 L 1414.5 255.3 L 1414.3 256.3 L 1414.3 256.6 L 1414.7 257.4 L 1415.3 258.0 L 1416.3 258.2 L 1416.6 258.1 L 1417.4 257.7 L 1418.0 257.1 L 1418.2 256.2 L 1418.1 255.9 L 1417.7 255.0 L 1417.1 254.5 L 1416.2 254.3 M 1421.0 260.3 L 1420.6 259.5 L 1420.0 259.2 L 1419.4 259.3 L 1418.8 259.7 L 1418.6 260.3 L 1418.4 261.5 L 1418.2 262.4 L 1417.7 263.1 L 1417.1 263.5 L 1416.2 263.5 L 1415.6 263.3 L 1415.3 263.0 L 1414.9 262.2 L 1414.8 261.0 L 1415.0 260.1 L 1415.2 259.7 L 1415.8 259.4 L 1416.7 259.3 L 1417.3 259.5 L 1418.0 260.0 L 1418.4 260.9 L 1418.8 262.1 L 1419.1 262.6 L 1419.8 262.9 L 1420.4 262.8 L 1420.9 262.5 L 1421.1 261.5 L 1421.0 260.2 M 1497.4 203.4 L 1498.3 203.3 L 1498.7 202.7 L 1498.8 202.1 L 1498.7 201.5 L 1498.2 201.1 L 1497.1 200.5 L 1496.2 200.0 L 1495.8 199.3 L 1495.6 198.7 L 1495.8 197.8 L 1496.2 197.3 L 1496.6 197.0 L 1497.5 196.9 L 1498.7 197.2 L 1499.5 197.7 L 1499.7 198.0 L 1499.9 198.7 L 1499.7 199.6 L 1499.3 200.1 L 1498.6 200.6 L 1497.6 200.7 L 1496.4 200.7 L 1495.8 200.9 L 1495.3 201.4 L 1495.2 202.0 L 1495.4 202.6 L 1496.2 203.1 L 1497.5 203.4 M 1490.5 201.9 L 1494.3 198.5 L 1489.9 197.5 M 1490.5 201.9 L 1491.8 195.8 M 1520.8 227.7 L 1521.2 228.6 L 1521.8 228.8 L 1522.4 228.8 L 1523.0 228.4 L 1523.2 227.8 L 1523.4 226.5 L 1523.6 225.6 L 1524.1 224.9 L 1524.7 224.6 L 1525.6 224.5 L 1526.2 224.7 L 1526.5 225.0 L 1526.9 225.8 L 1527.1 227.0 L 1526.9 227.9 L 1526.6 228.3 L 1526.0 228.6 L 1525.1 228.7 L 1524.5 228.5 L 1523.9 228.0 L 1523.5 227.1 L 1523.0 226.0 L 1522.7 225.4 L 1522.0 225.2 L 1521.4 225.2 L 1520.9 225.6 L 1520.7 226.5 L 1520.8 227.9 M 1520.9 220.2 L 1520.3 220.6 L 1520.1 221.5 L 1520.2 222.1 L 1520.6 223.0 L 1521.5 223.5 L 1523.0 223.6 L 1524.5 223.4 L 1525.7 223.0 L 1526.2 222.3 L 1526.4 221.4 L 1526.4 221.1 L 1526.0 220.2 L 1525.3 219.7 L 1524.4 219.5 L 1524.1 219.6 L 1523.2 220.0 L 1522.7 220.6 L 1522.5 221.5 L 1522.5 221.8 L 1522.9 222.7 L 1523.6 223.2 L 1524.5 223.4 M 1502.4 253.3 L 1501.8 254.1 L 1501.8 254.7 L 1502.1 255.2 L 1502.7 255.6 L 1503.4 255.5 L 1504.6 255.1 L 1505.5 254.9 L 1506.3 255.1 L 1506.9 255.5 L 1507.4 256.2 L 1507.4 256.9 L 1507.3 257.3 L 1506.7 258.0 L 1505.7 258.7 L 1504.8 258.9 L 1504.4 258.8 L 1503.8 258.5 L 1503.3 257.7 L 1503.3 257.0 L 1503.4 256.2 L 1504.1 255.5 L 1504.9 254.6 L 1505.3 254.0 L 1505.2 253.3 L 1504.9 252.8 L 1504.3 252.5 L 1503.4 252.7 L 1502.2 253.4 M 1509.1 249.1 L 1509.9 256.1 M 1505.5 251.4 L 1509.1 249.1 M 1506.1 142.0 L 1506.6 142.7 L 1507.3 142.8 L 1507.9 142.6 L 1508.3 142.1 L 1508.4 141.5 L 1508.3 140.2 L 1508.3 139.3 L 1508.6 138.5 L 1509.1 138.0 L 1509.9 137.7 L 1510.6 137.8 L 1511.0 138.0 L 1511.6 138.7 L 1512.0 139.9 L 1512.0 140.8 L 1511.8 141.2 L 1511.4 141.7 L 1510.5 142.0 L 1509.8 141.9 L 1509.1 141.5 L 1508.5 140.8 L 1507.8 139.8 L 1507.3 139.3 L 1506.7 139.2 L 1506.1 139.4 L 1505.6 139.9 L 1505.7 140.9 L 1506.1 142.1 M 1504.6 137.8 L 1503.5 134.7 L 1506.3 135.6 L 1506.0 134.7 L 1506.1 134.1 L 1506.3 133.7 L 1507.0 133.1 L 1507.6 132.9 L 1508.5 132.9 L 1509.3 133.2 L 1509.9 134.0 L 1510.2 134.8 L 1510.2 135.8 L 1510.0 136.2 L 1509.6 136.7 M 1486.3 168.9 L 1485.6 169.6 L 1485.5 170.3 L 1485.8 170.8 L 1486.3 171.2 L 1487.0 171.2 L 1488.2 171.0 L 1489.1 170.9 L 1489.9 171.2 L 1490.4 171.7 L 1490.8 172.5 L 1490.8 173.2 L 1490.6 173.5 L 1489.9 174.2 L 1488.8 174.7 L 1487.9 174.8 L 1487.5 174.6 L 1487.0 174.2 L 1486.6 173.4 L 1486.6 172.7 L 1486.9 171.9 L 1487.6 171.3 L 1488.6 170.5 L 1489.0 170.0 L 1489.1 169.3 L 1488.8 168.8 L 1488.3 168.4 L 1487.4 168.4 L 1486.1 169.0 M 1492.6 166.0 L 1491.6 171.1 L 1495.7 169.2 M 1492.6 166.0 L 1495.2 171.8 M 1336.4 357.9 L 1336.6 358.8 L 1336.4 359.6 L 1335.8 360.4 L 1335.6 360.5 L 1334.7 360.8 L 1333.8 360.6 L 1333.1 360.0 L 1332.9 359.7 L 1332.7 358.8 L 1332.9 358.0 L 1333.5 357.3 L 1333.7 357.1 L 1334.6 356.9 L 1335.5 357.0 L 1336.4 357.9 L 1337.2 359.1 L 1337.7 360.6 L 1337.7 361.6 L 1337.1 362.4 L 1336.6 362.7 L 1335.7 362.9 L 1335.1 362.6 M 1338.8 353.7 L 1338.5 358.9 L 1342.3 356.4 M 1338.8 353.7 L 1342.2 359.0 M 1332.5 343.7 L 1332.9 342.9 L 1333.5 342.3 L 1334.5 342.1 L 1334.8 342.1 L 1335.6 342.5 L 1336.2 343.2 L 1336.4 344.1 L 1336.4 344.4 L 1336.0 345.3 L 1335.3 345.8 L 1334.4 346.0 L 1334.1 346.0 L 1333.2 345.6 L 1332.7 344.9 L 1332.5 343.7 L 1332.7 342.2 L 1333.1 340.8 L 1333.8 339.9 L 1334.7 339.7 L 1335.3 339.8 L 1336.2 340.1 L 1336.4 340.8 M 1330.6 345.7 L 1327.3 345.4 L 1329.3 343.1 L 1328.4 343.0 L 1327.9 342.7 L 1327.6 342.4 L 1327.4 341.4 L 1327.4 340.8 L 1327.8 340.0 L 1328.5 339.4 L 1329.4 339.2 L 1330.3 339.3 L 1331.1 339.7 L 1331.4 340.0 L 1331.7 340.6 M 1504.2 72.9 L 1503.5 73.1 L 1503.0 73.9 L 1502.9 74.5 L 1503.0 75.4 L 1503.7 76.2 L 1505.1 76.8 L 1506.6 77.2 L 1507.8 77.1 L 1508.5 76.7 L 1509.0 75.9 L 1509.1 75.6 L 1509.0 74.6 L 1508.5 73.9 L 1507.7 73.4 L 1507.4 73.4 L 1506.5 73.4 L 1505.8 73.9 L 1505.3 74.7 L 1505.2 75.0 L 1505.3 75.9 L 1505.8 76.7 L 1506.6 77.2 M 1505.3 68.0 L 1504.7 68.1 L 1504.2 68.9 L 1504.0 69.5 L 1504.1 70.5 L 1504.9 71.3 L 1506.2 71.9 L 1507.7 72.2 L 1508.9 72.2 L 1509.7 71.8 L 1510.2 71.0 L 1510.2 70.7 L 1510.1 69.7 L 1509.7 69.0 L 1508.9 68.5 L 1508.6 68.4 L 1507.6 68.5 L 1506.9 69.0 L 1506.4 69.8 L 1506.4 70.1 L 1506.4 71.0 L 1506.9 71.7 L 1507.7 72.2 M 1144.1 168.2 L 1137.4 170.2 M 1141.2 165.1 L 1144.1 168.2 M 1145.9 173.3 L 1145.1 173.7 L 1144.2 173.7 L 1143.4 173.2 L 1143.2 173.0 L 1142.8 172.1 L 1142.8 171.3 L 1143.3 170.4 L 1143.5 170.2 L 1144.4 169.8 L 1145.2 169.9 L 1146.1 170.3 L 1146.3 170.6 L 1146.7 171.4 L 1146.6 172.3 L 1145.9 173.3 L 1144.8 174.3 L 1143.5 175.1 L 1142.5 175.3 L 1141.6 174.8 L 1141.2 174.4 L 1140.8 173.5 L 1141.1 172.9 M 1135.2 146.4 L 1134.6 146.8 L 1134.0 147.9 L 1132.5 141.8 M 1128.6 147.3 L 1128.7 146.3 L 1129.1 145.6 L 1129.9 145.1 L 1130.2 145.0 L 1131.2 145.1 L 1131.9 145.5 L 1132.4 146.3 L 1132.5 146.6 L 1132.4 147.6 L 1132.0 148.3 L 1131.2 148.8 L 1130.9 148.9 L 1129.9 148.8 L 1129.2 148.4 L 1128.6 147.3 L 1128.3 145.8 L 1128.2 144.3 L 1128.6 143.3 L 1129.4 142.8 L 1130.0 142.6 L 1130.9 142.7 L 1131.3 143.2 M 1136.5 625.1 L 1136.9 624.3 L 1136.8 623.6 L 1136.4 623.2 L 1135.7 622.9 L 1135.1 623.1 L 1134.0 623.7 L 1133.1 624.1 L 1132.3 624.0 L 1131.6 623.8 L 1131.0 623.1 L 1130.9 622.5 L 1130.9 622.0 L 1131.4 621.2 L 1132.3 620.4 L 1133.1 620.0 L 1133.6 620.1 L 1134.2 620.3 L 1134.8 621.0 L 1135.0 621.6 L 1134.9 622.5 L 1134.4 623.3 L 1133.7 624.3 L 1133.5 624.9 L 1133.7 625.6 L 1134.1 626.0 L 1134.7 626.3 L 1135.6 625.9 L 1136.6 625.0 M 1132.7 626.6 L 1132.5 627.2 L 1132.4 628.5 L 1128.2 623.8 M 1139.6 658.3 L 1133.8 662.1 M 1136.0 656.1 L 1139.6 658.3 M 1140.3 660.4 L 1140.4 660.2 L 1141.0 659.8 L 1141.4 659.7 L 1142.1 659.8 L 1143.1 660.4 L 1143.4 661.0 L 1143.5 661.4 L 1143.5 662.0 L 1143.2 662.5 L 1142.6 662.9 L 1141.6 663.4 L 1137.5 664.4 L 1141.1 666.5 M 1410.4 339.3 L 1411.0 339.2 L 1411.6 338.4 L 1411.8 337.9 L 1411.8 336.9 L 1411.2 336.1 L 1409.8 335.3 L 1408.4 334.8 L 1407.2 334.7 L 1406.4 335.1 L 1405.9 335.8 L 1405.8 336.1 L 1405.7 337.0 L 1406.1 337.8 L 1406.9 338.4 L 1407.2 338.5 L 1408.1 338.5 L 1408.9 338.1 L 1409.4 337.4 L 1409.5 337.1 L 1409.6 336.1 L 1409.2 335.4 L 1408.4 334.8 M 1407.5 343.9 L 1406.7 343.4 L 1406.4 342.6 L 1406.4 341.6 L 1406.5 341.4 L 1407.0 340.6 L 1407.8 340.2 L 1408.8 340.3 L 1409.0 340.4 L 1409.8 340.9 L 1410.2 341.7 L 1410.2 342.6 L 1410.1 342.9 L 1409.5 343.7 L 1408.7 344.0 L 1407.5 343.9 L 1406.1 343.4 L 1404.7 342.7 L 1404.1 341.8 L 1404.1 340.9 L 1404.3 340.3 L 1404.9 339.5 L 1405.5 339.5 M 1441.1 406.5 L 1441.4 407.4 L 1441.2 408.2 L 1440.6 409.0 L 1440.4 409.1 L 1439.5 409.4 L 1438.6 409.2 L 1437.9 408.7 L 1437.7 408.4 L 1437.5 407.5 L 1437.6 406.7 L 1438.2 405.9 L 1438.5 405.7 L 1439.4 405.5 L 1440.2 405.6 L 1441.1 406.5 L 1442.0 407.7 L 1442.6 409.1 L 1442.6 410.2 L 1442.0 411.0 L 1441.5 411.3 L 1440.6 411.6 L 1440.0 411.2 M 1441.4 403.8 L 1444.1 401.9 L 1444.0 404.9 L 1444.7 404.4 L 1445.4 404.3 L 1445.8 404.4 L 1446.6 405.0 L 1446.9 405.5 L 1447.1 406.4 L 1447.0 407.2 L 1446.4 408.0 L 1445.7 408.5 L 1444.7 408.7 L 1444.3 408.7 L 1443.7 408.3 M 1407.4 401.7 L 1400.4 401.2 M 1405.9 397.8 L 1407.4 401.7 M 1409.0 405.7 L 1404.0 404.4 L 1405.6 408.6 M 1409.0 405.7 L 1403.1 407.9 M 1500.7 339.0 L 1501.4 339.7 L 1501.6 340.5 L 1501.4 341.4 L 1501.2 341.7 L 1500.5 342.3 L 1499.7 342.6 L 1498.8 342.4 L 1498.5 342.2 L 1497.9 341.5 L 1497.7 340.7 L 1497.9 339.8 L 1498.0 339.5 L 1498.7 338.9 L 1499.5 338.6 L 1500.7 339.0 L 1502.0 339.7 L 1503.2 340.7 L 1503.7 341.7 L 1503.5 342.6 L 1503.2 343.2 L 1502.5 343.8 L 1501.8 343.7 M 1500.7 337.7 L 1500.7 337.0 L 1500.4 335.8 L 1505.8 338.9 M 1510.4 292.1 L 1511.4 292.3 L 1511.9 291.9 L 1512.2 291.4 L 1512.2 290.7 L 1511.8 290.1 L 1510.9 289.3 L 1510.2 288.6 L 1509.9 287.8 L 1510.0 287.2 L 1510.4 286.4 L 1510.9 286.0 L 1511.3 285.8 L 1512.3 286.0 L 1513.3 286.5 L 1514.0 287.2 L 1514.1 287.6 L 1514.1 288.3 L 1513.7 289.1 L 1513.2 289.5 L 1512.3 289.7 L 1511.4 289.6 L 1510.2 289.3 L 1509.5 289.3 L 1509.0 289.7 L 1508.7 290.2 L 1508.7 290.9 L 1509.4 291.6 L 1510.6 292.2 M 1503.4 288.5 L 1509.0 284.3 M 1507.1 290.4 L 1503.4 288.5 M 1456.5 564.7 L 1451.8 566.8 L 1455.7 569.1 M 1456.5 564.7 L 1453.4 570.2 M 1487.6 551.2 L 1486.9 551.2 L 1486.3 551.9 L 1486.0 552.4 L 1485.9 553.4 L 1486.4 554.3 L 1487.6 555.2 L 1489.0 555.9 L 1490.2 556.1 L 1491.0 555.8 L 1491.7 555.2 L 1491.8 554.9 L 1491.9 554.0 L 1491.6 553.2 L 1491.0 552.5 L 1490.7 552.4 L 1489.8 552.2 L 1489.0 552.5 L 1488.3 553.2 L 1488.2 553.5 L 1488.0 554.4 L 1488.3 555.2 L 1489.0 555.9 M 1489.8 546.6 L 1489.1 546.7 L 1488.5 547.3 L 1488.2 547.9 L 1488.1 548.8 L 1488.6 549.8 L 1489.8 550.7 L 1491.2 551.3 L 1492.4 551.6 L 1493.2 551.3 L 1493.9 550.6 L 1494.0 550.4 L 1494.1 549.4 L 1493.8 548.6 L 1493.2 547.9 L 1492.9 547.8 L 1492.0 547.7 L 1491.2 548.0 L 1490.5 548.7 L 1490.4 548.9 L 1490.2 549.9 L 1490.5 550.7 L 1491.2 551.3 M 1488.7 40.7 L 1489.6 40.6 L 1490.4 39.8 L 1490.9 38.3 L 1491.0 37.4 L 1490.9 35.9 L 1490.5 34.9 L 1489.6 34.5 L 1489.0 34.4 L 1488.1 34.6 L 1487.4 35.4 L 1486.9 36.8 L 1486.7 37.7 L 1486.8 39.2 L 1487.3 40.2 L 1488.1 40.6 L 1488.6 40.7 M 1459.4 46.6 L 1460.0 46.5 L 1460.6 45.8 L 1460.8 45.2 L 1460.9 44.3 L 1460.2 43.4 L 1458.9 42.6 L 1457.5 42.1 L 1456.3 42.0 L 1455.5 42.3 L 1454.9 43.1 L 1454.8 43.4 L 1454.8 44.3 L 1455.2 45.1 L 1455.9 45.7 L 1456.2 45.8 L 1457.1 45.8 L 1457.9 45.4 L 1458.5 44.7 L 1458.6 44.4 L 1458.6 43.5 L 1458.3 42.7 L 1457.5 42.1 M 1458.4 52.1 L 1453.5 47.1 M 1459.8 48.1 L 1458.4 52.1"
       id="nums_003"
       stroke="black"
       stroke-width="1" />
    <path
       d="m 1408.6,220.9 -36.7,68.9 -82,-16.7 0.7,60.6 82.7,7.6 -64.9,42 -63.8,-4.3 49.5,40.4 70.1,32.5 107,-8.9 38.8,21.1 1,55.7 -32.4,66.9 -53.1,-30 -39.2,32.1 -23.8,47.5 -41.1,5.1 4.6,-49 -14.7,-66.9 -9.1,-63.6 -9.5,63.6 -1.8,68.4 7.5,48.6 -51.3,20.1 -76.3,24.3 -68.9,-41.9 52.6,-47.1 -17.1,-43 74.2,10.2 14.6,-60.1 -46.3,41 -34.2,-66.5 70.9,-29.6 -72.4,-25.8 -43.9,-14.7 35.2,-61.3 60.3,23.1 29.3,-64.3 -58.2,40 -12.8,-63.2 11.8,-79.8 -54.4,-58.8 36.8,-9 30.1,-13.7 40.5,5.7 30.4,85.1 88.2,8.1 -72.3,-51.2 -3.7,-90.2 31.4,-11 34.4,-29.5 16.7,33.5 -19.4,76.9 74.1,25.9 -47.9,-62.1 58.3,-53.9 12.3,68.7 24.2,-65.4 12.8,-35.2 61.6,9.3 -16.8,72.4 18.7,52.4 -57.4,25.9 61.6,13.3 5,44 -42.4,26.6 44.5,22.9 -53.3,93.2 -68.8,46.3 -21.8,-56.4 27.4,-79.2 z"
       id="coupes_003"
       stroke="#ff0000"
       stroke-width="1.27"
       sodipodi:nodetypes="cccccccccccccccccccccccccccccccccccccccccccccccccccccccccccccccccccccccc" />
    <path
       d="M 1249.3 213.2 L 1154.1 283.7 M 1165.9 203.9 L 1249.3 213.2 M 1165.9 203.9 L 1218.9 128.1 M 1165.9 203.9 L 1178.4 122.4 M 1165.9 203.9 L 1148.3 136.1 M 1225.1 306.9 L 1154.1 283.7 M 1249.3 213.2 L 1225.1 306.9 M 1289.9 273.1 L 1225.1 306.9 M 1337.5 221.3 L 1289.9 273.1 M 1337.5 221.3 L 1371.9 289.8 M 1337.5 221.3 L 1408.6 220.9 M 1337.5 221.3 L 1398.7 175.7 M 1398.7 175.7 L 1408.6 220.9 M 1464.5 187.8 L 1408.6 220.9 M 1398.7 175.7 L 1464.5 187.8 M 1398.7 175.7 L 1421.4 128.4 M 1421.4 128.4 L 1464.5 187.8 M 1350.8 113.6 L 1421.4 128.4 M 1337.5 221.3 L 1324.6 149.8 M 1421.4 128.4 L 1503.2 109.5 M 1503.2 109.5 L 1464.5 187.8 M 1265.2 170.1 L 1324.6 149.8 M 1261.5 79.9 L 1324.6 149.8 M 1292.9 68.9 L 1324.6 149.8 M 1292.9 68.9 L 1344.0 72.9 M 1290.6 333.7 L 1225.1 306.9 M 1290.6 333.7 L 1244.6 379.0 M 1244.6 379.0 L 1225.1 306.9 M 1290.6 333.7 L 1308.4 383.3 M 1244.6 379.0 L 1195.8 371.2 M 1244.6 379.0 L 1216.6 449.9 M 1216.6 449.9 L 1195.8 371.2 M 1294.1 419.4 L 1216.6 449.9 M 1302.2 461.9 L 1216.6 449.9 M 1294.1 419.4 L 1302.2 461.9 M 1364.2 451.9 L 1302.2 461.9 M 1471.2 443.0 L 1311.3 525.5 M 1386.3 588.8 L 1311.3 525.5 M 1471.2 443.0 L 1386.3 588.8 M 1471.2 443.0 L 1425.5 556.7 M 1362.5 636.3 L 1326.0 592.4 M 1226.2 505.0 L 1216.6 449.9 M 1302.2 461.9 L 1226.2 505.0 M 1292.7 525.5 L 1226.2 505.0 M 1290.9 593.9 L 1226.2 505.0 M 1290.9 593.9 L 1211.6 565.1 M 1247.1 662.6 L 1211.6 565.1 M 1247.1 662.6 L 1154.5 597.9 M 1154.5 597.9 L 1211.6 565.1 M 1170.8 686.9 L 1154.5 597.9 M 1226.2 505.0 L 1145.7 479.5 M 1144.2 424.1 L 1195.8 371.2 M 1144.2 424.1 L 1135.5 348.1 M 1464.5 187.8 L 1488.7 271.7 M 1488.7 271.7 L 1408.6 220.9 M 1488.7 271.7 L 1416.7 298.5 M 1526.1 201.1 L 1488.7 271.7 M 1488.7 271.7 L 1479.9 387.8 M 1479.9 387.8 L 1416.7 298.5"
       id="plisM_003"
       stroke="brown"
       stroke-dasharray="4" />
    <path
       d="M 1199.7 246.4 L 1203.7 250.4 M 1203.7 246.4 L 1199.7 250.4 M 1205.6 206.5 L 1209.6 210.5 M 1209.6 206.5 L 1205.6 210.5 M 1190.4 164.0 L 1194.4 168.0 M 1194.4 164.0 L 1190.4 168.0 M 1170.1 161.1 L 1174.1 165.1 M 1174.1 161.1 L 1170.1 165.1 M 1155.1 168.0 L 1159.1 172.0 M 1159.1 168.0 L 1155.1 172.0 M 1187.6 293.3 L 1191.6 297.3 M 1191.6 293.3 L 1187.6 297.3 M 1235.2 258.1 L 1239.2 262.1 M 1239.2 258.1 L 1235.2 262.1 M 1255.5 288.0 L 1259.5 292.0 M 1259.5 288.0 L 1255.5 292.0 M 1311.7 245.2 L 1315.7 249.2 M 1315.7 245.2 L 1311.7 249.2 M 1352.7 253.6 L 1356.7 257.6 M 1356.7 253.6 L 1352.7 257.6 M 1371.1 219.1 L 1375.1 223.1 M 1375.1 219.1 L 1371.1 223.1 M 1366.1 196.5 L 1370.1 200.5 M 1370.1 196.5 L 1366.1 200.5 M 1401.6 196.3 L 1405.6 200.3 M 1405.6 196.3 L 1401.6 200.3 M 1434.5 202.3 L 1438.5 206.3 M 1438.5 202.3 L 1434.5 206.3 M 1429.6 179.7 L 1433.6 183.7 M 1433.6 179.7 L 1429.6 183.7 M 1408.0 150.1 L 1412.0 154.1 M 1412.0 150.1 L 1408.0 154.1 M 1441.0 156.1 L 1445.0 160.1 M 1445.0 156.1 L 1441.0 160.1 M 1384.1 119.0 L 1388.1 123.0 M 1388.1 119.0 L 1384.1 123.0 M 1329.1 183.6 L 1333.1 187.6 M 1333.1 183.6 L 1329.1 187.6 M 1460.3 117.0 L 1464.3 121.0 M 1464.3 117.0 L 1460.3 121.0 M 1481.9 146.6 L 1485.9 150.6 M 1485.9 146.6 L 1481.9 150.6 M 1292.9 158.0 L 1296.9 162.0 M 1296.9 158.0 L 1292.9 162.0 M 1291.0 112.9 L 1295.0 116.9 M 1295.0 112.9 L 1291.0 116.9 M 1306.7 107.4 L 1310.7 111.4 M 1310.7 107.4 L 1306.7 111.4 M 1316.4 68.9 L 1320.4 72.9 M 1320.4 68.9 L 1316.4 72.9 M 1255.9 318.3 L 1259.9 322.3 M 1259.9 318.3 L 1255.9 322.3 M 1265.6 354.3 L 1269.6 358.3 M 1269.6 354.3 L 1265.6 358.3 M 1232.9 340.9 L 1236.9 344.9 M 1236.9 340.9 L 1232.9 344.9 M 1297.5 356.5 L 1301.5 360.5 M 1301.5 356.5 L 1297.5 360.5 M 1218.2 373.1 L 1222.2 377.1 M 1222.2 373.1 L 1218.2 377.1 M 1228.6 412.4 L 1232.6 416.4 M 1232.6 412.4 L 1228.6 416.4 M 1204.2 408.5 L 1208.2 412.5 M 1208.2 408.5 L 1204.2 412.5 M 1253.3 432.6 L 1257.3 436.6 M 1257.3 432.6 L 1253.3 436.6 M 1257.4 453.9 L 1261.4 457.9 M 1261.4 453.9 L 1257.4 457.9 M 1296.2 438.7 L 1300.2 442.7 M 1300.2 438.7 L 1296.2 442.7 M 1331.2 454.9 L 1335.2 458.9 M 1335.2 454.9 L 1331.2 458.9 M 1389.3 482.3 L 1393.3 486.3 M 1393.3 482.3 L 1389.3 486.3 M 1346.8 555.1 L 1350.8 559.1 M 1350.8 555.1 L 1346.8 559.1 M 1426.7 513.9 L 1430.7 517.9 M 1430.7 513.9 L 1426.7 517.9 M 1446.3 497.8 L 1450.3 501.8 M 1450.3 497.8 L 1446.3 501.8 M 1342.3 612.3 L 1346.3 616.3 M 1346.3 612.3 L 1342.3 616.3 M 1219.4 475.4 L 1223.4 479.4 M 1223.4 475.4 L 1219.4 479.4 M 1262.2 481.5 L 1266.2 485.5 M 1266.2 481.5 L 1262.2 485.5 M 1257.4 513.2 L 1261.4 517.2 M 1261.4 513.2 L 1257.4 517.2 M 1256.5 547.4 L 1260.5 551.4 M 1260.5 547.4 L 1256.5 551.4 M 1249.2 577.5 L 1253.2 581.5 M 1253.2 577.5 L 1249.2 581.5 M 1227.3 611.9 L 1231.3 615.9 M 1231.3 611.9 L 1227.3 615.9 M 1198.8 628.2 L 1202.8 632.2 M 1202.8 628.2 L 1198.8 632.2 M 1181.0 579.5 L 1185.0 583.5 M 1185.0 579.5 L 1181.0 583.5 M 1160.7 640.4 L 1164.7 644.4 M 1164.7 640.4 L 1160.7 644.4 M 1183.9 490.2 L 1187.9 494.2 M 1187.9 490.2 L 1183.9 494.2 M 1168.0 395.6 L 1172.0 399.6 M 1172.0 395.6 L 1168.0 399.6 M 1137.9 384.1 L 1141.9 388.1 M 1141.9 384.1 L 1137.9 388.1 M 1474.6 227.7 L 1478.6 231.7 M 1478.6 227.7 L 1474.6 231.7 M 1446.6 244.3 L 1450.6 248.3 M 1450.6 244.3 L 1446.6 248.3 M 1450.7 283.1 L 1454.7 287.1 M 1454.7 283.1 L 1450.7 287.1 M 1505.4 234.4 L 1509.4 238.4 M 1509.4 234.4 L 1505.4 238.4 M 1482.3 327.7 L 1486.3 331.7 M 1486.3 327.7 L 1482.3 331.7 M 1446.3 341.2 L 1450.3 345.2 M 1450.3 341.2 L 1446.3 345.2"
       display="none"
       id="marqueM_003"
       stroke="brown" />
    <path
       d="M 1249.3 213.2 L 1289.9 273.1 M 1445.6 63.0 L 1503.2 109.5 M 1364.2 451.9 L 1311.3 525.5 M 1511.0 519.8 L 1425.5 556.7 M 1471.2 443.0 L 1511.0 519.8 M 1386.3 588.8 L 1326.0 592.4 M 1290.9 593.9 L 1247.1 662.6 M 1445.6 63.0 L 1520.0 37.1 M 1479.9 387.8 L 1389.3 377.7"
       id="plisV_003"
       stroke="green"
       stroke-dasharray="4 1 1 1"
       stroke-width="1.27" />
    <path
       d="M 1267.6 241.2 L 1271.6 245.2 M 1271.6 241.2 L 1267.6 245.2 M 1472.4 84.2 L 1476.4 88.2 M 1476.4 84.2 L 1472.4 88.2 M 1335.8 486.7 L 1339.8 490.7 M 1339.8 486.7 L 1335.8 490.7 M 1466.2 536.2 L 1470.2 540.2 M 1470.2 536.2 L 1466.2 540.2 M 1489.1 479.4 L 1493.1 483.4 M 1493.1 479.4 L 1489.1 483.4 M 1354.1 588.6 L 1358.1 592.6 M 1358.1 588.6 L 1354.1 592.6 M 1267.0 626.2 L 1271.0 630.2 M 1271.0 626.2 L 1267.0 630.2 M 1480.8 48.0 L 1484.8 52.0 M 1484.8 48.0 L 1480.8 52.0 M 1432.6 380.7 L 1436.6 384.7 M 1436.6 380.7 L 1432.6 384.7"
       id="marqueV_003"
       stroke="green" />
    <path
       d="m 1311.9396,345.77364 h 8.3 l -4.5,6 h 2.2 l 1.5,0.7 0.8,0.8 0.7,2.2 v 1.5 l -0.7,2.3 -1.5,1.5 -2.3,0.7 h -2.2 l -2.3,-0.7 -0.7,-0.8 -0.8,-1.5"
       id="titre_3"
       stroke="#4b0082" />
  </g>
</svg>
