<?xml version="1.0" encoding="UTF-8" standalone="no"?>
<!-- Created with Inkscape (http://www.inkscape.org/) -->

<svg
   version="1.1"
   id="svg457"
   width="1132"
   height="1132"
   viewBox="0 0 1132 1132"
   sodipodi:docname="0.svg"
   inkscape:version="1.2.2 (732a01da63, 2022-12-09, custom)"
   xmlns:inkscape="http://www.inkscape.org/namespaces/inkscape"
   xmlns:sodipodi="http://sodipodi.sourceforge.net/DTD/sodipodi-0.dtd"
   xmlns="http://www.w3.org/2000/svg"
   xmlns:svg="http://www.w3.org/2000/svg">
  <defs
     id="defs461" />
  <sodipodi:namedview
     id="namedview459"
     pagecolor="#ffffff"
     bordercolor="#666666"
     borderopacity="1.0"
     inkscape:showpageshadow="2"
     inkscape:pageopacity="0.0"
     inkscape:pagecheckerboard="0"
     inkscape:deskcolor="#d1d1d1"
     showgrid="false"
     inkscape:zoom="0.65989399"
     inkscape:cx="565.2423"
     inkscape:cy="566"
     inkscape:window-width="1920"
     inkscape:window-height="1009"
     inkscape:window-x="0"
     inkscape:window-y="0"
     inkscape:window-maximized="1"
     inkscape:current-layer="g465">
    <inkscape:page
       x="0"
       y="0"
       id="page463"
       width="1132"
       height="1132" />
  </sodipodi:namedview>
  <g
     id="g465"
     inkscape:groupmode="layer"
     inkscape:label="Page 1"
     transform="matrix(1.3333333,0,0,1.3333333,0,2.83e-5)">
    <path
       d="m 592.504,413.789 c 0,0.664 0.226,1.191 0.684,1.582 0.453,0.387 1.074,0.578 1.867,0.578 0.785,0 1.406,-0.191 1.867,-0.578 0.453,-0.391 0.68,-0.918 0.68,-1.582 0,-0.664 -0.227,-1.191 -0.684,-1.574 -0.457,-0.391 -1.082,-0.586 -1.867,-0.586 -0.789,0 -1.414,0.195 -1.867,0.586 -0.454,0.387 -0.68,0.91 -0.68,1.574 z m -4.637,-2.934 h 1.348 c -0.176,0.372 -0.313,0.747 -0.403,1.129 -0.093,0.375 -0.14,0.75 -0.14,1.121 0,0.977 0.332,1.723 0.992,2.239 0.656,0.515 1.656,0.804 2.988,0.879 -0.425,-0.289 -0.75,-0.649 -0.976,-1.082 -0.231,-0.438 -0.344,-0.914 -0.344,-1.438 0,-1.098 0.332,-1.965 1,-2.601 0.664,-0.637 1.57,-0.957 2.719,-0.961 1.121,0 2.023,0.332 2.703,0.996 0.68,0.664 1.019,1.547 1.019,2.648 0,1.266 -0.484,2.235 -1.449,2.903 -0.972,0.671 -2.375,1.003 -4.219,1.007 -1.726,0 -3.105,-0.41 -4.128,-1.23 -1.032,-0.817 -1.547,-1.918 -1.551,-3.301 0,-0.371 0.039,-0.746 0.109,-1.121 0.074,-0.379 0.184,-0.777 0.332,-1.188 z m 9.457,15.563 -0.004,-2.418 -8.34,0.008 0.528,2.629 h -1.348 l -0.527,-2.614 -0.004,-1.48 9.691,-0.008 v -2.414 l 1.242,-0.004 0.004,6.301 z M 256.703,426.5 c -0.004,-0.664 -0.23,-1.191 -0.683,-1.582 -0.454,-0.387 -1.079,-0.578 -1.868,-0.578 -0.789,0 -1.41,0.195 -1.867,0.578 -0.457,0.394 -0.683,0.922 -0.68,1.586 0,0.664 0.227,1.187 0.68,1.574 0.461,0.391 1.082,0.582 1.867,0.582 0.793,0 1.414,-0.195 1.868,-0.586 0.457,-0.386 0.683,-0.91 0.683,-1.574 z m 4.637,2.934 h -1.348 c 0.176,-0.372 0.309,-0.746 0.403,-1.129 0.093,-0.375 0.136,-0.75 0.136,-1.121 0,-0.977 -0.328,-1.723 -0.988,-2.239 -0.66,-0.511 -1.656,-0.804 -2.988,-0.879 0.422,0.289 0.75,0.649 0.972,1.086 0.231,0.434 0.344,0.91 0.348,1.434 0,1.098 -0.336,1.965 -1.004,2.602 -0.664,0.64 -1.57,0.96 -2.715,0.96 -1.125,0 -2.027,-0.332 -2.703,-0.996 -0.68,-0.664 -1.019,-1.547 -1.019,-2.648 -0.004,-1.266 0.48,-2.234 1.445,-2.902 0.973,-0.668 2.379,-1.004 4.219,-1.008 1.73,0 3.105,0.41 4.132,1.23 1.032,0.821 1.547,1.918 1.547,3.301 0,0.371 -0.035,0.746 -0.109,1.121 -0.074,0.383 -0.184,0.777 -0.328,1.188 z m -9.457,-15.563 v 2.418 l 8.344,-0.004 -0.532,-2.633 h 1.348 l 0.531,2.618 v 1.476 l -9.691,0.008 0.004,2.418 h -1.246 l -0.004,-6.301 z m -37.817,3.32 -0.004,-5.808 1.243,-0.004 0.004,4.453 h 2.679 c -0.07,-0.215 -0.125,-0.43 -0.16,-0.644 -0.039,-0.215 -0.058,-0.43 -0.058,-0.645 0,-1.219 0.332,-2.188 1,-2.902 0.671,-0.711 1.574,-1.071 2.718,-1.071 1.176,0 2.094,0.368 2.746,1.098 0.653,0.73 0.977,1.766 0.977,3.098 0,0.457 -0.039,0.925 -0.117,1.406 -0.078,0.473 -0.196,0.965 -0.348,1.473 h -1.488 c 0.238,-0.438 0.418,-0.895 0.535,-1.364 0.113,-0.469 0.172,-0.965 0.172,-1.484 0,-0.848 -0.223,-1.516 -0.668,-2.008 -0.442,-0.492 -1.047,-0.738 -1.809,-0.738 -0.761,0 -1.363,0.246 -1.808,0.742 -0.446,0.492 -0.664,1.16 -0.664,2.004 0,0.398 0.043,0.793 0.132,1.187 0.086,0.391 0.223,0.793 0.411,1.204 z m 9.696,9.289 -0.004,-2.414 -8.34,0.004 0.527,2.629 h -1.347 l -0.528,-2.613 v -1.481 l 9.688,-0.003 v -2.418 H 225 l 0.004,6.296 z m 411.383,-3.378 0.003,5.808 h -1.246 l -0.004,-4.453 h -2.679 c 0.074,0.215 0.125,0.43 0.16,0.645 0.039,0.214 0.059,0.429 0.059,0.644 0.003,1.223 -0.333,2.188 -1,2.902 -0.668,0.715 -1.575,1.071 -2.715,1.071 -1.18,0 -2.094,-0.364 -2.75,-1.098 -0.649,-0.73 -0.973,-1.762 -0.977,-3.098 0,-0.457 0.039,-0.925 0.117,-1.406 0.078,-0.472 0.196,-0.965 0.352,-1.472 h 1.484 c -0.238,0.441 -0.414,0.894 -0.531,1.363 -0.117,0.469 -0.176,0.965 -0.176,1.488 0,0.844 0.223,1.512 0.668,2.004 0.445,0.492 1.047,0.738 1.809,0.738 0.761,0 1.367,-0.246 1.808,-0.738 0.446,-0.496 0.668,-1.164 0.668,-2.008 0,-0.394 -0.047,-0.793 -0.133,-1.187 -0.089,-0.391 -0.226,-0.789 -0.414,-1.2 z m -9.7,-9.293 0.004,2.418 8.344,-0.008 -0.531,-2.629 h 1.347 l 0.532,2.613 v 1.481 l -9.692,0.007 0.004,2.414 -1.246,0.004 -0.004,-6.3 z m 71.196,278.011 -3.731,5.84 3.735,-0.004 z m -0.391,-1.289 1.859,-0.004 0.008,7.129 h 1.559 v 1.231 h -1.559 v 2.578 h -1.469 l -0.003,-2.578 -4.938,0.004 v -1.43 z m -12.953,9.699 2.418,-0.003 -0.008,-8.344 -2.629,0.531 v -1.348 l 2.613,-0.531 h 1.481 l 0.008,9.692 2.414,-0.004 0.004,1.246 -6.301,0.004 z M 97.555,586.02 l -6.606,2.097 2.871,2.391 z m 0.527,-1.239 1.43,1.192 -4.559,5.476 1.199,1 -0.789,0.946 -1.199,-1 -1.648,1.984 -1.133,-0.941 1.648,-1.985 -3.793,-3.156 0.914,-1.098 z m -16.164,-0.84 1.859,1.543 5.336,-6.41 -2.359,-1.277 0.863,-1.035 2.348,1.265 1.137,0.95 -6.2,7.445 1.86,1.547 -0.797,0.957 -4.84,-4.028 z m 681.394,-29.918 c 0.708,0.153 1.262,0.469 1.657,0.946 0.402,0.476 0.601,1.07 0.601,1.773 0,1.078 -0.371,1.914 -1.109,2.504 -0.742,0.59 -1.797,0.887 -3.164,0.887 -0.461,0.004 -0.934,-0.043 -1.422,-0.137 -0.484,-0.086 -0.984,-0.223 -1.5,-0.402 l -0.004,-1.426 c 0.41,0.238 0.859,0.418 1.348,0.539 0.488,0.121 1,0.184 1.531,0.184 0.93,0 1.633,-0.184 2.117,-0.551 0.488,-0.367 0.731,-0.899 0.731,-1.598 0,-0.644 -0.227,-1.148 -0.68,-1.508 -0.449,-0.367 -1.078,-0.55 -1.883,-0.55 l -1.277,0.004 v -1.219 h 1.332 c 0.73,0 1.285,-0.145 1.672,-0.434 0.386,-0.293 0.578,-0.711 0.578,-1.258 0,-0.562 -0.203,-0.992 -0.602,-1.289 -0.394,-0.304 -0.965,-0.453 -1.707,-0.453 -0.406,0 -0.84,0.043 -1.304,0.133 -0.465,0.086 -0.973,0.223 -1.532,0.41 v -1.32 c 0.563,-0.156 1.086,-0.274 1.575,-0.352 0.492,-0.078 0.957,-0.117 1.39,-0.117 1.125,0 2.016,0.254 2.668,0.766 0.656,0.507 0.984,1.199 0.984,2.066 0,0.606 -0.171,1.117 -0.519,1.539 -0.348,0.414 -0.84,0.703 -1.481,0.863 z m -13.761,4.661 h 2.418 l -0.008,-8.344 -2.629,0.531 v -1.348 l 2.613,-0.531 h 1.481 l 0.008,9.692 2.414,-0.004 0.004,1.246 -6.301,0.004 z m -23.035,94.304 c 0.152,-0.707 0.464,-1.261 0.945,-1.656 0.477,-0.398 1.066,-0.602 1.769,-0.602 1.079,0 1.915,0.372 2.508,1.114 0.59,0.742 0.887,1.797 0.887,3.164 0,0.457 -0.047,0.93 -0.137,1.418 -0.09,0.484 -0.222,0.984 -0.402,1.504 h -1.43 c 0.239,-0.41 0.422,-0.86 0.543,-1.348 0.121,-0.488 0.18,-1 0.18,-1.531 0,-0.93 -0.184,-1.633 -0.551,-2.117 -0.363,-0.489 -0.898,-0.731 -1.598,-0.731 -0.644,0 -1.144,0.227 -1.507,0.684 -0.364,0.449 -0.547,1.074 -0.547,1.883 v 1.273 h -1.215 v -1.332 c 0,-0.731 -0.145,-1.285 -0.434,-1.672 -0.293,-0.383 -0.715,-0.578 -1.261,-0.578 -0.559,0.004 -0.989,0.203 -1.289,0.601 -0.301,0.399 -0.454,0.965 -0.454,1.708 0,0.406 0.047,0.839 0.133,1.304 0.09,0.465 0.227,0.973 0.414,1.531 h -1.32 c -0.156,-0.562 -0.273,-1.085 -0.352,-1.574 -0.078,-0.492 -0.117,-0.957 -0.117,-1.39 -0.004,-1.125 0.254,-2.012 0.766,-2.668 0.508,-0.653 1.195,-0.981 2.066,-0.981 0.606,-0.004 1.117,0.172 1.535,0.516 0.418,0.347 0.707,0.84 0.868,1.48 z m 4.66,13.762 -0.004,-2.414 -8.34,0.004 0.527,2.629 h -1.347 l -0.528,-2.614 v -1.48 l 9.688,-0.004 v -2.418 h 1.242 l 0.004,6.297 z m -45.942,-45.934 -5.164,0.004 v -1.246 l 6.942,-0.004 v 1.246 c -0.559,0.582 -1.324,1.36 -2.289,2.336 -0.973,0.985 -1.582,1.618 -1.832,1.899 -0.473,0.535 -0.801,0.984 -0.985,1.351 -0.191,0.371 -0.285,0.735 -0.285,1.09 0,0.582 0.203,1.055 0.613,1.422 0.407,0.363 0.938,0.547 1.59,0.547 0.465,0 0.957,-0.082 1.473,-0.242 0.512,-0.16 1.062,-0.407 1.648,-0.735 v 1.496 c -0.593,0.239 -1.152,0.418 -1.668,0.543 -0.519,0.122 -0.992,0.184 -1.422,0.184 -1.132,0 -2.035,-0.281 -2.71,-0.848 -0.672,-0.566 -1.012,-1.324 -1.012,-2.269 0,-0.449 0.086,-0.879 0.254,-1.285 0.168,-0.399 0.472,-0.871 0.918,-1.418 0.121,-0.145 0.507,-0.555 1.16,-1.235 0.656,-0.672 1.578,-1.617 2.769,-2.836 z m 10.559,-0.004 h -2.418 l 0.004,8.344 2.629,-0.531 v 1.348 l -2.613,0.531 h -1.481 l -0.004,-9.692 -2.418,0.004 v -1.246 l 6.297,-0.004 z m -14.715,-35.992 3.965,-3.308 0.797,0.953 -5.332,4.449 -0.797,-0.957 c 0.059,-0.805 0.144,-1.891 0.262,-3.262 0.117,-1.375 0.179,-2.25 0.191,-2.629 0.024,-0.711 -0.012,-1.269 -0.105,-1.668 -0.09,-0.406 -0.25,-0.746 -0.481,-1.019 -0.371,-0.449 -0.832,-0.68 -1.383,-0.699 -0.543,-0.02 -1.066,0.179 -1.57,0.597 -0.355,0.297 -0.68,0.672 -0.977,1.129 -0.289,0.453 -0.554,0.992 -0.796,1.617 l -0.957,-1.148 c 0.304,-0.563 0.617,-1.059 0.937,-1.484 0.316,-0.426 0.645,-0.778 0.973,-1.051 0.871,-0.727 1.746,-1.086 2.625,-1.086 0.879,0.004 1.625,0.371 2.23,1.098 0.289,0.343 0.496,0.726 0.625,1.148 0.129,0.414 0.199,0.973 0.207,1.676 -0.004,0.187 -0.039,0.754 -0.105,1.691 -0.071,0.938 -0.176,2.254 -0.309,3.953 z m -8.109,6.762 1.855,-1.547 -5.344,-6.406 -1.679,2.09 -0.863,-1.035 1.667,-2.079 1.137,-0.949 6.207,7.442 1.856,-1.551 0.8,0.957 -4.835,4.035 z m 122.453,-175.055 -0.004,-2.418 -8.34,0.008 0.527,2.629 h -1.347 l -0.528,-2.613 -0.003,-1.481 9.691,-0.007 -0.004,-2.415 1.246,-0.003 0.004,6.3 z m 0.004,9.539 v -2.414 l -8.344,0.004 0.531,2.629 h -1.347 l -0.532,-2.613 v -1.481 l 9.692,-0.003 -0.004,-2.418 h 1.246 l 0.004,6.296 z M 53.789,423.758 v 2.418 l 8.344,-0.008 -0.531,-2.629 h 1.347 l 0.531,2.617 v 1.477 l -9.691,0.008 0.004,2.418 h -1.246 l -0.004,-6.301 z m -0.008,-9.539 v 2.418 L 62.125,416.629 61.598,414 h 1.347 l 0.528,2.613 v 1.481 l -9.688,0.008 v 2.414 l -1.246,0.004 -0.004,-6.301 z M 786.578,226.25 c 0,0.762 0.379,1.336 1.129,1.719 0.75,0.383 1.875,0.57 3.379,0.57 1.5,0 2.625,-0.191 3.375,-0.574 0.746,-0.387 1.121,-0.961 1.121,-1.723 0,-0.765 -0.375,-1.34 -1.121,-1.719 -0.754,-0.386 -1.879,-0.578 -3.379,-0.578 -1.504,0 -2.629,0.196 -3.375,0.582 -0.754,0.383 -1.129,0.957 -1.129,1.723 z m -1.172,0 c 0,-1.227 0.485,-2.16 1.457,-2.805 0.965,-0.652 2.371,-0.976 4.219,-0.976 1.84,-0.004 3.246,0.32 4.219,0.969 0.969,0.644 1.453,1.578 1.453,2.804 0,1.227 -0.484,2.164 -1.449,2.813 -0.973,0.644 -2.379,0.968 -4.219,0.972 -1.844,0 -3.25,-0.32 -4.219,-0.965 -0.972,-0.648 -1.457,-1.585 -1.461,-2.812 z m 9.899,12.441 -0.004,-2.418 -8.34,0.004 0.527,2.629 -1.347,0.004 -0.528,-2.617 -0.004,-1.477 9.692,-0.007 -0.004,-2.418 h 1.246 l 0.004,6.3 z M 88.148,260.297 c 0.563,-0.516 0.731,-1.18 0.508,-1.996 -0.226,-0.809 -0.847,-1.766 -1.863,-2.875 -1.012,-1.102 -1.914,-1.805 -2.703,-2.102 -0.789,-0.289 -1.465,-0.176 -2.028,0.34 -0.562,0.52 -0.734,1.18 -0.507,1.988 0.222,0.817 0.843,1.778 1.855,2.879 1.016,1.11 1.922,1.809 2.711,2.098 0.789,0.297 1.465,0.183 2.027,-0.332 z m 0.793,0.863 c -0.902,0.828 -1.918,1.102 -3.05,0.82 -1.133,-0.273 -2.325,-1.089 -3.571,-2.449 -1.246,-1.355 -1.957,-2.609 -2.136,-3.765 -0.176,-1.149 0.183,-2.137 1.086,-2.965 0.906,-0.828 1.921,-1.106 3.054,-0.832 1.133,0.277 2.321,1.097 3.567,2.453 1.246,1.359 1.961,2.613 2.136,3.762 0.18,1.156 -0.183,2.148 -1.086,2.976 z m 2.485,-15.703 -1.778,1.633 5.641,6.148 1.578,-2.168 0.914,0.992 -1.57,2.157 -1.09,1.004 -6.555,-7.141 -1.781,1.633 -0.84,-0.914 4.641,-4.262 z m 666.265,-57.445 v 1.347 c -0.371,-0.171 -0.75,-0.308 -1.129,-0.398 -0.382,-0.094 -0.753,-0.141 -1.121,-0.141 -0.976,0 -1.722,0.328 -2.234,0.985 -0.516,0.66 -0.809,1.656 -0.883,2.996 0.281,-0.422 0.641,-0.742 1.074,-0.969 0.438,-0.227 0.918,-0.336 1.446,-0.336 1.094,-0.004 1.961,0.328 2.601,0.984 0.633,0.665 0.953,1.571 0.953,2.719 0,1.121 -0.332,2.024 -0.996,2.703 -0.664,0.68 -1.547,1.02 -2.648,1.02 -1.266,0 -2.231,-0.484 -2.895,-1.457 -0.671,-0.965 -1.007,-2.371 -1.007,-4.219 0,-1.723 0.41,-3.098 1.226,-4.129 0.817,-1.027 1.914,-1.539 3.297,-1.543 0.371,0 0.746,0.039 1.129,0.11 0.379,0.074 0.777,0.183 1.187,0.328 z m -2.941,4.64 c -0.664,0 -1.191,0.227 -1.574,0.68 -0.391,0.457 -0.586,1.078 -0.586,1.871 0,0.785 0.195,1.406 0.586,1.859 0.386,0.458 0.91,0.688 1.574,0.688 0.664,0 1.191,-0.23 1.582,-0.691 0.387,-0.454 0.578,-1.075 0.578,-1.86 0,-0.793 -0.191,-1.414 -0.578,-1.867 -0.391,-0.453 -0.918,-0.68 -1.582,-0.68 z m -634.223,-20.64 1.348,-0.004 c -0.176,0.371 -0.313,0.75 -0.402,1.129 -0.094,0.383 -0.141,0.754 -0.141,1.121 0,0.976 0.328,1.722 0.984,2.234 0.661,0.516 1.657,0.813 2.996,0.883 -0.421,-0.281 -0.742,-0.641 -0.968,-1.074 -0.223,-0.438 -0.336,-0.918 -0.336,-1.446 -0.004,-1.093 0.328,-1.96 0.984,-2.597 0.664,-0.637 1.57,-0.953 2.719,-0.957 1.121,0 2.023,0.332 2.703,0.996 0.68,0.664 1.02,1.547 1.02,2.648 0,1.266 -0.485,2.231 -1.457,2.895 -0.965,0.672 -2.372,1.008 -4.219,1.008 -1.723,0 -3.098,-0.407 -4.129,-1.227 -1.027,-0.816 -1.539,-1.914 -1.543,-3.297 0,-0.371 0.039,-0.746 0.109,-1.129 0.075,-0.379 0.184,-0.773 0.332,-1.183 z m 4.637,2.941 c 0,0.664 0.227,1.188 0.684,1.574 0.453,0.387 1.074,0.582 1.867,0.582 0.785,0 1.406,-0.195 1.859,-0.586 0.457,-0.386 0.688,-0.91 0.688,-1.574 0,-0.664 -0.231,-1.191 -0.692,-1.582 -0.453,-0.387 -1.074,-0.578 -1.859,-0.578 -0.789,0 -1.414,0.195 -1.867,0.578 -0.453,0.395 -0.68,0.922 -0.68,1.586 z m 594.676,58.445 c -0.004,-0.703 -0.192,-1.257 -0.567,-1.66 -0.375,-0.402 -0.894,-0.601 -1.554,-0.601 -0.657,0 -1.176,0.203 -1.551,0.601 -0.375,0.407 -0.563,0.961 -0.563,1.664 0,0.703 0.188,1.258 0.563,1.664 0.383,0.403 0.902,0.606 1.555,0.606 0.66,0 1.175,-0.203 1.55,-0.61 0.379,-0.402 0.567,-0.953 0.567,-1.664 z m 0.629,-1.48 c 0.152,-0.633 0.449,-1.129 0.883,-1.484 0.433,-0.352 0.964,-0.532 1.589,-0.532 0.875,0 1.567,0.313 2.075,0.93 0.507,0.625 0.761,1.48 0.761,2.563 0,1.089 -0.254,1.945 -0.757,2.566 -0.508,0.621 -1.2,0.93 -2.075,0.93 -0.625,0 -1.156,-0.176 -1.59,-0.532 -0.433,-0.351 -0.73,-0.843 -0.886,-1.472 -0.164,0.711 -0.489,1.265 -0.973,1.664 -0.484,0.398 -1.074,0.601 -1.773,0.601 -1.059,0 -1.871,-0.324 -2.438,-0.972 -0.566,-0.645 -0.851,-1.571 -0.851,-2.778 0,-1.207 0.281,-2.132 0.847,-2.781 0.567,-0.648 1.379,-0.969 2.438,-0.969 0.699,0 1.289,0.2 1.773,0.598 0.485,0.402 0.809,0.957 0.977,1.668 z m 2.336,-0.543 c -0.567,0 -1.012,0.176 -1.328,0.531 -0.317,0.356 -0.473,0.852 -0.473,1.492 0,0.637 0.156,1.129 0.476,1.489 0.317,0.359 0.758,0.539 1.325,0.539 0.566,0 1.007,-0.18 1.328,-0.543 0.316,-0.356 0.472,-0.852 0.472,-1.488 0,-0.637 -0.16,-1.137 -0.476,-1.493 -0.317,-0.351 -0.758,-0.527 -1.324,-0.527 z m -48.883,20.223 c 0.519,0.472 1.055,0.711 1.609,0.707 0.547,-0.008 1.043,-0.254 1.489,-0.743 0.445,-0.484 0.648,-1.003 0.605,-1.55 -0.043,-0.551 -0.324,-1.063 -0.844,-1.539 -0.519,-0.473 -1.054,-0.707 -1.609,-0.707 -0.555,0.007 -1.055,0.254 -1.496,0.738 -0.446,0.484 -0.645,1.004 -0.598,1.555 0.039,0.546 0.32,1.058 0.844,1.539 z m 0.668,1.461 c 0.359,0.546 0.527,1.097 0.496,1.66 -0.035,0.558 -0.262,1.066 -0.684,1.527 -0.59,0.645 -1.285,0.945 -2.086,0.902 -0.804,-0.046 -1.605,-0.437 -2.406,-1.171 -0.801,-0.735 -1.262,-1.497 -1.375,-2.293 -0.113,-0.793 0.125,-1.512 0.715,-2.157 0.422,-0.461 0.91,-0.73 1.465,-0.808 0.555,-0.086 1.117,0.027 1.687,0.34 -0.414,-0.606 -0.605,-1.219 -0.57,-1.844 0.031,-0.625 0.281,-1.195 0.754,-1.711 0.715,-0.781 1.504,-1.164 2.363,-1.141 0.86,0.016 1.735,0.434 2.621,1.246 0.891,0.817 1.383,1.649 1.481,2.508 0.094,0.852 -0.219,1.668 -0.934,2.449 -0.472,0.516 -1.015,0.817 -1.64,0.903 -0.622,0.086 -1.25,-0.051 -1.887,-0.41 z m -1.18,2.089 c 0.383,-0.418 0.551,-0.859 0.508,-1.332 -0.051,-0.476 -0.309,-0.929 -0.781,-1.359 -0.469,-0.43 -0.942,-0.648 -1.418,-0.652 -0.481,-0.012 -0.914,0.191 -1.297,0.609 -0.383,0.418 -0.547,0.867 -0.496,1.344 0.051,0.476 0.308,0.926 0.777,1.355 0.473,0.434 0.945,0.653 1.422,0.657 0.477,0.003 0.902,-0.204 1.285,-0.622 z m -362.383,-63.265 -4.75,5.187 -0.465,-0.425 -4.917,-9.887 1.043,-1.141 4.624,9.301 3.547,-3.875 z m -51.843,-15.555 -0.004,-7.031 h 0.629 l 10.308,3.961 v 1.547 l -9.691,-3.731 0.004,5.254 z m -65.176,-37.137 c 0.664,0 1.191,-0.226 1.582,-0.683 0.387,-0.453 0.578,-1.074 0.578,-1.867 0,-0.786 -0.195,-1.407 -0.578,-1.868 -0.395,-0.453 -0.922,-0.679 -1.586,-0.679 -0.664,0 -1.188,0.226 -1.574,0.683 -0.391,0.457 -0.582,1.082 -0.582,1.868 0,0.789 0.195,1.414 0.586,1.867 0.386,0.453 0.91,0.679 1.574,0.679 z m -2.934,4.637 v -1.348 c 0.371,0.176 0.746,0.313 1.129,0.403 0.375,0.094 0.75,0.14 1.121,0.14 0.977,0 1.723,-0.332 2.238,-0.992 0.512,-0.66 0.805,-1.656 0.879,-2.988 -0.289,0.426 -0.648,0.75 -1.086,0.977 -0.433,0.23 -0.91,0.343 -1.433,0.343 -1.098,0 -1.965,-0.332 -2.602,-1 -0.64,-0.664 -0.961,-1.57 -0.961,-2.718 0,-1.122 0.332,-2.024 0.996,-2.704 0.665,-0.679 1.547,-1.019 2.649,-1.019 1.266,0 2.234,0.48 2.902,1.449 0.668,0.969 1.004,2.375 1.008,4.219 0,1.726 -0.41,3.105 -1.23,4.129 -0.821,1.031 -1.918,1.547 -3.301,1.551 -0.371,0 -0.746,-0.04 -1.121,-0.11 -0.383,-0.074 -0.778,-0.183 -1.188,-0.332 z m 376.559,80.02 c 0.664,-0.004 1.191,-0.231 1.578,-0.684 0.387,-0.453 0.578,-1.078 0.578,-1.867 0,-0.789 -0.191,-1.41 -0.578,-1.867 -0.391,-0.453 -0.918,-0.684 -1.582,-0.68 -0.664,0 -1.191,0.227 -1.574,0.68 -0.391,0.461 -0.586,1.082 -0.586,1.867 0,0.793 0.195,1.414 0.586,1.871 0.386,0.453 0.914,0.68 1.578,0.68 z m -2.938,4.636 v -1.347 c 0.371,0.175 0.75,0.308 1.129,0.402 0.375,0.094 0.75,0.137 1.121,0.137 0.977,0 1.723,-0.328 2.243,-0.988 0.511,-0.661 0.8,-1.657 0.874,-2.989 -0.289,0.426 -0.648,0.75 -1.082,0.973 -0.437,0.23 -0.914,0.348 -1.437,0.348 -1.098,0 -1.965,-0.336 -2.602,-1.004 -0.636,-0.664 -0.957,-1.571 -0.961,-2.715 0,-1.125 0.332,-2.024 0.997,-2.703 0.664,-0.68 1.546,-1.02 2.648,-1.02 1.266,-0.004 2.234,0.481 2.902,1.445 0.672,0.973 1.008,2.379 1.008,4.219 0,1.731 -0.41,3.106 -1.226,4.133 -0.821,1.031 -1.922,1.547 -3.305,1.547 -0.371,0 -0.742,-0.035 -1.121,-0.11 -0.379,-0.074 -0.778,-0.183 -1.188,-0.328 z m -208.718,-33.046 -4.286,-3.922 0.84,-0.918 3.285,3.004 1.813,-1.977 c -0.211,-0.09 -0.406,-0.195 -0.586,-0.316 -0.184,-0.118 -0.355,-0.247 -0.516,-0.391 -0.898,-0.824 -1.386,-1.723 -1.461,-2.699 -0.074,-0.977 0.274,-1.883 1.047,-2.727 0.793,-0.867 1.68,-1.297 2.664,-1.285 0.977,0.016 1.961,0.473 2.942,1.375 0.34,0.309 0.66,0.656 0.961,1.035 0.293,0.379 0.578,0.797 0.847,1.254 l -1.004,1.098 c -0.164,-0.473 -0.378,-0.914 -0.644,-1.317 -0.266,-0.402 -0.594,-0.781 -0.977,-1.132 -0.625,-0.571 -1.269,-0.86 -1.933,-0.864 -0.664,-0.004 -1.25,0.274 -1.766,0.836 -0.515,0.563 -0.738,1.172 -0.676,1.832 0.063,0.66 0.407,1.278 1.032,1.848 0.289,0.266 0.613,0.5 0.964,0.703 0.348,0.199 0.735,0.371 1.161,0.508 z m 112.296,59.917 -4.277,3.93 -0.844,-0.918 3.282,-3.012 -1.813,-1.976 c -0.109,0.199 -0.23,0.387 -0.367,0.555 -0.129,0.175 -0.277,0.336 -0.434,0.48 -0.898,0.824 -1.84,1.234 -2.816,1.223 -0.977,-0.012 -1.852,-0.438 -2.625,-1.282 -0.797,-0.867 -1.145,-1.789 -1.047,-2.765 0.102,-0.973 0.641,-1.91 1.625,-2.813 0.336,-0.308 0.707,-0.597 1.113,-0.863 0.403,-0.262 0.844,-0.508 1.325,-0.738 l 1.003,1.097 c -0.484,0.122 -0.941,0.297 -1.367,0.528 -0.422,0.23 -0.828,0.523 -1.211,0.875 -0.625,0.57 -0.965,1.187 -1.027,1.847 -0.066,0.661 0.16,1.274 0.676,1.832 0.515,0.563 1.105,0.84 1.769,0.833 0.664,-0.004 1.305,-0.293 1.93,-0.864 0.289,-0.269 0.551,-0.566 0.785,-0.898 0.227,-0.332 0.43,-0.703 0.606,-1.117 z m -107.085,-16.738 1.785,6.699 2.519,-2.757 z m -1.211,-0.582 1.253,-1.375 5.258,4.813 1.055,-1.149 0.906,0.828 -1.054,1.153 1.902,1.742 -0.992,1.086 -1.903,-1.742 -3.336,3.64 -1.05,-0.965 z m 20.406,51.781 3.73,-5.839 h -3.734 z m 0.39,1.289 h -1.863 l -0.004,-7.125 h -1.558 l -0.004,-1.23 h 1.562 l -0.004,-2.578 1.473,-0.004 0.004,2.578 h 4.933 l 0.004,1.426 z m 119.305,372.024 c -0.152,0.711 -0.465,1.262 -0.945,1.656 -0.477,0.403 -1.067,0.602 -1.77,0.602 -1.078,0 -1.914,-0.367 -2.508,-1.11 -0.589,-0.742 -0.886,-1.797 -0.886,-3.164 0,-0.461 0.047,-0.933 0.136,-1.422 0.09,-0.484 0.223,-0.984 0.403,-1.5 l 1.43,-0.003 c -0.239,0.41 -0.418,0.859 -0.543,1.347 -0.122,0.488 -0.18,1 -0.18,1.531 0,0.93 0.183,1.633 0.551,2.118 0.367,0.488 0.898,0.73 1.597,0.73 0.645,0 1.145,-0.226 1.508,-0.68 0.363,-0.449 0.547,-1.078 0.547,-1.882 v -1.274 l 1.215,-0.004 v 1.336 c 0,0.727 0.144,1.281 0.433,1.668 0.293,0.387 0.715,0.578 1.262,0.578 0.563,0 0.992,-0.203 1.289,-0.601 0.301,-0.395 0.453,-0.965 0.453,-1.707 0,-0.407 -0.047,-0.84 -0.132,-1.305 -0.09,-0.461 -0.227,-0.973 -0.415,-1.531 h 1.321 c 0.156,0.562 0.273,1.086 0.351,1.574 0.078,0.496 0.117,0.957 0.117,1.394 0.004,1.122 -0.253,2.012 -0.765,2.665 -0.508,0.656 -1.195,0.984 -2.067,0.984 -0.605,0 -1.117,-0.172 -1.535,-0.52 -0.418,-0.347 -0.707,-0.839 -0.867,-1.48 z M 384.785,642.688 c 0.707,0.148 1.258,0.464 1.656,0.941 0.399,0.48 0.598,1.07 0.602,1.773 0,1.078 -0.371,1.914 -1.113,2.504 -0.742,0.594 -1.797,0.891 -3.164,0.891 -0.457,0 -0.934,-0.047 -1.422,-0.141 -0.481,-0.086 -0.985,-0.218 -1.5,-0.398 v -1.43 c 0.41,0.238 0.859,0.418 1.347,0.539 0.489,0.125 0.997,0.184 1.532,0.184 0.925,0 1.632,-0.184 2.117,-0.551 0.484,-0.367 0.73,-0.898 0.73,-1.598 0,-0.644 -0.23,-1.148 -0.683,-1.507 -0.449,-0.368 -1.078,-0.547 -1.883,-0.547 h -1.274 v -1.215 l 1.332,-0.004 c 0.727,0 1.286,-0.145 1.668,-0.43 0.387,-0.293 0.579,-0.715 0.579,-1.261 0,-0.563 -0.2,-0.993 -0.602,-1.29 -0.395,-0.3 -0.965,-0.453 -1.707,-0.453 -0.402,0 -0.84,0.047 -1.301,0.133 -0.465,0.09 -0.976,0.227 -1.531,0.41 v -1.316 c 0.559,-0.156 1.086,-0.274 1.574,-0.352 0.492,-0.082 0.957,-0.121 1.391,-0.121 1.121,0 2.012,0.258 2.668,0.77 0.652,0.508 0.98,1.195 0.98,2.062 0,0.606 -0.172,1.121 -0.519,1.539 -0.344,0.414 -0.84,0.703 -1.477,0.868 z m 183.742,57.617 5.164,-0.004 v 1.246 l -6.945,0.004 v -1.242 c 0.563,-0.582 1.324,-1.364 2.293,-2.34 0.969,-0.981 1.578,-1.614 1.828,-1.899 0.473,-0.531 0.805,-0.98 0.988,-1.347 0.192,-0.371 0.286,-0.735 0.286,-1.09 0,-0.582 -0.207,-1.055 -0.618,-1.422 -0.406,-0.367 -0.933,-0.551 -1.589,-0.547 -0.461,0 -0.954,0.078 -1.473,0.242 -0.512,0.16 -1.059,0.406 -1.645,0.731 l -0.004,-1.492 c 0.598,-0.239 1.153,-0.422 1.672,-0.543 0.516,-0.122 0.993,-0.184 1.422,-0.184 1.133,0 2.035,0.281 2.707,0.848 0.676,0.566 1.012,1.32 1.016,2.269 0,0.449 -0.086,0.875 -0.258,1.281 -0.164,0.403 -0.469,0.875 -0.914,1.422 -0.121,0.141 -0.508,0.551 -1.164,1.231 -0.652,0.676 -1.574,1.621 -2.766,2.836 z m -373.621,-84.653 5.16,-0.004 0.004,1.243 -6.945,0.007 v -1.246 c 0.563,-0.582 1.324,-1.359 2.289,-2.336 0.973,-0.984 1.582,-1.617 1.832,-1.898 0.473,-0.535 0.801,-0.984 0.988,-1.352 0.188,-0.371 0.286,-0.734 0.286,-1.089 0,-0.582 -0.208,-1.055 -0.618,-1.422 -0.406,-0.364 -0.937,-0.547 -1.59,-0.547 -0.464,0 -0.953,0.082 -1.472,0.242 -0.512,0.16 -1.063,0.406 -1.649,0.734 v -1.496 c 0.598,-0.238 1.153,-0.418 1.672,-0.543 0.516,-0.121 0.989,-0.183 1.418,-0.183 1.133,0 2.039,0.281 2.711,0.847 0.676,0.567 1.012,1.325 1.012,2.27 0,0.449 -0.082,0.879 -0.254,1.285 -0.168,0.398 -0.473,0.871 -0.914,1.418 -0.121,0.145 -0.512,0.555 -1.164,1.234 -0.656,0.672 -1.578,1.618 -2.766,2.836 z m 227.074,-8.402 -0.003,-2.418 -8.34,0.004 0.527,2.629 h -1.348 l -0.527,-2.613 -0.004,-1.481 9.692,-0.004 -0.004,-2.418 h 1.246 l 0.004,6.297 z m 37.375,-20.332 1.86,1.547 5.336,-6.414 -2.36,-1.278 0.864,-1.035 2.347,1.266 1.137,0.949 -6.199,7.445 1.859,1.547 -0.797,0.957 -4.843,-4.027 z m -108.07,19.973 c 0,-0.762 -0.375,-1.336 -1.129,-1.723 -0.746,-0.379 -1.871,-0.57 -3.375,-0.57 -1.5,0.004 -2.625,0.195 -3.379,0.574 -0.746,0.387 -1.117,0.961 -1.117,1.723 0,0.765 0.375,1.339 1.121,1.722 0.75,0.383 1.879,0.574 3.375,0.574 1.504,0 2.629,-0.195 3.379,-0.582 0.75,-0.379 1.125,-0.953 1.125,-1.718 z m 1.172,-0.004 c 0,1.226 -0.484,2.164 -1.457,2.808 -0.965,0.649 -2.371,0.977 -4.215,0.977 -1.844,0 -3.25,-0.324 -4.223,-0.973 -0.964,-0.644 -1.449,-1.578 -1.449,-2.804 0,-1.223 0.481,-2.165 1.446,-2.813 0.972,-0.644 2.379,-0.969 4.218,-0.969 1.848,-0.004 3.254,0.321 4.219,0.965 0.973,0.649 1.461,1.586 1.461,2.809 z M 299.27,580.586 c -0.586,0.488 -0.786,1.144 -0.598,1.969 0.183,0.82 0.758,1.804 1.723,2.961 0.96,1.148 1.828,1.89 2.601,2.226 0.774,0.324 1.457,0.246 2.039,-0.242 0.59,-0.492 0.789,-1.148 0.606,-1.965 -0.188,-0.824 -0.758,-1.812 -1.719,-2.961 -0.965,-1.156 -1.832,-1.898 -2.61,-2.222 -0.773,-0.336 -1.453,-0.254 -2.042,0.234 z m -0.75,-0.898 c 0.941,-0.786 1.968,-1.012 3.085,-0.68 1.118,0.328 2.27,1.199 3.454,2.617 1.175,1.414 1.828,2.699 1.953,3.863 0.125,1.157 -0.285,2.125 -1.227,2.91 -0.937,0.786 -1.969,1.016 -3.086,0.688 -1.117,-0.332 -2.265,-1.207 -3.445,-2.617 -1.184,-1.418 -1.836,-2.703 -1.961,-3.86 -0.125,-1.164 0.285,-2.136 1.227,-2.921 z"
       style="fill:#0000ff;fill-opacity:1;fill-rule:nonzero;stroke:none"
       id="path469" />
    <path
       d="m 389.617,111.5 107.512,2.391 m -1.887,84.875 -107.512,-2.387 m 219.606,-97.859 107.519,2.39 m -1.886,84.879 -107.516,-2.387 m -463.937,112.407 0.164,249.043 m 373.402,-249.29 0.164,249.043 m -266.027,0.172 -0.16,-249.035 M 622.785,544.531 622.621,295.492 M 645.477,618.098 645.531,703 M 119.09,618.445 51.133,561.887 m 747.129,-0.489 -84.903,0.055 m 0,0 -67.882,56.645 m -594.344,-56.211 -0.188,-283 m 662.227,-0.434 84.902,-0.055 m -84.902,0.055 0.187,283 M 50.945,278.887 118.824,216.582 m 0,0 -0.054,-84.898 m 526.441,84.554 67.961,62.215 m -594.348,-61.871 152.821,-0.098 m -0.055,-84.902 0.055,84.902 m 220.746,-0.144 152.82,-0.102 m -373.566,0.246 67.964,62.215 m 84.903,-0.058 67.879,-62.301 m -152.782,62.359 84.903,-0.058 m 220.965,339.457 -152.825,0.101 m -67.898,31.86 -84.902,0.054 m -67.942,-31.769 -152.82,0.101 m 373.562,-0.246 -67.957,-56.554 m 0,0 -84.902,0.054 m 0,0 -67.883,56.645 m 67.699,-339.645 0.184,283 m 84.719,-283.058 0.183,283.004"
       style="fill:none;stroke:#800000;stroke-width:1;stroke-linecap:butt;stroke-linejoin:miter;stroke-miterlimit:10;stroke-dasharray:8, 8;stroke-dashoffset:0;stroke-opacity:1"
       id="path473" />
    <path
       d="m 483.703,158.336 0.156,-7.027 0.629,0.011 10.215,4.2 -0.035,1.542 -9.602,-3.949 -0.117,5.25 z m -41.672,-38.113 c 0.664,0.015 1.196,-0.2 1.598,-0.645 0.394,-0.445 0.601,-1.062 0.617,-1.855 0.02,-0.785 -0.16,-1.411 -0.535,-1.879 -0.379,-0.461 -0.902,-0.703 -1.566,-0.715 -0.665,-0.016 -1.196,0.199 -1.59,0.644 -0.403,0.45 -0.61,1.071 -0.629,1.856 -0.016,0.789 0.164,1.418 0.547,1.879 0.375,0.465 0.894,0.703 1.558,0.715 z m -3.039,4.57 0.031,-1.348 c 0.368,0.184 0.739,0.328 1.118,0.43 0.375,0.102 0.746,0.156 1.117,0.164 0.976,0.02 1.73,-0.293 2.262,-0.937 0.527,-0.649 0.843,-1.641 0.945,-2.969 -0.297,0.418 -0.664,0.734 -1.106,0.949 -0.437,0.219 -0.918,0.324 -1.441,0.313 -1.098,-0.024 -1.957,-0.379 -2.578,-1.063 -0.625,-0.676 -0.926,-1.59 -0.899,-2.738 0.024,-1.121 0.375,-2.016 1.055,-2.68 0.68,-0.664 1.57,-0.98 2.676,-0.957 1.262,0.027 2.219,0.531 2.867,1.512 0.645,0.988 0.949,2.402 0.91,4.242 -0.039,1.727 -0.48,3.094 -1.324,4.101 -0.844,1.012 -1.953,1.504 -3.336,1.473 -0.371,-0.008 -0.742,-0.055 -1.117,-0.137 -0.379,-0.082 -0.774,-0.199 -1.18,-0.355 z m -37.844,27.504 -0.128,5.805 -1.247,-0.028 0.102,-4.453 -2.684,-0.059 c 0.071,0.219 0.121,0.434 0.149,0.649 0.035,0.215 0.051,0.43 0.043,0.644 -0.028,1.223 -0.383,2.18 -1.067,2.879 -0.683,0.7 -1.597,1.036 -2.738,1.008 -1.18,-0.023 -2.086,-0.41 -2.723,-1.16 -0.632,-0.746 -0.933,-1.785 -0.906,-3.117 0.012,-0.457 0.059,-0.926 0.149,-1.403 0.09,-0.472 0.218,-0.96 0.382,-1.464 l 1.489,0.031 c -0.25,0.437 -0.438,0.887 -0.567,1.351 -0.125,0.465 -0.195,0.961 -0.207,1.485 -0.019,0.844 0.188,1.515 0.621,2.019 0.434,0.504 1.032,0.762 1.793,0.782 0.762,0.015 1.371,-0.219 1.825,-0.7 0.457,-0.484 0.691,-1.148 0.711,-1.992 0.007,-0.398 -0.028,-0.793 -0.106,-1.191 -0.078,-0.391 -0.207,-0.793 -0.383,-1.207 z m 42.27,34.168 -3.863,5.754 3.734,0.082 z m -0.359,-1.297 1.859,0.043 -0.156,7.125 1.558,0.035 -0.027,1.231 -1.559,-0.036 -0.058,2.579 -1.473,-0.036 0.059,-2.578 -4.934,-0.109 0.031,-1.426 z M 706.57,140.699 c 0.168,-0.703 0.496,-1.25 0.985,-1.633 0.484,-0.39 1.082,-0.578 1.785,-0.562 1.078,0.023 1.902,0.414 2.476,1.168 0.575,0.758 0.848,1.816 0.817,3.183 -0.008,0.461 -0.067,0.934 -0.168,1.418 -0.102,0.481 -0.246,0.977 -0.438,1.493 l -1.429,-0.032 c 0.25,-0.406 0.441,-0.851 0.574,-1.336 0.133,-0.484 0.203,-0.996 0.215,-1.527 0.023,-0.926 -0.145,-1.637 -0.5,-2.129 -0.356,-0.496 -0.883,-0.75 -1.582,-0.765 -0.645,-0.016 -1.153,0.199 -1.524,0.648 -0.375,0.437 -0.57,1.063 -0.59,1.867 l -0.027,1.274 -1.215,-0.028 0.028,-1.332 c 0.015,-0.726 -0.114,-1.285 -0.395,-1.679 -0.285,-0.391 -0.699,-0.594 -1.246,-0.606 -0.563,-0.012 -0.996,0.18 -1.301,0.574 -0.312,0.387 -0.476,0.953 -0.492,1.696 -0.012,0.406 0.023,0.839 0.102,1.304 0.078,0.465 0.203,0.981 0.375,1.539 l -1.317,-0.027 c -0.144,-0.566 -0.25,-1.094 -0.316,-1.582 -0.067,-0.496 -0.098,-0.961 -0.086,-1.395 0.023,-1.121 0.301,-2.003 0.828,-2.648 0.519,-0.644 1.215,-0.953 2.086,-0.934 0.605,0.012 1.113,0.196 1.527,0.551 0.406,0.356 0.684,0.856 0.828,1.5 z m -44.945,-38.226 -5.16,-0.114 0.027,-1.246 6.942,0.153 -0.028,1.246 c -0.574,0.57 -1.355,1.332 -2.344,2.285 -0.992,0.961 -1.617,1.578 -1.874,1.855 -0.485,0.524 -0.825,0.965 -1.016,1.325 -0.199,0.367 -0.305,0.73 -0.313,1.085 -0.011,0.583 0.184,1.059 0.586,1.434 0.395,0.375 0.922,0.57 1.575,0.586 0.464,0.008 0.957,-0.059 1.48,-0.211 0.516,-0.148 1.07,-0.379 1.664,-0.695 l -0.035,1.496 c -0.602,0.223 -1.16,0.394 -1.68,0.504 -0.523,0.109 -0.996,0.16 -1.426,0.152 -1.132,-0.027 -2.031,-0.328 -2.691,-0.91 -0.66,-0.582 -0.98,-1.348 -0.961,-2.293 0.012,-0.449 0.106,-0.875 0.285,-1.277 0.176,-0.395 0.492,-0.864 0.949,-1.399 0.125,-0.14 0.52,-0.539 1.192,-1.203 0.668,-0.66 1.613,-1.586 2.828,-2.773 z m -52.457,37.156 -0.051,2.414 8.34,0.187 -0.469,-2.64 1.348,0.027 0.469,2.625 -0.035,1.481 -9.688,-0.215 -0.051,2.418 -1.246,-0.028 0.141,-6.3 z m 51.285,33.531 c -0.762,-0.015 -1.344,0.348 -1.746,1.09 -0.398,0.738 -0.613,1.859 -0.645,3.363 -0.035,1.496 0.129,2.629 0.497,3.387 0.367,0.758 0.933,1.141 1.695,1.16 0.766,0.016 1.348,-0.344 1.746,-1.082 0.402,-0.746 0.617,-1.863 0.652,-3.363 0.032,-1.504 -0.132,-2.633 -0.504,-3.391 -0.363,-0.758 -0.929,-1.148 -1.695,-1.164 z m 0.027,-1.172 c 1.223,0.028 2.149,0.535 2.77,1.52 0.629,0.98 0.922,2.394 0.883,4.238 -0.043,1.84 -0.399,3.238 -1.071,4.195 -0.664,0.954 -1.609,1.418 -2.835,1.391 -1.227,-0.027 -2.153,-0.531 -2.778,-1.512 -0.625,-0.988 -0.914,-2.402 -0.875,-4.242 0.043,-1.844 0.395,-3.242 1.059,-4.195 0.672,-0.957 1.621,-1.422 2.847,-1.395 z m -474.218,136.227 -7.032,0.008 -0.003,-0.633 3.964,-10.305 1.547,-0.004 -3.73,9.696 5.25,-0.004 z m 383.761,-20.242 c -0.664,0 -1.191,0.226 -1.582,0.679 -0.386,0.457 -0.578,1.078 -0.578,1.871 0,0.786 0.192,1.407 0.578,1.868 0.391,0.453 0.918,0.679 1.582,0.679 0.665,0 1.192,-0.226 1.575,-0.683 0.39,-0.457 0.586,-1.082 0.586,-1.867 0,-0.793 -0.196,-1.415 -0.586,-1.868 -0.387,-0.453 -0.91,-0.679 -1.575,-0.679 z m 2.934,-4.641 v 1.348 c -0.371,-0.172 -0.746,-0.309 -1.129,-0.399 -0.375,-0.093 -0.75,-0.14 -1.121,-0.14 -0.977,0 -1.723,0.332 -2.238,0.992 -0.516,0.656 -0.805,1.656 -0.879,2.988 0.289,-0.426 0.648,-0.75 1.082,-0.976 0.437,-0.231 0.914,-0.344 1.437,-0.344 1.098,0 1.965,0.332 2.602,1 0.641,0.664 0.961,1.57 0.961,2.719 0,1.121 -0.332,2.023 -0.996,2.703 -0.664,0.679 -1.547,1.019 -2.649,1.019 -1.265,0 -2.234,-0.484 -2.902,-1.449 -0.672,-0.973 -1.004,-2.375 -1.008,-4.219 0,-1.726 0.41,-3.105 1.231,-4.129 0.816,-1.031 1.918,-1.547 3.3,-1.55 0.372,0 0.747,0.039 1.122,0.109 0.378,0.074 0.777,0.184 1.187,0.328 z m -13.496,24.637 -5.809,0.004 v -1.243 l 4.453,-0.003 v -2.68 c -0.214,0.07 -0.429,0.125 -0.644,0.16 -0.215,0.039 -0.43,0.059 -0.645,0.059 -1.222,0 -2.187,-0.332 -2.902,-1 -0.715,-0.668 -1.07,-1.575 -1.07,-2.719 0,-1.176 0.363,-2.09 1.097,-2.746 0.731,-0.649 1.762,-0.977 3.098,-0.977 0.457,0 0.926,0.039 1.406,0.117 0.473,0.079 0.961,0.196 1.469,0.352 l 0.004,1.484 c -0.441,-0.238 -0.895,-0.418 -1.363,-0.531 -0.469,-0.117 -0.965,-0.176 -1.489,-0.176 -0.843,0 -1.511,0.223 -2.004,0.668 -0.496,0.446 -0.742,1.047 -0.738,1.809 0,0.762 0.246,1.363 0.738,1.808 0.497,0.446 1.165,0.665 2.008,0.665 0.395,0 0.793,-0.043 1.188,-0.133 0.39,-0.086 0.789,-0.223 1.199,-0.41 z m -362.492,-23.34 -3.735,5.84 3.739,-0.004 z m -0.391,-1.289 h 1.86 l 0.007,7.125 h 1.559 v 1.23 h -1.559 v 2.578 h -1.472 v -2.578 l -4.938,0.004 v -1.426 z M 560.18,537.18 c 0.707,0.152 1.258,0.465 1.652,0.945 0.402,0.477 0.602,1.066 0.606,1.77 0,1.082 -0.372,1.917 -1.114,2.507 -0.742,0.59 -1.797,0.887 -3.164,0.887 -0.457,0 -0.933,-0.043 -1.422,-0.137 -0.48,-0.09 -0.984,-0.222 -1.5,-0.402 v -1.43 c 0.41,0.242 0.86,0.422 1.348,0.543 0.488,0.121 0.996,0.184 1.531,0.184 0.926,-0.004 1.633,-0.188 2.113,-0.551 0.489,-0.367 0.735,-0.902 0.735,-1.598 0,-0.644 -0.231,-1.148 -0.684,-1.507 -0.449,-0.368 -1.078,-0.551 -1.883,-0.551 h -1.273 v -1.215 h 1.332 c 0.727,0 1.285,-0.145 1.668,-0.434 0.387,-0.293 0.578,-0.714 0.578,-1.261 0,-0.559 -0.199,-0.989 -0.601,-1.285 -0.395,-0.305 -0.965,-0.454 -1.707,-0.454 -0.403,0 -0.84,0.043 -1.301,0.133 -0.465,0.086 -0.977,0.223 -1.532,0.41 v -1.32 c 0.559,-0.156 1.086,-0.273 1.575,-0.352 0.492,-0.078 0.957,-0.117 1.39,-0.117 1.121,0 2.012,0.254 2.664,0.766 0.657,0.508 0.985,1.195 0.985,2.066 0,0.606 -0.172,1.118 -0.52,1.539 -0.347,0.414 -0.84,0.704 -1.476,0.864 z m 9.433,10.136 h -5.164 v -1.242 l 6.942,-0.008 0.004,1.246 c -0.563,0.583 -1.329,1.36 -2.293,2.34 -0.973,0.981 -1.582,1.614 -1.829,1.899 -0.476,0.531 -0.804,0.98 -0.988,1.347 -0.191,0.372 -0.285,0.735 -0.285,1.09 0,0.582 0.203,1.055 0.617,1.422 0.403,0.363 0.934,0.547 1.59,0.547 0.461,0 0.953,-0.082 1.469,-0.242 0.515,-0.16 1.062,-0.406 1.648,-0.735 v 1.497 c -0.594,0.238 -1.152,0.418 -1.668,0.543 -0.519,0.121 -0.992,0.183 -1.422,0.183 -1.132,0 -2.035,-0.281 -2.711,-0.848 -0.671,-0.566 -1.011,-1.324 -1.011,-2.269 0,-0.449 0.086,-0.879 0.258,-1.281 0.164,-0.403 0.468,-0.875 0.914,-1.422 0.121,-0.145 0.507,-0.555 1.164,-1.235 0.652,-0.671 1.574,-1.617 2.765,-2.836 z m -386.875,-5.238 2.414,-0.004 -0.004,-8.34 -2.628,0.528 v -1.348 l 2.613,-0.527 1.48,-0.004 0.004,9.691 2.418,-0.004 v 1.246 l -6.297,0.004 z m 11.735,14.199 c 0.761,0 1.332,-0.375 1.718,-1.129 0.379,-0.746 0.571,-1.871 0.571,-3.375 0,-1.5 -0.192,-2.625 -0.574,-3.378 -0.387,-0.747 -0.961,-1.118 -1.723,-1.118 -0.766,0 -1.34,0.375 -1.719,1.121 -0.387,0.75 -0.578,1.879 -0.578,3.375 0,1.504 0.195,2.629 0.582,3.379 0.379,0.75 0.953,1.125 1.723,1.125 z m 0,1.172 c -1.227,0 -2.161,-0.484 -2.805,-1.457 -0.652,-0.965 -0.977,-2.371 -0.98,-4.215 0,-1.843 0.324,-3.25 0.972,-4.222 0.645,-0.965 1.578,-1.45 2.805,-1.45 1.226,0 2.164,0.481 2.812,1.446 0.645,0.972 0.969,2.379 0.969,4.219 0.004,1.847 -0.316,3.253 -0.961,4.218 -0.648,0.973 -1.586,1.461 -2.812,1.461 z"
       style="fill:#000000;fill-opacity:1;fill-rule:nonzero;stroke:none"
       id="path475" />
    <path
       d="m 497.129,113.891 14.57,19.429 -1.035,46.684 -15.422,18.762 M 389.617,111.5 l 24.524,-14.457 59.132,1.312 23.856,15.536 m -109.399,82.488 -14.57,-19.43 1.035,-46.683 15.422,-18.766 m 105.625,87.266 -24.523,14.461 -59.133,-1.317 -23.856,-15.531 m 327.125,-95.469 14.571,19.434 -1.035,46.683 -15.422,18.762 M 607.336,98.52 l 24.527,-14.458 59.129,1.313 23.863,15.535 m -109.402,82.492 -14.574,-19.429 1.039,-46.684 15.418,-18.769 m 105.633,87.269 -24.528,14.461 -59.129,-1.312 -23.859,-15.536 m -463.937,112.407 84.902,-0.055 m 396.203,-0.262 -107.539,0.07 m 0,0 84.902,-0.05 m -350.925,0.23 -107.543,0.067 m 458.632,248.742 -84.902,0.054 m 84.738,-249.093 0.164,249.039 m -350.929,0.226 -15.035,-56.023 -0.086,-136.973 14.961,-56.039 m 266.187,248.863 107.539,-0.074 m -396.203,0.266 -84.902,0.055 m 84.738,-249.098 0.164,249.043 m 396.203,-0.266 -15.035,-56.023 -0.09,-136.969 14.961,-56.047 M 141.68,544.852 249.219,544.777 M 733.945,702.941 645.531,703 M 119.09,618.445 94.207,617.25 56.828,586.145 51.133,561.887 m 747.129,-0.489 -19.094,15.012 -46.695,0.031 -19.114,-14.988 m 20.532,56.586 0.054,84.902 m -88.468,-84.843 88.414,-0.059 m -20.532,-56.586 -5.664,24.266 -37.336,31.152 -24.882,1.227 m 152.597,-339.7 0.188,283 M 51.133,561.887 36.09,498.223 35.988,342.57 50.945,278.887 m 747.071,-92.629 0.058,92.14 m -747.129,0.489 5.133,-25.067 37.332,-34.269 25.414,-2.969 m 594.289,-30.27 84.903,-0.054 m -679.192,30.324 -15.008,-19.09 -0.035,-46.695 14.989,-19.113 m 594.402,146.769 -0.059,-92.141 m -67.902,29.926 25.418,2.938 37.379,34.215 5.164,25.062 m -441.527,-61.969 57.328,-62.625 m -57.383,-22.277 15.012,19.094 0.031,46.695 -14.988,19.113 m -152.875,-84.8 152.82,-0.102 m 220.801,84.758 34.375,-15.02 84.05,-0.054 34.395,14.972 m -316.238,-62.379 67.965,62.219 m 27.574,62.563 5.129,-25.067 37.336,-34.265 25.414,-2.969 m -95.453,-0.262 -57.329,62.621 m 0,0 19.09,-15.011 46.699,-0.032 19.114,14.985 m 68.199,424.461 -0.059,-84.903 m -67.898,31.86 -19.09,15.007 -46.699,0.036 -19.113,-14.989 M 645.531,703 l -152.82,0.102 m -220.801,-84.758 -34.375,15.019 -84.051,0.059 -34.394,-14.977 m 305.605,-56.8 0.059,88.414 m 67.898,-31.86 -24.882,-1.195 -37.379,-31.106 -5.696,-24.253 m -84.843,88.468 -0.059,-88.414 m 0,0 -5.66,24.262 -37.34,31.152 -24.883,1.231"
       style="fill:none;stroke:#ff0000;stroke-width:1;stroke-linecap:butt;stroke-linejoin:miter;stroke-miterlimit:10;stroke-dasharray:none;stroke-opacity:1"
       id="path479" />
    <path
       d="m 497.129,113.891 -1.887,84.875 M 387.73,196.379 389.617,111.5 m 325.238,-10.59 -1.886,84.879 m -107.516,-2.387 1.883,-84.882"
       style="fill:none;stroke:#00ff00;stroke-width:1;stroke-linecap:butt;stroke-linejoin:miter;stroke-miterlimit:10;stroke-dasharray:8, 2, 2, 2;stroke-dashoffset:0;stroke-opacity:1"
       id="path483" />
  </g>
</svg>
