<?xml version="1.0" encoding="UTF-8" standalone="no"?>
<!-- Created with Inkscape (http://www.inkscape.org/) -->

<svg
   version="1.1"
   id="svg545"
   width="1132"
   height="1132"
   viewBox="0 0 1132 1132"
   sodipodi:docname="1.svg"
   inkscape:version="1.2.2 (732a01da63, 2022-12-09, custom)"
   xmlns:inkscape="http://www.inkscape.org/namespaces/inkscape"
   xmlns:sodipodi="http://sodipodi.sourceforge.net/DTD/sodipodi-0.dtd"
   xmlns="http://www.w3.org/2000/svg"
   xmlns:svg="http://www.w3.org/2000/svg">
  <defs
     id="defs549" />
  <sodipodi:namedview
     id="namedview547"
     pagecolor="#ffffff"
     bordercolor="#666666"
     borderopacity="1.0"
     inkscape:showpageshadow="2"
     inkscape:pageopacity="0.0"
     inkscape:pagecheckerboard="0"
     inkscape:deskcolor="#d1d1d1"
     showgrid="false"
     inkscape:zoom="0.65989399"
     inkscape:cx="565.2423"
     inkscape:cy="566"
     inkscape:window-width="1920"
     inkscape:window-height="1009"
     inkscape:window-x="0"
     inkscape:window-y="0"
     inkscape:window-maximized="1"
     inkscape:current-layer="g553">
    <inkscape:page
       x="0"
       y="0"
       id="page551"
       width="1132"
       height="1132" />
  </sodipodi:namedview>
  <g
     id="g553"
     inkscape:groupmode="layer"
     inkscape:label="Page 1"
     transform="matrix(1.3333333,0,0,1.3333333,0,2.83e-5)">
    <path
       id="path1437"
       style="font-size:15px;font-family:'DejaVu Sans';-inkscape-font-specification:DejaVuSans;fill:#0000ff"
       d="m 191.16943,73.955086 q 0,0.996094 0.68116,1.582031 0.68115,0.578613 1.86767,0.578613 1.1792,0 1.86768,-0.578613 0.68115,-0.585937 0.68115,-1.582031 0,-0.996094 -0.68115,-1.574707 -0.68848,-0.585938 -1.86768,-0.585938 -1.18652,0 -1.86767,0.585938 -0.68116,0.578613 -0.68116,1.574707 z m -4.63623,-2.937012 h 1.34766 q -0.26367,0.556641 -0.40283,1.12793 -0.13916,0.563965 -0.13916,1.120605 0,1.464844 0.98877,2.241211 0.98877,0.769043 2.98828,0.878906 -0.63721,-0.432129 -0.97412,-1.083984 -0.34424,-0.651855 -0.34424,-1.435547 0,-1.647949 1.00342,-2.600098 0.99609,-0.959472 2.71728,-0.959472 1.68457,0 2.70264,0.996094 1.01806,0.996093 1.01806,2.651367 0,1.896972 -1.45019,2.90039 -1.45752,1.003418 -4.21875,1.003418 -2.59277,0 -4.13086,-1.230468 -1.54541,-1.230469 -1.54541,-3.303223 0,-0.556641 0.10986,-1.120606 0.10987,-0.571289 0.32959,-1.186523 z m 53.46875,54.117176 q 0.9961,0 1.58203,-0.68116 0.57862,-0.68115 0.57862,-1.86767 0,-1.1792 -0.57862,-1.86768 -0.58593,-0.68115 -1.58203,-0.68115 -0.99609,0 -1.5747,0.68115 -0.58594,0.68848 -0.58594,1.86768 0,1.18652 0.58594,1.86767 0.57861,0.68116 1.5747,0.68116 z m -2.93701,4.63623 v -1.34766 q 0.55664,0.26367 1.12793,0.40283 0.56397,0.13916 1.12061,0.13916 1.46484,0 2.24121,-0.98877 0.76904,-0.98877 0.8789,-2.98828 -0.43213,0.63721 -1.08398,0.97412 -0.65186,0.34424 -1.43555,0.34424 -1.64795,0 -2.6001,-1.00342 -0.95947,-0.99609 -0.95947,-2.71728 0,-1.68457 0.9961,-2.70264 0.99609,-1.01806 2.65136,-1.01806 1.89698,0 2.90039,1.45019 1.00342,1.45752 1.00342,4.21875 0,2.59277 -1.23047,4.13086 -1.23047,1.54541 -3.30322,1.54541 -0.55664,0 -1.12061,-0.10986 -0.57128,-0.10987 -1.18652,-0.32959 z M 126.26318,73.212402 v 5.808106 h -1.24512 v -4.453125 h -2.68067 q 0.10987,0.322265 0.16114,0.644531 0.0586,0.322266 0.0586,0.644531 0,1.831055 -1.00342,2.900391 -1.00341,1.069336 -2.71728,1.069336 -1.76514,0 -2.74658,-1.098633 -0.97412,-1.098633 -0.97412,-3.098144 0,-0.688477 0.11718,-1.40625 0.11719,-0.71045 0.35157,-1.472168 h 1.48681 q -0.35889,0.659179 -0.53467,1.362304 -0.17578,0.703125 -0.17578,1.486817 0,1.267089 0.66651,2.006836 0.6665,0.739746 1.80908,0.739746 1.14258,0 1.80908,-0.739746 0.6665,-0.739747 0.6665,-2.006836 0,-0.593262 -0.13183,-1.186524 -0.13184,-0.585937 -0.41016,-1.201172 z M 73.299316,130.01318 h -5.808105 v -1.24512 h 4.453125 v -2.68067 q -0.322266,0.10987 -0.644531,0.16114 -0.322266,0.0586 -0.644532,0.0586 -1.831054,0 -2.90039,-1.00342 -1.069336,-1.00341 -1.069336,-2.71728 0,-1.76514 1.098633,-2.74658 1.098632,-0.97412 3.098144,-0.97412 0.688477,0 1.40625,0.11718 0.710449,0.11719 1.472168,0.35157 v 1.48681 q -0.65918,-0.35889 -1.362305,-0.53467 -0.703125,-0.17578 -1.486816,-0.17578 -1.26709,0 -2.006836,0.66651 -0.739746,0.6665 -0.739746,1.80908 0,1.14258 0.739746,1.80908 0.739746,0.6665 2.006836,0.6665 0.593262,0 1.186524,-0.13183 0.585937,-0.13184 1.201171,-0.41016 z m 81.293454,-86.187496 3.73535,-5.837403 h -3.73535 z m 0.38819,1.289062 h -1.86035 v -7.126465 h -1.56006 v -1.230469 h 1.56006 v -2.578125 h 1.47216 v 2.578125 h 4.93653 v 1.428223 z m 169.41259,83.609364 3.73536,-5.8374 h -3.73536 z m 0.38819,1.28907 h -1.86035 v -7.12647 h -1.56006 v -1.23047 h 1.56006 v -2.57812 h 1.47216 v 2.57812 h 4.93653 v 1.42823 z M 121.22411,564.37549 q -0.22705,1.06201 -0.94482,1.65527 -0.71777,0.60059 -1.77246,0.60059 -1.61865,0 -2.50488,-1.11328 -0.88623,-1.11328 -0.88623,-3.16407 0,-0.68847 0.13916,-1.42089 0.13183,-0.7251 0.40283,-1.50147 h 1.42822 q -0.35889,0.61523 -0.54199,1.34766 -0.18311,0.73242 -0.18311,1.53076 0,1.3916 0.54932,2.1167 0.54932,0.73242 1.59668,0.73242 0.9668,0 1.50879,-0.68115 0.54931,-0.67383 0.54931,-1.88233 v -1.27441 h 1.21582 v 1.33301 q 0,1.09131 0.43213,1.66992 0.43946,0.57861 1.25977,0.57861 0.84228,0 1.28906,-0.60058 0.4541,-0.59327 0.4541,-1.70655 0,-0.60791 -0.13183,-1.30371 -0.13184,-0.6958 -0.41016,-1.53076 h 1.31836 q 0.23437,0.84229 0.35156,1.57471 0.11719,0.73974 0.11719,1.3916 0,1.68457 -0.76904,2.66601 -0.76172,0.98145 -2.06543,0.98145 -0.90821,0 -1.53809,-0.52002 -0.62256,-0.52002 -0.86426,-1.47949 z M 73.867676,512.04541 q 1.062011,0.22705 1.655273,0.94482 0.600586,0.71778 0.600586,1.77247 0,1.61865 -1.113281,2.50488 -1.113281,0.88623 -3.164063,0.88623 -0.688476,0 -1.420898,-0.13916 -0.725098,-0.13184 -1.501465,-0.40283 v -1.42823 q 0.615234,0.35889 1.347656,0.542 0.732422,0.1831 1.530762,0.1831 1.391602,0 2.116699,-0.54932 0.732422,-0.54931 0.732422,-1.59667 0,-0.9668 -0.681152,-1.50879 -0.673828,-0.54932 -1.882324,-0.54932 h -1.274414 v -1.21582 h 1.333007 q 1.091309,0 1.669922,-0.43213 0.578614,-0.43945 0.578614,-1.25977 0,-0.84228 -0.600586,-1.28906 -0.593262,-0.4541 -1.706543,-0.4541 -0.607911,0 -1.303711,0.13184 -0.695801,0.13183 -1.530762,0.41015 v -1.31836 q 0.842285,-0.23437 1.574707,-0.35156 0.739746,-0.11719 1.391602,-0.11719 1.68457,0 2.666015,0.76905 0.981445,0.76172 0.981445,2.06543 0,0.9082 -0.520019,1.53808 -0.52002,0.62256 -1.479492,0.86426 z m 81.819334,89.54932 h 5.16358 v 1.24511 h -6.94336 v -1.24511 q 0.84228,-0.87159 2.29248,-2.33643 1.45752,-1.47217 1.83105,-1.89697 0.71045,-0.79834 0.98877,-1.34766 0.28565,-0.55664 0.28565,-1.09131 0,-0.87158 -0.61524,-1.4209 -0.60791,-0.54931 -1.58935,-0.54931 -0.6958,0 -1.47217,0.2417 -0.76905,0.2417 -1.64795,0.73242 v -1.49414 q 0.89355,-0.35889 1.66992,-0.54199 0.77637,-0.18311 1.4209,-0.18311 1.69922,0 2.70996,0.84961 1.01074,0.84961 1.01074,2.27051 0,0.67383 -0.25635,1.28174 -0.24902,0.60058 -0.91552,1.4209 -0.18311,0.2124 -1.16455,1.23046 -0.98145,1.01075 -2.76856,2.83448 z m 169.79688,-84.89844 h 5.16357 v 1.24512 h -6.94336 v -1.24512 q 0.84229,-0.87158 2.29248,-2.33643 1.45752,-1.47216 1.83106,-1.89697 0.71045,-0.79834 0.98877,-1.34766 0.28564,-0.55664 0.28564,-1.0913 0,-0.87159 -0.61523,-1.4209 -0.60791,-0.54932 -1.58936,-0.54932 -0.6958,0 -1.47217,0.2417 -0.76904,0.2417 -1.64795,0.73242 v -1.49414 q 0.89356,-0.35889 1.66993,-0.54199 0.77636,-0.18311 1.42089,-0.18311 1.69922,0 2.70996,0.84961 1.01075,0.84961 1.01075,2.27051 0,0.67383 -0.25635,1.28174 -0.24902,0.60059 -0.91553,1.4209 -0.1831,0.2124 -1.16455,1.23047 -0.98144,1.01074 -2.76855,2.83447 z m -129.50244,46.58789 v -2.41699 h -8.34229 l 0.52734,2.62939 h -1.34765 l -0.52735,-2.61474 v -1.4795 h 9.68995 v -2.41699 h 1.24511 v 6.29883 z m 43.80078,-46.58789 h 2.41699 V 508.354 l -2.6294,0.52735 v -1.34766 l 2.61475,-0.52734 h 1.47949 v 9.68994 h 2.41699 v 1.24512 h -6.29882 z M 40.390627,319.49854 q 0,-1.14258 -1.12793,-1.7212 -1.120605,-0.57129 -3.376465,-0.57129 -2.248535,0 -3.376464,0.57129 -1.120606,0.57862 -1.120606,1.7212 0,1.1499 1.120606,1.72119 1.127929,0.57861 3.376464,0.57861 2.25586,0 3.376465,-0.57861 1.12793,-0.57129 1.12793,-1.72119 z m 1.171875,0 q 0,1.83837 -1.45752,2.80517 -1.450195,0.97412 -4.21875,0.97412 -2.76123,0 -4.21875,-0.97412 -1.450195,-0.9668 -1.450195,-2.80517 0,-1.83838 1.450195,-2.8125 1.45752,-0.9668 4.21875,-0.9668 2.768555,0 4.21875,0.9668 1.45752,0.97412 1.45752,2.8125 z M 357.06641,317.521 q 0,1.14257 1.12793,1.72119 1.1206,0.57129 3.37646,0.57129 2.24854,0 3.37647,-0.57129 1.1206,-0.57862 1.1206,-1.72119 0,-1.14991 -1.1206,-1.7212 -1.12793,-0.57861 -3.37647,-0.57861 -2.25586,0 -3.37646,0.57861 -1.12793,0.57129 -1.12793,1.7212 z m -1.17188,0 q 0,-1.83838 1.45752,-2.80518 1.4502,-0.97412 4.21875,-0.97412 2.76123,0 4.21875,0.97412 1.4502,0.9668 1.4502,2.80518 0,1.83837 -1.4502,2.8125 -1.45752,0.96679 -4.21875,0.96679 -2.76855,0 -4.21875,-0.96679 -1.45752,-0.97413 -1.45752,-2.8125 z" />
    <path
       id="path661"
       style="fill:none;stroke:#ff0000;stroke-width:1;stroke-linecap:butt;stroke-linejoin:miter;stroke-miterlimit:10;stroke-dasharray:none;stroke-opacity:1"
       d="m 198.727,32.68 v 84.898 m 0,0 19.105,-15 h 46.691 l 19.106,15 m -169.801,0 V 32.68 m -84.898,84.898 19.101,-15 h 46.696 l 19.101,15 m 0,-84.898 h 84.899 m 84.902,84.898 19.101,-15 h 46.696 l 19.101,15 M 113.828,604.34 v -84.899 m 0,0 -19.101,15 H 48.031 l -19.101,-15 m 169.797,84.899 h -84.899 m 254.699,-84.899 -19.101,15 H 302.73 l -19.101,-15 m -84.902,0 v 84.899 m 84.902,-84.899 -19.106,15 h -46.691 l -19.105,-15 m -169.797,0 V 117.578 m 339.597,0 15,90.418 v 221.027 l -15,90.418" />
    <path
       id="path663"
       style="fill:none;stroke:#800000;stroke-width:1;stroke-linecap:butt;stroke-linejoin:miter;stroke-miterlimit:10;stroke-dasharray:8,8;stroke-dashoffset:0;stroke-opacity:1"
       d="m 113.828,117.578 h 84.899 m 0,0 h 84.902 m -254.699,0 h 84.898 m 169.801,0 h 84.898 m -169.8,401.863 h -84.899 m 0,0 H 28.93 m 339.597,0 h -84.898 m 0,0 h -84.902 m 169.8,-401.863 V 519.441 M 283.629,117.578 v 401.863 m -169.801,0 V 117.578 m 84.899,401.863 V 117.578" />
  </g>
</svg>
