<?xml version="1.0" encoding="UTF-8" standalone="no"?>
<!-- Created with Inkscape (http://www.inkscape.org/) -->

<svg
   version="1.1"
   id="svg3725"
   width="1132"
   height="1132"
   viewBox="0 0 1132 1132"
   sodipodi:docname="2.svg"
   inkscape:version="1.2.2 (732a01da63, 2022-12-09, custom)"
   xmlns:inkscape="http://www.inkscape.org/namespaces/inkscape"
   xmlns:sodipodi="http://sodipodi.sourceforge.net/DTD/sodipodi-0.dtd"
   xmlns="http://www.w3.org/2000/svg"
   xmlns:svg="http://www.w3.org/2000/svg">
  <defs
     id="defs3729" />
  <sodipodi:namedview
     id="namedview3727"
     pagecolor="#ffffff"
     bordercolor="#666666"
     borderopacity="1.0"
     inkscape:showpageshadow="2"
     inkscape:pageopacity="0.0"
     inkscape:pagecheckerboard="0"
     inkscape:deskcolor="#d1d1d1"
     showgrid="false"
     showguides="true"
     inkscape:zoom="0.80477032"
     inkscape:cx="565.3787"
     inkscape:cy="531.20746"
     inkscape:window-width="1920"
     inkscape:window-height="1009"
     inkscape:window-x="0"
     inkscape:window-y="0"
     inkscape:window-maximized="1"
     inkscape:current-layer="g3733">
    <inkscape:page
       x="0"
       y="0"
       id="page3731"
       width="1132"
       height="1132" />
  </sodipodi:namedview>
  <g
     id="g3733"
     inkscape:groupmode="layer"
     inkscape:label="Page 1"
     transform="matrix(1.3333333,0,0,1.3333333,0,2.83e-5)">
    <path
       id="path4339"
       style="fill:none;stroke:#00ff00;stroke-width:1;stroke-linecap:butt;stroke-linejoin:miter;stroke-miterlimit:10;stroke-dasharray:8, 2, 2, 2;stroke-dashoffset:0;stroke-opacity:1"
       d="m 666.48764,125.06939 v 84.902 m -84.899,-84.902 v 84.902 m -107.543,-84.902 v 84.902 m 300.29555,449.9911 0.008,84.90005 m -90.56661,-84.89595 0.005,84.89997 m -107.54467,-84.8917 0.005,84.89997" />
    <path
       id="path6893"
       style="font-size:15px;font-family:'DejaVu Sans';-inkscape-font-specification:DejaVuSans"
       d="m 84.84613,126.79645 v 1.34765 q -0.55664,-0.26367 -1.127929,-0.40283 -0.571289,-0.13916 -1.120606,-0.13916 -1.464844,0 -2.233887,0.98145 -0.776367,0.98877 -0.88623,2.9956 0.424805,-0.62988 1.07666,-0.96679 0.651856,-0.33692 1.442871,-0.33692 1.640625,0 2.600098,0.98877 0.952148,0.99609 0.952148,2.71729 0,1.68457 -0.996093,2.70263 -0.996094,1.01807 -2.651368,1.01807 -1.896972,0 -2.893066,-1.45752 -1.003418,-1.4502 -1.003418,-4.21875 0,-2.58545 1.230469,-4.13086 1.223144,-1.53809 3.295898,-1.53809 0.556641,0 1.12793,0.10987 0.571289,0.10986 1.186523,0.32959 z m -2.944336,4.63623 q -0.996093,0 -1.574707,0.68115 -0.585937,0.68115 -0.585937,1.86768 0,1.1792 0.585937,1.86035 0.578614,0.68847 1.574707,0.68847 0.996094,0 1.582032,-0.68847 0.578613,-0.68115 0.578613,-1.86035 0,-1.18653 -0.578613,-1.86768 -0.585938,-0.68115 -1.582032,-0.68115 z m 8.045861,1.03271 q -1.062012,-0.22705 -1.655274,-0.94482 -0.600586,-0.71777 -0.600586,-1.77246 0,-1.61865 1.113282,-2.50488 1.113281,-0.88624 3.164062,-0.88624 0.688477,0 1.420899,0.13916 0.725097,0.13184 1.501464,0.40284 v 1.42822 q -0.615234,-0.35889 -1.347656,-0.54199 -0.732422,-0.18311 -1.530762,-0.18311 -1.391601,0 -2.116699,0.54932 -0.732422,0.54931 -0.732422,1.59668 0,0.96679 0.681153,1.50879 0.673828,0.54931 1.882324,0.54931 h 1.274414 v 1.21582 h -1.333008 q -1.091308,0 -1.669922,0.43213 -0.578613,0.43946 -0.578613,1.25977 0,0.84228 0.600586,1.28906 0.593262,0.4541 1.706543,0.4541 0.60791,0 1.303711,-0.13183 0.695801,-0.13184 1.530762,-0.41016 v 1.31836 q -0.842286,0.23437 -1.574707,0.35156 -0.739747,0.11719 -1.391602,0.11719 -1.68457,0 -2.666016,-0.76904 -0.981445,-0.76172 -0.981445,-2.06543 0,-0.90821 0.52002,-1.53809 0.520019,-0.62256 1.479492,-0.86426 z m -73.191899,39.04586 v 5.16357 h -1.245117 v -6.94336 h 1.245117 q 0.871582,0.84229 2.336426,2.29248 1.472168,1.45752 1.896973,1.83106 0.79834,0.71044 1.347656,0.98877 0.556641,0.28564 1.091309,0.28564 0.871582,0 1.420898,-0.61523 0.549317,-0.60791 0.549317,-1.58936 0,-0.6958 -0.2417,-1.47217 -0.241699,-0.76904 -0.732422,-1.64795 h 1.494141 q 0.358887,0.89356 0.541992,1.66992 0.183106,0.77637 0.183106,1.4209 0,1.69922 -0.84961,2.70996 -0.849609,1.01075 -2.270507,1.01075 -0.673829,0 -1.281739,-0.25635 -0.600586,-0.24902 -1.420898,-0.91553 -0.212403,-0.1831 -1.230469,-1.16455 -1.010742,-0.98144 -2.834473,-2.76855 z m 8.400879,-6.74947 -5.837402,-3.73535 v 3.73535 z m 1.289063,-0.38818 v 1.86035 h -7.126465 v 1.56006 h -1.230469 v -1.56006 h -2.578125 v -1.47217 h 2.578125 v -4.93652 h 1.428223 z m 66.994106,38.90527 q -1.054687,0 -1.662598,0.56396 -0.600586,0.56397 -0.600586,1.55274 0,0.98877 0.600586,1.55273 0.607911,0.56397 1.662598,0.56397 1.054688,0 1.662598,-0.56397 0.60791,-0.57129 0.60791,-1.55273 0,-0.98877 -0.60791,-1.55274 -0.600586,-0.56396 -1.662598,-0.56396 z m -1.479492,-0.62988 q -0.952149,-0.23438 -1.486817,-0.88623 -0.527343,-0.65186 -0.527343,-1.58936 0,-1.31103 0.930176,-2.07275 0.9375,-0.76172 2.563476,-0.76172 1.633301,0 2.563477,0.76172 0.930175,0.76172 0.930175,2.07275 0,0.9375 -0.534668,1.58936 -0.527343,0.65185 -1.472168,0.88623 1.069336,0.24902 1.662598,0.97412 0.600586,0.7251 0.600586,1.77246 0,1.58935 -0.974121,2.43896 -0.966797,0.84961 -2.775879,0.84961 -1.809082,0 -2.783203,-0.84961 -0.966797,-0.84961 -0.966797,-2.43896 0,-1.04736 0.600586,-1.77246 0.600586,-0.7251 1.669922,-0.97412 z m -0.541992,-2.33643 q 0,0.84961 0.527343,1.32568 0.534668,0.47608 1.494141,0.47608 0.952149,0 1.486816,-0.47608 0.541993,-0.47607 0.541993,-1.32568 0,-0.84961 -0.541993,-1.32568 -0.534667,-0.47608 -1.486816,-0.47608 -0.959473,0 -1.494141,0.47608 -0.527343,0.47607 -0.527343,1.32568 z m -6.200157,2.26318 q 1.062011,0.22706 1.655273,0.94483 0.600586,0.71777 0.600586,1.77246 0,1.61865 -1.113281,2.50488 -1.113282,0.88623 -3.164063,0.88623 -0.688476,0 -1.420898,-0.13916 -0.725098,-0.13183 -1.501465,-0.40283 v -1.42822 q 0.615234,0.35888 1.347656,0.54199 0.732422,0.18311 1.530762,0.18311 1.391601,0 2.116699,-0.54932 0.732422,-0.54932 0.732422,-1.59668 0,-0.9668 -0.681152,-1.50879 -0.673829,-0.54932 -1.882325,-0.54932 h -1.274414 v -1.21582 h 1.333008 q 1.091309,0 1.669922,-0.43212 0.578613,-0.43946 0.578613,-1.25977 0,-0.84229 -0.600586,-1.28906 -0.593261,-0.4541 -1.706543,-0.4541 -0.60791,0 -1.303711,0.13183 -0.6958,0.13184 -1.530761,0.41016 v -1.31836 q 0.842285,-0.23438 1.574707,-0.35156 0.739746,-0.11719 1.391601,-0.11719 1.684571,0 2.666016,0.76904 0.981445,0.76172 0.981445,2.06543 0,0.9082 -0.520019,1.53809 -0.52002,0.62256 -1.479492,0.86425 z m 699.987767,-40.6855 q 0,1.14258 1.12793,1.72119 1.12061,0.57129 3.37647,0.57129 2.24853,0 3.37646,-0.57129 1.12061,-0.57861 1.12061,-1.72119 0,-1.1499 -1.12061,-1.72119 -1.12793,-0.57861 -3.37646,-0.57861 -2.25586,0 -3.37647,0.57861 -1.12793,0.57129 -1.12793,1.72119 z m -1.17187,0 q 0,-1.83838 1.45752,-2.80517 1.45019,-0.97412 4.21875,-0.97412 2.76123,0 4.21875,0.97412 1.45019,0.96679 1.45019,2.80517 0,1.83838 -1.45019,2.8125 -1.45752,0.9668 -4.21875,0.9668 -2.76856,0 -4.21875,-0.9668 -1.45752,-0.97412 -1.45752,-2.8125 z m 1.48681,8.63912 5.83741,3.73535 v -3.73535 z m -1.28906,0.38818 v -1.86035 h 7.12647 v -1.56006 h 1.23047 v 1.56006 h 2.57812 v 1.47217 h -2.57812 v 4.93652 h -1.42823 z m -60.164,-38.45215 q -1.06201,-0.22705 -1.65527,-0.94482 -0.60059,-0.71777 -0.60059,-1.77246 0,-1.61865 1.11328,-2.50488 1.11328,-0.88624 3.16406,-0.88624 0.68848,0 1.4209,0.13916 0.7251,0.13184 1.50147,0.40284 v 1.42822 q -0.61524,-0.35889 -1.34766,-0.54199 -0.73242,-0.18311 -1.53076,-0.18311 -1.3916,0 -2.1167,0.54932 -0.73242,0.54931 -0.73242,1.59668 0,0.96679 0.68115,1.50879 0.67383,0.54931 1.88233,0.54931 h 1.27441 v 1.21582 H 725.789 q -1.09131,0 -1.66992,0.43213 -0.57861,0.43946 -0.57861,1.25977 0,0.84228 0.60058,1.28906 0.59326,0.4541 1.70655,0.4541 0.60791,0 1.30371,-0.13183 0.6958,-0.13184 1.53076,-0.41016 v 1.31836 q -0.84229,0.23437 -1.57471,0.35156 -0.73975,0.11719 -1.3916,0.11719 -1.68457,0 -2.66602,-0.76904 -0.98144,-0.76172 -0.98144,-2.06543 0,-0.90821 0.52002,-1.53809 0.52002,-0.62256 1.47949,-0.86426 z m 13.76605,-4.65088 h -2.41699 v 8.34229 l 2.62939,-0.52734 v 1.34765 l -2.61474,0.52735 h -1.47949 v -9.68995 h -2.417 v -1.24511 h 6.29883 z m -1.80719,79.41211 h 5.16358 v 1.24512 h -6.94336 v -1.24512 q 0.84228,-0.87158 2.29248,-2.33642 1.45752,-1.47217 1.83105,-1.89697 0.71045,-0.79834 0.98877,-1.34766 0.28565,-0.55664 0.28565,-1.09131 0,-0.87158 -0.61524,-1.4209 -0.60791,-0.54931 -1.58935,-0.54931 -0.6958,0 -1.47217,0.24169 -0.76904,0.2417 -1.64795,0.73243 v -1.49414 q 0.89355,-0.35889 1.66992,-0.542 0.77637,-0.1831 1.4209,-0.1831 1.69922,0 2.70996,0.84961 1.01074,0.84961 1.01074,2.27051 0,0.67382 -0.25634,1.28173 -0.24903,0.60059 -0.91553,1.4209 -0.18311,0.2124 -1.16455,1.23047 -0.98145,1.01074 -2.76856,2.83447 z m -10.55804,0 h 2.41699 v -8.34228 l -2.62939,0.52734 v -1.34765 l 2.61474,-0.52735 h 1.47949 v 9.68994 h 2.417 v 1.24512 h -6.29883 z M 620.66498,127.81451 h -2.41699 v 8.34229 l 2.62939,-0.52734 v 1.34765 l -2.61475,0.52735 h -1.47949 v -9.68995 h -2.41699 v -1.24511 h 6.29883 z m 9.53998,0 h -2.417 v 8.34229 l 2.6294,-0.52734 v 1.34765 l -2.61475,0.52735 h -1.47949 v -9.68995 h -2.41699 v -1.24511 h 6.29883 z m -0.0816,70.69629 q -1.14258,0 -1.72119,1.12793 -0.57129,1.12061 -0.57129,3.37647 0,2.24853 0.57129,3.37646 0.57861,1.12061 1.72119,1.12061 1.1499,0 1.72119,-1.12061 0.57862,-1.12793 0.57862,-3.37646 0,-2.25586 -0.57862,-3.37647 -0.57129,-1.12793 -1.72119,-1.12793 z m 0,-1.17187 q 1.83838,0 2.80518,1.45752 0.97412,1.45019 0.97412,4.21875 0,2.76123 -0.97412,4.21875 -0.9668,1.45019 -2.80518,1.45019 -1.83838,0 -2.8125,-1.45019 -0.96679,-1.45752 -0.96679,-4.21875 0,-2.76856 0.96679,-4.21875 0.97412,-1.45752 2.8125,-1.45752 z m -12.44769,9.88769 h 2.41699 v -8.34228 l -2.62939,0.52734 v -1.34765 l 2.61474,-0.52735 h 1.4795 v 9.68994 h 2.41699 v 1.24512 h -6.29883 z M 529.9408,126.79645 v 1.34765 q -0.55664,-0.26367 -1.12793,-0.40283 -0.57129,-0.13916 -1.12061,-0.13916 -1.46484,0 -2.23389,0.98145 -0.77636,0.98877 -0.88623,2.9956 0.42481,-0.62988 1.07666,-0.96679 0.65186,-0.33692 1.44287,-0.33692 1.64063,0 2.6001,0.98877 0.95215,0.99609 0.95215,2.71729 0,1.68457 -0.99609,2.70263 -0.9961,1.01807 -2.65137,1.01807 -1.89697,0 -2.89307,-1.45752 -1.00341,-1.4502 -1.00341,-4.21875 0,-2.58545 1.23046,-4.13086 1.22315,-1.53809 3.2959,-1.53809 0.55664,0 1.12793,0.10987 0.57129,0.10986 1.18653,0.32959 z m -2.94434,4.63623 q -0.99609,0 -1.57471,0.68115 -0.58593,0.68115 -0.58593,1.86768 0,1.1792 0.58593,1.86035 0.57862,0.68847 1.57471,0.68847 0.99609,0 1.58203,-0.68847 0.57861,-0.68115 0.57861,-1.86035 0,-1.18653 -0.57861,-1.86768 -0.58594,-0.68115 -1.58203,-0.68115 z m 1.84082,71.84619 q -1.05469,0 -1.6626,0.56396 -0.60058,0.56397 -0.60058,1.55274 0,0.98877 0.60058,1.55273 0.60791,0.56397 1.6626,0.56397 1.05469,0 1.6626,-0.56397 0.60791,-0.57129 0.60791,-1.55273 0,-0.98877 -0.60791,-1.55274 -0.60059,-0.56396 -1.6626,-0.56396 z m -1.47949,-0.62988 q -0.95215,-0.23438 -1.48682,-0.88623 -0.52734,-0.65186 -0.52734,-1.58936 0,-1.31103 0.93017,-2.07275 0.9375,-0.76172 2.56348,-0.76172 1.6333,0 2.56348,0.76172 0.93017,0.76172 0.93017,2.07275 0,0.9375 -0.53467,1.58936 -0.52734,0.65185 -1.47216,0.88623 1.06933,0.24902 1.66259,0.97412 0.60059,0.7251 0.60059,1.77246 0,1.58935 -0.97412,2.43896 -0.9668,0.84961 -2.77588,0.84961 -1.80908,0 -2.7832,-0.84961 -0.9668,-0.84961 -0.9668,-2.43896 0,-1.04736 0.60059,-1.77246 0.60058,-0.7251 1.66992,-0.97412 z m -0.54199,-2.33643 q 0,0.84961 0.52734,1.32568 0.53467,0.47608 1.49414,0.47608 0.95215,0 1.48682,-0.47608 0.54199,-0.47607 0.54199,-1.32568 0,-0.84961 -0.54199,-1.32568 -0.53467,-0.47608 -1.48682,-0.47608 -0.95947,0 -1.49414,0.47608 -0.52734,0.47607 -0.52734,1.32568 z m -78.78171,-62.8081 h -7.03125 v -0.62989 l 3.96972,-10.30517 h 1.54541 l -3.73535,9.68994 h 5.25147 z m -1.11133,64.91015 q -0.99609,0 -1.58203,0.68115 -0.57861,0.68116 -0.57861,1.86768 0,1.1792 0.57861,1.86768 0.58594,0.68115 1.58203,0.68115 0.99609,0 1.57471,-0.68115 0.58593,-0.68848 0.58593,-1.86768 0,-1.18652 -0.58593,-1.86768 -0.57862,-0.68115 -1.57471,-0.68115 z m 2.93701,-4.63623 v 1.34766 q -0.55664,-0.26367 -1.12793,-0.40283 -0.56396,-0.13916 -1.1206,-0.13916 -1.46485,0 -2.24121,0.98876 -0.76905,0.98877 -0.87891,2.98829 0.43213,-0.63721 1.08398,-0.97412 0.65186,-0.34424 1.43555,-0.34424 1.64795,0 2.6001,1.00341 0.95947,0.9961 0.95947,2.71729 0,1.68457 -0.99609,2.70264 -0.9961,1.01806 -2.65137,1.01806 -1.89697,0 -2.90039,-1.45019 -1.00342,-1.45752 -1.00342,-4.21875 0,-2.59278 1.23047,-4.13086 1.23047,-1.54541 3.30322,-1.54541 0.55664,0 1.12061,0.10986 0.57129,0.10986 1.18652,0.32959 z m -75.77246,-60.27392 h -5.8081 v -1.24512 h 4.45312 v -2.68067 q -0.32227,0.10987 -0.64453,0.16114 -0.32227,0.0586 -0.64453,0.0586 -1.83106,0 -2.90039,-1.00342 -1.06934,-1.00342 -1.06934,-2.71728 0,-1.76514 1.09863,-2.74658 1.09864,-0.97413 3.09815,-0.97413 0.68848,0 1.40625,0.11719 0.71045,0.11719 1.47217,0.35156 v 1.48682 q -0.65918,-0.35889 -1.36231,-0.53467 -0.70312,-0.17578 -1.48681,-0.17578 -1.26709,0 -2.00684,0.66651 -0.73975,0.6665 -0.73975,1.80908 0,1.14258 0.73975,1.80908 0.73975,0.6665 2.00684,0.6665 0.59326,0 1.18652,-0.13183 0.58594,-0.13184 1.20117,-0.41016 z m -165.16554,61.32128 -3.73535,5.83741 h 3.73535 z m -0.38819,-1.28906 h 1.86036 v 7.12647 h 1.56005 v 1.23047 h -1.56005 v 2.57812 h -1.47217 v -2.57812 h -4.93653 v -1.42823 z m -3.78125,-65.07129 q -1.06201,-0.22705 -1.65527,-0.94482 -0.60058,-0.71777 -0.60058,-1.77246 0,-1.61865 1.11328,-2.50488 1.11328,-0.88624 3.16406,-0.88624 0.68848,0 1.4209,0.13916 0.7251,0.13184 1.50146,0.40284 v 1.42822 q -0.61523,-0.35889 -1.34765,-0.54199 -0.73243,-0.18311 -1.53077,-0.18311 -1.3916,0 -2.11669,0.54932 -0.73243,0.54931 -0.73243,1.59668 0,0.96679 0.68116,1.50879 0.67382,0.54931 1.88232,0.54931 h 1.27441 v 1.21582 h -1.333 q -1.09131,0 -1.66993,0.43213 -0.57861,0.43946 -0.57861,1.25977 0,0.84228 0.60059,1.28906 0.59326,0.4541 1.70654,0.4541 0.60791,0 1.30371,-0.13183 0.6958,-0.13184 1.53076,-0.41016 v 1.31836 q -0.84228,0.23437 -1.5747,0.35156 -0.73975,0.11719 -1.39161,0.11719 -1.68457,0 -2.66601,-0.76904 -0.98145,-0.76172 -0.98145,-2.06543 0,-0.90821 0.52002,-1.53809 0.52002,-0.62256 1.47949,-0.86426 z m 84.75002,74.76123 h 5.16357 v 1.24512 h -6.94336 v -1.24512 q 0.84229,-0.87158 2.29249,-2.33642 1.45751,-1.47217 1.83105,-1.89697 0.71045,-0.79834 0.98877,-1.34766 0.28564,-0.55664 0.28564,-1.09131 0,-0.87158 -0.61523,-1.4209 -0.60791,-0.54931 -1.58936,-0.54931 -0.6958,0 -1.47216,0.24169 -0.76905,0.2417 -1.64795,0.73243 v -1.49414 q 0.89355,-0.35889 1.66992,-0.542 0.77637,-0.1831 1.4209,-0.1831 1.69922,0 2.70996,0.84961 1.01074,0.84961 1.01074,2.27051 0,0.67382 -0.25635,1.28173 -0.24902,0.60059 -0.91552,1.4209 -0.18311,0.2124 -1.16456,1.23047 -0.98144,1.01074 -2.76855,2.83447 z m 81.271,0 h 2.41699 v -8.34228 l -2.6294,0.52734 v -1.34765 l 2.61475,-0.52735 h 1.47949 v 9.68994 h 2.41699 v 1.24512 h -6.29882 z m -81.66358,-70.69629 q 1.14258,0 1.72119,-1.12793 0.57129,-1.1206 0.57129,-3.37646 0,-2.24854 -0.57129,-3.37646 -0.57861,-1.12061 -1.72119,-1.12061 -1.1499,0 -1.72119,1.12061 -0.57861,1.12792 -0.57861,3.37646 0,2.25586 0.57861,3.37646 0.57129,1.12793 1.72119,1.12793 z m 0,1.17188 q -1.83838,0 -2.80517,-1.45752 -0.97413,-1.4502 -0.97413,-4.21875 0,-2.76123 0.97413,-4.21875 0.96679,-1.4502 2.80517,-1.4502 1.83838,0 2.8125,1.4502 0.9668,1.45752 0.9668,4.21875 0,2.76855 -0.9668,4.21875 -0.97412,1.45752 -2.8125,1.45752 z m 482.49067,561.7958 -1.4e-4,-2.41699 -8.34228,5.1e-4 0.5275,2.62936 -1.34766,9e-5 -0.5275,-2.61472 -9e-5,-1.47949 9.68994,-5.9e-4 -1.5e-4,-2.417 1.24512,-8e-5 3.8e-4,6.29883 z m -8.40053,5.7319 5.83763,3.73499 -2.3e-4,-3.73535 z m -1.28903,0.38826 -1.2e-4,-1.86035 7.12646,-4.4e-4 -9e-5,-1.56006 1.23047,-7e-5 9e-5,1.56006 2.57813,-1.6e-4 9e-5,1.47217 -2.57813,1.6e-4 3e-4,4.93652 -1.42822,9e-5 z m -35.56686,-43.92742 8e-5,1.34765 q -0.55666,-0.26364 -1.12796,-0.40276 -0.57129,-0.13913 -1.1206,-0.13909 -1.46485,8e-5 -2.23383,0.98157 -0.77631,0.98882 -0.88605,2.99567 0.42476,-0.62991 1.0766,-0.96687 0.65183,-0.33695 1.44285,-0.337 1.64062,-1e-4 2.60016,0.98861 0.95221,0.99604 0.95231,2.71723 1.1e-4,1.68457 -0.99593,2.7027 -0.99603,1.01813 -2.65131,1.01823 -1.89697,1.1e-4 -2.89315,-1.45735 -1.00351,-1.45014 -1.00368,-4.21869 -1.5e-4,-2.58545 1.23022,-4.13093 1.22305,-1.53816 3.29581,-1.53829 0.55664,-3e-5 1.12794,0.1098 0.57129,0.10983 1.18654,0.32952 z m -2.94406,4.63641 q -0.99609,6e-5 -1.57466,0.68124 -0.5859,0.68119 -0.58583,1.86771 8e-5,1.1792 0.58606,1.86032 0.57865,0.68844 1.57474,0.68838 0.9961,-6e-5 1.582,-0.68857 0.57857,-0.68119 0.57849,-1.86039 -7e-5,-1.18652 -0.57872,-1.86764 -0.58598,-0.68111 -1.58208,-0.68105 z m 11.25363,-3.61886 -5.16357,3.2e-4 -8e-5,-1.24512 6.94336,-4.3e-4 8e-5,1.24512 q -0.84224,0.87163 -2.29235,2.33657 -1.45742,1.47226 -1.83093,1.89708 -0.71041,0.79839 -0.98869,1.34772 -0.28561,0.55666 -0.28558,1.09133 6e-5,0.87158 0.61532,1.42085 0.60794,0.54929 1.58939,0.54923 0.6958,-4e-5 1.47215,-0.24179 0.76904,-0.24175 1.64791,-0.73252 l 9e-5,1.49414 q -0.89353,0.35894 -1.66989,0.54209 -0.77636,0.18316 -1.42089,0.1832 -1.69922,10e-5 -2.71001,-0.84945 -1.01079,-0.84955 -1.01088,-2.27045 -4e-5,-0.67383 0.25627,-1.28175 0.24899,-0.6006 0.91544,-1.42096 0.18309,-0.21241 1.16448,-1.23054 0.98138,-1.0108 2.76838,-2.83464 z m 0.24169,75.46412 q -1.05469,7e-5 -1.66257,0.56408 -0.60054,0.56399 -0.60048,1.55276 6e-5,0.98877 0.60067,1.55271 0.60795,0.56392 1.66264,0.56385 1.05469,-6e-5 1.66256,-0.56406 0.60788,-0.57132 0.60782,-1.55277 -6e-5,-0.98877 -0.60801,-1.5527 -0.60062,-0.56393 -1.66263,-0.56387 z m -1.47953,-0.62979 q -0.95216,-0.23431 -1.48687,-0.88614 -0.52738,-0.65182 -0.52744,-1.58932 -8e-5,-1.31103 0.93005,-2.07281 0.93746,-0.76178 2.56343,-0.76188 1.6333,-10e-5 2.56352,0.76157 0.93022,0.76166 0.9303,2.07269 6e-5,0.9375 -0.53456,1.58939 -0.52731,0.6519 -1.47212,0.88632 1.06934,0.24896 1.66266,0.97402 0.60062,0.72507 0.60069,1.77243 9e-5,1.58936 -0.97397,2.43903 -0.96675,0.84966 -2.77583,0.84977 -1.80908,1.1e-4 -2.78325,-0.84944 -0.96686,-0.84955 -0.96695,-2.43891 -7e-5,-1.04736 0.60048,-1.77249 0.60053,-0.72514 1.66986,-0.97423 z m -0.54213,-2.33639 q 5e-5,0.84961 0.52742,1.32566 0.5347,0.47603 1.49417,0.47597 0.95215,-5e-5 1.48679,-0.47616 0.54196,-0.47611 0.54191,-1.32572 -5e-5,-0.8496 -0.54207,-1.32565 -0.5347,-0.47603 -1.48685,-0.47598 -0.95947,6e-5 -1.49411,0.47617 -0.52731,0.47611 -0.52726,1.32571 z m -9.40779,6.91464 5.16358,-3.1e-4 7e-5,1.24511 -6.94336,4.2e-4 -7e-5,-1.24511 q 0.84223,-0.87164 2.29234,-2.33657 1.45743,-1.47226 1.83093,-1.89708 0.7104,-0.79839 0.98869,-1.34772 0.28561,-0.55666 0.28558,-1.09133 -5e-5,-0.87158 -0.61532,-1.42085 -0.60795,-0.54929 -1.58939,-0.54923 -0.6958,5e-5 -1.47215,0.24179 -0.76903,0.24175 -1.64791,0.73252 l -9e-5,-1.49414 q 0.89354,-0.35894 1.66989,-0.54209 0.77636,-0.18315 1.42089,-0.18319 1.69922,-1.1e-4 2.71001,0.84944 1.01079,0.84955 1.01088,2.27045 4e-5,0.67383 -0.25627,1.28175 -0.24899,0.6006 -0.91544,1.42096 -0.1831,0.21241 -1.16447,1.23053 -0.98139,1.01081 -2.76839,2.83465 z m -95.86963,-69.71502 -7.03125,4.3e-4 -4e-5,-0.62988 3.96909,-10.30542 1.54541,-9e-5 -3.73476,9.69016 5.25147,-3.2e-4 z m 7.8915,-9.69042 -5.16358,3.2e-4 -8e-5,-1.24512 6.94336,-4.3e-4 8e-5,1.24512 q -0.84223,0.87164 -2.29234,2.33657 -1.45743,1.47225 -1.83093,1.89709 -0.71041,0.79838 -0.98869,1.34772 -0.28562,0.55665 -0.28559,1.09131 6e-5,0.87159 0.61533,1.42087 0.60794,0.54928 1.58938,0.54922 0.6958,-4e-5 1.47216,-0.24179 0.76903,-0.24175 1.64791,-0.73252 l 9e-5,1.49414 q -0.89354,0.35893 -1.66989,0.54209 -0.77636,0.18316 -1.42089,0.1832 -1.69922,10e-5 -2.71001,-0.84945 -1.01079,-0.84955 -1.01088,-2.27045 -4e-5,-0.67383 0.25626,-1.28175 0.249,-0.60061 0.91545,-1.42096 0.18309,-0.21241 1.16447,-1.23054 0.98139,-1.0108 2.76839,-2.83464 z m 0.49896,74.59772 q -0.99609,6e-5 -1.58199,0.68124 -0.57857,0.68119 -0.5785,1.86772 7e-5,1.1792 0.57872,1.86763 0.58599,0.68112 1.58208,0.68106 0.9961,-7e-5 1.57466,-0.68125 0.5859,-0.68851 0.58583,-1.86771 -7e-5,-1.18653 -0.58605,-1.86764 -0.57865,-0.68112 -1.57475,-0.68105 z m 2.93672,-4.63641 9e-5,1.34765 q -0.55666,-0.26364 -1.12796,-0.40276 -0.56397,-0.13913 -1.12061,-0.1391 -1.46484,9e-5 -2.24115,0.98891 -0.76898,0.98882 -0.87873,2.98833 0.4321,-0.63722 1.08393,-0.97418 0.65183,-0.34428 1.43552,-0.34433 1.64795,-10e-5 2.60017,1.00326 0.95953,0.99603 0.95963,2.71723 10e-5,1.68457 -0.99592,2.70269 -0.99603,1.01813 -2.65131,1.01824 -1.89697,1.1e-4 -2.90048,-1.45003 -1.00351,-1.45746 -1.00368,-4.21869 -1.6e-4,-2.59277 1.23022,-4.13093 1.23038,-1.54549 3.30314,-1.54561 0.55664,-4e-5 1.1206,0.1098 0.5713,0.10982 1.18654,0.32952 z m -14.54916,9.44912 5.16357,-3.1e-4 7e-5,1.24512 -6.94335,4.2e-4 -7e-5,-1.24512 q 0.84223,-0.87163 2.29234,-2.33657 1.45743,-1.47225 1.83093,-1.89708 0.7104,-0.79838 0.98869,-1.34772 0.2856,-0.55666 0.28557,-1.09132 -5e-5,-0.87159 -0.61531,-1.42086 -0.60795,-0.54928 -1.5894,-0.54922 -0.6958,4e-5 -1.47214,0.24179 -0.76904,0.24174 -1.64791,0.73252 l -9e-5,-1.49414 q 0.89353,-0.35894 1.66989,-0.5421 0.77636,-0.18315 1.42089,-0.18319 1.69922,-1.1e-4 2.71001,0.84944 1.01079,0.84955 1.01088,2.27045 4e-5,0.67383 -0.25628,1.28176 -0.24898,0.6006 -0.91543,1.42095 -0.1831,0.21241 -1.16447,1.23054 -0.98139,1.0108 -2.76839,2.83464 z m -82.08173,-69.71578 -5.80811,3.5e-4 -8e-5,-1.24512 4.45313,-2.7e-4 -1.6e-4,-2.68067 q -0.32226,0.10989 -0.64453,0.16118 -0.32226,0.0586 -0.64453,0.0586 -1.83105,1.1e-4 -2.90045,-1.00324 -1.06939,-1.00336 -1.06949,-2.71722 -1.1e-4,-1.76514 1.09846,-2.74664 1.09857,-0.9742 3.09808,-0.97432 0.68848,-5e-5 1.40626,0.1171 0.71045,0.11715 1.47219,0.35147 l 9e-5,1.48682 q -0.6592,-0.35885 -1.36233,-0.53459 -0.70314,-0.17573 -1.48683,-0.17569 -1.26709,8e-5 -2.0068,0.66664 -0.7397,0.66654 -0.73963,1.80912 7e-5,1.14258 0.73985,1.80904 0.73979,0.66645 2.00688,0.66637 0.59326,-3e-5 1.18651,-0.1319 0.58593,-0.13187 1.20115,-0.41023 z m 8.27962,-9.69046 -5.16358,3.2e-4 -8e-5,-1.24511 6.94336,-4.2e-4 8e-5,1.24511 q -0.84223,0.87164 -2.29234,2.33657 -1.45743,1.47225 -1.83093,1.89708 -0.7104,0.79838 -0.98869,1.34772 -0.28562,0.55666 -0.28558,1.09133 5e-5,0.87158 0.61532,1.42086 0.60795,0.54927 1.58939,0.54921 0.6958,-4e-5 1.47215,-0.24179 0.76903,-0.24175 1.64791,-0.73252 l 9e-5,1.49414 q -0.89353,0.35895 -1.66989,0.54209 -0.77636,0.18316 -1.42089,0.1832 -1.69922,10e-5 -2.71001,-0.84945 -1.01079,-0.84954 -1.01088,-2.27044 -4e-5,-0.67383 0.25627,-1.28176 0.24899,-0.6006 0.91544,-1.42095 0.18309,-0.21242 1.16447,-1.23054 0.98139,-1.01081 2.76839,-2.83465 z m 1.1813,71.01192 -3.735,5.83763 3.73535,-2.3e-4 z m -0.38826,-1.28904 1.86035,-1.2e-4 4.3e-4,7.12647 1.56006,-9e-5 8e-5,1.23047 -1.56006,9e-5 1.5e-4,2.57812 -1.47217,9e-5 -1.5e-4,-2.57812 -4.93652,3e-4 -9e-5,-1.42822 z m -11.94174,9.69067 5.16358,-3.1e-4 7e-5,1.24511 -6.94336,4.2e-4 -7e-5,-1.24511 q 0.84223,-0.87164 2.29234,-2.33657 1.45743,-1.47226 1.83093,-1.89708 0.7104,-0.79838 0.98869,-1.34772 0.28561,-0.55666 0.28558,-1.09133 -5e-5,-0.87158 -0.61532,-1.42086 -0.60795,-0.54927 -1.58939,-0.54921 -0.6958,4e-5 -1.47215,0.24179 -0.76903,0.24174 -1.64791,0.73252 l -9e-5,-1.49414 q 0.89354,-0.35895 1.66989,-0.54209 0.77636,-0.18316 1.42089,-0.1832 1.69922,-10e-5 2.71001,0.84944 1.0108,0.84955 1.01089,2.27045 4e-5,0.67383 -0.25628,1.28176 -0.24899,0.60059 -0.91544,1.42094 -0.1831,0.21243 -1.16447,1.23055 -0.98139,1.01081 -2.76839,2.83464 z m -77.95353,-74.7576 q -1.06202,-0.22698 -1.65533,-0.94473 -0.60063,-0.71773 -0.60069,-1.77242 -1e-4,-1.61865 1.11312,-2.50495 1.11323,-0.8863 3.16401,-0.88642 0.68848,-4e-5 1.42091,0.13907 0.72511,0.13179 1.50149,0.40274 l 9e-5,1.42822 q -0.61526,-0.35884 -1.34769,-0.54191 -0.73243,-0.18305 -1.53077,-0.183 -1.3916,8e-5 -2.11667,0.54944 -0.73239,0.54936 -0.73232,1.59672 6e-5,0.9668 0.68124,1.50875 0.67386,0.54928 1.88235,0.5492 l 1.27442,-7e-5 8e-5,1.21582 -1.33301,8e-5 q -1.09131,6e-5 -1.6699,0.43223 -0.57858,0.43948 -0.57853,1.25979 5e-5,0.84229 0.60066,1.28903 0.59329,0.45407 1.70657,0.454 0.60792,-3e-5 1.30371,-0.13192 0.69579,-0.13188 1.53073,-0.41025 l 8e-5,1.31836 q -0.84227,0.23443 -1.57469,0.35167 -0.73974,0.11722 -1.39159,0.11726 -1.68457,10e-5 -2.66607,-0.76888 -0.98148,-0.76166 -0.98156,-2.06537 -6e-5,-0.9082 0.51992,-1.53812 0.51999,-0.62258 1.47944,-0.86434 z m 12.74774,-4.65165 -5.16358,3.1e-4 -8e-5,-1.24512 6.94336,-4.2e-4 8e-5,1.24512 q -0.84223,0.87163 -2.29234,2.33656 -1.45743,1.47226 -1.83093,1.89709 -0.7104,0.79838 -0.98869,1.34771 -0.28562,0.55666 -0.28558,1.09133 5e-5,0.87158 0.61532,1.42086 0.60795,0.54928 1.58939,0.54922 0.6958,-4e-5 1.47215,-0.24179 0.76903,-0.24174 1.64791,-0.73253 l 9e-5,1.49415 q -0.89354,0.35894 -1.66989,0.54209 -0.77636,0.18315 -1.42089,0.18319 -1.69922,10e-5 -2.71001,-0.84944 -1.01079,-0.84955 -1.01088,-2.27044 -4e-5,-0.67383 0.25626,-1.28176 0.249,-0.6006 0.91545,-1.42095 0.18309,-0.21242 1.16447,-1.23055 0.98139,-1.0108 2.76839,-2.83463 z m -1.33516,79.41177 5.16357,-3.1e-4 7e-5,1.24512 -6.94335,4.2e-4 -7e-5,-1.24512 q 0.84223,-0.87163 2.29234,-2.33657 1.45743,-1.47225 1.83093,-1.89708 0.7104,-0.79838 0.98869,-1.34771 0.2856,-0.55667 0.28557,-1.09133 -5e-5,-0.87159 -0.61531,-1.42086 -0.60795,-0.54928 -1.5894,-0.54922 -0.6958,4e-5 -1.47214,0.24179 -0.76904,0.24174 -1.64791,0.73252 l -9e-5,-1.49414 q 0.89353,-0.35894 1.66989,-0.54209 0.77636,-0.18316 1.42089,-0.1832 1.69922,-10e-5 2.71001,0.84945 1.01079,0.84954 1.01088,2.27044 4e-5,0.67383 -0.25628,1.28176 -0.24898,0.6006 -0.91543,1.42096 -0.1831,0.21241 -1.16448,1.23054 -0.98138,1.0108 -2.76838,2.83463 z m -9.54001,5.9e-4 5.16358,-3.2e-4 7e-5,1.24512 -6.94336,4.2e-4 -7e-5,-1.24512 q 0.84223,-0.87163 2.29234,-2.33657 1.45743,-1.47224 1.83093,-1.89708 0.7104,-0.79838 0.98869,-1.34771 0.28562,-0.55666 0.28558,-1.09132 -5e-5,-0.87159 -0.61532,-1.42087 -0.60795,-0.54928 -1.58939,-0.54922 -0.6958,4e-5 -1.47215,0.24179 -0.76903,0.24175 -1.64791,0.73252 l -9e-5,-1.49414 q 0.89353,-0.35894 1.66989,-0.54209 0.77636,-0.18316 1.42089,-0.1832 1.69922,-1e-4 2.71001,0.84945 1.01079,0.84954 1.01088,2.27044 4e-5,0.67383 -0.25628,1.28176 -0.24898,0.60061 -0.91543,1.42096 -0.1831,0.21241 -1.16447,1.23054 -0.98139,1.0108 -2.76839,2.83464 z m -110.93797,-79.40268 -2.417,1.4e-4 5.1e-4,8.34228 2.62937,-0.5275 8e-5,1.34765 -2.61472,0.52751 -1.47949,9e-5 -5.9e-4,-9.68994 -2.41699,1.5e-4 -8e-5,-1.24512 6.29883,-3.8e-4 z m 8.52194,-5.2e-4 -5.16358,3.1e-4 -8e-5,-1.24512 6.94336,-4.2e-4 8e-5,1.24512 q -0.84223,0.87163 -2.29234,2.33656 -1.45743,1.47226 -1.83093,1.89708 -0.7104,0.79838 -0.98869,1.34772 -0.28562,0.55666 -0.28558,1.09133 5e-5,0.87158 0.61532,1.42086 0.60795,0.54927 1.58939,0.54921 0.6958,-4e-5 1.47215,-0.24179 0.76903,-0.24173 1.64791,-0.73252 l 9e-5,1.49414 q -0.89353,0.35895 -1.66989,0.5421 -0.77636,0.18315 -1.42089,0.18319 -1.69922,10e-5 -2.71001,-0.84944 -1.01079,-0.84955 -1.01088,-2.27045 -4e-5,-0.67382 0.25626,-1.28175 0.249,-0.6006 0.91545,-1.42095 0.18309,-0.21243 1.16447,-1.23054 0.98139,-1.0108 2.76839,-2.83464 z m 0.39377,70.69579 q -1.14257,7e-5 -1.72112,1.12803 -0.57122,1.12064 -0.57109,3.3765 1.4e-4,2.24854 0.5715,3.37643 0.57869,1.12057 1.72126,1.1205 1.14991,-7e-5 1.72112,-1.12071 0.57855,-1.12796 0.57841,-3.3765 -1.3e-4,-2.25586 -0.57882,-3.37643 -0.57135,-1.12789 -1.72126,-1.12782 z m -7e-5,-1.17188 q 1.83838,-1.2e-4 2.80527,1.45735 0.9742,1.45014 0.97437,4.21869 1.7e-4,2.76123 -0.97386,4.21881 -0.96671,1.45025 -2.80509,1.45037 -1.83838,1.1e-4 -2.81259,-1.45003 -0.96688,-1.45746 -0.96705,-4.21869 -1.7e-4,-2.76855 0.96654,-4.21881 0.97403,-1.45758 2.81241,-1.45769 z m -11.42905,9.88839 5.16357,-3.1e-4 7e-5,1.24511 -6.94336,4.2e-4 -7e-5,-1.24511 q 0.84224,-0.87164 2.29234,-2.33657 1.45743,-1.47226 1.83094,-1.89708 0.7104,-0.79838 0.98869,-1.34772 0.28561,-0.55666 0.28557,-1.09133 -5e-5,-0.87158 -0.61531,-1.42085 -0.60795,-0.54928 -1.5894,-0.54922 -0.6958,4e-5 -1.47215,0.24179 -0.76903,0.24174 -1.64791,0.73252 l -9e-5,-1.49414 q 0.89354,-0.35895 1.6699,-0.5421 0.77635,-0.18315 1.42088,-0.18319 1.69922,-1.1e-4 2.71001,0.84944 1.0108,0.84955 1.01089,2.27045 4e-5,0.67383 -0.25627,1.28176 -0.24899,0.60059 -0.91545,1.42095 -0.18309,0.21241 -1.16447,1.23053 -0.98138,1.01081 -2.76838,2.83465 z m -209.63354,-80.41907 8e-5,1.34766 q -0.55666,-0.26364 -1.12796,-0.40276 -0.57128,-0.13913 -1.1206,-0.1391 -1.46484,9e-5 -2.23383,0.98158 -0.7763,0.98882 -0.88605,2.99566 0.42477,-0.6299 1.0766,-0.96686 0.65184,-0.33695 1.44285,-0.337 1.64063,-10e-5 2.60016,0.98861 0.95221,0.99604 0.95231,2.71723 1.1e-4,1.68457 -0.99592,2.7027 -0.99604,1.01812 -2.65131,1.01822 -1.89697,1.1e-4 -2.89316,-1.45734 -1.00351,-1.45014 -1.00367,-4.21869 -1.6e-4,-2.58545 1.23021,-4.13093 1.22306,-1.53816 3.29581,-1.53829 0.55664,-4e-5 1.12794,0.10979 0.57129,0.10984 1.18654,0.32952 z m -2.94405,4.63641 q -0.9961,6e-5 -1.57467,0.68125 -0.5859,0.68119 -0.58583,1.86771 8e-5,1.1792 0.58606,1.86031 0.57865,0.68845 1.57475,0.68839 0.99609,-6e-5 1.58199,-0.68858 0.57857,-0.68118 0.57849,-1.86038 -7e-5,-1.18652 -0.57872,-1.86764 -0.58598,-0.68112 -1.58207,-0.68106 z m 12.27171,-3.61891 -2.417,1.5e-4 5.1e-4,8.34228 2.62937,-0.5275 8e-5,1.34766 -2.61472,0.5275 -1.47949,9e-5 -5.9e-4,-9.68994 -2.41699,1.4e-4 -8e-5,-1.24512 6.29883,-3.8e-4 z m -0.22551,75.46578 q -1.05468,6e-5 -1.66256,0.56406 -0.60055,0.56401 -0.60049,1.55278 6e-5,0.98877 0.60068,1.55269 0.60795,0.56393 1.66263,0.56387 1.05469,-7e-5 1.66256,-0.56407 0.60788,-0.57133 0.60782,-1.55277 -6e-5,-0.98877 -0.60801,-1.5527 -0.60062,-0.56393 -1.66263,-0.56386 z m -1.47953,-0.62979 q -0.95216,-0.23432 -1.48687,-0.88614 -0.52738,-0.65183 -0.52744,-1.58933 -8e-5,-1.31103 0.93005,-2.0728 0.93746,-0.76178 2.56343,-0.76188 1.6333,-1e-4 2.56352,0.76156 0.93023,0.76167 0.93031,2.0727 6e-5,0.9375 -0.53457,1.58939 -0.52731,0.65188 -1.47212,0.88632 1.06936,0.24895 1.66266,0.97402 0.60062,0.72505 0.60069,1.77242 9e-5,1.58935 -0.97397,2.43902 -0.96674,0.84967 -2.77583,0.84978 -1.80908,1.1e-4 -2.78325,-0.84944 -0.96686,-0.84955 -0.96695,-2.4389 -7e-5,-1.04737 0.60048,-1.7725 0.60054,-0.72514 1.66986,-0.97422 z m -0.54213,-2.3364 q 5e-5,0.84961 0.52742,1.32565 0.5347,0.47605 1.49417,0.47599 0.95215,-6e-5 1.48679,-0.47617 0.54196,-0.4761 0.54191,-1.32571 -5e-5,-0.84961 -0.54207,-1.32565 -0.5347,-0.47605 -1.48685,-0.47599 -0.95947,6e-5 -1.49411,0.47617 -0.52731,0.4761 -0.52726,1.32571 z m -10.42582,6.9147 2.41699,-1.5e-4 -5.1e-4,-8.34228 -2.62936,0.5275 -8e-5,-1.34765 2.61471,-0.52751 1.4795,-9e-5 5.9e-4,9.68994 2.41699,-1.5e-4 8e-5,1.24512 -6.29883,3.9e-4 z m -125.550502,-37.0064 4.28e-4,7.03125 -0.629883,4e-5 -10.30541793,-3.96909 -9.408e-5,-1.54541 9.69016801,3.73476 -3.19e-4,-5.25147 z m -9.6904845,-8.9095 1.471e-4,2.41699 8.3422854,-5.1e-4 -0.527504,-2.62936 1.347656,-8e-5 0.527503,2.61471 9e-5,1.4795 -9.6899412,5.9e-4 1.472e-4,2.41699 -1.24511727,8e-5 -3.8346e-4,-6.29883 z M 742.41621,228.27862 l -5.16355,0.0118 -0.003,-1.24512 6.94334,-0.0159 0.003,1.24512 q -0.84029,0.8735 -2.28712,2.34166 -1.45415,1.4755 -1.82672,1.90117 -0.70862,0.79996 -0.98568,1.34991 -0.28436,0.55729 -0.28314,1.09196 0.002,0.87158 0.61849,1.41949 0.60916,0.54792 1.59061,0.54568 0.6958,-0.002 1.4716,-0.24507 0.7685,-0.24346 1.64627,-0.73621 l 0.003,1.49415 q -0.89272,0.36093 -1.66867,0.54581 -0.77595,0.18488 -1.42048,0.18636 -1.69922,0.004 -2.7119,-0.84341 -1.01268,-0.84729 -1.01593,-2.26818 -0.002,-0.67382 0.25341,-1.28232 0.24764,-0.60116 0.91227,-1.42299 0.18262,-0.21282 1.16173,-1.23314 0.97913,-1.01298 2.76205,-2.8408 z m 6.76867,8.3854 3.72198,-5.84594 -3.73534,0.009 z m 0.39113,1.28817 -1.86034,0.004 -0.0163,-7.12645 -1.56005,0.004 -0.003,-1.23045 1.56005,-0.004 -0.006,-2.57812 1.47217,-0.003 0.006,2.57812 4.93651,-0.0113 0.003,1.42822 z m -33.07422,38.27192 0.0161,7.03123 -0.62988,0.001 -10.31424,-3.94612 -0.004,-1.54541 9.69847,3.71315 -0.012,-5.25144 z m -5.04977,-4.67251 q -0.22462,1.06253 -0.94104,1.65744 -0.71639,0.60222 -1.77108,0.60463 -1.61865,0.004 -2.50742,-1.10754 -0.88878,-1.11124 -0.89348,-3.16202 -0.002,-0.68848 0.13591,-1.42121 0.13018,-0.7254 0.39939,-1.50238 l 1.42822,-0.003 q -0.35747,0.61605 -0.53891,1.34888 -0.18142,0.73284 -0.17959,1.53118 0.003,1.39161 0.55416,2.11544 0.55099,0.73117 1.59835,0.72877 0.9668,-0.002 1.50722,-0.68462 0.54778,-0.67507 0.54501,-1.88357 l -0.003,-1.27441 1.21582,-0.003 0.003,1.333 q 0.002,1.0913 0.43596,1.66892 0.44077,0.57762 1.26108,0.57574 0.84229,-0.002 1.28769,-0.60354 0.45274,-0.5943 0.45019,-1.70758 -10e-4,-0.60791 -0.13482,-1.3034 -0.13343,-0.6955 -0.41366,-1.52982 l 1.31835,-0.003 q 0.23631,0.84174 0.35517,1.57389 0.11888,0.73948 0.12037,1.39134 0.004,1.68457 -0.76293,2.66776 -0.75947,0.9832 -2.06318,0.98618 -0.9082,0.002 -1.53927,-0.5165 -0.62375,-0.51859 -0.86764,-1.47751 z m 69.94046,-3.90399 q 0.002,0.99609 0.68477,1.58047 0.68247,0.57704 1.86899,0.57433 1.17919,-0.003 1.86635,-0.58289 0.6798,-0.5875 0.67752,-1.58358 -0.002,-0.99609 -0.68475,-1.57315 -0.68982,-0.58436 -1.86902,-0.58166 -1.18652,0.003 -1.86632,0.59021 -0.67983,0.58018 -0.67754,1.57627 z m -4.64295,-2.92639 1.34765,-0.003 q -0.2624,0.55724 -0.40025,1.12885 -0.13787,0.56428 -0.13659,1.12091 0.003,1.46485 0.9939,2.23894 0.99053,0.76679 2.99028,0.87207 -0.63819,-0.43067 -0.9766,-1.08175 -0.34573,-0.65107 -0.34752,-1.43476 -0.004,-1.64794 0.99746,-2.60239 0.99389,-0.96175 2.71508,-0.96569 1.68457,-0.004 2.70491,0.9899 1.02035,0.99377 1.02414,2.64903 0.004,1.89697 -1.44356,2.90371 -1.45521,1.00675 -4.21644,1.01307 -2.59276,0.006 -4.13366,-1.221 -1.54823,-1.22693 -1.55297,-3.29968 -0.001,-0.55663 0.1073,-1.12085 0.10855,-0.57154 0.32687,-1.18728 z m 4.82332,11.33075 q 0.22462,-1.06253 0.94103,-1.65743 0.7164,-0.60223 1.77108,-0.60465 1.61865,-0.004 2.50743,1.10755 0.88878,1.11125 0.89347,3.16203 0.002,0.68846 -0.1359,1.42121 -0.13018,0.72539 -0.39939,1.50238 l -1.42823,0.003 q 0.35748,-0.61605 0.53891,-1.3489 0.18143,-0.73284 0.1796,-1.53117 -0.003,-1.3916 -0.55417,-2.11544 -0.55098,-0.73116 -1.59835,-0.72876 -0.96679,0.002 -1.50722,0.6846 -0.54777,0.67509 -0.545,1.88358 l 0.003,1.27441 -1.21581,0.003 -0.003,-1.33301 q -0.002,-1.0913 -0.43595,-1.66893 -0.44077,-0.5776 -1.26109,-0.57572 -0.84228,0.002 -1.28768,0.60354 -0.45274,0.5943 -0.45019,1.70758 0.001,0.6079 0.13482,1.3034 0.13343,0.6955 0.41366,1.52982 l -1.31836,0.003 q -0.2363,-0.84175 -0.35516,-1.57391 -0.11889,-0.73947 -0.12038,-1.39132 -0.004,-1.68457 0.76294,-2.66777 0.75946,-0.98319 2.06318,-0.98617 0.9082,-0.002 1.53927,0.51649 0.62375,0.5186 0.86764,1.47751 z m -64.82258,108.19925 0.0133,5.80809 -1.24512,0.003 -0.0102,-4.45312 -2.68065,0.006 q 0.1106,0.32201 0.16261,0.64416 0.0593,0.32213 0.0601,0.64439 0.004,1.83105 -0.99676,2.90268 -1.00097,1.07163 -2.71484,1.07556 -1.76513,0.004 -2.74909,-1.09234 -0.97663,-1.0964 -0.98121,-3.09591 -0.002,-0.68847 0.11397,-1.40651 0.11555,-0.71072 0.34819,-1.47298 l 1.48681,-0.003 q -0.35737,0.66 -0.53154,1.36353 -0.17417,0.70352 -0.17238,1.48722 0.003,1.26709 0.6711,2.0053 0.66819,0.73822 1.81076,0.7356 1.14258,-0.003 1.80739,-0.74389 0.66481,-0.74126 0.66191,-2.00835 -10e-4,-0.59327 -0.13456,-1.18622 -0.13317,-0.58564 -0.4129,-1.20023 z m -5.05066,-5.06068 q -0.22462,1.06253 -0.94104,1.65743 -0.71639,0.60222 -1.77108,0.60464 -1.61865,0.004 -2.50742,-1.10754 -0.88878,-1.11125 -0.89348,-3.16202 -0.002,-0.68848 0.13591,-1.42122 0.13017,-0.7254 0.39939,-1.50238 l 1.42822,-0.003 q -0.35747,0.61605 -0.53891,1.34889 -0.18142,0.73285 -0.17959,1.53118 0.003,1.3916 0.55415,2.11543 0.551,0.73117 1.59836,0.72877 0.9668,-0.002 1.50722,-0.68461 0.54778,-0.67508 0.54501,-1.88357 l -0.003,-1.27441 1.21582,-0.003 0.003,1.33299 q 0.003,1.09131 0.43596,1.66894 0.44077,0.5776 1.26108,0.57572 0.84229,-0.002 1.28768,-0.60354 0.45275,-0.5943 0.4502,-1.70757 -10e-4,-0.60791 -0.13483,-1.30341 -0.13343,-0.69549 -0.41366,-1.52982 l 1.31836,-0.003 q 0.23631,0.84174 0.35517,1.57389 0.11888,0.73948 0.12037,1.39133 0.004,1.68457 -0.76293,2.66777 -0.75947,0.98319 -2.06318,0.98618 -0.9082,0.002 -1.53928,-0.5165 -0.62374,-0.51859 -0.86763,-1.47751 z m 66.34808,-4.57842 5.84594,3.72197 -0.009,-3.73534 z m -1.28818,0.39114 -0.004,-1.86035 7.12645,-0.0163 -0.004,-1.56005 1.23047,-0.003 0.004,1.56005 2.57811,-0.006 0.003,1.47217 -2.57811,0.006 0.0113,4.93652 -1.42822,0.003 z m 5.05906,8.72275 q 0.22462,-1.06253 0.94103,-1.65743 0.71639,-0.60223 1.77108,-0.60465 1.61864,-0.004 2.50742,1.10754 0.88878,1.11125 0.89347,3.16203 0.002,0.68847 -0.1359,1.42121 -0.13017,0.7254 -0.39939,1.50239 l -1.42822,0.003 q 0.35748,-0.61606 0.5389,-1.3489 0.18143,-0.73284 0.17961,-1.53117 -0.003,-1.3916 -0.55417,-2.11544 -0.551,-0.73116 -1.59835,-0.72876 -0.9668,0.002 -1.50723,0.6846 -0.54777,0.67509 -0.54501,1.88357 l 0.003,1.27442 -1.21582,0.003 -0.003,-1.33301 q -0.002,-1.09131 -0.43594,-1.66893 -0.44078,-0.5776 -1.26109,-0.57572 -0.84229,0.002 -1.28768,0.60353 -0.45274,0.5943 -0.45019,1.70757 10e-4,0.60792 0.13481,1.30342 0.13343,0.6955 0.41366,1.52982 l -1.31835,0.003 q -0.23631,-0.84176 -0.35517,-1.57391 -0.11888,-0.73948 -0.12037,-1.39132 -0.004,-1.68457 0.76293,-2.66778 0.75947,-0.98318 2.06318,-0.98616 0.90819,-0.002 1.53927,0.51649 0.62375,0.51859 0.86765,1.47751 z m -69.86133,108.58655 q -0.22462,1.06253 -0.94103,1.65743 -0.71639,0.60223 -1.77108,0.60465 -1.61864,0.004 -2.50743,-1.10755 -0.88878,-1.11124 -0.89347,-3.16202 -0.002,-0.68848 0.1359,-1.42121 0.13018,-0.7254 0.3994,-1.50239 l 1.42822,-0.003 q -0.35748,0.61606 -0.5389,1.3489 -0.18143,0.73283 -0.17961,1.53117 0.003,1.3916 0.55417,2.11544 0.55099,0.73116 1.59835,0.72876 0.96679,-0.002 1.50723,-0.6846 0.54776,-0.67509 0.545,-1.88359 l -0.003,-1.2744 1.21582,-0.003 0.003,1.33301 q 0.002,1.09131 0.43595,1.66893 0.44079,0.5776 1.26109,0.57572 0.84228,-0.002 1.28768,-0.60353 0.45274,-0.5943 0.4502,-1.70759 -0.001,-0.60791 -0.13482,-1.3034 -0.13343,-0.6955 -0.41366,-1.52982 l 1.31835,-0.003 q 0.2363,0.84175 0.35517,1.5739 0.11888,0.73948 0.12037,1.39133 0.004,1.68457 -0.76293,2.66778 -0.75947,0.98318 -2.06318,0.98616 -0.9082,0.002 -1.53927,-0.51649 -0.62375,-0.5186 -0.86765,-1.47751 z m -0.0218,-9.53996 q -0.22462,1.06253 -0.94103,1.65744 -0.71639,0.60223 -1.77108,0.60464 -1.61865,0.004 -2.50743,-1.10754 -0.88878,-1.11125 -0.89348,-3.16202 -0.002,-0.68848 0.13591,-1.42122 0.13018,-0.7254 0.3994,-1.50239 l 1.42821,-0.003 q -0.35748,0.61606 -0.5389,1.3489 -0.18143,0.73284 -0.1796,1.53118 0.003,1.39159 0.55416,2.11543 0.55099,0.73116 1.59836,0.72876 0.96678,-0.002 1.50722,-0.6846 0.54777,-0.67508 0.545,-1.88357 l -0.003,-1.27442 1.21582,-0.003 0.003,1.333 q 0.002,1.09131 0.43596,1.66893 0.44078,0.57761 1.26109,0.57573 0.84227,-0.002 1.28768,-0.60354 0.45274,-0.59429 0.45019,-1.70757 -10e-4,-0.60791 -0.13482,-1.30341 -0.13343,-0.6955 -0.41366,-1.52982 l 1.31836,-0.003 q 0.23629,0.84175 0.35516,1.5739 0.11889,0.73948 0.12038,1.39133 0.004,1.68456 -0.76294,2.66777 -0.75947,0.98318 -2.06317,0.98617 -0.90821,0.002 -1.53928,-0.5165 -0.62375,-0.51859 -0.86764,-1.47751 z m 74.75811,-2.08475 -0.0118,-5.16357 1.24512,-0.003 0.0159,6.94334 -1.24512,0.003 q -0.8735,-0.84028 -2.34167,-2.28712 -1.4755,-1.45414 -1.90116,-1.8267 -0.79996,-0.70862 -1.34992,-0.98568 -0.55729,-0.28438 -1.09196,-0.28315 -0.87158,0.002 -1.41948,0.61849 -0.54792,0.60917 -0.54568,1.5906 0.002,0.6958 0.24508,1.47162 0.24346,0.76848 0.73619,1.64627 l -1.49414,0.003 q -0.36093,-0.89273 -0.54581,-1.66868 -0.18489,-0.77595 -0.18637,-1.42047 -0.004,-1.69922 0.84341,-2.7119 0.84729,-1.01269 2.26819,-1.01594 0.67382,-0.002 1.28232,0.2534 0.60115,0.24766 1.42299,0.91228 0.21282,0.18262 1.23314,1.16173 1.01298,0.97913 2.8408,2.76206 z m -4.63637,6.34266 q 0.22462,-1.06252 0.94103,-1.65743 0.7164,-0.60223 1.77108,-0.60464 1.61865,-0.004 2.50743,1.10754 0.88878,1.11125 0.89347,3.16202 0.002,0.68848 -0.1359,1.42121 -0.13018,0.7254 -0.39939,1.50239 l -1.42823,0.003 q 0.35748,-0.61606 0.53891,-1.34889 0.18143,-0.73284 0.1796,-1.53118 -0.003,-1.3916 -0.55417,-2.11544 -0.55098,-0.73116 -1.59835,-0.72876 -0.96679,0.002 -1.50722,0.68461 -0.54777,0.67508 -0.54501,1.88357 l 0.003,1.27442 -1.21581,0.003 -0.003,-1.33301 q -0.003,-1.0913 -0.43595,-1.66892 -0.44077,-0.5776 -1.26109,-0.57573 -0.84228,0.002 -1.28768,0.60353 -0.45274,0.5943 -0.45019,1.70758 10e-4,0.60791 0.13482,1.3034 0.13343,0.69551 0.41366,1.52983 l -1.31836,0.003 q -0.2363,-0.84175 -0.35517,-1.5739 -0.11888,-0.73948 -0.12037,-1.39133 -0.004,-1.68456 0.76294,-2.66777 0.75946,-0.98318 2.06318,-0.98617 0.9082,-0.002 1.53927,0.5165 0.62374,0.51859 0.86764,1.4775 z m -74.51001,110.45419 0.006,2.417 8.34227,-0.0191 -0.53337,-2.62818 1.34766,-0.003 0.53333,2.61354 0.003,1.47948 -9.68991,0.0222 0.006,2.41699 -1.2451,0.003 -0.0144,-6.29881 z m 4.6387,-5.32453 q -0.22462,1.06252 -0.94103,1.65743 -0.7164,0.60223 -1.77108,0.60464 -1.61865,0.004 -2.50743,-1.10754 -0.88878,-1.11124 -0.89347,-3.16202 -0.002,-0.68848 0.1359,-1.42121 0.13018,-0.7254 0.3994,-1.50239 l 1.42822,-0.003 q -0.35748,0.61606 -0.5389,1.34889 -0.18144,0.73284 -0.17961,1.53118 0.003,1.3916 0.55417,2.11544 0.55098,0.73116 1.59835,0.72876 0.96679,-0.002 1.50723,-0.68461 0.54776,-0.67508 0.54499,-1.88358 l -0.003,-1.2744 1.21581,-0.003 0.003,1.33301 q 0.002,1.0913 0.43595,1.66892 0.44077,0.57761 1.26109,0.57573 0.84228,-0.002 1.28768,-0.60353 0.45274,-0.5943 0.45019,-1.70759 -10e-4,-0.60791 -0.13481,-1.3034 -0.13344,-0.6955 -0.41367,-1.52982 l 1.31836,-0.003 q 0.2363,0.84175 0.35516,1.5739 0.11889,0.73948 0.12038,1.39133 0.004,1.68457 -0.76293,2.66777 -0.75947,0.98319 -2.06318,0.98617 -0.90821,0.002 -1.53928,-0.5165 -0.62374,-0.51859 -0.86764,-1.4775 z m 38.11918,64.44956 2.41698,-0.006 -0.0191,-8.34226 -2.62818,0.53336 -0.003,-1.34766 2.61352,-0.53332 1.47949,-0.003 0.0222,9.68992 2.41699,-0.006 0.003,1.24512 -6.29881,0.0144 z m -5.75062,-8.38773 -3.72197,5.84595 3.73534,-0.009 z m -0.39113,-1.28817 1.86035,-0.004 0.0163,7.12645 1.56005,-0.004 0.003,1.23046 -1.56005,0.004 0.006,2.57812 -1.47217,0.003 -0.006,-2.57813 -4.93651,0.0113 -0.003,-1.42822 z m 34.05994,-58.56776 q 0.003,1.14257 1.13187,1.7186 1.12192,0.56872 3.37776,0.56356 2.24854,-0.005 3.37515,-0.57902 1.11929,-0.58119 1.11667,-1.72375 -0.003,-1.14991 -1.12455,-1.71862 -1.12925,-0.57604 -3.37778,-0.57089 -2.25585,0.005 -3.37513,0.58635 -1.12662,0.57386 -1.12399,1.72377 z m -1.17186,0.003 q -0.004,-1.83837 1.45108,-2.80851 1.44796,-0.97744 4.21651,-0.98378 2.76123,-0.006 4.22097,0.96446 1.45241,0.96348 1.45662,2.80185 0.004,1.83838 -1.44376,2.81582 -1.45529,0.97012 -4.21652,0.97644 -2.76855,0.006 -4.22096,-0.95712 -1.45973,-0.97078 -1.46394,-2.80916 z m 5.25562,8.20935 q 0.22462,-1.06254 0.94104,-1.65744 0.71639,-0.60222 1.77108,-0.60464 1.61864,-0.004 2.50742,1.10754 0.88878,1.11125 0.89347,3.16203 0.002,0.68847 -0.1359,1.42121 -0.13018,0.7254 -0.39939,1.50238 l -1.42822,0.003 q 0.35747,-0.61605 0.5389,-1.34889 0.18142,-0.73284 0.1796,-1.53117 -0.003,-1.39161 -0.55416,-2.11544 -0.55099,-0.73117 -1.59835,-0.72877 -0.9668,0.002 -1.50723,0.68461 -0.54777,0.67509 -0.54501,1.88357 l 0.003,1.27442 -1.21581,0.003 -0.003,-1.33301 q -0.003,-1.09131 -0.43595,-1.66893 -0.44077,-0.57761 -1.26108,-0.57573 -0.84229,0.002 -1.28769,0.60354 -0.45274,0.5943 -0.45019,1.70757 10e-4,0.60791 0.13482,1.30341 0.13342,0.6955 0.41366,1.52982 l -1.31835,0.003 q -0.23631,-0.84174 -0.35518,-1.57389 -0.11887,-0.73948 -0.12036,-1.39132 -0.004,-1.68457 0.76293,-2.66778 0.75947,-0.98319 2.06318,-0.98618 0.90819,-0.002 1.53926,0.5165 0.62375,0.51859 0.86765,1.47752 z M 387.07678,398.84628 v -5.8081 h 1.24512 v 4.45312 h 2.68066 q -0.10986,-0.32226 -0.16113,-0.64453 -0.0586,-0.32226 -0.0586,-0.64453 0,-1.83105 1.00341,-2.90039 1.00342,-1.06934 2.71729,-1.06934 1.76514,0 2.74658,1.09864 0.97412,1.09863 0.97412,3.09814 0,0.68848 -0.11718,1.40625 -0.11719,0.71045 -0.35157,1.47217 h -1.48681 q 0.35888,-0.65918 0.53466,-1.36231 0.17579,-0.70312 0.17579,-1.48681 0,-1.26709 -0.66651,-2.00684 -0.6665,-0.73974 -1.80908,-0.73974 -1.14258,0 -1.80908,0.73974 -0.66651,0.73975 -0.66651,2.00684 0,0.59326 0.13184,1.18652 0.13184,0.58594 0.41016,1.20117 z m 9.68994,9.29831 v -2.41699 h -8.34228 l 0.52734,2.62939 h -1.34765 l -0.52735,-2.61474 v -1.47949 h 9.68994 v -2.417 h 1.24512 v 6.29883 z m -45.33639,-38.94824 q 1.14258,0 1.72119,-1.12793 0.57129,-1.12061 0.57129,-3.37646 0,-2.24854 -0.57129,-3.37647 -0.57861,-1.1206 -1.72119,-1.1206 -1.1499,0 -1.72119,1.1206 -0.57862,1.12793 -0.57862,3.37647 0,2.25585 0.57862,3.37646 0.57129,1.12793 1.72119,1.12793 z m 0,1.17188 q -1.83838,0 -2.80518,-1.45752 -0.97412,-1.4502 -0.97412,-4.21875 0,-2.76123 0.97412,-4.21875 0.9668,-1.4502 2.80518,-1.4502 1.83838,0 2.8125,1.4502 0.9668,1.45752 0.9668,4.21875 0,2.76855 -0.9668,4.21875 -0.97412,1.45752 -2.8125,1.45752 z m 8.63913,-1.48682 3.73535,-5.8374 h -3.73535 z m 0.38818,1.28906 h -1.86035 v -7.12646 h -1.56006 v -1.23047 h 1.56006 v -2.57813 h 1.47217 v 2.57813 h 4.93652 v 1.42822 z m -34.70215,38.68405 -5.8374,-3.73535 v 3.73535 z m 1.28907,-0.38818 v 1.86035 h -7.12647 v 1.56006 h -1.23047 v -1.56006 h -2.57812 v -1.47217 h 2.57812 V 403.918 h 1.42822 z m -9.68995,-12.96042 v 2.41699 h 8.34229 l -0.52734,-2.62939 h 1.34765 l 0.52735,2.61474 v 1.4795 h -9.68995 v 2.41699 h -1.24511 v -6.29883 z M 538.4055,226.7702 l 0.002,1.34765 q -0.55707,-0.26275 -1.12859,-0.40097 -0.57152,-0.13821 -1.12083,-0.13731 -1.46485,0.002 -2.23226,0.98514 -0.77474,0.99005 -0.88129,2.99706 0.42377,-0.63058 1.07507,-0.96857 0.6513,-0.33799 1.44231,-0.3393 1.64063,-0.003 2.60173,0.98448 0.95379,0.99451 0.95663,2.71571 0.003,1.68457 -0.99163,2.70427 -0.99441,1.01971 -2.64968,1.02245 -1.89697,0.003 -2.89547,-1.45274 -1.00581,-1.44854 -1.01039,-4.21709 -0.004,-2.58545 1.22365,-4.13289 1.22061,-1.5401 3.29336,-1.54353 0.55664,-9.2e-4 1.12811,0.10801 0.57147,0.10892 1.18706,0.32763 z m -2.93667,4.64109 q -0.9961,0.002 -1.57358,0.68375 -0.58482,0.68211 -0.58286,1.86864 0.002,1.17919 0.58901,1.85938 0.57975,0.68751 1.57585,0.68587 0.99609,-0.002 1.58089,-0.69108 0.57748,-0.68212 0.57554,-1.86131 -0.002,-1.18652 -0.5817,-1.86672 -0.58706,-0.68018 -1.58315,-0.67853 z m 8.04752,1.01942 q -1.06238,-0.2253 -1.65682,-0.94209 -0.60177,-0.71678 -0.60351,-1.77146 -0.003,-1.61866 1.10914,-2.50673 1.11182,-0.88807 3.16259,-0.89145 0.68848,-0.001 1.42113,0.13681 0.72532,0.13064 1.50212,0.40036 l 0.002,1.42822 q -0.61582,-0.35787 -1.34854,-0.53976 -0.73273,-0.1819 -1.53107,-0.18059 -1.3916,0.002 -2.11578,0.55282 -0.73152,0.55052 -0.72979,1.59789 0.002,0.96678 0.68365,1.50766 0.67472,0.5482 1.88322,0.5462 l 1.27441,-0.002 0.002,1.21582 -1.333,0.002 q -1.09131,0.002 -1.66921,0.43489 -0.57789,0.44042 -0.57653,1.26073 0.001,0.84227 0.60272,1.28806 0.59401,0.45312 1.70728,0.45128 0.60791,-10e-4 1.30349,-0.13398 0.69559,-0.13299 1.53008,-0.41269 l 0.002,1.31836 q -0.84189,0.23576 -1.57412,0.35416 -0.73955,0.11841 -1.39141,0.11949 -1.68457,0.003 -2.66728,-0.76464 -0.9827,-0.7601 -0.98486,-2.0638 -10e-4,-0.90821 0.51748,-1.53895 0.51899,-0.62342 1.47806,-0.8667 z m -376.1066,-0.0833 q 1.05469,-0.002 1.66167,-0.56671 0.59965,-0.56495 0.59802,-1.55372 -0.002,-0.98877 -0.60315,-1.55175 -0.60884,-0.56295 -1.66353,-0.56121 -1.05469,0.002 -1.66166,0.5667 -0.60697,0.5723 -0.60535,1.55374 0.002,0.98877 0.61047,1.55173 0.60153,0.56298 1.66353,0.56122 z m 1.48053,0.62744 q 0.95254,0.23279 1.48828,0.88377 0.52842,0.65098 0.52997,1.58848 0.002,1.31104 -0.92676,2.07429 -0.93624,0.76327 -2.56221,0.76595 -1.63329,0.003 -2.56473,-0.75748 -0.93143,-0.76019 -0.93359,-2.07122 -0.002,-0.9375 0.53203,-1.59023 0.52627,-0.65273 1.47071,-0.88866 -1.06974,-0.24726 -1.66421,-0.97138 -0.60178,-0.7241 -0.60351,-1.77146 -0.003,-1.58936 0.97009,-2.44058 0.9654,-0.8512 2.77448,-0.85419 1.80907,-0.003 2.7846,0.84501 0.9682,0.84801 0.97082,2.43737 0.002,1.04736 -0.59766,1.77345 -0.59938,0.72609 -1.66831,0.97688 z m 0.54585,2.33552 q -0.001,-0.84961 -0.52953,-1.32481 -0.53545,-0.47518 -1.49492,-0.4736 -0.95215,0.002 -1.48603,0.47852 -0.54121,0.47697 -0.5398,1.32658 0.001,0.84961 0.54417,1.32479 0.53546,0.47519 1.48761,0.47361 0.95947,-0.002 1.49335,-0.47853 0.52655,-0.47695 0.52515,-1.32656 z m 6.1964,-2.27342 q -1.06238,-0.22529 -1.65682,-0.94208 -0.60178,-0.71679 -0.60352,-1.77147 -0.003,-1.61866 1.10914,-2.50672 1.11182,-0.88807 3.1626,-0.89146 0.68847,-0.001 1.42112,0.13682 0.72532,0.13064 1.50213,0.40035 l 0.002,1.42822 q -0.61582,-0.35787 -1.34855,-0.53977 -0.73272,-0.18189 -1.53106,-0.18057 -1.3916,0.002 -2.11579,0.55281 -0.73151,0.55052 -0.72978,1.59789 0.002,0.96679 0.68364,1.50765 0.67473,0.54821 1.88323,0.54621 l 1.27441,-0.002 0.002,1.21582 -1.33301,0.002 q -1.09131,0.002 -1.6692,0.43489 -0.57789,0.4404 -0.57653,1.26072 0.001,0.84228 0.60271,1.28807 0.59401,0.45312 1.70729,0.45128 0.60791,-0.001 1.30349,-0.13399 0.69559,-0.13298 1.53008,-0.41268 l 0.002,1.31836 q -0.8419,0.23576 -1.57413,0.35416 -0.73954,0.11841 -1.3914,0.11948 -1.68457,0.003 -2.66728,-0.76464 -0.9827,-0.76009 -0.98486,-2.06381 -0.001,-0.9082 0.51748,-1.53893 0.51899,-0.62342 1.47806,-0.86671 z m 466.05225,30.88139 -5.3751,-4.53286 0.40607,-0.48152 9.67817,-5.31869 1.1814,0.99628 -9.10236,4.99947 4.01452,3.38548 z m 6.82933,-0.83245 q -0.66549,-0.85822 -0.65628,-1.78939 0.004,-0.93589 0.68354,-1.74215 1.0435,-1.23739 2.46588,-1.19718 1.42239,0.0402 2.99013,1.36231 0.52631,0.44384 0.9965,1.0224 0.46931,0.56823 0.88811,1.2759 l -0.92074,1.09182 q -0.23895,-0.67098 -0.68081,-1.28314 -0.44187,-0.61214 -1.05217,-1.12681 -1.06382,-0.89713 -1.97225,-0.94466 -0.91404,-0.0522 -1.58924,0.74843 -0.62327,0.73907 -0.45197,1.59252 0.16098,0.85433 1.08483,1.63342 l 0.97423,0.82158 -0.7838,0.92944 -1.01903,-0.85935 q -0.83426,-0.70353 -1.55517,-0.74621 -0.72562,-0.0371 -1.25446,0.59002 -0.543,0.64389 -0.3719,1.37262 0.16078,0.7296 1.01183,1.4473 0.46472,0.39191 1.08163,0.73969 0.6169,0.34778 1.43461,0.67329 l -0.84991,1.00783 q -0.79498,-0.36383 -1.43044,-0.74642 -0.64105,-0.3873 -1.13937,-0.80754 -1.28778,-1.086 -1.54227,-2.30661 -0.25921,-1.21502 0.58125,-2.21165 0.5855,-0.69428 1.3891,-0.84055 0.79888,-0.14068 1.68817,0.29309 z m -585.260402,3.50975 q 0.759352,-0.64467 0.765191,-1.54314 2.52e-4,-0.89373 -0.767664,-1.79826 -0.763172,-0.89893 -1.649834,-1.04929 -0.887514,-0.14004 -1.646865,0.50463 -0.759344,0.64466 -0.759596,1.53839 -0.0011,0.90406 0.762069,1.80299 0.767916,0.90452 1.655429,1.04456 0.881926,0.14479 1.64127,-0.49988 z m 0.761588,5.43513 -0.872192,-1.02735 q 0.594987,-0.15925 1.120559,-0.4229 0.519992,-0.25891 0.944332,-0.61917 1.116684,-0.94803 1.068603,-2.20426 -0.05367,-1.25148 -1.263984,-2.84686 0.08297,0.76542 -0.195907,1.44414 -0.274131,0.6843 -0.871565,1.19151 -1.256266,1.06653 -2.631521,0.91783 -1.3761,-0.13837 -2.490051,-1.45049 -1.090245,-1.28419 -0.989777,-2.70495 0.100455,-1.42076 1.362308,-2.49205 1.446115,-1.22771 3.149608,-0.7716 1.708224,0.46171 3.495278,2.56666 1.678027,1.97653 1.735453,3.94541 0.06217,1.97445 -1.517945,3.31593 -0.424341,0.36025 -0.925369,0.64149 -0.506609,0.28599 -1.11783,0.51666 z m 5.541278,-10.99747 q -0.956542,0.51424 -1.873342,0.35101 -0.922382,-0.15847 -1.604972,-0.96249 -1.047581,-1.23394 -0.772464,-2.63004 0.275125,-1.39611 1.838485,-2.72336 0.524838,-0.44558 1.173244,-0.81351 0.638087,-0.36878 1.405317,-0.66466 l 0.924343,1.08878 q -0.701277,0.12458 -1.378134,0.45902 -0.676844,0.33443 -1.285438,0.85111 -1.060851,0.90064 -1.258102,1.78867 -0.202825,0.89278 0.475021,1.69121 0.625708,0.73702 1.495738,0.70935 0.869195,-0.0173 1.790464,-0.79947 l 0.971514,-0.82479 0.786873,0.92685 -1.016187,0.86271 q -0.831932,0.70629 -0.993349,1.41019 -0.156679,0.70948 0.374222,1.33482 0.545125,0.6421 1.292116,0.594 0.746155,-0.0378 1.594836,-0.7583 0.463425,-0.39344 0.908524,-0.94426 0.445106,-0.55082 0.90149,-1.30337 l 0.853235,1.00502 q -0.490415,0.72379 -0.972912,1.28715 -0.488078,0.56809 -0.985007,0.98997 -1.284189,1.09025 -2.53009,1.13916 -1.241165,0.0545 -2.084919,-0.93934 -0.587782,-0.69234 -0.599013,-1.50907 -0.0065,-0.81114 0.568507,-1.61636 z m 606.507836,82.62855 -0.01,-5.80809 1.24511,-0.002 0.007,4.45312 2.68065,-0.004 q -0.11039,-0.32208 -0.16219,-0.64426 -0.0591,-0.32218 -0.0597,-0.64444 -0.003,-1.83105 0.99861,-2.90204 1.00166,-1.07099 2.71553,-1.07382 1.76513,-0.003 2.74839,1.0941 0.97593,1.09702 0.97923,3.09653 10e-4,0.68847 -0.11486,1.40644 -0.11601,0.71064 -0.34914,1.47275 l -1.4868,0.002 q 0.35779,-0.65977 0.53241,-1.36319 0.17462,-0.70341 0.17333,-1.4871 -0.002,-1.26709 -0.66982,-2.00573 -0.66772,-0.73865 -1.8103,-0.73677 -1.14258,0.002 -1.80786,0.74274 -0.66528,0.74085 -0.66319,2.00794 9.8e-4,0.59326 0.1338,1.1863 0.1328,0.58572 0.41214,1.20049 z m 5.04743,5.06391 q 0.22529,-1.06238 0.94209,-1.65684 0.71678,-0.60176 1.77147,-0.6035 1.61865,-0.003 2.50671,1.10914 0.88807,1.11182 0.89146,3.16259 10e-4,0.68848 -0.13682,1.42113 -0.13063,0.72532 -0.40035,1.50212 l -1.42821,0.002 q 0.35786,-0.61582 0.53976,-1.34854 0.1819,-0.73272 0.18058,-1.53106 -0.002,-1.3916 -0.55281,-2.11579 -0.55053,-0.73151 -1.59789,-0.72978 -0.9668,0.002 -1.50766,0.68364 -0.54821,0.67473 -0.54622,1.88322 l 0.002,1.27442 -1.21582,0.002 -0.002,-1.33301 q -0.002,-1.09131 -0.43489,-1.6692 -0.4404,-0.5779 -1.26071,-0.57654 -0.84229,10e-4 -1.28807,0.60271 -0.45313,0.59401 -0.45129,1.70729 0.001,0.60791 0.13399,1.30349 0.13299,0.69558 0.41269,1.53008 l -1.31836,0.002 q -0.23577,-0.84189 -0.35416,-1.57412 -0.11841,-0.73955 -0.11948,-1.3914 -0.003,-1.68457 0.76463,-2.66729 0.7601,-0.98269 2.06381,-0.98485 0.9082,-0.002 1.53894,0.51747 0.62341,0.51899 0.8667,1.47807 z m -643.66485,5.4907 -5.843563,-3.7257 0.0062,3.73534 z m 1.288419,-0.3903 0.0031,1.86034 -7.126456,0.0118 0.0026,1.56006 -1.230466,0.002 -0.0026,-1.56006 -2.578122,0.004 -0.0024,-1.47217 2.578122,-0.004 -0.0082,-4.93652 1.42822,-0.002 z m -5.053478,-8.72602 q -0.225297,1.06239 -0.94209,1.65684 -0.716781,0.60176 -1.771466,0.6035 -1.618651,0.003 -2.506719,-1.10914 -0.888068,-1.11181 -0.891454,-3.16259 -0.0011,-0.68848 0.136814,-1.42113 0.130637,-0.72532 0.400352,-1.50212 l 1.42822,-0.002 q -0.357871,0.61582 -0.539766,1.34854 -0.181895,0.73272 -0.180577,1.53106 0.0023,1.39161 0.552811,2.11579 0.550525,0.73152 1.597887,0.7298 0.966796,-0.002 1.507663,-0.68366 0.548202,-0.67473 0.546206,-1.88322 l -0.0021,-1.27442 1.215818,-0.002 0.0022,1.33301 q 0.0018,1.09131 0.434887,1.66921 0.440407,0.57789 1.260719,0.57654 0.842284,-0.001 1.288069,-0.60272 0.453121,-0.59401 0.451283,-1.70729 -10e-4,-0.60791 -0.133989,-1.30349 -0.132985,-0.69558 -0.412683,-1.53008 l 1.318357,-0.002 q 0.235766,0.84189 0.354163,1.57412 0.118409,0.73955 0.119485,1.3914 0.0028,1.68458 -0.764639,2.66729 -0.760098,0.98271 -2.063806,0.98486 -0.908203,10e-4 -1.538942,-0.51748 -0.623417,-0.51899 -0.8667,-1.47807 z m 621.827509,78.84364 q 0.96037,-0.50706 1.87592,-0.33697 0.92117,0.16539 1.59771,0.9745 1.0383,1.24176 0.75273,2.63576 -0.28558,1.39401 -1.85885,2.7095 -0.52817,0.44163 -1.17932,0.8047 -0.64083,0.36398 -1.41026,0.65409 l -0.91615,-1.09567 q 0.7022,-0.11933 1.38153,-0.44868 0.67934,-0.32934 1.29179,-0.84145 1.06757,-0.89265 1.27147,-1.77919 0.20952,-0.89123 -0.46233,-1.69472 -0.62015,-0.74168 -1.49037,-0.72055 -0.8693,0.0108 -1.7964,0.78603 l -0.97768,0.81749 -0.7799,-0.93272 1.02263,-0.85508 q 0.8372,-0.70003 1.00389,-1.4027 0.162,-0.70828 -0.3642,-1.33759 -0.54029,-0.64616 -1.28762,-0.60366 -0.74642,0.0322 -1.60047,0.74631 -0.46637,0.38995 -0.91559,0.93743 -0.44922,0.54746 -0.91124,1.29657 l -0.84567,-1.01139 q 0.49583,-0.72009 0.98253,-1.27982 0.49233,-0.56442 0.9924,-0.98255 1.29233,-1.08059 2.53857,-1.12017 1.24153,-0.0452 2.07781,0.95494 0.58258,0.69674 0.58768,1.51353 4.2e-4,0.81117 -0.58061,1.61206 z m -7.31866,6.11953 q 0.96037,-0.50706 1.87592,-0.33697 0.92117,0.16539 1.59771,0.9745 1.03831,1.24176 0.75273,2.63576 -0.28559,1.39401 -1.85885,2.70951 -0.52817,0.44162 -1.17932,0.80469 -0.64083,0.36398 -1.41026,0.65409 l -0.91615,-1.09567 q 0.70219,-0.11932 1.38153,-0.44868 0.67934,-0.32934 1.29179,-0.84145 1.06757,-0.89265 1.27147,-1.77919 0.20952,-0.89123 -0.46233,-1.69472 -0.62015,-0.74168 -1.49037,-0.72055 -0.8693,0.0108 -1.7964,0.78604 l -0.97768,0.81748 -0.7799,-0.93272 1.02263,-0.85508 q 0.8372,-0.70002 1.00389,-1.4027 0.162,-0.70828 -0.3642,-1.33759 -0.54029,-0.64616 -1.28762,-0.60366 -0.74642,0.0322 -1.60048,0.74632 -0.46636,0.38995 -0.91558,0.93742 -0.44922,0.54746 -0.91124,1.29657 l -0.84567,-1.01139 q 0.49582,-0.72009 0.98253,-1.27982 0.49233,-0.56441 0.99241,-0.98256 1.29232,-1.08058 2.53856,-1.12016 1.24153,-0.0452 2.07781,0.95494 0.58258,0.69674 0.58768,1.51353 4.2e-4,0.81117 -0.58061,1.61206 z m -582.815342,5.75983 3.972189,3.29914 -0.795537,0.95783 -5.34132,-4.43628 0.795536,-0.95783 q 1.204814,-0.13233 3.256337,-0.33263 2.061825,-0.20124 2.620591,-0.28938 1.056607,-0.16021 1.621677,-0.40496 0.575399,-0.2457 0.917006,-0.657 0.556879,-0.67049 0.43456,-1.48615 -0.116673,-0.81098 -0.871666,-1.43805 -0.535258,-0.44456 -1.286924,-0.75467 -0.746028,-0.30542 -1.73568,-0.48948 l 0.954642,-1.1494 q 0.916686,0.29484 1.63091,0.65001 0.714231,0.35518 1.210049,0.76699 1.307159,1.08567 1.541856,2.38504 0.234696,1.29936 -0.67315,2.39242 -0.430526,0.51836 -1.016129,0.82222 -0.575302,0.30291 -1.612136,0.5081 -0.276569,0.0464 -1.68203,0.20251 -1.400786,0.15046 -3.940781,0.41157 z m -1.899462,-7.62344 q 0.671905,0.8532 0.669683,1.78442 0.0034,0.93589 -0.670458,1.74723 -1.034193,1.24518 -2.45684,1.21563 -1.422646,-0.0296 -3.00025,-1.33984 -0.529627,-0.43989 -1.004144,-1.0149 -0.473562,-0.56471 -0.897651,-1.26921 l 0.91253,-1.09869 q 0.243975,0.66917 0.690411,1.27799 0.446442,0.60881 1.060581,1.11889 1.070524,0.88913 1.979281,0.92984 0.914403,0.0454 1.583586,-0.76032 0.617711,-0.74373 0.440013,-1.59587 -0.167384,-0.8531 -1.09704,-1.62523 l -0.980373,-0.81426 0.776816,-0.93529 1.025445,0.85169 q 0.839512,0.69726 1.560718,0.73453 0.72589,0.0316 1.250005,-0.5994 0.538159,-0.64795 0.361601,-1.37538 -0.166242,-0.72837 -1.022655,-1.43967 -0.467647,-0.38841 -1.087141,-0.73155 -0.619488,-0.34315 -1.439623,-0.66253 l 0.842332,-1.01417 q 0.797685,0.35786 1.435989,0.73567 0.643944,0.38249 1.145392,0.79897 1.29589,1.07631 1.559526,2.29499 0.268312,1.21304 -0.564659,2.21594 -0.58027,0.69865 -1.382744,0.85095 -0.797804,0.14667 -1.690331,-0.28043 z m 495.328824,31.78574 2.417,-0.004 -0.0138,-8.34227 -2.62852,0.53168 -0.002,-1.34765 2.61388,-0.53166 1.47948,-0.002 0.016,9.68993 2.41698,-0.004 0.002,1.24512 -6.29882,0.0104 z m -5.32157,-4.6421 q 1.06238,0.22531 1.65683,0.9421 0.60177,0.71677 0.60351,1.77146 0.003,1.61865 -1.10914,2.50672 -1.11182,0.88807 -3.16259,0.89145 -0.68848,10e-4 -1.42113,-0.13681 -0.72532,-0.13063 -1.50213,-0.40035 l -0.002,-1.42822 q 0.61583,0.35786 1.34855,0.53976 0.73272,0.1819 1.53106,0.18059 1.3916,-0.002 2.11579,-0.55282 0.73151,-0.55053 0.72978,-1.59789 -0.002,-0.96679 -0.68364,-1.50766 -0.67473,-0.54821 -1.88323,-0.54621 l -1.27441,0.002 -0.002,-1.21581 1.33301,-0.002 q 1.09131,-0.002 1.6692,-0.43489 0.57789,-0.44041 0.57653,-1.26072 -10e-4,-0.84228 -0.6027,-1.28806 -0.59401,-0.45312 -1.7073,-0.45128 -0.60791,10e-4 -1.30349,0.13398 -0.69558,0.13299 -1.53008,0.41269 l -0.002,-1.31836 q 0.8419,-0.23577 1.57413,-0.35416 0.73955,-0.11841 1.3914,-0.11949 1.68457,-0.003 2.66729,0.76464 0.98269,0.7601 0.98485,2.0638 10e-4,0.9082 -0.51748,1.53895 -0.51899,0.62342 -1.47806,0.86669 z m -388.18048,-3.42253 q -1.14258,0.002 -1.71933,1.13077 -0.56944,1.12154 -0.56571,3.3774 0.004,2.24854 0.57686,3.37552 0.58046,1.11964 1.72304,1.11776 1.1499,-0.002 1.71934,-1.12344 0.57674,-1.12889 0.57303,-3.37742 -0.004,-2.25586 -0.58418,-3.3755 -0.57316,-1.12699 -1.72305,-1.12509 z m -0.002,-1.17188 q 1.83838,-0.003 2.80757,1.45289 0.97653,1.44859 0.9811,4.21713 0.005,2.76123 -0.96716,4.22035 -0.9644,1.4518 -2.80277,1.45484 -1.83838,0.003 -2.81489,-1.44556 -0.96921,-1.45592 -0.97377,-4.21715 -0.005,-2.76854 0.95983,-4.22034 0.97171,-1.45912 2.81009,-1.46216 z m -8.21292,5.25039 q 1.06239,0.2253 1.65684,0.94209 0.60176,0.71678 0.6035,1.77146 0.003,1.61866 -1.10914,2.50673 -1.11181,0.88806 -3.16259,0.89145 -0.68848,10e-4 -1.42113,-0.13681 -0.72531,-0.13065 -1.50212,-0.40036 l -0.002,-1.42822 q 0.61582,0.35787 1.34854,0.53976 0.73274,0.1819 1.53107,0.18058 1.3916,-0.002 2.11578,-0.55281 0.73153,-0.55052 0.7298,-1.59789 -0.002,-0.96679 -0.68365,-1.50766 -0.67473,-0.5482 -1.88323,-0.5462 l -1.27441,0.002 -0.002,-1.21581 1.33299,-0.002 q 1.09131,-0.002 1.66922,-0.43488 0.57788,-0.44041 0.57653,-1.26073 -0.001,-0.84228 -0.60272,-1.28806 -0.59401,-0.45312 -1.70729,-0.45128 -0.60791,10e-4 -1.30349,0.13398 -0.69558,0.13299 -1.53008,0.41269 l -0.002,-1.31836 q 0.84189,-0.23576 1.57412,-0.35416 0.73956,-0.11841 1.39141,-0.11949 1.68457,-0.003 2.66728,0.76464 0.98271,0.76009 0.98486,2.0638 0.001,0.90821 -0.51748,1.53895 -0.51899,0.62342 -1.47807,0.8667 z m 331.85237,49.40624 -1.34766,0.002 q 0.26276,-0.55707 0.40098,-1.12859 0.13822,-0.57152 0.13731,-1.12083 -0.002,-1.46485 -0.98514,-2.23227 -0.99005,-0.77473 -2.99707,-0.88128 0.63059,0.42376 0.96858,1.07506 0.338,0.65129 0.3393,1.44231 0.003,1.64062 -0.98447,2.60173 -0.99453,0.9538 -2.71572,0.95664 -1.68456,0.003 -2.70428,-0.99164 -1.0197,-0.9944 -1.02244,-2.64968 -0.003,-1.89697 1.45275,-2.89547 1.44853,-1.00581 4.21708,-1.01038 2.58545,-0.004 4.13289,1.22365 1.5401,1.22059 1.54352,3.29335 9.2e-4,0.55664 -0.108,1.12811 -0.10891,0.57147 -0.32763,1.18706 z m -4.64108,-2.93668 q -0.002,-0.99608 -0.68375,-1.57357 -0.68213,-0.58481 -1.86865,-0.58285 -1.1792,0.002 -1.85938,0.58901 -0.68752,0.57974 -0.68588,1.57583 0.002,0.9961 0.69109,1.5809 0.68211,0.57749 1.86131,0.57554 1.18652,-0.002 1.86672,-0.58169 0.68018,-0.58707 0.67854,-1.58317 z m 3.63674,11.24783 -0.009,-5.16356 1.24512,-0.002 0.0115,6.94334 -1.24512,0.002 q -0.87297,-0.84084 -2.3402,-2.28862 -1.47457,-1.45508 -1.9,-1.82791 -0.79951,-0.70913 -1.34928,-0.98654 -0.55711,-0.28473 -1.09178,-0.28384 -0.87158,10e-4 -1.41988,0.61757 -0.54832,0.60882 -0.5467,1.59027 10e-4,0.6958 0.24413,1.47176 0.24297,0.76865 0.73515,1.64674 l -1.49413,0.002 q -0.36037,-0.89295 -0.54476,-1.66902 -0.18438,-0.77607 -0.18545,-1.4206 -0.003,-1.69921 0.84514,-2.71135 0.84794,-1.01215 2.26882,-1.01449 0.67383,-0.001 1.28217,0.25423 0.601,0.24803 1.42241,0.91317 0.2127,0.18276 1.23239,1.16252 1.01236,0.97978 2.83904,2.76387 z m -256.57943,0.6601 q -0.002,-1.05468 -0.56671,-1.66166 -0.56496,-0.59965 -1.55373,-0.59802 -0.98877,0.002 -1.55173,0.60315 -0.56297,0.60884 -0.56123,1.66353 0.002,1.05468 0.56672,1.66166 0.57229,0.60697 1.55373,0.60535 0.98877,-0.002 1.55173,-0.61048 0.56297,-0.60152 0.56122,-1.66353 z m 0.62744,-1.48052 q 0.2328,-0.95254 0.88378,-1.48829 0.65097,-0.52841 1.58847,-0.52996 1.31104,-0.002 2.0743,0.92675 0.76325,0.93624 0.76594,2.56222 0.003,1.63329 -0.75748,2.56473 -0.76018,0.93143 -2.07122,0.93359 -0.9375,0.002 -1.59023,-0.53204 -0.65273,-0.52627 -0.88866,-1.4707 -0.24726,1.06974 -0.97137,1.6642 -0.72411,0.60179 -1.77148,0.60351 -1.58935,0.003 -2.44056,-0.97009 -0.85121,-0.96539 -0.8542,-2.77447 -0.003,-1.80908 0.84502,-2.7846 0.84801,-0.9682 2.43736,-0.97082 1.04736,-0.002 1.77346,0.59765 0.72608,0.59939 0.97687,1.66832 z m 2.33552,-0.54586 q -0.84961,10e-4 -1.3248,0.52954 -0.4752,0.53545 -0.47362,1.49492 0.002,0.95215 0.47854,1.48603 0.47696,0.54121 1.32657,0.5398 0.84961,-10e-4 1.3248,-0.54418 0.47518,-0.53545 0.47361,-1.4876 -0.002,-0.95947 -0.47854,-1.49335 -0.47695,-0.52656 -1.32656,-0.52516 z m -6.92958,-9.39674 0.009,5.16357 -1.24511,0.002 -0.0115,-6.94335 1.24512,-0.002 q 0.87297,0.84084 2.34021,2.28862 1.47456,1.45509 1.89999,1.82792 0.79951,0.70913 1.34928,0.98654 0.55711,0.28473 1.09178,0.28385 0.87158,-0.001 1.41988,-0.61759 0.54832,-0.60882 0.5467,-1.59025 -10e-4,-0.6958 -0.24413,-1.47177 -0.24297,-0.76864 -0.73514,-1.64674 l 1.49414,-0.002 q 0.36035,0.89296 0.54474,1.66902 0.18438,0.77607 0.18545,1.4206 0.003,1.69922 -0.84512,2.71136 -0.84794,1.01214 -2.26884,1.01449 -0.67383,10e-4 -1.28216,-0.25424 -0.601,-0.24802 -1.42241,-0.91317 -0.21271,-0.18276 -1.2324,-1.16252 -1.01235,-0.97977 -2.83903,-2.76387 z m 314.73249,62.79974 -7.03124,0.0116 -10e-4,-0.62988 3.9527,-10.31172 1.5454,-0.003 -3.71934,9.6961 5.25147,-0.009 z m 7.87601,-9.70296 -5.16356,0.009 -0.002,-1.24512 6.94335,-0.0115 0.002,1.24512 q -0.84085,0.87297 -2.28862,2.3402 -1.45509,1.47457 -1.82793,1.9 -0.70912,0.79951 -0.98653,1.34928 -0.28473,0.55711 -0.28385,1.09178 10e-4,0.87158 0.61758,1.41988 0.60882,0.54832 1.59026,0.5467 0.6958,-10e-4 1.47177,-0.24413 0.76864,-0.24297 1.64674,-0.73515 l 0.002,1.49414 q -0.89297,0.36036 -1.66903,0.54475 -0.77606,0.18438 -1.42059,0.18545 -1.69922,0.003 -2.71136,-0.84514 -1.01215,-0.84794 -1.0145,-2.26882 -10e-4,-0.67383 0.25423,-1.28217 0.24804,-0.601 0.91319,-1.42241 0.18275,-0.2127 1.16251,-1.23239 0.97978,-1.01236 2.76387,-2.83904 z M 165.0005,561.4961 q 0.99609,-0.002 1.5809,-0.68376 0.57748,-0.68211 0.57552,-1.86864 -0.002,-1.17919 -0.58169,-1.86671 -0.58706,-0.68018 -1.58315,-0.67853 -0.9961,0.002 -1.57359,0.68375 -0.5848,0.68943 -0.58285,1.86863 0.002,1.18653 0.58902,1.86671 0.57974,0.68019 1.57584,0.67855 z m -2.92935,4.64107 -0.002,-1.34765 q 0.55708,0.26276 1.12859,0.40097 0.56419,0.13823 1.12083,0.13731 1.46485,-0.002 2.23958,-0.99247 0.76741,-0.99004 0.87397,-2.98973 -0.43108,0.63792 -1.08238,0.97591 -0.65128,0.34532 -1.43497,0.34661 -1.64795,0.003 -2.60175,-0.99912 -0.96112,-0.99451 -0.96396,-2.7157 -0.003,-1.68457 0.99163,-2.70428 0.9944,-1.01971 2.64968,-1.02244 1.89697,-0.003 2.90278,1.44541 1.00583,1.45586 1.01039,4.21708 0.004,2.59277 -1.22365,4.13289 -1.22791,1.54744 -3.30066,1.55086 -0.55665,9.2e-4 -1.12079,-0.10802 -0.57147,-0.10891 -1.18706,-0.32763 z m 14.53414,-9.47225 -5.16356,0.009 -0.002,-1.24512 6.94336,-0.0115 0.002,1.24512 q -0.84085,0.87297 -2.28862,2.34021 -1.45508,1.47457 -1.82792,1.89999 -0.70913,0.79951 -0.98654,1.34929 -0.28473,0.55711 -0.28384,1.09177 0.001,0.87159 0.61757,1.41989 0.60882,0.54831 1.59027,0.54669 0.6958,-10e-4 1.47176,-0.24413 0.76865,-0.24297 1.64674,-0.73514 l 0.002,1.49414 q -0.89295,0.36035 -1.66902,0.54474 -0.77607,0.1844 -1.4206,0.18546 -1.69921,0.003 -2.71135,-0.84513 -1.01215,-0.84794 -1.01449,-2.26884 -0.001,-0.67383 0.25423,-1.28216 0.24803,-0.601 0.91318,-1.42241 0.18275,-0.2127 1.16252,-1.23239 0.97977,-1.01236 2.76386,-2.83904 z m 434.0699,-31.77013 0.01,5.80809 -1.24511,0.002 -0.007,-4.45312 -2.68066,0.004 q 0.1104,0.32208 0.1622,0.64426 0.0591,0.32217 0.0597,0.64444 0.003,1.83104 -0.99863,2.90204 -1.00164,1.071 -2.71551,1.07383 -1.76513,0.003 -2.74839,-1.09411 -0.97593,-1.09702 -0.97923,-3.09652 -10e-4,-0.68848 0.11486,-1.40645 0.11601,-0.71064 0.34913,-1.47274 l 1.48681,-0.002 q -0.3578,0.65977 -0.53242,1.36319 -0.17462,0.70341 -0.17332,1.4871 0.002,1.26709 0.66982,2.00574 0.66772,0.73863 1.8103,0.73675 1.14258,-0.002 1.80786,-0.74273 0.66527,-0.74085 0.66318,-2.00794 -9.8e-4,-0.59326 -0.13379,-1.1863 -0.1328,-0.58572 -0.41214,-1.20049 z m -9.70361,-8.26421 0.009,5.16358 -1.24511,0.002 -0.0115,-6.94335 1.24511,-0.002 q 0.87298,0.84084 2.34021,2.28861 1.47458,1.45509 1.9,1.82792 0.79951,0.70913 1.34929,0.98654 0.55711,0.28473 1.09178,0.28385 0.87158,-0.001 1.41988,-0.61759 0.5483,-0.60881 0.54668,-1.59025 -0.001,-0.6958 -0.24413,-1.47177 -0.24297,-0.76864 -0.73514,-1.64674 l 1.49414,-0.002 q 0.36037,0.89297 0.54475,1.66903 0.18439,0.77606 0.18545,1.42059 0.003,1.69922 -0.84513,2.71136 -0.84794,1.01214 -2.26884,1.01449 -0.67383,0.001 -1.28216,-0.25422 -0.60099,-0.24804 -1.4224,-0.91318 -0.21271,-0.18276 -1.23239,-1.16252 -1.01236,-0.97978 -2.83905,-2.76388 z m -494.99129,-0.36055 5.84356,3.72571 -0.006,-3.73535 z m -1.28843,0.39031 -0.003,-1.86035 7.12646,-0.0118 -0.003,-1.56006 1.23046,-0.002 0.003,1.56006 2.57812,-0.004 0.002,1.47217 -2.57812,0.004 0.008,4.93651 -1.42822,0.002 z m 9.70966,11.92636 -0.009,-5.16356 1.2451,-0.002 0.0115,6.94335 -1.24511,0.002 q -0.87298,-0.84085 -2.34021,-2.28862 -1.47458,-1.45509 -1.89999,-1.82793 -0.79951,-0.70913 -1.34929,-0.98654 -0.55711,-0.28472 -1.09178,-0.28384 -0.87158,10e-4 -1.41989,0.61758 -0.5483,0.60882 -0.54668,1.59026 0.001,0.6958 0.24413,1.47177 0.24297,0.76864 0.73514,1.64674 l -1.49414,0.002 q -0.36036,-0.89297 -0.54474,-1.66903 -0.1844,-0.77606 -0.18546,-1.4206 -0.003,-1.69921 0.84513,-2.71136 0.84794,-1.01214 2.26884,-1.01449 0.67383,-10e-4 1.28216,0.25424 0.60099,0.24802 1.4224,0.91318 0.21271,0.18275 1.23239,1.16252 1.01236,0.97976 2.83905,2.76386 z m 521.84046,-30.29048 q -1.06238,-0.2253 -1.65683,-0.94208 -0.60177,-0.71679 -0.60352,-1.77147 -0.003,-1.61866 1.10915,-2.50673 1.11182,-0.88806 3.1626,-0.89145 0.68847,-10e-4 1.42113,0.13681 0.7253,0.13065 1.50212,0.40036 l 0.002,1.42822 q -0.61582,-0.35787 -1.34856,-0.53976 -0.73272,-0.1819 -1.53106,-0.18058 -1.39159,0.002 -2.11579,0.55281 -0.73151,0.55052 -0.72978,1.59789 0.002,0.96679 0.68364,1.50766 0.67474,0.5482 1.88324,0.5462 l 1.27441,-0.002 0.002,1.21582 -1.333,0.002 q -1.0913,0.002 -1.66921,0.43488 -0.57788,0.44042 -0.57653,1.26073 10e-4,0.84228 0.60272,1.28806 0.59401,0.45312 1.70729,0.45129 0.60791,-10e-4 1.30349,-0.13399 0.69558,-0.13299 1.53008,-0.41268 l 0.002,1.31835 q -0.8419,0.23576 -1.57413,0.35416 -0.73955,0.11842 -1.39141,0.11949 -1.68456,0.003 -2.66727,-0.76463 -0.98271,-0.7601 -0.98486,-2.06381 -10e-4,-0.90821 0.51748,-1.53895 0.51899,-0.62342 1.47806,-0.8667 z m 12.74029,-4.67193 -5.16357,0.009 -0.002,-1.24511 6.94335,-0.0115 0.002,1.24511 q -0.84084,0.87298 -2.28862,2.34021 -1.45509,1.47457 -1.82791,1.89999 -0.70914,0.79951 -0.98655,1.34929 -0.28473,0.55711 -0.28385,1.09178 10e-4,0.87158 0.61759,1.41988 0.60882,0.54831 1.59026,0.54669 0.6958,-0.001 1.47176,-0.24413 0.76865,-0.24297 1.64674,-0.73514 l 0.002,1.49413 q -0.89296,0.36037 -1.66902,0.54475 -0.77607,0.18439 -1.4206,0.18546 -1.69922,0.003 -2.71136,-0.84514 -1.01214,-0.84794 -1.01449,-2.26883 -0.001,-0.67383 0.25424,-1.28217 0.24802,-0.60099 0.91317,-1.42241 0.18276,-0.2127 1.16252,-1.23238 0.97978,-1.01237 2.76387,-2.83905 z m -581.345635,0.96016 -5.163567,0.009 -0.0021,-1.24511 6.943349,-0.0115 0.0021,1.24512 q -0.840844,0.87297 -2.288618,2.3402 -1.455087,1.47458 -1.82792,1.89999 -0.70913,0.79951 -0.986543,1.34929 -0.284724,0.55711 -0.283841,1.09178 0.0014,0.87158 0.617579,1.41989 0.608817,0.5483 1.590261,0.54668 0.695799,-10e-4 1.471767,-0.24413 0.768643,-0.24297 1.646737,-0.73514 l 0.0025,1.49414 q -0.892961,0.36036 -1.669025,0.54474 -0.776063,0.1844 -1.420595,0.18546 -1.699215,0.003 -2.711359,-0.84513 -1.012145,-0.84794 -1.014491,-2.26884 -0.0011,-0.67382 0.254231,-1.28216 0.248031,-0.60099 0.913179,-1.4224 0.182755,-0.21272 1.162517,-1.23239 0.979775,-1.01236 2.763871,-2.83904 z m 9.539988,-0.0158 -5.163567,0.009 -0.0021,-1.24512 6.943349,-0.0115 0.0021,1.24511 q -0.840844,0.87297 -2.288619,2.34021 -1.455086,1.47457 -1.827919,1.89999 -0.70913,0.79951 -0.986543,1.34929 -0.284724,0.55711 -0.283841,1.09178 0.0014,0.87158 0.617579,1.41988 0.608817,0.54831 1.590261,0.54669 0.695799,-0.001 1.471766,-0.24414 0.768643,-0.24297 1.646738,-0.73514 l 0.0025,1.49414 q -0.892961,0.36037 -1.669025,0.54475 -0.776063,0.18439 -1.420595,0.18546 -1.699215,0.003 -2.71136,-0.84514 -1.012144,-0.84794 -1.01449,-2.26884 -0.0011,-0.67382 0.254231,-1.28216 0.248031,-0.60099 0.913179,-1.4224 0.182755,-0.21271 1.162517,-1.23239 0.979775,-1.01236 2.763871,-2.83904 z m 608.929927,61.06992 -0.004,-2.41699 -8.34228,0.0138 0.5317,2.62852 -1.34766,0.002 -0.53166,-2.61388 -0.002,-1.47949 9.68992,-0.016 -0.004,-2.41698 1.24512,-0.002 0.0104,6.29881 z m 0.0141,8.52197 -0.009,-5.16358 1.24512,-0.002 0.0115,6.94335 -1.24511,0.002 q -0.87297,-0.84084 -2.34022,-2.28862 -1.47456,-1.45508 -1.89999,-1.82791 -0.79951,-0.70913 -1.34929,-0.98654 -0.55711,-0.28473 -1.09177,-0.28385 -0.87159,10e-4 -1.41988,0.61758 -0.54832,0.60882 -0.54669,1.59026 0.001,0.6958 0.24413,1.47177 0.24297,0.76864 0.73514,1.64674 l -1.49414,0.002 q -0.36037,-0.89296 -0.54475,-1.66902 -0.18439,-0.77607 -0.18545,-1.42059 -0.003,-1.69922 0.84513,-2.71136 0.84794,-1.01215 2.26884,-1.01449 0.67383,-10e-4 1.28216,0.25422 0.601,0.24804 1.42241,0.91318 0.2127,0.18276 1.23239,1.16252 1.01236,0.97978 2.83904,2.76388 z m -648.01217,1.45957 q -0.0019,-1.14258 -1.130769,-1.71933 -1.121548,-0.56943 -3.377404,-0.56571 -2.248532,0.004 -3.375517,0.57687 -1.119648,0.58046 -1.117761,1.72303 0.0019,1.1499 1.123445,1.71934 1.128884,0.57676 3.377416,0.57305 2.255856,-0.004 3.375505,-0.5842 1.126984,-0.57315 1.125085,-1.72305 z m 1.171874,-0.002 q 0.003,1.83838 -1.452885,2.80759 -1.448584,0.97651 -4.217135,0.98108 -2.761228,0.005 -4.220353,-0.96715 -1.45179,-0.9644 -1.454826,-2.80278 -0.003,-1.83838 1.445549,-2.81489 1.45592,-0.9692 4.217147,-0.97376 2.768552,-0.005 4.220341,0.95983 1.459126,0.97171 1.462162,2.81008 z m -9.906556,-11.41321 0.0085,5.16356 -1.245116,0.002 -0.01147,-6.94335 1.245115,-0.002 q 0.872972,0.84085 2.340209,2.28862 1.474573,1.45509 1.899994,1.82792 0.799511,0.70913 1.349287,0.98655 0.557111,0.28472 1.091778,0.28383 0.871581,-10e-4 1.419882,-0.61757 0.548311,-0.60882 0.54669,-1.59027 -0.0011,-0.69579 -0.24413,-1.47176 -0.242968,-0.76864 -0.735142,-1.64674 l 1.494139,-0.002 q 0.360362,0.89297 0.544749,1.66902 0.184387,0.77607 0.185451,1.4206 0.0028,1.69922 -0.845133,2.71136 -0.847938,1.01215 -2.268835,1.0145 -0.673827,10e-4 -1.28216,-0.25424 -0.600996,-0.24804 -1.422408,-0.91318 -0.212705,-0.18275 -1.23239,-1.16252 -1.012362,-0.97978 -2.839041,-2.76386 z m 518.259072,70.95491 -0.002,-1.34764 q 0.55707,0.26275 1.12859,0.40096 0.57152,0.13822 1.12084,0.13731 1.46483,-0.002 2.23225,-0.98512 0.77474,-0.99006 0.88129,-2.99707 -0.42376,0.63058 -1.07507,0.96857 -0.65129,0.33799 -1.44231,0.33929 -1.64062,0.003 -2.60173,-0.98447 -0.95378,-0.99452 -0.95662,-2.7157 -0.003,-1.68457 0.99162,-2.70429 0.99441,-1.01971 2.64969,-1.02244 1.89696,-0.003 2.89546,1.45274 1.00581,1.44854 1.01039,4.21709 0.004,2.58544 -1.22365,4.13288 -1.2206,1.54011 -3.29336,1.54353 -0.55664,9.2e-4 -1.12811,-0.108 -0.57146,-0.10892 -1.18706,-0.32764 z m 2.93668,-4.64108 q 0.99609,-0.002 1.57357,-0.68375 0.58482,-0.68212 0.58286,-1.86864 -0.002,-1.17919 -0.58901,-1.85939 -0.57975,-0.68751 -1.57584,-0.68586 -0.9961,0.002 -1.58089,0.69108 -0.57749,0.68211 -0.57555,1.86131 0.002,1.18652 0.58171,1.86671 0.58705,0.68018 1.58315,0.67854 z m -12.26592,3.63843 2.41699,-0.004 -0.0138,-8.34228 -2.62852,0.53169 -0.002,-1.34766 2.61388,-0.53165 1.47948,-0.002 0.016,9.68993 2.41698,-0.004 0.002,1.24512 -6.29881,0.0104 z m -361.13154,-3.34963 q -1.05469,0.002 -1.66167,0.56671 -0.59966,0.56495 -0.59802,1.55372 0.002,0.98877 0.60315,1.55175 0.60884,0.56295 1.66353,0.56121 1.05468,-0.002 1.66166,-0.5667 0.60696,-0.57229 0.60534,-1.55374 -0.002,-0.98877 -0.61047,-1.55173 -0.60151,-0.56297 -1.66352,-0.56122 z m -1.48054,-0.62744 q -0.95253,-0.23279 -1.48827,-0.88377 -0.52843,-0.65098 -0.52998,-1.58848 -0.002,-1.31104 0.92676,-2.07429 0.93624,-0.76327 2.56222,-0.76595 1.6333,-0.003 2.56472,0.75748 0.93144,0.76019 0.93361,2.07122 0.002,0.9375 -0.53205,1.59023 -0.52626,0.65273 -1.4707,0.88866 1.06975,0.24726 1.6642,0.97138 0.60179,0.7241 0.60352,1.77146 0.003,1.58936 -0.97009,2.44058 -0.9654,0.8512 -2.77448,0.85419 -1.80908,0.003 -2.7846,-0.84501 -0.9682,-0.84801 -0.97082,-2.43737 -0.002,-1.04736 0.59765,-1.77345 0.59939,-0.72609 1.66831,-0.97688 z m -0.54585,-2.33552 q 0.001,0.8496 0.52954,1.32481 0.53545,0.47518 1.49492,0.4736 0.95215,-0.002 1.48603,-0.47852 0.54121,-0.47698 0.53981,-1.32658 -0.001,-0.84961 -0.54419,-1.32479 -0.53545,-0.47519 -1.4876,-0.47361 -0.95947,0.002 -1.49335,0.47853 -0.52656,0.47695 -0.52516,1.32656 z m -10.41479,6.93127 2.41699,-0.004 -0.0138,-8.34228 -2.62851,0.53169 -0.002,-1.34766 2.61387,-0.53165 1.47949,-0.002 0.016,9.68993 2.417,-0.004 0.002,1.24512 -6.29882,0.0104 z m 195.79963,-10.01543 7.03124,-0.0116 0.001,0.62987 -3.9527,10.31173 -1.54541,0.003 3.71935,-9.6961 -5.25146,0.009 z m -8.89407,9.70464 2.41698,-0.004 -0.0138,-8.34227 -2.62853,0.53168 -0.002,-1.34766 2.61387,-0.53166 1.47949,-0.002 0.016,9.68993 2.41699,-0.004 0.002,1.24511 -6.29881,0.0104 z m 87.88779,-195.28399 -4.45572,3.72567 -0.7987,-0.9552 3.41624,-2.85651 -1.71953,-2.05648 q -0.17676,0.291 -0.3911,0.53705 -0.20964,0.25168 -0.45687,0.4584 -1.4047,1.17455 -2.8687,1.09071 -1.46401,-0.0838 -2.56339,-1.39865 -1.13226,-1.35413 -0.919,-2.81179 0.21797,-1.45203 1.7519,-2.73464 0.52817,-0.44163 1.15399,-0.81215 0.62019,-0.36583 1.35489,-0.67464 l 0.95374,1.14063 q -0.73591,0.14751 -1.38807,0.46369 -0.65216,0.31617 -1.25338,0.81888 -0.97205,0.81279 -1.11202,1.79862 -0.13996,0.98582 0.59296,1.86236 0.73292,0.87654 1.72795,0.91333 0.99504,0.0368 1.9671,-0.77599 0.45512,-0.38055 0.82567,-0.86225 0.36495,-0.47699 0.6584,-1.08515 z m 0.91753,-13.39819 -1.85421,1.5504 5.35124,6.39983 1.67889,-2.0912 0.86447,1.03386 -1.66765,2.08181 -1.135,0.94904 -6.21571,-7.4337 -1.85421,1.55041 -0.7987,-0.9552 4.83218,-4.04045 z m -171.77364,6.28404 6.60316,-2.10393 -2.8735,-2.38661 z m -0.52498,1.23966 -1.43112,-1.18862 4.55327,-5.48217 -1.20011,-0.99676 0.78618,-0.94657 1.2001,0.99676 1.64723,-1.98327 1.13248,0.9406 -1.64722,1.98327 3.79753,3.15407 -0.91252,1.09868 z m 16.16122,0.82656 -1.85933,-1.54428 -5.33009,6.41747 2.35966,1.27431 -0.86105,1.03672 -2.34838,-1.26496 -1.13813,-0.94528 6.19113,-7.45418 -1.85932,-1.54427 0.79553,-0.95783 4.84551,4.02447 z m 241.12712,-27.53501 q -1.06238,-0.2253 -1.65684,-0.94209 -0.60176,-0.71678 -0.6035,-1.77146 -0.003,-1.61866 1.10914,-2.50673 1.11181,-0.88807 3.16259,-0.89145 0.68848,-10e-4 1.42113,0.13681 0.72531,0.13064 1.50213,0.40036 l 0.002,1.42822 q -0.61583,-0.35787 -1.34855,-0.53976 -0.73272,-0.18191 -1.53106,-0.18059 -1.3916,0.002 -2.11579,0.55282 -0.73152,0.55052 -0.72979,1.59789 0.002,0.96678 0.68364,1.50766 0.67474,0.5482 1.88323,0.5462 l 1.27442,-0.002 0.002,1.21582 -1.33301,0.002 q -1.09131,0.002 -1.66921,0.43489 -0.57789,0.44041 -0.57654,1.26073 0.001,0.84227 0.60272,1.28806 0.59401,0.45312 1.70729,0.45128 0.60791,-10e-4 1.30349,-0.13398 0.69558,-0.13299 1.53009,-0.41269 l 0.002,1.31836 q -0.8419,0.23576 -1.57413,0.35416 -0.73955,0.11841 -1.3914,0.11949 -1.68457,0.003 -2.66729,-0.76464 -0.9827,-0.7601 -0.98485,-2.0638 -0.002,-0.90821 0.51748,-1.53895 0.51899,-0.62342 1.47806,-0.8667 z m 13.75835,-4.67361 -2.41699,0.004 0.0138,8.34228 2.62852,-0.53169 0.002,1.34766 -2.61386,0.53165 -1.4795,0.002 -0.016,-9.68993 -2.41699,0.004 -0.002,-1.24511 6.29882,-0.0104 z m -361.62874,0.59785 -5.16358,0.009 -0.002,-1.24511 6.94335,-0.0115 0.002,1.24511 q -0.84084,0.87298 -2.28862,2.34021 -1.45508,1.47457 -1.82791,1.89999 -0.70913,0.79951 -0.98654,1.34929 -0.28473,0.55711 -0.28385,1.09178 0.001,0.87158 0.61758,1.41988 0.60882,0.54831 1.59026,0.54669 0.6958,-10e-4 1.47177,-0.24413 0.76864,-0.24297 1.64674,-0.73514 l 0.002,1.49413 q -0.89295,0.36037 -1.66902,0.54475 -0.77606,0.18439 -1.42059,0.18546 -1.69922,0.003 -2.71136,-0.84514 -1.01215,-0.84794 -1.01449,-2.26883 -0.001,-0.67383 0.25423,-1.28216 0.24803,-0.601 0.91317,-1.4224 0.18276,-0.21272 1.16252,-1.2324 0.97978,-1.01237 2.76388,-2.83904 z m 10.55804,-0.0174 -2.41699,0.004 0.0138,8.34228 2.62852,-0.53168 0.002,1.34765 -2.61387,0.53166 -1.47949,0.002 -0.016,-9.68994 -2.41699,0.004 -0.002,-1.24511 6.29882,-0.0104 z m 412.57826,-42.50076 0.004,2.41699 8.34228,-0.0138 -0.53169,-2.62853 1.34765,-0.002 0.53166,2.61387 0.002,1.47949 -9.68993,0.016 0.004,2.417 -1.24512,0.002 -0.0104,-6.29882 z m -0.0158,-9.53997 0.004,2.41699 8.34227,-0.0138 -0.53169,-2.62851 1.34766,-0.002 0.53166,2.61387 0.002,1.47949 -9.68993,0.016 0.004,2.41699 -1.24512,0.002 -0.0104,-6.29882 z m -495.30575,0.8982 q 0.002,1.14258 1.13077,1.71933 1.12155,0.56943 3.37741,0.56571 2.24853,-0.004 3.37551,-0.57687 1.11966,-0.58046 1.11777,-1.72303 -0.002,-1.1499 -1.12345,-1.71934 -1.12889,-0.57675 -3.37741,-0.57304 -2.25586,0.004 -3.37551,0.58419 -1.12699,0.57315 -1.12509,1.72305 z m -1.17187,0.002 q -0.003,-1.83838 1.45289,-2.80759 1.44858,-0.97651 4.21713,-0.98108 2.76123,-0.005 4.22036,0.96715 1.45178,0.9644 1.45482,2.80278 0.003,1.83838 -1.44555,2.81489 -1.45592,0.96921 -4.21714,0.97377 -2.76856,0.005 -4.22034,-0.95984 -1.45913,-0.97171 -1.46217,-2.81008 z m 9.90824,12.43131 -0.004,-2.41699 -8.34226,0.0138 0.53168,2.62853 -1.34765,0.002 -0.53167,-2.61387 -0.002,-1.47949 9.68993,-0.016 -0.004,-2.41699 1.24512,-0.002 0.0104,6.29881 z m 427.86559,-51.24326 -0.002,-1.34764 q 0.55708,0.26275 1.1286,0.40096 0.57151,0.13822 1.12082,0.13731 1.46485,-0.002 2.23227,-0.98514 0.77474,-0.99005 0.88128,-2.99706 -0.42376,0.63059 -1.07506,0.96857 -0.6513,0.338 -1.44231,0.3393 -1.64063,0.003 -2.60173,-0.98447 -0.9538,-0.99452 -0.95664,-2.71572 -0.003,-1.68456 0.99164,-2.70427 0.99441,-1.01971 2.64967,-1.02244 1.89698,-0.003 2.89548,1.45274 1.00581,1.44854 1.01038,4.21708 0.004,2.58545 -1.22365,4.13289 -1.22059,1.54011 -3.29335,1.54353 -0.55664,9.2e-4 -1.12811,-0.10801 -0.57147,-0.10891 -1.18706,-0.32763 z m 2.93667,-4.64108 q 0.9961,-0.002 1.57358,-0.68375 0.58481,-0.68212 0.58285,-1.86865 -0.002,-1.1792 -0.58901,-1.85938 -0.57974,-0.68751 -1.57584,-0.68587 -0.99609,0.002 -1.58089,0.69109 -0.57749,0.6821 -0.57554,1.8613 0.002,1.18653 0.58169,1.86672 0.58707,0.68018 1.58316,0.67854 z m -373.35842,0.28705 q -1.05469,0.002 -1.66166,0.56672 -0.59965,0.56495 -0.59802,1.55372 0.002,0.98877 0.60314,1.55174 0.60884,0.56296 1.66353,0.56122 1.05469,-0.002 1.66167,-0.56671 0.60696,-0.57229 0.60534,-1.55374 -0.002,-0.98877 -0.61047,-1.55172 -0.60152,-0.56298 -1.66353,-0.56123 z m -1.48053,-0.62743 q -0.95253,-0.2328 -1.48828,-0.88378 -0.52841,-0.65097 -0.52996,-1.58847 -0.002,-1.31104 0.92674,-2.0743 0.93624,-0.76326 2.56222,-0.76595 1.6333,-0.003 2.56474,0.75749 0.93142,0.76018 0.93359,2.07122 0.002,0.9375 -0.53204,1.59023 -0.52627,0.65273 -1.4707,0.88866 1.06974,0.24725 1.6642,0.97137 0.60178,0.72411 0.60351,1.77147 0.003,1.58936 -0.97009,2.44057 -0.96539,0.85121 -2.77447,0.8542 -1.80908,0.003 -2.7846,-0.84502 -0.9682,-0.84801 -0.97083,-2.43737 -0.002,-1.04736 0.59766,-1.77345 0.59939,-0.72609 1.66831,-0.97687 z m -0.54584,-2.33552 q 0.001,0.84959 0.52952,1.3248 0.53546,0.47519 1.49493,0.4736 0.95215,-0.002 1.48603,-0.47852 0.5412,-0.47697 0.5398,-1.32657 -10e-4,-0.84961 -0.54418,-1.3248 -0.53545,-0.47518 -1.4876,-0.47361 -0.95947,0.002 -1.49335,0.47854 -0.52656,0.47695 -0.52515,1.32656 z m 308.42197,39.73401 -0.0116,-7.03124 0.62988,-10e-4 10.31172,3.9527 0.003,1.54541 -9.69609,-3.71934 0.009,5.25145 z m -246.02637,-0.70456 q -0.002,-0.99609 -0.68377,-1.5809 -0.6821,-0.57749 -1.86862,-0.57553 -1.1792,0.002 -1.86672,0.58169 -0.68018,0.58707 -0.67854,1.58316 0.002,0.9961 0.68375,1.57358 0.68945,0.5848 1.86865,0.58286 1.18651,-0.002 1.8667,-0.58903 0.6802,-0.57973 0.67855,-1.57583 z m 4.64108,2.92935 -1.34766,0.002 q 0.26275,-0.55707 0.40097,-1.12859 0.13822,-0.56419 0.13731,-1.12083 -0.002,-1.46485 -0.99247,-2.23957 -0.99004,-0.76742 -2.98973,-0.87398 0.63792,0.43108 0.97591,1.08238 0.34531,0.65129 0.34661,1.43497 0.003,1.64795 -0.99913,2.60176 -0.9945,0.96111 -2.71569,0.96395 -1.68457,0.003 -2.70428,-0.99162 -1.0197,-0.99442 -1.02244,-2.64969 -0.003,-1.89696 1.4454,-2.90278 1.45586,-1.00582 4.21709,-1.01038 2.59276,-0.004 4.13288,1.22364 1.54744,1.22792 1.55087,3.30067 9.2e-4,0.55664 -0.10801,1.12079 -0.10893,0.57147 -0.32763,1.18706 z m 206.643,11.41414 5.80809,-0.01 0.002,1.24512 -4.45312,0.007 0.004,2.68067 q 0.32208,-0.1104 0.64426,-0.16221 0.32217,-0.0591 0.64443,-0.0597 1.83106,-0.003 2.90205,0.99863 1.07099,1.00164 1.07382,2.71551 0.003,1.76514 -1.0941,2.74839 -1.09702,0.97594 -3.09653,0.97924 -0.68848,0.001 -1.40644,-0.11486 -0.71064,-0.11602 -1.47275,-0.34913 l -0.002,-1.48682 q 0.65977,0.3578 1.36319,0.53242 0.70341,0.17462 1.4871,0.17332 1.26709,-0.002 2.00573,-0.66982 0.73865,-0.66772 0.73677,-1.8103 -0.002,-1.14258 -0.74274,-1.80785 -0.74085,-0.66528 -2.00794,-0.66319 -0.59326,9.8e-4 -1.1863,0.13379 -0.58572,0.13281 -1.20049,0.41214 z M 272.0752,263.6906 l 6.69505,-1.79009 -2.75771,-2.51951 z m -0.5829,1.2135 -1.37344,-1.25481 4.80682,-5.26127 -1.15175,-1.05226 0.82995,-0.90843 1.15175,1.05227 1.73895,-1.90336 1.08687,0.99298 -1.73896,1.90336 3.6445,3.3297 -0.96334,1.05441 z m 165.3415,-1.43243 q -0.93539,0.5518 -1.85795,0.42509 -0.92793,-0.12176 -1.64189,-0.89805 -1.09573,-1.19139 -0.87623,-2.59731 0.2195,-1.40593 1.72895,-2.79418 0.50675,-0.46605 1.14005,-0.85943 0.62295,-0.39381 1.37782,-0.71989 l 0.96683,1.05123 q -0.69578,0.15232 -1.35883,0.51334 -0.66304,0.36104 -1.25065,0.90146 -1.02428,0.94203 -1.18613,1.83719 -0.16724,0.90013 0.54176,1.67103 0.65446,0.7116 1.52271,0.64943 0.86782,-0.0518 1.75732,-0.86989 l 0.93802,-0.8627 0.82304,0.8949 -0.98115,0.90235 q -0.80325,0.73875 -0.9366,1.4485 -0.12841,0.71514 0.42689,1.31892 0.57018,0.61996 1.31468,0.54225 0.74406,-0.0674 1.56348,-0.82099 0.44744,-0.41151 0.87033,-0.97956 0.4229,-0.56805 0.84906,-1.33812 l 0.89245,0.97037 q -0.4613,0.74267 -0.92106,1.32473 -0.46516,0.58702 -0.94495,1.02829 -1.23992,1.14035 -2.48289,1.23867 -1.23803,0.10372 -2.12056,-0.85586 -0.61479,-0.66847 -0.65843,-1.48411 -0.0387,-0.81025 0.50393,-1.63766 z m -124.66883,61.58905 -0.009,-5.16357 1.2451,-0.002 0.0115,6.94335 -1.24511,0.002 q -0.87298,-0.84084 -2.34021,-2.28862 -1.47457,-1.45509 -1.89999,-1.82791 -0.79951,-0.70914 -1.34929,-0.98655 -0.55711,-0.28473 -1.09178,-0.28385 -0.87158,10e-4 -1.41988,0.61759 -0.54831,0.60882 -0.54669,1.59026 0.001,0.69579 0.24413,1.47176 0.24297,0.76864 0.73514,1.64674 l -1.49414,0.002 q -0.36036,-0.89297 -0.54474,-1.66902 -0.18439,-0.77607 -0.18546,-1.4206 -0.003,-1.69922 0.84513,-2.71136 0.84794,-1.01215 2.26884,-1.0145 0.67383,-10e-4 1.28216,0.25424 0.60099,0.24803 1.42241,0.91318 0.21271,0.18276 1.23239,1.16252 1.01236,0.97978 2.83904,2.76387 z m -43.87372,33.52284 2.41699,-0.004 -0.0138,-8.34227 -2.62851,0.53168 -0.002,-1.34765 2.61387,-0.53166 1.47949,-0.002 0.016,9.68993 2.41698,-0.004 0.002,1.24512 -6.29882,0.0104 z m 142.97986,-33.29118 q -0.002,-1.14258 -1.13077,-1.71933 -1.12155,-0.56943 -3.37741,-0.56571 -2.24853,0.004 -3.37551,0.57687 -1.11965,0.58046 -1.11777,1.72303 0.002,1.1499 1.12345,1.71934 1.12889,0.57675 3.37742,0.57304 2.25585,-0.004 3.37551,-0.58419 1.12698,-0.57315 1.12508,-1.72305 z m 1.17187,-0.002 q 0.003,1.83838 -1.45289,2.80759 -1.44858,0.97651 -4.21713,0.98108 -2.76123,0.005 -4.22035,-0.96715 -1.45179,-0.9644 -1.45482,-2.80278 -0.003,-1.83838 1.44554,-2.81489 1.45592,-0.96921 4.21715,-0.97377 2.76855,-0.005 4.22034,0.95984 1.45912,0.97171 1.46216,2.81008 z" />
    <path
       id="path4369"
       style="fill:none;stroke:#ff0000;stroke-width:1;stroke-linecap:butt;stroke-linejoin:miter;stroke-miterlimit:10;stroke-dasharray:none;stroke-opacity:1"
       d="M 14.010639,125.06939 H 161.17064 m -147.160001,84.902 v -84.902 m 147.160001,84.902 H 14.010639 m 782.656001,-84.902 v 84.902 m -130.179,-84.902 h 130.179 m 0,84.902 h -130.179 m -84.899,-84.902 h 84.899 m 0,84.902 h -84.899 m -107.543,-84.902 h 107.543 m 0,84.902 h -107.543 m -56.597,-84.902 h 56.597 m 0,84.902 h -56.597 m -90.559,-84.902 h 90.559 m -164.141,84.902 h -92.137 m 0,-84.902 h 92.137 m 73.582,84.902 h -73.582 m 164.141,0 h -90.559 m -73.582,-84.902 h 73.582 m 447.45155,534.8931 15.00224,19.10255 0.003,46.69374 -14.99757,19.10376 m -90.56628,-84.89595 90.55861,-0.004 m 0.008,84.89995 -90.56161,0.004 m -107.54467,-84.89168 107.53967,-0.008 m 0.005,84.8997 -107.53967,0.008 m -62.26534,-84.89497 62.26034,-0.005 m 0.005,84.90024 -62.26034,0.005 m -90.56263,-84.89512 90.55763,-0.005 m 0.005,84.89985 -90.55763,0.005 m -135.84592,-84.89328 135.84092,-0.007 m 0.005,84.9004 -135.84102,0.0106 M -1.0749649,660.0117 287.58402,659.99128 m 0.005,84.90397 -288.6588862,0.0164 m 0,2e-5 -0.005,-84.89997 M 703.95199,225.623 l 19.06998,-15.04383 46.69374,-0.10738 19.13825,14.95629 m -84.68304,96.57967 -0.21893,-96.38475 m 84.90197,-0.19492 0.21998,96.38381 m -84.6287,119.0579 -0.27432,-118.86204 m 84.90302,-0.19586 0.27327,118.86298 m -84.69849,88.60608 -0.20348,-88.41116 m 84.90197,-0.19492 0.20049,88.411 m -84.60411,130.37549 -0.29487,-130.18041 m 85.1969,129.98449 -84.90203,0.19592 m 84.60411,-130.37549 0.29792,130.17957 M 399.5119,357.7359 v 88.414 m -84.902,-88.414 19.101,-15 h 46.695 l 19.106,15 m -84.902,88.414 v -88.414 m 152.95324,-132.57479 33.08903,-15.05433 80.93647,-0.13539 33.13554,14.94757 m -515.056564,0.8492 33.085034,-15.05414 80.93647,-0.13539 33.13949,14.94638 m 367.89557,-0.60605 26.24632,2.5128 40.52892,34.17342 6.90576,25.45046 m -662.212522,1.09313 6.822565,-25.46938 40.411497,-34.30999 26.240896,-2.60124 m 588.737564,61.28748 15.04682,26.71879 0.107,65.37168 -14.95485,26.7703 M 26.387585,407.00872 11.341771,380.28988 11.233772,314.91825 26.192658,288.14877 m 662.411492,117.76764 -5.64106,24.26543 -37.30496,31.1926 -24.88276,1.25312 M 94.400129,463.49918 69.51219,462.32803 32.104526,431.25796 26.387585,407.00872 m 594.387785,55.61884 -29.26434,15.0485 -71.59966,0.11704 -29.31562,-14.94816 m -266.016,0.43685 -29.26434,15.0485 -71.60061,0.11809 -29.314671,-14.9492 m 396.195621,-0.65424 15.03431,20.34877 0.0837,49.80966 -14.96635,20.40024 m -266.01691,0.4379 -15.03436,-20.34978 -0.0837,-49.80865 14.9673,-20.40129 m 266.16771,90.12182 24.17332,-15.04312 59.14579,-0.0951 24.2208,14.95771 m -481.09795,0.79492 24.16946,-15.03995 59.14665,-0.0981 24.22498,14.96153 m 373.55686,-0.61835 -15.02203,-13.98375 -0.0563,-34.24382 14.97582,-14.03109 m -481.09797,0.79486 15.02203,13.98375 0.0563,34.24383 -14.97581,14.03109 m 480.99544,-63.05353 20.34877,-15.03431 49.80966,-0.0837 20.40028,14.96735 m -662.216564,1.09227 20.349773,-15.03435 49.809839,-0.0798 20.400282,14.96735 m 571.65667,-0.94551 15.04842,30.53866 0.12552,74.71249 -14.94925,30.58999 M 26.751673,627.74724 11.700264,597.20871 11.577737,522.49609 26.526986,491.9061 m 662.441254,134.74883 -64.92352,15.10713 -158.76116,0.26135 -64.97503,-14.89452 m -84.89715,0.14439 -64.92357,15.10613 -158.762105,0.2624 -64.974032,-14.89457 m 373.556857,-0.61835 -19.0784,15.03557 -46.69283,0.0751 -19.12592,-14.96627 m 84.59971,-181.26302 5.63706,-24.26525 37.30496,-31.1926 24.88276,-1.25312 m -220.73852,0.36409 24.88694,1.17119 37.40766,31.07007 5.71676,24.24525 m 152.72716,-56.8506 29.26434,-15.0485 71.59961,-0.11805 29.31567,14.94917 m -481.09795,0.79486 29.26448,-15.0455 71.59947,-0.12105 29.31586,14.95316 m 350.91814,-0.58147 -15.03139,-19.07459 -0.0751,-46.69383 14.96613,-19.12892 m -481.09704,0.79382 15.03058,19.07863 0.0791,46.69365 -14.97026,19.1261 m 480.95758,-85.6922 -24.16951,15.03895 -59.15065,0.0983 -24.21975,-14.95676 m -266.01699,0.43686 -24.17347,15.04013 -59.14665,0.0981 -24.21998,-14.96175 m 373.55709,-0.61337 15.02207,12.70844 0.0519,31.1318 -14.97859,12.75991 m -266.01997,0.43803 -15.01912,-12.70957 -0.0518,-31.13081 14.97855,-12.76091 m 266.11232,56.16326 -20.35295,15.03049 -49.80562,0.0846 -20.40029,-14.96735 m -153.04307,-135.58792 25.42055,2.91075 37.41196,34.17908 5.18702,25.05516 m 84.90138,-0.13959 5.10376,-25.07385 37.30067,-34.30161 25.40919,-2.99384 m -152.715,62.50889 15.02889,16.53307 0.0652,40.46885 -14.97294,16.5806 m 2e-5,0 -20.34878,15.0343 -49.80965,0.0838 -20.40029,-14.96735 m 175.46109,-0.29038 -15.02875,-16.53008 -0.0664,-40.4718 14.97295,-16.5806" />
    <path
       id="path4371"
       style="fill:none;stroke:#800000;stroke-width:1;stroke-linecap:butt;stroke-linejoin:miter;stroke-miterlimit:10;stroke-dasharray:8,8;stroke-dashoffset:0;stroke-opacity:1"
       d="m 161.17064,209.97139 v -84.902 m 256.278,0 v 84.902 m -164.141,0 v -84.902 m 73.582,0 v 84.902 m 187.09293,450.0082 0.005,84.89997 m -90.56263,-84.89485 0.005,84.89997 m -135.84592,-84.8934 0.005,84.90397 M 703.95199,225.623 l 84.90197,-0.19492 m -84.68304,96.57967 84.90302,-0.19586 m -84.6287,119.0579 84.90197,-0.19492 m -84.69849,88.60608 84.89898,-0.19508 M 314.6099,357.7359 h 84.902 m 68.05124,-132.57479 147.16104,-0.24215 m -515.056564,0.8492 147.160994,-0.24315 m 367.89557,-0.60605 73.681,62.13668 m -662.212522,1.09313 73.474958,-62.38061 m 588.737564,61.28748 0.19897,118.86077 M 26.387585,407.00872 26.192658,288.14877 M 688.60415,405.91641 620.77537,462.62756 M 94.400129,463.49918 26.387585,407.00872 m 594.387785,55.61884 -130.17962,0.21738 m -266.016,0.43685 -130.179621,0.21739 m 396.195621,-0.65424 0.1517,90.55867 m -266.01695,0.4379 -0.15075,-90.55972 m 266.1677,90.12182 107.53991,-0.18046 m -481.09795,0.79487 107.54109,-0.17651 m 373.55686,-0.61836 -0.10252,-62.25866 m -481.09796,0.79486 0.10253,62.25867 m 480.99543,-63.05353 90.55871,-0.1507 m -662.216564,1.09231 90.559894,-0.14675 m 571.65667,-0.94556 0.22469,135.84114 M 26.751673,627.74724 26.526986,491.9061 m 662.441254,134.74883 -288.65971,0.47396 m -84.89715,0.14439 -288.659707,0.47396 m 373.556857,-0.61835 -84.89715,0.14439 m -0.30267,-181.12338 84.90238,-0.13963 m 0,0 67.82478,-56.71097 m -220.73852,0.36409 68.01136,56.48651 m 152.72716,-56.8506 130.17962,-0.21738 m -481.09795,0.79486 130.17981,-0.21339 m 350.91814,-0.58147 -0.1404,-84.89734 m -481.097,0.79382 0.13945,84.89838 m 480.95755,-85.6922 -107.53991,0.18046 m -266.01699,0.43689 -107.5401,0.17647 m 373.55709,-0.61336 0.0954,56.60015 m -266.01999,0.43803 -0.0924,-56.60129 m 266.11235,56.16326 -90.55886,0.1477 M 246.82861,225.52501 314.84814,287.67 m 84.90138,-0.13959 67.81362,-62.3693 m -152.715,62.50889 0.12117,73.58252 m 0,0 -90.55872,0.1507 m 175.46109,-0.29033 -0.12216,-73.58248 M 315.41138,627.27328 315.10871,446.1499 m 85.19982,180.97899 -0.29744,-181.11862" />
  </g>
</svg>
