<?xml version="1.0" encoding="UTF-8" standalone="no"?>
<!-- Created with Inkscape (http://www.inkscape.org/) -->

<svg
   version="1.1"
   id="svg1590"
   width="1132"
   height="1132"
   viewBox="0 0 1132 1132"
   sodipodi:docname="3.svg"
   inkscape:version="1.2.2 (732a01da63, 2022-12-09, custom)"
   xmlns:inkscape="http://www.inkscape.org/namespaces/inkscape"
   xmlns:sodipodi="http://sodipodi.sourceforge.net/DTD/sodipodi-0.dtd"
   xmlns="http://www.w3.org/2000/svg"
   xmlns:svg="http://www.w3.org/2000/svg">
  <defs
     id="defs1594" />
  <sodipodi:namedview
     id="namedview1592"
     pagecolor="#ffffff"
     bordercolor="#666666"
     borderopacity="1.0"
     inkscape:showpageshadow="2"
     inkscape:pageopacity="0.0"
     inkscape:pagecheckerboard="0"
     inkscape:deskcolor="#d1d1d1"
     showgrid="false"
     inkscape:zoom="0.65989399"
     inkscape:cx="565.2423"
     inkscape:cy="566"
     inkscape:window-width="1920"
     inkscape:window-height="1009"
     inkscape:window-x="0"
     inkscape:window-y="0"
     inkscape:window-maximized="1"
     inkscape:current-layer="g1598">
    <inkscape:page
       x="0"
       y="0"
       id="page1596"
       width="1132"
       height="1132" />
  </sodipodi:namedview>
  <g
     id="g1598"
     inkscape:groupmode="layer"
     inkscape:label="Page 1"
     transform="matrix(1.3333333,0,0,1.3333333,0,2.83e-5)">
    <path
       id="path3207"
       style="font-size:15px;font-family:'DejaVu Sans';-inkscape-font-specification:DejaVuSans;fill:#0000ff"
       d="m 103.55712,391.42041 v -5.80811 h 1.24512 v 4.45313 h 2.68066 q -0.10986,-0.32227 -0.16113,-0.64453 -0.0586,-0.32227 -0.0586,-0.64453 0,-1.83106 1.00341,-2.90039 1.00342,-1.06934 2.71729,-1.06934 1.76514,0 2.74658,1.09863 0.97412,1.09864 0.97412,3.09815 0,0.68847 -0.11719,1.40625 -0.11718,0.71045 -0.35156,1.47217 h -1.48681 q 0.35888,-0.65918 0.53466,-1.36231 0.17579,-0.70312 0.17579,-1.48682 0,-1.26709 -0.66651,-2.00683 -0.6665,-0.73975 -1.80908,-0.73975 -1.14258,0 -1.80908,0.73975 -0.66651,0.73974 -0.66651,2.00683 0,0.59327 0.13184,1.18653 0.13184,0.58594 0.41016,1.20117 z m 32.85068,-19.6275 4.53525,3.62845 -0.77785,0.97225 -3.47722,-2.78196 -1.67467,2.09318 q 0.32028,0.11555 0.60395,0.27684 0.28825,0.15557 0.53988,0.35689 1.42978,1.1439 1.63791,2.59545 0.20814,1.45155 -0.86255,2.78983 -1.10272,1.3783 -2.57371,1.45832 -1.46642,0.0743 -3.02774,-1.17484 -0.53759,-0.4301 -1.02486,-0.97001 -0.48154,-0.53535 -0.92991,-1.19422 l 0.92884,-1.16098 q 0.29052,0.69204 0.72974,1.26856 0.43922,0.57652 1.05116,1.0661 0.98941,0.79158 1.98342,0.73328 0.99401,-0.0583 1.7078,-0.95048 0.7138,-0.89218 0.55254,-1.87476 -0.16125,-0.98257 -1.15066,-1.77415 -0.46324,-0.37062 -1.00885,-0.6383 -0.53989,-0.2631 -1.19416,-0.43013 z m -64.553308,-108.12737 3.735352,-5.8374 h -3.735352 z m 0.388184,1.28907 h -1.860352 v -7.12647 h -1.560058 v -1.23047 h 1.560058 v -2.57812 h 1.472168 v 2.57812 h 4.936524 v 1.42822 z M 106.646,155.15332 l -5.83741,-3.73535 v 3.73535 z m 1.28906,-0.38818 v 1.86035 h -7.12647 v 1.56006 h -1.230465 v -1.56006 H 97 v -1.47217 h 2.578125 v -4.93652 h 1.428225 z m 44.83961,76.73106 q -0.96121,0.50547 -1.87647,0.33387 -0.9209,-0.16692 -1.5961,-0.97714 -1.03625,-1.24348 -0.74837,-2.63701 0.28788,-1.39353 1.86332,-2.70642 0.52889,-0.44076 1.18064,-0.80275 0.64143,-0.36292 1.41134,-0.65176 l 0.91434,1.09718 q -0.70239,0.11817 -1.38227,0.4464 -0.67988,0.32822 -1.29318,0.83931 -1.06904,0.8909 -1.2744,1.77709 -0.211,0.89088 0.45952,1.69549 0.61893,0.7427 1.48918,0.72299 0.86932,-0.009 1.7977,-0.78305 l 0.97903,-0.81587 0.77836,0.93401 -1.02404,0.85338 q -0.83836,0.69865 -1.00621,1.40104 -0.16317,0.70802 0.362,1.3382 0.53922,0.64705 1.28662,0.60578 0.74647,-0.031 1.6017,-0.74367 0.46701,-0.38918 0.91713,-0.93591 0.45013,-0.54672 0.91338,-1.29506 l 0.844,1.01278 q -0.49701,0.71927 -0.98464,1.27819 -0.49326,0.56361 -0.99403,0.98092 -1.29411,1.07845 -2.54041,1.11597 -1.2416,0.0432 -2.07623,-0.95838 -0.58143,-0.69769 -0.58518,-1.51449 9.2e-4,-0.81117 0.58327,-1.61109 z m -10.58278,-42.97032 q 1.06202,0.22705 1.65528,0.94482 0.60058,0.71778 0.60058,1.77246 0,1.61866 -1.11328,2.50489 -1.11328,0.88623 -3.16406,0.88623 -0.68848,0 -1.4209,-0.13916 -0.7251,-0.13184 -1.50146,-0.40283 v -1.42823 q 0.61523,0.35889 1.34765,0.54199 0.73242,0.18311 1.53076,0.18311 1.39161,0 2.1167,-0.54932 0.73243,-0.54931 0.73243,-1.59668 0,-0.96679 -0.68116,-1.50879 -0.67382,-0.54931 -1.88232,-0.54931 h -1.27441 v -1.21582 h 1.333 q 1.09131,0 1.66992,-0.43213 0.57862,-0.43945 0.57862,-1.25977 0,-0.84228 -0.60059,-1.28906 -0.59326,-0.4541 -1.70654,-0.4541 -0.60791,0 -1.30371,0.13184 -0.6958,0.13183 -1.53076,0.41015 v -1.31836 q 0.84228,-0.23437 1.5747,-0.35156 0.73975,-0.11719 1.39161,-0.11719 1.68457,0 2.66601,0.76905 0.98145,0.76171 0.98145,2.06543 0,0.9082 -0.52002,1.53808 -0.52002,0.62256 -1.4795,0.86426 z m 227.19432,38.18555 -3.96674,-3.30569 0.79712,-0.95651 5.33398,4.44509 -0.79711,0.95651 q -1.20503,0.13034 -3.25688,0.32725 -2.06216,0.19784 -2.62107,0.28505 -1.05687,0.15847 -1.62234,0.40229 -0.5758,0.24475 -0.91809,0.65549 -0.55798,0.66956 -0.43702,1.48542 0.11534,0.81118 0.8693,1.43949 0.53453,0.44545 1.28567,0.75679 0.74553,0.30667 1.73487,0.49235 l -0.95654,1.14782 q -0.91619,-0.29634 -1.62983,-0.6527 -0.71364,-0.35637 -1.20878,-0.76899 -1.30536,-1.08783 -1.53792,-2.38758 -0.23255,-1.29975 0.6771,-2.3913 0.43138,-0.51765 1.01749,-0.82054 0.5758,-0.30196 1.61297,-0.50544 0.27665,-0.0459 1.68236,-0.19973 1.40103,-0.14815 3.94146,-0.40507 z m 10.95705,-33.53467 h 5.16358 v 1.24511 h -6.94336 v -1.24511 q 0.84228,-0.87158 2.29248,-2.33643 1.45752,-1.47217 1.83105,-1.89697 0.71045,-0.79834 0.98877,-1.34766 0.28565,-0.55664 0.28565,-1.09131 0,-0.87158 -0.61524,-1.42089 -0.60791,-0.54932 -1.58935,-0.54932 -0.6958,0 -1.47217,0.2417 -0.76905,0.2417 -1.64795,0.73242 v -1.49414 q 0.89355,-0.35889 1.66992,-0.54199 0.77637,-0.18311 1.4209,-0.18311 1.69922,0 2.70996,0.84961 1.01074,0.84961 1.01074,2.27051 0,0.67383 -0.25635,1.28174 -0.24902,0.60058 -0.91552,1.4209 -0.18311,0.2124 -1.16455,1.23047 -0.98145,1.01074 -2.76856,2.83447 z m 21.56006,100.36133 v -2.417 h -8.34228 l 0.52734,2.6294 h -1.34766 l -0.52734,-2.61475 v -1.47949 h 9.68994 v -2.41699 h 1.24512 v 6.29883 z m 61.46094,-100.36133 h 2.41699 v -8.34229 l -2.62939,0.52735 v -1.34766 l 2.61474,-0.52734 h 1.47949 v 9.68994 h 2.417 v 1.24511 h -6.29883 z M 393.1875,373.22412 q 0,1.14258 1.12793,1.72119 1.12061,0.57129 3.37646,0.57129 2.24854,0 3.37647,-0.57129 1.1206,-0.57861 1.1206,-1.72119 0,-1.1499 -1.1206,-1.72119 -1.12793,-0.57861 -3.37647,-0.57861 -2.25585,0 -3.37646,0.57861 -1.12793,0.57129 -1.12793,1.72119 z m -1.17188,0 q 0,-1.83838 1.45752,-2.80517 1.4502,-0.97413 4.21875,-0.97413 2.76123,0 4.21875,0.97413 1.4502,0.96679 1.4502,2.80517 0,1.83838 -1.4502,2.8125 -1.45752,0.9668 -4.21875,0.9668 -2.76855,0 -4.21875,-0.9668 -1.45752,-0.97412 -1.45752,-2.8125 z M 492.92187,152.48193 q 0,1.14258 1.12793,1.72119 1.12061,0.57129 3.37647,0.57129 2.24853,0 3.37646,-0.57129 1.12061,-0.57861 1.12061,-1.72119 0,-1.1499 -1.12061,-1.72119 -1.12793,-0.57861 -3.37646,-0.57861 -2.25586,0 -3.37647,0.57861 -1.12793,0.57129 -1.12793,1.72119 z m -1.17187,0 q 0,-1.83838 1.45752,-2.80517 1.45019,-0.97412 4.21875,-0.97412 2.76123,0 4.21875,0.97412 1.45019,0.96679 1.45019,2.80517 0,1.83838 -1.45019,2.8125 -1.45752,0.9668 -4.21875,0.9668 -2.76856,0 -4.21875,-0.9668 -1.45752,-0.97412 -1.45752,-2.8125 z m 272.77881,371.71192 h 5.8081 v 1.24511 h -4.45312 v 2.68067 q 0.32226,-0.10986 0.64453,-0.16113 0.32227,-0.0586 0.64453,-0.0586 1.83106,0 2.90039,1.00342 1.06934,1.00342 1.06934,2.71729 0,1.76513 -1.09863,2.74658 -1.09864,0.97412 -3.09815,0.97412 -0.68848,0 -1.40625,-0.11719 -0.71045,-0.11719 -1.47217,-0.35156 v -1.48682 q 0.65918,0.35889 1.36231,0.53467 0.70312,0.17578 1.48681,0.17578 1.26709,0 2.00684,-0.6665 0.73975,-0.66651 0.73975,-1.80908 0,-1.14258 -0.73975,-1.80909 -0.73975,-0.6665 -2.00684,-0.6665 -0.59326,0 -1.18652,0.13184 -0.58594,0.13183 -1.20117,0.41015 z m -28.74902,119.0625 v -5.80811 h 1.24511 v 4.45313 h 2.68067 q -0.10987,-0.32227 -0.16114,-0.64453 -0.0586,-0.32227 -0.0586,-0.64454 0,-1.83105 1.00342,-2.90039 1.00342,-1.06933 2.71728,-1.06933 1.76514,0 2.74658,1.09863 0.97413,1.09863 0.97413,3.09815 0,0.68847 -0.11719,1.40625 -0.11719,0.71044 -0.35156,1.47216 h -1.48682 q 0.35889,-0.65918 0.53467,-1.3623 0.17578,-0.70313 0.17578,-1.48682 0,-1.26709 -0.66651,-2.00683 -0.6665,-0.73975 -1.80908,-0.73975 -1.14258,0 -1.80908,0.73975 -0.6665,0.73974 -0.6665,2.00683 0,0.59326 0.13183,1.18653 0.13184,0.58593 0.41016,1.20117 z m -52.03295,-84.84993 1.19091,6.82713 2.75354,-2.52405 z m -1.1572,-0.68794 1.37137,-1.25708 4.8155,5.25332 1.15001,-1.05416 0.83146,0.90705 -1.15001,1.05416 1.74209,1.90048 -1.08523,0.99478 -1.74209,-1.90048 -3.63899,3.33571 -0.96508,-1.05282 z m 17.87423,52.31814 3.73535,-5.8374 h -3.73535 z m 0.38818,1.28906 h -1.86035 v -7.12646 h -1.56006 v -1.23047 h 1.56006 v -2.57813 h 1.47217 v 2.57813 h 4.93652 v 1.42822 z m 30.54004,-209.18847 q -0.22705,1.06201 -0.94482,1.65527 -0.71778,0.60059 -1.77247,0.60059 -1.61865,0 -2.50488,-1.11328 -0.88623,-1.11329 -0.88623,-3.16407 0,-0.68847 0.13916,-1.4209 0.13184,-0.72509 0.40283,-1.50146 h 1.42823 q -0.35889,0.61523 -0.542,1.34766 -0.1831,0.73242 -0.1831,1.53076 0,1.3916 0.54931,2.1167 0.54932,0.73242 1.59668,0.73242 0.9668,0 1.50879,-0.68115 0.54932,-0.67383 0.54932,-1.88233 v -1.27441 h 1.21582 v 1.33301 q 0,1.0913 0.43213,1.66992 0.43945,0.57861 1.25976,0.57861 0.84229,0 1.28907,-0.60059 0.4541,-0.59326 0.4541,-1.70654 0,-0.60791 -0.13184,-1.30371 -0.13183,-0.6958 -0.41015,-1.53076 h 1.31836 q 0.23437,0.84228 0.35156,1.57471 0.11719,0.73974 0.11719,1.3916 0,1.68457 -0.76905,2.66601 -0.76172,0.98145 -2.06543,0.98145 -0.9082,0 -1.53808,-0.52002 -0.62256,-0.52002 -0.86426,-1.47949 z m -28.10535,8.53543 q -0.68743,-0.84075 -0.70226,-1.77185 -0.0206,-0.93567 0.63832,-1.75922 1.01121,-1.26392 2.43415,-1.26045 1.42295,0.003 3.02431,1.28465 0.53759,0.43011 1.02256,0.99633 0.48384,0.55592 0.92076,1.25255 l -0.89223,1.11522 q -0.25621,-0.66459 -0.71373,-1.26512 -0.45752,-0.60054 -1.0809,-1.09928 -1.08663,-0.86936 -1.99599,-0.89342 -0.91508,-0.0286 -1.56939,0.78921 -0.60398,0.75492 -0.4107,1.60367 0.18299,0.84989 1.12664,1.60486 l 0.99513,0.79615 -0.75955,0.94937 -1.04088,-0.83276 q -0.85215,-0.68176 -1.57392,-0.7058 -0.72634,-0.0183 -1.2388,0.62221 -0.5262,0.6577 -0.33634,1.38175 0.17956,0.72522 1.04886,1.42071 0.47469,0.37978 1.10036,0.71151 0.62568,0.33173 1.45153,0.63603 l -0.82361,1.02943 q -0.80412,-0.34318 -1.44924,-0.70923 -0.65083,-0.37063 -1.15983,-0.77786 -1.31539,-1.05239 -1.60132,-2.26602 -0.2905,-1.20792 0.52396,-2.22591 0.56737,-0.70917 1.36693,-0.87615 0.79498,-0.16125 1.69518,0.24942 z m -232.56964,154.66311 3.80637,3.48913 -0.84135,0.91785 -5.11835,-4.69177 0.84135,-0.91785 q 1.20984,-0.0734 3.26869,-0.17324 2.06919,-0.10034 2.63159,-0.16109 1.06317,-0.10843 1.63952,-0.3253 0.58671,-0.21731 0.94799,-0.61145 0.58895,-0.64249 0.5066,-1.46315 -0.0769,-0.81571 -0.80041,-1.47889 -0.51292,-0.47017 -1.24855,-0.81661 -0.73023,-0.34149 -1.70971,-0.57364 l 1.00962,-1.10142 q 0.9012,0.33924 1.59723,0.72887 0.69604,0.38963 1.17116,0.82515 1.25259,1.1482 1.42357,2.45747 0.17098,1.30928 -0.78916,2.3567 -0.45531,0.49672 -1.05506,0.77163 -0.5894,0.27446 -1.63502,0.42879 -0.2785,0.0328 -1.68991,0.12014 -1.40646,0.0819 -3.95617,0.21868 z m -12.93536,36.29999 h -5.16358 v -1.24512 h 6.94336 v 1.24512 q -0.84228,0.87158 -2.29248,2.33643 -1.45752,1.47217 -1.83105,1.89697 -0.71045,0.79834 -0.98877,1.34766 -0.28565,0.55664 -0.28565,1.09131 0,0.87158 0.61524,1.42089 0.60791,0.54932 1.58935,0.54932 0.6958,0 1.47217,-0.2417 0.76904,-0.2417 1.64795,-0.73242 v 1.49414 q -0.89355,0.35889 -1.66992,0.54199 -0.77637,0.18311 -1.4209,0.18311 -1.69922,0 -2.70996,-0.84961 -1.01074,-0.84961 -1.01074,-2.27051 0,-0.67383 0.25635,-1.28174 0.24902,-0.60058 0.91552,-1.4209 0.18311,-0.2124 1.16455,-1.23047 0.98145,-1.01074 2.76856,-2.83447 z M 438.08496,498.44238 v 2.41699 h 8.34229 l -0.52735,-2.62939 h 1.34766 l 0.52734,2.61475 v 1.47949 h -9.68994 v 2.41699 h -1.24512 v -6.29883 z m -62.35937,103.19336 h -2.417 v 8.34229 l 2.6294,-0.52735 v 1.34766 l -2.61475,0.52734 h -1.47949 v -9.68994 h -2.41699 v -1.24512 h 6.29883 z m 71.07519,-180.04736 q 0,-1.14258 -1.12793,-1.72119 -1.1206,-0.57129 -3.37646,-0.57129 -2.24854,0 -3.37647,0.57129 -1.1206,0.57861 -1.1206,1.72119 0,1.1499 1.1206,1.72119 1.12793,0.57861 3.37647,0.57861 2.25586,0 3.37646,-0.57861 1.12793,-0.57129 1.12793,-1.72119 z m 1.17188,0 q 0,1.83838 -1.45752,2.80517 -1.4502,0.97413 -4.21875,0.97413 -2.76123,0 -4.21875,-0.97413 -1.4502,-0.96679 -1.4502,-2.80517 0,-1.83838 1.4502,-2.8125 1.45752,-0.9668 4.21875,-0.9668 2.76855,0 4.21875,0.9668 1.45752,0.97412 1.45752,2.8125 z M 349,642.32666 q 0,-1.14258 -1.12793,-1.72119 -1.12061,-0.57129 -3.37646,-0.57129 -2.24854,0 -3.37647,0.57129 -1.1206,0.57861 -1.1206,1.72119 0,1.1499 1.1206,1.72119 1.12793,0.57861 3.37647,0.57861 2.25585,0 3.37646,-0.57861 Q 349,643.47656 349,642.32666 Z m 1.17187,0 q 0,1.83838 -1.45751,2.80518 -1.4502,0.97412 -4.21875,0.97412 -2.76124,0 -4.21875,-0.97412 -1.4502,-0.9668 -1.4502,-2.80518 0,-1.83838 1.4502,-2.8125 1.45751,-0.9668 4.21875,-0.9668 2.76855,0 4.21875,0.9668 1.45751,0.97412 1.45751,2.8125 z" />
    <path
       id="path2270"
       style="fill:none;stroke:#00ff00;stroke-width:1;stroke-linecap:butt;stroke-linejoin:miter;stroke-miterlimit:10;stroke-dasharray:8, 2, 2, 2;stroke-dashoffset:0;stroke-opacity:1"
       d="M 115.992,407.621 H 31.09 M 719.902,704.16 v 84.902 m -107.543,-84.898 0.004,84.898 m -84.902,-84.898 v 84.902 m -237.723,-84.898 0.004,84.898 m -84.898,0.004 -0.004,-84.902 M 97.301,789.07 v -84.898" />
    <path
       id="path3542"
       style="font-size:15px;font-family:'DejaVu Sans';-inkscape-font-specification:DejaVuSans"
       d="m 266.95505,586.63525 -3.73535,5.83741 h 3.73535 z m -0.38819,-1.28906 h 1.86036 v 7.12647 h 1.56005 v 1.23046 h -1.56005 v 2.57813 h -1.47217 v -2.57813 h -4.93653 v -1.42822 z m -11.94235,9.68994 h 5.16358 v 1.24512 h -6.94336 v -1.24512 q 0.84228,-0.87158 2.29248,-2.33642 1.45752,-1.47217 1.83105,-1.89698 0.71045,-0.79834 0.98877,-1.34765 0.28565,-0.55664 0.28565,-1.09131 0,-0.87158 -0.61524,-1.4209 -0.60791,-0.54932 -1.58935,-0.54932 -0.6958,0 -1.47217,0.2417 -0.76905,0.2417 -1.64795,0.73243 v -1.49414 q 0.89355,-0.35889 1.66992,-0.542 0.77637,-0.1831 1.4209,-0.1831 1.69922,0 2.70996,0.84961 1.01074,0.84961 1.01074,2.2705 0,0.67383 -0.25635,1.28174 -0.24902,0.60059 -0.91552,1.4209 -0.18311,0.2124 -1.16455,1.23047 -0.98145,1.01074 -2.76856,2.83447 z m -94.34399,-28.95221 q 0.62944,0.885 0.58176,1.81499 -0.0423,0.93494 -0.75497,1.71242 -1.09375,1.1932 -2.51326,1.09422 -1.41951,-0.099 -2.93126,-1.48473 -0.50751,-0.46522 -0.9534,-1.06272 -0.44541,-0.58714 -0.83461,-1.31152 l 0.96509,-1.05283 q 0.21101,0.68029 0.62719,1.31019 0.41619,0.62988 1.00469,1.16933 1.02583,0.94034 1.93152,1.02538 0.9111,0.09 1.61882,-0.6821 0.65329,-0.71268 0.51741,-1.57248 -0.12553,-0.86026 -1.01639,-1.67687 l -0.93944,-0.86114 0.82155,-0.89625 0.98264,0.90074 q 0.80446,0.73741 1.523,0.80985 0.72347,0.067 1.27777,-0.53766 0.56915,-0.6209 0.42832,-1.35608 -0.13048,-0.73562 -0.95114,-1.48789 -0.44813,-0.41078 -1.05013,-0.78376 -0.60199,-0.37298 -1.40556,-0.73202 l 0.89085,-0.97184 q 0.77926,0.39638 1.39836,0.80491 0.62449,0.41347 1.10502,0.85395 1.24179,1.1383 1.4456,2.36839 0.20878,1.22469 -0.67217,2.18573 -0.61369,0.66949 -1.42265,0.78242 -0.80401,0.10754 -1.67461,-0.36263 z m -12.54,-5.18567 3.80637,3.48914 -0.84136,0.91785 -5.11834,-4.69177 0.84135,-0.91785 q 1.20984,-0.0734 3.2687,-0.17324 2.06919,-0.10034 2.63159,-0.16109 1.06317,-0.10843 1.63952,-0.3253 0.5867,-0.21732 0.94798,-0.61145 0.58895,-0.6425 0.50661,-1.46315 -0.0769,-0.81571 -0.80042,-1.4789 -0.51292,-0.47017 -1.24854,-0.8166 -0.73023,-0.34149 -1.70971,-0.57364 l 1.00962,-1.10142 q 0.9012,0.33923 1.59723,0.72887 0.69604,0.38963 1.17116,0.82515 1.25259,1.1482 1.42357,2.45747 0.17097,1.30927 -0.78916,2.3567 -0.45532,0.49672 -1.05507,0.77163 -0.5894,0.27446 -1.63501,0.42879 -0.27851,0.0328 -1.68991,0.12014 -1.40646,0.0819 -3.95618,0.21867 z M 118.7373,480.26608 v 5.16358 h -1.24511 v -6.94336 h 1.24511 q 0.87159,0.84228 2.33643,2.29248 1.47217,1.45752 1.89697,1.83105 0.79834,0.71045 1.34766,0.98877 0.55664,0.28565 1.09131,0.28565 0.87158,0 1.4209,-0.61524 0.54931,-0.60791 0.54931,-1.58935 0,-0.6958 -0.2417,-1.47217 -0.2417,-0.76904 -0.73242,-1.64795 h 1.49414 q 0.35889,0.89355 0.54199,1.66992 0.18311,0.77637 0.18311,1.4209 0,1.69922 -0.84961,2.70996 -0.84961,1.01074 -2.27051,1.01074 -0.67383,0 -1.28174,-0.25634 -0.60058,-0.24903 -1.42089,-0.91553 -0.21241,-0.18311 -1.23047,-1.16455 -1.01074,-0.98145 -2.83448,-2.76856 z m 0,-9.54001 v 5.16358 h -1.24511 v -6.94336 h 1.24511 q 0.87159,0.84228 2.33643,2.29248 1.47217,1.45752 1.89697,1.83105 0.79834,0.71045 1.34766,0.98877 0.55664,0.28565 1.09131,0.28565 0.87158,0 1.4209,-0.61524 0.54931,-0.60791 0.54931,-1.58935 0,-0.6958 -0.2417,-1.47217 -0.2417,-0.76904 -0.73242,-1.64795 h 1.49414 q 0.35889,0.89356 0.54199,1.66992 0.18311,0.77637 0.18311,1.4209 0,1.69922 -0.84961,2.70996 -0.84961,1.01074 -2.27051,1.01074 -0.67383,0 -1.28174,-0.25634 -0.60058,-0.24903 -1.42089,-0.91553 -0.21241,-0.18311 -1.23047,-1.16455 -1.01074,-0.98145 -2.83448,-2.76856 z m 10.6972,-61.30755 -1.8873,1.50994 5.2116,6.51405 1.72371,-2.0544 0.84191,1.05231 -1.71227,2.04526 -1.15527,0.92427 -6.05351,-7.56637 -1.8873,1.50995 -0.77785,-0.97225 4.91843,-3.93501 z m 6.65434,-5.32384 -4.03196,3.22579 -0.77786,-0.97225 5.42171,-4.33766 0.77786,0.97225 q -0.11321,1.20677 -0.33047,3.25655 -0.21841,2.06008 -0.2447,2.62515 -0.056,1.06722 0.0698,1.67002 0.1247,0.61309 0.45872,1.03059 0.5445,0.68057 1.36807,0.72516 0.81786,0.0492 1.58422,-0.56397 0.54331,-0.43468 0.99855,-1.10843 0.4495,-0.66916 0.82923,-1.60142 l 0.93342,1.16669 q -0.47353,0.83847 -0.96536,1.46646 -0.49184,0.62798 -0.99512,1.03064 -1.32683,1.06153 -2.64684,1.02956 -1.32,-0.032 -2.20766,-1.14149 -0.42096,-0.52616 -0.60056,-1.16099 -0.18076,-0.62454 -0.17278,-1.68146 0.0103,-0.28024 0.14064,-1.68833 0.13492,-1.40236 0.39106,-3.94286 z m -56.737804,-7.93452 q -1.142578,0 -1.721191,1.12793 -0.571289,1.1206 -0.571289,3.37646 0,2.24854 0.571289,3.37647 0.578613,1.1206 1.721191,1.1206 1.149902,0 1.721191,-1.1206 0.578614,-1.12793 0.578614,-3.37647 0,-2.25586 -0.578614,-3.37646 -0.571289,-1.12793 -1.721191,-1.12793 z m 0,-1.17188 q 1.838379,0 2.805176,1.45752 0.974121,1.4502 0.974121,4.21875 0,2.76123 -0.974121,4.21875 -0.966797,1.4502 -2.805176,1.4502 -1.838379,0 -2.8125,-1.4502 -0.966797,-1.45752 -0.966797,-4.21875 0,-2.76855 0.966797,-4.21875 0.974121,-1.45752 2.8125,-1.45752 z m -11.429649,9.8877 h 5.163574 v 1.24511 h -6.943359 v -1.24511 q 0.842285,-0.87159 2.29248,-2.33643 1.45752,-1.47217 1.831055,-1.89697 0.710449,-0.79834 0.988769,-1.34766 0.285645,-0.55664 0.285645,-1.09131 0,-0.87158 -0.615235,-1.4209 -0.60791,-0.54931 -1.589355,-0.54931 -0.695801,0 -1.472168,0.2417 -0.769043,0.2417 -1.647949,0.73242 v -1.49414 q 0.893554,-0.35889 1.669922,-0.54199 0.776367,-0.18311 1.420898,-0.18311 1.699219,0 2.709961,0.84961 1.010742,0.84961 1.010742,2.27051 0,0.67383 -0.256347,1.28174 -0.249024,0.60058 -0.915528,1.4209 -0.183105,0.2124 -1.164551,1.23046 -0.981445,1.01075 -2.768554,2.83448 z M 32.816902,392.49655 h 1.347656 q -0.263671,0.55664 -0.402832,1.12793 -0.13916,0.57129 -0.13916,1.12061 0,1.46484 0.981446,2.23388 0.988769,0.77637 2.995605,0.88623 -0.629883,-0.4248 -0.966797,-1.07666 -0.336914,-0.65185 -0.336914,-1.44287 0,-1.64062 0.98877,-2.6001 0.996093,-0.95214 2.717285,-0.95214 1.68457,0 2.702636,0.99609 1.018067,0.99609 1.018067,2.65137 0,1.89697 -1.45752,2.89306 -1.450195,1.00342 -4.21875,1.00342 -2.585449,0 -4.130859,-1.23047 -1.538086,-1.22314 -1.538086,-3.2959 0,-0.55664 0.109863,-1.12793 0.109864,-0.57128 0.32959,-1.18652 z m 4.636231,2.94434 q 0,0.99609 0.681152,1.5747 0.681152,0.58594 1.867676,0.58594 1.179199,0 1.860351,-0.58594 0.688477,-0.57861 0.688477,-1.5747 0,-0.9961 -0.688477,-1.58203 -0.681152,-0.57862 -1.860351,-0.57862 -1.186524,0 -1.867676,0.57862 -0.681152,0.58593 -0.681152,1.58203 z m -3.618164,-12.27194 v 2.41699 h 8.342285 l -0.527344,-2.6294 h 1.347656 l 0.527344,2.61475 v 1.47949 h -9.689941 v 2.41699 h -1.245118 v -6.29882 z m 3.947753,-65.11869 q 0,-1.05469 -0.563964,-1.6626 -0.563965,-0.60058 -1.552735,-0.60058 -0.988769,0 -1.552734,0.60058 -0.563965,0.60791 -0.563965,1.6626 0,1.05469 0.563965,1.6626 0.571289,0.60791 1.552734,0.60791 0.98877,0 1.552735,-0.60791 0.563964,-0.60059 0.563964,-1.6626 z m 0.629883,-1.47949 q 0.234375,-0.95215 0.886231,-1.48682 0.651855,-0.52734 1.589355,-0.52734 1.311035,0 2.072754,0.93018 0.761719,0.9375 0.761719,2.56347 0,1.6333 -0.761719,2.56348 -0.761719,0.93017 -2.072754,0.93017 -0.9375,0 -1.589355,-0.53466 -0.651856,-0.52735 -0.886231,-1.47217 -0.249023,1.06933 -0.974121,1.6626 -0.725097,0.60058 -1.772461,0.60058 -1.589355,0 -2.438965,-0.97412 -0.849609,-0.9668 -0.849609,-2.77588 0,-1.80908 0.849609,-2.7832 0.84961,-0.9668 2.438965,-0.9668 1.047364,0 1.772461,0.60059 0.725098,0.60058 0.974121,1.66992 z m 2.336426,-0.54199 q -0.849609,0 -1.325684,0.52734 -0.476074,0.53467 -0.476074,1.49414 0,0.95215 0.476074,1.48682 0.476075,0.54199 1.325684,0.54199 0.849609,0 1.325684,-0.54199 0.476074,-0.53467 0.476074,-1.48682 0,-0.95947 -0.476074,-1.49414 -0.476075,-0.52734 -1.325684,-0.52734 z m -6.914062,-10.42624 v 2.41699 h 8.342285 l -0.527344,-2.62939 h 1.347656 l 0.527344,2.61474 v 1.47949 h -9.689941 v 2.417 h -1.245118 v -6.29883 z M 137.01079,123.45459 h -7.03125 v -0.62988 l 3.96972,-10.30518 h 1.54541 l -3.73535,9.68994 h 5.25147 z m 8.91011,-9.68994 h -2.41699 v 8.34228 l 2.62939,-0.52734 v 1.34766 l -2.61475,0.52734 h -1.47949 v -9.68994 h -2.41699 v -1.24512 h 6.29883 z m 108.15433,4.81201 q 0.99609,0 1.58203,-0.68115 0.57861,-0.68115 0.57861,-1.86768 0,-1.1792 -0.57861,-1.86767 -0.58594,-0.68116 -1.58203,-0.68116 -0.9961,0 -1.57471,0.68116 -0.58594,0.68847 -0.58594,1.86767 0,1.18653 0.58594,1.86768 0.57861,0.68115 1.57471,0.68115 z m -2.93702,4.63623 v -1.34766 q 0.55664,0.26368 1.12793,0.40284 0.56397,0.13916 1.12061,0.13916 1.46484,0 2.24121,-0.98877 0.76904,-0.98877 0.87891,-2.98828 -0.43213,0.6372 -1.08399,0.97412 -0.65185,0.34424 -1.43554,0.34424 -1.64795,0 -2.6001,-1.00342 -0.95948,-0.9961 -0.95948,-2.71729 0,-1.68457 0.9961,-2.70263 0.99609,-1.01807 2.65137,-1.01807 1.89697,0 2.90039,1.45019 1.00341,1.45752 1.00341,4.21875 0,2.59278 -1.23046,4.13086 -1.23047,1.54541 -3.30323,1.54541 -0.55664,0 -1.1206,-0.10986 -0.57129,-0.10986 -1.18653,-0.32959 z m 15.56784,-9.44824 h -2.41699 v 8.34228 l 2.6294,-0.52734 v 1.34766 l -2.61475,0.52734 h -1.47949 v -9.68994 h -2.41699 v -1.24512 h 6.29882 z m 111.13529,9.68994 h -5.80811 v -1.24512 h 4.45313 v -2.68066 q -0.32227,0.10986 -0.64453,0.16113 -0.32227,0.0586 -0.64453,0.0586 -1.83106,0 -2.90039,-1.00342 -1.06934,-1.00342 -1.06934,-2.71729 0,-1.76513 1.09863,-2.74658 1.09864,-0.97412 3.09815,-0.97412 0.68847,0 1.40625,0.11719 0.71045,0.11718 1.47216,0.35156 v 1.48682 q -0.65917,-0.35889 -1.3623,-0.53467 -0.70312,-0.17578 -1.48682,-0.17578 -1.26709,0 -2.00683,0.6665 -0.73975,0.6665 -0.73975,1.80908 0,1.14258 0.73975,1.80908 0.73974,0.66651 2.00683,0.66651 0.59327,0 1.18653,-0.13184 0.58593,-0.13183 1.20117,-0.41015 z m 9.29831,-9.68994 h -2.41699 v 8.34228 l 2.62939,-0.52734 v 1.34766 l -2.61475,0.52734 h -1.47949 v -9.68994 h -2.41699 v -1.24512 h 6.29883 z m 70.70999,8.40088 3.73535,-5.8374 h -3.73535 z m 0.38818,1.28906 h -1.86035 v -7.12646 h -1.56006 v -1.23047 h 1.56006 v -2.57813 h 1.47217 v 2.57813 h 4.93652 v 1.42822 z m 12.96042,-9.68994 h -2.41699 v 8.34228 l 2.62939,-0.52734 v 1.34766 l -2.61474,0.52734 h -1.47949 v -9.68994 h -2.417 v -1.24512 h 6.29883 z m -145.9624,267.10446 -5.8374,-3.73535 v 3.73535 z m 1.28906,-0.38818 v 1.86035 h -7.12646 v 1.56006 h -1.23047 v -1.56006 h -2.57813 v -1.47217 h 2.57813 v -4.93652 h 1.42822 z m -5.03906,-8.73435 q -0.22705,1.06201 -0.94482,1.65528 -0.71778,0.60058 -1.77247,0.60058 -1.61865,0 -2.50488,-1.11328 -0.88623,-1.11328 -0.88623,-3.16406 0,-0.68848 0.13916,-1.4209 0.13184,-0.7251 0.40283,-1.50147 h 1.42823 q -0.35889,0.61524 -0.542,1.34766 -0.1831,0.73242 -0.1831,1.53076 0,1.3916 0.54931,2.1167 0.54932,0.73242 1.59668,0.73242 0.9668,0 1.50879,-0.68115 0.54932,-0.67383 0.54932,-1.88232 v -1.27442 h 1.21582 v 1.33301 q 0,1.09131 0.43213,1.66992 0.43945,0.57862 1.25976,0.57862 0.84229,0 1.28907,-0.60059 0.4541,-0.59326 0.4541,-1.70654 0,-0.60791 -0.13184,-1.30371 -0.13183,-0.6958 -0.41015,-1.53077 h 1.31836 q 0.23437,0.84229 0.35156,1.57471 0.11719,0.73975 0.11719,1.3916 0,1.68457 -0.76905,2.66602 -0.76172,0.98144 -2.06543,0.98144 -0.9082,0 -1.53808,-0.52002 -0.62256,-0.52002 -0.86426,-1.47949 z m 45.39059,37.52149 q 1.06202,0.22705 1.65528,0.94482 0.60058,0.71777 0.60058,1.77246 0,1.61865 -1.11328,2.50488 -1.11328,0.88623 -3.16406,0.88623 -0.68848,0 -1.4209,-0.13916 -0.7251,-0.13183 -1.50146,-0.40283 v -1.42822 q 0.61523,0.35889 1.34765,0.54199 0.73242,0.18311 1.53076,0.18311 1.39161,0 2.1167,-0.54932 0.73243,-0.54932 0.73243,-1.59668 0,-0.9668 -0.68116,-1.50879 -0.67382,-0.54931 -1.88232,-0.54931 h -1.27441 v -1.21582 h 1.333 q 1.09131,0 1.66992,-0.43213 0.57862,-0.43946 0.57862,-1.25977 0,-0.84228 -0.60059,-1.28906 -0.59326,-0.4541 -1.70654,-0.4541 -0.60791,0 -1.30371,0.13183 -0.6958,0.13184 -1.53076,0.41016 V 404.5 q 0.84228,-0.23438 1.5747,-0.35156 0.73975,-0.11719 1.39161,-0.11719 1.68457,0 2.66601,0.76904 0.98145,0.76172 0.98145,2.06543 0,0.90821 -0.52002,1.53809 -0.52002,0.62256 -1.4795,0.86426 z m -13.76608,4.65088 h 2.41699 v -8.34229 l -2.62939,0.52734 v -1.34765 l 2.61475,-0.52735 h 1.47949 v 9.68995 h 2.41699 v 1.24511 h -6.29883 z m -31.62451,-106.0347 q -0.22705,1.06201 -0.94482,1.65527 -0.71778,0.60059 -1.77247,0.60059 -1.61865,0 -2.50488,-1.11329 -0.88623,-1.11328 -0.88623,-3.16406 0,-0.68847 0.13916,-1.4209 0.13184,-0.72509 0.40283,-1.50146 h 1.42823 q -0.35889,0.61523 -0.542,1.34766 -0.1831,0.73242 -0.1831,1.53076 0,1.3916 0.54931,2.1167 0.54932,0.73242 1.59668,0.73242 0.9668,0 1.50879,-0.68115 0.54932,-0.67383 0.54932,-1.88233 v -1.27441 h 1.21582 v 1.33301 q 0,1.0913 0.43213,1.66992 0.43945,0.57861 1.25976,0.57861 0.84229,0 1.28907,-0.60059 0.4541,-0.59326 0.4541,-1.70654 0,-0.60791 -0.13184,-1.30371 -0.13183,-0.6958 -0.41015,-1.53076 h 1.31836 q 0.23437,0.84228 0.35156,1.57471 0.11719,0.73974 0.11719,1.3916 0,1.68457 -0.76905,2.66601 -0.76172,0.98145 -2.06543,0.98145 -0.9082,0 -1.53808,-0.52002 -0.62256,-0.52002 -0.86426,-1.47949 z m 0,-9.54001 q -0.22705,1.06201 -0.94482,1.65527 -0.71778,0.60059 -1.77247,0.60059 -1.61865,0 -2.50488,-1.11328 -0.88623,-1.11328 -0.88623,-3.16407 0,-0.68847 0.13916,-1.42089 0.13184,-0.7251 0.40283,-1.50147 h 1.42823 q -0.35889,0.61523 -0.542,1.34766 -0.1831,0.73242 -0.1831,1.53076 0,1.3916 0.54931,2.1167 0.54932,0.73242 1.59668,0.73242 0.9668,0 1.50879,-0.68115 0.54932,-0.67383 0.54932,-1.88233 v -1.27441 h 1.21582 v 1.33301 q 0,1.09131 0.43213,1.66992 0.43945,0.57861 1.25976,0.57861 0.84229,0 1.28907,-0.60058 0.4541,-0.59327 0.4541,-1.70655 0,-0.60791 -0.13184,-1.30371 -0.13183,-0.6958 -0.41015,-1.53076 h 1.31836 q 0.23437,0.84229 0.35156,1.57471 0.11719,0.73974 0.11719,1.3916 0,1.68457 -0.76905,2.66601 -0.76172,0.98145 -2.06543,0.98145 -0.9082,0 -1.53808,-0.52002 -0.62256,-0.52002 -0.86426,-1.47949 z m -56.96976,-31.58936 h 5.16358 V 268 h -6.94336 v -1.24512 q 0.84228,-0.87158 2.29248,-2.33642 1.45752,-1.47217 1.83105,-1.89698 0.71045,-0.79834 0.98877,-1.34765 0.28565,-0.55664 0.28565,-1.09131 0,-0.87158 -0.61524,-1.4209 -0.60791,-0.54932 -1.58935,-0.54932 -0.6958,0 -1.47217,0.2417 -0.76904,0.2417 -1.64795,0.73243 v -1.49414 q 0.89355,-0.35889 1.66992,-0.542 0.77637,-0.1831 1.4209,-0.1831 1.69922,0 2.70996,0.84961 1.01074,0.84961 1.01074,2.2705 0,0.67383 -0.25634,1.28174 -0.24903,0.60059 -0.91553,1.4209 -0.18311,0.2124 -1.16455,1.23047 -0.98145,1.01074 -2.76856,2.83447 z m -6.332,-4.65088 q 1.06201,0.22705 1.65528,0.94483 0.60058,0.71777 0.60058,1.77246 0,1.61865 -1.11328,2.50488 -1.11328,0.88623 -3.16406,0.88623 -0.68848,0 -1.4209,-0.13916 -0.7251,-0.13183 -1.50147,-0.40283 v -1.42822 q 0.61524,0.35888 1.34766,0.54199 0.73242,0.18311 1.53076,0.18311 1.3916,0 2.1167,-0.54932 0.73242,-0.54932 0.73242,-1.59668 0,-0.9668 -0.68115,-1.50879 -0.67383,-0.54932 -1.88232,-0.54932 h -1.27442 v -1.21582 h 1.33301 q 1.09131,0 1.66992,-0.43213 0.57862,-0.43945 0.57862,-1.25976 0,-0.84229 -0.60059,-1.28906 -0.59326,-0.45411 -1.70654,-0.45411 -0.60791,0 -1.30371,0.13184 -0.6958,0.13184 -1.53077,0.41016 v -1.31836 q 0.84229,-0.23438 1.57471,-0.35157 0.73975,-0.11718 1.3916,-0.11718 1.68457,0 2.66602,0.76904 0.98144,0.76172 0.98144,2.06543 0,0.9082 -0.52002,1.53809 -0.52002,0.62255 -1.47949,0.86425 z m -54.37842,46.72611 v -2.41699 h -8.34228 l 0.52734,2.62939 h -1.34765 l -0.52735,-2.61475 v -1.47949 h 9.68994 v -2.41699 h 1.24512 v 6.29883 z m -4.65087,5.31393 q 0.22705,-1.06201 0.94482,-1.65527 0.71777,-0.60059 1.77246,-0.60059 1.61865,0 2.50488,1.11328 0.88623,1.11329 0.88623,3.16407 0,0.68847 -0.13916,1.4209 -0.13183,0.72509 -0.40283,1.50146 h -1.42822 q 0.35889,-0.61523 0.54199,-1.34766 0.18311,-0.73242 0.18311,-1.53076 0,-1.3916 -0.54932,-2.1167 -0.54932,-0.73242 -1.59668,-0.73242 -0.9668,0 -1.50879,0.68115 -0.54932,0.67383 -0.54932,1.88233 v 1.27441 h -1.21582 v -1.33301 q 0,-1.0913 -0.43212,-1.66992 -0.43946,-0.57861 -1.25977,-0.57861 -0.84229,0 -1.28906,0.60059 -0.4541,0.59326 -0.4541,1.70654 0,0.60791 0.13183,1.30371 0.13184,0.6958 0.41016,1.53076 h -1.31836 q -0.23438,-0.84228 -0.35156,-1.57471 -0.11719,-0.73974 -0.11719,-1.3916 0,-1.68457 0.76904,-2.66601 0.76172,-0.98145 2.06543,-0.98145 0.9082,0 1.53809,0.52002 0.62256,0.52002 0.86426,1.47949 z m 41.18168,51.71924 q 1.14258,0 1.72119,-1.12793 0.57129,-1.1206 0.57129,-3.37646 0,-2.24854 -0.57129,-3.37647 -0.57861,-1.1206 -1.72119,-1.1206 -1.1499,0 -1.72119,1.1206 -0.57861,1.12793 -0.57861,3.37647 0,2.25586 0.57861,3.37646 0.57129,1.12793 1.72119,1.12793 z m 0,1.17188 q -1.83838,0 -2.80517,-1.45752 -0.97413,-1.4502 -0.97413,-4.21875 0,-2.76123 0.97413,-4.21875 0.96679,-1.4502 2.80517,-1.4502 1.83838,0 2.8125,1.4502 0.9668,1.45752 0.9668,4.21875 0,2.76855 -0.9668,4.21875 -0.97412,1.45752 -2.8125,1.45752 z m 8.22165,-5.23682 q -1.06201,-0.22705 -1.65527,-0.94482 -0.60059,-0.71778 -0.60059,-1.77247 0,-1.61865 1.11328,-2.50488 1.11328,-0.88623 3.16407,-0.88623 0.68847,0 1.42089,0.13916 0.7251,0.13184 1.50147,0.40283 v 1.42823 q -0.61524,-0.35889 -1.34766,-0.542 -0.73242,-0.1831 -1.53076,-0.1831 -1.3916,0 -2.1167,0.54931 -0.73242,0.54932 -0.73242,1.59668 0,0.9668 0.68115,1.50879 0.67383,0.54932 1.88233,0.54932 h 1.27441 v 1.21582 h -1.33301 q -1.09131,0 -1.66992,0.43213 -0.57861,0.43945 -0.57861,1.25976 0,0.84229 0.60058,1.28907 0.59326,0.4541 1.70655,0.4541 0.60791,0 1.30371,-0.13184 0.6958,-0.13183 1.53076,-0.41015 v 1.31836 q -0.84229,0.23437 -1.57471,0.35156 -0.73974,0.11719 -1.3916,0.11719 -1.68457,0 -2.66602,-0.76905 -0.98144,-0.76172 -0.98144,-2.06543 0,-0.9082 0.52002,-1.53808 0.52002,-0.62256 1.47949,-0.86426 z m 35.50389,29.50198 h -1.34765 q 0.26367,-0.55664 0.40283,-1.12793 0.13916,-0.57129 0.13916,-1.1206 0,-1.46485 -0.98145,-2.23389 -0.98877,-0.77637 -2.9956,-0.88623 0.62988,0.42481 0.96679,1.07666 0.33692,0.65186 0.33692,1.44287 0,1.64063 -0.98877,2.6001 -0.9961,0.95215 -2.71729,0.95215 -1.68457,0 -2.70263,-0.9961 -1.01807,-0.99609 -1.01807,-2.65136 0,-1.89698 1.45752,-2.89307 1.45019,-1.00342 4.21875,-1.00342 2.58545,0 4.13086,1.23047 1.53808,1.22315 1.53808,3.2959 0,0.55664 -0.10986,1.12793 -0.10986,0.57129 -0.32959,1.18652 z m -4.63623,-2.94433 q 0,-0.9961 -0.68115,-1.57471 -0.68115,-0.58594 -1.86768,-0.58594 -1.1792,0 -1.86035,0.58594 -0.68848,0.57861 -0.68848,1.57471 0,0.99609 0.68848,1.58203 0.68115,0.57861 1.86035,0.57861 1.18653,0 1.86768,-0.57861 0.68115,-0.58594 0.68115,-1.58203 z m 3.61817,11.25387 v -5.16357 h 1.24511 v 6.94336 h -1.24511 q -0.87159,-0.84229 -2.33643,-2.29248 -1.47217,-1.45752 -1.89697,-1.83106 -0.79834,-0.71045 -1.34766,-0.98877 -0.55664,-0.28564 -1.09131,-0.28564 -0.87158,0 -1.4209,0.61523 -0.54931,0.60791 -0.54931,1.58936 0,0.6958 0.2417,1.47217 0.2417,0.76904 0.73242,1.64795 h -1.49414 q -0.35889,-0.89356 -0.54199,-1.66993 -0.18311,-0.77636 -0.18311,-1.42089 0,-1.69922 0.84961,-2.70997 0.84961,-1.01074 2.27051,-1.01074 0.67383,0 1.28174,0.25635 0.60058,0.24902 1.42089,0.91553 0.21241,0.1831 1.23047,1.16455 1.01074,0.98144 2.83448,2.76855 z m -31.04839,27.33789 q -1.05469,0 -1.6626,0.56397 -0.60058,0.56396 -0.60058,1.55273 0,0.98877 0.60058,1.55274 0.60791,0.56396 1.6626,0.56396 1.05469,0 1.6626,-0.56396 0.60791,-0.57129 0.60791,-1.55274 0,-0.98877 -0.60791,-1.55273 -0.60059,-0.56397 -1.6626,-0.56397 z m -1.47949,-0.62988 q -0.95215,-0.23437 -1.48682,-0.88623 -0.52734,-0.65185 -0.52734,-1.58935 0,-1.31104 0.93017,-2.07276 0.9375,-0.76172 2.56348,-0.76172 1.6333,0 2.56348,0.76172 0.93017,0.76172 0.93017,2.07276 0,0.9375 -0.53467,1.58935 -0.52734,0.65186 -1.47216,0.88623 1.06933,0.24902 1.66259,0.97412 0.60059,0.7251 0.60059,1.77246 0,1.58936 -0.97412,2.43897 -0.9668,0.84961 -2.77588,0.84961 -1.80908,0 -2.7832,-0.84961 -0.9668,-0.84961 -0.9668,-2.43897 0,-1.04736 0.60059,-1.77246 0.60058,-0.7251 1.66992,-0.97412 z m -0.54199,-2.33642 q 0,0.8496 0.52734,1.32568 0.53467,0.47607 1.49414,0.47607 0.95215,0 1.48682,-0.47607 0.54199,-0.47608 0.54199,-1.32568 0,-0.84961 -0.54199,-1.32569 -0.53467,-0.47607 -1.48682,-0.47607 -0.95947,0 -1.49414,0.47607 -0.52734,0.47608 -0.52734,1.32569 z m -9.40816,6.91406 h 5.16357 v 1.24511 h -6.94336 v -1.24511 q 0.84229,-0.87158 2.29248,-2.33643 1.45752,-1.47217 1.83106,-1.89697 0.71045,-0.79834 0.98877,-1.34766 0.28564,-0.55664 0.28564,-1.09131 0,-0.87158 -0.61523,-1.42089 -0.60791,-0.54932 -1.58936,-0.54932 -0.6958,0 -1.47217,0.2417 -0.76904,0.2417 -1.64795,0.73242 v -1.49414 q 0.89356,-0.35889 1.66993,-0.54199 0.77636,-0.18311 1.4209,-0.18311 1.69921,0 2.70996,0.84961 1.01074,0.84961 1.01074,2.27051 0,0.67383 -0.25635,1.28174 -0.24902,0.60058 -0.91553,1.4209 -0.1831,0.2124 -1.16455,1.23047 -0.98144,1.01074 -2.76855,2.83447 z m -46.4502,42.77936 v -7.03125 h 0.62989 l 10.30517,3.96972 v 1.54541 l -9.68994,-3.73535 v 5.25147 z m 9.68994,7.89202 v -5.16357 h 1.24512 v 6.94336 h -1.24512 q -0.87158,-0.84229 -2.33642,-2.29248 -1.47217,-1.45752 -1.89697,-1.83106 -0.79834,-0.71044 -1.34766,-0.98877 -0.55664,-0.28564 -1.09131,-0.28564 -0.87158,0 -1.4209,0.61523 -0.54931,0.60791 -0.54931,1.58936 0,0.6958 0.2417,1.47217 0.24169,0.76904 0.73242,1.64795 h -1.49414 q -0.35889,-0.89356 -0.542,-1.66992 -0.1831,-0.77637 -0.1831,-1.4209 0,-1.69922 0.84961,-2.70996 0.84961,-1.01075 2.27051,-1.01075 0.67382,0 1.28173,0.25635 0.60059,0.24903 1.4209,0.91553 0.2124,0.1831 1.23047,1.16455 1.01074,0.98145 2.83447,2.76855 z m 50.543,44.5293 q 0.9961,0 1.58203,-0.68115 0.57862,-0.68115 0.57862,-1.86768 0,-1.1792 -0.57862,-1.86767 -0.58593,-0.68115 -1.58203,-0.68115 -0.99609,0 -1.5747,0.68115 -0.58594,0.68847 -0.58594,1.86767 0,1.18653 0.58594,1.86768 0.57861,0.68115 1.5747,0.68115 z m -2.93701,4.63623 v -1.34765 q 0.55664,0.26367 1.12793,0.40283 0.56397,0.13916 1.12061,0.13916 1.46484,0 2.24121,-0.98877 0.76904,-0.98877 0.8789,-2.98828 -0.43212,0.6372 -1.08398,0.97412 -0.65186,0.34424 -1.43555,0.34424 -1.64795,0 -2.60009,-1.00342 -0.95948,-0.9961 -0.95948,-2.71729 0,-1.68457 0.9961,-2.70263 0.99609,-1.01807 2.65136,-1.01807 1.89698,0 2.90039,1.4502 1.00342,1.45751 1.00342,4.21875 0,2.59277 -1.23047,4.13085 -1.23047,1.54541 -3.30322,1.54541 -0.55664,0 -1.1206,-0.10986 -0.57129,-0.10986 -1.18653,-0.32959 z m 14.54978,-9.44824 h -5.16358 v -1.24512 h 6.94336 v 1.24512 q -0.84228,0.87158 -2.29248,2.33643 -1.45752,1.47216 -1.83105,1.89697 -0.71045,0.79834 -0.98877,1.34765 -0.28565,0.55664 -0.28565,1.09131 0,0.87158 0.61524,1.4209 0.60791,0.54932 1.58935,0.54932 0.6958,0 1.47217,-0.2417 0.76904,-0.2417 1.64795,-0.73242 v 1.49414 q -0.89356,0.35888 -1.66992,0.54199 -0.77637,0.1831 -1.4209,0.1831 -1.69922,0 -2.70996,-0.8496 -1.01074,-0.84961 -1.01074,-2.27051 0,-0.67383 0.25634,-1.28174 0.24903,-0.60059 0.91553,-1.4209 0.18311,-0.2124 1.16455,-1.23047 0.98145,-1.01074 2.76856,-2.83447 z M 326.5249,493.061 v 5.80811 h -1.24511 v -4.45312 h -2.68067 q 0.10986,0.32226 0.16113,0.64453 0.0586,0.32226 0.0586,0.64453 0,1.83105 -1.00342,2.90039 -1.00342,1.06933 -2.71729,1.06933 -1.76513,0 -2.74658,-1.09863 -0.97412,-1.09863 -0.97412,-3.09814 0,-0.68848 0.11719,-1.40625 0.11719,-0.71045 0.35156,-1.47217 h 1.48682 q -0.35889,0.65918 -0.53467,1.3623 -0.17578,0.70313 -0.17578,1.48682 0,1.26709 0.6665,2.00684 0.66651,0.73974 1.80908,0.73974 1.14258,0 1.80909,-0.73974 0.6665,-0.73975 0.6665,-2.00684 0,-0.59326 -0.13184,-1.18652 -0.13183,-0.58594 -0.41015,-1.20118 z m -9.68994,-8.28024 v 5.16358 h -1.24512 v -6.94336 h 1.24512 q 0.87158,0.84228 2.33643,2.29248 1.47216,1.45752 1.89697,1.83105 0.79834,0.71045 1.34766,0.98877 0.55664,0.28565 1.0913,0.28565 0.87159,0 1.4209,-0.61524 0.54932,-0.60791 0.54932,-1.58935 0,-0.6958 -0.2417,-1.47217 -0.2417,-0.76905 -0.73242,-1.64795 h 1.49414 q 0.35889,0.89355 0.54199,1.66992 0.18311,0.77637 0.18311,1.4209 0,1.69922 -0.84961,2.70996 -0.84961,1.01074 -2.27051,1.01074 -0.67383,0 -1.28174,-0.25635 -0.60059,-0.24902 -1.4209,-0.91552 -0.2124,-0.18311 -1.23047,-1.16455 -1.01074,-0.98145 -2.83447,-2.76856 z m 43.12647,-20.09814 h -5.16358 v -1.24512 h 6.94336 v 1.24512 q -0.84228,0.87158 -2.29248,2.33642 -1.45752,1.47217 -1.83105,1.89698 -0.71045,0.79834 -0.98877,1.34765 -0.28565,0.55664 -0.28565,1.09131 0,0.87158 0.61524,1.4209 0.60791,0.54932 1.58935,0.54932 0.6958,0 1.47217,-0.2417 0.76904,-0.2417 1.64795,-0.73243 v 1.49414 q -0.89356,0.35889 -1.66992,0.542 -0.77637,0.1831 -1.4209,0.1831 -1.69922,0 -2.70996,-0.84961 -1.01074,-0.84961 -1.01074,-2.2705 0,-0.67383 0.25634,-1.28174 0.24903,-0.60059 0.91553,-1.4209 0.18311,-0.2124 1.16455,-1.23047 0.98145,-1.01074 2.76856,-2.83447 z m 7.84593,100.88855 1.78171,-1.63322 -5.63706,-6.14958 -1.58195,2.16547 -0.91063,-0.99343 1.57114,-2.15558 1.09062,-0.99972 6.5477,7.14302 1.7817,-1.63321 0.84135,0.91784 -4.64323,4.25625 z m 25.38014,-67.83142 q 0,1.14257 1.12793,1.72119 1.12061,0.57129 3.37646,0.57129 2.24854,0 3.37647,-0.57129 1.1206,-0.57862 1.1206,-1.72119 0,-1.14991 -1.1206,-1.7212 -1.12793,-0.57861 -3.37647,-0.57861 -2.25585,0 -3.37646,0.57861 -1.12793,0.57129 -1.12793,1.7212 z m -1.17188,0 q 0,-1.83838 1.45752,-2.80518 1.4502,-0.97412 4.21875,-0.97412 2.76123,0 4.21875,0.97412 1.4502,0.9668 1.4502,2.80518 0,1.83837 -1.4502,2.8125 -1.45752,0.96679 -4.21875,0.96679 -2.76855,0 -4.21875,-0.96679 -1.45752,-0.97413 -1.45752,-2.8125 z m 379.00223,242.21159 5.83746,3.73527 -6e-5,-3.73536 z m -1.28905,0.38821 -3e-5,-1.86035 7.12646,-1.1e-4 -2e-5,-1.56006 1.23047,-2e-5 2e-5,1.56006 2.57813,-4e-5 2e-5,1.47216 -2.57813,4e-5 8e-5,4.93653 -1.42822,2e-5 z m 5.03919,8.73429 q 0.22703,-1.06201 0.94481,-1.65529 0.71776,-0.6006 1.77245,-0.60061 1.61865,-3e-5 2.50489,1.11324 0.88625,1.11328 0.88628,3.16406 10e-6,0.68847 -0.13914,1.4209 -0.13183,0.72509 -0.4028,1.50146 l -1.42822,3e-5 q 0.35887,-0.61524 0.54197,-1.34767 0.18308,-0.73243 0.18307,-1.53077 -2e-5,-1.3916 -0.54934,-2.11669 -0.54933,-0.73241 -1.59669,-0.73239 -0.9668,10e-6 -1.50878,0.68117 -0.54931,0.67384 -0.54929,1.88234 l 2e-5,1.27441 -1.21582,2e-5 -2e-5,-1.33301 q -2e-5,-1.0913 -0.43216,-1.66992 -0.43946,-0.5786 -1.25977,-0.57859 -0.84229,2e-5 -1.28906,0.6006 -0.45409,0.59328 -0.45407,1.70656 10e-6,0.60791 0.13186,1.30371 0.13184,0.6958 0.41017,1.53075 l -1.31835,2e-5 q -0.23439,-0.84229 -0.35159,-1.5747 -0.11719,-0.73974 -0.1172,-1.3916 -3e-5,-1.68457 0.76899,-2.66602 0.76171,-0.98146 2.06542,-0.98148 0.9082,-2e-5 1.53809,0.51999 0.62257,0.52001 0.86428,1.47948 z M 743.776,711.5564 q -1.06201,-0.22704 -1.65529,-0.94481 -0.60059,-0.71776 -0.60061,-1.77245 -2e-5,-1.61865 1.11325,-2.5049 1.11326,-0.88624 3.16404,-0.88627 0.68848,-1e-5 1.4209,0.13913 0.72511,0.13183 1.50148,0.40281 l 2e-5,1.42822 q -0.61524,-0.35887 -1.34767,-0.54197 -0.73242,-0.18309 -1.53076,-0.18308 -1.3916,3e-5 -2.11669,0.54935 -0.73241,0.54933 -0.7324,1.59669 2e-5,0.9668 0.68118,1.50878 0.67383,0.54931 1.88232,0.54929 l 1.27442,-2e-5 2e-5,1.21582 -1.33301,2e-5 q -1.09131,2e-5 -1.66991,0.43216 -0.57861,0.43945 -0.5786,1.25976 10e-6,0.84229 0.60061,1.28907 0.59327,0.45409 1.70655,0.45407 0.60791,-1e-5 1.3037,-0.13186 0.6958,-0.13184 1.53077,-0.41017 l 2e-5,1.31835 q -0.84229,0.23439 -1.57471,0.35159 -0.73975,0.11719 -1.3916,0.1172 -1.68457,3e-5 -2.66603,-0.769 -0.98145,-0.7617 -0.98147,-2.06541 -10e-6,-0.9082 0.52,-1.53809 0.52001,-0.62257 1.47947,-0.86428 z m 9.53998,-1.5e-4 q -1.06202,-0.22703 -1.65529,-0.9448 -0.60059,-0.71776 -0.60061,-1.77245 -2e-5,-1.61865 1.11325,-2.5049 1.11326,-0.88625 3.16404,-0.88628 0.68848,-10e-6 1.4209,0.13914 0.72511,0.13183 1.50147,0.40281 l 2e-5,1.42822 q -0.61523,-0.35887 -1.34766,-0.54197 -0.73242,-0.18309 -1.53076,-0.18308 -1.39161,2e-5 -2.11669,0.54934 -0.73242,0.54933 -0.73241,1.59669 2e-5,0.9668 0.68119,1.50878 0.67382,0.54931 1.88232,0.54929 l 1.27441,-10e-6 2e-5,1.21582 -1.333,2e-5 q -1.09131,10e-6 -1.66991,0.43215 -0.57861,0.43946 -0.5786,1.25977 10e-6,0.84229 0.60061,1.28906 0.59327,0.45409 1.70655,0.45407 0.60791,0 1.3037,-0.13186 0.6958,-0.13184 1.53076,-0.41017 l 2e-5,1.31835 q -0.84228,0.23439 -1.5747,0.3516 -0.73975,0.11719 -1.39161,0.1172 -1.68457,2e-5 -2.66602,-0.769 -0.98146,-0.76171 -0.98148,-2.06542 -10e-6,-0.9082 0.52,-1.53809 0.52001,-0.62256 1.47948,-0.86428 z m 2.18262,74.76092 5.16358,-8e-5 2e-5,1.24512 -6.94336,1.1e-4 -2e-5,-1.24512 q 0.84227,-0.8716 2.29244,-2.33646 1.4575,-1.47219 1.83103,-1.897 0.71043,-0.79835 0.98874,-1.34767 0.28565,-0.55665 0.28564,-1.09132 -2e-5,-0.87158 -0.61526,-1.42089 -0.60792,-0.5493 -1.58936,-0.54928 -0.6958,10e-6 -1.47217,0.24172 -0.76903,0.2417 -1.64794,0.73245 l -2e-5,-1.49414 q 0.89355,-0.35891 1.66991,-0.54203 0.77637,-0.18311 1.4209,-0.18312 1.69922,-3e-5 2.70997,0.84957 1.01076,0.84959 1.01078,2.27049 10e-6,0.67382 -0.25632,1.28174 -0.24902,0.60059 -0.91551,1.42091 -0.18311,0.21241 -1.16453,1.23049 -0.98144,1.01075 -2.76852,2.83451 z m -10.5581,1.6e-4 2.41699,-4e-5 -1.3e-4,-8.34228 -2.62938,0.52738 -2e-5,-1.34765 2.61473,-0.52739 1.47949,-2e-5 1.5e-4,9.68994 2.417,-4e-5 2e-5,1.24512 -6.29883,10e-5 z m -83.00735,-79.41185 -5.16357,8e-5 -10e-6,-1.24512 6.94336,-1.1e-4 10e-6,1.24512 q -0.84227,0.87159 -2.29244,2.33646 -1.4575,1.47219 -1.83103,1.897 -0.71043,0.79836 -0.98875,1.34767 -0.28563,0.55664 -0.28562,1.09131 10e-6,0.87158 0.61525,1.42089 0.60792,0.54932 1.58937,0.5493 0.6958,-10e-6 1.47216,-0.24172 0.76904,-0.24171 1.64794,-0.73246 l 2e-5,1.49414 q -0.89355,0.35891 -1.66991,0.54203 -0.77637,0.18311 -1.4209,0.18312 -1.69922,3e-5 -2.70997,-0.84957 -1.01076,-0.84959 -1.01078,-2.27048 -10e-6,-0.67383 0.25633,-1.28175 0.24901,-0.60059 0.91551,-1.42091 0.18309,-0.2124 1.16453,-1.23049 0.98142,-1.01075 2.7685,-2.83451 z m 6.33204,4.65078 q -1.06201,-0.22703 -1.65528,-0.9448 -0.60059,-0.71776 -0.60061,-1.77245 -2e-5,-1.61865 1.11325,-2.5049 1.11326,-0.88625 3.16404,-0.88628 0.68848,-10e-6 1.4209,0.13914 0.7251,0.13182 1.50147,0.40281 l 2e-5,1.42822 q -0.61523,-0.35887 -1.34766,-0.54197 -0.73243,-0.1831 -1.53077,-0.18309 -1.3916,2e-5 -2.11669,0.54935 -0.73241,0.54933 -0.7324,1.59669 2e-5,0.9668 0.68119,1.50878 0.67382,0.54931 1.88232,0.5493 l 1.27441,-2e-5 2e-5,1.21582 -1.333,2e-5 q -1.09131,10e-6 -1.66992,0.43215 -0.5786,0.43946 -0.57859,1.25977 10e-6,0.84229 0.60061,1.28905 0.59327,0.4541 1.70655,0.45409 0.60791,-1e-5 1.3037,-0.13186 0.6958,-0.13185 1.53076,-0.41019 l 2e-5,1.31836 q -0.84228,0.2344 -1.5747,0.3516 -0.73975,0.11719 -1.39161,0.1172 -1.68457,2e-5 -2.66602,-0.769 -0.98146,-0.76171 -0.98148,-2.06542 -10e-6,-0.9082 0.52,-1.53809 0.52001,-0.62256 1.47947,-0.86428 z m 1.2585,74.76094 2.41699,-4e-5 -1.3e-4,-8.34228 -2.62938,0.52738 -2e-5,-1.34766 2.61473,-0.52738 1.47949,-2e-5 1.5e-4,9.68994 2.417,-4e-5 2e-5,1.24512 -6.29883,10e-5 z m -9.54004,1.4e-4 2.41699,-3e-5 -1.3e-4,-8.34228 -2.62938,0.52738 -2e-5,-1.34766 2.61473,-0.52738 1.4795,-3e-5 1.5e-4,9.68994 2.41699,-3e-5 2e-5,1.24512 -6.29883,9e-5 z m -93.19259,-79.40798 -2.41699,4e-5 1.3e-4,8.34228 2.62939,-0.52738 2e-5,1.34766 -2.61474,0.52738 -1.47949,2e-5 -1.5e-4,-9.68994 -2.41699,4e-5 -1e-5,-1.24512 6.29882,-1e-4 z m 5.31398,4.6508 q -1.06201,-0.22703 -1.65529,-0.9448 -0.60059,-0.71776 -0.60061,-1.77245 -2e-5,-1.61865 1.11325,-2.5049 1.11326,-0.88625 3.16404,-0.88628 0.68848,-10e-6 1.4209,0.13914 0.72511,0.13183 1.50148,0.40281 l 2e-5,1.42822 q -0.61524,-0.35887 -1.34767,-0.54197 -0.73242,-0.18309 -1.53076,-0.18308 -1.3916,2e-5 -2.11669,0.54934 -0.73241,0.54933 -0.7324,1.59669 2e-5,0.9668 0.68118,1.50878 0.67383,0.54931 1.88232,0.5493 l 1.27442,-2e-5 2e-5,1.21582 -1.33301,2e-5 q -1.09131,1e-5 -1.66991,0.43215 -0.57861,0.43946 -0.5786,1.25977 10e-6,0.84229 0.60061,1.28906 0.59327,0.45409 1.70655,0.45408 0.60791,-10e-6 1.3037,-0.13186 0.69581,-0.13185 1.53077,-0.41019 l 2e-5,1.31836 q -0.84229,0.2344 -1.57471,0.3516 -0.73975,0.11719 -1.3916,0.1172 -1.68457,2e-5 -2.66603,-0.769 -0.98145,-0.76171 -0.98147,-2.06542 -10e-6,-0.9082 0.52,-1.53808 0.52001,-0.62257 1.47947,-0.86429 z m 3.91296,66.04118 q -1.14257,2e-5 -1.72118,1.12796 -0.57127,1.12061 -0.57123,3.37647 3e-5,2.24854 0.57134,3.37646 0.57863,1.12059 1.7212,1.12057 1.14991,-2e-5 1.72119,-1.12062 0.57859,-1.12794 0.57856,-3.37648 -4e-5,-2.25586 -0.57867,-3.37645 -0.5713,-1.12793 -1.72121,-1.12791 z m -2e-5,-1.17188 q 1.83838,-3e-5 2.8052,1.45748 0.97414,1.45018 0.97419,4.21873 4e-5,2.76123 -0.97406,4.21877 -0.96678,1.45021 -2.80516,1.45024 -1.83837,3e-5 -2.81252,-1.45016 -0.96681,-1.4575 -0.96685,-4.21873 -5e-5,-2.76855 0.96672,-4.21877 0.97411,-1.45753 2.81248,-1.45756 z m -12.44754,9.88789 2.41699,-4e-5 -1.3e-4,-8.34229 -2.62938,0.52739 -2e-5,-1.34766 2.61474,-0.52738 1.47949,-2e-5 1.5e-4,9.68994 2.41699,-3e-5 2e-5,1.24511 -6.29883,9e-5 z m -81.56589,-70.6921 q 1.14258,-2e-5 1.72117,-1.12795 0.57127,-1.12062 0.57124,-3.37648 -4e-5,-2.24853 -0.57134,-3.37645 -0.57863,-1.12061 -1.72121,-1.12059 -1.1499,2e-5 -1.72117,1.12064 -0.5786,1.12794 -0.57856,3.37647 3e-5,2.25586 0.57866,3.37646 0.57131,1.12792 1.72121,1.1279 z m 1e-5,1.17187 q -1.83838,3e-5 -2.80519,-1.45748 -0.97414,-1.45017 -0.97418,-4.21873 -4e-5,-2.76123 0.97405,-4.21877 0.96677,-1.4502 2.80515,-1.45023 1.83838,-3e-5 2.81252,1.45015 0.96683,1.4575 0.96687,4.21873 4e-5,2.76856 -0.96674,4.21877 -0.9741,1.45753 -2.81248,1.45756 z m 8.22157,-5.23693 q -1.06201,-0.22704 -1.65528,-0.94481 -0.6006,-0.71776 -0.60062,-1.77245 -2e-5,-1.61865 1.11325,-2.5049 1.11327,-0.88624 3.16405,-0.88627 0.68847,-1e-5 1.42089,0.13913 0.72511,0.13182 1.50148,0.40281 l 2e-5,1.42822 q -0.61523,-0.35887 -1.34767,-0.54197 -0.73242,-0.18309 -1.53076,-0.18308 -1.3916,3e-5 -2.11669,0.54935 -0.73241,0.54933 -0.7324,1.59669 2e-5,0.9668 0.68118,1.50878 0.67383,0.54931 1.88233,0.54929 l 1.27441,-2e-5 2e-5,1.21582 -1.33301,2e-5 q -1.09131,2e-5 -1.66991,0.43216 -0.5786,0.43945 -0.57859,1.25976 1e-5,0.84229 0.6006,1.28906 0.59328,0.4541 1.70656,0.45408 0.60791,-1e-5 1.3037,-0.13186 0.6958,-0.13185 1.53076,-0.41018 l 2e-5,1.31836 q -0.84229,0.23439 -1.57471,0.35159 -0.73974,0.11719 -1.3916,0.1172 -1.68457,3e-5 -2.66602,-0.769 -0.98146,-0.7617 -0.98148,-2.06541 -10e-6,-0.9082 0.52,-1.5381 0.52001,-0.62256 1.47947,-0.86427 z m -4.48977,75.77916 -3e-5,-1.34766 q 0.55665,0.26367 1.12793,0.40282 0.57129,0.13915 1.12061,0.13914 1.46484,-2e-5 2.23388,-0.98148 0.77634,-0.98878 0.88618,-2.99562 -0.4248,0.62989 -1.07664,0.96681 -0.65186,0.33693 -1.44287,0.33694 -1.64063,3e-5 -2.60011,-0.98873 -0.95217,-0.99608 -0.95219,-2.71727 -3e-5,-1.68457 0.99604,-2.70265 0.99609,-1.01808 2.65136,-1.01811 1.89697,-3e-5 2.89309,1.45748 1.00344,1.45017 1.00349,4.21873 3e-5,2.58545 -1.23041,4.13088 -1.22313,1.5381 -3.29588,1.53813 -0.55664,10e-6 -1.12793,-0.10984 -0.57129,-0.10985 -1.18652,-0.32957 z m 2.94425,-4.63628 q 0.99609,-10e-6 1.5747,-0.68117 0.58593,-0.68116 0.58592,-1.86769 -2e-5,-1.1792 -0.58597,-1.86034 -0.57863,-0.68847 -1.57472,-0.68846 -0.99609,2e-5 -1.58202,0.68851 -0.5786,0.68115 -0.57858,1.86035 10e-6,1.18653 0.57863,1.86768 0.58595,0.68114 1.58204,0.68112 z m -82.80215,-76.81177 2e-5,1.34766 q -0.55664,-0.26366 -1.12794,-0.40282 -0.57129,-0.13916 -1.12061,-0.13915 -1.46484,2e-5 -2.23387,0.98149 -0.77635,0.98878 -0.88619,2.99562 0.4248,-0.6299 1.07665,-0.96682 0.65185,-0.33693 1.44287,-0.33694 1.64062,-2e-5 2.60011,0.98873 0.95216,0.99609 0.95219,2.71728 2e-5,1.68457 -0.99605,2.70265 -0.99609,1.01808 -2.65136,1.0181 -1.89697,3e-5 -2.89309,-1.45747 -1.00343,-1.45018 -1.00347,-4.21874 -4e-5,-2.58545 1.23041,-4.13088 1.22311,-1.5381 3.29586,-1.53813 0.55664,-10e-6 1.12793,0.10985 0.5713,0.10985 1.18654,0.32957 z m -2.94427,4.63627 q -0.99609,2e-5 -1.5747,0.68118 -0.58592,0.68116 -0.5859,1.86768 2e-5,1.1792 0.58596,1.86035 0.57863,0.68847 1.57472,0.68845 0.99609,-10e-6 1.58202,-0.6885 0.57861,-0.68116 0.57859,-1.86036 -2e-5,-1.18652 -0.57865,-1.86767 -0.58595,-0.68114 -1.58204,-0.68113 z m 11.25382,-3.61833 -5.16358,8e-5 -10e-6,-1.24512 6.94336,-1.1e-4 10e-6,1.24512 q -0.84226,0.8716 -2.29244,2.33646 -1.4575,1.47219 -1.83102,1.89701 -0.71044,0.79835 -0.98875,1.34766 -0.28564,0.55665 -0.28563,1.09132 10e-6,0.87158 0.61526,1.42089 0.60792,0.54931 1.58936,0.54929 0.6958,-10e-6 1.47216,-0.24172 0.76904,-0.24171 1.64794,-0.73246 l 2e-5,1.49414 q -0.89355,0.35891 -1.66991,0.54203 -0.77637,0.18311 -1.4209,0.18312 -1.69922,3e-5 -2.70997,-0.84957 -1.01075,-0.84959 -1.01077,-2.27048 -1e-5,-0.67383 0.25632,-1.28175 0.24902,-0.60059 0.91551,-1.42091 0.1831,-0.2124 1.16453,-1.23049 0.98143,-1.01075 2.76851,-2.83451 z m -4.55098,75.46422 q -1.05469,2e-5 -1.66259,0.56399 -0.60057,0.56398 -0.60056,1.55275 2e-5,0.98877 0.60061,1.55272 0.60791,0.56396 1.6626,0.56394 1.05469,-10e-6 1.6626,-0.56399 0.6079,-0.5713 0.60788,-1.55274 -1e-5,-0.98877 -0.60793,-1.55273 -0.6006,-0.56395 -1.66261,-0.56394 z m -1.4795,-0.62985 q -0.95215,-0.23437 -1.48683,-0.88621 -0.52735,-0.65185 -0.52737,-1.58935 -2e-5,-1.31103 0.93015,-2.07277 0.93749,-0.76173 2.56346,-0.76176 1.6333,-2e-5 2.56349,0.76169 0.93018,0.7617 0.9302,2.07273 2e-5,0.9375 -0.53463,1.58937 -0.52734,0.65186 -1.47216,0.88625 1.06933,0.24901 1.66261,0.9741 0.6006,0.72509 0.60061,1.77245 3e-5,1.58935 -0.97408,2.43897 -0.96679,0.84963 -2.77587,0.84965 -1.80908,3e-5 -2.78321,-0.84956 -0.96681,-0.8496 -0.96684,-2.43895 -1e-5,-1.04736 0.60056,-1.77247 0.60057,-0.72511 1.66991,-0.97414 z m -0.54203,-2.33642 q 2e-5,0.84961 0.52736,1.32567 0.53468,0.47607 1.49415,0.47605 0.95215,-10e-6 1.48681,-0.4761 0.54199,-0.47608 0.54197,-1.32569 -1e-5,-0.84961 -0.54201,-1.32567 -0.53467,-0.47607 -1.48682,-0.47606 -0.95947,2e-5 -1.49414,0.47611 -0.52733,0.47608 -0.52732,1.32569 z m -84.08365,-68.54613 q 1.05468,-2e-5 1.66259,-0.564 0.60058,-0.56397 0.60056,-1.55274 -1e-5,-0.98877 -0.60061,-1.55273 -0.60792,-0.56395 -1.6626,-0.56393 -1.05469,10e-6 -1.66259,0.56398 -0.6079,0.5713 -0.60789,1.55275 2e-5,0.98877 0.60794,1.55272 0.60059,0.56396 1.6626,0.56395 z m 1.4795,0.62985 q 0.95216,0.23436 1.48684,0.88621 0.52735,0.65185 0.52736,1.58935 2e-5,1.31103 -0.93015,2.07277 -0.93749,0.76173 -2.56346,0.76176 -1.6333,2e-5 -2.56349,-0.76168 -0.93019,-0.76171 -0.93021,-2.07274 -10e-6,-0.9375 0.53465,-1.58937 0.52734,-0.65187 1.47215,-0.88625 -1.06934,-0.249 -1.66261,-0.97409 -0.60059,-0.7251 -0.60061,-1.77246 -2e-5,-1.58936 0.97408,-2.43898 0.96679,-0.84963 2.77587,-0.84965 1.80908,-3e-5 2.78321,0.84957 0.96682,0.84959 0.96684,2.43895 2e-5,1.04736 -0.60056,1.77247 -0.60057,0.72511 -1.66991,0.97414 z m 0.54203,2.33643 q -1e-5,-0.84961 -0.52736,-1.32569 -0.53468,-0.47606 -1.49415,-0.47604 -0.95215,10e-6 -1.48681,0.47609 -0.54198,0.47609 -0.54197,1.3257 1e-5,0.8496 0.54201,1.32567 0.53468,0.47606 1.48683,0.47605 0.95947,-2e-5 1.49413,-0.4761 0.52733,-0.47608 0.52732,-1.32568 z m 9.40806,-6.91422 -5.16357,8e-5 -10e-6,-1.24511 6.94336,-10e-5 10e-6,1.24511 q -0.84227,0.87159 -2.29244,2.33646 -1.4575,1.47219 -1.83103,1.897 -0.71044,0.79835 -0.98875,1.34767 -0.28563,0.55665 -0.28562,1.09132 10e-6,0.87158 0.61525,1.42088 0.60792,0.54931 1.58937,0.5493 0.6958,-2e-5 1.47216,-0.24173 0.76904,-0.24171 1.64794,-0.73244 l 2e-5,1.49414 q -0.89355,0.3589 -1.66991,0.54201 -0.77637,0.18313 -1.4209,0.18313 -1.69922,3e-5 -2.70997,-0.84956 -1.01076,-0.8496 -1.01078,-2.2705 -10e-6,-0.67383 0.25633,-1.28174 0.24901,-0.60059 0.91551,-1.42092 0.18309,-0.2124 1.16453,-1.23047 0.98142,-1.01077 2.7685,-2.83453 z m -7.86945,69.71819 7.03125,-1.1e-4 10e-6,0.62988 -3.96957,10.30524 -1.54541,3e-5 3.7352,-9.69 -5.25146,8e-5 z m -82.21778,-60.0281 -7.03125,1.1e-4 -1e-5,-0.62988 3.96957,-10.30524 1.54541,-3e-5 -3.73521,9.69001 5.25147,-8e-5 z m 7.89191,-9.69006 -5.16358,8e-5 -1e-5,-1.24512 6.94336,-1.1e-4 10e-6,1.24512 q -0.84226,0.8716 -2.29244,2.33647 -1.4575,1.47219 -1.83102,1.897 -0.71044,0.79835 -0.98875,1.34767 -0.28564,0.55665 -0.28563,1.09132 1e-5,0.87158 0.61526,1.42088 0.60792,0.54931 1.58936,0.54929 0.6958,-10e-6 1.47216,-0.24172 0.76904,-0.24171 1.64794,-0.73244 l 2e-5,1.49414 q -0.89355,0.3589 -1.66991,0.54201 -0.77637,0.18312 -1.4209,0.18313 -1.69922,3e-5 -2.70997,-0.84957 -1.01075,-0.84959 -1.01077,-2.27049 -1e-5,-0.67383 0.25632,-1.28174 0.24902,-0.60059 0.91551,-1.42092 0.1831,-0.2124 1.16453,-1.23049 0.98143,-1.01075 2.76851,-2.83451 z m -4.28173,74.59998 q -0.9961,10e-6 -1.58202,0.68117 -0.57861,0.68116 -0.57859,1.86768 1e-5,1.1792 0.57864,1.86767 0.58594,0.68114 1.58204,0.68113 0.99609,-2e-5 1.5747,-0.68118 0.58592,-0.68849 0.58591,-1.86769 -2e-5,-1.18652 -0.58596,-1.86766 -0.57863,-0.68114 -1.57472,-0.68112 z m 2.93694,-4.63628 2e-5,1.34765 q -0.55665,-0.26366 -1.12794,-0.40281 -0.56396,-0.13915 -1.12061,-0.13914 -1.46484,2e-5 -2.2412,0.9888 -0.76902,0.98878 -0.87885,2.98829 0.43212,-0.63721 1.08396,-0.97413 0.65186,-0.34425 1.43555,-0.34426 1.64795,-3e-5 2.60011,1.00338 0.95949,0.99607 0.95952,2.71726 2e-5,1.68458 -0.99605,2.70266 -0.99609,1.01808 -2.65136,1.01811 -1.89697,3e-5 -2.90041,-1.45016 -1.00344,-1.4575 -1.00348,-4.21873 -4e-5,-2.59277 1.2304,-4.13088 1.23045,-1.54543 3.3032,-1.54546 0.55664,-10e-6 1.12061,0.10985 0.57129,0.10985 1.18653,0.32957 z M 145.10267,711.72534 q 0.99609,-2e-5 1.58202,-0.68118 0.5786,-0.68117 0.57858,-1.86769 -2e-5,-1.1792 -0.57864,-1.86766 -0.58595,-0.68115 -1.58204,-0.68113 -0.9961,10e-6 -1.5747,0.68118 -0.58593,0.68848 -0.58591,1.86768 2e-5,1.18652 0.58597,1.86767 0.57862,0.68114 1.57472,0.68113 z m -2.93694,4.63627 -2e-5,-1.34766 q 0.55664,0.26367 1.12793,0.40282 0.56397,0.13916 1.12061,0.13915 1.46485,-2e-5 2.24119,-0.98881 0.76904,-0.98878 0.87886,-2.9883 -0.43212,0.63722 -1.08397,0.97415 -0.65185,0.34424 -1.43554,0.34425 -1.64795,2e-5 -2.60011,-1.00337 -0.95949,-0.99609 -0.95951,-2.71728 -3e-5,-1.68457 0.99605,-2.70265 0.99607,-1.01808 2.65135,-1.0181 1.89697,-3e-5 2.90041,1.45014 1.00345,1.45751 1.00349,4.21874 4e-5,2.59278 -1.23041,4.13088 -1.23045,1.54542 -3.3032,1.54546 -0.55665,0 -1.12061,-0.10985 -0.57129,-0.10985 -1.18652,-0.32957 z m 14.54961,-9.44846 -5.16358,8e-5 -1e-5,-1.24512 6.94336,-1.1e-4 10e-6,1.24512 q -0.84226,0.8716 -2.29244,2.33646 -1.4575,1.47219 -1.83102,1.89701 -0.71044,0.79835 -0.98875,1.34766 -0.28564,0.55665 -0.28563,1.09132 10e-6,0.87158 0.61526,1.42089 0.60792,0.54931 1.58936,0.54929 0.6958,-10e-6 1.47216,-0.24172 0.76904,-0.24171 1.64794,-0.73246 l 2e-5,1.49414 q -0.89355,0.35891 -1.66991,0.54203 -0.77637,0.18311 -1.4209,0.18312 -1.69922,3e-5 -2.70997,-0.84957 -1.01076,-0.84959 -1.01078,-2.27048 -1e-5,-0.67383 0.25633,-1.28175 0.24902,-0.60059 0.91551,-1.42091 0.1831,-0.2124 1.16453,-1.23049 0.98143,-1.01075 2.76851,-2.83451 z m -7.54384,69.72209 5.80811,-9e-5 2e-5,1.24512 -4.45313,7e-5 4e-5,2.68066 q 0.32227,-0.10987 0.64453,-0.16114 0.32227,-0.0586 0.64454,-0.0586 1.83105,-3e-5 2.9004,1.00336 1.06935,1.00341 1.06938,2.71728 2e-5,1.76514 -1.09859,2.7466 -1.09862,0.97413 -3.09813,0.97416 -0.68848,1e-5 -1.40625,-0.11716 -0.71045,-0.11718 -1.47218,-0.35154 l -2e-5,-1.48681 q 0.65919,0.35887 1.36231,0.53464 0.70313,0.17577 1.48682,0.17576 1.26709,-2e-5 2.00682,-0.66654 0.73974,-0.66651 0.73973,-1.80909 -2e-5,-1.14258 -0.73978,-1.80907 -0.73975,-0.6665 -2.00684,-0.66648 -0.59326,10e-6 -1.18652,0.13186 -0.58594,0.13185 -1.20117,0.41018 z m -82.990155,-60.02815 -5.808106,8e-5 -1.9e-5,-1.24511 4.453125,-6e-5 -4e-5,-2.68067 q -0.322265,0.10987 -0.644529,0.16114 -0.322265,0.0586 -0.64453,0.0586 -1.831055,2e-5 -2.900406,-1.00338 -1.069352,-1.0034 -1.069378,-2.71726 -2.6e-5,-1.76514 1.098592,-2.74661 1.098618,-0.97414 3.098129,-0.97417 0.688477,-10e-6 1.406252,0.11717 0.710452,0.11718 1.472173,0.35154 l 2.3e-5,1.48682 q -0.659185,-0.35888 -1.362312,-0.53465 -0.703128,-0.17577 -1.48682,-0.17576 -1.26709,2e-5 -2.006826,0.66653 -0.739736,0.66652 -0.739719,1.8091 1.8e-5,1.14257 0.739774,1.80907 0.739756,0.66649 2.006846,0.66647 0.593262,-10e-6 1.186522,-0.13185 0.585935,-0.13185 1.201166,-0.41017 z m 8.280088,-9.69007 -5.163574,8e-5 -1.9e-5,-1.24512 6.943359,-1.1e-4 1.9e-5,1.24512 q -0.842272,0.8716 -2.292444,2.33647 -1.457498,1.47219 -1.831027,1.897 -0.710437,0.79835 -0.988749,1.34767 -0.285636,0.55664 -0.285628,1.09131 1.4e-5,0.87158 0.615256,1.42089 0.607918,0.54931 1.589364,0.54929 0.6958,-10e-6 1.472165,-0.24172 0.769039,-0.24171 1.647938,-0.73245 l 2.2e-5,1.49414 q -0.893549,0.35891 -1.669914,0.54202 -0.776364,0.18312 -1.420895,0.18313 -1.699219,3e-5 -2.709974,-0.84957 -1.010756,-0.84959 -1.010777,-2.27049 -1e-5,-0.67383 0.256328,-1.28175 0.249014,-0.60058 0.915506,-1.42091 0.183103,-0.2124 1.164532,-1.23049 0.98143,-1.01075 2.768512,-2.83451 z m -22.616128,41.38853 -5.83746,-3.73527 5.7e-5,3.73536 z m 1.289056,-0.38821 2.8e-5,1.86035 -7.126465,1.1e-4 2.4e-5,1.56006 -1.230468,2e-5 -2.4e-5,-1.56006 -2.578125,4e-5 -2.2e-5,-1.47216 2.578125,-4e-5 -7.5e-5,-4.93653 1.428222,-2e-5 z m 18.372266,33.75686 q 1.062015,0.22704 1.655288,0.94481 0.600596,0.71776 0.600612,1.77245 2.5e-5,1.61865 -1.113243,2.50489 -1.113267,0.88625 -3.164048,0.88628 -0.688477,10e-6 -1.420901,-0.13914 -0.725099,-0.13181 -1.501471,-0.4028 l -2.2e-5,-1.42822 q 0.61524,0.35887 1.347665,0.54197 0.732425,0.18309 1.530764,0.18307 1.391602,-2e-5 2.116692,-0.54934 0.732412,-0.54933 0.732396,-1.59669 -1.4e-5,-0.9668 -0.681175,-1.50878 -0.673836,-0.54931 -1.882332,-0.54929 l -1.274414,2e-5 -1.9e-5,-1.21582 1.333008,-2e-5 q 1.091308,-2e-5 1.669916,-0.43216 0.578606,-0.43946 0.578594,-1.25977 -1.3e-5,-0.84229 -0.600606,-1.28905 -0.593269,-0.4541 -1.70655,-0.45408 -0.60791,10e-6 -1.303709,0.13186 -0.695799,0.13185 -1.530756,0.41018 l -2e-5,-1.31836 q 0.842282,-0.23439 1.574702,-0.35159 0.739744,-0.11719 1.3916,-0.1172 1.68457,-3e-5 2.666027,0.769 0.981457,0.7617 0.981477,2.06541 1.4e-5,0.9082 -0.519996,1.5381 -0.52001,0.62256 -1.479479,0.86427 z m 514.796043,-109.03113 -3.73535,5.8374 h 3.73535 z m -0.38818,-1.28907 h 1.86035 v 7.12647 h 1.56006 v 1.23047 h -1.56006 v 2.57812 h -1.47217 v -2.57812 h -4.93652 v -1.42823 z m -11.94232,9.68995 h 5.16357 v 1.24511 h -6.94336 v -1.24511 q 0.84229,-0.87159 2.29248,-2.33643 1.45752,-1.47217 1.83106,-1.89697 0.71045,-0.79834 0.98877,-1.34766 0.28564,-0.55664 0.28564,-1.09131 0,-0.87158 -0.61523,-1.4209 -0.60791,-0.54931 -1.58936,-0.54931 -0.6958,0 -1.47217,0.2417 -0.76904,0.2417 -1.64795,0.73242 v -1.49414 q 0.89356,-0.35889 1.66993,-0.54199 0.77636,-0.18311 1.4209,-0.18311 1.69921,0 2.70996,0.84961 1.01074,0.84961 1.01074,2.27051 0,0.67383 -0.25635,1.28174 -0.24902,0.60058 -0.91553,1.42089 -0.1831,0.21241 -1.16455,1.23047 -0.98144,1.01074 -2.76855,2.83448 z m 135.40814,-4.65088 q 1.06201,0.22705 1.65527,0.94482 0.60059,0.71777 0.60059,1.77246 0,1.61865 -1.11328,2.50488 -1.11328,0.88623 -3.16406,0.88623 -0.68848,0 -1.4209,-0.13916 -0.7251,-0.13183 -1.50147,-0.40283 v -1.42822 q 0.61524,0.35889 1.34766,0.54199 0.73242,0.18311 1.53076,0.18311 1.3916,0 2.1167,-0.54932 0.73242,-0.54932 0.73242,-1.59668 0,-0.9668 -0.68115,-1.50879 -0.67383,-0.54931 -1.88233,-0.54931 h -1.27441 v -1.21582 h 1.33301 q 1.09131,0 1.66992,-0.43213 0.57861,-0.43946 0.57861,-1.25977 0,-0.84228 -0.60058,-1.28906 -0.59326,-0.4541 -1.70655,-0.4541 -0.60791,0 -1.30371,0.13183 -0.6958,0.13184 -1.53076,0.41016 V 671.625 q 0.84229,-0.23438 1.57471,-0.35156 0.73975,-0.11719 1.3916,-0.11719 1.68457,0 2.66602,0.76904 0.98144,0.76172 0.98144,2.06543 0,0.90821 -0.52002,1.53809 -0.52002,0.62256 -1.47949,0.86426 z m -12.74799,4.65088 h 5.16358 v 1.24511 h -6.94336 v -1.24511 q 0.84228,-0.87159 2.29248,-2.33643 1.45752,-1.47217 1.83105,-1.89697 0.71045,-0.79834 0.98877,-1.34766 0.28565,-0.55664 0.28565,-1.09131 0,-0.87158 -0.61524,-1.4209 -0.60791,-0.54931 -1.58935,-0.54931 -0.6958,0 -1.47217,0.2417 -0.76904,0.2417 -1.64795,0.73242 v -1.49414 q 0.89356,-0.35889 1.66992,-0.54199 0.77637,-0.18311 1.4209,-0.18311 1.69922,0 2.70996,0.84961 1.01074,0.84961 1.01074,2.27051 0,0.67383 -0.25634,1.28174 -0.24903,0.60058 -0.91553,1.42089 -0.18311,0.21241 -1.16455,1.23047 -0.98145,1.01074 -2.76856,2.83448 z m 109.521,-208.02097 v -5.16357 h 1.24512 v 6.94335 h -1.24512 q -0.87158,-0.84228 -2.33643,-2.29248 -1.47216,-1.45752 -1.89697,-1.83105 -0.79834,-0.71045 -1.34765,-0.98877 -0.55665,-0.28564 -1.09131,-0.28564 -0.87159,0 -1.4209,0.61523 -0.54932,0.60791 -0.54932,1.58936 0,0.6958 0.2417,1.47216 0.2417,0.76905 0.73242,1.64795 h -1.49414 q -0.35888,-0.89355 -0.54199,-1.66992 -0.18311,-0.77637 -0.18311,-1.4209 0,-1.69922 0.84961,-2.70996 0.84961,-1.01074 2.27051,-1.01074 0.67383,0 1.28174,0.25635 0.60059,0.24902 1.4209,0.91552 0.2124,0.18311 1.23047,1.16456 1.01074,0.98144 2.83447,2.76855 z m 0,9.54001 v -5.16358 h 1.24512 v 6.94336 h -1.24512 q -0.87158,-0.84228 -2.33643,-2.29248 -1.47216,-1.45752 -1.89697,-1.83105 -0.79834,-0.71045 -1.34765,-0.98877 -0.55665,-0.28565 -1.09131,-0.28565 -0.87159,0 -1.4209,0.61524 -0.54932,0.60791 -0.54932,1.58935 0,0.6958 0.2417,1.47217 0.2417,0.76904 0.73242,1.64795 h -1.49414 q -0.35888,-0.89355 -0.54199,-1.66992 -0.18311,-0.77637 -0.18311,-1.4209 0,-1.69922 0.84961,-2.70996 0.84961,-1.01074 2.27051,-1.01074 0.67383,0 1.28174,0.25635 0.60059,0.24902 1.4209,0.91552 0.2124,0.18311 1.23047,1.16455 1.01074,0.98145 2.83447,2.76856 z m 0,-86.01413 v -2.41699 h -8.34228 l 0.52734,2.62939 h -1.34766 l -0.52734,-2.61475 v -1.47949 h 9.68994 v -2.41699 h 1.24512 v 6.29883 z m 0,8.52194 v -5.16357 h 1.24512 v 6.94336 h -1.24512 q -0.87158,-0.84229 -2.33643,-2.29248 -1.47216,-1.45752 -1.89697,-1.83106 -0.79834,-0.71045 -1.34765,-0.98877 -0.55665,-0.28564 -1.09131,-0.28564 -0.87159,0 -1.4209,0.61523 -0.54932,0.60791 -0.54932,1.58936 0,0.6958 0.2417,1.47216 0.2417,0.76905 0.73242,1.64795 h -1.49414 q -0.35888,-0.89355 -0.54199,-1.66992 -0.18311,-0.77637 -0.18311,-1.4209 0,-1.69922 0.84961,-2.70996 0.84961,-1.01074 2.27051,-1.01074 0.67383,0 1.28174,0.25635 0.60059,0.24902 1.4209,0.91553 0.2124,0.1831 1.23047,1.16455 1.01074,0.98144 2.83447,2.76855 z m -45.51605,-12.08252 q 1.14258,0 1.72119,-1.12793 0.57129,-1.1206 0.57129,-3.37646 0,-2.24854 -0.57129,-3.37647 -0.57861,-1.1206 -1.72119,-1.1206 -1.1499,0 -1.72119,1.1206 -0.57862,1.12793 -0.57862,3.37647 0,2.25586 0.57862,3.37646 0.57129,1.12793 1.72119,1.12793 z m 0,1.17188 q -1.83838,0 -2.80518,-1.45752 -0.97412,-1.4502 -0.97412,-4.21875 0,-2.76123 0.97412,-4.21875 0.9668,-1.4502 2.80518,-1.4502 1.83838,0 2.8125,1.4502 0.96679,1.45752 0.96679,4.21875 0,2.76855 -0.96679,4.21875 -0.97412,1.45752 -2.8125,1.45752 z m 11.42962,-9.8877 h -5.16357 v -1.24512 h 6.94336 v 1.24512 q -0.84229,0.87158 -2.29248,2.33643 -1.45752,1.47216 -1.83106,1.89697 -0.71044,0.79834 -0.98877,1.34766 -0.28564,0.55664 -0.28564,1.0913 0,0.87159 0.61523,1.4209 0.60791,0.54932 1.58936,0.54932 0.6958,0 1.47217,-0.2417 0.76904,-0.2417 1.64795,-0.73242 v 1.49414 q -0.89356,0.35889 -1.66992,0.54199 -0.77637,0.18311 -1.4209,0.18311 -1.69922,0 -2.70996,-0.84961 -1.01075,-0.84961 -1.01075,-2.27051 0,-0.67383 0.25635,-1.28174 0.24903,-0.60059 0.91553,-1.4209 0.1831,-0.2124 1.16455,-1.23047 0.98145,-1.01074 2.76855,-2.83447 z m -60.95703,-3.68519 -0.84191,-1.05232 q 0.59937,-0.14185 1.1324,-0.39009 0.53303,-0.24823 0.96196,-0.5914 1.14382,-0.91512 1.13119,-2.16191 -0.0115,-1.2571 -1.17941,-2.89276 0.0618,0.75723 -0.23672,1.42753 -0.29852,0.6703 -0.91619,1.16447 -1.28107,1.02493 -2.64799,0.85226 -1.36575,-0.18298 -2.44102,-1.52696 -1.05238,-1.3154 -0.9106,-2.73263 0.14179,-1.41723 1.43431,-2.45132 1.48125,-1.18508 3.16959,-0.66925 1.68948,0.50552 3.41906,2.66734 1.61518,2.01884 1.61982,3.99427 0.006,1.96513 -1.61272,3.26003 -0.43465,0.34774 -0.94937,0.61886 -0.51473,0.2711 -1.1324,0.48388 z m -0.59727,-5.45958 q 0.7778,-0.62228 0.80407,-1.51563 0.032,-0.89792 -0.70924,-1.82442 -0.73668,-0.92077 -1.61973,-1.0866 -0.88192,-0.17613 -1.65971,0.44615 -0.77781,0.62229 -0.80522,1.52593 -0.0263,0.89335 0.71039,1.81412 0.74124,0.9265 1.61858,1.0969 0.88306,0.16583 1.66086,-0.45645 z m -7.32215,10.49175 1.8873,-1.50994 -5.2116,-6.51405 -1.72372,2.05441 -0.84191,-1.05232 1.71228,-2.04526 1.15526,-0.92427 6.05351,7.56637 1.8873,-1.50994 0.77785,0.97225 -4.91842,3.935 z m 14.11278,-78.66189 q 0,1.05469 0.56397,1.6626 0.56396,0.60058 1.55273,0.60058 0.98877,0 1.55274,-0.60058 0.56396,-0.60791 0.56396,-1.6626 0,-1.05469 -0.56396,-1.6626 -0.57129,-0.60791 -1.55274,-0.60791 -0.98877,0 -1.55273,0.60791 -0.56397,0.60059 -0.56397,1.6626 z m -0.62988,1.47949 q -0.23438,0.95215 -0.88623,1.48682 -0.65186,0.52734 -1.58936,0.52734 -1.31103,0 -2.07275,-0.93017 -0.76172,-0.9375 -0.76172,-2.56348 0,-1.6333 0.76172,-2.56348 0.76172,-0.93017 2.07275,-0.93017 0.9375,0 1.58936,0.53467 0.65185,0.52734 0.88623,1.47216 0.24902,-1.06933 0.97412,-1.66259 0.7251,-0.60059 1.77246,-0.60059 1.58936,0 2.43897,0.97412 0.84961,0.9668 0.84961,2.77588 0,1.80908 -0.84961,2.7832 -0.84961,0.9668 -2.43897,0.9668 -1.04736,0 -1.77246,-0.60059 -0.7251,-0.60058 -0.97412,-1.66992 z m -2.33643,0.54199 q 0.84961,0 1.32569,-0.52734 0.47607,-0.53467 0.47607,-1.49414 0,-0.95215 -0.47607,-1.48682 -0.47608,-0.54199 -1.32569,-0.54199 -0.84961,0 -1.32568,0.54199 -0.47607,0.53467 -0.47607,1.48682 0,0.95947 0.47607,1.49414 0.47607,0.52734 1.32568,0.52734 z m 6.91407,10.42624 v -2.41699 h -8.34229 l 0.52735,2.6294 h -1.34766 l -0.52734,-2.61475 v -1.47949 h 9.68994 v -2.41699 h 1.24511 v 6.29882 z m -41.24039,-86.24376 -5.4015,-4.50136 0.40324,-0.48388 9.64691,-5.37519 1.1872,0.98936 -9.07298,5.0526 4.03425,3.36195 z m 13.04834,-1.73973 -1.85677,-1.54735 -5.34067,6.40866 2.35754,1.27822 -0.86275,1.03528 -2.3463,-1.26883 -1.13656,-0.94716 6.20343,-7.44395 -1.85677,-1.54734 0.79712,-0.95651 4.83885,4.03246 z m -119.63602,-26.8334 q 0.9961,0 1.58203,-0.68115 0.57862,-0.68116 0.57862,-1.86768 0,-1.1792 -0.57862,-1.86768 -0.58593,-0.68115 -1.58203,-0.68115 -0.99609,0 -1.5747,0.68115 -0.58594,0.68848 -0.58594,1.86768 0,1.18652 0.58594,1.86768 0.57861,0.68115 1.5747,0.68115 z m -2.93701,4.63623 v -1.34766 q 0.55664,0.26367 1.12793,0.40284 0.56397,0.13916 1.12061,0.13916 1.46484,0 2.24121,-0.98877 0.76904,-0.98877 0.8789,-2.98829 -0.43213,0.63721 -1.08398,0.97413 -0.65186,0.34423 -1.43555,0.34423 -1.64795,0 -2.6001,-1.00341 -0.95947,-0.9961 -0.95947,-2.71729 0,-1.68457 0.9961,-2.70264 0.99609,-1.01806 2.65136,-1.01806 1.89698,0 2.90039,1.45019 1.00342,1.45752 1.00342,4.21875 0,2.59278 -1.23047,4.13086 -1.23047,1.54541 -3.30322,1.54541 -0.55664,0 -1.12061,-0.10986 -0.57128,-0.10986 -1.18652,-0.32959 z m 15.56781,-9.44824 h -2.41699 v 8.34228 l 2.62939,-0.52734 v 1.34765 l -2.61474,0.52735 h -1.4795 v -9.68994 h -2.41699 v -1.24512 h 6.29883 z m -111.17228,37.0881 -4.46186,3.71831 -0.79711,-0.95651 3.42095,-2.85086 -1.71615,-2.05933 q -0.17723,0.29072 -0.39198,0.53642 -0.21005,0.25133 -0.45762,0.45764 -1.40665,1.17223 -2.8705,1.08597 -1.46387,-0.0863 -2.56107,-1.40287 -1.13003,-1.35601 -0.91436,-2.81331 0.22036,-1.45167 1.75642,-2.73174 0.5289,-0.44076 1.15532,-0.81025 0.6208,-0.3648 1.35601,-0.6724 l 0.95185,1.1422 q -0.73615,0.1463 -1.38884,0.4614 -0.65268,0.31509 -1.25472,0.81681 -0.9734,0.81118 -1.11499,1.79678 -0.14159,0.9856 0.58988,1.86335 0.73146,0.87774 1.72644,0.91618 0.99498,0.0384 1.96838,-0.77275 0.45575,-0.37981 0.8271,-0.86088 0.36572,-0.4764 0.66017,-1.08407 z m 0.93965,-13.39665 -1.85677,1.54735 5.34068,6.40866 1.68233,-2.08844 0.86277,1.03529 -1.67109,2.07906 -1.13657,0.94715 -6.20343,-7.44394 -1.85677,1.54734 -0.79711,-0.95652 4.83885,-4.03247 z m -29.33524,76.69426 -5.8374,-3.73535 v 3.73535 z m 1.28906,-0.38818 v 1.86035 h -7.12646 v 1.56006 h -1.23047 v -1.56006 h -2.57813 v -1.47217 h 2.57813 v -4.93652 h 1.42822 z m -9.68994,-12.96042 v 2.41699 h 8.34229 l -0.52735,-2.6294 h 1.34766 l 0.52734,2.61475 v 1.47949 h -9.68994 v 2.41699 h -1.24512 v -6.29882 z m 50.04147,38.66162 q 1.06202,0.22705 1.65528,0.94482 0.60058,0.71778 0.60058,1.77246 0,1.61866 -1.11328,2.50489 -1.11328,0.88623 -3.16406,0.88623 -0.68848,0 -1.4209,-0.13916 -0.7251,-0.13184 -1.50146,-0.40284 v -1.42822 q 0.61523,0.35889 1.34765,0.54199 0.73242,0.18311 1.53076,0.18311 1.39161,0 2.1167,-0.54932 0.73243,-0.54931 0.73243,-1.59668 0,-0.96679 -0.68116,-1.50879 -0.67382,-0.54931 -1.88232,-0.54931 h -1.27441 v -1.21582 h 1.333 q 1.09131,0 1.66992,-0.43213 0.57862,-0.43946 0.57862,-1.25977 0,-0.84228 -0.60059,-1.28906 -0.59326,-0.4541 -1.70654,-0.4541 -0.60791,0 -1.30371,0.13183 -0.6958,0.13184 -1.53076,0.41016 v -1.31836 q 0.84228,-0.23437 1.5747,-0.35156 0.73975,-0.11719 1.39161,-0.11719 1.68457,0 2.66601,0.76904 0.98145,0.76172 0.98145,2.06543 0,0.90821 -0.52002,1.53809 -0.52002,0.62256 -1.4795,0.86426 z m -13.76608,4.65088 h 2.41699 v -8.34229 l -2.62939,0.52735 v -1.34766 l 2.61475,-0.52734 h 1.47949 v 9.68994 h 2.41699 v 1.24511 h -6.29883 z m 48.79297,-32.83738 v -5.16357 h 1.24512 v 6.94336 h -1.24512 q -0.87158,-0.84229 -2.33643,-2.29248 -1.47216,-1.45752 -1.89697,-1.83106 -0.79834,-0.71044 -1.34765,-0.98876 -0.55665,-0.28565 -1.09131,-0.28565 -0.87159,0 -1.4209,0.61524 -0.54932,0.60791 -0.54932,1.58935 0,0.6958 0.2417,1.47217 0.2417,0.76904 0.73242,1.64795 h -1.49414 q -0.35888,-0.89356 -0.54199,-1.66992 -0.18311,-0.77637 -0.18311,-1.4209 0,-1.69922 0.84961,-2.70996 0.84961,-1.01075 2.27051,-1.01075 0.67383,0 1.28174,0.25635 0.60059,0.24903 1.4209,0.91553 0.2124,0.1831 1.23047,1.16455 1.01074,0.98145 2.83447,2.76855 z m 0,10.55808 v -2.41699 h -8.34228 l 0.52734,2.62939 h -1.34766 l -0.52734,-2.61474 v -1.4795 h 9.68994 v -2.41699 h 1.24512 v 6.29883 z m 59.88763,-39.98242 h 2.417 v -8.34229 l -2.6294,0.52735 v -1.34766 l 2.61475,-0.52734 h 1.47949 v 9.68994 h 2.41699 v 1.24511 h -6.29883 z m -9.53997,0 h 2.41699 v -8.34229 l -2.6294,0.52735 v -1.34766 l 2.61475,-0.52734 h 1.47949 v 9.68994 h 2.41699 v 1.24511 h -6.29882 z m 71.39746,51.28366 q 0,-1.14258 -1.12793,-1.72119 -1.12061,-0.57129 -3.37647,-0.57129 -2.24853,0 -3.37646,0.57129 -1.12061,0.57861 -1.12061,1.72119 0,1.1499 1.12061,1.72119 1.12793,0.57861 3.37646,0.57861 2.25586,0 3.37647,-0.57861 1.12793,-0.57129 1.12793,-1.72119 z m 1.17187,0 q 0,1.83838 -1.45752,2.80517 -1.45019,0.97413 -4.21875,0.97413 -2.76123,0 -4.21875,-0.97413 -1.45019,-0.96679 -1.45019,-2.80517 0,-1.83838 1.45019,-2.8125 1.45752,-0.9668 4.21875,-0.9668 2.76856,0 4.21875,0.9668 1.45752,0.97412 1.45752,2.8125 z m -9.88769,-12.44772 v 2.41699 h 8.34228 l -0.52734,-2.6294 h 1.34765 l 0.52735,2.61475 v 1.47949 h -9.68994 v 2.41699 h -1.24512 v -6.29882 z m -40.24073,50.53857 v 1.34766 q -0.55664,-0.26368 -1.12793,-0.40284 -0.57128,-0.13916 -1.1206,-0.13916 -1.46484,0 -2.23389,0.98145 -0.77636,0.98877 -0.88623,2.9956 0.42481,-0.62988 1.07666,-0.96679 0.65186,-0.33692 1.44287,-0.33692 1.64063,0 2.6001,0.98877 0.95215,0.9961 0.95215,2.71729 0,1.68457 -0.99609,2.70263 -0.9961,1.01807 -2.65137,1.01807 -1.89697,0 -2.89307,-1.45752 -1.00342,-1.45019 -1.00342,-4.21875 0,-2.58545 1.23047,-4.13086 1.22315,-1.53808 3.2959,-1.53808 0.55664,0 1.12793,0.10986 0.57129,0.10986 1.18652,0.32959 z m -2.94433,4.63623 q -0.9961,0 -1.57471,0.68115 -0.58594,0.68115 -0.58594,1.86768 0,1.1792 0.58594,1.86035 0.57861,0.68848 1.57471,0.68848 0.99609,0 1.58203,-0.68848 0.57861,-0.68115 0.57861,-1.86035 0,-1.18653 -0.57861,-1.86768 -0.58594,-0.68115 -1.58203,-0.68115 z m -32.10547,34.27197 q 0,-1.05468 -0.56397,-1.6626 -0.56396,-0.60058 -1.55273,-0.60058 -0.98877,0 -1.55273,0.60058 -0.56397,0.60792 -0.56397,1.6626 0,1.05469 0.56397,1.6626 0.57129,0.60791 1.55273,0.60791 0.98877,0 1.55273,-0.60791 0.56397,-0.60059 0.56397,-1.6626 z m 0.62988,-1.47949 q 0.23438,-0.95215 0.88623,-1.48682 0.65186,-0.52734 1.58936,-0.52734 1.31103,0 2.07275,0.93018 0.76172,0.9375 0.76172,2.56347 0,1.6333 -0.76172,2.56348 -0.76172,0.93017 -2.07275,0.93017 -0.9375,0 -1.58936,-0.53466 -0.65185,-0.52735 -0.88623,-1.47217 -0.24902,1.06933 -0.97412,1.6626 -0.7251,0.60058 -1.77246,0.60058 -1.58935,0 -2.43896,-0.97412 -0.84961,-0.9668 -0.84961,-2.77588 0,-1.80908 0.84961,-2.7832 0.84961,-0.9668 2.43896,-0.9668 1.04736,0 1.77246,0.60059 0.7251,0.60058 0.97412,1.66992 z m 2.33643,-0.54199 q -0.84961,0 -1.32569,0.52734 -0.47607,0.53467 -0.47607,1.49414 0,0.95215 0.47607,1.48682 0.47608,0.54199 1.32569,0.54199 0.84961,0 1.32568,-0.54199 0.47608,-0.53467 0.47608,-1.48682 0,-0.95947 -0.47608,-1.49414 -0.47607,-0.52734 -1.32568,-0.52734 z m 27.67676,28.18945 h 7.03125 v 0.62988 L 594.59668,433.25 h -1.54541 l 3.73535,-9.68994 h -5.25146 z m 49.45947,56.06201 q 0,-0.99609 -0.68115,-1.58203 -0.68116,-0.57861 -1.86768,-0.57861 -1.1792,0 -1.86768,0.57861 -0.68115,0.58594 -0.68115,1.58203 0,0.9961 0.68115,1.57471 0.68848,0.58594 1.86768,0.58594 1.18652,0 1.86768,-0.58594 0.68115,-0.57861 0.68115,-1.57471 z m 4.63623,2.93701 h -1.34766 q 0.26367,-0.55664 0.40284,-1.12792 0.13916,-0.56397 0.13916,-1.12061 0,-1.46484 -0.98877,-2.24121 -0.98877,-0.76904 -2.98829,-0.87891 0.63721,0.43213 0.97413,1.08399 0.34423,0.65185 0.34423,1.43554 0,1.64795 -1.00341,2.6001 -0.9961,0.95947 -2.71729,0.95947 -1.68457,0 -2.70264,-0.99609 -1.01806,-0.99609 -1.01806,-2.65137 0,-1.89697 1.45019,-2.90039 1.45752,-1.00342 4.21875,-1.00342 2.59278,0 4.13086,1.23047 1.54541,1.23047 1.54541,3.30323 0,0.55664 -0.10986,1.1206 -0.10986,0.57129 -0.32959,1.18652 z m -64.04248,50.76954 h -5.80811 v -1.24512 h 4.45313 v -2.68067 q -0.32227,0.10987 -0.64453,0.16114 -0.32227,0.0586 -0.64453,0.0586 -1.83106,0 -2.90039,-1.00342 -1.06934,-1.00341 -1.06934,-2.71728 0,-1.76514 1.09863,-2.74658 1.09863,-0.97412 3.09815,-0.97412 0.68847,0 1.40625,0.11718 0.71045,0.11719 1.47216,0.35157 v 1.48681 q -0.65918,-0.35889 -1.3623,-0.53467 -0.70313,-0.17578 -1.48682,-0.17578 -1.26709,0 -2.00683,0.66651 -0.73975,0.6665 -0.73975,1.80908 0,1.14258 0.73975,1.80908 0.73974,0.6665 2.00683,0.6665 0.59327,0 1.18653,-0.13183 0.58593,-0.13184 1.20117,-0.41016 z m -66.83594,-113.17041 5.8374,3.73535 v -3.73535 z m -1.28906,0.38818 v -1.86035 h 7.12646 v -1.56006 h 1.23047 v 1.56006 h 2.57813 v 1.47217 h -2.57813 v 4.93652 h -1.42822 z m 5.03906,69.56152 q 0.22705,-1.06201 0.94483,-1.65527 0.71777,-0.60059 1.77246,-0.60059 1.61865,0 2.50488,1.11328 0.88623,1.11329 0.88623,3.16407 0,0.68847 -0.13916,1.4209 -0.13184,0.72509 -0.40283,1.50146 h -1.42823 q 0.35889,-0.61523 0.542,-1.34766 0.1831,-0.73242 0.1831,-1.53076 0,-1.3916 -0.54931,-2.1167 -0.54932,-0.73242 -1.59668,-0.73242 -0.9668,0 -1.50879,0.68115 -0.54932,0.67383 -0.54932,1.88233 v 1.27441 h -1.21582 v -1.33301 q 0,-1.0913 -0.43213,-1.66992 -0.43945,-0.57861 -1.25976,-0.57861 -0.84229,0 -1.28907,0.60059 -0.4541,0.59326 -0.4541,1.70654 0,0.60791 0.13184,1.30371 0.13183,0.6958 0.41015,1.53076 h -1.31836 q -0.23437,-0.84228 -0.35156,-1.57471 -0.11719,-0.73974 -0.11719,-1.3916 0,-1.68457 0.76905,-2.66601 0.76172,-0.98145 2.06543,-0.98145 0.9082,0 1.53808,0.52002 0.62256,0.52002 0.86426,1.47949 z M 481.21143,380.89355 h -5.16358 v -1.24511 h 6.94336 v 1.24511 q -0.84228,0.87159 -2.29248,2.33643 -1.45752,1.47217 -1.83105,1.89697 -0.71045,0.79834 -0.98877,1.34766 -0.28565,0.55664 -0.28565,1.09131 0,0.87158 0.61524,1.4209 0.60791,0.54931 1.58935,0.54931 0.6958,0 1.47217,-0.2417 0.76904,-0.2417 1.64795,-0.73242 v 1.49414 q -0.89356,0.35889 -1.66992,0.54199 -0.77637,0.18311 -1.4209,0.18311 -1.69922,0 -2.70996,-0.84961 -1.01074,-0.84961 -1.01074,-2.27051 0,-0.67383 0.25634,-1.28174 0.24903,-0.60058 0.91553,-1.42089 0.18311,-0.21241 1.16455,-1.23047 0.98145,-1.01074 2.76856,-2.83448 z m -25.41748,300.1504 h 2.41699 v -8.34229 l -2.6294,0.52734 v -1.34765 l 2.61475,-0.52735 h 1.47949 v 9.68995 h 2.41699 v 1.24511 h -6.29882 z m -80.4751,-8.71583 q -1.14258,0 -1.72119,1.12793 -0.57129,1.12061 -0.57129,3.37647 0,2.24853 0.57129,3.37646 0.57861,1.12061 1.72119,1.12061 1.1499,0 1.72119,-1.12061 0.57861,-1.12793 0.57861,-3.37646 0,-2.25586 -0.57861,-3.37647 -0.57129,-1.12793 -1.72119,-1.12793 z m 0,-1.17187 q 1.83838,0 2.80517,1.45752 0.97412,1.45019 0.97412,4.21875 0,2.76123 -0.97412,4.21875 -0.96679,1.45019 -2.80517,1.45019 -1.83838,0 -2.8125,-1.45019 -0.9668,-1.45752 -0.9668,-4.21875 0,-2.76856 0.9668,-4.21875 0.97412,-1.45752 2.8125,-1.45752 z" />
    <path
       id="path2300"
       style="fill:none;stroke:#ff0000;stroke-width:1;stroke-linecap:butt;stroke-linejoin:miter;stroke-miterlimit:10;stroke-dasharray:none;stroke-opacity:1"
       d="m 336.73,597.781 -34.386,15 h -84.051 l -34.383,-15 m 0,0 -25.418,-2.953 -37.355,-34.242 -5.145,-25.066 m 0,0 -15,-26.743 v -65.375 l 15,-26.742 m 0,0 3.363,-21.902 2.829,-2.262 22.105,1.524 m -28.297,13.601 -19.105,15 H 50.191 l -19.101,-15 m 84.902,-36.242 v 36.242 m 28.297,-13.601 -22.105,1.523 -2.829,-2.262 -3.363,-21.902 M 31.09,407.621 v -36.242 m 0,-118.859 19.101,-15 h 46.696 l 19.105,15 M 95.5,195.922 V 111.02 M 31.09,371.379 V 252.52 m 84.902,0 5.676,-24.258 37.355,-31.129 24.887,-1.211 m 0,0 H 95.5 m 0,-84.902 h 88.41 m 0,0 h 152.82 m 0,84.902 24.883,1.211 37.356,31.129 5.679,24.258 m 20.493,-56.598 H 336.73 m 0,-84.902 h 88.411 m -20.493,141.5 15,17.832 v 43.582 l -15,17.828 m 99.735,-135.84 h -79.242 m -20.493,135.84 v 84.902 m 99.735,-305.644 15,19.101 v 46.695 l -15,19.106 M 425.141,111.02 h 79.242 M 314.09,416.664 v -84.902 m 90.558,84.902 H 314.09 m 0,-84.902 -15,-14.008 v -34.246 l 15,-14.008 m 0,0 -24.195,15 h -59.149 l -24.195,-15 m 0,0 15,19.102 v 46.695 l -15,19.105 m 0,0 17.828,-15 h 43.582 l 17.828,15 m 0,0 15,17.828 v 43.582 l -15,17.829 m 0,0 -17.828,15 h -43.582 l -17.828,-15 m 0,0 15,19.101 v 46.696 l -15,19.101 m 0,0 24.195,-15 h 59.149 l 24.195,15 m 0,0 -15,-12.734 v -31.129 l 15,-12.738 m 0,0 20.375,-15 h 49.808 l 20.375,15 m 0,73.582 -5.144,25.066 -37.356,34.242 -25.418,2.953 m 67.918,-135.843 15,16.558 v 40.469 l -15,16.555 m 377.512,168.64 15,19.102 0.004,46.695 -15,19.105 M 719.902,704.16 h 62.258 m 0.004,84.902 H 719.902 M 612.359,704.164 719.902,704.16 m 0,84.902 H 612.363 m -84.902,-84.898 h 84.898 m 0.004,84.898 -84.902,0.004 m -79.242,-84.902 h 79.242 m 0,84.902 h -79.242 m -79.239,-84.898 79.239,-0.004 m 0,84.902 H 368.98 m -79.242,-84.898 h 79.242 m 0,84.898 H 289.742 M 204.84,704.168 h 84.898 m 0.004,84.898 -84.898,0.004 M 97.301,704.172 204.84,704.168 m 0.004,84.902 H 97.301 M 40.699,704.172 H 97.301 M 40.703,789.07 25.699,769.969 v -46.696 l 15,-19.101 M 97.301,789.07 H 40.703 M 656.078,683.789 h -152.82 m 244.957,0 h -92.137 m 152.82,-147.16 -19.101,15 h -46.695 l -19.106,-15 m 24.219,62.262 v 84.898 m -24.219,-147.16 -5.144,25.066 -37.356,34.243 -25.418,2.953 m 0,0 h 92.137 M 808.898,417.77 v 118.859 m 0,-155.102 v 36.243 m -84.902,-36.243 h 84.902 m -84.902,36.243 v -36.243 m -28.297,13.602 22.106,-1.524 2.828,2.262 3.363,21.903 m 0,-45.282 -3.363,21.903 -2.828,2.261 -22.106,-1.523 m 28.297,-141.5 15,26.746 v 65.371 l -15,26.742 m -67.918,-175.457 24.887,1.211 37.355,31.129 5.676,24.258 m -220.738,-56.598 34.387,-15 h 84.05 l 34.383,15 m -220.738,56.598 5.68,-24.258 37.355,-31.129 24.883,-1.211 m -67.918,135.84 -15,-17.828 v -43.582 l 15,-17.832 m 90.558,79.242 -20.375,15 h -49.808 l -20.375,-15 m 90.558,-62.262 15,14.008 v 34.246 l -15,14.008 m 107.54,-62.262 -24.196,15 h -59.148 l -24.196,-15 m 107.54,84.903 -15,-19.106 v -46.695 l 15,-19.102 m -79.239,84.903 17.828,-15 h 43.582 l 17.829,15 m -79.239,79.238 -15,-17.828 V 373.34 l 15,-17.828 m 79.239,79.238 -17.829,15 h -43.582 l -17.828,-15 m 79.239,84.898 -15,-19.101 v -46.695 l 15,-19.102 m -107.54,84.898 24.196,-15 h 59.148 l 24.196,15 m -107.54,-141.5 v 84.899 m 0,0 15,12.738 v 31.129 l -15,12.734 m -90.558,-141.5 h 90.558 m -22.64,220.743 -25.418,-2.953 -37.356,-34.243 -5.144,-25.066 m -24.219,62.262 h 92.137 m 0,84.898 h -92.137 m 24.219,-147.16 -15,-16.555 v -40.469 l 15,-16.558 m -97.801,135.844 h 73.582 m 24.219,-135.844 -15,-19.102 V 397.25 l 15,-19.102 m -97.801,305.641 v -84.898 m 73.582,84.898 h -73.582" />
    <path
       id="path2302"
       style="fill:none;stroke:#800000;stroke-width:1;stroke-linecap:butt;stroke-linejoin:miter;stroke-miterlimit:10;stroke-dasharray:8,8;stroke-dashoffset:0;stroke-opacity:1"
       d="M 336.73,597.781 H 183.91 m 0,0 -67.918,-62.261 m 0,0 V 416.66 m 0,0 28.297,-22.64 m 0,0 -28.297,-22.641 m 0,0 H 31.09 m 84.902,0 V 252.52 m -84.902,0 h 84.902 m 0,0 67.918,-56.598 m 0,-84.902 v 84.902 m 152.82,0 H 183.91 M 336.73,111.02 v 84.902 m 0,0 67.918,56.598 m 20.493,-141.5 v 84.902 m -20.493,56.598 v 79.242 M 504.383,111.02 v 84.902 m -99.735,135.84 H 314.09 m 0,0 V 269.5 m 0,0 H 206.551 m 0,0 v 84.902 m 0,0 h 79.238 m 0,0 v 79.239 m 0,0 h -79.238 m 0,0 v 84.898 m 0,0 H 314.09 m 0,0 v -56.601 m 0,0 h 90.558 m 0,73.582 -67.918,62.261 m 67.918,-135.843 v 73.582 m 377.512,168.64 0.004,84.902 M 448.219,704.164 v 84.902 M 368.98,704.168 v 84.898 M 40.703,789.07 40.699,704.172 M 503.258,598.891 v 84.898 m 152.82,-84.898 v 84.898 m -152.82,-84.898 h 152.82 m 152.82,-62.262 h -84.902 m 0,0 -67.918,62.262 M 723.996,417.77 h 84.902 m -84.902,0 v 118.859 m -28.297,-141.5 28.297,22.641 m 0,-45.282 -28.297,22.641 m 28.297,-141.5 v 118.859 m -67.918,-175.457 67.918,56.598 M 503.258,197.031 h 152.82 m -220.738,56.598 67.918,-56.598 m -67.918,135.84 v -79.242 m 90.558,79.242 H 435.34 m 90.558,-62.262 v 62.262 m 107.54,-62.262 h -107.54 m 107.54,84.903 v -84.903 m -79.239,84.903 h 79.239 m -79.239,79.238 v -79.238 m 79.239,79.238 h -79.239 m 79.239,84.898 V 434.75 m -107.54,84.898 h 107.54 m -107.54,-56.601 v 56.601 m -22.64,79.243 -67.918,-62.262 m -24.219,62.262 v 84.898 m 24.219,-147.16 v -73.582 m 0,0 v -84.899 m 0,84.899 h 90.558" />
  </g>
</svg>
