<?xml version="1.0" encoding="UTF-8" standalone="no"?>
<!-- Created with Inkscape (http://www.inkscape.org/) -->

<svg
   version="1.1"
   id="svg7174"
   width="1132"
   height="1132"
   viewBox="0 0 1132 1132"
   sodipodi:docname="4.svg"
   inkscape:version="1.2.2 (732a01da63, 2022-12-09, custom)"
   xmlns:inkscape="http://www.inkscape.org/namespaces/inkscape"
   xmlns:sodipodi="http://sodipodi.sourceforge.net/DTD/sodipodi-0.dtd"
   xmlns="http://www.w3.org/2000/svg"
   xmlns:svg="http://www.w3.org/2000/svg">
  <defs
     id="defs7178" />
  <sodipodi:namedview
     id="namedview7176"
     pagecolor="#ffffff"
     bordercolor="#666666"
     borderopacity="1.0"
     inkscape:showpageshadow="2"
     inkscape:pageopacity="0.0"
     inkscape:pagecheckerboard="0"
     inkscape:deskcolor="#d1d1d1"
     showgrid="false"
     inkscape:zoom="0.65989399"
     inkscape:cx="565.2423"
     inkscape:cy="566"
     inkscape:window-width="1920"
     inkscape:window-height="1009"
     inkscape:window-x="0"
     inkscape:window-y="0"
     inkscape:window-maximized="1"
     inkscape:current-layer="g7182">
    <inkscape:page
       x="0"
       y="0"
       id="page7180"
       width="1132"
       height="1132" />
  </sodipodi:namedview>
  <g
     id="g7182"
     inkscape:groupmode="layer"
     inkscape:label="Page 1"
     transform="matrix(1.3333333,0,0,1.3333333,0,2.83e-5)">
    <path
       id="path7348"
       style="fill:none;stroke:#00ff00;stroke-width:1;stroke-linecap:butt;stroke-linejoin:miter;stroke-miterlimit:10;stroke-dasharray:8, 2, 2, 2;stroke-dashoffset:0;stroke-opacity:1"
       d="M 142.129,579.918 H 57.23 M 642.078,435.93 h 84.902 m 0,90.558 h -84.902" />
    <path
       id="path7454"
       style="fill:none;stroke:#800000;stroke-width:1;stroke-linecap:butt;stroke-linejoin:miter;stroke-miterlimit:10;stroke-dasharray:8,8;stroke-dashoffset:0;stroke-opacity:1"
       d="M 323.246,319.562 V 155.418 m 0,0 V 70.52 M 589.27,155.418 V 319.562 M 323.246,155.418 h 90.563 M 323.246,70.52 h 90.563 m 0,84.898 h 84.898 m 0,401.863 h -84.898 m 0,0 h -90.563 m 266.024,0 v 84.899 m 0,-84.899 h -90.563 m -175.461,0 v -158.48 m 266.024,0 v 158.48 M 323.246,398.801 H 142.129 m 0,0 H 57.23 m 713.157,0 H 589.27 m -447.141,0 V 155.418 M 679.824,319.562 V 155.418 m 0,-84.898 v 84.898 m -447.133,0 V 319.562 M 770.387,155.418 H 679.824 M 770.387,70.52 v 84.898 m 0,0 V 398.801 M 679.824,70.52 h 90.563 M 498.707,557.281 V 155.418 M 413.809,557.281 V 155.418 m 228.269,371.07 V 435.93 m 84.902,0 v 90.558" />
    <path
       id="path7786"
       style="font-size:15px;font-family:'DejaVu Sans';-inkscape-font-specification:DejaVuSans;fill:#0000ff"
       d="m 244.27193,142.98291 h 5.8081 v 1.24512 h -4.45312 v 2.68066 q 0.32226,-0.10986 0.64453,-0.16113 0.32226,-0.0586 0.64453,-0.0586 1.83105,0 2.90039,1.00342 1.06934,1.00342 1.06934,2.71729 0,1.76513 -1.09864,2.74658 -1.09863,0.97412 -3.09814,0.97412 -0.68848,0 -1.40625,-0.11719 -0.71045,-0.11718 -1.47217,-0.35156 v -1.48682 q 0.65918,0.35889 1.36231,0.53467 0.70312,0.17578 1.48681,0.17578 1.26709,0 2.00684,-0.6665 0.73974,-0.6665 0.73974,-1.80908 0,-1.14258 -0.73974,-1.80908 -0.73975,-0.66651 -2.00684,-0.66651 -0.59326,0 -1.18652,0.13184 -0.58594,0.13183 -1.20117,0.41015 z m -9.2983,9.68994 h 2.41699 v -8.34228 l -2.62939,0.52734 v -1.34766 l 2.61475,-0.52734 h 1.47949 v 9.68994 h 2.41699 v 1.24512 h -6.29883 z m 100.70752,87.91159 v 5.80811 h -1.24511 v -4.45313 h -2.68067 q 0.10986,0.32227 0.16113,0.64453 0.0586,0.32227 0.0586,0.64454 0,1.83105 -1.00342,2.90039 -1.00342,1.06933 -2.71729,1.06933 -1.76513,0 -2.74658,-1.09863 -0.97412,-1.09863 -0.97412,-3.09815 0,-0.68847 0.11719,-1.40625 0.11719,-0.71044 0.35156,-1.47216 h 1.48682 q -0.35889,0.65918 -0.53467,1.3623 -0.17578,0.70313 -0.17578,1.48682 0,1.26709 0.6665,2.00683 0.66651,0.73975 1.80908,0.73975 1.14258,0 1.80909,-0.73975 0.6665,-0.73974 0.6665,-2.00683 0,-0.59326 -0.13184,-1.18653 -0.13183,-0.58593 -0.41015,-1.20117 z m -9.68994,-9.29831 v 2.41699 h 8.34229 l -0.52735,-2.62939 h 1.34766 l 0.52734,2.61475 v 1.47949 h -9.68994 v 2.41699 h -1.24512 v -6.29883 z m -91.7236,-149.620603 3.73535,-5.837402 h -3.73535 z m 0.38818,1.289063 h -1.86035 v -7.126465 h -1.56006 v -1.230469 h 1.56006 v -2.578125 h 1.47217 v 2.578125 h 4.93652 v 1.428223 z m 12.96042,-9.689942 h -2.41699 v 8.342286 l 2.62939,-0.527344 v 1.347656 l -2.61474,0.527344 h -1.4795 v -9.689942 h -2.41699 v -1.245117 h 6.29883 z m 330.50733,157.315472 5.8374,3.73536 v -3.73536 z m -1.28907,0.38819 v -1.86035 h 7.12647 v -1.56006 h 1.23047 v 1.56006 h 2.57812 v 1.47216 h -2.57812 v 4.93653 h -1.42823 z m 9.68994,12.9604 v -2.41699 h -8.34228 l 0.52734,2.62939 h -1.34765 l -0.52735,-2.61474 v -1.4795 h 9.68994 v -2.41699 h 1.24512 v 6.29883 z M 361.022,77.915527 q -1.06201,-0.22705 -1.65527,-0.944824 -0.60059,-0.717773 -0.60059,-1.772461 0,-1.618652 1.11329,-2.504883 1.11328,-0.88623 3.16406,-0.88623 0.68847,0 1.4209,0.13916 0.72509,0.131836 1.50146,0.402832 v 1.428223 q -0.61523,-0.358887 -1.34766,-0.541992 -0.73242,-0.183106 -1.53076,-0.183106 -1.3916,0 -2.1167,0.549316 -0.73242,0.549317 -0.73242,1.59668 0,0.966797 0.68115,1.508789 0.67383,0.549317 1.88233,0.549317 h 1.27441 v 1.21582 h -1.33301 q -1.0913,0 -1.66992,0.432129 -0.57861,0.439453 -0.57861,1.259765 0,0.842286 0.60059,1.289063 0.59326,0.454102 1.70654,0.454102 0.60791,0 1.30371,-0.131836 0.6958,-0.131836 1.53076,-0.410157 v 1.31836 q -0.84228,0.234375 -1.57471,0.351562 -0.73974,0.117188 -1.3916,0.117188 -1.68457,0 -2.66601,-0.769043 -0.98145,-0.761719 -0.98145,-2.06543 0,-0.908203 0.52002,-1.538086 0.52002,-0.622558 1.47949,-0.864258 z m 13.76609,-4.650879 h -2.417 v 8.342286 l 2.6294,-0.527344 v 1.347656 l -2.61475,0.527344 h -1.47949 v -9.689942 h -2.41699 v -1.245117 h 6.29883 z M 536.479,162.81396 q -1.06201,-0.22705 -1.65527,-0.94482 -0.60059,-0.71777 -0.60059,-1.77246 0,-1.61865 1.11329,-2.50488 1.11328,-0.88623 3.16406,-0.88623 0.68847,0 1.4209,0.13916 0.72509,0.13183 1.50146,0.40283 v 1.42822 q -0.61523,-0.35889 -1.34765,-0.54199 -0.73243,-0.18311 -1.53077,-0.18311 -1.3916,0 -2.1167,0.54932 -0.73242,0.54932 -0.73242,1.59668 0,0.9668 0.68115,1.50879 0.67383,0.54932 1.88233,0.54932 h 1.27441 v 1.21582 h -1.333 q -1.09131,0 -1.66993,0.43212 -0.57861,0.43946 -0.57861,1.25977 0,0.84229 0.60059,1.28906 0.59326,0.4541 1.70654,0.4541 0.60791,0 1.30371,-0.13183 0.6958,-0.13184 1.53076,-0.41016 v 1.31836 q -0.84228,0.23438 -1.57471,0.35156 -0.73974,0.11719 -1.3916,0.11719 -1.68457,0 -2.66601,-0.76904 -0.98145,-0.76172 -0.98145,-2.06543 0,-0.9082 0.52002,-1.53809 0.52002,-0.62256 1.47949,-0.86426 z m 13.76612,-4.65087 h -2.417 v 8.34228 l 2.6294,-0.52734 v 1.34765 l -2.61475,0.52735 h -1.47949 v -9.68994 h -2.41699 v -1.24512 h 6.29883 z M 411.06348,108.51908 v -5.16357 h 1.24511 v 6.94336 h -1.24511 q -0.87159,-0.84229 -2.33643,-2.29248 -1.47217,-1.45752 -1.89697,-1.83106 -0.79834,-0.71045 -1.34766,-0.98877 -0.55664,-0.28564 -1.09131,-0.28564 -0.87158,0 -1.4209,0.61523 -0.54931,0.60791 -0.54931,1.58936 0,0.6958 0.2417,1.47216 0.2417,0.76905 0.73242,1.64795 h -1.49414 q -0.35889,-0.89355 -0.54199,-1.66992 -0.18311,-0.77636 -0.18311,-1.4209 0,-1.69921 0.84961,-2.70996 0.84961,-1.01074 2.27051,-1.01074 0.67383,0 1.28174,0.25635 0.60058,0.24902 1.4209,0.91553 0.2124,0.1831 1.23046,1.16455 1.01075,0.98144 2.83448,2.76855 z m 0,10.55807 v -2.41699 h -8.34229 l 0.52735,2.62939 h -1.34766 l -0.52734,-2.61475 v -1.47949 h 9.68994 v -2.41699 h 1.24511 v 6.29883 z m 40.74466,39.08594 h -5.16358 v -1.24512 h 6.94336 v 1.24512 q -0.84228,0.87158 -2.29248,2.33642 -1.45752,1.47217 -1.83105,1.89697 -0.71045,0.79834 -0.98877,1.34766 -0.28565,0.55664 -0.28565,1.09131 0,0.87158 0.61524,1.4209 0.60791,0.54931 1.58935,0.54931 0.6958,0 1.47217,-0.2417 0.76904,-0.24169 1.64795,-0.73242 v 1.49414 q -0.89356,0.35889 -1.66992,0.542 -0.77637,0.1831 -1.4209,0.1831 -1.69922,0 -2.70996,-0.84961 -1.01074,-0.84961 -1.01074,-2.27051 0,-0.67382 0.25634,-1.28173 0.24903,-0.60059 0.91553,-1.4209 0.18311,-0.21241 1.16455,-1.23047 0.98145,-1.01074 2.76856,-2.83447 z m 10.55807,0 h -2.41699 v 8.34228 l 2.62939,-0.52734 v 1.34765 l -2.61474,0.52735 h -1.4795 v -9.68994 h -2.41699 v -1.24512 h 6.29883 z m 39.08594,444.94036 v 2.417 h 8.34228 l -0.52734,-2.6294 h 1.34766 l 0.52734,2.61475 v 1.47949 h -9.68994 v 2.41699 h -1.24512 v -6.29883 z m 0,-9.53997 v 2.41699 h 8.34228 l -0.52734,-2.6294 h 1.34766 l 0.52734,2.61475 v 1.47949 h -9.68994 v 2.41699 h -1.24512 v -6.29882 z m -41.82132,-39.02735 h 2.41699 v -8.34228 l -2.62939,0.52734 v -1.34765 l 2.61474,-0.52735 h 1.47949 v 9.68994 h 2.417 v 1.24512 h -6.29883 z m -9.54001,0 h 2.41699 v -8.34228 l -2.62939,0.52734 v -1.34765 l 2.61474,-0.52735 h 1.4795 v 9.68994 h 2.41699 v 1.24512 h -6.29883 z m 99.98285,76.18262 q -1.14258,0 -1.72119,1.12793 -0.57129,1.12061 -0.57129,3.37646 0,2.24854 0.57129,3.37647 0.57861,1.1206 1.72119,1.1206 1.1499,0 1.72119,-1.1206 0.57861,-1.12793 0.57861,-3.37647 0,-2.25585 -0.57861,-3.37646 -0.57129,-1.12793 -1.72119,-1.12793 z m 0,-1.17188 q 1.83838,0 2.80518,1.45752 0.97412,1.4502 0.97412,4.21875 0,2.76123 -0.97412,4.21875 -0.9668,1.4502 -2.80518,1.4502 -1.83838,0 -2.8125,-1.4502 -0.9668,-1.45752 -0.9668,-4.21875 0,-2.76855 0.9668,-4.21875 0.97412,-1.45752 2.8125,-1.45752 z m -12.44769,9.8877 h 2.41699 v -8.34228 l -2.6294,0.52734 v -1.34766 l 2.61475,-0.52734 h 1.47949 v 9.68994 h 2.41699 v 1.24512 h -6.29882 z M 374.61276,545.82031 q -1.14258,0 -1.72119,1.12793 -0.57129,1.12061 -0.57129,3.37647 0,2.24853 0.57129,3.37646 0.57861,1.12061 1.72119,1.12061 1.1499,0 1.72119,-1.12061 0.57862,-1.12793 0.57862,-3.37646 0,-2.25586 -0.57862,-3.37647 -0.57129,-1.12793 -1.72119,-1.12793 z m 0,-1.17187 q 1.83838,0 2.80518,1.45752 0.97412,1.45019 0.97412,4.21875 0,2.76123 -0.97412,4.21875 -0.9668,1.45019 -2.80518,1.45019 -1.83838,0 -2.8125,-1.45019 -0.96679,-1.45752 -0.96679,-4.21875 0,-2.76856 0.96679,-4.21875 0.97412,-1.45752 2.8125,-1.45752 z m -12.44772,9.88769 h 2.41699 v -8.34228 l -2.62939,0.52734 v -1.34765 l 2.61474,-0.52735 h 1.47949 v 9.68994 h 2.417 v 1.24512 h -6.29883 z m 304.22119,85.91651 v -1.34766 q 0.55664,0.26367 1.12793,0.40283 0.57129,0.13916 1.12061,0.13916 1.46484,0 2.23388,-0.98144 0.77637,-0.98877 0.88623,-2.99561 -0.4248,0.62988 -1.07666,0.9668 -0.65185,0.33691 -1.44287,0.33691 -1.64062,0 -2.6001,-0.98877 -0.95214,-0.99609 -0.95214,-2.71728 0,-1.68457 0.99609,-2.70264 0.99609,-1.01807 2.65137,-1.01807 1.89697,0 2.89306,1.45752 1.00342,1.4502 1.00342,4.21875 0,2.58545 -1.23047,4.13086 -1.22314,1.53809 -3.2959,1.53809 -0.55664,0 -1.12793,-0.10986 -0.57129,-0.10987 -1.18652,-0.32959 z m 2.94434,-4.63623 q 0.99609,0 1.5747,-0.68116 0.58594,-0.68115 0.58594,-1.86767 0,-1.1792 -0.58594,-1.86035 -0.57861,-0.68848 -1.5747,-0.68848 -0.9961,0 -1.58203,0.68848 -0.57862,0.68115 -0.57862,1.86035 0,1.18652 0.57862,1.86767 0.58593,0.68116 1.58203,0.68116 z M 324.97314,475.91748 h 1.34766 q -0.26367,0.55664 -0.40283,1.12793 -0.13916,0.57129 -0.13916,1.12061 0,1.46484 0.98144,2.23388 0.98877,0.77637 2.99561,0.88623 -0.62988,-0.4248 -0.9668,-1.07666 -0.33691,-0.65185 -0.33691,-1.44287 0,-1.64062 0.98877,-2.6001 0.99609,-0.95214 2.71728,-0.95214 1.68457,0 2.70264,0.99609 1.01807,0.99609 1.01807,2.65137 0,1.89697 -1.45752,2.89306 -1.4502,1.00342 -4.21875,1.00342 -2.58545,0 -4.13086,-1.23047 -1.53809,-1.22314 -1.53809,-3.2959 0,-0.55664 0.10986,-1.12793 0.10987,-0.57129 0.32959,-1.18652 z m 4.63623,2.94434 q 0,0.99609 0.68116,1.5747 0.68115,0.58594 1.86767,0.58594 1.1792,0 1.86035,-0.58594 0.68848,-0.57861 0.68848,-1.5747 0,-0.9961 -0.68848,-1.58203 -0.68115,-0.57862 -1.86035,-0.57862 -1.18652,0 -1.86767,0.57862 -0.68116,0.58593 -0.68116,1.58203 z M 741.05713,598.7124 q 0,1.05469 0.56396,1.6626 0.56397,0.60059 1.55274,0.60059 0.98877,0 1.55273,-0.60059 0.56397,-0.60791 0.56397,-1.6626 0,-1.05469 -0.56397,-1.6626 -0.57129,-0.60791 -1.55273,-0.60791 -0.98877,0 -1.55274,0.60791 -0.56396,0.60059 -0.56396,1.6626 z m -0.62988,1.47949 q -0.23438,0.95215 -0.88623,1.48682 -0.65186,0.52734 -1.58936,0.52734 -1.31104,0 -2.07275,-0.93017 -0.76172,-0.9375 -0.76172,-2.56348 0,-1.6333 0.76172,-2.56347 0.76171,-0.93018 2.07275,-0.93018 0.9375,0 1.58936,0.53467 0.65185,0.52734 0.88623,1.47217 0.24902,-1.06934 0.97412,-1.6626 0.72509,-0.60059 1.77246,-0.60059 1.58935,0 2.43896,0.97412 0.84961,0.9668 0.84961,2.77588 0,1.80908 -0.84961,2.78321 -0.84961,0.96679 -2.43896,0.96679 -1.04737,0 -1.77246,-0.60058 -0.7251,-0.60059 -0.97412,-1.66993 z m -2.33643,0.542 q 0.84961,0 1.32568,-0.52735 0.47608,-0.53467 0.47608,-1.49414 0,-0.95215 -0.47608,-1.48681 -0.47607,-0.542 -1.32568,-0.542 -0.84961,0 -1.32568,0.542 -0.47608,0.53466 -0.47608,1.48681 0,0.95947 0.47608,1.49414 0.47607,0.52735 1.32568,0.52735 z M 100.69775,573.2251 q -1.054684,0 -1.662594,0.56396 -0.600586,0.56397 -0.600586,1.55274 0,0.98877 0.600586,1.55273 0.60791,0.56397 1.662594,0.56397 1.05469,0 1.6626,-0.56397 0.60791,-0.57129 0.60791,-1.55273 0,-0.98877 -0.60791,-1.55274 -0.60058,-0.56396 -1.6626,-0.56396 z m -1.479488,-0.62989 q -0.952149,-0.23437 -1.486817,-0.88623 -0.527343,-0.65185 -0.527343,-1.58935 0,-1.31104 0.930175,-2.07276 0.9375,-0.76171 2.563473,-0.76171 1.6333,0 2.56348,0.76171 0.93018,0.76172 0.93018,2.07276 0,0.9375 -0.53467,1.58935 -0.52735,0.65186 -1.47217,0.88623 1.06934,0.24903 1.6626,0.97413 0.60058,0.72509 0.60058,1.77246 0,1.58935 -0.97412,2.43896 -0.96679,0.84961 -2.77588,0.84961 -1.809078,0 -2.783199,-0.84961 -0.966797,-0.84961 -0.966797,-2.43896 0,-1.04737 0.600586,-1.77246 0.600586,-0.7251 1.669922,-0.97413 z m -0.541992,-2.33642 q 0,0.84961 0.527343,1.32568 0.534668,0.47608 1.494137,0.47608 0.95215,0 1.48682,-0.47608 0.54199,-0.47607 0.54199,-1.32568 0,-0.84961 -0.54199,-1.32568 -0.53467,-0.47608 -1.48682,-0.47608 -0.959469,0 -1.494137,0.47608 -0.527343,0.47607 -0.527343,1.32568 z m 572.1167,-0.54248 h -7.03125 v -0.62988 l 3.96973,-10.30518 h 1.54541 l -3.73536,9.68994 h 5.25147 z m -93.9585,-89.38819 v -7.03125 h 0.62989 l 10.30517,3.96973 v 1.54541 l -9.68994,-3.73535 v 5.25146 z m -442.26269,7.85743 q 0,0.99609 0.68115,1.58203 0.68115,0.57861 1.86768,0.57861 1.17919,0 1.86767,-0.57861 0.68115,-0.58594 0.68115,-1.58203 0,-0.9961 -0.68115,-1.57471 -0.68848,-0.58594 -1.86767,-0.58594 -1.18653,0 -1.86768,0.58594 -0.68115,0.57861 -0.68115,1.57471 z m -4.63623,-2.93701 h 1.34765 q -0.26367,0.55664 -0.40283,1.12792 -0.13916,0.56397 -0.13916,1.12061 0,1.46484 0.98877,2.24121 0.98877,0.76904 2.98828,0.87891 -0.63721,-0.43213 -0.97412,-1.08399 -0.34424,-0.65185 -0.34424,-1.43554 0,-1.64795 1.00342,-2.6001 0.99609,-0.95947 2.71729,-0.95947 1.68457,0 2.70263,0.99609 1.01807,0.99609 1.01807,2.65137 0,1.89697 -1.4502,2.90039 -1.45752,1.00342 -4.21875,1.00342 -2.59277,0 -4.13086,-1.23047 -1.54541,-1.23047 -1.54541,-3.30323 0,-0.55664 0.10987,-1.1206 0.10986,-0.57129 0.32959,-1.18652 z m 103.92968,-94.00489 q -0.99609,0 -1.58203,0.68115 -0.57861,0.68116 -0.57861,1.86768 0,1.1792 0.57861,1.86768 0.58594,0.68115 1.58203,0.68115 0.9961,0 1.57471,-0.68115 0.58594,-0.68848 0.58594,-1.86768 0,-1.18652 -0.58594,-1.86768 -0.57861,-0.68115 -1.57471,-0.68115 z m 2.93702,-4.63623 v 1.34766 q -0.55664,-0.26367 -1.12793,-0.40283 -0.56397,-0.13916 -1.12061,-0.13916 -1.46484,0 -2.24121,0.98877 -0.76904,0.98876 -0.87891,2.98828 0.43213,-0.63721 1.08399,-0.97412 0.65185,-0.34424 1.43554,-0.34424 1.64795,0 2.6001,1.00342 0.95948,0.99609 0.95948,2.71728 0,1.68457 -0.9961,2.70264 -0.99609,1.01806 -2.65137,1.01806 -1.89697,0 -2.90039,-1.45019 -1.00341,-1.45752 -1.00341,-4.21875 0,-2.59278 1.23046,-4.13086 1.23047,-1.54541 3.30323,-1.54541 0.55664,0 1.1206,0.10986 0.57129,0.10987 1.18653,0.32959 z M 69.665527,487.43896 v 5.80811 H 68.42041 v -4.45312 h -2.680664 q 0.109863,0.32226 0.161133,0.64453 0.05859,0.32226 0.05859,0.64453 0,1.83105 -1.003418,2.90039 -1.003418,1.06933 -2.717285,1.06933 -1.765137,0 -2.746583,-1.09863 -0.974121,-1.09863 -0.974121,-3.09814 0,-0.68848 0.117188,-1.40625 0.117187,-0.71045 0.351562,-1.47217 h 1.486817 q -0.358887,0.65918 -0.534668,1.3623 -0.175781,0.70313 -0.175781,1.48682 0,1.26709 0.666503,2.00684 0.666504,0.73974 1.809083,0.73974 1.142578,0 1.809082,-0.73974 0.666503,-0.73975 0.666503,-2.00684 0,-0.59326 -0.131835,-1.18652 -0.131836,-0.58594 -0.410157,-1.20118 z M 677.90771,386.36572 h 5.80811 v 1.24512 h -4.45312 v 2.68066 q 0.32226,-0.10986 0.64453,-0.16113 0.32226,-0.0586 0.64453,-0.0586 1.83105,0 2.90039,1.00342 1.06933,1.00341 1.06933,2.71728 0,1.76514 -1.09863,2.74658 -1.09863,0.97412 -3.09814,0.97412 -0.68848,0 -1.40625,-0.11718 -0.71045,-0.11719 -1.47217,-0.35157 v -1.48681 q 0.65918,0.35888 1.3623,0.53467 0.70313,0.17578 1.48682,0.17578 1.26709,0 2.00684,-0.66651 0.73974,-0.6665 0.73974,-1.80908 0,-1.14258 -0.73974,-1.80908 -0.73975,-0.66651 -2.00684,-0.66651 -0.59326,0 -1.18652,0.13184 -0.58594,0.13184 -1.20118,0.41016 z m 13.0625,-147.18896 -5.8374,-3.73535 v 3.73535 z m 1.28907,-0.38819 v 1.86036 h -7.12647 v 1.56005 h -1.23047 v -1.56005 h -2.57812 v -1.47217 h 2.57812 v -4.93653 h 1.42823 z m -92.8208,-94.5166 -3.73536,5.8374 h 3.73536 z m -0.38819,-1.28906 h 1.86035 v 7.12646 h 1.56006 v 1.23047 h -1.56006 v 2.57813 h -1.47216 v -2.57813 h -4.93653 v -1.42822 z m -373.75488,92.02051 q 0.22705,-1.06201 0.94482,-1.65528 0.71778,-0.60058 1.77247,-0.60058 1.61865,0 2.50488,1.11328 0.88623,1.11328 0.88623,3.16406 0,0.68848 -0.13916,1.4209 -0.13184,0.7251 -0.40283,1.50147 h -1.42823 q 0.35889,-0.61524 0.542,-1.34766 0.1831,-0.73242 0.1831,-1.53076 0,-1.3916 -0.54932,-2.1167 -0.54931,-0.73242 -1.59667,-0.73242 -0.9668,0 -1.50879,0.68115 -0.54932,0.67383 -0.54932,1.88232 v 1.27442 h -1.21582 v -1.33301 q 0,-1.09131 -0.43213,-1.66992 -0.43945,-0.57862 -1.25977,-0.57862 -0.84228,0 -1.28906,0.60059 -0.4541,0.59326 -0.4541,1.70654 0,0.60791 0.13184,1.30371 0.13183,0.6958 0.41015,1.53077 h -1.31836 q -0.23437,-0.84229 -0.35156,-1.57471 -0.11719,-0.73975 -0.11719,-1.3916 0,-1.68457 0.76905,-2.66602 0.76172,-0.98144 2.06543,-0.98144 0.9082,0 1.53808,0.52002 0.62256,0.52002 0.86426,1.47949 z M 595.26904,77.915527 q -1.06201,-0.22705 -1.65527,-0.944824 -0.60059,-0.717773 -0.60059,-1.772461 0,-1.618652 1.11328,-2.504883 1.11329,-0.88623 3.16407,-0.88623 0.68847,0 1.4209,0.13916 0.72509,0.131836 1.50146,0.402832 v 1.428223 q -0.61523,-0.358887 -1.34766,-0.541992 -0.73242,-0.183106 -1.53076,-0.183106 -1.3916,0 -2.1167,0.549316 -0.73242,0.549317 -0.73242,1.59668 0,0.966797 0.68115,1.508789 0.67383,0.549317 1.88233,0.549317 h 1.27441 v 1.21582 h -1.33301 q -1.0913,0 -1.66992,0.432129 -0.57861,0.439453 -0.57861,1.259765 0,0.842286 0.60059,1.289063 0.59326,0.454102 1.70654,0.454102 0.60791,0 1.30371,-0.131836 0.6958,-0.131836 1.53076,-0.410157 v 1.31836 q -0.84228,0.234375 -1.57471,0.351562 -0.73974,0.117188 -1.3916,0.117188 -1.68457,0 -2.66601,-0.769043 -0.98145,-0.761719 -0.98145,-2.06543 0,-0.908203 0.52002,-1.538086 0.52002,-0.622558 1.47949,-0.864258 z M 767.6416,113.56298 v -5.16357 h 1.24512 v 6.94336 h -1.24512 q -0.87158,-0.84229 -2.33642,-2.29248 -1.47217,-1.45752 -1.89698,-1.83106 -0.79834,-0.71045 -1.34765,-0.98877 -0.55664,-0.28564 -1.09131,-0.28564 -0.87158,0 -1.4209,0.61523 -0.54932,0.60791 -0.54932,1.58936 0,0.6958 0.2417,1.47216 0.2417,0.76905 0.73242,1.64795 H 758.479 q -0.35888,-0.89355 -0.54199,-1.66992 -0.1831,-0.77637 -0.1831,-1.4209 0,-1.69922 0.84961,-2.70996 0.8496,-1.01074 2.2705,-1.01074 0.67383,0 1.28174,0.25635 0.60059,0.24902 1.4209,0.91553 0.2124,0.1831 1.23047,1.16455 1.01074,0.98144 2.83447,2.76855 z m -667.36767,44.60011 h -5.163578 v -1.24512 h 6.943358 v 1.24512 q -0.84228,0.87158 -2.29248,2.33642 -1.457519,1.47217 -1.831054,1.89697 -0.710449,0.79834 -0.98877,1.34766 -0.285644,0.55664 -0.285644,1.09131 0,0.87158 0.615234,1.4209 0.60791,0.54931 1.589356,0.54931 0.6958,0 1.472168,-0.2417 0.76904,-0.24169 1.64795,-0.73242 v 1.49414 q -0.89356,0.35889 -1.66992,0.542 -0.77637,0.1831 -1.420902,0.1831 -1.699218,0 -2.709961,-0.84961 -1.010742,-0.84961 -1.010742,-2.27051 0,-0.67382 0.256348,-1.28173 0.249023,-0.60059 0.915527,-1.4209 0.183106,-0.21241 1.164551,-1.23047 0.981445,-1.01074 2.768559,-2.83447 z M 59.975586,275.71582 v 2.41699 h 8.342285 l -0.527344,-2.62939 h 1.347657 l 0.527343,2.61474 v 1.4795 h -9.689941 v 2.41699 h -1.245117 v -6.29883 z m 707.666014,2.79102 v -2.417 h -8.34228 l 0.52734,2.6294 H 758.479 l -0.52734,-2.61475 V 274.625 h 9.68994 v -2.41699 h 1.24512 v 6.29883 z M 724.11865,81.980469 q 1.14258,0 1.72119,-1.12793 0.57129,-1.120605 0.57129,-3.376465 0,-2.248535 -0.57129,-3.376465 -0.57861,-1.120605 -1.72119,-1.120605 -1.1499,0 -1.72119,1.120605 -0.57861,1.12793 -0.57861,3.376465 0,2.25586 0.57861,3.376465 0.57129,1.12793 1.72119,1.12793 z m 0,1.171875 q -1.83838,0 -2.80517,-1.45752 -0.97412,-1.450195 -0.97412,-4.21875 0,-2.76123 0.97412,-4.21875 0.96679,-1.450195 2.80517,-1.450195 1.83838,0 2.8125,1.450195 0.9668,1.45752 0.9668,4.21875 0,2.768555 -0.9668,4.21875 -0.97412,1.45752 -2.8125,1.45752 z M 186.41943,166.87891 q 1.14258,0 1.72119,-1.12793 0.57129,-1.12061 0.57129,-3.37647 0,-2.24853 -0.57129,-3.37646 -0.57861,-1.12061 -1.72119,-1.12061 -1.1499,0 -1.72119,1.12061 -0.57861,1.12793 -0.57861,3.37646 0,2.25586 0.57861,3.37647 0.57129,1.12793 1.72119,1.12793 z m 0,1.17187 q -1.83838,0 -2.80517,-1.45752 -0.97412,-1.45019 -0.97412,-4.21875 0,-2.76123 0.97412,-4.21875 0.96679,-1.45019 2.80517,-1.45019 1.83838,0 2.8125,1.45019 0.9668,1.45752 0.9668,4.21875 0,2.76856 -0.9668,4.21875 -0.97412,1.45752 -2.8125,1.45752 z" />
    <path
       id="path7657"
       style="font-size:15px;font-family:'DejaVu Sans';-inkscape-font-specification:DejaVuSans"
       d="m 523.07959,115.45752 q -0.22705,1.06201 -0.94482,1.65527 -0.71778,0.60059 -1.77247,0.60059 -1.61865,0 -2.50488,-1.11328 -0.88623,-1.11328 -0.88623,-3.16406 0,-0.68848 0.13916,-1.4209 0.13184,-0.7251 0.40283,-1.50147 h 1.42823 q -0.35889,0.61524 -0.542,1.34766 -0.1831,0.73242 -0.1831,1.53076 0,1.3916 0.54931,2.1167 0.54932,0.73242 1.59668,0.73242 0.9668,0 1.50879,-0.68115 0.54932,-0.67383 0.54932,-1.88233 v -1.27441 h 1.21582 v 1.33301 q 0,1.09131 0.43213,1.66992 0.43945,0.57861 1.25976,0.57861 0.84229,0 1.28907,-0.60058 0.4541,-0.59326 0.4541,-1.70655 0,-0.60791 -0.13184,-1.30371 -0.13183,-0.6958 -0.41015,-1.53076 h 1.31836 q 0.23437,0.84229 0.35156,1.57471 0.11719,0.73974 0.11719,1.3916 0,1.68457 -0.76905,2.66602 -0.76172,0.98144 -2.06543,0.98144 -0.9082,0 -1.53808,-0.52002 -0.62256,-0.52002 -0.86426,-1.47949 z m -244.5166,206.8501 h -5.16358 v -1.24512 h 6.94336 v 1.24512 q -0.84228,0.87158 -2.29248,2.33642 -1.45752,1.47217 -1.83105,1.89698 -0.71045,0.79834 -0.98877,1.34765 -0.28565,0.55664 -0.28565,1.09131 0,0.87158 0.61524,1.4209 0.60791,0.54932 1.58935,0.54932 0.6958,0 1.47217,-0.2417 0.76904,-0.2417 1.64795,-0.73243 v 1.49414 q -0.89355,0.35889 -1.66992,0.542 -0.77637,0.1831 -1.4209,0.1831 -1.69922,0 -2.70996,-0.84961 -1.01074,-0.84961 -1.01074,-2.2705 0,-0.67383 0.25635,-1.28174 0.24902,-0.60059 0.91552,-1.4209 0.18311,-0.2124 1.16455,-1.23047 0.98145,-1.01074 2.76856,-2.83447 z M 161.85059,111.5752 v 2.417 h 8.34228 l -0.52734,-2.6294 h 1.34765 l 0.52735,2.61475 v 1.47949 h -9.68994 v 2.41699 h -1.24512 v -6.29883 z m 471.70947,219.44824 q 1.14258,0 1.72119,-1.12793 0.57129,-1.12061 0.57129,-3.37647 0,-2.24853 -0.57129,-3.37646 -0.57861,-1.12061 -1.72119,-1.12061 -1.1499,0 -1.72119,1.12061 -0.57862,1.12793 -0.57862,3.37646 0,2.25586 0.57862,3.37647 0.57129,1.12793 1.72119,1.12793 z m 0,1.17187 q -1.83838,0 -2.80518,-1.45752 -0.97412,-1.45019 -0.97412,-4.21875 0,-2.76123 0.97412,-4.21875 0.9668,-1.45019 2.80518,-1.45019 1.83838,0 2.8125,1.45019 0.9668,1.45752 0.9668,4.21875 0,2.76856 -0.9668,4.21875 -0.97412,1.45752 -2.8125,1.45752 z m 48.48242,111.13037 q -1.06201,-0.22705 -1.65527,-0.94482 -0.60059,-0.71777 -0.60059,-1.77246 0,-1.61865 1.11328,-2.50488 1.11328,-0.88623 3.16406,-0.88623 0.68848,0 1.4209,0.13916 0.7251,0.13183 1.50147,0.40283 v 1.42822 q -0.61524,-0.35889 -1.34766,-0.54199 -0.73242,-0.18311 -1.53076,-0.18311 -1.3916,0 -2.1167,0.54932 -0.73242,0.54932 -0.73242,1.59668 0,0.9668 0.68115,1.50879 0.67383,0.54931 1.88233,0.54931 h 1.27441 v 1.21582 h -1.33301 q -1.09131,0 -1.66992,0.43213 -0.57861,0.43946 -0.57861,1.25977 0,0.84228 0.60058,1.28906 0.59326,0.4541 1.70655,0.4541 0.60791,0 1.30371,-0.13183 0.6958,-0.13184 1.53076,-0.41016 v 1.31836 q -0.84229,0.23437 -1.57471,0.35156 -0.73974,0.11719 -1.3916,0.11719 -1.68457,0 -2.66602,-0.76904 -0.98144,-0.76172 -0.98144,-2.06543 0,-0.90821 0.52002,-1.53809 0.52002,-0.62256 1.47949,-0.86426 z m -37.21924,37.29102 v 5.16357 h -1.24512 v -6.94336 h 1.24512 q 0.87158,0.84229 2.33643,2.29248 1.47217,1.45752 1.89697,1.83106 0.79834,0.71045 1.34766,0.98877 0.55664,0.28564 1.09131,0.28564 0.87158,0 1.42089,-0.61523 0.54932,-0.60791 0.54932,-1.58936 0,-0.6958 -0.2417,-1.47216 -0.2417,-0.76905 -0.73242,-1.64795 h 1.49414 q 0.35889,0.89355 0.54199,1.66992 0.18311,0.77637 0.18311,1.4209 0,1.69922 -0.84961,2.70996 -0.84961,1.01074 -2.27051,1.01074 -0.67383,0 -1.28174,-0.25635 -0.60058,-0.24902 -1.4209,-0.91553 -0.2124,-0.1831 -1.23047,-1.16455 -1.01074,-0.98144 -2.83447,-2.76855 z m 38.31055,43.12646 h 2.41699 v -8.34228 l -2.62939,0.52734 v -1.34765 l 2.61474,-0.52735 h 1.47949 v 9.68994 h 2.417 v 1.24512 h -6.29883 z m 32.38574,-43.52295 q 0,1.14258 1.12793,1.7212 1.12061,0.57129 3.37647,0.57129 2.24853,0 3.37646,-0.57129 1.12061,-0.57862 1.12061,-1.7212 0,-1.1499 -1.12061,-1.72119 -1.12793,-0.57861 -3.37646,-0.57861 -2.25586,0 -3.37647,0.57861 -1.12793,0.57129 -1.12793,1.72119 z m -1.17187,0 q 0,-1.83837 1.45752,-2.80517 1.45019,-0.97412 4.21875,-0.97412 2.76123,0 4.21875,0.97412 1.45019,0.9668 1.45019,2.80517 0,1.83838 -1.45019,2.8125 -1.45752,0.9668 -4.21875,0.9668 -2.76856,0 -4.21875,-0.9668 -1.45752,-0.97412 -1.45752,-2.8125 z" />
    <path
       id="path7484"
       style="fill:none;stroke:#ff0000;stroke-width:1;stroke-linecap:butt;stroke-linejoin:miter;stroke-miterlimit:10;stroke-dasharray:none;stroke-opacity:1"
       d="M 515.684,155.418 V 70.52 M 232.691,319.562 h 90.555 M 159.105,155.418 V 70.52 M 589.27,319.562 h 90.554 M 323.246,155.418 H 159.105 m 164.141,164.144 -15,-36.933 v -90.277 l 15,-36.934 M 159.105,70.52 h 164.141 m 266.024,84.898 15,36.934 v 90.277 l -15,36.933 M 323.246,70.52 l 20.379,-15 h 49.809 l 20.375,15 m 84.898,84.898 H 589.27 M 413.809,70.52 v 84.898 m 0,0 19.101,-15 h 46.695 l 19.102,15 m 0,486.762 v -84.899 m 0,0 -19.102,15 H 432.91 l -19.101,-15 M 589.27,642.18 h -90.563 m -84.898,-84.899 -20.375,15 h -49.809 l -20.379,-15 M 747.75,642.18 H 589.27 m -266.024,-84.899 -15,-35.656 v -87.168 l 15,-35.656 m 424.504,158.48 v 84.899 m -605.621,-62.262 -19.102,15 H 76.332 l -19.102,-15 m 532.04,-22.637 h 158.48 m -158.48,-158.48 15,35.656 v 87.168 l -15,35.656 M 142.129,398.801 v 181.117 m 181.117,-181.117 -40.75,15 h -99.613 l -40.754,-15 M 57.23,579.918 V 398.801 m 713.157,0 -40.754,15 H 630.02 l -40.75,-15 m 90.554,-79.239 -15,-36.933 v -90.277 l 15,-36.934 m 0,0 h -164.14 m -282.993,0 15,36.934 v 90.277 l -15,36.933 M 515.684,70.52 h 164.14 m 90.563,0 15,19.101 v 46.695 l -15,19.102 m -713.157,0 h 84.899 M 57.23,398.801 V 155.418 m 713.157,0 15,54.762 v 133.859 l -15,54.762 M 679.824,70.52 l 20.379,-15 h 49.809 l 20.375,15 m -628.258,84.898 h 90.562 m 409.387,280.512 19.106,-15 h 46.695 l 19.101,15 m -84.902,90.558 -15,-20.375 v -49.808 l 15,-20.375 m 84.902,90.558 -19.101,15 h -46.695 l -19.106,-15 m 84.902,-90.558 15,20.375 v 49.808 l -15,20.375" />
  </g>
</svg>
