<?xml version="1.0" encoding="UTF-8" standalone="no"?>
<!-- Created with Inkscape (http://www.inkscape.org/) -->

<svg
   version="1.1"
   id="svg10280"
   width="1132"
   height="1132"
   viewBox="0 0 1132 1132"
   sodipodi:docname="6.svg"
   inkscape:version="1.2.2 (732a01da63, 2022-12-09, custom)"
   xmlns:inkscape="http://www.inkscape.org/namespaces/inkscape"
   xmlns:sodipodi="http://sodipodi.sourceforge.net/DTD/sodipodi-0.dtd"
   xmlns="http://www.w3.org/2000/svg"
   xmlns:svg="http://www.w3.org/2000/svg">
  <defs
     id="defs10284" />
  <sodipodi:namedview
     id="namedview10282"
     pagecolor="#ffffff"
     bordercolor="#666666"
     borderopacity="1.0"
     inkscape:showpageshadow="2"
     inkscape:pageopacity="0.0"
     inkscape:pagecheckerboard="0"
     inkscape:deskcolor="#d1d1d1"
     showgrid="false"
     showguides="true"
     inkscape:zoom="0.93323103"
     inkscape:cx="566.84784"
     inkscape:cy="550.23888"
     inkscape:window-width="1920"
     inkscape:window-height="1009"
     inkscape:window-x="0"
     inkscape:window-y="0"
     inkscape:window-maximized="1"
     inkscape:current-layer="g10288">
    <inkscape:page
       x="0"
       y="0"
       id="page10286"
       width="1132"
       height="1132" />
  </sodipodi:namedview>
  <g
     id="g10288"
     inkscape:groupmode="layer"
     inkscape:label="Page 1"
     transform="matrix(1.3333333,0,0,1.3333333,0,2.83e-5)">
    <path
       id="path10804"
       style="fill:none;stroke:#800000;stroke-width:1;stroke-linecap:butt;stroke-linejoin:miter;stroke-miterlimit:10;stroke-dasharray:8,8;stroke-dashoffset:0;stroke-opacity:1"
       d="m 219.72438,69.403199 -0.0655,84.902401 m -90.56282,-0.0731 0.0653,-84.897409 m -0.0653,84.897409 -73.580353,-0.0553 m 596.308463,-55.379818 0.3161,84.898878 m 0,0 68.1553,62.01044 m -90.28602,73.91444 -0.21306,-56.59962 m -480.50815,160.2791 0.33868,90.55996 m 481.10212,-1.8004 -0.33869,-90.55996 m 0,0 -107.54016,0.40349 M 148.69437,264.8219 l 0.21304,56.60062 m 480.88908,-58.40102 -107.54016,0.40349 m -372.62931,250.43557 107.54016,-0.4035 m 266.0218,-0.99341 107.54016,-0.40349 m -373.56196,1.3969 -0.33868,-90.55996 m 0,0 -107.54016,0.4035 m 373.56195,-1.39691 0.33869,90.55996 M 256.23453,264.4184 148.69437,264.8219 m 373.56196,-1.39691 0.32009,84.89894 m -266.02279,0.9934 -0.3191,-84.89893 m 266.34189,83.90553 130.1764,-0.48797 m 67.80584,-32.06914 84.89887,-0.3161 m -679.08428,34.35352 130.18038,-0.48691 m 396.19919,-1.48137 68.13678,56.34542 m 0,0 84.89888,-0.3161 m -747.124933,2.7948 67.709703,-56.85584 m 594.51635,54.37714 0.46426,124.5233 M 148.90741,321.42252 58.347453,321.7612 m 662.222057,-2.47876 -90.55996,0.33868 M 58.347453,321.7612 58.069583,248.18138 M 743.96243,98.452886 744.28247,183.35483 M 58.069583,248.18138 125.76063,185.66852 m 680.49217,342.71606 -84.89894,0.3201 m -662.225989,2.4747 -0.464324,-124.5193 m 662.690313,122.0446 -67.70963,56.85184 m 0,0 0.31609,84.89887 M 127.26465,587.5248 59.127871,531.17938 m 594.516359,54.37714 -152.81762,0.57137 m 0.31611,84.89788 -0.31611,-84.89788 m -220.74434,0.82553 -152.81762,0.57138 m 373.56196,-1.39691 -68.13678,-56.34542 m -84.89793,0.31911 -67.70963,56.85184 m 152.60756,-57.17095 -84.89793,0.31911 M 125.76063,185.66852 278.57831,185.09314 m 220.74429,-0.82253 -0.32004,-84.901936 m 0.32004,84.901936 152.81767,-0.57437 m -373.56196,1.3969 68.15531,62.01044 m 0,0 84.89794,-0.32011 m 0,0 67.69104,-62.51286 m -66.63277,345.51186 -1.05827,-282.999 m -83.83966,283.31811 -1.05828,-282.998" />
    <path
       id="path12690"
       style="font-size:15px;font-family:'DejaVu Sans';-inkscape-font-specification:DejaVuSans;fill:#0000ff"
       d="m 459.50497,659.58893 q 0,1.14258 1.12793,1.72119 1.12061,0.57129 3.37647,0.57129 2.24853,0 3.37646,-0.57129 1.12061,-0.57861 1.12061,-1.72119 0,-1.1499 -1.12061,-1.72119 -1.12793,-0.57862 -3.37646,-0.57862 -2.25586,0 -3.37647,0.57862 -1.12793,0.57129 -1.12793,1.72119 z m -1.17187,0 q 0,-1.83838 1.45752,-2.80518 1.45019,-0.97412 4.21875,-0.97412 2.76123,0 4.21875,0.97412 1.45019,0.9668 1.45019,2.80518 0,1.83838 -1.45019,2.8125 -1.45752,0.9668 -4.21875,0.9668 -2.76856,0 -4.21875,-0.9668 -1.45752,-0.97412 -1.45752,-2.8125 z m -372.105477,1.97754 q 0,-1.14258 -1.12793,-1.72119 -1.120605,-0.57129 -3.376465,-0.57129 -2.248535,0 -3.376464,0.57129 -1.120606,0.57861 -1.120606,1.72119 0,1.1499 1.120606,1.72119 1.127929,0.57861 3.376464,0.57861 2.25586,0 3.376465,-0.57861 1.12793,-0.57129 1.12793,-1.72119 z m 1.171875,0 q 0,1.83838 -1.45752,2.80517 -1.450195,0.97412 -4.21875,0.97412 -2.76123,0 -4.21875,-0.97412 -1.450195,-0.96679 -1.450195,-2.80517 0,-1.83838 1.450195,-2.8125 1.45752,-0.9668 4.21875,-0.9668 2.768555,0 4.21875,0.9668 1.45752,0.97412 1.45752,2.8125 z m 613.458332,-490.48532 7.0312,-0.0263 0.002,0.62988 -3.93115,10.31995 -1.5454,0.006 3.69908,-9.70385 -5.25143,0.0196 z m -8.87385,9.7232 2.41698,-0.009 -0.0312,-8.34223 -2.6274,0.53718 -0.005,-1.34766 2.61275,-0.53711 1.47947,-0.006 0.0362,9.68987 2.41698,-0.009 0.005,1.24511 -6.29879,0.0236 z m -16.12341,41.28227 -5.20086,-4.73175 0.42388,-0.46591 9.8713,-4.95105 1.14311,1.04 -9.28391,4.65371 3.88439,3.53402 z m 13.1116,-1.17125 -1.7878,-1.62654 -5.61403,6.17061 2.29979,1.37941 -0.90692,0.99683 -2.28895,-1.36956 -1.09435,-0.99564 6.52095,-7.16744 -1.7878,-1.62653 0.83792,-0.92099 4.65911,4.23886 z m 38.92055,35.97816 q -0.004,-0.99608 -0.68707,-1.57947 -0.68331,-0.57606 -1.86983,-0.57162 -1.17919,0.004 -1.8655,0.58559 -0.67895,0.58848 -0.67523,1.58457 0.004,0.99608 0.68704,1.57215 0.69066,0.58336 1.86986,0.57895 1.18651,-0.004 1.86547,-0.59292 0.67898,-0.58117 0.67526,-1.57725 z m 4.64718,2.91965 -1.34765,0.005 q 0.26158,-0.55762 0.39862,-1.12943 0.13705,-0.56447 0.13496,-1.12111 -0.005,-1.46484 -0.99714,-2.2375 -0.99164,-0.76534 -2.99156,-0.86772 0.63882,0.42974 0.97818,1.08032 0.34667,0.65057 0.3496,1.43426 0.006,1.64794 -0.99368,2.60383 -0.99251,0.96319 -2.71368,0.96963 -1.68456,0.006 -2.70635,-0.98598 -1.02178,-0.99228 -1.02797,-2.64754 -0.007,-1.89696 1.43933,-2.90579 1.45376,-1.00887 4.21497,-1.0192 2.59276,-0.01 4.13543,1.21502 1.55,1.22468 1.55776,3.29741 0.002,0.55664 -0.10567,1.12102 -0.10772,0.57169 -0.32515,1.18774 z m -9.5064,-15.53239 0.009,2.41697 8.34222,-0.0312 -0.53717,-2.6274 1.34764,-0.005 0.53713,2.61276 0.006,1.47948 -9.68987,0.0362 0.009,2.41697 -1.24511,0.005 -0.0236,-6.29879 z M 581.44931,355.66096 q 0.99609,-0.004 1.57947,-0.68706 0.57607,-0.68331 0.57163,-1.86983 -0.004,-1.17919 -0.5856,-1.86549 -0.58847,-0.67897 -1.58457,-0.67524 -0.99608,0.004 -1.57215,0.68704 -0.58335,0.69066 -0.57894,1.86985 0.004,1.18652 0.59291,1.86548 0.58117,0.67898 1.57725,0.67525 z m -2.91965,4.64719 -0.005,-1.34765 q 0.55762,0.26159 1.12943,0.39861 0.56447,0.13705 1.12111,0.13497 1.46484,-0.005 2.23751,-0.99714 0.76533,-0.99164 0.86771,-2.99155 -0.42974,0.63881 -1.08032,0.97817 -0.65057,0.34666 -1.43426,0.34959 -1.64794,0.006 -2.60383,-0.99367 -0.96319,-0.99251 -0.96963,-2.71369 -0.006,-1.68455 0.98598,-2.70633 0.99228,-1.02179 2.64754,-1.02798 1.89696,-0.007 2.90579,1.43933 1.00887,1.45376 1.0192,4.21497 0.01,2.59276 -1.21502,4.13543 -1.22468,1.55 -3.29741,1.55775 -0.55664,0.002 -1.12102,-0.10566 -0.57169,-0.10773 -1.18774,-0.32515 z m 15.53236,-9.5064 -2.41697,0.009 0.0312,8.34222 2.6274,-0.53717 0.005,1.34765 -2.61275,0.53711 -1.47949,0.006 -0.0362,-9.68987 -2.41697,0.009 -0.005,-1.24512 6.29879,-0.0236 z m 198.70456,-103.48793 -0.0217,-5.80806 1.24511,-0.005 0.0167,4.45309 2.68065,-0.01 q -0.11107,-0.32185 -0.16354,-0.64393 -0.0598,-0.32204 -0.061,-0.6443 -0.007,-1.83104 0.99256,-2.90413 0.99942,-1.07307 2.71327,-1.07948 1.76512,-0.007 2.75067,1.08835 0.97823,1.09498 0.9857,3.09447 0.003,0.68848 -0.11193,1.40668 -0.11452,0.71089 -0.34605,1.47348 l -1.48681,0.006 q 0.35642,-0.66052 0.52957,-1.36429 0.17315,-0.70378 0.17022,-1.48747 -0.005,-1.26708 -0.674,-2.00433 -0.66926,-0.73724 -1.81183,-0.73297 -1.14258,0.004 -1.8063,0.7465 -0.66374,0.74224 -0.659,2.00932 0.002,0.59325 0.13627,1.18602 0.13402,0.58544 0.41464,1.19962 z m 9.72465,9.26199 -0.009,-2.41697 -8.34222,0.0312 0.53717,2.6274 -1.34765,0.005 -0.53712,-2.61275 -0.006,-1.47949 9.68987,-0.0362 -0.009,-2.41697 1.24511,-0.005 0.0236,6.29879 z m -614.07397,105.43251 -5.80806,0.0217 -0.005,-1.24511 4.45309,-0.0166 -0.01,-2.68064 q -0.32185,0.11106 -0.64393,0.16354 -0.32204,0.0598 -0.6443,0.061 -1.83105,0.007 -2.90413,-0.99257 -1.07308,-0.99941 -1.07949,-2.71327 -0.007,-1.76512 1.08835,-2.75067 1.09499,-0.97822 3.09448,-0.9857 0.68848,-0.003 1.40668,0.11193 0.71089,0.11452 1.47348,0.34605 l 0.006,1.48681 q -0.66052,-0.35642 -1.3643,-0.52957 -0.70377,-0.17315 -1.48746,-0.17022 -1.26708,0.005 -2.00433,0.674 -0.73725,0.66926 -0.73298,1.81183 0.004,1.14258 0.74651,1.80631 0.74224,0.66373 2.00932,0.659 0.59325,-0.002 1.18602,-0.13628 0.58544,-0.13402 1.19962,-0.41464 z m 9.26199,-9.72465 -2.41698,0.009 0.0312,8.34222 2.62741,-0.53717 0.005,1.34765 -2.61276,0.53712 -1.47948,0.006 -0.0362,-9.68987 -2.41697,0.009 -0.005,-1.24511 6.29879,-0.0236 z m 534.21652,14.56125 -5.85134,-3.71349 0.014,3.73532 z m 1.2876,-0.393 0.007,1.86034 -7.12642,0.0267 0.006,1.56005 -1.23046,0.005 -0.006,-1.56005 -2.5781,0.01 -0.006,-1.47215 2.5781,-0.01 -0.0185,-4.93648 1.42822,-0.005 z m -9.73834,-12.92409 0.009,2.41697 8.34222,-0.0312 -0.53717,-2.6274 1.34764,-0.005 0.53712,2.61275 0.006,1.47949 -9.68987,0.0362 0.009,2.41698 -1.24511,0.005 -0.0236,-6.29878 z m -49.05264,26.66479 6.59869,-2.11785 -2.87851,-2.38054 z m -0.52239,1.24076 -1.43361,-1.1856 4.5417,-5.49176 -1.2022,-0.99423 0.78418,-0.94822 1.2022,0.99423 1.64304,-1.98674 1.13448,0.93822 -1.64304,1.98673 3.80415,3.14605 -0.91021,1.10062 z m 16.16288,0.79245 -1.86256,-1.54035 -5.31655,6.4287 2.36232,1.26933 -0.85886,1.03852 -2.35104,-1.25999 -1.14012,-0.94289 6.17541,-7.46722 -1.86257,-1.54035 0.79351,-0.9595 4.85397,4.01425 z m 108.16585,-30.04998 q 0.22308,-1.06286 0.93863,-1.6588 0.71551,-0.60327 1.7702,-0.60721 1.61864,-0.006 2.50902,1.1039 0.89039,1.10997 0.89806,3.16074 0.003,0.68846 -0.13384,1.4214 -0.12912,0.72558 -0.39722,1.50296 l -1.42821,0.005 q 0.35659,-0.61656 0.53695,-1.34967 0.18037,-0.7331 0.17738,-1.53144 -0.005,-1.39159 -0.55723,-2.11463 -0.55205,-0.73036 -1.59941,-0.72644 -0.96679,0.004 -1.50623,0.68679 -0.54679,0.67588 -0.54227,1.88437 l 0.005,1.2744 -1.21581,0.005 -0.005,-1.333 q -0.004,-1.09131 -0.43837,-1.6683 -0.44162,-0.57696 -1.26192,-0.57389 -0.84228,0.003 -1.28681,0.6054 -0.45188,0.59496 -0.44771,1.70823 0.002,0.60791 0.1367,1.30321 0.13444,0.6953 0.41588,1.52922 l -1.31835,0.005 q -0.23751,-0.84141 -0.35744,-1.57339 -0.11996,-0.73929 -0.1224,-1.39115 -0.006,-1.68456 0.75907,-2.66887 0.75804,-0.98429 2.06174,-0.98916 0.9082,-0.003 1.54003,0.51426 0.6245,0.51769 0.86978,1.47625 z m 4.70234,13.74859 -0.009,-2.41698 -8.34223,0.0312 0.53717,2.62741 -1.34764,0.005 -0.53713,-2.61276 -0.006,-1.47948 9.68988,-0.0362 -0.009,-2.41697 1.2451,-0.005 0.0236,6.29878 z M 91.523972,388.72267 q -0.95932,0.50904 -1.875214,0.34085 -0.921514,-0.16349 -1.59973,-0.97119 -1.040868,-1.23961 -0.758177,-2.6342 0.282691,-1.39459 1.853233,-2.71334 0.527256,-0.44272 1.177649,-0.80713 0.64008,-0.36531 1.408904,-0.65702 l 0.91842,1.09378 q -0.70195,0.12078 -1.380605,0.45153 -0.678649,0.33075 -1.290039,0.84413 -1.065724,0.89486 -1.267792,1.78181 -0.207668,0.89166 0.465834,1.69376 0.621698,0.7404 1.491866,0.71746 0.869276,-0.0126 1.794769,-0.78974 l 0.975985,-0.81951 0.78183,0.93111 -1.020855,0.85719 q -0.835754,0.70176 -1.000989,1.40477 -0.160527,0.70862 0.366971,1.33683 0.541632,0.64505 1.288873,0.601 0.746342,-0.0337 1.598921,-0.74962 0.465554,-0.39092 0.913644,-0.93932 0.448089,-0.54839 0.908551,-1.29846 l 0.847768,1.00964 q -0.494337,0.72112 -0.979885,1.28185 -0.491162,0.56544 -0.990365,0.98461 -1.290089,1.08326 -2.536245,1.12542 -1.241434,0.0478 -2.079782,-0.95065 -0.584015,-0.69553 -0.590813,-1.5123 -0.0021,-0.81117 0.577273,-1.61326 z m 7.551691,-12.41401 -1.850994,1.55424 5.364491,6.38875 1.67454,-2.09468 0.86661,1.03207 -1.66333,2.08526 -1.13303,0.95138 -6.231095,-7.42081 -1.851002,1.55424 -0.800671,-0.95354 4.82381,-4.05045 z m 594.379727,-274.92285 -5.16354,0.0193 -0.005,-1.24511 6.94331,-0.026 0.005,1.24511 q -0.83903,0.87472 -2.28374,2.34499 -1.45199,1.4776 -1.82394,1.9038 -0.70746,0.80099 -0.98372,1.35135 -0.28356,0.55771 -0.28156,1.09236 0.003,0.87159 0.62054,1.41859 0.60996,0.54704 1.5914,0.54337 0.6958,-0.003 1.47125,-0.2472 0.76814,-0.24458 1.6452,-0.73858 l 0.006,1.49413 q -0.89221,0.36222 -1.66789,0.54823 -0.77568,0.18601 -1.4202,0.18842 -1.69921,0.006 -2.71312,-0.83946 -1.01391,-0.84583 -1.01922,-2.26672 -0.003,-0.67382 0.25155,-1.28269 0.24677,-0.60152 0.9102,-1.42431 0.18231,-0.21309 1.15995,-1.23482 0.97765,-1.0144 2.75793,-2.8448 z m 10.55796,-0.0395 -2.41697,0.009 0.0312,8.34223 2.62741,-0.53718 0.005,1.34765 -2.61276,0.53712 -1.47948,0.006 -0.0362,-9.68987 -2.41697,0.009 -0.005,-1.24511 6.29878,-0.0236 z m -613.504041,120.61369 -3.793285,3.50335 -0.844782,-0.9147 5.100758,-4.71089 0.844782,0.9147 q -0.02742,1.21175 -0.09891,3.27178 -0.0719,2.07038 -0.05808,2.63589 0.01974,1.0685 0.187972,1.66087 0.167824,0.60272 0.530584,0.9955 0.591345,0.64029 1.41601,0.62641 0.819286,-0.009 1.540279,-0.67479 0.511152,-0.47209 0.917503,-1.17639 0.40097,-0.69933 0.713695,-1.65614 l 1.013735,1.09763 q -0.412936,0.86989 -0.859038,1.53116 -0.446109,0.66125 -0.919597,1.09855 -1.248288,1.15287 -2.567242,1.21449 -1.318954,0.0616 -2.282991,-0.9822 -0.457176,-0.49501 -0.681309,-1.11552 -0.224546,-0.61016 -0.291476,-1.66499 -0.0096,-0.28027 0.02066,-1.69405 0.03523,-1.4084 0.110732,-3.96066 z m 7.756205,-7.16338 -1.77558,1.63987 5.660026,6.12844 1.57383,-2.17137 0.91435,0.99002 -1.56307,2.16143 -1.08687,1.0038 -6.574376,-7.11846 -1.77558,1.63987 -0.844782,-0.9147 4.62727,-4.27359 z m 704.998596,247.96715 -0.009,-2.41697 -8.34223,0.0312 0.53718,2.6274 -1.34765,0.005 -0.53712,-2.61275 -0.006,-1.47948 9.68987,-0.0362 -0.009,-2.41698 1.24511,-0.005 0.0236,6.29879 z m 0.0357,9.53995 -0.009,-2.41698 -8.34223,0.0312 0.53718,2.6274 -1.34765,0.005 -0.53712,-2.61275 -0.006,-1.47949 9.68987,-0.0362 -0.009,-2.41698 1.24511,-0.005 0.0236,6.29878 z m -741.643885,-0.0227 0.009,2.41698 8.342226,-0.0312 -0.537173,-2.6274 1.347646,-0.005 0.53712,2.61276 0.0055,1.47948 -9.689875,0.0362 0.009,2.41697 -1.245108,0.005 -0.02356,-6.29879 z m -0.03568,-9.53991 0.009,2.41698 8.342227,-0.0312 -0.537174,-2.62741 1.347647,-0.005 0.53712,2.61276 0.0055,1.47948 -9.689874,0.0362 0.009,2.41698 -1.245109,0.005 -0.02356,-6.29878 z M 733.00072,578.95146 q -0.004,-1.14256 -1.13436,-1.71696 -1.12273,-0.5671 -3.37857,-0.55866 -2.24853,0.008 -3.37431,0.58392 -1.11843,0.5828 -1.11416,1.72537 0.004,1.1499 1.12703,1.71699 1.13009,0.57439 3.37861,0.56598 2.25585,-0.008 3.37427,-0.59123 1.12579,-0.57551 1.12149,-1.72541 z m 1.17187,-0.004 q 0.007,1.83836 -1.44702,2.81061 -1.44654,0.97953 -4.21507,0.98989 -2.76122,0.0103 -4.22237,-0.95834 -1.4538,-0.96136 -1.46068,-2.79973 -0.007,-1.83837 1.43967,-2.81791 1.45389,-0.97223 4.21511,-0.98256 2.76853,-0.0104 4.22233,0.95101 1.46115,0.96866 1.46803,2.80703 z m -9.93419,-12.41101 0.009,2.41698 8.34224,-0.0312 -0.53719,-2.6274 1.34766,-0.005 0.53711,2.61275 0.006,1.47949 -9.68987,0.0362 0.009,2.41697 -1.24511,0.005 -0.0236,-6.29879 z m -39.44733,-22.0983 q -0.87502,0.73471 -0.59286,1.9706 0.28307,1.22556 1.73365,2.95319 1.44588,1.72202 2.60869,2.21847 1.16371,0.48614 2.03874,-0.24856 0.88065,-0.73943 0.59758,-1.965 -0.28217,-1.23587 -1.72804,-2.95789 -1.45059,-1.72763 -2.6143,-2.21378 -1.16281,-0.49645 -2.04346,0.24297 z m -0.75354,-0.89746 q 1.4079,-1.18214 3.08555,-0.68759 1.67853,0.48423 3.4588,2.6045 1.77556,2.11467 1.96676,3.85728 0.19211,1.7323 -1.2158,2.91443 -1.40791,1.18214 -3.08644,0.69791 -1.67764,-0.49455 -3.4532,-2.60922 -1.78026,-2.12027 -1.97237,-3.85256 -0.19121,-1.74262 1.2167,-2.92475 z m -3.17489,15.57665 1.85103,-1.55419 -5.36434,-6.38886 -1.6746,2.09463 -0.86659,-1.03209 1.66338,-2.08521 1.13307,-0.95137 6.23092,7.42095 1.85103,-1.55419 0.80065,0.95356 -4.8239,4.05034 z m -28.78012,71.01884 -1.34764,0.005 q 0.26158,-0.55762 0.39861,-1.12943 0.13702,-0.57181 0.13496,-1.12112 -0.005,-1.46483 -0.98979,-2.2302 -0.99167,-0.77266 -2.9989,-0.87502 0.63147,0.42245 0.97081,1.07304 0.33936,0.65059 0.34232,1.4416 0.006,1.64061 -0.97904,2.60377 -0.99253,0.95587 -2.71371,0.96231 -1.68456,0.006 -2.70634,-0.98598 -1.02179,-0.99227 -1.02798,-2.64754 -0.007,-1.89696 1.44669,-2.89849 1.44643,-1.00884 4.21497,-1.01919 2.58543,-0.01 4.13543,1.21501 1.54265,1.21738 1.5504,3.29011 0.002,0.55665 -0.10564,1.12833 -0.10772,0.5717 -0.32515,1.18776 z m -4.64721,-2.92698 q -0.004,-0.99608 -0.68704,-1.57215 -0.68333,-0.58338 -1.86985,-0.57894 -1.1792,0.004 -1.85815,0.59288 -0.68631,0.58119 -0.68259,1.57727 0.004,0.9961 0.6944,1.57945 0.68331,0.57607 1.8625,0.57166 1.18652,-0.004 1.8655,-0.5856 0.67895,-0.58848 0.67523,-1.58457 z m 114.56747,-11.9708 -0.005,-1.34765 q 0.55762,0.26158 1.12943,0.39861 0.57181,0.13702 1.12112,0.13496 1.46483,-0.005 2.2302,-0.98978 0.77266,-0.99167 0.87502,-2.99891 -0.42244,0.63147 -1.07304,0.97082 -0.65058,0.33935 -1.4416,0.34231 -1.64061,0.006 -2.60378,-0.97904 -0.95586,-0.99252 -0.9623,-2.7137 -0.006,-1.68456 0.98598,-2.70635 0.99228,-1.02179 2.64754,-1.02798 1.89696,-0.007 2.89849,1.44669 1.00884,1.44644 1.0192,4.21497 0.01,2.58543 -1.21502,4.13543 -1.21737,1.54266 -3.29012,1.55041 -0.55664,0.002 -1.12833,-0.10564 -0.57169,-0.10773 -1.18775,-0.32515 z m 2.92698,-4.64722 q 0.99609,-0.004 1.57214,-0.68704 0.58339,-0.68333 0.57895,-1.86984 -0.004,-1.1792 -0.59289,-1.85815 -0.58118,-0.68631 -1.57726,-0.68259 -0.9961,0.004 -1.57945,0.6944 -0.57607,0.68331 -0.57166,1.8625 0.004,1.18651 0.58561,1.86549 0.58847,0.67895 1.58456,0.67523 z m 34.79111,-38.99331 q 0.004,1.05468 0.57019,1.66048 0.5662,0.59846 1.55496,0.59477 0.98876,-0.004 1.55048,-0.60639 0.56169,-0.61001 0.55774,-1.6647 -0.004,-1.05468 -0.57017,-1.66047 -0.57356,-0.60577 -1.555,-0.6021 -0.98877,0.004 -1.55045,0.61371 -0.56172,0.6027 -0.55775,1.6647 z m -0.62434,1.48183 q -0.23081,0.95302 -0.88066,1.49013 -0.64989,0.52977 -1.58738,0.53328 -1.31102,0.005 -2.07621,-0.92241 -0.76523,-0.93465 -0.77131,-2.56062 -0.006,-1.63328 0.75213,-2.56631 0.75824,-0.93301 2.06926,-0.93791 0.93749,-0.004 1.59135,0.52872 0.65382,0.5249 0.89173,1.46883 0.24501,-1.07025 0.96789,-1.66622 0.72285,-0.6033 1.7702,-0.60721 1.58935,-0.006 2.4426,0.96499 0.85322,0.96361 0.85998,2.77268 0.007,1.80907 -0.83919,2.78636 -0.84599,0.96997 -2.43534,0.97592 -1.04735,0.004 -1.77469,-0.59396 -0.72734,-0.59787 -0.98036,-1.66627 z m -2.33438,0.55073 q 0.8496,-0.003 1.3237,-0.5323 0.47407,-0.53644 0.47048,-1.49591 -0.004,-0.95214 -0.48163,-1.48503 -0.4781,-0.5402 -1.3277,-0.53702 -0.8496,0.003 -1.32365,0.54694 -0.47407,0.53645 -0.4705,1.48859 0.004,0.95946 0.48165,1.49235 0.47805,0.52556 1.32765,0.52238 z M 98.246109,554.84186 q -0.812775,-0.67213 -1.640651,-0.62494 -0.822241,0.0519 -1.452368,0.81384 -0.630127,0.76198 -0.526697,1.57933 0.109071,0.82201 0.921846,1.49415 0.812775,0.67214 1.64065,0.62494 0.832547,-0.0528 1.458003,-0.80917 0.630127,-0.76197 0.521063,-1.58399 -0.10343,-0.81735 -0.921846,-1.49416 z m -0.73872,-1.42826 q -0.584394,-0.7874 -0.581007,-1.63048 0.009,-0.8384 0.606483,-1.56087 0.835504,-1.01032 2.037752,-1.00455 1.207893,0.0104 2.460923,1.04666 1.25867,1.04088 1.49006,2.22067 0.23139,1.17979 -0.60412,2.19011 -0.59745,0.72247 -1.4249,0.88407 -0.8218,0.16627 -1.699273,-0.25524 0.665363,0.87338 0.660453,1.81024 7.4e-4,0.94152 -0.666729,1.74866 -1.012867,1.2248 -2.304995,1.25874 -1.286487,0.0386 -2.680617,-1.11429 -1.39413,-1.15289 -1.603373,-2.42842 -0.203602,-1.27086 0.809265,-2.49566 0.667471,-0.80713 1.59239,-0.98318 0.924921,-0.17603 1.907688,0.31354 z m 1.071281,-2.14592 q -0.541442,0.65473 -0.438443,1.35768 0.108635,0.70761 0.848031,1.31907 0.733754,0.60679 1.449172,0.58064 0.72108,-0.0215 1.26252,-0.6762 0.54144,-0.65474 0.42716,-1.36703 -0.10863,-0.7076 -0.84239,-1.31439 -0.73939,-0.61146 -1.454818,-0.58532 -0.709789,0.0308 -1.251232,0.68555 z m 289.66234,54.65779 7.0312,-0.0263 0.002,0.62987 -3.93116,10.31996 -1.5454,0.006 3.69909,-9.70385 -5.25143,0.0196 z m 125.16904,20.32125 0.0263,7.0312 -0.62988,0.002 -10.31995,-3.93116 -0.006,-1.5454 9.70384,3.69908 -0.0196,-5.25142 z m 65.28816,36.93393 q -0.99609,0.004 -1.57948,0.68707 -0.57606,0.68331 -0.57162,1.86982 0.004,1.17919 0.58559,1.8655 0.58848,0.67896 1.58457,0.67523 0.99609,-0.004 1.57215,-0.68703 0.58336,-0.69067 0.57895,-1.86986 -0.004,-1.18651 -0.59292,-1.86547 -0.58116,-0.67899 -1.57724,-0.67526 z m 2.91965,-4.64718 0.005,1.34765 q -0.55762,-0.26159 -1.12943,-0.39861 -0.56449,-0.13705 -1.12112,-0.13497 -1.46483,0.005 -2.2375,0.99715 -0.76534,0.99164 -0.86772,2.99154 0.42974,-0.63882 1.08033,-0.97817 0.65057,-0.34667 1.43426,-0.3496 1.64793,-0.006 2.60382,0.99369 0.9632,0.99249 0.96964,2.71367 0.006,1.68456 -0.98599,2.70635 -0.99227,1.02177 -2.64753,1.02796 -1.89697,0.007 -2.9058,-1.43933 -1.00886,-1.45375 -1.01919,-4.21497 -0.01,-2.59275 1.21501,-4.13543 1.22469,-1.55 3.29742,-1.55775 0.55664,-0.002 1.121,0.10567 0.5717,0.10773 1.18776,0.32515 z M 204.82018,579.6752 q -0.99609,0.004 -1.57947,0.68707 -0.57606,0.68331 -0.57163,1.86982 0.004,1.17919 0.5856,1.86551 0.58848,0.67895 1.58456,0.67522 0.99609,-0.004 1.57215,-0.68703 0.58336,-0.69067 0.57895,-1.86986 -0.004,-1.18651 -0.59292,-1.86546 -0.58116,-0.679 -1.57724,-0.67527 z m 2.91965,-4.64718 0.005,1.34765 q -0.55763,-0.26159 -1.12943,-0.39861 -0.56448,-0.13705 -1.12112,-0.13497 -1.46483,0.005 -2.23749,0.99715 -0.76535,0.99164 -0.86773,2.99154 0.42975,-0.63882 1.08033,-0.97816 0.65057,-0.34668 1.43425,-0.34961 1.64794,-0.006 2.60384,0.99369 0.96319,0.99249 0.96962,2.71367 0.006,1.68456 -0.98597,2.70635 -0.99229,1.02178 -2.64754,1.02798 -1.89696,0.007 -2.9058,-1.43935 -1.00886,-1.45375 -1.01919,-4.21496 -0.01,-2.59276 1.21501,-4.13544 1.22468,-1.55 3.29742,-1.55775 0.55663,-0.002 1.12101,0.10567 0.5717,0.10773 1.18775,0.32515 z m 212.68799,0.92695 -0.0217,-5.80807 1.24511,-0.005 0.0167,4.4531 2.68064,-0.01 q -0.11106,-0.32186 -0.16354,-0.64394 -0.0598,-0.32204 -0.061,-0.6443 -0.007,-1.83104 0.99256,-2.90413 0.99941,-1.07307 2.71327,-1.07948 1.76512,-0.007 2.75067,1.08835 0.97822,1.09498 0.9857,3.09447 0.003,0.68848 -0.11192,1.40668 -0.11453,0.71089 -0.34606,1.47348 l -1.4868,0.006 q 0.35641,-0.66052 0.52956,-1.36429 0.17316,-0.70378 0.17023,-1.48747 -0.005,-1.26708 -0.67402,-2.00432 -0.66926,-0.73725 -1.81183,-0.73298 -1.14257,0.004 -1.8063,0.74651 -0.66374,0.74223 -0.659,2.00931 0.002,0.59325 0.13628,1.18602 0.13403,0.58544 0.41465,1.19963 z m 52.77471,-28.80704 4.4759,3.70141 -0.7935,0.95953 -3.43171,-2.83791 -1.70834,2.06579 q 0.31836,0.12072 0.59938,0.28658 0.2857,0.16022 0.53405,0.3656 1.41106,1.16689 1.59566,2.62163 0.18459,1.45473 -0.90763,2.77549 -1.12489,1.36026 -2.59699,1.41646 -1.46742,0.0505 -3.0083,-1.22371 -0.53057,-0.43876 -1.00902,-0.98649 -0.47282,-0.54306 -0.91045,-1.20911 l 0.94752,-1.14579 q 0.27927,0.69666 0.7091,1.2802 0.42983,0.58356 1.03376,1.08299 0.97646,0.8075 1.97127,0.7653 0.99483,-0.0422 1.72297,-0.9227 0.72815,-0.88051 0.58283,-1.86556 -0.14531,-0.98506 -1.12177,-1.79256 -0.45718,-0.37807 -0.99839,-0.65455 -0.53555,-0.27181 -1.18704,-0.44941 z m -114.09297,28.80194 -5.85133,-3.7135 0.014,3.73533 z m 1.2876,-0.393 0.007,1.86033 -7.12641,0.0267 0.006,1.56005 -1.23046,0.005 -0.006,-1.56005 -2.5781,0.01 -0.006,-1.47216 2.57811,-0.01 -0.0185,-4.93649 1.42821,-0.005 z m -52.33877,-26.65105 0.89295,6.87246 2.86068,-2.40194 z m -1.12619,-0.7376 1.42474,-1.19626 4.58253,5.45773 1.19475,-1.00316 0.79123,0.94234 -1.19475,1.00316 1.65781,1.97444 -1.12745,0.94665 -1.65781,-1.97444 -3.7806,3.17434 -0.91839,-1.09379 z M 572.95672,106.4871 q -1.06286,-0.22307 -1.6588,-0.93862 -0.60327,-0.71553 -0.60721,-1.77021 -0.006,-1.61864 1.10391,-2.50903 1.10996,-0.89038 3.16073,-0.89805 0.68846,-0.003 1.42141,0.13384 0.72557,0.12913 1.50295,0.39721 l 0.005,1.42822 q -0.61656,-0.35658 -1.34967,-0.53695 -0.7331,-0.18036 -1.53144,-0.17738 -1.39159,0.005 -2.11463,0.55723 -0.73036,0.55205 -0.72644,1.5994 0.004,0.9668 0.68679,1.50624 0.67588,0.54679 1.88437,0.54227 l 1.2744,-0.005 0.005,1.21581 -1.33301,0.005 q -1.09129,0.004 -1.66829,0.43838 -0.57696,0.44161 -0.57389,1.26191 0.003,0.84228 0.60541,1.28682 0.59495,0.45187 1.70822,0.44771 0.60791,-0.002 1.30321,-0.13672 0.6953,-0.13443 1.52921,-0.41587 l 0.005,1.31835 q -0.8414,0.23752 -1.57339,0.35745 -0.73929,0.11996 -1.39115,0.12239 -1.68456,0.006 -2.66887,-0.75907 -0.98429,-0.75804 -0.98917,-2.06174 -0.003,-0.9082 0.51427,-1.54002 0.51769,-0.6245 1.47625,-0.86979 z M 199.7105,192.78686 q -1.06285,-0.22308 -1.6588,-0.93862 -0.60326,-0.71553 -0.60721,-1.7702 -0.006,-1.61865 1.10391,-2.50904 1.10996,-0.89039 3.16072,-0.89806 0.68848,-0.003 1.42141,0.13385 0.72559,0.12912 1.50297,0.39721 l 0.005,1.42822 q -0.61658,-0.35659 -1.34968,-0.53696 -0.7331,-0.18036 -1.53143,-0.17737 -1.39159,0.005 -2.11463,0.55723 -0.73036,0.55205 -0.72645,1.59941 0.004,0.96678 0.68679,1.50622 0.67588,0.5468 1.88436,0.54228 l 1.27441,-0.005 0.005,1.21581 -1.333,0.005 q -1.0913,0.004 -1.66829,0.43837 -0.57697,0.44161 -0.57391,1.26193 0.003,0.84227 0.60541,1.2868 0.59496,0.45188 1.70823,0.44772 0.6079,-0.002 1.30321,-0.13672 0.6953,-0.13443 1.52922,-0.41587 l 0.005,1.31835 q -0.84141,0.23752 -1.57338,0.35745 -0.73931,0.11995 -1.39115,0.12239 -1.68456,0.006 -2.66888,-0.75907 -0.98428,-0.75805 -0.98916,-2.06175 -0.003,-0.90819 0.51426,-1.54001 0.51768,-0.6245 1.47625,-0.86979 z m 189.73011,-35.24214 -5.16353,0.0193 -0.005,-1.2451 6.94331,-0.026 0.005,1.24511 q -0.83903,0.87472 -2.28373,2.34498 -1.452,1.47761 -1.82395,1.90381 -0.70746,0.80099 -0.98372,1.35135 -0.28356,0.5577 -0.28156,1.09237 0.003,0.87157 0.62054,1.41858 0.60996,0.54704 1.5914,0.54337 0.6958,-0.003 1.47126,-0.24721 0.76813,-0.24457 1.6452,-0.73857 l 0.006,1.49412 q -0.89221,0.36223 -1.66789,0.54824 -0.77567,0.18601 -1.4202,0.18842 -1.69921,0.006 -2.71312,-0.83947 -1.01392,-0.84582 -1.01923,-2.26671 -0.003,-0.67383 0.25155,-1.28269 0.24677,-0.60151 0.91021,-1.42432 0.18231,-0.21308 1.15994,-1.2348 0.97765,-1.01442 2.75793,-2.84482 z m 112.46524,-16.32997 0.0193,5.16355 -1.24511,0.005 -0.026,-6.94331 1.24511,-0.005 q 0.87472,0.83901 2.34498,2.28372 1.47761,1.45201 1.9038,1.82394 0.80099,0.70746 1.35135,0.98373 0.55771,0.28356 1.09237,0.28156 0.87158,-0.003 1.41859,-0.62055 0.54703,-0.60996 0.54336,-1.59139 -0.003,-0.6958 -0.2472,-1.47126 -0.24457,-0.76813 -0.73858,-1.6452 l 1.49413,-0.006 q 0.36223,0.8922 0.54824,1.66788 0.186,0.77568 0.18841,1.4202 0.006,1.69921 -0.83946,2.71312 -0.84583,1.01391 -2.26672,1.01923 -0.67381,0.003 -1.28268,-0.25155 -0.60151,-0.24678 -1.42431,-0.91021 -0.21308,-0.18231 -1.23482,-1.15994 -1.0144,-0.97766 -2.8448,-2.75794 z m -152.60525,58.41166 0.009,2.41697 8.34224,-0.0312 -0.53717,-2.62741 1.34764,-0.005 0.53712,2.61276 0.006,1.47948 -9.68988,0.0362 0.009,2.41699 -1.2451,0.005 -0.0236,-6.29878 z m -37.46033,19.44118 -1.78779,-1.62654 -5.61403,6.17061 2.29978,1.37941 -0.90692,0.99683 -2.28895,-1.36956 -1.09435,-0.99564 6.52095,-7.16744 -1.7878,-1.62654 0.83792,-0.92098 4.65911,4.23886 z m 108.15601,-19.30035 q 0.004,1.14257 1.13434,1.71696 1.12274,0.5671 3.37859,0.55866 2.24851,-0.008 3.3743,-0.58391 1.11844,-0.5828 1.11416,-1.72537 -0.004,-1.1499 -1.12704,-1.71699 -1.13008,-0.57439 -3.3786,-0.56598 -2.25584,0.008 -3.37428,0.59124 -1.12578,0.5755 -1.12147,1.72539 z m -1.17188,0.004 q -0.007,-1.83837 1.44702,-2.81062 1.44655,-0.97953 4.21508,-0.98989 2.76121,-0.0103 4.22236,0.95834 1.45381,0.96137 1.46068,2.79973 0.007,1.83837 -1.43967,2.81791 -1.45389,0.97224 -4.2151,0.98257 -2.76853,0.0103 -4.22234,-0.95102 -1.46115,-0.96866 -1.46803,-2.80702 z m 53.70362,24.84572 q 0.83937,-0.77521 0.49916,-1.99639 -0.34062,-1.21083 -1.87116,-2.86804 -1.52557,-1.65183 -2.71053,-2.09282 -1.18537,-0.43066 -2.02473,0.34455 -0.84475,0.78018 -0.50412,1.99101 0.34021,1.22118 1.86578,2.873 1.53054,1.65721 2.71591,2.08787 1.18495,0.441 2.02969,-0.33918 z m 0.79509,0.86088 q -1.35052,1.2473 -3.04964,0.83251 -1.69953,-0.40443 -3.57792,-2.43828 -1.87343,-2.02847 -2.1467,-3.76011 -0.27369,-1.72129 1.07682,-2.96858 1.35052,-1.2473 3.05005,-0.84287 1.69913,0.41478 3.57255,2.44325 1.8784,2.03385 2.15208,3.75514 0.27328,1.73165 -1.07724,2.97894 z" />
    <path
       id="path12483"
       style="font-size:15px;font-family:'DejaVu Sans';-inkscape-font-specification:DejaVuSans"
       d="m 431.78961,696.33209 q -1.05469,0 -1.6626,0.56397 -0.60058,0.56396 -0.60058,1.55273 0,0.98877 0.60058,1.55274 0.60791,0.56396 1.6626,0.56396 1.05469,0 1.6626,-0.56396 0.60791,-0.57129 0.60791,-1.55274 0,-0.98877 -0.60791,-1.55273 -0.60059,-0.56397 -1.6626,-0.56397 z m -1.47949,-0.62988 q -0.95215,-0.23438 -1.48682,-0.88623 -0.52734,-0.65186 -0.52734,-1.58936 0,-1.31103 0.93018,-2.07275 0.9375,-0.76172 2.56347,-0.76172 1.6333,0 2.56348,0.76172 0.93017,0.76172 0.93017,2.07275 0,0.9375 -0.53466,1.58936 -0.52735,0.65185 -1.47217,0.88623 1.06933,0.24902 1.6626,0.97412 0.60058,0.7251 0.60058,1.77246 0,1.58936 -0.97412,2.43897 -0.9668,0.84961 -2.77588,0.84961 -1.80908,0 -2.7832,-0.84961 -0.9668,-0.84961 -0.9668,-2.43897 0,-1.04736 0.60059,-1.77246 0.60058,-0.7251 1.66992,-0.97412 z m -0.54199,-2.33643 q 0,0.84961 0.52734,1.32569 0.53467,0.47607 1.49414,0.47607 0.95215,0 1.48682,-0.47607 0.54199,-0.47608 0.54199,-1.32569 0,-0.84961 -0.54199,-1.32568 -0.53467,-0.47607 -1.48682,-0.47607 -0.95947,0 -1.49414,0.47607 -0.52734,0.47607 -0.52734,1.32568 z m -10.42624,6.91407 h 2.41699 v -8.34229 l -2.62939,0.52734 v -1.34765 l 2.61474,-0.52735 h 1.47949 v 9.68995 h 2.417 v 1.24511 h -6.29883 z m 3.65433,-69.71827 h -7.03125 v -0.62988 l 3.96972,-10.30517 h 1.54541 l -3.73535,9.68994 h 5.25147 z m 8.91012,-9.68994 h -2.41699 v 8.34229 l 2.62939,-0.52735 v 1.34766 l -2.61474,0.52734 h -1.47949 v -9.68994 h -2.417 v -1.24511 h 6.29883 z m -111.51364,4.81201 q 0.99609,0 1.58203,-0.68115 0.57861,-0.68115 0.57861,-1.86767 0,-1.1792 -0.57861,-1.86768 -0.58594,-0.68115 -1.58203,-0.68115 -0.99609,0 -1.57471,0.68115 -0.58593,0.68848 -0.58593,1.86768 0,1.18652 0.58593,1.86767 0.57862,0.68115 1.57471,0.68115 z m -2.93701,4.63624 v -1.34766 q 0.55664,0.26367 1.12793,0.40283 0.56396,0.13916 1.1206,0.13916 1.46485,0 2.24121,-0.98877 0.76905,-0.98877 0.87891,-2.98828 -0.43213,0.63721 -1.08398,0.97412 -0.65186,0.34424 -1.43555,0.34424 -1.64795,0 -2.6001,-1.00342 -0.95947,-0.99609 -0.95947,-2.71728 0,-1.68457 0.99609,-2.70264 0.9961,-1.01807 2.65137,-1.01807 1.89697,0 2.90039,1.4502 1.00342,1.45752 1.00342,4.21875 0,2.59277 -1.23047,4.13086 -1.23047,1.54541 -3.30322,1.54541 -0.55664,0 -1.12061,-0.10986 -0.57129,-0.10987 -1.18652,-0.32959 z m 15.56784,-9.44825 h -2.41699 v 8.34229 l 2.62939,-0.52735 v 1.34766 l -2.61474,0.52734 h -1.4795 v -9.68994 h -2.41699 v -1.24511 h 6.29883 z m -196.97807,74.75733 q 1.06201,0.22705 1.65527,0.94482 0.60059,0.71777 0.60059,1.77246 0,1.61865 -1.11329,2.50489 -1.11328,0.88623 -3.16406,0.88623 -0.68848,0 -1.4209,-0.13916 -0.72509,-0.13184 -1.50146,-0.40284 v -1.42822 q 0.61523,0.35889 1.34765,0.54199 0.73243,0.18311 1.53077,0.18311 1.3916,0 2.1167,-0.54932 0.73242,-0.54931 0.73242,-1.59668 0,-0.96679 -0.68116,-1.50879 -0.67382,-0.54931 -1.88232,-0.54931 h -1.27441 v -1.21582 h 1.333 q 1.09131,0 1.66993,-0.43213 0.57861,-0.43946 0.57861,-1.25977 0,-0.84228 -0.60059,-1.28906 -0.59326,-0.4541 -1.70654,-0.4541 -0.60791,0 -1.30371,0.13183 -0.6958,0.13184 -1.53076,0.41016 v -1.31836 q 0.84228,-0.23437 1.57471,-0.35156 0.73974,-0.11719 1.3916,-0.11719 1.68457,0 2.66601,0.76904 0.98145,0.76172 0.98145,2.06543 0,0.90821 -0.52002,1.53809 -0.52002,0.62256 -1.47949,0.86426 z m -13.76608,4.65088 h 2.41699 v -8.34229 l -2.62939,0.52734 v -1.34765 l 2.61474,-0.52735 h 1.4795 v 9.68995 h 2.41699 v 1.24511 h -6.29883 z m 1.80718,-79.40821 h -5.16358 v -1.24511 h 6.94336 v 1.24511 q -0.84228,0.87159 -2.29248,2.33643 -1.45752,1.47217 -1.83105,1.89697 -0.71045,0.79834 -0.98877,1.34766 -0.28565,0.55664 -0.28565,1.09131 0,0.87158 0.61524,1.42089 0.60791,0.54932 1.58935,0.54932 0.6958,0 1.47217,-0.2417 0.76904,-0.2417 1.64795,-0.73242 v 1.49414 q -0.89356,0.35889 -1.66992,0.54199 -0.77637,0.18311 -1.4209,0.18311 -1.69922,0 -2.70996,-0.84961 -1.01074,-0.84961 -1.01074,-2.27051 0,-0.67383 0.25634,-1.28174 0.24903,-0.60058 0.91553,-1.4209 0.18311,-0.2124 1.16455,-1.23046 0.98145,-1.01075 2.76856,-2.83448 z m 10.55806,0 h -2.41699 v 8.34229 l 2.6294,-0.52735 v 1.34766 l -2.61475,0.52734 h -1.47949 v -9.68994 h -2.417 v -1.24511 h 6.29883 z m 96.3154,79.40821 h 2.41699 v -8.34229 l -2.62939,0.52734 v -1.34765 l 2.61475,-0.52735 h 1.47949 v 9.68995 h 2.41699 v 1.24511 h -6.29883 z m -9.54001,0 h 2.417 v -8.34229 l -2.6294,0.52734 v -1.34765 l 2.61475,-0.52735 h 1.47949 v 9.68995 h 2.41699 v 1.24511 h -6.29883 z m 111.3032,-8.71582 q -1.14258,0 -1.7212,1.12793 -0.57128,1.1206 -0.57128,3.37646 0,2.24854 0.57128,3.37647 0.57862,1.1206 1.7212,1.1206 1.1499,0 1.72119,-1.1206 0.57861,-1.12793 0.57861,-3.37647 0,-2.25586 -0.57861,-3.37646 -0.57129,-1.12793 -1.72119,-1.12793 z m 0,-1.17188 q 1.83837,0 2.80517,1.45752 0.97412,1.4502 0.97412,4.21875 0,2.76123 -0.97412,4.21875 -0.9668,1.4502 -2.80517,1.4502 -1.83838,0 -2.8125,-1.4502 -0.9668,-1.45752 -0.9668,-4.21875 0,-2.76855 0.9668,-4.21875 0.97412,-1.45752 2.8125,-1.45752 z m -12.44773,9.8877 h 2.41699 v -8.34229 l -2.62939,0.52734 v -1.34765 l 2.61475,-0.52735 h 1.47949 v 9.68995 h 2.41699 v 1.24511 h -6.29883 z m -90.56299,-80.42627 v 1.34765 q -0.55664,-0.26367 -1.12793,-0.40283 -0.57128,-0.13916 -1.1206,-0.13916 -1.46485,0 -2.23389,0.98145 -0.77637,0.98877 -0.88623,2.9956 0.42481,-0.62988 1.07666,-0.9668 0.65186,-0.33691 1.44287,-0.33691 1.64063,0 2.6001,0.98877 0.95215,0.99609 0.95215,2.71729 0,1.68457 -0.99609,2.70263 -0.9961,1.01807 -2.65137,1.01807 -1.89697,0 -2.89307,-1.45752 -1.00342,-1.4502 -1.00342,-4.21875 0,-2.58545 1.23047,-4.13086 1.22315,-1.53809 3.2959,-1.53809 0.55664,0 1.12793,0.10987 0.57129,0.10986 1.18652,0.32959 z m -2.94433,4.63623 q -0.9961,0 -1.57471,0.68115 -0.58594,0.68115 -0.58594,1.86768 0,1.17919 0.58594,1.86035 0.57861,0.68847 1.57471,0.68847 0.99609,0 1.58203,-0.68847 0.57861,-0.68116 0.57861,-1.86035 0,-1.18653 -0.57861,-1.86768 -0.58594,-0.68115 -1.58203,-0.68115 z m 24.18864,-471.88959 0.001,-1.34766 q 0.55644,0.2641 1.12763,0.40369 0.57118,0.1396 1.12049,0.14002 1.46485,0.001 2.23464,-0.97974 0.77712,-0.98817 0.88851,-2.99493 -0.42528,0.62957 -1.07739,0.96598 -0.65212,0.33641 -1.44313,0.33581 -1.64063,-0.001 -2.59934,-0.99075 -0.95139,-0.99682 -0.95008,-2.71801 0.001,-1.68457 0.99816,-2.70188 0.99687,-1.0173 2.65214,-1.01604 1.89698,0.001 2.89196,1.45973 1.00231,1.45096 1.0002,4.21952 -0.002,2.58545 -1.23363,4.12992 -1.22432,1.53714 -3.29707,1.53556 -0.55664,-4.3e-4 -1.12785,-0.11072 -0.5712,-0.1103 -1.18627,-0.3305 z m 2.94787,-4.63398 q 0.9961,7.6e-4 1.57523,-0.67995 0.58646,-0.68071 0.58737,-1.86723 9e-4,-1.1792 -0.58452,-1.8608 -0.57808,-0.68892 -1.57418,-0.68968 -0.99609,-7.6e-4 -1.58256,0.68727 -0.57913,0.68071 -0.58003,1.85991 -9.1e-4,1.18652 0.57718,1.86812 0.58542,0.6816 1.58151,0.68236 z m -12.2747,3.60879 2.41699,0.002 0.006,-8.34227 -2.62979,0.52533 0.001,-1.34766 2.61514,-0.52534 1.4795,0.001 -0.007,9.68993 2.41699,0.002 -9.5e-4,1.24512 -6.29883,-0.005 z m 3.28912,-69.719304 -5.8081,-0.0044 9.5e-4,-1.245117 4.45312,0.0034 0.002,-2.680663 q -0.32235,0.109617 -0.64466,0.16064 -0.32231,0.05834 -0.64457,0.0581 -1.83106,-0.0014 -2.89962,-1.005633 -1.06858,-1.004234 -1.06727,-2.7181 0.001,-1.765137 1.10073,-2.745743 1.09938,-0.973282 3.09889,-0.971755 0.68848,5.26e-4 1.40616,0.118261 0.71036,0.11773 1.4719,0.352687 l -0.001,1.486816 q -0.65891,-0.35939 -1.3619,-0.535709 -0.70299,-0.176317 -1.48668,-0.176916 -1.26709,-9.67e-4 -2.00735,0.664972 -0.74026,0.665939 -0.74113,1.808516 -8.7e-4,1.142578 0.73837,1.809647 0.73924,0.667068 2.00633,0.668036 0.59326,4.53e-4 1.18662,-0.13093 0.58604,-0.131389 1.20148,-0.409239 z m 9.30569,-9.682839 -2.417,-0.0018 -0.006,8.342282 2.62981,-0.525336 -0.001,1.347656 -2.61515,0.525347 -1.47949,-0.0011 0.007,-9.689938 -2.41699,-0.0018 9.5e-4,-1.245118 6.29882,0.0048 z m 82.72407,71.073343 -3.73981,5.83455 3.73535,0.003 z m -0.3872,-1.28935 1.86035,10e-4 -0.005,7.12646 1.56006,0.001 -9.4e-4,1.23047 -1.56006,-0.001 -0.002,2.57813 -1.47216,-0.001 0.002,-2.57813 -4.93652,-0.004 10e-4,-1.42822 z m -12.96782,9.68004 2.417,0.002 0.006,-8.34227 -2.6298,0.52533 0.001,-1.34766 2.61515,-0.52534 1.47949,0.001 -0.007,9.68993 2.41699,0.002 -9.5e-4,1.24512 -6.29883,-0.005 z m 5.47832,-75.456715 q 1.05469,8.05e-4 1.66303,-0.562696 0.60101,-0.563505 0.60176,-1.552275 7.6e-4,-0.988768 -0.59939,-1.553192 -0.60748,-0.564429 -1.66217,-0.565234 -1.05469,-8.06e-4 -1.66303,0.562695 -0.60835,0.570825 -0.6091,1.55227 -7.5e-4,0.988769 0.60673,1.553197 0.60016,0.564424 1.66217,0.565235 z m 1.479,0.631012 q 0.95198,0.235102 1.48615,0.887366 0.52684,0.652258 0.52612,1.589757 -0.001,1.311035 -0.93175,2.072044 -0.93808,0.761002 -2.56406,0.759761 -1.6333,-0.0012 -2.5629,-0.763676 -0.92959,-0.762429 -0.92858,-2.073464 7.1e-4,-0.9375 0.53587,-1.588946 0.52785,-0.651453 1.47285,-0.885107 -1.06914,-0.249839 -1.66186,-0.97539 -0.60003,-0.725557 -0.59923,-1.772919 0.001,-1.589355 0.97599,-2.438221 0.96744,-0.84887 2.77652,-0.847489 1.80908,0.0014 2.78255,0.851734 0.96615,0.850348 0.96494,2.439703 -8e-4,1.047362 -0.60194,1.772002 -0.60114,0.724639 -1.67067,0.972845 z m 0.54021,2.336839 q 6.5e-4,-0.849608 -0.52633,-1.326086 -0.5343,-0.476482 -1.49377,-0.477215 -0.95215,-7.27e-4 -1.48719,0.474939 -0.54235,0.475661 -0.543,1.32527 -6.5e-4,0.849608 0.54098,1.326096 0.53431,0.476483 1.48646,0.47721 0.95947,7.33e-4 1.4945,-0.474934 0.5277,-0.475671 0.52835,-1.32528 z m 92.88048,62.874794 7.03125,0.005 -4.8e-4,0.62988 -3.9776,10.30214 -1.54541,-0.001 3.74275,-9.68708 -5.25146,-0.004 z m 37.2031,-31.16128 q -7.6e-4,0.99609 0.67994,1.58255 0.68072,0.57913 1.86724,0.58004 1.1792,9e-4 1.86811,-0.57718 0.68161,-0.58542 0.68237,-1.58151 7.6e-4,-0.9961 -0.67996,-1.57523 -0.68802,-0.58647 -1.86722,-0.58737 -1.18652,-9.1e-4 -1.86813,0.58451 -0.68159,0.57809 -0.68235,1.57419 z m -4.63399,-2.94056 1.34766,0.001 q -0.2641,0.55645 -0.4037,1.12762 -0.13959,0.56387 -0.14001,1.12051 -10e-4,1.46484 0.98705,2.24196 0.98819,0.7698 2.98761,0.88119 -0.63687,-0.43261 -0.97329,-1.08473 -0.34373,-0.65211 -0.34313,-1.4358 0.001,-1.64795 1.00539,-2.59933 0.99683,-0.95871 2.71802,-0.9574 1.68457,10e-4 2.70188,0.99815 1.0173,0.99687 1.01604,2.65215 -0.001,1.89697 -1.45241,2.89928 -1.45828,1.00231 -4.21951,1.0002 -2.59278,-0.002 -4.12992,-1.23362 -1.54447,-1.23165 -1.54289,-3.30441 4.3e-4,-0.55664 0.11072,-1.12052 0.11029,-0.5712 0.33049,-1.18628 z m -28.31905,-25.924952 -5.80809,-0.0044 9.5e-4,-1.245116 4.45312,0.0034 0.002,-2.680663 q -0.32234,0.109617 -0.64465,0.160641 -0.32231,0.05834 -0.64458,0.0581 -1.83104,-0.0014 -2.89962,-1.005632 -1.06857,-1.004234 -1.06726,-2.718101 0.001,-1.765135 1.10073,-2.745742 1.09938,-0.973282 3.09889,-0.971755 0.68848,5.26e-4 1.40616,0.118262 0.71036,0.117729 1.4719,0.352686 l -10e-4,1.486816 q -0.6589,-0.35939 -1.3619,-0.535708 -0.70298,-0.176319 -1.48667,-0.176917 -1.26709,-9.68e-4 -2.00735,0.664971 -0.74025,0.665939 -0.74112,1.808517 -8.8e-4,1.142578 0.73836,1.809646 0.73924,0.667069 2.00633,0.668036 0.59326,4.53e-4 1.18662,-0.130929 0.58604,-0.131389 1.20148,-0.409239 z m -255.47275,-1.481542 3.73981,-5.83455 -3.73535,-0.0029 z m 0.3872,1.289358 -1.86035,-0.0014 0.005,-7.126463 -1.56006,-0.0012 9.4e-4,-1.230468 1.56006,0.0012 0.002,-2.578124 1.47217,0.0011 -0.002,2.578125 4.93652,0.0038 -0.001,1.428222 z m 3.73222,65.070046 q 1.06183,0.22786 1.65454,0.94609 0.60004,0.71823 0.59924,1.77292 -0.001,1.61865 -1.11519,2.50402 -1.11397,0.88538 -3.16475,0.88382 -0.68847,-5.3e-4 -1.42079,-0.14025 -0.72499,-0.13238 -1.50115,-0.40397 l 0.001,-1.42822 q 0.61495,0.35936 1.34724,0.54302 0.73228,0.18367 1.53062,0.18428 1.3916,0.001 2.11712,-0.54771 0.73284,-0.54876 0.73364,-1.59612 7.4e-4,-0.9668 -0.68,-1.50931 -0.67341,-0.54983 -1.88191,-0.55076 l -1.27441,-9.7e-4 9.3e-4,-1.21582 1.33301,0.001 q 1.0913,8.3e-4 1.67025,-0.43085 0.57895,-0.43901 0.57957,-1.25932 6.5e-4,-0.84229 -0.5996,-1.28952 -0.59292,-0.45455 -1.7062,-0.4554 -0.60791,-4.7e-4 -1.30381,0.13083 -0.6959,0.13131 -1.53107,0.40899 l 0.001,-1.31836 q 0.84246,-0.23374 1.57498,-0.35036 0.73982,-0.11662 1.39168,-0.11612 1.68457,0.001 2.66543,0.77107 0.98086,0.76247 0.97987,2.06618 -6.9e-4,0.9082 -0.5212,1.53769 -0.52049,0.62217 -1.48014,0.86313 z m -83.904325,-74.823245 -5.163574,-0.0039 9.51e-4,-1.245118 6.943358,0.0053 -9.51e-4,1.245118 q -0.84295,0.870938 -2.294264,2.334674 -1.458643,1.471054 -1.832502,1.895574 -0.71106,0.797797 -0.989799,1.346901 -0.286069,0.556422 -0.286477,1.09109 -6.66e-4,0.871582 0.614149,1.421367 0.60749,0.549781 1.588935,0.550531 0.6958,5.31e-4 1.472352,-0.240575 0.769227,-0.241113 1.648509,-0.731163 l -0.0011,1.494139 q -0.893829,0.358205 -1.670336,0.540718 -0.776506,0.182512 -1.421038,0.18202 -1.699218,-0.0013 -2.709312,-0.851678 -1.010093,-0.850382 -1.009008,-2.271279 5.15e-4,-0.673828 0.257327,-1.281542 0.249482,-0.600396 0.916612,-1.4202 0.183268,-0.212262 1.16549,-1.229579 0.982216,-1.009992 2.770719,-2.832357 z m -34.669979,38.283725 -0.0018,2.41699 8.342283,0.006 -0.525336,-2.6298 1.347656,0.001 0.525347,2.61515 -0.0011,1.47948 -9.689938,-0.007 -0.0018,2.41699 -1.245117,-9.5e-4 0.0048,-6.29882 z m 35.009576,32.41137 q -1.142577,-8.7e-4 -1.722052,1.12662 -0.572145,1.12017 -0.573868,3.37603 -0.0017,2.24853 0.568712,3.37689 0.577757,1.12106 1.720334,1.12193 1.149902,8.8e-4 1.722047,-1.1193 0.579475,-1.12749 0.581192,-3.37601 0.0017,-2.25586 -0.576036,-3.37692 -0.570427,-1.12836 -1.720329,-1.12924 z m 8.95e-4,-1.17187 q 1.838379,0.001 2.804062,1.45966 0.973014,1.45094 0.970899,4.2195 -0.0021,2.76122 -0.977342,4.218 -0.967904,1.44945 -2.806282,1.44805 -1.838379,-10e-4 -2.811392,-1.45234 -0.965684,-1.45826 -0.963575,-4.21949 0.0021,-2.76856 0.970018,-4.21801 0.975234,-1.45677 2.813612,-1.45537 z m 538.337963,152.7362 1.34765,-0.005 q -0.26159,0.55762 -0.39861,1.12942 -0.13703,0.57181 -0.13497,1.12113 0.005,1.46483 0.9898,2.23019 0.99166,0.77267 2.99889,0.87502 -0.63146,-0.42244 -0.97082,-1.07304 -0.33935,-0.65058 -0.3423,-1.4416 -0.006,-1.6406 0.97903,-2.60378 0.99253,-0.95585 2.71371,-0.96229 1.68456,-0.006 2.70634,0.98597 1.02179,0.99228 1.02798,2.64755 0.007,1.89695 -1.44669,2.89849 -1.44644,1.00884 -4.21497,1.01919 -2.58543,0.01 -4.13543,-1.21501 -1.54265,-1.21738 -1.55041,-3.29013 -0.002,-0.55663 0.10565,-1.12833 0.10773,-0.57169 0.32515,-1.18774 z m 4.64721,2.92698 q 0.004,0.99608 0.68704,1.57214 0.68334,0.58339 1.86986,0.57895 1.17918,-0.004 1.85814,-0.5929 0.6863,-0.58118 0.68258,-1.57726 -0.004,-0.99609 -0.69438,-1.57944 -0.68332,-0.57607 -1.8625,-0.57166 -1.18653,0.004 -1.86551,0.5856 -0.67895,0.58847 -0.67523,1.58457 z m -3.66404,-12.25831 0.009,2.41699 8.34223,-0.0312 -0.53718,-2.62741 1.34765,-0.005 0.53712,2.61276 0.006,1.47948 -9.68987,0.0362 0.009,2.41697 -1.2451,0.005 -0.0236,-6.29879 z M 142.74224,462.50224 q 0.004,1.05467 0.57018,1.66047 0.56621,0.59847 1.55497,0.59477 0.98876,-0.004 1.55048,-0.60638 0.56168,-0.61003 0.55774,-1.6647 -0.004,-1.05468 -0.57017,-1.66048 -0.57356,-0.60577 -1.55501,-0.6021 -0.98876,0.004 -1.55044,0.61372 -0.56172,0.60269 -0.55775,1.6647 z m -0.62434,1.48183 q -0.23081,0.95302 -0.88067,1.49013 -0.64987,0.52977 -1.58736,0.53328 -1.31103,0.005 -2.07623,-0.92243 -0.76522,-0.93464 -0.7713,-2.5606 -0.006,-1.63329 0.75213,-2.56631 0.75823,-0.93301 2.06926,-0.93792 0.9375,-0.003 1.59134,0.52872 0.65383,0.52491 0.89173,1.46884 0.24502,-1.07025 0.9679,-1.66623 0.72285,-0.60329 1.7702,-0.6072 1.58935,-0.006 2.4426,0.96499 0.85322,0.96361 0.85998,2.77268 0.007,1.80907 -0.83919,2.78636 -0.84599,0.96997 -2.43534,0.97591 -1.04735,0.004 -1.77469,-0.59395 -0.72735,-0.59787 -0.98036,-1.66627 z m -2.33438,0.55073 q 0.84959,-0.003 1.3237,-0.5323 0.47407,-0.53645 0.47048,-1.49591 -0.004,-0.95214 -0.48163,-1.48503 -0.4781,-0.5402 -1.3277,-0.53703 -0.8496,0.003 -1.32365,0.54695 -0.47407,0.53645 -0.47051,1.48859 0.004,0.95946 0.48166,1.49235 0.47805,0.52555 1.32765,0.52238 z m 6.95301,10.4003 -0.009,-2.41697 -8.34223,0.0312 0.53718,2.6274 -1.34765,0.005 -0.53712,-2.61275 -0.006,-1.47949 9.68987,-0.0362 -0.009,-2.41697 1.24511,-0.005 0.0236,6.29879 z m 496.26945,-5.51058 0.0263,7.0312 -0.62988,0.002 -10.31995,-3.93116 -0.006,-1.5454 9.70384,3.69909 -0.0196,-5.25143 z m -9.7232,-8.87381 0.009,2.41697 8.34222,-0.0312 -0.53717,-2.62741 1.34764,-0.005 0.53713,2.61276 0.006,1.47948 -9.68987,0.0362 0.009,2.41697 -1.24511,0.005 -0.0236,-6.29878 z m -50.44696,-46.43006 q -0.99609,0.004 -1.57947,0.68706 -0.57607,0.68331 -0.57163,1.86983 0.004,1.17919 0.5856,1.8655 0.58848,0.67895 1.58457,0.67523 0.99608,-0.004 1.57214,-0.68704 0.58336,-0.69067 0.57895,-1.86985 -0.004,-1.18652 -0.59292,-1.86547 -0.58115,-0.67898 -1.57724,-0.67526 z m 2.91965,-4.64718 0.005,1.34764 q -0.55762,-0.26159 -1.12943,-0.39861 -0.56447,-0.13705 -1.12112,-0.13497 -1.46483,0.005 -2.2375,0.99715 -0.76533,0.99164 -0.86771,2.99155 0.42974,-0.63883 1.08033,-0.97817 0.65056,-0.34668 1.43425,-0.34961 1.64794,-0.006 2.60383,0.99369 0.96319,0.99249 0.96963,2.71368 0.006,1.68456 -0.98598,2.70634 -0.99228,1.02179 -2.64754,1.02798 -1.89696,0.007 -2.90579,-1.43934 -1.00887,-1.45376 -1.01919,-4.21497 -0.01,-2.59275 1.21501,-4.13544 1.22468,-1.55 3.29741,-1.55775 0.55664,-0.002 1.12102,0.10568 0.57169,0.10772 1.18774,0.32515 z m -15.53242,9.5064 2.41697,-0.009 -0.0312,-8.34223 -2.6274,0.53718 -0.005,-1.34765 2.61275,-0.53712 1.47948,-0.006 0.0362,9.68987 2.41698,-0.009 0.005,1.24511 -6.29879,0.0236 z m -433.86764,-128.90606 -0.0217,-5.80807 1.2451,-0.005 0.0167,4.4531 2.68065,-0.01 q -0.11107,-0.32185 -0.16355,-0.64393 -0.0598,-0.32204 -0.061,-0.64431 -0.007,-1.83103 0.99257,-2.90412 0.99941,-1.07307 2.71326,-1.07948 1.76513,-0.007 2.75068,1.08835 0.97822,1.09498 0.9857,3.09447 0.003,0.68848 -0.11193,1.40668 -0.11453,0.71088 -0.34605,1.47347 l -1.48681,0.006 q 0.35642,-0.66052 0.52957,-1.36429 0.17315,-0.70379 0.17022,-1.48747 -0.005,-1.26708 -0.674,-2.00433 -0.66928,-0.73725 -1.81185,-0.73297 -1.14256,0.004 -1.8063,0.74651 -0.66373,0.74222 -0.65899,2.00931 0.002,0.59325 0.13627,1.18601 0.13403,0.58545 0.41465,1.19964 z m 9.72465,9.262 -0.009,-2.41698 -8.34224,0.0312 0.53718,2.62741 -1.34765,0.005 -0.53711,-2.61276 -0.006,-1.47948 9.68988,-0.0362 -0.009,-2.41698 1.24511,-0.005 0.0236,6.29878 z m 436.81527,-47.28249 -3.71349,5.85133 3.73532,-0.014 z m -0.39301,-1.2876 1.86035,-0.007 0.0267,7.12641 1.56004,-0.006 0.005,1.23047 -1.56004,0.006 0.01,2.5781 -1.47216,0.006 -0.01,-2.5781 -4.93649,0.0185 -0.005,-1.42821 z m -12.92405,9.73834 2.41697,-0.009 -0.0312,-8.34223 -2.62741,0.53718 -0.005,-1.34765 2.61276,-0.53712 1.47948,-0.006 0.0362,9.68987 2.41698,-0.009 0.005,1.2451 -6.29877,0.0236 z M 195.91685,521.08114 q -1.06285,-0.22307 -1.65879,-0.93862 -0.60327,-0.71553 -0.60721,-1.7702 -0.006,-1.61865 1.10391,-2.50904 1.10996,-0.89038 3.16072,-0.89805 0.68847,-0.003 1.42141,0.13384 0.72558,0.12913 1.50296,0.39722 l 0.005,1.42821 q -0.61657,-0.35658 -1.34967,-0.53694 -0.73311,-0.18037 -1.53144,-0.17739 -1.39159,0.005 -2.11463,0.55724 -0.73036,0.55204 -0.72644,1.5994 0.004,0.96679 0.68678,1.50624 0.67588,0.54678 1.88438,0.54226 l 1.2744,-0.005 0.005,1.21581 -1.33299,0.005 q -1.0913,0.004 -1.6683,0.43838 -0.57696,0.44161 -0.57389,1.26192 0.003,0.84227 0.6054,1.28681 0.59496,0.45187 1.70823,0.44771 0.60791,-0.002 1.30321,-0.13672 0.6953,-0.13443 1.52921,-0.41587 l 0.005,1.31835 q -0.84139,0.23752 -1.57338,0.35745 -0.7393,0.11996 -1.39115,0.12239 -1.68456,0.006 -2.66887,-0.75906 -0.98429,-0.75804 -0.98917,-2.06174 -0.003,-0.90821 0.51427,-1.54003 0.51768,-0.6245 1.47624,-0.86979 z m 13.74858,-4.70233 -2.41697,0.009 0.0312,8.34223 2.6274,-0.53718 0.005,1.34765 -2.61275,0.53712 -1.47948,0.006 -0.0362,-9.68987 -2.41698,0.009 -0.005,-1.2451 6.29879,-0.0236 z m 362.85567,-1.35613 -5.16354,0.0193 -0.005,-1.24511 6.94331,-0.026 0.005,1.24511 q -0.83903,0.87473 -2.28373,2.34499 -1.452,1.4776 -1.82395,1.90381 -0.70746,0.80099 -0.98372,1.35134 -0.28356,0.5577 -0.28156,1.09237 0.003,0.87157 0.62054,1.41858 0.60996,0.54705 1.5914,0.54338 0.6958,-0.003 1.47126,-0.24721 0.76813,-0.24457 1.64519,-0.73858 l 0.006,1.49413 q -0.89221,0.36222 -1.66789,0.54824 -0.77567,0.186 -1.4202,0.18841 -1.6992,0.006 -2.71312,-0.83946 -1.01391,-0.84582 -1.01922,-2.26671 -0.003,-0.67383 0.25155,-1.28269 0.24677,-0.60152 0.91021,-1.42432 0.1823,-0.21308 1.15994,-1.23481 0.97765,-1.01441 2.75793,-2.84481 z m 10.55797,-0.0395 -2.41698,0.009 0.0312,8.34222 2.62741,-0.53717 0.005,1.34765 -2.61276,0.53712 -1.47948,0.006 -0.0362,-9.68987 -2.41697,0.009 -0.005,-1.24511 6.29879,-0.0236 z m -323.32362,-43.44069 0.009,2.41697 8.34223,-0.0312 -0.53718,-2.6274 1.34765,-0.005 0.53712,2.61276 0.006,1.47948 -9.68987,0.0362 0.009,2.41697 -1.24511,0.005 -0.0236,-6.29878 z m -0.0357,-9.53991 0.009,2.41698 8.34223,-0.0312 -0.53718,-2.62741 1.34765,-0.005 0.53712,2.61276 0.006,1.47948 -9.68987,0.0362 0.009,2.41697 -1.24511,0.005 -0.0236,-6.29879 z M 209.1033,411.61517 q -1.14257,0.004 -1.71696,1.13435 -0.5671,1.12273 -0.55866,3.37858 0.008,2.24852 0.58391,3.37431 0.5828,1.11843 1.72537,1.11415 1.14991,-0.004 1.71699,-1.12703 0.5744,-1.13008 0.56599,-3.37861 -0.008,-2.25584 -0.59125,-3.37427 -0.57549,-1.12579 -1.72539,-1.12148 z m -0.004,-1.17188 q 1.83837,-0.007 2.81062,1.44702 0.97953,1.44655 0.98989,4.21508 0.0103,2.76121 -0.95834,4.22236 -0.96137,1.45381 -2.79973,1.46068 -1.83837,0.007 -2.81791,-1.43967 -0.97223,-1.45389 -0.98256,-4.2151 -0.0103,-2.76853 0.95101,-4.22234 0.96866,-1.46115 2.80702,-1.46803 z m -12.41103,9.93419 2.41699,-0.009 -0.0312,-8.34223 -2.6274,0.53718 -0.005,-1.34765 2.61275,-0.53712 1.47948,-0.006 0.0362,9.68987 2.41697,-0.009 0.005,1.24511 -6.29879,0.0236 z m 324.61417,48.93462 -1.34765,0.005 q 0.26158,-0.55762 0.3986,-1.12942 0.13703,-0.5718 0.13497,-1.12112 -0.005,-1.46483 -0.98979,-2.2302 -0.99166,-0.77266 -2.9989,-0.87502 0.63148,0.42245 0.97082,1.07304 0.33935,0.65059 0.3423,1.44159 0.006,1.64062 -0.97903,2.60378 -0.99253,0.95587 -2.7137,0.96231 -1.68456,0.006 -2.70635,-0.98597 -1.02178,-0.99229 -1.02797,-2.64755 -0.007,-1.89695 1.44669,-2.8985 1.44643,-1.00884 4.21497,-1.01919 2.58543,-0.01 4.13543,1.21501 1.54265,1.21739 1.5504,3.29013 0.002,0.55663 -0.10564,1.12833 -0.10774,0.5717 -0.32515,1.18774 z m -4.64721,-2.92697 q -0.004,-0.99608 -0.68704,-1.57215 -0.68334,-0.58339 -1.86986,-0.57895 -1.17919,0.004 -1.85814,0.5929 -0.68631,0.58119 -0.68259,1.57727 0.004,0.99608 0.69439,1.57944 0.68331,0.57606 1.86251,0.57165 1.18651,-0.004 1.8655,-0.58559 0.67895,-0.58848 0.67523,-1.58457 z M 203.4607,257.92547 q -1.05468,0.004 -1.66047,0.57019 -0.59848,0.5662 -0.59478,1.55496 0.004,0.98877 0.60639,1.55048 0.61002,0.56169 1.66469,0.55774 1.05468,-0.004 1.66048,-0.57018 0.60577,-0.57355 0.6021,-1.55499 -0.004,-0.98877 -0.61372,-1.55045 -0.60268,-0.56172 -1.66469,-0.55775 z m -1.48184,-0.62434 q -0.95302,-0.23082 -1.49011,-0.88066 -0.52979,-0.64988 -0.53329,-1.58738 -0.005,-1.31102 0.92242,-2.07621 0.93464,-0.76522 2.5606,-0.7713 1.63329,-0.006 2.56631,0.75212 0.93302,0.75824 0.93793,2.06926 0.004,0.93749 -0.52873,1.59135 -0.5249,0.65382 -1.46884,0.89173 1.07026,0.24502 1.66623,0.96789 0.60329,0.72285 0.60721,1.7702 0.006,1.58935 -0.96499,2.4426 -0.96361,0.85321 -2.77269,0.85998 -1.80907,0.007 -2.78636,-0.83919 -0.96997,-0.84599 -0.97591,-2.43534 -0.004,-1.04735 0.59396,-1.77469 0.59787,-0.72734 1.66626,-0.98036 z m -0.55072,-2.33438 q 0.003,0.8496 0.53229,1.3237 0.53645,0.47407 1.49591,0.47048 0.95214,-0.004 1.48503,-0.48163 0.54021,-0.4781 0.53703,-1.3277 -0.003,-0.84961 -0.54695,-1.32365 -0.53644,-0.47407 -1.48859,-0.47051 -0.95946,0.004 -1.49235,0.48166 -0.52555,0.47804 -0.52237,1.32765 z m 308.56072,53.23741 -0.0263,-7.0312 0.62988,-0.002 10.31995,3.93115 0.006,1.5454 -9.70384,-3.69908 0.0196,5.25143 z M 761.37409,192.98989 q 0.99609,-0.004 1.57947,-0.68707 0.57607,-0.6833 0.57163,-1.86983 -0.004,-1.17919 -0.5856,-1.86549 -0.58847,-0.67896 -1.58457,-0.67524 -0.99608,0.004 -1.57214,0.68705 -0.58336,0.69065 -0.57895,1.86985 0.004,1.18652 0.59292,1.86547 0.58116,0.67898 1.57724,0.67526 z m -2.91965,4.64718 -0.005,-1.34765 q 0.55762,0.26159 1.12943,0.39862 0.56448,0.13705 1.12112,0.13497 1.46483,-0.005 2.2375,-0.99715 0.76533,-0.99164 0.86771,-2.99155 -0.42974,0.63882 -1.08033,0.97817 -0.65056,0.34668 -1.43425,0.34961 -1.64794,0.006 -2.60383,-0.99369 -0.96319,-0.99251 -0.96963,-2.71368 -0.006,-1.68456 0.98599,-2.70634 0.99227,-1.02179 2.64753,-1.02798 1.89697,-0.007 2.90579,1.43933 1.00887,1.45376 1.01919,4.21497 0.01,2.59276 -1.21501,4.13543 -1.22468,1.55001 -3.29741,1.55776 -0.55664,0.002 -1.12102,-0.10567 -0.57168,-0.10772 -1.18774,-0.32515 z m -489.63096,107.26525 0.0217,5.80806 -1.24511,0.005 -0.0166,-4.45308 -2.68065,0.01 q 0.11107,0.32186 0.16355,0.64392 0.0598,0.32205 0.061,0.64431 0.007,1.83105 -0.99257,2.90412 -0.99941,1.07309 -2.71326,1.0795 -1.76513,0.007 -2.75068,-1.08835 -0.97822,-1.09499 -0.9857,-3.09449 -0.003,-0.68847 0.11193,-1.40667 0.11453,-0.71089 0.34605,-1.47348 l 1.48681,-0.006 q -0.35642,0.66052 -0.52957,1.3643 -0.17315,0.70377 -0.17022,1.48746 0.005,1.26708 0.674,2.00433 0.66928,0.73725 1.81185,0.73298 1.14256,-0.004 1.8063,-0.74651 0.66373,-0.74224 0.65899,-2.00932 -0.002,-0.59326 -0.13627,-1.18602 -0.13403,-0.58544 -0.41465,-1.19963 z m -163.55346,5.5385 -3.71349,5.85133 3.73532,-0.014 z m -0.39301,-1.28761 1.86035,-0.007 0.0267,7.12642 1.56004,-0.006 0.005,1.23046 -1.56003,0.006 0.01,2.5781 -1.47216,0.006 -0.01,-2.57811 -4.9365,0.0185 -0.005,-1.42821 z m 572.87307,2.89476 q 1.06285,0.22308 1.65879,0.93862 0.60327,0.71553 0.60721,1.7702 0.006,1.61864 -1.1039,2.50904 -1.10997,0.89039 -3.16073,0.89806 -0.68847,0.003 -1.42141,-0.13385 -0.72558,-0.12912 -1.50296,-0.39722 l -0.005,-1.42821 q 0.61657,0.35659 1.34968,0.53695 0.73309,0.18037 1.53143,0.17738 1.39159,-0.005 2.11463,-0.55723 0.73036,-0.55205 0.72644,-1.59941 -0.004,-0.96678 -0.68679,-1.50623 -0.67587,-0.54679 -1.88437,-0.54227 l -1.2744,0.005 -0.005,-1.21581 1.333,-0.005 q 1.09129,-0.004 1.66829,-0.43837 0.57696,-0.44162 0.57389,-1.26193 -0.003,-0.84227 -0.6054,-1.2868 -0.59496,-0.45188 -1.70823,-0.44772 -0.60791,0.002 -1.30321,0.13671 -0.6953,0.13444 -1.52921,0.41588 l -0.005,-1.31835 q 0.84139,-0.23752 1.57338,-0.35745 0.7393,-0.11995 1.39115,-0.12239 1.68456,-0.006 2.66887,0.75906 0.98429,0.75805 0.98917,2.06175 0.003,0.9082 -0.51427,1.54002 -0.51768,0.6245 -1.47624,0.86979 z m -616.796152,-27.68176 0.01931,5.16354 -1.245108,0.005 -0.02597,-6.94332 1.245109,-0.005 q 0.874726,0.83901 2.344983,2.28372 1.477609,1.45201 1.903807,1.82395 0.800992,0.70746 1.351346,0.98372 0.557705,0.28356 1.092369,0.28157 0.871576,-0.003 1.418588,-0.62055 0.547038,-0.60997 0.543368,-1.5914 -0.0026,-0.69579 -0.247204,-1.47125 -0.244573,-0.76813 -0.73858,-1.6452 l 1.49413,-0.006 q 0.362226,0.89221 0.548234,1.66788 0.186008,0.77568 0.188418,1.42021 0.0064,1.6992 -0.839467,2.71311 -0.845823,1.01391 -2.266712,1.01923 -0.673823,0.003 -1.282688,-0.25155 -0.601513,-0.24678 -1.424313,-0.91021 -0.213085,-0.18231 -1.234815,-1.15993 -1.014407,-0.97767 -2.844808,-2.75794 z m 680.428712,-142.05828 -0.009,-2.41698 -8.34222,0.0312 0.53717,2.62741 -1.34764,0.005 -0.53713,-2.61276 -0.006,-1.47948 9.68987,-0.0362 -0.009,-2.41698 1.24511,-0.005 0.0236,6.29879 z m -32.41347,139.24125 q 0.004,1.14257 1.13436,1.71696 1.12274,0.56709 3.37858,0.55866 2.24852,-0.008 3.3743,-0.58392 1.11844,-0.5828 1.11417,-1.72537 -0.004,-1.14989 -1.12704,-1.71698 -1.13009,-0.57439 -3.3786,-0.56598 -2.25585,0.008 -3.37429,0.59123 -1.12578,0.57551 -1.12148,1.7254 z m -1.17186,0.004 q -0.007,-1.83837 1.44701,-2.8106 1.44654,-0.97954 4.21508,-0.98989 2.76121,-0.0103 4.22237,0.95833 1.45379,0.96136 1.46067,2.79973 0.007,1.83837 -1.43966,2.8179 -1.4539,0.97225 -4.21511,0.98258 -2.76854,0.0104 -4.22233,-0.95102 -1.46116,-0.96866 -1.46803,-2.80703 z" />
    <path
       id="path10870"
       style="fill:none;stroke:#ff0000;stroke-width:1;stroke-linecap:butt;stroke-linejoin:miter;stroke-miterlimit:10;stroke-dasharray:none;stroke-opacity:1"
       d="m 470.966,703.02472 h -90.559 m 90.559,-84.898 15,19.101 v 46.696 l -15,19.101 m -396.199,0 v -84.898 m 305.64,0 h 90.559 m -198.098,0 h 107.539 m -198.101,84.898 H 74.767 m 0,-84.898 h 107.539 m 90.562,84.898 h -90.562 m 198.101,0 H 272.868 m -90.562,-84.898 h 90.562 m 3.39155,-463.77949 -56.60071,-0.0416 m 0.0655,-84.902431 56.60065,0.04264 m 107.47623,84.983131 -107.54171,-0.0817 m 0.0655,-84.901436 107.53771,0.08151 m 84.83692,84.966936 -84.8984,-0.0653 m 84.95989,-84.836325 14.9886,19.115367 -0.0374,46.695538 -15.01269,19.09072 m -84.83692,-84.966936 84.89841,0.06531 m -339.59983,-0.257583 90.56306,0.06813 m -164.143195,-0.127422 73.580135,0.05929 m -73.645613,84.842111 0.06548,-84.901401 m 73.514873,84.956701 -16.56452,14.99081 -40.472082,-0.0334 -16.543751,-15.01269 m 164.143133,0.1284 -90.56278,-0.0731 m 615.18641,29.12233 -92.1422,0.34141 m 0,0 25.43057,2.85952 37.48311,34.10301 5.24162,25.04791 m -90.28602,73.91444 -15.04942,-12.67898 -0.11588,-31.12682 14.95224,-12.79382 m -480.50815,160.2791 15.07536,20.32136 0.18555,49.80632 -14.92223,20.43228 m 481.10212,-1.8004 -15.07643,-20.31738 -0.18449,-49.8103 14.92223,-20.43228 m 0,0 -24.13912,15.09239 -59.14805,0.21936 -24.25299,-14.90826 M 148.69437,264.8219 l 15.04942,12.67897 0.1158,31.13182 -14.95218,12.78983 m 480.88908,-58.40102 -24.13912,15.09239 -59.14705,0.21937 -24.25399,-14.90827 m -372.62931,250.43557 24.13912,-15.09239 59.14705,-0.21938 24.25399,14.90827 m 266.0218,-0.99341 24.13914,-15.09339 59.14804,-0.21936 24.25298,14.90926 m -373.56196,1.3969 -15.07643,-20.31738 -0.18449,-49.8103 14.92224,-20.43228 m 0,0 -24.13914,15.0934 -59.14805,0.21935 -24.25297,-14.90925 m 373.56195,-1.39691 15.07637,20.32138 0.18455,49.8063 -14.92223,20.43228 M 256.23453,264.4184 l -24.13912,15.0924 -59.14807,0.22035 -24.25297,-14.90925 m 373.56196,-1.39691 15.07278,19.04316 0.17621,46.69677 -14.9289,19.15901 m 197.49528,-162.7345 84.89892,-0.31909 m -548.41699,164.04699 -15.07277,-19.04416 -0.17221,-46.69671 14.92588,-19.15806 m 464.32413,51.34842 -0.48696,-130.17739 m -197.49528,162.7345 29.23306,-15.11003 71.59945,-0.2705 29.34389,14.89256 m 152.2178,-162.56562 0.48691,130.18038 m -679.08428,34.35352 29.23303,-15.10904 71.59939,-0.2665 29.34796,14.88863 m 464.33597,54.86405 -0.33094,-88.41456 m -67.80584,32.06914 24.89234,1.1167 37.47377,30.99346 5.77067,24.23526 m 84.56793,-88.73066 0.33095,88.41456 m -747.124933,2.7948 5.58751,-24.28086 37.243163,-31.26916 24.87903,-1.30582 m 22.53416,-28.38172 -20.32136,15.07536 -49.806319,0.18556 -20.432278,-14.92224 m 662.222057,-2.47876 -20.31738,15.07642 -49.81037,0.18849 -20.43221,-14.92623 M 58.347453,321.7612 43.285069,305.26053 43.134385,264.79196 58.069583,248.18138 M 743.96243,98.452886 l 15.07271,19.047164 0.17222,46.6967 -14.92489,19.15808 m -92.4583,-84.557468 92.13826,-0.344476 M 58.069583,248.18138 l 5.053308,-25.08649 37.229889,-34.38278 25.40785,-3.04359 m 594.53494,60.03816 0.27394,73.57576 m 85.21897,84.58284 0.46432,124.5193 m -747.124929,2.7948 -15.102373,-27.95977 -0.257176,-68.48885 14.895225,-28.07068 m 663.020313,210.45614 -0.33,-88.41154 m 0,0 -5.58744,24.27685 -37.24316,31.26917 -24.87903,1.30582 m 0,0 15.07276,19.04416 0.17223,46.6957 -14.9289,19.15901 m 152.62648,-53.6592 -84.90294,0.32003 m 84.56894,-88.73164 0.334,88.41161 M 127.26465,587.5248 102.37238,586.40409 64.901522,555.41568 59.127871,531.17938 m 373.896969,87.01372 -84.90294,0.32003 m 153.02082,52.51264 -15.07271,-19.04716 -0.17228,-46.69271 14.92888,-19.15801 m 153.13371,84.3275 -152.8176,0.57038 m -221.06045,-84.07235 -34.32796,15.12567 -84.05173,0.31362 -34.43793,-14.86791 m 305.42518,-57.74233 0.33501,88.41063 m 67.80177,-32.06521 -24.89128,-1.12069 -37.47083,-30.98941 -5.77467,-24.23532 m -84.56793,88.73066 -0.33,-88.41155 m 0,0 -5.58846,24.27784 -37.24214,31.26819 -24.87903,1.30581 M 499.00256,99.368674 651.82417,98.797362 m -526.06354,86.871158 34.32802,-15.12967 84.05073,-0.31364 34.43893,14.86793 m 67.80989,-30.13183 84.89888,-0.31609 m 68.03552,29.62539 -15.07271,-19.04716 -0.17222,-46.6967 14.92489,-19.158076 M 346.73362,247.10358 346.3882,154.96131 m -67.80989,30.13183 25.42957,2.85951 37.48411,34.10302 5.24163,25.04791 m 84.55346,-92.45836 0.34448,92.13825 m 0,0 5.05431,-25.08647 37.22887,-34.38179 25.40786,-3.0446" />
    <path
       id="path10872"
       style="fill:none;stroke:#00ff00;stroke-width:1;stroke-linecap:butt;stroke-linejoin:miter;stroke-miterlimit:10;stroke-dasharray:8, 2, 2, 2;stroke-dashoffset:0;stroke-opacity:1"
       d="m 380.407,618.12672 v 84.898 m 90.559,-84.898 v 84.898 m -288.66,0 v -84.898 m 90.562,0 v 84.898 m 3.45703,-633.578886 -0.0655,84.901396 m 107.60321,-84.819886 -0.0615,84.901626 m 84.95991,-84.836315 -0.0615,84.901625" />
  </g>
</svg>
