<?xml version="1.0" encoding="UTF-8" standalone="no"?>
<!-- Created with Inkscape (http://www.inkscape.org/) -->

<svg
   version="1.1"
   id="svg12847"
   width="1132"
   height="1132"
   viewBox="0 0 1132 1132"
   sodipodi:docname="7.svg"
   inkscape:version="1.2.2 (732a01da63, 2022-12-09, custom)"
   xmlns:inkscape="http://www.inkscape.org/namespaces/inkscape"
   xmlns:sodipodi="http://sodipodi.sourceforge.net/DTD/sodipodi-0.dtd"
   xmlns="http://www.w3.org/2000/svg"
   xmlns:svg="http://www.w3.org/2000/svg">
  <defs
     id="defs12851" />
  <sodipodi:namedview
     id="namedview12849"
     pagecolor="#ffffff"
     bordercolor="#666666"
     borderopacity="1.0"
     inkscape:showpageshadow="2"
     inkscape:pageopacity="0.0"
     inkscape:pagecheckerboard="0"
     inkscape:deskcolor="#d1d1d1"
     showgrid="false"
     showguides="true"
     inkscape:zoom="0.65989399"
     inkscape:cx="570.54618"
     inkscape:cy="566"
     inkscape:window-width="1920"
     inkscape:window-height="1009"
     inkscape:window-x="0"
     inkscape:window-y="0"
     inkscape:window-maximized="1"
     inkscape:current-layer="g12855">
    <inkscape:page
       x="0"
       y="0"
       id="page12853"
       width="1132"
       height="1132" />
  </sodipodi:namedview>
  <g
     id="g12855"
     inkscape:groupmode="layer"
     inkscape:label="Page 1"
     transform="matrix(1.3333333,0,0,1.3333333,0,2.83e-5)">
    <path
       id="path13814"
       style="font-size:15px;font-family:'DejaVu Sans';-inkscape-font-specification:DejaVuSans;fill:#0000ff"
       d="m 294.3426,628.17536 q -0.22711,1.06199 -0.94492,1.65521 -0.71781,0.60055 -1.7725,0.60049 -1.61865,-9e-5 -2.50481,-1.11342 -0.88617,-1.11333 -0.88605,-3.16411 4e-5,-0.68848 0.13924,-1.42089 0.13187,-0.72509 0.40291,-1.50145 l 1.42822,8e-5 q -0.35891,0.61522 -0.54206,1.34763 -0.18315,0.73241 -0.1832,1.53075 -8e-5,1.3916 0.5492,2.11673 0.54928,0.73245 1.59664,0.73251 0.9668,6e-5 1.50883,-0.68106 0.54936,-0.6738 0.54942,-1.88229 l 8e-5,-1.27442 1.21582,7e-5 -8e-5,1.33301 q -6e-5,1.09131 0.43204,1.66994 0.43941,0.57864 1.25972,0.57869 0.84229,4e-5 1.2891,-0.60051 0.45414,-0.59324 0.4542,-1.70652 4e-5,-0.60791 -0.13176,-1.30372 -0.1318,-0.69581 -0.41008,-1.53079 l 1.31836,8e-5 q 0.23434,0.8423 0.35148,1.57473 0.11714,0.73976 0.11711,1.39161 -1e-4,1.68457 -0.7692,2.66597 -0.76177,0.9814 -2.06548,0.98132 -0.9082,-5e-5 -1.53806,-0.5201 -0.62252,-0.52006 -0.86417,-1.47954 z m -53.43306,-46.55748 q 1.08524,-0.0408 1.83667,0.50917 0.75853,0.54822 1.01766,1.57057 0.3977,1.56904 -0.46372,2.70163 -0.86141,1.1326 -2.84933,1.63646 -0.66738,0.16916 -1.41154,0.21421 -0.73526,0.0504 -1.55441,-0.0216 l -0.35091,-1.38444 q 0.68455,0.19673 1.43951,0.19427 0.75496,-0.002 1.52883,-0.19861 1.34895,-0.3419 1.91685,-1.05254 0.57501,-0.71242 0.31768,-1.72769 -0.23754,-0.93715 -1.03098,-1.29518 -0.78813,-0.36692 -1.95958,-0.07 l -1.23535,0.31312 -0.29872,-1.17856 1.29214,-0.32751 q 1.05786,-0.26813 1.51257,-0.82917 0.4529,-0.56814 0.25135,-1.36332 -0.20694,-0.81646 -0.89889,-1.10199 -0.68664,-0.29442 -1.7658,-0.0209 -0.58928,0.14936 -1.23136,0.44811 -0.64208,0.29875 -1.38306,0.77368 l -0.32392,-1.27795 q 0.75889,-0.43413 1.44006,-0.72768 0.68828,-0.29535 1.32016,-0.4555 1.63293,-0.41389 2.77324,0.0904 1.13851,0.49723 1.45883,1.76098 0.22314,0.88037 -0.12618,1.61871 -0.35112,0.73124 -1.2218,1.20127 z m 128.19012,44.67129 2.9e-4,-5.16358 1.24512,7e-5 -3.9e-4,6.94336 -1.24512,-7e-5 q -0.87153,-0.84233 -2.33629,-2.29262 -1.47209,-1.4576 -1.89687,-1.83115 -0.7983,-0.7105 -1.3476,-0.98885 -0.55662,-0.28568 -1.09129,-0.28571 -0.87158,-5e-5 -1.42094,0.61516 -0.54934,0.60788 -0.5494,1.58932 -4e-5,0.69581 0.24161,1.47218 0.24165,0.76906 0.73233,1.64799 l -1.49414,-8e-5 q -0.35884,-0.89357 -0.5419,-1.66996 -0.18306,-0.77638 -0.18302,-1.42091 1e-4,-1.69922 0.84976,-2.70991 0.84967,-1.01069 2.27057,-1.01061 0.67382,4e-5 1.28172,0.25642 0.60057,0.24906 1.42084,0.91561 0.21239,0.18312 1.23041,1.16462 1.01068,0.9815 2.83431,2.76872 z m 49.48283,-39.68752 5.00516,1.26923 -0.30605,1.20691 -6.73034,-1.70671 0.30606,-1.20691 q 1.03068,-0.63781 2.79645,-1.70125 1.77467,-1.06874 2.24115,-1.38869 0.88489,-0.59921 1.2897,-1.06327 0.41371,-0.46934 0.54513,-0.98761 0.21424,-0.84484 -0.2471,-1.52853 -0.45423,-0.68189 -1.40556,-0.92313 -0.67445,-0.17103 -1.48642,-0.12758 -0.80485,0.0453 -1.77742,0.30487 l 0.36727,-1.4483 q 0.95436,-0.12823 1.75191,-0.11488 0.79756,0.0133 1.42231,0.17177 1.64709,0.41767 2.41798,1.48966 0.77089,1.07199 0.42163,2.4493 -0.16563,0.65315 -0.56353,1.1794 -0.38902,0.52094 -1.2367,1.15226 -0.22971,0.16088 -1.43128,0.90646 -1.19978,0.73849 -3.38035,2.067 z m -144.35856,-462.71914 -0.59384,-2.3429 -8.08657,2.04965 1.1572,2.41923 -1.30635,0.33111 -1.1536,-2.40503 -0.3635,-1.43415 9.39291,-2.38076 -0.59384,-2.3429 1.20696,-0.30592 1.54758,6.10575 z m 56.59248,41.87062 -2.417,-1.3e-4 -4.8e-4,8.34229 2.62943,-0.52719 -7e-5,1.34765 -2.61478,0.5272 -1.47949,-9e-5 5.5e-4,-9.68995 -2.41699,-1.4e-4 7e-5,-1.24511 6.29883,3.6e-4 z M 144.5227,123.34786 q 1.10756,-0.28073 1.39132,-1.51625 0.27845,-1.22661 -0.2758,-3.41332 -0.55246,-2.17962 -1.38336,-3.13261 -0.83621,-0.94409 -1.94377,-0.66336 -1.11465,0.28252 -1.3931,1.50914 -0.28375,1.23551 0.2687,3.41513 0.55426,2.18671 1.39046,3.1308 0.8309,0.95299 1.94555,0.67047 z m 0.28793,1.13596 q -1.78202,0.45168 -3.07729,-0.72363 -1.30057,-1.16641 -1.98079,-3.8501 -0.67841,-2.67659 -0.0923,-4.32877 0.58086,-1.64328 2.36288,-2.09496 1.78203,-0.45168 3.0826,0.71473 1.29527,1.17531 1.97368,3.8519 0.68022,2.68369 0.0994,4.32697 -0.58615,1.65218 -2.36818,2.10386 z m 346.7294,80.69407 q 1.10752,0.28085 1.94564,-0.67025 0.8292,-0.9458 1.3837,-3.13245 0.5527,-2.17955 0.2762,-3.4133 -0.28542,-1.22845 -1.39294,-1.5093 -1.11462,-0.28265 -1.94384,0.66315 -0.8381,0.9511 -1.3908,3.13065 -0.55451,2.18665 -0.2691,3.4151 0.27652,1.23375 1.39114,1.5164 z m -0.28806,1.13592 q -1.78196,-0.45188 -2.36084,-2.10233 -0.58777,-1.64514 0.0928,-4.32876 0.67872,-2.67651 1.98122,-3.84987 1.2936,-1.16806 3.07557,-0.71618 1.78198,0.45188 2.36974,2.09703 0.57888,1.65044 -0.0999,4.32696 -0.68052,2.68361 -1.97412,3.85167 -1.3025,1.17336 -3.08448,0.72148 z" />
    <path
       d="m 254.4629,674.08934 0.0409,84.89904"
       style="fill:none;stroke:#00ff00;stroke-width:1;stroke-linecap:butt;stroke-linejoin:miter;stroke-miterlimit:10;stroke-dasharray:8, 2, 2, 2;stroke-dashoffset:0;stroke-opacity:1"
       id="path13023" />
    <path
       id="path13871"
       style="font-size:15px;font-family:'DejaVu Sans';-inkscape-font-specification:DejaVuSans"
       d="m 575.65435,718.6758 -0.003,-7.03125 0.62988,-2.9e-4 10.30699,3.96503 7e-4,1.54541 -9.69165,-3.73094 0.002,5.25147 z M 420.0962,681.56935 q 0.99609,-4.5e-4 1.58172,-0.68187 0.5783,-0.68142 0.57776,-1.86794 -5.4e-4,-1.1792 -0.57946,-1.86742 -0.58625,-0.68088 -1.58234,-0.68043 -0.99609,4.5e-4 -1.5744,0.68187 -0.58563,0.68874 -0.58509,1.86794 5.4e-4,1.18652 0.58679,1.86742 0.57893,0.68088 1.57502,0.68043 z m -2.9349,4.63757 -6.1e-4,-1.34766 q 0.55676,0.26341 1.12811,0.40231 0.56403,0.13891 1.12067,0.13865 1.46485,-6.6e-4 2.24075,-0.98979 0.7686,-0.98911 0.87755,-2.98868 -0.43184,0.63741 -1.08353,0.97462 -0.65171,0.34453 -1.4354,0.34489 -1.64794,7.5e-4 -2.60055,-1.00223 -0.95992,-0.99566 -0.96071,-2.71685 -7.7e-4,-1.68457 0.99486,-2.70309 0.99564,-1.01852 2.65091,-1.01927 1.89697,-8.6e-4 2.90105,1.44887 1.00408,1.45706 1.00534,4.21829 0.001,2.59278 -1.22859,4.13142 -1.22977,1.54597 -3.30252,1.54692 -0.55664,2.5e-4 -1.12066,-0.10935 -0.57134,-0.1096 -1.18667,-0.32905 z m 2.21841,60.27081 5.8081,-0.003 5.6e-4,1.24512 -4.45311,0.002 0.001,2.68066 q 0.32221,-0.11001 0.64445,-0.16143 0.32224,-0.0587 0.64451,-0.0589 1.83105,-8.3e-4 2.90084,1.0021 1.06979,1.00293 1.07057,2.7168 8e-4,1.76513 -1.09738,2.74708 -1.09819,0.97462 -3.0977,0.97553 -0.68848,3.2e-4 -1.4063,-0.11655 -0.7105,-0.11685 -1.47233,-0.35089 l -6.8e-4,-1.48682 q 0.65935,0.35859 1.36255,0.53405 0.70321,0.17546 1.4869,0.17511 1.26709,-5.8e-4 2.00653,-0.66742 0.73944,-0.66683 0.73892,-1.80941 -5.2e-4,-1.14258 -0.74056,-1.80876 -0.74006,-0.66616 -2.00715,-0.66558 -0.59326,2.7e-4 -1.18646,0.13238 -0.58588,0.13209 -1.20098,0.41069 z M 182.034,685.26719 l 3.73269,-5.83911 -3.73535,0.002 z m 0.38877,1.28889 -1.86035,8.4e-4 -0.003,-7.12647 -1.56006,7.1e-4 -5.6e-4,-1.23047 1.56006,-7.1e-4 -0.001,-2.57812 1.47217,-6.7e-4 10e-4,2.57812 4.93652,-0.002 6.5e-4,1.42823 z m 3.81141,65.06685 q 1.06211,0.22657 1.65571,0.94408 0.6009,0.7175 0.60138,1.77219 7.4e-4,1.61865 -1.11214,2.50538 -1.11287,0.88674 -3.16365,0.88767 -0.68848,3.2e-4 -1.42097,-0.13851 -0.72516,-0.13151 -1.50164,-0.40215 l -6.5e-4,-1.42822 q 0.61539,0.3586 1.3479,0.54138 0.7325,0.18277 1.53084,0.1824 1.3916,-6.3e-4 2.11645,-0.55027 0.73217,-0.54965 0.73169,-1.59701 -4.4e-4,-0.9668 -0.68183,-1.50848 -0.67408,-0.54902 -1.88257,-0.54847 l -1.27442,5.8e-4 -5.6e-4,-1.21582 1.33301,-6e-4 q 1.09131,-5e-4 1.66973,-0.43289 0.57842,-0.43972 0.57804,-1.26003 -3.8e-4,-0.84229 -0.60117,-1.28879 -0.59347,-0.45383 -1.70675,-0.45332 -0.60791,2.7e-4 -1.30365,0.13243 -0.69574,0.13215 -1.53057,0.41085 l -6e-4,-1.31835 q 0.84217,-0.23477 1.57454,-0.35229 0.73969,-0.11752 1.39154,-0.11781 1.68457,-7.7e-4 2.66637,0.76782 0.98179,0.76127 0.98238,2.06498 4.2e-4,0.9082 -0.51931,1.53832 -0.51973,0.6228 -1.4791,0.86493 z m -112.296285,-74.70889 -5.163574,0.002 -5.67e-4,-1.24512 6.94336,-0.003 5.66e-4,1.24512 q -0.841889,0.87197 -2.291417,2.33748 -1.456849,1.47283 -1.830191,1.8978 -0.710086,0.79866 -0.988156,1.34811 -0.285391,0.55677 -0.285148,1.09144 3.97e-4,0.87158 0.615882,1.42061 0.60816,0.54904 1.589605,0.5486 0.695801,-3.2e-4 1.472058,-0.24237 0.768932,-0.24205 1.647615,-0.73317 l 6.8e-4,1.49414 q -0.89339,0.35929 -1.669675,0.54275 -0.776284,0.18346 -1.420815,0.18375 -1.699218,7.8e-4 -2.710347,-0.84837 -1.011129,-0.84915 -1.011775,-2.27005 -3.07e-4,-0.67383 0.255764,-1.28186 0.24875,-0.60069 0.91488,-1.42132 0.183009,-0.21248 1.163991,-1.231 0.980985,-1.01118 2.767264,-2.83573 z m -37.452001,38.32876 0.0011,2.41699 8.342284,-0.004 -0.528541,-2.62915 1.347656,-6.2e-4 0.528534,2.6145 6.73e-4,1.47949 -9.68994,0.004 0.0011,2.417 -1.245118,5.7e-4 -0.0029,-6.29883 z m 37.881182,32.36643 q -1.142578,5.2e-4 -1.720677,1.12872 -0.570779,1.12086 -0.569752,3.37671 0.001,2.24854 0.572826,3.3762 0.579123,1.12035 1.721701,1.11983 1.149902,-5.2e-4 1.720682,-1.12139 0.578099,-1.12819 0.577075,-3.37673 -0.001,-2.25586 -0.58015,-3.37619 -0.571803,-1.12767 -1.721705,-1.12715 z m -5.33e-4,-1.17188 q 1.838378,-8.4e-4 2.805839,1.45624 0.974781,1.44976 0.976041,4.21831 0.0013,2.76123 -0.9722,4.21919 -0.966137,1.45064 -2.804516,1.45148 -1.838378,8.4e-4 -2.813159,-1.44892 -0.967461,-1.45708 -0.968718,-4.21831 -0.0013,-2.76855 0.964876,-4.21919 0.973458,-1.45796 2.811837,-1.4588 z m 252.743707,-85.06946 7.03125,4e-4 -3e-5,0.62989 -3.97032,10.30494 -1.54541,-9e-5 3.7359,-9.68972 -5.25146,-3e-4 z M 202.74195,435.66675 q 0.009,-0.99605 -0.66675,-1.58816 -0.67587,-0.58477 -1.86234,-0.59555 -1.17915,-0.0107 -1.87286,0.56162 -0.68645,0.57972 -0.6955,1.57577 -0.009,0.99606 0.66682,1.58084 0.68313,0.59217 1.86228,0.60288 1.18647,0.0108 1.87292,-0.56895 0.68638,-0.57239 0.69543,-1.56845 z m 4.60936,2.97901 -1.34761,-0.0122 q 0.26872,-0.55422 0.41306,-1.12422 0.14428,-0.56267 0.14934,-1.11929 0.0133,-1.46478 -0.96836,-2.2501 -0.98174,-0.77799 -2.98018,-0.90602 0.63326,0.4379 0.96423,1.09279 0.33831,0.65495 0.33119,1.43861 -0.015,1.64788 -1.027,2.59088 -1.00477,0.95038 -2.72589,0.93474 -1.6845,-0.0153 -2.69348,-1.0206 -1.00897,-1.0053 -0.99393,-2.66051 0.0172,-1.8969 1.47648,-2.8871 1.46658,-0.99014 4.2277,-0.96505 2.59267,0.0236 4.11951,1.26795 1.53416,1.24446 1.51533,3.31714 -0.005,0.55661 -0.12004,1.11955 -0.11504,0.57027 -0.34035,1.18348 z m 243.85013,-2.17752 -0.0521,-5.80787 1.24507,-0.0112 0.0399,4.45295 2.68056,-0.024 q -0.11275,-0.32127 -0.16691,-0.64306 -0.0615,-0.32173 -0.0644,-0.64398 -0.0164,-1.83099 0.97736,-2.90928 0.99378,-1.0783 2.70757,-1.09367 1.76507,-0.0158 2.75633,1.07394 0.98395,1.08986 1.00189,3.08929 0.006,0.68844 -0.10457,1.40724 -0.11081,0.71148 -0.33834,1.47527 l -1.48676,0.0133 q 0.35296,-0.66238 0.52243,-1.36706 0.16946,-0.70466 0.16243,-1.48833 -0.0114,-1.26704 -0.68449,-2.00077 -0.67311,-0.73374 -1.81564,-0.72349 -1.14254,0.0102 -1.80237,0.75595 -0.65984,0.74569 -0.64847,2.01273 0.005,0.59324 0.14247,1.1853 0.13709,0.58472 0.42092,1.19744 z m -324.17588,-162.6735 -2.18664,6.57623 3.62086,-0.91776 z m -0.693,-1.15418 1.80333,-0.45708 1.75093,6.90803 1.51224,-0.3833 0.30232,1.19275 -1.51224,0.38329 0.63343,2.49911 -1.42704,0.3617 -0.63344,-2.4991 -4.7852,1.21287 -0.35091,-1.38444 z m 408.59728,5.83457 q 0.97362,0.48113 1.37225,1.32271 0.40573,0.84338 0.14648,1.86571 -0.39787,1.56899 -1.69483,2.15438 -1.29697,0.58539 -3.28483,0.0813 -0.66736,-0.16923 -1.3431,-0.48415 -0.67044,-0.30603 -1.35638,-0.75954 l 0.35107,-1.3844 q 0.50814,0.49909 1.17308,0.85662 0.66494,0.35751 1.43879,0.55375 1.3489,0.34206 2.18678,-0.0122 0.84497,-0.35243 1.10242,-1.36766 0.23764,-0.93713 -0.28939,-1.62993 -0.51813,-0.69809 -1.68954,-0.99514 l -1.23532,-0.31326 0.29885,-1.17852 1.29211,0.32766 q 1.05783,0.26825 1.72491,-0.008 0.66889,-0.28374 0.87052,-1.07888 0.20704,-0.81645 -0.2653,-1.39715 -0.46344,-0.58599 -1.54256,-0.85964 -0.58926,-0.14943 -1.29612,-0.19267 -0.70686,-0.0432 -1.58463,0.0213 l 0.32406,-1.27791 q 0.87406,-0.0202 1.61282,0.0463 0.74585,0.0682 1.3777,0.22847 1.63289,0.41408 2.3952,1.40077 0.76409,0.97959 0.44363,2.2433 -0.22324,0.88034 -0.88213,1.36307 -0.65708,0.47564 -1.64654,0.47408 z m -482.602328,-15.73541 1.268662,5.00531 -1.206951,0.30591 -1.705944,-6.73052 1.206951,-0.30592 q 1.051809,0.60232 2.828058,1.64816 1.785146,1.05114 2.288704,1.30885 0.948422,0.49252 1.549282,0.62735 0.609761,0.14013 1.12804,0.009 0.844866,-0.21415 1.226183,-0.94549 0.383119,-0.72424 0.141984,-1.6756 -0.170954,-0.67447 -0.595994,-1.36766 -0.423239,-0.68608 -1.114863,-1.41748 l 1.448341,-0.3671 q 0.567426,0.77798 0.935669,1.48556 0.368242,0.70759 0.5266,1.33236 0.417488,1.64714 -0.157745,2.83564 -0.575234,1.1885 -1.952578,1.53761 -0.653174,0.16555 -1.305431,0.0664 -0.643362,-0.0938 -1.602285,-0.53836 -0.25088,-0.12531 -1.478875,-0.82653 -1.220896,-0.70304 -3.427808,-1.98729 z m -20.359422,-80.33005 0.593843,2.34291 8.086572,-2.04965 -1.157208,-2.41924 1.306347,-0.33111 1.153609,2.40504 0.363502,1.43414 -9.392919,2.38076 0.59384,2.3429 -1.206951,0.30592 -1.547586,-6.10575 z m 566.18667,77.83677 q -0.28085,1.10752 0.67025,1.94564 0.94579,0.8292 3.13244,1.3837 2.17956,0.5527 3.4133,0.2762 1.22845,-0.28542 1.5093,-1.39294 0.28265,-1.11462 -0.66314,-1.94384 -0.9511,-0.8381 -3.13065,-1.3908 -2.18665,-0.5545 -3.4151,-0.2691 -1.23375,0.27652 -1.5164,1.39114 z m -1.13592,-0.28806 q 0.45188,-1.78197 2.10232,-2.36084 1.64515,-0.58776 4.32876,0.0928 2.67652,0.67872 3.84987,1.98122 1.16807,1.29359 0.71619,3.07557 -0.45188,1.78198 -2.09703,2.36974 -1.65045,0.57888 -4.32696,-0.0998 -2.68361,-0.68053 -3.85168,-1.97413 -1.17336,-1.3025 -0.72147,-3.08448 z" />
    <path
       id="path13035"
       style="fill:none;stroke:#ff0000;stroke-width:1;stroke-linecap:butt;stroke-linejoin:miter;stroke-miterlimit:10;stroke-dasharray:none;stroke-opacity:1"
       d="m 588.06909,673.93484 15.00955,19.09614 0.0209,46.69759 -14.99067,19.10928 m -333.646,-84.74851 333.60619,-0.1545 m 0.0398,84.90301 -333.60512,0.15053 m -141.54086,-84.83527 141.49998,-0.0638 m 0.0409,84.89904 -141.50099,0.0637 m -79.278063,-84.86352 17.821939,-15.0074 43.581177,-0.0209 17.835077,14.99283 m -79.201318,84.93446 -15.006555,-19.09609 -0.021,-46.6936 14.990675,-19.10928 m 79.278063,84.86352 -79.241188,0.0355 m 253.182808,-85.28949 0.005,-96.2163 m 2.3e-4,0 -17.30064,19.859 -51.29744,12.99909 -24.6725,-9.2185 m 178.16577,72.58299 -84.90042,-0.006 m 84.90552,-96.21529 -0.005,96.22129 m 93.27208,-72.56749 -24.67355,9.21688 -51.29617,-13.00891 -17.29736,-19.86177 m -178.17087,23.6383 -14.31493,-75.19714 1.66422,-183.47391 15.68364,-74.92153 m 265.4119,0.0167 15.67221,74.92341 1.64491,183.47305 -14.324,75.19493 M 196.71199,267.62879 169.53563,289.9899 94.093646,309.11391 59.546331,302.3935 m 539.737799,0.0304 -34.55065,6.7143 -75.43514,-19.12835 -27.17445,-22.36436 M 59.546331,302.3935 40.077325,225.58511 M 266.11405,80.707505 286.97361,163.00428 m 0,0 19.10485,-14.99869 46.6922,0.004 19.10334,14.99969 M 19.218766,143.2883 266.11405,80.707505 m 105.75995,82.302065 59.23452,-0.45312 135.78675,34.43534 51.86332,28.6254 M 40.077325,225.58511 19.218766,143.2883 m 599.539824,82.32889 10.15889,20.96655 -10.71472,42.24483 -18.91863,13.59532" />
    <path
       id="path13037"
       style="fill:none;stroke:#800000;stroke-width:1;stroke-linecap:butt;stroke-linejoin:miter;stroke-miterlimit:10;stroke-dasharray:8, 8;stroke-dashoffset:0;stroke-opacity:1"
       d="m 588.06909,673.93484 0.0398,84.90301 m -475.10611,0.21427 -0.0399,-84.89901 m -79.238193,0.0355 79.238193,-0.0355 m -79.201318,84.93446 -0.03688,-84.89897 m 253.224913,-96.60682 -93.27058,23.63959 m 178.17087,-23.6383 -84.90029,-10e-4 m 178.16737,23.6548 -93.26708,-23.6538 m -178.17087,23.6383 3.03293,-333.59258 m 265.4119,0.0167 2.99312,333.59139 M 196.71199,267.62879 59.546331,302.3935 m 539.737799,0.0304 -137.16024,-34.77841 m -175.15028,-104.6412 84.90039,0.005 m 0,2.9e-4 246.88459,62.60762 m 0,0 -19.47446,76.8067 M 40.077325,225.58511 286.97361,163.00428 m 84.90039,0.005 -0.0241,414.5735 m -84.87629,-414.57879 -0.024,414.5775" />
  </g>
</svg>
