<?xml version="1.0" encoding="UTF-8" standalone="no"?>
<!-- Created with Inkscape (http://www.inkscape.org/) -->

<svg
   version="1.1"
   id="svg13990"
   width="1132"
   height="1132"
   viewBox="0 0 1132 1132"
   sodipodi:docname="8.svg"
   inkscape:version="1.2.2 (732a01da63, 2022-12-09, custom)"
   xmlns:inkscape="http://www.inkscape.org/namespaces/inkscape"
   xmlns:sodipodi="http://sodipodi.sourceforge.net/DTD/sodipodi-0.dtd"
   xmlns="http://www.w3.org/2000/svg"
   xmlns:svg="http://www.w3.org/2000/svg">
  <defs
     id="defs13994" />
  <sodipodi:namedview
     id="namedview13992"
     pagecolor="#ffffff"
     bordercolor="#666666"
     borderopacity="1.0"
     inkscape:showpageshadow="2"
     inkscape:pageopacity="0.0"
     inkscape:pagecheckerboard="0"
     inkscape:deskcolor="#d1d1d1"
     showgrid="false"
     showguides="true"
     inkscape:zoom="0.4039311"
     inkscape:cx="573.11755"
     inkscape:cy="615.20394"
     inkscape:window-width="1920"
     inkscape:window-height="1009"
     inkscape:window-x="0"
     inkscape:window-y="0"
     inkscape:window-maximized="1"
     inkscape:current-layer="g13998">
    <inkscape:page
       x="0"
       y="0"
       id="page13996"
       width="1132"
       height="1132" />
  </sodipodi:namedview>
  <g
     id="g13998"
     inkscape:groupmode="layer"
     inkscape:label="Page 1"
     transform="matrix(1.3333333,0,0,1.3333333,0,2.83e-5)">
    <path
       id="path14570"
       style="fill:none;stroke:#800000;stroke-width:1;stroke-linecap:butt;stroke-linejoin:miter;stroke-miterlimit:10;stroke-dasharray:8,8;stroke-dashoffset:0;stroke-opacity:1"
       d="m 160.51951,89.109793 -0.0399,32.018477 m -84.902612,-0.10982 0.04386,-32.018709 m -0.0788,60.319489 0.03494,-28.30078 m 84.902644,0.10982 -0.0349,28.30078 m -20.86915,390.0863 0.0547,28.30285 m -84.900526,0.16403 -0.05466,-28.29884 m 0.116653,60.31993 -0.06199,-32.02109 m 84.900543,-0.16403 0.0619,32.01809 m 294.75855,-200.92556 84.90098,-0.3232 m 0.47475,124.52076 -84.9,0.32218 m 174.10152,-106.31533 -0.0228,90.55936 m -266.02415,-0.0584 0.0228,-90.55936 m -10e-6,0 -107.54163,-0.0245 m 107.55958,-73.55953 0.0169,-84.89851 m 265.96651,249.10026 107.54163,0.0245 m -481.10441,-0.10744 107.53863,0.0246 m 373.56578,0.0829 0.0198,-90.55931 m 0,0 -107.53863,-0.0246 m -373.56579,-0.0829 -0.0198,90.55931 m 373.5996,-164.05638 107.54163,0.0245 m -481.10448,-0.11144 107.54263,0.0245 m 373.56185,0.087 0.0219,-84.89859 m -481.10849,-0.11141 -0.0179,84.89853 M 716.60553,258.66112 609.0629,258.6366 m 0,0 -0.0209,84.89858 M 343.03869,258.57424 235.49706,258.54974 M 365.7156,94.441618 365.6987,179.33913 m 0,0 67.90412,62.27858 m -0.0349,158.47854 -0.0293,124.52096 m 84.93932,-164.1215 -84.90253,-0.0178 m 84.92993,-118.84238 -0.0274,118.86018 m -84.87513,-118.878 84.90253,0.0178 m 0,2e-5 67.93737,-62.24643 m -152.8399,62.22861 -0.0274,118.86018 m 84.86572,164.15714 0.0293,-124.52096 m -84.93183,124.50314 -67.93152,56.58159 m 220.72318,84.95154 0.0208,-84.90157 m 4e-5,0 -67.90997,-56.61374 M 365.60709,581.1988 212.78533,581.1659 m 526.3836,0.11985 -0.0169,84.89851 m 0.0169,-84.89851 -152.81782,-0.037 m -373.56578,-0.0829 -67.90697,-56.61379 m 0.0368,-164.14032 -84.901576,-0.0208 m 84.901576,0.0208 0.0274,-118.85918 m -84.937471,158.45672 84.898591,0.0219 m 662.23106,0.14892 -0.0293,124.51995 m -662.22707,-0.14799 -84.90153,-0.0178 m 747.12857,0.16579 -67.93647,56.58567 m -594.29057,-56.73366 0.0253,-124.52089 m 441.53906,-220.6421 152.81783,0.037 m -526.38361,-0.11989 0.0208,-84.902577 m 152.80096,84.935497 -152.82176,-0.0329 m 526.38361,0.11985 67.90907,62.27551 m -747.128644,-0.17083 84.901594,0.0218 m 662.22705,0.14903 -0.0274,118.85917 M 144.94257,241.55259 212.87694,179.30621" />
    <path
       id="path16849"
       style="font-size:15px;font-family:'DejaVu Sans';-inkscape-font-specification:DejaVuSans;fill:#0000ff"
       d="m 392.19849,107.94224 q 0,-1.14258 -1.12793,-1.72119 -1.12061,-0.57129 -3.37647,-0.57129 -2.24853,0 -3.37646,0.57129 -1.12061,0.57861 -1.12061,1.72119 0,1.1499 1.12061,1.72119 1.12793,0.57861 3.37646,0.57861 2.25586,0 3.37647,-0.57861 1.12793,-0.57129 1.12793,-1.72119 z m 1.17187,0 q 0,1.83838 -1.45752,2.80517 -1.45019,0.97412 -4.21875,0.97412 -2.76123,0 -4.21875,-0.97412 -1.45019,-0.96679 -1.45019,-2.80517 0,-1.83838 1.45019,-2.8125 1.45752,-0.9668 4.21875,-0.9668 2.76856,0 4.21875,0.9668 1.45752,0.97412 1.45752,2.8125 z m 360.78125,-1.97753 q 0,1.14257 1.12793,1.72119 1.12061,0.57129 3.37647,0.57129 2.24853,0 3.37646,-0.57129 1.12061,-0.57862 1.12061,-1.72119 0,-1.14991 -1.12061,-1.72119 -1.12793,-0.57862 -3.37646,-0.57862 -2.25586,0 -3.37647,0.57862 -1.12793,0.57128 -1.12793,1.72119 z m -1.17187,0 q 0,-1.83838 1.45752,-2.80518 1.45019,-0.97412 4.21875,-0.97412 2.76123,0 4.21875,0.97412 1.45019,0.9668 1.45019,2.80518 0,1.83838 -1.45019,2.8125 -1.45752,0.96679 -4.21875,0.96679 -2.76856,0 -4.21875,-0.96679 -1.45752,-0.97412 -1.45752,-2.8125 z M 486.47571,641.79883 q 0,1.14258 1.12793,1.72119 1.1206,0.57129 3.37646,0.57129 2.24854,0 3.37647,-0.57129 1.1206,-0.57861 1.1206,-1.72119 0,-1.1499 -1.1206,-1.72119 -1.12793,-0.57862 -3.37647,-0.57862 -2.25586,0 -3.37646,0.57862 -1.12793,0.57129 -1.12793,1.72119 z m -1.17188,0 q 0,-1.83838 1.45752,-2.80518 1.4502,-0.97412 4.21875,-0.97412 2.76123,0 4.21875,0.97412 1.4502,0.9668 1.4502,2.80518 0,1.83838 -1.4502,2.8125 -1.45752,0.96679 -4.21875,0.96679 -2.76855,0 -4.21875,-0.96679 -1.45752,-0.97412 -1.45752,-2.8125 z m -372.10547,1.97754 q 0,-1.14258 -1.12793,-1.72119 -1.1206,-0.57129 -3.37646,-0.57129 -2.24854,0 -3.37647,0.57129 -1.1206,0.57861 -1.1206,1.72119 0,1.1499 1.1206,1.72119 1.12793,0.57861 3.37647,0.57861 2.25586,0 3.37646,-0.57861 1.12793,-0.57129 1.12793,-1.72119 z m 1.17188,0 q 0,1.83838 -1.45752,2.80517 -1.4502,0.97412 -4.21875,0.97412 -2.76123,0 -4.21875,-0.97412 -1.4502,-0.96679 -1.4502,-2.80517 0,-1.83838 1.4502,-2.8125 1.45752,-0.9668 4.21875,-0.9668 2.76855,0 4.21875,0.9668 1.45752,0.97412 1.45752,2.8125 z m 354.7924,-483.14663 3.73668,-5.83655 -3.73535,-8.5e-4 z m 0.38789,1.28915 -1.86035,-4.3e-4 0.002,-7.12646 -1.56006,-3.5e-4 2.8e-4,-1.23047 1.56006,3.5e-4 5.9e-4,-2.57813 1.47217,3.4e-4 -5.9e-4,2.57813 4.93652,0.001 -3.3e-4,1.42822 z m 12.96259,-9.68699 -2.41699,-5.5e-4 -0.002,8.34229 2.62951,-0.52676 -3.1e-4,1.34766 -2.61486,0.52675 -1.4795,-3.4e-4 0.002,-9.68994 -2.41699,-5.5e-4 2.9e-4,-1.24512 6.29883,0.001 z m -127.95074,-22.25563 5.83655,3.73668 8.5e-4,-3.73535 z m -1.28915,0.38788 4.2e-4,-1.86034 7.12646,0.002 3.6e-4,-1.56006 1.23047,2.8e-4 -3.6e-4,1.56006 2.57813,5.8e-4 -3.3e-4,1.47217 -2.57813,-5.8e-4 -10e-4,4.93651 -1.42822,-3.2e-4 z m 9.68699,12.96263 5.5e-4,-2.41699 -8.34229,-0.002 0.52675,2.62951 -1.34766,-3.1e-4 -0.52674,-2.61487 3.3e-4,-1.47949 9.68994,0.002 5.5e-4,-2.41699 1.24512,2.8e-4 -0.001,6.29883 z m 78.04855,59.73102 q -0.22729,1.06197 -0.94519,1.65507 -0.71792,0.60042 -1.7726,0.60018 -1.61866,-3.7e-4 -2.50464,-1.11385 -0.88597,-1.11348 -0.88551,-3.16426 1.6e-4,-0.68848 0.13949,-1.42087 0.132,-0.72507 0.40318,-1.50137 l 1.42822,3.2e-4 q -0.35903,0.61515 -0.5423,1.34753 -0.18328,0.73239 -0.18346,1.53073 -3.1e-4,1.3916 0.54884,2.11681 0.54915,0.73256 1.59652,0.7328 0.96679,2.2e-4 1.50894,-0.68082 0.54946,-0.6737 0.54974,-1.8822 l 2.9e-4,-1.27441 1.21582,2.8e-4 -3.1e-4,1.333 q -2.4e-4,1.09131 0.43175,1.67003 0.43932,0.57871 1.25964,0.5789 0.84228,1.9e-4 1.2892,-0.6003 0.45423,-0.59316 0.45449,-1.70644 1.4e-4,-0.60791 -0.13155,-1.30374 -0.13167,-0.69583 -0.4098,-1.53085 l 1.31836,3e-4 q 0.23418,0.84233 0.3512,1.57478 0.11703,0.73978 0.11688,1.39164 -3.9e-4,1.68457 -0.76965,2.66583 -0.76194,0.98128 -2.06565,0.98098 -0.90821,-2.1e-4 -1.53797,-0.52037 -0.62244,-0.52016 -0.86393,-1.4797 z m -4.64775,-13.76711 -5.5e-4,2.41699 8.34229,0.002 -0.52675,-2.62952 1.34766,3.1e-4 0.52675,2.61487 -3.4e-4,1.47949 -9.68994,-0.002 -5.5e-4,2.417 -1.24511,-2.9e-4 10e-4,-6.29883 z m -47.24094,21.56362 q -0.62924,-0.88514 -0.58134,-1.81512 0.0425,-0.93493 0.75536,-1.71224 1.09403,-1.19295 2.51352,-1.09364 1.41948,0.0993 2.93091,1.4854 0.50741,0.46533 0.95315,1.06293 0.44528,0.58725 0.83431,1.31171 l -0.96532,1.05261 q -0.21086,-0.68033 -0.62689,-1.31032 -0.41605,-0.62999 -1.00443,-1.16958 -1.02561,-0.94057 -1.93129,-1.02581 -0.91107,-0.0902 -1.61897,0.68172 -0.65345,0.71254 -0.51776,1.57237 0.12533,0.86028 1.01599,1.67709 l 0.93925,0.86137 -0.82176,0.89606 -0.98243,-0.90096 q -0.8043,-0.73761 -1.52281,-0.81021 -0.72346,-0.0672 -1.2779,0.53737 -0.56929,0.62077 -0.42863,1.35598 0.13031,0.73565 0.9508,1.48811 0.44803,0.41088 1.04995,0.78399 0.60191,0.37313 1.40539,0.73235 l -0.89107,0.97163 q -0.77917,-0.39656 -1.39817,-0.80522 -0.6244,-0.41362 -1.10483,-0.85421 -1.24153,-1.13858 -1.44506,-2.36872 -0.20849,-1.22474 0.67267,-2.18558 0.61384,-0.66934 1.42283,-0.78209 0.80404,-0.10735 1.67453,0.36301 z m 13.28913,5.87665 -1.78133,-1.63362 -5.63847,6.14829 2.2943,1.38852 -0.91087,0.99323 -2.2835,-1.37863 -1.09039,-0.99998 6.54933,-7.14151 -1.78133,-1.63362 0.84157,-0.91765 4.64225,4.25731 z m 113.36266,-25.61619 10e-4,-5.16358 1.24511,2.9e-4 -0.002,6.94336 -1.24511,-2.9e-4 q -0.87139,-0.84248 -2.33591,-2.29301 -1.47184,-1.45785 -1.89656,-1.83148 -0.79817,-0.71063 -1.34743,-0.98908 -0.55658,-0.28577 -1.09125,-0.28589 -0.87158,-2e-4 -1.42103,0.61491 -0.54945,0.60779 -0.54968,1.58923 -1.6e-4,0.6958 0.24137,1.47222 0.24152,0.7691 0.73204,1.64812 l -1.49414,-3.4e-4 q -0.35868,-0.89363 -0.54161,-1.67004 -0.18293,-0.77642 -0.18278,-1.42095 3.8e-4,-1.69922 0.85022,-2.70976 0.84984,-1.01055 2.27074,-1.01023 0.67383,1.6e-4 1.28168,0.25664 0.60053,0.24916 1.4207,0.91585 0.21235,0.18316 1.23019,1.16483 1.01053,0.98168 2.83385,2.7692 z m -0.002,10.55806 5.5e-4,-2.41699 -8.34229,-0.002 0.52675,2.62951 -1.34766,-3.1e-4 -0.52674,-2.61487 3.3e-4,-1.47949 9.68994,0.002 5.5e-4,-2.41699 1.24511,2.9e-4 -0.001,6.29883 z m 35.27603,13.87013 -3.80716,3.48827 -0.84114,-0.91804 5.11941,-4.69062 0.84114,0.91804 q -0.0322,1.21164 -0.11189,3.27137 -0.0801,2.07007 -0.0685,2.63563 0.0155,1.06858 0.18138,1.66161 0.16543,0.60338 0.52663,0.9976 0.5888,0.64262 1.41351,0.63202 0.81932,-0.006 1.54295,-0.66868 0.51302,-0.47005 0.92216,-1.17273 0.40374,-0.69774 0.72025,-1.65331 l 1.00938,1.10165 q -0.41638,0.86825 -0.8651,1.52774 -0.44874,0.65948 -0.92395,1.0949 -1.25286,1.14791 -2.57204,1.20429 -1.31919,0.0564 -2.27908,-0.99125 -0.45521,-0.49682 -0.67687,-1.11822 -0.22213,-0.61104 -0.28488,-1.66612 -0.008,-0.28031 0.0274,-1.69397 0.0408,-1.40824 0.12644,-3.96018 z m 7.78457,-7.13256 -1.78207,1.63281 5.63566,6.15085 1.58244,-2.16512 0.91042,0.99365 -1.57164,2.15522 -1.09084,0.99947 -6.54608,-7.14449 -1.78207,1.63281 -0.84115,-0.91804 4.64418,-4.2552 z m -13.32977,454.98781 2.417,5.5e-4 0.002,-8.34229 -2.62952,0.52676 3e-4,-1.34766 2.61487,-0.52675 1.47949,3.4e-4 -0.002,9.68994 2.41699,5.5e-4 -2.8e-4,1.24512 -6.29883,-10e-4 z m -9.53997,-0.002 2.41699,5.5e-4 0.002,-8.34229 -2.62952,0.52675 3e-4,-1.34766 2.61487,-0.52675 1.47949,3.4e-4 -0.002,9.68994 2.41699,5.5e-4 -2.8e-4,1.24512 -6.29882,-10e-4 z m -135.55202,-114.75697 1.85718,-1.54685 -5.33895,-6.41009 -1.6829,2.08798 -0.86248,-1.03552 1.67164,-2.0786 1.13682,-0.94686 6.20144,7.44561 1.85718,-1.54684 0.79686,0.95673 -4.83993,4.03117 z m -7.3304,6.10547 1.85718,-1.54684 -5.33895,-6.4101 -1.6829,2.08798 -0.86248,-1.03552 1.67164,-2.0786 1.13682,-0.94686 6.20144,7.44561 1.85718,-1.54684 0.79686,0.95673 -4.83993,4.03117 z m 171.33363,-6.70565 q -0.8776,-0.73163 -2.04429,-0.23579 -1.15637,0.49492 -2.60088,2.22763 -1.43981,1.72709 -1.72326,2.95926 -0.27313,1.23125 0.60447,1.96288 0.88324,0.73632 2.0396,0.2414 1.16669,-0.49584 2.60651,-2.22293 1.44451,-1.73271 1.71764,-2.96396 0.28345,-1.23216 -0.59979,-1.96849 z m 0.7504,-0.90011 q 1.41205,1.17718 1.22134,2.91577 -0.1804,1.73765 -1.9532,3.86416 -1.76812,2.12089 -3.44964,2.61664 -1.6712,0.49481 -3.08325,-0.68237 -1.41205,-1.17718 -1.23166,-2.91484 0.19072,-1.73858 1.95883,-3.85947 1.77281,-2.12651 3.44401,-2.62133 1.68152,-0.49575 3.09357,0.68144 z m -15.8925,-0.37606 1.85647,1.54769 5.34187,-6.40767 -2.3573,-1.27864 0.86295,-1.03513 2.34605,1.26926 1.1364,0.94738 -6.20482,7.44279 1.85648,1.54769 -0.7973,0.95637 -4.8381,-4.03337 z m -13.21654,45.9353 q 1.14258,2.6e-4 1.72145,-1.12754 0.57155,-1.12047 0.57206,-3.37633 5.1e-4,-2.24854 -0.57052,-3.3766 -0.57836,-1.12073 -1.72094,-1.12099 -1.1499,-2.6e-4 -1.72144,1.12021 -0.57887,1.1278 -0.57938,3.37634 -5.1e-4,2.25586 0.57784,3.37659 0.57103,1.12806 1.72093,1.12832 z m -2.6e-4,1.17188 q -1.83838,-4.2e-4 -2.80484,-1.45816 -0.97379,-1.45042 -0.97316,-4.21897 6.3e-4,-2.76123 0.97508,-4.21853 0.96712,-1.44998 2.8055,-1.44956 1.83838,4.2e-4 2.81217,1.45084 0.96647,1.45774 0.96584,4.21897 -6.3e-4,2.76855 -0.96776,4.21853 -0.97445,1.4573 -2.81283,1.45688 z m 12.44995,-9.88487 -2.417,-5.5e-4 -0.002,8.34229 2.62952,-0.52675 -3.1e-4,1.34766 -2.61487,0.52675 -1.47949,-3.4e-4 0.002,-9.68994 -2.41699,-5.5e-4 2.8e-4,-1.24512 6.29883,0.001 z m 112.11363,80.45632 3e-4,-1.34766 q 0.55658,0.26379 1.12784,0.40308 0.57126,0.13929 1.12058,0.13942 1.46484,3.3e-4 2.2341,-0.98093 0.7766,-0.9886 0.88692,-2.99541 -0.42495,0.62979 -1.07688,0.96655 -0.65193,0.33677 -1.44295,0.33659 -1.64062,-3.8e-4 -2.59987,-0.98937 -0.95192,-0.9963 -0.95153,-2.71749 3.8e-4,-1.68457 0.9967,-2.70242 0.99634,-1.01783 2.65161,-1.01745 1.89697,4.3e-4 2.89273,1.45818 1.00308,1.45041 1.00246,4.21897 -5.9e-4,2.58544 -1.23141,4.13057 -1.22349,1.53782 -3.29624,1.53734 -0.55664,-1.2e-4 -1.12791,-0.11011 -0.57126,-0.11 -1.18645,-0.32986 z m 2.94539,-4.63556 q 0.99609,2.2e-4 1.57487,-0.6808 0.58608,-0.68102 0.58635,-1.86754 2.7e-4,-1.1792 -0.58551,-1.86048 -0.57846,-0.68862 -1.57455,-0.68884 -0.99609,-2.3e-4 -1.58219,0.68812 -0.57877,0.68102 -0.57904,1.86022 -2.7e-4,1.18652 0.5782,1.8678 0.58578,0.68129 1.58187,0.68152 z m -376.49062,-80.34971 3.1e-4,-1.34766 q 0.55658,0.2638 1.12783,0.40309 0.57126,0.13929 1.12057,0.13942 1.46485,3.3e-4 2.23412,-0.98094 0.77659,-0.98859 0.88691,-2.9954 -0.42495,0.62979 -1.07688,0.96655 -0.65194,0.33676 -1.44295,0.33658 -1.64063,-3.7e-4 -2.59987,-0.98936 -0.95193,-0.9963 -0.95154,-2.71749 3.9e-4,-1.68457 0.99672,-2.70242 0.99632,-1.01783 2.65159,-1.01746 1.89698,4.4e-4 2.89274,1.45818 1.00309,1.45042 1.00246,4.21898 -5.9e-4,2.58545 -1.23141,4.13058 -1.22349,1.5378 -3.29625,1.53733 -0.55664,-1.3e-4 -1.12791,-0.11012 -0.57126,-0.11 -1.18644,-0.32986 z m 2.94538,-4.63556 q 0.9961,2.3e-4 1.57487,-0.68079 0.58609,-0.68102 0.58636,-1.86754 2.7e-4,-1.1792 -0.58551,-1.86049 -0.57846,-0.68861 -1.57456,-0.68884 -0.99609,-2.2e-4 -1.58218,0.68812 -0.57877,0.68102 -0.57904,1.86022 -2.7e-4,1.18652 0.57819,1.86781 0.58578,0.68129 1.58187,0.68151 z m 494.35854,84.6815 q -1.05469,-2.4e-4 -1.66273,0.56358 -0.6007,0.56383 -0.60093,1.5526 -2.2e-4,0.98877 0.60023,1.55287 0.60778,0.56411 1.66247,0.56435 1.05469,2.4e-4 1.66273,-0.5636 0.60804,-0.57115 0.60826,-1.55259 2.3e-4,-0.98877 -0.60756,-1.55288 -0.60046,-0.56409 -1.66247,-0.56433 z m -1.47934,-0.63022 q -0.9521,-0.2346 -1.48662,-0.88657 -0.52719,-0.65198 -0.52698,-1.58948 3e-4,-1.31103 0.93064,-2.07254 0.93767,-0.7615 2.56365,-0.76113 1.6333,3.7e-4 2.56331,0.7623 0.93,0.76193 0.9297,2.07296 -2.1e-4,0.9375 -0.53502,1.58924 -0.5275,0.65173 -1.47237,0.88589 1.06927,0.24927 1.66237,0.9745 0.60042,0.72524 0.60018,1.7726 -3.6e-4,1.58935 -0.97467,2.43874 -0.967,0.84939 -2.77608,0.84898 -1.80908,-4.2e-4 -2.783,-0.85025 -0.96661,-0.84983 -0.96625,-2.43918 2.4e-4,-1.04736 0.60099,-1.77232 0.60075,-0.72496 1.67015,-0.97374 z m -0.54146,-2.33655 q -2e-4,0.84961 0.52704,1.3258 0.53456,0.4762 1.49403,0.47642 0.95215,2.1e-4 1.48693,-0.47575 0.54209,-0.47594 0.54229,-1.32555 1.9e-4,-0.84961 -0.54169,-1.32581 -0.53456,-0.4762 -1.48671,-0.47641 -0.95947,-2.2e-4 -1.49425,0.47574 -0.52745,0.47595 -0.52764,1.32556 z m -598.4561,-108.1673 q -0.8101,-0.67536 -1.63816,-0.63145 -0.82243,0.0486 -1.45558,0.80808 -0.63314,0.75947 -0.53296,1.57721 0.1058,0.82245 0.9159,1.49781 0.8101,0.67536 1.63817,0.63144 0.83275,-0.0495 1.4612,-0.80338 0.63314,-0.75947 0.52734,-1.58192 -0.10018,-0.81775 -0.91591,-1.49779 z m -0.73305,-1.43119 q -0.58126,-0.78971 -0.57453,-1.63277 0.0124,-0.83836 0.61267,-1.55845 0.83951,-1.007 2.04172,-0.99645 1.20784,0.0153 2.45675,1.05642 1.25453,1.04586 1.48124,2.22655 0.22671,1.1807 -0.6128,2.1877 -0.60031,0.72009 -1.4284,0.8784 -0.82245,0.16302 -1.69824,-0.26196 0.66189,0.87601 0.65326,1.81284 -0.003,0.94151 -0.67366,1.74599 -1.01772,1.22077 -2.30997,1.24959 -1.28663,0.0335 -2.67618,-1.12491 -1.38954,-1.15842 -1.59372,-2.43477 -0.19856,-1.27166 0.81916,-2.49243 0.67066,-0.80448 1.59628,-0.97684 0.92561,-0.17237 1.90642,0.32109 z m 1.0798,-2.14165 q -0.54404,0.65258 -0.44384,1.35593 0.10583,0.70804 0.84279,1.32242 0.73135,0.6097 1.44687,0.58639 0.72115,-0.0186 1.26518,-0.67119 0.54404,-0.65258 0.43259,-1.3653 -0.10583,-0.70805 -0.83717,-1.31774 -0.73697,-0.61439 -1.45249,-0.59108 -0.7099,0.028 -1.25393,0.68057 z m 610.43872,-80.07283 0.002,-7.03125 0.62989,1.5e-4 10.30427,3.97206 -3.6e-4,1.54541 -9.68909,-3.73755 -0.001,5.25147 z m -722.256199,-4.73437 -0.0016,7.03125 -0.629883,-1.4e-4 -10.304273,-3.97208 3.52e-4,-1.54541 9.689091,3.73756 0.0012,-5.25146 z M 820.01765,622.57806 q -2.3e-4,0.9961 0.68079,1.58218 0.68102,0.57878 1.86755,0.57905 1.1792,2.7e-4 1.8678,-0.5782 0.68129,-0.58577 0.68152,-1.58187 2.3e-4,-0.99609 -0.6808,-1.57487 -0.68834,-0.58608 -1.86754,-0.58635 -1.18653,-2.7e-4 -1.86781,0.5855 -0.68128,0.57847 -0.68151,1.57456 z m -4.63556,-2.93807 1.34766,3.1e-4 q -0.26381,0.55658 -0.4031,1.12784 -0.13929,0.56393 -0.13941,1.12057 -3.4e-4,1.46485 0.98826,2.24144 0.98859,0.76927 2.98808,0.87958 -0.63711,-0.43227 -0.97388,-1.0842 -0.34409,-0.65194 -0.34391,-1.43563 3.7e-4,-1.64795 1.00401,-2.59987 0.99632,-0.95924 2.71751,-0.95885 1.68457,3.8e-4 2.7024,0.9967 1.01785,0.99633 1.01747,2.6516 -4.3e-4,1.89697 -1.45085,2.90006 -1.45775,1.00309 -4.21898,1.00247 -2.59278,-5.9e-4 -4.13058,-1.23141 -1.54513,-1.23083 -1.54466,-3.30358 1.3e-4,-0.55664 0.11012,-1.12058 0.10999,-0.57127 0.32986,-1.18645 z M 103.60515,516.98579 q -0.99609,-2.3e-4 -1.58219,0.68079 -0.57876,0.68102 -0.57903,1.86755 -2.7e-4,1.1792 0.57818,1.8678 0.58579,0.68129 1.58188,0.68152 0.9961,2.3e-4 1.57486,-0.6808 0.5861,-0.68834 0.58637,-1.86754 2.7e-4,-1.18653 -0.58552,-1.86781 -0.57845,-0.68128 -1.57455,-0.68151 z m 2.93807,-4.63556 -3e-4,1.34766 q -0.55658,-0.26381 -1.12784,-0.4031 -0.56394,-0.13929 -1.12058,-0.13941 -1.46484,-3.4e-4 -2.24144,0.98826 -0.76926,0.98859 -0.87958,2.98808 0.43227,-0.63711 1.08421,-0.97388 0.65192,-0.34409 1.43562,-0.34391 1.64794,3.7e-4 2.59987,1.00401 0.95925,0.99632 0.95886,2.71751 -3.8e-4,1.68457 -0.99672,2.7024 -0.99632,1.01785 -2.6516,1.01747 -1.89697,-4.3e-4 -2.90006,-1.45085 -1.00308,-1.45775 -1.002452,-4.21898 5.89e-4,-2.59278 1.231402,-4.13058 1.23082,-1.54513 3.30358,-1.54466 0.55664,1.3e-4 1.12058,0.11012 0.57126,0.10999 1.18645,0.32986 z m 678.75055,81.37897 -5.8081,-10e-4 2.8e-4,-1.24512 4.45312,10e-4 6.1e-4,-2.68066 q -0.32229,0.10978 -0.64457,0.16098 -0.32228,0.0585 -0.64454,0.0584 -1.83106,-4.1e-4 -2.90016,-1.00407 -1.06911,-1.00366 -1.06872,-2.71753 4e-4,-1.76514 1.09926,-2.74633 1.09885,-0.97387 3.09836,-0.97342 0.68848,1.6e-4 1.40623,0.1175 0.71042,0.11736 1.47209,0.35191 l -3.4e-4,1.48681 q -0.6591,-0.35903 -1.36219,-0.53497 -0.70308,-0.17595 -1.48677,-0.17613 -1.26709,-2.9e-4 -2.00699,0.66605 -0.7399,0.66634 -0.74016,1.80892 -2.6e-4,1.14258 0.73933,1.80924 0.7396,0.66668 2.00669,0.66697 0.59326,1.4e-4 1.18655,-0.13157 0.58597,-0.13171 1.20127,-0.40989 z m -21.59062,-49.06148 4.46286,-3.7171 0.79686,0.95673 -3.42171,2.84994 1.71558,2.05978 q 0.17731,-0.29066 0.39213,-0.5363 0.21012,-0.25128 0.45774,-0.45752 1.40697,-1.17185 2.87079,-1.08521 1.46384,0.0867 2.5607,1.40357 1.12966,1.35631 0.9136,2.81354 -0.22076,1.45162 -1.75715,2.73128 -0.52902,0.44061 -1.15554,0.80994 -0.6209,0.36463 -1.35619,0.67203 l -0.95154,-1.14245 q 0.73618,-0.14611 1.38895,-0.46103 0.65278,-0.31492 1.25495,-0.81647 0.97362,-0.81092 1.11547,-1.79649 0.14186,-0.98555 -0.58937,-1.8635 -0.73124,-0.87794 -1.7262,-0.91664 -0.99497,-0.0387 -1.96859,0.77222 -0.45585,0.37967 -0.82733,0.86066 -0.36585,0.47629 -0.66046,1.08389 z M 661.1628,190.55435 l 3.73668,-5.83655 -3.73535,-8.5e-4 z m 0.38789,1.28915 -1.86035,-4.2e-4 0.002,-7.12646 -1.56006,-3.6e-4 2.8e-4,-1.23047 1.56006,3.6e-4 5.9e-4,-2.57812 1.47217,3.3e-4 -5.9e-4,2.57812 4.93652,0.001 -3.3e-4,1.42822 z m -373.93318,-86.27439 3.73668,-5.836551 -3.73535,-8.49e-4 z m 0.38789,1.28915 -1.86035,-4.2e-4 0.002,-7.126465 -1.56006,-3.55e-4 2.8e-4,-1.230469 1.56006,3.55e-4 5.8e-4,-2.578125 1.47217,3.35e-4 -5.8e-4,2.578125 4.93652,0.0011 -3.3e-4,1.428223 z m -187.98177,49.93877 q -1.061958,-0.22729 -1.655056,-0.94521 -0.600422,-0.7179 -0.600183,-1.77259 3.68e-4,-1.61865 1.113851,-2.50463 1.113482,-0.88598 3.164258,-0.88551 0.68848,1.6e-4 1.42087,0.13948 0.72507,0.132 1.50138,0.40318 l -3.2e-4,1.42822 q -0.61516,-0.35902 -1.34754,-0.5423 -0.73238,-0.18327 -1.53072,-0.18345 -1.3916,-3.2e-4 -2.116825,0.54883 -0.732547,0.54915 -0.732786,1.59651 -2.2e-4,0.9668 0.680809,1.50895 0.673702,0.54947 1.882192,0.54975 l 1.27442,2.9e-4 -2.7e-4,1.21582 -1.33301,-3.1e-4 q -1.09131,-2.5e-4 -1.67002,0.43175 -0.578716,0.43932 -0.578903,1.25963 -1.92e-4,0.84229 0.600293,1.2892 0.59316,0.45424 1.70644,0.4545 0.60791,1.3e-4 1.30374,-0.13155 0.69583,-0.13168 1.53086,-0.40981 l -3e-4,1.31836 q -0.84234,0.23419 -1.57479,0.35121 -0.73978,0.11701 -1.39163,0.11687 -1.684567,-3.9e-4 -2.66584,-0.76965 -0.981272,-0.76194 -0.980976,-2.06565 2.07e-4,-0.9082 0.52037,-1.53798 0.52016,-0.62243 1.479686,-0.86391 z m 120.2565,-17.45338 q -0.22729,1.06197 -0.94519,1.65506 -0.71791,0.60042 -1.7726,0.60018 -1.61865,-3.7e-4 -2.50463,-1.11385 -0.88598,-1.11348 -0.88552,-3.16426 1.6e-4,-0.68848 0.1395,-1.42087 0.13199,-0.72507 0.40317,-1.50137 l 1.42822,3.3e-4 q -0.35903,0.61515 -0.5423,1.34752 -0.18327,0.73238 -0.18346,1.53072 -3.1e-4,1.39161 0.54884,2.11683 0.54915,0.73255 1.59652,0.73279 0.9668,2.2e-4 1.50894,-0.68082 0.54946,-0.6737 0.54974,-1.88219 l 2.9e-4,-1.27442 1.21582,2.7e-4 -3e-4,1.33301 q -2.5e-4,1.09131 0.43175,1.67002 0.43932,0.57872 1.25963,0.57891 0.84228,1.9e-4 1.2892,-0.6003 0.45424,-0.59316 0.45449,-1.70644 1.4e-4,-0.6079 -0.13154,-1.30373 -0.13168,-0.69583 -0.40981,-1.53086 l 1.31836,3e-4 q 0.23418,0.84233 0.3512,1.57478 0.11703,0.73978 0.11688,1.39163 -3.8e-4,1.68457 -0.76965,2.66584 -0.76194,0.98128 -2.06565,0.98098 -0.90821,-2e-4 -1.53797,-0.52037 -0.62244,-0.52016 -0.86393,-1.47969 z m -157.484381,55.52717 -0.0012,5.16357 -1.245118,-2.8e-4 0.0016,-6.94336 1.245118,2.8e-4 q 0.87139,0.84249 2.335903,2.29301 1.471837,1.45786 1.896557,1.83149 0.798178,0.71064 1.347431,0.98908 0.556576,0.28577 1.091244,0.28589 0.871582,2e-4 1.421038,-0.61491 0.549455,-0.60778 0.549678,-1.58923 1.59e-4,-0.6958 -0.241365,-1.47223 -0.241524,-0.76909 -0.732046,-1.64811 l 1.49414,3.4e-4 q 0.358684,0.89364 0.541612,1.67005 0.18293,0.7764 0.182783,1.42093 -3.86e-4,1.69922 -0.850226,2.70978 -0.849839,1.01054 -2.270737,1.01022 -0.673828,-1.5e-4 -1.281681,-0.25664 -0.600529,-0.24916 -1.420689,-0.91585 -0.212361,-0.18315 -1.230205,-1.16483 -1.010518,-0.98167 -2.833842,-2.7692 z m 709.002991,18.11504 -3.80557,-3.49001 0.84156,-0.91765 5.11727,4.69295 -0.84156,0.91765 q -1.20986,0.0731 -3.26873,0.17249 -2.06922,0.0999 -2.63163,0.16049 -1.06319,0.10819 -1.6396,0.32493 -0.58675,0.21717 -0.94813,0.61123 -0.58909,0.64235 -0.50693,1.46303 0.0768,0.81573 0.80008,1.47908 0.5128,0.47028 1.24835,0.81689 0.73015,0.34165 1.70958,0.57403 l -1.00987,1.10119 q -0.90113,-0.33945 -1.59706,-0.72923 -0.69595,-0.38979 -1.17097,-0.82542 -1.25233,-1.14849 -1.42301,-2.4578 -0.17067,-1.30932 0.7897,-2.35652 0.45543,-0.49662 1.05524,-0.77139 0.58946,-0.27431 1.63512,-0.42841 0.27851,-0.0328 1.68993,-0.11975 1.40649,-0.0816 3.95623,-0.21778 z m -709.025216,86.58048 -5.5e-4,2.417 8.342285,0.002 -0.526746,-2.62952 1.347656,3e-4 0.52675,2.61487 -3.37e-4,1.47949 -9.689941,-0.002 -5.49e-4,2.41699 -1.245117,-2.8e-4 0.0014,-6.29883 z m 741.635746,2.95942 5.5e-4,-2.41699 -8.34229,-0.002 0.52675,2.62952 -1.34766,-3e-4 -0.52675,-2.61487 3.4e-4,-1.47949 9.68994,0.002 5.5e-4,-2.41699 1.24511,2.8e-4 -10e-4,6.29882 z M 133.49001,194.48811 q -2.6e-4,1.14258 1.12754,1.72144 1.12047,0.57155 3.37633,0.57206 2.24854,5.1e-4 3.37659,-0.57052 1.12074,-0.57836 1.121,-1.72094 2.7e-4,-1.1499 -1.12022,-1.72144 -1.12778,-0.57888 -3.37632,-0.57939 -2.25586,-5.1e-4 -3.37659,0.57785 -1.12806,0.57104 -1.12833,1.72094 z m -1.17188,-2.7e-4 q 4.2e-4,-1.83838 1.45816,-2.80485 1.45042,-0.97379 4.21897,-0.97316 2.76123,6.3e-4 4.21853,0.97508 1.44998,0.96713 1.44956,2.80551 -4.1e-4,1.83838 -1.45084,2.81217 -1.45774,0.96647 -4.21897,0.96584 -2.76855,-6.3e-4 -4.21853,-0.96776 -1.45729,-0.97445 -1.45688,-2.81283 z m 53.60244,25.05801 q 0.84243,-0.77187 0.50707,-1.99439 -0.33582,-1.21218 -1.85977,-2.87544 -1.51901,-1.65787 -2.7022,-2.10356 -1.18365,-0.43536 -2.02609,0.33652 -0.84783,0.77682 -0.51202,1.98899 0.33537,1.22252 1.85437,2.88039 1.52396,1.66326 2.70761,2.09862 1.18319,0.44569 2.03103,-0.33113 z m 0.79166,0.86403 q -1.35546,1.24193 -3.05292,0.82041 -1.69791,-0.41117 -3.56822,-2.45246 -1.86537,-2.03588 -2.13177,-3.7686 -0.26685,-1.72236 1.0886,-2.96429 1.35546,-1.24192 3.05337,-0.83075 1.69746,0.42152 3.56282,2.4574 1.87032,2.04129 2.13717,3.76365 0.2664,1.73272 -1.08905,2.97464 z" />
    <path
       id="path16622"
       style="font-size:15px;font-family:'DejaVu Sans';-inkscape-font-specification:DejaVuSans"
       d="m 536.69354,141.84752 q -0.99609,0 -1.58203,0.68115 -0.57861,0.68115 -0.57861,1.86768 0,1.1792 0.57861,1.86767 0.58594,0.68116 1.58203,0.68116 0.9961,0 1.57471,-0.68116 0.58594,-0.68847 0.58594,-1.86767 0,-1.18653 -0.58594,-1.86768 -0.57861,-0.68115 -1.57471,-0.68115 z m 2.93701,-4.63623 v 1.34765 q -0.55664,-0.26367 -1.12793,-0.40283 -0.56396,-0.13916 -1.1206,-0.13916 -1.46484,0 -2.24121,0.98877 -0.76904,0.98877 -0.87891,2.98828 0.43213,-0.6372 1.08399,-0.97412 0.65185,-0.34424 1.43554,-0.34424 1.64795,0 2.6001,1.00342 0.95947,0.9961 0.95947,2.71729 0,1.68457 -0.99609,2.70263 -0.99609,1.01807 -2.65137,1.01807 -1.89697,0 -2.90039,-1.4502 -1.00342,-1.45751 -1.00342,-4.21875 0,-2.59277 1.23047,-4.13085 1.23047,-1.54541 3.30323,-1.54541 0.55664,0 1.1206,0.10986 0.57129,0.10986 1.18652,0.32959 z m -14.54974,9.44824 h 5.16357 v 1.24512 h -6.94335 v -1.24512 q 0.84228,-0.87158 2.29248,-2.33643 1.45752,-1.47216 1.83105,-1.89697 0.71045,-0.79834 0.98877,-1.34765 0.28564,-0.55664 0.28564,-1.09131 0,-0.87158 -0.61523,-1.4209 -0.60791,-0.54932 -1.58936,-0.54932 -0.6958,0 -1.47216,0.2417 -0.76905,0.2417 -1.64795,0.73242 v -1.49414 q 0.89355,-0.35888 1.66992,-0.54199 0.77637,-0.1831 1.4209,-0.1831 1.69922,0 2.70996,0.8496 1.01074,0.84961 1.01074,2.27051 0,0.67383 -0.25635,1.28174 -0.24902,0.60059 -0.91552,1.4209 -0.18311,0.2124 -1.16455,1.23047 -0.98145,1.01074 -2.76856,2.83447 z M 428.6951,75.963242 q 1.14258,0 1.72119,-1.12793 0.57129,-1.120606 0.57129,-3.376465 0,-2.248535 -0.57129,-3.376465 -0.57861,-1.120605 -1.72119,-1.120605 -1.1499,0 -1.72119,1.120605 -0.57862,1.12793 -0.57862,3.376465 0,2.255859 0.57862,3.376465 0.57129,1.12793 1.72119,1.12793 z m 0,1.171875 q -1.83838,0 -2.80518,-1.45752 -0.97412,-1.450195 -0.97412,-4.21875 0,-2.76123 0.97412,-4.21875 0.9668,-1.450195 2.80518,-1.450195 1.83838,0 2.8125,1.450195 0.9668,1.45752 0.9668,4.21875 0,2.768555 -0.9668,4.21875 -0.97412,1.45752 -2.8125,1.45752 z m 11.42966,-9.887696 h -5.16358 v -1.245117 h 6.94336 v 1.245117 q -0.84228,0.871582 -2.29248,2.336426 -1.45752,1.472168 -1.83105,1.896973 -0.71045,0.79834 -0.98877,1.347656 -0.28565,0.556641 -0.28565,1.091309 0,0.871582 0.61524,1.420898 0.60791,0.549316 1.58935,0.549316 0.6958,0 1.47217,-0.241699 0.76904,-0.241699 1.64795,-0.732422 v 1.494141 q -0.89356,0.358887 -1.66992,0.541992 -0.77637,0.183106 -1.4209,0.183106 -1.69922,0 -2.70996,-0.84961 -1.01074,-0.849609 -1.01074,-2.270508 0,-0.673828 0.25634,-1.281738 0.24903,-0.600586 0.91553,-1.420898 0.18311,-0.212403 1.16455,-1.230469 0.98145,-1.010742 2.76856,-2.834473 z m -2.62113,80.430179 v -1.34766 q 0.55664,0.26367 1.12793,0.40283 0.57129,0.13916 1.12061,0.13916 1.46484,0 2.23388,-0.98144 0.77637,-0.98877 0.88623,-2.99561 -0.4248,0.62989 -1.07666,0.9668 -0.65185,0.33691 -1.44287,0.33691 -1.64062,0 -2.60009,-0.98877 -0.95215,-0.99609 -0.95215,-2.71728 0,-1.68457 0.99609,-2.70264 0.99609,-1.01806 2.65137,-1.01806 1.89697,0 2.89306,1.45751 1.00342,1.4502 1.00342,4.21875 0,2.58545 -1.23047,4.13086 -1.22314,1.53809 -3.2959,1.53809 -0.55664,0 -1.12792,-0.10986 -0.57129,-0.10987 -1.18653,-0.32959 z m 2.94434,-4.63623 q 0.99609,0 1.5747,-0.68116 0.58594,-0.68115 0.58594,-1.86767 0,-1.1792 -0.58594,-1.86035 -0.57861,-0.68848 -1.5747,-0.68848 -0.9961,0 -1.58203,0.68848 -0.57862,0.68115 -0.57862,1.86035 0,1.18652 0.57862,1.86767 0.58593,0.68116 1.58203,0.68116 z m -12.27194,3.61816 h 2.41699 v -8.34228 l -2.6294,0.52734 v -1.34766 l 2.61475,-0.52734 h 1.47949 v 9.68994 h 2.41699 v 1.24512 h -6.29882 z M 717.06232,71.195175 q 1.05468,0 1.66259,-0.563965 0.60059,-0.563965 0.60059,-1.552734 0,-0.98877 -0.60059,-1.552734 -0.60791,-0.563965 -1.66259,-0.563965 -1.05469,0 -1.6626,0.563965 -0.60791,0.571289 -0.60791,1.552734 0,0.988769 0.60791,1.552734 0.60059,0.563965 1.6626,0.563965 z m 1.47949,0.629883 q 0.95215,0.234375 1.48682,0.88623 0.52734,0.651856 0.52734,1.589356 0,1.311035 -0.93018,2.072754 -0.9375,0.761719 -2.56347,0.761719 -1.6333,0 -2.56348,-0.761719 -0.93018,-0.761719 -0.93018,-2.072754 0,-0.9375 0.53467,-1.589356 0.52735,-0.651855 1.47217,-0.88623 -1.06934,-0.249023 -1.6626,-0.974121 -0.60058,-0.725098 -0.60058,-1.772461 0,-1.589356 0.97412,-2.438965 0.96679,-0.849609 2.77588,-0.849609 1.80908,0 2.7832,0.849609 0.9668,0.849609 0.9668,2.438965 0,1.047363 -0.60059,1.772461 -0.60058,0.725098 -1.66992,0.974121 z m 0.54199,2.336426 q 0,-0.84961 -0.52734,-1.325684 -0.53467,-0.476074 -1.49414,-0.476074 -0.95215,0 -1.48682,0.476074 -0.54199,0.476074 -0.54199,1.325684 0,0.849609 0.54199,1.325683 0.53467,0.476075 1.48682,0.476075 0.95947,0 1.49414,-0.476075 0.52734,-0.476074 0.52734,-1.325683 z m 10.42621,-6.914063 h -2.41699 v 8.342285 l 2.62939,-0.527343 v 1.347656 l -2.61474,0.527344 h -1.4795 v -9.689942 h -2.41699 v -1.245117 h 6.29883 z m -3.65436,69.722169 h 7.03125 v 0.62988 l -3.96972,10.30518 h -1.54541 l 3.73535,-9.68994 h -5.25147 z m -8.91009,9.68994 h 2.41699 v -8.34228 l -2.6294,0.52734 v -1.34766 l 2.61475,-0.52734 h 1.47949 v 9.68994 h 2.41699 v 1.24512 h -6.29882 z M 620.69952,72.059433 q 0.9961,0 1.58204,-0.681152 0.57861,-0.681153 0.57861,-1.867676 0,-1.179199 -0.57861,-1.867676 -0.58594,-0.681152 -1.58204,-0.681152 -0.99609,0 -1.5747,0.681152 -0.58594,0.688477 -0.58594,1.867676 0,1.186523 0.58594,1.867676 0.57861,0.681152 1.5747,0.681152 z m -2.93701,4.63623 v -1.347656 q 0.55664,0.263672 1.12793,0.402832 0.56397,0.13916 1.12061,0.13916 1.46484,0 2.24121,-0.988769 0.76904,-0.98877 0.8789,-2.988281 -0.43212,0.637207 -1.08398,0.974121 -0.65186,0.344238 -1.43555,0.344238 -1.64795,0 -2.60009,-1.003418 -0.95948,-0.996094 -0.95948,-2.717285 0,-1.68457 0.9961,-2.702637 0.99609,-1.018066 2.65136,-1.018066 1.89698,0 2.90039,1.450195 1.00342,1.45752 1.00342,4.21875 0,2.592773 -1.23047,4.130859 -1.23046,1.545411 -3.30322,1.545411 -0.55664,0 -1.1206,-0.109864 -0.57129,-0.109863 -1.18653,-0.32959 z m 15.56781,-9.448242 h -2.41699 v 8.342285 l 2.62939,-0.527343 v 1.347656 l -2.61474,0.527344 h -1.47949 v -9.689942 h -2.417 v -1.245117 h 6.29883 z M 527.6297,76.937363 h -5.80811 v -1.245118 h 4.45313 v -2.680664 q -0.32227,0.109864 -0.64453,0.161133 -0.32227,0.05859 -0.64453,0.05859 -1.83106,0 -2.90039,-1.003418 -1.06934,-1.003418 -1.06934,-2.717285 0,-1.765137 1.09863,-2.746582 1.09864,-0.974121 3.09815,-0.974121 0.68847,0 1.40625,0.117187 0.71045,0.117188 1.47217,0.351563 v 1.486816 q -0.65918,-0.358887 -1.36231,-0.534668 -0.70312,-0.175781 -1.48682,-0.175781 -1.26709,0 -2.00683,0.666504 -0.73975,0.666504 -0.73975,1.809082 0,1.142578 0.73975,1.809082 0.73974,0.666504 2.00683,0.666504 0.59327,0 1.18653,-0.131836 0.58594,-0.131836 1.20117,-0.410156 z m 9.29828,-9.689942 h -2.41699 v 8.342285 l 2.62939,-0.527343 v 1.347656 l -2.61475,0.527344 h -1.47949 v -9.689942 h -2.41699 v -1.245117 h 6.29883 z m 96.92865,71.011229 -3.73535,5.8374 h 3.73535 z m -0.38819,-1.28906 h 1.86036 v 7.12646 h 1.56005 v 1.23047 h -1.56005 v 2.57813 h -1.47217 v -2.57813 h -4.93653 v -1.42822 z m -12.96038,9.68994 h 2.41699 v -8.34228 l -2.6294,0.52734 v -1.34766 l 2.61475,-0.52734 h 1.47949 v 9.68994 h 2.41699 v 1.24512 h -6.29882 z M 455.37851,683.51172 v -1.34766 q 0.55664,0.26367 1.12793,0.40283 0.57129,0.13916 1.1206,0.13916 1.46485,0 2.23389,-0.98144 0.77637,-0.98877 0.88623,-2.99561 -0.4248,0.62989 -1.07666,0.9668 -0.65185,0.33691 -1.44287,0.33691 -1.64062,0 -2.6001,-0.98876 -0.95215,-0.9961 -0.95215,-2.71729 0,-1.68457 0.9961,-2.70264 0.99609,-1.01806 2.65137,-1.01806 1.89697,0 2.89306,1.45752 1.00342,1.45019 1.00342,4.21875 0,2.58545 -1.23047,4.13086 -1.22314,1.53808 -3.2959,1.53808 -0.55664,0 -1.12793,-0.10986 -0.57129,-0.10986 -1.18652,-0.32959 z m 2.94434,-4.63623 q 0.99609,0 1.5747,-0.68115 0.58594,-0.68116 0.58594,-1.86768 0,-1.1792 -0.58594,-1.86035 -0.57861,-0.68848 -1.5747,-0.68848 -0.9961,0 -1.58204,0.68848 -0.57861,0.68115 -0.57861,1.86035 0,1.18652 0.57861,1.86768 0.58594,0.68115 1.58204,0.68115 z m -11.25388,3.61816 h 5.16357 v 1.24512 h -6.94336 v -1.24512 q 0.84229,-0.87158 2.29249,-2.33642 1.45751,-1.47217 1.83105,-1.89698 0.71045,-0.79834 0.98877,-1.34765 0.28564,-0.55664 0.28564,-1.09131 0,-0.87158 -0.61523,-1.4209 -0.60791,-0.54932 -1.58936,-0.54932 -0.6958,0 -1.47216,0.2417 -0.76905,0.2417 -1.64795,0.73243 v -1.49415 q 0.89355,-0.35888 1.66992,-0.54199 0.77637,-0.1831 1.4209,-0.1831 1.69922,0 2.70996,0.84961 1.01074,0.84961 1.01074,2.2705 0,0.67383 -0.25635,1.28174 -0.24902,0.60059 -0.91552,1.4209 -0.18311,0.2124 -1.16456,1.23047 -0.98144,1.01074 -2.76855,2.83447 z M 446.8317,607.0293 q 1.05468,0 1.66259,-0.56397 0.60059,-0.56396 0.60059,-1.55273 0,-0.98877 -0.60059,-1.55274 -0.60791,-0.56396 -1.66259,-0.56396 -1.05469,0 -1.6626,0.56396 -0.60791,0.57129 -0.60791,1.55274 0,0.98877 0.60791,1.55273 0.60058,0.56397 1.6626,0.56397 z m 1.47949,0.62988 q 0.95215,0.23437 1.48681,0.88623 0.52735,0.65186 0.52735,1.58936 0,1.31103 -0.93018,2.07275 -0.9375,0.76172 -2.56347,0.76172 -1.63331,0 -2.56348,-0.76172 -0.93018,-0.76172 -0.93018,-2.07275 0,-0.9375 0.53467,-1.58936 0.52734,-0.65186 1.47217,-0.88623 -1.06934,-0.24902 -1.6626,-0.97412 -0.60058,-0.7251 -0.60058,-1.77246 0,-1.58936 0.97412,-2.43897 0.96679,-0.84961 2.77588,-0.84961 1.80908,0 2.7832,0.84961 0.9668,0.84961 0.9668,2.43897 0,1.04736 -0.60059,1.77246 -0.60059,0.7251 -1.66992,0.97412 z m 0.54199,2.33643 q 0,-0.84961 -0.52734,-1.32569 -0.53467,-0.47607 -1.49414,-0.47607 -0.95215,0 -1.48682,0.47607 -0.54199,0.47608 -0.54199,1.32569 0,0.8496 0.54199,1.32568 0.53467,0.47607 1.48682,0.47607 0.95947,0 1.49414,-0.47607 0.52734,-0.47608 0.52734,-1.32568 z m 9.40817,-6.91407 h -5.16357 v -1.24511 h 6.94336 v 1.24511 q -0.84229,0.87158 -2.29248,2.33643 -1.45752,1.47217 -1.83106,1.89697 -0.71045,0.79834 -0.98877,1.34766 -0.28564,0.55664 -0.28564,1.09131 0,0.87158 0.61523,1.42089 0.60791,0.54932 1.58936,0.54932 0.6958,0 1.47217,-0.2417 0.76904,-0.2417 1.64795,-0.73242 v 1.49414 q -0.89356,0.35889 -1.66993,0.54199 -0.77636,0.18311 -1.42089,0.18311 -1.69922,0 -2.70997,-0.84961 -1.01074,-0.84961 -1.01074,-2.27051 0,-0.67383 0.25635,-1.28174 0.24902,-0.60058 0.91553,-1.4209 0.1831,-0.2124 1.16455,-1.23046 0.98144,-1.01075 2.76855,-2.83448 z m -107.07174,9.68994 h -7.03125 v -0.62988 l 3.96972,-10.30517 h 1.54541 l -3.73535,9.68994 h 5.25147 z m 7.89206,-9.68994 h -5.16358 v -1.24511 h 6.94336 v 1.24511 q -0.84228,0.87158 -2.29248,2.33643 -1.45752,1.47217 -1.83105,1.89697 -0.71045,0.79834 -0.98877,1.34766 -0.28565,0.55664 -0.28565,1.09131 0,0.87158 0.61524,1.42089 0.60791,0.54932 1.58935,0.54932 0.6958,0 1.47217,-0.2417 0.76904,-0.2417 1.64795,-0.73242 v 1.49414 q -0.89356,0.35889 -1.66992,0.54199 -0.77637,0.18311 -1.4209,0.18311 -1.69922,0 -2.70996,-0.84961 -1.01075,-0.84961 -1.01075,-2.27051 0,-0.67383 0.25635,-1.28174 0.24903,-0.60058 0.91553,-1.4209 0.18311,-0.2124 1.16455,-1.23046 0.98145,-1.01075 2.76856,-2.83448 z m -200.75593,69.72217 h 5.80811 v 1.24512 h -4.45312 v 2.68066 q 0.32226,-0.10986 0.64453,-0.16113 0.32226,-0.0586 0.64453,-0.0586 1.83105,0 2.90039,1.00341 1.06933,1.00342 1.06933,2.71729 0,1.76514 -1.09863,2.74658 -1.09863,0.97412 -3.09814,0.97412 -0.68848,0 -1.40625,-0.11719 -0.71045,-0.11718 -1.47217,-0.35156 v -1.48681 q 0.65918,0.35888 1.3623,0.53466 0.70313,0.17578 1.48682,0.17578 1.26709,0 2.00684,-0.6665 0.73974,-0.6665 0.73974,-1.80908 0,-1.14258 -0.73974,-1.80908 -0.73975,-0.66651 -2.00684,-0.66651 -0.59326,0 -1.18652,0.13184 -0.58594,0.13183 -1.20118,0.41015 z m -8.28022,9.68994 h 5.16357 v 1.24512 h -6.94336 v -1.24512 q 0.84229,-0.87158 2.29248,-2.33642 1.45752,-1.47217 1.83106,-1.89698 0.71045,-0.79834 0.98877,-1.34765 0.28564,-0.55664 0.28564,-1.09131 0,-0.87158 -0.61523,-1.4209 -0.60791,-0.54932 -1.58936,-0.54932 -0.6958,0 -1.47217,0.2417 -0.76904,0.2417 -1.64795,0.73243 v -1.49415 q 0.89356,-0.35888 1.66993,-0.54199 0.77636,-0.1831 1.42089,-0.1831 1.69922,0 2.70997,0.84961 1.01074,0.84961 1.01074,2.2705 0,0.67383 -0.25635,1.28174 -0.24902,0.60059 -0.91553,1.4209 -0.1831,0.2124 -1.16455,1.23047 -0.98144,1.01074 -2.76855,2.83447 z m -1.1733,-71.01123 3.73535,-5.8374 h -3.73535 z m 0.38819,1.28906 h -1.86036 v -7.12646 H 145.84 v -1.23047 h 1.56005 v -2.57812 h 1.47217 v 2.57812 h 4.93653 v 1.42822 z m 11.94233,-9.68994 h -5.16357 v -1.24511 h 6.94336 v 1.24511 q -0.84229,0.87158 -2.29248,2.33643 -1.45752,1.47217 -1.83106,1.89697 -0.71045,0.79834 -0.98877,1.34766 -0.28564,0.55664 -0.28564,1.09131 0,0.87158 0.61523,1.42089 0.60791,0.54932 1.58936,0.54932 0.6958,0 1.47217,-0.2417 0.76904,-0.2417 1.64795,-0.73242 v 1.49414 q -0.89356,0.35889 -1.66993,0.54199 -0.77636,0.18311 -1.42089,0.18311 -1.69922,0 -2.70996,-0.84961 -1.01075,-0.84961 -1.01075,-2.27051 0,-0.67383 0.25635,-1.28174 0.24902,-0.60058 0.91553,-1.4209 0.1831,-0.2124 1.16455,-1.23046 0.98144,-1.01075 2.76855,-2.83448 z m 100.58687,74.76123 q 1.06201,0.22705 1.65528,0.94483 0.60058,0.71777 0.60058,1.77246 0,1.61865 -1.11328,2.50488 -1.11328,0.88623 -3.16406,0.88623 -0.68848,0 -1.4209,-0.13916 -0.7251,-0.13183 -1.50147,-0.40283 v -1.42822 q 0.61524,0.35888 1.34766,0.54199 0.73242,0.1831 1.53076,0.1831 1.3916,0 2.1167,-0.54931 0.73242,-0.54932 0.73242,-1.59668 0,-0.9668 -0.68115,-1.50879 -0.67383,-0.54932 -1.88232,-0.54932 h -1.27442 v -1.21582 h 1.33301 q 1.09131,0 1.66992,-0.43213 0.57862,-0.43945 0.57862,-1.25976 0,-0.84229 -0.60059,-1.28906 -0.59326,-0.45411 -1.70654,-0.45411 -0.60791,0 -1.30371,0.13184 -0.69581,0.13184 -1.53077,0.41016 v -1.31836 q 0.84229,-0.23438 1.57471,-0.35157 0.73975,-0.11718 1.3916,-0.11718 1.68457,0 2.66602,0.76904 0.98144,0.76172 0.98144,2.06543 0,0.9082 -0.52002,1.53809 -0.52002,0.62255 -1.47949,0.86425 z m -12.748,4.65088 h 5.16357 v 1.24512 h -6.94335 v -1.24512 q 0.84228,-0.87158 2.29248,-2.33642 1.45752,-1.47217 1.83105,-1.89698 0.71045,-0.79834 0.98877,-1.34765 0.28564,-0.55664 0.28564,-1.09131 0,-0.87158 -0.61523,-1.4209 -0.60791,-0.54932 -1.58936,-0.54932 -0.6958,0 -1.47216,0.2417 -0.76905,0.2417 -1.64795,0.73243 v -1.49415 q 0.89355,-0.35888 1.66992,-0.54199 0.77637,-0.1831 1.4209,-0.1831 1.69922,0 2.70996,0.84961 1.01074,0.84961 1.01074,2.2705 0,0.67383 -0.25635,1.28174 -0.24902,0.60059 -0.91552,1.4209 -0.18311,0.2124 -1.16455,1.23047 -0.98145,1.01074 -2.76856,2.83447 z m 108.73924,0 h 5.16358 v 1.24512 h -6.94336 v -1.24512 q 0.84228,-0.87158 2.29248,-2.33642 1.45752,-1.47217 1.83105,-1.89698 0.71045,-0.79834 0.98877,-1.34765 0.28565,-0.55664 0.28565,-1.09131 0,-0.87158 -0.61524,-1.4209 -0.60791,-0.54932 -1.58935,-0.54932 -0.6958,0 -1.47217,0.2417 -0.76904,0.2417 -1.64795,0.73243 v -1.49415 q 0.89355,-0.35888 1.66992,-0.54199 0.77637,-0.1831 1.4209,-0.1831 1.69922,0 2.70996,0.84961 1.01074,0.84961 1.01074,2.2705 0,0.67383 -0.25634,1.28174 -0.24903,0.60059 -0.91553,1.4209 -0.18311,0.2124 -1.16455,1.23047 -0.98145,1.01074 -2.76856,2.83447 z m -9.54001,0 h 5.16358 v 1.24512 h -6.94336 v -1.24512 q 0.84228,-0.87158 2.29248,-2.33642 1.45752,-1.47217 1.83105,-1.89698 0.71045,-0.79834 0.98877,-1.34765 0.28565,-0.55664 0.28565,-1.09131 0,-0.87158 -0.61524,-1.4209 -0.60791,-0.54932 -1.58935,-0.54932 -0.6958,0 -1.47217,0.2417 -0.76904,0.2417 -1.64795,0.73243 v -1.49415 q 0.89356,-0.35888 1.66992,-0.54199 0.77637,-0.1831 1.4209,-0.1831 1.69922,0 2.70996,0.84961 1.01075,0.84961 1.01075,2.2705 0,0.67383 -0.25635,1.28174 -0.24903,0.60059 -0.91553,1.4209 -0.18311,0.2124 -1.16455,1.23047 -0.98145,1.01074 -2.76856,2.83447 z m -96.78269,-79.41211 h -2.417 v 8.34229 l 2.6294,-0.52735 v 1.34766 l -2.61475,0.52734 h -1.47949 v -9.68994 h -2.41699 v -1.24511 h 6.29883 z m 8.52195,0 h -5.16357 v -1.24511 h 6.94336 v 1.24511 q -0.84229,0.87158 -2.29248,2.33643 -1.45752,1.47217 -1.83106,1.89697 -0.71045,0.79834 -0.98877,1.34766 -0.28564,0.55664 -0.28564,1.09131 0,0.87158 0.61523,1.42089 0.60791,0.54932 1.58936,0.54932 0.6958,0 1.47217,-0.2417 0.76904,-0.2417 1.64795,-0.73242 v 1.49414 q -0.89356,0.35889 -1.66993,0.54199 -0.77636,0.18311 -1.42089,0.18311 -1.69922,0 -2.70997,-0.84961 -1.01074,-0.84961 -1.01074,-2.27051 0,-0.67383 0.25635,-1.28174 0.24902,-0.60058 0.91553,-1.4209 0.1831,-0.2124 1.16455,-1.23046 0.98144,-1.01075 2.76855,-2.83448 z m -111.91751,-496.05967 0.007,-5.80809 1.24512,0.002 -0.006,4.45311 2.68065,0.003 q -0.10945,-0.3224 -0.16031,-0.64473 -0.0582,-0.32233 -0.0578,-0.6446 0.002,-1.83105 1.00709,-2.89912 1.00477,-1.06806 2.71864,-1.06589 1.76514,0.002 2.74519,1.10212 0.97272,1.09987 0.97019,3.09938 -8.8e-4,0.68848 -0.11897,1.4061 -0.11809,0.7103 -0.35344,1.47172 l -1.4868,-0.002 q 0.35971,-0.65872 0.53638,-1.36163 0.17669,-0.70289 0.17768,-1.48658 0.002,-1.26709 -0.66396,-2.00769 -0.66557,-0.74058 -1.80814,-0.74203 -1.14258,-0.001 -1.81002,0.73744 -0.66745,0.73891 -0.66906,2.006 -7.5e-4,0.59325 0.13034,1.18668 0.13109,0.58611 0.40863,1.20169 z m -31.68964,-6.82332 3.74277,-5.832654 -3.73536,-0.0047 z m 0.38656,1.28956 -1.86035,-0.002 0.009,-7.12646 -1.56006,-0.002 0.002,-1.230467 1.56006,0.002 0.003,-2.578123 1.47216,0.0019 -0.003,2.578123 4.93653,0.0063 -0.002,1.428221 z m -33.765813,6.01622 q -0.228398,1.06173 -0.946924,1.65407 -0.718535,0.59968 -1.773222,0.59835 -1.61865,-0.002 -2.503467,-1.11647 -0.884818,-1.1144 -0.882217,-3.16518 8.74e-4,-0.68847 0.140963,-1.42073 0.132756,-0.72492 0.404736,-1.50094 l 1.428222,0.002 q -0.359667,0.61477 -0.543701,1.34696 -0.184035,0.7322 -0.185048,1.53054 -0.0018,1.3916 0.546631,2.11739 0.548387,0.73312 1.595749,0.73445 0.966796,0.001 1.509652,-0.67924 0.550171,-0.67313 0.551704,-1.88163 l 0.0016,-1.27441 1.215819,0.002 -0.0017,1.333 q -0.0014,1.09131 0.43001,1.67048 0.438719,0.57917 1.259031,0.58021 0.842284,0.001 1.289823,-0.59896 0.454854,-0.59268 0.456267,-1.70596 7.71e-4,-0.60791 -0.130182,-1.30388 -0.130954,-0.69596 -0.408214,-1.53128 l 1.318358,0.002 q 0.233306,0.84257 0.349564,1.57515 0.116249,0.73989 0.115422,1.39175 -0.0021,1.68457 -0.772424,2.66503 -0.762964,0.98048 -2.066674,0.97883 -0.908202,-10e-4 -1.537425,-0.52197 -0.621898,-0.52081 -0.862379,-1.48059 z m -4.686544,27.07496 -0.0066,5.16358 -1.245116,-0.002 0.0088,-6.94336 1.245116,0.002 q 0.870513,0.84339 2.333516,2.29544 1.470318,1.45939 1.894648,1.83346 0.797438,0.71146 1.346401,0.99048 0.556278,0.28635 1.090946,0.28703 0.871581,0.001 1.421677,-0.61343 0.550087,-0.60722 0.551332,-1.58866 8.83e-4,-0.6958 -0.239831,-1.47247 -0.240724,-0.76935 -0.730331,-1.64888 l 1.49414,0.002 q 0.357753,0.894 0.539873,1.6706 0.182121,0.7766 0.181303,1.42113 -0.0022,1.69922 -0.853047,2.70888 -0.850891,1.00966 -2.271789,1.00786 -0.673827,-8.5e-4 -1.281411,-0.25796 -0.60027,-0.2498 -1.419736,-0.91734 -0.21217,-0.18337 -1.22899,-1.16611 -1.009497,-0.98273 -2.830959,-2.77215 z m 38.293987,12.04673 2.417,0.003 0.0106,-8.34228 -2.63007,0.52401 0.002,-1.34766 2.61542,-0.52402 1.47949,0.002 -0.0123,9.68994 2.41698,0.003 -0.002,1.24512 -6.29883,-0.008 z m 32.40258,-12.35013 q -10e-4,1.14257 1.12575,1.72262 1.11988,0.57271 3.37573,0.57557 2.24854,0.003 3.37719,-0.56701 1.12135,-0.57719 1.1228,-1.71976 0.001,-1.14991 -1.11843,-1.72262 -1.12719,-0.58004 -3.37573,-0.5829 -2.25585,-0.003 -3.37719,0.57433 -1.12866,0.56986 -1.13012,1.71977 z m -1.17187,-0.001 q 0.002,-1.83838 1.46107,-2.80333 1.45144,-0.97228 4.21998,-0.96876 2.76124,0.004 4.21752,0.97947 1.44897,0.96864 1.44664,2.80701 -0.002,1.83838 -1.45377,2.81066 -1.45874,0.96494 -4.21997,0.96144 -2.76855,-0.004 -4.21752,-0.97214 -1.45628,-0.97597 -1.45395,-2.81435 z m -15.63963,411.89747 q 0.22499,-1.06245 0.9416,-1.65712 0.71661,-0.60197 1.77129,-0.60402 1.61866,-0.003 2.50705,1.1084 0.88839,1.11155 0.89238,3.16233 0.001,0.68848 -0.13639,1.42117 -0.13043,0.72535 -0.39992,1.50225 l -1.42822,0.003 q 0.3577,-0.61594 0.53937,-1.34871 0.18169,-0.73278 0.18013,-1.53112 -0.003,-1.3916 -0.55343,-2.11563 -0.55074,-0.73134 -1.59811,-0.72931 -0.96678,0.002 -1.50746,0.68409 -0.548,0.67489 -0.54565,1.88338 l 0.002,1.27442 -1.21581,0.002 -0.003,-1.33301 q -0.002,-1.09131 -0.43538,-1.66908 -0.44057,-0.57776 -1.26089,-0.57617 -0.84228,0.002 -1.28789,0.6031 -0.45294,0.59414 -0.45078,1.70742 10e-4,0.60791 0.13437,1.30345 0.13319,0.69554 0.41314,1.52997 l -1.31836,0.003 q -0.23601,-0.84184 -0.35462,-1.57403 -0.11863,-0.73952 -0.1199,-1.39137 -0.003,-1.68456 0.76385,-2.66751 0.75981,-0.98292 2.06352,-0.98545 0.90821,-0.002 1.5391,0.51702 0.62357,0.51881 0.86713,1.47781 z m 4.67766,13.75703 -0.005,-2.41698 -8.34228,0.0162 0.53247,2.62836 -1.34766,0.003 -0.53243,-2.61371 -0.003,-1.47949 9.68993,-0.0189 -0.005,-2.41699 1.24511,-0.002 0.0123,6.29882 z m -45.557285,-8.86004 q 1.142577,-0.002 1.718994,-1.13128 0.569108,-1.12171 0.564718,-3.37757 -0.0044,-2.24853 -0.577857,-3.37535 -0.580792,-1.11947 -1.723369,-1.11725 -1.1499,0.002 -1.719008,1.12395 -0.576417,1.12905 -0.572042,3.37759 0.0044,2.25586 0.585182,3.37533 0.573482,1.12681 1.723382,1.12458 z m 0.0023,1.17187 q -1.838374,0.004 -2.808005,-1.45205 -0.976941,-1.44831 -0.982328,-4.21685 -0.0054,-2.76123 0.965911,-4.22064 0.963973,-1.45208 2.802348,-1.45565 1.838375,-0.004 2.815316,1.44472 0.969631,1.45564 0.975004,4.21686 0.0054,2.76855 -0.958587,4.22063 -0.971283,1.45941 -2.809659,1.46298 z m 8.211417,-5.2528 q -1.062451,-0.22499 -1.657108,-0.9416 -0.601981,-0.71661 -0.604033,-1.77129 -0.0031,-1.61865 1.108405,-2.50705 1.111554,-0.88839 3.162334,-0.89238 0.68847,-10e-4 1.42117,0.13639 0.72534,0.13043 1.50224,0.39991 l 0.003,1.42823 q -0.61593,-0.3577 -1.34871,-0.53938 -0.73278,-0.18167 -1.53112,-0.18012 -1.39159,0.003 -2.115621,0.55344 -0.731351,0.55073 -0.729313,1.5981 0.0019,0.96679 0.684086,1.50745 0.674898,0.54801 1.883388,0.54566 l 1.27441,-0.002 0.002,1.21581 -1.33301,0.003 q -1.0913,0.002 -1.669074,0.43538 -0.577758,0.44057 -0.576162,1.26089 0.0016,0.84228 0.603093,1.28789 0.594143,0.45294 1.707423,0.45078 0.60791,-10e-4 1.30345,-0.13438 0.69555,-0.13318 1.52996,-0.41313 l 0.003,1.31836 q -0.84182,0.23601 -1.57403,0.35462 -0.73951,0.11863 -1.39136,0.1199 -1.684569,0.003 -2.667509,-0.76386 -0.982926,-0.75981 -0.985463,-2.06352 -0.0018,-0.90819 0.517027,-1.53909 0.518806,-0.62357 1.477807,-0.86713 z m -42.068322,11.28609 0.01005,5.16357 -1.245115,0.002 -0.01351,-6.94334 1.245115,-0.002 q 0.873219,0.84059 2.340881,2.28793 1.475001,1.45466 1.900532,1.82736 0.799721,0.7089 1.349577,0.98615 0.557196,0.28456 1.091863,0.28352 0.87158,-0.002 1.419698,-0.618 0.548134,-0.60898 0.546224,-1.59042 -0.0014,-0.6958 -0.244563,-1.47169 -0.243196,-0.76857 -0.735627,-1.64653 l 1.494137,-0.003 q 0.360625,0.89286 0.545241,1.66886 0.184616,0.77601 0.18587,1.42054 0.0033,1.69922 -0.844335,2.71161 -0.847642,1.01239 -2.268537,1.01515 -0.673827,10e-4 -1.282235,-0.25384 -0.601069,-0.24786 -1.422677,-0.91277 -0.212758,-0.18269 -1.232733,-1.16215 -1.012649,-0.97948 -2.839853,-2.76304 z m -0.02054,-10.55802 0.0047,2.41699 8.342269,-0.0162 -0.532459,-2.62836 1.347654,-0.003 0.53243,2.61371 0.0029,1.4795 -9.689923,0.0188 0.0047,2.41699 -1.245115,0.002 -0.01226,-6.29882 z m 8.796788,42.33893 q -0.0022,-1.14258 -1.131275,-1.719 -1.121716,-0.56911 -3.377571,-0.56472 -2.24853,0.004 -3.375347,0.57786 -1.119478,0.58079 -1.117255,1.72337 0.0022,1.1499 1.123953,1.71901 1.129054,0.57641 3.377585,0.57204 2.255854,-0.004 3.375332,-0.58518 1.126816,-0.57349 1.124578,-1.72338 z m 1.171873,-0.002 q 0.0036,1.83837 -1.452058,2.808 -1.448298,0.97694 -4.216847,0.98232 -2.761226,0.005 -4.220637,-0.96591 -1.452074,-0.96396 -1.455651,-2.80234 -0.0036,-1.83838 1.444721,-2.81532 1.455635,-0.96963 4.216861,-0.975 2.768548,-0.005 4.220623,0.95859 1.459411,0.97128 1.462988,2.80966 z m -9.911896,-12.42872 0.0047,2.41699 8.342269,-0.0162 -0.532459,-2.62837 1.347655,-0.003 0.532429,2.61372 0.0029,1.47949 -9.689923,0.0189 0.0047,2.41699 -1.245115,0.002 -0.01226,-6.29882 z m 37.622627,20.57069 -0.0026,-1.34764 q 0.557153,0.26258 1.128712,0.40063 0.571558,0.13805 1.120873,0.13698 1.464841,-0.003 2.231973,-0.98579 0.774443,-0.99028 0.880403,-2.99732 -0.42358,0.6307 -1.07478,0.96889 -0.651198,0.33818 -1.442212,0.33972 -1.640622,0.003 -2.602016,-0.98371 -0.954086,-0.99424 -0.957435,-2.71543 -0.0033,-1.68457 0.990834,-2.70457 0.994111,-1.02 2.649381,-1.02322 1.89697,-0.004 2.895898,1.45188 1.00623,1.44825 1.01162,4.21679 0.005,2.58545 -1.22243,4.13325 -1.220145,1.54047 -3.292895,1.5445 -0.556639,10e-4 -1.128141,-0.10768 -0.571502,-0.10874 -1.187163,-0.32728 z m 2.93531,-4.64195 q 0.996092,-0.002 1.573378,-0.68421 0.584613,-0.68229 0.582303,-1.86882 -0.002,-1.17918 -0.589556,-1.8592 -0.579952,-0.68734 -1.576044,-0.68541 -0.996092,0.002 -1.580688,0.69155 -0.577287,0.68228 -0.574992,1.86147 0.0023,1.18653 0.582245,1.86655 0.587262,0.68001 1.583354,0.67807 z M 132.9684,582.82399 q 0.002,1.05469 0.5672,1.6615 0.56513,0.59949 1.5539,0.59756 0.98877,-0.002 1.55157,-0.60361 0.56277,-0.609 0.56072,-1.66369 -0.002,-1.05468 -0.56719,-1.66149 -0.57248,-0.6068 -1.55392,-0.60489 -0.98877,0.002 -1.55155,0.61093 -0.5628,0.60168 -0.56073,1.66369 z m -0.627,1.48072 q -0.23253,0.95259 -0.88334,1.48853 -0.65083,0.52862 -1.58833,0.53044 -1.31103,0.003 -2.07455,-0.92614 -0.76355,-0.93602 -0.76671,-2.562 -0.003,-1.63329 0.75673,-2.56494 0.75991,-0.93166 2.07094,-0.93421 0.93749,-0.002 1.59039,0.53157 0.65288,0.52607 0.8891,1.47045 0.24693,-1.06983 0.97088,-1.6645 0.72393,-0.602 1.77129,-0.60403 1.58935,-0.003 2.44086,0.96938 0.85149,0.96513 0.85501,2.77421 0.004,1.80909 -0.8442,2.78486 -0.84772,0.96844 -2.43708,0.97153 -1.04736,0.002 -1.77363,-0.59713 -0.72626,-0.59918 -0.97736,-1.66802 z m -2.33537,0.54654 q 0.8496,-0.002 1.32466,-0.52993 0.47503,-0.53559 0.47316,-1.49507 -0.002,-0.95213 -0.47896,-1.48588 -0.47714,-0.54106 -1.32674,-0.53941 -0.84961,0.002 -1.32463,0.54457 -0.47503,0.5356 -0.47317,1.48773 0.002,0.95948 0.47897,1.49322 0.4771,0.52642 1.32671,0.52477 z M 471.1115,410.23024 q 1.14256,-0.004 1.71687,-1.1345 0.567,-1.12277 0.55839,-3.37861 -0.009,-2.24853 -0.58418,-3.37427 -0.58289,-1.11838 -1.72545,-1.11402 -1.14991,0.004 -1.71691,1.12717 -0.5743,1.13013 -0.56572,3.37865 0.009,2.25585 0.5915,3.37423 0.5756,1.12574 1.7255,1.12135 z m 0.004,1.17187 q -1.83837,0.007 -2.81072,-1.4468 -0.97965,-1.44647 -0.99023,-4.215 -0.0105,-2.76121 0.95801,-4.22244 0.96125,-1.45388 2.79962,-1.4609 1.83836,-0.007 2.81802,1.43945 0.97235,1.45382 0.98289,4.21503 0.0106,2.76853 -0.95067,4.22241 -0.96856,1.46123 -2.80692,1.46825 z m 8.20207,-5.26818 q -1.06288,-0.22299 -1.65888,-0.93849 -0.60332,-0.71548 -0.60734,-1.77015 -0.006,-1.61865 1.1037,-2.50913 1.10989,-0.89047 3.16066,-0.8983 0.68847,-0.003 1.42142,0.13373 0.7256,0.12907 1.50298,0.39711 l 0.005,1.42821 q -0.6166,-0.35654 -1.34971,-0.53684 -0.73313,-0.18032 -1.53146,-0.17727 -1.39159,0.005 -2.11458,0.5574 -0.73032,0.5521 -0.72632,1.59947 0.004,0.96678 0.68691,1.50617 0.67591,0.54674 1.88441,0.54212 l 1.2744,-0.005 0.005,1.21581 -1.33299,0.005 q -1.0913,0.004 -1.66827,0.4385 -0.57693,0.44166 -0.5738,1.26197 0.003,0.84228 0.60551,1.28676 0.59499,0.45183 1.70826,0.44758 0.60791,-0.002 1.3032,-0.13681 0.69529,-0.13449 1.52918,-0.416 l 0.005,1.31835 q -0.84138,0.23758 -1.57335,0.35757 -0.7393,0.12001 -1.39115,0.1225 -1.68456,0.006 -2.66893,-0.75885 -0.98435,-0.75797 -0.98933,-2.06167 -0.003,-0.9082 0.51415,-1.54006 0.51764,-0.62454 1.47619,-0.86991 z m -41.87118,58.40127 0.009,2.41697 8.34223,-0.0319 -0.53738,-2.62736 1.34765,-0.005 0.53732,2.61271 0.006,1.47948 -9.68987,0.037 0.009,2.41698 -1.24511,0.005 -0.0241,-6.29879 z m -0.0364,-9.53994 0.009,2.41697 8.34222,-0.0319 -0.53738,-2.62735 1.34765,-0.005 0.53732,2.61271 0.006,1.47949 -9.68987,0.037 0.009,2.41697 -1.2451,0.005 -0.024,-6.29878 z m 37.63632,55.85049 7.0312,-0.0268 0.002,0.62988 -3.93034,10.32025 -1.5454,0.006 3.69833,-9.70414 -5.25144,0.0201 z m 36.98321,-51.14537 q 0.004,0.99609 0.68718,1.57942 0.68336,0.57602 1.86987,0.57149 1.17919,-0.005 1.86546,-0.58575 0.6789,-0.58854 0.6751,-1.58462 -0.004,-0.99608 -0.68716,-1.5721 -0.69071,-0.58329 -1.8699,-0.57879 -1.18651,0.005 -1.86542,0.59305 -0.67894,0.58122 -0.67513,1.5773 z m -4.64741,-2.91928 1.34764,-0.005 q -0.26155,0.55765 -0.39852,1.12946 -0.13701,0.56449 -0.13488,1.12113 0.006,1.46484 0.99732,2.23742 0.9917,0.76526 2.99161,0.86749 -0.63885,-0.4297 -0.97825,-1.08026 -0.34673,-0.65054 -0.34972,-1.43422 -0.006,-1.64794 0.99348,-2.60391 0.99242,-0.96327 2.7136,-0.96984 1.68457,-0.006 2.70642,0.98576 1.02187,0.99221 1.02819,2.64746 0.007,1.89696 -1.43911,2.90591 -1.45368,1.00898 -4.21489,1.01952 -2.59275,0.01 -4.13553,-1.21469 -1.5501,-1.22456 -1.55801,-3.29729 -0.002,-0.55664 0.10559,-1.12102 0.10768,-0.57171 0.32506,-1.18777 z m 99.90904,2.89309 -1.34766,-3.1e-4 q 0.26381,-0.55658 0.4031,-1.12784 0.13929,-0.57126 0.13941,-1.12057 3.4e-4,-1.46485 -0.98094,-2.23411 -0.98859,-0.77659 -2.9954,-0.88691 0.62979,0.42494 0.96655,1.07688 0.33677,0.65194 0.33659,1.44295 -3.7e-4,1.64063 -0.98936,2.59987 -0.99632,0.95193 -2.71751,0.95153 -1.68457,-3.8e-4 -2.70241,-0.99671 -1.01783,-0.99632 -1.01746,-2.65159 4.3e-4,-1.89698 1.45818,-2.89274 1.45042,-1.00309 4.21898,-1.00246 2.58545,5.9e-4 4.13058,1.23141 1.5378,1.2235 1.53733,3.29625 -1.3e-4,0.55664 -0.11012,1.1279 -0.10999,0.57127 -0.32986,1.18645 z m -4.63556,-2.94539 q 2.3e-4,-0.9961 -0.68079,-1.57486 -0.68103,-0.5861 -1.86755,-0.58637 -1.1792,-2.6e-4 -1.86048,0.58552 -0.68861,0.57846 -0.68884,1.57455 -2.2e-4,0.99609 0.68812,1.58219 0.68102,0.57877 1.86022,0.57903 1.18652,2.7e-4 1.86781,-0.57818 0.68129,-0.58579 0.68151,-1.58188 z m 3.6156,11.2547 10e-4,-5.16357 1.24512,2.8e-4 -0.002,6.94336 -1.24512,-2.8e-4 q -0.87139,-0.84249 -2.3359,-2.29301 -1.47184,-1.45786 -1.89655,-1.8315 -0.79818,-0.71063 -1.34744,-0.98907 -0.55657,-0.28577 -1.09124,-0.28589 -0.87158,-2e-4 -1.42104,0.61491 -0.54945,0.60778 -0.54968,1.58923 -1.5e-4,0.6958 0.24136,1.47223 0.24153,0.76909 0.73206,1.64811 l -1.49414,-3.4e-4 q -0.35869,-0.89364 -0.54163,-1.67005 -0.18292,-0.7764 -0.18277,-1.42094 3.8e-4,-1.69921 0.85022,-2.70977 0.84984,-1.01055 2.27074,-1.01022 0.67382,1.5e-4 1.28168,0.25664 0.60053,0.24916 1.42069,0.91585 0.21236,0.18315 1.2302,1.16483 1.01052,0.98167 2.83384,2.7692 z m -256.58835,0.17936 q 2.4e-4,-1.05468 -0.5636,-1.66272 -0.56382,-0.60072 -1.55259,-0.60094 -0.98877,-2.3e-4 -1.55288,0.60023 -0.56409,0.60778 -0.56433,1.66246 -2.4e-4,1.05469 0.56358,1.66273 0.57115,0.60804 1.5526,0.60827 0.98877,2.2e-4 1.55287,-0.60756 0.5641,-0.60045 0.56435,-1.66247 z m 0.63021,-1.47935 q 0.23459,-0.9521 0.88657,-1.48662 0.65197,-0.52719 1.58947,-0.52698 1.31104,3e-4 2.07255,0.93065 0.76151,0.93768 0.76114,2.56365 -3.8e-4,1.6333 -0.76231,2.5633 -0.76193,0.93001 -2.07297,0.92971 -0.9375,-2.1e-4 -1.58923,-0.53503 -0.65174,-0.5275 -0.88589,-1.47237 -0.24928,1.06928 -0.9745,1.66238 -0.72524,0.60041 -1.7726,0.60018 -1.58936,-3.7e-4 -2.43875,-0.97468 -0.84939,-0.96698 -0.84897,-2.77607 4.1e-4,-1.80908 0.85024,-2.78301 0.84983,-0.96661 2.43919,-0.96624 1.04736,2.3e-4 1.77232,0.60099 0.72496,0.60075 0.97374,1.67014 z m 2.33655,-0.54146 q -0.84961,-1.9e-4 -1.3258,0.52704 -0.4762,0.53456 -0.47641,1.49403 -2.2e-4,0.95215 0.47573,1.48693 0.47594,0.5421 1.32555,0.54229 0.84961,1.9e-4 1.32582,-0.54169 0.47619,-0.53456 0.47641,-1.48671 2.1e-4,-0.95947 -0.47573,-1.49425 -0.47596,-0.52744 -1.32557,-0.52764 z m -6.91193,-9.40974 -10e-4,5.16357 -1.24512,-2.8e-4 0.002,-6.94336 1.24512,2.8e-4 q 0.87139,0.84249 2.33591,2.29301 1.47184,1.45786 1.89655,1.83149 0.79818,0.71063 1.34744,0.98908 0.55657,0.28577 1.09123,0.28589 0.87159,2e-4 1.42104,-0.61491 0.54946,-0.60778 0.54968,-1.58923 1.6e-4,-0.6958 -0.24136,-1.47223 -0.24153,-0.76909 -0.73205,-1.64812 l 1.49414,3.4e-4 q 0.35869,0.89364 0.54161,1.67006 0.18294,0.7764 0.18279,1.42093 -3.9e-4,1.69922 -0.85023,2.70976 -0.84984,1.01056 -2.27074,1.01024 -0.67383,-1.5e-4 -1.28168,-0.25664 -0.60052,-0.24916 -1.42069,-0.91586 -0.21236,-0.18314 -1.23021,-1.16483 -1.01051,-0.98167 -2.83384,-2.76919 z m -54.08364,-52.1214 7.03125,0.002 -1.4e-4,0.62988 -3.97206,10.30427 -1.54541,-3.5e-4 3.73755,-9.68909 -5.25147,-10e-4 z m -7.89423,9.68815 5.16358,10e-4 -2.8e-4,1.24511 -6.94336,-0.002 2.8e-4,-1.24511 q 0.84248,-0.87139 2.29301,-2.33591 1.45786,-1.47183 1.83148,-1.89655 0.71063,-0.79818 0.98908,-1.34743 0.28578,-0.55658 0.2859,-1.09125 2e-4,-0.87158 -0.61492,-1.42103 -0.60778,-0.54946 -1.58922,-0.54968 -0.6958,-1.6e-4 -1.47223,0.24136 -0.76909,0.24153 -1.64812,0.73205 l 3.4e-4,-1.49414 q 0.89365,-0.35869 1.67005,-0.54161 0.77641,-0.18293 1.42094,-0.18279 1.69922,3.9e-4 2.70977,0.85023 1.01054,0.84984 1.01022,2.27074 -1.5e-4,0.67383 -0.25663,1.28168 -0.24917,0.60052 -0.91586,1.42069 -0.18315,0.21236 -1.16483,1.2302 -0.98168,1.01052 -2.7692,2.83385 z m 66.8265,-107.30302 q 2.3e-4,-0.99609 -0.6808,-1.58219 -0.68102,-0.57876 -1.86754,-0.57903 -1.1792,-2.7e-4 -1.86781,0.57818 -0.68128,0.58579 -0.68151,1.58188 -2.3e-4,0.99609 0.68079,1.57486 0.68835,0.5861 1.86755,0.58637 1.18652,2.7e-4 1.8678,-0.58552 0.68129,-0.57846 0.68152,-1.57455 z m 4.63556,2.93806 -1.34766,-3e-4 q 0.2638,-0.55658 0.40309,-1.12784 0.13929,-0.56393 0.13941,-1.12057 3.4e-4,-1.46485 -0.98826,-2.24144 -0.98859,-0.76927 -2.98808,-0.87958 0.63711,0.43227 0.97388,1.0842 0.34409,0.65194 0.34391,1.43563 -3.8e-4,1.64795 -1.00401,2.59987 -0.99631,0.95924 -2.7175,0.95885 -1.68457,-3.8e-4 -2.70241,-0.99671 -1.01784,-0.99633 -1.01746,-2.6516 4.3e-4,-1.89697 1.45085,-2.90006 1.45775,-1.00309 4.21898,-1.00246 2.59277,5.9e-4 4.13058,1.23141 1.54513,1.23082 1.54466,3.30357 -1.3e-4,0.55664 -0.11012,1.12059 -0.11,0.57126 -0.32986,1.18644 z m -9.44493,-14.55192 -10e-4,5.16357 -1.24512,-2.8e-4 0.002,-6.94336 1.24512,2.8e-4 q 0.87139,0.84249 2.3359,2.29302 1.47184,1.45785 1.89656,1.83149 0.79818,0.71063 1.34743,0.98907 0.55658,0.28577 1.09125,0.28589 0.87158,2e-4 1.42104,-0.61491 0.54944,-0.60778 0.54967,-1.58923 1.6e-4,-0.6958 -0.24137,-1.47223 -0.24152,-0.76909 -0.73204,-1.6481 l 1.49414,3.4e-4 q 0.35868,0.89363 0.54162,1.67004 0.18292,0.7764 0.18277,1.42094 -3.8e-4,1.69921 -0.85022,2.70977 -0.84984,1.01055 -2.27074,1.01022 -0.67382,-1.5e-4 -1.28167,-0.25664 -0.60054,-0.24915 -1.42069,-0.91585 -0.21237,-0.18315 -1.23021,-1.16483 -1.01052,-0.98167 -2.83384,-2.7692 z m 314.17818,224.73847 -5.8081,-10e-4 2.9e-4,-1.24512 4.45312,10e-4 6.1e-4,-2.68066 q -0.32229,0.10979 -0.64457,0.16098 -0.32227,0.0585 -0.64454,0.0585 -1.83105,-4.2e-4 -2.90017,-1.00408 -1.06911,-1.00367 -1.06872,-2.71754 4e-4,-1.76513 1.09927,-2.74633 1.09885,-0.97387 3.09836,-0.97341 0.68848,1.6e-4 1.40622,0.11751 0.71042,0.11734 1.47209,0.35189 l -3.4e-4,1.48682 q -0.65909,-0.35904 -1.36217,-0.53498 -0.70309,-0.17594 -1.48678,-0.17611 -1.26709,-2.9e-4 -2.007,0.66604 -0.73989,0.66633 -0.74015,1.80891 -2.6e-4,1.14258 0.73933,1.80925 0.7396,0.66668 2.00669,0.66697 0.59326,1.3e-4 1.18655,-0.13157 0.58597,-0.1317 1.20126,-0.40988 z m 8.28243,-9.68806 -5.16358,-10e-4 2.8e-4,-1.24512 6.94336,0.002 -2.8e-4,1.24512 q -0.84248,0.87138 -2.29301,2.33589 -1.45786,1.47184 -1.83149,1.89657 -0.71063,0.79818 -0.98907,1.34742 -0.28578,0.55658 -0.2859,1.09125 -2e-4,0.87158 0.61492,1.42104 0.60778,0.54946 1.58922,0.54968 0.6958,1.6e-4 1.47223,-0.24137 0.76909,-0.24152 1.64811,-0.73204 l -3.4e-4,1.49414 q -0.89364,0.35868 -1.67004,0.54161 -0.77641,0.18292 -1.42094,0.18278 -1.69922,-3.9e-4 -2.70977,-0.85022 -1.01055,-0.84984 -1.01022,-2.27074 1.5e-4,-0.67383 0.25663,-1.28168 0.24917,-0.60053 0.91585,-1.42069 0.18316,-0.21236 1.16483,-1.23021 0.98168,-1.01052 2.76921,-2.83384 z m -385.66441,8.3151 3.73667,-5.83656 -3.73535,-8.4e-4 z m 0.38788,1.28914 -1.86035,-4.2e-4 0.002,-7.12646 -1.56006,-3.5e-4 2.8e-4,-1.23047 1.56006,3.5e-4 5.9e-4,-2.57813 1.47217,3.4e-4 -5.9e-4,2.57813 4.93652,10e-4 -3.2e-4,1.42822 z m 11.94457,-9.68722 -5.16358,-10e-4 2.8e-4,-1.24512 6.94336,0.002 -2.8e-4,1.24512 q -0.84248,0.87139 -2.29302,2.33591 -1.45785,1.47184 -1.83148,1.89656 -0.71063,0.79817 -0.98907,1.34743 -0.28578,0.55658 -0.2859,1.09125 -2e-4,0.87158 0.61492,1.42103 0.60778,0.54945 1.58922,0.54968 0.6958,1.6e-4 1.47223,-0.24137 0.76909,-0.24152 1.64811,-0.73204 l -3.4e-4,1.49414 q -0.89364,0.35868 -1.67004,0.54161 -0.77641,0.18293 -1.42094,0.18278 -1.69922,-3.8e-4 -2.70977,-0.85022 -1.01055,-0.84984 -1.01022,-2.27074 1.5e-4,-0.67383 0.25663,-1.28168 0.24916,-0.60053 0.91585,-1.4207 0.18316,-0.21235 1.16483,-1.2302 0.98168,-1.01052 2.76921,-2.83384 z m 429.04792,-40.69538 q -0.2273,1.06197 -0.9452,1.65507 -0.71792,0.60042 -1.7726,0.60018 -1.61866,-3.7e-4 -2.50463,-1.11385 -0.88598,-1.11349 -0.88551,-3.16427 1.5e-4,-0.68848 0.13948,-1.42086 0.132,-0.72507 0.40318,-1.50137 l 1.42822,3.2e-4 q -0.35903,0.61515 -0.5423,1.34753 -0.18327,0.73238 -0.18345,1.53072 -3.2e-4,1.39161 0.54883,2.11682 0.54915,0.73256 1.59652,0.7328 0.96679,2.2e-4 1.50894,-0.68082 0.54947,-0.67371 0.54974,-1.8822 l 2.9e-4,-1.27442 1.21582,2.8e-4 -3e-4,1.33301 q -2.5e-4,1.09131 0.43175,1.67002 0.43932,0.57872 1.25964,0.5789 0.84228,2e-4 1.28919,-0.60029 0.45424,-0.59316 0.45449,-1.70644 1.4e-4,-0.60791 -0.13154,-1.30374 -0.13167,-0.69583 -0.4098,-1.53085 l 1.31836,3e-4 q 0.23417,0.84233 0.3512,1.57478 0.11702,0.73977 0.11687,1.39162 -3.8e-4,1.68458 -0.76965,2.66585 -0.76194,0.98128 -2.06565,0.98098 -0.90821,-2.1e-4 -1.53797,-0.52037 -0.62244,-0.52016 -0.86392,-1.4797 z m -4.64799,-12.74906 -10e-4,5.16357 -1.24511,-2.9e-4 0.002,-6.94336 1.24511,2.9e-4 q 0.87139,0.84248 2.33591,2.29301 1.47184,1.45785 1.89655,1.83149 0.79818,0.71063 1.34744,0.98907 0.55657,0.28577 1.09124,0.28589 0.87158,2e-4 1.42103,-0.6149 0.54946,-0.60779 0.54968,-1.58924 1.6e-4,-0.6958 -0.24136,-1.47222 -0.24153,-0.7691 -0.73205,-1.64812 l 1.49414,3.4e-4 q 0.35869,0.89364 0.54161,1.67005 0.18294,0.7764 0.18279,1.42094 -3.9e-4,1.69921 -0.85023,2.70977 -0.84984,1.01055 -2.27074,1.01022 -0.67383,-1.5e-4 -1.28168,-0.25664 -0.60052,-0.24915 -1.42069,-0.91585 -0.21236,-0.18315 -1.23019,-1.16483 -1.01053,-0.98167 -2.83386,-2.76919 z m -52.33377,-42.51871 5.16357,10e-4 -2.8e-4,1.24512 -6.94336,-0.002 2.8e-4,-1.24512 q 0.84249,-0.87139 2.29301,-2.3359 1.45786,-1.47184 1.83149,-1.89656 0.71063,-0.79818 0.98908,-1.34743 0.28577,-0.55657 0.28589,-1.09124 2e-4,-0.87158 -0.61491,-1.42104 -0.60778,-0.54946 -1.58923,-0.54968 -0.6958,-1.6e-4 -1.47223,0.24136 -0.76909,0.24153 -1.64812,0.73206 l 3.4e-4,-1.49415 q 0.89365,-0.35868 1.67006,-0.54161 0.7764,-0.18292 1.42094,-0.18278 1.69921,3.9e-4 2.70977,0.85023 1.01054,0.84984 1.01022,2.27073 -1.5e-4,0.67383 -0.25664,1.28168 -0.24916,0.60053 -0.91586,1.42069 -0.18314,0.21236 -1.16483,1.23021 -0.98167,1.01051 -2.76919,2.83384 z m -9.53998,-0.002 5.16357,10e-4 -2.8e-4,1.24512 -6.94336,-0.002 2.8e-4,-1.24512 q 0.84249,-0.87139 2.29302,-2.3359 1.45785,-1.47183 1.83148,-1.89656 0.71063,-0.79818 0.98908,-1.34742 0.28577,-0.55658 0.28589,-1.09125 2e-4,-0.87158 -0.61491,-1.42104 -0.60778,-0.54946 -1.58923,-0.54968 -0.6958,-1.6e-4 -1.47222,0.24136 -0.7691,0.24153 -1.64812,0.73206 l 3.4e-4,-1.49415 q 0.89364,-0.35868 1.67005,-0.54161 0.77641,-0.18292 1.42094,-0.18278 1.69922,3.9e-4 2.70977,0.85023 1.01054,0.84984 1.01022,2.27073 -1.5e-4,0.67383 -0.25664,1.28168 -0.24916,0.60053 -0.91585,1.42069 -0.18315,0.21236 -1.16484,1.23021 -0.98166,1.01051 -2.76919,2.83384 z m -424.72387,44.82622 5.5e-4,-2.41699 -8.34228,-0.002 0.52674,2.62952 -1.34766,-3e-4 -0.52675,-2.61487 3.4e-4,-1.47949 9.68994,0.002 5.5e-4,-2.417 1.24512,2.8e-4 -0.001,6.29883 z m -0.002,8.52194 0.001,-5.16357 1.24512,2.8e-4 -0.002,6.94336 -1.24512,-2.8e-4 q -0.87139,-0.84249 -2.3359,-2.29301 -1.47184,-1.45785 -1.89657,-1.83149 -0.79817,-0.71062 -1.34742,-0.98907 -0.55658,-0.28577 -1.09125,-0.2859 -0.87158,-1.9e-4 -1.42104,0.61492 -0.54945,0.60779 -0.54968,1.58923 -1.6e-4,0.6958 0.24137,1.47222 0.24152,0.7691 0.73204,1.64812 l -1.49414,-3.4e-4 q -0.35867,-0.89364 -0.54161,-1.67005 -0.18292,-0.77641 -0.18277,-1.42094 3.8e-4,-1.69922 0.85022,-2.70976 0.84983,-1.01056 2.27073,-1.01024 0.67383,1.6e-4 1.28168,0.25664 0.60054,0.24917 1.42069,0.91586 0.21236,0.18315 1.23021,1.16483 1.01052,0.98168 2.83384,2.76919 z M 656.99905,355.00767 q 1.14258,2.6e-4 1.72145,-1.12754 0.57154,-1.12048 0.57206,-3.37634 5.1e-4,-2.24853 -0.57053,-3.37659 -0.57835,-1.12074 -1.72093,-1.121 -1.1499,-2.6e-4 -1.72145,1.12022 -0.57886,1.1278 -0.57937,3.37633 -5.2e-4,2.25586 0.57784,3.3766 0.57103,1.12806 1.72093,1.12832 z m -2.6e-4,1.17187 q -1.83838,-4.2e-4 -2.80484,-1.45816 -0.97379,-1.45041 -0.97316,-4.21897 6.2e-4,-2.76123 0.97508,-4.21853 0.96712,-1.44997 2.8055,-1.44955 1.83838,4.2e-4 2.81217,1.45083 0.96646,1.45774 0.96584,4.21897 -6.3e-4,2.76856 -0.96776,4.21853 -0.97445,1.4573 -2.81283,1.45688 z m 11.43187,-9.88509 -5.16357,-10e-4 2.9e-4,-1.24512 6.94335,0.002 -2.9e-4,1.24512 q -0.84247,0.87138 -2.29301,2.33589 -1.45785,1.47184 -1.83148,1.89656 -0.71063,0.79818 -0.98907,1.34743 -0.28577,0.55658 -0.28589,1.09125 -2e-4,0.87158 0.6149,1.42104 0.60779,0.54945 1.58924,0.54967 0.6958,1.6e-4 1.47221,-0.24137 0.76911,-0.24151 1.64812,-0.73204 l -3.4e-4,1.49414 q -0.89363,0.35869 -1.67004,0.54162 -0.77641,0.18292 -1.42094,0.18278 -1.69922,-3.9e-4 -2.70977,-0.85023 -1.01055,-0.84984 -1.01022,-2.27074 1.5e-4,-0.67382 0.25664,-1.28167 0.24915,-0.60054 0.91584,-1.42069 0.18316,-0.21237 1.16483,-1.23021 0.98168,-1.01052 2.7692,-2.83384 z m -382.17654,-1.10596 -3.1e-4,1.34766 q -0.55658,-0.2638 -1.12784,-0.40309 -0.57126,-0.13929 -1.12057,-0.13941 -1.46485,-3.4e-4 -2.23411,0.98093 -0.7766,0.98859 -0.88691,2.99541 0.42494,-0.6298 1.07688,-0.96656 0.65192,-0.33676 1.44294,-0.33658 1.64062,3.7e-4 2.59988,0.98936 0.95192,0.99631 0.95153,2.7175 -3.8e-4,1.68457 -0.99671,2.70241 -0.99632,1.01783 -2.65159,1.01746 -1.89698,-4.3e-4 -2.89274,-1.45818 -1.00309,-1.45042 -1.00246,-4.21898 5.8e-4,-2.58544 1.23141,-4.13057 1.22349,-1.53781 3.29625,-1.53734 0.55664,1.3e-4 1.1279,0.11012 0.57127,0.11 1.18645,0.32986 z m -2.94539,4.63556 q -0.9961,-2.3e-4 -1.57486,0.6808 -0.5861,0.68102 -0.58637,1.86754 -2.7e-4,1.1792 0.58552,1.86048 0.57845,0.68861 1.57455,0.68884 0.99609,2.2e-4 1.58219,-0.68812 0.57876,-0.68102 0.57903,-1.86022 2.7e-4,-1.18652 -0.57818,-1.8678 -0.58579,-0.6813 -1.58188,-0.68152 z m 12.27276,-3.61537 -2.41699,-5.5e-4 -0.002,8.34228 2.62951,-0.52674 -3.1e-4,1.34766 -2.61487,0.52674 -1.47949,-3.3e-4 0.002,-9.68994 -2.41699,-5.5e-4 2.9e-4,-1.24512 6.29883,10e-4 z m 427.70427,-38.9964 q 2.4e-4,-1.05469 -0.56358,-1.66273 -0.56384,-0.60071 -1.55261,-0.60093 -0.98877,-2.3e-4 -1.55286,0.60022 -0.56411,0.60778 -0.56435,1.66247 -2.4e-4,1.05469 0.56359,1.66273 0.57115,0.60804 1.55259,0.60827 0.98877,2.2e-4 1.55288,-0.60756 0.5641,-0.60046 0.56434,-1.66247 z m 0.63022,-1.47935 q 0.23459,-0.9521 0.88656,-1.48662 0.65198,-0.52719 1.58948,-0.52698 1.31103,3e-4 2.07254,0.93064 0.76151,0.93768 0.76114,2.56366 -3.7e-4,1.6333 -0.7623,2.5633 -0.76193,0.93 -2.07296,0.9297 -0.9375,-2.1e-4 -1.58924,-0.53502 -0.65173,-0.5275 -0.8859,-1.47237 -0.24926,1.06927 -0.9745,1.66238 -0.72523,0.60041 -1.77259,0.60018 -1.58935,-3.7e-4 -2.43874,-0.97468 -0.84939,-0.96699 -0.84898,-2.77607 4.1e-4,-1.80908 0.85024,-2.78301 0.84983,-0.96661 2.43918,-0.96624 1.04736,2.3e-4 1.77233,0.60099 0.72496,0.60074 0.97374,1.67014 z m 2.33655,-0.54146 q -0.84961,-1.9e-4 -1.3258,0.52704 -0.4762,0.53456 -0.47642,1.49403 -2.2e-4,0.95215 0.47574,1.48693 0.47595,0.5421 1.32556,0.54229 0.84961,1.9e-4 1.3258,-0.54169 0.4762,-0.53456 0.47642,-1.48671 2.2e-4,-0.95947 -0.47574,-1.49425 -0.47595,-0.52745 -1.32556,-0.52764 z m -6.91169,-10.42781 -5.5e-4,2.41699 8.34228,0.002 -0.52674,-2.62951 1.34765,3e-4 0.52675,2.61486 -3.3e-4,1.47949 -9.68994,-0.002 -5.5e-4,2.417 -1.24512,-2.8e-4 10e-4,-6.29883 z m -496.2868,3.54084 0.002,-7.03125 0.62988,1.5e-4 10.30428,3.97207 -3.5e-4,1.54541 -9.6891,-3.73755 -0.001,5.25146 z m 9.68792,8.91234 5.5e-4,-2.41699 -8.34229,-0.002 0.52675,2.62951 -1.34766,-3.1e-4 -0.52675,-2.61486 3.4e-4,-1.4795 9.68994,0.002 5.5e-4,-2.41699 1.24512,2.8e-4 -0.001,6.29883 z m 436.33873,-56.1244 q -0.9961,-2.2e-4 -1.58219,0.68079 -0.57877,0.68102 -0.57904,1.86755 -2.7e-4,1.17919 0.57819,1.8678 0.58578,0.68129 1.58188,0.68151 0.99609,2.3e-4 1.57485,-0.68079 0.5861,-0.68835 0.58637,-1.86754 2.7e-4,-1.18653 -0.58552,-1.86781 -0.57845,-0.68128 -1.57454,-0.68151 z m 2.93806,-4.63556 -3e-4,1.34765 q -0.55658,-0.2638 -1.12784,-0.40309 -0.56394,-0.13928 -1.12058,-0.13941 -1.46484,-3.3e-4 -2.24144,0.98826 -0.76926,0.98859 -0.87958,2.98808 0.43227,-0.63711 1.08421,-0.97387 0.65193,-0.3441 1.43562,-0.34392 1.64795,3.8e-4 2.59987,1.00401 0.95925,0.99631 0.95886,2.71751 -3.8e-4,1.68457 -0.99672,2.7024 -0.99632,1.01785 -2.65159,1.01747 -1.89698,-4.3e-4 -2.90006,-1.45086 -1.00309,-1.45775 -1.00246,-4.21898 5.9e-4,-2.59277 1.23141,-4.13058 1.23082,-1.54513 3.30357,-1.54465 0.55664,1.2e-4 1.12058,0.11012 0.57126,0.10999 1.18645,0.32986 z m -15.57002,9.4447 2.41699,5.5e-4 0.002,-8.34229 -2.62952,0.52675 3.1e-4,-1.34766 2.61487,-0.52674 1.47949,3.3e-4 -0.002,9.68994 2.417,5.5e-4 -2.8e-4,1.24512 -6.29883,-10e-4 z m -59.82836,42.08607 10e-4,-5.80811 1.24512,2.8e-4 -10e-4,4.45313 2.68066,6.1e-4 q -0.10979,-0.32229 -0.16098,-0.64457 -0.0585,-0.32228 -0.0585,-0.64454 4.2e-4,-1.83106 1.00407,-2.90016 1.00367,-1.06911 2.71754,-1.06872 1.76513,4e-4 2.74633,1.09925 0.97387,1.09886 0.97341,3.09837 -1.5e-4,0.68847 -0.11751,1.40623 -0.11734,0.71042 -0.35189,1.47209 l -1.48681,-3.4e-4 q 0.35904,-0.6591 0.53498,-1.36219 0.17594,-0.70308 0.17612,-1.48678 2.8e-4,-1.26709 -0.66605,-2.00698 -0.66633,-0.7399 -1.80891,-0.74016 -1.14258,-2.6e-4 -1.80925,0.73934 -0.66668,0.73958 -0.66696,2.00667 -1.4e-4,0.59327 0.13157,1.18656 0.13169,0.58597 0.40987,1.20127 z m 9.68783,9.30051 5.5e-4,-2.41699 -8.34228,-0.002 0.52674,2.62951 -1.34766,-3e-4 -0.52674,-2.61486 3.3e-4,-1.4795 9.68994,0.002 5.5e-4,-2.41699 1.24512,2.8e-4 -10e-4,6.29883 z m -310.1262,-59.87053 -3.73667,5.83655 3.73535,8.5e-4 z m -0.38788,-1.28915 1.86035,4.2e-4 -0.002,7.12646 1.56006,3.6e-4 -2.8e-4,1.23047 -1.56006,-3.6e-4 -5.9e-4,2.57813 -1.47217,-3.3e-4 5.9e-4,-2.57813 -4.93652,-0.001 3.2e-4,-1.42822 z m -12.9626,9.68699 2.41699,5.5e-4 0.002,-8.34229 -2.62951,0.52675 3.1e-4,-1.34766 2.61486,-0.52674 1.47949,3.4e-4 -0.002,9.68994 2.417,5.4e-4 -2.8e-4,1.24512 -6.29883,-0.001 z m 128.97465,137.19684 q -0.71326,-0.81897 -0.75706,-1.74915 -0.0497,-0.93457 0.58328,-1.77822 0.97139,-1.29478 2.39376,-1.33557 1.42237,-0.0408 3.06281,1.18992 0.55072,0.41317 1.05307,0.96403 0.5009,0.54061 0.95928,1.22329 l -0.85711,1.14245 q -0.27675,-0.65629 -0.75273,-1.2423 -0.47599,-0.58602 -1.11459,-1.06512 -1.11315,-0.83513 -2.02281,-0.83087 -0.91554,-1.5e-4 -1.54409,0.83764 -0.58019,0.77335 -0.36059,1.61568 0.20934,0.84377 1.17602,1.56902 l 1.01941,0.7648 -0.72964,0.97255 -1.06627,-0.79997 q -0.87295,-0.65492 -1.59512,-0.6565 -0.72657,0.004 -1.21885,0.66046 -0.50548,0.67375 -0.29318,1.39156 0.20203,0.71927 1.09255,1.38737 0.48627,0.36483 1.12197,0.67693 0.63569,0.31211 1.47061,0.59056 l -0.79118,1.05457 q -0.8144,-0.318 -1.4706,-0.6638 -0.66205,-0.3502 -1.18348,-0.7414 -1.3475,-1.01095 -1.67104,-2.2151 -0.32795,-1.19829 0.45444,-2.24114 0.54504,-0.72648 1.33901,-0.91825 0.78958,-0.18591 1.70213,0.19656 z m 13.80271,4.54109 -1.93337,-1.45049 -5.0064,6.67305 2.41974,1.15614 -0.80876,1.078 -2.40803,-1.14735 -1.18345,-0.88788 5.81516,-7.75105 -1.93337,-1.4505 0.74722,-0.99597 5.03848,3.78007 z m 102.27018,-1.06093 -4.13179,3.0969 -0.74677,-0.99632 5.55594,-4.16434 0.74677,0.99632 q -0.15124,1.20259 -0.43311,3.24449 -0.28333,2.05216 -0.32744,2.61612 -0.0897,1.06492 0.0171,1.67139 0.10529,0.61673 0.42596,1.04456 0.52274,0.69742 1.34449,0.76799 0.81589,0.0749 1.60123,-0.51369 0.55677,-0.41731 1.03305,-1.07634 0.47041,-0.65465 0.87936,-1.57445 l 0.89613,1.19558 q -0.49975,0.8231 -1.01117,1.43525 -0.51141,0.61214 -1.02716,0.99871 -1.35967,1.01912 -2.67802,0.94549 -1.31833,-0.0736 -2.17053,-1.21062 -0.40413,-0.53918 -0.5636,-1.17936 -0.16095,-0.62994 -0.11961,-1.68608 0.0191,-0.27977 0.19386,-1.68304 0.17913,-1.39741 0.51534,-3.92856 z m 8.44835,-6.33229 -1.93403,1.44961 5.00336,6.67533 1.78771,-1.99897 0.80827,1.07836 -1.77598,1.99019 -1.18386,0.88734 -5.81163,-7.7537 -1.93404,1.44962 -0.74677,-0.99632 5.0402,-3.77778 z m -105.51892,68.82371 5.5e-4,-2.417 -8.34228,-0.002 0.52675,2.62952 -1.34766,-3.1e-4 -0.52675,-2.61487 3.4e-4,-1.47949 9.68994,0.002 5.5e-4,-2.41699 1.24512,2.9e-4 -10e-4,6.29883 z m -0.002,9.54 5.5e-4,-2.41699 -8.34228,-0.002 0.52674,2.62952 -1.34766,-3.1e-4 -0.52675,-2.61487 3.4e-4,-1.47949 9.68994,0.002 5.5e-4,-2.41699 1.24512,2.9e-4 -0.001,6.29882 z m 111.4012,-100.5034 q -0.80779,-0.80807 -2.01456,-0.41985 -1.19642,0.38822 -2.79182,1.98308 -1.59022,1.58968 -1.98403,2.79115 -0.38346,1.20146 0.42433,2.00953 0.81296,0.81324 2.00938,0.42501 1.20678,-0.38821 2.79701,-1.97789 1.5954,-1.59487 1.97885,-2.79634 0.3938,-1.20145 -0.41916,-2.01469 z m 0.82878,-0.82851 q 1.29971,1.30016 0.95243,3.01435 -0.33693,1.7142 -2.29493,3.67152 -1.95281,1.95215 -3.6723,2.29368 -1.70913,0.34152 -3.00884,-0.95863 -1.29971,-1.30015 -0.96278,-3.01435 0.34728,-1.71419 2.3001,-3.66634 1.95799,-1.95733 3.66713,-2.29886 1.71948,-0.34152 3.01919,0.95863 z m -15.79319,-1.81287 1.70878,1.70936 5.89989,-5.89789 -2.23189,-1.48675 0.95309,-0.95277 2.22154,1.47639 1.04598,1.04633 -6.85299,6.85066 1.70878,1.70937 -0.88057,0.88028 -4.45319,-4.45471 z m -53.33927,-6.6205 3.1e-4,-1.34766 q 0.55658,0.26379 1.12784,0.40308 0.57126,0.13929 1.12058,0.13942 1.46484,3.3e-4 2.2341,-0.98093 0.77659,-0.9886 0.88691,-2.99541 -0.42494,0.62979 -1.07688,0.96655 -0.65193,0.33677 -1.44295,0.33659 -1.64062,-3.8e-4 -2.59986,-0.98936 -0.95192,-0.99631 -0.95153,-2.7175 3.8e-4,-1.68457 0.9967,-2.70241 0.99633,-1.01784 2.6516,-1.01746 1.89697,4.3e-4 2.89273,1.45818 1.00309,1.45041 1.00246,4.21897 -5.9e-4,2.58545 -1.23141,4.13058 -1.22349,1.53781 -3.29624,1.53733 -0.55664,-1.2e-4 -1.1279,-0.11011 -0.57127,-0.11 -1.18646,-0.32986 z m 2.9454,-4.63556 q 0.99609,2.2e-4 1.57486,-0.68079 0.58609,-0.68103 0.58636,-1.86755 2.6e-4,-1.1792 -0.58551,-1.86048 -0.57846,-0.68862 -1.57455,-0.68884 -0.9961,-2.3e-4 -1.58219,0.68812 -0.57878,0.68102 -0.57904,1.86022 -2.7e-4,1.18652 0.57819,1.86781 0.58578,0.68128 1.58188,0.68151 z m -58.60604,12.21786 q -0.74599,0.74557 -0.7773,1.5742 -0.0261,0.82345 0.67284,1.52282 0.69896,0.69936 1.52244,0.67371 0.82864,-0.0308 1.57463,-0.77641 0.74599,-0.74556 0.7773,-1.57419 0.0261,-0.83381 -0.66766,-1.528 -0.69897,-0.69937 -1.52761,-0.66853 -0.82347,0.0257 -1.57464,0.7764 z m -1.49173,0.60035 q -0.83914,0.5073 -1.67811,0.4242 -0.8338,-0.0883 -1.49653,-0.75139 -0.92677,-0.9273 -0.80731,-2.12362 0.12463,-1.20149 1.2747,-2.3509 1.15525,-1.15459 2.35163,-1.27337 1.19639,-0.11877 2.12316,0.80853 0.66272,0.6631 0.74535,1.50212 0.0878,0.83385 -0.41479,1.66753 0.93238,-0.57979 1.86458,-0.4863 0.93737,0.0883 1.67776,0.82912 1.12353,1.12416 1.03512,2.41371 -0.0832,1.28437 -1.36281,2.56322 -1.27958,1.27885 -2.56918,1.36653 -1.28441,0.0825 -2.40794,-1.04167 -0.74039,-0.74081 -0.82816,-1.67823 -0.0878,-0.93743 0.49253,-1.86948 z m -2.03499,-1.26944 q 0.6006,0.60093 1.31014,0.56489 0.71471,-0.0412 1.39335,-0.71949 0.67346,-0.67308 0.7151,-1.38777 0.0468,-0.71987 -0.55378,-1.32081 -0.6006,-0.60093 -1.32049,-0.55452 -0.71471,0.0412 -1.38817,0.71431 -0.67864,0.67825 -0.72028,1.39294 -0.0365,0.70951 0.56413,1.31045 z m 95.64844,255.72487 -0.002,7.03125 -0.62989,-1.4e-4 -10.30427,-3.97207 3.6e-4,-1.54541 9.68909,3.73755 10e-4,-5.25146 z m 15.64798,-157.84275 q 2.2e-4,-0.9961 -0.6808,-1.5822 -0.68102,-0.57876 -1.86754,-0.57903 -1.1792,-2.7e-4 -1.86781,0.57818 -0.68129,0.58579 -0.68151,1.58189 -2.3e-4,0.99609 0.68079,1.57485 0.68835,0.5861 1.86755,0.58637 1.18652,2.7e-4 1.8678,-0.58552 0.68129,-0.57845 0.68152,-1.57454 z m 4.63556,2.93806 -1.34766,-3e-4 q 0.2638,-0.55658 0.40309,-1.12784 0.13928,-0.56394 0.13941,-1.12058 3.3e-4,-1.46484 -0.98826,-2.24144 -0.98859,-0.76926 -2.98808,-0.87957 0.63711,0.43226 0.97387,1.0842 0.3441,0.65193 0.34392,1.43562 -3.8e-4,1.64795 -1.00401,2.59987 -0.99631,0.95925 -2.7175,0.95886 -1.68457,-3.8e-4 -2.70241,-0.99672 -1.01785,-0.99632 -1.01747,-2.65159 4.3e-4,-1.89698 1.45086,-2.90006 1.45775,-1.00309 4.21898,-1.00246 2.59277,5.9e-4 4.13058,1.23141 1.54513,1.23082 1.54465,3.30357 -1.2e-4,0.55664 -0.11011,1.12058 -0.11,0.57126 -0.32986,1.18645 z M 163.6709,361.58429 l 4.10625,4.10766 -0.88058,0.88028 -3.1483,-3.14938 -1.89584,1.89519 q 0.30554,0.15025 0.56963,0.34192 0.26928,0.18649 0.49713,0.4144 1.29452,1.29497 1.34089,2.76064 0.0464,1.46567 -1.16574,2.67735 -1.24835,1.24792 -2.71918,1.16481 -1.46564,-0.0883 -2.87926,-1.5024 -0.48675,-0.48691 -0.91132,-1.07739 -0.41941,-0.58529 -0.79217,-1.2897 l 1.05151,-1.05117 q 0.21222,0.71992 0.585,1.34146 0.37279,0.62155 0.92684,1.1758 0.89582,0.89612 1.89017,0.94808 0.99436,0.052 1.80243,-0.75583 0.80806,-0.80779 0.75643,-1.80216 -0.0516,-0.99438 -0.94742,-1.8905 -0.41943,-0.41957 -0.9321,-0.74593 -0.50748,-0.32119 -1.13929,-0.55954 z m -59.5213,-12.32723 -3.73667,5.83655 3.73535,8.5e-4 z m -0.38788,-1.28915 1.86035,4.2e-4 -0.002,7.12646 1.56006,3.6e-4 -2.8e-4,1.23047 -1.56006,-3.6e-4 -5.9e-4,2.57812 -1.47217,-3.3e-4 5.9e-4,-2.57812 -4.936525,-10e-4 3.25e-4,-1.42822 z m 688.58711,16.91963 q 0.91168,-0.59014 1.83869,-0.50184 0.9322,0.0831 1.67776,0.82912 1.14424,1.14488 0.98329,2.5587 -0.16096,1.41383 -1.61149,2.86353 -0.48697,0.48669 -1.10339,0.90602 -0.60606,0.41933 -1.34676,0.77647 l -1.00962,-1.01019 q 0.68886,-0.18108 1.33635,-0.56932 0.64749,-0.38823 1.21216,-0.95258 0.98429,-0.98373 1.10884,-1.88485 0.12973,-0.90629 -0.61065,-1.6471 -0.68344,-0.68382 -1.54836,-0.58567 -0.86492,0.0878 -1.7197,0.94209 l -0.9014,0.90089 -0.85947,-0.85996 0.94284,-0.94231 q 0.7719,-0.77145 0.87568,-1.48612 0.0986,-0.71985 -0.48128,-1.30006 -0.59542,-0.59576 -1.33604,-0.48721 -0.74062,0.0982 -1.52805,0.88517 -0.42999,0.42974 -0.82894,1.01485 -0.39895,0.58512 -0.79278,1.37221 l -0.93195,-0.93248 q 0.43007,-0.7612 0.86528,-1.36183 0.44039,-0.60583 0.90145,-1.06662 1.19151,-1.19084 2.42934,-1.34068 1.23264,-0.15501 2.15424,0.76711 0.64201,0.64238 0.71947,1.45551 0.0723,0.80794 -0.43551,1.65715 z m 2.29048,29.35043 -4.13039,-3.09879 0.74722,-0.99597 5.55405,4.16687 -0.74722,0.99598 q -1.19681,0.19172 -3.23592,0.49315 -2.04937,0.30291 -2.60309,0.41855 -1.04739,0.21224 -1.59968,0.48462 -0.56254,0.27384 -0.88341,0.70153 -0.52306,0.69718 -0.36058,1.50579 0.15661,0.80423 0.94167,1.39321 0.55658,0.41757 1.32265,0.69015 0.76022,0.26818 1.75775,0.4031 l -0.89667,1.19518 q -0.93014,-0.24917 -1.66104,-0.56862 -0.73091,-0.31945 -1.24648,-0.70624 -1.35922,-1.01975 -1.65785,-2.30592 -0.29862,-1.28618 0.55409,-2.42277 0.40438,-0.539 0.97426,-0.87143 0.55962,-0.33097 1.58505,-0.58717 0.27394,-0.06 1.66996,-0.28538 1.39164,-0.21951 3.91563,-0.60584 z m -690.79206,8.52699 -2.417,-5.5e-4 -0.002,8.34229 2.62952,-0.52675 -3.1e-4,1.34766 -2.61487,0.52674 -1.479486,-3.4e-4 0.0022,-9.68994 -2.416993,-5.5e-4 2.84e-4,-1.24511 6.298835,10e-4 z m 58.46421,-1.45785 q 0.91427,-0.68528 0.70078,-1.93485 -0.21496,-1.23932 -1.56793,-3.04441 -1.34859,-1.79924 -2.48221,-2.35915 -1.13508,-0.54966 -2.04935,0.13562 -0.92013,0.68966 -0.70517,1.92898 0.21349,1.24957 1.56208,3.04881 1.35297,1.8051 2.48805,2.35475 1.13362,0.55991 2.05375,-0.12975 z m 0.70285,0.93771 q -1.47104,1.10259 -3.11881,0.51615 -1.64925,-0.57618 -3.30971,-2.79152 -1.65608,-2.20948 -1.75076,-3.96 -0.0962,-1.74026 1.37487,-2.84285 1.47104,-1.10258 3.12028,-0.5264 1.64778,0.58643 3.30385,2.79591 1.66047,2.21534 1.75662,3.95561 0.0947,1.75052 -1.37634,2.8531 z" />
    <path
       id="path14706"
       style="fill:none;stroke:#ff0000;stroke-width:1;stroke-linecap:butt;stroke-linejoin:miter;stroke-miterlimit:10;stroke-dasharray:none;stroke-opacity:1"
       d="m 573.17482,149.40456 h -84.898 m -107.539,-84.902004 h 107.539 m -107.539,84.902004 V 64.502556 m 384.875,0 15,19.105 v 46.696004 l -15,19.101 m -277.336,0 h -107.539 m 299.976,-84.902004 h 84.899 m 0,84.902004 h -84.899 m -107.539,-84.902004 h 107.539 m -192.437,0 h 84.898 m 107.539,84.902004 h -107.539 M 497.9371,685.23829 h -90.559 m 90.559,-84.902 v 84.902 m -396.19999,0 -15.000005,-19.101 v -46.695 l 15.000005,-19.106 m 305.64099,0 h 90.559 m -198.102,0 h 107.543 m -198.102,84.902 H 101.73711 m 0,-84.902 H 209.2761 m 90.559,84.902 h -90.559 m 198.102,0 h -107.543 m -90.559,-84.902 h 90.559 M 160.51951,89.109793 l 14.98208,14.426997 -0.004,3.20076 -15.0177,14.39072 M 75.620863,88.999741 160.51951,89.109793 m -84.942512,31.908657 -14.981085,-14.42706 0.0072,-3.20193 15.017762,-14.389719 m -0.07882,60.319489 -14.980895,-12.75318 0.0021,-2.82899 15.013782,-12.71861 m 84.867657,28.4106 -84.902644,-0.10982 m 84.937584,-28.19096 14.98483,12.75195 -0.006,2.82922 -15.01372,12.71961 m -20.86916,390.0863 15.02421,12.70801 0.007,2.82816 -14.97674,12.76668 m -84.954956,-28.13481 84.900486,-0.16804 m -84.845826,28.46688 -15.02417,-12.705 -0.0033,-2.83222 14.972807,-12.76162 m 0.116656,60.31993 -15.027821,-14.38011 -0.0043,-3.20323 14.970142,-14.43775 m 84.962482,31.85406 -84.900503,0.16703 m 84.838553,-32.18512 15.02782,14.38011 0.008,3.19918 -14.97413,14.4388 m 294.75876,-200.92556 19.0463,-15.07383 46.69529,-0.17766 19.15939,14.92829 m -84.42525,124.84294 -0.47573,-124.51974 m 85.37573,124.19756 -19.04231,15.07377 -46.69829,0.17771 -19.1594,-14.9293 m 84.42525,-124.84294 0.47475,124.52076 m 89.20152,-105.99315 14.99353,20.38079 -0.01,49.80675 -15.00658,20.37182 m -266.0239,-0.0584 -14.99352,-20.37979 0.01,-49.80775 15.00658,-20.37182 m -2.7e-4,0 -24.2003,14.99267 -59.14905,-0.0138 -24.19228,-15.00343 m 107.55958,-73.55947 -14.99674,-19.10256 0.0104,-46.69435 15.00325,-19.1016 m 265.9665,249.10026 24.20031,-14.99267 59.14905,0.0138 24.19227,15.00343 m -481.10441,-0.1075 24.20124,-14.99669 59.14505,0.0138 24.19234,15.00743 m 373.56578,0.0829 -14.99352,-20.37979 0.0108,-49.80376 15.00252,-20.37576 m 0,0 -24.19723,14.99762 -59.14906,-0.0148 -24.19234,-15.00743 m -373.56579,-0.0829 14.99752,20.37972 -0.0147,49.80783 -15.00258,20.37176 m 373.59956,-164.05638 24.20124,-14.99669 59.14805,0.0138 24.19234,15.00743 m -481.10448,-0.11148 24.20129,-14.99369 59.14507,0.0148 24.19627,15.00336 m 373.56185,0.087 -14.99581,-19.10658 0.009,-46.69433 15.0083,-19.09768 m -481.10808,-0.11141 14.9958,19.10658 -0.009,46.69433 -15.00431,19.09762 m 481.12598,-84.78712 -24.20128,14.99369 -59.14807,-0.0148 -24.19328,-15.00342 m 0,10e-6 14.99681,19.10657 -0.009,46.69433 -15.00831,19.09768 m -266.00371,-84.96094 -24.20024,14.99667 -59.14505,-0.0138 -24.19634,-15.00737 m 198.12682,-109.07356 84.90159,0.0218 M 365.7156,94.441618 l 14.99673,19.101562 -0.0103,46.69835 -15.00331,19.0976 m 67.9041,62.27858 0.0211,-92.14153 m -67.92522,29.86295 25.41448,2.95795 37.35117,34.25291 5.13847,25.06772 m -22.6732,141.49357 22.63831,16.98497 m 84.90252,0.0178 22.64489,-16.97263 m -107.54741,16.95481 14.99277,28.01781 -0.0148,68.4903 -15.00728,28.01285 M 541.11534,383.14144 518.47795,360.49571 m 0,0 -19.10658,14.99581 -46.69333,-0.009 -19.10262,-15.00422 m 0,-4.1e-4 -22.6458,22.63339 m 107.59585,-233.61327 -0.0201,92.13752 m -2e-5,0 5.15194,-25.06412 37.36598,-34.2374 25.41945,-2.94491 m -88.52245,486.74248 0.0168,-84.90151 m 20.50407,-56.59504 -14.99278,-28.01781 0.0148,-68.4903 15.00727,-28.01285 m 67.85984,266.03627 -88.41,-0.0188 m -64.38166,-141.51433 -5.68416,24.25568 -37.36169,31.11991 -24.88567,1.206 m 220.74402,0.05 -24.88608,-1.21632 -37.35145,-31.13549 -5.67244,-24.26193 m -20.50403,56.59504 88.414,0.0187 m 152.80094,84.93549 -152.82178,-0.0339 m -220.72318,-84.95156 -34.38961,14.99543 -84.05044,-0.0197 -34.38171,-15.00866 m 614.77679,85.04115 -88.41007,-0.0228 M 212.78533,581.16588 187.90223,579.94851 150.55173,548.81 144.87836,524.55209 M 167.55249,383.0545 144.91515,360.41177 m 0,0 -19.10563,14.99279 -46.698331,-0.009 -19.097615,-15.00431 m 747.128626,0.16951 -22.6468,22.63342 m 0,0 22.63933,16.98595 m -747.129651,-0.17082 19.106579,-14.99581 46.693332,0.009 19.09868,15.0083 m 0,4e-4 22.64882,-16.9767 m 639.58224,17.12563 14.99282,28.02081 -0.0149,68.4863 -15.00727,28.01284 M 59.97683,524.53425 60.00508,400.00931 m 767.57886,181.29512 -0.0218,84.90259 M 144.87836,524.55209 125.77278,539.54788 79.074446,539.53888 59.97683,524.53457 m 679.1921,56.75118 88.41501,0.0187 m -20.47854,-56.60437 -5.68409,24.26068 -37.3657,31.11898 -24.88668,1.20601 M 586.44272,179.3891 l 34.38568,-14.99137 84.05044,0.0197 34.38171,15.00866 M 212.89776,94.403633 365.7156,94.441623 m -305.654502,54.951617 84.902522,0.0178 m 67.91332,29.89517 -14.99681,-19.10657 0.0103,-46.69734 15.00729,-19.098667 M 60.040976,241.53076 l 0.02012,-92.13752 m 679.199454,30.03284 25.41843,2.95489 37.34815,34.25196 5.14249,25.06866 m -747.156046,118.68934 0.0274,-118.86017 m 747.128646,0.17083 14.99211,26.74765 -0.0155,65.3719 -15.00399,26.73962 m -662.17862,-211.1497 -0.0211,92.14153 m 5e-5,0 5.15187,-25.06813 37.36204,-34.23333 25.42046,-2.94492" />
    <path
       id="path14708"
       style="fill:none;stroke:#00ff00;stroke-width:1;stroke-linecap:butt;stroke-linejoin:miter;stroke-miterlimit:10;stroke-dasharray:8, 2, 2, 2;stroke-dashoffset:0;stroke-opacity:1"
       d="M 488.27682,149.40456 V 64.502556 m 277.336,0 v 84.902004 m -84.899,-84.902004 v 84.902004 m -107.539,0 V 64.502556 M 407.3781,600.33629 v 84.902 m -305.64099,0 v -84.902 m 107.53899,84.902 v -84.902 m 90.559,0 v 84.902 M 75.576998,121.01845 160.47964,121.12827 M 54.729764,567.98223 139.63031,567.8182" />
  </g>
</svg>
