<?xml version="1.0" encoding="UTF-8" standalone="no"?>
<!-- Created with Inkscape (http://www.inkscape.org/) -->

<svg
   version="1.1"
   id="svg25"
   width="1132"
   height="1132"
   viewBox="0 0 1132 1132"
   sodipodi:docname="A.svg"
   inkscape:version="1.2.2 (732a01da63, 2022-12-09, custom)"
   xmlns:inkscape="http://www.inkscape.org/namespaces/inkscape"
   xmlns:sodipodi="http://sodipodi.sourceforge.net/DTD/sodipodi-0.dtd"
   xmlns="http://www.w3.org/2000/svg"
   xmlns:svg="http://www.w3.org/2000/svg">
  <defs
     id="defs29" />
  <sodipodi:namedview
     id="namedview27"
     pagecolor="#ffffff"
     bordercolor="#666666"
     borderopacity="1.0"
     inkscape:showpageshadow="2"
     inkscape:pageopacity="0.0"
     inkscape:pagecheckerboard="0"
     inkscape:deskcolor="#d1d1d1"
     showgrid="false"
     inkscape:zoom="0.329947"
     inkscape:cx="394.00268"
     inkscape:cy="389.45649"
     inkscape:window-width="1920"
     inkscape:window-height="1009"
     inkscape:window-x="0"
     inkscape:window-y="0"
     inkscape:window-maximized="1"
     inkscape:current-layer="g33">
    <inkscape:page
       x="0"
       y="0"
       id="page31"
       width="1132"
       height="1132" />
  </sodipodi:namedview>
  <g
     id="g33"
     inkscape:groupmode="layer"
     inkscape:label="Page 1"
     transform="matrix(1.3333333,0,0,1.3333333,0,2.83e-5)">
    <path
       id="path1346"
       style="font-size:15px;font-family:'DejaVu Sans';-inkscape-font-specification:DejaVuSans"
       d="m 778.11294,169.70092 -4.75773,-3.3314 0.71417,-1.01993 3.64779,2.55421 1.53757,-2.19588 q -0.32701,-0.0948 -0.62039,-0.23769 -0.2976,-0.13685 -0.56158,-0.32169 -1.49992,-1.05025 -1.80033,-2.48555 -0.30041,-1.4353 0.68262,-2.83921 1.01244,-1.44592 2.47533,-1.61973 1.45867,-0.1678 3.09658,0.97908 0.56397,0.39489 1.08472,0.90258 0.51475,0.5035 1.00427,1.13238 l -0.8528,1.21793 q -0.33412,-0.67207 -0.80926,-1.21936 -0.47514,-0.54729 -1.11711,-0.99679 -1.03793,-0.72677 -2.02618,-0.60511 -0.98826,0.12167 -1.64362,1.05762 -0.65535,0.93594 -0.43168,1.90621 0.22367,0.97027 1.26161,1.69704 0.48597,0.34028 1.04756,0.57258 0.55559,0.22807 1.2192,0.35298 z m -201.75287,-66.40947 -6.40801,2.63921 3.05982,2.14251 z m 0.4214,-1.27858 1.52391,1.06705 -4.08757,5.83765 1.27792,0.89482 -0.70577,1.00794 -1.27792,-0.89481 -1.47876,2.11188 -1.20593,-0.84441 1.47876,-2.11188 -4.04376,-2.83147 0.81919,-1.16993 z m 34.22602,-55.471074 q -0.73972,-0.795132 -0.814,-1.723381 -0.0803,-0.932441 0.52467,-1.796393 0.92842,-1.32592 2.34869,-1.413326 1.42026,-0.08741 3.10017,1.088873 0.56397,0.394896 1.08411,0.928988 0.51835,0.523889 0.99888,1.191187 l -0.8192,1.169929 q -0.29812,-0.646872 -0.79306,-1.216958 -0.49494,-0.570094 -1.1489,-1.028003 -1.13993,-0.798189 -2.04897,-0.764112 -0.91504,0.02988 -1.51579,0.887824 -0.55453,0.791957 -0.30744,1.62662 0.2369,0.836462 1.22684,1.529623 l 1.04394,0.730977 -0.69736,0.995942 -1.09194,-0.764583 q -0.89395,-0.62595 -1.61578,-0.603847 -0.72604,0.0281 -1.19655,0.700061 -0.48311,0.689955 -0.2474,1.40042 0.22551,0.712257 1.13745,1.350808 0.49797,0.348683 1.14355,0.639789 0.64559,0.291097 1.4892,0.54203 l -0.75618,1.079937 q -0.8244,-0.291125 -1.49158,-0.615235 -0.67318,-0.328307 -1.20715,-0.702193 -1.37992,-0.96623 -1.74277,-2.159127 -0.36704,-1.186895 0.38073,-2.254832 0.52093,-0.743962 1.30819,-0.961658 0.78306,-0.2117 1.70765,0.14064 z m 32.67784,114.143954 4.22976,2.96171 -0.71417,1.01994 -5.68767,-3.98255 0.71417,-1.01994 q 1.18987,-0.23085 3.21801,-0.59898 2.03833,-0.36992 2.58797,-0.50366 1.03987,-0.24646 1.58294,-0.5368 0.55326,-0.29213 0.85993,-0.7301 0.49992,-0.71397 0.31102,-1.51682 -0.18289,-0.79866 -0.98684,-1.36159 -0.56998,-0.3991 -1.34457,-0.64642 -0.7686,-0.24312 -1.77002,-0.34526 l 0.85701,-1.22393 q 0.9378,0.21854 1.67879,0.51386 0.74099,0.29531 1.26896,0.665 1.39192,0.97463 1.73255,2.25033 0.34064,1.27569 -0.47436,2.43963 -0.38649,0.55197 -0.94516,0.9029 -0.54847,0.34914 -1.56495,0.63881 -0.27182,0.069 -1.65971,0.33999 -1.3837,0.26501 -3.89366,0.73388 z m 91.7246,64.22855 1.97988,1.38633 4.78495,-6.8336 -2.45634,-1.07619 0.77298,-1.10393 2.44434,1.06778 1.21194,0.8486 -5.55793,7.93755 1.97988,1.38632 -0.71416,1.01994 -5.1597,-3.61286 z M 683.9082,102.54965 q 0.93594,0.65536 2.05687,0.0633 1.11072,-0.59026 2.40463,-2.43816 1.28971,-1.841893 1.46869,-3.093518 0.16878,-1.249819 -0.76717,-1.905176 -0.94194,-0.659555 -2.05266,-0.06929 -1.12093,0.592069 -2.41064,2.433965 -1.29391,1.847893 -1.46269,3.097709 -0.17898,1.25162 0.76297,1.91118 z m -0.67217,0.95995 q -1.50591,-1.05445 -1.46186,-2.80291 0.0338,-1.746674 1.62182,-4.014537 1.58377,-2.261867 3.21773,-2.89706 1.62375,-0.633406 3.12966,0.421045 1.50592,1.054452 1.47207,2.801118 -0.044,1.748464 -1.62782,4.010334 -1.58798,2.26786 -3.21173,2.90126 -1.63395,0.6352 -3.13987,-0.41925 z m -126.75987,110.66949 4.66428,3.46101 -0.74195,0.9999 -3.57614,-2.65358 -1.59739,2.15275 q 0.32427,0.1038 0.61362,0.25467 0.29372,0.14497 0.55252,0.33701 1.47045,1.09111 1.73127,2.53413 0.26081,1.44302 -0.76047,2.81936 -1.05183,1.41752 -2.51893,1.55101 -1.46275,0.12762 -3.06848,-1.06387 -0.5529,-0.41026 -1.05948,-0.93208 -0.50071,-0.51746 -0.97276,-1.15958 l 0.88599,-1.19401 q 0.3155,0.68101 0.77541,1.24115 0.45991,0.56016 1.08926,1.02715 1.01756,0.75505 2.00879,0.66061 0.99122,-0.0944 1.67208,-1.012 0.68085,-0.91757 0.48396,-1.89361 -0.19691,-0.97606 -1.21446,-1.73111 -0.47643,-0.35352 -1.03141,-0.60117 -0.54911,-0.24328 -1.20904,-0.38639 z m -291.60604,173.56847 3.73535,-5.8374 h -3.73535 z m 0.38818,1.28906 h -1.86035 v -7.12646 h -1.56006 v -1.23047 h 1.56006 v -2.57813 h 1.47217 v 2.57813 h 4.93652 v 1.42822 z M 570.70662,286.27071 q -0.99341,0.4388 -1.89486,0.20523 -0.90738,-0.22926 -1.52582,-1.08361 -0.94912,-1.31118 -0.56696,-2.68185 0.38215,-1.37068 2.04339,-2.57319 0.55769,-0.4037 1.23259,-0.72044 0.66466,-0.31838 1.45246,-0.5541 l 0.83746,1.15693 q -0.70881,0.07 -1.40947,0.35118 -0.70067,0.28114 -1.34736,0.74926 -1.12726,0.81599 -1.39252,1.68613 -0.27119,0.87444 0.34294,1.72286 0.5669,0.78315 1.43647,0.82278 0.86793,0.0499 1.84687,-0.65875 l 1.03234,-0.74727 0.71291,0.98487 -1.0798,0.78163 q -0.88401,0.6399 -1.09933,1.32923 -0.21102,0.69525 0.26998,1.35974 0.49389,0.68229 1.24236,0.69204 0.74685,0.02 1.64866,-0.63281 0.49243,-0.35646 0.97876,-0.87125 0.48632,-0.51479 0.99948,-1.22983 l 0.77304,1.06793 q -0.54486,0.68375 -1.06944,1.20814 -0.53051,0.52868 -1.05855,0.91091 -1.36458,0.98777 -2.61054,0.9403 -1.24166,-0.0415 -2.00611,-1.09761 -0.53253,-0.73568 -0.48064,-1.55085 0.0562,-0.80921 0.69169,-1.5676 z m -284.73454,35.16557 1.55491,4.92389 -1.18732,0.37494 -2.09087,-6.62107 1.18733,-0.37494 q 1.08476,0.54073 2.91831,1.4825 1.84274,0.94655 2.36031,1.17483 0.97522,0.43705 1.58285,0.53705 0.61682,0.10476 1.12667,-0.0562 0.83112,-0.26246 1.16968,-1.01455 0.34076,-0.74511 0.0452,-1.681 -0.20952,-0.6635 -0.67379,-1.33105 -0.46207,-0.66056 -1.19469,-1.3509 l 1.4248,-0.44994 q 0.6113,0.74402 1.0197,1.4292 0.40839,0.6852 0.60248,1.29981 0.51168,1.62035 0.006,2.84001 -0.50581,1.21968 -1.86074,1.64756 -0.64256,0.20291 -1.29944,0.14152 -0.64771,-0.0566 -1.63065,-0.44516 -0.25767,-0.11064 -1.52403,-0.73996 -1.25937,-0.63153 -3.5366,-1.78649 z m -39.43517,1.89526 0.72778,-2.30482 -7.95512,-2.51194 -0.28887,2.66616 -1.2851,-0.40579 0.28445,-2.65219 0.44548,-1.41083 9.24024,2.91774 0.72778,-2.30482 1.18732,0.37491 -1.89663,6.00649 z m 265.37417,-75.43542 q 0.36016,1.08433 1.61298,1.2779 1.24355,0.18894 3.3844,-0.52215 2.13391,-0.70878 3.02426,-1.60649 0.88108,-0.90234 0.52092,-1.98667 -0.36246,-1.09128 -1.60602,-1.28021 -1.25282,-0.19358 -3.38672,0.5152 -2.14086,0.71108 -3.02194,1.61344 -0.89035,0.89771 -0.52788,1.98898 z m -1.11214,0.3694 q -0.57948,-1.74466 0.49898,-3.12161 1.06921,-1.38158 3.69662,-2.25428 2.62046,-0.87038 4.31073,-0.40536 1.68102,0.46038 2.26051,2.20504 0.57949,1.74466 -0.48972,3.12625 -1.07846,1.37694 -3.69892,2.24733 -2.62741,0.8727 -4.30843,0.41231 -1.69028,-0.46502 -2.26977,-2.20968 z" />
    <path
       id="path349"
       style="fill:none;stroke:#800000;stroke-width:1;stroke-linecap:butt;stroke-linejoin:miter;stroke-miterlimit:10;stroke-dasharray:8,8;stroke-dashoffset:0;stroke-opacity:1"
       d="m 737.484,126.07 92.379,64.688 M 596.406,130.934 540.77,91.977 m 48.699,-69.547 55.633,38.957 m 43.683,134.234 -92.379,-64.687 M 781.168,260.305 688.785,195.621 M 645.102,61.387 737.484,126.07 m -431.308,-4.168 80.769,-26.168 m 0,0 68.774,-49.781 m -234.446,75.949 h 84.903 M 139.859,97.82 l 81.414,24.082 m 295.852,375.692 -80.77,26.164 m 0,0 h -90.558 m 244.687,-79.266 49.786,68.774 m -49.786,-68.774 -73.359,53.102 M 102.414,523.758 21,499.68 m 166.316,108.98 h -84.902 m 84.902,-84.902 v 84.902 m 0,-84.902 H 102.414 M 258.91,608.66 H 187.316 M 345.797,523.758 323.156,455.84 m 267.328,-11.348 57.996,-41.98 M 323.156,455.84 H 209.957 m 0,0 -22.641,67.918 M 660.695,309.82 569,376.195 M 102.414,523.758 221.273,121.902 m 84.903,0 130.179,401.856 m -49.41,-428.024 130.18,401.86" />
    <path
       id="path1475"
       style="font-size:15px;font-family:'DejaVu Sans';-inkscape-font-specification:DejaVuSans;fill:#0000ff"
       d="m 573.94029,64.587855 q 0.65535,-0.935947 0.0633,-2.05687 -0.59027,-1.110729 -2.43815,-2.404631 -1.8419,-1.28971 -3.09352,-1.468691 -1.24983,-0.168786 -1.90519,0.767161 -0.65955,0.941943 -0.0693,2.052672 0.59207,1.120924 2.43396,2.410633 1.84789,1.293903 3.09772,1.462688 1.25162,0.178981 1.91118,-0.762962 z m 0.95994,0.672157 q -1.05446,1.505913 -2.80291,1.461868 -1.74667,-0.03384 -4.01453,-1.621815 -2.26188,-1.583783 -2.89706,-3.217737 -0.63341,-1.623748 0.42104,-3.129661 1.05445,-1.505913 2.80112,-1.472064 1.74846,0.04404 4.01033,1.627819 2.26787,1.587975 2.90127,3.211732 0.63519,1.633946 -0.41926,3.139858 z M 796.69249,218.14648 q -0.65535,0.93595 -0.0633,2.05687 0.59027,1.11073 2.43816,2.40464 1.84189,1.2897 3.09351,1.46868 1.24983,0.16879 1.90519,-0.76716 0.65955,-0.94194 0.0693,-2.05267 -0.59206,-1.12093 -2.43395,-2.41064 -1.84789,-1.2939 -3.09773,-1.46268 -1.25162,-0.17898 -1.91118,0.76296 z m -0.95994,-0.67216 q 1.05446,-1.50591 2.80292,-1.46187 1.74666,0.0339 4.01453,1.62183 2.26187,1.58377 2.89706,3.21772 0.6334,1.62376 -0.42105,3.12967 -1.05446,1.50591 -2.80111,1.47207 -1.74847,-0.044 -4.01034,-1.62782 -2.26787,-1.58798 -2.90126,-3.21173 -0.6352,-1.63395 0.41925,-3.13987 z M 295.02979,72.541054 l 5.8374,3.735351 v -3.735351 z m -1.28907,0.388183 v -1.860351 h 7.12647 v -1.560059 h 1.23047 v 1.560059 h 2.57812 v 1.472168 h -2.57812 v 4.936523 h -1.42823 z m 9.68994,12.960411 v -2.416992 h -8.34228 l 0.52734,2.629395 h -1.34765 l -0.52735,-2.614746 v -1.479493 h 9.68994 V 79.59082 h 1.24512 v 6.298828 z m 39.99135,35.661472 1.75457,-6.70445 -3.55355,1.15117 z m 0.76657,1.10669 -1.7698,0.57333 -2.19626,-6.7796 -1.48413,0.48078 -0.37921,-1.17058 1.48413,-0.48078 -0.79453,-2.45264 1.40051,-0.45369 0.79453,2.45263 4.69625,-1.52135 0.44016,1.35871 z m 9.34333,-13.21248 -2.29936,0.74488 2.57094,7.93624 2.33891,-1.31201 0.41532,1.28205 -2.32496,1.30751 -1.40748,0.45595 -2.98627,-9.2183 -2.29935,0.74487 -0.38373,-1.18451 5.99225,-1.94119 z M 256.21732,44.395996 q -1.06202,-0.227051 -1.65528,-0.944824 -0.60058,-0.717774 -0.60058,-1.772461 0,-1.618652 1.11328,-2.504883 1.11328,-0.88623 3.16406,-0.88623 0.68848,0 1.4209,0.13916 0.7251,0.131836 1.50146,0.402832 v 1.428222 q -0.61523,-0.358886 -1.34765,-0.541992 -0.73242,-0.183105 -1.53076,-0.183105 -1.39161,0 -2.1167,0.549316 -0.73243,0.549317 -0.73243,1.59668 0,0.966797 0.68116,1.508789 0.67382,0.549316 1.88232,0.549316 h 1.27441 v 1.215821 h -1.333 q -1.09131,0 -1.66992,0.432129 -0.57862,0.439453 -0.57862,1.259765 0,0.842285 0.60059,1.289063 0.59326,0.454101 1.70654,0.454101 0.60791,0 1.30371,-0.131836 0.6958,-0.131836 1.53076,-0.410156 v 1.318359 q -0.84228,0.234375 -1.5747,0.351563 -0.73975,0.117187 -1.39161,0.117187 -1.68457,0 -2.66601,-0.769042 -0.98145,-0.761719 -0.98145,-2.06543 0,-0.908203 0.52002,-1.538086 0.52002,-0.622559 1.4795,-0.864258 z m 13.76608,-4.650879 h -2.41699 v 8.342285 l 2.62939,-0.527343 v 1.347656 l -2.61475,0.527344 h -1.47949 v -9.689942 h -2.41699 V 38.5 h 6.29883 z m 149.60473,41.494497 q -0.99341,0.438804 -1.89485,0.205244 -0.90739,-0.22927 -1.52582,-1.083611 -0.94913,-1.31119 -0.56697,-2.681867 0.38215,-1.370676 2.04338,-2.573182 0.5577,-0.403701 1.2326,-0.72044 0.66467,-0.318377 1.45247,-0.55409 l 0.83746,1.156925 q -0.70882,0.07004 -1.40948,0.351183 -0.70066,0.281138 -1.34735,0.749257 -1.12726,0.815986 -1.39253,1.686134 -0.27119,0.874432 0.34295,1.722851 0.56689,0.783145 1.43646,0.822788 0.86793,0.04986 1.84687,-0.65876 l 1.03234,-0.747275 0.71291,0.984871 -1.0798,0.78163 q -0.88401,0.639907 -1.09933,1.329229 -0.21102,0.695252 0.26999,1.359749 0.49388,0.682287 1.24235,0.69204 0.74684,0.01998 1.64865,-0.632813 0.49244,-0.356457 0.97877,-0.871245 0.48633,-0.514789 0.99949,-1.229833 l 0.77304,1.067934 q -0.54487,0.68374 -1.06945,1.208135 -0.53051,0.528693 -1.05854,0.910915 -1.36458,0.987773 -2.61054,0.940303 -1.24166,-0.04155 -2.00611,-1.097613 -0.53254,-0.735693 -0.48064,-1.550847 0.0562,-0.809224 0.69168,-1.567612 z m 8.42406,-11.83938 -1.95788,1.417238 4.89163,6.757646 1.82071,-1.968961 0.79022,1.091668 -1.80885,1.960362 -1.19845,0.867522 -5.68185,-7.849306 -1.95788,1.417245 -0.73009,-1.008598 5.10235,-3.693414 z m -252.49255,41.830136 -4.95154,-1.46453 0.35315,-1.19399 6.65823,1.96933 -0.35315,1.19399 q -1.0549,0.59689 -2.86101,1.59027 -1.81522,0.99832 -2.29389,1.29973 -0.90771,0.56405 -1.3304,1.01187 -0.4318,0.45277 -0.58345,0.96548 -0.2472,0.83579 0.18697,1.53705 0.42715,0.69917 1.36828,0.97754 0.66723,0.19735 1.48027,0.18577 0.80601,-0.0136 1.78801,-0.23494 l -0.42378,1.43279 q -0.95864,0.0907 -1.75507,0.0461 -0.79642,-0.0446 -1.41448,-0.22743 -1.62944,-0.48194 -2.3577,-1.58333 -0.72826,-1.1014 -0.32526,-2.46395 0.19112,-0.64615 0.60936,-1.15639 0.40914,-0.5053 1.28093,-1.10288 0.23584,-0.15175 1.46573,-0.84964 1.22782,-0.69087 3.4588,-1.93284 z m 10.1245,2.99456 -2.31774,-0.68552 -2.3661,7.9997 2.67099,0.24009 -0.38223,1.29231 -2.65695,-0.23593 -1.41873,-0.41962 2.74833,-9.29202 -2.31774,-0.68553 0.35315,-1.19398 6.04017,1.78652 z m 38.37441,-30.326042 v 5.163574 h -1.24511 v -6.94336 h 1.24511 q 0.87159,0.842286 2.33643,2.292481 1.47217,1.457519 1.89697,1.831055 0.79834,0.710449 1.34766,0.988769 0.55664,0.285645 1.09131,0.285645 0.87158,0 1.4209,-0.615235 0.54931,-0.60791 0.54931,-1.589355 0,-0.695801 -0.2417,-1.472168 -0.2417,-0.769043 -0.73242,-1.647949 h 1.49414 q 0.35889,0.893554 0.54199,1.669922 0.18311,0.776367 0.18311,1.420898 0,1.699219 -0.84961,2.709961 -0.84961,1.010742 -2.27051,1.010742 -0.67383,0 -1.28174,-0.256348 -0.60058,-0.249023 -1.42089,-0.915527 -0.21241,-0.183105 -1.23047,-1.164551 -1.01074,-0.981445 -2.83448,-2.768554 z m 0,-10.558068 v 2.416992 h 8.34229 l -0.52734,-2.629394 h 1.34765 l 0.52735,2.614746 v 1.479492 h -9.68995 v 2.416992 h -1.24511 V 73.34082 Z m 322.20215,459.76154 1.41724,1.95788 6.75763,-4.89162 -1.96895,-1.82072 1.09167,-0.79022 1.96036,1.80885 0.86753,1.19846 -7.84931,5.68185 1.41724,1.95787 -1.0086,0.7301 -3.69342,-5.10235 z m -5.59391,-7.72783 1.41724,1.95788 6.75763,-4.89162 -1.96895,-1.82072 1.09167,-0.79022 1.96037,1.80886 0.86752,1.19845 -7.84931,5.68185 1.41724,1.95787 -1.0086,0.7301 -3.69342,-5.10235 z m -61.52444,-18.34977 2.29936,-0.74488 -2.57095,-7.93625 -2.3389,1.31202 -0.41533,-1.28207 2.32497,-1.30749 1.40748,-0.45595 2.98627,9.2183 2.29935,-0.74487 0.38372,1.1845 -5.99225,1.94119 z m -9.07566,2.94006 2.29935,-0.74488 -2.57095,-7.93624 -2.3389,1.31202 -0.41533,-1.28207 2.32497,-1.30749 1.40748,-0.45596 2.98627,9.21831 2.29935,-0.74488 0.38372,1.18451 -5.99224,1.94119 z m 131.77352,16.99845 q -0.92553,0.66996 -0.73286,1.92292 0.19431,1.24273 1.51707,3.07009 1.31846,1.82141 2.44261,2.4001 1.1258,0.56847 2.05133,-0.1015 0.93148,-0.67426 0.73717,-1.91699 -0.19268,-1.25296 -1.51114,-3.07437 -1.32276,-1.82735 -2.44855,-2.39582 -1.12415,-0.5787 -2.05563,0.0956 z m -0.68714,-0.94927 q 1.48917,-1.07796 3.12697,-0.4642 1.63942,0.60353 3.26281,2.8462 1.61909,2.23672 1.68464,3.98857 0.0672,1.74162 -1.42198,2.81958 -1.48917,1.07796 -3.1286,0.47443 -1.63779,-0.61376 -3.25688,-2.85049 -1.62338,-2.24266 -1.69058,-3.98428 -0.0655,-1.75185 1.42362,-2.82981 z m -4.28544,15.3084 1.95788,-1.41724 -4.89163,-6.75763 -1.82071,1.96895 -0.79022,-1.09166 1.80885,-1.96037 1.19846,-0.86753 5.68184,7.84931 1.95788,-1.41724 0.73009,1.0086 -5.10234,3.69342 z M 397.16354,512.29687 q -1.14257,0 -1.72119,1.12793 -0.57129,1.12061 -0.57129,3.37647 0,2.24853 0.57129,3.37646 0.57862,1.12061 1.72119,1.12061 1.14991,0 1.7212,-1.12061 0.57861,-1.12793 0.57861,-3.37646 0,-2.25586 -0.57861,-3.37647 -0.57129,-1.12793 -1.7212,-1.12793 z m 0,-1.17187 q 1.83838,0 2.80518,1.45752 0.97412,1.45019 0.97412,4.21875 0,2.76123 -0.97412,4.21875 -0.9668,1.45019 -2.80518,1.45019 -1.83838,0 -2.8125,-1.45019 -0.96679,-1.45752 -0.96679,-4.21875 0,-2.76856 0.96679,-4.21875 0.97412,-1.45752 2.8125,-1.45752 z m -12.44772,9.8877 h 2.41699 v -8.34229 l -2.62939,0.52734 v -1.34765 l 2.61474,-0.52735 h 1.4795 v 9.68995 h 2.41699 v 1.24511 h -6.29883 z m -324.555529,-11.55207 0.382234,-1.29232 q 0.458997,0.41072 0.967357,0.7062 0.508351,0.29548 1.035113,0.45128 1.404685,0.41547 2.420517,-0.30754 1.024921,-0.72797 1.699475,-2.62124 -0.586017,0.48353 -1.306658,0.62173 -0.720648,0.13819 -1.479175,-0.0862 -1.573256,-0.46533 -2.212883,-1.68563 -0.63053,-1.22524 -0.142353,-2.87575 0.477791,-1.61539 1.721729,-2.30913 1.243944,-0.69374 2.83124,-0.22426 1.81907,0.53804 2.360874,2.21822 0.550897,1.67524 -0.23434,4.3301 -0.733306,2.47928 -2.351567,3.61223 -1.609166,1.12801 -3.596797,0.54012 -0.533781,-0.15788 -1.050452,-0.42526 -0.516667,-0.2674 -1.044314,-0.65259 z m 4.138383,-3.61075 q 0.955195,0.28252 1.70324,-0.20655 0.755071,-0.48699 1.091601,-1.62479 0.334454,-1.13077 -0.03423,-1.95014 -0.359577,-0.82432 -1.314772,-1.10684 -0.955185,-0.28252 -1.712335,0.2115 -0.748042,0.48907 -1.082496,1.61984 -0.33653,1.1378 0.02513,1.95509 0.368682,0.81937 1.323867,1.10189 z m 39.842436,58.23557 h 1.34766 q -0.26367,0.55664 -0.40283,1.12793 -0.13916,0.57129 -0.13916,1.1206 0,1.46485 0.98144,2.23389 0.98877,0.77637 2.99561,0.88623 -0.62988,-0.4248 -0.9668,-1.07666 -0.33691,-0.65185 -0.33691,-1.44287 0,-1.64062 0.98877,-2.6001 0.99609,-0.95215 2.71728,-0.95215 1.68457,0 2.70264,0.9961 1.01807,0.99609 1.01807,2.65137 0,1.89697 -1.45752,2.89306 -1.4502,1.00342 -4.21875,1.00342 -2.58545,0 -4.13086,-1.23047 -1.53809,-1.22314 -1.53809,-3.2959 0,-0.55664 0.10986,-1.12793 0.10987,-0.57129 0.32959,-1.18652 z m 4.63623,2.94434 q 0,0.99609 0.68116,1.5747 0.68115,0.58594 1.86767,0.58594 1.1792,0 1.86035,-0.58594 0.68848,-0.57861 0.68848,-1.5747 0,-0.9961 -0.68848,-1.58204 -0.68115,-0.57861 -1.86035,-0.57861 -1.18652,0 -1.86767,0.57861 -0.68116,0.58594 -0.68116,1.58204 z m 37.10791,34.9375 q -1.05468,0 -1.66259,0.56396 -0.60059,0.56396 -0.60059,1.55273 0,0.98877 0.60059,1.55274 0.60791,0.56396 1.66259,0.56396 1.05469,0 1.6626,-0.56396 0.60791,-0.57129 0.60791,-1.55274 0,-0.98877 -0.60791,-1.55273 -0.60058,-0.56396 -1.6626,-0.56396 z m -1.47949,-0.62989 q -0.95215,-0.23437 -1.48681,-0.88623 -0.52735,-0.65185 -0.52735,-1.58935 0,-1.31104 0.93018,-2.07276 0.9375,-0.76172 2.56347,-0.76172 1.6333,0 2.56348,0.76172 0.93018,0.76172 0.93018,2.07276 0,0.9375 -0.53467,1.58935 -0.52735,0.65186 -1.47217,0.88623 1.06934,0.24903 1.6626,0.97412 0.60058,0.7251 0.60058,1.77246 0,1.58936 -0.97412,2.43897 -0.96679,0.84961 -2.77588,0.84961 -1.80908,0 -2.7832,-0.84961 -0.9668,-0.84961 -0.9668,-2.43897 0,-1.04736 0.60059,-1.77246 0.60059,-0.72509 1.66992,-0.97412 z m -0.54199,-2.33642 q 0,0.84961 0.52734,1.32568 0.53467,0.47607 1.49414,0.47607 0.95215,0 1.48682,-0.47607 0.54199,-0.47607 0.54199,-1.32568 0,-0.84961 -0.54199,-1.32569 -0.53467,-0.47607 -1.48682,-0.47607 -0.95947,0 -1.49414,0.47607 -0.52734,0.47608 -0.52734,1.32569 z m 606.2857,-278.34701 q -0.85434,0.61843 -1.01608,1.43172 -0.15582,0.809 0.42396,1.60995 0.57978,0.80095 1.39698,0.90563 0.82312,0.10038 1.67746,-0.51805 0.85435,-0.61843 1.0161,-1.43172 0.15745,-0.81923 -0.41804,-1.61425 -0.57978,-0.80095 -1.4029,-0.90133 -0.81719,-0.10468 -1.67748,0.51805 z m -1.56779,0.35729 q -0.90872,0.36845 -1.72404,0.15392 -0.80941,-0.21881 -1.35913,-0.97823 -0.76874,-1.062 -0.4619,-2.22445 0.31278,-1.16675 1.62989,-2.12016 1.32306,-0.95772 2.52318,-0.88611 1.20014,0.0716 1.96888,1.1336 0.54972,0.75942 0.49884,1.60097 -0.045,0.83724 -0.67287,1.58112 1.01223,-0.42531 1.91797,-0.18581 0.91167,0.2352 1.52581,1.08361 0.93194,1.28746 0.64104,2.54687 -0.28496,1.25512 -1.75041,2.31591 -1.46544,1.06078 -2.7527,0.94375 -1.28134,-0.12133 -2.21328,-1.40879 -0.61414,-0.84841 -0.55281,-1.78794 0.0613,-0.93953 0.78153,-1.76826 z m -1.80904,-1.57482 q 0.49818,0.68823 1.20451,0.76466 0.71226,0.0721 1.48947,-0.49047 0.77129,-0.55831 0.92524,-1.25746 0.15989,-0.70345 -0.3383,-1.39168 -0.49818,-0.68822 -1.21637,-0.75605 -0.71226,-0.0721 -1.48354,0.48618 -0.77722,0.5626 -0.93117,1.26175 -0.14802,0.69485 0.35016,1.38307 z M 220.82812,596.2251 h 7.03125 v 0.62988 l -3.96972,10.30518 h -1.54541 l 3.73535,-9.68995 h -5.25147 z m 474.34419,-276.96588 5.71243,4.09959 -0.36726,0.51174 -9.2336,6.05771 -1.25555,-0.90105 8.68448,-5.69453 -4.26647,-3.06188 z m -29.38519,166.20446 q -0.80688,0.58407 -0.88211,1.47941 -0.0693,0.89104 0.62643,1.85219 0.69144,0.95521 1.56385,1.17362 0.87404,0.20819 1.68092,-0.37588 0.80688,-0.58407 0.87618,-1.47513 0.0709,-0.90126 -0.6205,-1.85646 -0.69574,-0.96115 -1.56978,-1.16934 -0.86811,-0.21248 -1.67499,0.37159 z m -0.33941,-5.47773 0.79023,1.09167 q -0.60552,0.1128 -1.14989,0.33506 -0.53843,0.21796 -0.98934,0.54436 -1.1866,0.85893 -1.2357,2.11511 -0.0432,1.2519 1.04026,2.93601 -0.0236,-0.76955 0.30689,-1.42469 0.32619,-0.66107 0.96101,-1.1206 1.33492,-0.9663 2.69457,-0.7118 1.3613,0.24429 2.37054,1.63854 0.98777,1.36458 0.77786,2.77333 -0.20994,1.40876 -1.55078,2.37935 -1.53664,1.11232 -3.1998,0.52597 -1.66745,-0.59229 -3.28654,-2.82902 -1.52032,-2.10027 -1.42546,-4.06769 0.0906,-1.97336 1.76959,-3.18875 0.45091,-0.32639 0.97217,-0.5681 0.52719,-0.24599 1.15439,-0.42875 z m -323.4326,8.53788 q -0.31499,-0.94497 -1.14648,-1.28545 -0.82917,-0.33352 -1.95481,0.0417 -1.11868,0.37289 -1.58885,1.13952 -0.46091,0.77127 -0.14592,1.71625 0.31499,0.94497 1.14417,1.2785 0.83843,0.33815 1.95711,-0.0348 1.12564,-0.37521 1.58655,-1.14647 0.46322,-0.76433 0.14823,-1.7093 z m 5.32708,1.32019 -1.2785,0.42616 q 0.0741,-0.61145 0.0255,-1.19743 -0.0463,-0.57903 -0.22235,-1.1071 -0.46322,-1.38968 -1.64676,-1.81352 -1.18122,-0.41691 -3.11287,0.11117 0.74117,0.20845 1.26692,0.72031 0.53271,0.50955 0.78053,1.25302 0.52113,1.56338 -0.1297,2.78398 -0.64156,1.22522 -2.27444,1.76952 -1.59812,0.5327 -2.87893,-0.0903 -1.28082,-0.62304 -1.80426,-2.19337 -0.59987,-1.79962 0.4586,-3.21015 1.06541,-1.41283 3.68495,-2.28601 2.45971,-0.8199 4.30798,-0.13897 1.85522,0.67863 2.51068,2.64501 0.17602,0.52808 0.25013,1.09785 0.0764,0.57672 0.0625,1.22986 z m 280.98514,-57.39635 -4.70483,3.40566 -0.7301,-1.0086 3.60724,-2.61116 -1.57185,-2.17146 q -0.19663,0.27796 -0.42762,0.50846 -0.22668,0.23643 -0.48774,0.4254 -1.48323,1.07366 -2.93782,0.88787 -1.45458,-0.18579 -2.45953,-1.5741 -1.03502,-1.42985 -0.72055,-2.86907 0.31875,-1.43328 1.93845,-2.60572 0.5577,-0.4037 1.20784,-0.72966 0.64421,-0.32165 1.39867,-0.57844 l 0.87181,1.20439 q -0.7444,0.0958 -1.41704,0.3657 -0.67263,0.2699 -1.30746,0.72943 -1.0264,0.74297 -1.23482,1.71664 -0.20841,0.97365 0.46156,1.8992 0.66997,0.92554 1.66001,1.03168 0.99004,0.10613 2.01644,-0.63685 0.48057,-0.34786 0.88384,-0.80252 0.39733,-0.45037 0.7325,-1.03657 z m -59.87301,-16.54193 -1.7431,-5.54036 1.18772,-0.37368 1.33645,4.24784 2.55709,-0.8045 q -0.20151,-0.27444 -0.34714,-0.56647 -0.15261,-0.28982 -0.24933,-0.59723 -0.54953,-1.74665 0.0867,-3.06783 0.63624,-1.32119 2.2711,-1.83554 1.68376,-0.52975 2.94969,0.2237 1.25893,0.75564 1.85902,2.66298 0.20662,0.65674 0.31025,1.37659 0.10143,0.71287 0.10646,1.50982 l -1.41828,0.44622 q 0.14452,-0.73651 0.10117,-1.45998 -0.0433,-0.72346 -0.27853,-1.47102 -0.38028,-1.20869 -1.23806,-1.71431 -0.85779,-0.50562 -1.9477,-0.16271 -1.08991,0.3429 -1.50368,1.24858 -0.41377,0.90568 -0.0335,2.11436 0.17805,0.56591 0.48186,1.09226 0.3016,0.51936 0.75173,1.0227 z m 170.4856,12.17522 0.39704,6.91884 3.02581,-2.19028 z m -1.07031,-0.81658 1.50697,-1.09085 4.17871,5.77276 1.26372,-0.91476 0.72151,0.99674 -1.26372,0.91476 1.51172,2.08841 -1.19252,0.86323 -1.51173,-2.08841 -3.99881,2.89461 -0.83746,-1.15693 z m -469.63035,17.42947 -3.73535,5.8374 h 3.73535 z m -0.38819,-1.28906 h 1.86036 v 7.12646 h 1.56005 v 1.23047 h -1.56005 v 2.57812 h -1.47217 v -2.57812 h -4.93653 v -1.42822 z m 489.76886,-70.56144 q -0.4388,-0.99341 -0.20524,-1.89485 0.22926,-0.90738 1.08361,-1.52582 1.31118,-0.94912 2.68186,-0.56696 1.37069,0.38215 2.57319,2.04338 0.4037,0.55769 0.72044,1.2326 0.31838,0.66466 0.55409,1.45246 l -1.15693,0.83746 q -0.07,-0.70881 -0.35118,-1.40947 -0.28114,-0.70067 -0.74926,-1.34736 -0.81598,-1.12726 -1.68613,-1.39252 -0.87443,-0.2712 -1.72285,0.34294 -0.78316,0.5669 -0.82279,1.43646 -0.0499,0.86793 0.65877,1.84688 l 0.74727,1.03233 -0.98488,0.71291 -0.78163,-1.0798 q -0.6399,-0.884 -1.32922,-1.09933 -0.69526,-0.21101 -1.35975,0.26999 -0.68229,0.49388 -0.69204,1.24236 -0.02,0.74684 0.63282,1.64865 0.35645,0.49244 0.87123,0.97877 0.51479,0.48632 1.22984,0.99948 l -1.06794,0.77304 q -0.68374,-0.54487 -1.20813,-1.06945 -0.52869,-0.5305 -0.91092,-1.05854 -0.98777,-1.36458 -0.94029,-2.61053 0.0415,-1.24167 1.0976,-2.00612 0.7357,-0.53254 1.55085,-0.48064 0.80922,0.0562 1.56761,0.69168 z M 251.51416,563.72217 q 0.22705,-1.06201 0.94482,-1.65528 0.71778,-0.60058 1.77247,-0.60058 1.61865,0 2.50488,1.11328 0.88623,1.11328 0.88623,3.16406 0,0.68848 -0.13916,1.4209 -0.13184,0.7251 -0.40283,1.50147 h -1.42823 q 0.35889,-0.61524 0.542,-1.34766 0.1831,-0.73242 0.1831,-1.53076 0,-1.3916 -0.54932,-2.1167 -0.54931,-0.73242 -1.59667,-0.73242 -0.9668,0 -1.50879,0.68115 -0.54932,0.67383 -0.54932,1.88232 v 1.27442 h -1.21582 v -1.33301 q 0,-1.09131 -0.43213,-1.66992 -0.43945,-0.57862 -1.25977,-0.57862 -0.84228,0 -1.28906,0.60059 -0.4541,0.59326 -0.4541,1.70654 0,0.60791 0.13184,1.30371 0.13183,0.6958 0.41015,1.53077 h -1.31836 q -0.23437,-0.84229 -0.35156,-1.57471 -0.11719,-0.73975 -0.11719,-1.3916 0,-1.68457 0.76905,-2.66602 0.76172,-0.98144 2.06543,-0.98144 0.9082,0 1.53808,0.52002 0.62256,0.52002 0.86426,1.47949 z m -27.80664,-37.21924 h -5.16357 v -1.24512 h 6.94335 v 1.24512 q -0.84228,0.87158 -2.29248,2.33643 -1.45752,1.47216 -1.83105,1.89697 -0.71045,0.79834 -0.98877,1.34765 -0.28564,0.55664 -0.28564,1.09131 0,0.87158 0.61523,1.4209 0.60791,0.54932 1.58936,0.54932 0.6958,0 1.47216,-0.2417 0.76905,-0.2417 1.64795,-0.73242 v 1.49414 q -0.89355,0.35888 -1.66992,0.54199 -0.77637,0.1831 -1.4209,0.1831 -1.69922,0 -2.70996,-0.8496 -1.01074,-0.84961 -1.01074,-2.27051 0,-0.67383 0.25635,-1.28174 0.24902,-0.60059 0.91552,-1.4209 0.18311,-0.2124 1.16455,-1.23047 0.98145,-1.01074 2.76856,-2.83447 z m -27.86131,-37.01018 1.63286,-4.89859 1.18123,0.39374 -2.19568,6.58704 -1.18123,-0.39374 q -0.5605,-1.07468 -1.49158,-2.91369 -0.93571,-1.84826 -1.2206,-2.33696 -0.53271,-0.92645 -0.96582,-1.36419 -0.43775,-0.44701 -0.94497,-0.61609 -0.82687,-0.27562 -1.54254,0.13433 -0.71337,0.40301 -1.02373,1.33409 -0.22003,0.6601 -0.23624,1.47305 -0.0139,0.80602 0.1737,1.79499 l -1.41746,-0.47248 q -0.0579,-0.96119 0.0139,-1.75562 0.0718,-0.79444 0.27561,-1.40589 0.53734,-1.61202 1.66298,-2.30222 1.12563,-0.69021 2.47362,-0.24088 0.63925,0.21309 1.1349,0.64852 0.49102,0.42616 1.05847,1.31787 0.14359,0.24088 0.79906,1.49389 0.64851,1.25071 1.81352,3.52283 z m 501.22067,-118.76436 -1.95788,1.41724 4.89163,6.75764 1.82071,-1.96896 0.79022,1.09167 -1.80885,1.96037 -1.19846,0.86752 -5.68184,-7.84931 -1.95788,1.41724 -0.73009,-1.0086 5.10234,-3.69342 z m -84.9619,-29.12472 1.95788,-1.41724 -4.89163,-6.75764 -1.82072,1.96896 -0.79022,-1.09166 1.80886,-1.96037 1.19845,-0.86752 5.68185,7.8493 1.95787,-1.41724 0.7301,1.00861 -5.10234,3.69341 z M 91.140934,302.94824 q 0.324067,-1.09566 -0.593434,-1.97042 -0.912558,-0.86567 -3.075779,-1.50549 -2.156193,-0.63775 -3.399838,-0.40983 -1.238701,0.23701 -1.562769,1.33267 -0.326143,1.10268 0.586414,1.96835 0.917502,0.87476 3.073694,1.51251 2.163222,0.63982 3.401924,0.40281 1.243644,-0.22792 1.569788,-1.3306 z m 1.123746,0.33238 q -0.521415,1.76288 -2.193293,2.27659 -1.666924,0.5228 -4.321792,-0.26244 -2.647838,-0.78316 -3.769217,-2.13067 -1.116426,-1.33841 -0.59501,-3.1013 0.521415,-1.76289 2.18834,-2.28569 1.671877,-0.5137 4.319716,0.26946 2.654868,0.78524 3.771293,2.12365 1.121379,1.34751 0.599963,3.1104 z M 613.89654,182.34194 q 0.90497,0.69752 2.05182,0.15738 1.13658,-0.5388 2.51372,-2.32553 1.37267,-1.78092 1.60875,-3.02304 0.22582,-1.24079 -0.67914,-1.9383 -0.91077,-0.70198 -2.04735,-0.16317 -1.14685,0.54013 -2.51952,2.32105 -1.37714,1.78673 -1.60295,3.02751 -0.23609,1.24212 0.67467,1.9441 z m -0.7154,0.92818 q -1.45606,-1.12228 -1.33202,-2.86689 0.11377,-1.74329 1.80389,-3.93608 1.68565,-2.187 3.34697,-2.74674 1.65104,-0.55841 3.10711,0.56387 1.45606,1.12228 1.3423,2.86556 -0.12404,1.74462 -1.80969,3.93162 -1.69013,2.19279 -3.34118,2.7512 -1.66131,0.55974 -3.11738,-0.56254 z" />
    <path
       id="path361"
       style="fill:none;stroke:#ff0000;stroke-width:1;stroke-linecap:butt;stroke-linejoin:miter;stroke-miterlimit:10;stroke-dasharray:none;stroke-opacity:1"
       d="m 540.77,91.977 -1.329,-24.25 26.782,-38.254 23.246,-7.043 m 240.394,168.328 -48.695,69.547 m -43.684,-134.235 29.387,2.27 50.813,35.578 12.179,26.84 m -233.457,-59.824 -21.121,3.523 -30.601,-21.426 -3.914,-21.054 m 48.699,-69.547 21.121,-3.524 30.598,21.426 3.914,21.055 m 43.683,134.234 -29.387,-2.269 -50.812,-35.579 -12.18,-26.839 m 184.762,129.371 -29.391,-2.266 -50.808,-35.578 -12.184,-26.84 m -43.683,-134.234 29.39,2.265 50.809,35.578 12.183,26.84 M 595.891,258.91 505.324,191.707 M 232.598,376.602 h 67.918 M 540.875,298.734 595.891,258.91 M 300.516,376.602 266.555,269.059 m 0,0 -33.957,107.543 M 505.324,191.707 540.875,298.734 M 306.176,37 v 84.902 m 0,0 13.551,-20.156 44.421,-14.394 22.797,8.382 M 221.273,37 h 84.903 m 80.769,58.734 6.676,-23.351 37.828,-27.379 24.27,0.949 m -315.86,51.867 22.575,-8.965 44.777,13.243 14.062,19.804 m 0,0 V 37 M 566.91,566.367 517.125,497.594 m 0,0 -13.551,20.156 -44.422,14.391 -22.797,-8.383 m 203.915,-10.492 -73.36,53.101 m -130.555,-42.609 -20.375,15 h -49.808 l -20.375,-15 m -243.383,0 -22.57,8.969 L 35.062,519.48 21,499.68 m 81.414,108.98 v -84.902 m 84.902,84.902 -19.101,15 h -46.699 l -19.102,-15 M 787.637,301.781 718.859,351.566 M 258.91,608.66 l -16.109,15 h -39.375 l -16.11,-15 M 718.859,351.566 660.695,309.82 m 37.567,161.465 -57.992,41.981 m -294.473,10.492 -19.324,-10.539 -12.453,-37.356 9.136,-20.023 m 267.328,-11.348 4.254,-21.597 31.899,-23.09 21.843,2.707 M 569,376.195 l 21.484,68.297 m 199.477,-39.582 -91.699,66.375 m -375.106,-15.445 -25.468,15 h -62.262 l -25.469,-15 m 530.219,-119.703 23.351,6.675 27.383,37.829 -0.949,24.269 M 258.91,523.758 v 84.902 m -71.594,-84.902 h 71.594 m -48.953,-67.918 9.137,20.023 -12.453,37.356 -19.325,10.539 M 648.48,402.512 740.176,336.137 M 660.695,309.82 648.859,336.906 598.426,373.414 569,376.195 M 21,499.68 139.859,97.82 m 315.86,-51.867 331.918,255.828" />
    <path
       id="path363"
       style="fill:none;stroke:#00ff00;stroke-width:1;stroke-linecap:butt;stroke-linejoin:miter;stroke-miterlimit:10;stroke-dasharray:8, 2, 2, 2;stroke-dashoffset:0;stroke-opacity:1"
       d="M 540.77,91.977 589.469,22.43 m 6.937,108.504 48.696,-69.547 m 92.382,64.683 -48.699,69.551 m -40.305,206.891 49.782,68.773 m 41.914,-135.148 49.785,68.773" />
  </g>
</svg>
