<?xml version="1.0" encoding="UTF-8" standalone="no"?>
<!-- Created with Inkscape (http://www.inkscape.org/) -->

<svg
   version="1.1"
   id="svg25"
   width="1132"
   height="1132"
   viewBox="0 0 1132 1132"
   sodipodi:docname="B.svg"
   inkscape:version="1.2.2 (732a01da63, 2022-12-09, custom)"
   xmlns:inkscape="http://www.inkscape.org/namespaces/inkscape"
   xmlns:sodipodi="http://sodipodi.sourceforge.net/DTD/sodipodi-0.dtd"
   xmlns="http://www.w3.org/2000/svg"
   xmlns:svg="http://www.w3.org/2000/svg">
  <defs
     id="defs29" />
  <sodipodi:namedview
     id="namedview27"
     pagecolor="#ffffff"
     bordercolor="#666666"
     borderopacity="1.0"
     inkscape:showpageshadow="2"
     inkscape:pageopacity="0.0"
     inkscape:pagecheckerboard="0"
     inkscape:deskcolor="#d1d1d1"
     showgrid="false"
     inkscape:zoom="0.65989399"
     inkscape:cx="665.25837"
     inkscape:cy="459.92236"
     inkscape:window-width="1920"
     inkscape:window-height="1009"
     inkscape:window-x="0"
     inkscape:window-y="0"
     inkscape:window-maximized="1"
     inkscape:current-layer="g33">
    <inkscape:page
       x="0"
       y="0"
       id="page31"
       width="1132"
       height="1132" />
  </sodipodi:namedview>
  <g
     id="g33"
     inkscape:groupmode="layer"
     inkscape:label="Page 1"
     transform="matrix(1.3333333,0,0,1.3333333,0,2.83e-5)">
    <path
       id="path6642"
       style="font-size:15px;font-family:'DejaVu Sans';-inkscape-font-specification:DejaVuSans;fill:#0000ff"
       d="m 406.49695,89.514755 q 0,-1.142578 -1.12793,-1.721191 -1.12061,-0.571289 -3.37647,-0.571289 -2.24853,0 -3.37646,0.571289 -1.12061,0.578613 -1.12061,1.721191 0,1.149903 1.12061,1.721192 1.12793,0.578613 3.37646,0.578613 2.25586,0 3.37647,-0.578613 1.12793,-0.571289 1.12793,-1.721192 z m 1.17187,0 q 0,1.838379 -1.45752,2.805176 -1.45019,0.974121 -4.21875,0.974121 -2.76123,0 -4.21875,-0.974121 -1.45019,-0.966797 -1.45019,-2.805176 0,-1.838379 1.45019,-2.8125 1.45752,-0.966797 4.21875,-0.966797 2.76856,0 4.21875,0.966797 1.45752,0.974121 1.45752,2.8125 z m 372.10157,-1.977539 q 0,1.142578 1.12793,1.721192 1.1206,0.571289 3.37646,0.571289 2.24854,0 3.37647,-0.571289 1.1206,-0.578614 1.1206,-1.721192 0,-1.149902 -1.1206,-1.721191 -1.12793,-0.578614 -3.37647,-0.578614 -2.25586,0 -3.37646,0.578614 -1.12793,0.571289 -1.12793,1.721191 z m -1.17188,0 q 0,-1.838379 1.45752,-2.805176 1.4502,-0.974121 4.21875,-0.974121 2.76123,0 4.21875,0.974121 1.4502,0.966797 1.4502,2.805176 0,1.838379 -1.4502,2.8125 -1.45752,0.966797 -4.21875,0.966797 -2.76855,0 -4.21875,-0.966797 -1.45752,-0.974121 -1.45752,-2.8125 z M 407.40509,598.85321 q 0,-1.14258 -1.12793,-1.72119 -1.1206,-0.57129 -3.37646,-0.57129 -2.24854,0 -3.37647,0.57129 -1.1206,0.57861 -1.1206,1.72119 0,1.1499 1.1206,1.72119 1.12793,0.57862 3.37647,0.57862 2.25586,0 3.37646,-0.57862 1.12793,-0.57129 1.12793,-1.72119 z m 1.17188,0 q 0,1.83838 -1.45752,2.80518 -1.4502,0.97412 -4.21875,0.97412 -2.76123,0 -4.21875,-0.97412 -1.4502,-0.9668 -1.4502,-2.80518 0,-1.83838 1.4502,-2.8125 1.45752,-0.9668 4.21875,-0.9668 2.76855,0 4.21875,0.9668 1.45752,0.97412 1.45752,2.8125 z m 372.1015,-1.97754 q 0,1.14258 1.12793,1.72119 1.1206,0.57129 3.37646,0.57129 2.24854,0 3.37647,-0.57129 1.1206,-0.57861 1.1206,-1.72119 0,-1.1499 -1.1206,-1.72119 -1.12793,-0.57861 -3.37647,-0.57861 -2.25586,0 -3.37646,0.57861 -1.12793,0.57129 -1.12793,1.72119 z m -1.17188,0 q 0,-1.83838 1.45752,-2.80517 1.4502,-0.97413 4.21875,-0.97413 2.76123,0 4.21875,0.97413 1.4502,0.96679 1.4502,2.80517 0,1.83838 -1.4502,2.8125 -1.45752,0.9668 -4.21875,0.9668 -2.76855,0 -4.21875,-0.9668 -1.45752,-0.97412 -1.45752,-2.8125 z M 29.25154,429.06506 l 0.0051,2.41699 8.342266,-0.0175 -0.532853,-2.62829 1.347653,-0.003 0.532824,2.61364 0.0031,1.47948 -9.689921,0.0203 0.0051,2.417 -1.245114,0.003 -0.0132,-6.29882 z m -0.02,-9.53999 0.0051,2.41699 8.342267,-0.0175 -0.532853,-2.62828 1.347653,-0.003 0.532823,2.61363 0.0031,1.47948 -9.689921,0.0203 0.0051,2.417 -1.245114,0.003 -0.0132,-6.29882 z m 730.306876,1.26144 -0.005,-2.41699 -8.34227,0.0175 0.53285,2.62829 -1.34765,0.003 -0.53282,-2.61364 -0.003,-1.47949 9.68993,-0.0203 -0.005,-2.41698 1.2451,-0.003 0.0132,6.29881 z m 0.02,9.53998 -0.005,-2.41698 -8.34227,0.0175 0.53285,2.62827 -1.34765,0.003 -0.53283,-2.61363 -0.003,-1.47949 9.68993,-0.0203 -0.005,-2.41699 1.24511,-0.003 0.0132,6.29881 z M 62.41708,213.51238 q 1.142576,-0.002 1.718824,-1.13154 0.568939,-1.1218 0.56421,-3.37765 -0.0047,-2.24854 -0.578364,-3.37527 -0.580961,-1.11938 -1.723536,-1.11699 -1.1499,0.002 -1.718839,1.12421 -0.576248,1.12914 -0.571536,3.37768 0.0047,2.25585 0.58569,3.37524 0.573652,1.12673 1.723551,1.12432 z m 0.0025,1.17187 q -1.838375,0.004 -2.808225,-1.45163 -0.977159,-1.44816 -0.982961,-4.2167 -0.0058,-2.76123 0.965276,-4.22079 0.963756,-1.45222 2.80213,-1.45607 1.838375,-0.004 2.815534,1.4443 0.96985,1.45549 0.975637,4.21671 0.0058,2.76855 -0.957952,4.22077 -0.971064,1.45956 -2.809439,1.46341 z m 12.426921,-9.91377 -2.416987,0.005 0.01749,8.34227 2.628283,-0.53286 0.0028,1.34766 -2.613635,0.53282 -1.479489,0.003 -0.02031,-9.68992 -2.416987,0.005 -0.0026,-1.24512 6.298814,-0.0132 z m 25.465809,-95.76134 q -0.002,-1.14258 -1.131533,-1.71883 -1.121801,-0.56894 -3.377655,-0.56421 -2.24853,0.005 -3.37526,0.57837 -1.11939,0.58096 -1.116995,1.72353 0.0024,1.1499 1.12421,1.71884 1.129141,0.57625 3.377671,0.57153 2.255854,-0.005 3.375245,-0.58568 1.126727,-0.57366 1.124317,-1.72355 z m 1.17188,-0.002 q 0.004,1.83838 -1.45164,2.80822 -1.448152,0.97716 -4.216701,0.98296 -2.761224,0.006 -4.220783,-0.96528 -1.452218,-0.96374 -1.456071,-2.80212 -0.0039,-1.83838 1.444297,-2.81553 1.45549,-0.96986 4.216714,-0.97564 2.768549,-0.006 4.220764,0.95795 1.45957,0.97106 1.46342,2.80944 z m -9.91377,-12.427427 0.0051,2.416987 8.342267,-0.01749 -0.532853,-2.628283 1.347656,-0.0028 0.53281,2.613635 0.003,1.479488 -9.689919,0.0203 0.0051,2.41699 -1.245115,0.003 -0.0132,-6.298817 z m -63.691342,162.849917 1.347653,-0.003 q -0.262505,0.55719 -0.400467,1.12877 -0.137962,0.57158 -0.136811,1.12089 0.0031,1.46485 0.986125,2.23183 0.990394,0.7743 2.997456,0.87995 -0.630771,-0.42348 -0.96905,-1.07463 -0.338281,-0.65115 -0.339939,-1.44216 -0.0034,-1.64063 0.983318,-2.60217 0.994096,-0.95423 2.715283,-0.95784 1.684567,-0.004 2.704719,0.99043 1.020152,0.99395 1.023621,2.64922 0.004,1.89698 -1.451452,2.89612 -1.448089,1.00646 -4.216637,1.01226 -2.585444,0.005 -4.13343,-1.22181 -1.540647,-1.21992 -1.544991,-3.29267 -0.0012,-0.55664 0.1075,-1.12816 0.108665,-0.57151 0.327102,-1.1872 z m 4.642391,2.9346 q 0.0021,0.9961 0.684451,1.57328 0.68238,0.58451 1.8689,0.58202 1.179197,-0.002 1.85912,-0.58983 0.687262,-0.58005 0.685174,-1.57615 -0.0021,-0.99609 -0.69179,-1.58059 -0.682365,-0.57718 -1.861561,-0.57471 -1.186521,0.002 -1.866459,0.58253 -0.679923,0.58736 -0.677835,1.58345 z m 727.700481,-0.2226 -1.34765,0.003 q 0.2625,-0.55719 0.40046,-1.12877 0.13796,-0.57158 0.13681,-1.1209 -0.003,-1.46484 -0.98612,-2.23183 -0.99039,-0.77429 -2.99746,-0.87995 0.63078,0.42349 0.96906,1.07463 0.33827,0.65115 0.33993,1.44217 0.003,1.64062 -0.98332,2.60216 -0.99409,0.95424 -2.71528,0.95784 -1.68456,0.004 -2.70472,-0.99042 -1.02014,-0.99396 -1.02361,-2.64923 -0.004,-1.89697 1.45145,-2.89612 1.44808,-1.00645 4.21664,-1.01225 2.58543,-0.005 4.13342,1.2218 1.54065,1.21992 1.54499,3.29267 10e-4,0.55664 -0.10749,1.12816 -0.10868,0.57152 -0.32711,1.18721 z m -4.64239,-2.93461 q -0.002,-0.99609 -0.68446,-1.57328 -0.68237,-0.5845 -1.86889,-0.58201 -1.1792,0.002 -1.85912,0.58982 -0.68726,0.58007 -0.68518,1.57615 0.002,0.99609 0.6918,1.58059 0.68236,0.57719 1.86156,0.57472 1.18651,-0.002 1.86645,-0.58254 0.67993,-0.58736 0.67784,-1.58345 z M 96.544756,585.04631 q -0.0022,-1.05469 -0.567448,-1.66142 -0.565222,-0.5994 -1.553989,-0.59733 -0.988767,0.002 -1.551472,0.60384 -0.56269,0.60909 -0.560479,1.66378 0.0022,1.05468 0.567448,1.66141 0.572562,0.60671 1.554005,0.60465 0.988768,-0.002 1.551456,-0.61116 0.562705,-0.60176 0.560479,-1.66377 z m 0.626781,-1.48082 q 0.232379,-0.95264 0.883113,-1.48866 0.650748,-0.52872 1.588246,-0.53068 1.311034,-0.003 2.074694,0.92583 0.76369,0.9359 0.7671,2.56188 0.003,1.6333 -0.75635,2.56506 -0.75977,0.93177 -2.070799,0.93452 -0.937498,0.002 -1.590472,-0.53134 -0.65296,-0.52597 -0.889315,-1.4703 -0.246781,1.06986 -0.970634,1.66463 -0.723837,0.60211 -1.771198,0.60431 -1.589351,0.003 -2.441001,-0.96902 -0.851634,-0.96501 -0.855426,-2.77408 -0.0038,-1.80909 0.843774,-2.78499 0.847582,-0.96856 2.436933,-0.9719 1.047361,-0.002 1.773716,0.59687 0.726355,0.59907 0.977619,1.66787 z m 2.335285,-0.54688 q -0.849607,0.002 -1.324576,0.53011 -0.474952,0.53567 -0.472941,1.49515 0.002,0.95214 0.479189,1.48581 0.47721,0.54099 1.326817,0.53921 0.849609,-0.002 1.324549,-0.54477 0.47494,-0.53567 0.47295,-1.4878 -0.002,-0.95948 -0.4792,-1.49315 -0.47718,-0.52634 -1.326788,-0.52456 z M 70.07896,478.34224 q -1.054684,0.002 -1.661412,0.56744 -0.599403,0.56523 -0.59733,1.554 0.0021,0.98876 0.603839,1.55146 0.609092,0.5627 1.663776,0.56049 1.054686,-0.002 1.661413,-0.56746 0.606711,-0.57256 0.604654,-1.554 -0.0021,-0.98876 -0.611163,-1.55146 -0.601767,-0.5627 -1.663777,-0.56047 z m -1.480809,-0.62679 q -0.952638,-0.23237 -1.488671,-0.88311 -0.528708,-0.65075 -0.530673,-1.58824 -0.0027,-1.31104 0.925828,-2.07471 0.935902,-0.76367 2.561875,-0.76708 1.633298,-0.003 2.565068,0.75633 0.93177,0.75977 0.934518,2.07081 0.002,0.9375 -0.531336,1.59047 -0.525976,0.65296 -1.470307,0.88931 1.069855,0.24679 1.664636,0.97064 0.602104,0.72383 0.6043,1.7712 0.0033,1.58935 -0.969007,2.441 -0.965014,0.85163 -2.774092,0.85542 -1.809078,0.004 -2.784978,-0.84377 -0.968576,-0.84758 -0.971907,-2.43693 -0.0022,-1.04737 0.59687,-1.77371 0.599065,-0.72636 1.667876,-0.97763 z m -0.546888,-2.33528 q 0.0018,0.84961 0.530121,1.32457 0.535664,0.47496 1.495135,0.47295 0.952146,-0.002 1.485815,-0.4792 0.540994,-0.4772 0.539213,-1.32681 -0.0018,-0.84961 -0.54477,-1.32454 -0.535665,-0.47496 -1.487811,-0.47296 -0.95947,0.002 -1.493139,0.47921 -0.526344,0.47717 -0.524564,1.32678 z m 61.646787,138.59329 7.03124,-0.0147 0.001,0.62988 -3.94813,10.31347 -1.5454,0.003 3.71503,-9.69776 -5.25145,0.011 z m 591.57518,-109.66831 5.19276,-4.74064 0.42468,0.46518 4.01627,10.28713 -1.14133,1.04195 -3.77455,-9.67474 -3.87834,3.54068 z m -590.60309,44.75934 q 0.99608,-0.002 1.5806,-0.68447 0.57718,-0.68237 0.57469,-1.86889 -0.002,-1.17919 -0.58252,-1.86646 -0.58737,-0.67992 -1.58346,-0.67783 -0.9961,0.002 -1.57328,0.68445 -0.58449,0.6897 -0.58202,1.8689 0.002,1.18652 0.58985,1.86645 0.58004,0.67993 1.57614,0.67785 z m -2.92729,4.64237 -0.003,-1.34766 q 0.55719,0.26251 1.12877,0.40047 0.56425,0.13798 1.12089,0.13681 1.46483,-0.003 2.23913,-0.99345 0.76698,-0.99038 0.87264,-2.99013 -0.43079,0.63811 -1.08194,0.97639 -0.65113,0.34561 -1.43482,0.34725 -1.64794,0.003 -2.60219,-0.99796 -0.96156,-0.99409 -0.96517,-2.71527 -0.004,-1.68457 0.99043,-2.70473 0.99395,-1.02014 2.64923,-1.02361 1.89696,-0.004 2.90342,1.44411 1.00647,1.45541 1.01226,4.21664 0.005,2.59277 -1.22181,4.13343 -1.22723,1.54798 -3.29998,1.55233 -0.55664,10e-4 -1.12083,-0.10752 -0.57152,-0.10866 -1.18721,-0.3271 z m 20.91256,-45.33681 q -0.73845,-0.6685 -1.62997,-0.55677 -0.88609,0.11665 -1.68239,0.99627 -0.79139,0.8742 -0.82449,1.77292 -0.0228,0.8982 0.71569,1.5667 0.73846,0.66851 1.62454,0.55186 0.89644,-0.11716 1.68783,-0.99136 0.7963,-0.87962 0.81906,-1.77782 0.0282,-0.89329 -0.71027,-1.5618 z m 5.28883,-1.46594 -0.90444,0.99907 q -0.23571,-0.56904 -0.56584,-1.05561 -0.3247,-0.48166 -0.73737,-0.85524 -1.08595,-0.98309 -2.32509,-0.77111 -1.23372,0.2169 -2.65708,1.62549 0.748,-0.18238 1.45736,0.005 0.71427,0.18227 1.29526,0.70822 1.2217,1.10598 1.25415,2.48887 0.0428,1.38238 -1.11232,2.65837 -1.13055,1.24885 -2.55226,1.33509 -1.4217,0.0862 -2.64883,-1.02466 -1.40631,-1.2731 -1.17693,-3.02162 0.2343,-1.75394 2.08743,-3.80096 1.74007,-1.92214 3.68451,-2.23661 1.94937,-0.31988 3.486,1.0712 0.41266,0.37357 0.75701,0.83351 0.3498,0.46485 0.65844,1.04065 z m 128.55646,106.7492 5.80808,-0.0122 0.003,1.24512 -4.45311,0.009 0.006,2.68065 q 0.32203,-0.11053 0.64419,-0.16248 0.32214,-0.0593 0.64441,-0.06 1.83104,-0.004 2.90249,0.99734 1.07144,1.00118 1.07503,2.71504 0.004,1.76513 -1.09288,2.74888 -1.09659,0.97642 -3.09609,0.98061 -0.68848,0.001 -1.4065,-0.11424 -0.71069,-0.11569 -1.4729,-0.34847 l -0.003,-1.48682 q 0.65993,0.35751 1.36343,0.53181 0.70349,0.17431 1.48718,0.17267 1.26708,-0.003 2.00543,-0.67071 0.73835,-0.66805 0.73595,-1.81063 -0.002,-1.14257 -0.74353,-1.80752 -0.74114,-0.66496 -2.00823,-0.6623 -0.59326,10e-4 -1.18624,0.13432 -0.58566,0.13306 -1.20031,0.41267 z m 305.46042,-85.54039 5.80808,-0.0122 0.003,1.24511 -4.45311,0.009 0.006,2.68067 q 0.32203,-0.11055 0.64419,-0.16249 0.32214,-0.0593 0.64441,-0.06 1.83104,-0.004 2.90248,0.99734 1.07144,1.00118 1.07503,2.71504 0.004,1.76513 -1.09287,2.74888 -1.09659,0.97642 -3.09609,0.98061 -0.68848,0.001 -1.4065,-0.11424 -0.71069,-0.1157 -1.4729,-0.34847 l -0.003,-1.48682 q 0.65993,0.35751 1.36342,0.53182 0.7035,0.1743 1.48719,0.17266 1.26708,-0.003 2.00543,-0.67071 0.73835,-0.66806 0.73595,-1.81063 -0.002,-1.14257 -0.74353,-1.80753 -0.74114,-0.66495 -2.00823,-0.66229 -0.59326,10e-4 -1.18624,0.13432 -0.58566,0.13306 -1.20031,0.41267 z m -204.38476,53.62846 5.84522,3.72311 -0.008,-3.73535 z m -1.28824,0.39088 -0.004,-1.86035 7.12644,-0.0149 -0.003,-1.56006 1.23047,-0.003 0.003,1.56006 2.57813,-0.005 0.003,1.47217 -2.57812,0.005 0.0103,4.93651 -1.42821,0.003 z m 56.45969,-52.41764 -3.72312,5.84521 3.73535,-0.008 z m -0.3909,-1.28826 1.86035,-0.004 0.0149,7.12646 1.56005,-0.003 0.003,1.23047 -1.56005,0.003 0.005,2.57811 -1.47216,0.003 -0.005,-2.57812 -4.93652,0.0104 -0.003,-1.42822 z M 133.47196,137.90323 q 1.06248,0.22482 1.65724,0.94135 0.6021,0.71652 0.60431,1.77119 0.003,1.61866 -1.10803,2.50722 -1.11143,0.88856 -3.16221,0.89286 -0.68847,0.001 -1.42119,-0.13618 -0.72536,-0.13032 -1.5023,-0.39969 l -0.003,-1.42822 q 0.61598,0.3576 1.34879,0.53917 0.73281,0.18157 1.53114,0.1799 1.3916,-0.003 2.11555,-0.55376 0.73126,-0.55084 0.72907,-1.59821 -0.002,-0.96679 -0.68431,-1.50736 -0.67498,-0.5479 -1.88348,-0.54536 l -1.27441,0.003 -0.003,-1.21582 1.333,-0.003 q 1.0913,-0.002 1.66901,-0.43563 0.57769,-0.44066 0.57597,-1.26098 -0.002,-0.84228 -0.60329,-1.2878 -0.59421,-0.45286 -1.70749,-0.45052 -0.60791,0.001 -1.30343,0.13456 -0.69552,0.1333 -1.52989,0.41337 l -0.003,-1.31836 q 0.84179,-0.23613 1.57397,-0.35486 0.73949,-0.11874 1.39135,-0.12011 1.68457,-0.004 2.66762,0.76345 0.98304,0.75967 0.98578,2.06337 0.002,0.90821 -0.5168,1.53918 -0.51871,0.62365 -1.47767,0.86736 z m 11.68065,42.81798 q -0.93739,0.54837 -1.85947,0.41829 -0.92749,-0.12514 -1.63861,-0.90404 -1.09136,-1.19539 -0.86672,-2.6005 0.22464,-1.40511 1.73916,-2.78783 0.50845,-0.4642 1.14318,-0.85526 0.62437,-0.39153 1.38045,-0.71486 l 0.96296,1.05476 q -0.69633,0.14977 -1.36069,0.50838 -0.66436,0.3586 -1.25394,0.89687 -1.02771,0.93828 -1.19283,1.83285 -0.17053,0.89951 0.53564,1.673 0.65186,0.71399 1.52033,0.65499 0.868,-0.0487 1.76049,-0.86347 l 0.94117,-0.85926 0.81975,0.89789 -0.98444,0.89877 q -0.80594,0.73581 -0.94189,1.44507 -0.13101,0.71467 0.42207,1.32048 0.5679,0.62203 1.31268,0.54704 0.7443,-0.0646 1.56647,-0.81526 0.44895,-0.40988 0.87392,-0.97638 0.42497,-0.5665 0.85394,-1.33501 l 0.88889,0.97362 q -0.464,0.741 -0.9259,1.32137 -0.46729,0.58531 -0.9487,1.02482 -1.24407,1.13581 -2.4874,1.22959 -1.23839,0.0992 -2.1174,-0.86361 -0.61236,-0.67072 -0.65301,-1.48651 -0.0357,-0.81039 0.5099,-1.6358 z m -13.73117,-117.570615 -5.16357,0.01082 -0.003,-1.245115 6.94335,-0.01455 0.003,1.245115 q -0.84046,0.873345 -2.28758,2.341226 -1.45443,1.475219 -1.82707,1.900805 -0.70878,0.799827 -0.98594,1.349727 -0.28449,0.557237 -0.28337,1.091904 0.002,0.87158 0.61822,1.419606 0.60906,0.548041 1.5905,0.545984 0.6958,-0.0015 1.47166,-0.244784 0.76853,-0.243311 1.64641,-0.735875 l 0.003,1.494138 q -0.8928,0.360758 -1.66878,0.545491 -0.77598,0.184732 -1.42051,0.186083 -1.69922,0.0036 -2.71174,-0.843927 -1.01252,-0.847489 -1.01549,-2.268385 -10e-4,-0.673826 0.25366,-1.282272 0.24776,-0.601107 0.91254,-1.422815 0.18266,-0.212786 1.16197,-1.232906 0.97933,-1.012798 2.76261,-2.84027 z m 597.80975,111.631655 -3.82792,-3.46548 0.83565,-0.92305 5.14733,4.65997 -0.83565,0.92305 q -1.20937,0.0808 -3.26756,0.19349 -2.06853,0.11316 -2.63055,0.17738 -1.06248,0.11503 -1.63748,0.33546 -0.58533,0.22095 -0.94416,0.61731 -0.58496,0.64614 -0.49754,1.46626 0.082,0.81522 0.80957,1.47391 0.51582,0.46698 1.25358,0.80886 0.73233,0.33695 1.71323,0.56304 l -1.00277,1.10765 q -0.90329,-0.33365 -1.60172,-0.71896 -0.69844,-0.38531 -1.17625,-0.81788 -1.25968,-1.14041 -1.43877,-2.4486 -0.17909,-1.3082 0.77453,-2.36155 0.45224,-0.49953 1.05027,-0.77815 0.58769,-0.27811 1.63234,-0.43891 0.27828,-0.0346 1.68913,-0.13061 1.40592,-0.0906 3.95474,-0.24319 z m -338.25509,-71.07396 -0.005,-2.41699 -8.34226,0.0175 0.53285,2.62828 -1.34765,0.003 -0.53282,-2.61363 -0.003,-1.479483 9.68992,-0.02031 -0.005,-2.416991 1.24511,-0.0026 0.0132,6.298814 z m 46.68078,43.70097 -2.41699,0.005 0.0175,8.34226 2.62829,-0.53285 0.003,1.34766 -2.61364,0.53281 -1.47949,0.003 -0.0203,-9.68992 -2.41698,0.005 -0.003,-1.24511 6.29881,-0.0132 z M 282.29668,71.550498 q 1.14257,-0.0024 1.71882,-1.131535 0.56894,-1.1218 0.56421,-3.377655 -0.005,-2.24853 -0.57836,-3.375259 -0.58096,-1.119391 -1.72354,-1.116996 -1.1499,0.0024 -1.71884,1.124211 -0.57625,1.12914 -0.57154,3.37767 0.005,2.255855 0.5857,3.375244 0.57365,1.126731 1.72355,1.12432 z m 0.002,1.171873 q -1.83837,0.0039 -2.80823,-1.451637 -0.97715,-1.448151 -0.98296,-4.216699 -0.006,-2.761224 0.96528,-4.220783 0.96376,-1.452218 2.80213,-1.456071 1.83838,-0.0039 2.81554,1.444297 0.96984,1.45549 0.97563,4.216714 0.006,2.768549 -0.95795,4.220767 -0.97106,1.459559 -2.80944,1.463412 z M 588.11186,155.8081 q 1.14257,-0.002 1.71882,-1.13153 0.56894,-1.1218 0.56421,-3.37765 -0.005,-2.24854 -0.57836,-3.37527 -0.58097,-1.11938 -1.72354,-1.11699 -1.1499,0.002 -1.71883,1.12421 -0.57626,1.12914 -0.57155,3.37767 0.005,2.25586 0.5857,3.37524 0.57364,1.12673 1.72355,1.12432 z m 0.002,1.17188 q -1.83838,0.004 -2.80823,-1.45164 -0.97716,-1.44815 -0.98296,-4.2167 -0.006,-2.76122 0.96527,-4.22078 0.96376,-1.45222 2.80214,-1.45608 1.83837,-0.004 2.81553,1.4443 0.96984,1.4555 0.97563,4.21672 0.006,2.76854 -0.95794,4.22077 -0.97107,1.45955 -2.80944,1.46341 z" />
    <path
       id="path6481"
       style="font-size:15px;font-family:'DejaVu Sans';-inkscape-font-specification:DejaVuSans"
       d="m 43.82458,554.64393 -5.807584,0.0779 -0.01669,-1.24501 4.452725,-0.0597 -0.03593,-2.68042 q -0.320765,0.11417 -0.642314,0.16976 -0.321451,0.0629 -0.643687,0.0672 -1.830891,0.0245 -2.91358,-0.96444 -1.08269,-0.989 -1.105663,-2.70272 -0.02366,-1.76498 1.06172,-2.76105 1.085477,-0.98876 3.084809,-1.01556 0.688415,-0.009 1.407694,0.0983 0.711957,0.10764 1.476748,0.33179 l 0.01993,1.48668 q -0.66393,-0.35001 -1.369348,-0.51635 -0.705418,-0.16635 -1.48904,-0.15585 -1.266976,0.017 -1.997722,0.69335 -0.730745,0.67636 -0.71543,1.81883 0.01531,1.14248 0.763928,1.79901 0.748613,0.65653 2.015589,0.63955 0.593209,-0.008 1.184651,-0.14774 0.584117,-0.13968 1.195566,-0.42622 z m -6.356571,31.78684 -5.886948,-3.65677 0.05007,3.73502 z m 1.283743,-0.40542 0.02494,1.86018 -7.125825,0.0955 0.02091,1.55992 -1.230357,0.0165 -0.02091,-1.55992 -2.577894,0.0345 -0.01973,-1.47203 2.577894,-0.0346 -0.06617,-4.93608 1.428094,-0.0191 z m 6.513852,33.67456 q 1.064959,0.21279 1.667789,0.92255 0.610153,0.70965 0.62429,1.76425 0.0217,1.6185 -1.079605,2.51958 -1.101303,0.90107 -3.1519,0.92856 -0.688414,0.009 -1.422636,-0.1201 -0.726799,-0.1221 -1.506729,-0.38267 l -0.01914,-1.42809 q 0.619989,0.35061 1.3548,0.52387 0.73481,0.17328 1.533079,0.16258 1.391476,-0.0186 2.109145,-0.57764 0.724993,-0.55909 0.710955,-1.60636 -0.01296,-0.96671 -0.701315,-1.49952 -0.681132,-0.54023 -1.889519,-0.52403 l -1.2743,0.0171 -0.0163,-1.21571 1.332888,-0.0179 q 1.091211,-0.0146 1.663979,-0.45447 0.572671,-0.44718 0.561675,-1.26742 -0.01129,-0.8422 -0.61781,-1.28089 -0.599295,-0.44611 -1.712477,-0.43118 -0.607855,0.008 -1.301826,0.14929 -0.693971,0.14115 -1.525126,0.43064 l -0.01767,-1.31824 q 0.839068,-0.24564 1.569854,-0.37264 0.738108,-0.12709 1.389905,-0.13583 1.68442,-0.0226 2.676085,0.73324 0.991567,0.74849 1.009042,2.05208 0.01217,0.90813 -0.499356,1.54493 -0.511629,0.62947 -1.467775,0.88401 z m 28.998397,4.2622 5.16311,-0.0692 0.01669,1.24501 -6.942735,0.0931 -0.01669,-1.24501 q 0.830527,-0.88279 2.260957,-2.36694 1.437656,-1.49157 1.805463,-1.92135 0.699684,-0.80779 0.970617,-1.36079 0.278157,-0.56042 0.270991,-1.09503 -0.01168,-0.87151 -0.634225,-1.41253 -0.615218,-0.54112 -1.596576,-0.52796 -0.695738,0.009 -1.468796,0.26141 -0.765734,0.25198 -1.637984,0.75444 l -0.02003,-1.494 q 0.888664,-0.37084 1.662507,-0.56433 0.773843,-0.1935 1.418316,-0.20214 1.699066,-0.0228 2.721105,0.81321 1.022041,0.83599 1.041087,2.25676 0.009,0.67377 -0.239145,1.28506 -0.240951,0.60387 -0.896399,1.43304 -0.180242,0.21484 -1.147953,1.24597 -0.96781,1.02381 -2.730313,2.87133 z m 13.34145,-38.49223 -0.0324,-2.41677 -8.341536,0.11182 0.562541,2.62209 -1.347535,0.0181 -0.562345,-2.60745 -0.01983,-1.47936 9.689071,-0.12988 -0.0324,-2.41679 1.245006,-0.0167 0.08443,6.29826 z M 72.919476,553.28196 q 1.142475,-0.0153 1.705918,-1.1509 0.556217,-1.12817 0.525979,-3.38382 -0.03014,-2.24833 -0.616495,-3.3685 -0.593582,-1.11276 -1.736057,-1.09744 -1.149799,0.0154 -1.706016,1.14358 -0.563443,1.13558 -0.533304,3.38391 0.03024,2.25566 0.62382,3.36841 0.586356,1.12017 1.736155,1.10476 z m 0.01571,1.17176 q -1.838213,0.0247 -2.82446,-1.41978 -0.993472,-1.43701 -1.030581,-4.20532 -0.03701,-2.76098 0.917486,-4.23143 0.947272,-1.46302 2.785485,-1.48766 1.838214,-0.0246 2.831686,1.41236 0.986247,1.44443 1.023258,4.20542 0.03711,2.76831 -0.910163,4.23133 -0.954497,1.47044 -2.792711,1.49508 z M 434.38568,48.819931 h -2.41699 v 8.342285 l 2.62939,-0.527344 v 1.347657 l -2.61474,0.527343 h -1.47949 v -9.689941 h -2.417 v -1.245117 h 6.29883 z m 8.52191,0 h -5.16357 v -1.245117 h 6.94336 v 1.245117 q -0.84229,0.871582 -2.29248,2.336426 -1.45752,1.472168 -1.83106,1.896972 -0.71045,0.79834 -0.98877,1.347657 -0.28564,0.55664 -0.28564,1.091308 0,0.871582 0.61523,1.420899 0.60791,0.549316 1.58936,0.549316 0.6958,0 1.47217,-0.241699 0.76904,-0.241699 1.64795,-0.732422 v 1.494141 q -0.89356,0.358886 -1.66993,0.541992 -0.77636,0.183105 -1.42089,0.183105 -1.69922,0 -2.70997,-0.849609 -1.01074,-0.849609 -1.01074,-2.270508 0,-0.673828 0.25635,-1.281738 0.24902,-0.600586 0.91553,-1.420899 0.1831,-0.212402 1.16455,-1.230468 0.98144,-1.010743 2.76855,-2.834473 z m 0.38959,70.692379 q -1.14258,0 -1.72119,1.12793 -0.57129,1.12061 -0.57129,3.37647 0,2.24853 0.57129,3.37646 0.57861,1.12061 1.72119,1.12061 1.1499,0 1.72119,-1.12061 0.57861,-1.12793 0.57861,-3.37646 0,-2.25586 -0.57861,-3.37647 -0.57129,-1.12793 -1.72119,-1.12793 z m 0,-1.17187 q 1.83838,0 2.80518,1.45752 0.97412,1.45019 0.97412,4.21875 0,2.76123 -0.97412,4.21875 -0.9668,1.45019 -2.80518,1.45019 -1.83838,0 -2.8125,-1.45019 -0.9668,-1.45752 -0.9668,-4.21875 0,-2.76856 0.9668,-4.21875 0.97412,-1.45752 2.8125,-1.45752 z m -11.42963,9.88769 h 5.16358 v 1.24512 h -6.94336 v -1.24512 q 0.84228,-0.87158 2.29248,-2.33642 1.45752,-1.47217 1.83105,-1.89697 0.71045,-0.79834 0.98877,-1.34766 0.28565,-0.55664 0.28565,-1.09131 0,-0.87158 -0.61524,-1.4209 -0.60791,-0.54931 -1.58935,-0.54931 -0.6958,0 -1.47217,0.2417 -0.76904,0.24169 -1.64795,0.73242 v -1.49414 q 0.89356,-0.35889 1.66992,-0.542 0.77637,-0.1831 1.4209,-0.1831 1.69922,0 2.70996,0.84961 1.01074,0.84961 1.01074,2.27051 0,0.67382 -0.25634,1.28173 -0.24903,0.60059 -0.91553,1.4209 -0.18311,0.21241 -1.16455,1.23047 -0.98145,1.01074 -2.76856,2.83447 z m 107.66108,1.01807 v -1.34766 q 0.55664,0.26368 1.12793,0.40284 0.57128,0.13916 1.1206,0.13916 1.46484,0 2.23389,-0.98145 0.77636,-0.98877 0.88623,-2.9956 -0.42481,0.62988 -1.07666,0.96679 -0.65186,0.33692 -1.44287,0.33692 -1.64063,0 -2.6001,-0.98877 -0.95215,-0.9961 -0.95215,-2.71729 0,-1.68457 0.99609,-2.70263 0.9961,-1.01807 2.65137,-1.01807 1.89697,0 2.89307,1.45752 1.00342,1.45019 1.00342,4.21875 0,2.58545 -1.23047,4.13086 -1.22315,1.53808 -3.2959,1.53808 -0.55664,0 -1.12793,-0.10986 -0.57129,-0.10986 -1.18652,-0.32959 z m 2.94433,-4.63623 q 0.9961,0 1.57471,-0.68115 0.58594,-0.68115 0.58594,-1.86768 0,-1.1792 -0.58594,-1.86035 -0.57861,-0.68848 -1.57471,-0.68848 -0.99609,0 -1.58203,0.68848 -0.57861,0.68115 -0.57861,1.86035 0,1.18653 0.57861,1.86768 0.58594,0.68115 1.58203,0.68115 z m -12.27191,3.61816 h 2.41699 v -8.34228 l -2.62939,0.52734 v -1.34765 l 2.61474,-0.52735 h 1.4795 v 9.68994 h 2.41699 v 1.24512 h -6.29883 z M 731.93744,58.509872 h -7.03125 V 57.87999 l 3.96973,-10.305176 h 1.54541 l -3.73536,9.689941 h 5.25147 z m 8.91009,-9.689941 h -2.41699 v 8.342285 l 2.6294,-0.527344 v 1.347657 l -2.61475,0.527343 h -1.47949 v -9.689941 h -2.41699 v -1.245117 h 6.29882 z m 0.0273,74.596189 q -0.9961,0 -1.58203,0.68115 -0.57862,0.68116 -0.57862,1.86768 0,1.1792 0.57862,1.86768 0.58593,0.68115 1.58203,0.68115 0.99609,0 1.5747,-0.68115 0.58594,-0.68848 0.58594,-1.86768 0,-1.18652 -0.58594,-1.86768 -0.57861,-0.68115 -1.5747,-0.68115 z m 2.93701,-4.63623 v 1.34766 q -0.55664,-0.26367 -1.12793,-0.40283 -0.56396,-0.13916 -1.12061,-0.13916 -1.46484,0 -2.24121,0.98877 -0.76904,0.98877 -0.8789,2.98828 0.43213,-0.63721 1.08398,-0.97412 0.65186,-0.34424 1.43555,-0.34424 1.64795,0 2.6001,1.00342 0.95947,0.99609 0.95947,2.71728 0,1.68457 -0.99609,2.70264 -0.9961,1.01806 -2.65137,1.01806 -1.89697,0 -2.90039,-1.45019 -1.00342,-1.45752 -1.00342,-4.21875 0,-2.59278 1.23047,-4.13086 1.23047,-1.54541 3.30322,-1.54541 0.55664,0 1.12061,0.10986 0.57129,0.10987 1.18652,0.32959 z m -15.56787,9.44824 h 2.41699 v -8.34228 l -2.62939,0.52734 v -1.34765 l 2.61474,-0.52735 h 1.47949 v 9.68994 h 2.417 v 1.24512 h -6.29883 z M 632.48676,58.509872 h -5.80811 v -1.245117 h 4.45312 v -2.680664 q -0.32226,0.109863 -0.64453,0.161133 -0.32226,0.05859 -0.64453,0.05859 -1.83105,0 -2.90039,-1.003418 -1.06933,-1.003418 -1.06933,-2.717285 0,-1.765137 1.09863,-2.746582 1.09863,-0.974122 3.09814,-0.974122 0.68848,0 1.40625,0.117188 0.71045,0.117187 1.47217,0.351562 v 1.486817 q -0.65918,-0.358887 -1.3623,-0.534668 -0.70313,-0.175781 -1.48682,-0.175781 -1.26709,0 -2.00684,0.666504 -0.73974,0.666503 -0.73974,1.809082 0,1.142578 0.73974,1.809082 0.73975,0.666504 2.00684,0.666504 0.59326,0 1.18652,-0.131836 0.58594,-0.131836 1.20118,-0.410157 z m 9.29827,-9.689941 h -2.41699 v 8.342285 l 2.6294,-0.527344 v 1.347657 l -2.61475,0.527343 h -1.47949 v -9.689941 h -2.41699 v -1.245117 h 6.29882 z m -112.16107,8.400879 3.73535,-5.837402 h -3.73535 z m 0.38819,1.289062 h -1.86036 v -7.126464 h -1.56005 v -1.230469 h 1.56005 v -2.578125 h 1.47217 v 2.578125 h 4.93653 v 1.428222 z m 12.96038,-9.689941 h -2.41699 v 8.342285 l 2.6294,-0.527344 v 1.347657 l -2.61475,0.527343 h -1.47949 v -9.689941 h -2.41699 v -1.245117 h 6.29882 z M 643.0882,123.57726 q 1.06201,0.22705 1.65527,0.94482 0.60059,0.71777 0.60059,1.77246 0,1.61865 -1.11329,2.50488 -1.11328,0.88623 -3.16406,0.88623 -0.68848,0 -1.4209,-0.13916 -0.72509,-0.13183 -1.50146,-0.40283 v -1.42822 q 0.61523,0.35889 1.34765,0.54199 0.73243,0.18311 1.53077,0.18311 1.3916,0 2.1167,-0.54932 0.73242,-0.54932 0.73242,-1.59668 0,-0.9668 -0.68116,-1.50879 -0.67382,-0.54932 -1.88232,-0.54932 H 640.034 v -1.21582 h 1.333 q 1.09131,0 1.66993,-0.43212 0.57861,-0.43946 0.57861,-1.25977 0,-0.84229 -0.60059,-1.28906 -0.59326,-0.4541 -1.70654,-0.4541 -0.60791,0 -1.30371,0.13183 -0.6958,0.13184 -1.53076,0.41016 v -1.31836 q 0.84228,-0.23438 1.57471,-0.35156 0.73974,-0.11719 1.3916,-0.11719 1.68457,0 2.66601,0.76904 0.98145,0.76172 0.98145,2.06543 0,0.9082 -0.52002,1.53809 -0.52002,0.62256 -1.47949,0.86426 z m -13.76606,4.65087 h 2.417 v -8.34228 l -2.6294,0.52734 v -1.34765 l 2.61475,-0.52735 h 1.47949 v 9.68994 h 2.41699 v 1.24512 h -6.29883 z m -71.6286,505.39461 q -1.05469,0 -1.6626,0.56397 -0.60058,0.56396 -0.60058,1.55273 0,0.98877 0.60058,1.55274 0.60791,0.56396 1.6626,0.56396 1.05469,0 1.6626,-0.56396 0.60791,-0.57129 0.60791,-1.55274 0,-0.98877 -0.60791,-1.55273 -0.60059,-0.56397 -1.6626,-0.56397 z m -1.47949,-0.62988 q -0.95215,-0.23438 -1.48682,-0.88623 -0.52734,-0.65186 -0.52734,-1.58936 0,-1.31103 0.93018,-2.07275 0.9375,-0.76172 2.56347,-0.76172 1.6333,0 2.56348,0.76172 0.93017,0.76172 0.93017,2.07275 0,0.9375 -0.53466,1.58936 -0.52735,0.65185 -1.47217,0.88623 1.06933,0.24902 1.6626,0.97412 0.60058,0.7251 0.60058,1.77246 0,1.58936 -0.97412,2.43897 -0.9668,0.84961 -2.77588,0.84961 -1.80908,0 -2.7832,-0.84961 -0.9668,-0.84961 -0.9668,-2.43897 0,-1.04736 0.60059,-1.77246 0.60058,-0.7251 1.66992,-0.97412 z m -0.54199,-2.33643 q 0,0.84961 0.52734,1.32569 0.53467,0.47607 1.49414,0.47607 0.95215,0 1.48682,-0.47607 0.54199,-0.47608 0.54199,-1.32569 0,-0.84961 -0.54199,-1.32568 -0.53467,-0.47607 -1.48682,-0.47607 -0.95947,0 -1.49414,0.47607 -0.52734,0.47607 -0.52734,1.32568 z m -10.42615,6.91407 h 2.41699 v -8.34229 l -2.62939,0.52734 v -1.34765 l 2.61474,-0.52735 h 1.4795 v 9.68995 h 2.41699 v 1.24511 h -6.29883 z M 448.0921,558.16223 h -5.16357 v -1.24512 h 6.94336 v 1.24512 q -0.84229,0.87158 -2.29248,2.33643 -1.45752,1.47217 -1.83106,1.89697 -0.71045,0.79834 -0.98877,1.34766 -0.28564,0.55664 -0.28564,1.0913 0,0.87159 0.61523,1.4209 0.60791,0.54932 1.58936,0.54932 0.6958,0 1.47217,-0.2417 0.76904,-0.2417 1.64795,-0.73242 v 1.49414 q -0.89356,0.35889 -1.66993,0.54199 -0.77636,0.18311 -1.4209,0.18311 -1.69921,0 -2.70996,-0.84961 -1.01074,-0.84961 -1.01074,-2.27051 0,-0.67383 0.25635,-1.28174 0.24902,-0.60058 0.91553,-1.4209 0.1831,-0.2124 1.16455,-1.23047 0.98144,-1.01074 2.76855,-2.83447 z m 10.55811,0 h -2.41699 v 8.34229 l 2.62939,-0.52735 v 1.34766 l -2.61475,0.52734 h -1.47949 v -9.68994 h -2.41699 v -1.24512 h 6.29883 z m -2.73545,79.40827 h 2.417 v -8.34229 l -2.6294,0.52734 v -1.34765 l 2.61475,-0.52735 h 1.47949 v 9.68995 h 2.41699 v 1.24511 h -6.29883 z m -9.53991,0 h 2.41699 v -8.34229 l -2.62939,0.52734 v -1.34765 l 2.61474,-0.52735 h 1.47949 v 9.68995 h 2.417 v 1.24511 h -6.29883 z m 297.22604,-70.69245 q 1.14258,0 1.72119,-1.12793 0.57129,-1.1206 0.57129,-3.37646 0,-2.24854 -0.57129,-3.37647 -0.57861,-1.1206 -1.72119,-1.1206 -1.1499,0 -1.72119,1.1206 -0.57861,1.12793 -0.57861,3.37647 0,2.25586 0.57861,3.37646 0.57129,1.12793 1.72119,1.12793 z m 0,1.17188 q -1.83838,0 -2.80517,-1.45752 -0.97413,-1.4502 -0.97413,-4.21875 0,-2.76123 0.97413,-4.21875 0.96679,-1.4502 2.80517,-1.4502 1.83838,0 2.8125,1.4502 0.9668,1.45752 0.9668,4.21875 0,2.76855 -0.9668,4.21875 -0.97412,1.45752 -2.8125,1.45752 z m 12.44776,-9.8877 h -2.417 v 8.34229 l 2.6294,-0.52735 v 1.34766 l -2.61475,0.52734 h -1.47949 v -9.68994 h -2.41699 v -1.24512 h 6.29883 z m -8.48395,80.42633 v -1.34765 q 0.55664,0.26367 1.12793,0.40283 0.57129,0.13916 1.1206,0.13916 1.46485,0 2.23389,-0.98145 0.77637,-0.98877 0.88623,-2.9956 -0.42481,0.62988 -1.07666,0.96679 -0.65186,0.33692 -1.44287,0.33692 -1.64063,0 -2.6001,-0.98877 -0.95215,-0.9961 -0.95215,-2.71729 0,-1.68457 0.9961,-2.70263 0.99609,-1.01807 2.65136,-1.01807 1.89698,0 2.89307,1.45752 1.00342,1.4502 1.00342,4.21875 0,2.58545 -1.23047,4.13086 -1.22315,1.53809 -3.2959,1.53809 -0.55664,0 -1.12793,-0.10987 -0.57129,-0.10986 -1.18652,-0.32959 z m 2.94433,-4.63623 q 0.9961,0 1.57471,-0.68115 0.58594,-0.68115 0.58594,-1.86768 0,-1.1792 -0.58594,-1.86035 -0.57861,-0.68847 -1.57471,-0.68847 -0.99609,0 -1.58203,0.68847 -0.57861,0.68115 -0.57861,1.86035 0,1.18653 0.57861,1.86768 0.58594,0.68115 1.58203,0.68115 z M 649.6214,562.10999 q 1.05469,0 1.6626,-0.56397 0.60058,-0.56396 0.60058,-1.55273 0,-0.98877 -0.60058,-1.55274 -0.60791,-0.56396 -1.6626,-0.56396 -1.05469,0 -1.6626,0.56396 -0.60791,0.57129 -0.60791,1.55274 0,0.98877 0.60791,1.55273 0.60059,0.56397 1.6626,0.56397 z m 1.47949,0.62988 q 0.95215,0.23437 1.48682,0.88623 0.52734,0.65185 0.52734,1.58935 0,1.31104 -0.93017,2.07276 -0.9375,0.76172 -2.56348,0.76172 -1.6333,0 -2.56348,-0.76172 -0.93017,-0.76172 -0.93017,-2.07276 0,-0.9375 0.53466,-1.58935 0.52735,-0.65186 1.47217,-0.88623 -1.06933,-0.24903 -1.6626,-0.97412 -0.60058,-0.7251 -0.60058,-1.77246 0,-1.58936 0.97412,-2.43897 0.9668,-0.84961 2.77588,-0.84961 1.80908,0 2.7832,0.84961 0.9668,0.84961 0.9668,2.43897 0,1.04736 -0.60059,1.77246 -0.60058,0.72509 -1.66992,0.97412 z m 0.54199,2.33642 q 0,-0.84961 -0.52734,-1.32568 -0.53467,-0.47607 -1.49414,-0.47607 -0.95215,0 -1.48682,0.47607 -0.54199,0.47607 -0.54199,1.32568 0,0.84961 0.54199,1.32569 0.53467,0.47607 1.48682,0.47607 0.95947,0 1.49414,-0.47607 0.52734,-0.47608 0.52734,-1.32569 z m -97.76513,2.77588 h -7.03125 v -0.62988 l 3.96972,-10.30518 h 1.54541 l -3.73535,9.68995 h 5.25147 z m 97.93945,64.90631 q -0.99609,0 -1.58203,0.68116 -0.57861,0.68115 -0.57861,1.86767 0,1.1792 0.57861,1.86768 0.58594,0.68115 1.58203,0.68115 0.99609,0 1.57471,-0.68115 0.58593,-0.68848 0.58593,-1.86768 0,-1.18652 -0.58593,-1.86767 -0.57862,-0.68116 -1.57471,-0.68116 z m 2.93701,-4.63623 v 1.34766 q -0.55664,-0.26367 -1.12793,-0.40283 -0.56396,-0.13916 -1.1206,-0.13916 -1.46485,0 -2.24121,0.98877 -0.76905,0.98877 -0.87891,2.98828 0.43213,-0.63721 1.08398,-0.97412 0.65186,-0.34424 1.43555,-0.34424 1.64795,0 2.6001,1.00342 0.95947,0.99609 0.95947,2.71728 0,1.68457 -0.99609,2.70264 -0.9961,1.01807 -2.65137,1.01807 -1.89697,0 -2.90039,-1.4502 -1.00342,-1.45752 -1.00342,-4.21875 0,-2.59277 1.23047,-4.13086 1.23047,-1.54541 3.30322,-1.54541 0.55664,0 1.12061,0.10986 0.57129,0.10987 1.18652,0.32959 z m -461.20715,-205.87443 -0.005,-2.41699 -8.34227,0.0175 0.53285,2.62828 -1.34765,0.003 -0.53283,-2.61364 -0.003,-1.47949 9.68993,-0.0203 -0.005,-2.41698 1.2451,-0.003 0.0132,6.29882 z m 0.0179,8.52192 -0.0108,-5.16356 1.24511,-0.003 0.0146,6.94333 -1.24511,0.003 q -0.87335,-0.84045 -2.34123,-2.28757 -1.47522,-1.45444 -1.9008,-1.82707 -0.79983,-0.70878 -1.34973,-0.98595 -0.55724,-0.28447 -1.09191,-0.28335 -0.87158,0.002 -1.41961,0.61821 -0.54803,0.60906 -0.54597,1.59051 0.001,0.69579 0.24478,1.47165 0.24331,0.76854 0.73587,1.64641 l -1.49413,0.003 q -0.36076,-0.8928 -0.54549,-1.66878 -0.18474,-0.77599 -0.18609,-1.42051 -0.004,-1.69922 0.84393,-2.71174 0.84749,-1.01252 2.26839,-1.0155 0.67382,-10e-4 1.28227,0.25367 0.6011,0.24776 1.42281,0.91254 0.21279,0.18266 1.2329,1.16196 1.01281,0.97933 2.84028,2.76262 z m 495.29985,-0.64935 q -0.002,-1.14257 -1.13154,-1.71883 -1.12179,-0.56894 -3.37765,-0.56421 -2.24853,0.005 -3.37526,0.57837 -1.11939,0.58097 -1.11699,1.72353 0.002,1.14991 1.1242,1.71884 1.12914,0.57626 3.37768,0.57154 2.25585,-0.005 3.37524,-0.58569 1.12673,-0.57365 1.12432,-1.72355 z m 1.17188,-0.002 q 0.004,1.83838 -1.45164,2.80823 -1.44816,0.97716 -4.2167,0.98296 -2.76123,0.006 -4.22078,-0.96528 -1.45223,-0.96375 -1.45608,-2.80213 -0.004,-1.83838 1.4443,-2.81553 1.45549,-0.96985 4.21672,-0.97563 2.76854,-0.006 4.22076,0.95794 1.45956,0.97106 1.46342,2.80944 z m -9.91164,-11.40933 0.0108,5.16356 -1.24511,0.003 -0.0146,-6.94335 1.24512,-0.003 q 0.87334,0.84047 2.34123,2.28758 1.47521,1.45443 1.9008,1.82708 0.79983,0.70878 1.34973,0.98594 0.55724,0.28448 1.0919,0.28336 0.87159,-0.002 1.41961,-0.61821 0.54804,-0.60906 0.54598,-1.59051 -0.001,-0.6958 -0.24478,-1.47166 -0.24331,-0.76853 -0.73587,-1.64641 l 1.49413,-0.003 q 0.36077,0.8928 0.54549,1.66879 0.18474,0.77597 0.18609,1.4205 0.004,1.69922 -0.84393,2.71175 -0.84749,1.01252 -2.26838,1.01549 -0.67383,0.001 -1.28228,-0.25366 -0.60111,-0.24776 -1.42281,-0.91255 -0.21279,-0.18265 -1.23291,-1.16197 -1.0128,-0.97932 -2.84027,-2.7626 z m -56.43055,-38.44199 -0.003,-1.34765 q 0.55719,0.2625 1.12877,0.40046 0.57158,0.13796 1.12089,0.13681 1.46485,-0.003 2.23183,-0.98612 0.77429,-0.99039 0.87995,-2.99746 -0.42349,0.63077 -1.07463,0.96906 -0.65116,0.33827 -1.44217,0.33993 -1.64062,0.003 -2.60216,-0.98332 -0.95424,-0.99409 -0.95785,-2.71528 -0.004,-1.68456 0.99044,-2.70472 0.99395,-1.02015 2.64922,-1.02362 1.89697,-0.004 2.89612,1.45145 1.00645,1.44809 1.01226,4.21664 0.005,2.58544 -1.22181,4.13343 -1.21993,1.54065 -3.29267,1.54499 -0.55664,0.001 -1.12816,-0.10749 -0.57152,-0.10868 -1.18721,-0.32711 z m 2.93461,-4.64239 q 0.9961,-0.002 1.57328,-0.68446 0.58451,-0.68237 0.58202,-1.86889 -0.002,-1.1792 -0.58984,-1.85912 -0.58005,-0.68726 -1.57615,-0.68518 -0.99608,0.002 -1.58058,0.6918 -0.57718,0.68236 -0.57471,1.86156 0.002,1.18651 0.58252,1.86645 0.58737,0.67993 1.58346,0.67784 z m -12.26436,3.64388 2.41698,-0.005 -0.0175,-8.34227 -2.62828,0.53286 -0.003,-1.34766 2.61362,-0.53282 1.4795,-0.003 0.0203,9.68992 2.41699,-0.005 0.003,1.24512 -6.29882,0.0132 z m 69.38888,-112.98923 q -0.002,-1.05468 -0.56745,-1.6614 -0.56522,-0.59941 -1.55399,-0.59734 -0.98877,0.002 -1.55147,0.60384 -0.56269,0.6091 -0.56048,1.66377 0.002,1.05469 0.56745,1.66142 0.57256,0.60671 1.554,0.60465 0.98877,-0.002 1.55145,-0.61116 0.56271,-0.60176 0.56049,-1.66378 z m 0.62678,-1.48081 q 0.23238,-0.95264 0.88311,-1.48867 0.65075,-0.52871 1.58825,-0.53067 1.31103,-0.003 2.07469,0.92583 0.76369,0.9359 0.7671,2.56187 0.003,1.6333 -0.75635,2.56507 -0.75977,0.93178 -2.0708,0.93452 -0.93749,0.002 -1.59047,-0.53133 -0.65296,-0.52599 -0.88932,-1.47031 -0.24677,1.06986 -0.97063,1.66463 -0.72384,0.6021 -1.7712,0.6043 -1.58934,0.003 -2.44099,-0.96901 -0.85164,-0.965 -0.85543,-2.77409 -0.004,-1.80908 0.84378,-2.78498 0.84758,-0.96857 2.43692,-0.97191 1.04736,-0.002 1.77372,0.59688 0.72636,0.59907 0.97762,1.66787 z m 2.33529,-0.54688 q -0.84961,0.002 -1.32459,0.53011 -0.47495,0.53567 -0.47293,1.49514 0.002,0.95215 0.47918,1.48582 0.47722,0.54099 1.32682,0.53921 0.84961,-0.002 1.32455,-0.54477 0.47495,-0.53567 0.47296,-1.48781 -0.002,-0.95947 -0.47921,-1.49314 -0.47718,-0.52634 -1.32678,-0.52456 z m -6.9359,-10.41173 0.005,2.41699 8.34226,-0.0175 -0.53285,-2.62828 1.34765,-0.003 0.53283,2.61363 0.003,1.47949 -9.68992,0.0203 0.005,2.41699 -1.24512,0.003 -0.0132,-6.29882 z m -429.46068,226.27329 -7.03123,0.0147 -0.001,-0.62988 3.94811,-10.31347 1.5454,-0.003 -3.71503,9.69774 5.25146,-0.011 z m 8.88979,-9.70859 -2.41698,0.005 0.0175,8.34226 2.62828,-0.53285 0.003,1.34766 -2.61362,0.53281 -1.47949,0.003 -0.0203,-9.68992 -2.417,0.005 -0.003,-1.24511 6.29882,-0.0132 z m 355.44339,4.0669 q 0.99609,-0.002 1.58059,-0.68446 0.5772,-0.68237 0.57471,-1.86889 -0.002,-1.1792 -0.58253,-1.86646 -0.58736,-0.67992 -1.58346,-0.67784 -0.99609,0.002 -1.57327,0.68445 -0.58449,0.68971 -0.58202,1.86891 0.002,1.18651 0.58985,1.86644 0.58004,0.67994 1.57613,0.67785 z m -2.92729,4.64238 -0.003,-1.34766 q 0.5572,0.2625 1.12878,0.40047 0.56426,0.13797 1.1209,0.13681 1.46483,-0.003 2.23913,-0.99346 0.76696,-0.99038 0.87263,-2.99012 -0.43079,0.63811 -1.08193,0.9764 -0.65114,0.34559 -1.43483,0.34723 -1.64794,0.003 -2.6022,-0.99795 -0.96155,-0.99409 -0.96516,-2.71528 -0.004,-1.68456 0.99043,-2.70472 0.99396,-1.02014 2.64922,-1.02361 1.89698,-0.004 2.90343,1.4441 1.00647,1.45542 1.01226,4.21664 0.005,2.59278 -1.22181,4.13343 -1.22723,1.54799 -3.29997,1.55233 -0.55664,0.001 -1.12084,-0.10751 -0.57151,-0.10866 -1.18721,-0.3271 z m 15.54803,-9.48085 -2.41698,0.005 0.0175,8.34226 2.62828,-0.53285 0.003,1.34764 -2.61363,0.53283 -1.47949,0.003 -0.0203,-9.68991 -2.41699,0.005 -0.003,-1.24512 6.29881,-0.0132 z m -305.33394,-41.46301 0.0122,5.8081 -1.24511,0.003 -0.009,-4.45312 -2.68067,0.006 q 0.11055,0.32204 0.16249,0.64419 0.0593,0.32214 0.0599,0.64441 0.004,1.83105 -0.99733,2.90249 -1.00118,1.07143 -2.71504,1.07502 -1.76513,0.004 -2.74888,-1.09287 -0.97642,-1.09658 -0.98062,-3.0961 -0.001,-0.68847 0.11425,-1.40649 0.1157,-0.71068 0.34847,-1.47289 l 1.48682,-0.003 q -0.35751,0.65993 -0.53182,1.36342 -0.1743,0.70349 -0.17266,1.48718 0.003,1.26709 0.6707,2.00543 0.66806,0.73835 1.81064,0.73596 1.14257,-0.002 1.80753,-0.74354 0.66495,-0.74114 0.66229,-2.00823 -0.001,-0.59325 -0.13432,-1.18625 -0.13307,-0.58565 -0.41267,-1.2003 z m -9.7094,-9.27798 0.005,2.41699 8.34227,-0.0175 -0.53286,-2.62828 1.34766,-0.003 0.53282,2.61364 0.003,1.47948 -9.68992,0.0203 0.005,2.41699 -1.24511,0.003 -0.0132,-6.29882 z m -52.53562,-47.28229 -3.72311,5.84522 3.73534,-0.008 z m -0.39088,-1.28824 1.86034,-0.004 0.0149,7.12644 1.56006,-0.003 0.003,1.23047 -1.56005,0.003 0.005,2.57813 -1.47216,0.003 -0.005,-2.57812 -4.93651,0.0103 -0.003,-1.42821 z m -12.94008,9.71708 2.417,-0.005 -0.0175,-8.34228 -2.62828,0.53286 -0.003,-1.34765 2.61364,-0.53282 1.47949,-0.003 0.0203,9.68992 2.41698,-0.005 0.003,1.24512 -6.29882,0.0132 z m 310.41577,37.03806 q 0.22482,-1.06249 0.94136,-1.65726 0.71651,-0.60208 1.77119,-0.60429 1.61865,-0.003 2.50721,1.10802 0.88856,1.11142 0.89286,3.1622 10e-4,0.68848 -0.13618,1.42119 -0.13032,0.72537 -0.39968,1.5023 l -1.42822,0.003 q 0.35759,-0.61598 0.53917,-1.34878 0.18156,-0.7328 0.17989,-1.53114 -0.003,-1.39161 -0.55375,-2.11554 -0.55085,-0.73127 -1.59821,-0.72908 -0.9668,0.002 -1.50736,0.68432 -0.54791,0.67497 -0.54537,1.88346 l 0.003,1.27442 -1.21582,0.003 -0.003,-1.33301 q -0.002,-1.09131 -0.43563,-1.66901 -0.44066,-0.5777 -1.26097,-0.57598 -0.84229,0.002 -1.28781,0.60329 -0.45286,0.59421 -0.45052,1.70749 10e-4,0.60791 0.13457,1.30343 0.1333,0.69552 0.41337,1.5299 l -1.31836,0.003 q -0.23614,-0.84179 -0.35487,-1.57396 -0.11873,-0.7395 -0.1201,-1.39135 -0.004,-1.68457 0.76345,-2.66763 0.75967,-0.98303 2.06337,-0.98576 0.9082,-0.002 1.53917,0.51678 0.62365,0.51872 0.86736,1.47769 z m 4.67972,13.75627 -0.005,-2.41699 -8.34227,0.0175 0.53285,2.62828 -1.34765,0.003 -0.53282,-2.61363 -0.003,-1.47949 9.68992,-0.0203 -0.005,-2.41699 1.24512,-0.003 0.0132,6.29882 z m -313.25969,-124.5476 -5.16357,0.0108 -0.003,-1.24512 6.94334,-0.0146 0.003,1.24512 q -0.84045,0.87334 -2.28757,2.34123 -1.45443,1.47521 -1.82707,1.9008 -0.70878,0.79983 -0.98595,1.34973 -0.28448,0.55724 -0.28336,1.0919 0.002,0.87158 0.61822,1.4196 0.60906,0.54805 1.5905,0.54599 0.69579,-0.001 1.47166,-0.24478 0.76853,-0.24332 1.64641,-0.73588 l 0.003,1.49414 q -0.89281,0.36075 -1.66878,0.54549 -0.77599,0.18474 -1.42051,0.18609 -1.69922,0.004 -2.71174,-0.84393 -1.01252,-0.84749 -1.0155,-2.26839 -0.001,-0.67383 0.25366,-1.28227 0.24777,-0.60111 0.91255,-1.42282 0.18266,-0.21278 1.16197,-1.23291 0.97932,-1.01279 2.76261,-2.84026 z m 10.55805,-0.0221 -2.41699,0.005 0.0175,8.34228 2.62827,-0.53286 0.003,1.34765 -2.61363,0.53282 -1.4795,0.003 -0.0203,-9.68992 -2.41698,0.005 -0.003,-1.24512 6.29882,-0.0132 z m 358.41089,-0.74875 -2.41698,0.005 0.0175,8.34227 2.62829,-0.53286 0.003,1.34765 -2.61364,0.53282 -1.47949,0.003 -0.0203,-9.68991 -2.41699,0.005 -0.003,-1.24511 6.29881,-0.0132 z m 9.53996,-0.02 -2.41698,0.005 0.0175,8.34227 2.62828,-0.53286 0.003,1.34766 -2.61363,0.53282 -1.47949,0.003 -0.0203,-9.68992 -2.41699,0.005 -0.003,-1.24511 6.29881,-0.0132 z M 320.62524,267.02897 q -0.002,-1.14258 -1.13153,-1.71882 -1.12181,-0.56894 -3.37765,-0.56421 -2.24854,0.005 -3.37527,0.57836 -1.11938,0.58096 -1.11699,1.72354 0.002,1.1499 1.12421,1.71884 1.12914,0.57624 3.37767,0.57153 2.25585,-0.005 3.37524,-0.58569 1.12673,-0.57365 1.12432,-1.72355 z m 1.17187,-0.002 q 0.004,1.83837 -1.45163,2.80821 -1.44815,0.97717 -4.2167,0.98297 -2.76123,0.006 -4.22078,-0.96528 -1.45222,-0.96375 -1.45608,-2.80212 -0.004,-1.83838 1.44431,-2.81554 1.45548,-0.96985 4.21671,-0.97564 2.76854,-0.006 4.22077,0.95796 1.45955,0.97106 1.4634,2.80944 z m -9.91376,-12.42744 0.005,2.41698 8.34226,-0.0175 -0.53285,-2.62828 1.34766,-0.003 0.53282,2.61363 0.003,1.4795 -9.68992,0.0203 0.005,2.41698 -1.24511,0.003 -0.0132,-6.29881 z m 250.24437,7.95853 -1.34765,0.003 q 0.26251,-0.55719 0.40047,-1.12877 0.13796,-0.57158 0.13681,-1.1209 -0.003,-1.46484 -0.98613,-2.23182 -0.99039,-0.77429 -2.99745,-0.87996 0.63077,0.42349 0.96904,1.07464 0.33829,0.65115 0.33995,1.44217 0.003,1.64061 -0.98332,2.60215 -0.9941,0.95424 -2.71529,0.95785 -1.68457,0.004 -2.70471,-0.99043 -1.02016,-0.99396 -1.02363,-2.64923 -0.004,-1.89696 1.45146,-2.89612 1.44808,-1.00644 4.21663,-1.01225 2.58545,-0.005 4.13343,1.22181 1.54065,1.21992 1.54499,3.29266 10e-4,0.55664 -0.1075,1.12816 -0.10866,0.57152 -0.3271,1.18722 z m -4.64239,-2.93462 q -0.002,-0.99609 -0.68445,-1.57328 -0.68238,-0.5845 -1.8689,-0.58201 -1.1792,0.002 -1.85912,0.58983 -0.68726,0.58006 -0.68517,1.57615 0.002,0.99609 0.69179,1.58058 0.68236,0.57719 1.86155,0.57472 1.18653,-0.002 1.86647,-0.58253 0.67992,-0.58736 0.67783,-1.58346 z m -304.0171,-47.68305 q -1.05468,0.002 -1.6614,0.56745 -0.59941,0.56522 -0.59734,1.55399 0.002,0.98877 0.60384,1.55147 0.6091,0.56269 1.66377,0.56048 1.05469,-0.002 1.66142,-0.56745 0.60671,-0.57255 0.60465,-1.554 -0.002,-0.98877 -0.61116,-1.55146 -0.60177,-0.56271 -1.66378,-0.56048 z m -1.48081,-0.62678 q -0.95264,-0.23238 -1.48867,-0.88311 -0.52871,-0.65075 -0.53067,-1.58825 -0.003,-1.31103 0.92583,-2.07469 0.9359,-0.76369 2.56187,-0.7671 1.6333,-0.003 2.56507,0.75635 0.93178,0.75977 0.93452,2.0708 0.002,0.93749 -0.53133,1.59047 -0.52599,0.65296 -1.47031,0.88932 1.06986,0.24677 1.66463,0.97063 0.6021,0.72384 0.6043,1.7712 0.003,1.58935 -0.96901,2.441 -0.96501,0.85163 -2.77409,0.85542 -1.80908,0.004 -2.78498,-0.84377 -0.96857,-0.84758 -0.97191,-2.43693 -0.002,-1.04736 0.59688,-1.77372 0.59906,-0.72636 1.66787,-0.97762 z m -0.54688,-2.33529 q 0.002,0.84961 0.53011,1.32459 0.53567,0.47494 1.49514,0.47293 0.95215,-0.002 1.48582,-0.47918 0.54099,-0.47722 0.53921,-1.32682 -0.002,-0.84961 -0.54477,-1.32455 -0.53567,-0.47495 -1.48781,-0.47296 -0.95947,0.002 -1.49314,0.47921 -0.52634,0.47718 -0.52456,1.32678 z m -67.91857,54.53314 -0.0147,-7.03123 0.62989,-0.001 10.31347,3.94811 0.003,1.54541 -9.69775,-3.71504 0.011,5.25146 z m 437.9963,-53.20634 q -0.99609,0.002 -1.5806,0.68447 -0.57718,0.68236 -0.57469,1.86887 0.002,1.1792 0.58252,1.86647 0.58737,0.67992 1.58346,0.67783 0.99608,-0.002 1.57327,-0.68445 0.5845,-0.68971 0.58203,-1.8689 -0.002,-1.18652 -0.58986,-1.86644 -0.58004,-0.67994 -1.57613,-0.67785 z m 2.92729,-4.64237 0.003,1.34764 q -0.55719,-0.2625 -1.12877,-0.40046 -0.56425,-0.13798 -1.12089,-0.13681 -1.46485,0.003 -2.23913,0.99346 -0.76698,0.99038 -0.87265,2.99012 0.4308,-0.63812 1.08194,-0.97639 0.65114,-0.34561 1.43482,-0.34725 1.64795,-0.003 2.6022,0.99797 0.96156,0.99407 0.96517,2.71526 0.004,1.68457 -0.99043,2.70472 -0.99396,1.02016 -2.64923,1.02363 -1.89696,0.004 -2.90342,-1.44412 -1.00647,-1.45541 -1.01226,-4.21664 -0.005,-2.59276 1.22181,-4.13343 1.22723,-1.54798 3.29997,-1.55233 0.55664,-10e-4 1.12084,0.10752 0.57152,0.10867 1.18721,0.32711 z m 118.95945,157.93074 -4.11555,-4.09833 0.87858,-0.88227 3.15542,3.14222 1.89155,-1.89949 q -0.30588,-0.14954 -0.57041,-0.34061 -0.26971,-0.18588 -0.49806,-0.41327 -1.29747,-1.29204 -1.34714,-2.75759 -0.0497,-1.46557 1.15965,-2.67998 1.24553,-1.25076 2.71654,-1.17098 1.46584,0.085 2.88267,1.49587 0.48784,0.48581 0.91376,1.07532 0.42072,0.58435 0.79509,1.28791 l -1.04914,1.05354 q -0.21384,-0.71943 -0.58804,-1.34013 -0.37418,-0.6207 -0.9295,-1.17369 -0.89784,-0.89408 -1.89232,-0.9438 -0.99448,-0.0497 -1.80071,0.75992 -0.80622,0.80961 -0.75235,1.80387 0.0539,0.99426 0.95172,1.88835 0.42038,0.41862 0.93378,0.74382 0.50822,0.32004 1.14055,0.55694 z m -676.242499,13.73413 3.723109,-5.84522 -3.735344,0.008 z m 0.390885,1.28824 -1.860348,0.004 -0.01494,-7.12644 -1.560055,0.003 -0.0026,-1.23047 1.560055,-0.003 -0.0054,-2.57812 1.472165,-0.003 0.0054,2.57812 4.936513,-0.0103 0.003,1.42821 z M 126.05818,361.7246 q -0.91027,0.59232 -1.83749,0.50623 -0.93239,-0.0809 -1.67973,-0.82513 -1.14695,-1.14216 -0.98937,-2.55636 0.15759,-1.4142 1.60466,-2.86735 0.48581,-0.48785 1.10123,-0.90864 0.60506,-0.42078 1.34491,-0.77968 l 1.01202,1.00779 q -0.68843,0.18271 -1.33499,0.57249 -0.64656,0.38978 -1.20989,0.95547 -0.98194,0.98607 -1.10435,1.88748 -0.12757,0.9066 0.61458,1.64564 0.68506,0.6822 1.54974,0.58198 0.86471,-0.0899 1.71744,-0.94618 l 0.89927,-0.90304 0.86151,0.85791 -0.9406,0.94456 q -0.77006,0.77329 -0.87214,1.4882 -0.0969,0.7201 0.48437,1.29893 0.59683,0.59433 1.33721,0.48402 0.74038,-0.1 1.52594,-0.88881 0.42895,-0.43076 0.82651,-1.01682 0.39756,-0.58607 0.78952,-1.3741 l 0.93417,0.93027 q -0.42826,0.76222 -0.86204,1.36389 -0.43895,0.60687 -0.89891,1.06876 -1.18867,1.19366 -2.42613,1.34645 -1.23228,0.15795 -2.15607,-0.76198 -0.64354,-0.64085 -0.72293,-1.45379 -0.0742,-0.80777 0.43156,-1.65819 z m -2.01931,-31.98338 3.65905,3.64333 -0.87854,0.88233 -4.92025,-4.89912 0.87854,-0.88233 q 1.21184,-0.0233 3.27305,-0.0381 2.07157,-0.0148 2.63601,-0.0523 1.06674,-0.0644 1.65155,-0.25733 0.59517,-0.19291 0.97242,-0.57179 0.61498,-0.61762 0.5666,-1.44098 -0.0432,-0.81819 -0.73868,-1.51068 -0.49306,-0.49095 -1.21375,-0.86747 -0.7155,-0.37135 -1.68457,-0.64374 l 1.05424,-1.05879 q 0.88642,0.37615 1.56578,0.79419 0.67935,0.41804 1.13608,0.87281 1.20411,1.19895 1.32088,2.51416 0.11677,1.31522 -0.8858,2.32211 -0.47543,0.47749 -1.08602,0.72739 -0.60023,0.24989 -1.65133,0.36091 -0.27962,0.0213 -1.69343,0.0503 -1.40864,0.0238 -3.96183,0.0551 z m -56.709506,-11.58596 2.416987,-0.005 -0.01749,-8.34226 -2.628284,0.53285 -0.0028,-1.34765 2.613636,-0.53283 1.479489,-0.003 0.02031,9.68992 2.416986,-0.005 0.0026,1.24511 -6.298814,0.0132 z m 676.021036,3.84407 q -0.80627,0.80956 -0.41539,2.01548 0.39087,1.19556 1.98924,2.78743 1.5932,1.58671 2.79553,1.97786 1.20232,0.3808 2.00859,-0.42877 0.81145,-0.81477 0.42058,-2.01033 -0.39089,-1.20591 -1.98409,-2.79262 -1.59837,-1.59187 -2.80068,-1.97267 -1.20233,-0.39115 -2.01378,0.42362 z m -0.83033,-0.82695 q 1.29728,-1.30258 3.01223,-0.95909 1.71494,0.33314 3.67659,2.2868 1.95647,1.94851 2.30178,3.66723 0.3453,1.70838 -0.95198,3.01095 -1.29727,1.30258 -3.01221,0.96944 -1.71494,-0.34349 -3.67141,-2.292 -1.96165,-1.95366 -2.30696,-3.66203 -0.34531,-1.71873 0.95196,-3.0213 z" />
    <path
       id="path429"
       style="fill:none;stroke:#ff0000;stroke-width:1;stroke-linecap:butt;stroke-linejoin:miter;stroke-miterlimit:10;stroke-dasharray:none;stroke-opacity:1"
       d="m 25.73241,542.44904 14.20731,-15.19129 3.19898,-0.0408 14.60802,14.80505 m -30.87636,85.32008 -1.13795,-84.89304 m 33.15324,84.46493 -14.20732,15.19129 -3.19897,0.0408 -14.609,-14.80402 m 64.03047,-0.86017 -14.20721,15.19529 -3.19998,0.0409 -14.60799,-14.80404 m 30.87636,-85.32017 1.13882,84.88802 m -33.15411,-84.45992 14.20731,-15.19129 3.19988,-0.0449 14.6081,14.80804 M 395.03608,46.07517 h 84.898 m -84.898,84.898 v -84.898 m 396.195,0 15,19.101 v 46.696 l -15,19.101 m -311.297,0 h -84.898 m 198.098,0 h -113.2 m 198.098,-84.898 h 113.199 m 0,84.898 h -113.199 m -84.898,-84.898 h 84.898 m -198.098,0 h 113.2 m 84.898,84.898 h -84.898 m 0.90808,509.34258 h -84.899 m -113.199,-84.899 h 113.199 m -113.199,84.899 v -84.899 m 396.195,0 15,19.102 v 46.695 l -15,19.102 m -282.996,0 h -113.199 m 311.297,-84.899 h 84.898 m 0,84.899 h -84.898 m -113.199,-84.899 h 113.199 m -198.098,0 h 84.899 m 113.199,84.899 h -113.199 m -397.83257,-257.42389 15.03954,19.06761 0.0994,46.69606 -14.96117,19.13334 m 481.0937,-1.00652 -15.03963,-19.07161 -0.0984,-46.69609 14.96016,-19.1333 m 2e-5,0 -25.44024,15.05358 -62.2591,0.13178 -25.50195,-14.94623 m 113.03274,-79.4786 -15.03954,-19.06761 -0.0984,-46.69609 14.96017,-19.13331 m -480.56955,250.044 25.43725,-15.05351 62.2582,-0.12775 25.50194,14.94622 m 254.69494,-0.53634 25.44125,-15.05361 62.2582,-0.12775 25.50194,14.94622 m -367.89633,0.77148 -15.03966,-19.07261 -0.0983,-46.69509 14.96016,-19.1333 m -5e-5,0 -25.43624,15.05348 -62.2621,0.13185 -25.49895,-14.9463 m 367.89233,-0.77138 15.04356,19.06851 0.0944,46.69519 -14.96017,19.13331 m -368.23867,-163.3651 25.44124,-15.0536 62.25811,-0.13176 25.50194,14.94623 m 254.69504,-0.53235 25.43724,-15.0535 62.2621,-0.13186 25.49795,14.94633 m -367.89233,0.77138 -15.03964,-19.07161 -0.0983,-46.69209 14.96017,-19.13331 m 254.69496,-0.53635 15.03966,19.07261 0.0984,46.69509 -14.96016,19.13331 m -254.87284,-84.36466 -25.44025,15.05358 -62.2582,0.12776 -25.50294,-14.94621 m 0,0 15.04366,19.07251 0.0954,46.69517 -14.96117,19.13333 m 480.91583,-85.90752 -25.43625,15.05348 -62.25918,0.12878 -25.50196,-14.94723 m 175.72003,124.15039 22.68389,22.59294 m -735.788659,1.54286 19.072609,-15.03966 46.695064,-0.0994 19.133336,14.96117 m 0,4e-5 22.59384,-22.68792 M 26.626104,485.12483 26.374781,366.26609 m 735.788659,-1.54286 15.05828,26.71052 0.13557,65.37598 -14.94252,26.77225 M 133.86963,343.40032 111.18081,320.81051 m 0,0 -19.071618,15.03963 -46.696063,0.0994 -19.133331,-14.96116 M 762.06846,319.4455 739.47955,342.13029 M 26.032475,202.12951 l 19.072509,-15.04366 46.691189,-0.0943 19.133207,14.95617 M 88.929148,145.39319 88.752399,60.496155 M 26.279799,320.98836 26.032475,202.12951 m 735.788665,-1.54286 15.05428,26.71063 0.13849,65.3729 -14.94545,26.77532 M 89.939759,626.4908 89.76201,541.5938 m 21.7611,-56.64671 -19.071611,15.03963 -46.692089,0.0983 -19.133306,-14.96017 M 174.07863,626.31698 89.93976,626.4908 m 672.47501,-142.90882 -3.86721,23.84193 -34.17695,31.20264 -24.09838,1.68793 m -610.510219,1.27932 84.139769,-0.17785 m 0,0 -24.10201,-1.583 -34.30881,-31.05947 -3.96785,-23.82639 m 283.29264,140.90401 -220.73712,0.46588 m 526.1936,-86.0025 -49.63056,15.10228 -121.4064,0.25691 -49.70026,-14.89732 m -84.89701,0.17775 0.17775,84.897 m 84.71926,-85.07475 -19.06761,15.03954 -46.69609,0.0984 L 394.638,540.95412 M 173.07202,145.21926 88.929148,145.39319 m 22.000232,56.55457 3.86721,-23.84193 34.17695,-31.20264 24.09848,-1.68393 M 88.752399,60.496155 172.89117,60.318328 m 526.5522,83.795442 24.10111,1.58702 34.30981,31.05944 3.96685,23.82642 M 393.63139,59.85638 l 0.17775,84.89701 m 0,0 19.06764,-15.03854 46.69606,-0.0994 19.13333,14.96117 M 172.89117,60.318328 393.63139,59.85638 m 85.07478,84.72026 49.63454,-15.10339 121.40643,-0.2559 49.69623,14.89642" />
    <path
       id="path431"
       style="fill:none;stroke:#800000;stroke-width:1;stroke-linecap:butt;stroke-linejoin:miter;stroke-miterlimit:10;stroke-dasharray:8,8;stroke-dashoffset:0;stroke-opacity:1"
       d="m 25.73241,542.44904 32.01431,-0.42709 m 1.13893,84.89202 -32.01529,0.42811 m 64.03047,-0.86021 -32.01518,0.4321 m -1.13893,-84.89202 32.01529,-0.4281 m 106.44758,-158.70199 0.17775,84.89701 m 481.09372,-1.00652 -0.17785,-84.901 m 0,0 -113.20129,0.23913 m 113.03274,-79.4786 -0.17775,-84.89701 m -480.56957,250.044 113.19739,-0.23504 m 254.69494,-0.53634 113.20139,-0.23514 m -367.89633,0.77148 -0.17785,-84.901 m 0,0 -113.19729,0.23903 m 367.89233,-0.77138 0.17775,84.89701 m -368.23863,-163.3651 113.20129,-0.23913 m 254.69504,-0.53235 113.19729,-0.23903 m -367.89233,0.77138 -0.17775,-84.89701 m 254.69494,-0.53635 0.17785,84.90101 m -254.87279,-84.36466 -113.20139,0.23513 m 0,0 0.17785,84.90101 M 676.95691,217.74487 563.75952,217.9799 M 26.374781,366.26609 111.27579,366.08824 m 650.88765,-1.36501 0.25133,118.85875 M 111.18081,320.81051 26.279798,320.98836 m 84.901012,-0.17785 -0.25143,-118.86275 m -84.896905,0.18175 84.896905,-0.18175 m 650.89176,-1.36111 0.24732,118.85885 m -650.54535,165.50159 -84.897006,0.17774 m 84.897006,-0.17774 -0.24732,-118.85885 m 651.13898,117.49374 -62.14254,56.7325 m -526.1936,86.0025 -0.17685,-84.90103 m 0,0 -62.37867,-56.46886 m 588.74912,55.36739 -220.73722,0.46187 m -84.89701,0.17775 -220.73622,0.46185 m 305.63323,-0.6396 -84.89701,0.17775 m -283.70862,-339.00634 62.14264,-56.7285 m 0,0 -0.18085,-84.900932 m 526.5522,83.795442 62.37777,56.47288 m -588.74912,-55.36739 220.73712,-0.46587 m 0,0 84.89703,-0.17675 m 0,0 220.7372,-0.46287 M 394.638,540.9541 393.80914,144.75339 m 85.72587,396.02296 -0.82884,-396.19971" />
    <path
       id="path433"
       style="fill:none;stroke:#00ff00;stroke-width:1;stroke-linecap:butt;stroke-linejoin:miter;stroke-miterlimit:10;stroke-dasharray:8, 2, 2, 2;stroke-dashoffset:0;stroke-opacity:1"
       d="M 58.88565,626.91397 57.74672,542.02195 M 479.93408,130.97317 v -84.898 m 311.297,0 v 84.898 m -113.199,-84.898 v 84.898 m -84.898,0 v -84.898 m -83.99092,594.24058 v -84.899 m 282.996,0 v 84.899 m -84.898,-84.899 v 84.899 m -113.199,0 v -84.899" />
  </g>
</svg>
