<?xml version="1.0" encoding="UTF-8" standalone="no"?>
<!-- Created with Inkscape (http://www.inkscape.org/) -->

<svg
   version="1.1"
   id="svg2424"
   width="1132"
   height="1132"
   viewBox="0 0 1132 1132"
   sodipodi:docname="C.svg"
   inkscape:version="1.2.2 (732a01da63, 2022-12-09, custom)"
   xmlns:inkscape="http://www.inkscape.org/namespaces/inkscape"
   xmlns:sodipodi="http://sodipodi.sourceforge.net/DTD/sodipodi-0.dtd"
   xmlns="http://www.w3.org/2000/svg"
   xmlns:svg="http://www.w3.org/2000/svg">
  <defs
     id="defs2428" />
  <sodipodi:namedview
     id="namedview2426"
     pagecolor="#ffffff"
     bordercolor="#666666"
     borderopacity="1.0"
     inkscape:showpageshadow="2"
     inkscape:pageopacity="0.0"
     inkscape:pagecheckerboard="0"
     inkscape:deskcolor="#d1d1d1"
     showgrid="false"
     showguides="true"
     inkscape:zoom="0.65852466"
     inkscape:cx="255.11573"
     inkscape:cy="635.51151"
     inkscape:window-width="1920"
     inkscape:window-height="1009"
     inkscape:window-x="0"
     inkscape:window-y="0"
     inkscape:window-maximized="1"
     inkscape:current-layer="g2432">
    <inkscape:page
       x="0"
       y="0"
       id="page2430"
       width="1132"
       height="1132" />
  </sodipodi:namedview>
  <g
     id="g2432"
     inkscape:groupmode="layer"
     inkscape:label="Page 1"
     transform="matrix(1.3333333,0,0,1.3333333,0,2.83e-5)">
    <path
       id="path4795"
       style="font-size:15px;font-family:'DejaVu Sans';-inkscape-font-specification:DejaVuSans;fill:#0000ff"
       d="m 581.44584,439.85774 5.83016,3.74665 0.007,-3.73534 z m -1.28981,0.38568 0.004,-1.86034 7.12645,0.0138 0.003,-1.56006 1.23047,0.002 -0.003,1.56005 2.57812,0.005 -0.003,1.47217 -2.57812,-0.005 -0.01,4.93651 -1.42822,-0.003 z m 9.6668,11.96107 0.01,-5.16356 1.24512,0.002 -0.0134,6.94335 -1.24512,-0.002 q -0.86995,-0.84397 -2.33199,-2.297 -1.46934,-1.46036 -1.89342,-1.83473 -0.79696,-0.71199 -1.34574,-0.99137 -0.55609,-0.28672 -1.09075,-0.28776 -0.87158,-0.002 -1.42208,0.61248 -0.5505,0.60685 -0.5524,1.58829 -10e-4,0.6958 0.23885,1.47264 0.24021,0.76951 0.72922,1.64935 l -1.49413,-0.003 q -0.35716,-0.89424 -0.53876,-1.67097 -0.1816,-0.77671 -0.18036,-1.42125 0.003,-1.6992 0.85486,-2.70831 0.85157,-1.00909 2.27246,-1.00634 0.67383,10e-4 1.28125,0.25883 0.60009,0.25019 1.41912,0.91828 0.21204,0.18351 1.22821,1.16693 1.00884,0.9834 2.82911,2.77404 z m -337.03138,0.28841 -5.83016,-3.74665 -0.007,3.73535 z m 1.28981,-0.38568 -0.004,1.86034 -7.12646,-0.0138 -0.003,1.56006 -1.23045,-0.002 0.003,-1.56006 -2.57813,-0.005 0.003,-1.47217 2.57813,0.005 0.01,-4.93651 1.42822,0.003 z m -9.66679,-11.9611 -0.01,5.16356 -1.24512,-0.002 0.0135,-6.94334 1.24512,0.002 q 0.86994,0.84397 2.33197,2.297 1.46935,1.46037 1.89343,1.83473 0.79697,0.71199 1.34574,0.99138 0.55608,0.28671 1.09075,0.28775 0.87158,0.002 1.42209,-0.61248 0.5505,-0.60684 0.5524,-1.58829 0.001,-0.6958 -0.23885,-1.47264 -0.24021,-0.7695 -0.72924,-1.64936 l 1.49415,0.003 q 0.35715,0.89425 0.53875,1.67098 0.1816,0.77671 0.18035,1.42124 -0.003,1.69922 -0.85486,2.70831 -0.85156,1.0091 -2.27245,1.00635 -0.67383,-0.001 -1.28124,-0.25883 -0.60011,-0.25018 -1.41912,-0.91828 -0.21205,-0.18351 -1.22822,-1.16693 -1.00883,-0.9834 -2.8291,-2.77404 z m 538.9776,-51.43499 q 0.2291,-1.06157 0.94803,-1.65345 0.71893,-0.59918 1.77362,-0.59714 1.61865,0.003 2.50272,1.11813 0.88407,1.11499 0.8801,3.16577 -10e-4,0.68848 -0.14191,1.42062 -0.13324,0.72485 -0.40574,1.50069 l -1.42821,-0.003 q 0.36007,-0.61455 0.5446,-1.34661 0.18451,-0.73207 0.18606,-1.5304 0.003,-1.3916 -0.54521,-2.11776 -0.5479,-0.73349 -1.59526,-0.73552 -0.9668,-0.002 -1.51011,0.67823 -0.55062,0.67277 -0.55296,1.88125 l -0.002,1.27442 -1.21582,-0.002 0.003,-1.33301 q 0.002,-1.09131 -0.4289,-1.67075 -0.43833,-0.57947 -1.25864,-0.58106 -0.84228,-0.002 -1.29023,0.59809 -0.45524,0.59238 -0.4574,1.70566 -0.001,0.60791 0.12931,1.30396 0.13049,0.69606 0.40719,1.53156 l -1.31835,-0.003 q -0.23275,-0.84274 -0.34852,-1.57539 -0.11575,-0.73997 -0.11448,-1.39182 0.003,-1.68457 0.7742,-2.66453 0.76362,-0.97996 2.06733,-0.97744 0.90819,0.002 1.53707,0.523 0.62155,0.52122 0.86139,1.48116 z m 4.62618,12.75699 0.01,-5.16356 1.24512,0.002 -0.0135,6.94334 -1.24511,-0.002 q -0.86995,-0.84398 -2.33199,-2.297 -1.46934,-1.46037 -1.89342,-1.83473 -0.79696,-0.71198 -1.34573,-0.99137 -0.55609,-0.28673 -1.09076,-0.28776 -0.87158,-0.002 -1.42209,0.61249 -0.55049,0.60684 -0.55239,1.58828 -10e-4,0.6958 0.23884,1.47264 0.24021,0.7695 0.72923,1.64936 l -1.49414,-0.003 q -0.35714,-0.89426 -0.53875,-1.67097 -0.1816,-0.77672 -0.18035,-1.42125 0.003,-1.69922 0.85485,-2.70831 0.85156,-1.0091 2.27246,-1.00635 0.67383,0.001 1.28124,0.25883 0.60011,0.25019 1.41913,0.91828 0.21204,0.18351 1.22821,1.16693 1.00884,0.98341 2.8291,2.77403 z M 126.55149,534.59831 q 0.22911,-1.06157 0.94803,-1.65344 0.71894,-0.5992 1.77362,-0.59715 1.61865,0.003 2.50273,1.11814 0.88407,1.11499 0.8801,3.16577 -0.001,0.68846 -0.14191,1.42062 -0.13325,0.72484 -0.40575,1.50068 l -1.42822,-0.003 q 0.36008,-0.61453 0.5446,-1.34659 0.18453,-0.73208 0.18608,-1.53042 0.003,-1.39159 -0.54522,-2.11776 -0.5479,-0.73348 -1.59526,-0.73551 -0.96679,-0.002 -1.51011,0.67823 -0.55061,0.67277 -0.55295,1.88126 l -0.002,1.27441 -1.21582,-0.002 0.003,-1.333 q 0.002,-1.09131 -0.42889,-1.67077 -0.43833,-0.57946 -1.25865,-0.58104 -0.84228,-0.002 -1.29022,0.59809 -0.45525,0.59238 -0.4574,1.70566 -10e-4,0.6079 0.1293,1.30396 0.13049,0.69605 0.40719,1.53155 l -1.31835,-0.003 q -0.23274,-0.84273 -0.34851,-1.57539 -0.11576,-0.73997 -0.1145,-1.39182 0.003,-1.68457 0.7742,-2.66452 0.76362,-0.97997 2.06733,-0.97745 0.90821,0.002 1.53708,0.523 0.62155,0.52122 0.86139,1.48116 z m 4.62619,12.75697 0.01,-5.16356 1.24511,0.002 -0.0135,6.94334 -1.24511,-0.002 q -0.86996,-0.84397 -2.33198,-2.297 -1.46935,-1.46037 -1.89343,-1.83472 -0.79696,-0.712 -1.34574,-0.99138 -0.55608,-0.28672 -1.09075,-0.28775 -0.87158,-0.002 -1.42208,0.61247 -0.5505,0.60685 -0.5524,1.5883 -0.001,0.6958 0.23885,1.47262 0.24021,0.76952 0.72923,1.64937 l -1.49414,-0.003 q -0.35716,-0.89425 -0.53875,-1.67097 -0.18161,-0.77672 -0.18036,-1.42125 0.003,-1.69922 0.85485,-2.70831 0.85157,-1.0091 2.27247,-1.00634 0.67383,10e-4 1.28124,0.25883 0.60009,0.25018 1.41912,0.91827 0.21205,0.18352 1.2282,1.16694 1.00885,0.98339 2.82912,2.77403 z m 656.71679,-81.99882 0.01,-5.16356 1.24511,0.002 -0.0134,6.94334 -1.24512,-0.002 q -0.86995,-0.84398 -2.33199,-2.297 -1.46933,-1.46037 -1.89342,-1.83473 -0.79696,-0.71199 -1.34574,-0.99138 -0.55608,-0.28672 -1.09074,-0.28775 -0.87159,-0.002 -1.42209,0.61248 -0.5505,0.60684 -0.5524,1.58829 -10e-4,0.6958 0.23885,1.47264 0.24021,0.7695 0.72923,1.64936 l -1.49414,-0.003 q -0.35715,-0.89426 -0.53876,-1.67098 -0.1816,-0.77671 -0.18035,-1.42124 0.003,-1.69922 0.85485,-2.70832 0.85157,-1.00909 2.27247,-1.00634 0.67382,10e-4 1.28124,0.25883 0.6001,0.25018 1.41912,0.91828 0.21205,0.18351 1.22821,1.16693 1.00884,0.9834 2.82911,2.77403 z m -0.0185,9.54 0.01,-5.16356 1.24512,0.002 -0.0135,6.94334 -1.24511,-0.002 q -0.86995,-0.84397 -2.33199,-2.297 -1.46934,-1.46037 -1.89342,-1.83473 -0.79696,-0.71199 -1.34574,-0.99138 -0.55609,-0.28671 -1.09075,-0.28775 -0.87159,-0.002 -1.42209,0.61248 -0.55049,0.60684 -0.55239,1.58829 -10e-4,0.6958 0.23884,1.47264 0.24021,0.7695 0.72923,1.64935 l -1.49414,-0.003 q -0.35714,-0.89424 -0.53875,-1.67097 -0.18161,-0.77671 -0.18036,-1.42125 0.003,-1.69921 0.85486,-2.70831 0.85156,-1.00909 2.27246,-1.00634 0.67383,10e-4 1.28124,0.25883 0.60011,0.25018 1.41913,0.91828 0.21204,0.18351 1.22821,1.16693 1.00884,0.9834 2.8291,2.77404 z m -703.348397,41.29891 -5.163564,-0.01 0.0024,-1.24512 6.943346,0.0134 -0.0024,1.24512 q -0.843971,0.86995 -2.297001,2.33199 -1.460368,1.46933 -1.834725,1.89342 -0.711994,0.79696 -0.991377,1.34574 -0.286722,0.55609 -0.287758,1.09075 -0.0017,0.87158 0.612482,1.42208 0.606845,0.5505 1.588289,0.5524 0.695799,10e-4 1.472633,-0.23885 0.769509,-0.24021 1.649364,-0.72922 l -0.0029,1.49413 q -0.894248,0.35716 -1.670969,0.53876 -0.77672,0.1816 -1.42125,0.18036 -1.699216,-0.003 -2.70831,-0.85486 -1.009095,-0.85157 -1.006343,-2.27246 0.0013,-0.67383 0.258828,-1.28124 0.250187,-0.60011 0.918278,-1.41913 0.183516,-0.21204 1.166932,-1.22821 0.983401,-1.00884 2.774038,-2.8291 z m 9.539983,0.0185 -5.163564,-0.01 0.0024,-1.24512 6.943346,0.0135 -0.0024,1.24512 q -0.843971,0.86994 -2.297,2.33198 -1.460369,1.46934 -1.834726,1.89342 -0.711993,0.79697 -0.991377,1.34575 -0.286722,0.55608 -0.287758,1.09074 -0.0017,0.87159 0.612481,1.42209 0.606846,0.5505 1.58829,0.5524 0.695799,0.001 1.472633,-0.23885 0.76951,-0.24021 1.649364,-0.72923 l -0.0029,1.49414 q -0.894249,0.35716 -1.670969,0.53875 -0.77672,0.18161 -1.42125,0.18036 -1.699216,-0.003 -2.70831,-0.85486 -1.009095,-0.85156 -1.006343,-2.27246 0.0013,-0.67383 0.258828,-1.28124 0.250187,-0.60011 0.918278,-1.41912 0.183516,-0.21205 1.166931,-1.22822 0.983402,-1.00883 2.774039,-2.8291 z m 693.666044,32.29244 0.005,-2.417 -8.34226,-0.0162 0.52224,2.63041 -1.34765,-0.003 -0.52228,-2.61576 0.003,-1.47949 9.68992,0.0188 0.005,-2.41699 1.24512,0.002 -0.0122,6.29882 z m -0.0165,8.52195 0.01,-5.16357 1.24511,0.002 -0.0134,6.94335 -1.24512,-0.002 q -0.86995,-0.84397 -2.33198,-2.297 -1.46934,-1.46037 -1.89343,-1.83472 -0.79696,-0.712 -1.34573,-0.99138 -0.55608,-0.28673 -1.09075,-0.28776 -0.87158,-0.002 -1.42209,0.61249 -0.5505,0.60684 -0.5524,1.58828 -10e-4,0.69581 0.23885,1.47263 0.24021,0.76952 0.72924,1.64937 l -1.49415,-0.003 q -0.35715,-0.89425 -0.53876,-1.67097 -0.18159,-0.77672 -0.18034,-1.42125 0.003,-1.69922 0.85485,-2.70831 0.85157,-1.0091 2.27246,-1.00634 0.67382,0.001 1.28124,0.25883 0.6001,0.25018 1.41912,0.91827 0.21205,0.18352 1.22821,1.16693 1.00884,0.9834 2.82911,2.77404 z m -741.618647,-3.76257 -0.0047,2.417 8.342269,0.0161 -0.52225,-2.63041 1.347654,0.003 0.522279,2.61576 -0.0029,1.47949 -9.689924,-0.0188 -0.0047,2.41699 -1.245114,-0.002 0.0122,-6.29882 z m 0.0165,-8.52189 -0.01,5.16357 -1.245114,-0.002 0.01345,-6.94335 1.245115,0.002 q 0.869949,0.84397 2.331982,2.297 1.469342,1.46037 1.893423,1.83472 0.796963,0.712 1.345739,0.99138 0.556087,0.28673 1.090754,0.28776 0.87158,0.002 1.422086,-0.61249 0.550493,-0.60684 0.552393,-1.58828 0.0013,-0.6958 -0.238847,-1.47263 -0.24021,-0.76951 -0.72923,-1.64937 l 1.494139,0.003 q 0.357155,0.89425 0.538757,1.67097 0.181602,0.77672 0.180354,1.42125 -0.0033,1.69922 -0.854857,2.70831 -0.851565,1.00909 -2.272461,1.00634 -0.673827,-10e-4 -1.281239,-0.25882 -0.600103,-0.25019 -1.419122,-0.91828 -0.212048,-0.18352 -1.228212,-1.16693 -1.008839,-0.9834 -2.829106,-2.77404 z M 717.32238,401.62859 q 0.002,-1.14258 -1.1246,-1.72337 -1.1195,-0.57346 -3.37535,-0.57783 -2.24853,-0.004 -3.37756,0.56475 -1.12173,0.57644 -1.12394,1.71901 -0.002,1.1499 1.11727,1.72336 1.12681,0.58079 3.37533,0.58515 2.25586,0.004 3.37759,-0.57207 1.12903,-0.56911 1.13126,-1.719 z m 1.17187,0.002 q -0.004,1.83837 -1.46295,2.80234 -1.45208,0.97131 -4.22063,0.96595 -2.76123,-0.005 -4.21686,-0.98229 -1.44831,-0.9696 -1.44475,-2.80798 0.004,-1.83837 1.45563,-2.80968 1.45939,-0.96398 4.22062,-0.95863 2.76855,0.005 4.21687,0.97497 1.45563,0.97694 1.45207,2.81532 z m -9.86554,-11.44852 -0.01,5.16357 -1.24512,-0.002 0.0134,-6.94335 1.24512,0.002 q 0.86994,0.84397 2.33197,2.297 1.46935,1.46037 1.89342,1.83472 0.79697,0.712 1.34575,0.99138 0.55608,0.28673 1.09075,0.28776 0.87158,0.002 1.42209,-0.61248 0.55049,-0.60685 0.55239,-1.58829 0.001,-0.69581 -0.23885,-1.47263 -0.2402,-0.76952 -0.72923,-1.64937 l 1.49414,0.003 q 0.35716,0.89424 0.53876,1.67096 0.1816,0.77673 0.18035,1.42125 -0.003,1.69922 -0.85486,2.70831 -0.85156,1.0091 -2.27246,1.00635 -0.67382,-0.001 -1.28123,-0.25884 -0.60011,-0.25018 -1.41912,-0.91827 -0.21206,-0.18352 -1.22822,-1.16693 -1.00883,-0.9834 -2.8291,-2.77404 z M 626.48189,548.6127 q 0.002,-1.14258 -1.12459,-1.72337 -1.11949,-0.57346 -3.37535,-0.57783 -2.24854,-0.004 -3.37757,0.56475 -1.12172,0.57644 -1.12393,1.71902 -0.002,1.1499 1.11726,1.72336 1.12681,0.58079 3.37535,0.58514 2.25585,0.004 3.37757,-0.57207 1.12903,-0.5691 1.13126,-1.719 z m 1.17188,0.002 q -0.004,1.83838 -1.46295,2.80234 -1.45208,0.97131 -4.22063,0.96595 -2.76122,-0.005 -4.21685,-0.98229 -1.44833,-0.96959 -1.44477,-2.80797 0.004,-1.83838 1.45564,-2.80969 1.45939,-0.96397 4.22062,-0.95862 2.76854,0.005 4.21687,0.97496 1.45563,0.97694 1.45207,2.81532 z m -9.86555,-11.44849 -0.01,5.16357 -1.24511,-0.002 0.0134,-6.94334 1.24512,0.002 q 0.86995,0.84396 2.33199,2.297 1.46934,1.46037 1.89342,1.83472 0.79696,0.71199 1.34574,0.99138 0.55608,0.28672 1.09074,0.28776 0.87159,0.002 1.42209,-0.61249 0.5505,-0.60684 0.5524,-1.58828 10e-4,-0.69581 -0.23885,-1.47264 -0.24021,-0.76951 -0.72923,-1.64936 l 1.49414,0.003 q 0.35716,0.89425 0.53876,1.67097 0.1816,0.77672 0.18035,1.42125 -0.003,1.69922 -0.85485,2.70831 -0.85157,1.00909 -2.27247,1.00634 -0.67383,-10e-4 -1.28124,-0.25883 -0.60009,-0.25018 -1.41912,-0.91827 -0.21205,-0.18352 -1.22821,-1.16693 -1.00884,-0.98341 -2.82911,-2.77405 z m 89.66312,-64.7912 1.34765,0.003 q -0.26475,0.55613 -0.40501,1.12715 -0.14027,0.57102 -0.14133,1.12033 -0.003,1.46485 0.97712,2.23579 0.98726,0.77828 2.99388,0.89202 -0.62906,-0.42601 -0.9647,-1.07853 -0.33566,-0.6525 -0.33413,-1.44352 0.003,-1.64061 0.9938,-2.59818 0.99794,-0.95021 2.71913,-0.94688 1.68457,0.003 2.7007,1.00133 1.01614,0.99806 1.01293,2.65334 -0.004,1.89696 -1.46312,2.89023 -1.45214,1.00061 -4.22068,0.99525 -2.58545,-0.005 -4.12847,-1.23847 -1.53572,-1.22612 -1.53171,-3.29887 0.001,-0.55664 0.11206,-1.12772 0.11096,-0.57107 0.33188,-1.18588 z m 4.63052,2.95332 q -0.002,0.99608 0.6781,1.57601 0.68002,0.58726 1.86654,0.58956 1.17919,0.002 1.86149,-0.58234 0.68958,-0.57727 0.69151,-1.57336 0.002,-0.9961 -0.6854,-1.58337 -0.68004,-0.57993 -1.85923,-0.58221 -1.18652,-0.002 -1.86879,0.57499 -0.68229,0.58462 -0.68422,1.58072 z m -3.59439,-12.27894 -0.005,2.417 8.34227,0.0161 -0.52226,-2.63041 1.34766,0.003 0.52228,2.61576 -0.003,1.47949 -9.68992,-0.0188 -0.005,2.41699 -1.24511,-0.002 0.0122,-6.29882 z m -51.12165,53.23697 -0.003,1.34766 q -0.55612,-0.26476 -1.12714,-0.40502 -0.57102,-0.14027 -1.12033,-0.14133 -1.46485,-0.003 -2.23579,0.97712 -0.77828,0.98726 -0.89203,2.99388 0.42602,-0.62906 1.07853,-0.96471 0.6525,-0.33565 1.44352,-0.33412 1.64062,0.003 2.59818,0.9938 0.95022,0.99794 0.94689,2.71913 -0.003,1.68457 -1.00133,2.7007 -0.99806,1.01614 -2.65334,1.01293 -1.89697,-0.004 -2.89023,-1.46312 -1.00061,-1.45213 -0.99525,-4.22068 0.005,-2.58545 1.23847,-4.12847 1.22611,-1.53571 3.29887,-1.5317 0.55664,10e-4 1.12771,0.11205 0.57108,0.11096 1.18588,0.33188 z m -2.95331,4.63052 q -0.99609,-0.002 -1.57602,0.6781 -0.58725,0.68002 -0.58955,1.86654 -0.002,1.1792 0.58234,1.86148 0.57727,0.6896 1.57336,0.69153 0.9961,0.002 1.58337,-0.68541 0.57993,-0.68003 0.58221,-1.85923 0.002,-1.18653 -0.57499,-1.86879 -0.58462,-0.68229 -1.58072,-0.68422 z m 12.27891,-3.59438 -2.417,-0.005 -0.0162,8.34227 2.63042,-0.52225 -0.003,1.34765 -2.61577,0.52228 -1.47948,-0.003 0.0188,-9.68992 -2.41698,-0.005 0.002,-1.24512 6.29882,0.0122 z m 62.02992,155.61525 q -0.77885,0.71117 -0.8475,1.53755 -0.0632,0.82144 0.60349,1.55161 0.66672,0.73017 1.49051,0.74167 0.8292,0.007 1.60805,-0.70461 0.77885,-0.71117 0.84749,-1.53755 0.0637,-0.83178 -0.59808,-1.55654 -0.66672,-0.73017 -1.49592,-0.73674 -0.82378,-0.0115 -1.60804,0.70461 z m -1.51728,0.53247 q -0.86117,0.46894 -1.69554,0.3481 -0.82897,-0.12579 -1.46111,-0.8181 -0.88403,-0.96816 -0.71074,-2.15787 0.17869,-1.19465 1.37941,-2.29103 1.20614,-1.10132 2.40666,-1.16603 1.20052,-0.0647 2.08454,0.90344 0.63215,0.69231 0.67686,1.53421 0.0501,0.83695 -0.48956,1.64712 0.95758,-0.53715 1.88461,-0.40172 0.93243,0.13048 1.63866,0.90393 1.07169,1.17368 0.92522,2.45793 -0.14106,1.27931 -1.477,2.49916 -1.33595,1.21985 -2.62818,1.24928 -1.28684,0.0245 -2.35852,-1.14918 -0.70623,-0.77345 -0.75165,-1.71387 -0.0454,-0.94043 0.57634,-1.84537 z m -1.97568,-1.35991 q 0.57289,0.62741 1.28332,0.62338 0.71585,-0.009 1.42439,-0.65591 0.70313,-0.64203 0.77695,-1.35412 0.0792,-0.71702 -0.49366,-1.34443 -0.57288,-0.62741 -1.29413,-0.61351 -0.71586,0.009 -1.41898,0.65098 -0.70854,0.64697 -0.78236,1.35906 -0.0684,0.70714 0.50447,1.33455 z m -3.03731,12.13611 1.78487,-1.62975 -5.62513,-6.16048 -1.58614,2.1624 -0.90872,-0.9952 1.57532,-2.15253 1.09255,-0.99761 6.53385,7.15568 1.78487,-1.62976 0.83957,0.91948 -4.65146,4.24725 z M 86.206545,617.35582 q -0.776092,-0.71418 -1.605311,-0.71083 -0.823827,0.008 -1.49337,0.73588 -0.669543,0.72759 -0.60949,1.54927 0.06544,0.82664 0.841536,1.54082 0.776084,0.71417 1.605297,0.71082 0.834176,-0.009 1.498762,-0.73093 0.669543,-0.72759 0.604098,-1.55422 -0.06005,-0.82168 -0.841522,-1.54081 z m -0.662166,-1.46534 q -0.541927,-0.8172 -0.493957,-1.65892 0.05335,-0.83675 0.688174,-1.52661 0.887767,-0.96473 2.088035,-0.89537 1.205653,0.0743 2.402127,1.17535 1.20186,1.10598 1.370527,2.29635 0.168674,1.19038 -0.719093,2.15511 -0.634825,0.68985 -1.469659,0.80747 -0.829447,0.12258 -1.683401,-0.34475 0.618241,0.90735 0.563798,1.84263 -0.04906,0.94025 -0.758274,1.71095 -1.07623,1.16953 -2.368353,1.13508 -1.286721,-0.0295 -2.617928,-1.25449 -1.331215,-1.22502 -1.472708,-2.50983 -0.136099,-1.27984 0.940132,-2.44937 0.709216,-0.77069 1.642151,-0.89757 0.932935,-0.12687 1.888429,0.41397 z m 1.183278,-2.08625 q -0.575311,0.62518 -0.509631,1.33259 0.07106,0.71236 0.77709,1.36207 0.70063,0.64474 1.416435,0.65647 0.721192,0.0167 1.296503,-0.60849 0.575311,-0.62518 0.498865,-1.34251 -0.07107,-0.71237 -0.771696,-1.35711 -0.706031,-0.64971 -1.421829,-0.66144 -0.710426,-0.007 -1.285737,0.61842 z m -12.35396,-1.97241 1.778537,1.63666 5.648957,-6.13865 -2.291924,-1.39244 0.912564,-0.99167 2.281145,1.38253 1.088679,1.00183 -6.561515,7.13032 1.778537,1.63666 -0.84313,0.91622 -4.634979,-4.26524 z m 489.231303,110.8528 7.03124,0.0136 -0.001,0.62988 -3.98968,10.29747 -1.54541,-0.003 3.75411,-9.6827 -5.25145,-0.0102 z m -8.92885,9.67267 2.417,0.005 0.0161,-8.34227 -2.63041,0.52225 0.003,-1.34766 2.61576,-0.52227 1.47949,0.003 -0.0188,9.68993 2.41699,0.005 -0.002,1.24511 -6.29882,-0.0122 z m -364.46702,-95.2978 7.03124,0.0136 -0.001,0.62988 -3.98968,10.29747 -1.54541,-0.003 3.75411,-9.68269 -5.25145,-0.0102 z m -8.92888,9.67267 2.417,0.005 0.0162,-8.34227 -2.63041,0.52225 0.003,-1.34765 2.61576,-0.52228 1.47949,0.003 -0.0188,9.68992 2.41699,0.005 -0.002,1.24512 -6.29882,-0.0122 z m 158.11734,-6.89351 q 0.002,-0.9961 -0.67809,-1.58336 -0.68004,-0.57992 -1.86655,-0.58222 -1.1792,-0.002 -1.8688,0.57499 -0.68228,0.58462 -0.68421,1.58072 -0.002,0.99609 0.6781,1.57601 0.68734,0.58728 1.86654,0.58956 1.18652,0.002 1.86881,-0.58232 0.68227,-0.57729 0.6842,-1.57338 z m 4.63053,2.94598 -1.34766,-0.003 q 0.26475,-0.55612 0.40502,-1.12714 0.14025,-0.5637 0.14133,-1.12034 0.003,-1.46484 -0.98443,-2.24312 -0.98728,-0.77096 -2.98657,-0.88469 0.63637,0.43335 0.97202,1.08587 0.34297,0.65251 0.34145,1.43621 -0.003,1.64795 -1.00845,2.59814 -0.99795,0.95755 -2.71913,0.95422 -1.68457,-0.003 -2.70071,-1.00133 -1.01613,-0.99806 -1.01292,-2.65333 0.004,-1.89698 1.4558,-2.89758 1.45946,-1.00059 4.22069,-0.99524 2.59276,0.005 4.12847,1.23846 1.54302,1.23345 1.53901,3.30621 -10e-4,0.55664 -0.11203,1.12038 -0.11098,0.57108 -0.33189,1.18589 z m -9.41807,-15.58607 -0.005,2.41698 8.34226,0.0162 -0.52225,-2.63041 1.34765,0.003 0.52229,2.61576 -0.003,1.47948 -9.68992,-0.0188 -0.005,2.41699 -1.24512,-0.002 0.0122,-6.29882 z m -37.17204,-18.41493 q -0.73557,0.67166 -0.70898,1.56976 0.032,0.89315 0.83208,1.76936 0.79512,0.87079 1.68664,0.98906 0.89199,0.10791 1.62757,-0.56375 0.73558,-0.67166 0.70357,-1.56481 -0.0315,-0.90352 -0.82666,-1.77432 -0.80006,-0.8762 -1.69205,-0.98411 -0.88658,-0.11285 -1.62217,0.55881 z m -0.95729,-5.4041 0.90871,0.9952 q -0.58885,0.18062 -1.10456,0.46308 -0.5103,0.2775 -0.92136,0.65284 -1.08174,0.98774 -0.98834,2.2414 0.0988,1.24874 1.36593,2.79939 -0.11055,-0.76194 0.14365,-1.45028 0.24925,-0.69375 0.82798,-1.22219 1.21695,-1.1112 2.59668,-1.01223 1.38019,0.0886 2.54077,1.35965 1.1359,1.244 1.08679,2.66746 -0.0491,1.42346 -1.27146,2.53961 -1.40085,1.27911 -3.1197,0.88479 -1.72378,-0.39973 -3.58566,-2.43881 -1.74828,-1.91466 -1.87674,-3.88019 -0.1334,-1.97092 1.39725,-3.36856 0.41107,-0.37535 0.90162,-0.67449 0.49595,-0.30408 1.09844,-0.55667 z m -5.12542,17.47445 1.78487,-1.62975 -5.62514,-6.16049 -1.58613,2.16241 -0.90871,-0.9952 1.57531,-2.15252 1.09255,-0.99761 6.53385,7.15568 1.78487,-1.62977 0.83957,0.91948 -4.65146,4.24725 z m 112.97245,9.77153 0.0113,-5.8081 1.24512,0.002 -0.009,4.45312 2.68066,0.005 q -0.10924,-0.32248 -0.15988,-0.64484 -0.058,-0.32238 -0.0574,-0.64464 0.004,-1.83106 1.00904,-2.89845 1.00549,-1.06739 2.71935,-1.06407 1.76513,0.003 2.74445,1.10395 0.97199,1.10051 0.96812,3.10003 -10e-4,0.68847 -0.11991,1.40602 -0.11857,0.71022 -0.35441,1.47148 l -1.48682,-0.003 q 0.36017,-0.65849 0.53731,-1.36127 0.17714,-0.70278 0.17866,-1.48647 0.002,-1.26709 -0.66262,-2.00812 -0.66507,-0.74104 -1.80764,-0.74325 -1.14258,-0.002 -1.81052,0.73624 -0.66793,0.73845 -0.67038,2.00554 -0.001,0.59326 0.12954,1.18678 0.13069,0.58619 0.40782,1.20196 z m 9.67192,9.31708 0.005,-2.41698 -8.34228,-0.0162 0.52226,2.63041 -1.34766,-0.003 -0.52227,-2.61577 0.003,-1.47948 9.68992,0.0188 0.005,-2.41698 1.24512,0.002 -0.0122,6.29882 z m 47.43978,-28.12401 4.27389,3.93295 -0.84313,0.91622 -3.27683,-3.01543 -1.8152,1.97256 q 0.31154,0.13738 0.58339,0.31787 0.27682,0.17511 0.51395,0.39332 1.34738,1.2399 1.45479,2.70237 0.1074,1.46245 -1.05314,2.7236 -1.19525,1.29887 -2.66826,1.27713 -1.46805,-0.0271 -2.93939,-1.3811 -0.50661,-0.46619 -0.95543,-1.03847 -0.44344,-0.56731 -0.84523,-1.25556 l 1.0068,-1.09408 q 0.24203,0.71045 0.64039,1.31592 0.39837,0.60547 0.97505,1.13614 0.93238,0.85801 1.92804,0.86848 0.99566,0.0105 1.76935,-0.83029 0.7737,-0.84077 0.68067,-1.83213 -0.093,-0.99136 -1.02539,-1.84937 -0.43655,-0.40172 -0.96238,-0.70644 -0.52043,-0.29975 -1.16161,-0.51156 z m -13.40367,0.83398 1.77853,1.63666 5.64895,-6.13865 -2.29191,-1.39244 0.91256,-0.99168 2.28115,1.38253 1.08867,1.00183 -6.56151,7.13032 1.77854,1.63666 -0.84313,0.91622 -4.63498,-4.26523 z M 343.71035,267.2379 l -5.83016,-3.74664 -0.007,3.73534 z m 1.28982,-0.38569 -0.004,1.86036 -7.12645,-0.0138 -0.003,1.56004 -1.23047,-0.002 0.003,-1.56005 -2.57812,-0.005 0.003,-1.47217 2.57812,0.005 0.01,-4.93652 1.42823,0.003 z m -9.66484,-12.97917 -0.005,2.41699 8.34228,0.0161 -0.52225,-2.63041 1.34765,0.003 0.52228,2.61576 -0.003,1.4795 -9.68993,-0.0188 -0.005,2.41699 -1.2451,-0.002 0.0122,-6.29882 z m -49.20242,26.38652 6.61066,-2.08024 -2.86491,-2.39689 z m -0.52944,1.23776 -1.42684,-1.19375 4.57291,-5.46581 -1.19652,-1.00105 0.78956,-0.94374 1.19653,1.00106 1.65433,-1.97735 1.12911,0.94466 -1.65433,1.97735 3.78618,3.16766 -0.91646,1.09541 z m 16.15813,0.88451 -1.85377,-1.55093 -5.35307,6.39831 2.35506,1.28276 -0.86477,1.03362 -2.34382,-1.27337 -1.13472,-0.94936 6.21783,-7.43192 -1.85377,-1.55094 0.79896,-0.95497 4.83104,4.04183 z M 554.47421,170.8374 q -1.06157,-0.22911 -1.65344,-0.94803 -0.59919,-0.71893 -0.59715,-1.77362 0.003,-1.61865 1.11813,-2.50272 1.11499,-0.88407 3.16577,-0.8801 0.68848,10e-4 1.42063,0.14191 0.72484,0.13324 1.50067,0.40574 l -0.003,1.42822 q -0.61454,-0.36008 -1.3466,-0.5446 -0.73206,-0.18453 -1.5304,-0.18608 -1.39161,-0.003 -2.11776,0.54522 -0.73349,0.5479 -0.73552,1.59526 -0.002,0.9668 0.67823,1.51011 0.67277,0.55062 1.88126,0.55296 l 1.27441,0.002 -0.002,1.21582 -1.33301,-0.003 q -1.09131,-0.002 -1.67075,0.42888 -0.57947,0.43834 -0.58106,1.25865 -0.002,0.84229 0.59809,1.29022 0.59238,0.45525 1.70566,0.4574 0.60791,0.001 1.30396,-0.1293 0.69606,-0.13049 1.53155,-0.4072 l -0.003,1.31836 q -0.84273,0.23275 -1.57538,0.34851 -0.73997,0.11576 -1.39182,0.1145 -1.68457,-0.003 -2.66453,-0.77421 -0.97997,-0.76362 -0.97745,-2.06732 0.002,-0.9082 0.523,-1.53708 0.52123,-0.62155 1.48117,-0.86139 z m 13.77509,-4.62421 -2.41698,-0.005 -0.0162,8.34227 2.63041,-0.52225 -0.003,1.34765 -2.61576,0.52228 -1.47949,-0.003 0.0188,-9.68993 -2.41698,-0.005 0.002,-1.24511 6.29882,0.0122 z m -387.49886,88.80184 q -1.06157,-0.22911 -1.65343,-0.94803 -0.5992,-0.71893 -0.59716,-1.77362 0.003,-1.61865 1.11813,-2.50272 1.115,-0.88407 3.16578,-0.8801 0.68847,0.001 1.42063,0.14191 0.72483,0.13323 1.50067,0.40574 l -0.003,1.42821 q -0.61454,-0.36008 -1.34661,-0.54459 -0.73206,-0.18453 -1.5304,-0.18608 -1.3916,-0.003 -2.11776,0.54522 -0.73349,0.5479 -0.73551,1.59526 -0.002,0.9668 0.67822,1.51011 0.67277,0.55062 1.88127,0.55296 l 1.2744,0.002 -0.002,1.21582 -1.33301,-0.003 q -1.0913,-0.002 -1.67075,0.42889 -0.57946,0.43834 -0.58105,1.25865 -0.002,0.84229 0.59808,1.29022 0.59239,0.45525 1.70567,0.4574 0.60791,0.001 1.30396,-0.1293 0.69606,-0.1305 1.53155,-0.4072 l -0.003,1.31836 q -0.84273,0.23275 -1.57539,0.34851 -0.73996,0.11576 -1.39182,0.11449 -1.68457,-0.003 -2.66452,-0.7742 -0.97997,-0.76362 -0.97745,-2.06732 0.002,-0.9082 0.523,-1.53708 0.52123,-0.62156 1.48116,-0.86139 z m 13.77505,-4.62421 -2.41698,-0.005 -0.0162,8.34226 2.63041,-0.52224 -0.003,1.34764 -2.61576,0.52229 -1.47949,-0.003 0.0188,-9.68992 -2.41698,-0.005 0.002,-1.24512 6.29882,0.0122 z m 220.21573,5.62524 0.01,-5.16356 1.24511,0.002 -0.0134,6.94335 -1.2451,-0.002 q -0.86996,-0.84398 -2.33199,-2.297 -1.46935,-1.46037 -1.89342,-1.83473 -0.79696,-0.712 -1.34574,-0.99138 -0.55609,-0.28672 -1.09076,-0.28775 -0.87158,-0.002 -1.42209,0.61247 -0.55048,0.60685 -0.55238,1.5883 -10e-4,0.69579 0.23884,1.47263 0.24021,0.76951 0.72923,1.64937 l -1.49414,-0.003 q -0.35715,-0.89425 -0.53875,-1.67097 -0.18161,-0.77672 -0.18036,-1.42126 0.003,-1.6992 0.85486,-2.70831 0.85156,-1.00909 2.27246,-1.00634 0.67383,0.001 1.28124,0.25884 0.6001,0.25018 1.41913,0.91828 0.21204,0.18351 1.2282,1.16693 1.00885,0.98339 2.82911,2.77403 z m -0.0204,10.55806 0.005,-2.41699 -8.34228,-0.0161 0.52226,2.63041 -1.34766,-0.003 -0.52227,-2.61577 0.003,-1.47949 9.68992,0.0188 0.005,-2.41699 1.24511,0.002 -0.0122,6.29882 z m 35.01712,14.82228 -3.97313,3.298 -0.79527,-0.95806 5.34259,-4.43475 0.79526,0.95806 q -0.0914,1.2086 -0.27167,3.26198 -0.18121,2.06369 -0.1973,2.62913 -0.0367,1.06805 0.0999,1.66849 0.13573,0.61075 0.47723,1.02215 0.55668,0.67064 1.38093,0.70036 0.81861,0.0344 1.57378,-0.59245 0.53539,-0.44441 0.97839,-1.12626 0.43737,-0.67716 0.80022,-1.61611 l 0.95432,1.14967 q -0.45834,0.84686 -0.93876,1.48362 -0.48043,0.63676 -0.97636,1.04842 -1.30747,1.0853 -2.62783,1.07714 -1.32038,-0.008 -2.22791,-1.10148 -0.43038,-0.51848 -0.6214,-1.14997 -0.19199,-0.62118 -0.20308,-1.67807 0.005,-0.28038 0.11016,-1.69059 0.10961,-1.40457 0.31989,-3.94928 z m 8.12392,-6.74348 -1.85977,1.54375 5.32825,6.41899 1.68639,-2.08517 0.86075,1.03696 -1.67511,2.07581 -1.1384,0.94496 -6.189,-7.45595 -1.85976,1.54374 -0.79526,-0.95806 4.84665,-4.02309 z m 221.37117,-108.22563 -2.417,-0.005 -0.0162,8.34227 2.63041,-0.52225 -0.003,1.34765 -2.61576,0.52229 -1.47949,-0.003 0.0188,-9.68992 -2.41699,-0.005 0.002,-1.24512 6.29882,0.0122 z m 9.54002,0.0185 -2.417,-0.005 -0.0161,8.34226 2.63042,-0.52224 -0.003,1.34765 -2.61577,0.52228 -1.47949,-0.003 0.0188,-9.68993 -2.41699,-0.005 0.002,-1.24512 6.29882,0.0122 z m -611.764981,113.54119 -1.859759,1.54374 5.328249,6.41899 1.686376,-2.08516 0.860756,1.03696 -1.675111,2.07581 -1.138397,0.94496 -6.189005,-7.45595 -1.859759,1.54374 -0.795264,-0.95806 4.84665,-4.02309 z m 7.340576,-6.09324 -1.859759,1.54375 5.328249,6.41898 1.686376,-2.08516 0.860756,1.03696 -1.675104,2.07581 -1.138405,0.94496 -6.189005,-7.45595 -1.859758,1.54374 -0.795264,-0.95806 4.84665,-4.02309 z M 760.32698,175.29945 q 1.14258,0.002 1.72337,-1.12459 0.57346,-1.11951 0.57783,-3.37535 0.004,-2.24854 -0.56475,-3.37757 -0.57644,-1.12172 -1.71902,-1.12393 -1.1499,-0.002 -1.72336,1.11726 -0.5808,1.12681 -0.58515,3.37534 -0.004,2.25585 0.57208,3.37758 0.5691,1.12903 1.719,1.13126 z m -0.002,1.17188 q -1.83838,-0.004 -2.80235,-1.46295 -0.97131,-1.45209 -0.96595,-4.22063 0.005,-2.76123 0.98229,-4.21686 0.9696,-1.44832 2.80798,-1.44476 1.83838,0.004 2.80969,1.45564 0.96397,1.45939 0.95862,4.22062 -0.005,2.76854 -0.97496,4.21687 -0.97694,1.45563 -2.81532,1.45207 z m 12.46654,-9.86358 -2.41698,-0.005 -0.0162,8.34227 2.63041,-0.52225 -0.003,1.34766 -2.61576,0.52227 -1.47948,-0.003 0.0188,-9.68992 -2.41699,-0.005 0.002,-1.24511 6.29882,0.0122 z M 55.205803,349.6831 q 0.0022,-1.14258 -1.124595,-1.72337 -1.119496,-0.57346 -3.375352,-0.57783 -2.248531,-0.004 -3.377565,0.56475 -1.121724,0.57644 -1.123936,1.71901 -0.0022,1.1499 1.117269,1.72336 1.126808,0.5808 3.375338,0.58516 2.255856,0.004 3.37758,-0.57208 1.129034,-0.56911 1.131261,-1.719 z m 1.171873,0.002 q -0.0036,1.83837 -1.46295,2.80235 -1.452079,0.97131 -4.220629,0.96595 -2.761224,-0.005 -4.216855,-0.98229 -1.44832,-0.96961 -1.44476,-2.80799 0.0036,-1.83837 1.455639,-2.80968 1.459389,-0.96398 4.220614,-0.95863 2.76855,0.005 4.21687,0.97497 1.455631,0.97694 1.452071,2.81532 z m -9.863572,-12.46658 -0.0047,2.41699 8.342271,0.0161 -0.522251,-2.6304 1.347653,0.003 0.52228,2.61575 -0.0029,1.47949 -9.689924,-0.0188 -0.0047,2.417 -1.245115,-0.002 0.0122,-6.29882 z m 633.812326,-90.36021 0.003,-1.34765 q 0.55613,0.26475 1.12715,0.40502 0.57102,0.14026 1.12034,0.14133 1.46484,0.003 2.23578,-0.97713 0.77828,-0.98725 0.89203,-2.99387 -0.42602,0.62905 -1.07853,0.96471 -0.6525,0.33565 -1.44352,0.33411 -1.64062,-0.003 -2.59817,-0.9938 -0.95022,-0.99793 -0.94689,-2.71912 0.003,-1.68456 1.00132,-2.7007 0.99807,-1.01614 2.65334,-1.01294 1.89697,0.004 2.89023,1.46312 1.00061,1.45214 0.99525,4.22069 -0.005,2.58544 -1.23847,4.12847 -1.22611,1.53572 -3.29886,1.5317 -0.55664,-10e-4 -1.12772,-0.11205 -0.57107,-0.11097 -1.18589,-0.33189 z m 2.95332,-4.63052 q 0.99609,0.002 1.57602,-0.6781 0.58725,-0.68001 0.58955,-1.86653 0.002,-1.1792 -0.58233,-1.86149 -0.57728,-0.68959 -1.57337,-0.69152 -0.9961,-0.002 -1.58336,0.68541 -0.57994,0.68003 -0.58222,1.85923 -0.002,1.18652 0.575,1.86879 0.58461,0.68228 1.58071,0.68421 z m -10.61455,37.33039 -0.86476,1.03362 q -0.25774,-0.55942 -0.6066,-1.03273 -0.34886,-0.47331 -0.77018,-0.8258 -1.12349,-0.93996 -2.34311,-0.6807 -1.22992,0.26019 -2.60193,1.72887 0.73,-0.21051 1.44615,-0.0506 0.71615,0.15989 1.32283,0.66746 1.25832,1.05276 1.35973,2.42679 0.0911,1.37495 -1.01335,2.69506 -1.08096,1.29202 -2.4982,1.43368 -1.41726,0.14165 -2.6868,-0.9205 -1.45493,-1.21725 -1.28365,-2.9743 0.16097,-1.75614 1.93749,-3.87954 1.65903,-1.98297 3.59442,-2.37869 1.92509,-0.39481 3.51483,0.93524 0.42693,0.35718 0.79459,0.80803 0.36767,0.45085 0.69854,1.01415 z m -5.2332,1.66655 q -0.76398,-0.63918 -1.64484,-0.48803 -0.88648,0.14643 -1.64784,1.05646 -0.75667,0.90442 -0.74436,1.80283 0.002,0.89932 0.76599,1.5385 0.76397,0.63917 1.65515,0.48712 0.88086,-0.15115 1.63753,-1.05556 0.76137,-0.91003 0.75467,-1.80374 -0.0123,-0.89841 -0.7763,-1.53758 z m 99.87087,-39.16306 q -1.05468,-0.002 -1.66369,0.56075 -0.60167,0.56279 -0.60359,1.55156 -0.002,0.98877 0.59757,1.5539 0.60683,0.56514 1.66151,0.56718 1.05469,0.002 1.66369,-0.56074 0.60901,-0.57011 0.61091,-1.55156 0.002,-0.98877 -0.6049,-1.5539 -0.5995,-0.56514 -1.6615,-0.56719 z m -1.47827,-0.63275 q -0.95169,-0.23622 -1.4851,-0.8891 -0.52608,-0.65288 -0.52426,-1.59038 0.003,-1.31103 0.93419,-2.07095 0.93897,-0.7599 2.56494,-0.75675 1.6333,0.003 2.562,0.76668 0.92869,0.76352 0.92615,2.07455 -0.002,0.9375 -0.53773,1.58832 -0.52861,0.65083 -1.47389,0.88338 1.06885,0.25109 1.66071,0.97734 0.59918,0.72626 0.59715,1.77362 -0.003,1.58935 -0.97884,2.43708 -0.96844,0.84773 -2.77752,0.84423 -1.80908,-0.004 -2.78155,-0.855 -0.96515,-0.85148 -0.96208,-2.44084 0.002,-1.04736 0.60403,-1.77129 0.60198,-0.72394 1.6718,-0.97089 z m -0.53746,-2.33747 q -0.002,0.84961 0.52477,1.32671 0.53374,0.4771 1.49321,0.47896 0.95215,0.002 1.48774,-0.47319 0.54291,-0.47503 0.54456,-1.32464 0.002,-0.84961 -0.53942,-1.32672 -0.53375,-0.47711 -1.4859,-0.47895 -0.95947,-0.002 -1.49506,0.47317 -0.52826,0.47505 -0.5299,1.32466 z m -66.00606,104.73536 q -0.002,1.05469 0.56074,1.66369 0.56281,0.60168 1.55158,0.60359 0.98876,0.002 1.55389,-0.59758 0.56514,-0.60681 0.56718,-1.6615 0.002,-1.05468 -0.56074,-1.66368 -0.57012,-0.60902 -1.55155,-0.61092 -0.98877,-0.002 -1.55392,0.6049 -0.56512,0.59949 -0.56718,1.6615 z m -0.63275,1.47828 q -0.23621,0.95168 -0.88911,1.48509 -0.65287,0.52608 -1.59037,0.52427 -1.31103,-0.003 -2.07094,-0.93419 -0.7599,-0.93898 -0.75676,-2.56495 0.003,-1.6333 0.76669,-2.56199 0.76351,-0.92871 2.07454,-0.92617 0.9375,0.002 1.58832,0.53775 0.65083,0.5286 0.88337,1.47388 0.2511,-1.06885 0.97735,-1.66071 0.72625,-0.59918 1.77362,-0.59715 1.58935,0.003 2.43707,0.97885 0.84774,0.96843 0.84423,2.77751 -0.003,1.80908 -0.855,2.78156 -0.85148,0.96514 -2.44082,0.96206 -1.04737,-0.002 -1.7713,-0.60401 -0.72393,-0.60199 -0.97089,-1.6718 z m -2.33747,0.53746 q 0.84961,0.002 1.3267,-0.52478 0.47712,-0.53374 0.47897,-1.49322 0.002,-0.95213 -0.47319,-1.48773 -0.47502,-0.54291 -1.32463,-0.54455 -0.84961,-0.002 -1.32673,0.53942 -0.47711,0.53375 -0.47896,1.48589 -0.002,0.95947 0.47319,1.49505 0.47505,0.52828 1.32465,0.52992 z m -528.68129,50.02626 -7.03124,-0.0136 0.001,-0.62989 3.98968,-10.29746 1.54541,0.003 -3.75411,9.68269 5.25145,0.0102 z m -45.76972,-41.36765 0.0136,-7.03124 0.62989,10e-4 10.29747,3.98967 -0.003,1.54541 -9.68268,-3.75411 -0.0102,5.25146 z M 89.985479,460.62581 q -0.996092,-0.002 -1.583347,0.67809 -0.579932,0.68003 -0.58223,1.86655 -0.0023,1.1792 0.574996,1.8688 0.584617,0.68228 1.580709,0.68421 0.996093,0.002 1.576024,-0.6781 0.587269,-0.68734 0.589552,-1.86654 0.0023,-1.18652 -0.582319,-1.8688 -0.577292,-0.68228 -1.573385,-0.68421 z m 2.945985,-4.63054 -0.0026,1.34766 q -0.55613,-0.26475 -1.127148,-0.40501 -0.563695,-0.14025 -1.120335,-0.14133 -1.46484,-0.003 -2.243121,0.98443 -0.770956,0.98728 -0.884692,2.98657 0.433363,-0.63637 1.08587,-0.97202 0.65252,-0.34298 1.43621,-0.34146 1.647947,0.003 2.59815,1.00845 0.957542,0.99795 0.954209,2.71914 -0.0033,1.68456 -1.001326,2.7007 -0.998064,1.01613 -2.653334,1.01293 -1.896969,-0.004 -2.897577,-1.45581 -1.000594,-1.45946 -0.995246,-4.22068 0.005,-2.59277 1.238466,-4.12847 1.23346,-1.54303 3.30621,-1.53901 0.556639,0.001 1.12039,0.11203 0.571075,0.11097 1.185883,0.33188 z M 661.80602,376.83469 q -0.9961,-0.002 -1.58336,0.67808 -0.57992,0.68003 -0.58222,1.86656 -0.002,1.17919 0.57499,1.86879 0.58462,0.68228 1.58072,0.68421 0.99609,0.002 1.57601,-0.6781 0.58728,-0.68734 0.58956,-1.86653 0.002,-1.18653 -0.58232,-1.86881 -0.57729,-0.68227 -1.57338,-0.6842 z m 2.94598,-4.63054 -0.003,1.34765 q -0.55613,-0.26475 -1.12714,-0.40501 -0.5637,-0.14025 -1.12034,-0.14133 -1.46484,-0.003 -2.24312,0.98443 -0.77096,0.98727 -0.88469,2.98657 0.43335,-0.63637 1.08587,-0.97202 0.65252,-0.34298 1.43621,-0.34146 1.64795,0.003 2.59814,1.00845 0.95755,0.99795 0.95422,2.71915 -0.003,1.68456 -1.00133,2.70069 -0.99806,1.01614 -2.65333,1.01294 -1.89698,-0.004 -2.89758,-1.45582 -1.00059,-1.45946 -0.99525,-4.22068 0.005,-2.59277 1.23847,-4.12847 1.23345,-1.54303 3.30621,-1.53901 0.55664,0.001 1.12038,0.11204 0.57108,0.11096 1.18589,0.33188 z m -501.44239,83.68563 5.80809,0.0113 -0.002,1.24511 -4.45312,-0.009 -0.005,2.68065 q 0.32249,-0.10923 0.64484,-0.15988 0.32239,-0.058 0.64465,-0.0574 1.83105,0.004 2.89844,1.00904 1.06739,1.00547 1.06407,2.71934 -0.003,1.76514 -1.10394,2.74445 -1.10053,0.97199 -3.10003,0.96812 -0.68848,-0.001 -1.40602,-0.11991 -0.71023,-0.11856 -1.47149,-0.35442 l 0.003,-1.4868 q 0.65848,0.36015 1.36127,0.53729 0.70278,0.17715 1.48647,0.17867 1.26709,0.002 2.00812,-0.66262 0.74104,-0.66507 0.74326,-1.80764 0.002,-1.14258 -0.73625,-1.81051 -0.73846,-0.66794 -2.00554,-0.6704 -0.59326,-10e-4 -1.18678,0.12954 -0.58619,0.13071 -1.20196,0.40784 z m 464.52546,-104.61553 -0.0113,5.80809 -1.24512,-0.002 0.009,-4.45311 -2.68065,-0.005 q 0.10924,0.32248 0.15988,0.64484 0.058,0.32238 0.0574,0.64464 -0.004,1.83106 -1.00903,2.89844 -1.00549,1.0674 -2.71936,1.06408 -1.76512,-0.003 -2.74445,-1.10395 -0.97199,-1.10052 -0.96811,-3.10003 0.001,-0.68848 0.11991,-1.40602 0.11856,-0.71022 0.35441,-1.47149 l 1.48682,0.003 q -0.36017,0.65849 -0.53731,1.36127 -0.17714,0.70278 -0.17866,1.48647 -0.002,1.26709 0.66261,2.00813 0.66507,0.74104 1.80765,0.74325 1.14258,0.002 1.81051,-0.73625 0.66794,-0.73845 0.67039,-2.00554 0.001,-0.59326 -0.12954,-1.18677 -0.1307,-0.5862 -0.40782,-1.20197 z m 121.82239,225.9001 -3.74665,5.83016 3.73535,0.007 z m -0.38568,-1.28981 1.86034,0.004 -0.0138,7.12645 1.56006,0.003 -0.002,1.23046 -1.56006,-0.003 -0.005,2.57812 -1.47217,-0.003 0.005,-2.57812 -4.93651,-0.01 0.003,-1.42822 z m -24.51219,49.97007 6.82944,-1.1777 -2.51872,-2.75842 z m -0.69018,1.15586 -1.25442,-1.3738 5.26265,-4.80533 -1.05194,-1.15205 0.90866,-0.82969 1.05194,1.15205 1.90385,-1.73841 0.99267,1.08715 -1.90385,1.7384 3.32866,3.64545 -1.0547,0.96304 z m -50.84338,51.54782 q 0.54844,0.93736 0.41842,1.85945 -0.12508,0.9275 -0.90393,1.63867 -1.19531,1.09144 -2.60044,0.8669 -1.40513,-0.22454 -2.78796,-1.73897 -0.46423,-0.50841 -0.85533,-1.14312 -0.39157,-0.62435 -0.71495,-1.3804 l 1.05469,-0.96304 q 0.14983,0.69632 0.50848,1.36066 0.35865,0.66433 0.89696,1.25388 0.93834,1.02764 1.83292,1.19271 0.89952,0.17046 1.67296,-0.53577 0.71395,-0.6519 0.65489,-1.52037 -0.0487,-0.868 -0.86359,-1.76043 l -0.85932,-0.94111 0.89784,-0.81982 0.89884,0.98439 q 0.73586,0.80589 1.44512,0.94179 0.71468,0.13096 1.32045,-0.42217 0.622,-0.56794 0.54696,-1.31271 -0.0647,-0.7443 -0.81537,-1.56642 -0.40991,-0.44892 -0.97644,-0.87385 -0.56653,-0.42493 -1.33507,-0.85385 l 0.97356,-0.88896 q 0.74103,0.46397 1.32144,0.92582 0.58534,0.46725 1.02488,0.94863 1.13589,1.24399 1.22976,2.48731 0.0993,1.23839 -0.86347,2.11747 -0.67067,0.61239 -1.48646,0.6531 -0.81039,0.0358 -1.63584,-0.50979 z m -43.23675,11.75477 q 0.22911,-1.06158 0.94804,-1.65345 0.71893,-0.59919 1.77362,-0.59714 1.61864,0.003 2.50272,1.11813 0.88407,1.11499 0.8801,3.16577 -10e-4,0.68847 -0.14191,1.42062 -0.13325,0.72485 -0.40574,1.50068 l -1.42823,-0.003 q 0.36008,-0.61453 0.54461,-1.34659 0.18452,-0.73207 0.18607,-1.53041 0.003,-1.3916 -0.54521,-2.11776 -0.54791,-0.73349 -1.59526,-0.73552 -0.9668,-0.002 -1.51011,0.67824 -0.55062,0.67276 -0.55296,1.88125 l -0.002,1.27442 -1.21582,-0.002 0.003,-1.33301 q 0.002,-1.09131 -0.42889,-1.67076 -0.43833,-0.57947 -1.25864,-0.58105 -0.84229,-0.002 -1.29023,0.59809 -0.45525,0.59238 -0.45741,1.70566 -0.001,0.60791 0.12932,1.30396 0.13048,0.69605 0.40718,1.53155 l -1.31835,-0.003 q -0.23274,-0.84273 -0.34851,-1.57538 -0.11576,-0.73998 -0.1145,-1.39182 0.003,-1.68458 0.77421,-2.66453 0.76362,-0.97997 2.06733,-0.97745 0.9082,0.002 1.53707,0.523 0.62155,0.52122 0.86139,1.48117 z m -142.68225,1.61571 -0.01,5.16357 -1.24512,-0.002 0.0134,-6.94335 1.24511,0.002 q 0.86995,0.84397 2.33198,2.297 1.46934,1.46037 1.89343,1.83472 0.79696,0.712 1.34573,0.99138 0.55609,0.28673 1.09076,0.28776 0.87158,0.002 1.42209,-0.61249 0.55049,-0.60684 0.55239,-1.58828 10e-4,-0.6958 -0.23884,-1.47263 -0.24021,-0.76951 -0.72924,-1.64937 l 1.49415,0.003 q 0.35714,0.89426 0.53875,1.67097 0.1816,0.77672 0.18035,1.42125 -0.003,1.69922 -0.85486,2.70831 -0.85156,1.00911 -2.27245,1.00635 -0.67383,-10e-4 -1.28124,-0.25883 -0.60011,-0.25019 -1.41913,-0.91828 -0.21204,-0.18352 -1.22821,-1.16693 -1.00884,-0.9834 -2.8291,-2.77404 z m -113.67907,-14.94625 5.16357,0.01 -0.002,1.24512 -6.94335,-0.0135 0.002,-1.24512 q 0.84397,-0.86994 2.297,-2.33198 1.46037,-1.46934 1.83472,-1.89342 0.712,-0.79697 0.99138,-1.34574 0.28673,-0.55608 0.28776,-1.09075 0.002,-0.87158 -0.61248,-1.42209 -0.60685,-0.5505 -1.58829,-0.5524 -0.6958,-10e-4 -1.47263,0.23885 -0.76951,0.24021 -1.64937,0.72923 l 0.003,-1.49414 q 0.89425,-0.35715 1.67096,-0.53875 0.77673,-0.1816 1.42125,-0.18035 1.69922,0.003 2.70831,0.85485 1.0091,0.85156 1.00635,2.27246 -0.001,0.67383 -0.25883,1.28124 -0.25019,0.60011 -0.91828,1.41912 -0.18352,0.21205 -1.16693,1.22822 -0.9834,1.00883 -2.77404,2.8291 z m 2.87662,-458.05222 -2.41699,-0.005 -0.0162,8.34228 2.63042,-0.52225 -0.003,1.34765 -2.61577,0.52228 -1.47949,-0.003 0.0188,-9.68993 -2.41699,-0.005 0.002,-1.24511 6.29881,0.0122 z m 111.74433,-14.56385 -0.005,2.41698 8.34227,0.0162 -0.52225,-2.63041 1.34766,0.003 0.52227,2.61577 -0.003,1.47948 -9.68992,-0.0188 -0.005,2.41699 -1.24512,-0.002 0.0122,-6.29881 z M 55.05929,426.65391 q 0.0022,-1.14258 -1.124594,-1.72337 -1.119497,-0.57346 -3.375353,-0.57783 -2.24853,-0.004 -3.377564,0.56475 -1.121724,0.57644 -1.123937,1.71901 -0.0022,1.1499 1.117271,1.72336 1.126806,0.58079 3.375337,0.58515 2.255856,0.004 3.377579,-0.57207 1.129034,-0.56911 1.131261,-1.719 z m 1.171873,0.002 q -0.0036,1.83837 -1.46295,2.80234 -1.452078,0.97132 -4.220628,0.96596 -2.761225,-0.005 -4.216856,-0.9823 -1.44832,-0.9696 -1.44476,-2.80797 0.0036,-1.83838 1.455639,-2.80969 1.45939,-0.96398 4.220615,-0.95863 2.768549,0.005 4.216869,0.97497 1.455631,0.97694 1.452071,2.81532 z M 794.51571,205.36668 q -0.002,1.14258 1.1246,1.72337 1.11949,0.57346 3.37534,0.57783 2.24854,0.004 3.37757,-0.56475 1.12172,-0.57644 1.12393,-1.71902 0.002,-1.1499 -1.11726,-1.72336 -1.12681,-0.58079 -3.37534,-0.58514 -2.25586,-0.004 -3.37758,0.57207 -1.12903,0.5691 -1.13126,1.719 z m -1.17188,-0.002 q 0.004,-1.83838 1.46295,-2.80234 1.45209,-0.97131 4.22063,-0.96595 2.76123,0.005 4.21686,0.98229 1.44832,0.96959 1.44476,2.80797 -0.004,1.83838 -1.45564,2.80969 -1.45939,0.96397 -4.22062,0.95863 -2.76854,-0.005 -4.21687,-0.97497 -1.45563,-0.97694 -1.45207,-2.81532 z" />
    <path
       id="path2906"
       style="fill:none;stroke:#00ff00;stroke-width:1;stroke-linecap:butt;stroke-linejoin:miter;stroke-miterlimit:10;stroke-dasharray:8, 2, 2, 2;stroke-dashoffset:0;stroke-opacity:1"
       d="m 86.443829,248.25629 0.0057,-84.89799 m 215.087411,0.0334 -0.0208,84.90085 m 404.4135,119.20144 84.90195,0.16438 m -594.33013,15.83282 -0.16441,84.89796" />
    <path
       id="path2914"
       style="fill:none;stroke:#800000;stroke-width:1;stroke-linecap:butt;stroke-linejoin:miter;stroke-miterlimit:10;stroke-dasharray:8,8;stroke-dashoffset:0;stroke-opacity:1"
       d="m 86.449538,163.3583 107.543002,0.007 m 4.6e-4,2.3e-4 107.54394,0.0262 m -60.1212,406.96198 0.48271,-249.03567 m -108.02146,248.8273 107.53875,0.20837 m -107.42882,-56.80834 -0.10993,56.59997 m -90.448207,-56.77387 90.558137,0.1739 m 656.55786,1.27419 -0.1414,73.58055 m -175.42764,-17.32187 0.10993,-56.59997 m 90.55713,0.17291 0.17791,-90.55717 m -0.17791,90.55717 -0.14137,73.58455 m 57.24973,62.697 -68.03979,62.12724 M 263.90264,649.64044 111.08532,649.34411 m 594.41611,-61.10838 -68.03879,62.12824 m 0,0 -152.82131,-0.2953 m -152.6989,-62.55648 0.54966,-282.99786 m -0.7281,375.13407 0.17844,-92.13621 m 84.90095,0.16439 0.55065,-282.99887 m -0.55065,282.99887 -84.90095,-0.16439 M 507.9197,321.8322 507.43699,570.86887 m -90.59361,16.80771 -0.17844,92.1362 m -84.17285,-375.29845 84.90194,0.16338 m -84.90194,-0.16338 0.17211,-88.41308 m 152.91952,-52.79251 152.82132,0.29629 M 241.89845,321.31804 134.3597,321.10867 m 283.20245,-104.84401 -0.16812,88.41305 m 68.02528,-56.47102 152.82232,0.29629 m 0.16341,-84.89795 88.41005,0.16814 m 0,0 79.24077,0.15489 m -79.40516,84.74606 -88.40907,-0.17114 m 167.64984,0.32604 -79.24077,-0.1549 m -592.40942,134.6947 62.26018,0.12242 m -62.26018,-0.12242 -90.562131,-0.17287 M 134.0729,468.2698 43.515735,468.0929 m 152.821315,0.2963 -62.26415,-0.1194 m 571.74781,-44.17579 84.90095,0.16339 m -85.07886,90.39378 84.90198,0.16838 M 416.66494,679.81278 331.76399,679.6484 m 0.90021,-463.54715 84.89795,0.16341 m 220.84289,-52.65963 -0.16341,84.89795 m 88.57346,-84.72981 -0.16439,84.90095 m -592.40942,134.6947 -0.16838,84.90098" />
    <path
       id="path4924"
       style="font-size:15px;font-family:'DejaVu Sans';-inkscape-font-specification:DejaVuSans"
       d="m 138.29791,235.82503 5.8081,3.9e-4 -8e-5,1.24512 -4.45312,-3e-4 -1.8e-4,2.68067 q 0.32227,-0.10985 0.64454,-0.1611 0.32226,-0.0586 0.64453,-0.0585 1.83105,1.2e-4 2.90033,1.00361 1.06927,1.00349 1.06915,2.71735 -1.2e-4,1.76514 -1.09882,2.74651 -1.0987,0.97406 -3.09821,0.97392 -0.68848,-4e-5 -1.40624,-0.11728 -0.71044,-0.11724 -1.47215,-0.35166 l 1e-4,-1.48682 q 0.65916,0.35893 1.36228,0.53476 0.70311,0.17583 1.4868,0.17588 1.26709,9e-5 2.00688,-0.66637 0.73979,-0.66645 0.73986,-1.80903 8e-5,-1.14258 -0.73962,-1.80913 -0.7397,-0.66655 -2.00679,-0.66664 -0.59326,-4e-5 -1.18653,0.13175 -0.58595,0.1318 -1.2012,0.41008 z m 0.2363,-61.31737 3.73576,-5.83715 -3.73536,-2.5e-4 z m 0.38811,1.28909 -1.86035,-1.3e-4 4.8e-4,-7.12646 -1.56006,-1e-4 8e-5,-1.23047 1.56006,1e-4 1.7e-4,-2.57812 1.47216,1e-4 -1.7e-4,2.57812 4.93653,3.3e-4 -10e-5,1.42822 z m -45.079355,32.496 q -0.227122,1.062 -0.944935,1.65521 -0.717815,0.60054 -1.772502,0.60047 -1.618653,-1.1e-4 -2.504808,-1.11345 -0.886156,-1.11335 -0.886018,-3.16413 4.6e-5,-0.68847 0.139256,-1.42088 0.131884,-0.72509 0.402933,-1.50144 l 1.428223,9e-5 q -0.358929,0.61521 -0.542083,1.34763 -0.183155,0.7324 -0.183209,1.53074 -9.4e-5,1.3916 0.549175,2.11674 0.549266,0.73246 1.59663,0.73253 0.966796,6e-5 1.508835,-0.68105 0.549361,-0.67379 0.549443,-1.88229 l 8.5e-5,-1.27441 1.21582,8e-5 -8.9e-5,1.33301 q -7.4e-5,1.09131 0.432016,1.66995 0.439415,0.57864 1.259728,0.57869 0.842285,6e-5 1.289102,-0.60049 0.454142,-0.59324 0.454217,-1.70652 4.1e-5,-0.60791 -0.131749,-1.30372 -0.131789,-0.69581 -0.410053,-1.53079 l 1.318359,9e-5 q 0.234319,0.84231 0.351457,1.57474 0.117138,0.73974 0.117094,1.3916 -1.13e-4,1.68457 -0.769222,2.66596 -0.761785,0.9814 -2.065496,0.98131 -0.908203,-6e-5 -1.53805,-0.52012 -0.622524,-0.52006 -0.864159,-1.47955 z m 88.686275,-3.46962 q -8e-5,1.14258 1.12781,1.72126 1.12057,0.57137 3.37643,0.57152 2.24853,1.5e-4 3.3765,-0.57106 1.12065,-0.57854 1.12073,-1.72112 7e-5,-1.1499 -1.1205,-1.72126 -1.12789,-0.57869 -3.37642,-0.57884 -2.25586,-1.5e-4 -3.37651,0.57838 -1.12797,0.57122 -1.12804,1.72112 z m -1.17187,-8e-5 q 1.2e-4,-1.83838 1.45771,-2.80508 1.45025,-0.97402 4.21881,-0.97383 2.76123,1.8e-4 4.21869,0.9744 1.45012,0.96689 1.45,2.80527 -1.3e-4,1.83838 -1.45038,2.8124 -1.45759,0.9667 -4.21882,0.96652 -2.76856,-1.9e-4 -4.21868,-0.96709 -1.45746,-0.97421 -1.45733,-2.81259 z m 64.10693,31.01993 7.03125,0.002 -1.4e-4,0.62988 -3.97202,10.3043 -1.54541,-3.4e-4 3.73751,-9.68912 -5.25147,-0.001 z m 1.12314,-64.90609 q 0.99609,2.2e-4 1.58218,-0.6808 0.57876,-0.68102 0.57902,-1.86755 2.6e-4,-1.17919 -0.57819,-1.8678 -0.58579,-0.68128 -1.58188,-0.6815 -0.99609,-2.2e-4 -1.57486,0.6808 -0.58609,0.68835 -0.58635,1.86754 -2.6e-4,1.18653 0.58552,1.86781 0.57847,0.68128 1.57456,0.6815 z m -2.93804,4.63558 3e-4,-1.34765 q 0.55658,0.26379 1.12784,0.40308 0.56393,0.13929 1.12057,0.13941 1.46485,3.2e-4 2.24143,-0.98827 0.76927,-0.9886 0.87957,-2.98809 -0.43227,0.63712 -1.0842,0.97388 -0.65193,0.3441 -1.43562,0.34392 -1.64795,-3.6e-4 -2.59988,-1.00399 -0.95925,-0.99631 -0.95887,-2.71751 3.8e-4,-1.68457 0.99669,-2.70241 0.99633,-1.01784 2.6516,-1.01748 1.89697,4.2e-4 2.90006,1.45084 1.0031,1.45775 1.00249,4.21898 -5.7e-4,2.59277 -1.23139,4.13058 -1.23081,1.54514 -3.30356,1.54468 -0.55664,-1.2e-4 -1.12058,-0.11012 -0.57127,-0.10998 -1.18645,-0.32985 z m 55.13154,30.86102 0.001,-5.16358 1.24512,2.8e-4 -0.002,6.94336 -1.24512,-2.8e-4 q -0.8714,-0.84247 -2.33592,-2.29299 -1.47184,-1.45785 -1.89657,-1.83148 -0.79818,-0.71062 -1.34743,-0.98906 -0.55658,-0.28578 -1.09125,-0.2859 -0.87158,-1.9e-4 -1.42103,0.61493 -0.54946,0.60779 -0.54968,1.58923 -1.5e-4,0.6958 0.24138,1.47222 0.24153,0.76909 0.73205,1.64811 l -1.49414,-3.3e-4 q -0.35868,-0.89363 -0.54162,-1.67004 -0.18292,-0.77641 -0.18278,-1.42094 3.8e-4,-1.69922 0.85021,-2.70977 0.84982,-1.01055 2.27072,-1.01024 0.67383,1.5e-4 1.28169,0.25664 0.60053,0.24915 1.42069,0.91583 0.21236,0.18316 1.23022,1.16483 1.01052,0.98167 2.83385,2.76918 z m -102.04956,-2.01158 -5.3e-4,2.41699 8.34228,0.002 -0.52676,-2.62952 1.34766,3e-4 0.52676,2.61487 -3.3e-4,1.47949 -9.68994,-0.002 -5.3e-4,2.41699 -1.24512,-2.8e-4 0.001,-6.29882 z m -6.82424,378.26825 -7.03124,-0.0136 0.001,-0.62988 3.98968,-10.29747 1.54541,0.003 -3.75411,9.68269 5.25145,0.0102 z m 370.1103,-4.15923 q 0.99609,0.002 1.58334,-0.67808 0.57993,-0.68003 0.58223,-1.86656 0.002,-1.17918 -0.57499,-1.86878 -0.58462,-0.68229 -1.58071,-0.68422 -0.99609,-0.002 -1.57603,0.6781 -0.58726,0.68735 -0.58954,1.86653 -0.002,1.18653 0.58231,1.86882 0.5773,0.68226 1.57339,0.68419 z m -2.94599,4.63054 0.003,-1.34765 q 0.55613,0.26475 1.12715,0.40501 0.56369,0.14026 1.12033,0.14133 1.46485,0.003 2.24312,-0.98442 0.77096,-0.98728 0.8847,-2.98658 -0.43337,0.63638 -1.08587,0.97202 -0.65252,0.34298 -1.43621,0.34146 -1.64795,-0.003 -2.59815,-1.00845 -0.95754,-0.99795 -0.95421,-2.71915 0.003,-1.68456 1.00132,-2.70069 0.99807,-1.01614 2.65334,-1.01293 1.89697,0.004 2.89758,1.45581 1.00059,1.45946 0.99524,4.22068 -0.005,2.59277 -1.23846,4.12847 -1.23346,1.54303 -3.30621,1.53901 -0.55664,-0.001 -1.1204,-0.11204 -0.57107,-0.11096 -1.18588,-0.33188 z m -370.8378,-274.38775 5.80809,0.0112 -0.002,1.24511 -4.45311,-0.009 -0.005,2.68066 q 0.32247,-0.10924 0.64484,-0.15989 0.32238,-0.058 0.64464,-0.0573 1.83106,0.004 2.89844,1.00903 1.0674,1.00549 1.06408,2.71935 -0.003,1.76514 -1.10395,2.74446 -1.10052,0.97199 -3.10003,0.96812 -0.68848,-10e-4 -1.40602,-0.11992 -0.71022,-0.11856 -1.47149,-0.35441 l 0.003,-1.48682 q 0.65849,0.36017 1.36128,0.53731 0.70277,0.17714 1.48646,0.17866 1.26709,0.002 2.00813,-0.66261 0.74104,-0.66508 0.74325,-1.80766 0.002,-1.14256 -0.73624,-1.8105 -0.73846,-0.66794 -2.00555,-0.67039 -0.59326,-0.001 -1.18677,0.12953 -0.5862,0.13071 -1.20196,0.40784 z m 377.1623,2.01967 -3.74666,5.83016 3.73536,0.007 z m -0.38569,-1.2898 1.86034,0.004 -0.0138,7.12644 1.56006,0.003 -0.002,1.23046 -1.56006,-0.003 -0.005,2.57813 -1.47216,-0.003 0.005,-2.57813 -4.93652,-0.01 0.003,-1.42822 z m -15.14172,19.80261 q -1.06157,-0.22911 -1.65344,-0.94804 -0.5992,-0.71893 -0.59716,-1.77362 0.003,-1.61864 1.11813,-2.50271 1.115,-0.88408 3.16577,-0.88011 0.68848,10e-4 1.42063,0.14192 0.72484,0.13324 1.50069,0.40573 l -0.003,1.42822 q -0.61454,-0.36007 -1.34661,-0.5446 -0.73206,-0.18452 -1.5304,-0.18606 -1.3916,-0.003 -2.11776,0.54521 -0.73348,0.5479 -0.73551,1.59526 -0.002,0.96679 0.67823,1.5101 0.67276,0.55063 1.88125,0.55297 l 1.27442,0.002 -0.002,1.21582 -1.333,-0.003 q -1.09131,-0.002 -1.67076,0.4289 -0.57946,0.43832 -0.58105,1.25863 -0.002,0.84229 0.59809,1.29023 0.59238,0.45525 1.70565,0.45741 0.60791,0.001 1.30398,-0.12932 0.69605,-0.13048 1.53155,-0.40719 l -0.003,1.31836 q -0.84275,0.23274 -1.57539,0.34852 -0.73998,0.11574 -1.39183,0.11448 -1.68456,-0.003 -2.66452,-0.7742 -0.97997,-0.76362 -0.97744,-2.06733 0.002,-0.9082 0.523,-1.53707 0.52122,-0.62155 1.48116,-0.86139 z m 1.42914,238.90048 5.16357,0.01 -0.002,1.24511 -6.94335,-0.0134 0.002,-1.24511 q 0.84397,-0.86996 2.29701,-2.33199 1.46036,-1.46934 1.83472,-1.89342 0.71199,-0.79696 0.99137,-1.34574 0.28673,-0.55609 0.28777,-1.09076 0.002,-0.87157 -0.61249,-1.42208 -0.60685,-0.55049 -1.58828,-0.55239 -0.6958,-10e-4 -1.47264,0.23885 -0.76951,0.24021 -1.64936,0.72922 l 0.003,-1.49413 q 0.89425,-0.35716 1.67097,-0.53876 0.77672,-0.1816 1.42125,-0.18036 1.69921,0.003 2.70831,0.85486 1.00909,0.85157 1.00634,2.27246 -0.001,0.67383 -0.25882,1.28125 -0.2502,0.60009 -0.91828,1.41911 -0.18352,0.21205 -1.16693,1.22821 -0.98341,1.00885 -2.77405,2.82912 z m 200.47221,-197.8833 -2.41699,-0.005 -0.0162,8.34226 2.63042,-0.52224 -0.003,1.34765 -2.61577,0.52228 -1.47949,-0.003 0.0188,-9.68993 -2.41699,-0.005 0.002,-1.24512 6.29882,0.0122 z m -564.81257,54.60707 q -0.002,1.14258 1.1246,1.72337 1.1195,0.57346 3.37536,0.57783 2.24852,0.004 3.37756,-0.56475 1.12172,-0.57644 1.12394,-1.71902 0.002,-1.14989 -1.11728,-1.72335 -1.1268,-0.5808 -3.37533,-0.58515 -2.25586,-0.004 -3.37758,0.57207 -1.12904,0.5691 -1.13127,1.719 z m -1.17186,-0.002 q 0.004,-1.83837 1.46295,-2.80234 1.45207,-0.97131 4.22062,-0.96595 2.76123,0.005 4.21686,0.98229 1.44832,0.9696 1.44476,2.80797 -0.004,1.83838 -1.45564,2.80969 -1.45939,0.96398 -4.22061,0.95863 -2.76856,-0.005 -4.21687,-0.97497 -1.45563,-0.97694 -1.45207,-2.81532 z" />
    <path
       id="path2920"
       style="fill:none;stroke:#ff0000;stroke-width:1;stroke-linecap:butt;stroke-linejoin:miter;stroke-miterlimit:10;stroke-dasharray:none;stroke-opacity:1"
       d="m 193.98683,248.26353 -107.543001,-0.007 m 0.0057,-84.89823 24.200012,-14.99838 59.145,0.004 24.19799,15.00163 m -107.548711,84.89074 -14.998715,-19.102 0.0031,-46.696 15.001284,-19.09999 m 107.543042,0.007 -0.006,84.898 m 107.52963,0.0291 -107.53994,-0.0263 m 0.0168,-84.90077 24.20364,-14.99234 59.14733,0.0134 24.19297,15.00513 m 0,3e-5 14.99442,19.10734 -0.0113,46.69281 -15.00394,19.1007 m -107.53989,-0.0263 0.0168,-84.90073 m 398.82462,158.63108 -0.48269,249.03967 m -350.91922,-0.68257 -14.89084,-56.06255 0.26834,-136.96979 15.10521,-56.00333 m -108.02146,248.8273 24.22646,-14.95087 59.14604,0.11205 24.16625,15.04719 m 549.41585,-202.69529 -0.10993,56.59898 m -656.73474,89.28797 14.97492,12.76404 -0.0587,31.13007 -15.02614,12.70586 m 656.84466,-145.88794 -0.17688,90.56216 m -747.115997,-1.44809 20.405315,-14.95955 49.806732,0.0959 20.34609,15.03751 m 656.55786,1.27423 14.96923,16.58416 -0.0788,40.47041 -15.03182,16.52598 m -747.116005,-1.44709 0.141398,-73.58155 m 662.391927,-89.27746 0.10893,-56.59997 m -90.9539,203.5842 -14.97492,-12.76504 0.0587,-31.13008 15.02614,-12.70485 m 90.55714,0.17291 -14.95952,-20.40132 0.0959,-49.80973 15.0415,-20.34612 m -90.73501,90.38426 90.55713,0.17291 m 57.10836,136.28155 -5.19809,25.05399 -37.41838,34.17071 -25.42332,2.90254 M 111.08532,649.34411 43.287385,586.95302 M 637.29923,735.26191 484.47691,734.96562 m -220.57427,-85.32518 -34.41281,14.93137 -84.04992,-0.16203 -34.35459,-15.06567 m 396.35167,-78.47524 107.53875,0.20937 m -283.21175,108.57016 -14.9589,-20.76033 0.0982,-50.67376 15.03914,-20.70212 m 0,0 -68.03979,62.12825 m 152.94074,-61.96386 14.9619,20.7603 -0.0972,50.67376 -15.04314,20.70214 m 67.97639,-29.74411 -67.79795,-62.39209 m -84.35129,-283.16225 -14.96037,-19.92529 0.0918,-48.62268 15.04069,-19.86511 m -67.98256,31.6812 67.81044,56.73188 m 153.09163,-141.20559 34.41378,-14.93538 84.05292,0.162 34.35462,15.06967 m -526.5417,83.8821 152.81831,0.29532 m -22.7832,73.53559 -24.22546,14.94987 -59.14604,-0.11206 -24.16725,-15.04718 m 283.20245,-104.84401 14.96434,19.92127 -0.0958,48.6267 -15.03669,19.86508 m 3e-5,0 68.02528,-56.47102 m 152.98573,-84.60166 19.92127,-14.96434 48.6267,0.0958 19.86208,15.03671 M 43.834038,303.95418 111.86334,247.48713 m -68.184191,135.70882 0.154889,-79.24177 m 682.816662,-55.28006 -19.92127,14.96434 -48.6267,-0.0958 -19.8611,-15.03972 m 0,4e-5 67.80645,56.73491 m 99.84339,-56.40887 -17.85821,14.96667 -43.58353,-0.0862 -17.79903,-15.03538 m -20.60262,56.56378 -0.14992,79.23674 m -571.65688,-1.10581 14.03809,-14.97235 34.24319,0.0661 13.9789,15.02869 m -62.14176,-62.38259 -0.11842,62.26015 M 615.45842,322.03757 507.9197,321.8322 M 134.0729,468.2698 113.67159,483.23033 63.861858,483.1344 43.515735,468.0929 m 662.382425,-83.61827 -90.56213,-0.17288 m -418.99898,84.08745 -14.03807,14.97535 -34.24321,-0.0691 -13.98287,-15.02567 m 481.26313,-83.96803 0.12239,-62.26418 m -107.53872,-0.20537 84.89795,0.16441 m -0.48269,249.03967 -84.89797,-0.16741 m 198.49265,-203.37483 19.13226,-14.96311 46.69262,0.0896 19.07707,15.03791 m -0.42821,220.74167 -84.90195,-0.16438 m 0,0 57.24973,62.697 m -68.03979,62.12724 -57.24873,-62.696 m 0,0 -0.16341,84.89794 m -152.82232,-0.29629 0.16442,-84.89695 m -67.97639,29.74411 -19.13127,14.96211 -46.69361,-0.0886 -19.07607,-15.03791 m 0.90021,-463.54713 19.13226,-14.96311 46.69262,0.0886 19.07307,15.03794 m 67.85716,31.94201 0.16441,-84.89795 M 43.515735,468.0929 43.679149,383.19595 m 152.822311,0.29529 14.96311,19.13227 -0.0936,46.69264 -15.03394,19.07305 m 534.28382,-301.8852 17.957,-14.844 43.582,0.371 17.699,15.153 m 0,0 -0.727,84.898" />
  </g>
</svg>
