<?xml version="1.0" encoding="UTF-8" standalone="no"?>
<!-- Created with Inkscape (http://www.inkscape.org/) -->

<svg
   version="1.1"
   id="svg8135"
   width="1132"
   height="1132"
   viewBox="0 0 1132 1132"
   sodipodi:docname="D.svg"
   inkscape:version="1.2.2 (732a01da63, 2022-12-09, custom)"
   xmlns:inkscape="http://www.inkscape.org/namespaces/inkscape"
   xmlns:sodipodi="http://sodipodi.sourceforge.net/DTD/sodipodi-0.dtd"
   xmlns="http://www.w3.org/2000/svg"
   xmlns:svg="http://www.w3.org/2000/svg">
  <defs
     id="defs8139" />
  <sodipodi:namedview
     id="namedview8137"
     pagecolor="#ffffff"
     bordercolor="#666666"
     borderopacity="1.0"
     inkscape:showpageshadow="2"
     inkscape:pageopacity="0.0"
     inkscape:pagecheckerboard="0"
     inkscape:deskcolor="#d1d1d1"
     showgrid="false"
     showguides="true"
     inkscape:zoom="0.72218998"
     inkscape:cx="566.33297"
     inkscape:cy="434.0963"
     inkscape:window-width="1920"
     inkscape:window-height="1009"
     inkscape:window-x="0"
     inkscape:window-y="0"
     inkscape:window-maximized="1"
     inkscape:current-layer="g8143">
    <inkscape:page
       x="0"
       y="0"
       id="page8141"
       width="1132"
       height="1132" />
  </sodipodi:namedview>
  <g
     id="g8143"
     inkscape:groupmode="layer"
     inkscape:label="Page 1"
     transform="matrix(1.3333333,0,0,1.3333333,0,2.83e-5)">
    <path
       id="path9669"
       style="font-size:15px;font-family:'DejaVu Sans';-inkscape-font-specification:DejaVuSans;fill:#0000ff"
       d="m 174.17954,308.39323 -0.013,5.16355 -1.24511,-0.003 0.0175,-6.94334 1.2451,0.003 q 0.86947,0.84448 2.33066,2.29835 1.46849,1.46122 1.89235,1.83583 0.79655,0.71246 1.34517,0.99216 0.55592,0.28704 1.09059,0.28839 0.87158,0.002 1.42244,-0.61166 0.55084,-0.60652 0.55331,-1.58797 0.002,-0.6958 -0.23799,-1.47277 -0.23977,-0.76965 -0.72827,-1.64979 l 1.49413,0.004 q 0.35664,0.89446 0.53779,1.67129 0.18115,0.77682 0.17953,1.42136 -0.004,1.6992 -0.85643,2.70781 -0.85215,1.0086 -2.27304,1.00502 -0.67383,-0.002 -1.28109,-0.25957 -0.59996,-0.25053 -1.41859,-0.91911 -0.21194,-0.18363 -1.22753,-1.16764 -1.00828,-0.98398 -2.8275,-2.77567 z m 0.0266,-10.55802 -0.006,2.41699 8.34227,0.021 -0.52072,-2.63072 1.34764,0.003 0.52077,2.61607 -0.004,1.47948 -9.68992,-0.0244 -0.006,2.41698 -1.2451,-0.003 0.0159,-6.29881 z m 345.43182,2.52848 0.013,-5.16355 1.24512,0.003 -0.0175,6.94334 -1.24511,-0.003 q -0.86946,-0.84448 -2.33064,-2.29835 -1.4685,-1.46122 -1.89237,-1.83583 -0.79655,-0.71245 -1.34516,-0.99216 -0.55592,-0.28704 -1.09059,-0.28838 -0.87157,-0.002 -1.42244,0.61165 -0.55085,0.60653 -0.55332,1.58797 -0.002,0.6958 0.238,1.47278 0.23976,0.76964 0.72827,1.64978 l -1.49414,-0.004 q -0.35663,-0.89446 -0.53778,-1.67128 -0.18115,-0.77682 -0.17953,-1.42136 0.004,-1.69921 0.85643,-2.70781 0.85215,-1.0086 2.27304,-1.00503 0.67382,0.002 1.28109,0.25958 0.59996,0.25053 1.41859,0.9191 0.21194,0.18364 1.22753,1.16764 1.00827,0.98398 2.8275,2.77568 z m -0.0266,10.55805 0.006,-2.417 -8.34225,-0.021 0.52072,2.63072 -1.34766,-0.003 -0.52076,-2.61607 0.004,-1.47949 9.68991,0.0244 0.006,-2.41698 1.24511,0.003 -0.0159,6.29881 z m 28.13417,-2.66594 -0.006,2.41699 8.34226,0.021 -0.52073,-2.63071 1.34766,0.003 0.52076,2.61607 -0.004,1.47949 -9.68991,-0.0244 -0.006,2.41698 -1.2451,-0.003 0.0159,-6.29881 z m 0.024,-9.53998 -0.006,2.417 8.34226,0.021 -0.52073,-2.63072 1.34766,0.003 0.52076,2.61607 -0.004,1.47949 -9.68991,-0.0244 -0.006,2.41698 -1.2451,-0.003 0.0159,-6.29881 z m -401.70151,1.78531 0.006,-2.41698 -8.34226,-0.021 0.52073,2.6307 -1.34766,-0.003 -0.52075,-2.61607 0.004,-1.47948 9.68991,0.0244 0.006,-2.41698 1.24511,0.003 -0.0159,6.29881 z m -0.024,9.53998 0.006,-2.41699 -8.34226,-0.021 0.52073,2.63072 -1.34766,-0.003 -0.52075,-2.61607 0.004,-1.47948 9.68991,0.0244 0.006,-2.41698 1.24511,0.003 -0.0159,6.29881 z m 647.88384,-10.62439 q -0.003,1.14258 1.12359,1.72404 1.11917,0.5741 3.37503,0.57977 2.24852,0.006 3.37788,-0.56278 1.12207,-0.5758 1.12494,-1.71837 0.003,-1.1499 -1.11627,-1.72401 -1.12647,-0.58144 -3.375,-0.5871 -2.25585,-0.006 -3.37791,0.57011 -1.12937,0.56845 -1.13226,1.71834 z m -1.17187,-0.003 q 0.005,-1.83836 1.46458,-2.80149 1.45264,-0.97047 4.22119,-0.9635 2.76122,0.007 4.21628,0.98474 1.44775,0.97044 1.44313,2.80881 -0.005,1.83837 -1.45727,2.80884 -1.45995,0.96313 -4.22117,0.95618 -2.76855,-0.007 -4.2163,-0.97742 -1.45506,-0.97778 -1.45044,-2.81616 z m 9.85633,12.47263 0.006,-2.41698 -8.34226,-0.021 0.52072,2.63071 -1.34764,-0.003 -0.52077,-2.61607 0.004,-1.47948 9.68991,0.0244 0.006,-2.41698 1.24511,0.003 -0.0159,6.29881 z M 69.690827,309.7682 q 0.0029,-1.14257 -1.123594,-1.72402 -1.119164,-0.57411 -3.375016,-0.57979 -2.248528,-0.006 -3.377892,0.56279 -1.122058,0.57579 -1.124933,1.71837 -0.0029,1.14989 1.116269,1.724 1.126471,0.58145 3.374998,0.58711 2.255852,0.006 3.377911,-0.57011 1.129363,-0.56845 1.132257,-1.71835 z m 1.171871,0.003 q -0.0046,1.83838 -1.464574,2.80149 -1.452642,0.97047 -4.221188,0.9635 -2.761222,-0.007 -4.216285,-0.98473 -1.447757,-0.97044 -1.443131,-2.80881 0.0046,-1.83837 1.457269,-2.80884 1.459947,-0.96313 4.22117,-0.95618 2.768546,0.007 4.216303,0.97741 1.455063,0.97779 1.450436,2.81616 z m -9.856336,-12.47262 -0.0061,2.41699 8.342259,0.021 -0.520725,-2.63071 1.347653,0.003 0.52076,2.61607 -0.0037,1.47948 -9.68991,-0.0244 -0.0061,2.41699 -1.245113,-0.003 0.01585,-6.29881 z m 660.728208,193.4695 1.34765,0.003 q -0.26507,0.55598 -0.40567,1.12691 -0.14059,0.57094 -0.14198,1.12026 -0.004,1.46484 0.97583,2.23635 0.98681,0.77885 2.99336,0.89377 -0.62881,-0.42639 -0.96408,-1.07909 -0.33528,-0.65271 -0.33329,-1.44371 0.004,-1.64063 0.99531,-2.59761 0.99849,-0.94964 2.71968,-0.9453 1.68457,0.004 2.70012,1.00288 1.01556,0.99866 1.01139,2.65393 -0.005,1.89696 -1.4648,2.88939 -1.45272,0.99976 -4.22126,0.99279 -2.58544,-0.007 -4.12775,-1.24085 -1.53501,-1.22702 -1.52979,-3.29976 10e-4,-0.55664 0.11271,-1.12765 0.1113,-0.57101 0.33257,-1.1857 z m 4.62881,2.956 q -0.003,0.99609 0.67718,1.57642 0.67968,0.58764 1.8662,0.59063 1.1792,0.003 1.86182,-0.58125 0.68993,-0.57688 0.69243,-1.57297 0.003,-0.99609 -0.68448,-1.58376 -0.67969,-0.58032 -1.85889,-0.58329 -1.18653,-0.003 -1.86913,0.57391 -0.68262,0.58422 -0.68513,1.58031 z m -43.01843,-15.70743 -0.90812,-0.99574 q 0.58896,-0.18028 1.10484,-0.46242 0.51588,-0.28214 0.92176,-0.6523 1.08232,-0.98708 0.9892,-2.23046 -0.0927,-1.25372 -1.36378,-2.81055 0.11057,0.75166 -0.14403,1.43985 -0.25461,0.68818 -0.83907,1.22121 -1.21221,1.10553 -2.58741,1.0215 -1.37473,-0.0944 -2.53455,-1.36611 -1.13515,-1.24467 -1.08519,-2.66811 0.05,-1.42343 1.27299,-2.53883 1.40161,-1.27828 3.11974,-0.87259 1.71861,0.39536 3.58419,2.44096 1.74221,1.9103 1.87443,3.8813 0.1327,1.96067 -1.39879,3.35739 -0.41129,0.37509 -0.90743,0.67888 -0.49614,0.30379 -1.09878,0.55602 z m -0.94864,-5.4096 q 0.73598,-0.67122 0.70451,-1.56441 -0.0261,-0.89811 -0.82561,-1.77479 -0.7946,-0.87128 -1.68652,-0.97973 -0.89146,-0.11879 -1.62743,0.55242 -0.73598,0.67122 -0.70499,1.57475 0.0315,0.89318 0.82608,1.76445 0.79954,0.87668 1.68605,0.99007 0.89193,0.10845 1.62791,-0.56276 z m 80.97447,59.76765 q -1.05469,-0.003 -1.66402,0.55979 -0.60199,0.56244 -0.60448,1.55121 -0.002,0.98877 0.59667,1.55425 0.60649,0.56549 1.66117,0.56814 1.05469,0.003 1.66402,-0.55977 0.60934,-0.56976 0.61181,-1.55121 0.002,-0.98877 -0.604,-1.55425 -0.59916,-0.56548 -1.66117,-0.56816 z m -1.4779,-0.6336 q -0.95156,-0.23676 -1.48459,-0.88997 -0.52569,-0.65318 -0.52333,-1.59068 0.003,-1.31103 0.93538,-2.0704 0.93941,-0.75936 2.56539,-0.75527 1.63329,0.004 2.56155,0.76817 0.92825,0.76406 0.92495,2.07509 -0.002,0.93749 -0.53866,1.58801 -0.52898,0.65053 -1.47439,0.88252 1.0687,0.25171 1.66013,0.9783 0.59877,0.72661 0.59613,1.77396 -0.004,1.58936 -0.98026,2.43651 -0.96893,0.84718 -2.778,0.84263 -1.80908,-0.005 -2.78106,-0.85662 -0.96466,-0.85204 -0.96066,-2.44139 0.003,-1.04736 0.60505,-1.77094 0.60241,-0.72359 1.67237,-0.96992 z m -0.53611,-2.33778 q -0.002,0.8496 0.524,1.32701 0.53347,0.47741 1.49294,0.47983 0.95215,0.002 1.48801,-0.47233 0.54319,-0.47471 0.54533,-1.32432 0.002,-0.8496 -0.53865,-1.32704 -0.53347,-0.47742 -1.48562,-0.47981 -0.95947,-0.002 -1.49533,0.47231 -0.52854,0.47475 -0.53068,1.32435 z M 645.2407,550.3232 q -0.003,1.05468 0.55977,1.66401 0.56246,0.602 1.55123,0.60449 0.98876,0.002 1.55423,-0.59667 0.5655,-0.60649 0.56816,-1.66118 0.003,-1.05469 -0.55979,-1.66401 -0.56976,-0.60935 -1.55119,-0.61182 -0.98877,-0.002 -1.55427,0.604 -0.56547,0.59917 -0.56814,1.66118 z m -0.63361,1.4779 q -0.23677,0.95155 -0.88997,1.48458 -0.65318,0.5257 -1.59067,0.52334 -1.31104,-0.003 -2.07042,-0.93538 -0.75934,-0.93942 -0.75525,-2.56539 0.004,-1.6333 0.76816,-2.56156 0.76406,-0.92825 2.07509,-0.92495 0.9375,0.002 1.588,0.53867 0.65053,0.52898 0.88252,1.47439 0.25172,-1.0687 0.97831,-1.66014 0.7266,-0.59876 1.77397,-0.59612 1.58935,0.004 2.4365,0.98025 0.84718,0.96894 0.84262,2.77801 -0.005,1.80907 -0.85661,2.78105 -0.85204,0.96466 -2.44138,0.96066 -1.04737,-0.003 -1.77095,-0.60505 -0.72358,-0.6024 -0.96992,-1.67236 z m -2.33778,0.53611 q 0.84961,0.002 1.327,-0.52401 0.47743,-0.53347 0.47984,-1.49293 0.002,-0.95215 -0.47233,-1.48802 -0.47471,-0.54318 -1.32432,-0.54532 -0.8496,-0.002 -1.32703,0.53865 -0.47743,0.53347 -0.47983,1.48562 -0.002,0.95946 0.47232,1.49533 0.47474,0.52855 1.32435,0.53068 z m 150.1921,-56.98163 0.0177,-7.03122 0.62988,0.002 10.29514,3.99565 -0.004,1.54541 -9.6805,-3.75974 -0.0132,5.25146 z m -693.947101,-29.68334 5.171251,4.7641 -0.42678,0.46325 -9.901982,4.8894 -1.136599,-1.04711 9.312751,-4.59572 -3.862278,-3.55818 z M 542.64711,585.97582 q -0.9961,-0.003 -1.58374,0.67716 -0.58033,0.6797 -0.58332,1.86621 -0.003,1.1792 0.57392,1.86913 0.58422,0.68262 1.58031,0.68513 0.99609,0.003 1.57641,-0.67718 0.58767,-0.68701 0.59064,-1.8662 0.003,-1.18652 -0.58124,-1.86914 -0.57689,-0.68261 -1.57298,-0.68511 z m 2.94867,-4.62883 -0.003,1.34765 q -0.55598,-0.26507 -1.12691,-0.40567 -0.56362,-0.14058 -1.12026,-0.14198 -1.46484,-0.004 -2.24369,0.98313 -0.77153,0.98683 -0.88642,2.98606 0.43373,-0.63612 1.08643,-0.97139 0.65272,-0.3426 1.43641,-0.34063 1.64795,0.004 2.59757,1.00996 0.95696,0.9985 0.95263,2.71969 -0.004,1.68456 -1.0029,2.70012 -0.99865,1.01556 -2.65392,1.0114 -1.89697,-0.005 -2.89673,-1.4575 -0.99975,-1.46004 -0.9928,-4.22126 0.007,-2.59276 1.24086,-4.12775 1.23436,-1.54231 3.3071,-1.53709 0.55664,10e-4 1.12033,0.11269 0.57101,0.1113 1.18569,0.33257 z M 237.21967,500.30441 q -0.99608,-0.003 -1.58374,0.67716 -0.58032,0.6797 -0.5833,1.86622 -0.003,1.1792 0.5739,1.86912 0.58423,0.68263 1.58031,0.68514 0.9961,0.003 1.57642,-0.6772 0.58767,-0.68699 0.59064,-1.86618 0.003,-1.18652 -0.58124,-1.86915 -0.57689,-0.68261 -1.57299,-0.68511 z m 2.94867,-4.62883 -0.003,1.34766 q -0.55597,-0.26508 -1.12691,-0.40568 -0.56361,-0.14058 -1.12025,-0.14198 -1.46483,-0.004 -2.24369,0.98313 -0.77153,0.98683 -0.88643,2.98606 0.43374,-0.63611 1.08644,-0.97139 0.65272,-0.34259 1.4364,-0.34062 1.64795,0.004 2.59757,1.00995 0.95696,0.99851 0.95263,2.7197 -0.004,1.68456 -1.00289,2.70012 -0.99865,1.01555 -2.65392,1.01139 -1.89697,-0.005 -2.89674,-1.45749 -0.99974,-1.46004 -0.9928,-4.22126 0.007,-2.59277 1.24087,-4.12775 1.23435,-1.54231 3.30711,-1.53709 0.55663,0.001 1.12032,0.11268 0.57101,0.11129 1.18568,0.33257 z m 203.46231,53.24007 -0.0146,5.80809 -1.24512,-0.003 0.0112,-4.45312 -2.68065,-0.007 q 0.10904,0.32255 0.1595,0.64495 0.0578,0.3224 0.057,0.64467 -0.005,1.83105 -1.01072,2.89786 -1.0061,1.0668 -2.71997,1.06249 -1.76512,-0.004 -2.7438,-1.10554 -0.97136,-1.10108 -0.96632,-3.10058 0.002,-0.68848 0.12072,-1.40596 0.11898,-0.71015 0.35527,-1.47128 l 1.48681,0.004 q -0.36054,0.65827 -0.53809,1.36095 -0.17755,0.70268 -0.17952,1.48637 -0.003,1.26709 0.66144,2.00851 0.66465,0.74142 1.80722,0.74429 1.14257,0.003 1.81094,-0.73518 0.66836,-0.73807 0.67155,-2.00516 10e-4,-0.59326 -0.12885,-1.18685 -0.13036,-0.58627 -0.40713,-1.20221 z m -56.6722,-53.10941 5.80808,0.0146 -0.003,1.24511 -4.45311,-0.0112 -0.007,2.68065 q 0.32254,-0.10905 0.64494,-0.15951 0.3224,-0.0578 0.64467,-0.057 1.83105,0.005 2.89786,1.01071 1.06681,1.00611 1.0625,2.71997 -0.004,1.76514 -1.10555,2.74381 -1.10108,0.97135 -3.10058,0.96632 -0.68848,-0.002 -1.40595,-0.12073 -0.71016,-0.11897 -1.47129,-0.35527 l 0.004,-1.4868 q 0.65827,0.36054 1.36096,0.53809 0.70267,0.17755 1.48636,0.17952 1.26709,0.003 2.00851,-0.66145 0.74142,-0.66464 0.74429,-1.80721 0.003,-1.14258 -0.73518,-1.81094 -0.73807,-0.66837 -2.00516,-0.67156 -0.59326,-10e-4 -1.18685,0.12886 -0.58627,0.13035 -1.2022,0.40712 z m 407.73918,-377.69151 5.82798,3.75003 0.009,-3.73534 z m -1.29004,0.38493 0.005,-1.86034 7.12643,0.0179 0.004,-1.56005 1.23047,0.003 -0.004,1.56006 2.57812,0.006 -0.004,1.47216 -2.57813,-0.006 -0.0124,4.9365 -1.42822,-0.004 z m -694.958168,25.09518 -0.850077,-6.8779 -2.875604,2.38407 z m 1.121577,0.74462 -1.432163,1.18735 -4.548421,-5.4862 -1.200988,0.99569 -0.785339,-0.94725 1.200988,-0.9957 -1.645467,-1.98473 1.133326,-0.9396 1.645467,1.98473 3.800308,-3.1507 0.911551,1.09949 z M 760.99531,82.901202 q -1.06144,-0.229723 -1.6529,-0.948987 -0.59877,-0.719283 -0.59612,-1.773967 0.004,-1.618648 1.11958,-2.502073 1.11551,-0.883427 3.16628,-0.878265 0.68848,0.0017 1.42055,0.142736 0.72477,0.133661 1.50045,0.40661 l -0.004,1.428217 q -0.61434,-0.360433 -1.34629,-0.545382 -0.73196,-0.184947 -1.5303,-0.186957 -1.39159,-0.0035 -2.11808,0.543987 -0.7338,0.547471 -0.73643,1.594832 -0.002,0.966794 0.67735,1.510498 0.67244,0.551011 1.88093,0.554052 l 1.27442,0.0032 -0.003,1.215817 -1.33301,-0.0034 q -1.09131,-0.0027 -1.671,0.427924 -0.57973,0.437996 -0.58179,1.258305 -0.002,0.842283 0.59734,1.290571 0.59212,0.455592 1.7054,0.458394 0.6079,0.0015 1.30403,-0.128554 0.69613,-0.130085 1.5318,-0.406302 l -0.003,1.318355 q -0.84287,0.232254 -1.57559,0.347598 -0.74004,0.115325 -1.39189,0.113685 -1.68456,-0.0042 -2.66407,-0.775751 -0.97952,-0.764185 -0.97624,-2.067892 0.002,-0.9082 0.52389,-1.536773 0.52158,-0.621248 1.48166,-0.860531 z M 645.76662,62.091652 q 0.22972,-1.061437 0.94898,-1.652891 0.71929,-0.598778 1.77397,-0.596123 1.61864,0.0041 2.50208,1.119581 0.88342,1.115509 0.87826,3.166283 -0.002,0.688474 -0.14273,1.420544 -0.13367,0.724764 -0.40662,1.500446 l -1.42822,-0.0036 q 0.36044,-0.614329 0.54538,-1.346288 0.18496,-0.731959 0.18696,-1.530296 0.004,-1.391597 -0.54399,-2.118075 -0.54746,-0.733802 -1.59483,-0.736438 -0.96678,-0.0024 -1.5105,0.677353 -0.551,0.672444 -0.55404,1.880936 l -0.003,1.27441 -1.21582,-0.0031 0.003,-1.333004 q 0.003,-1.091305 -0.42793,-1.671004 -0.438,-0.579717 -1.25831,-0.581781 -0.84227,-0.0021 -1.29056,0.597339 -0.4556,0.592117 -0.4584,1.705395 -0.002,0.607908 0.12855,1.304039 0.13009,0.696129 0.40631,1.531788 l -1.31836,-0.0033 q -0.23225,-0.842872 -0.3476,-1.575586 -0.11532,-0.740039 -0.11368,-1.391892 0.004,-1.684566 0.77574,-2.664072 0.76419,-0.979525 2.0679,-0.976244 0.90821,0.0023 1.53677,0.523888 0.62125,0.521586 0.86054,1.481664 z m 77.91878,56.935828 -0.013,5.16356 -1.24512,-0.003 0.0175,-6.94333 1.24511,0.003 q 0.86946,0.84448 2.33065,2.29835 1.46849,1.46122 1.89235,1.83583 0.79655,0.71245 1.34517,0.99215 0.55592,0.28705 1.09059,0.28839 0.87157,0.002 1.42244,-0.61166 0.55084,-0.60652 0.55331,-1.58796 0.002,-0.6958 -0.23799,-1.47277 -0.23976,-0.76965 -0.72828,-1.64979 l 1.49414,0.004 q 0.35664,0.89446 0.5378,1.67128 0.18114,0.77683 0.17952,1.42135 -0.004,1.69922 -0.85643,2.70782 -0.85215,1.0086 -2.27304,1.00503 -0.67382,-0.002 -1.28109,-0.25958 -0.59996,-0.25054 -1.41859,-0.9191 -0.21194,-0.18363 -1.22753,-1.16764 -1.00827,-0.98399 -2.8275,-2.77568 z m -38.056,18.89138 -3.95846,-3.31558 0.7995,-0.95452 5.32287,4.4584 -0.7995,0.95452 q -1.20537,0.12733 -3.25769,0.31911 -2.06265,0.1927 -2.62178,0.2785 -1.05726,0.15583 -1.62335,0.39823 -0.5764,0.24332 -0.91971,0.6532 -0.55965,0.66817 -0.44073,1.48433 0.11331,0.81145 0.8657,1.44165 0.53341,0.44678 1.28378,0.76 0.74476,0.30852 1.73364,0.49669 l -0.95941,1.14542 q -0.91546,-0.29863 -1.6282,-0.65678 -0.71275,-0.35813 -1.20685,-0.77199 -1.30264,-1.09109 -1.53195,-2.39142 -0.22931,-1.30033 0.68307,-2.38961 0.43267,-0.51657 1.01954,-0.81799 0.57654,-0.30052 1.61422,-0.50141 0.27676,-0.0453 1.68286,-0.19552 1.40139,-0.14466 3.94245,-0.39523 z M 544.27931,24.616467 l -2.41698,-0.0061 -0.021,8.342258 2.63071,-0.520725 -0.003,1.347652 -2.61607,0.520762 -1.47949,-0.0037 0.0244,-9.68991 -2.41698,-0.0061 0.003,-1.245113 6.29881,0.01585 z m -305.85544,84.133743 -2.41699,-0.006 -0.021,8.34226 2.63071,-0.52073 -0.003,1.34766 -2.61607,0.52075 -1.47949,-0.004 0.0244,-9.68991 -2.41698,-0.006 0.003,-1.24512 6.29881,0.0159 z M 443.87424,65.057441 q 0.003,-1.142575 -1.1236,-1.724025 -1.11917,-0.574107 -3.37501,-0.579784 -2.24853,-0.0057 -3.3779,0.562789 -1.12205,0.575791 -1.12493,1.718366 -0.003,1.149898 1.11627,1.724006 1.12647,0.58145 3.375,0.587109 2.25584,0.0057 3.37791,-0.570113 1.12936,-0.56845 1.13226,-1.718348 z m 1.17187,0.0029 q -0.005,1.838373 -1.46457,2.801499 -1.45265,0.970468 -4.22119,0.9635 -2.76122,-0.0069 -4.21629,-0.984735 -1.44776,-0.970444 -1.44313,-2.808817 0.005,-1.838373 1.45727,-2.808841 1.45995,-0.963126 4.22117,-0.956177 2.76854,0.007 4.2163,0.977412 1.45507,0.977786 1.45044,2.816159 z m -56.20773,52.782289 q 1.14258,0.003 1.72402,-1.1236 0.57411,-1.11917 0.57979,-3.37501 0.006,-2.24853 -0.56279,-3.3779 -0.57579,-1.12206 -1.71837,-1.12493 -1.14989,-0.003 -1.724,1.11627 -0.58146,1.12647 -0.58712,3.375 -0.006,2.25585 0.57012,3.37791 0.56845,1.12936 1.71835,1.13226 z m -0.003,1.17186 q -1.83837,-0.005 -2.8015,-1.46456 -0.97047,-1.45265 -0.9635,-4.22119 0.007,-2.76123 0.98473,-4.21629 0.97045,-1.44776 2.80882,-1.44313 1.83838,0.005 2.80884,1.45727 0.96312,1.45994 0.95617,4.22117 -0.007,2.76854 -0.9774,4.21631 -0.97779,1.45505 -2.81616,1.45042 z" />
    <path
       id="path8449"
       style="fill:none;stroke:#800000;stroke-width:1;stroke-linecap:butt;stroke-linejoin:miter;stroke-miterlimit:10;stroke-dasharray:8,8;stroke-dashoffset:0;stroke-opacity:1"
       d="m 101.4577,522.58353 h 107.539 m 0,84.899 h -107.539 m 137.539,-84.903 h 107.539 m 0,84.903 h -107.539 m 390.60325,-177.87162 0.6228,-249.03965 m -374.19078,248.09696 0.6278,-249.03965 m 266.0237,0.67078 -0.6268,249.03965 m -372.93618,-249.97934 -0.6278,249.03965 m 572.33728,-264.58017 84.89823,0.21393 m -84.89823,-0.21393 -0.71477,283.00074 m 84.90223,0.21393 -84.90223,-0.21393 M 57.88647,445.15143 58.601239,162.15069 M 720.1152,446.81988 652.03708,508.9071 m 152.74981,30.26395 -84.90322,-0.21393 M 125.6527,507.58353 57.88647,445.15143 M 652.03708,508.9071 431.2985,508.35228 m 220.52464,85.45404 -220.73857,-0.55482 m 0,0 0.21393,-84.89922 M 58.601239,162.15069 126.66437,105.72348 M 721.0518,75.404908 805.95102,75.61884 m -152.90227,31.42821 67.78122,56.77209 m -594.1656,-58.09566 220.74258,0.55482 m 0,0 84.89922,0.21393 m 0,0 220.74258,0.55482 m -306.65347,401.0913 1.01167,-401.86005 m 83.89155,402.07398 1.00767,-401.86005" />
    <path
       id="path9750"
       style="font-size:15px;font-family:'DejaVu Sans';-inkscape-font-specification:DejaVuSans"
       d="m 196.56171,567.3183 v -7.03125 h 0.62988 l 10.30518,3.96972 v 1.54542 l -9.68995,-3.73536 v 5.25147 z m -42.5083,-37.17725 q 0.99609,0 1.58203,-0.68115 0.57861,-0.68115 0.57861,-1.86768 0,-1.1792 -0.57861,-1.86767 -0.58594,-0.68115 -1.58203,-0.68115 -0.9961,0 -1.57471,0.68115 -0.58594,0.68847 -0.58594,1.86767 0,1.18653 0.58594,1.86768 0.57861,0.68115 1.57471,0.68115 z m -2.93702,4.63623 v -1.34765 q 0.55664,0.26367 1.12793,0.40283 0.56397,0.13916 1.12061,0.13916 1.46484,0 2.24121,-0.98877 0.76904,-0.98877 0.87891,-2.98828 -0.43213,0.6372 -1.08399,0.97412 -0.65185,0.34424 -1.43554,0.34424 -1.64795,0 -2.6001,-1.00342 -0.95948,-0.99609 -0.95948,-2.71729 0,-1.68457 0.9961,-2.70263 0.99609,-1.01807 2.65137,-1.01807 1.89697,0 2.90039,1.4502 1.00341,1.45752 1.00341,4.21875 0,2.59277 -1.23046,4.13086 -1.23047,1.54541 -3.30323,1.54541 -0.55664,0 -1.1206,-0.10987 -0.57129,-0.10986 -1.18653,-0.32959 z m -37.22363,28.33545 v 5.80811 h -1.24512 v -4.45313 h -2.68066 q 0.10986,0.32227 0.16113,0.64453 0.0586,0.32227 0.0586,0.64453 0,1.83106 -1.00342,2.9004 -1.00342,1.06933 -2.71729,1.06933 -1.76513,0 -2.74658,-1.09863 -0.97412,-1.09863 -0.97412,-3.09815 0,-0.68847 0.11719,-1.40625 0.11719,-0.71045 0.35156,-1.47216 h 1.48682 q -0.35889,0.65918 -0.53467,1.3623 -0.17578,0.70313 -0.17578,1.48682 0,1.26709 0.6665,2.00683 0.66651,0.73975 1.80908,0.73975 1.14258,0 1.80909,-0.73975 0.6665,-0.73974 0.6665,-2.00683 0,-0.59326 -0.13184,-1.18653 -0.13183,-0.58593 -0.41015,-1.20117 z m 43.01904,33.22363 -3.73535,5.83741 h 3.73535 z m -0.38818,-1.28906 h 1.86035 v 7.12647 h 1.56006 v 1.23047 h -1.56006 v 2.57812 h -1.47217 v -2.57812 h -4.93652 v -1.42823 z m 182.61624,-32.50299 q 0.22705,-1.06201 0.94483,-1.65527 0.71777,-0.60059 1.77246,-0.60059 1.61865,0 2.50488,1.11328 0.88623,1.11328 0.88623,3.16407 0,0.68847 -0.13916,1.42089 -0.13184,0.7251 -0.40283,1.50147 h -1.42822 q 0.35888,-0.61524 0.54199,-1.34766 0.1831,-0.73242 0.1831,-1.53076 0,-1.3916 -0.54931,-2.1167 -0.54932,-0.73242 -1.59668,-0.73242 -0.9668,0 -1.50879,0.68115 -0.54932,0.67383 -0.54932,1.88233 v 1.27441 h -1.21582 v -1.33301 q 0,-1.09131 -0.43213,-1.66992 -0.43945,-0.57861 -1.25976,-0.57861 -0.84229,0 -1.28907,0.60058 -0.4541,0.59327 -0.4541,1.70655 0,0.60791 0.13184,1.30371 0.13183,0.6958 0.41016,1.53076 h -1.31836 q -0.23438,-0.84229 -0.35157,-1.57471 -0.11718,-0.73974 -0.11718,-1.3916 0,-1.68457 0.76904,-2.66601 0.76172,-0.98145 2.06543,-0.98145 0.9082,0 1.53808,0.52002 0.62256,0.52002 0.86426,1.47949 z m -45.77929,-37.21924 h -5.16358 v -1.24511 h 6.94336 v 1.24511 q -0.84228,0.87159 -2.29248,2.33643 -1.45752,1.47217 -1.83105,1.89697 -0.71045,0.79834 -0.98877,1.34766 -0.28565,0.55664 -0.28565,1.09131 0,0.87158 0.61524,1.42089 0.60791,0.54932 1.58935,0.54932 0.6958,0 1.47217,-0.2417 0.76904,-0.2417 1.64795,-0.73242 v 1.49414 q -0.89356,0.35889 -1.66992,0.54199 -0.77637,0.18311 -1.4209,0.18311 -1.69922,0 -2.70996,-0.84961 -1.01075,-0.84961 -1.01075,-2.27051 0,-0.67383 0.25635,-1.28174 0.24903,-0.60058 0.91553,-1.4209 0.18311,-0.2124 1.16455,-1.23046 0.98145,-1.01075 2.76856,-2.83448 z m -51.61866,38.31055 v 2.41699 h 8.34229 l -0.52735,-2.62939 h 1.34766 l 0.52734,2.61474 v 1.4795 h -9.68994 v 2.41699 h -1.24511 v -6.29883 z m 52.01123,32.38574 q -1.14257,0 -1.72119,1.12793 -0.57129,1.12061 -0.57129,3.37647 0,2.24853 0.57129,3.37646 0.57862,1.12061 1.72119,1.12061 1.14991,0 1.72119,-1.12061 0.57862,-1.12793 0.57862,-3.37646 0,-2.25586 -0.57862,-3.37647 -0.57128,-1.12793 -1.72119,-1.12793 z m 0,-1.17187 q 1.83838,0 2.80518,1.45752 0.97412,1.45019 0.97412,4.21875 0,2.76123 -0.97412,4.21875 -0.9668,1.45019 -2.80518,1.45019 -1.83838,0 -2.8125,-1.45019 -0.96679,-1.45752 -0.96679,-4.21875 0,-2.76856 0.96679,-4.21875 0.97412,-1.45752 2.8125,-1.45752 z m 291.14214,-177.78604 7.03123,0.0177 -0.002,0.62988 -3.99564,10.29516 -1.54541,-0.004 3.75973,-9.68051 -5.25146,-0.0132 z m -383.82824,19.0253 q 0.99608,0.003 1.58373,-0.67717 0.58033,-0.6797 0.58331,-1.86622 0.003,-1.17919 -0.5739,-1.86912 -0.58423,-0.68263 -1.58032,-0.68513 -0.99609,-0.003 -1.57641,0.67719 -0.58768,0.68699 -0.59064,1.86619 -0.003,1.18652 0.58123,1.86915 0.5769,0.6826 1.573,0.68511 z m -2.94868,4.62882 0.003,-1.34765 q 0.55597,0.26508 1.12691,0.40567 0.56362,0.14058 1.12026,0.14198 1.46483,0.004 2.24369,-0.98312 0.77152,-0.98683 0.88643,-2.98607 -0.43374,0.63612 -1.08644,0.9714 -0.65272,0.34259 -1.43641,0.34061 -1.64794,-0.004 -2.59756,-1.00995 -0.95697,-0.99851 -0.95264,-2.71969 0.004,-1.68457 1.0029,-2.70013 0.99865,-1.01555 2.65392,-1.01138 1.89697,0.005 2.89674,1.45748 0.99973,1.46004 0.99278,4.22127 -0.007,2.59277 -1.24085,4.12775 -1.23435,1.5423 -3.30711,1.53709 -0.55664,-10e-4 -1.12032,-0.11268 -0.57101,-0.1113 -1.18569,-0.33258 z m 13.57815,-24.59625 5.80808,0.0146 -0.003,1.24512 -4.4531,-0.0112 -0.007,2.68065 q 0.32254,-0.10905 0.64494,-0.1595 0.32241,-0.0578 0.64467,-0.057 1.83106,0.005 2.89786,1.01071 1.06681,1.00611 1.06249,2.71998 -0.004,1.76512 -1.10554,2.7438 -1.10108,0.97135 -3.10059,0.96632 -0.68847,-0.002 -1.40595,-0.12073 -0.71015,-0.11896 -1.47128,-0.35526 l 0.004,-1.48682 q 0.65828,0.36055 1.36097,0.5381 0.70267,0.17755 1.48636,0.17952 1.26708,0.003 2.00851,-0.66144 0.74142,-0.66464 0.7443,-1.80722 0.003,-1.14257 -0.7352,-1.81093 -0.73807,-0.66837 -2.00515,-0.67156 -0.59326,-0.001 -1.18685,0.12885 -0.58627,0.13036 -1.2022,0.40713 z m 362.41813,24.49354 3.75002,-5.82799 -3.73533,-0.009 z m 0.38493,1.29003 -1.86034,-0.005 0.0179,-7.12644 -1.56005,-0.004 0.003,-1.23046 1.56006,0.004 0.006,-2.57812 1.47216,0.004 -0.006,2.57812 4.93651,0.0124 -0.004,1.42822 z M 211.70423,186.91424 q -1.06143,-0.22972 -1.65289,-0.94898 -0.59878,-0.71928 -0.59612,-1.77397 0.004,-1.61864 1.11958,-2.50207 1.11551,-0.88342 3.16629,-0.87826 0.68847,0.002 1.42053,0.14273 0.72477,0.13366 1.50046,0.40661 l -0.004,1.42822 q -0.61433,-0.36044 -1.34629,-0.54538 -0.73196,-0.18496 -1.5303,-0.18697 -1.39159,-0.004 -2.11807,0.544 -0.7338,0.54747 -0.73644,1.59483 -0.002,0.96679 0.67735,1.5105 0.67245,0.551 1.88095,0.55404 l 1.2744,0.003 -0.003,1.21582 -1.333,-0.003 q -1.09131,-0.003 -1.67101,0.42793 -0.57971,0.438 -0.58178,1.25831 -0.002,0.84227 0.59734,1.29056 0.59211,0.4556 1.7054,0.4584 0.60791,0.002 1.30404,-0.12855 0.69613,-0.13009 1.53179,-0.40631 l -0.003,1.31836 q -0.84288,0.23226 -1.57559,0.34759 -0.74004,0.11533 -1.39189,0.11369 -1.68457,-0.004 -2.66408,-0.77575 -0.97952,-0.76418 -0.97624,-2.06789 0.002,-0.90821 0.52389,-1.53678 0.52159,-0.62124 1.48166,-0.86053 z m -9.40274,-10.16477 5.16357,0.013 -0.003,1.2451 -6.94333,-0.0175 0.003,-1.24511 q 0.84447,-0.86946 2.29835,-2.33065 1.46122,-1.4685 1.83582,-1.89236 0.71246,-0.79655 0.99216,-1.34516 0.28705,-0.55592 0.2884,-1.09059 0.002,-0.87158 -0.61167,-1.42244 -0.60652,-0.55084 -1.58796,-0.55331 -0.6958,-0.002 -1.47277,0.23799 -0.76965,0.23977 -1.64979,0.72827 l 0.004,-1.49413 q 0.89445,-0.35664 1.67128,-0.53779 0.77683,-0.18115 1.42135,-0.17953 1.69922,0.004 2.70782,0.85643 1.0086,0.85215 1.00502,2.27304 -0.002,0.67383 -0.25957,1.28109 -0.25054,0.59995 -0.9191,1.41859 -0.18364,0.21194 -1.16764,1.22753 -0.98399,1.00828 -2.77569,2.8275 z m 386.86024,6.4641 -2.41698,-0.006 -0.021,8.34225 2.63071,-0.52072 -0.003,1.34766 -2.61606,0.52075 -1.47948,-0.004 0.0244,-9.68991 -2.41699,-0.006 0.003,-1.24512 6.29881,0.0159 z m -11.68985,-14.23565 q -1.14256,-0.003 -1.72402,1.12359 -0.57411,1.11917 -0.57979,3.37503 -0.006,2.24852 0.56279,3.37788 0.5758,1.12207 1.71837,1.12494 1.1499,0.003 1.72401,-1.11627 0.58145,-1.12647 0.58711,-3.375 0.006,-2.25585 -0.57011,-3.37791 -0.56845,-1.12937 -1.71836,-1.13226 z m 0.003,-1.17187 q 1.83838,0.005 2.8015,1.46458 0.97047,1.45264 0.9635,4.22119 -0.007,2.76122 -0.98473,4.21628 -0.97045,1.44775 -2.80882,1.44313 -1.83837,-0.005 -2.80884,-1.45727 -0.96312,-1.45994 -0.95617,-4.22117 0.007,-2.76855 0.9774,-4.2163 0.9778,-1.45506 2.81616,-1.45044 z" />
    <path
       id="path8455"
       style="fill:none;stroke:#ff0000;stroke-width:1;stroke-linecap:butt;stroke-linejoin:miter;stroke-miterlimit:10;stroke-dasharray:none;stroke-opacity:1"
       d="m 208.9967,522.58353 15,19.102 v 46.695 l -15,19.102 m -107.539,-84.899 24.195,-15 h 59.149 l 24.195,15 m -107.539,84.899 -14.999996,-19.102 v -46.695 l 14.999996,-19.102 m 107.539,84.899 -24.195,15 h -59.149 l -24.195,-15 m 245.078,-84.903 15,19.106 v 46.695 l -15,19.102 m -107.539,-84.903 24.195,-15 h 59.149 l 24.195,15 m -107.539,84.903 -15,-19.102 v -46.695 l 15,-19.106 m 107.539,84.903 -24.195,15 h -59.149 l -24.195,-15 m 390.60325,-177.87162 -84.90322,-0.21393 m -396.20404,-0.99767 107.53928,0.26891 m 0,0 -84.89822,-0.21093 m 350.92292,0.88171 107.54328,0.27191 m -457.8384,-250.19327 84.89822,0.21093 m -85.52602,248.82872 0.6278,-249.03965 m 350.92192,0.88171 14.85858,56.07288 -0.34389,136.96836 -15.14149,55.99841 M 256.65977,179.62857 149.12049,179.35966 m 396.20404,0.99767 84.89822,0.21393 m -85.52602,248.82572 0.6278,-249.03965 m -396.20404,-0.99767 14.85759,56.07288 -0.34289,136.96936 -15.1425,55.99741 M 630.22275,180.57126 522.68347,180.29935 M 805.7282,164.03307 805.01743,447.03381 M 57.88647,445.15143 43.049129,381.43852 43.438502,225.78912 58.601239,162.15069 m 661.282431,376.80643 0.23153,-92.13724 m 0,0 -5.20885,25.05162 -37.44182,34.15012 -25.42745,2.88548 m 152.74981,30.26395 -19.14378,14.95393 -46.69512,-0.11871 -19.06432,-15.04915 m -67.84659,-30.05002 -0.21394,84.89922 m 153.19429,-146.77251 -0.23054,92.13724 M 125.6527,507.58353 100.24402,504.567 62.971649,470.23294 57.88647,445.15143 M 651.82314,593.80632 602.12128,608.68228 480.71096,608.37563 431.08457,593.2515 M 346.39528,508.13835 125.6527,507.58353 m 305.43187,85.66797 -14.95493,-19.13878 0.11871,-46.69613 15.05015,-19.06431 m 0,0 -84.90322,-0.21393 M 805.95102,75.61884 805.7282,164.03307 m -747.126961,-1.88238 5.740566,-24.24309 37.433575,-31.03711 24.88899,-1.14701 M 721.0518,75.404908 740.19158,60.453979 786.8867,60.569691 805.95102,75.61884 M 653.26268,22.148827 653.04875,107.04705 m 67.78122,56.77209 0.22183,-88.414232 m -68.00305,31.642142 24.88413,1.275 37.27763,31.22505 5.61946,24.27204 M 432.5201,21.590009 653.26268,22.148827 m -526.59831,83.574653 49.70587,-14.875954 121.40632,0.306652 49.63039,15.124122 m 84.89922,0.21393 0.21393,-84.902221 m -85.11315,84.688291 19.13979,-14.950929 46.69512,0.115712 19.06431,15.049147" />
    <path
       id="path8457"
       style="fill:none;stroke:#00ff00;stroke-width:1;stroke-linecap:butt;stroke-linejoin:miter;stroke-miterlimit:10;stroke-dasharray:8, 2, 2, 2;stroke-dashoffset:0;stroke-opacity:1"
       d="m 208.9967,522.58353 v 84.899 m -107.539,0 v -84.899 m 245.078,-0.004 v 84.903 m -107.539,0 v -84.903" />
  </g>
</svg>
