<?xml version="1.0" encoding="UTF-8" standalone="no"?>
<!-- Created with Inkscape (http://www.inkscape.org/) -->

<svg
   version="1.1"
   id="svg9873"
   width="1132"
   height="1132"
   viewBox="0 0 1132 1132"
   sodipodi:docname="E.svg"
   inkscape:version="1.2.2 (732a01da63, 2022-12-09, custom)"
   xmlns:inkscape="http://www.inkscape.org/namespaces/inkscape"
   xmlns:sodipodi="http://sodipodi.sourceforge.net/DTD/sodipodi-0.dtd"
   xmlns="http://www.w3.org/2000/svg"
   xmlns:svg="http://www.w3.org/2000/svg">
  <defs
     id="defs9877" />
  <sodipodi:namedview
     id="namedview9875"
     pagecolor="#ffffff"
     bordercolor="#666666"
     borderopacity="1.0"
     inkscape:showpageshadow="2"
     inkscape:pageopacity="0.0"
     inkscape:pagecheckerboard="0"
     inkscape:deskcolor="#d1d1d1"
     showgrid="false"
     showguides="true"
     inkscape:zoom="0.8798174"
     inkscape:cx="327.34065"
     inkscape:cy="527.95046"
     inkscape:window-width="1920"
     inkscape:window-height="1009"
     inkscape:window-x="0"
     inkscape:window-y="0"
     inkscape:window-maximized="1"
     inkscape:current-layer="g9881">
    <inkscape:page
       x="0"
       y="0"
       id="page9879"
       width="1132"
       height="1132" />
  </sodipodi:namedview>
  <g
     id="g9881"
     inkscape:groupmode="layer"
     inkscape:label="Page 1"
     transform="matrix(1.3333333,0,0,1.3333333,0,2.83e-5)">
    <path
       id="path9975"
       style="fill:none;stroke:#00ff00;stroke-width:1;stroke-linecap:butt;stroke-linejoin:miter;stroke-miterlimit:10;stroke-dasharray:8, 2, 2, 2;stroke-dashoffset:0;stroke-opacity:1"
       d="m 692.77896,371.96847 84.90053,0.25877 m -84.63676,-85.15935 84.90058,0.26378 M 132.04038,500.41581 47.139836,500.15603 m 85.159314,-84.64075 -84.895564,-0.26282" />
    <path
       id="path11466"
       style="font-size:15px;font-family:'DejaVu Sans';-inkscape-font-specification:DejaVuSans"
       d="m 657.02077,392.01304 q 0.23034,-1.0613 0.94994,-1.65233 0.71962,-0.59837 1.77431,-0.59511 1.61864,0.005 2.50142,1.12102 0.88279,1.11602 0.87644,3.16679 -0.002,0.68848 -0.14355,1.42046 -0.13408,0.72469 -0.40748,1.50022 l -1.42821,-0.004 q 0.36079,-0.61412 0.54616,-1.34597 0.18537,-0.73185 0.18784,-1.53019 0.004,-1.39159 -0.54277,-2.11839 -0.54705,-0.73412 -1.5944,-0.73736 -0.9668,-0.003 -1.51089,0.67648 -0.5514,0.67213 -0.55513,1.88062 l -0.004,1.27441 -1.21581,-0.004 0.004,-1.33301 q 0.003,-1.0913 -0.42696,-1.67124 -0.43767,-0.57997 -1.25797,-0.58251 -0.84228,-0.003 -1.29092,0.59659 -0.45593,0.59185 -0.45937,1.70513 -0.002,0.60791 0.12779,1.30412 0.12969,0.6962 0.40543,1.53202 l -1.31836,-0.004 q -0.23177,-0.84301 -0.34668,-1.57579 -0.11491,-0.74011 -0.11289,-1.39195 0.005,-1.68456 0.77728,-2.66363 0.76476,-0.97908 2.06846,-0.97505 0.90821,0.003 1.53647,0.52478 0.62095,0.52194 0.85968,1.48215 z m -493.60254,0.36408 -0.016,5.16354 -1.24511,-0.004 0.0215,-6.94332 1.24511,0.004 q 0.86897,0.84497 2.32932,2.29969 1.46765,1.46207 1.8913,1.83691 0.79613,0.71292 1.34459,0.99294 0.55575,0.28736 1.09042,0.28901 0.87158,0.003 1.4228,-0.61083 0.55119,-0.60621 0.55422,-1.58765 0.002,-0.6958 -0.23714,-1.4729 -0.23931,-0.7698 -0.72732,-1.65021 l 1.49413,0.005 q 0.35613,0.89466 0.53683,1.67159 0.1807,0.77693 0.17871,1.42146 -0.005,1.69921 -0.85799,2.70732 -0.85274,1.0081 -2.27363,1.00371 -0.67381,-0.002 -1.28093,-0.26032 -0.59982,-0.25087 -1.41806,-0.91991 -0.21184,-0.18376 -1.22686,-1.16835 -1.0077,-0.98457 -2.82589,-2.77731 z m 497.98794,85.60046 0.007,-2.41698 -8.34224,-0.0258 0.5192,2.63101 -1.34765,-0.004 -0.51925,-2.61636 0.005,-1.47949 9.68989,0.03 0.007,-2.41698 1.24511,0.004 -0.0195,6.2988 z M 172.38262,311.91722 q 0.004,-1.14257 -1.12259,-1.72467 -1.11883,-0.57475 -3.37468,-0.58173 -2.24852,-0.007 -3.37821,0.56084 -1.1224,0.57514 -1.12593,1.71772 -0.004,1.14989 1.11528,1.72465 1.12613,0.58209 3.37465,0.58905 2.25585,0.007 3.37825,-0.56816 1.12968,-0.5678 1.13323,-1.7177 z m 1.17188,0.004 q -0.006,1.83837 -1.46619,2.80065 -1.4532,0.96963 -4.22174,0.96106 -2.76122,-0.009 -4.21572,-0.98716 -1.44719,-0.97128 -1.44151,-2.80965 0.006,-1.83837 1.45889,-2.808 1.4605,-0.96228 4.22172,-0.95374 2.76854,0.009 4.21574,0.97984 1.4545,0.97863 1.44881,2.817 z m -64.19301,306.42434 q 0.22856,-1.06169 0.94717,-1.65393 0.71862,-0.59957 1.77331,-0.59807 1.61865,0.002 2.5033,1.11684 0.88464,1.11453 0.88174,3.16531 -9.4e-4,0.68847 -0.14118,1.4207 -0.13286,0.72491 -0.40496,1.5009 l -1.42822,-0.002 q 0.35977,-0.61472 0.5439,-1.34688 0.18416,-0.73217 0.18528,-1.5305 0.002,-1.3916 -0.54631,-2.11748 -0.54828,-0.7332 -1.59564,-0.73469 -0.9668,-0.001 -1.50975,0.67902 -0.55027,0.67304 -0.55199,1.88155 l -0.002,1.2744 -1.21582,-0.002 0.002,-1.33302 q 0.002,-1.0913 -0.42975,-1.67052 -0.43864,-0.57924 -1.25895,-0.58041 -0.84228,-0.001 -1.28991,0.59876 -0.45494,0.59261 -0.45652,1.7059 -8.9e-4,0.60791 0.12993,1.3039 0.13081,0.69599 0.40799,1.53134 l -1.31837,-0.002 q -0.23317,-0.84262 -0.34932,-1.57521 -0.11615,-0.7399 -0.11522,-1.39176 0.002,-1.68458 0.77283,-2.66492 0.7631,-0.98037 2.06682,-0.97852 0.90819,0.001 1.53734,0.5222 0.62183,0.5209 0.86217,1.48071 z m -74.758896,1.78775 -0.0073,5.16357 -1.245113,-0.002 0.0098,-6.94336 1.245124,0.002 q 0.870375,0.84353 2.333162,2.2958 1.470103,1.45961 1.894375,1.83374 0.797333,0.71158 1.34625,0.99068 0.556233,0.28644 1.090907,0.2872 0.871574,0.001 1.421766,-0.61323 0.550189,-0.60712 0.551571,-1.58857 9.71e-4,-0.6958 -0.239602,-1.47251 -0.240617,-0.76938 -0.730082,-1.64898 l 1.494128,0.002 q 0.357614,0.89408 0.539625,1.6707 0.182002,0.77663 0.181088,1.42115 -0.0024,1.69922 -0.853456,2.70875 -0.851031,1.00954 -2.27193,1.00752 -0.67384,-10e-4 -1.281377,-0.25816 -0.600234,-0.24987 -1.419601,-0.91754 -0.212139,-0.18342 -1.228813,-1.1663 -1.009354,-0.98288 -2.830541,-2.77257 z m 41.148052,-36.22137 -2.416985,-0.003 -0.01183,8.34228 2.630131,-0.52362 -0.0019,1.34766 -2.615492,0.52363 -1.479489,-0.002 0.01374,-9.68993 -2.416985,-0.003 0.0018,-1.24511 6.29883,0.009 z m -0.497476,65.03242 q -1.142581,-0.002 -1.722797,1.12548 -0.572883,1.11979 -0.576084,3.37565 -0.0032,2.24854 0.566497,3.37727 0.577028,1.12142 1.719609,1.12305 1.149903,0.002 1.722784,-1.11816 0.580206,-1.12711 0.583394,-3.37565 0.0032,-2.25586 -0.573817,-3.37728 -0.569695,-1.12873 -1.719586,-1.13036 z m 0.0016,-1.17188 q 1.838359,0.003 2.8031,1.4615 0.972053,1.45158 0.968128,4.22012 -0.0039,2.76123 -0.980103,4.21737 -0.968858,1.44882 -2.807228,1.44621 -1.838379,-0.003 -2.810433,-1.45418 -0.96474,-1.45889 -0.960819,-4.22012 0.0039,-2.76855 0.972783,-4.21737 0.976193,-1.45614 2.814572,-1.45353 z" />
    <path
       id="path11635"
       style="font-size:15px;font-family:'DejaVu Sans';-inkscape-font-specification:DejaVuSans;fill:#0000ff"
       d="m 694.27153,448.55006 1.34765,0.004 q -0.26539,0.55582 -0.40631,1.12667 -0.14093,0.57086 -0.14263,1.12017 -0.005,1.46484 0.97453,2.23691 0.98636,0.77943 2.99285,0.8955 -0.62857,-0.42675 -0.96347,-1.07965 -0.33489,-0.6529 -0.33244,-1.4439 0.005,-1.64063 0.99681,-2.59703 0.99903,-0.94907 2.72021,-0.94374 1.68456,0.005 2.69955,1.00445 1.01497,0.99924 1.00985,2.6545 -0.006,1.89697 -1.46646,2.88855 -1.45329,0.99893 -4.22184,0.99036 -2.58543,-0.008 -4.12703,-1.24324 -1.53429,-1.22789 -1.52788,-3.30064 0.002,-0.55664 0.11335,-1.12759 0.11164,-0.57095 0.33326,-1.18549 z m 4.6271,2.95865 q -0.003,0.9961 0.67627,1.57681 0.67935,0.58805 1.86586,0.59172 1.1792,0.004 1.86216,-0.58018 0.69026,-0.57648 0.69335,-1.57258 0.003,-0.99608 -0.68359,-1.58415 -0.67935,-0.58071 -1.85855,-0.58436 -1.18651,-0.004 -1.86946,0.57283 -0.68296,0.58383 -0.68604,1.57991 z m -3.58018,-12.28304 -0.007,2.41698 8.34224,0.0258 -0.5192,-2.63101 1.34765,0.004 0.51925,2.61636 -0.005,1.47949 -9.68989,-0.03 -0.007,2.41698 -1.24511,-0.004 0.0195,-6.2988 z m -79.57351,81.39264 -0.004,1.34765 q -0.55582,-0.2654 -1.12668,-0.40633 -0.57086,-0.14092 -1.12017,-0.14262 -1.46484,-0.005 -2.23691,0.97453 -0.77943,0.98637 -0.89549,2.99285 0.42674,-0.62857 1.07964,-0.96346 0.65289,-0.3349 1.44391,-0.33245 1.64061,0.005 2.59702,0.9968 0.94906,0.99905 0.94374,2.72023 -0.005,1.68456 -1.00445,2.69953 -0.99923,1.01499 -2.65451,1.00987 -1.89696,-0.006 -2.88853,-1.46647 -0.99893,-1.45328 -0.99037,-4.22183 0.008,-2.58544 1.24325,-4.12703 1.22789,-1.53429 3.30063,-1.52788 0.55664,0.002 1.12758,0.11335 0.57095,0.11162 1.18551,0.33326 z m -2.95867,4.6271 q -0.99609,-0.003 -1.5768,0.67627 -0.58804,0.67934 -0.59172,1.86586 -0.004,1.17919 0.58019,1.86215 0.57647,0.69027 1.57256,0.69335 0.9961,0.003 1.58415,-0.68358 0.58073,-0.67936 0.58437,-1.85855 0.004,-1.18653 -0.57284,-1.86946 -0.58382,-0.68296 -1.57991,-0.68604 z m 12.2831,-3.58018 -2.41698,-0.007 -0.0258,8.34224 2.63102,-0.5192 -0.004,1.34764 -2.61637,0.51926 -1.47948,-0.005 0.03,-9.68989 -2.41698,-0.007 0.004,-1.24511 6.29879,0.0195 z M 256.47812,669.56631 q -1.05468,-0.003 -1.66434,0.55882 -0.60232,0.5621 -0.60538,1.55087 -0.003,0.98876 0.59578,1.55459 0.60616,0.56583 1.66085,0.5691 1.05468,0.003 1.66433,-0.55882 0.60968,-0.5694 0.61271,-1.55085 0.003,-0.98876 -0.6031,-1.5546 -0.59884,-0.56583 -1.66085,-0.56911 z m -1.47753,-0.63446 q -0.95142,-0.23731 -1.48407,-0.89082 -0.52533,-0.65348 -0.52243,-1.59098 0.004,-1.31103 0.93658,-2.06987 0.93985,-0.75881 2.56583,-0.75378 1.63329,0.005 2.56111,0.76964 0.92781,0.7646 0.92375,2.07563 -0.003,0.93749 -0.53957,1.58769 -0.52937,0.65022 -1.47491,0.88167 1.06856,0.25233 1.65958,0.97926 0.59834,0.72695 0.5951,1.77431 -0.005,1.58935 -0.98166,2.43594 -0.96943,0.84662 -2.7785,0.84102 -1.80907,-0.006 -2.78056,-0.85821 -0.96417,-0.8526 -0.95925,-2.44195 0.003,-1.04736 0.60607,-1.7706 0.60282,-0.72324 1.67293,-0.96895 z m -0.53476,-2.33808 q -0.003,0.8496 0.52323,1.3273 0.5332,0.47772 1.49266,0.48069 0.95215,0.003 1.48829,-0.47147 0.54346,-0.47439 0.54609,-1.32399 0.003,-0.84961 -0.53789,-1.32736 -0.53319,-0.47772 -1.48534,-0.48067 -0.95946,-0.003 -1.49561,0.47145 -0.52881,0.47444 -0.53143,1.32405 z m -10.44757,6.88177 2.41699,0.007 0.0258,-8.34225 -2.63102,0.51921 0.004,-1.34765 2.61637,-0.51925 1.47948,0.005 -0.03,9.68989 2.41698,0.007 -0.004,1.24511 -6.2988,-0.0195 z m 335.34223,-87.8092 q -1.05467,-0.003 -1.66432,0.55882 -0.60234,0.56211 -0.60539,1.55087 -0.003,0.98877 0.59578,1.55458 0.60616,0.56585 1.66084,0.56911 1.05468,0.003 1.66433,-0.55882 0.60968,-0.56941 0.61271,-1.55084 0.003,-0.98877 -0.6031,-1.55462 -0.59883,-0.56581 -1.66085,-0.5691 z m -1.47753,-0.63445 q -0.95142,-0.23732 -1.48407,-0.89083 -0.52532,-0.65348 -0.52242,-1.59098 0.004,-1.31103 0.93658,-2.06986 0.93986,-0.75882 2.56582,-0.75379 1.63329,0.005 2.56111,0.76965 0.92782,0.76458 0.92376,2.07562 -0.003,0.93749 -0.53958,1.58769 -0.52936,0.65022 -1.47491,0.88168 1.06857,0.25232 1.65958,0.97926 0.59834,0.72694 0.5951,1.7743 -0.005,1.58935 -0.98166,2.43594 -0.96942,0.84661 -2.7785,0.84102 -1.80907,-0.006 -2.78056,-0.85822 -0.96416,-0.85259 -0.95925,-2.44194 0.003,-1.04736 0.60607,-1.77059 0.60283,-0.72324 1.67293,-0.96895 z m -0.53476,-2.33809 q -0.003,0.8496 0.52324,1.3273 0.53319,0.47773 1.49266,0.4807 0.95214,0.003 1.48828,-0.47148 0.54346,-0.47439 0.54609,-1.324 0.003,-0.8496 -0.53789,-1.32735 -0.53319,-0.47773 -1.48534,-0.48067 -0.95946,-0.003 -1.4956,0.47145 -0.52881,0.47444 -0.53144,1.32405 z m -10.44755,6.88177 2.41698,0.007 0.0258,-8.34224 -2.63101,0.5192 0.004,-1.34765 2.61635,-0.51925 1.4795,0.005 -0.03,9.6899 2.41698,0.007 -0.004,1.24512 -6.2988,-0.0195 z m 197.78281,-36.12645 0.0217,-7.03121 0.62988,0.002 10.29284,4.00159 -0.005,1.54541 -9.67834,-3.76531 -0.0163,5.25143 z m 9.66233,8.94009 0.007,-2.41697 -8.34225,-0.0258 0.51921,2.63101 -1.34765,-0.004 -0.51925,-2.61636 0.005,-1.47949 9.68989,0.03 0.007,-2.41697 1.2451,0.004 -0.0195,6.2988 z m -630.04656,-5.4763 -0.0217,7.03122 -0.62988,-0.002 -10.29285,-4.00159 0.005,-1.5454 9.67834,3.76531 0.0162,-5.25144 z m -9.66233,-8.94009 -0.007,2.41698 8.34225,0.0258 -0.51921,-2.631 1.34765,0.004 0.51925,2.61636 -0.005,1.4795 -9.68989,-0.03 -0.007,2.41698 -1.24511,-0.004 0.0195,-6.2988 z M 769.91548,439.54103 q -0.003,0.99609 0.67626,1.58413 0.67936,0.58072 1.86587,0.58439 1.1792,0.004 1.86947,-0.57283 0.68295,-0.58383 0.68604,-1.57992 0.003,-0.99609 -0.67628,-1.57681 -0.68666,-0.58806 -1.86586,-0.59171 -1.18651,-0.004 -1.86947,0.58016 -0.68295,0.5765 -0.68603,1.57259 z m -4.62712,-2.95134 1.34765,0.004 q -0.26539,0.55583 -0.40632,1.12668 -0.1409,0.56353 -0.14262,1.12017 -0.005,1.46483 0.98183,2.24425 0.98639,0.7721 2.98555,0.88815 -0.63587,-0.4341 -0.97076,-1.08699 -0.34223,-0.65292 -0.3398,-1.4366 0.005,-1.64794 1.01146,-2.59699 0.99905,-0.95638 2.72023,-0.95106 1.68456,0.005 2.69955,1.00445 1.01498,0.99923 1.00986,2.65451 -0.006,1.89696 -1.45916,2.89589 -1.46062,0.9989 -4.22184,0.99036 -2.59276,-0.008 -4.12703,-1.24324 -1.5416,-1.23525 -1.53519,-3.308 0.002,-0.55663 0.11333,-1.12025 0.11164,-0.57095 0.33326,-1.1855 z m 9.40004,15.597 0.007,-2.41699 -8.34225,-0.0258 0.51921,2.63102 -1.34765,-0.004 -0.51926,-2.61637 0.005,-1.47948 9.6899,0.03 0.007,-2.41698 1.2451,0.004 -0.0195,6.2988 z M 199.299,525.16108 q 0.9961,0.003 1.58413,-0.67626 0.58073,-0.67935 0.5844,-1.86587 0.004,-1.17919 -0.57284,-1.86946 -0.58382,-0.68296 -1.57992,-0.68604 -0.99608,-0.003 -1.5768,0.67628 -0.58807,0.68666 -0.59171,1.86586 -0.004,1.18651 0.58016,1.86947 0.5765,0.68294 1.57258,0.68602 z m -2.95134,4.62712 0.004,-1.34764 q 0.55582,0.26539 1.12668,0.40631 0.56353,0.14091 1.12018,0.14263 1.46483,0.005 2.24425,-0.98183 0.7721,-0.98639 0.88814,-2.98555 -0.4341,0.63587 -1.08699,0.97076 -0.65292,0.34222 -1.4366,0.3398 -1.64795,-0.005 -2.59699,-1.01146 -0.95638,-0.99905 -0.95106,-2.72023 0.005,-1.68458 1.00445,-2.69955 0.99924,-1.01498 2.65451,-1.00986 1.89696,0.006 2.89589,1.45916 0.9989,1.46062 0.99036,4.22184 -0.008,2.59275 -1.24324,4.12703 -1.23525,1.5416 -3.30799,1.53518 -0.55663,-0.002 -1.12026,-0.11333 -0.57095,-0.11163 -1.1855,-0.33326 z m 15.59699,-9.40004 -2.41699,-0.007 -0.0258,8.34225 2.63102,-0.51922 -0.004,1.34766 -2.61637,0.51925 -1.47948,-0.005 0.03,-9.6899 -2.41698,-0.007 0.004,-1.24512 6.2988,0.0195 z m 493.39395,-187.7364 -0.018,5.80808 -1.24512,-0.004 0.0138,-4.45311 -2.68065,-0.008 q 0.10886,0.32261 0.15914,0.64502 0.0576,0.32245 0.0566,0.64471 -0.006,1.83105 -1.01237,2.89728 -1.00673,1.06622 -2.72059,1.06092 -1.76513,-0.005 -2.74317,-1.10712 -0.97071,-1.10164 -0.96453,-3.10115 0.002,-0.68846 0.12153,-1.40588 0.11939,-0.71008 0.35612,-1.47106 l 1.48681,0.005 q -0.36092,0.65806 -0.53888,1.36064 -0.17796,0.70258 -0.18038,1.48626 -0.004,1.26709 0.66029,2.00889 0.66421,0.7418 1.80679,0.74534 1.14257,0.004 1.81136,-0.73415 0.66879,-0.73768 0.67271,-2.00476 0.002,-0.59326 -0.12817,-1.18693 -0.13002,-0.58634 -0.40644,-1.20243 z m -9.66113,-9.32824 -0.007,2.41698 8.34224,0.0258 -0.51921,-2.63101 1.34765,0.004 0.51926,2.61637 -0.005,1.47948 -9.68989,-0.03 -0.007,2.41698 -1.24511,-0.004 0.0195,-6.2988 z m -162.80818,149.76649 0.018,-5.80807 1.24512,0.004 -0.0138,4.4531 2.68065,0.008 q -0.10886,-0.3226 -0.15914,-0.64502 -0.0576,-0.32245 -0.0566,-0.64471 0.006,-1.83105 1.01238,-2.89727 1.00673,-1.06624 2.72059,-1.06093 1.76512,0.005 2.74317,1.10712 0.97071,1.10165 0.96453,3.10115 -0.002,0.68847 -0.12154,1.40588 -0.11938,0.71008 -0.35611,1.47107 l -1.48682,-0.005 q 0.36093,-0.65806 0.53889,-1.36065 0.17795,-0.70257 0.18037,-1.48626 0.004,-1.26708 -0.66029,-2.00889 -0.6642,-0.74181 -1.80678,-0.74534 -1.14257,-0.004 -1.81136,0.73415 -0.66879,0.73768 -0.67271,2.00477 -0.002,0.59325 0.12817,1.18692 0.13001,0.58634 0.40643,1.20243 z m 9.66113,9.32824 0.007,-2.41698 -8.34224,-0.0258 0.51921,2.631 -1.34766,-0.004 -0.51925,-2.61636 0.005,-1.4795 9.68989,0.03 0.007,-2.41698 1.24511,0.004 -0.0195,6.2988 z m -328.99003,-202.66286 3.75339,-5.82583 -3.73533,-0.0115 z m 0.38419,1.29025 -1.86034,-0.006 0.022,-7.12644 -1.56006,-0.005 0.004,-1.23047 1.56005,0.005 0.008,-2.57811 1.47216,0.005 -0.008,2.57811 4.93649,0.0153 -0.004,1.42823 z m 12.99033,-9.6498 -2.41699,-0.007 -0.0258,8.34224 2.63102,-0.5192 -0.004,1.34764 -2.61637,0.51926 -1.47948,-0.005 0.03,-9.6899 -2.41697,-0.007 0.004,-1.24512 6.2988,0.0195 z m 371.24256,94.44836 3.75339,-5.82583 -3.73533,-0.0115 z m 0.38419,1.29026 -1.86034,-0.006 0.022,-7.12644 -1.56005,-0.005 0.004,-1.23047 1.56005,0.005 0.008,-2.57811 1.47216,0.005 -0.008,2.5781 4.93649,0.0153 -0.004,1.42822 z m 12.99031,-9.64981 -2.41698,-0.007 -0.0258,8.34224 2.63101,-0.51921 -0.004,1.34765 -2.61637,0.51926 -1.47948,-0.005 0.03,-9.68989 -2.41698,-0.007 0.004,-1.24512 6.2988,0.0195 z m 0.59204,153.99717 q 1.06131,0.23033 1.65234,0.94994 0.59837,0.71962 0.59511,1.77431 -0.005,1.61864 -1.12103,2.50142 -1.11602,0.88278 -3.16679,0.87644 -0.68847,-0.002 -1.42046,-0.14356 -0.72468,-0.13407 -1.50021,-0.40747 l 0.004,-1.42821 q 0.61411,0.36079 1.34597,0.54615 0.73185,0.18538 1.53019,0.18785 1.39159,0.004 2.11839,-0.54277 0.73411,-0.54705 0.73735,-1.59441 0.003,-0.96679 -0.67648,-1.51089 -0.67212,-0.55139 -1.88062,-0.55513 l -1.2744,-0.004 0.004,-1.21582 1.333,0.004 q 1.09131,0.003 1.67125,-0.42695 0.57997,-0.43767 0.58251,-1.25798 0.003,-0.84227 -0.59659,-1.29091 -0.59187,-0.45593 -1.70514,-0.45938 -0.60791,-0.002 -1.30411,0.1278 -0.69621,0.12969 -1.53202,0.40542 l 0.004,-1.31835 q 0.84301,-0.23177 1.57579,-0.34669 0.74009,-0.1149 1.39195,-0.11288 1.68456,0.005 2.66362,0.77728 0.97909,0.76475 0.97506,2.06846 -0.003,0.90819 -0.52478,1.53647 -0.52194,0.62095 -1.48216,0.85968 z m -13.78037,4.60826 2.41698,0.007 0.0258,-8.34224 -2.63102,0.5192 0.004,-1.34764 2.61637,-0.51926 1.47948,0.005 -0.03,9.68989 2.41698,0.007 -0.004,1.24511 -6.29879,-0.0195 z M 227.51087,425.39301 q 1.0613,0.23034 1.65234,0.94995 0.59837,0.71962 0.59511,1.77431 -0.005,1.61864 -1.12103,2.50142 -1.11601,0.88278 -3.16679,0.87644 -0.68847,-0.002 -1.42046,-0.14356 -0.72469,-0.13407 -1.50021,-0.40747 l 0.004,-1.42821 q 0.61413,0.36079 1.34598,0.54615 0.73185,0.18538 1.53019,0.18785 1.39159,0.004 2.11839,-0.54277 0.73411,-0.54705 0.73735,-1.59441 0.003,-0.96679 -0.67648,-1.51089 -0.67212,-0.5514 -1.88062,-0.55514 l -1.2744,-0.004 0.004,-1.21581 1.333,0.004 q 1.09131,0.003 1.67125,-0.42695 0.57997,-0.43767 0.5825,-1.25798 0.003,-0.84228 -0.59658,-1.29091 -0.59187,-0.45593 -1.70514,-0.45938 -0.60791,-0.002 -1.30411,0.1278 -0.69621,0.12969 -1.53203,0.40542 l 0.004,-1.31835 q 0.84301,-0.23177 1.57579,-0.34669 0.7401,-0.1149 1.39196,-0.11288 1.68456,0.005 2.66363,0.77728 0.97908,0.76475 0.97504,2.06846 -0.003,0.90819 -0.52477,1.53647 -0.52195,0.62095 -1.48216,0.85967 z m -13.7804,4.60827 2.41698,0.007 0.0258,-8.34224 -2.63101,0.5192 0.004,-1.34764 2.61636,-0.51926 1.47949,0.005 -0.03,9.68989 2.41698,0.007 -0.004,1.24511 -6.29879,-0.0195 z m -163.72815,32.16205 -0.01597,5.16354 -1.245112,-0.004 0.02148,-6.94332 1.245112,0.004 q 0.868972,0.84498 2.329322,2.29969 1.467653,1.46207 1.8913,1.83692 0.796139,0.71292 1.344591,0.99294 0.555755,0.28736 1.09042,0.28901 0.871578,0.003 1.422794,-0.61083 0.551195,-0.60621 0.554231,-1.58765 0.0022,-0.6958 -0.237143,-1.4729 -0.23932,-0.7698 -0.727321,-1.65021 l 1.494133,0.005 q 0.356121,0.89466 0.536823,1.67159 0.180704,0.77693 0.17871,1.42146 -0.0053,1.69921 -0.857988,2.70732 -0.852732,1.00811 -2.273624,1.00371 -0.673824,-0.002 -1.28094,-0.26031 -0.599811,-0.25088 -1.418059,-0.91992 -0.211834,-0.18376 -1.22686,-1.16836 -1.007701,-0.98456 -2.825894,-2.7773 z m 0.03266,-10.55803 -0.0075,2.41699 8.342245,0.0258 -0.519207,-2.63101 1.347649,0.004 0.519253,2.61637 -0.0046,1.47949 -9.689895,-0.03 -0.0075,2.41698 -1.245112,-0.004 0.01948,-6.2988 z m 493.03767,-143.97851 0.016,-5.16354 1.24511,0.004 -0.0215,6.94332 -1.24511,-0.004 q -0.86897,-0.84498 -2.32932,-2.29969 -1.46766,-1.46207 -1.8913,-1.83692 -0.79614,-0.71292 -1.34459,-0.99294 -0.55576,-0.28736 -1.09043,-0.28901 -0.87157,-0.003 -1.42278,0.61083 -0.5512,0.60621 -0.55424,1.58765 -0.002,0.6958 0.23715,1.47291 0.23932,0.76979 0.72732,1.65021 l -1.49413,-0.005 q -0.35613,-0.89467 -0.53683,-1.6716 -0.1807,-0.77692 -0.17871,-1.42145 0.005,-1.69921 0.85799,-2.70732 0.85273,-1.00811 2.27362,-1.00372 0.67383,0.002 1.28095,0.26032 0.5998,0.25087 1.41806,0.91992 0.21183,0.18375 1.22685,1.16835 1.00771,0.98456 2.8259,2.7773 z m -0.0327,10.55803 0.007,-2.41698 -8.34225,-0.0258 0.51921,2.63101 -1.34765,-0.004 -0.51925,-2.61637 0.005,-1.47949 9.6899,0.03 0.007,-2.41698 1.24511,0.004 -0.0195,6.2988 z m -492.677142,26.87081 -0.0075,2.41699 8.342245,0.0258 -0.519207,-2.63102 1.34765,0.004 0.519252,2.61637 -0.0046,1.47948 -9.689895,-0.03 -0.0075,2.41697 -1.245111,-0.004 0.01948,-6.2988 z m 0.02951,-9.53996 -0.0075,2.41699 8.342245,0.0258 -0.519208,-2.63101 1.347651,0.004 0.519252,2.61637 -0.0046,1.47949 -9.689895,-0.03 -0.0075,2.41698 -1.245111,-0.004 0.01948,-6.2988 z m 572.504441,-68.38878 2.41698,0.007 0.0258,-8.34224 -2.63102,0.51921 0.004,-1.34766 2.61637,-0.51925 1.47948,0.005 -0.03,9.68989 2.41698,0.007 -0.004,1.24512 -6.2988,-0.0195 z m -9.53993,-0.0295 2.41698,0.007 0.0258,-8.34224 -2.63102,0.51921 0.004,-1.34766 2.61637,-0.51925 1.47948,0.005 -0.03,9.68989 2.41698,0.007 -0.004,1.24511 -6.29879,-0.0195 z M 59.423289,234.5961 q 0.0035,-1.14256 -1.122599,-1.72467 -1.118834,-0.57475 -3.374682,-0.58173 -2.248524,-0.007 -3.378216,0.56084 -1.122391,0.57515 -1.125925,1.71772 -0.0036,1.1499 1.115276,1.72465 1.126135,0.5821 3.374659,0.58906 2.255848,0.007 3.378239,-0.56817 1.129691,-0.56779 1.133248,-1.7177 z m 1.171869,0.004 q -0.0057,1.83837 -1.466189,2.80066 -1.453203,0.96963 -4.221744,0.96106 -2.761217,-0.009 -4.215716,-0.98716 -1.447198,-0.97129 -1.441511,-2.80966 0.0057,-1.83837 1.458889,-2.808 1.460503,-0.96227 4.22172,-0.95373 2.768541,0.009 4.215739,0.97983 1.454499,0.97863 1.448812,2.817 z m -9.849142,-12.4786 -0.0075,2.41698 8.342245,0.0258 -0.519208,-2.63102 1.347651,0.004 0.519252,2.61636 -0.0046,1.47949 -9.689895,-0.03 -0.0075,2.41698 -1.245111,-0.004 0.01948,-6.29879 z m 631.030224,2.22693 q -0.004,1.14258 1.1226,1.72467 1.11884,0.57476 3.37468,0.58173 2.24852,0.007 3.37822,-0.56084 1.12238,-0.57514 1.12592,-1.71771 0.004,-1.1499 -1.11527,-1.72465 -1.12614,-0.5821 -3.37467,-0.58905 -2.25584,-0.007 -3.37823,0.56816 -1.12969,0.5678 -1.13325,1.71769 z m -1.17188,-0.004 q 0.006,-1.83837 1.4662,-2.80065 1.4532,-0.96963 4.22174,-0.96107 2.76122,0.009 4.21571,0.98717 1.44721,0.97127 1.44152,2.80964 -0.006,1.83837 -1.45889,2.808 -1.46051,0.96229 -4.22172,0.95375 -2.76854,-0.009 -4.21574,-0.97985 -1.4545,-0.97862 -1.44882,-2.81699 z m 9.84915,12.47861 0.007,-2.41697 -8.34224,-0.0258 0.5192,2.63101 -1.34765,-0.004 -0.51925,-2.61636 0.005,-1.47949 9.68989,0.03 0.007,-2.41698 1.24511,0.004 -0.0195,6.2988 z m -436.2094,-130.505 -0.004,1.34766 q -0.55582,-0.2654 -1.12668,-0.40632 -0.57085,-0.14093 -1.12017,-0.14263 -1.46483,-0.005 -2.23691,0.97453 -0.77942,0.98636 -0.8955,2.99285 0.42676,-0.62857 1.07966,-0.96346 0.65289,-0.3349 1.4439,-0.33245 1.64061,0.005 2.59702,0.99681 0.94907,0.99903 0.94374,2.72021 -0.005,1.68456 -1.00444,2.69955 -0.99925,1.01497 -2.65451,1.00985 -1.89696,-0.006 -2.88855,-1.46646 -0.99892,-1.45329 -0.99035,-4.22183 0.008,-2.58544 1.24324,-4.12704 1.22789,-1.53429 3.30063,-1.52788 0.55664,0.002 1.12759,0.11335 0.57094,0.11164 1.1855,0.33326 z m -2.95867,4.6271 q -0.99608,-0.003 -1.57681,0.67628 -0.58803,0.67934 -0.5917,1.86586 -0.004,1.17919 0.58017,1.86215 0.57649,0.69027 1.57257,0.69335 0.9961,0.003 1.58416,-0.68359 0.58072,-0.67935 0.58437,-1.85855 0.004,-1.18651 -0.57284,-1.86946 -0.58382,-0.68296 -1.57992,-0.68604 z m 325.31388,81.26919 -0.004,1.34765 q -0.55582,-0.2654 -1.12668,-0.40632 -0.57085,-0.14093 -1.12016,-0.14263 -1.46484,-0.005 -2.23692,0.97454 -0.77942,0.98636 -0.89549,2.99284 0.42675,-0.62856 1.07965,-0.96345 0.6529,-0.33491 1.4439,-0.33246 1.64062,0.005 2.59703,0.99681 0.94906,0.99904 0.94374,2.72022 -0.005,1.68456 -1.00446,2.69954 -0.99923,1.01498 -2.65449,1.00986 -1.89697,-0.006 -2.88855,-1.46646 -0.99893,-1.45329 -0.99036,-4.22183 0.008,-2.58544 1.24324,-4.12704 1.2279,-1.53429 3.30064,-1.52788 0.55664,0.002 1.12759,0.11335 0.57094,0.11163 1.18549,0.33326 z m -2.95866,4.6271 q -0.99609,-0.003 -1.57681,0.67628 -0.58804,0.67933 -0.59171,1.86586 -0.004,1.17919 0.58018,1.86215 0.57648,0.69027 1.57257,0.69335 0.99609,0.003 1.58416,-0.68359 0.58071,-0.67935 0.58436,-1.85855 0.004,-1.18652 -0.57283,-1.86946 -0.58383,-0.68296 -1.57992,-0.68604 z M 362.6581,633.12067 q -0.003,1.05469 0.55881,1.66434 0.56211,0.60232 1.55088,0.60538 0.98876,0.003 1.55458,-0.59578 0.56585,-0.60616 0.56911,-1.66084 0.003,-1.05469 -0.55883,-1.66434 -0.5694,-0.60967 -1.55084,-0.61271 -0.98876,-0.003 -1.55461,0.6031 -0.56582,0.59885 -0.5691,1.66085 z m -0.63445,1.47754 q -0.23733,0.95142 -0.89084,1.48407 -0.65348,0.52532 -1.59097,0.52242 -1.31104,-0.004 -2.06987,-0.93658 -0.75881,-0.93985 -0.75378,-2.56582 0.005,-1.6333 0.76964,-2.56111 0.76459,-0.92781 2.07562,-0.92376 0.9375,0.003 1.58769,0.53958 0.65023,0.52936 0.88168,1.4749 0.25233,-1.06855 0.97926,-1.65958 0.72694,-0.59833 1.77431,-0.59509 1.58934,0.005 2.43593,0.98166 0.84662,0.96942 0.84102,2.77849 -0.006,1.80907 -0.85821,2.78056 -0.8526,0.96417 -2.44194,0.95925 -1.04737,-0.003 -1.77059,-0.60607 -0.72324,-0.60282 -0.96895,-1.67292 z m -2.3381,0.53476 q 0.84961,0.003 1.32731,-0.52324 0.47773,-0.5332 0.48069,-1.49266 0.003,-0.95215 -0.47147,-1.48829 -0.47439,-0.54346 -1.324,-0.54608 -0.84961,-0.003 -1.32735,0.53788 -0.47773,0.5332 -0.48068,1.48534 -0.003,0.95947 0.47146,1.49561 0.47443,0.52881 1.32404,0.53144 z m 53.281,-49.98056 q -1.05469,-0.003 -1.66434,0.55882 -0.60232,0.5621 -0.60538,1.55087 -0.003,0.98876 0.59577,1.55458 0.60617,0.56584 1.66085,0.56911 1.05469,0.003 1.66434,-0.55883 0.60967,-0.56939 0.61271,-1.55084 0.003,-0.98877 -0.60311,-1.5546 -0.59884,-0.56583 -1.66084,-0.56911 z m -1.47754,-0.63446 q -0.95142,-0.23732 -1.48407,-0.89082 -0.52532,-0.65349 -0.52242,-1.59099 0.004,-1.31102 0.93658,-2.06986 0.93985,-0.75881 2.56582,-0.75379 1.63329,0.005 2.56111,0.76965 0.92781,0.76459 0.92376,2.07562 -0.003,0.93749 -0.53959,1.5877 -0.52935,0.65021 -1.47489,0.88167 1.06855,0.25233 1.65957,0.97926 0.59834,0.72695 0.5951,1.77431 -0.005,1.58935 -0.98166,2.43594 -0.96942,0.84661 -2.77849,0.84101 -1.80908,-0.006 -2.78056,-0.8582 -0.96417,-0.8526 -0.95925,-2.44195 0.003,-1.04736 0.60606,-1.7706 0.60283,-0.72324 1.67293,-0.96895 z m -0.53477,-2.33809 q -0.003,0.8496 0.52325,1.32731 0.53319,0.47772 1.49266,0.48069 0.95214,0.003 1.48828,-0.47147 0.54346,-0.4744 0.54609,-1.324 0.003,-0.84961 -0.53788,-1.32735 -0.5332,-0.47774 -1.48534,-0.48068 -0.95947,-0.003 -1.49561,0.47146 -0.52882,0.47443 -0.53145,1.32404 z m -290.86809,-237.99812 0.0217,-7.03121 0.62987,0.002 10.29286,4.00158 -0.005,1.54541 -9.67833,-3.76531 -0.0162,5.25143 z m 84.00342,-88.04155 7.03122,0.0217 -0.002,0.62988 -4.00159,10.29285 -1.54541,-0.005 3.76531,-9.67834 -5.25143,-0.0163 z m 159.2117,-109.93644 q -0.003,0.99609 0.67625,1.58413 0.67937,0.58072 1.86588,0.58439 1.1792,0.004 1.86945,-0.57283 0.68297,-0.58383 0.68605,-1.57992 0.003,-0.99609 -0.67628,-1.57681 -0.68665,-0.58807 -1.86585,-0.59171 -1.18651,-0.004 -1.86948,0.58016 -0.68294,0.5765 -0.68602,1.57259 z m -4.62712,-2.95134 1.34765,0.004 q -0.2654,0.55582 -0.40633,1.12668 -0.1409,0.56353 -0.14262,1.12017 -0.005,1.46484 0.98183,2.24425 0.98639,0.77211 2.98555,0.88815 -0.63586,-0.4341 -0.97077,-1.08699 -0.34221,-0.65292 -0.33978,-1.4366 0.005,-1.64795 1.01145,-2.59699 0.99906,-0.95638 2.72024,-0.95106 1.68456,0.005 2.69955,1.00445 1.01497,0.99923 1.00985,2.65451 -0.006,1.89696 -1.45916,2.89589 -1.46061,0.9989 -4.22183,0.99036 -2.59277,-0.008 -4.12703,-1.24324 -1.5416,-1.23525 -1.53519,-3.30799 0.002,-0.55664 0.11333,-1.12026 0.11162,-0.57095 0.33326,-1.1855 z m 53.29649,54.28559 q 0.9961,0.003 1.58413,-0.67625 0.58073,-0.67936 0.5844,-1.86587 0.004,-1.1792 -0.57284,-1.86946 -0.58382,-0.68296 -1.57992,-0.68604 -0.99608,-0.003 -1.5768,0.67627 -0.58806,0.68667 -0.59171,1.86586 -0.004,1.18651 0.58016,1.86947 0.5765,0.68294 1.57258,0.68602 z m -2.95133,4.62713 0.004,-1.34765 q 0.55583,0.26539 1.12668,0.40632 0.56354,0.1409 1.12018,0.14262 1.46483,0.005 2.24426,-0.98183 0.77209,-0.98638 0.88814,-2.98555 -0.4341,0.63587 -1.08699,0.97077 -0.65292,0.34222 -1.43661,0.33979 -1.64794,-0.005 -2.59698,-1.01145 -0.95639,-0.99906 -0.95106,-2.72024 0.005,-1.68456 1.00445,-2.69954 0.99924,-1.01499 2.6545,-1.00987 1.89697,0.006 2.89589,1.45917 0.9989,1.46061 0.99036,4.22183 -0.008,2.59276 -1.24324,4.12703 -1.23524,1.5416 -3.30798,1.53519 -0.55664,-0.002 -1.12027,-0.11333 -0.57094,-0.11163 -1.18549,-0.33326 z m 356.34975,129.49492 0.018,-5.80807 1.2451,0.004 -0.0138,4.4531 2.68066,0.008 q -0.10886,-0.3226 -0.15913,-0.64502 -0.0576,-0.32244 -0.0566,-0.64471 0.006,-1.83104 1.01239,-2.89727 1.00672,-1.06623 2.72058,-1.06093 1.76512,0.005 2.74317,1.10713 0.97072,1.10164 0.96453,3.10114 -0.002,0.68847 -0.12154,1.40588 -0.11938,0.71008 -0.35611,1.47107 l -1.48681,-0.005 q 0.36093,-0.65806 0.53888,-1.36065 0.17795,-0.70257 0.18038,-1.48625 0.004,-1.26709 -0.66029,-2.0089 -0.66422,-0.74179 -1.80678,-0.74533 -1.14258,-0.004 -1.81137,0.73414 -0.66879,0.73769 -0.67271,2.00477 -0.002,0.59326 0.12817,1.18692 0.13002,0.58635 0.40643,1.20243 z m -473.65149,141.86092 -0.018,5.80808 -1.24511,-0.004 0.0138,-4.45311 -2.68064,-0.008 q 0.10886,0.32261 0.15913,0.64502 0.0576,0.32245 0.0566,0.64472 -0.006,1.83104 -1.01238,2.89727 -1.00672,1.06623 -2.72059,1.06092 -1.76513,-0.005 -2.74316,-1.10712 -0.97072,-1.10164 -0.96454,-3.10115 0.002,-0.68846 0.12154,-1.40588 0.11938,-0.71007 0.35612,-1.47106 l 1.4868,0.005 q -0.36092,0.65806 -0.53887,1.36064 -0.17796,0.70258 -0.18038,1.48627 -0.004,1.26708 0.66029,2.00888 0.66421,0.74181 1.80678,0.74534 1.14258,0.004 1.81136,-0.73415 0.6688,-0.73767 0.67272,-2.00476 0.002,-0.59325 -0.12817,-1.18693 -0.13002,-0.58633 -0.40644,-1.20243 z m -170.68632,-17.27388 5.82581,3.7534 0.0116,-3.73534 z m -1.29026,0.3842 0.006,-1.86034 7.12642,0.022 0.005,-1.56005 1.23046,0.004 -0.005,1.56005 2.57811,0.008 -0.005,1.47215 -2.57812,-0.008 -0.0153,4.9365 -1.42821,-0.004 z m 171.18533,-143.65297 -5.82583,-3.75339 -0.0115,3.73534 z m 1.29025,-0.38419 -0.006,1.86034 -7.12644,-0.022 -0.005,1.56005 -1.23046,-0.004 0.005,-1.56006 -2.57812,-0.008 0.005,-1.47217 2.57811,0.008 0.0153,-4.9365 1.42822,0.004 z M 737.0582,585.45214 q 1.0613,0.23033 1.65235,0.94994 0.59836,0.71963 0.59509,1.77431 -0.005,1.61865 -1.12102,2.50143 -1.11602,0.88278 -3.16679,0.87644 -0.68847,-0.002 -1.42046,-0.14356 -0.72469,-0.13408 -1.50022,-0.40747 l 0.004,-1.42822 q 0.61413,0.36079 1.34598,0.54616 0.73185,0.18537 1.53019,0.18784 1.39159,0.004 2.11839,-0.54276 0.73411,-0.54706 0.73735,-1.59441 0.003,-0.9668 -0.67648,-1.51089 -0.67213,-0.5514 -1.88061,-0.55514 l -1.27441,-0.004 0.004,-1.21582 1.333,0.004 q 1.09131,0.003 1.67125,-0.42697 0.57998,-0.43765 0.58251,-1.25796 0.003,-0.84229 -0.5966,-1.29092 -0.59185,-0.45593 -1.70512,-0.45938 -0.60791,-0.002 -1.30411,0.12781 -0.69621,0.12967 -1.53204,0.40541 l 0.004,-1.31834 q 0.84301,-0.23178 1.57579,-0.3467 0.74011,-0.11489 1.39196,-0.11287 1.68456,0.005 2.66363,0.77728 0.97908,0.76475 0.97504,2.06845 -0.003,0.9082 -0.52477,1.53647 -0.52194,0.62095 -1.48216,0.85968 z m -598.04183,50.48149 q -0.23034,1.0613 -0.94994,1.65234 -0.71963,0.59836 -1.77432,0.5951 -1.61864,-0.005 -2.50142,-1.12102 -0.88278,-1.11602 -0.87644,-3.1668 0.002,-0.68846 0.14355,-1.42045 0.13409,-0.72469 0.40748,-1.50022 l 1.42822,0.004 q -0.36079,0.61413 -0.54617,1.34598 -0.18536,0.73185 -0.18783,1.53018 -0.004,1.3916 0.54277,2.11839 0.54704,0.73412 1.5944,0.73736 0.96679,0.003 1.51089,-0.67648 0.5514,-0.67213 0.55514,-1.88062 l 0.004,-1.27441 1.21581,0.004 -0.004,1.33301 q -0.003,1.0913 0.42696,1.67125 0.43766,0.57996 1.25798,0.5825 0.84227,0.003 1.29091,-0.59659 0.45593,-0.59185 0.45937,-1.70514 0.002,-0.6079 -0.1278,-1.30411 -0.12968,-0.6962 -0.40542,-1.53202 l 1.31836,0.004 q 0.23176,0.84301 0.34669,1.57579 0.1149,0.7401 0.11288,1.39196 -0.005,1.68456 -0.77729,2.66362 -0.76476,0.97908 -2.06846,0.97505 -0.90819,-0.003 -1.53646,-0.52478 -0.62095,-0.52194 -0.85968,-1.48215 z m 409.02541,-160.296 -0.016,5.16355 -1.24511,-0.004 0.0215,-6.94333 1.24511,0.004 q 0.86897,0.84497 2.32932,2.29969 1.46765,1.46207 1.89131,1.83691 0.79613,0.71292 1.34458,0.99294 0.55575,0.28737 1.09042,0.28902 0.87158,0.003 1.4228,-0.61084 0.5512,-0.60621 0.55423,-1.58764 0.002,-0.6958 -0.23714,-1.47292 -0.23932,-0.76978 -0.72732,-1.6502 l 1.49413,0.005 q 0.35612,0.89466 0.53682,1.67159 0.1807,0.77693 0.17871,1.42146 -0.005,1.69921 -0.85799,2.70732 -0.85273,1.0081 -2.27362,1.00371 -0.67382,-0.002 -1.28094,-0.26031 -0.59982,-0.25088 -1.41806,-0.91992 -0.21183,-0.18376 -1.22686,-1.16835 -1.0077,-0.98457 -2.82589,-2.77731 z m 188.03729,-185.69301 -5.16354,-0.016 0.004,-1.24511 6.94333,0.0215 -0.004,1.24511 q -0.84498,0.86897 -2.29969,2.32933 -1.46207,1.46764 -1.83692,1.8913 -0.71292,0.79613 -0.99294,1.34458 -0.28736,0.55575 -0.28901,1.09042 -0.003,0.87158 0.61083,1.4228 0.60621,0.5512 1.58765,0.55423 0.6958,0.002 1.47291,-0.23714 0.76979,-0.23932 1.65021,-0.72732 l -0.005,1.49413 q -0.89467,0.35612 -1.6716,0.53682 -0.77692,0.1807 -1.42145,0.17871 -1.69921,-0.005 -2.70733,-0.85798 -1.0081,-0.85273 -1.00371,-2.27363 0.002,-0.67382 0.26032,-1.28094 0.25087,-0.59982 0.91992,-1.41806 0.18375,-0.21183 1.16835,-1.22686 0.98456,-1.0077 2.7773,-2.82589 z m -459.04316,22.70457 0.007,-2.41698 -8.34225,-0.0258 0.51921,2.63101 -1.34765,-0.004 -0.51925,-2.61636 0.005,-1.47949 9.68989,0.03 0.007,-2.41698 1.24511,0.004 -0.0195,6.2988 z M 88.204381,497.5378 l 2.416981,0.007 0.02581,-8.34224 -2.631014,0.5192 0.0042,-1.34764 2.616365,-0.51926 1.479486,0.005 -0.02998,9.68989 2.41698,0.007 -0.0039,1.24511 -6.298797,-0.0195 z M 89.52677,200.44222 q 1.142573,0.004 1.724672,-1.1226 0.574753,-1.11883 0.581731,-3.37467 0.007,-2.24853 -0.560841,-3.37823 -0.575144,-1.12238 -1.717717,-1.12591 -1.149897,-0.004 -1.72465,1.11527 -0.582099,1.12613 -0.589055,3.37466 -0.007,2.25585 0.568165,3.37823 0.567798,1.1297 1.717695,1.13325 z m -0.0036,1.17188 q -1.83837,-0.006 -2.800654,-1.46619 -0.96963,-1.45321 -0.961066,-4.22175 0.0085,-2.76121 0.987167,-4.21571 0.971278,-1.44721 2.809648,-1.44152 1.838371,0.006 2.808001,1.45889 0.962284,1.46051 0.953742,4.22173 -0.0086,2.76853 -0.979843,4.21573 -0.978625,1.4545 -2.816995,1.44882 z m 55.06723,-53.92441 q 0.004,-1.14256 -1.1226,-1.72467 -1.11884,-0.57475 -3.37468,-0.58173 -2.24853,-0.007 -3.37822,0.56084 -1.1224,0.57516 -1.12593,1.71772 -0.004,1.1499 1.11528,1.72466 1.12613,0.58209 3.37466,0.58905 2.25584,0.007 3.37824,-0.56816 1.12969,-0.5678 1.13325,-1.71771 z m 1.17186,0.004 q -0.006,1.83837 -1.46618,2.80066 -1.45321,0.96963 -4.22174,0.96106 -2.76123,-0.009 -4.21572,-0.98716 -1.4472,-0.97128 -1.44152,-2.80966 0.006,-1.83836 1.4589,-2.808 1.46049,-0.96227 4.22172,-0.95373 2.76854,0.009 4.21574,0.97983 1.45449,0.97864 1.4488,2.817 z" />
    <path
       id="path10239"
       style="fill:none;stroke:#ff0000;stroke-width:1;stroke-linecap:butt;stroke-linejoin:miter;stroke-miterlimit:10;stroke-dasharray:none;stroke-opacity:1"
       d="m 692.32692,519.12608 -14.90022,-33.15565 0.2515,-80.93932 15.10076,-33.06264 m -147.61366,146.70561 147.16162,0.452 M 369.21499,676.60952 131.4954,675.87233 m 560.60153,-83.1634 -53.53203,14.83283 -130.74657,-0.4039 -53.43999,-15.16513 m 322.84515,-72.58283 -0.22602,73.5788 m -645.23829,-1.99595 -14.95009,-16.60058 0.12527,-40.46766 15.05083,-16.51157 m 645.6943,-145.1657 -0.456,147.16266 m -645.2383,-1.99696 33.1597,-14.89624 80.93531,0.25153 33.06765,15.10171 m 413.63111,-145.88147 -14.93746,-19.1518 0.14169,-46.69403 15.05954,-19.05475 M 545.42908,433.7735 545.1653,518.67408 m 119.36597,-163.77165 -0.2434,79.23918 m -503.22982,-165.69608 118.85979,0.36809 m 265.75364,85.72071 26.79228,-14.91543 65.37127,0.20097 26.69624,15.08256 m -0.50721,164.13575 -118.85876,-0.3641 m -265.75367,-85.72471 -26.79225,14.91943 -65.3723,-0.20496 -26.69924,-15.08253 m 0,0 0.24743,-79.23622 m -113.655434,146.81094 0.26375,-84.90357 m 498.531664,-145.6187 14.94143,19.14776 -0.14466,46.69806 -15.06054,19.05475 M 47.403586,415.25246 47.859619,268.09381 m 645.237291,1.99596 -33.15969,14.89725 -80.93831,-0.25151 -33.06366,-15.10175 m -498.075631,-1.53995 0.242403,-79.23917 m 645.238288,1.99595 14.94625,17.87367 -0.13397,43.58085 -15.05568,17.78466 m -559.83054,-165.87193 53.53204,-14.832831 130.74657,0.404898 53.43998,15.164133 m 84.63676,85.16035 237.71859,0.7362 m -323.86254,400.85836 -0.26278,84.90057 m 85.16335,-84.63679 -19.15076,14.94145 -46.69506,-0.14468 -19.05475,-15.06055 m -236.72161,-323.35533 14.89625,33.15969 -0.2475,80.93928 -15.10576,33.06269 m 147.61866,-146.70566 -147.16165,-0.456 m 238.2288,-163.39958 14.94142,19.14776 -0.14469,46.69406 -15.06054,19.05475 m 0,0 84.90057,0.26378 m 322.32159,97.21728 -0.26382,84.89557 m -498.53164,145.6227 -14.94242,-19.14775 0.14569,-46.69407 15.06051,-19.05875 m -147.11248,-17.43409 14.94246,19.15175 -0.14569,46.69407 -15.05554,19.05471 m 147.61369,-146.70161 0.26374,-84.90458 m 497.07966,324.15908 -19.14776,14.94143 -46.69406,-0.14469 -19.05872,-15.05651 m -560.60153,83.1634 0.26378,-84.89958 m 413.40612,-72.29867 0.26378,-84.90058 m 147.61365,-146.70561 19.15076,-14.94144 46.69507,0.14467 19.05475,15.06055 m -113.65544,146.80994 -0.26381,84.89657 m -503.22879,-165.69309 0.26278,-84.89956 m 118.85979,0.36809 -0.26377,84.90058 M 132.04038,500.41581 112.88862,515.35727 66.194553,515.21258 47.139836,500.15603 m 0.962186,-311.30139 84.900578,0.26377 m 0,0 -14.94246,-19.15175 0.14569,-46.69407 15.06054,-19.05475 m -16.45728,477.00677 14.97531,17.84854 -0.0629,43.58474 -15.02345,17.80597 m -84.899197,-0.12042 -14.975521,-17.85253 0.06318,-43.57974 15.023399,-17.80698 m 0,0 19.123248,-14.97477 46.698056,0.067 19.077896,15.02814 m -0.11106,79.23925 -19.123452,14.97078 -46.693856,-0.0633 -19.081889,-15.02794" />
    <path
       id="path10243"
       style="fill:none;stroke:#800000;stroke-width:1;stroke-linecap:butt;stroke-linejoin:miter;stroke-miterlimit:10;stroke-dasharray:8,8;stroke-dashoffset:0;stroke-opacity:1"
       d="m 692.32692,519.12608 -0.22999,73.58285 m 0.22999,-73.58285 0.45204,-147.15761 m -0.68203,220.74046 -237.71859,-0.7362 m -322.61916,-0.99998 0.22601,-73.57981 m 0,0 147.16266,0.457 m 413.63111,-145.88147 0.26377,-84.90058 M 664.28787,434.14161 545.42908,433.7735 m 0.2424,-79.23917 118.85979,0.3681 m -385.11964,78.04694 -118.86379,-0.36806 m 0.24743,-79.23622 118.8588,0.36911 m 266.28118,-84.08044 -0.26377,84.90057 m 147.42543,-84.44456 -147.16166,-0.45601 m 147.40506,-78.78317 -0.2434,79.23918 m -559.83054,-165.87193 237.71859,0.7362 m 84.63676,85.16035 -1.24338,401.85834 m 0,0 -84.90057,-0.26378 M 132.75616,268.35362 132.29915,415.51528 m 0.45701,-147.16166 0.24644,-79.23521 m 0,0 237.71855,0.7322 m 0,0 -1.24338,401.85834 m 1.50719,-486.75491 -0.26381,84.89657 m -1.24338,401.85834 -237.71859,-0.7362 m 147.38867,-73.12281 0.26378,-84.90057 m -147.11248,-17.43409 -0.25877,84.90053 m 644.95709,92.55289 -84.90054,-0.25977 m 0.22999,-73.58285 84.89657,0.26382 M 132.75616,268.35362 47.859619,268.09381 m 85.142981,-78.9754 0.26377,-84.90057 m -16.45728,477.00677 -0.11106,79.23925 m -84.899197,-0.12042 0.111057,-79.23925 m 0,0 84.8992,0.12042 m -0.11106,79.23925 -84.899197,-0.12042" />
  </g>
</svg>
