<?xml version="1.0" encoding="UTF-8" standalone="no"?>
<!-- Created with Inkscape (http://www.inkscape.org/) -->

<svg
   version="1.1"
   id="svg11805"
   width="1132"
   height="1132"
   viewBox="0 0 1132 1132"
   sodipodi:docname="F.svg"
   inkscape:version="1.2.2 (732a01da63, 2022-12-09, custom)"
   xmlns:inkscape="http://www.inkscape.org/namespaces/inkscape"
   xmlns:sodipodi="http://sodipodi.sourceforge.net/DTD/sodipodi-0.dtd"
   xmlns="http://www.w3.org/2000/svg"
   xmlns:svg="http://www.w3.org/2000/svg">
  <defs
     id="defs11809" />
  <sodipodi:namedview
     id="namedview11807"
     pagecolor="#ffffff"
     bordercolor="#666666"
     borderopacity="1.0"
     inkscape:showpageshadow="2"
     inkscape:pageopacity="0.0"
     inkscape:pagecheckerboard="0"
     inkscape:deskcolor="#d1d1d1"
     showgrid="false"
     inkscape:zoom="0.34250639"
     inkscape:cx="557.65383"
     inkscape:cy="541.59574"
     inkscape:window-width="1920"
     inkscape:window-height="1009"
     inkscape:window-x="0"
     inkscape:window-y="0"
     inkscape:window-maximized="1"
     inkscape:current-layer="g11813">
    <inkscape:page
       x="0"
       y="0"
       id="page11811"
       width="1132"
       height="1132" />
  </sodipodi:namedview>
  <g
     id="g11813"
     inkscape:groupmode="layer"
     inkscape:label="Page 1"
     transform="matrix(1.3333333,0,0,1.3333333,0,2.83e-5)">
    <path
       id="path13005"
       style="font-size:15px;font-family:'DejaVu Sans';-inkscape-font-specification:DejaVuSans;fill:#0000ff"
       d="m 644.77191,59.17128 v 1.347656 q -0.55664,-0.263672 -1.12793,-0.402832 -0.57129,-0.13916 -1.1206,-0.13916 -1.46485,0 -2.23389,0.981445 -0.77637,0.98877 -0.88623,2.995606 0.4248,-0.629883 1.07666,-0.966797 0.65185,-0.336914 1.44287,-0.336914 1.64063,0 2.6001,0.988769 0.95215,0.996094 0.95215,2.717286 0,1.68457 -0.9961,2.702636 -0.99609,1.018067 -2.65136,1.018067 -1.89698,0 -2.89307,-1.45752 -1.00342,-1.450195 -1.00342,-4.21875 0,-2.585449 1.23047,-4.130859 1.22314,-1.538086 3.2959,-1.538086 0.55664,0 1.12793,0.109863 0.57129,0.109863 1.18652,0.32959 z m -2.94433,4.63623 q -0.9961,0 -1.57471,0.681153 -0.58594,0.681152 -0.58594,1.867676 0,1.179199 0.58594,1.860351 0.57861,0.688477 1.57471,0.688477 0.99609,0 1.58203,-0.688477 0.57861,-0.681152 0.57861,-1.860351 0,-1.186524 -0.57861,-1.867676 -0.58594,-0.681153 -1.58203,-0.681153 z m -319.67286,80.26221 v 1.34765 q -0.55664,-0.26367 -1.12793,-0.40283 -0.57128,-0.13916 -1.1206,-0.13916 -1.46484,0 -2.23389,0.98145 -0.77636,0.98877 -0.88623,2.9956 0.42481,-0.62988 1.07666,-0.96679 0.65186,-0.33692 1.44287,-0.33692 1.64063,0 2.6001,0.98877 0.95215,0.99609 0.95215,2.71729 0,1.68457 -0.99609,2.70263 -0.9961,1.01807 -2.65137,1.01807 -1.89697,0 -2.89307,-1.45752 -1.00342,-1.4502 -1.00342,-4.21875 0,-2.58545 1.23047,-4.13086 1.22315,-1.53809 3.2959,-1.53809 0.55664,0 1.12793,0.10987 0.57129,0.10986 1.18652,0.32959 z m -2.94433,4.63623 q -0.9961,0 -1.57471,0.68115 -0.58594,0.68115 -0.58594,1.86768 0,1.1792 0.58594,1.86035 0.57861,0.68847 1.57471,0.68847 0.99609,0 1.58203,-0.68847 0.57861,-0.68115 0.57861,-1.86035 0,-1.18653 -0.57861,-1.86768 -0.58594,-0.68115 -1.58203,-0.68115 z m -96.43262,289.76707 q 0,1.05469 0.56397,1.6626 0.56396,0.60059 1.55273,0.60059 0.98877,0 1.55273,-0.60059 0.56397,-0.60791 0.56397,-1.6626 0,-1.05469 -0.56397,-1.6626 -0.57128,-0.60791 -1.55273,-0.60791 -0.98877,0 -1.55273,0.60791 -0.56397,0.60059 -0.56397,1.6626 z m -0.62988,1.47949 q -0.23438,0.95215 -0.88623,1.48682 -0.65186,0.52734 -1.58936,0.52734 -1.31103,0 -2.07275,-0.93017 -0.76172,-0.9375 -0.76172,-2.56348 0,-1.6333 0.76172,-2.56347 0.76172,-0.93018 2.07275,-0.93018 0.9375,0 1.58936,0.53467 0.65185,0.52734 0.88623,1.47217 0.24902,-1.06934 0.97412,-1.6626 0.7251,-0.60059 1.77246,-0.60059 1.58936,0 2.43897,0.97412 0.8496,0.9668 0.8496,2.77588 0,1.80908 -0.8496,2.78321 -0.84961,0.96679 -2.43897,0.96679 -1.04736,0 -1.77246,-0.60058 -0.7251,-0.60059 -0.97412,-1.66993 z m -2.33643,0.542 q 0.84961,0 1.32569,-0.52735 0.47607,-0.53466 0.47607,-1.49414 0,-0.95215 -0.47607,-1.48681 -0.47608,-0.542 -1.32569,-0.542 -0.84961,0 -1.32568,0.542 -0.47608,0.53466 -0.47608,1.48681 0,0.95948 0.47608,1.49414 0.47607,0.52735 1.32568,0.52735 z m 70.10694,-67.12598 q -1.05469,0 -1.6626,0.56397 -0.60059,0.56396 -0.60059,1.55273 0,0.98877 0.60059,1.55273 0.60791,0.56397 1.6626,0.56397 1.05468,0 1.66259,-0.56397 0.60791,-0.57129 0.60791,-1.55273 0,-0.98877 -0.60791,-1.55273 -0.60058,-0.56397 -1.66259,-0.56397 z m -1.4795,-0.62988 q -0.95214,-0.23438 -1.48681,-0.88623 -0.52735,-0.65186 -0.52735,-1.58936 0,-1.31103 0.93018,-2.07275 0.9375,-0.76172 2.56348,-0.76172 1.6333,0 2.56347,0.76172 0.93018,0.76172 0.93018,2.07275 0,0.9375 -0.53467,1.58936 -0.52734,0.65185 -1.47217,0.88623 1.06934,0.24902 1.6626,0.97412 0.60059,0.7251 0.60059,1.77246 0,1.58935 -0.97413,2.43896 -0.96679,0.84961 -2.77587,0.84961 -1.80909,0 -2.78321,-0.84961 -0.96679,-0.84961 -0.96679,-2.43896 0,-1.04736 0.60058,-1.77246 0.60059,-0.7251 1.66992,-0.97412 z m -0.54199,-2.33643 q 0,0.84961 0.52735,1.32569 0.53466,0.47607 1.49414,0.47607 0.95214,0 1.48681,-0.47607 0.54199,-0.47608 0.54199,-1.32569 0,-0.84961 -0.54199,-1.32568 -0.53467,-0.47608 -1.48681,-0.47608 -0.95948,0 -1.49414,0.47608 -0.52735,0.47607 -0.52735,1.32568 z M 157.00337,338.15906 v 7.03125 h -0.62988 l -10.30518,-3.96973 v -1.54541 l 9.68995,3.73535 v -5.25146 z m 563.77049,4.57031 v -7.03125 h 0.62989 l 10.30517,3.96973 v 1.54541 l -9.68994,-3.73535 v 5.25146 z m -568.64842,97.93945 q 0,-0.99609 -0.68115,-1.58203 -0.68115,-0.57861 -1.86768,-0.57861 -1.17919,0 -1.86767,0.57861 -0.68115,0.58594 -0.68115,1.58203 0,0.9961 0.68115,1.57471 0.68848,0.58594 1.86767,0.58594 1.18653,0 1.86768,-0.58594 0.68115,-0.57861 0.68115,-1.57471 z m 4.63623,2.93701 h -1.34765 q 0.26367,-0.55664 0.40283,-1.12792 0.13916,-0.56397 0.13916,-1.12061 0,-1.46484 -0.98877,-2.24121 -0.98877,-0.76904 -2.98828,-0.87891 0.63721,0.43213 0.97412,1.08399 0.34424,0.65185 0.34424,1.43554 0,1.64795 -1.00342,2.6001 -0.99609,0.95947 -2.71729,0.95947 -1.68457,0 -2.70263,-0.99609 -1.01807,-0.99609 -1.01807,-2.65137 0,-1.89697 1.4502,-2.90039 1.45752,-1.00342 4.21875,-1.00342 2.59277,0 4.13086,1.23047 1.54541,1.23047 1.54541,3.30323 0,0.55664 -0.10987,1.1206 -0.10986,0.57129 -0.32959,1.18652 z m 518.19139,-71.10156 q -0.99609,0 -1.58203,0.68115 -0.57861,0.68116 -0.57861,1.86768 0,1.1792 0.57861,1.86768 0.58594,0.68115 1.58203,0.68115 0.9961,0 1.57471,-0.68115 0.58594,-0.68848 0.58594,-1.86768 0,-1.18652 -0.58594,-1.86768 -0.57861,-0.68115 -1.57471,-0.68115 z m 2.93702,-4.63623 v 1.34766 q -0.55664,-0.26367 -1.12793,-0.40283 -0.56397,-0.13916 -1.12061,-0.13916 -1.46484,0 -2.24121,0.98877 -0.76904,0.98877 -0.87891,2.98828 0.43213,-0.63721 1.08399,-0.97412 0.65185,-0.34424 1.43554,-0.34424 1.64795,0 2.6001,1.00342 0.95947,0.99609 0.95947,2.71728 0,1.68457 -0.99609,2.70264 -0.99609,1.01806 -2.65137,1.01806 -1.89697,0 -2.90039,-1.45019 -1.00341,-1.45752 -1.00341,-4.21875 0,-2.59278 1.23046,-4.13086 1.23047,-1.54541 3.30323,-1.54541 0.55664,0 1.1206,0.10986 0.57129,0.10987 1.18653,0.32959 z M 335.89496,591.40369 v -5.80811 h 1.24512 v 4.45313 h 2.68066 q -0.10986,-0.32227 -0.16113,-0.64454 -0.0586,-0.32226 -0.0586,-0.64453 0,-1.83105 1.00342,-2.90039 1.00342,-1.06933 2.71729,-1.06933 1.76513,0 2.74658,1.09863 0.97412,1.09863 0.97412,3.09814 0,0.68848 -0.11719,1.40625 -0.11719,0.71045 -0.35156,1.47217 h -1.48682 q 0.35889,-0.65918 0.53467,-1.3623 0.17578,-0.70313 0.17578,-1.48682 0,-1.26709 -0.6665,-2.00683 -0.66651,-0.73975 -1.80908,-0.73975 -1.14258,0 -1.80909,0.73975 -0.6665,0.73974 -0.6665,2.00683 0,0.59326 0.13184,1.18652 0.13183,0.58594 0.41015,1.20118 z m 55.7959,-59.63672 h 5.8081 v 1.24511 h -4.45312 v 2.68067 q 0.32226,-0.10986 0.64453,-0.16113 0.32226,-0.0586 0.64453,-0.0586 1.83105,0 2.90039,1.00342 1.06934,1.00342 1.06934,2.71729 0,1.76513 -1.09864,2.74658 -1.09863,0.97412 -3.09814,0.97412 -0.68848,0 -1.40625,-0.11719 -0.71045,-0.11719 -1.47217,-0.35156 v -1.48682 q 0.65918,0.35889 1.36231,0.53467 0.70312,0.17578 1.48681,0.17578 1.26709,0 2.00684,-0.6665 0.73974,-0.66651 0.73974,-1.80908 0,-1.14258 -0.73974,-1.80909 -0.73975,-0.6665 -2.00684,-0.6665 -0.59326,0 -1.18652,0.13184 -0.58594,0.13183 -1.20117,0.41015 z m -117.11328,-67.95069 -5.83741,-3.73535 v 3.73535 z m 1.28906,-0.38818 v 1.86035 h -7.12647 v 1.56006 h -1.23047 v -1.56006 h -2.57812 v -1.47217 h 2.57812 v -4.93652 h 1.42823 z m 327.33691,-2.98096 5.8374,3.73536 v -3.73536 z m -1.28906,0.38819 v -1.86035 h 7.12646 v -1.56006 h 1.23047 v 1.56006 h 2.57813 v 1.47216 h -2.57813 v 4.93653 H 608.8432 Z M 270.82758,591.96814 q -0.22706,1.06201 -0.94483,1.65527 -0.71777,0.60059 -1.77246,0.60059 -1.61865,0 -2.50488,-1.11328 -0.88623,-1.11328 -0.88623,-3.16406 0,-0.68848 0.13916,-1.4209 0.13183,-0.7251 0.40283,-1.50147 h 1.42822 q -0.35888,0.61524 -0.54199,1.34766 -0.18311,0.73242 -0.18311,1.53076 0,1.3916 0.54932,2.1167 0.54932,0.73242 1.59668,0.73242 0.9668,0 1.50879,-0.68115 0.54932,-0.67383 0.54932,-1.88233 v -1.27441 h 1.21582 v 1.33301 q 0,1.09131 0.43213,1.66992 0.43945,0.57861 1.25976,0.57861 0.84229,0 1.28906,-0.60058 0.4541,-0.59326 0.4541,-1.70655 0,-0.60791 -0.13183,-1.30371 -0.13184,-0.6958 -0.41016,-1.53076 h 1.31836 q 0.23438,0.84229 0.35156,1.57471 0.11719,0.73974 0.11719,1.3916 0,1.68457 -0.76904,2.66602 -0.76172,0.98144 -2.06543,0.98144 -0.9082,0 -1.53809,-0.52002 -0.62256,-0.52002 -0.86425,-1.47949 z m 300.72949,-55.16211 q 1.06201,0.22705 1.65527,0.94482 0.60059,0.71778 0.60059,1.77247 0,1.61865 -1.11328,2.50488 -1.11329,0.88623 -3.16407,0.88623 -0.68847,0 -1.42089,-0.13916 -0.7251,-0.13184 -1.50147,-0.40283 v -1.42823 q 0.61523,0.35889 1.34766,0.542 0.73242,0.1831 1.53076,0.1831 1.3916,0 2.1167,-0.54931 0.73242,-0.54932 0.73242,-1.59668 0,-0.9668 -0.68115,-1.50879 -0.67383,-0.54932 -1.88233,-0.54932 h -1.27441 v -1.21582 h 1.33301 q 1.09131,0 1.66992,-0.43213 0.57861,-0.43945 0.57861,-1.25976 0,-0.84229 -0.60058,-1.28907 -0.59327,-0.4541 -1.70655,-0.4541 -0.60791,0 -1.30371,0.13184 -0.6958,0.13183 -1.53076,0.41015 v -1.31836 q 0.84229,-0.23437 1.57471,-0.35156 0.73974,-0.11719 1.3916,-0.11719 1.68457,0 2.66601,0.76905 0.98145,0.76172 0.98145,2.06543 0,0.9082 -0.52002,1.53808 -0.52002,0.62256 -1.47949,0.86426 z M 186.42719,496.17957 h 5.16357 v 1.24511 h -6.94336 v -1.24511 q 0.84229,-0.87159 2.29248,-2.33643 1.45752,-1.47217 1.83106,-1.89697 0.71044,-0.79834 0.98876,-1.34766 0.28565,-0.55664 0.28565,-1.09131 0,-0.87158 -0.61524,-1.4209 -0.60791,-0.54931 -1.58935,-0.54931 -0.6958,0 -1.47217,0.2417 -0.76904,0.2417 -1.64795,0.73242 v -1.49414 q 0.89356,-0.35889 1.66992,-0.54199 0.77637,-0.18311 1.4209,-0.18311 1.69922,0 2.70996,0.84961 1.01075,0.84961 1.01075,2.27051 0,0.67383 -0.25635,1.28174 -0.24903,0.60058 -0.91553,1.42089 -0.1831,0.21241 -1.16455,1.23047 -0.98145,1.01074 -2.76855,2.83448 z M 306.47504,382.80652 h -5.16358 v -1.24512 h 6.94336 v 1.24512 q -0.84228,0.87158 -2.29248,2.33642 -1.45752,1.47217 -1.83105,1.89698 -0.71045,0.79834 -0.98877,1.34765 -0.28565,0.55664 -0.28565,1.09131 0,0.87158 0.61524,1.4209 0.60791,0.54932 1.58935,0.54932 0.6958,0 1.47217,-0.2417 0.76904,-0.2417 1.64795,-0.73242 v 1.49414 q -0.89356,0.35888 -1.66992,0.54199 -0.77637,0.1831 -1.4209,0.1831 -1.69922,0 -2.70996,-0.84961 -1.01074,-0.8496 -1.01074,-2.2705 0,-0.67383 0.25634,-1.28174 0.24903,-0.60059 0.91553,-1.4209 0.18311,-0.2124 1.16455,-1.23047 0.98145,-1.01074 2.76856,-2.83447 z M 526.53607,98.499893 v 2.416997 h 8.34229 l -0.52735,-2.629399 h 1.34766 l 0.52734,2.614749 v 1.47949 h -9.68994 v 2.41699 h -1.24512 v -6.298827 z m -43.80078,46.587887 h -2.41699 v 8.34229 l 2.62939,-0.52734 v 1.34765 l -2.61474,0.52735 h -1.4795 v -9.68995 h -2.41699 v -1.24511 h 6.29883 z M 306.86761,623.30359 q -1.14257,0 -1.72119,1.12793 -0.57129,1.1206 -0.57129,3.37646 0,2.24854 0.57129,3.37647 0.57862,1.1206 1.72119,1.1206 1.14991,0 1.7212,-1.1206 0.57861,-1.12793 0.57861,-3.37647 0,-2.25586 -0.57861,-3.37646 -0.57129,-1.12793 -1.7212,-1.12793 z m 0,-1.17188 q 1.83838,0 2.80518,1.45752 0.97412,1.4502 0.97412,4.21875 0,2.76123 -0.97412,4.21875 -0.9668,1.4502 -2.80518,1.4502 -1.83837,0 -2.8125,-1.4502 -0.96679,-1.45752 -0.96679,-4.21875 0,-2.76855 0.96679,-4.21875 0.97413,-1.45752 2.8125,-1.45752 z m 175.46094,-89.39062 q -1.14258,0 -1.72119,1.12793 -0.57129,1.1206 -0.57129,3.37646 0,2.24854 0.57129,3.37647 0.57861,1.1206 1.72119,1.1206 1.1499,0 1.72119,-1.1206 0.57862,-1.12793 0.57862,-3.37647 0,-2.25586 -0.57862,-3.37646 -0.57129,-1.12793 -1.72119,-1.12793 z m 0,-1.17188 q 1.83838,0 2.80518,1.45752 0.97412,1.4502 0.97412,4.21875 0,2.76123 -0.97412,4.21875 -0.9668,1.4502 -2.80518,1.4502 -1.83838,0 -2.8125,-1.4502 -0.96679,-1.45752 -0.96679,-4.21875 0,-2.76855 0.96679,-4.21875 0.97412,-1.45752 2.8125,-1.45752 z" />
    <path
       id="path12057"
       style="fill:none;stroke:#00ff00;stroke-width:1;stroke-linecap:butt;stroke-linejoin:miter;stroke-miterlimit:10;stroke-dasharray:8, 2, 2, 2;stroke-dashoffset:0;stroke-opacity:1"
       d="m 59.66971,300.82339 h 84.899 m -84.899,-84.899 h 84.899 m 84.902,282.99999 h -84.902" />
    <path
       id="path12059"
       style="fill:none;stroke:#800000;stroke-width:1;stroke-linecap:butt;stroke-linejoin:miter;stroke-miterlimit:10;stroke-dasharray:8, 8;stroke-dashoffset:0;stroke-opacity:1"
       d="m 59.66971,447.98339 h 84.899 m 56.601,-232.05901 v -73.582 m 147.16,73.582 h -147.16 m 0,-73.582 h 237.719 m 322.621,0 v 73.582 m 0,0 h -147.16 m -266.02,84.899 v -84.899 m -118.859,84.899 h 118.859 m -118.859,79.238 v -79.238 m 0,79.238 v 118.863 m 384.879,-198.101 h 118.859 m 0,0 v 79.238 m 0,0 h -118.859 m -266.02,164.141 v -164.141 m 90.559,-237.719 v 401.86 m -90.559,0 v 90.562 m 175.461,-492.422 h 237.719 m -147.16,73.582 v 84.899 m 0,79.238 v 164.141 m -350.918,90.562 v -90.562 m 260.359,-401.86 v 401.86 m 237.719,-486.75799 v 84.89799 m -616.941,158.481 h 84.902 m 0,79.238 h -84.902 m 203.761,164.141 h -84.898 m 175.457,-401.86 h 84.902" />
    <path
       id="path12924"
       style="font-size:15px;font-family:'DejaVu Sans';-inkscape-font-specification:DejaVuSans"
       d="m 61.397263,482.65073 h 1.347656 q -0.263672,0.55664 -0.402832,1.12793 -0.13916,0.57129 -0.13916,1.1206 0,1.46485 0.981445,2.23389 0.988769,0.77637 2.995605,0.88623 -0.629882,-0.42481 -0.966796,-1.07666 -0.336915,-0.65186 -0.336915,-1.44287 0,-1.64063 0.98877,-2.6001 0.996094,-0.95215 2.717285,-0.95215 1.68457,0 2.702637,0.9961 1.018066,0.99609 1.018066,2.65136 0,1.89697 -1.457519,2.89307 -1.450196,1.00342 -4.21875,1.00342 -2.585449,0 -4.13086,-1.23047 -1.538086,-1.22315 -1.538086,-3.2959 0,-0.55664 0.109864,-1.12793 0.109863,-0.57129 0.32959,-1.18652 z m 4.63623,2.94433 q 0,0.9961 0.681152,1.57471 0.681153,0.58594 1.867676,0.58594 1.179199,0 1.860352,-0.58594 0.688476,-0.57861 0.688476,-1.57471 0,-0.99609 -0.688476,-1.58203 -0.681153,-0.57861 -1.860352,-0.57861 -1.186523,0 -1.867676,0.57861 -0.681152,0.58594 -0.681152,1.58203 z m 0.32959,-110.17187 q 0,-1.05469 -0.563965,-1.6626 -0.563965,-0.60059 -1.552734,-0.60059 -0.98877,0 -1.552735,0.60059 -0.563965,0.60791 -0.563965,1.6626 0,1.05468 0.563965,1.66259 0.571289,0.60792 1.552735,0.60792 0.988769,0 1.552734,-0.60792 0.563965,-0.60058 0.563965,-1.66259 z m 0.629883,-1.47949 q 0.234375,-0.95215 0.88623,-1.48682 0.651856,-0.52735 1.589356,-0.52735 1.311035,0 2.072754,0.93018 0.761718,0.9375 0.761718,2.56348 0,1.6333 -0.761718,2.56347 -0.761719,0.93018 -2.072754,0.93018 -0.9375,0 -1.589356,-0.53467 -0.651855,-0.52734 -0.88623,-1.47217 -0.249024,1.06934 -0.974121,1.6626 -0.725098,0.60059 -1.772461,0.60059 -1.589356,0 -2.438965,-0.97412 -0.84961,-0.9668 -0.84961,-2.77588 0,-1.80908 0.84961,-2.78321 0.849609,-0.96679 2.438965,-0.96679 1.047363,0 1.772461,0.60058 0.725097,0.60059 0.974121,1.66993 z m 2.336425,-0.542 q -0.849609,0 -1.325683,0.52735 -0.476074,0.53466 -0.476074,1.49414 0,0.95215 0.476074,1.48681 0.476074,0.542 1.325683,0.542 0.84961,0 1.325684,-0.542 0.476074,-0.53466 0.476074,-1.48681 0,-0.95948 -0.476074,-1.49414 -0.476074,-0.52735 -1.325684,-0.52735 z m 62.804199,113.65967 v -7.03125 h 0.62988 l 10.30518,3.96973 v 1.54541 l -9.68994,-3.73535 v 5.25146 z m 4.87793,-113.83398 q 0,0.99609 0.68115,1.58203 0.68116,0.57861 1.86768,0.57861 1.1792,0 1.86767,-0.57861 0.68116,-0.58594 0.68116,-1.58203 0,-0.9961 -0.68116,-1.57471 -0.68847,-0.58594 -1.86767,-0.58594 -1.18652,0 -1.86768,0.58594 -0.68115,0.57861 -0.68115,1.57471 z m -4.63623,-2.93702 h 1.34766 q -0.26368,0.55665 -0.40284,1.12793 -0.13916,0.56397 -0.13916,1.12061 0,1.46484 0.98877,2.24121 0.98877,0.76904 2.98828,0.87891 -0.6372,-0.43213 -0.97412,-1.08399 -0.34423,-0.65185 -0.34423,-1.43554 0,-1.64795 1.00341,-2.6001 0.9961,-0.95947 2.71729,-0.95947 1.68457,0 2.70264,0.99609 1.01806,0.99609 1.01806,2.65137 0,1.89697 -1.45019,2.90039 -1.45752,1.00342 -4.21875,1.00342 -2.59278,0 -4.13086,-1.23047 -1.54541,-1.23047 -1.54541,-3.30323 0,-0.55664 0.10986,-1.1206 0.10986,-0.57129 0.32959,-1.18653 z M 72.10527,256.45345 v 5.8081 h -1.245117 v -4.45312 h -2.680664 q 0.109863,0.32226 0.161133,0.64453 0.05859,0.32226 0.05859,0.64453 0,1.83105 -1.003418,2.90039 -1.003418,1.06933 -2.717285,1.06933 -1.765137,0 -2.746582,-1.09863 -0.974122,-1.09863 -0.974122,-3.09814 0,-0.68848 0.117188,-1.40625 0.117187,-0.71045 0.351562,-1.47217 h 1.486817 q -0.358887,0.65918 -0.534668,1.3623 -0.175781,0.70313 -0.175781,1.48682 0,1.26709 0.666504,2.00684 0.666503,0.73974 1.809082,0.73974 1.142578,0 1.809082,-0.73974 0.666504,-0.73975 0.666504,-2.00684 0,-0.59326 -0.131836,-1.18652 -0.131836,-0.58594 -0.410157,-1.20117 z m -1.289062,-98.27393 -5.837402,-3.73535 v 3.73535 z m 1.289062,-0.38818 v 1.86035 h -7.126464 v 1.56006 h -1.230469 v -1.56006 h -2.578125 v -1.47217 h 2.578125 V 153.243 h 1.428222 z m 65.06738,-3.78516 q 0.22705,-1.06201 0.94483,-1.65527 0.71777,-0.60059 1.77246,-0.60059 1.61865,0 2.50488,1.11328 0.88623,1.11328 0.88623,3.16406 0,0.68848 -0.13916,1.4209 -0.13183,0.7251 -0.40283,1.50147 h -1.42822 q 0.35888,-0.61524 0.54199,-1.34766 0.1831,-0.73242 0.1831,-1.53076 0,-1.3916 -0.54931,-2.1167 -0.54932,-0.73242 -1.59668,-0.73242 -0.9668,0 -1.50879,0.68115 -0.54932,0.67383 -0.54932,1.88232 v 1.27442 h -1.21582 v -1.33301 q 0,-1.09131 -0.43213,-1.66992 -0.43945,-0.57861 -1.25976,-0.57861 -0.84229,0 -1.28906,0.60058 -0.45411,0.59326 -0.45411,1.70654 0,0.60792 0.13184,1.30372 0.13184,0.6958 0.41016,1.53076 h -1.31836 q -0.23438,-0.84229 -0.35157,-1.57471 -0.11718,-0.73975 -0.11718,-1.3916 0,-1.68457 0.76904,-2.66602 0.76172,-0.98144 2.06543,-0.98144 0.9082,0 1.53809,0.52002 0.62255,0.52002 0.86425,1.47949 z m 4.65088,104.96193 v -5.16358 h 1.24512 v 6.94336 h -1.24512 q -0.87158,-0.84228 -2.33642,-2.29248 -1.47217,-1.45752 -1.89698,-1.83105 -0.79834,-0.71045 -1.34765,-0.98877 -0.55664,-0.28564 -1.09131,-0.28564 -0.87158,0 -1.4209,0.61523 -0.54932,0.60791 -0.54932,1.58935 0,0.69581 0.2417,1.47217 0.2417,0.76905 0.73243,1.64795 h -1.49415 q -0.35888,-0.89355 -0.54199,-1.66992 -0.1831,-0.77637 -0.1831,-1.4209 0,-1.69922 0.84961,-2.70996 0.84961,-1.01074 2.2705,-1.01074 0.67383,0 1.28174,0.25635 0.60059,0.24902 1.4209,0.91552 0.2124,0.18311 1.23047,1.16455 1.01074,0.98145 2.83447,2.76856 z m -41.10156,259.85202 h 2.41699 v -8.34229 l -2.62939,0.52735 v -1.34766 l 2.61474,-0.52734 h 1.4795 v 9.68994 h 2.41699 v 1.24512 h -6.29883 z m 0.40672,-410.29394 q 1.14258,0 1.72119,-1.12793 0.57129,-1.1206 0.57129,-3.37646 0,-2.24854 -0.57129,-3.37647 -0.57861,-1.120603 -1.72119,-1.120603 -1.1499,0 -1.721189,1.120603 -0.578613,1.12793 -0.578613,3.37647 0,2.25586 0.578613,3.37646 0.571289,1.12793 1.721189,1.12793 z m 0,1.17188 q -1.838376,0 -2.805173,-1.45752 -0.974121,-1.4502 -0.974121,-4.21875 0,-2.76123 0.974121,-4.218753 0.966797,-1.450195 2.805173,-1.450195 1.83838,0 2.8125,1.450195 0.9668,1.457523 0.9668,4.218753 0,2.76855 -0.9668,4.21875 -0.97412,1.45752 -2.8125,1.45752 z m 101.76822,67.31208 h 1.34766 q -0.26367,0.55664 -0.40283,1.12793 -0.13916,0.57129 -0.13916,1.1206 0,1.46485 0.98144,2.23389 0.98877,0.77637 2.99561,0.88623 -0.62989,-0.42481 -0.9668,-1.07666 -0.33691,-0.65186 -0.33691,-1.44287 0,-1.64063 0.98877,-2.6001 0.99609,-0.95215 2.71728,-0.95215 1.68457,0 2.70264,0.9961 1.01806,0.99609 1.01806,2.65136 0,1.89698 -1.45752,2.89307 -1.45019,1.00342 -4.21875,1.00342 -2.58545,0 -4.13086,-1.23047 -1.53808,-1.22315 -1.53808,-3.2959 0,-0.55664 0.10986,-1.12793 0.10987,-0.57129 0.32959,-1.18652 z m 4.63623,2.94433 q 0,0.9961 0.68115,1.57471 0.68116,0.58594 1.86768,0.58594 1.1792,0 1.86035,-0.58594 0.68848,-0.57861 0.68848,-1.57471 0,-0.99609 -0.68848,-1.58203 -0.68115,-0.57861 -1.86035,-0.57861 -1.18652,0 -1.86768,0.57861 -0.68115,0.58594 -0.68115,1.58203 z m 68.23291,29.27735 q -1.05469,0 -1.6626,0.56396 -0.60058,0.56397 -0.60058,1.55274 0,0.98877 0.60058,1.55273 0.60791,0.56397 1.6626,0.56397 1.05469,0 1.6626,-0.56397 0.60791,-0.57129 0.60791,-1.55273 0,-0.98877 -0.60791,-1.55274 -0.60059,-0.56396 -1.6626,-0.56396 z m -1.47949,-0.62989 q -0.95215,-0.23437 -1.48682,-0.88623 -0.52734,-0.65185 -0.52734,-1.58935 0,-1.31104 0.93018,-2.07276 0.9375,-0.76171 2.56347,-0.76171 1.6333,0 2.56348,0.76171 0.93017,0.76172 0.93017,2.07276 0,0.9375 -0.53466,1.58935 -0.52735,0.65186 -1.47217,0.88623 1.06933,0.24903 1.6626,0.97413 0.60058,0.72509 0.60058,1.77246 0,1.58935 -0.97412,2.43896 -0.9668,0.84961 -2.77588,0.84961 -1.80908,0 -2.7832,-0.84961 -0.9668,-0.84961 -0.9668,-2.43896 0,-1.04737 0.60059,-1.77246 0.60058,-0.7251 1.66992,-0.97413 z m -0.54199,-2.33642 q 0,0.84961 0.52734,1.32568 0.53467,0.47608 1.49414,0.47608 0.95215,0 1.48682,-0.47608 0.54199,-0.47607 0.54199,-1.32568 0,-0.84961 -0.54199,-1.32569 -0.53467,-0.47607 -1.48682,-0.47607 -0.95947,0 -1.49414,0.47607 -0.52734,0.47608 -0.52734,1.32569 z m 475.33008,-24.84473 v -7.03125 h 0.62988 l 10.30517,3.96973 v 1.54541 l -9.68994,-3.73535 v 5.25146 z m -59.96924,26.94678 q -0.9961,0 -1.58203,0.68115 -0.57862,0.68115 -0.57862,1.86768 0,1.1792 0.57862,1.86767 0.58593,0.68116 1.58203,0.68116 0.99609,0 1.5747,-0.68116 0.58594,-0.68847 0.58594,-1.86767 0,-1.18653 -0.58594,-1.86768 -0.57861,-0.68115 -1.5747,-0.68115 z m 2.93701,-4.63623 v 1.34765 q -0.55664,-0.26367 -1.12793,-0.40283 -0.56397,-0.13916 -1.12061,-0.13916 -1.46484,0 -2.24121,0.98877 -0.76904,0.98877 -0.8789,2.98828 0.43213,-0.6372 1.08398,-0.97412 0.65186,-0.34424 1.43555,-0.34424 1.64795,0 2.6001,1.00342 0.95947,0.9961 0.95947,2.71729 0,1.68457 -0.9961,2.70263 -0.99609,1.01807 -2.65136,1.01807 -1.89697,0 -2.90039,-1.4502 -1.00342,-1.45751 -1.00342,-4.21875 0,-2.59277 1.23047,-4.13085 1.23047,-1.54541 3.30322,-1.54541 0.55664,0 1.12061,0.10986 0.57129,0.10986 1.18652,0.32959 z m -331.27734,52.72217 v 5.8081 h -1.24512 v -4.45312 h -2.68067 q 0.10987,0.32226 0.16114,0.64453 0.0586,0.32226 0.0586,0.64453 0,1.83105 -1.00342,2.90039 -1.00341,1.06934 -2.71728,1.06934 -1.76514,0 -2.74658,-1.09864 -0.97413,-1.09863 -0.97413,-3.09814 0,-0.68848 0.11719,-1.40625 0.11719,-0.71045 0.35156,-1.47217 h 1.48682 q -0.35889,0.65918 -0.53467,1.36231 -0.17578,0.70312 -0.17578,1.48681 0,1.26709 0.66651,2.00684 0.6665,0.73974 1.80908,0.73974 1.14258,0 1.80908,-0.73974 0.6665,-0.73975 0.6665,-2.00684 0,-0.59326 -0.13183,-1.18652 -0.13184,-0.58594 -0.41016,-1.20117 z m -73.54932,55.51561 3.73535,-5.83741 h -3.73535 z m 0.38818,1.28906 h -1.86035 v -7.12647 h -1.56006 v -1.23046 h 1.56006 v -2.57813 h 1.47217 v 2.57813 h 4.93652 v 1.42822 z m 383.69043,-5.03906 q -1.06201,-0.22705 -1.65527,-0.94483 -0.60059,-0.71777 -0.60059,-1.77246 0,-1.61865 1.11328,-2.50488 1.11329,-0.88623 3.16407,-0.88623 0.68847,0 1.4209,0.13916 0.72509,0.13183 1.50146,0.40283 v 1.42822 q -0.61523,-0.35888 -1.34766,-0.54199 -0.73242,-0.18311 -1.53076,-0.18311 -1.3916,0 -2.1167,0.54932 -0.73242,0.54932 -0.73242,1.59668 0,0.9668 0.68115,1.50879 0.67383,0.54932 1.88233,0.54932 h 1.27441 v 1.21582 h -1.33301 q -1.0913,0 -1.66992,0.43213 -0.57861,0.43945 -0.57861,1.25976 0,0.84229 0.60058,1.28906 0.59327,0.45411 1.70655,0.45411 0.60791,0 1.30371,-0.13184 0.6958,-0.13184 1.53076,-0.41016 v 1.31836 q -0.84228,0.23438 -1.57471,0.35157 -0.73974,0.11718 -1.3916,0.11718 -1.68457,0 -2.66601,-0.76904 -0.98145,-0.76172 -0.98145,-2.06543 0,-0.9082 0.52002,-1.53809 0.52002,-0.62255 1.47949,-0.86425 z m -59.68994,-49.25098 v -5.16357 h 1.24512 v 6.94335 h -1.24512 q -0.87158,-0.84228 -2.33642,-2.29248 -1.47217,-1.45752 -1.89698,-1.83105 -0.79834,-0.71045 -1.34765,-0.98877 -0.55664,-0.28564 -1.09131,-0.28564 -0.87158,0 -1.4209,0.61523 -0.54932,0.60791 -0.54932,1.58936 0,0.6958 0.2417,1.47216 0.2417,0.76905 0.73242,1.64795 h -1.49414 q -0.35888,-0.89355 -0.54199,-1.66992 -0.1831,-0.77637 -0.1831,-1.4209 0,-1.69922 0.84961,-2.70996 0.8496,-1.01074 2.2705,-1.01074 0.67383,0 1.28174,0.25635 0.60059,0.24902 1.4209,0.91552 0.2124,0.18311 1.23047,1.16455 1.01074,0.98145 2.83447,2.76856 z M 758.76459,101.29091 v -2.416993 h -8.34229 l 0.52735,2.629393 h -1.34766 l -0.52734,-2.614745 v -1.479492 h 9.68994 v -2.416992 h 1.24511 v 6.298829 z M 186.0307,312.28406 q 1.14258,0 1.72119,-1.12793 0.57129,-1.12061 0.57129,-3.37647 0,-2.24853 -0.57129,-3.37646 -0.57861,-1.12061 -1.72119,-1.12061 -1.1499,0 -1.72119,1.12061 -0.57861,1.12793 -0.57861,3.37646 0,2.25586 0.57861,3.37647 0.57129,1.12793 1.72119,1.12793 z m 0,1.17187 q -1.83838,0 -2.80518,-1.45752 -0.97412,-1.45019 -0.97412,-4.21875 0,-2.76123 0.97412,-4.21875 0.9668,-1.45019 2.80518,-1.45019 1.83838,0 2.8125,1.45019 0.9668,1.45752 0.9668,4.21875 0,2.76856 -0.9668,4.21875 -0.97412,1.45752 -2.8125,1.45752 z" />
    <path
       id="path12113"
       style="fill:none;stroke:#ff0000;stroke-width:1;stroke-linecap:butt;stroke-linejoin:miter;stroke-miterlimit:10;stroke-dasharray:none;stroke-opacity:1"
       d="m 59.66971,521.56539 v -73.582 m 0,0 v -147.16 m 84.899,147.16 v 73.582 m 0,-220.742 v 147.16 m -84.899,-147.16 v -84.899 m 0,0 v -118.859 m 84.899,0 v 118.859 m 0,0 v 84.899 m 0,220.742 h -84.899 m 0,-424.5 h 84.899 m 56.601,118.85899 -15,-16.554 v -40.469 l 15,-16.559 m 147.16,73.582 -33.113,15 h -80.937 l -33.11,-15 m 322.621,-158.47999 h 237.719 m -560.34,84.89799 53.485,-15 h 130.75 l 53.484,15 m 322.621,0 15,16.559 v 40.469 l -15,16.554 m 0,0 -33.109,15 h -80.942 l -33.109,-15 m -266.02,84.899 -15,-19.102 v -46.695 l 15,-19.102 m -118.859,84.899 26.742,-15 h 65.375 l 26.742,15 m -118.859,79.238 15,26.746 v 65.371 l -15,26.746 m 118.859,-118.863 h -118.859 m 384.879,-79.238 26.742,-15 h 65.375 l 26.742,15 m -588.64,79.238 v -79.238 m 588.64,0 15,17.828 v 43.582 l -15,17.828 m -588.64,118.863 v -118.863 m 588.64,0 -26.742,15 h -65.375 l -26.742,-15 m -266.02,164.141 15,20.379 v 49.804 l -15,20.379 m 90.559,-90.562 h -90.559 m 266.02,-328.278 15,19.102 v 46.695 l -15,19.102 m -350.918,243.379 v -164.141 m 350.918,0 15,36.934 v 90.277 l -15,36.93 m -350.918,90.562 -15,-20.379 v -49.804 l 15,-20.379 m 350.918,0 h -90.559 m 237.719,-486.75799 15,19.101 v 46.69599 l -15,19.101 m -616.941,158.481 19.105,-15 h 46.691 l 19.106,15 m 0,198.101 -19.106,15 h -46.691 l -19.105,-15 m 118.863,-118.863 h 84.898 m 175.461,-237.719 V 57.44439 m -84.902,84.89799 19.101,-15 h 46.696 l 19.105,15 m -175.461,492.422 h -84.898 m 260.359,-90.562 h -84.902" />
  </g>
</svg>
