<?xml version="1.0" encoding="UTF-8" standalone="no"?>
<!-- Created with Inkscape (http://www.inkscape.org/) -->

<svg
   version="1.1"
   id="svg13126"
   width="1132"
   height="1132"
   viewBox="0 0 1132 1132"
   sodipodi:docname="G.svg"
   inkscape:version="1.2.2 (732a01da63, 2022-12-09, custom)"
   xmlns:inkscape="http://www.inkscape.org/namespaces/inkscape"
   xmlns:sodipodi="http://sodipodi.sourceforge.net/DTD/sodipodi-0.dtd"
   xmlns="http://www.w3.org/2000/svg"
   xmlns:svg="http://www.w3.org/2000/svg">
  <defs
     id="defs13130" />
  <sodipodi:namedview
     id="namedview13128"
     pagecolor="#ffffff"
     bordercolor="#666666"
     borderopacity="1.0"
     inkscape:showpageshadow="2"
     inkscape:pageopacity="0.0"
     inkscape:pagecheckerboard="0"
     inkscape:deskcolor="#d1d1d1"
     showgrid="false"
     showguides="true"
     inkscape:zoom="0.60956921"
     inkscape:cx="564.33297"
     inkscape:cy="553.6697"
     inkscape:window-width="1920"
     inkscape:window-height="1009"
     inkscape:window-x="0"
     inkscape:window-y="0"
     inkscape:window-maximized="1"
     inkscape:current-layer="g13134">
    <inkscape:page
       x="0"
       y="0"
       id="page13132"
       width="1132"
       height="1132" />
  </sodipodi:namedview>
  <g
     id="g13134"
     inkscape:groupmode="layer"
     inkscape:label="Page 1"
     transform="matrix(1.3333333,0,0,1.3333333,0,2.83e-5)">
    <path
       id="path14718"
       style="font-size:15px;font-family:'DejaVu Sans';-inkscape-font-specification:DejaVuSans;fill:#0000ff"
       d="m 794.2934,456.60248 v -5.80811 h 1.24511 v 4.45313 h 2.68067 q -0.10987,-0.32227 -0.16114,-0.64453 -0.0586,-0.32227 -0.0586,-0.64453 0,-1.83106 1.00342,-2.9004 1.00342,-1.06933 2.71728,-1.06933 1.76514,0 2.74659,1.09863 0.97412,1.09863 0.97412,3.09815 0,0.68847 -0.11719,1.40625 -0.11719,0.71045 -0.35156,1.47216 h -1.48682 q 0.35889,-0.65918 0.53467,-1.3623 0.17578,-0.70313 0.17578,-1.48682 0,-1.26709 -0.6665,-2.00683 -0.66651,-0.73975 -1.80909,-0.73975 -1.14257,0 -1.80908,0.73975 -0.6665,0.73974 -0.6665,2.00683 0,0.59326 0.13183,1.18653 0.13184,0.58593 0.41016,1.20117 z m 9.68994,9.29831 v -2.41699 h -8.34229 l 0.52735,2.62939 h -1.34766 l -0.52734,-2.61475 v -1.47949 h 9.68994 v -2.41699 h 1.24511 v 6.29883 z M 72.046318,462.7948 v 5.80811 h -1.245117 v -4.45313 h -2.680664 q 0.109863,0.32227 0.161133,0.64453 0.05859,0.32227 0.05859,0.64453 0,1.83106 -1.003418,2.90039 -1.003418,1.06934 -2.717285,1.06934 -1.765136,0 -2.746582,-1.09863 -0.974121,-1.09864 -0.974121,-3.09815 0,-0.68847 0.117188,-1.40625 0.117187,-0.71045 0.351562,-1.47217 h 1.486817 q -0.358887,0.65918 -0.534668,1.36231 -0.175782,0.70312 -0.175782,1.48682 0,1.26708 0.666504,2.00683 0.666504,0.73975 1.809082,0.73975 1.142578,0 1.809082,-0.73975 0.666504,-0.73975 0.666504,-2.00683 0,-0.59327 -0.131836,-1.18653 -0.131836,-0.58594 -0.410156,-1.20117 z m -9.689941,-9.29831 v 2.41699 h 8.342285 l -0.527344,-2.62939 h 1.347656 l 0.527344,2.61474 v 1.4795 h -9.689941 v 2.41699 h -1.245118 v -6.29883 z m 670.619633,149.0361 -5.8374,-3.73535 v 3.73535 z m 1.28907,-0.38818 v 1.86035 h -7.12647 v 1.56006 h -1.23047 v -1.56006 h -2.57812 v -1.47217 h 2.57812 v -4.93652 h 1.42822 z m -9.68995,-12.96039 v 2.41699 h 8.34229 l -0.52734,-2.62939 h 1.34765 l 0.52735,2.61474 v 1.4795 h -9.68995 v 2.41699 h -1.24511 v -6.29883 z m -41.45916,-23.59882 0.91904,6.86903 2.85154,-2.4128 z m -1.12899,-0.73332 1.42017,-1.20166 4.60324,5.44029 1.19094,-1.0077 0.7948,0.93933 -1.19094,1.00769 1.6653,1.96813 -1.12383,0.95092 -1.66531,-1.96813 -3.76851,3.18868 -0.92253,-1.09029 z m -3.6348,15.76881 1.84511,-1.56122 -5.38857,-6.36844 -1.66663,2.10099 -0.8705,-1.0288 1.65544,-2.09152 1.12944,-0.95566 6.25907,7.39723 1.84512,-1.56122 0.80426,0.95052 -4.80848,4.06863 z m 93.43627,55.79917 q 1.06201,0.22705 1.65528,0.94483 0.60058,0.71777 0.60058,1.77246 0,1.61865 -1.11328,2.50488 -1.11328,0.88623 -3.16406,0.88623 -0.68848,0 -1.4209,-0.13916 -0.7251,-0.13184 -1.50147,-0.40283 v -1.42823 q 0.61524,0.35889 1.34766,0.542 0.73242,0.1831 1.53076,0.1831 1.3916,0 2.1167,-0.54931 0.73242,-0.54932 0.73242,-1.59668 0,-0.9668 -0.68115,-1.50879 -0.67383,-0.54932 -1.88232,-0.54932 h -1.27442 v -1.21582 h 1.33301 q 1.09131,0 1.66992,-0.43213 0.57862,-0.43945 0.57862,-1.25976 0,-0.84229 -0.60059,-1.28907 -0.59326,-0.4541 -1.70654,-0.4541 -0.60791,0 -1.30371,0.13184 -0.6958,0.13183 -1.53077,0.41015 v -1.31836 q 0.84229,-0.23437 1.57471,-0.35156 0.73975,-0.11719 1.3916,-0.11719 1.68457,0 2.66602,0.76905 0.98144,0.76172 0.98144,2.06543 0,0.9082 -0.52002,1.53808 -0.52002,0.62256 -1.47949,0.86426 z m -13.76605,4.65088 h 2.41699 v -8.34229 L 757.81,633.2558 v -1.34766 l 2.61474,-0.52734 h 1.4795 v 9.68994 h 2.41699 v 1.24512 h -6.29883 z m -617.43312,18.57465 q -0.22705,1.06201 -0.94483,1.65527 -0.71777,0.60059 -1.77246,0.60059 -1.61865,0 -2.50488,-1.11329 -0.88623,-1.11328 -0.88623,-3.16406 0,-0.68848 0.13916,-1.4209 0.13184,-0.72509 0.40283,-1.50146 h 1.42823 q -0.35889,0.61523 -0.542,1.34765 -0.1831,0.73243 -0.1831,1.53077 0,1.3916 0.54931,2.1167 0.54932,0.73242 1.59668,0.73242 0.9668,0 1.50879,-0.68116 0.54932,-0.67382 0.54932,-1.88232 v -1.27441 h 1.21582 v 1.333 q 0,1.09131 0.43213,1.66993 0.43945,0.57861 1.25976,0.57861 0.84229,0 1.28907,-0.60059 0.4541,-0.59326 0.4541,-1.70654 0,-0.60791 -0.13184,-1.30371 -0.13183,-0.6958 -0.41015,-1.53076 h 1.31836 q 0.23437,0.84228 0.35156,1.5747 0.11719,0.73975 0.11719,1.39161 0,1.68457 -0.76905,2.66601 -0.76172,0.98145 -2.06543,0.98145 -0.9082,0 -1.53808,-0.52002 -0.62256,-0.52002 -0.86426,-1.47949 z m -4.65088,-13.76612 v 2.41699 h 8.34229 l -0.52735,-2.62939 h 1.34766 l 0.52734,2.61475 v 1.47949 h -9.68994 v 2.41699 h -1.24512 v -6.29883 z m 668.04494,-54.70843 v -5.16358 h 1.24511 v 6.94336 h -1.24511 q -0.87158,-0.84228 -2.33643,-2.29248 -1.47217,-1.45752 -1.89697,-1.83105 -0.79834,-0.71045 -1.34766,-0.98877 -0.55664,-0.28565 -1.09131,-0.28565 -0.87158,0 -1.42089,0.61524 -0.54932,0.60791 -0.54932,1.58935 0,0.6958 0.2417,1.47217 0.2417,0.76904 0.73242,1.64795 h -1.49414 q -0.35889,-0.89355 -0.54199,-1.66992 -0.18311,-0.77637 -0.18311,-1.4209 0,-1.69922 0.84961,-2.70996 0.84961,-1.01074 2.27051,-1.01074 0.67383,0 1.28174,0.25634 0.60058,0.24903 1.4209,0.91553 0.2124,0.18311 1.23046,1.16455 1.01075,0.98145 2.83448,2.76856 z m 0,10.5581 v -2.41699 h -8.34229 l 0.52735,2.6294 h -1.34766 l -0.52734,-2.61475 v -1.47949 h 9.68994 v -2.417 h 1.24511 v 6.29883 z m -702.4119,-22.3929 3.94183,3.33533 -0.80427,0.95052 -5.300508,-4.48496 0.804268,-0.95052 q 1.20598,-0.12129 3.25924,-0.30281 2.06358,-0.18238 2.62314,-0.2654 1.05803,-0.15054 1.62531,-0.3901 0.57761,-0.24043 0.92297,-0.64859 0.56299,-0.66536 0.44815,-1.48211 -0.10925,-0.81201 -0.85848,-1.44597 -0.53117,-0.44944 -1.27996,-0.7664 -0.74321,-0.31225 -1.73113,-0.50535 l 0.96512,-1.14061 q 0.91394,0.30321 1.6249,0.66491 0.71093,0.3617 1.20297,0.77803 1.29716,1.09758 1.51997,2.39904 0.22281,1.30145 -0.695,2.38616 -0.43525,0.51439 -1.02362,0.81288 -0.57804,0.29764 -1.61672,0.49333 -0.27697,0.0439 -1.68381,0.18711 -1.4021,0.13765 -3.94437,0.37551 z m -8.059962,-6.81983 1.84512,1.56122 5.388572,-6.36843 -2.347893,-1.29586 0.870501,-1.02879 2.336712,1.28639 1.12943,0.95566 -6.259075,7.39722 1.845112,1.56122 -0.804266,0.95052 -4.808479,-4.06864 z M 210.14442,691.84418 h 2.417 v -8.34229 l -2.6294,0.52735 v -1.34766 l 2.61475,-0.52734 h 1.47949 v 9.68994 h 2.41699 v 1.24511 h -6.29883 z m -9.54,0 h 2.41699 v -8.34229 l -2.6294,0.52735 v -1.34766 l 2.61475,-0.52734 h 1.47949 v 9.68994 h 2.41699 v 1.24511 h -6.29882 z m 377.43843,-84.90241 h 2.41699 v -8.34228 l -2.6294,0.52734 v -1.34766 l 2.61475,-0.52734 h 1.47949 v 9.68994 h 2.41699 v 1.24512 h -6.29882 z m -9.53998,0 h 2.41699 v -8.34228 l -2.62939,0.52734 v -1.34766 l 2.61474,-0.52734 h 1.47949 v 9.68994 h 2.417 v 1.24512 h -6.29883 z m -171.69681,21.16315 q -1.14258,0 -1.72119,1.12793 -0.57129,1.1206 -0.57129,3.37646 0,2.24854 0.57129,3.37647 0.57861,1.1206 1.72119,1.1206 1.1499,0 1.72119,-1.1206 0.57862,-1.12793 0.57862,-3.37647 0,-2.25586 -0.57862,-3.37646 -0.57129,-1.12793 -1.72119,-1.12793 z m 0,-1.17188 q 1.83838,0 2.80518,1.45752 0.97412,1.4502 0.97412,4.21875 0,2.76123 -0.97412,4.21875 -0.9668,1.4502 -2.80518,1.4502 -1.83838,0 -2.8125,-1.4502 -0.9668,-1.45752 -0.9668,-4.21875 0,-2.76855 0.9668,-4.21875 0.97412,-1.45752 2.8125,-1.45752 z m -12.44772,9.8877 h 2.41699 v -8.34229 l -2.62939,0.52735 v -1.34766 l 2.61474,-0.52734 h 1.47949 v 9.68994 h 2.417 v 1.24512 h -6.29883 z m -115.46973,9.22998 q 0,1.14258 1.12793,1.72119 1.12061,0.57129 3.37647,0.57129 2.24853,0 3.37646,-0.57129 1.12061,-0.57861 1.12061,-1.72119 0,-1.1499 -1.12061,-1.72119 -1.12793,-0.57861 -3.37646,-0.57861 -2.25586,0 -3.37647,0.57861 -1.12793,0.57129 -1.12793,1.72119 z m -1.17187,0 q 0,-1.83838 1.45752,-2.80518 1.45019,-0.97412 4.21875,-0.97412 2.76123,0 4.21875,0.97412 1.45019,0.9668 1.45019,2.80518 0,1.83838 -1.45019,2.8125 -1.45752,0.9668 -4.21875,0.9668 -2.76856,0 -4.21875,-0.9668 -1.45752,-0.97412 -1.45752,-2.8125 z m 9.88769,12.44775 v -2.41699 h -8.34228 l 0.52734,2.6294 h -1.34766 l -0.52734,-2.61475 v -1.47949 h 9.68994 v -2.41699 h 1.24512 v 6.29882 z m 153.83838,-62.8775 h -1.34766 q 0.26368,-0.55664 0.40284,-1.12793 0.13916,-0.57129 0.13916,-1.1206 0,-1.46485 -0.98145,-2.23389 -0.98877,-0.77637 -2.9956,-0.88623 0.62988,0.4248 0.96679,1.07666 0.33692,0.65185 0.33692,1.44287 0,1.64063 -0.98877,2.6001 -0.9961,0.95215 -2.71729,0.95215 -1.68457,0 -2.70264,-0.9961 -1.01806,-0.99609 -1.01806,-2.65136 0,-1.89698 1.45752,-2.89307 1.45019,-1.00342 4.21875,-1.00342 2.58545,0 4.13086,1.23047 1.53808,1.22314 1.53808,3.2959 0,0.55664 -0.10986,1.12793 -0.10986,0.57129 -0.32959,1.18652 z m -4.63623,-2.94433 q 0,-0.9961 -0.68115,-1.57471 -0.68116,-0.58594 -1.86768,-0.58594 -1.1792,0 -1.86035,0.58594 -0.68848,0.57861 -0.68848,1.57471 0,0.99609 0.68848,1.58203 0.68115,0.57861 1.86035,0.57861 1.18652,0 1.86768,-0.57861 0.68115,-0.58594 0.68115,-1.58203 z m 39.92679,-16.8248 0.91064,-0.99343 q 0.23216,0.5705 0.55926,1.05912 0.32709,0.48861 0.73203,0.8598 1.07982,0.98982 2.30991,0.78599 1.24044,-0.20427 2.67748,-1.60938 -0.73877,0.17727 -1.44695,-0.0149 -0.70818,-0.1921 -1.29129,-0.72661 -1.20939,-1.1086 -1.24854,-2.48581 -0.0288,-1.37768 1.13424,-2.64646 1.1383,-1.2418 2.5605,-1.31919 1.42222,-0.0774 2.64241,1.04111 1.39837,1.28182 1.14777,3.02932 -0.24026,1.74706 -2.11102,3.78792 -1.74704,1.90588 -3.69836,2.21364 -1.94097,0.30731 -3.46891,-1.09329 -0.41033,-0.37613 -0.75722,-0.84316 -0.3469,-0.46701 -0.65195,-1.04472 z m 5.30324,-1.42808 q 0.73428,0.67308 1.62108,0.56195 0.89219,-0.10619 1.69395,-0.98085 0.79681,-0.86926 0.82515,-1.7673 0.0387,-0.8985 -0.69559,-1.57157 -0.73428,-0.67309 -1.63142,-0.5615 -0.8868,0.11113 -1.68361,0.98038 -0.80177,0.87466 -0.8355,1.76777 -0.0283,0.89804 0.70594,1.57112 z m -117.07232,20.0937 q 0,-1.05469 -0.56396,-1.6626 -0.56397,-0.60059 -1.55273,-0.60059 -0.98877,0 -1.55274,0.60059 -0.56396,0.60791 -0.56396,1.6626 0,1.05468 0.56396,1.66259 0.57129,0.60791 1.55274,0.60791 0.98876,0 1.55273,-0.60791 0.56396,-0.60058 0.56396,-1.66259 z m 0.62989,-1.4795 q 0.23437,-0.95214 0.88623,-1.48681 0.65185,-0.52735 1.58935,-0.52735 1.31104,0 2.07276,0.93018 0.76172,0.9375 0.76172,2.56348 0,1.6333 -0.76172,2.56347 -0.76172,0.93018 -2.07276,0.93018 -0.9375,0 -1.58935,-0.53467 -0.65186,-0.52734 -0.88623,-1.47217 -0.24903,1.06934 -0.97412,1.6626 -0.7251,0.60059 -1.77246,0.60059 -1.58936,0 -2.43897,-0.97413 -0.84961,-0.96679 -0.84961,-2.77587 0,-1.80909 0.84961,-2.78321 0.84961,-0.96679 2.43897,-0.96679 1.04736,0 1.77246,0.60058 0.72509,0.60059 0.97412,1.66992 z m 2.33642,-0.54199 q -0.84961,0 -1.32568,0.52735 -0.47607,0.53466 -0.47607,1.49414 0,0.95214 0.47607,1.48681 0.47607,0.54199 1.32568,0.54199 0.84961,0 1.32569,-0.54199 0.47607,-0.53467 0.47607,-1.48681 0,-0.95948 -0.47607,-1.49414 -0.47608,-0.52735 -1.32569,-0.52735 z m -47.39155,-19.5581 q -0.77747,0.71267 -0.84452,1.53918 -0.0616,0.82156 0.60649,1.55044 0.66814,0.72888 1.49194,0.73879 0.82922,0.005 1.60668,-0.70772 0.77747,-0.71268 0.84451,-1.53919 0.0621,-0.83191 -0.60108,-1.55539 -0.66814,-0.72887 -1.49735,-0.73383 -0.82381,-0.01 -1.60667,0.70772 z m -1.51625,0.5354 q -0.86026,0.47062 -1.69487,0.35138 -0.8292,-0.12418 -1.46269,-0.81527 -0.88589,-0.96644 -0.71491,-2.15649 0.17638,-1.19499 1.37497,-2.29369 1.204,-1.10365 2.4044,-1.17069 1.20039,-0.067 2.08629,0.89941 0.63348,0.69109 0.67982,1.53288 0.0517,0.83687 -0.48637,1.64807 0.95654,-0.53899 1.88383,-0.40537 0.93269,0.12869 1.64041,0.90076 1.07396,1.1716 0.92998,2.45613 -0.13858,1.27959 -1.47216,2.50202 -1.33358,1.22243 -2.62576,1.25437 -1.28678,0.027 -2.36074,-1.14461 -0.70773,-0.77208 -0.75496,-1.71242 -0.0472,-0.94033 0.57276,-1.84648 z m -1.9783,-1.35608 q 0.5741,0.6263 1.28452,0.6209 0.71583,-0.0103 1.42311,-0.65867 0.70189,-0.64339 0.77433,-1.35562 0.0778,-0.71718 -0.49626,-1.34347 -0.5741,-0.6263 -1.29532,-0.611 -0.71583,0.0103 -1.41772,0.65372 -0.70728,0.64834 -0.77972,1.36057 -0.067,0.70728 0.50706,1.33357 z M 420.7348,222.50723 v -7.03125 h 0.62989 l 10.30517,3.96973 v 1.54541 l -9.68994,-3.73535 v 5.25146 z m 56.11144,21.71166 -5.4015,4.50136 -0.40325,-0.48389 -3.5477,-10.45797 1.18721,-0.98936 3.33387,9.8353 4.03426,-3.36195 z M 272.79242,164.2045 q 0,0.99609 0.68115,1.58203 0.68115,0.57861 1.86768,0.57861 1.1792,0 1.86767,-0.57861 0.68116,-0.58594 0.68116,-1.58203 0,-0.9961 -0.68116,-1.57471 -0.68847,-0.58594 -1.86767,-0.58594 -1.18653,0 -1.86768,0.58594 -0.68115,0.57861 -0.68115,1.57471 z m -4.63623,-2.93701 h 1.34766 q -0.26368,0.55664 -0.40284,1.12793 -0.13916,0.56396 -0.13916,1.1206 0,1.46485 0.98877,2.24121 0.98877,0.76905 2.98828,0.87891 -0.6372,-0.43213 -0.97412,-1.08399 -0.34424,-0.65185 -0.34424,-1.43554 0,-1.64795 1.00342,-2.6001 0.9961,-0.95947 2.71729,-0.95947 1.68457,0 2.70263,0.99609 1.01807,0.99609 1.01807,2.65137 0,1.89697 -1.45019,2.90039 -1.45752,1.00342 -4.21875,1.00342 -2.59278,0 -4.13086,-1.23047 -1.54541,-1.23047 -1.54541,-3.30322 0,-0.55665 0.10986,-1.12061 0.10986,-0.57129 0.32959,-1.18652 z m 121.39062,22.30859 q 0.9961,0 1.58204,-0.68115 0.57861,-0.68115 0.57861,-1.86768 0,-1.1792 -0.57861,-1.86767 -0.58594,-0.68116 -1.58204,-0.68116 -0.99609,0 -1.5747,0.68116 -0.58594,0.68847 -0.58594,1.86767 0,1.18653 0.58594,1.86768 0.57861,0.68115 1.5747,0.68115 z m -2.93701,4.63623 v -1.34766 q 0.55664,0.26368 1.12793,0.40284 0.56397,0.13916 1.12061,0.13916 1.46484,0 2.24121,-0.98877 0.76904,-0.98877 0.8789,-2.98828 -0.43212,0.6372 -1.08398,0.97412 -0.65186,0.34424 -1.43555,0.34424 -1.64795,0 -2.60009,-1.00342 -0.95948,-0.9961 -0.95948,-2.71729 0,-1.68457 0.9961,-2.70263 0.99609,-1.01807 2.65136,-1.01807 1.89698,0 2.90039,1.45019 1.00342,1.45752 1.00342,4.21875 0,2.59278 -1.23047,4.13086 -1.23046,1.54541 -3.30322,1.54541 -0.55664,0 -1.1206,-0.10986 -0.57129,-0.10986 -1.18653,-0.32959 z m -25.90332,30.09326 v 5.80811 h -1.24512 v -4.45313 h -2.68066 q 0.10986,0.32227 0.16113,0.64453 0.0586,0.32227 0.0586,0.64454 0,1.83105 -1.00342,2.90039 -1.00342,1.06933 -2.71729,1.06933 -1.76513,0 -2.74658,-1.09863 -0.97412,-1.09863 -0.97412,-3.09815 0,-0.68847 0.11719,-1.40625 0.11719,-0.71044 0.35156,-1.47216 h 1.48682 q -0.35889,0.65918 -0.53467,1.3623 -0.17578,0.70313 -0.17578,1.48682 0,1.26709 0.6665,2.00683 0.66651,0.73975 1.80908,0.73975 1.14258,0 1.80909,-0.73975 0.6665,-0.73974 0.6665,-2.00683 0,-0.59326 -0.13184,-1.18653 -0.13183,-0.58593 -0.41015,-1.20117 z m -52.88218,28.60494 -4.46187,-3.71831 0.79711,-0.95652 3.42096,2.85086 1.71614,-2.05932 q -0.3179,-0.12192 -0.59829,-0.28884 -0.28508,-0.16131 -0.53265,-0.36761 -1.40664,-1.17224 -1.58574,-2.62765 -0.1791,-1.45543 0.91811,-2.77204 1.13003,-1.35601 2.60232,-1.40663 1.46762,-0.045 3.00367,1.23508 0.52889,0.44075 1.00528,0.99029 0.47075,0.54486 0.90587,1.21255 l -0.95185,1.14219 q -0.27663,-0.6977 -0.70425,-1.28287 -0.42761,-0.58517 -1.02966,-1.08689 -0.9734,-0.81119 -1.96837,-0.77274 -0.99498,0.0384 -1.72645,0.91618 -0.73147,0.87774 -0.58987,1.86334 0.14158,0.98559 1.11498,1.79678 0.45576,0.3798 0.99591,0.65833 0.53452,0.27383 1.18534,0.45389 z M 202.25873,134.0751 l 3.73535,-5.8374 h -3.73535 z m 0.38818,1.28907 h -1.86035 v -7.12647 h -1.56006 v -1.23047 h 1.56006 v -2.57812 h 1.47217 v 2.57812 h 4.93652 v 1.42823 z m 373.17041,83.60937 3.73535,-5.8374 h -3.73535 z m 0.38819,1.28906 h -1.86036 v -7.12646 h -1.56005 v -1.23047 h 1.56005 v -2.57812 h 1.47217 v 2.57812 h 4.93653 v 1.42822 z M 80.837334,130.3251 q -1.062012,-0.22705 -1.655274,-0.94482 -0.600586,-0.71777 -0.600586,-1.77246 0,-1.61865 1.113282,-2.50488 1.113281,-0.88623 3.164062,-0.88623 0.688477,0 1.420898,0.13916 0.725098,0.13183 1.501465,0.40283 v 1.42822 q -0.615234,-0.35889 -1.347656,-0.54199 -0.732422,-0.18311 -1.530762,-0.18311 -1.391601,0 -2.116699,0.54932 -0.732422,0.54932 -0.732422,1.59668 0,0.9668 0.681153,1.50879 0.673828,0.54931 1.882324,0.54931 h 1.274414 v 1.21582 h -1.333008 q -1.091309,0 -1.669922,0.43213 -0.578613,0.43946 -0.578613,1.25977 0,0.84228 0.600586,1.28906 0.593262,0.4541 1.706543,0.4541 0.60791,0 1.303711,-0.13183 0.695801,-0.13184 1.530761,-0.41016 v 1.31836 q -0.842285,0.23438 -1.574707,0.35156 -0.739746,0.11719 -1.391601,0.11719 -1.68457,0 -2.666016,-0.76904 -0.981445,-0.76172 -0.981445,-2.06543 0,-0.90821 0.520019,-1.53809 0.52002,-0.62256 1.479493,-0.86426 z M 681.22353,240.21823 q -0.6705,-0.85431 -0.66674,-1.78552 -0.002,-0.9359 0.67335,-1.74613 1.03624,-1.24347 2.45884,-1.21157 1.4226,0.0319 2.99804,1.34481 0.52889,0.44075 1.00247,1.01655 0.47262,0.56548 0.89555,1.27068 l -0.91434,1.09719 q -0.24287,-0.66957 -0.68831,-1.27913 -0.44543,-0.60955 -1.05873,-1.12065 -1.06905,-0.89089 -1.97775,-0.9331 -0.91432,-0.0469 -1.58483,0.7577 -0.61894,0.74271 -0.44265,1.59514 0.16597,0.85338 1.09436,1.62705 l 0.97902,0.81587 -0.77836,0.93401 -1.02404,-0.85339 q -0.83835,-0.69864 -1.5595,-0.7371 -0.72583,-0.0328 -1.25099,0.59735 -0.53922,0.64705 -0.36387,1.37476 0.16504,0.72866 1.02028,1.44137 0.46701,0.38918 1.08593,0.73334 0.61892,0.34418 1.43853,0.6649 l -0.84401,1.01279 q -0.7971,-0.35919 -1.43478,-0.73805 -0.6433,-0.38355 -1.14407,-0.80086 -1.29411,-1.07845 -1.55572,-2.29756 -0.26632,-1.21348 0.56831,-2.21501 0.58142,-0.69769 1.38415,-0.84866 0.79805,-0.14535 1.68986,0.28322 z m 83.64994,26.95599 h -5.16357 v -1.24511 h 6.94336 v 1.24511 q -0.84229,0.87159 -2.29248,2.33643 -1.45752,1.47217 -1.83106,1.89697 -0.71045,0.79834 -0.98877,1.34766 -0.28564,0.55664 -0.28564,1.09131 0,0.87158 0.61523,1.4209 0.60791,0.54931 1.58936,0.54931 0.6958,0 1.47217,-0.2417 0.76904,-0.2417 1.64795,-0.73242 v 1.49414 q -0.89356,0.35889 -1.66992,0.54199 -0.77637,0.18311 -1.4209,0.18311 -1.69922,0 -2.70996,-0.84961 -1.01075,-0.84961 -1.01075,-2.27051 0,-0.67383 0.25635,-1.28174 0.24902,-0.60058 0.91553,-1.42089 0.1831,-0.21241 1.16455,-1.23047 0.98144,-1.01074 2.76855,-2.83448 z M 41.864189,164.78409 v 5.16357 h -1.245117 v -6.94336 h 1.245117 q 0.871582,0.84229 2.336426,2.29248 1.472168,1.45752 1.896973,1.83106 0.798339,0.71045 1.347656,0.98877 0.55664,0.28564 1.091308,0.28564 0.871582,0 1.420899,-0.61523 0.549316,-0.60791 0.549316,-1.58936 0,-0.6958 -0.241699,-1.47217 -0.241699,-0.76904 -0.732422,-1.64794 h 1.494141 q 0.358887,0.89355 0.541992,1.66992 0.183105,0.77636 0.183105,1.4209 0,1.69921 -0.849609,2.70996 -0.849609,1.01074 -2.270508,1.01074 -0.673828,0 -1.281738,-0.25635 -0.600586,-0.24902 -1.420898,-0.91553 -0.212403,-0.1831 -1.230469,-1.16455 -1.010742,-0.98144 -2.834473,-2.76855 z m 40.064453,40.29834 h 2.416992 v -8.34229 l -2.629394,0.52735 v -1.34766 l 2.614746,-0.52734 h 1.479492 v 9.68994 h 2.416992 v 1.24512 h -6.298828 z m 14.472448,32.26371 -1.856767,1.54734 5.340669,6.40866 1.682338,-2.08843 0.86276,1.03529 -1.67108,2.07905 -1.13657,0.94716 -6.203431,-7.44395 -1.856768,1.54734 -0.797117,-0.95651 4.838849,-4.03247 z m 698.86643,65.71334 q 0,1.14258 1.12793,1.72119 1.1206,0.57129 3.37646,0.57129 2.24854,0 3.37647,-0.57129 1.1206,-0.57861 1.1206,-1.72119 0,-1.1499 -1.1206,-1.72119 -1.12793,-0.57862 -3.37647,-0.57862 -2.25586,0 -3.37646,0.57862 -1.12793,0.57129 -1.12793,1.72119 z m -1.17188,0 q 0,-1.83838 1.45752,-2.80518 1.4502,-0.97412 4.21875,-0.97412 2.76123,0 4.21875,0.97412 1.4502,0.9668 1.4502,2.80518 0,1.83838 -1.4502,2.8125 -1.45752,0.9668 -4.21875,0.9668 -2.76855,0 -4.21875,-0.9668 -1.45752,-0.97412 -1.45752,-2.8125 z m -723.023443,1.97754 q 0,-1.14258 -1.12793,-1.72119 -1.120605,-0.57129 -3.376465,-0.57129 -2.248535,0 -3.376464,0.57129 -1.120606,0.57861 -1.120606,1.72119 0,1.1499 1.120606,1.72119 1.127929,0.57861 3.376464,0.57861 2.25586,0 3.376465,-0.57861 1.12793,-0.57129 1.12793,-1.72119 z m 1.171875,0 q 0,1.83838 -1.45752,2.80517 -1.450195,0.97412 -4.21875,0.97412 -2.76123,0 -4.21875,-0.97412 -1.450195,-0.96679 -1.450195,-2.80517 0,-1.83838 1.450195,-2.8125 1.45752,-0.9668 4.21875,-0.9668 2.768555,0 4.21875,0.9668 1.45752,0.97412 1.45752,2.8125 z" />
    <path
       id="path13644"
       style="fill:none;stroke:#800000;stroke-width:1;stroke-linecap:butt;stroke-linejoin:miter;stroke-miterlimit:10;stroke-dasharray:8,8;stroke-dashoffset:0;stroke-opacity:1"
       d="m 386.04851,654.56632 v 84.903 m -90.559,-84.903 h 90.559 M 591.65332,175.72914 591.55126,90.830164 m 73.68243,84.811876 -0.10207,-84.898981 m 141.59897,84.733181 -141.4969,0.1658 m -33.96268,105.76729 h -107.543 m -266.015,0 h -107.543 m 373.558,0 v 249.039 m -266.015,0 v -249.039 m 266.015,249.039 h 107.543 m -481.101,0 h 107.543 m 373.558,0 v -84.898 m -481.101,0 v 84.898 m 481.101,-84.898 h -50.941 m -379.219,0 h -50.941 m 430.16,0 v -73.58201 m -379.219,0 v 73.582 M 59.611011,371.96832 H 201.11101 m 520.719,0 v 175.46101 m 84.898,0 h -84.898 m -662.218999,0 V 371.96832 m 662.218999,175.46101 -73.582,62.258 m -515.055,84.902 v -84.90201 m 0,0 -73.581999,-62.25799 m 588.636999,62.25799 h -147.156 m -220.742,0 v 84.90201 m 0,-84.90201 h -147.157 m 367.899,0 -67.922,-62.25799 m -84.899,0 -67.921,62.25799 m 152.82,-62.25799 h -84.899 m 0,-283.00001 h 84.899 m 0,0 67.922,-56.602 m -220.742,-84.898 v 84.898 m 0,0 67.921,56.602 m 152.821,-56.602 h 152.816 m -526.375,0 v -84.898 m 0,84.898 h 152.817 m 373.558,0 67.922,56.602 m 0,0 h 84.898 m -747.116999,0 67.921999,-56.602 m 594.297,56.602 v 79.24201 m -571.66,-62.262 v 62.262 m 481.101,0 v -62.262 m -571.659999,62.262 v -79.24201 m 662.218999,79.24201 h -90.559 m -283,203.758 v -283 m 84.899,283 v -283" />
    <path
       id="path14933"
       style="font-size:15px;font-family:'DejaVu Sans';-inkscape-font-specification:DejaVuSans"
       d="m 505.07632,737.74188 v -1.34765 q 0.55665,0.26367 1.12793,0.40283 0.57129,0.13916 1.12061,0.13916 1.46484,0 2.23389,-0.98145 0.77636,-0.98877 0.88623,-2.9956 -0.42481,0.62988 -1.07666,0.96679 -0.65186,0.33692 -1.44287,0.33692 -1.64063,0 -2.6001,-0.98877 -0.95215,-0.99609 -0.95215,-2.71729 0,-1.68457 0.99609,-2.70263 0.9961,-1.01807 2.65137,-1.01807 1.89697,0 2.89307,1.45752 1.00341,1.4502 1.00341,4.21875 0,2.58545 -1.23046,4.13086 -1.22315,1.53809 -3.2959,1.53809 -0.55664,0 -1.12793,-0.10987 -0.57129,-0.10986 -1.18653,-0.32959 z m 2.94434,-4.63623 q 0.99609,0 1.57471,-0.68115 0.58593,-0.68115 0.58593,-1.86768 0,-1.1792 -0.58593,-1.86035 -0.57862,-0.68847 -1.57471,-0.68847 -0.99609,0 -1.58203,0.68847 -0.57861,0.68115 -0.57861,1.86035 0,1.18653 0.57861,1.86768 0.58594,0.68115 1.58203,0.68115 z m -12.27191,3.61817 h 2.41699 v -8.34229 l -2.62939,0.52734 v -1.34765 l 2.61474,-0.52735 h 1.47949 v 9.68995 h 2.417 v 1.24511 h -6.29883 z m 0.23004,-75.46436 q 1.05469,0 1.6626,-0.56396 0.60058,-0.56397 0.60058,-1.55274 0,-0.98877 -0.60058,-1.55273 -0.60791,-0.56397 -1.6626,-0.56397 -1.05469,0 -1.6626,0.56397 -0.60791,0.57129 -0.60791,1.55273 0,0.98877 0.60791,1.55274 0.60059,0.56396 1.6626,0.56396 z m 1.47949,0.62988 q 0.95215,0.23438 1.48682,0.88623 0.52734,0.65186 0.52734,1.58936 0,1.31103 -0.93017,2.07275 -0.9375,0.76172 -2.56348,0.76172 -1.6333,0 -2.56348,-0.76172 -0.93017,-0.76172 -0.93017,-2.07275 0,-0.9375 0.53467,-1.58936 0.52734,-0.65185 1.47216,-0.88623 -1.06933,-0.24902 -1.66259,-0.97412 -0.60059,-0.7251 -0.60059,-1.77246 0,-1.58935 0.97412,-2.43896 0.9668,-0.84961 2.77588,-0.84961 1.80908,0 2.7832,0.84961 0.9668,0.84961 0.9668,2.43896 0,1.04736 -0.60059,1.77246 -0.60058,0.7251 -1.66992,0.97412 z m 0.54199,2.33643 q 0,-0.84961 -0.52734,-1.32568 -0.53467,-0.47608 -1.49414,-0.47608 -0.95215,0 -1.48682,0.47608 -0.54199,0.47607 -0.54199,1.32568 0,0.84961 0.54199,1.32568 0.53467,0.47608 1.48682,0.47608 0.95947,0 1.49414,-0.47608 0.52734,-0.47607 0.52734,-1.32568 z m 10.42621,-6.91406 h -2.41699 v 8.34228 l 2.6294,-0.52734 v 1.34765 l -2.61475,0.52735 h -1.47949 v -9.68994 h -2.41699 v -1.24512 h 6.29882 z m 174.63468,69.72216 h 7.03125 v 0.62989 l -3.96973,10.30517 h -1.54541 l 3.73535,-9.68994 h -5.25146 z m -8.9101,9.68995 h 2.41699 v -8.34229 l -2.62939,0.52734 v -1.34765 l 2.61475,-0.52735 h 1.47949 v 9.68995 h 2.41699 v 1.24511 h -6.29883 z m 119.28028,-45.51606 q 0,1.14258 1.12793,1.7212 1.1206,0.57128 3.37646,0.57128 2.24854,0 3.37646,-0.57128 1.12061,-0.57862 1.12061,-1.7212 0,-1.1499 -1.12061,-1.72119 -1.12792,-0.57861 -3.37646,-0.57861 -2.25586,0 -3.37646,0.57861 -1.12793,0.57129 -1.12793,1.72119 z m -1.17188,0 q 0,-1.83838 1.45752,-2.80517 1.4502,-0.97412 4.21875,-0.97412 2.76123,0 4.21875,0.97412 1.4502,0.96679 1.4502,2.80517 0,1.83838 -1.4502,2.8125 -1.45752,0.9668 -4.21875,0.9668 -2.76855,0 -4.21875,-0.9668 -1.45752,-0.97412 -1.45752,-2.8125 z m 9.8877,11.42969 v -5.16357 h 1.24511 v 6.94336 h -1.24511 q -0.87159,-0.84229 -2.33643,-2.29248 -1.47217,-1.45752 -1.89697,-1.83106 -0.79834,-0.71045 -1.34766,-0.98877 -0.55664,-0.28564 -1.09131,-0.28564 -0.87158,0 -1.4209,0.61523 -0.54931,0.60791 -0.54931,1.58936 0,0.6958 0.2417,1.47216 0.2417,0.76905 0.73242,1.64795 h -1.49414 q -0.35889,-0.89355 -0.54199,-1.66992 -0.18311,-0.77636 -0.18311,-1.4209 0,-1.69921 0.84961,-2.70996 0.84961,-1.01074 2.27051,-1.01074 0.67383,0 1.28174,0.25635 0.60058,0.24902 1.42089,0.91553 0.21241,0.1831 1.23047,1.16455 1.01075,0.98144 2.83448,2.76855 z M 674.12769,662.12372 q 0.99609,0 1.58203,-0.68115 0.57861,-0.68116 0.57861,-1.86768 0,-1.1792 -0.57861,-1.86768 -0.58594,-0.68115 -1.58203,-0.68115 -0.9961,0 -1.57471,0.68115 -0.58594,0.68848 -0.58594,1.86768 0,1.18652 0.58594,1.86768 0.57861,0.68115 1.57471,0.68115 z m -2.93702,4.63623 v -1.34766 q 0.55664,0.26367 1.12793,0.40283 0.56397,0.13916 1.12061,0.13916 1.46484,0 2.24121,-0.98876 0.76904,-0.98877 0.87891,-2.98829 -0.43213,0.63721 -1.08399,0.97412 -0.65185,0.34424 -1.43555,0.34424 -1.64794,0 -2.60009,-1.00341 -0.95948,-0.9961 -0.95948,-2.71729 0,-1.68457 0.9961,-2.70264 0.99609,-1.01806 2.65137,-1.01806 1.89697,0 2.90039,1.45019 1.00341,1.45752 1.00341,4.21875 0,2.59278 -1.23046,4.13086 -1.23047,1.54541 -3.30323,1.54541 -0.55664,0 -1.1206,-0.10986 -0.57129,-0.10986 -1.18653,-0.32959 z m 15.56781,-9.44824 h -2.41699 v 8.34228 l 2.6294,-0.52734 v 1.34765 l -2.61475,0.52735 h -1.47949 v -9.68994 h -2.41699 v -1.24512 h 6.29882 z m -271.26168,8.40088 3.73535,-5.83741 h -3.73535 z m 0.38818,1.28906 h -1.86035 v -7.12647 h -1.56006 v -1.23047 h 1.56006 v -2.57812 h 1.47217 v 2.57812 h 4.93652 v 1.42823 z m 3.78125,65.07129 q 1.06201,0.22705 1.65527,0.94482 0.60059,0.71777 0.60059,1.77246 0,1.61865 -1.11328,2.50488 -1.11328,0.88624 -3.16407,0.88624 -0.68847,0 -1.42089,-0.13916 -0.7251,-0.13184 -1.50147,-0.40284 v -1.42822 q 0.61524,0.35889 1.34766,0.54199 0.73242,0.18311 1.53076,0.18311 1.3916,0 2.1167,-0.54932 0.73242,-0.54931 0.73242,-1.59668 0,-0.96679 -0.68115,-1.50879 -0.67383,-0.54931 -1.88233,-0.54931 h -1.27441 v -1.21582 h 1.33301 q 1.09131,0 1.66992,-0.43213 0.57861,-0.43946 0.57861,-1.25977 0,-0.84228 -0.60058,-1.28906 -0.59326,-0.4541 -1.70655,-0.4541 -0.60791,0 -1.30371,0.13183 -0.6958,0.13184 -1.53076,0.41016 v -1.31836 q 0.84229,-0.23437 1.57471,-0.35156 0.73974,-0.11719 1.3916,-0.11719 1.68457,0 2.66602,0.76904 0.98144,0.76172 0.98144,2.06543 0,0.90821 -0.52002,1.53809 -0.52002,0.62256 -1.47949,0.86426 z m -78.30078,-74.76123 h -5.16358 v -1.24512 h 6.94336 v 1.24512 q -0.84228,0.87158 -2.29248,2.33642 -1.45752,1.47217 -1.83105,1.89697 -0.71045,0.79834 -0.98877,1.34766 -0.28565,0.55664 -0.28565,1.09131 0,0.87158 0.61524,1.4209 0.60791,0.54931 1.58935,0.54931 0.6958,0 1.47217,-0.24169 0.76904,-0.2417 1.64795,-0.73243 v 1.49414 q -0.89355,0.35889 -1.66992,0.542 -0.77637,0.1831 -1.4209,0.1831 -1.69922,0 -2.70996,-0.84961 -1.01074,-0.84961 -1.01074,-2.27051 0,-0.67382 0.25635,-1.28173 0.24902,-0.60059 0.91552,-1.4209 0.18311,-0.2124 1.16455,-1.23047 0.98145,-1.01074 2.76856,-2.83447 z m -43.13037,38.3106 v 2.417 h 8.34228 l -0.52734,-2.6294 h 1.34765 l 0.52735,2.61475 v 1.47949 h -9.68994 v 2.41699 h -1.24512 v -6.29883 z m 43.52295,32.38569 q -1.14258,0 -1.7212,1.12793 -0.57128,1.1206 -0.57128,3.37646 0,2.24854 0.57128,3.37646 0.57862,1.12061 1.7212,1.12061 1.1499,0 1.72119,-1.12061 0.57861,-1.12792 0.57861,-3.37646 0,-2.25586 -0.57861,-3.37646 -0.57129,-1.12793 -1.72119,-1.12793 z m 0,-1.17188 q 1.83838,0 2.80517,1.45752 0.97412,1.4502 0.97412,4.21875 0,2.76123 -0.97412,4.21875 -0.96679,1.4502 -2.80517,1.4502 -1.83838,0 -2.8125,-1.4502 -0.9668,-1.45752 -0.9668,-4.21875 0,-2.76855 0.9668,-4.21875 0.97412,-1.45752 2.8125,-1.45752 z m 17.93254,-587.46861 q -10e-4,-1.14258 -1.12997,-1.71985 -1.12128,-0.56996 -3.37714,-0.56728 -2.24854,0.003 -3.37579,0.57529 -1.11991,0.57994 -1.11856,1.72252 10e-4,1.1499 1.12265,1.71986 1.12861,0.57728 3.37715,0.57461 2.25586,-0.003 3.37577,-0.58262 1.12725,-0.57263 1.12589,-1.72253 z m 1.17188,-0.001 q 0.002,1.83838 -1.45419,2.80691 -1.44905,0.97584 -4.21759,0.97912 -2.76123,0.003 -4.21991,-0.96911 -1.45134,-0.96508 -1.45352,-2.80346 -0.002,-1.83838 1.44686,-2.81422 1.45637,-0.96853 4.2176,-0.9718 2.76854,-0.003 4.21989,0.96179 1.45868,0.97239 1.46086,2.81077 z m -9.90126,-11.4183 0.006,5.16358 -1.24511,10e-4 -0.008,-6.94335 1.24511,-10e-4 q 0.87258,0.84125 2.33915,2.28971 1.4739,1.45577 1.89914,1.82879 0.79918,0.70951 1.34883,0.98717 0.55698,0.28499 1.09165,0.28436 0.87158,-0.001 1.42016,-0.61693 0.5486,-0.60856 0.54743,-1.59 -8.2e-4,-0.69581 -0.24344,-1.47188 -0.24262,-0.76876 -0.73438,-1.64708 l 1.49414,-0.002 q 0.35995,0.89312 0.54397,1.66927 0.18403,0.77616 0.1848,1.42069 0.002,1.69921 -0.8464,2.71096 -0.84841,1.01175 -2.26931,1.01344 -0.67383,8e-4 -1.28204,-0.25483 -0.60087,-0.24831 -1.42198,-0.91384 -0.21262,-0.18285 -1.23185,-1.16309 -1.01191,-0.98025 -2.83776,-2.76519 z m 54.16121,35.56846 5.8081,-0.007 0.001,1.24512 -4.45313,0.005 0.003,2.68067 q 0.32214,-0.11025 0.64433,-0.1619 0.3222,-0.059 0.64446,-0.0594 1.83106,-0.002 2.90158,0.99998 1.07053,1.00215 1.07257,2.71601 0.002,1.76514 -1.09537,2.74788 -1.09749,0.97543 -3.097,0.97781 -0.68846,8.1e-4 -1.40638,-0.11553 -0.71059,-0.11634 -1.47259,-0.34981 l -0.002,-1.48682 q 0.6596,0.35811 1.36294,0.53306 0.70333,0.17494 1.48703,0.17401 1.26709,-0.001 2.00604,-0.66889 0.73895,-0.66738 0.7376,-1.80996 -0.001,-1.14258 -0.7419,-1.8082 -0.74053,-0.66562 -2.00762,-0.66411 -0.59327,7e-4 -1.18637,0.13323 -0.58578,0.13254 -1.20068,0.41159 z m -9.28681,9.70098 2.41699,-0.003 -0.01,-8.34228 -2.62876,0.53046 -0.002,-1.34765 2.61411,-0.53045 1.4795,-0.002 0.0115,9.68994 2.41699,-0.003 0.001,1.24511 -6.29883,0.007 z m -0.79255,-71.00832 3.72843,-5.841827 -3.73535,0.0044 z m 0.38971,1.2886 -1.86034,0.002 -0.008,-7.126457 -1.56006,0.0019 -10e-4,-1.230468 1.56006,-0.0019 -0.003,-2.578123 1.47217,-0.0017 0.003,2.578123 4.93651,-0.0059 0.002,1.428222 z m 12.94892,-9.705309 -2.41699,0.0029 0.01,8.342279 2.62876,-0.53047 0.002,1.34766 -2.61411,0.53044 -1.4795,0.002 -0.0115,-9.68993 -2.41699,0.0029 -0.001,-1.245117 6.29883,-0.0075 z m 97.38042,74.640889 q 1.06228,0.22579 1.65639,0.94285 0.60145,0.71707 0.6027,1.77175 0.002,1.61866 -1.11031,2.50621 -1.11223,0.88755 -3.16302,0.88998 -0.68847,8.2e-4 -1.42105,-0.13747 -0.72526,-0.13098 -1.50195,-0.40105 l -0.002,-1.42823 q 0.61566,0.35816 1.3483,0.5404 0.73264,0.18223 1.53098,0.18129 1.3916,-0.002 2.11604,-0.55184 0.73177,-0.55017 0.73053,-1.59754 -10e-4,-0.96679 -0.68294,-1.50797 -0.67448,-0.54852 -1.88298,-0.54709 l -1.27441,0.002 -10e-4,-1.21582 1.333,-0.002 q 1.09131,-0.001 1.66941,-0.43411 0.57809,-0.44014 0.57712,-1.26046 -10e-4,-0.84228 -0.60211,-1.28834 -0.5938,-0.4534 -1.70709,-0.45208 -0.60791,7.2e-4 -1.30355,0.13339 -0.69565,0.13266 -1.53028,0.41197 l -0.002,-1.31836 q 0.84201,-0.23537 1.57429,-0.35343 0.7396,-0.11807 1.39146,-0.11884 1.68457,-0.002 2.66693,0.76588 0.98234,0.76055 0.98389,2.06427 10e-4,0.9082 -0.51819,1.53869 -0.51928,0.62318 -1.47847,0.86602 z m -13.76055,4.66721 2.41699,-0.003 -0.01,-8.34228 -2.62877,0.53047 -0.002,-1.34766 2.61412,-0.53044 1.47949,-0.002 0.0115,9.68993 2.41699,-0.003 10e-4,1.24512 -6.29882,0.007 z m 1.71453,-79.412871 -5.16356,0.0061 -10e-4,-1.245117 6.94335,-0.0082 10e-4,1.245116 q -0.84125,0.872581 -2.2897,2.339145 -1.45578,1.473897 -1.82881,1.899144 -0.7095,0.799182 -0.98717,1.348829 -0.28498,0.556982 -0.28435,1.091644 10e-4,0.87159 0.61692,1.42017 0.60856,0.54859 1.59001,0.54743 0.6958,-8.3e-4 1.47188,-0.24345 0.76875,-0.24261 1.64708,-0.73437 l 0.002,1.49414 q -0.89313,0.35995 -1.66928,0.54397 -0.77614,0.18403 -1.42067,0.18479 -1.69922,0.002 -2.71098,-0.84639 -1.01175,-0.84841 -1.01343,-2.26931 -8e-4,-0.673827 0.25483,-1.28204 0.2483,-0.600881 0.91384,-1.421983 0.18285,-0.212621 1.16309,-1.23185 0.98024,-1.011906 2.76518,-2.837757 z m 10.55807,-0.01253 -2.41698,0.0029 0.01,8.342279 2.62876,-0.53047 0.002,1.34766 -2.61412,0.53044 -1.47949,0.002 -0.0115,-9.689931 -2.41699,0.0029 -10e-4,-1.245116 6.29883,-0.0075 z m 65.27697,79.333309 2.41699,-0.003 -0.01,-8.34229 -2.62877,0.53047 -0.002,-1.34766 2.61412,-0.53044 1.47949,-0.002 0.0115,9.68994 2.41699,-0.003 10e-4,1.24511 -6.29882,0.007 z m -9.54004,0.0113 2.41699,-0.003 -0.01,-8.34229 -2.62876,0.53047 -0.002,-1.34766 2.61411,-0.53044 1.47949,-0.002 0.0115,9.68994 2.417,-0.003 10e-4,1.24511 -6.29883,0.007 z m -0.005,-70.69231 q 1.14258,-0.001 1.71985,-1.12997 0.56996,-1.12128 0.56728,-3.377137 -0.003,-2.248534 -0.57529,-3.375785 -0.57994,-1.119918 -1.72252,-1.118562 -1.1499,0.0014 -1.71986,1.122647 -0.57727,1.128616 -0.5746,3.377149 0.003,2.255858 0.58261,3.375768 0.57263,1.12726 1.72253,1.12589 z m 0.001,1.17188 q -1.83838,0.002 -2.8069,-1.45419 -0.97584,-1.44904 -0.97912,-4.217592 -0.003,-2.761228 0.96911,-4.219903 0.96507,-1.451341 2.80345,-1.453523 1.83838,-0.0022 2.81422,1.446857 0.96853,1.456371 0.9718,4.217599 0.003,2.768552 -0.96179,4.219892 -0.97239,1.45868 -2.81077,1.46086 z m 12.43635,-9.902461 -2.417,0.0029 0.01,8.342281 2.62877,-0.53047 0.002,1.34766 -2.61412,0.53044 -1.47949,0.002 -0.0115,-9.689933 -2.41699,0.0029 -10e-4,-1.245116 6.29882,-0.0075 z m 53.87324,80.364441 -0.002,-1.34766 q 0.55695,0.26302 1.12841,0.4015 0.57145,0.13849 1.12076,0.13783 1.46485,-0.002 2.23272,-0.9841 0.7752,-0.98969 0.88268,-2.99665 -0.42405,0.63039 -1.07551,0.96807 -0.65145,0.33769 -1.44247,0.33863 -1.64063,0.002 -2.60127,-0.98568 -0.95333,-0.99497 -0.95538,-2.71616 -0.002,-1.68457 0.99289,-2.70381 0.99489,-1.01925 2.65015,-1.02122 1.89698,-0.002 2.8948,1.45409 1.00514,1.449 1.00843,4.21756 0.003,2.58544 -1.22557,4.13231 -1.22131,1.53953 -3.29407,1.54199 -0.55664,6.6e-4 -1.12806,-0.10852 -0.57142,-0.10918 -1.18691,-0.32818 z m 2.93882,-4.63972 q 0.9961,-10e-4 1.57391,-0.68302 0.58513,-0.68184 0.58372,-1.86837 -10e-4,-1.1792 -0.58815,-1.85966 -0.57943,-0.68779 -1.57552,-0.68661 -0.99609,0.001 -1.58122,0.69036 -0.5778,0.68184 -0.5764,1.86104 10e-4,1.18653 0.58083,1.86699 0.58675,0.68045 1.58283,0.67927 z m -1.9257,-71.84227 q 1.05468,-0.0013 1.66193,-0.565938 0.59991,-0.564677 0.59873,-1.553446 -10e-4,-0.988769 -0.60242,-1.55202 -0.60858,-0.563244 -1.66327,-0.561992 -1.05469,0.0013 -1.66193,0.565937 -0.60723,0.57201 -0.60606,1.553455 10e-4,0.988769 0.60975,1.552012 0.60126,0.563252 1.66327,0.561992 z m 1.48023,0.628127 q 0.95243,0.233245 1.48787,0.884465 0.52812,0.651229 0.52923,1.588728 0.002,1.31104 -0.92771,2.07385 -0.9366,0.76283 -2.56258,0.76476 -1.63329,0.002 -2.56438,-0.75867 -0.93107,-0.76061 -0.93263,-2.07165 -10e-4,-0.937498 0.53279,-1.589987 0.52656,-0.65248 1.4711,-0.887976 -1.06962,-0.247755 -1.66374,-0.972149 -0.60145,-0.724383 -0.60269,-1.771747 -0.002,-1.589354 0.97122,-2.440118 0.96579,-0.850757 2.77487,-0.852903 1.80908,-0.0021 2.78421,0.846306 0.96781,0.848462 0.96969,2.437815 0.001,1.047364 -0.59849,1.773173 -0.59971,0.72581 -1.66876,0.976103 z m 0.54476,2.335783 q -10e-4,-0.849612 -0.52891,-1.325059 -0.53523,-0.475441 -1.4947,-0.474302 -0.95215,0.0011 -1.48626,0.477839 -0.54142,0.476716 -0.54041,1.326322 10e-4,0.84961 0.54356,1.32504 0.53523,0.47544 1.48738,0.47431 0.95947,-10e-4 1.49358,-0.47785 0.52677,-0.47669 0.52576,-1.3263 z m 104.32819,62.68023 7.03125,-0.008 7.5e-4,0.62988 -3.9575,10.30987 -1.54541,0.002 3.72385,-9.69437 -5.25146,0.006 z m 65.44006,-31.26517 q 10e-4,0.99609 0.68302,1.58122 0.68184,0.5778 1.86837,0.57639 1.1792,-0.001 1.86698,-0.58083 0.68047,-0.58674 0.67928,-1.58283 -10e-4,-0.9961 -0.68302,-1.5739 -0.68917,-0.58513 -1.86837,-0.58373 -1.18653,0.001 -1.86698,0.58816 -0.68047,0.57942 -0.67928,1.57552 z m -4.63972,-2.93152 1.34766,-0.002 q -0.26302,0.55696 -0.4015,1.12841 -0.13849,0.56413 -0.13783,1.12077 0.002,1.46484 0.99143,2.24004 0.98968,0.76786 2.98932,0.87536 -0.63771,-0.43137 -0.9754,-1.08283 -0.34502,-0.65144 -0.34595,-1.43513 -0.002,-1.64795 1.00034,-2.60129 0.99496,-0.96065 2.71615,-0.9627 1.68457,-0.002 2.70381,0.99289 1.01925,0.99488 1.02121,2.65016 0.002,1.89696 -1.44674,2.9021 -1.45633,1.00514 -4.21756,1.00842 -2.59278,0.003 -4.13232,-1.22556 -1.54687,-1.22863 -1.54933,-3.30139 -6.6e-4,-0.55664 0.10853,-1.12073 0.10919,-0.57142 0.32818,-1.18692 z m -56.66962,-25.83884 -5.8081,0.007 -0.001,-1.24512 4.45311,-0.005 -0.003,-2.680653 q -0.32213,0.110242 -0.64434,0.161895 -0.32219,0.05898 -0.64446,0.05936 -1.83105,0.0022 -2.90158,-0.99997 -1.07053,-1.002149 -1.07256,-2.716014 -0.002,-1.765136 1.09538,-2.747884 1.09747,-0.975424 3.09698,-0.977797 0.68848,-8.17e-4 1.40639,0.115518 0.71059,0.116345 1.47259,0.349816 l 0.002,1.486815 q -0.6596,-0.358104 -1.36294,-0.533051 -0.70333,-0.174946 -1.48702,-0.174016 -1.26709,0.0015 -2.00605,0.668884 -0.73895,0.667382 -0.73759,1.809959 10e-4,1.142577 0.74189,1.808203 0.74054,0.665626 2.00763,0.664122 0.59325,-7.04e-4 1.18636,-0.133244 0.58578,-0.132531 1.20068,-0.411581 z M 580.49451,279.68253 v -1.34766 q 0.55664,0.26367 1.12793,0.40283 0.57129,0.13916 1.1206,0.13916 1.46485,0 2.23389,-0.98144 0.77637,-0.98877 0.88623,-2.99561 -0.42481,0.62988 -1.07666,0.9668 -0.65186,0.33691 -1.44287,0.33691 -1.64063,0 -2.6001,-0.98877 -0.95215,-0.99609 -0.95215,-2.71728 0,-1.68457 0.9961,-2.70264 0.99609,-1.01807 2.65136,-1.01807 1.89698,0 2.89307,1.45752 1.00342,1.4502 1.00342,4.21875 0,2.58545 -1.23047,4.13086 -1.22315,1.53809 -3.2959,1.53809 -0.55664,0 -1.12793,-0.10986 -0.57129,-0.10987 -1.18652,-0.32959 z m 2.94433,-4.63623 q 0.9961,0 1.57471,-0.68116 0.58594,-0.68115 0.58594,-1.86767 0,-1.1792 -0.58594,-1.86035 -0.57861,-0.68848 -1.57471,-0.68848 -0.99609,0 -1.58203,0.68848 -0.57861,0.68115 -0.57861,1.86035 0,1.18652 0.57861,1.86767 0.58594,0.68116 1.58203,0.68116 z m -12.27191,3.61816 h 2.41699 v -8.34229 l -2.62939,0.52735 v -1.34766 l 2.61474,-0.52734 h 1.4795 v 9.68994 h 2.41699 v 1.24512 h -6.29883 z m -361.1226,-3.94775 q -1.05469,0 -1.6626,0.56396 -0.60059,0.56397 -0.60059,1.55273 0,0.98877 0.60059,1.55274 0.60791,0.56396 1.6626,0.56396 1.05468,0 1.66259,-0.56396 0.60791,-0.57129 0.60791,-1.55274 0,-0.98876 -0.60791,-1.55273 -0.60058,-0.56396 -1.66259,-0.56396 z m -1.4795,-0.62989 q -0.95214,-0.23437 -1.48681,-0.88623 -0.52735,-0.65185 -0.52735,-1.58935 0,-1.31104 0.93018,-2.07276 0.9375,-0.76172 2.56348,-0.76172 1.6333,0 2.56347,0.76172 0.93018,0.76172 0.93018,2.07276 0,0.9375 -0.53467,1.58935 -0.52734,0.65186 -1.47217,0.88623 1.06934,0.24903 1.6626,0.97412 0.60059,0.7251 0.60059,1.77246 0,1.58936 -0.97412,2.43897 -0.9668,0.84961 -2.77588,0.84961 -1.80909,0 -2.78321,-0.84961 -0.96679,-0.84961 -0.96679,-2.43897 0,-1.04736 0.60058,-1.77246 0.60059,-0.72509 1.66992,-0.97412 z m -0.54199,-2.33642 q 0,0.84961 0.52735,1.32568 0.53466,0.47607 1.49414,0.47607 0.95215,0 1.48681,-0.47607 0.542,-0.47607 0.542,-1.32568 0,-0.84961 -0.542,-1.32569 -0.53466,-0.47607 -1.48681,-0.47607 -0.95948,0 -1.49414,0.47607 -0.52735,0.47608 -0.52735,1.32569 z m -10.42622,6.91406 h 2.41699 v -8.34229 l -2.62939,0.52735 v -1.34766 l 2.61474,-0.52734 h 1.47949 v 9.68994 h 2.417 v 1.24512 h -6.29883 z m 313.69678,124.5723 v -7.03125 h 0.62988 l 10.30517,3.96972 v 1.54541 l -9.68994,-3.73535 v 5.25147 z m 9.68994,8.91012 v -2.41699 h -8.34229 l 0.52735,2.62939 h -1.34766 l -0.52734,-2.61474 v -1.47949 h 9.68994 v -2.417 h 1.24511 v 6.29883 z m -255.71338,0.0273 q 0,-0.99609 -0.68115,-1.58203 -0.68116,-0.57861 -1.86768,-0.57861 -1.1792,0 -1.86768,0.57861 -0.68115,0.58594 -0.68115,1.58203 0,0.9961 0.68115,1.57471 0.68848,0.58594 1.86768,0.58594 1.18652,0 1.86768,-0.58594 0.68115,-0.57861 0.68115,-1.57471 z m 4.63623,2.93702 h -1.34766 q 0.26367,-0.55664 0.40283,-1.12793 0.13916,-0.56397 0.13916,-1.12061 0,-1.46484 -0.98876,-2.24121 -0.98877,-0.76904 -2.98829,-0.87891 0.63721,0.43213 0.97413,1.08399 0.34423,0.65185 0.34423,1.43554 0,1.64795 -1.00341,2.6001 -0.9961,0.95948 -2.71729,0.95948 -1.68457,0 -2.70264,-0.9961 -1.01806,-0.99609 -1.01806,-2.65137 0,-1.89697 1.45019,-2.90039 1.45752,-1.00341 4.21875,-1.00341 2.59278,0 4.13086,1.23046 1.54541,1.23047 1.54541,3.30323 0,0.55664 -0.10986,1.1206 -0.10986,0.57129 -0.32959,1.18653 z m -9.44824,-15.56784 v 2.41699 h 8.34228 l -0.52734,-2.6294 h 1.34765 l 0.52735,2.61475 v 1.47949 h -9.68994 v 2.41699 h -1.24512 v -6.29882 z m 313.94781,143.34036 h -5.8081 v -1.24512 h 4.45312 v -2.68066 q -0.32226,0.10986 -0.64453,0.16113 -0.32227,0.0586 -0.64453,0.0586 -1.83106,0 -2.90039,-1.00341 -1.06934,-1.00342 -1.06934,-2.71729 0,-1.76514 1.09863,-2.74658 1.09864,-0.97412 3.09815,-0.97412 0.68848,0 1.40625,0.11718 0.71045,0.11719 1.47217,0.35157 v 1.48681 q -0.65918,-0.35888 -1.36231,-0.53466 -0.70312,-0.17579 -1.48681,-0.17579 -1.26709,0 -2.00684,0.66651 -0.73975,0.6665 -0.73975,1.80908 0,1.14258 0.73975,1.80908 0.73975,0.66651 2.00684,0.66651 0.59326,0 1.18652,-0.13184 0.58594,-0.13184 1.20117,-0.41016 z m 9.29828,-9.68994 h -2.41699 v 8.34228 l 2.62939,-0.52734 v 1.34765 l -2.61474,0.52735 h -1.4795 v -9.68994 h -2.41699 v -1.24512 h 6.29883 z m -386.67281,8.40088 3.73536,-5.83741 h -3.73536 z m 0.38819,1.28906 h -1.86035 v -7.12647 h -1.56006 v -1.23047 h 1.56006 v -2.57812 h 1.47216 v 2.57812 h 4.93653 v 1.42823 z m 12.9604,-9.68994 h -2.41699 v 8.34228 l 2.62939,-0.52734 v 1.34765 l -2.61474,0.52735 h -1.47949 v -9.68994 h -2.417 v -1.24512 h 6.29883 z m 428.2876,-37.68903 q -0.22705,1.06201 -0.94482,1.65527 -0.71778,0.60059 -1.77247,0.60059 -1.61865,0 -2.50488,-1.11328 -0.88623,-1.11328 -0.88623,-3.16406 0,-0.68848 0.13916,-1.4209 0.13184,-0.7251 0.40283,-1.50147 h 1.42823 q -0.35889,0.61524 -0.542,1.34766 -0.1831,0.73242 -0.1831,1.53076 0,1.3916 0.54931,2.1167 0.54932,0.73242 1.59668,0.73242 0.9668,0 1.50879,-0.68115 0.54932,-0.67383 0.54932,-1.88232 v -1.27442 h 1.21582 v 1.33301 q 0,1.09131 0.43213,1.66992 0.43945,0.57861 1.25976,0.57861 0.84229,0 1.28907,-0.60058 0.4541,-0.59326 0.4541,-1.70654 0,-0.60791 -0.13184,-1.30372 -0.13183,-0.6958 -0.41015,-1.53076 h 1.31836 q 0.23437,0.84229 0.35156,1.57471 0.11719,0.73975 0.11719,1.3916 0,1.68457 -0.76905,2.66602 -0.76172,0.98144 -2.06543,0.98144 -0.9082,0 -1.53808,-0.52002 -0.62256,-0.52002 -0.86426,-1.47949 z m -4.65088,-13.76608 v 2.41699 h 8.34229 l -0.52735,-2.62939 h 1.34766 l 0.52734,2.61474 v 1.47949 h -9.68994 v 2.417 h -1.24512 v -6.29883 z m -486.59181,1.81106 v -5.16357 h 1.24512 v 6.94336 h -1.24512 q -0.87158,-0.84229 -2.33643,-2.29248 -1.47217,-1.45752 -1.89697,-1.83106 -0.79834,-0.71045 -1.34766,-0.98877 -0.55664,-0.28564 -1.0913,-0.28564 -0.87159,0 -1.4209,0.61523 -0.54932,0.60791 -0.54932,1.58936 0,0.6958 0.2417,1.47217 0.2417,0.76904 0.73242,1.64795 h -1.49414 q -0.35889,-0.89356 -0.54199,-1.66993 -0.18311,-0.77636 -0.18311,-1.42089 0,-1.69922 0.84961,-2.70996 0.84961,-1.01075 2.27051,-1.01075 0.67383,0 1.28174,0.25635 0.60058,0.24902 1.4209,0.91553 0.2124,0.1831 1.23047,1.16455 1.01074,0.98144 2.83447,2.76855 z m 0,10.55808 v -2.41699 h -8.34229 l 0.52735,2.62939 h -1.34766 l -0.52734,-2.61475 v -1.47949 h 9.68994 v -2.41699 h 1.24512 v 6.29883 z m 461.74702,-51.30274 h 2.417 v -8.34228 l -2.6294,0.52734 v -1.34765 l 2.61475,-0.52735 h 1.47949 v 9.68994 h 2.41699 v 1.24512 h -6.29883 z m -9.53998,0 h 2.417 v -8.34228 l -2.6294,0.52734 v -1.34765 l 2.61475,-0.52735 h 1.47949 v 9.68994 h 2.41699 v 1.24512 h -6.29883 z m -417.90385,-8.71582 q -1.14258,0 -1.72119,1.12793 -0.57129,1.12061 -0.57129,3.37647 0,2.24853 0.57129,3.37646 0.57861,1.12061 1.72119,1.12061 1.1499,0 1.72119,-1.12061 0.57862,-1.12793 0.57862,-3.37646 0,-2.25586 -0.57862,-3.37647 -0.57129,-1.12793 -1.72119,-1.12793 z m 0,-1.17187 q 1.83838,0 2.80518,1.45752 0.97412,1.45019 0.97412,4.21875 0,2.76123 -0.97412,4.21875 -0.9668,1.45019 -2.80518,1.45019 -1.83838,0 -2.8125,-1.45019 -0.9668,-1.45752 -0.9668,-4.21875 0,-2.76856 0.9668,-4.21875 0.97412,-1.45752 2.8125,-1.45752 z m -12.44772,9.88769 h 2.41699 v -8.34228 l -2.6294,0.52734 v -1.34765 l 2.61475,-0.52735 h 1.47949 v 9.68994 h 2.417 v 1.24512 h -6.29883 z m 412.77687,-36.16943 h 1.34765 q -0.26367,0.55664 -0.40283,1.12793 -0.13916,0.57129 -0.13916,1.12061 0,1.46484 0.98145,2.23388 0.98877,0.77637 2.9956,0.88623 -0.62988,-0.4248 -0.96679,-1.07666 -0.33692,-0.65185 -0.33692,-1.44287 0,-1.64062 0.98877,-2.6001 0.9961,-0.95214 2.71729,-0.95214 1.68457,0 2.70263,0.99609 1.01807,0.99609 1.01807,2.65137 0,1.89697 -1.45752,2.89306 -1.4502,1.00342 -4.21875,1.00342 -2.58545,0 -4.13086,-1.23047 -1.53809,-1.22314 -1.53809,-3.2959 0,-0.55664 0.10987,-1.12793 0.10986,-0.57128 0.32959,-1.18652 z m 4.63623,2.94434 q 0,0.99609 0.68115,1.5747 0.68115,0.58594 1.86768,0.58594 1.1792,0 1.86035,-0.58594 0.68847,-0.57861 0.68847,-1.5747 0,-0.9961 -0.68847,-1.58203 -0.68115,-0.57862 -1.86035,-0.57862 -1.18653,0 -1.86768,0.57862 -0.68115,0.58593 -0.68115,1.58203 z m -392.2749,-1.84082 q 0,1.05468 0.56396,1.66259 0.56397,0.60059 1.55274,0.60059 0.98876,0 1.55273,-0.60059 0.56396,-0.60791 0.56396,-1.66259 0,-1.05469 -0.56396,-1.6626 -0.57129,-0.60791 -1.55273,-0.60791 -0.98877,0 -1.55274,0.60791 -0.56396,0.60058 -0.56396,1.6626 z m -0.62989,1.47949 q -0.23437,0.95215 -0.88623,1.48681 -0.65185,0.52735 -1.58935,0.52735 -1.31104,0 -2.07276,-0.93018 -0.76172,-0.9375 -0.76172,-2.56347 0,-1.6333 0.76172,-2.56348 0.76172,-0.93018 2.07276,-0.93018 0.9375,0 1.58935,0.53467 0.65186,0.52735 0.88623,1.47217 0.24903,-1.06934 0.97412,-1.6626 0.7251,-0.60058 1.77247,-0.60058 1.58935,0 2.43896,0.97412 0.84961,0.96679 0.84961,2.77588 0,1.80908 -0.84961,2.7832 -0.84961,0.9668 -2.43896,0.9668 -1.04737,0 -1.77247,-0.60059 -0.72509,-0.60059 -0.97412,-1.66992 z m -2.33642,0.54199 q 0.84961,0 1.32568,-0.52734 0.47608,-0.53467 0.47608,-1.49414 0,-0.95215 -0.47608,-1.48682 -0.47607,-0.54199 -1.32568,-0.54199 -0.84961,0 -1.32569,0.54199 -0.47607,0.53467 -0.47607,1.48682 0,0.95947 0.47607,1.49414 0.47608,0.52734 1.32569,0.52734 z m 461.91308,-25.35742 h -7.03125 v -0.62988 l 3.96973,-10.30518 h 1.54541 l -3.73535,9.68994 h 5.25146 z m 109.74024,-4.87793 q 0.99609,0 1.58203,-0.68115 0.57861,-0.68116 0.57861,-1.86768 0,-1.1792 -0.57861,-1.86767 -0.58594,-0.68116 -1.58203,-0.68116 -0.9961,0 -1.57471,0.68116 -0.58594,0.68847 -0.58594,1.86767 0,1.18652 0.58594,1.86768 0.57861,0.68115 1.57471,0.68115 z m -2.93701,4.63623 v -1.34766 q 0.55664,0.26368 1.12793,0.40284 0.56396,0.13916 1.1206,0.13916 1.46484,0 2.24121,-0.98877 0.76905,-0.98877 0.87891,-2.98829 -0.43213,0.63721 -1.08399,0.97413 -0.65185,0.34423 -1.43554,0.34423 -1.64795,0 -2.6001,-1.00341 -0.95947,-0.9961 -0.95947,-2.71729 0,-1.68457 0.99609,-2.70264 0.99609,-1.01806 2.65137,-1.01806 1.89697,0 2.90039,1.45019 1.00342,1.45752 1.00342,4.21875 0,2.59278 -1.23047,4.13086 -1.23047,1.54541 -3.30323,1.54541 -0.55664,0 -1.1206,-0.10986 -0.57129,-0.10986 -1.18652,-0.32959 z m -627.88672,0.2417 h -5.80811 v -1.24512 h 4.45313 v -2.68066 q -0.32227,0.10986 -0.64453,0.16113 -0.32227,0.0586 -0.64454,0.0586 -1.83105,0 -2.90039,-1.00341 -1.06933,-1.00342 -1.06933,-2.71729 0,-1.76514 1.09863,-2.74658 1.09863,-0.97412 3.09815,-0.97412 0.68847,0 1.40625,0.11719 0.71044,0.11718 1.47216,0.35156 v 1.48681 q -0.65918,-0.35888 -1.3623,-0.53466 -0.70313,-0.17578 -1.48682,-0.17578 -1.26709,0 -2.00683,0.6665 -0.73975,0.6665 -0.73975,1.80908 0,1.14258 0.73975,1.80908 0.73974,0.66651 2.00683,0.66651 0.59326,0 1.18653,-0.13184 0.58593,-0.13183 1.20117,-0.41016 z m 6.74218,-73.54932 5.83741,3.73535 v -3.73535 z m -1.28906,0.38819 v -1.86036 h 7.12647 v -1.56005 h 1.23047 v 1.56005 h 2.57812 v 1.47217 h -2.57812 v 4.93653 h -1.42823 z m 500.93262,3.78515 q -0.22705,1.06201 -0.94482,1.65528 -0.71778,0.60058 -1.77247,0.60058 -1.61865,0 -2.50488,-1.11328 -0.88623,-1.11328 -0.88623,-3.16406 0,-0.68848 0.13916,-1.4209 0.13184,-0.7251 0.40283,-1.50147 h 1.42823 q -0.35889,0.61524 -0.542,1.34766 -0.1831,0.73242 -0.1831,1.53076 0,1.3916 0.54931,2.1167 0.54932,0.73242 1.59668,0.73242 0.9668,0 1.50879,-0.68115 0.54932,-0.67383 0.54932,-1.88232 v -1.27442 h 1.21582 v 1.33301 q 0,1.09131 0.43213,1.66992 0.43945,0.57862 1.25976,0.57862 0.84229,0 1.28907,-0.60059 0.4541,-0.59326 0.4541,-1.70654 0,-0.60791 -0.13184,-1.30371 -0.13183,-0.6958 -0.41015,-1.53077 h 1.31836 q 0.23437,0.84229 0.35156,1.57471 0.11719,0.73975 0.11719,1.3916 0,1.68457 -0.76905,2.66602 -0.76172,0.98144 -2.06543,0.98144 -0.9082,0 -1.53808,-0.52002 -0.62256,-0.52002 -0.86426,-1.47949 z m -534.36915,25.89893 h 5.16358 v 1.24512 h -6.94336 v -1.24512 q 0.84228,-0.87158 2.29248,-2.33643 1.45752,-1.47217 1.83105,-1.89697 0.71045,-0.79834 0.98877,-1.34766 0.28565,-0.55664 0.28565,-1.09131 0,-0.87158 -0.61524,-1.42089 -0.60791,-0.54932 -1.58935,-0.54932 -0.69581,0 -1.47217,0.2417 -0.76905,0.2417 -1.64795,0.73242 v -1.49414 q 0.89355,-0.35889 1.66992,-0.54199 0.77637,-0.18311 1.4209,-0.18311 1.69922,0 2.70996,0.84961 1.01074,0.84961 1.01074,2.27051 0,0.67383 -0.25635,1.28174 -0.24902,0.60058 -0.91552,1.4209 -0.18311,0.2124 -1.16455,1.23047 -0.98145,1.01074 -2.76856,2.83447 z m 658.58741,0 h 2.41699 v -8.34229 l -2.62939,0.52735 v -1.34766 l 2.61474,-0.52734 h 1.4795 v 9.68994 h 2.41699 v 1.24512 h -6.29883 z m -85.34619,-8.71582 q -1.14258,0 -1.72119,1.12793 -0.57129,1.1206 -0.57129,3.37646 0,2.24854 0.57129,3.37647 0.57861,1.1206 1.72119,1.1206 1.1499,0 1.72119,-1.1206 0.57861,-1.12793 0.57861,-3.37647 0,-2.25586 -0.57861,-3.37646 -0.57129,-1.12793 -1.72119,-1.12793 z m 0,-1.17188 q 1.83838,0 2.80518,1.45752 0.97412,1.4502 0.97412,4.21875 0,2.76123 -0.97412,4.21875 -0.9668,1.4502 -2.80518,1.4502 -1.83838,0 -2.8125,-1.4502 -0.9668,-1.45752 -0.9668,-4.21875 0,-2.76855 0.9668,-4.21875 0.97412,-1.45752 2.8125,-1.45752 z" />
    <path
       id="path13682"
       style="fill:none;stroke:#ff0000;stroke-width:1;stroke-linecap:butt;stroke-linejoin:miter;stroke-miterlimit:10;stroke-dasharray:none;stroke-opacity:1"
       d="m 555.85351,739.46931 h -107.543 m 0,-84.90299 h 107.543 m 249.039,84.90299 h -249.039 m 249.039,-84.90299 v 84.903 m -249.039,-84.903 h 249.039 m -418.844,0 h 62.262 m 0,84.90299 h -62.262 m -90.559,-84.90299 20.379,-15 h 49.805 l 20.375,15 m -90.559,84.90299 v -84.90299 m 90.559,84.90299 h -90.559 m 52.7815,-563.44999 -15.01933,-19.08426 -0.0556,-46.69858 14.97688,-19.119075 m 107.64024,84.772015 -107.54219,0.1299 m -0.098,-84.901915 107.53914,-0.126945 m 84.99999,84.80089 -84.89892,0.0981 m -0.10107,-84.89899 84.89797,-0.101083 m 51.04322,84.839763 -50.9412,0.0622 m -0.10202,-84.901963 50.94116,-0.05921 m 73.68243,84.811873 -73.58037,0.0871 m -0.10206,-84.898976 73.58036,-0.0871 m 141.59897,84.733176 -31.81806,15.03515 -77.82294,0.0907 -31.8559,-14.9601 m 141.3989,-85.068669 0.098,84.902919 M 665.13162,90.743059 806.63259,90.573321 m -175.36158,190.836009 -24.199,15 h -59.144 l -24.2,-15 m -266.015,0 -24.199,15 h -59.145 l -24.199,-15 m 373.558,0 15,56.031 v 136.973 l -15,56.035 m -266.015,0 -15,-56.035 v -136.973 l 15,-56.031 m 266.015,249.039 24.2,-15 h 59.144 l 24.199,15 m -481.101,0 24.199,-15 h 59.145 l 24.199,15 m 373.558,0 -15,-19.101 v -46.696 l 15,-19.101 m -481.101,0 15,19.101 v 46.696 l -15,19.101 m 481.101,-84.898 -11.461,15 h -28.019 l -11.461,-15 m -379.219,0 -11.461,15 h -28.015 l -11.465,-15 m 430.16,0 -15,-16.555 v -40.472 l 15,-16.555 m -379.219,-10e-6 15,16.555 v 40.472 l -15,16.555 m 379.219,-73.582 h 141.5 m 0,0 h 84.898 m -747.116999,0 31.84,-15 h 77.823999 l 31.836,15 m 605.617,0 v 175.46101 m -747.116999,0 -15,-39.481 v -96.504 l 15,-39.476 M 721.83001,643.81632 v -96.38699 m 0,0 -6.867,25.461 -40.469,34.242 -26.246,2.55499 m 158.48,34.129 h -84.898 m -588.637,50.77301 -15,-19.102 v -46.69501 l 15,-19.105 m 673.535,-62.25799 v 96.387 m -673.535,-34.12901 -26.246,-2.55499 -40.468999,-34.24201 -6.867,-25.46099 m 220.738999,147.16 h -147.157 m 515.055,-84.90201 -33.109,15 h -80.938 l -33.109,-15 m -67.922,29.879 h -84.899 m -67.921,-29.879 15,19.105 v 46.69501 l -15,19.102 m 152.82,-147.16 v 92.137 m 67.922,-29.87901 -25.418,-2.95 -37.356,-34.242 -5.148,-25.066 m -84.899,92.137 v -92.13699 m 0,0 -5.148,25.066 -37.355,34.242 -25.418,2.95 m 152.82,-433.66801 v 88.41 m 0,0 5.68,-24.258 37.355,-31.129 24.887,-1.215 m -220.742,-84.898 15,19.101 v 46.696 l -15,19.101 m 67.921,-31.808 h 84.899 m -84.899,88.41 v -88.41 m -67.921,31.808 24.886,1.215 37.356,31.129 5.679,24.258 m -220.738,-141.5 h 152.817 m 220.742,84.898 34.383,-15 h 84.05 l 34.383,15 m -614.788999,-84.898 h 88.413999 m 526.375,84.898 24.887,1.215 37.355,31.129 5.68,24.258 m 0,0 19.102,-15 h 46.695 l 19.101,15 m -767.608999,-56.602 v -84.898 m 88.413999,84.898 H 39.119011 m 20.492,56.602 5.68,-24.258 37.354999,-31.129 24.887,-1.215 m 22.637,73.58201 15,14.00799 v 34.24201 l -15,14.012 m 481.101,0 -15,-14.012 v -34.24201 l 15,-14.00799 m -481.101,62.262 H 59.611011 m 747.116999,0 h -84.898 m 84.898,-79.24201 v 79.24201 m -747.116999,0 -15,-17.832 v -43.582 l 15,-17.828 m 662.218999,79.242 -20.375,15 h -49.809 l -20.375,-15" />
    <path
       id="path13684"
       style="fill:none;stroke:#00ff00;stroke-width:1;stroke-linecap:butt;stroke-linejoin:miter;stroke-miterlimit:10;stroke-dasharray:8, 2, 2, 2;stroke-dashoffset:0;stroke-opacity:1"
       d="m 448.31051,654.56632 v 84.903 m 107.543,-84.903 v 84.903 m -207.5825,-563.45 -0.098,-84.901915 M 455.8132,175.88942 455.71213,90.99046 m 84.99999,84.80089 -0.10202,-84.901973" />
  </g>
</svg>
