<?xml version="1.0" encoding="UTF-8" standalone="no"?>
<!-- Created with Inkscape (http://www.inkscape.org/) -->

<svg
   version="1.1"
   id="svg17673"
   width="1132"
   height="1132"
   viewBox="0 0 1132 1132"
   sodipodi:docname="I.svg"
   inkscape:version="1.2.2 (732a01da63, 2022-12-09, custom)"
   xmlns:inkscape="http://www.inkscape.org/namespaces/inkscape"
   xmlns:sodipodi="http://sodipodi.sourceforge.net/DTD/sodipodi-0.dtd"
   xmlns="http://www.w3.org/2000/svg"
   xmlns:svg="http://www.w3.org/2000/svg">
  <defs
     id="defs17677" />
  <sodipodi:namedview
     id="namedview17675"
     pagecolor="#ffffff"
     bordercolor="#666666"
     borderopacity="1.0"
     inkscape:showpageshadow="2"
     inkscape:pageopacity="0.0"
     inkscape:pagecheckerboard="0"
     inkscape:deskcolor="#d1d1d1"
     showgrid="false"
     inkscape:zoom="0.96875267"
     inkscape:cx="553.80492"
     inkscape:cy="486.70833"
     inkscape:window-width="1920"
     inkscape:window-height="1009"
     inkscape:window-x="0"
     inkscape:window-y="0"
     inkscape:window-maximized="1"
     inkscape:current-layer="g17681">
    <inkscape:page
       x="0"
       y="0"
       id="page17679"
       width="1132"
       height="1132" />
  </sodipodi:namedview>
  <g
     id="g17681"
     inkscape:groupmode="layer"
     inkscape:label="Page 1"
     transform="matrix(1.3333333,0,0,1.3333333,0,2.83e-5)">
    <path
       id="path17888"
       style="font-size:15px;font-family:'DejaVu Sans';-inkscape-font-specification:DejaVuSans;fill:#0000ff"
       d="m 378.87305,83.916504 q 0.99609,0 1.58203,-0.681152 0.57861,-0.681153 0.57861,-1.867676 0,-1.179199 -0.57861,-1.867676 -0.58594,-0.681152 -1.58203,-0.681152 -0.9961,0 -1.57471,0.681152 -0.58594,0.688477 -0.58594,1.867676 0,1.186523 0.58594,1.867676 0.57861,0.681152 1.57471,0.681152 z m -2.93701,4.63623 v -1.347656 q 0.55664,0.263672 1.12792,0.402832 0.56397,0.13916 1.12061,0.13916 1.46484,0 2.24121,-0.988769 0.76904,-0.98877 0.87891,-2.988281 -0.43213,0.637207 -1.08399,0.974121 -0.65185,0.344238 -1.43554,0.344238 -1.64795,0 -2.6001,-1.003418 -0.95947,-0.996094 -0.95947,-2.717285 0,-1.684571 0.99609,-2.702637 0.99609,-1.018066 2.65137,-1.018066 1.89697,0 2.90039,1.450195 1.00342,1.457519 1.00342,4.21875 0,2.592773 -1.23047,4.130859 -1.23047,1.54541 -3.30323,1.54541 -0.55664,0 -1.1206,-0.109863 -0.57129,-0.109863 -1.18652,-0.32959 z M 554.33398,174.4751 q 0.9961,0 1.58204,-0.68115 0.57861,-0.68116 0.57861,-1.86768 0,-1.1792 -0.57861,-1.86768 -0.58594,-0.68115 -1.58204,-0.68115 -0.99609,0 -1.5747,0.68115 -0.58594,0.68848 -0.58594,1.86768 0,1.18652 0.58594,1.86768 0.57861,0.68115 1.5747,0.68115 z m -2.93701,4.63623 v -1.34766 q 0.55664,0.26367 1.12793,0.40283 0.56397,0.13916 1.12061,0.13916 1.46484,0 2.24121,-0.98877 0.76904,-0.98877 0.8789,-2.98828 -0.43212,0.63721 -1.08398,0.97412 -0.65185,0.34424 -1.43555,0.34424 -1.64795,0 -2.60009,-1.00342 -0.95948,-0.99609 -0.95948,-2.71728 0,-1.68457 0.9961,-2.70264 0.99609,-1.01806 2.65136,-1.01806 1.89698,0 2.90039,1.45019 1.00342,1.45752 1.00342,4.21875 0,2.59278 -1.23047,4.13086 -1.23046,1.54541 -3.30322,1.54541 -0.55664,0 -1.1206,-0.10986 -0.57129,-0.10987 -1.18653,-0.32959 z M 259.47412,365.93115 v 5.80811 H 258.229 v -4.45313 h -2.68066 q 0.10986,0.32227 0.16113,0.64453 0.0586,0.32227 0.0586,0.64454 0,1.83105 -1.00342,2.90039 -1.00342,1.06933 -2.71729,1.06933 -1.76513,0 -2.74658,-1.09863 -0.97412,-1.09863 -0.97412,-3.09815 0,-0.68847 0.11719,-1.40625 0.11719,-0.71044 0.35156,-1.47216 h 1.48682 q -0.35889,0.65918 -0.53467,1.3623 -0.17578,0.70313 -0.17578,1.48682 0,1.26709 0.6665,2.00683 0.66651,0.73975 1.80908,0.73975 1.14258,0 1.80909,-0.73975 0.6665,-0.73974 0.6665,-2.00683 0,-0.59326 -0.13184,-1.18653 -0.13183,-0.58593 -0.41015,-1.20117 z m 326.04785,3.83692 v -5.80811 h 1.24512 v 4.45313 h 2.68066 q -0.10986,-0.32227 -0.16113,-0.64454 -0.0586,-0.32226 -0.0586,-0.64453 0,-1.83105 1.00342,-2.90039 1.00341,-1.06933 2.71728,-1.06933 1.76514,0 2.74658,1.09863 0.97412,1.09863 0.97412,3.09814 0,0.68848 -0.11718,1.40625 -0.11719,0.71045 -0.35157,1.47217 h -1.48681 q 0.35888,-0.65918 0.53467,-1.3623 0.17578,-0.70313 0.17578,-1.48682 0,-1.26709 -0.66651,-2.00683 -0.6665,-0.73975 -1.80908,-0.73975 -1.14258,0 -1.80908,0.73975 -0.66651,0.73974 -0.66651,2.00683 0,0.59326 0.13184,1.18652 0.13184,0.58594 0.41016,1.20118 z m -116.06006,272.76562 -3.73535,5.8374 h 3.73535 z m -0.38818,-1.28906 h 1.86035 v 7.12646 h 1.56006 v 1.23047 h -1.56006 v 2.57813 h -1.47217 v -2.57813 h -4.93652 v -1.42822 z m -175.06885,-83.60938 -3.73535,5.83741 h 3.73535 z m -0.38818,-1.28906 h 1.86035 v 7.12647 h 1.56006 v 1.23046 h -1.56006 v 2.57813 h -1.47217 v -2.57813 h -4.93652 v -1.42822 z m 212.0459,52.39551 q 0.22705,-1.06201 0.94482,-1.65527 0.71778,-0.60059 1.77246,-0.60059 1.61866,0 2.50489,1.11328 0.88623,1.11328 0.88623,3.16406 0,0.68848 -0.13916,1.4209 -0.13184,0.7251 -0.40284,1.50147 h -1.42822 q 0.35889,-0.61524 0.54199,-1.34766 0.18311,-0.73242 0.18311,-1.53076 0,-1.3916 -0.54932,-2.1167 -0.54931,-0.73242 -1.59668,-0.73242 -0.96679,0 -1.50879,0.68115 -0.54931,0.67383 -0.54931,1.88232 v 1.27442 h -1.21582 v -1.33301 q 0,-1.09131 -0.43213,-1.66992 -0.43946,-0.57861 -1.25977,-0.57861 -0.84228,0 -1.28906,0.60058 -0.4541,0.59326 -0.4541,1.70654 0,0.60791 0.13183,1.30372 0.13184,0.6958 0.41016,1.53076 h -1.31836 q -0.23437,-0.84229 -0.35156,-1.57471 -0.11719,-0.73975 -0.11719,-1.3916 0,-1.68457 0.76904,-2.66602 0.76172,-0.98144 2.06543,-0.98144 0.90821,0 1.53809,0.52002 0.62256,0.52002 0.86426,1.47949 z m 52.33008,-47.35645 q 1.06201,0.22705 1.65527,0.94483 0.60059,0.71777 0.60059,1.77246 0,1.61865 -1.11329,2.50488 -1.11328,0.88623 -3.16406,0.88623 -0.68848,0 -1.4209,-0.13916 -0.72509,-0.13183 -1.50146,-0.40283 v -1.42822 q 0.61523,0.35888 1.34765,0.54199 0.73243,0.18311 1.53077,0.18311 1.3916,0 2.1167,-0.54932 0.73242,-0.54932 0.73242,-1.59668 0,-0.9668 -0.68116,-1.50879 -0.67382,-0.54932 -1.88232,-0.54932 h -1.27441 v -1.21582 h 1.333 q 1.09131,0 1.66993,-0.43213 0.57861,-0.43945 0.57861,-1.25976 0,-0.84229 -0.60059,-1.28906 -0.59326,-0.45411 -1.70654,-0.45411 -0.60791,0 -1.30371,0.13184 -0.6958,0.13184 -1.53076,0.41016 v -1.31836 q 0.84228,-0.23438 1.5747,-0.35157 0.73975,-0.11718 1.39161,-0.11718 1.68457,0 2.66601,0.76904 0.98145,0.76172 0.98145,2.06543 0,0.9082 -0.52002,1.53809 -0.52002,0.62255 -1.47949,0.86425 z M 340.34277,121.04639 v 5.16357 h -1.24511 v -6.94336 h 1.24511 q 0.87159,0.84229 2.33643,2.29248 1.47217,1.45752 1.89697,1.83106 0.79834,0.71045 1.34766,0.98877 0.55664,0.28564 1.09131,0.28564 0.87158,0 1.4209,-0.61523 0.54931,-0.60791 0.54931,-1.58936 0,-0.6958 -0.2417,-1.47217 -0.2417,-0.76904 -0.73242,-1.64795 h 1.49414 q 0.35889,0.89356 0.54199,1.66993 0.18311,0.77636 0.18311,1.42089 0,1.69922 -0.84961,2.70997 -0.84961,1.01074 -2.27051,1.01074 -0.67383,0 -1.28174,-0.25635 -0.60058,-0.24902 -1.4209,-0.91553 -0.2124,-0.1831 -1.23046,-1.16455 -1.01075,-0.98144 -2.83448,-2.76855 z m -47.43213,48.6167 h -5.16357 v -1.24512 h 6.94336 v 1.24512 q -0.84229,0.87158 -2.29248,2.33642 -1.45752,1.47217 -1.83106,1.89697 -0.71044,0.79834 -0.98877,1.34766 -0.28564,0.55664 -0.28564,1.09131 0,0.87158 0.61523,1.4209 0.60791,0.54931 1.58936,0.54931 0.6958,0 1.47217,-0.2417 0.76904,-0.24169 1.64795,-0.73242 v 1.49414 q -0.89356,0.35889 -1.66992,0.542 -0.77637,0.1831 -1.4209,0.1831 -1.69922,0 -2.70996,-0.84961 -1.01075,-0.84961 -1.01075,-2.27051 0,-0.67382 0.25635,-1.28173 0.24903,-0.60059 0.91553,-1.4209 0.1831,-0.21241 1.16455,-1.23047 0.98145,-1.01074 2.76855,-2.83447 z M 425.24512,609.83301 V 612.25 h 8.34228 l -0.52734,-2.62939 h 1.34765 l 0.52735,2.61474 v 1.47949 h -9.68994 v 2.417 H 424 v -6.29883 z m -46.5918,-43.79688 h 2.41699 v -8.34228 l -2.62939,0.52734 v -1.34765 l 2.61474,-0.52735 h 1.4795 v 9.68994 h 2.41699 v 1.24512 h -6.29883 z m 32.38574,-445.38624 q 0,1.14258 1.12793,1.7212 1.12061,0.57129 3.37647,0.57129 2.24853,0 3.37646,-0.57129 1.12061,-0.57862 1.12061,-1.7212 0,-1.1499 -1.12061,-1.72119 -1.12793,-0.57861 -3.37646,-0.57861 -2.25586,0 -3.37647,0.57861 -1.12793,0.57129 -1.12793,1.72119 z m -1.17187,0 q 0,-1.83837 1.45752,-2.80517 1.45019,-0.97412 4.21875,-0.97412 2.76123,0 4.21875,0.97412 1.45019,0.9668 1.45019,2.80517 0,1.83838 -1.45019,2.8125 -1.45752,0.9668 -4.21875,0.9668 -2.76856,0 -4.21875,-0.9668 -1.45752,-0.97412 -1.45752,-2.8125 z m 56.92334,57.72902 q 1.14258,0 1.72119,-1.12793 0.57129,-1.12061 0.57129,-3.37647 0,-2.24853 -0.57129,-3.37646 -0.57861,-1.12061 -1.72119,-1.12061 -1.14991,0 -1.72119,1.12061 -0.57862,1.12793 -0.57862,3.37646 0,2.25586 0.57862,3.37647 0.57128,1.12793 1.72119,1.12793 z m 0,1.17187 q -1.83838,0 -2.80518,-1.45752 -0.97412,-1.45019 -0.97412,-4.21875 0,-2.76123 0.97412,-4.21875 0.9668,-1.45019 2.80518,-1.45019 1.83838,0 2.8125,1.45019 0.96679,1.45752 0.96679,4.21875 0,2.76856 -0.96679,4.21875 -0.97412,1.45752 -2.8125,1.45752 z" />
    <path
       id="path17789"
       style="fill:none;stroke:#ff0000;stroke-width:1;stroke-linecap:butt;stroke-linejoin:miter;stroke-miterlimit:10;stroke-dasharray:none;stroke-opacity:1"
       d="M 337.598,76.359 H 422.5 m 90.559,90.559 19.101,-15 h 46.695 l 19.102,15 m -350.918,401.863 -15,-90.422 V 257.336 l 15,-90.418 m 350.918,0 V 568.781 M 513.059,653.68 H 422.5 m -84.902,-84.899 -20.375,15 h -49.809 l -20.375,-15 m 266.02,0 v 84.899 m 84.898,-84.899 -19.102,15 H 532.16 l -19.101,-15 M 337.598,166.918 V 76.359 m -90.559,90.559 20.375,-15 h 49.809 l 20.375,15 M 422.5,653.68 v -84.899 m 0,0 -19.105,15 h -46.696 l -19.101,-15 M 422.5,76.359 v 90.559 m 0,0 20.375,-15 h 49.809 l 20.375,15" />
    <path
       id="path17791"
       style="fill:none;stroke:#800000;stroke-width:1;stroke-linecap:butt;stroke-linejoin:miter;stroke-miterlimit:10;stroke-dasharray:8,8;stroke-dashoffset:0;stroke-opacity:1"
       d="m 513.059,166.918 v 401.863 m 0,-401.863 h 84.898 M 247.039,568.781 V 166.918 m 90.559,401.863 h -90.559 m 350.918,0 h -84.898 m -175.461,0 V 166.918 m -90.559,0 h 90.559 m 0,0 H 422.5 m 90.559,401.863 H 422.5 m 0,0 V 166.918 m 0,401.863 H 337.598 M 422.5,166.918 h 90.559" />
  </g>
</svg>
