<?xml version="1.0" encoding="UTF-8" standalone="no"?>
<!-- Created with Inkscape (http://www.inkscape.org/) -->

<svg
   version="1.1"
   id="svg19446"
   width="1132"
   height="1132"
   viewBox="0 0 1132 1132"
   sodipodi:docname="J.svg"
   inkscape:version="1.2.2 (732a01da63, 2022-12-09, custom)"
   xmlns:inkscape="http://www.inkscape.org/namespaces/inkscape"
   xmlns:sodipodi="http://sodipodi.sourceforge.net/DTD/sodipodi-0.dtd"
   xmlns="http://www.w3.org/2000/svg"
   xmlns:svg="http://www.w3.org/2000/svg">
  <defs
     id="defs19450" />
  <sodipodi:namedview
     id="namedview19448"
     pagecolor="#ffffff"
     bordercolor="#666666"
     borderopacity="1.0"
     inkscape:showpageshadow="2"
     inkscape:pageopacity="0.0"
     inkscape:pagecheckerboard="0"
     inkscape:deskcolor="#d1d1d1"
     showgrid="false"
     showguides="true"
     inkscape:zoom="0.65989399"
     inkscape:cx="566"
     inkscape:cy="566"
     inkscape:window-width="1920"
     inkscape:window-height="1009"
     inkscape:window-x="0"
     inkscape:window-y="0"
     inkscape:window-maximized="1"
     inkscape:current-layer="g19454">
    <inkscape:page
       x="0"
       y="0"
       id="page19452"
       width="1132"
       height="1132" />
  </sodipodi:namedview>
  <g
     id="g19454"
     inkscape:groupmode="layer"
     inkscape:label="Page 1"
     transform="matrix(1.3333333,0,0,1.3333333,0,2.83e-5)">
    <path
       id="path19532"
       style="fill:none;stroke:#00ff00;stroke-width:1;stroke-linecap:butt;stroke-linejoin:miter;stroke-miterlimit:10;stroke-dasharray:8, 2, 2, 2;stroke-dashoffset:0;stroke-opacity:1"
       d="m 705.8382,211.32212 84.90144,-0.13842 m -84.72629,107.67778 84.90244,-0.13842" />
    <path
       id="path19738"
       style="fill:none;stroke:#800000;stroke-width:1;stroke-linecap:butt;stroke-linejoin:miter;stroke-miterlimit:10;stroke-dasharray:8,8;stroke-dashoffset:0;stroke-opacity:1"
       d="m 507.73172,205.98792 84.90144,-0.13842 m -350.92023,0.57158 90.55867,-0.14687 m 84.90144,-0.13842 90.55868,-0.14787 m -175.46012,0.28629 84.90144,-0.13842 m 0.56419,345.25601 -84.90244,0.13841 m 0,0 -67.82646,56.71046 m 152.87191,31.56471 -84.90144,0.13842 M 485.74728,607.88093 417.73723,551.3918 m -152.7289,56.84887 -152.8192,0.24858 m 679.24925,30.70781 -84.90144,0.13842 m -67.97047,-31.70313 -152.81919,0.24858 m -373.55815,0.60832 -68.01004,-56.48913 m 747.11528,-1.21665 -84.90144,0.13843 m 0.14401,88.41358 -0.14401,-88.41358 m -662.21384,1.07822 -0.131017,-79.23823 m 662.214867,-1.08121 84.90142,-0.13542 m -84.90142,0.13542 0.12999,79.24122 M 44.048073,472.76189 134.60677,472.61102 m 571.5083,-91.48902 84.90241,-0.13441 m -84.75454,90.69309 -0.14787,-90.55868 m -571.5083,91.48902 0.10168,62.26453 m 373.02327,-328.88763 0.53487,328.27931 m -266.01878,0.43316 -0.53488,-328.27931 m 464.30042,112.4404 -0.17515,-107.53936 m 0.27687,169.79988 -0.10172,-62.26052 m -571.3049,216.01407 107.53936,-0.17516 m 174.92523,-328.5646 0.56419,345.25601 m -85.46563,-345.11759 0.56319,345.256" />
    <path
       id="path20042"
       style="font-size:15px;font-family:'DejaVu Sans';-inkscape-font-specification:DejaVuSans;fill:#0000ff"
       d="m 500.96062,157.44563 q 0.002,1.05469 0.56668,1.66168 0.56494,0.59966 1.55371,0.59805 0.98876,-0.002 1.55175,-0.60311 0.56297,-0.60883 0.56126,-1.66351 -0.002,-1.05469 -0.56667,-1.66168 -0.57228,-0.60698 -1.55373,-0.60538 -0.98877,0.002 -1.55174,0.61043 -0.56299,0.60151 -0.56126,1.66352 z m -0.62747,1.48051 q -0.23283,0.95253 -0.88381,1.48827 -0.651,0.5284 -1.58849,0.52992 -1.31103,0.002 -2.07427,-0.92679 -0.76324,-0.93626 -0.76589,-2.56224 -0.003,-1.63329 0.75754,-2.56471 0.76021,-0.93141 2.07124,-0.93355 0.9375,-0.002 1.59023,0.53208 0.6527,0.52628 0.88862,1.47072 0.24728,-1.06974 0.97141,-1.66418 0.72412,-0.60177 1.77148,-0.60347 1.58936,-0.003 2.44056,0.97014 0.85118,0.96542 0.85413,2.7745 0.003,1.80907 -0.84508,2.78458 -0.84804,0.96818 -2.43739,0.97077 -1.04736,0.002 -1.77344,-0.59769 -0.72608,-0.59941 -0.97684,-1.66835 z m -2.33554,0.54581 q 0.84961,-0.001 1.32483,-0.52951 0.4752,-0.53544 0.47363,-1.49491 -0.002,-0.95215 -0.47849,-1.48605 -0.47696,-0.54121 -1.32657,-0.53983 -0.84961,0.001 -1.32479,0.54415 -0.4752,0.53545 -0.47365,1.4876 0.002,0.95946 0.4785,1.49336 0.47693,0.52657 1.32654,0.52519 z m 6.93104,10.41494 -0.004,-2.41698 -8.34228,0.0136 0.53162,2.62853 -1.34764,0.002 -0.53161,-2.61388 -0.002,-1.4795 9.68994,-0.0158 -0.004,-2.41699 1.24511,-0.002 0.0103,6.29882 z m 39.1623,42.73386 q 1.05469,-0.002 1.66168,-0.56666 0.59966,-0.56495 0.59805,-1.55372 -0.002,-0.98877 -0.60311,-1.55175 -0.60883,-0.56298 -1.66352,-0.56126 -1.05468,0.002 -1.66168,0.56668 -0.60697,0.57228 -0.60538,1.55371 0.002,0.98877 0.61044,1.55175 0.60151,0.56298 1.66352,0.56125 z m 1.48051,0.62747 q 0.95253,0.23283 1.48826,0.88381 0.5284,0.651 0.52993,1.5885 0.002,1.31104 -0.9268,2.07426 -0.93626,0.76325 -2.56223,0.7659 -1.6333,0.003 -2.56472,-0.75755 -0.9314,-0.76019 -0.93354,-2.07123 -0.002,-0.9375 0.53207,-1.59023 0.52629,-0.65271 1.47073,-0.88863 -1.06974,-0.24727 -1.66419,-0.97141 -0.60176,-0.72411 -0.60346,-1.77148 -0.003,-1.58934 0.97014,-2.44054 0.96542,-0.85118 2.7745,-0.85413 1.80907,-0.003 2.78458,0.84508 0.96818,0.84803 0.97077,2.43738 0.002,1.04737 -0.59771,1.77344 -0.59939,0.72607 -1.66833,0.97683 z m 0.5458,2.33555 q -10e-4,-0.84961 -0.5295,-1.32482 -0.53545,-0.47521 -1.49491,-0.47365 -0.95215,0.002 -1.48605,0.4785 -0.54121,0.47696 -0.53983,1.32656 10e-4,0.84961 0.54415,1.3248 0.53544,0.47521 1.48759,0.47366 0.95947,-0.002 1.49337,-0.47852 0.52656,-0.47692 0.52518,-1.32653 z m 10.41493,-6.93103 -2.41698,0.004 0.0136,8.34227 2.62853,-0.53162 0.002,1.34766 -2.61387,0.5316 -1.4795,0.002 -0.0158,-9.68993 -2.41699,0.004 -0.002,-1.24512 6.29883,-0.0103 z m -96.8882,-75.05356 -7.03124,0.0114 -0.001,-0.62989 3.95294,-10.31162 1.54541,-0.003 -3.71957,9.69601 5.25146,-0.009 z m 8.89434,-9.70444 -2.41698,0.004 0.0136,8.34227 2.62853,-0.53162 0.002,1.34765 -2.61388,0.53161 -1.47949,0.002 -0.0158,-9.68993 -2.41699,0.004 -0.002,-1.24512 6.29882,-0.0103 z m -184.21579,94.89208 -7.03124,0.0114 -10e-4,-0.62988 3.95294,-10.31163 1.54541,-0.003 -3.71956,9.69602 5.25145,-0.009 z m 8.89433,-9.70444 -2.41699,0.004 0.0136,8.34228 2.62854,-0.53163 0.002,1.34766 -2.61388,0.53159 -1.47949,0.002 -0.0158,-9.68992 -2.41699,0.004 -0.002,-1.24512 6.29883,-0.0103 z m 131.45381,-39.16746 q -0.002,-0.99609 -0.68373,-1.58092 -0.68209,-0.5775 -1.86862,-0.57557 -1.1792,0.002 -1.86672,0.58165 -0.6802,0.58705 -0.67858,1.58314 0.002,0.9961 0.68372,1.5736 0.68942,0.58482 1.86862,0.5829 1.18653,-0.002 1.86672,-0.58898 0.68021,-0.57972 0.67859,-1.57582 z m 4.641,2.92945 -1.34764,0.002 q 0.26276,-0.55707 0.40099,-1.12859 0.13824,-0.56418 0.13733,-1.12082 -0.002,-1.46484 -0.99241,-2.2396 -0.99003,-0.76743 -2.98971,-0.87404 0.6379,0.43109 0.97588,1.0824 0.3453,0.65129 0.34658,1.43498 0.003,1.64795 -0.99918,2.60173 -0.99453,0.96109 -2.71573,0.96389 -1.68457,0.003 -2.70425,-0.99168 -1.01969,-0.99443 -1.02238,-2.64971 -0.003,-1.89697 1.44547,-2.90275 1.45588,-1.00579 4.21711,-1.01029 2.59277,-0.004 4.13286,1.22374 1.54741,1.22795 1.55079,3.30071 9e-4,0.55664 -0.10805,1.12078 -0.10893,0.57147 -0.32766,1.18705 z m -9.47358,-15.55243 0.004,2.417 8.34228,-0.0136 -0.53163,-2.62853 1.34766,-0.002 0.53159,2.61389 0.002,1.47949 -9.68992,0.0158 0.004,2.41698 -1.24512,0.002 -0.0103,-6.29882 z m -51.34613,56.47943 q 0.99609,-0.002 1.58092,-0.68373 0.57751,-0.68209 0.57558,-1.86862 -0.002,-1.17919 -0.58167,-1.86672 -0.58704,-0.68021 -1.58313,-0.67858 -0.99609,0.002 -1.5736,0.68372 -0.58481,0.68942 -0.58289,1.86862 0.002,1.18653 0.58897,1.86673 0.57973,0.6802 1.57582,0.67858 z m -2.92946,4.64101 -0.002,-1.34766 q 0.55707,0.26277 1.12858,0.401 0.56419,0.13824 1.12083,0.13734 1.46485,-0.002 2.23961,-0.99242 0.76742,-0.99002 0.87403,-2.98971 -0.43109,0.6379 -1.08239,0.97588 -0.6513,0.34531 -1.43499,0.34658 -1.64795,0.003 -2.60173,-0.99918 -0.96109,-0.99454 -0.9639,-2.71573 -0.003,-1.68456 0.99169,-2.70425 0.99444,-1.01969 2.64971,-1.02238 1.89697,-0.003 2.90275,1.44546 1.00579,1.45589 1.01029,4.21711 0.004,2.59278 -1.22374,4.13286 -1.22796,1.54741 -3.3007,1.55079 -0.55664,9.1e-4 -1.12079,-0.10804 -0.57147,-0.10893 -1.18706,-0.32765 z m 15.55244,-9.47358 -2.41699,0.004 0.0136,8.34227 2.62852,-0.53162 0.002,1.34766 -2.61388,0.5316 -1.4795,0.002 -0.0158,-9.68993 -2.41699,0.004 -0.002,-1.24511 6.29882,-0.0103 z m -35.76662,389.87403 0.009,5.8081 -1.24512,0.002 -0.007,-4.45313 -2.68065,0.004 q 0.11038,0.32209 0.16218,0.64427 0.0591,0.32217 0.0596,0.64443 0.003,1.83106 -0.99869,2.90202 -1.00168,1.07097 -2.71555,1.07376 -1.76512,0.003 -2.74836,-1.09415 -0.97591,-1.09705 -0.97917,-3.09656 -10e-4,-0.68847 0.1149,-1.40644 0.11603,-0.71064 0.34917,-1.47274 l 1.48681,-0.002 q -0.35781,0.65976 -0.53245,1.36318 -0.17463,0.7034 -0.17335,1.4871 0.002,1.26709 0.66976,2.00574 0.66771,0.73867 1.81028,0.73681 1.14258,-0.002 1.80788,-0.7427 0.6653,-0.74082 0.66324,-2.00791 -9.7e-4,-0.59327 -0.13377,-1.18632 -0.13279,-0.58571 -0.41211,-1.2005 z m -9.70507,-9.28255 0.004,2.41699 8.34227,-0.0136 -0.53162,-2.62853 1.34766,-0.002 0.53159,2.61388 0.002,1.47949 -9.68992,0.0158 0.004,2.41698 -1.24512,0.002 -0.0102,-6.29882 z m -42.32311,-21.1671 4.4558,-3.72556 0.79867,0.95521 -3.4163,2.85642 1.7195,2.05653 q 0.17676,-0.29099 0.39111,-0.53704 0.20964,-0.25167 0.45687,-0.45839 1.40473,-1.17451 2.86873,-1.09064 1.46401,0.0839 2.56336,1.39871 1.13223,1.35415 0.91893,2.81181 -0.218,1.45202 -1.75196,2.73459 -0.52818,0.44162 -1.15401,0.81213 -0.6202,0.36581 -1.35491,0.67461 l -0.95371,-1.14065 q 0.73591,-0.1475 1.38809,-0.46366 0.65216,-0.31616 1.25339,-0.81885 0.97207,-0.81277 1.11206,-1.7986 0.13998,-0.98582 -0.59291,-1.86237 -0.7329,-0.87655 -1.72794,-0.91338 -0.99503,-0.0368 -1.96711,0.77596 -0.45513,0.38054 -0.82569,0.86223 -0.36496,0.47698 -0.65842,1.08513 z m -0.91784,13.39818 1.85424,-1.55036 -5.3511,-6.39996 -1.67893,2.09117 -0.86445,-1.03389 1.6677,-2.08176 1.13502,-0.94901 6.21554,7.43383 1.85426,-1.55037 0.79867,0.95522 -4.83228,4.04035 z m 89.91875,46.95627 -3.72584,5.84347 3.73534,-0.006 z m -0.39028,-1.28844 1.86035,-0.003 0.0116,7.12646 1.56006,-0.003 0.002,1.23047 -1.56005,0.003 0.004,2.57812 -1.47216,0.002 -0.004,-2.57812 -4.93652,0.008 -0.002,-1.42823 z m -12.94459,9.71105 2.41698,-0.004 -0.0136,-8.34228 -2.62853,0.53162 -0.002,-1.34765 2.61387,-0.5316 1.4795,-0.002 0.0158,9.68993 2.41699,-0.004 0.002,1.24511 -6.29883,0.0103 z m 127.98765,20.08358 -5.84348,-3.72584 0.006,3.73534 z m 1.28844,-0.39029 0.003,1.86035 -7.12646,0.0116 0.003,1.56005 -1.23047,0.002 -0.003,-1.56005 -2.57812,0.004 -0.002,-1.47217 2.57812,-0.004 -0.008,-4.93653 1.42822,-0.002 z m -9.71105,-12.94459 0.004,2.41699 8.34228,-0.0136 -0.53162,-2.62854 1.34764,-0.002 0.53161,2.61389 0.002,1.47949 -9.68994,0.0158 0.004,2.41699 -1.24511,0.002 -0.0103,-6.29881 z m -78.15296,-55.78741 q 0.22532,-1.06238 0.94213,-1.65681 0.71679,-0.60176 1.77148,-0.60348 1.61865,-0.003 2.50669,1.10921 0.88804,1.11184 0.89138,3.16262 10e-4,0.68846 -0.13685,1.42112 -0.13065,0.7253 -0.40038,1.50211 l -1.42822,0.002 q 0.35788,-0.61581 0.5398,-1.34853 0.1819,-0.73273 0.1806,-1.53107 -0.002,-1.39159 -0.55275,-2.1158 -0.55052,-0.73152 -1.59787,-0.72982 -0.9668,0.002 -1.50768,0.68361 -0.54822,0.67472 -0.54626,1.88322 l 0.002,1.27441 -1.21582,0.002 -0.002,-1.333 q -0.002,-1.09131 -0.43485,-1.66922 -0.44039,-0.5779 -1.2607,-0.57656 -0.84229,10e-4 -1.28809,0.60269 -0.45313,0.594 -0.45132,1.70727 9.9e-4,0.60791 0.13396,1.3035 0.13297,0.69558 0.41265,1.53009 l -1.31835,0.002 q -0.23575,-0.8419 -0.35414,-1.57414 -0.11838,-0.73955 -0.11944,-1.39141 -0.003,-1.68457 0.76469,-2.66726 0.76012,-0.98269 2.06383,-0.98481 0.9082,-10e-4 1.53893,0.51752 0.6234,0.519 0.86667,1.47808 z m 4.67329,13.75846 -0.004,-2.41699 -8.34227,0.0136 0.53162,2.62854 -1.34765,0.002 -0.5316,-2.61389 -0.002,-1.47949 9.68993,-0.0158 -0.004,-2.41699 1.24512,-0.002 0.0103,6.29883 z m 47.17199,-23.11547 q 0.67189,0.85322 0.66965,1.78442 0.003,0.9359 -0.67049,1.74722 -1.03423,1.24516 -2.45689,1.21557 -1.42264,-0.0296 -3.00022,-1.33991 -0.52961,-0.43989 -1.00412,-1.01492 -0.47354,-0.56471 -0.89762,-1.26922 l 0.91256,-1.09867 q 0.24396,0.66917 0.69039,1.278 0.44642,0.60883 1.06055,1.11892 1.0705,0.88915 1.97927,0.92988 0.91439,0.0454 1.5836,-0.76028 0.61772,-0.74371 0.44004,-1.59585 -0.16736,-0.85311 -1.09701,-1.62527 l -0.98034,-0.81427 0.77683,-0.93528 1.02543,0.85172 q 0.83949,0.69727 1.5607,0.73456 0.72588,0.0317 1.25002,-0.59939 0.53817,-0.64793 0.36162,-1.37536 -0.16622,-0.72837 -1.02262,-1.43969 -0.46764,-0.38842 -1.08712,-0.73158 -0.61948,-0.34316 -1.43961,-0.66255 l 0.84235,-1.01416 q 0.79768,0.35788 1.43599,0.73571 0.64392,0.3825 1.14537,0.799 1.29586,1.07634 1.55946,2.29502 0.2683,1.21304 -0.5647,2.21593 -0.58028,0.69864 -1.38277,0.85092 -0.79781,0.14664 -1.69032,-0.28047 z m -13.56125,-5.21799 1.85929,1.54432 5.33023,-6.41735 -2.35963,-1.27437 0.86108,-1.03669 2.34835,1.26501 1.1381,0.94531 -6.1913,7.45404 1.85929,1.54431 -0.79556,0.95782 -4.84541,-4.02458 z m 118.05613,116.38096 5.16357,-0.008 0.002,1.24512 -6.94335,0.0113 -0.002,-1.24512 q 0.84087,-0.87295 2.28868,-2.34016 1.45512,-1.47453 1.82797,-1.89995 0.70913,-0.7995 0.98657,-1.34927 0.28473,-0.5571 0.28386,-1.09176 -10e-4,-0.87159 -0.61754,-1.4199 -0.60881,-0.54833 -1.59025,-0.54673 -0.6958,10e-4 -1.47178,0.2441 -0.76864,0.24295 -1.64675,0.7351 l -0.002,-1.49414 q 0.89298,-0.36034 1.66904,-0.54471 0.77607,-0.18437 1.4206,-0.18542 1.69922,-0.003 2.71134,0.84519 1.01213,0.84797 1.01444,2.26886 0.001,0.67383 -0.25426,1.28216 -0.24804,0.60099 -0.91321,1.42239 -0.18276,0.2127 -1.16255,1.23236 -0.97979,1.01234 -2.76393,2.83898 z m -10.55803,0.0172 2.41698,-0.004 -0.0136,-8.34228 -2.62853,0.53163 -0.002,-1.34766 2.61388,-0.5316 1.47949,-0.002 0.0158,9.68993 2.41699,-0.004 0.002,1.24511 -6.29883,0.0103 z m -363.13883,-84.31076 5.16357,-0.008 0.002,1.24512 -6.94335,0.0113 -0.002,-1.24511 q 0.84086,-0.87295 2.28868,-2.34016 1.45512,-1.47454 1.82795,-1.89995 0.70915,-0.7995 0.98658,-1.34926 0.28474,-0.55712 0.28387,-1.09178 -10e-4,-0.87158 -0.61755,-1.41989 -0.60881,-0.54833 -1.59024,-0.54673 -0.6958,10e-4 -1.47178,0.24409 -0.76864,0.24296 -1.64675,0.73511 l -0.002,-1.49414 q 0.89298,-0.36034 1.66904,-0.54471 0.77607,-0.18437 1.4206,-0.18542 1.69922,-0.003 2.71134,0.84519 1.01212,0.84796 1.01443,2.26886 10e-4,0.67383 -0.25425,1.28216 -0.24805,0.60099 -0.91321,1.42239 -0.18277,0.2127 -1.16255,1.23236 -0.9798,1.01234 -2.76394,2.83898 z m -10.55805,0.0172 2.41698,-0.004 -0.0136,-8.34227 -2.62853,0.53162 -0.002,-1.34766 2.61388,-0.5316 1.47949,-0.002 0.0158,9.68993 2.417,-0.004 0.002,1.24512 -6.29883,0.0103 z m 569.87029,30.88339 2.41699,-0.004 -0.0136,-8.34227 -2.62854,0.53162 -0.002,-1.34766 2.61389,-0.53159 1.47949,-0.002 0.0158,9.68992 2.41699,-0.004 0.002,1.24512 -6.29883,0.0103 z m -9.53996,0.0155 2.41699,-0.004 -0.0136,-8.34227 -2.62854,0.53162 -0.002,-1.34766 2.61389,-0.5316 1.47948,-0.002 0.0158,9.68993 2.41699,-0.004 0.002,1.24511 -6.29881,0.0103 z m -106.93021,10.18685 -0.004,-2.417 -8.34228,0.0136 0.53163,2.62854 -1.34766,0.002 -0.5316,-2.61389 -0.002,-1.47948 9.68993,-0.0158 -0.004,-2.41699 1.24511,-0.002 0.0103,6.29882 z m 0.0155,9.53996 -0.004,-2.41699 -8.34228,0.0136 0.53164,2.62853 -1.34766,0.002 -0.5316,-2.61389 -0.002,-1.47949 9.68993,-0.0158 -0.004,-2.41698 1.24512,-0.002 0.0103,6.29881 z m 143.99363,-67.33316 q 0.002,1.14258 1.13073,1.71935 1.12153,0.56946 3.37738,0.56579 2.24854,-0.004 3.37554,-0.57679 1.11965,-0.58043 1.11779,-1.72301 -0.002,-1.1499 -1.1234,-1.71936 -1.12887,-0.57678 -3.37741,-0.57311 -2.25585,0.004 -3.37551,0.5841 -1.127,0.57313 -1.12512,1.72303 z m -1.17188,0.002 q -0.003,-1.83838 1.45295,-2.80754 1.44861,-0.97648 4.21715,-0.98099 2.76123,-0.005 4.22034,0.96725 1.45177,0.96442 1.45476,2.8028 0.003,1.83838 -1.44562,2.81486 -1.45594,0.96917 -4.21717,0.97367 -2.76854,0.005 -4.22032,-0.95993 -1.4591,-0.97175 -1.46209,-2.81012 z m 9.90796,12.43149 -0.004,-2.417 -8.34228,0.0136 0.53163,2.62853 -1.34766,0.002 -0.53159,-2.61389 -0.002,-1.47949 9.68992,-0.0158 -0.004,-2.41698 1.24512,-0.002 0.0103,6.29882 z M 90.18701,575.31642 q -0.878928,-0.73003 -2.044716,-0.23207 -1.155472,0.49701 -2.596833,2.23235 -1.436679,1.72969 -1.717891,2.96238 -0.270898,1.23174 0.608031,1.96177 0.884575,0.73473 2.040046,0.23771 1.16578,-0.49797 2.602459,-2.22766 1.441361,-1.73533 1.712266,-2.96707 0.281213,-1.23268 -0.603362,-1.96741 z m 0.748756,-0.90147 q 1.414184,1.17462 1.226631,2.91355 -0.177239,1.73798 -1.946185,3.86771 -1.764264,2.12409 -3.44488,2.62289 -1.670303,0.49784 -3.084487,-0.67678 -1.414177,-1.17461 -1.236946,-2.91259 0.187561,-1.73893 1.951825,-3.86302 1.768946,-2.12973 3.439241,-2.62757 1.680624,-0.4988 3.094801,0.67581 z m -15.893107,-0.34718 1.859283,1.54432 5.330225,-6.41735 -2.359612,-1.27436 0.861069,-1.03669 2.348357,1.265 1.138106,0.94531 -6.191301,7.45404 1.859283,1.54432 -0.795558,0.95781 -4.845411,-4.02458 z m 633.147091,18.93271 1.34766,-0.002 q -0.26277,0.55707 -0.401,1.12857 -0.13822,0.57152 -0.13733,1.12084 0.002,1.46484 0.98508,2.23229 0.99003,0.77475 2.99705,0.88135 -0.63058,-0.42378 -0.96856,-1.07509 -0.33797,-0.65131 -0.33926,-1.44231 -0.003,-1.64063 0.98454,-2.60171 0.99454,-0.95377 2.71572,-0.95658 1.68457,-0.003 2.70426,0.99169 1.01969,0.99444 1.02239,2.64971 0.003,1.89697 -1.45281,2.89544 -1.44856,1.00578 -4.21711,1.01029 -2.58544,0.004 -4.13286,-1.22374 -1.54008,-1.22065 -1.54345,-3.29339 -9.1e-4,-0.55664 0.10802,-1.12811 0.10894,-0.57147 0.32766,-1.18706 z m 4.64102,2.93678 q 0.002,0.99609 0.68372,1.5736 0.6821,0.58483 1.86862,0.5829 1.1792,-0.002 1.8594,-0.58897 0.68753,-0.57974 0.68591,-1.57583 -0.002,-0.99609 -0.69105,-1.58091 -0.6821,-0.5775 -1.86129,-0.57558 -1.18652,0.002 -1.86673,0.58165 -0.6802,0.58705 -0.67858,1.58314 z m -43.08986,-16.62343 -0.86445,-1.03387 q 0.59617,-0.15478 1.12371,-0.41447 0.52753,-0.25968 0.94896,-0.61204 1.12378,-0.93961 1.08423,-2.18585 -0.0386,-1.25655 -1.24162,-2.86661 0.0781,0.75572 -0.20584,1.43232 -0.28398,0.6766 -0.89082,1.18399 -1.25864,1.05237 -2.62895,0.90926 -1.3694,-0.15342 -2.47345,-1.47387 -1.08055,-1.29235 -0.96942,-2.71232 0.11115,-1.41997 1.38102,-2.48174 1.4553,-1.21679 3.1544,-0.73757 1.70001,0.46891 3.47588,2.59286 1.65842,1.98349 1.70573,3.95836 0.0482,1.96455 -1.54192,3.29411 -0.42704,0.35705 -0.93579,0.63921 -0.50874,0.28217 -1.12167,0.50823 z m -0.71508,-5.4454 q 0.76418,-0.63894 0.77115,-1.53264 0.0126,-0.89841 -0.74849,-1.80867 -0.75639,-0.90465 -1.64283,-1.05137 -0.8855,-0.15702 -1.64968,0.48192 -0.76417,0.63893 -0.77208,1.54295 -0.007,0.89371 0.74943,1.79836 0.76108,0.91026 1.64189,1.06168 0.88644,0.14671 1.65061,-0.49223 z m 115.51,-63.71298 q 0.002,1.05469 0.56667,1.66168 0.56495,0.59967 1.55372,0.59806 0.98876,-0.002 1.55175,-0.60312 0.56298,-0.60882 0.56126,-1.66351 -0.002,-1.05468 -0.56668,-1.66167 -0.57228,-0.60698 -1.55372,-0.60538 -0.98877,0.002 -1.55175,0.61044 -0.56298,0.60149 -0.56125,1.6635 z m -0.62747,1.48053 q -0.23283,0.95252 -0.8838,1.48825 -0.651,0.52841 -1.5885,0.52993 -1.31103,0.002 -2.07427,-0.9268 -0.76324,-0.93626 -0.76589,-2.56223 -0.003,-1.6333 0.75755,-2.56471 0.7602,-0.93142 2.07123,-0.93356 0.9375,-0.002 1.59023,0.53208 0.6527,0.52628 0.88862,1.47073 0.24728,-1.06974 0.97141,-1.66418 0.72412,-0.60177 1.77148,-0.60348 1.58935,-0.003 2.44055,0.97016 0.85118,0.9654 0.85413,2.77448 0.003,1.80909 -0.84508,2.78459 -0.84803,0.96817 -2.43738,0.97076 -1.04736,0.002 -1.77344,-0.59769 -0.72608,-0.59941 -0.97684,-1.66833 z m -2.33554,0.54579 q 0.84961,-10e-4 1.32482,-0.52951 0.47521,-0.53543 0.47364,-1.49491 -0.002,-0.95214 -0.4785,-1.48603 -0.47695,-0.54122 -1.32656,-0.53983 -0.84961,0.001 -1.32479,0.54414 -0.47521,0.53545 -0.47366,1.48759 0.002,0.95948 0.47851,1.49336 0.47693,0.52657 1.32654,0.52519 z m -730.765708,1.20437 q -0.0017,-1.05469 -0.566672,-1.66168 -0.564943,-0.59966 -1.55371,-0.59805 -0.988769,0.002 -1.551754,0.60311 -0.562974,0.60882 -0.561257,1.66351 0.0017,1.05469 0.566672,1.66168 0.572278,0.60698 1.553722,0.60538 0.988768,-0.002 1.551742,-0.61043 0.562986,-0.60151 0.561257,-1.66352 z m 0.627472,-1.48051 q 0.232824,-0.95254 0.883808,-1.48827 0.650996,-0.5284 1.588495,-0.52992 1.311033,-0.002 2.074266,0.92679 0.763245,0.93626 0.765893,2.56224 0.0027,1.63329 -0.757543,2.56471 -0.760204,0.93141 -2.071237,0.93355 -0.937499,0.002 -1.590225,-0.53207 -0.652712,-0.52629 -0.888626,-1.47073 -0.247281,1.06974 -0.971412,1.66418 -0.724119,0.60177 -1.771481,0.60347 -1.589353,0.003 -2.440548,-0.97015 -0.851182,-0.96541 -0.854128,-2.77449 -0.0029,-1.80908 0.845075,-2.78458 0.848033,-0.96818 2.437387,-0.97077 1.047362,-0.002 1.773437,0.5977 0.726075,0.5994 0.976839,1.66834 z m 2.335541,-0.5458 q -0.849609,0.001 -1.324824,0.5295 -0.475202,0.53544 -0.47364,1.49491 0.0016,0.95215 0.478495,1.48605 0.476956,0.54121 1.326565,0.53983 0.849608,-10e-4 1.324798,-0.54415 0.475204,-0.53545 0.473653,-1.4876 -0.0016,-0.95946 -0.478507,-1.49336 -0.476933,-0.52656 -1.32654,-0.52518 z m 724.888385,-82.78982 -0.0114,-7.03125 0.62989,-0.001 10.31162,3.95294 0.003,1.54541 -9.69601,-3.71957 0.009,5.25146 z m -687.023784,56.54715 -7.031241,0.0114 -0.001,-0.62989 3.952938,-10.31162 1.545408,-0.003 -3.719565,9.69601 5.251458,-0.009 z M 713.74743,427.56472 q -0.002,-0.99608 -0.68373,-1.58091 -0.68209,-0.5775 -1.86862,-0.57557 -1.1792,0.002 -1.86672,0.58165 -0.68021,0.58705 -0.67859,1.58314 0.002,0.9961 0.68373,1.5736 0.68942,0.58481 1.86862,0.58289 1.18653,-0.002 1.86672,-0.58898 0.68021,-0.57972 0.67859,-1.57582 z m 4.641,2.92946 -1.34764,0.002 q 0.26276,-0.55707 0.40099,-1.12859 0.13824,-0.56419 0.13733,-1.12082 -0.002,-1.46485 -0.99242,-2.2396 -0.99002,-0.76744 -2.9897,-0.87404 0.6379,0.43109 0.97588,1.0824 0.3453,0.65129 0.34658,1.43498 0.003,1.64794 -0.99919,2.60173 -0.99453,0.96109 -2.71572,0.96389 -1.68457,0.003 -2.70425,-0.99169 -1.01969,-0.99443 -1.02239,-2.64971 -0.003,-1.89696 1.44547,-2.90274 1.45588,-1.0058 4.21711,-1.01029 2.59278,-0.004 4.13286,1.22374 1.54741,1.22795 1.55079,3.3007 9e-4,0.55665 -0.10804,1.12079 -0.10893,0.57146 -0.32766,1.18705 z m -58.56857,48.82222 q 0.99609,-0.002 1.58092,-0.68373 0.57751,-0.68209 0.57558,-1.86862 -0.002,-1.1792 -0.58166,-1.86673 -0.58705,-0.6802 -1.58314,-0.67858 -0.99609,0.002 -1.5736,0.68373 -0.58481,0.68942 -0.58288,1.86862 0.002,1.18653 0.58897,1.86672 0.57972,0.68021 1.57581,0.67859 z m -2.92945,4.641 -0.002,-1.34766 q 0.55707,0.26278 1.12859,0.40101 0.56418,0.13824 1.12082,0.13733 1.46485,-0.002 2.23961,-0.99242 0.76743,-0.99002 0.87403,-2.9897 -0.43109,0.6379 -1.08239,0.97588 -0.6513,0.34529 -1.43499,0.34657 -1.64795,0.003 -2.60173,-0.99918 -0.96109,-0.99453 -0.96389,-2.71572 -0.003,-1.68457 0.99168,-2.70426 0.99445,-1.01968 2.64971,-1.02238 1.89697,-0.003 2.90275,1.44547 1.00579,1.45588 1.01029,4.21711 0.004,2.59278 -1.22374,4.13286 -1.22795,1.54741 -3.3007,1.55078 -0.55664,9.1e-4 -1.12079,-0.10803 -0.57147,-0.10893 -1.18705,-0.32766 z m 121.64277,-132.16149 -0.009,-5.80809 1.24512,-0.002 0.007,4.45311 2.68066,-0.004 q -0.11039,-0.32208 -0.16218,-0.64427 -0.0591,-0.32216 -0.0597,-0.64443 -0.003,-1.83105 0.99869,-2.90202 1.00168,-1.07098 2.71555,-1.07377 1.76513,-0.003 2.74836,1.09417 0.97591,1.09704 0.97917,3.09655 0.001,0.68848 -0.1149,1.40644 -0.11603,0.71064 -0.34916,1.47274 l -1.48682,0.002 q 0.35781,-0.65977 0.53245,-1.36317 0.17463,-0.70342 0.17336,-1.48711 -0.002,-1.26708 -0.66977,-2.00575 -0.66771,-0.73865 -1.81028,-0.73679 -1.14258,0.002 -1.80789,0.74268 -0.66529,0.74084 -0.66323,2.00793 9.7e-4,0.59326 0.13378,1.1863 0.13278,0.58573 0.4121,1.2005 z m -656.30884,153.88828 -0.009,-5.8081 1.24512,-0.002 0.007,4.45313 2.68065,-0.004 q -0.11038,-0.32209 -0.16218,-0.64427 -0.0591,-0.32217 -0.0597,-0.64443 -0.003,-1.83106 0.9987,-2.90203 1.00167,-1.07096 2.71554,-1.07375 1.76513,-0.003 2.74837,1.09415 0.97591,1.09704 0.97916,3.09656 0.001,0.68847 -0.1149,1.40644 -0.11602,0.71064 -0.34916,1.47273 l -1.48682,0.002 q 0.35782,-0.65976 0.53245,-1.36317 0.17464,-0.70341 0.17336,-1.4871 -0.002,-1.26709 -0.66977,-2.00574 -0.6677,-0.73867 -1.81028,-0.73681 -1.14258,0.002 -1.80787,0.7427 -0.66531,0.74082 -0.66324,2.00791 9.6e-4,0.59326 0.13377,1.18632 0.13278,0.58571 0.41211,1.2005 z m 624.40013,-283.28314 3.72584,-5.84348 -3.73534,0.006 z m 0.39029,1.28843 -1.86035,0.003 -0.0116,-7.12646 -1.56006,0.003 -0.002,-1.23046 1.56006,-0.003 -0.004,-2.57811 1.47217,-0.002 0.004,2.57812 4.93652,-0.008 0.002,1.42823 z m -194.63292,299.36025 -3.72584,5.84347 3.73535,-0.006 z m -0.39029,-1.28843 1.86035,-0.003 0.0116,7.12645 1.56006,-0.003 0.002,1.23047 -1.56006,0.003 0.004,2.57812 -1.47216,0.002 -0.004,-2.57812 -4.93652,0.008 -0.002,-1.42822 z m 33.50966,-154.24692 q 0.22532,-1.06238 0.94212,-1.65682 0.7168,-0.60174 1.77148,-0.60346 1.61865,-0.003 2.50669,1.1092 0.88805,1.11183 0.89139,3.16261 10e-4,0.68848 -0.13685,1.42112 -0.13065,0.72532 -0.40038,1.50212 l -1.42822,0.002 q 0.35788,-0.61581 0.53979,-1.34853 0.18192,-0.73271 0.18062,-1.53105 -0.002,-1.3916 -0.55277,-2.11581 -0.55051,-0.73152 -1.59787,-0.72981 -0.9668,0.002 -1.50768,0.6836 -0.54821,0.67473 -0.54624,1.88321 l 0.002,1.27442 -1.21581,0.002 -0.002,-1.33301 q -0.002,-1.0913 -0.43485,-1.66921 -0.44041,-0.5779 -1.26071,-0.57657 -0.84228,0.001 -1.28808,0.60269 -0.45314,0.594 -0.45132,1.70728 9.9e-4,0.60791 0.13395,1.30349 0.13297,0.69559 0.41265,1.5301 l -1.31836,0.002 q -0.23574,-0.84191 -0.35412,-1.57414 -0.1184,-0.73955 -0.11946,-1.3914 -0.003,-1.68457 0.7647,-2.66727 0.76012,-0.98268 2.06383,-0.9848 0.90821,-0.001 1.53893,0.51751 0.62341,0.519 0.86667,1.47808 z m -336.1208,5.52088 q -0.22532,1.06237 -0.94214,1.6568 -0.71679,0.60176 -1.77148,0.60348 -1.61864,0.003 -2.50669,-1.1092 -0.88804,-1.11185 -0.89138,-3.16262 -0.001,-0.68847 0.13685,-1.42113 0.13066,-0.7253 0.40038,-1.50211 l 1.42822,-0.002 q -0.35788,0.61582 -0.53979,1.34854 -0.18191,0.73272 -0.18061,1.53106 0.002,1.3916 0.55276,2.1158 0.55051,0.73153 1.59787,0.72982 0.9668,-0.002 1.50768,-0.68361 0.54822,-0.67472 0.54625,-1.88322 l -0.002,-1.27441 1.21582,-0.002 0.002,1.33301 q 0.002,1.0913 0.43485,1.66922 0.44039,0.57789 1.2607,0.57655 0.84229,-10e-4 1.28809,-0.60267 0.45314,-0.59401 0.45132,-1.70729 -9.9e-4,-0.60791 -0.13396,-1.3035 -0.13296,-0.69558 -0.41265,-1.53009 l 1.31836,-0.002 q 0.23575,0.84189 0.35413,1.57413 0.11838,0.73955 0.11945,1.39141 0.003,1.68457 -0.7647,2.66726 -0.76012,0.98269 -2.06383,0.98481 -0.9082,0.001 -1.53892,-0.51751 -0.62341,-0.51901 -0.86667,-1.47808 z m 459.28998,-108.54201 0.008,5.16357 -1.24512,0.002 -0.0113,-6.94335 1.24512,-0.002 q 0.87295,0.84086 2.34015,2.28867 1.47454,1.45512 1.89996,1.82796 0.7995,0.70915 1.34926,0.98657 0.5571,0.28475 1.09177,0.28388 0.87158,-10e-4 1.4199,-0.61756 0.54833,-0.6088 0.54673,-1.59024 -10e-4,-0.6958 -0.2441,-1.47177 -0.24295,-0.76865 -0.7351,-1.64676 l 1.49414,-0.002 q 0.36033,0.89296 0.54471,1.66903 0.18436,0.77607 0.18541,1.4206 0.003,1.69922 -0.84519,2.71134 -0.84796,1.01212 -2.26886,1.01444 -0.67382,0.001 -1.28215,-0.25425 -0.601,-0.24806 -1.42239,-0.91322 -0.2127,-0.18276 -1.23237,-1.16254 -1.01233,-0.97981 -2.83897,-2.76394 z m -146.03528,272.43101 -5.16357,0.008 -0.002,-1.24511 6.94335,-0.0113 0.002,1.24511 q -0.84086,0.87296 -2.28867,2.34016 -1.45512,1.47454 -1.82796,1.89994 -0.70915,0.7995 -0.98657,1.34927 -0.28475,0.55711 -0.28388,1.09178 10e-4,0.87158 0.61756,1.41989 0.6088,0.54832 1.59024,0.54672 0.69581,-10e-4 1.47177,-0.24409 0.76866,-0.24296 1.64676,-0.73511 l 0.002,1.49414 q -0.89296,0.36035 -1.66903,0.54471 -0.77607,0.18438 -1.4206,0.18542 -1.69922,0.003 -2.71134,-0.84519 -1.01213,-0.84796 -1.01444,-2.26886 -0.001,-0.67383 0.25426,-1.28216 0.24804,-0.60098 0.91321,-1.42238 0.18276,-0.2127 1.16254,-1.23236 0.97981,-1.01235 2.76394,-2.83899 z m 146.17468,-188.33231 0.004,2.41699 8.34227,-0.0136 -0.53163,-2.62853 1.34766,-0.002 0.5316,2.61388 0.002,1.4795 -9.68993,0.0158 0.004,2.41698 -1.24512,0.002 -0.0103,-6.29882 z m -90.30935,152.96961 0.004,2.41698 8.34228,-0.0136 -0.53163,-2.62854 1.34766,-0.002 0.5316,2.61388 0.002,1.47949 -9.68993,0.0158 0.004,2.41699 -1.24512,0.002 -0.0103,-6.29882 z M 779.36552,263.98524 q 0.002,1.14257 1.13073,1.71935 1.12154,0.56946 3.37738,0.56579 2.24854,-0.004 3.37554,-0.57679 1.11967,-0.58044 1.1178,-1.72301 -0.002,-1.1499 -1.12341,-1.71937 -1.12887,-0.57677 -3.37741,-0.57311 -2.25584,0.004 -3.37551,0.58411 -1.127,0.57313 -1.12512,1.72303 z m -1.17187,0.002 q -0.003,-1.83837 1.45294,-2.80755 1.44861,-0.97648 4.21716,-0.98099 2.76123,-0.004 4.22033,0.96725 1.45177,0.96444 1.45476,2.80282 0.003,1.83838 -1.44561,2.81486 -1.45594,0.96917 -4.21717,0.97366 -2.76855,0.005 -4.22032,-0.95992 -1.4591,-0.97175 -1.46209,-2.81013 z M 187.50626,546.2498 q 1.14258,-0.002 1.71935,-1.13073 0.56947,-1.12153 0.56579,-3.37739 -0.004,-2.24854 -0.57678,-3.37553 -0.58044,-1.11966 -1.72302,-1.1178 -1.1499,0.002 -1.71936,1.1234 -0.57678,1.12887 -0.57312,3.37741 0.004,2.25586 0.58412,3.37551 0.57312,1.127 1.72302,1.12513 z m 0.002,1.17188 q -1.83838,0.003 -2.80755,-1.45295 -0.97648,-1.44861 -0.98099,-4.21716 -0.005,-2.76123 0.96725,-4.22033 0.96444,-1.45177 2.80281,-1.45477 1.83838,-0.003 2.81486,1.44562 0.96917,1.45594 0.97367,4.21717 0.005,2.76855 -0.95993,4.22032 -0.97174,1.4591 -2.81012,1.4621 z" />
    <path
       id="path19744"
       style="fill:none;stroke:#ff0000;stroke-width:1;stroke-linecap:butt;stroke-linejoin:miter;stroke-miterlimit:10;stroke-dasharray:none;stroke-opacity:1"
       d="m 507.59329,121.08648 0.13843,84.90144 m 0,0 19.0786,-15.03193 46.69288,-0.0748 19.12996,14.96831 m -175.59853,-84.61615 90.55866,-0.14687 m -265.88036,85.3346 20.35266,-15.03434 49.806,-0.0794 20.40001,14.96686 m 84.90144,-0.13841 -0.13841,-84.90244 m -84.76303,85.04086 19.07861,-15.03292 46.69688,-0.0748 19.12595,14.96928 M 332.9788,639.9438 332.83479,551.53021 m 0,0 -5.63969,24.26727 -37.30566,31.19229 -24.88111,1.2509 m 152.87191,31.56471 -19.07858,15.02892 -46.69691,0.0778 -19.12595,-14.96828 m 152.90689,52.83955 -0.13841,-84.90244 m -68.01005,-56.48913 0.14301,88.41358 m 67.86704,-31.92445 -24.8859,-1.17121 -37.40839,-31.06724 -5.71576,-24.25068 m 220.96766,141.14199 -152.8192,0.24958 m -220.87736,-84.5427 -34.36023,15.05798 -84.05042,0.13783 -34.40855,-14.94723 m 679.24925,30.70781 -19.07858,15.02892 -46.69691,0.0778 -19.12595,-14.96828 m -67.97047,-31.70315 0.13842,84.90144 m 152.58948,-141.75032 0.14401,88.41359 M 112.18913,608.48925 87.303239,607.31804 49.894851,576.25079 44.17909,552.00012 m 662.35785,87.33536 -15.03096,-19.87162 -0.0793,-48.62297 14.96624,-19.91899 m 10e-6,0 -67.82646,56.71045 m 152.59789,-136.08709 0.13001,79.23821 m -747.11528,1.21665 -15.031502,-17.80556 -0.07022,-43.57977 14.970704,-17.8529 m 746.969408,-91.7743 0.14688,90.55767 m -747.116287,1.21663 20.351655,-15.03435 49.807032,-0.0824 20.40001,14.96586 m 571.65617,-0.93032 -15.03138,-20.34864 -0.0824,-49.81002 14.96587,-20.40002 m -90.41083,90.70955 90.5587,-0.15087 m 84.65285,-152.95762 0.10169,62.26453 m -656.41071,91.62343 15.02424,13.9844 0.0544,34.24438 -14.977,14.03575 m 571.12979,-323.55343 19.07861,-15.03293 46.69687,-0.0738 19.12596,14.96828 m -197.5716,322.94514 -84.90145,0.13842 m 84.36657,-328.41773 0.53488,328.27931 m -350.92023,0.57158 -15.12105,-73.83882 -0.29398,-180.55432 14.88015,-73.88617 m 464.30042,112.4404 -15.03762,-24.17179 -0.0981,-59.14741 14.9606,-24.22016 m -197.57164,322.94511 107.53936,-0.17516 m 90.30912,-152.97007 -15.02025,-13.98437 -0.0584,-34.2434 14.97697,-14.03275 m -90.20744,215.23059 -0.10171,-62.26052 m 175.0354,-260.64785 0.17615,107.53936 m -656.20734,216.15249 24.17282,-15.04162 59.14638,-0.0941 24.22016,14.96059" />
  </g>
</svg>
