<?xml version="1.0" encoding="UTF-8" standalone="no"?>
<!-- Created with Inkscape (http://www.inkscape.org/) -->

<svg
   version="1.1"
   id="svg24720"
   width="1132"
   height="1132"
   viewBox="0 0 1132 1132"
   sodipodi:docname="L.svg"
   inkscape:version="1.2.2 (732a01da63, 2022-12-09, custom)"
   xmlns:inkscape="http://www.inkscape.org/namespaces/inkscape"
   xmlns:sodipodi="http://sodipodi.sourceforge.net/DTD/sodipodi-0.dtd"
   xmlns="http://www.w3.org/2000/svg"
   xmlns:svg="http://www.w3.org/2000/svg">
  <defs
     id="defs24724" />
  <sodipodi:namedview
     id="namedview24722"
     pagecolor="#ffffff"
     bordercolor="#666666"
     borderopacity="1.0"
     inkscape:showpageshadow="2"
     inkscape:pageopacity="0.0"
     inkscape:pagecheckerboard="0"
     inkscape:deskcolor="#d1d1d1"
     showgrid="false"
     inkscape:zoom="0.65989399"
     inkscape:cx="566"
     inkscape:cy="566"
     inkscape:window-width="1920"
     inkscape:window-height="1009"
     inkscape:window-x="0"
     inkscape:window-y="0"
     inkscape:window-maximized="1"
     inkscape:current-layer="g24728">
    <inkscape:page
       x="0"
       y="0"
       id="page24726"
       width="1132"
       height="1132" />
  </sodipodi:namedview>
  <g
     id="g24728"
     inkscape:groupmode="layer"
     inkscape:label="Page 1"
     transform="matrix(1.3333333,0,0,1.3333333,0,2.83e-5)">
    <path
       id="path24884"
       style="fill:none;stroke:#800000;stroke-width:1;stroke-linecap:butt;stroke-linejoin:miter;stroke-miterlimit:10;stroke-dasharray:8,8;stroke-dashoffset:0;stroke-opacity:1"
       d="M 97.279037,491.352 V 338.531 m 0,152.821 h 84.902003 m 0,0 h 152.817 M 97.279037,564.93 V 491.352 M 182.18104,564.93 H 97.279037 m 84.902003,0 v -73.578 m 560.34,73.578 h -237.718 m -84.903,0 h -237.719 m 322.622,0 h -84.903 m -84.902,-73.578 V 163.07 m 254.703,0 h 84.902 m -84.902,0 V 491.352 M 334.99804,163.07 h 84.902 m 0,0 h 84.903 m 0,0 h 84.898 m -169.801,401.86 V 163.07 m 84.903,401.86 V 163.07" />
    <path
       d="M 97.279037,338.531 H 182.18104"
       style="fill:none;stroke:#00ff00;stroke-width:1;stroke-linecap:butt;stroke-linejoin:miter;stroke-miterlimit:10;stroke-dasharray:8, 2, 2, 2;stroke-dashoffset:0;stroke-opacity:1"
       id="path24892" />
    <path
       id="path25053"
       style="font-size:15px;font-family:'DejaVu Sans';-inkscape-font-specification:DejaVuSans;fill:#0000ff"
       d="m 638.23956,479.89062 q -1.14258,0 -1.72119,1.12793 -0.57129,1.12061 -0.57129,3.37647 0,2.24853 0.57129,3.37646 0.57861,1.12061 1.72119,1.12061 1.14991,0 1.72119,-1.12061 0.57862,-1.12793 0.57862,-3.37646 0,-2.25586 -0.57862,-3.37647 -0.57128,-1.12793 -1.72119,-1.12793 z m 0,-1.17187 q 1.83838,0 2.80518,1.45752 0.97412,1.45019 0.97412,4.21875 0,2.76123 -0.97412,4.21875 -0.9668,1.45019 -2.80518,1.45019 -1.83838,0 -2.8125,-1.45019 -0.96679,-1.45752 -0.96679,-4.21875 0,-2.76856 0.96679,-4.21875 0.97412,-1.45752 2.8125,-1.45752 z m -12.44769,9.8877 h 2.41699 v -8.34229 l -2.62939,0.52734 v -1.34765 l 2.61474,-0.52735 h 1.4795 v 9.68995 h 2.41699 v 1.24511 h -6.29883 z M 133.64297,349.99219 q 1.14258,0 1.7212,-1.12793 0.57129,-1.12061 0.57129,-3.37647 0,-2.24853 -0.57129,-3.37646 -0.57862,-1.12061 -1.7212,-1.12061 -1.1499,0 -1.72119,1.12061 -0.57861,1.12793 -0.57861,3.37646 0,2.25586 0.57861,3.37647 0.57129,1.12793 1.72119,1.12793 z m 0,1.17187 q -1.83837,0 -2.80517,-1.45752 -0.97412,-1.45019 -0.97412,-4.21875 0,-2.76123 0.97412,-4.21875 0.9668,-1.45019 2.80517,-1.45019 1.83838,0 2.8125,1.45019 0.9668,1.45752 0.9668,4.21875 0,2.76856 -0.9668,4.21875 -0.97412,1.45752 -2.8125,1.45752 z m 12.44771,-9.88769 h -2.41699 v 8.34228 l 2.6294,-0.52734 v 1.34765 l -2.61475,0.52735 h -1.47949 v -9.68994 h -2.417 v -1.24512 h 6.29883 z m -47.08447,71.53955 h 1.34766 q -0.26368,0.55664 -0.402835,1.12793 -0.139161,0.57129 -0.139161,1.1206 0,1.46485 0.981446,2.23389 0.98877,0.77637 2.99561,0.88623 -0.62989,-0.4248 -0.9668,-1.07666 -0.33692,-0.65186 -0.33692,-1.44287 0,-1.64063 0.98877,-2.6001 0.9961,-0.95215 2.71729,-0.95215 1.68457,0 2.70264,0.9961 1.01806,0.99609 1.01806,2.65136 0,1.89698 -1.45752,2.89307 -1.45019,1.00342 -4.21875,1.00342 -2.58545,0 -4.13086,-1.23047 -1.538083,-1.22315 -1.538083,-3.2959 0,-0.55664 0.109863,-1.12793 0.109864,-0.57129 0.32959,-1.18652 z m 4.63623,2.94433 q 0,0.9961 0.68115,1.57471 0.68116,0.58594 1.86768,0.58594 1.1792,0 1.86035,-0.58594 0.68848,-0.57861 0.68848,-1.57471 0,-0.99609 -0.68848,-1.58203 -0.68115,-0.57861 -1.86035,-0.57861 -1.18652,0 -1.86768,0.57861 -0.68115,0.58594 -0.68115,1.58203 z m 564.59425,77.31836 v 1.34766 q -0.55664,-0.26367 -1.12793,-0.40283 -0.57128,-0.13916 -1.1206,-0.13916 -1.46484,0 -2.23389,0.98144 -0.77636,0.98877 -0.88623,2.99561 0.42481,-0.62988 1.07666,-0.9668 0.65186,-0.33691 1.44287,-0.33691 1.64063,0 2.6001,0.98877 0.95215,0.99609 0.95215,2.71728 0,1.68457 -0.99609,2.70264 -0.9961,1.01806 -2.65137,1.01806 -1.89697,0 -2.89307,-1.45751 -1.00342,-1.4502 -1.00342,-4.21875 0,-2.58545 1.23047,-4.13086 1.22315,-1.53809 3.2959,-1.53809 0.55664,0 1.12793,0.10986 0.57129,0.10987 1.18652,0.32959 z m -2.94433,4.63623 q -0.9961,0 -1.57471,0.68116 -0.58594,0.68115 -0.58594,1.86767 0,1.1792 0.58594,1.86035 0.57861,0.68848 1.57471,0.68848 0.99609,0 1.58203,-0.68848 0.57861,-0.68115 0.57861,-1.86035 0,-1.18652 -0.57861,-1.86767 -0.58594,-0.68116 -1.58203,-0.68116 z m -489.80373,-83.7915 q 0,1.05469 0.56397,1.6626 0.56396,0.60058 1.55273,0.60058 0.98877,0 1.55274,-0.60058 0.56396,-0.60791 0.56396,-1.6626 0,-1.05469 -0.56396,-1.6626 -0.57129,-0.60791 -1.55274,-0.60791 -0.98877,0 -1.55273,0.60791 -0.56397,0.60059 -0.56397,1.6626 z m -0.62988,1.47949 q -0.23438,0.95215 -0.88623,1.48682 -0.65186,0.52734 -1.58936,0.52734 -1.31103,0 -2.07275,-0.93017 -0.76172,-0.9375 -0.76172,-2.56348 0,-1.6333 0.76172,-2.56348 0.76172,-0.93017 2.07275,-0.93017 0.9375,0 1.58936,0.53467 0.65185,0.52734 0.88623,1.47216 0.24902,-1.06933 0.97412,-1.66259 0.7251,-0.60059 1.77246,-0.60059 1.58936,0 2.43897,0.97412 0.84961,0.9668 0.84961,2.77588 0,1.80908 -0.84961,2.7832 -0.84961,0.9668 -2.43897,0.9668 -1.04736,0 -1.77246,-0.60059 -0.7251,-0.60058 -0.97412,-1.66992 z m -2.33643,0.54199 q 0.84961,0 1.32569,-0.52734 0.47607,-0.53467 0.47607,-1.49414 0,-0.95215 -0.47607,-1.48682 -0.47608,-0.54199 -1.32569,-0.54199 -0.84961,0 -1.32568,0.54199 -0.47607,0.53467 -0.47607,1.48682 0,0.95947 0.47607,1.49414 0.47607,0.52734 1.32568,0.52734 z m 85.05129,82.09961 q 1.05469,0 1.6626,-0.56396 0.60058,-0.56397 0.60058,-1.55274 0,-0.98877 -0.60058,-1.55273 -0.60791,-0.56396 -1.6626,-0.56396 -1.05469,0 -1.6626,0.56396 -0.60791,0.57129 -0.60791,1.55273 0,0.98877 0.60791,1.55274 0.60059,0.56396 1.6626,0.56396 z m 1.47949,0.62989 q 0.95215,0.23437 1.48682,0.88623 0.52734,0.65185 0.52734,1.58935 0,1.31104 -0.93018,2.07276 -0.9375,0.76171 -2.56347,0.76171 -1.6333,0 -2.56348,-0.76171 -0.93017,-0.76172 -0.93017,-2.07276 0,-0.9375 0.53466,-1.58935 0.52735,-0.65186 1.47217,-0.88623 -1.06933,-0.24903 -1.6626,-0.97412 -0.60058,-0.7251 -0.60058,-1.77247 0,-1.58935 0.97412,-2.43896 0.9668,-0.84961 2.77588,-0.84961 1.80908,0 2.7832,0.84961 0.9668,0.84961 0.9668,2.43896 0,1.04737 -0.60059,1.77247 -0.60058,0.72509 -1.66992,0.97412 z m 0.54199,2.33642 q 0,-0.84961 -0.52734,-1.32568 -0.53467,-0.47608 -1.49414,-0.47608 -0.95215,0 -1.48682,0.47608 -0.54199,0.47607 -0.54199,1.32568 0,0.84961 0.54199,1.32569 0.53467,0.47607 1.48682,0.47607 0.95947,0 1.49414,-0.47607 0.52734,-0.47608 0.52734,-1.32569 z m -149.88087,24.84473 v 7.03125 h -0.62988 l -10.30518,-3.96973 v -1.54541 l 9.68994,3.73535 v -5.25146 z m 620.37208,4.57031 v -7.03125 h 0.62989 l 10.30517,3.96973 v 1.54541 l -9.68994,-3.73535 v 5.25146 z m -589.18019,26.94678 q -0.99609,0 -1.58203,0.68115 -0.57861,0.68115 -0.57861,1.86768 0,1.1792 0.57861,1.86767 0.58594,0.68115 1.58203,0.68115 0.9961,0 1.57471,-0.68115 0.58594,-0.68847 0.58594,-1.86767 0,-1.18653 -0.58594,-1.86768 -0.57861,-0.68115 -1.57471,-0.68115 z m 2.93701,-4.63623 v 1.34765 q -0.55664,-0.26367 -1.12793,-0.40283 -0.56396,-0.13916 -1.1206,-0.13916 -1.46484,0 -2.24121,0.98877 -0.76904,0.98877 -0.87891,2.98828 0.43213,-0.6372 1.08399,-0.97412 0.65185,-0.34424 1.43554,-0.34424 1.64795,0 2.6001,1.00342 0.95947,0.9961 0.95947,2.71729 0,1.68457 -0.99609,2.70263 -0.99609,1.01807 -2.65137,1.01807 -1.89697,0 -2.90039,-1.4502 -1.00342,-1.45752 -1.00342,-4.21875 0,-2.59277 1.23047,-4.13085 1.23047,-1.54542 3.30323,-1.54542 0.55664,0 1.1206,0.10987 0.57129,0.10986 1.18652,0.32959 z m 591.12111,53.46875 q 0,0.99609 0.68116,1.58203 0.68115,0.57861 1.86767,0.57861 1.1792,0 1.86768,-0.57861 0.68115,-0.58594 0.68115,-1.58203 0,-0.9961 -0.68115,-1.57471 -0.68848,-0.58594 -1.86768,-0.58594 -1.18652,0 -1.86767,0.58594 -0.68116,0.57861 -0.68116,1.57471 z m -4.63623,-2.93701 h 1.34766 q -0.26367,0.55664 -0.40283,1.12793 -0.13916,0.56396 -0.13916,1.1206 0,1.46485 0.98877,2.24121 0.98877,0.76905 2.98828,0.87891 -0.63721,-0.43213 -0.97412,-1.08399 -0.34424,-0.65185 -0.34424,-1.43554 0,-1.64795 1.00342,-2.6001 0.99609,-0.95947 2.71728,-0.95947 1.68457,0 2.70264,0.99609 1.01806,0.99609 1.01806,2.65137 0,1.89697 -1.45019,2.90039 -1.45752,1.00342 -4.21875,1.00342 -2.59277,0 -4.13086,-1.23047 -1.54541,-1.23047 -1.54541,-3.30322 0,-0.55665 0.10986,-1.12061 0.10987,-0.57129 0.32959,-1.18652 z m -108.58642,34.1289 h 5.8081 v 1.24512 h -4.45312 v 2.68066 q 0.32226,-0.10986 0.64453,-0.16113 0.32226,-0.0586 0.64453,-0.0586 1.83105,0 2.90039,1.00342 1.06934,1.00341 1.06934,2.71728 0,1.76514 -1.09864,2.74658 -1.09863,0.97412 -3.09814,0.97412 -0.68848,0 -1.40625,-0.11718 -0.71045,-0.11719 -1.47217,-0.35157 v -1.48681 q 0.65918,0.35888 1.36231,0.53467 0.70312,0.17578 1.48681,0.17578 1.26709,0 2.00684,-0.66651 0.73974,-0.6665 0.73974,-1.80908 0,-1.14258 -0.73974,-1.80908 -0.73975,-0.66651 -2.00684,-0.66651 -0.59326,0 -1.18652,0.13184 -0.58594,0.13184 -1.20117,0.41016 z m -322.6211,-84.90234 h 5.80811 v 1.24512 h -4.45313 v 2.68066 q 0.32227,-0.10986 0.64454,-0.16113 0.32226,-0.0586 0.64453,-0.0586 1.83105,0 2.90039,1.00342 1.06933,1.00342 1.06933,2.71729 0,1.76513 -1.09863,2.74658 -1.09863,0.97412 -3.09814,0.97412 -0.68848,0 -1.40625,-0.11719 -0.71045,-0.11719 -1.47217,-0.35156 v -1.48682 q 0.65918,0.35889 1.3623,0.53467 0.70313,0.17578 1.48682,0.17578 1.26709,0 2.00683,-0.6665 0.73975,-0.66651 0.73975,-1.80908 0,-1.14258 -0.73975,-1.80909 -0.73974,-0.6665 -2.00683,-0.6665 -0.59326,0 -1.18652,0.13184 -0.58594,0.13183 -1.20118,0.41015 z m 216.82813,56.57275 -5.8374,-3.73535 v 3.73535 z m 1.28906,-0.38818 v 1.86035 h -7.12646 v 1.56006 h -1.23047 v -1.56006 h -2.57813 v -1.47217 h 2.57813 v -4.93652 h 1.42822 z m -53.20361,-54.89551 -3.73535,5.8374 h 3.73535 z m -0.38819,-1.28906 h 1.86036 v 7.12646 h 1.56005 v 1.23047 h -1.56005 v 2.57813 h -1.47217 v -2.57813 h -4.93653 v -1.42822 z M 667.2074,324.72607 q 0.22705,-1.06201 0.94482,-1.65527 0.71778,-0.60059 1.77246,-0.60059 1.61865,0 2.50489,1.11329 0.88623,1.11328 0.88623,3.16406 0,0.68848 -0.13916,1.4209 -0.13184,0.72509 -0.40284,1.50146 h -1.42822 q 0.35889,-0.61523 0.54199,-1.34765 0.18311,-0.73243 0.18311,-1.53077 0,-1.3916 -0.54932,-2.1167 -0.54931,-0.73242 -1.59668,-0.73242 -0.96679,0 -1.50879,0.68116 -0.54931,0.67382 -0.54931,1.88232 v 1.27441 h -1.21582 v -1.333 q 0,-1.09131 -0.43213,-1.66993 -0.43946,-0.57861 -1.25977,-0.57861 -0.84228,0 -1.28906,0.60059 -0.4541,0.59326 -0.4541,1.70654 0,0.60791 0.13183,1.30371 0.13184,0.6958 0.41016,1.53076 h -1.31836 q -0.23437,-0.84228 -0.35156,-1.57471 -0.11719,-0.73974 -0.11719,-1.3916 0,-1.68457 0.76904,-2.66601 0.76172,-0.98145 2.06543,-0.98145 0.90821,0 1.53809,0.52002 0.62256,0.52002 0.86426,1.47949 z m -324.81348,4.97364 q -0.22705,1.06201 -0.94482,1.65527 -0.71778,0.60059 -1.77246,0.60059 -1.61866,0 -2.50489,-1.11328 -0.88623,-1.11329 -0.88623,-3.16407 0,-0.68847 0.13916,-1.4209 0.13184,-0.72509 0.40283,-1.50146 h 1.42823 q -0.35889,0.61523 -0.54199,1.34766 -0.18311,0.73242 -0.18311,1.53076 0,1.3916 0.54932,2.1167 0.54931,0.73242 1.59668,0.73242 0.96679,0 1.50878,-0.68115 0.54932,-0.67383 0.54932,-1.88233 v -1.27441 h 1.21582 v 1.33301 q 0,1.0913 0.43213,1.66992 0.43945,0.57861 1.25977,0.57861 0.84228,0 1.28906,-0.60059 0.4541,-0.59326 0.4541,-1.70654 0,-0.60791 -0.13184,-1.30371 -0.13183,-0.6958 -0.41015,-1.53076 h 1.31836 q 0.23437,0.84228 0.35156,1.57471 0.11719,0.73974 0.11719,1.3916 0,1.68457 -0.76905,2.66601 -0.76171,0.98145 -2.06543,0.98145 -0.9082,0 -1.53808,-0.52002 -0.62256,-0.52002 -0.86426,-1.47949 z M 671.85828,121.21533 v -5.16357 h 1.24511 v 6.94336 h -1.24511 q -0.87159,-0.84229 -2.33643,-2.29248 -1.47217,-1.45752 -1.89697,-1.83106 -0.79834,-0.71045 -1.34766,-0.98877 -0.55664,-0.28564 -1.09131,-0.28564 -0.87158,0 -1.4209,0.61523 -0.54931,0.60791 -0.54931,1.58936 0,0.6958 0.2417,1.47217 0.2417,0.76904 0.73242,1.64795 h -1.49414 q -0.35889,-0.89356 -0.54199,-1.66993 -0.18311,-0.77636 -0.18311,-1.4209 0,-1.69921 0.84961,-2.70996 0.84961,-1.01074 2.27051,-1.01074 0.67383,0 1.28174,0.25635 0.60058,0.24902 1.42089,0.91553 0.21241,0.1831 1.23047,1.16455 1.01075,0.98144 2.83448,2.76855 z m -293.81299,44.6001 h -5.16358 v -1.24512 h 6.94336 v 1.24512 q -0.84228,0.87158 -2.29248,2.33643 -1.45752,1.47216 -1.83105,1.89697 -0.71045,0.79834 -0.98877,1.34765 -0.28565,0.55664 -0.28565,1.09131 0,0.87158 0.61524,1.4209 0.60791,0.54932 1.58935,0.54932 0.6958,0 1.47217,-0.2417 0.76904,-0.2417 1.64795,-0.73242 v 1.49414 q -0.89355,0.35888 -1.66992,0.54199 -0.77637,0.1831 -1.4209,0.1831 -1.69922,0 -2.70996,-0.8496 -1.01074,-0.84961 -1.01074,-2.27051 0,-0.67383 0.25635,-1.28174 0.24902,-0.60059 0.91552,-1.4209 0.18311,-0.2124 1.16455,-1.23047 0.98145,-1.01074 2.76856,-2.83447 z M 633.54773,80.916992 h -2.41699 v 8.342285 l 2.62939,-0.527343 v 1.347656 l -2.61474,0.527344 h -1.4795 v -9.689942 h -2.41699 v -1.245117 h 6.29883 z M 463.74695,165.81543 h -2.41699 v 8.34228 l 2.62939,-0.52734 v 1.34766 l -2.61475,0.52734 h -1.47949 v -9.68994 h -2.41699 v -1.24512 h 6.29883 z m 137.41504,-44.20752 q 0,-1.14258 -1.12793,-1.72119 -1.12061,-0.57129 -3.37647,-0.57129 -2.24853,0 -3.37646,0.57129 -1.12061,0.57861 -1.12061,1.72119 0,1.1499 1.12061,1.72119 1.12793,0.57861 3.37646,0.57861 2.25586,0 3.37647,-0.57861 1.12793,-0.57129 1.12793,-1.72119 z m 1.17187,0 q 0,1.83838 -1.45752,2.80518 -1.45019,0.97412 -4.21875,0.97412 -2.76123,0 -4.21875,-0.97412 -1.45019,-0.9668 -1.45019,-2.80518 0,-1.83838 1.45019,-2.8125 1.45752,-0.9668 4.21875,-0.9668 2.76856,0 4.21875,0.9668 1.45752,0.97412 1.45752,2.8125 z m -56.06885,52.92334 q 1.14258,0 1.7212,-1.12793 0.57129,-1.12061 0.57129,-3.37646 0,-2.24854 -0.57129,-3.37647 -0.57862,-1.1206 -1.7212,-1.1206 -1.1499,0 -1.72119,1.1206 -0.57861,1.12793 -0.57861,3.37647 0,2.25585 0.57861,3.37646 0.57129,1.12793 1.72119,1.12793 z m 0,1.17187 q -1.83837,0 -2.80517,-1.45751 -0.97412,-1.4502 -0.97412,-4.21875 0,-2.76124 0.97412,-4.21875 0.9668,-1.4502 2.80517,-1.4502 1.83838,0 2.8125,1.4502 0.9668,1.45751 0.9668,4.21875 0,2.76855 -0.9668,4.21875 -0.97412,1.45751 -2.8125,1.45751 z" />
    <path
       id="path24898"
       style="fill:none;stroke:#ff0000;stroke-width:1;stroke-linecap:butt;stroke-linejoin:miter;stroke-miterlimit:10;stroke-dasharray:none;stroke-opacity:1"
       d="m 674.60304,491.352 h -84.902 M 97.279037,338.531 l 19.106003,-15 h 46.695 l 19.101,15 m -84.902003,152.821 -15,-34.387 v -84.051 l 15,-34.383 M 589.70104,491.352 h 152.82 m -560.34,-152.821 v 152.821 m 0,0 34.383,-15 h 84.051 l 34.383,15 m -237.719003,73.578 -15,-16.555 v -40.469 l 15,-16.554 m 645.242003,0 v 73.578 m -560.34,0 -19.101,15 h -46.695 l -19.106003,-15 m 645.242003,0 v 84.902 m 0,0 h -237.718 m -84.903,-84.902 -53.484,15 h -130.75 l -53.485,-15 m 322.622,84.902 V 564.93 m 0,0 -19.106,15 h -46.691 l -19.106,-15 m 254.703,-401.86 v 328.282 m -339.605,0 -15,-73.864 V 236.934 l 15,-73.864 m 339.605,-84.898 v 84.898 m -339.605,0 19.105,-15 h 46.696 l 19.101,15 m 169.801,-84.898 h 84.902 m -254.703,84.898 19.106,-15 h 46.691 l 19.106,15 m 84.898,0 V 78.172 m -84.898,84.898 19.101,-15 h 46.695 l 19.102,15" />
  </g>
</svg>
