<?xml version="1.0" encoding="UTF-8" standalone="no"?>
<!-- Created with Inkscape (http://www.inkscape.org/) -->

<svg
   version="1.1"
   id="svg25896"
   width="1132"
   height="1132"
   viewBox="0 0 1132 1132"
   sodipodi:docname="M.svg"
   inkscape:version="1.2.2 (732a01da63, 2022-12-09, custom)"
   xmlns:inkscape="http://www.inkscape.org/namespaces/inkscape"
   xmlns:sodipodi="http://sodipodi.sourceforge.net/DTD/sodipodi-0.dtd"
   xmlns="http://www.w3.org/2000/svg"
   xmlns:svg="http://www.w3.org/2000/svg">
  <defs
     id="defs25900" />
  <sodipodi:namedview
     id="namedview25898"
     pagecolor="#ffffff"
     bordercolor="#666666"
     borderopacity="1.0"
     inkscape:showpageshadow="2"
     inkscape:pageopacity="0.0"
     inkscape:pagecheckerboard="0"
     inkscape:deskcolor="#d1d1d1"
     showgrid="false"
     showguides="true"
     inkscape:zoom="0.65989399"
     inkscape:cx="1125.9384"
     inkscape:cy="455.37617"
     inkscape:window-width="1920"
     inkscape:window-height="1009"
     inkscape:window-x="0"
     inkscape:window-y="0"
     inkscape:window-maximized="1"
     inkscape:current-layer="g26158">
    <inkscape:page
       x="0"
       y="0"
       id="page25902"
       width="1132"
       height="1132" />
    <inkscape:page
       x="1152"
       y="0"
       id="page26156"
       width="1132"
       height="1132" />
  </sodipodi:namedview>
  <g
     id="g25904"
     inkscape:groupmode="layer"
     inkscape:label="Page 1"
     transform="matrix(1.3333333,0,0,1.3333333,0,2.83e-5)">
    <g
       id="g26915">
      <path
         id="path26904"
         style="font-size:15px;font-family:'DejaVu Sans';-inkscape-font-specification:DejaVuSans;fill:#0000ff"
         d="m 392.07852,581.18647 q 7.7e-4,-1.14258 -1.12678,-1.72195 -1.12022,-0.57204 -3.37608,-0.57356 -2.24853,-0.002 -3.37684,0.56902 -1.121,0.57786 -1.12177,1.72044 -7.7e-4,1.1499 1.11945,1.72194 1.12754,0.57938 3.37607,0.58089 2.25586,0.002 3.37686,-0.57635 1.12831,-0.57053 1.12909,-1.72043 z m 1.17187,7.9e-4 q -10e-4,1.83838 -1.45941,2.8042 -1.45084,0.97314 -4.2194,0.97128 -2.76123,-0.002 -4.2181,-0.97696 -1.44954,-0.96777 -1.4483,-2.80615 0.001,-1.83838 1.45208,-2.81152 1.45817,-0.96582 4.2194,-0.96397 2.76856,0.002 4.2181,0.96964 1.45686,0.9751 1.45563,2.81348 z m -56.88544,-57.76707 q -1.14258,-7.7e-4 -1.72196,1.12677 -0.57204,1.12022 -0.57356,3.37608 -0.002,2.24854 0.56902,3.37685 0.57787,1.12099 1.72045,1.12176 1.1499,7.7e-4 1.72194,-1.11945 0.57937,-1.12754 0.58088,-3.37608 0.002,-2.25586 -0.57634,-3.37684 -0.57053,-1.12832 -1.72043,-1.12909 z m 7.9e-4,-1.17188 q 1.83837,0.001 2.80419,1.4594 0.97314,1.45086 0.97128,4.21941 -0.002,2.76123 -0.97695,4.21809 -0.96778,1.44955 -2.80615,1.44832 -1.83838,-10e-4 -2.81152,-1.45209 -0.96582,-1.45817 -0.96397,-4.2194 0.002,-2.76855 0.96964,-4.2181 0.9751,-1.45687 2.81348,-1.45563 z" />
      <path
         id="path26138"
         style="fill:none;stroke:#00ff00;stroke-width:1;stroke-linecap:butt;stroke-linejoin:miter;stroke-miterlimit:10;stroke-dasharray:8, 2, 2, 2;stroke-dashoffset:0;stroke-opacity:1"
         d="m 481.78888,297.28769 84.90012,-0.11155 m 30.64082,0.5132 84.89988,0.19697" />
      <path
         id="path26849"
         style="font-size:15px;font-family:'DejaVu Sans';-inkscape-font-specification:DejaVuSans"
         d="m 517.12922,144.24388 3.7278,-5.84223 -3.73535,0.005 z m 0.38985,1.28856 -1.86035,0.002 -0.009,-7.12646 -1.56006,0.002 -0.002,-1.23047 1.56006,-0.002 -0.003,-2.57812 1.47217,-0.002 0.003,2.57813 4.93651,-0.006 0.002,1.42822 z m 12.94784,-9.7067 -2.41699,0.003 0.0108,8.34228 2.6287,-0.53074 0.002,1.34765 -2.61406,0.53073 -1.4795,0.002 -0.0125,-9.68993 -2.41698,0.003 -0.002,-1.24512 6.29883,-0.008 z m -46.0342,83.56127 0.007,5.16357 -1.24512,0.002 -0.009,-6.94336 1.24512,-0.002 q 0.87267,0.84115 2.33938,2.28945 1.47406,1.45562 1.89935,1.8286 0.79926,0.70941 1.34893,0.98702 0.55701,0.28493 1.09168,0.28424 0.87158,-0.001 1.4201,-0.61708 0.54853,-0.60862 0.54726,-1.59006 -9e-4,-0.6958 -0.2436,-1.47185 -0.2427,-0.76873 -0.73456,-1.647 l 1.49413,-0.002 q 0.36005,0.89309 0.54417,1.66922 0.1841,0.77613 0.18493,1.42066 0.002,1.69922 -0.8461,2.71106 -0.8483,1.01184 -2.26919,1.01368 -0.67383,8.7e-4 -1.28207,-0.25468 -0.60091,-0.24826 -1.42208,-0.91369 -0.21264,-0.18284 -1.23198,-1.16296 -1.01201,-0.98014 -2.83805,-2.76489 z m -0.0123,-9.53998 0.007,5.16356 -1.24512,0.002 -0.009,-6.94335 1.24512,-0.002 q 0.87267,0.84116 2.33939,2.28945 1.47405,1.45562 1.89935,1.82861 0.79925,0.70941 1.34892,0.98702 0.55701,0.28492 1.09168,0.28423 0.87158,-0.001 1.4201,-0.61707 0.54854,-0.60862 0.54727,-1.59007 -9e-4,-0.6958 -0.24361,-1.47184 -0.24269,-0.76874 -0.73456,-1.64701 l 1.49414,-0.002 q 0.36005,0.89309 0.54416,1.66922 0.1841,0.77613 0.18494,1.42066 0.002,1.69922 -0.8461,2.71106 -0.8483,1.01184 -2.26919,1.01368 -0.67383,8.7e-4 -1.28207,-0.2547 -0.60092,-0.24824 -1.42209,-0.91369 -0.21263,-0.18282 -1.23197,-1.16295 -1.01201,-0.98013 -2.83805,-2.76488 z m 74.75628,-2.23933 q 0.22568,-1.06232 0.94269,-1.6565 0.71699,-0.60151 1.77168,-0.60288 1.61865,-0.002 2.50632,1.11004 0.88767,1.11213 0.89032,3.16291 8.9e-4,0.68848 -0.13732,1.42108 -0.1309,0.72527 -0.40089,1.50198 l -1.42822,0.002 q 0.35809,-0.6157 0.54025,-1.34835 0.18215,-0.73266 0.18112,-1.531 -0.002,-1.39161 -0.55205,-2.11599 -0.55027,-0.73171 -1.59763,-0.73036 -0.96679,0.001 -1.5079,0.68311 -0.54845,0.67453 -0.54689,1.88303 l 0.002,1.27441 -1.21582,0.002 -0.002,-1.333 q -10e-4,-1.09131 -0.43429,-1.66936 -0.4402,-0.57805 -1.26051,-0.57699 -0.84229,0.001 -1.28829,0.60226 -0.45333,0.59384 -0.45189,1.70712 7.8e-4,0.60791 0.13352,1.30354 0.13273,0.69563 0.41213,1.53023 l -1.31834,0.002 q -0.23547,-0.84197 -0.35361,-1.57424 -0.11814,-0.7396 -0.11898,-1.39146 -0.002,-1.68457 0.76559,-2.667 0.76045,-0.98244 2.06416,-0.98412 0.90819,-10e-4 1.53875,0.51803 0.62323,0.51921 0.86617,1.47838 z m 4.66869,13.76003 -0.003,-2.41699 -8.34227,0.0108 0.53074,2.62872 -1.34766,0.002 -0.53072,-2.61406 -0.002,-1.47949 9.68993,-0.0125 -0.003,-2.41699 1.24512,-0.002 0.008,6.29882 z m -79.19784,164.14829 0.003,2.41699 8.34228,-0.0108 -0.53074,-2.6287 1.34765,-0.002 0.53073,2.61407 0.002,1.47949 -9.68994,0.0125 0.003,2.41698 -1.24511,0.002 -0.008,-6.29883 z m -0.011,-8.52193 0.007,5.16356 -1.24511,0.002 -0.009,-6.94334 1.24511,-0.002 q 0.87268,0.84115 2.33939,2.28945 1.47406,1.45562 1.89934,1.8286 0.79926,0.70941 1.34894,0.98702 0.55701,0.28492 1.09168,0.28423 0.87158,-10e-4 1.4201,-0.61707 0.54852,-0.60862 0.54725,-1.59007 -9e-4,-0.6958 -0.2436,-1.47184 -0.2427,-0.76874 -0.73455,-1.647 l 1.49413,-0.002 q 0.36005,0.89309 0.54416,1.66922 0.18411,0.77613 0.18494,1.42066 0.002,1.69922 -0.8461,2.71106 -0.8483,1.01184 -2.2692,1.01368 -0.67383,8.7e-4 -1.28207,-0.2547 -0.6009,-0.24824 -1.42207,-0.91368 -0.21265,-0.18283 -1.23198,-1.16295 -1.01202,-0.98014 -2.83806,-2.76489 z m 44.26842,87.75788 5.16356,-0.007 0.002,1.24512 -6.94335,0.009 -0.002,-1.24512 q 0.84116,-0.87267 2.28945,-2.33938 1.45562,-1.47406 1.82861,-1.89934 0.70941,-0.79926 0.98702,-1.34894 0.28492,-0.55701 0.28423,-1.09168 -0.001,-0.87158 -0.61707,-1.4201 -0.60862,-0.54852 -1.59007,-0.54725 -0.6958,9e-4 -1.47184,0.2436 -0.76874,0.24269 -1.647,0.73455 l -0.002,-1.49414 q 0.89309,-0.36004 1.66922,-0.54416 0.77613,-0.1841 1.42066,-0.18493 1.69922,-0.002 2.71106,0.8461 1.01184,0.8483 1.01368,2.2692 8.7e-4,0.67382 -0.2547,1.28206 -0.24824,0.60091 -0.91368,1.42208 -0.18283,0.21265 -1.16296,1.23198 -0.98013,1.01201 -2.76488,2.83805 z m -10.5581,0.0137 2.41699,-0.003 -0.0108,-8.34227 -2.62872,0.53074 -0.002,-1.34765 2.61407,-0.53073 1.47948,-0.002 0.0125,9.68993 2.41699,-0.003 0.002,1.24512 -6.29882,0.008 z m 45.70307,-85.82206 -0.003,-2.41699 -8.34227,0.0108 0.53074,2.62872 -1.34766,0.002 -0.53072,-2.61406 -0.002,-1.47949 9.68994,-0.0125 -0.003,-2.41699 1.24512,-0.002 0.008,6.29882 z m 0.0124,9.54001 -0.003,-2.417 -8.34228,0.0108 0.53075,2.62872 -1.34766,0.002 -0.53073,-2.61406 -0.002,-1.47949 9.68993,-0.0125 -0.003,-2.41699 1.24512,-0.002 0.008,6.29883 z M 256.55474,241.45425 q 0.39856,-1.07082 -0.4567,-2.00653 -0.85094,-0.9263 -2.96511,-1.71318 -2.1073,-0.78433 -3.36367,-0.64237 -1.25205,0.15138 -1.6506,1.22219 -0.40111,1.07768 0.44984,2.00397 0.85525,0.93572 2.96255,1.72005 2.11417,0.78688 3.36623,0.63551 1.25636,-0.14197 1.65746,-1.21964 z m 1.09827,0.40877 q -0.64126,1.72291 -2.34447,2.12057 -1.6989,0.40708 -4.29356,-0.55865 -2.5878,-0.96317 -3.61398,-2.38452 -1.02187,-1.41192 -0.38061,-3.13483 0.64126,-1.72291 2.34016,-2.12999 1.70321,-0.39767 4.29101,0.5655 2.59466,0.96573 3.61653,2.37766 1.02618,1.42135 0.38492,3.14426 z m -5.27976,-14.16077 -1.80116,4.83924 -1.16691,-0.43432 2.42198,-6.50724 1.16691,0.43432 q 0.52303,1.09341 1.39001,2.96347 0.87129,1.8795 1.13912,2.37776 0.50038,0.9443 0.9181,1.39675 0.42204,0.46187 0.92313,0.64837 0.81684,0.30402 1.54626,-0.081 0.72687,-0.37811 1.06922,-1.29792 0.2427,-0.6521 0.287,-1.46401 0.0417,-0.80505 -0.11158,-1.79993 l 1.40029,0.52119 q 0.0247,0.96262 -0.0746,1.7541 -0.0992,0.79146 -0.32403,1.39551 -0.59272,1.59249 -1.74153,2.2434 -1.14882,0.65089 -2.48046,0.15526 -0.63151,-0.23505 -1.11181,-0.68735 -0.47601,-0.44287 -1.0123,-1.35366 -0.13519,-0.24569 -0.74697,-1.52062 -0.60491,-1.27236 -1.69071,-3.58337 z m -83.65665,2.11633 -1.2516,0.49965 q 0.0385,-0.61472 -0.0441,-1.19689 -0.0826,-0.58217 -0.28623,-1.09233 -0.54311,-1.36045 -1.73974,-1.7108 -1.20614,-0.35444 -3.11068,0.28759 0.74249,0.16098 1.29707,0.64147 0.55459,0.48049 0.84786,1.21512 0.60828,1.5237 0.0457,2.78139 -0.57208,1.2536 -2.1706,1.89175 -1.56451,0.62457 -2.87933,0.0769 -1.31482,-0.54764 -1.92853,-2.08494 -0.70332,-1.76178 0.28101,-3.22727 0.97481,-1.46958 3.54604,-2.49604 2.40119,-0.95858 4.29266,-0.38879 1.88196,0.56572 2.65045,2.49074 0.20638,0.51697 0.31616,1.08827 0.10978,0.57131 0.13381,1.22416 z m -5.39743,-1.01556 q -0.36932,-0.92511 -1.21645,-1.20993 -0.84985,-0.29164 -1.95181,0.14828 -1.09515,0.4372 -1.51052,1.23392 -0.42488,0.79263 -0.0556,1.71774 0.36931,0.92509 1.22597,1.21401 0.84713,0.28483 1.94228,-0.15237 1.10196,-0.43991 1.52004,-1.22983 0.41537,-0.79672 0.0461,-1.72182 z m 7.91023,10.05584 -0.89612,-2.24473 -7.74772,3.09298 1.46463,2.24647 -1.25161,0.49966 -1.4592,-2.23288 -0.54854,-1.37404 8.99933,-3.59264 -0.89612,-2.24473 1.15637,-0.46164 2.33536,5.84991 z M 77.661904,139.53892 q 1.054688,7.1e-4 1.662977,-0.56285 0.600965,-0.56355 0.60163,-1.55232 6.65e-4,-0.98877 -0.599542,-1.55314 -0.607531,-0.56438 -1.662218,-0.56509 -1.054687,-7e-4 -1.662976,0.56286 -0.608295,0.57087 -0.608955,1.55232 -6.65e-4,0.98877 0.606867,1.55314 0.600206,0.56437 1.662217,0.56508 z m 1.479069,0.63088 q 0.951991,0.23502 1.48622,0.88723 0.526906,0.65221 0.526276,1.58971 -8.82e-4,1.31103 -0.931569,2.07213 -0.938012,0.76109 -2.563989,0.75999 -1.633301,-0.001 -2.562963,-0.76344 -0.929664,-0.76235 -0.928783,-2.07338 6.31e-4,-0.9375 0.535737,-1.589 0.527782,-0.65149 1.472763,-0.88524 -1.069168,-0.24973 -1.661942,-0.97523 -0.600099,-0.72551 -0.599395,-1.77287 0.0011,-1.58936 0.975761,-2.4383 0.967368,-0.84896 2.776449,-0.84775 1.809082,0.001 2.782632,0.85149 0.966225,0.85025 0.965157,2.43961 -7.05e-4,1.04736 -0.601778,1.77205 -0.601073,0.7247 -1.670576,0.973 z m 0.540422,2.33679 q 5.71e-4,-0.84961 -0.526453,-1.32604 -0.534348,-0.47643 -1.493821,-0.47708 -0.952147,-6.4e-4 -1.487135,0.47507 -0.542312,0.47572 -0.542883,1.32533 -5.72e-4,0.84961 0.5411,1.32604 0.534348,0.47644 1.486496,0.47708 0.959473,6.5e-4 1.494461,-0.47507 0.527664,-0.47572 0.528235,-1.32533 z m 10.430885,-6.90705 -2.416993,-0.002 -0.0056,8.34228 2.629749,-0.52558 -9.06e-4,1.34765 -2.6151,0.5256 -1.479492,-0.001 0.0065,-9.68994 -2.416993,-0.002 8.37e-4,-1.24512 6.298828,0.004 z m -42.32194,444.22751 -0.0047,7.03125 -0.629883,-4.2e-4 -10.302505,-3.97666 0.001,-1.54541 9.687428,3.74187 0.0035,-5.25146 z m -9.68395,-8.91667 -0.0016,2.417 8.342283,0.006 -0.525575,-2.62975 1.347656,9e-4 0.525586,2.61511 -9.95e-4,1.47949 -9.689939,-0.007 -0.0016,2.41699 -1.245117,-8.4e-4 0.0042,-6.29882 z m 4.969165,-230.91254 q 6.7e-4,-0.99609 -0.680089,-1.58249 -0.680763,-0.57906 -1.867286,-0.57986 -1.179199,-7.9e-4 -1.868064,0.57735 -0.681546,0.58548 -0.682215,1.58157 -6.7e-4,0.99609 0.680093,1.57517 0.688082,0.5864 1.867282,0.5872 1.186522,8e-4 1.868068,-0.58469 0.681542,-0.57816 0.682211,-1.57425 z m 4.634255,2.94013 -1.347655,-9.1e-4 q 0.264046,-0.55646 0.40359,-1.12766 0.139539,-0.56386 0.139913,-1.1205 9.84e-4,-1.46485 -0.987262,-2.24188 -0.988253,-0.76971 -2.987691,-0.88092 0.636916,0.43256 0.973392,1.08464 0.343801,0.65209 0.343274,1.43578 -0.0011,1.64795 -1.005165,2.59942 -0.996739,0.9588 -2.71793,0.95765 -1.68457,-0.001 -2.701967,-0.99791 -1.017396,-0.99678 -1.016283,-2.65205 0.0013,-1.89697 1.452144,-2.89942 1.458193,-1.00244 4.219424,-1.00058 2.592772,0.002 4.130031,1.23324 1.544582,1.23151 1.543189,3.30426 -3.74e-4,0.55664 -0.110616,1.12054 -0.110247,0.57121 -0.330388,1.1863 z m -9.437775,-15.57419 -0.0016,2.41699 8.342283,0.006 -0.525576,-2.62975 1.347656,9.1e-4 0.525586,2.6151 -9.95e-4,1.47949 -9.689939,-0.007 -0.0016,2.41699 -1.245117,-8.4e-4 0.0042,-6.29883 z m 45.439777,279.80829 5.808104,0.004 -8.37e-4,1.24512 -4.453124,-0.003 -0.0018,2.68066 q 0.322339,-0.10965 0.644639,-0.1607 0.322305,-0.0584 0.64457,-0.0582 1.831055,10e-4 2.899716,1.00536 1.068661,1.00414 1.067509,2.71801 -0.0012,1.76514 -1.100479,2.74584 -1.099287,0.97338 -3.098798,0.97204 -0.688477,-4.6e-4 -1.406171,-0.11813 -0.710371,-0.11766 -1.471931,-0.35256 l 9.99e-4,-1.48681 q 0.658938,0.35933 1.361944,0.53558 0.703007,0.17626 1.486699,0.17679 1.26709,8.5e-4 2.007284,-0.66516 0.740193,-0.666 0.740961,-1.80858 7.68e-4,-1.14258 -0.738529,-1.80958 -0.739298,-0.66701 -2.006388,-0.66786 -0.593262,-4e-4 -1.186612,0.13104 -0.586026,0.13145 -1.201448,0.40936 z m -9.304821,9.68368 2.416992,0.002 0.0056,-8.34228 -2.629747,0.52557 9.05e-4,-1.34765 2.6151,-0.52559 1.479492,10e-4 -0.0065,9.68993 2.416991,0.002 -8.37e-4,1.24512 -6.298827,-0.004 z m 40.370129,-46.58822 5.8349,3.73927 0.003,-3.73535 z m -1.28932,0.38731 0.001,-1.86035 7.12647,0.005 0.001,-1.56006 1.23046,8.3e-4 -10e-4,1.56006 2.57813,0.002 -9.9e-4,1.47217 -2.57813,-0.002 -0.003,4.93652 -1.42822,-9.6e-4 z m 9.68123,12.9669 0.002,-2.41699 -8.34227,-0.006 0.52557,2.62974 -1.34766,-9.1e-4 -0.52558,-2.6151 9.9e-4,-1.47949 9.68994,0.007 0.002,-2.41699 1.24512,8.4e-4 -0.004,6.29883 z m -4.55859,-138.46858 q 0.22777,-1.06186 0.94594,-1.65464 0.71818,-0.6001 1.77286,-0.5994 1.61865,0.001 2.50414,1.11498 0.88548,1.11387 0.8841,3.16465 -4.6e-4,0.68847 -0.14011,1.42081 -0.13233,0.725 -0.40385,1.50119 l -1.42822,-9.6e-4 q 0.3593,-0.61499 0.5429,-1.34729 0.1836,-0.7323 0.18413,-1.53064 9.4e-4,-1.3916 -0.54789,-2.11707 -0.54882,-0.73279 -1.59619,-0.7335 -0.96679,-6.5e-4 -1.50925,0.68014 -0.54976,0.67346 -0.55057,1.88196 l -8.6e-4,1.27441 -1.21582,-8.2e-4 9e-4,-1.333 q 7.3e-4,-1.09131 -0.43101,-1.67022 -0.43907,-0.5789 -1.25938,-0.57945 -0.84228,-5.7e-4 -1.28946,0.59972 -0.4545,0.59295 -0.45525,1.70623 -4.1e-4,0.60791 0.13095,1.3038 0.13137,0.69589 0.40913,1.53104 l -1.31836,-8.9e-4 q -0.2338,-0.84244 -0.3505,-1.57494 -0.11669,-0.73982 -0.11625,-1.39168 0.001,-1.68457 0.77083,-2.66549 0.76238,-0.98094 2.06609,-0.98007 0.90821,6.1e-4 1.53774,0.52106 0.62221,0.52044 0.86326,1.48007 z m 4.64163,13.76921 0.002,-2.417 -8.34228,-0.006 0.52557,2.62976 -1.34765,-9.1e-4 -0.52559,-2.6151 9.9e-4,-1.47949 9.68995,0.007 0.002,-2.41699 1.24511,8.4e-4 -0.004,6.29883 z m 50.69037,122.74796 -0.003,5.16358 -1.24512,-8.4e-4 0.005,-6.94335 1.24512,8.3e-4 q 0.87101,0.84287 2.33489,2.29405 1.47118,1.45851 1.89574,1.83233 0.79786,0.71098 1.34698,0.98967 0.55645,0.28603 1.09112,0.28639 0.87158,5.8e-4 1.42131,-0.61429 0.54973,-0.60754 0.55039,-1.58898 4.7e-4,-0.6958 -0.24071,-1.47233 -0.24118,-0.7692 -0.73131,-1.64844 l 1.49414,0.001 q 0.35828,0.8938 0.54087,1.67029 0.18257,0.77649 0.18214,1.42102 -0.001,1.69922 -0.85142,2.70939 -0.85029,1.01016 -2.27119,1.00921 -0.67383,-4.5e-4 -1.28157,-0.2572 -0.60042,-0.24944 -1.42028,-0.91649 -0.21228,-0.18325 -1.22969,-1.16537 -1.01008,-0.98213 -2.83261,-2.77047 z m 0.007,-10.55804 -0.002,2.41699 8.34227,0.006 -0.52557,-2.62974 1.34766,9e-4 0.52558,2.6151 -9.9e-4,1.4795 -9.68994,-0.007 -0.002,2.41699 -1.24512,-8.3e-4 0.004,-6.29883 z m -21.76708,-115.90644 0.64119,2.33039 8.04338,-2.2131 -1.20599,-2.39528 1.29937,-0.35752 1.2021,2.38116 0.39249,1.42648 -9.34274,2.57061 0.64119,2.3304 -1.2005,0.33031 -1.671,-6.07314 z m -2.53083,-9.19816 0.64119,2.33039 8.04338,-2.2131 -1.20599,-2.39528 1.29937,-0.35752 1.2021,2.38116 0.3925,1.42649 -9.34275,2.57061 0.64119,2.33039 -1.2005,0.33031 -1.671,-6.07314 z m 64.4009,162.22849 q -1.14257,-7.7e-4 -1.72195,1.12677 -0.57204,1.12023 -0.57356,3.37609 -0.002,2.24853 0.56902,3.37684 0.57787,1.121 1.72044,1.12177 1.14991,7.7e-4 1.72195,-1.11945 0.57937,-1.12754 0.58088,-3.37607 0.002,-2.25586 -0.57634,-3.37686 -0.57053,-1.12832 -1.72044,-1.12909 z m 7.9e-4,-1.17187 q 1.83838,10e-4 2.8042,1.45941 0.97314,1.45084 0.97128,4.2194 -0.002,2.76123 -0.97695,4.21809 -0.96778,1.44954 -2.80616,1.44831 -1.83837,-0.001 -2.81152,-1.45208 -0.96581,-1.45817 -0.96396,-4.2194 0.002,-2.76856 0.96963,-4.2181 0.97511,-1.45686 2.81348,-1.45563 z m -12.45434,9.87932 2.41699,0.002 0.006,-8.34228 -2.62974,0.52557 9e-4,-1.34765 2.61511,-0.52559 1.47949,9.9e-4 -0.007,9.68994 2.41699,0.002 -8.3e-4,1.24512 -6.29883,-0.004 z m 30.74031,-37.76658 0.004,-5.80809 1.24511,8.3e-4 -0.003,4.45312 2.68067,0.002 q -0.10965,-0.32233 -0.1607,-0.64463 -0.0584,-0.32231 -0.0582,-0.64457 0.001,-1.83106 1.00537,-2.89972 1.00414,-1.06866 2.718,-1.06751 1.76514,10e-4 2.74585,1.10048 0.97338,1.09929 0.97203,3.0988 -4.6e-4,0.68848 -0.11813,1.40617 -0.11767,0.71037 -0.35255,1.47193 l -1.48682,-10e-4 q 0.35933,-0.65894 0.53559,-1.36195 0.17625,-0.703 0.17677,-1.48669 8.6e-4,-1.26709 -0.66515,-2.00729 -0.66601,-0.74019 -1.80859,-0.74096 -1.14257,-7.7e-4 -1.80958,0.73853 -0.66699,0.7393 -0.66784,2.00639 -4e-4,0.59326 0.13103,1.18661 0.13144,0.58603 0.40935,1.20145 z m 28.69749,-130.78102 q 0.50195,-0.96305 1.3519,-1.34349 0.85191,-0.3875 1.86843,-0.10634 1.56007,0.4315 2.11745,1.74075 0.55738,1.30925 0.0107,3.28581 -0.18354,0.66357 -0.51291,1.33239 -0.32037,0.6637 -0.78852,1.33973 l -1.37654,-0.38074 q 0.50991,-0.49729 0.88164,-1.15439 0.37173,-0.65712 0.58455,-1.42656 0.37098,-1.34125 0.0348,-2.18654 -0.33418,-0.85236 -1.34364,-1.13156 -0.93182,-0.25774 -1.63578,0.25429 -0.70907,0.50299 -1.03123,1.66776 l -0.33974,1.22829 -1.17182,-0.32411 0.35535,-1.28476 q 0.29093,-1.05182 0.0287,-1.7247 -0.2693,-0.67482 -1.05994,-0.89351 -0.8118,-0.22453 -1.40252,0.23522 -0.59582,0.45074 -0.8926,1.52373 -0.16206,0.58591 -0.22047,1.29168 -0.0584,0.70576 -0.0128,1.5847 l -1.27065,-0.35145 q -0.001,-0.87428 0.0809,-1.61144 0.0843,-0.74422 0.25803,-1.37249 0.44907,-1.62361 1.45193,-2.36452 0.99579,-0.74287 2.25232,-0.39532 0.87534,0.24211 1.34379,0.91123 0.46141,0.66716 0.43858,1.65634 z m 160.60626,174.35427 2.417,0.002 0.006,-8.34229 -2.62976,0.52557 9.1e-4,-1.34765 2.6151,-0.52559 1.47949,0.001 -0.007,9.68994 2.41699,0.002 -8.4e-4,1.24511 -6.29883,-0.004 z M 301.60173,453.77265 q 7.7e-4,-1.14257 -1.12677,-1.72195 -1.12023,-0.57204 -3.37609,-0.57355 -2.24853,-0.002 -3.37684,0.56902 -1.121,0.57786 -1.12177,1.72043 -7.7e-4,1.14991 1.11946,1.72196 1.12754,0.57936 3.37607,0.58087 2.25586,0.002 3.37686,-0.57634 1.12831,-0.57053 1.12908,-1.72044 z m 1.17187,7.9e-4 q -10e-4,1.83838 -1.4594,2.8042 -1.45085,0.97315 -4.21941,0.97128 -2.76123,-0.002 -4.21809,-0.97695 -1.44954,-0.96778 -1.44831,-2.80616 0.001,-1.83837 1.45208,-2.81152 1.45817,-0.96581 4.2194,-0.96395 2.76856,0.002 4.2181,0.96962 1.45687,0.97511 1.45563,2.81348 z m 161.01263,128.59526 -1.34765,-9.1e-4 q 0.26404,-0.55646 0.40359,-1.12766 0.13954,-0.57119 0.13991,-1.1205 9.9e-4,-1.46485 -0.97995,-2.23455 -0.98825,-0.77704 -2.995,-0.88824 0.62959,0.42523 0.96606,1.0773 0.33649,0.65209 0.33595,1.4431 -0.001,1.64063 -0.99051,2.59944 -0.99674,0.95148 -2.71793,0.95032 -1.68457,-10e-4 -2.70196,-0.99792 -1.0174,-0.99677 -1.01629,-2.65204 10e-4,-1.89697 1.45946,-2.89209 1.45087,-1.00245 4.21943,-1.00058 2.58545,0.002 4.13003,1.23324 1.53726,1.22419 1.53586,3.29693 -3.7e-4,0.55664 -0.11061,1.12786 -0.11025,0.57122 -0.33039,1.1863 z m -4.63425,-2.94745 q 6.7e-4,-0.9961 -0.68009,-1.57516 -0.68076,-0.5864 -1.86729,-0.5872 -1.1792,-7.9e-4 -1.86074,0.58469 -0.68886,0.57815 -0.68953,1.57425 -6.7e-4,0.99609 0.68741,1.58249 0.68076,0.57907 1.85996,0.57986 1.18653,8e-4 1.86807,-0.57736 0.68154,-0.58548 0.68221,-1.58157 z M 331.78368,139.7069 q 1.05469,7.1e-4 1.66298,-0.56284 0.60097,-0.56357 0.60163,-1.55234 6.7e-4,-0.98877 -0.59954,-1.55313 -0.60753,-0.56438 -1.66222,-0.56509 -1.05468,-7.1e-4 -1.66297,0.56285 -0.6083,0.57088 -0.60896,1.55232 -6.6e-4,0.98877 0.60687,1.55315 0.6002,0.56437 1.66221,0.56508 z m 1.47908,0.63087 q 0.95198,0.23502 1.48621,0.88723 0.52691,0.65222 0.52628,1.58972 -8.8e-4,1.31103 -0.93157,2.07212 -0.93801,0.76109 -2.56399,0.76 -1.6333,-0.001 -2.56296,-0.76344 -0.92967,-0.76235 -0.92879,-2.07338 6.3e-4,-0.9375 0.53574,-1.589 0.52778,-0.65149 1.47277,-0.88524 -1.06918,-0.24974 -1.66195,-0.97524 -0.6001,-0.7255 -0.5994,-1.77286 10e-4,-1.58935 0.97576,-2.43831 0.96737,-0.84896 2.77645,-0.84774 1.80908,0.001 2.78264,0.85148 0.96622,0.85026 0.96515,2.43961 -7e-4,1.04736 -0.60177,1.77206 -0.60108,0.72469 -1.67057,0.97299 z m 0.54042,2.3368 q 5.7e-4,-0.84961 -0.52646,-1.32604 -0.53434,-0.47644 -1.49382,-0.47708 -0.95215,-6.4e-4 -1.48713,0.47508 -0.54232,0.47571 -0.54289,1.32532 -5.8e-4,0.84961 0.5411,1.32604 0.53434,0.47644 1.48649,0.47708 0.95948,6.4e-4 1.49446,-0.47508 0.52767,-0.47571 0.52825,-1.32532 z m 91.83826,2.83827 -7.03125,-0.005 4.2e-4,-0.62988 3.97665,-10.30249 1.54541,0.001 -3.74186,9.68742 5.25146,0.004 z m 32.48494,187.34163 q -6.7e-4,0.99609 0.68008,1.58249 0.68076,0.57906 1.86728,0.57986 1.1792,7.9e-4 1.86807,-0.57735 0.68155,-0.58549 0.68221,-1.58158 6.7e-4,-0.9961 -0.68009,-1.57516 -0.68808,-0.58641 -1.86728,-0.5872 -1.18652,-8e-4 -1.86807,0.58469 -0.68153,0.57815 -0.6822,1.57425 z m -4.63426,-2.94013 1.34765,9.1e-4 q -0.26404,0.55646 -0.40359,1.12766 -0.13954,0.56386 -0.13991,1.1205 -9.9e-4,1.46484 0.98726,2.24188 0.98826,0.76971 2.98769,0.88092 -0.63692,-0.43256 -0.97339,-1.08465 -0.3438,-0.65208 -0.34327,-1.43577 10e-4,-1.64795 1.00516,-2.59942 0.99674,-0.9588 2.71793,-0.95765 1.68457,10e-4 2.70197,0.99791 1.0174,0.99677 1.01628,2.65205 -10e-4,1.89697 -1.45214,2.89942 -1.4582,1.00244 -4.21943,1.00058 -2.59277,-0.002 -4.13003,-1.23325 -1.54458,-1.2315 -1.54319,-3.30426 3.7e-4,-0.55664 0.11062,-1.12053 0.11025,-0.57122 0.33039,-1.1863 z m 184.00139,125.70582 5.8081,0.0136 -0.003,1.24512 -4.45312,-0.0104 -0.006,2.68065 q 0.32253,-0.1091 0.64492,-0.15962 0.3224,-0.0578 0.64467,-0.0571 1.83104,0.004 2.89802,1.01022 1.06698,1.00593 1.06296,2.71979 -0.004,1.76513 -1.10507,2.744 -1.10091,0.97154 -3.10042,0.96685 -0.68847,-0.002 -1.40597,-0.12049 -0.71017,-0.11885 -1.47134,-0.35501 l 0.003,-1.48682 q 0.65833,0.36044 1.36104,0.53787 0.70272,0.17743 1.4864,0.17926 1.26709,0.003 2.0084,-0.66179 0.7413,-0.66477 0.74398,-1.80734 0.003,-1.14257 -0.73549,-1.81082 -0.73819,-0.66823 -2.00527,-0.6712 -0.59326,-10e-4 -1.18683,0.12906 -0.58625,0.13045 -1.20214,0.40733 z m 33.39735,-74.30817 5.82863,3.74903 0.009,-3.73534 z m -1.28997,0.38515 0.004,-1.86034 7.12645,0.0167 0.004,-1.56006 1.23047,0.003 -0.004,1.56006 2.57811,0.006 -0.003,1.47217 -2.57812,-0.006 -0.0116,4.93651 -1.42823,-0.003 z m -65.07816,3.63211 q -0.22954,1.06147 -0.9487,1.65305 -0.71918,0.5989 -1.77386,0.59643 -1.61865,-0.004 -2.50227,-1.11915 -0.88361,-1.11536 -0.8788,-3.16613 0.002,-0.68848 0.14249,-1.42057 0.13353,-0.72479 0.40635,-1.50052 l 1.42822,0.003 q -0.36034,0.61439 -0.54515,1.34638 -0.18483,0.73199 -0.1867,1.53033 -0.003,1.3916 0.54435,2.11798 0.5476,0.73371 1.59496,0.73616 0.9668,0.002 1.51038,-0.67761 0.55089,-0.67253 0.55373,-1.88103 l 0.003,-1.27441 1.21583,0.003 -0.003,1.33301 q -0.003,1.09131 0.42821,1.67093 0.4381,0.57964 1.25841,0.58156 0.84227,0.002 1.29046,-0.59755 0.45549,-0.5922 0.4581,-1.70548 10e-4,-0.60791 -0.12877,-1.30402 -0.13021,-0.69611 -0.40657,-1.53172 l 1.31836,0.003 q 0.2324,0.84284 0.34786,1.57554 0.11546,0.74002 0.11393,1.39187 -0.004,1.68456 -0.77529,2.66421 -0.76402,0.97965 -2.06773,0.97659 -0.90819,-0.002 -1.53686,-0.52363 -0.62134,-0.52148 -0.86079,-1.48151 z m 75.15489,-168.92537 0.0121,-5.16356 1.24511,0.003 -0.0163,6.94335 -1.24512,-0.003 q -0.8696,-0.84433 -2.33105,-2.29795 -1.46874,-1.46097 -1.89267,-1.8355 -0.79667,-0.71232 -1.34533,-0.99193 -0.55597,-0.28695 -1.09063,-0.2882 -0.87159,-0.002 -1.42234,0.6119 -0.55074,0.60662 -0.55305,1.58806 -0.002,0.6958 0.23825,1.47274 0.2399,0.7696 0.72855,1.64966 l -1.49413,-0.004 q -0.35679,-0.8944 -0.53807,-1.67119 -0.18129,-0.7768 -0.17978,-1.42133 0.004,-1.69921 0.85596,-2.70796 0.85198,-1.00875 2.27288,-1.00542 0.67383,0.002 1.28113,0.25936 0.6,0.25042 1.41875,0.91886 0.21197,0.18359 1.22774,1.16743 1.00843,0.98381 2.82797,2.77519 z m -38.12289,-80.00984 -2.41698,-0.006 -0.0196,8.34226 2.63063,-0.52117 -0.003,1.34764 -2.61598,0.52122 -1.47949,-0.003 0.0227,-9.68992 -2.41698,-0.006 0.003,-1.24512 6.2988,0.0148 z m -32.57158,80.24067 q 0.003,-1.14258 -1.12389,-1.72384 -1.11926,-0.57391 -3.37511,-0.5792 -2.24853,-0.005 -3.3778,0.56336 -1.12196,0.57599 -1.12464,1.71857 -0.003,1.14989 1.11656,1.72381 1.12657,0.58125 3.37511,0.58653 2.25585,0.005 3.37781,-0.57069 1.12926,-0.56865 1.13196,-1.71854 z m 1.17188,0.003 q -0.004,1.83836 -1.4641,2.80174 -1.45248,0.97072 -4.22102,0.96422 -2.76122,-0.006 -4.21646,-0.98401 -1.44792,-0.9702 -1.44361,-2.80856 0.004,-1.83838 1.45679,-2.80909 1.45978,-0.96338 4.22101,-0.95691 2.76854,0.006 4.21647,0.97669 1.45523,0.97754 1.45092,2.81592 z" />
      <path
         id="path26152"
         style="fill:none;stroke:#ff0000;stroke-width:1;stroke-linecap:butt;stroke-linejoin:miter;stroke-miterlimit:10;stroke-dasharray:none;stroke-opacity:1"
         d="m 481.57587,133.14547 19.08313,-15.02538 46.69596,-0.059 19.12092,14.97686 m -84.687,164.24974 -15.04632,-36.91318 -0.11864,-90.27696 14.95195,-36.95208 m 84.90001,-0.10755 15.04643,36.90919 0.11864,90.27696 -14.95195,36.95207 m -84.67969,170.38086 -15.05107,-38.28873 -0.12066,-93.64906 14.9513,-38.33152 m 85.12044,170.16176 -19.08313,15.02538 -46.69596,0.059 -19.12092,-14.97686 m 84.67969,-170.38083 15.04697,38.29263 0.12466,93.64916 -14.95131,38.33152 m -355.92816,-136.41219 2.5285,-49.79445 40.54343,-108.92917 30.64468,-39.3288 m -152.82039,-0.10211 31.72893,39.02378 43.51022,108.98394 3.86463,50.14681 M 35.658153,132.81784 57.314719,117.8322 l 52.920721,0.0354 21.64194,15.01509 m -96.548224,486.69199 0.05887,-84.89781 m 3e-6,0 -14.942406,-90.43025 0.151104,-221.02011 15.061426,-90.40867 m 90.229507,486.81823 -90.558504,-0.0614 m 90.617394,-84.83541 -0.0589,84.89681 m 0.16802,-249.03964 -0.10912,164.14283 m 45.22488,84.92793 0.0539,-84.89773 m -3e-5,0 -45.16963,-164.17303 m 118.69114,249.12262 -73.57538,-0.0519 m 73.63419,-84.8499 -0.0588,84.9018 m 45.45069,-249.01249 -45.39189,164.11069 m 220.68068,90.70886 -84.9018,-0.0578 m -90.49612,-90.61992 0.10913,-164.14183 m 175.34713,164.25808 -0.0583,90.56147 m -180.78857,-492.54127 21.66058,-14.9847 52.92072,0.0354 21.63793,15.01416 m 0,4e-5 19.11322,-14.98878 46.69295,0.0326 19.09158,15.01106 m -85.23025,492.36367 0.0624,-90.55852 m -1e-5,0 -20.38643,14.98523 -49.8073,-0.032 -20.36478,-15.0146 m 175.72637,-401.74379 -0.27011,401.86003 m 216.28693,-66.8045 -19.13641,14.9538 -46.69581,-0.10783 -19.06789,-15.04693 m 85.29824,-170.07287 14.9091,38.34715 -0.21943,93.65128 -15.0878,38.2754 m -84.90011,-0.20096 -14.90893,-38.34415 0.21948,-93.65029 15.08781,-38.2754 m 85.28386,-163.94445 14.91432,36.97046 -0.21043,90.27694 -15.08787,36.89402 m -84.51191,-164.33863 19.13542,-14.95373 46.6968,0.10777 19.06367,15.04317 m -85.28386,163.94445 -14.9101,-36.9667 0.21044,-90.27694 15.08763,-36.89802" />
      <path
         id="path26154"
         style="fill:none;stroke:#800000;stroke-width:1;stroke-linecap:butt;stroke-linejoin:miter;stroke-miterlimit:10;stroke-dasharray:8, 8;stroke-dashoffset:0;stroke-opacity:1"
         d="m 481.57587,133.14547 84.90001,-0.10755 m -84.687,164.24977 -0.21301,-164.14222 m 84.90001,-0.10755 0.21312,164.13822 M 482.00931,467.557 481.78888,297.28769 m 85.12044,170.16176 -84.90001,0.10755 M 566.689,297.17614 566.90932,467.44945 M 210.98116,331.03726 284.69777,132.98484 m -152.82039,-0.10211 79.10378,198.15453 M 35.658153,132.81784 l 96.219227,0.0649 M 35.388029,534.67687 35.658153,132.81784 m 90.288397,401.92142 -90.558521,-0.0624 m 135.837271,0.0926 73.58032,0.0478 m 39.89215,-401.83242 96.21923,0.0649 m 0,0 84.89775,0.0549 m -85.16786,401.80513 -90.55851,-0.0614 m 175.45626,0.11627 -84.89775,-0.0549 m 0.27011,-401.86 -0.27011,401.86003 m 301.18468,-66.74963 -84.90011,-0.20096 m 85.29824,-170.07287 -0.39813,170.27383 m -84.90011,-0.20096 0.39836,-170.26984 m 85.28386,-163.94445 -0.38398,164.14142 m -84.51191,-164.33863 84.89589,0.19721 m -85.28386,163.94445 0.38797,-164.14166" />
    </g>
  </g>
  <g
     id="g26158"
     inkscape:groupmode="layer"
     inkscape:label="Page 2"
     transform="matrix(1.3333333,0,0,1.3333333,1152,2.83e-5)">
    <g
       id="g27210">
      <path
         id="path27055"
         style="font-size:15px;font-family:'DejaVu Sans';-inkscape-font-specification:DejaVuSans;fill:#0000ff"
         d="m 397.39377,166.53493 q 0,-1.14258 -1.12793,-1.72119 -1.12061,-0.57129 -3.37647,-0.57129 -2.24853,0 -3.37646,0.57129 -1.12061,0.57861 -1.12061,1.72119 0,1.1499 1.12061,1.72119 1.12793,0.57861 3.37646,0.57861 2.25586,0 3.37647,-0.57861 1.12793,-0.57129 1.12793,-1.72119 z m 1.17187,0 q 0,1.83838 -1.45752,2.80517 -1.45019,0.97412 -4.21875,0.97412 -2.76123,0 -4.21875,-0.97412 -1.45019,-0.96679 -1.45019,-2.80517 0,-1.83838 1.45019,-2.8125 1.45752,-0.9668 4.21875,-0.9668 2.76856,0 4.21875,0.9668 1.45752,0.97412 1.45752,2.8125 z m -61.73294,58.58349 q 1.14258,0 1.72119,-1.12793 0.57129,-1.1206 0.57129,-3.37646 0,-2.24854 -0.57129,-3.37647 -0.57861,-1.1206 -1.72119,-1.1206 -1.1499,0 -1.72119,1.1206 -0.57861,1.12793 -0.57861,3.37647 0,2.25586 0.57861,3.37646 0.57129,1.12793 1.72119,1.12793 z m 0,1.17188 q -1.83838,0 -2.80517,-1.45752 -0.97412,-1.4502 -0.97412,-4.21875 0,-2.76123 0.97412,-4.21875 0.96679,-1.4502 2.80517,-1.4502 1.83838,0 2.8125,1.4502 0.9668,1.45752 0.9668,4.21875 0,2.76855 -0.9668,4.21875 -0.97412,1.45752 -2.8125,1.45752 z" />
      <path
         d="m 556.22914,402.15286 h -84.898"
         style="fill:none;stroke:#00ff00;stroke-width:1;stroke-linecap:butt;stroke-linejoin:miter;stroke-miterlimit:10;stroke-dasharray:8, 2, 2, 2;stroke-dashoffset:0;stroke-opacity:1"
         id="path26324" />
      <path
         id="path27161"
         style="font-size:15px;font-family:'DejaVu Sans';-inkscape-font-specification:DejaVuSans"
         d="m 507.80865,198.38605 q 0.9961,0 1.58204,-0.68115 0.57861,-0.68116 0.57861,-1.86768 0,-1.1792 -0.57861,-1.86768 -0.58594,-0.68115 -1.58204,-0.68115 -0.99609,0 -1.5747,0.68115 -0.58594,0.68848 -0.58594,1.86768 0,1.18652 0.58594,1.86768 0.57861,0.68115 1.5747,0.68115 z m -2.93701,4.63623 v -1.34766 q 0.55664,0.26367 1.12793,0.40283 0.56397,0.13916 1.12061,0.13916 1.46484,0 2.24121,-0.98877 0.76904,-0.98877 0.87891,-2.98828 -0.43213,0.63721 -1.08399,0.97412 -0.65185,0.34424 -1.43555,0.34424 -1.64795,0 -2.60009,-1.00342 -0.95948,-0.99609 -0.95948,-2.71728 0,-1.68457 0.9961,-2.70264 0.99609,-1.01806 2.65136,-1.01806 1.89698,0 2.9004,1.45019 1.00341,1.45752 1.00341,4.21875 0,2.59277 -1.23047,4.13086 -1.23046,1.54541 -3.30322,1.54541 -0.55664,0 -1.1206,-0.10986 -0.57129,-0.10987 -1.18653,-0.32959 z m 14.54975,-9.44824 h -5.16358 v -1.24512 h 6.94336 v 1.24512 q -0.84228,0.87158 -2.29248,2.33642 -1.45752,1.47217 -1.83105,1.89697 -0.71045,0.79834 -0.98877,1.34766 -0.28565,0.55664 -0.28565,1.09131 0,0.87158 0.61524,1.4209 0.60791,0.54931 1.58935,0.54931 0.6958,0 1.47217,-0.2417 0.76904,-0.24169 1.64795,-0.73242 v 1.49414 q -0.89356,0.35889 -1.66992,0.542 -0.77637,0.1831 -1.4209,0.1831 -1.69922,0 -2.70996,-0.84961 -1.01074,-0.84961 -1.01074,-2.27051 0,-0.67382 0.25634,-1.28173 0.24903,-0.60059 0.91553,-1.4209 0.18311,-0.21241 1.16455,-1.23047 0.98145,-1.01074 2.76856,-2.83447 z m -35.65522,105.73773 v 5.8081 h -1.24511 v -4.45312 h -2.68067 q 0.10987,0.32226 0.16114,0.64453 0.0586,0.32226 0.0586,0.64453 0,1.83106 -1.00342,2.90039 -1.00342,1.06934 -2.71728,1.06934 -1.76514,0 -2.74659,-1.09864 -0.97412,-1.09863 -0.97412,-3.09814 0,-0.68848 0.11719,-1.40625 0.11719,-0.71045 0.35156,-1.47217 h 1.48682 q -0.35889,0.65918 -0.53467,1.36231 -0.17578,0.70312 -0.17578,1.48681 0,1.26709 0.6665,2.00684 0.66651,0.73974 1.80909,0.73974 1.14257,0 1.80908,-0.73974 0.6665,-0.73975 0.6665,-2.00684 0,-0.59326 -0.13183,-1.18652 -0.13184,-0.58594 -0.41016,-1.20117 z m -9.68994,-8.28021 v 5.16357 h -1.24511 v -6.94336 h 1.24511 q 0.87158,0.84229 2.33643,2.29248 1.47217,1.45752 1.89697,1.83106 0.79834,0.71044 1.34766,0.98876 0.55664,0.28565 1.09131,0.28565 0.87158,0 1.42089,-0.61524 0.54932,-0.60791 0.54932,-1.58935 0,-0.6958 -0.2417,-1.47217 -0.2417,-0.76904 -0.73242,-1.64795 h 1.49414 q 0.35889,0.89356 0.54199,1.66992 0.18311,0.77637 0.18311,1.4209 0,1.69922 -0.84961,2.70996 -0.84961,1.01075 -2.27051,1.01075 -0.67383,0 -1.28174,-0.25635 -0.60058,-0.24903 -1.4209,-0.91553 -0.2124,-0.1831 -1.23046,-1.16455 -1.01075,-0.98145 -2.83448,-2.76855 z m 70.69239,-0.35053 q 0,1.14258 1.12793,1.72119 1.1206,0.57129 3.37646,0.57129 2.24854,0 3.37647,-0.57129 1.1206,-0.57861 1.1206,-1.72119 0,-1.1499 -1.1206,-1.72119 -1.12793,-0.57861 -3.37647,-0.57861 -2.25586,0 -3.37646,0.57861 -1.12793,0.57129 -1.12793,1.72119 z m -1.17188,0 q 0,-1.83838 1.45752,-2.80518 1.4502,-0.97412 4.21875,-0.97412 2.76123,0 4.21875,0.97412 1.4502,0.9668 1.4502,2.80518 0,1.83838 -1.4502,2.8125 -1.45752,0.9668 -4.21875,0.9668 -2.76855,0 -4.21875,-0.9668 -1.45752,-0.97412 -1.45752,-2.8125 z m 9.8877,11.42963 v -5.16358 h 1.24511 v 6.94336 h -1.24511 q -0.87159,-0.84228 -2.33643,-2.29248 -1.47217,-1.45752 -1.89697,-1.83105 -0.79834,-0.71045 -1.34766,-0.98877 -0.55664,-0.28565 -1.09131,-0.28565 -0.87158,0 -1.4209,0.61524 -0.54931,0.60791 -0.54931,1.58935 0,0.6958 0.2417,1.47217 0.2417,0.76904 0.73242,1.64795 h -1.49414 q -0.35889,-0.89355 -0.54199,-1.66992 -0.18311,-0.77637 -0.18311,-1.4209 0,-1.69922 0.84961,-2.70996 0.84961,-1.01074 2.27051,-1.01074 0.67383,0 1.28174,0.25634 0.60058,0.24903 1.42089,0.91553 0.21241,0.18311 1.23047,1.16455 1.01075,0.98145 2.83448,2.76856 z m -71.00733,213.36078 -5.8374,-3.73536 v 3.73536 z m 1.28906,-0.38819 v 1.86035 h -7.12646 v 1.56006 h -1.23047 v -1.56006 h -2.57812 v -1.47216 h 2.57812 v -4.93653 h 1.42822 z m -9.68994,-11.94232 v 5.16357 h -1.24511 v -6.94335 h 1.24511 q 0.87158,0.84228 2.33643,2.29248 1.47217,1.45752 1.89697,1.83105 0.79834,0.71045 1.34766,0.98877 0.55664,0.28564 1.09131,0.28564 0.87158,0 1.42089,-0.61523 0.54932,-0.60791 0.54932,-1.58936 0,-0.6958 -0.2417,-1.47216 -0.2417,-0.76905 -0.73242,-1.64795 h 1.49414 q 0.35889,0.89355 0.54199,1.66992 0.18311,0.77637 0.18311,1.4209 0,1.69922 -0.84961,2.70996 -0.84961,1.01074 -2.27051,1.01074 -0.67383,0 -1.28174,-0.25635 -0.60058,-0.24902 -1.4209,-0.91552 -0.2124,-0.18311 -1.23046,-1.16456 -1.01075,-0.98144 -2.83448,-2.76855 z m 46.93598,104.97949 q 1.06201,0.22705 1.65527,0.94483 0.60059,0.71777 0.60059,1.77246 0,1.61865 -1.11328,2.50488 -1.11329,0.88623 -3.16407,0.88623 -0.68847,0 -1.4209,-0.13916 -0.72509,-0.13184 -1.50146,-0.40283 v -1.42822 q 0.61523,0.35888 1.34766,0.54199 0.73242,0.1831 1.53076,0.1831 1.3916,0 2.1167,-0.54931 0.73242,-0.54932 0.73242,-1.59668 0,-0.9668 -0.68115,-1.50879 -0.67383,-0.54932 -1.88233,-0.54932 h -1.27441 v -1.21582 h 1.33301 q 1.0913,0 1.66992,-0.43213 0.57861,-0.43945 0.57861,-1.25976 0,-0.84229 -0.60059,-1.28907 -0.59326,-0.4541 -1.70654,-0.4541 -0.60791,0 -1.30371,0.13184 -0.6958,0.13184 -1.53076,0.41016 v -1.31836 q 0.84228,-0.23438 1.57471,-0.35157 0.73974,-0.11718 1.3916,-0.11718 1.68457,0 2.66601,0.76904 0.98145,0.76172 0.98145,2.06543 0,0.9082 -0.52002,1.53808 -0.52002,0.62256 -1.47949,0.86426 z m -12.74805,4.65088 h 5.16357 v 1.24512 h -6.94336 v -1.24512 q 0.84229,-0.87158 2.29249,-2.33642 1.45751,-1.47217 1.83105,-1.89698 0.71045,-0.79834 0.98877,-1.34765 0.28564,-0.55664 0.28564,-1.09131 0,-0.87158 -0.61523,-1.4209 -0.60791,-0.54932 -1.58936,-0.54932 -0.6958,0 -1.47216,0.2417 -0.76905,0.2417 -1.64795,0.73242 v -1.49414 q 0.89355,-0.35888 1.66992,-0.54199 0.77637,-0.1831 1.4209,-0.1831 1.69922,0 2.70996,0.84961 1.01074,0.8496 1.01074,2.2705 0,0.67383 -0.25635,1.28174 -0.24902,0.60059 -0.91552,1.4209 -0.18311,0.2124 -1.16456,1.23047 -0.98144,1.01074 -2.76855,2.83447 z m 46.23828,-106.93109 h -1.34765 q 0.26367,-0.55664 0.40283,-1.12793 0.13916,-0.57129 0.13916,-1.12061 0,-1.46484 -0.98145,-2.23388 -0.98877,-0.77637 -2.9956,-0.88623 0.62988,0.4248 0.96679,1.07666 0.33692,0.65185 0.33692,1.44287 0,1.64062 -0.98877,2.6001 -0.9961,0.95214 -2.71729,0.95214 -1.68457,0 -2.70263,-0.99609 -1.01807,-0.99609 -1.01807,-2.65137 0,-1.89697 1.45752,-2.89306 1.45019,-1.00342 4.21875,-1.00342 2.58545,0 4.13086,1.23047 1.53808,1.22314 1.53808,3.2959 0,0.55664 -0.10986,1.12793 -0.10986,0.57129 -0.32959,1.18652 z m -4.63623,-2.94434 q 0,-0.99609 -0.68115,-1.5747 -0.68115,-0.58594 -1.86768,-0.58594 -1.1792,0 -1.86035,0.58594 -0.68848,0.57861 -0.68848,1.5747 0,0.9961 0.68848,1.58204 0.68115,0.57861 1.86035,0.57861 1.18653,0 1.86768,-0.57861 0.68115,-0.58594 0.68115,-1.58204 z m 3.61816,12.27192 v -2.417 h -8.34228 l 0.52734,2.6294 h -1.34765 l -0.52735,-2.61475 v -1.47949 h 9.68994 v -2.41699 h 1.24512 v 6.29883 z M 129.33272,165.23662 q 0,0.99609 0.68115,1.58203 0.68115,0.57861 1.86768,0.57861 1.1792,0 1.86767,-0.57861 0.68115,-0.58594 0.68115,-1.58203 0,-0.9961 -0.68115,-1.57471 -0.68847,-0.58594 -1.86767,-0.58594 -1.18653,0 -1.86768,0.58594 -0.68115,0.57861 -0.68115,1.57471 z m -4.63623,-2.93701 h 1.34765 q -0.26367,0.55664 -0.40283,1.12793 -0.13916,0.56396 -0.13916,1.1206 0,1.46485 0.98877,2.24121 0.98877,0.76905 2.98828,0.87891 -0.6372,-0.43213 -0.97412,-1.08399 -0.34424,-0.65185 -0.34424,-1.43554 0,-1.64795 1.00342,-2.6001 0.99609,-0.95947 2.71729,-0.95947 1.68457,0 2.70263,0.99609 1.01807,0.99609 1.01807,2.65137 0,1.89697 -1.4502,2.90039 -1.45752,1.00342 -4.21875,1.00342 -2.59277,0 -4.13086,-1.23047 -1.54541,-1.23047 -1.54541,-3.30322 0,-0.55665 0.10987,-1.12061 0.10986,-0.57129 0.32959,-1.18652 z m 9.44824,14.54976 v -5.16358 h 1.24512 v 6.94336 h -1.24512 q -0.87158,-0.84228 -2.33643,-2.29248 -1.47216,-1.45752 -1.89697,-1.83105 -0.79834,-0.71045 -1.34766,-0.98877 -0.55664,-0.28565 -1.0913,-0.28565 -0.87159,0 -1.4209,0.61524 -0.54932,0.60791 -0.54932,1.58935 0,0.6958 0.2417,1.47217 0.2417,0.76904 0.73242,1.64795 h -1.49414 q -0.35888,-0.89356 -0.54199,-1.66992 -0.18311,-0.77637 -0.18311,-1.4209 0,-1.69922 0.84961,-2.70996 0.84961,-1.01075 2.27051,-1.01075 0.67383,0 1.28174,0.25635 0.60059,0.24903 1.4209,0.91553 0.2124,0.18311 1.23047,1.16455 1.01074,0.98145 2.83447,2.76856 z m 26.89811,137.54583 -2.02232,-5.44466 1.16721,-0.43353 1.55053,4.17446 2.51292,-0.93338 q -0.2152,-0.26384 -0.37547,-0.54809 -0.16713,-0.2817 -0.27935,-0.5838 -0.63755,-1.71647 -0.0693,-3.06828 0.56829,-1.3518 2.17491,-1.94855 1.65469,-0.6146 2.95725,0.0736 1.2957,0.69071 1.99191,2.56509 0.23972,0.6454 0.37978,1.35906 0.13752,0.7068 0.18303,1.50246 l -1.39377,0.51769 q 0.10691,-0.74289 0.0269,-1.46322 -0.08,-0.72033 -0.35292,-1.45498 -0.44118,-1.1878 -1.32355,-1.64919 -0.88237,-0.46138 -1.95345,-0.0636 -1.07108,0.39783 -1.43831,1.32335 -0.36722,0.92553 0.074,2.11333 0.20656,0.55614 0.53672,1.06637 0.3276,0.50337 0.80272,0.98319 z m 11.96667,4.38814 -1.7979,-4.84046 1.1672,-0.43354 2.4176,6.50887 -1.1672,0.43354 q -1.11031,-0.4861 -2.98844,-1.33551 -1.88754,-0.85372 -2.41582,-1.05596 -0.99575,-0.38802 -1.6076,-0.45766 -0.62127,-0.074 -1.12248,0.11221 -0.81704,0.30347 -1.11777,1.07148 -0.30327,0.76113 0.0385,1.68116 0.24227,0.65226 0.73916,1.29589 0.49435,0.63676 1.26039,1.28981 l -1.40064,0.52024 q -0.64755,-0.71267 -1.08953,-1.37671 -0.44197,-0.66403 -0.66639,-1.26823 -0.59165,-1.59289 -0.14713,-2.8362 0.44452,-1.24332 1.7765,-1.73806 0.63166,-0.23462 1.29079,-0.20599 0.64971,0.0243 1.65076,0.3635 0.26287,0.0977 1.55895,0.66324 1.28923,0.56811 3.62109,1.60838 z m 84.96545,4.22613 -4.03266,-5.63611 -1.38724,3.46819 z m 1.34104,0.11832 -0.6909,1.7273 -6.61678,-2.64666 -0.57939,1.44849 -1.14246,-0.45698 0.57938,-1.44848 -2.39373,-0.95748 0.54674,-1.36688 2.39373,0.95748 1.83334,-4.58346 1.32609,0.53042 z m -4.56171,-14.68692 -1.91767,4.79428 -1.15607,-0.46242 2.57865,-6.44677 1.15607,0.46242 q 0.49644,1.10573 1.31793,2.99623 0.82558,1.90002 1.08128,2.4046 0.47739,0.95612 0.88406,1.41855 0.41074,0.47195 0.90717,0.67051 0.80924,0.32369 1.54777,-0.0435 0.73579,-0.36042 1.10028,-1.27167 0.25841,-0.64604 0.32232,-1.45664 0.0612,-0.8038 -0.068,-1.8021 l 1.38728,0.5549 q 0.001,0.96294 -0.11695,1.75178 -0.11832,0.78884 -0.35769,1.38727 -0.63106,1.57769 -1.79528,2.20061 -1.16422,0.62292 -2.4835,0.0952 -0.62563,-0.25024 -1.09486,-0.71402 -0.46515,-0.45426 -0.97926,-1.37775 -0.12921,-0.2489 -0.70997,-1.53823 -0.57396,-1.28663 -1.60355,-3.62323 z M 421.15015,124.83474 q -1.06202,-0.22705 -1.65528,-0.94482 -0.60058,-0.71778 -0.60058,-1.77247 0,-1.61865 1.11328,-2.50488 1.11328,-0.88623 3.16406,-0.88623 0.68848,0 1.4209,0.13916 0.7251,0.13184 1.50146,0.40283 v 1.42823 q -0.61523,-0.35889 -1.34765,-0.542 -0.73242,-0.1831 -1.53076,-0.1831 -1.39161,0 -2.1167,0.54931 -0.73242,0.54932 -0.73242,1.59668 0,0.9668 0.68115,1.50879 0.67383,0.54932 1.88232,0.54932 h 1.27442 v 1.21582 h -1.33301 q -1.09131,0 -1.66992,0.43213 -0.57862,0.43945 -0.57862,1.25976 0,0.84229 0.60059,1.28907 0.59326,0.4541 1.70654,0.4541 0.60791,0 1.30371,-0.13184 0.6958,-0.13183 1.53076,-0.41015 v 1.31836 q -0.84228,0.23437 -1.5747,0.35156 -0.73975,0.11719 -1.3916,0.11719 -1.68457,0 -2.66602,-0.76905 -0.98145,-0.76172 -0.98145,-2.06543 0,-0.9082 0.52002,-1.53808 0.52002,-0.62256 1.4795,-0.86426 z m 12.74798,-4.65088 h -5.16357 v -1.24512 h 6.94336 v 1.24512 q -0.84229,0.87158 -2.29248,2.33643 -1.45752,1.47216 -1.83106,1.89697 -0.71045,0.79834 -0.98877,1.34766 -0.28564,0.55664 -0.28564,1.0913 0,0.87159 0.61523,1.4209 0.60791,0.54932 1.58936,0.54932 0.6958,0 1.47217,-0.2417 0.76904,-0.2417 1.64795,-0.73242 v 1.49414 q -0.89356,0.35889 -1.66993,0.54199 -0.77636,0.18311 -1.4209,0.18311 -1.69921,0 -2.70996,-0.84961 -1.01074,-0.84961 -1.01074,-2.27051 0,-0.67383 0.25635,-1.28174 0.24902,-0.60059 0.91553,-1.4209 0.1831,-0.2124 1.16455,-1.23047 0.98144,-1.01074 2.76855,-2.83447 z m 30.24027,39.26321 q 0,1.05468 0.56396,1.66259 0.56397,0.60059 1.55274,0.60059 0.98877,0 1.55273,-0.60059 0.56397,-0.60791 0.56397,-1.66259 0,-1.05469 -0.56397,-1.6626 -0.57129,-0.60791 -1.55273,-0.60791 -0.98877,0 -1.55274,0.60791 -0.56396,0.60059 -0.56396,1.6626 z m -0.62989,1.47949 q -0.23437,0.95215 -0.88623,1.48682 -0.65185,0.52734 -1.58935,0.52734 -1.31104,0 -2.07276,-0.93018 -0.76171,-0.9375 -0.76171,-2.56347 0,-1.6333 0.76171,-2.56348 0.76172,-0.93018 2.07276,-0.93018 0.9375,0 1.58935,0.53467 0.65186,0.52735 0.88623,1.47217 0.24903,-1.06934 0.97413,-1.6626 0.72509,-0.60058 1.77246,-0.60058 1.58935,0 2.43896,0.97412 0.84961,0.9668 0.84961,2.77588 0,1.80908 -0.84961,2.7832 -0.84961,0.9668 -2.43896,0.9668 -1.04737,0 -1.77246,-0.60059 -0.7251,-0.60058 -0.97413,-1.66992 z m -2.33642,0.54199 q 0.84961,0 1.32568,-0.52734 0.47608,-0.53467 0.47608,-1.49414 0,-0.95215 -0.47608,-1.48682 -0.47607,-0.54199 -1.32568,-0.54199 -0.84961,0 -1.32568,0.54199 -0.47608,0.53467 -0.47608,1.48682 0,0.95947 0.47608,1.49414 0.47607,0.52734 1.32568,0.52734 z m 6.91406,10.42624 v -2.41699 h -8.34228 l 0.52734,2.62939 h -1.34766 l -0.52734,-2.61474 v -1.4795 h 9.68994 v -2.41699 h 1.24512 v 6.29883 z m -37.01175,431.187 h 7.03125 v 0.62988 l -3.96972,10.30518 h -1.54541 l 3.73535,-9.68995 h -5.25147 z m -8.91012,9.68994 h 2.41699 v -8.34229 l -2.6294,0.52735 v -1.34766 l 2.61475,-0.52734 h 1.47949 v 9.68994 h 2.41699 v 1.24512 h -6.29882 z M 463.27414,408.3421 q 0,0.9961 0.68115,1.58203 0.68115,0.57862 1.86768,0.57862 1.1792,0 1.86767,-0.57862 0.68116,-0.58593 0.68116,-1.58203 0,-0.99609 -0.68116,-1.5747 -0.68847,-0.58594 -1.86767,-0.58594 -1.18653,0 -1.86768,0.58594 -0.68115,0.57861 -0.68115,1.5747 z m -4.63623,-2.93701 h 1.34766 q -0.26368,0.55664 -0.40284,1.12793 -0.13916,0.56396 -0.13916,1.12061 0,1.46484 0.98877,2.24121 0.98877,0.76904 2.98828,0.8789 -0.6372,-0.43213 -0.97412,-1.08398 -0.34424,-0.65186 -0.34424,-1.43555 0,-1.64795 1.00342,-2.6001 0.9961,-0.95947 2.71729,-0.95947 1.68457,0 2.70263,0.99609 1.01807,0.9961 1.01807,2.65137 0,1.89697 -1.45019,2.90039 -1.45752,1.00342 -4.21875,1.00342 -2.59278,0 -4.13086,-1.23047 -1.54541,-1.23047 -1.54541,-3.30322 0,-0.55664 0.10986,-1.12061 0.10986,-0.57129 0.32959,-1.18652 z m 9.44824,15.56781 v -2.41699 h -8.34228 l 0.52734,2.62939 h -1.34766 l -0.52734,-2.61474 v -1.4795 h 9.68994 v -2.41699 h 1.24512 v 6.29883 z M 343.74774,603.08179 h 5.80811 v 1.24511 h -4.45313 v 2.68067 q 0.32227,-0.10986 0.64453,-0.16113 0.32227,-0.0586 0.64453,-0.0586 1.83106,0 2.9004,1.00342 1.06933,1.00342 1.06933,2.71728 0,1.76514 -1.09863,2.74659 -1.09863,0.97412 -3.09815,0.97412 -0.68847,0 -1.40625,-0.11719 -0.71045,-0.11719 -1.47216,-0.35156 v -1.48682 q 0.65918,0.35889 1.3623,0.53467 0.70313,0.17578 1.48682,0.17578 1.26709,0 2.00683,-0.6665 0.73975,-0.66651 0.73975,-1.80909 0,-1.14257 -0.73975,-1.80908 -0.73974,-0.6665 -2.00683,-0.6665 -0.59326,0 -1.18653,0.13183 -0.58593,0.13184 -1.20117,0.41016 z m -9.29831,9.68994 h 2.41699 v -8.34229 l -2.62939,0.52735 v -1.34766 l 2.61475,-0.52734 h 1.47949 v 9.68994 h 2.41699 v 1.24512 h -6.29883 z m -36.33398,-75.14899 v 5.16358 h -1.24512 v -6.94336 h 1.24512 q 0.87158,0.84228 2.33642,2.29248 1.47217,1.45752 1.89698,1.83105 0.79834,0.71045 1.34765,0.98877 0.55664,0.28565 1.09131,0.28565 0.87158,0 1.4209,-0.61524 0.54932,-0.60791 0.54932,-1.58935 0,-0.6958 -0.2417,-1.47217 -0.2417,-0.76905 -0.73242,-1.64795 h 1.49414 q 0.35888,0.89355 0.54199,1.66992 0.1831,0.77637 0.1831,1.4209 0,1.69922 -0.84961,2.70996 -0.84961,1.01074 -2.2705,1.01074 -0.67383,0 -1.28174,-0.25635 -0.60059,-0.24902 -1.4209,-0.91552 -0.2124,-0.18311 -1.23047,-1.16455 -1.01074,-0.98145 -2.83447,-2.76856 z m 0,-9.53998 v 5.16358 h -1.24512 v -6.94336 h 1.24512 q 0.87158,0.84228 2.33642,2.29248 1.47217,1.45752 1.89698,1.83105 0.79834,0.71045 1.34765,0.98877 0.55664,0.28565 1.09131,0.28565 0.87158,0 1.4209,-0.61524 0.54932,-0.60791 0.54932,-1.58935 0,-0.6958 -0.2417,-1.47217 -0.2417,-0.76904 -0.73242,-1.64795 h 1.49414 q 0.35888,0.89356 0.54199,1.66992 0.1831,0.77637 0.1831,1.4209 0,1.69922 -0.84961,2.70996 -0.84961,1.01074 -2.2705,1.01074 -0.67383,0 -1.28174,-0.25634 -0.60059,-0.24903 -1.4209,-0.91553 -0.2124,-0.18311 -1.23047,-1.16455 -1.01074,-0.98145 -2.83447,-2.76856 z m -27.20663,1.64831 0.64276,-2.32996 -8.04189,-2.2185 -0.19089,2.67495 -1.29913,-0.35839 0.187,-2.66084 0.39345,-1.42621 9.34101,2.57689 0.64276,-2.32996 1.20028,0.33112 -1.67508,6.07202 z m -2.26628,8.21504 1.37318,-4.97763 1.20027,0.33112 -1.84648,6.69333 -1.20027,-0.33111 q -0.6162,-1.04375 -1.64265,-2.83128 -1.03155,-1.79653 -1.34172,-2.26959 -0.58066,-0.89717 -1.03618,-1.31155 -0.46064,-0.42339 -0.97606,-0.56557 -0.84019,-0.23179 -1.53333,0.21521 -0.69121,0.43993 -0.95221,1.38604 -0.18503,0.67075 -0.1585,1.48343 0.0285,0.80563 0.2678,1.78338 l -1.44034,-0.39734 q -0.10834,-0.95682 -0.0784,-1.75392 0.0299,-0.79711 0.20135,-1.41843 0.45188,-1.63803 1.53969,-2.38644 1.0878,-0.7484 2.45754,-0.37054 0.64957,0.1792 1.16741,0.58798 0.51273,0.39977 1.12627,1.26042 0.15606,0.233 0.87646,1.44985 0.71335,1.21489 1.99615,3.42264 z m -49.2532,66.1098 q -1.14257,0 -1.72119,1.12793 -0.57129,1.1206 -0.57129,3.37646 0,2.24854 0.57129,3.37647 0.57862,1.1206 1.72119,1.1206 1.14991,0 1.72119,-1.1206 0.57862,-1.12793 0.57862,-3.37647 0,-2.25586 -0.57862,-3.37646 -0.57128,-1.12793 -1.72119,-1.12793 z m 0,-1.17188 q 1.83838,0 2.80518,1.45752 0.97412,1.4502 0.97412,4.21875 0,2.76123 -0.97412,4.21875 -0.9668,1.4502 -2.80518,1.4502 -1.83838,0 -2.8125,-1.4502 -0.96679,-1.45752 -0.96679,-4.21875 0,-2.76855 0.96679,-4.21875 0.97412,-1.45752 2.8125,-1.45752 z m -12.44772,9.8877 h 2.41699 v -8.34229 l -2.62939,0.52735 v -1.34766 l 2.61474,-0.52734 h 1.4795 v 9.68994 h 2.41699 v 1.24512 h -6.29883 z m -41.87836,-80.66387 -6.62056,-2.04848 0.99336,3.60085 z m 1.13942,-0.71701 0.49473,1.79336 -6.86985,1.89517 0.41487,1.50389 -1.18616,0.32722 -0.41487,-1.50388 -2.48529,0.68561 -0.3915,-1.41916 2.48529,-0.68561 -1.31279,-4.75876 1.37679,-0.37981 z m -37.71808,2.64992 v -5.16357 h 1.24512 v 6.94336 h -1.24512 q -0.87158,-0.84229 -2.33642,-2.29248 -1.47217,-1.45752 -1.89697,-1.83106 -0.79834,-0.71045 -1.34766,-0.98877 -0.55664,-0.28564 -1.09131,-0.28564 -0.87158,0 -1.4209,0.61523 -0.54931,0.60791 -0.54931,1.58936 0,0.6958 0.24169,1.47217 0.2417,0.76904 0.73243,1.64794 h -1.49414 q -0.35889,-0.89355 -0.542,-1.66992 -0.1831,-0.77636 -0.1831,-1.4209 0,-1.69921 0.84961,-2.70996 0.84961,-1.01074 2.27051,-1.01074 0.67382,0 1.28173,0.25635 0.60059,0.24902 1.4209,0.91553 0.2124,0.1831 1.23047,1.16455 1.01074,0.98144 2.83447,2.76855 z m -44.657734,79.74902 v -1.34765 q 0.556641,0.26367 1.12793,0.40283 0.571289,0.13916 1.120605,0.13916 1.464844,0 2.233887,-0.98144 0.776367,-0.98877 0.88623,-2.99561 -0.424804,0.62988 -1.07666,0.9668 -0.651855,0.33691 -1.442871,0.33691 -1.640625,0 -2.600097,-0.98877 -0.952149,-0.99609 -0.952149,-2.71728 0,-1.68457 0.996094,-2.70264 0.996094,-1.01807 2.651367,-1.01807 1.896973,0 2.893066,1.45752 1.003418,1.4502 1.003418,4.21875 0,2.58545 -1.230468,4.13086 -1.223145,1.53809 -3.295899,1.53809 -0.55664,0 -1.127929,-0.10987 -0.571289,-0.10986 -1.186524,-0.32959 z m 2.944336,-4.63623 q 0.996094,0 1.574707,-0.68115 0.585938,-0.68115 0.585938,-1.86767 0,-1.1792 -0.585938,-1.86036 -0.578613,-0.68847 -1.574707,-0.68847 -0.996094,0 -1.582031,0.68847 -0.578613,0.68116 -0.578613,1.86036 0,1.18652 0.578613,1.86767 0.585937,0.68115 1.582031,0.68115 z M 87.762421,135.4519 q 1.054687,0 1.662597,-0.56396 0.600586,-0.56397 0.600586,-1.55273 0,-0.98877 -0.600586,-1.55274 -0.60791,-0.56396 -1.662597,-0.56396 -1.054688,0 -1.662598,0.56396 -0.60791,0.57129 -0.60791,1.55274 0,0.98876 0.60791,1.55273 0.600586,0.56396 1.662598,0.56396 z m 1.479492,0.62989 q 0.952148,0.23437 1.486816,0.88623 0.527344,0.65185 0.527344,1.58935 0,1.31104 -0.930176,2.07276 -0.9375,0.76172 -2.563476,0.76172 -1.633301,0 -2.563477,-0.76172 -0.930176,-0.76172 -0.930176,-2.07276 0,-0.9375 0.534668,-1.58935 0.527344,-0.65186 1.472168,-0.88623 -1.069336,-0.24903 -1.662597,-0.97412 -0.600586,-0.7251 -0.600586,-1.77246 0,-1.58936 0.974121,-2.43897 0.966797,-0.84961 2.775879,-0.84961 1.809082,0 2.783203,0.84961 0.966797,0.84961 0.966797,2.43897 0,1.04736 -0.600586,1.77246 -0.600586,0.72509 -1.669922,0.97412 z m 0.541992,2.33642 q 0,-0.84961 -0.527344,-1.32568 -0.534668,-0.47607 -1.49414,-0.47607 -0.952149,0 -1.486817,0.47607 -0.541992,0.47607 -0.541992,1.32568 0,0.84961 0.541992,1.32569 0.534668,0.47607 1.486817,0.47607 0.959472,0 1.49414,-0.47607 0.527344,-0.47608 0.527344,-1.32569 z m -36.677742,30.5049 v 7.03125 H 52.47628 l -10.305176,-3.96973 v -1.54541 l 9.689942,3.73536 v -5.25147 z m -4.877926,246.83788 q 0,-0.9961 -0.681152,-1.58203 -0.681153,-0.57862 -1.867676,-0.57862 -1.179199,0 -1.867676,0.57862 -0.681152,0.58593 -0.681152,1.58203 0,0.99609 0.681152,1.5747 0.688477,0.58594 1.867676,0.58594 1.186523,0 1.867676,-0.58594 0.681152,-0.57861 0.681152,-1.5747 z m 4.636231,2.93701 h -1.347657 q 0.263672,-0.55664 0.402832,-1.12793 0.139161,-0.56397 0.139161,-1.12061 0,-1.46484 -0.98877,-2.24121 -0.98877,-0.76904 -2.988281,-0.8789 0.637207,0.43212 0.974121,1.08398 0.344238,0.65186 0.344238,1.43555 0,1.64795 -1.003418,2.60009 -0.996094,0.95948 -2.717285,0.95948 -1.68457,0 -2.702637,-0.9961 -1.018066,-0.99609 -1.018066,-2.65136 0,-1.89698 1.450195,-2.90039 1.45752,-1.00342 4.21875,-1.00342 2.592774,0 4.13086,1.23047 1.54541,1.23047 1.54541,3.30322 0,0.55664 -0.109864,1.1206 -0.109863,0.57129 -0.329589,1.18653 z" />
      <path
         id="path26336"
         style="fill:none;stroke:#ff0000;stroke-width:1;stroke-linecap:butt;stroke-linejoin:miter;stroke-miterlimit:10;stroke-dasharray:none;stroke-opacity:1"
         d="m 471.33114,190.82886 19.101,-15 h 46.696 l 19.101,15 m -84.898,211.324 v -211.324 m 84.898,0 v 211.324 m -84.898,213.364 v -213.364 m 84.898,213.364 -19.101,15 h -46.696 l -19.101,-15 m 84.898,-213.364 v 213.364 m -419.33903,-486.758 v 84.899 m 0,0 30.617,39.351 40.473,108.953 2.492,49.797 m 0,0 3.902,-50.144 43.582,-108.957 31.754,-39 m 96.223,-96.219 h 84.898 m -84.898,96.219 v -96.219 m -96.223,96.219 21.652,-15 h 52.918 l 21.653,15 m 84.898,-96.219 v 96.219 m 0,401.859 -19.101,15 h -46.696 l -19.101,-15 m 84.898,-401.859 v 401.859 m -84.898,0 -20.379,15 h -49.805 l -20.379,-15 m 0,0 v -164.141 m 0,0 -45.281,164.141 m 0,0 -16.555,15 h -40.468 l -16.555,-15 m 0,0 -45.281,-164.141 m 0,0 v 164.141 m 0,0 -20.375,15 h -49.809 l -20.375,-15 m 0,-486.758 h 96.219 m -96.219,84.899 v -84.899 m 0,486.758 -15,-90.418 v -221.023 l 15,-90.418" />
      <path
         id="path26338"
         style="fill:none;stroke:#800000;stroke-width:1;stroke-linecap:butt;stroke-linejoin:miter;stroke-miterlimit:10;stroke-dasharray:8, 8;stroke-dashoffset:0;stroke-opacity:1"
         d="m 471.33114,190.82886 h 84.898 m 0,424.688 h -84.898 m -334.44103,-401.859 73.582,198.101 m 0,0 79.238,-198.101 m 0,0 h 96.223 m 0,0 h 84.898 m -84.898,0 v 401.859 m 84.898,0 h -84.898 m 0,0 h -90.563 m -45.281,0 h -73.578 m -45.281,0 h -90.559 m 0,-401.859 h 96.219 m -96.219,401.859 v -401.859" />
    </g>
  </g>
</svg>
