<?xml version="1.0" encoding="UTF-8" standalone="no"?>
<!-- Created with Inkscape (http://www.inkscape.org/) -->

<svg
   version="1.1"
   id="svg1669"
   width="1132"
   height="1132"
   viewBox="0 0 1132 1132"
   sodipodi:docname="O.svg"
   inkscape:version="1.2.2 (732a01da63, 2022-12-09, custom)"
   xmlns:inkscape="http://www.inkscape.org/namespaces/inkscape"
   xmlns:sodipodi="http://sodipodi.sourceforge.net/DTD/sodipodi-0.dtd"
   xmlns="http://www.w3.org/2000/svg"
   xmlns:svg="http://www.w3.org/2000/svg">
  <defs
     id="defs1673" />
  <sodipodi:namedview
     id="namedview1671"
     pagecolor="#ffffff"
     bordercolor="#666666"
     borderopacity="1.0"
     inkscape:showpageshadow="2"
     inkscape:pageopacity="0.0"
     inkscape:pagecheckerboard="0"
     inkscape:deskcolor="#d1d1d1"
     showgrid="false"
     showguides="true"
     inkscape:zoom="0.329947"
     inkscape:cx="587.97323"
     inkscape:cy="750.12048"
     inkscape:window-width="1920"
     inkscape:window-height="1009"
     inkscape:window-x="0"
     inkscape:window-y="0"
     inkscape:window-maximized="1"
     inkscape:current-layer="g1677">
    <inkscape:page
       x="0"
       y="0"
       id="page1675"
       width="1132"
       height="1132" />
  </sodipodi:namedview>
  <g
     id="g1677"
     inkscape:groupmode="layer"
     inkscape:label="Page 1"
     transform="matrix(1.3333333,0,0,1.3333333,0,2.83e-5)">
    <path
       id="path3439"
       style="font-size:15px;font-family:'DejaVu Sans';-inkscape-font-specification:DejaVuSans;fill:#0000ff"
       d="m 603.93331,343.15077 q -7.9e-4,0.99609 0.67989,1.58258 0.68069,0.57915 1.86722,0.58009 1.1792,9.4e-4 1.86813,-0.57712 0.68163,-0.5854 0.68242,-1.58149 7.9e-4,-0.99609 -0.67991,-1.57525 -0.688,-0.58649 -1.8672,-0.58743 -1.18653,-9.4e-4 -1.86815,0.58446 -0.68161,0.57807 -0.6824,1.57416 z m -4.63389,-2.9407 1.34766,0.001 q -0.26412,0.55643 -0.40374,1.1276 -0.13961,0.56385 -0.14005,1.12049 -10e-4,1.46485 0.98698,2.242 0.98816,0.76984 2.98758,0.88129 -0.63685,-0.43264 -0.97325,-1.08476 -0.34372,-0.65213 -0.3431,-1.43582 0.001,-1.64795 1.00549,-2.5993 0.99686,-0.95868 2.71805,-0.95731 1.68457,10e-4 2.70184,0.99825 1.01728,0.99691 1.01596,2.65218 -0.002,1.89697 -1.4525,2.89923 -1.45832,1.00226 -4.21955,1.00006 -2.59278,-0.002 -4.12988,-1.23376 -1.54443,-1.2317 -1.54278,-3.30445 4.5e-4,-0.55664 0.11076,-1.12052 0.11031,-0.5712 0.33053,-1.18626 z m 9.43584,15.57536 0.002,-2.41699 -8.34228,-0.007 0.52524,2.62981 -1.34766,-10e-4 -0.52525,-2.61517 10e-4,-1.47949 9.68993,0.008 0.002,-2.41699 1.24512,9.9e-4 -0.005,6.29883 z m -340.62273,-0.41354 q 8e-4,-0.99609 -0.6799,-1.58257 -0.68069,-0.57915 -1.86721,-0.5801 -1.1792,-9.3e-4 -1.86814,0.57713 -0.68161,0.58539 -0.68241,1.58148 -7.9e-4,0.9961 0.6799,1.57526 0.68801,0.58648 1.86721,0.58742 1.18652,9.5e-4 1.86814,-0.58445 0.68162,-0.57807 0.68241,-1.57417 z m 4.63389,2.94071 -1.34766,-10e-4 q 0.26412,-0.55643 0.40373,-1.12761 0.13961,-0.56386 0.14005,-1.1205 10e-4,-1.46484 -0.98698,-2.24199 -0.98816,-0.76983 -2.98758,-0.88129 0.63686,0.43263 0.97326,1.08476 0.34372,0.65213 0.34309,1.43583 -0.001,1.64794 -1.00549,2.59929 -0.99685,0.95868 -2.71804,0.95731 -1.68457,-0.001 -2.70185,-0.99825 -1.01726,-0.9969 -1.01595,-2.65218 0.002,-1.89697 1.4525,-2.89923 1.45832,-1.00225 4.21955,-1.00005 2.59277,0.002 4.12988,1.23374 1.54443,1.23171 1.54278,3.30446 -4.4e-4,0.55664 -0.11075,1.12052 -0.11033,0.5712 -0.33054,1.18626 z m -9.43585,-15.57532 -0.002,2.41698 8.34228,0.007 -0.52524,-2.62982 1.34765,0.001 0.52527,2.61517 -0.001,1.47949 -9.68995,-0.008 -0.002,2.41699 -1.24511,-9.9e-4 0.005,-6.29882 z m -37.82045,3.26013 0.005,-5.80811 1.24512,9.9e-4 -0.004,4.45313 2.68067,0.002 q -0.10961,-0.32236 -0.16063,-0.64466 -0.0583,-0.32232 -0.0581,-0.64458 0.001,-1.83106 1.00573,-2.89959 1.00426,-1.06854 2.71813,-1.06717 1.76514,0.001 2.7457,1.10081 0.97325,1.09942 0.97165,3.09893 -5.4e-4,0.68847 -0.1183,1.40615 -0.11775,0.71036 -0.35274,1.47188 l -1.48681,-0.001 q 0.35942,-0.65888 0.53576,-1.36187 0.17634,-0.70298 0.17696,-1.48668 0.001,-1.26709 -0.66491,-2.00736 -0.66591,-0.74028 -1.80849,-0.74119 -1.14258,-9.1e-4 -1.80967,0.73831 -0.66709,0.7392 -0.6681,2.00629 -4.7e-4,0.59327 0.13089,1.18664 0.13137,0.58603 0.4092,1.2015 z m 9.68255,9.30599 0.002,-2.41699 -8.34229,-0.007 0.52525,2.62981 -1.34765,-0.001 -0.52527,-2.61517 0.001,-1.47949 9.68995,0.008 0.002,-2.41699 1.24511,9.9e-4 -0.005,6.29883 z m 411.38692,-2.7782 -0.005,5.80811 -1.24512,-9.9e-4 0.004,-4.45313 -2.68066,-0.002 q 0.1096,0.32236 0.16062,0.64467 0.0583,0.32231 0.0581,0.64458 -10e-4,1.83105 -1.00572,2.89959 -1.00428,1.06853 -2.71814,1.06716 -1.76514,-0.001 -2.74571,-1.10081 -0.97324,-1.09941 -0.97165,-3.09892 5.5e-4,-0.68848 0.1183,-1.40615 0.11775,-0.71036 0.35274,-1.47189 l 1.48681,10e-4 q -0.35941,0.65889 -0.53575,1.36187 -0.17634,0.70299 -0.17697,1.48668 -10e-4,1.26709 0.66491,2.00737 0.66591,0.74027 1.80849,0.74118 1.14258,9.1e-4 1.80967,-0.7383 0.6671,-0.73921 0.66811,-2.0063 4.7e-4,-0.59326 -0.1309,-1.18663 -0.13137,-0.58604 -0.4092,-1.20151 z m -9.68253,-9.30602 -0.002,2.417 8.34228,0.007 -0.52525,-2.62982 1.34765,0.001 0.52527,2.61517 -10e-4,1.47949 -9.68993,-0.008 -0.002,2.41699 -1.24512,-9.9e-4 0.005,-6.29883 z m -63.21047,-271.365172 3.74,-5.834425 -3.73535,-0.003 z m 0.38716,1.289372 -1.86036,-0.0015 0.006,-7.126462 -1.56005,-0.0012 9.8e-4,-1.230468 1.56005,0.0012 0.002,-2.578124 1.47217,0.0012 -0.002,2.578124 4.93653,0.0039 -10e-4,1.428222 z m 12.96816,-9.679616 -2.417,-0.0019 -0.007,8.342282 2.62982,-0.52525 -10e-4,1.347656 -2.61517,0.525261 -1.47949,-0.0012 0.008,-9.689938 -2.41699,-0.0019 9.9e-4,-1.245117 6.29883,0.005 z m -386.98918,92.996916 3.74,-5.83442 -3.73535,-0.003 z m 0.38716,1.28937 -1.86036,-10e-4 0.006,-7.12646 -1.56005,-0.001 9.8e-4,-1.23047 1.56005,0.001 0.002,-2.57812 1.47217,0.001 -0.002,2.57813 4.93653,0.004 -0.001,1.42822 z m 12.96813,-9.67961 -2.41699,-0.002 -0.007,8.34229 2.62982,-0.52526 -0.001,1.34766 -2.61517,0.52526 -1.47949,-0.001 0.008,-9.68993 -2.41699,-0.002 9.9e-4,-1.24512 6.29882,0.005 z m 298.14415,-37.45238 q -0.2279,1.06183 -0.94615,1.65452 -0.71825,0.60002 -1.77294,0.59918 -1.61864,-10e-4 -2.50399,-1.11528 -0.88534,-1.11398 -0.88371,-3.16477 5.5e-4,-0.68847 0.14029,-1.42078 0.13241,-0.72499 0.40403,-1.50115 l 1.42822,10e-4 q -0.35937,0.61495 -0.54306,1.34723 -0.18369,0.73227 -0.18432,1.53061 -0.001,1.3916 0.54762,2.11714 0.54874,0.73286 1.5961,0.73369 0.9668,7.7e-4 1.50933,-0.67995 0.54986,-0.67339 0.55082,-1.88189 l 10e-4,-1.27441 1.21582,9.7e-4 -10e-4,1.33301 q -8.7e-4,1.09131 0.4308,1.67026 0.43899,0.57896 1.2593,0.57961 0.84229,6.7e-4 1.28954,-0.59955 0.45458,-0.59291 0.45547,-1.70619 4.8e-4,-0.60791 -0.13081,-1.30381 -0.13128,-0.69591 -0.40894,-1.53109 l 1.31836,10e-4 q 0.23371,0.84248 0.35032,1.57499 0.11659,0.73983 0.11607,1.39169 -10e-4,1.68457 -0.77116,2.66541 -0.7625,0.98083 -2.06621,0.9798 -0.9082,-7.3e-4 -1.53768,-0.52125 -0.62213,-0.52051 -0.86307,-1.48018 z m -4.63992,-13.769764 -0.002,2.416991 8.34228,0.0066 -0.52525,-2.629814 1.34766,0.0011 0.52526,2.615165 -10e-4,1.479492 -9.68994,-0.008 -0.002,2.41699 -1.24512,-9.9e-4 0.005,-6.298823 z M 386.24578,122.9787 q -1.06183,-0.22789 -1.65452,-0.94615 -0.60001,-0.71824 -0.59917,-1.77293 10e-4,-1.61865 1.11527,-2.504 1.11399,-0.88534 3.16477,-0.88371 0.68848,5.5e-4 1.42079,0.1403 0.72499,0.13241 1.50114,0.40402 l -10e-4,1.42823 q -0.61496,-0.35938 -1.34723,-0.54307 -0.73227,-0.18369 -1.53061,-0.18432 -1.3916,-0.001 -2.11714,0.54762 -0.73286,0.54874 -0.73369,1.5961 -7.7e-4,0.9668 0.67995,1.50933 0.67339,0.54986 1.88188,0.55082 l 1.27442,0.001 -9.7e-4,1.21581 -1.33301,-0.001 q -1.09131,-8.7e-4 -1.67026,0.4308 -0.57897,0.43899 -0.57963,1.2593 -6.7e-4,0.84229 0.59957,1.28955 0.59289,0.45457 1.70617,0.45546 0.60791,4.8e-4 1.30382,-0.1308 0.6959,-0.13128 1.53109,-0.40893 l -10e-4,1.31836 q -0.84247,0.2337 -1.57499,0.3503 -0.73984,0.1166 -1.39169,0.11608 -1.68457,-0.001 -2.6654,-0.77117 -0.98084,-0.7625 -0.9798,-2.06621 7.2e-4,-0.9082 0.52125,-1.53767 0.5205,-0.62214 1.48017,-0.86308 z m 13.76975,-4.63991 -2.41699,-0.002 -0.007,8.34228 2.62981,-0.52525 -10e-4,1.34766 -2.61516,0.52526 -1.4795,-10e-4 0.008,-9.68993 -2.41699,-0.002 10e-4,-1.24512 6.29882,0.005 z m -46.00298,47.73705 -0.004,5.16357 -1.24511,-9.9e-4 0.006,-6.94336 1.24511,9.9e-4 q 0.87092,0.84299 2.3346,2.29434 1.47101,1.45869 1.89551,1.83257 0.79778,0.71109 1.34688,0.98985 0.55641,0.28608 1.09108,0.2865 0.87158,7e-4 1.42139,-0.61409 0.54979,-0.60748 0.55057,-1.58893 5.6e-4,-0.6958 -0.24053,-1.47235 -0.24108,-0.76924 -0.7311,-1.64853 l 1.49414,0.001 q 0.35818,0.89383 0.54066,1.67035 0.18249,0.77652 0.18198,1.42105 -10e-4,1.69922 -0.85177,2.70928 -0.85042,1.01006 -2.27132,1.00893 -0.67383,-5.4e-4 -1.28153,-0.25737 -0.60038,-0.2495 -1.42016,-0.91665 -0.21227,-0.18328 -1.22954,-1.16554 -1.00997,-0.98225 -2.83228,-2.77081 z m 0.008,-10.55807 -0.002,2.417 8.34229,0.007 -0.52525,-2.62982 1.34765,0.001 0.52527,2.61517 -10e-4,1.47949 -9.68994,-0.008 -0.002,2.41699 -1.24511,-9.9e-4 0.005,-6.29883 z m -41.85423,20.03153 -3.80359,-3.49218 0.84209,-0.91717 5.1146,4.69585 -0.84208,0.91718 q -1.2099,0.0724 -3.26883,0.17063 -2.06928,0.0987 -2.63172,0.15899 -1.06326,0.10758 -1.63978,0.32399 -0.58688,0.21684 -0.94848,0.61069 -0.58946,0.64202 -0.50777,1.46275 0.0763,0.81577 0.79924,1.47953 0.51254,0.47057 1.24789,0.8176 0.72995,0.34207 1.70925,0.57501 l -1.0105,1.10061 q -0.90092,-0.33995 -1.59665,-0.73014 -0.69572,-0.39019 -1.17049,-0.82609 -1.25168,-1.1492 -1.42161,-2.45861 -0.16993,-1.30941 0.79104,-2.35607 0.45571,-0.49635 1.05567,-0.77078 0.58962,-0.27398 1.63536,-0.42748 0.27854,-0.0326 1.69001,-0.11879 1.40653,-0.0808 3.95635,-0.21552 z m 7.77727,7.14051 -1.7804,-1.63463 -5.64196,6.14508 2.29351,1.38984 -0.91144,0.9927 -2.28272,-1.37992 -1.08981,-1.0006 6.55339,-7.13778 -1.78041,-1.63464 0.84209,-0.91718 4.63983,4.25996 z m 113.48738,-24.37097 0.002,-2.41699 -8.34228,-0.007 0.52525,2.62982 -1.34766,-10e-4 -0.52526,-2.61517 0.001,-1.47949 9.68993,0.008 0.002,-2.41699 1.24512,9.9e-4 -0.005,6.29882 z m -0.008,9.54 0.002,-2.417 -8.34228,-0.007 0.52525,2.62982 -1.34766,-0.001 -0.52526,-2.61517 10e-4,-1.47949 9.68994,0.008 0.002,-2.41699 1.24512,9.9e-4 -0.005,6.29883 z m 36.06284,13.10036 -1.78301,1.6318 5.63217,6.15406 1.58366,-2.16422 0.90986,0.99416 -1.57286,2.15432 -1.09142,0.99886 -6.54201,-7.14822 -1.783,1.6318 -0.84063,-0.91852 4.64662,-4.25256 z m 7.03761,-6.44079 -1.78301,1.6318 5.63217,6.15406 1.58367,-2.16423 0.90985,0.99417 -1.57286,2.15432 -1.09141,0.99886 -6.54202,-7.14822 -1.783,1.6318 -0.84062,-0.91852 4.64661,-4.25256 z M 362.43222,540.99556 q 9.1e-4,-1.14258 -1.12656,-1.72209 -1.12015,-0.57218 -3.37601,-0.57398 -2.24854,-0.002 -3.37691,0.5686 -1.12107,0.57772 -1.12198,1.7203 -9.2e-4,1.1499 1.11924,1.72208 1.12746,0.57951 3.376,0.5813 2.25586,0.002 3.37692,-0.57592 1.12838,-0.57039 1.1293,-1.72029 z m 1.17188,9.3e-4 q -0.001,1.83838 -1.45976,2.80401 -1.45097,0.97296 -4.21952,0.97076 -2.76123,-0.002 -4.21798,-0.97748 -1.44943,-0.96795 -1.44796,-2.80632 0.001,-1.83838 1.45244,-2.81135 1.45829,-0.96564 4.21952,-0.96344 2.76855,0.002 4.21798,0.97016 1.45674,0.97528 1.45528,2.81366 z m -9.87779,-12.45563 -0.002,2.417 8.34228,0.007 -0.52524,-2.62982 1.34765,10e-4 0.52526,2.61516 -0.001,1.47949 -9.68995,-0.008 -0.002,2.41699 -1.24511,-9.9e-4 0.005,-6.29883 z m -39.34939,-22.27799 q -0.87836,0.73074 -0.6018,1.96789 0.2775,1.22683 1.72024,2.96102 1.43805,1.72856 2.59859,2.23028 1.16149,0.49142 2.03985,-0.23931 0.88399,-0.73542 0.60648,-1.96226 -0.27655,-1.23714 -1.71461,-2.9657 -1.44273,-1.7342 -2.60422,-2.22561 -1.16054,-0.50172 -2.04453,0.23369 z m -0.74947,-0.90088 q 1.41325,-1.17573 3.08863,-0.67358 1.67633,0.49184 3.44695,2.62017 1.76595,2.12269 1.94925,3.86616 0.18425,1.73315 -1.22901,2.90889 -1.41325,1.17573 -3.08958,0.68389 -1.67538,-0.50215 -3.44132,-2.62485 -1.77063,-2.12832 -1.95488,-3.86148 -0.1833,-1.74346 1.22996,-2.9192 z m -3.24551,15.5621 1.85806,-1.54579 -5.33531,-6.41313 -1.68408,2.08702 -0.86189,-1.03601 1.67282,-2.07766 1.13736,-0.9462 6.1972,7.44914 1.85806,-1.54578 0.79631,0.95718 -4.84222,4.02841 z m 195.10081,66.81973 1.34766,10e-4 q -0.26412,0.55643 -0.40373,1.12761 -0.13962,0.57117 -0.14005,1.12049 -10e-4,1.46484 0.97966,2.23467 0.98815,0.77715 2.9949,0.88861 -0.62955,-0.42531 -0.96594,-1.07743 -0.33639,-0.65212 -0.33576,-1.44313 10e-4,-1.64063 0.99084,-2.59931 0.99684,-0.95136 2.71803,-0.94999 1.68457,10e-4 2.70185,0.99824 1.01727,0.99691 1.01595,2.65218 -0.002,1.89697 -1.45982,2.89191 -1.45099,1.00226 -4.21955,1.00006 -2.58544,-0.002 -4.12988,-1.23376 -1.53711,-1.22437 -1.53546,-3.29712 4.5e-4,-0.55664 0.11076,-1.12784 0.11033,-0.57121 0.33054,-1.18626 z m 4.63388,2.94802 q -7.9e-4,0.9961 0.6799,1.57525 0.68069,0.58648 1.86721,0.58743 1.1792,9.4e-4 1.86082,-0.58446 0.68894,-0.57806 0.68973,-1.57416 7.9e-4,-0.99609 -0.68722,-1.58258 -0.68069,-0.57915 -1.85989,-0.58009 -1.18652,-9.5e-4 -1.86814,0.57712 -0.68162,0.5854 -0.68241,1.58149 z m -118.84819,-13.27964 10e-4,-1.34765 q 0.55643,0.26411 1.12761,0.40373 0.57118,0.13961 1.12049,0.14005 1.46485,10e-4 2.23467,-0.97967 0.77716,-0.98815 0.88862,-2.9949 -0.42531,0.62955 -1.07743,0.96595 -0.65212,0.33639 -1.44314,0.33576 -1.64063,-10e-4 -2.59931,-0.99084 -0.95136,-0.99685 -0.94999,-2.71804 10e-4,-1.68458 0.99825,-2.70185 0.9969,-1.01727 2.65217,-1.01595 1.89698,0.002 2.89191,1.45982 1.00227,1.451 1.00006,4.21955 -0.002,2.58545 -1.23376,4.12988 -1.22436,1.53711 -3.29712,1.53546 -0.55664,-4.4e-4 -1.12784,-0.11077 -0.57121,-0.11031 -1.18626,-0.33053 z m 2.94802,-4.63389 q 0.9961,8e-4 1.57525,-0.67989 0.58648,-0.68069 0.58743,-1.86721 9.4e-4,-1.17919 -0.58446,-1.86082 -0.57806,-0.68893 -1.57416,-0.68972 -0.99609,-8e-4 -1.58258,0.68721 -0.57915,0.68069 -0.58009,1.85989 -9.4e-4,1.18652 0.57712,1.86813 0.5854,0.68162 1.58149,0.68241 z m 34.96828,-38.83165 q -8.4e-4,1.05468 0.56265,1.66304 0.56348,0.60103 1.55225,0.60182 0.98877,7.9e-4 1.55321,-0.59935 0.56445,-0.60746 0.56529,-1.66214 8.4e-4,-1.05469 -0.56264,-1.66305 -0.5708,-0.60837 -1.55225,-0.60915 -0.98877,-7.8e-4 -1.55322,0.60668 -0.56444,0.60013 -0.56529,1.66215 z m -0.63106,1.47898 q -0.23514,0.95197 -0.88741,1.48611 -0.65228,0.52683 -1.58978,0.52608 -1.31103,-10e-4 -2.07201,-0.93183 -0.76097,-0.9381 -0.75968,-2.56407 10e-4,-1.6333 0.76376,-2.56288 0.76246,-0.92957 2.07349,-0.92852 0.9375,7.4e-4 1.58894,0.53593 0.65143,0.52787 0.88505,1.47288 0.24988,-1.06915 0.97545,-1.66183 0.72558,-0.6 1.77293,-0.59917 1.58936,10e-4 2.4382,0.97607 0.84884,0.96746 0.8474,2.77655 -10e-4,1.80908 -0.85183,2.78252 -0.85038,0.96613 -2.43974,0.96486 -1.04736,-8.3e-4 -1.77198,-0.602 -0.72462,-0.60117 -0.97279,-1.6707 z m -2.33686,0.54013 q 0.84961,6.8e-4 1.32611,-0.52628 0.4765,-0.53429 0.47726,-1.49376 7.6e-4,-0.95215 -0.47489,-1.4872 -0.47564,-0.54237 -1.32525,-0.54304 -0.84961,-6.8e-4 -1.32612,0.54093 -0.47649,0.53429 -0.47725,1.48644 -7.6e-4,0.95947 0.47488,1.49452 0.47565,0.52772 1.32526,0.52839 z m 48.70406,-21.36216 q -0.80972,-0.67582 -1.6378,-0.63237 -0.82247,0.0481 -1.45604,0.80724 -0.63358,0.7591 -0.53386,1.57692 0.10533,0.8225 0.91505,1.49832 0.80971,0.67581 1.6378,0.63237 0.83277,-0.0491 1.46166,-0.80255 0.63357,-0.75911 0.52824,-1.58161 -0.0997,-0.81781 -0.91505,-1.49832 z m -0.73225,-1.4316 q -0.5808,-0.79004 -0.57359,-1.6331 0.0128,-0.83836 0.61355,-1.5581 0.84008,-1.00653 2.04229,-0.99529 1.20784,0.0159 2.45615,1.05782 1.25394,1.04657 1.47997,2.22739 0.22604,1.18083 -0.61404,2.18736 -0.60072,0.71974 -1.4289,0.87759 -0.82254,0.16254 -1.6981,-0.26294 0.6614,0.87639 0.65224,1.81321 -0.004,0.94152 -0.67466,1.74561 -1.01841,1.2202 -2.31069,1.24828 -1.28664,0.0328 -2.67552,-1.12644 -1.3889,-1.15921 -1.59235,-2.43567 -0.19783,-1.27177 0.82059,-2.49196 0.67112,-0.8041 1.59683,-0.97594 0.92571,-0.17184 1.90623,0.32218 z m 1.08102,-2.14104 q -0.54441,0.65227 -0.4446,1.35568 0.10542,0.70809 0.84204,1.3229 0.73099,0.61011 1.44653,0.58721 0.72115,-0.0182 1.26556,-0.67047 0.54441,-0.65227 0.43336,-1.36506 -0.10543,-0.7081 -0.83641,-1.31821 -0.73662,-0.61481 -1.45216,-0.59191 -0.70991,0.0276 -1.25432,0.67986 z m 102.58772,108.91032 7.03125,0.006 -5e-4,0.62988 -3.97793,10.30202 -1.54541,-10e-4 3.74306,-9.68697 -5.25146,-0.004 z m -373.49871,-85.19942 7.03124,0.006 -5e-4,0.62988 -3.97792,10.30202 -1.54541,-10e-4 3.74306,-9.68697 -5.25146,-0.004 z m 497.57115,90.174 q -0.9961,-7.9e-4 -1.58258,0.67989 -0.57915,0.6807 -0.5801,1.86722 -9.4e-4,1.1792 0.57713,1.86813 0.58539,0.68163 1.58149,0.68242 0.99609,7.9e-4 1.57524,-0.67991 0.58649,-0.688 0.58743,-1.8672 9.5e-4,-1.18652 -0.58445,-1.86814 -0.57807,-0.68161 -1.57416,-0.68241 z m 2.9407,-4.63389 -10e-4,1.34766 q -0.55643,-0.26412 -1.12761,-0.40374 -0.56386,-0.1396 -1.1205,-0.14005 -1.46484,-0.001 -2.24199,0.98699 -0.76983,0.98815 -0.88129,2.98758 0.43263,-0.63686 1.08476,-0.97326 0.65213,-0.34371 1.43583,-0.34309 1.64793,0.001 2.59929,1.00548 0.95868,0.99687 0.95731,2.71806 -10e-4,1.68457 -0.99825,2.70184 -0.9969,1.01727 -2.65217,1.01595 -1.89698,-0.002 -2.89924,-1.4525 -1.00225,-1.45832 -1.00005,-4.21955 0.002,-2.59278 1.23375,-4.12988 1.23169,-1.54442 3.30445,-1.54277 0.55664,4.4e-4 1.12052,0.11075 0.5712,0.11031 1.18626,0.33053 z M 102.02904,513.74393 q -0.76473,-0.63827 -1.65103,-0.49078 -0.880688,0.15218 -1.640984,1.06311 -0.755599,0.90531 -0.752528,1.80463 0.01337,0.89839 0.77811,1.53666 0.764729,0.63827 1.645412,0.48609 0.89099,-0.15311 1.64659,-1.05841 0.7603,-0.91094 0.74692,-1.80933 -0.008,-0.8937 -0.77249,-1.53197 z m 5.22561,-1.67742 -0.86354,1.03464 q -0.2584,-0.55911 -0.60782,-1.03202 -0.34381,-0.46821 -0.77116,-0.82489 -1.1246,-0.93863 -2.35422,-0.677 -1.224,0.26633 -2.58957,1.73102 0.74006,-0.2123 1.45639,-0.0533 0.72104,0.15341 1.3227,0.65558 1.26518,1.05596 1.35321,2.43643 0.0983,1.37953 -1.00455,2.70095 -1.07943,1.2933 -2.49651,1.43662 -1.41708,0.14333 -2.687881,-0.91732 -1.456369,-1.21553 -1.297469,-2.97185 0.163583,-1.76195 1.932905,-3.88183 1.661375,-1.99055 3.591615,-2.38294 1.93492,-0.398 3.52624,0.93016 0.42735,0.35668 0.78992,0.80241 0.3682,0.4504 0.69974,1.01332 z m 593.83458,-378.79059 5.8081,0.005 -9.9e-4,1.24512 -4.45312,-0.004 -0.002,2.68065 q 0.32236,-0.1096 0.64466,-0.16061 0.32232,-0.0583 0.64458,-0.0581 1.83106,0.001 2.89959,1.00572 1.06854,1.00427 1.06717,2.71814 -10e-4,1.76514 -1.10081,2.74571 -1.09942,0.97324 -3.09893,0.97165 -0.68847,-5.5e-4 -1.40615,-0.11831 -0.71036,-0.11775 -1.47189,-0.35273 l 10e-4,-1.48681 q 0.65889,0.3594 1.36188,0.53574 0.70298,0.17634 1.48667,0.17697 1.26709,0.001 2.00737,-0.66491 0.74028,-0.66591 0.74119,-1.80849 9.1e-4,-1.14258 -0.73831,-1.80967 -0.73921,-0.66709 -2.0063,-0.6681 -0.59326,-4.8e-4 -1.18663,0.13089 -0.58604,0.13137 -1.2015,0.4092 z m -17.22045,54.01453 -4.27835,-3.92807 0.84208,-0.91718 3.28025,3.01169 1.81296,-1.97463 q -0.31169,-0.13703 -0.58375,-0.31721 -0.27702,-0.17478 -0.5144,-0.39273 -1.3488,-1.23836 -1.45786,-2.7007 -0.10908,-1.46233 1.05002,-2.7248 1.19378,-1.30024 2.66681,-1.28017 1.46809,0.0255 2.94096,1.37775 0.50715,0.46563 0.95662,1.03738 0.44407,0.56681 0.84666,1.25461 l -1.00555,1.09522 q -0.24284,-0.71018 -0.6419,-1.31519 -0.39905,-0.60501 -0.97633,-1.13503 -0.93336,-0.85694 -1.92904,-0.86628 -0.99567,-0.009 -1.76841,0.8323 -0.77273,0.84165 -0.67858,1.8329 0.0942,0.99126 1.02751,1.8482 0.43701,0.40123 0.96317,0.70535 0.52078,0.29916 1.1622,0.51023 z m 81.68806,31.87939 3.73999,-5.83442 -3.73534,-0.003 z m 0.38715,1.28937 -1.86035,-0.001 0.006,-7.12646 -1.56006,-0.001 9.8e-4,-1.23047 1.56006,0.001 0.002,-2.57813 1.47217,0.001 -0.002,2.57813 4.93651,0.004 -10e-4,1.42822 z m -27.98541,-118.85304 5.83442,3.73999 0.003,-3.73534 z m -1.28938,0.38715 10e-4,-1.86035 7.12647,0.006 0.001,-1.560063 1.23047,9.79e-4 -10e-4,1.560054 2.57812,0.002 -0.001,1.47217 -2.57811,-0.002 -0.004,4.93651 -1.42822,-0.001 z M 700.57291,68.20715 q -1.06183,-0.227896 -1.65451,-0.946142 -0.60002,-0.718252 -0.59918,-1.772939 10e-4,-1.618652 1.11528,-2.503995 1.11399,-0.885344 3.16477,-0.883711 0.68848,5.49e-4 1.42079,0.140292 0.72498,0.132413 1.50113,0.404027 l -0.001,1.428223 q -0.61495,-0.359377 -1.34722,-0.543065 -0.73229,-0.183689 -1.53063,-0.184325 -1.39159,-0.0011 -2.11713,0.547631 -0.73286,0.548733 -0.73369,1.596095 -7.7e-4,0.966797 0.67995,1.509332 0.67339,0.549853 1.88189,0.550815 l 1.27441,0.001 -9.7e-4,1.21582 -1.333,-0.0011 q -1.09131,-8.69e-4 -1.67028,0.430799 -0.57895,0.438992 -0.57961,1.259305 -6.7e-4,0.842285 0.59957,1.28954 0.59289,0.454574 1.70617,0.455461 0.60791,4.84e-4 1.30382,-0.130798 0.6959,-0.131282 1.53108,-0.408937 l -10e-4,1.318359 q -0.84246,0.233704 -1.57499,0.350309 -0.73983,0.116597 -1.39169,0.116078 -1.68457,-0.0013 -2.6654,-0.771166 -0.98084,-0.7625 -0.9798,-2.066211 7.2e-4,-0.908202 0.52124,-1.537671 0.52052,-0.622144 1.48018,-0.863079 z M 99.71741,183.4949 q -0.936729,0.54951 -1.858967,0.42054 -0.927647,-0.12402 -1.639698,-0.90205 -1.092814,-1.19408 -0.869877,-2.59946 0.222937,-1.40538 1.735787,-2.78994 0.507884,-0.46481 1.14214,-0.85664 0.62391,-0.39228 1.379593,-0.71652 l 0.964242,1.05359 q -0.696154,0.15062 -1.360075,0.51003 -0.663928,0.35941 -1.252859,0.89839 -1.026576,0.93952 -1.190611,1.83429 -0.169446,0.89971 0.53767,1.67235 0.652714,0.71319 1.521119,0.65315 0.867937,-0.0497 1.759436,-0.8656 l 0.94013,-0.8604 0.82084,0.8969 -0.98335,0.89996 q -0.80505,0.73678 -0.94015,1.44621 -0.13015,0.71482 0.42368,1.31996 0.56865,0.62135 1.31334,0.54546 0.74422,-0.0656 1.56548,-0.81716 0.44846,-0.41042 0.87274,-0.97743 0.42428,-0.56702 0.85232,-1.33604 l 0.89007,0.97254 q -0.46312,0.74155 -0.9243,1.32249 -0.46659,0.58587 -0.94746,1.02596 -1.2427,1.13732 -2.48591,1.23261 -1.23827,0.10069 -2.118448,-0.86105 -0.613164,-0.66998 -0.654803,-1.48572 -0.0367,-0.81035 0.507921,-1.63642 z m 666.71776,304.78601 5.16357,0.004 -9.9e-4,1.24512 -6.94335,-0.006 9.9e-4,-1.24512 q 0.84297,-0.87091 2.29434,-2.3346 1.45869,-1.47101 1.83256,-1.89552 0.71109,-0.79777 0.98984,-1.34686 0.28609,-0.55641 0.28651,-1.09108 7e-4,-0.87158 -0.6141,-1.42139 -0.60747,-0.54981 -1.58892,-0.55059 -0.6958,-5.5e-4 -1.47235,0.24053 -0.76924,0.24109 -1.64853,0.73111 l 10e-4,-1.49414 q 0.89383,-0.35817 1.67035,-0.54066 0.77651,-0.18249 1.42104,-0.18197 1.69922,0.001 2.70929,0.85177 1.01006,0.8504 1.00893,2.2713 -5.4e-4,0.67383 -0.25737,1.28154 -0.2495,0.60039 -0.91665,1.42017 -0.18328,0.21225 -1.16553,1.22954 -0.98226,1.00996 -2.77082,2.83226 z m -24.19498,102.36694 0.004,-5.16357 1.24511,10e-4 -0.006,6.94335 -1.24511,-9.9e-4 q -0.87092,-0.84298 -2.3346,-2.29434 -1.47101,-1.45869 -1.89551,-1.83257 -0.79778,-0.71108 -1.34688,-0.98984 -0.55641,-0.28608 -1.09108,-0.28651 -0.87158,-6.9e-4 -1.42139,0.6141 -0.54979,0.60747 -0.55057,1.58892 -5.6e-4,0.6958 0.24053,1.47235 0.24108,0.76924 0.7311,1.64854 l -1.49414,-10e-4 q -0.35818,-0.89384 -0.54066,-1.67036 -0.18249,-0.77651 -0.18198,-1.42104 10e-4,-1.69922 0.85177,-2.70928 0.85042,-1.01007 2.27132,-1.00894 0.67383,5.4e-4 1.28153,0.25738 0.60038,0.24949 1.42016,0.91666 0.21227,0.18327 1.22954,1.16553 1.00997,0.98224 2.83228,2.7708 z m -40.03115,-40.33038 -2.41699,-0.002 -0.007,8.34228 2.62982,-0.52524 -10e-4,1.34765 -2.61517,0.52526 -1.47949,-10e-4 0.008,-9.68993 -2.41698,-0.002 9.9e-4,-1.24512 6.29881,0.005 z m -14.44712,-32.2699 1.85806,-1.54578 -5.3353,-6.41313 -1.68408,2.08702 -0.8619,-1.03602 1.67283,-2.07765 1.13736,-0.94621 6.1972,7.44914 1.85806,-1.54578 0.79631,0.95718 -4.84222,4.02842 z M 798.1273,348.56386 q -9.1e-4,1.14258 1.12656,1.72208 1.12016,0.57219 3.37601,0.57398 2.24853,0.002 3.37692,-0.5686 1.12107,-0.57772 1.12198,-1.7203 9.1e-4,-1.1499 -1.11924,-1.72208 -1.12747,-0.57951 -3.376,-0.5813 -2.25586,-0.002 -3.37693,0.57593 -1.12838,0.57039 -1.1293,1.72029 z m -1.17187,-9.4e-4 q 10e-4,-1.83838 1.45976,-2.80401 1.45096,-0.97296 4.21952,-0.97076 2.76123,0.002 4.21797,0.97748 1.44942,0.96795 1.44796,2.80633 -0.001,1.83838 -1.45243,2.81134 -1.45829,0.96564 -4.21952,0.96344 -2.76856,-0.002 -4.21798,-0.97016 -1.45674,-0.97528 -1.45528,-2.81366 z m -723.036814,1.3998 q 9.1e-4,-1.14258 -1.126559,-1.72209 -1.12015,-0.57218 -3.376009,-0.57398 -2.248534,-0.002 -3.376918,0.56861 -1.121066,0.57771 -1.121976,1.72029 -9.16e-4,1.1499 1.119235,1.72208 1.127468,0.57951 3.376002,0.5813 2.25586,0.002 3.376925,-0.57592 1.128384,-0.57039 1.1293,-1.72029 z m 1.171875,9.3e-4 q -0.0015,1.83838 -1.459753,2.80401 -1.450971,0.97297 -4.219525,0.97076 -2.761229,-0.002 -4.217973,-0.97748 -1.449425,-0.96794 -1.447961,-2.80632 0.0015,-1.83838 1.452434,-2.81134 1.45829,-0.96564 4.219519,-0.96345 2.768554,0.002 4.217979,0.97016 1.456744,0.97528 1.45528,2.81366 z" />
    <path
       id="path2043"
       style="fill:none;stroke:#800000;stroke-width:1;stroke-linecap:butt;stroke-linejoin:miter;stroke-miterlimit:10;stroke-dasharray:8,8;stroke-dashoffset:0;stroke-opacity:1"
       d="m 218.67022,577.32467 107.53986,0.13679 m -0.10394,84.90167 -107.54386,-0.13668 M 81.18943,576.79457 188.7284,577.24719 m -0.35818,84.8971 -107.539887,-0.4496 M 526.68334,224.81245 526.48772,473.85343 m -266.02645,-0.21074 0.19961,-249.04107 m 373.36688,249.33538 0.1987,-249.03705 m -481.10562,-0.3819 -0.1987,249.03705 m 504.07457,-412.779672 -0.0672,84.900162 m -526.38347,-0.41761 152.81688,0.1203 m 220.7447,0.17812 0.0682,-84.901183 m -0.0682,84.901183 152.82186,0.11919 m -373.56656,-0.29731 67.8719,62.31722 m 84.90119,0.0682 67.97161,-62.20732 m -152.8728,62.1391 84.90119,0.0682 m -0.22214,282.99985 -84.90118,-0.0682 m 0,-1e-5 -67.96859,56.54487 m 220.67842,85.07626 0.0672,-84.90117 m 1e-5,0 -67.87586,-56.65175 M 283.0441,547.24021 130.22315,547.11699 m 526.38344,0.41761 -0.0672,84.90117 m 0.0672,-84.90117 -152.81686,-0.1193 M 130.22315,547.11699 62.347295,490.46524 m 594.582185,-344.78965 67.87183,62.31422 m 0,0 84.90119,0.0682 M 62.573429,207.46532 130.54604,145.25798 m 594.25527,62.73183 -0.22605,283.00393 m 84.90017,0.0672 -84.90017,-0.0672 m 0,-3e-5 -67.96867,56.54086 M 62.347295,490.46524 62.573429,207.46532 m 373.562581,0.2984 -0.22214,282.99983 M 351.23482,207.6955 351.01269,490.69534" />
    <path
       id="path3536"
       style="font-size:15px;font-family:'DejaVu Sans';-inkscape-font-specification:DejaVuSans"
       d="m 313.71986,621.81471 0.007,-5.8081 1.24511,0.002 -0.006,4.45311 2.68067,0.003 q -0.10947,-0.3224 -0.16034,-0.64473 -0.0582,-0.32233 -0.0578,-0.6446 0.002,-1.83105 1.00704,-2.89914 1.00475,-1.06808 2.71861,-1.06594 1.76514,0.002 2.74522,1.10207 0.97275,1.09984 0.97025,3.09935 -8.6e-4,0.68848 -0.11895,1.4061 -0.11808,0.71031 -0.3534,1.47173 l -1.48682,-0.002 q 0.35972,-0.65873 0.53638,-1.36163 0.17665,-0.70291 0.17763,-1.4866 0.002,-1.26708 -0.66399,-2.00767 -0.66559,-0.74057 -1.80817,-0.742 -1.14257,-10e-4 -1.81,0.73748 -0.66742,0.73892 -0.669,2.00601 -7.4e-4,0.59326 0.13034,1.18668 0.13111,0.58611 0.40866,1.20169 z m -42.97868,-33.2784 3.74263,-5.83273 -3.73534,-0.005 z m 0.38658,1.28955 -1.86036,-0.002 0.009,-7.12647 -1.56005,-0.002 0.002,-1.23047 1.56004,0.002 0.003,-2.57812 1.47217,0.002 -0.003,2.57812 4.93653,0.006 -0.002,1.42822 z m -45.11825,32.44633 q -0.22838,1.06172 -0.94689,1.65408 -0.71852,0.5997 -1.77321,0.59838 -1.61865,-0.002 -2.50348,-1.11641 -0.88484,-1.11438 -0.88228,-3.16516 8.6e-4,-0.68848 0.14093,-1.42073 0.13274,-0.72493 0.40471,-1.50096 l 1.42822,0.002 q -0.35966,0.61479 -0.54368,1.34698 -0.18402,0.73219 -0.18502,1.53053 -0.002,1.3916 0.54668,2.11739 0.5484,0.7331 1.59576,0.73441 0.9668,0.001 1.50964,-0.67926 0.55015,-0.67315 0.55166,-1.88164 l 0.002,-1.27442 1.21582,0.002 -0.002,1.33301 q -10e-4,1.09131 0.43004,1.67046 0.43874,0.57916 1.25905,0.58018 0.84228,10e-4 1.28981,-0.59897 0.45484,-0.59269 0.45623,-1.70597 7.6e-4,-0.60791 -0.1302,-1.30388 -0.13097,-0.69597 -0.40825,-1.53127 l 1.31836,0.002 q 0.23333,0.84259 0.34959,1.57515 0.11627,0.7399 0.11545,1.39175 -0.002,1.68457 -0.77237,2.66505 -0.76294,0.98049 -2.06665,0.97886 -0.90821,-10e-4 -1.53744,-0.52194 -0.62191,-0.52079 -0.86241,-1.48056 z m 45.73609,37.27772 5.16357,0.006 -0.002,1.24512 -6.94336,-0.009 0.002,-1.24512 q 0.84337,-0.87053 2.29539,-2.33355 1.45936,-1.47035 1.83342,-1.89469 0.71145,-0.79746 0.99045,-1.34642 0.28635,-0.55628 0.28702,-1.09095 10e-4,-0.87158 -0.61347,-1.42167 -0.60722,-0.55008 -1.58866,-0.5513 -0.6958,-8.7e-4 -1.47247,0.23986 -0.76934,0.24074 -1.64887,0.73036 l 0.002,-1.49414 q 0.894,-0.35776 1.6706,-0.5399 0.77659,-0.18213 1.42112,-0.18133 1.69922,0.002 2.7089,0.853 1.00968,0.85087 1.0079,2.27176 -8.4e-4,0.67383 -0.25795,1.28141 -0.24977,0.60028 -0.91729,1.41976 -0.18338,0.21217 -1.16609,1.22901 -0.98271,1.00952 -2.77209,2.83101 z m -95.64048,-37.6216 0.0295,-7.03119 0.62989,0.003 10.28842,4.01292 -0.006,1.5454 -9.67419,-3.77597 -0.022,5.25142 z m -42.35647,-37.35784 q 0.99608,0.004 1.58487,-0.6745 0.58147,-0.67872 0.58644,-1.86524 0.005,-1.17918 -0.57077,-1.87008 -0.58307,-0.6836 -1.57916,-0.68778 -0.99609,-0.004 -1.57755,0.67454 -0.58882,0.68601 -0.59377,1.86519 -0.005,1.18652 0.5781,1.87012 0.57575,0.68358 1.57184,0.68775 z m -2.95644,4.62387 0.006,-1.34764 q 0.55554,0.26601 1.12623,0.40756 0.56338,0.14153 1.12002,0.14386 1.46482,0.006 2.24534,-0.97936 0.77318,-0.98553 0.89143,-2.98456 -0.4348,0.63539 -1.08806,0.96956 -0.65329,0.3415 -1.43698,0.33821 -1.64793,-0.007 -2.59586,-1.01431 -0.95529,-1.00011 -0.94807,-2.72129 0.007,-1.68456 1.00742,-2.69843 1.00035,-1.01388 2.65562,-1.00694 1.89695,0.008 2.89428,1.46235 0.9973,1.46172 0.98571,4.22293 -0.0109,2.59274 -1.24778,4.12566 -1.23694,1.54023 -3.30969,1.53154 -0.55663,-0.002 -1.12013,-0.11457 -0.57082,-0.11226 -1.18513,-0.33457 z m -47.032183,28.66668 -0.01014,2.41697 8.342212,0.035 -0.516309,-2.63158 1.347644,0.006 0.51637,2.61694 -0.0062,1.47947 -9.689856,-0.0406 -0.01014,2.41697 -1.245107,-0.005 0.02642,-6.29877 z m 51.879473,32.60226 q -1.14256,-0.005 -1.7259,1.1207 -0.57599,1.11819 -0.58545,3.37403 -0.009,2.24852 0.55712,3.37884 0.57391,1.12302 1.71647,1.12781 1.1499,0.005 1.72589,-1.11337 0.58333,-1.12549 0.59277,-3.37401 0.009,-2.25584 -0.56444,-3.37886 -0.56656,-1.13032 -1.71646,-1.13514 z m 0.005,-1.17187 q 1.83836,0.008 2.79904,1.46928 0.96803,1.45427 0.95641,4.22279 -0.0116,2.76121 -0.9918,4.21463 -0.97288,1.44613 -2.81124,1.43842 -1.83836,-0.008 -2.8064,-1.46198 -0.96066,-1.46157 -0.94908,-4.22277 0.0116,-2.76853 0.98448,-4.21466 0.98024,-1.45342 2.81859,-1.44571 z m 435.76644,-412.00848 -7.03125,-0.006 5e-4,-0.62988 3.97794,-10.30201 1.54541,10e-4 -3.74307,9.68696 5.25146,0.004 z M 208.07228,217.00135 q -0.99608,-7.9e-4 -1.58257,0.67989 -0.57915,0.6807 -0.58009,1.86722 -9.4e-4,1.1792 0.57712,1.86814 0.5854,0.68162 1.58149,0.68241 0.99609,7.9e-4 1.57525,-0.6799 0.58648,-0.68801 0.58741,-1.86721 9.5e-4,-1.18652 -0.58444,-1.86815 -0.57808,-0.68161 -1.57417,-0.6824 z m 2.94071,-4.63389 -0.001,1.34766 q -0.55643,-0.26411 -1.12761,-0.40373 -0.56385,-0.13961 -1.12049,-0.14005 -1.46484,-10e-4 -2.24199,0.98697 -0.76984,0.98816 -0.88129,2.98759 0.43264,-0.63686 1.08475,-0.97325 0.65214,-0.34372 1.43583,-0.3431 1.64795,10e-4 2.5993,1.00548 0.95867,0.99686 0.9573,2.71805 -0.001,1.68457 -0.99824,2.70185 -0.99691,1.01727 -2.65218,1.01595 -1.89697,-0.002 -2.89923,-1.4525 -1.00226,-1.45832 -1.00006,-4.21955 0.002,-2.59278 1.23376,-4.12988 1.2317,-1.54443 3.30445,-1.54278 0.55664,4.5e-4 1.12052,0.11076 0.5712,0.11031 1.18626,0.33053 z m 356.01703,249.08385 5.8081,0.005 -9.9e-4,1.24512 -4.45312,-0.004 -0.002,2.68067 q 0.32235,-0.10961 0.64466,-0.16062 0.32232,-0.0584 0.64458,-0.0581 1.83106,10e-4 2.89959,1.00573 1.06854,1.00426 1.06718,2.71813 -10e-4,1.76514 -1.10083,2.7457 -1.09941,0.97326 -3.09892,0.97167 -0.68848,-5.5e-4 -1.40615,-0.11831 -0.71036,-0.11776 -1.47189,-0.35274 l 10e-4,-1.48682 q 0.6589,0.35942 1.36189,0.53576 0.70298,0.17634 1.48667,0.17696 1.26708,0.001 2.00737,-0.66491 0.74028,-0.66591 0.74119,-1.80849 9.1e-4,-1.14258 -0.73831,-1.80967 -0.73922,-0.66709 -2.00631,-0.6681 -0.59326,-4.7e-4 -1.18663,0.13089 -0.58604,0.13137 -1.20149,0.4092 z m 11.53273,23.58999 3.74,-5.83443 -3.73535,-0.003 z m 0.38716,1.28938 -1.86036,-10e-4 0.006,-7.12646 -1.56005,-10e-4 9.8e-4,-1.23047 1.56005,0.001 0.002,-2.57812 1.47217,10e-4 -0.002,2.57812 4.93653,0.004 -10e-4,1.42822 z M 197.86497,466.19704 q 1.06183,0.2279 1.65452,0.94614 0.60002,0.71825 0.59918,1.77294 -0.001,1.61865 -1.11527,2.504 -1.11399,0.88534 -3.16477,0.88371 -0.68848,-5.5e-4 -1.42079,-0.14029 -0.72499,-0.13242 -1.50115,-0.40404 l 0.001,-1.42822 q 0.61496,0.35938 1.34723,0.54307 0.73227,0.18369 1.53061,0.18433 1.3916,0.001 2.11714,-0.54764 0.73286,-0.54873 0.73369,-1.5961 7.7e-4,-0.96679 -0.67995,-1.50933 -0.67339,-0.54984 -1.88189,-0.55081 l -1.27441,-0.001 9.7e-4,-1.21582 1.33301,10e-4 q 1.09131,8.7e-4 1.67026,-0.4308 0.57896,-0.439 0.57962,-1.25931 6.7e-4,-0.84228 -0.59956,-1.28954 -0.5929,-0.45457 -1.70619,-0.45545 -0.60791,-4.9e-4 -1.30381,0.13079 -0.69591,0.13128 -1.53109,0.40894 l 0.001,-1.31836 q 0.84248,-0.2337 1.57499,-0.35031 0.73985,-0.1166 1.3917,-0.11608 1.68456,10e-4 2.6654,0.77116 0.98084,0.7625 0.9798,2.06621 -7.3e-4,0.90821 -0.52125,1.53768 -0.52051,0.62215 -1.48018,0.86308 z m 9.41683,10.14687 -5.16358,-0.004 9.9e-4,-1.24512 6.94336,0.006 -9.9e-4,1.24512 q -0.84298,0.87091 -2.29434,2.3346 -1.45869,1.471 -1.83256,1.89551 -0.71109,0.79778 -0.98985,1.34687 -0.28609,0.55642 -0.28651,1.09108 -7e-4,0.87159 0.6141,1.42138 0.60748,0.54981 1.58892,0.55059 0.6958,5.5e-4 1.47236,-0.24053 0.76923,-0.24108 1.64853,-0.7311 l -10e-4,1.49414 q -0.89383,0.35816 -1.67035,0.54066 -0.77652,0.18249 -1.42105,0.18197 -1.69922,-0.001 -2.70928,-0.85176 -1.01006,-0.85042 -1.00893,-2.27132 5.4e-4,-0.67383 0.25736,-1.28153 0.24951,-0.6004 0.91666,-1.42017 0.18328,-0.21226 1.16553,-1.22955 0.98226,-1.00995 2.77082,-2.83226 z m -10.31723,-249.04797 -2.41699,-0.002 -0.007,8.34228 2.62982,-0.52525 -0.001,1.34766 -2.61517,0.52526 -1.47949,-0.001 0.008,-9.68994 -2.417,-0.002 9.9e-4,-1.24512 6.29883,0.005 z m 384.49014,-13.90017 q -1.14258,-9.1e-4 -1.72208,1.12656 -0.57219,1.12015 -0.57398,3.376 -0.002,2.24854 0.5686,3.37693 0.57772,1.12106 1.7203,1.12197 1.1499,9.1e-4 1.72208,-1.11923 0.57952,-1.12747 0.58131,-3.37601 0.002,-2.25586 -0.57593,-3.37692 -0.5704,-1.12838 -1.7203,-1.1293 z m 9.4e-4,-1.17188 q 1.83838,10e-4 2.80402,1.45976 0.97296,1.45097 0.97076,4.21952 -0.002,2.76123 -0.97748,4.21797 -0.96796,1.44943 -2.80634,1.44797 -1.83838,-0.001 -2.81134,-1.45244 -0.96564,-1.45829 -0.96344,-4.21952 0.002,-2.76855 0.97016,-4.21798 0.97528,-1.45674 2.81366,-1.45528 z" />
    <path
       id="path2049"
       style="fill:none;stroke:#ff0000;stroke-width:1;stroke-linecap:butt;stroke-linejoin:miter;stroke-miterlimit:10;stroke-dasharray:none;stroke-opacity:1"
       d="m 326.21008,577.46146 14.97467,19.11873 -0.0561,46.69669 -15.02251,19.08625 m -107.43592,-85.03846 24.21502,-14.96736 59.14732,0.0752 24.17752,15.02897 m -107.6478,84.76497 -14.97467,-19.11873 0.0591,-46.69677 15.02352,-19.08628 m 107.43591,85.03846 -24.21902,14.96748 -59.1473,-0.0742 -24.17754,-15.02998 m -29.83388,-84.97924 14.9183,19.16376 -0.19369,46.69532 -15.08279,19.03802 m -107.18079,-85.34972 24.25799,-14.89693 59.14674,0.24543 24.13424,15.10412 M 80.830333,661.69469 65.91295,642.5279 66.105723,595.83561 81.18943,576.79457 m 107.18079,85.34972 -24.25891,14.89994 -59.14682,-0.24843 -24.134157,-15.10111 m 445.853007,-436.88224 84.90116,0.0672 m -350.92362,-0.27803 -107.54004,-0.0836 m 458.26807,249.40363 -84.90119,-0.0682 m 85.09678,-248.97378 -0.19559,249.04198 m -350.92764,-0.27896 -14.95561,-56.04658 0.10996,-136.97379 15.04526,-56.0207 m 265.82684,249.25181 107.54004,0.0836 m -396.20443,-0.31372 -84.90119,-0.0682 m 0,-1e-5 107.53913,0.0876 m -22.43926,-249.05743 -0.19868,249.03804 m 396.20443,0.31369 -14.95552,-56.04258 0.10996,-136.97379 15.04426,-56.02068 m -481.10562,-0.3819 84.90117,0.0672 m 396.20445,0.3147 -107.54312,-0.0875 m -22.5075,-164.157233 152.82087,0.120211 m -526.45067,84.482552 34.39591,-14.97378 84.04995,0.067 34.37102,15.02708 m 220.7447,0.17812 -14.98352,-19.11496 0.0354,-46.696157 15.01634,-19.090066 m -152.86459,54.899153 84.90118,0.0682 m -84.97761,92.07293 0.0764,-92.14113 m -67.9483,29.82391 25.41585,2.97479 37.33145,34.27043 5.1246,25.072 m 84.97761,-92.07292 -0.0764,92.14114 m -2e-5,0 5.16712,-25.06215 37.38296,-34.21539 25.42153,-2.92978 m -153.1677,433.54908 0.0728,-88.41014 m -3e-5,0 -5.70112,24.25273 -37.38075,31.09858 -24.88672,1.19356 m 220.67842,85.07626 -14.98453,-19.11494 0.0354,-46.69616 15.01633,-19.09007 m -67.94864,31.75739 -84.90116,-0.0672 m 84.97395,-88.34194 -0.0728,88.40914 m 67.94866,-31.75739 -24.88525,-1.23207 -37.33273,-31.15664 -5.65788,-24.26304 m 220.6255,141.67222 -152.81685,-0.1193 M 283.0441,547.24021 248.64811,562.20998 164.59416,562.14308 130.22315,547.117 m 614.73036,85.39145 -88.41414,-0.0727 M 130.22315,547.11699 105.3389,545.8849 68.009167,514.72819 62.347295,490.46524 m 686.723315,-344.71322 -92.14113,-0.0764 m 0,-3e-5 25.41478,2.97181 37.32854,34.27449 5.12851,25.06792 m 0,0 19.11596,-14.98354 46.69525,0.0394 19.08998,15.01234 m -60.56468,-147.207155 -0.0672,84.901165 m -92.07391,-84.976592 92.14111,0.07543 M 62.573429,207.46532 l 5.167127,-25.06215 37.382954,-34.21539 25.42253,-2.9298 m 678.92939,345.80299 -19.11494,14.98453 -46.69625,-0.0394 -19.08898,-15.01235 m 20.44547,56.61354 -0.0672,84.90116 m -88.34694,-84.97385 88.41414,0.0727 m -20.44547,-56.61356 -5.70112,24.25273 -37.38074,31.09858 -24.88681,1.18955 M 809.7025,208.05803 809.47543,491.06097 m -747.128135,-0.59573 -14.948208,-63.6856 0.122759,-155.65062 15.051583,-63.6637" />
    <path
       id="path2051"
       style="fill:none;stroke:#00ff00;stroke-width:1;stroke-linecap:butt;stroke-linejoin:miter;stroke-miterlimit:10;stroke-dasharray:8, 2, 2, 2;stroke-dashoffset:0;stroke-opacity:1"
       d="m 326.21008,577.46146 -0.10394,84.90167 m -107.54386,-0.13668 0.10794,-84.90178 m -29.94182,-0.0775 -0.35818,84.8971 m -107.539887,-0.4496 0.359097,-84.90012" />
  </g>
</svg>
