<?xml version="1.0" encoding="UTF-8" standalone="no"?>
<!-- Created with Inkscape (http://www.inkscape.org/) -->

<svg
   version="1.1"
   id="svg4372"
   width="1132"
   height="1132"
   viewBox="0 0 1132 1132"
   sodipodi:docname="P.svg"
   inkscape:version="1.2.2 (732a01da63, 2022-12-09, custom)"
   xmlns:inkscape="http://www.inkscape.org/namespaces/inkscape"
   xmlns:sodipodi="http://sodipodi.sourceforge.net/DTD/sodipodi-0.dtd"
   xmlns="http://www.w3.org/2000/svg"
   xmlns:svg="http://www.w3.org/2000/svg">
  <defs
     id="defs4376" />
  <sodipodi:namedview
     id="namedview4374"
     pagecolor="#ffffff"
     bordercolor="#666666"
     borderopacity="1.0"
     inkscape:showpageshadow="2"
     inkscape:pageopacity="0.0"
     inkscape:pagecheckerboard="0"
     inkscape:deskcolor="#d1d1d1"
     showgrid="false"
     showguides="true"
     inkscape:zoom="0.47683851"
     inkscape:cx="801.1098"
     inkscape:cy="837.80986"
     inkscape:window-width="1920"
     inkscape:window-height="1009"
     inkscape:window-x="0"
     inkscape:window-y="0"
     inkscape:window-maximized="1"
     inkscape:current-layer="g4380">
    <inkscape:page
       x="0"
       y="0"
       id="page4378"
       width="1132"
       height="1132" />
  </sodipodi:namedview>
  <g
     id="g4380"
     inkscape:groupmode="layer"
     inkscape:label="Page 1"
     transform="matrix(1.3333333,0,0,1.3333333,0,2.83e-5)">
    <path
       id="path4674"
       style="fill:none;stroke:#800000;stroke-width:1;stroke-linecap:butt;stroke-linejoin:miter;stroke-miterlimit:10;stroke-dasharray:8,8;stroke-dashoffset:0;stroke-opacity:1"
       d="m 628.39278,372.91832 0.18147,-96.21567 m -481.10146,-0.90939 -0.1813,96.21967 M 628.57425,276.70265 521.0349,276.49977 m 255.62203,-79.08689 -57.4881,62.47816 m 0,0 -0.24607,130.1777 m 0,0 54.2298,65.32667 M 56.696903,388.82453 56.942977,258.64684 m 661.979783,131.4219 -68.02857,56.47804 m 54.2306,65.32163 -54.2306,-65.32163 M 124.5112,445.55521 56.696903,388.82453 M 650.89419,446.54678 520.71645,446.2997 M 254.69273,445.79712 124.5112,445.55521 m 396.20525,0.74449 -0.28927,152.81606 m -373.13569,-227.10283 107.53834,0.20292 m 266.02477,0.50354 107.53818,0.19893 m -373.56295,-0.70247 0.18131,-96.21967 m 0,0 -107.53835,-0.20292 m 373.56211,0.70651 -0.1803,96.21962 m -266.6107,310.79777 0.15872,-84.89995 m 0,0 0.29011,-152.82009 m 90.1125,237.89049 -90.56133,-0.17045 m 90.72101,-84.73054 -90.56229,-0.16941 m 90.56229,0.16941 -0.15968,84.90099 M 56.942977,258.64684 124.98244,196.51146 m 526.38199,0.99161 57.4891,-62.47821 m -57.4891,62.47821 67.8044,62.38797 m -594.18639,-63.37958 220.73902,0.41652 m 0,0 84.89995,0.15873 m 0,0 220.74302,0.41636 m -306.39952,401.28355 0.75655,-401.85864 m 84.14344,402.01837 0.75651,-401.85964" />
    <path
       id="path5447"
       d="m 420.66661,671.27907 h 7.03125 v 0.62988 l -3.96973,10.30518 h -1.54541 l 3.73535,-9.68994 h -5.25146 z m 1.10742,-64.91016 q 0.99609,0 1.58203,-0.68115 0.57861,-0.68115 0.57861,-1.86768 0,-1.17919 -0.57861,-1.86767 -0.58594,-0.68115 -1.58203,-0.68115 -0.9961,0 -1.57471,0.68115 -0.58594,0.68848 -0.58594,1.86767 0,1.18653 0.58594,1.86768 0.57861,0.68115 1.57471,0.68115 z m -2.93701,4.63623 v -1.34765 q 0.55664,0.26367 1.12793,0.40283 0.56396,0.13916 1.1206,0.13916 1.46485,0 2.24121,-0.98877 0.76905,-0.98877 0.87891,-2.98828 -0.43213,0.63721 -1.08399,0.97412 -0.65185,0.34424 -1.43554,0.34424 -1.64795,0 -2.6001,-1.00342 -0.95947,-0.99609 -0.95947,-2.71729 0,-1.68457 0.99609,-2.70263 0.99609,-1.01807 2.65137,-1.01807 1.89697,0 2.90039,1.4502 1.00342,1.45752 1.00342,4.21875 0,2.59277 -1.23047,4.13086 -1.23047,1.54541 -3.30322,1.54541 -0.55665,0 -1.12061,-0.10987 -0.57129,-0.10986 -1.18652,-0.32959 z m 104.07714,60.27393 h 5.80811 v 1.24512 h -4.45312 v 2.68066 q 0.32226,-0.10986 0.64453,-0.16113 0.32226,-0.0586 0.64453,-0.0586 1.83105,0 2.90039,1.00342 1.06933,1.00342 1.06933,2.71729 0,1.76513 -1.09863,2.74658 -1.09863,0.97412 -3.09814,0.97412 -0.68848,0 -1.40625,-0.11719 -0.71045,-0.11719 -1.47217,-0.35156 v -1.48682 q 0.65918,0.35889 1.3623,0.53467 0.70313,0.17578 1.48682,0.17578 1.26709,0 2.00684,-0.6665 0.73974,-0.66651 0.73974,-1.80908 0,-1.14258 -0.73974,-1.80909 -0.73975,-0.6665 -2.00684,-0.6665 -0.59326,0 -1.18652,0.13184 -0.58594,0.13183 -1.20118,0.41015 z m 203.99366,-61.32129 3.73535,-5.8374 h -3.73535 z m 0.38818,1.28906 h -1.86035 v -7.12646 h -1.56006 v -1.23047 h 1.56006 v -2.57813 h 1.47217 v 2.57813 h 4.93652 v 1.42822 z m 3.78125,65.07129 q 1.06201,0.22705 1.65527,0.94483 0.60059,0.71777 0.60059,1.77246 0,1.61865 -1.11328,2.50488 -1.11328,0.88623 -3.16406,0.88623 -0.68848,0 -1.4209,-0.13916 -0.7251,-0.13184 -1.50147,-0.40283 v -1.42823 q 0.61524,0.35889 1.34766,0.542 0.73242,0.1831 1.53076,0.1831 1.3916,0 2.1167,-0.54931 0.73242,-0.54932 0.73242,-1.59668 0,-0.9668 -0.68115,-1.50879 -0.67383,-0.54932 -1.88232,-0.54932 h -1.27442 v -1.21582 h 1.33301 q 1.09131,0 1.66992,-0.43213 0.57861,-0.43945 0.57861,-1.25976 0,-0.84229 -0.60058,-1.28907 -0.59326,-0.4541 -1.70654,-0.4541 -0.60791,0 -1.30372,0.13184 -0.6958,0.13183 -1.53076,0.41015 v -1.31836 q 0.84229,-0.23437 1.57471,-0.35156 0.73975,-0.11719 1.3916,-0.11719 1.68457,0 2.66602,0.76905 0.98144,0.76172 0.98144,2.06543 0,0.9082 -0.52002,1.53808 -0.52002,0.62256 -1.47949,0.86426 z M 627.30381,601.5569 h -5.16357 v -1.24512 h 6.94336 v 1.24512 q -0.84229,0.87158 -2.29248,2.33643 -1.45752,1.47216 -1.83106,1.89697 -0.71045,0.79834 -0.98877,1.34766 -0.28564,0.55664 -0.28564,1.0913 0,0.87159 0.61523,1.4209 0.60791,0.54932 1.58936,0.54932 0.6958,0 1.47217,-0.2417 0.76904,-0.2417 1.64795,-0.73242 v 1.49414 q -0.89356,0.35889 -1.66993,0.54199 -0.77636,0.18311 -1.42089,0.18311 -1.69922,0 -2.70997,-0.84961 -1.01074,-0.84961 -1.01074,-2.27051 0,-0.67383 0.25635,-1.28174 0.24902,-0.60059 0.91553,-1.4209 0.1831,-0.2124 1.16455,-1.23047 0.98144,-1.01074 2.76855,-2.83447 z m -101.07568,0 h -2.41699 v 8.34229 l 2.62939,-0.52735 v 1.34766 l -2.61474,0.52734 h -1.4795 v -9.68994 h -2.41699 v -1.24512 h 6.29883 z m 101.47217,70.69629 q -1.14258,0 -1.72119,1.12793 -0.57129,1.12061 -0.57129,3.37646 0,2.24854 0.57129,3.37647 0.57861,1.1206 1.72119,1.1206 1.1499,0 1.72119,-1.1206 0.57861,-1.12793 0.57861,-3.37647 0,-2.25585 -0.57861,-3.37646 -0.57129,-1.12793 -1.72119,-1.12793 z m 0,-1.17188 q 1.83838,0 2.80517,1.45752 0.97412,1.4502 0.97412,4.21875 0,2.76123 -0.97412,4.21875 -0.96679,1.4502 -2.80517,1.4502 -1.83838,0 -2.8125,-1.4502 -0.9668,-1.45752 -0.9668,-4.21875 0,-2.76855 0.9668,-4.21875 0.97412,-1.45752 2.8125,-1.45752 z m 13.22377,-348.53103 -0.0132,7.03123 -0.62988,-10e-4 -10.29769,-3.98913 0.003,-1.5454 9.6829,3.75358 0.01,-5.25145 z m -501.0985,0.16558 q -0.002,0.99609 0.67817,1.58331 0.68006,0.57989 1.86659,0.58212 1.17919,0.002 1.86876,-0.57509 0.68225,-0.58466 0.68413,-1.58075 0.002,-0.99609 -0.67819,-1.57598 -0.68737,-0.58724 -1.86656,-0.58946 -1.18653,-0.002 -1.86878,0.58242 -0.68224,0.57733 -0.68412,1.57343 z m -4.63069,-2.94575 1.34765,0.003 q -0.26472,0.55615 -0.40495,1.12717 -0.14022,0.56371 -0.14127,1.12035 -0.003,1.46483 0.98455,2.24306 0.98732,0.7709 2.98662,0.88454 -0.6364,-0.43333 -0.97208,-1.08582 -0.34301,-0.6525 -0.34154,-1.43619 0.003,-1.64795 1.00832,-2.5982 0.99789,-0.9576 2.71909,-0.95436 1.68456,0.003 2.70075,1.00118 1.01619,0.998 1.01307,2.65328 -0.004,1.89697 -1.45566,2.89766 -1.4594,1.00066 -4.22063,0.99546 -2.59276,-0.005 -4.12853,-1.23823 -1.54309,-1.23338 -1.53919,-3.30614 0.001,-0.55664 0.11198,-1.12039 0.11093,-0.57108 0.33182,-1.18591 z m 437.71467,-55.60782 5.8081,0.0109 -0.002,1.24512 -4.45313,-0.008 -0.005,2.68066 q 0.32247,-0.10926 0.64484,-0.15992 0.32237,-0.058 0.64464,-0.0574 1.83104,0.003 2.89849,1.00887 1.06744,1.00543 1.06422,2.7193 -0.003,1.76514 -1.1038,2.74451 -1.10047,0.97205 -3.09997,0.96828 -0.68848,-0.001 -1.40603,-0.11983 -0.71023,-0.11852 -1.4715,-0.35433 l 0.003,-1.48681 q 0.6585,0.36012 1.36129,0.53722 0.70279,0.17711 1.48648,0.17858 1.26709,0.002 2.00809,-0.66272 0.741,-0.66511 0.74315,-1.80768 0.002,-1.14258 -0.73633,-1.81047 -0.7385,-0.66791 -2.00559,-0.67029 -0.59325,-0.001 -1.18676,0.12961 -0.58619,0.13072 -1.20195,0.40788 z m -373.55571,119.09539 3.74633,-5.83035 -3.73534,-0.007 z m 0.38576,1.2898 -1.86035,-0.003 0.0134,-7.12646 -1.56005,-0.003 0.002,-1.23046 1.56005,0.003 0.005,-2.57811 1.47217,0.003 -0.005,2.57812 4.93652,0.009 -0.003,1.42822 z m 372.38355,-4.33827 q -1.06158,-0.22904 -1.65349,-0.94794 -0.59924,-0.7189 -0.59725,-1.77359 0.003,-1.61864 1.11799,-2.50278 1.11495,-0.88413 3.16574,-0.88027 0.68846,0.001 1.42062,0.14184 0.72485,0.1332 1.50071,0.40565 l -0.003,1.42823 q -0.61456,-0.36005 -1.34664,-0.54454 -0.73207,-0.18447 -1.53041,-0.18598 -1.3916,-0.003 -2.11773,0.54533 -0.73345,0.54794 -0.73542,1.59529 -0.002,0.9668 0.6783,1.51007 0.6728,0.55059 1.8813,0.55287 l 1.27441,0.002 -0.002,1.21581 -1.33301,-0.003 q -1.09131,-0.002 -1.67073,0.42899 -0.57944,0.43836 -0.58098,1.25867 -0.002,0.84229 0.59815,1.2902 0.59241,0.45521 1.70569,0.45731 0.60791,10e-4 1.30396,-0.12939 0.69604,-0.13052 1.53153,-0.40726 l -0.002,1.31835 q -0.84273,0.23279 -1.57536,0.3486 -0.73996,0.1158 -1.39182,0.11457 -1.68457,-0.003 -2.66456,-0.77407 -0.98001,-0.76357 -0.97756,-2.06727 0.002,-0.9082 0.52292,-1.5371 0.52119,-0.62158 1.48111,-0.86148 z m -314.45725,-56.69209 -0.01,5.16357 -1.24511,-0.002 0.0131,-6.94335 1.24512,0.002 q 0.86999,0.84392 2.33209,2.29688 1.46943,1.46029 1.89352,1.83462 0.79701,0.71195 1.3458,0.9913 0.5561,0.2867 1.09077,0.28771 0.87158,0.002 1.42206,-0.61257 0.55045,-0.60687 0.5523,-1.58831 0.001,-0.6958 -0.23892,-1.47262 -0.24025,-0.7695 -0.72933,-1.64933 l 1.49414,0.003 q 0.35721,0.89423 0.53886,1.67094 0.18163,0.77671 0.18042,1.42124 -0.003,1.69922 -0.85471,2.70836 -0.85151,1.00914 -2.27241,1.00646 -0.67382,-10e-4 -1.28124,-0.25875 -0.60012,-0.25016 -1.41918,-0.9182 -0.21205,-0.18351 -1.22827,-1.16687 -1.00889,-0.98335 -2.82926,-2.77389 z m -57.81438,-50.37038 2.41699,0.005 0.0157,-8.34227 -2.63038,0.5224 0.003,-1.34766 2.61574,-0.52242 1.47949,0.003 -0.0182,9.68992 2.41698,0.005 -0.002,1.24512 -6.29882,-0.0119 z m 309.63291,50.45081 q -0.002,1.14257 1.12469,1.72331 1.11953,0.5734 3.37539,0.57765 2.24852,0.004 3.37752,-0.56493 1.1217,-0.57651 1.12385,-1.71908 0.002,-1.14991 -1.11736,-1.72331 -1.12684,-0.58073 -3.37537,-0.58496 -2.25585,-0.004 -3.37755,0.57225 -1.12901,0.56917 -1.13117,1.71907 z m -1.17187,-0.002 q 0.003,-1.83838 1.4628,-2.80243 1.45202,-0.97139 4.22058,-0.96618 2.76122,0.005 4.21691,0.98206 1.44836,0.96953 1.4449,2.80791 -0.003,1.83837 -1.45548,2.80976 -1.45934,0.96405 -4.22056,0.95885 -2.76856,-0.005 -4.21693,-0.97473 -1.45568,-0.97687 -1.45222,-2.81524 z"
       style="font-size:15px;font-family:'DejaVu Sans';-inkscape-font-specification:DejaVuSans" />
    <path
       id="path6091"
       style="font-size:15px;font-family:'DejaVu Sans';-inkscape-font-specification:DejaVuSans;fill:#0000ff"
       d="m 386.30332,642.25173 q 0,-1.14258 -1.12792,-1.7212 -1.12061,-0.57129 -3.37647,-0.57129 -2.24853,0 -3.37646,0.57129 -1.12061,0.57862 -1.12061,1.7212 0,1.1499 1.12061,1.72119 1.12793,0.57861 3.37646,0.57861 2.25586,0 3.37647,-0.57861 1.12792,-0.57129 1.12792,-1.72119 z m 1.17188,0 q 0,1.83837 -1.45752,2.80517 -1.45019,0.97412 -4.21875,0.97412 -2.76123,0 -4.21875,-0.97412 -1.45019,-0.9668 -1.45019,-2.80517 0,-1.83838 1.45019,-2.8125 1.45752,-0.9668 4.21875,-0.9668 2.76856,0 4.21875,0.9668 1.45752,0.97412 1.45752,2.8125 z m 383.42578,-1.97754 q 0,1.14257 1.12793,1.72119 1.12061,0.57129 3.37647,0.57129 2.24853,0 3.37646,-0.57129 1.12061,-0.57862 1.12061,-1.72119 0,-1.14991 -1.12061,-1.7212 -1.12793,-0.57861 -3.37646,-0.57861 -2.25586,0 -3.37647,0.57861 -1.12793,0.57129 -1.12793,1.7212 z m -1.17187,0 q 0,-1.83838 1.45752,-2.80518 1.45019,-0.97412 4.21875,-0.97412 2.76123,0 4.21875,0.97412 1.45019,0.9668 1.45019,2.80518 0,1.83837 -1.45019,2.8125 -1.45752,0.96679 -4.21875,0.96679 -2.76856,0 -4.21875,-0.96679 -1.45752,-0.97413 -1.45752,-2.8125 z m -25.33852,-424.25479 1.76641,6.70134 2.52923,-2.74879 z m -1.21144,-0.58718 1.25966,-1.369 5.24424,4.82539 1.05633,-1.14802 0.90549,0.83316 -1.05633,1.14802 1.89719,1.74567 -0.99682,1.08334 -1.89719,-1.74566 -3.34257,3.6327 -1.051,-0.96706 z m -1.64495,16.0985 1.63657,-1.77862 -6.13895,-5.64864 -1.39232,2.29199 -0.99172,-0.91251 1.3824,-2.28121 1.00178,-1.08873 7.13066,6.56114 1.63657,-1.77862 0.91626,0.84307 -4.26499,4.6352 z m 13.15424,39.57361 3.74634,-5.83036 -3.73535,-0.007 z m 0.38576,1.2898 -1.86035,-0.004 0.0134,-7.12646 -1.56006,-0.003 0.002,-1.23046 1.56005,0.003 0.005,-2.57811 1.47216,0.003 -0.005,2.57811 4.93651,0.009 -0.003,1.42823 z m 12.97861,-9.66552 -2.41699,-0.005 -0.0157,8.34226 2.63038,-0.52239 -0.003,1.34765 -2.61573,0.52243 -1.47949,-0.003 0.0182,-9.68992 -2.41699,-0.005 0.002,-1.24512 6.29882,0.0119 z m -32.49958,158.95198 q -0.50367,-0.96216 -0.33035,-1.8771 0.16864,-0.92057 0.98014,-1.59426 1.24541,-1.03391 2.6384,-0.74342 1.39299,0.2905 2.70292,1.8684 0.43977,0.52973 0.80053,1.18215 0.36171,0.64212 0.64911,1.41257 l -1.0989,0.91228 q -0.11684,-0.70262 -0.4438,-1.38311 -0.32694,-0.6805 -0.83688,-1.29475 -0.88888,-1.07072 -1.77469,-1.27775 -0.89048,-0.21266 -1.69635,0.45634 -0.74386,0.61754 -0.7258,1.48783 0.008,0.86933 0.77968,1.79916 l 0.81404,0.98055 -0.93548,0.77661 -0.85145,-1.02564 q -0.69708,-0.83967 -1.39915,-1.00884 -0.70772,-0.1645 -1.33888,0.35948 -0.64806,0.538 -0.6082,1.28548 0.0296,0.74652 0.74066,1.6031 0.3883,0.46773 0.93418,0.91889 0.54588,0.45114 1.29336,0.91581 l -1.01437,0.8421 q -0.71834,-0.49837 -1.27634,-0.98705 -0.56268,-0.49432 -0.97905,-0.99586 -1.07602,-1.29614 -1.1112,-2.54251 -0.0408,-1.24168 0.96228,-2.07442 0.69879,-0.58012 1.51559,-0.58234 0.81117,0.002 1.61,0.5863 z m 12.3715,7.62107 -1.54385,-1.85967 -6.41869,5.32862 2.08527,1.68626 -1.03691,0.86081 -2.07591,-1.67498 -0.94503,-1.13835 7.4556,-6.18944 -1.54385,-1.85967 0.95801,-0.79531 4.02337,4.84641 z m 20.97226,-46.53537 q 1.06158,0.22905 1.6535,0.94795 0.59922,0.71889 0.59724,1.77358 -0.003,1.61865 -1.118,2.50278 -1.11494,0.88413 -3.16572,0.88027 -0.68848,-0.001 -1.42063,-0.14183 -0.72485,-0.1332 -1.50071,-0.40566 l 0.003,-1.42821 q 0.61456,0.36003 1.34663,0.54452 0.73208,0.18448 1.53042,0.18598 1.39159,0.003 2.11773,-0.54532 0.73345,-0.54794 0.73542,-1.5953 0.002,-0.9668 -0.67831,-1.51007 -0.67279,-0.55059 -1.88128,-0.55286 l -1.27442,-0.002 0.002,-1.21582 1.33301,0.003 q 1.09131,0.002 1.67073,-0.42898 0.57945,-0.43836 0.58099,-1.25867 0.002,-0.84229 -0.59816,-1.29019 -0.5924,-0.45523 -1.70568,-0.45732 -0.60791,-10e-4 -1.30396,0.12938 -0.69605,0.13053 -1.53154,0.40728 l 0.002,-1.31836 q 0.84273,-0.23279 1.57537,-0.3486 0.73997,-0.11579 1.39182,-0.11456 1.68457,0.003 2.66457,0.77406 0.98,0.76356 0.97755,2.06727 -0.002,0.9082 -0.52292,1.53711 -0.52119,0.62157 -1.48111,0.86146 z m -13.77478,4.62495 2.41698,0.005 0.0157,-8.34227 -2.63038,0.52239 0.003,-1.34766 2.61573,-0.52242 1.47949,0.003 -0.0182,9.68992 2.41699,0.005 -0.002,1.24512 -6.29882,-0.0119 z m 46.08789,-66.70427 0.01,-5.16357 1.24512,0.002 -0.0131,6.94334 -1.24511,-0.002 q -0.87,-0.84392 -2.33211,-2.29687 -1.46942,-1.46029 -1.89352,-1.83462 -0.797,-0.71195 -1.3458,-0.99131 -0.5561,-0.2867 -1.09076,-0.2877 -0.87159,-0.002 -1.42206,0.61256 -0.55046,0.60688 -0.55231,1.58831 -0.001,0.6958 0.23893,1.47263 0.24025,0.76949 0.72932,1.64932 l -1.49414,-0.003 q -0.35721,-0.89422 -0.53885,-1.67094 -0.18164,-0.77671 -0.18043,-1.42124 0.003,-1.69922 0.85471,-2.70836 0.85151,-1.00913 2.27241,-1.00646 0.67383,0.001 1.28125,0.25876 0.60012,0.25015 1.41918,0.9182 0.21205,0.18351 1.22827,1.16686 1.00889,0.98335 2.82926,2.77389 z m -0.0199,10.55805 0.005,-2.41698 -8.34228,-0.0157 0.5224,2.63039 -1.34766,-0.003 -0.52241,-2.61573 0.003,-1.47949 9.68993,0.0182 0.005,-2.41699 1.24511,0.002 -0.0118,6.29882 z m -741.634534,-3.05715 -0.0097,5.16357 -1.245115,-0.002 0.01307,-6.94335 1.245114,0.002 q 0.869995,0.84392 2.332106,2.29688 1.46942,1.46029 1.893521,1.83461 0.797001,0.71196 1.345792,0.99131 0.556103,0.2867 1.09077,0.2877 0.87158,0.002 1.422054,-0.61256 0.55046,-0.60687 0.552308,-1.58831 0.0013,-0.6958 -0.238927,-1.47263 -0.240252,-0.76949 -0.729318,-1.64932 l 1.494137,0.003 q 0.357204,0.89424 0.538848,1.67094 0.181644,0.77671 0.180434,1.42124 -0.003,1.69922 -0.854714,2.70836 -0.851511,1.00915 -2.272407,1.00647 -0.673827,-0.001 -1.281253,-0.25876 -0.600116,-0.25016 -1.419173,-0.91821 -0.212056,-0.18351 -1.228274,-1.16686 -1.008892,-0.98335 -2.829254,-2.77389 z m 0.01988,-10.55805 -0.0046,2.41698 8.34227,0.0157 -0.522393,-2.63038 1.347654,0.003 0.52242,2.61573 -0.0028,1.47949 -9.689924,-0.0182 -0.0046,2.41699 -1.245114,-0.002 0.01186,-6.29882 z m 680.407494,161.73574 1.85968,-1.54385 -5.32862,-6.41868 -1.68627,2.08526 -0.86081,-1.0369 1.67499,-2.07592 1.13834,-0.94502 6.18944,7.45559 1.85967,-1.54385 0.79531,0.95802 -4.84641,4.02337 z m -7.34024,6.09367 1.85968,-1.54386 -5.32862,-6.41868 -1.68626,2.08527 -0.86081,-1.0369 1.67499,-2.07592 1.13834,-0.94502 6.18943,7.45559 1.85967,-1.54385 0.79532,0.95801 -4.84642,4.02337 z m -637.69158,-68.21108 1.85384,1.55084 5.35275,-6.39857 -2.35512,-1.28266 0.86471,-1.03366 2.34389,1.27326 1.13478,0.9493 -6.21747,7.43223 1.85385,1.55084 -0.79892,0.95502 -4.83123,-4.04158 z m -7.31723,-6.12126 1.85384,1.55084 5.35275,-6.39857 -2.35513,-1.28266 0.86472,-1.03366 2.34389,1.27326 1.13477,0.9493 -6.21746,7.43223 1.85385,1.55085 -0.79892,0.95501 -4.83123,-4.04159 z m 515.81825,89.70187 q 0.87912,-0.72982 0.60385,-1.96725 -0.27622,-1.22712 -1.71715,-2.96282 -1.43625,-1.73006 -2.59628,-2.23299 -1.16097,-0.49263 -2.04009,0.2372 -0.88475,0.73449 -0.60853,1.96161 0.27527,1.23744 1.71152,2.9675 1.44093,1.7357 2.60191,2.22831 1.16002,0.50294 2.04477,-0.23156 z m 0.74854,0.90166 q -1.41448,1.17426 -3.08934,0.67037 -1.67582,-0.49359 -3.44422,-2.62376 -1.76373,-2.12453 -1.94522,-3.86819 -0.18244,-1.73334 1.23204,-2.90761 1.41447,-1.17426 3.09029,-0.68067 1.67485,0.5039 3.43858,2.62844 1.76841,2.13016 1.95086,3.8635 0.18149,1.74366 -1.23299,2.91792 z m 3.26171,-15.5587 -1.85968,1.54385 5.32862,6.41869 1.68626,-2.08528 0.86082,1.03691 -1.67499,2.07591 -1.13835,0.94503 -6.18943,-7.45559 -1.85967,1.54384 -0.79531,-0.958 4.84641,-4.02337 z m -15.54865,-51.19756 q -1.14258,-0.002 -1.72331,1.12469 -0.5734,1.11952 -0.57764,3.37538 -0.004,2.24853 0.56493,3.37754 0.5765,1.12169 1.71907,1.12384 1.1499,0.002 1.7233,-1.11736 0.58074,-1.12684 0.58498,-3.37538 0.004,-2.25585 -0.57226,-3.37754 -0.56917,-1.129 -1.71907,-1.13117 z m 0.002,-1.17188 q 1.83838,0.003 2.80243,1.4628 0.97139,1.45203 0.96617,4.22058 -0.005,2.76122 -0.98206,4.21691 -0.96952,1.44838 -2.8079,1.44491 -1.83838,-0.003 -2.80977,-1.45549 -0.96405,-1.45934 -0.95885,-4.22056 0.005,-2.76855 0.97474,-4.21692 0.97686,-1.45569 2.81524,-1.45223 z m -12.46608,9.86425 2.41699,0.005 0.0157,-8.34227 -2.63038,0.5224 0.003,-1.34766 2.61572,-0.52242 1.47949,0.003 -0.0182,9.68992 2.41699,0.005 -0.002,1.24512 -6.29882,-0.0119 z m -1.63015,115.95716 1.03691,-0.86081 q 0.15268,0.59671 0.41052,1.12515 0.25784,0.52845 0.60872,0.95111 0.93566,1.12707 2.18202,1.09188 1.25668,-0.0342 2.87095,-1.23156 -0.75599,0.0755 -1.43159,-0.21086 -0.67559,-0.28634 -1.18086,-0.89496 -1.04794,-1.26232 -0.90002,-2.63212 0.15822,-1.36886 1.48253,-2.46826 1.29614,-1.07602 2.7157,-0.9599 1.41957,0.11612 2.47688,1.38972 1.21169,1.45955 0.7265,3.15695 -0.47487,1.69836 -2.60504,3.46677 -1.98929,1.65145 -3.96431,1.69183 -1.96471,0.0414 -3.28868,-1.55346 -0.35555,-0.42829 -0.63592,-0.93802 -0.28038,-0.50973 -0.50431,-1.12346 z m 5.44788,-0.69596 q 0.63625,0.76641 1.52993,0.77651 0.89836,0.0158 1.81129,-0.74214 0.90729,-0.75321 1.05711,-1.63913 0.16014,-0.88495 -0.47611,-1.65136 -0.63626,-0.76642 -1.54024,-0.77748 -0.89369,-0.0101 -1.80098,0.7431 -0.91293,0.75789 -1.06743,1.63817 -0.14982,0.88591 0.48643,1.65233 z m -480.03128,79.72883 1.34766,0.003 q -0.26472,0.55615 -0.40495,1.12717 -0.14024,0.57103 -0.14127,1.12034 -0.003,1.46485 0.97723,2.23573 0.98731,0.77823 2.99394,0.89187 -0.62909,-0.42598 -0.96478,-1.07848 -0.33568,-0.65248 -0.33419,-1.4435 0.003,-1.64062 0.99365,-2.59823 0.9979,-0.95027 2.71908,-0.94703 1.68457,0.003 2.70076,1.00118 1.01618,0.99801 1.01307,2.65328 -0.004,1.89697 -1.46297,2.89031 -1.45207,1.00069 -4.22063,0.99548 -2.58544,-0.005 -4.12853,-1.23824 -1.53578,-1.22604 -1.53188,-3.29879 0.001,-0.55664 0.11199,-1.12773 0.11093,-0.57108 0.33182,-1.18589 z m 4.63068,2.95306 q -0.002,0.99609 0.67818,1.57598 0.68006,0.58722 1.86658,0.58946 1.1792,0.002 1.86145,-0.58244 0.68957,-0.57731 0.69144,-1.5734 0.002,-0.9961 -0.6855,-1.58334 -0.68006,-0.57989 -1.85926,-0.58211 -1.18651,-0.002 -1.86876,0.5751 -0.68226,0.58465 -0.68413,1.58075 z m 543.6861,-93.96493 q -0.81149,0.67368 -0.91899,1.49591 -0.10187,0.81754 0.5297,1.57832 0.63158,0.76077 1.45391,0.81107 0.82797,0.0456 1.63946,-0.62805 0.81149,-0.67368 0.91899,-1.49591 0.10284,-0.82786 -0.52406,-1.583 -0.63158,-0.76077 -1.45954,-0.80639 -0.82233,-0.0503 -1.63947,0.62805 z m -1.54068,0.46039 q -0.88231,0.42784 -1.71005,0.26781 -0.82213,-0.1647 -1.42095,-0.88603 -0.83742,-1.00873 -0.60827,-2.18896 0.23478,-1.1849 1.48582,-2.22349 1.25669,-1.04327 2.45893,-1.05134 1.20225,-0.008 2.03966,1.00066 0.59883,0.72132 0.60382,1.56439 0.0106,0.83839 -0.56663,1.62223 0.98183,-0.49144 1.90145,-0.31248 0.92525,0.17428 1.59425,0.98014 1.0152,1.22288 0.80838,2.49879 -0.20118,1.27124 -1.59312,2.42679 -1.39194,1.15555 -2.68413,1.12406 -1.28655,-0.0362 -2.30175,-1.25903 -0.669,-0.80585 -0.67005,-1.74738 -10e-4,-0.94153 0.66264,-1.81616 z m -1.9094,-1.4515 q 0.54268,0.65371 1.25252,0.68317 0.71548,0.0248 1.45371,-0.58808 0.7326,-0.60818 0.83989,-1.316 0.11292,-0.7125 -0.42977,-1.3662 -0.54268,-0.6537 -1.26379,-0.67381 -0.71548,-0.0248 -1.44808,0.58341 -0.73823,0.61286 -0.84552,1.32068 -0.10165,0.70313 0.44104,1.35683 z M 190.6325,438.98435 q -1.05469,-0.002 -1.66366,0.56084 -0.60164,0.56282 -0.6035,1.55159 -0.002,0.98877 0.59766,1.55387 0.60684,0.5651 1.66153,0.56709 1.05469,0.002 1.66366,-0.56083 0.60898,-0.57014 0.61083,-1.55159 0.002,-0.98877 -0.60498,-1.55387 -0.59953,-0.5651 -1.66154,-0.5671 z m -1.4783,-0.63267 q -0.95171,-0.23616 -1.48515,-0.88903 -0.52611,-0.65284 -0.52435,-1.59034 0.002,-1.31103 0.93407,-2.071 0.93894,-0.75995 2.56491,-0.75689 1.6333,0.003 2.56205,0.76654 0.92873,0.76347 0.92626,2.07451 -0.002,0.9375 -0.53766,1.58834 -0.52857,0.65087 -1.47383,0.88346 1.06886,0.25103 1.66076,0.97725 0.59922,0.72623 0.59725,1.77358 -0.003,1.58936 -0.97871,2.43713 -0.9684,0.84779 -2.77748,0.84439 -1.80907,-0.003 -2.78159,-0.85485 -0.9652,-0.85143 -0.96221,-2.44079 0.002,-1.04736 0.60392,-1.77132 0.60195,-0.72397 1.67176,-0.97098 z m -0.5376,-2.33743 q -0.002,0.8496 0.52485,1.32667 0.53377,0.47707 1.49324,0.47888 0.95215,0.002 1.48772,-0.47327 0.54288,-0.47505 0.54448,-1.32466 0.002,-0.84961 -0.53949,-1.32671 -0.53377,-0.47707 -1.48592,-0.47886 -0.95947,-0.002 -1.49504,0.47325 -0.52824,0.47509 -0.52984,1.3247 z m -13.04072,234.91754 7.03124,0.0132 -0.001,0.62988 -3.98912,10.29768 -1.54541,-0.003 3.75359,-9.6829 -5.25145,-0.01 z m 332.55561,-145.96369 0.0132,-7.03124 0.62988,10e-4 10.29769,3.98911 -0.003,1.54541 -9.6829,-3.75359 -0.01,5.25146 z m -331.326,81.06018 q 0.99609,0.002 1.58331,-0.67818 0.57989,-0.68006 0.58213,-1.86657 0.002,-1.1792 -0.5751,-1.86877 -0.58465,-0.68225 -1.58074,-0.68413 -0.9961,-0.002 -1.57599,0.67819 -0.58723,0.68737 -0.58945,1.86657 -0.002,1.18652 0.58242,1.86877 0.57732,0.68225 1.57342,0.68412 z m -2.94574,4.6307 0.003,-1.34766 q 0.55615,0.26472 1.12717,0.40495 0.5637,0.14022 1.12034,0.14127 1.46484,0.003 2.24307,-0.98455 0.7709,-0.98732 0.88453,-2.98662 -0.43332,0.6364 -1.08582,0.97208 -0.65249,0.34301 -1.43618,0.34154 -1.64795,-0.003 -2.59821,-1.00832 -0.95759,-0.99789 -0.95435,-2.71908 0.003,-1.68457 1.00117,-2.70076 0.99801,-1.01619 2.65329,-1.01308 1.89696,0.004 2.89765,1.45566 1.00067,1.45941 0.99548,4.22063 -0.005,2.59277 -1.23825,4.12854 -1.23338,1.54309 -3.30613,1.53919 -0.55664,-10e-4 -1.12039,-0.11197 -0.57109,-0.11095 -1.18591,-0.33182 z m 88.24456,-87.26047 q 0.002,-0.99609 -0.67817,-1.58331 -0.68006,-0.57989 -1.86658,-0.58213 -1.17919,-0.002 -1.86876,0.57509 -0.68225,0.58466 -0.68413,1.58075 -0.002,0.9961 0.67818,1.57599 0.68738,0.58723 1.86658,0.58945 1.18652,0.002 1.86877,-0.58242 0.68224,-0.57732 0.68411,-1.57342 z m 4.63069,2.94574 -1.34764,-0.003 q 0.26471,-0.55615 0.40495,-1.12717 0.14022,-0.5637 0.14127,-1.12034 0.003,-1.46484 -0.98455,-2.24307 -0.98732,-0.7709 -2.98662,-0.88453 0.6364,0.43332 0.97208,1.08582 0.34301,0.65249 0.34153,1.43618 -0.003,1.64795 -1.00831,2.59821 -0.99789,0.95759 -2.71908,0.95435 -1.68457,-0.003 -2.70076,-1.00117 -1.01619,-0.99801 -1.01308,-2.65329 0.004,-1.89696 1.45566,-2.89765 1.45941,-1.00067 4.22063,-0.99547 2.59277,0.005 4.12854,1.23824 1.54309,1.23338 1.53919,3.30613 -10e-4,0.55664 -0.11198,1.12039 -0.11094,0.57109 -0.33183,1.18591 z m 30.89449,144.81727 5.80809,0.0109 -0.002,1.24511 -4.45311,-0.008 -0.005,2.68067 q 0.32247,-0.10926 0.64483,-0.15993 0.32238,-0.058 0.64464,-0.0574 1.83106,0.003 2.8985,1.00887 1.06745,1.00544 1.06422,2.71929 -0.003,1.76514 -1.10381,2.74452 -1.10046,0.97205 -3.09997,0.96828 -0.68848,-0.001 -1.40602,-0.11983 -0.71023,-0.11853 -1.47151,-0.35433 l 0.003,-1.48682 q 0.6585,0.36013 1.3613,0.53723 0.70279,0.17711 1.48648,0.17858 1.26708,0.002 2.00809,-0.66272 0.741,-0.66511 0.74315,-1.80769 0.002,-1.14257 -0.73634,-1.81047 -0.73849,-0.66789 -2.00558,-0.67028 -0.59326,-10e-4 -1.18677,0.1296 -0.58618,0.13073 -1.20194,0.40789 z m 175.62153,-84.56715 5.8081,0.0109 -0.002,1.24511 -4.45312,-0.008 -0.005,2.68066 q 0.32248,-0.10926 0.64484,-0.15992 0.32237,-0.058 0.64464,-0.0574 1.83105,0.003 2.8985,1.00887 1.06743,1.00543 1.06421,2.7193 -0.003,1.76514 -1.1038,2.74451 -1.10046,0.97205 -3.09997,0.96828 -0.68848,-10e-4 -1.40603,-0.11984 -0.71022,-0.11851 -1.4715,-0.35433 l 0.003,-1.4868 q 0.6585,0.36012 1.36129,0.53722 0.7028,0.17711 1.48648,0.17859 1.26709,0.002 2.00809,-0.66273 0.741,-0.66511 0.74315,-1.80769 0.002,-1.14257 -0.73634,-1.81046 -0.73849,-0.66791 -2.00557,-0.67029 -0.59326,-10e-4 -1.18677,0.1296 -0.58619,0.13074 -1.20195,0.4079 z m -139.5088,52.93574 5.83035,3.74634 0.007,-3.73535 z m -1.28979,0.38576 0.004,-1.86035 7.12645,0.0134 0.003,-1.56006 1.23047,0.002 -0.003,1.56006 2.57812,0.005 -0.003,1.47216 -2.57812,-0.005 -0.009,4.93652 -1.42822,-0.003 z m 56.66955,-52.19241 -3.74634,5.83036 3.73535,0.007 z m -0.38575,-1.2898 1.86034,0.004 -0.0134,7.12645 1.56006,0.003 -0.002,1.23047 -1.56006,-0.003 -0.005,2.57812 -1.47216,-0.003 0.005,-2.57811 -4.93651,-0.009 0.003,-1.42821 z M 735.91496,169.97932 q -0.62777,-0.88618 -0.57833,-1.81609 0.044,-0.93485 0.75819,-1.71098 1.09601,-1.19113 2.51532,-1.08948 1.41932,0.10165 2.92846,1.49025 0.50664,0.46617 0.95139,1.06451 0.44432,0.58798 0.83213,1.31308 l -0.96706,1.05101 q -0.20973,-0.68068 -0.62472,-1.31135 -0.415,-0.63068 -1.00248,-1.17125 -1.02406,-0.94226 -1.92959,-1.02899 -0.91093,-0.0917 -1.62011,0.67904 -0.65463,0.71145 -0.52036,1.57151 0.1239,0.86048 1.01322,1.67877 l 0.93781,0.86291 -0.82324,0.8947 -0.98093,-0.90258 q -0.80308,-0.73894 -1.52147,-0.81273 -0.72335,-0.0684 -1.27879,0.53525 -0.57032,0.61983 -0.43087,1.35527 0.12909,0.73587 0.94834,1.48968 0.44735,0.41162 1.04864,0.78574 0.6013,0.37411 1.40419,0.73466 l -0.89268,0.97016 q -0.77852,-0.39784 -1.39683,-0.80754 -0.62372,-0.41465 -1.10342,-0.85603 -1.23964,-1.14064 -1.44114,-2.37111 -0.20647,-1.22508 0.67628,-2.18446 0.61495,-0.66833 1.42413,-0.77974 0.80421,-0.10602 1.67392,0.36579 z m -641.8037,64.73822 q -0.93733,0.54849 -1.85942,0.41852 -0.92751,-0.12503 -1.63873,-0.90384 -1.09151,-1.19526 -0.86704,-2.6004 0.22446,-1.40513 1.73881,-2.78804 0.50839,-0.46427 1.14307,-0.8554 0.62434,-0.39161 1.38037,-0.71503 l 0.9631,1.05464 q -0.69632,0.14986 -1.36063,0.50855 -0.66431,0.35869 -1.25383,0.89703 -1.0276,0.93841 -1.19261,1.83299 -0.17042,0.89953 0.53585,1.67293 0.65195,0.71391 1.52041,0.65481 0.868,-0.0488 1.76039,-0.86369 l 0.94106,-0.85937 0.81987,0.89779 -0.98433,0.89889 q -0.80586,0.73591 -0.94172,1.44518 -0.13093,0.71468 0.42223,1.32042 0.56799,0.62197 1.31276,0.54689 0.74429,-0.0647 1.56637,-0.81546 0.44889,-0.40993 0.87379,-0.97649 0.4249,-0.56655 0.85378,-1.33511 l 0.88901,0.97352 q -0.46392,0.74104 -0.92574,1.32147 -0.46722,0.58538 -0.94857,1.02494 -1.24393,1.13596 -2.48725,1.2299 -1.23838,0.0993 -2.11752,-0.86335 -0.61243,-0.67064 -0.65318,-1.48643 -0.0358,-0.81038 0.5097,-1.63586 z m 588.4178,-67.02968 -3.4963,3.79979 -0.91625,-0.84308 4.70141,-5.1095 0.91625,0.84308 q 0.0711,1.20998 0.16708,3.26901 0.0965,2.06938 0.15613,2.6319 0.10643,1.06337 0.32221,1.64013 0.21621,0.58711 0.60967,0.94914 0.64138,0.59015 1.46219,0.50936 0.81585,-0.0754 1.4804,-0.79764 0.47113,-0.51203 0.81895,-1.247 0.34287,-0.72958 0.57686,-1.70862 l 1.09952,1.0117 q -0.34093,0.90055 -0.73188,1.59585 -0.39093,0.69529 -0.82736,1.1696 -1.15055,1.25042 -2.46015,1.41893 -1.30959,0.16851 -2.35521,-0.79359 -0.49586,-0.45626 -0.76963,-1.05652 -0.27334,-0.58991 -0.4257,-1.63583 -0.0323,-0.27856 -0.11695,-1.69013 -0.0793,-1.40661 -0.21124,-3.95658 z m -33.82991,-12.04764 0.01,-5.16357 1.24512,0.002 -0.0131,6.94335 -1.24512,-0.002 q -0.86999,-0.84393 -2.33211,-2.29687 -1.46942,-1.46029 -1.89352,-1.83463 -0.797,-0.71194 -1.34579,-0.9913 -0.5561,-0.28669 -1.09077,-0.2877 -0.87158,-0.002 -1.42205,0.61256 -0.55046,0.60688 -0.55231,1.58832 -10e-4,0.69579 0.23893,1.47262 0.24025,0.76949 0.72931,1.64932 l -1.49413,-0.003 q -0.35721,-0.89423 -0.53885,-1.67094 -0.18165,-0.77671 -0.18043,-1.42124 0.003,-1.69922 0.85471,-2.70835 0.85151,-1.00915 2.27241,-1.00648 0.67382,0.001 1.28125,0.25877 0.60011,0.25016 1.41917,0.9182 0.21206,0.1835 1.22828,1.16686 1.00889,0.98335 2.82925,2.77389 z m -106.15452,-40.4991 -2.417,-0.005 -0.0157,8.34227 2.63038,-0.52239 -0.003,1.34765 -2.61574,0.52242 -1.47949,-0.003 0.0182,-9.68992 -2.41698,-0.005 0.002,-1.24512 6.29882,0.0119 z m -305.80264,84.32488 -2.417,-0.005 -0.0157,8.34228 2.63038,-0.5224 -0.003,1.34766 -2.61574,0.52241 -1.47949,-0.003 0.0182,-9.68992 -2.41698,-0.005 0.002,-1.24511 6.29882,0.0119 z m 205.4197,-43.81922 q 0.002,-1.14258 -1.12468,-1.72331 -1.11954,-0.5734 -3.37539,-0.57764 -2.24853,-0.004 -3.37753,0.56493 -1.1217,0.5765 -1.12385,1.71908 -0.002,1.14989 1.11737,1.72329 1.12684,0.58074 3.37536,0.58498 2.25586,0.004 3.37756,-0.57226 1.129,-0.56917 1.13116,-1.71907 z m 1.17187,0.002 q -0.003,1.83838 -1.4628,2.80243 -1.45202,0.97139 -4.22057,0.96618 -2.76123,-0.005 -4.21691,-0.98207 -1.44837,-0.96952 -1.44491,-2.8079 0.003,-1.83838 1.45548,-2.80977 1.45934,-0.96405 4.22057,-0.95885 2.76855,0.005 4.21692,0.97474 1.45568,0.97686 1.45222,2.81524 z m -56.17188,52.81895 q 1.14256,0.002 1.72331,-1.12468 0.5734,-1.11953 0.57764,-3.37538 0.004,-2.24854 -0.56493,-3.37754 -0.57651,-1.12169 -1.71908,-1.12384 -1.1499,-0.002 -1.72329,1.11736 -0.58075,1.12684 -0.58498,3.37537 -0.004,2.25586 0.57226,3.37754 0.56916,1.12901 1.71907,1.13117 z m -0.002,1.17188 q -1.83838,-0.003 -2.80243,-1.4628 -0.97139,-1.45203 -0.96618,-4.22057 0.005,-2.76123 0.98206,-4.21691 0.96953,-1.44838 2.80791,-1.44492 1.83838,0.003 2.80976,1.45549 0.96405,1.45934 0.95885,4.22057 -0.005,2.76854 -0.97473,4.21692 -0.97686,1.45568 -2.81524,1.45222 z" />
    <path
       id="path4740"
       style="fill:none;stroke:#ff0000;stroke-width:1;stroke-linecap:butt;stroke-linejoin:miter;stroke-miterlimit:10;stroke-dasharray:none;stroke-opacity:1"
       d="m 374.84245,683.71419 -15,-19.102 v -46.695 l 15,-19.105 m 407.519,0 v 84.902 m -311.3,0 h -96.219 m 0,-84.902 h 96.219 m 107.539,84.902 h -107.539 m 203.761,-84.902 h 107.539 m 0,84.902 h -107.539 m -96.222,-84.902 h 96.222 m -203.761,0 h 107.539 m 96.222,84.902 h -96.222 m 49.79233,-310.79587 -14.95674,-21.67513 0.0977,-52.92079 15.04049,-21.61975 m -481.10144,-0.90939 14.9569,21.67913 -0.0977,52.92078 -15.04049,21.61976 m 481.28275,-95.31028 -24.22351,14.95263 -59.14575,-0.11202 -24.17009,-15.04349 m 255.62203,-79.08689 -1.89716,24.21777 -31.61938,34.35877 -23.97156,3.90162 m 0,0 84.89999,0.15973 m -85.14606,130.01797 23.74428,5.11962 29.8279,35.9274 0.65762,24.27965 m 30.67019,-65.16695 -84.89999,-0.15972 m 85.14606,-130.01797 -0.24607,130.17769 M 56.696903,388.82453 41.750537,359.50637 41.888004,287.9068 56.942977,258.64684 m 716.209583,196.74857 -68.02777,56.473 M 124.5112,445.55521 99.62934,444.2952 62.331291,413.09134 56.696903,388.82453 M 550.73244,529.69931 650.89419,446.54678 m 0,0 -29.31833,14.94237 -71.59845,-0.13451 -29.26096,-15.05494 m 84.24659,148.72124 -54.2306,-65.32163 M 101.42781,683.22689 86.4639,664.09826 86.5503,617.40232 101.58752,598.3269 M 705.12479,511.86841 604.96304,595.02094 M 254.69273,445.79712 225.37456,460.74349 153.77611,460.60898 124.5112,445.55521 m 129.7327,237.96195 -152.81609,-0.29027 m 419.28864,-236.92719 14.9361,34.413 -0.16012,84.04827 -15.06525,34.35479 m -373.13569,-227.10283 24.2235,-14.95264 59.14576,0.11202 24.16908,15.04354 m 266.02477,0.50354 24.22329,-14.95763 59.1498,0.11285 24.16509,15.04371 m -373.56295,-0.70247 -14.96085,-21.67796 0.10171,-52.92095 15.04045,-21.62076 m 0,0 -24.22346,14.95364 -59.14963,-0.10885 -24.16526,-15.04771 m 373.56211,0.70651 14.96069,21.67396 -0.10071,52.92091 -15.04028,21.62475 m -419.26707,225.60751 152.81509,0.29031 m 0,0 -14.93509,-34.41303 0.16012,-84.04827 15.06508,-34.35879 m 90.1125,237.89049 -20.40282,14.96186 -49.80894,-0.094 -20.34957,-15.03827 m 266.18328,-84.40144 -90.56228,-0.16941 m -84.89999,-0.15973 14.96395,19.12963 -0.0864,46.69594 -15.03722,19.07542 m 85.05966,-84.74126 -84.89999,-0.15973 m 363.88862,-463.76176 67.8034,62.38802 m -719.713953,61.23396 5.194107,-25.05752 37.420046,-34.17469 25.42531,-2.90317 m 526.38199,0.99161 1.89836,-24.21282 31.61418,-34.36356 23.97656,-3.90183 m -57.32938,-22.42178 -0.15972,84.89999 m -220.5833,-85.31635 220.74302,0.41636 m -526.54171,83.90838 49.69244,-14.90608 121.40735,0.22755 49.63923,15.09505 m 84.89995,0.15873 0.15972,-84.89999 m -85.05967,84.74126 19.13263,-14.96407 46.69294,0.0865 19.07438,15.03627" />
    <path
       id="path4742"
       style="fill:none;stroke:#00ff00;stroke-width:1;stroke-linecap:butt;stroke-linejoin:miter;stroke-miterlimit:10;stroke-dasharray:8, 2, 2, 2;stroke-dashoffset:0;stroke-opacity:1"
       d="m 374.84245,683.71419 v -84.902 m 96.219,84.902 v -84.902 m 203.761,0 v 84.902 m -96.222,0 v -84.902 m -477.17264,84.4147 0.15972,-84.89999" />
  </g>
</svg>
