<?xml version="1.0" encoding="UTF-8" standalone="no"?>
<!-- Created with Inkscape (http://www.inkscape.org/) -->

<svg
   version="1.1"
   id="svg6493"
   width="1132"
   height="1132"
   viewBox="0 0 1132 1132"
   sodipodi:docname="Q.svg"
   inkscape:version="1.2.2 (732a01da63, 2022-12-09, custom)"
   xmlns:inkscape="http://www.inkscape.org/namespaces/inkscape"
   xmlns:sodipodi="http://sodipodi.sourceforge.net/DTD/sodipodi-0.dtd"
   xmlns="http://www.w3.org/2000/svg"
   xmlns:svg="http://www.w3.org/2000/svg">
  <defs
     id="defs6497" />
  <sodipodi:namedview
     id="namedview6495"
     pagecolor="#ffffff"
     bordercolor="#666666"
     borderopacity="1.0"
     inkscape:showpageshadow="2"
     inkscape:pageopacity="0.0"
     inkscape:pagecheckerboard="0"
     inkscape:deskcolor="#d1d1d1"
     showgrid="false"
     showguides="true"
     inkscape:zoom="0.93323103"
     inkscape:cx="568.99094"
     inkscape:cy="632.74792"
     inkscape:window-width="1920"
     inkscape:window-height="1009"
     inkscape:window-x="0"
     inkscape:window-y="0"
     inkscape:window-maximized="1"
     inkscape:current-layer="g6501">
    <inkscape:page
       x="0"
       y="0"
       id="page6499"
       width="1132"
       height="1132" />
  </sodipodi:namedview>
  <g
     id="g6501"
     inkscape:groupmode="layer"
     inkscape:label="Page 1"
     transform="matrix(1.3333333,0,0,1.3333333,0,2.83e-5)">
    <path
       id="path8400"
       style="font-size:15px;font-family:'DejaVu Sans';-inkscape-font-specification:DejaVuSans;fill:#0000ff"
       d="m 596.61597,340.04498 0.0167,-5.16355 1.24511,0.004 -0.0225,6.94332 -1.24511,-0.004 q -0.86885,-0.8451 -2.329,-2.30003 -1.46743,-1.46228 -1.89103,-1.83719 -0.79603,-0.71303 -1.34445,-0.99312 -0.55571,-0.28746 -1.09037,-0.28919 -0.87158,-0.003 -1.42288,0.61064 -0.55129,0.60613 -0.55447,1.58756 -0.002,0.6958 0.23693,1.47295 0.23921,0.76981 0.72708,1.65031 l -1.49413,-0.005 q -0.35599,-0.89472 -0.53658,-1.67167 -0.18059,-0.77695 -0.17851,-1.42148 0.006,-1.69921 0.85839,-2.7072 0.85287,-1.00798 2.27377,-1.00338 0.67382,0.002 1.2809,0.26049 0.59978,0.25098 1.41793,0.92013 0.2118,0.18379 1.22669,1.16853 1.00756,0.98471 2.82549,2.77772 z m -0.0309,9.53992 0.0167,-5.16354 1.24511,0.004 -0.0225,6.94332 -1.24512,-0.004 q -0.86884,-0.84511 -2.32899,-2.30003 -1.46743,-1.46228 -1.89103,-1.8372 -0.79604,-0.71303 -1.34445,-0.99312 -0.55571,-0.28745 -1.09037,-0.28918 -0.87159,-0.003 -1.42289,0.61063 -0.55128,0.60613 -0.55446,1.58757 -0.002,0.6958 0.23693,1.47295 0.23921,0.76981 0.72708,1.65031 l -1.49413,-0.005 q -0.356,-0.89472 -0.53658,-1.67167 -0.1806,-0.77695 -0.17851,-1.42148 0.005,-1.69921 0.85838,-2.7072 0.85288,-1.00799 2.27377,-1.00339 0.67383,0.002 1.28091,0.2605 0.59978,0.25097 1.41792,0.92013 0.21181,0.18378 1.2267,1.16853 1.00755,0.9847 2.82549,2.77771 z m -345.4238,-2.31062 -0.0167,5.16355 -1.24512,-0.004 0.0225,-6.94332 1.24511,0.004 q 0.86885,0.84511 2.32899,2.30004 1.46744,1.46227 1.89103,1.83719 0.79603,0.71303 1.34445,0.99313 0.55571,0.28744 1.09038,0.28917 0.87157,0.003 1.42288,-0.61063 0.55128,-0.60612 0.55446,-1.58757 0.002,-0.69579 -0.23694,-1.47294 -0.23919,-0.76982 -0.72708,-1.65032 l 1.49414,0.005 q 0.35599,0.89472 0.53659,1.67168 0.18058,0.77695 0.17849,1.42147 -0.005,1.69921 -0.85838,2.70721 -0.85288,1.00798 -2.27377,1.00338 -0.67381,-0.002 -1.28089,-0.2605 -0.59978,-0.25096 -1.41793,-0.92013 -0.21182,-0.18378 -1.22669,-1.16852 -1.00756,-0.98471 -2.82549,-2.77772 z m 0.0309,-9.53996 -0.0167,5.16355 -1.24511,-0.004 0.0225,-6.94332 1.24511,0.004 q 0.86885,0.84511 2.32899,2.30004 1.46744,1.46227 1.89103,1.83719 0.79603,0.71303 1.34445,0.99313 0.55571,0.28744 1.09038,0.28917 0.87158,0.003 1.42288,-0.61063 0.55128,-0.60612 0.55446,-1.58757 0.002,-0.69579 -0.23693,-1.47294 -0.2392,-0.76982 -0.72708,-1.65031 l 1.49413,0.005 q 0.35599,0.89471 0.53659,1.67167 0.18058,0.77695 0.1785,1.42148 -0.006,1.6992 -0.85838,2.7072 -0.85288,1.00798 -2.27378,1.00338 -0.67381,-0.002 -1.28089,-0.2605 -0.59978,-0.25096 -1.41793,-0.92013 -0.21181,-0.18378 -1.22669,-1.16852 -1.00756,-0.98471 -2.82549,-2.77772 z m -28.13736,2.17751 0.008,-2.41698 -8.34225,-0.027 0.51884,2.63109 -1.34766,-0.004 -0.51887,-2.61645 0.005,-1.47948 9.68989,0.0314 0.008,-2.41698 1.24511,0.004 -0.0204,6.29879 z m -0.0276,8.52187 0.0167,-5.16355 1.24511,0.004 -0.0225,6.94333 -1.24512,-0.004 q -0.86885,-0.84509 -2.32899,-2.30003 -1.46744,-1.46228 -1.89103,-1.83718 -0.79604,-0.71303 -1.34445,-0.99313 -0.55572,-0.28745 -1.09038,-0.28918 -0.87158,-0.003 -1.42288,0.61063 -0.55128,0.60613 -0.55446,1.58756 -0.002,0.6958 0.23693,1.47295 0.23921,0.76982 0.72708,1.65031 l -1.49413,-0.005 q -0.356,-0.89471 -0.53658,-1.67166 -0.1806,-0.77696 -0.17851,-1.42149 0.006,-1.69921 0.85838,-2.70719 0.85288,-1.00799 2.27377,-1.00339 0.67383,0.002 1.28091,0.26049 0.59977,0.25098 1.41792,0.92013 0.21181,0.1838 1.2267,1.16853 1.00755,0.98472 2.82549,2.77772 z m 401.69525,-1.02631 -0.008,2.41698 8.34224,0.027 -0.51883,-2.63109 1.34765,0.004 0.51888,2.61643 -0.005,1.47948 -9.68988,-0.0314 -0.008,2.41699 -1.24511,-0.004 0.0204,-6.2988 z m 0.0276,-8.52186 -0.0167,5.16354 -1.24511,-0.004 0.0225,-6.94332 1.24512,0.004 q 0.86884,0.84511 2.32898,2.30003 1.46744,1.46228 1.89104,1.8372 0.79604,0.71303 1.34444,0.99312 0.55571,0.28745 1.09038,0.28918 0.87158,0.003 1.42289,-0.61063 0.55128,-0.60613 0.55446,-1.58757 0.002,-0.6958 -0.23693,-1.47295 -0.23921,-0.76981 -0.72709,-1.65031 l 1.49413,0.005 q 0.35599,0.89472 0.53659,1.67168 0.18058,0.77694 0.1785,1.42147 -0.006,1.69921 -0.85838,2.70721 -0.85288,1.00798 -2.27376,1.00338 -0.67383,-0.002 -1.28091,-0.2605 -0.59978,-0.25096 -1.41793,-0.92013 -0.2118,-0.18378 -1.22669,-1.16853 -1.00755,-0.9847 -2.82549,-2.77771 z M 563.29701,69.740955 q 1.14258,0.0037 1.72484,-1.122349 0.57491,-1.11875 0.58222,-3.374598 0.007,-2.248523 -0.56036,-3.378297 -0.57497,-1.122474 -1.71755,-1.126174 -1.14989,-0.0037 -1.72481,1.115027 -0.58227,1.12605 -0.58955,3.374573 -0.007,2.255847 0.56768,3.378321 0.56764,1.129773 1.71753,1.133497 z m -0.004,1.171869 q -1.83837,-0.006 -2.80045,-1.466595 -0.96942,-1.453343 -0.96045,-4.221883 0.009,-2.761216 0.98778,-4.215573 0.97149,-1.447058 2.80986,-1.441105 1.83837,0.006 2.80779,1.459297 0.96206,1.460642 0.95312,4.221858 -0.009,2.76854 -0.98045,4.215597 -0.97883,1.454357 -2.8172,1.448404 z m 11.46179,-9.850631 -5.16355,-0.01672 0.004,-1.24511 6.94332,0.02248 -0.004,1.245111 q -0.84511,0.868849 -2.30004,2.32899 -1.46228,1.46744 -1.83719,1.891032 -0.71303,0.796035 -0.99313,1.344448 -0.28744,0.555712 -0.28917,1.090378 -0.003,0.871577 0.61062,1.422883 0.60613,0.551282 1.58758,0.55446 0.69579,0.0023 1.47294,-0.23693 0.76982,-0.239208 1.65032,-0.727082 l -0.005,1.494133 q -0.89472,0.355991 -1.67167,0.536582 -0.77696,0.18059 -1.42148,0.178503 -1.69922,-0.0055 -2.7072,-0.858381 -1.00799,-0.852878 -1.00339,-2.273769 0.002,-0.673824 0.2605,-1.280901 0.25096,-0.599776 0.92012,-1.417927 0.18379,-0.211808 1.16853,-1.22669 0.98471,-1.00756 2.77772,-2.825493 z M 189.45998,153.43006 q 1.14258,0.004 1.72484,-1.12234 0.57491,-1.11876 0.58222,-3.3746 0.007,-2.24852 -0.56035,-3.3783 -0.57498,-1.12247 -1.71756,-1.12617 -1.14989,-0.004 -1.72481,1.11503 -0.58226,1.12605 -0.58954,3.37456 -0.007,2.25585 0.56768,3.37833 0.56763,1.12976 1.71752,1.13349 z m -0.004,1.17187 q -1.83837,-0.006 -2.80044,-1.46659 -0.96942,-1.45334 -0.96046,-4.22189 0.009,-2.76121 0.98779,-4.21557 0.97148,-1.44705 2.80985,-1.4411 1.83837,0.006 2.80779,1.45929 0.96207,1.46065 0.95313,4.22186 -0.009,2.76855 -0.98046,4.2156 -0.97883,1.45436 -2.8172,1.4484 z m 11.46181,-9.85063 -5.16354,-0.0167 0.004,-1.24511 6.94332,0.0225 -0.004,1.2451 q -0.84511,0.86886 -2.30003,2.32899 -1.46228,1.46745 -1.8372,1.89103 -0.71303,0.79604 -0.99313,1.34446 -0.28744,0.55571 -0.28917,1.09038 -0.003,0.87157 0.61063,1.42288 0.60612,0.55128 1.58757,0.55445 0.6958,0.002 1.47294,-0.23693 0.76982,-0.23921 1.65032,-0.72708 l -0.005,1.49413 q -0.89472,0.356 -1.67168,0.53658 -0.77695,0.1806 -1.42147,0.17851 -1.69921,-0.005 -2.70721,-0.85838 -1.00798,-0.85288 -1.00338,-2.27377 0.002,-0.67383 0.2605,-1.2809 0.25096,-0.59977 0.92013,-1.41792 0.18378,-0.21182 1.16852,-1.22669 0.98471,-1.00756 2.77772,-2.8255 z m 293.39471,-41.24762 1.34765,0.004 q -0.26548,0.55578 -0.40649,1.12662 -0.14101,0.57084 -0.14278,1.12014 -0.005,1.46485 0.97421,2.23706 0.98625,0.77957 2.99272,0.89593 -0.62851,-0.42684 -0.96331,-1.07979 -0.3348,-0.65295 -0.33224,-1.44395 0.005,-1.64062 0.99718,-2.59689 0.99918,-0.94892 2.72036,-0.94334 1.68456,0.005 2.6994,1.00484 1.01483,0.99939 1.00947,2.65465 -0.006,1.89697 -1.46688,2.88833 -1.45343,0.99872 -4.22198,0.98976 -2.58543,-0.008 -4.12685,-1.24384 -1.53411,-1.22813 -1.5274,-3.30087 0.002,-0.55664 0.11351,-1.12757 0.11171,-0.57093 0.33343,-1.18544 z m 4.62667,2.95932 q -0.003,0.9961 0.67605,1.57691 0.67926,0.58814 1.86577,0.59199 1.1792,0.004 1.86224,-0.57992 0.69035,-0.57637 0.69358,-1.57247 0.003,-0.99608 -0.68336,-1.58425 -0.67927,-0.58081 -1.85846,-0.58463 -1.18652,-0.004 -1.86955,0.57256 -0.68304,0.58373 -0.68627,1.57981 z m -3.5784,-12.283578 -0.008,2.416979 8.34224,0.02701 -0.51882,-2.631088 1.34764,0.0044 0.51888,2.61644 -0.005,1.479485 -9.68989,-0.03138 -0.008,2.416982 -1.24511,-0.004 0.0204,-6.298789 z m -116.17456,20.252208 -0.004,1.34764 q -0.55578,-0.26547 -1.12662,-0.40648 -0.57083,-0.14101 -1.12015,-0.14279 -1.46483,-0.005 -2.23705,0.97422 -0.77956,0.98625 -0.89592,2.99271 0.42683,-0.6285 1.07978,-0.9633 0.65294,-0.33481 1.44396,-0.33224 1.64061,0.005 2.59688,0.99718 0.94891,0.99917 0.94334,2.72036 -0.005,1.68456 -1.00484,2.69939 -0.99938,1.01484 -2.65465,1.00948 -1.89696,-0.006 -2.88833,-1.46688 -0.99872,-1.45344 -0.98975,-4.22198 0.008,-2.58544 1.24384,-4.12685 1.22811,-1.53412 3.30086,-1.52741 0.55664,0.002 1.12757,0.11352 0.57092,0.11171 1.18545,0.33343 z m -2.95934,4.62667 q -0.99609,-0.003 -1.5769,0.67605 -0.58814,0.67925 -0.59198,1.86577 -0.004,1.1792 0.57991,1.86224 0.57638,0.69034 1.57246,0.69356 0.9961,0.003 1.58425,-0.68334 0.58083,-0.67927 0.58464,-1.85847 0.004,-1.18652 -0.57257,-1.86954 -0.58372,-0.68304 -1.57981,-0.68627 z m 12.2836,-3.57841 -2.41699,-0.008 -0.027,8.34225 2.63109,-0.51882 -0.004,1.34764 -2.61645,0.51888 -1.47948,-0.005 0.0314,-9.6899 -2.41698,-0.008 0.004,-1.2451 6.29879,0.0204 z m -42.25138,49.28834 q 0.003,-1.05469 -0.55858,-1.66442 -0.56202,-0.60242 -1.55078,-0.60562 -0.98877,-0.003 -1.55467,0.59556 -0.56594,0.60608 -0.56935,1.66077 -0.003,1.05468 0.55858,1.66441 0.56932,0.60976 1.55075,0.61294 0.98877,0.003 1.5547,-0.60288 0.56591,-0.59876 0.56935,-1.66076 z m 0.63467,-1.47745 q 0.23746,-0.95138 0.89104,-1.48394 0.65356,-0.52523 1.59105,-0.52219 1.31104,0.004 2.06974,0.93688 0.75867,0.93996 0.7534,2.56593 -0.005,1.63329 -0.77,2.56099 -0.76473,0.92771 -2.07576,0.92346 -0.9375,-0.003 -1.58761,-0.53981 -0.65015,-0.52945 -0.88146,-1.47503 -0.25249,1.06852 -0.97951,1.65943 -0.72703,0.59824 -1.7744,0.59485 -1.58934,-0.005 -2.43579,-0.98201 -0.84647,-0.96955 -0.84062,-2.77862 0.006,-1.80907 0.85862,-2.78044 0.85274,-0.96404 2.44208,-0.95889 1.04736,0.003 1.77051,0.60632 0.72315,0.60293 0.96871,1.67307 z m 2.33817,-0.53443 q -0.84961,-0.003 -1.32738,0.52306 -0.47781,0.53311 -0.48092,1.49259 -0.003,0.95214 0.47126,1.48834 0.47431,0.54354 1.32392,0.54629 0.84961,0.003 1.32743,-0.5377 0.47781,-0.53312 0.48089,-1.48526 0.003,-0.95948 -0.47124,-1.49568 -0.47436,-0.52889 -1.32396,-0.53164 z m -6.88026,-10.44855 -0.008,2.41697 8.34223,0.027 -0.51882,-2.63109 1.34766,0.004 0.51887,2.61643 -0.005,1.47949 -9.68989,-0.0314 -0.008,2.41697 -1.24512,-0.004 0.0204,-6.2988 z m -45.79546,21.94768 q 0.77516,0.71519 1.60438,0.71293 0.82383,-0.007 1.49432,-0.73395 0.67049,-0.72671 0.61152,-1.54846 -0.0644,-0.82672 -0.83953,-1.54192 -0.77516,-0.71519 -1.60438,-0.71292 -0.83419,0.008 -1.49971,0.72898 -0.67049,0.72671 -0.60612,1.55343 0.059,0.82176 0.83952,1.54191 z m 0.66025,1.46619 q 0.54086,0.81792 0.4918,1.65957 -0.0544,0.83669 -0.69018,1.52572 -0.88902,0.96356 -2.08919,0.89264 -1.20556,-0.0759 -2.40059,-1.17847 -1.20041,-1.10755 -1.36754,-2.29815 -0.16711,-1.19059 0.72191,-2.15415 0.63572,-0.68903 1.4707,-0.80556 0.82961,-0.1215 1.68295,0.34693 -0.61705,-0.90814 -0.56139,-1.84336 0.0503,-0.94018 0.76051,-1.70995 1.07775,-1.16812 2.36982,-1.132 1.28669,0.0312 2.6163,1.25791 1.32961,1.22674 1.46942,2.51173 0.13444,1.28003 -0.94331,2.44815 -0.71022,0.76977 -1.64332,0.89543 -0.9331,0.12567 -1.88789,-0.41644 z m -1.186,2.08472 q 0.57612,-0.62443 0.51137,-1.33192 -0.0701,-0.71246 -0.77531,-1.36308 -0.69979,-0.64566 -1.41559,-0.65833 -0.72117,-0.0176 -1.29729,0.60681 -0.57613,0.62443 -0.50061,1.34185 0.0701,0.71246 0.76993,1.35812 0.70518,0.65062 1.42097,0.66329 0.7104,0.008 1.28653,-0.61674 z m 12.35138,1.9885 -1.7764,-1.63898 -5.65695,6.13129 2.2901,1.39542 -0.91385,0.99048 -2.27934,-1.38549 -1.08737,-1.00325 6.5708,-7.12176 -1.77641,-1.63898 0.84432,-0.91512 4.62942,4.27127 z m 103.67665,-23.60792 0.0228,-7.03121 0.62988,0.002 10.29227,4.00307 -0.005,1.5454 -9.67779,-3.76671 -0.017,5.25145 z m 9.66104,8.94146 0.008,-2.41698 -8.34223,-0.027 0.51882,2.63109 -1.34764,-0.004 -0.51888,-2.61643 0.005,-1.47948 9.68989,0.0314 0.008,-2.41699 1.24512,0.004 -0.0204,6.2988 z m 43.06327,19.84688 -5.19849,4.73436 -0.42412,-0.46571 -4.00382,-10.29197 1.14259,-1.04057 3.76284,9.6793 3.88263,-3.53598 z m 0.0631,-13.16364 -1.78698,1.62744 5.61712,6.1678 1.58894,-2.16034 0.90742,0.99637 -1.57811,2.15049 -1.09385,0.99618 -6.52455,-7.16417 -1.78698,1.62743 -0.83837,-0.92056 4.65699,-4.2412 z M 346.00156,512.33604 q 0.003,-0.99608 -0.67603,-1.58422 -0.67927,-0.58082 -1.86578,-0.58466 -1.1792,-0.004 -1.86955,0.57256 -0.68304,0.58373 -0.68627,1.57982 -0.003,0.99608 0.67605,1.5769 0.68658,0.58817 1.86577,0.59199 1.18652,0.004 1.86956,-0.57989 0.68302,-0.57641 0.68625,-1.5725 z m 4.62669,2.95201 -1.34764,-0.004 q 0.26547,-0.55579 0.40648,-1.12662 0.14098,-0.56351 0.14279,-1.12015 0.005,-1.46484 -0.98151,-2.2444 -0.98628,-0.77224 -2.98542,-0.88858 0.63581,0.43419 0.97061,1.08713 0.34212,0.65297 0.33958,1.43666 -0.005,1.64794 -1.01183,2.59683 -0.99919,0.95624 -2.72037,0.95067 -1.68456,-0.005 -2.6994,-1.00484 -1.01484,-0.99939 -1.00948,-2.65465 0.006,-1.89696 1.45958,-2.89568 1.46076,-0.99869 4.22198,-0.98975 2.59276,0.008 4.12685,1.24384 1.54142,1.23547 1.53471,3.30821 -0.002,0.55663 -0.1135,1.12024 -0.11171,0.57094 -0.33343,1.18545 z m -9.39778,-15.59832 -0.008,2.41697 8.34224,0.027 -0.51883,-2.63108 1.34765,0.004 0.51887,2.61644 -0.005,1.47949 -9.68989,-0.0314 -0.008,2.41697 -1.24512,-0.004 0.0204,-6.29879 z m -20.6228,-10.47156 q -0.70662,0.70206 -0.64219,1.59823 0.0696,0.89103 0.90589,1.73274 0.83112,0.83652 1.72683,0.91709 0.89574,0.0702 1.60237,-0.63183 0.70662,-0.70206 0.637,-1.59308 -0.0696,-0.90136 -0.9007,-1.73788 -0.83629,-0.84172 -1.73202,-0.91195 -0.89056,-0.0754 -1.59718,0.62668 z m -1.18418,-5.35896 0.94984,0.95602 q -0.58071,0.20528 -1.08406,0.50921 -0.49815,0.29877 -0.89304,0.6911 -1.03914,1.03244 -0.893,2.28106 0.15135,1.24346 1.4827,2.73933 -0.14256,-0.7566 0.0824,-1.45504 0.2198,-0.70364 0.77575,-1.25599 1.16904,-1.1615 2.55171,-1.12077 1.38271,0.0304 2.59583,1.25138 1.1873,1.19502 1.19823,2.61928 0.0109,1.42428 -1.16332,2.59093 -1.34569,1.33701 -3.07963,1.01548 -1.7391,-0.32673 -3.68525,-2.28553 -1.82742,-1.83929 -2.03859,-3.79765 -0.21635,-1.96356 1.25404,-3.42446 0.39488,-0.39233 0.87239,-0.71188 0.4827,-0.32472 1.07401,-0.60247 z m -4.38446,17.67493 1.7146,-1.70353 -5.87975,-5.91796 -1.4936,2.22733 -0.94985,-0.95602 1.48321,-2.217 1.04954,-1.04277 6.8296,6.87398 1.71459,-1.70353 0.87758,0.88328 -4.46834,4.4395 z m 95.89608,1.674 0.0188,-5.80808 1.24512,0.004 -0.0144,4.45311 2.68064,0.009 q -0.10881,-0.32263 -0.15904,-0.64506 -0.0576,-0.32245 -0.0565,-0.64472 0.006,-1.83104 1.0128,-2.89712 1.00688,-1.06608 2.72074,-1.06053 1.76512,0.006 2.74301,1.10752 0.97056,1.10178 0.96408,3.10128 -0.002,0.68847 -0.12174,1.40586 -0.11948,0.71007 -0.35633,1.47102 l -1.48681,-0.005 q 0.36102,-0.65801 0.53908,-1.36056 0.17806,-0.70256 0.18059,-1.48625 0.004,-1.26708 -0.65999,-2.00897 -0.6641,-0.74191 -1.80668,-0.74561 -1.14257,-0.004 -1.81146,0.73389 -0.66891,0.73758 -0.67301,2.00466 -0.002,0.59326 0.128,1.18694 0.12993,0.58637 0.40626,1.2025 z m 9.65978,9.32964 0.008,-2.41699 -8.34224,-0.027 0.51883,2.6311 -1.34766,-0.004 -0.51887,-2.61644 0.005,-1.47948 9.68989,0.0314 0.008,-2.41698 1.24511,0.004 -0.0204,6.2988 z m 30.77336,-19.74487 4.09363,4.12023 -0.88328,0.87758 -3.13862,-3.15902 -1.90165,1.88937 q 0.30508,0.15118 0.56858,0.34365 0.26871,0.18732 0.49584,0.41593 1.29056,1.29894 1.33242,2.76474 0.0419,1.46581 -1.17394,2.67376 -1.25218,1.24409 -2.72274,1.15647 -1.46536,-0.0928 -2.87465,-1.51123 -0.48524,-0.4884 -0.90801,-1.08018 -0.4176,-0.58659 -0.7882,-1.29213 l 1.05474,-1.04793 q 0.21,0.72057 0.58087,1.34325 0.37088,0.62269 0.92324,1.17863 0.89306,0.89887 1.88725,0.95387 0.9942,0.055 1.80474,-0.75029 0.81053,-0.8053 0.76196,-1.79984 -0.0486,-0.99452 -0.94163,-1.89339 -0.41814,-0.42086 -0.9298,-0.74879 -0.5065,-0.32274 -1.13757,-0.56302 z m -13.42753,0.23347 1.70353,1.71459 5.91796,-5.87975 -2.22733,-1.49359 0.95602,-0.94985 2.217,1.48321 1.04277,1.04954 -6.87398,6.8296 1.70353,1.71459 -0.88328,0.87758 -4.4395,-4.46835 z m -88.50448,66.10249 -5.82529,-3.75423 -0.0121,3.73533 z m 1.29031,-0.384 -0.006,1.86034 -7.12643,-0.0231 -0.005,1.56005 -1.23047,-0.004 0.005,-1.56005 -2.57811,-0.008 0.005,-1.47216 2.5781,0.008 0.016,-4.93649 1.42822,0.005 z m -9.64792,-12.9917 -0.008,2.41698 8.34224,0.027 -0.51883,-2.6311 1.34765,0.004 0.51888,2.61644 -0.005,1.47949 -9.68989,-0.0314 -0.008,2.41697 -1.24511,-0.004 0.0204,-6.29879 z m -32.1304,-11.54637 6.61331,-2.07175 -2.86184,-2.40057 z m -0.53103,1.23708 -1.42531,-1.19558 4.57991,-5.45993 -1.19524,-1.0026 0.79078,-0.94272 1.19524,1.00259 1.65686,-1.97522 1.1279,0.94611 -1.65686,1.97522 3.78211,3.17252 -0.91786,1.09423 z m 16.157,0.90525 -1.85177,-1.55331 -5.36128,6.39144 2.35341,1.28578 -0.86609,1.03251 -2.34218,-1.27637 -1.13352,-0.95082 6.22736,-7.42394 -1.85177,-1.55331 0.80018,-0.95394 4.82585,4.04802 z m 63.64666,30.70226 q 1.06128,0.23049 1.65221,0.95018 0.59825,0.71972 0.59484,1.77439 -0.005,1.61865 -1.12139,2.50127 -1.11614,0.88262 -3.16691,0.87598 -0.68848,-0.002 -1.42044,-0.14376 -0.72467,-0.13419 -1.50015,-0.40769 l 0.005,-1.42822 q 0.61406,0.36088 1.34588,0.54636 0.73183,0.18547 1.53016,0.18806 1.39161,0.005 2.11847,-0.54247 0.73421,-0.54693 0.7376,-1.5943 0.003,-0.96678 -0.67627,-1.51097 -0.67204,-0.5515 -1.88053,-0.55542 l -1.27441,-0.004 0.004,-1.21582 1.33299,0.004 q 1.09131,0.004 1.67131,-0.42672 0.58004,-0.43758 0.5827,-1.25789 0.003,-0.84228 -0.59641,-1.291 -0.59179,-0.45602 -1.70506,-0.45962 -0.60791,-0.002 -1.30413,0.12761 -0.69623,0.12958 -1.53208,0.4052 l 0.004,-1.31836 q 0.84303,-0.23164 1.57583,-0.34646 0.74012,-0.11479 1.39198,-0.11268 1.68456,0.005 2.6635,0.77768 0.97898,0.76489 0.97476,2.0686 -0.003,0.90819 -0.525,1.53639 -0.52203,0.62087 -1.48229,0.85946 z m -13.78107,4.60628 2.41698,0.008 0.027,-8.34224 -2.63108,0.51883 0.004,-1.34765 2.61645,-0.51887 1.47948,0.005 -0.0314,9.68989 2.41698,0.008 -0.004,1.24512 -6.2988,-0.0204 z m 87.40491,118.24382 q 0.54334,0.94032 0.40831,1.86171 -0.13012,0.9268 -0.91282,1.63372 -1.20123,1.08494 -2.60511,0.85277 -1.40389,-0.23218 -2.77846,-1.75409 -0.46147,-0.51094 -0.84912,-1.14775 -0.38818,-0.62648 -0.70743,-1.38427 l 1.0599,-0.95729 q 0.14604,0.69712 0.50107,1.36339 0.35504,0.66627 0.89014,1.25873 0.93275,1.03273 1.82641,1.20266 0.89858,0.17535 1.67585,-0.52667 0.71748,-0.64802 0.66314,-1.51679 -0.044,-0.86825 -0.854,-1.76509 l -0.8542,-0.94577 0.90228,-0.81493 0.89347,0.98925 q 0.73148,0.80988 1.43999,0.94963 0.71396,0.13486 1.32272,-0.41497 0.62508,-0.56456 0.55408,-1.30973 -0.0606,-0.74464 -0.80684,-1.57083 -0.40746,-0.45114 -0.97168,-0.87914 -0.56421,-0.42799 -1.33041,-0.86108 l 0.97838,-0.88366 q 0.73849,0.46797 1.31638,0.93297 0.58279,0.47044 1.01971,0.95419 1.12912,1.25014 1.21623,2.49396 0.0926,1.2389 -0.87496,2.11274 -0.67399,0.60874 -1.48998,0.64502 -0.81057,0.0314 -1.63305,-0.51868 z m -12.67847,-7.09868 1.62004,1.79369 6.19095,-5.59158 -2.15375,-1.59785 1.00012,-0.9033 2.14393,1.58699 0.99167,1.09796 -7.19108,6.49487 1.62004,1.79369 -0.92402,0.83457 -4.22192,-4.67447 z m -28.6858,-134.80264 0.0167,-5.16354 1.2451,0.004 -0.0225,6.94332 -1.24511,-0.004 q -0.86884,-0.84511 -2.32899,-2.30003 -1.46744,-1.46228 -1.89103,-1.8372 -0.79604,-0.71303 -1.34445,-0.99312 -0.55571,-0.28745 -1.09038,-0.28918 -0.87158,-0.003 -1.42288,0.61063 -0.55128,0.60613 -0.55446,1.58757 -0.002,0.6958 0.23693,1.47294 0.23921,0.76983 0.72708,1.65031 l -1.49413,-0.005 q -0.356,-0.89471 -0.53658,-1.67166 -0.1806,-0.77695 -0.17851,-1.42149 0.005,-1.6992 0.85838,-2.70719 0.85288,-1.00799 2.27377,-1.00339 0.67383,0.002 1.28091,0.2605 0.59977,0.25097 1.41792,0.92013 0.21181,0.18379 1.22669,1.16853 1.00756,0.9847 2.8255,2.77771 z m -0.0342,10.558 0.008,-2.41699 -8.34224,-0.027 0.51883,2.6311 -1.34765,-0.004 -0.51887,-2.61644 0.005,-1.47948 9.68989,0.0314 0.008,-2.41698 1.24511,0.004 -0.0204,6.2988 z m 18.13989,-23.11436 -3.97747,3.29275 -0.794,-0.95911 5.34844,-4.42769 0.79399,0.95911 q -0.093,1.20848 -0.27598,3.26161 -0.18393,2.06345 -0.20078,2.62887 -0.0382,1.068 0.0977,1.66862 0.13493,0.61093 0.47589,1.02279 0.55579,0.67137 1.38,0.70218 0.81856,0.0355 1.57456,-0.59038 0.53597,-0.4437 0.97988,-1.12495 0.43826,-0.67659 0.80235,-1.61507 l 0.95279,1.15093 q -0.45944,0.84626 -0.9407,1.48239 -0.48128,0.63612 -0.97776,1.04713 -1.3089,1.08357 -2.62925,1.07366 -1.32036,-0.01 -2.22645,-1.10443 -0.42968,-0.51904 -0.61988,-1.15078 -0.19116,-0.62143 -0.20086,-1.67833 0.006,-0.28038 0.11239,-1.69045 0.11147,-1.40442 0.3251,-3.94885 z m 8.13283,-6.73274 -1.86179,1.54128 5.31976,6.42602 1.68913,-2.08293 0.85938,1.03808 -1.67784,2.07361 -1.13965,0.94345 -6.17915,-7.46411 -1.86179,1.54128 -0.794,-0.95911 4.85196,-4.01668 z m 64.94321,159.58233 1.7937,-1.62003 -5.59159,-6.19096 -1.59785,2.15376 -0.9033,-1.00012 1.58699,-2.14394 1.09796,-0.99166 6.49487,7.19108 1.79369,-1.62004 0.83456,0.92402 -4.67447,4.22191 z m -7.0798,6.39438 1.7937,-1.62004 -5.59159,-6.19096 -1.59785,2.15376 -0.9033,-1.00012 1.58699,-2.14393 1.09796,-0.99166 6.49487,7.19107 1.79369,-1.62004 0.83456,0.92402 -4.67447,4.22192 z m -196.8036,-126.47605 1.79369,-1.62004 -5.59158,-6.19095 -1.59785,2.15375 -0.9033,-1.00012 1.58698,-2.14393 1.09797,-0.99166 6.49487,7.19107 1.79369,-1.62004 0.83457,0.92403 -4.67447,4.22192 z m -7.07979,6.39437 1.79369,-1.62004 -5.59158,-6.19095 -1.59787,2.15376 -0.90329,-1.00013 1.58699,-2.14393 1.09796,-0.99166 6.49487,7.19107 1.79369,-1.62003 0.83457,0.92402 -4.67447,4.22191 z m 156.55762,67.56731 q 0.84793,-0.76583 0.52131,-1.99072 -0.32715,-1.21454 -1.83918,-2.88865 -1.50712,-1.66868 -2.6871,-2.12281 -1.18052,-0.4438 -2.02844,0.32203 -0.85336,0.77075 -0.52622,1.98529 0.32662,1.22489 1.83374,2.89356 1.51204,1.67411 2.69255,2.11791 1.17998,0.45414 2.03334,-0.31661 z m 0.78547,0.86967 q -1.36429,1.23221 -3.0587,0.79857 -1.69493,-0.42329 -3.55061,-2.47788 -1.85077,-2.04916 -2.10479,-3.78373 -0.25454,-1.72423 1.10975,-2.95644 1.36429,-1.23221 3.05922,-0.80892 1.69441,0.43363 3.54518,2.48279 1.85568,2.0546 2.11022,3.77882 0.25402,1.73458 -1.11027,2.96679 z m 2.61025,-15.68116 -1.7937,1.62004 5.59158,6.19095 1.59786,-2.15375 0.90329,1.00011 -1.58698,2.14394 -1.09796,0.99166 -6.49487,-7.19107 -1.79369,1.62004 -0.83457,-0.92403 4.67447,-4.22191 z m 5.85171,-58.71864 q -0.84295,-0.7713 -2.03125,-0.32977 -1.17796,0.44109 -2.7008,2.10538 -1.5179,1.65887 -1.85785,2.87667 -0.3296,1.21735 0.51335,1.98865 0.84835,0.77626 2.02631,0.33518 1.1883,-0.44155 2.7062,-2.10042 1.52284,-1.66429 1.85245,-2.88163 0.33995,-1.2178 -0.50841,-1.99406 z m 0.79108,-0.86456 q 1.35629,1.24102 1.08564,2.96897 -0.2603,1.72749 -2.12925,3.77002 -1.864,2.03713 -3.56659,2.45484 -1.69223,0.41724 -3.04852,-0.82378 -1.35628,-1.24102 -1.09598,-2.9685 0.27065,-1.72795 2.13465,-3.76507 1.86895,-2.04254 3.56118,-2.45979 1.70259,-0.41771 3.05887,0.82331 z m -15.85822,-1.10821 1.78316,1.63162 5.63156,-6.15461 -2.29585,-1.38595 0.90974,-0.99424 2.28505,1.37605 1.09152,0.99875 -6.54131,7.14886 1.78316,1.63162 -0.84053,0.9186 -4.64704,-4.2521 z m 119.27016,69.66706 -0.90329,-1.00011 q 0.58982,-0.17743 1.10706,-0.45707 0.51724,-0.27965 0.92489,-0.64784 1.08709,-0.98184 0.99997,-2.22566 -0.0866,-1.25416 -1.35017,-2.8171 0.10694,0.75218 -0.15099,1.43913 -0.25793,0.68695 -0.84496,1.21714 -1.21754,1.09967 -2.59232,1.00899 -1.37426,-0.10102 -2.52792,-1.37835 -1.12912,-1.25015 -1.07228,-2.67332 0.0568,-1.42318 1.28525,-2.53266 1.40777,-1.27149 3.12392,-0.85749 1.71668,0.40366 3.57236,2.45825 1.73295,1.91871 1.85564,3.89033 0.12322,1.96128 -1.41501,3.35058 -0.41309,0.3731 -0.9107,0.67448 -0.4976,0.30139 -1.10145,0.5507 z m -0.92249,-5.41413 q 0.73922,-0.66765 0.71207,-1.56097 -0.0217,-0.89823 -0.81701,-1.77876 -0.79038,-0.87511 -1.68178,-0.98787 -0.89086,-0.1231 -1.63008,0.54455 -0.73922,0.66765 -0.71259,1.57131 0.0272,0.89333 0.81755,1.76844 0.79528,0.88053 1.68124,0.9982 0.89139,0.11276 1.6306,-0.5549 z m -325.32975,-61.32164 0.90975,-0.99425 q 0.23268,0.57029 0.56021,1.05861 0.32754,0.48832 0.7328,0.85915 1.0807,0.98886 2.31061,0.78394 1.24025,-0.20538 2.67605,-1.61178 -0.73862,0.17794 -1.44697,-0.0135 -0.70836,-0.19148 -1.29194,-0.72547 -1.21038,-1.10752 -1.25076,-2.4847 -0.03,-1.37764 1.13188,-2.64747 1.13719,-1.24281 2.55932,-1.32148 1.42214,-0.0787 2.64333,1.03875 1.39951,1.28058 1.15048,3.02831 -0.23869,1.74726 -2.10764,3.78979 -1.74534,1.90744 -3.69637,2.21695 -1.94069,0.30903 -3.46989,-1.0902 -0.41066,-0.37577 -0.75798,-0.84247 -0.34731,-0.46671 -0.65288,-1.04414 z m 5.30196,-1.43282 q 0.73488,0.67242 1.62158,0.5605 0.8921,-0.10699 1.69308,-0.98236 0.79603,-0.86997 0.82357,-1.76803 0.0379,-0.89854 -0.69699,-1.57097 -0.73488,-0.67242 -1.63193,-0.56003 -0.88669,0.11193 -1.68272,0.9819 -0.80098,0.87536 -0.83393,1.76849 -0.0275,0.89808 0.70734,1.5705 z m 505.21501,98.83565 q -1.05468,-0.003 -1.66442,0.55857 -0.60241,0.56202 -0.60561,1.55078 -0.003,0.98876 0.59556,1.55467 0.60608,0.56593 1.66076,0.56934 1.05468,0.003 1.66441,-0.55857 0.60976,-0.56932 0.61293,-1.55076 0.003,-0.98876 -0.60288,-1.55469 -0.59875,-0.56591 -1.66075,-0.56934 z m -1.47745,-0.63468 q -0.95138,-0.23745 -1.48393,-0.89104 -0.52524,-0.65356 -0.52221,-1.59105 0.004,-1.31103 0.93689,-2.06974 0.93996,-0.75868 2.56593,-0.75341 1.6333,0.005 2.56099,0.77001 0.92771,0.76473 0.92347,2.07577 -0.003,0.93749 -0.53982,1.58761 -0.52944,0.65014 -1.47503,0.88145 1.06853,0.25249 1.65944,0.9795 0.59824,0.72704 0.59485,1.7744 -0.005,1.58935 -0.98202,2.4358 -0.96954,0.84648 -2.77861,0.84062 -1.80908,-0.006 -2.78045,-0.85862 -0.96403,-0.85274 -0.95888,-2.44209 0.003,-1.04735 0.60631,-1.7705 0.60294,-0.72315 1.67307,-0.96871 z m -0.53442,-2.33817 q -0.003,0.84961 0.52305,1.32739 0.53312,0.47779 1.49259,0.4809 0.95215,0.003 1.48834,-0.47125 0.54354,-0.47431 0.54629,-1.32392 0.003,-0.8496 -0.5377,-1.32744 -0.53311,-0.4778 -1.48526,-0.48088 -0.95947,-0.003 -1.49567,0.47123 -0.52889,0.47437 -0.53164,1.32397 z M 570.5619,580.22232 q 0.70693,0.78271 1.53292,0.85584 0.82108,0.0677 1.55486,-0.59505 0.73378,-0.66274 0.74976,-1.48645 0.0111,-0.82915 -0.69586,-1.61186 -0.70693,-0.7827 -1.53292,-0.85583 -0.83143,-0.0682 -1.55978,0.58961 -0.73378,0.66274 -0.74484,1.49189 -0.016,0.82372 0.69586,1.61185 z m 0.52421,1.52015 q 0.46426,0.8637 0.33888,1.69741 -0.13029,0.82827 -0.82603,1.45664 -0.97294,0.87875 -2.16169,0.69901 -1.19366,-0.18517 -2.28351,-1.39184 -1.09475,-1.2121 -1.15293,-2.41296 -0.0582,-1.20085 0.91476,-2.0796 0.69573,-0.62838 1.53786,-0.66851 0.83721,-0.0456 1.64443,0.4985 -0.53193,-0.96048 -0.39147,-1.88676 0.13555,-0.93172 0.91282,-1.63374 1.17948,-1.06529 2.46292,-0.91185 1.27852,0.14801 2.4911,1.49056 1.21257,1.34255 1.23498,2.63493 0.0175,1.28695 -1.16198,2.35224 -0.77727,0.70202 -1.71793,0.74232 -0.94066,0.0403 -1.84221,-0.58635 z m -1.37062,1.96826 q 0.63051,-0.56947 0.63035,-1.27992 -0.005,-0.71588 -0.64817,-1.42792 -0.6382,-0.70661 -1.34988,-0.7843 -0.71658,-0.0831 -1.34709,0.48635 -0.63051,0.56946 -0.62053,1.29078 0.005,0.71589 0.64326,1.4225 0.64311,0.71204 1.35478,0.78972 0.70677,0.0722 1.33728,-0.49721 z m 214.37847,44.25444 0.0228,-7.03121 0.62987,0.002 10.29227,4.00308 -0.005,1.5454 -9.67779,-3.76671 -0.017,5.25143 z m -620.62955,-96.65351 7.03121,0.0228 -0.002,0.62988 -4.00308,10.29227 -1.5454,-0.005 3.76671,-9.6778 -5.25144,-0.017 z m 555.72779,95.33072 q 0.003,-0.99608 -0.67602,-1.58422 -0.67928,-0.58082 -1.8658,-0.58466 -1.17919,-0.004 -1.86953,0.57256 -0.68305,0.58373 -0.68627,1.57982 -0.003,0.99608 0.67604,1.5769 0.68657,0.58817 1.86577,0.59199 1.18652,0.004 1.86956,-0.57989 0.68302,-0.57641 0.68625,-1.5725 z m 4.6267,2.95201 -1.34765,-0.004 q 0.26547,-0.55578 0.40648,-1.12662 0.14099,-0.56351 0.14279,-1.12014 0.005,-1.46485 -0.98151,-2.2444 -0.98627,-0.77225 -2.98541,-0.88859 0.63579,0.43419 0.9706,1.08713 0.34213,0.65297 0.33959,1.43666 -0.005,1.64794 -1.01183,2.59684 -0.99921,0.95624 -2.72039,0.95066 -1.68456,-0.005 -2.69939,-1.00483 -1.01484,-0.9994 -1.00948,-2.65466 0.006,-1.89696 1.45959,-2.89568 1.46075,-0.99869 4.22197,-0.98975 2.59276,0.008 4.12685,1.24384 1.54142,1.23547 1.5347,3.30821 -0.002,0.55663 -0.11348,1.12025 -0.11171,0.57093 -0.33343,1.18544 z m -126.752,-92.00108 q -0.9961,-0.003 -1.58423,0.67603 -0.58082,0.67928 -0.58466,1.86579 -0.004,1.17919 0.57256,1.86955 0.58373,0.68304 1.57982,0.68626 0.99609,0.003 1.5769,-0.67604 0.58816,-0.68658 0.59198,-1.86578 0.004,-1.18651 -0.57989,-1.86955 -0.5764,-0.68303 -1.57248,-0.68626 z m 2.95201,-4.62669 -0.004,1.34765 q -0.55578,-0.26547 -1.12662,-0.40648 -0.56351,-0.14099 -1.12015,-0.14279 -1.46483,-0.005 -2.2444,0.98151 -0.77224,0.98627 -0.88857,2.98542 0.43418,-0.63581 1.08713,-0.97061 0.65297,-0.34213 1.43665,-0.33959 1.64794,0.005 2.59683,1.01184 0.95625,0.99919 0.95068,2.72037 -0.005,1.68456 -1.00485,2.6994 -0.99938,1.01483 -2.65464,1.00947 -1.89697,-0.006 -2.89568,-1.45958 -0.9987,-1.46076 -0.98976,-4.22197 0.008,-2.59276 1.24384,-4.12686 1.23547,-1.54141 3.30821,-1.5347 0.55664,0.002 1.12024,0.11349 0.57093,0.11172 1.18546,0.33343 z m 184.37726,2.31557 0.0188,-5.80808 1.2451,0.004 -0.0144,4.45311 2.68066,0.009 q -0.10882,-0.32262 -0.15905,-0.64505 -0.0575,-0.32245 -0.0565,-0.64471 0.006,-1.83105 1.01281,-2.89713 1.00688,-1.06608 2.72074,-1.06053 1.76512,0.006 2.743,1.10751 0.97056,1.10178 0.96409,3.10129 -0.002,0.68847 -0.12175,1.40587 -0.11949,0.71006 -0.35632,1.47101 l -1.48681,-0.005 q 0.36102,-0.65802 0.53907,-1.36057 0.17806,-0.70255 0.1806,-1.48624 0.004,-1.26708 -0.66,-2.00898 -0.66411,-0.7419 -1.80667,-0.7456 -1.14258,-0.004 -1.81148,0.73389 -0.66889,0.73757 -0.673,2.00466 -0.002,0.59326 0.128,1.18695 0.12993,0.58635 0.40626,1.20249 z m -694.145531,-30.85354 4.449797,3.73274 -0.800205,0.95392 -3.411697,-2.86192 -1.722808,2.05376 q 0.317506,0.12293 0.597359,0.29077 0.284564,0.16222 0.531459,0.36933 1.402842,1.17678 1.577219,2.63277 0.174384,1.456 -0.927076,2.76905 -1.134417,1.35234 -2.606881,1.39819 -1.467746,0.0402 -2.999643,-1.2448 -0.52747,-0.44247 -1.002064,-0.99355 -0.468987,-0.54637 -0.901944,-1.21547 l 0.955547,-1.13911 q 0.274371,0.6986 0.700095,1.28516 0.425716,0.58655 1.026129,1.09021 0.970764,0.81433 1.965858,0.77912 0.995101,-0.0352 1.729412,-0.91059 0.734304,-0.87536 0.595906,-1.86142 -0.138404,-0.98605 -1.109168,-1.80038 -0.454518,-0.38128 -0.993761,-0.66155 -0.53364,-0.27557 -1.183861,-0.45773 z m 600.955381,-371.98278 -3.75423,5.82528 3.73533,0.0121 z m -0.38401,-1.29031 1.86034,0.006 -0.0231,7.12642 1.56005,0.005 -0.004,1.23047 -1.56005,-0.005 -0.008,2.57811 -1.47216,-0.005 0.008,-2.5781 -4.9365,-0.016 0.005,-1.42821 z m -20.12816,48.15753 6.61335,-2.07162 -2.86179,-2.40063 z m -0.53106,1.23708 -1.42528,-1.19561 4.58002,-5.45985 -1.19522,-1.00261 0.7908,-0.94271 1.19522,1.00261 1.6569,-1.97519 1.12788,0.94613 -1.6569,1.9752 3.78205,3.17259 -0.91789,1.09422 z m 56.27875,-81.779778 q 0.23048,-1.06127 0.95017,-1.652204 0.71972,-0.598259 1.7744,-0.594844 1.61865,0.0052 2.50127,1.121387 0.88262,1.116146 0.87598,3.166919 -0.002,0.68847 -0.14376,1.42044 -0.13419,0.72466 -0.4077,1.50015 l -1.42821,-0.005 q 0.36088,-0.61408 0.54635,-1.3459 0.18548,-0.73182 0.18806,-1.53016 0.005,-1.391594 -0.54246,-2.118467 -0.54694,-0.734197 -1.5943,-0.737588 -0.96679,-0.0031 -1.51099,0.676262 -0.55149,0.672047 -0.5554,1.880533 l -0.004,1.27441 -1.21581,-0.004 0.004,-1.333 q 0.004,-1.091301 -0.42672,-1.67131 -0.43758,-0.580033 -1.25789,-0.582689 -0.84228,-0.0027 -1.291,0.596408 -0.45602,0.591788 -0.45963,1.705061 -0.002,0.60791 0.12762,1.30413 0.12958,0.69623 0.40519,1.53209 l -1.31835,-0.004 q -0.23164,-0.84305 -0.34646,-1.57584 -0.11479,-0.74012 -0.11268,-1.39197 0.005,-1.684567 0.77767,-2.663516 0.76489,-0.978973 2.06859,-0.974752 0.90821,0.0029 1.5364,0.524997 0.62087,0.522034 0.85947,1.482283 z m 26.51252,109.019528 q -1.06128,-0.23049 -1.65222,-0.95018 -0.59825,-0.71971 -0.59483,-1.7744 0.005,-1.61864 1.12138,-2.50126 1.11615,-0.88262 3.16692,-0.87598 0.68847,0.002 1.42044,0.14376 0.72467,0.13418 1.50015,0.40769 l -0.005,1.42822 q -0.61406,-0.36087 -1.34589,-0.54636 -0.73182,-0.18548 -1.53016,-0.18806 -1.3916,-0.005 -2.11846,0.54246 -0.73421,0.54695 -0.7376,1.5943 -0.003,0.9668 0.67627,1.51099 0.67204,0.5515 1.88053,0.55541 l 1.27441,0.004 -0.004,1.21581 -1.33301,-0.004 q -1.0913,-0.004 -1.67131,0.42672 -0.58004,0.43758 -0.58269,1.25788 -0.003,0.84229 0.59641,1.291 0.59179,0.45602 1.70506,0.45963 0.60791,0.002 1.30413,-0.12761 0.69622,-0.12959 1.53208,-0.4052 l -0.004,1.31835 q -0.84303,0.23165 -1.57583,0.34646 -0.74012,0.11479 -1.39197,0.11268 -1.68457,-0.005 -2.66352,-0.77767 -0.97897,-0.76489 -0.97475,-2.06859 0.003,-0.9082 0.525,-1.5364 0.52203,-0.62087 1.48229,-0.85946 z m -62.611,-146.353212 -5.16354,-0.01672 0.004,-1.245111 6.94332,0.02249 -0.004,1.24511 q -0.84511,0.86885 -2.30003,2.328991 -1.46228,1.46744 -1.8372,1.891032 -0.71303,0.796035 -0.99313,1.344448 -0.28744,0.555712 -0.28917,1.090377 -0.003,0.871578 0.61063,1.422884 0.60613,0.551282 1.58757,0.55446 0.6958,0.0023 1.47294,-0.23693 0.76982,-0.239208 1.65031,-0.727082 l -0.005,1.494133 q -0.89471,0.355991 -1.67167,0.536582 -0.77694,0.18059 -1.42148,0.178503 -1.6992,-0.0055 -2.7072,-0.858381 -1.00798,-0.852878 -1.00338,-2.273769 0.002,-0.673824 0.2605,-1.280901 0.25096,-0.599776 0.92013,-1.417927 0.18378,-0.211808 1.16853,-1.22669 0.9847,-1.00756 2.77771,-2.825493 z M 87.056177,171.66521 l -3.977412,3.29283 -0.794017,-0.9591 5.34835,-4.42779 0.794016,0.95909 q -0.09299,1.20849 -0.275917,3.26162 -0.183895,2.06346 -0.20072,2.62888 -0.03814,1.06801 0.09777,1.66862 0.134943,0.61092 0.475903,1.02277 0.555809,0.67136 1.380017,0.70216 0.818565,0.0355 1.574555,-0.59041 0.535964,-0.44371 0.979853,-1.12498 0.438248,-0.6766 0.80232,-1.61507 l 0.952817,1.15091 q -0.45943,0.84626 -0.940682,1.4824 -0.48126,0.63613 -0.977731,1.04715 -1.308879,1.08359 -2.629234,1.07371 -1.32035,-0.01 -2.226461,-1.10438 -0.429703,-0.51904 -0.619909,-1.15077 -0.191179,-0.62143 -0.200897,-1.67833 0.0056,-0.28038 0.11236,-1.69045 0.111438,-1.40442 0.325021,-3.94886 z m 627.631483,360.0761 -0.008,2.41699 8.34225,0.027 -0.51883,-2.63109 1.34765,0.004 0.51887,2.61645 -0.005,1.47948 -9.68989,-0.0314 -0.008,2.41698 -1.2451,-0.004 0.0204,-6.2988 z m -39.48392,-15.85177 1.86177,-1.54132 -5.3199,-6.42591 -1.68909,2.08297 -0.85941,-1.03808 1.67781,-2.07363 1.13963,-0.94347 6.1793,7.46399 1.86177,-1.54133 0.79402,0.9591 -4.85188,4.01678 z M 785.98779,343.84258 q -0.004,1.14258 1.12235,1.72484 1.11874,0.57491 3.37459,0.58222 2.24853,0.007 3.3783,-0.56036 1.12247,-0.57497 1.12617,-1.71755 0.004,-1.14989 -1.11502,-1.72481 -1.12605,-0.58226 -3.37458,-0.58954 -2.25585,-0.007 -3.37832,0.56767 -1.12977,0.56764 -1.13349,1.71753 z m -1.17188,-0.004 q 0.006,-1.83837 1.4666,-2.80044 1.45334,-0.96942 4.22188,-0.96045 2.76122,0.009 4.21557,0.98777 1.44706,0.97149 1.44111,2.80986 -0.006,1.83837 -1.4593,2.80779 -1.46064,0.96207 -4.22186,0.95313 -2.76853,-0.009 -4.21559,-0.98046 -1.45436,-0.97883 -1.44841,-2.8172 z M 61.789503,343.47664 q 0.0037,-1.14257 -1.12235,-1.72483 -1.11875,-0.57492 -3.374598,-0.58222 -2.248523,-0.007 -3.378297,0.56035 -1.122473,0.57498 -1.126173,1.71755 -0.0037,1.1499 1.115026,1.72481 1.12605,0.58226 3.374573,0.58954 2.255849,0.007 3.378321,-0.56767 1.129774,-0.56764 1.133498,-1.71753 z m 1.171869,0.004 q -0.006,1.83837 -1.466596,2.80044 -1.453342,0.96942 -4.221883,0.96045 -2.761215,-0.009 -4.215573,-0.98777 -1.447057,-0.97149 -1.441104,-2.80986 0.006,-1.83837 1.459295,-2.80779 1.460643,-0.96208 4.221859,-0.95314 2.76854,0.009 4.215597,0.98046 1.454358,0.97883 1.448405,2.81721 z" />
    <path
       id="path6957"
       style="fill:none;stroke:#800000;stroke-width:1;stroke-linecap:butt;stroke-linejoin:miter;stroke-miterlimit:10;stroke-dasharray:8, 8;stroke-dashoffset:0;stroke-opacity:1"
       d="m 155.91102,614.88349 107.54383,-0.0103 m 0.005,84.90186 -107.53995,0.006 m 137.60641,-84.85388 107.53918,0.40562 m -0.3203,84.89625 -107.54008,-0.40159 m 221.63636,-477.56693 -0.7854,243.38191 m -266.01926,-0.86275 0.78647,-243.37793 m 372.77208,244.58835 0.78646,-243.37893 M 141.28286,221.05127 140.49645,464.4332 M 645.55496,58.547613 645.28058,143.44664 m -526.38041,-1.70564 152.82188,0.49622 m 68.01296,-29.65869 84.899,0.27338 m 67.8247,30.09851 152.82187,0.49622 m -373.55853,-1.20942 67.71776,62.47966 m 84.89802,0.27439 68.12088,-62.04085 m -153.0189,61.76646 84.89802,0.27439 m -0.89843,277.33738 -84.89902,-0.27438 m 0,0 -34.06835,33.85043 m 152.81781,0.4923 -33.85044,-34.06835 m -118.96737,33.57605 33.86625,28.40733 m 84.80247,30.24903 -84.89902,-0.27438 M 423.2373,544.58641 457.28984,516.397 m -118.95156,27.91503 -62.443,56.39862 m 266.32249,63.68327 -56.90395,-63.00575 m 0,0 -62.07652,-56.80176 m -147.34202,56.12424 -62.07651,-56.80176 m 333.93804,1.08066 -62.44299,56.39862 M 213.81877,543.90889 117.59761,543.5979 m 679.0929,34.00897 -84.89802,-0.27439 m -0.31099,96.22116 0.31099,-96.22116 M 117.59761,543.5979 49.864062,486.78027 M 645.28058,143.44664 713.01415,200.26527 M 733.96661,58.831167 733.69222,143.72919 M 50.799084,198.11976 118.90017,141.741 m 594.11398,58.52427 -0.93504,288.65951 m 84.89902,0.27438 -84.89902,-0.27438 m -0.28662,88.4077 0.28662,-88.4077 M 49.864062,486.78027 50.799084,198.11976 m 288.640726,6.59712 -0.89943,277.33739 m 85.79745,-277.063 -0.89843,277.33738" />
    <path
       id="path8193"
       style="font-size:15px;font-family:'DejaVu Sans';-inkscape-font-specification:DejaVuSans"
       d="m 251.02338,659.61161 -4.8e-4,-7.03125 0.62989,-4e-5 10.30544,3.96903 10e-5,1.54541 -9.69019,-3.73469 3.6e-4,5.25146 z m -42.51584,-37.17632 q 0.99609,-7e-5 1.58198,-0.68126 0.57856,-0.68119 0.57848,-1.86771 -8e-5,-1.1792 -0.57873,-1.86764 -0.58599,-0.68111 -1.58208,-0.68104 -0.9961,7e-5 -1.57466,0.68126 -0.5859,0.68852 -0.58582,1.86772 8e-5,1.18652 0.58607,1.86763 0.57866,0.68111 1.57476,0.68104 z m -2.9367,4.63643 -9e-5,-1.34765 q 0.55666,0.26363 1.12796,0.40276 0.56397,0.13912 1.12061,0.13908 1.46484,-10e-5 2.24114,-0.98892 0.76897,-0.98883 0.87871,-2.98834 -0.43209,0.63724 -1.08393,0.97419 -0.65182,0.34428 -1.43551,0.34434 -1.64795,1.1e-4 -2.60017,-1.00324 -0.95954,-0.99603 -0.95966,-2.71722 -1.1e-4,-1.68457 0.99591,-2.70271 0.99602,-1.01813 2.6513,-1.01825 1.89697,-1.3e-4 2.90049,1.45 1.00352,1.45746 1.00371,4.21869 1.7e-4,2.59277 -1.23019,4.13094 -1.23037,1.54549 -3.30313,1.54564 -0.55664,3e-5 -1.1206,-0.1098 -0.5713,-0.10982 -1.18655,-0.32951 z m -46.90923,28.8637 1.6e-4,2.41699 8.34228,-5.7e-4 -0.52752,-2.62935 1.34766,-10e-5 0.52752,2.61471 1e-4,1.47949 -9.68994,6.6e-4 1.7e-4,2.417 -1.24512,8e-5 -4.3e-4,-6.29883 z m 52.01252,32.38036 q -1.14258,8e-5 -1.72111,1.12805 -0.57122,1.12064 -0.57106,3.3765 1.5e-4,2.24854 0.57152,3.37643 0.57868,1.12056 1.72126,1.12048 1.1499,-8e-5 1.72112,-1.12072 0.57854,-1.12797 0.57839,-3.37651 -1.6e-4,-2.25586 -0.57885,-3.37642 -0.57137,-1.12789 -1.72127,-1.12781 z m -8e-5,-1.17188 q 1.83838,-1.2e-4 2.80528,1.45733 0.97422,1.45013 0.97441,4.21868 1.8e-4,2.76123 -0.97384,4.21882 -0.9667,1.45027 -2.80508,1.45039 -1.83838,1.3e-4 -2.8126,-1.45001 -0.96689,-1.45745 -0.96707,-4.21868 -1.9e-4,-2.76855 0.9665,-4.21882 0.97402,-1.45758 2.8124,-1.45771 z m 177.79008,-27.48951 0.0218,-5.80806 1.24511,0.005 -0.0167,4.45309 2.68064,0.0101 q -0.10865,-0.32268 -0.15871,-0.64513 -0.0574,-0.32249 -0.0562,-0.64475 0.007,-1.83104 1.01431,-2.89659 1.00743,-1.06556 2.72129,-1.05912 1.76513,0.007 2.74243,1.10896 0.96998,1.10229 0.96246,3.10179 -0.003,0.68847 -0.12247,1.4058 -0.11986,0.71 -0.3571,1.47083 l -1.4868,-0.006 q 0.36136,-0.65782 0.53978,-1.36029 0.17843,-0.70245 0.18138,-1.48613 0.005,-1.26709 -0.65896,-2.00934 -0.66371,-0.74225 -1.80628,-0.74655 -1.14258,-0.004 -1.81185,0.73294 -0.66929,0.73724 -0.67406,2.00432 -0.002,0.59326 0.12738,1.18701 0.12964,0.58643 0.40564,1.20271 z m -42.89554,-33.38568 3.75727,-5.82331 -3.73532,-0.014 z m 0.38333,1.29051 -1.86034,-0.007 0.0268,-7.12641 -1.56005,-0.006 0.005,-1.23046 1.56005,0.006 0.01,-2.57812 1.47216,0.006 -0.01,2.57811 4.93648,0.0186 -0.005,1.42821 z m -45.19909,32.33359 q -0.23104,1.06115 -0.95104,1.6517 -0.72002,0.59789 -1.7747,0.59392 -1.61864,-0.006 -2.50068,-1.12269 -0.88203,-1.11661 -0.87432,-3.16738 0.003,-0.68847 0.1445,-1.42036 0.13456,-0.7246 0.40848,-1.49994 l 1.42821,0.005 q -0.36121,0.61389 -0.54706,1.34561 -0.18586,0.73173 -0.18887,1.53006 -0.005,1.39159 0.54136,2.11875 0.54656,0.73448 1.59391,0.73842 0.9668,0.004 1.51135,-0.67547 0.55184,-0.67176 0.55638,-1.88025 l 0.005,-1.2744 1.21582,0.005 -0.005,1.333 q -0.004,1.09131 0.42585,1.67154 0.43728,0.58026 1.25758,0.58334 0.84228,0.003 1.29131,-0.59573 0.45633,-0.59154 0.46052,-1.70483 0.002,-0.6079 -0.12693,-1.30419 -0.12922,-0.69629 -0.4044,-1.53229 l 1.31835,0.005 q 0.23121,0.84317 0.34564,1.57602 0.1144,0.74018 0.11195,1.39204 -0.006,1.68455 -0.77906,2.6631 -0.7654,0.97857 -2.0691,0.97367 -0.90821,-0.003 -1.53613,-0.5258 -0.6206,-0.52236 -0.85869,-1.48273 z m 45.63883,37.3881 5.16353,0.0194 -0.005,1.2451 -6.94331,-0.0261 0.005,-1.24511 q 0.84557,-0.86841 2.30125,-2.32779 1.46305,-1.46667 1.83819,-1.89007 0.71344,-0.79566 0.99383,-1.34393 0.28773,-0.55556 0.28974,-1.09023 0.003,-0.87157 -0.60988,-1.4232 -0.60584,-0.55159 -1.58728,-0.55528 -0.6958,-0.003 -1.47307,0.23616 -0.76995,0.2388 -1.6507,0.72621 l 0.006,-1.49413 q 0.89491,-0.35552 1.67196,-0.5357 0.77704,-0.18019 1.42158,-0.17777 1.6992,0.006 2.70674,0.8598 1.00754,0.85341 1.0022,2.2743 -0.003,0.67382 -0.26117,1.28076 -0.25128,0.59964 -0.92087,1.41744 -0.1839,0.21172 -1.16917,1.22608 -0.98523,1.00705 -2.77919,2.82405 z m 213.14351,-462.43893 -7.03121,-0.0228 0.002,-0.62987 4.00308,-10.29226 1.5454,0.005 -3.76671,9.67779 5.25143,0.017 z M 196.25418,213.67129 q -0.9961,-0.003 -1.58423,0.67603 -0.58082,0.67928 -0.58466,1.86579 -0.004,1.17919 0.57256,1.86954 0.58373,0.68305 1.57982,0.68627 0.99608,0.003 1.57691,-0.67604 0.58815,-0.68658 0.59197,-1.86578 0.004,-1.18651 -0.57988,-1.86955 -0.57641,-0.68303 -1.57249,-0.68626 z m 2.95201,-4.62669 -0.004,1.34765 q -0.55578,-0.26547 -1.12662,-0.40648 -0.5635,-0.14099 -1.12015,-0.14279 -1.46483,-0.005 -2.2444,0.98151 -0.77224,0.98627 -0.88857,2.98542 0.43419,-0.63581 1.08712,-0.97061 0.65298,-0.34213 1.43666,-0.33959 1.64794,0.005 2.59684,1.01184 0.95624,0.99919 0.95066,2.72037 -0.005,1.68456 -1.00483,2.6994 -0.99939,1.01483 -2.65465,1.00947 -1.89696,-0.006 -2.89568,-1.45958 -0.9987,-1.46076 -0.98976,-4.22197 0.008,-2.59276 1.24384,-4.12686 1.23547,-1.54142 3.30821,-1.5347 0.55664,0.002 1.12025,0.11349 0.57093,0.11171 1.18545,0.33343 z m 355.41964,244.29337 5.80808,0.0188 -0.004,1.24512 -4.4531,-0.0144 -0.009,2.68064 q 0.32262,-0.10881 0.64504,-0.15904 0.32246,-0.0576 0.64473,-0.0565 1.83104,0.006 2.89713,1.01279 1.06607,1.00688 1.06052,2.72074 -0.006,1.76513 -1.10752,2.74301 -1.10178,0.97056 -3.10129,0.96408 -0.68846,-0.002 -1.40586,-0.12174 -0.71006,-0.11948 -1.47101,-0.35633 l 0.005,-1.4868 q 0.65802,0.36101 1.36056,0.53907 0.70256,0.17807 1.48625,0.1806 1.26708,0.004 2.00897,-0.66 0.74191,-0.6641 0.74561,-1.80668 0.004,-1.14257 -0.73389,-1.81146 -0.73758,-0.66891 -2.00466,-0.67301 -0.59326,-0.002 -1.18695,0.128 -0.58635,0.12994 -1.20249,0.40627 z m 11.47605,23.61885 3.75423,-5.82528 -3.73533,-0.0121 z m 0.38401,1.29032 -1.86035,-0.006 0.0231,-7.12643 -1.56004,-0.005 0.004,-1.23047 1.56004,0.005 0.008,-2.57811 1.47217,0.005 -0.008,2.5781 4.9365,0.016 -0.005,1.42822 z m -381.03,-21.06445 q 1.06128,0.23049 1.65221,0.95019 0.59825,0.71971 0.59484,1.77439 -0.005,1.61864 -1.12139,2.50126 -1.11614,0.88262 -3.16691,0.87598 -0.68848,-0.002 -1.42044,-0.14376 -0.72467,-0.13419 -1.50015,-0.40769 l 0.005,-1.42821 q 0.61406,0.36087 1.34588,0.54635 0.73183,0.18547 1.53016,0.18806 1.3916,0.005 2.11847,-0.54246 0.7342,-0.54694 0.7376,-1.5943 0.003,-0.96679 -0.67627,-1.51098 -0.67204,-0.5515 -1.88054,-0.55542 l -1.2744,-0.004 0.004,-1.21582 1.33299,0.004 q 1.09131,0.004 1.67131,-0.42672 0.58004,-0.43757 0.5827,-1.25788 0.003,-0.84229 -0.59641,-1.29101 -0.59179,-0.45602 -1.70506,-0.45962 -0.60791,-0.002 -1.30413,0.12761 -0.69623,0.12959 -1.53208,0.40521 l 0.004,-1.31836 q 0.84304,-0.23165 1.57583,-0.34647 0.74013,-0.11478 1.39199,-0.11267 1.68456,0.005 2.6635,0.77767 0.97898,0.76489 0.97476,2.0686 -0.003,0.90819 -0.525,1.53639 -0.52203,0.62087 -1.48229,0.85946 z m 9.39309,10.17315 -5.16355,-0.0167 0.004,-1.24511 6.94333,0.0225 -0.004,1.24511 q -0.84509,0.86885 -2.30003,2.32899 -1.46228,1.46745 -1.83718,1.89103 -0.71303,0.79604 -0.99313,1.34445 -0.28744,0.55572 -0.28917,1.09038 -0.003,0.87158 0.61062,1.42288 0.60613,0.55128 1.58756,0.55446 0.69581,0.002 1.47295,-0.23693 0.76983,-0.23921 1.65031,-0.72708 l -0.005,1.49413 q -0.8947,0.356 -1.67166,0.53658 -0.77696,0.1806 -1.42149,0.17851 -1.69921,-0.005 -2.70719,-0.85838 -1.00799,-0.85288 -1.00339,-2.27377 0.002,-0.67383 0.2605,-1.2809 0.25097,-0.59977 0.92012,-1.41793 0.1838,-0.21181 1.16853,-1.22669 0.98472,-1.00756 2.77772,-2.82549 z M 185.12,223.94059 l -2.41698,-0.008 -0.027,8.34224 2.63108,-0.51883 -0.004,1.34765 -2.61645,0.51887 -1.47948,-0.005 0.0314,-9.68989 -2.41698,-0.008 0.004,-1.24512 6.2988,0.0204 z m 384.51864,-12.96384 q -1.14257,-0.004 -1.72483,1.12235 -0.57492,1.11875 -0.58222,3.3746 -0.007,2.24852 0.56035,3.37829 0.57498,1.12248 1.71755,1.12618 1.1499,0.004 1.72481,-1.11503 0.58226,-1.12605 0.58954,-3.37457 0.007,-2.25585 -0.56767,-3.37832 -0.56764,-1.12978 -1.71753,-1.1335 z m 0.004,-1.17186 q 1.83837,0.006 2.80043,1.46659 0.96942,1.45334 0.96045,4.22188 -0.009,2.76122 -0.98777,4.21558 -0.97148,1.44705 -2.80985,1.4411 -1.83837,-0.006 -2.80779,-1.45929 -0.96208,-1.46065 -0.95314,-4.22186 0.009,-2.76855 0.98046,-4.2156 0.97884,-1.45436 2.81721,-1.4484 z" />
    <path
       id="path6963"
       style="fill:none;stroke:#ff0000;stroke-width:1;stroke-linecap:butt;stroke-linejoin:miter;stroke-miterlimit:10;stroke-dasharray:none;stroke-opacity:1"
       d="m 263.45485,614.8732 15.00019,19.10281 0.003,46.69281 -14.99813,19.10624 M 155.91102,614.88349 180.11,599.87984 l 59.14737,-0.003 24.19748,14.99682 m -107.53503,84.90756 -15.00407,-19.09868 -0.002,-46.69684 14.99725,-19.10221 m 107.54877,84.89157 -24.1951,14.99953 -59.14734,0.004 -24.19751,-14.99782 m 245.14559,-84.44781 14.92694,19.1601 -0.17293,46.6924 -15.07431,19.04375 m -107.21888,-85.30187 24.25136,-14.90675 59.14692,0.22203 24.1409,15.09034 m -107.86038,84.49466 -14.92594,-19.16013 0.17596,-46.69148 15.07118,-19.04867 m 107.21888,85.30187 -24.25223,14.91177 -59.14695,-0.22302 -24.1409,-15.09034 m 221.63636,-477.56693 84.89902,0.27438 M 248.8232,221.40192 141.28286,221.05127 m 457.66715,244.86579 -84.89402,-0.27446 m 85.68442,-243.10753 -0.7904,243.38199 m -350.91328,-1.13721 -14.82226,-54.80641 0.43335,-133.86128 15.17538,-54.71024 m 265.23279,244.24068 107.53929,0.34767 m -396.1998,-1.28269 -84.89903,-0.27438 m 0,0 107.54028,0.34665 m -21.85485,-243.4542 -0.7864,243.38193 m 396.1998,1.28269 -14.82226,-54.80641 0.43335,-133.86128 15.17537,-54.71124 m -481.09888,-1.56007 84.89902,0.27438 m 396.19986,1.28569 -107.54035,-0.35065 M 492.7331,58.052394 645.55496,58.547615 M 118.90017,141.741 l 34.43156,-14.88885 84.05087,0.27234 34.33945,15.11273 m 220.73666,0.7132 0.27439,-84.898026 m -152.99809,54.526136 19.15167,-14.93831 46.69579,0.149286 19.05154,15.062404 m -85.1942,91.86497 0.2952,-92.13835 m -68.01296,29.65869 25.40434,3.03119 37.24678,34.36448 5.06664,25.08399 m 85.1942,-91.86497 -0.29618,92.13936 m 0,0 5.22531,-25.05042 37.46735,-34.12143 25.42822,-2.869 m -154.07375,387.12792 0.15542,-48.02407 m 0,0 -4.75874,25.87085 -3.40975,3.38459 -25.89986,4.595 m 118.96737,-33.57606 -0.15542,48.02406 m 34.00586,-13.95571 -25.87484,-4.75868 -3.38453,-3.40574 -4.59107,-25.90393 m -85.19767,91.95803 0.14323,-44.20834 m -33.91293,-14.17363 24.8796,1.28959 3.38727,2.84362 5.59938,24.27411 m 84.80247,30.24903 -19.15067,14.9383 -46.69286,-0.15334 -19.05549,-15.05934 m 141.53304,146.50586 -56.90393,-63.00476 m 0.41314,-127.43507 -0.14323,44.20835 m 0.0965,-29.97465 5.75774,-24.23907 3.40706,-2.81847 24.88774,-1.13187 m 84.92793,147.99692 -62.443,56.39862 m -141.43649,-176.48051 -3.99535,23.823 -34.34501,31.01862 -24.10264,1.557 m 146.97556,57.07713 62.44298,-56.39961 m 0,0 -24.09446,-1.71258 -34.13997,-31.2432 -3.84209,-23.84598 m 181.42446,63.40887 -62.44399,56.39864 m -266.32249,-63.68327 -24.09445,-1.71257 -34.13998,-31.24321 -3.84208,-23.84598 m 582.56182,129.92312 -84.89909,-0.27837 m -163.72469,-128.56409 23.93411,4.12254 31.29773,34.65345 1.67311,24.22974 m 192.02875,-30.38841 -0.30992,96.22514 m -582.56182,-129.92312 -21.69817,14.92924 -52.92,-0.17183 -21.60299,-15.0684 m 593.88389,129.95574 -14.92923,-21.69817 0.17182,-52.92 15.0684,-21.60299 m -67.81447,-32.02894 -96.22121,-0.31399 m 249.22132,-55.79039 -0.28762,88.40771 M 117.59761,543.5979 92.71794,542.30431 55.463436,511.05438 49.864062,486.78027 M 733.69222,143.72919 645.28058,143.44664 m 0,0 24.88061,1.28957 37.25352,31.25095 5.59944,24.27811 m 20.95246,-141.434103 14.9383,19.150672 -0.15327,46.696851 -15.05942,19.0505 m -20.67807,56.53608 84.89902,0.27437 M 645.55496,58.547615 733.96661,58.831167 M 50.799084,198.11976 56.553826,173.88074 94.009383,142.86992 118.90017,141.741 m 592.89232,435.59148 -14.9323,-19.94088 0.15651,-48.62617 15.06241,-19.84065 m 0,0 -68.10109,56.37876 m 153.93515,-344.7639 -0.93504,288.65952 m -747.114068,-2.41889 -14.791079,-65.00031 0.515466,-158.76 15.210635,-64.9002" />
    <path
       id="path6965"
       style="fill:none;stroke:#00ff00;stroke-width:1;stroke-linecap:butt;stroke-linejoin:miter;stroke-miterlimit:10;stroke-dasharray:8, 2, 2, 2;stroke-dashoffset:0;stroke-opacity:1"
       d="m 263.45485,614.8732 0.005,84.90186 m -107.54003,0.006 -0.009,-84.89773 m 245.15459,0.44947 -0.3203,84.89625 m -107.54008,-0.40159 0.3212,-84.90028 m 129.75775,-84.57463 -84.89902,-0.27437 m 209.37185,14.91121 56.90495,63.00573" />
  </g>
</svg>
