<?xml version="1.0" encoding="UTF-8" standalone="no"?>
<!-- Created with Inkscape (http://www.inkscape.org/) -->

<svg
   version="1.1"
   id="svg10625"
   width="1132"
   height="1132"
   viewBox="0 0 1132 1132"
   sodipodi:docname="R.svg"
   inkscape:version="1.2.2 (732a01da63, 2022-12-09, custom)"
   xmlns:inkscape="http://www.inkscape.org/namespaces/inkscape"
   xmlns:sodipodi="http://sodipodi.sourceforge.net/DTD/sodipodi-0.dtd"
   xmlns="http://www.w3.org/2000/svg"
   xmlns:svg="http://www.w3.org/2000/svg">
  <defs
     id="defs10629" />
  <sodipodi:namedview
     id="namedview10627"
     pagecolor="#ffffff"
     bordercolor="#666666"
     borderopacity="1.0"
     inkscape:showpageshadow="2"
     inkscape:pageopacity="0.0"
     inkscape:pagecheckerboard="0"
     inkscape:deskcolor="#d1d1d1"
     showgrid="false"
     showguides="true"
     inkscape:zoom="0.65989399"
     inkscape:cx="565.2423"
     inkscape:cy="566"
     inkscape:window-width="1920"
     inkscape:window-height="1009"
     inkscape:window-x="0"
     inkscape:window-y="0"
     inkscape:window-maximized="1"
     inkscape:current-layer="g10633">
    <inkscape:page
       x="0"
       y="0"
       id="page10631"
       width="1132"
       height="1132" />
  </sodipodi:namedview>
  <g
     id="g10633"
     inkscape:groupmode="layer"
     inkscape:label="Page 1"
     transform="matrix(1.3333333,0,0,1.3333333,0,2.83e-5)">
    <path
       id="path12746"
       style="font-size:15px;font-family:'DejaVu Sans';-inkscape-font-specification:DejaVuSans;fill:#0000ff"
       d="m 810.35077,639.27814 q 0,1.14258 1.12793,1.72119 1.1206,0.57129 3.37646,0.57129 2.24854,0 3.37647,-0.57129 1.1206,-0.57861 1.1206,-1.72119 0,-1.14991 -1.1206,-1.72119 -1.12793,-0.57862 -3.37647,-0.57862 -2.25586,0 -3.37646,0.57862 -1.12793,0.57128 -1.12793,1.72119 z m -1.17188,0 q 0,-1.83838 1.45752,-2.80518 1.4502,-0.97412 4.21875,-0.97412 2.76123,0 4.21875,0.97412 1.4502,0.9668 1.4502,2.80518 0,1.83838 -1.4502,2.8125 -1.45752,0.96679 -4.21875,0.96679 -2.76855,0 -4.21875,-0.96679 -1.45752,-0.97412 -1.45752,-2.8125 z m -383.42581,1.97754 q 0,-1.14258 -1.12793,-1.7212 -1.1206,-0.57128 -3.37646,-0.57128 -2.24854,0 -3.37647,0.57128 -1.1206,0.57862 -1.1206,1.7212 0,1.1499 1.1206,1.72119 1.12793,0.57861 3.37647,0.57861 2.25586,0 3.37646,-0.57861 1.12793,-0.57129 1.12793,-1.72119 z m 1.17188,0 q 0,1.83838 -1.45752,2.80517 -1.4502,0.97412 -4.21875,0.97412 -2.76123,0 -4.21875,-0.97412 -1.4502,-0.96679 -1.4502,-2.80517 0,-1.83838 1.4502,-2.8125 1.45752,-0.9668 4.21875,-0.9668 2.76855,0 4.21875,0.9668 1.45752,0.97412 1.45752,2.8125 z m -281.27441,-495.78741 6.87222,-0.89476 -2.4027,-2.86005 z m -0.73731,1.12639 -1.19664,-1.42442 5.45652,-4.58398 -1.00348,-1.19449 0.94213,-0.79148 1.00348,1.19449 1.974,-1.65833 0.94695,1.12719 -1.974,1.65834 3.17534,3.77975 -1.09355,0.91868 z m 15.75587,3.69051 -1.55469,-1.85062 -6.38744,5.36604 2.09509,1.67404 -1.03186,0.86686 -2.08566,-1.66283 -0.95167,-1.1328 7.4193,-6.2329 -1.55468,-1.85062 0.95334,-0.8009 4.05162,4.82283 z m 529.3551,-21.76767 5.82415,3.75597 0.0132,-3.73532 z m -1.29044,0.38362 0.007,-1.86034 7.12643,0.0252 0.006,-1.56005 1.23047,0.004 -0.006,1.56005 2.5781,0.009 -0.005,1.47217 -2.57811,-0.009 -0.0175,4.93649 -1.42822,-0.005 z m 9.64405,12.99459 0.009,-2.41698 -8.34224,-0.0295 0.51804,2.63125 -1.34764,-0.005 -0.5181,-2.6166 0.005,-1.47948 9.68989,0.0343 0.009,-2.41697 1.2451,0.004 -0.0223,6.29878 z M 93.431242,152.5821 q -0.959197,0.50928 -1.875139,0.3413 -0.921544,-0.16326 -1.599956,-0.9708 -1.04117,-1.23935 -0.758817,-2.63401 0.282354,-1.39466 1.852576,-2.71379 0.527146,-0.44285 1.177452,-0.80742 0.63999,-0.36546 1.408741,-0.65736 l 0.918685,1.09355 q -0.701917,0.12095 -1.380493,0.45187 -0.678569,0.33092 -1.289835,0.84444 -1.065508,0.89513 -1.267358,1.78212 -0.207453,0.89172 0.466244,1.69365 0.621878,0.74025 1.492042,0.7171 0.869271,-0.0128 1.79458,-0.79018 l 0.975781,-0.81974 0.782056,0.93091 -1.020644,0.85744 q -0.835583,0.70196 -1.000649,1.40502 -0.160358,0.70865 0.367292,1.33674 0.541789,0.64492 1.289024,0.60069 0.746335,-0.0339 1.598741,-0.75002 0.465459,-0.39103 0.913409,-0.93953 0.447957,-0.5485 0.908237,-1.29868 l 0.848009,1.00943 q -0.494154,0.72123 -0.979567,1.28208 -0.491021,0.56556 -0.990128,0.98486 -1.289825,1.08357 -2.535966,1.12603 -1.241428,0.0481 -2.080018,-0.95014 -0.584185,-0.69538 -0.591181,-1.51216 -0.0023,-0.81117 0.576882,-1.6134 z m 7.548668,-12.41583 -1.850616,1.55469 5.366036,6.38744 1.67404,-2.09509 0.86686,1.03186 -1.66283,2.08566 -1.1328,0.95166 -6.232893,-7.4193 -1.850619,1.55469 -0.800903,-0.95335 4.822825,-4.05162 z m 626.18611,69.76839 q -0.66103,-0.86167 -0.64699,-1.79277 0.008,-0.93587 0.69257,-1.73859 1.04991,-1.23196 2.47207,-1.18436 1.42216,0.0476 2.98302,1.37781 0.52399,0.44657 0.99117,1.02755 0.46636,0.57067 0.88148,1.2805 l -0.92639,1.08703 q -0.23547,-0.67222 -0.67415,-1.28666 -0.43868,-0.61443 -1.0463,-1.13226 -1.05915,-0.90263 -1.96733,-0.95487 -0.91374,-0.057 -1.5931,0.74016 -0.62709,0.73583 -0.46022,1.59015 0.15654,0.85516 1.07633,1.63903 l 0.96996,0.82663 -0.78862,0.92536 -1.01456,-0.86463 q -0.8306,-0.70786 -1.55127,-0.75428 -0.72542,-0.0408 -1.25751,0.58351 -0.54633,0.64106 -0.37903,1.37066 0.157,0.73043 1.00432,1.45254 0.46268,0.39431 1.07777,0.74529 0.61508,0.35098 1.4311,0.68074 l -0.85513,1.0034 q -0.79309,-0.36796 -1.42655,-0.75384 -0.63903,-0.39062 -1.13516,-0.81344 -1.28213,-1.09267 -1.53027,-2.31459 -0.25292,-1.21634 0.59272,-2.2086 0.58909,-0.69123 1.39344,-0.83333 0.7996,-0.13653 1.68663,0.30186 z m 13.49407,5.38932 -1.83958,-1.56774 -5.41108,6.34933 2.34329,1.30415 -0.87414,1.02571 -2.33213,-1.29466 -1.12605,-0.95965 6.28522,-7.37502 -1.83957,-1.56774 0.80762,-0.94766 4.79404,4.08562 z m -711.589467,278.79539 -0.01826,5.16354 -1.245109,-0.004 0.02456,-6.94332 1.245109,0.004 q 0.868598,0.84537 2.328304,2.30073 1.467004,1.46272 1.890484,1.83776 0.795822,0.71326 1.344151,0.99353 0.555627,0.2876 1.090291,0.28949 0.871577,0.003 1.423066,-0.6102 0.551463,-0.60596 0.554934,-1.5874 0.0025,-0.6958 -0.236491,-1.47302 -0.238977,-0.76989 -0.726589,-1.65052 l 1.494132,0.005 q 0.355723,0.89482 0.536082,1.67183 0.180358,0.777 0.178079,1.42154 -0.006,1.6992 -0.859188,2.70694 -0.85318,1.00773 -2.274069,1.0027 -0.673824,-0.002 -1.280823,-0.26088 -0.599702,-0.25114 -1.417652,-0.92055 -0.211753,-0.18385 -1.226342,-1.16889 -1.007265,-0.98501 -2.824663,-2.77856 z m 0.03734,-10.55802 -0.0085,2.41699 8.342233,0.0295 -0.518041,-2.63125 1.347648,0.005 0.518092,2.6166 -0.0052,1.47948 -9.689881,-0.0343 -0.0085,2.41697 -1.245109,-0.004 0.02228,-6.29879 z m 741.630616,4.28447 0.0183,-5.16354 1.2451,0.004 -0.0245,6.94332 -1.24511,-0.004 q -0.86859,-0.84537 -2.3283,-2.30073 -1.46701,-1.46272 -1.89049,-1.83776 -0.79582,-0.71327 -1.34415,-0.99353 -0.55563,-0.28761 -1.09029,-0.2895 -0.87158,-0.003 -1.42306,0.6102 -0.55147,0.60597 -0.55494,1.58741 -0.002,0.6958 0.23649,1.47302 0.23898,0.76989 0.72659,1.65052 l -1.49413,-0.005 q -0.35573,-0.89481 -0.53608,-1.67183 -0.18036,-0.777 -0.17808,-1.42153 0.006,-1.6992 0.85919,-2.70694 0.85318,-1.00773 2.27407,-1.00271 0.67382,0.002 1.28082,0.26089 0.5997,0.25114 1.41765,0.92055 0.21176,0.18385 1.22634,1.16889 1.00727,0.98501 2.82467,2.77856 z m -0.0373,10.55801 0.009,-2.41698 -8.34224,-0.0295 0.51804,2.63125 -1.34765,-0.005 -0.51809,-2.61659 0.005,-1.47949 9.68988,0.0343 0.009,-2.41698 1.24511,0.004 -0.0223,6.2988 z m -704.400348,-257.7244 -2.416977,-0.009 -0.0295,8.34222 2.631243,-0.51803 -0.0048,1.34764 -2.616595,0.5181 -1.479483,-0.005 0.03427,-9.68988 -2.416977,-0.009 0.0044,-1.24512 6.298789,0.0223 z m 9.539941,0.0337 -2.416977,-0.009 -0.0295,8.34222 2.631244,-0.51803 -0.0048,1.34764 -2.616595,0.5181 -1.479483,-0.005 0.03427,-9.68988 -2.416977,-0.009 0.0044,-1.24512 6.298789,0.0223 z m 13.256837,-34.30329 1.554688,1.85061 6.38744,-5.36603 -2.095083,-1.67404 1.03186,-0.86686 2.085659,1.66282 0.951658,1.1328 -7.4193,6.2329 1.554695,1.85062 -0.953348,0.8009 -4.051618,-4.82282 z m -6.136447,-7.3045 1.554695,1.85063 6.38744,-5.36604 -2.09509,-1.67405 1.03186,-0.86685 2.085666,1.66283 0.951658,1.1328 -7.4193,6.23289 1.554689,1.85062 -0.953349,0.8009 -4.051618,-4.82283 z M 38.462924,303.35094 q 0.004,-1.14257 -1.121836,-1.72517 -1.118577,-0.57525 -3.374423,-0.58322 -2.248521,-0.008 -3.378464,0.55934 -1.122645,0.57464 -1.126686,1.71722 -0.0041,1.1499 1.114511,1.72514 1.125876,0.5826 3.374397,0.59056 2.255846,0.008 3.37849,-0.56668 1.129944,-0.56728 1.134011,-1.71719 z m 1.171867,0.004 q -0.0065,1.83837 -1.467432,2.80001 -1.453631,0.96898 -4.222169,0.95919 -2.761213,-0.01 -4.215278,-0.98904 -1.446767,-0.97192 -1.440265,-2.81029 0.0065,-1.83837 1.460133,-2.80735 1.460931,-0.96163 4.222143,-0.95186 2.768538,0.01 4.215305,0.9817 1.454065,0.97927 1.447563,2.81764 z m -9.843608,-12.48244 -0.0085,2.41698 8.342233,0.0295 -0.518042,-2.63123 1.347648,0.005 0.518093,2.61659 -0.0052,1.47949 -9.68988,-0.0343 -0.0085,2.41698 -1.24511,-0.004 0.02228,-6.29879 z m 732.916447,2.86823 q -0.004,1.14257 1.12183,1.72517 1.11859,0.57525 3.37442,0.58323 2.24853,0.008 3.37847,-0.55935 1.12265,-0.57464 1.12669,-1.71721 0.004,-1.1499 -1.11451,-1.72515 -1.12588,-0.58259 -3.37441,-0.59054 -2.25583,-0.008 -3.37848,0.56666 -1.12994,0.5673 -1.13401,1.71719 z m -1.17186,-0.004 q 0.007,-1.83837 1.46742,-2.8 1.45363,-0.969 4.22217,-0.95921 2.76122,0.01 4.21528,0.98905 1.44677,0.97191 1.44027,2.81028 -0.007,1.83837 -1.46014,2.80735 -1.46092,0.96164 -4.22215,0.95188 -2.76853,-0.01 -4.2153,-0.98172 -1.45406,-0.97927 -1.44755,-2.81763 z m 9.8436,12.48247 0.009,-2.41698 -8.34223,-0.0295 0.51804,2.63125 -1.34765,-0.005 -0.51809,-2.6166 0.005,-1.47948 9.68988,0.0343 0.009,-2.41697 1.24511,0.004 -0.0223,6.29878 z m -155.99252,271.53087 0.005,-1.34765 q 0.5557,0.26563 1.12649,0.40681 0.5708,0.14118 1.12011,0.14313 1.46484,0.005 2.23734,-0.97354 0.77986,-0.98602 0.89682,-2.99245 -0.42702,0.62837 -1.08007,0.96298 -0.65304,0.3346 -1.44405,0.33181 -1.64061,-0.006 -2.59658,-0.99796 -0.94862,-0.99945 -0.94253,-2.72063 0.006,-1.68456 1.00564,-2.6991 0.99968,-1.01454 2.65495,-1.00869 1.89696,0.007 2.88789,1.46774 0.99828,1.45374 0.98849,4.22228 -0.009,2.58543 -1.24507,4.12648 -1.22857,1.53375 -3.30132,1.52642 -0.55664,-0.002 -1.12752,-0.11385 -0.5709,-0.11189 -1.18536,-0.33378 z m 2.96072,-4.62579 q 0.99608,0.004 1.5771,-0.67559 0.58834,-0.67907 0.59254,-1.86558 0.004,-1.17919 -0.57936,-1.86241 -0.57617,-0.69052 -1.57225,-0.69405 -0.9961,-0.004 -1.58446,0.68288 -0.58102,0.6791 -0.58519,1.85829 -0.004,1.18652 0.57201,1.86971 0.58351,0.68323 1.57961,0.68675 z m -307.73043,45.59946 1.34764,0.005 q -0.26563,0.5557 -0.40681,1.12649 -0.14118,0.5708 -0.14313,1.12011 -0.005,1.46484 0.97355,2.23734 0.98602,0.77986 2.99244,0.89682 -0.62837,-0.42703 -0.96297,-1.08007 -0.33461,-0.65305 -0.33182,-1.44405 0.006,-1.64062 0.99796,-2.59659 0.99945,-0.94862 2.72064,-0.94253 1.68456,0.006 2.69909,1.00565 1.01454,0.99968 1.00869,2.65494 -0.007,1.89697 -1.46774,2.8879 -1.45374,0.99828 -4.22228,0.98849 -2.58543,-0.009 -4.12648,-1.24507 -1.53375,-1.22858 -1.52642,-3.30132 0.002,-0.55664 0.11386,-1.12753 0.11188,-0.5709 0.33378,-1.18535 z m 4.62579,2.96071 q -0.004,0.99609 0.67558,1.57711 0.67907,0.58834 1.86559,0.59254 1.17919,0.004 1.86241,-0.57936 0.69051,-0.57617 0.69404,-1.57226 0.004,-0.99609 -0.68287,-1.58446 -0.6791,-0.58101 -1.85829,-0.58518 -1.18653,-0.004 -1.86972,0.572 -0.68322,0.58352 -0.68674,1.57961 z M 653.53845,502.18472 q -0.004,1.05469 0.55808,1.66459 0.56184,0.60257 1.5506,0.60607 0.98876,0.003 1.55485,-0.59509 0.56611,-0.60591 0.56984,-1.66059 0.004,-1.05469 -0.55808,-1.66459 -0.56914,-0.60992 -1.55057,-0.6134 -0.98876,-0.003 -1.55488,0.60242 -0.56608,0.59859 -0.56984,1.66059 z m -0.63512,1.47726 q -0.23773,0.95131 -0.89148,1.48367 -0.65371,0.52503 -1.59121,0.52172 -1.31103,-0.005 -2.06945,-0.93751 -0.7584,-0.94018 -0.75265,-2.56614 0.006,-1.63329 0.77078,-2.56077 0.76501,-0.92747 2.07604,-0.92284 0.93749,0.003 1.58745,0.54028 0.64999,0.52965 0.88101,1.4753 0.25281,-1.06845 0.98,-1.65915 0.72722,-0.59801 1.77458,-0.59431 1.58934,0.006 2.4355,0.98274 0.84619,0.9698 0.83979,2.77887 -0.006,1.80907 -0.85945,2.78018 -0.85302,0.96379 -2.44236,0.95817 -1.04737,-0.004 -1.77034,-0.60686 -0.72296,-0.60314 -0.96821,-1.67335 z m -2.33832,0.53372 q 0.84961,0.003 1.32754,-0.52265 0.47797,-0.53298 0.48136,-1.49244 0.003,-0.95215 -0.47082,-1.4885 -0.47415,-0.54367 -1.32375,-0.54667 -0.84961,-0.003 -1.3276,0.53729 -0.47796,0.53299 -0.48133,1.48513 -0.003,0.95946 0.47078,1.49581 0.47422,0.52903 1.32382,0.53203 z m -334.57255,-1.16882 q 0.004,-1.05469 -0.55807,-1.66459 -0.56185,-0.60258 -1.55061,-0.60607 -0.98876,-0.003 -1.55484,0.59509 -0.56612,0.60591 -0.56985,1.66059 -0.004,1.05469 0.55808,1.66459 0.56914,0.60993 1.55058,0.6134 0.98876,0.003 1.55488,-0.60242 0.56608,-0.59859 0.56983,-1.66059 z m 0.63512,-1.47726 q 0.23774,-0.95131 0.89148,-1.48367 0.65371,-0.52503 1.59121,-0.52172 1.31103,0.005 2.06945,0.9375 0.7584,0.94019 0.75264,2.56616 -0.006,1.63329 -0.77078,2.56076 -0.76499,0.92748 -2.07602,0.92284 -0.9375,-0.003 -1.58745,-0.54029 -0.64999,-0.52964 -0.88102,-1.47529 -0.25281,1.06845 -0.98,1.65914 -0.72721,0.59802 -1.77458,0.59432 -1.58934,-0.006 -2.4355,-0.98274 -0.84618,-0.9698 -0.83978,-2.77887 0.006,-1.80907 0.85944,-2.78019 0.85303,-0.96378 2.44237,-0.95816 1.04736,0.004 1.77032,0.60685 0.72297,0.60315 0.96822,1.67336 z m 2.33832,-0.53373 q -0.8496,-0.003 -1.32753,0.52266 -0.47797,0.53298 -0.48137,1.49245 -0.003,0.95214 0.47082,1.48848 0.47415,0.54368 1.32376,0.54669 0.8496,0.003 1.32759,-0.53731 0.47796,-0.53297 0.48133,-1.48512 0.003,-0.95946 -0.47079,-1.49581 -0.4742,-0.52903 -1.32381,-0.53204 z m 208.56662,65.71171 7.03121,0.0249 -0.002,0.62988 -4.00615,10.29106 -1.5454,-0.005 3.76961,-9.67667 -5.25144,-0.0186 z m -175.76216,84.27996 7.03121,0.0249 -0.002,0.62988 -4.00615,10.29108 -1.5454,-0.005 3.7696,-9.67667 -5.25143,-0.0186 z m -282.406061,9.54048 q -0.996087,-0.004 -1.58443,0.67556 -0.581018,0.6791 -0.585215,1.86561 -0.0042,1.17919 0.572004,1.86972 0.583524,0.68321 1.579612,0.68674 0.996088,0.004 1.577106,-0.67558 0.588369,-0.6864 0.59254,-1.86559 0.0042,-1.18652 -0.579329,-1.86974 -0.5762,-0.6832 -1.572288,-0.68672 z m 2.953391,-4.62581 -0.0048,1.34765 q -0.555705,-0.26564 -1.126498,-0.40682 -0.56347,-0.14115 -1.120106,-0.14312 -1.464835,-0.005 -2.244694,0.98084 -0.772535,0.98604 -0.88947,2.98515 0.434379,-0.63568 1.087423,-0.97028 0.653068,-0.34193 1.436755,-0.33916 1.647939,0.006 2.596532,1.01261 0.955944,0.99947 0.949857,2.72065 -0.006,1.68456 -1.005647,2.6991 -0.999687,1.01454 -2.654951,1.00869 -1.896961,-0.007 -2.895243,-1.46045 -0.998256,-1.46106 -0.98849,-4.22227 0.0092,-2.59276 1.24507,-4.12648 1.235927,-1.54105 3.308668,-1.53372 0.556638,0.002 1.12021,0.11382 0.570896,0.11189 1.18535,0.33379 z m 172.82997,-85.31328 q -0.99608,-0.004 -1.58443,0.67555 -0.58101,0.67911 -0.58521,1.86562 -0.004,1.17919 0.572,1.86972 0.58353,0.68321 1.57961,0.68674 0.99608,0.004 1.57711,-0.67558 0.58837,-0.6864 0.59254,-1.8656 0.004,-1.18651 -0.57933,-1.86974 -0.57621,-0.68319 -1.57229,-0.68671 z m 2.95339,-4.62581 -0.005,1.34765 q -0.5557,-0.26564 -1.1265,-0.40682 -0.56346,-0.14115 -1.1201,-0.14312 -1.46484,-0.005 -2.24469,0.98083 -0.77254,0.98604 -0.88947,2.98516 0.43438,-0.63568 1.08742,-0.97028 0.65307,-0.34193 1.43675,-0.33916 1.64794,0.006 2.59654,1.01261 0.95594,0.99947 0.94985,2.72065 -0.006,1.68456 -1.00564,2.6991 -0.99969,1.01453 -2.65495,1.00868 -1.89696,-0.007 -2.89525,-1.46044 -0.99826,-1.46106 -0.98849,-4.22227 0.009,-2.59277 1.24507,-4.12648 1.23593,-1.54105 3.30867,-1.53372 0.55663,0.002 1.12021,0.11382 0.5709,0.11189 1.18535,0.33379 z m 26.12284,-62.20319 0.0205,-5.80808 1.2451,0.004 -0.0158,4.45309 2.68066,0.009 q -0.10873,-0.32265 -0.15885,-0.6451 -0.0575,-0.32246 -0.0563,-0.64473 0.006,-1.83104 1.01367,-2.89682 1.00719,-1.06578 2.72104,-1.05972 1.76513,0.006 2.74269,1.10834 0.97023,1.10207 0.96316,3.10157 -0.002,0.68847 -0.12217,1.40582 -0.1197,0.71003 -0.35676,1.47092 l -1.48681,-0.005 q 0.36122,-0.6579 0.53948,-1.3604 0.17827,-0.7025 0.18104,-1.48619 0.004,-1.26708 -0.6594,-2.00918 -0.66389,-0.74209 -1.80646,-0.74614 -1.14256,-0.004 -1.81169,0.73334 -0.66911,0.73739 -0.67359,2.00447 -0.002,0.59326 0.12763,1.18698 0.12977,0.5864 0.40591,1.20262 z m 421.08311,-2.34826 -0.0206,5.80807 -1.24511,-0.004 0.0158,-4.45311 -2.68064,-0.009 q 0.10872,0.32266 0.15885,0.6451 0.0575,0.32247 0.0563,0.64473 -0.006,1.83105 -1.01367,2.89683 -1.0072,1.06578 -2.72106,1.05972 -1.76512,-0.006 -2.74268,-1.10834 -0.97022,-1.10208 -0.96315,-3.10158 0.002,-0.68846 0.12216,-1.40582 0.11969,-0.71003 0.35677,-1.47091 l 1.48681,0.005 q -0.36122,0.6579 -0.53949,1.3604 -0.17826,0.70249 -0.18104,1.48619 -0.004,1.26708 0.6594,2.00917 0.66388,0.74211 1.80645,0.74615 1.14258,0.004 1.8117,-0.73335 0.66911,-0.73738 0.67359,-2.00446 0.002,-0.59327 -0.12764,-1.18699 -0.12976,-0.58639 -0.4059,-1.20261 z m -595.676206,119.81648 5.824156,3.75597 0.0132,-3.73532 z m -1.290425,0.38362 0.0066,-1.86034 7.126411,0.0252 0.006,-1.56005 1.23046,0.004 -0.006,1.56005 2.57811,0.009 -0.005,1.47217 -2.57811,-0.009 -0.0175,4.93649 -1.42821,-0.005 z m 59.598031,-54.92054 -3.75597,5.82415 3.73532,0.0132 z m -0.38363,-1.29042 1.86035,0.007 -0.0252,7.12641 1.56005,0.006 -0.004,1.23046 -1.56004,-0.006 -0.009,2.57811 -1.47216,-0.005 0.009,-2.5781 -4.9365,-0.0175 0.005,-1.42821 z M 33.257997,625.18306 q -0.230806,1.06121 -0.950672,1.65193 -0.719894,0.59803 -1.774574,0.5943 -1.618642,-0.006 -2.50093,-1.12213 -0.882287,-1.11641 -0.875034,-3.16717 0.0024,-0.68848 0.144184,-1.4204 0.1344,-0.72463 0.40814,-1.50003 l 1.428213,0.005 q -0.361059,0.61396 -0.546755,1.34573 -0.185694,0.73176 -0.188518,1.5301 -0.0049,1.3916 0.541827,2.11863 0.546723,0.73436 1.594079,0.73806 0.966791,0.003 1.511189,-0.67581 0.551696,-0.67188 0.55597,-1.88036 l 0.0045,-1.27442 1.215814,0.004 -0.0047,1.33301 q -0.0039,1.0913 0.42622,1.67143 0.437404,0.58018 1.257711,0.58308 0.84228,0.003 1.291179,-0.59603 0.456196,-0.59165 0.460134,-1.70492 0.0022,-0.60791 -0.127224,-1.30417 -0.129375,-0.69626 -0.40474,-1.5322 l 1.318351,0.005 q 0.231394,0.8431 0.345991,1.57593 0.11457,0.74016 0.112265,1.39201 -0.006,1.68456 -0.778468,2.66328 -0.765184,0.97875 -2.068887,0.97414 -0.908197,-0.003 -1.536237,-0.52546 -0.620716,-0.52221 -0.85902,-1.48254 z M 730.39038,572.48594 q 1.06121,0.2308 1.65192,0.95067 0.59804,0.7199 0.59431,1.77457 -0.006,1.61865 -1.12213,2.50094 -1.11641,0.88229 -3.16718,0.87503 -0.68847,-0.002 -1.42039,-0.14418 -0.72463,-0.13441 -1.50003,-0.40814 l 0.005,-1.42822 q 0.61396,0.36106 1.34573,0.54675 0.73176,0.1857 1.5301,0.18852 1.3916,0.005 2.11863,-0.54183 0.73436,-0.54671 0.73806,-1.59408 0.003,-0.96678 -0.67581,-1.51118 -0.67188,-0.55169 -1.88036,-0.55597 l -1.27442,-0.005 0.004,-1.21581 1.33301,0.005 q 1.0913,0.004 1.67143,-0.42623 0.58017,-0.4374 0.58308,-1.25771 0.003,-0.84228 -0.59603,-1.29118 -0.59165,-0.45619 -1.70492,-0.46013 -0.60791,-0.002 -1.30417,0.12723 -0.69626,0.12937 -1.5322,0.40473 l 0.005,-1.31835 q 0.8431,-0.23139 1.57593,-0.34599 0.74016,-0.11457 1.39201,-0.11227 1.68456,0.006 2.66328,0.77848 0.97875,0.76518 0.97414,2.06889 -0.003,0.90819 -0.52546,1.53623 -0.52221,0.62071 -1.48254,0.85902 z M 594.3413,95.383244 l -5.16355,-0.01826 0.004,-1.245109 6.94332,0.02456 -0.004,1.24511 q -0.84536,0.868597 -2.30073,2.328303 -1.46272,1.467004 -1.83775,1.890485 -0.71326,0.795827 -0.99353,1.344157 -0.28761,0.55563 -0.2895,1.09029 -0.003,0.87158 0.61021,1.42307 0.60596,0.55146 1.58739,0.55493 0.6958,0.002 1.47302,-0.2365 0.76989,-0.23897 1.65053,-0.72658 l -0.005,1.49413 q -0.89482,0.35573 -1.67183,0.53608 -0.77701,0.18036 -1.42154,0.17808 -1.69921,-0.006 -2.70694,-0.85919 -1.00773,-0.85318 -1.0027,-2.27407 0.002,-0.67382 0.26087,-1.28082 0.25115,-0.5997 0.92055,-1.417654 0.18386,-0.211754 1.1689,-1.226342 0.98501,-1.007265 2.77856,-2.824664 z m -300.28326,83.838986 -5.16354,-0.0183 0.004,-1.24511 6.94332,0.0246 -0.004,1.24511 q -0.84537,0.86859 -2.30073,2.3283 -1.46272,1.467 -1.83776,1.89049 -0.71327,0.79581 -0.99353,1.34414 -0.28761,0.55563 -0.2895,1.0903 -0.003,0.87157 0.6102,1.42306 0.60597,0.55146 1.58741,0.55493 0.6958,0.002 1.47302,-0.23648 0.76989,-0.23898 1.65053,-0.7266 l -0.005,1.49413 q -0.89482,0.35573 -1.67183,0.53609 -0.77701,0.18036 -1.42153,0.17808 -1.69921,-0.006 -2.70694,-0.85919 -1.00774,-0.85318 -1.00271,-2.27407 0.002,-0.67382 0.26088,-1.28082 0.25114,-0.5997 0.92055,-1.41765 0.18385,-0.21175 1.16889,-1.22635 0.98501,-1.00726 2.77856,-2.82466 z m 194.75859,-45.90141 -0.009,2.41697 8.34223,0.0295 -0.51804,-2.63124 1.34764,0.005 0.5181,2.61659 -0.005,1.47949 -9.68988,-0.0343 -0.009,2.41697 -1.24511,-0.004 0.0223,-6.29879 z m -43.96439,46.43344 -2.41697,-0.009 -0.0295,8.34223 2.63124,-0.51804 -0.005,1.34765 -2.61659,0.51809 -1.47949,-0.005 0.0343,-9.68988 -2.41697,-0.009 0.004,-1.24511 6.29879,0.0223 z m -1.77995,387.65015 q -1.14256,-0.004 -1.72517,1.12184 -0.57525,1.11858 -0.58323,3.37442 -0.008,2.24852 0.55935,3.37846 0.57465,1.12265 1.71722,1.12669 1.1499,0.004 1.72515,-1.11451 0.58259,-1.12588 0.59055,-3.37439 0.008,-2.25585 -0.56667,-3.3785 -0.5673,-1.12994 -1.7172,-1.13401 z m 0.004,-1.17186 q 1.83836,0.007 2.8,1.46743 0.96899,1.45363 0.9592,4.22217 -0.01,2.76121 -0.98904,4.21528 -0.97192,1.44676 -2.81029,1.44026 -1.83836,-0.007 -2.80735,-1.46013 -0.96163,-1.46093 -0.95187,-4.22215 0.01,-2.76854 0.98171,-4.2153 0.97928,-1.45406 2.81764,-1.44756 z m -55.08917,53.90046 q -0.004,1.14257 1.12184,1.72517 1.11857,0.57525 3.37442,0.58323 2.24852,0.008 3.37846,-0.55935 1.12264,-0.57464 1.12669,-1.71721 0.004,-1.14991 -1.11451,-1.72515 -1.12588,-0.5826 -3.3744,-0.59055 -2.25585,-0.008 -3.37849,0.56667 -1.12994,0.56729 -1.13401,1.71719 z m -1.17187,-0.004 q 0.007,-1.83837 1.46743,-2.80001 1.45364,-0.96899 4.22217,-0.95919 2.76121,0.01 4.21528,0.98903 1.44677,0.97192 1.44027,2.81029 -0.006,1.83837 -1.46014,2.80735 -1.46093,0.96163 -4.22214,0.95187 -2.76854,-0.01 -4.21531,-0.98171 -1.45406,-0.97927 -1.44756,-2.81763 z" />
    <path
       id="path11143"
       style="fill:none;stroke:#800000;stroke-width:1;stroke-linecap:butt;stroke-linejoin:miter;stroke-miterlimit:10;stroke-dasharray:8,8;stroke-dashoffset:0;stroke-opacity:1"
       d="m 177.29547,593.00152 107.53994,0.0253 m -0.0199,84.90188 -107.53994,-0.0253 m 198.7577,-525.07633 v -36.242 m 84.902,0 v 36.242 m -232.78418,1.29803 -0.2526,-36.24169 m 84.89877,-0.59072 0.25359,36.24172 m 388.2465,-60.519054 -0.30174,84.899654 m 0,0 73.36114,62.52065 m -747.703775,161.49737 84.899625,0.30074 m 662.22318,2.34123 -0.62007,175.45712 M 111.71368,356.95348 26.814023,356.65174 m 84.899657,0.30174 0.41988,-118.85804 m -84.899656,-0.30174 84.899656,0.30174 m 0,0 73.80146,-62.00032 m 588.42169,64.34054 -0.41988,118.85805 M 202.6355,255.39435 l -0.34284,96.2175 m 481.10225,1.70476 0.33972,-96.22142 m 0,0 -107.53929,-0.38181 m -0.5984,169.80217 -0.54302,152.81658 m -372.76126,-227.72028 107.53929,0.38182 m 266.02367,0.94112 107.53929,0.38182 m -373.56296,-1.32294 0.34384,-96.21753 m 0,0 -107.54029,-0.38179 m 373.55984,1.31903 -0.33972,96.22141 m 84.10196,226.69897 -84.90366,-0.30163 m -266.01867,-0.94127 0.53802,-152.81644 m 265.48065,153.75771 -90.55746,-0.31832 M 202.0341,425.19661 201.49496,578.00907 m -90.88363,90.24438 -84.899633,-0.30075 m 656.882513,-88.23879 0.54202,-152.81655 m -572.20273,150.79351 -0.32217,90.56258 m 0.32217,-90.56258 -84.903627,-0.30063 m 84.903627,0.30063 0.61906,-175.4571 m 661.60311,177.79835 -90.56146,-0.31821 m -496.65919,-403.61879 215.07846,0.75963 m 0,0 84.90362,0.30063 m 0,0 215.07847,0.75963 m -391.96032,400.47585 90.55758,0.32232 m 84.90363,0.30063 -84.90363,-0.30063 m 1.42065,-401.85843 -1.42065,401.85843 m 86.32427,-401.5578 -1.42064,401.85843" />
    <path
       id="path12573"
       style="font-size:15px;font-family:'DejaVu Sans';-inkscape-font-specification:DejaVuSans"
       d="m 278.13237,634.45582 q -2.2e-4,1.05469 0.56362,1.66272 0.56383,0.6007 1.5526,0.60091 0.98877,2.1e-4 1.55286,-0.60025 0.5641,-0.60779 0.56432,-1.66248 2.3e-4,-1.05469 -0.56361,-1.66272 -0.57116,-0.60804 -1.5526,-0.60824 -0.98877,-2.1e-4 -1.55286,0.60758 -0.5641,0.60047 -0.56433,1.66248 z m -0.63019,1.47935 q -0.23458,0.9521 -0.88655,1.48663 -0.65197,0.52721 -1.58947,0.52701 -1.31103,-2.8e-4 -2.07255,-0.93061 -0.76152,-0.93767 -0.76118,-2.56364 3.5e-4,-1.6333 0.76227,-2.56332 0.76192,-0.93001 2.07295,-0.92973 0.9375,2e-4 1.58924,0.53499 0.65174,0.52749 0.88592,1.47236 0.24925,-1.06927 0.97447,-1.66239 0.72523,-0.60043 1.77259,-0.6002 1.58936,3.3e-4 2.43875,0.97463 0.84941,0.96698 0.84902,2.77606 -3.8e-4,1.80908 -0.8502,2.78302 -0.8498,0.96662 -2.43916,0.96629 -1.04736,-2.3e-4 -1.77233,-0.60097 -0.72498,-0.60073 -0.97377,-1.67013 z m -2.33654,0.5415 q 0.84961,1.8e-4 1.3258,-0.52706 0.47618,-0.53457 0.47638,-1.49404 2.1e-4,-0.95215 -0.47575,-1.48692 -0.47596,-0.54209 -1.32557,-0.54227 -0.84961,-1.8e-4 -1.3258,0.54171 -0.47619,0.53456 -0.4764,1.48671 -2e-4,0.95947 0.47577,1.49424 0.47596,0.52745 1.32557,0.52763 z m -41.81846,-31.0253 -7.03125,-10e-4 1.4e-4,-0.62988 3.97192,-10.30432 1.54541,3.3e-4 -3.73741,9.68914 5.25146,10e-4 z m -48.50583,31.17896 q 2.1e-4,-0.99609 -0.68081,-1.58217 -0.68103,-0.57876 -1.86756,-0.57901 -1.17919,-2.5e-4 -1.86779,0.57821 -0.68128,0.5858 -0.68149,1.58189 -2.1e-4,0.9961 0.68082,1.57485 0.68835,0.58609 1.86754,0.58634 1.18653,2.5e-4 1.86781,-0.58554 0.68127,-0.57847 0.68148,-1.57457 z m 4.63561,2.93801 -1.34765,-2.9e-4 q 0.26379,-0.55658 0.40307,-1.12784 0.13928,-0.56394 0.13939,-1.12058 3.2e-4,-1.46484 -0.98829,-2.24142 -0.98861,-0.76925 -2.98809,-0.87955 0.63712,0.43227 0.97389,1.0842 0.3441,0.65192 0.34393,1.43562 -3.5e-4,1.64794 -1.00397,2.59988 -0.99629,0.95927 -2.71749,0.9589 -1.68457,-3.6e-4 -2.70242,-0.99667 -1.01786,-0.99631 -1.01751,-2.65159 4e-4,-1.89697 1.45082,-2.90008 1.45773,-1.0031 4.21896,-1.00251 2.59277,5.5e-4 4.1306,1.23133 1.54515,1.2308 1.54471,3.30356 -1.2e-4,0.55664 -0.11011,1.12058 -0.10998,0.57126 -0.32984,1.18646 z m 39.65092,25.91131 5.80811,10e-4 -2.7e-4,1.24512 -4.45313,-9.4e-4 -5.7e-4,2.68066 q 0.3223,-0.10979 0.64457,-0.161 0.32228,-0.0585 0.64454,-0.0585 1.83106,3.9e-4 2.90018,1.00404 1.06912,1.00364 1.06876,2.71751 -3.8e-4,1.76513 -1.09922,2.74635 -1.09884,0.97389 -3.09835,0.97346 -0.68847,-1.4e-4 -1.40623,-0.11749 -0.71042,-0.11733 -1.47208,-0.35187 l 3.1e-4,-1.48682 q 0.6591,0.35903 1.36219,0.53496 0.70308,0.17593 1.48678,0.1761 1.26709,2.6e-4 2.00697,-0.66608 0.7399,-0.66634 0.74014,-1.80892 2.4e-4,-1.14258 -0.73937,-1.80924 -0.7396,-0.66667 -2.00669,-0.66693 -0.59327,-1.3e-4 -1.18655,0.13158 -0.58596,0.13171 -1.20126,0.4099 z m 547.94744,14.48941 h 2.41699 v -8.34229 l -2.62939,0.52734 v -1.34765 l 2.61474,-0.52735 h 1.47949 v 9.68995 h 2.417 v 1.24511 h -6.29883 z m -9.53998,0 h 2.41699 v -8.34229 l -2.62939,0.52734 v -1.34765 l 2.61474,-0.52735 h 1.4795 v 9.68995 h 2.41699 v 1.24511 h -6.29883 z m 0.0816,-70.69239 q 1.14258,0 1.72119,-1.12793 0.57129,-1.1206 0.57129,-3.37646 0,-2.24854 -0.57129,-3.37647 -0.57861,-1.1206 -1.72119,-1.1206 -1.1499,0 -1.72119,1.1206 -0.57861,1.12793 -0.57861,3.37647 0,2.25586 0.57861,3.37646 0.57129,1.12793 1.72119,1.12793 z m 0,1.17188 q -1.83838,0 -2.80517,-1.45752 -0.97412,-1.4502 -0.97412,-4.21875 0,-2.76123 0.97412,-4.21875 0.96679,-1.4502 2.80517,-1.4502 1.83838,0 2.8125,1.4502 0.9668,1.45752 0.9668,4.21875 0,2.76855 -0.9668,4.21875 -0.97412,1.45752 -2.8125,1.45752 z m 12.4477,-9.8877 h -2.417 v 8.34229 l 2.6294,-0.52735 v 1.34766 l -2.61475,0.52734 h -1.47949 v -9.68994 h -2.41699 v -1.24512 h 6.29883 z m -106.11573,-1.01806 v 1.34765 q -0.55664,-0.26367 -1.12793,-0.40283 -0.57129,-0.13916 -1.1206,-0.13916 -1.46485,0 -2.23389,0.98145 -0.77637,0.98876 -0.88623,2.9956 0.42481,-0.62988 1.07666,-0.9668 0.65186,-0.33691 1.44287,-0.33691 1.64063,0 2.6001,0.98877 0.95215,0.99609 0.95215,2.71728 0,1.68457 -0.9961,2.70264 -0.99609,1.01807 -2.65136,1.01807 -1.89698,0 -2.89307,-1.45752 -1.00342,-1.4502 -1.00342,-4.21875 0,-2.58545 1.23047,-4.13086 1.22315,-1.53809 3.2959,-1.53809 0.55664,0 1.12793,0.10987 0.57129,0.10986 1.18652,0.32959 z m -2.94433,4.63623 q -0.9961,0 -1.57471,0.68115 -0.58594,0.68115 -0.58594,1.86767 0,1.1792 0.58594,1.86036 0.57861,0.68847 1.57471,0.68847 0.99609,0 1.58203,-0.68847 0.57861,-0.68116 0.57861,-1.86036 0,-1.18652 -0.57861,-1.86767 -0.58594,-0.68115 -1.58203,-0.68115 z m -201.25833,67.38916 -3.73536,5.8374 h 3.73536 z m -0.38819,-1.28907 h 1.86035 v 7.12647 h 1.56006 v 1.23047 h -1.56006 v 2.57812 h -1.47216 v -2.57812 h -4.93653 v -1.42823 z m -3.78125,-65.06738 q -1.06201,-0.22705 -1.65527,-0.94482 -0.60059,-0.71778 -0.60059,-1.77246 0,-1.61866 1.11328,-2.50489 1.11329,-0.88623 3.16407,-0.88623 0.68847,0 1.4209,0.13916 0.72509,0.13184 1.50146,0.40283 v 1.42823 q -0.61523,-0.35889 -1.34766,-0.54199 -0.73242,-0.18311 -1.53076,-0.18311 -1.3916,0 -2.1167,0.54932 -0.73242,0.54931 -0.73242,1.59668 0,0.96679 0.68115,1.50878 0.67383,0.54932 1.88233,0.54932 h 1.27441 v 1.21582 H 467.298 q -1.0913,0 -1.66992,0.43213 -0.57861,0.43945 -0.57861,1.25977 0,0.84228 0.60058,1.28906 0.59327,0.4541 1.70655,0.4541 0.60791,0 1.30371,-0.13184 0.6958,-0.13183 1.53076,-0.41015 v 1.31836 q -0.84228,0.23437 -1.57471,0.35156 -0.73974,0.11719 -1.3916,0.11719 -1.68457,0 -2.66601,-0.76905 -0.98145,-0.76171 -0.98145,-2.06543 0,-0.9082 0.52002,-1.53808 0.52002,-0.62256 1.47949,-0.86426 z m 103.77347,74.75733 h 5.16357 v 1.24511 h -6.94335 v -1.24511 q 0.84228,-0.87159 2.29248,-2.33643 1.45752,-1.47217 1.83105,-1.89697 0.71045,-0.79834 0.98877,-1.34766 0.28564,-0.55664 0.28564,-1.09131 0,-0.87158 -0.61523,-1.4209 -0.60791,-0.54931 -1.58936,-0.54931 -0.6958,0 -1.47216,0.2417 -0.76905,0.2417 -1.64795,0.73242 v -1.49414 q 0.89355,-0.35889 1.66992,-0.54199 0.77637,-0.18311 1.4209,-0.18311 1.69922,0 2.70996,0.84961 1.01074,0.84961 1.01074,2.27051 0,0.67383 -0.25635,1.28174 -0.24902,0.60058 -0.91552,1.42089 -0.18311,0.21241 -1.16455,1.23047 -0.98145,1.01074 -2.76856,2.83448 z m 101.07959,0 h 2.41699 v -8.34229 l -2.62939,0.52734 v -1.34765 l 2.61474,-0.52735 h 1.4795 v 9.68995 h 2.41699 v 1.24511 h -6.29883 z M 568.9538,609.27667 q 1.14257,0 1.72119,-1.12793 0.57129,-1.1206 0.57129,-3.37646 0,-2.24854 -0.57129,-3.37647 -0.57862,-1.1206 -1.72119,-1.1206 -1.14991,0 -1.7212,1.1206 -0.57861,1.12793 -0.57861,3.37647 0,2.25586 0.57861,3.37646 0.57129,1.12793 1.7212,1.12793 z m 0,1.17188 q -1.83838,0 -2.80518,-1.45752 -0.97412,-1.4502 -0.97412,-4.21875 0,-2.76123 0.97412,-4.21875 0.9668,-1.4502 2.80518,-1.4502 1.83838,0 2.8125,1.4502 0.96679,1.45752 0.96679,4.21875 0,2.76855 -0.96679,4.21875 -0.97412,1.45752 -2.8125,1.45752 z M 412.38141,123.27756 q 1.05469,0 1.6626,-0.56397 0.60058,-0.56396 0.60058,-1.55273 0,-0.98877 -0.60058,-1.55274 -0.60791,-0.56396 -1.6626,-0.56396 -1.05469,0 -1.6626,0.56396 -0.60791,0.57129 -0.60791,1.55274 0,0.98877 0.60791,1.55273 0.60059,0.56397 1.6626,0.56397 z m 1.47949,0.62988 q 0.95215,0.23438 1.48682,0.88623 0.52734,0.65186 0.52734,1.58936 0,1.31103 -0.93017,2.07275 -0.9375,0.76172 -2.56348,0.76172 -1.6333,0 -2.56348,-0.76172 -0.93017,-0.76172 -0.93017,-2.07275 0,-0.9375 0.53466,-1.58936 0.52735,-0.65185 1.47217,-0.88623 -1.06933,-0.24902 -1.6626,-0.97412 -0.60058,-0.7251 -0.60058,-1.77246 0,-1.58936 0.97412,-2.43897 0.9668,-0.84961 2.77588,-0.84961 1.80908,0 2.7832,0.84961 0.9668,0.84961 0.9668,2.43897 0,1.04736 -0.60059,1.77246 -0.60058,0.7251 -1.66992,0.97412 z m 0.54199,2.33643 q 0,-0.84961 -0.52734,-1.32569 -0.53467,-0.47607 -1.49414,-0.47607 -0.95215,0 -1.48682,0.47607 -0.54199,0.47608 -0.54199,1.32569 0,0.84961 0.54199,1.32568 0.53467,0.47607 1.48682,0.47607 0.95947,0 1.49414,-0.47607 0.52734,-0.47607 0.52734,-1.32568 z m 10.42624,-6.91407 h -2.41699 v 8.34229 l 2.62939,-0.52735 v 1.34766 l -2.61474,0.52734 h -1.47949 v -9.68994 h -2.417 v -1.24511 h 6.29883 z m -36.36084,18.06833 v 7.03125 h -0.62988 l -10.30518,-3.96972 v -1.54541 l 9.68995,3.73535 v -5.25147 z m -9.68994,-8.91011 v 2.41699 h 8.34229 l -0.52735,-2.62939 h 1.34766 l 0.52734,2.61475 v 1.47949 h -9.68994 v 2.41699 h -1.24512 v -6.29883 z m 45.94919,16.78172 q -0.99609,0 -1.58203,0.68116 -0.57862,0.68115 -0.57862,1.86767 0,1.1792 0.57862,1.86768 0.58594,0.68115 1.58203,0.68115 0.99609,0 1.57471,-0.68115 0.58593,-0.68848 0.58593,-1.86768 0,-1.18652 -0.58593,-1.86767 -0.57862,-0.68116 -1.57471,-0.68116 z m 2.93701,-4.63623 v 1.34766 q -0.55664,-0.26367 -1.12793,-0.40283 -0.56396,-0.13916 -1.1206,-0.13916 -1.46485,0 -2.24122,0.98877 -0.76904,0.98877 -0.8789,2.98828 0.43213,-0.63721 1.08398,-0.97412 0.65186,-0.34424 1.43555,-0.34424 1.64795,0 2.6001,1.00342 0.95947,0.99609 0.95947,2.71728 0,1.68457 -0.99609,2.70264 -0.9961,1.01807 -2.65137,1.01807 -1.89697,0 -2.90039,-1.4502 -1.00342,-1.45752 -1.00342,-4.21875 0,-2.59277 1.23047,-4.13086 1.23047,-1.54541 3.30322,-1.54541 0.55664,0 1.12061,0.10986 0.57129,0.10987 1.18652,0.32959 z m -15.56784,9.44825 h 2.41699 v -8.34229 l -2.62939,0.52735 v -1.34766 l 2.61474,-0.52734 h 1.4795 v 9.68994 h 2.41699 v 1.24511 h -6.29883 z m 36.40381,-18.47213 v -5.8081 h 1.24512 v 4.45312 h 2.68066 q -0.10986,-0.32226 -0.16113,-0.64453 -0.0586,-0.32226 -0.0586,-0.64453 0,-1.83105 1.00342,-2.90039 1.00342,-1.06934 2.71729,-1.06934 1.76513,0 2.74658,1.09864 0.97412,1.09863 0.97412,3.09814 0,0.68848 -0.11719,1.40625 -0.11719,0.71045 -0.35156,1.47217 h -1.48682 q 0.35889,-0.65918 0.53467,-1.3623 0.17578,-0.70313 0.17578,-1.48682 0,-1.26709 -0.6665,-2.00684 -0.66651,-0.73974 -1.80908,-0.73974 -1.14258,0 -1.80909,0.73974 -0.6665,0.73975 -0.6665,2.00684 0,0.59326 0.13184,1.18652 0.13183,0.58594 0.41015,1.20117 z m 9.68994,9.2983 v -2.41699 h -8.34228 l 0.52734,2.62939 h -1.34766 l -0.52734,-2.61475 v -1.47949 h 9.68994 v -2.41699 h 1.24512 v 6.29883 z M 264.29384,124.3247 q 1.05467,-0.007 1.65863,-0.57556 0.59663,-0.56814 0.58972,-1.55689 -0.007,-0.98874 -0.6114,-1.5485 -0.61183,-0.55971 -1.66649,-0.55235 -1.05467,0.007 -1.65863,0.57556 -0.6039,0.57552 -0.59705,1.55693 0.007,0.98875 0.61873,1.54846 0.60451,0.55976 1.66649,0.55235 z m 1.48385,0.61954 q 0.95377,0.22772 1.49297,0.87584 0.53188,0.64815 0.53842,1.58563 0.009,1.311 -0.91569,2.0792 -0.93216,0.76823 -2.55809,0.77958 -1.63326,0.0114 -2.56873,-0.7438 -0.93547,-0.75521 -0.94462,-2.06622 -0.007,-0.93747 0.52356,-1.59304 0.52278,-0.65552 1.46595,-0.89648 -1.07105,-0.24156 -1.66936,-0.9625 -0.60563,-0.72089 -0.61294,-1.76823 -0.0111,-1.58931 0.95707,-2.4457 0.96085,-0.85634 2.76989,-0.86896 1.80903,-0.0126 2.78906,0.83016 0.97271,0.84284 0.9838,2.43215 0.007,1.04735 -0.58821,1.77661 -0.5955,0.72928 -1.66308,0.98576 z m 0.55829,2.33258 q -0.006,-0.84959 -0.53658,-1.32196 -0.53798,-0.47234 -1.49743,-0.46564 -0.95213,0.007 -1.48346,0.48644 -0.53865,0.47984 -0.53272,1.32943 0.006,0.84959 0.55123,1.32188 0.53798,0.47232 1.4901,0.46568 0.95945,-0.007 1.49078,-0.48649 0.52401,-0.47975 0.51808,-1.32934 z m 10.3777,-6.98666 -2.41693,0.0169 0.0582,8.34208 2.62565,-0.54568 0.009,1.34763 -2.61099,0.54557 -1.47947,0.0103 -0.0676,-9.6897 -2.41693,0.0169 -0.009,-1.24509 6.29868,-0.044 z m -37.49667,22.5482 -5.86333,-3.69452 0.0261,3.73526 z m 1.28633,-0.39718 0.013,1.86031 -7.1263,0.0497 0.0109,1.56002 -1.23044,0.009 -0.0109,-1.56003 -2.57806,0.018 -0.0103,-1.47213 2.57805,-0.018 -0.0345,-4.93641 1.42818,-0.01 z m -9.78017,-12.89247 0.0169,2.41694 8.34208,-0.0582 -0.54567,-2.62565 1.34761,-0.009 0.54559,2.61101 0.0103,1.47945 -9.68972,0.0676 0.0169,2.41693 -1.24508,0.009 -0.044,-6.29868 z m 47.33139,16.83065 q 1.06357,0.21963 1.66184,0.93324 0.60557,0.71357 0.61293,1.76822 0.0113,1.61863 -1.09577,2.5126 -1.10706,0.89398 -3.15779,0.9083 -0.68847,0.005 -1.42184,-0.12924 -0.726,-0.12678 -1.50424,-0.39235 l -0.01,-1.42819 q 0.61772,0.35459 1.3514,0.53257 0.73368,0.178 1.532,0.17242 1.39156,-0.01 2.11281,-0.56408 0.72857,-0.55441 0.72126,-1.60175 -0.007,-0.96677 -0.69167,-1.504 -0.67764,-0.54459 -1.8861,-0.53616 l -1.27439,0.009 -0.008,-1.21579 1.33298,-0.009 q 1.09128,-0.008 1.66686,-0.44377 0.57554,-0.44348 0.56982,-1.26378 -0.006,-0.84226 -0.60958,-1.28484 -0.59641,-0.44995 -1.70966,-0.44217 -0.6079,0.004 -1.30276,0.14092 -0.69487,0.13669 -1.52786,0.42084 l -0.009,-1.31833 q 0.84062,-0.24025 1.5722,-0.36254 0.73892,-0.12236 1.39075,-0.1269 1.68453,-0.0118 2.67132,0.75041 0.98674,0.75485 0.99584,2.05853 0.006,0.90819 -0.50927,1.54168 -0.51566,0.62617 -1.47343,0.87457 z m -13.73325,4.74684 2.41693,-0.0169 -0.0582,-8.34208 -2.62564,0.54569 -0.009,-1.34763 2.611,-0.54558 1.47946,-0.0103 0.0676,9.6897 2.41694,-0.0169 0.009,1.24508 -6.29868,0.044 z m 45.82369,-20.14314 -0.036,-5.16344 1.24508,-0.009 0.0485,6.94319 -1.24508,0.009 q -0.87745,-0.83619 -2.35238,-2.27612 -1.4823,-1.44721 -1.9097,-1.81777 -0.80328,-0.70486 -1.35453,-0.97934 -0.55862,-0.28175 -1.09328,-0.27802 -0.87156,0.006 -1.41657,0.62513 -0.54505,0.61173 -0.5382,1.59316 0.005,0.69578 0.25197,1.47045 0.24706,0.76733 0.7439,1.64278 l -1.4941,0.0104 q -0.36512,-0.89102 -0.55363,-1.6661 -0.18853,-0.77506 -0.19303,-1.41958 -0.0119,-1.69917 0.83068,-2.71583 0.84253,-1.01664 2.2634,-1.02656 0.67381,-0.005 1.2835,0.2474 0.6023,0.24482 1.42724,0.90559 0.21368,0.18161 1.23857,1.15593 1.01758,0.97436 2.85373,2.7487 z m 0.0737,10.55782 -0.0169,-2.41694 -8.34209,0.0582 0.54568,2.62565 -1.34762,0.009 -0.54559,-2.611 -0.0103,-1.47946 9.68971,-0.0676 -0.0169,-2.41693 1.24508,-0.009 0.044,6.29867 z m 439.54855,259.65737 -5.47496,-4.41172 0.39521,-0.49046 9.557,-5.53347 1.20336,0.96966 -8.98847,5.20146 4.08911,3.295 z m 13.01785,-1.9546 -1.88202,-1.51652 -5.23431,6.49581 2.37828,1.23918 -0.84558,1.04937 -2.36688,-1.22999 -1.15203,-0.9283 6.0799,-7.54518 -1.88202,-1.51653 0.78125,-0.96953 4.90465,3.95217 z M 62.830902,409.61711 q 0.996088,0.004 1.58443,-0.67555 0.581018,-0.6791 0.585215,-1.86561 0.0042,-1.1792 -0.572004,-1.86972 -0.583524,-0.68322 -1.579612,-0.68674 -0.996088,-0.004 -1.577106,0.67558 -0.58837,0.6864 -0.59254,1.86559 -0.0042,1.18651 0.579329,1.86973 0.5762,0.68319 1.572288,0.68672 z m -2.953391,4.62581 0.0048,-1.34764 q 0.555705,0.26564 1.126499,0.40682 0.563469,0.14115 1.120105,0.14312 1.464835,0.005 2.244694,-0.98084 0.772536,-0.98604 0.889471,-2.98515 -0.43438,0.63568 -1.087424,0.97028 -0.653068,0.34193 -1.436755,0.33916 -1.647939,-0.006 -2.596532,-1.01261 -0.955944,-0.99948 -0.949857,-2.72066 0.006,-1.68456 1.005646,-2.6991 0.999689,-1.01454 2.654951,-1.00868 1.896961,0.007 2.895244,1.46045 0.998257,1.46106 0.988491,4.22227 -0.0092,2.59275 -1.245071,4.12648 -1.235927,1.54105 -3.308668,1.53372 -0.556636,-0.002 -1.120209,-0.11383 -0.570897,-0.11188 -1.185351,-0.33379 z m 15.601152,-9.39312 -2.416977,-0.009 -0.02951,8.34224 2.631244,-0.51805 -0.0048,1.34765 -2.616596,0.51809 -1.479483,-0.005 0.03427,-9.68988 -2.416977,-0.009 0.0044,-1.2451 6.298788,0.0223 z m 55.574507,-2.22679 -4.54822,3.61219 -0.77436,-0.97503 3.48715,-2.76949 -1.66716,-2.09917 q -0.18403,0.28645 -0.40451,0.52702 -0.21591,0.24631 -0.46827,0.44674 -1.43386,1.13877 -2.89529,1.01805 -1.46142,-0.12072 -2.52731,-1.46281 -1.09777,-1.38224 -0.84784,-2.83406 0.25449,-1.44607 1.82027,-2.68961 0.53913,-0.42818 1.17409,-0.78281 0.62922,-0.35007 1.37147,-0.64027 l 0.92468,1.1643 q -0.73939,0.12892 -1.39931,0.42855 -0.65993,0.29964 -1.27362,0.78704 -0.99224,0.78803 -1.15701,1.77002 -0.16476,0.98199 0.54583,1.87671 0.71059,0.89473 1.70439,0.9566 0.99379,0.0619 1.98602,-0.72617 0.46457,-0.36896 0.84715,-0.84116 0.37685,-0.46764 0.68554,-1.06822 z m 1.25493,-13.3708 -1.8927,1.50318 5.18825,6.53268 1.73105,-2.04823 0.83814,1.05533 -1.71959,2.03911 -1.15857,0.92013 -6.02637,-7.588 -1.8927,1.50318 -0.77436,-0.97503 4.93249,-3.91737 z m 5.88852,-25.27363 -6.57122,2.20163 2.90858,2.34373 z m 0.50655,-1.2473 1.44859,1.16726 -4.47146,5.5491 1.21476,0.97885 -0.77205,0.95812 -1.21476,-0.97885 -1.61763,2.00749 -1.14633,-0.9237 1.61764,-2.00749 -3.84388,-3.09739 0.89613,-1.1121 z m -16.17167,-0.58676 1.88201,1.51652 5.23432,-6.49582 -2.37828,-1.23916 0.84558,-1.04938 2.36687,1.22999 1.15202,0.9283 -6.07989,7.54518 1.88202,1.51653 -0.78124,0.96953 -4.90466,-3.95217 z M 76.795429,349.43438 q 1.061202,0.2308 1.651922,0.95067 0.598043,0.71989 0.594313,1.77458 -0.0057,1.61864 -1.122133,2.50092 -1.11641,0.88229 -3.167178,0.87504 -0.688473,-0.002 -1.420397,-0.14419 -0.724627,-0.13439 -1.500031,-0.40813 l 0.0051,-1.42822 q 0.61396,0.36106 1.34573,0.54676 0.73177,0.18569 1.530105,0.18851 1.391592,0.005 2.118629,-0.54182 0.73436,-0.54673 0.738064,-1.59408 0.0034,-0.96679 -0.675812,-1.51119 -0.671881,-0.5517 -1.88037,-0.55597 l -1.274406,-0.005 0.0043,-1.21581 1.333,0.005 q 1.091302,0.004 1.67144,-0.42622 0.580164,-0.4374 0.583065,-1.2577 0.003,-0.84229 -0.596023,-1.29118 -0.591652,-0.45621 -1.704926,-0.46014 -0.607907,-0.002 -1.30417,0.12722 -0.696261,0.12938 -1.532202,0.40475 l 0.0047,-1.31835 q 0.843109,-0.2314 1.575941,-0.346 0.740156,-0.11457 1.392006,-0.11226 1.68456,0.006 2.66328,0.77846 0.978745,0.76519 0.974134,2.06889 -0.0032,0.9082 -0.525456,1.53624 -0.522219,0.62071 -1.48254,0.85902 z m -13.782443,4.60216 2.416978,0.009 0.02951,-8.34223 -2.631243,0.51804 0.0048,-1.34765 2.616595,-0.51809 1.479483,0.005 -0.03427,9.68988 2.416978,0.009 -0.0044,1.24511 -6.298789,-0.0223 z m 698.511824,11.61204 4.0435,-3.21134 0.77436,0.97502 -5.43721,4.31822 -0.77436,-0.97502 q 0.11752,-1.20636 0.34212,-3.25535 0.22579,-2.05929 0.2541,-2.62425 0.0598,-1.06701 -0.0639,-1.67026 -0.1225,-0.61355 -0.45502,-1.03224 -0.54206,-0.68251 -1.36547,-0.73005 -0.81767,-0.0521 -1.58622,0.5583 -0.54487,0.43273 -1.00251,1.10484 -0.4519,0.66756 -0.83497,1.59844 L 754.49,359.53486 q 0.47652,-0.83676 0.9706,-1.46298 0.49408,-0.62623 0.9988,-1.02708 1.33063,-1.05678 2.65051,-1.02006 1.31988,0.0367 2.20356,1.14939 0.41907,0.52766 0.59641,1.16313 0.1785,0.62518 0.16675,1.68205 -0.0113,0.28022 -0.14668,1.68782 -0.13995,1.40188 -0.40519,3.94145 z m -8.26781,6.56628 1.89269,-1.50318 -5.18824,-6.53268 -1.73106,2.04822 -0.83813,-1.05531 1.71958,-2.03912 1.15857,-0.92013 6.02638,7.588 1.8927,-1.50317 0.77436,0.97502 -4.93249,3.91737 z m -553.52756,-72.09438 0.009,-2.41698 -8.34224,-0.0295 0.51805,2.63124 -1.34765,-0.005 -0.51809,-2.61659 0.005,-1.47949 9.68988,0.0343 0.009,-2.41697 1.2451,0.004 -0.0223,6.29879 z m -0.0337,9.53995 0.009,-2.41697 -8.34224,-0.0295 0.51805,2.63124 -1.34765,-0.005 -0.51809,-2.61659 0.005,-1.47949 9.68988,0.0343 0.009,-2.41697 1.2451,0.004 -0.0223,6.29879 z m 495.31,1.67327 q 0.004,-1.14257 -1.12183,-1.72517 -1.11859,-0.57525 -3.37443,-0.58323 -2.24852,-0.008 -3.37846,0.55935 -1.12265,0.57464 -1.12669,1.71722 -0.004,1.14989 1.11451,1.72514 1.12588,0.58259 3.3744,0.59055 2.25584,0.008 3.37849,-0.56667 1.12995,-0.5673 1.13401,-1.71719 z m 1.17187,0.004 q -0.007,1.83836 -1.46744,2.79999 -1.45362,0.96899 -4.22217,0.9592 -2.76121,-0.01 -4.21527,-0.98904 -1.44677,-0.97191 -1.44026,-2.81028 0.006,-1.83837 1.46012,-2.80735 1.46093,-0.96164 4.22215,-0.95188 2.76854,0.01 4.2153,0.98172 1.45407,0.97927 1.44757,2.81764 z m -9.84361,-12.48248 -0.009,2.41699 8.34223,0.0295 -0.51804,-2.63125 1.34766,0.005 0.51808,2.6166 -0.005,1.47948 -9.68988,-0.0343 -0.009,2.41697 -1.24511,-0.004 0.0223,-6.29879 z m -58.48417,-43.68571 0.005,-1.34765 q 0.5557,0.26563 1.1265,0.40681 0.57079,0.14118 1.12011,0.14313 1.46483,0.005 2.23733,-0.97354 0.77987,-0.98601 0.89682,-2.99245 -0.42702,0.62837 -1.08007,0.96298 -0.65304,0.33461 -1.44405,0.33181 -1.64061,-0.006 -2.59658,-0.99796 -0.94862,-0.99945 -0.94253,-2.72063 0.006,-1.68456 1.00564,-2.6991 0.99969,-1.01454 2.65495,-1.00869 1.89696,0.007 2.88789,1.46774 0.99829,1.45374 0.98849,4.22228 -0.009,2.58543 -1.24507,4.12648 -1.22857,1.53375 -3.30131,1.52642 -0.55664,-0.002 -1.12753,-0.11385 -0.5709,-0.11189 -1.18536,-0.33378 z m 2.96072,-4.62579 q 0.99608,0.004 1.57711,-0.67558 0.58834,-0.67908 0.59253,-1.86559 0.004,-1.17919 -0.57934,-1.86241 -0.57619,-0.69052 -1.57227,-0.69405 -0.99609,-0.004 -1.58445,0.68288 -0.58103,0.6791 -0.5852,1.8583 -0.004,1.18651 0.57201,1.8697 0.58352,0.68323 1.57961,0.68675 z M 243.4433,432.03538 q 1.05468,0.004 1.66459,-0.55807 0.60258,-0.56184 0.60607,-1.55061 0.004,-0.98876 -0.59509,-1.55484 -0.60591,-0.56612 -1.6606,-0.56985 -1.05468,-0.004 -1.66458,0.55809 -0.60993,0.56913 -0.6134,1.55057 -0.004,0.98876 0.60242,1.55488 0.59859,0.56608 1.66059,0.56983 z m 1.47725,0.63511 q 0.95132,0.23775 1.48368,0.8915 0.52503,0.65371 0.52172,1.5912 -0.005,1.31103 -0.9375,2.06945 -0.94019,0.7584 -2.56616,0.75265 -1.63329,-0.006 -2.56076,-0.77078 -0.92748,-0.765 -0.92284,-2.07603 0.003,-0.93749 0.54029,-1.58745 0.52964,-0.64999 1.47529,-0.88103 -1.06845,-0.2528 -1.65914,-0.97999 -0.59802,-0.72721 -0.59432,-1.77457 0.006,-1.58934 0.98274,-2.4355 0.9698,-0.84619 2.77887,-0.83979 1.80907,0.006 2.78019,0.85945 0.96377,0.85302 0.95815,2.44236 -0.004,1.04736 -0.60684,1.77033 -0.60315,0.72297 -1.67337,0.9682 z m 0.53374,2.33834 q 0.003,-0.84961 -0.52266,-1.32754 -0.53298,-0.47797 -1.49245,-0.48136 -0.95214,-0.003 -1.48848,0.47082 -0.54368,0.47415 -0.54669,1.32375 -0.003,0.84961 0.53731,1.32759 0.53297,0.47797 1.48512,0.48133 0.95946,0.003 1.49581,-0.47079 0.52903,-0.4742 0.53204,-1.3238 z m 381.67187,-20.74626 7.0312,0.0249 -0.002,0.62988 -4.00614,10.29107 -1.5454,-0.005 3.7696,-9.67667 -5.25144,-0.0186 z m -10.28264,19.95465 q 0.99608,0.004 1.58443,-0.67555 0.58101,-0.67911 0.58521,-1.86562 0.004,-1.17919 -0.572,-1.86971 -0.58353,-0.68322 -1.57961,-0.68674 -0.99609,-0.004 -1.57711,0.67557 -0.58837,0.68641 -0.59254,1.8656 -0.004,1.18651 0.57933,1.86974 0.5762,0.68319 1.57229,0.68671 z m -2.9534,4.62582 0.005,-1.34765 q 0.55571,0.26563 1.1265,0.40681 0.56347,0.14116 1.12011,0.14312 1.46483,0.005 2.24469,-0.98083 0.77253,-0.98604 0.88947,-2.98516 -0.43438,0.63568 -1.08743,0.97028 -0.65306,0.34194 -1.43674,0.33917 -1.64794,-0.006 -2.59654,-1.01261 -0.95594,-0.99948 -0.94985,-2.72066 0.006,-1.68456 1.00564,-2.6991 0.99968,-1.01453 2.65495,-1.00868 1.89696,0.007 2.89525,1.46044 0.99825,1.46106 0.98848,4.22227 -0.009,2.59277 -1.24506,4.12649 -1.23593,1.54104 -3.30868,1.53371 -0.55663,-0.002 -1.1202,-0.11382 -0.5709,-0.11189 -1.18536,-0.33378 z m -359.96223,-25.90122 5.80807,0.0205 -0.004,1.2451 -4.45309,-0.0158 -0.009,2.68065 q 0.32265,-0.10872 0.6451,-0.15885 0.32246,-0.0574 0.64473,-0.0563 1.83104,0.006 2.89682,1.01368 1.06578,1.00719 1.05971,2.72105 -0.006,1.76512 -1.10833,2.74268 -1.10207,0.97023 -3.10157,0.96316 -0.68847,-0.002 -1.40583,-0.12217 -0.71003,-0.1197 -1.47091,-0.35676 l 0.005,-1.48681 q 0.6579,0.36122 1.3604,0.53948 0.7025,0.17827 1.48619,0.18104 1.26708,0.004 2.00918,-0.6594 0.74209,-0.66389 0.74613,-1.80645 0.004,-1.14257 -0.73333,-1.8117 -0.73739,-0.66911 -2.00447,-0.67359 -0.59326,-0.002 -1.18698,0.12764 -0.5864,0.12976 -1.20262,0.4059 z m 0.41034,-49.99781 3.75597,-5.82417 -3.73533,-0.0132 z m 0.38362,1.29042 -1.86034,-0.007 0.0252,-7.12643 -1.56005,-0.006 0.004,-1.23046 1.56005,0.006 0.009,-2.5781 1.47216,0.005 -0.009,2.5781 4.93649,0.0175 -0.005,1.42822 z m 372.39211,-3.72371 q -1.0612,-0.23081 -1.65191,-0.95068 -0.59805,-0.71989 -0.59432,-1.77458 0.006,-1.61864 1.12213,-2.50092 1.11641,-0.88229 3.16718,-0.87504 0.68847,0.002 1.42039,0.14419 0.72463,0.13439 1.50004,0.40814 l -0.005,1.42821 q -0.61397,-0.36106 -1.34574,-0.54676 -0.73176,-0.18569 -1.5301,-0.18851 -1.39159,-0.005 -2.11863,0.54182 -0.73436,0.54673 -0.73806,1.59408 -0.003,0.9668 0.67581,1.51119 0.67188,0.5517 1.88037,0.55597 l 1.27441,0.005 -0.004,1.21581 -1.33301,-0.005 q -1.0913,-0.004 -1.67143,0.42622 -0.58016,0.4374 -0.58307,1.25771 -0.003,0.84228 0.59602,1.29117 0.59165,0.45621 1.70494,0.46015 0.6079,0.002 1.30416,-0.12723 0.69627,-0.12938 1.5322,-0.40475 l -0.005,1.31836 q -0.84311,0.2314 -1.57594,0.34599 -0.74015,0.11457 -1.39201,0.11226 -1.68456,-0.006 -2.66328,-0.77846 -0.97874,-0.76519 -0.97413,-2.06889 0.003,-0.90819 0.52546,-1.53623 0.52222,-0.62072 1.48253,-0.85902 z m -314.36266,-57.21173 -0.0183,5.16353 -1.24512,-0.004 0.0246,-6.94332 1.24511,0.004 q 0.8686,0.84536 2.32831,2.30073 1.46701,1.46271 1.89048,1.83775 0.79583,0.71327 1.34416,0.99353 0.55562,0.28761 1.09029,0.2895 0.87158,0.003 1.42306,-0.6102 0.55146,-0.60596 0.55494,-1.58741 0.002,-0.69579 -0.2365,-1.47301 -0.23897,-0.76989 -0.72658,-1.65052 l 1.49413,0.005 q 0.35572,0.89482 0.53608,1.67183 0.18036,0.777 0.17808,1.42154 -0.006,1.6992 -0.85919,2.70694 -0.85318,1.00772 -2.27407,1.0027 -0.67382,-0.002 -1.28082,-0.26088 -0.5997,-0.25115 -1.41766,-0.92055 -0.21175,-0.18385 -1.22634,-1.1689 -1.00726,-0.98501 -2.82466,-2.77855 z m -57.73257,-50.46489 2.41697,0.009 0.0295,-8.34223 -2.63124,0.51804 0.005,-1.34765 2.6166,-0.51809 1.47948,0.005 -0.0343,9.68988 2.41697,0.009 -0.004,1.24511 -6.29879,-0.0223 z m 309.54925,50.96235 q -0.004,1.14258 1.12184,1.72517 1.11857,0.57525 3.37442,0.58323 2.24852,0.008 3.37847,-0.55934 1.12264,-0.57465 1.12668,-1.71722 0.004,-1.14989 -1.11451,-1.72514 -1.12587,-0.5826 -3.3744,-0.59055 -2.25585,-0.008 -3.37849,0.56666 -1.12994,0.5673 -1.13401,1.71719 z m -1.17187,-0.004 q 0.006,-1.83837 1.46743,-2.80001 1.45364,-0.96898 4.22217,-0.95919 2.76122,0.01 4.21528,0.98903 1.44677,0.97193 1.44027,2.81029 -0.006,1.83837 -1.46014,2.80736 -1.46093,0.96164 -4.22214,0.95187 -2.76853,-0.01 -4.2153,-0.98171 -1.45407,-0.97927 -1.44757,-2.81764 z" />
    <path
       id="path11149"
       style="fill:none;stroke:#ff0000;stroke-width:1;stroke-linecap:butt;stroke-linejoin:miter;stroke-miterlimit:10;stroke-dasharray:none;stroke-opacity:1"
       d="m 284.83541,593.02685 14.99448,19.1032 -0.0117,46.69684 -15.00273,19.10181 m -107.51999,-84.92718 24.19949,-14.99245 59.14725,0.01 24.1932,15.00791 m -107.55988,84.87639 -14.9946,-19.1072 0.007,-46.69269 15.00773,-19.10196 m 107.51981,84.92718 -24.19949,14.99245 -59.14734,-0.0129 -24.19311,-15.00491 m 644.53656,4.81047 h -96.219 m 96.219,-84.898 v 84.898 m -407.52,0 -15,-19.101 v -46.696 l 15,-19.101 m 311.301,0 h 96.219 m -203.758,0 h 107.539 m -203.758,84.898 h -107.543 m 0,-84.898 h 107.543 m 96.219,84.898 h -96.219 m 203.758,0 h -107.539 m -96.219,-84.898 h 96.219 M 376.03323,116.58507 h 84.902 m -84.902,36.242 -15,-16.309 v -3.625 l 15,-16.308 m 84.902,36.242 h -84.902 m 84.902,-36.242 15,16.308 v 3.625 l -15,16.309 m -233.03678,-34.94366 18.99628,-15.13416 46.69499,-0.32193 19.2075,14.86537 m -84.64617,36.83241 -15.11242,-16.20577 -0.0272,-3.62292 14.88701,-16.413 m 85.15237,35.651 -84.89976,0.59069 m 84.64617,-36.83241 15.11352,16.2018 0.0231,3.62682 -14.88302,16.4131 m -181.72757,-42.44524 54.61177,65.00595 m 515.36229,-83.079764 14.93114,19.157244 -0.16359,46.69194 -15.06929,19.05047 M 57.521798,173.08949 131.32325,111.08917 m 569.67232,66.82584 26.23588,2.64989 40.34785,34.38683 6.77741,25.48393 m -28.80039,141.40111 28.21942,22.73823 m -747.122805,-2.64197 19.153126,-14.93502 46.696055,0.16747 19.050444,15.06829 m 0,0 28.37954,-22.54203 M 26.029873,577.39024 26.652935,401.93303 m 747.122805,2.64197 14.86301,39.53059 -0.34265,96.50261 -15.14043,39.42392 M 139.9321,379.69174 111.71368,356.95348 m 0,0 -19.157268,14.93014 -46.691913,-0.16259 -19.050476,-15.06929 m 747.122807,2.64197 -28.38051,22.54306 M 27.233904,237.7937 l 19.153241,-14.93103 46.69594,0.16348 19.050475,15.06929 m 0,0 -54.611762,-65.00595 M 26.814023,356.65174 27.233904,237.7937 m 747.122806,2.64196 14.90749,26.79807 -0.23229,65.37361 -15.09508,26.68637 M 202.6355,255.39435 l 14.92218,21.70155 -0.18774,52.9222 -15.07728,21.59375 m 481.10225,1.70476 -14.9223,-21.70554 0.18885,-52.91824 15.07317,-21.59764 m 0,0 -24.24585,14.91322 -59.14735,-0.20802 -24.14609,-15.08701 m -374.16124,168.48323 84.89851,0.29677 m 396.20362,1.40398 -107.53929,-0.38181 m 0,0 84.89863,0.30077 m -350.9223,-1.2419 -107.53917,-0.37781 m 0.25856,-73.58476 24.24985,-14.91333 59.14738,0.20902 24.14206,15.08613 m 266.02367,0.94112 24.24985,-14.91333 59.14735,0.20802 24.14209,15.08713 m -373.56296,-1.32294 -14.92218,-21.70155 0.18774,-52.9222 15.07828,-21.59378 m 0,0 -24.24985,14.91333 -59.14735,-0.20802 -24.14309,-15.0871 m 373.55984,1.31903 14.9263,21.70543 -0.18885,52.91823 -15.07717,21.59775 m 84.10196,226.69897 -19.15724,14.93113 -46.69594,-0.16347 -19.05048,-15.06929 m -266.32041,83.95839 0.30174,-84.89966 m 351.46032,-151.57454 -0.53799,152.81744 m -350.92233,-1.2429 -14.8817,-34.43396 0.2981,-84.0512 15.12162,-34.33128 m 265.48065,153.75771 -20.42683,14.92858 -49.81056,-0.17506 -20.32007,-15.07184 m -85.20437,84.599 -90.55858,-0.32229 M 110.61133,668.25345 91.457085,683.1845 44.762029,683.017 25.711697,667.9527 m 260.682923,-89.64188 -84.89966,-0.30175 m 85.43765,-152.51569 -0.53799,152.81744 m 396.19959,1.40309 -14.87781,-34.43806 0.29821,-84.04721 15.12162,-34.33128 m -572.20273,150.79351 14.92762,20.42786 -0.17906,49.81067 -15.07073,20.32405 m 90.88363,-90.24438 -90.56146,-0.3182 m -85.221803,90.26183 0.318176,-90.56246 m 747.125797,2.64188 -20.42683,14.92859 -49.81056,-0.17507 -20.32407,-15.07173 M 486.21788,92.256752 701.29731,93.015356 m -515.36229,83.079764 48.44521,-14.82993 118.29482,0.42006 48.33843,15.1695 m 84.90362,0.30063 0.30078,-84.898628 m -85.2044,84.597998 19.15724,-14.93114 46.69594,0.16348 19.05044,15.06829 m -1.42064,401.85843 -19.15824,14.93116 -46.69503,-0.1665 -19.05036,-15.06529 m 0,0 -0.30074,84.89963" />
    <path
       id="path11151"
       style="fill:none;stroke:#00ff00;stroke-width:1;stroke-linecap:butt;stroke-linejoin:miter;stroke-miterlimit:10;stroke-dasharray:8, 2, 2, 2;stroke-dashoffset:0;stroke-opacity:1"
       d="m 284.83541,593.02685 -0.0199,84.90185 m -107.53998,-0.0253 0.0199,-84.90185 m 548.29766,4.81429 v 84.898 m -311.301,0 v -84.898 m 107.543,84.898 v -84.898 m 96.219,0 v 84.898 m -390.15564,-564.8304 84.89877,-0.59072" />
  </g>
</svg>
