<?xml version="1.0" encoding="UTF-8" standalone="no"?>
<!-- Created with Inkscape (http://www.inkscape.org/) -->

<svg
   version="1.1"
   id="svg2569"
   width="1132"
   height="1132"
   viewBox="0 0 1132 1132"
   sodipodi:docname="S.svg"
   inkscape:version="1.2.2 (732a01da63, 2022-12-09, custom)"
   xmlns:inkscape="http://www.inkscape.org/namespaces/inkscape"
   xmlns:sodipodi="http://sodipodi.sourceforge.net/DTD/sodipodi-0.dtd"
   xmlns="http://www.w3.org/2000/svg"
   xmlns:svg="http://www.w3.org/2000/svg">
  <defs
     id="defs2573" />
  <sodipodi:namedview
     id="namedview2571"
     pagecolor="#ffffff"
     bordercolor="#666666"
     borderopacity="1.0"
     inkscape:showpageshadow="2"
     inkscape:pageopacity="0.0"
     inkscape:pagecheckerboard="0"
     inkscape:deskcolor="#d1d1d1"
     showgrid="false"
     inkscape:zoom="0.65989399"
     inkscape:cx="565.2423"
     inkscape:cy="576.60776"
     inkscape:window-width="1920"
     inkscape:window-height="1009"
     inkscape:window-x="0"
     inkscape:window-y="0"
     inkscape:window-maximized="1"
     inkscape:current-layer="g2577">
    <inkscape:page
       x="0"
       y="0"
       id="page2575"
       width="1132"
       height="1132" />
  </sodipodi:namedview>
  <g
     id="g2577"
     inkscape:groupmode="layer"
     inkscape:label="Page 1"
     transform="matrix(1.3333333,0,0,1.3333333,0,2.83e-5)">
    <path
       id="path3017"
       style="fill:none;stroke:#00ff00;stroke-width:1;stroke-linecap:butt;stroke-linejoin:miter;stroke-miterlimit:10;stroke-dasharray:8, 2, 2, 2;stroke-dashoffset:0;stroke-opacity:1"
       d="M 781.789,71.695546 V 156.59755 M 696.891,71.695546 V 156.59755 M 262.551,688.371 V 773.27 M 370.09,688.371 v 84.899 m 84.898,-84.899 V 773.27 M 127.66,658.121 v -84.902" />
    <path
       id="path4931"
       style="font-size:15px;font-family:'DejaVu Sans';-inkscape-font-specification:DejaVuSans;fill:#0000ff"
       d="m 737.41943,144.16243 h 5.80811 v 1.24512 h -4.45313 v 2.68066 q 0.32227,-0.10986 0.64454,-0.16113 0.32226,-0.0586 0.64453,-0.0586 1.83105,0 2.90039,1.00342 1.06933,1.00342 1.06933,2.71729 0,1.76513 -1.09863,2.74658 -1.09863,0.97412 -3.09814,0.97412 -0.68848,0 -1.40625,-0.11719 -0.71045,-0.11718 -1.47217,-0.35156 v -1.48682 q 0.65918,0.35889 1.3623,0.53467 0.70313,0.17578 1.48682,0.17578 1.26709,0 2.00683,-0.6665 0.73975,-0.6665 0.73975,-1.80908 0,-1.14258 -0.73975,-1.80908 -0.73974,-0.66651 -2.00683,-0.66651 -0.59326,0 -1.18652,0.13184 -0.58594,0.13183 -1.20118,0.41015 z M 124.68604,438.68585 v -5.8081 h 1.24511 v 4.45312 h 2.68067 q -0.10987,-0.32226 -0.16114,-0.64453 -0.0586,-0.32227 -0.0586,-0.64453 0,-1.83106 1.00342,-2.90039 1.00342,-1.06934 2.71728,-1.06934 1.76514,0 2.74658,1.09864 0.97413,1.09863 0.97413,3.09814 0,0.68848 -0.11719,1.40625 -0.11719,0.71045 -0.35156,1.47217 h -1.48682 q 0.35889,-0.65918 0.53467,-1.36231 0.17578,-0.70312 0.17578,-1.48681 0,-1.26709 -0.66651,-2.00684 -0.6665,-0.73975 -1.80908,-0.73975 -1.14258,0 -1.80908,0.73975 -0.6665,0.73975 -0.6665,2.00684 0,0.59326 0.13183,1.18652 0.13184,0.58594 0.41016,1.20117 z m 508.79931,-293.23436 -3.73535,5.8374 h 3.73535 z m -0.38818,-1.28906 h 1.86035 v 7.12646 h 1.56006 v 1.23047 h -1.56006 v 2.57813 h -1.47217 v -2.57813 h -4.93652 v -1.42822 z m -429.20166,239.0078 -3.73535,5.8374 h 3.73535 z m -0.38819,-1.28907 h 1.86036 v 7.12647 h 1.56005 v 1.23047 h -1.56005 v 2.57812 h -1.47217 v -2.57812 h -4.93653 v -1.42822 z M 523.12939,149.20149 q 1.06202,0.22705 1.65528,0.94483 0.60058,0.71777 0.60058,1.77246 0,1.61865 -1.11328,2.50488 -1.11328,0.88623 -3.16406,0.88623 -0.68848,0 -1.4209,-0.13916 -0.7251,-0.13184 -1.50146,-0.40283 v -1.42822 q 0.61523,0.35888 1.34765,0.54199 0.73242,0.1831 1.53076,0.1831 1.39161,0 2.1167,-0.54931 0.73243,-0.54932 0.73243,-1.59668 0,-0.9668 -0.68116,-1.50879 -0.67382,-0.54932 -1.88232,-0.54932 h -1.27441 v -1.21582 h 1.333 q 1.09131,0 1.66992,-0.43213 0.57862,-0.43945 0.57862,-1.25976 0,-0.84229 -0.60059,-1.28907 -0.59326,-0.4541 -1.70654,-0.4541 -0.60791,0 -1.30371,0.13184 -0.6958,0.13183 -1.53076,0.41016 v -1.31836 q 0.84228,-0.23438 1.5747,-0.35157 0.73975,-0.11718 1.39161,-0.11718 1.68457,0 2.66601,0.76904 0.98145,0.76172 0.98145,2.06543 0,0.9082 -0.52002,1.53808 -0.52002,0.62256 -1.4795,0.86426 z M 298.09618,356.05643 q 0.93628,-0.55027 1.85862,-0.42206 0.92775,0.12327 1.64043,0.90072 1.09379,1.19319 0.872,2.59875 -0.22179,1.40556 -1.73351,2.79135 -0.50751,0.46523 -1.14144,0.85757 -0.62359,0.39279 -1.37901,0.71765 l -0.9651,-1.05281 q 0.69603,-0.15118 1.35966,-0.51113 0.66363,-0.35995 1.25212,-0.89942 1.02581,-0.94035 1.18912,-1.83525 0.16871,-0.89985 -0.53903,-1.67191 -0.6533,-0.71266 -1.52166,-0.65192 -0.86789,0.0504 -1.75873,0.86704 l -0.93942,0.86117 -0.82158,-0.89624 0.98262,-0.90076 q 0.80445,-0.73744 0.93897,-1.44697 0.12957,-0.71493 -0.42475,-1.31962 -0.56916,-0.62088 -1.31379,-0.54438 -0.74417,0.0662 -1.56481,0.81843 -0.44812,0.41079 -0.87194,0.97815 -0.42382,0.56736 -0.85124,1.33673 l -0.89086,-0.97182 q 0.46251,-0.74193 0.92322,-1.32324 0.46611,-0.58625 0.94663,-1.02674 1.24177,-1.13832 2.4849,-1.23463 1.23819,-0.1017 2.11915,0.85932 0.61371,0.66949 0.65602,1.48519 0.0374,0.81032 -0.50659,1.63683 z M 414.55029,153.85237 h 5.16358 v 1.24512 h -6.94336 v -1.24512 q 0.84228,-0.87158 2.29248,-2.33642 1.45752,-1.47217 1.83105,-1.89698 0.71045,-0.79834 0.98877,-1.34765 0.28565,-0.55664 0.28565,-1.09131 0,-0.87158 -0.61524,-1.4209 -0.60791,-0.54932 -1.58935,-0.54932 -0.6958,0 -1.47217,0.2417 -0.76904,0.2417 -1.64795,0.73242 v -1.49414 q 0.89355,-0.35888 1.66992,-0.54199 0.77637,-0.1831 1.4209,-0.1831 1.69922,0 2.70996,0.84961 1.01074,0.8496 1.01074,2.2705 0,0.67383 -0.25634,1.28174 -0.24903,0.60059 -0.91553,1.4209 -0.18311,0.2124 -1.16455,1.23047 -0.98145,1.01074 -2.76856,2.83447 z m -82.07666,119.36669 v -5.16358 h 1.24512 v 6.94336 h -1.24512 q -0.87158,-0.84228 -2.33642,-2.29248 -1.47217,-1.45752 -1.89698,-1.83105 -0.79834,-0.71045 -1.34765,-0.98877 -0.55664,-0.28565 -1.09131,-0.28565 -0.87158,0 -1.4209,0.61524 -0.54932,0.60791 -0.54932,1.58935 0,0.6958 0.2417,1.47217 0.2417,0.76904 0.73243,1.64795 h -1.49414 q -0.35889,-0.89356 -0.542,-1.66992 -0.1831,-0.77637 -0.1831,-1.4209 0,-1.69922 0.84961,-2.70996 0.84961,-1.01075 2.2705,-1.01075 0.67383,0 1.28174,0.25635 0.60059,0.24903 1.4209,0.91553 0.2124,0.18311 1.23047,1.16455 1.01074,0.98145 2.83447,2.76856 z M 310.11035,153.85237 h 2.41699 v -8.34228 l -2.62939,0.52734 v -1.34766 l 2.61475,-0.52734 h 1.47949 v 9.68994 h 2.41699 v 1.24512 h -6.29883 z m -9.53581,34.04579 -1.85678,-1.54734 -5.34067,6.40866 2.35754,1.27821 -0.86276,1.03529 -2.34629,-1.26883 -1.13656,-0.94716 6.20343,-7.44395 -1.85677,-1.54734 0.79712,-0.95652 4.83885,4.03247 z M 71.26416,145.13655 q -1.142578,0 -1.721191,1.12793 -0.571289,1.12061 -0.571289,3.37647 0,2.24853 0.571289,3.37646 0.578613,1.12061 1.721191,1.12061 1.149902,0 1.721192,-1.12061 0.578613,-1.12793 0.578613,-3.37646 0,-2.25586 -0.578613,-3.37647 -0.57129,-1.12793 -1.721192,-1.12793 z m 0,-1.17187 q 1.838379,0 2.805176,1.45752 0.974121,1.45019 0.974121,4.21875 0,2.76123 -0.974121,4.21875 -0.966797,1.45019 -2.805176,1.45019 -1.838379,0 -2.8125,-1.45019 -0.966797,-1.45752 -0.966797,-4.21875 0,-2.76856 0.966797,-4.21875 0.974121,-1.45752 2.8125,-1.45752 z m 15.836583,50.36868 q 0.877745,-0.73147 0.600151,-1.96838 -0.278534,-1.22661 -1.72272,-2.95959 -1.439493,-1.72735 -2.600458,-2.22811 -1.161906,-0.49044 -2.039651,0.24103 -0.883371,0.73615 -0.604836,1.96276 0.277593,1.23691 1.717086,2.96427 1.444186,1.73298 2.606092,2.22342 1.160965,0.50076 2.044336,-0.2354 z m 0.750223,0.90025 q -1.412269,1.17692 -3.08807,0.67617 -1.676735,-0.49044 -3.449147,-2.61728 -1.76772,-2.12122 -1.952481,-3.86453 -0.185694,-1.73299 1.226574,-2.90991 1.412269,-1.17692 3.089004,-0.68649 1.675801,0.50075 3.443521,2.62197 1.772413,2.12685 1.958107,3.85984 0.184761,1.74331 -1.227508,2.92023 z M 743.74805,580.77588 q 0.99609,0 1.58203,-0.68115 0.57861,-0.68116 0.57861,-1.86768 0,-1.1792 -0.57861,-1.86768 -0.58594,-0.68115 -1.58203,-0.68115 -0.9961,0 -1.57471,0.68115 -0.58594,0.68848 -0.58594,1.86768 0,1.18652 0.58594,1.86768 0.57861,0.68115 1.57471,0.68115 z m -2.93701,4.63623 v -1.34766 q 0.55664,0.26367 1.12792,0.40284 0.56397,0.13916 1.12061,0.13916 1.46484,0 2.24121,-0.98877 0.76904,-0.98877 0.87891,-2.98829 -0.43213,0.63721 -1.08399,0.97413 -0.65185,0.34423 -1.43554,0.34423 -1.64795,0 -2.6001,-1.00341 -0.95947,-0.9961 -0.95947,-2.71729 0,-1.68457 0.99609,-2.70264 0.99609,-1.01806 2.65137,-1.01806 1.89697,0 2.90039,1.45019 1.00342,1.45752 1.00342,4.21875 0,2.59278 -1.23047,4.13086 -1.23047,1.54541 -3.30323,1.54541 -0.55664,0 -1.1206,-0.10986 -0.57129,-0.10986 -1.18652,-0.32959 z M 653.72021,450.35352 q 0,0.99609 0.68116,1.58203 0.68115,0.57861 1.86767,0.57861 1.1792,0 1.86768,-0.57861 0.68115,-0.58594 0.68115,-1.58203 0,-0.9961 -0.68115,-1.57471 -0.68848,-0.58594 -1.86768,-0.58594 -1.18652,0 -1.86767,0.58594 -0.68116,0.57861 -0.68116,1.57471 z m -4.63623,-2.93702 h 1.34766 q -0.26367,0.55664 -0.40283,1.12793 -0.13916,0.56397 -0.13916,1.12061 0,1.46484 0.98877,2.24121 0.98877,0.76904 2.98828,0.87891 -0.63721,-0.43213 -0.97412,-1.08399 -0.34424,-0.65185 -0.34424,-1.43555 0,-1.64794 1.00342,-2.60009 0.99609,-0.95948 2.71728,-0.95948 1.68457,0 2.70264,0.9961 1.01807,0.99609 1.01807,2.65137 0,1.89697 -1.4502,2.90039 -1.45752,1.00341 -4.21875,1.00341 -2.59277,0 -4.13086,-1.23046 -1.54541,-1.23047 -1.54541,-3.30323 0,-0.55664 0.10986,-1.1206 0.10987,-0.57129 0.32959,-1.18653 z m -7.73779,138.23731 h -5.8081 v -1.24512 h 4.45312 v -2.68066 q -0.32226,0.10986 -0.64453,0.16113 -0.32227,0.0586 -0.64453,0.0586 -1.83106,0 -2.90039,-1.00341 -1.06934,-1.00342 -1.06934,-2.71729 0,-1.76514 1.09863,-2.74658 1.09864,-0.97412 3.09815,-0.97412 0.68848,0 1.40625,0.11719 0.71045,0.11718 1.47217,0.35156 v 1.48681 q -0.65918,-0.35888 -1.36231,-0.53466 -0.70312,-0.17579 -1.48681,-0.17579 -1.26709,0 -2.00684,0.66651 -0.73975,0.6665 -0.73975,1.80908 0,1.14258 0.73975,1.80908 0.73975,0.66651 2.00684,0.66651 0.59326,0 1.18652,-0.13184 0.58594,-0.13184 1.20117,-0.41016 z m -23.84672,-51.43341 4.28149,-3.92466 0.84136,0.91785 -3.28266,3.00907 1.81138,1.97607 q 0.16332,-0.29875 0.36624,-0.5543 0.19796,-0.26096 0.43552,-0.47872 1.34978,-1.23729 2.81608,-1.22018 1.4663,0.0171 2.6244,1.2805 1.19273,1.30118 1.04606,2.76703 -0.15164,1.46045 -1.62559,2.81156 -0.50752,0.46522 -1.11582,0.86385 -0.60289,0.39368 -1.32277,0.73562 l -1.00468,-1.09603 q 0.72843,-0.18086 1.36552,-0.5264 0.63709,-0.34553 1.2148,-0.87509 0.93404,-0.8562 1.02898,-1.84738 0.095,-0.99118 -0.67712,-1.83344 -0.77206,-0.84226 -1.76774,-0.83371 -0.99569,0.009 -1.92973,0.86474 -0.43733,0.40087 -0.78557,0.89894 -0.34285,0.49311 -0.60831,1.114 z m -224.71529,50.14435 3.73535,-5.83741 h -3.73535 z m 0.38818,1.28906 h -1.86035 v -7.12647 h -1.56006 v -1.23047 h 1.56006 v -2.57812 h 1.47217 v 2.57812 h 4.93652 v 1.42823 z m 22.18078,-50.64085 -6.698,1.77903 2.75355,2.52406 z m 0.5849,-1.21255 1.37137,1.25708 -4.8155,5.25333 1.15001,1.05417 -0.83145,0.90704 -1.15001,-1.05416 -1.7421,1.90049 -1.08522,-0.99478 1.7421,-1.90049 -3.639,-3.33571 0.96508,-1.05282 z m -106.81353,46.81434 q -1.06201,-0.22705 -1.65527,-0.94483 -0.60059,-0.71777 -0.60059,-1.77246 0,-1.61865 1.11328,-2.50488 1.11328,-0.88623 3.16407,-0.88623 0.68847,0 1.42089,0.13916 0.7251,0.13183 1.50147,0.40283 v 1.42822 q -0.61524,-0.35888 -1.34766,-0.54199 -0.73242,-0.18311 -1.53076,-0.18311 -1.3916,0 -2.1167,0.54932 -0.73242,0.54932 -0.73242,1.59668 0,0.9668 0.68115,1.50879 0.67383,0.54932 1.88233,0.54932 h 1.27441 v 1.21582 h -1.33301 q -1.09131,0 -1.66992,0.43213 -0.57861,0.43945 -0.57861,1.25976 0,0.84229 0.60058,1.28906 0.59327,0.45411 1.70655,0.45411 0.60791,0 1.30371,-0.13184 0.6958,-0.13184 1.53076,-0.41016 v 1.31836 q -0.84229,0.23438 -1.57471,0.35156 -0.73974,0.11719 -1.3916,0.11719 -1.68457,0 -2.66601,-0.76904 -0.98145,-0.76172 -0.98145,-2.06543 0,-0.9082 0.52002,-1.53809 0.52002,-0.62255 1.47949,-0.86425 z m 70.89258,-103.95801 q -0.22705,1.06201 -0.94482,1.65527 -0.71778,0.60059 -1.77247,0.60059 -1.61865,0 -2.50488,-1.11328 -0.88623,-1.11328 -0.88623,-3.16407 0,-0.68847 0.13916,-1.42089 0.13184,-0.7251 0.40283,-1.50147 h 1.42823 q -0.35889,0.61523 -0.542,1.34766 -0.1831,0.73242 -0.1831,1.53076 0,1.3916 0.54931,2.1167 0.54932,0.73242 1.59668,0.73242 0.9668,0 1.50879,-0.68115 0.54932,-0.67383 0.54932,-1.88233 v -1.27441 h 1.21582 v 1.33301 q 0,1.09131 0.43213,1.66992 0.43945,0.57861 1.25976,0.57861 0.84229,0 1.28907,-0.60058 0.4541,-0.59327 0.4541,-1.70655 0,-0.60791 -0.13184,-1.30371 -0.13183,-0.6958 -0.41015,-1.53076 h 1.31836 q 0.23437,0.84229 0.35156,1.57471 0.11719,0.73974 0.11719,1.3916 0,1.68457 -0.76905,2.66601 -0.76172,0.98145 -2.06543,0.98145 -0.9082,0 -1.53808,-0.52002 -0.62256,-0.52002 -0.86426,-1.47949 z M 230.1333,575.96387 h -5.16357 v -1.24512 h 6.94336 v 1.24512 q -0.84229,0.87158 -2.29248,2.33642 -1.45752,1.47217 -1.83106,1.89698 -0.71045,0.79834 -0.98877,1.34765 -0.28564,0.55664 -0.28564,1.09131 0,0.87158 0.61523,1.4209 0.60791,0.54932 1.58936,0.54932 0.6958,0 1.47216,-0.2417 0.76905,-0.2417 1.64795,-0.73243 v 1.49414 q -0.89355,0.35889 -1.66992,0.542 -0.77637,0.1831 -1.4209,0.1831 -1.69922,0 -2.70996,-0.84961 -1.01074,-0.84961 -1.01074,-2.2705 0,-0.67383 0.25635,-1.28174 0.24902,-0.60059 0.91553,-1.4209 0.1831,-0.2124 1.16455,-1.23047 0.98144,-1.01074 2.76855,-2.83447 z M 418.49268,440.12402 h -5.16358 v -1.24511 h 6.94336 v 1.24511 q -0.84228,0.87159 -2.29248,2.33643 -1.45752,1.47217 -1.83105,1.89697 -0.71045,0.79834 -0.98877,1.34766 -0.28565,0.55664 -0.28565,1.09131 0,0.87158 0.61524,1.4209 0.60791,0.54931 1.58935,0.54931 0.6958,0 1.47217,-0.2417 0.76904,-0.2417 1.64795,-0.73242 v 1.49414 q -0.89356,0.35889 -1.66992,0.54199 -0.77637,0.18311 -1.4209,0.18311 -1.69922,0 -2.70996,-0.84961 -1.01074,-0.84961 -1.01074,-2.27051 0,-0.67383 0.25634,-1.28174 0.24903,-0.60058 0.91553,-1.4209 0.18311,-0.2124 1.16455,-1.23046 0.98145,-1.01075 2.76856,-2.83448 z M 157.35449,575.96387 h -2.41699 v 8.34228 l 2.62939,-0.52734 v 1.34765 l -2.61474,0.52735 h -1.47949 v -9.68994 h -2.417 v -1.24512 h 6.29883 z M 460.43457,467.07324 v -2.41699 h -8.34228 l 0.52734,2.62939 h -1.34766 l -0.52734,-2.61474 v -1.47949 h 9.68994 v -2.417 h 1.24512 v 6.29883 z M 72.899902,584.67969 q 1.142578,0 1.721192,-1.12793 0.571289,-1.12061 0.571289,-3.37647 0,-2.24853 -0.571289,-3.37646 -0.578614,-1.12061 -1.721192,-1.12061 -1.149902,0 -1.721191,1.12061 -0.578613,1.12793 -0.578613,3.37646 0,2.25586 0.578613,3.37647 0.571289,1.12793 1.721191,1.12793 z m 0,1.17187 q -1.838379,0 -2.805175,-1.45752 -0.974122,-1.45019 -0.974122,-4.21875 0,-2.76123 0.974122,-4.21875 0.966796,-1.45019 2.805175,-1.45019 1.838379,0 2.8125,1.45019 0.966797,1.45752 0.966797,4.21875 0,2.76856 -0.966797,4.21875 -0.974121,1.45752 -2.8125,1.45752 z M 515.9585,505.44141 q 1.14257,0 1.72119,-1.12793 0.57129,-1.12061 0.57129,-3.37647 0,-2.24853 -0.57129,-3.37646 -0.57862,-1.12061 -1.72119,-1.12061 -1.14991,0 -1.7212,1.12061 -0.57861,1.12793 -0.57861,3.37646 0,2.25586 0.57861,3.37647 0.57129,1.12793 1.7212,1.12793 z m 0,1.17187 q -1.83838,0 -2.80518,-1.45752 -0.97412,-1.45019 -0.97412,-4.21875 0,-2.76123 0.97412,-4.21875 0.9668,-1.45019 2.80518,-1.45019 1.83837,0 2.8125,1.45019 0.96679,1.45752 0.96679,4.21875 0,2.76856 -0.96679,4.21875 -0.97413,1.45752 -2.8125,1.45752 z" />
    <path
       id="path3177"
       style="fill:none;stroke:#800000;stroke-width:1;stroke-linecap:butt;stroke-linejoin:miter;stroke-miterlimit:10;stroke-dasharray:8,4;stroke-dashoffset:0;stroke-opacity:1"
       d="m 781.789,156.59755 h -84.898 m 0,0 h -130.18 m 130.18,-84.902004 h 84.898 m -215.078,0 h 130.18 M 566.711,156.59755 H 474.57 m 0,0 H 355.715 M 474.57,71.695546 h 92.141 m -210.996,0 H 474.57 M 355.715,156.59755 h -88.414 m 0,0 H 114.48 M 267.301,71.695546 h 88.414 m -241.235,0 H 267.301 M 114.48,156.59755 H 26.07 m 0,-84.902004 h 88.41 m 452.231,0 V 156.59755 M 474.57,71.695546 V 156.59755 M 355.715,71.695546 V 156.59755 M 267.301,71.695546 v 84.902004 m -152.821,0 V 71.695546 M 262.551,688.371 H 370.09 m 0,0 h 84.898 m 0,0 h 135.84 m 0,0 h 84.141 m 0,84.899 h -84.141 m 0,0 h -135.84 m 0,0 H 370.09 m 0,0 H 262.551 M 36.148,688.371 h 79.243 m 90.558,0 h 56.602 m -147.16,0 h 90.558 M 115.391,773.27 H 36.148 m 226.403,0 h -56.602 m 384.879,-84.899 v 84.899 m 84.141,-84.899 V 773.27 M 205.949,688.371 V 773.27 M 115.391,688.371 V 773.27 M 804.355,658.121 H 685.496 m 0,-84.902 h 118.859 m -118.859,84.902 h -92.137 m 0,0 h -152.82 m 152.82,-84.902 h 92.137 m -92.137,0 h -152.82 m 0,84.902 h -92.137 m 0,0 H 274.82 m 73.582,-84.902 h 92.137 m -165.719,0 h 73.582 m -73.582,84.902 h -90.558 m 0,0 H 127.66 m 0,0 H 20.121 m 164.141,-84.902 h 90.558 m -147.16,0 h 56.602 m -164.141,0 H 127.66 m 533.617,-266.02 h -90.558 m 114.777,266.02 v 84.902 m -92.137,-84.902 v 84.902 m -152.82,0 v -84.902 m -92.137,84.902 v -84.902 m -73.582,84.902 v -84.902 m -90.558,84.902 v -84.902" />
    <path
       id="path4744"
       style="font-size:15px;font-family:'DejaVu Sans';-inkscape-font-specification:DejaVuSans"
       d="m 194.01363,233.09065 h 2.41699 v -8.34228 l -2.6294,0.52734 v -1.34766 l 2.61475,-0.52734 h 1.47949 v 9.68994 h 2.41699 v 1.24512 h -6.29882 z m -5.31392,-4.65088 q 1.06201,0.22705 1.65527,0.94483 0.60059,0.71777 0.60059,1.77246 0,1.61865 -1.11328,2.50488 -1.11329,0.88623 -3.16407,0.88623 -0.68847,0 -1.4209,-0.13916 -0.72509,-0.13183 -1.50146,-0.40283 v -1.42822 q 0.61523,0.35888 1.34766,0.54199 0.73242,0.1831 1.53076,0.1831 1.3916,0 2.1167,-0.54931 0.73242,-0.54932 0.73242,-1.59668 0,-0.9668 -0.68115,-1.50879 -0.67383,-0.54932 -1.88233,-0.54932 h -1.27441 v -1.21582 h 1.33301 q 1.0913,0 1.66992,-0.43213 0.57861,-0.43945 0.57861,-1.25976 0,-0.84229 -0.60059,-1.28906 -0.59326,-0.45411 -1.70654,-0.45411 -0.60791,0 -1.30371,0.13184 -0.6958,0.13184 -1.53076,0.41016 v -1.31836 q 0.84228,-0.23438 1.57471,-0.35157 0.73974,-0.11718 1.3916,-0.11718 1.68457,0 2.66601,0.76904 0.98145,0.76172 0.98145,2.06543 0,0.9082 -0.52002,1.53809 -0.52002,0.62255 -1.47949,0.86425 z m 67.42138,55.68062 q 0,-1.14258 -1.12793,-1.72119 -1.1206,-0.57129 -3.37646,-0.57129 -2.24854,0 -3.37647,0.57129 -1.1206,0.57861 -1.1206,1.72119 0,1.1499 1.1206,1.72119 1.12793,0.57862 3.37647,0.57862 2.25586,0 3.37646,-0.57862 1.12793,-0.57129 1.12793,-1.72119 z m 1.17188,0 q 0,1.83838 -1.45752,2.80518 -1.4502,0.97412 -4.21875,0.97412 -2.76123,0 -4.21875,-0.97412 -1.4502,-0.9668 -1.4502,-2.80518 0,-1.83838 1.4502,-2.8125 1.45752,-0.9668 4.21875,-0.9668 2.76855,0 4.21875,0.9668 1.45752,0.97412 1.45752,2.8125 z m -5.23682,-8.22165 q -0.22705,1.06201 -0.94482,1.65528 -0.71778,0.60058 -1.77246,0.60058 -1.61866,0 -2.50489,-1.11328 -0.88623,-1.11328 -0.88623,-3.16406 0,-0.68848 0.13916,-1.4209 0.13184,-0.7251 0.40284,-1.50146 h 1.42822 q -0.35889,0.61523 -0.54199,1.34765 -0.18311,0.73242 -0.18311,1.53076 0,1.3916 0.54932,2.1167 0.54931,0.73242 1.59668,0.73242 0.96679,0 1.50879,-0.68115 0.54931,-0.67383 0.54931,-1.88232 v -1.27442 h 1.21582 v 1.33301 q 0,1.09131 0.43213,1.66992 0.43945,0.57862 1.25977,0.57862 0.84228,0 1.28906,-0.60059 0.4541,-0.59326 0.4541,-1.70654 0,-0.60791 -0.13183,-1.30371 -0.13184,-0.6958 -0.41016,-1.53077 h 1.31836 q 0.23437,0.84229 0.35156,1.57471 0.11719,0.73975 0.11719,1.3916 0,1.68457 -0.76904,2.66602 -0.76172,0.98144 -2.06543,0.98144 -0.90821,0 -1.53809,-0.52002 -0.62256,-0.52001 -0.86426,-1.47949 z m -78.03706,46.5625 v 1.34766 q -0.55664,-0.26367 -1.12793,-0.40283 -0.57129,-0.13916 -1.12061,-0.13916 -1.46484,0 -2.23388,0.98144 -0.77637,0.98877 -0.88623,2.99561 0.4248,-0.62989 1.07666,-0.9668 0.65185,-0.33691 1.44287,-0.33691 1.64062,0 2.6001,0.98877 0.95214,0.99609 0.95214,2.71728 0,1.68457 -0.99609,2.70264 -0.99609,1.01806 -2.65137,1.01806 -1.89697,0 -2.89306,-1.45752 -1.00342,-1.45019 -1.00342,-4.21875 0,-2.58544 1.23047,-4.13085 1.22314,-1.53809 3.2959,-1.53809 0.55664,0 1.12793,0.10986 0.57128,0.10987 1.18652,0.32959 z m -2.94434,4.63623 q -0.99609,0 -1.5747,0.68116 -0.58594,0.68115 -0.58594,1.86767 0,1.1792 0.58594,1.86035 0.57861,0.68848 1.5747,0.68848 0.9961,0 1.58203,-0.68848 0.57862,-0.68115 0.57862,-1.86035 0,-1.18652 -0.57862,-1.86767 -0.58593,-0.68116 -1.58203,-0.68116 z m 11.25388,-3.61816 h -5.16358 v -1.24512 h 6.94336 v 1.24512 q -0.84228,0.87158 -2.29248,2.33642 -1.45752,1.47217 -1.83105,1.89698 -0.71045,0.79834 -0.98877,1.34765 -0.28565,0.55664 -0.28565,1.09131 0,0.87158 0.61524,1.4209 0.60791,0.54932 1.58935,0.54932 0.69581,0 1.47217,-0.2417 0.76905,-0.2417 1.64795,-0.73242 v 1.49414 q -0.89355,0.35888 -1.66992,0.54199 -0.77637,0.1831 -1.4209,0.1831 -1.69922,0 -2.70996,-0.8496 -1.01074,-0.84961 -1.01074,-2.27051 0,-0.67383 0.25635,-1.28174 0.24902,-0.60059 0.91552,-1.4209 0.18311,-0.2124 1.16455,-1.23047 0.98145,-1.01074 2.76856,-2.83447 z M 77.882783,357.90839 q 0.780395,-0.70947 0.850831,-1.5357 0.06502,-0.8213 -0.600111,-1.55291 -0.665131,-0.73162 -1.488892,-0.74492 -0.829178,-0.008 -1.609573,0.70112 -0.780396,0.70947 -0.850839,1.53569 -0.06551,0.83165 0.594695,1.55785 0.665131,0.73162 1.494309,0.73998 0.823768,0.0133 1.60958,-0.70111 z m 1.518428,-0.52916 q 0.862181,-0.46708 1.696295,-0.34442 0.828684,0.12759 1.459326,0.82127 0.881917,0.97008 0.706048,2.15942 -0.181286,1.19426 -1.384388,2.28802 -1.208526,1.0987 -2.409191,1.1608 -1.200657,0.0621 -2.082574,-0.90798 -0.630643,-0.69369 -0.673522,-1.53567 -0.04829,-0.83707 0.493148,-1.64605 -0.958741,0.53506 -1.885482,0.39762 -0.932151,-0.13252 -1.636694,-0.90749 -1.069139,-1.17601 -0.919879,-2.45994 0.143843,-1.279 1.482434,-2.49594 1.33859,-1.21694 2.63089,-1.24357 1.286883,-0.0217 2.356022,1.15431 0.704543,0.77498 0.747913,1.71551 0.04338,0.94052 -0.580346,1.84411 z m 1.972709,1.36419 q -0.571513,-0.62864 -1.281959,-0.62617 -0.715863,0.007 -1.425803,0.65282 -0.704523,0.6405 -0.779896,1.35242 -0.08078,0.71686 0.490731,1.3455 0.57152,0.62865 1.292806,0.61633 0.715863,-0.007 1.420387,-0.6479 0.709939,-0.64543 0.785312,-1.35735 0.06994,-0.707 -0.501578,-1.33565 z m 2.310385,-11.44464 -3.820675,3.47346 -0.837567,-0.9213 5.137585,-4.67068 0.837567,0.92129 q -0.03693,1.2115 -0.12459,3.27091 -0.08816,2.06975 -0.07878,2.63534 0.01135,1.06862 0.174931,1.6623 0.163091,0.60402 0.522755,0.99964 0.586299,0.64491 1.411038,0.6375 0.81933,-0.002 1.545533,-0.66268 0.514842,-0.46805 0.926706,-1.16914 0.406454,-0.69617 0.726677,-1.65049 l 1.005086,1.10556 q -0.419743,0.86663 -0.871033,1.52436 -0.451284,0.65774 -0.92819,1.09131 -1.257302,1.14304 -2.576698,1.1943 -1.319395,0.0513 -2.275214,-1.00011 -0.453275,-0.49858 -0.672526,-1.12084 -0.219744,-0.6119 -0.278399,-1.66722 -0.0074,-0.28034 0.03397,-1.69383 0.04629,-1.40809 0.141832,-3.95968 z m -29.725809,96.70247 q -0.227051,1.06201 -0.944824,1.65527 -0.717774,0.60059 -1.772461,0.60059 -1.618652,0 -2.504883,-1.11328 -0.88623,-1.11328 -0.88623,-3.16406 0,-0.68848 0.13916,-1.4209 0.131836,-0.7251 0.402832,-1.50147 h 1.428222 q -0.358886,0.61524 -0.541992,1.34766 -0.183105,0.73242 -0.183105,1.53076 0,1.3916 0.549316,2.1167 0.549317,0.73242 1.59668,0.73242 0.966797,0 1.508789,-0.68115 0.549316,-0.67383 0.549316,-1.88232 v -1.27442 h 1.215821 v 1.33301 q 0,1.09131 0.432129,1.66992 0.439453,0.57861 1.259765,0.57861 0.842285,0 1.289063,-0.60058 0.454101,-0.59326 0.454101,-1.70654 0,-0.60791 -0.131836,-1.30371 -0.131836,-0.69581 -0.410156,-1.53077 h 1.318359 q 0.234375,0.84229 0.351563,1.57471 0.117187,0.73975 0.117187,1.3916 0,1.68457 -0.769042,2.66602 -0.761719,0.98144 -2.06543,0.98144 -0.908203,0 -1.538086,-0.52002 -0.622559,-0.52002 -0.864258,-1.47949 z m -4.650879,-12.74802 v 5.16358 H 48.0625 v -6.94336 h 1.245117 q 0.871582,0.84228 2.336426,2.29248 1.472168,1.45752 1.896973,1.83105 0.798339,0.71045 1.347656,0.98877 0.55664,0.28565 1.091308,0.28565 0.871582,0 1.420899,-0.61524 0.549316,-0.60791 0.549316,-1.58935 0,-0.6958 -0.241699,-1.47217 -0.241699,-0.76904 -0.732422,-1.64795 h 1.494141 q 0.358887,0.89356 0.541992,1.66992 0.183105,0.77637 0.183105,1.4209 0,1.69922 -0.849609,2.70996 -0.849609,1.01075 -2.270508,1.01075 -0.673828,0 -1.281738,-0.25635 -0.600586,-0.24903 -1.420898,-0.91553 -0.212403,-0.18311 -1.230469,-1.16455 -1.010742,-0.98145 -2.834473,-2.76856 z m 35.351634,96.14548 1.78171,1.63322 5.637059,-6.14959 -2.294623,-1.388 0.910641,-0.99343 2.283818,1.3781 1.090617,0.99973 -6.547694,7.14301 1.781703,1.63321 -0.841347,0.91784 -4.64323,-4.25625 z m -6.281991,-5.75843 3.806373,3.48914 -0.841347,0.91784 -5.118351,-4.69177 0.841347,-0.91785 q 1.209844,-0.0734 3.268693,-0.17324 2.069198,-0.10034 2.631595,-0.16108 1.063168,-0.10844 1.639521,-0.32531 0.586702,-0.21731 0.94799,-0.61145 0.588945,-0.64249 0.506596,-1.46315 -0.07694,-0.81571 -0.800414,-1.47889 -0.512915,-0.47017 -1.248544,-0.81661 -0.730225,-0.34148 -1.70971,-0.57364 l 1.009622,-1.10142 q 0.901196,0.33923 1.597228,0.72887 0.696038,0.38963 1.171158,0.82515 1.252593,1.1482 1.423569,2.45747 0.170975,1.30928 -0.789156,2.35671 -0.455321,0.49671 -1.055062,0.77163 -0.589398,0.27444 -1.635021,0.42878 -0.278504,0.0328 -1.689905,0.12013 -1.406468,0.0819 -3.956182,0.21869 z m 118.32533,25.35563 q -1.14258,0 -1.72119,1.12793 -0.57129,1.12061 -0.57129,3.37647 0,2.24853 0.57129,3.37646 0.57861,1.12061 1.72119,1.12061 1.1499,0 1.72119,-1.12061 0.57862,-1.12793 0.57862,-3.37646 0,-2.25586 -0.57862,-3.37647 -0.57129,-1.12793 -1.72119,-1.12793 z m 0,-1.17187 q 1.83838,0 2.80518,1.45752 0.97412,1.45019 0.97412,4.21875 0,2.76123 -0.97412,4.21875 -0.9668,1.45019 -2.80518,1.45019 -1.83838,0 -2.8125,-1.45019 -0.9668,-1.45752 -0.9668,-4.21875 0,-2.76856 0.9668,-4.21875 0.97412,-1.45752 2.8125,-1.45752 z m -11.42964,9.88769 h 5.16357 v 1.24512 h -6.94336 v -1.24512 q 0.84229,-0.87158 2.29248,-2.33642 1.45752,-1.47217 1.83106,-1.89698 0.71045,-0.79834 0.98877,-1.34765 0.28564,-0.55664 0.28564,-1.09131 0,-0.87158 -0.61523,-1.4209 -0.60791,-0.54932 -1.58936,-0.54932 -0.6958,0 -1.47216,0.2417 -0.76905,0.2417 -1.64795,0.73242 v -1.49414 q 0.89355,-0.35888 1.66992,-0.54199 0.77637,-0.1831 1.4209,-0.1831 1.69922,0 2.70996,0.84961 1.01074,0.8496 1.01074,2.2705 0,0.67383 -0.25635,1.28174 -0.24902,0.60059 -0.91553,1.4209 -0.1831,0.2124 -1.16455,1.23047 -0.98144,1.01074 -2.76855,2.83447 z m 117.02797,-31.68134 -0.91064,-0.99344 q 0.5885,-0.18177 1.10366,-0.46522 0.51517,-0.28345 0.92009,-0.65463 1.07983,-0.98983 0.98355,-2.23296 -0.0958,-1.25349 -1.3709,-2.80708 0.11248,0.75137 -0.14038,1.44021 -0.25286,0.68882 -0.83597,1.22333 -1.2094,1.10861 -2.58481,1.02806 -1.37497,-0.0909 -2.53801,-1.35968 -1.1383,-1.24179 -1.09195,-2.66535 0.0464,-1.42356 1.26654,-2.54206 1.39837,-1.28183 3.11753,-0.88049 1.71961,0.391 3.59037,2.43186 1.74704,1.90588 1.88426,3.87655 0.13767,1.96031 -1.39028,3.36092 -0.41033,0.37613 -0.9057,0.68118 -0.49537,0.30504 -1.09736,0.5588 z m -0.96236,-5.40718 q 0.73428,-0.67309 0.70054,-1.56619 -0.0283,-0.89804 -0.8301,-1.7727 -0.79681,-0.86925 -1.68901,-0.97544 -0.89174,-0.11654 -1.62602,0.55655 -0.73428,0.67308 -0.70099,1.57653 0.0337,0.89309 0.83055,1.76235 0.80176,0.87465 1.68855,0.98579 0.8922,0.10619 1.62648,-0.56689 z m -6.60147,10.95955 1.7817,-1.63322 -5.63706,-6.14958 -1.58193,2.16548 -0.91065,-0.99344 1.57115,-2.15557 1.09061,-0.99972 6.5477,7.14301 1.78171,-1.63322 0.84135,0.91785 -4.64323,4.25625 z m 33.78879,-76.27774 q 0,1.05469 0.56396,1.6626 0.56397,0.60059 1.55274,0.60059 0.98877,0 1.55273,-0.60059 0.56397,-0.60791 0.56397,-1.6626 0,-1.05468 -0.56397,-1.66259 -0.57129,-0.60791 -1.55273,-0.60791 -0.98877,0 -1.55274,0.60791 -0.56396,0.60058 -0.56396,1.66259 z m -0.62988,1.4795 q -0.23438,0.95214 -0.88623,1.48681 -0.65186,0.52735 -1.58936,0.52735 -1.31104,0 -2.07275,-0.93018 -0.76172,-0.9375 -0.76172,-2.56348 0,-1.6333 0.76172,-2.56347 0.76171,-0.93018 2.07275,-0.93018 0.9375,0 1.58936,0.53467 0.65185,0.52734 0.88623,1.47217 0.24902,-1.06934 0.97412,-1.6626 0.72509,-0.60059 1.77246,-0.60059 1.58935,0 2.43896,0.97412 0.84961,0.9668 0.84961,2.77588 0,1.80909 -0.84961,2.78321 -0.84961,0.96679 -2.43896,0.96679 -1.04737,0 -1.77246,-0.60058 -0.7251,-0.60059 -0.97412,-1.66992 z m -2.33643,0.54199 q 0.84961,0 1.32568,-0.52735 0.47608,-0.53466 0.47608,-1.49414 0,-0.95215 -0.47608,-1.48681 -0.47607,-0.542 -1.32568,-0.542 -0.84961,0 -1.32568,0.542 -0.47608,0.53466 -0.47608,1.48681 0,0.95948 0.47608,1.49414 0.47607,0.52735 1.32568,0.52735 z m 6.91406,10.42624 v -2.417 h -8.34228 l 0.52734,2.6294 h -1.34765 l -0.52735,-2.61475 v -1.47949 h 9.68994 v -2.41699 h 1.24512 v 6.29883 z m -45.22455,-30.70069 h -7.03125 v -0.62988 l 3.96973,-10.30518 h 1.54541 l -3.73535,9.68995 h 5.25146 z m 8.9101,-9.68994 h -2.41699 v 8.34229 l 2.62939,-0.52735 v 1.34766 l -2.61474,0.52734 h -1.4795 v -9.68994 h -2.41699 V 424.117 h 6.29883 z m -43.94189,31.79685 q 0,-0.9961 -0.68116,-1.58204 -0.68115,-0.57861 -1.86767,-0.57861 -1.1792,0 -1.86768,0.57861 -0.68115,0.58594 -0.68115,1.58204 0,0.99609 0.68115,1.5747 0.68848,0.58594 1.86768,0.58594 1.18652,0 1.86767,-0.58594 0.68116,-0.57861 0.68116,-1.5747 z m 4.63623,2.93701 h -1.34766 q 0.26367,-0.55664 0.40283,-1.12793 0.13916,-0.56397 0.13916,-1.12061 0,-1.46484 -0.98877,-2.24121 -0.98877,-0.76904 -2.98828,-0.8789 0.63721,0.43212 0.97412,1.08398 0.34424,0.65186 0.34424,1.43555 0,1.64795 -1.00342,2.60009 -0.99609,0.95948 -2.71728,0.95948 -1.68457,0 -2.70264,-0.9961 -1.01807,-0.99609 -1.01807,-2.65136 0,-1.89698 1.4502,-2.90039 1.45752,-1.00342 4.21875,-1.00342 2.59277,0 4.13086,1.23047 1.54541,1.23046 1.54541,3.30322 0,0.55664 -0.10986,1.1206 -0.10987,0.57129 -0.32959,1.18653 z m -9.44825,-15.56784 v 2.41699 h 8.34229 l -0.52735,-2.6294 h 1.34766 l 0.52734,2.61475 v 1.47949 h -9.68994 v 2.417 h -1.24511 v -6.29883 z m -59.60688,47.12158 h -5.80811 v -1.24512 h 4.45313 v -2.68066 q -0.32227,0.10986 -0.64454,0.16113 -0.32226,0.0586 -0.64453,0.0586 -1.83105,0 -2.90039,-1.00341 -1.06933,-1.00342 -1.06933,-2.71729 0,-1.76514 1.09863,-2.74658 1.09863,-0.97412 3.09814,-0.97412 0.68848,0 1.40625,0.11719 0.71045,0.11718 1.47217,0.35156 v 1.48681 q -0.65918,-0.35888 -1.3623,-0.53466 -0.70313,-0.17578 -1.48682,-0.17578 -1.26709,0 -2.00684,0.6665 -0.73974,0.6665 -0.73974,1.80908 0,1.14258 0.73974,1.80908 0.73975,0.66651 2.00684,0.66651 0.59326,0 1.18652,-0.13184 0.58594,-0.13183 1.20118,-0.41015 z m 9.2983,-9.68994 h -2.41699 v 8.34228 l 2.6294,-0.52734 v 1.34766 l -2.61475,0.52734 h -1.47949 v -9.68994 h -2.41699 v -1.24512 h 6.29882 z M 732.4278,82.841133 l 3.73535,-5.837402 h -3.73535 z m 0.38818,1.289063 h -1.86035 v -7.126465 h -1.56006 v -1.230469 h 1.56006 v -2.578125 h 1.47217 v 2.578125 h 4.93652 v 1.428223 z m 12.96039,-9.689942 h -2.417 v 8.342285 l 2.6294,-0.527343 v 1.347656 l -2.61475,0.527344 h -1.47949 v -9.689942 h -2.41699 v -1.245117 h 6.29883 z m -118.42523,0 h -5.16358 v -1.245117 h 6.94336 v 1.245117 q -0.84228,0.871582 -2.29248,2.336426 -1.45752,1.472168 -1.83105,1.896973 -0.71045,0.798339 -0.98877,1.347656 -0.28565,0.556641 -0.28565,1.091308 0,0.871583 0.61524,1.420899 0.60791,0.549316 1.58935,0.549316 0.6958,0 1.47217,-0.241699 0.76904,-0.241699 1.64795,-0.732422 v 1.494141 q -0.89356,0.358887 -1.66992,0.541992 -0.77637,0.183106 -1.4209,0.183106 -1.69922,0 -2.70996,-0.84961 -1.01075,-0.849609 -1.01075,-2.270508 0,-0.673828 0.25635,-1.281738 0.24903,-0.600586 0.91553,-1.420898 0.18311,-0.212403 1.16455,-1.230469 0.98145,-1.010742 2.76856,-2.834473 z m 10.55804,0 h -2.41699 v 8.342285 l 2.62939,-0.527343 v 1.347656 l -2.61474,0.527344 h -1.4795 v -9.689942 h -2.41699 v -1.245117 h 6.29883 z m -123.35394,8.715821 q 1.14257,0 1.72119,-1.12793 0.57129,-1.120606 0.57129,-3.376465 0,-2.248535 -0.57129,-3.376465 -0.57862,-1.120605 -1.72119,-1.120605 -1.14991,0 -1.72119,1.120605 -0.57862,1.12793 -0.57862,3.376465 0,2.255859 0.57862,3.376465 0.57128,1.12793 1.72119,1.12793 z m 0,1.171875 q -1.83838,0 -2.80518,-1.45752 -0.97412,-1.450195 -0.97412,-4.21875 0,-2.76123 0.97412,-4.21875 0.9668,-1.450195 2.80518,-1.450195 1.83838,0 2.8125,1.450195 0.96679,1.45752 0.96679,4.21875 0,2.768555 -0.96679,4.21875 -0.97412,1.45752 -2.8125,1.45752 z m 12.44769,-9.887696 h -2.41699 v 8.342285 l 2.62939,-0.527343 v 1.347656 l -2.61474,0.527344 h -1.4795 v -9.689942 h -2.41699 v -1.245117 h 6.29883 z M 417.26611,73.422188 v 1.347656 q -0.55664,-0.263672 -1.12793,-0.402832 -0.57129,-0.13916 -1.1206,-0.13916 -1.46485,0 -2.23389,0.981445 -0.77637,0.98877 -0.88623,2.995606 0.42481,-0.629883 1.07666,-0.966797 0.65186,-0.336914 1.44287,-0.336914 1.64063,0 2.6001,0.988769 0.95215,0.996094 0.95215,2.717285 0,1.684571 -0.9961,2.702637 -0.99609,1.018067 -2.65136,1.018067 -1.89698,0 -2.89307,-1.45752 -1.00342,-1.450195 -1.00342,-4.21875 0,-2.585449 1.23047,-4.130859 1.22315,-1.538086 3.2959,-1.538086 0.55664,0 1.12793,0.109863 0.57129,0.109863 1.18652,0.32959 z m -2.94433,4.63623 q -0.9961,0 -1.57471,0.681153 -0.58594,0.681152 -0.58594,1.867675 0,1.1792 0.58594,1.860352 0.57861,0.688477 1.57471,0.688477 0.99609,0 1.58203,-0.688477 0.57861,-0.681152 0.57861,-1.860352 0,-1.186523 -0.57861,-1.867675 -0.58594,-0.681153 -1.58203,-0.681153 z m -100.52881,6.071778 h -7.03125 v -0.629883 l 3.96973,-10.305176 h 1.54541 l -3.73536,9.689941 h 5.25147 z m -124.07619,-4.87793 q 0.9961,0 1.58203,-0.681152 0.57862,-0.681153 0.57862,-1.867676 0,-1.179199 -0.57862,-1.867676 -0.58593,-0.681152 -1.58203,-0.681152 -0.99609,0 -1.57471,0.681152 -0.58593,0.688477 -0.58593,1.867676 0,1.186523 0.58593,1.867676 0.57862,0.681152 1.57471,0.681152 z m -2.93701,4.63623 V 82.54084 q 0.55664,0.263672 1.12793,0.402832 0.56396,0.13916 1.12061,0.13916 1.46484,0 2.24121,-0.988769 0.76904,-0.98877 0.8789,-2.988281 -0.43213,0.637207 -1.08398,0.974121 -0.65186,0.344238 -1.43555,0.344238 -1.64795,0 -2.6001,-1.003418 -0.95947,-0.996094 -0.95947,-2.717285 0,-1.684571 0.99609,-2.702637 0.9961,-1.018066 2.65137,-1.018066 1.89697,0 2.90039,1.450195 1.00342,1.45752 1.00342,4.21875 0,2.592773 -1.23047,4.130859 -1.23047,1.545411 -3.30322,1.545411 -0.55664,0 -1.12061,-0.109864 -0.57129,-0.109863 -1.18652,-0.32959 z M 58.997559,255.23514 v 7.03125 H 58.367676 L 48.0625,258.29666 v -1.54541 l 9.689941,3.73535 v -5.25146 z m -9.689942,-7.89205 v 5.16358 H 48.0625 v -6.94336 h 1.245117 q 0.871582,0.84228 2.336426,2.29248 1.472168,1.45752 1.896973,1.83105 0.798339,0.71045 1.347656,0.98877 0.55664,0.28565 1.091308,0.28565 0.871582,0 1.420899,-0.61524 0.549316,-0.60791 0.549316,-1.58935 0,-0.6958 -0.241699,-1.47217 -0.241699,-0.76904 -0.732422,-1.64795 h 1.494141 q 0.358887,0.89356 0.541992,1.66992 0.183105,0.77637 0.183105,1.4209 0,1.69922 -0.849609,2.70996 -0.849609,1.01074 -2.270508,1.01074 -0.673828,0 -1.281738,-0.25634 -0.600586,-0.24903 -1.420898,-0.91553 -0.212403,-0.18311 -1.230469,-1.16455 -1.010742,-0.98145 -2.834473,-2.76856 z m 80.256343,10.82573 q 0,0.9961 0.68116,1.58203 0.68115,0.57862 1.86767,0.57862 1.1792,0 1.86768,-0.57862 0.68115,-0.58593 0.68115,-1.58203 0,-0.99609 -0.68115,-1.5747 -0.68848,-0.58594 -1.86768,-0.58594 -1.18652,0 -1.86767,0.58594 -0.68116,0.57861 -0.68116,1.5747 z m -4.63623,-2.93701 h 1.34766 q -0.26367,0.55664 -0.40283,1.12793 -0.13916,0.56397 -0.13916,1.12061 0,1.46484 0.98877,2.24121 0.98877,0.76904 2.98828,0.8789 -0.63721,-0.43213 -0.97412,-1.08398 -0.34424,-0.65186 -0.34424,-1.43555 0,-1.64795 1.00342,-2.6001 0.99609,-0.95947 2.71728,-0.95947 1.68457,0 2.70264,0.9961 1.01807,0.99609 1.01807,2.65136 0,1.89698 -1.4502,2.90039 -1.45752,1.00342 -4.21875,1.00342 -2.59277,0 -4.13086,-1.23047 -1.54541,-1.23047 -1.54541,-3.30322 0,-0.55664 0.10986,-1.12061 0.10987,-0.57128 0.32959,-1.18652 z m 9.44825,14.54975 v -5.16358 h 1.24511 v 6.94336 h -1.24511 q -0.87159,-0.84228 -2.33643,-2.29248 -1.47217,-1.45752 -1.89697,-1.83105 -0.79834,-0.71045 -1.34766,-0.98877 -0.55664,-0.28565 -1.09131,-0.28565 -0.87158,0 -1.4209,0.61524 -0.54931,0.60791 -0.54931,1.58935 0,0.6958 0.2417,1.47217 0.2417,0.76904 0.73242,1.64795 h -1.49414 q -0.35889,-0.89356 -0.54199,-1.66992 -0.18311,-0.77637 -0.18311,-1.4209 0,-1.69922 0.84961,-2.70996 0.84961,-1.01075 2.27051,-1.01075 0.67383,0 1.28174,0.25635 0.60058,0.24903 1.4209,0.91553 0.2124,0.18311 1.23046,1.16455 1.01075,0.98145 2.83448,2.76856 z m -39.71342,10.2207 h 5.8081 v 1.24512 h -4.45312 v 2.68066 q 0.322266,-0.10986 0.644531,-0.16113 0.322266,-0.0586 0.644531,-0.0586 1.831055,0 2.900388,1.00342 1.06934,1.00342 1.06934,2.71729 0,1.76513 -1.09863,2.74658 -1.098637,0.97412 -3.098148,0.97412 -0.688477,0 -1.40625,-0.11719 -0.71045,-0.11719 -1.472168,-0.35156 v -1.48682 q 0.659179,0.35889 1.362304,0.53467 0.703125,0.17578 1.486817,0.17578 1.26709,0 2.006836,-0.6665 0.739746,-0.66651 0.739746,-1.80908 0,-1.14258 -0.739746,-1.80909 -0.739746,-0.6665 -2.006836,-0.6665 -0.593262,0 -1.186524,0.13184 -0.585937,0.13183 -1.201171,0.41015 z m -8.280236,9.68994 h 5.163574 v 1.24512 h -6.943359 v -1.24512 q 0.842285,-0.87158 2.292481,-2.33643 1.457519,-1.47216 1.831054,-1.89697 0.710449,-0.79834 0.98877,-1.34765 0.285644,-0.55665 0.285644,-1.09131 0,-0.87159 -0.615234,-1.4209 -0.60791,-0.54932 -1.589356,-0.54932 -0.6958,0 -1.472168,0.2417 -0.769043,0.2417 -1.647949,0.73242 v -1.49414 q 0.893555,-0.35888 1.669922,-0.54199 0.776367,-0.18311 1.420899,-0.18311 1.699218,0 2.70996,0.84961 1.010743,0.84961 1.010743,2.27051 0,0.67383 -0.256348,1.28174 -0.249023,0.60059 -0.915527,1.4209 -0.183106,0.2124 -1.164551,1.23047 -0.981445,1.01074 -2.768555,2.83447 z M 72.193848,84.130196 h -5.808106 v -1.245118 h 4.453125 v -2.680664 q -0.322265,0.109864 -0.644531,0.161133 -0.322266,0.05859 -0.644531,0.05859 -1.831055,0 -2.900391,-1.003418 -1.069336,-1.003418 -1.069336,-2.717285 0,-1.765137 1.098633,-2.746582 1.098633,-0.974121 3.098144,-0.974121 0.688477,0 1.40625,0.117187 0.71045,0.117188 1.472168,0.351563 v 1.486816 q -0.659179,-0.358887 -1.362304,-0.534668 -0.703125,-0.175781 -1.486817,-0.175781 -1.26709,0 -2.006836,0.666504 -0.739746,0.666504 -0.739746,1.809082 0,1.142578 0.739746,1.809082 0.739746,0.666504 2.006836,0.666504 0.593262,0 1.186524,-0.131836 0.585937,-0.131836 1.201172,-0.410156 z M 770.32812,113.15755 q 0,1.14258 1.12793,1.72119 1.12061,0.57129 3.37647,0.57129 2.24853,0 3.37646,-0.57129 1.12061,-0.57861 1.12061,-1.72119 0,-1.14991 -1.12061,-1.72119 -1.12793,-0.57862 -3.37646,-0.57862 -2.25586,0 -3.37647,0.57862 -1.12793,0.57128 -1.12793,1.72119 z m -1.17187,0 q 0,-1.83838 1.45752,-2.80518 1.45019,-0.97412 4.21875,-0.97412 2.76123,0 4.21875,0.97412 1.45019,0.9668 1.45019,2.80518 0,1.83838 -1.45019,2.8125 -1.45752,0.96679 -4.21875,0.96679 -2.76856,0 -4.21875,-0.96679 -1.45752,-0.97412 -1.45752,-2.8125 z m -731.939941,7.62543 -5.837403,-3.73535 v 3.73535 z m 1.289062,-0.38818 v 1.86035 h -7.126465 v 1.56006 h -1.230469 v -1.56006 h -2.578125 v -1.47217 h 2.578125 v -4.93652 H 31.57666 Z M 28.81543,108.45246 v 5.16358 h -1.245118 v -6.94336 h 1.245118 q 0.871582,0.84228 2.336425,2.29248 1.472168,1.45752 1.896973,1.83105 0.79834,0.71045 1.347656,0.98877 0.556641,0.28565 1.091309,0.28565 0.871582,0 1.420898,-0.61524 0.549317,-0.60791 0.549317,-1.58935 0,-0.69581 -0.241699,-1.47217 -0.2417,-0.76905 -0.732422,-1.64795 h 1.49414 q 0.358887,0.89355 0.541993,1.66992 0.183105,0.77637 0.183105,1.4209 0,1.69922 -0.849609,2.70996 -0.84961,1.01074 -2.270508,1.01074 -0.673828,0 -1.281738,-0.25635 -0.600586,-0.24902 -1.420899,-0.91552 -0.212402,-0.18311 -1.230469,-1.16455 -1.010742,-0.98145 -2.834472,-2.76856 z M 313.2012,691.11621 h -2.41699 v 8.34229 l 2.62939,-0.52735 v 1.34766 l -2.61474,0.52734 h -1.47949 v -9.68994 h -2.417 v -1.24512 h 6.29883 z m 5.31394,4.65088 q -1.06202,-0.22705 -1.65528,-0.94482 -0.60058,-0.71778 -0.60058,-1.77247 0,-1.61865 1.11328,-2.50488 1.11328,-0.88623 3.16406,-0.88623 0.68848,0 1.4209,0.13916 0.7251,0.13184 1.50146,0.40283 v 1.42823 q -0.61523,-0.35889 -1.34765,-0.542 -0.73242,-0.1831 -1.53076,-0.1831 -1.39161,0 -2.1167,0.54931 -0.73242,0.54932 -0.73242,1.59668 0,0.9668 0.68115,1.50879 0.67383,0.54932 1.88232,0.54932 h 1.27442 v 1.21582 h -1.33301 q -1.09131,0 -1.66992,0.43213 -0.57862,0.43945 -0.57862,1.25976 0,0.84229 0.60059,1.28907 0.59326,0.4541 1.70654,0.4541 0.60791,0 1.30371,-0.13184 0.6958,-0.13183 1.53076,-0.41015 v 1.31836 q -0.84228,0.23437 -1.5747,0.35156 -0.73975,0.11719 -1.3916,0.11719 -1.68457,0 -2.66602,-0.76905 -0.98145,-0.76172 -0.98145,-2.06543 0,-0.9082 0.52002,-1.53808 0.52002,-0.62256 1.4795,-0.86426 z m 88.1885,4.06494 q 1.14258,0 1.7212,-1.12793 0.57128,-1.1206 0.57128,-3.37646 0,-2.24854 -0.57128,-3.37647 -0.57862,-1.1206 -1.7212,-1.1206 -1.1499,0 -1.72119,1.1206 -0.57861,1.12793 -0.57861,3.37647 0,2.25586 0.57861,3.37646 0.57129,1.12793 1.72119,1.12793 z m 0,1.17188 q -1.83838,0 -2.80517,-1.45752 -0.97412,-1.4502 -0.97412,-4.21875 0,-2.76123 0.97412,-4.21875 0.96679,-1.4502 2.80517,-1.4502 1.83838,0 2.8125,1.4502 0.9668,1.45752 0.9668,4.21875 0,2.76855 -0.9668,4.21875 -0.97412,1.45752 -2.8125,1.45752 z m 8.22165,-5.23682 q -1.06201,-0.22705 -1.65527,-0.94482 -0.60059,-0.71778 -0.60059,-1.77247 0,-1.61865 1.11328,-2.50488 1.11329,-0.88623 3.16407,-0.88623 0.68847,0 1.4209,0.13916 0.72509,0.13184 1.50146,0.40283 v 1.42823 q -0.61523,-0.35889 -1.34766,-0.542 -0.73242,-0.1831 -1.53076,-0.1831 -1.3916,0 -2.1167,0.54931 -0.73242,0.54932 -0.73242,1.59668 0,0.9668 0.68115,1.50879 0.67383,0.54932 1.88233,0.54932 h 1.27441 v 1.21582 h -1.33301 q -1.0913,0 -1.66992,0.43213 -0.57861,0.43945 -0.57861,1.25976 0,0.84229 0.60059,1.28907 0.59326,0.4541 1.70654,0.4541 0.60791,0 1.30371,-0.13184 0.6958,-0.13183 1.53076,-0.41015 v 1.31836 q -0.84228,0.23437 -1.57471,0.35156 -0.73974,0.11719 -1.3916,0.11719 -1.68457,0 -2.66601,-0.76905 -0.98145,-0.76172 -0.98145,-2.06543 0,-0.9082 0.52002,-1.53808 0.52002,-0.62256 1.47949,-0.86426 z m 105.26178,-5.66895 v 1.34766 q -0.55664,-0.26367 -1.12793,-0.40283 -0.57129,-0.13916 -1.1206,-0.13916 -1.46485,0 -2.23389,0.98144 -0.77637,0.98877 -0.88623,2.99561 0.42481,-0.62988 1.07666,-0.9668 0.65186,-0.33691 1.44287,-0.33691 1.64063,0 2.6001,0.98877 0.95215,0.99609 0.95215,2.71728 0,1.68457 -0.9961,2.70264 -0.99609,1.01807 -2.65136,1.01807 -1.89698,0 -2.89307,-1.45752 -1.00342,-1.4502 -1.00342,-4.21875 0,-2.58545 1.23047,-4.13086 1.22315,-1.53809 3.2959,-1.53809 0.55664,0 1.12793,0.10986 0.57129,0.10987 1.18652,0.32959 z m -2.94433,4.63623 q -0.9961,0 -1.57471,0.68116 -0.58594,0.68115 -0.58594,1.86767 0,1.1792 0.58594,1.86035 0.57861,0.68848 1.57471,0.68848 0.99609,0 1.58203,-0.68848 0.57861,-0.68115 0.57861,-1.86035 0,-1.18652 -0.57861,-1.86767 -0.58594,-0.68116 -1.58203,-0.68116 z m 11.25384,-3.61816 h -5.16357 v -1.24512 h 6.94336 v 1.24512 q -0.84229,0.87158 -2.29248,2.33643 -1.45752,1.47216 -1.83106,1.89697 -0.71045,0.79834 -0.98877,1.34766 -0.28564,0.55664 -0.28564,1.0913 0,0.87159 0.61523,1.4209 0.60791,0.54932 1.58936,0.54932 0.6958,0 1.47217,-0.2417 0.76904,-0.2417 1.64794,-0.73242 v 1.49414 q -0.89355,0.35889 -1.66992,0.54199 -0.77636,0.18311 -1.4209,0.18311 -1.69921,0 -2.70996,-0.84961 -1.01074,-0.84961 -1.01074,-2.27051 0,-0.67383 0.25635,-1.28174 0.24902,-0.60059 0.91553,-1.4209 0.1831,-0.2124 1.16455,-1.23047 0.98144,-1.01074 2.76855,-2.83447 z m 98.57428,3.94775 q 1.05469,0 1.6626,-0.56396 0.60059,-0.56396 0.60059,-1.55273 0,-0.98877 -0.60059,-1.55274 -0.60791,-0.56396 -1.6626,-0.56396 -1.05469,0 -1.6626,0.56396 -0.60791,0.57129 -0.60791,1.55274 0,0.98877 0.60791,1.55273 0.60059,0.56396 1.6626,0.56396 z m 1.47949,0.62989 q 0.95215,0.23437 1.48682,0.88623 0.52734,0.65185 0.52734,1.58935 0,1.31104 -0.93017,2.07276 -0.9375,0.76172 -2.56348,0.76172 -1.6333,0 -2.56347,-0.76172 -0.93018,-0.76172 -0.93018,-2.07276 0,-0.9375 0.53467,-1.58935 0.52734,-0.65186 1.47217,-0.88623 -1.06934,-0.24903 -1.6626,-0.97412 -0.60059,-0.7251 -0.60059,-1.77246 0,-1.58936 0.97412,-2.43897 0.9668,-0.84961 2.77588,-0.84961 1.80908,0 2.7832,0.84961 0.9668,0.84961 0.9668,2.43897 0,1.04736 -0.60058,1.77246 -0.60059,0.72509 -1.66993,0.97412 z m 0.542,2.33642 q 0,-0.84961 -0.52735,-1.32568 -0.53467,-0.47607 -1.49414,-0.47607 -0.95215,0 -1.48681,0.47607 -0.542,0.47607 -0.542,1.32568 0,0.84961 0.542,1.32569 0.53466,0.47607 1.48681,0.47607 0.95947,0 1.49414,-0.47607 0.52735,-0.47608 0.52735,-1.32569 z m 9.40814,-6.91406 h -5.16358 v -1.24512 h 6.94336 v 1.24512 q -0.84228,0.87158 -2.29248,2.33643 -1.45752,1.47216 -1.83105,1.89697 -0.71045,0.79834 -0.98877,1.34766 -0.28565,0.55664 -0.28565,1.0913 0,0.87159 0.61524,1.4209 0.60791,0.54932 1.58935,0.54932 0.6958,0 1.47217,-0.2417 0.76904,-0.2417 1.64795,-0.73242 v 1.49414 q -0.89355,0.35889 -1.66992,0.54199 -0.77637,0.18311 -1.4209,0.18311 -1.69922,0 -2.70996,-0.84961 -1.01074,-0.84961 -1.01074,-2.27051 0,-0.67383 0.25635,-1.28174 0.24902,-0.60059 0.91552,-1.4209 0.18311,-0.2124 1.16455,-1.23047 0.98145,-1.01074 2.76856,-2.83447 z m -1.42584,79.4082 h 5.16357 v 1.24512 h -6.94336 v -1.24512 q 0.84229,-0.87158 2.29248,-2.33642 1.45752,-1.47217 1.83106,-1.89697 0.71045,-0.79834 0.98877,-1.34766 0.28564,-0.55664 0.28564,-1.09131 0,-0.87158 -0.61523,-1.4209 -0.60791,-0.54931 -1.58936,-0.54931 -0.6958,0 -1.47217,0.2417 -0.76904,0.24169 -1.64795,0.73242 v -1.49414 q 0.89356,-0.35889 1.66992,-0.542 0.77637,-0.1831 1.4209,-0.1831 1.69922,0 2.70996,0.84961 1.01075,0.84961 1.01075,2.27051 0,0.67382 -0.25635,1.28173 -0.24902,0.60059 -0.91553,1.4209 -0.1831,0.2124 -1.16455,1.23047 -0.98144,1.01074 -2.76855,2.83447 z m -9.53998,0 h 5.16357 v 1.24512 h -6.94336 v -1.24512 q 0.84229,-0.87158 2.29248,-2.33642 1.45752,-1.47217 1.83106,-1.89697 0.71045,-0.79834 0.98877,-1.34766 0.28564,-0.55664 0.28564,-1.09131 0,-0.87158 -0.61523,-1.4209 -0.60791,-0.54931 -1.58936,-0.54931 -0.6958,0 -1.47217,0.2417 -0.76904,0.24169 -1.64795,0.73242 v -1.49414 q 0.89356,-0.35889 1.66993,-0.542 0.77636,-0.1831 1.4209,-0.1831 1.69921,0 2.70996,0.84961 1.01074,0.84961 1.01074,2.27051 0,0.67382 -0.25635,1.28173 -0.24902,0.60059 -0.91553,1.4209 -0.1831,0.2124 -1.16455,1.23047 -0.98144,1.01074 -2.76855,2.83447 z m -97.1192,-4.65087 q 1.06201,0.22705 1.65527,0.94482 0.60059,0.71777 0.60059,1.77246 0,1.61865 -1.11329,2.50488 -1.11328,0.88623 -3.16406,0.88623 -0.68847,0 -1.4209,-0.13916 -0.72509,-0.13183 -1.50146,-0.40283 v -1.42822 q 0.61523,0.35889 1.34765,0.54199 0.73243,0.18311 1.53077,0.18311 1.3916,0 2.1167,-0.54932 0.73242,-0.54932 0.73242,-1.59668 0,-0.9668 -0.68115,-1.50879 -0.67383,-0.54932 -1.88233,-0.54932 h -1.27441 v -1.21582 h 1.333 q 1.09131,0 1.66993,-0.43212 0.57861,-0.43946 0.57861,-1.25977 0,-0.84229 -0.60059,-1.28906 -0.59326,-0.4541 -1.70654,-0.4541 -0.60791,0 -1.30371,0.13183 -0.6958,0.13184 -1.53076,0.41016 v -1.31836 q 0.84228,-0.23438 1.57471,-0.35156 0.73974,-0.11719 1.3916,-0.11719 1.68457,0 2.66601,0.76904 0.98145,0.76172 0.98145,2.06543 0,0.9082 -0.52002,1.53809 -0.52002,0.62256 -1.47949,0.86426 z m -13.76606,4.65087 h 2.417 v -8.34228 l -2.6294,0.52734 v -1.34765 l 2.61475,-0.52735 h 1.47949 v 9.68994 h 2.41699 v 1.24512 h -6.29883 z m -100.73733,0 h 2.41699 v -8.34228 l -2.62939,0.52734 v -1.34765 l 2.61474,-0.52735 h 1.47949 v 9.68994 h 2.417 v 1.24512 h -6.29883 z m -9.54001,0 h 2.41699 v -8.34228 l -2.62939,0.52734 v -1.34765 l 2.61474,-0.52735 h 1.4795 v 9.68994 h 2.41699 v 1.24512 h -6.29883 z m -89.03369,-3.94775 q -1.05469,0 -1.6626,0.56396 -0.60058,0.56397 -0.60058,1.55274 0,0.98877 0.60058,1.55273 0.60791,0.56397 1.6626,0.56397 1.05469,0 1.6626,-0.56397 0.60791,-0.57129 0.60791,-1.55273 0,-0.98877 -0.60791,-1.55274 -0.60059,-0.56396 -1.6626,-0.56396 z m -1.47949,-0.62988 q -0.95215,-0.23438 -1.48682,-0.88623 -0.52734,-0.65186 -0.52734,-1.58936 0,-1.31103 0.93017,-2.07275 0.9375,-0.76172 2.56348,-0.76172 1.6333,0 2.56348,0.76172 0.93017,0.76172 0.93017,2.07275 0,0.9375 -0.53467,1.58936 -0.52734,0.65185 -1.47216,0.88623 1.06933,0.24902 1.66259,0.97412 0.60059,0.7251 0.60059,1.77246 0,1.58935 -0.97412,2.43896 -0.9668,0.84961 -2.77588,0.84961 -1.80908,0 -2.7832,-0.84961 -0.9668,-0.84961 -0.9668,-2.43896 0,-1.04736 0.60058,-1.77246 0.60059,-0.7251 1.66993,-0.97412 z m -0.542,-2.33643 q 0,0.84961 0.52735,1.32569 0.53467,0.47607 1.49414,0.47607 0.95215,0 1.48682,-0.47607 0.54199,-0.47608 0.54199,-1.32569 0,-0.84961 -0.54199,-1.32568 -0.53467,-0.47608 -1.48682,-0.47608 -0.95947,0 -1.49414,0.47608 -0.52735,0.47607 -0.52735,1.32568 z M 73.35453,700.80615 h -7.03125 v -0.62988 l 3.969727,-10.30518 h 1.54541 l -3.735352,9.68995 h 5.251465 z m 7.892052,-9.68994 h -5.163574 v -1.24512 h 6.943359 v 1.24512 q -0.842285,0.87158 -2.29248,2.33643 -1.45752,1.47216 -1.831055,1.89697 -0.710449,0.79834 -0.98877,1.34766 -0.285644,0.55664 -0.285644,1.0913 0,0.87159 0.615234,1.4209 0.60791,0.54932 1.589356,0.54932 0.695801,0 1.472168,-0.2417 0.769043,-0.2417 1.647949,-0.73242 v 1.49414 q -0.893555,0.35889 -1.669922,0.54199 -0.776367,0.18311 -1.420898,0.18311 -1.699219,0 -2.709961,-0.84961 -1.010742,-0.84961 -1.010742,-2.27051 0,-0.67383 0.256347,-1.28174 0.249024,-0.60059 0.915528,-1.4209 0.183105,-0.2124 1.16455,-1.23047 0.981446,-1.01074 2.768555,-2.83447 z m 147.031788,4.81201 q 0.99609,0 1.58203,-0.68115 0.57861,-0.68115 0.57861,-1.86768 0,-1.17919 -0.57861,-1.86767 -0.58594,-0.68115 -1.58203,-0.68115 -0.9961,0 -1.57471,0.68115 -0.58594,0.68848 -0.58594,1.86767 0,1.18653 0.58594,1.86768 0.57861,0.68115 1.57471,0.68115 z m -2.93702,4.63623 v -1.34765 q 0.55664,0.26367 1.12793,0.40283 0.56397,0.13916 1.12061,0.13916 1.46484,0 2.24121,-0.98877 0.76904,-0.98877 0.87891,-2.98828 -0.43213,0.63721 -1.08399,0.97412 -0.65185,0.34424 -1.43554,0.34424 -1.64795,0 -2.6001,-1.00342 -0.95947,-0.99609 -0.95947,-2.71729 0,-1.68457 0.99609,-2.70263 0.99609,-1.01807 2.65137,-1.01807 1.89697,0 2.90039,1.4502 1.00341,1.45752 1.00341,4.21875 0,2.59277 -1.23046,4.13086 -1.23047,1.54541 -3.30323,1.54541 -0.55664,0 -1.1206,-0.10987 -0.57129,-0.10986 -1.18653,-0.32959 z m 14.54978,-9.44824 h -5.16358 v -1.24512 h 6.94336 v 1.24512 q -0.84228,0.87158 -2.29248,2.33643 -1.45752,1.47216 -1.83105,1.89697 -0.71045,0.79834 -0.98877,1.34766 -0.28565,0.55664 -0.28565,1.0913 0,0.87159 0.61524,1.4209 0.60791,0.54932 1.58935,0.54932 0.69581,0 1.47217,-0.2417 0.76905,-0.2417 1.64795,-0.73242 v 1.49414 q -0.89355,0.35889 -1.66992,0.54199 -0.77637,0.18311 -1.4209,0.18311 -1.69922,0 -2.70996,-0.84961 -1.01074,-0.84961 -1.01074,-2.27051 0,-0.67383 0.25635,-1.28174 0.24902,-0.60059 0.91552,-1.4209 0.18311,-0.2124 1.16455,-1.23047 0.98145,-1.01074 2.76856,-2.83447 z m -82.04196,9.68994 h -5.80811 v -1.24511 h 4.45313 v -2.68067 q -0.32227,0.10986 -0.64453,0.16113 -0.32227,0.0586 -0.64454,0.0586 -1.83105,0 -2.90039,-1.00342 -1.06933,-1.00342 -1.06933,-2.71729 0,-1.76513 1.09863,-2.74658 1.09863,-0.97412 3.09814,-0.97412 0.68848,0 1.40625,0.11719 0.71045,0.11719 1.47217,0.35156 v 1.48682 q -0.65918,-0.35889 -1.3623,-0.53467 -0.70313,-0.17578 -1.48682,-0.17578 -1.26709,0 -2.00683,0.6665 -0.73975,0.66651 -0.73975,1.80908 0,1.14258 0.73975,1.80909 0.73974,0.6665 2.00683,0.6665 0.59326,0 1.18652,-0.13184 0.58594,-0.13183 1.20118,-0.41015 z m 8.28022,-9.68994 h -5.16357 v -1.24512 h 6.94336 v 1.24512 q -0.84229,0.87158 -2.29248,2.33643 -1.45752,1.47216 -1.83106,1.89697 -0.71044,0.79834 -0.98877,1.34766 -0.28564,0.55664 -0.28564,1.0913 0,0.87159 0.61523,1.4209 0.60791,0.54932 1.58936,0.54932 0.6958,0 1.47217,-0.2417 0.76904,-0.2417 1.64795,-0.73242 v 1.49414 q -0.89356,0.35889 -1.66992,0.54199 -0.77637,0.18311 -1.4209,0.18311 -1.69922,0 -2.70996,-0.84961 -1.01075,-0.84961 -1.01075,-2.27051 0,-0.67383 0.25635,-1.28174 0.24903,-0.60059 0.91553,-1.4209 0.1831,-0.2124 1.16455,-1.23047 0.98145,-1.01074 2.76855,-2.83447 z m -88.675288,71.00733 -3.735352,5.8374 h 3.735352 z m -0.388184,-1.28907 h 1.860352 v 7.12647 h 1.560058 v 1.23047 H 78.92627 v 2.57812 h -1.472168 v -2.57812 h -4.936524 v -1.42823 z m 159.668942,5.03907 q 1.06201,0.22705 1.65528,0.94482 0.60058,0.71777 0.60058,1.77246 0,1.61865 -1.11328,2.50488 -1.11328,0.88623 -3.16406,0.88623 -0.68848,0 -1.4209,-0.13916 -0.7251,-0.13183 -1.50146,-0.40283 v -1.42822 q 0.61523,0.35889 1.34765,0.54199 0.73242,0.18311 1.53076,0.18311 1.39161,0 2.1167,-0.54932 0.73242,-0.54932 0.73242,-1.59668 0,-0.9668 -0.68115,-1.50879 -0.67383,-0.54932 -1.88232,-0.54932 h -1.27442 v -1.21582 h 1.33301 q 1.09131,0 1.66992,-0.43212 0.57862,-0.43946 0.57862,-1.25977 0,-0.84229 -0.60059,-1.28906 -0.59326,-0.4541 -1.70654,-0.4541 -0.60791,0 -1.30371,0.13183 -0.6958,0.13184 -1.53076,0.41016 v -1.31836 q 0.84228,-0.23438 1.5747,-0.35156 0.73975,-0.11719 1.3916,-0.11719 1.68457,0 2.66602,0.76904 0.98144,0.76172 0.98144,2.06543 0,0.9082 -0.52001,1.53809 -0.52002,0.62256 -1.4795,0.86426 z m -76.65722,4.65087 h 5.16357 v 1.24512 h -6.94336 v -1.24512 q 0.84229,-0.87158 2.29248,-2.33642 1.45752,-1.47217 1.83106,-1.89697 0.71045,-0.79834 0.98877,-1.34766 0.28564,-0.55664 0.28564,-1.09131 0,-0.87158 -0.61523,-1.4209 -0.60791,-0.54931 -1.58936,-0.54931 -0.6958,0 -1.47217,0.2417 -0.76904,0.24169 -1.64795,0.73242 v -1.49414 q 0.89356,-0.35889 1.66993,-0.542 0.77636,-0.1831 1.42089,-0.1831 1.69922,0 2.70996,0.84961 1.01075,0.84961 1.01075,2.27051 0,0.67382 -0.25635,1.28173 -0.24902,0.60059 -0.91553,1.4209 -0.1831,0.2124 -1.16455,1.23047 -0.98144,1.01074 -2.76855,2.83447 z m 512.14599,-38.31054 v -2.417 h -8.34228 l 0.52734,2.6294 h -1.34765 l -0.52735,-2.61475 v -1.47949 h 9.68994 v -2.41699 h 1.24512 v 6.29883 z m -624.929193,5.24115 -5.837402,-3.73535 v 3.73535 z m 1.289063,-0.38819 v 1.86036 h -7.126465 v 1.56005 h -1.230469 v -1.56005 h -2.578125 v -1.47217 h 2.578125 v -4.93653 h 1.428223 z m -9.689941,-11.94232 v 5.16358 h -1.245118 v -6.94336 h 1.245118 q 0.871582,0.84228 2.336425,2.29248 1.472168,1.45752 1.896973,1.83105 0.79834,0.71045 1.347656,0.98877 0.556641,0.28565 1.091309,0.28565 0.871582,0 1.420898,-0.61524 0.549317,-0.60791 0.549317,-1.58935 0,-0.6958 -0.2417,-1.47217 -0.241699,-0.76905 -0.732421,-1.64795 h 1.49414 q 0.358887,0.89355 0.541992,1.66992 0.183106,0.77637 0.183106,1.4209 0,1.69922 -0.84961,2.70996 -0.849609,1.01074 -2.270507,1.01074 -0.673828,0 -1.281739,-0.25635 -0.600586,-0.24902 -1.420898,-0.91552 -0.212402,-0.18311 -1.230469,-1.16455 -1.010742,-0.98145 -2.834472,-2.76856 z M 752.15765,650.7251 q 1.06202,0.22705 1.65528,0.94482 0.60058,0.71778 0.60058,1.77246 0,1.61866 -1.11328,2.50489 -1.11328,0.88623 -3.16406,0.88623 -0.68848,0 -1.4209,-0.13916 -0.7251,-0.13184 -1.50146,-0.40284 v -1.42822 q 0.61523,0.35889 1.34765,0.54199 0.73242,0.18311 1.53076,0.18311 1.39161,0 2.1167,-0.54932 0.73243,-0.54931 0.73243,-1.59668 0,-0.96679 -0.68116,-1.50879 -0.67383,-0.54931 -1.88232,-0.54931 h -1.27442 v -1.21582 h 1.33301 q 1.09131,0 1.66992,-0.43213 0.57862,-0.43946 0.57862,-1.25977 0,-0.84228 -0.60059,-1.28906 -0.59326,-0.4541 -1.70654,-0.4541 -0.60791,0 -1.30371,0.13183 -0.6958,0.13184 -1.53076,0.41016 v -1.31836 q 0.84228,-0.23437 1.5747,-0.35156 0.73975,-0.11719 1.3916,-0.11719 1.68457,0 2.66602,0.76904 0.98145,0.76172 0.98145,2.06543 0,0.90821 -0.52002,1.53809 -0.52002,0.62256 -1.4795,0.86426 z m -12.74798,4.65088 h 5.16357 v 1.24511 h -6.94336 v -1.24511 q 0.84229,-0.87159 2.29248,-2.33643 1.45752,-1.47217 1.83106,-1.89697 0.71045,-0.79834 0.98877,-1.34766 0.28564,-0.55664 0.28564,-1.09131 0,-0.87158 -0.61523,-1.4209 -0.60791,-0.54931 -1.58936,-0.54931 -0.6958,0 -1.47217,0.2417 -0.76904,0.2417 -1.64795,0.73242 v -1.49414 q 0.89356,-0.35889 1.66993,-0.54199 0.77636,-0.18311 1.4209,-0.18311 1.69921,0 2.70996,0.84961 1.01074,0.84961 1.01074,2.27051 0,0.67383 -0.25635,1.28174 -0.24902,0.60058 -0.91553,1.4209 -0.1831,0.2124 -1.16455,1.23046 -0.98144,1.01075 -2.76855,2.83448 z m -114.19773,-292.35521 -3.82068,-3.47347 0.83757,-0.9213 5.13759,4.6707 -0.83757,0.9213 q -1.20953,0.0783 -3.26795,0.18667 -2.06877,0.10885 -2.63091,0.17191 -1.06272,0.1128 -1.63817,0.33203 -0.5858,0.21972 -0.94547,0.61534 -0.5863,0.64491 -0.50058,1.46523 0.0803,0.81539 0.80649,1.47559 0.51484,0.46805 1.25188,0.81146 0.73163,0.33849 1.71206,0.56662 l -1.00509,1.10555 q -0.90258,-0.33553 -1.60021,-0.72229 -0.69762,-0.38677 -1.17453,-0.82034 -1.2573,-1.14304 -1.43366,-2.4516 -0.17636,-1.30857 0.77945,-2.35992 0.45327,-0.49859 1.05189,-0.77596 0.58827,-0.27687 1.63324,-0.4355 0.27837,-0.034 1.68941,-0.12708 1.40611,-0.0877 3.95524,-0.23494 z m 7.0589,6.41739 -3.82068,-3.47345 0.83758,-0.9213 5.13759,4.67069 -0.83757,0.9213 q -1.20954,0.0783 -3.26795,0.18667 -2.06877,0.10885 -2.63092,0.1719 -1.06272,0.11281 -1.63817,0.33204 -0.5858,0.21973 -0.94546,0.61534 -0.5863,0.64491 -0.50059,1.46522 0.0803,0.81539 0.80649,1.4756 0.51485,0.46805 1.25189,0.81147 0.73162,0.33848 1.71206,0.56661 l -1.00509,1.10556 q -0.90258,-0.33554 -1.60022,-0.72231 -0.69762,-0.38676 -1.17452,-0.82033 -1.25731,-1.14304 -1.43367,-2.4516 -0.17636,-1.30857 0.77946,-2.35992 0.45327,-0.49859 1.05188,-0.77596 0.58827,-0.27688 1.63325,-0.4355 0.27836,-0.034 1.6894,-0.12708 1.40611,-0.0877 3.95524,-0.23495 z m 10.25449,285.93782 h 2.41699 v -8.34229 l -2.62939,0.52735 v -1.34766 l 2.61474,-0.52734 h 1.4795 v 9.68994 h 2.41699 v 1.24511 h -6.29883 z m -8.52191,0 h 5.16357 v 1.24511 h -6.94336 v -1.24511 q 0.84229,-0.87159 2.29248,-2.33643 1.45752,-1.47217 1.83106,-1.89697 0.71045,-0.79834 0.98877,-1.34766 0.28564,-0.55664 0.28564,-1.09131 0,-0.87158 -0.61523,-1.4209 -0.60791,-0.54931 -1.58936,-0.54931 -0.6958,0 -1.47217,0.2417 -0.76904,0.2417 -1.64795,0.73242 v -1.49414 q 0.89356,-0.35889 1.66993,-0.54199 0.77636,-0.18311 1.4209,-0.18311 1.69921,0 2.70996,0.84961 1.01074,0.84961 1.01074,2.27051 0,0.67383 -0.25635,1.28174 -0.24902,0.60058 -0.91553,1.4209 -0.1831,0.2124 -1.16455,1.23046 -0.98144,1.01075 -2.76855,2.83448 z m -111.24225,-8.71582 q -1.14258,0 -1.72119,1.12793 -0.57129,1.1206 -0.57129,3.37646 0,2.24854 0.57129,3.37647 0.57861,1.1206 1.72119,1.1206 1.1499,0 1.72119,-1.1206 0.57861,-1.12793 0.57861,-3.37647 0,-2.25586 -0.57861,-3.37646 -0.57129,-1.12793 -1.72119,-1.12793 z m 0,-1.17188 q 1.83838,0 2.80518,1.45752 0.97412,1.4502 0.97412,4.21875 0,2.76123 -0.97412,4.21875 -0.9668,1.4502 -2.80518,1.4502 -1.83838,0 -2.8125,-1.4502 -0.9668,-1.45752 -0.9668,-4.21875 0,-2.76855 0.9668,-4.21875 0.97412,-1.45752 2.8125,-1.45752 z m -11.42963,9.8877 h 5.16358 v 1.24511 h -6.94336 v -1.24511 q 0.84228,-0.87159 2.29248,-2.33643 1.45752,-1.47217 1.83105,-1.89697 0.71045,-0.79834 0.98877,-1.34766 0.28565,-0.55664 0.28565,-1.09131 0,-0.87158 -0.61524,-1.4209 -0.60791,-0.54931 -1.58935,-0.54931 -0.6958,0 -1.47217,0.2417 -0.76904,0.2417 -1.64795,0.73242 v -1.49414 q 0.89355,-0.35889 1.66992,-0.54199 0.77637,-0.18311 1.4209,-0.18311 1.69922,0 2.70996,0.84961 1.01074,0.84961 1.01074,2.27051 0,0.67383 -0.25634,1.28174 -0.24903,0.60058 -0.91553,1.4209 -0.18311,0.2124 -1.16455,1.23046 -0.98145,1.01075 -2.76856,2.83448 z m -113.86624,1.01806 v -1.34765 q 0.55664,0.26367 1.12793,0.40283 0.57129,0.13916 1.12061,0.13916 1.46484,0 2.23388,-0.98145 0.77637,-0.98877 0.88623,-2.9956 -0.4248,0.62988 -1.07666,0.96679 -0.65185,0.33692 -1.44287,0.33692 -1.64062,0 -2.6001,-0.98877 -0.95214,-0.99609 -0.95214,-2.71729 0,-1.68457 0.99609,-2.70263 0.99609,-1.01807 2.65137,-1.01807 1.89697,0 2.89306,1.45752 1.00342,1.4502 1.00342,4.21875 0,2.58545 -1.23047,4.13086 -1.22314,1.53809 -3.2959,1.53809 -0.55664,0 -1.12793,-0.10987 -0.57128,-0.10986 -1.18652,-0.32959 z m 2.94434,-4.63623 q 0.99609,0 1.5747,-0.68115 0.58594,-0.68115 0.58594,-1.86768 0,-1.17919 -0.58594,-1.86035 -0.57861,-0.68847 -1.5747,-0.68847 -0.9961,0 -1.58203,0.68847 -0.57862,0.68116 -0.57862,1.86035 0,1.18653 0.57862,1.86768 0.58593,0.68115 1.58203,0.68115 z m -12.27194,3.61817 h 2.41699 v -8.34229 l -2.6294,0.52735 v -1.34766 l 2.61475,-0.52734 h 1.47949 v 9.68994 h 2.41699 v 1.24511 h -6.29882 z m -70.42728,-3.94776 q -1.05469,0 -1.6626,0.56397 -0.60058,0.56396 -0.60058,1.55273 0,0.98877 0.60058,1.55274 0.60791,0.56396 1.6626,0.56396 1.05469,0 1.6626,-0.56396 0.60791,-0.57129 0.60791,-1.55274 0,-0.98877 -0.60791,-1.55273 -0.60059,-0.56397 -1.6626,-0.56397 z m -1.47949,-0.62988 q -0.95215,-0.23438 -1.48682,-0.88623 -0.52734,-0.65186 -0.52734,-1.58936 0,-1.31103 0.93017,-2.07275 0.9375,-0.76172 2.56348,-0.76172 1.6333,0 2.56348,0.76172 0.93017,0.76172 0.93017,2.07275 0,0.9375 -0.53467,1.58936 -0.52734,0.65185 -1.47216,0.88623 1.06933,0.24902 1.66259,0.97412 0.60059,0.7251 0.60059,1.77246 0,1.58936 -0.97412,2.43897 -0.9668,0.84961 -2.77588,0.84961 -1.80908,0 -2.7832,-0.84961 -0.9668,-0.84961 -0.9668,-2.43897 0,-1.04736 0.60058,-1.77246 0.60059,-0.7251 1.66993,-0.97412 z m -0.542,-2.33643 q 0,0.84961 0.52735,1.32569 0.53467,0.47607 1.49414,0.47607 0.95215,0 1.48682,-0.47607 0.54199,-0.47608 0.54199,-1.32569 0,-0.84961 -0.54199,-1.32568 -0.53467,-0.47607 -1.48682,-0.47607 -0.95947,0 -1.49414,0.47607 -0.52735,0.47607 -0.52735,1.32568 z m -10.42623,6.91407 h 2.41699 v -8.34229 l -2.6294,0.52735 v -1.34766 l 2.61475,-0.52734 h 1.47949 v 9.68994 h 2.41699 v 1.24511 h -6.29882 z m -73.03129,-9.68994 h 7.03125 v 0.62988 l -3.96972,10.30517 h -1.54541 l 3.73535,-9.68994 h -5.25147 z m -8.91012,9.68994 h 2.41699 v -8.34229 l -2.62939,0.52735 v -1.34766 l 2.61474,-0.52734 h 1.47949 v 9.68994 h 2.417 v 1.24511 h -6.29883 z m -61.11528,-4.81202 q -0.99609,0 -1.58203,0.68116 -0.57862,0.68115 -0.57862,1.86767 0,1.1792 0.57862,1.86768 0.58594,0.68115 1.58203,0.68115 0.99609,0 1.57471,-0.68115 0.58593,-0.68848 0.58593,-1.86768 0,-1.18652 -0.58593,-1.86767 -0.57862,-0.68116 -1.57471,-0.68116 z m 2.93701,-4.63623 v 1.34766 q -0.55664,-0.26367 -1.12793,-0.40283 -0.56396,-0.13916 -1.1206,-0.13916 -1.46485,0 -2.24122,0.98877 -0.76904,0.98877 -0.8789,2.98828 0.43213,-0.63721 1.08398,-0.97412 0.65186,-0.34424 1.43555,-0.34424 1.64795,0 2.6001,1.00342 0.95947,0.99609 0.95947,2.71728 0,1.68457 -0.99609,2.70264 -0.9961,1.01807 -2.65137,1.01807 -1.89697,0 -2.90039,-1.4502 -1.00342,-1.45752 -1.00342,-4.21875 0,-2.59277 1.23047,-4.13086 1.23047,-1.54541 3.30322,-1.54541 0.55664,0 1.12061,0.10986 0.57129,0.10987 1.18652,0.32959 z m -15.56782,9.44825 h 2.41699 v -8.34229 l -2.6294,0.52735 v -1.34766 l 2.61475,-0.52734 h 1.47949 v 9.68994 h 2.41699 v 1.24511 h -6.29882 z m -72.588422,-9.68994 h 5.808106 v 1.24511 h -4.453125 v 2.68067 q 0.322265,-0.10987 0.644531,-0.16114 0.322266,-0.0586 0.644531,-0.0586 1.831055,0 2.900391,1.00342 1.069336,1.00342 1.069336,2.71728 0,1.76514 -1.098633,2.74658 -1.098633,0.97413 -3.098145,0.97413 -0.688476,0 -1.40625,-0.11719 -0.710449,-0.11719 -1.472168,-0.35156 v -1.48682 q 0.65918,0.35889 1.362305,0.53467 0.703125,0.17578 1.486817,0.17578 1.267089,0 2.006836,-0.66651 0.739746,-0.6665 0.739746,-1.80908 0,-1.14258 -0.739746,-1.80908 -0.739747,-0.6665 -2.006836,-0.6665 -0.593262,0 -1.186524,0.13183 -0.585937,0.13184 -1.201172,0.41016 z m -9.298301,9.68994 h 2.416992 v -8.34229 l -2.629395,0.52735 v -1.34766 l 2.614746,-0.52734 h 1.479492 v 9.68994 h 2.416993 v 1.24511 h -6.298828 z m 514.176273,-196.93656 -5.83741,-3.73535 v 3.73535 z m 1.28906,-0.38818 v 1.86035 h -7.12647 v 1.56006 h -1.23047 v -1.56006 h -2.57812 v -1.47217 h 2.57812 v -4.93652 h 1.42823 z m -9.68994,-12.96042 v 2.41699 h 8.34228 l -0.52734,-2.62939 h 1.34765 l 0.52735,2.61474 v 1.4795 h -9.68994 v 2.41699 h -1.24512 v -6.29883 z M 523.59235,342.896 q -1.06202,-0.22705 -1.65528,-0.94483 -0.60058,-0.71777 -0.60058,-1.77246 0,-1.61865 1.11328,-2.50488 1.11328,-0.88623 3.16406,-0.88623 0.68848,0 1.4209,0.13916 0.7251,0.13183 1.50146,0.40283 v 1.42822 q -0.61523,-0.35888 -1.34765,-0.54199 -0.73242,-0.18311 -1.53076,-0.18311 -1.39161,0 -2.1167,0.54932 -0.73243,0.54932 -0.73243,1.59668 0,0.9668 0.68116,1.50879 0.67383,0.54932 1.88232,0.54932 h 1.27442 v 1.21582 h -1.33301 q -1.09131,0 -1.66992,0.43213 -0.57862,0.43945 -0.57862,1.25976 0,0.84229 0.60059,1.28906 0.59326,0.45411 1.70654,0.45411 0.60791,0 1.30371,-0.13184 0.6958,-0.13184 1.53076,-0.41016 v 1.31836 q -0.84228,0.23438 -1.5747,0.35156 -0.73975,0.11719 -1.3916,0.11719 -1.68457,0 -2.66602,-0.76904 -0.98145,-0.76172 -0.98145,-2.06543 0,-0.9082 0.52002,-1.53809 0.52002,-0.62255 1.4795,-0.86425 z m 13.76605,-4.65088 h -2.41699 v 8.34228 l 2.62939,-0.52734 v 1.34765 l -2.61475,0.52735 h -1.47949 v -9.68994 h -2.41699 V 337 h 6.29883 z m -27.27982,68.09179 h 5.16358 v 1.24512 h -6.94336 v -1.24512 q 0.84228,-0.87158 2.29248,-2.33642 1.45752,-1.47217 1.83105,-1.89697 0.71045,-0.79834 0.98877,-1.34766 0.28565,-0.55664 0.28565,-1.09131 0,-0.87158 -0.61524,-1.4209 -0.60791,-0.54931 -1.58935,-0.54931 -0.6958,0 -1.47217,0.2417 -0.76904,0.24169 -1.64795,0.73242 v -1.49414 q 0.89355,-0.35889 1.66992,-0.542 0.77637,-0.1831 1.4209,-0.1831 1.69922,0 2.70996,0.84961 1.01074,0.84961 1.01074,2.27051 0,0.67382 -0.25634,1.28173 -0.24903,0.60059 -0.91553,1.4209 -0.18311,0.2124 -1.16455,1.23047 -0.98145,1.01074 -2.76856,2.83447 z m -10.55807,0 h 2.41699 v -8.34228 l -2.62939,0.52734 v -1.34765 l 2.61474,-0.52735 h 1.47949 v 9.68994 h 2.417 v 1.24512 h -6.29883 z M 460.43457,289.67776 v -2.41699 h -8.34228 l 0.52734,2.6294 h -1.34766 l -0.52734,-2.61475 v -1.47949 h 9.68994 v -2.41699 h 1.24512 v 6.29882 z m 0,9.54001 v -2.41699 h -8.34228 l 0.52734,2.6294 h -1.34766 l -0.52734,-2.61475 v -1.47949 h 9.68994 v -2.41699 h 1.24512 v 6.29882 z m -41.62526,74.39712 q -0.84225,-0.77208 -2.03095,-0.33162 -1.17836,0.44 -2.70272,2.1029 -1.51942,1.65749 -1.86048,2.87498 -0.33071,1.21703 0.51153,1.98911 0.84765,0.77704 2.026,0.33703 1.18871,-0.44045 2.70812,-2.09795 1.52437,-1.66289 1.85508,-2.87993 0.34107,-1.21748 -0.50658,-1.99452 z m 0.79187,-0.86384 q 1.35515,1.24226 1.08293,2.96996 -0.26189,1.72725 -2.1327,3.76808 -1.86586,2.03542 -3.56883,2.45157 -1.69262,0.4157 -3.04777,-0.82656 -1.35515,-1.24226 -1.09326,-2.96951 0.27223,-1.72769 2.13809,-3.76312 1.87082,-2.04082 3.56343,-2.45653 1.70296,-0.41615 3.05811,0.82611 z m -15.8572,-1.1227 1.78167,1.63325 5.63718,-6.14947 -2.29458,-1.38804 0.91065,-0.99342 2.28379,1.37815 1.0906,0.99975 -6.54784,7.14288 1.78167,1.63325 -0.84137,0.91783 -4.64314,-4.25635 z m -29.39584,-86.36321 h 1.34766 q -0.26367,0.55664 -0.40283,1.12793 -0.13916,0.57129 -0.13916,1.1206 0,1.46485 0.98144,2.23389 0.98877,0.77637 2.99561,0.88623 -0.62988,-0.42481 -0.9668,-1.07666 -0.33691,-0.65186 -0.33691,-1.44287 0,-1.64063 0.98877,-2.6001 0.99609,-0.95215 2.71728,-0.95215 1.68457,0 2.70264,0.9961 1.01807,0.99609 1.01807,2.65136 0,1.89698 -1.45752,2.89307 -1.4502,1.00342 -4.21875,1.00342 -2.58545,0 -4.13086,-1.23047 -1.53809,-1.22315 -1.53809,-3.2959 0,-0.55664 0.10986,-1.12793 0.10987,-0.57129 0.32959,-1.18652 z m 4.63623,2.94433 q 0,0.9961 0.68116,1.57471 0.68115,0.58594 1.86767,0.58594 1.1792,0 1.86035,-0.58594 0.68848,-0.57861 0.68848,-1.57471 0,-0.99609 -0.68848,-1.58203 -0.68115,-0.57861 -1.86035,-0.57861 -1.18652,0 -1.86767,0.57861 -0.68116,0.58594 -0.68116,1.58203 z m 138.98292,-44.30078 q -1.05469,0 -1.6626,0.56397 -0.60059,0.56396 -0.60059,1.55273 0,0.98877 0.60059,1.55273 0.60791,0.56397 1.6626,0.56397 1.05468,0 1.66259,-0.56397 0.60791,-0.57128 0.60791,-1.55273 0,-0.98877 -0.60791,-1.55273 -0.60058,-0.56397 -1.66259,-0.56397 z m -1.4795,-0.62988 q -0.95215,-0.23438 -1.48681,-0.88623 -0.52735,-0.65186 -0.52735,-1.58936 0,-1.31103 0.93018,-2.07275 0.9375,-0.76172 2.56348,-0.76172 1.6333,0 2.56347,0.76172 0.93018,0.76172 0.93018,2.07275 0,0.9375 -0.53467,1.58936 -0.52734,0.65185 -1.47217,0.88623 1.06934,0.24902 1.6626,0.97412 0.60059,0.7251 0.60059,1.77246 0,1.58936 -0.97413,2.43897 -0.96679,0.8496 -2.77587,0.8496 -1.80909,0 -2.78321,-0.8496 -0.96679,-0.84961 -0.96679,-2.43897 0,-1.04736 0.60058,-1.77246 0.60059,-0.7251 1.66992,-0.97412 z m -0.54199,-2.33643 q 0,0.84961 0.52734,1.32569 0.53467,0.47607 1.49415,0.47607 0.95214,0 1.48681,-0.47607 0.54199,-0.47608 0.54199,-1.32569 0,-0.84961 -0.54199,-1.32568 -0.53467,-0.47608 -1.48681,-0.47608 -0.95948,0 -1.49415,0.47608 -0.52734,0.47607 -0.52734,1.32568 z m -99.65223,-33.19165 -5.40151,4.50135 -0.40325,-0.48389 -3.5477,-10.45796 1.1872,-0.98936 3.33389,9.83529 4.03425,-3.36195 z m 99.47791,-28.83423 q 0.9961,0 1.58204,-0.68115 0.57861,-0.68115 0.57861,-1.86767 0,-1.1792 -0.57861,-1.86768 -0.58594,-0.68115 -1.58204,-0.68115 -0.99609,0 -1.5747,0.68115 -0.58594,0.68848 -0.58594,1.86768 0,1.18652 0.58594,1.86767 0.57861,0.68115 1.5747,0.68115 z m -2.93701,4.63623 v -1.34765 q 0.55664,0.26367 1.12793,0.40283 0.56397,0.13916 1.12061,0.13916 1.46484,0 2.24121,-0.98877 0.76904,-0.98877 0.8789,-2.98828 -0.43212,0.63721 -1.08398,0.97412 -0.65185,0.34424 -1.43555,0.34424 -1.64795,0 -2.60009,-1.00342 -0.95948,-0.99609 -0.95948,-2.71728 0,-1.68457 0.9961,-2.70264 0.99609,-1.01807 2.65136,-1.01807 1.89698,0 2.90039,1.4502 1.00342,1.45752 1.00342,4.21875 0,2.59277 -1.23047,4.13086 -1.23046,1.54541 -3.30322,1.54541 -0.55664,0 -1.1206,-0.10987 -0.57129,-0.10986 -1.18653,-0.32959 z m 107.99575,26.88958 -4.46187,-3.71831 0.79711,-0.95651 3.42095,2.85086 1.71615,-2.05933 q -0.31791,-0.12191 -0.5983,-0.28885 -0.28508,-0.16129 -0.53265,-0.3676 -1.40664,-1.17223 -1.58574,-2.62765 -0.17909,-1.45542 0.91811,-2.77203 1.13003,-1.35601 2.60233,-1.40664 1.46761,-0.045 3.00366,1.23508 0.5289,0.44076 1.00528,0.9903 0.47075,0.54485 0.90587,1.21254 l -0.95185,1.1422 q -0.27663,-0.69771 -0.70425,-1.28288 -0.42762,-0.58517 -1.02966,-1.08689 -0.97339,-0.81118 -1.96837,-0.77275 -0.99497,0.0385 -1.72644,0.9162 -0.73147,0.87773 -0.58989,1.86333 0.1416,0.9856 1.115,1.79678 0.45575,0.3798 0.9959,0.65833 0.53453,0.27383 1.18534,0.4539 z m 29.30113,55.45515 5.8374,3.73535 v -3.73535 z m -1.28906,0.38818 v -1.86035 h 7.12646 v -1.56006 h 1.23047 v 1.56006 h 2.57812 v 1.47217 h -2.57812 v 4.93652 H 655.771 Z m -70.72754,15.10157 q -0.22705,1.06201 -0.94483,1.65527 -0.71777,0.60059 -1.77246,0.60059 -1.61865,0 -2.50488,-1.11328 -0.88623,-1.11329 -0.88623,-3.16407 0,-0.68847 0.13916,-1.4209 0.13183,-0.72509 0.40283,-1.50146 h 1.42822 q -0.35888,0.61523 -0.54199,1.34766 -0.18311,0.73242 -0.18311,1.53076 0,1.3916 0.54932,2.1167 0.54932,0.73242 1.59668,0.73242 0.9668,0 1.50879,-0.68115 0.54932,-0.67383 0.54932,-1.88233 v -1.27441 h 1.21582 v 1.33301 q 0,1.0913 0.43213,1.66992 0.43945,0.57861 1.25976,0.57861 0.84229,0 1.28906,-0.60059 0.45411,-0.59326 0.45411,-1.70654 0,-0.60791 -0.13184,-1.30371 -0.13184,-0.6958 -0.41016,-1.53076 h 1.31836 q 0.23438,0.84228 0.35156,1.57471 0.11719,0.73974 0.11719,1.3916 0,1.68457 -0.76904,2.66601 -0.76172,0.98145 -2.06543,0.98145 -0.9082,0 -1.53809,-0.52002 -0.62255,-0.52002 -0.86425,-1.47949 z m 37.29101,23.06689 h 5.16358 v 1.24512 h -6.94336 v -1.24512 q 0.84228,-0.87158 2.29248,-2.33642 1.45752,-1.47217 1.83105,-1.89698 0.71045,-0.79834 0.98877,-1.34765 0.28565,-0.55664 0.28565,-1.09131 0,-0.87158 -0.61524,-1.4209 -0.60791,-0.54932 -1.58935,-0.54932 -0.6958,0 -1.47217,0.2417 -0.76905,0.2417 -1.64795,0.73242 v -1.49414 q 0.89355,-0.35888 1.66992,-0.54199 0.77637,-0.1831 1.4209,-0.1831 1.69922,0 2.70996,0.84961 1.01074,0.8496 1.01074,2.2705 0,0.67383 -0.25635,1.28174 -0.24902,0.60059 -0.91552,1.4209 -0.18311,0.2124 -1.16455,1.23047 -0.98145,1.01074 -2.76856,2.83447 z m 186.20459,312.61133 v -2.41699 h -8.34228 l 0.52734,2.62939 h -1.34766 l -0.52734,-2.61474 v -1.4795 h 9.68994 v -2.41699 h 1.24512 v 6.29883 z M 31.582027,616.65869 q 0,-1.14258 -1.127929,-1.72119 -1.120606,-0.57129 -3.376465,-0.57129 -2.248535,0 -3.376465,0.57129 -1.120605,0.57861 -1.120605,1.72119 0,1.1499 1.120605,1.72119 1.12793,0.57862 3.376465,0.57862 2.255859,0 3.376465,-0.57862 1.127929,-0.57129 1.127929,-1.72119 z m 1.171875,0 q 0,1.83838 -1.457519,2.80518 -1.450195,0.97412 -4.21875,0.97412 -2.761231,0 -4.21875,-0.97412 -1.450195,-0.9668 -1.450195,-2.80518 0,-1.83838 1.450195,-2.8125 1.457519,-0.9668 4.21875,-0.9668 2.768555,0 4.21875,0.9668 1.457519,0.97412 1.457519,2.8125 z" />
    <path
       id="path3249"
       style="fill:none;stroke:#ff0000;stroke-width:1;stroke-linecap:butt;stroke-linejoin:miter;stroke-miterlimit:10;stroke-dasharray:none;stroke-opacity:1"
       d="M 244.66,235.83555 H 137.121 m 107.539,84.899 v -84.899 m -135.84,84.899 h 135.84 m -198.098,56.601 62.258,-56.601 m -62.258,175.464 v -118.863 m 67.918,181.121 -67.918,-62.258 m 220.739,62.258 H 114.48 m 220.739,-62.258 -67.918,62.258 m 67.918,-135.84 v 73.582 m -90.559,-73.582 h 90.559 m -90.559,56.598 v -56.598 m -107.539,56.598 H 244.66 m 537.129,-322.617 -19.101,15 h -46.696 l -19.101,-15 m -559.77,237.719 v 84.898 m 559.77,-322.617 -29.289,15 H 596 l -29.289,-15 m -299.41,237.719 h -130.18 m 559.77,-322.621004 19.101,-15 h 46.696 l 19.101,15 m -215.078,0 29.289,-15 h 71.602 l 29.289,15 m -130.18,84.902004 -20.731,15 h -50.675 l -20.735,-15 m -139.351,175.461 -67.918,62.258 m 207.269,-237.719 -26.742,15 h -65.371 l -26.742,-15 m -20.496,56.601 v 118.86 M 474.57,71.695546 l 20.735,-15 h 50.675 l 20.731,15 m -210.996,0 26.742,-15 h 65.371 l 26.742,15 m -118.855,84.902004 -19.895,15 h -48.625 l -19.894,-15 m 0,0 67.918,56.601 m -67.918,-141.503004 19.894,-15 h 48.625 l 19.895,15 m -241.235,0 34.387,-15 h 84.051 l 34.383,15 m -152.821,84.902004 -19.89,15 H 45.961 l -19.891,-15 m 20.492,56.601 67.918,-56.601 m -67.918,135.84 v -79.239 m 90.559,22.637 v 56.602 m 0,0 H 46.562 M 26.07,71.695546 l 19.891,-15 H 94.59 l 19.89,15 m 667.309,0 15,19.105 v 46.695004 l -15,19.102 m -755.719,0 V 71.695546 M 262.551,688.371 l 24.195,-15 h 59.149 l 24.195,15 m 0,0 19.101,-15 h 46.696 l 19.101,15 m 0,0 30.563,-15 h 74.715 l 30.562,15 m 0,0 18.934,-15 h 46.277 l 18.93,15 m 0,84.899 -18.93,15 h -46.277 l -18.934,-15 m 0,0 -30.562,15 h -74.715 l -30.563,-15 m 0,0 -19.101,15 h -46.696 l -19.101,-15 m 0,0 -24.195,15 h -59.149 l -24.195,-15 m -226.403,-84.899 17.832,-15 h 43.582 l 17.829,15 m 90.558,0 12.735,-15 h 31.128 l 12.739,15 m -147.16,0 20.375,-15 h 49.808 l 20.375,15 m -90.558,84.899 -17.829,15 H 53.98 l -17.832,-15 m 226.403,0 -12.739,15 h -31.128 l -12.735,-15 m 0,0 h -90.558 m 559.578,-84.899 15,19.102 v 46.695 l -15,19.102 m -638.821,0 v -84.899 m 768.207,-30.25 -26.742,15 h -65.375 l -26.742,-15 M 599.02,335.5 l 62.257,56.598 m 24.219,181.121 26.742,-15 h 65.375 l 26.742,15 M 661.277,392.098 v 118.863 m 24.219,147.16 -20.734,15 H 614.09 l -20.731,-15 m 0,0 -34.386,15 h -84.051 l -34.383,-15 m 152.82,-84.902 20.731,-15 h 50.672 l 20.734,15 m -24.219,-62.258 -67.918,62.258 m -152.82,84.902 -20.73,15 h -50.676 l -20.731,-15 m 0,0 -16.554,15 h -40.473 l -16.555,-15 m 73.582,-84.902 20.731,-15 h 50.676 l 20.73,15 m 0,0 -67.918,-62.258 m -97.801,62.258 16.555,-15 h 40.473 l 16.554,15 m 24.219,-62.258 v -73.582 m -97.801,220.742 -20.375,15 h -49.808 l -20.375,-15 m 0,0 -12.735,15 h -31.132 l -12.735,-15 m 0,0 -24.195,15 H 44.316 l -24.195,-15 m 164.141,-84.902 20.375,-15 h 49.808 l 20.375,15 m 97.801,-135.84 h 90.559 m -335.52,135.84 12.735,-15 h 31.132 l 12.735,15 M 463.18,437.379 v 56.601 m -443.059,79.239 24.195,-15 h 59.149 l 24.195,15 M 463.18,493.98 h 107.539 m 0,0 V 409.082 M 463.18,335.5 h 135.84 m -28.301,73.582 H 440.539 M 463.18,250.602 V 335.5 m -22.641,73.582 -67.918,-62.262 m 0,0 V 227.961 m 198.098,22.641 H 463.18 m -90.559,-22.641 67.918,-56.602 m 0,0 h 152.82 m 0,0 67.918,56.602 m 0,0 v 79.238 m -90.558,0 v -56.597 m 90.558,56.597 -20.375,15 h -49.808 l -20.375,-15 m 233.636,266.02 v 84.902 m -784.234,0 v -84.902" />
  </g>
</svg>
