<?xml version="1.0" encoding="UTF-8" standalone="no"?>
<!-- Created with Inkscape (http://www.inkscape.org/) -->

<svg
   version="1.1"
   id="svg5061"
   width="1132"
   height="1132"
   viewBox="0 0 1132 1132"
   sodipodi:docname="T.svg"
   inkscape:version="1.2.2 (732a01da63, 2022-12-09, custom)"
   xmlns:inkscape="http://www.inkscape.org/namespaces/inkscape"
   xmlns:sodipodi="http://sodipodi.sourceforge.net/DTD/sodipodi-0.dtd"
   xmlns="http://www.w3.org/2000/svg"
   xmlns:svg="http://www.w3.org/2000/svg">
  <defs
     id="defs5065" />
  <sodipodi:namedview
     id="namedview5063"
     pagecolor="#ffffff"
     bordercolor="#666666"
     borderopacity="1.0"
     inkscape:showpageshadow="2"
     inkscape:pageopacity="0.0"
     inkscape:pagecheckerboard="0"
     inkscape:deskcolor="#d1d1d1"
     showgrid="false"
     inkscape:zoom="0.93323103"
     inkscape:cx="565.7763"
     inkscape:cy="480.58839"
     inkscape:window-width="1920"
     inkscape:window-height="1009"
     inkscape:window-x="0"
     inkscape:window-y="0"
     inkscape:window-maximized="1"
     inkscape:current-layer="g5069">
    <inkscape:page
       x="0"
       y="0"
       id="page5067"
       width="1132"
       height="1132" />
  </sodipodi:namedview>
  <g
     id="g5069"
     inkscape:groupmode="layer"
     inkscape:label="Page 1"
     transform="matrix(1.3333333,0,0,1.3333333,0,2.83e-5)">
    <path
       id="path5973"
       style="font-size:15px;font-family:'DejaVu Sans';-inkscape-font-specification:DejaVuSans;fill:#0000ff"
       d="m 282.48779,629.79248 v -1.34766 q 0.55664,0.26368 1.12793,0.40284 0.57129,0.13916 1.12061,0.13916 1.46484,0 2.23388,-0.98145 0.77637,-0.98877 0.88624,-2.9956 -0.42481,0.62988 -1.07666,0.96679 -0.65186,0.33692 -1.44288,0.33692 -1.64062,0 -2.60009,-0.98877 -0.95215,-0.9961 -0.95215,-2.71729 0,-1.68457 0.99609,-2.70263 0.9961,-1.01807 2.65137,-1.01807 1.89697,0 2.89307,1.45752 1.00341,1.45019 1.00341,4.21875 0,2.58545 -1.23047,4.13086 -1.22314,1.53808 -3.29589,1.53808 -0.55664,0 -1.12793,-0.10986 -0.57129,-0.10986 -1.18653,-0.32959 z m 2.94434,-4.63623 q 0.99609,0 1.57471,-0.68115 0.58593,-0.68115 0.58593,-1.86768 0,-1.1792 -0.58593,-1.86035 -0.57862,-0.68848 -1.57471,-0.68848 -0.99609,0 -1.58203,0.68848 -0.57862,0.68115 -0.57862,1.86035 0,1.18653 0.57862,1.86768 0.58594,0.68115 1.58203,0.68115 z m 342.31738,-80.26221 v -1.34765 q 0.55664,0.26367 1.12793,0.40283 0.57129,0.13916 1.12061,0.13916 1.46484,0 2.23388,-0.98145 0.77637,-0.98877 0.88623,-2.9956 -0.4248,0.62988 -1.07666,0.96679 -0.65185,0.33692 -1.44287,0.33692 -1.64062,0 -2.60009,-0.98877 -0.95215,-0.99609 -0.95215,-2.71729 0,-1.68457 0.99609,-2.70263 0.99609,-1.01807 2.65137,-1.01807 1.89697,0 2.89306,1.45752 1.00342,1.4502 1.00342,4.21875 0,2.58545 -1.23047,4.13086 -1.22314,1.53809 -3.2959,1.53809 -0.55664,0 -1.12792,-0.10987 -0.57129,-0.10986 -1.18653,-0.32959 z m 2.94434,-4.63623 q 0.99609,0 1.5747,-0.68115 0.58594,-0.68115 0.58594,-1.86768 0,-1.17919 -0.58594,-1.86035 -0.57861,-0.68847 -1.5747,-0.68847 -0.9961,0 -1.58203,0.68847 -0.57862,0.68116 -0.57862,1.86035 0,1.18653 0.57862,1.86768 0.58593,0.68115 1.58203,0.68115 z m -307.4961,47.79444 q 0,1.05468 0.56397,1.66259 0.56396,0.60059 1.55273,0.60059 0.98877,0 1.55274,-0.60059 0.56396,-0.60791 0.56396,-1.66259 0,-1.05469 -0.56396,-1.6626 -0.57129,-0.60791 -1.55274,-0.60791 -0.98877,0 -1.55273,0.60791 -0.56397,0.60058 -0.56397,1.6626 z m -0.62988,1.47949 q -0.23437,0.95215 -0.88623,1.48681 -0.65185,0.52735 -1.58935,0.52735 -1.31104,0 -2.07276,-0.93018 -0.76172,-0.9375 -0.76172,-2.56347 0,-1.6333 0.76172,-2.56348 0.76172,-0.93018 2.07276,-0.93018 0.9375,0 1.58935,0.53467 0.65186,0.52735 0.88623,1.47217 0.24902,-1.06934 0.97412,-1.6626 0.7251,-0.60058 1.77246,-0.60058 1.58936,0 2.43897,0.97412 0.84961,0.96679 0.84961,2.77588 0,1.80908 -0.84961,2.7832 -0.84961,0.9668 -2.43897,0.9668 -1.04736,0 -1.77246,-0.60059 -0.7251,-0.60059 -0.97412,-1.66992 z m -2.33642,0.54199 q 0.8496,0 1.32568,-0.52734 0.47607,-0.53467 0.47607,-1.49414 0,-0.95215 -0.47607,-1.48682 -0.47608,-0.54199 -1.32568,-0.54199 -0.84961,0 -1.32569,0.54199 -0.47607,0.53467 -0.47607,1.48682 0,0.95947 0.47607,1.49414 0.47608,0.52734 1.32569,0.52734 z m 138.0288,34.75293 q -1.05468,0 -1.66259,0.56396 -0.60059,0.56397 -0.60059,1.55274 0,0.98877 0.60059,1.55273 0.60791,0.56397 1.66259,0.56397 1.05469,0 1.6626,-0.56397 0.60791,-0.57129 0.60791,-1.55273 0,-0.98877 -0.60791,-1.55274 -0.60058,-0.56396 -1.6626,-0.56396 z m -1.47949,-0.62988 q -0.95215,-0.23438 -1.48681,-0.88623 -0.52735,-0.65186 -0.52735,-1.58936 0,-1.31103 0.93018,-2.07275 0.9375,-0.76172 2.56347,-0.76172 1.6333,0 2.56348,0.76172 0.93018,0.76172 0.93018,2.07275 0,0.9375 -0.53467,1.58936 -0.52735,0.65185 -1.47217,0.88623 1.06934,0.24902 1.6626,0.97412 0.60058,0.7251 0.60058,1.77246 0,1.58935 -0.97412,2.43896 -0.96679,0.84961 -2.77588,0.84961 -1.80908,0 -2.7832,-0.84961 -0.9668,-0.84961 -0.9668,-2.43896 0,-1.04736 0.60059,-1.77246 0.60059,-0.7251 1.66992,-0.97412 z m -0.54199,-2.33643 q 0,0.84961 0.52734,1.32569 0.53467,0.47607 1.49414,0.47607 0.95215,0 1.48682,-0.47607 0.54199,-0.47608 0.54199,-1.32569 0,-0.84961 -0.54199,-1.32568 -0.53467,-0.47608 -1.48682,-0.47608 -0.95947,0 -1.49414,0.47608 -0.52734,0.47607 -0.52734,1.32568 z m 31.01758,-149.36426 v -7.03125 h 0.62988 l 10.30518,3.96973 v 1.54541 l -9.68995,-3.73535 v 5.25146 z M 597.0249,383.02344 v 7.03125 h -0.62988 l -10.30518,-3.96973 v -1.54541 l 9.68995,3.73535 v -5.25146 z m -174.67871,88.36133 q 0,-0.9961 -0.68115,-1.58204 -0.68115,-0.57861 -1.86768,-0.57861 -1.1792,0 -1.86767,0.57861 -0.68115,0.58594 -0.68115,1.58204 0,0.99609 0.68115,1.5747 0.68847,0.58594 1.86767,0.58594 1.18653,0 1.86768,-0.58594 0.68115,-0.57861 0.68115,-1.5747 z m 4.63623,2.93701 h -1.34765 q 0.26367,-0.55664 0.40283,-1.12793 0.13916,-0.56397 0.13916,-1.12061 0,-1.46484 -0.98877,-2.24121 -0.98877,-0.76904 -2.98828,-0.87891 0.6372,0.43213 0.97412,1.08399 0.34424,0.65185 0.34424,1.43555 0,1.64795 -1.00342,2.60009 -0.9961,0.95948 -2.71729,0.95948 -1.68457,0 -2.70263,-0.9961 -1.01807,-0.99609 -1.01807,-2.65136 0,-1.89698 1.4502,-2.9004 1.45751,-1.00341 4.21875,-1.00341 2.59277,0 4.13085,1.23047 1.54541,1.23046 1.54541,3.30322 0,0.55664 -0.10986,1.1206 -0.10986,0.57129 -0.32959,1.18653 z M 322.3335,384.13477 q 0,0.99609 0.68115,1.58203 0.68115,0.57861 1.86767,0.57861 1.1792,0 1.86768,-0.57861 0.68115,-0.58594 0.68115,-1.58203 0,-0.9961 -0.68115,-1.57471 -0.68848,-0.58594 -1.86768,-0.58594 -1.18652,0 -1.86767,0.58594 -0.68115,0.57861 -0.68115,1.57471 z m -4.63623,-2.93702 h 1.34765 q -0.26367,0.55664 -0.40283,1.12793 -0.13916,0.56397 -0.13916,1.12061 0,1.46484 0.98877,2.24121 0.98877,0.76904 2.98828,0.87891 -0.63721,-0.43213 -0.97412,-1.08399 -0.34424,-0.65185 -0.34424,-1.43555 0,-1.64794 1.00342,-2.60009 0.99609,-0.95948 2.71728,-0.95948 1.68457,0 2.70264,0.9961 1.01807,0.99609 1.01807,2.65137 0,1.89697 -1.4502,2.90039 -1.45752,1.00341 -4.21875,1.00341 -2.59277,0 -4.13086,-1.23046 -1.54541,-1.23047 -1.54541,-3.30323 0,-0.55664 0.10987,-1.1206 0.10986,-0.57129 0.32959,-1.18653 z M 487.25635,268.36963 v -5.80811 h 1.24511 v 4.45313 h 2.68067 q -0.10986,-0.32227 -0.16113,-0.64453 -0.0586,-0.32227 -0.0586,-0.64453 0,-1.83106 1.00342,-2.90039 1.00342,-1.06934 2.71729,-1.06934 1.76513,0 2.74658,1.09863 0.97412,1.09863 0.97412,3.09815 0,0.68847 -0.11719,1.40625 -0.11719,0.71045 -0.35156,1.47216 h -1.48682 q 0.35889,-0.65918 0.53467,-1.3623 0.17578,-0.70313 0.17578,-1.48682 0,-1.26709 -0.6665,-2.00683 -0.66651,-0.73975 -1.80908,-0.73975 -1.14258,0 -1.80909,0.73975 -0.6665,0.73974 -0.6665,2.00683 0,0.59327 0.13184,1.18653 0.13183,0.58593 0.41015,1.20117 z m 52.96777,-56.80469 h 5.80811 v 1.24512 h -4.45313 v 2.68066 q 0.32227,-0.10986 0.64453,-0.16113 0.32227,-0.0586 0.64453,-0.0586 1.83106,0 2.90039,1.00341 1.06934,1.00342 1.06934,2.71729 0,1.76514 -1.09863,2.74658 -1.09864,0.97412 -3.09815,0.97412 -0.68847,0 -1.40625,-0.11719 -0.71045,-0.11718 -1.47216,-0.35156 v -1.48681 q 0.65917,0.35888 1.3623,0.53466 0.70312,0.17579 1.48682,0.17579 1.26709,0 2.00683,-0.66651 0.73975,-0.6665 0.73975,-1.80908 0,-1.14258 -0.73975,-1.80908 -0.73974,-0.66651 -2.00683,-0.66651 -0.59327,0 -1.18653,0.13184 -0.58593,0.13184 -1.20117,0.41016 z m -114.28906,56.56885 -5.8374,-3.73535 v 3.73535 z m 1.28906,-0.38818 v 1.86035 h -7.12646 v 1.56006 h -1.23047 v -1.56006 h -2.57813 v -1.47217 h 2.57813 v -4.93652 h 1.42822 z m -53.19971,-54.89161 -3.73535,5.83741 h 3.73535 z m -0.38818,-1.28906 h 1.86035 v 7.12647 h 1.56006 v 1.23046 h -1.56006 V 222.5 h -1.47217 v -2.57813 h -4.93652 v -1.42822 z M 117.29736,137.36572 q 1.06202,0.22705 1.65528,0.94483 0.60058,0.71777 0.60058,1.77246 0,1.61865 -1.11328,2.50488 -1.11328,0.88623 -3.16406,0.88623 -0.68848,0 -1.4209,-0.13916 -0.7251,-0.13184 -1.50146,-0.40283 v -1.42822 q 0.61523,0.35888 1.34765,0.54199 0.73242,0.1831 1.53076,0.1831 1.39161,0 2.1167,-0.54931 0.73242,-0.54932 0.73242,-1.59668 0,-0.9668 -0.68115,-1.50879 -0.67383,-0.54932 -1.88232,-0.54932 h -1.27442 v -1.21582 h 1.33301 q 1.09131,0 1.66992,-0.43213 0.57862,-0.43945 0.57862,-1.25976 0,-0.84229 -0.60059,-1.28907 -0.59326,-0.4541 -1.70654,-0.4541 -0.60791,0 -1.30371,0.13184 -0.6958,0.13184 -1.53076,0.41016 v -1.31836 q 0.84228,-0.23438 1.5747,-0.35157 0.73975,-0.11718 1.3916,-0.11718 1.68457,0 2.66602,0.76904 0.98145,0.76172 0.98145,2.06543 0,0.9082 -0.52002,1.53808 -0.52002,0.62256 -1.4795,0.86426 z m 44.52832,49.50196 q -0.22705,1.06201 -0.94482,1.65527 -0.71777,0.60059 -1.77246,0.60059 -1.61865,0 -2.50488,-1.11329 -0.88623,-1.11328 -0.88623,-3.16406 0,-0.68848 0.13916,-1.4209 0.13183,-0.72509 0.40283,-1.50146 h 1.42822 q -0.35889,0.61523 -0.54199,1.34765 -0.18311,0.73243 -0.18311,1.53077 0,1.3916 0.54932,2.1167 0.54932,0.73242 1.59668,0.73242 0.9668,0 1.50879,-0.68116 0.54931,-0.67382 0.54931,-1.88232 v -1.27441 h 1.21582 v 1.333 q 0,1.09131 0.43213,1.66993 0.43946,0.57861 1.25977,0.57861 0.84228,0 1.28906,-0.60059 0.4541,-0.59326 0.4541,-1.70654 0,-0.60791 -0.13183,-1.30371 -0.13184,-0.6958 -0.41016,-1.53076 h 1.31836 q 0.23437,0.84228 0.35156,1.5747 0.11719,0.73975 0.11719,1.39161 0,1.68457 -0.76904,2.66601 -0.76172,0.98145 -2.06543,0.98145 -0.90821,0 -1.53809,-0.52002 -0.62256,-0.52002 -0.86426,-1.47949 z M 115.40283,62.604492 h -5.16357 v -1.245117 h 6.94336 v 1.245117 q -0.84229,0.871582 -2.29248,2.336426 -1.45752,1.472168 -1.83106,1.896973 -0.71045,0.798339 -0.98877,1.347656 -0.28564,0.55664 -0.28564,1.091308 0,0.871582 0.61523,1.420899 0.60791,0.549316 1.58936,0.549316 0.6958,0 1.47217,-0.241699 0.76904,-0.241699 1.64795,-0.732422 v 1.494141 q -0.89356,0.358887 -1.66993,0.541992 -0.77636,0.183105 -1.4209,0.183105 -1.69921,0 -2.70996,-0.849609 -1.01074,-0.849609 -1.01074,-2.270508 0,-0.673828 0.25635,-1.281738 0.24902,-0.600586 0.91553,-1.420898 0.1831,-0.212403 1.16455,-1.230469 0.98144,-1.010742 2.76855,-2.834473 z M 757.30566,184.97314 v -5.16357 h 1.24512 v 6.94336 h -1.24512 q -0.87158,-0.84229 -2.33642,-2.29248 -1.47217,-1.45752 -1.89697,-1.83106 -0.79834,-0.71044 -1.34766,-0.98877 -0.55664,-0.28564 -1.09131,-0.28564 -0.87158,0 -1.4209,0.61523 -0.54931,0.60791 -0.54931,1.58936 0,0.6958 0.2417,1.47217 0.24169,0.76904 0.73242,1.64795 h -1.49414 q -0.35889,-0.89356 -0.542,-1.66992 -0.1831,-0.77637 -0.1831,-1.4209 0,-1.69922 0.84961,-2.70996 0.84961,-1.01075 2.27051,-1.01075 0.67382,0 1.28173,0.25635 0.60059,0.24903 1.4209,0.91553 0.2124,0.1831 1.23047,1.16455 1.01074,0.98145 2.83447,2.76855 z M 412.04395,103.70605 v -2.417 h -8.34229 l 0.52734,2.6294 h -1.34765 L 402.354,101.3037 v -1.479489 h 9.68995 v -2.416992 h 1.24511 v 6.298831 z m 46.59179,43.80079 h -2.41699 v 8.34228 l 2.62939,-0.52734 v 1.34765 l -2.61474,0.52735 h -1.47949 v -9.68994 h -2.417 v -1.24512 h 6.29883 z M 283.62256,71.320312 q 1.14258,0 1.72119,-1.127929 0.57129,-1.120606 0.57129,-3.376465 0,-2.248535 -0.57129,-3.376465 -0.57861,-1.120605 -1.72119,-1.120605 -1.1499,0 -1.72119,1.120605 -0.57862,1.12793 -0.57862,3.376465 0,2.255859 0.57862,3.376465 0.57129,1.127929 1.72119,1.127929 z m 0,1.171875 q -1.83838,0 -2.80518,-1.457519 -0.97412,-1.450195 -0.97412,-4.21875 0,-2.761231 0.97412,-4.21875 0.9668,-1.450195 2.80518,-1.450195 1.83838,0 2.8125,1.450195 0.9668,1.457519 0.9668,4.21875 0,2.768555 -0.9668,4.21875 -0.97412,1.457519 -2.8125,1.457519 z m 345.26172,83.730473 q 1.14258,0 1.72119,-1.12793 0.57129,-1.12061 0.57129,-3.37647 0,-2.24853 -0.57129,-3.37646 -0.57861,-1.12061 -1.72119,-1.12061 -1.14991,0 -1.72119,1.12061 -0.57862,1.12793 -0.57862,3.37646 0,2.25586 0.57862,3.37647 0.57128,1.12793 1.72119,1.12793 z m 0,1.17187 q -1.83838,0 -2.80518,-1.45752 -0.97412,-1.45019 -0.97412,-4.21875 0,-2.76123 0.97412,-4.21875 0.9668,-1.45019 2.80518,-1.45019 1.83838,0 2.8125,1.45019 0.96679,1.45752 0.96679,4.21875 0,2.76856 -0.96679,4.21875 -0.97412,1.45752 -2.8125,1.45752 z" />
    <path
       id="path5297"
       style="fill:none;stroke:#00ff00;stroke-width:1;stroke-linecap:butt;stroke-linejoin:miter;stroke-miterlimit:10;stroke-dasharray:8, 2, 2, 2;stroke-dashoffset:0;stroke-opacity:1"
       d="M 186.172,325.59 H 101.27 m 398.421,-16.692 h -84.902" />
    <path
       id="path6030"
       style="font-size:15px;font-family:'DejaVu Sans';-inkscape-font-specification:DejaVuSans"
       d="m 145.63916,253.12646 h -5.80811 v -1.24511 h 4.45313 v -2.68067 q -0.32227,0.10987 -0.64453,0.16114 -0.32227,0.0586 -0.64453,0.0586 -1.83106,0 -2.90039,-1.00342 -1.06934,-1.00342 -1.06934,-2.71728 0,-1.76514 1.09863,-2.74659 1.09864,-0.97412 3.09815,-0.97412 0.68847,0 1.40625,0.11719 0.71045,0.11719 1.47217,0.35156 v 1.48682 q -0.65918,-0.35889 -1.36231,-0.53467 -0.70312,-0.17578 -1.48682,-0.17578 -1.26709,0 -2.00683,0.6665 -0.73975,0.66651 -0.73975,1.80909 0,1.14258 0.73975,1.80908 0.73974,0.6665 2.00683,0.6665 0.59327,0 1.18653,-0.13183 0.58594,-0.13184 1.20117,-0.41016 z m -33.22363,31.69874 -5.8374,-3.73536 v 3.73536 z m 1.28906,-0.38819 v 1.86035 h -7.12646 v 1.56006 h -1.23047 v -1.56006 h -2.57813 v -1.47216 h 2.57813 v -4.93653 h 1.42822 z m 65.07129,-3.78515 q 0.22705,-1.06202 0.94482,-1.65528 0.71778,-0.60058 1.77246,-0.60058 1.61866,0 2.50489,1.11328 0.88623,1.11328 0.88623,3.16406 0,0.68848 -0.13916,1.4209 -0.13184,0.7251 -0.40283,1.50146 h -1.42823 q 0.35889,-0.61523 0.54199,-1.34765 0.18311,-0.73243 0.18311,-1.53076 0,-1.39161 -0.54932,-2.1167 -0.54931,-0.73243 -1.59668,-0.73243 -0.96679,0 -1.50879,0.68116 -0.54931,0.67382 -0.54931,1.88232 v 1.27441 h -1.21582 v -1.333 q 0,-1.09131 -0.43213,-1.66993 -0.43945,-0.57861 -1.25977,-0.57861 -0.84228,0 -1.28906,0.60059 -0.4541,0.59326 -0.4541,1.70654 0,0.60791 0.13184,1.30371 0.13183,0.6958 0.41015,1.53076 h -1.31836 q -0.23437,-0.84228 -0.35156,-1.5747 -0.11719,-0.73975 -0.11719,-1.39161 0,-1.68457 0.76905,-2.66601 0.76171,-0.98145 2.06543,-0.98145 0.9082,0 1.53808,0.52002 0.62256,0.52002 0.86426,1.4795 z m -74.76123,205.65625 v 5.16357 h -1.24512 v -6.94336 h 1.24512 q 0.87158,0.84229 2.33642,2.29248 1.47217,1.45752 1.89698,1.83106 0.79834,0.71044 1.34765,0.98876 0.55664,0.28565 1.09131,0.28565 0.87158,0 1.4209,-0.61523 0.54932,-0.60792 0.54932,-1.58936 0,-0.6958 -0.2417,-1.47217 -0.2417,-0.76904 -0.73242,-1.64795 h 1.49414 q 0.35888,0.89356 0.54199,1.66992 0.1831,0.77637 0.1831,1.4209 0,1.69922 -0.84961,2.70996 -0.8496,1.01075 -2.2705,1.01075 -0.67383,0 -1.28174,-0.25635 -0.60059,-0.24903 -1.4209,-0.91553 -0.2124,-0.1831 -1.23047,-1.16455 -1.01074,-0.98145 -2.83447,-2.76855 z m 38.31055,159.15771 h 2.41699 v -8.34228 l -2.6294,0.52734 v -1.34766 l 2.61475,-0.52734 h 1.47949 v 9.68994 h 2.41699 v 1.24512 h -6.29882 z m 32.38574,-159.5542 q 0,1.14258 1.12793,1.72119 1.1206,0.57129 3.37646,0.57129 2.24854,0 3.37647,-0.57129 1.1206,-0.57861 1.1206,-1.72119 0,-1.1499 -1.1206,-1.72119 -1.12793,-0.57861 -3.37647,-0.57861 -2.25586,0 -3.37646,0.57861 -1.12793,0.57129 -1.12793,1.72119 z m -1.17188,0 q 0,-1.83838 1.45752,-2.80517 1.4502,-0.97413 4.21875,-0.97413 2.76123,0 4.21875,0.97413 1.4502,0.96679 1.4502,2.80517 0,1.83838 -1.4502,2.8125 -1.45752,0.9668 -4.21875,0.9668 -2.76855,0 -4.21875,-0.9668 -1.45752,-0.97412 -1.45752,-2.8125 z M 87.626465,100.39209 v 5.80811 h -1.245117 v -4.45313 h -2.680664 q 0.109863,0.32227 0.161132,0.64453 0.05859,0.32227 0.05859,0.64453 0,1.83106 -1.003418,2.90039 -1.003418,1.06934 -2.717285,1.06934 -1.765137,0 -2.746582,-1.09863 -0.974121,-1.09864 -0.974121,-3.09815 0,-0.68847 0.117187,-1.40625 0.117188,-0.71045 0.351563,-1.472166 h 1.486816 q -0.358886,0.659176 -0.534668,1.362306 -0.175781,0.70312 -0.175781,1.48682 0,1.26709 0.666504,2.00683 0.666504,0.73975 1.809082,0.73975 1.142578,0 1.809082,-0.73975 0.666504,-0.73974 0.666504,-2.00683 0,-0.59327 -0.131836,-1.18653 -0.131836,-0.58594 -0.410156,-1.20117 z M 719.28613,212.854 l -3.73535,5.83741 h 3.73535 z m -0.38818,-1.28906 h 1.86035 v 7.12647 h 1.56006 v 1.23046 H 720.7583 V 222.5 h -1.47217 v -2.57813 h -4.93652 v -1.42822 z M 199.36768,216.604 q 1.06201,0.22705 1.65527,0.94483 0.60059,0.71777 0.60059,1.77246 0,1.61865 -1.11329,2.50488 -1.11328,0.88623 -3.16406,0.88623 -0.68848,0 -1.4209,-0.13916 -0.72509,-0.13183 -1.50146,-0.40283 v -1.42822 q 0.61523,0.35888 1.34765,0.54199 0.73243,0.18311 1.53077,0.18311 1.3916,0 2.1167,-0.54932 0.73242,-0.54932 0.73242,-1.59668 0,-0.9668 -0.68116,-1.50879 -0.67382,-0.54932 -1.88232,-0.54932 h -1.27441 v -1.21582 h 1.333 q 1.09131,0 1.66993,-0.43213 0.57861,-0.43945 0.57861,-1.25976 0,-0.84229 -0.60059,-1.28906 -0.59326,-0.45411 -1.70654,-0.45411 -0.60791,0 -1.30371,0.13184 -0.6958,0.13184 -1.53076,0.41016 v -1.31836 q 0.84228,-0.23438 1.5747,-0.35157 0.73975,-0.11718 1.39161,-0.11718 1.68457,0 2.66601,0.76904 0.98145,0.76172 0.98145,2.06543 0,0.9082 -0.52002,1.53809 -0.52002,0.62255 -1.47949,0.86425 z m 473.03955,169.29883 v -5.16357 h 1.24511 v 6.94336 h -1.24511 q -0.87159,-0.84229 -2.33643,-2.29248 -1.47217,-1.45752 -1.89697,-1.83106 -0.79834,-0.71045 -1.34766,-0.98877 -0.55664,-0.28564 -1.09131,-0.28564 -0.87158,0 -1.4209,0.61523 -0.54931,0.60791 -0.54931,1.58936 0,0.6958 0.2417,1.47217 0.2417,0.76904 0.73242,1.64794 h -1.49414 q -0.35889,-0.89355 -0.54199,-1.66992 -0.18311,-0.77636 -0.18311,-1.4209 0,-1.69921 0.84961,-2.70996 0.84961,-1.01074 2.27051,-1.01074 0.67383,0 1.28174,0.25635 0.60058,0.24902 1.4209,0.91553 0.2124,0.1831 1.23046,1.16455 1.01075,0.98144 2.83448,2.76855 z M 242.07324,587.67676 v 2.41699 h 8.34229 l -0.52735,-2.62939 h 1.34766 l 0.52734,2.61474 v 1.47949 h -9.68994 v 2.417 h -1.24512 v -6.29883 z m 8.71582,-201.37744 q 0,-1.14258 -1.12793,-1.7212 -1.1206,-0.57128 -3.37646,-0.57128 -2.24854,0 -3.37647,0.57128 -1.1206,0.57862 -1.1206,1.7212 0,1.1499 1.1206,1.72119 1.12793,0.57861 3.37647,0.57861 2.25586,0 3.37646,-0.57861 1.12793,-0.57129 1.12793,-1.72119 z m 1.17188,0 q 0,1.83838 -1.45752,2.80517 -1.4502,0.97412 -4.21875,0.97412 -2.76123,0 -4.21875,-0.97412 -1.4502,-0.96679 -1.4502,-2.80517 0,-1.83838 1.4502,-2.8125 1.45752,-0.9668 4.21875,-0.9668 2.76855,0 4.21875,0.9668 1.45752,0.97412 1.45752,2.8125 z" />
    <path
       id="path5309"
       style="fill:none;stroke:#ff0000;stroke-width:1;stroke-linecap:butt;stroke-linejoin:miter;stroke-miterlimit:10;stroke-dasharray:none;stroke-opacity:1"
       d="m 101.27,240.691 19.101,-15 h 46.695 l 19.106,15 M 101.27,325.59 v -84.899 m 84.902,0 15,19.102 v 46.695 l -15,19.102 M 101.27,648.211 V 325.59 m 84.902,322.621 H 101.27 M 186.172,325.59 V 648.211 M 75.191,144.762 V 59.859 M 760.051,224 740.949,239 h -46.695 l -19.102,-15 m -435.824,0 H 154.43 m 520.722,0 15,72.59 v 177.441 l -15,72.59 m -435.824,84.899 -15,-19.102 v -46.695 l 15,-19.102 m 0,0 -15,-72.59 V 296.59 l 15,-72.59 m 90.563,407.52 h -90.563 m 435.824,-84.899 -20.375,15 h -49.808 l -20.379,-15 m -254.699,0 15,19.102 v 46.695 l -15,19.102 m 169.8,0 H 414.789 M 499.691,308.898 V 631.52 m 84.899,-84.899 -15,-72.59 V 296.59 l 15,-72.59 M 414.789,631.52 V 308.898 M 329.891,224 l 15,72.59 v 177.441 l -15,72.59 M 499.691,224 v 84.898 M 584.59,224 565.488,239 h -46.695 l -19.102,-15 m -84.902,84.898 V 224 m 0,0 -19.101,15 H 348.992 L 329.891,224 M 154.43,144.762 H 75.191 M 154.43,224 l -15,-17.828 V 162.59 l 15,-17.828 M 75.191,59.859 h 79.239 m 605.621,84.903 15,17.828 v 43.582 l -15,17.828 M 414.789,59.859 v 84.903 m 0,0 19.106,-15 h 46.695 l 19.101,15 M 154.43,59.859 h 260.359 m 84.902,84.903 58.582,-15 h 143.2 l 58.578,15" />
    <path
       id="path5311"
       style="fill:none;stroke:#800000;stroke-width:1;stroke-linecap:butt;stroke-linejoin:miter;stroke-miterlimit:10;stroke-dasharray:8,8;stroke-dashoffset:0;stroke-opacity:1"
       d="m 101.27,240.691 h 84.902 m 0,0 V 325.59 M 760.051,224 h -84.899 m 0,0 V 546.621 M 239.328,631.52 v -84.899 m 0,0 V 224 M 675.152,546.621 H 584.59 m -254.699,0 v 84.899 m 0,-84.899 h -90.563 m 345.262,0 V 224 m -254.699,0 V 546.621 M 584.59,224 h -84.899 m -84.902,0 h -84.898 m 169.8,0 h -84.902 m -260.359,0 v -79.238 m 0,0 V 59.859 m 605.621,84.903 V 224 M 154.43,144.762 h 260.359 m 0,0 h 84.902 m 0,0 h 260.36 M 414.789,224 V 144.762 M 499.691,224 v -79.238" />
  </g>
</svg>
