<?xml version="1.0" encoding="UTF-8" standalone="no"?>
<!-- Created with Inkscape (http://www.inkscape.org/) -->

<svg
   version="1.1"
   id="svg6146"
   width="1132"
   height="1132"
   viewBox="0 0 1132 1132"
   sodipodi:docname="U.svg"
   inkscape:version="1.2.2 (732a01da63, 2022-12-09, custom)"
   xmlns:inkscape="http://www.inkscape.org/namespaces/inkscape"
   xmlns:sodipodi="http://sodipodi.sourceforge.net/DTD/sodipodi-0.dtd"
   xmlns="http://www.w3.org/2000/svg"
   xmlns:svg="http://www.w3.org/2000/svg">
  <defs
     id="defs6150" />
  <sodipodi:namedview
     id="namedview6148"
     pagecolor="#ffffff"
     bordercolor="#666666"
     borderopacity="1.0"
     inkscape:showpageshadow="2"
     inkscape:pageopacity="0.0"
     inkscape:pagecheckerboard="0"
     inkscape:deskcolor="#d1d1d1"
     showgrid="false"
     showguides="true"
     inkscape:zoom="0.93323103"
     inkscape:cx="303.24752"
     inkscape:cy="643.46338"
     inkscape:window-width="1920"
     inkscape:window-height="1009"
     inkscape:window-x="0"
     inkscape:window-y="0"
     inkscape:window-maximized="1"
     inkscape:current-layer="g6154">
    <inkscape:page
       x="0"
       y="0"
       id="page6152"
       width="1132"
       height="1132" />
  </sodipodi:namedview>
  <g
     id="g6154"
     inkscape:groupmode="layer"
     inkscape:label="Page 1"
     transform="matrix(1.3333333,0,0,1.3333333,0,2.83e-5)">
    <path
       id="path7246"
       style="font-size:15px;font-family:'DejaVu Sans';-inkscape-font-specification:DejaVuSans;fill:#0000ff"
       d="m 684.73291,434.67337 v -5.80811 h 1.24512 v 4.45313 h 2.68066 q -0.10986,-0.32227 -0.16113,-0.64453 -0.0586,-0.32227 -0.0586,-0.64453 0,-1.83106 1.00342,-2.90039 1.00342,-1.06934 2.71729,-1.06934 1.76513,0 2.74658,1.09863 0.97412,1.09864 0.97412,3.09815 0,0.68847 -0.11719,1.40625 -0.11718,0.71045 -0.35156,1.47217 h -1.48682 q 0.35889,-0.65918 0.53467,-1.36231 0.17578,-0.70312 0.17578,-1.48681 0,-1.26709 -0.6665,-2.00684 -0.6665,-0.73975 -1.80908,-0.73975 -1.14258,0 -1.80908,0.73975 -0.66651,0.73975 -0.66651,2.00684 0,0.59326 0.13184,1.18652 0.13183,0.58594 0.41015,1.20117 z m 9.68994,9.29831 v -2.41699 h -8.34228 l 0.52734,2.62939 h -1.34766 l -0.52734,-2.61474 v -1.4795 h 9.68994 v -2.41699 h 1.24512 v 6.29883 z m -335.73779,-3.10989 v 5.8081 h -1.24512 v -4.45312 h -2.68066 q 0.10986,0.32226 0.16113,0.64453 0.0586,0.32226 0.0586,0.64453 0,1.83105 -1.00341,2.90039 -1.00342,1.06934 -2.71729,1.06934 -1.76514,0 -2.74658,-1.09864 -0.97412,-1.09863 -0.97412,-3.09814 0,-0.68848 0.11719,-1.40625 0.11718,-0.71045 0.35156,-1.47217 h 1.48681 q -0.35888,0.65918 -0.53466,1.3623 -0.17579,0.70313 -0.17579,1.48682 0,1.26709 0.66651,2.00684 0.6665,0.73974 1.80908,0.73974 1.14258,0 1.80908,-0.73974 0.66651,-0.73975 0.66651,-2.00684 0,-0.59326 -0.13184,-1.18652 -0.13184,-0.58594 -0.41016,-1.20117 z m -9.68994,-9.29831 v 2.41699 h 8.34228 l -0.52734,-2.6294 h 1.34765 l 0.52735,2.61475 v 1.47949 h -9.68994 v 2.41699 H 347.75 v -6.29882 z m 337.02685,-207.29586 5.8374,3.73536 v -3.73536 z m -1.28906,0.38819 v -1.86035 h 7.12646 v -1.56006 h 1.23047 v 1.56006 h 2.57813 v 1.47216 h -2.57813 v 4.93653 h -1.42822 z m 9.68994,12.9604 v -2.41699 h -8.34228 l 0.52734,2.62939 h -1.34766 l -0.52734,-2.61474 v -1.4795 h 9.68994 v -2.41699 h 1.24512 v 6.29883 z m -309.80368,49.98682 3.73535,-5.83741 h -3.73535 z m 0.38818,1.28906 H 383.147 v -7.12647 h -1.56006 v -1.23046 h 1.56006 v -2.57813 h 1.47217 v 2.57813 h 4.93652 v 1.42822 z m 12.96042,-9.68994 h -2.41699 v 8.34228 l 2.6294,-0.52734 v 1.34766 l -2.61475,0.52734 h -1.47949 v -9.68994 h -2.41699 v -1.24512 h 6.29882 z m 221.69776,-40.51714 q -0.22705,1.06201 -0.94483,1.65528 -0.71777,0.60058 -1.77246,0.60058 -1.61865,0 -2.50488,-1.11328 -0.88623,-1.11328 -0.88623,-3.16406 0,-0.68848 0.13916,-1.4209 0.13183,-0.7251 0.40283,-1.50146 h 1.42822 q -0.35888,0.61523 -0.54199,1.34765 -0.1831,0.73242 -0.1831,1.53076 0,1.3916 0.54931,2.1167 0.54932,0.73242 1.59668,0.73242 0.9668,0 1.50879,-0.68115 0.54932,-0.67383 0.54932,-1.88232 v -1.27442 h 1.21582 v 1.33301 q 0,1.09131 0.43213,1.66992 0.43945,0.57862 1.25976,0.57862 0.84229,0 1.28906,-0.60059 0.45411,-0.59326 0.45411,-1.70654 0,-0.60791 -0.13184,-1.30371 -0.13184,-0.6958 -0.41016,-1.53076 h 1.31836 q 0.23438,0.84228 0.35157,1.5747 0.11718,0.73975 0.11718,1.3916 0,1.68457 -0.76904,2.66602 -0.76172,0.98144 -2.06543,0.98144 -0.9082,0 -1.53808,-0.52001 -0.62256,-0.52002 -0.86426,-1.4795 z m -4.65088,-13.76606 v 2.41699 h 8.34228 l -0.52734,-2.6294 h 1.34766 l 0.52734,2.61475 v 1.47949 h -9.68994 v 2.41699 h -1.24512 v -6.29882 z m -55.53168,58.93408 q -1.06201,-0.22705 -1.65527,-0.94483 -0.60059,-0.71777 -0.60059,-1.77246 0,-1.61865 1.11328,-2.50488 1.11328,-0.88623 3.16407,-0.88623 0.68847,0 1.42089,0.13916 0.7251,0.13183 1.50147,0.40283 v 1.42822 q -0.61524,-0.35888 -1.34766,-0.54199 -0.73242,-0.1831 -1.53076,-0.1831 -1.3916,0 -2.1167,0.54931 -0.73242,0.54932 -0.73242,1.59668 0,0.9668 0.68115,1.50879 0.67383,0.54932 1.88233,0.54932 h 1.27441 v 1.21582 h -1.33301 q -1.09131,0 -1.66992,0.43213 -0.57861,0.43945 -0.57861,1.25976 0,0.84229 0.60058,1.28906 0.59327,0.45411 1.70655,0.45411 0.60791,0 1.30371,-0.13184 0.6958,-0.13184 1.53076,-0.41016 v 1.31836 q -0.84229,0.23438 -1.57471,0.35157 -0.73974,0.11718 -1.3916,0.11718 -1.68457,0 -2.66602,-0.76904 -0.98144,-0.76172 -0.98144,-2.06543 0,-0.9082 0.52002,-1.53808 0.52002,-0.62256 1.47949,-0.86426 z m 13.76605,-4.65088 h -2.41699 v 8.34228 l 2.6294,-0.52734 v 1.34766 l -2.61475,0.52734 h -1.47949 v -9.68994 h -2.41699 v -1.24512 h 6.29882 z m 77.02008,-90.5586 h -5.16357 v -1.24511 h 6.94336 v 1.24511 q -0.84229,0.87159 -2.29248,2.33643 -1.45752,1.47217 -1.83106,1.89697 -0.71045,0.79834 -0.98877,1.34766 -0.28564,0.55664 -0.28564,1.09131 0,0.87158 0.61523,1.4209 0.60791,0.54931 1.58936,0.54931 0.6958,0 1.47217,-0.2417 0.76904,-0.2417 1.64795,-0.73242 v 1.49414 q -0.89356,0.35889 -1.66992,0.54199 -0.77637,0.18311 -1.4209,0.18311 -1.69922,0 -2.70996,-0.84961 -1.01075,-0.84961 -1.01075,-2.27051 0,-0.67383 0.25635,-1.28174 0.24902,-0.60058 0.91553,-1.42089 0.1831,-0.21241 1.16455,-1.23047 0.98144,-1.01074 2.76855,-2.83448 z m 10.55805,0 h -2.41699 v 8.34229 l 2.62939,-0.52734 v 1.34765 l -2.61475,0.52735 h -1.47949 v -9.68995 h -2.41699 v -1.24511 h 6.29883 z m -186.01901,90.5586 h -5.16358 v -1.24512 h 6.94336 v 1.24512 q -0.84228,0.87158 -2.29248,2.33642 -1.45752,1.47217 -1.83105,1.89698 -0.71045,0.79834 -0.98877,1.34765 -0.28565,0.55664 -0.28565,1.09131 0,0.87158 0.61524,1.4209 0.60791,0.54932 1.58935,0.54932 0.6958,0 1.47217,-0.2417 0.76904,-0.2417 1.64795,-0.73242 v 1.49414 q -0.89356,0.35888 -1.66992,0.54199 -0.77637,0.1831 -1.4209,0.1831 -1.69922,0 -2.70996,-0.84961 -1.01074,-0.84961 -1.01074,-2.2705 0,-0.67383 0.25634,-1.28174 0.24903,-0.60059 0.91553,-1.4209 0.18311,-0.2124 1.16455,-1.23047 0.98145,-1.01074 2.76856,-2.83447 z m 10.55807,0 h -2.41699 v 8.34228 l 2.62939,-0.52734 v 1.34766 l -2.61474,0.52734 h -1.4795 v -9.68994 h -2.41699 v -1.24512 h 6.29883 z m -30.81055,438.1944 v -2.417 h -8.34228 l 0.52734,2.6294 h -1.34765 l -0.52735,-2.61475 v -1.47949 h 9.68994 v -2.41699 h 1.24512 v 6.29883 z m 0,9.53997 v -2.41699 h -8.34228 l 0.52734,2.6294 h -1.34765 l -0.52735,-2.61475 v -1.47949 h 9.68994 v -2.41699 h 1.24512 v 6.29882 z m 28.07517,-107.96289 h 2.41699 v -8.34228 l -2.62939,0.52734 v -1.34765 l 2.61474,-0.52735 h 1.47949 v 9.68994 h 2.417 v 1.24512 h -6.29883 z m -9.54001,0 h 2.41699 v -8.34228 l -2.62939,0.52734 v -1.34765 l 2.61474,-0.52735 h 1.4795 v 9.68994 h 2.41699 v 1.24512 h -6.29883 z m -66.08249,70.80371 q 1.14258,0 1.72119,-1.12793 0.57129,-1.1206 0.57129,-3.37646 0,-2.24854 -0.57129,-3.37647 -0.57861,-1.1206 -1.72119,-1.1206 -1.1499,0 -1.72119,1.1206 -0.57861,1.12793 -0.57861,3.37647 0,2.25586 0.57861,3.37646 0.57129,1.12793 1.72119,1.12793 z m 0,1.17188 q -1.83838,0 -2.80517,-1.45752 -0.97413,-1.4502 -0.97413,-4.21875 0,-2.76123 0.97413,-4.21875 0.96679,-1.4502 2.80517,-1.4502 1.83838,0 2.8125,1.4502 0.9668,1.45752 0.9668,4.21875 0,2.76855 -0.9668,4.21875 -0.97412,1.45752 -2.8125,1.45752 z m 12.44772,-9.8877 h -2.41699 v 8.34229 l 2.6294,-0.52735 v 1.34766 l -2.61475,0.52734 h -1.47949 v -9.68994 h -2.41699 v -1.24511 h 6.29882 z m -19.2671,-43.74468 q -0.87775,0.73147 -0.60016,1.96838 0.27854,1.2266 1.72272,2.95958 1.4395,1.72736 2.60046,2.22811 1.1619,0.49045 2.03965,-0.24102 0.88337,-0.73616 0.60484,-1.96277 -0.27759,-1.23691 -1.71709,-2.96427 -1.44418,-1.73298 -2.60609,-2.22342 -1.16096,-0.50075 -2.04433,0.23541 z m -0.75023,-0.90026 q 1.41227,-1.17692 3.08807,-0.67617 1.67674,0.49044 3.44915,2.61728 1.76772,2.12122 1.95248,3.86453 0.1857,1.733 -1.22657,2.90992 -1.41227,1.17692 -3.08901,0.68648 -1.6758,-0.50076 -3.44352,-2.62197 -1.7724,-2.12684 -1.95811,-3.85984 -0.18476,-1.74331 1.22751,-2.92023 z m -3.23247,15.56481 1.85677,-1.54735 -5.34067,-6.40866 -1.68235,2.08843 -0.86275,-1.03528 1.67108,-2.07906 1.13656,-0.94716 6.20344,7.44395 1.85677,-1.54734 0.79711,0.95652 -4.83885,4.03246 z m 14.76592,109.51031 v -1.34766 q 0.55664,0.26367 1.12793,0.40283 0.57129,0.13917 1.1206,0.13917 1.46485,0 2.23389,-0.98145 0.77637,-0.98877 0.88623,-2.99561 -0.4248,0.62989 -1.07666,0.9668 -0.65186,0.33692 -1.44287,0.33692 -1.64063,0 -2.6001,-0.98877 -0.95215,-0.9961 -0.95215,-2.71729 0,-1.68457 0.9961,-2.70264 0.99609,-1.01806 2.65136,-1.01806 1.89698,0 2.89307,1.45752 1.00342,1.45019 1.00342,4.21875 0,2.58545 -1.23047,4.13086 -1.22315,1.53808 -3.2959,1.53808 -0.55664,0 -1.12793,-0.10986 -0.57129,-0.10986 -1.18652,-0.32959 z m 2.94433,-4.63623 q 0.9961,0 1.57471,-0.68115 0.58594,-0.68116 0.58594,-1.86768 0,-1.1792 -0.58594,-1.86035 -0.57861,-0.68848 -1.57471,-0.68848 -0.99609,0 -1.58203,0.68848 -0.57861,0.68115 -0.57861,1.86035 0,1.18652 0.57861,1.86768 0.58594,0.68115 1.58203,0.68115 z m 141.22531,-109.52566 0.86276,-1.03529 q 0.25882,0.55891 0.60861,1.03155 0.34978,0.47264 0.77177,0.8243 1.12532,0.93779 2.34442,0.67617 1.22942,-0.26256 2.59858,-1.73391 -0.72959,0.21193 -1.44605,0.0534 -0.71644,-0.15849 -1.32412,-0.6649 -1.26034,-1.05031 -1.36443,-2.42415 -0.0938,-1.37477 1.00813,-2.69702 1.07845,-1.29411 2.49543,-1.43851 1.41697,-0.14439 2.68857,0.9153 1.45729,1.21443 1.2894,2.97181 -0.15756,1.75644 -1.92997,3.88329 -1.65519,1.98617 -3.58981,2.38564 -1.9243,0.39853 -3.51663,-0.92844 -0.42762,-0.35635 -0.79616,-0.80648 -0.36854,-0.45014 -0.7005,-1.0128 z m 5.22996,-1.67668 q 0.76522,0.6377 1.64578,0.48485 0.8862,-0.14816 1.64581,-1.05966 0.75491,-0.90588 0.74085,-1.80427 -0.004,-0.89932 -0.76895,-1.53701 -0.76521,-0.63769 -1.6561,-0.48391 -0.88057,0.15285 -1.63548,1.05873 -0.7596,0.9115 -0.75118,1.8052 0.0141,0.89838 0.77927,1.53607 z M 293.49854,756.52588 q -1.05469,0 -1.6626,0.56396 -0.60059,0.56397 -0.60059,1.55274 0,0.98877 0.60059,1.55273 0.60791,0.56397 1.6626,0.56397 1.05468,0 1.66259,-0.56397 0.60791,-0.57129 0.60791,-1.55273 0,-0.98877 -0.60791,-1.55274 -0.60058,-0.56396 -1.66259,-0.56396 z m -1.4795,-0.62988 q -0.95215,-0.23438 -1.48681,-0.88623 -0.52735,-0.65186 -0.52735,-1.58936 0,-1.31104 0.93018,-2.07275 0.9375,-0.76172 2.56348,-0.76172 1.6333,0 2.56347,0.76172 0.93018,0.76171 0.93018,2.07275 0,0.9375 -0.53467,1.58936 -0.52734,0.65185 -1.47217,0.88623 1.06934,0.24902 1.6626,0.97412 0.60059,0.72509 0.60059,1.77246 0,1.58935 -0.97413,2.43896 -0.96679,0.84961 -2.77587,0.84961 -1.80909,0 -2.78321,-0.84961 -0.96679,-0.84961 -0.96679,-2.43896 0,-1.04737 0.60058,-1.77246 0.60059,-0.7251 1.66992,-0.97412 z m -0.54199,-2.33643 q 0,0.84961 0.52734,1.32568 0.53467,0.47608 1.49415,0.47608 0.95214,0 1.48681,-0.47608 0.54199,-0.47607 0.54199,-1.32568 0,-0.84961 -0.54199,-1.32568 -0.53467,-0.47608 -1.48681,-0.47608 -0.95948,0 -1.49415,0.47608 -0.52734,0.47607 -0.52734,1.32568 z m 375.58008,-81.93603 q -1.05469,0 -1.6626,0.56396 -0.60058,0.56396 -0.60058,1.55273 0,0.98877 0.60058,1.55274 0.60791,0.56396 1.6626,0.56396 1.05469,0 1.6626,-0.56396 0.60791,-0.57129 0.60791,-1.55274 0,-0.98877 -0.60791,-1.55273 -0.60059,-0.56396 -1.6626,-0.56396 z m -1.47949,-0.62989 q -0.95215,-0.23437 -1.48682,-0.88623 -0.52734,-0.65185 -0.52734,-1.58935 0,-1.31104 0.93017,-2.07276 0.9375,-0.76172 2.56348,-0.76172 1.6333,0 2.56348,0.76172 0.93017,0.76172 0.93017,2.07276 0,0.9375 -0.53467,1.58935 -0.52734,0.65186 -1.47216,0.88623 1.06933,0.24903 1.66259,0.97412 0.60059,0.7251 0.60059,1.77246 0,1.58936 -0.97412,2.43897 -0.9668,0.84961 -2.77588,0.84961 -1.80908,0 -2.7832,-0.84961 -0.9668,-0.84961 -0.9668,-2.43897 0,-1.04736 0.60058,-1.77246 0.60059,-0.72509 1.66993,-0.97412 z m -0.542,-2.33642 q 0,0.84961 0.52735,1.32568 0.53467,0.47607 1.49414,0.47607 0.95215,0 1.48682,-0.47607 0.54199,-0.47607 0.54199,-1.32568 0,-0.84961 -0.54199,-1.32569 -0.53467,-0.47607 -1.48682,-0.47607 -0.95947,0 -1.49414,0.47607 -0.52735,0.47608 -0.52735,1.32569 z m -490.8872,22.09423 h -7.03125 v -0.62988 l 3.96972,-10.30517 h 1.54541 l -3.73535,9.68994 h 5.25147 z m 14.16848,-51.75091 5.4015,4.50135 -0.40324,0.48389 -9.6469,5.37519 -1.18721,-0.98936 9.07299,-5.05261 -4.03425,-3.36195 z m -53.10354,82.94281 q 0,-0.99609 -0.68115,-1.58203 -0.68116,-0.57862 -1.86768,-0.57862 -1.1792,0 -1.86768,0.57862 -0.68115,0.58594 -0.68115,1.58203 0,0.99609 0.68115,1.57471 0.68848,0.58593 1.86768,0.58593 1.18652,0 1.86768,-0.58593 0.68115,-0.57862 0.68115,-1.57471 z m 4.63623,2.93701 h -1.34766 q 0.26367,-0.55664 0.40284,-1.12793 0.13916,-0.56396 0.13916,-1.1206 0,-1.46485 -0.98877,-2.24122 -0.98877,-0.76904 -2.98829,-0.8789 0.63721,0.43213 0.97413,1.08398 0.34423,0.65186 0.34423,1.43555 0,1.64795 -1.00341,2.6001 -0.9961,0.95947 -2.71729,0.95947 -1.68457,0 -2.70264,-0.99609 -1.01806,-0.9961 -1.01806,-2.65137 0,-1.89697 1.45019,-2.90039 1.45752,-1.00342 4.21875,-1.00342 2.59278,0 4.13086,1.23047 1.54541,1.23047 1.54541,3.30322 0,0.55664 -0.10986,1.12061 -0.10986,0.57129 -0.32959,1.18652 z M 106.87695,614.16162 q -0.99609,0 -1.58203,0.68115 -0.57861,0.68116 -0.57861,1.86768 0,1.1792 0.57861,1.86767 0.58594,0.68116 1.58203,0.68116 0.9961,0 1.57471,-0.68116 0.58594,-0.68847 0.58594,-1.86767 0,-1.18652 -0.58594,-1.86768 -0.57861,-0.68115 -1.57471,-0.68115 z m 2.93701,-4.63623 v 1.34766 q -0.55664,-0.26368 -1.12792,-0.40284 -0.56397,-0.13916 -1.12061,-0.13916 -1.46484,0 -2.24121,0.98877 -0.76904,0.98877 -0.87891,2.98829 0.43213,-0.63721 1.08399,-0.97413 0.65185,-0.34423 1.43554,-0.34423 1.64795,0 2.6001,1.00341 0.95947,0.9961 0.95947,2.71729 0,1.68457 -0.99609,2.70264 -0.99609,1.01806 -2.65137,1.01806 -1.89697,0 -2.90039,-1.45019 -1.00342,-1.45752 -1.00342,-4.21875 0,-2.59278 1.23047,-4.13086 1.23047,-1.54541 3.30323,-1.54541 0.55664,0 1.1206,0.10986 0.57129,0.10986 1.18652,0.32959 z m 60.13282,141.2583 h 5.8081 v 1.24512 h -4.45312 v 2.68066 q 0.32226,-0.10986 0.64453,-0.16113 0.32226,-0.0586 0.64453,-0.0586 1.83105,0 2.90039,1.00341 1.06934,1.00342 1.06934,2.71729 0,1.76514 -1.09864,2.74658 -1.09863,0.97412 -3.09814,0.97412 -0.68848,0 -1.40625,-0.11719 -0.71045,-0.11718 -1.47217,-0.35156 v -1.48681 q 0.65918,0.35888 1.36231,0.53466 0.70312,0.17579 1.48681,0.17579 1.26709,0 2.00684,-0.66651 0.73974,-0.6665 0.73974,-1.80908 0,-1.14258 -0.73974,-1.80908 -0.73975,-0.66651 -2.00684,-0.66651 -0.59326,0 -1.18652,0.13184 -0.58594,0.13184 -1.20117,0.41016 z m 597.02659,-109.09153 4.46187,-3.71831 0.79711,0.95651 -3.42096,2.85086 1.71615,2.05933 q 0.17723,-0.29072 0.39198,-0.53642 0.21005,-0.25132 0.45763,-0.45764 1.40663,-1.17222 2.8705,-1.08597 1.46385,0.0863 2.56106,1.40288 1.13003,1.356 0.91436,2.8133 -0.22036,1.45167 -1.75641,2.73174 -0.5289,0.44076 -1.15532,0.81025 -0.62081,0.3648 -1.35601,0.6724 l -0.95185,-1.1422 q 0.73615,-0.1463 1.38883,-0.46139 0.65268,-0.31511 1.25473,-0.81682 0.97339,-0.81118 1.11499,-1.79678 0.14158,-0.9856 -0.58989,-1.86334 -0.73146,-0.87774 -1.72644,-0.91619 -0.99497,-0.0384 -1.96837,0.77275 -0.45575,0.3798 -0.8271,0.86088 -0.36573,0.47639 -0.66019,1.08408 z m -454.50999,-205.6072 5.8374,3.73535 v -3.73535 z m -1.28906,0.38818 v -1.86035 h 7.12646 v -1.56006 h 1.23047 v 1.56006 h 2.57812 v 1.47217 h -2.57812 v 4.93652 h -1.42822 z m 419.78027,2.98096 -5.8374,-3.73535 v 3.73535 z m 1.28906,-0.38818 v 1.86035 h -7.12646 v 1.56006 h -1.23047 v -1.56006 h -2.57813 v -1.47217 h 2.57813 v -4.93652 h 1.42822 z M 231.31494,231.52295 q 0.22705,-1.06201 0.94483,-1.65527 0.71777,-0.60059 1.77246,-0.60059 1.61865,0 2.50488,1.11328 0.88623,1.11328 0.88623,3.16406 0,0.68848 -0.13916,1.4209 -0.13184,0.7251 -0.40283,1.50147 h -1.42823 q 0.35889,-0.61524 0.542,-1.34766 0.1831,-0.73242 0.1831,-1.53076 0,-1.3916 -0.54931,-2.1167 -0.54932,-0.73242 -1.59668,-0.73242 -0.9668,0 -1.50879,0.68115 -0.54932,0.67383 -0.54932,1.88232 v 1.27442 h -1.21582 v -1.33301 q 0,-1.09131 -0.43213,-1.66992 -0.43945,-0.57861 -1.25976,-0.57861 -0.84229,0 -1.28907,0.60058 -0.4541,0.59326 -0.4541,1.70654 0,0.60791 0.13184,1.30372 0.13183,0.6958 0.41015,1.53076 h -1.31836 q -0.23437,-0.84229 -0.35156,-1.57471 -0.11719,-0.73975 -0.11719,-1.3916 0,-1.68457 0.76905,-2.66602 0.76172,-0.98144 2.06543,-0.98144 0.9082,0 1.53808,0.52002 0.62256,0.52002 0.86426,1.47949 z m 47.35645,52.33008 q -1.06202,-0.22705 -1.65528,-0.94483 -0.60058,-0.71777 -0.60058,-1.77246 0,-1.61865 1.11328,-2.50488 1.11328,-0.88623 3.16406,-0.88623 0.68848,0 1.4209,0.13916 0.7251,0.13183 1.50146,0.40283 v 1.42822 q -0.61523,-0.35888 -1.34765,-0.54199 -0.73242,-0.1831 -1.53076,-0.1831 -1.39161,0 -2.1167,0.54931 -0.73242,0.54932 -0.73242,1.59668 0,0.9668 0.68115,1.50879 0.67383,0.54932 1.88232,0.54932 h 1.27442 v 1.21582 h -1.33301 q -1.09131,0 -1.66992,0.43213 -0.57862,0.43945 -0.57862,1.25976 0,0.84229 0.60059,1.28906 0.59326,0.45411 1.70654,0.45411 0.60791,0 1.30371,-0.13184 0.6958,-0.13184 1.53076,-0.41016 v 1.31836 q -0.84228,0.23438 -1.5747,0.35157 -0.73975,0.11718 -1.3916,0.11718 -1.68457,0 -2.66602,-0.76904 -0.98145,-0.76172 -0.98145,-2.06543 0,-0.9082 0.52002,-1.53808 0.52002,-0.62256 1.4795,-0.86426 z m -84.64746,-89.54932 h -5.16358 v -1.24512 h 6.94336 v 1.24512 q -0.84228,0.87158 -2.29248,2.33643 -1.45752,1.47216 -1.83105,1.89697 -0.71045,0.79834 -0.98877,1.34766 -0.28565,0.55664 -0.28565,1.0913 0,0.87159 0.61524,1.4209 0.60791,0.54932 1.58935,0.54932 0.6958,0 1.47217,-0.2417 0.76904,-0.2417 1.64795,-0.73242 v 1.49414 q -0.89356,0.35889 -1.66992,0.54199 -0.77637,0.18311 -1.4209,0.18311 -1.69922,0 -2.70996,-0.84961 -1.01074,-0.84961 -1.01074,-2.27051 0,-0.67383 0.25634,-1.28174 0.24903,-0.60059 0.91553,-1.4209 0.18311,-0.2124 1.16455,-1.23047 0.98145,-1.01074 2.76856,-2.83447 z m 571.65625,84.89844 h -5.16358 v -1.24512 h 6.94336 v 1.24512 q -0.84228,0.87158 -2.29248,2.33642 -1.45752,1.47217 -1.83105,1.89698 -0.71045,0.79834 -0.98877,1.34765 -0.28565,0.55664 -0.28565,1.09131 0,0.87158 0.61524,1.4209 0.60791,0.54932 1.58935,0.54932 0.6958,0 1.47217,-0.2417 0.76904,-0.2417 1.64795,-0.73242 v 1.49414 q -0.89356,0.35888 -1.66992,0.54199 -0.77637,0.1831 -1.4209,0.1831 -1.69922,0 -2.70996,-0.84961 -1.01074,-0.84961 -1.01074,-2.2705 0,-0.67383 0.25634,-1.28174 0.24903,-0.60059 0.91553,-1.4209 0.18311,-0.2124 1.16455,-1.23047 0.98145,-1.01074 2.76856,-2.83447 z M 150.89746,232.61426 v 2.41699 h 8.34229 l -0.52735,-2.62939 h 1.34766 l 0.52734,2.61474 v 1.47949 h -9.68994 v 2.417 h -1.24512 v -6.29883 z m -43.80078,46.58789 h -2.41699 v 8.34228 l 2.62939,-0.52734 v 1.34766 l -2.61474,0.52734 h -1.4795 v -9.68994 h -2.41699 v -1.24512 h 6.29883 z M 74.710937,450.07666 q 0,-1.14258 -1.127929,-1.72119 -1.120606,-0.57129 -3.376465,-0.57129 -2.248535,0 -3.376465,0.57129 -1.120605,0.57861 -1.120605,1.72119 0,1.1499 1.120605,1.72119 1.12793,0.57861 3.376465,0.57861 2.255859,0 3.376465,-0.57861 1.127929,-0.57129 1.127929,-1.72119 z m 1.171875,0 q 0,1.83838 -1.457519,2.80518 -1.450195,0.97412 -4.21875,0.97412 -2.761231,0 -4.21875,-0.97412 -1.450195,-0.9668 -1.450195,-2.80518 0,-1.83838 1.450195,-2.8125 1.457519,-0.9668 4.21875,-0.9668 2.768555,0 4.21875,0.9668 1.457519,0.97412 1.457519,2.8125 z m 723.023438,-1.97754 q 0,1.14258 1.12793,1.72119 1.12061,0.57129 3.37646,0.57129 2.24854,0 3.37647,-0.57129 1.1206,-0.57861 1.1206,-1.72119 0,-1.1499 -1.1206,-1.72119 -1.12793,-0.57861 -3.37647,-0.57861 -2.25585,0 -3.37646,0.57861 -1.12793,0.57129 -1.12793,1.72119 z m -1.17188,0 q 0,-1.83838 1.45752,-2.80517 1.4502,-0.97413 4.21875,-0.97413 2.76123,0 4.21875,0.97413 1.4502,0.96679 1.4502,2.80517 0,1.83838 -1.4502,2.8125 -1.45752,0.9668 -4.21875,0.9668 -2.76855,0 -4.21875,-0.9668 -1.45752,-0.97412 -1.45752,-2.8125 z" />
    <path
       id="path6448"
       style="fill:none;stroke:#800000;stroke-width:1;stroke-linecap:butt;stroke-linejoin:miter;stroke-miterlimit:10;stroke-dasharray:8,8;stroke-dashoffset:0;stroke-opacity:1"
       d="m 112.71363,652.25079 -0.70494,107.53752 M 27.109683,759.22864 27.818594,651.69003 M 346.25,599.078 V 276.457 m 266.02,0 h 84.898 m -84.898,0 v 322.621 m 84.898,-413.18 v 90.559 m -175.457,0 h 90.559 m -175.461,0 h 84.902 m 0,345.262 h -84.902 m 0,0 -67.918,56.597 m 0,0 v 84.903 m 220.738,-84.903 -67.918,-56.597 m -152.82,56.597 H 216.07 m 0,84.903 v -84.903 m 526.379,0 h -152.82 m -373.559,0 -67.918,-56.597 m 0,0 H 63.25 m 747.117,0 -67.918,56.597 M 148.152,621.719 V 276.457 M 719.809,599.078 V 276.457 M 238.711,191.559 v 84.898 m 0,0 V 599.078 M 719.809,276.457 h 90.558 m -662.215,0 v -84.898 m 662.215,84.898 V 621.719 M 148.152,276.457 h 90.559 m 283,0 V 621.719 M 436.809,276.457 v 345.262" />
    <path
       id="path7315"
       style="font-size:15px;font-family:'DejaVu Sans';-inkscape-font-specification:DejaVuSans"
       d="m 72.095142,752.12789 q 1.060498,0.23402 1.649031,0.95569 0.595858,0.7217 0.588929,1.77636 -0.01063,1.61862 -1.129712,2.49752 -1.119078,0.87889 -3.169816,0.86542 -0.688461,-0.005 -1.419953,-0.14849 -0.724217,-0.1366 -1.498787,-0.41268 l 0.0094,-1.42819 q 0.612864,0.36291 1.344066,0.55083 0.731203,0.1879 1.529526,0.19315 1.391572,0.009 2.120262,-0.53539 0.736015,-0.5445 0.742895,-1.59184 0.0064,-0.96678 -0.671226,-1.51323 -0.670205,-0.55373 -1.878675,-0.56167 l -1.274386,-0.008 0.008,-1.21579 1.332978,0.009 q 1.091286,0.007 1.672725,-0.42115 0.581488,-0.43564 0.586877,-1.25594 0.0055,-0.84227 -0.592105,-1.29298 -0.590266,-0.45799 -1.703523,-0.4653 -0.607897,-0.004 -1.304549,0.12327 -0.696652,0.12726 -1.533423,0.40008 l 0.0087,-1.31832 q 0.843806,-0.22884 1.576982,-0.34121 0.7405,-0.11232 1.392342,-0.10804 1.684534,0.0111 2.660906,0.78654 0.976421,0.76815 0.967856,2.07183 -0.006,0.90818 -0.530112,1.53463 -0.524099,0.61913 -1.485138,0.85452 z m 37.516758,-45.5331 0.0339,-5.16346 1.24508,0.008 -0.0456,6.94321 -1.24508,-0.008 q -0.86604,-0.84799 -2.32132,-2.30778 -1.46256,-1.46716 -1.8849,-1.84347 -0.79366,-0.71568 -1.34114,-0.99761 -0.55475,-0.2893 -1.08941,-0.29281 -0.87156,-0.006 -1.42491,0.60589 -0.55329,0.60429 -0.55974,1.58571 -0.005,0.69579 0.23203,1.47373 0.23664,0.77061 0.72158,1.65272 l -1.49411,-0.01 q -0.35301,-0.89589 -0.531011,-1.67345 -0.178006,-0.77755 -0.173772,-1.42207 0.01116,-1.69918 0.867393,-2.70432 0.85623,-1.00514 2.2771,-0.9958 0.67382,0.004 1.28003,0.26475 0.59893,0.25297 1.41485,0.92485 0.2112,0.1845 1.22279,1.1726 1.00427,0.98807 2.81623,2.78712 z m -37.967028,-51.871 -2.41694,-0.0159 -0.0548,8.34211 2.632802,-0.51006 -0.0089,1.34762 -2.618154,0.51017 -1.47946,-0.01 0.06365,-9.68974 -2.41694,-0.0159 0.0082,-1.24508 6.298692,0.0414 z m -32.725354,51.80194 q 0.0075,-1.14255 -1.116599,-1.72856 -1.116828,-0.57864 -3.37264,-0.59346 -2.248486,-0.0148 -3.380144,0.5491 -1.124382,0.57124 -1.131888,1.71379 -0.0076,1.14988 1.109275,1.72852 1.124104,0.58601 3.37259,0.60078 2.255811,0.0148 3.380193,-0.55642 1.131659,-0.56387 1.139213,-1.71375 z m 1.171849,0.008 q -0.01208,1.83834 -1.475916,2.79555 -1.456563,0.96457 -4.225058,0.94638 -2.76117,-0.0181 -4.21226,-1.00181 -1.443812,-0.97631 -1.431736,-2.81465 0.01208,-1.83834 1.46864,-2.80291 1.463839,-0.9572 4.22501,-0.93907 2.768495,0.0182 4.212308,0.9945 1.451089,0.98367 1.439012,2.82201 z M 283.64502,591.68213 q 1.06201,0.22705 1.65527,0.94482 0.60059,0.71778 0.60059,1.77246 0,1.61866 -1.11328,2.50489 -1.11328,0.88623 -3.16406,0.88623 -0.68848,0 -1.4209,-0.13916 -0.7251,-0.13184 -1.50147,-0.40283 v -1.42823 q 0.61524,0.35889 1.34766,0.54199 0.73242,0.18311 1.53076,0.18311 1.3916,0 2.1167,-0.54932 0.73242,-0.54931 0.73242,-1.59668 0,-0.96679 -0.68115,-1.50879 -0.67383,-0.54931 -1.88233,-0.54931 h -1.27441 v -1.21582 h 1.33301 q 1.09131,0 1.66992,-0.43213 0.57861,-0.43945 0.57861,-1.25977 0,-0.84228 -0.60058,-1.28906 -0.59326,-0.4541 -1.70655,-0.4541 -0.60791,0 -1.30371,0.13184 -0.6958,0.13183 -1.53076,0.41015 v -1.31836 q 0.84229,-0.23437 1.57471,-0.35156 0.73974,-0.11719 1.3916,-0.11719 1.68457,0 2.66602,0.76905 0.98144,0.76171 0.98144,2.06543 0,0.9082 -0.52002,1.53808 -0.52002,0.62256 -1.47949,0.86426 z m 9.42969,10.14111 h -5.16358 v -1.24512 h 6.94336 v 1.24512 q -0.84228,0.87158 -2.29248,2.33643 -1.45752,1.47217 -1.83105,1.89697 -0.71045,0.79834 -0.98877,1.34766 -0.28565,0.55664 -0.28565,1.09131 0,0.87158 0.61524,1.42089 0.60791,0.54932 1.58935,0.54932 0.6958,0 1.47217,-0.2417 0.76904,-0.2417 1.64795,-0.73242 v 1.49414 q -0.89355,0.35889 -1.66992,0.54199 -0.77637,0.18311 -1.4209,0.18311 -1.69922,0 -2.70996,-0.84961 -1.01074,-0.84961 -1.01074,-2.27051 0,-0.67383 0.25634,-1.28174 0.24903,-0.60058 0.91553,-1.4209 0.18311,-0.2124 1.16455,-1.23047 0.98145,-1.01074 2.76856,-2.83447 z m 360.24658,-5.49023 h 2.41699 v -8.34229 l -2.62939,0.52735 v -1.34766 l 2.61474,-0.52734 h 1.47949 v 9.68994 h 2.417 v 1.24511 h -6.29883 z m 11.72705,14.20605 q 1.14258,0 1.72119,-1.12793 0.57129,-1.1206 0.57129,-3.37646 0,-2.24854 -0.57129,-3.37647 -0.57861,-1.1206 -1.72119,-1.1206 -1.1499,0 -1.72119,1.1206 -0.57861,1.12793 -0.57861,3.37647 0,2.25586 0.57861,3.37646 0.57129,1.12793 1.72119,1.12793 z m 0,1.17188 q -1.83838,0 -2.80518,-1.45752 -0.97412,-1.4502 -0.97412,-4.21875 0,-2.76123 0.97412,-4.21875 0.9668,-1.4502 2.80518,-1.4502 1.83838,0 2.8125,1.4502 0.9668,1.45752 0.9668,4.21875 0,2.76855 -0.9668,4.21875 -0.97412,1.45752 -2.8125,1.45752 z" />
    <path
       id="path6454"
       style="fill:none;stroke:#ff0000;stroke-width:1;stroke-linecap:butt;stroke-linejoin:miter;stroke-miterlimit:10;stroke-dasharray:none;stroke-opacity:1"
       d="M 112.00869,759.78831 92.806564,774.66114 46.114741,774.35252 27.109683,759.22864 m 85.603947,-106.97785 14.84329,24.29319 -0.38986,59.14609 -15.15837,24.09824 m -84.190096,-108.09828 19.198153,-14.87174 46.695706,0.30354 19.001177,15.12896 M 27.109683,759.22864 12.27037,734.93436 12.656225,675.78837 27.818594,651.69003 M 323.609,599.078 h -84.898 m 0,0 H 346.25 m 350.918,0 H 612.27 m 0,0 H 719.809 M 697.168,276.457 v 322.621 m -350.918,0 -15,-72.59 V 349.047 l 15,-72.59 m 350.918,-90.559 15,20.379 v 49.805 l -15,20.375 m -350.918,0 h 90.559 m 175.461,0 v -90.559 m -90.559,90.559 20.375,-15 h 49.805 l 20.379,15 m 0,-90.559 h 84.898 m -260.359,90.559 19.101,-15 h 46.695 l 19.106,15 m -64.41,401.859 v 84.903 m 64.41,-141.5 -19.106,15 H 455.91 l -19.101,-15 m -67.918,56.597 h 88.41 m -20.492,-56.597 -5.68,24.258 -37.356,31.128 -24.882,1.211 m 88.41,84.903 h -88.41 m 220.738,-84.903 -24.887,-1.211 -37.355,-31.128 -5.676,-24.258 m -152.82,141.5 H 216.07 m 526.379,-84.903 -34.387,15 h -84.05 l -34.383,-15 m -461.973,0 h 88.414 m 0,0 -24.886,-1.211 -37.356,-31.128 -5.676,-24.258 m -20.496,141.5 v -84.903 m 20.496,-56.597 -19.105,15 H 82.352 l -19.102,-15 m 152.82,141.5 h -88.414 m 682.711,-141.5 -5.679,24.258 -37.356,31.128 -24.883,1.211 M 323.609,276.457 v 322.621 m 396.2,0 -15,-72.59 V 349.047 l 15,-72.59 m -481.098,-84.898 15,19.101 v 46.695 l -15,19.102 m 0,0 h 84.898 M 148.152,191.559 h 90.559 m 481.098,84.898 20.375,-15 h 49.808 l 20.375,15 m -662.215,0 -15,-19.102 V 210.66 l 15,-19.101 M 63.25,276.457 h 84.902 M 63.25,621.719 V 276.457 m 747.117,0 15,77.684 v 189.894 l -15,77.684" />
    <path
       id="path6456"
       style="fill:none;stroke:#00ff00;stroke-width:1;stroke-linecap:butt;stroke-linejoin:miter;stroke-miterlimit:10;stroke-dasharray:8, 2, 2, 2;stroke-dashoffset:0;stroke-opacity:1"
       d="m 112.00869,759.78831 -84.899007,-0.55967 m 0.708911,-107.53861 84.895036,0.56076" />
  </g>
</svg>
