<?xml version="1.0" encoding="UTF-8" standalone="no"?>
<!-- Created with Inkscape (http://www.inkscape.org/) -->

<svg
   version="1.1"
   id="svg7439"
   width="1132"
   height="1132"
   viewBox="0 0 1132 1132"
   sodipodi:docname="V.svg"
   inkscape:version="1.2.2 (732a01da63, 2022-12-09, custom)"
   xmlns:inkscape="http://www.inkscape.org/namespaces/inkscape"
   xmlns:sodipodi="http://sodipodi.sourceforge.net/DTD/sodipodi-0.dtd"
   xmlns="http://www.w3.org/2000/svg"
   xmlns:svg="http://www.w3.org/2000/svg">
  <defs
     id="defs7443" />
  <sodipodi:namedview
     id="namedview7441"
     pagecolor="#ffffff"
     bordercolor="#666666"
     borderopacity="1.0"
     inkscape:showpageshadow="2"
     inkscape:pageopacity="0.0"
     inkscape:pagecheckerboard="0"
     inkscape:deskcolor="#d1d1d1"
     showgrid="false"
     inkscape:zoom="0.65989399"
     inkscape:cx="566.7577"
     inkscape:cy="567.51539"
     inkscape:window-width="1920"
     inkscape:window-height="1009"
     inkscape:window-x="0"
     inkscape:window-y="0"
     inkscape:window-maximized="1"
     inkscape:current-layer="g7447">
    <inkscape:page
       x="0"
       y="0"
       id="page7445"
       width="1132"
       height="1132" />
  </sodipodi:namedview>
  <g
     id="g7447"
     inkscape:groupmode="layer"
     inkscape:label="Page 1"
     transform="matrix(1.3333333,0,0,1.3333333,0,2.83e-5)">
    <path
       id="path7627"
       style="fill:none;stroke:#800000;stroke-width:1;stroke-linecap:butt;stroke-linejoin:miter;stroke-miterlimit:10;stroke-dasharray:8,8;stroke-dashoffset:0;stroke-opacity:1"
       d="m 178.54865,409.57889 221.77232,-148.2108 m 0,0 53.3872,-66.01324 m 90.15729,280.27426 -221.43389,148.71325 m 77.8894,-362.97427 70.41291,56.94235 m -17.02571,-122.95559 70.41272,56.94635 m 0,0 -53.38701,66.00924 M 168.46756,623.00663 121.2129,552.47589 m 0,0 -70.411716,-56.94629 m 143.733726,299.15643 -0.18924,-84.89541 m 0,0 -25.87811,-86.78399 M 50.801184,495.5296 211.08327,108.32392 m 111.3483,516.01844 265.10459,-2.26682 m 0,0 81.35792,-24.26189 M 281.49499,165.27021 178.54865,409.57889 m 408.98751,212.49665 25.87726,86.78095 m 81.35778,-24.2589 -81.35778,24.2589 m 0,0 -419.06775,0.93413 M 668.89408,597.81365 694.7712,684.59759 M 517.98835,388.84517 168.46756,623.00663 M 470.73388,318.31044 121.2129,552.47589" />
    <path
       d="m 511.77741,368.0136 81.35772,-24.2579"
       style="fill:none;stroke:#00ff00;stroke-width:1;stroke-linecap:butt;stroke-linejoin:miter;stroke-miterlimit:10;stroke-dasharray:8, 2, 2, 2;stroke-dashoffset:0;stroke-opacity:1"
       id="path7641" />
    <path
       id="path8317"
       style="font-size:15px;font-family:'DejaVu Sans';-inkscape-font-specification:DejaVuSans;fill:#0000ff"
       d="m 218.94799,65.811723 -3.247,4.01491 -0.96814,-0.782966 4.36618,-5.398773 0.96814,0.782966 q 0.14804,1.202988 0.37509,3.251711 0.22815,2.059028 0.32357,2.616601 0.174,1.054424 0.4261,1.616251 0.25319,0.572133 0.66892,0.908348 0.67769,0.548073 1.49169,0.415128 0.80939,-0.12725 1.42655,-0.890367 0.43754,-0.541017 0.7378,-1.296664 0.29567,-0.749953 0.46679,-1.74192 l 1.16176,0.939556 q -0.28284,0.920452 -0.62867,1.639257 -0.34583,0.718799 -0.75113,1.219951 -1.06852,1.321219 -2.36471,1.572858 -1.29618,0.251645 -2.401,-0.641856 -0.52393,-0.423723 -0.83541,-1.005315 -0.31039,-0.571294 -0.5291,-1.605365 -0.05,-0.275935 -0.22445,-1.679244 -0.16873,-1.398698 -0.46298,-3.935067 z m 6.6392,-8.209372 -1.51987,1.879321 6.4865,5.245855 1.2434,-2.376079 1.04787,0.847446 -1.2342,2.364688 -0.93034,1.150372 -7.53436,-6.093301 -1.51988,1.87932 -0.96813,-0.782965 3.96088,-4.897622 z m 323.38989,302.186079 -4.94825,1.47554 -0.35581,-1.1932 6.65384,-1.98413 0.3558,1.1932 q -0.55811,1.07593 -1.52923,2.8941 -0.97606,1.82729 -1.21263,2.34112 -0.45269,0.96806 -0.56243,1.57401 -0.11467,0.61505 0.0381,1.12743 0.24906,0.83524 0.99561,1.18583 0.73953,0.3527 1.68006,0.0722 0.66678,-0.19883 1.34171,-0.65231 0.6679,-0.45138 1.36994,-1.17279 l 0.42696,1.43183 q -0.75374,0.59927 -1.44541,0.99659 -0.69167,0.39733 -1.30932,0.58151 -1.62837,0.48557 -2.83974,-0.0398 -1.21139,-0.52535 -1.61743,-1.887 -0.19255,-0.64573 -0.1206,-1.30155 0.067,-0.64669 0.47131,-1.62327 0.11477,-0.25586 0.76438,-1.51194 0.65168,-1.24905 1.84312,-3.50742 z m 10.11783,-3.01707 -2.31621,0.69068 2.38389,7.99443 2.36905,-1.25673 0.38511,1.29146 -2.35502,1.25254 -1.4178,0.42278 -2.76899,-9.28588 -2.31621,0.69067 -0.3558,-1.1932 6.03617,-1.79995 z m -258.12607,-179.2844 1.87932,1.51987 5.24586,-6.4865 -2.37608,-1.2434 0.84745,-1.04786 2.36468,1.23418 1.15037,0.93035 -6.0933,7.53436 1.87933,1.51988 -0.78297,0.96813 -4.89762,-3.96087 z m -7.41778,-5.99902 1.87932,1.51987 5.24585,-6.4865 -2.37607,-1.2434 0.84744,-1.04786 2.36469,1.23419 1.15037,0.93035 -6.0933,7.53436 1.87932,1.51987 -0.78296,0.96813 -4.89763,-3.96087 z m -5.39562,168.14268 -2.00954,1.34299 4.63534,6.93595 1.89311,-1.89946 0.74882,1.12048 -1.88094,1.8913 -1.23008,0.82207 -5.38415,-8.05641 -2.00954,1.34298 -0.69184,-1.03521 5.23697,-3.49991 z m 7.93175,-5.30084 -2.00954,1.34299 4.63534,6.93595 1.89312,-1.89945 0.74881,1.12047 -1.88094,1.89131 -1.23008,0.82207 -5.38415,-8.05642 -2.00954,1.34299 -0.69184,-1.03522 5.23698,-3.4999 z M 338.06475,116.5706 q 0.88841,0.71849 2.04757,0.20531 1.14888,-0.51208 2.56743,-2.26611 1.41393,-1.74833 1.679,-2.98459 0.25478,-1.23517 -0.63363,-1.95366 -0.8941,-0.72309 -2.04297,-0.211 -1.15918,0.51316 -2.57312,2.26149 -1.41854,1.75404 -1.67331,2.98921 -0.26507,1.23626 0.62903,1.95935 z m -0.73691,0.91118 q -1.42942,-1.15602 -1.26462,-2.89726 0.1545,-1.74014 1.89544,-3.89282 1.73634,-2.14698 3.41029,-2.66772 1.66365,-0.51963 3.09307,0.63639 1.42943,1.15603 1.27493,2.89617 -0.1648,1.74123 -1.90114,3.88821 -1.74094,2.15268 -3.40459,2.67232 -1.67395,0.52073 -3.10338,-0.63529 z m 15.89632,0.13935 -1.87932,-1.51987 -5.24586,6.48649 2.37609,1.24341 -0.84745,1.04787 -2.36469,-1.2342 -1.15037,-0.93034 6.0933,-7.53436 -1.87933,-1.51988 0.78297,-0.96814 4.89762,3.96088 z m 78.585,419.45643 q -0.94851,0.63703 -0.79999,1.89598 0.15052,1.24878 1.40824,3.12149 1.25364,1.86663 2.35676,2.48447 1.10511,0.60768 2.05363,-0.0294 0.95459,-0.64111 0.80407,-1.8899 -0.14852,-1.25895 -1.40216,-3.12558 -1.25772,-1.87271 -2.36283,-2.48038 -1.10312,-0.61784 -2.05772,0.0233 z m -0.65336,-0.97284 q 1.52613,-1.02496 3.14134,-0.35402 1.61721,0.66078 3.16078,2.9591 1.53948,2.29224 1.54343,4.04532 0.006,1.74291 -1.52019,2.76787 -1.52614,1.02496 -3.14334,0.36418 -1.61521,-0.67094 -3.1547,-2.96319 -1.54356,-2.29832 -1.54951,-4.04123 -0.004,-1.75307 1.52219,-2.77803 z m -4.82077,15.14835 2.00647,-1.34756 -4.65112,-6.92538 -1.88878,1.90376 -0.75137,-1.11876 1.87663,-1.89559 1.2282,-0.82487 5.40249,8.04414 2.00647,-1.34756 0.6942,1.03364 -5.22899,3.51182 z m 63.14604,-324.74796 -0.84744,1.04786 q -0.26701,-0.55505 -0.62371,-1.02249 -0.3567,-0.46745 -0.78381,-0.81287 -1.13899,-0.92114 -2.3541,-0.64162 -1.22543,0.28061 -2.57281,1.77194 0.72639,-0.22263 1.4451,-0.0747 0.71871,0.14795 1.33376,0.64536 1.27566,1.03167 1.39992,2.40382 0.11398,1.37325 -0.96836,2.71155 -1.0593,1.30983 -2.474,1.47505 -1.4147,0.16522 -2.70174,-0.87566 -1.47499,-1.19287 -1.33297,-2.95253 0.13172,-1.75857 1.87266,-3.91124 1.62581,-2.0103 3.55435,-2.43818 1.91825,-0.42678 3.5299,0.87662 0.43281,0.35003 0.80793,0.7947 0.37512,0.44467 0.71532,1.00239 z m -5.20474,1.7534 q -0.77451,-0.62637 -1.65274,-0.46059 -0.88392,0.16117 -1.63003,1.08374 -0.74152,0.91688 -0.71425,1.81497 0.017,0.89916 0.79148,1.52553 0.7745,0.62637 1.66302,0.45951 0.87823,-0.16578 1.61974,-1.08267 0.74612,-0.92257 0.72455,-1.81604 -0.0273,-0.89808 -0.80177,-1.52445 z m 45.60223,206.50593 -1.29146,0.3851 q 0.0936,-0.60878 0.0637,-1.19601 -0.0299,-0.58723 -0.18686,-1.11364 -0.4186,-1.40377 -1.57888,-1.86028 -1.1694,-0.46145 -3.12394,0.007 0.72501,0.22709 1.23414,0.75549 0.50915,0.52839 0.73519,1.28643 0.46882,1.57221 -0.20454,2.77423 -0.68248,1.19709 -2.3319,1.68893 -1.61432,0.48139 -2.87458,-0.18226 -1.26025,-0.66363 -1.73327,-2.24989 -0.54207,-1.81787 0.57003,-3.18892 1.10298,-1.37598 3.7561,-2.16713 2.47764,-0.73881 4.31022,-10e-4 1.82347,0.73262 2.41578,2.71895 0.15907,0.53343 0.21704,1.11229 0.058,0.57886 0.0232,1.23123 z m -5.28428,-1.49672 q -0.28464,-0.95456 -1.10273,-1.3144 -0.82019,-0.36685 -1.95724,-0.0278 -1.13003,0.33697 -1.61533,1.09312 -0.49443,0.75123 -0.20979,1.70578 0.28464,0.95456 1.11185,1.31933 0.81809,0.35984 1.94812,0.0229 1.13705,-0.33906 1.62446,-1.08819 0.48531,-0.75615 0.20066,-1.71071 z M 492.86322,280.30655 q -0.66321,0.82006 -0.60697,1.64738 0.0608,0.82162 0.82965,1.44338 0.76881,0.62177 1.58499,0.50943 0.82077,-0.11805 1.48399,-0.93812 0.66322,-0.82006 0.60698,-1.64737 -0.0619,-0.83192 -0.82505,-1.44909 -0.76881,-0.62176 -1.58959,-0.50372 -0.81618,0.11235 -1.484,0.93811 z m -1.4201,0.75428 q -0.78098,0.59296 -1.62404,0.59878 -0.83846,1.3e-4 -1.5674,-0.5894 -1.01939,-0.82441 -1.02674,-2.02665 -0.003,-1.20794 1.01971,-2.47221 1.02707,-1.26996 2.20426,-1.51423 1.17719,-0.24426 2.19657,0.58015 0.72895,0.58953 0.89959,1.41516 0.17523,0.81994 -0.23666,1.70196 0.86606,-0.67486 1.80291,-0.68019 0.94147,-0.011 1.75583,0.64759 1.2358,0.99944 1.28386,2.29112 0.0527,1.28598 -1.08494,2.69263 -1.1376,1.40664 -2.41076,1.6298 -1.26856,0.21747 -2.50436,-0.78196 -0.81437,-0.65861 -1.0005,-1.58155 -0.18614,-0.92295 0.29267,-1.911 z m -2.1575,-1.04778 q 0.66061,0.53425 1.36239,0.42359 0.70638,-0.11636 1.30972,-0.86239 0.59874,-0.74034 0.56479,-1.45544 -0.0294,-0.72079 -0.68997,-1.25505 -0.66061,-0.53426 -1.37159,-0.4122 -0.70638,0.11636 -1.30512,0.8567 -0.60334,0.74603 -0.56939,1.46113 0.0386,0.7094 0.69917,1.24366 z m -1.05316,76.44447 q 0.58703,0.87623 1.39392,1.06737 0.80281,0.18506 1.62427,-0.36528 0.82145,-0.55034 0.95572,-1.36319 0.13017,-0.81894 -0.45686,-1.69516 -0.58703,-0.87623 -1.39392,-1.06738 -0.81297,-0.18707 -1.62835,0.3592 -0.82146,0.55034 -0.95163,1.36927 -0.13426,0.81287 0.45685,1.69517 z m 0.30017,1.57973 q 0.33524,0.92149 0.0913,1.7285 -0.24805,0.80092 -1.02691,1.32273 -1.08919,0.7297 -2.23974,0.38089 -1.15463,-0.35489 -2.05963,-1.70574 -0.90908,-1.35692 -0.79398,-2.55367 0.1151,-1.19674 1.20429,-1.92645 0.77886,-0.5218 1.61801,-0.44042 0.83506,0.0753 1.55566,0.72979 -0.38829,-1.02699 -0.11609,-1.92345 0.26812,-0.90254 1.13825,-1.48549 1.32042,-0.88463 2.56845,-0.54822 1.24396,0.33032 2.25088,1.83328 1.00691,1.50296 0.84325,2.78513 -0.16773,1.27609 -1.48815,2.16071 -0.87014,0.58295 -1.80682,0.48757 -0.93669,-0.0954 -1.73875,-0.84516 z m -1.63941,1.75071 q 0.70584,-0.47288 0.80785,-1.17597 0.0979,-0.70918 -0.43611,-1.50629 -0.52995,-0.79104 -1.22306,-0.97026 -0.69719,-0.18529 -1.40303,0.28759 -0.70585,0.47288 -0.79969,1.18814 -0.0979,0.70917 0.43203,1.50021 0.53403,0.79711 1.22714,0.97633 0.68902,0.17313 1.39487,-0.29975 z m -394.477139,226.94859 -5.841475,3.91352 -0.35059,-0.5233 -2.43775,-10.77092 1.283908,-0.86016 2.290039,10.12934 4.362847,-2.92291 z m -0.367164,-73.84116 5.467113,4.42145 -0.396086,0.48976 -9.566823,5.51646 -1.201626,-0.97179 8.997703,-5.18548 -4.083246,-3.30226 z M 202.00044,753.39817 q -0.002,-0.99609 -0.68466,-1.58051 -0.68245,-0.57711 -1.86897,-0.57447 -1.17919,0.003 -1.86638,0.58277 -0.67985,0.58746 -0.67763,1.58354 0.002,0.99609 0.68465,1.57319 0.68978,0.5844 1.86897,0.58178 1.18652,-0.003 1.86638,-0.59008 0.67986,-0.58013 0.67764,-1.57622 z m 4.64275,2.92669 -1.34765,0.003 q 0.26243,-0.55723 0.40032,-1.12882 0.1379,-0.56427 0.13666,-1.12091 -0.003,-1.46485 -0.99375,-2.23902 -0.99047,-0.76684 -2.99022,-0.87225 0.63817,0.43071 0.97652,1.08181 0.34569,0.65109 0.34744,1.43478 0.004,1.64795 -0.99764,2.60233 -0.99395,0.96168 -2.71514,0.96551 -1.68457,0.004 -2.70485,-0.99008 -1.02027,-0.99384 -1.02395,-2.6491 -0.004,-1.89697 1.44374,-2.90361 1.45528,-1.00666 4.2165,-1.0128 2.59278,-0.006 4.13359,1.22129 1.54814,1.22703 1.55275,3.29977 0.001,0.55664 -0.10737,1.12085 -0.1086,0.57154 -0.32695,1.18725 z M 76.538392,634.91345 q -0.554414,-0.82754 -1.446441,-0.93521 -0.887939,-0.10158 -1.873685,0.55883 -0.979665,0.65633 -1.229597,1.52023 -0.239763,0.86591 0.314651,1.69345 0.554419,0.82755 1.442358,0.92913 0.898109,0.10359 1.877774,-0.55274 0.985746,-0.66041 1.225508,-1.52632 0.243851,-0.85983 -0.310568,-1.68737 z m 5.486431,-0.14045 -1.119619,0.75009 q -0.09077,-0.6092 -0.293122,-1.16127 -0.198288,-0.54599 -0.508108,-1.00844 -0.815315,-1.21697 -2.068892,-1.31163 -1.249498,-0.0886 -2.971818,0.93305 0.769905,0.004 1.412624,0.35838 0.648804,0.34995 1.084998,1.00103 0.917232,1.3691 0.61356,2.71863 -0.293508,1.35153 -1.723451,2.30952 -1.39952,0.93762 -2.799733,0.67673 -1.400213,-0.2609 -2.321525,-1.63608 -1.055834,-1.57598 -0.40952,-3.21678 0.652396,-1.64487 2.946391,-3.18174 2.154041,-1.44311 4.116734,-1.27693 1.968774,0.1621 3.122452,1.88412 0.30982,0.46245 0.532444,0.99213 0.226695,0.53577 0.386585,1.16919 z m 40.310497,4.17481 4.8253,-3.23273 0.69302,1.03443 -3.6996,2.47856 1.49203,2.22706 q 0.20658,-0.27064 0.44578,-0.49261 0.23512,-0.22805 0.50286,-0.40742 1.52122,-1.01915 2.9681,-0.7807 1.44688,0.23845 2.40081,1.66231 0.98245,1.46645 0.61598,2.89331 -0.37054,1.42078 -2.03171,2.53368 -0.57198,0.38321 -1.23352,0.68535 -0.65546,0.29808 -1.41874,0.52732 l -0.82755,-1.23523 q 0.7474,-0.0687 1.42939,-0.31405 0.68198,-0.24531 1.33306,-0.68151 1.05268,-0.70525 1.29629,-1.6707 0.2436,-0.96546 -0.39235,-1.9147 -0.63595,-0.94924 -1.62149,-1.09123 -0.98554,-0.14199 -2.03823,0.56326 -0.49287,0.3302 -0.91236,0.76994 -0.41342,0.43565 -0.76963,1.0093 z m 70.43965,22.05759 1.65972,5.56592 -1.1932,0.35581 -1.27252,-4.26744 -2.56889,0.76602 q 0.19738,0.27744 0.3386,0.57161 0.14824,0.29209 0.24033,0.60092 0.52324,1.7547 -0.13276,3.06618 -0.65601,1.31148 -2.29841,1.80123 -1.69153,0.50441 -2.946,-0.26795 -1.24744,-0.77446 -1.81882,-2.69059 -0.19674,-0.65977 -0.28955,-1.3811 -0.0907,-0.71431 -0.0838,-1.51125 l 1.42482,-0.42487 q -0.15556,0.73425 -0.12309,1.45828 0.0325,0.72404 0.25643,1.47506 0.36208,1.21425 1.21218,1.73268 0.8501,0.51845 1.94503,0.19195 1.09494,-0.32651 1.52226,-1.22587 0.42732,-0.89935 0.0652,-2.11361 -0.16953,-0.56852 -0.4654,-1.09938 -0.29377,-0.52382 -0.7363,-1.03387 z m 212.95381,122.0679 -3.72236,5.84569 3.73534,-0.008 z m -0.39104,-1.28819 1.86034,-0.004 0.0159,7.12644 1.56005,-0.003 0.003,1.23047 -1.56006,0.003 0.006,2.57812 -1.47217,0.003 -0.006,-2.57813 -4.93651,0.011 -0.003,-1.42822 z m -264.74098,-474.04014 -3.96491,-5.68398 -1.42866,3.45134 z m 1.33952,0.13436 -0.71153,1.7189 -6.58463,-2.72566 -0.59667,1.44144 -1.13691,-0.47061 0.59668,-1.44145 -2.38211,-0.98606 0.56306,-1.36024 2.38211,0.98606 1.88808,-4.56118 1.31963,0.54625 z m 415.51834,187.43614 q 0.0859,1.08261 -0.43242,1.85624 -0.51622,0.78066 -1.52693,1.08204 -1.55115,0.46255 -2.71856,-0.35106 -1.1674,-0.81361 -1.75343,-2.77888 -0.19674,-0.65977 -0.27268,-1.40141 -0.0809,-0.73254 -0.043,-1.55398 l 1.36868,-0.40813 q -0.16812,0.69215 -0.13429,1.44635 0.0338,0.7542 0.26196,1.51925 0.39766,1.33357 1.13127,1.87147 0.73571,0.5449 1.7394,0.24561 0.92648,-0.27627 1.25123,-1.0839 0.33386,-0.8027 -0.0115,-1.9608 l -0.36418,-1.22128 1.16513,-0.34743 0.38092,1.27743 q 0.31185,1.0458 0.8913,1.4768 0.58647,0.4289 1.37258,0.19449 0.80716,-0.24069 1.06369,-0.9439 0.26564,-0.69828 -0.0525,-1.76514 -0.17372,-0.58256 -0.4989,-1.21168 -0.32516,-0.62912 -0.83047,-1.34973 l 1.26338,-0.37673 q 0.46529,0.74019 0.78689,1.40858 0.3237,0.67542 0.50997,1.30009 0.48138,1.61432 0.0249,2.77461 -0.44951,1.15818 -1.69885,1.53073 -0.87033,0.25953 -1.62255,-0.0588 -0.7452,-0.32044 -1.251,-1.17083 z M 452.55943,630.62734 q -1.06392,-0.21796 -1.66331,-0.93062 -0.6067,-0.7126 -0.61573,-1.76725 -0.0139,-1.61859 1.09179,-2.51432 1.10566,-0.89573 3.15636,-0.91329 0.68846,-0.006 1.42204,0.127 0.7262,0.12561 1.50486,0.38996 l 0.0122,1.42816 q -0.61829,-0.35361 -1.35225,-0.53043 -0.73396,-0.17683 -1.53227,-0.17 -1.39155,0.0119 -2.11192,0.56742 -0.72769,0.55557 -0.71873,1.60289 0.008,0.96677 0.69404,1.50291 0.67851,0.54352 1.88696,0.53317 l 1.27437,-0.0109 0.0104,1.21578 -1.33296,0.0114 q -1.09127,0.009 -1.66616,0.44641 -0.57484,0.4444 -0.56782,1.26468 0.007,0.84225 0.61161,1.28387 0.59712,0.449 1.71036,0.43947 0.60789,-0.005 1.30254,-0.14298 0.69464,-0.13779 1.5272,-0.42325 l 0.0113,1.31831 q -0.84025,0.24157 -1.57164,0.36503 -0.73872,0.12352 -1.39054,0.1291 -1.68451,0.0144 -2.67251,-0.74619 -0.98792,-0.75329 -0.99908,-2.05696 -0.008,-0.90817 0.50683,-1.54248 0.51466,-0.62699 1.47204,-0.87689 z m 175.9945,-158.4895 -1.47554,-4.94826 1.1932,-0.3558 1.98413,6.65383 -1.1932,0.35581 q -1.07593,-0.55811 -2.89409,-1.52924 -1.82728,-0.97605 -2.34112,-1.21262 -0.96807,-0.4527 -1.57401,-0.56244 -0.61505,-0.11466 -1.12742,0.0381 -0.83524,0.24906 -1.18585,0.99561 -0.35269,0.73954 -0.0722,1.68006 0.19884,0.66679 0.65231,1.34171 0.45138,0.66791 1.17279,1.36993 l -1.43183,0.42697 q -0.59926,-0.75374 -0.99659,-1.44541 -0.39732,-0.69167 -0.5815,-1.30933 -0.48556,-1.62836 0.0398,-2.83974 0.52534,-1.21137 1.88699,-1.61741 0.64574,-0.19255 1.30155,-0.12061 0.64671,0.067 1.62327,0.47132 0.25587,0.11477 1.51195,0.76437 1.24905,0.65169 3.50741,1.84313 z m -401.29262,-185.2314 2.00511,-4.75836 1.14741,0.48351 -2.69623,6.39848 -1.14741,-0.4835 q -0.47611,-1.11465 -1.26286,-3.01986 -0.79066,-1.91481 -1.03707,-2.42399 -0.45981,-0.96471 -0.85795,-1.4345 -0.40204,-0.47938 -0.89475,-0.687 -0.80318,-0.33845 -1.5483,0.0152 -0.74226,0.3469 -1.12338,1.25133 -0.27019,0.6412 -0.34894,1.4505 -0.0759,0.80255 0.035,1.80304 l -1.37689,-0.5802 q 0.0163,-0.9628 0.149,-1.74935 0.13274,-0.78654 0.38302,-1.38049 0.65984,-1.56587 1.83527,-2.16738 1.17543,-0.60151 2.48482,-0.0498 0.62095,0.26166 1.08161,0.73396 0.45675,0.46269 0.95387,1.39544 0.12464,0.25122 0.6817,1.55098 0.55031,1.29691 1.53695,3.65196 z m 424.71067,407.59059 2.3162,-0.69067 -2.38388,-7.99442 -2.36906,1.25672 -0.3851,-1.29145 2.35502,-1.25255 1.4178,-0.42278 2.76899,9.28588 2.31621,-0.69067 0.3558,1.1932 -6.03618,1.79994 z m -41.20677,58.21117 -0.005,-2.41699 -8.34226,0.0186 0.53319,2.62821 -1.34766,0.003 -0.53315,-2.61356 -0.003,-1.47949 9.68992,-0.0215 -0.005,-2.417 1.24511,-0.003 0.014,6.29882 z m 59.80337,-109.17575 q 0.32651,1.09494 1.57275,1.32712 1.23712,0.22724 3.39892,-0.41739 2.15478,-0.64254 3.07242,-1.51233 0.90853,-0.87471 0.58203,-1.96965 -0.3286,-1.10195 -1.56572,-1.32919 -1.24624,-0.23217 -3.40102,0.41037 -2.1618,0.64463 -3.07032,1.51934 -0.91765,0.86978 -0.58906,1.97173 z m -1.12301,0.33488 q -0.52533,-1.76171 0.59514,-3.1047 1.11137,-1.34791 3.76447,-2.13905 2.64609,-0.78904 4.3212,-0.27204 1.666,0.51208 2.19133,2.27379 0.52533,1.76172 -0.58603,3.10963 -1.12047,1.34298 -3.76656,2.13203 -2.65311,0.79114 -4.31911,0.27906 -1.67511,-0.517 -2.20044,-2.27872 z M 238.31253,145.08537 q 0.88841,0.71849 2.04757,0.20532 1.14888,-0.51208 2.56742,-2.26611 1.41394,-1.74834 1.67901,-2.9846 0.25477,-1.23516 -0.63363,-1.95365 -0.8941,-0.72309 -2.04297,-0.21101 -1.15918,0.51317 -2.57312,2.2615 -1.41855,1.75403 -1.67331,2.98921 -0.26507,1.23626 0.62903,1.95934 z m -0.73691,0.91119 q -1.42942,-1.15602 -1.26462,-2.89726 0.1545,-1.74015 1.89544,-3.89282 1.73634,-2.14698 3.41029,-2.66772 1.66365,-0.51964 3.09307,0.63639 1.42943,1.15602 1.27493,2.89617 -0.1648,1.74123 -1.90114,3.88821 -1.74094,2.15268 -3.4046,2.67232 -1.67395,0.52073 -3.10337,-0.63529 z" />
    <path
       id="path7647"
       style="fill:none;stroke:#ff0000;stroke-width:1;stroke-linecap:butt;stroke-linejoin:miter;stroke-miterlimit:10;stroke-dasharray:none;stroke-opacity:1"
       d="m 192.91621,93.633482 53.3872,-66.013236 m 265.474,340.393354 14.01931,-19.83049 44.74574,-13.34274 22.59267,8.91533 M 400.32097,261.36809 192.91621,93.633482 m -14.36756,315.945408 41.56448,-45.81808 121.97284,-81.51634 58.235,-20.87638 M 246.30341,27.620246 453.70817,195.35485 m 90.15729,280.27426 -41.45909,45.91345 -121.79131,81.7917 -58.18349,21.0081 m 131.2766,-428.98751 25.27518,1.14811 38.72566,31.32017 6.41188,24.47807 m -6.13254,136.54397 25.87711,86.78394 m -19.74457,-223.32791 -0.34872,24.2817 -29.36454,36.3079 -23.67375,5.41964 m 0,0 47.25447,70.53473 M 45.98078,602.8797 121.2129,552.47589 m 0,0 -25.274926,-1.15309 -38.72471,-31.31913 -6.41208,-24.47407 m 143.733726,299.15643 -15.04357,-19.06755 -0.10061,-46.69175 14.95494,-19.13611 M 93.232444,673.41028 45.98078,602.8797 m 122.48678,20.12693 -75.235116,50.40365 m 101.113226,36.38034 -20.19714,-15.24205 -14.23044,-47.73057 8.54947,-23.81137 m 445.1359,170.74931 -419.06855,0.93009 M 50.801184,495.5296 73.004585,402.6707 161.15909,189.70834 211.08327,108.32392 M 587.53616,622.07554 511.77741,368.0136 m -189.34584,256.32876 59.52072,-15.50881 145.80538,-1.24811 59.77849,14.4901 m 5.59897,-278.31984 75.75895,254.05795 m -387.39909,-432.54344 -9.33827,60.7949 -56.62295,134.3709 -36.98512,49.14288 m 516.22255,275.0187 -14.01837,19.83154 -44.74674,13.34269 -22.59267,-8.91533 m 0,0 0.19004,84.89945 m 55.29062,-195.94229 20.1972,15.24105 14.23458,47.72778 -8.55466,23.81511 m -483.68793,-576.27367 70.41172,56.94629" />
  </g>
</svg>
