<?xml version="1.0" encoding="UTF-8" standalone="no"?>
<!-- Created with Inkscape (http://www.inkscape.org/) -->

<svg
   version="1.1"
   id="svg8451"
   width="1132"
   height="1132"
   viewBox="0 0 1132 1132"
   sodipodi:docname="W.svg"
   inkscape:version="1.2.2 (732a01da63, 2022-12-09, custom)"
   xmlns:inkscape="http://www.inkscape.org/namespaces/inkscape"
   xmlns:sodipodi="http://sodipodi.sourceforge.net/DTD/sodipodi-0.dtd"
   xmlns="http://www.w3.org/2000/svg"
   xmlns:svg="http://www.w3.org/2000/svg">
  <defs
     id="defs8455" />
  <sodipodi:namedview
     id="namedview8453"
     pagecolor="#ffffff"
     bordercolor="#666666"
     borderopacity="1.0"
     inkscape:showpageshadow="2"
     inkscape:pageopacity="0.0"
     inkscape:pagecheckerboard="0"
     inkscape:deskcolor="#d1d1d1"
     showgrid="false"
     showguides="true"
     inkscape:zoom="0.63237236"
     inkscape:cx="1082.4319"
     inkscape:cy="589.05168"
     inkscape:window-width="1920"
     inkscape:window-height="1009"
     inkscape:window-x="0"
     inkscape:window-y="0"
     inkscape:window-maximized="1"
     inkscape:current-layer="g8679">
    <inkscape:page
       x="0"
       y="0"
       id="page8457"
       width="1132"
       height="1132" />
    <inkscape:page
       x="1152"
       y="0"
       id="page8677"
       width="1132"
       height="1132" />
  </sodipodi:namedview>
  <g
     id="g8459"
     inkscape:groupmode="layer"
     inkscape:label="Page 1"
     transform="matrix(1.3333333,0,0,1.3333333,0,2.83e-5)">
    <g
       id="g10060">
      <path
         id="path9505"
         style="font-size:15px;font-family:'DejaVu Sans';-inkscape-font-specification:DejaVuSans;fill:#0000ff"
         d="m 617.54546,190.16501 -3.75323,5.82592 3.73534,0.0114 z m -0.38424,-1.29025 1.86035,0.006 -0.0218,7.12642 1.56004,0.005 -0.004,1.23047 -1.56004,-0.005 -0.008,2.5781 -1.47216,-0.005 0.008,-2.57811 -4.9365,-0.0151 0.004,-1.42821 z M 357.5553,315.5325 l -4.58828,-5.19382 -1.02503,3.59195 z m 1.34611,-0.0195 -0.51051,1.78893 -6.8529,-1.9556 -0.4281,1.50017 -1.18323,-0.33766 0.4281,-1.50017 -2.47915,-0.70747 0.40398,-1.41566 2.47915,0.70747 1.35465,-4.74701 1.37341,0.39193 z m 110.34498,294.60319 q -1.06131,-0.23031 -1.65237,-0.9499 -0.59839,-0.71961 -0.59515,-1.7743 0.005,-1.61864 1.12095,-2.50145 1.11599,-0.88282 3.16676,-0.87653 0.68848,0.002 1.42047,0.14352 0.72469,0.13405 1.50022,0.40743 l -0.004,1.42821 q -0.61414,-0.36077 -1.346,-0.54612 -0.73185,-0.18534 -1.53019,-0.18779 -1.39159,-0.004 -2.11837,0.54282 -0.7341,0.54707 -0.73731,1.59443 -0.003,0.96679 0.67652,1.51087 0.67214,0.55138 1.88064,0.55508 l 1.2744,0.004 -0.004,1.21581 -1.333,-0.004 q -1.0913,-0.003 -1.67124,0.42701 -0.57995,0.43767 -0.58246,1.25798 -0.003,0.84228 0.59662,1.29089 0.59187,0.45593 1.70515,0.45934 0.60791,0.002 1.30411,-0.12784 0.6962,-0.12971 1.53201,-0.40547 l -0.004,1.31836 q -0.84301,0.23179 -1.57578,0.34674 -0.74011,0.11491 -1.39196,0.11291 -1.68456,-0.005 -2.66365,-0.77721 -0.9791,-0.76472 -0.9751,-2.06843 0.003,-0.90819 0.52473,-1.53648 0.52193,-0.62096 1.48214,-0.85971 z M 382.67763,490.62485 q 0.49282,-0.96776 1.33914,-1.35622 0.8482,-0.39555 1.86733,-0.12402 1.56409,0.41673 2.13383,1.72065 0.56973,1.30391 0.0418,3.28556 -0.17725,0.66528 -0.50029,1.33718 -0.31407,0.66671 -0.77581,1.34714 l -1.38008,-0.3677 q 0.50518,-0.5021 0.87069,-1.16269 0.36549,-0.66059 0.57103,-1.43202 0.35827,-1.34469 0.0142,-2.18677 -0.34224,-0.84916 -1.35429,-1.1188 -0.93421,-0.24891 -1.6333,0.26974 -0.70428,0.50969 -1.01542,1.67745 l -0.3281,1.23145 -1.17483,-0.31302 0.34319,-1.28807 q 0.28096,-1.05452 0.0124,-1.72488 -0.27567,-0.67225 -1.06832,-0.88344 -0.8139,-0.21685 -1.40023,0.24846 -0.59154,0.45635 -0.87817,1.53211 -0.15651,0.58742 -0.20825,1.2937 -0.0517,0.70629 0.002,1.58476 l -1.27391,-0.33942 q -0.01,-0.87424 0.0657,-1.61214 0.0772,-0.74498 0.24504,-1.37486 0.4337,-1.62778 1.4295,-2.37815 0.98872,-0.75225 2.24848,-0.4166 0.87758,0.23382 1.35235,0.89847 0.46769,0.66277 0.45422,1.65213 z m -121.38736,153.31268 -0.0158,5.16355 -1.24511,-0.004 0.0213,-6.94332 1.24511,0.004 q 0.869,0.84495 2.3294,2.29964 1.46768,1.46202 1.89134,1.83685 0.79616,0.7129 1.34462,0.9929 0.55577,0.28735 1.09043,0.28899 0.87158,0.003 1.42278,-0.61088 0.55118,-0.60622 0.55419,-1.58766 0.002,-0.69579 -0.23719,-1.4729 -0.23934,-0.76978 -0.72737,-1.65019 l 1.49414,0.005 q 0.35614,0.89466 0.53687,1.67157 0.18072,0.77693 0.17875,1.42146 -0.005,1.69921 -0.85791,2.70734 -0.85271,1.00814 -2.2736,1.00379 -0.67383,-0.002 -1.28095,-0.26028 -0.59982,-0.25087 -1.41809,-0.91988 -0.21183,-0.18376 -1.22689,-1.16832 -1.00773,-0.98454 -2.82597,-2.77723 z m -45.39379,-36.36373 5.06906,-0.98341 0.23713,1.22233 -6.81626,1.32237 -0.23714,-1.22233 q 0.66088,-1.01604 1.80555,-2.73026 1.15047,-1.72281 1.43626,-2.21099 0.5454,-0.91903 0.71401,-1.51129 0.1744,-0.60086 0.0726,-1.12574 -0.166,-0.85563 -0.87459,-1.27772 -0.7014,-0.42349 -1.66488,-0.23657 -0.68307,0.13251 -1.39919,0.51765 -0.70894,0.38374 -1.4783,1.03287 l -0.28456,-1.4668 q 0.80885,-0.52249 1.53613,-0.8501 0.72729,-0.32761 1.36002,-0.45036 1.66812,-0.32362 2.82217,0.31794 1.15405,0.64156 1.42466,2.03645 0.12833,0.66149 -0.008,1.3071 -0.13008,0.63702 -0.62815,1.56925 -0.13931,0.24339 -0.90889,1.42974 -0.77099,1.17916 -2.17806,3.30987 z m 171.73651,-409.71104 2.41698,0.007 0.0256,-8.34224 -2.63099,0.51928 0.004,-1.34765 2.61636,-0.51933 1.47948,0.005 -0.0297,9.6899 2.41698,0.007 -0.004,1.24511 -6.2988,-0.0193 z m -93.73764,114.68604 -0.41971,-2.38027 -8.21554,1.44862 0.97592,2.49787 -1.32719,0.23402 -0.97337,-2.48345 -0.25691,-1.45702 9.54273,-1.68264 -0.41971,-2.38027 1.2262,-0.21621 1.09378,6.20313 z M 192.25417,158.54528 q 0.004,-1.14257 -1.12265,-1.72464 -1.11884,-0.57472 -3.37469,-0.58164 -2.24853,-0.007 -3.37821,0.56094 -1.12237,0.57517 -1.12587,1.71775 -0.004,1.14989 1.11532,1.72462 1.12615,0.58206 3.37468,0.58895 2.25585,0.007 3.37822,-0.56825 1.12967,-0.56783 1.1332,-1.71773 z m 1.17187,0.004 q -0.006,1.83838 -1.46611,2.8007 -1.45318,0.96967 -4.22172,0.96119 -2.76121,-0.008 -4.21574,-0.98705 -1.44723,-0.97124 -1.44159,-2.80961 0.006,-1.83838 1.45881,-2.80805 1.46048,-0.96232 4.22169,-0.95386 2.76854,0.008 4.21577,0.97973 1.45453,0.97858 1.44889,2.81695 z m -53.22219,60.94662 q 1.12167,-0.2176 1.47488,-1.43509 0.34741,-1.20889 -0.0822,-3.42346 -0.42824,-2.20738 -1.20388,-3.20587 -0.78145,-0.98989 -1.90311,-0.77228 -1.12886,0.219 -1.47627,1.42789 -0.35321,1.21748 0.075,3.42486 0.42963,2.21458 1.21107,3.20447 0.77565,0.99848 1.9045,0.77948 z m 0.22319,1.15043 q -1.80473,0.35012 -3.03142,-0.89659 -1.23248,-1.23814 -1.75975,-3.95602 -0.52588,-2.71069 0.15282,-4.32705 0.67291,-1.60778 2.47764,-1.9579 1.80473,-0.35013 3.03722,0.88801 1.22668,1.24671 1.75256,3.95741 0.52727,2.71787 -0.14564,4.32566 -0.6787,1.61636 -2.48343,1.96648 z" />
      <path
         d="m 501.40945,116.05523 -0.258,84.898"
         style="fill:none;stroke:#00ff00;stroke-width:1;stroke-linecap:butt;stroke-linejoin:miter;stroke-miterlimit:10;stroke-dasharray:8, 2, 2, 2;stroke-dashoffset:0;stroke-opacity:1"
         id="path8643" />
      <path
         id="path9591"
         style="font-size:15px;font-family:'DejaVu Sans';-inkscape-font-specification:DejaVuSans"
         d="m 676.61499,635.44012 5.8374,3.73536 v -3.73536 z m -1.28906,0.38819 v -1.86035 h 7.12646 v -1.56006 h 1.23047 v 1.56006 h 2.57813 v 1.47216 h -2.57813 v 4.93653 h -1.42822 z m 9.68994,12.96039 v -2.417 h -8.34229 l 0.52735,2.6294 h -1.34766 l -0.52734,-2.61475 v -1.47949 h 9.68994 v -2.41699 h 1.24512 v 6.29883 z m -44.15375,-46.14063 h -5.16357 v -1.24512 h 6.94336 v 1.24512 q -0.84229,0.87158 -2.29248,2.33643 -1.45752,1.47217 -1.83106,1.89697 -0.71045,0.79834 -0.98877,1.34766 -0.28564,0.55664 -0.28564,1.0913 0,0.87159 0.61523,1.4209 0.60791,0.54932 1.58936,0.54932 0.6958,0 1.47217,-0.2417 0.76904,-0.2417 1.64794,-0.73242 v 1.49414 q -0.89355,0.35889 -1.66992,0.54199 -0.77636,0.18311 -1.4209,0.18311 -1.69921,0 -2.70996,-0.84961 -1.01074,-0.84961 -1.01074,-2.27051 0,-0.67383 0.25635,-1.28174 0.24902,-0.60058 0.91553,-1.4209 0.1831,-0.2124 1.16455,-1.23047 0.98144,-1.01074 2.76855,-2.83447 z m 10.55805,0 h -2.417 v 8.34229 l 2.6294,-0.52735 v 1.34766 l -2.61475,0.52734 h -1.47949 v -9.68994 h -2.41699 v -1.24512 h 6.29883 z m -41.0044,45.94916 q 0,-0.99609 -0.68115,-1.58203 -0.68115,-0.57862 -1.86768,-0.57862 -1.1792,0 -1.86767,0.57862 -0.68115,0.58594 -0.68115,1.58203 0,0.99609 0.68115,1.57471 0.68847,0.58593 1.86767,0.58593 1.18653,0 1.86768,-0.58593 0.68115,-0.57862 0.68115,-1.57471 z m 4.63623,2.93701 h -1.34765 q 0.26367,-0.55664 0.40283,-1.12793 0.13916,-0.56396 0.13916,-1.1206 0,-1.46485 -0.98877,-2.24122 -0.98877,-0.76904 -2.98828,-0.8789 0.6372,0.43213 0.97412,1.08398 0.34424,0.65186 0.34424,1.43555 0,1.64795 -1.00342,2.6001 -0.9961,0.95947 -2.71729,0.95947 -1.68457,0 -2.70263,-0.99609 -1.01807,-0.9961 -1.01807,-2.65137 0,-1.89697 1.4502,-2.90039 1.45752,-1.00342 4.21875,-1.00342 2.59277,0 4.13085,1.23047 1.54542,1.23047 1.54542,3.30322 0,0.55664 -0.10987,1.12061 -0.10986,0.57129 -0.32959,1.18652 z m -9.44824,-15.56781 v 2.41699 h 8.34228 l -0.52734,-2.62939 h 1.34766 l 0.52734,2.61474 v 1.4795 h -9.68994 v 2.41699 h -1.24512 v -6.29883 z m 42.80029,36.3999 h 5.80811 v 1.24512 h -4.45313 v 2.68066 q 0.32227,-0.10986 0.64453,-0.16113 0.32227,-0.0586 0.64454,-0.0586 1.83105,0 2.90039,1.00342 1.06933,1.00341 1.06933,2.71728 0,1.76514 -1.09863,2.74658 -1.09863,0.97412 -3.09815,0.97412 -0.68847,0 -1.40625,-0.11718 -0.71044,-0.11719 -1.47216,-0.35157 v -1.48681 q 0.65918,0.35888 1.3623,0.53467 0.70313,0.17578 1.48682,0.17578 1.26709,0 2.00683,-0.66651 0.73975,-0.6665 0.73975,-1.80908 0,-1.14258 -0.73975,-1.80908 -0.73974,-0.66651 -2.00683,-0.66651 -0.59326,0 -1.18653,0.13184 -0.58593,0.13184 -1.20117,0.41016 z m -9.29834,9.68994 h 2.417 v -8.34228 l -2.6294,0.52734 v -1.34765 l 2.61475,-0.52735 h 1.47949 v 9.68994 h 2.41699 v 1.24512 h -6.29883 z m 80.39974,-529.79412 5.82592,3.75323 0.0114,-3.73534 z m -1.29025,0.38424 0.006,-1.86035 7.12643,0.0218 0.005,-1.56004 1.23047,0.004 -0.005,1.56004 2.57811,0.008 -0.005,1.47216 -2.57812,-0.008 -0.0151,4.9365 -1.42821,-0.004 z m 9.65017,12.99004 0.007,-2.41698 -8.34225,-0.0256 0.51928,2.63099 -1.34765,-0.004 -0.51932,-2.61634 0.005,-1.4795 9.6899,0.0297 0.007,-2.41698 1.24511,0.004 -0.0193,6.2988 z M 608.55801,123.77832 q -1.06131,-0.2303 -1.65237,-0.94988 -0.59838,-0.71961 -0.59515,-1.7743 0.005,-1.61864 1.12095,-2.50145 1.11599,-0.88283 3.16676,-0.87654 0.68848,0.002 1.42047,0.14351 0.72469,0.13407 1.50023,0.40745 l -0.004,1.42821 q -0.61414,-0.36078 -1.34599,-0.54612 -0.73186,-0.18535 -1.53019,-0.1878 -1.3916,-0.004 -2.11838,0.54283 -0.7341,0.54706 -0.73731,1.59443 -0.003,0.96678 0.67652,1.51087 0.67215,0.55137 1.88064,0.55507 l 1.27441,0.004 -0.004,1.21581 -1.33301,-0.004 q -1.0913,-0.003 -1.67123,0.42701 -0.57996,0.43768 -0.58247,1.25799 -0.003,0.84227 0.59663,1.29089 0.59186,0.45592 1.70515,0.45933 0.6079,0.002 1.3041,-0.12783 0.6962,-0.12971 1.53201,-0.40547 l -0.004,1.31836 q -0.843,0.23178 -1.57578,0.34673 -0.7401,0.11492 -1.39195,0.11292 -1.68456,-0.005 -2.66365,-0.77721 -0.9791,-0.76472 -0.97511,-2.06843 0.003,-0.9082 0.52474,-1.53648 0.52192,-0.62097 1.48213,-0.85973 z m 13.78024,-4.60866 -2.41698,-0.007 -0.0256,8.34225 2.63099,-0.51928 -0.004,1.34764 -2.61634,0.51933 -1.47948,-0.005 0.0297,-9.68991 -2.41699,-0.007 0.004,-1.24511 6.2988,0.0193 z m -205.57756,84.27234 -5.16354,-0.0158 0.004,-1.2451 6.94333,0.0213 -0.004,1.24511 q -0.84496,0.869 -2.29964,2.32939 -1.46202,1.46769 -1.83686,1.89135 -0.71289,0.79615 -0.99289,1.34462 -0.28735,0.55576 -0.28899,1.09043 -0.003,0.87157 0.61088,1.42278 0.60622,0.55117 1.58766,0.55418 0.69579,0.002 1.4729,-0.23719 0.76978,-0.23934 1.65019,-0.72737 l -0.005,1.49414 q -0.89466,0.35615 -1.67157,0.53687 -0.77693,0.18073 -1.42146,0.17875 -1.69921,-0.005 -2.70734,-0.85791 -1.00814,-0.85271 -1.00379,-2.2736 0.002,-0.67383 0.26028,-1.28095 0.25087,-0.59981 0.91988,-1.41808 0.18375,-0.21184 1.16832,-1.22689 0.98454,-1.00774 2.77722,-2.82598 z m 10.55803,0.0324 -2.41697,-0.007 -0.0256,8.34226 2.631,-0.51928 -0.004,1.34764 -2.61635,0.51933 -1.47949,-0.005 0.0297,-9.68991 -2.41698,-0.007 0.004,-1.24511 6.2988,0.0193 z m 63.58811,105.31636 -0.64896,-2.32824 -8.03595,2.23991 1.21397,2.39124 -1.29817,0.36185 -1.21004,-2.37714 -0.39724,-1.42517 9.33412,-2.60175 -0.64896,-2.32824 1.19939,-0.33431 1.69124,6.06753 z m 2.56149,9.18966 -0.64896,-2.32824 -8.03595,2.2399 1.21397,2.39126 -1.29817,0.36185 -1.21004,-2.37715 -0.39724,-1.42516 9.33412,-2.60175 -0.64897,-2.32824 1.1994,-0.33431 1.69124,6.06753 z m 62.11045,1.52586 q 0.20531,-1.12398 -0.8003,-1.89585 -0.99972,-0.76334 -3.21887,-1.16868 -2.21193,-0.40402 -3.42415,-0.0447 -1.20634,0.36784 -1.41164,1.49182 -0.20662,1.13119 0.7931,1.89453 1.00561,0.77187 3.21754,1.17589 2.21915,0.40534 3.42548,0.0375 1.21223,-0.35933 1.41884,-1.49051 z m 1.1528,0.21056 q -0.33032,1.80846 -1.93784,2.49763 -1.60162,0.69769 -4.32512,0.20023 -2.71629,-0.49615 -3.97505,-1.7163 -1.25288,-1.21163 -0.92255,-3.02009 0.33032,-1.80846 1.93194,-2.50615 1.60752,-0.68918 4.32381,-0.19303 2.7235,0.49746 3.97637,1.7091 1.25877,1.22015 0.92844,3.02861 z m -7.49013,-14.02176 -0.43429,2.37765 8.20651,1.49896 -0.0463,-2.68134 1.32572,0.24215 0.0489,2.66693 -0.26584,1.45542 -9.53224,-1.74111 -0.43429,2.37765 -1.22485,-0.22372 1.13179,-6.19632 z m 63.70295,-102.67168 -0.004,1.34766 q -0.55583,-0.26539 -1.12669,-0.4063 -0.57086,-0.14091 -1.12017,-0.14259 -1.46484,-0.004 -2.23689,0.97459 -0.7794,0.98639 -0.89541,2.99287 0.42674,-0.62857 1.07962,-0.96348 0.65289,-0.33492 1.4439,-0.3325 1.64062,0.005 2.59705,0.99674 0.9491,0.99901 0.94382,2.72019 -0.005,1.68457 -1.00438,2.69957 -0.9992,1.01501 -2.65447,1.00994 -1.89697,-0.006 -2.88859,-1.46639 -0.99897,-1.45325 -0.99048,-4.2218 0.008,-2.58544 1.24313,-4.12707 1.22786,-1.53432 3.3006,-1.52797 0.55663,0.002 1.12758,0.11332 0.57096,0.11161 1.18551,0.33322 z m -2.95853,4.62719 q -0.99609,-0.003 -1.57679,0.67632 -0.58802,0.67935 -0.59166,1.86587 -0.004,1.17919 0.58023,1.86214 0.5765,0.69025 1.5726,0.6933 0.99608,0.003 1.58413,-0.68363 0.58069,-0.67937 0.58431,-1.85856 0.004,-1.18653 -0.57288,-1.86945 -0.58385,-0.68294 -1.57994,-0.68599 z m 2.32061,192.36794 q -0.19314,1.03686 0.24996,1.73776 0.44445,0.69371 1.4165,0.87478 0.97205,0.18107 1.63646,-0.30609 0.66575,-0.49435 0.85889,-1.53121 0.19314,-1.03684 -0.24997,-1.73775 -0.4503,-0.70225 -1.41515,-0.88197 -0.97205,-0.18107 -1.6378,0.31328 -0.66441,0.48715 -0.85889,1.5312 z m -0.89017,1.33913 q -0.40477,0.89312 -1.14352,1.29938 -0.73739,0.39906 -1.65904,0.22738 -1.28887,-0.24008 -1.86737,-1.29402 -0.57715,-1.06114 -0.27939,-2.65962 0.2991,-1.60568 1.21826,-2.38063 0.91918,-0.77496 2.20805,-0.53488 0.92165,0.17168 1.46456,0.81668 0.54427,0.63779 0.60166,1.60957 0.44064,-1.00566 1.26212,-1.4561 0.82281,-0.45765 1.85247,-0.26585 1.56247,0.29105 2.21933,1.40428 0.6582,1.10604 0.32691,2.88452 -0.33129,1.7785 -1.34492,2.58056 -1.01229,0.79486 -2.57476,0.50381 -1.02966,-0.1918 -1.63251,-0.91501 -0.60285,-0.72322 -0.65185,-1.82007 z m -2.39616,0.10497 q 0.83524,0.15559 1.39983,-0.27567 0.56594,-0.43843 0.74165,-1.38169 0.17436,-0.93605 -0.19576,-1.54885 -0.36877,-0.62001 -1.20401,-0.7756 -0.83524,-0.15558 -1.40252,0.29007 -0.56593,0.43844 -0.7403,1.37449 -0.1757,0.94325 0.19442,1.55605 0.37145,0.60562 1.20669,0.7612 z m -83.7452,188.9935 7.03122,0.0216 -0.002,0.62987 -4.0013,10.29297 -1.5454,-0.005 3.76503,-9.67845 -5.25143,-0.0161 z M 453.3961,494.34328 q -0.25054,-0.96406 -1.05718,-1.35984 -0.80479,-0.38868 -1.95317,-0.0902 -1.14129,0.2966 -1.66209,1.02978 -0.51188,0.73843 -0.26133,1.7025 0.25054,0.96407 1.05534,1.35275 0.81371,0.39394 1.955,0.0973 1.14838,-0.29844 1.66026,-1.03688 0.51371,-0.73133 0.26317,-1.69541 z m 5.22591,1.67647 -1.30433,0.33897 q 0.11519,-0.60507 0.10618,-1.193 -0.007,-0.58084 -0.14717,-1.11958 -0.36845,-1.41775 -1.52071,-1.92046 -1.15041,-0.49561 -3.11327,-0.099 0.7254,0.25797 1.21545,0.80413 0.49712,0.54431 0.69424,1.3028 0.4145,1.59497 -0.31716,2.76889 -0.72274,1.17917 -2.3886,1.6121 -1.63041,0.42371 -2.86629,-0.28429 -1.23587,-0.70799 -1.65222,-2.31006 -0.47714,-1.83598 0.67404,-3.1719 1.15828,-1.33776 3.83074,-2.03228 2.50942,-0.65215 4.30755,0.15188 1.80522,0.8022 2.32657,2.80833 0.14001,0.53874 0.17553,1.1122 0.0374,0.58056 -0.0206,1.23129 z m 111.76362,151.37946 0.0178,-5.80808 1.24512,0.004 -0.0136,4.4531 2.68064,0.008 q -0.10887,-0.32259 -0.15915,-0.64502 -0.0576,-0.32243 -0.0566,-0.6447 0.006,-1.83104 1.0123,-2.8973 1.00669,-1.06625 2.72055,-1.061 1.76513,0.005 2.7432,1.10705 0.97075,1.10161 0.96462,3.10111 -0.002,0.68847 -0.12149,1.40588 -0.11937,0.71009 -0.35609,1.47109 l -1.4868,-0.005 q 0.3609,-0.65808 0.53885,-1.36066 0.17793,-0.70258 0.18033,-1.48627 0.004,-1.26708 -0.66035,-2.00887 -0.66423,-0.74178 -1.80681,-0.74529 -1.14257,-0.004 -1.81134,0.7342 -0.66877,0.7377 -0.67265,2.00478 -0.002,0.59326 0.1282,1.18692 0.13004,0.58634 0.40647,1.20243 z m -97.17225,29.08612 -3.75323,5.82592 3.73533,0.0115 z m -0.38423,-1.29026 1.86034,0.006 -0.0218,7.12643 1.56006,0.005 -0.004,1.23047 -1.56006,-0.005 -0.008,2.5781 -1.47216,-0.005 0.008,-2.57811 -4.9365,-0.0151 0.004,-1.42822 z m -160.9637,4.54543 q 1.06131,0.2303 1.65237,0.9499 0.59838,0.7196 0.59515,1.77429 -0.005,1.61864 -1.12095,2.50145 -1.116,0.88282 -3.16677,0.87653 -0.68847,-0.002 -1.42046,-0.14351 -0.7247,-0.13407 -1.50023,-0.40744 l 0.004,-1.42822 q 0.61413,0.36078 1.34599,0.54613 0.73185,0.18534 1.53019,0.18779 1.39159,0.004 2.11837,-0.54282 0.7341,-0.54707 0.73732,-1.59442 0.003,-0.9668 -0.67653,-1.51088 -0.67214,-0.55138 -1.88062,-0.55508 l -1.27442,-0.004 0.004,-1.21581 1.333,0.004 q 1.09131,0.003 1.67124,-0.42701 0.57996,-0.43767 0.58248,-1.25798 0.003,-0.84228 -0.59664,-1.2909 -0.59186,-0.45592 -1.70514,-0.45933 -0.6079,-0.002 -1.3041,0.12784 -0.69621,0.1297 -1.53202,0.40546 l 0.004,-1.31836 q 0.843,-0.23178 1.57578,-0.34673 0.7401,-0.11492 1.39195,-0.11292 1.68456,0.005 2.66365,0.77722 0.9791,0.76472 0.9751,2.06843 -0.003,0.90819 -0.52473,1.53648 -0.52191,0.62096 -1.48213,0.85972 z m 77.99771,-561.28488 -5.16356,-0.0158 0.004,-1.24511 6.94333,0.0213 -0.004,1.24512 q -0.84495,0.86899 -2.29963,2.32939 -1.46203,1.46768 -1.83686,1.89135 -0.71289,0.79615 -0.99289,1.34461 -0.28736,0.55577 -0.289,1.09043 -0.003,0.87158 0.61088,1.42278 0.60623,0.55118 1.58766,0.55419 0.6958,0.002 1.47291,-0.23719 0.76977,-0.23934 1.65018,-0.72736 l -0.005,1.49413 q -0.89465,0.35614 -1.67157,0.53687 -0.77693,0.18073 -1.42145,0.17875 -1.69922,-0.005 -2.70735,-0.85791 -1.00813,-0.85271 -1.00377,-2.2736 0.002,-0.67383 0.26026,-1.28095 0.25087,-0.59982 0.91989,-1.41808 0.18376,-0.21184 1.16831,-1.2269 0.98455,-1.00773 2.77724,-2.82597 z m -159.43897,-0.48905 -2.41698,-0.007 -0.0256,8.34224 2.631,-0.51928 -0.004,1.34766 -2.61635,0.51932 -1.47949,-0.005 0.0297,-9.68989 -2.41698,-0.007 0.004,-1.24511 6.29879,0.0193 z m -82.66007,298.01309 q -0.2176,-1.12167 -1.43508,-1.47488 -1.2089,-0.34741 -3.42347,0.0822 -2.20738,0.42824 -3.20586,1.20388 -0.9899,0.78144 -0.7723,1.90311 0.219,1.12885 1.4279,1.47627 1.21748,0.3532 3.42486,-0.075 2.21457,-0.42963 3.20447,-1.21107 0.99848,-0.77565 0.77948,-1.9045 z m 1.15043,-0.22319 q 0.35012,1.80473 -0.8966,3.03142 -1.23813,1.23248 -3.95601,1.75976 -2.71069,0.52588 -4.32705,-0.15283 -1.60778,-0.67291 -1.9579,-2.47764 -0.35012,-1.80474 0.88801,-3.03722 1.24671,-1.22669 3.9574,-1.75257 2.71788,-0.52727 4.32566,0.14565 1.61637,0.6787 1.96649,2.48343 z" />
      <path
         id="path8675"
         style="display:inline;fill:none;stroke:#800000;stroke-width:1;stroke-linecap:butt;stroke-linejoin:miter;stroke-miterlimit:10;stroke-dasharray:8, 8;stroke-dashoffset:0;stroke-opacity:1"
         d="m 687.76145,599.90323 v 84.898 m -84.903,-84.898 h 84.903 m -84.903,84.898 v -84.898 m 84.903,84.898 h -84.903 m -287.027,-263.676 62.933,-220.546 m 84.903,0.261 61.582,220.926 m 130.859,-220.336 -74.816,401.633 m -163.477,-215.586 -57.261,214.906 m 0,0 -0.258,84.903 m 222.402,0.683 -222.402,-0.683 m 0.258,-84.903 -101.879,-0.312 m -0.262,84.902 0.262,-84.902 m 101.621,85.215 -101.883,-0.313 m 0.262,-84.902 -78.008,-402.098 m 96.48,-84.605 224.262,0.687 m -224.262,-0.687 -0.261,84.898 m 0,0 38.945,220.859 m -135.164,-221.152 96.219,0.293 m -96.219,-0.293 0.262,-84.902 96.218,0.297" />
      <path
         id="path8695"
         style="display:inline;fill:none;stroke:#ff0000;stroke-width:1;stroke-linecap:butt;stroke-linejoin:miter;stroke-miterlimit:10;stroke-dasharray:none;stroke-opacity:1"
         transform="translate(864.00002)"
         d="m -683.07057,115.07123 21.66594,-14.97411 52.92381,0.062 21.63204,15.02572 m 410.61021,484.71839 15,19.101 v 46.696 l -15,19.101 m -84.903,-84.898 19.106,-15 h 46.695 l 19.102,15 m -84.903,84.898 -15,-19.101 v -46.696 l 15,-19.101 m 84.903,84.898 -19.102,15 h -46.695 l -19.106,-15 m 127.641,-483.144 -229.348,-0.704 m -185.32,220.172 -0.266,-53.738 34.617,-121.301 28.582,-45.507 m 351.997,-83.821 -0.262,84.899 m -229.09,-85.602 229.352,0.703 m -351.997,83.821 84.903,0.261 m 0,0 28.304,45.68 33.872,121.512 -0.594,53.734 m 0,0 40.297,-220.613 m 0,0 90.562,0.277 m 0,0 -2.09,93.113 -41.148,220.899 -31.578,87.621 m 0,0 -107.539,-0.332 m 0,0 -55.938,-215.254 m 165.141,215.59 -0.258,84.902 m -222.144,-85.586 222.402,0.684 m -165.141,-215.59 1.61,52.219 -31.493,118.195 -27.378,44.492 m 222.144,85.586 -50.086,14.844 -122.324,-0.375 -49.992,-15.152 m -101.883,-0.313 -14.942,-19.148 0.145,-46.696 15.059,-19.058 m 0,0 -83.348,16.172 m 184.969,69.043 -22.969,14.929 -56.035,-0.172 -22.879,-15.07 m 18.734,-571.605 50.504,-14.848 123.348,0.379 50.41,15.156 m -0.258,84.898 -224.265,-0.687 m 0,0 23.535,47.09 21.418,121.473 -6.008,52.296 m -135.164,-221.152 -14.942,-19.148 0.145,-46.696 15.059,-19.058 m -83.61,101.07 83.348,-16.168 m -5.34,418.27 -78.008,-402.102" />
    </g>
  </g>
  <g
     id="g8679"
     inkscape:groupmode="layer"
     inkscape:label="Page 2"
     transform="matrix(1.3333333,0,0,1.3333333,1152,2.83e-5)">
    <g
       id="g10067">
      <path
         id="path9829"
         style="font-size:15px;font-family:'DejaVu Sans';-inkscape-font-specification:DejaVuSans;fill:#0000ff"
         d="m 616.48962,174.59013 -3.7422,5.83301 3.73535,0.004 z m -0.38667,-1.28951 1.86035,0.002 -0.008,7.12645 1.56006,0.002 -10e-4,1.23046 -1.56006,-0.002 -0.003,2.57813 -1.47216,-0.002 0.003,-2.57812 -4.93652,-0.006 0.002,-1.42822 z m -259.36969,127.14424 -4.59816,-5.18507 -1.01819,3.5939 z m 1.34607,-0.0221 -0.5071,1.7899 -6.85661,-1.94254 -0.42524,1.50098 -1.18388,-0.3354 0.42525,-1.50099 -2.4805,-0.70274 0.40129,-1.41643 2.48049,0.70275 1.34561,-4.74959 1.37414,0.38931 z m 32.3985,-122.34903 q 1.06175,0.22829 1.65417,0.94677 0.59974,0.71847 0.5985,1.77316 -0.002,1.61865 -1.11622,2.50357 -1.11432,0.88493 -3.1651,0.88252 -0.68847,-8.1e-4 -1.42073,-0.14083 -0.72495,-0.13269 -1.50099,-0.40459 l 0.002,-1.42823 q 0.61481,0.35961 1.34701,0.54358 0.73221,0.18396 1.53055,0.1849 1.3916,0.002 2.11734,-0.54683 0.73307,-0.54846 0.7343,-1.59582 10e-4,-0.9668 -0.67939,-1.50958 -0.67318,-0.55011 -1.88167,-0.55153 l -1.27442,-0.001 10e-4,-1.21582 1.33301,0.002 q 1.09131,0.001 1.67042,-0.43017 0.57914,-0.43877 0.5801,-1.25908 9.9e-4,-0.84229 -0.59908,-1.28978 -0.59272,-0.45479 -1.706,-0.4561 -0.60791,-7.1e-4 -1.30387,0.13031 -0.69595,0.13101 -1.53124,0.40835 l 0.002,-1.31836 q 0.84256,-0.23338 1.57511,-0.34971 0.73989,-0.11632 1.39174,-0.11555 1.68458,0.002 2.66511,0.77217 0.98056,0.76288 0.97903,2.06658 -10e-4,0.9082 -0.52182,1.53747 -0.52075,0.62195 -1.48052,0.86253 z M 287.81407,294.57752 q 0.0371,-1.08538 0.63964,-1.7954 0.60122,-0.71725 1.63954,-0.90236 1.59353,-0.28409 2.66139,0.65637 1.06787,0.94045 1.4278,2.9594 0.12084,0.67779 0.11239,1.42327 -0.003,0.73698 -0.13306,1.54886 l -1.40605,0.25067 q 0.24533,-0.66868 0.29705,-1.42186 0.0517,-0.75319 -0.0884,-1.53914 -0.24424,-1.37 -0.91228,-1.98743 -0.66934,-0.62464 -1.70045,-0.44082 -0.95179,0.16968 -1.36582,0.93539 -0.42253,0.75978 -0.21042,1.94951 l 0.22367,1.25464 -1.19695,0.21339 -0.23395,-1.31232 q -0.19154,-1.07437 -0.71851,-1.56816 -0.53419,-0.4925 -1.34176,-0.34852 -0.82922,0.14783 -1.16364,0.8175 -0.34294,0.66375 -0.14755,1.75975 0.1067,0.59848 0.35861,1.26034 0.25192,0.66186 0.67246,1.43501 l -1.2979,0.23139 q -0.37857,-0.78808 -0.62249,-1.48856 -0.24519,-0.7077 -0.3596,-1.34943 -0.29566,-1.65842 0.28919,-2.75962 0.57764,-1.09989 1.86111,-1.32871 0.89411,-0.1594 1.60548,0.242 0.70416,0.40268 1.11051,1.30484 z m -99.73258,-152.3916 -0.006,5.16357 -1.24512,-0.001 0.008,-6.94335 1.24512,0.001 q 0.87059,0.84331 2.33374,2.29522 1.47045,1.45925 1.89482,1.83329 0.7975,0.71138 1.34649,0.99035 0.55631,0.28629 1.09097,0.28692 0.87159,0.001 1.42162,-0.61356 0.55003,-0.60727 0.55119,-1.58872 8.1e-4,-0.6958 -0.23998,-1.47245 -0.24079,-0.76932 -0.73048,-1.64881 l 1.49414,0.002 q 0.35783,0.89398 0.54003,1.67057 0.1822,0.77657 0.18144,1.42111 -0.002,1.69921 -0.85279,2.70896 -0.8508,1.00975 -2.27169,1.00808 -0.67383,-7.9e-4 -1.28144,-0.25786 -0.6003,-0.24972 -1.41983,-0.91719 -0.21218,-0.18335 -1.2291,-1.166 -1.00959,-0.98262 -2.83122,-2.77187 z m -43.48445,53.23283 -5.08021,0.92406 -0.22282,-1.22502 6.83127,-1.24256 0.22282,1.22502 q -0.67272,1.00824 -1.83735,2.70896 -1.17054,1.70923 -1.46203,2.19402 -0.55611,0.9126 -0.73164,1.50286 -0.18141,0.59877 -0.0857,1.12481 0.15597,0.85751 0.85958,1.28786 0.6964,0.43165 1.662,0.25602 0.68457,-0.12452 1.40515,-0.50126 0.71338,-0.37541 1.49028,-1.0155 l 0.26739,1.47002 q -0.81491,0.513 -1.54598,0.83209 -0.73106,0.31908 -1.36519,0.43442 -1.67179,0.30409 -2.81826,-0.35093 -1.14647,-0.65501 -1.40075,-2.05298 -0.12058,-0.66294 0.0228,-1.30691 0.13752,-0.63546 0.64647,-1.5618 0.14213,-0.24175 0.92555,-1.41901 0.78472,-1.17006 2.21661,-3.28417 z m 116.49883,432.814 -0.003,2.417 8.34228,0.01 -0.52426,-2.63002 1.34765,0.002 0.52428,2.61536 -0.002,1.47949 -9.68994,-0.0114 -0.003,2.41699 -1.24512,-10e-4 0.007,-6.29883 z m -46.32676,-35.91167 2.37797,-0.43254 -1.4929,-8.20761 -2.49257,0.98937 -0.24118,-1.3259 2.47816,-0.98675 1.45562,-0.26477 1.73408,9.53352 2.37797,-0.43254 0.22282,1.22502 -6.19715,1.12722 z m 261.36784,6.56807 q 1.14258,10e-4 1.72251,-1.12591 0.5726,-1.11994 0.57525,-3.3758 0.003,-2.24853 -0.56733,-3.37713 -0.57729,-1.12129 -1.71987,-1.12263 -1.14991,-0.001 -1.7225,1.11859 -0.57995,1.12725 -0.58259,3.37578 -0.003,2.25586 0.57466,3.37715 0.56996,1.1286 1.71987,1.12995 z m -0.001,1.17187 q -1.83838,-0.002 -2.80347,-1.46081 -0.97241,-1.45134 -0.96917,-4.21989 0.003,-2.76123 0.97908,-4.21761 0.9685,-1.44905 2.80688,-1.4469 1.83837,0.002 2.81079,1.45349 0.96508,1.45866 0.96184,4.21989 -0.003,2.76855 -0.97174,4.21761 -0.97583,1.45637 -2.81421,1.45422 z M 383.53467,475.90938 q -0.29207,1.10462 0.65048,1.95234 0.93734,0.83876 3.11825,1.41542 2.17382,0.57479 3.41031,0.31081 1.23129,-0.27293 1.52336,-1.37755 0.29395,-1.1117 -0.64339,-1.95046 -0.94255,-0.84773 -3.11637,-1.42251 -2.18091,-0.57666 -3.4122,-0.30372 -1.23649,0.26398 -1.53044,1.37567 z m -1.13293,-0.29956 q 0.46994,-1.7773 2.12617,-2.3394 1.65102,-0.57104 4.3276,0.13667 2.66949,0.70585 3.82957,2.02018 1.15487,1.30539 0.68493,3.08269 -0.46994,1.7773 -2.12096,2.34835 -1.65623,0.56209 -4.32572,-0.14376 -2.67658,-0.70771 -3.83145,-2.01309 -1.16008,-1.31434 -0.69014,-3.09164 z" />
      <path
         id="path8843"
         style="fill:none;stroke:#00ff00;stroke-width:1;stroke-linecap:butt;stroke-linejoin:miter;stroke-miterlimit:10;stroke-dasharray:8, 2, 2, 2;stroke-dashoffset:0;stroke-opacity:1"
         d="m 500.21507,100.69576 -0.0987,84.9004 m 88.2224,401.96546 -0.0987,84.9004" />
      <path
         id="path9778"
         style="font-size:15px;font-family:'DejaVu Sans';-inkscape-font-specification:DejaVuSans"
         d="m 484.47756,290.73148 q -0.0685,-1.08385 0.46216,-1.84907 0.5287,-0.77225 1.54411,-1.05737 1.55839,-0.43758 2.71258,0.39467 1.15419,0.83225 1.70859,2.80667 0.18612,0.66284 0.25014,1.40561 0.0691,0.73374 0.0181,1.55447 l -1.37504,0.3861 q 0.17921,-0.68936 0.15749,-1.444 -0.0217,-0.75465 -0.23753,-1.52327 -0.37619,-1.33979 -1.10108,-1.88939 -0.72686,-0.55665 -1.73523,-0.27351 -0.93079,0.26136 -1.26847,1.06367 -0.3467,0.79724 -0.02,1.96073 l 0.34452,1.22697 -1.17055,0.32868 -0.36036,-1.28338 q -0.29502,-1.05067 -0.86748,-1.49092 -0.57951,-0.43828 -1.36929,-0.21651 -0.81091,0.22769 -1.0787,0.9267 -0.27681,0.69393 0.0242,1.76576 0.16434,0.58528 0.47937,1.21953 0.31502,0.63426 0.8087,1.36289 l -1.26928,0.3564 q -0.45334,-0.74757 -0.76416,-1.42104 -0.31281,-0.68052 -0.48903,-1.3081 -0.4554,-1.62185 0.0197,-2.77466 0.46803,-1.15081 1.72319,-1.50325 0.8744,-0.24552 1.62141,0.0849 0.73996,0.33236 1.23203,1.19076 z m 8.19917,11.99622 -0.6534,-2.327 -8.03167,2.25522 1.21853,2.38893 -1.29748,0.36432 -1.21456,-2.37483 -0.39996,-1.42441 9.32914,-2.61953 -0.65339,-2.327 1.19875,-0.3366 1.70279,6.0643 z M 721.9666,137.16247 q -10e-4,0.99609 0.6793,1.58283 0.68047,0.57941 1.86699,0.5808 1.1792,0.001 1.86835,-0.57642 0.68184,-0.58514 0.68301,-1.58123 10e-4,-0.9961 -0.6793,-1.57551 -0.68779,-0.58674 -1.86699,-0.58813 -1.18652,-0.001 -1.86836,0.58375 -0.68183,0.57781 -0.683,1.57391 z m -4.63279,-2.94245 1.34766,0.002 q -0.26432,0.55633 -0.40415,1.12746 -0.13982,0.5638 -0.14048,1.12044 -0.002,1.46484 0.98614,2.24236 0.98787,0.77021 2.98725,0.88242 -0.6367,-0.43288 -0.97285,-1.08513 -0.34347,-0.65226 -0.34255,-1.43595 0.002,-1.64794 1.00647,-2.59892 0.99721,-0.9583 2.7184,-0.95628 1.68457,0.002 2.70147,0.99927 1.0169,0.99729 1.01496,2.65256 -0.002,1.89697 -1.4536,2.89868 -1.4587,1.00171 -4.21993,0.99847 -2.59277,-0.003 -4.12941,-1.23531 -1.54397,-1.23229 -1.54153,-3.30504 6.5e-4,-0.55664 0.11117,-1.12048 0.11054,-0.57116 0.33098,-1.18613 z m 9.42998,15.5789 0.003,-2.41699 -8.34228,-0.01 0.52426,2.63001 -1.34766,-0.002 -0.52427,-2.61536 0.002,-1.47949 9.68993,0.0114 0.003,-2.417 1.24511,0.001 -0.007,6.29883 z m -309.69547,48.13832 -5.8081,-0.007 10e-4,-1.24511 4.45312,0.005 0.003,-2.68066 q -0.32238,0.10948 -0.64471,0.16038 -0.32233,0.0582 -0.6446,0.0578 -1.83105,-0.002 -2.89921,-1.00682 -1.06816,-1.00467 -1.06615,-2.71854 0.002,-1.76513 1.10186,-2.74528 1.09977,-0.97283 3.09928,-0.97049 0.68848,8.1e-4 1.40611,0.11883 0.71031,0.11803 1.47176,0.3533 l -0.002,1.48681 q -0.65876,-0.35965 -1.36168,-0.53627 -0.70291,-0.1766 -1.4866,-0.17752 -1.26709,-0.001 -2.00762,0.66415 -0.74052,0.66563 -0.74186,1.80821 -10e-4,1.14258 0.73761,1.80995 0.73897,0.66737 2.00606,0.66886 0.59326,7e-4 1.18667,-0.13045 0.5861,-0.13115 1.20165,-0.40875 z m 9.30964,-9.67902 -2.41699,-0.003 -0.01,8.34228 2.63001,-0.52426 -0.002,1.34765 -2.61536,0.52428 -1.47949,-0.002 0.0114,-9.68994 -2.41699,-0.003 0.001,-1.24512 6.29882,0.007 z m 185.13537,-84.68519 -2.41699,-0.003 -0.01,8.34228 2.63001,-0.52426 -0.002,1.34766 -2.61536,0.52427 -1.4795,-0.002 0.0114,-9.68994 -2.41698,-0.003 10e-4,-1.24512 6.29882,0.007 z m 9.54004,0.0112 -2.41699,-0.003 -0.01,8.34227 2.63,-0.52425 -0.002,1.34766 -2.61535,0.52427 -1.4795,-0.002 0.0114,-9.68993 -2.41699,-0.003 0.001,-1.24512 6.29883,0.007 z m -239.0704,8.43275 q 1.14257,0.001 1.72252,-1.12591 0.5726,-1.11993 0.57525,-3.37579 0.003,-2.24854 -0.56733,-3.37714 -0.5773,-1.12128 -1.71987,-1.12262 -1.14991,-0.001 -1.72252,1.11858 -0.57993,1.12725 -0.58257,3.37579 -0.003,2.25586 0.57465,3.37714 0.56997,1.1286 1.71987,1.12995 z m -0.001,1.17188 q -1.83838,-0.002 -2.80347,-1.46082 -0.97242,-1.45134 -0.96917,-4.21989 0.003,-2.76122 0.97907,-4.2176 0.9685,-1.44906 2.80688,-1.44691 1.83838,0.002 2.8108,1.4535 0.96508,1.45866 0.96184,4.21989 -0.003,2.76854 -0.97174,4.21761 -0.97583,1.45637 -2.81421,1.45422 z m 12.45894,-9.87309 -2.41698,-0.003 -0.01,8.34229 2.63,-0.52427 -0.002,1.34766 -2.61536,0.52427 -1.47949,-0.002 0.0114,-9.68993 -2.41699,-0.003 0.001,-1.24512 6.29883,0.007 z m -161.65082,-1.20618 -0.002,1.34766 q -0.55633,-0.26433 -1.12746,-0.40416 -0.57113,-0.13983 -1.12045,-0.14048 -1.46483,-0.002 -2.23503,0.97883 -0.77753,0.98786 -0.88974,2.99456 0.42554,-0.62938 1.07779,-0.96553 0.65225,-0.33615 1.44327,-0.33522 1.64062,0.002 2.59894,0.99182 0.95097,0.99721 0.94895,2.7184 -0.002,1.68457 -0.99926,2.70146 -0.99729,1.0169 -2.65257,1.01496 -1.89697,-0.002 -2.89135,-1.46091 -1.00171,-1.45137 -0.99846,-4.21993 0.003,-2.58545 1.23531,-4.12941 1.22495,-1.53665 3.29771,-1.53421 0.55664,6.5e-4 1.1278,0.11118 0.57116,0.11053 1.18613,0.33098 z m -2.94978,4.63277 q -0.99609,-0.001 -1.5755,0.67931 -0.58674,0.68046 -0.58813,1.86699 -0.001,1.1792 0.58376,1.86103 0.5778,0.68916 1.57389,0.69033 0.9961,10e-4 1.58283,-0.68662 0.57942,-0.68047 0.58081,-1.85967 0.001,-1.18653 -0.57643,-1.86836 -0.58513,-0.68184 -1.58123,-0.68301 z m -84.75992,294.45496 q -0.18875,-1.03767 -0.8524,-1.53484 -0.66234,-0.48997 -1.63514,-0.31302 -0.97281,0.17695 -1.42019,0.86876 -0.44608,0.69903 -0.25733,1.73669 0.18874,1.03766 0.85239,1.53484 0.67086,0.49586 1.63646,0.32022 0.97281,-0.17695 1.41888,-0.87597 0.44738,-0.69182 0.25733,-1.73668 z m 0.35495,-1.56833 q 0.0602,-0.97872 0.60585,-1.62142 0.54696,-0.63548 1.46932,-0.80325 1.28988,-0.23462 2.20576,0.54422 0.91719,0.78606 1.20817,2.38579 0.29229,1.60693 -0.29067,2.6584 -0.58296,1.05148 -1.87283,1.2861 -0.92237,0.16777 -1.65939,-0.24162 -0.7357,-0.40217 -1.13537,-1.28981 -0.0536,1.09665 -0.66087,1.81009 -0.60591,0.72066 -1.63637,0.90809 -1.56369,0.28442 -2.57391,-0.52193 -1.00891,-0.79915 -1.33266,-2.57902 -0.32375,-1.77988 0.33782,-2.89033 0.66288,-1.10322 2.22658,-1.38765 1.03046,-0.18743 1.85133,0.27369 0.82087,0.46114 1.25724,1.46865 z m 2.20171,-0.95137 q -0.83589,0.15204 -1.20991,0.75608 -0.3727,0.61123 -0.201,1.55521 0.17039,0.93678 0.73446,1.37762 0.56539,0.44805 1.40128,0.29601 0.83589,-0.15205 1.20729,-0.77049 0.37271,-0.61123 0.20231,-1.54801 -0.1717,-0.94398 -0.73577,-1.38482 -0.56276,-0.43364 -1.39866,-0.2816 z m 162.15889,261.02248 7.03125,0.008 -7.4e-4,0.62988 -3.98182,10.30052 -1.54541,-0.002 3.74672,-9.68555 -5.25146,-0.006 z m 168.42812,5.07572 q -0.9961,-10e-4 -1.58284,0.67929 -0.57941,0.68048 -0.5808,1.867 -0.001,1.1792 0.57642,1.86836 0.58514,0.68184 1.58124,0.68301 0.99609,10e-4 1.5755,-0.6793 0.58674,-0.6878 0.58813,-1.867 10e-4,-1.18651 -0.58375,-1.86836 -0.57781,-0.68183 -1.5739,-0.683 z m 2.94245,-4.63278 -0.002,1.34766 q -0.55633,-0.26432 -1.12746,-0.40415 -0.56381,-0.13984 -1.12044,-0.14049 -1.46484,-0.002 -2.24237,0.98614 -0.7702,0.98787 -0.88241,2.98726 0.43287,-0.63671 1.08512,-0.97286 0.65227,-0.34347 1.43596,-0.34255 1.64794,0.002 2.59891,1.00647 0.95831,0.99722 0.95629,2.71841 -0.002,1.68457 -0.99927,2.70147 -0.99729,1.01689 -2.65256,1.01495 -1.89698,-0.002 -2.89868,-1.4536 -1.00171,-1.45869 -0.99847,-4.21992 0.003,-2.59278 1.23532,-4.12941 1.23228,-1.54397 3.30503,-1.54154 0.55664,6.6e-4 1.12047,0.11118 0.57116,0.11053 1.18614,0.33098 z m 94.68712,-28.22709 0.007,-5.8081 1.24512,10e-4 -0.005,4.45312 2.68066,0.003 q -0.10948,-0.32239 -0.16037,-0.64472 -0.0582,-0.32233 -0.0579,-0.6446 0.002,-1.83104 1.00683,-2.89921 1.00467,-1.06815 2.71854,-1.06614 1.76513,0.002 2.74529,1.10186 0.97283,1.09977 0.97048,3.09928 -8.1e-4,0.68848 -0.11884,1.40611 -0.11802,0.71031 -0.35329,1.47176 l -1.48681,-0.002 q 0.35966,-0.65876 0.53626,-1.36167 0.17661,-0.70292 0.17753,-1.48661 10e-4,-1.26709 -0.66415,-2.00762 -0.66564,-0.74053 -1.80821,-0.74187 -1.14257,-10e-4 -1.80995,0.73762 -0.66737,0.73897 -0.66886,2.00606 -6.9e-4,0.59326 0.13045,1.18667 0.13114,0.58609 0.40874,1.20166 z m -113.68252,-153.25157 -6.59332,-2.13453 0.94637,3.61347 z m 1.14865,-0.70211 0.47133,1.79965 -6.89394,1.80554 0.39525,1.50916 -1.19032,0.31175 -0.39525,-1.50916 -2.49402,0.65318 -0.37298,-1.42413 2.49401,-0.65319 -1.2507,-4.77546 1.38162,-0.36185 z m 69.25286,102.13583 q 1.06174,0.22829 1.65417,0.94676 0.59973,0.71847 0.59849,1.77316 -0.002,1.61865 -1.11621,2.50357 -1.11432,0.88493 -3.1651,0.88252 -0.68848,-8.1e-4 -1.42074,-0.14083 -0.72494,-0.13268 -1.50099,-0.40459 l 0.002,-1.42822 q 0.61482,0.35961 1.34702,0.54357 0.73221,0.18397 1.53055,0.18491 1.3916,0.002 2.11734,-0.54684 0.73307,-0.54846 0.7343,-1.59582 0.001,-0.9668 -0.67938,-1.50959 -0.67319,-0.5501 -1.88168,-0.55151 l -1.27442,-10e-4 10e-4,-1.21582 1.33301,0.002 q 1.09131,0.001 1.67043,-0.43017 0.57913,-0.43878 0.58009,-1.25909 9.9e-4,-0.84228 -0.59907,-1.28977 -0.59273,-0.45479 -1.70601,-0.4561 -0.60791,-7.1e-4 -1.30386,0.1303 -0.69597,0.13102 -1.53125,0.40836 l 0.002,-1.31836 q 0.84257,-0.23339 1.57513,-0.34971 0.73988,-0.11632 1.39173,-0.11556 1.68457,0.002 2.66512,0.77217 0.98054,0.76287 0.97901,2.06658 -10e-4,0.90821 -0.52182,1.53748 -0.52075,0.62195 -1.4805,0.86253 z m 14.80585,-284.17441 -0.9182,5.08129 -1.22527,-0.22141 1.23467,-6.8327 1.22528,0.22141 q 0.70791,0.98384 1.89153,2.67141 1.18953,1.69607 1.54114,2.13919 0.65928,0.84109 1.15036,1.21265 0.49697,0.38008 1.02312,0.47516 0.85769,0.15498 1.50766,-0.35277 0.64865,-0.50054 0.82317,-1.46634 0.12373,-0.68471 0.024,-1.49169 -0.1011,-0.79976 -0.42772,-1.75193 l 1.47033,0.26569 q 0.19428,0.94314 0.23641,1.73969 0.0421,0.79655 -0.0725,1.43081 -0.30216,1.67214 -1.31796,2.51569 -1.0158,0.84356 -2.41405,0.59089 -0.66308,-0.11982 -1.21572,-0.48017 -0.54674,-0.35186 -1.23546,-1.15361 -0.17645,-0.21796 -1.00378,-1.36479 -0.8201,-1.14554 -2.29698,-3.22847 z m 66.63184,-107.44655 -2.41698,-0.003 -0.01,8.34228 2.63,-0.52425 -0.002,1.34765 -2.61536,0.52428 -1.4795,-0.002 0.0114,-9.68994 -2.41699,-0.003 10e-4,-1.24511 6.29882,0.007 z m -4.1862,194.99363 q -0.22236,1.12073 0.7714,1.90779 0.98801,0.77844 3.20074,1.21746 2.20553,0.43759 3.42308,0.0967 1.21179,-0.34947 1.43414,-1.4702 0.22379,-1.12793 -0.76422,-1.90637 -0.99376,-0.78706 -3.1993,-1.22465 -2.21273,-0.43901 -3.42452,-0.0895 -1.21754,0.34085 -1.44132,1.46878 z m -1.14947,-0.22806 q 0.35777,-1.80323 1.97557,-2.4679 1.61204,-0.67327 4.32767,-0.13448 2.70843,0.53736 3.94851,1.77651 1.23432,1.23053 0.87655,3.03376 -0.35777,1.80324 -1.96981,2.47651 -1.6178,0.66466 -4.32623,0.12729 -2.71563,-0.53879 -3.94995,-1.76932 -1.24008,-1.23914 -0.88231,-3.04237 z" />
      <path
         id="path8867"
         style="fill:none;stroke:#ff0000;stroke-width:1;stroke-linecap:butt;stroke-linejoin:miter;stroke-miterlimit:10;stroke-dasharray:none;stroke-opacity:1"
         d="m 462.62958,185.55541 28.39249,45.6264 34.09772,121.44656 -0.48889,53.73567 m 204.93227,-305.39838 -0.0987,84.90039 m -351.73616,-0.41332 84.90127,0.10268 m 37.58549,-84.85965 229.3481,0.2699 m -0.0987,84.90039 -229.34811,-0.26989 m -184.90779,220.52142 -0.36245,-53.73656 34.38221,-121.36687 28.49993,-45.56142 m -101.7804,-85.01934 50.47729,-14.94095 123.34948,0.144532 50.44039,15.058788 m -0.0987,84.9004 -224.26716,-0.26238 m 0,0 23.62294,47.04659 21.65087,121.43074 -5.91444,52.30647 m -129.82036,-305.78827 20.3925,-14.977333 49.80859,0.05792 20.35856,15.023493 m -90.66231,84.7962 -14.97447,-19.12187 0.0519,-46.69444 15.02524,-19.08397 M 101.7548,200.4235 185.2856,185.22959 M 174.86631,602.36827 101.7548,200.4235 m 156.54263,471.65222 -14.97447,-19.12187 0.0519,-46.69444 15.02524,-19.08397 m -2e-5,0 -83.53377,15.19283 m 190.96934,69.83482 -24.21293,14.97066 -59.14426,-0.0688 -24.18103,-15.02923 m 329.94268,0.3863 -50.05611,14.94125 -122.32113,-0.14147 -50.02722,-15.05871 m 222.50312,-84.64147 14.97847,19.12199 -0.0559,46.69332 -15.02127,19.08509 m -222.30165,-85.16321 222.40035,0.26281 m -165.54831,-215.27491 1.70955,52.21328 -31.27099,118.25749 -27.2906,44.54133 M 479.13591,587.4316 422.79046,372.28671 M 581.01885,587.55466 479.13591,587.4316 M 524.6309,406.36404 564.50867,185.67336 m 96.22179,0.11358 -3.221,93.31672 -43.84459,220.96886 -32.64602,87.48214" />
      <path
         id="path8869"
         style="fill:none;stroke:#800000;stroke-width:1;stroke-linecap:butt;stroke-linejoin:miter;stroke-miterlimit:10;stroke-dasharray:8,8;stroke-dashoffset:0;stroke-opacity:1"
         d="m 462.62958,185.55541 62.00132,220.80863 m -209.42228,-0.24646 62.51969,-220.66485 m -101.7804,-85.01934 224.26716,0.26237 m -224.26716,-0.26237 -0.0987,84.90039 m 4e-5,0 39.35937,220.7838 m -129.82036,-305.78827 90.55965,0.10408 m -90.66231,84.7962 0.10266,-84.90028 m -0.10266,84.90028 90.56365,0.10419 m -17.55182,486.74194 0.10265,-84.90028 m 0,0 -73.11448,-401.94585 m 180.55005,486.9735 -107.53822,-0.12737 m 107.64099,-84.77691 -0.10277,84.90428 m 0.10277,-84.90428 -107.53834,-0.12337 m 329.84003,85.28658 -222.40446,-0.25893 m 56.95481,-299.91638 -56.85204,215.0121 m 198.57025,-401.62545 96.22179,0.11358 m 0,0 -79.71161,401.76772" />
    </g>
  </g>
</svg>
