<?xml version="1.0" encoding="UTF-8" standalone="no"?>
<!-- Created with Inkscape (http://www.inkscape.org/) -->

<svg
   version="1.1"
   id="svg12105"
   width="1132"
   height="1132"
   viewBox="0 0 1132 1132"
   sodipodi:docname="Y.svg"
   inkscape:version="1.2.2 (732a01da63, 2022-12-09, custom)"
   xmlns:inkscape="http://www.inkscape.org/namespaces/inkscape"
   xmlns:sodipodi="http://sodipodi.sourceforge.net/DTD/sodipodi-0.dtd"
   xmlns="http://www.w3.org/2000/svg"
   xmlns:svg="http://www.w3.org/2000/svg">
  <defs
     id="defs12109" />
  <sodipodi:namedview
     id="namedview12107"
     pagecolor="#ffffff"
     bordercolor="#666666"
     borderopacity="1.0"
     inkscape:showpageshadow="2"
     inkscape:pageopacity="0.0"
     inkscape:pagecheckerboard="0"
     inkscape:deskcolor="#d1d1d1"
     showgrid="false"
     showguides="true"
     inkscape:zoom="1.0540513"
     inkscape:cx="555.95017"
     inkscape:cy="501.39875"
     inkscape:window-width="1920"
     inkscape:window-height="1009"
     inkscape:window-x="0"
     inkscape:window-y="0"
     inkscape:window-maximized="1"
     inkscape:current-layer="g12113">
    <inkscape:page
       x="0"
       y="0"
       id="page12111"
       width="1132"
       height="1132" />
  </sodipodi:namedview>
  <g
     id="g12113"
     inkscape:groupmode="layer"
     inkscape:label="Page 1"
     transform="matrix(1.3333333,0,0,1.3333333,0,2.83e-5)">
    <path
       id="path13508"
       style="font-size:15px;font-family:'DejaVu Sans';-inkscape-font-specification:DejaVuSans;fill:#0000ff"
       d="m 163.89114,580.31641 q -0.0334,1.14209 1.07714,1.75343 1.10342,0.6038 3.35832,0.66974 2.24758,0.0657 3.39172,-0.47236 1.13704,-0.5456 1.17044,-1.68769 0.0336,-1.14941 -1.06982,-1.75321 -1.11053,-0.61134 -3.35811,-0.67706 -2.2549,-0.0659 -3.39193,0.47967 -1.14415,0.53807 -1.17776,1.68748 z m -1.17138,-0.0343 q 0.0537,-1.8376 1.5389,-2.76137 1.47805,-0.93131 4.24542,-0.85039 2.76005,0.0807 4.18847,1.09702 1.42132,1.00877 1.36758,2.84636 -0.0537,1.83759 -1.53179,2.76891 -1.48515,0.92378 -4.2452,0.84307 -2.76737,-0.0809 -4.18869,-1.0897 -1.42842,-1.01631 -1.37469,-2.8539 z m 57.59175,-51.25787 q -1.1421,-0.0334 -1.75343,1.07714 -0.6038,1.10342 -0.66974,3.35832 -0.0657,2.24758 0.47235,3.39172 0.54561,1.13704 1.6877,1.17044 1.14941,0.0336 1.75321,-1.06981 0.61134,-1.11054 0.67706,-3.35812 0.0659,-2.25489 -0.47967,-3.39193 -0.53807,-1.14415 -1.68748,-1.17776 z m 0.0343,-1.17138 q 1.8376,0.0537 2.76137,1.5389 0.93131,1.47805 0.85039,4.24542 -0.0807,2.76005 -1.09702,4.18847 -1.00877,1.42132 -2.84636,1.36759 -1.8376,-0.0537 -2.76891,-1.53179 -0.92378,-1.48516 -0.84307,-4.24521 0.0809,-2.76737 1.0897,-4.18869 1.01631,-1.42842 2.8539,-1.37469 z" />
    <path
       id="path12387"
       style="fill:none;stroke:#800000;stroke-width:1;stroke-linecap:butt;stroke-linejoin:miter;stroke-miterlimit:10;stroke-dasharray:8,8;stroke-dashoffset:0;stroke-opacity:1"
       d="m 379.94637,554.44585 -76.27158,-37.28712 m 159.0401,-325.34612 76.27266,37.28315 M 148.69775,136.3651 223.10818,302.74722 M 63.835032,133.88348 148.69775,136.3651 M 180.53017,403.42467 63.835032,133.88348 M 176.55943,539.21063 91.69271,536.7289 m 84.86672,2.48173 3.97074,-135.78596 m 80.89098,138.26754 -84.86172,-2.48158 m 88.99779,-138.95796 -4.13607,141.43954 M 223.10818,302.74722 301.45246,140.83204 m 0,0 90.5233,2.64714 m 0,0 76.17143,37.49953 M 391.97576,143.47918 265.55722,400.25267 m 343.00685,59.13117 -82.1149,162.71909 m 0,0 -84.88731,-1.49268 m 0,0 -76.2451,-37.34082 m 76.2451,37.34082 129.18128,-263.7863 m 0,0 2.38696,-135.82216 m 0,0 84.88632,1.49264 m 0,0 -2.48379,141.47899 m 0,0 114.26098,262.40873 m -90.546,-1.59457 -70.68354,-165.40374 m 161.22954,166.99831 -90.546,-1.59457" />
    <path
       id="path13449"
       style="font-size:15px;font-family:'DejaVu Sans';-inkscape-font-specification:DejaVuSans"
       d="m 344.20804,440.49166 -2.26768,4.63897 -1.11862,-0.54682 3.04931,-6.23794 1.11863,0.54682 q 0.41312,1.13949 1.09226,3.08566 0.6825,1.95597 0.9001,2.47813 0.40523,0.98888 0.7765,1.48016 0.37464,0.50108 0.85499,0.73589 0.78303,0.38277 1.54673,0.0713 0.76049,-0.3049 1.19151,-1.18664 0.30558,-0.62511 0.42939,-1.42875 0.1206,-0.79706 0.0657,-1.80218 l 1.34235,0.65618 q -0.07,0.96039 -0.24646,1.7383 -0.17646,0.77789 -0.45952,1.35694 -0.74624,1.52659 -1.95341,2.06152 -1.20719,0.53494 -2.48373,-0.0891 -0.60537,-0.29592 -1.03894,-0.7932 -0.43021,-0.48749 -0.87447,-1.44654 -0.11041,-0.25777 -0.59402,-1.58662 -0.47703,-1.32562 -1.33064,-3.73209 z m 4.6368,-9.48542 -1.06147,2.17143 7.49474,3.66368 0.68098,-2.59384 1.21074,0.59185 -0.67455,2.58069 -0.64975,1.32918 -8.70548,-4.25553 -1.06147,2.17143 -1.11862,-0.54682 2.76626,-5.65889 z m 61.13499,33.68663 3.08792,-6.3169 0.56588,0.27662 7.51483,8.09215 -0.6787,1.3884 -7.06502,-7.61139 -2.30629,4.71794 z m 4.79242,12.26042 1.06147,-2.17143 -7.49474,-3.66369 -0.68098,2.59386 -1.21075,-0.59185 0.67456,-2.58069 0.64975,-1.32918 8.70548,4.25553 1.06147,-2.17143 1.11862,0.54682 -2.76626,5.65888 z m -128.75881,82.58013 -1.06147,2.17143 7.49475,3.66369 0.68099,-2.59385 1.21073,0.59185 -0.67454,2.58069 -0.64976,1.32918 -8.70548,-4.25553 -1.06147,2.17143 -1.11862,-0.54682 2.76626,-5.65889 z m 4.18968,-8.57076 -1.06147,2.17143 7.49474,3.66369 0.68099,-2.59385 1.21073,0.59185 -0.67454,2.5807 -0.64975,1.32918 -8.70549,-4.25554 -1.06147,2.17143 -1.11861,-0.54681 2.76626,-5.65889 z M 315.0282,604.456 q -1.0265,-0.50178 -2.04168,0.25744 -1.00539,0.75587 -1.99609,2.78254 -0.98749,2.02009 -0.96959,3.28432 0.0277,1.26087 1.05418,1.76266 1.03308,0.505 2.03846,-0.25087 1.01518,-0.75922 2.00267,-2.77931 0.99071,-2.02668 0.96302,-3.28754 -0.0179,-1.26423 -1.05097,-1.76924 z m 0.51465,-1.05281 q 1.65161,0.80736 1.88007,2.54139 0.23829,1.73066 -0.97758,4.21795 -1.21265,2.4807 -2.72791,3.36233 -1.50545,0.87827 -3.15706,0.0709 -1.65161,-0.80736 -1.88988,-2.53802 -0.22848,-1.73403 0.98417,-4.21473 1.21587,-2.48729 2.72133,-3.36555 1.51525,-0.88164 3.16686,-0.0743 z m -15.5255,3.41645 2.17145,1.06148 3.66368,-7.49474 -2.59386,-0.68099 0.59185,-1.21074 2.5807,0.67456 1.32918,0.64974 -4.25554,8.70548 2.17144,1.06147 -0.54682,1.11862 -5.6589,-2.76626 z m 57.23869,-23.166 q -0.43745,0.8949 -0.0828,1.72045 0.35784,0.81896 1.42382,1.34005 1.0594,0.51787 1.93203,0.3004 0.86928,-0.22727 1.30673,-1.12216 0.43745,-0.89489 0.0796,-1.71387 -0.3612,-0.82875 -1.4206,-1.34662 -1.06599,-0.52109 -1.93526,-0.29383 -0.86606,0.22069 -1.30351,1.11558 z m -2.87536,-4.67471 1.21073,0.59185 q -0.48134,0.38429 -0.85725,0.83642 -0.3727,0.44555 -0.61716,0.94564 -0.64332,1.31603 -0.096,2.44775 0.55057,1.12516 2.29869,2.10198 -0.38268,-0.66807 -0.3991,-1.40166 -0.023,-0.73681 0.32119,-1.44088 0.72373,-1.48053 2.04336,-1.89527 1.31627,-0.42453 2.86259,0.33136 1.51343,0.73982 1.9906,2.08181 0.47719,1.342 -0.24976,2.82911 -0.83309,1.70424 -2.57663,1.96883 -1.75011,0.26138 -4.23081,-0.95127 -2.32936,-1.13867 -3.1708,-2.91961 -0.84802,-1.78416 0.0623,-3.64632 0.24446,-0.50009 0.59085,-0.95851 0.34959,-0.465 0.81719,-0.92123 z m 1.65139,18.13562 1.06147,-2.17143 -7.49474,-3.66369 -0.68098,2.59385 -1.21074,-0.59185 0.67455,-2.58068 0.64975,-1.32919 8.70548,4.25553 1.06147,-2.17143 1.11862,0.54682 -2.76626,5.65889 z m 133.64674,-295.45692 2.55075,-5.21802 1.11861,0.54682 -1.95568,4.0007 2.40832,1.17727 q 0.0428,-0.33778 0.13829,-0.64982 0.0889,-0.31526 0.23042,-0.60478 0.80414,-1.64503 2.17524,-2.16505 1.3711,-0.52002 2.91083,0.23265 1.58581,0.7752 1.98506,2.19324 0.39267,1.41482 -0.48546,3.21119 -0.30235,0.61853 -0.72286,1.21191 -0.41729,0.58681 -0.96238,1.16821 l -1.33576,-0.65297 q 0.61192,-0.43459 1.07863,-0.98909 0.46671,-0.55449 0.81089,-1.25856 0.55647,-1.13836 0.28255,-2.09566 -0.27392,-0.9573 -1.30041,-1.45909 -1.02649,-0.50178 -1.95016,-0.1299 -0.92366,0.37188 -1.48013,1.51024 -0.26055,0.53299 -0.40265,1.12388 -0.13888,0.5843 -0.15903,1.25926 z m 4.62195,12.60915 1.06147,-2.17143 -7.49474,-3.66369 -0.68098,2.59385 -1.21074,-0.59185 0.67455,-2.58069 0.64975,-1.32918 8.70548,4.25553 1.06147,-2.17143 1.11861,0.54681 -2.76626,5.6589 z m -68.00613,-41.70078 -1.06147,2.17144 7.49475,3.66368 0.68098,-2.59385 1.21074,0.59185 -0.67456,2.58069 -0.64974,1.32918 -8.70548,-4.25553 -1.06148,2.17143 -1.11862,-0.54682 2.76626,-5.65889 z m 125.60255,-95.2512 3.60389,5.91946 1.64045,-3.35585 z m -1.32859,-0.21738 0.81702,-1.67135 6.40244,3.12974 0.68513,-1.40157 1.10546,0.54039 -0.68513,1.40156 2.3162,1.13224 -0.64654,1.3226 -2.31619,-1.13224 -2.16797,4.435 -1.28312,-0.62724 z m 3.01367,15.89921 1.06147,-2.17143 -7.49474,-3.66369 -0.68099,2.59385 -1.21074,-0.59184 0.67455,-2.5807 0.64975,-1.32918 8.70549,4.25554 1.06147,-2.17144 1.11861,0.54682 -2.76626,5.65889 z m -22.95184,-60.55516 q -0.85441,-0.67039 -1.07218,-1.57578 -0.22433,-0.90861 0.23885,-1.85614 0.71087,-1.4542 2.10025,-1.76149 1.38938,-0.30727 3.23181,0.59337 0.61853,0.30236 1.21543,0.74904 0.59353,0.43689 1.172,1.02131 l -0.62723,1.28312 q -0.39511,-0.59262 -0.97271,-1.07877 -0.57759,-0.48617 -1.29482,-0.83678 -1.25023,-0.61115 -2.1429,-0.43608 -0.89926,0.17184 -1.35923,1.11281 -0.42459,0.86856 -0.0507,1.65464 0.36412,0.78943 1.44984,1.32016 l 1.14494,0.55969 -0.53396,1.0923 -1.19757,-0.58542 q -0.98044,-0.47927 -1.69004,-0.34515 -0.71283,0.1407 -1.07309,0.87767 -0.3699,0.75671 -0.0265,1.42186 0.33356,0.6685 1.33373,1.15742 0.54615,0.26698 1.22916,0.45412 0.68301,0.18713 1.55537,0.30377 l -0.57899,1.18442 q -0.85963,-0.15934 -1.56911,-0.37572 -0.71606,-0.21959 -1.30169,-0.50587 -1.51343,-0.73981 -2.05742,-1.86174 -0.54721,-1.11535 0.0253,-2.28661 0.39886,-0.81594 1.14267,-1.15345 0.7406,-0.33093 1.70875,-0.1267 z m 14.41005,1.8673 -2.17143,-1.06147 -3.66369,7.49474 2.59385,0.68099 -0.59185,1.21073 -2.58069,-0.67454 -1.32919,-0.64975 4.25554,-8.70549 -2.17143,-1.06147 0.54681,-1.11861 5.6589,2.76625 z m -52.57876,22.74316 q 0.50179,-1.0265 -0.25744,-2.04168 -0.75586,-1.00539 -2.78254,-1.99609 -2.02009,-0.98749 -3.28432,-0.9696 -1.26087,0.0277 -1.76265,1.05419 -0.50501,1.03308 0.25086,2.03846 0.75923,1.01519 2.77932,2.00267 2.02667,0.99071 3.28754,0.96302 1.26423,-0.0179 1.76923,-1.05097 z m 1.05282,0.51465 q -0.80737,1.65161 -2.5414,1.88008 -1.73066,0.23827 -4.21794,-0.97759 -2.4807,-1.21265 -3.36234,-2.72791 -0.87827,-1.50545 -0.0709,-3.15706 0.80736,-1.65161 2.53802,-1.88988 1.73403,-0.22847 4.21473,0.98418 2.48728,1.21586 3.36555,2.72132 0.88164,1.51525 0.0743,3.16686 z m -320.05979,64.6093 -2.87049,-6.41862 0.575,-0.25715 11.02793,-0.58322 0.63091,1.41076 -10.37061,0.54601 2.1439,4.7939 z m 12.48322,4.1779 -0.98674,-2.2064 -7.61543,3.40572 1.55484,2.18501 -1.23023,0.55018 -1.54886,-2.17164 -0.60401,-1.35059 8.84567,-3.9559 -0.98673,-2.2064 1.13663,-0.50832 2.57149,5.75002 z M 99.802984,142.49526 q 0.995676,0.0291 1.601266,-0.63462 0.59828,-0.66394 0.63296,-1.84997 0.0345,-1.17869 -0.52378,-1.88378 -0.56577,-0.698 -1.561441,-0.72711 -0.995664,-0.0291 -1.593947,0.63484 -0.605804,0.67105 -0.640272,1.84974 -0.03468,1.18602 0.531087,1.88401 0.558463,0.69777 1.554127,0.72689 z m -3.071272,4.5484 0.03939,-1.34709 q 0.548695,0.27984 1.115673,0.43564 0.559651,0.15559 1.116053,0.17186 1.464222,0.0428 2.269162,-0.92284 0.79762,-0.96587 0.96588,-2.96131 -0.45057,0.62429 -1.11199,0.94202 -0.66165,0.32504 -1.445005,0.30213 -1.647245,-0.0482 -2.569658,-1.07899 -0.929944,-1.02372 -0.879634,-2.74418 0.04924,-1.68385 1.074663,-2.67236 1.025432,-0.98852 2.679995,-0.94013 1.896159,0.0555 2.856759,1.53435 0.96039,1.48622 0.87968,4.24627 -0.0758,2.59168 -1.35069,4.09313 -1.27512,1.50878 -3.346981,1.4482 -0.556403,-0.0163 -1.11692,-0.14257 -0.567835,-0.12651 -1.176379,-0.36413 z m 15.837338,-8.98916 -2.41595,-0.0706 -0.24385,8.33871 2.64369,-0.45026 -0.0394,1.34709 -2.62905,0.45068 -1.47886,-0.0432 0.28324,-9.6858 -2.41596,-0.0707 0.0364,-1.24459 6.29613,0.18412 z m 27.59985,265.91796 -0.0394,1.34708 q -0.54869,-0.27983 -1.11567,-0.43563 -0.56698,-0.1558 -1.11606,-0.17185 -1.46422,-0.0428 -2.26162,0.91573 -0.80494,0.96565 -0.97341,2.96841 0.44303,-0.61719 1.10446,-0.9349 0.66142,-0.31772 1.4521,-0.2946 1.63992,0.048 2.57009,1.06435 0.92263,1.02349 0.87232,2.74396 -0.0492,1.68385 -1.07468,2.67236 -1.02542,0.98852 -2.67999,0.94013 -1.89616,-0.0555 -2.84922,-1.54146 -0.9606,-1.47891 -0.87968,-4.24628 0.0756,-2.58434 1.35069,-4.09313 1.26758,-1.50168 3.33945,-1.44109 0.5564,0.0163 1.12424,0.14279 0.56783,0.12652 1.17638,0.36413 z m -3.0786,4.54819 q -0.99567,-0.0291 -1.59394,0.63483 -0.6056,0.66373 -0.64028,1.84976 -0.0345,1.17869 0.53131,1.87668 0.55824,0.70509 1.5539,0.7342 0.99568,0.0291 1.60149,-0.64193 0.59827,-0.66395 0.63274,-1.84264 0.0347,-1.18603 -0.52377,-1.8838 -0.56578,-0.69798 -1.56145,-0.7271 z m -8.36058,-141.59037 q -0.41902,-0.96788 -1.17808,-1.3017 -0.75616,-0.32708 -1.66354,0.0657 -0.90739,0.39283 -1.18633,1.16803 -0.27602,0.78194 0.143,1.74982 0.41902,0.96788 1.17808,1.30169 0.76579,0.33091 1.66645,-0.059 0.90739,-0.39283 1.18342,-1.17477 0.27893,-0.77521 -0.143,-1.74981 z m -0.01,-1.60797 q -0.1632,-0.96689 0.22258,-1.71653 0.3887,-0.74291 1.24903,-1.11538 1.20313,-0.52086 2.2717,0.0301 1.07149,0.55771 1.71748,2.04986 0.6489,1.49887 0.31943,2.65511 -0.32948,1.15624 -1.5326,1.6771 -0.86034,0.37246 -1.67096,0.14078 -0.80771,-0.22496 -1.39817,-0.9989 0.19631,1.08025 -0.2334,1.91276 -0.42681,0.83923 -1.38797,1.25534 -1.45853,0.63144 -2.62523,0.075 -1.16378,-0.54968 -1.88251,-2.20985 -0.71874,-1.66018 -0.32607,-2.89167 0.39558,-1.22477 1.85412,-1.85621 0.96115,-0.41611 1.86518,-0.15303 0.90402,0.26307 1.55739,1.14546 z m 1.92879,-1.42562 q -0.77968,0.33754 -1.00706,1.01062 -0.22447,0.6798 0.15672,1.5603 0.37828,0.87378 1.02759,1.1753 0.65222,0.30824 1.4319,-0.0293 0.77968,-0.33755 1.00124,-1.02407 0.22447,-0.6798 -0.15381,-1.55358 -0.38119,-0.8805 -1.0305,-1.18202 -0.6464,-0.2948 -1.42608,0.0427 z m -24.47364,203.01869 -0.20553,7.02825 -0.62962,-0.0184 -10.184729,-4.26926 0.04517,-1.54475 9.576619,4.017 0.1535,-5.24922 z m -8.203117,113.63885 q 0.02912,-0.99566 -0.634626,-1.60126 -0.663946,-0.59827 -1.849959,-0.63296 -1.178696,-0.0345 -1.883795,0.52377 -0.697986,0.56578 -0.727101,1.56145 -0.02912,0.99567 0.63483,1.59395 0.671058,0.60581 1.849754,0.64028 1.186013,0.0347 1.883999,-0.5311 0.697782,-0.55845 0.726898,-1.55413 z m 4.548397,3.07129 -1.34708,-0.0394 q 0.27983,-0.5487 0.43563,-1.11567 0.15558,-0.55966 0.17185,-1.11606 0.0428,-1.46422 -0.92283,-2.26916 -0.965873,-0.79761 -2.961317,-0.96588 0.624307,0.45057 0.942019,1.112 0.325039,0.66163 0.302132,1.44499 -0.04817,1.64725 -1.078993,2.56966 -1.02371,0.92994 -2.744164,0.87963 -1.68385,-0.0492 -2.67237,-1.07466 -0.988509,-1.02542 -0.940125,-2.68 0.05545,-1.89615 1.534349,-2.85676 1.486227,-0.96037 4.246278,-0.87966 2.591661,0.0758 4.093131,1.35068 1.50878,1.27511 1.44819,3.34699 -0.0163,0.5564 -0.14257,1.11691 -0.12652,0.56783 -0.36413,1.17639 z m 27.57009,26.72061 5.80562,0.16977 -0.0364,1.24458 -4.45123,-0.13016 -0.0784,2.67952 q 0.32534,-0.1004 0.64896,-0.14223 0.32385,-0.0492 0.64598,-0.0397 1.83027,0.0535 2.86982,1.08777 1.03954,1.03425 0.98945,2.74738 -0.0516,1.76438 -1.17845,2.7133 -1.12663,0.94159 -3.1253,0.88315 -0.68817,-0.0201 -1.40222,-0.15825 -0.70671,-0.1379 -1.46126,-0.39444 l 0.0435,-1.48618 q 0.64841,0.378 1.34609,0.57426 0.69769,0.19626 1.48105,0.21916 1.26655,0.037 2.02545,-0.60755 0.75892,-0.6446 0.79232,-1.7867 0.0334,-1.14208 -0.68656,-1.82993 -0.71994,-0.68783 -1.98649,-0.72487 -0.593,-0.0173 -1.18987,0.0971 -0.58954,0.11466 -1.21265,0.37487 z m 179.98469,-200.59932 -5.92962,3.58715 3.35121,1.64993 z m 0.22113,-1.32796 1.66903,0.82173 -3.1478,6.39357 1.39962,0.68909 -0.54351,1.10393 -1.39962,-0.68909 -1.13878,2.313 -1.32077,-0.65027 1.13878,-2.31299 -4.42885,-2.1805 0.63086,-1.28134 z m -54.12693,59.84972 q 0.258,-1.05492 0.99281,-1.62695 0.73502,-0.57935 1.78926,-0.54852 1.61796,0.0473 2.47127,1.18602 0.85331,1.13871 0.79336,3.18862 -0.0201,0.68818 -0.18063,1.41622 -0.15297,0.72094 -0.44654,1.48906 l -1.42761,-0.0417 q 0.37671,-0.60449 0.58115,-1.33124 0.20443,-0.72676 0.22776,-1.52476 0.0407,-1.391 -0.4872,-2.13185 -0.52768,-0.74816 -1.57459,-0.77878 -0.96639,-0.0283 -1.52806,0.63676 -0.56878,0.65748 -0.6041,1.86546 l -0.0372,1.27387 -1.2153,-0.0355 0.039,-1.33244 q 0.0319,-1.09085 -0.38313,-1.68184 -0.42235,-0.59122 -1.24231,-0.6152 -0.84193,-0.0246 -1.30607,0.56266 -0.47125,0.57973 -0.50379,1.69253 -0.0178,0.60765 0.0937,1.30701 0.11145,0.69936 0.36524,1.5421 l -1.3178,-0.0385 q -0.20965,-0.84878 -0.30539,-1.58432 -0.0955,-0.74285 -0.0764,-1.39443 0.0492,-1.68385 0.84664,-2.6424 0.79008,-0.95875 2.09324,-0.92065 0.90781,0.0266 1.52223,0.56476 0.60708,0.53799 0.82063,1.50412 z m 146.0412,-159.58292 2.28079,-4.63255 1.11707,0.54997 -3.06692,6.2293 -1.11708,-0.54997 q -0.4099,-1.14065 -1.08354,-3.08873 -0.67697,-1.9579 -0.8931,-2.48066 -0.40243,-0.99002 -0.77231,-1.48235 -0.37323,-0.50214 -0.85291,-0.73831 -0.78195,-0.38498 -1.54653,-0.0756 -0.76134,0.30275 -1.19485,1.18326 -0.30734,0.62425 -0.43343,1.42753 -0.12285,0.79672 -0.0708,1.80199 l -1.34049,-0.65997 q 0.0727,-0.96018 0.25136,-1.73759 0.17866,-0.7774 0.46335,-1.35565 0.75056,-1.52447 1.95925,-2.05599 1.20868,-0.53151 2.48345,0.0961 0.60453,0.29764 1.03669,0.79614 0.42883,0.4887 0.87038,1.44899 0.10968,0.2581 0.58954,1.5883 0.47329,1.32696 1.32008,3.73584 z m -130.0839,-78.69346 -2.52974,5.22824 -1.12081,-0.54232 1.93957,-4.00853 -2.41303,-1.16757 q -0.0415,0.33794 -0.13568,0.65036 -0.0876,0.31561 -0.22798,0.60571 -0.79752,1.64824 -2.16651,2.17378 -1.36899,0.52553 -2.91175,-0.22095 -1.58892,-0.76881 -1.99386,-2.18523 -0.39835,-1.41323 0.47254,-3.21311 0.29987,-0.61974 0.71799,-1.21482 0.41492,-0.58848 0.95767,-1.17206 l 1.33837,0.64758 q -0.61016,0.43706 -1.07464,0.99343 -0.46449,0.55636 -0.80583,1.26181 -0.55188,1.14058 -0.27411,2.09678 0.27775,0.95618 1.30626,1.45384 1.02851,0.49765 1.95067,0.12206 0.92217,-0.37559 1.47405,-1.51618 0.2584,-0.53403 0.39812,-1.12549 0.13653,-0.58486 0.15396,-1.25989 z m -4.67263,-12.59045 -1.05273,2.17568 7.50941,3.63351 0.67055,-2.59657 1.21311,0.58698 -0.66416,2.58338 -0.6444,1.33179 -8.72253,-4.22049 -1.05272,2.17569 -1.12082,-0.54232 2.74348,-5.66997 z m 72.02949,-64.3072 3.90438,-5.72572 -3.73375,-0.10919 z m 0.35034,1.29985 -1.85956,-0.0544 0.20831,-7.12341 -1.55939,-0.0456 0.036,-1.22995 1.55938,0.0456 0.0754,-2.57703 1.47154,0.043 -0.0754,2.57703 4.93442,0.14429 -0.0417,1.42761 z m 13.23808,-9.30696 -2.41595,-0.0707 -0.24385,8.33871 2.64369,-0.45025 -0.0394,1.34708 -2.62905,0.45069 -1.47886,-0.0433 0.28324,-9.6858 -2.41595,-0.0707 0.0364,-1.24459 6.29613,0.18412 z m 66.98662,20.4589 q -0.8525,-0.6728 -1.0677,-1.5788 -0.22178,-0.90924 0.24408,-1.85546 0.71497,-1.45219 2.10521,-1.75554 1.39024,-0.30335 3.23012,0.60249 0.61768,0.30411 1.21331,0.75247 0.5923,0.43856 1.16912,1.02462 l -0.63085,1.28134 q -0.39345,-0.59373 -0.96967,-1.08152 -0.57622,-0.48779 -1.29245,-0.84042 -1.24849,-0.61468 -2.14166,-0.44214 -0.89973,0.16931 -1.36236,1.10896 -0.42704,0.86737 -0.0553,1.6545 0.36189,0.79046 1.4461,1.32425 l 1.14336,0.56292 -0.53703,1.09079 -1.19593,-0.5888 q -0.97908,-0.48204 -1.68906,-0.34993 -0.71321,0.13869 -1.07555,0.87464 -0.37204,0.75566 -0.0306,1.42177 0.33167,0.66945 1.33046,1.16119 0.54539,0.26852 1.22788,0.45759 0.68248,0.18906 1.5545,0.30817 l -0.58232,1.18278 q -0.8592,-0.16178 -1.56806,-0.38015 -0.71543,-0.22162 -1.30025,-0.50955 -1.51133,-0.74408 -2.05215,-1.86755 -0.54405,-1.11689 0.0318,-2.28653 0.40116,-0.8148 1.14593,-1.15021 0.74152,-0.32884 1.70908,-0.12188 z m 14.40467,1.90797 -2.16843,-1.0676 -3.68484,7.48436 2.59192,0.68831 -0.59527,1.20906 -2.57877,-0.68183 -1.32734,-0.6535 4.28011,-8.69343 -2.16844,-1.0676 0.54998,-1.11707 5.65106,2.78223 z m 132.59811,368.08066 2.3263,-4.60986 1.1116,0.56095 -3.12813,6.19879 -1.1116,-0.56095 q -0.39865,-1.14463 -1.05306,-3.09925 -0.65766,-1.96447 -0.86862,-2.48934 -0.39266,-0.99393 -0.75768,-1.48989 -0.36827,-0.50578 -0.8456,-0.74666 -0.77812,-0.39267 -1.54571,-0.0909 -0.76428,0.29524 -1.20644,1.17145 -0.31347,0.62118 -0.44746,1.42319 -0.1307,0.79546 -0.0886,1.8012 l -1.33392,-0.67314 q 0.0822,-0.95943 0.26846,-1.73504 0.1863,-0.7756 0.47668,-1.35101 0.76553,-1.517 1.9794,-2.0366 1.21386,-0.51959 2.48239,0.12056 0.60157,0.30357 1.0288,0.80631 0.42399,0.49289 0.85606,1.4575 0.10713,0.25915 0.57387,1.59402 0.46019,1.33156 1.28322,3.74866 z m -4.75664,9.42589 1.08891,-2.15781 -7.4477,-3.75838 -0.71381,2.58501 -1.20313,-0.60714 0.7072,-2.57194 0.66654,-1.32084 8.65084,4.36552 1.08891,-2.1578 1.1116,0.56095 -2.83776,5.62338 z m -74.87624,73.71164 2.41662,0.0425 0.14665,-8.34099 -2.63826,0.48103 0.0237,-1.34744 2.62362,-0.4813 1.47926,0.026 -0.17035,9.68844 2.41663,0.0425 -0.0219,1.24493 -6.29786,-0.11073 z m -9.53854,-0.16772 2.41662,0.0425 0.14666,-8.341 -2.63826,0.48104 0.0237,-1.34744 2.6236,-0.4813 1.47926,0.026 -0.17035,9.68845 2.41663,0.0425 -0.0219,1.24493 -6.29785,-0.11074 z M 413.94723,594.3235 q -1.02614,-0.50252 -2.04186,0.256 -1.00591,0.75515 -1.99805,2.78112 -0.98892,2.0194 -0.97191,3.28364 0.0268,1.26088 1.05294,1.76339 1.03272,0.50573 2.03864,-0.24942 1.01572,-0.7585 2.00464,-2.7779 0.99213,-2.02598 0.96532,-3.28686 -0.017,-1.26424 -1.04972,-1.76997 z m 0.5154,-1.05246 q 1.65104,0.80852 1.87829,2.54272 0.23705,1.73083 -0.98057,4.21725 -1.2144,2.47985 -2.73028,3.36041 -1.50608,0.87722 -3.15711,0.0687 -1.65104,-0.80853 -1.88809,-2.53936 -0.22724,-1.73419 0.98716,-4.21404 1.21761,-2.48641 2.72369,-3.36363 1.51587,-0.88057 3.16691,-0.072 z m -15.5279,3.40551 2.17069,1.063 3.66897,-7.49216 -2.59337,-0.68281 0.5927,-1.21032 2.58022,0.67636 1.32872,0.65069 -4.26168,8.70248 2.17069,1.06301 -0.5476,1.11823 -5.65694,-2.77026 z M 533.767,340.63712 l -0.5927,1.21032 q -0.38395,-0.48161 -0.83582,-0.85785 -0.45187,-0.37623 -0.9452,-0.61782 -1.31557,-0.64425 -2.43789,-0.10105 -1.13211,0.54656 -2.11339,2.30057 0.65853,-0.37886 1.39214,-0.39475 0.7336,-0.0159 1.44401,0.332 1.47344,0.72155 1.90027,2.03154 0.41703,1.31334 -0.33996,2.85913 -0.74088,1.51291 -2.08322,1.98914 -1.34233,0.47623 -2.82892,-0.25176 -1.70366,-0.8343 -1.95722,-2.58138 -0.26337,-1.74372 0.95426,-4.23014 1.13709,-2.32197 2.92184,-3.16873 1.77495,-0.8434 3.63648,0.0682 0.49992,0.24482 0.96467,0.59474 0.46476,0.34992 0.92065,0.81784 z m -4.68331,2.86884 q -0.89459,-0.43809 -1.71381,-0.0808 -0.82581,0.35404 -1.34764,1.41965 -0.51862,1.05904 -0.29196,1.92847 0.21685,0.87279 1.11144,1.31088 0.89458,0.43809 1.7236,0.0775 0.81922,-0.35726 1.33784,-1.41629 0.52184,-1.06561 0.30176,-1.93183 -0.22665,-0.86944 -1.12123,-1.30752 z m -93.61551,111.72772 q 0.46385,-0.9472 0.22472,-1.7412 -0.24235,-0.78742 -1.13036,-1.22228 -0.88801,-0.43487 -1.65864,-0.14351 -0.77386,0.29792 -1.23771,1.24512 -0.46386,0.94721 -0.22472,1.74121 0.24571,0.79721 1.12713,1.22886 0.88801,0.43486 1.66187,0.13694 0.77063,-0.29135 1.23771,-1.24514 z m 1.21638,-1.0517 q 0.62925,-0.75204 1.44982,-0.94553 0.81736,-0.18692 1.65932,0.2254 1.17743,0.5766 1.45243,1.74699 0.27178,1.17697 -0.44333,2.63725 -0.71833,1.46685 -1.81152,1.96724 -1.0932,0.50038 -2.27062,-0.0762 -0.84197,-0.41232 -1.19225,-1.17919 -0.35349,-0.7603 -0.14845,-1.71191 -0.69394,0.85084 -1.60607,1.06474 -0.91534,0.22048 -1.85597,-0.24015 -1.42739,-0.69901 -1.76199,-1.94752 -0.33784,-1.24193 0.45781,-2.86666 0.79564,-1.62473 1.98709,-2.12591 1.18823,-0.49462 2.61562,0.20438 0.94063,0.46064 1.32769,1.31892 0.38707,0.85829 0.14042,1.92817 z m 2.3367,0.54081 q -0.76303,-0.37366 -1.42251,-0.10943 -0.66272,0.2708 -1.0847,1.13249 -0.41876,0.85512 -0.22634,1.54469 0.18918,0.69613 0.95221,1.06979 0.76303,0.37367 1.42896,0.0963 0.66271,-0.27081 1.08147,-1.12593 0.42198,-0.86169 0.22957,-1.55126 -0.19563,-0.68297 -0.95866,-1.05664 z m 145.3886,-167.87756 -0.12361,7.03016 -0.62978,-0.0111 -10.23379,-4.15028 0.0272,-1.54517 9.62278,3.90512 0.0923,-5.25065 z m 29.85452,-57.55991 q 0.99594,0.0175 1.59376,-0.65323 0.5905,-0.67087 0.61136,-1.85721 0.0207,-1.17902 -0.54569,-1.87756 -0.57388,-0.69135 -1.56981,-0.70886 -0.99595,-0.0175 -1.58644,0.65336 -0.59796,0.67807 -0.61869,1.85709 -0.0209,1.18634 0.55302,1.87768 0.56654,0.69122 1.56249,0.70873 z m -3.01806,4.58389 0.0237,-1.34745 q 0.55192,0.27341 1.12067,0.4226 0.56143,0.14905 1.11799,0.15884 1.46461,0.0258 2.25824,-0.94922 0.78631,-0.9751 0.93131,-2.97237 -0.44327,0.62952 -1.10095,0.95492 -0.6578,0.33272 -1.44137,0.31894 -1.64769,-0.029 -2.58206,-1.04897 -0.94181,-1.0128 -0.91155,-2.73373 0.0296,-1.68431 1.04345,-2.68471 1.01384,-1.0004 2.66886,-0.9713 1.89668,0.0333 2.87445,1.50097 0.97764,1.47493 0.9291,4.23573 -0.0456,2.59237 -1.30291,4.10859 -1.25744,1.52354 -3.32988,1.4871 -0.55656,-0.01 -1.1185,-0.12955 -0.56927,-0.11989 -1.18054,-0.35039 z m 90.91686,1.84123 -5.80721,-0.10211 0.0219,-1.24493 4.45244,0.0783 0.0471,-2.68025 q -0.32416,0.10418 -0.64728,0.14978 -0.32324,0.0529 -0.64546,0.0473 -1.83076,-0.0322 -2.8823,-1.05426 -1.05152,-1.02206 -1.02139,-2.73567 0.031,-1.76485 1.14674,-2.72684 1.11559,-0.95465 3.11479,-0.9195 0.68837,0.0121 1.40397,0.14189 0.70828,0.12966 1.46576,0.37739 l -0.0261,1.48659 q -0.65276,-0.37042 -1.35269,-0.55854 -0.69993,-0.18811 -1.4835,-0.20189 -1.26689,-0.0223 -2.01823,0.63112 -0.75136,0.65339 -0.77144,1.79579 -0.0201,1.14241 0.70783,1.82181 0.72791,0.67941 1.9948,0.70169 0.59317,0.0104 1.18866,-0.11096 0.58816,-0.12151 1.2082,-0.38897 z m -2.3085,117.89347 -3.8374,5.77083 3.73477,0.0657 z m -0.36546,-1.29569 1.86006,0.0327 -0.12528,7.12536 1.55981,0.0274 -0.0216,1.23028 -1.55982,-0.0274 -0.0453,2.57772 -1.47194,-0.0259 0.0453,-2.57772 -4.93576,-0.0868 0.0251,-1.428 z m 34.82012,-60.19821 q 0.24569,-1.05785 0.97377,-1.6384 0.72822,-0.58788 1.78275,-0.56934 1.6184,0.0285 2.48492,1.15714 0.86653,1.12869 0.83048,3.17915 -0.0121,0.68838 -0.16412,1.41824 -0.14457,0.72267 -0.42917,1.49415 l -1.428,-0.0251 q 0.36965,-0.60883 0.5656,-1.33792 0.19595,-0.72909 0.20999,-1.5273 0.0245,-1.39139 -0.51202,-2.12603 -0.53635,-0.74197 -1.58356,-0.76038 -0.96664,-0.017 -1.52053,0.65452 -0.56107,0.66407 -0.58232,1.87237 l -0.0224,1.27423 -1.21564,-0.0214 0.0234,-1.3328 q 0.0192,-1.09114 -0.40271,-1.67726 -0.42922,-0.58625 -1.2494,-0.60067 -0.84215,-0.0148 -1.29942,0.57783 -0.46446,0.58518 -0.48403,1.69829 -0.0107,0.60782 0.10889,1.30584 0.11959,0.69801 0.38318,1.53773 l -1.31815,-0.0232 q -0.21953,-0.84628 -0.32382,-1.58064 -0.10417,-0.7417 -0.0927,-1.39345 0.0296,-1.68431 0.81579,-2.65209 0.77885,-0.96789 2.08236,-0.94498 0.90807,0.016 1.52871,0.54698 0.61333,0.53089 0.83812,1.49446 z m -23.927,204.70742 -2.06148,-4.73421 1.14158,-0.49709 2.77205,6.366 -1.14159,0.4971 q -1.13538,-0.42429 -3.05739,-1.16907 -1.93165,-0.74858 -2.47026,-0.92146 -1.01559,-0.33265 -1.63035,-0.36852 -0.62439,-0.0396 -1.1146,0.1738 -0.79911,0.34797 -1.05712,1.13135 -0.26095,0.77667 0.13089,1.67651 0.27778,0.63794 0.80934,1.25326 0.52863,0.6086 1.32944,1.21851 l -1.3699,0.59652 q -0.68579,-0.67598 -1.16362,-1.31469 -0.47783,-0.6387 -0.73516,-1.22965 -0.67838,-1.55791 -0.30295,-2.82381 0.37544,-1.26589 1.67819,-1.83317 0.6178,-0.26902 1.2775,-0.27668 0.65006,-0.0115 1.66826,0.27212 0.26784,0.0831 1.59309,0.57647 1.31852,0.4963 3.70408,1.40671 z m -64.50188,42.90722 0.94976,2.22256 7.67122,-3.2781 -1.51814,-2.21066 1.23926,-0.52956 1.51238,2.19719 0.58137,1.36049 -8.91048,3.80766 0.94976,2.22257 -1.14496,0.48927 -2.47513,-5.79215 z m 79.83261,74.4188 q -1.14241,-0.0201 -1.74076,1.09749 -0.5909,1.11039 -0.63056,3.3659 -0.0395,2.24819 0.51185,3.38599 0.55882,1.1306 1.70122,1.15068 1.14973,0.0202 1.74062,-1.09016 0.59836,-1.11759 0.63789,-3.36578 0.0397,-2.25551 -0.51917,-3.38611 -0.55136,-1.1378 -1.70109,-1.15801 z m 0.0206,-1.1717 q 1.83809,0.0323 2.77912,1.50661 0.94848,1.4671 0.8998,4.23522 -0.0485,2.7608 -1.04813,4.20097 -0.99215,1.43298 -2.83024,1.40066 -1.8381,-0.0323 -2.78657,-1.49942 -0.94102,-1.47429 -0.89248,-4.23509 0.0487,-2.76812 1.04081,-4.2011 0.99959,-1.44017 2.83769,-1.40785 z" />
    <path
       id="path12393"
       style="fill:none;stroke:#ff0000;stroke-width:1;stroke-linecap:butt;stroke-linejoin:miter;stroke-miterlimit:10;stroke-dasharray:none;stroke-opacity:1"
       d="m 303.67479,517.15873 80.04535,-163.74526 m 76.27166,37.28313 -80.04543,163.74925 m -113.55979,38.98843 37.28821,-76.27555 m 38.98836,113.56278 -76.27657,-37.28723 m 113.55979,-38.98843 -37.28322,76.27566 M 538.98755,229.09576 459.9918,390.6966 M 383.72014,353.41347 462.71489,191.81261 M 578.75938,147.735 538.98755,229.09576 M 502.48772,110.45187 578.75938,147.735 m -116.04449,44.07761 39.77283,-81.36074 m -353.78997,25.91323 30.43673,31.31304 40.92468,91.50833 3.04902,43.56075 M 63.835032,133.88348 l 19.532287,-14.43523 46.675051,1.36489 18.65538,15.55196 m -53.034303,264.57785 19.532293,-14.43524 46.67505,1.3649 18.65938,15.55206 m 0,0 L 140.50552,348.73938 76.327508,200.4881 63.835032,133.88348 M 91.69271,536.7289 95.663447,400.94295 m -6.45232,220.64768 2.481583,-84.86173 m 82.38514,87.34345 -84.866723,-2.48172 m 87.348303,-82.38 -2.48158,84.86172 m 87.3433,-82.38014 -19.53229,14.43523 -46.67504,-1.3649 -18.65439,-15.55191 m 165.16419,-101.45758 -76.1664,-37.50038 m 0,0 14.06302,32.26085 -2.27481,77.79075 -15.92428,31.38794 M 468.14719,180.97871 341.72362,437.75305 m -118.61544,-135.00583 4.1246,-42.9638 43.09051,-89.05552 31.12917,-29.89586 m 0,0 20.80874,-14.39791 49.78672,1.4559 19.92784,15.58915 m 0,0 23.76285,-5.01855 41.89507,20.62341 10.51351,21.89467 m 140.41688,278.40513 -5.08372,43.36973 -45.16139,89.494 -31.86979,29.85536 m 0,0 -19.3615,14.6597 -46.69009,-0.81734 -18.83572,-15.33504 m 0,0 -23.7513,5.07103 -41.9369,-20.53732 -10.5569,-21.87453 m 129.17729,-263.78644 76.24909,37.34096 M 365.31676,583.26943 494.49405,319.48299 m 76.24909,37.34096 -14.45913,-30.82604 1.3106,-74.69985 15.53549,-30.29627 m 0,0 19.36549,-14.65958 46.68497,0.82118 18.83586,15.33104 m 0,0 84.88729,1.49368 m -2.48877,141.47783 -19.36149,14.6597 -46.6891,-0.8173 -18.83172,-15.33492 m 87.37108,-139.98531 -2.48877,141.47783 m -84.88231,-1.49252 39.46123,53.05206 62.84423,144.32492 11.95552,65.03175 m -90.546,-1.59457 -29.69809,-31.32139 -38.87298,-90.97096 -2.11247,-43.11139 m 161.22954,166.99831 -20.63448,14.63834 -49.80282,-0.8765 -20.1087,-15.35641" />
    <path
       id="path12395"
       style="fill:none;stroke:#00ff00;stroke-width:1;stroke-linecap:butt;stroke-linejoin:miter;stroke-miterlimit:10;stroke-dasharray:8, 2, 2, 2;stroke-dashoffset:0;stroke-opacity:1"
       d="m 459.9918,390.6966 -76.27166,-37.28313 m -288.056693,47.52948 84.866723,2.48172 m 559.88477,-37.95873 -84.88231,-1.49252" />
  </g>
</svg>
