<?xml version="1.0" encoding="UTF-8" standalone="no"?>
<!-- Created with Inkscape (http://www.inkscape.org/) -->

<svg
   version="1.1"
   id="svg13614"
   width="1132"
   height="1132"
   viewBox="0 0 1132 1132"
   sodipodi:docname="Z.svg"
   inkscape:version="1.2.2 (732a01da63, 2022-12-09, custom)"
   xmlns:inkscape="http://www.inkscape.org/namespaces/inkscape"
   xmlns:sodipodi="http://sodipodi.sourceforge.net/DTD/sodipodi-0.dtd"
   xmlns="http://www.w3.org/2000/svg"
   xmlns:svg="http://www.w3.org/2000/svg">
  <defs
     id="defs13618" />
  <sodipodi:namedview
     id="namedview13616"
     pagecolor="#ffffff"
     bordercolor="#666666"
     borderopacity="1.0"
     inkscape:showpageshadow="2"
     inkscape:pageopacity="0.0"
     inkscape:pagecheckerboard="0"
     inkscape:deskcolor="#d1d1d1"
     showgrid="false"
     showguides="true"
     inkscape:zoom="0.65989399"
     inkscape:cx="565.2423"
     inkscape:cy="578.12316"
     inkscape:window-width="1920"
     inkscape:window-height="1009"
     inkscape:window-x="0"
     inkscape:window-y="0"
     inkscape:window-maximized="1"
     inkscape:current-layer="g13622">
    <inkscape:page
       x="0"
       y="0"
       id="page13620"
       width="1132"
       height="1132" />
  </sodipodi:namedview>
  <g
     id="g13622"
     inkscape:groupmode="layer"
     inkscape:label="Page 1"
     transform="matrix(1.3333333,0,0,1.3333333,0,2.83e-5)">
    <path
       id="path14694"
       style="font-size:15px;font-family:'DejaVu Sans';-inkscape-font-specification:DejaVuSans;fill:#0000ff"
       d="m 315.62939,400.77295 h 1.34766 q -0.26367,0.55664 -0.40283,1.12793 -0.13916,0.57129 -0.13916,1.1206 0,1.46485 0.98144,2.23389 0.98877,0.77637 2.99561,0.88623 -0.62988,-0.4248 -0.9668,-1.07666 -0.33691,-0.65185 -0.33691,-1.44287 0,-1.64062 0.98877,-2.6001 0.99609,-0.95215 2.71728,-0.95215 1.68457,0 2.70264,0.9961 1.01807,0.99609 1.01807,2.65137 0,1.89697 -1.45752,2.89306 -1.4502,1.00342 -4.21875,1.00342 -2.58545,0 -4.13086,-1.23047 -1.53809,-1.22314 -1.53809,-3.2959 0,-0.55664 0.10986,-1.12793 0.10987,-0.57129 0.32959,-1.18652 z m 4.63623,2.94434 q 0,0.99609 0.68116,1.5747 0.68115,0.58594 1.86767,0.58594 1.1792,0 1.86035,-0.58594 0.68848,-0.57861 0.68848,-1.5747 0,-0.9961 -0.68848,-1.58204 -0.68115,-0.57861 -1.86035,-0.57861 -1.18652,0 -1.86767,0.57861 -0.68116,0.58594 -0.68116,1.58204 z m -85.34682,-21.05581 -1.15559,-0.69336 q 0.51248,-0.34166 0.92574,-0.75994 0.41326,-0.41827 0.69588,-0.8893 0.75366,-1.2561 0.30775,-2.4205 -0.44841,-1.17444 -2.11274,-2.30117 0.32156,0.68834 0.27508,1.42065 -0.0465,0.73229 -0.45346,1.41059 -0.8441,1.40682 -2.18561,1.72084 -1.34402,0.30397 -2.81992,-0.58158 -1.4445,-0.86671 -1.805,-2.24466 -0.36049,-1.37793 0.49114,-2.79731 0.976,-1.62664 2.7383,-1.73089 1.75979,-0.11429 4.13379,1.31012 2.217,1.33022 2.9091,3.18045 0.68959,1.84017 -0.37684,3.61755 -0.28639,0.47731 -0.67453,0.91066 -0.38813,0.43335 -0.89309,0.84785 z m -2.46066,-4.91007 q 0.51249,-0.85415 0.2261,-1.70075 -0.28261,-0.85289 -1.30004,-1.46335 -1.01115,-0.6067 -1.89671,-0.45472 -0.88805,0.14193 -1.40054,0.99608 -0.51249,0.85414 -0.2236,1.71079 0.2864,0.84661 1.29755,1.45331 1.01743,0.61047 1.8992,0.46476 0.88555,-0.15198 1.39804,-1.00612 z m 301.15368,246.3399 q 0,1.05469 0.56396,1.6626 0.56397,0.60058 1.55274,0.60058 0.98877,0 1.55273,-0.60058 0.56396,-0.60791 0.56396,-1.6626 0,-1.05469 -0.56396,-1.6626 -0.57129,-0.60791 -1.55273,-0.60791 -0.98877,0 -1.55274,0.60791 -0.56396,0.60059 -0.56396,1.6626 z m -0.62989,1.47949 q -0.23437,0.95215 -0.88623,1.48682 -0.65185,0.52734 -1.58935,0.52734 -1.31104,0 -2.07276,-0.93017 -0.76172,-0.9375 -0.76172,-2.56348 0,-1.6333 0.76172,-2.56348 0.76172,-0.93017 2.07276,-0.93017 0.9375,0 1.58935,0.53466 0.65186,0.52735 0.88623,1.47217 0.24903,-1.06933 0.97412,-1.6626 0.7251,-0.60058 1.77247,-0.60058 1.58935,0 2.43896,0.97412 0.84961,0.9668 0.84961,2.77588 0,1.80908 -0.84961,2.7832 -0.84961,0.9668 -2.43896,0.9668 -1.04737,0 -1.77247,-0.60059 -0.72509,-0.60058 -0.97412,-1.66992 z m -2.33642,0.54199 q 0.84961,0 1.32568,-0.52734 0.47608,-0.53467 0.47608,-1.49414 0,-0.95215 -0.47608,-1.48682 -0.47607,-0.54199 -1.32568,-0.54199 -0.84961,0 -1.32569,0.54199 -0.47607,0.53467 -0.47607,1.48682 0,0.95947 0.47607,1.49414 0.47608,0.52734 1.32569,0.52734 z m -173.27588,-81.3955 q -1.05469,0 -1.6626,0.56396 -0.60058,0.56396 -0.60058,1.55273 0,0.98877 0.60058,1.55274 0.60791,0.56396 1.6626,0.56396 1.05469,0 1.6626,-0.56396 0.60791,-0.57129 0.60791,-1.55274 0,-0.98877 -0.60791,-1.55273 -0.60059,-0.56396 -1.6626,-0.56396 z m -1.47949,-0.62989 q -0.95215,-0.23437 -1.48682,-0.88623 -0.52734,-0.65185 -0.52734,-1.58935 0,-1.31104 0.93017,-2.07276 0.9375,-0.76172 2.56348,-0.76172 1.6333,0 2.56348,0.76172 0.93017,0.76172 0.93017,2.07276 0,0.9375 -0.53467,1.58935 -0.52734,0.65186 -1.47216,0.88623 1.06933,0.24903 1.66259,0.97412 0.60059,0.7251 0.60059,1.77246 0,1.58936 -0.97412,2.43897 -0.9668,0.84961 -2.77588,0.84961 -1.80908,0 -2.7832,-0.84961 -0.9668,-0.84961 -0.9668,-2.43897 0,-1.04736 0.60058,-1.77246 0.60059,-0.72509 1.66993,-0.97412 z m -0.542,-2.33642 q 0,0.84961 0.52735,1.32568 0.53467,0.47607 1.49414,0.47607 0.95215,0 1.48682,-0.47607 0.54199,-0.47607 0.54199,-1.32568 0,-0.84961 -0.54199,-1.32569 -0.53467,-0.47607 -1.48682,-0.47607 -0.95947,0 -1.49414,0.47607 -0.52735,0.47608 -0.52735,1.32569 z m 31.02149,-136.57129 v -7.03125 h 0.62988 l 10.30518,3.96972 v 1.54541 l -9.68994,-3.73535 v 5.25147 z m 98.33156,-31.80536 3.61757,6.02923 -0.54012,0.32408 -10.87901,1.89799 -0.79511,-1.32517 10.23087,-1.78244 -2.70187,-4.50308 z M 462.7168,590.21729 q 0.99609,0 1.58203,-0.68116 0.57861,-0.68115 0.57861,-1.86767 0,-1.1792 -0.57861,-1.86768 -0.58594,-0.68115 -1.58203,-0.68115 -0.9961,0 -1.57471,0.68115 -0.58594,0.68848 -0.58594,1.86768 0,1.18652 0.58594,1.86767 0.57861,0.68116 1.57471,0.68116 z m -2.93701,4.63623 v -1.34766 q 0.55664,0.26367 1.12792,0.40283 0.56397,0.13916 1.12061,0.13916 1.46484,0 2.24121,-0.98877 0.76904,-0.98877 0.87891,-2.98828 -0.43213,0.63721 -1.08399,0.97412 -0.65185,0.34424 -1.43554,0.34424 -1.64795,0 -2.6001,-1.00342 -0.95947,-0.99609 -0.95947,-2.71728 0,-1.68457 0.99609,-2.70264 0.99609,-1.01807 2.65137,-1.01807 1.89697,0 2.90039,1.4502 1.00342,1.45752 1.00342,4.21875 0,2.59277 -1.23047,4.13086 -1.23047,1.54541 -3.30323,1.54541 -0.55664,0 -1.1206,-0.10986 -0.57129,-0.10987 -1.18652,-0.32959 z M 236.31445,516.63916 q 0.9961,0 1.58203,-0.68115 0.57862,-0.68115 0.57862,-1.86768 0,-1.1792 -0.57862,-1.86767 -0.58593,-0.68116 -1.58203,-0.68116 -0.99609,0 -1.5747,0.68116 -0.58594,0.68847 -0.58594,1.86767 0,1.18653 0.58594,1.86768 0.57861,0.68115 1.5747,0.68115 z m -2.93701,4.63623 v -1.34766 q 0.55664,0.26368 1.12793,0.40284 0.56397,0.13916 1.12061,0.13916 1.46484,0 2.24121,-0.98877 0.76904,-0.98877 0.8789,-2.98828 -0.43213,0.6372 -1.08398,0.97412 -0.65186,0.34424 -1.43555,0.34424 -1.64795,0 -2.6001,-1.00342 -0.95947,-0.9961 -0.95947,-2.71729 0,-1.68457 0.9961,-2.70263 0.99609,-1.01807 2.65136,-1.01807 1.89698,0 2.90039,1.45019 1.00342,1.45752 1.00342,4.21875 0,2.59278 -1.23047,4.13086 -1.23047,1.54541 -3.30322,1.54541 -0.55664,0 -1.12061,-0.10986 -0.57128,-0.10986 -1.18652,-0.32959 z m 228.59668,133.85205 h 5.80811 v 1.24512 h -4.45313 v 2.68066 q 0.32227,-0.10986 0.64453,-0.16113 0.32227,-0.0586 0.64453,-0.0586 1.83106,0 2.90039,1.00341 1.06934,1.00342 1.06934,2.71729 0,1.76514 -1.09863,2.74658 -1.09864,0.97412 -3.09815,0.97412 -0.68847,0 -1.40625,-0.11719 -0.71045,-0.11718 -1.47216,-0.35156 v -1.48681 q 0.65917,0.35888 1.3623,0.53466 0.70312,0.17579 1.48682,0.17579 1.26709,0 2.00683,-0.66651 0.73975,-0.6665 0.73975,-1.80908 0,-1.14258 -0.73975,-1.80908 -0.73974,-0.66651 -2.00683,-0.66651 -0.59327,0 -1.18653,0.13184 -0.58593,0.13184 -1.20117,0.41016 z m 15.16113,-133.61035 h -5.8081 v -1.24512 h 4.45312 v -2.68066 q -0.32226,0.10986 -0.64453,0.16113 -0.32226,0.0586 -0.64453,0.0586 -1.83105,0 -2.90039,-1.00342 -1.06934,-1.00342 -1.06934,-2.71729 0,-1.76513 1.09864,-2.74658 1.09863,-0.97412 3.09814,-0.97412 0.68848,0 1.40625,0.11719 0.71045,0.11718 1.47217,0.35156 v 1.48682 q -0.65918,-0.35889 -1.36231,-0.53467 -0.70312,-0.17578 -1.48681,-0.17578 -1.26709,0 -2.00684,0.6665 -0.73974,0.6665 -0.73974,1.80908 0,1.14258 0.73974,1.80908 0.73975,0.66651 2.00684,0.66651 0.59326,0 1.18652,-0.13184 0.58594,-0.13183 1.20117,-0.41015 z m -128.12841,72.28906 3.73535,-5.8374 h -3.73535 z m 0.38818,1.28906 h -1.86035 v -7.12646 h -1.56006 v -1.23047 h 1.56006 v -2.57812 h 1.47217 v 2.57812 h 4.93652 v 1.42822 z m -46.63867,-50.90869 5.8374,3.73535 v -3.73535 z m -1.28906,0.38819 v -1.86035 h 7.12646 v -1.56006 h 1.23047 v 1.56006 h 2.57812 v 1.47216 h -2.57812 v 4.93653 H 308.396 Z m 104.73339,3.78125 q -0.22705,1.06201 -0.94482,1.65527 -0.71777,0.60059 -1.77246,0.60059 -1.61865,0 -2.50488,-1.11328 -0.88623,-1.11329 -0.88623,-3.16407 0,-0.68847 0.13916,-1.4209 0.13183,-0.72509 0.40283,-1.50146 h 1.42822 q -0.35889,0.61523 -0.54199,1.34766 -0.18311,0.73242 -0.18311,1.53076 0,1.3916 0.54932,2.1167 0.54932,0.73242 1.59668,0.73242 0.9668,0 1.50879,-0.68115 0.54931,-0.67383 0.54931,-1.88233 v -1.27441 h 1.21582 v 1.33301 q 0,1.0913 0.43213,1.66992 0.43946,0.57861 1.25977,0.57861 0.84228,0 1.28906,-0.60059 0.4541,-0.59326 0.4541,-1.70654 0,-0.60791 -0.13183,-1.30371 -0.13184,-0.6958 -0.41016,-1.53076 h 1.31836 q 0.23437,0.84228 0.35156,1.57471 0.11719,0.73974 0.11719,1.3916 0,1.68457 -0.76904,2.66601 -0.76172,0.98145 -2.06543,0.98145 -0.90821,0 -1.53809,-0.52002 -0.62256,-0.52002 -0.86426,-1.47949 z m -53.0205,111.81054 q 1.06201,0.22705 1.65527,0.94483 0.60059,0.71777 0.60059,1.77246 0,1.61865 -1.11329,2.50488 -1.11328,0.88623 -3.16406,0.88623 -0.68848,0 -1.4209,-0.13916 -0.72509,-0.13183 -1.50146,-0.40283 v -1.42822 q 0.61523,0.35888 1.34765,0.54199 0.73243,0.18311 1.53077,0.18311 1.3916,0 2.1167,-0.54932 0.73242,-0.54932 0.73242,-1.59668 0,-0.9668 -0.68116,-1.50879 -0.67382,-0.54932 -1.88232,-0.54932 h -1.27441 v -1.21582 h 1.333 q 1.09131,0 1.66993,-0.43213 0.57861,-0.43945 0.57861,-1.25976 0,-0.84229 -0.60059,-1.28906 -0.59326,-0.45411 -1.70654,-0.45411 -0.60791,0 -1.30371,0.13184 -0.6958,0.13184 -1.53076,0.41016 v -1.31836 q 0.84228,-0.23438 1.5747,-0.35157 0.73975,-0.11718 1.39161,-0.11718 1.68457,0 2.66601,0.76904 0.98145,0.76172 0.98145,2.06543 0,0.9082 -0.52002,1.53809 -0.52002,0.62255 -1.47949,0.86425 z m 178.04199,-80.25146 h 5.16357 v 1.24512 h -6.94336 v -1.24512 q 0.84229,-0.87158 2.29248,-2.33643 1.45752,-1.47216 1.83106,-1.89697 0.71045,-0.79834 0.98877,-1.34766 0.28564,-0.55664 0.28564,-1.0913 0,-0.87159 -0.61523,-1.4209 -0.60791,-0.54932 -1.58936,-0.54932 -0.6958,0 -1.47217,0.2417 -0.76904,0.2417 -1.64795,0.73242 v -1.49414 q 0.89356,-0.35889 1.66993,-0.54199 0.77636,-0.18311 1.4209,-0.18311 1.69921,0 2.70996,0.84961 1.01074,0.84961 1.01074,2.27051 0,0.67383 -0.25635,1.28174 -0.24902,0.60059 -0.91553,1.4209 -0.1831,0.2124 -1.16455,1.23047 -0.98144,1.01074 -2.76855,2.83447 z m -350.92578,84.90234 h 5.16357 v 1.24512 h -6.94336 v -1.24512 q 0.84229,-0.87158 2.29248,-2.33642 1.45752,-1.47217 1.83106,-1.89698 0.71045,-0.79834 0.98877,-1.34765 0.28564,-0.55664 0.28564,-1.09131 0,-0.87158 -0.61523,-1.4209 -0.60791,-0.54932 -1.58936,-0.54932 -0.6958,0 -1.47217,0.2417 -0.76904,0.2417 -1.64795,0.73243 v -1.49414 q 0.89356,-0.35889 1.66993,-0.542 0.77636,-0.1831 1.42089,-0.1831 1.69922,0 2.70996,0.84961 1.01075,0.84961 1.01075,2.2705 0,0.67383 -0.25635,1.28174 -0.24902,0.60059 -0.91553,1.4209 -0.1831,0.2124 -1.16455,1.23047 -0.98144,1.01074 -2.76855,2.83447 z M 401.5498,136.9541 v 2.41699 h 8.34229 l -0.52734,-2.62939 h 1.34765 l 0.52735,2.61475 v 1.47949 h -9.68995 v 2.41699 h -1.24511 v -6.29883 z m -43.80078,46.5918 h -2.41699 v 8.34228 l 2.6294,-0.52734 v 1.34766 l -2.61475,0.52734 h -1.47949 v -9.68994 h -2.41699 v -1.24512 h 6.29882 z m 173.07666,-76.18652 q 1.14258,0 1.72119,-1.12793 0.57129,-1.12061 0.57129,-3.37647 0,-2.24853 -0.57129,-3.376464 -0.57861,-1.120606 -1.72119,-1.120606 -1.1499,0 -1.72119,1.120606 -0.57861,1.127934 -0.57861,3.376464 0,2.25586 0.57861,3.37647 0.57129,1.12793 1.72119,1.12793 z m 0,1.17187 q -1.83838,0 -2.80517,-1.45752 -0.97412,-1.45019 -0.97412,-4.21875 0,-2.76123 0.97412,-4.21875 0.96679,-1.450195 2.80517,-1.450195 1.83838,0 2.8125,1.450195 0.9668,1.45752 0.9668,4.21875 0,2.76856 -0.9668,4.21875 -0.97412,1.45752 -2.8125,1.45752 z m -350.92187,83.73047 q 1.14258,0 1.72119,-1.12793 0.57129,-1.12061 0.57129,-3.37647 0,-2.24853 -0.57129,-3.37646 -0.57861,-1.12061 -1.72119,-1.12061 -1.1499,0 -1.72119,1.12061 -0.57862,1.12793 -0.57862,3.37646 0,2.25586 0.57862,3.37647 0.57129,1.12793 1.72119,1.12793 z m 0,1.17187 q -1.83838,0 -2.80518,-1.45752 -0.97412,-1.45019 -0.97412,-4.21875 0,-2.76123 0.97412,-4.21875 0.9668,-1.45019 2.80518,-1.45019 1.83838,0 2.8125,1.45019 0.9668,1.45752 0.9668,4.21875 0,2.76856 -0.9668,4.21875 -0.97412,1.45752 -2.8125,1.45752 z" />
    <path
       id="path13896"
       style="fill:none;stroke:#00ff00;stroke-width:1;stroke-linecap:butt;stroke-linejoin:miter;stroke-miterlimit:10;stroke-dasharray:8, 2, 2, 2;stroke-dashoffset:0;stroke-opacity:1"
       d="m 399.21159,693.82718 -0.0643,84.90166 M 540.305,582.66 v 84.902" />
    <path
       id="path13912"
       style="fill:none;stroke:#800000;stroke-width:1;stroke-linecap:butt;stroke-linejoin:miter;stroke-miterlimit:10;stroke-dasharray:8,8;stroke-dashoffset:0;stroke-opacity:1"
       d="m 106.95816,778.50643 0.0642,-84.90066 m -73.579138,-0.0562 73.579158,0.0562 m 445.01182,0.3358 -0.0643,84.90166 m 79.30366,-84.83948 -0.0631,84.89668 m -79.17626,-84.95886 79.23936,0.0622 M 398.805,254.379 h -84.903 m 0,0 -152.82,254.703 m 390.543,0 -152.82,-254.703 M 161.082,509.082 h 152.82 m 73.578,73.578 v 84.902 m 11.325,-158.48 h 152.82 M 313.902,582.66 h 73.578 m -73.578,0 v 84.902 m 73.578,0 h -73.578 m 0,-84.902 H 47.879 m 0,84.902 V 582.66 m 266.023,84.902 H 47.879 m 0,-84.902 v -73.578 m 0,0 152.824,-249.039 m 311.301,0 152.82,249.039 M 200.703,260.043 H 47.879 m 616.945,0 h -152.82 m -464.125,0 v -79.242 m 350.926,0 v 73.578 m -84.903,-73.578 h 84.903 m -84.903,0 v 73.578 m 84.903,-73.578 h 266.019 m -616.945,0 h 266.023" />
    <path
       id="path14775"
       style="font-size:15px;font-family:'DejaVu Sans';-inkscape-font-specification:DejaVuSans"
       d="m 35.141334,733.87913 1.347656,10e-4 q -0.264092,0.55645 -0.403682,1.12763 -0.139591,0.57119 -0.140005,1.1205 -0.0011,1.46484 0.97976,2.23462 0.988184,0.77712 2.994937,0.88849 -0.629563,-0.42528 -0.965985,-1.07739 -0.336423,-0.65211 -0.335826,-1.44312 0.0012,-1.64063 0.990729,-2.59935 0.996812,-0.9514 2.718003,-0.9501 1.68457,10e-4 2.701885,0.99813 1.017314,0.99686 1.016066,2.65213 -0.0014,1.89698 -1.4597,2.89197 -1.450951,1.00233 -4.219506,1.00024 -2.585448,-0.002 -4.129931,-1.23358 -1.537162,-1.22431 -1.535599,-3.29706 4.2e-4,-0.55664 0.110714,-1.12785 0.110293,-0.57121 0.330484,-1.18627 z m 4.634009,2.94782 q -7.51e-4,0.9961 0.679964,1.57523 0.680711,0.58645 1.867234,0.58734 1.179198,8.9e-4 1.860793,-0.58453 0.688912,-0.57809 0.689663,-1.57419 7.51e-4,-0.99609 -0.687282,-1.58255 -0.680717,-0.57912 -1.859916,-0.58001 -1.186522,-9e-4 -1.868111,0.5772 -0.681594,0.58542 -0.682345,1.58151 z m 31.415866,34.96078 q -1.054687,-7.9e-4 -1.663023,0.56271 -0.60101,0.56352 -0.601756,1.55228 -7.46e-4,0.98877 0.599414,1.55319 0.607486,0.56442 1.662172,0.56521 1.054688,8e-4 1.663023,-0.5627 0.608341,-0.57084 0.609081,-1.55229 7.45e-4,-0.98875 -0.606739,-1.55318 -0.600161,-0.56442 -1.662172,-0.56522 z m -1.479017,-0.631 q -0.951972,-0.23509 -1.486147,-0.88735 -0.526853,-0.65225 -0.526146,-1.58975 9.89e-4,-1.31104 0.931739,-2.07206 0.938074,-0.76101 2.56405,-0.75979 1.6333,0.001 2.562902,0.76366 0.9296,0.76242 0.928611,2.07346 -7.07e-4,0.9375 -0.535866,1.58895 -0.527834,0.65146 -1.472835,0.88511 1.069147,0.24984 1.661862,0.97538 0.600039,0.72555 0.599249,1.77291 -0.0012,1.58936 -0.975959,2.43824 -0.967438,0.84888 -2.776519,0.84751 -1.809082,-10e-4 -2.782562,-0.85171 -0.966156,-0.85034 -0.964957,-2.4397 7.89e-4,-1.04735 0.601922,-1.772 0.601133,-0.72464 1.670656,-0.97286 z m -0.54023,-2.33683 q -6.41e-4,0.84961 0.526343,1.32608 0.534309,0.47647 1.493782,0.47719 0.952149,7.2e-4 1.487175,-0.47495 0.542351,-0.47566 0.542992,-1.32527 6.41e-4,-0.84961 -0.540992,-1.32609 -0.534309,-0.47648 -1.486458,-0.4772 -0.959473,-7.2e-4 -1.494499,0.47495 -0.527702,0.47568 -0.528343,1.32529 z m 3.337009,-62.80396 -7.031248,-0.005 4.75e-4,-0.62988 3.977498,-10.30218 1.545409,10e-4 -3.742659,9.68712 5.251464,0.004 z m 181.726489,65.04599 q -0.99609,-7.5e-4 -1.58254,0.67996 -0.57913,0.68071 -0.58002,1.86723 -8.9e-4,1.1792 0.5772,1.86812 0.58543,0.68159 1.58152,0.68234 0.9961,7.5e-4 1.57522,-0.67996 0.58646,-0.68804 0.58735,-1.86724 8.9e-4,-1.18652 -0.58453,-1.86811 -0.5781,-0.68159 -1.5742,-0.68234 z m 2.94052,-4.63402 -10e-4,1.34766 q -0.55645,-0.26409 -1.12763,-0.40368 -0.56386,-0.13959 -1.1205,-0.14001 -1.46484,-0.001 -2.24196,0.98708 -0.76978,0.98819 -0.88116,2.98762 0.43261,-0.63688 1.08472,-0.9733 0.65211,-0.34375 1.4358,-0.34316 1.64795,10e-4 2.59935,1.00538 0.95871,0.99681 0.95742,2.718 -10e-4,1.68457 -0.99813,2.70189 -0.99686,1.01732 -2.65214,1.01607 -1.89697,-10e-4 -2.89929,-1.45239 -1.00232,-1.45827 -1.00024,-4.2195 0.002,-2.59277 1.23358,-4.12993 1.23164,-1.54448 3.3044,-1.54292 0.55664,4.2e-4 1.12051,0.1107 0.57121,0.11031 1.18629,0.33049 z m -2.14785,-60.27292 -5.80811,-0.004 9.4e-4,-1.24511 4.45313,0.003 0.002,-2.68067 q -0.32235,0.10963 -0.64465,0.16065 -0.32231,0.0584 -0.64458,0.0581 -1.83105,-10e-4 -2.89964,-1.00561 -1.06857,-1.00422 -1.06728,-2.71808 0.001,-1.76514 1.1007,-2.74576 1.09937,-0.9733 3.09889,-0.97179 0.68847,5.2e-4 1.40616,0.11825 0.71035,0.11773 1.47189,0.35267 l -0.001,1.48682 q -0.65891,-0.35938 -1.36189,-0.53569 -0.703,-0.17631 -1.48669,-0.17691 -1.26709,-9.5e-4 -2.00733,0.66499 -0.74025,0.66595 -0.74112,1.80853 -8.6e-4,1.14257 0.73839,1.80964 0.73924,0.66706 2.00633,0.66801 0.59326,4.5e-4 1.18662,-0.13093 0.58603,-0.1314 1.20148,-0.40926 z m 222.22279,61.48593 -3.73975,5.8346 3.73535,0.003 z m -0.3872,-1.28935 1.86034,10e-4 -0.005,7.12647 1.56006,10e-4 -9.3e-4,1.23046 -1.56006,-10e-4 -0.002,2.57813 -1.47217,-0.001 0.002,-2.57813 -4.93652,-0.004 0.001,-1.42822 z m -3.73102,-65.07353 q -1.06184,-0.22786 -1.65457,-0.94607 -0.60003,-0.71824 -0.59924,-1.77291 10e-4,-1.61866 1.11517,-2.50405 1.11395,-0.88539 3.16473,-0.88385 0.68848,5.2e-4 1.42079,0.14023 0.725,0.13239 1.50117,0.40397 l -0.001,1.42823 q -0.61497,-0.35936 -1.34725,-0.54302 -0.73228,-0.18365 -1.53062,-0.18426 -1.3916,-10e-4 -2.11712,0.54773 -0.73283,0.54876 -0.73362,1.59613 -7.3e-4,0.96679 0.68001,1.50929 0.67342,0.54983 1.88191,0.55074 l 1.27442,9.6e-4 -9.2e-4,1.21582 -1.33301,-0.001 q -1.09131,-8.2e-4 -1.67024,0.43087 -0.57896,0.43902 -0.57957,1.25934 -6.4e-4,0.84228 0.59961,1.28951 0.59292,0.45455 1.7062,0.45539 0.60791,4.6e-4 1.30381,-0.13086 0.6959,-0.13131 1.53108,-0.409 l -10e-4,1.31836 q -0.84246,0.23374 -1.57497,0.35038 -0.73984,0.11663 -1.39169,0.11614 -1.68457,-10e-4 -2.66544,-0.77106 -0.98086,-0.76245 -0.97988,-2.06617 6.8e-4,-0.9082 0.52118,-1.53769 0.52049,-0.62217 1.48014,-0.86314 z m 117.8665,74.8493 5.16356,0.004 -9.3e-4,1.2451 -6.94336,-0.005 9.4e-4,-1.24511 q 0.84294,-0.87095 2.29424,-2.3347 1.45863,-1.47107 1.83249,-1.89559 0.71105,-0.7978 0.98978,-1.34691 0.28606,-0.55643 0.28647,-1.0911 6.5e-4,-0.87158 -0.61416,-1.42135 -0.6075,-0.54978 -1.58895,-0.55052 -0.6958,-5.3e-4 -1.47234,0.24059 -0.76923,0.24112 -1.6485,0.73118 l 10e-4,-1.49414 q 0.89382,-0.35822 1.67032,-0.54073 0.77651,-0.18253 1.42104,-0.18204 1.69922,10e-4 2.70932,0.85165 1.0101,0.85037 1.00903,2.27127 -5.1e-4,0.67383 -0.25732,1.28155 -0.24947,0.60039 -0.91659,1.42021 -0.18327,0.21226 -1.16549,1.22958 -0.9822,1.01001 -2.77068,2.83239 z m 37.49829,-38.28124 0.002,-2.41699 -8.34228,-0.006 0.52536,2.62979 -1.34766,-10e-4 -0.52537,-2.61514 10e-4,-1.47949 9.68994,0.007 0.002,-2.41699 1.24512,9.4e-4 -0.005,6.29883 z m -37.84037,-32.414 q 1.14258,8.6e-4 1.72205,-1.12663 0.57214,-1.12017 0.57384,-3.37603 0.002,-2.24854 -0.56875,-3.3769 -0.57777,-1.12104 -1.72035,-1.1219 -1.1499,-8.7e-4 -1.72203,1.1193 -0.57946,1.1275 -0.58116,3.37604 -0.002,2.25585 0.57606,3.37689 0.57044,1.12836 1.72034,1.12923 z m -8.8e-4,1.17188 q -1.83837,-10e-4 -2.80407,-1.45964 -0.97303,-1.45093 -0.97094,-4.21948 0.002,-2.76123 0.9773,-4.21801 0.96789,-1.44947 2.80626,-1.44809 1.83838,10e-4 2.81141,1.45232 0.9657,1.45825 0.96362,4.21948 -0.002,2.76855 -0.96998,4.21802 -0.97522,1.45678 -2.8136,1.4554 z M 49.605949,622.98779 h 1.347657 q -0.263672,0.55664 -0.402832,1.12793 -0.139161,0.57129 -0.139161,1.12061 0,1.46484 0.981446,2.23388 0.988769,0.77637 2.995605,0.88624 -0.629883,-0.42481 -0.966797,-1.07666 -0.336914,-0.65186 -0.336914,-1.44288 0,-1.64062 0.98877,-2.60009 0.996094,-0.95215 2.717285,-0.95215 1.68457,0 2.702637,0.99609 1.018066,0.9961 1.018066,2.65137 0,1.89697 -1.457519,2.89307 -1.450196,1.00341 -4.21875,1.00341 -2.58545,0 -4.13086,-1.23047 -1.538086,-1.22314 -1.538086,-3.29589 0,-0.55664 0.109864,-1.12793 0.109863,-0.57129 0.329589,-1.18653 z m 4.636231,2.94434 q 0,0.99609 0.681152,1.57471 0.681153,0.58593 1.867676,0.58593 1.179199,0 1.860352,-0.58593 0.688476,-0.57862 0.688476,-1.57471 0,-0.99609 -0.688476,-1.58203 -0.681153,-0.57862 -1.860352,-0.57862 -1.186523,0 -1.867676,0.57862 -0.681152,0.58594 -0.681152,1.58203 z m 0.329601,-79.04297 q 0,-1.05469 -0.563965,-1.6626 -0.563965,-0.60058 -1.552734,-0.60058 -0.98877,0 -1.552734,0.60058 -0.563965,0.60791 -0.563965,1.6626 0,1.05469 0.563965,1.6626 0.571289,0.60791 1.552734,0.60791 0.988769,0 1.552734,-0.60791 0.563965,-0.60059 0.563965,-1.6626 z m 0.629883,-1.47949 q 0.234375,-0.95215 0.88623,-1.48682 0.651856,-0.52734 1.589356,-0.52734 1.311035,0 2.072754,0.93017 0.761719,0.9375 0.761719,2.56348 0,1.6333 -0.761719,2.56348 -0.761719,0.93017 -2.072754,0.93017 -0.9375,0 -1.589356,-0.53467 -0.651855,-0.52734 -0.88623,-1.47216 -0.249023,1.06933 -0.974121,1.66259 -0.725098,0.60059 -1.772461,0.60059 -1.589356,0 -2.438965,-0.97412 -0.849609,-0.9668 -0.849609,-2.77588 0,-1.80908 0.849609,-2.7832 0.849609,-0.9668 2.438965,-0.9668 1.047363,0 1.772461,0.60059 0.725098,0.60058 0.974121,1.66992 z m 2.336426,-0.54199 q -0.84961,0 -1.325684,0.52734 -0.476074,0.53467 -0.476074,1.49414 0,0.95215 0.476074,1.48682 0.476074,0.54199 1.325684,0.54199 0.849609,0 1.325683,-0.54199 0.476075,-0.53467 0.476075,-1.48682 0,-0.95947 -0.476075,-1.49414 -0.476074,-0.52734 -1.325683,-0.52734 z m 594.85107,3.28857 V 541.125 h 0.62988 l 10.30518,3.96973 v 1.54541 l -9.68994,-3.73535 v 5.25146 z M 130.11601,389.51691 q 0.52098,-0.84899 0.24688,-1.70465 -0.27794,-0.84942 -1.28923,-1.47 -1.00506,-0.61674 -1.89449,-0.48367 -0.88702,0.14315 -1.40799,0.99214 -0.52099,0.84899 -0.24305,1.69841 0.28034,0.8595 1.2854,1.47624 1.01129,0.62058 1.89832,0.47743 0.88318,-0.1369 1.40416,-0.9859 z m 2.41543,4.92812 -1.14863,-0.70486 q 0.51586,-0.33653 0.93327,-0.75066 0.41358,-0.40789 0.70471,-0.88232 0.76614,-1.24852 0.32945,-2.42738 -0.44052,-1.17261 -2.08728,-2.31205 0.31709,0.70159 0.26332,1.4334 -0.0475,0.73562 -0.45743,1.40357 -0.86191,1.40458 -2.21513,1.69132 -1.35082,0.29679 -2.81783,-0.60343 -1.43579,-0.88107 -1.78253,-2.26253 -0.34674,-1.38145 0.51901,-2.79228 0.99215,-1.61682 2.75299,-1.71358 1.76708,-0.0929 4.12053,1.35127 2.20988,1.35608 2.87725,3.20928 0.67363,1.85703 -0.41047,3.62369 -0.29114,0.47443 -0.67974,0.89765 -0.39243,0.42946 -0.90149,0.83891 z m 446.2901,-1.74602 -3.03776,-4.95035 1.06123,-0.65122 2.32908,3.79548 2.28479,-1.40205 q -0.26219,-0.21722 -0.47444,-0.46507 -0.2185,-0.24403 -0.38705,-0.5187 -0.95768,-1.56064 -0.66173,-2.99687 0.29595,-1.43622 1.75671,-2.33262 1.50446,-0.9232 2.91557,-0.50013 1.40488,0.4269 2.45066,2.13113 0.36009,0.5868 0.63562,1.25986 0.2717,0.66683 0.47033,1.43864 l -1.26724,0.77763 q -0.0389,-0.74953 -0.25681,-1.44076 -0.21793,-0.69122 -0.62781,-1.35918 -0.66272,-1.07996 -1.61769,-1.36187 -0.95499,-0.28191 -1.92882,0.31568 -0.97385,0.5976 -1.15502,1.5767 -0.18117,0.9791 0.48155,2.05906 0.31029,0.50565 0.73294,0.94234 0.41882,0.43046 0.97782,0.80926 z m -452.84791,-143.80204 -3.73535,5.8374 h 3.73535 z m -0.38818,-1.28906 h 1.86035 v 7.12646 h 1.56006 v 1.23047 h -1.56006 v 2.57813 h -1.47217 v -2.57813 h -4.93652 v -1.42822 z m 465.31738,5.03906 q 1.06201,0.22705 1.65528,0.94483 0.60058,0.71777 0.60058,1.77246 0,1.61865 -1.11328,2.50488 -1.11328,0.88623 -3.16406,0.88623 -0.68848,0 -1.4209,-0.13916 -0.7251,-0.13184 -1.50147,-0.40283 v -1.42822 q 0.61524,0.35888 1.34766,0.54199 0.73242,0.1831 1.53076,0.1831 1.3916,0 2.1167,-0.54931 0.73242,-0.54932 0.73242,-1.59668 0,-0.9668 -0.68115,-1.50879 -0.67383,-0.54932 -1.88232,-0.54932 h -1.27442 v -1.21582 h 1.33301 q 1.09131,0 1.66992,-0.43213 0.57862,-0.43945 0.57862,-1.25976 0,-0.84229 -0.60059,-1.28907 -0.59326,-0.4541 -1.70654,-0.4541 -0.60791,0 -1.30371,0.13184 -0.6958,0.13184 -1.53077,0.41016 v -1.31836 q 0.84229,-0.23438 1.57471,-0.35157 0.73975,-0.11718 1.3916,-0.11718 1.68457,0 2.66602,0.76904 0.98144,0.76172 0.98144,2.06543 0,0.9082 -0.52002,1.53808 -0.52002,0.62256 -1.47949,0.86426 z M 50.62402,219.82764 v 5.16357 h -1.245118 v -6.94336 h 1.245118 q 0.871582,0.84229 2.336425,2.29248 1.472168,1.45752 1.896973,1.83106 0.79834,0.71045 1.347656,0.98877 0.556641,0.28564 1.091309,0.28564 0.871582,0 1.420898,-0.61523 0.549317,-0.60791 0.549317,-1.58936 0,-0.6958 -0.241699,-1.47217 -0.2417,-0.76904 -0.732422,-1.64795 h 1.49414 q 0.358887,0.89356 0.541992,1.66993 0.183106,0.77636 0.183106,1.42089 0,1.69922 -0.849609,2.70996 -0.84961,1.01075 -2.270508,1.01075 -0.673828,0 -1.281739,-0.25635 -0.600585,-0.24902 -1.420898,-0.91553 -0.212402,-0.1831 -1.230469,-1.16455 -1.010742,-0.98144 -2.834472,-2.76855 z M 662.0791,139.74512 v -2.417 h -8.34228 l 0.52734,2.6294 h -1.34766 l -0.52734,-2.61475 v -1.47949 h 9.68994 v -2.41699 h 1.24512 v 6.29883 z m -8.71582,79.68603 q 0,1.14258 1.12793,1.72119 1.12061,0.57129 3.37647,0.57129 2.24853,0 3.37646,-0.57129 1.12061,-0.57861 1.12061,-1.72119 0,-1.1499 -1.12061,-1.72119 -1.12793,-0.57861 -3.37646,-0.57861 -2.25586,0 -3.37647,0.57861 -1.12793,0.57129 -1.12793,1.72119 z m -1.17187,0 q 0,-1.83838 1.45752,-2.80517 1.45019,-0.97412 4.21875,-0.97412 2.76123,0 4.21875,0.97412 1.45019,0.96679 1.45019,2.80517 0,1.83838 -1.45019,2.8125 -1.45752,0.9668 -4.21875,0.9668 -2.76856,0 -4.21875,-0.9668 -1.45752,-0.97412 -1.45752,-2.8125 z" />
    <path
       id="path13924"
       style="fill:none;stroke:#ff0000;stroke-width:1;stroke-linecap:butt;stroke-linejoin:miter;stroke-miterlimit:10;stroke-dasharray:none;stroke-opacity:1"
       d="m 33.379,778.45027 0.06422,-84.90066 m 73.51494,84.95682 -73.57916,-0.0562 m 0.06422,-84.90066 16.567646,-14.98746 40.465874,0.0315 16.545638,15.01214 m 292.12496,85.12305 -292.18918,-0.22241 m 0.0642,-84.90066 292.18921,0.22141 m 152.75836,85.01609 -152.82261,-0.11443 m 0.0643,-84.90166 152.82261,0.11443 m 79.17623,84.95886 -79.24048,-0.0572 m 79.30361,-84.83948 14.98718,19.11124 -0.0349,46.69727 -15.0154,19.08817 m -79.17624,-84.95886 17.84093,-14.98679 43.58057,0.0332 17.81786,15.0158 M 313.902,551.41 V 254.379 m 0,0 -21.523,65.027 -84.051,140.086 -47.246,49.59 m 379.223,73.578 15,19.102 v 46.695 l -15,19.105 M 398.805,551.41 H 313.902 M 398.805,254.379 V 551.41 m 152.82,-42.328 -47.246,-49.59 -84.055,-140.086 -21.519,-65.027 M 387.48,582.66 h 152.825 m -379.223,-73.578 34.383,-15 h 84.051 l 34.386,15 m 226.403,158.48 H 387.48 m 11.325,-158.48 34.383,-15 h 84.054 l 34.383,15 m -237.723,73.578 16.555,-15 h 40.469 l 16.554,15 m -73.578,-73.578 v 73.578 m 84.903,0 v -73.578 m -11.325,158.48 -16.554,15 h -40.469 l -16.555,-15 m -266.023,0 -15,-19.105 v -46.695 l 15,-19.102 m 616.945,0 H 398.805 m -84.903,84.902 -59.855,15 H 107.734 l -59.855,-15 m 0,-84.902 -15,-16.555 v -40.468 l 15,-16.555 m 616.945,0 V 582.66 M 47.879,509.082 69.48,445.203 153.531,308.23 200.703,260.043 m 311.301,0 47.168,48.187 84.055,136.973 21.597,63.879 m -464.121,-249.039 -34.387,15 h -84.05 l -34.387,-15 m 616.945,0 -34.383,15 h -84.05 l -34.387,-15 m -464.125,0 -15,-17.832 v -43.582 l 15,-17.828 m 350.926,0 V 95.898 m -84.903,84.903 19.102,-15 h 46.695 l 19.106,15 M 664.824,95.898 v 84.903 m 0,0 v 79.242 M 398.805,95.898 h 266.019 m -616.945,84.903 59.855,-15 h 146.313 l 59.855,15" />
  </g>
</svg>
