<?xml version="1.0" encoding="UTF-8" standalone="no"?>
<svg
   height="841.88977pt"
   viewBox="0 0 532.99998 754.00001"
   width="595.27557pt"
   version="1.1"
   id="svg1"
   sodipodi:docname="mile_226_H12_lang_A4x3.svg"
   inkscape:version="1.3 (0e150ed6c4, 2023-07-21)"
   xmlns:inkscape="http://www.inkscape.org/namespaces/inkscape"
   xmlns:sodipodi="http://sodipodi.sourceforge.net/DTD/sodipodi-0.dtd"
   xmlns="http://www.w3.org/2000/svg"
   xmlns:svg="http://www.w3.org/2000/svg">
  <defs
     id="defs1" />
  <sodipodi:namedview
     id="namedview1"
     pagecolor="#ffffff"
     bordercolor="#000000"
     borderopacity="0.25"
     inkscape:showpageshadow="2"
     inkscape:pageopacity="0.0"
     inkscape:pagecheckerboard="0"
     inkscape:deskcolor="#d1d1d1"
     inkscape:document-units="mm"
     showgrid="false"
     inkscape:zoom="0.61366018"
     inkscape:cx="1148.0295"
     inkscape:cy="546.71952"
     inkscape:window-width="1920"
     inkscape:window-height="1057"
     inkscape:window-x="-8"
     inkscape:window-y="-8"
     inkscape:window-maximized="1"
     inkscape:current-layer="svg1" />
  <style
     type="text/css"
     id="style1"><![CDATA[
			path {
				fill: none;
				stroke-width: 0.15mm;
			}
		]]></style>
  <g
     id="page_001">
    <path
       d="m 112.8,491.4 -3.2,6.3 m -1,-6.4 4.2,0.1 m 1.7,0.1 3.3,0.1 -1.9,2.3 0.9,0.1 0.6,0.3 0.3,0.3 0.3,0.9 v 0.6 l -0.4,0.9 -0.6,0.6 -0.9,0.2 h -0.9 l -0.9,-0.3 -0.3,-0.3 -0.2,-0.6 m 66.3,-73.1 2.1,-6.7 m 2.1,6.1 -4.2,0.6 m -4.2,0.7 2.3,-4.6 -4.4,0.7 m 2.1,3.9 -0.9,-6.2 m -28.3,84.8 -6,3.7 m 2.5,-6 3.5,2.3 m 3.9,2.6 -2.5,-1.6 -1.7,2.1 0.4,-0.1 0.9,0.2 0.8,0.5 0.6,0.8 0.1,0.8 -0.2,0.9 -0.3,0.5 -0.8,0.6 -0.8,0.2 -0.9,-0.3 -0.8,-0.4 -0.6,-0.8 v -0.4 -0.7 m -43.7,-138.3 0.7,-0.2 0.5,-0.8 0.1,-0.6 -0.1,-0.9 -0.8,-0.8 -1.4,-0.6 -1.4,-0.4 -1.3,0.1 -0.7,0.4 -0.5,0.8 v 0.3 l 0.1,1 0.4,0.7 0.8,0.5 h 0.3 l 1,-0.1 0.7,-0.4 0.5,-0.8 0.1,-0.3 -0.1,-1 -0.5,-0.7 -0.8,-0.5 m 1.4,6.1 h 0.3 l 0.5,0.4 0.3,0.4 0.1,0.6 -0.2,1.2 -0.5,0.5 -0.3,0.3 -0.7,0.1 -0.6,-0.1 -0.5,-0.4 -0.7,-0.8 -2.3,-3.6 -0.9,4.1 m 60.7,7.9 0.8,0.5 0.5,0.7 0.1,0.9 -0.1,0.3 -0.5,0.8 -0.7,0.5 -0.9,0.1 h -0.3 l -0.8,-0.5 -0.5,-0.7 -0.1,-1 0.1,-0.3 0.4,-0.8 0.7,-0.4 1.3,-0.1 1.5,0.3 1.4,0.6 0.7,0.8 0.1,0.9 -0.1,0.6 -0.5,0.8 -0.6,0.2 m -3.8,-8.8 3.5,3.7 0.9,-4.4 m -4.4,0.7 6.2,1.2 m -30.7,-149.1 0.6,-3.2 2,2.2 0.2,-0.9 0.4,-0.5 0.4,-0.2 0.9,-0.1 0.6,0.1 0.8,0.5 0.5,0.7 0.1,0.9 -0.2,0.9 -0.4,0.8 -0.4,0.2 -0.6,0.2 m -3.9,-6.8 0.7,-3.2 2,2.2 0.2,-0.9 0.4,-0.5 0.3,-0.3 1,-0.1 0.6,0.1 0.8,0.5 0.5,0.7 0.1,1 -0.2,0.9 -0.5,0.8 -0.3,0.2 -0.7,0.2 m -63,-4.1 h 0.3 l 0.6,0.2 0.4,0.3 0.3,0.5 0.2,1.2 -0.2,0.6 -0.3,0.4 -0.5,0.4 h -0.6 l -0.7,-0.2 -0.9,-0.5 -3.4,-2.6 0.5,4.2 m 6.5,0.9 0.4,3.3 -2.6,-1.5 0.1,0.9 -0.2,0.6 -0.3,0.4 -0.8,0.4 -0.6,0.1 -0.9,-0.2 -0.7,-0.5 -0.4,-0.9 -0.1,-0.9 0.2,-0.9 0.2,-0.4 0.6,-0.3 m 18.4,-35 0.2,0.2 v 0.7 l -0.1,0.4 -0.4,0.6 -1,0.6 h -0.7 l -0.4,-0.1 -0.5,-0.4 -0.3,-0.5 -0.1,-0.7 0.1,-1 1.1,-4.1 -3.6,2 m 1.5,4.8 -0.4,0.6 -0.3,1.2 -3.2,-5.5 m 53.9,-46.1 -0.1,0.7 0.1,1.2 -4.9,-3.9 m 0.3,6.7 -0.5,-0.8 -0.1,-0.9 0.3,-0.8 0.2,-0.3 0.8,-0.5 0.8,-0.1 0.9,0.3 0.2,0.2 0.6,0.8 0.1,0.9 -0.4,0.9 -0.2,0.2 -0.8,0.5 -0.8,0.1 -1.1,-0.5 -1.2,-1 -1,-1.1 -0.3,-1.1 0.3,-0.8 0.4,-0.5 0.8,-0.5 0.6,0.1 m 41.3,22.5 -0.3,-0.2 -0.2,-0.6 v -0.5 l 0.2,-0.6 0.8,-0.9 0.7,-0.2 h 0.4 l 0.6,0.2 0.5,0.4 0.2,0.6 0.2,1.1 0.1,4.2 2.9,-3 m -1.3,-7.8 -2.1,2.2 1.8,2.1 v -0.5 l 0.4,-0.8 0.6,-0.7 0.8,-0.4 0.9,-0.1 0.9,0.4 0.4,0.5 0.4,0.8 0.1,0.8 -0.4,0.9 -0.7,0.7 -0.8,0.4 h -0.4 l -0.7,-0.2 m -93.4,160.2 -3.7,3.6 4.4,0.8 m -0.7,-4.4 -1.2,6.2 m 5.6,-5.3 -1,0.2 -0.7,0.7 -0.6,1.4 -0.2,0.9 v 1.6 l 0.4,0.9 0.9,0.5 0.5,0.1 1,-0.1 0.7,-0.8 0.6,-1.4 0.2,-0.9 v -1.5 l -0.4,-1 -0.8,-0.5 H 87.1 M 75.2,289 h 0.3 l 0.5,0.3 0.3,0.3 0.3,0.6 -0.1,1.2 -0.3,0.6 -0.3,0.3 -0.6,0.3 -0.6,-0.1 -0.6,-0.3 -0.9,-0.6 -2.8,-3.2 -0.2,4.2 m 6.1,4.6 -4,-3.2 -0.2,4.5 m 4.2,-1.3 -6.3,-0.3 m 90.9,-45.4 -3.3,0.5 1.4,-2.7 -0.8,0.1 -0.7,-0.2 -0.3,-0.2 -0.5,-0.9 v -0.6 l 0.1,-0.9 0.5,-0.7 0.9,-0.4 0.9,-0.1 0.9,0.1 0.3,0.3 0.4,0.5 m -5.1,6 -3.3,0.4 1.5,-2.6 -0.9,0.1 -0.7,-0.2 -0.3,-0.2 -0.4,-0.9 -0.1,-0.6 0.1,-0.9 0.6,-0.7 0.8,-0.4 0.9,-0.1 0.9,0.1 0.4,0.3 0.4,0.5 m 10.1,49.9 h -0.3 l -0.6,-0.3 -0.3,-0.4 -0.3,-0.6 0.1,-1.2 0.4,-0.5 0.3,-0.3 0.6,-0.3 h 0.6 l 0.6,0.4 0.8,0.6 2.8,3.2 0.3,-4.2 m -6,-5.1 -0.2,3 2.7,0.5 -0.3,-0.3 -0.2,-1 v -0.9 l 0.4,-0.8 0.6,-0.6 1,-0.2 h 0.6 l 0.8,0.4 0.6,0.6 0.2,0.9 v 0.9 l -0.4,0.9 -0.3,0.3 -0.6,0.2 m 38,-184.5 0.9,0.3 0.6,0.6 0.3,0.9 v 0.3 l -0.3,0.9 -0.6,0.6 -0.9,0.3 h -0.3 l -0.9,-0.3 -0.6,-0.6 -0.3,-0.9 v -0.3 l 0.3,-0.9 0.6,-0.6 1.2,-0.3 h 1.5 l 1.5,0.3 0.9,0.6 0.3,0.9 v 0.6 l -0.3,0.9 -0.6,0.3 m -4,-4.7 -0.4,-0.6 -0.9,-0.9 h 6.3 m -40.5,-39 0.2,0.7 0.6,1.1 -6.1,-1.5 m 5.6,4.4 v -0.9 l -0.8,-0.8 -1.4,-0.7 -0.8,-0.2 H 167 l -1,0.3 -0.5,0.8 -0.1,0.6 v 1 l 0.8,0.8 1.4,0.6 0.8,0.2 1.6,0.1 1,-0.4 0.5,-0.8 0.1,-0.4 m -1.1,4.7 -0.1,-0.9 -0.5,-0.5 -0.6,-0.1 -0.7,0.2 -0.4,0.5 -0.6,1.1 -0.5,0.8 -0.7,0.4 -0.7,0.2 -0.8,-0.2 -0.5,-0.5 -0.3,-0.3 -0.1,-1 0.3,-1.2 0.5,-0.8 0.4,-0.2 0.6,-0.1 0.9,0.2 0.5,0.4 0.5,0.7 0.1,1 v 1.2 l 0.1,0.7 0.5,0.4 0.6,0.1 0.7,-0.1 0.5,-0.8 0.3,-1.3 m 51.1,-48 0.7,-0.5 0.2,-0.7 -0.2,-0.5 -0.5,-0.5 -0.6,-0.1 h -1.3 -0.9 l -0.8,-0.4 -0.4,-0.5 -0.3,-0.9 0.2,-0.7 0.2,-0.3 0.7,-0.6 1.2,-0.3 h 0.9 l 0.4,0.2 0.5,0.5 0.2,0.9 -0.1,0.6 -0.4,0.8 -0.8,0.5 -1.1,0.7 -0.4,0.4 -0.2,0.7 0.2,0.6 0.5,0.4 0.9,0.1 1.3,-0.4 m -8.2,0.2 0.1,-0.9 0.4,-0.8 0.8,-0.5 0.2,-0.1 h 1 l 0.7,0.4 0.6,0.8 0.1,0.3 -0.1,0.9 -0.4,0.8 -0.8,0.5 -0.3,0.1 h -0.9 l -0.7,-0.4 -0.7,-1.1 -0.4,-1.4 -0.1,-1.6 0.3,-1 0.8,-0.5 0.6,-0.2 h 0.9 l 0.5,0.5 m 38.3,60.7 -0.5,0.8 -0.7,0.5 -0.9,0.1 H 252 l -0.9,-0.5 -0.4,-0.7 -0.2,-0.9 0.1,-0.3 0.5,-0.8 0.7,-0.5 0.9,-0.2 0.3,0.1 0.8,0.5 0.5,0.7 0.1,1.2 -0.3,1.5 -0.6,1.4 -0.7,0.8 -1,0.1 -0.6,-0.1 -0.8,-0.5 -0.2,-0.6 m 5.9,-2.9 0.1,-0.3 0.4,-0.5 0.3,-0.2 0.7,-0.2 1.2,0.2 0.5,0.4 0.2,0.4 0.2,0.6 -0.1,0.6 -0.4,0.5 -0.8,0.8 -3.5,2.4 4.1,0.8 m 41.9,-69.1 0.5,-0.9 0.6,-0.5 1,-0.1 h 0.3 l 0.8,0.4 0.5,0.7 0.2,0.9 v 0.3 l -0.5,0.9 -0.7,0.5 -0.9,0.2 -0.3,-0.1 -0.8,-0.4 -0.5,-0.7 -0.2,-1.2 0.3,-1.5 0.5,-1.4 0.7,-0.9 0.9,-0.1 0.6,0.1 0.9,0.4 0.2,0.6 m -9.1,4.2 3,0.4 0.7,-2.6 -0.3,0.2 -1,0.2 -0.9,-0.1 -0.8,-0.5 -0.5,-0.6 -0.2,-1 0.1,-0.6 0.4,-0.8 0.7,-0.5 1,-0.2 0.8,0.1 0.9,0.5 0.2,0.3 0.3,0.6 m 66.1,34.3 -0.6,-0.2 -1.3,0.1 4.2,-4.7 m -6.5,2.9 0.8,0.3 1.1,-0.2 1.2,-0.9 0.6,-0.7 0.8,-1.3 0.2,-1.1 -0.5,-0.8 -0.5,-0.4 -0.8,-0.4 -1.1,0.3 -1.2,0.9 -0.6,0.6 -0.8,1.4 -0.2,1 0.5,0.9 0.3,0.3 m -1.5,-3.3 -0.6,-0.2 -1.3,0.1 4.3,-4.7 m -17.1,136.7 -1.2,6.9 m -2.9,-5.7 4.1,-1.2 m 4.1,-1.3 -1.7,4.9 4.3,-1.2 m -2.6,-3.7 1.7,6.1 m -63.4,-3.4 -0.4,0.8 -0.7,0.5 -0.9,0.2 -0.3,-0.1 -0.9,-0.4 -0.5,-0.7 -0.1,-1 0.1,-0.2 0.4,-0.9 0.7,-0.5 0.9,-0.1 h 0.3 l 0.9,0.5 0.5,0.7 v 1.2 l -0.2,1.5 -0.6,1.4 -0.7,0.8 -0.9,0.1 -0.6,-0.1 -0.9,-0.4 -0.2,-0.6 m 8.7,-4.1 -3.6,3.6 4.4,0.8 m -0.8,-4.4 -1,6.2 m -28.3,-60.2 -0.2,-0.9 0.2,-0.9 0.6,-0.7 0.3,-0.1 0.9,-0.2 0.8,0.2 0.8,0.6 0.1,0.3 0.2,0.9 -0.2,0.8 -0.7,0.7 -0.2,0.2 -0.9,0.2 -0.9,-0.2 -0.8,-0.9 -0.8,-1.3 -0.5,-1.5 0.1,-1 0.6,-0.8 0.6,-0.3 0.9,-0.1 0.5,0.3 m -2.6,6 0.2,0.3 v 0.7 l -0.1,0.4 -0.3,0.5 -1.1,0.6 -0.7,0.1 -0.4,-0.1 -0.5,-0.4 -0.3,-0.5 -0.1,-0.7 0.1,-1.1 1.1,-4.1 -3.6,2.1 m -15.2,32.2 -0.9,0.3 -0.8,-0.1 -0.8,-0.6 -0.2,-0.2 -0.2,-1 0.1,-0.8 0.6,-0.8 0.2,-0.1 0.9,-0.3 0.8,0.1 0.8,0.6 0.2,0.2 0.3,0.9 -0.2,0.9 -0.8,0.9 -1.2,0.9 -1.4,0.6 h -1.1 l -0.8,-0.5 -0.3,-0.5 -0.3,-0.9 0.3,-0.6 m 6,1.5 0.6,0.3 1.2,0.2 -5.1,3.7 m 142.8,-1.6 0.2,-0.6 -0.1,-1.3 4.6,4.3 m -3,-4.2 0.2,-0.7 v -1.2 l 4.6,4.2 m -1.6,-7.9 -2,2.2 1.8,2.1 V 155 l 0.4,-0.9 0.6,-0.6 0.8,-0.5 h 0.8 l 0.9,0.4 0.5,0.4 0.4,0.8 v 0.9 l -0.4,0.8 -0.6,0.7 -0.8,0.4 H 389 l -0.7,-0.1 m -311.7,251.8 0.4,0.6 0.9,0.2 0.6,-0.1 0.9,-0.4 0.5,-1 0.1,-1.5 -0.2,-1.5 -0.4,-1.1 -0.7,-0.6 -0.9,-0.2 -0.3,0.1 -0.9,0.4 -0.5,0.6 -0.2,1 v 0.3 l 0.4,0.8 0.7,0.6 0.9,0.1 h 0.3 l 0.9,-0.4 0.5,-0.7 0.2,-0.9 m -8.2,4.3 0.4,0.6 0.9,0.2 0.6,-0.1 0.9,-0.4 0.4,-1 0.2,-1.5 -0.2,-1.5 -0.5,-1.1 -0.6,-0.6 -1,-0.2 -0.2,0.1 -0.9,0.4 -0.5,0.7 -0.2,0.9 v 0.3 l 0.4,0.8 0.7,0.6 0.9,0.2 0.3,-0.1 0.9,-0.4 0.5,-0.7 0.2,-0.9 m -34.9,87.9 0.6,0.2 0.8,-0.5 0.4,-0.4 0.4,-0.9 -0.4,-1.1 -0.9,-1.2 -1.2,-0.9 -1.1,-0.6 -0.8,0.1 -0.8,0.5 -0.2,0.2 -0.4,0.9 0.1,0.8 0.5,0.9 0.2,0.2 0.9,0.3 0.9,-0.1 0.8,-0.5 0.2,-0.2 0.3,-0.9 -0.1,-0.8 -0.5,-0.8 m -2.6,9.6 -2.9,-6.3 m 5.6,3.1 -2.7,3.2 m 16.1,41.5 -0.9,0.2 -0.4,0.6 v 0.6 l 0.3,0.6 0.6,0.3 1.2,0.4 0.9,0.3 0.5,0.6 0.3,0.6 v 0.9 l -0.3,0.6 -0.3,0.3 -0.9,0.3 h -1.2 l -0.9,-0.4 -0.3,-0.3 -0.3,-0.6 v -0.9 l 0.3,-0.6 0.7,-0.6 0.9,-0.2 1.2,-0.3 0.6,-0.3 0.3,-0.6 v -0.6 l -0.2,-0.6 -0.9,-0.3 -1.4,-0.1 m 5.8,0.2 -0.9,0.3 -0.6,0.9 -0.4,1.5 v 0.9 l 0.2,1.5 0.6,0.9 0.9,0.3 0.6,0.1 0.9,-0.3 0.6,-0.9 0.4,-1.5 v -0.9 l -0.2,-1.5 -0.6,-0.9 -0.9,-0.3 h -0.4 m -27.6,-15.8 -6.8,-1.9 m 6,-2.3 0.8,4.2 m -1.2,5.3 -1,-0.1 -0.7,-0.5 -0.4,-0.8 -0.1,-0.3 0.2,-1 0.5,-0.7 0.8,-0.4 0.3,-0.1 0.9,0.2 0.7,0.5 0.5,0.8 v 0.3 l -0.1,0.9 -0.5,0.7 -1.1,0.5 -1.5,0.3 h -1.5 l -1,-0.5 -0.5,-0.8 -0.1,-0.6 0.2,-0.9 0.5,-0.4 m 66.8,4.4 2.2,6.6 m -5.3,-3.7 3.1,-2.9 m 3.4,-3.3 -2.2,2.1 1.7,2.2 v -0.5 l 0.4,-0.8 0.7,-0.6 0.8,-0.4 h 0.9 l 0.8,0.4 0.4,0.5 0.4,0.8 v 0.9 l -0.4,0.8 -0.7,0.6 -0.8,0.4 h -0.5 l -0.6,-0.2 m 2.3,-17.9 6.9,-0.4 m -4.9,4.1 -2,-3.7 m -0.8,-1.6 -1.6,-2.9 3,0.5 -0.5,-0.8 v -0.7 l 0.1,-0.4 0.7,-0.7 0.5,-0.3 0.9,-0.1 0.9,0.2 0.6,0.7 0.5,0.8 0.1,0.9 -0.1,0.4 -0.4,0.5 M 29.4,458 l -0.1,-0.6 -0.7,-0.7 -0.5,-0.2 -0.9,-0.1 -1,0.5 -0.8,1.3 -0.7,1.4 -0.2,1.2 0.3,0.8 0.7,0.6 0.3,0.1 0.9,0.1 0.8,-0.3 0.7,-0.7 0.1,-0.2 0.1,-1 -0.3,-0.8 -0.7,-0.6 -0.3,-0.1 -0.9,-0.1 -0.8,0.3 -0.7,0.7 m 10.1,-0.2 -5.3,4.6 m 1.4,-6.3 3.9,1.7 m 6.6,-25.2 0.6,0.3 0.9,-0.5 0.4,-0.4 0.4,-0.8 -0.2,-1.1 -0.8,-1.3 -1.1,-1 -1,-0.7 h -0.9 l -0.8,0.4 -0.2,0.2 -0.5,0.9 v 0.8 l 0.5,0.9 0.2,0.2 0.8,0.4 h 0.9 l 0.8,-0.4 0.2,-0.2 0.5,-0.8 v -0.9 l -0.5,-0.8 m -1.7,7.6 0.5,-0.9 -0.3,-0.6 -0.4,-0.5 -0.6,-0.2 -0.6,0.2 -1.1,0.7 -0.9,0.4 h -0.8 l -0.7,-0.2 -0.6,-0.7 -0.2,-0.6 v -0.4 l 0.4,-0.9 0.9,-0.8 0.9,-0.4 h 0.4 l 0.6,0.2 0.6,0.6 0.3,0.7 -0.1,0.8 -0.4,0.8 -0.6,1.1 -0.2,0.6 0.2,0.7 0.4,0.4 0.6,0.2 0.9,-0.4 0.9,-0.9 m 176.3,-9.3 h 1 l 0.5,-0.4 0.2,-0.5 V 426 l -0.4,-0.5 -1,-0.8 -0.7,-0.6 -0.3,-0.8 v -0.7 l 0.3,-0.8 0.5,-0.4 0.4,-0.2 1,0.1 1.1,0.5 0.7,0.6 0.1,0.4 0.1,0.7 -0.4,0.8 -0.5,0.4 -0.8,0.4 -0.9,-0.1 -1.3,-0.2 h -0.6 l -0.6,0.4 -0.2,0.6 v 0.6 l 0.7,0.7 1.3,0.5 m -3,-2.9 -0.7,0.1 -1.2,0.4 2.5,-5.7 m -28.3,101.4 h -1 l -0.5,0.4 -0.2,0.6 0.1,0.7 0.5,0.5 1.1,0.6 0.7,0.6 0.4,0.7 0.1,0.7 -0.3,0.9 -0.5,0.4 -0.3,0.2 h -1 l -1.1,-0.4 -0.8,-0.5 -0.2,-0.4 -0.1,-0.7 0.3,-0.8 0.5,-0.5 0.7,-0.4 h 1 l 1.2,0.1 0.7,-0.1 0.5,-0.4 0.2,-0.6 -0.1,-0.7 -0.8,-0.6 -1.3,-0.4 m 5.5,1.9 h -0.9 l -0.9,0.6 -0.7,1.3 -0.3,0.9 -0.2,1.5 0.3,1.1 0.7,0.5 0.6,0.2 h 0.9 l 0.9,-0.6 0.8,-1.4 0.2,-0.8 0.2,-1.5 -0.3,-1.1 -0.7,-0.6 -0.4,-0.1 m 43.2,-70.3 0.7,0.7 h 0.7 l 0.5,-0.3 0.4,-0.5 0.1,-0.6 -0.3,-1.3 -0.1,-0.9 0.3,-0.8 0.4,-0.5 0.9,-0.4 h 0.6 l 0.4,0.2 0.7,0.7 0.5,1.1 0.1,0.9 -0.2,0.4 -0.4,0.5 -0.8,0.4 h -0.7 l -0.8,-0.3 -0.6,-0.7 -0.8,-1 -0.5,-0.4 h -0.7 l -0.5,0.2 -0.5,0.5 0.1,1 0.6,1.2 m -3.1,-6.9 1.2,2.7 2.6,-0.8 -0.4,-0.2 -0.7,-0.6 -0.3,-0.9 -0.1,-0.9 0.3,-0.8 0.7,-0.7 0.5,-0.2 1,-0.1 0.8,0.3 0.6,0.7 0.4,0.8 0.1,1 -0.2,0.4 -0.4,0.5 m -1.5,92.6 -5.2,4.6 m 1.4,-6.2 3.8,1.6 m 3.8,3.9 -0.6,0.7 -0.8,0.4 -0.9,-0.1 -0.3,-0.1 -0.7,-0.7 -0.3,-0.8 v -0.9 l 0.2,-0.3 0.6,-0.7 0.8,-0.3 0.9,0.1 0.3,0.1 0.7,0.6 0.3,0.8 -0.2,1.2 -0.6,1.4 -0.8,1.3 -0.9,0.6 -1,-0.1 -0.5,-0.3 -0.7,-0.6 -0.1,-0.7 m 35.8,-21.7 -0.7,-0.2 -0.8,0.5 -0.4,0.5 -0.3,0.8 0.3,1.1 0.9,1.2 1.1,1 1.2,0.5 0.8,-0.1 0.8,-0.4 0.2,-0.3 0.4,-0.8 -0.1,-0.9 -0.5,-0.8 -0.2,-0.2 -0.9,-0.4 -0.8,0.1 -0.8,0.5 -0.2,0.2 -0.4,0.9 0.1,0.8 0.4,0.9 m 1.1,-7.8 -0.3,0.9 0.2,0.6 0.5,0.4 0.6,0.2 0.7,-0.3 1,-0.7 0.8,-0.5 h 0.8 l 0.7,0.1 0.7,0.6 0.2,0.6 0.1,0.5 -0.4,0.8 -0.8,1 -0.8,0.4 -0.4,0.1 -0.7,-0.2 -0.7,-0.6 -0.2,-0.6 -0.1,-0.8 0.4,-0.9 0.5,-1.1 0.2,-0.7 -0.3,-0.6 -0.4,-0.4 -0.7,-0.1 -0.8,0.4 -0.9,1.1 m 14.4,-60.2 -0.5,0.4 -0.5,1.2 -2.1,-5.9 m -0.6,7.1 0.7,-0.6 0.3,-1.1 -0.2,-1.5 -0.3,-0.8 -0.8,-1.3 -0.9,-0.7 h -0.9 l -0.6,0.2 -0.7,0.6 -0.3,1.1 0.2,1.5 0.3,0.8 0.8,1.4 0.9,0.6 h 0.9 l 0.4,-0.2 m -3.7,1.4 -3.1,1.1 0.9,-2.9 -0.9,0.3 -0.6,-0.1 -0.4,-0.1 -0.6,-0.8 -0.2,-0.6 v -0.9 l 0.3,-0.8 0.8,-0.6 0.8,-0.3 h 1 l 0.4,0.2 0.4,0.5 m 32.4,17.8 -0.4,0.5 v 0.9 l 0.2,0.6 0.6,0.7 1.1,0.3 1.5,-0.3 1.4,-0.5 1,-0.7 0.4,-0.8 -0.1,-0.9 -0.1,-0.3 -0.6,-0.7 -0.7,-0.4 h -1 l -0.3,0.1 -0.7,0.6 -0.4,0.8 0.1,1 0.1,0.2 0.6,0.8 0.7,0.3 h 1 m -5.9,-3.8 -1.2,-3.1 2.9,0.8 -0.3,-0.8 0.1,-0.7 0.1,-0.4 0.8,-0.6 0.5,-0.2 h 1 l 0.8,0.4 0.6,0.7 0.3,0.8 v 1 l -0.2,0.4 -0.4,0.5 m 0.4,17.5 -0.3,-0.6 -0.8,-0.4 -0.6,-0.1 -1,0.2 -0.6,0.9 -0.5,1.4 -0.2,1.5 0.2,1.2 0.5,0.7 0.9,0.4 h 0.3 l 0.9,-0.2 0.7,-0.5 0.4,-0.9 v -0.3 l -0.2,-0.9 -0.5,-0.7 -0.9,-0.4 h -0.3 l -0.9,0.2 -0.7,0.5 -0.4,0.9 m 9,-2.4 -0.2,-0.6 -0.9,-0.4 h -0.6 l -0.9,0.2 -0.7,0.8 -0.5,1.4 -0.1,1.5 0.1,1.3 0.6,0.6 0.8,0.4 h 0.3 l 1,-0.2 0.6,-0.5 0.4,-0.9 v -0.2 l -0.2,-1 -0.5,-0.6 -0.9,-0.4 -0.3,-0.1 -0.9,0.2 -0.6,0.6 -0.4,0.8 m 111,-403.6 h -0.6 l -1.2,0.4 3,-5.5 m -5.7,4.2 0.9,0.2 1,-0.5 1,-1.2 0.4,-0.8 0.5,-1.4 -0.1,-1.1 -0.7,-0.7 -0.5,-0.3 -0.9,-0.2 -1,0.5 -1,1.2 -0.4,0.8 -0.5,1.4 0.1,1.1 0.6,0.7 0.4,0.2 m -2.6,-3.2 -0.2,0.3 -0.5,0.4 -0.5,0.1 -0.6,-0.1 -1.1,-0.5 -0.3,-0.6 -0.2,-0.4 0.1,-0.7 0.3,-0.5 0.5,-0.4 1,-0.5 4.1,-1.1 -3.7,-2.1 m 5.7,38 0.3,-0.6 0.2,-1.3 3.9,4.9 m -1.7,-6.9 -0.6,0.8 0.1,1.1 0.7,1.3 0.6,0.7 1.1,1 1.1,0.4 0.9,-0.4 0.4,-0.3 0.6,-0.8 -0.1,-1.1 -0.7,-1.4 -0.6,-0.7 -1.2,-1 -1,-0.3 -0.9,0.3 -0.3,0.3 m 5.1,-4.1 0.2,5.2 3.5,-2.8 m -3.7,-2.4 3.9,4.9 m 11.5,408.6 0.1,-3.3 2.3,1.9 0.1,-0.9 0.3,-0.6 0.3,-0.3 0.9,-0.3 h 0.6 l 0.9,0.3 0.6,0.6 0.2,1 v 0.9 l -0.3,0.8 -0.3,0.3 -0.6,0.3 m -3.6,-5.3 -0.2,-0.6 -0.9,-1 6.3,0.2 m -73.6,109.9 -0.2,-0.2 -0.2,-0.6 v -0.4 l 0.2,-0.7 0.9,-0.8 0.7,-0.2 h 0.4 l 0.6,0.3 0.4,0.4 0.2,0.6 0.2,1.1 -0.1,4.2 3,-2.9 m -2.1,-4.6 -0.2,-0.2 -0.2,-0.6 v -0.5 l 0.3,-0.6 0.8,-0.8 0.7,-0.2 h 0.4 l 0.6,0.2 0.5,0.5 0.2,0.6 0.1,1.1 -0.1,4.2 3.1,-2.9 m -65.5,21.6 v -0.3 l 0.3,-0.6 0.3,-0.3 0.7,-0.2 h 1.2 l 0.5,0.4 0.3,0.3 0.3,0.6 v 0.6 l -0.4,0.6 -0.6,0.8 -3.1,2.9 4.1,0.2 m 3.3,-6.2 -0.9,0.3 -0.7,0.9 -0.3,1.5 -0.1,0.9 0.3,1.5 0.5,0.9 0.9,0.3 0.6,0.1 0.9,-0.3 0.7,-0.9 0.3,-1.4 0.1,-0.9 -0.3,-1.6 -0.5,-0.9 -0.9,-0.3 h -0.4 m -18,-43.7 -3.3,0.7 1.3,-2.7 -0.9,0.2 -0.6,-0.2 -0.4,-0.2 -0.5,-0.8 -0.1,-0.6 0.1,-1 0.5,-0.7 0.8,-0.5 0.9,-0.2 0.9,0.1 0.4,0.3 0.4,0.5 m -7.2,6.8 2,-4.7 -4.4,1 m 2.4,3.7 -1.4,-6.1 m -37.8,44.8 3.3,0.2 -1.9,2.3 h 0.9 l 0.6,0.3 0.3,0.4 0.2,0.9 v 0.6 l -0.3,0.9 -0.7,0.5 -0.9,0.3 -0.9,-0.1 -0.9,-0.3 -0.2,-0.3 -0.3,-0.7 m 9.2,-4.6 -3,-0.1 -0.5,2.6 0.4,-0.2 0.9,-0.3 0.9,0.1 0.8,0.3 0.6,0.6 0.3,0.9 -0.1,0.6 -0.3,0.9 -0.6,0.6 -1,0.2 h -0.9 l -0.8,-0.3 -0.3,-0.4 -0.3,-0.6 m -19.1,-55.9 5,-1.3 -3.4,-2.9 m -1.6,4.2 4,-4.9 m -6.4,2.8 -2.6,-2.1 3,-0.7 -0.7,-0.6 -0.3,-0.6 -0.1,-0.4 0.4,-0.9 0.4,-0.5 0.8,-0.5 0.8,-0.1 0.9,0.4 0.7,0.5 0.5,0.9 v 0.4 l -0.1,0.6 m -34,53.3 -3.3,4 4.5,0.3 m -1.2,-4.3 -0.4,6.3 m 3.5,-4.5 v -0.3 l 0.3,-0.6 0.3,-0.2 0.7,-0.3 1.2,0.1 0.5,0.3 0.3,0.3 0.3,0.7 -0.1,0.6 -0.3,0.5 -0.7,0.9 -3.2,2.8 4.2,0.3 m -6.3,-71.8 h -3.3 l 1.7,-2.4 h -0.9 l -0.6,-0.3 -0.3,-0.2 -0.3,-0.9 v -0.6 l 0.3,-0.9 0.6,-0.7 0.9,-0.3 h 0.9 l 0.9,0.3 0.3,0.3 0.3,0.6 m -9.2,3.1 0.3,-0.9 0.6,-0.6 0.9,-0.3 h 0.3 l 0.9,0.3 0.6,0.6 0.3,0.9 v 0.3 l -0.3,0.9 -0.6,0.6 -0.9,0.3 h -0.3 l -0.9,-0.3 -0.6,-0.6 -0.3,-1.2 v -1.5 l 0.2,-1.5 0.6,-0.9 0.9,-0.3 h 0.6 l 0.9,0.3 0.3,0.6 m -29.3,12.6 -2.8,1.5 0.4,-2.9 -0.8,0.4 h -0.7 l -0.4,-0.1 -0.7,-0.6 -0.3,-0.6 -0.1,-0.9 0.2,-0.8 0.6,-0.7 0.8,-0.4 1,-0.2 0.4,0.1 0.5,0.4 m -3.5,7.8 0.6,-0.7 V 584 l -0.3,-0.5 -0.6,-0.4 H 179 l -1.2,0.3 -1,0.2 -0.8,-0.2 -0.5,-0.4 -0.5,-0.8 v -0.7 l 0.1,-0.4 0.7,-0.7 1,-0.6 1,-0.1 0.4,0.1 0.5,0.4 0.5,0.8 v 0.6 l -0.3,0.8 -0.6,0.7 -0.9,0.9 -0.4,0.5 v 0.7 l 0.3,0.5 0.6,0.4 0.9,-0.2 1.2,-0.6 m -33.8,32.7 0.3,0.2 0.3,0.5 0.1,0.5 -0.1,0.6 -0.7,1 -0.6,0.4 h -0.4 l -0.6,-0.1 -0.5,-0.3 -0.4,-0.6 -0.4,-1 -0.8,-4.2 -2.3,3.5 m 3,4.1 0.3,0.2 0.3,0.5 0.1,0.5 -0.1,0.6 -0.7,1 -0.6,0.4 H 142 l -0.7,-0.1 -0.5,-0.3 -0.3,-0.6 -0.4,-1 -0.8,-4.2 -2.4,3.5 m -4,48.9 0.2,-0.1 0.7,0.1 0.4,0.1 0.5,0.5 0.4,1.1 -0.1,0.7 -0.1,0.4 -0.5,0.5 -0.6,0.2 -0.6,-0.1 -1.1,-0.2 -3.8,-1.8 1.4,3.9 m 7,0.6 -0.6,-0.8 -1.1,-0.2 -1.5,0.2 -0.8,0.4 -1.3,0.8 -0.7,0.8 0.1,1 0.2,0.6 0.6,0.7 1,0.2 1.5,-0.2 0.9,-0.3 1.3,-0.8 0.6,-0.9 v -1 l -0.2,-0.4 m 48.4,-7.1 3.6,3.7 0.8,-4.4 m -4.4,0.7 6.2,1.2 m -4.1,-4 -0.3,-0.1 -0.5,-0.4 -0.2,-0.3 -0.2,-0.7 0.2,-1.1 0.4,-0.6 0.4,-0.2 0.6,-0.2 0.6,0.1 0.5,0.4 0.8,0.8 2.4,3.5 0.8,-4.2 m -35.1,29.4 3.2,-1 -1,2.8 0.8,-0.2 0.7,0.1 0.4,0.2 0.5,0.7 0.2,0.6 v 1 l -0.4,0.7 -0.8,0.6 -0.8,0.2 h -1 l -0.3,-0.2 -0.5,-0.4 m 6.9,-7.6 -2.8,0.9 0.5,2.7 0.2,-0.4 0.8,-0.6 0.8,-0.2 h 1 l 0.7,0.4 0.6,0.7 0.2,0.6 v 0.9 l -0.4,0.8 -0.8,0.6 -0.8,0.2 h -1 l -0.4,-0.2 -0.4,-0.5 m 172.4,-144.7 -0.5,-0.8 -0.7,-0.1 -0.5,0.1 -0.5,0.5 -0.2,0.7 0.1,1.2 -0.1,0.9 -0.4,0.8 -0.5,0.4 -0.9,0.3 -0.6,-0.2 -0.4,-0.2 -0.5,-0.8 -0.3,-1.1 v -1 l 0.2,-0.3 0.5,-0.5 0.9,-0.2 0.6,0.1 0.8,0.4 0.5,0.8 0.6,1.1 0.5,0.5 0.6,0.1 0.6,-0.1 0.5,-0.5 v -0.9 l -0.3,-1.3 m 1.5,5.3 -0.6,-0.8 -0.6,-0.2 -0.6,0.2 -0.5,0.5 -0.1,0.6 v 1.2 1 l -0.5,0.7 -0.5,0.5 -0.8,0.2 -0.7,-0.1 -0.4,-0.2 -0.5,-0.8 -0.3,-1.2 v -0.9 l 0.2,-0.4 0.5,-0.4 0.9,-0.3 0.7,0.2 0.7,0.4 0.5,0.8 0.7,1 0.4,0.5 0.7,0.2 0.5,-0.2 0.5,-0.4 0.1,-1 -0.4,-1.3 m 18.2,-43.5 -0.2,-1 0.3,-0.8 0.6,-0.7 0.2,-0.1 1,-0.2 0.8,0.2 0.7,0.6 0.2,0.2 0.2,1 -0.3,0.8 -0.6,0.7 -0.2,0.2 -1,0.2 -0.8,-0.2 -0.9,-0.9 -0.7,-1.3 -0.5,-1.5 v -1 l 0.6,-0.8 0.6,-0.3 0.9,-0.2 0.6,0.4 m 90.4,-54.9 h -0.3 l -0.6,-0.3 -0.4,-0.2 -0.3,-0.6 -0.1,-1.2 0.3,-0.6 0.2,-0.4 0.6,-0.3 h 0.6 l 0.6,0.2 1,0.5 3.2,2.8 -0.3,-4.2 m -6.5,-2.1 0.4,0.8 0.6,0.3 0.6,-0.1 0.6,-0.3 0.2,-0.6 0.2,-1.2 0.3,-1 0.5,-0.6 0.6,-0.4 h 0.9 l 0.6,0.2 0.3,0.3 0.4,0.9 0.1,1.2 -0.2,0.9 -0.3,0.3 -0.6,0.4 h -0.9 l -0.6,-0.2 -0.7,-0.6 -0.3,-0.8 -0.4,-1.2 -0.4,-0.6 -0.6,-0.3 -0.6,0.1 -0.6,0.3 -0.2,1 0.1,1.3 m -58.4,24.2 1.7,2.8 -3,-0.3 0.5,0.8 v 0.7 l -0.1,0.4 -0.6,0.7 -0.5,0.3 -0.9,0.2 -0.8,-0.2 -0.8,-0.6 -0.4,-0.7 -0.2,-1 0.1,-0.4 0.3,-0.5 m 62.3,-81 h -0.3 l -0.6,-0.3 -0.3,-0.3 -0.3,-0.6 v -1.2 l 0.3,-0.6 0.3,-0.3 0.6,-0.3 h 0.6 l 0.6,0.3 0.9,0.6 3,3 v -4.2 m -4.2,-5 0.9,0.3 0.6,0.6 0.3,0.9 v 0.3 l -0.3,0.9 -0.6,0.6 -0.9,0.3 h -0.3 l -0.9,-0.3 -0.6,-0.6 -0.3,-0.9 v -0.3 l 0.3,-0.9 0.6,-0.6 1.2,-0.3 h 1.5 l 1.5,0.3 0.9,0.6 0.3,0.9 v 0.6 l -0.3,0.9 -0.6,0.3 m -49,-17.7 -0.4,-3 h -2.7 l 0.4,0.2 0.4,0.9 0.1,0.9 -0.3,0.9 -0.5,0.7 -0.8,0.4 h -0.6 l -1,-0.2 -0.6,-0.5 -0.4,-0.9 -0.1,-0.9 0.2,-0.9 0.2,-0.3 0.6,-0.4 m 45.6,-32 -0.5,-3.3 2.7,1.5 -0.2,-0.9 0.2,-0.6 0.3,-0.4 0.8,-0.4 0.6,-0.1 1,0.2 0.6,0.5 0.5,0.8 0.1,0.9 -0.2,1 -0.2,0.3 -0.6,0.4 m -6.4,-8.6 6.7,2.1 m -6.1,2.1 -0.6,-4.2 m -43.4,-46.4 -0.5,0.5 -0.6,1.1 -1.8,-6.1 m 0.4,5.2 -0.5,0.5 -0.6,1.1 -1.7,-6.1 m -0.3,5.3 0.1,0.3 -0.1,0.7 -0.2,0.3 -0.5,0.5 -1.2,0.3 -0.6,-0.1 -0.4,-0.2 -0.4,-0.5 -0.2,-0.6 0.1,-0.7 0.3,-1 2.1,-3.7 -4,1.1 m 37.6,13 6.5,-2.4 m -3.6,5.3 -2.9,-2.9 m 0.2,-1.8 -0.6,-0.2 h -1.3 l 4.5,-4.4 m -50.7,122.1 -0.5,0.5 -0.6,1.1 -1.7,-6 m -2.4,31.4 -0.6,-0.7 -1.1,-0.2 -1.4,0.3 -0.9,0.4 -1.2,0.8 -0.6,1 0.1,0.9 0.2,0.5 0.7,0.8 1,0.1 1.5,-0.3 0.8,-0.3 1.3,-0.9 0.6,-0.9 -0.1,-1 -0.2,-0.4 m -8.7,-94.6 -2.7,6.4 m -1.5,-6.2 4.2,-0.2 m -38.8,-27.9 0.5,0.4 1.2,0.5 -5.8,2.4 m 5.1,-1 0.5,0.5 1.2,0.5 -5.9,2.4 m 129.4,268.7 -0.2,-3.3 2.5,1.7 -0.1,-0.9 0.3,-0.7 0.3,-0.3 0.8,-0.4 h 0.6 l 0.9,0.2 0.7,0.6 0.4,0.9 v 0.9 l -0.2,0.9 -0.3,0.3 -0.6,0.3 m -4,-5.5 h -0.3 l -0.6,-0.3 -0.3,-0.2 -0.4,-0.6 -0.1,-1.2 0.3,-0.6 0.3,-0.3 0.5,-0.4 h 0.6 l 0.6,0.2 1,0.5 3.2,2.8 -0.3,-4.2 m -22.4,18.4 3.3,-0.2 -1.6,2.5 0.8,-0.1 0.7,0.3 0.3,0.3 0.4,0.8 v 0.6 l -0.2,1 -0.6,0.6 -0.9,0.4 h -0.9 l -0.9,-0.2 -0.3,-0.3 -0.4,-0.6 m 6.5,-5.5 -0.9,0.3 -0.2,0.6 v 0.6 l 0.4,0.6 0.6,0.3 1.2,0.2 0.9,0.2 0.7,0.6 0.3,0.6 0.1,0.9 -0.3,0.6 -0.3,0.3 -0.8,0.4 h -1.2 l -1,-0.2 -0.3,-0.3 -0.3,-0.5 -0.1,-0.9 0.3,-0.7 0.5,-0.6 0.9,-0.4 1.2,-0.3 0.6,-0.4 0.2,-0.6 v -0.6 l -0.4,-0.6 -0.9,-0.2 -1.3,0.1 m -84.3,-335.7 -0.4,-0.6 -1.1,-0.6 6.2,-1.4 m -6.8,-0.3 -0.7,-3.2 2.8,1.2 -0.2,-0.9 0.1,-0.6 0.3,-0.4 0.8,-0.5 0.6,-0.1 0.9,0.1 0.7,0.5 0.5,0.8 0.2,0.9 -0.1,0.9 -0.2,0.4 -0.5,0.4 m -18.7,-25.2 -0.6,0.2 -1,0.8 0.7,-6.2 m -5.3,5 0.2,0.6 0.9,0.4 0.5,0.1 1,-0.2 0.7,-0.8 0.4,-1.5 0.2,-1.5 -0.2,-1.2 -0.5,-0.7 -0.8,-0.4 h -0.3 l -1,0.2 -0.6,0.5 -0.4,0.9 -0.1,0.3 0.2,0.9 0.6,0.7 0.8,0.4 h 0.3 l 0.9,-0.2 0.7,-0.5 0.4,-0.9 m -62.5,49.6 -3,0.1 -0.2,2.7 0.3,-0.3 0.9,-0.3 0.9,-0.1 0.9,0.3 0.6,0.6 0.4,0.9 v 0.6 l -0.3,0.9 -0.6,0.6 -0.9,0.3 -0.9,0.1 -0.9,-0.3 -0.3,-0.3 -0.3,-0.6 m 9.1,-3.3 -0.2,0.9 -0.6,0.6 -0.9,0.4 h -0.3 l -0.9,-0.3 -0.6,-0.6 -0.4,-0.9 v -0.3 l 0.3,-0.9 0.6,-0.6 0.9,-0.3 h 0.3 l 0.9,0.2 0.6,0.6 0.3,1.2 0.1,1.5 -0.3,1.5 -0.5,0.9 -0.9,0.4 h -0.6 l -0.9,-0.3 -0.3,-0.6 m 22.6,-59.1 h 1 l 0.5,-0.4 0.2,-0.6 -0.1,-0.6 -0.5,-0.5 -1,-0.7 -0.7,-0.6 -0.4,-0.8 -0.1,-0.6 0.3,-0.9 0.5,-0.4 0.4,-0.2 h 0.9 l 1.2,0.4 0.7,0.6 0.2,0.4 0.1,0.6 -0.3,0.9 -0.5,0.4 -0.8,0.4 H 298 l -1.3,-0.1 h -0.6 l -0.5,0.5 -0.2,0.6 0.1,0.6 0.7,0.6 1.3,0.5 m -3.8,-3 -0.1,0.3 -0.4,0.5 -0.4,0.2 h -0.7 l -1.1,-0.4 -0.5,-0.4 -0.2,-0.4 v -0.7 l 0.2,-0.6 0.4,-0.4 0.9,-0.7 3.9,-1.8 -4,-1.4 m -22.4,34.2 -4.7,-5.2 m 6.3,1.2 -1.6,4 m -0.9,2.4 v -0.9 l -0.4,-0.5 -0.6,-0.3 -0.6,0.1 -0.5,0.5 -0.8,1 -0.6,0.7 -0.8,0.3 -0.6,0.1 -0.9,-0.3 -0.4,-0.5 -0.2,-0.4 0.1,-1 0.4,-1.1 0.6,-0.7 0.4,-0.2 h 0.7 l 0.8,0.3 0.5,0.5 0.3,0.8 v 0.9 l -0.2,1.2 0.1,0.7 0.4,0.5 0.6,0.2 h 0.6 l 0.6,-0.8 0.5,-1.2 m -18.1,155.6 -1.7,-2.5 -2.4,1.2 0.4,0.1 0.8,0.6 0.5,0.7 0.2,0.9 -0.2,0.9 -0.6,0.7 -0.5,0.3 -0.9,0.3 -0.8,-0.2 -0.7,-0.6 -0.5,-0.7 -0.3,-0.9 0.1,-0.5 0.3,-0.5 m 48.9,12.9 -0.3,0.6 0.3,0.9 0.4,0.5 0.8,0.5 h 1 l 1.4,-0.7 1.2,-0.9 0.8,-0.9 0.1,-0.9 -0.3,-0.9 -0.1,-0.2 -0.8,-0.6 -0.9,-0.1 -0.9,0.3 -0.2,0.2 -0.5,0.8 -0.2,0.8 0.3,0.9 0.2,0.3 0.8,0.5 0.8,0.1 0.9,-0.3 m -9.8,5.1 -3.7,6 m -0.5,-6.4 4.2,0.4 m -1.7,-69.8 -0.6,0.2 -1,0.8 0.9,-6.2 m -3.9,6 1,-0.2 0.7,-0.8 0.5,-1.4 0.1,-0.9 v -1.6 l -0.5,-0.9 -0.9,-0.5 H 282 l -1,0.1 -0.7,0.8 -0.5,1.5 -0.2,0.9 0.1,1.5 0.5,1 0.8,0.4 0.5,0.1 m -7.4,-1.1 3.9,-5.8 m 0.3,6.4 -4.2,-0.6 m 25,30.7 0.6,-0.4 0.7,-1 1,6.2 m 1.9,-6.9 -0.9,0.4 -0.4,1 -0.1,1.5 0.2,0.9 0.5,1.5 0.8,0.7 0.9,0.2 0.6,-0.1 0.8,-0.4 0.5,-1 v -1.6 l -0.1,-0.9 -0.6,-1.4 -0.7,-0.8 -0.9,-0.1 -0.5,0.1 m 7.6,0.8 -0.2,1 -0.5,0.7 -0.8,0.4 h -0.3 l -0.9,-0.1 -0.7,-0.5 -0.5,-0.8 v -0.3 l 0.1,-1 0.5,-0.7 0.9,-0.4 0.3,-0.1 0.9,0.2 0.7,0.5 0.5,1.1 0.2,1.5 v 1.5 l -0.5,1 -0.8,0.5 -0.6,0.1 -0.9,-0.2 -0.4,-0.5 m 5.9,-14.6 1,-0.2 0.8,0.2 0.7,0.7 0.1,0.2 0.2,1 -0.2,0.8 -0.6,0.7 -0.3,0.1 -0.9,0.2 -0.8,-0.2 -0.7,-0.6 -0.2,-0.3 -0.2,-0.9 0.2,-0.8 0.9,-0.9 1.3,-0.7 1.5,-0.5 h 1 l 0.8,0.7 0.3,0.5 0.2,0.9 -0.4,0.6 m -8,-3 0.7,0.7 h 1.1 l 1.5,-0.5 0.7,-0.4 1.2,-1 0.5,-1 -0.2,-0.9 -0.3,-0.6 -0.8,-0.6 h -1 l -1.5,0.5 -0.8,0.4 -1.1,1 -0.5,1 0.2,0.9 0.2,0.4 m -98.9,-0.6 h 0.7 l 1.2,-0.3 -3.2,5.4 m 24.8,-31.9 -0.7,0.1 -1.1,0.5 2,-5.9 m -4.9,5.2 h 1 l 0.8,-0.7 0.8,-1.3 0.3,-0.8 0.2,-1.6 -0.3,-1 -0.8,-0.6 -0.5,-0.2 h -1 l -0.9,0.7 -0.7,1.3 -0.3,0.9 -0.2,1.5 0.3,1 0.8,0.6 0.4,0.2 m -6.6,-2.3 2.8,1 1.1,-2.5 -0.3,0.2 h -1 l -0.8,-0.3 -0.8,-0.5 -0.4,-0.8 v -0.9 l 0.2,-0.6 0.6,-0.8 0.7,-0.4 h 1 l 0.8,0.3 0.8,0.6 0.2,0.4 0.1,0.6 m -20.9,6.2 v 0.6 l 0.4,1.3 -5.6,-3 m 4.4,5.7 0.2,-1 -0.6,-0.9 -1.1,-1 -0.8,-0.4 -1.5,-0.4 -1.1,0.1 -0.7,0.6 -0.2,0.5 -0.2,1 0.5,0.9 1.2,1 0.8,0.4 1.5,0.5 1,-0.1 0.7,-0.7 0.2,-0.4 m -4.1,5.8 h 0.7 l 0.7,-0.7 0.3,-0.5 0.1,-0.9 -0.5,-1 -1.2,-1 -1.3,-0.7 -1.2,-0.3 -0.8,0.3 -0.7,0.6 -0.1,0.3 -0.2,0.9 0.3,0.8 0.6,0.7 0.3,0.2 0.9,0.1 0.8,-0.2 0.7,-0.7 0.2,-0.2 0.1,-1 -0.2,-0.8 -0.7,-0.7"
       id="nums_001"
       stroke="#000000"
       style="stroke-width:1.01549;stroke-dasharray:none" />
    <path
       d="m 27,547.5 -7.4,-41 27.5,-32.5 -23.7,5.9 -3.8,-1.8 -11.4,-21.5 1.6,-22.6 29.7,-29.3 22.7,-1.2 9.2,-16.3 2.5,-0.3 12.8,13.6 -11.5,-17.3 7.6,-34.3 17.7,-10.8 -18.2,11.7 -3.4,-0.7 -12.5,-17.7 -14.2,-17.7 2,-41.5 15.8,-16.3 -16.6,-11 -3.9,-31.4 13.2,-14.7 8.4,-22.1 3.5,-2.1 23.3,3.9 56.2,-70.1 18,-74.9 87.2,-25.5 82.8,12.2 48,43.6 67.3,37.6 -1.6,20.4 -26.7,21.2 -20.3,-3.2 2.8,19.1 -20,21.5 -19.2,-1.4 -46.2,13.3 -75.3,-13 -27.8,-39 8.8,-22.4 39.8,-23 23.8,3.6 -82.1,-15.8 15.2,21.4 v 4.8 l -14.8,21.7 -5.1,27.2 -39.1,41.4 -26.9,6.6 10.9,21.6 -0.8,4.1 -18.5,15.6 41.6,-6.2 -6.6,103.3 11.2,19.9 -8.5,41.2 -18.1,13.9 19.1,-18.1 4.7,-0.7 23.7,11.5 19.4,-7.8 3,1.3 7.4,19.7 22,12.2 1.9,4.1 -5.3,24.7 56.6,-20.2 18.6,7.1 11.3,30.2 -9.4,17.6 -24.6,-2.7 -49.4,57.5 -23.1,6.4 -3.8,-1.7 -11.3,-21.1 -17.4,10 -30.8,-10.2 -7.8,-18.4 -22.3,3.3 -3.1,-2 -5.9,-21.8 -12.8,14.6 h -2.8 l -12,-15.4 13.1,24.4 -26.9,25.8 z m 292.4,32.3 -9.4,-33.6 10.7,-17.8 7.3,-21.8 36.5,-21.8 22.7,4 -12.1,-19.7 -19.7,-7.8 -14.7,-33.6 7.7,-19.7 16.3,-20.3 4.6,-1.3 24.6,8.4 -17.2,-19.8 -0.5,-4.8 12.6,-23.1 -12.7,15.6 -32.5,1.4 -14,-14.4 -19.9,-9 -14.7,-35.9 7.9,-20.4 -12.4,15.5 -31.4,1 -13.4,-14.5 31.2,-79.1 39.3,14.2 17.9,-13.1 3.7,0.4 14.5,16.7 17.5,9.5 7,31.4 -11.8,16 46.2,-13.1 32,32 8.2,58.2 0.3,59.6 4.5,61.1 -2.1,80.6 3.2,41 -18,16.3 -4.2,0.3 -20,-13.6 -1.8,22.4 -29.7,28.1 -22.5,0.7 -15.1,14.2 -35.2,-1.7 -13.6,-15.7 -12.6,14.4 -28.8,-1.5 -10.9,-15.6 -22.1,13.5 -4.7,-0.3 -20.1,-16.4 -8.5,46.1 -50,15.9 -22.5,-59.9 41.8,-61.5 37.1,-20.3 38.3,-0.5 19.2,-3.6 23.5,19.5 0.1,19.5 10.4,-17.6 33.3,-7.2 16.85,12 z m -130.6,-213.3 -4.3,-23.9 2,-3.8 22.2,-9.8 24.9,-7.5 4.4,1.5 15.4,21 14.5,-13.1 30.1,4.5 10.1,16.6 22.4,8.6 2.1,3.6 -3.4,23.8 -17.8,18.2 -4.5,0.7 -22.7,-11.4 30.7,41.2 -59,-6.2 -26.2,-40.2 z"
       id="coupes_001"
       stroke="#ff0000"
       style="stroke-width:1.26936"
       sodipodi:nodetypes="cccccccccccccccccccccccccccccccccccccccccccccccccccccccccccccccccccccccccccccccccccccccccccccccccccccccccccccccccccccccccccccccccccccccccccccccccccccccccccccccccccccccccccccccccc" />
    <path
       d="m 153.9,419.2 -54.1,80.1 m 0,0 -13.1,-98.8 m 67.2,18.7 -26.5,80.9 m 0,0 -27.6,-0.8 m 101.6,-87.4 -74,88.2 m 74,-88.2 -42.7,108.7 m 0,0 -31.3,-20.5 m -26.9,-162 53.4,81.1 m -67.2,-18.7 13.8,-62.4 m 68.8,6.1 -15.4,75 m -53.4,-81.1 33.8,-91 m 0,0 35,97.1 M 70,255.9 l 64.3,-8.8 m -33.8,91 L 70,255.9 m 72.7,-50.1 -8.4,41.3 M 70,255.9 142.7,205.8 M 70,255.9 62.7,198.8 m 0,0 80,7 m -44.8,-27.3 44.8,27.3 m -80,-7 35.2,-20.3 m 56.2,-70.1 -11.4,97.4 m 71.1,-75.2 -71.1,75.2 M 66.4,331.4 70,255.9 M 154.1,108.4 213.4,82.7 M 259.3,8 213.4,82.7 M 259.3,8 295.5,98.5 M 342.1,20.2 295.5,98.5 M 390.1,63.8 295.5,98.5 M 390.1,63.8 372.4,179 m 0,0 -76.9,-80.5 m 30.7,93.8 -30.7,-93.8 m -44.6,80.8 44.6,-80.8 m -72.4,41.8 72.4,-41.8 m 94.6,-34.7 18.7,76 M 99.8,499.3 47.1,474 m 0,0 39.6,-73.5 M 47.1,474 62.2,403.5 M 99.8,499.3 86,549.5 m 0,0 -66.4,-43 M 47.1,474 8.2,456.6 m 0,0 54,-53.1 m 139.2,8.4 29.8,13.2 m 0,0 -72.5,95.5 m 72.5,-95.5 -16.5,114.1 m 0,0 -56,-18.6 m 91.1,-54.5 -35.1,73.1 m 16.5,-114.1 18.6,41 m 3.1,89.5 -38.2,-16.4 m 35.1,-73.1 3.1,89.5 m 53.5,-109.7 -4.1,52.2 m 151.8,62.7 -39,44 m 0,0 41.1,-124.6 m -71.5,87.7 71.5,-87.7 m -41.1,124.6 -54,51.2 m 0,0 23.6,-88.1 M 361.1,656 337.4,589 m 0,0 47.3,-21.1 m -23.6,88.1 -63.9,-3.2 m 0,0 40.2,-63.8 M 297.2,652.8 277,602.1 m 20.2,50.7 -52.3,-2.7 m 0,0 32.1,-48 m -32.1,48 -10.7,-83.4 m 0,0 42.8,35.4 m -32.1,48 -46.9,-3.2 m 0,0 36.2,-80.2 m -36.2,80.2 -2.1,-79.7 m 2.1,79.7 -39.2,-59.4 m 39.2,59.4 -81,2.1 m 81,-2.1 -58.5,62 m 245.2,-141 2.5,-79.1 m -49.5,100.8 49.5,-100.8 m -49.5,100.8 -17,-61.2 m 66.5,-39.6 64.5,-69.7 m -57.8,-24.3 57.8,24.3 m -57.8,-24.3 57.5,-35.3 m -62.6,-12.4 62.6,12.4 m -62.6,-12.4 54.4,-45.8 M 365,282.4 443.2,301.3 M 348.4,408 393.9,394.8 M 375.1,469.1 348.4,408 M 329.6,349.7 365,282.4 m 23.8,64.7 -59.2,2.6 m 0,0 -26.7,-65.3 m 0,0 49.4,-58.9 m 0,0 12.7,56.9 m -62.1,2 13.3,-62.9 m 0,0 36.1,4 m -106.6,60.9 70.5,-64.9 m -62.8,122.5 30.8,51.5 m -54.5,-5.2 23.7,-46.3 m 30.8,51.5 -28.3,35 m 52.2,-78.5 -23.9,43.5 m -30.8,-51.5 54.7,8 m 0,0 21.1,36 M 188.8,366.5 253.4,344 m -44.7,-15 44.7,15 m -64.6,22.5 19.9,-37.5"
       id="plisM_001"
       stroke="#a52a2a"
       stroke-dasharray="4" />
    <path
       d="m 86.7,400.5 67.2,18.7 m 0,0 47.5,-7.3 m -100.9,-73.8 68.8,6.1 m -15.2,-235.8 59.7,22.2 M 100.5,338.1 66.4,331.4 m 147,-248.7 0.4,47.9 m -41.7,-97.1 41.3,49.2 m 195.4,57.1 -36.4,39.2 m -310.2,224.5 24.5,-3 M 86,549.5 47.1,474 m 202.7,-7.9 52.5,32 m 4.1,-52.2 20.5,54.9 m 130.5,-399.4 -48.6,38.4 m 6.3,465 -30.4,-36.9 M 277,602.1 337.4,589 m 49.8,-100.2 69,-8.6 m -135.5,48.2 66.5,-39.6 m -12.1,-19.7 76.6,-50 m -76.6,50 18.8,-74.3 m 0,0 -5.1,-47.7 m 0,0 -23.8,-64.7 m -62.1,2 62.1,-2 m 92.3,319.4 -42.2,3 m -112.2,-320.4 -57.2,2 m 38.5,109.1 -54.5,-5.2 m 99.5,-2.3 -45,7.5"
       id="plisV_001"
       stroke="#008000"
       stroke-dasharray="4, 1, 1, 1"
       style="stroke-width:1.26936" />
    <path
       d="m 118.3,407.8 4,4 m 0,-4 -4,4 m 57.3,1.8 4,4 m 0,-4 -4,4 m -42.7,-78.4 4,4 m 0,-4 -4,4 m 49.1,-225.7 4,4 m 0,-4 -4,4 m -100.5,211.3 4,4 m 0,-4 -4,4 m 130.1,-232.2 4,4 m 0,-4 -4,4 m -20.9,-52.5 4,4 m 0,-4 -4,4 m 197.9,97.3 4,4 m 0,-4 -4,4 M 72.5,400 l 4,4 m 0,-4 -4,4 m -8,105.8 4,4 m 0,-4 -4,4 m 209.6,-33.7 4,4 m 0,-4 -4,4 m 40.5,-12.7 4,4 m 0,-4 -4,4 m 116.5,-356.8 4,4 m 0,-4 -4,4 m -33.2,461.7 4,4 m 0,-4 -4,4 m -92.7,5.3 4,4 m 0,-4 -4,4 m 114.5,-115.1 4,4 m 0,-4 -4,4 m -67.8,20.1 4,4 m 0,-4 -4,4 m 59.5,-68.5 4,4 m 0,-4 -4,4 m -28.9,-16.1 4,4 m 0,-4 -4,4 m 6.9,-65 4,4 m 0,-4 -4,4 m -14.5,-60.2 4,4 m 0,-4 -4,4 m -42.9,-35.4 4,4 m 0,-4 -4,4 m 102.2,315.9 4,4 m 0,-4 -4,4 m -161.9,-321.9 4,4 m 0,-4 -4,4 m -17.3,103.5 4,4 m 0,-4 -4,4 m 49.7,-5.1 4,4 m 0,-4 -4,4"
       id="marqueV_001"
       stroke="#008000" />
    <path
       d="m 157.6,268.6 1.5,-0.8 2.2,-2.2 v 15.7"
       id="titre_1"
       stroke="#4b0082"
       style="stroke-width:1.26936" />
    <path
       d="m 344,527 v -0.8 l 0.7,-1.5 0.8,-0.7 1.5,-0.8 h 3 l 1.5,0.8 0.7,0.7 0.8,1.5 v 1.5 l -0.8,1.5 -1.5,2.3 -7.5,7.5 h 10.5"
       id="titre_2"
       stroke="#4b0082"
       style="stroke-width:1.26936" />
    <path
       d="m 251.7,364.2 h 8.2 l -4.5,6 h 2.3 l 1.5,0.8 0.7,0.7 0.8,2.3 v 1.5 l -0.8,2.2 -1.5,1.5 -2.2,0.8 h -2.3 l -2.2,-0.8 -0.8,-0.7 -0.7,-1.5"
       id="titre_3"
       stroke="#4b0082"
       style="stroke-width:1.26936" />
  </g>
  <g
     id="page_002">
    <path
       d="m 588.3,32.4 -0.5,0.4 -0.7,1.1 -1.4,-6.1 m -0.2,6.7 -3.2,0.7 1.2,-2.7 -0.9,0.2 -0.6,-0.2 -0.4,-0.2 -0.5,-0.8 -0.1,-0.6 0.1,-0.9 0.4,-0.7 0.8,-0.5 0.9,-0.2 1,0.1 0.3,0.2 0.4,0.5 m -21.4,3.2 0.7,0.2 1.2,0.1 -4.5,4.3 m 7.7,-1.4 -5.1,0.7 3.1,3.3 m 2,-4 -4.6,4.3 m 16.1,50.8 0.4,0.6 1,0.8 -6.3,0.7 m 7,4 -0.3,-3 h -2.7 l 0.3,0.3 0.4,0.8 0.1,0.9 -0.2,0.9 -0.5,0.7 -0.9,0.4 -0.6,0.1 -0.9,-0.2 -0.6,-0.5 -0.5,-0.9 -0.1,-0.9 0.2,-0.9 0.3,-0.4 0.6,-0.3 m 12.8,45 0.6,-0.2 1.1,-0.6 -1.4,6.1 m 4,-5.8 -0.9,0.1 -0.4,0.6 -0.2,0.5 0.2,0.7 0.5,0.4 1.1,0.6 0.8,0.5 0.5,0.7 0.1,0.6 -0.2,0.9 -0.4,0.5 -0.4,0.3 -0.9,0.1 -1.2,-0.3 -0.8,-0.5 -0.2,-0.4 -0.2,-0.6 0.2,-0.9 0.5,-0.5 0.7,-0.5 0.9,-0.1 h 1.3 l 0.6,-0.1 0.4,-0.6 0.2,-0.5 -0.2,-0.7 -0.8,-0.5 -1.3,-0.3 m 36.7,-47.6 0.7,0.2 1.2,-0.1 -4.1,4.7 m 4.1,-3.1 0.7,0.2 1.3,-0.1 -4.2,4.7 m 8.2,-1.4 -6.4,2.7 m 3.3,-5.5 3.1,2.8 m -21,16.7 -0.5,-0.4 -1.2,-0.5 5.8,-2.5 m -5.1,1.1 -0.5,-0.5 -1.2,-0.4 5.8,-2.5 m -8,-2.2 7,0.2 m -5.4,3.6 -1.6,-3.8 m 0.4,51.8 0.5,0.5 1,0.7 -6.1,1.4 m 6.9,1.2 -0.5,-0.9 -0.6,-0.1 -0.6,0.1 -0.5,0.4 -0.2,0.7 v 1.2 l -0.1,1 -0.5,0.7 -0.5,0.4 -0.9,0.2 -0.6,-0.2 -0.4,-0.2 -0.5,-0.8 -0.2,-1.2 0.1,-0.9 0.2,-0.4 0.5,-0.4 0.9,-0.2 0.6,0.2 0.8,0.4 0.4,0.8 0.6,1.1 0.4,0.6 0.7,0.1 0.6,-0.1 0.5,-0.4 0.1,-1 -0.3,-1.3 m 22,3 -0.5,-0.4 -1.1,-0.5 5.9,-2.3 m -7.9,-2.5 6.9,0.6 m -5.5,3.3 -1.4,-3.9 m 0.4,65.5 -0.1,-0.7 -0.6,-1.1 6,2.1 m -4.2,-3.3 -0.3,-0.1 -0.4,-0.5 -0.2,-0.3 -0.1,-0.7 0.4,-1.1 0.5,-0.5 0.4,-0.2 h 0.7 l 0.6,0.2 0.4,0.4 0.6,0.9 1.8,3.9 1.5,-4 m -35.8,9.9 0.1,0.6 0.7,1.1 -6.2,-1.3 m 5.8,4.2 -0.1,-0.9 -0.8,-0.8 -1.4,-0.6 -0.9,-0.2 h -1.5 l -1,0.4 -0.5,0.8 -0.1,0.6 0.1,0.9 0.7,0.8 1.4,0.6 0.9,0.2 h 1.6 l 1,-0.4 0.5,-0.8 v -0.4 m -1.1,5.1 -0.1,-1 -0.7,-0.8 -1.4,-0.6 -0.9,-0.2 h -1.5 l -1,0.4 -0.5,0.8 -0.1,0.6 0.1,0.9 0.7,0.8 1.4,0.6 0.9,0.2 1.5,0.1 1,-0.4 0.5,-0.9 0.1,-0.4 m 15.3,47.8 0.8,0.4 0.6,0.6 0.1,1 v 0.3 l -0.4,0.8 -0.7,0.5 -0.9,0.2 h -0.3 l -0.8,-0.4 -0.6,-0.7 -0.2,-0.9 0.1,-0.3 0.4,-0.9 0.6,-0.5 1.3,-0.1 1.5,0.1 1.4,0.5 0.8,0.7 0.2,0.9 v 0.6 l -0.4,0.9 -0.7,0.2 m -4.3,-9.3 5.9,3.7 m -6.4,0.4 0.5,-4.1 m -47.1,43.8 1.8,-2.5 -2.1,-1.8 0.1,0.5 -0.3,0.9 -0.5,0.7 -0.7,0.6 -0.9,0.1 -0.9,-0.3 -0.5,-0.3 -0.5,-0.8 -0.2,-0.8 0.3,-0.9 0.5,-0.8 0.8,-0.5 0.4,-0.1 0.7,0.1 m -1.8,9.7 0.7,0.1 0.7,-0.5 0.4,-0.5 0.3,-0.9 -0.4,-1 -1.1,-1.1 -1.2,-0.9 -1.1,-0.5 -0.9,0.2 -0.8,0.6 -0.1,0.2 -0.3,0.9 0.1,0.8 0.6,0.8 0.3,0.2 0.9,0.3 0.8,-0.2 0.8,-0.5 0.1,-0.3 0.3,-0.9 -0.1,-0.8 -0.6,-0.8 m -3.3,37.6 -2,-2.2 -2.2,1.6 h 0.4 l 0.8,0.5 0.6,0.7 0.4,0.8 v 0.9 l -0.5,0.8 -0.5,0.4 -0.8,0.4 -0.9,-0.1 -0.8,-0.4 -0.6,-0.7 -0.4,-0.9 v -0.4 l 0.3,-0.6 m 9.7,3.2 -2,-2.2 -2.2,1.6 h 0.5 l 0.8,0.5 0.6,0.6 0.4,0.9 -0.1,0.8 -0.5,0.9 -0.4,0.4 -0.9,0.3 h -0.8 l -0.8,-0.5 -0.6,-0.6 -0.4,-0.9 v -0.4 l 0.2,-0.7 m 63.8,-29.5 -0.4,0.6 0.1,0.9 0.3,0.5 0.7,0.7 1,0.1 1.5,-0.4 1.3,-0.7 1,-0.8 0.2,-0.8 -0.1,-1 -0.2,-0.3 -0.6,-0.6 -0.9,-0.3 -0.9,0.2 -0.3,0.1 -0.6,0.7 -0.3,0.8 0.2,1 0.1,0.2 0.7,0.7 0.8,0.2 0.9,-0.1 m -4.7,-3.1 -0.6,-0.4 -1.2,-0.4 5.6,-2.9 m -37.1,63.1 0.2,-0.6 -0.3,-0.9 -0.4,-0.5 -0.8,-0.5 -1.1,0.1 -1.3,0.8 -1.2,0.9 -0.7,1 -0.1,0.9 0.4,0.9 0.1,0.2 0.8,0.5 0.9,0.1 0.9,-0.4 0.2,-0.2 0.5,-0.8 0.1,-0.8 -0.4,-0.9 -0.1,-0.2 -0.9,-0.5 -0.8,-0.1 -0.9,0.3 m 7.6,2.6 -0.8,-0.5 -1.1,0.1 -1.3,0.8 -0.7,0.5 -1,1.2 -0.3,1.1 0.4,0.8 0.4,0.5 0.8,0.5 1,-0.1 1.4,-0.7 0.7,-0.6 0.9,-1.2 0.4,-1 -0.4,-0.9 -0.3,-0.4 m 54.2,-32.8 -0.1,0.6 0.5,0.8 0.5,0.4 0.9,0.3 1,-0.4 1.1,-1 0.9,-1.2 0.5,-1.2 -0.1,-0.8 -0.6,-0.8 -0.2,-0.2 -0.9,-0.3 -0.8,0.2 -0.8,0.5 -0.2,0.2 -0.3,0.9 0.1,0.9 0.6,0.8 0.2,0.1 0.9,0.3 0.9,-0.1 0.7,-0.5 m -9.1,-1.5 4.9,-1.6 -3.6,-2.7 m -1.3,4.3 3.8,-5.1 m -29.9,69.5 -6.8,1.5 m 4.2,-4.8 2.6,3.3 m 2.2,4.3 0.3,-0.6 -0.3,-0.9 -0.4,-0.5 -0.7,-0.5 -1.1,0.1 -1.4,0.7 -1.2,0.9 -0.7,1 -0.1,0.8 0.3,0.9 0.2,0.3 0.8,0.5 0.8,0.1 0.9,-0.3 0.2,-0.2 0.6,-0.8 0.1,-0.8 -0.4,-0.9 -0.1,-0.3 -0.8,-0.5 -0.9,-0.1 -0.9,0.3 m 45.8,-33.8 0.4,0.8 0.7,0.2 0.6,-0.1 0.5,-0.4 0.2,-0.7 0.1,-1.2 0.1,-0.9 0.5,-0.7 0.5,-0.4 0.9,-0.2 0.6,0.2 0.4,0.2 0.5,0.8 0.2,1.2 -0.2,1 -0.2,0.3 -0.5,0.4 -0.9,0.2 -0.7,-0.2 -0.7,-0.5 -0.4,-0.8 -0.5,-1.1 -0.4,-0.6 -0.7,-0.1 -0.6,0.1 -0.5,0.4 -0.1,0.9 0.2,1.3 m -0.8,-4.5 -0.7,-3.2 2.7,1.3 -0.1,-0.9 0.2,-0.6 0.2,-0.4 0.8,-0.4 0.6,-0.1 1,0.1 0.7,0.5 0.4,0.8 0.2,0.9 -0.1,0.9 -0.3,0.4 -0.5,0.4 m 31.2,41.6 1,0.1 0.5,-0.5 0.2,-0.5 -0.1,-0.7 -0.5,-0.5 -1,-0.7 -0.7,-0.6 -0.4,-0.8 v -0.6 l 0.3,-0.9 0.5,-0.4 0.4,-0.2 h 0.9 l 1.1,0.4 0.8,0.6 0.1,0.4 0.1,0.7 -0.3,0.8 -0.5,0.5 -0.8,0.3 H 697 l -1.2,-0.1 h -0.7 l -0.5,0.5 -0.2,0.6 0.1,0.6 0.7,0.6 1.3,0.5 m -6.7,-2.4 4.2,-2.9 -4.2,-1.6 m 0,4.5 2.2,-5.9 m -80.9,41.5 -0.4,-6.9 m 4.1,4.9 -3.7,2 m -4.5,1.6 0.5,0.3 0.9,-0.1 0.6,-0.3 0.6,-0.7 0.1,-1.1 -0.5,-1.5 -0.7,-1.3 -0.9,-0.9 -0.8,-0.2 -0.9,0.2 -0.3,0.1 -0.6,0.7 -0.2,0.8 0.1,1 0.2,0.2 0.7,0.7 0.8,0.2 0.9,-0.2 0.3,-0.1 0.6,-0.7 0.3,-0.8 -0.2,-1 m 30.1,51.9 -2.5,1.6 1.2,2.5 0.1,-0.5 0.6,-0.7 0.7,-0.5 0.9,-0.3 0.9,0.2 0.7,0.6 0.4,0.5 0.2,0.9 -0.2,0.8 -0.5,0.8 -0.8,0.5 -0.9,0.2 -0.4,-0.1 -0.6,-0.3 m 5,-9.4 1,6.9 m -4.5,-4.6 3.5,-2.3 m -51.1,-23.1 0.7,-0.2 0.4,-0.8 0.1,-0.6 -0.1,-0.9 -0.8,-0.8 -1.5,-0.5 -1.4,-0.2 -1.3,0.1 -0.7,0.5 -0.4,0.8 v 0.3 l 0.1,0.9 0.5,0.7 0.8,0.5 h 0.3 l 1,-0.1 0.7,-0.5 0.4,-0.9 0.1,-0.3 -0.2,-0.9 -0.5,-0.7 -0.8,-0.4 m 3,7.4 -0.1,-0.9 -0.8,-0.8 -1.5,-0.5 -0.9,-0.2 -1.5,0.1 -1,0.4 -0.4,0.9 -0.1,0.6 0.1,0.9 0.8,0.8 1.5,0.5 0.9,0.1 h 1.5 l 1,-0.5 0.4,-0.8 0.1,-0.5 m 10.6,24.8 -2.2,-2.1 -2.1,1.8 h 0.5 l 0.8,0.4 0.7,0.6 0.4,0.8 v 0.9 l -0.4,0.8 -0.4,0.5 -0.8,0.4 h -0.9 l -0.8,-0.4 -0.7,-0.6 -0.4,-0.8 v -0.4 l 0.2,-0.7 m 10,2.4 -2.2,-2 -2.1,1.7 h 0.4 l 0.9,0.4 0.6,0.6 0.5,0.9 v 0.8 l -0.4,0.9 -0.4,0.4 -0.8,0.5 h -0.9 l -0.8,-0.4 -0.7,-0.6 -0.4,-0.9 v -0.4 l 0.1,-0.6 m 31.2,-490.4 -0.7,0.2 -1,0.8 1.1,-6.2 m -5.7,4.6 0.2,0.7 0.9,0.4 0.5,0.1 1,-0.1 0.7,-0.8 0.6,-1.4 0.3,-1.5 -0.1,-1.2 -0.5,-0.7 -0.8,-0.5 H 628 l -1,0.1 -0.7,0.5 -0.4,0.8 -0.1,0.3 0.2,1 0.4,0.7 0.9,0.4 0.3,0.1 0.9,-0.2 0.7,-0.4 0.5,-0.9 m 30.7,21.5 0.9,0.4 0.6,-0.3 0.4,-0.4 0.2,-0.7 -0.3,-0.6 -0.7,-1 -0.5,-0.8 v -0.9 l 0.1,-0.6 0.6,-0.7 0.6,-0.3 h 0.5 l 0.8,0.4 1,0.8 0.4,0.8 0.1,0.4 -0.2,0.7 -0.6,0.6 -0.6,0.3 -0.9,0.1 -0.8,-0.4 -1.1,-0.6 -0.7,-0.1 -0.6,0.2 -0.4,0.5 -0.2,0.6 0.5,0.8 1,0.9 m -2.4,-4.1 -0.2,0.3 -0.6,0.2 h -0.4 l -0.7,-0.1 -0.9,-0.8 -0.2,-0.6 -0.1,-0.5 0.2,-0.6 0.4,-0.5 0.6,-0.2 1.1,-0.3 4.2,-0.3 -3.2,-2.8 m 44.4,478 -2.2,-2 -2,1.8 h 0.4 l 0.9,0.3 0.6,0.6 0.5,0.9 0.1,0.8 -0.4,0.9 -0.4,0.4 -0.8,0.5 h -0.9 l -0.9,-0.3 -0.6,-0.6 -0.5,-0.9 v -0.4 l 0.2,-0.6 m 10.4,2.5 -6.5,2.6 m 3.3,-5.5 3.2,2.9 m 23.4,-8.4 -1.2,2.7 2.3,1.4 -0.1,-0.4 0.1,-1 0.3,-0.8 0.7,-0.7 0.8,-0.3 0.9,0.1 0.6,0.2 0.7,0.7 0.3,0.8 -0.1,0.9 -0.4,0.8 -0.6,0.7 -0.4,0.2 h -0.7 m -0.2,-9.9 -0.7,0.1 -0.6,0.7 -0.2,0.5 -0.1,1 0.5,0.9 1.3,0.8 1.4,0.7 1.2,0.2 0.8,-0.3 0.6,-0.7 0.1,-0.3 0.1,-1 -0.3,-0.7 -0.7,-0.7 -0.3,-0.1 -0.9,-0.1 -0.8,0.3 -0.6,0.7 -0.2,0.3 v 0.9 l 0.3,0.8 0.7,0.7 m 33.1,-82.7 -0.1,-0.7 -0.4,-1.2 5.8,2.5 m -4.9,-5.3 v 1 l 0.6,0.9 1.2,0.8 0.8,0.4 1.5,0.3 1.1,-0.2 0.6,-0.7 0.3,-0.5 v -1 l -0.5,-0.9 -1.3,-0.9 -0.8,-0.3 -1.5,-0.3 -1.1,0.2 -0.6,0.7 -0.2,0.4 m 2.1,-4.8 -0.1,1 0.6,0.9 1.2,0.8 0.9,0.4 1.5,0.3 1,-0.2 0.7,-0.7 0.2,-0.5 0.1,-1 -0.6,-0.9 -1.3,-0.9 -0.8,-0.3 -1.5,-0.3 -1.1,0.2 -0.6,0.7 -0.2,0.4 m 10.5,-73.3 -0.5,-0.4 -1.2,-0.4 5.7,-2.7 m -5.1,1.2 -0.5,-0.4 -1.2,-0.4 5.7,-2.7 m -7.1,-1.9 -0.4,0.6 0.1,0.9 0.2,0.5 0.7,0.7 1.1,0.2 1.4,-0.4 1.4,-0.7 0.9,-0.8 0.3,-0.8 -0.1,-0.9 -0.1,-0.3 -0.7,-0.6 -0.8,-0.3 -0.9,0.1 -0.3,0.1 -0.7,0.7 -0.3,0.8 0.2,0.9 0.1,0.3 0.7,0.7 0.8,0.3 0.9,-0.2 m -79.1,65.9 -0.8,-0.3 -0.7,0.2 -0.4,0.5 -0.1,0.6 0.2,0.6 0.7,1.1 0.5,0.8 0.1,0.8 -0.2,0.7 -0.6,0.6 -0.6,0.3 h -0.4 l -0.9,-0.3 -0.9,-0.8 -0.5,-0.9 v -0.4 l 0.1,-0.6 0.6,-0.7 0.7,-0.3 h 0.8 l 0.9,0.4 1.1,0.5 0.6,0.2 0.6,-0.3 0.4,-0.4 0.2,-0.7 -0.5,-0.8 -1,-0.9 m 5.4,4.7 -5,1.2 3.4,2.9 m 1.6,-4.1 -4.1,4.7 m -15.4,-45.6 -0.4,-0.9 -0.6,-0.3 -0.6,0.1 -0.6,0.3 -0.2,0.6 -0.3,1.2 -0.2,0.9 -0.6,0.7 -0.5,0.3 -0.9,0.1 -0.7,-0.3 -0.3,-0.3 -0.3,-0.8 -0.1,-1.2 0.2,-1 0.3,-0.3 0.6,-0.3 0.9,-0.1 0.6,0.3 0.7,0.6 0.3,0.8 0.4,1.2 0.3,0.6 0.6,0.3 0.6,-0.1 0.6,-0.3 0.3,-0.9 -0.1,-1.4 m 0.3,4.6 0.2,3.3 -2.5,-1.7 v 0.9 l -0.2,0.7 -0.3,0.3 -0.9,0.3 -0.6,0.1 -0.9,-0.3 -0.7,-0.5 -0.3,-0.9 -0.1,-0.9 0.3,-0.9 0.3,-0.4 0.5,-0.3 m 13.1,-55.7 0.6,-0.1 0.6,-0.7 0.2,-0.6 v -1 l -0.7,-0.8 -1.3,-0.8 -1.5,-0.4 -1.2,-0.1 -0.7,0.4 -0.6,0.7 -0.1,0.3 v 1 l 0.4,0.7 0.8,0.6 0.2,0.1 h 1 l 0.7,-0.4 0.6,-0.8 0.1,-0.3 v -0.9 l -0.4,-0.8 -0.8,-0.5 m 1.4,9.5 0.9,-2.9 -2.5,-1.1 0.2,0.4 v 0.9 l -0.3,0.9 -0.5,0.8 -0.8,0.3 h -0.9 l -0.6,-0.1 -0.8,-0.6 -0.3,-0.8 -0.1,-0.9 0.3,-0.9 0.6,-0.7 0.4,-0.2 0.6,-0.1 m 84,-55.8 5,4.8 m -6.3,-0.9 1.3,-3.9 m 1.7,-5 5,4.9 m -6.4,-0.9 1.4,-4 m -97,-4.1 0.6,0.3 1.3,0.1 -4.8,4.1 m 6.8,-2 -0.8,-0.5 -1,0.1 -1.4,0.8 -0.7,0.6 -0.9,1.2 -0.3,1 0.4,0.9 0.4,0.5 0.8,0.4 1,-0.1 1.4,-0.7 0.7,-0.6 0.9,-1.2 0.3,-1.1 -0.4,-0.9 -0.3,-0.3 m 2.6,3 2.2,2.5 -3,0.2 0.6,0.7 0.2,0.7 -0.1,0.4 -0.5,0.8 -0.4,0.4 -0.9,0.3 h -0.8 l -0.9,-0.5 -0.5,-0.7 -0.4,-0.9 v -0.4 l 0.3,-0.6 m 0.8,-35.8 0.3,-0.8 -0.2,-0.7 -0.5,-0.4 -0.6,-0.1 -0.6,0.2 -1.1,0.7 -0.8,0.5 h -0.8 l -0.7,-0.2 -0.6,-0.6 -0.3,-0.6 v -0.4 l 0.4,-0.9 0.8,-0.9 0.8,-0.4 0.4,-0.1 0.7,0.2 0.6,0.6 0.3,0.6 v 0.9 l -0.4,0.9 -0.5,1 -0.2,0.7 0.2,0.6 0.5,0.4 0.6,0.2 0.8,-0.5 1,-1 m -5.1,5.7 2,-2.3 -1.8,-2 v 0.4 l -0.4,0.9 -0.6,0.7 -0.8,0.4 -0.8,0.1 -0.9,-0.4 -0.5,-0.4 -0.4,-0.8 -0.1,-0.9 0.4,-0.8 0.6,-0.7 0.8,-0.5 h 0.4 l 0.7,0.2 m 96.4,-9 h -0.7 l -1.2,0.3 2.9,-5.5 m -5.6,4.4 0.9,0.1 1,-0.5 0.9,-1.2 0.5,-0.8 0.4,-1.5 -0.1,-1 -0.7,-0.7 -0.5,-0.3 -0.9,-0.1 -1,0.5 -1,1.2 -0.4,0.7 -0.4,1.5 0.1,1.1 0.7,0.7 0.4,0.2 m -5.9,-3 4.7,-2.3 -4,-2.1 m -0.7,4.4 3,-5.6 m -65.8,-19.6 -0.2,-0.9 -0.6,-0.3 -0.6,-0.1 -0.6,0.2 -0.3,0.6 -0.5,1.2 -0.3,0.8 -0.7,0.6 -0.6,0.2 -0.9,-0.1 -0.6,-0.3 -0.3,-0.4 -0.2,-0.9 0.2,-1.2 0.3,-0.9 0.4,-0.2 0.6,-0.3 0.9,0.1 0.6,0.4 0.5,0.6 0.2,1 0.2,1.2 0.2,0.6 0.6,0.4 h 0.6 l 0.6,-0.2 0.4,-0.9 0.1,-1.3 m -1.8,3.8 0.3,0.6 0.8,1 -6.3,-0.7 m 27.6,-0.3 h -0.7 l -1.1,0.6 2.2,-5.9 m -2.8,4.4 H 718 l -1.1,0.6 2.2,-5.9 m -6.7,4.4 2.8,1 1.2,-2.4 -0.4,0.2 h -0.9 l -0.9,-0.3 -0.7,-0.6 -0.4,-0.8 0.1,-1 0.2,-0.5 0.6,-0.8 0.7,-0.3 h 1 l 0.8,0.3 0.8,0.6 0.1,0.4 0.1,0.7 M 676,122.2 h 0.7 l 1.2,-0.4 -2.9,5.6 m 7.6,-3.3 -5.6,4.2 m 1.9,-6.2 3.7,2 m 39.7,-61.5 3,-6.3 m 1.2,6.3 h -4.2 m -2.7,0 0.9,-0.3 0.3,-0.6 v -0.6 l -0.3,-0.6 -0.6,-0.3 -1.2,-0.3 -0.9,-0.3 -0.6,-0.7 -0.3,-0.6 0.1,-0.9 0.3,-0.6 0.3,-0.3 0.9,-0.2 h 1.2 l 0.9,0.3 0.3,0.3 0.3,0.6 -0.1,0.9 -0.3,0.6 -0.6,0.6 -0.9,0.3 -1.2,0.3 -0.6,0.2 -0.3,0.6 v 0.6 l 0.3,0.6 0.9,0.4 h 1.4 m 20.6,75.4 -0.3,-0.6 -0.9,-0.3 h -0.6 l -0.9,0.3 -0.6,0.9 -0.3,1.5 0.1,1.5 0.3,1.2 0.6,0.6 0.9,0.3 h 0.3 l 0.9,-0.3 0.6,-0.6 0.3,-0.9 v -0.3 l -0.4,-0.9 -0.6,-0.6 -0.9,-0.3 h -0.3 l -0.9,0.3 -0.6,0.6 -0.2,0.9 m 8.9,-2.2 -0.3,0.9 -0.6,0.6 -0.9,0.3 h -0.3 l -0.9,-0.3 -0.6,-0.5 -0.3,-0.9 v -0.3 l 0.3,-0.9 0.6,-0.7 0.9,-0.3 h 0.3 l 0.9,0.3 0.6,0.6 0.3,1.2 v 1.5 l -0.3,1.5 -0.6,0.9 -0.9,0.3 h -0.6 l -0.9,-0.2 -0.3,-0.6 m 59.2,-7.7 -0.2,1 -0.5,0.7 -0.8,0.4 -0.3,0.1 -1,-0.2 -0.7,-0.5 -0.4,-0.8 v -0.3 l 0.1,-1 0.5,-0.6 0.8,-0.5 h 0.3 l 1,0.1 0.7,0.5 0.5,1.1 0.2,1.5 -0.1,1.5 -0.4,1 -0.8,0.5 -0.6,0.1 -1,-0.2 -0.4,-0.5 m 8,-4.7 -0.1,1 -0.5,0.6 -0.8,0.5 h -0.3 l -1,-0.1 -0.7,-0.5 -0.4,-0.8 -0.1,-0.3 0.2,-1 0.5,-0.7 0.8,-0.4 0.3,-0.1 1,0.2 0.6,0.5 0.5,1.1 0.3,1.5 -0.1,1.5 -0.4,1 -0.9,0.5 -0.6,0.1 -0.9,-0.2 -0.4,-0.5 m -0.8,-71.7 -0.6,0.2 -1,0.8 0.7,-6.3 m -1.7,5 -0.6,0.2 -1,0.8 0.8,-6.3 m -2.5,6.3 -3.3,-0.4 2.1,-2.2 -0.9,-0.1 -0.6,-0.4 -0.2,-0.3 -0.2,-0.9 V 62 l 0.4,-0.9 0.7,-0.5 0.9,-0.2 0.9,0.1 0.9,0.4 0.2,0.4 0.3,0.6 m 62.8,23.4 4.5,-2.5 -4.1,-1.9 m -0.4,4.4 2.7,-5.7 m -8,2.2 0.1,0.7 0.6,0.6 0.6,0.3 0.9,0.1 0.9,-0.6 1,-1.2 0.6,-1.4 0.2,-1.2 -0.2,-0.8 -0.7,-0.6 -0.3,-0.1 -0.9,-0.2 -0.8,0.3 -0.7,0.7 -0.1,0.3 -0.1,0.9 0.2,0.8 0.7,0.7 0.3,0.1 0.9,0.1 0.8,-0.3 0.7,-0.7 m 41.9,36.1 5.2,-0.4 -2.9,-3.4 m -2.3,3.8 4.8,-4 m -5.3,1.1 -0.6,-0.3 -1.3,-0.1 4.8,-4 m 0.8,85.4 -0.8,0.4 h -0.9 l -0.8,-0.4 -0.2,-0.2 -0.4,-0.9 v -0.8 l 0.4,-0.9 0.2,-0.2 0.9,-0.4 h 0.8 l 0.9,0.5 0.2,0.2 0.4,0.8 v 0.9 l -0.7,1 -1,1.1 -1.3,0.8 -1.1,0.2 -0.8,-0.4 -0.5,-0.5 -0.4,-0.8 0.3,-0.7 m 9,2.9 0.2,-0.6 -0.4,-0.9 -0.4,-0.4 -0.8,-0.4 -1.1,0.2 -1.3,0.8 -1.1,1 -0.6,1.1 -0.1,0.8 0.5,0.9 0.2,0.2 0.8,0.4 h 0.9 l 0.8,-0.4 0.2,-0.2 0.5,-0.8 v -0.9 l -0.4,-0.8 -0.2,-0.2 -0.9,-0.5 h -0.8 l -0.9,0.4 M 933,151 l 0.9,-0.3 0.9,0.1 0.7,0.5 0.2,0.3 0.4,0.9 -0.1,0.8 -0.5,0.8 -0.3,0.2 -0.9,0.3 -0.8,-0.1 -0.8,-0.5 -0.2,-0.2 -0.3,-0.9 0.1,-0.9 0.7,-1 1.2,-0.9 1.3,-0.7 1.1,-0.1 0.8,0.5 0.4,0.5 0.3,0.9 -0.3,0.6 m -7.5,-0.8 -2.1,-2.6 3,-0.1 -0.5,-0.7 -0.2,-0.6 0.1,-0.5 0.5,-0.7 0.5,-0.4 0.9,-0.3 h 0.8 l 0.8,0.6 0.6,0.7 0.3,0.9 -0.1,0.4 -0.2,0.6 m 13.7,78 -4.7,2.2 4,2.2 m 0.7,-4.4 -3,5.5 m 8.4,-2.5 -2.6,-1.4 -1.6,2.2 0.4,-0.1 1,0.1 0.8,0.5 0.6,0.6 0.3,0.9 -0.2,0.9 -0.3,0.5 -0.7,0.7 -0.8,0.2 -0.9,-0.1 -0.8,-0.5 -0.7,-0.7 -0.1,-0.4 v -0.6 m 26.5,-55.4 -0.4,-3.3 2.6,1.5 -0.1,-0.8 0.3,-0.7 0.2,-0.3 0.9,-0.4 h 0.6 l 0.9,0.2 0.7,0.5 0.4,0.9 v 0.9 l -0.2,0.9 -0.2,0.3 -0.6,0.4 m -5.8,-6.6 0.4,0.8 1,0.5 1.5,0.2 0.9,-0.1 1.5,-0.4 0.8,-0.7 0.2,-1 -0.1,-0.6 -0.3,-0.8 -1,-0.5 -1.5,-0.2 -0.9,0.1 -1.5,0.4 -0.8,0.7 -0.2,1 v 0.4 m 0,-19.9 -0.2,0.7 0.1,1.3 -4.8,-4.2 m 3.2,4.2 -0.2,0.6 0.1,1.3 -4.8,-4.2 m 3,6.6 0.4,-0.9 -0.3,-1.1 -0.9,-1.2 -0.7,-0.6 -1.4,-0.7 -1,-0.2 -0.8,0.5 -0.4,0.5 -0.4,0.8 0.3,1.1 0.9,1.2 0.7,0.6 1.3,0.7 1.1,0.2 0.8,-0.5 0.3,-0.3 m 18.3,75.2 5.1,0.7 -2,-4 m -3.1,3.3 5.6,-2.9 m -7.4,-0.9 0.6,0.7 h 0.7 l 0.6,-0.3 0.3,-0.5 v -0.7 l -0.2,-1.2 -0.2,-0.9 0.3,-0.8 0.4,-0.6 0.8,-0.4 h 0.6 l 0.4,0.1 0.7,0.7 0.6,1.1 0.1,0.9 -0.1,0.4 -0.4,0.5 -0.8,0.4 -0.7,0.1 -0.8,-0.3 -0.7,-0.7 -0.8,-0.9 -0.5,-0.4 H 987 l -0.5,0.3 -0.4,0.5 0.1,1 0.6,1.2 m -16.8,50.7 -3.3,-4 -1.1,4.4 m 4.4,-0.4 -6.1,-1.6 m 4.6,7.2 -3.3,-4 -1.2,4.3 m 4.5,-0.3 -6.1,-1.7 m 27.1,-9.1 -0.6,2.9 2.6,0.8 -0.2,-0.3 -0.1,-1 0.1,-0.9 0.5,-0.8 0.7,-0.5 0.9,-0.1 0.6,0.1 0.9,0.5 0.4,0.7 0.2,0.9 -0.2,0.9 -0.5,0.8 -0.3,0.3 -0.7,0.1 m -3.6,-7.9 0.1,0.9 0.8,0.8 1.4,0.5 0.9,0.2 h 1.5 l 1,-0.4 0.5,-0.9 0.1,-0.6 -0.2,-0.9 -0.7,-0.7 -1.5,-0.6 -0.8,-0.2 h -1.6 l -1,0.5 -0.4,0.8 -0.1,0.4 m -17.2,51.6 2.2,4.7 2.2,-4 m -4.4,-0.7 5.5,3.1 m -2.2,-8.9 4.1,5.7 m -6.1,-2 2,-3.7 m -47.6,15.4 0.9,-5.1 -4.1,1.9 m 3.2,3.2 -2.7,-5.7 m -2.6,8.1 1,-5 -4.1,1.9 m 3.1,3.1 -2.7,-5.7 m -26.3,36.1 -3.2,-4.1 -1.2,4.4 m 4.4,-0.3 -6,-1.8 m 4.3,7.8 0.8,-2.9 -2.5,-1.1 0.2,0.4 v 1 l -0.2,0.8 -0.6,0.8 -0.7,0.4 -1,0.1 -0.5,-0.2 -0.8,-0.5 -0.4,-0.8 -0.1,-0.9 0.3,-0.9 0.5,-0.8 0.4,-0.2 0.7,-0.1 m 9.3,35.8 -1.9,-2.3 -2.2,1.4 0.4,0.1 0.8,0.5 0.5,0.7 0.4,0.9 -0.1,0.8 -0.5,0.8 -0.5,0.4 -0.9,0.3 -0.8,-0.1 -0.8,-0.5 -0.6,-0.7 -0.3,-0.9 v -0.4 l 0.3,-0.6 m 7.7,1.4 2.1,2.6 -3,0.1 0.5,0.7 0.2,0.6 -0.1,0.5 -0.5,0.8 -0.5,0.3 -0.8,0.4 -0.9,-0.1 -0.8,-0.5 -0.6,-0.7 -0.3,-0.9 0.1,-0.4 0.2,-0.7 m 76.6,-37 5,1.3 -1.6,-4.2 m -3.4,2.9 5.9,-2.2 m -8.2,-4.1 6.9,0.6 m -5.4,3.3 -1.5,-3.9 m -48,57.1 -3,-0.5 -0.7,2.6 0.3,-0.2 0.9,-0.2 0.9,0.2 0.9,0.4 0.5,0.7 0.1,1 -0.1,0.6 -0.5,0.8 -0.7,0.5 -0.9,0.1 -0.9,-0.1 -0.8,-0.5 -0.3,-0.3 -0.2,-0.7 m 9.3,-3.6 -3.7,3.6 4.5,0.8 m -0.8,-4.4 -1.1,6.2 m 33.4,3.4 -2.8,-1.1 -1.2,2.5 0.4,-0.2 h 0.9 l 0.9,0.3 0.7,0.6 0.4,0.8 -0.1,0.9 -0.2,0.6 -0.6,0.7 -0.7,0.4 h -1 l -0.8,-0.4 -0.8,-0.5 -0.2,-0.4 V 433 m 6.2,-1.6 0.7,-0.1 1.1,-0.5 -2.2,5.9 m 14.4,-21.8 -0.4,2.9 2.6,0.7 -0.2,-0.3 -0.2,-1 0.1,-0.9 0.5,-0.8 0.6,-0.5 1,-0.2 0.6,0.1 0.8,0.4 0.5,0.7 0.2,0.9 -0.1,0.9 -0.5,0.9 -0.3,0.2 -0.6,0.2 m -4.1,-7.7 0.2,0.9 0.8,0.7 1.4,0.5 0.9,0.1 1.6,-0.1 0.9,-0.4 0.4,-0.9 0.1,-0.6 -0.1,-0.9 -0.9,-0.7 -1.4,-0.5 -0.9,-0.2 -1.5,0.1 -1,0.5 -0.4,0.9 -0.1,0.4 M 892.7,219.7 h -3 l -0.2,2.7 0.3,-0.3 0.9,-0.3 h 0.9 l 0.9,0.3 0.6,0.6 0.3,0.9 v 0.6 l -0.3,0.9 -0.6,0.6 -0.8,0.3 h -0.9 l -1,-0.3 -0.3,-0.3 -0.3,-0.5 m 5.8,-5.3 3.3,-0.1 -1.7,2.5 h 0.9 l 0.6,0.2 0.3,0.3 0.3,0.9 v 0.6 l -0.2,0.9 -0.6,0.6 -0.9,0.4 h -0.9 l -0.9,-0.3 -0.3,-0.3 -0.3,-0.6 m -0.5,-18.1 0.9,-0.3 0.8,0.1 0.8,0.5 0.2,0.3 0.3,0.9 -0.2,0.8 -0.5,0.8 -0.2,0.2 -0.9,0.3 -0.9,-0.2 -0.8,-0.5 -0.1,-0.2 -0.3,-0.9 0.1,-0.9 0.8,-0.9 1.2,-0.9 1.3,-0.7 h 1.1 l 0.8,0.5 0.4,0.5 0.3,0.9 -0.3,0.6 m -8.6,-4 -0.3,0.6 0.3,0.9 0.3,0.5 0.8,0.5 1.1,-0.1 1.4,-0.6 1.2,-0.9 0.7,-1 0.2,-0.8 -0.3,-0.9 -0.2,-0.3 -0.8,-0.5 -0.8,-0.1 -0.9,0.3 -0.3,0.2 -0.5,0.7 -0.1,0.9 0.3,0.9 0.1,0.2 0.8,0.6 0.9,0.1 0.9,-0.3 m -81.9,-47.7 -0.3,-0.9 0.1,-0.8 0.5,-0.8 0.2,-0.2 0.9,-0.3 0.8,0.1 0.8,0.5 0.2,0.2 0.4,0.9 -0.1,0.8 -0.6,0.8 -0.2,0.2 -0.9,0.3 h -0.8 l -1,-0.8 -0.9,-1.2 -0.7,-1.3 -0.1,-1.1 0.5,-0.8 0.5,-0.4 0.8,-0.3 0.7,0.3 m -4.8,8 -0.3,-0.9 0.1,-0.9 0.5,-0.8 0.3,-0.2 0.9,-0.3 0.8,0.1 0.8,0.5 0.2,0.3 0.3,0.8 -0.1,0.9 -0.5,0.8 -0.2,0.2 -0.9,0.3 -0.9,-0.1 -1,-0.7 -0.9,-1.2 -0.7,-1.4 -0.1,-1.1 0.5,-0.8 0.5,-0.3 0.9,-0.4 0.6,0.3 m 42.9,73.3 -2.7,1.3 0.9,2.6 0.1,-0.4 0.7,-0.7 0.8,-0.4 1,-0.1 0.8,0.3 0.6,0.7 0.3,0.5 0.1,0.9 -0.3,0.8 -0.6,0.7 -0.9,0.4 -0.9,0.1 -0.4,-0.1 -0.5,-0.4 m 5.4,-8.4 -0.9,5.1 4.1,-1.9 m -3.2,-3.2 2.7,5.7 m -55.4,-34.5 -6.8,-1.3 m 5.8,-2.8 1,4.1 m 0.8,2.9 -0.5,-0.8 -1.1,-0.4 -1.5,0.1 -0.9,0.2 -1.3,0.7 -0.7,0.8 -0.1,0.9 0.1,0.6 0.6,0.8 1,0.4 1.5,-0.1 0.9,-0.2 1.4,-0.7 0.7,-0.8 v -1 l -0.1,-0.4 m 19.7,30.4 -0.5,0.8 -0.7,0.4 -0.9,0.1 h -0.3 l -0.8,-0.5 -0.5,-0.8 -0.1,-0.9 0.1,-0.3 0.5,-0.8 0.7,-0.4 1,-0.1 h 0.3 l 0.8,0.5 0.4,0.7 v 1.3 l -0.3,1.4 -0.6,1.4 -0.8,0.8 -1,0.1 -0.5,-0.2 -0.9,-0.5 -0.1,-0.6 m 7.3,-3.9 -0.9,0.1 -0.5,0.5 -0.1,0.6 0.1,0.7 0.6,0.4 1.1,0.6 0.8,0.5 0.4,0.7 0.2,0.6 -0.2,0.9 -0.5,0.5 -0.3,0.3 h -1 l -1.1,-0.2 -0.8,-0.5 -0.3,-0.4 -0.1,-0.6 0.2,-0.9 0.4,-0.5 0.7,-0.5 1,-0.1 h 1.2 l 0.7,-0.1 0.4,-0.6 0.1,-0.5 -0.1,-0.7 -0.8,-0.5 -1.4,-0.3 m -64.3,324 -3,1.5 0.6,-3 -0.9,0.5 h -0.6 l -0.4,-0.2 -0.7,-0.6 -0.3,-0.6 -0.1,-0.9 0.3,-0.8 0.6,-0.7 0.8,-0.4 1,-0.1 0.4,0.1 0.5,0.4 m -4.1,7.8 0.7,-0.7 0.1,-1.1 -0.4,-1.5 -0.4,-0.8 -0.9,-1.2 -1,-0.5 -0.9,0.2 -0.6,0.2 -0.6,0.7 -0.1,1.1 0.4,1.4 0.4,0.8 0.9,1.3 1,0.5 0.9,-0.2 0.4,-0.2 m -1,55.1 -2.1,4.7 4.4,-0.8 m -2.3,-3.9 1.2,6.2 m -50.5,-41.6 2.2,-4.6 -4.4,0.8 m 2.2,3.8 -1.1,-6.2 m -3,6.9 0.9,-0.4 0.2,-0.7 -0.1,-0.6 -0.4,-0.5 -0.7,-0.2 -1.2,-0.1 -1,-0.1 -0.7,-0.5 -0.4,-0.6 -0.1,-0.8 0.2,-0.7 0.2,-0.3 0.9,-0.5 1.1,-0.2 1,0.1 0.3,0.3 0.4,0.5 0.2,0.9 -0.2,0.7 -0.5,0.6 -0.8,0.5 -1.2,0.5 -0.5,0.4 -0.2,0.6 0.1,0.6 0.4,0.6 1,0.1 1.3,-0.2 m 293.2,-34.1 0.3,-0.6 0.2,-1.3 3.9,5 m -2.3,-4.7 0.3,-0.6 0.1,-1.2 3.9,4.9 m -330.7,68.7 -2.1,4.7 4.4,-0.9 m -2.3,-3.8 1.2,6.2 m 5.6,-5.4 -0.1,1 -0.5,0.7 -0.8,0.4 -0.3,0.1 -0.9,-0.1 -0.7,-0.5 -0.5,-0.8 -0.1,-0.3 0.2,-0.9 0.4,-0.7 0.9,-0.5 0.3,-0.1 0.9,0.1 0.7,0.5 0.5,1.1 0.3,1.5 v 1.5 l -0.4,1 -0.8,0.5 -0.6,0.1 -0.9,-0.1 -0.4,-0.5 m 321,-129 2.7,-1.3 -1,-2.6 -0.1,0.5 -0.7,0.6 -0.8,0.4 -0.9,0.2 -0.8,-0.3 -0.7,-0.7 -0.3,-0.5 -0.1,-1 0.3,-0.8 0.6,-0.6 0.8,-0.4 1,-0.2 0.4,0.2 0.5,0.4 m -3.8,7.6 0.6,-0.7 v -0.6 l -0.2,-0.6 -0.6,-0.4 h -0.6 l -1.2,0.3 -1,0.1 -0.8,-0.3 -0.5,-0.4 -0.4,-0.8 V 486 l 0.1,-0.4 0.7,-0.7 1.1,-0.5 0.9,-0.2 0.4,0.2 0.5,0.4 0.4,0.8 v 0.6 l -0.2,0.8 -0.7,0.7 -0.9,0.8 -0.4,0.6 v 0.6 l 0.2,0.6 0.6,0.4 0.9,-0.2 1.2,-0.6 m 22.4,10 0.6,2.9 2.7,-0.3 -0.3,-0.2 -0.5,-0.8 -0.2,-0.9 0.1,-0.9 0.5,-0.7 0.8,-0.5 0.6,-0.2 0.9,0.2 0.7,0.4 0.5,0.8 0.2,0.9 -0.1,1 -0.2,0.3 -0.6,0.4 m -4.8,-8.4 0.9,0.1 0.8,0.5 0.4,0.8 0.1,0.3 -0.1,0.9 -0.5,0.7 -0.8,0.5 -0.3,0.1 -0.9,-0.1 -0.7,-0.5 -0.5,-0.8 -0.1,-0.3 0.1,-0.9 0.5,-0.8 1.1,-0.5 1.5,-0.3 h 1.5 l 1,0.4 0.5,0.8 0.1,0.6 -0.1,0.9 -0.5,0.4 M 793,631.5 l 0.2,-0.1 0.7,0.1 0.4,0.3 0.4,0.5 0.3,1.1 -0.1,0.7 -0.3,0.3 -0.5,0.5 -0.5,0.1 -0.7,-0.1 -1,-0.4 -3.7,-2.1 1.1,4 m 87.5,29 0.6,0.7 0.6,0.2 0.6,-0.2 0.5,-0.4 0.1,-0.7 v -1.2 l 0.1,-0.9 0.4,-0.8 0.5,-0.4 0.9,-0.3 0.7,0.2 0.3,0.2 0.5,0.8 0.3,1.2 v 0.9 l -0.2,0.4 -0.5,0.4 -0.9,0.2 -0.7,-0.1 -0.7,-0.4 -0.5,-0.8 -0.6,-1.1 -0.5,-0.5 -0.6,-0.1 -0.6,0.1 -0.5,0.4 -0.1,1 0.4,1.3 m -1.1,-7.6 -0.5,0.5 v 0.9 l 0.1,0.6 0.5,0.8 1.1,0.3 1.5,-0.1 1.4,-0.3 1.1,-0.6 0.4,-0.8 0.1,-0.9 -0.1,-0.3 -0.5,-0.8 -0.7,-0.4 -1,-0.1 -0.3,0.1 -0.8,0.5 -0.4,0.7 v 1 0.3 l 0.6,0.8 0.7,0.4 0.9,0.1 m 25.1,-57.4 0.9,-0.2 0.8,0.1 0.8,0.5 0.1,0.3 0.3,0.9 -0.1,0.8 -0.5,0.8 -0.3,0.2 -0.9,0.3 -0.8,-0.2 -0.8,-0.5 -0.2,-0.3 -0.3,-0.9 0.2,-0.8 0.8,-1 1.2,-0.8 1.4,-0.7 h 1 l 0.8,0.5 0.4,0.5 0.3,0.9 -0.4,0.6 m -8.2,-2.1 0.8,0.5 h 1.1 l 1.4,-0.6 0.7,-0.6 1,-1.1 0.4,-1 -0.3,-0.9 -0.3,-0.5 -0.8,-0.6 -1.1,0.1 -1.4,0.6 -0.7,0.6 -1,1.1 -0.4,1 0.3,0.9 0.2,0.4 m -4.7,44.2 -0.8,-0.5 -0.7,0.2 -0.4,0.4 -0.2,0.7 0.2,0.6 0.6,1.1 0.4,0.9 -0.1,0.8 -0.2,0.6 -0.7,0.7 -0.6,0.1 h -0.4 l -0.9,-0.4 -0.8,-0.9 -0.4,-0.9 v -0.4 l 0.3,-0.6 0.6,-0.6 0.7,-0.2 h 0.8 l 0.9,0.5 1,0.6 0.6,0.3 0.7,-0.2 0.4,-0.4 0.2,-0.7 -0.4,-0.8 -0.9,-1 m 4.5,6.2 0.3,-0.7 -0.4,-0.8 -0.4,-0.5 -0.9,-0.4 -1,0.2 -1.3,0.8 -1.1,1 -0.7,1 v 0.9 l 0.4,0.8 0.2,0.3 0.8,0.4 h 0.9 l 0.8,-0.4 0.2,-0.2 0.5,-0.8 v -0.8 l -0.4,-0.9 -0.2,-0.2 -0.8,-0.5 h -0.9 l -0.8,0.4 M 776.5,496.5 776,495.7 v -0.9 l 0.5,-0.8 0.2,-0.2 0.8,-0.4 h 0.9 l 0.8,0.4 0.2,0.2 0.5,0.9 v 0.8 l -0.5,0.9 -0.2,0.2 -0.8,0.4 h -0.9 l -1,-0.7 -1.1,-1 -0.8,-1.3 -0.2,-1.1 0.4,-0.8 0.4,-0.5 0.9,-0.4 0.6,0.2 m 0,7.6 -2.4,2.3 -0.4,-2.9 -0.6,0.6 -0.6,0.2 h -0.5 l -0.8,-0.4 -0.4,-0.5 -0.4,-0.8 v -0.9 l 0.4,-0.8 0.6,-0.6 0.9,-0.4 h 0.4 l 0.6,0.2 m -2.6,16.6 0.7,0.1 1.2,-0.3 -3.3,5.3 m 3.6,-3.8 0.7,0.1 1.2,-0.3 -3.3,5.4 m 5.9,-4 -0.9,-0.2 -1,0.4 -1,1.1 -0.5,0.8 -0.5,1.4 v 1.1 l 0.6,0.7 0.5,0.4 0.9,0.2 1,-0.5 1.1,-1.1 0.4,-0.8 0.6,-1.4 -0.1,-1.1 -0.6,-0.7 -0.4,-0.2 m 38.6,-39.7 1.3,-5 -4.2,1.6 m 2.9,3.4 -2.2,-5.9 m -0.8,5.4 -0.4,0.5 -0.5,1.2 -2.2,-5.9 m 46.2,25.2 -0.7,-0.2 -1.2,-0.1 4.7,-4.2 m -4.5,2.6 -0.7,-0.2 -1.2,-0.1 4.7,-4.2 m -4.5,2.6 -0.7,-0.3 h -1.2 l 4.7,-4.2 m 122.6,-29.6 -0.6,0.2 -1,0.8 0.7,-6.3 m -1.6,5 -0.7,0.2 -1,0.8 0.8,-6.3 m -2.5,6.3 -3.3,-0.4 2.1,-2.2 -0.9,-0.1 -0.6,-0.4 -0.2,-0.3 -0.2,-0.9 v -0.6 l 0.4,-0.9 0.7,-0.5 0.9,-0.2 0.9,0.1 0.9,0.4 0.3,0.4 0.2,0.6 m 6.5,16.7 -2.1,2.1 1.6,2.2 v -0.4 l 0.5,-0.9 0.6,-0.6 0.9,-0.4 h 0.8 l 0.9,0.4 0.4,0.5 0.4,0.8 v 0.9 l -0.5,0.8 -0.6,0.6 -0.9,0.5 -0.4,-0.1 -0.6,-0.2 m 1.4,-8.4 -0.5,0.8 0.2,0.7 0.4,0.4 0.7,0.2 0.6,-0.2 1.1,-0.6 0.9,-0.4 h 0.8 l 0.6,0.3 0.7,0.6 0.2,0.6 -0.1,0.5 -0.4,0.8 -0.9,0.8 -0.8,0.4 h -0.4 l -0.7,-0.2 -0.6,-0.6 -0.2,-0.7 v -0.8 l 0.5,-0.9 0.6,-1 0.2,-0.6 -0.2,-0.7 -0.4,-0.4 -0.6,-0.2 -0.9,0.4 -0.9,0.9 m -73.3,-15.9 3.4,-3.9 -4.5,-0.4 m 1.1,4.3 0.5,-6.2 m -6.6,4.8 0.2,0.6 0.9,0.4 h 0.6 l 0.9,-0.2 0.7,-0.9 0.4,-1.4 0.1,-1.5 -0.2,-1.2 -0.5,-0.7 -0.9,-0.4 H 905 l -0.9,0.3 -0.7,0.5 -0.3,0.9 -0.1,0.3 0.3,0.9 0.5,0.6 0.9,0.4 h 0.3 l 0.9,-0.2 0.7,-0.5 0.3,-0.9 M 886,474 l 0.4,0.6 1,0.7 -6.3,0.8 m 5.2,0.4 0.4,0.6 1,0.8 -6.3,0.7 m 5.2,0.5 0.4,0.6 1,0.7 -6.3,0.8 m -20.8,202.2 0.5,-0.4 0.6,-1.2 2,6 m 0.7,-7.2 -0.8,0.6 -0.2,1.1 0.2,1.5 0.3,0.8 0.7,1.4 0.9,0.6 h 1 l 0.5,-0.2 0.8,-0.6 0.2,-1 -0.2,-1.6 -0.3,-0.8 -0.7,-1.3 -0.9,-0.7 h -1 l -0.4,0.2 m 6.9,-1.5 -0.5,-0.4 h -0.9 l -0.6,0.2 -0.7,0.6 -0.3,1 0.2,1.5 0.5,1.4 0.7,1.1 0.8,0.3 h 0.9 l 0.3,-0.1 0.7,-0.6 0.4,-0.7 v -1 l -0.1,-0.2 -0.6,-0.8 -0.7,-0.4 h -1 l -0.3,0.1 -0.7,0.6 -0.4,0.8 v 0.9 m 66.8,-36.2 -0.6,-0.3 -1.3,-0.2 5.1,-3.7 m -7,1.5 0.8,0.5 h 1 l 1.4,-0.7 0.8,-0.5 1,-1.1 0.4,-1 -0.3,-1 -0.4,-0.4 -0.7,-0.6 -1.1,0.1 -1.4,0.6 -0.7,0.5 -1.1,1.2 -0.3,1 0.2,0.9 0.3,0.3 m -4.4,-6 6.9,-1.3 m -4.4,4.7 -2.5,-3.4 m -4.7,21.8 0.5,-0.4 0.7,-1.1 1.4,6.2 m 1.4,-7 -0.8,0.4 -0.4,1.1 0.1,1.5 0.2,0.9 0.6,1.4 0.8,0.7 0.9,0.1 0.6,-0.1 0.8,-0.5 0.4,-1 v -1.6 l -0.2,-0.8 -0.7,-1.4 -0.7,-0.8 -1,-0.1 -0.4,0.1 m 6.8,-1.5 -2.9,0.7 0.3,2.7 0.2,-0.4 0.8,-0.5 0.9,-0.2 0.9,0.1 0.7,0.5 0.5,0.8 0.2,0.6 -0.1,0.9 -0.5,0.7 -0.8,0.5 -0.9,0.2 -0.9,-0.1 -0.4,-0.2 -0.4,-0.5 m -115.4,20.9 -1,0.2 -0.7,0.9 -0.4,1.4 -0.1,0.9 0.1,1.6 0.5,0.9 0.9,0.4 0.6,0.1 0.9,-0.2 0.7,-0.9 0.5,-1.4 0.1,-0.9 -0.2,-1.5 -0.5,-1 -0.8,-0.4 h -0.5 m -42.4,-18.7 0.1,0.3 -0.3,0.7 -0.2,0.3 -0.6,0.4 -1.2,0.1 -0.6,-0.2 -0.3,-0.3 -0.4,-0.6 -0.1,-0.6 0.2,-0.6 0.5,-0.9 2.7,-3.4 -4.2,0.5 m -31,23.5 -0.8,-5.1 -3.2,3.2 m 4,1.9 -4.4,-4.5 m 41.3,22.7 -0.2,-3.3 2.5,1.6 v -0.9 l 0.2,-0.6 0.3,-0.3 0.9,-0.3 0.6,-0.1 0.9,0.3 0.6,0.5 0.4,0.9 v 0.9 l -0.2,0.9 -0.3,0.4 -0.6,0.3 m -60.8,6.9 V 708 l -0.5,-0.5 -0.5,-0.2 -0.7,0.2 -0.5,0.4 -0.6,1.1 -0.6,0.8 -0.7,0.3 -0.7,0.2 -0.9,-0.3 -0.4,-0.5 -0.2,-0.4 v -0.9 l 0.3,-1.2 0.6,-0.7 0.3,-0.2 0.7,-0.1 0.9,0.2 0.5,0.5 0.3,0.8 0.1,0.9 -0.1,1.3 0.1,0.6 0.5,0.5 0.5,0.2 0.7,-0.1 0.6,-0.8 0.4,-1.3 m 26.7,0.6 -0.1,0.9 -0.6,0.7 -0.8,0.4 h -0.3 l -0.9,-0.2 -0.7,-0.5 -0.4,-0.8 -0.1,-0.3 0.2,-1 0.5,-0.6 0.9,-0.5 h 0.3 l 0.9,0.2 0.7,0.5 0.4,1.2 0.2,1.5 -0.1,1.5 -0.5,0.9 -0.8,0.5 h -0.6 l -0.9,-0.2 -0.4,-0.5 m 208.6,-133.9 -0.6,-0.2 -0.9,0.4 -0.4,0.4 -0.5,0.8 0.2,1.1 0.8,1.3 1,1.1 1,0.7 h 0.9 l 0.9,-0.4 0.2,-0.2 0.4,-0.8 0.1,-0.9 -0.4,-0.8 -0.2,-0.3 -0.8,-0.4 -0.9,-0.1 -0.9,0.4 -0.2,0.2 -0.4,0.9 -0.1,0.8 0.4,0.9 m -37.3,-0.9 h 0.7 l 1.2,-0.3 -2.9,5.5 m 5.6,-4.4 -0.9,-0.1 -1,0.5 -0.9,1.2 -0.5,0.8 -0.4,1.5 0.1,1 0.7,0.7 0.5,0.3 1,0.1 0.9,-0.5 1,-1.2 0.4,-0.8 0.4,-1.4 -0.1,-1.1 -0.7,-0.7 -0.4,-0.2 m 5.5,5.2 -0.6,0.7 -0.8,0.2 -1,-0.1 -0.2,-0.1 -0.7,-0.7 -0.3,-0.8 0.2,-1 0.1,-0.2 0.7,-0.7 0.8,-0.3 1,0.2 0.2,0.1 0.7,0.7 0.2,0.8 -0.3,1.2 -0.6,1.4 -1,1.1 -0.9,0.6 -1,-0.2 -0.5,-0.3 -0.7,-0.6 v -0.7 m -262.3,-36.9 -0.6,-0.7 -0.2,-0.8 0.2,-1 0.1,-0.2 0.7,-0.7 0.8,-0.2 1,0.2 0.2,0.1 0.6,0.7 0.3,0.9 -0.2,0.9 -0.2,0.3 -0.7,0.6 -0.8,0.2 -1.2,-0.3 -1.3,-0.8 -1.1,-1 -0.5,-0.9 0.2,-1 0.3,-0.5 0.7,-0.6 h 0.6 m 1.6,8.1 0.2,-0.9 -0.4,-0.6 -0.5,-0.3 h -0.6 l -0.6,0.4 -0.9,0.9 -0.7,0.6 -0.8,0.2 h -0.7 l -0.7,-0.5 -0.4,-0.5 -0.1,-0.4 0.2,-1 0.6,-1 0.7,-0.6 0.4,-0.1 h 0.6 l 0.8,0.4 0.4,0.6 0.2,0.8 -0.2,0.9 -0.3,1.2 v 0.7 l 0.3,0.6 0.6,0.3 h 0.6 l 0.7,-0.6 0.7,-1.2 m 8.6,1.6 1.6,2.6 2.4,-1.2 -0.4,-0.1 -0.7,-0.6 -0.5,-0.8 -0.2,-0.9 0.2,-0.8 0.6,-0.7 0.5,-0.4 1,-0.2 0.8,0.2 0.7,0.7 0.5,0.7 0.2,0.9 -0.1,0.5 -0.4,0.5 m -5.9,-2.6 -0.5,-0.3 -1.3,-0.3 5.4,-3.3 m -51.9,63.4 0.6,-0.3 0.9,-0.9 -0.2,6.3 M 622,616 v -0.3 l 0.4,-0.6 0.3,-0.3 0.6,-0.3 1.2,0.1 0.6,0.3 0.3,0.3 0.2,0.6 v 0.6 l -0.3,0.6 -0.6,0.9 -3.1,2.9 4.2,0.1 m -35.6,-37.7 0.5,-0.3 0.2,-1 v -0.6 l -0.4,-0.8 -1,-0.5 -1.5,-0.1 -1.5,0.1 -1.2,0.5 -0.5,0.6 -0.2,1 0.1,0.3 0.4,0.8 0.6,0.5 0.9,0.2 h 0.3 l 0.9,-0.4 0.5,-0.7 0.2,-0.9 v -0.3 l -0.4,-0.8 -0.7,-0.6 -0.9,-0.2 m 3.1,8.7 -0.9,-0.2 -0.7,-0.5 -0.4,-0.9 v -0.3 l 0.2,-0.9 0.5,-0.7 0.9,-0.4 h 0.3 l 0.9,0.2 0.7,0.5 0.4,0.8 v 0.3 l -0.2,1 -0.5,0.6 -1.2,0.5 -1.5,0.2 -1.5,-0.2 -1,-0.5 -0.4,-0.8 v -0.6 l 0.2,-0.9 0.5,-0.4 m 23,-18.1 4.7,-5.1 m -0.7,6.4 -4,-1.3 m -2.9,-0.9 h 1 l 0.8,-0.7 0.8,-1.3 0.2,-0.9 0.2,-1.5 -0.3,-1 -0.8,-0.6 -0.5,-0.2 h -1 l -0.8,0.7 -0.8,1.4 -0.2,0.8 -0.2,1.5 0.3,1.1 0.8,0.5 0.4,0.2 m 106.5,59.4 0.6,0.2 1.3,0.1 -4.7,4.2 m 6.8,-2.1 -0.8,-0.5 -1.1,0.1 -1.3,0.8 -0.7,0.6 -0.9,1.2 -0.3,1.1 0.4,0.9 0.4,0.4 0.8,0.5 1.1,-0.2 1.3,-0.8 0.7,-0.6 0.9,-1.2 0.3,-1 -0.4,-0.9 -0.3,-0.3 m 4.9,6.9 -0.1,1 0.5,0.5 0.6,0.2 0.6,-0.1 0.5,-0.5 0.7,-1 0.6,-0.8 0.8,-0.3 0.6,-0.1 0.9,0.3 0.4,0.5 0.2,0.4 v 0.9 l -0.4,1.2 -0.6,0.7 -0.4,0.2 -0.7,0.1 -0.8,-0.3 -0.5,-0.5 -0.3,-0.8 V 636 l 0.1,-1.3 -0.1,-0.6 -0.4,-0.5 -0.6,-0.2 -0.6,0.1 -0.6,0.7 -0.5,1.3"
       id="nums_002"
       stroke="#000000"
       style="stroke-width:1.01549;stroke-dasharray:none" />
    <path
       d="m 642.9,322.9 1.6,3.1 -6,20.9 20.2,-3.7 2.5,1.8 2.4,20.5 19.1,33.2 -1,-1.7 -8.9,17.6 25.7,-6.5 -5.3,1.4 25,22 -36.3,-32 -3.2,-49.9 -9.6,-18.9 11.3,-34.9 19,-9.6 -20.2,-0.4 -21.6,-25 2.6,-20.1 30.1,-33.5 3.3,-32.4 50.1,18.7 54.7,28.9 -28.6,84.7 31,64.4 3.1,30.6 -26.1,60.4 -24.5,18.8 7.1,20.8 -16,36.2 -20.3,8.7 -21.6,0.8 -28.2,-25.3 -1.6,-21.5 -57.3,38.3 -34,-32.1 6.1,-38 9.6,-22.5 3.7,-2.1 24.1,3.7 -26.4,-33.8 -22.6,-3.7 -2.4,-3 0.4,-22.9 -25.2,-5.7 -3.1,-3.5 -2.9,-25.7 41.6,-58.7 25.6,-116.9 -5.6,-25 -14.5,12 -2.5,-0.5 -7.9,-17.2 -11.2,-96.2 -13.6,-14.4 56.9,-13 35.7,6.5 24,1 3.2,2.7 4.4,23.7 19.2,-14.8 46.7,0.3 19,15.1 17.3,-13 37.9,4.6 13.7,16.7 19.6,-7.3 32.2,15.2 6.7,19.8 25.5,7.1 3.1,3.7 2.6,26.3 25,7.4 3,3.7 1.7,26.1 0.8,-23.7 2.7,-3.1 23.3,-3.9 16.6,15.2 3.9,40.9 -13.3,18.1 21.3,8.7 1.8,3.4 -5.4,22.3 12.1,16.6 -6.3,33.8 -17.4,11 3.6,24.5 -2.1,3.8 -22.7,10 15.5,41 -8.6,61.8 -41.1,-15.1 -29.7,-5.3 -24.6,-6.5 -2.8,-3.6 -1.2,-25.3 14.7,-51 59.6,-27.8 -10.6,-18.2 9.5,-34.9 18.4,-10.3 -17.6,7.6 -25.7,-13.8 -3.4,-18.9 -20.7,0.2 10.9,-0.1 -34,-45.5 37.7,50.5 -45.5,1.1 -5.7,19.4 -2.7,1.3 -18.8,-7.6 -39.3,-9.1 -16.6,-63.9 39.9,-31.9 -24,19.1 v 0 l -26.4,-10.8 -16.1,15.2 -40,0.4 -16.5,-14.8 -58.6,-31.4 -25.2,-2.1 3.1,0.3 -12,-28 17.8,41.7 19.3,8.7 12.9,34.2 -8.8,19.3 8.5,20.1 -13.4,36.5 -19.6,9.8 13.3,15.5 -4,33.6 -16.5,11.9 z m 38.4,311.8 -3.7,0.7 -19.6,-11.3 -70.7,-2.6 -8.5,-72.2 18.7,-9.9 34.7,11 9.6,18.7 -4,-23.2 2,-3.5 22,-8.3 23,9.1 2.3,3.8 -2.6,24.6 38.1,-6.8 66.5,-33.7 -34.8,-21.5 34,-33.3 45.4,-17 47.4,30.9 3.1,26.2 -9.1,-75.6 64.6,4.9 68.8,8.3 -42.8,41.2 35.1,-33.8 -0.6,-0.2 18.6,7.4 11.9,56 -55.5,43.5 1.6,18.9 -20.7,19 -18.7,-3.2 -40.4,-21 24.5,33.7 32.6,44.7 -46,10.3 -29.7,-31.9 19.8,21.2 0.8,-1.8 -9.6,22.7 -40,14 -66.3,-7 15.5,9.6 0.2,2.3 -14.4,11.2 -76.8,9.7 8.3,-26.1 5,-26.1 3.4,-3.4 26.1,-4.7 17.1,-17 4.2,-0.5 20.4,12.8 -10.3,-40.6 -47.7,9.4 9.9,16.7 -0.9,2.5 -18.3,6.5 -24.6,-5 -3,-3.3 -2.2,-25.1 z"
       id="coupes_002"
       stroke="#ff0000"
       style="stroke-width:1.26936"
       sodipodi:nodetypes="ccccccccccccccccccccccccccccccccccccccccccccccccccccccccccccccccccccccccccccccccccccccccccccccccccccccccccccccccccccccccccccccccccccccccccccccccccccccccccccccccccccccccccccccccccccccccccccccccccccccccc" />
    <path
       d="m 611.5,20.1 1.3,64.4 m 0,0 -44.6,-37 m 44.6,37 -33.4,59.2 m 33.4,-59.2 -8.5,64.9 m 0,0 -24.9,-5.7 m 32.1,-123.6 35.4,94.2 m 0,0 -34.1,-29.8 m 17.8,41.7 -26.3,23.2 m 26.3,-23.2 23.4,62.2 m -24.5,66.4 -45.2,36.5 m 38,24.5 -79.6,34.2 m 79.6,-34.2 -48.4,69.1 m 0,0 -31.2,-34.9 m 95.8,-3.1 -64.6,38 m 64.6,-38 -40,67.6 m 0,0 -24.6,-29.6 m 89.7,-19.4 -65.1,49 m 65.1,-49 -38.7,82.8 m 47.9,-33.7 -47.9,33.7 m 93.3,-16.8 -93.3,16.8 m 93.3,-16.8 -45.5,69.5 m 0,0 -47.8,-52.7 m -37.4,20.9 37.4,-20.9 m 47.8,52.7 -85.2,-31.8 m 27.9,70.1 -27.9,-70.1 m 59.7,-442.6 -0.3,87.7 m 71.3,317.2 35.1,49.8 m 0,0 -80.6,19.7 m 51.4,46 -51.4,-46 m 80.6,-19.7 -29.2,65.7 m -5.9,-115.5 82.6,-60 m -82.6,60 51.6,-124.4 m -87.9,92.4 87.9,-92.4 m -70.4,-20.9 70.4,20.9 m -91.1,42.5 20.7,-63.4 m 0,0 -39.2,-45.5 m 0,0 138.2,-18.3 m -108.1,-15.2 108.1,15.2 m -108.1,-15.2 53.4,-13.7 m 34.4,-48.6 -72.6,0.8 m 58.2,-91.1 14.4,90.3 m -14.4,-90.3 64.8,82 m 0,0 -50.4,8.3 m -14.4,-90.3 68.9,8.3 m 0,0 -4.1,73.7 m 62.6,-46 -62.6,46 m 4.1,-73.7 58.5,27.7 m -11.6,86.2 -51,-40.2 m 62.6,-46 -11.6,86.2 m 42.8,-49.1 -42.8,49.1 m 11.6,-86.2 31.2,37.1 m 1,94.5 -43.8,-45.4 m 42.8,-49.1 1,94.5 m 28.7,-57.3 -28.7,57.3 m -1,-94.5 29.7,37.2 m 0,0 18,82.4 m 16,-38.9 -16,38.9 m -18,-82.4 26.8,-30.7 m 24.9,108.6 -51,67.9 m 0,0 17.3,-63.4 m 33.7,-4.5 -11.6,61.4 m 0,0 -39.4,6.5 m 39.4,-6.5 -21.2,38.3 m 0,0 -18.2,-31.8 m 18.2,31.8 -92.5,47 m 0,0 74.3,-78.8 m 18.2,31.8 -63.9,82.4 m 0,0 -28.6,-35.4 m 108,-6 -49.7,46.7 m -65,-201.8 -43.2,-91.8 m 51,40.2 -7.8,51.6 m 0,0 -83.1,-59.9 m 55.9,73 -55.9,-73 m -6.8,446.4 7.3,-83.8 m 0,0 107.9,50.7 m -115.2,33.1 -59.2,-50.1 m 66.5,-33.7 95.1,-14.7 m 0,0 12.8,65.4 m -162.9,42.5 -11.5,-59.5 m 161.6,-48.4 91,51.7 m 0,0 -78.2,13.7 m -202,34.8 27.6,-51.8 m 161.6,-48.4 81.5,-21.2 m 0,0 9.5,72.9 m -280.2,48.5 -10.5,-45 m 281.2,-76.4 65,29.4 M 658,624.1 684.5,571.6 m 281.2,-76.4 53.1,-26.6 M 658,624.1 l -16.2,-55 m 247.6,111.6 -97.3,-25.2 m 129.4,-40 -13.4,55 m -119,-139.4 -0.8,-54.8 m 0,0 95.9,40.1 m -50.5,-57.1 50.5,57.1 m 0,0 55.5,-70.7 m 0,0 26,49.5 M 849.4,694.7 792.1,655.5 m -9,32.2 9,-32.2 m -41.7,4.7 41.7,-4.7 m -76.2,38.9 34.5,-34.2 m 34,50.6 -68.5,-16.4 m 67.2,-6.7 1.3,23.1 m 190.8,-142.7 -37.8,34.7 m -295.6,-33.7 20,-35 m -74.5,87.4 54.5,-52.4 m 83,80.9 -29.8,-33.4 m 39.1,7.7 -9.3,25.7"
       id="plisM_002"
       stroke="#a52a2a"
       stroke-dasharray="4" />
    <path
       d="m 611.5,20.1 -43.3,27.4 m 62.4,78.7 -20.7,48.2 m 44.1,14 -44.1,-14 m 19.6,80.4 -19.6,-80.4 m 44.1,14 -24.5,66.4 m -7.2,61 -38,-24.5 m 45.2,-36.5 -7.2,61 m 0,0 16.2,31.1 m 0,0 25.1,18.6 m 0,0 9.2,49.1 m 0,0 45.4,16.9 M 678.8,54 646.9,114.3 m 0.3,-87.7 31.6,27.4 m 122,317.5 -47.5,109.8 m -74.6,-131.7 91.1,-42.5 m -70.4,-20.9 99,-63.8 M 678.8,54 705.5,145.7 M 678.8,54 l 84.9,0.6 m 0,0 -58.2,91.1 M 970,247.3 923.3,222.2 m 28.7,-57.3 34,43.5 m -7.2,-74.2 7.2,74.2 m 0,0 17.7,34.4 m 0,0 -33.7,4.5 M 986.4,383.5 907,424.9 M 871.7,228.4 844.5,241.5 M 897,581.8 781.8,614.9 m -47.7,9.4 -39.1,-7.7 m 0,0 -37,7.5 m -16.2,-55 42.7,2.5 m 193.9,67 -96.6,-23.7 M 897,581.8 878.4,638.6 m 0,0 -86.3,16.9 m 86.3,-16.9 11,42.1 m 32.1,-65.2 -43.1,23.1 m -95.3,49.1 -32.7,-27.5 m 32.7,27.5 -67.2,6.7 m -54.1,-160.3 22.7,37.5 m -105.7,-22.3 63,19.8"
       id="plisV_002"
       stroke="#008000"
       stroke-dasharray="4, 1, 1, 1"
       style="stroke-width:1.26936" />
    <path
       d="m 587.8,31.8 4,4 m 0,-4 -4,4 m 30.4,112.5 4,4 m 0,-4 -4,4 m 11.7,27.1 4,4 m 0,-4 -4,4 m -12.2,29.2 4,4 m 0,-4 -4,4 m 22.1,3 4,4 m 0,-4 -4,4 m -38.5,78 4,4 m 0,-4 -4,4 m 22.6,-22.3 4,4 m 0,-4 -4,4 m 4.5,42.1 4,4 m 0,-4 -4,4 m 20.6,20.8 4,4 m 0,-4 -4,4 m 17.2,29.8 4,4 m 0,-4 -4,4 m 27.3,29 4,4 m 0,-4 -4,4 m -32.7,-342.8 4,4 m 0,-4 -4,4 m 0.2,-47.9 4,4 m 0,-4 -4,4 m 114.1,382.1 4,4 m 0,-4 -4,4 m -52.8,-102.1 4,4 m 0,-4 -4,4 m 24.6,-78 4,4 m 0,-4 -4,4 m -56.8,-158.4 4,4 m 0,-4 -4,4 m 29.2,-49.6 4,4 m 0,-4 -4,4 m 13.3,41.9 4,4 m 0,-4 -4,4 m 212,130.6 4,4 m 0,-4 -4,4 m 22.4,-52.1 4,4 m 0,-4 -4,4 m 13.4,-19.4 4,4 m 0,-4 -4,4 m 12.5,50.3 4,4 m 0,-4 -4,4 m -8.1,15.5 4,4 m 0,-4 -4,4 m -40.1,155.1 4,4 m 0,-4 -4,4 M 856.1,233 l 4,4 m 0,-4 -4,4 m -18.7,359.3 4,4 m 0,-4 -4,4 m -124.9,18.2 4,4 m 0,-4 -4,4 m -38,-4.1 4,4 m 0,-4 -4,4 m -13.4,-54 4,4 m 0,-4 -4,4 m 167,52.3 4,4 m 0,-4 -4,4 m 57.6,-20.5 4,4 m 0,-4 -4,4 m -52.5,32.9 4,4 m 0,-4 -4,4 m 48.7,8.6 4,4 m 0,-4 -4,4 m 16,-36.6 4,4 m 0,-4 -4,4 m -133.2,42.9 4,4 m 0,-4 -4,4 m -17.2,13.1 4,4 m 0,-4 -4,4 m -76.4,-142.3 4,4 m 0,-4 -4,4 m -62.8,2.4 4,4 m 0,-4 -4,4"
       id="marqueV_002"
       stroke="#008000" />
    <path
       d="m 757.6,259.4 -7.5,10.5 h 11.3 m -3.8,-10.5 v 15.7"
       id="titre_4"
       stroke="#4b0082"
       style="stroke-width:1.26936" />
    <path
       d="m 826,563.5 h -7.5 l -0.7,6.8 0.7,-0.8 2.3,-0.7 h 2.2 l 2.3,0.7 1.5,1.5 0.7,2.3 v 1.5 l -0.7,2.2 -1.5,1.5 -2.3,0.8 h -2.2 l -2.3,-0.8 -0.7,-0.7 -0.8,-1.5"
       id="titre_5"
       stroke="#4b0082"
       style="stroke-width:1.26936" />
  </g>
  <g
     id="page_003">
    <path
       d="m 1393.4,263.5 -0.3,-0.1 -0.4,-0.6 -0.1,-0.4 0.1,-0.6 0.5,-1.1 0.6,-0.4 0.4,-0.1 0.7,0.1 0.5,0.2 0.4,0.6 0.5,1 1.1,4 2.1,-3.6 m -2.4,-6.8 h -0.7 l -0.7,0.6 -0.3,0.5 -0.2,1 0.5,0.9 1.2,1 1.3,0.7 1.2,0.4 0.8,-0.3 0.7,-0.6 0.2,-0.3 0.1,-0.9 -0.2,-0.8 -0.6,-0.7 -0.3,-0.2 -0.9,-0.1 -0.9,0.2 -0.7,0.6 -0.1,0.3 -0.2,0.9 0.3,0.8 0.6,0.7 m -62.5,16.3 0.3,-0.1 0.6,0.2 0.4,0.2 0.4,0.5 0.3,1.1 -0.1,0.7 -0.2,0.4 -0.5,0.4 -0.6,0.1 -0.7,-0.1 -1,-0.4 -3.6,-2.1 1,4 m 6.8,1.1 -0.6,-0.8 -0.6,-0.2 -0.6,0.2 -0.5,0.4 -0.1,0.7 v 1.2 l -0.1,0.9 -0.4,0.8 -0.5,0.4 -0.9,0.2 -0.7,-0.1 -0.3,-0.2 -0.5,-0.8 -0.3,-1.2 v -0.9 l 0.2,-0.4 0.5,-0.4 0.9,-0.3 0.7,0.2 0.7,0.4 0.5,0.8 0.6,1.1 0.4,0.5 0.7,0.2 0.6,-0.2 0.5,-0.4 0.1,-1 -0.4,-1.3 M 1323.9,218 h 0.3 l 0.6,0.2 0.3,0.2 0.4,0.6 0.2,1.1 -0.2,0.7 -0.2,0.3 -0.6,0.4 -0.6,0.1 -0.6,-0.2 -1,-0.4 -3.4,-2.5 0.7,4.1 m 4.9,4.3 -0.9,-0.1 -0.7,-0.5 -0.5,-0.8 v -0.3 l 0.1,-1 0.5,-0.7 0.9,-0.4 h 0.3 l 0.9,0.1 0.7,0.5 0.4,0.8 0.1,0.3 -0.2,1 -0.4,0.7 -1.2,0.4 -1.5,0.3 -1.5,-0.1 -1,-0.4 -0.4,-0.8 -0.1,-0.6 0.1,-1 0.6,-0.4 m 54.5,116.3 h -0.3 l -0.6,-0.4 -0.3,-0.3 -0.2,-0.6 0.1,-1.2 0.4,-0.6 0.3,-0.3 0.6,-0.2 0.6,0.1 0.6,0.3 0.8,0.7 2.7,3.3 0.4,-4.2 m -5.8,-5.8 6,3.6 m -6.4,0.6 0.4,-4.2 m 39.4,-130.8 0.5,-3.2 2.1,2.2 0.1,-0.9 0.4,-0.6 0.4,-0.2 0.9,-0.2 0.6,0.1 0.8,0.5 0.5,0.7 0.2,0.9 -0.2,0.9 -0.4,0.8 -0.4,0.3 -0.6,0.2 m -2.7,-9.5 -0.6,0.2 -0.5,0.8 -0.1,0.6 0.2,0.9 0.8,0.8 1.4,0.5 1.5,0.3 1.2,-0.1 0.7,-0.5 0.5,-0.9 v -0.3 l -0.1,-0.9 -0.5,-0.7 -0.9,-0.4 -0.3,-0.1 -0.9,0.2 -0.7,0.5 -0.4,0.8 -0.1,0.3 0.2,0.9 0.5,0.7 0.8,0.5 m -74.4,152.5 -0.2,3.3 -2.3,-1.9 v 0.9 l -0.4,0.6 -0.3,0.3 -0.9,0.2 h -0.6 l -0.9,-0.3 -0.5,-0.7 -0.3,-0.9 v -0.9 l 0.4,-0.9 0.3,-0.2 0.6,-0.3 m 3.4,5.4 0.3,0.6 0.9,1 -6.3,-0.3 m -19.1,-194.7 0.2,3.3 -2.5,-1.6 0.1,0.9 -0.3,0.6 -0.3,0.3 -0.8,0.4 -0.6,0.1 -1,-0.3 -0.6,-0.5 -0.4,-0.9 -0.1,-0.9 0.3,-0.9 0.2,-0.3 0.6,-0.4 m 5.9,9 -6.6,-2.5 m 6.2,-1.7 0.4,4.2 m 84.7,-41.8 1.4,2.6 2.5,-0.9 -0.4,-0.2 -0.7,-0.6 -0.4,-0.8 -0.2,-1 0.3,-0.8 0.6,-0.7 0.6,-0.2 0.9,-0.2 0.8,0.3 0.7,0.6 0.4,0.8 0.2,1 -0.2,0.4 -0.3,0.5 m -5.9,-3.5 -0.3,0.1 h -0.7 l -0.4,-0.1 -0.5,-0.4 -0.6,-1.1 v -0.6 l 0.1,-0.4 0.4,-0.6 0.6,-0.3 h 0.6 l 1.1,0.2 4,1.2 -1.9,-3.7 m -74.4,292.5 -1.8,2.7 -1,-2.8 -0.5,0.7 -0.6,0.4 h -0.4 l -0.9,-0.2 -0.5,-0.3 -0.6,-0.8 -0.2,-0.8 0.3,-0.9 0.5,-0.8 0.7,-0.6 0.4,-0.1 0.7,0.1 m -0.3,6.9 0.3,0.2 0.3,0.6 0.1,0.4 -0.1,0.6 -0.6,1 -0.6,0.4 h -0.4 -0.7 l -0.5,-0.4 -0.3,-0.6 -0.5,-0.9 -0.8,-4.2 -2.3,3.5 m -11.7,-304.1 -6.8,-1.3 m 5.7,-2.8 1.1,4.1 m -1.1,1.4 0.5,0.5 1.1,0.6 -6.1,1.6 m 51,-49.3 6.4,-2.9 m -3.2,5.6 -3.2,-2.7 m -0.3,-2.2 -0.2,0.2 -0.6,0.3 h -0.4 l -0.7,-0.2 -0.9,-0.7 -0.2,-0.6 -0.1,-0.5 0.2,-0.6 0.4,-0.5 0.6,-0.2 1,-0.3 4.2,-0.4 -3.2,-2.7 m 45.2,405.5 -0.6,0.3 -0.2,0.9 v 0.6 l 0.3,0.9 0.9,0.6 1.5,0.3 1.5,-0.1 1.2,-0.3 0.6,-0.6 0.3,-0.9 v -0.3 l -0.4,-0.9 -0.6,-0.6 -0.9,-0.3 h -0.3 l -0.9,0.4 -0.6,0.6 -0.2,0.9 v 0.3 l 0.3,0.9 0.6,0.6 0.9,0.2 m -2.8,-5.5 h -0.3 l -0.6,-0.3 -0.3,-0.3 -0.3,-0.6 v -1.2 l 0.2,-0.6 0.3,-0.3 0.6,-0.3 h 0.6 l 0.6,0.3 1,0.6 3,2.9 -0.1,-4.2 m -14.2,63 -0.7,0.1 -0.6,0.7 -0.2,0.6 v 0.9 l 0.7,0.9 1.3,0.8 1.4,0.4 1.3,0.1 0.7,-0.3 0.6,-0.8 0.1,-0.3 v -0.9 l -0.4,-0.8 -0.7,-0.6 h -0.3 l -1,-0.1 -0.7,0.4 -0.6,0.8 -0.1,0.3 v 0.9 l 0.4,0.8 0.7,0.5 m -2.1,-6.6 1,-3.2 1.7,2.5 0.3,-0.8 0.5,-0.5 0.4,-0.2 h 0.9 l 0.6,0.2 0.7,0.6 0.4,0.7 v 1 l -0.3,0.8 -0.6,0.8 -0.3,0.2 -0.7,0.1 m -38.8,14.1 -0.2,-0.7 -0.8,-0.4 -0.6,-0.2 -0.9,0.1 -0.8,0.8 -0.6,1.4 -0.3,1.5 v 1.2 l 0.4,0.7 0.9,0.5 0.3,0.1 0.9,-0.2 0.7,-0.4 0.5,-0.8 0.1,-0.3 -0.1,-1 -0.5,-0.7 -0.8,-0.5 h -0.3 l -1,0.1 -0.7,0.4 -0.4,0.9 m 9.3,-2.3 -3,-0.7 -0.8,2.6 0.3,-0.2 1,-0.1 0.9,0.2 0.8,0.5 0.4,0.7 0.1,0.9 -0.1,0.6 -0.5,0.8 -0.7,0.5 -0.9,0.1 -0.9,-0.2 -0.8,-0.5 -0.3,-0.3 -0.1,-0.7 m -32.9,-22.8 0.5,-0.5 -0.1,-0.9 -0.2,-0.6 -0.6,-0.7 -1.1,-0.2 -1.5,0.2 -1.4,0.6 -1,0.7 -0.3,0.8 0.1,1 0.1,0.2 0.6,0.8 0.8,0.3 0.9,-0.1 0.3,-0.1 0.7,-0.6 0.3,-0.8 v -0.9 l -0.1,-0.3 -0.6,-0.7 -0.8,-0.4 -1,0.1 m 7,6 -5,-1.2 1.7,4.2 m 3.3,-3 -5.8,2.4 m -24.4,-473.5 -0.4,0.5 -0.7,1.1 -1.7,-6.1 m 0.4,5.2 -0.5,0.5 -0.6,1.1 -1.8,-6 m -2.3,7.5 1.7,-4.9 -4.3,1.2 m 2.6,3.7 -1.7,-6.1 m 14.6,395.6 -2.9,1.6 0.4,-2.9 -0.8,0.4 h -0.6 l -0.5,-0.1 -0.7,-0.6 -0.2,-0.5 -0.2,-1 0.2,-0.8 0.7,-0.7 0.7,-0.4 1,-0.2 0.4,0.1 0.5,0.4 m -6.6,7.1 -0.2,-0.9 0.3,-0.8 0.6,-0.7 0.3,-0.2 0.9,-0.1 0.8,0.2 0.7,0.6 0.2,0.3 0.1,0.9 -0.2,0.8 -0.6,0.7 -0.3,0.2 -0.9,0.2 -0.8,-0.3 -0.9,-0.9 -0.7,-1.3 -0.5,-1.4 0.1,-1.1 0.6,-0.7 0.6,-0.3 0.9,-0.2 0.6,0.4 m -1.2,57.8 -0.3,-0.6 -0.8,-0.3 h -0.6 l -1,0.2 -0.6,0.9 -0.3,1.5 -0.1,1.5 0.3,1.2 0.5,0.6 0.9,0.4 h 0.3 l 0.9,-0.3 0.6,-0.6 0.4,-0.8 v -0.3 l -0.3,-1 -0.5,-0.6 -0.9,-0.3 h -0.3 l -0.9,0.2 -0.7,0.6 -0.3,0.9 m 5.1,-2.6 0.6,-0.3 0.9,-0.8 -0.2,6.3 m -51.3,-2.8 -0.3,0.9 -0.5,0.7 -0.9,0.3 -0.3,0.1 -0.9,-0.3 -0.7,-0.5 -0.3,-0.9 v -0.3 l 0.2,-0.9 0.5,-0.7 0.9,-0.3 h 0.3 l 0.9,0.2 0.7,0.5 0.4,1.2 0.1,1.5 -0.2,1.5 -0.5,1 -0.9,0.3 -0.6,0.1 -0.9,-0.3 -0.4,-0.5 m 8.4,-6.1 -2.5,6.5 m -1.7,-6.2 4.2,-0.3 m -26.8,-10.9 -4.4,-2.8 0.2,4.5 m 4.2,-1.7 -6.3,0.3 m 4.4,6.4 -0.9,-0.3 -0.6,-0.5 -0.4,-0.9 v -0.3 l 0.3,-0.9 0.5,-0.7 0.9,-0.3 h 0.3 l 0.9,0.2 0.7,0.6 0.3,0.9 v 0.3 l -0.2,0.9 -0.6,0.6 -1.2,0.4 -1.5,0.1 -1.5,-0.3 -0.9,-0.5 -0.4,-0.9 v -0.6 l 0.2,-0.9 0.6,-0.4 m 12.4,-41 v 0.7 l 0.5,1.2 -5.8,-2.4 m 4.9,5.2 0.1,-1 -0.6,-0.9 -1.3,-0.8 -0.8,-0.3 -1.5,-0.3 -1.1,0.2 -0.6,0.7 -0.2,0.6 -0.1,0.9 0.6,0.9 1.3,0.9 0.9,0.3 1.5,0.3 1,-0.2 0.6,-0.8 0.2,-0.4 m 41.3,-33.7 3.9,3.4 0.5,-4.5 m -4.4,1.1 6.3,0.6 m -5.9,-3.8 0.3,-3.3 2.2,2 0.1,-0.9 0.4,-0.6 0.3,-0.2 0.9,-0.2 h 0.6 l 0.9,0.4 0.5,0.7 0.3,0.9 -0.1,0.9 -0.4,0.8 -0.3,0.3 -0.7,0.3 m -21.4,-30.1 -3,-1.4 2.6,-1.4 -0.9,-0.4 -0.4,-0.5 -0.1,-0.4 v -1 l 0.3,-0.5 0.6,-0.7 0.8,-0.3 1,0.1 0.8,0.3 0.7,0.7 0.1,0.3 0.1,0.7 m -9.9,1.3 4.5,-2.6 -4.2,-1.8 m -0.3,4.4 2.5,-5.7 m -14.2,14.3 -0.4,-0.9 -0.6,-0.2 h -0.6 l -0.6,0.4 -0.2,0.6 -0.2,1.2 -0.3,0.9 -0.5,0.7 -0.6,0.3 -0.9,0.1 -0.6,-0.3 -0.3,-0.2 -0.4,-0.9 -0.1,-1.2 0.2,-0.9 0.3,-0.4 0.6,-0.3 0.9,-0.1 0.6,0.3 0.6,0.5 0.4,0.9 0.4,1.2 0.4,0.5 0.6,0.3 0.6,-0.1 0.6,-0.3 0.2,-0.9 -0.1,-1.4 m 0.4,5.5 -0.4,-0.9 -0.6,-0.2 h -0.6 l -0.5,0.4 -0.3,0.6 -0.2,1.2 -0.2,0.9 -0.6,0.7 -0.6,0.3 -0.9,0.1 -0.6,-0.2 -0.3,-0.3 -0.4,-0.9 -0.1,-1.2 0.3,-0.9 0.2,-0.3 0.6,-0.4 h 0.9 l 0.6,0.2 0.7,0.6 0.3,0.8 0.4,1.2 0.4,0.6 0.6,0.2 h 0.6 l 0.6,-0.4 0.2,-0.9 -0.1,-1.3 m 21.5,-338.5 0.3,0.6 0.9,0.8 -6.3,0.1 m 6.7,4.2 -4.3,-2.9 0.1,4.5 m 4.2,-1.6 -6.3,0.1 m 18,9 0.7,-0.1 1.2,-0.5 -2.4,5.9 m 2.9,-4.4 h 0.7 l 1.2,-0.5 -2.4,5.8 m 3.4,-4 0.1,-0.3 0.5,-0.4 0.4,-0.2 h 0.7 l 1.1,0.4 0.4,0.5 0.2,0.4 0.1,0.7 -0.3,0.5 -0.5,0.5 -0.9,0.6 -3.9,1.6 3.9,1.6 m 125,329.5 3,4.2 1.4,-4.3 m -4.4,0.1 5.9,2 m -4.5,-6.2 v 1 l 0.7,0.8 1.3,0.8 0.9,0.3 1.5,0.1 1,-0.3 0.6,-0.7 0.2,-0.6 v -0.9 l -0.7,-0.9 -1.3,-0.7 -0.9,-0.3 -1.5,-0.2 -1,0.3 -0.6,0.8 -0.2,0.4 m -6.6,-9.7 h 0.9 l 0.5,-0.4 0.2,-0.6 -0.1,-0.7 -0.5,-0.4 -1,-0.7 -0.8,-0.6 -0.4,-0.7 -0.1,-0.7 0.3,-0.8 0.5,-0.5 0.4,-0.2 h 0.9 l 1.2,0.4 0.7,0.5 0.2,0.4 0.1,0.7 -0.3,0.8 -0.4,0.5 -0.8,0.4 h -1 l -1.2,-0.1 -0.6,0.1 -0.5,0.5 -0.2,0.5 0.1,0.7 0.7,0.6 1.3,0.4 m -7.6,-2.5 4.8,-5.1 m -0.8,6.4 -4,-1.3 m -217.5,31.2 v 0.9 l 0.4,0.5 0.5,0.3 0.7,-0.1 0.5,-0.4 0.8,-1 0.6,-0.7 0.8,-0.3 h 0.7 l 0.8,0.4 0.4,0.5 0.2,0.4 -0.1,0.9 -0.5,1.1 -0.6,0.7 -0.4,0.2 h -0.7 l -0.8,-0.4 -0.4,-0.5 -0.3,-0.8 v -0.9 l 0.2,-1.2 v -0.7 l -0.4,-0.5 -0.6,-0.3 -0.6,0.1 -0.7,0.7 -0.5,1.2 m 5.1,-6.4 0.7,0.7 0.3,0.7 -0.1,1 -0.1,0.3 -0.6,0.7 -0.8,0.3 -1,-0.1 -0.3,-0.1 -0.7,-0.7 -0.3,-0.8 0.1,-0.9 0.1,-0.3 0.7,-0.7 0.8,-0.3 1.2,0.2 1.4,0.6 1.2,0.9 0.6,0.9 -0.1,1 -0.2,0.5 -0.7,0.7 h -0.6 m -28.5,-76.5 -0.7,3.2 -2,-2.3 -0.2,0.9 -0.4,0.5 -0.4,0.2 -0.9,0.1 -0.6,-0.1 -0.8,-0.5 -0.4,-0.7 -0.1,-1 0.2,-0.8 0.5,-0.8 0.3,-0.3 0.7,-0.1 m 2.1,9.6 0.6,-0.1 0.5,-0.8 0.1,-0.6 v -1 l -0.8,-0.8 -1.4,-0.6 -1.4,-0.3 h -1.3 l -0.7,0.5 -0.5,0.8 -0.1,0.3 0.1,0.9 0.5,0.7 0.8,0.5 0.3,0.1 0.9,-0.1 0.7,-0.5 0.5,-0.8 0.1,-0.3 -0.1,-0.9 -0.4,-0.7 -0.8,-0.5 m 60.4,-7.9 0.8,0.6 0.4,0.7 v 1 l -0.1,0.2 -0.5,0.8 -0.8,0.4 h -0.9 l -0.3,-0.1 -0.8,-0.5 -0.4,-0.8 v -0.9 l 0.1,-0.3 0.5,-0.8 0.8,-0.4 1.2,0.1 1.5,0.4 1.3,0.8 0.7,0.8 v 1 l -0.2,0.5 -0.5,0.8 -0.7,0.1 m -2.7,-9.5 -0.9,2.8 2.5,1.1 -0.2,-0.4 v -0.9 l 0.3,-0.9 0.5,-0.7 0.8,-0.4 0.9,-0.1 0.6,0.2 0.8,0.6 0.4,0.7 v 1 l -0.3,0.8 -0.5,0.8 -0.4,0.2 -0.7,0.1 m -50.1,-74.3 0.1,-3 -2.7,-0.3 0.3,0.3 0.3,0.9 -0.1,0.9 -0.3,0.9 -0.6,0.6 -0.9,0.3 h -0.6 l -0.9,-0.3 -0.6,-0.6 -0.3,-0.9 0.1,-0.9 0.3,-0.9 0.3,-0.3 0.6,-0.3 m 3.5,5.9 h 0.3 l 0.6,0.3 0.3,0.3 0.3,0.6 v 1.2 l -0.3,0.6 -0.3,0.3 -0.6,0.3 h -0.6 l -0.6,-0.3 -0.9,-0.6 -3,-3.1 v 4.2 m 73.1,2.4 -0.1,-0.7 -0.6,-1.1 6,1.9 m -5.3,-4.8 v 1 l 0.7,0.8 1.3,0.8 0.9,0.2 1.5,0.2 1,-0.3 0.6,-0.8 0.2,-0.5 v -1 l -0.7,-0.8 -1.4,-0.8 -0.8,-0.2 -1.5,-0.2 -1.1,0.3 -0.5,0.8 -0.2,0.4 m 2.4,-2.7 -0.1,-0.7 -0.6,-1.1 6,1.9 m -8,-54.5 -0.6,-0.4 -1.1,-0.5 5.8,-2.4 m -7.2,-0.2 0.7,0.7 1,0.2 1.5,-0.3 0.8,-0.3 1.3,-0.9 0.6,-0.9 -0.1,-0.9 -0.2,-0.6 -0.6,-0.7 -1.1,-0.2 -1.5,0.3 -0.8,0.3 -1.3,0.9 -0.6,0.9 0.1,0.9 0.2,0.4 m -0.2,-4.1 -0.2,0.1 -0.7,-0.1 -0.4,-0.1 -0.5,-0.5 -0.5,-1.1 0.1,-0.6 0.1,-0.4 0.5,-0.5 0.5,-0.3 0.7,0.1 1.1,0.2 3.9,1.6 -1.6,-3.9 m -93.5,212.8 0.3,0.1 0.5,0.5 0.2,0.3 0.1,0.7 -0.3,1.1 -0.5,0.5 -0.4,0.2 -0.6,0.1 -0.6,-0.1 -0.5,-0.5 -0.7,-0.8 -2,-3.8 -1.2,4 m 3.8,6.1 0.6,-0.1 0.6,-0.7 0.2,-0.6 -0.1,-1 -0.6,-0.8 -1.4,-0.7 -1.4,-0.5 h -1.3 l -0.7,0.4 -0.6,0.7 v 0.3 1 l 0.4,0.7 0.8,0.6 0.2,0.1 1,-0.1 0.7,-0.4 0.6,-0.7 0.1,-0.3 v -1 l -0.4,-0.7 -0.8,-0.6 m -5.3,69.8 h 0.3 l 0.6,0.3 0.3,0.3 0.3,0.6 v 1.2 l -0.2,0.6 -0.3,0.3 -0.6,0.3 h -0.6 l -0.6,-0.3 -1,-0.6 -3,-2.9 0.1,4.2 m 6.3,5.1 -6.3,-2.9 m 6.3,-1.3 v 4.2 m 5.9,57.2 -0.6,-0.8 -0.7,-0.1 -0.5,0.2 -0.5,0.5 -0.1,0.6 0.1,1.3 v 0.9 l -0.4,0.8 -0.5,0.5 -0.8,0.2 -0.7,-0.1 -0.4,-0.1 -0.5,-0.8 -0.4,-1.1 v -1 l 0.2,-0.4 0.4,-0.4 0.9,-0.3 0.7,0.1 0.7,0.3 0.6,0.8 0.7,1 0.4,0.5 0.7,0.1 0.6,-0.2 0.4,-0.4 v -1 l -0.4,-1.3 m 2.6,7.7 -7,-0.9 m 5.6,-3.1 1.4,4 m 72.9,57.6 -0.1,-0.3 v -0.6 l 0.2,-0.4 0.4,-0.5 1.1,-0.5 h 0.7 l 0.4,0.2 0.5,0.4 0.2,0.6 v 0.7 l -0.2,1 -1.6,4 3.9,-1.7 m -1,-4.9 0.5,-0.5 0.4,-1.2 2.5,5.8 m 1.8,-44.3 -0.5,-0.5 -1,-0.6 6.1,-1.5 m -5.5,-3.9 1,0.1 0.7,0.4 0.5,0.9 0.1,0.2 -0.1,1 -0.5,0.7 -0.8,0.5 -0.3,0.1 -0.9,-0.1 -0.7,-0.4 -0.5,-0.9 -0.1,-0.2 0.1,-1 0.4,-0.7 1.1,-0.6 1.5,-0.3 1.5,-0.1 1,0.4 0.5,0.8 0.2,0.6 -0.1,0.9 -0.5,0.5 m -57.9,65.9 -0.1,-0.3 v -0.7 l 0.1,-0.4 0.5,-0.5 1.1,-0.5 h 0.6 l 0.4,0.2 0.6,0.4 0.2,0.6 v 0.6 l -0.2,1.1 -1.5,4 3.8,-1.8 m -1,-6.4 3,-1.4 -0.6,2.9 0.8,-0.3 h 0.7 l 0.4,0.2 0.6,0.7 0.2,0.5 0.1,0.9 -0.3,0.8 -0.7,0.7 -0.8,0.3 -0.9,0.1 -0.4,-0.1 -0.5,-0.4 m -24.9,-28.6 0.3,-0.1 0.7,0.2 0.3,0.3 0.4,0.5 0.2,1.2 -0.2,0.6 -0.3,0.4 -0.5,0.4 -0.6,0.1 -0.7,-0.2 -0.9,-0.5 -3.5,-2.5 0.7,4.1 m 6.9,3.3 -4.6,-2.3 0.7,4.4 m 3.9,-2.1 -6.2,1 m 47.2,-114.5 -0.6,-0.2 -1.2,-0.2 5,-3.9 m -7,1.7 0.8,0.5 1.1,-0.1 1.3,-0.6 0.8,-0.6 1,-1.1 0.3,-1.1 -0.3,-0.9 -0.4,-0.4 -0.8,-0.6 -1,0.1 -1.4,0.7 -0.7,0.5 -1,1.2 -0.4,1 0.3,0.9 0.3,0.4 m -3,-3.9 0.8,0.5 0.7,-0.1 0.4,-0.4 0.3,-0.6 -0.1,-0.6 -0.5,-1.2 -0.3,-0.9 0.1,-0.8 0.3,-0.6 0.7,-0.6 0.7,-0.1 0.4,0.1 0.8,0.5 0.7,0.9 0.3,0.9 v 0.5 l -0.3,0.6 -0.7,0.5 -0.7,0.1 -0.8,-0.1 -0.8,-0.5 -1,-0.8 -0.6,-0.3 -0.7,0.2 -0.4,0.3 -0.3,0.6 0.3,0.9 0.8,1.1 m -23.1,-313.9 -6.6,-2.4 m 6.2,-1.7 0.4,4.1 m -1.3,1.8 h 0.3 l 0.6,0.2 0.3,0.3 0.4,0.6 0.1,1.2 -0.3,0.6 -0.2,0.3 -0.6,0.4 h -0.6 l -0.6,-0.2 -1,-0.5 -3.2,-2.7 0.4,4.2 m 47.4,-62.6 6.8,1.6 m -6,2.5 -0.8,-4.1 m -1.1,-5.1 6.8,1.6 m -5.9,2.5 -0.9,-4.1 m -27,-58.1 -0.7,-0.3 h -1.3 l 4.5,-4.4 m -4.4,2.8 -0.6,-0.2 h -1.3 l 4.5,-4.4 m -7.3,0.6 -0.3,0.6 0.5,0.9 0.4,0.4 0.8,0.4 1.1,-0.2 1.3,-0.8 1,-1.1 0.7,-1.1 v -0.8 l -0.5,-0.9 -0.2,-0.2 -0.8,-0.4 h -0.9 l -0.8,0.4 -0.2,0.2 -0.5,0.9 v 0.8 l 0.5,0.9 0.2,0.2 0.8,0.4 h 0.9 L 1169,63 m -57.4,55.3 0.7,0.1 1.2,-0.3 -3.5,5.3 m 3.7,-3.7 0.7,0.1 1.2,-0.2 -3.5,5.2 m 7.2,-3 -4.8,1.8 3.7,2.5 m 1.1,-4.3 -3.5,5.2 m 4.8,-55.3 -0.2,0.7 v 1.3 l -4.5,-4.4 m 1.3,7.9 2.1,-2.2 -1.7,-2 v 0.4 l -0.4,0.8 -0.6,0.7 -0.9,0.4 h -0.8 l -0.9,-0.4 -0.4,-0.4 -0.4,-0.8 v -0.9 l 0.4,-0.9 0.6,-0.6 0.8,-0.4 h 0.5 l 0.6,0.2"
       id="nums_003"
       stroke="#000000"
       style="stroke-width:1.01549;stroke-dasharray:none" />
    <path
       d="m 1271.3,98.1 -4.5,-1.8 -14.4,-22 -15.1,-8.7 -0.1,-2 14.9,-9.1 13.1,-19.4 42.2,-12.1 21.5,9.4 23.7,0.4 34.5,29.1 4.5,23.3 21.8,9.5 20.9,40 -4.7,23.4 11.8,20 -7.3,43 -17.8,15 6.6,19.2 -16.2,29 -19.7,4.7 12.9,22.5 -4.9,51.7 -16.9,19.8 22.9,-8.3 4,1.4 13.4,20.2 -10.8,33.1 1.1,63.9 -18.8,55.4 -65.2,-14.2 -11.6,-29 -34.9,-1.3 -61.4,4.6 -1.7,-37.7 16.6,-41.6 -5.1,-63.3 56.7,24.7 -5.3,55.3 7.8,-21.5 3.3,-1.9 22.4,4.7 -2.2,-23.7 2.3,-3.4 22.7,-7.1 -14.1,-18.8 1.9,-44.3 15.8,-17.4 -17.9,-9.7 -8.3,-32.7 11.1,-17 -17,-10.8 -5.3,-32.4 12.7,-15.7 -16.1,-12 -2.5,-32.1 13.8,-14.4 -19.6,-15.9 -1.2,-4.3 9.3,-23.5 z m -39.9,448.8 11.5,48.1 -9.9,23.1 -37.4,16 -52.5,23.6 -11.4,-74.8 -13.4,-40.3 -1.5,-94.4 17.7,-57.8 17.7,-77.2 0.8,-82.1 -7.8,-81.6 -66,-45 4.4,-26.1 37.2,-38.2 25.9,-5.2 22,0.8 27.8,27.7 0.8,22 18.9,16.5 10.4,48 -10.5,22.8 20.5,10.2 16.4,39.1 -7.2,21.8 10,18.4 -10.8,34 -18.7,9.4 8.8,22.5 -13.6,44 -19.9,13.5 5.5,24.8 -20.1,45.7 -22,12.7 22.5,4.5 25.9,33.6 -1.25,23.3 z"
       id="coupes_003"
       stroke="#ff0000"
       style="stroke-width:1.26936"
       sodipodi:nodetypes="ccccccccccccccccccccccccccccccccccccccccccccccccccccccccccccccccccccccccccccccccccccccccccccccccccc" />
    <path
       d="m 1387,289 -64.2,-35.6 m 0,0 93.5,-17.3 m 0,0 -29.3,52.9 m 0,0 -49.1,23.8 m -15.1,-59.4 -9.6,-58.9 m 0,0 103.1,41.6 m -38.2,146.9 -40.2,-70.2 m -24.7,-118.3 116.4,-36.4 m 0,0 -13.3,78 m -38.2,146.9 -43.8,10.3 m -21.1,-198.8 -4.8,-58.5 m 0,0 121.2,22.1 M 1308.4,136 1391.6,85.2 m 0,0 38,72.9 m -22,271.3 -96.1,-1.9 m -14.6,-335.2 94.7,-7.1 m -83.2,50.8 -11.5,-43.7 m 110.7,337.1 -94.5,76.1 m 0,0 -1.6,-78 m -14.6,-335.2 32,-59.9 m 0,0 62.7,52.8 m 17.1,408.1 -95.6,12.2 m -61,-451 76.8,-22.1 m -32,59.9 -44.8,-37.8 m 61,451 -35.1,-59.3 m 0.2,58 -0.2,-58 m 0.2,58 -63.1,-33.1 m 0,0 62.9,-24.9 m -46.3,-16.7 51.6,-38.6 m 13.6,-298.6 -44.5,-18 m 125.7,308.7 40.3,13.3 m -283.9,-5.9 67.1,-4.7 m 0,0 -36.6,83.2 m 0,0 -30.5,-78.5 m 17.7,-77.2 49.4,72.5 m -49.4,-72.5 74.1,-7.5 m 0,0 -24.7,80 m -48.6,-154.6 73.3,74.6 m -73.3,-74.6 92.8,12.8 m 0,0 -19.5,61.8 m -73.3,-74.6 63.1,-58.3 m 0,0 29.7,71.1 m -80.8,225 -48.2,-20.7 m 49.2,88.7 -49.2,-88.7 m 48.2,20.7 1,68 m 0,0 -47.7,5.7 m 77.3,91.5 -63.9,-51.2 m 34.3,-46 29.6,97.2 m -29.6,-97.2 67,81.2 m -67,-81.2 46.2,-6.2 m 0,0 20.8,87.4 m -68,-149.2 47.1,61 m -66.9,-380.4 70.9,23.3 m -18.8,-87.3 18.8,87.3 m -70.9,-23.3 52.1,-64 m -52.1,64 1.5,-114.5"
       id="plisM_003"
       stroke="#a52a2a"
       stroke-dasharray="4" />
    <path
       d="m 1337.9,312.8 -15.1,-59.4 m 64.2,35.6 -8.9,94 m -43.8,10.3 3.6,-80.5 m 40.2,70.2 29.5,46.4 m 0,0 -73.3,-36.1 m -22.8,34.2 22.8,-34.2 m 55.6,155.4 -76.8,-43.2 m -35.1,-59.3 33.5,-18.7 m -79.8,2 46.3,16.7 m -25.6,-371.9 -0.3,-19.8 m -86.1,482.4 -34.3,46 m 15,-547.9 50.6,50.5 m -118.1,19 67.5,-69.5"
       id="plisV_003"
       stroke="#008000"
       stroke-dasharray="4, 1, 1, 1"
       style="stroke-width:1.26936" />
    <path
       d="m 1328.4,281.1 4,4 m 0,-4 -4,4 m 52.1,48.9 4,4 m 0,-4 -4,4 m -46.4,13 4,4 m 0,-4 -4,4 m 56.8,49.2 4,4 m 0,-4 -4,4 m -21.9,1.1 4,4 m 0,-4 -4,4 m -48.1,-4.9 4,4 m 0,-4 -4,4 m 28.6,112.7 4,4 m 0,-4 -4,4 m -56.7,-94.2 4,4 m 0,-4 -4,4 m -39.9,-3 4,4 m 0,-4 -4,4 m -2.7,-377.5 4,4 m 0,-4 -4,4 m -103.3,491.5 4,4 m 0,-4 -4,4 m 23.1,-503.6 4,4 m 0,-4 -4,4 m -59,5.5 4,4 m 0,-4 -4,4"
       id="marqueV_003"
       stroke="#008000" />
    <path
       d="m 1353.9,352.9 -0.7,-1.5 -2.3,-0.8 h -1.5 l -2.2,0.8 -1.5,2.2 -0.8,3.8 v 3.7 l 0.8,3 1.5,1.5 2.2,0.8 h 0.8 l 2.2,-0.8 1.5,-1.5 0.8,-2.2 v -0.8 l -0.8,-2.2 -1.5,-1.5 -2.2,-0.8 h -0.8 l -2.2,0.8 -1.5,1.5 -0.8,2.2"
       id="titre_6"
       stroke="#4b0082"
       style="stroke-width:1.26936" />
    <path
       d="m 1167.5,350.8 -7.5,15.7 m -3,-15.7 h 10.5"
       id="titre_7"
       stroke="#4b0082"
       style="stroke-width:1.26936" />
  </g>
</svg>
