<?xml version="1.0" encoding="UTF-8" standalone="no"?>
<svg
   height="297mm"
   viewBox="0 0 533 754"
   width="210mm"
   version="1.1"
   id="svg178"
   xmlns="http://www.w3.org/2000/svg"
   xmlns:svg="http://www.w3.org/2000/svg">
  <defs
     id="defs178" />
  <style
     type="text/css"
     id="style1"><![CDATA[
			path {
				fill: none;
			}
		]]></style>
  <g
     id="page_001"
     transform="translate(17.233724,26.189523)">
    <path
       d="M 8.2,468.3 99.2,319 101,183 38.1,69.1 221,7 l 9.7,92.5 90.5,103.7 21.8,175.2 -111.8,12.2 -28,-127.6 16.8,129.5 112.4,168 24.6,89.3 -99.2,34 L 200.6,583.1 254.2,548 163.4,494.2 199.7,573.1 146.2,694.7 36.9,660 79.6,538.9 Z M 340.5,559.2 287.1,431 346.4,383 344.9,161.6 229.6,62.9 418.8,23.6 l 71.7,118.9 -1.3,195.4 -84.7,-2.9 83.8,12.4 -34.5,183.4 -6.8,118.9 -66.5,4.2 z"
       id="coupes_001"
       stroke="#ff0000"
       stroke-width="1.27" />
    <path
       d="M 38.1,69.1 230.7,99.5 101,183 321.2,203.2 203.2,263 99.2,319 79.6,538.9 163.4,494.2 220,392.5 99.2,319 m 47,375.7 L 79.6,538.9 M 343,378.4 203.2,263 101,183 M 257.8,683.8 254.2,548 357,649.8 M 453.8,530.8 346.4,383 m -1.5,-221.4 59.6,173.4 -58.1,48 -5.9,176.2 m 78.3,-535.6 -73.9,138 145.6,-19.1 -86,192.5 49.3,195.8 -113.3,28.4 106.5,90.5"
       id="plisM_001"
       stroke="#a52a2a"
       stroke-dasharray="4" />
    <path
       d="m 132.4,82.3 4,4 m 0,-4 -4,4 m 31.4,52.9 4,4 m 0,-4 -4,4 m 45.3,47.9 4,4 m 0,-4 -4,4 m 51.1,36 4,4 m 0,-4 -4,4 M 150.1,221 l 4,4 m 0,-4 -4,4 m -0.9,64 4,4 m 0,-4 -4,4 m 8.4,60.7 4,4 m 0,-4 -4,4 m 32.1,83.6 4,4 m 0,-4 -4,4 m -70.2,69.2 4,4 m 0,-4 -4,4 M 87.4,427 l 4,4 m 0,-4 -4,4 m 23.5,183.8 4,4 m 0,-4 -4,4 m 160.2,-300.1 4,4 m 0,-4 -4,4 m 32.5,274.2 4,4 m 0,-4 -4,4 m -49.6,13 4,4 m 0,-4 -4,4 m 144.1,-163 4,4 m 0,-4 -4,4 M 373.5,357 l 4,4 m 0,-4 -4,4 m 53.7,69.9 4,4 m 0,-4 -4,4 m -32.1,108.1 4,4 m 0,-4 -4,4 m -53.7,-77.9 4,4 m 0,-4 -4,4 m 31.3,-226.8 4,4 m 0,-4 -4,4 m 43,-100.3 4,4 m 0,-4 -4,4 m 29.8,82.7 4,4 m 0,-4 -4,4 m -65.7,-150.1 4,4 m 0,-4 -4,4 m 11.9,507.8 4,4 m 0,-4 -4,4"
       display="none"
       id="marqueM_001"
       stroke="#a52a2a" />
    <path
       d="M 163.4,494.2 99.2,319 M 199.7,573.1 79.6,538.9 M 220,392.5 254.2,548 l 78.2,12.5"
       id="plisV_001"
       stroke="#008000"
       stroke-dasharray="4, 1, 1, 1"
       stroke-width="1.27" />
    <path
       d="m 129.3,404.6 4,4 m 0,-4 -4,4 m 8.4,145.4 4,4 m 0,-4 -4,4 m 97.4,-89.7 4,4 m 0,-4 -4,4 m 56.2,79.9 4,4 m 0,-4 -4,4"
       id="marqueV_001"
       stroke="#008000" />
    <g
       id="nums_001">
      <path
         d="m 215,59 -0.6,-0.7 -1.6,-0.9 10.5,-1.1 m -11.2,-2.3 0.6,1.1 1.6,0.5 2.5,0.2 1.5,-0.2 2.5,-0.6 1.4,-0.9 0.4,-1.2 -0.1,-0.8 -0.6,-1 -1.6,-0.6 -2.5,-0.1 -1.5,0.1 -2.5,0.7 -1.4,0.9 -0.4,1.1 0.1,0.6"
         stroke="#000000"
         stroke-width="1"
         id="path1" />
      <path
         d="M 135.1,50.7 136,49.9 V 48.8 L 135.7,47.9 135,47 134.2,46.8 h -1.6 l -1.2,-0.1 -1.1,-0.7 -0.7,-0.8 -0.4,-1.5 v -1 l 0.2,-0.6 0.9,-0.9 1.4,-0.4 1.2,0.1 0.6,0.3 0.6,0.9 0.5,1.4 v 1 l -0.4,1.2 -0.9,0.9 -1.3,0.9 -0.5,0.7 -0.1,1.1 0.4,1 0.6,0.8 1.3,0.1 1.6,-0.6"
         stroke="#000000"
         stroke-width="1"
         id="path2" />
      <path
         d="m 77.3,116.5 0.8,0.4 1.9,0.3 -9.2,5 m 11,-2.5 -1,-0.8 -1.1,0.2 -0.9,0.5 -0.7,0.8 v 0.9 l 0.3,1.5 0.1,1.3 -0.5,1.1 -0.7,0.8 -1.4,0.7 -1,0.2 -0.6,-0.1 -1,-0.7 -0.7,-1.4 -0.1,-1.2 0.2,-0.6 0.7,-0.8 1.3,-0.7 1.1,-0.1 1.2,0.1 1,0.8 1.2,1 0.8,0.5 1,-0.2 0.9,-0.5 0.7,-0.8 -0.1,-1.2 -0.8,-1.5"
         stroke="#000000"
         stroke-width="1"
         id="path3" />
      <path
         d="m 270.3,162.2 -0.9,-0.3 -1.9,0.2 7.9,-6.9 m -9.5,0.2 1.4,-0.7 1.2,-0.1 1.1,0.6 0.3,0.2 0.4,1.2 -0.3,1.2 -0.9,1.3 -0.4,0.3 -1.3,0.7 -1.3,0.1 -1.1,-0.5 -0.2,-0.3 -0.4,-1.1 0.2,-1.3 1.3,-1.6 1.9,-1.6 2.1,-1.4 1.6,-0.4 1.2,0.5 0.5,0.6 0.3,1.2 -0.5,0.9"
         stroke="#000000"
         stroke-width="1"
         id="path4" />
      <path
         d="m 113.9,245.5 v 4.1 l -4,-2.3 v 1.2 l -0.5,0.7 -0.5,0.4 -1.5,0.3 h -1 l -1.5,-0.4 -1,-0.7 -0.5,-1.2 v -1.1 l 0.5,-1.1 0.5,-0.4 1,-0.4 m 5.9,7.2 h 0.5 l 1,0.4 0.5,0.4 0.5,0.7 v 1.5 l -0.5,0.8 -0.5,0.3 -1,0.4 h -1 l -1,-0.4 -1.5,-0.8 -5,-3.8 v 5.3"
         stroke="#000000"
         stroke-width="1"
         id="path5" />
      <path
         d="m 198.7,334.9 -0.5,-4 4.2,1.7 -0.1,-1.1 0.4,-0.9 0.4,-0.4 1.5,-0.6 1,-0.1 1.5,0.2 1.1,0.6 0.6,1.1 0.2,1.1 -0.4,1.2 -0.4,0.4 -1,0.5 m -9.3,-6 -0.5,-4.1 4.2,1.7 -0.1,-1.1 0.4,-0.8 0.4,-0.4 1.5,-0.6 1,-0.1 1.5,0.2 1.1,0.6 0.6,1 0.2,1.1 -0.4,1.2 -0.4,0.5 -1,0.5"
         stroke="#000000"
         stroke-width="1"
         id="path6" />
      <path
         d="m 173.8,543.7 -0.5,0.2 -1,0.1 -0.6,-0.2 -0.8,-0.5 -0.6,-1.3 0.1,-0.9 0.3,-0.6 0.8,-0.7 0.9,-0.4 1,-0.1 h 1.7 l 6.1,1.4 -2.2,-4.8 m -11.9,-0.8 1.6,3.5 4.2,-1.6 -0.6,-0.1 -0.9,-0.8 -0.5,-1.1 v -1.2 l 0.6,-1.1 1.2,-0.9 0.9,-0.5 1.6,-0.3 1.2,0.3 0.9,0.8 0.5,1 v 1.3 l -0.3,0.5 -0.8,0.8"
         stroke="#000000"
         stroke-width="1"
         id="path7" />
      <path
         d="m 160.3,634.7 -0.4,-0.2 -0.8,-0.7 -0.3,-0.6 -0.2,-0.8 0.6,-1.4 0.8,-0.5 0.6,-0.1 h 1.1 l 0.9,0.4 0.7,0.8 1.1,1.2 3.1,5.5 2.1,-4.8 m -8.4,-7 v 1.2 l 0.8,0.7 0.9,0.4 1.1,0.1 0.7,-0.5 1.1,-1.2 0.9,-0.8 1.2,-0.3 1.1,0.1 1.4,0.6 0.7,0.7 0.3,0.6 v 1.2 l -0.6,1.4 -0.9,0.8 -0.6,0.2 -1.1,-0.1 -1.3,-0.6 -0.8,-0.8 -0.6,-1 v -1.3 l 0.1,-1.5 -0.1,-0.9 -0.8,-0.8 -0.9,-0.4 h -1.1 l -0.9,0.8 -0.7,1.5"
         stroke="#000000"
         stroke-width="1"
         id="path8" />
      <path
         d="m 89.4,664.9 0.1,-0.5 0.7,-0.9 0.5,-0.3 0.9,-0.3 1.4,0.5 0.6,0.7 0.2,0.6 v 1 l -0.3,1 -0.6,0.8 -1.2,1.2 -5.1,3.7 5,1.6 m 7.9,-4.9 -0.8,1.3 -1,0.8 -1.3,0.1 -0.3,-0.1 -0.9,-0.8 -0.4,-1.2 0.1,-1.6 0.1,-0.4 0.8,-1.4 1,-0.7 1.3,-0.1 0.3,0.1 0.9,0.8 0.4,1.2 -0.2,2 -0.8,2.4 -1.1,2.3 -1.1,1.2 -1.3,0.1 -0.7,-0.2 -0.9,-0.8 -0.1,-1.1"
         stroke="#000000"
         stroke-width="1"
         id="path9" />
      <path
         d="m 73.1,598.8 -1.4,3.9 -3,-3.4 -0.4,1 -0.7,0.6 -0.6,0.2 -1.6,-0.2 -0.9,-0.3 -1.3,-0.9 -0.7,-1 -0.1,-1.2 0.4,-1.1 0.8,-0.9 0.6,-0.2 h 1.1 m 5.1,11 -0.1,-1.2 -1.1,-1.2 -2.3,-1.2 -1.4,-0.5 -2.5,-0.5 -1.6,0.2 -0.9,0.9 -0.2,0.7 0.1,1.3 1.1,1.2 2.3,1.2 1.4,0.5 2.5,0.4 1.6,-0.2 0.9,-0.9 0.2,-0.5"
         stroke="#000000"
         stroke-width="1"
         id="path10" />
      <path
         d="m 318.6,293.6 10.8,2.4 m -10.2,2.8 -0.6,-5.2 m -0.5,-3.4 0.7,1 1.6,0.6 2.5,0.1 1.5,-0.2 2.4,-0.7 1.4,-0.9 0.4,-1.2 -0.1,-0.7 -0.7,-1.1 -1.6,-0.6 h -2.5 l -1.5,0.2 -2.4,0.6 -1.4,1 -0.4,1.1 0.1,0.6"
         stroke="#000000"
         stroke-width="1"
         id="path11" />
      <path
         d="m 284.5,370.9 -2.6,10.9 m -2.6,-10.3 5.2,-0.6 m 1.9,-0.2 4.1,-0.4 -1.8,4.2 1.1,-0.1 0.8,0.4 0.4,0.5 0.6,1.4 0.1,1 -0.2,1.5 -0.7,1.1 -1,0.6 -1.1,0.1 -1.2,-0.3 -0.4,-0.5 -0.5,-0.9"
         stroke="#000000"
         stroke-width="1"
         id="path12" />
      <path
         d="m 229.5,318.4 0.8,4.1 -4.3,-1.4 0.2,1.1 -0.3,0.9 -0.4,0.4 -1.4,0.7 -1,0.2 h -1.5 l -1.2,-0.5 -0.7,-1 -0.3,-1.1 0.3,-1.2 0.4,-0.5 0.9,-0.6 m 9.8,5.2 0.9,4 -4.4,-1.3 0.3,1.1 -0.4,0.8 -0.4,0.5 -1.4,0.7 -0.9,0.2 -1.6,-0.1 -1.1,-0.5 -0.7,-1 -0.3,-1.1 0.3,-1.2 0.4,-0.4 0.9,-0.6"
         stroke="#000000"
         stroke-width="1"
         id="path13" />
      <path
         d="m 212.1,507 -1.2,-0.1 -0.9,0.7 -0.5,0.8 -0.2,1.1 0.4,0.8 1.1,1.2 0.7,1 0.1,1.2 -0.2,1.1 -0.8,1.3 -0.8,0.6 -0.6,0.3 -1.2,-0.2 -1.3,-0.7 -0.7,-1 -0.1,-0.7 0.2,-1 0.8,-1.3 0.8,-0.7 1.2,-0.4 1.2,0.1 1.6,0.3 h 0.9 l 0.8,-0.7 0.5,-0.8 0.2,-1.1 -0.7,-1 -1.5,-0.9 m 2.8,4.4 h 0.9 l 1.7,-0.7 -5.3,9"
         stroke="#000000"
         stroke-width="1"
         id="path14" />
      <path
         d="m 265.6,485.3 10.8,-2.8 m -7.9,7.1 -2.9,-4.3 m -3,-4.2 7.9,-0.8 -3.1,-4.7 m -4.8,5.5 8.8,-5.9"
         stroke="#000000"
         stroke-width="1"
         id="path15" />
      <path
         d="m 331.7,609.8 11.1,0.8 m -9.7,4.2 -1.4,-5 m -1.6,-6.1 11.1,0.9 m -9.7,4.2 -1.4,-5.1"
         stroke="#000000"
         stroke-width="1"
         id="path16" />
      <path
         d="m 302.2,655.7 -0.7,-0.9 -1.2,-0.1 -0.8,0.3 -0.9,0.8 -0.2,1.7 0.5,2.5 0.8,2.3 1,1.8 1,0.7 1.2,0.1 0.4,-0.1 0.9,-0.9 0.4,-1.1 -0.1,-1.6 -0.2,-0.5 -0.8,-1.3 -1.1,-0.7 -1.2,-0.1 -0.4,0.2 -0.9,0.8 -0.4,1.2 0.2,1.5 m 8.2,-8.6 -0.7,-0.8 -1.2,-0.1 -0.7,0.2 -0.9,0.8 -0.2,1.7 0.4,2.5 0.8,2.4 1,1.7 1,0.7 1.3,0.1 0.3,-0.1 0.9,-0.8 0.4,-1.2 -0.1,-1.5 -0.2,-0.5 -0.8,-1.3 -1,-0.7 -1.3,-0.1 -0.3,0.1 -0.9,0.8 -0.4,1.2 0.1,1.6"
         stroke="#000000"
         stroke-width="1"
         id="path17" />
      <path
         d="m 235.7,574.8 0.8,0.6 1.3,-0.2 0.6,-0.4 0.7,-1 -0.2,-1.7 -1.1,-2.3 -1.4,-2.1 -1.4,-1.4 -1.2,-0.4 -1.2,0.2 -0.3,0.2 -0.6,1 -0.1,1.2 0.5,1.5 0.3,0.4 1.1,1.1 1.2,0.4 1.2,-0.2 0.3,-0.2 0.7,-1 v -1.3 l -0.5,-1.5 m -4.4,11.5 -0.7,-7.9 -4.7,3 m 5.4,4.9 -5.8,-8.8"
         stroke="#000000"
         stroke-width="1"
         id="path18" />
      <path
         d="m 239,625.9 0.7,-0.8 -0.1,-1.2 -0.4,-0.7 -0.9,-0.7 -1.7,0.1 -2.4,0.9 -2.2,1.2 -1.5,1.3 -0.5,1.2 0.1,1.2 0.2,0.3 1,0.8 1.2,0.1 1.5,-0.4 0.5,-0.2 1.1,-1.1 0.5,-1.1 -0.2,-1.3 -0.1,-0.3 -1,-0.7 -1.3,-0.2 -1.5,0.4 m 7.3,3.6 0.4,-0.2 1.1,-0.2 0.6,0.1 0.8,0.4 0.7,1.3 v 0.9 l -0.3,0.6 -0.7,0.8 -0.8,0.5 -1.1,0.2 -1.7,0.1 -6.2,-0.8 2.6,4.5"
         stroke="#000000"
         stroke-width="1"
         id="path19" />
      <path
         d="m 52.8,493.1 -10.1,4.8 m 6.3,-8.5 3.8,3.7 m 2.2,2.1 -1.2,-0.4 -1,0.4 -0.7,0.8 -0.4,0.9 0.2,0.9 0.7,1.4 0.4,1.2 -0.1,1.2 -0.5,1 -1,1.1 -1,0.4 -0.6,0.1 -1.2,-0.4 -1,-1.1 -0.5,-1.1 0.1,-0.7 0.4,-0.9 1.1,-1.1 1,-0.5 1.2,-0.1 1.2,0.4 1.4,0.7 0.9,0.2 0.9,-0.5 0.7,-0.7 0.5,-1 -0.5,-1.1 -1.2,-1.2"
         stroke="#000000"
         stroke-width="1"
         id="path20" />
      <path
         d="m 66,400 -7.1,-8.7 m 9.8,4.2 -2.7,4.5 m -2.6,-0.3 v 0.9 l 0.7,1.7 -8.9,-5.5"
         stroke="#000000"
         stroke-width="1"
         id="path21" />
      <path
         d="m 356.9,269.7 h 0.5 l 1,0.4 0.5,0.3 0.5,0.8 v 1.5 l -0.5,0.7 -0.5,0.4 -1,0.4 h -1 l -1,-0.4 -1.5,-0.7 -5,-3.7 v 5.2"
         stroke="#000000"
         stroke-width="1"
         id="path22" />
      <path
         d="m 445.2,354.9 1.2,-0.3 0.9,-1.4 0.8,-2.4 0.2,-1.5 v -2.5 l -0.5,-1.6 -1.1,-0.7 -0.7,-0.1 -1.2,0.4 -1,1.3 -0.7,2.4 -0.2,1.5 v 2.6 l 0.5,1.5 1,0.7 0.6,0.1"
         stroke="#000000"
         stroke-width="1"
         id="path23" />
      <path
         d="m 459.6,438.4 -0.4,-0.8 -1.2,-1.4 10.3,1.9"
         stroke="#000000"
         stroke-width="1"
         id="path24" />
      <path
         d="m 322.5,486.3 0.7,0.5 1.9,0.5 -9.7,4 m 8.4,-1.5 0.4,-0.2 h 1.1 l 0.6,0.1 0.8,0.5 0.5,1.4 -0.1,0.9 -0.4,0.5 -0.7,0.8 -1,0.4 h -1 l -1.7,-0.1 -6.1,-1.6 2.1,4.9"
         stroke="#000000"
         stroke-width="1"
         id="path25" />
      <path
         d="m 327.5,413 -0.3,0.8 0.1,1.9 -6.6,-8.1 m 5.3,9.6 -3.2,2.6 -0.7,-4.5 -0.9,0.7 h -0.9 l -0.6,-0.1 -1.2,-0.9 -0.7,-0.8 -0.6,-1.4 -0.1,-1.3 0.6,-1.1 0.9,-0.7 1.1,-0.3 0.7,0.2 0.9,0.5"
         stroke="#000000"
         stroke-width="1"
         id="path26" />
      <path
         d="m 442.5,89.7 7.9,-0.4 -2.9,-4.9 m -5,5.3 8.9,-5.5"
         stroke="#000000"
         stroke-width="1"
         id="path27" />
      <path
         d="m 328.1,56.5 1,-0.7 0.2,-1.1 -0.2,-1 -0.6,-0.9 -0.8,-0.3 -1.6,-0.2 -1.2,-0.2 -0.9,-0.9 -0.6,-0.9 -0.3,-1.4 0.2,-1.1 0.2,-0.6 1,-0.7 1.5,-0.3 1.2,0.3 0.5,0.4 0.5,0.9 0.3,1.5 -0.1,1 -0.6,1.2 -1,0.7 -1.3,0.8 -0.7,0.6 -0.1,1.1 0.2,0.9 0.6,0.9 1.2,0.3 1.6,-0.3"
         stroke="#000000"
         stroke-width="1"
         id="path28" />
      <path
         d="m 295.5,105.8 -1.3,0.9 -1.2,0.2 -1.2,-0.3 -0.3,-0.2 -0.5,-1.2 0.1,-1.2 0.7,-1.4 0.3,-0.4 1.2,-0.9 1.3,-0.2 1.1,0.3 0.3,0.3 0.6,1.1 -0.1,1.2 -1,1.8 -1.7,1.9 -1.9,1.6 -1.5,0.7 -1.2,-0.4 -0.6,-0.5 -0.5,-1.1 0.4,-1"
         stroke="#000000"
         stroke-width="1"
         id="path29" />
      <path
         d="m 476.1,242.4 v -4.1 l 4,2.2 v -1.1 l 0.5,-0.7 0.5,-0.4 1.5,-0.4 h 1 l 1.5,0.4 1,0.8 0.5,1.1 v 1.1 l -0.5,1.2 -0.5,0.3 -1,0.4"
         stroke="#000000"
         stroke-width="1"
         id="path30" />
      <path
         d="m 446.5,322.7 -1.1,0.4 -0.8,1.5 -0.5,2.5 v 1.5 l 0.3,2.5 0.7,1.5 1.1,0.6 h 0.7 l 1.2,-0.5 0.8,-1.5 0.4,-2.4 0.1,-1.5 -0.3,-2.5 -0.7,-1.6 -1.1,-0.5 h -0.6"
         stroke="#000000"
         stroke-width="1"
         id="path31" />
      <path
         d="m 436.4,592.3 6.8,4.2 0.3,-5.6 m -7.1,1.4 10.5,0.6 m -10.1,-5.9 0.4,1.2 1.5,0.8 2.5,0.5 1.5,0.1 2.5,-0.2 1.5,-0.7 0.6,-1.1 v -0.7 l -0.4,-1.2 -1.5,-0.8 -2.4,-0.5 -1.5,-0.1 -2.5,0.2 -1.6,0.7 -0.6,1.1 v 0.5"
         stroke="#000000"
         stroke-width="1"
         id="path32" />
      <path
         d="m 411.1,638.2 -3.7,0.2 -0.1,4.5 0.3,-0.5 1.1,-0.5 1.1,-0.1 1.2,0.4 0.8,1 0.5,1.4 v 1 l -0.2,1.5 -0.7,1.1 -1.1,0.6 h -1.1 l -1.2,-0.4 -0.4,-0.5 -0.4,-0.9 m 6.6,-9 4.1,-0.2 -2,4.1 1.1,-0.1 0.8,0.5 0.4,0.4 0.5,1.5 v 1 l -0.2,1.5 -0.7,1.1 -1.1,0.6 h -1.1 l -1.2,-0.4 -0.4,-0.5 -0.4,-0.9"
         stroke="#000000"
         stroke-width="1"
         id="path33" />
      <path
         d="m 372.8,600.3 -11.2,0.6 m 9.1,-5.4 2.1,4.8 m -0.9,6.9 -1.5,0.3 -1.2,-0.3 -0.9,-0.9 -0.2,-0.3 v -1.2 l 0.7,-1.1 1.2,-0.9 0.5,-0.2 1.5,-0.3 1.2,0.3 0.9,0.9 0.1,0.3 v 1.2 l -0.6,1.1 -1.7,1.1 -2.3,1 -2.5,0.6 -1.6,-0.1 -0.9,-0.8 -0.3,-0.7 V 606 l 0.8,-0.8"
         stroke="#000000"
         stroke-width="1"
         id="path34" />
    </g>
    <path
       d="m 159,393 1.2,-0.7 1.7,-2.3 v 15.8"
       id="titre_1"
       stroke="#4b0082"
       style="stroke-width:2.53872" />
    <path
       d="m 398,407.7 v -0.8 l 0.6,-1.5 0.6,-0.7 1.1,-0.8 h 2.2 l 1.2,0.8 0.5,0.7 0.6,1.5 v 1.5 l -0.6,1.5 -1.1,2.3 -5.6,7.5 h 7.8"
       id="titre_2"
       stroke="#4b0082"
       style="stroke-width:2.53872" />
  </g>
  <g
     id="page_002"
     transform="translate(17.744241,42.88274)">
    <path
       d="m 626.4,383.3 -77.2,-101.1 55,-55.3 -52.2,15.1 -3.4,-120.9 53.3,-39 83.9,-69.3 95,85.1 52.8,38.3 -39.7,53.9 -75.7,-1.1 -22.2,78.9 52,-63.4 69.1,30.9 49,-45.7 42.3,-110.3 117.8,14 7.9,94.7 -45.1,30.3 -64.2,-44.3 84,95.5 26.3,51.4 -51,87.7 L 900.5,311.3 776.9,346 684,386.7 Z m 197.2,251.9 -33.3,-69 6.9,76.3 -201.8,10.5 35.1,-106.8 -23.5,-70.1 115.3,-15.4 64.3,-99.6 111.1,-32.8 11.1,99.5 9.5,108.8 107.6,19.1 -6.1,99.9 -104.6,-6.3 z"
       id="coupes_002"
       stroke="#ff0000"
       stroke-width="1.27" />
    <path
       d="M 776.9,346 696,267.9 601.9,82.1 718.2,189 685.8,12.8 793.9,190.1 780.8,97.9 M 748,204.5 776.9,346 l 40.2,-110.6 83.4,75.9 134.6,9.7 m -408.7,62.3 -22.2,-156.4 91.8,41 -12,118.8 m 182.1,-197 34.4,121.6 108.3,-41.7 m -108.3,41.7 24.3,-137.2 -16.4,-94.7 125.7,108.7 -109.3,-14 m -16,253.7 -186.5,32.9 m 64.3,-99.6 122.2,66.7 m 9.5,108.8 -196,-75.9 m 196,75.9 -128,29.6 m 0,0 -68,-105.5 M 915.2,649.3 790.3,566.2 m 128,-29.6 -3.1,112.7 m -124.9,-83.1 -159.8,-20 m 159.8,20 -194.9,86.8 m 322.9,-116.4 101.5,119"
       id="plisM_002"
       stroke="#a52a2a"
       stroke-dasharray="4" />
    <path
       d="m 734.4,304.9 4,4 m 0,-4 -4,4 m 26,-35.7 4,4 m 0,-4 -4,4 m -72.4,48.1 4,4 m 0,-4 -4,4 m 107,-40.6 4,4 m 0,-4 -4,4 m 61.8,-21.4 4,4 m 0,-4 -4,4 m -243.5,27.8 4,4 m 0,-4 -4,4 m 34.8,-61.7 4,4 m 0,-4 -4,4 m 233.2,-0.9 4,4 m 0,-4 -4,4 m 29.3,-11.8 4,4 m 0,-4 -4,4 M 647,173 l 4,4 m 0,-4 -4,4 m 11.1,-43.5 4,4 m 0,-4 -4,4 m 41.9,-38.6 4,4 m 0,-4 -4,4 m 37.8,-3.4 4,4 m 0,-4 -4,4 m 47.5,38.5 4,4 m 0,-4 -4,4 m 129.3,-21.3 4,4 m 0,-4 -4,4 m 54.7,3.1 4,4 m 0,-4 -4,4 m 8.1,43.3 4,4 m 0,-4 -4,4 m -24.8,105.3 4,4 m 0,-4 -4,4 m 13.2,21.7 4,4 m 0,-4 -4,4 m -152.2,124.2 4,4 m 0,-4 -4,4 m 32.1,-53.8 4,4 m 0,-4 -4,4 m -27.4,100.2 4,4 m 0,-4 -4,4 m 34,48.7 4,4 m 0,-4 -4,4 m -98,-41.9 4,4 m 0,-4 -4,4 m 96.4,90.2 4,4 m 0,-4 -4,4 m 64.1,-18.7 4,4 m 0,-4 -4,4 m -206.4,-40.8 4,4 m 0,-4 -4,4 m -17.6,49.4 4,4 m 0,-4 -4,4 m 276.3,-17.5 4,4 m 0,-4 -4,4"
       display="none"
       id="marqueM_002"
       stroke="#a52a2a" />
    <path
       d="M 626.4,383.3 696,267.9 m 170.1,-78.2 58.7,-15.6 M 604.2,226.9 601.9,82.1 552,242 m 78.5,304.2 91.8,-85.5"
       id="plisV_002"
       stroke="#008000"
       stroke-dasharray="4, 1, 1, 1"
       stroke-width="1.27" />
    <path
       d="m 659.2,323.6 4,4 m 0,-4 -4,4 m 234.3,-147.7 4,4 m 0,-4 -4,4 M 601,152.5 l 4,4 m 0,-4 -4,4 m -26.1,3.5 4,4 m 0,-4 -4,4 m 99.5,337.5 4,4 m 0,-4 -4,4"
       id="marqueV_002"
       stroke="#008000" />
    <g
       id="nums_002">
      <path
         d="m 736.3,240.4 -2.6,3.2 -1.7,-4.2 -0.7,0.8 -0.9,0.3 h -0.6 l -1.4,-0.7 -0.7,-0.6 -1,-1.3 -0.3,-1.2 0.4,-1.2 0.7,-0.8 1.1,-0.6 h 0.6 l 1,0.4 m 0.1,13.4 -3.1,-7.3 -3.5,4.4 m 6.6,2.9 -8.1,-6.6"
         stroke="#000000"
         stroke-width="1"
         id="path35" />
      <path
         d="m 719.9,356 3.8,-1.7 -0.5,4.6 1,-0.5 0.9,0.2 0.6,0.3 0.9,1.2 0.4,0.9 0.3,1.6 -0.3,1.2 -0.8,0.9 -1.1,0.4 h -1.2 l -0.5,-0.3 -0.8,-0.7 m 6.6,-12.2 -3.4,1.5 1.4,4.3 0.2,-0.6 0.8,-1 1,-0.4 h 1.2 l 1.1,0.6 1,1.2 0.4,1 0.2,1.5 -0.2,1.2 -0.9,0.9 -1,0.5 h -1.2 l -0.6,-0.4 -0.7,-0.7"
         stroke="#000000"
         stroke-width="1"
         id="path36" />
      <path
         d="m 782,234.7 -3.8,-1.6 3.7,-2.8 -1,-0.4 -0.5,-0.8 -0.1,-0.6 0.2,-1.5 0.4,-0.9 1,-1.3 1.1,-0.6 h 1.2 l 1,0.5 0.9,0.9 0.1,0.6 -0.1,1.1 m -13.9,3.1 7.7,-8.1 m -2.9,10.2 -4.8,-2.1"
         stroke="#000000"
         stroke-width="1"
         id="path37" />
      <path
         d="m 653.2,371 -4.2,6.8 5.6,0.3 m -1.4,-7.1 -0.7,10.5 m 7.6,-10.1 -4.1,6.8 5.6,0.3 m -1.5,-7.1 -0.6,10.5"
         stroke="#000000"
         stroke-width="1"
         id="path38" />
      <path
         d="m 829.7,316.9 3.9,-1.1 -1.1,4.4 1.1,-0.3 0.9,0.3 0.5,0.4 0.8,1.3 0.2,1 0.1,1.5 -0.5,1.2 -0.9,0.8 -1.1,0.3 -1.2,-0.2 -0.5,-0.4 -0.7,-0.8 m 8.7,-9.7 -0.7,-0.9 -1.2,-0.2 -0.7,0.2 -0.9,0.8 -0.4,1.7 0.4,2.5 0.6,2.4 0.9,1.8 1,0.8 1.2,0.1 0.4,-0.1 1,-0.8 0.4,-1.1 v -1.6 l -0.2,-0.4 -0.7,-1.4 -1,-0.7 -1.3,-0.2 -0.3,0.1 -1,0.8 -0.4,1.1 v 1.6"
         stroke="#000000"
         stroke-width="1"
         id="path39" />
      <path
         d="m 853.2,220.7 -2,-7.7 -4.2,3.9 m 6.2,3.8 -7.2,-7.7 m 4.4,10.2 -3.1,2.8 -1,-4.4 -0.9,0.7 -0.9,0.2 -0.6,-0.1 -1.3,-0.9 -0.6,-0.7 -0.8,-1.3 -0.1,-1.3 0.5,-1.1 0.8,-0.8 1.1,-0.4 0.7,0.1 0.9,0.5"
         stroke="#000000"
         stroke-width="1"
         id="path40" />
      <path
         d="m 597,322.1 -7.8,1.2 3.4,4.5 m 4.4,-5.7 -8.3,6.3 m 11.3,-2.3 -1.1,-0.6 -1,0.3 -0.8,0.6 -0.6,0.9 0.1,0.9 0.5,1.5 0.3,1.2 -0.4,1.2 -0.6,0.9 -1.1,0.9 -1.1,0.3 h -0.6 l -1.1,-0.6 -0.9,-1.2 -0.3,-1.2 0.2,-0.6 0.6,-0.9 1.2,-0.9 1,-0.3 h 1.2 l 1.1,0.6 1.3,0.9 0.9,0.3 1,-0.3 0.8,-0.7 0.6,-0.9 -0.3,-1.2 -1.1,-1.3"
         stroke="#000000"
         stroke-width="1"
         id="path41" />
      <path
         d="m 588.5,262.3 -2.3,-7.6 -4,4 m 6.3,3.6 -7.4,-7.4 m -0.7,10.5 -0.8,-1.3 -0.2,-1.3 0.4,-1.1 0.3,-0.3 1.1,-0.4 1.3,0.1 1.3,0.8 0.4,0.4 0.8,1.3 0.1,1.2 -0.4,1.2 -0.3,0.3 -1.1,0.4 -1.3,-0.2 -1.6,-1.1 -1.8,-1.8 -1.5,-2 -0.6,-1.6 0.5,-1.1 0.5,-0.6 1.2,-0.4 0.9,0.4"
         stroke="#000000"
         stroke-width="1"
         id="path42" />
      <path
         d="m 572.5,221.7 -3.6,1.1 0.9,4.4 0.3,-0.6 0.9,-0.8 1.1,-0.3 1.2,0.2 1,0.7 0.8,1.4 0.2,0.9 0.1,1.6 -0.4,1.1 -1,0.8 -1.1,0.3 -1.2,-0.1 -0.5,-0.4 -0.6,-0.9 m 6,-10.5 -1,0.8 -0.3,1.6 0.4,2.5 0.4,1.5 1,2.3 1.2,1.2 1.2,0.2 0.7,-0.3 0.9,-0.7 0.3,-1.7 -0.3,-2.5 -0.4,-1.4 -1.1,-2.3 -1.1,-1.3 -1.2,-0.1 -0.6,0.1"
         stroke="#000000"
         stroke-width="1"
         id="path43" />
      <path
         d="m 692.3,230.3 1.1,-4 3.2,3.3 0.4,-1.1 0.6,-0.6 0.6,-0.2 h 1.6 l 0.9,0.3 1.4,0.8 0.7,1 0.2,1.2 -0.3,1.1 -0.8,0.9 -0.6,0.2 -1,0.1 m -5.5,-12.3 5.7,5.5 1.5,-5.4 m -7.2,-0.1 10.1,2.8"
         stroke="#000000"
         stroke-width="1"
         id="path44" />
      <path
         d="m 656.9,54.5 -3.2,2.7 -0.8,-4.6 -0.9,0.8 -0.9,0.1 -0.6,-0.2 -1.2,-0.9 -0.7,-0.8 -0.6,-1.4 -0.1,-1.2 0.5,-1.1 0.9,-0.7 1.2,-0.4 0.6,0.2 0.9,0.5 m -1,11.9 0.6,-1.1 -0.4,-1.1 -0.6,-0.7 -0.9,-0.6 -0.9,0.1 -1.5,0.6 -1.2,0.3 -1.2,-0.3 -0.9,-0.5 -1,-1.1 -0.3,-1.1 -0.1,-0.6 0.6,-1.1 1.2,-0.9 1.1,-0.4 0.6,0.2 1,0.5 0.9,1.2 0.4,1 V 55 l -0.5,1.1 -0.9,1.4 -0.2,0.8 0.3,1 0.7,0.8 0.9,0.5 1.2,-0.3 1.3,-1.1"
         stroke="#000000"
         stroke-width="1"
         id="path45" />
      <path
         d="m 750.8,175.7 4.1,0.1 -2.3,4 h 1.1 l 0.7,0.5 0.4,0.5 0.4,1.5 -0.1,1 -0.4,1.5 -0.7,1 -1.2,0.5 h -1.1 l -1.1,-0.6 -0.4,-0.5 -0.3,-1 m 11.6,-8.3 -3.9,10.4 m -1.3,-10.5 5.2,0.1"
         stroke="#000000"
         stroke-width="1"
         id="path46" />
      <path
         d="m 728.2,69.3 -3.1,-2.8 4.4,-1.4 -0.9,-0.8 -0.2,-0.9 0.1,-0.6 0.7,-1.4 0.7,-0.7 1.2,-0.9 1.3,-0.2 1.1,0.4 0.9,0.7 0.5,1.1 -0.1,0.7 -0.4,1 m -11.7,-3.9 1.2,-0.8 1.3,-0.3 1.1,0.4 0.3,0.3 0.5,1.1 -0.1,1.2 -0.7,1.4 -0.3,0.4 -1.3,0.8 -1.2,0.3 -1.2,-0.4 -0.3,-0.3 -0.5,-1.1 0.1,-1.2 1.1,-1.8 1.6,-1.8 2,-1.6 1.5,-0.7 1.2,0.4 0.6,0.5 0.5,1.1 -0.4,1"
         stroke="#000000"
         stroke-width="1"
         id="path47" />
      <path
         d="m 562.6,182.9 1,-0.4 0.4,-1.2 v -0.7 l -0.5,-1.1 -1.5,-0.7 -2.5,-0.3 H 557 l -2,0.5 -1,0.7 -0.5,1.2 v 0.4 l 0.6,1.1 1,0.7 1.5,0.3 h 0.5 l 1.5,-0.4 1,-0.8 0.4,-1.1 v -0.4 l -0.5,-1.1 -1,-0.7 -1.5,-0.4"
         stroke="#000000"
         stroke-width="1"
         id="path48" />
      <path
         d="m 582.2,113.6 3.1,-2.3 -2.4,-3.8 v 0.6 l -0.6,1.1 -0.9,0.7 -1.2,0.2 -1.2,-0.3 -1.2,-1 -0.6,-0.8 -0.6,-1.5 v -1.2 l 0.6,-1.1 0.9,-0.7 1.2,-0.2 0.6,0.2 0.9,0.5"
         stroke="#000000"
         stroke-width="1"
         id="path49" />
      <path
         d="m 899,136 0.2,0.9 1,1.5 -9.8,-3.7 m 7.5,4 0.2,0.9 1,1.6 -9.8,-3.8"
         stroke="#000000"
         stroke-width="1"
         id="path50" />
      <path
         d="m 972,98.3 -0.1,0.5 -0.5,0.9 -0.4,0.5 -0.8,0.4 -1.5,-0.2 -0.7,-0.6 -0.3,-0.5 -0.2,-1 0.1,-1 0.5,-1 0.9,-1.4 4.3,-4.5 -5.2,-0.6 m -6.3,9.9 4.5,-6.5 -5.6,-0.7 m 1.1,7.2 1.2,-10.4"
         stroke="#000000"
         stroke-width="1"
         id="path51" />
      <path
         d="m 1019.2,146.2 -0.6,-0.7 -1.6,-1 10.5,-0.9 m -11.4,-5.3 10.8,2.9 m -10.3,2.3 -0.5,-5.2"
         stroke="#000000"
         stroke-width="1"
         id="path52" />
      <path
         d="m 958.3,233.1 7.7,-1.8 -3.7,-4.2 m -4,6 7.9,-6.9 m -11.1,3.1 1.1,0.6 1,-0.4 0.8,-0.7 0.5,-0.9 -0.1,-0.9 -0.6,-1.5 -0.4,-1.1 0.2,-1.3 0.6,-0.9 1.1,-1 1,-0.4 h 0.6 l 1.1,0.5 1,1.1 0.4,1.2 -0.2,0.6 -0.5,0.9 -1.1,1 -1,0.4 -1.2,0.1 -1.1,-0.5 -1.4,-0.8 -0.9,-0.2 -1,0.3 -0.7,0.7 -0.5,0.9 0.3,1.2 1.1,1.3"
         stroke="#000000"
         stroke-width="1"
         id="path53" />
      <path
         d="m 1010.9,304.2 8,0.1 -2.6,-5 m -5.4,4.9 9.4,-4.8 m -12.6,-1.5 8,0.2 -2.6,-5 m -5.4,4.8 9.4,-4.7"
         stroke="#000000"
         stroke-width="1"
         id="path54" />
      <path
         d="m 949.1,346.8 2.7,3.2 -4.5,0.9 0.8,0.8 0.1,0.9 -0.2,0.6 -0.9,1.3 -0.7,0.6 -1.4,0.7 -1.2,0.1 -1.2,-0.5 -0.7,-0.9 -0.3,-1.2 0.1,-0.6 0.5,-0.9 m 12.4,3.7 0.6,-0.9 -0.4,-1.2 -0.5,-0.5 -1.1,-0.6 -1.6,0.4 -2.2,1.4 -1.9,1.6 -1.2,1.6 -0.3,1.2 0.4,1.2 0.2,0.3 1.1,0.5 1.3,-0.1 1.3,-0.7 0.4,-0.3 0.9,-1.3 0.3,-1.2 -0.4,-1.2 -0.2,-0.2 -1.1,-0.6 -1.3,0.1 -1.4,0.7"
         stroke="#000000"
         stroke-width="1"
         id="path55" />
      <path
         d="m 995,362.7 2,-3.6 2.4,4 0.5,-1 0.8,-0.4 0.7,-0.1 1.5,0.4 0.8,0.6 1.1,1 0.5,1.2 -0.1,1.2 -0.6,1 -1,0.7 -0.6,0.1 -1.1,-0.2 m -1.8,-13.7 -1.9,3.2 3.7,2.6 -0.3,-0.6 0.2,-1.2 0.5,-0.9 1,-0.8 1.3,-0.1 1.5,0.4 0.8,0.5 1.1,1.1 0.5,1.1 -0.1,1.3 -0.6,0.9 -1,0.8 h -0.6 l -1,-0.1"
         stroke="#000000"
         stroke-width="1"
         id="path56" />
      <path
         d="m 801.4,130 7.1,-3.5 -4.5,-3.3 m -2.6,6.8 6.1,-8.5 m -7.6,4.2 -0.3,0.4 -0.9,0.6 -0.6,0.2 -0.9,-0.1 -1.2,-0.9 -0.3,-0.8 v -0.6 l 0.3,-1.1 0.5,-0.8 0.9,-0.5 1.5,-0.8 6,-1.9 -4.3,-3.1"
         stroke="#000000"
         stroke-width="1"
         id="path57" />
      <path
         d="m 800.9,157.3 3.4,7.1 3.3,-4.5 m -6.7,-2.6 8.4,6.2 m -6.1,-9.2 2.4,-3.3 1.9,4.2 0.7,-1 0.8,-0.3 h 0.7 l 1.4,0.6 0.8,0.6 1,1.2 0.3,1.2 -0.2,1.2 -0.7,0.9 -1.1,0.6 h -0.6 l -1,-0.3"
         stroke="#000000"
         stroke-width="1"
         id="path58" />
      <path
         d="m 1002.4,192.8 -3.1,2.1 2.2,3.9 v -0.6 l 0.6,-1 1,-0.7 1.2,-0.2 1.2,0.4 1.1,1.1 0.6,0.8 0.5,1.5 -0.1,1.2 -0.6,1.1 -1,0.6 -1.2,0.2 -0.6,-0.2 -0.8,-0.6 m 2.5,-11.9 -0.7,1 0.2,1.7 1.1,2.3 0.8,1.2 1.7,1.9 1.5,0.8 1.2,-0.2 0.6,-0.4 0.7,-1.1 -0.2,-1.6 -1.1,-2.3 -0.8,-1.3 -1.8,-1.8 -1.4,-0.9 -1.2,0.3 -0.5,0.3"
         stroke="#000000"
         stroke-width="1"
         id="path59" />
      <path
         d="m 962.4,183.2 -7.1,3.6 4.7,3.2 m 2.4,-6.8 -6,8.6 m 10.5,-1.1 -1.2,1 -1.2,0.4 -1.2,-0.3 -0.3,-0.2 -0.6,-1 -0.1,-1.3 0.6,-1.4 0.3,-0.4 1.1,-1 1.2,-0.4 1.2,0.2 0.3,0.2 0.7,1 v 1.3 l -0.8,1.9 -1.4,2 -1.8,1.9 -1.4,0.8 -1.2,-0.3 -0.7,-0.4 -0.6,-1 0.3,-1.1"
         stroke="#000000"
         stroke-width="1"
         id="path60" />
      <path
         d="m 767.2,412 0.4,0.2 0.6,0.9 0.3,0.6 v 0.9 l -0.8,1.2 -0.9,0.4 h -0.6 l -1,-0.2 -0.9,-0.5 -0.6,-0.9 -0.9,-1.4 -2.1,-5.9 -2.9,4.4 m 6.1,10.1 -3.8,-7 -3.1,4.8 m 6.9,2.2 -8.8,-5.7"
         stroke="#000000"
         stroke-width="1"
         id="path61" />
      <path
         d="m 901.5,484.9 -0.9,0.4 -0.4,1.2 v 0.7 l 0.6,1.1 1.6,0.6 2.5,0.2 2.5,-0.2 2,-0.6 0.9,-0.8 0.4,-1.2 V 486 l -0.6,-1.1 -1.1,-0.7 -1.5,-0.2 H 907 l -1.5,0.5 -0.9,0.9 -0.4,1.1 v 0.4 l 0.6,1.1 1.1,0.6 1.5,0.3 m -7.7,-7.7 0.6,1.1 1.6,0.6 2.5,0.2 1.5,-0.2 2.4,-0.6 1.5,-0.8 0.4,-1.2 -0.1,-0.8 -0.6,-1 -1.6,-0.7 -2.5,-0.1 -1.5,0.1 -2.4,0.6 -1.5,0.9 -0.4,1.2 0.1,0.5"
         stroke="#000000"
         stroke-width="1"
         id="path62" />
      <path
         d="m 847.2,356 0.7,0.9 1.2,0.1 0.7,-0.2 1,-0.8 0.3,-1.6 -0.4,-2.6 -0.7,-2.3 -0.9,-1.9 -1,-0.7 -1.2,-0.2 -0.4,0.1 -0.9,0.8 -0.5,1.2 0.1,1.6 0.1,0.4 0.8,1.4 1,0.7 1.2,0.2 0.4,-0.1 0.9,-0.8 0.5,-1.2 -0.1,-1.5 m -5.1,6.2 0.1,0.4 -0.1,1.1 -0.2,0.6 -0.6,0.7 -1.4,0.4 -0.9,-0.3 -0.5,-0.3 -0.6,-0.9 -0.3,-0.9 0.1,-1.1 0.3,-1.7 2.1,-5.8 -5,1.5"
         stroke="#000000"
         stroke-width="1"
         id="path63" />
      <path
         d="m 891.3,381 -1,0.5 -0.4,1.2 0.1,0.7 0.6,1.1 1.6,0.5 2.5,0.1 2.5,-0.2 2,-0.6 0.9,-0.9 0.3,-1.2 v -0.3 l -0.6,-1.1 -1.1,-0.6 -1.5,-0.2 h -0.5 l -1.5,0.6 -0.9,0.8 -0.4,1.2 0.1,0.4 0.6,1 1.1,0.7 1.5,0.2 m -7.7,-6 -0.5,-4.1 4.3,1.8 -0.2,-1.1 0.5,-0.8 0.4,-0.5 1.5,-0.5 1,-0.1 1.5,0.2 1.1,0.6 0.6,1.1 0.1,1.1 -0.4,1.2 -0.4,0.4 -1,0.5"
         stroke="#000000"
         stroke-width="1"
         id="path64" />
      <path
         d="m 818.8,593.8 -11.1,1.2 m 8.9,-6 2.2,4.8 m 2.5,5.1 -1.6,-3.4 -4.3,1.6 0.7,0.1 0.9,0.8 0.5,1 v 1.3 l -0.5,1.1 -1.2,1 -0.9,0.4 -1.6,0.3 -1.2,-0.2 -0.9,-0.8 -0.5,-1 v -1.3 l 0.2,-0.5 0.8,-0.8"
         stroke="#000000"
         stroke-width="1"
         id="path65" />
      <path
         d="m 870.5,628.5 -5.3,9.8 m 0.1,-10.6 5.2,0.8 m 6.2,0.9 -5.3,9.9 m 0.1,-10.7 5.2,0.8"
         stroke="#000000"
         stroke-width="1"
         id="path66" />
      <path
         d="m 626.3,602.8 -8.8,-6.8 m 10.5,1.9 -1.7,4.9 m -0.5,1.9 -1.3,3.9 -3.1,-3.4 -0.4,1.1 -0.7,0.5 -0.6,0.2 -1.5,-0.1 -1,-0.3 -1.3,-0.8 -0.7,-1.1 -0.1,-1.2 0.3,-1.1 0.8,-0.9 0.6,-0.2 h 1.1"
         stroke="#000000"
         stroke-width="1"
         id="path67" />
      <path
         d="m 780.2,606.7 10.8,2.8 m -10.4,2.4 -0.4,-5.2 m -0.6,-5.6 0.4,3.7 h 4.5 l -0.5,-0.4 -0.6,-1 -0.1,-1.2 0.4,-1.1 0.9,-0.9 1.4,-0.5 1,-0.1 1.6,0.3 1,0.6 0.6,1.1 0.1,1.1 -0.4,1.2 -0.4,0.4 -1,0.5"
         stroke="#000000"
         stroke-width="1"
         id="path68" />
      <path
         d="m 694.2,634.1 -3.2,10.7 m -2,-10.4 5.2,-0.3 m 5.2,-0.4 -3.4,7.2 5.6,-0.3 m -2.2,-6.9 0.5,10.5"
         stroke="#000000"
         stroke-width="1"
         id="path69" />
      <path
         d="m 966.9,640.1 -0.3,-1 -1.1,-0.6 h -0.8 l -1.1,0.4 -0.9,1.5 -0.5,2.4 -0.1,2.5 0.2,2.1 0.7,1 1.1,0.6 h 0.4 l 1.1,-0.4 0.8,-1 0.5,-1.5 v -0.5 l -0.3,-1.5 -0.6,-1 -1.1,-0.6 h -0.4 l -1.2,0.4 -0.8,1 -0.4,1.4 m 10.8,-4.8 -0.3,-1 -1.1,-0.6 h -0.7 l -1.2,0.4 -0.8,1.4 -0.5,2.5 -0.2,2.5 0.3,2 0.7,1.1 1,0.5 0.4,0.1 1.2,-0.5 0.8,-0.9 0.4,-1.5 0.1,-0.5 -0.3,-1.5 -0.7,-1.1 -1.1,-0.5 -0.4,-0.1 -1.1,0.5 -0.8,0.9 -0.5,1.5"
         stroke="#000000"
         stroke-width="1"
         id="path70" />
      <path
         d="m 971.5,558.5 0.2,1 1,0.7 0.8,0.2 1.2,-0.3 1,-1.4 0.8,-2.4 0.4,-2.4 v -2.1 l -0.6,-1.1 -1,-0.7 h -0.4 l -1.2,0.3 -0.9,0.8 -0.6,1.4 -0.1,0.5 0.1,1.6 0.6,1.1 1,0.7 h 0.4 l 1.2,-0.3 0.9,-0.8 0.6,-1.4 m -9.4,5.4 1.2,-0.3 1,-1.3 0.8,-2.4 0.3,-1.5 v -2.5 l -0.4,-1.6 -1.1,-0.7 -0.7,-0.2 -1.2,0.3 -1,1.4 -0.8,2.4 -0.3,1.5 v 2.5 l 0.4,1.6 1.1,0.7 0.5,0.1"
         stroke="#000000"
         stroke-width="1"
         id="path71" />
      <path
         d="m 1010.5,606.4 -1,0.4 -0.6,1 v 0.8 l 0.4,1.1 1.5,0.9 2.5,0.5 2.4,0.2 2.1,-0.3 1,-0.7 0.6,-1.1 v -0.3 l -0.4,-1.2 -1,-0.8 -1.5,-0.5 h -0.5 l -1.5,0.3 -1,0.7 -0.6,1.1 v 0.3 l 0.4,1.2 1,0.8 1.4,0.5 m -6.5,-7.2 0.2,-4.1 3.9,2.4 v -1.1 l 0.6,-0.7 0.5,-0.3 1.5,-0.3 h 1 l 1.5,0.5 1,0.8 0.4,1.2 -0.1,1.1 -0.5,1.1 -0.6,0.3 -1,0.3"
         stroke="#000000"
         stroke-width="1"
         id="path72" />
      <path
         d="m 627.5,502 0.5,-0.2 1.1,0.1 0.6,0.2 0.7,0.5 0.4,1.4 -0.2,0.9 -0.3,0.5 -0.9,0.7 -0.9,0.3 h -1.1 l -1.6,-0.3 -6,-1.9 1.7,5 m 11.9,2.5 -11.1,-0.2 m 9.5,-4.7 1.6,4.9"
         stroke="#000000"
         stroke-width="1"
         id="path73" />
      <path
         d="m 671.9,478.8 0.1,0.5 -0.2,1 -0.3,0.6 -0.7,0.6 -1.5,0.2 -0.8,-0.4 -0.4,-0.5 -0.5,-0.9 -0.2,-1 0.3,-1 0.5,-1.6 3.1,-5.5 -5.2,0.7 m -4.5,9.7 0.5,0.9 1.2,0.4 0.7,-0.1 1.1,-0.7 0.5,-1.6 0.1,-2.5 -0.4,-2.5 -0.6,-1.9 -0.9,-0.9 -1.2,-0.3 h -0.3 l -1.1,0.7 -0.6,1.1 -0.2,1.5 0.1,0.5 0.6,1.4 0.9,0.9 1.1,0.4 0.4,-0.1 1.1,-0.6 0.6,-1.1 0.1,-1.6"
         stroke="#000000"
         stroke-width="1"
         id="path74" />
    </g>
    <path
       d="m 777.5,249.6 h 6.2 l -3.4,6 h 1.7 l 1.1,0.7 0.6,0.8 0.5,2.2 v 1.5 l -0.5,2.3 -1.2,1.5 -1.7,0.7 h -1.6 l -1.7,-0.7 -0.6,-0.8 -0.6,-1.5"
       id="titre_3"
       stroke="#4b0082"
       style="stroke-width:2.53872" />
    <path
       d="m 811.5,508.7 -5.6,10.5 h 8.4 m -2.8,-10.5 v 15.7"
       id="titre_4"
       stroke="#4b0082"
       style="stroke-width:2.53872" />
  </g>
  <g
     id="page_003"
     transform="translate(29.666435,-6.3452323)">
    <path
       d="m 1202.6,456.7 -109.3,-83.6 11.9,-92.2 100.3,20.2 -12.4,-80.3 -27.3,-66.8 -71.2,-11.4 -20.2,-78.6 65,13.7 102,-37.1 66,4.2 -5.5,194 14.9,172.9 71.5,86.4 48.1,164.3 -22.1,70.5 -76.3,-33.2 -38.8,-100.8 -51,-42.3 35.7,55.8 -75.3,77.3 -75.3,35.4 -22,-175.2 76.7,-16.2 z m 339.5,-120.9 29,70.5 -14.5,103.9 -15.7,85.4 -103.3,-21.6 -33.9,-54.3 15.3,-117.2 36.4,-54 1.7,-127.5 -108.8,1 -4.6,-108.5 -30.2,-59.1 100.2,-20.8 128.4,80.7 z"
       id="coupes_003"
       stroke="#ff0000"
       stroke-width="1.27" />
    <path
       d="m 1139.4,77.7 26.4,76.3 M 1241.4,40.6 1165.8,154 M 1307.4,44.8 1165.8,154 m 136.1,84.8 -108.8,-18 m 195.2,277.3 -140.1,58.5 -39.6,133.1 -20.6,-156 60.2,22.9 68.6,-144.9 m -183.5,313.4 54.7,-191.4 128.8,-122 -111.3,-110.6 -112.2,72 m 343.1,289.3 -98.4,37.3 m 218.6,-189.5 -152.9,9.5 167.4,-113.4 -152.1,-3.8 m -5.3,-368.9 -70,79.9 198.4,0.8 -85,106.7 85,114.8 -86.7,12.7"
       id="plisM_003"
       stroke="#a52a2a"
       stroke-dasharray="4" />
    <path
       d="m 1150.6,113.9 4,4 m 0,-4 -4,4 m 51,-22.6 4,4 m 0,-4 -4,4 m 33,-1.9 4,4 m 0,-4 -4,4 m 10.9,126.4 4,4 m 0,-4 -4,4 m 13.7,122.6 4,4 m 0,-4 -4,4 m -111.8,-23.3 4,4 m 0,-4 -4,4 m 103,131.6 4,4 m 0,-4 -4,4 m 30.1,7.4 4,4 m 0,-4 -4,4 m -64.4,57 4,4 m 0,-4 -4,4 m 100.1,-21.8 4,4 m 0,-4 -4,4 m -89.8,91.8 4,4 m 0,-4 -4,4 m -30.1,-15.4 4,4 m 0,-4 -4,4 m -37.7,13.7 4,4 m 0,-4 -4,4 m 226.6,47.6 4,4 m 0,-4 -4,4 m 112.4,-406.6 4,4 m 0,-4 -4,4 m 0,-114.8 4,4 m 0,-4 -4,4 m -0.8,170.5 4,4 m 0,-4 -4,4 m -55.9,-232.2 4,4 m 0,-4 -4,4 m 52.1,286.5 4,4 m 0,-4 -4,4 m -7.6,54.6 4,4 m 0,-4 -4,4 m -7.3,47.9 4,4 m 0,-4 -4,4 m -101.4,-445.3 4,4 m 0,-4 -4,4"
       display="none"
       id="marqueM_003"
       stroke="#a52a2a" />
    <path
       d="m 1139.4,77.7 -44.8,64.9 m 212.8,-97.8 -114.3,176 m 108.8,18 -96.4,62.3 -2.9,155.6 114.2,-45 m 71.5,86.4 -89.1,100.8 137.2,63.5 M 1457.1,221 1343.7,113.5 m 227.4,292.8 -115.7,-57.8 m 85.5,247.1 -137.2,-75.9"
       id="plisV_003"
       stroke="#008000"
       stroke-dasharray="4, 1, 1, 1"
       stroke-width="1.27" />
    <path
       d="m 1115,108.2 4,4 m 0,-4 -4,4 m 133.3,18.6 4,4 m 0,-4 -4,4 m 3.4,133.1 4,4 m 0,-4 -4,4 m 6,160.3 4,4 m 0,-4 -4,4 m -55.6,-59.3 4,4 m 0,-4 -4,4 m 139.6,165.6 4,4 m 0,-4 -4,4 m 24.1,78.2 4,4 m 0,-4 -4,4 m 32.6,-467.5 4,4 m 0,-4 -4,4 m 112.9,206.2 4,4 m 0,-4 -4,4 m -41,176.2 4,4 m 0,-4 -4,4"
       id="marqueV_003"
       stroke="#008000" />
    <g
       id="nums_003">
      <path
         d="m 1096.7,95.4 -0.8,-1 -1,-0.1 -1,0.3 -0.9,0.6 -0.3,0.8 -0.1,1.6 -0.2,1.2 -0.8,1 -0.9,0.6 -1.4,0.4 -1.1,-0.1 -0.6,-0.3 -0.7,-0.9 -0.4,-1.5 0.2,-1.2 0.4,-0.5 0.9,-0.6 1.4,-0.4 1.1,0.1 1.2,0.5 0.7,1 0.9,1.3 0.6,0.6 1.1,0.1 1,-0.2 0.8,-0.6 0.3,-1.3 -0.5,-1.6 m 2.3,8.4 -7.7,-1.9 1.4,5.5 m 6.3,-3.6 -10.2,2.6"
         stroke="#000000"
         stroke-width="1"
         id="path75" />
      <path
         d="m 1108.3,85.2 1.2,-0.2 0.6,-0.9 0.2,-1 -0.1,-1.1 -0.7,-0.6 -1.3,-0.8 -1,-0.7 -0.6,-1.2 -0.1,-1 0.3,-1.5 0.6,-0.9 0.4,-0.4 1.2,-0.3 1.5,0.4 1,0.7 0.3,0.5 0.1,1.1 -0.3,1.5 -0.6,0.9 -0.9,0.8 -1.2,0.3 -1.6,0.1 -0.8,0.4 -0.6,0.9 -0.2,0.9 0.2,1.1 1,0.7 1.6,0.4 m -9,-1.9 3.7,0.7 1.3,-4.3 -0.5,0.4 -1.2,0.3 -1.1,-0.3 -1,-0.7 -0.5,-1.1 -0.1,-1.6 0.2,-0.9 0.7,-1.4 0.9,-0.8 1.2,-0.3 1.1,0.2 1,0.8 0.3,0.5 0.2,1.1"
         stroke="#000000"
         stroke-width="1"
         id="path76" />
      <path
         d="m 1127.9,134 -1.1,0.4 -0.6,0.9 -0.1,1 0.2,1 0.6,0.6 1.4,0.8 1.1,0.6 0.6,1.1 0.2,1.1 -0.3,1.5 -0.5,0.9 -0.4,0.4 -1.2,0.4 -1.5,-0.3 -1,-0.7 -0.3,-0.5 -0.2,-1.1 0.2,-1.4 0.5,-1 0.9,-0.8 1.2,-0.3 1.6,-0.3 0.8,-0.4 0.5,-0.9 0.2,-1 -0.2,-1 -1.1,-0.7 -1.6,-0.3 m 4.9,3.3 0.1,-0.5 0.5,-0.9 0.4,-0.4 0.9,-0.4 1.4,0.2 0.7,0.7 0.3,0.5 0.2,1.1 -0.1,0.9 -0.6,1 -1,1.3 -4.4,4.4 5.1,0.8"
         stroke="#000000"
         stroke-width="1"
         id="path77" />
      <path
         d="m 1199.2,70.6 0.9,-0.9 v -1 l -0.3,-1 -0.7,-0.8 -0.9,-0.2 h -1.6 -1.2 l -1.1,-0.7 -0.7,-0.8 -0.5,-1.4 v -1.1 l 0.2,-0.6 0.9,-0.9 1.4,-0.5 1.2,0.1 0.6,0.3 0.7,0.9 0.5,1.4 v 1 l -0.4,1.2 -0.9,0.9 -1.2,1 -0.6,0.7 v 1.1 l 0.4,0.9 0.7,0.8 1.2,0.1 1.6,-0.6 m -5.2,1.9 -3.8,1.4 0.7,-4.5 -1,0.4 -0.9,-0.3 -0.5,-0.3 -0.9,-1.3 -0.4,-0.9 -0.1,-1.6 0.3,-1.1 0.9,-0.9 1.1,-0.4 1.2,0.1 0.5,0.3 0.7,0.9"
         stroke="#000000"
         stroke-width="1"
         id="path78" />
      <path
         d="m 1272.1,56.3 3.7,0.2 0.7,-4.4 -0.4,0.5 -1.2,0.4 -1.1,-0.1 -1.1,-0.6 -0.7,-1 -0.3,-1.5 0.1,-1 0.5,-1.5 0.8,-0.9 1.1,-0.5 1.2,0.1 1.1,0.6 0.3,0.5 0.3,1"
         stroke="#000000"
         stroke-width="1"
         id="path79" />
      <path
         d="m 1190.5,178.1 -0.9,-0.9 h -1 l -1,0.4 -0.7,0.8 -0.2,0.8 0.1,1.6 -0.1,1.2 -0.6,1.1 -0.8,0.7 -1.4,0.6 h -1 l -0.6,-0.1 -0.9,-0.9 -0.6,-1.4 v -1.2 l 0.4,-0.5 0.7,-0.8 1.4,-0.5 h 1.1 l 1.2,0.3 0.9,0.8 1,1.2 0.8,0.5 h 1 l 1,-0.4 0.7,-0.7 0.1,-1.2 -0.7,-1.6 m -0.2,5.9 0.4,-0.2 h 1.1 l 0.6,0.2 0.8,0.5 0.5,1.4 -0.2,0.8 -0.3,0.6 -0.8,0.7 -0.9,0.4 h -1.1 l -1.6,-0.1 -6.1,-1.6 2,4.9"
         stroke="#000000"
         stroke-width="1"
         id="path80" />
      <path
         d="m 1290.7,144.3 6.9,3.9 0.2,-5.6 m -7.1,1.7 10.5,0.3 m -7.9,-3.2 -0.5,-0.8 -1.5,-1.1 10.5,0.3"
         stroke="#000000"
         stroke-width="1"
         id="path81" />
      <path
         d="m 1212.2,254.3 -0.7,-1.1 -1,-0.2 -1,0.2 -0.9,0.5 -0.4,0.8 -0.3,1.6 -0.3,1.1 -0.9,0.9 -0.9,0.6 -1.5,0.2 -1,-0.2 -0.6,-0.3 -0.6,-1.1 -0.3,-1.4 0.4,-1.2 0.4,-0.5 0.9,-0.5 1.5,-0.2 1.1,0.2 1.1,0.6 0.6,1 0.7,1.4 0.7,0.7 1,0.2 1,-0.2 0.9,-0.5 0.3,-1.2 -0.2,-1.6 m 1.4,8.5 -7.5,-2.6 0.9,5.6 m 6.6,-3 -10.4,1.6"
         stroke="#000000"
         stroke-width="1"
         id="path82" />
      <path
         d="m 1295.8,329.3 7.3,3.1 -0.4,-5.6 m -6.9,2.5 10.5,-0.9 m -11,-6.6 0.3,3.7 h 4.5 l -0.5,-0.3 -0.6,-1.1 -0.1,-1.1 0.4,-1.2 0.9,-0.8 1.5,-0.5 1,-0.1 1.5,0.3 1.1,0.6 0.6,1.1 0.1,1.1 -0.4,1.2 -0.5,0.4 -1,0.5"
         stroke="#000000"
         stroke-width="1"
         id="path83" />
      <path
         d="m 1151.4,403.1 0.9,0.1 1.8,-0.5 -6.4,8.3 m 9.3,-2.1 -1.2,0.9 -1.2,0.4 -1.2,-0.3 -0.3,-0.2 -0.6,-1.1 v -1.3 l 0.6,-1.4 0.3,-0.4 1.2,-1 1.2,-0.3 1.2,0.3 0.3,0.2 0.6,1.1 v 1.3 l -0.9,1.8 -1.6,2 -1.8,1.7 -1.5,0.7 -1.2,-0.2 -0.6,-0.5 -0.6,-1.1 0.3,-1"
         stroke="#000000"
         stroke-width="1"
         id="path84" />
      <path
         d="m 1111.1,323.8 0.4,0.9 1.4,1.3 -10.4,-1.4 m 10.3,4.8 -0.4,-1.2 -1.4,-0.9 -2.4,-0.7 -1.5,-0.2 -2.5,0.1 -1.6,0.5 -0.6,1.1 -0.1,0.7 0.3,1.2 1.4,0.9 2.5,0.7 1.4,0.2 h 2.6 l 1.6,-0.6 0.6,-1 0.1,-0.6"
         stroke="#000000"
         stroke-width="1"
         id="path85" />
      <path
         d="m 1156.9,305.3 1.2,-0.3 0.6,-0.9 0.2,-0.9 -0.2,-1.1 -0.6,-0.6 -1.4,-0.8 -1,-0.7 -0.5,-1.2 -0.2,-1 0.3,-1.5 0.6,-0.9 0.4,-0.4 1.2,-0.3 1.5,0.3 1,0.7 0.3,0.6 0.2,1 -0.3,1.5 -0.6,0.9 -0.9,0.9 -1.2,0.2 -1.6,0.2 -0.8,0.4 -0.6,0.9 -0.2,0.9 0.2,1.1 1,0.7 1.6,0.3 m -8.7,-3.2 0.1,1 1,0.7 0.8,0.2 1.2,-0.3 1,-1.3 0.9,-2.4 0.5,-2.5 v -2 l -0.6,-1.1 -1,-0.7 -0.3,-0.1 -1.2,0.3 -1,0.8 -0.6,1.4 -0.1,0.5 v 1.5 l 0.6,1.2 1,0.7 h 0.4 l 1.2,-0.2 0.9,-0.9 0.7,-1.4"
         stroke="#000000"
         stroke-width="1"
         id="path86" />
      <path
         d="m 1207.6,496.1 1,-0.2 0.7,-1 0.2,-0.7 -0.3,-1.2 -1.3,-1 -2.4,-0.9 -2.5,-0.4 h -2 l -1.1,0.5 -0.7,1 -0.1,0.4 0.3,1.2 0.8,0.9 1.4,0.7 0.5,0.1 1.6,-0.1 1.1,-0.6 0.7,-1 0.1,-0.4 -0.3,-1.2 -0.9,-0.9 -1.4,-0.6 m 1.4,11.4 -1.4,-0.7 -0.8,-0.9 -0.3,-1.2 0.1,-0.4 0.7,-1 1.1,-0.5 1.5,-0.1 0.5,0.1 1.4,0.6 0.9,1 0.3,1.2 -0.1,0.3 -0.7,1 -1.1,0.6 h -2.1 l -2.4,-0.5 -2.4,-0.8 -1.4,-1 -0.2,-1.2 0.1,-0.8 0.7,-1 1.1,-0.2"
         stroke="#000000"
         stroke-width="1"
         id="path87" />
      <path
         d="m 1344.1,463.9 -0.5,0.9 0.3,1.2 0.5,0.6 1.1,0.5 1.6,-0.4 2.2,-1.3 1.9,-1.6 1.3,-1.5 0.3,-1.2 -0.3,-1.2 -0.3,-0.3 -1.1,-0.6 -1.2,0.1 -1.4,0.7 -0.4,0.3 -0.9,1.2 -0.3,1.2 0.3,1.2 0.3,0.3 1.1,0.6 1.2,-0.1 1.4,-0.7 m -12.1,-3.6 2.4,2.9 3.7,-2.6 h -0.6 l -1.1,-0.5 -0.7,-0.9 -0.4,-1.2 0.3,-1.2 0.9,-1.2 0.8,-0.7 1.4,-0.6 1.2,-0.1 1.2,0.6 0.7,0.8 0.3,1.2 -0.1,0.6 -0.6,0.9"
         stroke="#000000"
         stroke-width="1"
         id="path88" />
      <path
         d="m 1279.1,564.4 -1.2,-0.4 -0.9,0.6 -0.6,0.7 -0.4,1 0.3,0.9 0.8,1.3 0.5,1.2 v 1.2 l -0.4,1 -0.9,1.2 -1,0.5 -0.6,0.1 -1.1,-0.3 -1.2,-1 -0.5,-1.1 v -0.6 l 0.3,-1 1,-1.1 0.9,-0.6 1.2,-0.3 1.2,0.4 1.5,0.5 0.9,0.1 0.9,-0.5 0.7,-0.8 0.3,-1 -0.5,-1.1 -1.3,-1.1 m 5.1,4.3 -1.2,-0.4 -1,0.6 -0.6,0.7 -0.3,1.1 0.2,0.8 0.9,1.4 0.5,1.1 -0.1,1.2 -0.3,1 -1,1.2 -0.9,0.5 -0.6,0.2 -1.2,-0.4 -1.1,-0.9 -0.6,-1.1 v -0.7 l 0.4,-1 0.9,-1.1 1,-0.6 1.2,-0.3 1.2,0.4 1.4,0.6 0.9,0.1 1,-0.6 0.6,-0.7 0.4,-1.1 -0.6,-1.1 -1.3,-1"
         stroke="#000000"
         stroke-width="1"
         id="path89" />
      <path
         d="m 1160.1,697.3 3.7,-1.8 -0.3,4.6 1,-0.5 0.9,0.2 0.6,0.3 0.9,1.2 0.5,0.9 0.3,1.5 -0.3,1.2 -0.8,1 -1,0.4 -1.2,0.1 -0.6,-0.3 -0.8,-0.8 m 3.1,-8.2 0.5,-0.8 0.4,-1.8 4.5,9.5"
         stroke="#000000"
         stroke-width="1"
         id="path90" />
      <path
         d="m 1153.5,553.5 0.6,0.9 1.2,0.3 0.8,-0.2 1,-0.7 0.4,-1.6 -0.2,-2.6 -0.5,-2.4 -0.8,-1.9 -0.9,-0.8 -1.2,-0.3 -0.4,0.1 -1,0.7 -0.5,1.2 -0.1,1.5 0.1,0.5 0.7,1.4 1,0.8 1.2,0.3 0.3,-0.1 1,-0.7 0.5,-1.2 0.1,-1.5 m -10,5.7 0.1,-1.6 0.5,-1.1 1,-0.7 0.4,-0.1 1.2,0.3 0.9,0.8 0.7,1.4 0.1,0.5 -0.1,1.5 -0.5,1.1 -1,0.8 h -0.3 l -1.2,-0.2 -1,-0.8 -0.8,-1.9 -0.5,-2.5 -0.1,-2.5 0.4,-1.6 1,-0.7 0.7,-0.2 1.2,0.3 0.6,0.9"
         stroke="#000000"
         stroke-width="1"
         id="path91" />
      <path
         d="m 1135.8,634.7 -10.9,-2.4 m 10.3,-2.8 0.6,5.2 m 0.4,3.4 -0.6,-1 -1.6,-0.6 h -2.5 l -1.5,0.1 -2.4,0.7 -1.4,1 -0.4,1.1 0.1,0.8 0.6,1 1.6,0.6 2.5,0.1 1.5,-0.2 2.5,-0.7 1.4,-0.9 0.3,-1.2 v -0.6"
         stroke="#000000"
         stroke-width="1"
         id="path92" />
      <path
         d="m 1233.4,644.6 -0.5,1.1 0.5,1 0.7,0.7 1,0.4 0.9,-0.2 1.4,-0.7 1.1,-0.4 1.3,0.1 0.9,0.5 1.1,1 0.5,1 0.1,0.6 -0.5,1.1 -1,1.1 -1.2,0.5 -0.6,-0.1 -1,-0.4 -1,-1.1 -0.5,-1 -0.2,-1.2 0.4,-1.1 0.7,-1.5 0.2,-0.9 -0.5,-0.9 -0.7,-0.7 -0.9,-0.4 -1.2,0.4 -1.2,1.2 m 6.9,-7 4.9,10 m -8.6,-6.2 3.7,-3.8"
         stroke="#000000"
         stroke-width="1"
         id="path93" />
      <path
         d="m 1256.9,595.6 1,0.6 1,-0.2 0.9,-0.5 0.6,-0.9 v -0.9 l -0.4,-1.5 -0.2,-1.2 0.5,-1.2 0.6,-0.9 1.3,-0.8 1,-0.2 0.7,0.1 1,0.6 0.8,1.3 0.2,1.2 -0.2,0.6 -0.7,0.9 -1.2,0.8 -1.1,0.2 -1.2,-0.1 -1.1,-0.7 -1.2,-1 -0.8,-0.3 -1.1,0.2 -0.8,0.5 -0.6,0.9 0.1,1.2 1,1.4 m -3.6,-5.6 1,0.7 1.1,-0.2 0.8,-0.5 0.6,-0.9 0.1,-0.9 -0.4,-1.5 -0.2,-1.2 0.4,-1.2 0.7,-0.9 1.2,-0.8 1.1,-0.2 h 0.6 l 1,0.7 0.8,1.3 0.2,1.2 -0.2,0.6 -0.7,0.8 -1.2,0.8 -1.1,0.3 -1.2,-0.1 -1,-0.7 -1.3,-1 -0.8,-0.4 -1,0.3 -0.9,0.5 -0.6,0.9 0.2,1.2 0.9,1.4"
         stroke="#000000"
         stroke-width="1"
         id="path94" />
      <path
         d="m 1399.5,585.3 11.1,0.6 m -9.6,4.4 -1.5,-5 m 1.9,-2.5 -0.5,0.2 -1.1,-0.1 -0.6,-0.2 -0.6,-0.6 -0.5,-1.4 0.3,-0.9 0.4,-0.5 0.8,-0.6 1,-0.3 h 1.1 l 1.6,0.3 5.9,2.2 -1.5,-5"
         stroke="#000000"
         stroke-width="1"
         id="path95" />
      <path
         d="m 1329.9,640.3 -0.9,-0.9 h -1.1 l -0.9,0.4 -0.8,0.7 -0.2,0.9 0.1,1.5 -0.1,1.3 -0.7,1 -0.8,0.7 -1.4,0.6 h -1 l -0.6,-0.2 -0.9,-0.9 -0.5,-1.4 v -1.2 l 0.4,-0.5 0.7,-0.7 1.4,-0.6 h 1.1 l 1.2,0.4 0.9,0.8 1,1.3 0.7,0.5 h 1.1 l 0.9,-0.4 0.8,-0.7 0.1,-1.2 -0.6,-1.6 m 3.5,9.1 -11.1,0.3 m 9.2,-5.1 1.9,4.8"
         stroke="#000000"
         stroke-width="1"
         id="path96" />
      <path
         d="m 1376.6,701.5 3.8,1.6 -3.7,2.8 1.1,0.4 0.5,0.8 0.1,0.6 -0.2,1.5 -0.4,1 -1,1.2 -1.1,0.6 h -1.2 l -1,-0.4 -0.9,-0.9 -0.1,-0.7 v -1 m 8.3,-3.1 0.9,-0.2 1.6,-0.9 -4.2,9.6"
         stroke="#000000"
         stroke-width="1"
         id="path97" />
      <path
         d="m 1412.9,699.9 -0.5,-0.2 -0.8,-0.6 -0.4,-0.5 -0.3,-0.9 0.5,-1.4 0.7,-0.6 0.6,-0.2 1,-0.1 1,0.3 0.8,0.7 1.3,1.2 3.6,5 1.6,-5 m -8.2,-9.1 8.9,6.7 m -10.4,-1.7 1.5,-5"
         stroke="#000000"
         stroke-width="1"
         id="path98" />
      <path
         d="m 1530.9,227.6 h -0.5 l -1,-0.4 -0.5,-0.4 -0.5,-0.7 v -1.5 l 0.5,-0.8 0.5,-0.4 1,-0.3 h 1 l 1,0.3 1.5,0.8 5,3.7 v -5.2"
         stroke="#000000"
         stroke-width="1"
         id="path99" />
      <path
         d="m 1470.1,279.4 -0.1,4.1 -3.9,-2.3 -0.1,1.2 -0.5,0.7 -0.5,0.4 -1.5,0.3 h -1 l -1.5,-0.4 -1,-0.7 -0.5,-1.2 0.1,-1.1 0.5,-1.1 0.5,-0.4 1,-0.3 m 4.8,11.3 -1.5,-0.4 -0.9,-0.7 -0.5,-1.2 v -0.3 l 0.5,-1.1 1,-0.8 1.5,-0.3 h 0.5 l 1.5,0.4 1,0.7 0.5,1.2 v 0.3 l -0.5,1.1 -1.1,0.8 -2,0.3 h -2.5 l -2.5,-0.4 -1.4,-0.8 -0.5,-1.1 v -0.8 l 0.5,-1.1 1,-0.3"
         stroke="#000000"
         stroke-width="1"
         id="path100" />
      <path
         d="m 1547.8,379.6 -0.7,-0.5 -1.8,-0.4 9.7,-4 m -10.8,2.4 -1.5,-3.9 4.5,0.6 -0.4,-1 0.2,-0.9 0.3,-0.6 1.2,-0.9 1,-0.4 1.5,-0.2 1.2,0.3 0.9,0.9 0.4,1 v 1.2 l -0.3,0.6 -0.8,0.7"
         stroke="#000000"
         stroke-width="1"
         id="path101" />
      <path
         d="m 1450.3,380.9 -3.7,-7 -3.2,4.6 m 6.9,2.4 -8.7,-5.9 m 4.5,7.5 0.4,0.3 0.6,0.8 0.2,0.6 v 0.9 l -0.8,1.3 -0.9,0.3 -0.6,0.1 -1,-0.3 -0.9,-0.6 -0.6,-0.8 -0.8,-1.5 -2.1,-5.9 -2.9,4.4"
         stroke="#000000"
         stroke-width="1"
         id="path102" />
      <path
         d="m 1423,459.7 0.4,0.8 1.3,1.3 -10.4,-1.3 m 8.3,2.2 0.4,0.8 1.3,1.3 -10.4,-1.4"
         stroke="#000000"
         stroke-width="1"
         id="path103" />
      <path
         d="m 1549.7,460.7 0.3,1.2 0.9,0.5 1,0.1 1.1,-0.2 0.6,-0.7 0.7,-1.4 0.6,-1 1.1,-0.6 1.1,-0.3 1.4,0.2 1,0.5 0.4,0.5 0.4,1.2 -0.2,1.5 -0.7,1 -0.5,0.3 -1.1,0.2 -1.5,-0.2 -0.9,-0.5 -0.9,-0.9 -0.3,-1.1 -0.3,-1.6 -0.4,-0.8 -1,-0.5 -0.9,-0.2 -1.1,0.3 -0.6,1 -0.3,1.7 m 1,-6.9 0.3,1.1 1.4,1 2.4,0.7 1.5,0.2 h 2.6 l 1.5,-0.6 0.7,-1 0.1,-0.7 -0.3,-1.2 -1.4,-1 -2.4,-0.7 -1.5,-0.2 h -2.6 l -1.5,0.6 -0.7,1 -0.1,0.6"
         stroke="#000000"
         stroke-width="1"
         id="path104" />
      <path
         d="m 1536.7,556.7 -0.5,-0.1 -1,-0.6 -0.4,-0.4 -0.3,-0.9 0.2,-1.4 0.7,-0.7 0.5,-0.3 1.1,-0.2 1,0.2 0.9,0.6 1.3,1 4.3,4.6 0.9,-5.2 m -9.3,-7.4 -0.7,3.6 4.4,1.2 -0.4,-0.4 -0.3,-1.2 0.2,-1.1 0.7,-1.1 1.1,-0.5 1.5,-0.1 1,0.2 1.4,0.6 0.9,0.9 0.3,1.2 -0.3,1.1 -0.6,1 -0.6,0.3 -1.1,0.2"
         stroke="#000000"
         stroke-width="1"
         id="path105" />
      <path
         d="m 1487.8,570.5 -1.2,0.2 -0.6,0.9 -0.2,1 0.2,1.1 0.6,0.6 1.4,0.8 1,0.7 0.5,1.2 0.2,1 -0.3,1.5 -0.6,0.9 -0.5,0.4 -1.2,0.3 -1.5,-0.4 -0.9,-0.7 -0.3,-0.5 -0.2,-1.1 0.3,-1.5 0.6,-0.9 0.9,-0.8 1.2,-0.2 1.6,-0.2 0.9,-0.4 0.5,-0.9 0.2,-0.9 -0.1,-1.1 -1,-0.7 -1.7,-0.4 m 4.1,3.3 0.8,-0.4 1.4,-1.2 -2.1,10.3"
         stroke="#000000"
         stroke-width="1"
         id="path106" />
      <path
         d="m 1430,538.8 0.7,-0.9 -0.2,-1.2 -0.4,-0.6 -1,-0.7 -1.7,0.2 -2.3,1 -2.1,1.3 -1.5,1.4 -0.5,1.1 0.2,1.3 0.2,0.3 1,0.7 1.3,0.1 1.4,-0.5 0.5,-0.3 1,-1.1 0.5,-1.2 -0.2,-1.2 -0.2,-0.3 -1,-0.7 -1.2,-0.1 -1.5,0.5 m 11.3,4.7 -7.9,0.5 3,4.8 m 4.9,-5.3 -8.9,5.6"
         stroke="#000000"
         stroke-width="1"
         id="path107" />
      <path
         d="m 1470.8,81.6 1.1,-1.1 1.1,-0.5 1.3,0.2 0.3,0.2 0.7,1 0.1,1.3 -0.5,1.5 -0.3,0.4 -1.1,1.1 -1.2,0.4 -1.2,-0.2 -0.3,-0.2 -0.7,-1 -0.1,-1.2 0.8,-1.9 1.3,-2.2 1.6,-1.9 1.5,-0.8 1.2,0.1 0.6,0.4 0.7,1.1 -0.2,1"
         stroke="#000000"
         stroke-width="1"
         id="path108" />
      <path
         d="m 1359.6,162.8 -0.6,-1.1 -1,-0.4 -1,0.1 -1,0.4 -0.5,0.8 -0.4,1.5 -0.4,1.1 -1,0.8 -1,0.5 h -1.5 l -1,-0.3 -0.5,-0.4 -0.6,-1.1 v -1.5 l 0.4,-1.1 0.5,-0.4 1,-0.4 1.5,-0.1 1,0.3 1,0.7 0.6,1.1 0.5,1.5 0.6,0.8 1,0.3 1,-0.1 1,-0.4 0.4,-1.1 -0.1,-1.7 m 0.3,5.5 0.2,4.1 -4.1,-2.1 v 1.1 l -0.5,0.8 -0.4,0.4 -1.5,0.4 -1,0.1 -1.5,-0.3 -1.1,-0.7 -0.5,-1.2 -0.1,-1.1 0.5,-1.1 0.5,-0.4 1,-0.4"
         stroke="#000000"
         stroke-width="1"
         id="path109" />
      <path
         d="m 1397,207.8 4.2,-0.1 -2.2,4.1 h 1.1 l 0.7,0.4 0.4,0.5 0.4,1.5 v 1 l -0.3,1.5 -0.8,1.1 -1.1,0.5 h -1.1 l -1.2,-0.5 -0.3,-0.5 -0.4,-1 m 8.2,-8.6 -1.1,0.5 -0.4,1 v 1 l 0.4,1 0.8,0.5 1.5,0.5 1.1,0.5 0.8,1 0.3,1 0.1,1.5 -0.4,1 -0.4,0.5 -1.1,0.5 h -1.5 l -1.1,-0.5 -0.4,-0.5 -0.4,-1 v -1.5 l 0.4,-1 0.7,-1 1.1,-0.5 1.5,-0.5 0.8,-0.5 0.3,-1 v -1 l -0.4,-1 -1.1,-0.5 h -1.7"
         stroke="#000000"
         stroke-width="1"
         id="path110" />
      <path
         d="m 1338.9,73.8 -1,-0.8 -1.1,0.1 -0.9,0.5 -0.7,0.8 -0.1,0.9 0.3,1.5 v 1.3 l -0.5,1.1 -0.7,0.8 -1.4,0.7 -1,0.1 -0.7,-0.1 -0.9,-0.8 -0.7,-1.3 -0.1,-1.3 0.3,-0.5 0.7,-0.8 1.4,-0.7 1,-0.1 1.3,0.2 0.9,0.8 1.1,1.1 0.8,0.4 1.1,-0.1 0.9,-0.5 0.7,-0.7 -0.1,-1.3 -0.7,-1.5 m 4.2,8.2 -1.7,-3.3 -4.2,1.7 0.6,0.1 0.9,0.8 0.6,1 v 1.2 l -0.5,1.1 -1.2,1 -0.9,0.5 -1.5,0.4 -1.2,-0.3 -1,-0.7 -0.5,-1 -0.1,-1.3 0.3,-0.5 0.7,-0.8"
         stroke="#000000"
         stroke-width="1"
         id="path111" />
      <path
         d="m 1370.7,56.6 1,-0.7 0.2,-1.1 -0.3,-1 -0.5,-0.9 -0.9,-0.3 -1.5,-0.2 -1.2,-0.3 -1,-0.8 -0.5,-0.9 -0.3,-1.5 0.1,-1 0.3,-0.6 1,-0.7 1.5,-0.3 1.2,0.3 0.4,0.4 0.6,0.9 0.3,1.4 -0.2,1.1 -0.5,1.1 -1,0.7 -1.4,0.8 -0.6,0.7 -0.2,1 0.2,1 0.6,0.9 1.2,0.3 1.7,-0.4 m -9.4,0.5 0.6,0.9 1.2,0.2 0.7,-0.1 1,-0.8 0.4,-1.6 -0.1,-2.5 -0.5,-2.4 -0.8,-1.9 -0.9,-0.9 -1.2,-0.2 -0.4,0.1 -1,0.7 -0.5,1.1 -0.1,1.6 0.1,0.4 0.7,1.4 0.9,0.9 1.2,0.2 0.4,-0.1 1,-0.7 0.5,-1.1 0.1,-1.5"
         stroke="#000000"
         stroke-width="1"
         id="path112" />
    </g>
    <path
       d="m 1244.1,377.4 h -5.6 l -0.6,6.8 0.6,-0.8 1.7,-0.7 h 1.6 l 1.7,0.7 1.2,1.5 0.5,2.3 v 1.5 l -0.5,2.2 -1.2,1.5 -1.7,0.8 h -1.6 l -1.7,-0.8 -0.6,-0.7 -0.6,-1.5"
       id="titre_5"
       stroke="#4b0082"
       style="stroke-width:2.53872" />
    <path
       d="m 1487.6,291.6 -0.5,-1.5 -1.7,-0.7 h -1.2 l -1.6,0.7 -1.2,2.3 -0.5,3.7 v 3.8 l 0.5,3 1.2,1.5 1.6,0.7 h 0.6 l 1.7,-0.7 1.1,-1.5 0.6,-2.3 v -0.7 l -0.6,-2.3 -1.1,-1.5 -1.7,-0.7 h -0.6 l -1.6,0.7 -1.2,1.5 -0.5,2.3"
       id="titre_6"
       stroke="#4b0082"
       style="stroke-width:2.53872" />
  </g>
  <g
     id="page_004"
     transform="translate(37.202281,9.3682991)">
    <path
       d="m 1814.8,27.7 -57.5,134.4 -7.3,85.9 18.6,117.4 14.4,-118 82,-8 -80.2,-19 74.6,-176.1 38.8,34.3 34.9,-38.2 151,117.4 -81.4,28.4 -65.6,52.9 -14,81.4 -78.2,67.1 99.2,-27.9 55.1,-61.6 83.9,7.8 -25.9,143.8 -80.5,7.6 -122.8,6.5 119.7,28.3 59.6,54.6 72.1,89.7 -170.4,16.5 -89.4,67.6 8.3,-117.2 -106.5,-83.2 42.2,128.4 -111.6,36.6 -36.1,-169.7 -29.6,-191.9 53.3,-108.5 -11.4,-94.3 46.4,-106.6 z"
       id="coupes_004"
       stroke="#ff0000"
       stroke-width="1.27" />
    <path
       d="m 1768.6,365.4 -21.3,154.7 -105.5,-4.7 z m 154.5,-44.9 -58.1,-81.1 -96.4,126 76.3,22.2 -97.6,132.5 -69.4,165 m 379.3,-235.4 -58,-151.6 -22.5,159.2 -32.6,-97.6 -90.2,104.1 -106.6,56.3 m 185.8,-479.7 69.6,145.8 m -67.8,466.7 -81.1,-49.6 m 179.4,-56.6 -98.3,106.2 38.7,-160.8 -119.8,111.2 0.1,-139.5 -9,-76.2 20.1,-148.2 72.1,-0.3 -38.9,-160.5 -33.2,160.8 -5.6,-195.1 m -102.1,117.8 -91.8,52.9 84.5,33 -137.8,75.5 156.4,41.9 m -68.1,-351.3 56.8,148 -103.2,-41.4"
       id="plisM_004"
       stroke="#a52a2a"
       stroke-dasharray="4" />
    <path
       d="m 1755.9,440.8 4,4 m 0,-4 -4,4 m -63.4,70.9 4,4 m 0,-4 -4,4 m 10.7,-81.3 4,4 m 0,-4 -4,4 m 101.6,-67.9 4,4 m 0,-4 -4,4 m -10.7,73.4 4,4 m 0,-4 -4,4 m 20.7,-155.5 4,4 m 0,-4 -4,4 m 38.2,7.1 4,4 m 0,-4 -4,4 m -142.4,285.1 4,4 m 0,-4 -4,4 m 136.8,-180.9 4,4 m 0,-4 -4,4 m -48.8,62.3 4,4 m 0,-4 -4,4 m 98.4,-84.2 4,4 m 0,-4 -4,4 m -4.9,-135.9 4,4 m 0,-4 -4,4 m 6.9,-44.7 4,4 m 0,-4 -4,4 m -47.1,290.4 4,4 m 0,-4 -4,4 m 59.8,10.1 4,4 m 0,-4 -4,4 m 46.7,-143.2 4,4 m 0,-4 -4,4 m -42.8,-253.7 4,4 m 0,-4 -4,4 m -36,-3.8 4,4 m 0,-4 -4,4 m -19.4,-21.1 4,4 m 0,-4 -4,4 m 125.8,231.8 4,4 m 0,-4 -4,4 m 40.2,-7.8 4,4 m 0,-4 -4,4 m -60.3,-264.6 4,4 m 0,-4 -4,4 m -13.7,455.2 4,4 m 0,-4 -4,4 m -59.9,51.6 4,4 m 0,-4 -4,4 m 89.7,-32.3 4,4 m 0,-4 -4,4 m -293.6,-259.3 4,4 m 0,-4 -4,4 m -9.3,-62.7 4,4 m 0,-4 -4,4 m 26.7,-58.3 4,4 m 0,-4 -4,4 m 3.6,-46.9 4,4 m 0,-4 -4,4 m -5.7,-51.2 4,4 m 0,-4 -4,4 m 23.2,-57.3 4,4 m 0,-4 -4,4"
       display="none"
       id="marqueM_004"
       stroke="#a52a2a" />
    <path
       d="m 1933.1,40.4 4,198.7"
       id="plisV_004"
       stroke="#008000"
       stroke-dasharray="4, 1, 1, 1"
       stroke-width="1.27" />
    <path
       d="m 1933.1,137.8 4,4 m 0,-4 -4,4"
       id="marqueV_004"
       stroke="#008000" />
    <g
       id="nums_004">
      <path
         d="m 1830,254.3 -0.7,0.5 -1,1.6 -1,-10.4 m -4,11.4 3,-7.4 -5.6,0.6 m 2.6,6.8 -1.1,-10.5"
         stroke="#000000"
         stroke-width="1"
         id="path113" />
      <path
         d="m 1789.2,310.2 -10,-5 m 10.6,-0.2 -0.6,5.2"
         stroke="#000000"
         stroke-width="1"
         id="path114" />
      <path
         d="m 1672.8,594.6 -7.6,-2.3 1.1,5.5 m 6.5,-3.2 -10.3,2.1 m 11.8,5.2 -0.8,-3.6 -4.5,0.5 0.6,0.3 0.7,1 0.2,1.1 -0.2,1.2 -0.8,0.9 -1.4,0.7 -1,0.2 h -1.6 l -1.1,-0.6 -0.7,-0.9 -0.2,-1.1 0.2,-1.3 0.4,-0.4 0.9,-0.6"
         stroke="#000000"
         stroke-width="1"
         id="path115" />
      <path
         d="m 1756.1,591.4 7.9,1.3 -1.8,-5.3 m -6.1,4 10,-3.3 m -10.8,-4.4 -0.8,0.6 -0.2,1.3 0.3,0.7 0.8,0.9 1.7,0.2 2.5,-0.4 2.3,-0.8 1.8,-1 0.7,-1 0.2,-1.2 -0.2,-0.4 -0.8,-0.9 -1.2,-0.4 -1.5,0.1 -0.5,0.2 -1.3,0.8 -0.7,1.1 -0.1,1.2 0.1,0.3 0.8,0.9 1.2,0.4 1.5,-0.1"
         stroke="#000000"
         stroke-width="1"
         id="path116" />
      <path
         d="m 1726.7,654.5 -1.4,7.9 5.3,-1.8 m -3.9,-6.1 3.3,10 m 4.4,-12.4 -0.3,11.1 m -4.7,-9.5 5,-1.6"
         stroke="#000000"
         stroke-width="1"
         id="path117" />
      <path
         d="m 1899.9,386.4 3.7,-1 -0.9,-4.4 -0.2,0.6 -1,0.7 -1.1,0.3 -1.2,-0.1 -1,-0.8 -0.7,-1.3 -0.3,-1 -0.1,-1.5 0.5,-1.2 0.9,-0.8 1.1,-0.3 1.2,0.2 0.5,0.4 0.7,0.8 m -4.5,7.7 -0.5,0.6 -0.7,1.8 -2.9,-10.1"
         stroke="#000000"
         stroke-width="1"
         id="path118" />
      <path
         d="m 1873.7,344.8 -2.8,2.4 2.6,3.7 v -0.7 l 0.5,-1.1 0.9,-0.7 1.2,-0.4 1.2,0.3 1.2,0.9 0.7,0.8 0.7,1.3 0.1,1.3 -0.6,1.1 -0.8,0.7 -1.2,0.4 -0.6,-0.1 -0.9,-0.6 m 0.7,-8.7 0.3,-0.9 -0.1,-1.9 6.8,8"
         stroke="#000000"
         stroke-width="1"
         id="path119" />
      <path
         d="m 1916.2,279.5 -0.6,3.7 4.3,1.1 -0.4,-0.5 -0.3,-1.2 0.2,-1.1 0.7,-1 1.1,-0.6 1.5,-0.1 1,0.2 1.4,0.6 0.9,0.9 0.3,1.2 -0.2,1.1 -0.7,1.1 -0.5,0.2 -1.1,0.2 m -6.7,-11.6 6.2,4.8 1,-5.5 m -7.2,0.7 10.3,1.7"
         stroke="#000000"
         stroke-width="1"
         id="path120" />
      <path
         d="m 1806.8,549 -7.3,3.2 4.5,3.5 m 2.8,-6.7 -6.5,8.3 m 11.5,-2.4 0.3,-1 -0.6,-1.1 -0.6,-0.4 -1.2,-0.3 -1.5,0.7 -1.8,1.7 -1.6,2 -0.9,1.8 v 1.3 l 0.6,1.1 0.3,0.2 1.1,0.3 1.3,-0.3 1.2,-1 0.3,-0.4 0.6,-1.4 v -1.3 l -0.5,-1 -0.3,-0.3 -1.2,-0.3 -1.2,0.4 -1.3,0.9"
         stroke="#000000"
         stroke-width="1"
         id="path121" />
      <path
         d="m 1912.3,491.7 3.7,0.9 1.4,-4.3 -0.5,0.4 -1.2,0.2 -1.1,-0.2 -1,-0.8 -0.5,-1.1 v -1.6 l 0.2,-0.9 0.7,-1.4 1,-0.8 1.2,-0.2 1.1,0.2 1,0.8 0.2,0.5 0.1,1.1 m -12.5,5.8 3.6,0.8 1.4,-4.3 -0.5,0.4 -1.2,0.3 -1.1,-0.3 -0.9,-0.7 -0.5,-1.2 -0.1,-1.5 0.3,-1 0.7,-1.4 0.9,-0.8 1.2,-0.2 1.1,0.2 1,0.8 0.3,0.6 0.1,1"
         stroke="#000000"
         stroke-width="1"
         id="path122" />
      <path
         d="m 1912.8,446.9 -3.7,0.2 -0.1,4.5 0.3,-0.5 1.1,-0.6 h 1.1 l 1.2,0.4 0.8,1 0.4,1.5 0.1,1 -0.3,1.5 -0.7,1 -1.1,0.6 h -1.1 l -1.2,-0.4 -0.4,-0.5 -0.4,-1 m 10.4,-9 -3.7,0.2 -0.2,4.5 0.4,-0.5 1.1,-0.6 1.1,-0.1 1.2,0.5 0.8,0.9 0.4,1.5 0.1,1 -0.3,1.5 -0.7,1.1 -1.1,0.5 -1.1,0.1 -1.2,-0.5 -0.4,-0.4 -0.4,-1"
         stroke="#000000"
         stroke-width="1"
         id="path123" />
      <path
         d="m 1875.8,73.8 -0.4,0.3 -0.9,0.5 -0.6,0.2 -0.9,-0.1 -1.1,-1 -0.3,-0.9 0.1,-0.6 0.4,-1 0.6,-0.8 1,-0.5 1.5,-0.6 6.2,-1.3 -4,-3.5 m -9.5,5.6 1.2,0.4 1.5,-0.6 2,-1.6 0.9,-1.2 1.4,-2.1 0.5,-1.6 -0.6,-1.1 -0.5,-0.5 -1.2,-0.4 -1.6,0.6 -1.9,1.7 -1,1.1 -1.4,2.1 -0.4,1.6 0.5,1.1 0.4,0.4"
         stroke="#000000"
         stroke-width="1"
         id="path124" />
      <path
         d="m 1834.4,132.6 0.2,0.9 0.9,1.6 -9.6,-4.1 m 7.7,9.4 1.5,-3.4 -4,-2.1 0.3,0.5 v 1.3 l -0.4,1 -0.9,0.8 -1.2,0.3 -1.5,-0.2 -1,-0.4 -1.2,-0.9 -0.6,-1.1 V 135 l 0.4,-1.1 0.9,-0.8 0.6,-0.2 1.1,0.1"
         stroke="#000000"
         stroke-width="1"
         id="path125" />
      <path
         d="m 1822.8,217.7 0.8,-0.3 1.4,-1.2 -2.4,10.2 m 7.5,-9.5 -5.2,5.9 5.4,1.3 m -0.2,-7.2 -2.4,10.2"
         stroke="#000000"
         stroke-width="1"
         id="path126" />
      <path
         d="m 1983.3,336.6 2.5,-2.8 -3.1,-3.3 0.1,0.6 -0.4,1.2 -0.7,0.8 -1.1,0.5 -1.3,-0.1 -1.4,-0.7 -0.7,-0.7 -0.9,-1.3 -0.2,-1.2 0.4,-1.2 0.7,-0.8 1.1,-0.5 h 0.7 l 1,0.4 m -0.6,13.5 -2.7,-7.5 -3.7,4.2 m 6.4,3.3 -7.8,-7"
         stroke="#000000"
         stroke-width="1"
         id="path127" />
      <path
         d="m 2014.5,441.4 -0.5,-0.9 -1.2,-0.4 h -0.7 l -1.1,0.6 -0.6,1.6 -0.1,2.5 0.2,2.5 0.5,2 0.9,0.9 1.2,0.4 0.3,-0.1 1.1,-0.6 0.7,-1 0.2,-1.5 -0.1,-0.5 -0.5,-1.5 -0.8,-0.9 -1.2,-0.4 h -0.4 l -1,0.6 -0.7,1.1 -0.2,1.5 m 5.5,-5.2 0.7,-0.5 1,-1.6 0.9,10.4"
         stroke="#000000"
         stroke-width="1"
         id="path128" />
      <path
         d="m 2058.1,381.6 -0.5,-0.1 -1,-0.6 -0.4,-0.4 -0.3,-0.8 0.2,-1.5 0.7,-0.7 0.5,-0.3 1.1,-0.1 0.9,0.1 1,0.6 1.3,1 4.3,4.6 0.9,-5.2 m -7.6,-3.2 -0.4,-0.1 -1,-0.6 -0.4,-0.4 -0.3,-0.8 0.2,-1.5 0.6,-0.7 0.6,-0.2 1.1,-0.2 0.9,0.1 1,0.6 1.3,1 4.3,4.6 0.9,-5.2"
         stroke="#000000"
         stroke-width="1"
         id="path129" />
      <path
         d="m 2046,313.7 -0.1,0.5 -0.4,1 -0.4,0.5 -0.8,0.4 -1.5,-0.1 -0.7,-0.6 -0.4,-0.5 -0.2,-1.1 0.1,-1 0.4,-0.9 0.9,-1.5 4.2,-4.6 -5.2,-0.5 m -1.8,8 -0.8,0.5 -1.3,1.4 1,-10.5"
         stroke="#000000"
         stroke-width="1"
         id="path130" />
      <path
         d="m 1927.9,62.8 0.4,0.3 0.5,1 0.1,0.6 -0.2,0.9 -1,1.1 -0.8,0.2 -0.7,-0.1 -1,-0.4 -0.7,-0.7 -0.5,-0.9 -0.6,-1.6 -1.1,-6.1 -3.6,3.9 m 5.4,9.6 0.4,-1.2 -0.6,-1.5 -1.6,-2 -1.1,-1 -2.1,-1.4 -1.6,-0.5 -1.1,0.5 -0.5,0.5 -0.4,1.2 0.6,1.6 1.6,1.9 1.1,1.1 2.1,1.4 1.6,0.4 1.1,-0.5 0.4,-0.4"
         stroke="#000000"
         stroke-width="1"
         id="path131" />
      <path
         d="m 1958.2,207.6 -0.3,-0.4 -0.3,-1 v -0.7 l 0.2,-0.8 1.2,-1 h 0.9 l 0.6,0.1 0.9,0.5 0.7,0.8 0.3,1 0.3,1.7 0.3,6.2 4.1,-3.3 m -4.3,-7 0.2,-0.8 V 201 l 6.6,8.2"
         stroke="#000000"
         stroke-width="1"
         id="path132" />
      <path
         d="m 2035.4,162.7 0.6,-0.7 0.6,-1.8 3.4,9.9 m 2.3,-10.7 -0.7,-0.8 -1.2,-0.1 -0.7,0.2 -0.9,0.9 -0.2,1.6 0.4,2.5 0.9,2.4 1,1.7 1,0.7 1.2,0.1 0.4,-0.1 0.9,-0.8 0.4,-1.2 -0.2,-1.6 -0.1,-0.4 -0.9,-1.3 -1,-0.7 -1.2,-0.1 -0.4,0.1 -0.9,0.9 -0.4,1.1 0.2,1.6"
         stroke="#000000"
         stroke-width="1"
         id="path133" />
      <path
         d="m 2005.2,111 -0.9,-0.1 -1.8,0.5 6.5,-8.3 m -11.1,5.1 2.9,2.3 3.1,-3.3 -0.6,0.1 -1.2,-0.3 -0.9,-0.7 -0.6,-1 V 104 l 0.7,-1.4 0.6,-0.8 1.2,-0.9 1.2,-0.4 1.2,0.3 0.9,0.7 0.6,1.1 -0.1,0.6 -0.3,1"
         stroke="#000000"
         stroke-width="1"
         id="path134" />
      <path
         d="m 1996.2,529.3 -0.4,1 0.4,1.2 0.6,0.5 1.2,0.3 1.5,-0.5 2,-1.6 1.7,-1.9 1.1,-1.7 0.1,-1.3 -0.5,-1.1 -0.3,-0.2 -1.2,-0.4 -1.2,0.2 -1.3,0.9 -0.3,0.3 -0.7,1.4 -0.2,1.2 0.5,1.2 0.3,0.2 1.2,0.4 1.2,-0.2 1.3,-0.9 m -7.5,-0.6 -0.9,-0.1 -1.9,0.3 7.1,-7.7"
         stroke="#000000"
         stroke-width="1"
         id="path135" />
      <path
         d="m 1881.6,677.9 -0.9,-0.6 -1.2,0.3 -0.6,0.4 -0.6,1.1 0.3,1.6 1.2,2.3 1.5,2 1.5,1.3 1.2,0.4 1.2,-0.3 0.3,-0.2 0.6,-1.1 v -1.3 l -0.6,-1.4 -0.3,-0.4 -1.2,-1 -1.2,-0.3 -1.2,0.3 -0.3,0.2 -0.6,1.1 v 1.2 l 0.6,1.5 m 4.2,-12 -3,2.3 2.4,3.8 v -0.6 l 0.6,-1.1 0.9,-0.7 1.2,-0.3 1.2,0.4 1.2,1 0.6,0.7 0.6,1.5 v 1.2 l -0.6,1.1 -0.9,0.7 -1.2,0.3 -0.6,-0.2 -0.9,-0.6"
         stroke="#000000"
         stroke-width="1"
         id="path136" />
      <path
         d="m 1863.7,660 -6.8,-4.2 -0.4,5.6 m 7.2,-1.4 -10.5,-0.7 m 9.8,8.8 -10.2,-4.5 m 10.6,-0.7 -0.4,5.2"
         stroke="#000000"
         stroke-width="1"
         id="path137" />
      <path
         d="m 1640.2,414.5 -7.5,-2.6 0.9,5.5 m 6.6,-2.9 -10.3,1.6 m 8.4,1.7 0.6,0.7 1.6,0.8 -10.4,1.7"
         stroke="#000000"
         stroke-width="1"
         id="path138" />
      <path
         d="m 1745.4,306.8 10.9,2 m -10.1,3.2 -0.8,-5.2"
         stroke="#000000"
         stroke-width="1"
         id="path139" />
      <path
         d="m 1649.1,276.2 1.1,0.1 0.9,-0.8 0.3,-0.7 0.1,-1.2 -1,-1.3 -2.1,-1.5 -2.3,-1.1 -1.9,-0.5 -1.2,0.2 -1,0.8 -0.2,0.3 v 1.3 l 0.6,1.1 1.1,1 0.5,0.2 1.5,0.3 1.2,-0.2 1,-0.8 0.1,-0.3 0.1,-1.3 -0.6,-1.1 -1.2,-1"
         stroke="#000000"
         stroke-width="1"
         id="path140" />
      <path
         d="m 1741.9,208.5 -0.4,-0.8 -1.4,-1.3 10.5,0.9 m -8.9,-6.4 -1,0.3 -0.6,1 -0.1,0.8 0.4,1.2 1.5,0.8 2.4,0.6 2.5,0.2 2,-0.2 1.1,-0.6 0.6,-1.1 v -0.4 l -0.4,-1.2 -0.9,-0.8 -1.5,-0.5 h -0.5 l -1.5,0.2 -1,0.7 -0.6,1.1 -0.1,0.3 0.4,1.2 1,0.8 1.4,0.5"
         stroke="#000000"
         stroke-width="1"
         id="path141" />
      <path
         d="m 1670.6,162 0.6,0.7 1.6,0.9 -10.4,1.3 m 11.5,4.9 -10.9,-2.5 m 10.3,-2.7 0.6,5.2"
         stroke="#000000"
         stroke-width="1"
         id="path142" />
      <path
         d="m 1690,66.5 0.4,0.2 0.8,0.7 0.3,0.6 0.2,0.9 -0.6,1.3 -0.8,0.5 -0.6,0.2 -1.1,-0.1 -0.9,-0.4 -0.8,-0.7 -1,-1.3 -3.1,-5.4 -2.1,4.8 m 6,8.8 h 1 l 0.9,-0.8 0.3,-0.7 v -1.2 l -1,-1.3 -2.2,-1.3 -2.3,-1 -2,-0.5 -1.2,0.3 -0.9,0.8 -0.1,0.4 v 1.2 l 0.6,1.1 1.2,0.9 0.5,0.2 1.5,0.3 1.2,-0.3 0.9,-0.8 0.2,-0.4 v -1.2 l -0.7,-1.1 -1.2,-0.9"
         stroke="#000000"
         stroke-width="1"
         id="path143" />
      <path
         d="m 1762.1,32.7 v 0.5 l -0.5,1 -0.4,0.4 -0.8,0.4 -1.5,-0.1 -0.7,-0.6 -0.3,-0.6 -0.3,-1 0.1,-1 0.5,-0.9 0.9,-1.4 4.4,-4.6 -5.2,-0.6 m -3.2,10.2 -4.1,-0.5 2.7,-3.7 -1.1,-0.1 -0.7,-0.6 -0.3,-0.5 -0.2,-1.6 0.1,-1 0.6,-1.4 0.9,-0.9 1.1,-0.4 1.1,0.2 1.1,0.6 0.3,0.5 0.3,1.1"
         stroke="#000000"
         stroke-width="1"
         id="path144" />
      <path
         d="m 1773.4,95.9 -0.5,-0.2 -0.7,-0.8 -0.3,-0.5 -0.2,-0.9 0.6,-1.4 0.7,-0.5 0.6,-0.1 h 1.1 l 0.9,0.4 0.8,0.8 1.1,1.2 3.1,5.4 2.1,-4.8 m -6.7,-4.8 -0.4,-0.2 -0.8,-0.7 -0.3,-0.6 -0.2,-0.9 0.6,-1.3 0.8,-0.5 0.6,-0.2 1,0.1 1,0.4 0.7,0.7 1.1,1.3 3.1,5.4 2.1,-4.8"
         stroke="#000000"
         stroke-width="1"
         id="path145" />
      <path
         d="m 2064.2,603.2 -0.4,0.3 -1,0.3 h -0.7 l -0.8,-0.2 -1,-1.2 v -0.9 l 0.1,-0.6 0.6,-0.9 0.7,-0.7 1.1,-0.3 1.6,-0.3 6.2,-0.3 -3.2,-4 m -9.4,5 -2.6,-3.2 4.5,-0.7 -0.7,-0.9 -0.1,-0.9 0.2,-0.6 0.9,-1.2 0.8,-0.7 1.4,-0.6 h 1.3 l 1.1,0.5 0.7,0.9 0.3,1.2 -0.2,0.6 -0.5,0.9"
         stroke="#000000"
         stroke-width="1"
         id="path146" />
      <path
         d="m 2017.6,631.1 -2.8,10.8 m -2.5,-10.3 5.3,-0.5 m 2,2.3 v -0.5 l 0.2,-1.1 0.4,-0.5 0.7,-0.6 1.5,-0.1 0.7,0.4 0.5,0.5 0.4,0.9 0.1,1 -0.2,1.1 -0.6,1.5 -3.3,5.4 5.2,-0.5"
         stroke="#000000"
         stroke-width="1"
         id="path147" />
    </g>
    <path
       d="m 1829.6,318.4 -5.6,15.8 m -2.3,-15.8 h 7.9"
       id="titre_7"
       stroke="#4b0082"
       style="stroke-width:2.53872" />
  </g>
  <g
     id="page_005"
     transform="translate(51.128165,10.654624)">
    <path
       d="m 2250.3,574 74.6,117.1 -96.7,35 -86.4,-138.8 -1,-121.1 52.2,-143.9 -3.6,-75.6 105.7,-17.5 10.6,114.2 -39.1,127 z m -17,-395.9 19.7,-126.9 107.1,3.6 75.5,4 -37.2,148.5 121,-2.7 -73.6,-146 64.3,-17.8 114,-34.1 -19.4,185.6 18.1,194.5 12.2,138.4 -64.6,112.9 -132.3,31.7 -163.8,-61.2 71.4,-179 106.3,119 74.7,-70.4 -101.2,17.3 49.2,-151.7 -162.5,-103.6 z"
       id="coupes_005"
       stroke="#ff0000"
       stroke-width="1.27" />
    <path
       d="m 2266.6,470.4 -73.6,-148.1 112.7,21.1 -116.3,-96.7 m -48.6,219.5 109.5,107.8 -22.1,152.1 m 406.8,-200.9 -108.3,-47 96.1,-91.4 -148.1,-43 m -22.7,204.8 118.4,89.5 -43.7,-159.9 -52,-134.4 130,-151.5 -94.6,-151.5 9.3,163.8 -44.7,139.2 -76.3,-136.5 -38.3,-152.5 -47.9,185.4 -59.2,-189 m 185.1,618.6 13.9,-121.2 -177.7,60"
       id="plisM_005"
       stroke="#a52a2a"
       stroke-dasharray="4" />
    <path
       d="m 2247.3,330.9 4,4 m 0,-4 -4,4 m -19.5,59.4 4,4 m 0,-4 -4,4 m 17.8,-105.2 4,4 m 0,-4 -4,4 m -52.1,221 4,4 m 0,-4 -4,4 m 43.8,125.9 4,4 m 0,-4 -4,4 m 318.1,-537.4 4,4 m 0,-4 -4,4 m -42.7,2.1 4,4 m 0,-4 -4,4 m 25,141.3 4,4 m 0,-4 -4,4 m -42.6,2.2 4,4 m 0,-4 -4,4 m 51.7,87.1 4,4 m 0,-4 -4,4 m -112.3,-93.8 4,4 m 0,-4 -4,4 m 138.3,153 4,4 m 0,-4 -4,4 m -74.1,-25.5 4,4 m 0,-4 -4,4 m 80.2,86.7 4,4 m 0,-4 -4,4 m -32.3,52.4 4,4 m 0,-4 -4,4 m -212.5,-414.6 4,4 m 0,-4 -4,4 m 43.1,-20.4 4,4 m 0,-4 -4,4 m -96.6,10.6 4,4 m 0,-4 -4,4 m 228.6,443.6 4,4 m 0,-4 -4,4 m -66.2,11.9 4,4 m 0,-4 -4,4 m -81.9,-34.6 4,4 m 0,-4 -4,4"
       display="none"
       id="marqueM_005"
       stroke="#a52a2a" />
    <path
       d="m 2266.6,470.4 -125.8,-4.2 m 109.5,107.8 -108.5,13.3 m 462.9,-395 -85.3,12.3 m -207.2,35.6 86.2,-32.9"
       id="plisV_005"
       stroke="#008000"
       stroke-dasharray="4, 1, 1, 1"
       stroke-width="1.27" />
    <path
       d="m 2201.7,466.3 4,4 m 0,-4 -4,4 m -7.7,108.3 4,4 m 0,-4 -4,4 m 366.1,-386.2 4,4 m 0,-4 -4,4 m -206.8,21.4 4,4 m 0,-4 -4,4"
       id="marqueV_005"
       stroke="#008000" />
    <g
       id="nums_005">
      <path
         d="m 2273.6,409.2 -0.4,-0.1 -0.9,-0.7 -0.3,-0.5 -0.3,-0.9 0.4,-1.4 0.7,-0.6 0.6,-0.2 h 1.1 l 0.9,0.3 0.9,0.6 1.2,1.2 3.7,5 1.5,-5 m -9.1,-6 0.1,1.2 0.9,0.7 0.9,0.3 1.1,-0.1 0.7,-0.6 0.9,-1.3 0.8,-0.9 1.2,-0.4 1.1,-0.1 1.4,0.5 0.9,0.6 0.3,0.5 0.2,1.2 -0.5,1.5 -0.8,0.9 -0.6,0.2 -1,0.1 -1.5,-0.5 -0.8,-0.6 -0.8,-1 -0.1,-1.2 v -1.6 l -0.3,-0.9 -0.8,-0.6 -1,-0.3 h -1.1 l -0.8,1 -0.5,1.6"
         stroke="#000000"
         stroke-width="1"
         id="path148" />
      <path
         d="m 2203.4,282.5 1,-0.5 0.4,-1.1 v -0.8 l -0.6,-1.1 -1.5,-0.6 -2.5,-0.3 -2.5,0.1 -2,0.5 -1,0.8 -0.4,1.1 v 0.4 l 0.6,1.1 1,0.7 1.5,0.3 h 0.5 l 1.5,-0.4 1,-0.8 0.4,-1.2 v -0.4 l -0.6,-1.1 -1,-0.7 -1.5,-0.3 m 7.5,10.8 -10.7,-3.2 m 10.5,-2 0.2,5.2"
         stroke="#000000"
         stroke-width="1"
         id="path149" />
      <path
         d="m 2245.5,251.4 2,-11 m 3.2,10.1 -5.2,0.9 m -5.8,-0.6 0.5,1 1.2,0.3 0.7,-0.2 1.1,-0.6 0.5,-1.6 -0.1,-2.6 -0.4,-2.4 -0.7,-1.9 -0.9,-0.9 -1.2,-0.3 h -0.3 l -1.1,0.7 -0.5,1.1 -0.2,1.6 0.1,0.5 0.6,1.4 0.9,0.8 1.2,0.4 0.4,-0.1 1,-0.7 0.6,-1.1 0.1,-1.5"
         stroke="#000000"
         stroke-width="1"
         id="path150" />
      <path
         d="m 2289.7,293.2 h -0.5 l -1,-0.2 -0.5,-0.4 -0.6,-0.7 -0.1,-1.5 0.4,-0.7 0.5,-0.5 0.9,-0.4 1,-0.1 1.1,0.3 1.5,0.6 5.3,3.2 -0.4,-5.2 m -7.6,-5.4 1.6,0.3 1,0.6 0.6,1.1 0.1,0.4 -0.4,1.1 -1,0.9 -1.4,0.5 h -0.5 l -1.5,-0.2 -1.1,-0.7 -0.6,-1 v -0.4 l 0.3,-1.2 1,-0.8 1.9,-0.6 2.5,-0.2 2.5,0.1 1.6,0.6 0.6,1.1 0.1,0.8 -0.4,1.1 -1,0.5"
         stroke="#000000"
         stroke-width="1"
         id="path151" />
      <path
         d="m 2178.9,397 1.1,-0.1 0.9,-0.8 0.2,-0.8 -0.1,-1.2 -1.1,-1.2 -2.2,-1.2 -2.4,-0.9 -2,-0.3 -1.2,0.4 -0.9,0.9 -0.1,0.3 0.1,1.2 0.7,1.1 1.3,0.9 0.4,0.1 1.6,0.2 1.2,-0.4 0.8,-0.9 0.2,-0.3 -0.1,-1.2 -0.7,-1.1 -1.3,-0.9 m 3.9,9.9 -0.1,-1.2 -0.8,-0.7 -1,-0.4 h -1 l -0.8,0.6 -0.9,1.2 -0.9,0.9 -1.2,0.4 h -1.1 l -1.4,-0.5 -0.8,-0.7 -0.3,-0.6 -0.1,-1.2 0.5,-1.4 0.9,-0.9 0.6,-0.2 h 1 l 1.4,0.5 0.8,0.7 0.7,1.1 0.1,1.2 v 1.6 l 0.2,0.9 0.8,0.7 0.9,0.3 h 1.1 l 0.9,-0.9 0.5,-1.6"
         stroke="#000000"
         stroke-width="1"
         id="path152" />
      <path
         d="m 2244.2,524.4 0.3,1.1 0.9,0.6 1,0.1 1.1,-0.2 0.6,-0.7 0.7,-1.4 0.7,-1 1.1,-0.6 1,-0.2 1.5,0.2 0.9,0.6 0.5,0.4 0.3,1.2 -0.3,1.5 -0.6,1 -0.6,0.3 -1,0.2 -1.5,-0.2 -0.9,-0.5 -0.9,-0.9 -0.3,-1.2 -0.3,-1.6 -0.4,-0.8 -0.9,-0.5 -1,-0.2 -1,0.2 -0.7,1.1 -0.3,1.6 m 1.1,-6.9 0.4,1.2 1.3,1 2.4,0.7 1.5,0.3 h 2.5 l 1.6,-0.5 0.7,-1 0.1,-0.8 -0.3,-1.2 -1.4,-0.9 -2.4,-0.8 -1.5,-0.2 -2.5,-0.1 -1.6,0.6 -0.6,1 -0.1,0.5"
         stroke="#000000"
         stroke-width="1"
         id="path153" />
      <path
         d="m 2155,524.9 v -3.8 l -4.5,-0.3 0.5,0.4 0.5,1.1 v 1.1 l -0.5,1.2 -1,0.7 -1.5,0.4 h -1 l -1.5,-0.4 -1,-0.7 -0.5,-1.1 v -1.1 l 0.5,-1.2 0.5,-0.4 1,-0.3 m 7.1,10.8 1,-0.3 0.4,-1.2 v -0.7 l -0.5,-1.1 -1.5,-0.8 -2.5,-0.3 h -2.5 l -2,0.4 -1,0.7 -0.5,1.2 v 0.3 l 0.6,1.2 1,0.7 1.5,0.4 h 0.5 l 1.5,-0.4 1,-0.8 0.4,-1.1 v -0.4 l -0.5,-1.1 -1,-0.7 -1.5,-0.4"
         stroke="#000000"
         stroke-width="1"
         id="path154" />
      <path
         d="m 2195.7,647.8 -2,-3.2 -4,2.1 h 0.6 l 1,0.7 0.6,1 0.2,1.2 -0.5,1.2 -1,1.1 -0.9,0.5 -1.5,0.5 -1.2,-0.1 -1,-0.7 -0.6,-1 -0.2,-1.2 0.2,-0.6 0.7,-0.8 m 8.8,2.8 0.4,-0.2 1.1,-0.3 0.6,0.1 0.8,0.4 0.8,1.2 v 0.9 l -0.2,0.6 -0.7,0.9 -0.8,0.5 -1.1,0.2 -1.6,0.2 -6.3,-0.6 2.8,4.5"
         stroke="#000000"
         stroke-width="1"
         id="path155" />
      <path
         d="m 2271,696 v 11.2 m -5,-9.4 5,-1.8 m 6.9,1.2 0.1,1.6 -0.4,1.2 -0.8,0.8 -0.4,0.1 h -1.2 l -1.1,-0.7 -0.8,-1.3 -0.2,-0.5 -0.2,-1.5 0.4,-1.2 0.9,-0.9 0.3,-0.1 1.3,0.1 1,0.7 1.1,1.7 0.8,2.4 0.5,2.5 -0.2,1.6 -0.9,0.9 -0.7,0.2 -1.2,-0.1 -0.7,-0.8"
         stroke="#000000"
         stroke-width="1"
         id="path156" />
      <path
         d="m 2280.5,642.7 -0.8,-0.4 -1.9,-0.1 8.9,-5.7 m -8,3 -0.4,0.2 -1.1,0.3 -0.6,-0.1 -0.8,-0.4 -0.8,-1.2 v -0.9 l 0.2,-0.6 0.6,-0.9 0.9,-0.5 1,-0.2 1.7,-0.2 6.2,0.5 -2.8,-4.4"
         stroke="#000000"
         stroke-width="1"
         id="path157" />
      <path
         d="m 2573.8,36.2 1.6,-7.8 -5.4,1.6 m 3.8,6.2 -3,-10.1 m -2.1,11.5 0.9,-0.8 0.3,-1.6 -0.4,-2.5 -0.4,-1.5 -1.1,-2.3 -1.1,-1.2 -1.2,-0.1 -0.8,0.2 -0.9,0.8 -0.3,1.6 0.4,2.5 0.4,1.5 1.1,2.3 1.1,1.2 1.3,0.1 0.5,-0.1"
         stroke="#000000"
         stroke-width="1"
         id="path158" />
      <path
         d="m 2602.9,99.7 -0.4,-0.8 -1.4,-1.3 10.5,1.1"
         stroke="#000000"
         stroke-width="1"
         id="path159" />
      <path
         d="m 2494,123.7 -1.7,-3.4 -4.2,1.7 0.7,0.1 0.9,0.8 0.5,1 0.1,1.2 -0.6,1.2 -1.1,1 -0.9,0.4 -1.5,0.4 -1.3,-0.3 -0.9,-0.7 -0.5,-1 -0.1,-1.3 0.3,-0.5 0.7,-0.8 m 8.6,3.6 0.4,-0.2 1.1,-0.1 0.6,0.1 0.8,0.4 0.6,1.3 -0.1,0.9 -0.3,0.6 -0.7,0.8 -0.9,0.4 -1,0.2 h -1.7 l -6.2,-1.1 2.4,4.6"
         stroke="#000000"
         stroke-width="1"
         id="path160" />
      <path
         d="m 2483.3,62.5 3.6,-1 -0.9,-4.4 -0.2,0.5 -0.9,0.8 -1.1,0.3 -1.2,-0.2 -1,-0.7 -0.8,-1.4 -0.3,-0.9 v -1.6 l 0.5,-1.1 0.9,-0.8 1.1,-0.3 1.2,0.2 0.5,0.3 0.6,0.9 m -4.6,10.1 -4,1.1 1.1,-4.5 -1,0.3 -0.9,-0.2 -0.5,-0.4 -0.8,-1.4 -0.2,-0.9 -0.1,-1.6 0.5,-1.1 0.9,-0.8 1.1,-0.3 1.2,0.2 0.5,0.3 0.7,0.9"
         stroke="#000000"
         stroke-width="1"
         id="path161" />
      <path
         d="m 2600.3,293.1 -0.4,-4.1 4.2,1.9 -0.1,-1.1 0.4,-0.8 0.5,-0.4 1.4,-0.5 1,-0.1 1.6,0.2 1,0.7 0.6,1 0.1,1.1 -0.4,1.2 -0.4,0.4 -1,0.5"
         stroke="#000000"
         stroke-width="1"
         id="path162" />
      <path
         d="m 2460.9,219.6 3.8,-0.1 0.3,-4.5 -0.4,0.5 -1.1,0.6 h -1.1 l -1.2,-0.5 -0.7,-1 -0.4,-1.4 -0.1,-1 0.4,-1.6 0.7,-1 1.1,-0.5 h 1.1 l 1.2,0.5 0.4,0.4 0.4,1 m -10.8,7.3 0.4,1 1.1,0.4 h 0.8 l 1.1,-0.5 0.7,-1.5 0.3,-2.5 v -2.5 l -0.5,-2 -0.7,-1 -1.2,-0.5 h -0.4 l -1.1,0.6 -0.7,1 -0.3,1.5 v 0.5 l 0.4,1.5 0.8,1 1.1,0.4 h 0.4 l 1.1,-0.5 0.7,-1 0.4,-1.5"
         stroke="#000000"
         stroke-width="1"
         id="path163" />
      <path
         d="m 2615.1,456.6 7.3,3.1 -0.5,-5.6 m -6.8,2.5 10.4,-0.9"
         stroke="#000000"
         stroke-width="1"
         id="path164" />
      <path
         d="m 2590.5,580 v -0.9 l -0.8,-1.8 9.1,5.2 m -7.9,-8 -0.1,1.2 0.7,0.8 0.9,0.5 1,0.2 0.8,-0.4 1.2,-1 1,-0.8 1.2,-0.1 1.1,0.1 1.3,0.8 0.7,0.8 0.2,0.6 -0.1,1.2 -0.7,1.3 -1,0.7 -0.7,0.1 -1,-0.1 -1.3,-0.8 -0.7,-0.8 -0.5,-1.2 0.1,-1.2 0.3,-1.5 V 574 l -0.7,-0.9 -0.9,-0.5 -1,-0.1 -1,0.7 -0.8,1.5"
         stroke="#000000"
         stroke-width="1"
         id="path165" />
      <path
         d="m 2399.4,279.5 -3.2,-2.1 -2.7,3.6 0.5,-0.2 1.3,0.2 0.9,0.6 0.7,1 0.1,1.3 -0.5,1.4 -0.5,0.9 -1.2,1.1 -1.1,0.4 -1.2,-0.2 -1,-0.6 -0.7,-1 v -0.6 l 0.2,-1.1 m 14.3,-1 -8.8,6.9 m 4.3,-9.7 4.5,2.8"
         stroke="#000000"
         stroke-width="1"
         id="path166" />
      <path
         d="m 2398.7,69.1 0.3,1 1.1,0.6 h 0.7 l 1.2,-0.4 0.8,-1.5 0.5,-2.5 0.1,-2.5 -0.2,-2 -0.7,-1 -1.1,-0.6 h -0.4 l -1.1,0.5 -0.8,0.9 -0.5,1.5 v 0.5 l 0.3,1.5 0.7,1 1.1,0.6 h 0.3 l 1.2,-0.4 0.8,-1 0.4,-1.5 m -11.4,6.5 4.3,-10.3 m 0.9,10.5 -5.2,-0.2"
         stroke="#000000"
         stroke-width="1"
         id="path167" />
      <path
         d="m 2404.7,131.6 -1,0.1 -0.8,1 -0.2,0.7 0.2,1.2 1.3,1.1 2.3,1 2.5,0.6 2,0.1 1.1,-0.5 0.8,-1 0.1,-0.3 -0.2,-1.2 -0.8,-1 -1.4,-0.7 -0.5,-0.2 h -1.5 l -1.2,0.5 -0.7,1 -0.1,0.4 0.2,1.2 0.8,0.9 1.4,0.8 m -4.9,-9.4 0.2,1.2 0.9,0.6 1,0.2 1,-0.1 0.7,-0.6 0.8,-1.3 0.8,-1 1.1,-0.5 1.1,-0.1 1.5,0.4 0.8,0.6 0.4,0.5 0.2,1.2 -0.3,1.4 -0.8,1 -0.6,0.2 -1,0.2 -1.5,-0.4 -0.9,-0.6 -0.7,-1 -0.3,-1.2 -0.1,-1.6 -0.3,-0.8 -0.9,-0.6 -0.9,-0.3 -1.1,0.1 -0.7,1 -0.5,1.7"
         stroke="#000000"
         stroke-width="1"
         id="path168" />
      <path
         d="m 2307.1,66.8 4.1,-10.4 m 1.1,10.6 -5.2,-0.2 m -5.6,-1.7 0.3,1 1.1,0.6 h 0.8 l 1.1,-0.5 0.8,-1.5 0.5,-2.4 v -2.5 l -0.3,-2.1 -0.7,-1 -1.1,-0.5 h -0.4 l -1.1,0.4 -0.8,1 -0.4,1.5 v 0.5 l 0.3,1.5 0.7,1 1.1,0.6 h 0.4 l 1.1,-0.5 0.8,-1 0.4,-1.4"
         stroke="#000000"
         stroke-width="1"
         id="path169" />
      <path
         d="m 2257.6,111.3 -0.7,4.1 -3.6,-2.8 -0.1,1.1 -0.6,0.7 -0.6,0.2 -1.5,0.2 -1,-0.2 -1.5,-0.6 -0.8,-0.9 -0.3,-1.2 0.1,-1.1 0.7,-1 0.5,-0.3 1.1,-0.2 m 7.1,9.9 -0.4,-1.2 -1.3,-1 -2.4,-0.7 -1.5,-0.3 h -2.6 l -1.6,0.5 -0.6,1.1 -0.1,0.7 0.3,1.2 1.4,1 2.4,0.7 1.4,0.3 h 2.6 l 1.6,-0.5 0.6,-1.1 0.1,-0.5"
         stroke="#000000"
         stroke-width="1"
         id="path170" />
      <path
         d="m 2280.4,197.7 -9.5,5.9 m 5.3,-9.2 4.2,3.3 m 2.4,1.9 -1.2,-0.3 -0.9,0.5 -0.6,0.8 -0.4,1 0.3,0.9 0.9,1.3 0.6,1.1 -0.1,1.3 -0.3,1 -0.9,1.2 -0.9,0.5 -0.6,0.2 -1.2,-0.3 -1.2,-1 -0.6,-1 v -0.7 l 0.3,-1 1,-1.2 0.9,-0.5 1.2,-0.3 1.2,0.3 1.5,0.5 0.9,0.1 0.9,-0.6 0.6,-0.8 0.3,-1 -0.5,-1.1 -1.4,-1"
         stroke="#000000"
         stroke-width="1"
         id="path171" />
      <path
         d="m 2500.1,522.2 2.7,-2.6 -2.8,-3.5 0.1,0.6 -0.5,1.2 -0.8,0.7 -1.2,0.4 -1.2,-0.2 -1.3,-0.8 -0.7,-0.7 -0.8,-1.4 -0.1,-1.2 0.5,-1.2 0.8,-0.7 1.1,-0.4 0.7,0.1 0.9,0.4 m -0.2,11.9 0.5,-1.1 -0.5,-1 -0.6,-0.7 -1,-0.5 -0.9,0.2 -1.4,0.6 -1.2,0.4 -1.2,-0.2 -1,-0.5 -1,-1 -0.4,-1 -0.1,-0.7 0.5,-1.1 1.1,-1 1.2,-0.4 0.6,0.1 0.9,0.5 1.1,1 0.4,1 0.1,1.3 -0.5,1.1 -0.7,1.4 -0.2,0.9 0.4,1 0.7,0.7 0.9,0.5 1.2,-0.4 1.2,-1.2"
         stroke="#000000"
         stroke-width="1"
         id="path172" />
      <path
         d="m 2495.6,641.8 4,-0.9 -1.3,4.4 1.1,-0.3 0.9,0.4 0.4,0.3 0.8,1.4 0.2,1 v 1.5 l -0.5,1.2 -1,0.7 -1.1,0.3 -1.2,-0.2 -0.5,-0.4 -0.6,-0.9 m 5.5,-7.5 -0.1,-0.5 0.1,-1 0.3,-0.6 0.6,-0.7 1.4,-0.3 0.9,0.3 0.5,0.4 0.6,0.9 0.2,0.9 -0.1,1.1 -0.4,1.6 -2.5,5.8 5.1,-1.3"
         stroke="#000000"
         stroke-width="1"
         id="path173" />
      <path
         d="m 2472.1,473.6 -3.7,0.6 0.4,4.5 0.2,-0.5 1.1,-0.7 1.1,-0.2 1.2,0.3 0.9,0.9 0.6,1.4 0.2,1 -0.1,1.5 -0.6,1.1 -1,0.7 -1.2,0.2 -1.1,-0.3 -0.5,-0.4 -0.5,-1 m 6.7,-9.7 -1,0.6 -0.2,1.1 0.2,1 0.5,0.9 0.8,0.4 1.6,0.2 1.2,0.3 0.9,0.9 0.5,0.9 0.3,1.5 -0.2,1 -0.3,0.6 -1,0.7 -1.5,0.2 -1.2,-0.3 -0.5,-0.4 -0.5,-0.9 -0.2,-1.5 0.2,-1.1 0.5,-1.1 1.1,-0.7 1.3,-0.7 0.7,-0.6 0.2,-1.1 -0.2,-1 -0.5,-0.9 -1.2,-0.3 -1.7,0.3"
         stroke="#000000"
         stroke-width="1"
         id="path174" />
      <path
         d="m 2463.7,422.2 1.2,-3.6 -4.2,-1.7 0.4,0.5 0.1,1.2 -0.3,1.1 -0.9,0.9 -1.1,0.4 -1.6,-0.1 -0.9,-0.3 -1.3,-0.8 -0.8,-1 -0.1,-1.3 0.4,-1 0.8,-0.9 0.6,-0.2 1,-0.1 m 1.3,12.3 -1.3,-0.8 -0.7,-1 -0.2,-1.3 0.2,-0.3 0.8,-0.9 1.2,-0.4 1.5,0.1 0.5,0.1 1.3,0.8 0.7,1.1 0.1,1.2 -0.1,0.3 -0.8,1 -1.2,0.4 -2,-0.3 -2.4,-0.8 -2.2,-1.1 -1.2,-1.2 -0.2,-1.2 0.3,-0.7 0.8,-0.9 1.1,-0.1"
         stroke="#000000"
         stroke-width="1"
         id="path175" />
      <path
         d="m 2360.1,625.9 -7.2,8.6 m 2.2,-10.4 5,1.8 m 0.1,2.6 0.9,-0.2 1.6,-1 -3.7,9.8"
         stroke="#000000"
         stroke-width="1"
         id="path176" />
      <path
         d="m 2323.4,522.6 1.4,-3.5 -4,-2 0.3,0.5 v 1.2 l -0.4,1.1 -0.9,0.8 -1.2,0.4 -1.5,-0.2 -0.9,-0.4 -1.3,-0.9 -0.6,-1.1 -0.1,-1.2 0.4,-1.1 0.9,-0.8 0.6,-0.2 h 1.1 m 3.6,13.9 -8.3,-7.4 m 10.3,2.5 -2,4.9"
         stroke="#000000"
         stroke-width="1"
         id="path177" />
      <path
         d="m 2389.8,499.6 2.4,2.8 3.7,-2.7 h -0.7 l -1.1,-0.5 -0.7,-0.8 -0.4,-1.2 0.2,-1.2 0.9,-1.3 0.7,-0.7 1.4,-0.7 1.3,-0.1 1.1,0.5 0.7,0.8 0.4,1.2 -0.1,0.6 -0.5,1 m -11.3,-5.1 1.4,-0.8 1.2,-0.1 1.2,0.5 0.2,0.3 0.4,1.2 -0.3,1.2 -0.8,1.3 -0.4,0.3 -1.4,0.7 -1.2,0.2 -1.1,-0.6 -0.3,-0.2 -0.4,-1.2 0.3,-1.2 1.2,-1.6 1.9,-1.7 2.1,-1.4 1.6,-0.4 1.1,0.5 0.5,0.5 0.4,1.2 -0.5,1"
         stroke="#000000"
         stroke-width="1"
         id="path178" />
    </g>
    <path
       d="m 2217.7,491.1 -1.7,0.8 -0.5,1.5 v 1.5 l 0.5,1.5 1.2,0.7 2.2,0.8 1.7,0.7 1.1,1.5 0.6,1.5 v 2.3 l -0.6,1.5 -0.5,0.7 -1.7,0.8 h -2.3 l -1.7,-0.8 -0.5,-0.7 -0.6,-1.5 v -2.3 l 0.6,-1.5 1.1,-1.5 1.7,-0.7 2.2,-0.8 1.2,-0.7 0.5,-1.5 v -1.5 l -0.5,-1.5 -1.7,-0.8 h -2.6"
       id="titre_8"
       stroke="#4b0082"
       style="stroke-width:2.53872" />
    <path
       d="m 2467.5,244.7 -0.6,2.3 -1.1,1.5 -1.7,0.7 h -0.6 l -1.7,-0.7 -1.1,-1.5 -0.6,-2.3 V 244 l 0.6,-2.3 1.1,-1.5 1.7,-0.7 h 0.6 l 1.7,0.7 1.1,1.5 0.6,3 v 3.8 l -0.6,3.7 -1.1,2.3 -1.7,0.7 h -1.1 l -1.7,-0.7 -0.6,-1.5"
       id="titre_9"
       stroke="#4b0082"
       style="stroke-width:2.53872" />
  </g>
</svg>
