<?xml version="1.0" encoding="UTF-8" standalone="no"?>
<svg
   height="841.88977pt"
   viewBox="0 0 532.99998 754.00001"
   width="595.27557pt"
   version="1.1"
   id="svg1"
   sodipodi:docname="mile_160_H12_A4x2.svg"
   inkscape:version="1.3 (0e150ed6c4, 2023-07-21)"
   xmlns:inkscape="http://www.inkscape.org/namespaces/inkscape"
   xmlns:sodipodi="http://sodipodi.sourceforge.net/DTD/sodipodi-0.dtd"
   xmlns="http://www.w3.org/2000/svg"
   xmlns:svg="http://www.w3.org/2000/svg">
  <defs
     id="defs1" />
  <sodipodi:namedview
     id="namedview1"
     pagecolor="#ffffff"
     bordercolor="#000000"
     borderopacity="0.25"
     inkscape:showpageshadow="2"
     inkscape:pageopacity="0.0"
     inkscape:pagecheckerboard="0"
     inkscape:deskcolor="#d1d1d1"
     inkscape:document-units="mm"
     showgrid="false"
     inkscape:zoom="0.53508107"
     inkscape:cx="645.69655"
     inkscape:cy="505.53087"
     inkscape:window-width="1920"
     inkscape:window-height="1057"
     inkscape:window-x="-8"
     inkscape:window-y="-8"
     inkscape:window-maximized="1"
     inkscape:current-layer="svg1" />
  <style
     type="text/css"
     id="style1"><![CDATA[
			path {
				fill: none;
				stroke-width: 0.15mm;
			}
		]]></style>
  <g
     id="page_001">
    <path
       d="m 154.6,218.3 -0.7,-0.7 -1.1,-0.1 -1.5,0.5 -0.7,0.4 -1.2,1 -0.5,0.9 0.1,0.9 0.3,0.6 0.7,0.6 1.1,0.1 1.4,-0.4 0.8,-0.4 1.2,-1 0.5,-1 -0.1,-0.9 -0.3,-0.4 m 14.9,-59.1 -0.5,-0.8 -0.1,-0.8 0.4,-0.9 0.2,-0.2 0.8,-0.5 0.8,-0.1 0.9,0.4 0.3,0.2 0.4,0.8 0.1,0.8 -0.4,0.9 -0.1,0.2 -0.9,0.5 -0.8,0.1 -1.1,-0.6 -1.2,-1 -0.9,-1.2 -0.3,-1 0.4,-0.9 0.4,-0.4 0.8,-0.5 0.6,0.1 m 55.3,57.4 h -0.7 l -1.2,0.5 2.7,-5.7 m -7,3.8 2.7,1.3 1.4,-2.3 -0.4,0.1 -0.9,-0.1 -0.8,-0.4 -0.7,-0.6 -0.3,-0.8 0.1,-1 0.3,-0.5 0.6,-0.7 0.8,-0.3 1,0.1 0.8,0.4 0.6,0.7 0.2,0.4 v 0.7 m 11,-61.4 -2.4,1.8 1.4,2.4 v -0.5 l 0.6,-0.7 0.7,-0.6 0.9,-0.3 0.9,0.2 0.7,0.5 0.4,0.5 0.3,0.9 -0.2,0.8 -0.5,0.8 -0.7,0.5 -0.9,0.3 h -0.4 l -0.6,-0.3 m -48,-59 0.6,0.2 h 1.3 l -4.4,4.5 m 6.7,-2.7 -0.9,-0.4 -1,0.3 -1.3,0.9 -0.6,0.6 -0.8,1.3 -0.2,1.1 0.4,0.8 0.5,0.4 0.8,0.4 1.1,-0.2 1.2,-0.9 0.7,-0.6 0.8,-1.3 0.2,-1.1 -0.5,-0.8 -0.3,-0.3 M 315,96 l -0.5,-0.4 -1,0.1 -0.5,0.3 -0.7,0.7 -0.1,1 0.4,1.5 0.6,1.4 0.8,0.9 0.8,0.3 1,-0.2 0.2,-0.1 0.7,-0.7 0.3,-0.8 -0.1,-0.9 -0.2,-0.3 -0.6,-0.6 -0.8,-0.3 -1,0.1 -0.2,0.1 -0.7,0.7 -0.3,0.8 0.1,1 m -58.9,214.3 -0.3,-0.9 -0.6,-0.3 h -0.6 l -0.6,0.3 -0.3,0.6 -0.3,1.2 -0.3,0.9 -0.6,0.6 -0.6,0.3 h -0.9 l -0.6,-0.3 -0.3,-0.3 -0.3,-0.9 v -1.2 l 0.3,-0.9 0.3,-0.3 0.6,-0.3 h 0.9 l 0.6,0.3 0.6,0.6 0.3,0.9 0.3,1.2 0.3,0.6 0.6,0.3 h 0.6 l 0.6,-0.3 0.3,-0.9 v -1.3 m -20.7,0.4 0.1,1 0.5,0.4 0.6,0.1 0.7,-0.2 0.4,-0.6 0.5,-1.1 0.4,-0.8 0.7,-0.5 0.6,-0.2 0.9,0.1 0.6,0.4 0.2,0.4 0.2,0.9 -0.2,1.2 -0.5,0.8 -0.3,0.3 -0.7,0.2 -0.8,-0.2 -0.6,-0.4 -0.5,-0.7 -0.1,-0.9 -0.1,-1.2 -0.2,-0.7 -0.6,-0.4 -0.6,-0.1 -0.6,0.2 -0.4,0.9 -0.3,1.3 m -117.3,-84.5 4.8,-1.8 -3.7,-2.5 m -1.1,4.3 3.5,-5.2 M 231.6,44.8 231,44.4 l -1.3,-0.3 5.4,-3.3 m -6.9,1.2 0.7,0.6 0.7,-0.1 0.5,-0.3 0.3,-0.6 V 41 l -0.4,-1.2 -0.3,-0.9 0.2,-0.8 0.4,-0.6 0.7,-0.5 0.7,-0.1 0.4,0.1 0.8,0.6 0.6,1.1 0.2,0.9 -0.1,0.4 -0.3,0.6 -0.8,0.4 -0.7,0.1 -0.8,-0.2 -0.7,-0.6 -0.9,-0.8 -0.6,-0.4 -0.6,0.1 -0.6,0.3 -0.3,0.6 0.2,0.9 0.7,1.1 m 59,9.4 -0.4,0.6 -0.2,1.2 -3.4,-5.3 m 1.3,6.9 0.5,-0.7 v -0.7 l -0.3,-0.5 -0.6,-0.3 -0.7,0.1 -1.2,0.4 -0.9,0.2 -0.8,-0.2 -0.6,-0.3 -0.5,-0.8 V 51.4 51 l 0.6,-0.7 1,-0.7 1,-0.2 0.4,0.1 0.6,0.3 0.4,0.8 0.1,0.7 -0.2,0.8 -0.6,0.7 -0.8,0.9 -0.3,0.6 V 55 l 0.4,0.5 0.5,0.3 0.9,-0.2 1.2,-0.7 m 51.6,270.4 -0.4,-0.5 -1,-0.7 6.2,-1.2 m -6.8,-0.5 -0.6,-3.2 2.7,1.3 -0.2,-0.9 0.2,-0.6 0.2,-0.4 0.9,-0.4 0.6,-0.2 0.9,0.2 0.7,0.4 0.5,0.9 0.1,0.8 -0.1,1 -0.2,0.3 -0.6,0.4 m -136.2,14 v -0.3 l 0.2,-0.7 0.3,-0.3 0.6,-0.3 1.2,-0.1 0.6,0.3 0.3,0.2 0.4,0.6 v 0.6 l -0.3,0.6 -0.5,1 -2.8,3.2 4.2,-0.3 m -40.2,-20.7 -6.9,1 m 4.6,-4.5 2.3,3.5 m -84.4,-107.4 0.2,0.7 0.7,1 -6.2,-1.2 M 175.2,57 l 0.3,-0.1 0.6,0.3 0.3,0.3 0.3,0.6 0.1,1.1 -0.2,0.7 -0.3,0.3 -0.6,0.3 -0.6,0.1 -0.6,-0.3 -0.9,-0.5 -3.2,-2.8 0.3,4.2 m 6.6,3.8 -4.4,-2.7 0.3,4.5 m 4.1,-1.8 -6.3,0.5 m 188.8,-31 v 0.3 l -0.3,0.6 -0.3,0.3 -0.5,0.4 h -1.2 l -0.7,-0.3 -0.3,-0.2 -0.3,-0.6 v -0.6 l 0.3,-0.6 0.5,-1 2.9,-3.1 -4.2,0.2 m -4.5,6.5 3,-0.1 0.2,-2.7 -0.3,0.3 -0.9,0.3 h -0.9 l -0.9,-0.2 -0.6,-0.6 -0.3,-0.9 -0.1,-0.6 0.3,-0.9 0.6,-0.6 0.8,-0.3 0.9,-0.1 1,0.3 0.3,0.3 0.3,0.5 M 176.4,19.5 v 0.3 l -0.2,0.6 -0.3,0.3 -0.6,0.4 h -1.2 l -0.6,-0.2 -0.3,-0.3 -0.4,-0.6 v -0.6 l 0.3,-0.6 0.5,-0.9 2.8,-3.2 -4.2,0.2 m -4.3,6.6 3,-0.2 0.1,-2.7 -0.3,0.3 -0.8,0.4 -0.9,0.1 -1,-0.3 -0.6,-0.5 -0.3,-0.9 -0.1,-0.6 0.3,-0.9 0.5,-0.7 0.9,-0.3 0.9,-0.1 0.9,0.2 0.3,0.3 0.4,0.6 m 268,31.4 -0.7,0.1 -1.2,0.5 2.3,-5.9 m -7.2,4.2 5.1,-4.8 m -1.2,6.3 -3.9,-1.5 m -304.5,47.4 -0.3,-0.2 -0.4,-0.6 -0.1,-0.4 v -0.6 l 0.6,-1.1 0.6,-0.4 0.4,-0.1 0.7,0.1 0.5,0.3 0.4,0.5 0.5,1 1.1,4.1 2.1,-3.7 m -4.7,-4.6 1.6,-2.9 1.2,2.8 0.5,-0.8 0.5,-0.4 0.4,-0.1 1,0.2 0.5,0.3 0.6,0.7 0.3,0.8 -0.2,0.9 -0.5,0.8 -0.7,0.6 -0.4,0.1 h -0.6 m -48.5,21.6 0.2,-0.2 0.6,-0.1 h 0.5 l 0.6,0.3 0.7,0.9 0.2,0.7 v 0.4 l -0.3,0.6 -0.5,0.4 -0.6,0.2 -1.1,0.1 -4.2,-0.4 2.6,3.2 m 6.8,-1.7 -0.8,-0.5 -1.1,0.1 -1.3,0.7 -0.7,0.6 -1,1.2 -0.3,1 0.3,0.9 0.4,0.4 0.8,0.5 1.1,-0.1 1.3,-0.7 0.7,-0.6 1,-1.2 0.3,-1 -0.3,-0.9 -0.3,-0.3 m 286,-7.5 0.3,-0.6 -0.4,-0.9 -0.4,-0.4 -0.8,-0.5 -1.1,0.1 -1.3,0.8 -1.1,1 -0.8,1 v 0.8 l 0.4,0.9 0.2,0.2 0.8,0.5 0.8,0.1 0.9,-0.4 0.2,-0.2 0.5,-0.8 0.1,-0.9 -0.4,-0.8 -0.2,-0.3 -0.8,-0.4 -0.9,-0.1 -0.8,0.4 m 56.7,-19.1 -2.1,2.1 1.8,2.1 V 94 l 0.4,-0.9 0.6,-0.6 0.8,-0.5 h 0.9 l 0.8,0.4 0.5,0.4 0.4,0.9 v 0.8 l -0.4,0.9 -0.6,0.6 -0.8,0.5 h -0.5 l -0.6,-0.2 m -86.5,297.4 0.2,3 2.7,0.1 -0.3,-0.3 -0.4,-0.9 v -0.9 l 0.2,-0.9 0.5,-0.6 0.9,-0.4 h 0.6 l 0.9,0.2 0.7,0.5 0.3,0.9 0.1,0.9 -0.2,0.9 -0.3,0.4 -0.6,0.3 m -3.7,-9 0.9,0.2 0.7,0.6 0.4,0.9 v 0.3 l -0.3,0.9 -0.5,0.6 -0.9,0.4 h -0.3 l -0.9,-0.2 -0.6,-0.5 -0.4,-0.9 v -0.3 l 0.2,-0.9 0.5,-0.7 1.2,-0.4 1.5,-0.1 1.5,0.2 1,0.5 0.3,0.9 0.1,0.6 -0.2,0.9 -0.6,0.3 m -105.6,26.5 -3.3,0.1 1.7,-2.5 h -0.9 l -0.6,-0.2 -0.3,-0.3 -0.3,-0.9 -0.1,-0.6 0.3,-0.9 0.6,-0.6 0.9,-0.4 h 0.9 l 0.9,0.3 0.3,0.3 0.3,0.6 m -35,56.6 -2.8,-1.1 -1.2,2.5 0.4,-0.2 h 0.9 l 0.8,0.3 0.8,0.6 0.4,0.8 -0.1,0.9 -0.2,0.6 -0.6,0.7 -0.7,0.4 h -1 l -0.8,-0.3 -0.8,-0.6 -0.1,-0.4 -0.1,-0.7 m 9.8,-0.9 -0.1,-0.6 -0.7,-0.6 -0.6,-0.2 -0.9,-0.1 -0.9,0.7 -0.8,1.3 -0.5,1.4 -0.1,1.2 0.3,0.8 0.8,0.6 0.3,0.1 h 0.9 l 0.8,-0.3 0.6,-0.8 0.1,-0.3 v -0.9 l -0.4,-0.8 -0.7,-0.6 -0.3,-0.1 h -0.9 l -0.8,0.4 -0.6,0.7 m 36.4,-2.5 v 3 l 2.7,0.3 -0.3,-0.3 -0.3,-0.9 v -0.9 l 0.3,-0.9 0.5,-0.6 0.9,-0.4 h 0.6 l 0.9,0.3 0.7,0.6 0.3,0.9 v 0.9 l -0.3,0.9 -0.3,0.3 -0.6,0.3 m -5.3,-8.8 0.1,3 2.7,0.2 -0.3,-0.3 -0.3,-0.9 -0.1,-0.9 0.3,-0.9 0.6,-0.6 0.9,-0.3 h 0.6 l 0.9,0.3 0.6,0.5 0.3,0.9 0.1,0.9 -0.3,0.9 -0.3,0.4 -0.6,0.3 m -89.9,-33.8 0.5,-0.5 v -0.9 l -0.2,-0.6 -0.6,-0.7 -1,-0.3 -1.5,0.1 -1.5,0.5 -1,0.7 -0.4,0.7 v 1 l 0.1,0.2 0.5,0.8 0.8,0.4 h 0.9 l 0.3,-0.1 0.8,-0.6 0.4,-0.7 v -1 l -0.1,-0.2 -0.6,-0.8 -0.7,-0.4 h -1 m 6.7,6.9 -0.9,-2.8 -2.7,0.5 0.4,0.2 0.5,0.8 0.3,0.8 v 1 l -0.4,0.7 -0.7,0.6 -0.6,0.2 h -1 l -0.7,-0.4 -0.6,-0.8 -0.3,-0.8 v -1 l 0.2,-0.4 0.5,-0.4 m 15.2,-15.6 2.1,-6.7 m 2.1,6.1 -4.2,0.6 m 98.6,39.1 -1.4,-2.7 -2.5,0.9 0.4,0.1 0.6,0.7 0.4,0.8 0.2,1 -0.3,0.8 -0.7,0.6 -0.5,0.3 -1,0.1 -0.8,-0.2 -0.6,-0.7 -0.4,-0.8 -0.2,-1 0.2,-0.4 0.4,-0.5 m 8.5,5.7 -1.3,-2.6 -2.6,0.9 0.4,0.1 0.7,0.7 0.4,0.8 0.1,0.9 -0.2,0.8 -0.7,0.7 -0.5,0.3 -1,0.1 -0.8,-0.3 -0.7,-0.6 -0.4,-0.8 -0.1,-1 0.1,-0.4 0.5,-0.5 m 104.4,0 1.9,2.3 2.3,-1.5 -0.5,-0.1 -0.8,-0.5 -0.5,-0.7 -0.4,-0.8 0.1,-0.9 0.5,-0.8 0.4,-0.4 0.9,-0.3 h 0.9 l 0.8,0.5 0.5,0.7 0.4,0.9 v 0.4 l -0.3,0.6 m -9.4,-3.1 5.1,-0.4 -2.9,-3.5 m -2.2,3.9 4.8,-4.1 m 58,97.5 -0.7,2.9 2.5,1 -0.2,-0.4 -0.1,-0.9 0.2,-0.9 0.6,-0.8 0.7,-0.4 h 1 l 0.5,0.1 0.8,0.5 0.4,0.8 0.1,0.9 -0.2,0.9 -0.5,0.8 -0.4,0.2 -0.7,0.1 m -2.2,-6 -0.1,-0.7 -0.7,-1.1 6.1,1.6 m -20.2,50.4 -0.3,-0.1 -0.4,-0.5 -0.2,-0.3 -0.1,-0.7 0.3,-1.2 0.5,-0.4 0.4,-0.2 0.6,-0.1 0.6,0.2 0.5,0.4 0.7,0.9 1.9,3.8 1.3,-4 m -4.4,-6.9 5.1,4.8 m -6.4,-0.8 1.3,-4 m -52.6,47.4 3,-1.5 -0.5,3 0.8,-0.4 h 0.6 l 0.4,0.1 0.7,0.7 0.3,0.5 0.1,0.9 -0.2,0.9 -0.7,0.6 -0.8,0.4 -0.9,0.2 -0.4,-0.2 -0.6,-0.3 m 5.7,-8.7 -2.7,1.4 1,2.6 0.1,-0.4 0.7,-0.7 0.8,-0.4 0.9,-0.2 0.8,0.3 0.7,0.7 0.2,0.5 0.2,0.9 -0.3,0.8 -0.6,0.7 -0.8,0.4 -1,0.2 -0.4,-0.2 -0.5,-0.4 m -21.9,-8.7 -1,3.1 -1.7,-2.5 -0.3,0.9 -0.5,0.4 -0.4,0.2 h -0.9 l -0.6,-0.2 -0.7,-0.6 -0.4,-0.7 v -1 l 0.3,-0.8 0.6,-0.8 0.3,-0.2 0.7,-0.1 m 1.8,6.2 0.1,0.7 0.5,1.1 -5.9,-2 m 91.2,-144.9 3,0.3 0.5,-2.7 -0.4,0.3 -0.9,0.2 -0.9,-0.1 -0.9,-0.3 -0.5,-0.7 -0.2,-0.9 v -0.6 l 0.4,-0.9 0.6,-0.5 0.9,-0.3 0.9,0.1 0.9,0.4 0.3,0.3 0.2,0.6 m -6.3,4.7 -3.2,-0.3 1.9,-2.2 -0.9,-0.1 -0.6,-0.4 -0.2,-0.3 -0.3,-0.9 0.1,-0.6 0.3,-0.9 0.7,-0.5 0.9,-0.3 0.9,0.1 0.9,0.4 0.3,0.3 0.2,0.6 m 16,19.5 -1.4,2.6 2.3,1.6 -0.2,-0.5 0.2,-0.9 0.4,-0.8 0.7,-0.6 0.8,-0.3 1,0.2 0.5,0.3 0.6,0.7 0.3,0.8 -0.2,0.9 -0.4,0.8 -0.7,0.7 -0.4,0.1 h -0.7 m -0.4,-6.9 -0.2,-0.2 -0.4,-0.5 -0.1,-0.4 v -0.7 l 0.6,-1 0.5,-0.4 0.4,-0.1 h 0.7 l 0.5,0.3 0.4,0.5 0.5,1 1.2,4 2,-3.7 M 263,609.7 l 0.3,-0.6 -0.2,-0.9 -0.3,-0.5 -0.7,-0.6 -1.1,-0.1 -1.4,0.5 -1.3,0.8 -0.9,0.9 -0.2,0.8 0.2,0.9 0.2,0.3 0.7,0.6 0.8,0.2 0.9,-0.2 0.3,-0.1 0.6,-0.8 0.2,-0.8 -0.2,-0.9 -0.1,-0.3 -0.8,-0.6 -0.8,-0.2 -0.9,0.2 m 7.1,3.7 -0.7,-0.6 h -1.1 l -1.4,0.5 -0.8,0.4 -1.1,1.1 -0.5,0.9 0.2,1 0.3,0.5 0.7,0.6 h 1.1 l 1.5,-0.5 0.7,-0.4 1.2,-1.1 0.4,-0.9 -0.2,-1 -0.2,-0.3 m 37.3,-1.8 3.2,-0.9 -1.1,2.8 0.9,-0.2 0.6,0.1 0.4,0.2 0.6,0.8 0.1,0.6 v 0.9 l -0.4,0.8 -0.8,0.5 -0.9,0.2 h -0.9 l -0.4,-0.2 -0.5,-0.5 m 6.8,-7.3 -1.7,4.9 4.3,-1.2 m -2.6,-3.7 1.7,6.1 m -82.7,-247.2 0.3,0.2 0.2,0.7 v 0.4 l -0.3,0.6 -0.8,0.9 -0.6,0.2 h -0.5 l -0.6,-0.2 -0.4,-0.5 -0.2,-0.6 -0.2,-1.1 v -4.2 l -3,2.9 m 18.9,22.5 3.2,0.8 -2.3,1.9 0.8,0.2 0.5,0.4 0.2,0.4 0.1,0.9 -0.1,0.6 -0.6,0.8 -0.7,0.4 -0.9,0.1 -0.9,-0.2 -0.8,-0.5 -0.2,-0.4 -0.2,-0.7 M 89,23.2 l -0.6,0.3 -0.9,0.9 -0.1,-6.3 m -5.1,6.6 2.9,-6.3 m 1.3,6.3 h -4.2 m 253.9,227.5 -0.2,-0.7 -0.7,-1 6.2,1 m -3.5,-5.7 0.8,0.5 0.5,0.7 0.2,0.9 -0.1,0.3 -0.4,0.8 -0.7,0.5 -1,0.2 -0.3,-0.1 -0.8,-0.4 -0.5,-0.7 -0.1,-1 v -0.3 l 0.5,-0.8 0.7,-0.5 1.2,-0.1 1.5,0.3 1.4,0.5 0.8,0.8 0.1,0.9 -0.1,0.6 -0.4,0.8 -0.7,0.2 m 17.9,-57 -0.2,-0.2 -0.1,-0.7 v -0.4 l 0.3,-0.6 0.9,-0.8 0.7,-0.1 h 0.4 l 0.6,0.3 0.4,0.4 0.2,0.7 0.1,1.1 -0.4,4.2 3.2,-2.7 m -1.8,-4.8 -0.2,-0.2 -0.1,-0.6 V 188 l 0.3,-0.6 0.9,-0.7 0.7,-0.2 h 0.4 l 0.6,0.3 0.4,0.5 0.1,0.6 0.1,1.1 -0.3,4.2 3.2,-2.7 M 351,160.3 v 0.3 l -0.1,0.7 -0.2,0.3 -0.5,0.5 -1.2,0.3 -0.6,-0.2 -0.4,-0.2 -0.5,-0.5 -0.1,-0.6 0.1,-0.6 0.4,-1.1 2.1,-3.6 -4,1 m -3.3,6.5 0.5,0.5 h 0.9 l 0.6,-0.1 0.8,-0.5 0.4,-1.1 -0.1,-1.5 -0.4,-1.4 -0.6,-1.1 -0.7,-0.4 -1,-0.1 -0.3,0.1 -0.8,0.5 -0.4,0.7 -0.1,1 0.1,0.2 0.5,0.8 0.8,0.5 h 0.9 0.3 l 0.8,-0.6 0.4,-0.7 0.1,-0.9 m 73.2,-7.8 -0.6,0.2 -1,0.9 0.4,-6.3 m -1.4,5 -0.6,0.3 -0.9,0.8 0.4,-6.3 m 40.3,40.4 -0.5,-0.3 -1.2,-0.4 5.5,-3 m -5.2,0.9 -0.3,0.2 h -0.6 l -0.4,-0.1 -0.6,-0.4 -0.6,-1.1 v -0.6 l 0.1,-0.4 0.4,-0.6 0.6,-0.3 h 0.6 l 1.1,0.1 4.1,1.2 -2,-3.7 m -10.3,59.2 0.1,-0.6 V 235 l 4.6,4.3 m -1.8,-7.6 0.9,5.1 3.1,-3.3 m -4,-1.8 4.5,4.3 m -73.6,-37.3 0.3,0.1 0.3,0.6 0.1,0.4 -0.1,0.7 -0.6,1 -0.6,0.4 h -0.4 -0.7 l -0.5,-0.3 -0.3,-0.6 -0.5,-1 -0.9,-4.2 -2.2,3.6 m 3.1,4 0.3,0.1 0.3,0.6 0.1,0.4 -0.1,0.7 -0.6,1 -0.6,0.3 -0.4,0.1 H 375 l -0.5,-0.4 -0.3,-0.5 -0.5,-1 -0.9,-4.2 -2.2,3.6 m 25.1,28.5 0.6,0.1 1.3,-0.2 -3.6,5.2 m 6.7,-0.8 -0.8,0.5 -0.8,0.2 -0.9,-0.3 -0.3,-0.1 -0.5,-0.8 -0.2,-0.8 0.3,-0.9 0.1,-0.3 0.8,-0.6 0.8,-0.1 0.9,0.2 0.3,0.2 0.6,0.8 0.1,0.8 -0.4,1.2 -0.9,1.2 -1,1.1 -1.1,0.4 -0.9,-0.3 -0.5,-0.3 -0.5,-0.8 0.1,-0.6 M 277,177.1 v 0.3 l -0.2,0.6 -0.2,0.4 -0.6,0.4 -1.2,0.1 -0.6,-0.2 -0.4,-0.2 -0.3,-0.6 -0.1,-0.6 0.2,-0.6 0.5,-1 2.5,-3.4 -4.2,0.6 m -0.3,5 -0.6,0.4 -0.7,1 -0.9,-6.2 m -13.1,18.8 0.5,0.5 1.1,0.6 -6.1,1.6 m 6.6,3.2 0.5,-0.4 0.1,-1 -0.2,-0.6 -0.5,-0.8 -1,-0.3 -1.5,0.1 -1.5,0.3 -1.1,0.6 -0.4,0.8 -0.1,0.9 0.1,0.3 0.5,0.8 0.7,0.4 1,0.1 0.3,-0.1 0.8,-0.5 0.4,-0.7 0.1,-1 -0.1,-0.3 -0.5,-0.8 -0.8,-0.4 -0.9,-0.1 M 36,80.9 36.7,80.7 37.8,80 36.3,86.2 m 5.9,-4.4 -0.1,-0.6 -0.8,-0.5 -0.6,-0.2 -1,0.1 -0.8,0.7 -0.6,1.4 -0.4,1.5 v 1.2 l 0.5,0.8 0.8,0.5 h 0.3 0.9 l 0.8,-0.5 0.5,-0.8 v -0.3 -0.9 l -0.5,-0.8 -0.8,-0.5 h -0.3 -0.9 l -0.8,0.5 -0.5,0.8 m 0.7,-35 v 0.7 l 0.5,1.2 -5.8,-2.7 m 4,7.1 1.2,-2.8 -2.3,-1.4 0.1,0.4 -0.1,1 -0.3,0.8 -0.7,0.7 -0.8,0.3 -0.9,-0.1 -0.6,-0.3 -0.7,-0.6 -0.3,-0.8 0.2,-1 0.3,-0.8 0.7,-0.7 0.4,-0.1 h 0.6 m 86.8,257.6 -0.6,-0.4 -0.9,0.2 -0.5,0.3 -0.6,0.7 -0.1,1.1 0.5,1.5 0.8,1.2 0.9,0.9 0.8,0.2 0.9,-0.2 0.3,-0.2 0.6,-0.7 0.2,-0.8 -0.2,-0.9 -0.1,-0.3 -0.8,-0.6 -0.8,-0.2 -0.9,0.2 -0.3,0.2 -0.6,0.7 -0.2,0.8 0.2,0.9 m 5.2,-8 -2.6,1.5 1.2,2.5 0.1,-0.4 0.6,-0.7 0.8,-0.5 0.9,-0.2 0.8,0.2 0.8,0.6 0.3,0.5 0.2,0.9 -0.2,0.9 -0.6,0.7 -0.8,0.4 -0.9,0.3 -0.4,-0.1 -0.6,-0.4 m -67.6,-78.4 -0.7,0.2 -1,0.7 1.1,-6.2 m 22.5,99.4 -0.5,-0.5 h -1 l -0.5,0.2 -0.8,0.5 -0.3,1.1 0.2,1.5 0.4,1.4 0.7,1.1 0.7,0.4 h 1 l 0.3,-0.1 0.7,-0.6 0.4,-0.7 v -1 l -0.1,-0.3 -0.5,-0.7 -0.8,-0.4 h -0.9 l -0.3,0.1 -0.8,0.5 -0.4,0.8 v 0.9 m 4.1,-5.7 3.2,-1 -1,2.8 0.8,-0.2 0.7,0.1 0.4,0.2 0.5,0.7 0.2,0.6 v 0.9 l -0.4,0.8 -0.7,0.6 -0.9,0.2 h -1 l -0.3,-0.2 -0.5,-0.4 m -46.4,-7.9 -0.1,-0.6 -0.7,-0.7 -0.5,-0.2 -0.9,-0.1 -1,0.5 -0.9,1.3 -0.6,1.3 -0.2,1.2 0.3,0.8 0.7,0.7 0.2,0.1 1,0.1 0.8,-0.3 0.6,-0.7 0.1,-0.2 0.2,-1 -0.3,-0.8 -0.7,-0.6 -0.3,-0.2 -0.9,-0.1 -0.8,0.3 -0.7,0.7 m 9.2,-0.4 -4.5,2.5 4.1,1.9 m 0.4,-4.4 -2.6,5.7 m -4.2,-55.5 -3,-4.2 -1.4,4.2 m 4.4,0 -5.9,-2 m 180.3,257.6 v -0.7 l -0.7,-0.6 -0.5,-0.3 -1,-0.1 -0.9,0.5 -0.9,1.3 -0.7,1.3 -0.2,1.2 0.2,0.8 0.7,0.7 0.3,0.1 0.9,0.1 0.8,-0.2 0.7,-0.7 0.1,-0.3 0.2,-0.9 -0.3,-0.8 -0.7,-0.7 -0.3,-0.1 -0.9,-0.2 -0.8,0.3 -0.7,0.7 m 6.9,-1.3 3,1.4 -2.7,1.4 0.8,0.4 0.4,0.5 0.2,0.4 -0.1,1 -0.3,0.5 -0.7,0.7 -0.8,0.3 -0.9,-0.2 -0.8,-0.4 -0.7,-0.6 -0.1,-0.4 v -0.7 m 26.2,-19.1 2.8,-1.1 -0.7,-2.6 -0.2,0.4 -0.7,0.6 -0.9,0.3 H 232 l -0.8,-0.3 -0.6,-0.7 -0.2,-0.6 -0.1,-1 0.4,-0.7 0.7,-0.6 0.9,-0.4 h 0.9 l 0.4,0.2 0.5,0.4 m -6.8,7.2 0.4,0.4 h 1 l 0.6,-0.2 0.7,-0.6 0.2,-1.1 -0.2,-1.5 -0.6,-1.4 -0.7,-1 -0.8,-0.4 -0.9,0.1 -0.3,0.1 -0.7,0.6 -0.4,0.8 0.1,0.9 0.1,0.3 0.6,0.7 0.8,0.4 0.9,-0.1 0.3,-0.1 0.7,-0.6 0.4,-0.8 -0.1,-0.9 m -10.5,71.3 h -1 l -0.8,0.7 -0.7,1.3 -0.3,0.9 -0.2,1.5 0.3,1.1 0.8,0.5 0.6,0.2 h 0.9 l 0.9,-0.7 0.7,-1.3 0.3,-0.9 0.1,-1.5 -0.3,-1.1 -0.7,-0.5 -0.5,-0.1 m -6.4,-13.6 0.6,0.3 0.9,-0.4 0.5,-0.3 0.5,-0.8 v -1.1 l -0.7,-1.4 -0.9,-1.1 -1,-0.8 -0.8,-0.1 -0.9,0.3 -0.3,0.2 -0.5,0.8 -0.1,0.8 0.3,0.9 0.2,0.2 0.8,0.6 0.8,0.1 0.9,-0.3 0.2,-0.2 0.6,-0.8 0.1,-0.8 -0.3,-0.9 m -3.9,8.3 -0.2,-5.1 -3.6,2.7 m 3.8,2.4 -3.9,-4.9 m -129.4,-87.7 -5.9,3.6 m 2.4,-5.9 3.5,2.3 m 2.5,1.6 -0.9,-0.2 -1,0.4 -1.1,1.1 -0.5,0.7 -0.6,1.5 v 1 l 0.6,0.8 0.5,0.3 1,0.3 0.9,-0.5 1.1,-1.1 0.5,-0.7 0.6,-1.4 v -1.1 l -0.6,-0.7 -0.4,-0.3 m 72.9,-12.5 5.2,0.4 -2.3,-3.8 m -2.9,3.4 5.4,-3.2 m -5.6,-0.3 -0.3,0.1 -0.7,0.1 -0.4,-0.1 -0.6,-0.4 -0.6,-1 v -0.7 l 0.1,-0.4 0.3,-0.6 0.6,-0.3 h 0.6 1.1 l 4.1,1.1 -2.1,-3.6 m -7.3,77.1 2,-2.6 0.8,2.9 0.6,-0.7 0.6,-0.3 0.4,-0.1 0.9,0.3 0.5,0.4 0.5,0.8 0.1,0.8 -0.3,0.9 -0.6,0.7 -0.7,0.6 h -0.5 l -0.6,-0.1 m -0.4,-7.8 2,-2.6 0.8,2.9 0.6,-0.7 0.6,-0.3 0.4,-0.1 0.9,0.3 0.5,0.4 0.5,0.8 0.1,0.8 -0.3,0.9 -0.6,0.7 -0.8,0.6 H 154 l -0.6,-0.1 M 47.8,409.3 41.3,406.9 m 6.1,-1.8 0.4,4.2 m -1.5,5.2 -1,-0.2 -0.6,-0.5 -0.4,-0.9 v -0.3 l 0.2,-0.9 0.5,-0.7 0.9,-0.4 h 0.3 l 0.9,0.2 0.7,0.5 0.3,0.9 0.1,0.3 -0.2,0.9 -0.6,0.7 -1.1,0.4 -1.5,0.2 -1.5,-0.2 -1,-0.5 -0.4,-0.9 -0.1,-0.5 0.3,-1 0.5,-0.3 M 64.5,350 65,350.4 h 0.9 l 0.6,-0.2 0.7,-0.5 0.3,-1.1 -0.2,-1.5 -0.5,-1.4 -0.7,-1.1 -0.7,-0.3 h -1 l -0.2,0.1 -0.8,0.6 -0.4,0.7 v 1 l 0.1,0.3 0.6,0.7 0.8,0.4 h 0.9 l 0.3,-0.1 0.8,-0.6 0.3,-0.8 v -0.9 m -7.8,4.9 v -1 l 0.4,-0.7 0.8,-0.6 0.2,-0.1 h 1 l 0.8,0.4 0.5,0.7 0.1,0.3 v 0.9 l -0.3,0.8 -0.8,0.6 -0.3,0.1 h -0.9 l -0.8,-0.4 -0.7,-1 -0.4,-1.4 -0.2,-1.6 0.2,-1 0.8,-0.6 0.5,-0.2 h 1 l 0.5,0.5 m 65.8,-4.5 0.3,0.6 0.9,0.4 h 0.6 l 0.9,-0.3 0.6,-0.9 0.3,-1.5 v -1.5 l -0.3,-1.2 -0.6,-0.6 -0.8,-0.3 h -0.3 l -1,0.2 -0.6,0.6 -0.3,0.9 v 0.3 l 0.3,0.9 0.6,0.6 0.9,0.4 h 0.3 l 0.9,-0.3 0.6,-0.6 0.3,-0.9 m -8.7,3.2 0.3,0.6 0.9,0.3 h 0.6 l 0.9,-0.3 0.6,-0.9 0.4,-1.5 v -1.5 l -0.3,-1.2 -0.6,-0.6 -0.9,-0.3 h -0.3 l -0.9,0.3 -0.6,0.6 -0.3,0.9 v 0.3 l 0.3,0.9 0.6,0.6 0.9,0.3 h 0.3 l 0.9,-0.3 0.6,-0.6 0.3,-0.9 m 13.3,40.9 1.1,-3.1 1.6,2.5 0.3,-0.8 0.5,-0.5 0.4,-0.1 h 1 l 0.5,0.2 0.8,0.6 0.3,0.7 v 1 l -0.3,0.8 -0.6,0.8 -0.4,0.2 h -0.6 m 0.3,-9.7 0.7,0.6 0.4,0.8 v 0.9 l -0.1,0.3 -0.6,0.7 -0.8,0.4 h -0.9 l -0.3,-0.1 -0.8,-0.6 -0.3,-0.8 v -0.9 l 0.1,-0.3 0.6,-0.7 0.7,-0.4 1.3,0.1 1.4,0.5 1.3,0.8 0.6,0.9 v 0.9 l -0.2,0.6 -0.6,0.7 -0.6,0.1 m -70.7,260.8 0.5,-0.5 -0.1,-1 -0.2,-0.5 -0.6,-0.8 -1.1,-0.2 -1.5,0.3 -1.4,0.5 -1,0.7 -0.3,0.8 v 0.9 l 0.1,0.3 0.6,0.8 0.8,0.3 1,-0.1 0.2,-0.1 0.8,-0.6 0.3,-0.7 v -1 l -0.1,-0.3 -0.6,-0.7 -0.8,-0.3 h -1 m 6.3,4.6 -0.6,-0.7 -0.7,-0.1 -0.5,0.2 -0.5,0.5 v 0.7 l 0.1,1.2 0.1,1 -0.4,0.7 -0.4,0.5 -0.9,0.4 -0.6,-0.1 -0.4,-0.2 -0.6,-0.7 -0.5,-1.1 v -1 l 0.2,-0.4 0.4,-0.5 0.9,-0.3 0.6,0.1 0.8,0.3 0.6,0.8 0.7,1 0.5,0.4 0.7,0.1 0.5,-0.2 0.5,-0.5 -0.1,-1 -0.4,-1.2 m 21.9,-11 2.9,4.3 1.6,-4.2 m -4.5,-0.1 5.9,2.2 m -3.6,-8 -1.1,2.8 2.4,1.2 -0.1,-0.3 v -1 l 0.3,-0.8 0.6,-0.8 0.8,-0.3 h 0.9 l 0.6,0.2 0.7,0.6 0.4,0.8 v 0.9 l -0.4,0.9 -0.6,0.7 -0.3,0.2 -0.7,0.1 m -53.4,-79.8 -6.8,-1.8 m 6,-2.3 0.8,4.1 m 0.9,5.1 -6.8,-1.8 m 6,-2.3 0.8,4.1 m 16.3,-40.3 2.9,-6.3 m 1.3,6.3 h -4.2 m -3,0 0.9,-0.3 0.6,-0.9 0.3,-1.5 v -0.9 l -0.3,-1.5 -0.6,-0.9 -0.9,-0.3 H 65 l -0.9,0.3 -0.6,0.9 -0.3,1.6 v 0.9 l 0.3,1.4 0.6,0.9 0.9,0.3 h 0.5"
       id="nums_001"
       stroke="#000000"
       style="stroke-width:1.01549;stroke-dasharray:none" />
    <path
       d="m 266.1,629.3 -17.4,-29.2 -63.2,-19.9 42.7,-32.9 -46.4,-22.5 92.6,-35.7 -22.1,-44.5 1.3,49.7 -93.4,-33.6 -13.8,-42.9 51.2,-7.1 86,-2.4 -83.3,-21.9 45.8,-45.2 -0.1,-50.5 -8.3,49.8 -64.1,4.1 -28.4,-43.1 -38.5,23.4 -49,15.7 L 8.7,318 40.8,222.3 72.6,228.1 79,196.4 163.2,252 132,193.6 199.6,114.7 170.6,87.1 167,37.8 105.3,148 60.5,93.9 15.6,82.9 45.9,16.8 124.3,16 l 93.6,-5.9 34.8,55.5 55,-35.5 93.7,-4.3 73.3,28.1 -81.9,85.5 -45,-51.3 -61.3,30.1 -95.3,70.2 65.7,31.2 -11.5,-44.8 51.5,-7.4 95.2,-24.8 48.9,3.2 36.7,67.4 -48.1,50.9 -69.4,-47.5 22.4,-34.9 -31.9,26.5 -14.2,82.9 11.4,58.2 6.7,84.3 42.4,50.5 71.5,5.3 -24,44.7 -11.6,43.6 -15.5,48 -87,44.4 22.5,-64.8 z M 99.5,504.6 45.9,469.4 33.6,352.8 l 54.5,-18.7 75.7,0.8 -30.8,86 49.4,82.8 -53.3,68.5 -42.8,114 L 51.5,596.3 35.4,505 Z"
       id="coupes_001"
       stroke="#ff0000"
       style="stroke-width:1.26936"
       sodipodi:nodetypes="cccccccccccccccccccccccccccccccccccccccccccccccccccccccccccccccccccccccccccc" />
    <path
       d="m 191.2,188.4 -28,63.6 m 93.7,-32.4 -93.7,32.4 m 36.4,-137.3 86.9,3.5 M 256.9,219.6 246,290.7 m -46.4,-176 53.1,-49.1 m 0,0 33.8,52.6 m 50,172.9 -90.5,-0.4 m 0,0 -100.8,10.8 M 170.6,87.1 252.7,65.6 m 0,0 95.1,22.5 m -11.3,203 -90.4,50.1 m -8.4,-0.7 -92.5,-39 m 25.4,-214.4 47.3,-77 m 89.8,20 40.1,58 m 0.1,261.2 -101.8,-8.1 M 145.2,301.5 72.6,228.1 M 167,37.8 217.9,10.1 m 183.5,15.7 -53.6,62.3 m -64.2,320.2 -37.5,-67.1 m 101.8,8.1 -64.3,59 M 474.7,53.9 347.8,88.1 M 105.3,148 124.3,16 M 60.5,93.9 124.3,16 m 230.3,417.6 -71,-25.3 m -31.3,36.3 31.3,-36.3 m 71,25.3 -102.3,11 m 0,0 -54.7,-33.9 m -37.4,50 37.4,-50 m 54.7,33.9 -92.1,16.1 m 194.4,-27.1 -80.2,55.5 m 122.6,-5 -122.6,5 m 46.8,89.8 -46.8,-89.8 m 122.6,-5 47.5,50 m -11.6,43.6 -111.7,1.2 m 31.3,26.9 -31.3,-26.9 m 111.7,-1.2 -80.4,28.1 m -31.3,-26.9 -93,-31.6 m 93,31.6 -72.5,21.2 m 0,0 -20.5,-52.8 m 28.7,-327.7 40,-52.2 m 0,0 85.7,14.3 m 9.5,-39.1 -9.5,39.1 m 95.1,31.5 -95.1,-31.5 m 9.5,-39.1 85.6,70.6 m -48.1,50.9 -47,-82.4 M 106.7,324.9 72.6,228.1 M 106.7,324.9 40.8,222.3 M 57.7,340.6 40.8,222.3 m 5.1,247.1 87.1,-48.5 m 0,0 -33.5,83.7 m 82.9,-0.9 -82.9,0.9 m 29.6,67.6 -29.6,-67.6 M 33.6,352.8 133,420.9 M 88.1,334.1 133,420.9 m -3.9,151.3 -77.6,24.1 m 0,0 48,-91.7"
       id="plisM_001"
       stroke="#a52a2a"
       stroke-dasharray="4" />
    <path
       d="m 132,193.6 59.2,-5.2 m 8.4,-73.7 -8.4,73.7 M 246,290.7 163.2,252 m 93.7,-32.4 79.6,71.5 m -191.3,10.4 18,-49.5 m -18,49.5 L 79,196.4 M 167,37.8 124.3,16 M 397,484.1 321.2,578.9 m 123.3,-44.8 -123.3,44.8 m 96.2,46.8 -64.9,-19.9 m -124.3,-58.5 46.2,-58.2 m 78.9,115.7 -104.6,-4.7 M 60.5,93.9 45.9,16.8 m 211,202.8 93.8,-11.4 m -53.8,-40.8 53.8,40.8"
       id="plisV_001"
       stroke="#008000"
       stroke-dasharray="4, 1, 1, 1"
       style="stroke-width:1.26936" />
    <path
       d="m 159.6,189 4,4 m 0,-4 -4,4 m 33.8,-43.4 4,4 m 0,-4 -4,4 m 9.2,115.7 4,4 m 0,-4 -4,4 m 92.1,-20 4,4 m 0,-4 -4,4 m -142.5,17.5 4,4 m 0,-4 -4,4 m -42.1,-31.8 4,4 m 0,-4 -4,4 m 33.6,-226.1 4,4 m 0,-4 -4,4 m 213.4,500.6 4,4 m 0,-4 -4,4 m 23.7,21 4,4 m 0,-4 -4,4 m 2.1,55.3 4,4 m 0,-4 -4,4 m -133.6,-101.6 4,4 m 0,-4 -4,4 m 49.7,80.3 4,4 m 0,-4 -4,4 M 51.2,53.3 l 4,4 m 0,-4 -4,4 m 250.6,154.6 4,4 m 0,-4 -4,4 m 20,-30.1 4,4 m 0,-4 -4,4"
       id="marqueV_001"
       stroke="#008000" />
    <path
       d="m 273.9,298.8 1.5,-0.7 2.2,-2.3 v 15.8"
       id="titre_1"
       stroke="#4b0082"
       style="stroke-width:1.26936" />
    <path
       d="m 88.2,456.3 v -0.7 l 0.8,-1.5 0.7,-0.8 1.5,-0.7 h 3 l 1.5,0.7 0.8,0.8 0.7,1.5 v 1.5 l -0.7,1.5 -1.5,2.2 -7.5,7.5 H 98"
       id="titre_2"
       stroke="#4b0082"
       style="stroke-width:1.26936" />
  </g>
  <g
     id="page_002">
    <path
       d="m 682.9,270.4 1.7,-2.9 1.2,2.8 0.4,-0.8 0.6,-0.4 0.4,-0.1 0.9,0.2 0.5,0.3 0.7,0.7 0.2,0.8 -0.2,0.9 -0.4,0.8 -0.8,0.7 -0.4,0.1 -0.6,-0.1 m 0,-10.3 -1.5,2.6 2.2,1.6 -0.1,-0.4 0.2,-0.9 0.4,-0.8 0.7,-0.6 0.9,-0.2 0.9,0.2 0.5,0.3 0.6,0.7 0.3,0.8 -0.2,0.9 -0.5,0.8 -0.7,0.6 -0.4,0.1 h -0.7 M 741.1,99.4 h 0.3 l 0.6,0.3 0.4,0.2 0.3,0.6 0.1,1.2 -0.3,0.6 -0.2,0.4 -0.6,0.3 h -0.6 l -0.6,-0.2 -1,-0.5 -3.2,-2.8 0.3,4.2 m 6.5,2.1 -0.3,-0.8 -0.7,-0.3 -0.6,0.1 -0.5,0.3 -0.3,0.6 -0.2,1.3 -0.2,0.9 -0.6,0.6 -0.5,0.4 h -0.9 l -0.7,-0.2 -0.3,-0.3 -0.4,-0.9 -0.1,-1.1 0.3,-1 0.3,-0.3 0.5,-0.3 0.9,-0.1 0.6,0.2 0.7,0.6 0.4,0.9 0.4,1.1 0.3,0.6 0.6,0.3 0.6,-0.1 0.6,-0.3 0.2,-1 -0.1,-1.3 m -113.4,36 1.2,3.1 -2.9,-0.9 0.3,0.9 -0.1,0.6 -0.2,0.4 -0.7,0.6 -0.6,0.2 -0.9,0.1 -0.8,-0.4 -0.6,-0.7 -0.3,-0.9 v -0.9 l 0.2,-0.4 0.4,-0.5 m 5.4,4.2 0.3,-0.1 0.7,0.1 0.4,0.2 0.5,0.4 0.4,1.2 -0.1,0.6 -0.2,0.4 -0.4,0.5 -0.6,0.2 -0.7,-0.1 -1,-0.2 -3.9,-1.8 1.5,4 m 99.1,-41.1 h -0.3 l -0.6,-0.1 -0.4,-0.3 -0.4,-0.5 -0.2,-1.2 0.2,-0.6 0.2,-0.4 0.5,-0.4 0.6,-0.1 0.7,0.2 1,0.4 3.5,2.3 -0.8,-4.1 m -6.7,-1.4 0.5,0.9 0.6,0.1 0.6,-0.1 0.5,-0.4 0.2,-0.6 0.1,-1.3 0.1,-0.9 0.5,-0.7 0.5,-0.4 0.9,-0.2 0.6,0.2 0.4,0.2 0.4,0.8 0.3,1.2 -0.1,1 -0.3,0.3 -0.5,0.4 -0.9,0.2 -0.6,-0.2 -0.7,-0.5 -0.5,-0.8 -0.5,-1.1 -0.4,-0.5 -0.7,-0.2 -0.6,0.1 -0.5,0.4 -0.1,1 0.2,1.3 M 828,47.6 l -1.4,-3 2.9,0.7 -0.4,-0.9 v -0.6 l 0.2,-0.4 0.7,-0.7 0.5,-0.2 1,-0.1 0.8,0.2 0.6,0.7 0.4,0.8 0.1,1 -0.2,0.4 -0.4,0.5 m -7.6,-6.3 -0.4,0.5 0.1,0.9 0.3,0.6 0.6,0.7 1.1,0.1 1.5,-0.3 1.4,-0.7 0.9,-0.7 0.3,-0.8 -0.1,-1 -0.1,-0.2 -0.7,-0.7 -0.8,-0.3 -0.9,0.1 -0.3,0.1 -0.7,0.7 -0.3,0.8 0.1,0.9 0.2,0.3 0.6,0.7 0.8,0.3 1,-0.2 m -98.2,4.4 1,3.2 -2.9,-1.1 0.3,0.9 -0.1,0.6 -0.2,0.4 -0.8,0.6 -0.6,0.1 h -0.9 l -0.8,-0.4 -0.5,-0.8 -0.3,-0.8 0.1,-1 0.2,-0.4 0.5,-0.4 m 7.5,7.5 -6.9,-1 m 5.7,-3 1.2,4 m 39.6,-30.6 -3.2,0.7 1.3,-2.7 -0.9,0.1 -0.6,-0.1 -0.4,-0.3 -0.5,-0.8 -0.1,-0.6 0.1,-0.9 0.5,-0.7 0.8,-0.5 0.9,-0.2 0.9,0.1 0.4,0.3 0.4,0.5 m -5.7,6.4 0.8,-0.5 0.2,-0.7 -0.1,-0.5 -0.4,-0.6 -0.7,-0.1 -1.2,-0.1 -0.9,-0.1 -0.8,-0.5 -0.4,-0.5 -0.2,-0.9 0.2,-0.6 0.3,-0.4 0.8,-0.5 1.2,-0.2 0.9,0.1 0.3,0.2 0.5,0.6 0.1,0.8 -0.1,0.7 -0.5,0.7 -0.8,0.5 -1.1,0.5 -0.6,0.4 -0.1,0.7 0.1,0.6 0.4,0.5 0.9,0.1 1.4,-0.3 m 9.9,165.8 5,1.2 -1.7,-4.1 m -3.3,2.9 5.8,-2.3 m -7.4,-1.8 0.6,0.7 1.1,0.2 1.5,-0.3 0.8,-0.3 1.3,-0.8 0.6,-0.9 -0.1,-1 -0.2,-0.5 -0.6,-0.8 -1.1,-0.2 -1.5,0.3 -0.8,0.3 -1.3,0.9 -0.6,0.9 0.1,0.9 0.1,0.4 m 100.9,80.2 -2.8,-1.8 2.8,-1 -0.7,-0.5 -0.4,-0.6 -0.1,-0.4 0.2,-0.9 0.4,-0.5 0.7,-0.6 0.8,-0.2 0.9,0.2 0.8,0.5 0.6,0.7 0.1,0.4 -0.1,0.7 m -8.7,0.5 0.9,0.2 1,-0.4 1,-1.1 0.5,-0.8 0.6,-1.4 -0.1,-1.1 -0.6,-0.7 -0.5,-0.4 -0.9,-0.2 -1,0.5 -1,1.1 -0.5,0.7 -0.6,1.4 0.1,1.1 0.6,0.8 0.3,0.2 m -144,-6 0.2,3.3 -2.5,-1.7 0.1,0.9 -0.3,0.7 -0.3,0.3 -0.9,0.3 -0.6,0.1 -0.9,-0.3 -0.6,-0.5 -0.4,-0.9 v -0.9 l 0.2,-0.9 0.3,-0.3 0.5,-0.4 m 4.1,5 0.3,0.6 1,0.8 -6.3,0.5 m 162.3,55.3 0.1,-0.3 0.4,-0.5 0.4,-0.2 0.7,-0.1 1.1,0.3 0.5,0.5 0.2,0.4 0.1,0.7 -0.2,0.5 -0.5,0.5 -0.8,0.7 -3.8,1.9 4,1.3 m 6.1,-2.5 -0.5,0.8 -0.8,0.4 h -0.9 l -0.3,-0.1 -0.8,-0.5 -0.4,-0.8 V 321 l 0.1,-0.3 0.5,-0.8 0.8,-0.4 h 0.9 l 0.3,0.1 0.8,0.5 0.4,0.8 -0.1,1.2 -0.4,1.5 -0.8,1.3 -0.8,0.7 h -1 l -0.5,-0.2 -0.8,-0.5 -0.1,-0.7 m -127.6,-12 2.7,1.9 -2.8,0.9 0.7,0.5 0.3,0.6 0.1,0.4 -0.3,1 -0.3,0.5 -0.8,0.5 -0.8,0.2 -0.9,-0.3 -0.7,-0.5 -0.6,-0.8 -0.1,-0.4 0.1,-0.6 m 9.9,0.5 -4.8,1.8 3.7,2.5 m 1.1,-4.3 -3.6,5.2 m -133.3,-16.9 -5.1,-0.9 1.9,4.1 m 3.2,-3.2 -5.7,2.7 m 5.4,0.3 0.6,0.4 1.1,0.4 -5.7,2.7 m -1.4,-254.2 -3.7,-3.6 -0.7,4.4 m 4.4,-0.8 -6.2,-1 m 4.2,3.9 h 0.3 l 0.5,0.4 0.3,0.3 0.2,0.7 -0.2,1.2 -0.4,0.5 -0.3,0.3 -0.7,0.2 -0.6,-0.1 -0.5,-0.4 -0.8,-0.7 -2.5,-3.5 -0.7,4.2 m 54.2,-35.2 -3.2,-0.6 2.2,-2 -0.9,-0.2 -0.5,-0.4 -0.3,-0.3 -0.1,-1 0.1,-0.6 0.5,-0.8 0.7,-0.5 0.9,-0.1 0.9,0.2 0.8,0.4 0.3,0.4 0.2,0.6 m -9.7,1.3 0.5,-0.8 0.7,-0.5 0.9,-0.2 0.3,0.1 0.8,0.5 0.5,0.7 0.2,0.9 -0.1,0.3 -0.5,0.8 -0.7,0.5 -0.9,0.1 h -0.3 l -0.8,-0.5 -0.5,-0.7 -0.1,-1.2 0.3,-1.5 0.6,-1.4 0.7,-0.8 1,-0.1 0.5,0.1 0.9,0.4 0.2,0.7 m 46.3,38.2 -0.9,-3.2 2.8,1.1 -0.2,-0.9 0.1,-0.6 0.2,-0.4 0.8,-0.5 0.6,-0.2 0.9,0.1 0.8,0.4 0.5,0.8 0.2,0.8 v 1 l -0.2,0.3 -0.5,0.5 m -7.4,-7.7 6.8,1.2 m -5.7,2.8 -1.1,-4 m 181.3,23.2 -3.3,0.6 1.4,-2.7 -0.9,0.2 -0.6,-0.2 -0.4,-0.3 -0.4,-0.8 -0.1,-0.6 0.1,-0.9 0.5,-0.7 0.9,-0.5 0.8,-0.1 1,0.1 0.3,0.3 0.4,0.5 m -8.1,5.7 0.4,0.5 1,0.1 0.5,-0.1 0.9,-0.4 0.4,-1 0.1,-1.5 -0.3,-1.5 -0.5,-1.1 -0.7,-0.5 -0.9,-0.2 -0.3,0.1 -0.9,0.4 -0.4,0.7 -0.2,1 0.1,0.3 0.4,0.8 0.7,0.5 0.9,0.1 h 0.3 l 0.9,-0.5 0.5,-0.7 0.1,-0.9 m 34.9,14.4 4.8,1.7 -1.2,-4.3 m -3.6,2.6 6,-1.8 m -6.9,-1.3 -1,-3.2 2.9,1.1 -0.3,-0.9 0.1,-0.6 0.2,-0.4 0.8,-0.6 0.6,-0.1 h 0.9 l 0.8,0.4 0.5,0.8 0.3,0.8 -0.1,1 -0.2,0.4 -0.4,0.4 m -38.3,293.7 1.4,5 2.8,-3.5 m -4.2,-1.5 4.9,3.9 m -1.3,-8.4 1.4,5 2.8,-3.6 m -4.2,-1.4 4.9,3.9 m -18,-26.5 -0.2,0.2 -0.6,0.3 h -0.4 l -0.7,-0.1 -0.9,-0.8 -0.2,-0.7 -0.1,-0.4 0.2,-0.6 0.4,-0.5 0.6,-0.2 1.1,-0.3 4.2,-0.3 -3.1,-2.8 m -6.6,-0.1 0.8,-0.5 0.9,-0.1 0.8,0.4 0.3,0.2 0.4,0.8 0.1,0.9 -0.4,0.8 -0.2,0.3 -0.8,0.4 -0.8,0.1 -0.9,-0.4 -0.2,-0.2 -0.5,-0.8 -0.1,-0.8 0.6,-1.1 1,-1.2 1.2,-0.9 1,-0.3 0.9,0.4 0.5,0.4 0.4,0.8 -0.1,0.7 M 578,147.8 l -2,2.7 -0.8,-2.9 -0.6,0.7 -0.6,0.3 -0.4,0.1 -0.9,-0.3 -0.5,-0.4 -0.5,-0.8 -0.1,-0.8 0.3,-0.9 0.5,-0.7 0.8,-0.6 h 0.4 l 0.7,0.1 m 0.5,7.8 -2,2.6 -0.9,-2.8 -0.5,0.7 -0.6,0.3 h -0.4 l -0.9,-0.3 -0.5,-0.3 -0.5,-0.8 -0.2,-0.9 0.3,-0.9 0.6,-0.7 0.8,-0.5 0.4,-0.1 0.7,0.1 m 41.2,11.6 -1.6,-2.9 3,0.4 -0.4,-0.8 -0.1,-0.6 0.1,-0.5 0.7,-0.7 0.5,-0.2 0.9,-0.2 0.8,0.2 0.7,0.6 0.5,0.8 0.2,1 -0.1,0.4 -0.4,0.5 m -6,-3.3 -0.3,0.1 -0.7,0.1 -0.4,-0.2 -0.5,-0.3 -0.6,-1.1 v -0.7 l 0.1,-0.4 0.3,-0.5 0.6,-0.3 h 0.6 1.1 l 4.1,1.2 -2.1,-3.7 m -56.6,89.4 -4.5,-2.5 0.5,4.5 m 4,-2 -6.3,0.7 m 6.9,5.5 -0.3,-2.9 -2.7,-0.1 0.3,0.3 0.4,0.9 0.1,0.9 -0.2,0.9 -0.6,0.7 -0.8,0.3 -0.6,0.1 -1,-0.2 -0.6,-0.5 -0.4,-0.9 -0.1,-0.9 0.2,-0.9 0.3,-0.4 0.5,-0.3 m 288.5,-82.9 v 5.1 l 3.7,-2.6 m -3.7,-2.5 3.7,5.1 m 1.9,-8 -0.6,-0.3 -0.9,0.3 -0.5,0.3 -0.5,0.8 v 1.1 l 0.7,1.4 0.8,1.2 1,0.8 0.8,0.1 0.9,-0.3 0.3,-0.1 0.5,-0.8 0.2,-0.8 -0.3,-0.9 -0.2,-0.3 -0.8,-0.5 -0.8,-0.2 -0.9,0.3 -0.3,0.2 -0.5,0.7 -0.2,0.9 0.3,0.9 m -48.6,5.9 -5,1.4 3.5,2.8 m 1.5,-4.2 -3.9,4.9 m 9.1,-0.8 -6.3,3.2 m 3,-5.7 3.3,2.5 m 117.1,-11.1 -5,1.2 3.3,3 m 1.7,-4.2 -4.2,4.8 m 8.2,0.1 0.2,-0.6 -0.5,-0.9 -0.4,-0.4 -0.9,-0.3 -1,0.2 -1.3,1 -0.9,1.1 -0.6,1.1 v 0.8 l 0.5,0.9 0.2,0.2 0.9,0.3 h 0.9 l 0.8,-0.5 0.2,-0.2 0.3,-0.9 v -0.8 l -0.5,-0.9 -0.2,-0.2 -0.9,-0.3 h -0.8 l -0.8,0.5 m 21.3,171.3 -4.3,2.8 4.2,1.6 m 0.1,-4.4 -2.3,5.9 m 7.7,-3.9 -4.3,2.9 4.2,1.6 m 0.1,-4.5 -2.2,5.9 m 51,3.2 -3.5,3.8 4.5,0.5 m -1,-4.3 -0.7,6.2 m 7,-3.3 -0.4,0.8 -0.7,0.5 -0.9,0.2 h -0.3 l -0.9,-0.4 -0.5,-0.7 -0.2,-0.9 V 349 l 0.4,-0.8 0.7,-0.6 0.9,-0.2 0.3,0.1 0.9,0.4 0.5,0.6 0.2,1.3 -0.2,1.4 -0.5,1.5 -0.7,0.8 -0.9,0.2 h -0.6 l -0.9,-0.4 -0.2,-0.7 m 9.5,-23.8 1.6,2.5 2.4,-1.2 h -0.4 l -0.7,-0.7 -0.5,-0.7 -0.2,-0.9 0.2,-0.9 0.6,-0.7 0.5,-0.3 0.9,-0.2 0.8,0.2 0.7,0.6 0.5,0.7 0.2,0.9 v 0.5 l -0.4,0.5 m -8.1,-3.3 0.7,0.6 h 1.1 l 1.4,-0.5 0.8,-0.5 1.1,-1.1 0.4,-0.9 -0.2,-1 -0.3,-0.5 -0.7,-0.6 h -1.1 l -1.4,0.5 -0.8,0.5 -1.1,1.1 -0.5,0.9 0.3,1 0.2,0.3 m -185,-114 2.8,-1 -0.6,-2.7 -0.1,0.4 -0.8,0.6 -0.9,0.3 h -0.9 l -0.8,-0.4 -0.5,-0.8 -0.2,-0.5 v -1 l 0.3,-0.7 0.8,-0.6 0.9,-0.3 h 0.9 l 0.4,0.2 0.5,0.5 m -7.3,7.8 0.8,-6.9 m 3.2,5.6 -4,1.3 m 19.8,8.3 1,2.9 2.6,-0.6 -0.3,-0.2 -0.6,-0.7 -0.3,-0.9 v -0.9 l 0.4,-0.8 0.8,-0.6 0.5,-0.1 h 1 l 0.7,0.3 0.6,0.8 0.3,0.9 v 0.9 l -0.2,0.4 -0.5,0.5 m -7,-5 0.6,0.8 0.7,0.1 0.5,-0.2 0.5,-0.5 0.1,-0.6 -0.1,-1.3 V 216 l 0.4,-0.8 0.5,-0.4 0.8,-0.3 0.7,0.1 0.4,0.2 0.5,0.7 0.4,1.2 v 0.9 l -0.2,0.4 -0.5,0.5 -0.8,0.3 -0.7,-0.1 -0.7,-0.4 -0.6,-0.8 -0.7,-1 -0.4,-0.5 -0.7,-0.1 -0.6,0.2 -0.4,0.5 v 0.9 l 0.4,1.3 m 141.9,-42.7 -1.2,5.1 4.2,-1.8 m -3,-3.3 2.4,5.8 m 1.4,-7.3 -0.7,0.6 v 0.7 l 0.2,0.5 0.5,0.5 h 0.7 l 1.2,-0.2 0.9,-0.1 0.8,0.4 0.5,0.4 0.4,0.8 -0.1,0.7 -0.1,0.4 -0.7,0.6 -1.1,0.5 -1,0.1 -0.4,-0.2 -0.5,-0.4 -0.3,-0.9 v -0.6 l 0.3,-0.8 0.7,-0.6 1,-0.8 0.5,-0.5 V 175 l -0.2,-0.5 -0.5,-0.5 -1,0.1 -1.2,0.5 m -18.9,-80.8 -0.1,-5.2 -3.6,2.7 m 3.7,2.5 -3.8,-5.1 m 1.1,6.9 -2.6,2 v -3 l -0.7,0.5 -0.7,0.2 -0.4,-0.1 -0.8,-0.5 -0.3,-0.5 -0.3,-0.9 0.1,-0.9 0.5,-0.7 0.8,-0.6 0.9,-0.3 0.4,0.1 0.6,0.3 m 30.5,39.2 -1.3,-3 2.9,0.7 -0.4,-0.9 0.1,-0.6 0.1,-0.4 0.7,-0.7 0.6,-0.2 0.9,-0.1 0.8,0.3 0.6,0.7 0.4,0.8 0.1,0.9 -0.1,0.4 -0.5,0.6 m -7.4,-4.2 0.6,0.7 0.7,0.1 0.5,-0.3 0.4,-0.5 0.1,-0.7 -0.3,-1.2 -0.1,-0.9 0.3,-0.8 0.5,-0.6 0.8,-0.3 h 0.7 l 0.4,0.1 0.6,0.7 0.5,1.1 0.1,1 -0.2,0.4 -0.4,0.5 -0.8,0.4 -0.7,-0.1 -0.8,-0.3 -0.6,-0.7 -0.8,-0.9 -0.5,-0.4 -0.7,-0.1 -0.5,0.3 -0.4,0.5 0.1,0.9 0.5,1.3 m -139.6,261 -2.8,4.3 4.5,-0.1 m -1.7,-4.2 0.2,6.3 m 6.4,-4.3 -0.2,0.9 -0.6,0.6 -0.9,0.3 H 846 l -0.9,-0.2 -0.6,-0.6 -0.4,-0.9 v -0.3 l 0.3,-0.9 0.6,-0.6 0.9,-0.4 h 0.3 l 0.9,0.3 0.6,0.6 0.3,1.2 0.1,1.5 -0.3,1.5 -0.5,0.9 -0.9,0.3 h -0.6 l -0.9,-0.2 -0.4,-0.6 m -64.9,-39.8 0.1,0.6 0.8,0.5 0.6,0.1 1,-0.1 0.7,-0.8 0.6,-1.4 0.3,-1.4 v -1.3 l -0.5,-0.7 -0.8,-0.5 h -0.3 l -0.9,0.1 -0.7,0.5 -0.5,0.8 -0.1,0.3 0.1,0.9 0.5,0.7 0.8,0.5 0.3,0.1 1,-0.2 0.7,-0.4 0.4,-0.8 m -7.5,2.7 0.9,-0.1 0.8,-0.8 0.6,-1.4 0.2,-0.9 V 347 l -0.4,-1 -0.8,-0.5 -0.6,-0.1 -1,0.1 -0.7,0.8 -0.6,1.4 -0.2,0.8 v 1.6 l 0.4,1 0.8,0.5 h 0.4 m -3.6,41.9 -0.9,-0.3 -0.7,-0.5 -0.3,-0.9 v -0.3 l 0.2,-0.9 0.6,-0.7 0.9,-0.3 0.3,-0.1 0.9,0.3 0.6,0.6 0.4,0.8 v 0.3 l -0.3,1 -0.5,0.6 -1.2,0.4 -1.5,0.1 -1.5,-0.3 -0.9,-0.5 -0.4,-0.9 v -0.6 l 0.2,-0.9 0.6,-0.3 m 49.2,22 v 0.7 l 0.6,0.7 0.5,0.3 1,0.2 0.9,-0.4 1.1,-1.2 0.7,-1.3 0.4,-1.2 -0.2,-0.8 -0.6,-0.7 -0.3,-0.1 -0.9,-0.2 -0.9,0.2 -0.7,0.6 -0.1,0.2 -0.2,1 0.2,0.8 0.6,0.7 0.3,0.2 0.9,0.2 0.8,-0.2 0.7,-0.7 m -5.7,-0.1 -0.6,-0.1 -1.3,0.4 3.2,-5.5 m 40.1,18.5 3,0.2 0.4,-2.7 -0.3,0.3 -0.9,0.2 h -0.9 l -0.9,-0.4 -0.6,-0.6 -0.2,-0.9 v -0.6 l 0.4,-0.9 0.6,-0.6 0.9,-0.2 h 0.9 l 0.9,0.4 0.3,0.3 0.3,0.6 m -9.7,4.6 3.3,-6.1 m 0.9,6.3 -4.2,-0.2 m 37.1,51.7 1.6,4.9 2.7,-3.6 m -4.3,-1.3 5.1,3.8 m -1,-9.1 3.2,6.1 m -5.7,-2.8 2.5,-3.3 m -3.8,-24.9 5.2,-0.3 -2.9,-3.5 m -2.3,3.8 4.9,-3.9 m -7.7,0.5 0.8,0.5 1.1,-0.1 1.4,-0.8 0.7,-0.5 0.9,-1.2 0.4,-1 -0.4,-0.9 -0.3,-0.5 -0.8,-0.5 -1.1,0.1 -1.4,0.7 -0.7,0.6 -0.9,1.2 -0.4,1 0.4,0.9 0.3,0.3 m -37.9,62.3 -0.6,-0.4 -0.9,0.1 -0.5,0.2 -0.8,0.6 -0.2,1.1 0.3,1.5 0.6,1.4 0.8,1 0.8,0.3 0.9,-0.1 0.3,-0.1 0.7,-0.6 0.3,-0.8 -0.1,-1 -0.1,-0.2 -0.6,-0.8 -0.8,-0.3 -0.9,0.1 -0.3,0.1 -0.7,0.6 -0.3,0.8 v 1 m 6.8,-7.4 -0.3,6.9 m -3.6,-5.3 3.9,-1.6 m -60.1,24 -0.6,7 m -3.4,-5.5 4,-1.5 m 1.6,-0.6 3.1,-1.2 -0.9,2.9 0.9,-0.3 0.6,0.1 0.4,0.2 0.6,0.7 0.2,0.6 0.1,0.9 -0.4,0.8 -0.7,0.6 -0.9,0.3 h -0.9 l -0.4,-0.2 -0.5,-0.4 M 768,461.6 v 0.7 l 0.4,1.2 -5.6,-2.9 m 4.5,5.6 0.1,-0.9 -0.5,-1 -1.2,-0.9 -0.8,-0.4 -1.5,-0.5 -1.1,0.2 -0.7,0.6 -0.2,0.6 -0.2,0.9 0.6,0.9 1.2,1 0.8,0.4 1.4,0.4 1.1,-0.1 0.7,-0.7 0.2,-0.4 m 33.8,90.5 4.3,-5.6 m -0.2,6.4 -4.1,-0.8 m -4.2,-0.9 3.9,-3.5 -4.4,-0.9 m 0.5,4.4 1.4,-6.2 m -79.3,-48.9 0.3,0.1 0.5,0.3 0.3,0.4 0.2,0.6 -0.1,1.2 -0.4,0.6 -0.3,0.2 -0.7,0.2 h -0.5 l -0.6,-0.4 -0.8,-0.7 -2.7,-3.3 -0.5,4.2 m 6.1,2.4 -0.4,3.3 -2.1,-2.1 -0.1,0.9 -0.4,0.6 -0.3,0.2 -1,0.2 h -0.6 l -0.8,-0.4 -0.6,-0.7 -0.2,-0.9 0.1,-0.9 0.4,-0.9 0.4,-0.2 0.6,-0.3 m 18.3,-36.2 -0.2,0.2 -0.6,0.1 h -0.5 l -0.6,-0.3 -0.8,-0.9 -0.1,-0.6 v -0.4 l 0.3,-0.7 0.4,-0.4 0.7,-0.1 1.1,-0.2 4.2,0.4 -2.8,-3.2 m -7.6,0.9 5.2,-0.5 -3,-3.4 m -2.2,3.9 4.8,-4.1 m -37.1,175.1 -0.9,0.2 -0.4,0.5 -0.1,0.6 0.1,0.6 0.5,0.4 1.2,0.6 0.8,0.5 0.4,0.7 0.2,0.6 -0.2,0.9 -0.4,0.5 -0.4,0.3 -0.9,0.1 -1.2,-0.3 -0.8,-0.5 -0.2,-0.3 -0.2,-0.7 0.2,-0.9 0.4,-0.5 0.7,-0.4 1,-0.1 1.2,-0.1 0.7,-0.2 0.4,-0.5 0.1,-0.6 -0.2,-0.6 -0.8,-0.5 -1.3,-0.3 m 5.7,1.2 -1,0.1 -0.8,0.8 -0.6,1.4 -0.1,0.9 -0.1,1.5 0.4,1 0.9,0.5 0.5,0.1 1,-0.1 0.8,-0.8 0.6,-1.4 0.2,-0.8 v -1.6 l -0.4,-1 -0.8,-0.5 h -0.5 m -23.2,-82.4 -0.2,0.2 -0.6,0.3 h -0.4 l -0.7,-0.1 -0.9,-0.8 -0.3,-0.6 v -0.4 l 0.1,-0.7 0.4,-0.4 0.6,-0.3 1,-0.3 4.2,-0.5 -3.2,-2.6 m -6.3,3 0.9,0.3 1,-0.3 1.2,-1 0.6,-0.7 0.7,-1.3 0.1,-1.1 -0.5,-0.8 -0.5,-0.4 -0.9,-0.3 -1,0.3 -1.2,1 -0.5,0.7 -0.8,1.3 -0.1,1.1 0.6,0.8 0.3,0.3 m -8.9,-209.2 -2.8,-1.2 -1.3,2.4 0.4,-0.2 0.9,0.1 0.8,0.4 0.7,0.6 0.4,0.8 -0.1,0.9 -0.3,0.6 -0.6,0.7 -0.8,0.3 -0.9,-0.1 -0.8,-0.3 -0.8,-0.7 -0.1,-0.4 v -0.6 m 6.8,-1 0.1,-0.3 0.5,-0.4 0.4,-0.2 h 0.7 l 1.1,0.4 0.4,0.6 0.1,0.4 0.1,0.6 -0.3,0.6 -0.5,0.4 -0.9,0.6 -3.9,1.6 3.9,1.6 m 29.8,-20.9 -0.1,0.3 -0.5,0.5 -0.4,0.1 -0.6,0.1 -1.2,-0.3 -0.4,-0.5 -0.2,-0.4 -0.1,-0.7 0.2,-0.5 0.4,-0.5 0.9,-0.7 3.8,-1.9 -4,-1.3 m -6.9,4.3 4.8,-5 m -0.8,6.4 -4,-1.4 m 7.3,12.1 -2.2,2 1.6,2.2 0.1,-0.4 0.4,-0.8 0.7,-0.7 0.8,-0.4 0.9,0.1 0.8,0.4 0.4,0.5 0.4,0.8 v 0.9 l -0.5,0.8 -0.6,0.6 -0.9,0.4 h -0.4 l -0.6,-0.2 m 1.3,-6.3 0.2,-0.7 v -1.2 l 4.4,4.6 m -88.2,-24.7 4.9,1.6 -1.3,-4.3 m -3.6,2.7 6.1,-1.9 m -5.4,-1 -0.5,-0.5 -1.1,-0.6 6,-1.8 m -60.8,33.1 0.6,-0.2 0.5,-0.9 0.1,-0.5 -0.2,-1 -0.8,-0.7 -1.4,-0.6 -1.5,-0.2 -1.2,0.1 -0.7,0.5 -0.4,0.8 -0.1,0.3 0.2,1 0.5,0.7 0.8,0.4 0.3,0.1 0.9,-0.2 0.7,-0.5 0.5,-0.8 v -0.3 l -0.1,-1 -0.5,-0.7 -0.9,-0.4 m 1.8,5.9 0.3,0.1 0.5,0.4 0.3,0.3 0.2,0.7 -0.2,1.1 -0.4,0.6 -0.3,0.2 -0.7,0.2 -0.6,-0.1 -0.5,-0.4 -0.8,-0.7 -2.5,-3.4 -0.7,4.1 m 22.5,54.9 0.7,0.2 1.2,-0.1 -4,4.8 m 4.5,-2.8 0.2,-0.2 0.6,-0.2 0.4,-0.1 0.7,0.2 0.9,0.8 0.2,0.6 0.1,0.4 -0.2,0.6 -0.4,0.5 -0.6,0.3 -1,0.3 -4.3,0.3 3.2,2.7 m 82.6,-44.2 2.6,1.4 1.6,-2.2 -0.4,0.1 -1,-0.2 -0.8,-0.4 -0.6,-0.7 -0.2,-0.8 0.1,-0.9 0.3,-0.6 0.7,-0.6 0.8,-0.2 1,0.1 0.8,0.5 0.6,0.7 0.1,0.4 v 0.6 m -7.7,1.6 -2.9,-1.6 2.8,-1.2 -0.8,-0.4 -0.4,-0.6 -0.1,-0.4 0.2,-0.9 0.3,-0.6 0.7,-0.6 0.8,-0.2 0.9,0.1 0.8,0.5 0.6,0.7 0.2,0.4 -0.1,0.7 m 36.3,50.3 0.9,2.8 2.7,-0.5 -0.4,-0.2 -0.6,-0.8 -0.3,-0.8 v -1 l 0.4,-0.7 0.8,-0.6 0.6,-0.2 h 0.9 l 0.8,0.4 0.5,0.7 0.3,0.9 v 0.9 l -0.2,0.4 -0.4,0.5 m -7.6,-6.4 4.9,1.5 -1.4,-4.3 m -3.5,2.8 5.9,-2 m -25.8,54.9 -2.3,1.9 1.5,2.3 v -0.4 l 0.5,-0.8 0.7,-0.6 0.9,-0.3 h 0.9 l 0.8,0.5 0.4,0.5 0.3,0.9 -0.1,0.8 -0.5,0.8 -0.7,0.6 -0.9,0.3 h -0.4 l -0.6,-0.3 m 5.2,-8.1 0.4,0.8 -0.1,0.9 -0.5,0.8 -0.2,0.2 -0.9,0.3 -0.9,-0.1 -0.8,-0.5 -0.2,-0.2 -0.3,-0.9 0.1,-0.8 0.5,-0.8 0.2,-0.2 0.9,-0.4 0.9,0.1 0.9,0.8 1,1.1 0.7,1.4 0.1,1 -0.5,0.8 -0.5,0.4 -0.8,0.4 -0.7,-0.3 m -65.5,29.4 0.6,-0.4 0.7,-1 1.3,6.1 m 0.3,-6.7 3.2,-0.7 -1.2,2.7 0.9,-0.1 0.6,0.1 0.4,0.3 0.4,0.8 0.2,0.6 -0.1,0.9 -0.5,0.7 -0.8,0.5 -0.9,0.2 -1,-0.1 -0.3,-0.3 -0.4,-0.5 m -13.9,-28.5 0.2,0.6 0.7,1.1 -6.2,-1.1 m 5.8,5.3 -3.7,-3.6 -0.7,4.4 m 4.4,-0.8 -6.3,-1 m 273.7,64.8 -1,-6.9 m 4.5,4.5 -3.5,2.4 m -4.4,1.9 0.6,0.3 0.9,-0.2 0.5,-0.4 0.6,-0.7 v -1.1 l -0.6,-1.4 -0.9,-1.2 -0.9,-0.9 -0.8,-0.1 -0.9,0.3 -0.3,0.1 -0.6,0.8 -0.1,0.8 0.2,0.9 0.2,0.3 0.8,0.5 0.8,0.2 0.9,-0.3 0.3,-0.1 0.5,-0.8 0.2,-0.8 -0.3,-0.9 m -1.8,87.1 v -0.7 l -0.7,-0.6 -0.5,-0.3 -1,-0.1 -0.9,0.5 -0.9,1.3 -0.7,1.3 -0.2,1.2 0.3,0.8 0.6,0.7 0.3,0.1 1,0.1 0.8,-0.2 0.6,-0.7 0.1,-0.3 0.2,-0.9 -0.3,-0.8 -0.7,-0.7 -0.3,-0.1 -0.9,-0.1 -0.8,0.2 -0.7,0.7 m 9,2 -0.7,0.7 -0.8,0.3 -0.9,-0.1 -0.3,-0.2 -0.6,-0.6 -0.3,-0.8 0.1,-1 0.1,-0.2 0.7,-0.7 0.8,-0.3 0.9,0.1 0.3,0.2 0.7,0.6 0.3,0.8 -0.3,1.2 -0.6,1.4 -1,1.2 -0.9,0.5 -0.9,-0.1 -0.6,-0.2 -0.7,-0.7 v -0.7 m 87.1,-43.5 6.8,-1.7 m -4.1,4.9 -2.7,-3.2 m 0.1,-2.2 -0.2,0.2 -0.7,0.2 -0.4,-0.1 -0.6,-0.2 -0.8,-1 -0.2,-0.6 0.1,-0.4 0.2,-0.7 0.5,-0.3 0.6,-0.2 1.1,-0.1 4.2,0.3 -2.7,-3.2 m -20.7,-81.9 -1.4,-6.9 m 4.7,4.3 -3.3,2.6 m -3.8,2.8 2.4,-1.8 -1.4,-2.3 v 0.4 l -0.6,0.8 -0.7,0.5 -0.9,0.3 -0.8,-0.1 -0.8,-0.5 -0.4,-0.5 -0.3,-0.9 0.1,-0.8 0.6,-0.8 0.7,-0.6 0.9,-0.3 0.4,0.1 0.6,0.3 m 27.6,49.8 1.1,6.9 m -4.6,-4.5 3.5,-2.4 m 2.2,0.3 -0.2,-0.2 -0.1,-0.7 0.1,-0.4 0.3,-0.6 1,-0.7 0.7,-0.1 0.4,0.1 0.6,0.3 0.3,0.5 0.1,0.7 v 1.1 l -0.7,4.1 3.4,-2.3 m 36.6,-56.8 3.8,5.8 m -6,-2.2 2.2,-3.6 m 1.7,-0.2 0.1,-0.7 -0.3,-1.2 5.4,3.3 m 22.9,-93.9 5.3,-4.6 m -1.4,6.3 -3.9,-1.7 m -4,-1.6 4.5,-2.7 -4.2,-1.8 m -0.3,4.5 2.5,-5.8 m 10.8,32.6 4.2,5.5 m -6.1,-1.8 1.9,-3.7 m 0.7,-1.6 1.5,-2.9 1.4,2.7 0.4,-0.8 0.5,-0.4 0.4,-0.1 1,0.1 0.5,0.3 0.7,0.6 0.2,0.8 -0.1,1 -0.4,0.8 -0.7,0.6 -0.4,0.2 h -0.7 m -95.2,9.5 -6.9,-0.6 m 5.4,-3.4 1.5,4 m 1.7,4.4 -1.1,-2.8 -2.6,0.7 0.4,0.1 0.6,0.8 0.3,0.8 0.1,1 -0.4,0.7 -0.7,0.6 -0.6,0.2 -0.9,0.1 -0.8,-0.4 -0.6,-0.7 -0.3,-0.8 -0.1,-1 0.2,-0.4 0.5,-0.5 m 25.8,-38 0.7,-7 m 3.2,5.6 -3.9,1.4 m -4.8,0.7 0.5,0.4 h 0.9 l 0.6,-0.2 0.7,-0.5 0.3,-1.1 -0.2,-1.5 -0.5,-1.4 -0.7,-1.1 -0.7,-0.3 h -1 l -0.3,0.1 -0.7,0.6 -0.4,0.7 v 1 l 0.1,0.2 0.6,0.8 0.8,0.4 h 0.9 l 0.3,-0.1 0.7,-0.6 0.4,-0.8 v -0.9 M 585.9,652 l 0.7,-0.3 0.3,-0.8 0.1,-0.6 -0.3,-1 -0.8,-0.6 -1.5,-0.4 -1.5,-0.1 -1.2,0.2 -0.7,0.5 -0.3,0.9 v 0.3 l 0.2,0.9 0.5,0.7 0.9,0.3 h 0.3 l 0.9,-0.2 0.7,-0.5 0.3,-0.9 0.1,-0.3 -0.3,-0.9 -0.5,-0.7 -0.9,-0.3 m 2.3,5.7 h 0.3 l 0.6,0.4 0.2,0.3 0.3,0.6 -0.1,1.2 -0.3,0.6 -0.4,0.3 -0.6,0.2 h -0.6 l -0.5,-0.4 -0.9,-0.6 -2.8,-3.3 -0.3,4.2 m 42.5,41.5 -0.2,-0.7 -0.8,-0.5 -0.6,-0.1 -0.9,0.1 -0.8,0.7 -0.6,1.4 -0.3,1.5 v 1.2 l 0.4,0.7 0.9,0.5 0.2,0.1 1,-0.1 0.7,-0.5 0.5,-0.8 0.1,-0.3 -0.1,-0.9 -0.5,-0.7 -0.8,-0.5 -0.3,-0.1 -0.9,0.1 -0.8,0.5 -0.4,0.8 m 7.3,-2.7 -1,0.1 -0.4,0.5 -0.1,0.6 0.1,0.7 0.5,0.4 1.2,0.5 0.8,0.5 0.4,0.7 0.2,0.7 -0.2,0.9 -0.4,0.5 -0.4,0.2 -0.9,0.1 -1.2,-0.2 -0.8,-0.5 -0.2,-0.4 -0.2,-0.6 0.2,-0.9 0.4,-0.5 0.7,-0.5 1,-0.1 h 1.2 l 0.7,-0.2 0.4,-0.5 0.1,-0.6 -0.2,-0.6 -0.8,-0.5 -1.3,-0.3 m 324.8,-53.9 5.4,4.5 m -6.4,-0.4 1,-4.1 m 1.7,-0.7 -0.2,-0.6 -0.6,-1.1 6.1,1.5 m -14.6,-392.5 -2.2,2.4 -0.5,-2.9 -0.7,0.7 -0.6,0.2 h -0.4 l -0.9,-0.4 -0.4,-0.4 -0.5,-0.8 v -0.9 l 0.4,-0.8 0.6,-0.7 0.8,-0.5 h 0.5 l 0.6,0.2 m -1.1,8.7 0.4,-0.8 -0.3,-1.1 -0.9,-1.2 -0.6,-0.6 -1.3,-0.8 -1.1,-0.2 -0.8,0.4 -0.4,0.5 -0.4,0.8 0.2,1.1 0.9,1.2 0.7,0.6 1.3,0.8 1,0.2 0.9,-0.4 0.3,-0.4 m 44.4,-34 2.8,-1.1 -0.6,-2.6 -0.2,0.4 -0.7,0.6 -0.9,0.3 h -0.9 l -0.8,-0.3 -0.6,-0.8 -0.2,-0.5 v -1 l 0.3,-0.8 0.8,-0.6 0.8,-0.3 h 1 l 0.3,0.2 0.5,0.4 m -4.7,7.2 0.8,-0.6 0.1,-0.7 -0.2,-0.5 -0.5,-0.5 -0.7,-0.1 -1.2,0.2 h -1 l -0.7,-0.4 -0.5,-0.4 -0.3,-0.9 v -0.6 l 0.2,-0.4 0.8,-0.6 1.1,-0.4 0.9,-0.1 0.4,0.2 0.5,0.5 0.3,0.8 -0.1,0.7 -0.3,0.8 -0.8,0.6 -1,0.6 -0.4,0.5 -0.1,0.7 0.2,0.6 0.5,0.4 h 0.9 l 1.3,-0.5 m 37.3,-5.3 0.2,0.6 0.8,0.4 0.6,0.1 1,-0.2 0.7,-0.8 0.5,-1.4 0.2,-1.5 -0.1,-1.2 -0.5,-0.7 -0.9,-0.4 -0.3,-0.1 -0.9,0.2 -0.7,0.5 -0.4,0.9 -0.1,0.3 0.2,0.9 0.5,0.7 0.9,0.4 h 0.3 l 0.9,-0.1 0.7,-0.5 0.4,-0.9 m -5.3,2.1 -0.6,0.2 -1,0.8 0.8,-6.3 m -10.9,34.5 -1.6,2.6 2.1,1.7 -0.1,-0.4 0.2,-1 0.5,-0.7 0.8,-0.6 0.8,-0.2 0.9,0.3 0.5,0.3 0.6,0.7 0.2,0.9 -0.3,0.9 -0.4,0.7 -0.8,0.6 -0.4,0.1 -0.7,-0.1 m -0.4,-8.7 -0.2,0.9 0.4,1 1.1,1 0.8,0.5 1.4,0.6 h 1.1 l 0.7,-0.6 0.4,-0.5 0.2,-0.9 -0.4,-1 -1.1,-1.1 -0.8,-0.5 -1.4,-0.5 h -1.1 l -0.7,0.6 -0.3,0.3 M 696.5,655.9 h 0.9 l 0.5,-0.5 0.2,-0.5 -0.2,-0.7 -0.4,-0.5 -1.1,-0.6 -0.8,-0.5 -0.4,-0.8 -0.1,-0.7 0.3,-0.8 0.4,-0.5 0.4,-0.2 h 1 l 1.1,0.3 0.8,0.6 0.2,0.3 0.1,0.7 -0.3,0.9 -0.4,0.5 -0.8,0.4 H 697 l -1.3,-0.1 -0.6,0.1 -0.5,0.5 -0.2,0.6 0.2,0.6 0.7,0.6 1.3,0.4 m -5.5,-1.7 h 0.9 l 0.9,-0.7 0.7,-1.4 0.2,-0.8 0.2,-1.5 -0.3,-1.1 -0.8,-0.5 -0.6,-0.2 h -0.9 l -0.9,0.7 -0.7,1.4 -0.2,0.8 -0.2,1.5 0.3,1.1 0.8,0.5 0.4,0.2 m 68.1,24.2 -6.9,0.8 m 4.7,-4.4 2.2,3.6 m 1.4,2.2 -0.7,-0.6 -0.7,0.1 -0.5,0.3 -0.3,0.6 v 0.6 l 0.4,1.2 0.2,0.9 -0.1,0.9 -0.4,0.5 -0.8,0.5 -0.6,0.1 -0.4,-0.1 -0.8,-0.6 -0.6,-1 -0.2,-0.9 0.1,-0.5 0.3,-0.5 0.8,-0.5 0.6,-0.1 0.9,0.2 0.7,0.6 0.9,0.9 0.6,0.3 0.6,-0.1 0.5,-0.3 0.4,-0.5 -0.2,-1 -0.8,-1.1 M 797,663 l 3.7,5.9 m -6,-2.3 2.3,-3.6 m 4.5,-3.1 0.6,0.7 0.2,0.9 -0.3,0.9 -0.1,0.2 -0.8,0.6 -0.8,0.2 -0.9,-0.2 -0.3,-0.2 -0.6,-0.7 -0.1,-0.8 0.2,-1 0.2,-0.2 0.7,-0.6 0.8,-0.2 1.2,0.4 1.3,0.8 1.1,1.1 0.4,1 -0.2,0.9 -0.4,0.5 -0.7,0.6 -0.7,-0.1 m -63.3,32.2 7,0.2 m -5.3,3.6 -1.7,-3.8 m -1,-2.4 0.6,0.7 h 0.7 l 0.5,-0.2 0.5,-0.5 v -0.7 l -0.2,-1.2 -0.1,-1 0.3,-0.8 0.4,-0.5 0.8,-0.4 0.7,0.1 0.4,0.1 0.6,0.7 0.5,1.1 0.1,1 -0.1,0.4 -0.5,0.5 -0.8,0.4 -0.7,-0.1 -0.7,-0.3 -0.7,-0.7 -0.8,-1 -0.5,-0.4 h -0.6 l -0.6,0.2 -0.4,0.5 0.1,1 0.5,1.2 m -22.5,19.2 -3.7,5.9 m -0.5,-6.4 4.2,0.5 m 5.2,0.6 -3.7,5.9 m -0.5,-6.4 4.2,0.5 m -157.8,-124.9 0.6,0.1 1.3,-0.2 -3.5,5.2 M 565,591 h 0.7 l 1.2,-0.2 -3.5,5.2 m 15.8,-51.4 0.3,0.2 0.2,0.6 0.1,0.4 -0.1,0.6 -0.8,1 -0.6,0.3 h -0.4 l -0.7,-0.1 -0.4,-0.4 -0.3,-0.6 -0.4,-1 -0.5,-4.2 -2.6,3.3 m 1.4,7.1 0.6,0.1 0.8,-0.5 0.4,-0.5 0.3,-0.9 -0.3,-1 -1,-1.2 -1.2,-0.9 -1.1,-0.5 -0.9,0.1 -0.8,0.5 -0.2,0.3 -0.3,0.9 0.1,0.8 0.6,0.8 0.2,0.2 0.9,0.3 0.8,-0.1 0.8,-0.5 0.2,-0.3 0.3,-0.9 -0.1,-0.8 -0.5,-0.8 m 53.7,-24.5 -0.1,0.3 -0.5,0.5 -0.4,0.2 h -0.6 l -1.2,-0.4 -0.4,-0.5 -0.2,-0.4 -0.1,-0.6 0.2,-0.6 0.5,-0.5 0.9,-0.6 3.9,-1.8 -4,-1.4 m -2.7,4.2 -0.6,0.1 -1.2,0.5 2.2,-5.9 m 291.4,196.7 -0.6,-0.2 -0.9,0.3 -0.4,0.4 -0.5,0.8 0.1,1.1 0.7,1.3 1,1.2 1,0.7 0.8,0.1 0.9,-0.4 0.3,-0.2 0.5,-0.8 v -0.8 l -0.3,-0.9 -0.2,-0.2 -0.8,-0.5 -0.9,-0.1 -0.9,0.3 -0.2,0.2 -0.5,0.8 -0.1,0.9 0.4,0.9 m 4.2,-9.1 1.8,6.7 m -5,-4 3.2,-2.7 m -48.6,-33 0.7,0.1 0.8,-0.5 0.4,-0.4 0.3,-0.9 -0.3,-1 -0.9,-1.2 -1.2,-1 -1.1,-0.6 -0.8,0.1 -0.8,0.5 -0.2,0.2 -0.4,0.9 0.1,0.8 0.5,0.9 0.2,0.1 0.9,0.4 0.8,-0.1 0.9,-0.5 0.2,-0.2 0.3,-0.9 -0.1,-0.8 -0.5,-0.8 m -3,8.7 0.6,0.2 0.8,-0.5 0.4,-0.5 0.4,-0.9 -0.3,-1 -1,-1.2 -1.1,-1 -1.1,-0.5 h -0.9 l -0.8,0.5 -0.2,0.3 -0.3,0.8 v 0.9 l 0.5,0.8 0.2,0.2 0.9,0.3 h 0.9 l 0.8,-0.5 0.2,-0.2 0.3,-0.9 v -0.9 l -0.5,-0.8 m 3.4,36.9 -4.9,1.8 3.8,2.5 m 1.1,-4.3 -3.5,5.2 m 6.9,-2.9 -0.9,-0.2 -0.6,0.3 -0.4,0.5 v 0.7 l 0.3,0.5 0.8,1 0.6,0.7 0.2,0.8 -0.1,0.7 -0.5,0.8 -0.6,0.3 -0.4,0.1 -0.9,-0.3 -1,-0.7 -0.6,-0.7 -0.1,-0.4 0.1,-0.7 0.5,-0.7 0.6,-0.4 0.8,-0.1 0.9,0.2 1.2,0.4 0.6,0.1 0.6,-0.3 0.4,-0.5 0.1,-0.7 -0.6,-0.7 -1.1,-0.8"
       id="nums_002"
       stroke="#000000"
       style="stroke-width:1.01549;stroke-dasharray:none" />
    <path
       d="m 958.6,222.1 39.3,-14.3 37.6,5.2 -47.4,73.1 46.2,73.9 -79,-9.2 -33.7,-12.8 -71.2,-22.5 56.2,49.2 -22.7,28.1 -79.4,2.7 32.6,19.3 40.7,2.3 34.6,42.5 -28.6,38.1 -60.4,25.5 -50.9,18.9 58,12.6 66.3,-45.3 57.1,-43.3 -25.6,-67 75.8,-26.2 54.5,23.5 -24.4,48.5 -54.3,87.9 -38.9,26.9 30.5,36.1 -25.8,100 -50.1,42.3 -56.7,-38.1 49,-57.6 L 836,617.2 772.9,716 732.3,651.6 660,636.2 l 70.7,21.6 30.9,69.6 -92.1,-10.6 -94.2,-20.9 6.3,-85.8 -40.9,-26.9 60.3,-77.8 48.9,18 54.5,44.3 14.4,-125.5 32.2,37.5 18.3,-35.6 -6.3,-103.6 33.2,6.9 -74.5,-51.4 -4.9,-67.8 -48.9,84.6 47.9,15.9 -32.8,31 -46.6,-20 -27.2,-57.9 18.5,61.2 62.7,34.7 21,62.6 -65.4,53.5 -58.1,12.2 11.7,-69 -58.5,-49.7 13.8,-84.9 -12.4,-121.2 52.3,-69.3 44.9,80.1 -32.1,-86 14.9,-95.3 89.9,16.7 14.3,51.9 10.2,51.9 -4.2,-52.7 -15.3,-51.7 100.4,-20.5 31.4,67.4 73.3,-12.6 12,39.9 33.4,-24.8 42.5,93.3 -62.9,26.7 -65.1,-57.5 -70.5,50.5 -37.6,-29.3 20.3,50.8 38.6,-13 13.1,39.8 62.2,38.9 z"
       id="coupes_002"
       stroke="#ff0000"
       style="stroke-width:1.26936"
       sodipodi:nodetypes="ccccccccccccccccccccccccccccccccccccccccccccccccccccccccccccccccccccccccccccccccccccccccc" />
    <path
       d="M 667.9,312.8 639.7,192 m 0,0 77.1,36.2 m 57.5,-68.3 -57.5,68.3 m 20.1,-97 37.4,28.7 M 639.7,192 736.9,131.2 M 849.2,73.7 774.3,159.9 M 736.9,131.2 849.2,73.7 m 0,0 33.2,65 m 0,0 -108.1,21.2 M 732.7,78.5 849.2,73.7 M 607.6,106 736.9,131.2 M 607.6,106 726.7,79.3 m 6,-0.8 85.1,-72.2 m -23.2,204.4 51.7,26.8 m 0,0 -129.5,-9.3 m 101.5,47.4 -101.5,-47.4 m 191.7,48.6 -90.2,-1.2 m 0,0 -96.6,20.4 M 850.4,315.5 721.7,296 m 96.6,-20.4 32.1,39.9 m 58.1,-39.5 -58.1,39.5 m 58.1,-39.5 13.1,62 m -13.1,-62 79.6,10.1 m 0,0 -66.5,51.9 m -71.2,-22.5 -54.2,31.9 m 87.7,45.4 -87.7,-45.4 m -128.3,-34.6 -58.7,-31 m 0,0 30.5,-89.8 M 622.5,10.7 726.7,79.3 M 922.5,61.1 882.4,138.7 M 934.5,101 882.4,138.7 M 609.2,281.8 542.5,181.2 m 0,0 97.2,10.8 m -30.5,89.8 -54.3,20.6 M 934.5,101 l 13,95.2 m 40.6,89.9 -32.8,64.7 M 934.5,101 l 75.9,68.5 m -205.9,226 -41.5,-55 m 41.5,55 -35.2,48.6 m 67.8,-29.3 -67.8,29.3 m 114.5,53.6 -114.5,-53.6 m 67.8,-29.3 46.7,82.9 m -60.4,25.5 -54.1,-79.1 m 3.2,98 -21.5,-62.4 m 21.5,62.4 -68.1,25.6 m 27.9,83.9 -27.9,-83.9 m 126.1,-13 -98.2,96.9 m 98.2,-96.9 5.5,62.5 m 0,0 -103.7,34.4 M 660,636.2 704.4,567.7 M 660,636.2 649.9,523.4 M 660,636.2 581.6,610.1 M 627.7,343 554.9,302.4 m 72.8,40.6 -28.1,94 M 690.4,377.7 599.6,437 M 711.4,440.3 599.6,437 M 646,493.8 599.6,437 M 896.8,509.4 836,617.2 m 60.8,-107.8 44.2,50.3 m 0,0 -105,57.5 m 105,-57.5 -53.1,82.7 m 83.6,-46.6 -83.6,46.6 m 66,-176.3 -12.9,93.6 m 12.9,-93.6 26,66.7 m -26,-66.7 80.3,-21.2 m -80.3,21.2 50.2,-93.2 M 660,636.2 l 9.5,80.6 m 0,0 -87.9,-106.7 m 377,-388 29.5,64 m 9.8,-78.3 -9.8,78.3 m -257.4,371.7 -61.2,59 M 540.7,583.2 649.9,523.4 m 245.7,214.7 -7.7,-95.7"
       id="plisM_002"
       stroke="#a52a2a"
       stroke-dasharray="4" />
    <path
       d="m 639.7,192 134.6,-32.1 m 20.3,50.8 -77.8,17.5 m 129.5,9.3 -28,38.1 m 32.1,39.9 33.5,77.3 m -216,-80 -31.5,26.9 m 168.1,55.8 -8.3,-48.1 m 81.6,69.7 6,80.6 m -111.3,44.4 -3.2,-98 m -64.9,123.6 46.6,-88 m 21.5,62.4 -40.2,109.5 m -150.7,-41.5 68.3,-86.7 m 18,-210.6 15.1,46.9 M 627.7,343 541.1,387.3 m 463,-14.4 30.1,72 m -88.5,250.9 -57.8,-53.4"
       id="plisV_002"
       stroke="#008000"
       stroke-dasharray="4, 1, 1, 1"
       style="stroke-width:1.26936" />
    <path
       d="m 705,173.9 4,4 m 0,-4 -4,4 m 48.7,39.6 4,4 m 0,-4 -4,4 m 76.6,33.1 4,4 m 0,-4 -4,4 m 34.9,93.6 4,4 m 0,-4 -4,4 m -215,-32 4,4 m 0,-4 -4,4 m 148.2,41.2 4,4 m 0,-4 -4,4 m 80.4,82 4,4 m 0,-4 -4,4 m -109.9,31.7 4,4 m 0,-4 -4,4 m -43.2,26.6 4,4 m 0,-4 -4,4 m 24.7,69.1 4,4 m 0,-4 -4,4 m -136.7,-34.1 4,4 m 0,-4 -4,4 m 59.8,-234.5 4,4 m 0,-4 -4,4 m -91.1,24.9 4,4 m 0,-4 -4,4 m 434.8,39.8 4,4 m 0,-4 -4,4 m -102.4,256.2 4,4 m 0,-4 -4,4"
       id="marqueV_002"
       stroke="#008000" />
    <path
       d="m 786.40691,352.53047 h 8.3 l -4.5,6 h 2.2 l 1.5,0.7 0.8,0.8 0.7,2.2 v 1.5 l -0.7,2.3 -1.5,1.5 -2.3,0.7 h -2.2 l -2.3,-0.7 -0.7,-0.8 -0.8,-1.5"
       id="titre_3"
       stroke="#4b0082"
       style="stroke-width:1.26936" />
  </g>
</svg>
