<?xml version="1.0" encoding="UTF-8" standalone="no"?>
<svg
   height="841.88977pt"
   viewBox="0 0 532.99998 754.00001"
   width="595.27557pt"
   version="1.1"
   id="svg1"
   sodipodi:docname="mile_226_H12_A4x2.svg"
   inkscape:version="1.3 (0e150ed6c4, 2023-07-21)"
   xmlns:inkscape="http://www.inkscape.org/namespaces/inkscape"
   xmlns:sodipodi="http://sodipodi.sourceforge.net/DTD/sodipodi-0.dtd"
   xmlns="http://www.w3.org/2000/svg"
   xmlns:svg="http://www.w3.org/2000/svg">
  <defs
     id="defs1" />
  <sodipodi:namedview
     id="namedview1"
     pagecolor="#ffffff"
     bordercolor="#000000"
     borderopacity="0.25"
     inkscape:showpageshadow="2"
     inkscape:pageopacity="0.0"
     inkscape:pagecheckerboard="0"
     inkscape:deskcolor="#d1d1d1"
     inkscape:document-units="mm"
     showgrid="false"
     inkscape:zoom="0.7349537"
     inkscape:cx="1240.2142"
     inkscape:cy="557.17796"
     inkscape:window-width="1920"
     inkscape:window-height="1057"
     inkscape:window-x="-8"
     inkscape:window-y="-8"
     inkscape:window-maximized="1"
     inkscape:current-layer="svg1" />
  <style
     type="text/css"
     id="style1"><![CDATA[
			path {
				fill: none;
				stroke-width: 0.15mm;
			}
		]]></style>
  <g
     id="page_001">
    <path
       d="m 232.4,424.5 h 0.3 l 0.5,0.4 0.3,0.3 0.2,0.6 -0.1,1.2 -0.4,0.6 -0.3,0.3 -0.7,0.2 -0.6,-0.1 -0.5,-0.4 -0.8,-0.7 -2.6,-3.3 -0.6,4.1 m 5.7,5.5 0.4,-3 -2.7,-0.6 0.3,0.3 0.2,1 -0.1,0.9 -0.4,0.8 -0.7,0.5 -0.9,0.2 h -0.6 l -0.9,-0.4 -0.5,-0.7 -0.2,-0.9 0.1,-0.9 0.4,-0.9 0.4,-0.3 0.6,-0.2 m 52.8,-38.3 -0.3,0.2 -0.7,0.1 -0.4,-0.1 -0.6,-0.3 -0.7,-1 -0.1,-0.6 0.1,-0.5 0.3,-0.6 0.5,-0.3 0.6,-0.1 1.1,-0.1 4.2,0.7 -2.5,-3.4 m -8.1,-0.5 6.8,-1.3 m -4.4,4.7 -2.4,-3.4 m 39.5,56.4 -0.2,0.2 H 313 l -0.4,-0.1 -0.6,-0.3 -0.6,-1 -0.1,-0.7 0.1,-0.4 0.4,-0.6 0.5,-0.3 0.7,-0.1 1,0.1 4.2,1 -2.2,-3.6 m -6.8,1 0.7,0.6 h 0.7 l 0.5,-0.3 0.4,-0.6 -0.1,-0.7 -0.3,-1.2 -0.3,-0.9 0.2,-0.8 0.4,-0.6 0.8,-0.4 0.6,-0.1 0.5,0.1 0.7,0.6 0.6,1 0.2,1 -0.1,0.4 -0.3,0.5 -0.8,0.5 -0.7,0.1 -0.8,-0.2 -0.7,-0.6 -0.9,-0.9 -0.6,-0.4 -0.6,0.1 -0.6,0.3 -0.3,0.6 0.2,0.9 0.7,1.1 m -88.9,-89.3 0.3,-0.1 0.6,0.2 0.4,0.2 0.5,0.5 0.3,1.1 -0.1,0.7 -0.2,0.3 -0.5,0.5 -0.6,0.2 -0.6,-0.1 -1.1,-0.4 -3.7,-2 1.2,4 m 6.5,3.1 0.5,-0.5 v -1 l -0.1,-0.5 -0.6,-0.8 -1,-0.3 -1.5,0.1 -1.5,0.4 -1,0.7 -0.4,0.7 -0.1,1 0.1,0.3 0.6,0.7 0.7,0.4 1,0.1 0.2,-0.1 0.8,-0.6 0.4,-0.7 0.1,-1 -0.1,-0.2 -0.6,-0.8 -0.7,-0.4 -1,-0.1 m -39.8,-68.5 0.2,-0.3 0.6,-0.3 h 0.4 l 0.6,0.1 1,0.7 0.3,0.6 0.1,0.4 -0.1,0.6 -0.4,0.5 -0.6,0.3 -1,0.4 -4.1,0.7 3.4,2.5 m 6.5,-0.5 -0.7,0.5 -0.9,0.2 -0.9,-0.3 -0.2,-0.2 -0.6,-0.7 -0.1,-0.9 0.2,-0.9 0.2,-0.2 0.8,-0.6 0.8,-0.1 0.9,0.2 0.3,0.2 0.5,0.8 0.2,0.8 -0.5,1.2 -0.9,1.2 -1.1,1 -1,0.4 -0.9,-0.3 -0.5,-0.3 -0.5,-0.8 0.1,-0.6 m 52.2,-25.3 0.7,-3.2 1.9,2.3 0.2,-0.9 0.4,-0.5 0.4,-0.3 0.9,-0.1 0.6,0.1 0.9,0.5 0.4,0.7 0.1,1 -0.2,0.8 -0.4,0.9 -0.4,0.2 -0.6,0.2 m -3.6,-8.1 0.1,1 0.8,0.7 1.4,0.6 0.9,0.2 h 1.5 l 1,-0.4 0.5,-0.8 0.1,-0.6 -0.1,-0.9 -0.8,-0.8 -1.4,-0.6 -0.8,-0.2 h -1.6 l -1,0.4 -0.5,0.8 v 0.5 m 132.3,276.4 -0.3,0.6 0.3,0.9 0.4,0.5 0.8,0.5 1,-0.1 1.4,-0.6 1.2,-0.9 0.8,-1 0.1,-0.8 -0.3,-0.9 -0.2,-0.2 -0.7,-0.6 -0.9,-0.1 -0.9,0.3 -0.2,0.2 -0.6,0.7 -0.1,0.9 0.3,0.9 0.2,0.2 0.8,0.6 0.8,0.1 0.9,-0.3 m -7.3,-2.7 0.8,0.5 0.7,-0.1 0.5,-0.4 0.3,-0.6 -0.2,-0.6 -0.4,-1.2 -0.3,-0.9 0.1,-0.8 0.3,-0.6 0.7,-0.6 0.7,-0.1 0.4,0.1 0.8,0.5 0.7,1 0.3,0.9 -0.1,0.4 -0.3,0.6 -0.7,0.5 -0.7,0.2 -0.8,-0.2 -0.8,-0.5 -0.9,-0.8 -0.6,-0.3 -0.7,0.1 -0.5,0.4 -0.3,0.6 0.3,0.9 0.8,1.1 m -139.2,-319.5 -1.3,-3.1 2.9,0.8 -0.4,-0.9 0.1,-0.6 0.1,-0.4 0.7,-0.7 0.6,-0.2 0.9,-0.1 0.8,0.3 0.6,0.7 0.4,0.9 0.1,0.9 -0.2,0.4 -0.4,0.5 m -6.4,-7.3 0.9,-0.1 0.8,0.3 0.6,0.7 0.2,0.3 v 1 l -0.3,0.8 -0.7,0.6 -0.3,0.1 -0.9,0.1 -0.8,-0.3 -0.6,-0.7 -0.1,-0.3 -0.1,-1 0.3,-0.8 1,-0.7 1.4,-0.6 1.5,-0.3 1,0.2 0.6,0.7 0.3,0.6 0.1,0.9 -0.5,0.5 m 146.2,374.8 -0.6,0.2 -0.4,0.9 -0.1,0.6 0.2,0.9 0.9,0.7 1.4,0.4 1.5,0.2 1.3,-0.2 0.6,-0.5 0.4,-0.9 v -0.3 l -0.2,-0.9 -0.5,-0.6 -0.9,-0.4 -0.3,-0.1 -0.9,0.2 -0.6,0.6 -0.4,0.8 -0.1,0.3 0.2,1 0.6,0.6 0.8,0.4 m -1.1,-9.1 0.9,0.4 0.5,0.6 0.2,1 v 0.3 l -0.4,0.8 -0.7,0.6 -0.9,0.2 -0.3,-0.1 -0.9,-0.4 -0.5,-0.6 -0.2,-0.9 v -0.3 l 0.4,-0.9 0.7,-0.5 1.2,-0.2 1.5,0.1 1.4,0.5 0.9,0.7 0.2,0.9 -0.1,0.6 -0.4,0.9 -0.6,0.2 m -228.8,-337.8 0.4,-0.5 -0.1,-0.9 -0.2,-0.6 -0.6,-0.7 -1.1,-0.2 -1.5,0.3 -1.4,0.6 -1,0.7 -0.3,0.8 0.1,1 0.1,0.2 0.6,0.8 0.8,0.3 1,-0.1 0.3,-0.1 0.7,-0.6 0.3,-0.8 -0.1,-1 -0.1,-0.2 -0.6,-0.8 -0.8,-0.3 -1,0.1 m 4.7,4.1 0.3,-0.1 h 0.6 l 0.4,0.2 0.5,0.4 0.5,1.1 v 0.7 l -0.2,0.4 -0.4,0.5 -0.6,0.2 h -0.7 l -1,-0.2 -3.9,-1.6 1.6,3.8 m 174.3,376.3 -6.9,-0.8 m 5.5,-3.2 1.4,4 m -0.3,5.4 h -0.9 l -0.8,-0.3 -0.6,-0.8 -0.1,-0.3 v -0.9 l 0.4,-0.8 0.7,-0.6 0.3,-0.1 h 1 l 0.7,0.4 0.6,0.7 0.1,0.3 v 1 l -0.4,0.7 -1,0.7 -1.4,0.5 -1.5,0.2 -1.1,-0.3 -0.6,-0.7 -0.1,-0.6 -0.1,-0.9 0.5,-0.5 m 55.7,41.6 -4.2,5.6 m 0,-6.4 4.2,0.8 m 4.6,0.9 -2.9,-0.6 -0.9,2.6 0.4,-0.2 0.9,-0.1 0.9,0.1 0.8,0.5 0.5,0.7 0.1,1 -0.1,0.5 -0.5,0.9 -0.7,0.4 -0.9,0.2 -0.9,-0.2 -0.8,-0.5 -0.3,-0.3 -0.1,-0.7 m -209,-515.9 0.4,0.6 0.9,0.1 0.6,-0.1 0.8,-0.4 0.5,-1 v -1.6 l -0.2,-1.4 -0.5,-1.2 -0.7,-0.5 -1,-0.1 h -0.3 l -0.8,0.5 -0.5,0.7 -0.1,0.9 v 0.3 l 0.5,0.9 0.7,0.4 0.9,0.2 0.3,-0.1 0.8,-0.4 0.5,-0.7 0.2,-0.9 m -7.4,5.5 2.3,-4.6 -4.5,0.8 m 2.2,3.8 -1.1,-6.2 m 111.1,-23.3 1.5,2.6 2.5,-1.1 -0.4,-0.1 -0.7,-0.7 -0.5,-0.7 -0.2,-1 0.2,-0.8 0.7,-0.7 0.5,-0.3 0.9,-0.2 0.8,0.2 0.7,0.7 0.5,0.7 0.2,1 -0.1,0.4 -0.4,0.5 m -9.1,-5.6 6.9,-0.5 m -4.8,4.2 -2.1,-3.7 m -20,23.1 -0.4,-0.4 h -1 l -0.6,0.2 -0.7,0.6 -0.2,1.1 0.2,1.5 0.6,1.4 0.7,1 0.7,0.4 1,-0.1 0.3,-0.1 0.7,-0.6 0.3,-0.8 v -0.9 l -0.1,-0.3 -0.6,-0.7 -0.8,-0.4 -0.9,0.1 -0.3,0.1 -0.7,0.6 -0.4,0.8 0.1,0.9 m 3.6,-4.4 0.5,-0.5 0.5,-1.1 2.2,5.9 m -49.7,-36 -0.3,-0.9 -0.6,-0.3 h -0.6 l -0.6,0.3 -0.3,0.6 -0.3,1.2 -0.3,0.9 -0.6,0.6 -0.6,0.4 h -0.9 l -0.6,-0.3 -0.3,-0.3 -0.3,-0.9 v -1.2 l 0.3,-0.9 0.3,-0.3 0.5,-0.3 h 0.9 l 0.7,0.2 0.6,0.6 0.3,0.9 0.3,1.2 0.3,0.6 0.6,0.3 h 0.6 l 0.6,-0.3 0.3,-0.9 v -1.4 m -1.4,4.6 h 0.3 l 0.6,0.2 0.3,0.3 0.3,0.6 v 1.2 l -0.3,0.6 -0.3,0.3 -0.6,0.4 h -0.6 l -0.6,-0.3 -0.9,-0.6 -3.1,-2.9 0.1,4.2 m 83.5,-72.8 -1.9,-6.7 m 5.1,3.9 -3.2,2.8 m -3.1,2.9 -0.6,-5.2 -3.3,3 m 3.9,2.2 -4.2,-4.7 m -98.7,24 -0.9,-0.2 -0.6,0.4 -0.3,0.5 v 0.7 l 0.4,0.5 0.9,0.9 0.6,0.7 0.2,0.8 v 0.7 l -0.5,0.8 -0.6,0.3 -0.4,0.1 -0.9,-0.2 -1,-0.6 -0.7,-0.7 -0.1,-0.4 0.1,-0.6 0.4,-0.8 0.6,-0.4 0.8,-0.2 0.9,0.2 1.2,0.3 0.7,0.1 0.6,-0.4 0.3,-0.5 v -0.7 l -0.6,-0.7 -1.2,-0.7 m 4,2.3 2.8,1.7 -2.7,1.1 0.7,0.5 0.4,0.6 0.1,0.4 -0.2,0.9 -0.3,0.5 -0.7,0.6 -0.8,0.3 -0.9,-0.2 -0.8,-0.5 -0.6,-0.7 -0.2,-0.4 0.1,-0.7 m 168.6,-48 3,0.1 0.4,-2.7 -0.4,0.3 -0.9,0.2 h -0.9 l -0.9,-0.3 -0.5,-0.6 -0.3,-0.9 v -0.6 l 0.3,-0.9 0.6,-0.6 0.9,-0.3 h 0.9 l 0.9,0.4 0.3,0.3 0.3,0.6 m -8.6,4.9 3.1,-4.1 -4.5,-0.1 m 1.4,4.2 0.2,-6.3 m -52.6,76.7 -2.9,-0.5 -0.8,2.6 0.3,-0.2 1,-0.2 0.9,0.2 0.8,0.5 0.5,0.6 0.1,1 -0.1,0.6 -0.4,0.8 -0.7,0.5 -1,0.1 -0.9,-0.1 -0.8,-0.5 -0.2,-0.3 -0.2,-0.7 m 10.1,-3.3 -4,5.6 m -0.1,-6.4 4.1,0.8 m 22.6,-10.6 -2.1,2.2 1.7,2.1 v -0.5 l 0.5,-0.8 0.6,-0.7 0.8,-0.4 h 0.9 l 0.8,0.4 0.5,0.4 0.4,0.9 v 0.8 l -0.4,0.9 -0.6,0.6 -0.9,0.4 -0.4,0.1 -0.6,-0.3 m 1.5,-6.7 -0.3,-0.2 -0.2,-0.6 v -0.4 l 0.2,-0.7 0.9,-0.8 0.6,-0.3 h 0.4 l 0.7,0.2 0.4,0.5 0.2,0.6 0.2,1.1 0.1,4.2 2.9,-3 M 221.1,47.9 228,47.1 m -4.6,4.4 -2.3,-3.6 m -2.3,-3.6 5.1,0.3 -2.4,-3.8 m -2.7,3.5 5.3,-3.4 m -79.6,-2 -0.7,-0.7 h -0.6 l -0.6,0.3 -0.4,0.5 v 0.7 l 0.2,1.2 0.2,0.9 -0.3,0.8 -0.4,0.5 -0.9,0.4 h -0.6 l -0.4,-0.1 -0.7,-0.7 -0.5,-1.1 -0.1,-0.9 0.1,-0.4 0.4,-0.6 0.8,-0.4 0.7,0.1 0.8,0.2 0.7,0.7 0.8,1 0.5,0.4 h 0.7 l 0.5,-0.3 0.4,-0.5 -0.1,-0.9 -0.6,-1.2 m 0.4,4.1 0.6,0.4 1.2,0.4 -5.7,2.7 m 28.4,-22.9 3,-0.3 0.1,-2.7 -0.3,0.3 -0.9,0.4 -0.9,0.1 -0.9,-0.3 -0.6,-0.5 -0.4,-0.9 V 19 l 0.2,-0.9 0.6,-0.7 0.8,-0.3 0.9,-0.1 1,0.3 0.3,0.2 0.3,0.6 m -8.1,5.8 2.7,-4.4 -4.5,0.3 m 1.8,4.1 -0.4,-6.3 m 93.6,233.2 v 0.6 l 0.6,1.2 -5.9,-2.2 m 5,5 0.1,-0.9 -0.7,-0.9 -1.3,-0.8 -0.8,-0.3 -1.5,-0.3 -1.1,0.3 -0.6,0.7 -0.2,0.6 v 0.9 l 0.6,0.9 1.3,0.8 0.9,0.3 1.5,0.3 1,-0.3 0.6,-0.7 0.2,-0.4 m -2.6,7 -4.9,-5.1 m 6.3,1.1 -1.4,4 m 28.7,-70.7 0.3,0.2 0.4,0.5 0.1,0.4 v 0.7 l -0.5,1 -0.5,0.4 -0.4,0.2 h -0.7 l -0.5,-0.3 -0.4,-0.5 -0.6,-0.9 -1.4,-4 -1.8,3.8 m 3.6,3.5 0.3,0.2 0.4,0.5 0.1,0.4 v 0.7 l -0.5,1.1 -0.5,0.4 -0.4,0.1 h -0.7 l -0.5,-0.2 -0.4,-0.6 -0.6,-0.9 -1.4,-4 -1.8,3.8 m 52.3,-43.2 -0.5,0.5 -0.5,1.1 -2,-6 m -3.4,5.8 v -0.9 l 0.4,-0.8 0.7,-0.6 0.3,-0.1 h 1 l 0.7,0.4 0.6,0.8 0.1,0.3 v 0.9 l -0.4,0.8 -0.8,0.5 -0.3,0.1 h -0.9 l -0.8,-0.3 -0.6,-1.1 -0.5,-1.4 -0.2,-1.5 0.3,-1.1 0.8,-0.5 0.6,-0.2 h 0.9 l 0.5,0.4 m 31.5,40.3 2.8,-1.8 -0.2,2.9 0.8,-0.4 0.6,-0.1 0.4,0.1 0.8,0.5 0.3,0.6 0.2,0.9 -0.1,0.8 -0.6,0.7 -0.8,0.5 -0.9,0.3 -0.4,-0.1 -0.6,-0.3 m 2.2,-7.6 2.8,-1.8 -0.2,3 0.7,-0.5 h 0.7 0.4 l 0.7,0.6 0.4,0.5 0.2,0.9 -0.2,0.9 -0.5,0.7 -0.8,0.5 -0.9,0.3 -0.4,-0.1 -0.6,-0.4 m 22.5,-56.1 -3.1,1.1 0.9,-2.9 -0.8,0.3 -0.7,-0.1 -0.4,-0.2 -0.5,-0.8 -0.2,-0.5 v -1 l 0.4,-0.7 0.7,-0.6 0.9,-0.3 h 0.9 l 0.4,0.2 0.5,0.5 m -6.5,7.5 1.6,-4.9 -4.3,1.4 m 2.7,3.5 -1.9,-6 m 41,45.6 -4.2,3 4.2,1.5 m 0,-4.5 -2,6 m 6.2,-4.5 h -1 l -0.8,0.6 -0.8,1.4 -0.3,0.8 -0.2,1.5 0.3,1.1 0.8,0.6 0.5,0.2 h 1 l 0.8,-0.7 0.8,-1.3 0.3,-0.9 0.2,-1.5 -0.3,-1 -0.8,-0.6 -0.4,-0.2 m 11.1,-58.4 -3.1,1 1,-2.8 -0.9,0.2 -0.6,-0.1 -0.4,-0.2 -0.6,-0.8 -0.1,-0.5 v -1 l 0.4,-0.7 0.7,-0.6 0.9,-0.2 h 1 l 0.3,0.2 0.5,0.5 m -5.1,6.9 0.8,-0.6 0.1,-0.7 -0.1,-0.5 -0.5,-0.5 -0.7,-0.1 h -1.2 -1 l -0.7,-0.4 -0.5,-0.5 -0.2,-0.8 0.1,-0.7 0.2,-0.4 0.7,-0.5 1.2,-0.4 0.9,0.1 0.4,0.2 0.5,0.4 0.2,0.9 -0.1,0.7 -0.4,0.7 -0.7,0.6 -1.1,0.6 -0.5,0.5 -0.1,0.6 0.2,0.6 0.4,0.5 h 1 l 1.3,-0.4 m 26.9,59.6 3,-1.2 -0.7,2.9 0.8,-0.4 0.7,0.1 0.3,0.2 0.7,0.7 0.2,0.5 v 1 l -0.3,0.8 -0.7,0.6 -0.9,0.3 -0.9,0.1 -0.4,-0.2 -0.5,-0.4 m 6.4,-8.1 -2.8,1.1 0.7,2.6 0.2,-0.3 0.7,-0.7 0.9,-0.3 h 0.9 l 0.8,0.3 0.6,0.7 0.2,0.6 0.1,0.9 -0.3,0.8 -0.8,0.6 -0.8,0.3 -1,0.1 -0.3,-0.2 -0.5,-0.4 m 46.9,-69.4 -0.2,-0.1 -0.6,-0.4 -0.2,-0.3 -0.1,-0.7 0.2,-1.2 0.5,-0.5 0.3,-0.2 0.7,-0.2 0.6,0.2 0.5,0.4 0.7,0.8 2.2,3.6 1,-4.1 m -4.3,-2.7 -0.3,-0.1 -0.5,-0.4 -0.2,-0.4 -0.2,-0.6 0.3,-1.2 0.4,-0.5 0.4,-0.2 0.6,-0.2 0.6,0.2 0.5,0.4 0.8,0.8 2.2,3.6 1,-4.1 M 497.7,62.3 497.1,62 h -1.2 l 4.7,-4.2 m -6.7,-0.9 0.9,-0.3 h 0.8 l 0.9,0.5 0.1,0.2 0.4,0.9 V 59 l -0.5,0.9 -0.2,0.2 -0.9,0.3 h -0.8 l -0.9,-0.5 -0.2,-0.2 -0.3,-0.9 V 58 l 0.7,-1.1 1.1,-1 1.4,-0.7 1,-0.2 0.8,0.5 0.4,0.4 0.4,0.9 -0.2,0.6 m -49.1,23.4 0.6,3.2 -2.7,-1.3 0.2,0.9 -0.2,0.6 -0.2,0.4 -0.9,0.4 -0.5,0.1 -1,-0.1 -0.7,-0.5 -0.4,-0.8 -0.2,-0.9 0.1,-0.9 0.3,-0.4 0.5,-0.4 m 6.3,5.8 -0.5,-0.8 -0.6,-0.2 -0.6,0.1 -0.6,0.4 -0.1,0.7 -0.1,1.2 -0.2,0.9 -0.4,0.7 -0.6,0.5 -0.9,0.1 -0.6,-0.2 -0.4,-0.2 -0.4,-0.8 -0.2,-1.2 0.1,-1 0.2,-0.3 0.6,-0.4 0.9,-0.2 0.6,0.2 0.7,0.5 0.5,0.8 0.5,1.1 0.4,0.6 0.6,0.2 0.6,-0.1 0.6,-0.4 0.1,-1 -0.3,-1.3 m 16.8,-36 -2.6,2.1 -0.1,-3 -0.7,0.5 -0.6,0.2 -0.5,-0.1 -0.8,-0.5 -0.3,-0.5 -0.4,-0.8 0.1,-0.9 0.5,-0.8 0.7,-0.5 0.9,-0.4 0.5,0.1 0.6,0.3 m -3.4,9.3 -0.3,-5.2 -3.5,2.8 m 3.8,2.4 -4,-4.9 m -170.6,287.9 0.4,-0.6 0.3,-1.2 3,5.6 m -0.5,-7.2 -0.6,0.7 -0.1,1.1 0.4,1.5 0.4,0.8 1,1.2 1,0.5 0.9,-0.2 0.5,-0.3 0.7,-0.7 0.1,-1 -0.4,-1.5 -0.5,-0.8 -0.9,-1.2 -1,-0.5 -0.9,0.2 -0.4,0.2 m 5.7,-3.2 -0.7,5.2 4,-2.2 m -3.3,-3 3,5.6 m 195.9,-150.3 2.5,2.1 -2.9,0.7 0.7,0.5 0.2,0.7 0.1,0.4 -0.4,0.9 -0.4,0.4 -0.8,0.5 -0.8,0.1 -0.9,-0.3 -0.7,-0.6 -0.5,-0.8 v -0.5 l 0.1,-0.6 m 8.8,0.7 -0.9,-0.4 -1,0.3 -1.2,1 -0.6,0.7 -0.7,1.3 -0.1,1.1 0.5,0.8 0.4,0.4 0.9,0.3 1,-0.3 1.2,-0.9 0.6,-0.7 0.7,-1.4 0.2,-1 -0.5,-0.9 -0.4,-0.2 m 0.4,-4.1 -0.3,-0.6 -1,-0.9 6.3,-0.4 m -6.7,-2.5 0.4,0.9 0.9,0.5 1.5,0.2 h 0.9 l 1.5,-0.5 0.9,-0.6 0.2,-0.9 -0.1,-0.6 -0.3,-0.9 -1,-0.5 -1.5,-0.2 h -0.9 l -1.5,0.4 -0.8,0.7 -0.2,0.9 v 0.5 m -0.6,-7.5 6.6,2.6 m -6.2,1.6 -0.4,-4.2 M 397.3,48.5 l 2.4,1.8 1.9,-2 -0.4,0.1 -0.9,-0.3 -0.8,-0.5 -0.5,-0.8 -0.1,-0.8 0.3,-0.9 0.3,-0.5 0.8,-0.6 0.8,-0.1 0.9,0.3 0.8,0.5 0.5,0.8 0.1,0.4 -0.2,0.7 m -7.8,0.5 -2.6,-1.9 2.9,-0.9 -0.7,-0.5 -0.3,-0.6 -0.1,-0.4 0.3,-0.9 0.3,-0.5 0.8,-0.6 0.9,-0.1 0.9,0.3 0.7,0.6 0.5,0.7 0.1,0.5 -0.1,0.6 m -41.7,51.9 -1.9,-2.4 -2.3,1.4 0.4,0.1 0.8,0.5 0.6,0.7 0.3,0.9 -0.1,0.8 -0.5,0.8 -0.5,0.4 -0.9,0.3 -0.8,-0.1 -0.8,-0.5 -0.6,-0.7 -0.3,-0.9 v -0.4 l 0.3,-0.6 m 6.5,2.4 0.2,-0.2 0.7,-0.2 0.4,0.1 0.6,0.3 0.7,0.9 0.2,0.7 -0.1,0.4 -0.3,0.6 -0.4,0.4 -0.7,0.1 -1.1,0.1 -4.2,-0.5 2.6,3.3 m 63.9,-29.2 -0.4,0.5 v 1 l 0.3,0.5 0.6,0.7 1.1,0.2 1.5,-0.3 1.4,-0.6 0.9,-0.8 0.3,-0.8 v -0.9 l -0.2,-0.3 -0.6,-0.7 -0.8,-0.3 -0.9,0.1 -0.3,0.1 -0.7,0.6 -0.3,0.8 0.1,1 0.1,0.3 0.6,0.7 0.8,0.3 1,-0.1 m -6.6,-4.6 0.6,0.7 1.1,0.2 1.5,-0.3 0.8,-0.4 1.2,-0.9 0.6,-0.9 -0.1,-0.9 -0.2,-0.6 -0.6,-0.7 -1.1,-0.2 -1.5,0.4 -0.8,0.3 -1.3,0.9 -0.6,0.9 0.1,0.9 0.2,0.5 m -22.6,25.3 -0.5,-0.4 -0.9,0.1 -0.6,0.3 -0.6,0.6 -0.2,1.1 0.4,1.5 0.7,1.3 0.8,1 0.8,0.2 0.9,-0.1 0.3,-0.1 0.7,-0.7 0.3,-0.8 -0.2,-1 -0.1,-0.2 -0.7,-0.7 -0.8,-0.3 -0.9,0.2 -0.3,0.1 -0.7,0.7 -0.2,0.8 0.1,0.9 m 3.2,-4.7 0.4,-0.5 0.4,-1.2 2.8,5.6 m 42.3,569.2 0.4,-0.5 0.5,-1.2 2.3,5.9 m -0.8,-5.2 0.4,-0.4 0.5,-1.2 2.3,5.8 m 2,-7.8 -2.7,1.1 0.7,2.7 0.1,-0.4 0.8,-0.6 0.8,-0.4 h 0.9 l 0.8,0.3 0.6,0.8 0.3,0.5 v 1 l -0.3,0.7 -0.8,0.6 -0.8,0.4 h -0.9 l -0.4,-0.1 -0.5,-0.5 m -55.6,-90.2 0.7,-0.1 0.5,-0.8 0.1,-0.6 -0.1,-1 -0.8,-0.8 -1.4,-0.6 -1.5,-0.3 -1.2,0.1 -0.7,0.4 -0.5,0.9 v 0.3 l 0.1,0.9 0.4,0.7 0.8,0.5 0.3,0.1 1,-0.2 0.7,-0.4 0.5,-0.8 v -0.3 l -0.1,-1 -0.4,-0.7 -0.9,-0.5 m 0.3,9.2 -0.9,-0.5 -0.4,-0.7 -0.1,-0.9 v -0.3 l 0.5,-0.8 0.7,-0.5 1,-0.1 0.3,0.1 0.8,0.5 0.4,0.7 0.1,0.9 v 0.3 l -0.5,0.8 -0.7,0.5 H 391 l -1.5,-0.3 -1.4,-0.6 -0.8,-0.8 -0.1,-0.9 0.1,-0.6 0.5,-0.8 0.7,-0.2 m 33.1,-13.9 h -0.7 l -1.1,0.5 2.5,-5.8 m -3,4.2 -0.7,0.1 -1.2,0.4 2.6,-5.7 m -3.6,3.9 -0.1,0.3 -0.5,0.4 -0.4,0.1 -0.7,0.1 -1.1,-0.5 -0.4,-0.5 -0.2,-0.4 v -0.7 l 0.2,-0.5 0.6,-0.5 0.9,-0.6 3.9,-1.5 -3.8,-1.7 m -36.5,-128.6 5,1 -1.9,-4.1 m -3.1,3.1 5.7,-2.6 m -56.1,-5.5 0.3,-0.1 0.6,0.1 0.4,0.1 0.5,0.5 0.4,1.1 -0.1,0.7 -0.2,0.4 -0.5,0.5 -0.5,0.2 -0.7,-0.1 -1,-0.3 -3.9,-1.9 1.4,4 m 6.8,0.5 -0.6,-0.8 -0.6,-0.1 -0.6,0.2 -0.5,0.5 -0.1,0.7 0.1,1.2 v 0.9 l -0.3,0.8 -0.5,0.5 -0.9,0.3 -0.6,-0.1 -0.4,-0.2 -0.6,-0.8 -0.4,-1.1 v -0.9 l 0.2,-0.4 0.5,-0.5 0.9,-0.3 0.6,0.1 0.8,0.4 0.6,0.7 0.6,1.1 0.5,0.4 0.7,0.1 0.5,-0.2 0.5,-0.4 v -1 l -0.4,-1.3 m 33.5,-59.1 0.4,0.8 1,0.6 1.5,0.2 0.9,-0.1 1.4,-0.4 0.9,-0.7 0.2,-0.9 v -0.6 l -0.4,-0.9 -0.9,-0.5 -1.5,-0.2 -0.9,0.1 -1.5,0.4 -0.9,0.6 -0.2,1 v 0.4 m -6.2,-40.3 -0.2,0.2 -0.6,0.3 h -0.5 l -0.6,-0.1 -0.9,-0.8 -0.3,-0.6 v -0.4 l 0.1,-0.7 0.4,-0.4 0.6,-0.3 1.1,-0.3 4.2,-0.4 -3.2,-2.7 m -52.8,43.4 0.2,-0.1 h 0.7 l 0.4,0.2 0.5,0.4 0.5,1.2 -0.1,0.6 -0.1,0.4 -0.5,0.5 -0.5,0.3 -0.7,-0.1 -1,-0.2 -4,-1.6 1.7,3.9 m 7.8,2.3 -7,-0.3 m 5.3,-3.5 1.7,3.8 m 19.3,-40.7 -0.4,0.5 -0.4,1.2 -2.7,-5.7 m 0.1,7.2 0.7,-0.7 0.2,-1 -0.4,-1.5 -0.4,-0.8 -0.9,-1.3 -0.9,-0.5 -1,0.1 -0.5,0.3 -0.7,0.6 -0.2,1.1 0.4,1.5 0.4,0.8 0.9,1.2 1,0.6 0.9,-0.1 0.4,-0.2 m -5.9,2.8 0.9,-5 -4,1.9 m 3.1,3.1 -2.7,-5.6 m 96.5,150.4 -0.6,-0.3 -1.3,-0.2 4.9,-3.9 m -6.9,1.8 0.8,0.5 1.1,-0.1 1.3,-0.7 0.7,-0.6 1,-1.1 0.4,-1.1 -0.4,-0.9 -0.3,-0.4 -0.8,-0.5 h -1.1 l -1.4,0.7 -0.7,0.6 -1,1.2 -0.3,1 0.3,0.9 0.3,0.4 m -29.5,32 v -0.7 l -0.6,-0.6 -0.6,-0.3 -0.9,-0.1 -1,0.5 -0.9,1.2 -0.7,1.3 -0.2,1.2 0.2,0.9 0.7,0.6 0.3,0.2 0.9,0.1 0.8,-0.3 0.7,-0.6 0.1,-0.3 0.2,-1 -0.3,-0.8 -0.7,-0.6 -0.3,-0.2 -0.9,-0.1 -0.8,0.3 -0.7,0.6 m 7.8,-0.8 -1,-0.1 -0.5,0.4 -0.3,0.5 v 0.7 l 0.4,0.5 1,0.8 0.6,0.7 0.3,0.8 v 0.7 l -0.4,0.8 -0.5,0.4 -0.4,0.1 -1,-0.1 -1,-0.6 -0.7,-0.6 -0.2,-0.4 v -0.7 l 0.4,-0.8 0.6,-0.4 0.8,-0.3 0.9,0.2 1.2,0.2 h 0.7 l 0.5,-0.4 0.3,-0.5 v -0.7 l -0.7,-0.7 -1.2,-0.6 m 62.9,3.1 -0.6,-0.1 -1.3,0.3 3.4,-5.3 m -5,4.5 -2.7,-1.8 2.8,-1 -0.8,-0.5 -0.3,-0.6 -0.1,-0.4 0.2,-0.9 0.3,-0.5 0.8,-0.6 0.8,-0.2 0.9,0.2 0.8,0.5 0.6,0.8 0.1,0.4 -0.1,0.6 m -26.2,5.2 0.5,-0.5 0.6,-1.1 1.8,6 m -0.4,-5.2 0.5,-0.4 0.6,-1.1 1.8,6 m 0.2,-5.3 -0.1,-0.2 0.1,-0.7 0.2,-0.4 0.5,-0.4 1.2,-0.4 0.6,0.2 0.4,0.2 0.4,0.5 0.2,0.5 -0.1,0.7 -0.3,1 -2.1,3.7 4.1,-1.1 m -87.6,-229.3 -0.3,0.8 0.3,0.7 0.5,0.3 0.6,0.2 0.6,-0.3 1,-0.8 0.8,-0.5 0.9,-0.1 0.6,0.1 0.7,0.6 0.3,0.6 0.1,0.4 -0.4,0.9 -0.7,1 -0.8,0.5 h -0.4 l -0.7,-0.1 -0.7,-0.6 -0.3,-0.6 -0.1,-0.8 0.3,-0.9 0.6,-1.1 0.1,-0.7 -0.3,-0.6 -0.5,-0.4 -0.6,-0.1 -0.8,0.5 -0.8,1.1 m 29.6,-74.2 -3.2,0.4 1.4,-2.6 -0.9,0.1 -0.6,-0.2 -0.4,-0.2 -0.4,-0.9 -0.1,-0.6 0.2,-0.9 0.5,-0.7 0.8,-0.4 0.9,-0.1 1,0.1 0.3,0.3 0.4,0.5 m -5.1,5.9 -3.3,0.5 1.4,-2.6 -0.9,0.1 -0.6,-0.2 -0.3,-0.3 -0.5,-0.8 -0.1,-0.6 0.2,-0.9 0.5,-0.7 0.9,-0.4 0.9,-0.2 0.9,0.2 0.3,0.2 0.4,0.6 m 36.4,23.2 5.1,0.8 -2.1,-4.1 m -3,3.3 5.6,-2.9 m -7.6,-1.2 0.7,0.7 1.1,0.2 1.4,-0.4 0.9,-0.4 1.2,-1 0.5,-0.9 -0.1,-1 -0.3,-0.5 -0.7,-0.7 -1,-0.1 -1.5,0.4 -0.8,0.4 -1.2,0.9 -0.6,1 0.2,0.9 0.2,0.4 m -17.2,55.8 -0.9,-0.1 -0.7,-0.5 -0.5,-0.8 v -0.3 l 0.1,-0.9 0.5,-0.7 0.8,-0.5 0.3,-0.1 1,0.2 0.7,0.5 0.4,0.8 0.1,0.3 -0.2,0.9 -0.5,0.7 -1.1,0.5 -1.5,0.3 H 382 l -1,-0.5 -0.4,-0.8 -0.1,-0.6 0.1,-0.9 0.5,-0.4 m 82.9,4.9 -0.6,-0.4 -0.9,0.2 -0.5,0.3 -0.7,0.7 -0.1,1.1 0.5,1.4 0.8,1.3 0.8,0.9 0.9,0.2 0.9,-0.1 0.2,-0.2 0.7,-0.7 0.2,-0.8 -0.2,-0.9 -0.1,-0.3 -0.7,-0.6 -0.9,-0.3 -0.9,0.2 -0.3,0.2 -0.6,0.7 -0.2,0.8 0.2,0.9 m 3.8,-7 -0.6,0.7 -0.1,1.1 0.5,1.4 0.5,0.8 1,1.2 0.9,0.4 1,-0.1 0.5,-0.3 0.6,-0.8 0.1,-1 -0.5,-1.5 -0.4,-0.8 -1,-1.1 -1,-0.5 -0.9,0.2 -0.4,0.2 m -8.2,-24.8 -1.8,-2.8 3,0.2 -0.5,-0.8 v -0.6 -0.4 l 0.6,-0.8 0.5,-0.3 0.9,-0.3 0.9,0.2 0.7,0.6 0.5,0.8 0.3,0.9 -0.1,0.4 -0.4,0.6 m -7.5,-6.1 0.9,-0.3 0.8,0.2 0.7,0.6 0.2,0.2 0.3,1 -0.2,0.8 -0.6,0.7 -0.3,0.2 -0.9,0.2 -0.8,-0.1 -0.8,-0.6 -0.1,-0.3 -0.3,-0.9 0.2,-0.8 0.9,-0.9 1.2,-0.8 1.4,-0.6 h 1.1 l 0.8,0.6 0.3,0.5 0.2,0.9 -0.3,0.6 m -18.5,-17.1 -1.6,2.9 -1.3,-2.7 -0.4,0.8 -0.5,0.3 -0.4,0.2 -1,-0.2 -0.5,-0.3 -0.6,-0.7 -0.3,-0.8 0.2,-1 0.4,-0.7 0.7,-0.7 0.4,-0.1 h 0.7 m 0.2,10.3 1.4,-2.6 -2.2,-1.6 0.1,0.4 -0.2,1 -0.4,0.7 -0.7,0.7 -0.8,0.2 -1,-0.1 -0.5,-0.3 -0.6,-0.7 -0.3,-0.8 0.2,-1 0.4,-0.8 0.7,-0.6 0.5,-0.1 h 0.6 m -36,78.3 -5.2,-0.1 2.6,3.7 m 2.6,-3.6 -5.2,3.6 m 7.2,3 -1,0.3 -0.8,-0.2 -0.8,-0.5 -0.1,-0.3 -0.3,-0.9 0.2,-0.8 0.5,-0.8 0.3,-0.2 0.9,-0.2 0.8,0.1 0.8,0.6 0.2,0.2 0.2,1 -0.1,0.8 -0.8,0.9 -1.3,0.9 -1.4,0.6 H 397 l -0.7,-0.6 -0.4,-0.5 -0.2,-0.9 0.3,-0.6 m 53.8,5.7 0.6,3 2.7,-0.2 -0.4,-0.2 -0.4,-0.9 -0.2,-0.8 0.2,-1 0.4,-0.7 0.9,-0.4 0.6,-0.1 0.9,0.1 0.7,0.5 0.4,0.8 0.2,0.9 -0.1,0.9 -0.3,0.4 -0.5,0.4 m -6.1,-5 -0.6,-3.2 2.7,1.3 -0.1,-0.8 0.2,-0.7 0.2,-0.3 0.8,-0.5 0.6,-0.1 1,0.1 0.7,0.5 0.4,0.9 0.2,0.9 -0.2,0.9 -0.2,0.3 -0.6,0.4 m -21.8,11.6 -0.4,0.8 -0.7,0.5 -0.9,0.2 -0.3,-0.1 -0.9,-0.4 -0.5,-0.7 -0.2,-0.9 0.1,-0.3 0.4,-0.8 0.7,-0.5 0.9,-0.2 h 0.3 l 0.9,0.4 0.5,0.7 0.1,1.3 -0.2,1.4 -0.5,1.5 -0.8,0.8 -0.9,0.2 -0.6,-0.1 -0.8,-0.4 -0.2,-0.7 m 9.4,-4.1 -3.8,5.8 m -0.3,-6.4 4.1,0.6 m 59.7,296.6 -0.4,-0.6 -1,-0.8 6.2,-0.9 m -6.2,-3.9 -0.6,0.4 -0.1,1 0.1,0.6 0.4,0.8 1,0.5 h 1.5 l 1.5,-0.2 1.1,-0.4 0.5,-0.7 0.2,-1 -0.1,-0.2 -0.4,-0.9 -0.7,-0.5 -0.9,-0.2 -0.3,0.1 -0.8,0.4 -0.5,0.7 -0.2,0.9 v 0.3 l 0.5,0.9 0.6,0.5 1,0.1 m -8.4,24.7 0.6,-0.3 0.8,-0.9 0.3,6.3 m 4.9,-6.8 -2.7,6.4 m -1.5,-6.2 4.2,-0.2 m -13.8,-82.1 -0.5,-0.5 -1.1,-0.6 6,-1.8 m -7.6,-2.7 0.9,2.9 2.6,-0.5 -0.3,-0.2 -0.6,-0.8 -0.2,-0.8 v -1 l 0.4,-0.7 0.8,-0.6 0.5,-0.1 h 1 l 0.7,0.4 0.6,0.8 0.2,0.8 v 1 l -0.2,0.3 -0.5,0.5 m -16.1,-12.3 -0.1,0.6 v 1.3 l -4.6,-4.2 m 2.6,4.6 0.2,0.2 0.2,0.6 0.1,0.4 -0.2,0.7 -0.8,0.9 -0.7,0.2 h -0.4 l -0.6,-0.1 -0.5,-0.4 -0.2,-0.7 -0.3,-1 -0.2,-4.3 -2.8,3.2 m -244.3,64 -1,0.2 -0.8,-0.2 -0.7,-0.6 -0.2,-0.2 -0.2,-0.9 0.2,-0.9 0.6,-0.7 0.2,-0.2 0.9,-0.2 0.9,0.2 0.7,0.6 0.2,0.2 0.2,1 -0.2,0.8 -0.8,0.9 -1.3,0.8 -1.4,0.6 -1.1,-0.1 -0.7,-0.6 -0.4,-0.5 -0.2,-0.9 0.3,-0.6 m 8,2.4 -0.8,-0.6 -0.6,0.1 -0.6,0.3 -0.3,0.6 0.1,0.6 0.4,1.2 0.2,0.9 -0.2,0.8 -0.3,0.6 -0.8,0.5 -0.7,0.1 -0.4,-0.1 -0.7,-0.6 -0.7,-1 -0.2,-0.9 0.1,-0.5 0.4,-0.5 0.7,-0.5 0.7,-0.1 0.8,0.2 0.7,0.6 0.9,0.8 0.6,0.4 0.7,-0.1 0.5,-0.3 0.3,-0.6 -0.2,-0.9 -0.7,-1.1 m 73,11.8 6.5,2.7 m -6.2,1.5 -0.3,-4.2 m 1.9,-5.1 0.9,0.3 0.6,0.5 0.4,0.9 v 0.3 l -0.3,0.9 -0.5,0.7 -0.9,0.3 h -0.3 l -0.9,-0.2 -0.7,-0.6 -0.3,-0.9 v -0.3 l 0.2,-0.9 0.6,-0.6 1.2,-0.4 1.5,-0.1 1.5,0.3 0.9,0.5 0.4,0.9 v 0.6 l -0.2,0.9 -0.6,0.3 m -24.3,67.8 0.2,-0.6 -0.1,-1.3 4.8,4 m -3.1,-6.4 -0.3,0.9 0.3,1 0.9,1.2 0.7,0.6 1.4,0.7 1,0.1 0.9,-0.5 0.3,-0.5 0.4,-0.9 -0.3,-1 -1,-1.2 -0.7,-0.6 -1.3,-0.7 -1.1,-0.1 -0.8,0.5 -0.3,0.4 m 3.3,-4 -0.3,0.8 0.3,1.1 0.9,1.2 0.7,0.5 1.4,0.8 1.1,0.1 0.8,-0.5 0.3,-0.5 0.4,-0.9 -0.3,-1 -1,-1.2 -0.7,-0.6 -1.3,-0.7 -1.1,-0.1 -0.8,0.5 -0.3,0.3 m -29.3,-12.4 0.5,0.4 1.2,0.5 -5.6,2.7 m 7.1,-0.2 -0.6,-0.7 -1.1,-0.1 -1.5,0.4 -0.8,0.4 -1.2,0.9 -0.6,0.9 0.2,1 0.2,0.5 0.7,0.7 1,0.1 1.5,-0.3 0.8,-0.4 1.3,-1 0.5,-0.9 -0.1,-0.9 -0.2,-0.4 m 0.2,3.6 0.5,0.4 1.2,0.4 -5.7,2.7 m -53.7,-149.1 0.9,-0.2 0.4,-0.6 v -0.6 l -0.2,-0.6 -0.6,-0.4 -1.2,-0.4 -0.8,-0.4 -0.6,-0.6 -0.2,-0.6 0.1,-0.9 0.3,-0.6 0.4,-0.3 0.9,-0.2 1.2,0.1 0.9,0.4 0.2,0.3 0.3,0.7 -0.1,0.9 -0.4,0.5 -0.6,0.6 -1,0.2 -1.2,0.2 -0.6,0.2 -0.4,0.6 v 0.6 l 0.2,0.6 0.9,0.4 1.3,0.1 m -5.5,-0.5 1,-0.2 0.3,-0.6 0.1,-0.6 -0.3,-0.6 -0.5,-0.4 -1.2,-0.4 -0.9,-0.4 -0.5,-0.6 -0.2,-0.7 0.1,-0.9 0.3,-0.5 0.3,-0.3 1,-0.2 1.2,0.1 0.8,0.4 0.3,0.3 0.2,0.6 v 0.9 l -0.4,0.6 -0.7,0.5 -0.9,0.3 -1.2,0.1 -0.6,0.3 -0.4,0.5 -0.1,0.6 0.3,0.7 0.9,0.4 1.3,0.1 m 9.1,-35 -0.9,-0.2 -0.5,0.4 -0.4,0.5 v 0.6 l 0.4,0.6 0.9,0.9 0.6,0.7 0.2,0.8 -0.1,0.7 -0.4,0.8 -0.6,0.3 -0.4,0.1 -0.9,-0.2 -1.1,-0.6 -0.6,-0.7 -0.1,-0.4 0.1,-0.7 0.4,-0.8 0.6,-0.3 0.8,-0.2 0.9,0.2 1.2,0.3 0.7,0.1 0.6,-0.4 0.3,-0.5 v -0.7 l -0.6,-0.7 -1.2,-0.7 m 4.8,2.8 -1,-0.2 -0.5,0.4 -0.3,0.5 -0.1,0.7 0.4,0.5 0.9,0.9 0.6,0.7 0.2,0.8 v 0.7 l -0.5,0.8 -0.6,0.3 -0.4,0.1 -0.9,-0.2 -1,-0.6 -0.7,-0.7 -0.1,-0.4 0.1,-0.7 0.4,-0.7 0.6,-0.4 0.8,-0.2 0.9,0.2 1.2,0.3 0.7,0.1 0.6,-0.4 0.3,-0.5 v -0.7 l -0.6,-0.7 -1.2,-0.7 m -36.3,-65.2 -0.3,-0.9 -0.6,-0.3 -0.6,0.1 -0.6,0.3 -0.3,0.6 -0.3,1.2 -0.3,0.9 -0.5,0.6 -0.6,0.3 -0.9,0.1 -0.6,-0.3 -0.4,-0.3 -0.3,-0.9 v -1.2 l 0.3,-0.9 0.3,-0.3 0.6,-0.3 0.9,-0.1 0.6,0.3 0.6,0.6 0.3,0.9 0.3,1.2 0.3,0.6 0.7,0.3 0.6,-0.1 0.5,-0.3 0.3,-0.9 v -1.3 m 0.2,8 -6.4,-2.8 m 6.3,-1.4 0.1,4.2 m 41.2,-15.5 h -0.3 l -0.6,-0.2 -0.4,-0.2 -0.4,-0.6 -0.1,-1.2 0.2,-0.6 0.2,-0.3 0.6,-0.4 0.6,-0.1 0.6,0.2 1,0.5 3.4,2.5 -0.6,-4.1 m -6.9,-3.8 0.4,2.9 2.7,-0.1 -0.3,-0.2 -0.4,-0.9 -0.2,-0.8 0.2,-1 0.5,-0.7 0.9,-0.4 0.6,-0.1 0.9,0.2 0.7,0.5 0.4,0.9 0.1,0.8 -0.2,1 -0.2,0.3 -0.6,0.4 m -25.8,-65.2 -0.3,0.1 h -0.7 l -0.4,-0.1 -0.5,-0.5 -0.5,-1 v -0.7 l 0.1,-0.4 0.4,-0.5 0.5,-0.3 h 0.7 l 1.1,0.1 4,1.4 -1.8,-3.8 m -7,-1.8 -0.4,0.5 0.1,0.9 0.3,0.6 0.7,0.7 1,0.1 1.5,-0.4 1.4,-0.7 0.9,-0.8 0.3,-0.8 -0.1,-0.9 -0.2,-0.3 -0.6,-0.6 -0.8,-0.3 -1,0.1 -0.3,0.1 -0.6,0.7 -0.3,0.8 0.1,0.9 0.2,0.3 0.6,0.7 0.8,0.3 1,-0.2 m -65.7,53.7 0.4,-0.5 0.4,-1.2 2.8,5.6 m -0.2,-7.1 -0.7,0.6 -0.1,1.1 0.4,1.5 0.4,0.8 0.9,1.2 1,0.5 0.9,-0.1 0.5,-0.3 0.7,-0.6 0.1,-1.1 -0.4,-1.5 -0.4,-0.8 -0.9,-1.2 -0.9,-0.5 -1,0.1 -0.4,0.2 m 6.7,-2.3 -0.5,-0.4 -1,0.1 -0.5,0.3 -0.7,0.6 -0.1,1.1 0.4,1.5 0.6,1.3 0.8,1 0.8,0.3 1,-0.2 0.3,-0.1 0.6,-0.7 0.3,-0.8 -0.1,-0.9 -0.2,-0.3 -0.6,-0.7 -0.8,-0.2 -1,0.1 -0.2,0.1 -0.7,0.7 -0.3,0.8 0.1,0.9 m 22.1,-103.6 0.8,0.5 0.6,-0.2 0.5,-0.5 0.2,-0.6 -0.2,-0.6 -0.6,-1.1 -0.4,-0.9 v -0.8 l 0.2,-0.6 0.7,-0.7 0.6,-0.2 h 0.5 l 0.8,0.5 0.8,0.9 0.4,0.8 v 0.4 l -0.2,0.7 -0.7,0.6 -0.6,0.2 h -0.9 l -0.8,-0.5 -1,-0.6 -0.7,-0.3 -0.6,0.2 -0.4,0.5 -0.3,0.6 0.4,0.8 1,1 m -4.6,-6.1 -0.3,0.6 0.4,0.9 0.5,0.4 0.8,0.5 1.1,-0.2 1.3,-0.8 1,-1.1 0.7,-1 v -0.9 l -0.4,-0.8 -0.2,-0.2 -0.8,-0.5 h -0.9 l -0.8,0.4 -0.3,0.2 -0.4,0.8 v 0.9 l 0.4,0.8 0.2,0.3 0.8,0.4 h 0.9 l 0.8,-0.4 m -96.4,-21 0.3,0.2 0.2,0.6 v 0.4 l -0.1,0.7 -0.8,0.9 -0.7,0.2 h -0.4 l -0.6,-0.1 -0.5,-0.4 -0.2,-0.7 -0.3,-1 -0.3,-4.3 -2.7,3.2 m 2.7,6.4 0.4,-0.9 -0.3,-1 -0.9,-1.3 -0.7,-0.6 -1.3,-0.7 -1.1,-0.2 -0.8,0.5 -0.4,0.4 -0.4,0.9 0.3,1.1 0.9,1.2 0.7,0.6 1.3,0.7 1.1,0.2 0.8,-0.5 0.3,-0.3 m 12.7,35.9 0.6,0.3 1.2,0.1 -4.9,4 m 6.8,-2 -0.8,-0.5 -0.7,0.1 -0.5,0.4 -0.2,0.6 0.1,0.6 0.5,1.2 0.3,0.9 v 0.8 l -0.3,0.6 -0.7,0.6 -0.7,0.1 h -0.4 l -0.8,-0.6 -0.8,-0.9 -0.3,-0.9 0.1,-0.4 0.2,-0.6 0.7,-0.6 0.7,-0.1 0.8,0.1 0.8,0.5 1,0.7 0.6,0.3 0.7,-0.1 0.5,-0.4 0.2,-0.6 -0.3,-0.9 -0.8,-1 m 48,-65 -0.2,0.2 -0.7,0.1 -0.4,-0.1 -0.6,-0.3 -0.7,-1 v -0.7 -0.4 l 0.4,-0.6 0.5,-0.3 0.6,-0.1 h 1.1 l 4.2,0.8 -2.4,-3.5 m -6.2,2.1 -1.8,-2.8 3,0.2 -0.5,-0.8 -0.1,-0.6 0.1,-0.4 0.6,-0.8 0.5,-0.3 0.9,-0.3 0.8,0.2 0.8,0.6 0.5,0.7 0.2,0.9 -0.1,0.4 -0.3,0.6 m -78.1,-59.2 -2.8,1.7 0.3,-3 -0.8,0.5 H 36 l -0.5,-0.1 -0.7,-0.6 -0.3,-0.5 -0.2,-0.9 0.2,-0.9 0.6,-0.7 0.8,-0.4 0.9,-0.2 0.4,0.1 0.6,0.3 m -2.6,5.9 -0.4,0.6 -0.3,1.2 -3.2,-5.4 m 41.7,17.1 -2.5,-2.1 2.9,-0.7 -0.7,-0.6 -0.2,-0.6 -0.1,-0.4 0.4,-0.9 0.3,-0.5 0.9,-0.5 h 0.8 l 0.9,0.3 0.7,0.6 0.5,0.8 v 0.4 l -0.1,0.7 m -6.9,-1 -0.1,0.2 -0.7,0.3 h -0.4 l -0.6,-0.1 -1,-0.8 -0.2,-0.6 -0.1,-0.5 0.2,-0.6 0.4,-0.5 0.6,-0.2 1,-0.3 4.3,-0.4 -3.3,-2.7 m -45.7,21.7 h 0.3 l 0.6,0.1 0.4,0.3 0.4,0.5 0.2,1.2 -0.2,0.6 -0.2,0.4 -0.5,0.4 -0.6,0.1 -0.7,-0.2 -1,-0.4 -3.5,-2.4 0.8,4.2 m 5,0.1 0.4,0.5 1.1,0.7 -6.2,1.2 m 19.7,22.8 0.1,-0.3 0.5,-0.4 0.3,-0.2 0.7,-0.1 1.1,0.3 0.5,0.5 0.2,0.4 0.1,0.6 -0.2,0.6 -0.4,0.5 -0.9,0.7 -3.8,1.9 4,1.3 m 4.8,-5.1 h -1 l -0.8,0.7 -0.8,1.3 -0.2,0.9 -0.2,1.5 0.3,1 0.7,0.6 0.6,0.2 h 1 l 0.8,-0.7 0.8,-1.4 0.2,-0.8 0.2,-1.5 -0.3,-1.1 -0.8,-0.5 -0.4,-0.2 m 2.4,309.6 -0.3,-0.9 0.1,-0.9 0.6,-0.7 0.2,-0.2 0.9,-0.3 0.9,0.1 0.7,0.6 0.2,0.2 0.3,0.9 -0.1,0.9 -0.6,0.8 -0.2,0.1 -0.9,0.3 -0.9,-0.1 -0.9,-0.8 -0.9,-1.2 -0.6,-1.4 -0.1,-1.1 0.6,-0.8 0.5,-0.3 0.9,-0.3 0.6,0.3 m -2.2,8.2 0.6,-0.8 -0.1,-1 -0.6,-1.4 -0.5,-0.8 -1.2,-1 -1,-0.4 -0.9,0.3 -0.5,0.4 -0.5,0.7 v 1.1 l 0.7,1.4 0.5,0.7 1.1,1.1 1,0.4 0.9,-0.3 0.4,-0.3 m 141.3,67.2 0.9,0.3 0.6,0.6 0.3,0.9 v 0.3 l -0.4,0.9 -0.6,0.6 -0.9,0.3 h -0.3 l -0.9,-0.3 -0.6,-0.6 -0.2,-0.9 v -0.3 l 0.3,-0.9 0.6,-0.6 1.2,-0.3 h 1.5 l 1.5,0.4 0.9,0.6 0.3,0.9 v 0.6 l -0.4,0.9 -0.6,0.3 m -5.3,-6.4 0.3,0.9 0.6,0.3 0.6,0.1 0.6,-0.3 0.3,-0.6 0.4,-1.2 0.3,-0.9 0.6,-0.6 0.6,-0.3 h 0.9 l 0.6,0.3 0.3,0.3 0.3,0.9 -0.1,1.2 -0.3,0.9 -0.3,0.3 -0.6,0.3 h -0.9 l -0.6,-0.3 -0.6,-0.6 -0.2,-0.9 -0.3,-1.2 -0.3,-0.6 -0.6,-0.3 -0.6,-0.1 -0.6,0.3 -0.3,0.9 -0.1,1.4 m -107.2,76.1 -5.9,3.6 m 2.4,-5.9 3.5,2.3 m 0.1,1.7 0.7,0.1 1.2,-0.3 -3.3,5.3 m 8.5,-52.7 -0.6,-0.7 -0.2,-0.8 0.2,-0.9 0.1,-0.3 0.7,-0.6 0.9,-0.2 0.9,0.2 0.2,0.1 0.7,0.8 0.2,0.8 -0.2,0.9 -0.2,0.3 -0.7,0.6 -0.8,0.2 -1.2,-0.4 -1.3,-0.7 -1.1,-1 -0.5,-1 0.2,-0.9 0.3,-0.6 0.7,-0.6 0.7,0.1 m 0.4,9.9 1.5,-2.6 -2.1,-1.6 0.1,0.4 -0.2,0.9 -0.5,0.8 -0.7,0.6 -0.8,0.2 -1,-0.2 -0.5,-0.3 -0.6,-0.7 -0.2,-0.8 0.2,-1 0.4,-0.7 0.8,-0.6 0.4,-0.2 0.6,0.1 m 79.1,37.8 0.1,-0.7 -0.2,-1.3 5.2,3.6 m -3.7,-6.1 -0.2,0.9 0.4,1 1,1.1 0.7,0.5 1.4,0.7 h 1.1 l 0.8,-0.6 0.3,-0.5 0.3,-0.9 -0.4,-1 -1,-1.1 -0.8,-0.5 -1.4,-0.6 -1.1,-0.1 -0.7,0.6 -0.3,0.4 m 3.1,-1.9 0.1,-0.7 -0.3,-1.3 5.2,3.7 m -54.3,27.6 0.6,-0.3 0.9,-0.9 -0.2,6.3 m 1.3,-5 0.6,-0.3 0.9,-0.9 -0.2,6.3 m 1.9,-6.4 3.3,0.1 -1.8,2.3 h 0.9 l 0.6,0.3 0.2,0.4 0.3,0.9 v 0.6 l -0.3,0.9 -0.6,0.5 -1,0.3 h -0.9 l -0.8,-0.3 -0.3,-0.3 -0.3,-0.7 m 1.2,-538.2 -0.7,-0.6 -0.3,-0.7 v -1 l 0.1,-0.3 0.7,-0.7 0.7,-0.3 h 1 l 0.3,0.1 0.7,0.6 0.3,0.8 v 1 l -0.1,0.3 -0.7,0.7 -0.7,0.3 -1.3,-0.2 -1.4,-0.5 -1.2,-0.8 -0.7,-0.9 0.1,-1 0.2,-0.5 0.6,-0.8 h 0.7 m -0.1,9.2 -0.7,-0.6 -0.4,-0.7 0.1,-1 0.1,-0.3 0.6,-0.7 0.8,-0.3 h 0.9 l 0.3,0.1 0.7,0.6 0.4,0.8 -0.1,1 -0.1,0.2 -0.6,0.8 -0.8,0.3 -1.2,-0.2 -1.4,-0.5 -1.3,-0.8 -0.6,-0.9 v -1 l 0.3,-0.5 0.6,-0.8 h 0.6 m 0.8,20.4 v -0.7 l -0.7,-0.6 -0.6,-0.2 -0.9,-0.1 -0.9,0.6 -0.9,1.2 -0.6,1.4 -0.2,1.2 0.3,0.8 0.7,0.6 0.3,0.2 h 0.9 l 0.8,-0.3 0.7,-0.7 0.1,-0.3 0.1,-0.9 -0.4,-0.8 -0.7,-0.6 -0.2,-0.1 -1,-0.1 -0.8,0.3 -0.6,0.7 m 9.6,-0.4 -2.8,-1.2 -1.3,2.3 0.4,-0.1 0.9,0.1 0.9,0.3 0.7,0.6 0.3,0.8 -0.1,1 -0.2,0.5 -0.7,0.7 -0.8,0.3 h -0.9 l -0.8,-0.4 -0.7,-0.6 -0.2,-0.4 v -0.7 m -42.4,208 -0.5,0.8 -0.7,0.5 h -0.9 -0.3 l -0.8,-0.5 -0.5,-0.7 -0.1,-1 0.1,-0.3 0.5,-0.8 0.7,-0.4 1,-0.1 h 0.3 l 0.8,0.5 0.4,0.8 v 1.2 l -0.3,1.5 -0.6,1.4 -0.8,0.7 -1,0.1 -0.5,-0.2 -0.9,-0.4 -0.1,-0.7 m 7.6,-3.8 -1,0.1 -0.7,0.8 -0.7,1.3 -0.2,0.9 v 1.6 l 0.4,1 0.8,0.5 0.6,0.1 0.9,-0.1 0.8,-0.7 0.6,-1.4 0.2,-0.9 0.1,-1.5 -0.4,-1 -0.8,-0.5 -0.5,-0.1 m -0.8,-24.6 0.2,0.1 0.3,0.6 0.1,0.4 -0.1,0.7 -0.6,1 -0.6,0.3 -0.4,0.1 -0.7,-0.1 -0.5,-0.3 -0.3,-0.6 -0.4,-1 -0.8,-4.2 -2.4,3.5 m 2.9,7.1 -1.8,-4.8 -2.5,3.7 m 4.3,1.1 -5.2,-3.5 m 3.4,109.2 0.2,0.6 0.7,1 -6.2,-0.9 m 6,3.9 -0.2,-0.9 -0.7,-0.8 -1.5,-0.5 -0.9,-0.1 h -1.5 l -1,0.5 -0.4,0.8 -0.1,0.6 0.2,1 0.7,0.7 1.5,0.5 0.9,0.1 h 1.5 l 1,-0.5 0.4,-0.8 0.1,-0.5 m -2,6.8 0.7,-0.2 0.4,-0.8 0.1,-0.6 -0.2,-1 -0.8,-0.7 -1.4,-0.5 -1.5,-0.2 -1.2,0.1 -0.7,0.5 -0.4,0.8 -0.1,0.3 0.2,0.9 0.5,0.7 0.8,0.5 h 0.3 l 1,-0.1 0.6,-0.6 0.5,-0.8 v -0.3 l -0.1,-0.9 -0.5,-0.7 -0.9,-0.4 m 38.1,-0.5 1,0.2 0.5,-0.3 0.4,-0.5 v -0.7 l -0.3,-0.6 -0.9,-0.9 -0.6,-0.7 -0.2,-0.8 0.1,-0.7 0.5,-0.8 0.6,-0.3 0.4,-0.1 0.9,0.2 1,0.7 0.6,0.7 0.1,0.4 -0.1,0.7 -0.4,0.8 -0.6,0.3 -0.8,0.2 -1,-0.2 -1.1,-0.4 -0.7,-0.1 -0.6,0.3 -0.3,0.6 -0.1,0.6 0.6,0.8 1.2,0.7 m -6.8,-4.3 5.9,-3.7 m -2.4,5.9 -3.5,-2.2 M 57.1,624.3 v 0.9 l -0.4,0.8 -0.7,0.6 -0.3,0.1 h -0.9 l -0.8,-0.4 -0.6,-0.8 -0.1,-0.2 v -1 l 0.4,-0.8 0.8,-0.5 0.2,-0.1 h 1 l 0.8,0.4 0.6,1 0.5,1.4 0.2,1.5 -0.3,1.1 -0.8,0.6 -0.5,0.1 h -1 l -0.4,-0.4 m 6.1,-7.8 -2.8,1 0.6,2.6 0.2,-0.4 0.7,-0.5 0.9,-0.3 h 0.9 l 0.8,0.4 0.5,0.7 0.2,0.6 v 0.9 l -0.3,0.8 -0.8,0.6 -0.8,0.2 h -1 l -0.4,-0.1 -0.5,-0.5 M 25.9,607.5 25,607 l -0.5,-0.7 -0.1,-0.9 v -0.3 l 0.5,-0.8 0.7,-0.5 0.9,-0.2 0.3,0.1 0.8,0.4 0.5,0.7 0.2,1 -0.1,0.2 -0.4,0.9 -0.7,0.5 -1.2,0.1 -1.5,-0.3 -1.4,-0.5 -0.8,-0.7 -0.2,-1 0.1,-0.6 0.5,-0.8 0.6,-0.2 m 3,5.8 0.3,0.1 0.5,0.4 0.3,0.3 0.2,0.6 -0.2,1.2 -0.4,0.6 -0.4,0.2 -0.6,0.2 -0.6,-0.1 -0.5,-0.4 -0.8,-0.7 -2.5,-3.5 -0.7,4.2 m 101,-464.2 0.7,5.1 3.3,-3.1 m -4,-2 4.3,4.6 m -1.4,-5.3 0.2,-0.6 0.1,-1.3 4.2,4.6 m 15,-43.8 4.3,2.9 -0.2,-4.5 m -4.1,1.6 6.3,-0.2 m -4.9,-3 h -0.3 l -0.6,-0.3 -0.3,-0.3 -0.3,-0.5 v -1.2 l 0.2,-0.7 0.3,-0.3 0.6,-0.3 h 0.6 l 0.6,0.3 0.9,0.5 3.1,2.9 -0.1,-4.2 m -54.9,55.7 -5.1,1.1 3.4,3 m 1.7,-4.1 -4.2,4.7 m 8.2,0.2 0.2,-0.6 -0.5,-0.8 -0.5,-0.4 -0.8,-0.4 -1.1,0.2 -1.2,1 -1,1.1 -0.6,1.1 0.1,0.8 0.4,0.8 0.2,0.2 0.9,0.4 h 0.9 l 0.8,-0.5 0.2,-0.2 0.4,-0.9 -0.1,-0.8 -0.4,-0.9 -0.3,-0.2 -0.8,-0.3 h -0.9 l -0.8,0.5 m 34.8,-87.3 2.5,1.6 1.7,-2.1 -0.4,0.1 -0.9,-0.3 -0.8,-0.4 -0.6,-0.8 -0.1,-0.8 0.2,-0.9 0.3,-0.5 0.8,-0.6 0.8,-0.2 0.9,0.2 0.8,0.5 0.6,0.8 0.1,0.4 -0.1,0.7 m -8.8,0.3 0.9,0.3 1,-0.5 1.1,-1.1 0.5,-0.7 0.5,-1.4 v -1.1 l -0.6,-0.8 -0.5,-0.3 -0.9,-0.2 -1,0.4 -1,1.1 -0.5,0.7 -0.6,1.5 v 1 l 0.6,0.8 0.4,0.2 m -71.3,64.7 -3.5,-3.9 -1,4.4 m 4.5,-0.5 -6.2,-1.4 m 4.6,7.9 -5.5,-4.3 m 6.4,0.2 -0.9,4.1 m 3,3.3 -2.4,4.5 4.5,-0.6 m -2.1,-3.9 0.9,6.2 m 5.5,-6.1 -0.4,-0.6 -1,-0.1 h -0.5 l -0.9,0.5 -0.5,0.9 -0.1,1.6 0.2,1.4 0.5,1.2 0.6,0.5 1,0.2 0.3,-0.1 0.8,-0.4 0.5,-0.6 0.2,-1 v -0.3 l -0.4,-0.8 -0.7,-0.5 -0.9,-0.2 h -0.3 l -0.9,0.4 -0.5,0.7 -0.2,0.9 m 41.7,-86.4 2.9,-0.4 V 59 l -0.3,0.4 -0.8,0.4 -0.9,0.1 -1,-0.1 -0.6,-0.6 -0.5,-0.8 -0.1,-0.6 0.2,-0.9 0.5,-0.7 0.9,-0.4 0.9,-0.2 0.9,0.2 0.3,0.3 0.4,0.5 m -4.7,4.4 -0.5,0.4 -0.8,1 -0.9,-6.2 m -37,-15.1 1.8,-2.4 -2,-1.8 v 0.4 l -0.3,0.9 -0.5,0.7 -0.8,0.6 -0.8,0.1 -0.9,-0.3 -0.5,-0.4 -0.5,-0.7 -0.2,-0.9 0.3,-0.9 0.6,-0.7 0.7,-0.5 0.5,-0.1 0.6,0.1 m -3.1,9.2 -0.5,-0.8 -0.2,-0.8 0.3,-0.9 0.2,-0.2 0.8,-0.6 0.8,-0.1 0.9,0.3 0.3,0.2 0.5,0.8 0.1,0.8 -0.3,0.9 -0.1,0.2 -0.8,0.6 -0.8,0.1 -1.2,-0.5 -1.2,-0.9 -1,-1.1 -0.4,-1 0.3,-0.9 0.4,-0.5 0.8,-0.5 0.6,0.1 m 15,2.8 0.9,-0.2 0.8,0.3 0.7,0.7 0.2,0.2 0.1,1 -0.3,0.8 -0.6,0.6 -0.3,0.2 -0.9,0.1 -0.9,-0.2 -0.6,-0.7 -0.2,-0.3 -0.1,-0.9 0.3,-0.8 0.9,-0.8 1.3,-0.7 1.5,-0.4 1.1,0.1 0.7,0.7 0.2,0.5 0.2,0.9 -0.4,0.6 m -8.5,-4.6 5.1,0.8 -2,-4 m -3.1,3.2 5.6,-2.8 m -44.2,83.5 -0.5,5.2 3.9,-2.3 m -3.4,-2.9 3.2,5.5 m 2.6,-8.8 0.6,7 m -4.2,-4.9 3.6,-2.1 m -1.9,-48.1 0.7,-5.1 -4,2.2 m 3.3,2.9 -3,-5.5 m 0.1,7 -2.9,1.6 0.5,-3 -0.8,0.5 h -0.7 l -0.4,-0.1 -0.7,-0.7 -0.3,-0.5 -0.1,-1 0.2,-0.8 0.7,-0.7 0.8,-0.4 0.9,-0.2 0.4,0.2 0.6,0.4 m -5.2,34.6 -4.5,-2.6 0.4,4.5 m 4.1,-1.9 -6.3,0.6 m 5.1,2.1 0.3,0.6 1,0.8 -6.3,0.6"
       id="nums_001"
       stroke="#000000"
       style="stroke-width:1.01549;stroke-dasharray:none" />
    <path
       d="m 35.2,294.5 27,-30.3 -38.7,-12.5 -9.8,-51.4 36.1,-21.6 49.8,41.7 42.2,62.8 29.4,30.7 41.6,84.8 8.6,59.8 7.4,-60 -27,-90.5 -44.7,-31.9 -24.9,-58.9 -22.7,-9.8 19.3,-48.6 65.7,-11.3 -0.9,-50 -41.9,-24.2 -26.2,-55 82.7,-5.9 38.3,60 53.4,-47 82.9,2 36.3,27.1 14.1,32.1 -67,33.5 -28.8,-36.9 -32.6,33.6 -37.9,-6.7 19.3,33.3 -70,26.7 30.7,71.6 -8.4,40.4 20.7,-55.1 32,-67.1 60.8,-20 49.9,-16.2 44.8,-13.8 -8.5,-46.2 40.9,-32.7 42.5,47.9 -17,72.4 4.3,58.6 -31.6,-26.3 -35.6,14.2 -52.6,-17.8 -52,33.7 61,-9.2 24.8,49.7 18.5,-33.6 42.7,65.2 -30.4,17.4 8,44.6 -57.6,-8.2 -21.4,-31 -8,-44.1 -47.9,60.7 -61.4,32.8 36.2,49.5 31,50.9 -19.1,-56.5 -23.7,-56.5 62.8,-30.1 17.7,14.9 5.7,76.4 20,43.6 43,53.9 16.7,10.7 -56.3,16.3 -40.5,-20.2 27.1,36.2 -7.2,67.5 14,-66.4 53.6,23.8 34.2,-38 18.7,61.6 9.4,64.7 -25.6,1.3 -66.4,26.3 -87.6,-17.6 -28.3,-81.2 4.2,85.9 -39.4,47.7 -34.1,-70.5 -35,-54.7 -1.1,64.9 -44.8,64.2 -53.5,-1.6 -40.4,-25.9 50.3,-85 -93.7,31.3 12.6,-75.4 38.7,-28 9.8,-63.5 76.7,48.7 87.2,8.6 -75.5,-44.5 -2.5,-90.7 -57.5,28.5 -46.6,-10.9 35.35,-53.15 z M 153.3,130 l -48,44.9 -27.2,-24.6 -36.4,4.8 8.9,-39 L 16.1,136.2 9.8,70.8 39.7,54.6 65.2,20.4 83.5,56.3 113.4,52.1 151.5,77 Z"
       id="coupes_001"
       stroke="#ff0000"
       style="stroke-width:1.26936"
       sodipodi:nodetypes="cccccccccccccccccccccccccccccccccccccccccccccccccccccccccccccccccccccccccccccccccccccccccccccccccccccccccccccccccccc" />
    <path
       d="m 228.8,398.5 72.8,9 m 0,0 -80.2,51 m 7.4,-60 36.6,-40.5 m 67.2,100.4 -111.2,0.1 M 201.8,308 l 63.6,50 m 67.2,100.4 -94.3,77.4 m 0,0 -16.9,-77.3 M 201.8,308 238.5,282.1 m 94.1,176.3 26.3,52.5 m 0,0 -120.6,24.9 m 120.6,-24.9 -58.1,78.2 m 0,0 -62.5,-53.3 m -81.2,-259.7 89.8,-34.4 m 139.1,305.4 -85.2,42 m -143.7,-313 59.1,-106 m 162.6,444.5 -78,-25.5 m -168.6,-371.9 84,-47.1 m 162.6,444.5 -49.7,55.7 m 49.7,-55.7 37.9,73.3 M 194.5,147.5 266.9,110.1 m 0,0 -50.7,60 m -21.7,-22.6 52,-75.1 m 0,0 20.4,37.7 M 193.6,97.5 246.5,72.4 m 53.4,-47 -33,84.7 M 151.7,73.3 246.5,72.4 m 53.4,-47 37.5,57.8 m 0,0 -70.5,26.9 M 382.8,27.4 337.4,83.2 M 151.7,73.3 208.2,12.4 m 51,214.6 6.2,131 M 300.8,250.6 265.4,358 m 25.8,-198.1 9.6,90.7 m -9.6,-90.7 46.1,54 m 0,0 -36.5,36.7 m 51.2,-110.7 -14.7,74 m 14.7,-74 37.1,40.1 m 12.8,-56.3 -12.8,56.3 m 12.8,-56.3 39.8,74.1 m 5,-87.9 -5,87.9 m 5,-87.9 30.6,73.7 m -30.6,-73.7 57.9,41.4 m -57.9,-41.4 74.9,-31 m -74.9,31 32.4,-78.9 m -178.3,219.6 26,74.6 M 419.1,54.5 337.4,83.2 m 81.7,-28.7 -52.9,65.6 m 12.6,494.5 104.3,47 M 378.8,614.6 446.4,572 M 396,450.2 358.9,510.9 m -26.3,-52.5 63.4,-8.2 m -63.4,8.2 43.4,-51.8 m -62.5,-4.7 62.5,4.7 m -62.5,-4.7 39.1,-86.6 m 86.4,188.8 -80.1,6.8 m 80.1,-6.8 -39.6,27 M 336.9,213.5 326.8,325.2 m 10.1,-111.7 37.8,51 m 23.4,-60 -23.4,60 m 48.2,-10.3 -40.2,54.4 m 40.2,-54.4 30.8,49 m 0,0 -71,5.4 m 40.2,-54.4 61.2,31.6 m -37.7,286.2 52.9,23.6 m 0,0 -16.2,66 m -182.3,-72.5 -104.3,8.4 m 0,0 41.8,-61.7 m 62.5,53.3 -69.3,63.1 M 305,675 231.5,652.2 m -35,-54.7 -45.4,-70.3 m 11.7,-35.9 58.6,-32.8 m -61.1,-57.9 61.1,57.9 m -61.1,-57.9 52.5,-1.9 m -82.4,-59.3 82.4,59.3 m -52.5,1.9 -29.9,-61.2 m 0,0 40.8,-25.5 m -10.9,86.7 -68.5,-35.2 m 0,0 38.6,-26 m -27.6,89.7 -11,-63.7 m -29.6,-101.2 79.6,19 m -11.4,56.2 -68.2,-75.2 m 68.2,75.2 -95.2,-44.9 m 27,-30.3 37.4,-43.8 M 13.7,200.3 99.6,220.4 M 62.2,264.2 13.7,200.3 M 196.5,597.5 107,614.1 m 0,0 44.1,-86.9 M 107,614.1 64.6,542 m 0,0 86.5,-14.8 M 107,614.1 25.9,570 M 195.4,662.4 107,614.1 m 88.4,48.3 -98.3,62.6 m 0,0 9.9,-110.9 M 105.3,174.9 151.5,77 M 78.1,150.3 151.5,77 M 78.1,150.3 113.4,52.1 M 78.1,150.3 50.6,116.1 m 0,0 32.9,-59.8 M 50.6,116.1 39.7,54.6 M 16.1,136.2 39.7,54.6"
       id="plisM_001"
       stroke="#a52a2a"
       stroke-dasharray="4" />
    <path
       d="m 238.5,282.1 26.9,75.9 m -108.3,-81.9 81.4,6 m -106.3,-64.9 -3.4,-58.4 m 0,0 87.4,11.3 m -21.7,-22.6 21.7,22.6 m 43,56.9 41.6,23.6 m 203.8,-99.3 -27.3,32.3 M 446.4,572 483.1,661.6 M 313.5,401.9 370.3,330.2 m 52.6,-76 -48.2,10.3 m 79,38.7 -49.6,36.4 m -273.7,-0.2 11.4,-56.2 m -91.2,-167.1 62.8,-64 m -73.7,2.5 43.8,1.7"
       id="plisV_001"
       stroke="#008000"
       stroke-dasharray="4, 1, 1, 1"
       style="stroke-width:1.26936" />
    <path
       d="m 250,318 4,4 m 0,-4 -4,4 m -54.2,-44.9 4,4 m 0,-4 -4,4 m -67.3,-95.1 4,4 m 0,-4 -4,4 m 42,-27.6 4,4 m 0,-4 -4,4 m 32.9,-9.6 4,4 m 0,-4 -4,4 m 74.6,76 4,4 m 0,-4 -4,4 m 211,-75.4 4,4 m 0,-4 -4,4 m -26.3,445.4 4,4 m 0,-4 -4,4 m -122.8,-254.7 4,4 m 0,-4 -4,4 m 56.9,-110.8 4,4 m 0,-4 -4,4 m 30.1,58.1 4,4 m 0,-4 -4,4 m -292.8,-14.1 4,4 m 0,-4 -4,4 M 80,82.1 l 4,4 m 0,-4 -4,4 m -20.4,-32.6 4,4 m 0,-4 -4,4"
       id="marqueV_001"
       stroke="#008000" />
    <path
       d="m 295.4,302.4 1.5,-0.7 2.2,-2.3 v 15.8"
       id="titre_1"
       stroke="#4b0082"
       style="stroke-width:1.01549;stroke-dasharray:none" />
    <path
       d="m 76.2,97.5 v -0.7 l 0.7,-1.5 0.8,-0.8 1.5,-0.7 h 3 l 1.5,0.7 0.7,0.8 0.8,1.5 v 1.5 l -0.8,1.5 -1.5,2.2 -7.5,7.5 h 10.5"
       id="titre_2"
       stroke="#4b0082"
       style="stroke-width:1.01549;stroke-dasharray:none" />
  </g>
  <g
     id="page_002">
    <path
       d="m 815.7,394.4 -0.3,3.3 -2.2,-2 -0.1,0.9 -0.4,0.6 -0.3,0.2 -0.9,0.3 -0.6,-0.1 -0.9,-0.4 -0.5,-0.6 -0.2,-0.9 v -0.9 l 0.4,-0.9 0.3,-0.3 0.7,-0.2 m 52.5,-34.3 3.8,3.4 0.5,-4.4 m -4.3,1 6.2,0.7 m -5.7,-4.8 0.2,0.9 0.5,0.4 h 0.6 l 0.7,-0.2 0.3,-0.6 0.4,-1.1 0.4,-0.9 0.7,-0.5 0.6,-0.3 0.9,0.1 0.6,0.4 0.2,0.3 0.2,1 -0.1,1.1 -0.4,0.9 -0.3,0.3 -0.6,0.2 -0.9,-0.1 -0.6,-0.3 -0.5,-0.7 -0.2,-0.9 -0.2,-1.2 -0.2,-0.7 -0.6,-0.3 -0.6,-0.1 -0.6,0.2 -0.4,0.9 -0.2,1.3 m -26.1,-39.8 -4,-3.3 -0.3,4.5 m 4.3,-1.2 -6.3,-0.5 m 3.6,6.9 -0.9,-0.4 -0.5,-0.7 -0.2,-0.9 v -0.3 l 0.4,-0.9 0.6,-0.5 0.9,-0.2 h 0.3 l 0.9,0.4 0.5,0.6 0.3,0.9 -0.1,0.3 -0.3,0.9 -0.7,0.6 -1.2,0.2 -1.5,-0.2 -1.5,-0.4 -0.8,-0.7 -0.2,-0.9 v -0.6 l 0.4,-0.9 0.6,-0.2 m 35.5,344.1 0.5,3 2.7,-0.2 -0.3,-0.3 -0.5,-0.8 -0.2,-0.9 0.2,-0.9 0.5,-0.7 0.8,-0.5 0.6,-0.1 0.9,0.1 0.7,0.5 0.5,0.8 0.1,0.9 -0.1,1 -0.2,0.3 -0.6,0.4 m -6.6,-7.8 0.5,2.9 2.7,-0.2 -0.3,-0.2 -0.5,-0.8 -0.1,-0.9 0.1,-1 0.5,-0.7 0.8,-0.4 0.6,-0.1 0.9,0.1 0.7,0.5 0.5,0.8 0.2,0.9 -0.2,0.9 -0.2,0.4 -0.5,0.4 m -21,18.4 -3,-0.2 -0.5,2.6 0.3,-0.2 0.9,-0.3 0.9,0.1 0.9,0.3 0.5,0.7 0.3,0.9 -0.1,0.6 -0.3,0.9 -0.7,0.5 -0.9,0.3 -0.9,-0.1 -0.9,-0.4 -0.2,-0.3 -0.3,-0.6 m 9.2,-3.5 -0.2,-0.7 -0.9,-0.3 -0.6,-0.1 -0.9,0.3 -0.7,0.8 -0.4,1.5 -0.1,1.5 0.2,1.2 0.6,0.6 0.9,0.4 h 0.3 l 0.9,-0.2 0.6,-0.6 0.4,-0.8 v -0.3 l -0.2,-1 -0.6,-0.6 -0.9,-0.4 h -0.3 l -0.9,0.3 -0.6,0.5 -0.4,0.9 m 20,-365.1 -1,2.8 2.5,1.2 -0.2,-0.4 v -1 l 0.3,-0.8 0.6,-0.8 0.8,-0.3 h 0.9 l 0.6,0.2 0.7,0.6 0.4,0.7 v 1 l -0.3,0.8 -0.6,0.8 -0.4,0.2 -0.6,0.1 m 0.2,-9.8 0.7,0.6 0.4,0.8 v 0.9 l -0.1,0.3 -0.6,0.8 -0.8,0.3 H 875 l -0.3,-0.1 -0.7,-0.6 -0.4,-0.7 v -1 l 0.1,-0.3 0.6,-0.7 0.7,-0.4 1.3,0.1 1.4,0.5 1.3,0.8 0.7,0.9 -0.1,0.9 -0.1,0.6 -0.6,0.7 -0.7,0.1 m 10.4,-72.3 0.2,0.7 0.8,0.4 0.6,0.1 0.9,-0.1 0.8,-0.8 0.5,-1.5 0.2,-1.4 -0.1,-1.3 -0.5,-0.7 -0.8,-0.4 -0.3,-0.1 -0.9,0.2 -0.7,0.5 -0.5,0.8 v 0.3 l 0.1,1 0.5,0.6 0.9,0.5 h 0.3 l 0.9,-0.1 0.7,-0.5 0.4,-0.8 m -9.6,2.6 4,-5.7 m 0.1,6.4 -4.1,-0.7 m -97.7,181.7 -0.6,0.3 -0.9,0.8 0.2,-6.3 m -53.5,76.4 -0.9,0.3 -0.3,0.6 v 0.6 l 0.3,0.6 0.6,0.3 1.2,0.3 0.9,0.4 0.5,0.6 0.3,0.6 v 0.9 l -0.3,0.6 -0.3,0.3 -0.9,0.3 -1.2,-0.1 -0.9,-0.3 -0.3,-0.3 -0.3,-0.6 v -0.9 l 0.3,-0.6 0.7,-0.6 0.9,-0.3 1.2,-0.2 0.6,-0.3 0.3,-0.6 v -0.6 l -0.3,-0.6 -0.9,-0.3 -1.3,-0.1 m 7.6,0.2 -3,-0.1 -0.4,2.7 0.3,-0.3 0.9,-0.3 0.9,0.1 0.9,0.3 0.6,0.6 0.3,0.9 v 0.6 l -0.4,0.9 -0.6,0.6 -0.9,0.3 -0.9,-0.1 -0.9,-0.3 -0.3,-0.3 -0.3,-0.6 m 45.2,37.9 -0.8,0.6 -0.1,0.6 0.3,0.6 0.4,0.5 h 0.7 l 1.2,-0.1 h 1 l 0.8,0.3 0.4,0.5 0.4,0.8 -0.1,0.7 -0.2,0.4 -0.7,0.6 -1.2,0.4 h -0.9 l -0.4,-0.2 -0.5,-0.4 -0.3,-0.9 0.1,-0.6 0.3,-0.8 0.8,-0.6 1,-0.7 0.5,-0.5 V 541 l -0.2,-0.6 -0.5,-0.5 -0.9,0.1 -1.3,0.4 m 8.2,-0.7 v 0.9 l -0.4,0.8 -0.7,0.6 -0.3,0.1 h -0.9 l -0.8,-0.3 -0.6,-0.8 -0.1,-0.3 v -0.9 l 0.3,-0.8 0.8,-0.6 0.2,-0.1 h 1 l 0.8,0.4 0.7,1 0.5,1.4 0.2,1.5 -0.2,1.1 -0.8,0.5 -0.5,0.2 -1,0.1 -0.5,-0.5 m -41.6,-22.3 0.6,-0.7 v -0.6 l -0.3,-0.6 -0.5,-0.4 h -0.7 l -1.2,0.3 -0.9,0.2 -0.8,-0.3 -0.6,-0.4 -0.4,-0.8 v -0.7 l 0.2,-0.4 0.6,-0.7 1.1,-0.5 0.9,-0.1 0.4,0.1 0.6,0.4 0.4,0.8 v 0.7 l -0.3,0.8 -0.6,0.6 -1,0.9 -0.4,0.5 v 0.7 l 0.3,0.5 0.5,0.4 1,-0.1 1.2,-0.7 m -6.8,3.5 2.7,-1.4 -1,-2.5 -0.1,0.4 -0.7,0.7 -0.8,0.4 -0.9,0.1 -0.8,-0.2 -0.7,-0.7 -0.3,-0.5 -0.1,-1 0.3,-0.8 0.6,-0.7 0.8,-0.4 1,-0.1 0.4,0.1 0.5,0.4 m 182.7,-71.7 0.9,-0.1 0.9,0.2 0.7,0.7 0.1,0.2 0.2,1 -0.3,0.8 -0.6,0.7 -0.3,0.1 -0.9,0.2 -0.8,-0.3 -0.7,-0.6 -0.2,-0.3 -0.1,-0.9 0.2,-0.8 0.9,-0.9 1.3,-0.7 1.5,-0.4 1.1,0.1 0.7,0.6 0.2,0.5 0.2,1 -0.4,0.5 m -5.7,-2.2 -0.6,-0.4 -1.2,-0.3 5.6,-3 m -14.7,-6 -0.3,0.6 v 1.3 l -4.3,-4.7 m 2.2,6.8 0.5,-0.8 -0.2,-1.1 -0.8,-1.3 -0.6,-0.6 -1.2,-1 -1.1,-0.2 -0.8,0.4 -0.5,0.4 -0.4,0.8 0.1,1.1 0.8,1.3 0.6,0.6 1.3,1 1,0.2 0.9,-0.4 0.3,-0.3 m -6.8,3.4 -0.4,-0.9 0.1,-0.8 0.4,-0.9 0.2,-0.2 0.9,-0.3 h 0.9 l 0.8,0.5 0.2,0.2 0.4,0.9 -0.1,0.8 -0.4,0.8 -0.3,0.2 -0.8,0.4 h -0.9 l -1,-0.7 -1,-1.1 -0.8,-1.3 -0.2,-1.1 0.5,-0.8 0.4,-0.4 0.9,-0.4 0.6,0.2 m 31.2,54.2 -0.3,-3.3 2.6,1.7 -0.1,-0.9 0.2,-0.7 0.3,-0.3 0.9,-0.4 h 0.6 l 0.9,0.2 0.7,0.6 0.3,0.9 0.1,0.8 -0.2,1 -0.3,0.3 -0.6,0.3 m -5.8,-8.9 6.5,2.5 m -6.2,1.6 -0.3,-4.1 m -31.6,40.1 0.5,-0.5 0.4,-1.2 2.7,5.7 m -1.2,-5.1 0.4,-0.5 0.4,-1.2 2.7,5.7 m -0.1,-7.2 -0.7,0.7 -0.2,1.1 0.4,1.4 0.4,0.9 0.9,1.2 0.9,0.5 1,-0.1 0.5,-0.2 0.7,-0.7 0.2,-1.1 -0.4,-1.5 -0.4,-0.8 -0.9,-1.2 -0.9,-0.5 -1,0.1 -0.4,0.2 m -2,-209.4 -1,0.2 -0.8,-0.3 -0.7,-0.6 -0.1,-0.3 -0.2,-0.9 0.2,-0.8 0.7,-0.7 0.2,-0.2 1,-0.1 0.8,0.2 0.7,0.7 0.1,0.2 0.2,0.9 -0.2,0.9 -0.9,0.8 -1.4,0.7 -1.4,0.5 -1.1,-0.1 -0.7,-0.6 -0.3,-0.6 -0.2,-0.9 0.4,-0.6 m 8.6,4.3 -5.1,-0.6 2.2,4 m 2.9,-3.4 -5.5,3.1 m 22.2,13.6 -2.8,-1.2 -1.3,2.4 0.4,-0.2 1,0.1 0.8,0.3 0.7,0.7 0.3,0.7 v 1 l -0.3,0.5 -0.6,0.8 -0.8,0.3 -0.9,-0.1 -0.8,-0.3 -0.8,-0.6 -0.1,-0.4 -0.1,-0.7 m 6.3,-1.4 h 0.7 l 1.1,-0.5 -2.4,5.8 m 26.1,-84.7 0.5,-0.9 0.6,-0.5 1,-0.1 h 0.3 l 0.8,0.5 0.5,0.7 0.2,0.9 -0.1,0.3 -0.4,0.9 -0.7,0.4 -1,0.2 -0.3,-0.1 -0.8,-0.4 -0.5,-0.7 -0.1,-1.2 0.3,-1.5 0.5,-1.4 0.7,-0.8 1,-0.2 0.6,0.1 0.8,0.5 0.2,0.6 m -9,3.1 0.2,0.6 0.9,0.5 0.6,0.1 0.9,-0.2 0.7,-0.8 0.6,-1.4 0.2,-1.5 -0.1,-1.2 -0.5,-0.7 -0.8,-0.5 h -0.3 l -0.9,0.1 -0.7,0.5 -0.5,0.9 v 0.3 l 0.1,0.9 0.5,0.7 0.9,0.4 0.3,0.1 0.9,-0.2 0.7,-0.4 0.4,-0.9 m 7.1,103.5 -2.1,-2.2 -2.1,1.6 0.4,0.1 0.8,0.4 0.7,0.7 0.3,0.8 v 0.9 l -0.4,0.8 -0.5,0.4 -0.8,0.4 h -0.9 l -0.8,-0.5 -0.6,-0.6 -0.4,-0.9 V 356 l 0.2,-0.6 m 8.6,1.7 -0.8,-0.5 -1.1,0.2 -1.3,0.8 -0.6,0.6 -0.9,1.3 -0.2,1 0.4,0.9 0.4,0.4 0.8,0.5 1.1,-0.2 1.3,-0.8 0.6,-0.6 0.9,-1.3 0.2,-1 -0.4,-0.9 -0.3,-0.3 m 56.6,-28.9 -3.3,-0.3 2.1,-2.2 -0.9,-0.1 -0.6,-0.4 -0.3,-0.3 -0.2,-0.9 0.1,-0.6 0.4,-0.9 0.7,-0.5 0.9,-0.2 0.9,0.1 0.8,0.4 0.3,0.3 0.2,0.6 m -9.3,3.2 0.2,0.7 0.9,0.4 h 0.6 l 0.9,-0.2 0.7,-0.8 0.5,-1.5 0.1,-1.5 -0.1,-1.2 -0.6,-0.6 -0.8,-0.4 -0.3,-0.1 -1,0.2 -0.6,0.6 -0.4,0.8 v 0.3 l 0.2,0.9 0.5,0.7 0.8,0.4 h 0.3 l 1,-0.2 0.6,-0.5 0.4,-0.9 m 20,21.6 0.8,0.5 0.4,0.8 v 0.9 l -0.1,0.3 -0.5,0.8 -0.8,0.4 h -0.9 l -0.3,-0.1 -0.8,-0.5 -0.4,-0.8 v -0.9 l 0.1,-0.3 0.5,-0.8 0.8,-0.4 1.2,0.1 1.4,0.4 1.4,0.7 0.7,0.9 v 0.9 l -0.2,0.6 -0.5,0.8 -0.7,0.1 m -2.5,-5.6 -0.1,-0.7 -0.6,-1.1 6.1,1.8 m -28.9,-36.6 3.3,-0.1 -1.8,2.5 0.9,-0.1 0.6,0.3 0.3,0.3 0.3,0.9 0.1,0.6 -0.3,0.9 -0.6,0.6 -0.9,0.4 h -0.9 l -0.9,-0.3 -0.3,-0.3 -0.3,-0.6 m 8.8,-4.4 -0.3,-0.5 -0.9,-0.3 h -0.6 l -0.9,0.3 -0.6,0.9 -0.2,1.5 v 1.5 l 0.3,1.2 0.6,0.6 0.9,0.3 h 0.3 l 0.9,-0.3 0.6,-0.7 0.3,-0.9 v -0.3 l -0.3,-0.9 -0.6,-0.5 -0.9,-0.3 h -0.3 l -0.9,0.3 -0.6,0.6 -0.3,0.9 m 27.1,-17.1 0.4,-3.2 2.1,2.1 0.2,-0.9 0.3,-0.6 0.4,-0.2 0.9,-0.2 0.6,0.1 0.9,0.4 0.5,0.7 0.1,0.9 -0.1,0.9 -0.4,0.9 -0.3,0.2 -0.7,0.2 m -3.7,-10 5.8,3.9 m -6.4,0.3 0.6,-4.2 m -62.3,115.1 -4.5,-2.5 0.5,4.5 m 4,-2 -6.3,0.7 m 5.1,2.6 h 0.3 l 0.6,0.2 0.4,0.3 0.3,0.6 0.2,1.1 -0.3,0.7 -0.2,0.3 -0.6,0.4 h -0.6 l -0.6,-0.2 -1,-0.5 -3.3,-2.6 0.5,4.1 m 43.6,-14 0.7,0.5 0.4,0.8 0.1,0.9 -0.1,0.3 -0.6,0.8 -0.7,0.4 h -1 l -0.3,-0.1 -0.7,-0.6 -0.4,-0.7 -0.1,-1 0.1,-0.2 0.6,-0.8 0.7,-0.4 1.3,0.1 1.4,0.4 1.4,0.7 0.6,0.9 0.1,0.9 -0.2,0.6 -0.6,0.8 -0.6,0.1 m -3.6,-6.7 1,-3.2 1.7,2.5 0.3,-0.9 0.4,-0.5 0.4,-0.2 h 1 l 0.5,0.2 0.8,0.5 0.4,0.8 v 0.9 l -0.2,0.9 -0.6,0.8 -0.4,0.1 -0.6,0.2 m -22.8,42.6 2.3,4.7 2.1,-4 m -4.4,-0.7 5.6,3 m -3.6,-6.6 -0.1,0.9 0.3,0.6 0.6,0.3 h 0.6 l 0.6,-0.4 0.8,-0.9 0.7,-0.7 0.8,-0.2 h 0.7 l 0.8,0.4 0.4,0.6 0.1,0.4 -0.2,0.9 -0.5,1.1 -0.7,0.6 -0.4,0.2 -0.7,-0.1 -0.8,-0.4 -0.4,-0.5 -0.2,-0.8 0.1,-1 0.3,-1.2 0.1,-0.7 -0.4,-0.5 -0.6,-0.3 h -0.6 l -0.7,0.7 -0.7,1.1 m -9.5,2.3 -5.1,0.6 3,3.3 m 2.1,-3.9 -4.6,4.3 m 6.8,-1.9 2.2,2.5 -3,0.3 0.6,0.6 0.2,0.7 v 0.4 l -0.5,0.8 -0.4,0.4 -0.9,0.4 h -0.9 l -0.8,-0.5 -0.6,-0.6 -0.4,-0.9 v -0.4 l 0.3,-0.7 m -175.9,-240.2 0.4,0.5 1.1,0.6 -6.1,1.6 m 7.6,3.4 -6.8,-1.3 m 5.8,-2.8 1,4.1 m -9.7,106.4 0.4,0.9 -0.1,0.9 -0.5,0.8 -0.2,0.2 -0.9,0.3 h -0.8 l -0.8,-0.5 -0.2,-0.2 -0.4,-0.9 0.1,-0.9 0.5,-0.8 0.2,-0.2 0.9,-0.3 h 0.8 l 1,0.7 1,1.2 0.8,1.3 0.1,1.1 -0.5,0.8 -0.4,0.4 -0.9,0.3 -0.6,-0.2 m 3.1,-9.9 1.8,6.8 m -5,-4 3.2,-2.8 m -39.7,-0.8 -0.9,-0.4 -0.6,0.2 -0.4,0.5 -0.2,0.6 0.3,0.6 0.7,1.1 0.5,0.8 v 0.8 l -0.2,0.7 -0.6,0.7 -0.6,0.2 h -0.4 l -0.9,-0.3 -0.9,-0.8 -0.5,-0.9 V 311 l 0.2,-0.6 0.6,-0.7 0.6,-0.3 h 0.9 l 0.8,0.4 1.1,0.5 0.7,0.2 0.6,-0.2 0.4,-0.5 0.2,-0.6 -0.5,-0.8 -1,-0.9 m 2,3.6 0.6,0.2 1.3,-0.1 -4.2,4.7 m 17.3,-116.7 -0.6,-0.3 -1.3,-0.1 4.9,-4 m -4.6,2.4 -0.6,-0.3 -1.3,-0.1 4.9,-4 m -8,0.4 1.8,2.3 2.3,-1.4 -0.4,-0.1 -0.8,-0.5 -0.6,-0.7 -0.3,-0.9 0.1,-0.8 0.5,-0.8 0.5,-0.4 0.9,-0.3 0.8,0.1 0.8,0.5 0.6,0.7 0.3,0.9 v 0.4 l -0.3,0.6 m -62.7,82.7 -0.9,-0.2 -0.5,0.4 -0.3,0.5 v 0.7 l 0.3,0.5 1,0.9 0.6,0.7 0.3,0.8 -0.1,0.7 -0.4,0.7 -0.5,0.4 -0.4,0.2 -1,-0.2 -1,-0.6 -0.7,-0.7 -0.1,-0.4 v -0.6 l 0.4,-0.8 0.6,-0.4 0.8,-0.3 0.9,0.2 1.2,0.3 h 0.7 l 0.6,-0.4 0.2,-0.5 0.1,-0.7 -0.7,-0.7 -1.2,-0.6 m 4.1,2.2 2.9,1.5 -2.8,1.3 0.8,0.4 0.4,0.6 0.1,0.4 -0.1,0.9 -0.3,0.5 -0.7,0.7 -0.8,0.2 -0.9,-0.1 -0.8,-0.5 -0.7,-0.6 -0.1,-0.4 v -0.7 m -23.3,-38.7 -0.6,-0.8 -0.6,-0.1 -0.6,0.2 -0.5,0.4 -0.1,0.7 0.1,1.2 -0.1,1 -0.4,0.7 -0.5,0.5 -0.8,0.2 -0.7,-0.1 -0.4,-0.2 -0.5,-0.8 -0.3,-1.1 V 244 l 0.2,-0.4 0.5,-0.5 0.8,-0.2 0.7,0.1 0.7,0.4 0.6,0.8 0.6,1 0.5,0.5 0.6,0.1 0.6,-0.2 0.5,-0.4 v -1 l -0.4,-1.3 m -0.1,4.8 0.3,-0.1 0.7,0.1 0.3,0.2 0.5,0.5 0.3,1.2 -0.1,0.6 -0.2,0.4 -0.5,0.5 -0.5,0.1 -0.7,-0.1 -1,-0.3 -3.8,-2 1.2,4 m 0,-61.9 0.6,-0.2 0.4,-0.9 0.1,-0.6 -0.3,-0.9 -0.8,-0.7 -1.5,-0.4 -1.5,-0.2 -1.2,0.2 -0.6,0.6 -0.4,0.8 -0.1,0.3 0.3,1 0.5,0.6 0.9,0.4 h 0.3 l 0.9,-0.2 0.7,-0.5 0.3,-0.9 0.1,-0.3 -0.3,-0.9 -0.5,-0.7 -0.9,-0.4 m 3.6,8.6 -4,-3.4 -0.3,4.5 m 4.3,-1.1 -6.3,-0.6 m 70.5,-76.2 6,3.6 m -6.4,0.6 0.4,-4.2 m 0.4,-4.7 -0.3,3 2.7,0.6 -0.3,-0.4 -0.2,-0.9 0.1,-0.9 0.4,-0.9 0.6,-0.5 1,-0.2 0.6,0.1 0.8,0.3 0.6,0.7 0.2,0.9 -0.1,0.9 -0.4,0.9 -0.3,0.3 -0.6,0.2 m -103.1,-14.1 0.2,-0.9 -0.4,-0.6 -0.5,-0.3 h -0.7 l -0.6,0.4 -0.8,0.9 -0.7,0.7 -0.8,0.2 h -0.7 l -0.8,-0.5 -0.4,-0.5 -0.1,-0.4 0.2,-1 0.6,-1 0.7,-0.7 0.4,-0.1 0.6,0.1 0.8,0.4 0.4,0.5 0.3,0.9 -0.2,0.9 -0.3,1.2 -0.1,0.7 0.4,0.5 0.5,0.3 h 0.7 l 0.7,-0.6 0.7,-1.2 m -3.4,6.3 -2.3,-4.7 -2.1,4 m 4.4,0.7 -5.5,-3.1 m 94,-32.7 -0.7,0.2 -1.1,0.6 1.6,-6.1 m -4.5,5.6 1,-0.1 0.8,-0.7 0.6,-1.4 0.3,-0.9 0.1,-1.5 -0.4,-1 -0.8,-0.5 -0.6,-0.2 -0.9,0.1 -0.8,0.7 -0.7,1.4 -0.2,0.8 -0.1,1.6 0.3,1 0.8,0.5 0.5,0.1 m -5.1,-1.3 1,-0.1 0.8,-0.7 0.7,-1.4 0.2,-0.8 0.1,-1.6 -0.4,-1 -0.8,-0.5 -0.5,-0.2 -1,0.1 -0.8,0.7 -0.7,1.4 -0.2,0.9 -0.1,1.5 0.4,1 0.8,0.5 0.4,0.2 m -73.4,93.5 0.2,0.9 -0.2,0.8 -0.6,0.7 -0.3,0.2 -0.9,0.2 -0.8,-0.2 -0.7,-0.7 -0.2,-0.2 -0.2,-1 0.2,-0.8 0.7,-0.7 0.2,-0.1 1,-0.2 0.8,0.2 0.8,0.9 0.8,1.3 0.5,1.4 -0.1,1.1 -0.6,0.7 -0.6,0.3 -0.9,0.2 -0.5,-0.4 m 5.8,-7.1 0.2,0.9 -0.2,0.8 -0.6,0.7 -0.3,0.2 -0.9,0.2 -0.8,-0.3 -0.8,-0.6 -0.1,-0.2 -0.2,-1 0.2,-0.8 0.7,-0.7 0.2,-0.2 1,-0.1 0.8,0.2 0.8,0.9 0.8,1.3 0.5,1.4 -0.1,1.1 -0.6,0.7 -0.6,0.3 -0.9,0.2 -0.6,-0.4 m 200,-8.4 -0.5,0.5 -0.5,1.2 -2.4,-5.8 m 1,5.1 -0.4,0.5 -0.5,1.2 -2.5,-5.8 m -1.4,7.7 1.2,-5 -4.2,1.7 m 3,3.3 -2.4,-5.8 m 6.7,25.4 4.7,5.2 m -6.3,-1.4 1.6,-3.8 m 2.7,-4.1 -0.7,0.1 -0.6,0.7 -0.2,0.6 -0.1,0.9 0.6,0.9 1.3,0.9 1.3,0.5 1.3,0.2 0.8,-0.3 0.6,-0.7 0.1,-0.3 0.1,-0.9 -0.3,-0.8 -0.8,-0.6 -0.2,-0.1 -1,-0.1 -0.8,0.3 -0.6,0.7 -0.1,0.3 -0.1,0.9 0.3,0.8 0.7,0.6 m 35.7,465.7 -0.1,-0.6 -0.4,-1.2 5.8,2.4 m -4.3,-2.9 -0.1,-0.7 -0.4,-1.2 5.8,2.5 m -4.3,-3 -0.1,-0.7 -0.5,-1.1 5.9,2.4 m -20.3,3.7 -1.4,-2.6 -2.6,1 0.4,0.1 0.7,0.7 0.4,0.8 0.2,0.9 -0.3,0.8 -0.6,0.7 -0.5,0.3 -1,0.1 -0.8,-0.2 -0.7,-0.7 -0.4,-0.8 -0.2,-0.9 0.2,-0.4 0.4,-0.6 m 8.6,5.5 -1.4,-2.6 -2.5,1 0.4,0.1 0.7,0.7 0.4,0.8 0.2,0.9 -0.3,0.8 -0.6,0.7 -0.6,0.3 -0.9,0.1 -0.8,-0.2 -0.7,-0.7 -0.4,-0.8 -0.2,-0.9 0.2,-0.4 0.4,-0.6 m 40.5,-67.1 2.9,4.2 1.6,-4.2 m -4.5,0 5.9,2.2 m -3.6,-8.1 -1.1,2.8 2.4,1.3 -0.1,-0.4 v -1 l 0.3,-0.8 0.6,-0.7 0.8,-0.4 h 0.9 l 0.6,0.2 0.7,0.6 0.4,0.8 v 1 l -0.4,0.8 -0.6,0.7 -0.3,0.2 -0.7,0.1 m -19.4,-27.6 -0.6,0.2 -1.1,0.7 1,-6.2 m -1.8,4.9 -0.7,0.2 -1,0.7 1,-6.2 m -3.9,6 0.9,-0.2 0.7,-0.8 0.6,-1.4 0.1,-0.9 v -1.5 l -0.5,-1 -0.8,-0.4 -0.6,-0.1 -1,0.1 -0.7,0.8 -0.5,1.4 -0.2,0.9 0.1,1.6 0.4,0.9 0.9,0.5 0.4,0.1 m 104.5,-326.3 -0.2,-5.2 -3.6,2.8 m 3.8,2.4 -3.9,-4.9 m -0.6,8.5 -0.3,-5.2 -3.5,2.9 m 3.8,2.3 -3.9,-4.9 m 32.1,9 4.9,1.7 -1.3,-4.3 m -3.6,2.6 6,-1.8 m -7.8,-4.2 0.9,2.9 2.7,-0.5 -0.4,-0.2 -0.5,-0.8 -0.3,-0.8 v -1 l 0.4,-0.7 0.8,-0.6 0.6,-0.1 h 0.9 l 0.8,0.4 0.5,0.8 0.3,0.8 v 1 l -0.2,0.4 -0.5,0.4 M 885,401.9 l 0.9,-0.4 h 0.8 l 0.8,0.4 0.3,0.2 0.4,0.9 -0.1,0.9 -0.4,0.8 -0.2,0.2 -0.9,0.4 h -0.8 l -0.9,-0.5 -0.2,-0.2 -0.4,-0.9 v -0.8 l 0.7,-1 1.1,-1.1 1.3,-0.8 1.1,-0.2 0.8,0.5 0.4,0.4 0.4,0.9 -0.2,0.6 m -7.6,-0.2 -2.3,-2.4 3,-0.3 -0.6,-0.6 -0.2,-0.7 v -0.4 l 0.4,-0.9 0.5,-0.4 0.8,-0.4 0.9,0.1 0.8,0.4 0.6,0.7 0.4,0.8 v 0.4 l -0.2,0.7 m 0,35.8 0.1,-0.7 -0.2,-1.3 5.1,3.7 m -3.6,-6.2 -0.3,0.9 0.4,1 1,1.2 0.8,0.5 1.4,0.6 1,0.1 0.8,-0.6 0.4,-0.5 0.3,-0.9 -0.4,-1 -1.1,-1.1 -0.7,-0.5 -1.4,-0.7 h -1.1 l -0.7,0.5 -0.3,0.4 m 6,-4.7 0.5,0.8 0.2,0.8 -0.3,0.9 -0.2,0.3 -0.8,0.5 -0.8,0.2 -0.9,-0.3 -0.3,-0.2 -0.5,-0.8 -0.1,-0.8 0.2,-0.9 0.2,-0.3 0.8,-0.5 0.8,-0.2 1.2,0.5 1.2,0.9 1,1.1 0.4,1 -0.3,0.9 -0.3,0.5 -0.8,0.6 -0.7,-0.1 m -176.9,46.7 0.4,0.5 0.9,0.9 -6.3,0.3 m 6.7,2.6 -0.4,-0.9 -0.9,-0.5 -1.5,-0.2 h -0.9 l -1.5,0.4 -0.9,0.7 -0.2,0.9 v 0.6 l 0.4,0.9 0.9,0.5 1.5,0.2 h 0.9 l 1.5,-0.4 0.9,-0.7 0.2,-0.9 v -0.4 m 0.2,3.9 0.2,3.3 -2.5,-1.6 0.1,0.9 -0.3,0.6 -0.3,0.3 -0.9,0.4 h -0.6 l -0.9,-0.3 -0.6,-0.5 -0.4,-0.9 v -0.9 l 0.2,-0.9 0.3,-0.3 0.6,-0.4 m 17.3,74.1 0.5,-0.5 0.5,-1.1 2.2,5.9 m 0.5,-7.1 -0.7,0.6 -0.3,1 0.2,1.5 0.3,0.9 0.8,1.3 0.9,0.6 h 1 l 0.5,-0.2 0.8,-0.6 0.2,-1 -0.2,-1.6 -0.3,-0.8 -0.8,-1.3 -0.9,-0.7 -0.9,0.1 -0.5,0.1 m 6.6,-2.4 -2.8,1.1 0.6,2.6 0.2,-0.4 0.7,-0.6 0.9,-0.3 h 0.9 l 0.8,0.3 0.6,0.8 0.2,0.6 v 0.9 l -0.3,0.8 -0.8,0.6 -0.8,0.3 h -1 l -0.3,-0.2 -0.5,-0.4 m -17.6,-16.9 0.3,0.6 0.8,1 -6.3,-0.4 m 6.3,3.3 -0.2,-0.9 -0.9,-0.6 -1.4,-0.4 -0.9,-0.1 -1.6,0.2 -0.9,0.6 -0.3,0.9 -0.1,0.6 0.3,0.9 0.8,0.6 1.5,0.4 0.9,0.1 1.5,-0.2 1,-0.6 0.3,-0.9 v -0.4 m -1.7,3.8 h 0.3 l 0.6,0.4 0.3,0.3 0.2,0.6 v 1.2 l -0.4,0.6 -0.3,0.3 -0.6,0.2 h -0.6 l -0.6,-0.4 -0.9,-0.6 -2.8,-3.2 -0.2,4.2 M 706.5,427 l 0.7,-0.7 v -1.1 l -0.5,-1.4 -0.4,-0.8 -1,-1.1 -1,-0.5 -0.9,0.2 -0.5,0.3 -0.7,0.7 v 1.1 l 0.5,1.4 0.4,0.8 1,1.2 1,0.4 0.9,-0.2 0.4,-0.2 m 53.5,-29.1 -0.2,-0.7 -0.8,-1 6.2,1 m -12.8,-35.7 -1.6,-2.9 3,0.4 -0.4,-0.8 v -0.7 l 0.1,-0.4 0.6,-0.7 0.5,-0.3 1,-0.1 0.8,0.2 0.7,0.7 0.4,0.7 0.2,1 -0.1,0.4 -0.4,0.5 m -34.1,31.8 0.1,-0.3 0.4,-0.5 0.3,-0.2 0.7,-0.2 1.2,0.3 0.5,0.4 0.2,0.4 0.2,0.6 -0.2,0.6 -0.4,0.5 -0.8,0.8 -3.6,2.2 4.1,1 m -77.6,26.9 5.2,0.2 -2.5,-3.8 m -2.7,3.6 5.3,-3.5 m -47.8,-9.9 -1.8,-2.4 -2.3,1.4 0.4,0.1 0.8,0.5 0.5,0.7 0.3,0.9 -0.1,0.9 -0.5,0.7 -0.5,0.4 -0.9,0.3 -0.8,-0.1 -0.8,-0.5 -0.6,-0.7 -0.3,-0.9 0.1,-0.5 0.3,-0.6 m 11.1,-6.5 0.2,0.6 0.9,0.4 0.6,0.1 0.9,-0.3 0.7,-0.8 0.4,-1.5 0.1,-1.5 -0.1,-1.2 -0.6,-0.6 -0.9,-0.4 h -0.2 l -1,0.2 -0.6,0.5 -0.4,0.9 v 0.3 l 0.2,0.9 0.5,0.7 0.9,0.3 0.3,0.1 0.9,-0.2 0.7,-0.6 0.3,-0.9 m 115.4,-68.2 6,-3.6 m -2.5,5.9 -3.5,-2.3 m -3.2,24.9 -0.1,-0.9 -0.6,-0.4 -0.6,-0.1 -0.6,0.2 -0.4,0.6 -0.5,1.1 -0.4,0.9 -0.7,0.5 -0.6,0.2 -0.9,-0.2 -0.6,-0.4 -0.2,-0.3 -0.2,-0.9 0.2,-1.2 0.4,-0.9 0.4,-0.2 0.6,-0.2 0.9,0.1 0.6,0.4 0.5,0.7 0.1,0.9 0.1,1.3 0.2,0.6 0.6,0.4 0.6,0.1 0.6,-0.2 0.5,-0.9 0.2,-1.3 m 82,-5.9 -0.1,-1 0.3,-0.8 0.7,-0.6 0.2,-0.2 1,-0.1 0.8,0.3 0.6,0.7 0.2,0.2 0.1,1 -0.3,0.8 -0.7,0.6 -0.3,0.2 -0.9,0.1 -0.8,-0.3 -0.8,-0.9 -0.6,-1.4 -0.4,-1.5 0.1,-1 0.7,-0.7 0.5,-0.3 1,-0.1 0.5,0.4 m -6,10.4 -6.1,3.3 m 2.7,-5.8 3.4,2.5 M 668.7,63 l -0.5,-0.9 -0.6,-0.2 -0.6,0.1 -0.5,0.3 -0.3,0.7 -0.1,1.2 -0.2,0.9 -0.5,0.7 -0.6,0.4 -0.9,0.1 -0.6,-0.2 -0.3,-0.3 -0.4,-0.9 -0.2,-1.1 0.2,-1 0.2,-0.3 0.6,-0.4 0.9,-0.1 0.6,0.2 0.7,0.5 0.4,0.9 0.5,1.1 0.3,0.6 0.7,0.2 h 0.6 l 0.5,-0.4 0.2,-1 -0.2,-1.3 m 0.8,5.8 -0.4,-0.9 -1,-0.5 -1.5,-0.1 -0.9,0.1 -1.5,0.5 -0.8,0.7 -0.2,1 0.1,0.6 0.4,0.8 1,0.5 1.5,0.1 0.9,-0.1 1.5,-0.5 0.8,-0.7 0.2,-0.9 -0.1,-0.5 m 20.2,-6.3 -0.6,0.2 -1,0.8 0.8,-6.3 m -1.7,5 -0.6,0.2 -1,0.8 0.8,-6.3 m -2.6,6.2 -3.3,-0.4 2.1,-2.1 -0.9,-0.1 -0.5,-0.4 -0.3,-0.4 -0.2,-0.9 0.1,-0.6 0.4,-0.8 0.7,-0.6 0.9,-0.1 0.9,0.1 0.9,0.4 0.2,0.3 0.3,0.7 m 126.7,100.1 0.3,0.7 0.8,1 -6.3,-0.6 m 5.1,5.2 0.7,-0.2 0.4,-0.9 v -0.6 l -0.2,-0.9 -0.8,-0.7 -1.5,-0.4 -1.5,-0.2 -1.2,0.2 -0.7,0.6 -0.4,0.8 v 0.3 l 0.2,0.9 0.6,0.7 0.8,0.4 h 0.3 l 1,-0.2 0.6,-0.5 0.4,-0.9 v -0.3 l -0.2,-0.9 -0.5,-0.7 -0.9,-0.4 m 19,-62.6 v 0.7 l 0.5,1.2 -5.8,-2.4 m 4.2,6.8 1.1,-2.8 -2.3,-1.3 0.1,0.4 v 1 l -0.4,0.8 -0.6,0.7 -0.8,0.4 -0.9,-0.1 -0.6,-0.2 -0.7,-0.7 -0.3,-0.7 v -1 l 0.4,-0.8 0.6,-0.7 0.4,-0.2 0.7,-0.1 m 23.5,-11.7 -0.6,-0.1 -1.3,0.2 3.5,-5.2 m -7.2,3.1 4.8,-1.8 -3.7,-2.5 m -1.1,4.3 3.5,-5.2 m 0.4,66.4 0.3,-0.6 0.1,-1.3 4,4.9 m -2.4,-4.6 0.3,-0.6 0.1,-1.3 4,4.9 m -0.8,-7.8 0.3,5.2 3.5,-2.8 m -3.8,-2.4 4,4.9 m 77.9,-64.3 2.2,2 2.1,-1.7 h -0.4 L 935.6,80.6 935,80 934.5,79.1 v -0.8 l 0.4,-0.9 0.4,-0.4 0.8,-0.5 h 0.8 l 0.9,0.4 0.7,0.6 0.4,0.8 v 0.5 l -0.1,0.6 m -9.5,-3 -0.2,0.6 0.5,0.9 0.4,0.4 0.9,0.4 1.1,-0.3 1.2,-0.9 1,-1.1 0.6,-1.1 v -0.8 l -0.5,-0.8 -0.2,-0.2 -0.9,-0.4 h -0.8 l -0.8,0.5 -0.2,0.2 -0.4,0.8 v 0.9 l 0.5,0.8 0.2,0.2 0.8,0.4 h 0.9 l 0.8,-0.5 m -17.4,81.1 -6.7,1.8 m 4,-5 2.7,3.2 m 2.4,4.2 0.3,-0.6 -0.4,-0.9 -0.4,-0.5 -0.8,-0.5 -1.1,0.2 -1.3,0.7 -1.1,1 -0.8,1 v 0.8 l 0.3,0.9 0.2,0.2 0.8,0.5 0.9,0.1 0.9,-0.3 0.2,-0.2 0.5,-0.9 0.1,-0.8 -0.4,-0.9 -0.2,-0.2 -0.8,-0.5 -0.9,-0.1 -0.8,0.4 m 56.4,17.6 -0.5,-0.5 -1,0.1 -0.5,0.3 -0.7,0.6 -0.2,1.1 0.4,1.5 0.6,1.4 0.8,0.9 0.8,0.3 0.9,-0.1 0.3,-0.1 0.7,-0.7 0.3,-0.8 -0.1,-0.9 -0.2,-0.3 -0.6,-0.7 -0.8,-0.3 -1,0.1 -0.2,0.2 -0.7,0.6 -0.3,0.8 0.1,1 m 6.5,-7.7 -0.1,7 m -3.7,-5.2 3.8,-1.8 m 49.8,-24.6 0.2,0.9 -0.2,0.8 -0.5,0.8 -0.3,0.1 -0.9,0.3 -0.8,-0.2 -0.8,-0.6 -0.1,-0.2 -0.3,-1 0.2,-0.8 0.6,-0.7 0.2,-0.2 0.9,-0.2 0.9,0.1 0.9,0.9 0.8,1.2 0.6,1.4 v 1.1 l -0.6,0.8 -0.5,0.3 -0.9,0.2 -0.6,-0.3 m 4.5,-8.4 -0.6,-0.3 -0.9,0.3 -0.5,0.3 -0.6,0.7 v 1.1 l 0.6,1.4 0.8,1.3 0.9,0.8 0.8,0.2 1,-0.3 0.2,-0.1 0.6,-0.8 0.2,-0.8 -0.3,-0.9 -0.2,-0.3 -0.7,-0.6 -0.8,-0.1 -1,0.2 -0.2,0.2 -0.6,0.7 -0.2,0.9 0.3,0.9 m -30.5,-63.9 -0.4,0.5 -0.6,1.1 -1.9,-6 m 0.5,5.2 -0.5,0.5 -0.6,1.1 -1.9,-6 m 0.5,5.2 -0.5,0.4 -0.5,1.2 -1.9,-6.1 m 41.6,27 5,1.3 -1.6,-4.2 m -3.4,2.9 5.9,-2.2 m -7.9,-3.2 5,1.3 -1.6,-4.2 m -3.4,2.9 5.8,-2.3 m -453.1,89.1 0.5,-0.4 0.1,-1 -0.2,-0.5 -0.5,-0.8 -1,-0.4 -1.6,0.1 -1.4,0.4 -1.1,0.6 -0.4,0.7 -0.1,1 0.1,0.3 0.5,0.8 0.8,0.4 h 0.9 0.3 l 0.8,-0.6 0.4,-0.7 0.1,-0.9 -0.1,-0.3 -0.5,-0.8 -0.8,-0.4 -0.9,-0.1 m 5.4,7.5 0.5,-0.4 0.1,-1 -0.2,-0.6 -0.5,-0.8 -1,-0.3 -1.6,0.1 -1.4,0.4 -1.1,0.6 -0.4,0.7 -0.1,1 0.1,0.3 0.5,0.7 0.8,0.5 h 0.9 0.3 l 0.8,-0.6 0.4,-0.7 0.1,-1 -0.1,-0.2 -0.5,-0.8 -0.8,-0.5 h -0.9 m 70.6,3.7 -0.2,0.6 0.5,0.9 0.4,0.4 0.8,0.4 1.1,-0.2 1.3,-0.9 1,-1.1 0.6,-1 v -0.9 l -0.4,-0.8 -0.2,-0.2 -0.9,-0.4 h -0.8 l -0.9,0.4 -0.2,0.2 -0.4,0.9 v 0.8 l 0.4,0.9 0.3,0.2 0.8,0.4 h 0.9 l 0.8,-0.5 m -9.1,-3 2.1,2.1 2.1,-1.7 h -0.4 l -0.8,-0.4 -0.7,-0.6 -0.4,-0.9 v -0.8 l 0.4,-0.9 0.4,-0.4 0.8,-0.4 0.9,-0.1 0.8,0.5 0.7,0.6 0.4,0.8 v 0.4 l -0.2,0.7 m -56.6,46.7 -0.7,-2.9 -2.7,0.3 0.4,0.3 0.5,0.8 0.2,0.9 -0.1,0.9 -0.5,0.7 -0.8,0.5 -0.5,0.2 -1,-0.1 -0.7,-0.5 -0.5,-0.8 -0.2,-0.9 0.1,-0.9 0.2,-0.4 0.5,-0.4 m 6.5,5.5 -0.5,-0.8 -0.6,-0.2 -0.6,0.2 -0.5,0.4 -0.2,0.7 v 1.2 l -0.1,0.9 -0.4,0.8 -0.5,0.4 -0.9,0.2 -0.6,-0.2 -0.4,-0.2 -0.5,-0.8 -0.3,-1.2 0.1,-0.9 0.2,-0.4 0.5,-0.4 0.9,-0.2 0.7,0.2 0.7,0.4 0.5,0.8 0.6,1.1 0.4,0.5 0.6,0.2 0.6,-0.2 0.5,-0.4 0.1,-0.9 -0.3,-1.3 m 74.7,-7.3 -0.4,0.5 v 1 l 0.3,0.5 0.6,0.7 1.1,0.2 1.5,-0.3 1.3,-0.6 1,-0.7 0.3,-0.8 v -1 l -0.2,-0.2 -0.6,-0.7 -0.8,-0.4 -0.9,0.1 -0.3,0.1 -0.7,0.7 -0.3,0.8 0.1,0.9 0.1,0.3 0.6,0.7 0.8,0.3 0.9,-0.1 m -6.1,-3.5 -1.3,-3 3,0.7 -0.4,-0.8 v -0.7 l 0.2,-0.4 0.7,-0.6 0.5,-0.3 1,-0.1 0.8,0.4 0.6,0.7 0.4,0.8 0.1,0.9 -0.2,0.4 -0.4,0.5 m -65.3,44.3 -6.8,1.4 m 4.2,-4.7 2.6,3.3 m 1.8,2.3 -0.8,-0.5 -1.1,0.1 -1.4,0.6 -0.7,0.6 -1,1.1 -0.3,1.1 0.3,0.9 0.3,0.4 0.8,0.6 1.1,-0.1 1.4,-0.7 0.7,-0.5 1,-1.2 0.4,-1 -0.4,-0.9 -0.2,-0.4 M 573,153.2 l -6.8,-1.7 m 6,-2.4 0.8,4.1 m 1,5.1 -6.8,-1.7 m 6,-2.4 0.8,4.1 m 69.9,-55.2 -0.2,1 0.4,0.5 0.5,0.3 0.7,0.1 0.5,-0.4 0.9,-0.8 0.7,-0.6 0.9,-0.2 h 0.6 l 0.8,0.5 0.4,0.6 0.1,0.4 -0.3,0.9 -0.6,1 -0.7,0.6 -0.4,0.1 h -0.7 l -0.7,-0.5 -0.4,-0.6 -0.2,-0.8 0.2,-0.9 0.4,-1.2 v -0.7 l -0.3,-0.5 -0.5,-0.3 -0.7,-0.1 -0.7,0.6 -0.7,1.2 m 3.6,-6.2 2.1,4.8 2.3,-3.9 m -4.4,-0.9 5.4,3.3 m -92.2,3.3 -6.9,-1.2 m 5.8,-2.9 1.1,4.1 m 0.7,2.5 -0.5,-0.7 -0.7,-0.2 -0.5,0.2 -0.5,0.4 -0.2,0.7 0.1,1.2 -0.1,1 -0.4,0.7 -0.5,0.5 -0.8,0.2 -0.7,-0.1 -0.4,-0.2 -0.5,-0.8 -0.3,-1.1 v -1 l 0.2,-0.4 0.5,-0.4 0.9,-0.3 0.6,0.2 0.8,0.4 0.5,0.8 0.6,1 0.5,0.5 0.6,0.2 0.6,-0.2 0.5,-0.5 0.1,-0.9 -0.4,-1.3 m 92.9,-32.2 0.5,0.9 0.6,0.2 0.6,-0.2 0.6,-0.4 0.1,-0.6 0.1,-1.2 0.2,-1 0.4,-0.7 0.6,-0.4 0.9,-0.1 0.6,0.1 0.3,0.3 0.5,0.8 0.2,1.2 -0.1,0.9 -0.2,0.4 -0.6,0.4 -0.9,0.2 -0.6,-0.2 -0.7,-0.5 -0.5,-0.8 -0.5,-1.2 -0.4,-0.5 -0.6,-0.2 -0.6,0.1 -0.6,0.4 -0.1,1 0.3,1.3 m -1.1,-5.7 0.5,0.8 1,0.4 1.5,0.1 0.9,-0.2 1.4,-0.6 0.8,-0.7 0.1,-1 -0.1,-0.6 -0.5,-0.8 -1,-0.4 h -1.5 l -0.9,0.1 -1.4,0.6 -0.8,0.8 -0.1,0.9 0.1,0.4 m -48.5,5.3 1.5,-6.8 m 2.6,5.9 -4.1,0.9 m -1.7,0.4 -3.2,0.7 1.2,-2.7 -0.9,0.2 -0.6,-0.2 -0.4,-0.2 -0.5,-0.8 -0.1,-0.6 0.1,-1 0.4,-0.7 0.8,-0.5 0.9,-0.2 1,0.1 0.3,0.2 0.4,0.6 m 251.2,-1 0.6,0.3 1.2,0.1 -4.9,3.9 m 7.8,-0.7 -5.1,0.3 2.8,3.5 m 2.3,-3.8 -4.9,3.9 m 37,-35.7 -0.6,-0.1 h -1.3 l 4.3,-4.6 m -4.3,3 -0.6,-0.2 -1.3,0.1 4.3,-4.7 m -38.3,0.7 0.2,0.6 0.7,1.1 -6.2,-1.4 m 4.5,2.8 h 0.3 l 0.5,0.4 0.3,0.4 0.1,0.7 -0.2,1.1 -0.5,0.5 -0.3,0.3 -0.7,0.1 -0.6,-0.1 -0.5,-0.4 -0.7,-0.8 -2.3,-3.6 -0.9,4.1 m 18,-21.2 -0.6,0.3 -0.9,0.9 0.1,-6.3 m -1.9,6.5 -3.3,-0.1 1.9,-2.4 h -0.9 l -0.6,-0.3 -0.3,-0.3 -0.3,-0.9 v -0.6 l 0.4,-0.9 0.6,-0.6 0.9,-0.3 h 0.9 l 0.9,0.4 0.3,0.3 0.3,0.6 m -159.1,274.1 6.4,-2.6 m -3.3,5.4 -3.1,-2.8 m 0.1,-1.8 -0.6,-0.1 H 701 l 4.2,-4.6 m -39,26 -1,6.9 m -3,-5.7 4,-1.2 m 1.6,-0.6 3.2,-1 -1,2.9 0.9,-0.3 0.6,0.1 0.4,0.2 0.5,0.8 0.2,0.5 v 1 l -0.4,0.7 -0.7,0.6 -0.9,0.3 h -1 l -0.3,-0.2 -0.5,-0.5 m -48.5,0 -6.6,-2.3 m 6.1,-1.9 0.5,4.2 m -1.4,1.8 h 0.3 l 0.7,0.2 0.3,0.3 0.4,0.6 0.1,1.2 -0.3,0.6 -0.2,0.3 -0.6,0.4 H 619 l -0.6,-0.2 -1,-0.5 -3.3,-2.7 0.5,4.2 m -2.1,155.9 0.7,-0.3 1,-0.7 -0.9,6.2 m 3.8,-6.1 -0.9,0.2 -0.7,0.8 -0.5,1.5 -0.1,0.9 0.1,1.5 0.4,1 0.9,0.4 0.6,0.1 0.9,-0.2 0.7,-0.8 0.5,-1.5 0.2,-0.9 -0.1,-1.5 -0.5,-1 -0.9,-0.4 h -0.4 m 6.9,0.9 -3,-0.4 -0.6,2.6 0.3,-0.2 0.9,-0.2 0.9,0.1 0.9,0.4 0.5,0.7 0.2,0.9 -0.1,0.6 -0.4,0.9 -0.7,0.5 -0.9,0.2 -0.9,-0.1 -0.9,-0.5 -0.2,-0.3 -0.2,-0.6 m -20.7,-35 -0.6,0.5 -0.7,1 -1.1,-6.2 m -1.8,6.9 0.9,-0.4 0.4,-1 v -1.5 l -0.1,-0.9 -0.6,-1.5 -0.8,-0.7 -0.9,-0.2 -0.6,0.1 -0.8,0.5 -0.4,1 -0.1,1.5 0.2,0.9 0.5,1.4 0.8,0.8 0.9,0.1 h 0.5 m -4.8,0.8 0.8,-0.4 0.2,-0.7 -0.1,-0.6 -0.4,-0.5 -0.7,-0.2 -1.2,-0.1 -0.9,-0.1 -0.7,-0.5 -0.4,-0.5 -0.2,-0.9 0.2,-0.7 0.2,-0.3 0.9,-0.5 1.1,-0.2 1,0.2 0.3,0.2 0.4,0.5 0.2,0.9 -0.2,0.7 -0.5,0.7 -0.8,0.4 -1.1,0.5 -0.6,0.4 -0.2,0.7 0.1,0.6 0.4,0.5 1,0.1 1.3,-0.2 m -5.2,5.9 -0.7,-0.7 -0.7,0.1 -0.5,0.3 -0.4,0.6 0.1,0.6 0.3,1.2 0.3,0.9 -0.2,0.9 -0.4,0.5 -0.8,0.5 -0.6,0.1 -0.5,-0.1 -0.7,-0.7 -0.6,-1 -0.2,-0.9 0.1,-0.4 0.3,-0.6 0.8,-0.5 h 0.7 l 0.8,0.2 0.7,0.6 0.9,0.9 0.6,0.3 h 0.6 l 0.6,-0.3 0.3,-0.6 -0.2,-0.9 -0.7,-1.2 m 2.3,7.9 -0.9,0.2 -0.8,-0.2 -0.8,-0.6 -0.1,-0.3 -0.2,-0.9 0.2,-0.8 0.6,-0.8 0.2,-0.1 1,-0.2 0.8,0.2 0.7,0.6 0.2,0.2 0.2,1 -0.2,0.8 -0.9,0.9 -1.3,0.7 -1.4,0.6 -1.1,-0.1 -0.7,-0.6 -0.3,-0.5 -0.2,-0.9 0.3,-0.6 m 210.7,133.1 -1.4,-2.7 -2.5,0.9 0.4,0.2 0.7,0.7 0.4,0.8 0.1,0.9 -0.3,0.8 -0.6,0.7 -0.6,0.2 -0.9,0.2 -0.8,-0.3 -0.7,-0.7 -0.4,-0.8 -0.1,-0.9 0.1,-0.4 0.4,-0.5 m 12,-35.9 -0.2,0.6 v 1.3 l -4.6,-4.4 m 2.8,6.7 0.4,-0.9 -0.3,-1.1 -0.9,-1.2 -0.6,-0.6 -1.3,-0.8 -1.1,-0.2 -0.8,0.4 -0.4,0.5 -0.4,0.8 0.2,1.1 0.9,1.2 0.6,0.7 1.3,0.8 1.1,0.1 0.8,-0.4 0.3,-0.3 m -3.3,3.5 0.4,-0.8 -0.2,-0.7 -0.5,-0.4 -0.6,-0.2 -0.7,0.3 -1,0.6 -0.8,0.5 h -0.9 l -0.6,-0.2 -0.7,-0.6 -0.2,-0.6 v -0.5 l 0.4,-0.8 0.8,-0.9 0.8,-0.4 0.5,-0.1 0.6,0.2 0.7,0.7 0.2,0.6 v 0.8 l -0.4,0.9 -0.6,1.1 -0.2,0.6 0.2,0.6 0.5,0.5 0.6,0.2 0.9,-0.5 0.9,-1 m -130,-79.1 0.7,-0.1 1.1,-0.6 -1.9,6 m 4.8,-5.3 h -1 l -0.8,0.7 -0.8,1.3 -0.2,0.9 -0.2,1.5 0.3,1.1 0.8,0.5 0.5,0.2 h 1 l 0.8,-0.7 0.8,-1.3 0.2,-0.9 0.2,-1.5 -0.3,-1 -0.7,-0.6 -0.5,-0.1 m 3.3,2.6 0.1,-0.3 0.5,-0.5 0.3,-0.2 0.7,-0.1 1.1,0.4 0.5,0.5 0.2,0.3 0.1,0.7 -0.2,0.6 -0.4,0.4 -0.9,0.7 -3.7,2 4,1.2 m 17,-8.8 v -0.7 l -0.4,-1.2 5.6,2.9 m -4.5,-5.6 -0.1,0.9 0.5,1 1.2,0.9 0.8,0.4 1.5,0.4 1.1,-0.1 0.6,-0.6 0.3,-0.6 0.2,-0.9 -0.6,-1 -1.2,-0.9 -0.8,-0.4 -1.4,-0.4 -1.1,0.1 -0.7,0.6 -0.2,0.4 m 1.8,-3.5 1.6,-2.9 1.3,2.7 0.4,-0.8 0.5,-0.4 0.4,-0.2 1,0.2 0.5,0.3 0.7,0.6 0.2,0.9 -0.1,0.9 -0.4,0.8 -0.7,0.7 -0.4,0.1 H 698 m 91.7,199.2 0.6,-0.4 0.8,-0.9 0.2,6.3 m 0.9,-5.1 0.6,-0.3 0.9,-1 0.2,6.3 m -39.3,-35.6 0.5,0.4 1.1,0.6 -5.9,2.1 m 7.1,0.6 -0.6,-0.8 -1,-0.2 -1.5,0.2 -0.9,0.3 -1.3,0.8 -0.6,0.9 v 0.9 l 0.2,0.6 0.6,0.7 1.1,0.3 1.5,-0.2 0.8,-0.4 1.3,-0.7 0.7,-0.9 -0.1,-1 -0.1,-0.4 m 8.9,-24 0.3,0.6 0.9,0.2 h 0.6 l 0.9,-0.3 0.6,-1 0.2,-1.5 -0.1,-1.5 -0.3,-1.2 -0.6,-0.5 -1,-0.3 h -0.3 l -0.8,0.4 -0.6,0.6 -0.3,0.9 v 0.3 l 0.4,0.9 0.6,0.6 0.9,0.2 h 0.3 l 0.9,-0.3 0.6,-0.7 0.2,-0.9 m -78,-262.2 0.7,2.9 2.7,-0.3 -0.3,-0.3 -0.5,-0.8 -0.3,-0.8 0.1,-1 0.5,-0.7 0.8,-0.5 0.6,-0.2 0.9,0.1 0.7,0.5 0.5,0.8 0.2,0.9 v 0.9 l -0.3,0.4 -0.5,0.4 m -6.5,-5.5 0.5,0.8 0.6,0.2 0.6,-0.2 0.5,-0.4 0.2,-0.7 v -1.2 l 0.1,-0.9 0.4,-0.8 0.5,-0.4 0.9,-0.2 0.7,0.2 0.3,0.2 0.5,0.8 0.3,1.2 -0.1,0.9 -0.2,0.4 -0.5,0.4 -0.9,0.2 -0.6,-0.2 -0.8,-0.4 -0.5,-0.8 -0.5,-1.1 -0.5,-0.5 -0.6,-0.2 -0.6,0.2 -0.5,0.4 -0.1,0.9 0.3,1.4 m -18.5,-22 0.3,0.6 0.9,0.3 h 0.6 l 0.9,-0.2 0.6,-0.9 0.4,-1.5 v -1.5 l -0.3,-1.2 -0.6,-0.6 -0.9,-0.4 h -0.3 l -0.9,0.3 -0.6,0.6 -0.3,0.9 v 0.3 l 0.3,0.9 0.6,0.6 0.9,0.3 h 0.3 l 0.9,-0.2 0.6,-0.6 0.3,-0.9 m -8.7,3.1 0.3,0.6 0.9,0.3 h 0.6 l 0.9,-0.2 0.6,-0.9 0.3,-1.5 v -1.5 l -0.2,-1.2 -0.6,-0.6 -0.9,-0.4 h -0.3 l -0.9,0.3 -0.6,0.6 -0.4,0.9 v 0.3 l 0.3,0.9 0.6,0.6 0.9,0.3 h 0.3 l 0.9,-0.2 0.6,-0.6 0.3,-0.9 m 5.7,68.1 -3.8,5.9 m -0.4,-6.4 4.2,0.5 m 1.5,1.7 v -0.3 l 0.4,-0.5 0.3,-0.3 0.6,-0.2 1.2,0.1 0.6,0.4 0.2,0.4 0.3,0.6 -0.1,0.6 -0.4,0.5 -0.7,0.9 -3.3,2.6 4.1,0.5 m 11.3,-11.3 4.6,5.2 m -6.3,-1.3 1.7,-3.9 m 1.1,-2.7 -0.1,1 0.6,0.9 1.3,0.8 0.8,0.4 1.5,0.3 1.1,-0.2 0.6,-0.8 0.2,-0.5 0.1,-1 -0.6,-0.9 -1.3,-0.8 -0.8,-0.4 -1.5,-0.3 -1,0.3 -0.7,0.7 -0.1,0.4 m -47.4,-16.2 -6.8,1.4 m 4.3,-4.8 2.5,3.4 m 1.6,2.1 -0.8,-0.6 -0.7,0.2 -0.4,0.3 -0.3,0.6 0.1,0.7 0.5,1.1 0.3,0.9 -0.1,0.9 -0.3,0.6 -0.8,0.5 -0.6,0.1 h -0.4 l -0.8,-0.6 -0.7,-0.9 -0.3,-0.9 v -0.5 l 0.3,-0.6 0.7,-0.5 0.7,-0.1 0.8,0.1 0.8,0.5 1,0.8 0.6,0.3 0.6,-0.1 0.5,-0.4 0.3,-0.6 -0.3,-0.9 -0.8,-1 m -4.7,-30.9 -2.8,-6.4 m 5.5,3.2 -2.7,3.2 m -3.4,3.9 -2.8,-6.3 m 5.5,3.2 -2.7,3.1 m 87.6,265.4 -0.7,0.1 -0.6,0.7 -0.2,0.6 v 0.9 l 0.6,0.9 1.3,0.8 1.4,0.5 1.2,0.2 0.8,-0.4 0.6,-0.7 0.1,-0.3 v -0.9 l -0.3,-0.8 -0.7,-0.6 -0.3,-0.1 -1,-0.1 -0.7,0.4 -0.6,0.7 -0.1,0.3 -0.1,1 0.4,0.7 0.7,0.6 m -1.9,-6.7 1.1,-3.1 1.6,2.5 0.4,-0.8 0.4,-0.5 0.4,-0.2 1,0.1 0.5,0.2 0.8,0.6 0.3,0.8 v 0.9 l -0.3,0.9 -0.6,0.7 -0.4,0.2 h -0.7 m -39,16.6 -0.2,-0.7 -0.7,-0.5 -0.6,-0.2 h -0.9 l -0.9,0.7 -0.7,1.3 -0.5,1.4 -0.1,1.3 0.4,0.7 0.8,0.6 0.3,0.1 h 0.9 l 0.8,-0.4 0.5,-0.8 0.1,-0.3 v -0.9 l -0.4,-0.8 -0.7,-0.5 -0.3,-0.1 h -1 l -0.7,0.4 -0.6,0.7 m 6.1,-0.8 0.1,-0.3 0.5,-0.5 0.4,-0.2 0.6,-0.1 1.2,0.4 0.5,0.4 0.2,0.4 0.1,0.7 -0.2,0.5 -0.5,0.5 -0.8,0.7 -3.8,1.9 4,1.3 m 13.2,-59.8 0.5,-0.7 0.8,-0.4 0.9,-0.1 0.3,0.1 0.8,0.6 0.4,0.7 v 1 l -0.1,0.3 -0.5,0.7 -0.8,0.4 -0.9,0.1 -0.3,-0.1 -0.8,-0.6 -0.4,-0.7 0.1,-1.3 0.4,-1.4 0.7,-1.3 0.9,-0.7 0.9,-0.1 0.6,0.2 0.8,0.6 0.1,0.6 m -6.2,2.2 -0.1,0.3 -0.4,0.5 -0.4,0.2 -0.7,0.1 -1.1,-0.3 -0.5,-0.5 -0.2,-0.4 -0.1,-0.6 0.2,-0.6 0.4,-0.5 0.9,-0.7 3.7,-2 -4,-1.2 m -122.4,41.8 0.2,3.3 -2.5,-1.7 0.1,0.9 -0.3,0.7 -0.3,0.3 -0.9,0.3 h -0.6 l -0.9,-0.2 -0.6,-0.6 -0.4,-0.9 v -0.9 l 0.3,-0.9 0.2,-0.3 0.6,-0.3 m 3.9,5.7 h 0.3 l 0.6,0.2 0.3,0.3 0.3,0.6 0.1,1.2 -0.3,0.6 -0.3,0.3 -0.5,0.3 -0.6,0.1 -0.7,-0.3 -0.9,-0.6 -3.1,-2.8 0.2,4.2 m 32.8,25.9 0.1,-0.3 0.4,-0.6 0.3,-0.2 0.6,-0.3 1.2,0.2 0.6,0.4 0.2,0.3 0.3,0.7 -0.1,0.5 -0.4,0.6 -0.7,0.8 -3.4,2.6 4.2,0.5 m 2.5,-6 3.3,0.5 -2.1,2.1 0.9,0.1 0.5,0.4 0.3,0.4 0.2,0.9 -0.1,0.6 -0.4,0.8 -0.7,0.6 -0.9,0.1 -0.9,-0.1 -0.9,-0.4 -0.2,-0.4 -0.3,-0.6 m -34.2,-93 0.2,3.3 -2.5,-1.7 v 0.9 l -0.2,0.7 -0.3,0.3 -0.9,0.3 -0.6,0.1 -0.9,-0.3 -0.6,-0.6 -0.4,-0.8 v -0.9 l 0.2,-0.9 0.3,-0.4 0.6,-0.3 m 3.9,5 0.4,0.6 0.9,0.9 -6.3,0.3 m 99.8,91.9 -0.3,0.2 -0.6,0.1 -0.4,-0.1 -0.6,-0.3 -0.7,-1 -0.1,-0.7 0.1,-0.4 0.3,-0.6 0.5,-0.3 0.7,-0.1 h 1 l 4.2,0.8 -2.4,-3.5 m -6.3,-1.8 0.9,-0.2 0.9,0.1 0.7,0.6 0.2,0.2 0.3,0.9 -0.2,0.9 -0.6,0.7 -0.2,0.2 -0.9,0.3 -0.9,-0.2 -0.7,-0.6 -0.2,-0.2 -0.2,-0.9 0.1,-0.9 0.8,-0.9 1.3,-0.8 1.4,-0.6 h 1.1 l 0.7,0.5 0.3,0.5 0.3,0.9 -0.3,0.6 m -3.5,6.5 h -0.9 l -0.5,0.5 -0.2,0.6 0.2,0.7 0.5,0.4 1,0.7 0.8,0.5 0.4,0.7 0.1,0.7 -0.2,0.9 -0.5,0.5 -0.4,0.2 h -0.9 l -1.2,-0.3 -0.7,-0.6 -0.2,-0.4 -0.2,-0.6 0.3,-0.9 0.4,-0.5 0.8,-0.4 h 0.9 1.3 l 0.6,-0.1 0.5,-0.5 0.2,-0.5 -0.2,-0.7 -0.7,-0.5 -1.3,-0.4 m 7,3 -0.1,-0.7 -0.8,-0.5 -0.6,-0.2 h -0.9 l -0.8,0.7 -0.8,1.4 -0.4,1.4 v 1.3 l 0.4,0.7 0.8,0.6 h 0.2 1 l 0.7,-0.4 0.6,-0.8 0.1,-0.3 -0.1,-0.9 -0.4,-0.8 -0.8,-0.5 -0.2,-0.1 h -1 l -0.7,0.4 -0.6,0.8 M 661,540.7 l -0.3,0.1 -0.6,-0.2 -0.4,-0.2 -0.4,-0.5 -0.3,-1.2 0.1,-0.6 0.2,-0.4 0.5,-0.4 0.6,-0.2 0.7,0.2 1,0.3 3.6,2.2 -1,-4.1 m -7.2,-2.6 4.8,1.9 -1.1,-4.3 m -3.7,2.4 6.1,-1.5 m -86.8,-13.9 h 0.3 l 0.6,0.3 0.3,0.3 0.4,0.5 v 1.2 l -0.2,0.7 -0.3,0.3 -0.6,0.3 h -0.6 l -0.6,-0.2 -0.9,-0.6 -3.2,-2.8 0.2,4.2 m 5,0.8 0.3,0.6 1,0.8 -6.3,0.4 m 44.9,-17.3 -0.6,0.2 -1,0.9 0.5,-6.3 m -3.1,6.3 0.9,-0.2 0.3,-0.6 0.1,-0.6 -0.3,-0.6 -0.6,-0.4 -1.1,-0.4 -0.9,-0.3 -0.6,-0.7 -0.2,-0.6 V 503 l 0.4,-0.6 0.3,-0.2 0.9,-0.3 1.2,0.1 0.9,0.4 0.3,0.3 0.2,0.6 v 0.9 l -0.4,0.6 -0.6,0.5 -0.9,0.3 -1.3,0.2 -0.6,0.2 -0.3,0.6 -0.1,0.6 0.3,0.6 0.9,0.4 1.3,0.1"
       id="nums_002"
       stroke="#000000"
       style="stroke-width:1.01549;stroke-dasharray:none" />
    <path
       d="m 1032.2,205 18.5,62.1 -6.8,47.9 -65.1,1.1 64.7,7.1 -13.6,45.6 -16.4,52.8 -18.2,34.1 -22.9,-25.1 -6,-52.7 -31.2,-33.1 -27.9,-11.6 -19.5,-35.3 -14.1,40.3 -4,38.5 38,40.2 -23.9,33.1 30.2,-27.5 22.7,41.8 3.7,48.4 -68.7,32.8 75.2,12.1 -22.6,60.6 -26.9,64 -27.8,-52.6 10.9,58.4 -57.1,-4 -62.1,1.8 -23.6,-64.7 59.2,-2.4 -23,-45.9 31.4,-33.1 -39.2,14.3 -52,19 2.9,-47.1 38.8,-19.7 -43.5,-1 -2.4,-42.4 -19.5,37.7 -44.9,-14.3 -54.8,-7.4 -21.5,-35.7 44.8,-8.1 -31.2,-40.7 59.1,5.4 26.8,39.8 66.2,-38.5 -22.6,-5.1 11.9,-76.4 22.8,15.1 23.3,42.6 -7,41.4 42,1.2 4,-48.4 -22.2,-16 40.4,-19.5 3,-37.6 -43.9,38.1 -45.5,-40.5 -42.6,-22.8 -14.4,-47.9 5.7,-66.5 -45.5,26 17.8,17.2 27.7,64 35.5,32.3 -111.2,35.2 -3.8,-37.2 -16.8,-21.9 -13.5,-57 -10.9,-41.1 -8,-40.8 -16.1,-56.8 113.8,-25.8 5.9,32 -23.4,38.5 21.7,-39.5 -4.1,-32.3 53,6.9 59.9,15.7 -8.6,88.9 44.8,55.7 -6.5,-24.8 6.1,-65.1 24.5,-59.6 30.2,20.2 -22.8,-28.3 11.3,-49.9 19.8,0.6 45.5,42.3 42,38.9 66.2,-20.6 26.4,69 -42.6,28.1 -66,30.5 -61.8,-72.8 -53.4,42.5 62.8,-26.6 -37.2,87.9 71.8,11.8 50.3,8.4 z m -336.6,207.1 -37.1,-4.7 -35.5,-47.1 27.2,-31.5 42.5,0.8 13.5,57 z m -21.5,152.9 73.3,22.1 -24.6,65.2 -60.9,-19.3 31,45.4 -40.8,-12 -74.9,-10.3 -3,-64.9 -2.4,-42 -2.9,-52.4 89.6,6.5 z"
       id="coupes_002"
       stroke="#ff0000"
       style="stroke-width:1.26936"
       sodipodi:nodetypes="ccccccccccccccccccccccccccccccccccccccccccccccccccccccccccccccccccccccccccccccccccccccccccccccccccccccccccccccccccccccccc" />
    <path
       d="m 805.3,419.8 78.5,30.2 m 0,0 -78.5,89.7 m 0,-119.9 64.4,-43.1 m 14.1,73.3 -12.1,95.5 m 0,0 -66.4,-5.8 m 4,-168.3 60.4,5.3 m 2,168.8 -74.8,73.2 m 0,0 8.4,-79 m 22.2,-203.8 42.2,40.8 m 2,168.8 -2.1,84.1 m 0,0 -72.7,-10.9 m 30.6,-282.8 46.2,2.3 m -4.1,291.4 -46.2,54.4 m 0,0 -26.5,-65.3 m 33.6,-320.4 43.2,39.9 m -43.2,-39.9 57.3,-0.4 m -35.3,-66.9 35.3,66.9 m -175.5,207.3 51,-86.6 M 766.1,554 717,525.9 m 166.8,-75.9 52.9,14.3 m 0,0 -65,81.2 m 52.6,-302.7 -17,90.4 m 17,-90.4 10.9,102 m 39.4,-93.6 -39.4,93.6 m 39.4,-93.6 4.2,64.9 m 0,0 -43.6,28.7 m 43.6,-28.7 -12.4,61.8 m 77.1,-54.7 -77.1,54.7 m 63.5,-9.1 -63.5,9.1 m 8.2,-126.7 76.1,15.9 m 0,0 -71.9,49 m 51.1,52.7 -57.5,61.8 m 41.1,-9 -41.1,9 M 826.9,169.7 852.5,231 m -51,-37.1 25.4,-24.2 M 741.1,295.9 808,218.7 M 741.1,295.9 763.2,163 M 698.5,273.1 763.2,163 m -73.4,-4.3 73.4,4.3 m -73.4,-4.3 -48.5,-35.4 m 0,0 130.5,-49.2 M 663,83.8 771.8,74.1 M 663,83.8 711.9,58.4 m 159.8,487.1 52.6,72.7 m 0,0 -54.7,11.4 M 709.9,462.8 763.3,418.6 m -53.4,44.2 25,-61.8 m 0,0 28.4,17.6 m -53.4,44.2 -41.2,-23.3 m -23.2,46.7 23.2,-46.7 m 41.2,23.3 -64.4,23.4 m 0,0 L 614,435 M 712.3,395.9 747,334.6 M 614,435 641.9,399.7 m 165.7,-270.9 19.3,40.9 m 5.2,-100.5 -5.2,100.5 m 35.4,-80.3 -35.4,80.3 m 35.4,-80.3 95.8,3.6 m -95.8,-3.6 53.8,-35.3 m 42,38.9 50,76.5 m -50,-76.5 92.6,48.4 m -481.6,34.8 72.2,-52.9 m 3,61.4 -75.2,-8.5 m 75.2,8.5 -64.3,32.6 m 82.1,-15.4 -82.1,15.4 m 82.1,-15.4 -68.6,72.4 m 96.3,-8.4 -96.3,8.4 m 96.3,-8.4 -79.5,30.3 M 561.1,135.4 641.3,123.3 M 561.1,135.4 664.7,84.8 M 545,78.6 664.7,84.8 m 174.8,-23.7 76.6,-7 m -76.6,7 31.1,-49.3 m -145.3,286.4 -115,-2 M 590.7,478.8 614,435 m 147.3,250.8 35.6,-67.1 m -90.7,-232.1 -47.7,20.8 m 0,0 -8.3,-78.6 M 661.9,633 747.4,587.1 M 661.9,633 574.2,591.2 m 0,0 99.9,-26.2 m -12.2,68 -84.7,23.1 M 571.8,549.2 674.1,565 m -102.3,-15.8 86.7,-45.9"
       id="plisM_002"
       stroke="#a52a2a"
       stroke-dasharray="4" />
    <path
       d="M 805.3,539.7 V 419.8 m 64.4,-43.1 14.1,73.3 m -74.5,-78.6 18.2,-35.5 m 3,-37.6 22,-67.3 m 71.8,11.8 -36.5,55.1 m -132,208.3 49.5,-86.4 m 0,119.9 -49.5,-33.5 m 0,0 7.5,-87.6 M 766.1,554 755.8,506.2 M 830.5,298.3 808,218.7 m 0,0 44.5,12.3 m -44.5,-12.3 18.9,-49 M 786.6,336.4 808,218.7 m -123.9,6.5 79.1,-62.2 m -73.4,-4.3 82,-84.6 m -127.5,110.6 -3,-61.4 M 734.9,401 770.3,377.2 M 614,435 l 54.7,4.5 M 734.9,401 747,334.6 m 115.3,-245.2 18,37.8 M 958.1,93 880.3,127.2 M 958.1,93 942.1,200 M 658.5,407.4 692.7,329.6 M 661.9,633 674.1,565 m -12.2,68 -9.8,33.4"
       id="plisV_002"
       stroke="#008000"
       stroke-dasharray="4, 1, 1, 1"
       style="stroke-width:1.26936" />
    <path
       d="m 803.3,477.8 4,4 m 0,-4 -4,4 m 71.4,-70.4 4,4 m 0,-4 -4,4 m -58.3,-63.7 4,4 m 0,-4 -4,4 m 23.1,-93 4,4 m 0,-4 -4,4 m 64.5,1.7 4,4 m 0,-4 -4,4 M 778.5,461 l 4,4 m 0,-4 -4,4 m 0,55.9 4,4 m 0,-4 -4,4 m -20.9,-64.5 4,4 m 0,-4 -4,4 m 1.3,63.7 4,4 m 0,-4 -4,4 m 58.3,-275.6 4,4 m 0,-4 -4,4 m 11,-37.6 4,4 m 0,-4 -4,4 m -12.8,-34.7 4,4 m 0,-4 -4,4 m -20.1,79.4 4,4 m 0,-4 -4,4 m -73.7,-87.5 4,4 m 0,-4 -4,4 m 7.2,-81.7 4,4 m 0,-4 -4,4 m -88,33.6 4,4 m 0,-4 -4,4 m 109.8,231.1 4,4 m 0,-4 -4,4 m -111.3,44.2 4,4 m 0,-4 -4,4 m 99.6,-73.5 4,4 m 0,-4 -4,4 m 130.4,-263.5 4,4 m 0,-4 -4,4 m 47.9,-2.2 4,4 m 0,-4 -4,4 m 30.9,32.4 4,4 m 0,-4 -4,4 m -274.5,218 4,4 m 0,-4 -4,4 M 666,597 l 4,4 m 0,-4 -4,4 m -11,46.7 4,4 m 0,-4 -4,4"
       id="marqueV_002"
       stroke="#008000" />
    <path
       d="m 803.9,341.9 h 8.3 l -4.5,6 h 2.2 l 1.5,0.7 0.8,0.8 0.7,2.2 v 1.5 l -0.7,2.3 -1.5,1.5 -2.3,0.7 h -2.2 l -2.3,-0.7 -0.7,-0.8 -0.8,-1.5"
       id="titre_3"
       stroke="#4b0082"
       style="stroke-width:1.01549;stroke-dasharray:none" />
    <path
       d="m 687.6,362 -7.5,10.5 h 11.2 M 687.6,362 v 15.8"
       id="titre_4"
       stroke="#4b0082"
       style="stroke-width:1.01549;stroke-dasharray:none" />
    <path
       d="m 640.2,584 h -7.5 l -0.8,6.8 0.8,-0.8 2.2,-0.7 h 2.3 l 2.2,0.7 1.5,1.5 0.8,2.3 v 1.5 l -0.8,2.2 -1.5,1.5 -2.2,0.8 h -2.3 l -2.2,-0.8 -0.8,-0.7 -0.7,-1.5"
       id="titre_5"
       stroke="#4b0082"
       style="stroke-width:1.01549;stroke-dasharray:none" />
  </g>
</svg>
