<?xml version="1.0" encoding="UTF-8" standalone="no"?>
<svg
   height="841.88977pt"
   viewBox="0 0 532.99998 754.00001"
   width="595.27557pt"
   version="1.1"
   id="svg1"
   sodipodi:docname="mile_160_H20_C2x4.svg"
   inkscape:version="1.3 (0e150ed6c4, 2023-07-21)"
   xmlns:inkscape="http://www.inkscape.org/namespaces/inkscape"
   xmlns:sodipodi="http://sodipodi.sourceforge.net/DTD/sodipodi-0.dtd"
   xmlns="http://www.w3.org/2000/svg"
   xmlns:svg="http://www.w3.org/2000/svg">
  <defs
     id="defs1" />
  <sodipodi:namedview
     id="namedview1"
     pagecolor="#ffffff"
     bordercolor="#000000"
     borderopacity="0.25"
     inkscape:showpageshadow="2"
     inkscape:pageopacity="0.0"
     inkscape:pagecheckerboard="0"
     inkscape:deskcolor="#d1d1d1"
     inkscape:document-units="mm"
     showgrid="false"
     inkscape:zoom="0.39670559"
     inkscape:cx="2322.8813"
     inkscape:cy="581.03542"
     inkscape:window-width="1920"
     inkscape:window-height="1057"
     inkscape:window-x="-8"
     inkscape:window-y="-8"
     inkscape:window-maximized="1"
     inkscape:current-layer="svg1" />
  <style
     type="text/css"
     id="style1"><![CDATA[
			path {
				fill: none;
				stroke-width: 0.15mm;
			}
		]]></style>
  <g
     id="page_001">
    <path
       d="m 78.4,356.2 -0.5,-0.9 -0.9,-0.5 h -1.6 l -0.9,0.1 -1.4,0.5 -0.8,0.7 -0.2,1 0.1,0.5 0.4,0.9 1,0.5 h 1.5 l 0.9,-0.1 1.5,-0.5 0.8,-0.7 0.1,-0.9 v -0.5 m 63.5,-87.5 -0.4,0.6 -0.3,1.2 -3.1,-5.5 m 0.6,7.2 0.7,-0.7 0.1,-1.1 -0.5,-1.5 -0.5,-0.8 -1,-1.1 -0.9,-0.5 -1,0.2 -0.5,0.3 -0.6,0.7 -0.1,1 0.5,1.5 0.4,0.8 1,1.1 1,0.5 0.9,-0.2 0.4,-0.2 m 106,23.8 -0.5,-0.5 h -0.9 l -0.6,0.1 -0.8,0.6 -0.3,1 0.1,1.5 0.5,1.5 0.6,1 0.7,0.4 1,0.1 0.3,-0.1 0.7,-0.5 0.4,-0.8 0.1,-0.9 -0.1,-0.3 -0.5,-0.8 -0.8,-0.4 h -0.9 -0.3 l -0.8,0.6 -0.4,0.7 v 1 m -23.3,48.2 -0.6,0.2 -1.1,0.7 1.1,-6.2 m -5.6,4.7 0.2,0.6 0.8,0.5 0.6,0.1 0.9,-0.1 0.8,-0.8 0.5,-1.4 0.3,-1.5 -0.1,-1.3 -0.5,-0.7 -0.8,-0.4 -0.3,-0.1 -0.9,0.2 -0.7,0.5 -0.5,0.8 v 0.3 l 0.1,0.9 0.5,0.7 0.8,0.5 h 0.3 l 1,-0.1 0.6,-0.5 0.5,-0.8 m 92.3,42.1 -0.2,0.3 -0.6,0.2 h -0.4 l -0.7,-0.1 -0.9,-0.8 -0.3,-0.6 V 386 l 0.2,-0.7 0.4,-0.4 0.6,-0.3 1,-0.3 4.3,-0.3 -3.2,-2.8 m -4,3.1 -0.7,-0.2 -1.2,0.1 4.1,-4.8 m -35,115.8 -0.6,-0.4 -1.2,-0.4 5.6,-3 m -7,0.8 0.6,0.6 h 0.7 l 0.5,-0.3 0.4,-0.5 v -0.7 l -0.3,-1.2 -0.1,-0.9 0.2,-0.9 0.4,-0.5 0.8,-0.4 h 0.7 l 0.4,0.1 0.7,0.6 0.5,1.1 0.2,0.9 -0.1,0.4 -0.4,0.6 -0.8,0.4 h -0.7 l -0.8,-0.2 -0.7,-0.7 -0.8,-0.9 -0.6,-0.4 h -0.6 l -0.6,0.3 -0.4,0.6 0.2,0.9 0.6,1.2 m -212.9,-43.4 1.9,-2.3 -1.9,-2 0.1,0.4 -0.4,0.9 -0.6,0.7 -0.8,0.5 -0.8,0.1 -0.9,-0.4 -0.5,-0.3 -0.5,-0.9 v -0.8 l 0.3,-0.9 0.6,-0.7 0.8,-0.5 H 54 l 0.7,0.2 M 198.3,190 l 0.5,0.4 1.2,0.5 -5.6,2.8 m 5,-1.4 0.6,0.4 1.2,0.4 -5.7,2.9 m 195.8,66.5 -2.3,6.6 m -1.8,-6.1 4.1,-0.5 m -96.9,193.3 0.6,0.2 h 1.3 l -4.2,4.6 m 6.7,0.1 -0.9,0.5 h -0.8 l -0.9,-0.3 -0.2,-0.2 -0.5,-0.9 V 459 l 0.4,-0.9 0.2,-0.2 0.8,-0.5 h 0.8 l 0.9,0.4 0.2,0.2 0.5,0.8 v 0.8 l -0.5,1.1 -1,1.1 -1.3,1 -1,0.2 -0.9,-0.3 -0.4,-0.4 -0.5,-0.9 0.2,-0.6 m -121.4,94.7 -0.7,-0.6 -0.4,-0.8 v -0.9 l 0.1,-0.3 0.6,-0.8 0.8,-0.3 h 1 l 0.2,0.1 0.8,0.6 0.3,0.8 v 0.9 l -0.1,0.3 -0.6,0.7 -0.7,0.4 -1.3,-0.1 -1.4,-0.6 -1.3,-0.7 -0.6,-0.9 v -1 l 0.2,-0.5 0.6,-0.8 0.7,-0.1 m -14.1,-6.1 0.6,0.7 0.2,0.8 -0.1,0.9 -0.2,0.3 -0.7,0.6 -0.8,0.3 -0.9,-0.2 -0.3,-0.2 -0.6,-0.7 -0.3,-0.8 0.2,-0.9 0.2,-0.3 0.7,-0.6 0.8,-0.3 1.2,0.4 1.3,0.7 1.1,1 0.5,1 -0.2,0.9 -0.2,0.5 -0.8,0.7 -0.6,-0.1 m 139.7,-416.4 -0.4,-0.5 -1.1,-0.7 6.2,-1.3 m -7.5,-3.8 6.8,1.6 m -5.9,2.5 -0.9,-4.1 m 76,46.6 -0.5,0.4 -0.7,1.1 -1.4,-6.1 m -3.7,7.5 1.6,-6.8 m 2.5,5.8 -4.1,1 m 13.5,335.4 0.1,-0.3 0.3,-0.5 0.4,-0.3 0.6,-0.2 1.2,0.2 0.6,0.4 0.2,0.3 0.2,0.7 -0.1,0.6 -0.4,0.5 -0.7,0.8 -3.4,2.5 4.1,0.7 m 2.4,-4.5 0.1,-0.3 0.3,-0.6 0.4,-0.2 0.6,-0.2 1.2,0.2 0.6,0.4 0.2,0.3 0.2,0.7 -0.1,0.5 -0.4,0.6 -0.7,0.8 -3.5,2.5 4.2,0.6 m -345.6,-5.6 -0.5,-0.8 -0.6,-0.2 -0.6,0.2 -0.5,0.4 -0.2,0.6 v 1.3 l -0.1,0.9 -0.4,0.7 -0.5,0.5 -0.9,0.2 -0.6,-0.2 -0.4,-0.2 -0.5,-0.8 -0.3,-1.2 0.1,-0.9 0.2,-0.4 0.5,-0.4 0.9,-0.2 0.7,0.1 0.7,0.5 0.5,0.8 0.6,1.1 0.4,0.5 0.6,0.2 0.6,-0.2 0.5,-0.4 0.1,-1 -0.3,-1.3 m 156.9,-386.4 0.3,0.1 0.5,0.4 0.2,0.4 0.1,0.6 -0.3,1.2 -0.5,0.5 -0.4,0.2 -0.6,0.1 -0.6,-0.1 -0.5,-0.5 -0.7,-0.8 -2.1,-3.7 -1.1,4 m 4.8,6.3 0.8,-2.9 -2.5,-1 0.2,0.3 v 1 l -0.2,0.9 -0.6,0.7 -0.7,0.5 h -1 l -0.5,-0.2 -0.8,-0.5 -0.4,-0.7 -0.1,-1 0.3,-0.9 0.5,-0.7 0.4,-0.2 0.6,-0.2 m 297.9,56.8 -0.1,0.3 -0.5,0.5 -0.3,0.2 -0.7,0.1 -1.1,-0.4 -0.5,-0.4 -0.2,-0.4 -0.1,-0.7 0.2,-0.6 0.4,-0.4 0.9,-0.7 3.7,-2 -4,-1.2 m -6.1,3.7 0.1,0.7 0.7,0.5 0.6,0.2 h 1 l 0.8,-0.7 0.7,-1.3 0.5,-1.5 0.1,-1.2 -0.4,-0.8 -0.8,-0.5 -0.3,-0.1 h -0.9 l -0.8,0.4 -0.5,0.8 -0.1,0.3 v 0.9 l 0.4,0.8 0.7,0.5 0.3,0.1 h 1 l 0.7,-0.4 0.6,-0.8 m -316.8,466.1 0.4,0.6 1.1,0.7 -6.3,1 m 68.1,28.6 -0.1,-0.3 v -0.7 l 0.2,-0.4 0.4,-0.5 1.1,-0.4 h 0.7 l 0.4,0.2 0.5,0.4 0.2,0.6 v 0.7 l -0.2,1 -1.7,3.9 3.9,-1.6 M 102.5,634 v -0.6 l -0.3,-1.3 5.4,3.4 m -39.9,-15 -4.8,-1.9 1.1,4.4 m 3.7,-2.5 -6.1,1.5 m 114.5,-567.8 0.2,-0.2 0.7,-0.2 0.4,0.1 0.6,0.2 0.8,0.9 0.2,0.6 V 56 l -0.2,0.7 -0.5,0.4 -0.6,0.2 -1.1,0.1 -4.2,-0.1 2.9,3.1 m 5.7,-3.1 2.3,2.4 -3,0.4 0.6,0.6 0.2,0.7 v 0.4 l -0.4,0.8 -0.5,0.4 -0.8,0.4 h -0.9 l -0.8,-0.4 -0.6,-0.7 -0.4,-0.9 V 61 l 0.2,-0.6 m 46.3,3 -0.1,0.3 -0.5,0.5 -0.4,0.2 -0.6,0.1 -1.2,-0.3 -0.5,-0.5 -0.2,-0.4 -0.1,-0.6 0.2,-0.6 0.4,-0.5 0.9,-0.7 3.7,-2 -4,-1.2 m -6.1,3.8 0.1,0.7 0.8,0.5 0.6,0.2 h 0.9 l 0.8,-0.7 0.7,-1.4 0.5,-1.4 v -1.2 l -0.4,-0.8 -0.8,-0.5 -0.3,-0.1 h -0.9 l -0.8,0.4 -0.5,0.8 -0.1,0.3 0.1,0.9 0.4,0.8 0.7,0.5 0.3,0.1 h 1 l 0.7,-0.4 0.6,-0.8 m 459.6,169.5 0.1,-0.7 -0.3,-1.2 5.4,3.2 m -2.4,-6.9 -0.7,-0.1 -0.7,0.6 -0.3,0.5 -0.2,1 0.5,1 1.1,1 1.3,0.7 1.2,0.4 0.8,-0.2 0.7,-0.6 0.2,-0.3 0.2,-0.9 -0.2,-0.8 -0.7,-0.7 -0.2,-0.2 -0.9,-0.2 -0.9,0.2 -0.7,0.6 -0.1,0.3 -0.2,0.9 0.2,0.8 0.6,0.7 m -246.2,277.2 0.4,-0.5 0.4,-1.2 2.9,5.6 m -1.5,-6.6 2.9,-1.5 -0.5,2.9 0.8,-0.4 h 0.7 l 0.4,0.1 0.7,0.7 0.3,0.5 0.1,1 -0.2,0.8 -0.7,0.7 -0.8,0.4 -0.9,0.1 -0.4,-0.1 -0.6,-0.4 M 361,363.5 l 0.3,0.1 0.5,0.5 0.2,0.3 0.1,0.7 -0.3,1.2 -0.5,0.4 -0.4,0.3 -0.6,0.1 -0.6,-0.2 -0.5,-0.5 -0.7,-0.8 -2,-3.7 -1.2,4 m 4.4,2.4 0.1,0.7 0.6,1.1 -6,-1.8 m 81.7,17.2 0.9,0.2 0.6,-0.3 0.4,-0.5 0.1,-0.6 -0.4,-0.6 -0.8,-1 -0.6,-0.7 -0.1,-0.8 0.1,-0.7 0.5,-0.8 0.6,-0.3 0.4,-0.1 0.9,0.3 1,0.7 0.6,0.7 v 0.5 0.6 l -0.6,0.8 -0.5,0.3 -0.9,0.1 -0.9,-0.2 -1.2,-0.4 -0.6,-0.1 -0.6,0.3 -0.3,0.5 -0.1,0.6 0.5,0.8 1.1,0.8 m -2.8,-3.8 -0.2,0.2 -0.6,0.3 -0.4,0.1 -0.7,-0.1 -0.9,-0.7 -0.4,-0.5 v -0.5 -0.6 l 0.4,-0.5 0.6,-0.3 1,-0.4 4.2,-0.8 -3.5,-2.4 M 713.6,123.8 h -0.3 l -0.6,-0.3 -0.3,-0.3 -0.2,-0.6 v -1.2 l 0.3,-0.6 0.3,-0.3 0.6,-0.3 h 0.6 l 0.6,0.4 0.9,0.6 2.9,3.1 0.2,-4.2 m -6.2,-3.2 0.2,0.9 0.9,0.7 1.5,0.3 h 0.9 l 1.5,-0.2 0.9,-0.6 0.4,-0.9 v -0.6 l -0.3,-0.9 -0.9,-0.6 -1.5,-0.4 h -0.9 l -1.5,0.3 -0.9,0.5 -0.3,0.9 v 0.5 m -162.3,41.3 0.3,-0.1 0.6,0.1 0.4,0.1 0.5,0.5 0.5,1.1 -0.1,0.7 -0.2,0.3 -0.4,0.5 -0.6,0.3 -0.6,-0.1 -1.1,-0.2 -3.9,-1.7 1.6,3.9 m 6.5,-0.7 1.2,3.1 -2.9,-0.8 0.3,0.8 -0.1,0.7 -0.1,0.4 -0.8,0.6 -0.5,0.2 h -1 l -0.7,-0.3 -0.6,-0.7 -0.4,-0.9 V 165 l 0.1,-0.4 0.5,-0.5 m 85.4,-63.2 0.1,0.3 -0.1,0.7 -0.2,0.4 -0.5,0.4 -1.1,0.4 h -0.7 l -0.4,-0.2 -0.4,-0.5 -0.2,-0.6 v -0.6 l 0.3,-1.1 1.9,-3.8 -4,1.4 m -2,7.4 1.5,-4.9 -4.3,1.4 m 2.8,3.5 -2,-5.9 M 473,314.4 l -7,-0.5 m 5.5,-3.4 1.5,3.9 m 94.3,3.4 -0.5,-0.4 -1,0.1 -0.5,0.3 -0.7,0.6 -0.1,1.1 0.4,1.5 0.6,1.3 0.8,1 0.8,0.2 1,-0.1 0.2,-0.1 0.7,-0.7 0.3,-0.8 -0.1,-0.9 -0.2,-0.3 -0.6,-0.7 -0.8,-0.2 -1,0.1 -0.3,0.1 -0.6,0.7 -0.3,0.8 0.1,0.9 m 10.5,108.3 -0.6,0.3 -0.9,0.9 -0.3,-6.3 m -1.4,5.1 v 0.3 l -0.3,0.6 -0.2,0.3 -0.6,0.4 h -1.2 l -0.6,-0.2 -0.4,-0.3 -0.3,-0.6 v -0.6 l 0.3,-0.6 0.5,-1 2.9,-3.1 -4.2,0.2 m -71.1,81.5 0.7,0.2 1.2,-0.1 -4,4.8 m 5.5,-3.9 2.5,2.1 -2.9,0.7 0.7,0.6 0.3,0.6 v 0.4 l -0.3,0.9 -0.4,0.5 -0.8,0.5 -0.9,0.1 -0.8,-0.4 -0.7,-0.6 -0.5,-0.8 -0.1,-0.4 0.2,-0.7 m 150.5,-32.1 -0.5,-0.4 -1.2,-0.6 5.9,-2.2 m -7.7,-1.7 5,1.3 -1.6,-4.2 m -3.4,2.9 5.9,-2.2 m -108.8,83.7 0.3,-0.2 h 0.6 l 0.5,0.1 0.5,0.4 0.6,1 0.1,0.6 -0.1,0.5 -0.4,0.5 -0.5,0.3 -0.6,0.1 -1.1,-0.1 -4.1,-1 2.1,3.6 m 5,-1 0.3,-0.2 0.6,-0.1 0.4,0.1 0.6,0.4 0.6,1 0.1,0.7 -0.1,0.4 -0.4,0.6 -0.5,0.3 h -0.6 -1.1 l -4.1,-1 2.1,3.6 m 69.8,70.2 0.7,0.2 h 1.2 l -4.3,4.5 m 6.7,0.3 -0.9,0.5 h -0.8 l -0.9,-0.4 -0.2,-0.2 -0.4,-0.9 -0.1,-0.8 0.5,-0.9 0.2,-0.2 0.8,-0.4 h 0.9 l 0.8,0.4 0.2,0.2 0.5,0.8 v 0.9 l -0.6,1 -1.1,1.1 -1.2,0.9 -1.1,0.2 -0.8,-0.4 -0.5,-0.4 -0.4,-0.8 0.2,-0.7 m 50.1,-27 -0.3,-0.6 -0.8,-0.9 6.3,0.2 m -6.4,-2.9 0.2,0.9 0.6,0.3 0.6,0.1 0.6,-0.3 0.4,-0.6 0.3,-1.2 0.4,-0.9 0.6,-0.5 0.6,-0.3 h 0.9 l 0.6,0.4 0.3,0.3 0.2,0.9 v 1.2 l -0.4,0.9 -0.3,0.3 -0.6,0.2 h -0.9 l -0.6,-0.3 -0.6,-0.7 -0.2,-0.9 -0.3,-1.2 -0.2,-0.6 -0.6,-0.3 -0.6,-0.1 -0.6,0.3 -0.4,0.9 v 1.3 m -295,-10.8 h -0.7 l -1.2,0.3 3.2,-5.4 m -7,3.5 4.7,-2.1 -3.9,-2.3 m -0.8,4.4 3.1,-5.4 M 352,634 l 0.5,-0.4 0.6,-1.2 2,6 m 2.4,-7.7 -2.9,1 0.6,2.6 0.2,-0.3 0.8,-0.6 0.8,-0.3 h 1 l 0.7,0.4 0.6,0.7 0.2,0.6 v 1 l -0.4,0.7 -0.8,0.6 -0.8,0.3 h -1 l -0.3,-0.2 -0.5,-0.5"
       id="nums_001"
       stroke="#000000"
       style="stroke-width:1.01549;stroke-dasharray:none" />
    <path
       d="M 414.3,524.4 348.9,513.9 236.3,413 l 80.5,151 96.8,56.7 -111.4,37.2 -128.9,53.4 -19.8,-121.4 27.6,-76 -39.8,70.4 L 76.6,688.9 42.6,555.4 23.5,475 77.8,410.5 62.8,305.6 207.5,224 179,166.6 200.7,90.5 148.4,34.4 292.3,76.7 314.2,179.2 416.4,156 559.6,200.8 531.6,129.5 722.4,63 718.7,175.3 654.4,283 484.5,366.8 444.9,265 336.4,276.8 154.6,330.2 278.1,352 341.3,406.2 365,326.4 510.3,426.6 633,421.2 672.4,526.1 664.6,697.2 555.4,592.5 521,535.9 471.5,494.7 Z"
       id="coupes_001"
       stroke="#ff0000"
       style="stroke-width:1.26936"
       sodipodi:nodetypes="cccccccccccccccccccccccccccccccccccccccccc" />
    <path
       d="m 154.6,330.2 -76.8,80.3 m 76.8,-80.3 81.7,82.8 m 0,0 -158.5,-2.5 M 207.5,224 336.4,276.8 M 236.3,413 181.1,513.9 M 207.5,224 314.2,179.2 m 0,0 22.2,97.6 m 4.9,129.4 -105,6.8 m 80.5,151 -135.7,-50.1 m 0,0 L 23.5,475 M 179,166.6 314.2,179.2 m 0,0 130.7,85.8 M 316.8,564 153.5,589.9 M 141.3,584.3 23.5,475 M 179,166.6 292.3,76.7 m 124.1,79.3 28.5,109 m -103.6,141.2 73,118.2 m -97.5,39.6 -14.6,93.9 m 0,0 -148.7,-68 M 141.3,584.3 42.6,555.4 M 200.7,90.5 292.3,76.7 M 559.6,200.8 444.9,265 m 114.7,-64.2 94.8,82.2 m 0,0 -209.5,-18 M 559.6,200.8 718.7,175.3 M 341.3,406.2 471.5,494.7 M 365,326.4 471.5,494.7 m 38.8,-68.1 -38.8,68.1 M 559.6,200.8 722.4,63 M 633,421.2 471.5,494.7 M 633,421.2 521,535.9 m 151.4,-9.8 -151.4,9.8"
       id="plisM_001"
       stroke="#a52a2a"
       stroke-dasharray="4" />
    <path
       d="m 62.8,305.6 91.8,24.6 M 207.5,224 154.6,330.2 M 278.1,352 236.3,413 M 181.1,513.9 77.8,410.5 m 263.5,-4.3 7.6,107.7 m 323.5,12.2 -117,66.4"
       id="plisV_001"
       stroke="#008000"
       stroke-dasharray="4, 1, 1, 1"
       style="stroke-width:1.26936" />
    <path
       d="m 106.7,315.9 4,4 m 0,-4 -4,4 m 72.4,-44.8 4,4 m 0,-4 -4,4 m 76.1,101.4 4,4 m 0,-4 -4,4 m -127.8,75.7 4,4 m 0,-4 -4,4 m 215.7,-6.2 4,4 m 0,-4 -4,4 m 268.8,95.3 4,4 m 0,-4 -4,4"
       id="marqueV_001"
       stroke="#008000"
       style="stroke-width:1.26936" />
    <path
       d="m 282.9,381.5 1.5,-0.7 2.3,-2.3 v 15.8"
       id="titre_1"
       stroke="#4b0082"
       style="stroke-width:1.26936" />
  </g>
  <g
     id="page_002">
    <path
       d="m 1110.9,256 -3.3,-0.7 2.2,-2 -0.8,-0.2 -0.6,-0.4 -0.2,-0.3 -0.1,-1 0.1,-0.6 0.5,-0.8 0.7,-0.4 0.9,-0.2 0.9,0.2 0.8,0.5 0.2,0.3 0.2,0.7 m -6.8,3.8 -3.2,-0.6 2.2,-2 -0.9,-0.2 -0.5,-0.4 -0.2,-0.3 -0.2,-1 0.2,-0.6 0.4,-0.8 0.7,-0.5 1,-0.1 0.8,0.2 0.9,0.4 0.2,0.4 0.2,0.6 m -89.9,216.1 0.9,-3.2 1.9,2.4 0.2,-0.9 0.4,-0.5 0.4,-0.2 1,-0.1 0.5,0.2 0.8,0.5 0.4,0.8 0.1,0.9 -0.2,0.9 -0.6,0.8 -0.3,0.2 -0.7,0.1 m -3,-8.2 v 0.9 l 0.7,0.8 1.4,0.7 0.9,0.3 1.5,0.1 1,-0.4 0.6,-0.8 0.1,-0.5 v -1 l -0.7,-0.8 -1.4,-0.7 -0.9,-0.2 -1.5,-0.1 -1,0.3 -0.6,0.8 -0.1,0.4 m -71.3,18.4 -1.8,2.8 -1,-2.8 -0.5,0.7 -0.6,0.4 -0.4,0.1 -0.9,-0.3 -0.5,-0.3 -0.6,-0.7 -0.2,-0.9 0.2,-0.9 0.5,-0.7 0.8,-0.6 0.4,-0.1 h 0.6 m 0.3,6.5 -0.1,0.6 0.3,1.3 -5.3,-3.4 m 69.1,-193 -2.5,2.1 -0.2,-3 -0.7,0.6 -0.6,0.2 -0.4,-0.1 -0.8,-0.5 -0.4,-0.4 -0.4,-0.9 0.1,-0.8 0.5,-0.9 0.7,-0.5 0.9,-0.4 h 0.4 l 0.6,0.3 m -4.1,9 0.6,0.3 0.9,-0.4 0.4,-0.4 0.5,-0.8 -0.1,-1.1 -0.7,-1.3 -1,-1.1 -1,-0.8 h -0.9 l -0.8,0.3 -0.3,0.2 -0.5,0.8 v 0.9 l 0.3,0.8 0.2,0.3 0.8,0.5 h 0.9 l 0.9,-0.3 0.2,-0.2 0.5,-0.8 v -0.9 l -0.3,-0.8 m -102,104 -2.2,2.4 -0.6,-3 -0.6,0.7 -0.6,0.3 h -0.4 l -0.9,-0.4 -0.4,-0.4 -0.5,-0.9 v -0.8 l 0.4,-0.9 0.6,-0.6 0.8,-0.5 h 0.4 l 0.7,0.2 m -2.6,10.4 -2.6,-6.5 m 5.4,3.4 -2.8,3.1 m 146.5,93.3 2.5,-2.2 0.3,2.9 0.6,-0.6 0.7,-0.1 h 0.4 l 0.8,0.4 0.4,0.5 0.4,0.8 v 0.9 l -0.5,0.8 -0.6,0.6 -0.9,0.4 h -0.4 l -0.7,-0.2 m 1.9,-6.7 -0.2,-0.2 -0.2,-0.6 0.1,-0.5 0.2,-0.6 0.9,-0.8 0.6,-0.2 h 0.5 l 0.6,0.3 0.4,0.4 0.2,0.7 0.1,1 -0.1,4.3 3.1,-2.9 m -16.4,-27.3 -0.9,3.2 -1.8,-2.4 -0.3,0.8 -0.4,0.5 -0.4,0.2 -0.9,0.1 -0.6,-0.2 -0.8,-0.5 -0.4,-0.8 v -0.9 l 0.2,-0.9 0.5,-0.8 0.4,-0.2 0.7,-0.1 m 2.9,8.3 v -1 l -0.7,-0.8 -1.4,-0.7 -0.9,-0.2 -1.5,-0.2 -1,0.4 -0.5,0.8 -0.2,0.5 v 1 l 0.7,0.8 1.4,0.7 0.9,0.3 1.5,0.1 1,-0.4 0.6,-0.7 0.1,-0.5 m 81.8,-50.9 2.3,-2.4 0.5,2.9 0.6,-0.7 0.6,-0.2 h 0.5 l 0.8,0.4 0.5,0.4 0.4,0.8 0.1,0.8 -0.4,0.9 -0.6,0.7 -0.9,0.4 -0.4,0.1 -0.6,-0.2 m 0.9,-8.5 -0.4,0.8 0.2,0.7 0.4,0.4 0.7,0.2 0.6,-0.3 1,-0.7 0.9,-0.4 0.8,-0.1 0.7,0.2 0.6,0.6 0.3,0.7 v 0.4 l -0.4,0.8 -0.8,0.9 -0.8,0.5 h -0.5 l -0.6,-0.2 -0.7,-0.6 -0.2,-0.6 v -0.9 l 0.3,-0.8 0.6,-1.1 0.2,-0.7 -0.2,-0.6 -0.5,-0.4 -0.6,-0.2 -0.8,0.5 -1,1 m 76.7,-40.7 -2.5,4.5 4.4,-0.5 m -1.9,-4 0.7,6.3 m 5,-6.9 -2.5,4.5 4.5,-0.5 m -2,-4 0.7,6.2 m 12.5,-170.4 -2.1,2.6 -0.7,-3 -0.5,0.7 -0.7,0.3 h -0.4 l -0.9,-0.3 -0.4,-0.4 -0.5,-0.8 -0.1,-0.9 0.4,-0.9 0.6,-0.6 0.8,-0.5 0.4,-0.1 0.6,0.2 m -1.5,9.8 -1.3,-5 -2.9,3.4 m 4.2,1.6 -4.8,-4.1 m 142.9,135.2 v 0.3 l -0.4,0.6 -0.4,0.2 -0.6,0.2 -1.2,-0.2 -0.5,-0.4 -0.3,-0.4 -0.2,-0.6 0.1,-0.6 0.4,-0.6 0.8,-0.7 3.5,-2.4 -4.1,-0.8 m -5.8,3.2 0.5,-0.8 0.7,-0.5 0.9,-0.1 h 0.3 l 0.9,0.5 0.4,0.7 0.2,0.9 -0.1,0.3 -0.4,0.8 -0.7,0.5 -1,0.1 h -0.3 l -0.8,-0.5 -0.5,-0.7 -0.1,-1.2 0.3,-1.5 0.6,-1.4 0.7,-0.8 1,-0.1 0.6,0.1 0.8,0.5 0.2,0.6 m -2.9,-14.5 0.1,-0.3 0.3,-0.6 0.3,-0.3 0.7,-0.3 1.1,0.1 0.6,0.4 0.3,0.3 0.3,0.6 -0.1,0.6 -0.3,0.6 -0.7,0.8 -3.2,2.8 4.2,0.3 m 5.3,-3.8 -0.3,0.9 -0.7,0.5 -0.9,0.3 -0.3,-0.1 -0.9,-0.3 -0.5,-0.7 -0.3,-0.9 0.1,-0.3 0.3,-0.9 0.7,-0.5 0.9,-0.3 0.3,0.1 0.9,0.3 0.5,0.7 0.2,1.2 -0.1,1.5 -0.4,1.5 -0.6,0.8 -1,0.3 -0.6,-0.1 -0.8,-0.4 -0.3,-0.6 m 51.7,179.8 3.3,-0.5 -1.4,2.6 0.9,-0.1 0.6,0.2 0.4,0.2 0.4,0.9 0.1,0.6 -0.1,0.9 -0.5,0.7 -0.8,0.4 -0.9,0.2 -0.9,-0.2 -0.4,-0.2 -0.4,-0.5 m 8.6,-4.6 -0.1,1 -0.5,0.7 -0.9,0.4 -0.3,0.1 -0.9,-0.2 -0.7,-0.5 -0.4,-0.8 -0.1,-0.3 0.2,-0.9 0.4,-0.7 0.9,-0.5 h 0.3 l 0.9,0.1 0.7,0.5 0.5,1.1 0.3,1.5 -0.1,1.5 -0.4,1 -0.8,0.5 -0.6,0.1 -1,-0.2 -0.4,-0.5 m 28.5,-161.7 2.9,-4.3 -4.5,0.1 m 1.6,4.2 -0.1,-6.3 m -4.3,6.3 0.9,-0.3 0.6,-0.9 0.2,-1.5 v -0.9 l -0.3,-1.5 -0.6,-0.9 -1,-0.3 -0.6,0.1 -0.8,0.3 -0.6,0.9 -0.3,1.5 v 0.9 l 0.4,1.5 0.6,0.9 0.9,0.3 0.4,-0.1 m 31.5,74.6 4,3.2 0.2,-4.5 m -4.2,1.3 6.2,0.3 m -4.6,-2.8 -0.3,-0.6 -0.8,-1 6.3,0.4 m -0.3,-242.8 4.5,-2.6 -4.1,-1.8 m -0.4,4.4 2.6,-5.7 m -8.7,2.9 5.3,-4.5 m -1.4,6.2 -3.9,-1.7 m 37.4,90.2 2.5,4.5 2,-4 m -4.5,-0.5 5.7,2.7 m -2.9,-4.9 -0.3,-0.1 -0.4,-0.5 -0.1,-0.4 v -0.7 l 0.5,-1.1 0.5,-0.4 0.4,-0.1 h 0.7 l 0.5,0.2 0.4,0.6 0.6,0.9 1.4,4 1.8,-3.8 m -77.5,62.8 -2.9,4.2 h 4.5 m -1.6,-4.2 0.1,6.3 m 4.4,-6.3 -0.9,0.4 -0.6,0.9 -0.3,1.5 v 0.9 l 0.3,1.5 0.6,0.9 0.9,0.2 h 0.6 l 0.9,-0.3 0.6,-0.9 0.3,-1.5 v -0.9 l -0.3,-1.5 -0.6,-0.9 -0.9,-0.3 h -0.5 m -101.9,263.1 0.3,-3.3 2.2,2 0.1,-0.8 0.3,-0.6 0.4,-0.3 0.9,-0.2 0.6,0.1 0.9,0.3 0.5,0.7 0.2,0.9 -0.1,0.9 -0.3,0.9 -0.4,0.3 -0.6,0.2 m -2.1,-9.5 0.9,0.4 0.5,0.6 0.2,1 v 0.3 l -0.4,0.8 -0.7,0.6 -0.9,0.2 h -0.3 l -0.8,-0.4 -0.6,-0.7 -0.2,-0.9 v -0.3 l 0.4,-0.9 0.7,-0.5 1.2,-0.2 1.5,0.1 1.4,0.5 0.9,0.7 0.2,0.9 -0.1,0.6 -0.3,0.9 -0.7,0.2 m -38.8,52.6 -2.9,4.3 4.5,-0.1 m -1.6,-4.2 0.2,6.3 m 3.9,-6.3 -0.9,0.3 -0.2,0.6 v 0.6 l 0.3,0.6 0.6,0.3 1.2,0.2 0.9,0.3 0.6,0.6 0.3,0.6 0.1,0.9 -0.3,0.6 -0.3,0.3 -0.9,0.3 -1.2,0.1 -0.9,-0.3 -0.3,-0.3 -0.3,-0.6 -0.1,-0.9 0.3,-0.6 0.6,-0.6 0.9,-0.3 1.2,-0.4 0.6,-0.3 0.3,-0.6 v -0.6 l -0.4,-0.6 -0.9,-0.3 -1.3,0.1 M 859.5,463 l -5.2,0.1 2.7,3.6 m 2.5,-3.7 -5.1,3.7 m 7.2,2.9 -0.9,0.3 -0.9,-0.1 -0.7,-0.6 -0.2,-0.2 -0.3,-0.9 0.1,-0.9 0.6,-0.7 0.2,-0.2 0.9,-0.3 0.9,0.1 0.8,0.6 0.1,0.2 0.3,0.9 -0.1,0.9 -0.8,0.9 -1.2,0.9 -1.4,0.6 -1.1,0.1 -0.8,-0.6 -0.3,-0.5 -0.3,-0.9 0.3,-0.6 m 55.7,-12.7 2.8,-1.8 -0.2,3 0.8,-0.5 0.6,-0.1 0.4,0.1 0.8,0.6 0.3,0.5 0.3,0.9 -0.2,0.8 -0.6,0.8 -0.7,0.5 -0.9,0.2 -0.5,-0.1 -0.5,-0.3 m 2.3,-6 0.3,-0.6 0.3,-1.2 3.5,5.2 m 291.9,23.1 -1.1,-2.8 -2.6,0.7 0.4,0.2 0.6,0.7 0.3,0.9 v 0.9 l -0.3,0.8 -0.7,0.6 -0.6,0.2 h -1 l -0.7,-0.3 -0.6,-0.8 -0.3,-0.8 -0.1,-1 0.2,-0.3 0.5,-0.5 m 5.4,4.2 0.3,-0.1 0.6,0.1 0.4,0.1 0.5,0.5 0.4,1.1 v 0.7 l -0.2,0.4 -0.5,0.5 -0.5,0.2 -0.7,-0.1 -1.1,-0.2 -3.8,-1.8 1.5,3.9 m 9,-85.7 2.4,-1.8 -1.3,-2.4 -0.1,0.4 -0.5,0.8 -0.8,0.6 -0.9,0.3 -0.8,-0.2 -0.8,-0.5 -0.3,-0.5 -0.3,-0.9 0.1,-0.8 0.5,-0.8 0.7,-0.5 0.9,-0.3 h 0.5 l 0.6,0.3 m -1.7,7.7 -2.7,1.9 v -3 l -0.7,0.6 -0.7,0.1 -0.4,-0.1 -0.8,-0.5 -0.3,-0.5 -0.3,-0.9 0.1,-0.8 0.5,-0.8 0.8,-0.5 0.9,-0.3 h 0.4 l 0.6,0.3 m -316.7,153.7 -1.7,-4.9 -2.6,3.7 m 4.3,1.2 -5.1,-3.7 m -0.5,7.7 -0.6,-0.7 -0.1,-0.9 0.3,-0.9 0.1,-0.2 0.8,-0.6 0.9,-0.1 0.9,0.3 0.2,0.2 0.6,0.7 0.1,0.9 -0.3,0.9 -0.2,0.2 -0.7,0.6 -0.9,0.1 -1.1,-0.5 -1.2,-0.8 -1.1,-1.2 -0.4,-1 0.3,-0.9 0.4,-0.5 0.7,-0.5 0.7,0.1 m -34.3,82 1.1,-2.8 -2.4,-1.3 0.2,0.4 -0.1,1 -0.3,0.8 -0.6,0.7 -0.8,0.3 h -0.9 l -0.6,-0.2 -0.7,-0.6 -0.4,-0.8 0.1,-1 0.3,-0.8 0.6,-0.7 0.4,-0.2 0.7,-0.1 m 1.4,10.2 1.1,-2.8 -2.4,-1.2 0.2,0.4 v 0.9 l -0.4,0.8 -0.6,0.8 -0.8,0.3 -0.9,-0.1 -0.6,-0.2 -0.7,-0.6 -0.3,-0.8 v -0.9 l 0.4,-0.8 0.6,-0.8 0.4,-0.1 0.6,-0.1 m -1.7,74.3 0.3,-0.6 -0.4,-0.9 -0.4,-0.4 -0.8,-0.5 -1.1,0.2 -1.3,0.7 -1.2,1 -0.6,1.1 -0.1,0.8 0.4,0.9 0.2,0.2 0.8,0.5 h 0.9 l 0.8,-0.4 0.3,-0.2 0.4,-0.8 0.1,-0.8 -0.4,-0.9 -0.2,-0.2 -0.8,-0.5 h -0.9 l -0.9,0.3 m 5.8,2.4 0.2,-0.2 0.6,-0.2 h 0.5 l 0.6,0.3 0.8,0.9 0.2,0.6 -0.1,0.4 -0.2,0.7 -0.4,0.4 -0.7,0.1 -1.1,0.2 -4.2,-0.2 2.8,3.1 m 85.1,-10.4 3.3,4 1.2,-4.4 m -4.5,0.4 6.1,1.6 m -5.2,-4.7 0.9,-3.2 1.9,2.3 0.2,-0.8 0.4,-0.5 0.4,-0.2 1,-0.1 0.5,0.2 0.8,0.5 0.4,0.7 0.1,1 -0.2,0.9 -0.6,0.7 -0.3,0.3 -0.7,0.1 m -42.1,36.4 -0.1,-0.6 -0.7,-0.6 -0.6,-0.2 -0.9,-0.1 -0.9,0.7 -0.8,1.3 -0.5,1.4 -0.1,1.2 0.3,0.8 0.8,0.6 0.2,0.1 h 1 l 0.8,-0.3 0.6,-0.8 0.1,-0.3 v -0.9 l -0.4,-0.8 -0.7,-0.6 -0.3,-0.1 h -0.9 l -0.8,0.4 -0.6,0.7 m 5.6,-0.9 0.7,-0.1 1.1,-0.5 -2.1,5.9 m 458,-661.2 -1.6,-2.8 3,0.4 -0.5,-0.8 v -0.7 l 0.1,-0.4 0.7,-0.7 0.5,-0.3 0.9,-0.2 0.8,0.3 0.7,0.6 0.5,0.8 0.1,0.9 -0.1,0.4 -0.4,0.6 m -8.7,-5.3 1.4,2.6 2.5,-1.1 -0.4,-0.1 -0.7,-0.6 -0.4,-0.8 -0.2,-0.9 0.2,-0.9 0.7,-0.7 0.5,-0.3 0.9,-0.1 0.8,0.2 0.7,0.7 0.5,0.7 0.2,1 -0.2,0.4 -0.3,0.5 m -123.1,-38.1 2.9,-0.5 -0.1,-2.7 -0.3,0.3 -0.8,0.5 -0.9,0.1 -0.9,-0.1 -0.7,-0.5 -0.5,-0.9 -0.1,-0.6 0.2,-0.9 0.5,-0.7 0.8,-0.4 0.9,-0.2 0.9,0.2 0.4,0.2 0.4,0.5 m -6.2,6.3 0.8,-0.5 0.5,-1 v -1.5 l -0.1,-0.9 -0.6,-1.4 -0.7,-0.8 -1,-0.1 -0.6,0.1 -0.8,0.4 -0.4,1 -0.1,1.5 0.2,0.9 0.5,1.4 0.8,0.8 0.9,0.2 0.4,-0.1 m -43.7,152 2.5,-2.1 0.2,3 0.7,-0.6 0.7,-0.2 h 0.4 l 0.8,0.5 0.4,0.5 0.4,0.9 -0.1,0.8 -0.5,0.8 -0.7,0.6 -0.8,0.4 -0.5,-0.1 -0.6,-0.2 m 3.1,-9.5 0.4,5.2 3.4,-3 m -3.8,-2.2 4.1,4.8 m -146.5,-114.8 -4.9,-1.7 1.3,4.3 m 3.6,-2.6 -6.1,1.7 m 7.8,4.3 -0.9,-2.9 -2.7,0.5 0.4,0.2 0.6,0.7 0.2,0.9 V 86 l -0.4,0.8 -0.8,0.5 -0.6,0.2 h -0.9 l -0.8,-0.4 -0.5,-0.8 -0.3,-0.9 0.1,-0.9 0.2,-0.4 0.5,-0.5 m 41.3,-23.8 2.9,-4.2 -4.5,0.1 m 1.6,4.1 -0.1,-6.3 m -6.2,5.5 0.3,0.6 1,0.3 h 0.6 l 0.8,-0.4 0.6,-0.9 0.3,-1.5 v -1.5 l -0.4,-1.2 -0.6,-0.6 -0.9,-0.2 h -0.3 l -0.9,0.3 -0.6,0.6 -0.2,0.9 v 0.3 l 0.3,0.9 0.6,0.6 0.9,0.3 h 0.3 l 0.9,-0.4 0.6,-0.6 0.3,-0.9 m 2.9,168.7 3.2,0.6 -2.2,2 0.9,0.2 0.5,0.4 0.3,0.3 0.1,0.9 -0.1,0.6 -0.4,0.9 -0.7,0.5 -1,0.1 -0.8,-0.2 -0.9,-0.4 -0.2,-0.4 -0.2,-0.6 m 6.7,-4 3.3,0.6 -2.2,2 0.9,0.2 0.5,0.4 0.2,0.3 0.2,1 -0.1,0.6 -0.5,0.8 -0.7,0.5 -0.9,0.1 -0.9,-0.1 -0.8,-0.5 -0.3,-0.3 -0.2,-0.7 m -75,-112.7 v 0.3 l -0.4,0.5 -0.4,0.3 -0.6,0.2 -1.2,-0.2 -0.5,-0.4 -0.3,-0.4 -0.2,-0.6 0.1,-0.6 0.4,-0.5 0.7,-0.8 3.5,-2.5 -4.2,-0.7 m -6.1,5.4 3.9,-5.7 m 0.2,6.4 -4.1,-0.7 m 1.4,38.8 0.3,-0.2 h 0.6 l 0.4,0.1 0.6,0.4 0.6,1.1 v 0.7 l -0.1,0.4 -0.4,0.5 -0.6,0.3 h -0.6 l -1.1,-0.1 -4.1,-1.2 2,3.7 m 6.8,-0.7 -0.7,-0.6 h -0.6 l -0.6,0.3 -0.4,0.5 0.1,0.7 0.3,1.2 0.1,1 -0.2,0.8 -0.4,0.5 -0.8,0.4 -0.7,0.1 -0.4,-0.2 -0.7,-0.6 -0.5,-1.1 -0.2,-0.9 0.1,-0.4 0.4,-0.6 0.8,-0.4 h 0.7 l 0.8,0.2 0.7,0.7 0.8,0.9 0.6,0.4 h 0.6 l 0.6,-0.3 0.4,-0.6 -0.2,-0.9 -0.6,-1.2 m -4.9,473.8 -2.3,4.7 4.5,-0.8 m -2.2,-3.9 1,6.2 m 2.2,-6.6 3.2,-0.6 -1.3,2.7 0.8,-0.2 0.7,0.2 0.3,0.3 0.5,0.8 0.1,0.6 -0.2,0.9 -0.5,0.7 -0.8,0.5 -0.9,0.1 -0.9,-0.1 -0.4,-0.3 -0.4,-0.5 m 20.4,-47.9 -1.8,-2.8 3,0.3 -0.5,-0.8 v -0.7 l 0.1,-0.4 0.6,-0.7 0.5,-0.3 0.9,-0.2 0.8,0.2 0.8,0.6 0.4,0.7 0.3,0.9 -0.1,0.5 -0.4,0.5 m -6.1,-3 -0.3,0.1 -0.7,0.1 -0.4,-0.1 -0.6,-0.4 -0.6,-1 -0.1,-0.6 0.1,-0.5 0.4,-0.5 0.5,-0.4 h 0.7 1.1 l 4.1,1 -2.2,-3.6 m 143.8,14.1 2.5,-1.6 -1.2,-2.4 -0.1,0.4 -0.6,0.7 -0.7,0.5 -0.9,0.3 -0.9,-0.2 -0.7,-0.6 -0.4,-0.5 -0.2,-0.9 0.2,-0.8 0.6,-0.8 0.7,-0.5 0.9,-0.2 0.4,0.1 0.6,0.3 m -2.9,6.2 0.2,0.3 0.1,0.6 -0.1,0.5 -0.4,0.5 -1,0.7 -0.6,0.1 -0.5,-0.1 -0.5,-0.3 -0.4,-0.5 v -0.7 -1.1 l 0.8,-4.1 -3.5,2.3 m -39.9,85.3 -0.5,-3 -2.7,0.1 0.4,0.2 0.4,0.9 0.1,0.9 -0.2,0.9 -0.5,0.7 -0.8,0.4 -0.6,0.1 -1,-0.2 -0.6,-0.5 -0.5,-0.8 -0.1,-0.9 0.2,-1 0.3,-0.3 0.5,-0.4 m 6.3,7.7 -4.6,-2.4 0.6,4.5 m 4,-2.1 -6.3,0.9 m 147.9,-0.8 5,1.3 -1.6,-4.2 m -3.4,2.9 5.9,-2.3 m -7.3,-1.6 0.6,0.8 h 0.6 l 0.6,-0.2 0.5,-0.5 v -0.7 l -0.1,-1.2 -0.1,-0.9 0.3,-0.8 0.5,-0.5 0.8,-0.3 h 0.7 l 0.4,0.2 0.6,0.7 0.4,1.1 0.1,1 -0.2,0.4 -0.4,0.5 -0.9,0.3 -0.6,-0.1 -0.8,-0.3 -0.6,-0.7 -0.7,-1 -0.5,-0.5 h -0.7 l -0.6,0.2 -0.4,0.5 v 0.9 l 0.5,1.3 m -64.3,34.8 -2.3,4.7 4.5,-0.8 m -2.2,-3.9 1,6.3 m 1.8,-5.2 0.5,-0.4 0.8,-1.1 1,6.3"
       id="nums_002"
       stroke="#000000"
       style="stroke-width:1.01549;stroke-dasharray:none" />
    <path
       d="m 1161.3,257.4 88.3,-104 -103.2,89.3 -107.1,-19 -64.5,-120.1 79.8,12.6 -18.8,-63.6 102.3,-2.1 190.4,-32.2 67.3,121.5 140.8,62.9 -63.2,131.8 -86.2,0.4 -84.5,-6 83.3,15.5 86.1,-2 -10.2,163.7 -117.3,20.4 -11.2,118.5 -66.6,1.7 24.3,62.1 -161.8,26.5 -14.9,-108.3 116,-76.4 -48.6,-130.1 61,-45.7 -87,10 -62.9,68.7 -86.8,79.6 39.6,-138.9 -38.3,139.2 62.2,99.9 -111.1,18.8 -30,108.7 -62.8,-23 -40.6,-45.2 47.1,-118.2 33.9,-46.7 64.6,-100.5 -99.5,66.1 -33.9,-46.7 106.7,-116.4 110.6,-93.6 z"
       id="coupes_002"
       stroke="#ff0000"
       style="stroke-width:1.26936"
       sodipodi:nodetypes="cccccccccccccccccccccccccccccccccccccccccccc" />
    <path
       d="m 1045.7,394.2 8.9,-157.6 m 106.7,20.8 -115.6,136.8 m -75,33 83.9,-190.6 m -8.9,157.6 -75,33 m 36.7,106.2 -36.7,-106.2 m 36.7,106.2 -101.3,-5.7 m 101.3,5.7 -48.9,118.7 m 0,0 -52.4,-124.4 m 64.6,-100.5 -26.7,-97 m 217.3,-72.8 -68.4,196.1 m 68.4,-196.1 81.5,117.4 m 59.9,-45.9 -59.9,45.9 m 6.8,-221.4 53.1,175.5 m 41.9,197.6 -101.8,-151.7 m 59.9,-45.9 41.9,197.6 m 0,0 -114.2,24.1 m 0,0 12.4,-175.8 m 143.2,-30.4 -41.4,182.1 m -95,-373.1 146.2,-13.6 m 0,0 -93.1,189.1 m 93.1,-189.1 -8.6,195.1 m -1.2,9.5 75.9,161.7 m 74.7,-303.4 -149.4,132.2 m -53.8,310.1 -103,-94.4 m 36.4,96.1 -36.4,-96.1 M 958.5,652.1 872.2,574.4 m 86.3,77.7 -133.4,40.5 m 133.4,-40.5 -92.8,85.7 M 1249.6,153.4 1328.5,18.3 M 1249.6,153.4 1138.1,50.5 m -83.5,65.7 83.5,-65.7 m 111.5,102.9 -195,-37.2 M 1266.8,646.7 1114.4,627 m 152.4,19.7 -137.5,88.6"
       id="plisM_002"
       stroke="#a52a2a"
       stroke-dasharray="4" />
    <path
       d="m 970.7,427.2 -133.4,19.4 m 255.6,6.9 -47.2,-59.3 m 115.6,-136.8 -5.5,127.4 m 93.8,-231.4 -6.8,221.4 m -96.4,-132.1 -91.8,-126.5 m -15.3,107.5 15.3,-107.5"
       id="plisV_002"
       stroke="#008000"
       stroke-dasharray="4, 1, 1, 1"
       style="stroke-width:1.26936" />
    <path
       d="m 902,434.9 4,4 m 0,-4 -4,4 m 165.3,-17 4,4 m 0,-4 -4,4 m 89.2,-106.8 4,4 m 0,-4 -4,4 m 87.7,-61 4,4 m 0,-4 -4,4 m -145.7,-88.7 4,4 m 0,-4 -4,4 M 1045,168 l 4,4 m 0,-4 -4,4"
       id="marqueV_002"
       stroke="#008000"
       style="stroke-width:1.26936" />
    <path
       d="m 1132.1,356.6 v -0.7 l 0.7,-1.5 0.8,-0.8 1.5,-0.7 h 3 l 1.5,0.7 0.7,0.8 0.8,1.5 v 1.5 l -0.8,1.5 -1.5,2.2 -7.5,7.5 h 10.5"
       id="titre_2"
       stroke="#4b0082"
       style="stroke-width:1.26936" />
  </g>
  <g
     id="page_003">
    <path
       d="m 1993.2,352.8 1.9,-2.3 -1.9,-1.9 v 0.4 l -0.3,0.9 -0.6,0.7 -0.8,0.5 -0.8,0.1 -0.9,-0.3 -0.5,-0.4 -0.5,-0.8 -0.1,-0.8 0.3,-0.9 0.6,-0.7 0.8,-0.5 0.4,-0.1 0.6,0.2 m -3.3,9.1 -0.5,-0.8 -0.1,-0.9 0.3,-0.8 0.2,-0.3 0.8,-0.5 0.8,-0.1 0.9,0.3 0.2,0.2 0.6,0.8 0.1,0.8 -0.3,0.9 -0.2,0.3 -0.8,0.5 -0.9,0.1 -1.1,-0.5 -1.2,-0.9 -1,-1.2 -0.3,-1 0.3,-0.9 0.4,-0.5 0.8,-0.5 0.6,0.1 m 64.7,-97.3 0.7,-2.9 -2.5,-1 0.2,0.4 0.1,0.9 -0.3,0.9 -0.5,0.8 -0.7,0.4 -1,0.1 -0.5,-0.2 -0.8,-0.5 -0.5,-0.7 v -1 l 0.2,-0.8 0.5,-0.8 0.4,-0.2 0.6,-0.2 m 2.6,10.4 -5.3,-4.5 m 6.4,0.4 -1.1,4.1 m 44.7,26.1 -2.2,-2.5 3,-0.2 -0.5,-0.6 -0.2,-0.7 v -0.4 l 0.5,-0.8 0.5,-0.4 0.9,-0.4 0.8,0.1 0.8,0.5 0.6,0.7 0.4,0.9 -0.1,0.4 -0.2,0.6 m -9,-4.1 -0.3,0.6 0.4,0.9 0.4,0.4 0.8,0.5 1,-0.1 1.4,-0.7 1.1,-1 0.8,-1 v -0.9 l -0.3,-0.8 -0.2,-0.3 -0.8,-0.5 h -0.9 l -0.9,0.3 -0.2,0.2 -0.5,0.8 -0.1,0.9 0.4,0.8 0.2,0.3 0.8,0.5 h 0.8 l 0.9,-0.3 m 119.4,5.9 -2.5,2.1 -0.2,-3 -0.7,0.6 -0.6,0.1 h -0.4 l -0.8,-0.5 -0.4,-0.5 -0.4,-0.9 0.1,-0.8 0.5,-0.8 0.7,-0.6 0.9,-0.3 h 0.4 l 0.6,0.3 m -3.9,9.9 -1.8,-6.7 m 5,4 -3.2,2.7 m 27.6,-1.6 -1.1,2.8 2.4,1.3 -0.1,-0.4 v -0.9 l 0.3,-0.9 0.6,-0.7 0.8,-0.4 0.9,0.1 0.6,0.2 0.7,0.6 0.4,0.8 -0.1,0.9 -0.3,0.9 -0.6,0.7 -0.4,0.2 h -0.6 m -1.6,-10.1 -1.1,2.8 2.4,1.2 -0.1,-0.4 v -0.9 l 0.3,-0.9 0.6,-0.7 0.8,-0.3 h 1 l 0.5,0.2 0.8,0.6 0.3,0.8 v 0.9 l -0.4,0.9 -0.6,0.7 -0.4,0.2 -0.6,0.1 m -49.9,107.3 0.7,-0.1 1.1,-0.5 -2.1,5.9 m 5,-5.2 h -0.9 l -0.9,0.7 -0.8,1.3 -0.3,0.8 -0.2,1.6 0.3,1 0.7,0.6 0.6,0.2 h 0.9 l 0.9,-0.6 0.8,-1.4 0.3,-0.8 0.2,-1.5 -0.3,-1.1 -0.7,-0.6 -0.5,-0.1 m 67.2,-22.4 -0.6,0.3 -0.3,0.9 v 0.6 l 0.3,0.9 0.9,0.6 1.5,0.3 h 1.5 l 1.2,-0.3 0.6,-0.6 0.3,-0.9 V 376 l -0.3,-0.9 -0.6,-0.6 -1,-0.3 h -0.3 l -0.8,0.3 -0.6,0.6 -0.3,0.9 v 0.3 l 0.3,0.9 0.6,0.6 0.9,0.3 m -4.3,-5.6 v -3.3 l 2.4,1.8 v -0.9 l 0.3,-0.6 0.3,-0.3 0.9,-0.3 h 0.6 l 0.9,0.3 0.6,0.6 0.3,0.8 v 0.9 l -0.3,1 -0.3,0.3 -0.6,0.3 m -16.1,-36.1 0.6,0.3 0.9,-0.3 0.5,-0.4 0.5,-0.8 v -1 l -0.7,-1.4 -0.9,-1.2 -0.9,-0.8 -0.8,-0.1 -0.9,0.2 -0.3,0.2 -0.5,0.8 -0.2,0.8 0.3,0.9 0.2,0.3 0.8,0.5 0.8,0.2 0.9,-0.3 0.3,-0.2 0.5,-0.8 0.1,-0.8 -0.3,-0.9 m -2.8,5.4 0.1,0.3 0.2,0.6 -0.1,0.5 -0.3,0.6 -1,0.7 -0.6,0.1 -0.5,-0.1 -0.6,-0.3 -0.3,-0.5 -0.1,-0.6 -0.1,-1.1 0.7,-4.2 -3.4,2.5 m -130.7,95 0.4,0.9 1,0.5 1.5,0.1 0.9,-0.1 1.5,-0.5 0.8,-0.7 0.2,-0.9 -0.1,-0.6 -0.4,-0.9 -1,-0.5 -1.5,-0.1 -0.9,0.1 -1.5,0.5 -0.8,0.7 -0.2,0.9 0.1,0.5 m -46.1,103.9 0.5,-0.4 0.2,-0.9 V 533 l -0.4,-0.8 -0.9,-0.6 -1.6,-0.1 -1.4,0.1 -1.2,0.4 -0.6,0.7 -0.2,0.9 v 0.3 l 0.4,0.8 0.7,0.6 0.9,0.2 h 0.3 l 0.9,-0.4 0.5,-0.6 0.2,-1 v -0.3 l -0.4,-0.8 -0.6,-0.6 -0.9,-0.2 m 4.9,8.7 -6.5,-2.4 m 6.2,-1.8 0.3,4.2 m 98.8,-44.2 2.9,0.4 0.7,-2.6 -0.3,0.2 -1,0.2 -0.9,-0.1 -0.8,-0.4 -0.5,-0.7 -0.2,-1 0.1,-0.6 0.4,-0.8 0.7,-0.5 0.9,-0.2 0.9,0.2 0.9,0.4 0.2,0.3 0.3,0.7 m -79.4,132.2 3.3,-0.1 -1.8,2.4 h 0.9 l 0.6,0.3 0.3,0.3 0.3,0.9 v 0.6 l -0.3,0.9 -0.6,0.6 -0.9,0.3 -0.9,0.1 -0.9,-0.3 -0.3,-0.3 -0.3,-0.6 m 139.8,-102.4 -0.2,0.6 0.4,0.9 0.4,0.4 0.8,0.5 1.1,-0.2 1.3,-0.8 1.1,-1 0.7,-1 V 525 l -0.4,-0.9 -0.2,-0.2 -0.8,-0.4 -0.9,-0.1 -0.8,0.4 -0.3,0.2 -0.4,0.9 v 0.8 l 0.4,0.9 0.2,0.2 0.8,0.5 h 0.8 l 0.9,-0.4 m -7.5,-1.9 0.8,0.4 0.6,-0.2 0.5,-0.4 0.2,-0.6 -0.2,-0.6 -0.6,-1.1 -0.4,-0.9 0.1,-0.8 0.2,-0.7 0.6,-0.6 0.7,-0.2 h 0.4 l 0.8,0.5 0.9,0.9 0.4,0.8 -0.1,0.5 -0.2,0.6 -0.6,0.6 -0.7,0.2 h -0.8 l -0.9,-0.5 -1,-0.7 -0.6,-0.2 -0.7,0.2 -0.4,0.4 -0.3,0.6 0.4,0.9 1,1 m -100.1,130.4 0.1,3.3 -2.4,-1.7 v 0.9 l -0.3,0.6 -0.3,0.3 -0.9,0.3 h -0.6 l -0.9,-0.2 -0.6,-0.6 -0.3,-0.9 v -0.9 l 0.2,-0.9 0.3,-0.3 0.6,-0.3 m 83.7,-10.6 -0.5,-0.5 -0.9,0.1 -0.6,0.2 -0.7,0.6 -0.3,1 0.2,1.5 0.5,1.4 0.7,1.1 0.8,0.3 h 1 l 0.2,-0.1 0.8,-0.6 0.3,-0.8 v -0.9 l -0.1,-0.3 -0.6,-0.7 -0.7,-0.4 h -1 l -0.3,0.1 -0.7,0.6 -0.4,0.8 v 0.9 m 7.2,-7 -0.7,6.9 m -3.3,-5.5 4,-1.4 m 62.7,-54.5 -0.4,0.6 0.2,0.9 0.3,0.5 0.7,0.7 1.1,0.1 1.5,-0.5 1.3,-0.8 0.9,-0.8 0.2,-0.8 -0.2,-1 -0.1,-0.2 -0.7,-0.7 -0.9,-0.2 -0.9,0.2 -0.3,0.1 -0.6,0.7 -0.2,0.9 0.2,0.9 0.1,0.3 0.7,0.6 0.8,0.2 1,-0.2 m -7.2,-5.9 -0.3,0.6 0.1,0.9 0.3,0.6 0.7,0.6 1.1,0.1 1.5,-0.5 1.3,-0.8 0.9,-0.8 0.2,-0.8 -0.2,-1 -0.1,-0.2 -0.7,-0.7 -0.9,-0.2 -0.9,0.2 -0.2,0.2 -0.7,0.7 -0.2,0.8 0.2,0.9 0.1,0.3 0.7,0.6 0.8,0.2 1,-0.2 M 2042.7,484 l -0.6,0.2 -0.3,0.9 v 0.6 l 0.3,0.9 0.9,0.7 1.4,0.3 h 1.5 l 1.3,-0.2 0.6,-0.6 0.3,-0.9 v -0.3 l -0.3,-0.9 -0.6,-0.6 -0.9,-0.4 h -0.3 l -0.9,0.3 -0.6,0.6 -0.3,0.9 v 0.3 l 0.3,0.9 0.6,0.6 0.8,0.3 m -3,-8.7 -0.6,0.3 -0.4,0.9 v 0.6 l 0.3,0.9 0.9,0.6 1.5,0.4 h 1.5 l 1.2,-0.3 0.6,-0.6 0.3,-0.9 v -0.3 l -0.2,-0.9 -0.6,-0.6 -0.9,-0.3 h -0.3 l -0.9,0.3 -0.6,0.6 -0.4,0.8 v 0.3 l 0.3,1 0.6,0.6 0.9,0.3 m -244.7,-162.4 0.6,-0.2 0.5,-0.8 0.1,-0.6 -0.2,-0.9 -0.8,-0.8 -1.4,-0.5 -1.5,-0.3 -1.2,0.1 -0.7,0.5 -0.4,0.9 -0.1,0.2 0.2,1 0.4,0.7 0.9,0.4 0.3,0.1 0.9,-0.2 0.7,-0.5 0.5,-0.8 v -0.3 l -0.1,-0.9 -0.5,-0.7 -0.9,-0.5 m 3,7.5 -0.1,-0.9 -0.8,-0.8 -1.4,-0.5 -0.9,-0.2 -1.6,0.1 -0.9,0.4 -0.5,0.8 -0.1,0.6 0.2,1 0.7,0.7 1.5,0.6 0.9,0.1 h 1.5 l 1,-0.5 0.4,-0.8 0.1,-0.5 m 156.4,12.4 -1.1,2.8 2.3,1.3 -0.1,-0.4 v -0.9 l 0.4,-0.9 0.6,-0.7 0.8,-0.3 h 0.9 l 0.6,0.3 0.7,0.6 0.3,0.8 v 0.9 l -0.4,0.8 -0.6,0.8 -0.4,0.1 -0.6,0.1 m 0.7,-9.7 0.7,0.6 0.3,0.8 -0.1,0.9 -0.1,0.3 -0.6,0.7 -0.8,0.4 -0.9,-0.1 -0.3,-0.1 -0.7,-0.6 -0.3,-0.8 v -1 l 0.1,-0.2 0.6,-0.8 0.8,-0.3 1.3,0.2 1.3,0.5 1.3,0.9 0.6,0.9 v 0.9 l -0.3,0.6 -0.6,0.7 -0.6,0.1 M 1847,112.1 l -0.2,0.3 -0.6,0.3 -0.4,0.1 -0.6,-0.2 -1,-0.7 -0.3,-0.6 -0.1,-0.4 0.1,-0.6 0.4,-0.5 0.6,-0.3 1,-0.4 4.2,-0.7 -3.4,-2.4 m -7.9,2 6.1,-3.3 m -2.7,5.7 -3.4,-2.4 m -50.7,16.8 -2.3,-1.9 -2,1.8 h 0.4 l 0.9,0.3 0.7,0.6 0.5,0.8 v 0.9 l -0.3,0.9 -0.4,0.4 -0.8,0.5 -0.9,0.1 -0.9,-0.4 -0.6,-0.6 -0.5,-0.8 -0.1,-0.4 0.2,-0.7 m 9.5,2.7 0.2,-0.6 -0.5,-0.9 -0.4,-0.3 -0.9,-0.4 -1.1,0.3 -1.2,0.9 -1,1.1 -0.5,1.1 v 0.9 l 0.5,0.8 0.2,0.2 0.9,0.4 0.9,-0.1 0.8,-0.5 0.2,-0.2 0.3,-0.9 V 130 l -0.5,-0.8 -0.2,-0.2 -0.9,-0.4 -0.8,0.1 -0.9,0.4 m 2.8,-29.7 1.1,-5 -4.1,1.7 m 3,3.3 -2.4,-5.8 m -3.4,8.1 2.8,-1.1 -0.8,-2.6 -0.2,0.4 -0.7,0.6 -0.8,0.3 -0.9,0.1 -0.8,-0.3 -0.7,-0.7 -0.2,-0.6 -0.1,-0.9 0.4,-0.8 0.7,-0.6 0.8,-0.4 1,-0.1 0.4,0.2 0.5,0.4 m 203.7,135.6 v 3 l 2.7,0.4 -0.3,-0.3 -0.3,-0.9 v -0.9 l 0.3,-0.9 0.6,-0.6 0.9,-0.3 h 0.6 l 0.9,0.3 0.6,0.6 0.3,0.9 v 0.9 l -0.3,0.9 -0.3,0.3 -0.6,0.3 m -5,-9.5 6.3,3.1 m -6.4,1.1 0.1,-4.2 m -49.6,-54.9 -0.1,0.2 -0.6,0.4 -0.4,0.1 h -0.7 l -1,-0.7 -0.4,-0.5 -0.1,-0.4 0.1,-0.7 0.3,-0.5 0.5,-0.4 1,-0.5 4.1,-1 -3.6,-2.1 m -5.5,4 0.9,0.2 0.6,-0.3 0.3,-0.5 0.1,-0.7 -0.4,-0.6 -0.9,-0.8 -0.6,-0.8 -0.2,-0.8 v -0.6 l 0.5,-0.8 0.5,-0.4 0.4,-0.1 1,0.2 1,0.6 0.6,0.7 0.1,0.4 v 0.7 l -0.5,0.8 -0.5,0.3 -0.9,0.3 -0.9,-0.2 -1.2,-0.4 h -0.6 l -0.6,0.3 -0.3,0.6 v 0.6 l 0.6,0.7 1.1,0.7 m -154.8,6.5 2.9,-0.7 -0.3,-2.7 -0.2,0.4 -0.8,0.5 -0.9,0.1 -0.9,-0.1 -0.7,-0.4 -0.5,-0.8 -0.1,-0.6 0.1,-1 0.4,-0.7 0.8,-0.5 0.9,-0.1 1,0.1 0.3,0.2 0.4,0.5 m -7.8,6 0.4,0.5 0.9,0.1 0.6,-0.1 0.8,-0.5 0.4,-1 v -1.5 l -0.3,-1.5 -0.5,-1.1 -0.8,-0.5 -0.9,-0.1 -0.3,0.1 -0.8,0.5 -0.5,0.7 -0.1,0.9 0.1,0.3 0.5,0.8 0.7,0.5 0.9,0.1 0.3,-0.1 0.8,-0.4 0.5,-0.7 0.1,-1 m -61.4,101.6 -3,0.5 0.1,2.7 0.3,-0.4 0.8,-0.4 0.9,-0.1 1,0.1 0.6,0.6 0.5,0.8 v 0.6 l -0.1,0.9 -0.5,0.7 -0.9,0.4 -0.9,0.2 -0.9,-0.2 -0.3,-0.3 -0.4,-0.5 m 6,-6 -0.8,0.4 -0.2,0.6 0.1,0.6 0.3,0.6 0.7,0.2 1.2,0.1 0.9,0.2 0.7,0.5 0.4,0.5 0.1,0.9 -0.2,0.7 -0.2,0.3 -0.9,0.4 -1.2,0.2 -0.9,-0.2 -0.3,-0.2 -0.4,-0.6 -0.2,-0.9 0.3,-0.6 0.5,-0.7 0.8,-0.4 1.2,-0.5 0.5,-0.4 0.2,-0.6 -0.1,-0.6 -0.4,-0.5 -0.9,-0.2 -1.3,0.2 m 187.9,266.8 -0.6,0.4 -0.1,1 0.1,0.6 0.4,0.8 1,0.5 h 1.5 l 1.5,-0.2 1.1,-0.5 0.5,-0.6 0.2,-1 -0.1,-0.3 -0.4,-0.8 -0.7,-0.5 -0.9,-0.2 -0.3,0.1 -0.8,0.4 -0.6,0.7 -0.1,0.9 v 0.3 l 0.5,0.8 0.6,0.6 1,0.1 m -5.5,-7.9 0.5,3 2.7,-0.1 -0.3,-0.3 -0.5,-0.8 -0.1,-0.9 0.2,-1 0.5,-0.6 0.8,-0.5 0.6,-0.1 0.9,0.2 0.7,0.5 0.4,0.8 0.2,0.9 -0.2,1 -0.2,0.3 -0.6,0.4 m -28.8,-6 -5.1,0.6 3,3.3 m 2.1,-3.9 -4.7,4.2 m 62.7,-11.9 0.3,-0.6 -0.2,-0.9 -0.3,-0.5 -0.8,-0.6 h -1.1 l -1.4,0.5 -1.2,0.9 -0.9,0.9 -0.1,0.8 0.2,0.9 0.2,0.3 0.7,0.6 0.9,0.1 0.9,-0.2 0.2,-0.2 0.6,-0.7 0.2,-0.9 -0.3,-0.9 -0.1,-0.2 -0.8,-0.6 -0.8,-0.2 -0.9,0.3 m 8.2,4.9 -1.6,-2.5 -2.4,1.2 0.4,0.1 0.7,0.6 0.5,0.7 0.3,0.9 -0.2,0.9 -0.6,0.7 -0.5,0.3 -0.9,0.3 -0.8,-0.2 -0.8,-0.6 -0.5,-0.7 -0.2,-0.9 0.1,-0.4 0.3,-0.6 m 101.8,33.4 -0.7,0.2 -0.4,0.8 v 0.6 l 0.1,1 0.9,0.7 1.4,0.5 1.5,0.1 1.2,-0.1 0.7,-0.5 0.4,-0.9 v -0.3 l -0.1,-0.9 -0.6,-0.7 -0.8,-0.4 h -0.3 l -1,0.2 -0.6,0.5 -0.4,0.8 -0.1,0.3 0.2,1 0.6,0.6 0.8,0.4 m -3.4,-7 0.2,1 0.6,0.3 0.6,0.1 0.6,-0.2 0.4,-0.6 0.4,-1.1 0.4,-0.9 0.7,-0.5 0.6,-0.3 0.9,0.2 0.6,0.3 0.2,0.4 0.2,0.9 -0.1,1.2 -0.4,0.8 -0.4,0.3 -0.6,0.2 -0.9,-0.1 -0.5,-0.4 -0.6,-0.6 -0.2,-0.9 -0.1,-1.3 -0.2,-0.6 -0.6,-0.4 h -0.6 l -0.6,0.2 -0.4,0.8 -0.2,1.4 m -34.4,17.9 -0.9,0.1 -0.5,0.4 -0.2,0.6 0.1,0.7 0.5,0.4 1.1,0.7 0.8,0.5 0.4,0.8 0.1,0.6 -0.3,0.9 -0.5,0.5 -0.3,0.2 h -1 l -1.1,-0.3 -0.8,-0.6 -0.2,-0.4 -0.1,-0.6 0.3,-0.9 0.4,-0.5 0.8,-0.4 h 0.9 l 1.2,0.1 0.7,-0.2 0.5,-0.4 0.1,-0.6 -0.1,-0.7 -0.7,-0.5 -1.3,-0.4 m -245,-105.8 v -0.3 l 0.4,-0.5 0.3,-0.3 0.7,-0.2 1.2,0.1 0.5,0.4 0.3,0.3 0.2,0.7 -0.1,0.6 -0.3,0.5 -0.7,0.8 -3.4,2.6 4.2,0.6 m -110.5,-56.2 0.6,0.2 h 1.3 l -4.5,4.4 m 8,-1.2 -2.1,-2.1 -2.2,1.6 h 0.4 l 0.9,0.5 0.6,0.6 0.5,0.9 -0.1,0.8 -0.4,0.9 -0.4,0.4 -0.9,0.4 h -0.8 l -0.8,-0.4 -0.7,-0.7 -0.4,-0.8 v -0.4 l 0.2,-0.7 m 31.4,-87.3 2.3,-1.9 -1.4,-2.3 -0.1,0.4 -0.5,0.8 -0.7,0.6 -0.9,0.3 -0.8,-0.1 -0.8,-0.5 -0.4,-0.5 -0.3,-0.9 0.1,-0.8 0.5,-0.8 0.7,-0.6 0.9,-0.3 0.4,0.1 0.6,0.2 m -2.2,8.3 0.6,-0.8 -0.2,-0.6 -0.4,-0.5 -0.6,-0.3 -0.6,0.1 -1.1,0.6 -0.9,0.3 -0.9,-0.1 -0.6,-0.3 -0.5,-0.7 -0.2,-0.6 0.1,-0.5 0.5,-0.8 0.9,-0.7 0.9,-0.3 h 0.4 l 0.6,0.3 0.6,0.7 0.1,0.6 -0.1,0.9 -0.5,0.8 -0.7,1 -0.3,0.6 0.1,0.6 0.4,0.5 0.6,0.3 0.9,-0.3 1.1,-0.9 m 79.1,-9.1 -0.4,0.5 0.1,1 0.3,0.5 0.6,0.7 1.1,0.2 1.5,-0.3 1.3,-0.6 1,-0.8 0.3,-0.8 -0.1,-0.9 -0.1,-0.3 -0.7,-0.7 -0.7,-0.3 -1,0.1 -0.3,0.1 -0.7,0.6 -0.3,0.8 0.1,1 0.2,0.3 0.6,0.6 0.8,0.4 0.9,-0.1 m -6.6,-4.6 0.6,0.7 1.1,0.2 1.5,-0.3 0.8,-0.4 1.3,-0.9 0.5,-0.9 -0.1,-1 -0.2,-0.5 -0.6,-0.7 -1.1,-0.2 -1.5,0.4 -0.8,0.3 -1.3,0.9 -0.5,0.9 0.1,1 0.1,0.4 m -145.3,-95 0.5,0.4 1.2,0.5 -5.7,2.6 m 5.3,-0.6 0.2,-0.1 h 0.7 l 0.4,0.2 0.5,0.4 0.5,1.1 v 0.6 l -0.1,0.4 -0.5,0.6 -0.5,0.2 h -0.7 l -1,-0.2 -4,-1.4 1.7,3.8 m 16.9,-112 0.7,0.1 0.7,-0.5 0.4,-0.5 0.2,-0.9 -0.4,-1.1 -1.1,-1 -1.2,-0.9 -1.2,-0.4 -0.8,0.2 -0.8,0.5 -0.1,0.3 -0.3,0.9 0.2,0.8 0.6,0.8 0.2,0.1 0.9,0.3 0.9,-0.2 0.7,-0.5 0.2,-0.3 0.2,-0.9 -0.1,-0.8 -0.6,-0.8 m -1.1,9.2 -1.8,-4.9 -2.5,3.8 m 4.3,1.1 -5.2,-3.5 m 86,-48.9 3,0.2 0.5,-2.7 -0.4,0.3 -0.9,0.3 -0.9,-0.1 -0.8,-0.4 -0.6,-0.6 -0.2,-0.9 v -0.6 l 0.4,-0.9 0.6,-0.6 0.9,-0.2 0.9,0.1 0.9,0.3 0.3,0.4 0.2,0.6 m -5.5,3.3 -0.6,0.2 -1,0.9 0.5,-6.3 m 32.2,53.6 3.8,3.6 0.6,-4.5 m -4.4,0.9 6.3,0.9 m -4.4,-6.9 -0.7,0.2 -0.4,0.9 -0.1,0.5 0.2,1 0.8,0.7 1.4,0.5 1.5,0.2 1.3,-0.1 0.6,-0.5 0.5,-0.9 v -0.3 l -0.2,-0.9 -0.5,-0.7 -0.8,-0.4 h -0.3 l -1,0.1 -0.6,0.5 -0.5,0.9 v 0.3 l 0.2,0.9 0.5,0.7 0.8,0.4 m 128.6,435.3 6.7,-2.1 m -3.8,5.2 -2.9,-3.1 m -3.5,-3.8 6.7,-2.1 m -3.8,5.2 -2.9,-3.1 m 2.6,55.6 -2.5,6.4 m -1.6,-6.2 4.1,-0.2 m 4.8,0.5 -0.3,-0.5 -0.9,-0.3 -0.6,0.1 -0.9,0.3 -0.5,1 -0.2,1.5 0.1,1.5 0.3,1.2 0.7,0.5 0.9,0.3 0.3,-0.1 0.9,-0.3 0.5,-0.7 0.3,-0.9 v -0.3 l -0.4,-0.9 -0.6,-0.5 -1,-0.3 -0.3,0.1 -0.8,0.3 -0.6,0.7 -0.2,0.9 M 1759,501.7 l 2.7,-6.4 m 1.5,6.2 -4.2,0.2 m -1.7,-1.4 v 0.3 l -0.3,0.6 -0.3,0.3 -0.6,0.3 -1.2,0.1 -0.6,-0.3 -0.3,-0.3 -0.3,-0.6 v -0.6 l 0.2,-0.6 0.6,-0.9 2.9,-3.1 -4.2,0.2 m 5.2,58 -6.7,1.7 m 4.1,-4.9 2.6,3.2 m 1.2,1.3 2,2.6 -2.9,0.1 0.5,0.7 0.2,0.7 -0.1,0.4 -0.5,0.8 -0.4,0.4 -0.9,0.3 -0.9,-0.1 -0.8,-0.5 -0.5,-0.7 -0.4,-0.8 0.1,-0.5 0.2,-0.6"
       id="nums_003"
       stroke="#000000"
       style="stroke-width:1.01549;stroke-dasharray:none" />
    <path
       d="m 2114.6,376.8 12.8,105.2 83.4,12.1 49.2,52.6 40.7,71.7 -179.8,65.1 -1.3,-51.7 -51.7,0.4 -16.7,-190.5 -2.2,82.3 -8.6,71.6 -79,-23.9 -57,-85.9 15.5,101.9 -92.2,-102.4 -138.4,-17.4 -82.8,-83.3 135.4,-108.5 43.1,96.4 17.7,-104.1 -171.7,24.7 -51.4,-111.4 77.2,-114 92.7,6.7 -14.4,101.3 79.4,-17 -61.2,-53.2 61.2,-25.6 65.1,47.8 117.6,68.9 -0.4,66.1 -60.9,150.1 99.8,-127.6 16.6,-63.9 93.2,110.8 121.6,-100.9 -45.7,118.8 48.9,-36 0.9,118.1 z m -299.9,114.3 115.2,124.3 -124.6,8.2 -105.1,-127.7 z"
       id="coupes_003"
       stroke="#ff0000"
       style="stroke-width:1.26936"
       sodipodi:nodetypes="ccccccccccccccccccccccccccccccccccccccccccccc" />
    <path
       d="m 2035.7,285.2 15.5,156.5 m -15.5,-156.5 78.9,91.6 m 0,0 -63.4,64.9 m 94.3,-109.6 -30.9,44.7 m 106.8,-26.8 -106.8,26.8 m 106.8,-26.8 49.8,82.1 m -143.8,49.9 -59.5,150.2 m 142.9,-138.1 -91.2,137.7 M 2260,546.7 2119.6,631.8 M 2260,546.7 2120.9,683.5 M 2049,524 1935.9,412.8 M 2049,524 1904.4,485.8 m 0,0 31.5,-73 m -31.5,73 L 1785,372.5 m 0,0 150.9,40.3 m -133.2,-144.4 133.2,144.4 m -133.2,-144.4 11.8,-109.7 m 65.1,-31 117.2,135 m -182.3,-104 65.1,-31 M 1631,293.1 1735.1,175.7 m 169.3,310.1 -76.7,-0.5 m 0,0 -42.7,-112.8 m 264,151.5 -87.6,47.7 M 1689.3,467.9 1785,372.5 m -178.5,12.1 178.5,-12.1 m -128.2,-304.8 78.3,108 m 70.2,447.9 9.4,-132.5"
       id="plisM_003"
       stroke="#a52a2a"
       stroke-dasharray="4" />
    <path
       d="m 2051.2,441.7 -115.3,-28.9 m 116.4,-191.5 62.3,155.5 m 30.9,-44.7 75.9,17.9 m -94,132 -76.2,-40.3 m 159.6,52.4 -142.9,138.1 m -265.2,-363.8 194.1,-5.7 m -182.3,-104 182.3,104 m -182.3,-104 V 79.9 m -11.8,188.5 -67.6,-92.7 m -155.5,6 155.5,-6"
       id="plisV_003"
       stroke="#008000"
       stroke-dasharray="4, 1, 1, 1"
       style="stroke-width:1.26936" />
    <path
       d="m 1991.5,425.2 4,4 m 0,-4 -4,4 m 90,-132.2 4,4 m 0,-4 -4,4 m 100,38.1 4,4 m 0,-4 -4,4 m -94.2,116.7 4,4 m 0,-4 -4,4 m 50.1,97.3 4,4 m 0,-4 -4,4 m -239.6,-301.5 4,4 m 0,-4 -4,4 m 5.8,-58.9 4,4 m 0,-4 -4,4 m -91.1,-95.4 4,4 m 0,-4 -4,4 m -45.6,98.7 4,4 m 0,-4 -4,4 m -111.6,-47.3 4,4 m 0,-4 -4,4"
       id="marqueV_003"
       stroke="#008000"
       style="stroke-width:1.26936" />
    <path
       d="m 2003.5,367.5 h 8.2 l -4.5,6 h 2.3 l 1.5,0.8 0.7,0.7 0.8,2.3 v 1.5 l -0.8,2.2 -1.5,1.5 -2.2,0.8 h -2.3 l -2.2,-0.8 -0.8,-0.7 -0.7,-1.5"
       id="titre_3"
       stroke="#4b0082"
       style="stroke-width:1.26936" />
    <path
       d="m 1775.2,524.4 -7.5,10.5 h 11.2 m -3.7,-10.5 v 15.7"
       id="titre_4"
       stroke="#4b0082"
       style="stroke-width:1.26936" />
  </g>
  <g
     id="page_004">
    <path
       d="m 2840.9,414.8 6.1,3.3 m -6.4,0.9 0.3,-4.2 m 0.1,-2.9 0.3,0.9 0.8,0.6 1.5,0.4 h 0.9 l 1.5,-0.2 1,-0.5 0.3,-0.9 v -0.6 l -0.2,-0.9 -0.9,-0.7 -1.5,-0.3 -0.9,-0.1 -1.5,0.2 -0.9,0.6 -0.4,0.9 v 0.4 m -119.3,-101.6 -4.2,-5.5 m 6.1,1.8 -1.9,3.7 m -1.9,3.9 -2.3,-4.6 -2.1,4 m 4.4,0.6 -5.6,-2.9 m 100.8,-41.3 2,-6.7 m 2.1,6.1 -4.1,0.6 m -1.7,0.2 -3.3,0.5 1.4,-2.6 -0.9,0.1 -0.6,-0.2 -0.3,-0.2 -0.5,-0.9 -0.1,-0.6 0.2,-0.9 0.5,-0.7 0.9,-0.4 0.9,-0.2 0.9,0.2 0.3,0.3 0.4,0.5 m 97.2,114.1 -0.1,-0.7 -0.8,-0.5 -0.6,-0.2 h -0.9 l -0.9,0.7 -0.7,1.3 -0.4,1.4 -0.1,1.3 0.4,0.7 0.7,0.6 0.3,0.1 h 1 l 0.7,-0.4 0.6,-0.8 0.1,-0.3 v -0.9 l -0.4,-0.8 -0.8,-0.5 -0.3,-0.1 h -0.9 l -0.8,0.4 -0.5,0.7 m 9.1,0.7 -0.5,0.8 -0.8,0.4 h -0.9 l -0.3,-0.1 -0.8,-0.5 -0.4,-0.8 v -0.9 l 0.1,-0.3 0.5,-0.8 0.8,-0.4 h 1 l 0.2,0.1 0.8,0.6 0.4,0.7 -0.1,1.2 -0.4,1.5 -0.8,1.3 -0.8,0.7 h -1 l -0.5,-0.2 -0.8,-0.5 -0.1,-0.7 m 58.5,-32.6 -0.6,3 2.6,0.8 -0.3,-0.4 -0.1,-0.9 0.2,-0.9 0.4,-0.8 0.8,-0.5 0.9,-0.1 0.6,0.1 0.8,0.5 0.5,0.7 0.1,0.9 -0.2,0.9 -0.4,0.8 -0.4,0.3 -0.6,0.1 m -3.5,-9.3 3.6,3.8 0.8,-4.4 m -4.4,0.6 6.2,1.2 m 10.3,-212 v 0.7 l 0.7,0.7 0.5,0.3 0.9,0.1 1,-0.5 0.9,-1.3 0.7,-1.3 0.3,-1.2 -0.3,-0.8 -0.7,-0.7 -0.3,-0.1 -0.9,-0.1 -0.8,0.2 -0.7,0.7 -0.1,0.3 -0.1,0.9 0.2,0.8 0.7,0.7 0.3,0.1 0.9,0.1 0.8,-0.2 0.7,-0.7 m -6.9,1.2 -3,-1.4 2.7,-1.4 -0.8,-0.4 -0.4,-0.5 -0.1,-0.4 0.1,-1 0.3,-0.5 0.6,-0.7 0.8,-0.2 1,0.1 0.8,0.4 0.7,0.7 0.1,0.4 v 0.6 m 37,155.8 -3,0.2 -0.2,2.7 0.3,-0.3 0.9,-0.3 0.9,-0.1 0.9,0.3 0.6,0.5 0.4,0.9 v 0.6 l -0.2,0.9 -0.6,0.7 -0.9,0.3 -0.9,0.1 -0.9,-0.3 -0.3,-0.3 -0.3,-0.6 m 5.6,-5.4 3.3,-0.2 -1.7,2.5 h 0.9 l 0.7,0.2 0.3,0.3 0.3,0.9 0.1,0.6 -0.3,0.9 -0.6,0.6 -0.8,0.4 h -0.9 l -0.9,-0.2 -0.4,-0.3 -0.3,-0.6 m 37.6,-41.1 3.6,3.7 0.8,-4.4 m -4.4,0.7 6.2,1.1 m -5.1,-6.8 3.6,3.7 0.8,-4.4 m -4.4,0.7 6.2,1.1 m 2.7,-106.3 0.6,0.3 0.9,-0.3 0.5,-0.4 0.5,-0.7 -0.1,-1.1 -0.6,-1.4 -0.9,-1.2 -1,-0.8 -0.8,-0.1 -0.9,0.3 -0.2,0.2 -0.6,0.7 -0.1,0.9 0.3,0.9 0.2,0.2 0.7,0.6 0.9,0.1 0.9,-0.3 0.2,-0.2 0.6,-0.8 0.1,-0.8 -0.3,-0.9 m -2.3,5.2 -0.3,0.6 -0.2,1.2 -3.8,-5 m 11,27 0.5,-3.3 2.1,2.2 0.1,-0.9 0.4,-0.6 0.3,-0.2 1,-0.2 0.6,0.1 0.8,0.5 0.5,0.6 0.2,1 -0.2,0.9 -0.4,0.8 -0.4,0.3 -0.6,0.2 m -4,-7.6 0.2,0.9 0.5,0.4 0.6,0.1 0.7,-0.2 0.4,-0.5 0.4,-1.2 0.5,-0.8 0.7,-0.5 0.6,-0.2 0.9,0.1 0.5,0.4 0.3,0.4 0.1,0.9 -0.1,1.2 -0.5,0.8 -0.3,0.3 -0.7,0.2 -0.8,-0.2 -0.6,-0.4 -0.5,-0.6 -0.1,-1 -0.2,-1.2 -0.2,-0.6 -0.5,-0.4 -0.6,-0.1 -0.6,0.2 -0.5,0.8 -0.2,1.3 m -219.9,62.6 -5.8,4 m 2.1,-6.1 3.7,2.1 m 4.1,2.3 -2.6,-1.5 -1.6,2.2 0.4,-0.1 0.9,0.2 0.8,0.5 0.6,0.7 0.3,0.8 -0.2,0.9 -0.3,0.5 -0.7,0.7 -0.8,0.2 -1,-0.2 -0.8,-0.4 -0.6,-0.7 -0.1,-0.4 v -0.7 m 50,-110.4 -0.6,0.5 -0.6,1.1 -1.4,-6.2 m 0.1,5.2 -0.6,0.4 -0.6,1.1 -1.4,-6.1 m -178.5,121.1 -0.7,0.6 -0.1,0.7 0.2,0.6 0.5,0.4 0.7,0.1 1.2,-0.1 0.9,-0.1 0.8,0.4 0.5,0.5 0.3,0.8 -0.1,0.7 -0.2,0.4 -0.7,0.5 -1.1,0.5 h -1 l -0.4,-0.2 -0.5,-0.5 -0.3,-0.8 0.1,-0.7 0.4,-0.7 0.7,-0.6 1,-0.7 0.5,-0.5 0.1,-0.7 -0.2,-0.5 -0.5,-0.5 h -1 l -1.2,0.5 m 6.7,-2.5 -1.4,5 4.2,-1.6 m -2.8,-3.4 2.1,5.9 m 76.1,-138.9 0.2,0.3 0.1,0.6 -0.1,0.4 -0.4,0.6 -1,0.7 -0.6,0.1 -0.4,-0.1 -0.6,-0.3 -0.4,-0.5 V 98.1 97 l 0.8,-4.1 -3.5,2.3 m -0.1,7.6 0.2,-5.1 -3.7,2.5 m 3.5,2.6 -3.4,-5.2 m 71.9,-16.5 -0.3,-0.1 -0.6,-0.3 -0.2,-0.4 -0.2,-0.6 0.2,-1.2 0.4,-0.6 0.3,-0.2 0.6,-0.2 0.6,0.1 0.6,0.4 0.8,0.7 2.5,3.5 0.6,-4.2 m -5.4,-5.7 -0.5,3 2.6,0.7 -0.2,-0.3 -0.2,-1 0.1,-0.9 0.5,-0.8 0.7,-0.5 0.9,-0.1 0.6,0.1 0.8,0.4 0.5,0.7 0.2,0.9 -0.1,0.9 -0.5,0.9 -0.3,0.2 -0.7,0.2 m -166.6,22.2 h -0.3 l -0.6,-0.3 -0.3,-0.3 -0.3,-0.6 v -1.2 l 0.3,-0.6 0.3,-0.3 0.6,-0.3 h 0.6 l 0.6,0.3 0.9,0.6 3,2.9 v -4.2 m -6.4,-2.8 0.3,0.9 0.9,0.5 1.5,0.3 h 0.9 l 1.5,-0.3 0.9,-0.6 0.3,-0.9 v -0.6 l -0.3,-0.9 -0.9,-0.6 -1.5,-0.3 h -0.9 l -1.5,0.3 -0.9,0.7 -0.3,0.9 v 0.4 m -138.4,6.7 -0.6,-0.8 h -0.7 l -0.6,0.2 -0.4,0.5 -0.1,0.7 0.2,1.2 0.1,0.9 -0.4,0.8 -0.4,0.5 -0.9,0.3 h -0.6 l -0.4,-0.2 -0.6,-0.7 -0.5,-1.1 v -1 l 0.1,-0.4 0.5,-0.5 0.8,-0.3 0.7,0.1 0.8,0.3 0.6,0.7 0.7,1 0.5,0.5 h 0.7 l 0.5,-0.2 0.5,-0.5 -0.1,-0.9 -0.5,-1.3 m 0.2,4.2 0.5,0.4 1.1,0.5 -5.8,2.4 m 65.6,-57.1 0.9,-0.4 0.3,-0.6 v -0.6 l -0.3,-0.6 -0.7,-0.2 -1.2,-0.3 -0.9,-0.3 -0.6,-0.6 -0.3,-0.5 v -0.9 l 0.2,-0.7 0.3,-0.3 0.9,-0.3 h 1.2 l 0.9,0.2 0.3,0.3 0.4,0.6 v 0.9 l -0.3,0.6 -0.6,0.6 -0.9,0.4 -1.2,0.3 -0.5,0.3 -0.3,0.6 v 0.6 l 0.3,0.6 0.9,0.3 h 1.4 m -4.6,-1.4 v 0.3 l -0.3,0.6 -0.2,0.3 -0.6,0.3 -1.2,0.1 -0.6,-0.3 -0.3,-0.3 -0.4,-0.6 v -0.6 l 0.3,-0.6 0.6,-0.9 2.9,-3.1 -4.2,0.1 m -50.9,218.5 -0.9,0.3 -0.3,0.6 v 0.6 l 0.3,0.6 0.6,0.3 1.2,0.4 0.9,0.3 0.6,0.6 0.3,0.6 v 0.9 l -0.3,0.6 -0.3,0.3 -1,0.3 -1.2,-0.1 -0.8,-0.3 -0.3,-0.3 -0.3,-0.6 v -0.9 l 0.3,-0.6 0.6,-0.6 0.9,-0.3 1.2,-0.2 0.6,-0.3 0.3,-0.6 v -0.6 l -0.3,-0.6 -0.9,-0.3 -1.3,-0.1 m 5.8,0.1 -0.9,0.3 -0.6,0.9 -0.3,1.5 -0.1,0.9 0.3,1.5 0.6,0.9 0.9,0.3 h 0.6 l 0.9,-0.2 0.6,-0.9 0.3,-1.5 0.1,-0.9 -0.3,-1.5 -0.6,-0.9 -0.9,-0.4 h -0.5 m -25.2,-146.9 0.6,0.7 h 0.7 l 0.5,-0.3 0.4,-0.5 v -0.7 l -0.2,-1.2 -0.2,-1 0.3,-0.8 0.4,-0.5 0.8,-0.4 h 0.7 l 0.4,0.1 0.6,0.7 0.6,1.1 0.1,0.9 -0.1,0.4 -0.4,0.5 -0.8,0.4 h -0.7 l -0.8,-0.2 -0.7,-0.7 -0.8,-0.9 -0.5,-0.4 h -0.7 l -0.5,0.2 -0.4,0.6 0.1,0.9 0.6,1.2 m -0.5,-4.1 -0.5,-0.4 -1.2,-0.4 5.6,-2.8 m -73.4,-9 0.7,0.3 0.8,-0.4 0.5,-0.4 0.5,-0.8 -0.2,-1 -0.7,-1.4 -1,-1.1 -1,-0.7 -0.9,-0.1 -0.8,0.4 -0.3,0.2 -0.4,0.8 -0.1,0.8 0.4,0.9 0.2,0.2 0.8,0.5 0.8,0.1 0.9,-0.4 0.2,-0.2 0.5,-0.8 0.1,-0.8 -0.4,-0.9 m -3.4,8.6 -0.5,-5.2 -3.4,3 m 3.9,2.2 -4.1,-4.8 m -95,54.4 3,-0.3 v -2.7 l -0.2,0.3 -0.9,0.4 -0.9,0.1 -0.9,-0.2 -0.7,-0.6 -0.4,-0.8 v -0.6 l 0.2,-1 0.5,-0.6 0.9,-0.4 0.9,-0.1 0.9,0.2 0.3,0.3 0.4,0.5 m -4.9,4.2 -0.5,0.4 -0.9,1 -0.6,-6.3 m -6.8,90.2 -0.9,-2.8 -2.7,0.5 0.4,0.2 0.5,0.8 0.3,0.8 v 1 l -0.3,0.8 -0.8,0.5 -0.6,0.2 h -0.9 l -0.8,-0.4 -0.5,-0.7 -0.3,-0.9 v -0.9 l 0.2,-0.4 0.4,-0.5 m 7.1,5.2 -0.5,-0.8 -1.1,-0.3 -1.5,0.2 -0.9,0.3 -1.3,0.8 -0.6,0.8 v 1 l 0.2,0.6 0.5,0.7 1.1,0.3 1.5,-0.2 0.8,-0.3 1.4,-0.7 0.6,-0.9 v -0.9 l -0.1,-0.5 m 0.7,153.9 -1.4,3 -1.4,-2.7 -0.4,0.8 -0.5,0.4 -0.4,0.2 -1,-0.2 -0.5,-0.2 -0.7,-0.7 -0.2,-0.8 0.1,-1 0.4,-0.8 0.7,-0.6 0.4,-0.2 h 0.6 m 0.6,10.3 1.4,-2.7 -2.3,-1.5 0.1,0.4 -0.1,1 -0.4,0.8 -0.7,0.7 -0.8,0.2 -0.9,-0.1 -0.6,-0.3 -0.6,-0.6 -0.3,-0.8 0.1,-1 0.4,-0.8 0.7,-0.7 0.4,-0.1 h 0.7 m 22.6,110.3 -5.1,0.6 3,3.3 m 2.1,-3.9 -4.6,4.2 m 9.1,0.8 -6.7,2 m 3.9,-5.2 2.8,3.2 m 114.4,-55.3 5.1,-4.7 m -1.2,6.3 -3.9,-1.6 m -0.5,-1.7 -0.7,0.1 -1.1,0.5 2.3,-5.9 m 71.1,113.6 0.6,0.7 0.6,0.1 0.6,-0.1 0.5,-0.5 0.1,-0.7 -0.1,-1.2 v -1 l 0.4,-0.7 0.5,-0.5 0.9,-0.2 0.6,0.1 0.4,0.2 0.6,0.7 0.3,1.2 v 0.9 l -0.2,0.4 -0.5,0.5 -0.8,0.2 -0.7,-0.1 -0.8,-0.4 -0.5,-0.7 -0.7,-1.1 -0.4,-0.5 -0.7,-0.1 -0.6,0.2 -0.4,0.5 -0.1,0.9 0.4,1.3 m -1.3,-4.4 -1,-3.1 2.8,1 -0.3,-0.9 0.1,-0.6 0.2,-0.4 0.8,-0.6 0.6,-0.2 0.9,0.1 0.8,0.4 0.5,0.7 0.3,0.9 v 0.9 l -0.2,0.4 -0.5,0.5 m -13.7,105.4 0.6,7 m -4.3,-4.9 3.7,-2.1 m 2.5,-1.5 -0.6,0.7 -0.1,1.1 0.5,1.5 0.5,0.7 1,1.2 1,0.4 0.9,-0.2 0.5,-0.3 0.6,-0.7 0.1,-1 -0.5,-1.5 -0.5,-0.8 -1,-1.1 -0.9,-0.5 -1,0.2 -0.4,0.2 m -99.4,35.9 -0.4,-0.5 -1,-0.1 -0.6,0.1 -0.8,0.4 -0.4,1 v 1.6 l 0.2,1.4 0.6,1.1 0.7,0.5 0.9,0.2 0.3,-0.1 0.8,-0.5 0.5,-0.7 0.1,-0.9 v -0.3 l -0.5,-0.8 -0.7,-0.5 -0.9,-0.1 h -0.3 l -0.8,0.5 -0.5,0.7 -0.2,0.9 m 8.4,-3.7 -0.1,0.9 -0.5,0.7 -0.8,0.5 h -0.3 l -0.9,-0.1 -0.7,-0.5 -0.5,-0.8 v -0.3 l 0.1,-0.9 0.5,-0.7 0.8,-0.5 h 0.3 l 0.9,0.1 0.7,0.5 0.5,1.1 0.3,1.5 v 1.5 l -0.4,1 -0.8,0.4 -0.6,0.2 -1,-0.2 -0.4,-0.5 m -40.2,-59.4 -3.7,-3.6 -0.7,4.5 m 4.4,-0.9 -6.3,-0.9 m 4.3,3.8 0.3,0.1 0.5,0.4 0.3,0.3 0.2,0.6 -0.2,1.2 -0.4,0.6 -0.3,0.2 -0.6,0.2 -0.6,-0.1 -0.6,-0.3 -0.8,-0.8 -2.5,-3.4 -0.6,4.2 m 101.2,-305 7,0.4 m -5.4,3.5 -1.6,-3.9 m 0.1,-5.5 1,-0.1 0.8,0.4 0.6,0.7 0.1,0.3 v 0.9 l -0.3,0.8 -0.7,0.6 -0.3,0.1 -1,0.1 -0.7,-0.4 -0.7,-0.7 -0.1,-0.3 v -0.9 l 0.3,-0.8 1,-0.7 1.4,-0.6 1.5,-0.2 1.1,0.2 0.6,0.7 0.2,0.6 0.1,0.9 -0.5,0.5 m -23,71.1 -1.6,6.8 m -2.5,-6 4.1,-0.8 m 1.4,1.1 0.5,-0.4 0.7,-1 1.3,6.1 m 351.7,173.2 -0.9,0.3 -0.3,0.6 v 0.6 l 0.4,0.6 0.6,0.3 1.2,0.2 0.9,0.3 0.6,0.6 0.3,0.5 0.1,0.9 -0.3,0.7 -0.3,0.3 -0.9,0.3 -1.2,0.1 -0.9,-0.3 -0.3,-0.3 -0.3,-0.6 -0.1,-0.9 0.3,-0.6 0.6,-0.6 0.9,-0.3 1.2,-0.4 0.5,-0.3 0.3,-0.6 V 589 l -0.3,-0.6 -0.9,-0.3 -1.4,0.1 m 7.1,-0.4 -2.8,4.3 4.5,-0.2 m -1.7,-4.1 0.3,6.3 m -140.5,-31.1 -3.6,-6 m 5.9,2.5 -2.3,3.5 m -3.4,3.5 0.7,0.1 0.7,-0.6 0.3,-0.5 0.3,-0.9 -0.4,-1 -1.1,-1.1 -1.3,-0.8 -1.1,-0.4 -0.9,0.1 -0.7,0.6 -0.2,0.3 -0.2,0.9 0.1,0.8 0.6,0.8 0.3,0.1 0.9,0.3 0.8,-0.2 0.8,-0.6 0.1,-0.2 0.3,-1 -0.2,-0.8 -0.6,-0.7 m 3.4,36.3 -2.2,6.6 m -2,-6.1 4.2,-0.5 m 4.7,-0.6 -3,0.3 v 2.8 l 0.3,-0.4 0.9,-0.4 0.9,-0.1 0.9,0.2 0.7,0.5 0.4,0.9 v 0.6 l -0.1,0.9 -0.6,0.7 -0.8,0.4 -0.9,0.1 -0.9,-0.2 -0.4,-0.3 -0.3,-0.5 m 209.3,-118.1 0.9,-0.1 0.4,-0.6 0.1,-0.6 -0.2,-0.6 -0.5,-0.4 -1.1,-0.5 -0.9,-0.4 -0.5,-0.7 -0.1,-0.7 0.1,-0.9 0.4,-0.5 0.3,-0.3 1,-0.1 1.2,0.2 0.8,0.5 0.2,0.3 0.2,0.6 -0.1,0.9 -0.4,0.6 -0.7,0.5 -0.9,0.1 -1.3,0.1 -0.6,0.2 -0.4,0.5 -0.1,0.6 0.2,0.7 0.8,0.4 1.4,0.2 m -4.6,-0.7 -3.2,-0.6 2.2,-2.1 -0.9,-0.1 -0.6,-0.4 -0.2,-0.3 -0.2,-1 0.1,-0.6 0.5,-0.8 0.7,-0.5 0.9,-0.1 0.9,0.1 0.8,0.5 0.3,0.3 0.2,0.6 m 87.6,121.4 h -0.9 l -0.5,0.5 -0.1,0.6 0.1,0.7 0.5,0.4 1.1,0.6 0.8,0.5 0.4,0.8 0.2,0.6 -0.3,0.9 -0.4,0.5 -0.4,0.2 -0.9,0.1 -1.2,-0.3 -0.8,-0.6 -0.2,-0.3 -0.1,-0.7 0.2,-0.9 0.4,-0.5 0.8,-0.4 h 0.9 1.3 l 0.6,-0.2 0.5,-0.5 0.1,-0.5 -0.1,-0.7 -0.8,-0.5 -1.3,-0.4 m 5.6,1.5 -1,0.1 -0.8,0.7 -0.7,1.4 -0.2,0.8 -0.1,1.6 0.4,1 0.8,0.5 0.5,0.2 1,-0.1 0.8,-0.7 0.7,-1.4 0.2,-0.8 0.1,-1.6 -0.3,-1 -0.8,-0.5 -0.5,-0.1 m 23.7,-38.3 6.9,0.1 m -5.2,3.7 -1.7,-3.8 m -0.2,-5.4 0.9,-0.1 0.8,0.3 0.7,0.6 0.1,0.3 0.1,1 -0.3,0.8 -0.7,0.6 -0.3,0.1 -0.9,0.1 -0.8,-0.3 -0.7,-0.7 -0.1,-0.2 -0.1,-1 0.3,-0.8 1,-0.7 1.3,-0.7 1.5,-0.3 1.1,0.2 0.6,0.6 0.3,0.6 0.1,0.9 -0.4,0.6 m -456.2,-158.9 -5.7,4 m 2.1,-6.1 3.6,2.1 m 2.3,1.3 -0.9,-0.2 -0.6,0.4 -0.3,0.5 v 0.7 l 0.3,0.6 0.9,0.8 0.7,0.7 0.2,0.8 -0.1,0.7 -0.4,0.8 -0.6,0.4 -0.4,0.1 -0.9,-0.2 -1.1,-0.6 -0.6,-0.7 -0.1,-0.4 v -0.7 l 0.5,-0.8 0.6,-0.4 0.8,-0.2 0.9,0.2 1.2,0.4 h 0.7 l 0.5,-0.4 0.3,-0.5 0.1,-0.7 -0.7,-0.7 -1.1,-0.6 m 55.8,-74.1 5.9,-3.7 m -2.4,6 -3.5,-2.3 m -3.7,-2.2 4.8,-1.9 -3.8,-2.5 m -1,4.4 3.4,-5.3 m -62.8,24.5 -2.2,-6.6 m 5.2,3.7 -3,2.9 m -2.3,0.1 0.3,0.2 0.2,0.7 v 0.4 l -0.3,0.6 -0.8,0.9 -0.7,0.2 -0.4,-0.1 -0.6,-0.2 -0.4,-0.4 -0.2,-0.6 -0.2,-1.1 V 342 l -3,2.9 m 38.1,145.3 -3.8,-5.8 m 6,2.2 -2.2,3.6 m -1.3,2.2 0.2,-0.9 -0.4,-0.5 -0.5,-0.4 h -0.7 l -0.5,0.4 -0.9,0.8 -0.7,0.6 -0.9,0.3 -0.6,-0.1 -0.8,-0.5 -0.4,-0.5 -0.1,-0.4 0.2,-1 0.7,-1 0.7,-0.6 0.4,-0.1 h 0.7 l 0.7,0.5 0.4,0.6 0.2,0.8 -0.2,0.9 -0.4,1.2 v 0.7 l 0.3,0.5 0.6,0.3 0.6,0.1 0.7,-0.6 0.7,-1.2 m 45.3,21.3 -1.9,6.8 m -2.2,-6 4.1,-0.8 m 5.1,-0.8 -1.9,6.7 m -2.2,-6 4.1,-0.7"
       id="nums_004"
       stroke="#000000"
       style="stroke-width:1.01549;stroke-dasharray:none" />
    <path
       d="m 2556.6,465.7 56.1,178.9 -79.5,46.7 -119,22.7 21.1,-144.6 -103.7,-114.2 61.8,-124.3 -61.4,-183.1 92.4,-9.3 104.1,-90.2 59.3,118.2 -48.9,-122.9 176.5,-5.9 2,112.4 168.4,-111.8 -12.7,78.1 62.4,-14.3 105.8,52.7 53.8,-39.9 -14.7,92 -16.3,86.1 -76.1,4.4 -21,107.3 -115.4,-36.6 -4.9,92.1 184.9,31.7 61.7,135 -131.5,-35 -186.3,8.7 -86.2,10.9 68.7,-104.3 -167,28.8 59,-98.3 -99.4,-57.4 82.3,-79.8 63.8,40.7 34.2,-67.4 163.6,-24 -75.6,-42.8 -175.4,63.7 -136,-2.3 54.3,138.2 -100.6,20.9 z"
       id="coupes_004"
       stroke="#ff0000"
       style="stroke-width:1.26936"
       sodipodi:nodetypes="cccccccccccccccccccccccccccccccccccccccccccc" />
    <path
       d="M 2846.7,460.2 2650,437.7 m 0,0 46.7,-96.5 m 0,0 150,119 m -150,-119 154.9,26.9 m -120.7,-94.3 120.7,94.3 m 136.4,-70.7 -136.4,70.7 m 42.9,-118.3 93.5,47.6 m -93.5,-47.6 41,-147.7 m 0,0 52.5,195.3 m 53.3,-142.6 -53.3,142.6 m -169.1,-90.4 54.2,-90.6 m -54.2,90.6 -101.5,-56.9 m -73.9,120.6 73.9,-120.6 m -73.9,120.6 -55.7,-104.2 m 0,0 129.6,-16.4 m -129.6,16.4 127.6,-128.8 m -207.9,230.7 80.3,-101.9 m -80.3,101.9 21,-220.1 m -21,220.1 -83.1,-129.9 m 83.1,129.9 -114.1,62.5 m 0,0 31,-192.4 m 83.1,129.9 -46.3,159.1 m 0,0 -67.8,-96.6 m 67.8,96.6 -129.6,27.7 m 129.6,-27.7 -25.9,141.9 m 121.3,-103.7 -121.3,103.7 m 177.4,75.2 -177.4,-75.2 m 97.9,121.9 -97.9,-121.9 M 2758,507.2 2650,437.7 m 196.7,22.5 -88.7,47 m 203.8,84.7 -203.8,-84.7 m 88.7,-47 115.1,131.7 m -186.3,8.7 -17.5,-93.4 m 273.6,-15.3 -69.8,100 m -411.2,-211.6 146.1,-39.1"
       id="plisM_004"
       stroke="#a52a2a"
       stroke-dasharray="4" />
    <path
       d="m 2894.5,249.8 -42.9,118.3 m 228.8,-161.2 -92.4,90.5 m 53.3,-142.6 39.1,52.1 m -261.5,0.1 116.6,-104.9 m -218.1,48 155.7,-33.7"
       id="plisV_004"
       stroke="#008000"
       stroke-dasharray="4, 1, 1, 1"
       style="stroke-width:1.26936" />
    <path
       d="m 2871.1,306.9 4,4 m 0,-4 -4,4 m 161.1,-60.8 4,4 m 0,-4 -4,4 m 26.6,-75.3 4,4 m 0,-4 -4,4 m -183.6,-30.2 4,4 m 0,-4 -4,4 m -82,-25.4 4,4 m 0,-4 -4,4"
       id="marqueV_004"
       stroke="#008000"
       style="stroke-width:1.26936" />
    <path
       d="m 2763.1,315.3 h -7.5 l -0.7,6.8 0.7,-0.8 2.3,-0.7 h 2.2 l 2.3,0.7 1.5,1.5 0.7,2.3 v 1.5 l -0.7,2.2 -1.5,1.5 -2.3,0.8 h -2.2 l -2.3,-0.8 -0.7,-0.7 -0.8,-1.5"
       id="titre_5"
       stroke="#4b0082"
       style="stroke-width:1.26936" />
  </g>
</svg>
