<?xml version="1.0" encoding="UTF-8" standalone="no"?>
<svg
   height="841.88977pt"
   viewBox="0 0 532.99998 754.00001"
   width="595.27557pt"
   version="1.1"
   id="svg1"
   sodipodi:docname="mile_160_H12_C3x4.svg"
   inkscape:version="1.3 (0e150ed6c4, 2023-07-21)"
   xmlns:inkscape="http://www.inkscape.org/namespaces/inkscape"
   xmlns:sodipodi="http://sodipodi.sourceforge.net/DTD/sodipodi-0.dtd"
   xmlns="http://www.w3.org/2000/svg"
   xmlns:svg="http://www.w3.org/2000/svg">
  <defs
     id="defs1" />
  <sodipodi:namedview
     id="namedview1"
     pagecolor="#ffffff"
     bordercolor="#000000"
     borderopacity="0.25"
     inkscape:showpageshadow="2"
     inkscape:pageopacity="0.0"
     inkscape:pagecheckerboard="0"
     inkscape:deskcolor="#d1d1d1"
     inkscape:document-units="mm"
     showgrid="false"
     inkscape:zoom="0.35767747"
     inkscape:cx="1404.897"
     inkscape:cy="588.51904"
     inkscape:window-width="1920"
     inkscape:window-height="1057"
     inkscape:window-x="-8"
     inkscape:window-y="-8"
     inkscape:window-maximized="1"
     inkscape:current-layer="svg1" />
  <style
     type="text/css"
     id="style1"><![CDATA[
			path {
				fill: none;
			}
		]]></style>
  <g
     id="page_001">
    <path
       d="m 194.8,296.5 -0.1,-0.2 -0.2,-0.7 0.1,-0.4 0.3,-0.6 1,-0.7 0.6,-0.2 0.5,0.1 0.6,0.3 0.3,0.5 0.1,0.6 0.1,1.1 -0.6,4.2 3.3,-2.5 m -1.6,-6.6 -0.5,0.8 0.1,0.6 0.3,0.5 0.6,0.3 0.7,-0.1 1.1,-0.5 0.9,-0.3 0.9,0.1 0.6,0.3 0.5,0.8 0.1,0.6 v 0.5 l -0.6,0.7 -0.9,0.7 -0.9,0.3 h -0.5 l -0.6,-0.3 -0.5,-0.7 -0.1,-0.7 0.1,-0.8 0.6,-0.8 0.7,-1 0.3,-0.6 -0.1,-0.6 -0.3,-0.5 -0.6,-0.3 -0.9,0.3 -1.1,0.8 m -27.6,-82.9 -2.2,2.5 -0.6,-2.9 -0.6,0.7 -0.7,0.2 -0.4,0.1 -0.8,-0.4 -0.5,-0.4 -0.5,-0.8 v -0.9 l 0.3,-0.8 0.6,-0.7 0.8,-0.5 h 0.5 l 0.6,0.1 m -1.7,9.8 -1.2,-5 -2.9,3.4 m 4.1,1.6 -4.7,-4.1 m 94.5,-73.2 -1.6,-2.9 3,0.4 -0.4,-0.8 v -0.6 l 0.1,-0.5 0.6,-0.6 0.6,-0.3 0.9,-0.2 0.8,0.3 0.7,0.6 0.4,0.8 0.2,0.9 -0.1,0.4 -0.4,0.6 m -8.7,-5.5 1.4,2.7 2.5,-1 -0.4,-0.2 -0.7,-0.6 -0.4,-0.8 -0.2,-0.9 0.3,-0.9 0.6,-0.6 0.5,-0.3 1,-0.2 0.8,0.3 0.7,0.6 0.4,0.8 0.2,0.9 -0.2,0.4 -0.3,0.6 m -105.1,177.1 -2.6,4.4 4.5,-0.4 m -1.9,-4 0.6,6.2 m 2.1,-5 0.6,-0.4 0.8,-1 0.6,6.3 m -26.1,-235.3 -4,-3.3 -0.3,4.5 m 4.3,-1.2 -6.3,-0.5 m 6,4.6 -0.3,-0.9 -0.5,-0.4 h -0.6 l -0.7,0.3 -0.3,0.5 -0.4,1.2 -0.4,0.9 -0.6,0.5 -0.6,0.3 -0.9,-0.1 -0.6,-0.3 -0.3,-0.3 -0.2,-0.9 0.1,-1.2 0.3,-0.9 0.4,-0.3 0.6,-0.3 0.9,0.1 0.6,0.4 0.5,0.6 0.3,0.9 0.2,1.2 0.2,0.6 0.6,0.4 h 0.6 l 0.6,-0.2 0.4,-0.9 0.1,-1.3 m 138,150.1 0.1,-3.3 2.3,1.9 0.1,-0.9 0.3,-0.6 0.3,-0.3 1,-0.2 h 0.6 l 0.8,0.4 0.6,0.6 0.2,0.9 v 0.9 l -0.4,0.9 -0.3,0.3 -0.6,0.3 m -4.7,-7.5 0.3,0.9 0.8,0.7 1.5,0.4 h 0.9 l 1.5,-0.2 1,-0.5 0.3,-0.9 0.1,-0.6 -0.3,-0.9 -0.8,-0.7 -1.5,-0.4 h -0.9 l -1.5,0.2 -1,0.5 -0.3,0.9 -0.1,0.5 m -95.8,-186 0.3,-7 m 3.6,5.4 -3.9,1.6 m -2.7,1.2 0.7,-0.7 0.2,-1 -0.3,-1.5 -0.3,-0.9 -0.9,-1.2 -0.9,-0.6 -0.9,0.1 -0.6,0.2 -0.7,0.6 -0.2,1.1 0.3,1.5 0.3,0.8 0.9,1.3 0.9,0.6 0.9,-0.1 0.5,-0.2 m 49.7,15 -0.5,0.5 0.1,0.9 0.2,0.6 0.5,0.8 1.1,0.2 1.5,-0.2 1.4,-0.4 1,-0.7 0.4,-0.8 v -0.9 l -0.1,-0.3 -0.6,-0.8 -0.7,-0.3 h -1 l -0.3,0.1 -0.7,0.5 -0.4,0.8 v 1 l 0.1,0.2 0.6,0.8 0.8,0.4 h 0.9 m -4.9,-7.8 h 1 l 0.7,0.3 0.6,0.8 0.1,0.3 v 0.9 l -0.4,0.8 -0.7,0.6 -0.3,0.1 h -0.9 l -0.8,-0.4 -0.6,-0.8 -0.1,-0.2 v -1 l 0.4,-0.8 1,-0.6 1.4,-0.5 1.6,-0.2 1,0.3 0.6,0.7 0.2,0.6 v 0.9 l -0.5,0.5 m -154.3,72 -4.9,-1.7 1.2,4.3 m 3.7,-2.6 -6.1,1.7 m 5.4,1.8 0.3,-0.1 0.7,0.1 0.3,0.2 0.5,0.5 0.3,1.2 -0.1,0.7 -0.2,0.3 -0.5,0.5 -0.6,0.1 -0.6,-0.1 -1.1,-0.3 -3.7,-2.1 1.2,4 m 25.8,-15.7 3,-4.2 h -4.5 m 1.5,4.2 -0.1,-6.3 m -3.2,6.3 h -3.3 l 1.8,-2.4 h -0.9 l -0.6,-0.3 -0.3,-0.3 -0.3,-0.9 v -0.6 l 0.3,-0.9 0.6,-0.6 0.9,-0.3 h 0.9 l 0.9,0.3 0.3,0.3 0.3,0.6 m 59.2,86.2 2.5,-2.2 0.2,3 0.7,-0.5 0.6,-0.2 h 0.4 l 0.8,0.5 0.4,0.5 0.4,0.9 -0.1,0.8 -0.5,0.8 -0.7,0.6 -0.9,0.4 -0.4,-0.1 -0.6,-0.2 m 3.2,-9.5 0.4,5.2 3.4,-2.9 m -3.8,-2.3 4,4.9 m -36.4,142.2 0.2,3 2.7,0.1 -0.3,-0.3 -0.4,-0.8 V 342 l 0.3,-0.9 0.5,-0.7 0.9,-0.3 h 0.6 l 0.9,0.2 0.7,0.6 0.3,0.9 v 0.9 l -0.2,0.9 -0.3,0.3 -0.6,0.3 m -5.4,-6.6 0.3,0.9 0.7,0.3 0.6,-0.1 0.5,-0.3 0.3,-0.6 0.3,-1.2 0.2,-0.9 0.6,-0.6 0.6,-0.4 h 0.9 l 0.6,0.3 0.3,0.2 0.3,0.9 0.1,1.2 -0.3,0.9 -0.3,0.4 -0.5,0.3 h -0.9 l -0.7,-0.3 -0.6,-0.5 -0.3,-0.9 -0.4,-1.2 -0.3,-0.6 -0.6,-0.3 -0.6,0.1 -0.6,0.3 -0.3,0.9 0.1,1.4 m -13.6,14.1 -3,0.1 -0.2,2.7 0.3,-0.3 0.9,-0.4 h 0.9 l 0.9,0.3 0.6,0.5 0.4,0.9 v 0.6 l -0.3,0.9 -0.6,0.7 -0.8,0.3 h -0.9 l -1,-0.2 -0.3,-0.3 -0.3,-0.6 m 9.1,-3.4 -0.2,1 -0.6,0.6 -0.9,0.3 h -0.3 l -0.9,-0.2 -0.6,-0.6 -0.4,-0.9 v -0.3 l 0.3,-0.9 0.6,-0.6 0.9,-0.4 h 0.3 l 0.9,0.3 0.6,0.6 0.3,1.1 0.1,1.5 -0.2,1.5 -0.6,1 -0.9,0.3 h -0.6 l -0.9,-0.2 -0.3,-0.6 m -7.2,-116.2 -3.2,-0.7 2.3,-2 -0.9,-0.2 -0.5,-0.4 -0.3,-0.4 -0.1,-0.9 0.2,-0.6 0.4,-0.8 0.7,-0.5 1,-0.1 0.9,0.2 0.8,0.5 0.2,0.3 0.2,0.7 m -6.9,3.8 -3.2,-0.7 2.3,-2 -0.9,-0.2 -0.6,-0.4 -0.2,-0.4 -0.1,-0.9 0.1,-0.6 0.5,-0.8 0.7,-0.5 1,-0.1 0.8,0.2 0.9,0.5 0.2,0.3 0.2,0.7 m -50.2,48.4 -1.4,3 -1.4,-2.7 -0.4,0.8 -0.5,0.5 -0.4,0.1 -0.9,-0.1 -0.6,-0.2 -0.7,-0.7 -0.3,-0.8 0.1,-0.9 0.4,-0.8 0.7,-0.7 0.4,-0.2 h 0.6 m 0.1,9.9 0.7,-0.1 0.6,-0.6 0.3,-0.6 0.1,-0.9 -0.6,-1 -1.2,-0.9 -1.4,-0.6 -1.2,-0.2 -0.8,0.3 -0.6,0.7 -0.2,0.3 -0.1,0.9 0.3,0.8 0.7,0.6 0.3,0.2 0.9,0.1 0.8,-0.3 0.7,-0.7 0.1,-0.3 0.1,-0.9 -0.3,-0.8 -0.7,-0.7 m -13.3,83.8 1,3.1 -2.8,-0.9 0.2,0.8 -0.1,0.7 -0.1,0.4 -0.8,0.5 -0.6,0.2 h -0.9 l -0.8,-0.4 -0.5,-0.7 -0.3,-0.9 v -0.9 l 0.2,-0.4 0.4,-0.5 m 5.2,3.9 0.5,0.4 1.1,0.6 -6,2 m 67.7,21.6 5,1.4 -1.5,-4.2 m -3.5,2.8 5.9,-2.1 m -7.3,-2.1 0.6,0.7 1,0.3 1.5,-0.2 0.9,-0.3 1.3,-0.8 0.6,-0.9 v -0.9 l -0.2,-0.6 -0.6,-0.7 -1,-0.3 -1.5,0.2 -0.9,0.3 -1.3,0.8 -0.6,0.9 v 0.9 l 0.1,0.4 m -46.8,40.8 0.3,3.3 -2.6,-1.5 0.1,0.9 -0.2,0.6 -0.2,0.4 -0.9,0.4 h -0.6 l -0.9,-0.2 -0.7,-0.5 -0.4,-0.8 -0.1,-0.9 0.2,-1 0.3,-0.3 0.5,-0.4 m 4.3,5.4 h 0.3 l 0.6,0.2 0.3,0.3 0.4,0.6 0.1,1.2 -0.2,0.6 -0.3,0.3 -0.5,0.4 -0.6,0.1 -0.7,-0.3 -0.9,-0.5 -3.3,-2.6 0.4,4.2 m 18.8,26.7 -4.5,2.4 4,2 m 0.5,-4.4 -2.8,5.6 m 8.8,-2.6 -5.5,4.3 m 1.7,-6.2 3.8,1.9 m 77.4,55.2 -0.7,0.2 -0.3,0.9 -0.1,0.6 0.3,0.9 0.8,0.7 1.5,0.4 1.5,0.1 1.2,-0.2 0.6,-0.6 0.4,-0.8 v -0.3 l -0.2,-1 -0.6,-0.6 -0.8,-0.4 H 146 l -0.9,0.3 -0.7,0.5 -0.4,0.9 v 0.3 l 0.3,0.9 0.5,0.6 0.9,0.4 m -3.7,-7.1 0.2,0.9 0.9,0.7 1.5,0.4 h 0.9 l 1.5,-0.2 0.9,-0.5 0.4,-0.9 v -0.6 l -0.2,-0.9 -0.9,-0.7 -1.4,-0.4 h -0.9 l -1.6,0.2 -0.9,0.5 -0.4,0.9 v 0.4 m -30.6,29.3 3.2,-1 -1,2.8 0.8,-0.2 0.7,0.1 0.4,0.2 0.5,0.8 0.2,0.6 -0.1,0.9 -0.4,0.8 -0.7,0.5 -0.9,0.3 -0.9,-0.1 -0.4,-0.2 -0.5,-0.5 m 7.6,-7.5 -1.1,6.9 m -3,-5.7 4.1,-1.2 m -53.1,-49 -0.2,-5.1 -3.6,2.7 m 3.8,2.4 -3.9,-5 m -1.5,9 -1.4,-6.8 m 4.7,4.3 -3.3,2.5 m -20.3,29.7 -1.4,3 -1.4,-2.7 -0.4,0.8 -0.5,0.5 -0.4,0.1 -0.9,-0.1 -0.6,-0.3 -0.7,-0.6 -0.2,-0.8 0.1,-1 0.4,-0.8 0.6,-0.7 0.4,-0.1 h 0.7 m 0.7,6.8 0.3,0.1 0.4,0.6 0.1,0.4 v 0.6 l -0.5,1.1 -0.5,0.4 -0.4,0.2 h -0.7 l -0.5,-0.3 -0.4,-0.5 -0.6,-0.9 -1.4,-4 -1.8,3.8 m 17.4,17.2 3.3,0.2 -1.9,2.3 h 0.9 l 0.5,0.4 0.3,0.3 0.3,0.9 -0.1,0.6 -0.3,0.9 -0.6,0.6 -1,0.2 h -0.9 l -0.8,-0.4 -0.3,-0.3 -0.3,-0.6 m 5.5,-3.4 0.6,-0.3 1,-0.8 -0.4,6.3 m 33.8,-353.9 3.2,0.6 -2.2,2.1 0.9,0.1 0.5,0.4 0.3,0.4 0.1,0.9 -0.1,0.6 -0.5,0.8 -0.7,0.5 -0.9,0.1 -0.9,-0.1 -0.8,-0.5 -0.3,-0.3 -0.2,-0.7 m 6.8,-3.9 3.3,0.6 -2.2,2.1 0.8,0.1 0.6,0.4 0.2,0.4 0.1,0.9 -0.1,0.6 -0.4,0.9 -0.7,0.4 -1,0.2 -0.9,-0.2 -0.8,-0.5 -0.2,-0.3 -0.2,-0.7 m -44.7,-67.2 -0.1,0.3 -0.4,0.6 -0.3,0.2 -0.7,0.2 -1.2,-0.2 -0.5,-0.4 -0.3,-0.4 -0.1,-0.6 0.1,-0.6 0.4,-0.5 0.7,-0.8 3.5,-2.5 -4.2,-0.7 m -5.6,4.5 0.2,0.7 0.9,0.4 0.5,0.1 1,-0.1 0.7,-0.8 0.6,-1.4 0.2,-1.5 -0.1,-1.2 -0.4,-0.7 -0.9,-0.5 h -0.3 l -0.9,0.1 -0.7,0.5 -0.5,0.8 v 0.3 l 0.1,1 0.5,0.7 0.9,0.4 0.3,0.1 0.9,-0.2 0.7,-0.5 0.4,-0.8 m -0.7,22.1 0.3,-0.1 h 0.7 l 0.4,0.1 0.5,0.4 0.6,1 v 0.7 l -0.1,0.4 -0.4,0.6 -0.6,0.2 -0.6,0.1 -1.1,-0.2 -4.1,-1.3 2,3.8 m 8,1.7 -7,0.2 m 5,-3.9 2,3.7 m 109.3,307.8 -0.7,-0.1 -0.8,0.5 -0.4,0.5 -0.3,0.9 0.4,1 0.9,1.2 1.2,0.9 1.1,0.5 0.9,-0.1 0.8,-0.5 0.2,-0.2 0.3,-0.9 -0.1,-0.9 -0.5,-0.8 -0.3,-0.2 -0.9,-0.3 -0.8,0.1 -0.8,0.5 -0.2,0.3 -0.3,0.9 0.1,0.8 0.5,0.8 m 0.9,-5.6 0.1,-0.7 -0.1,-1.2 4.9,3.9 m -13.7,-48.7 3.4,-3.9 -4.5,-0.4 m 1.1,4.3 0.6,-6.3 m -5,5.8 0.9,-0.2 0.7,-0.9 0.5,-1.4 v -0.9 l -0.1,-1.5 -0.5,-1 -0.9,-0.4 h -0.6 l -0.9,0.2 -0.7,0.8 -0.4,1.5 -0.1,0.9 0.1,1.5 0.5,0.9 0.9,0.4 0.4,0.1 m 25.9,16.1 -0.6,2.9 2.6,0.8 -0.2,-0.3 -0.2,-1 0.2,-0.8 0.5,-0.9 0.7,-0.5 0.9,-0.1 0.6,0.1 0.8,0.5 0.5,0.7 0.1,0.9 -0.1,0.9 -0.5,0.8 -0.3,0.3 -0.7,0.2 m -1.3,-9.7 0.9,0.5 0.4,0.7 0.2,0.9 -0.1,0.3 -0.4,0.8 -0.7,0.5 -1,0.2 -0.3,-0.1 -0.8,-0.5 -0.5,-0.7 -0.1,-0.9 v -0.3 l 0.5,-0.8 0.7,-0.5 1.2,-0.1 1.5,0.3 1.4,0.5 0.8,0.8 0.1,0.9 -0.1,0.6 -0.4,0.9 -0.7,0.1 m 83.5,-102.4 -0.3,-0.1 -0.6,-0.3 -0.2,-0.4 -0.3,-0.6 0.2,-1.2 0.4,-0.5 0.3,-0.3 0.6,-0.2 h 0.6 l 0.6,0.4 0.8,0.7 2.6,3.4 0.5,-4.2 m -3.5,-5.5 0.9,0.4 0.5,0.7 0.2,0.9 -0.1,0.3 -0.4,0.8 -0.7,0.6 -0.9,0.1 h -0.3 l -0.8,-0.4 -0.6,-0.7 -0.1,-0.9 v -0.3 l 0.4,-0.9 0.7,-0.5 1.2,-0.1 1.5,0.2 1.4,0.5 0.9,0.7 0.1,0.9 v 0.6 l -0.4,0.8 -0.7,0.3 m -51.7,-44 0.2,0.2 0.2,0.7 v 0.4 l -0.3,0.6 -0.8,0.9 -0.7,0.1 h -0.4 l -0.6,-0.2 -0.4,-0.4 -0.2,-0.7 -0.2,-1 0.1,-4.3 -3,2.9 m 2.3,6.4 0.5,-0.8 -0.2,-0.7 -0.4,-0.4 -0.6,-0.3 -0.7,0.2 -1.1,0.6 -0.8,0.4 h -0.9 l -0.6,-0.2 -0.6,-0.7 -0.2,-0.6 v -0.5 l 0.5,-0.8 0.8,-0.8 0.9,-0.4 h 0.4 l 0.6,0.2 0.7,0.7 0.2,0.6 -0.1,0.9 -0.4,0.8 -0.7,1.1 -0.2,0.6 0.2,0.6 0.4,0.5 0.6,0.2 0.9,-0.4 0.9,-0.9 m 42.8,139 v -3.3 l 2.4,1.8 v -0.9 l 0.3,-0.6 0.3,-0.3 0.9,-0.3 h 0.6 l 0.9,0.3 0.6,0.6 0.3,0.9 v 0.9 l -0.3,0.9 -0.3,0.3 -0.6,0.3 m -5.1,-6.9 0.3,0.9 0.6,0.3 h 0.6 l 0.6,-0.3 0.3,-0.6 0.3,-1.2 0.3,-0.9 0.6,-0.6 0.6,-0.3 h 0.9 l 0.6,0.3 0.3,0.3 0.3,0.9 v 1.2 l -0.3,0.9 -0.3,0.3 -0.6,0.3 H 256 l -0.6,-0.3 -0.6,-0.6 -0.3,-0.9 -0.3,-1.2 -0.3,-0.6 -0.6,-0.3 h -0.6 l -0.6,0.3 -0.3,0.9 v 1.4 m -15.8,33.3 -2.4,4.5 4.4,-0.5 m -2,-4 0.8,6.2 m 5.4,-6.9 -2.9,0.4 v 2.7 l 0.3,-0.4 0.8,-0.4 0.9,-0.1 0.9,0.2 0.7,0.5 0.4,0.9 0.1,0.6 -0.2,0.9 -0.5,0.7 -0.9,0.4 -0.9,0.1 -0.9,-0.2 -0.3,-0.3 -0.4,-0.5 m -28.4,-29 -5.1,-0.8 2,4 m 3.1,-3.2 -5.6,2.8 m 7.6,3.2 0.4,-0.5 -0.2,-0.9 -0.2,-0.6 -0.7,-0.6 -1.1,-0.2 -1.5,0.4 -1.3,0.7 -0.9,0.8 -0.3,0.8 0.1,0.9 0.1,0.3 0.7,0.7 0.8,0.2 1,-0.1 0.2,-0.1 0.7,-0.7 0.3,-0.8 -0.2,-0.9 -0.1,-0.3 -0.7,-0.7 -0.8,-0.3 -0.9,0.2 m -30.7,-72 -5.1,-0.9 2,4.1 m 3.1,-3.2 -5.7,2.8 m 6.6,4 -0.9,0.1 -0.8,-0.2 -0.7,-0.7 -0.1,-0.3 -0.1,-0.9 0.2,-0.8 0.7,-0.7 0.3,-0.1 0.9,-0.1 0.8,0.2 0.7,0.7 0.1,0.3 0.1,0.9 -0.2,0.8 -1,0.8 -1.3,0.7 -1.5,0.4 -1.1,-0.2 -0.6,-0.6 -0.3,-0.6 -0.1,-0.9 0.4,-0.6 m 2.5,-49.2 2.2,-2 -1.6,-2.2 v 0.4 l -0.5,0.9 -0.7,0.6 -0.8,0.3 h -0.9 l -0.8,-0.5 -0.4,-0.4 -0.4,-0.9 v -0.8 l 0.5,-0.8 0.7,-0.6 0.8,-0.4 h 0.5 l 0.6,0.2 m -1.9,8.6 0.5,-0.8 -0.2,-1.1 -0.7,-1.3 -0.7,-0.7 -1.2,-0.9 -1,-0.2 -0.9,0.4 -0.4,0.4 -0.5,0.8 0.2,1.1 0.7,1.3 0.7,0.6 1.2,1 1,0.2 0.9,-0.4 0.3,-0.3 m 57.5,203.8 4.8,2.1 -0.9,-4.4 m -3.9,2.3 6.2,-1.3 m -6.4,-5 -0.6,0.4 -0.1,0.9 0.1,0.6 0.5,0.8 1,0.4 h 1.5 l 1.5,-0.3 1.1,-0.5 0.5,-0.7 0.1,-0.9 -0.1,-0.3 -0.4,-0.9 -0.7,-0.4 -1,-0.1 h -0.3 l -0.8,0.5 -0.5,0.7 -0.1,0.9 0.1,0.3 0.5,0.9 0.7,0.4 0.9,0.1 m -36.3,-7.9 1,-5 -4.1,1.8 m 3.1,3.2 -2.6,-5.7 m -4.3,6.4 -0.1,-0.9 0.3,-0.8 0.7,-0.7 0.3,-0.1 0.9,-0.1 0.8,0.3 0.7,0.7 0.1,0.3 0.1,0.9 -0.3,0.8 -0.7,0.7 -0.3,0.1 -0.9,0.1 -0.8,-0.3 -0.8,-1 -0.6,-1.4 -0.3,-1.4 0.1,-1.1 0.7,-0.7 0.6,-0.2 0.9,-0.1 0.6,0.4 m -33.1,47.7 0.1,-3 -2.7,-0.4 0.3,0.3 0.3,0.9 v 0.9 l -0.3,0.9 -0.7,0.6 -0.9,0.3 h -0.6 l -0.9,-0.4 -0.5,-0.6 -0.3,-0.9 v -0.9 l 0.3,-0.9 0.3,-0.3 0.6,-0.3 m 3.6,5.4 0.3,0.6 0.9,0.9 -6.3,-0.1 m 87.9,16.4 4.7,2.1 -0.9,-4.4 m -3.8,2.3 6.1,-1.3 m -7.4,-4.8 0.7,3 2.7,-0.3 -0.4,-0.2 -0.5,-0.9 -0.1,-0.8 0.1,-1 0.4,-0.7 0.8,-0.5 0.6,-0.1 1,0.1 0.7,0.5 0.5,0.8 0.1,0.9 -0.1,0.9 -0.2,0.4 -0.5,0.4 m 9.1,62.4 -0.8,-3.2 2.8,1.2 -0.3,-0.9 0.2,-0.6 0.2,-0.4 0.8,-0.5 0.6,-0.1 1,0.1 0.7,0.4 0.5,0.8 0.2,0.9 -0.1,0.9 -0.2,0.4 -0.5,0.4 m -6.6,-5.5 0.5,0.8 0.7,0.2 0.6,-0.1 0.5,-0.5 0.1,-0.6 v -1.3 l 0.1,-0.9 0.5,-0.7 0.5,-0.5 0.9,-0.2 0.6,0.2 0.4,0.2 0.5,0.8 0.3,1.2 -0.1,0.9 -0.3,0.4 -0.5,0.4 -0.8,0.2 -0.7,-0.1 -0.7,-0.5 -0.5,-0.8 -0.6,-1.1 -0.4,-0.5 -0.7,-0.1 -0.6,0.1 -0.5,0.4 -0.1,1 0.4,1.3 m -44.4,18.8 0.1,-0.3 0.4,-0.5 0.3,-0.3 0.6,-0.2 1.2,0.2 0.6,0.4 0.2,0.4 0.2,0.6 -0.1,0.6 -0.4,0.6 -0.7,0.7 -3.5,2.5 4.2,0.7 m 5.6,-3.3 -0.4,0.8 -0.7,0.5 -0.9,0.2 -0.3,-0.1 -0.9,-0.4 -0.5,-0.7 -0.1,-1 v -0.3 l 0.5,-0.8 0.7,-0.5 0.9,-0.1 h 0.3 l 0.8,0.5 0.5,0.6 0.1,1.3 -0.2,1.5 -0.5,1.4 -0.8,0.8 -0.9,0.1 -0.6,-0.1 -0.8,-0.4 -0.2,-0.7 m -104.3,-67.4 -3.1,-1.2 2.5,-1.6 -0.8,-0.3 -0.5,-0.5 -0.1,-0.4 v -1 l 0.2,-0.5 0.6,-0.8 0.8,-0.3 h 1 l 0.8,0.4 0.7,0.6 0.2,0.4 0.1,0.6 m -9.7,-0.5 0.6,-0.7 0.7,-0.4 1,0.1 0.3,0.1 0.7,0.6 0.3,0.7 v 1 l -0.1,0.3 -0.6,0.7 -0.8,0.4 -0.9,-0.1 -0.3,-0.1 -0.8,-0.6 -0.3,-0.8 0.2,-1.2 0.5,-1.4 0.8,-1.3 0.9,-0.6 h 1 l 0.5,0.2 0.7,0.6 0.1,0.7 m -48.6,26.9 -3,-4.3 -1.5,4.3 m 4.5,0 -6,-2.1 m 4,7.5 -2.9,-4.2 -1.5,4.2 m 4.4,0 -5.9,-2.1 m 39.2,31.5 3.3,-0.1 -1.7,2.4 h 0.9 l 0.6,0.3 0.3,0.3 0.3,0.8 v 0.6 l -0.2,1 -0.6,0.6 -0.9,0.3 h -0.9 l -0.9,-0.2 -0.3,-0.3 -0.3,-0.6 m 6.9,-5.4 -0.9,0.4 -0.5,0.9 -0.3,1.5 0.1,0.9 0.3,1.5 0.6,0.9 0.9,0.2 h 0.6 l 0.9,-0.3 0.6,-0.9 0.3,-1.5 -0.1,-0.9 -0.3,-1.5 -0.7,-0.9 -0.9,-0.3 h -0.4"
       id="nums_001"
       stroke="#000000"
       stroke-width="1" />
    <path
       d="m 13.3,343.3 54.2,-118.4 66.5,14 56.1,-64.1 -65.3,54.8 -66.7,-12.8 -39.2,-75.7 49.7,8.6 -11.1,-39.9 63.9,-0.3 4.1,-58 88.9,-37.3 26.3,76.9 41,76.5 -7.2,121.9 -14.6,115.7 0.3,74.4 -41.3,5.2 -28.6,-57.5 -38.2,-78 35.2,-32.2 34.4,-32.2 -37.8,28.1 -54.5,5.5 1.8,40.7 -41.8,1.7 23.4,66.4 70.1,6.9 -7.5,41.2 -23.5,29.8 -3.6,48.6 -60.2,18 -70.1,-4.1 27.4,-57.2 28.7,-21.8 -32.4,-16 -6.8,-62.8 z m 231.9,228.6 8.7,40.7 17.2,72.4 -115.1,-18.8 -122,4.2 32.2,-90.9 85.3,33 1.8,-68.3 79.3,-35.3 z"
       id="coupes_001"
       stroke="#ff0000"
       stroke-width="1.27"
       sodipodi:nodetypes="cccccccccccccccccccccccccccccccccccccccccccccccc" />
    <path
       d="m 190.1,174.8 31.6,110.1 M 183.9,313 134,238.9 m 56.1,-64.1 91.6,-7.2 m 0,0 -60,117.3 M 190.1,174.8 240.7,91.1 M 121.4,109.5 240.7,91.1 m -50.6,83.7 -68.7,-65.3 m 4.1,-58 115.2,39.6 m 33.8,198.4 -52.8,-4.6 M 68.6,149.7 121.4,109.5 m 68.7,65.3 -121.5,-25.1 m 60.8,168.8 -40,42.4 m 0,0 44.6,-122 M 60.5,323.4 134,238.9 m -73.5,84.5 7,-98.5 m 21.9,136 -54.9,48.9 m 0,0 26,-86.4 m 0,0 -47.2,19.9 m 99.5,84 -78.3,-17.5 m 78.3,17.5 -71.1,45.4 m 71.1,-45.4 -38.7,61.4 m 77.8,16.5 -77.8,-16.5 m 38.7,-61.4 39.1,77.9 m -3.6,48.6 -74.2,-65.1 m 14,83.1 -42.7,-61.3 m 67.4,-83.2 62.6,48.1 m 84.5,-70.2 -38.2,-120.3 m 38.2,120.3 -72.6,-88.1 m 72.6,88.1 -69.6,22.1 m 0,0 -3,-110.2 m 72.9,162.5 -69.9,-52.3 m 54.9,144.6 -91.9,-27.7 m 91.9,27.7 -93.7,40.6 m 102.4,0.1 -102.4,-0.1 m 102.4,0.1 -97.9,53.6 m 0,0 -89.8,-86.7"
       id="plisM_001"
       stroke="#a52a2a"
       stroke-dasharray="4" />
    <path
       d="m 183.9,313 6.2,-138.2 m -60.7,143.7 4.6,-79.6 m -9.2,-9.3 -56.2,-79.9 M 89.4,360.9 60.5,323.4 m 27.6,248.4 -14,-83.1 m -16,-271.9 10.5,-67.1 m 87.4,516.5 -4.5,-53.7"
       id="plisV_001"
       stroke="#008000"
       stroke-dasharray="4, 1, 1, 1"
       stroke-width="1.27" />
    <path
       d="m 185,241.9 4,4 m 0,-4 -4,4 m -55.3,30.8 4,4 m 0,-4 -4,4 m -35,-93 4,4 m 0,-4 -4,4 M 73,340.1 l 4,4 m 0,-4 -4,4 m 6.1,184.1 4,4 m 0,-4 -4,4 m -17.7,-350.9 4,4 m 0,-4 -4,4 m 90.3,452 4,4 m 0,-4 -4,4"
       id="marqueV_001"
       stroke="#008000" />
    <path
       d="m 115.3,297.3 1.5,-0.8 2.3,-2.2 V 310"
       id="titre_1"
       stroke="#4b0082" />
    <path
       d="m 182.6,621.8 v -0.7 l 0.7,-1.5 0.8,-0.8 1.5,-0.7 h 3 l 1.5,0.7 0.7,0.8 0.8,1.5 v 1.5 l -0.8,1.5 -1.5,2.2 -7.5,7.5 h 10.5"
       id="titre_2"
       stroke="#4b0082" />
  </g>
  <g
     id="page_002">
    <path
       d="m 524.6,212.1 h 0.9 l 0.8,-0.8 0.6,-1.4 0.2,-0.9 0.1,-1.5 -0.4,-1 -0.8,-0.5 -0.6,-0.1 -1,0.1 -0.7,0.7 -0.7,1.4 -0.2,0.9 v 1.5 l 0.4,1 0.8,0.5 0.4,0.1 m -16,19.5 0.2,1 -0.2,0.8 -0.6,0.7 -0.2,0.2 -1,0.2 -0.8,-0.2 -0.7,-0.6 -0.2,-0.3 -0.2,-0.9 0.2,-0.8 0.6,-0.8 0.3,-0.1 0.9,-0.2 0.8,0.2 0.9,0.8 0.8,1.3 0.5,1.4 v 1.1 l -0.6,0.8 -0.5,0.3 -1,0.2 -0.5,-0.4 M 384.9,201 l -6.8,-1.5 m 5.8,-2.6 1,4.1 m 41.9,74.3 0.4,-0.5 0.4,-1.2 2.7,5.7 m -0.1,-7.1 -0.7,0.6 -0.1,1.1 0.3,1.5 0.4,0.8 0.9,1.2 0.9,0.6 1,-0.1 0.5,-0.3 0.7,-0.6 0.2,-1.1 -0.4,-1.5 -0.4,-0.8 -0.9,-1.2 -0.9,-0.6 -0.9,0.1 -0.4,0.2 m -59.6,-143.6 0.4,0.6 1,0.8 -6.3,0.7 m 6.8,1.9 -0.4,-0.9 -0.6,-0.2 -0.6,0.1 -0.6,0.3 -0.2,0.7 -0.2,1.2 -0.2,0.9 -0.5,0.7 -0.5,0.3 -0.9,0.1 -0.7,-0.2 -0.3,-0.2 -0.4,-0.9 -0.1,-1.2 0.2,-0.9 0.2,-0.4 0.6,-0.3 0.9,-0.1 0.6,0.2 0.7,0.5 0.4,0.9 0.4,1.1 0.4,0.6 0.6,0.2 h 0.6 l 0.6,-0.4 0.2,-0.9 -0.2,-1.4 m 56.2,-6 -0.2,0.2 -0.7,0.1 -0.4,-0.1 -0.6,-0.3 -0.6,-1 -0.1,-0.7 0.1,-0.4 0.3,-0.6 0.5,-0.3 0.6,-0.1 h 1.1 l 4.2,0.8 -2.4,-3.5 m -7.6,0 5.1,0.2 -2.5,-3.8 m -2.6,3.6 5.2,-3.5 m -7.8,-39.2 -0.3,-0.1 -0.4,-0.5 -0.2,-0.4 V 76 l 0.5,-1.1 0.5,-0.4 0.4,-0.1 0.7,-0.1 0.5,0.3 0.5,0.5 0.5,0.9 1.5,4 1.8,-3.8 m -3.8,-6.9 -1.2,2.7 2.3,1.4 -0.2,-0.4 0.1,-1 0.4,-0.8 0.7,-0.7 0.8,-0.3 0.9,0.1 0.6,0.3 0.6,0.6 0.3,0.8 -0.1,1 -0.3,0.8 -0.7,0.7 -0.4,0.1 -0.7,0.1 m -60.7,-13.4 0.4,0.6 0.9,0.9 -6.3,0.3 m 6.8,4.8 -6.4,-2.6 m 6.2,-1.5 0.2,4.1 m 60.3,-28.9 -0.5,-0.5 -1.1,-0.6 6,-1.9 m -5.2,0.5 -0.4,-0.5 -1.2,-0.5 6,-1.9 m -33.5,-3.8 -0.6,0.5 -0.6,1.1 -1.5,-6.2 m -1.3,7.1 0.8,-0.5 0.3,-1.1 v -1.5 l -0.2,-0.9 -0.7,-1.3 -0.8,-0.8 h -0.9 l -0.6,0.1 -0.8,0.5 -0.4,1 0.1,1.6 0.2,0.8 0.6,1.4 0.8,0.7 1,0.1 0.4,-0.1 m 120.5,133 0.1,-0.6 -0.1,-1.3 4.9,3.9 m -1.4,-7.2 -0.6,-0.1 -0.8,0.5 -0.4,0.5 -0.3,0.9 0.3,1 1,1.2 1.1,0.9 1.2,0.5 0.8,-0.1 0.8,-0.5 0.2,-0.2 0.3,-0.9 -0.1,-0.9 -0.5,-0.8 -0.2,-0.1 -0.9,-0.4 -0.9,0.1 -0.8,0.5 -0.1,0.3 -0.4,0.9 0.1,0.8 0.5,0.8 m 26.9,-59.8 -0.3,-0.1 -0.5,-0.4 -0.3,-0.3 -0.2,-0.7 0.2,-1.2 0.4,-0.5 0.4,-0.2 0.6,-0.2 0.6,0.1 0.5,0.4 0.8,0.7 2.5,3.5 0.7,-4.2 m -4.5,-2.4 -0.3,-0.1 -0.5,-0.4 -0.2,-0.3 -0.2,-0.7 0.2,-1.1 0.4,-0.6 0.3,-0.2 0.7,-0.2 0.5,0.1 0.6,0.4 0.8,0.7 2.4,3.5 0.7,-4.1 m -105.7,11.8 0.3,-0.1 0.7,0.2 0.3,0.2 0.5,0.5 0.2,1.2 -0.1,0.6 -0.2,0.4 -0.5,0.4 -0.6,0.2 -0.7,-0.2 -1,-0.4 -3.6,-2.2 1,4.1 m 7.2,2.7 -4.8,-1.9 1,4.3 m 3.8,-2.4 -6.2,1.5 m 12.9,-47.7 0.3,0.2 0.4,0.5 0.1,0.5 -0.1,0.6 -0.6,1 -0.6,0.4 -0.4,0.1 -0.7,-0.1 -0.5,-0.3 -0.3,-0.5 -0.5,-1 -1,-4.2 -2.2,3.6 m 2.9,7.4 1.6,-2.6 -2.2,-1.7 0.1,0.4 -0.2,1 -0.4,0.7 -0.8,0.6 -0.8,0.2 -0.9,-0.2 -0.5,-0.3 -0.6,-0.7 -0.2,-0.8 0.2,-1 0.4,-0.7 0.8,-0.6 0.4,-0.1 h 0.6 m 61.6,-5.4 0.9,-0.1 0.4,-0.5 0.1,-0.6 -0.2,-0.7 -0.5,-0.4 -1.2,-0.5 -0.8,-0.4 -0.5,-0.7 -0.2,-0.7 0.2,-0.9 0.4,-0.5 0.3,-0.2 1,-0.2 1.2,0.2 0.8,0.5 0.2,0.3 0.2,0.7 -0.1,0.9 -0.4,0.5 -0.7,0.5 -1,0.1 -1.2,0.1 -0.6,0.2 -0.4,0.5 -0.1,0.6 0.1,0.7 0.9,0.4 1.3,0.3 m -4.5,-0.8 -3.3,-0.6 2.2,-2.1 -0.9,-0.1 -0.5,-0.4 -0.2,-0.4 -0.2,-0.9 0.1,-0.6 0.5,-0.8 0.7,-0.5 0.9,-0.2 0.9,0.2 0.8,0.4 0.3,0.4 0.2,0.6 m -157.9,186.6 2.1,-6.6 m 2.1,6 -4.2,0.6 m 13.1,50 0.5,-0.5 0.6,-1.1 1.6,6.1 m 3.4,-7.6 -1.3,6.9 m -2.8,-5.8 4.1,-1.1 m -37,-22.4 0.4,0.5 1.1,0.6 -6,1.8 m 7,0.7 -0.5,-0.8 -0.7,-0.1 -0.6,0.2 -0.5,0.5 -0.1,0.6 0.1,1.3 v 0.9 l -0.5,0.7 -0.4,0.5 -0.9,0.3 -0.7,-0.2 -0.3,-0.2 -0.6,-0.7 -0.3,-1.2 v -0.9 l 0.2,-0.4 0.5,-0.5 0.9,-0.2 0.6,0.1 0.8,0.4 0.5,0.8 0.6,1 0.5,0.5 0.7,0.1 0.5,-0.1 0.5,-0.5 0.1,-0.9 -0.4,-1.3 m 41.5,157.6 -5.1,0.5 2.9,3.4 m 2.2,-3.9 -4.7,4.2 m 8.5,0.2 -5.1,0.5 2.9,3.4 m 2.2,-3.9 -4.7,4.1 m -6,-76.1 -1.5,2.9 -1.3,-2.7 -0.4,0.8 -0.5,0.4 -0.5,0.1 -0.9,-0.1 -0.5,-0.3 -0.7,-0.7 -0.2,-0.8 0.1,-0.9 0.4,-0.8 0.7,-0.7 0.4,-0.1 h 0.7 m 0.4,10.3 1.4,-2.7 -2.3,-1.5 0.1,0.4 -0.1,0.9 -0.4,0.8 -0.7,0.7 -0.8,0.2 -1,-0.1 -0.5,-0.3 -0.6,-0.7 -0.3,-0.8 0.1,-0.9 0.5,-0.8 0.6,-0.7 0.5,-0.1 h 0.6 m 85.9,41.6 5.2,-4.7 m -1.4,6.3 -3.8,-1.6 m -0.5,-1.7 h -0.6 l -1.2,0.5 2.4,-5.8 m 41.4,73.6 0.5,0.7 0.7,0.2 0.5,-0.2 0.5,-0.5 0.1,-0.6 v -1.3 -0.9 l 0.4,-0.7 0.5,-0.5 0.9,-0.3 0.7,0.2 0.3,0.2 0.6,0.7 0.3,1.2 v 0.9 l -0.2,0.4 -0.5,0.5 -0.9,0.2 -0.6,-0.1 -0.8,-0.4 -0.5,-0.8 -0.7,-1 -0.4,-0.5 -0.7,-0.2 -0.6,0.2 -0.4,0.5 -0.1,0.9 0.4,1.3 m 0.3,-4.1 -0.5,-0.5 -1.1,-0.6 6,-1.8 m -74.2,-154.3 0.6,0.4 0.9,-0.2 0.5,-0.2 0.7,-0.7 0.1,-1.1 -0.4,-1.5 -0.7,-1.3 -0.9,-0.9 -0.8,-0.3 -0.9,0.2 -0.3,0.1 -0.6,0.7 -0.3,0.8 0.2,0.9 0.1,0.3 0.7,0.7 0.8,0.2 0.9,-0.1 0.3,-0.2 0.7,-0.7 0.2,-0.8 -0.1,-0.9 m -7,6 -0.1,-0.9 0.2,-0.8 0.7,-0.7 0.2,-0.2 1,-0.1 0.8,0.2 0.7,0.7 0.1,0.3 0.2,0.9 -0.3,0.8 -0.7,0.7 -0.2,0.1 -1,0.2 -0.8,-0.3 -0.8,-0.9 -0.7,-1.3 -0.4,-1.5 0.1,-1.1 0.7,-0.6 0.5,-0.3 0.9,-0.2 0.6,0.4 m 33.3,63.4 -1.8,6.8 m -2.3,-6 4.1,-0.8 m 1.3,1.2 0.6,-0.4 0.7,-1 1.1,6.1 m -30.7,173.1 -0.4,-0.6 -0.9,-0.1 -0.6,0.1 -0.9,0.4 -0.4,1 -0.1,1.6 0.3,1.4 0.5,1.2 0.7,0.5 0.9,0.1 h 0.3 l 0.9,-0.5 0.5,-0.7 0.1,-0.9 -0.1,-0.3 -0.4,-0.9 -0.7,-0.4 -0.9,-0.2 -0.3,0.1 -0.9,0.4 -0.5,0.7 -0.1,0.9 m 8.3,-5.6 -1.9,6.7 m -2.3,-6 4.2,-0.7 m -23.7,-33.1 -0.5,3.3 -2.1,-2.2 -0.1,0.9 -0.4,0.5 -0.4,0.3 -0.9,0.1 -0.6,-0.1 -0.9,-0.4 -0.4,-0.7 -0.2,-0.9 0.2,-0.9 0.4,-0.9 0.3,-0.2 0.7,-0.2 m 1.4,9.6 -0.8,-0.4 -0.5,-0.7 -0.1,-1 v -0.3 l 0.4,-0.8 0.7,-0.5 1,-0.1 h 0.3 l 0.8,0.5 0.5,0.6 0.1,1 v 0.3 l -0.4,0.8 -0.7,0.5 -1.3,0.1 -1.4,-0.2 -1.5,-0.6 -0.8,-0.7 -0.1,-0.9 0.1,-0.6 0.4,-0.9 0.7,-0.2 m 76.7,116.3 -2.4,6.5 m -1.8,-6.1 4.2,-0.4 m 1.7,-0.2 3.3,-0.3 -1.6,2.6 0.9,-0.1 0.6,0.2 0.4,0.3 0.3,0.9 0.1,0.6 -0.2,0.9 -0.5,0.6 -0.9,0.4 -0.9,0.1 -0.9,-0.2 -0.4,-0.3 -0.3,-0.5 m -49.3,-74.6 0.4,0.5 0.9,0.1 0.6,-0.1 0.8,-0.5 0.4,-1 v -1.5 l -0.3,-1.5 -0.6,-1.1 -0.7,-0.4 -0.9,-0.1 h -0.3 l -0.8,0.5 -0.5,0.7 -0.1,1 0.1,0.3 0.4,0.8 0.8,0.4 0.9,0.1 h 0.3 l 0.8,-0.5 0.5,-0.7 0.1,-1 m -5.5,5.5 0.8,-0.5 0.2,-0.6 -0.2,-0.6 -0.4,-0.5 -0.6,-0.2 h -1.3 l -0.9,-0.1 -0.7,-0.5 -0.5,-0.5 -0.2,-0.9 0.2,-0.6 0.2,-0.4 0.8,-0.5 1.2,-0.2 1,0.1 0.3,0.2 0.4,0.5 0.2,0.9 -0.1,0.7 -0.5,0.7 -0.8,0.5 -1.1,0.5 -0.5,0.4 -0.2,0.7 0.1,0.6 0.5,0.5 0.9,0.1 1.3,-0.3 m -8.9,72.6 -2.5,6.5 m -1.7,-6.3 4.2,-0.2 m 1.8,1.4 v -0.3 l 0.2,-0.7 0.3,-0.3 0.6,-0.3 1.2,-0.1 0.6,0.3 0.3,0.3 0.4,0.5 v 0.6 l -0.3,0.7 -0.5,0.9 -2.8,3.2 4.2,-0.3 m -87.3,-89.3 -2.8,-6.4 m 5.6,3.2 -2.8,3.2 m -3.1,3.6 2,-2.3 -1.9,-2 0.1,0.4 -0.4,0.9 -0.6,0.7 -0.8,0.5 h -0.9 l -0.8,-0.3 -0.5,-0.4 -0.5,-0.9 v -0.8 l 0.3,-0.9 0.6,-0.7 0.8,-0.4 0.5,-0.1 0.6,0.2 m 31.7,1.2 6.5,-2.4 m -3.5,5.4 -3,-3 m -3.1,-2.9 5.1,-0.9 -3.3,-3.2 m -1.8,4.1 4.4,-4.5 m -45.5,65.4 -6.4,-2.8 m 6.3,-1.4 0.1,4.2 m -0.8,4.8 0.6,-0.3 0.3,-1 V 620 l -0.4,-0.8 -0.9,-0.6 -1.5,-0.3 -1.5,0.1 -1.2,0.3 -0.5,0.6 -0.3,0.9 v 0.3 l 0.3,0.9 0.6,0.6 0.9,0.3 h 0.3 l 0.9,-0.4 0.6,-0.6 0.3,-0.9 v -0.3 l -0.4,-0.9 -0.6,-0.6 -0.9,-0.2 m 215.7,15.2 -0.9,0.4 -0.2,0.6 0.1,0.6 0.3,0.6 0.7,0.2 1.2,0.2 0.9,0.2 0.7,0.5 0.3,0.6 0.1,0.8 -0.2,0.7 -0.3,0.3 -0.8,0.4 -1.2,0.1 -0.9,-0.2 -0.4,-0.2 -0.3,-0.6 -0.1,-0.9 0.2,-0.6 0.5,-0.7 0.9,-0.4 1.1,-0.4 0.6,-0.4 0.2,-0.6 v -0.6 l -0.4,-0.6 -0.9,-0.2 -1.4,0.2 m 4.7,1 v -0.3 l 0.2,-0.6 0.2,-0.4 0.6,-0.3 1.2,-0.2 0.6,0.2 0.4,0.3 0.3,0.6 0.1,0.6 -0.2,0.6 -0.5,1 -2.7,3.3 4.2,-0.5 m 21.1,-40.5 6.3,3 m -6.3,1.2 v -4.2 m 0.9,-4.8 -0.6,0.3 -0.3,0.9 v 0.6 l 0.3,0.9 0.9,0.6 1.5,0.3 h 1.5 l 1.2,-0.3 0.6,-0.6 0.3,-0.9 v -0.3 l -0.3,-0.9 -0.6,-0.6 -0.9,-0.3 h -0.3 l -0.9,0.3 -0.6,0.6 -0.3,0.9 v 0.3 l 0.3,0.9 0.6,0.6 0.9,0.3 m -23.8,-46.5 0.9,0.2 0.6,-0.4 0.3,-0.5 v -0.7 l -0.3,-0.5 -0.9,-0.9 -0.7,-0.7 -0.2,-0.8 v -0.7 l 0.5,-0.8 0.5,-0.3 0.5,-0.1 0.9,0.1 1,0.6 0.7,0.7 0.1,0.5 -0.1,0.6 -0.4,0.8 -0.6,0.4 -0.8,0.2 -0.9,-0.2 -1.2,-0.3 -0.7,-0.1 -0.5,0.4 -0.3,0.5 -0.1,0.7 0.7,0.7 1.1,0.7 m -6.6,-3.8 2.6,1.5 1.6,-2.2 -0.4,0.1 -0.9,-0.2 -0.8,-0.4 -0.6,-0.7 -0.2,-0.8 0.2,-1 0.3,-0.5 0.7,-0.6 0.8,-0.2 0.9,0.1 0.8,0.5 0.6,0.7 0.1,0.4 v 0.7 m -48.5,-232.5 4.9,-5 m -1,6.3 -3.9,-1.3 m -4.9,-1.7 4.9,-5 m -1,6.3 -3.9,-1.3 m 15.7,32.6 3,6.3 m -5.7,-3 2.7,-3.3 m 1.7,-2 -0.4,0.9 0.3,0.6 0.5,0.4 0.6,0.1 0.6,-0.3 1,-0.7 0.8,-0.5 0.9,-0.1 0.6,0.1 0.7,0.6 0.3,0.6 v 0.4 l -0.3,0.9 -0.7,1 -0.8,0.5 h -0.5 l -0.6,-0.1 -0.7,-0.6 -0.3,-0.6 -0.1,-0.9 0.4,-0.8 0.5,-1.2 0.1,-0.6 -0.3,-0.6 -0.4,-0.4 -0.7,-0.2 -0.8,0.6 -0.8,1 m -180.1,345.9 -0.4,-0.9 -0.6,-0.2 -0.6,0.1 -0.6,0.4 -0.2,0.6 -0.2,1.2 -0.1,1 -0.5,0.6 -0.6,0.4 -0.9,0.1 -0.6,-0.2 -0.4,-0.3 -0.4,-0.8 -0.1,-1.2 0.1,-0.9 0.3,-0.4 0.6,-0.3 0.8,-0.2 0.7,0.3 0.7,0.5 0.4,0.8 0.4,1.2 0.4,0.5 0.6,0.3 0.6,-0.1 0.6,-0.4 0.2,-0.9 -0.2,-1.4 m -0.9,4.7 h 0.3 l 0.6,0.2 0.4,0.2 0.3,0.6 0.2,1.2 -0.2,0.6 -0.3,0.4 -0.5,0.3 -0.6,0.1 -0.7,-0.2 -0.9,-0.5 -3.4,-2.6 0.5,4.2 m 24.4,20.5 -3,6.3 m -1.2,-6.3 h 4.2 m 1.7,-0.1 h 3.3 l -1.8,2.4 h 0.9 l 0.6,0.3 0.3,0.3 0.3,0.9 0.1,0.6 -0.3,0.9 -0.6,0.6 -0.9,0.3 h -0.9 l -0.9,-0.3 -0.3,-0.3 -0.3,-0.6 m 23,-32.7 5.5,4.3 m -6.4,-0.2 0.9,-4.1 m 1.8,-1.3 -0.2,-0.1 -0.6,-0.4 -0.2,-0.4 -0.2,-0.6 0.3,-1.2 0.4,-0.5 0.4,-0.3 0.6,-0.1 0.6,0.1 0.5,0.4 0.8,0.8 2.3,3.6 0.9,-4.1"
       id="nums_002"
       stroke="#000000"
       stroke-width="1" />
    <path
       d="m 466,264.7 -65.6,30.4 -63.4,16.7 -20.2,-67.5 67.6,-9.7 -15.8,-66.5 -8.3,-69.9 -3.6,-65.4 70.2,-17.4 12.1,38.2 -20.7,45 26.9,39.6 -11.3,-46.5 25.9,-42.2 98,17.4 -12,69.2 -49,61.2 57.8,13.3 z m -44.6,124 59.1,25 33,112.4 54.5,31.2 -0.5,80.2 -66.6,7.7 -47,4.4 -71.5,4.6 -15.5,70 -47.3,0.6 -8.8,-66.4 -2.1,-80.2 38.9,-44.8 38.8,37.9 76.9,-16.9 -74.6,12.8 14.9,-90.2 -63.6,-72.5 40.1,-76.9 72.1,-37.8 80.3,27.8 -48,59.2 z"
       id="coupes_002"
       stroke="#ff0000"
       stroke-width="1.27"
       sodipodi:nodetypes="cccccccccccccccccccccccccccccccccccccccccc" />
    <path
       d="M 384.4,234.6 496.8,197.3 M 466,264.7 384.4,234.6 m -15.8,-66.5 128.2,29.2 m -96.4,97.8 -16,-60.5 m -15.8,-66.5 76.6,-29.9 m 0,0 51.6,59.1 m -136.5,-99.1 84.9,40 m -84.9,-40 58,0.4 M 360.3,98.2 439,53.6 M 356.7,32.8 439,53.6 m 6.2,84.6 100.6,-2.1 M 445.2,138.2 557.8,66.9 M 433.9,91.7 557.8,66.9 M 400.4,295.1 316.8,244.3 m 23.2,160.2 81.4,-15.8 m 0,0 -17.8,88.3 m -23.5,-149.4 41.3,61.1 m 59.1,25 -76.9,63.3 M 513.5,526.1 403.6,477 m 59.7,77.4 -59.7,-77.4 m 48.6,-187.2 -30.8,98.9 m 30.8,-98.9 32.3,87 m 29,149.3 -12.6,119.1 m 0,0 -37.6,-90.8 m -9.4,95.2 9.4,-95.2 m -9.4,95.2 -67.5,-78.3 m -4,82.9 4,-82.9 m -4,82.9 -73.7,-76 m 73.7,76 -71.6,4.2 m 202.7,-132.3 54,111.4 m -185.1,16.7 -62.8,70.6"
       id="plisM_002"
       stroke="#a52a2a"
       stroke-dasharray="4" />
    <path
       d="m 466,264.7 30.8,-67.4 m 16.7,328.8 -50.2,28.3 m -154.6,23.8 77.7,-6.9"
       id="plisV_002"
       stroke="#008000"
       stroke-dasharray="4, 1, 1, 1"
       stroke-width="1.27" />
    <path
       d="m 479.4,229 4,4 m 0,-4 -4,4 m 7,305.3 4,4 m 0,-4 -4,4 m -140.8,30.5 4,4 m 0,-4 -4,4"
       id="marqueV_002"
       stroke="#008000" />
    <path
       d="m 432.8,155.5 h 8.2 l -4.5,6 h 2.3 l 1.5,0.8 0.7,0.7 0.8,2.3 v 1.5 l -0.8,2.2 -1.5,1.5 -2.2,0.8 H 435 l -2.2,-0.8 -0.8,-0.7 -0.7,-1.5"
       id="titre_3"
       stroke="#4b0082" />
    <path
       d="m 420.3,520.3 -7.5,10.5 H 424 m -3.7,-10.5 v 15.8"
       id="titre_4"
       stroke="#4b0082" />
  </g>
  <g
     id="page_003">
    <path
       d="m 642.2,274.3 2.8,-1.3 -1,-2.5 -0.1,0.4 -0.7,0.6 -0.8,0.4 -0.9,0.1 -0.8,-0.2 -0.7,-0.7 -0.2,-0.6 -0.2,-0.9 0.3,-0.8 0.7,-0.7 0.8,-0.4 0.9,-0.1 0.4,0.2 0.6,0.4 m -3.2,7.1 -2.9,1.5 0.6,-3 -0.9,0.4 h -0.6 l -0.4,-0.1 -0.7,-0.7 -0.3,-0.5 -0.1,-1 0.3,-0.8 0.7,-0.7 0.8,-0.3 0.9,-0.2 0.4,0.2 0.6,0.4 m -16,44.2 h 0.3 l 0.6,0.3 0.2,0.3 0.3,0.7 -0.1,1.2 -0.3,0.5 -0.4,0.3 -0.6,0.3 -0.6,-0.1 -0.6,-0.3 -0.8,-0.7 -2.8,-3.2 -0.3,4.2 m 5.9,5.6 -6.1,-3.4 m 6.4,-0.7 -0.3,4.1 m -8.1,58.9 0.3,0.1 0.5,0.4 0.3,0.3 0.2,0.7 -0.2,1.1 -0.4,0.6 -0.4,0.2 -0.6,0.2 -0.6,-0.1 -0.6,-0.4 -0.7,-0.7 -2.5,-3.5 -0.7,4.1 m 4.5,5.6 0.6,-0.2 0.5,-0.8 0.1,-0.6 -0.2,-0.9 -0.7,-0.8 -1.5,-0.5 -1.4,-0.3 -1.3,0.1 -0.7,0.5 -0.4,0.8 -0.1,0.3 0.2,0.9 0.4,0.7 0.9,0.5 h 0.3 l 0.9,-0.1 0.7,-0.5 0.5,-0.8 v -0.3 l -0.1,-0.9 -0.5,-0.7 -0.8,-0.5 m 96.8,-123.9 3,-0.2 0.1,-2.8 -0.3,0.4 -0.9,0.3 -0.9,0.1 -0.9,-0.2 -0.6,-0.6 -0.4,-0.9 v -0.6 l 0.2,-0.9 0.6,-0.6 0.8,-0.4 0.9,-0.1 1,0.3 0.3,0.3 0.3,0.5 m -8.5,5.7 3,-0.2 0.1,-2.7 -0.3,0.3 -0.9,0.4 -0.9,0.1 -0.9,-0.3 -0.6,-0.5 -0.4,-0.9 v -0.6 l 0.2,-0.9 0.5,-0.7 0.9,-0.3 0.9,-0.1 0.9,0.2 0.4,0.3 0.3,0.6 m -37.8,144.8 -1.9,-2.4 -2.3,1.4 0.4,0.1 0.8,0.5 0.6,0.7 0.3,0.9 -0.1,0.9 -0.5,0.7 -0.5,0.4 -0.9,0.3 -0.8,-0.1 -0.8,-0.5 -0.6,-0.7 -0.3,-0.9 0.1,-0.4 0.2,-0.6 m 6.5,2.4 0.2,-0.2 0.7,-0.1 h 0.4 l 0.6,0.3 0.8,0.9 0.1,0.7 -0.1,0.4 -0.2,0.6 -0.5,0.4 -0.7,0.1 -1.1,0.1 -4.2,-0.5 2.6,3.3 m -34.9,1.8 -0.7,2.9 2.5,1 -0.2,-0.4 -0.1,-1 0.2,-0.8 0.6,-0.8 0.7,-0.4 0.9,-0.1 0.6,0.2 0.8,0.5 0.4,0.7 0.1,1 -0.2,0.8 -0.6,0.8 -0.3,0.2 -0.7,0.2 m -1.9,-6.6 -0.3,-0.1 -0.5,-0.4 -0.2,-0.4 -0.2,-0.7 0.3,-1.1 0.5,-0.5 0.3,-0.2 0.7,-0.2 0.6,0.2 0.5,0.4 0.7,0.8 2.1,3.7 1.1,-4 m -17.8,7.7 -5,1.1 3.4,3 m 1.6,-4.1 -4.1,4.7 m 5.5,-1.5 0.2,-0.2 0.6,-0.2 0.4,-0.1 0.7,0.2 0.9,0.8 0.2,0.6 v 0.4 l -0.1,0.7 -0.4,0.4 -0.7,0.3 -1,0.3 -4.2,0.2 3.1,2.8 m 116.6,-77.1 -2.9,0.8 0.5,2.7 0.2,-0.4 0.7,-0.5 0.9,-0.3 h 1 l 0.7,0.5 0.5,0.7 0.2,0.6 v 1 l -0.4,0.7 -0.8,0.5 -0.9,0.3 h -0.9 l -0.4,-0.2 -0.4,-0.5 m 7.5,-7.6 -1.1,6.9 m -2.9,-5.7 4,-1.2 m -8.6,69.4 1.7,2.5 2.4,-1.3 -0.4,-0.1 -0.8,-0.5 -0.5,-0.8 -0.2,-0.9 0.1,-0.8 0.6,-0.8 0.5,-0.3 0.9,-0.3 0.8,0.2 0.8,0.6 0.5,0.7 0.3,0.9 -0.1,0.4 -0.3,0.6 m -9.1,-4.1 5.2,0.1 -2.6,-3.7 m -2.6,3.6 5.2,-3.5 m 71.4,-134.1 -0.4,0.5 0.1,1 0.3,0.5 0.6,0.7 1.1,0.1 1.5,-0.4 1.4,-0.6 0.9,-0.8 0.3,-0.8 -0.1,-0.9 -0.2,-0.3 -0.6,-0.7 -0.8,-0.3 -1,0.1 -0.2,0.2 -0.7,0.6 -0.3,0.8 0.1,1 0.2,0.3 0.6,0.6 0.8,0.3 1,-0.1 m -6.3,-3.3 -1.4,-2.9 2.9,0.5 -0.3,-0.8 v -0.6 l 0.1,-0.4 0.7,-0.7 0.5,-0.3 1,-0.1 0.8,0.3 0.6,0.7 0.4,0.8 0.1,0.9 -0.1,0.4 -0.4,0.6 m 21.3,64.8 -0.5,-0.5 -1.2,-0.5 6,-2.1 m -204,136.7 -5,-1.2 1.7,4.2 m 3.3,-3 -5.8,2.3 m 7.3,1.6 -0.6,-0.8 h -0.7 l -0.6,0.2 -0.4,0.5 v 0.7 l 0.1,1.2 0.1,1 -0.4,0.7 -0.4,0.5 -0.8,0.4 -0.7,-0.1 -0.4,-0.1 -0.6,-0.8 -0.5,-1.1 V 476 l 0.2,-0.4 0.4,-0.5 0.8,-0.4 0.7,0.1 0.8,0.3 0.6,0.8 0.7,1 0.5,0.4 0.7,0.1 0.6,-0.3 0.4,-0.5 -0.1,-0.9 -0.5,-1.3 m 16.3,-27.9 1.6,-5 -4.3,1.4 m 2.7,3.6 -1.9,-6 m -1.2,6.9 -3.1,1 1,-2.8 -0.9,0.3 -0.7,-0.1 -0.3,-0.2 -0.6,-0.8 -0.2,-0.6 v -0.9 l 0.4,-0.8 0.8,-0.5 0.8,-0.3 h 1 l 0.4,0.2 0.4,0.5 m 186.5,-31.3 -0.1,-0.7 -0.5,-1.1 5.9,2.1 m -4.6,-6.7 -1,2.9 2.5,1.2 -0.2,-0.4 v -1 l 0.3,-0.8 0.6,-0.8 0.7,-0.4 1,0.1 0.6,0.2 0.7,0.5 0.4,0.8 v 0.9 l -0.3,0.9 -0.6,0.7 -0.4,0.2 -0.7,0.1 m -55.8,3.2 -2.7,-1.3 -1.4,2.3 0.4,-0.1 0.9,0.1 0.8,0.4 0.7,0.6 0.3,0.8 -0.1,1 -0.2,0.5 -0.7,0.7 -0.8,0.3 -0.9,-0.1 -0.9,-0.4 -0.6,-0.7 -0.2,-0.4 v -0.6 m 9.9,-1.1 -4.5,2.5 4,1.9 m 0.5,-4.4 -2.7,5.7 m -24.2,-43.9 1.9,-2.3 -1.8,-2 v 0.5 l -0.4,0.8 -0.5,0.7 -0.8,0.5 -0.9,0.1 -0.9,-0.3 -0.4,-0.4 -0.5,-0.8 -0.1,-0.9 0.3,-0.9 0.6,-0.6 0.8,-0.5 0.5,-0.1 0.6,0.2 m -2.1,10.5 -2.9,-6.4 m 5.6,3.1 -2.7,3.3 m 57.4,-162.1 h -0.6 l -0.7,0.6 -0.3,0.5 -0.2,1 0.4,0.9 1.2,1 1.3,0.8 1.2,0.3 0.8,-0.2 0.7,-0.6 0.1,-0.2 0.2,-1 -0.2,-0.8 -0.6,-0.7 -0.3,-0.2 -0.9,-0.2 -0.8,0.3 -0.7,0.6 -0.2,0.2 -0.2,1 0.2,0.8 0.7,0.7 m 0.4,-9.2 2.1,4.7 2.3,-3.9 m -4.4,-0.8 5.5,3.2 m 4.4,-47.4 0.4,0.8 0.7,0.2 0.6,-0.1 0.5,-0.4 0.2,-0.6 0.1,-1.2 0.2,-1 0.5,-0.7 0.5,-0.4 0.9,-0.1 0.6,0.2 0.4,0.2 0.4,0.9 0.2,1.2 -0.1,0.9 -0.3,0.3 -0.5,0.4 -0.9,0.2 -0.7,-0.2 -0.6,-0.5 -0.5,-0.9 -0.5,-1.1 -0.4,-0.5 -0.6,-0.2 -0.6,0.1 -0.5,0.4 -0.2,0.9 0.2,1.3 m -38.2,-129 0.3,0.1 0.4,0.6 0.1,0.3 0.1,0.7 -0.5,1.1 -0.5,0.4 -0.4,0.2 h -0.7 l -0.5,-0.2 -0.5,-0.5 -0.6,-0.9 -1.5,-4 -1.7,3.9 m 55.2,72.3 2,4.8 2.4,-3.8 m -4.4,-1 5.4,3.4 m -26.5,-51.9 2.1,2.1 2.2,-1.6 h -0.5 l -0.8,-0.5 -0.6,-0.6 -0.5,-0.9 v -0.8 l 0.5,-0.9 0.4,-0.4 0.9,-0.4 h 0.8 l 0.9,0.4 0.6,0.7 0.4,0.8 v 0.5 l -0.2,0.6 m -63.4,-9.6 -0.1,0.3 -0.5,0.5 -0.4,0.1 -0.6,0.1 -1.2,-0.5 -0.4,-0.5 -0.2,-0.4 v -0.7 l 0.2,-0.5 0.5,-0.5 0.9,-0.6 4,-1.6 -3.9,-1.6 m 2.5,102.2 -0.3,-0.5 -1,-0.2 h -0.6 l -0.8,0.4 -0.5,1 -0.2,1.5 0.2,1.5 0.4,1.1 0.6,0.6 1,0.2 h 0.3 l 0.8,-0.4 0.6,-0.7 0.2,-0.9 -0.1,-0.3 -0.3,-0.9 -0.7,-0.5 -0.9,-0.2 h -0.3 l -0.9,0.4 -0.5,0.6 -0.2,1 m 8.1,-5.1 -2.9,0.3 -0.1,2.8 0.3,-0.4 0.9,-0.4 0.9,-0.1 0.9,0.3 0.6,0.5 0.4,0.9 0.1,0.6 -0.2,0.9 -0.6,0.6 -0.8,0.4 -0.9,0.1 -1,-0.2 -0.3,-0.3 -0.3,-0.5 m -43.5,-17.2 0.1,-0.7 -0.5,-0.7 -0.5,-0.4 -0.9,-0.3 -1,0.3 -1.2,1.1 -0.9,1.2 -0.4,1.1 0.1,0.8 0.5,0.8 0.3,0.2 0.9,0.3 0.8,-0.1 0.8,-0.6 0.2,-0.2 0.3,-0.9 -0.2,-0.8 -0.5,-0.8 -0.2,-0.2 -0.9,-0.3 -0.9,0.1 -0.8,0.6 m 8.9,2.5 0.2,-0.6 -0.6,-0.8 -0.5,-0.4 -0.9,-0.3 -1,0.4 -1.1,1 -0.9,1.2 -0.5,1.1 0.1,0.9 0.6,0.8 0.2,0.1 0.9,0.3 0.8,-0.1 0.8,-0.5 0.2,-0.3 0.3,-0.9 -0.1,-0.8 -0.6,-0.8 -0.2,-0.2 -0.9,-0.3 -0.8,0.2 -0.8,0.5 m 8.2,-51.3 1.5,-2.6 -2.2,-1.7 0.1,0.5 -0.2,0.9 -0.4,0.8 -0.7,0.6 -0.9,0.2 -0.9,-0.2 -0.5,-0.3 -0.6,-0.7 -0.2,-0.9 0.2,-0.9 0.4,-0.8 0.7,-0.6 0.4,-0.1 0.7,0.1 m 45.6,88.1 0.5,0.4 0.9,-0.1 0.6,-0.3 0.7,-0.6 0.1,-1.1 -0.3,-1.5 -0.6,-1.3 -0.8,-1 -0.8,-0.3 -1,0.1 -0.2,0.1 -0.7,0.7 -0.3,0.8 0.1,0.9 0.1,0.3 0.7,0.7 0.7,0.3 1,-0.1 0.3,-0.2 0.7,-0.6 0.3,-0.8 -0.1,-0.9 m -6.2,7.4 2.8,-1.3 -0.9,-2.6 -0.1,0.4 -0.7,0.7 -0.8,0.4 -1,0.1 -0.8,-0.3 -0.6,-0.7 -0.3,-0.6 -0.1,-0.9 0.3,-0.8 0.7,-0.7 0.8,-0.3 1,-0.1 0.4,0.1 0.5,0.4 m -58.6,61.6 -3,-0.6 -0.8,2.6 0.3,-0.2 1,-0.1 0.8,0.1 0.9,0.5 0.4,0.7 0.1,1 -0.1,0.6 -0.5,0.8 -0.7,0.5 -0.9,0.1 -0.9,-0.2 -0.8,-0.5 -0.3,-0.4 -0.1,-0.6 m 9.8,-3.1 -3,-0.7 -0.8,2.6 0.3,-0.2 1,-0.1 0.9,0.2 0.8,0.4 0.4,0.8 0.1,0.9 -0.1,0.6 -0.5,0.8 -0.7,0.5 -0.9,0.1 -0.9,-0.2 -0.8,-0.5 -0.2,-0.4 -0.2,-0.6 m 5.3,-59.7 2.8,0.9 1.2,-2.4 -0.4,0.2 h -1 l -0.8,-0.3 -0.8,-0.6 -0.4,-0.7 v -1 l 0.2,-0.6 0.6,-0.7 0.7,-0.4 h 1 l 0.8,0.3 0.8,0.6 0.2,0.3 0.1,0.7 m -9.8,1.2 0.1,0.6 0.7,0.6 0.6,0.2 h 1 l 0.8,-0.7 0.8,-1.3 0.4,-1.4 0.1,-1.3 -0.4,-0.7 -0.7,-0.6 -0.3,-0.1 h -1 l -0.7,0.4 -0.6,0.8 -0.1,0.2 v 1 l 0.4,0.8 0.8,0.5 0.3,0.1 h 0.9 l 0.8,-0.4 0.5,-0.7 m -78.6,53.1 -3,0.6 0.3,2.7 0.2,-0.4 0.8,-0.4 0.9,-0.2 0.9,0.1 0.7,0.5 0.5,0.8 0.1,0.6 -0.1,0.9 -0.4,0.7 -0.9,0.5 -0.8,0.2 -1,-0.1 -0.3,-0.3 -0.5,-0.5 m 4.8,-6.2 3.3,-0.6 -1.3,2.7 0.9,-0.2 0.6,0.2 0.4,0.2 0.4,0.8 0.2,0.6 -0.1,0.9 -0.5,0.8 -0.8,0.4 -0.9,0.2 -1,-0.1 -0.3,-0.2 -0.4,-0.6 m -7,-90.3 -2.2,-2.5 3,-0.2 -0.6,-0.7 -0.2,-0.6 0.1,-0.4 0.4,-0.9 0.5,-0.4 0.9,-0.3 h 0.8 l 0.8,0.5 0.6,0.7 0.4,0.9 v 0.4 l -0.3,0.6 m -10,-3.7 6.7,-1.9 m -4,5.1 -2.7,-3.2 m -1.3,34.2 0.1,3.3 -2.4,-1.7 v 0.9 l -0.3,0.6 -0.3,0.3 -0.9,0.4 h -0.6 l -0.9,-0.3 -0.6,-0.6 -0.3,-0.9 -0.1,-0.9 0.3,-0.9 0.3,-0.3 0.6,-0.3 m 4.5,8.8 0.6,-0.3 0.3,-0.9 -0.1,-0.6 -0.3,-0.9 -0.9,-0.6 -1.5,-0.2 H 619 l -1.2,0.4 -0.6,0.6 -0.2,0.9 v 0.3 l 0.3,0.9 0.6,0.6 0.9,0.2 h 0.3 l 0.9,-0.3 0.6,-0.6 0.3,-1 v -0.3 l -0.4,-0.8 -0.6,-0.6 -0.9,-0.3 m 36.4,-44.5 0.5,-0.5 0.1,-0.9 -0.1,-0.6 -0.5,-0.8 -1,-0.4 -1.6,0.1 -1.4,0.3 -1.1,0.5 -0.5,0.8 -0.1,0.9 0.1,0.3 0.5,0.8 0.7,0.5 1,0.1 0.3,-0.1 0.8,-0.5 0.4,-0.7 0.1,-1 -0.1,-0.3 -0.5,-0.8 -0.7,-0.4 -0.9,-0.1 m 5.6,5.7 -0.5,-0.8 -1,-0.4 -1.5,0.1 -0.9,0.2 -1.4,0.6 -0.7,0.8 -0.1,0.9 0.1,0.6 0.5,0.8 1,0.4 h 1.5 l 0.9,-0.2 1.4,-0.7 0.7,-0.7 0.1,-1 -0.1,-0.4 M 666.4,86 h 0.7 l 0.7,-0.6 0.3,-0.5 0.3,-0.9 -0.5,-1 -1.1,-1 -1.2,-0.9 -1.2,-0.3 -0.8,0.1 -0.8,0.6 -0.1,0.3 -0.3,0.9 0.2,0.8 0.6,0.8 0.3,0.1 0.9,0.3 0.8,-0.2 0.7,-0.6 0.2,-0.3 0.2,-0.9 -0.1,-0.8 -0.6,-0.8 m -0.8,6.2 0.3,0.2 0.3,0.5 0.1,0.4 -0.1,0.7 -0.6,1 -0.6,0.4 -0.4,0.1 -0.7,-0.1 -0.5,-0.3 -0.3,-0.6 -0.4,-1 -0.9,-4.2 -2.3,3.6 m 16.6,20.8 0.9,0.2 0.7,0.5 0.4,0.9 v 0.3 l -0.2,0.9 -0.5,0.7 -0.9,0.4 h -0.3 l -0.9,-0.2 -0.7,-0.5 -0.4,-0.9 v -0.3 l 0.2,-0.9 0.5,-0.7 1.2,-0.4 1.5,-0.2 1.5,0.2 1,0.4 0.4,0.9 v 0.6 l -0.2,0.9 -0.5,0.4 m 58.9,420.4 0.4,0.5 1.2,0.5 -6,2.1 m 5.3,-0.1 0.3,-0.1 0.6,0.1 0.4,0.2 0.5,0.5 0.4,1.1 -0.1,0.7 -0.2,0.4 -0.5,0.4 -0.5,0.2 -0.7,-0.1 -1.1,-0.2 -3.8,-1.9 1.4,4 m 20,11.7 0.6,-0.4 0.7,-1 0.9,6.2 m 0.8,-6.7 3.3,-0.5 -1.5,2.7 0.9,-0.1 0.7,0.2 0.3,0.2 0.4,0.9 0.1,0.6 -0.1,0.9 -0.5,0.7 -0.9,0.4 -0.9,0.1 -0.9,-0.1 -0.4,-0.3 -0.3,-0.5 m 48.7,-79.6 -0.7,0.1 -1.1,0.5 2.2,-5.9 m -6.3,4.6 4.3,-2.8 -4.2,-1.6 m -0.1,4.4 2.2,-5.9 m -6.7,82.3 0.1,-0.3 0.4,-0.5 0.4,-0.2 0.6,-0.2 1.2,0.2 0.5,0.4 0.3,0.3 0.1,0.7 -0.1,0.6 -0.4,0.5 -0.7,0.8 -3.5,2.4 4.1,0.8 m 2.9,-5.9 3.2,0.6 -2.2,2 0.9,0.2 0.5,0.4 0.3,0.3 0.1,1 -0.1,0.6 -0.5,0.8 -0.7,0.5 -0.9,0.1 -0.9,-0.2 -0.8,-0.4 -0.3,-0.4 -0.2,-0.6 m 20.9,-30.9 -0.3,-0.1 -0.5,-0.4 -0.2,-0.4 -0.2,-0.6 0.3,-1.2 0.4,-0.5 0.3,-0.3 0.7,-0.1 0.6,0.1 0.5,0.4 0.8,0.8 2.3,3.6 0.8,-4.1 m -5.5,-4.3 0.1,1 0.8,0.8 1.4,0.6 0.8,0.2 h 1.6 l 1,-0.4 0.5,-0.8 0.1,-0.6 -0.1,-1 -0.8,-0.7 -1.4,-0.6 -0.9,-0.2 -1.5,-0.1 -1,0.4 -0.5,0.9 -0.1,0.4 m -187.9,32.4 -5.2,-4.7 m 6.4,0.7 -1.2,4 m -0.8,2.8 -0.1,-0.9 -0.7,-0.8 -1.3,-0.8 -0.9,-0.2 -1.5,-0.1 -1,0.3 -0.6,0.8 -0.2,0.5 0.1,1 0.7,0.8 1.3,0.7 0.9,0.3 1.5,0.1 1,-0.3 0.6,-0.8 0.1,-0.4 m 67.8,-2.4 4.7,5.1 m -6.3,-1.2 1.6,-3.9 m 3.8,-3.9 0.7,0.6 0.4,0.8 -0.1,0.9 -0.1,0.3 -0.6,0.7 -0.8,0.4 -1,-0.1 -0.2,-0.1 -0.7,-0.6 -0.4,-0.8 0.1,-1 0.1,-0.2 0.6,-0.8 0.8,-0.3 1.2,0.2 1.4,0.6 1.3,0.8 0.6,0.9 -0.1,1 -0.2,0.5 -0.6,0.7 -0.7,0.1 m -35.5,74.9 v 1 l 0.4,0.5 0.6,0.2 0.7,-0.1 0.5,-0.4 0.7,-1.1 0.6,-0.7 0.8,-0.3 0.6,-0.1 0.9,0.3 0.4,0.5 0.2,0.4 v 0.9 l -0.5,1.2 -0.6,0.7 -0.4,0.2 h -0.6 l -0.9,-0.3 -0.4,-0.5 -0.4,-0.7 0.1,-1 0.1,-1.2 -0.1,-0.7 -0.4,-0.5 -0.6,-0.2 -0.6,0.1 -0.6,0.7 -0.5,1.3 m 2.5,-6.7 2.8,4.3 1.6,-4.2 m -4.4,-0.1 5.9,2.2 m -34.1,-0.5 -6.8,1.8 m 4.1,-5 2.7,3.2 m 3.3,4 -6.7,1.7 m 4,-4.9 2.7,3.2"
       id="nums_003"
       stroke="#000000"
       stroke-width="1" />
    <path
       d="m 855.5,375 -24.1,69.4 -98.1,-46.3 42.3,-50.7 -63.3,18.6 61,89.7 65.4,25.2 -17.7,82.2 -40.7,-7.5 -39.8,6 -15.6,-46.4 -31.4,76.4 -26.3,69 -54.7,-65.1 27.2,-92.4 -21.7,-53.9 60.8,-19.7 -31.3,-40 -13.1,49.1 -31.2,-27.4 9,-49.7 6.4,-84.9 37.2,-18 101,-6.9 -99,-21.1 -40.5,8.3 -4.8,-130.1 41.5,47.3 -10.8,-47.5 32.4,-50.6 11.9,103.2 53.9,17.8 46.8,-21.4 -51.2,5 -43.1,-32.3 51.4,-86.9 29.9,12.4 12.9,-29.6 70.7,72 -28.1,44.6 8.3,50.9 -32.6,55.6 20.8,43.2 z"
       id="coupes_003"
       stroke="#ff0000"
       stroke-width="1.27"
       sodipodi:nodetypes="cccccccccccccccccccccccccccccccccccccccccccc" />
    <path
       d="m 612.2,361.5 43.6,-102.9 m -8.3,130.9 -35.3,-28 m 100.1,4.5 -64.8,23.5 M 756.8,251.7 712.3,366 m 44.5,-114.3 18.8,95.7 m -2.3,108.3 -94.5,-26.2 m 78,-177.8 49.6,-2.4 m 0,0 -30.8,98.1 m 51.6,-54.9 -51.6,54.9 m -50.7,167.8 -85.2,-12.1 m 0,0 39.1,-73.6 M 855.5,375 775.6,347.4 m 55.8,97 -55.8,-97 m -18.8,-95.7 31.4,-94.1 m 0,0 18.2,91.7 m -18.2,-91.7 50.8,36.1 m -50.8,-36.1 42.5,-14.8 m -55.5,-87 55.5,87 m -42.5,14.8 -13,-101.8 m 13,101.8 L 745.3,43.4 M 737,162.6 745.3,43.4 M 657.8,230.6 741.4,179 m -83.6,51.6 29.7,-69.4 m -33.5,-5.1 33.5,5.1 m -44.3,-52.6 44.3,52.6 m 85.8,294.5 -32.8,105.9 m 32.8,-105.9 7,99.9 m 58.4,-74.7 -58.4,74.7 m -55.4,-40.4 -112.4,80.3 m 81,-3.9 -81,3.9"
       id="plisM_003"
       stroke="#a52a2a"
       stroke-dasharray="4" />
    <path
       d="m 655.8,258.6 -8.3,130.9 m 8.3,-130.9 56.5,107.4 m -64.8,23.5 -44.3,21.7 M 712.3,366 678.8,429.5 m 94.5,26.2 -48.4,59.5 m 0,0 -46.1,-85.7 M 788.1,26.2 830.7,142.8 M 756.8,251.7 741.4,179 m -124.1,59.9 70.2,-77.7 m -70.2,77.7 36.7,-82.8"
       id="plisV_003"
       stroke="#008000"
       stroke-dasharray="4, 1, 1, 1"
       stroke-width="1.27" />
    <path
       d="m 649.7,322.1 4,4 m 0,-4 -4,4 m 32.4,-15.8 4,4 m 0,-4 -4,4 m -58.7,84.1 4,4 m 0,-4 -4,4 m 70.1,-6.6 4,4 m 0,-4 -4,4 m 53.6,83.6 4,4 m 0,-4 -4,4 m -47.3,-17.1 4,4 m 0,-4 -4,4 m 107.6,-391.8 4,4 m 0,-4 -4,4 m -60.3,126.8 4,4 m 0,-4 -4,4 m -96.7,-19.3 4,4 m 0,-4 -4,4 m -16.8,-6.5 4,4 m 0,-4 -4,4"
       id="marqueV_003"
       stroke="#008000" />
    <path
       d="m 711.7,279.7 h -7.5 l -0.7,6.8 0.7,-0.8 2.3,-0.7 h 2.2 l 2.3,0.7 1.5,1.5 0.7,2.3 v 1.5 l -0.7,2.2 -1.5,1.5 -2.3,0.8 h -2.2 l -2.3,-0.8 -0.7,-0.7 -0.8,-1.5"
       id="titre_5"
       stroke="#4b0082" />
  </g>
  <g
     id="page_004">
    <path
       d="m 1141.9,458.6 h -0.7 l -0.6,0.7 -0.3,0.6 -0.1,0.9 0.6,0.9 1.2,0.9 1.3,0.7 1.2,0.2 0.8,-0.3 0.7,-0.6 0.1,-0.3 0.1,-1 -0.2,-0.8 -0.7,-0.6 -0.3,-0.1 -0.9,-0.2 -0.8,0.3 -0.7,0.7 -0.1,0.3 -0.1,0.9 0.2,0.8 0.7,0.7 m 0.1,-10 4.4,5.4 m -6.2,-1.6 1.8,-3.8 m -11.6,-29.7 2.8,1 1.2,-2.5 -0.4,0.2 h -1 l -0.8,-0.3 -0.8,-0.5 -0.3,-0.8 v -0.9 l 0.2,-0.6 0.5,-0.8 0.8,-0.3 h 0.9 l 0.9,0.3 0.8,0.5 0.1,0.4 0.1,0.7 m -6.1,1.8 -0.7,0.1 -1.1,0.5 2,-5.9 m -30.7,52.8 0.1,-0.7 -0.7,-0.7 -0.5,-0.2 -1,-0.2 -0.9,0.5 -1,1.2 -0.7,1.4 -0.3,1.2 0.3,0.8 0.6,0.7 0.3,0.1 0.9,0.1 0.9,-0.2 0.6,-0.7 0.2,-0.2 0.1,-1 -0.2,-0.8 -0.7,-0.7 -0.2,-0.1 -1,-0.2 -0.8,0.3 -0.7,0.7 m 7.8,-0.7 -1,-0.2 -0.5,0.4 -0.3,0.5 v 0.7 l 0.4,0.6 0.9,0.8 0.7,0.7 0.2,0.8 v 0.6 l -0.4,0.8 -0.5,0.4 -0.4,0.2 -1,-0.2 -1,-0.5 -0.7,-0.7 -0.1,-0.4 v -0.7 l 0.4,-0.8 0.5,-0.4 0.9,-0.2 0.9,0.1 1.2,0.3 h 0.7 l 0.5,-0.4 0.3,-0.5 v -0.7 l -0.7,-0.7 -1.2,-0.6 m -63.2,-113.9 2.6,-1.5 -1,-2.5 -0.1,0.4 -0.7,0.7 -0.8,0.5 -0.9,0.2 -0.8,-0.3 -0.7,-0.6 -0.3,-0.5 -0.2,-1 0.2,-0.8 0.7,-0.7 0.8,-0.4 0.9,-0.2 0.4,0.1 0.6,0.4 m -3.5,7.8 0.6,-0.7 v -0.7 l -0.3,-0.5 -0.6,-0.4 h -0.6 l -1.2,0.4 -1,0.1 -0.8,-0.2 -0.5,-0.4 -0.5,-0.8 v -0.6 l 0.1,-0.4 0.7,-0.7 1,-0.6 0.9,-0.2 0.4,0.1 0.6,0.4 0.4,0.8 0.1,0.7 -0.3,0.8 -0.6,0.7 -0.9,0.8 -0.4,0.6 v 0.6 l 0.3,0.6 0.6,0.3 0.9,-0.1 1.2,-0.7 m 56.8,24.1 -0.2,3 2.7,0.5 -0.3,-0.3 -0.2,-0.9 0.1,-0.9 0.3,-0.9 0.7,-0.5 0.9,-0.3 0.6,0.1 0.9,0.4 0.5,0.6 0.2,0.9 v 0.9 l -0.4,0.9 -0.3,0.3 -0.6,0.2 m -4.6,-7.5 0.3,0.9 0.8,0.7 1.5,0.4 0.9,0.1 1.5,-0.2 0.9,-0.5 0.4,-0.9 v -0.6 l -0.2,-0.9 -0.8,-0.7 -1.5,-0.4 -0.9,-0.1 -1.5,0.2 -1,0.5 -0.3,0.9 -0.1,0.5 m -16.3,-21.1 4.2,-3 -4.3,-1.4 m 0.1,4.4 2,-5.9 m -4,3.7 -0.6,0.1 -1.2,0.6 2,-6 m -91.8,40.1 0.6,-0.2 0.4,-0.9 v -0.6 l -0.2,-0.9 -0.9,-0.7 -1.5,-0.4 -1.5,-0.1 -1.2,0.3 -0.6,0.5 -0.4,0.9 v 0.3 l 0.3,0.9 0.5,0.7 0.9,0.3 h 0.3 l 0.9,-0.2 0.7,-0.6 0.3,-0.9 v -0.3 l -0.2,-0.9 -0.6,-0.6 -0.9,-0.4 m 2.4,5.7 0.3,0.1 0.6,0.3 0.3,0.3 0.2,0.6 v 1.2 l -0.4,0.6 -0.3,0.3 -0.6,0.3 -0.6,-0.1 -0.6,-0.3 -0.9,-0.7 -2.8,-3.1 -0.2,4.2 m 20.6,-27.7 0.3,0.6 0.9,0.3 h 0.6 l 0.9,-0.4 0.5,-0.9 0.3,-1.5 v -1.5 l -0.4,-1.2 -0.6,-0.6 -0.9,-0.2 h -0.3 l -0.9,0.3 -0.6,0.6 -0.3,0.9 0.1,0.3 0.3,0.9 0.6,0.6 0.9,0.3 h 0.3 l 0.9,-0.4 0.6,-0.6 0.3,-0.9 m -4.9,2.9 -0.6,0.4 -0.9,0.9 -0.2,-6.3 m 43.3,114.1 3.2,6.2 m -5.7,-2.8 2.5,-3.4 m 2.6,-3.4 1.5,4.9 2.7,-3.6 m -4.2,-1.3 5,3.8 m -63.5,-39 0.4,0.6 1,0.8 -6.3,0.6 m 5.2,0.6 0.3,0.6 1,0.8 -6.3,0.5 m 11.8,63.9 -0.3,-0.9 -0.7,-0.3 -0.6,0.1 -0.5,0.3 -0.3,0.6 -0.2,1.3 -0.2,0.9 -0.6,0.6 -0.5,0.4 h -0.9 l -0.7,-0.2 -0.3,-0.3 -0.4,-0.9 v -1.1 l 0.2,-1 0.3,-0.3 0.5,-0.3 0.9,-0.1 0.6,0.2 0.7,0.6 0.4,0.9 0.4,1.1 0.3,0.6 0.6,0.3 0.6,-0.1 0.6,-0.3 0.2,-0.9 -0.1,-1.4 m 0.4,4.6 0.2,3.3 -2.5,-1.6 0.1,0.9 -0.3,0.6 -0.3,0.3 -0.8,0.4 h -0.6 l -0.9,-0.2 -0.7,-0.6 -0.4,-0.8 v -0.9 l 0.2,-1 0.3,-0.3 0.5,-0.3 m 76.3,-11.3 0.6,-6.9 m 3.3,5.5 -3.9,1.4 m -4.4,1.7 2.8,-1.1 -0.7,-2.6 -0.2,0.4 -0.7,0.6 -0.8,0.3 h -1 l -0.8,-0.4 -0.6,-0.7 -0.2,-0.6 v -0.9 l 0.4,-0.8 0.7,-0.6 0.8,-0.3 h 1 l 0.4,0.2 0.5,0.4 m -45.3,127.8 -0.8,0.6 v 0.6 l 0.2,0.6 0.5,0.5 h 0.6 l 1.3,-0.1 h 0.9 l 0.8,0.3 0.5,0.5 0.3,0.8 -0.1,0.7 -0.2,0.4 -0.7,0.6 -1.1,0.4 h -1 l -0.4,-0.2 -0.5,-0.4 -0.3,-0.9 0.1,-0.6 0.4,-0.8 0.7,-0.6 1,-0.7 0.5,-0.5 v -0.6 l -0.2,-0.6 -0.5,-0.5 -0.9,0.1 -1.3,0.4 m 6.7,-2.5 -1.3,5 4.2,-1.6 m -2.9,-3.4 2.2,5.9 m -66.9,-62.6 v 0.3 l -0.4,0.6 -0.3,0.2 -0.7,0.3 -1.2,-0.2 -0.5,-0.3 -0.3,-0.4 -0.2,-0.6 0.1,-0.6 0.3,-0.6 0.7,-0.8 3.4,-2.6 -4.2,-0.5 m -2.2,4.6 -0.1,0.3 -0.3,0.5 -0.4,0.3 -0.6,0.2 -1.2,-0.1 -0.5,-0.4 -0.3,-0.3 -0.2,-0.7 v -0.5 l 0.4,-0.6 0.7,-0.8 3.3,-2.7 -4.1,-0.5 m -4.1,86.6 -1.4,6.8 m -2.7,-5.8 4.1,-1 m 5.4,0.8 -0.1,0.9 -0.4,0.8 -0.8,0.5 -0.3,0.1 -1,-0.1 -0.7,-0.5 -0.5,-0.8 -0.1,-0.2 0.1,-1 0.4,-0.7 0.8,-0.5 0.3,-0.1 1,0.1 0.7,0.4 0.6,1.1 0.3,1.5 0.1,1.5 -0.3,1 -0.8,0.5 -0.6,0.2 -1,-0.1 -0.4,-0.5 m -25.7,-44.9 -0.2,-0.9 -0.6,-0.4 h -0.6 l -0.6,0.2 -0.4,0.6 -0.4,1.1 -0.4,0.9 -0.7,0.5 -0.6,0.3 -0.9,-0.1 -0.5,-0.4 -0.3,-0.3 -0.2,-0.9 0.1,-1.2 0.4,-0.9 0.3,-0.2 0.6,-0.3 0.9,0.1 0.6,0.4 0.5,0.6 0.2,0.9 0.2,1.3 0.3,0.6 0.5,0.4 h 0.6 l 0.7,-0.2 0.3,-0.9 0.2,-1.3 m -0.6,5.7 -0.2,-0.9 -0.8,-0.7 -1.5,-0.4 -0.9,-0.1 -1.5,0.1 -1,0.5 -0.4,0.9 v 0.6 l 0.2,0.9 0.8,0.7 1.5,0.5 0.9,0.1 1.5,-0.2 1,-0.5 0.3,-0.9 0.1,-0.4 m 181.6,-95.5 0.8,0.6 0.6,-0.2 0.5,-0.3 0.3,-0.6 -0.1,-0.7 -0.5,-1.1 -0.3,-0.9 0.1,-0.9 0.3,-0.6 0.7,-0.5 0.7,-0.1 h 0.4 l 0.8,0.6 0.7,0.9 0.3,0.9 v 0.4 l -0.3,0.6 -0.8,0.6 -0.6,0.1 -0.9,-0.1 -0.7,-0.5 -1,-0.8 -0.6,-0.3 -0.7,0.1 -0.4,0.4 -0.3,0.6 0.3,0.9 0.8,1.1 m -4.6,-6.1 1.8,2.4 2.3,-1.4 h -0.4 l -0.8,-0.6 -0.5,-0.7 -0.3,-0.9 0.1,-0.8 0.5,-0.8 0.5,-0.4 0.9,-0.3 0.8,0.1 0.8,0.6 0.6,0.7 0.3,0.9 -0.1,0.4 -0.3,0.6 m -10.5,116.1 -5.4,4.4 m 1.6,-6.2 3.8,1.8 m 2.4,1.1 -0.9,-0.1 -0.5,0.4 -0.3,0.6 v 0.7 l 0.4,0.5 1,0.8 0.7,0.6 0.3,0.8 v 0.7 l -0.4,0.8 -0.5,0.4 -0.4,0.2 -1,-0.1 -1.1,-0.6 -0.6,-0.6 -0.2,-0.4 v -0.7 l 0.4,-0.8 0.5,-0.4 0.8,-0.3 1,0.1 1.2,0.3 0.6,-0.1 0.6,-0.4 0.2,-0.5 v -0.7 l -0.7,-0.6 -1.2,-0.6 m 21.5,-31.8 0.3,0.9 0.6,0.3 h 0.6 l 0.6,-0.3 0.3,-0.6 0.3,-1.2 0.3,-0.9 0.6,-0.6 0.6,-0.3 h 0.9 l 0.6,0.3 0.3,0.3 0.3,0.9 v 1.2 l -0.3,0.9 -0.3,0.3 -0.6,0.3 h -0.9 l -0.6,-0.3 -0.6,-0.6 -0.3,-0.9 -0.3,-1.2 -0.3,-0.6 -0.6,-0.3 h -0.6 l -0.6,0.3 -0.3,0.9 v 1.3 m 1.4,-3.9 -0.3,-0.6 -0.9,-0.9 h 6.3 M 950.8,180.7 v 0.6 l 0.3,1.3 -5.5,-3.1 m 2.6,6.9 h 0.7 l 0.7,-0.6 0.3,-0.6 0.2,-0.9 -0.5,-1 -1.2,-0.9 -1.3,-0.8 -1.2,-0.3 -0.8,0.2 -0.7,0.7 -0.2,0.2 -0.1,1 0.2,0.8 0.6,0.7 0.3,0.1 0.9,0.2 0.8,-0.2 0.7,-0.7 0.2,-0.2 0.2,-1 -0.3,-0.8 -0.6,-0.7 m 43.3,-26.9 -0.3,-0.1 -0.5,-0.4 -0.2,-0.4 -0.1,-0.7 0.3,-1.1 0.4,-0.5 0.4,-0.2 0.7,-0.2 0.6,0.2 0.5,0.4 0.7,0.9 2.1,3.6 1.1,-4 m -4.5,-2.3 -0.1,-0.7 -0.6,-1.1 6.1,1.7 m 9.4,-112.7 -0.6,0.1 -1.1,0.7 1.7,-6.1 m -3.5,5.8 -3.1,-0.9 2.3,-1.8 -0.8,-0.3 -0.5,-0.4 -0.2,-0.4 -0.1,-0.9 0.2,-0.6 0.5,-0.8 0.8,-0.4 h 0.9 l 0.9,0.2 0.8,0.5 0.2,0.4 0.1,0.7 m -37.3,3.8 -0.5,0.4 -0.6,1.2 -1.8,-6 m -0.1,5.2 v 0.3 l -0.1,0.7 -0.2,0.4 -0.5,0.4 -1.1,0.4 -0.7,-0.1 -0.3,-0.2 -0.5,-0.5 -0.2,-0.6 0.1,-0.6 0.3,-1.1 2,-3.7 -4,1.2 m -1.9,53 -0.5,-0.8 -0.7,-0.2 -0.6,0.1 -0.5,0.5 -0.1,0.6 -0.1,1.2 -0.1,1 -0.4,0.7 -0.6,0.4 -0.8,0.2 -0.7,-0.1 -0.3,-0.3 -0.5,-0.8 -0.3,-1.2 0.1,-0.9 0.2,-0.4 0.6,-0.4 0.8,-0.2 0.7,0.2 0.7,0.4 0.5,0.9 0.5,1.1 0.5,0.5 0.6,0.2 0.6,-0.2 0.5,-0.4 0.1,-0.9 -0.3,-1.4 m 1.3,5.7 -0.5,-0.8 -1,-0.4 h -1.5 l -0.9,0.2 -1.4,0.6 -0.8,0.8 -0.1,1 0.2,0.5 0.4,0.9 1,0.4 1.6,-0.1 0.9,-0.2 1.4,-0.6 0.7,-0.8 0.1,-0.9 -0.1,-0.4 m 75.6,-33.6 -0.2,0.2 -0.7,0.2 -0.4,-0.1 -0.6,-0.3 -0.7,-0.9 -0.2,-0.7 0.1,-0.4 0.3,-0.6 0.5,-0.4 0.6,-0.1 1.1,-0.1 4.2,0.5 -2.6,-3.3 m -6,2.5 -2,-2.6 h 3 l -0.6,-0.8 -0.1,-0.6 v -0.4 l 0.6,-0.8 0.4,-0.4 0.9,-0.3 0.9,0.1 0.8,0.5 0.5,0.7 0.3,0.9 v 0.5 l -0.3,0.6 m -119.5,190.4 0.3,-0.9 -0.4,-1 -1.1,-1.1 -0.8,-0.5 -1.4,-0.6 h -1 l -0.8,0.6 -0.3,0.5 -0.3,0.9 0.4,1 1.1,1.1 0.7,0.5 1.5,0.6 h 1 l 0.8,-0.6 0.2,-0.4 m 118.3,-111.1 0.2,-0.2 0.6,-0.3 h 0.4 l 0.7,0.1 0.9,0.8 0.3,0.6 v 0.4 l -0.1,0.7 -0.4,0.5 -0.6,0.2 -1,0.3 -4.3,0.5 3.3,2.6 m 3.9,-3.1 0.7,0.2 1.2,-0.2 -4,4.9 m -104.1,150.6 -0.7,-0.2 -0.8,0.4 -0.4,0.4 -0.5,0.8 0.2,1.1 0.9,1.3 1,1.1 1.1,0.6 h 0.8 l 0.9,-0.4 0.2,-0.2 0.4,-0.8 v -0.9 l -0.4,-0.8 -0.2,-0.3 -0.8,-0.4 h -0.9 l -0.8,0.4 -0.3,0.2 -0.4,0.9 v 0.8 l 0.4,0.9 m 3.9,-8.4 -0.6,-0.3 -0.9,0.5 -0.4,0.4 -0.5,0.8 0.2,1.1 0.9,1.3 1,1 1.1,0.7 h 0.8 l 0.9,-0.4 0.2,-0.2 0.4,-0.9 v -0.8 l -0.4,-0.9 -0.2,-0.2 -0.8,-0.4 h -0.9 l -0.8,0.4 -0.2,0.2 -0.5,0.8 v 0.9 l 0.4,0.8 m -23.2,-8.5 -1.4,-2.6 -2.6,1 0.4,0.1 0.7,0.6 0.4,0.8 0.2,1 -0.3,0.8 -0.6,0.7 -0.5,0.2 -1,0.2 -0.8,-0.2 -0.7,-0.7 -0.4,-0.8 -0.1,-0.9 0.1,-0.4 0.4,-0.6 m 7.9,6 0.4,-0.6 -0.2,-0.9 -0.3,-0.5 -0.7,-0.7 -1,-0.1 -1.5,0.4 -1.3,0.7 -1,0.8 -0.2,0.9 0.1,0.9 0.2,0.3 0.7,0.6 0.8,0.3 0.9,-0.2 0.3,-0.1 0.6,-0.7 0.3,-0.8 -0.2,-1 -0.1,-0.2 -0.7,-0.7 -0.8,-0.2 -0.9,0.1 m 87.1,-37.9 -0.5,-0.4 -1,0.1 -0.5,0.3 -0.7,0.6 -0.1,1.1 0.3,1.5 0.7,1.3 0.8,1 0.8,0.3 0.9,-0.2 0.3,-0.1 0.7,-0.7 0.3,-0.8 -0.2,-0.9 -0.1,-0.3 -0.7,-0.7 -0.8,-0.2 -0.9,0.1 -0.3,0.1 -0.7,0.7 -0.2,0.8 0.1,0.9 m 54.1,-72.8 -0.5,0.4 -0.7,1 -1,-6.2 m -4.3,5.1 0.1,-0.9 0.5,-0.7 0.9,-0.4 0.3,-0.1 0.9,0.2 0.7,0.5 0.4,0.8 0.1,0.3 -0.2,1 -0.5,0.6 -0.8,0.5 h -0.3 l -1,-0.1 -0.6,-0.5 -0.5,-1.2 -0.3,-1.4 0.1,-1.6 0.4,-1 0.9,-0.4 0.6,-0.1 0.9,0.2 0.4,0.5 m -39.6,92.1 0.6,0.3 0.9,-0.2 0.5,-0.4 0.6,-0.7 v -1.1 l -0.7,-1.4 -0.8,-1.2 -1,-0.8 -0.8,-0.2 -0.9,0.3 -0.3,0.2 -0.5,0.7 -0.2,0.9 0.3,0.9 0.2,0.2 0.7,0.6 0.9,0.1 0.9,-0.3 0.2,-0.1 0.6,-0.8 0.1,-0.8 -0.2,-0.9 m -17.9,39.5 -5.1,0.4 2.9,3.5 m 2.2,-3.9 -4.8,4.1 m 72.6,-13.2 1.4,-3 1.4,2.7 0.4,-0.8 0.5,-0.5 0.4,-0.1 1,0.1 0.5,0.3 0.7,0.7 0.3,0.8 -0.2,0.9 -0.4,0.8 -0.6,0.7 -0.4,0.1 h -0.7 m -37.4,21.6 -0.9,0.4 -0.2,0.6 v 0.6 l 0.4,0.6 0.6,0.2 1.2,0.3 0.9,0.2 0.6,0.6 0.4,0.5 v 0.9 l -0.2,0.7 -0.3,0.3 -0.9,0.3 -1.2,0.1 -0.9,-0.2 -0.3,-0.3 -0.3,-0.6 -0.1,-0.9 0.3,-0.6 0.5,-0.6 0.9,-0.4 1.2,-0.4 0.5,-0.3 0.3,-0.6 v -0.6 l -0.4,-0.6 -0.9,-0.2 h -1.3 m 121.8,-80.3 -0.3,-0.6 -1,-0.8 6.3,-0.4 m -60.1,59.9 0.3,3.3 -2.6,-1.5 0.1,0.9 -0.2,0.6 -0.3,0.3 -0.9,0.4 -0.6,0.1 -0.9,-0.2 -0.6,-0.6 -0.4,-0.8 -0.1,-0.9 0.2,-1 0.3,-0.3 0.5,-0.3 m 30.4,25.9 -0.3,-0.6 -0.9,-0.3 -0.6,0.1 -0.9,0.3 -0.5,0.9 -0.3,1.6 0.1,1.4 0.4,1.2 0.6,0.6 0.9,0.3 0.3,-0.1 0.9,-0.3 0.6,-0.6 0.2,-1 v -0.3 l -0.3,-0.8 -0.7,-0.6 -0.9,-0.3 -0.3,0.1 -0.9,0.3 -0.5,0.6 -0.3,0.9 m 8,-4.6 -2.8,4.3 4.5,-0.2 m -1.7,-4.1 0.3,6.3 m 24.4,-22.7 -0.6,0.2 -0.4,0.9 -0.1,0.6 0.2,0.9 0.9,0.7 1.4,0.5 1.5,0.1 1.2,-0.2 0.7,-0.5 0.4,-0.9 V 308 l -0.2,-1 -0.5,-0.6 -0.9,-0.4 -0.3,-0.1 -0.9,0.2 -0.6,0.6 -0.4,0.8 -0.1,0.3 0.2,1 0.6,0.6 0.8,0.4 m -3.6,-6 0.4,-3.3 2.2,2 0.1,-0.9 0.3,-0.5 0.4,-0.3 0.9,-0.2 0.6,0.1 0.9,0.4 0.5,0.6 0.2,0.9 -0.1,0.9 -0.4,0.9 -0.3,0.3 -0.6,0.2 m -18,-158.6 -0.3,0.6 -0.1,1.3 -4.1,-4.8 m 1,7.8 -0.4,-5.2 -3.4,3 m 3.8,2.2 -4.1,-4.8 m 19.4,15.1 -0.3,-0.6 -0.9,-0.9 h 6.3 m -6.5,-4.8 v 3 l 2.7,0.4 -0.3,-0.3 -0.3,-1 v -0.9 l 0.3,-0.8 0.6,-0.6 0.9,-0.3 h 0.6 l 0.9,0.3 0.6,0.6 0.3,0.9 v 0.9 l -0.3,0.9 -0.3,0.3 -0.6,0.3 M 1094,83.6 v 0.3 l -0.5,0.5 -0.3,0.2 -0.7,0.2 -1.1,-0.2 -0.6,-0.4 -0.2,-0.4 -0.2,-0.6 0.1,-0.6 0.5,-0.6 0.7,-0.7 3.6,-2.4 -4.1,-0.8 m -4.2,5.6 0.9,-0.1 0.8,-0.8 0.6,-1.4 0.2,-0.9 V 79 l -0.4,-1 -0.8,-0.5 -0.6,-0.1 -1,0.1 -0.7,0.8 -0.6,1.4 -0.2,0.9 v 1.5 l 0.4,1 0.8,0.5 0.5,0.1 m 0.3,37.3 0.2,-0.6 v -1.3 l 4.6,4.4 m 0.3,-6.7 0.4,0.8 v 0.9 l -0.4,0.8 -0.2,0.2 -0.8,0.5 h -0.9 l -0.8,-0.4 -0.3,-0.2 -0.4,-0.9 v -0.8 l 0.4,-0.9 0.2,-0.2 0.8,-0.4 h 0.9 l 1.1,0.6 1,1 0.9,1.3 0.3,1 -0.5,0.9 -0.4,0.4 -0.8,0.5 -0.6,-0.2"
       id="nums_004"
       stroke="#000000"
       stroke-width="1" />
    <path
       d="m 1086.2,481 38.2,49.8 -0.3,117.2 -68.9,-32.5 -69.2,25.7 -80.1,20.1 11,-109.8 69.8,8.1 -7.8,-99.2 -3.7,-39.9 3.6,-59.9 37.9,-1.2 35.6,-19.9 51.9,17.3 -3.6,47.5 64.7,22 -32.3,68.4 -69.7,-36.5 -32.8,43.3 z m -169,-166.7 -26.4,-50.2 33.2,-49.2 38,-68.5 -23.6,-107.8 46.7,-14.5 38.8,10.8 25.5,32.7 82.4,16.8 -74,77.3 -50.9,-41.7 -17.4,63.4 105.7,-16.8 53.2,-45.7 -0.7,73.5 5.3,87 -5,47.7 -64.4,3.3 -6.3,-64 -28.1,57.9 -51.5,3.4 -34.1,-40.1 74.4,-53 -82.2,40 z"
       id="coupes_004"
       stroke="#ff0000"
       stroke-width="1.27"
       sodipodi:nodetypes="ccccccccccccccccccccccccccccccccccccccccccccc" />
    <path
       d="m 1133,494.7 -32.4,-90.4 m -37.3,53.9 37.3,-53.9 m -37.3,53.9 -88.1,-37.7 m 0,0 125.4,-16.2 m -125.4,16.2 41.5,-61.1 m 0,0 83.9,44.9 m -70.1,97.2 -51.6,-41.1 m 51.6,41.1 -43.8,58.1 m 68.5,55.9 -68.5,-55.9 m 99.5,-78.6 -31,134.5 m -69.2,25.7 0.7,-81.6 m -0.7,81.6 -69.1,-89.7 m 207.5,-20.7 -69.2,84.7 M 924,214.9 989.5,183.4 m 0,0 -33.7,93.2 m 0,0 -31.8,-61.7 m 38,-68.5 44.9,-26.4 M 985.1,24.1 1006.9,120 M 962,146.4 985.1,24.1 m 38.8,10.8 -17,85.1 m -51.1,156.6 -65,-12.5 m 98.7,-80.7 48.5,53.2 m 57.2,-70 -57.2,70 m 57.2,-70 -17.9,101.8 m 0,0 -39.3,-31.8 m -40.3,93.1 40.3,-93.1 m 39.3,31.8 -79.6,61.3 m 97.5,-163.1 52.5,27.8 m 0,0 -70.4,74 m 75.7,13 -75.7,-13 m 75.7,13 -69.4,51"
       id="plisM_004"
       stroke="#a52a2a"
       stroke-dasharray="4" />
    <path
       d="m 1052.3,339.5 48.3,64.8 m -70.1,97.2 -55.3,-81 m 55.3,81 24.7,114 M 962,146.4 l 27.5,37 m 59.9,-115.8 -42.5,52.4 m 42.5,-52.4 8.4,94.1"
       id="plisV_004"
       stroke="#008000"
       stroke-dasharray="4, 1, 1, 1"
       stroke-width="1.27" />
    <path
       d="m 1074.4,369.9 4,4 m 0,-4 -4,4 m -73.6,85.1 4,4 m 0,-4 -4,4 m 40.1,93.5 4,4 m 0,-4 -4,4 m -67.1,-397.6 4,4 m 0,-4 -4,4 m 52.3,-75.1 4,4 m 0,-4 -4,4 m 25.5,16.8 4,4 m 0,-4 -4,4"
       id="marqueV_004"
       stroke="#008000" />
    <path
       d="m 1026.8,450 -0.8,-1.5 -2.2,-0.8 h -1.5 l -2.3,0.8 -1.5,2.2 -0.7,3.8 v 3.7 l 0.7,3 1.5,1.5 2.3,0.8 h 0.7 l 2.3,-0.8 1.5,-1.5 0.7,-2.2 v -0.8 l -0.7,-2.2 -1.5,-1.5 -2.3,-0.8 h -0.7 l -2.3,0.8 -1.5,1.5 -0.7,2.2"
       id="titre_6"
       stroke="#4b0082" />
    <path
       d="m 1048.0239,189.83132 -7.5,15.7 m -3,-15.7 h 10.5"
       id="titre_7"
       stroke="#4b0082" />
  </g>
</svg>
