<?xml version="1.0" encoding="UTF-8" standalone="no"?>
<svg
   height="841.88977pt"
   viewBox="0 0 532.99998 754.00001"
   width="595.27557pt"
   version="1.1"
   id="svg1"
   sodipodi:docname="gumi210_H25_A4x4.svg"
   inkscape:version="1.3 (0e150ed6c4, 2023-07-21)"
   xmlns:inkscape="http://www.inkscape.org/namespaces/inkscape"
   xmlns:sodipodi="http://sodipodi.sourceforge.net/DTD/sodipodi-0.dtd"
   xmlns="http://www.w3.org/2000/svg"
   xmlns:svg="http://www.w3.org/2000/svg">
  <defs
     id="defs1" />
  <sodipodi:namedview
     id="namedview1"
     pagecolor="#ffffff"
     bordercolor="#000000"
     borderopacity="0.25"
     inkscape:showpageshadow="2"
     inkscape:pageopacity="0.0"
     inkscape:pagecheckerboard="0"
     inkscape:deskcolor="#d1d1d1"
     inkscape:document-units="mm"
     showgrid="false"
     inkscape:zoom="0.35709021"
     inkscape:cx="1592.0347"
     inkscape:cy="564.28318"
     inkscape:window-width="1920"
     inkscape:window-height="1057"
     inkscape:window-x="-8"
     inkscape:window-y="-8"
     inkscape:window-maximized="1"
     inkscape:current-layer="svg1" />
  <style
     type="text/css"
     id="style1"><![CDATA[
			path {
				fill: none;
			}
		]]></style>
  <g
     id="page_001">
    <path
       id="nums_001"
       d="m 198.8,82.9 -0.1,-1 -0.8,-0.7 -1.4,-0.6 -0.8,-0.2 h -1.6 l -1,0.4 -0.4,0.8 -0.2,0.6 0.2,1 0.7,0.7 1.4,0.6 0.9,0.2 h 1.6 l 1,-0.4 0.4,-0.9 0.1,-0.4 m 5.6,82.4 0.5,-0.5 0.5,-1.2 2.1,6 m -15.2,-24.1 h 0.3 l 0.6,0.2 0.4,0.3 0.3,0.6 0.1,1.2 -0.3,0.6 -0.2,0.3 -0.6,0.4 h -0.6 l -0.6,-0.2 -1,-0.6 -3.2,-2.7 0.3,4.1 M 259.5,55 h 3 l 0.4,-2.7 -0.4,0.3 -0.9,0.3 h -0.9 L 259.8,52.6 259.3,52 259,51 v -0.6 l 0.3,-0.8 0.6,-0.6 0.9,-0.3 h 0.9 l 0.9,0.3 0.3,0.3 0.3,0.6 m -7.2,5 0.9,-0.3 0.6,-0.9 0.3,-1.5 v -0.9 l -0.3,-1.5 -0.5,-0.9 -0.9,-0.3 h -0.6 l -0.9,0.3 -0.7,0.9 -0.3,1.5 v 0.9 l 0.3,1.5 0.6,0.9 0.9,0.3 h 0.4 m 61.6,84.7 0.4,-0.5 0.4,-1.2 2.9,5.6 m 2.5,-6.2 0.1,0.9 -0.2,0.8 -0.7,0.7 -0.3,0.1 -0.9,0.2 -0.8,-0.3 -0.7,-0.7 -0.1,-0.2 -0.2,-1 0.3,-0.8 0.7,-0.7 0.2,-0.1 1,-0.1 0.8,0.2 0.8,1 0.7,1.3 0.4,1.5 -0.2,1.1 -0.6,0.6 -0.6,0.3 -0.9,0.1 -0.5,-0.4 m 44.2,-93.4 0.1,0.3 -0.3,0.6 -0.2,0.3 -0.6,0.4 -1.2,0.2 -0.6,-0.2 -0.3,-0.3 -0.4,-0.6 -0.1,-0.6 0.2,-0.6 0.5,-1 2.6,-3.3 -4.2,0.5 m -0.4,5 -0.5,0.4 -0.8,1 -0.8,-6.3 m 86.3,18.4 v 1 l 0.4,0.5 0.6,0.2 0.7,-0.1 0.5,-0.5 0.7,-1 0.6,-0.7 0.7,-0.4 h 0.7 l 0.8,0.3 0.5,0.5 0.2,0.4 -0.1,0.9 -0.4,1.1 -0.6,0.8 -0.4,0.2 h -0.6 L 448.8,65.5 448.4,65 448,64.2 v -0.9 l 0.2,-1.2 -0.1,-0.7 -0.4,-0.5 -0.6,-0.2 -0.7,0.1 -0.6,0.7 -0.4,1.3 m 2.7,-3.2 -0.1,-0.7 -0.5,-1.1 5.9,2.2 M 434,46.4 l 3,0.1 0.4,-2.7 -0.3,0.3 -0.9,0.2 h -0.9 l -0.9,-0.3 -0.5,-0.7 -0.3,-0.9 v -0.6 l 0.3,-0.9 0.7,-0.5 0.9,-0.3 h 0.9 l 0.9,0.4 0.3,0.3 0.2,0.6 m -5.4,3.5 -0.6,0.3 -0.9,0.8 0.2,-6.3 m -65.4,91.6 0.1,-0.3 0.5,-0.5 0.4,-0.2 h 0.7 l 1.1,0.4 0.5,0.5 0.1,0.4 0.1,0.7 -0.2,0.5 -0.5,0.5 -0.9,0.6 -3.8,1.7 3.9,1.5 m 6.3,-3.3 v -0.7 l -0.8,-0.6 -0.5,-0.2 -1,-0.1 -0.8,0.7 -0.9,1.3 -0.5,1.4 -0.1,1.2 0.3,0.8 0.7,0.6 0.3,0.1 h 1 l 0.7,-0.3 0.6,-0.8 0.2,-0.2 v -1 l -0.4,-0.8 -0.7,-0.6 -0.3,-0.1 h -0.9 l -0.8,0.3 -0.6,0.8 m 20,24.5 0.3,0.1 0.4,0.5 0.2,0.4 v 0.7 l -0.5,1.1 -0.5,0.5 -0.4,0.1 -0.6,0.1 -0.6,-0.3 -0.4,-0.5 -0.6,-0.9 -1.6,-3.9 -1.7,3.8 m 4.8,4.9 0.1,-0.9 -0.4,-0.5 -0.6,-0.3 -0.7,0.1 -0.5,0.4 -0.7,1 -0.7,0.7 -0.7,0.3 -0.7,0.1 -0.8,-0.4 -0.5,-0.5 -0.1,-0.4 v -0.9 l 0.5,-1.1 0.6,-0.7 0.4,-0.2 h 0.7 l 0.8,0.3 0.5,0.5 0.3,0.8 -0.1,1 -0.2,1.2 0.1,0.6 0.4,0.6 0.5,0.2 h 0.7 l 0.6,-0.8 0.6,-1.2 m 93.8,-5.5 -0.3,2.9 2.7,0.6 -0.3,-0.3 -0.2,-0.9 0.1,-0.9 0.4,-0.9 0.6,-0.5 1,-0.2 h 0.6 l 0.8,0.4 0.6,0.7 0.2,0.9 -0.1,0.9 -0.4,0.8 -0.3,0.3 -0.7,0.2 m -3.2,-9.3 -0.7,0.3 -0.4,0.8 v 0.6 l 0.2,1 0.8,0.6 1.5,0.5 1.5,0.1 1.2,-0.1 0.7,-0.6 0.3,-0.8 0.1,-0.3 -0.2,-1 -0.6,-0.6 -0.8,-0.4 H 487 l -1,0.2 -0.6,0.5 -0.4,0.9 v 0.3 l 0.2,0.9 0.5,0.6 0.9,0.4 m -101,37.1 h 0.3 l 0.7,0.2 0.3,0.2 0.4,0.5 0.2,1.2 -0.1,0.7 -0.3,0.3 -0.5,0.4 -0.6,0.1 -0.6,-0.1 -1,-0.5 -3.5,-2.3 0.8,4.1 m 5,4.1 -0.9,-0.1 -0.7,-0.5 -0.5,-0.8 V 204 l 0.1,-0.9 0.5,-0.7 0.8,-0.5 h 0.3 l 0.9,0.1 0.7,0.5 0.5,0.8 0.1,0.3 -0.2,0.9 -0.4,0.7 -1.2,0.5 -1.4,0.3 h -1.6 l -1,-0.4 -0.4,-0.8 -0.1,-0.6 0.1,-1 0.5,-0.4 m 96.4,14.2 v -3.3 l 2.4,1.8 v -0.9 l 0.3,-0.6 0.3,-0.3 0.9,-0.3 h 0.6 l 0.9,0.3 0.6,0.6 0.3,0.9 v 0.9 l -0.3,0.9 -0.3,0.3 -0.6,0.3 m -5.1,-7.1 0.3,0.9 0.9,0.6 1.5,0.3 h 0.9 l 1.5,-0.3 0.9,-0.7 0.3,-0.9 v -0.6 l -0.3,-0.9 -1,-0.5 -1.5,-0.3 h -0.9 l -1.5,0.3 -0.8,0.6 -0.3,0.9 v 0.4 m -88.5,62 0.6,-0.3 0.4,-0.9 v -0.6 l -0.3,-0.9 -0.9,-0.6 -1.5,-0.4 h -1.5 l -1.2,0.2 -0.6,0.6 -0.3,0.9 v 0.3 l 0.2,0.9 0.6,0.6 0.9,0.4 h 0.3 l 0.9,-0.3 0.6,-0.6 0.4,-0.9 v -0.3 l -0.3,-0.9 -0.6,-0.6 -0.9,-0.3 m 3,8.7 0.6,-0.2 0.4,-0.9 v -0.6 l -0.3,-0.9 -0.9,-0.7 -1.4,-0.3 -1.5,-0.1 -1.3,0.3 -0.6,0.6 -0.3,0.9 v 0.3 l 0.3,0.9 0.5,0.6 0.9,0.3 h 0.3 l 0.9,-0.2 0.6,-0.6 0.4,-0.9 v -0.3 l -0.3,-0.9 -0.6,-0.6 -0.8,-0.4 m 96.3,13.5 0.2,3 2.7,0.1 -0.3,-0.3 -0.4,-0.9 v -0.9 l 0.2,-0.9 0.6,-0.6 0.8,-0.4 0.6,-0.1 0.9,0.3 0.7,0.5 0.4,0.9 v 0.9 l -0.2,0.9 -0.3,0.3 -0.5,0.4 m -5.8,-8.5 0.2,3 2.7,0.1 -0.3,-0.3 -0.4,-0.9 v -0.9 l 0.2,-0.9 0.5,-0.7 0.9,-0.3 0.6,-0.1 0.9,0.3 0.7,0.5 0.3,0.9 0.1,0.9 -0.2,0.9 -0.3,0.3 -0.6,0.4 m -100.6,67.6 -4,-3.3 -0.3,4.5 m 4.3,-1.2 -6.3,-0.4 m 5.8,7.1 -6.1,-3.4 m 6.4,-0.8 -0.3,4.2 m 102.2,41.4 4.3,2.9 -0.2,-4.5 m -4.1,1.6 6.3,-0.2 m -4.4,-6.4 0.9,0.3 0.7,0.6 0.3,0.9 v 0.3 l -0.3,0.9 -0.5,0.6 -0.9,0.3 h -0.3 l -0.9,-0.2 -0.7,-0.6 -0.3,-0.9 V 396 l 0.3,-0.9 0.5,-0.6 1.2,-0.4 h 1.5 l 1.5,0.2 1,0.6 0.3,0.9 v 0.6 l -0.3,0.9 -0.5,0.3 M 374,557.6 h -1 l -0.5,0.5 -0.2,0.5 0.1,0.7 0.5,0.5 1,0.7 0.7,0.6 0.4,0.7 0.1,0.7 -0.3,0.8 -0.5,0.5 -0.4,0.2 h -1 l -1.1,-0.5 -0.7,-0.6 -0.2,-0.3 -0.1,-0.7 0.3,-0.9 0.5,-0.4 0.8,-0.4 0.9,0.1 1.3,0.1 0.6,-0.1 0.5,-0.4 0.2,-0.6 -0.1,-0.7 -0.7,-0.6 -1.3,-0.4 m 5.2,1.9 -0.9,-0.1 -0.5,0.5 -0.2,0.6 v 0.6 l 0.5,0.5 1,0.7 0.8,0.6 0.3,0.8 0.1,0.6 -0.3,0.9 -0.5,0.4 -0.4,0.2 H 378 l -1.2,-0.4 -0.7,-0.6 -0.2,-0.4 -0.1,-0.7 0.3,-0.8 0.5,-0.5 0.8,-0.3 h 1 l 1.2,0.1 h 0.7 l 0.4,-0.5 0.2,-0.6 v -0.6 l -0.8,-0.6 -1.2,-0.5 m -103.3,-132.3 0.1,-1 -0.5,-0.5 -0.5,-0.2 -0.7,0.1 -0.5,0.4 -0.7,1 -0.6,0.8 -0.8,0.3 -0.7,0.1 -0.8,-0.4 -0.5,-0.5 -0.1,-0.4 v -0.9 l 0.5,-1.1 0.6,-0.8 0.4,-0.1 0.6,-0.1 0.9,0.4 0.4,0.5 0.4,0.7 -0.1,1 -0.2,1.2 0.1,0.7 0.4,0.5 0.6,0.2 0.7,-0.1 0.6,-0.7 0.5,-1.2 m -1.7,4.2 -1.2,3.1 -1.6,-2.6 -0.3,0.9 -0.5,0.4 -0.4,0.2 -1,-0.1 -0.5,-0.2 -0.7,-0.6 -0.4,-0.8 0.1,-0.9 0.3,-0.9 0.6,-0.7 0.4,-0.2 h 0.7 m 11.5,166.5 -1,0.2 -0.4,0.5 -0.1,0.6 0.2,0.6 0.6,0.4 1.1,0.5 0.8,0.5 0.5,0.7 0.2,0.6 -0.2,0.9 -0.4,0.6 -0.3,0.2 -1,0.1 -1.1,-0.2 -0.9,-0.4 -0.2,-0.4 -0.2,-0.6 0.2,-0.9 0.4,-0.6 0.7,-0.4 0.9,-0.2 1.2,-0.1 0.7,-0.1 0.4,-0.6 0.1,-0.6 -0.2,-0.6 -0.8,-0.5 -1.4,-0.2 m 7.5,1.3 -3,-0.5 -0.7,2.6 0.3,-0.2 1,-0.2 0.8,0.2 0.9,0.4 0.5,0.7 0.1,1 -0.1,0.6 -0.5,0.8 -0.7,0.5 -0.9,0.1 -0.9,-0.1 -0.8,-0.5 -0.3,-0.3 -0.2,-0.7 m 43.4,-16.9 -0.1,1 0.4,0.5 0.5,0.2 h 0.7 l 0.5,-0.4 0.8,-0.9 0.7,-0.7 0.8,-0.3 h 0.6 l 0.9,0.4 0.4,0.5 0.1,0.4 -0.1,0.9 -0.5,1.1 -0.7,0.7 -0.4,0.1 -0.6,0.1 -0.9,-0.4 -0.4,-0.6 -0.3,-0.8 0.2,-0.9 0.2,-1.2 v -0.7 l -0.4,-0.5 -0.6,-0.3 -0.6,0.1 -0.7,0.6 -0.6,1.3 m 4.1,-6.5 h -0.7 l -0.6,0.7 -0.3,0.5 -0.1,1 0.6,0.9 1.2,0.9 1.3,0.6 1.2,0.3 0.8,-0.3 0.7,-0.7 0.1,-0.3 0.1,-0.9 -0.2,-0.8 -0.7,-0.7 -0.3,-0.1 -0.9,-0.1 -0.8,0.3 -0.7,0.7 -0.1,0.2 -0.1,1 0.3,0.8 0.6,0.6 m 160.9,-75.9 0.2,3 2.7,0.1 -0.3,-0.2 -0.4,-0.9 v -0.9 l 0.3,-0.9 0.5,-0.7 0.9,-0.3 h 0.6 l 0.9,0.2 0.7,0.6 0.3,0.9 v 0.9 l -0.2,0.9 -0.3,0.3 -0.6,0.4 m -5.5,-9.2 6.4,2.7 m -6.2,1.5 -0.2,-4.2 m -71.9,75.4 -1,-0.1 -0.5,0.5 -0.2,0.5 v 0.7 l 0.5,0.5 1,0.7 0.7,0.7 0.3,0.8 v 0.6 l -0.3,0.9 -0.5,0.4 -0.4,0.2 -1,-0.1 -1.1,-0.5 -0.7,-0.6 -0.2,-0.4 v -0.7 l 0.4,-0.8 0.5,-0.5 0.8,-0.3 0.9,0.1 1.2,0.2 h 0.7 l 0.5,-0.5 0.2,-0.5 v -0.7 l -0.7,-0.6 -1.2,-0.6 m 6.4,5.1 -0.6,0.7 -0.8,0.3 -1,-0.1 -0.2,-0.1 -0.8,-0.6 -0.3,-0.8 0.1,-0.9 0.1,-0.3 0.7,-0.7 0.7,-0.4 1,0.1 0.3,0.1 0.7,0.7 0.3,0.8 -0.2,1.2 -0.6,1.4 -0.9,1.2 -0.9,0.6 -0.9,-0.1 -0.6,-0.2 -0.7,-0.6 v -0.7 m 45.7,-14 0.3,0.9 -0.2,0.8 -0.6,0.8 -0.2,0.1 -0.9,0.3 -0.8,-0.1 -0.8,-0.6 -0.2,-0.2 -0.2,-1 0.1,-0.8 0.6,-0.8 0.2,-0.1 0.9,-0.3 0.9,0.2 0.9,0.8 0.9,1.2 0.6,1.4 v 1.1 l -0.6,0.7 -0.5,0.4 -0.9,0.3 -0.6,-0.4 m 2.3,-8.1 -0.6,0.7 0.1,1.1 0.6,1.4 0.5,0.7 1.1,1.1 1,0.4 0.9,-0.3 0.5,-0.3 0.6,-0.8 -0.1,-1.1 -0.6,-1.4 -0.5,-0.7 -1.1,-1.1 -1,-0.4 -0.9,0.3 -0.4,0.3 m -255.7,53.9 -0.3,0.9 0.3,0.6 0.4,0.4 0.7,0.1 0.6,-0.3 1,-0.7 0.8,-0.5 0.8,-0.1 0.7,0.1 0.7,0.6 0.3,0.6 v 0.4 l -0.3,0.9 -0.8,0.9 -0.8,0.6 h -0.4 l -0.6,-0.1 -0.7,-0.6 -0.3,-0.6 -0.1,-0.9 0.3,-0.9 0.5,-1.1 0.2,-0.6 -0.3,-0.6 -0.5,-0.4 -0.6,-0.2 -0.8,0.6 -0.9,1 m 5.1,-6.3 3,6.3 m -5.7,-3 2.7,-3.3 M 127,364.6 l -3.2,-0.9 2.4,-1.8 -0.8,-0.3 -0.5,-0.4 -0.2,-0.4 v -0.9 l 0.1,-0.6 0.6,-0.8 0.7,-0.4 h 1 l 0.8,0.2 0.8,0.6 0.2,0.4 0.1,0.6 m -8,2.9 h 0.9 l 0.5,-0.5 0.2,-0.6 -0.1,-0.6 -0.5,-0.5 -1.1,-0.6 -0.8,-0.6 -0.4,-0.7 -0.1,-0.7 0.3,-0.8 0.4,-0.5 0.4,-0.2 1,-0.1 1.1,0.4 0.8,0.5 0.2,0.4 0.1,0.7 -0.3,0.8 -0.4,0.5 -0.8,0.4 -0.9,0.1 -1.2,-0.1 -0.7,0.1 -0.5,0.5 -0.1,0.6 0.1,0.6 0.7,0.6 1.3,0.4 m 51.5,275.2 -0.9,0.3 -0.3,0.6 v 0.6 l 0.3,0.6 0.7,0.3 1.2,0.2 0.9,0.3 0.6,0.6 0.3,0.6 v 0.9 l -0.3,0.6 -0.3,0.3 -0.9,0.3 -1.2,0.1 -0.9,-0.3 -0.3,-0.3 -0.3,-0.6 v -0.9 l 0.3,-0.6 0.6,-0.6 0.9,-0.4 1.2,-0.3 0.5,-0.3 0.3,-0.6 v -0.6 l -0.3,-0.6 -0.9,-0.3 -1.3,0.1 m 7.1,-0.2 -2.9,4.2 h 4.5 m -1.6,-4.2 0.1,6.3 m -62.4,-82.1 -4.3,-2.9 0.1,4.5 m 4.2,-1.6 -6.3,0.1 m 4.8,2.5 0.3,0.6 0.9,0.9 -6.3,0.1 m 13,98.4 0.2,-0.7 v -1.2 l 4.6,4.2 m -2.8,-6.5 -0.4,0.8 0.3,1.1 0.9,1.2 0.6,0.6 1.3,0.8 1.1,0.2 0.8,-0.5 0.4,-0.4 0.4,-0.9 -0.2,-1 -0.9,-1.3 -0.7,-0.6 -1.3,-0.8 -1.1,-0.1 -0.8,0.4 -0.3,0.3 m 3.5,-3.8 -0.3,0.9 0.2,1 0.9,1.3 0.7,0.6 1.3,0.8 1,0.2 0.9,-0.5 0.4,-0.4 0.4,-0.9 -0.3,-1 -0.9,-1.3 -0.6,-0.6 -1.3,-0.8 -1.1,-0.2 -0.8,0.5 -0.4,0.3 m -10.3,-1.9 -0.9,-0.2 -0.7,-0.5 -0.4,-0.9 v -0.3 l 0.2,-0.9 0.5,-0.7 0.8,-0.4 h 0.3 l 1,0.2 0.6,0.5 0.5,0.8 v 0.3 l -0.2,1 -0.5,0.6 -1.2,0.5 -1.4,0.2 -1.6,-0.1 -0.9,-0.5 -0.5,-0.9 v -0.5 l 0.2,-1 0.5,-0.4 m 4.4,8.2 -0.9,-0.2 -0.7,-0.5 -0.4,-0.9 -0.1,-0.2 0.2,-1 0.5,-0.7 0.9,-0.4 h 0.3 l 0.9,0.2 0.7,0.5 0.4,0.8 v 0.3 l -0.1,1 -0.6,0.6 -1.1,0.5 -1.5,0.2 -1.5,-0.1 -1,-0.5 -0.4,-0.8 -0.1,-0.6 0.2,-1 0.6,-0.3 m -34,-165.8 -3,4.1 4.5,0.1 m -1.5,-4.2 -0.1,6.3 m 4.6,-6.2 -0.9,0.3 -0.6,0.9 -0.4,1.5 v 0.9 l 0.3,1.5 0.6,0.9 0.9,0.3 h 0.6 l 0.9,-0.2 0.6,-0.9 0.3,-1.5 v -0.9 l -0.2,-1.5 -0.6,-0.9 -0.9,-0.4 H 86.7 M 65.5,431 l 0.2,3.3 -2.5,-1.6 v 0.9 l -0.2,0.6 -0.3,0.3 -0.9,0.3 -0.6,0.1 -0.9,-0.3 -0.6,-0.6 -0.4,-0.8 v -0.9 l 0.2,-0.9 0.3,-0.4 0.6,-0.3 m 5.6,8.2 -4.4,-2.8 0.3,4.5 m 4.1,-1.7 -6.3,0.3 m -19.9,-93.4 2.3,2.5 -3,0.3 0.6,0.6 0.2,0.7 -0.1,0.4 -0.4,0.8 -0.5,0.4 -0.8,0.4 h -0.9 l -0.8,-0.5 -0.6,-0.7 -0.4,-0.8 v -0.5 l 0.3,-0.6 m 9.7,3.2 -2,-2.2 -2.2,1.6 h 0.4 l 0.9,0.5 0.6,0.6 0.4,0.9 -0.1,0.9 -0.5,0.8 -0.4,0.4 -0.9,0.4 -0.8,-0.1 -0.8,-0.4 -0.6,-0.7 -0.4,-0.9 v -0.4 l 0.2,-0.6 m 11.8,-42.3 -2.1,2.5 -0.7,-2.9 -0.6,0.7 -0.6,0.2 -0.4,0.1 -0.9,-0.4 -0.4,-0.4 -0.5,-0.8 -0.1,-0.8 0.3,-0.9 0.6,-0.7 0.8,-0.5 h 0.4 l 0.7,0.1 m 0.1,7.9 -2.1,2.5 -0.7,-2.9 -0.6,0.7 -0.6,0.2 -0.4,0.1 -0.9,-0.4 -0.5,-0.4 -0.5,-0.8 v -0.8 l 0.3,-0.9 0.6,-0.7 0.8,-0.5 h 0.4 l 0.7,0.1 m 62.8,23.1 1.6,-2.8 1.2,2.7 0.5,-0.8 0.5,-0.3 0.4,-0.2 1,0.2 0.5,0.3 0.6,0.7 0.3,0.8 -0.2,1 -0.5,0.8 -0.7,0.6 -0.4,0.1 h -0.6 m -1.1,-8.5 -0.2,0.9 0.4,0.6 0.5,0.3 h 0.7 l 0.5,-0.4 0.9,-0.9 0.7,-0.6 0.8,-0.2 h 0.7 l 0.7,0.5 0.4,0.5 0.1,0.4 -0.1,0.9 -0.6,1.1 -0.7,0.6 -0.4,0.1 h -0.7 l -0.8,-0.4 -0.4,-0.6 -0.2,-0.8 0.2,-0.9 0.3,-1.2 v -0.7 l -0.3,-0.6 -0.6,-0.3 h -0.6 l -0.7,0.7 -0.7,1.1 m 7.2,-58.6 4.2,3 v -4.5 m -4.2,1.5 h 6.3 m -6.3,-5.8 4.2,3 v -4.5 m -4.2,1.5 h 6.3 m -53.7,-22.3 0.2,3.3 -2.5,-1.6 v 0.9 l -0.2,0.6 -0.3,0.3 -0.9,0.4 h -0.6 l -0.9,-0.2 -0.6,-0.6 -0.4,-0.9 -0.1,-0.9 0.3,-0.9 0.3,-0.3 0.5,-0.3 m 4,5.6 0.3,-0.1 0.6,0.3 0.4,0.3 0.3,0.6 0.1,1.2 -0.3,0.6 -0.3,0.3 -0.5,0.3 -0.6,0.1 -0.6,-0.3 -1,-0.5 -3.2,-2.8 0.3,4.2 m 62.8,-128.4 5.1,1 -1.9,-4.1 m -3.2,3.1 5.7,-2.6 m -8.2,-3.1 1.2,2.8 2.6,-0.9 -0.4,-0.1 -0.7,-0.7 -0.3,-0.9 -0.1,-0.9 0.3,-0.8 0.7,-0.6 0.5,-0.3 1,-0.1 0.7,0.3 0.7,0.7 0.4,0.8 0.1,1 -0.2,0.4 -0.4,0.5 m -63.8,27.6 0.6,-0.3 0.3,-0.9 v -0.6 l -0.3,-0.9 -0.9,-0.6 -1.5,-0.3 h -1.5 l -1.2,0.3 -0.6,0.7 -0.3,0.9 v 0.3 l 0.3,0.9 0.6,0.5 0.9,0.3 h 0.3 l 0.9,-0.3 0.6,-0.6 0.3,-0.9 v -0.3 l -0.3,-0.9 -0.6,-0.6 -0.9,-0.3 m 4.2,5.7 v 3.3 l -2.4,-1.8 v 0.9 l -0.3,0.6 -0.3,0.3 -0.9,0.3 H 63 l -0.9,-0.3 -0.6,-0.6 -0.3,-0.9 v -0.9 l 0.3,-0.9 0.3,-0.3 0.6,-0.3 m 28.8,-68.9 0.1,0.3 -0.1,0.7 -0.2,0.4 -0.5,0.5 -1.1,0.4 L 88.7,81 88.3,80.8 87.9,80.3 87.7,79.8 V 79.1 L 88,78 l 1.8,-3.8 -3.9,1.4 m -2.4,7.5 2.8,-1 -0.6,-2.6 -0.2,0.4 -0.7,0.6 -0.9,0.3 H 83 l -0.8,-0.4 -0.5,-0.7 -0.2,-0.6 -0.1,-1 0.4,-0.7 0.8,-0.6 0.8,-0.3 h 0.9 l 0.4,0.2 0.5,0.4 m 151.2,353.6 0.3,0.9 0.6,0.3 h 0.6 l 0.6,-0.3 0.3,-0.7 0.2,-1.2 0.3,-0.9 0.6,-0.6 0.6,-0.3 0.9,-0.1 0.6,0.3 0.3,0.3 0.3,0.9 0.1,1.2 -0.3,0.9 -0.3,0.3 -0.6,0.3 -0.9,0.1 -0.6,-0.3 -0.6,-0.6 -0.3,-0.9 -0.4,-1.2 -0.3,-0.5 -0.6,-0.3 h -0.6 l -0.6,0.3 -0.3,0.9 0.1,1.4 m 1.3,-4.6 h -0.3 l -0.6,-0.2 -0.3,-0.3 -0.4,-0.6 V 424 l 0.3,-0.6 0.3,-0.3 0.5,-0.4 h 0.6 l 0.7,0.3 0.9,0.6 3.1,2.8 -0.2,-4.2 m -48.6,-45.6 3.6,-3.7 -4.4,-0.7 m 0.8,4.4 0.9,-6.2 m -6.6,5.4 3.6,-3.8 -4.5,-0.6 m 0.9,4.4 0.9,-6.3 m -5.1,-147.8 0.8,0.5 0.6,-0.1 0.5,-0.3 0.4,-0.6 -0.2,-0.7 -0.4,-1.1 -0.3,-0.9 0.2,-0.9 0.3,-0.5 0.7,-0.6 0.7,-0.1 0.4,0.1 0.8,0.6 0.7,1 0.2,0.9 v 0.4 l -0.4,0.6 -0.7,0.5 -0.7,0.1 -0.8,-0.2 -0.8,-0.5 -0.9,-0.8 -0.6,-0.3 -0.6,0.1 -0.5,0.3 -0.3,0.6 0.2,0.9 0.8,1.1 m -2.6,-3.7 -1.9,-2.7 h 3 l -0.6,-0.7 -0.1,-0.6 0.1,-0.5 0.6,-0.7 0.5,-0.4 0.9,-0.3 0.8,0.2 0.8,0.6 0.5,0.7 0.3,0.9 -0.1,0.4 -0.3,0.6 m -13.4,13 -0.9,-0.1 -0.6,0.5 -0.2,0.5 v 0.7 l 0.5,0.5 0.9,0.8 0.8,0.6 0.3,0.8 v 0.7 l -0.4,0.8 -0.5,0.4 -0.4,0.2 -0.9,-0.1 -1.1,-0.5 -0.7,-0.6 -0.2,-0.4 v -0.7 l 0.3,-0.8 0.6,-0.5 0.8,-0.3 0.9,0.1 1.2,0.2 h 0.7 l 0.5,-0.4 0.2,-0.6 v -0.7 l -0.7,-0.6 -1.2,-0.5 m 3.5,3.1 0.1,-0.2 0.5,-0.5 0.4,-0.1 0.7,-0.1 1.1,0.5 0.4,0.5 0.2,0.4 v 0.7 l -0.2,0.6 -0.5,0.4 -0.9,0.6 -4,1.5 3.9,1.7 m 111.4,-52.1 -0.3,-0.1 -0.6,-0.3 -0.2,-0.4 -0.3,-0.6 0.2,-1.2 0.4,-0.6 0.3,-0.2 0.7,-0.2 h 0.5 l 0.6,0.4 0.8,0.7 2.6,3.4 0.5,-4.2 m -5.8,-3.7 0.2,0.9 0.8,0.7 1.4,0.5 0.9,0.1 1.6,-0.1 0.9,-0.4 0.4,-0.9 0.1,-0.6 -0.2,-0.9 -0.8,-0.7 -1.4,-0.5 -0.9,-0.1 -1.5,0.1 -1,0.4 -0.4,0.9 -0.1,0.4 m -65.9,6.5 v 0.7 l 0.2,1.2 -5.3,-3.4 m 6.2,48 1.1,3.1 -2.9,-1 0.3,0.9 -0.1,0.6 -0.2,0.4 -0.8,0.6 -0.5,0.2 h -1 l -0.7,-0.4 -0.6,-0.8 -0.3,-0.9 v -0.9 l 0.2,-0.4 0.5,-0.4 m 33.5,20.6 -0.7,0.6 -0.1,0.7 0.2,0.5 0.5,0.5 h 0.7 l 1.2,-0.1 1,-0.1 0.8,0.3 0.5,0.5 0.3,0.8 v 0.7 l -0.2,0.3 -0.7,0.7 -1.1,0.4 -1,0.1 -0.4,-0.2 -0.5,-0.4 -0.3,-0.8 v -0.7 l 0.4,-0.8 0.7,-0.6 1,-0.7 0.4,-0.6 0.1,-0.6 -0.3,-0.6 -0.5,-0.4 h -0.9 l -1.3,0.6 m 41.6,-13.9 0.5,-0.5 0.7,-1.1 1.6,6.1 m 0.9,-6.9 -0.8,0.5 -0.1,0.6 0.1,0.6 0.5,0.5 0.6,0.2 1.2,-0.1 1,0.1 0.7,0.4 0.5,0.5 0.2,0.9 -0.2,0.7 -0.2,0.3 -0.8,0.6 -1.1,0.3 -1,-0.1 -0.3,-0.2 -0.5,-0.5 -0.2,-0.9 0.1,-0.7 0.5,-0.7 0.8,-0.5 1.1,-0.6 0.5,-0.4 0.1,-0.7 -0.2,-0.6 -0.4,-0.5 h -0.9 l -1.3,0.3 m 70.8,120.5 4.3,2.9 -0.2,-4.5 m -4.1,1.6 6.3,-0.2 m -6.5,-6.5 6.4,2.8 m -6.3,1.4 -0.1,-4.2 m -23.4,-22.1 2.7,-4.4 -4.5,0.3 m 1.8,4.1 -0.4,-6.3 m -3.7,6.5 0.9,-0.3 0.2,-0.6 v -0.6 l -0.4,-0.6 -0.6,-0.3 -1.2,-0.2 -0.9,-0.2 -0.7,-0.6 -0.3,-0.5 -0.1,-0.9 0.3,-0.7 0.2,-0.3 0.9,-0.4 h 1.2 l 0.9,0.2 0.3,0.3 0.4,0.5 0.1,0.9 -0.3,0.7 -0.5,0.6 -0.9,0.4 -1.2,0.4 -0.6,0.3 -0.2,0.6 v 0.6 l 0.4,0.6 0.9,0.2 1.3,-0.1 m -94.5,3.9 -5,1.3 3.5,2.9 m 1.5,-4.2 -4,4.8 m 8.7,-0.8 -2.3,-1.9 -1.9,1.9 0.4,-0.1 0.9,0.4 0.7,0.5 0.5,0.9 0.1,0.8 -0.4,0.9 -0.4,0.4 -0.8,0.6 h -0.8 l -0.9,-0.3 -0.7,-0.6 -0.5,-0.8 v -0.4 l 0.1,-0.7 m -30.2,-45.6 v 0.3 l -0.5,0.5 -0.3,0.2 -0.7,0.2 -1.1,-0.2 -0.6,-0.5 -0.2,-0.3 -0.2,-0.7 0.2,-0.6 0.4,-0.5 0.8,-0.7 3.5,-2.3 -4.1,-0.9 m -3.9,5.6 0.9,-0.1 0.5,-0.5 0.1,-0.6 -0.2,-0.7 -0.5,-0.4 -1.1,-0.5 -0.8,-0.5 -0.5,-0.7 -0.2,-0.7 0.2,-0.9 0.5,-0.5 0.3,-0.2 0.9,-0.1 1.2,0.2 0.8,0.5 0.3,0.4 0.1,0.6 -0.2,0.9 -0.4,0.5 -0.7,0.5 -0.9,0.1 h -1.3 l -0.6,0.2 -0.4,0.5 -0.2,0.6 0.2,0.7 0.8,0.4 1.3,0.3 m 50.7,-10.2 0.1,0.3 -0.1,0.6 -0.1,0.4 -0.4,0.5 -1.2,0.5 H 256 l -0.4,-0.2 -0.5,-0.4 -0.3,-0.6 0.1,-0.7 0.2,-1 1.6,-4 -3.9,1.7 m -3,5.8 -0.1,-0.9 0.3,-0.8 0.8,-0.6 0.2,-0.2 h 1 l 0.8,0.3 0.6,0.7 0.1,0.3 0.1,0.9 -0.3,0.8 -0.8,0.6 -0.2,0.2 h -1 l -0.8,-0.3 -0.7,-1 -0.6,-1.4 -0.3,-1.5 0.2,-1 0.7,-0.6 0.6,-0.3 0.9,-0.1 0.5,0.5 m 67.2,2.9 0.2,0.6 0.8,0.5 0.6,0.1 1,-0.1 0.7,-0.8 0.6,-1.4 0.3,-1.5 -0.1,-1.2 -0.5,-0.7 -0.8,-0.5 -0.3,-0.1 -0.9,0.2 -0.7,0.4 -0.5,0.9 v 0.3 l 0.1,0.9 0.5,0.7 0.8,0.5 h 0.3 l 0.9,-0.1 0.7,-0.5 0.5,-0.8 m -9.1,1.6 0.1,0.7 0.9,0.4 0.6,0.1 0.9,-0.1 0.8,-0.8 0.5,-1.4 0.3,-1.5 v -1.2 l -0.5,-0.7 -0.8,-0.5 h -0.3 l -1,0.1 -0.7,0.5 -0.4,0.8 -0.1,0.3 0.1,0.9 0.5,0.8 0.8,0.4 0.3,0.1 1,-0.1 0.7,-0.5 0.4,-0.9 m 10.3,18.1 -0.1,5.2 3.7,-2.5 m -3.6,-2.7 3.6,5.2 m -0.1,-7.5 -0.6,0.8 0.1,0.7 0.3,0.5 0.6,0.3 0.7,-0.1 1.2,-0.4 0.9,-0.3 0.8,0.2 0.6,0.3 0.5,0.7 0.1,0.7 -0.1,0.4 -0.6,0.8 -0.9,0.6 -1,0.3 -0.4,-0.1 -0.6,-0.3 -0.5,-0.7 -0.1,-0.7 0.2,-0.8 0.6,-0.8 0.8,-0.9 0.3,-0.6 -0.1,-0.7 -0.3,-0.5 -0.6,-0.3 -0.9,0.3 -1.1,0.7 m 152.4,-197.3 0.2,3 2.7,0.2 -0.3,-0.3 -0.4,-0.9 V 100 l 0.3,-0.9 0.5,-0.6 0.9,-0.3 0.6,-0.1 0.9,0.3 0.7,0.6 0.3,0.8 v 0.9 l -0.2,1 -0.3,0.3 -0.6,0.3 m -5.5,-8.2 4.3,2.8 -0.2,-4.5 m -4.1,1.7 6.2,-0.3 M 475,82 l 0.7,-0.6 v -0.7 l -0.2,-0.5 -0.5,-0.5 h -0.7 l -1.2,0.1 -0.9,0.1 -0.8,-0.3 -0.5,-0.5 -0.3,-0.8 v -0.7 l 0.2,-0.4 0.7,-0.6 1.1,-0.4 1,-0.1 0.3,0.2 0.5,0.4 0.4,0.9 -0.1,0.6 -0.3,0.8 -0.7,0.6 -1,0.8 -0.5,0.5 v 0.6 l 0.2,0.6 0.5,0.4 h 1 l 1.2,-0.5 m -4.2,0.1 -0.4,0.5 -0.5,1.2 -2.4,-5.8 m -105.4,137.4 -0.3,-0.1 -0.6,-0.3 -0.3,-0.4 -0.2,-0.6 0.2,-1.2 0.3,-0.5 0.4,-0.3 0.6,-0.2 h 0.6 l 0.6,0.4 0.8,0.7 2.6,3.4 0.5,-4.2 m -5.8,-5 3.8,3.5 0.6,-4.5 m -4.4,1 6.3,0.7 m -33.5,23.8 v -0.3 l 0.2,-0.7 0.2,-0.3 0.6,-0.4 1.2,-0.1 0.6,0.2 0.4,0.3 0.3,0.5 0.1,0.6 -0.2,0.7 -0.5,0.9 -2.6,3.4 4.2,-0.6 m 3.9,-6.8 -3,0.4 v 2.7 l 0.3,-0.3 0.9,-0.5 0.8,-0.1 1,0.2 0.6,0.5 0.5,0.9 v 0.6 l -0.2,0.9 -0.5,0.7 -0.8,0.4 -0.9,0.1 -0.9,-0.2 -0.4,-0.2 -0.4,-0.6 m 8.4,-49.8 h -0.7 l -1.1,0.4 2.6,-5.7 m -6.5,1.9 0.7,-0.7 0.8,-0.3 0.9,0.1 0.3,0.2 0.7,0.6 0.3,0.8 -0.1,1 -0.1,0.2 -0.7,0.7 -0.8,0.3 -0.9,-0.1 -0.3,-0.1 -0.7,-0.7 -0.3,-0.8 0.2,-1.2 0.7,-1.3 0.9,-1.3 0.9,-0.5 0.9,0.1 0.6,0.2 0.7,0.7 v 0.6 m -31,6.5 0.3,0.2 0.3,0.6 v 0.4 l -0.1,0.7 -0.7,0.9 -0.6,0.3 -0.4,0.1 -0.7,-0.1 -0.4,-0.4 -0.3,-0.5 -0.4,-1.1 -0.7,-4.2 -2.5,3.4 m 3.4,6.1 0.3,-0.9 -0.4,-1 -1,-1.1 -0.7,-0.5 -1.4,-0.7 h -1.1 l -0.8,0.5 -0.3,0.5 -0.3,0.9 0.3,1 1.1,1.2 0.7,0.5 1.4,0.6 1.1,0.1 0.7,-0.6 0.3,-0.3 m -131.77651,98.12112 0.0774,0.30662 -0.15168,0.69047 -0.2291,0.38388 -0.58945,0.3769 -1.14177,0.25529 -0.69039,-0.15203 -0.29973,-0.28312 -0.46135,-0.53588 -0.10094,-0.52893 0.15169,-0.69047 0.43465,-0.99009 2.28409,-3.47832 -4.09216,0.83618 m -3.52737,6.17242 0.3771,0.58974 0.99689,0.0747 0.52878,-0.10072 0.89595,-0.45419 0.29657,-1.0205 0.0575,-1.57984 -0.33315,-1.44871 -0.5622,-1.06486 -0.68359,-0.51246 -0.91268,-0.12859 -0.30649,0.0773 -0.84208,0.53845 -0.42785,0.62966 -0.0743,0.99705 -0.0607,0.27619 0.53871,0.84249 0.76779,0.45862 0.91269,0.12859 0.30649,-0.0773 0.75787,-0.4846 0.51205,-0.6835 0.0743,-0.99706 m 7.41401,3.80691 0.13197,-0.28722 0.36334,-0.56358 0.43019,-0.25466 0.61816,-0.13357 1.1712,0.32901 0.46449,0.35237 0.25481,0.43001 0.13371,0.61787 -0.0651,0.59616 -0.46275,0.55273 -0.78268,0.71888 -3.66206,2.21419 4.12091,0.95282 m 5.59988,-5.21999 -3.8917,3.39567 4.40828,1.08475 m -0.51658,-4.48042 -1.37957,6.18367"
       style="font-variation-settings:normal;opacity:1;vector-effect:none;fill:none;fill-opacity:1;stroke:#000000;stroke-width:1;stroke-linecap:butt;stroke-linejoin:miter;stroke-miterlimit:4;stroke-dasharray:none;stroke-dashoffset:0;stroke-opacity:1;-inkscape-stroke:none;stop-color:#000000;stop-opacity:1" />
    <path
       d="m 219.7,258.3 -94.2,-41.1 -0.1,100.7 -18.1,32.2 35.3,10.7 99.7,14.5 4.3,102.6 40,-100.9 -88.6,-72.9 -44.6,-12.9 41.3,-9.7 32.3,6.9 48.3,-20.5 87.7,17 -55.4,38 67,-5 2.8,73.3 4.3,-73.2 3.2,-89.3 -10,-51.5 12.9,-30.4 -39.7,-15 -48.5,24.5 -6.8,50.7 30.2,-41.4 49.3,22.6 -5.7,46.1 -53,6.7 -29.4,7.6 -56.3,23.3 -23.3,-72.3 22.9,-34.8 -39.5,13.3 -4.5,-59.7 14.2,-72.8 120.7,2.2 84,-10.9 60.7,2.3 -17.3,45.7 45.3,-18.3 2.8,60.3 -6.6,66.8 0.3,37.3 8.4,107.7 3.8,118.5 3.8,94.6 -60.7,42.5 -42.7,-18.3 -51.2,-18.7 -25.6,54.1 -80.5,-14.6 -39.4,49.1 -53.7,0.7 -33.2,35.8 -6.8,-52.3 L 108.2,499.4 60.8,498.5 54.3,374.1 19.4,335.5 64.1,281.9 59.4,212.4 59.1,83 109.5,65.2 157.2,169.6 Z"
       id="coupes_001"
       stroke="#ff0000"
       stroke-width="1.27"
       sodipodi:nodetypes="ccccccccccccccccccccccccccccccccccccccccccccccccccccccccccccccccc" />
    <path
       d="m 197.7,45.6 29.8,119.2 m 0,0 -44,-46.4 m 14.2,-72.8 101.9,110.7 m 0,0 -72.1,8.5 m 90.9,-117 -18.8,108.5 m 18.8,-108.5 29.7,84 m 145.8,-4.9 -106.1,19.9 m 99.5,46.9 -112.4,-16.5 m 112.4,16.5 -102.4,35 M 487.6,231 384.9,228.7 M 487.6,231 381.7,318 M 496,338.7 381.7,318 M 496,338.7 377.4,391.2 m 122.4,66 -99.6,118.8 m 0,0 -22.8,-184.8 M 349,557.3 377.4,391.2 M 286.6,377 377.4,391.2 M 349,557.3 246.6,477.9 M 349,557.3 242.9,596.8 m 260.7,-45 -103.4,24.2 m -157.3,20.8 -100.3,-236 m 0,0 104,117.1 m -43.1,168 -96.2,-295.8 m 96.2,295.8 -95.3,-146.5 m 0,0 -0.9,-149.3 m 42.5,296.5 -40,-16.5 m -55.5,-256 53,-24 m 0.9,149.3 -53.9,-125.3 m -34.9,-38.6 87.9,14.6 m -43.2,-68.2 43.2,68.2 m -43.2,-68.2 61.3,36 m -61.3,-36 61.4,-64.7 m -66.1,-4.8 97.8,-42.8 m 0,0 -31.7,47.6 M 59.4,212.4 109.5,65.2 M 292.8,207 227.5,164.8 m 65.3,42.2 -64.9,64.9 m 64.9,-64.9 -8.6,41.6 m 8.6,-41.6 20.8,34 m -27,136 21,-54.1 M 198,304.1 307.6,322.9 M 227,288.4 307.6,322.9 M 198,304.1 227,288.4 m 48.3,-20.5 32.3,55"
       id="plisM_001"
       stroke="#a52a2a"
       stroke-dasharray="4" />
    <path
       d="m 402.4,36.9 -54.3,94.9 m 54.3,-94.9 43.4,48 m 0,0 -97.7,46.9 m 97.7,-46.9 -58,61.9 m 58,-61.9 48.1,42 m 0,0 -119,50.3 m 124.9,280 -122.4,-66 M 349,557.3 286.6,377 m -43.7,219.8 3.7,-118.9 m -43.1,168 -60.9,-285.1 m 7.2,285.8 -41.6,-147.2 m -48.8,-287 66.1,4.8 M 292.8,207 204.6,199.6 m 103,123.3 69.8,68.3 M 198,304.1 194.7,281.5 m 98.1,-74.5 79.5,-18.8 m 0,0 -58.7,52.8"
       id="plisV_001"
       stroke="#008000"
       stroke-dasharray="4, 1, 1, 1"
       stroke-width="1.27" />
    <path
       d="m 373.3,82.3 4,4 m 0,-4 -4,4 m 48.8,-27.4 4,4 m 0,-4 -4,4 m -27.2,43.4 4,4 m 0,-4 -4,4 m 19.9,3.6 4,4 m 0,-4 -4,4 m 53.1,-14 4,4 m 0,-4 -4,4 m -35.5,42.1 4,4 m 0,-4 -4,4 m 4.2,268.2 4,4 m 0,-4 -4,4 m -120.8,38.9 4,4 m 0,-4 -4,4 m -73.1,66.3 4,4 m 0,-4 -4,4 m -71.7,-38.1 4,4 m 0,-4 -4,4 m -44,65.7 4,4 m 0,-4 -4,4 m -36.6,-362.2 4,4 m 0,-4 -4,4 m 156.3,-15.5 4,4 m 0,-4 -4,4 m 93.8,149.7 4,4 m 0,-4 -4,4 m -146.1,-68.2 4,4 m 0,-4 -4,4 m 136.2,-99.2 4,4 m 0,-4 -4,4 m 10.4,13 4,4 m 0,-4 -4,4"
       id="marqueV_001"
       stroke="#008000" />
    <path
       d="m 267.7,284.2 1.5,-0.7 2.2,-2.3 V 297"
       id="titre_1"
       stroke="#4b0082" />
  </g>
  <g
     id="page_002">
    <path
       d="m 606.1,474.8 v -0.3 l 0.3,-0.6 0.3,-0.3 0.7,-0.2 h 1.2 l 0.5,0.3 0.3,0.3 0.3,0.6 v 0.6 l -0.3,0.6 -0.7,0.9 -3.1,2.9 4.2,0.2 m 1.3,-4.9 0.6,-0.3 0.9,-0.8 -0.2,6.3 m -36.8,-62.1 -0.1,-3 -2.7,-0.2 0.3,0.3 0.3,0.9 0.1,0.9 -0.3,0.9 -0.6,0.6 -0.9,0.3 h -0.6 l -0.9,-0.3 -0.6,-0.6 -0.3,-0.8 -0.1,-0.9 0.3,-1 0.3,-0.3 0.6,-0.3 m 5.2,7.1 -0.3,-0.9 -0.9,-0.6 -1.5,-0.3 -0.9,0.1 -1.5,0.3 -0.9,0.6 -0.3,0.9 0.1,0.6 0.3,0.9 0.9,0.6 1.5,0.3 0.9,-0.1 1.5,-0.3 0.9,-0.6 0.3,-0.9 -0.1,-0.5 m 106.2,70 -2.5,-1.6 -1.7,2.2 0.4,-0.1 0.9,0.2 0.8,0.5 0.6,0.7 0.2,0.8 -0.3,1 -0.3,0.5 -0.7,0.6 -0.9,0.2 -0.9,-0.3 -0.7,-0.4 -0.6,-0.8 -0.1,-0.4 v -0.7 m 6.5,-0.3 0.6,0.1 1.3,-0.3 -3.4,5.3 m 131,145.1 -1.6,2.6 2.2,1.7 -0.1,-0.5 0.2,-0.9 0.5,-0.7 0.7,-0.7 0.8,-0.2 0.9,0.2 0.5,0.3 0.7,0.8 0.2,0.8 -0.2,0.9 -0.5,0.8 -0.7,0.6 -0.4,0.1 h -0.7 m -0.9,-8.5 -0.2,0.9 0.4,0.5 0.5,0.4 h 0.7 l 0.6,-0.4 0.8,-0.8 0.7,-0.6 0.9,-0.2 h 0.6 l 0.8,0.5 0.4,0.5 0.1,0.4 -0.2,1 -0.6,1 -0.8,0.6 -0.4,0.1 h -0.7 l -0.7,-0.5 -0.4,-0.6 -0.2,-0.8 0.2,-0.9 0.4,-1.2 v -0.7 l -0.3,-0.5 -0.5,-0.3 -0.7,-0.1 -0.7,0.6 -0.7,1.2 m -127.9,-102.8 2.4,-1.7 -1.2,-2.4 -0.1,0.4 -0.6,0.8 -0.7,0.5 -0.9,0.3 -0.9,-0.2 -0.7,-0.6 -0.4,-0.5 -0.2,-0.9 0.1,-0.8 0.6,-0.8 0.7,-0.5 1,-0.2 h 0.4 l 0.6,0.4 m -4.1,9 0.1,-5.1 -3.7,2.5 m 3.6,2.6 -3.6,-5.2 m 144.1,-22.1 0.1,3 2.7,0.2 -0.3,-0.3 -0.3,-0.9 v -0.9 l 0.2,-0.9 0.6,-0.6 0.9,-0.3 h 0.6 l 0.9,0.2 0.6,0.6 0.4,0.9 v 0.9 l -0.3,0.9 -0.3,0.3 -0.5,0.3 m -3.9,-5.7 h -0.3 l -0.6,-0.3 -0.3,-0.2 -0.3,-0.6 -0.1,-1.2 0.3,-0.6 0.3,-0.4 0.6,-0.3 h 0.6 l 0.6,0.3 0.9,0.5 3.1,2.9 -0.1,-4.2 m -22.4,-125.9 1.4,2.6 2.5,-1 -0.4,-0.1 -0.7,-0.6 -0.4,-0.8 -0.2,-1 0.3,-0.8 0.6,-0.7 0.5,-0.3 1,-0.1 0.8,0.2 0.7,0.7 0.4,0.7 0.2,1 -0.2,0.4 -0.3,0.5 m -7.4,-2.7 -1.5,-2.9 2.9,0.4 -0.4,-0.8 v -0.7 l 0.1,-0.4 0.7,-0.7 0.5,-0.3 0.9,-0.1 0.8,0.2 0.7,0.7 0.5,0.8 0.1,0.9 -0.1,0.4 -0.4,0.5 M 756,664.6 h -3 l -0.3,2.8 0.3,-0.4 0.9,-0.3 h 0.9 l 0.9,0.3 0.7,0.6 0.3,0.9 v 0.6 l -0.3,0.9 -0.6,0.6 -0.9,0.3 H 754 l -0.9,-0.3 -0.3,-0.2 -0.3,-0.6 m 9.3,-5.4 -2.9,6.4 m -1.3,-6.3 4.2,-0.1 m -138.9,-105.1 3,-0.1 0.2,-2.7 -0.2,0.3 -0.9,0.3 h -0.9 l -0.9,-0.2 -0.7,-0.6 -0.3,-0.9 v -0.6 l 0.2,-0.9 0.6,-0.6 0.9,-0.4 h 0.9 l 0.9,0.3 0.3,0.3 0.4,0.5 m -8.8,4.6 0.3,0.6 0.9,0.2 h 0.6 l 0.9,-0.3 0.5,-1 0.3,-1.5 -0.1,-1.5 -0.3,-1.2 -0.6,-0.5 -0.9,-0.3 h -0.3 l -0.9,0.3 -0.6,0.7 -0.3,0.9 v 0.3 l 0.4,0.9 0.6,0.5 0.9,0.3 h 0.3 l 0.9,-0.3 0.6,-0.7 0.2,-0.9 m 27.1,117.4 -2.5,4.5 4.5,-0.5 m -2,-4 0.7,6.2 m 6.1,-4.8 -0.2,0.9 -0.5,0.7 -0.9,0.4 H 653 l -0.9,-0.2 -0.7,-0.5 -0.4,-0.9 V 674 l 0.2,-0.9 0.5,-0.7 0.9,-0.3 0.3,-0.1 0.9,0.2 0.7,0.6 0.4,1.1 0.1,1.5 -0.1,1.5 -0.5,1 -0.8,0.4 H 653 l -1,-0.2 -0.3,-0.5 m -65.1,-46.6 -0.8,-2.9 -2.7,0.4 0.4,0.2 0.5,0.8 0.2,0.9 v 0.9 l -0.5,0.7 -0.8,0.6 -0.6,0.1 h -0.9 l -0.7,-0.5 -0.5,-0.8 -0.3,-0.8 0.1,-1 0.2,-0.4 0.5,-0.4 m 7.2,7.4 -0.8,-2.9 -2.6,0.4 0.3,0.2 0.5,0.8 0.3,0.8 -0.1,1 -0.4,0.7 -0.8,0.5 -0.6,0.2 -1,-0.1 -0.7,-0.4 -0.5,-0.8 -0.2,-0.9 v -0.9 l 0.2,-0.4 0.6,-0.4 m 3.7,-65.5 -1.9,2.7 -0.9,-2.9 -0.5,0.7 -0.6,0.3 -0.5,0.1 -0.9,-0.3 -0.5,-0.4 -0.5,-0.7 -0.1,-0.9 0.3,-0.9 0.5,-0.7 0.8,-0.5 0.4,-0.1 0.7,0.1 m -0.2,8.8 0.3,-0.9 -0.4,-1 -1,-1.2 -0.7,-0.5 -1.4,-0.6 -1.1,-0.1 -0.8,0.6 -0.3,0.4 -0.3,0.9 0.4,1.1 1,1.1 0.7,0.5 1.4,0.7 h 1.1 l 0.8,-0.5 0.2,-0.4 m 0.2,-249.8 -0.1,-0.9 -0.7,-0.8 -1.4,-0.6 -0.9,-0.2 h -1.6 l -1,0.4 -0.4,0.9 -0.2,0.5 0.2,1 0.7,0.7 1.4,0.6 0.9,0.2 h 1.5 l 1,-0.4 0.5,-0.8 0.1,-0.4 m 221.2,-11.7 5,4.9 m -6.3,-1 1.3,-3.9 m 2.5,-4.2 -0.7,0.1 -0.6,0.7 -0.2,0.6 v 0.9 l 0.7,0.9 1.3,0.8 1.4,0.5 1.2,0.1 0.8,-0.4 0.6,-0.7 0.1,-0.3 v -1 l -0.4,-0.7 -0.7,-0.6 -0.3,-0.1 h -1 l -0.7,0.4 -0.6,0.7 -0.1,0.3 v 0.9 l 0.3,0.8 0.8,0.6 m 2.9,-47.2 7,0.5 m -5.4,3.4 -1.6,-3.9 m -1.7,-4.4 1.1,2.8 2.6,-0.7 -0.4,-0.2 -0.6,-0.7 -0.3,-0.8 -0.1,-1 0.3,-0.7 0.8,-0.7 0.5,-0.2 h 1 l 0.7,0.3 0.7,0.7 0.3,0.9 v 0.9 l -0.1,0.4 -0.5,0.5 m -226.1,-7.9 0.3,0.1 0.6,0.3 0.3,0.3 0.3,0.6 v 1.2 l -0.3,0.6 -0.3,0.3 -0.6,0.3 -0.6,-0.1 -0.6,-0.3 -0.9,-0.6 -3,-3.1 -0.1,4.2 m 219.3,-57 2.5,-6.5 m 1.6,6.2 -4.1,0.3 m -5.2,0.4 2.5,-6.5 m 1.7,6.2 -4.2,0.3 m 9,19.2 0.2,0.9 0.5,0.4 0.6,0.1 0.6,-0.2 0.4,-0.5 0.5,-1.2 0.5,-0.8 0.6,-0.5 0.7,-0.2 0.9,0.1 0.5,0.4 0.3,0.3 0.1,1 -0.2,1.2 -0.4,0.8 -0.3,0.3 -0.7,0.2 -0.9,-0.2 -0.5,-0.4 -0.5,-0.7 -0.2,-0.9 -0.1,-1.2 -0.2,-0.7 -0.5,-0.4 -0.6,-0.1 -0.7,0.2 -0.4,0.9 -0.2,1.3 m 0.9,-5.7 0.2,0.9 0.8,0.8 1.4,0.5 0.9,0.1 h 1.5 l 1,-0.5 0.4,-0.8 0.1,-0.6 -0.1,-0.9 -0.8,-0.8 -1.5,-0.5 -0.9,-0.1 h -1.5 l -1,0.5 -0.4,0.8 -0.1,0.4 m -195,-15.9 -2,2.6 -0.9,-2.8 -0.5,0.7 -0.6,0.3 -0.4,0.1 -0.9,-0.3 -0.5,-0.4 -0.6,-0.7 -0.1,-0.9 0.3,-0.9 0.5,-0.7 0.8,-0.6 h 0.4 l 0.7,0.1 m 22.8,-82 3.2,-4.1 -4.5,-0.2 m 1.3,4.3 0.3,-6.3 m -36.9,52.2 -0.8,0.4 -0.3,0.6 0.1,0.6 0.3,0.6 0.6,0.2 1.3,0.2 0.9,0.3 0.6,0.5 0.4,0.6 v 0.9 l -0.2,0.6 -0.3,0.3 -0.8,0.4 -1.2,0.1 -1,-0.2 -0.3,-0.3 -0.3,-0.6 -0.1,-0.9 0.2,-0.6 0.6,-0.6 0.9,-0.4 1.1,-0.4 0.6,-0.4 0.2,-0.6 v -0.6 l -0.4,-0.5 -0.9,-0.3 -1.3,0.1 m -13.4,-19.7 -0.8,-0.5 -0.4,-0.7 v -1 -0.3 l 0.6,-0.8 0.7,-0.4 h 1 l 0.2,0.1 0.8,0.5 0.4,0.7 0.1,1 -0.1,0.3 -0.5,0.8 -0.8,0.4 -1.2,-0.1 -1.5,-0.4 -1.3,-0.7 -0.7,-0.8 -0.1,-1 0.2,-0.5 0.5,-0.8 0.7,-0.1 m 209.6,16 5,4.9 m -6.3,-1 1.3,-3.9 m 0.9,-2.5 v 0.9 l 0.5,0.5 0.5,0.2 0.7,-0.1 0.5,-0.5 0.6,-1 0.6,-0.8 0.8,-0.3 0.6,-0.1 0.9,0.3 0.5,0.5 0.2,0.3 -0.1,1 -0.4,1.1 -0.5,0.8 -0.4,0.2 h -0.7 l -0.8,-0.3 -0.5,-0.4 -0.4,-0.8 v -0.9 l 0.2,-1.3 -0.1,-0.6 -0.5,-0.5 -0.6,-0.2 -0.6,0.1 -0.6,0.7 -0.5,1.3 m -91.8,-51.1 -2.8,-6.4 m 5.5,3.2 -2.7,3.2 m -4.8,2.5 -0.5,-0.8 -0.1,-0.9 0.4,-0.9 0.2,-0.2 0.8,-0.5 0.8,-0.1 0.9,0.4 0.2,0.2 0.5,0.8 0.1,0.8 -0.4,0.9 -0.2,0.2 -0.8,0.5 -0.8,0.1 -1.1,-0.5 -1.2,-1 -0.9,-1.2 -0.3,-1 0.3,-0.9 0.4,-0.5 0.8,-0.5 0.7,0.2 m 63,8.3 4.7,-5.2 m -0.7,6.4 -4,-1.2 m -1.2,-2 -0.1,0.3 -0.4,0.5 -0.4,0.2 -0.7,0.1 -1.1,-0.3 -0.5,-0.5 -0.2,-0.3 -0.1,-0.7 0.2,-0.6 0.4,-0.5 0.8,-0.7 3.8,-2 -4,-1.2 m 195.5,132.6 -0.1,-0.7 -0.6,-1.1 6,1.7 m -5.2,-5.9 3.3,4 1.2,-4.3 m -4.5,0.3 6.1,1.7 m -21.6,-60.6 -0.3,0.6 0.3,0.9 0.4,0.4 0.8,0.6 1.1,-0.1 1.3,-0.7 1.2,-0.9 0.8,-1 0.1,-0.8 -0.3,-0.9 -0.2,-0.2 -0.8,-0.6 -0.8,-0.1 -0.9,0.3 -0.3,0.2 -0.5,0.8 -0.1,0.8 0.3,0.9 0.2,0.3 0.8,0.5 0.8,0.1 0.9,-0.3 m -84,-3.9 -0.9,-2.8 -2.7,0.5 0.4,0.2 0.6,0.8 0.3,0.8 -0.1,1 -0.3,0.7 -0.8,0.6 -0.6,0.2 h -0.9 l -0.8,-0.4 -0.5,-0.8 -0.3,-0.8 v -1 l 0.2,-0.4 0.5,-0.4 m 5.7,7.8 h -1 l -0.7,-0.4 -0.6,-0.7 -0.1,-0.3 v -1 l 0.4,-0.7 0.8,-0.6 0.3,-0.1 h 0.9 l 0.8,0.4 0.5,0.8 0.1,0.3 v 0.9 l -0.4,0.8 -1,0.6 -1.5,0.5 -1.5,0.2 -1,-0.3 -0.6,-0.8 -0.2,-0.6 v -0.9 l 0.5,-0.5 m 48.2,-59.6 -0.5,-0.5 -1.2,-0.5 5.9,-2.3 m -7.2,-0.3 0.6,0.7 1.1,0.2 1.5,-0.3 0.8,-0.3 1.3,-0.8 0.6,-0.9 v -1 l -0.3,-0.5 -0.6,-0.8 -1,-0.2 -1.5,0.3 -0.9,0.3 -1.2,0.9 -0.7,0.9 0.1,0.9 0.2,0.4 m 0,-3.6 -0.5,-0.4 -1.1,-0.5 5.8,-2.4 m -34.5,-0.3 -0.4,-0.9 0.1,-0.9 0.5,-0.8 0.2,-0.2 0.9,-0.3 0.9,0.1 0.8,0.5 0.2,0.2 0.3,0.9 -0.1,0.8 -0.5,0.8 -0.2,0.2 -0.9,0.4 -0.8,-0.1 -1,-0.7 -1,-1.2 -0.7,-1.3 -0.1,-1.1 0.5,-0.8 0.4,-0.4 0.9,-0.4 0.6,0.3 m -1,6.1 -0.3,0.6 -0.1,1.2 -4,-4.8 m 3.5,185.2 0.2,0.7 0.8,1 -6.2,-0.7 m 6.1,3.6 -0.2,-0.9 -0.8,-0.7 -1.5,-0.5 -0.9,-0.1 -1.5,0.2 -0.9,0.5 -0.4,0.8 -0.1,0.6 0.2,0.9 0.8,0.7 1.5,0.5 0.9,0.1 1.5,-0.1 1,-0.5 0.4,-0.9 v -0.4 m -0.8,6.9 0.4,-3 -2.7,-0.6 0.3,0.4 0.2,0.9 -0.1,0.9 -0.4,0.8 -0.7,0.6 -0.9,0.2 -0.6,-0.1 -0.9,-0.4 -0.5,-0.7 -0.2,-0.9 0.1,-0.9 0.4,-0.8 0.3,-0.3 0.7,-0.2 m 68.7,94 0.4,-3.3 2.1,2.1 0.1,-0.9 0.4,-0.6 0.3,-0.2 1,-0.2 h 0.6 l 0.8,0.4 0.5,0.7 0.2,0.9 -0.1,0.9 -0.4,0.9 -0.3,0.3 -0.6,0.2 m -4,-9.9 5.9,3.7 m -6.4,0.4 0.5,-4.1 m -70.5,89 0.6,-0.4 0.8,-1 0.6,6.3 m 2.3,-6.8 -0.8,0.4 -0.5,1 -0.2,1.5 0.1,0.9 0.4,1.5 0.7,0.8 0.9,0.2 h 0.6 l 0.9,-0.4 0.5,-1 0.2,-1.5 -0.1,-0.9 -0.5,-1.5 -0.6,-0.8 -1,-0.2 h -0.4 m 7.5,1.4 -0.3,0.9 -0.5,0.7 -0.9,0.4 h -0.3 l -0.9,-0.2 -0.6,-0.5 -0.4,-0.9 -0.1,-0.3 0.3,-0.9 0.5,-0.7 0.9,-0.4 h 0.3 l 0.9,0.2 0.6,0.6 0.5,1.1 0.1,1.5 -0.2,1.5 -0.5,1 -0.8,0.4 h -0.6 l -1,-0.2 -0.3,-0.5 m -10.9,-55.1 0.6,-0.3 0.3,-0.9 v -0.6 l -0.3,-0.9 -1,-0.6 -1.5,-0.3 h -1.5 l -1.2,0.3 -0.5,0.6 -0.3,0.9 v 0.3 l 0.3,0.9 0.6,0.6 0.9,0.3 h 0.3 l 0.9,-0.3 0.6,-0.6 0.3,-0.9 v -0.3 l -0.3,-0.9 -0.7,-0.6 -0.9,-0.3 m 4.3,9.1 -6.3,-3 M 856,409 v 4.2 m 47.3,68.5 -5.1,-0.1 2.5,3.7 m 2.6,-3.6 -5.1,3.6 m 7.9,2.1 0.3,-0.6 -0.2,-0.9 -0.4,-0.5 -0.7,-0.6 H 904 l -1.4,0.6 -1.3,0.9 -0.8,0.9 -0.1,0.8 0.2,1 0.2,0.2 0.8,0.6 0.8,0.1 0.9,-0.2 0.3,-0.2 0.5,-0.8 0.2,-0.8 -0.3,-0.9 -0.2,-0.3 -0.7,-0.5 -0.9,-0.2 -0.9,0.3 m 49.7,37 -4.7,2.2 4,2.2 m 0.7,-4.4 -3.1,5.5 m 5.1,-2.6 0.1,-0.3 0.6,-0.4 0.4,-0.1 h 0.7 l 1,0.6 0.4,0.6 0.1,0.4 v 0.6 l -0.3,0.6 -0.5,0.3 -1,0.5 -4.1,1.2 3.7,2.1 m 27.2,-19.6 3.7,3.6 0.7,-4.5 m -4.4,0.9 6.2,1 m -5.7,-4.2 0.6,-3.3 2.1,2.2 0.1,-0.9 0.4,-0.6 0.3,-0.2 1,-0.2 0.6,0.1 0.8,0.5 0.5,0.7 0.2,0.9 -0.2,0.9 -0.4,0.8 -0.4,0.3 -0.6,0.2 m -25.2,-87.2 -3.2,-0.8 2.3,-1.9 -0.9,-0.2 -0.5,-0.4 -0.2,-0.4 -0.1,-0.9 0.2,-0.6 0.5,-0.8 0.7,-0.5 h 1 l 0.9,0.2 0.8,0.5 0.2,0.4 0.1,0.6 m -9.7,1.9 0.1,0.6 0.8,0.5 0.6,0.2 1,-0.1 0.8,-0.7 0.6,-1.4 0.4,-1.4 v -1.3 l -0.4,-0.7 -0.8,-0.5 -0.3,-0.1 -0.9,0.1 -0.8,0.4 -0.5,0.8 -0.1,0.3 0.1,0.9 0.4,0.8 0.8,0.5 0.3,0.1 1,-0.1 0.7,-0.4 0.5,-0.8 m 26.1,34.5 -0.6,-3.2 2.7,1.3 -0.2,-0.9 0.2,-0.6 0.2,-0.4 0.9,-0.4 0.5,-0.2 1,0.2 0.7,0.4 0.4,0.9 0.2,0.9 -0.1,0.9 -0.3,0.3 -0.5,0.5 m -4.7,-8.6 1,0.2 0.7,0.4 0.4,0.9 0.1,0.3 -0.1,0.9 -0.5,0.7 -0.8,0.5 H 985 l -1,-0.1 -0.7,-0.5 -0.4,-0.8 -0.1,-0.3 0.1,-1 0.5,-0.7 1.1,-0.5 1.5,-0.3 1.5,0.1 1,0.4 0.5,0.8 0.1,0.6 -0.1,0.9 -0.5,0.4 m 2.6,-184.8 -0.4,-0.6 -0.9,-0.8 6.3,-0.5 m -6.9,-4.2 0.2,3 2.7,0.1 -0.3,-0.3 -0.3,-0.9 -0.1,-0.9 0.2,-0.9 0.6,-0.6 0.8,-0.4 0.6,-0.1 1,0.3 0.6,0.5 0.4,0.9 v 0.9 l -0.2,0.9 -0.3,0.3 -0.5,0.4 m -16.6,-22.2 -0.2,0.6 v 1.3 l -4.5,-4.3 m 1.8,7.6 -1,-5.1 -3.1,3.3 m 4.1,1.8 -4.6,-4.3 m 32,110 h -0.3 l -0.6,-0.1 -0.4,-0.3 -0.4,-0.5 -0.2,-1.2 0.2,-0.6 0.2,-0.4 0.5,-0.4 0.6,-0.1 0.7,0.2 1,0.4 3.5,2.4 -0.8,-4.1 m -7.1,-4 6.7,1.8 m -6,2.3 -0.7,-4.1 m -17.5,46.1 3,-1.4 -0.6,2.9 0.8,-0.4 h 0.6 l 0.4,0.2 0.7,0.7 0.3,0.5 0.1,1 -0.3,0.8 -0.7,0.6 -0.8,0.4 -1,0.1 -0.4,-0.1 -0.5,-0.4 m 6.3,-7.7 -0.5,-0.4 -1,0.1 -0.5,0.3 -0.7,0.6 -0.1,1.1 0.3,1.5 0.7,1.3 0.8,1 0.8,0.3 0.9,-0.1 0.3,-0.2 0.7,-0.6 0.2,-0.8 -0.1,-0.9 -0.1,-0.3 -0.7,-0.7 -0.8,-0.3 -0.9,0.1 -0.3,0.2 -0.7,0.6 -0.2,0.8 0.1,0.9 m -30.6,-21.1 1.3,3 -2.9,-0.7 0.4,0.8 -0.1,0.7 -0.1,0.4 -0.8,0.6 -0.5,0.2 -1,0.1 -0.7,-0.3 -0.7,-0.7 -0.3,-0.9 -0.1,-0.9 0.2,-0.4 0.4,-0.5 m 8.3,6.7 -6.9,-0.3 m 5.3,-3.6 1.6,3.9"
       id="nums_002"
       stroke="#000000"
       stroke-width="1" />
    <path
       d="m 703,79.9 108.6,32.4 -28.6,82.6 36.9,-2.8 -8.5,53.6 12.8,32 -25.7,73.4 27.6,50.8 8.5,220.4 -29.5,49.2 -94.6,2.6 -117.9,12.8 -27.2,-104.5 22.1,-30.1 67.1,-2.4 49.8,-34.1 -51.3,-32.4 -84.7,-3.3 -2.1,-120.6 15,-72.6 1.3,-59.9 44.7,-61.4 -60.7,5.1 19.2,-67.1 93.5,4.3 z m 262,114.2 -18.5,66.1 47.4,-49.7 7.4,94.6 13.8,73.7 -51.1,24.2 -24.8,-59.1 -7.4,63.6 54.7,14.2 9.6,50.6 -12.5,78.5 -68.9,-38 -33.6,-48.6 -33.2,3.1 -0.4,-116.4 15.2,-134.8 -33,-101.5 59,-48.9 24.8,61.9 z"
       id="coupes_002"
       stroke="#ff0000"
       stroke-width="1.27"
       sodipodi:nodetypes="cccccccccccccccccccccccccccccccccccccccccccccc" />
    <path
       d="M 798.5,351.1 653.1,483.4 m -86.8,-123.9 232.2,-8.4 m 0,0 6.6,320.4 m 0,0 -150.5,-121.6 m 55.9,124.2 -123,-121.8 m 5.1,134.6 -5.1,-134.6 M 581.3,286.9 811.4,245.7 M 582.6,227 811.4,245.7 M 582.6,227 783,194.9 m 0,0 28.4,50.8 m -184.1,-80.1 52,-57.7 m 0,0 103.7,87 m -155.7,-29.3 -41.5,-62 m 360.7,156.6 -83.8,-44.1 m -33,-101.5 83.8,13 m 33,132.6 -7.3,83.7 m 0,0 -76.5,-127.8 m 76.5,127.8 -91.7,7 m 84.3,56.6 -84.3,-56.6 m 84.3,56.6 -50.7,56.7 m 115,8.1 -115,-8.1 m 50.7,-56.7 64.3,64.8 m 0,0 -81.4,40.5 m 86.6,-207.7 -62.1,38.8 m 7.3,-83.7 54.8,44.9 m 13.8,73.7 -75.9,-34.9"
       id="plisM_002"
       stroke="#a52a2a"
       stroke-dasharray="4" />
    <path
       d="m 566.3,359.5 86.8,123.9 M 798.5,351.1 704.4,515.8 M 805.1,671.5 704.4,515.8 m 94.1,-164.7 36.1,271.2 M 710.5,674.1 654.6,549.9 m -73.3,-263 217.2,64.2 M 581.3,286.9 824.2,277.7 M 627.3,165.6 783,194.9 m -103.7,-87 132.3,4.4 m 134.9,147.9 -33,-132.6 m -50.8,88.5 50.8,-88.5 M 881.1,464.2 847.5,350.9"
       id="plisV_002"
       stroke="#008000"
       stroke-dasharray="4, 1, 1, 1"
       stroke-width="1.27" />
    <path
       d="m 607.7,419.4 4,4 m 0,-4 -4,4 m 141.8,8 4,4 m 0,-4 -4,4 m 3.3,156.2 4,4 m 0,-4 -4,4 m 61.8,-110.9 4,4 m 0,-4 -4,4 M 680.5,610 l 4,4 m 0,-4 -4,4 m 7.4,-297 4,4 m 0,-4 -4,4 m 12.8,-40.7 4,4 m 0,-4 -4,4 m 2.4,-106 4,4 m 0,-4 -4,4 m 40.4,-74.2 4,4 m 0,-4 -4,4 m 184.5,79.8 4,4 m 0,-4 -4,4 m -41.9,-26 4,4 m 0,-4 -4,4 m -23.8,231.6 4,4 m 0,-4 -4,4"
       id="marqueV_002"
       stroke="#008000" />
    <path
       d="m 668.1,389.3 v -0.7 l 0.8,-1.5 0.7,-0.8 1.5,-0.7 h 3 l 1.5,0.7 0.8,0.8 0.7,1.5 v 1.5 l -0.7,1.5 -1.5,2.2 -7.5,7.5 h 10.5"
       id="titre_2"
       stroke="#4b0082" />
    <path
       d="m 902.1,355 h 8.2 l -4.5,6 h 2.3 l 1.5,0.8 0.7,0.7 0.8,2.3 v 1.5 l -0.8,2.2 -1.5,1.5 -2.2,0.8 h -2.3 l -2.2,-0.8 -0.8,-0.7 -0.7,-1.5"
       id="titre_3"
       stroke="#4b0082" />
  </g>
  <g
     id="page_003">
    <path
       d="m 1147.3,611.6 0.1,-0.9 -0.3,-0.6 -0.5,-0.3 h -0.7 l -0.6,0.4 -0.8,0.9 -0.7,0.6 -0.9,0.2 h -0.6 l -0.8,-0.5 -0.4,-0.5 -0.1,-0.4 0.2,-1 0.6,-1 0.7,-0.6 0.4,-0.2 0.7,0.1 0.8,0.4 0.3,0.6 0.3,0.8 -0.2,0.9 -0.4,1.2 v 0.7 l 0.4,0.6 0.5,0.3 h 0.6 l 0.8,-0.6 0.6,-1.2 m -2.9,5 0.2,-0.9 -0.5,-1 -1.1,-1 -0.8,-0.4 -1.4,-0.5 -1.1,0.1 -0.7,0.6 -0.3,0.5 -0.2,0.9 0.5,1 1.1,1 0.8,0.5 1.4,0.5 1.1,-0.1 0.7,-0.6 0.3,-0.4 m -4.4,27.2 -7,0.6 m 4.9,-4.2 2.1,3.6 m 2.4,4.1 -1.5,-2.6 -2.5,1.1 0.4,0.1 0.7,0.7 0.5,0.7 0.2,1 -0.2,0.8 -0.7,0.7 -0.5,0.3 -0.9,0.2 -0.8,-0.2 -0.7,-0.6 -0.5,-0.8 -0.2,-0.9 0.1,-0.4 0.4,-0.6 m 33.8,-73.8 -0.5,-0.8 -0.1,-0.8 0.3,-0.9 0.1,-0.3 0.8,-0.5 0.9,-0.1 0.9,0.3 0.2,0.2 0.5,0.8 0.2,0.8 -0.4,0.9 -0.1,0.2 -0.8,0.6 -0.9,0.1 -1.1,-0.5 -1.2,-0.9 -1,-1.2 -0.3,-1 0.3,-0.9 0.3,-0.5 0.8,-0.5 0.7,0.1 m 1,7.5 -2,2.7 -0.8,-2.9 -0.6,0.7 -0.6,0.3 h -0.4 l -0.9,-0.3 -0.5,-0.3 -0.5,-0.8 -0.1,-0.9 0.3,-0.9 0.6,-0.7 0.7,-0.5 0.5,-0.1 0.6,0.2 m 0.3,157.9 -3,0.3 v 2.7 l 0.3,-0.3 0.8,-0.4 0.9,-0.1 1,0.2 0.6,0.5 0.4,0.9 0.1,0.6 -0.2,0.9 -0.6,0.7 -0.8,0.4 -0.9,0.1 -1,-0.3 -0.3,-0.2 -0.4,-0.6 m 5.4,-5.7 3.3,-0.3 -1.5,2.6 0.9,-0.1 0.6,0.2 0.3,0.3 0.4,0.9 0.1,0.6 -0.2,0.9 -0.6,0.6 -0.8,0.4 -0.9,0.1 -1,-0.2 -0.3,-0.3 -0.3,-0.5 m -19.7,-33.7 -6.3,-3.1 m 6.4,-1.1 -0.1,4.2 m -1,4.7 0.6,-0.3 0.3,-0.9 v -0.6 l -0.2,-0.9 -0.9,-0.6 -1.5,-0.3 h -1.5 l -1.2,0.2 -0.6,0.6 -0.4,0.9 v 0.3 l 0.3,0.9 0.6,0.6 0.9,0.3 0.3,0.1 0.9,-0.3 0.6,-0.6 0.3,-0.9 v -0.3 l -0.2,-0.9 -0.6,-0.6 -0.9,-0.3 m 80.8,-231.3 -0.7,-0.7 -0.2,-0.8 0.1,-0.9 0.2,-0.3 0.6,-0.7 0.8,-0.2 1,0.1 0.2,0.2 0.7,0.6 0.3,0.8 -0.2,1 -0.1,0.2 -0.7,0.7 -0.8,0.3 -1.2,-0.3 -1.3,-0.7 -1.2,-0.9 -0.6,-1 0.2,-0.9 0.3,-0.6 0.6,-0.6 h 0.7 m 1.1,6.4 0.2,0.2 0.4,0.5 0.2,0.4 v 0.7 l -0.6,1.1 -0.5,0.4 -0.4,0.1 h -0.7 l -0.5,-0.3 -0.4,-0.5 -0.6,-1 -1.3,-4 -1.9,3.7 m 86.9,252.4 h -3 l -0.3,2.7 0.3,-0.3 0.9,-0.3 h 0.9 l 0.9,0.3 0.6,0.6 0.3,0.9 v 0.6 l -0.3,0.9 -0.6,0.6 -0.9,0.3 h -0.9 l -0.9,-0.3 -0.3,-0.3 -0.3,-0.6 m 5.8,-3.6 v -0.3 l 0.3,-0.6 0.3,-0.3 0.6,-0.3 h 1.2 l 0.6,0.3 0.3,0.3 0.3,0.6 v 0.6 l -0.3,0.6 -0.6,0.9 -2.9,3 h 4.2 m 152,-83.8 -0.2,1 0.4,0.5 0.5,0.3 0.7,0.1 0.5,-0.4 0.9,-0.9 0.7,-0.6 0.8,-0.2 h 0.7 l 0.8,0.5 0.3,0.5 0.1,0.4 -0.2,1 -0.6,1 -0.7,0.6 -0.4,0.1 h -0.7 l -0.7,-0.5 -0.4,-0.5 -0.2,-0.8 0.2,-1 0.3,-1.2 0.1,-0.6 -0.4,-0.6 -0.5,-0.3 h -0.7 l -0.7,0.6 -0.7,1.2 m 5.8,-5.8 0.6,0.7 0.3,0.8 -0.2,0.9 -0.2,0.3 -0.7,0.6 -0.8,0.2 -1,-0.1 -0.2,-0.2 -0.6,-0.7 -0.3,-0.8 0.2,-1 0.2,-0.2 0.7,-0.6 0.8,-0.3 1.2,0.4 1.3,0.7 1.2,1.1 0.4,0.9 -0.2,1 -0.3,0.5 -0.7,0.6 h -0.7 m -8.6,60.5 0.9,0.1 0.7,0.5 0.5,0.9 v 0.3 l -0.1,0.9 -0.5,0.7 -0.8,0.4 -0.3,0.1 -1,-0.1 -0.7,-0.5 -0.4,-0.8 -0.1,-0.3 0.1,-1 0.5,-0.7 1.2,-0.5 1.4,-0.3 1.6,0.1 1,0.4 0.4,0.8 0.1,0.6 -0.1,1 -0.6,0.4 m -6.4,-5.5 0.4,0.8 1,0.4 1.5,0.1 0.9,-0.2 1.4,-0.6 0.8,-0.7 0.2,-0.9 -0.1,-0.6 -0.5,-0.9 -1,-0.4 h -1.5 l -0.9,0.1 -1.4,0.6 -0.8,0.8 -0.1,0.9 v 0.4 m -13.6,24.2 -2.9,-0.5 -0.7,2.7 0.3,-0.3 0.9,-0.1 0.9,0.1 0.9,0.4 0.5,0.7 0.1,0.9 -0.1,0.6 -0.4,0.9 -0.7,0.5 -0.9,0.1 -0.9,-0.1 -0.8,-0.4 -0.3,-0.4 -0.2,-0.6 m 7.5,-4 -0.9,0.1 -0.4,0.6 -0.1,0.6 0.2,0.6 0.6,0.4 1.1,0.5 0.9,0.4 0.5,0.7 0.2,0.6 -0.2,0.9 -0.3,0.6 -0.4,0.2 -0.9,0.2 -1.2,-0.2 -0.9,-0.4 -0.2,-0.4 -0.2,-0.6 0.1,-0.9 0.4,-0.5 0.7,-0.5 0.9,-0.2 1.3,-0.1 0.6,-0.2 0.4,-0.6 0.1,-0.6 -0.2,-0.6 -0.9,-0.4 -1.3,-0.2 m 2,-323.3 0.7,0.7 h 0.6 l 0.6,-0.3 0.3,-0.6 v -0.7 l -0.3,-1.2 -0.2,-0.9 0.3,-0.8 0.3,-0.6 0.8,-0.4 h 0.7 l 0.4,0.1 0.7,0.6 0.6,1.1 0.2,0.9 -0.2,0.4 -0.3,0.6 -0.8,0.4 -0.7,0.1 -0.8,-0.3 -0.7,-0.6 -0.9,-0.9 -0.5,-0.4 h -0.7 l -0.5,0.3 -0.4,0.6 0.2,0.9 0.6,1.2 m -3.5,-6.3 5.2,0.6 -2.2,-3.9 m -3,3.3 5.5,-3 m -28.1,-16.6 -0.6,0.2 -1,0.9 0.6,-6.3 m -3.6,6.2 1,-0.2 0.6,-0.9 0.5,-1.4 0.1,-0.9 -0.2,-1.5 -0.5,-1 -0.9,-0.4 h -0.6 l -0.9,0.2 -0.7,0.8 -0.4,1.5 -0.1,0.9 0.2,1.5 0.5,1 0.8,0.3 0.5,0.1 m -5.2,-0.5 0.9,-0.2 0.7,-0.8 0.4,-1.5 0.1,-0.9 -0.1,-1.5 -0.5,-1 -0.9,-0.4 h -0.6 l -0.9,0.2 -0.7,0.8 -0.5,1.5 v 0.9 l 0.1,1.5 0.5,1 0.9,0.4 h 0.5 m 61.3,76.8 0.6,0.7 h 0.7 l 0.5,-0.3 0.4,-0.5 0.1,-0.7 -0.3,-1.2 v -0.9 l 0.3,-0.8 0.4,-0.5 0.8,-0.4 h 0.7 l 0.4,0.2 0.6,0.7 0.5,1.1 0.1,0.9 -0.2,0.4 -0.4,0.5 -0.8,0.4 h -0.7 l -0.8,-0.3 -0.6,-0.7 -0.8,-1 -0.5,-0.4 h -0.7 l -0.5,0.2 -0.4,0.5 0.1,1 0.5,1.2 m -3.3,-7.3 7,0.1 m -5.3,3.7 -1.7,-3.8 m -13.5,57.1 -0.4,0.9 0.2,0.6 0.5,0.4 0.6,0.2 0.7,-0.3 1,-0.7 0.8,-0.4 0.8,-0.1 0.7,0.2 0.7,0.6 0.2,0.6 v 0.4 l -0.3,0.9 -0.8,0.9 -0.8,0.5 h -0.5 l -0.6,-0.2 -0.7,-0.6 -0.2,-0.6 -0.1,-0.8 0.4,-0.9 0.5,-1.1 0.2,-0.7 -0.2,-0.6 -0.5,-0.4 -0.6,-0.2 -0.9,0.5 -0.8,1 m 5,-5.7 -2,2.3 1.8,2 v -0.4 l 0.4,-0.9 0.6,-0.7 0.8,-0.4 0.8,-0.1 0.9,0.4 0.4,0.4 0.5,0.8 0.1,0.8 -0.4,0.9 -0.6,0.7 -0.8,0.5 h -0.4 l -0.7,-0.2 m -206.7,-224.5 -0.9,-0.2 -0.7,-0.6 -0.4,-0.8 v -0.3 l 0.2,-1 0.6,-0.6 0.8,-0.4 h 0.3 l 1,0.2 0.6,0.5 0.4,0.9 v 0.3 l -0.2,0.9 -0.5,0.7 -1.2,0.4 -1.5,0.1 -1.5,-0.1 -1,-0.5 -0.3,-0.9 -0.1,-0.6 0.2,-0.9 0.6,-0.4 m 5.3,7.9 0.5,-0.4 0.2,-0.9 v -0.6 l -0.4,-0.9 -1,-0.5 -1.5,-0.1 -1.5,0.1 -1.1,0.4 -0.6,0.7 -0.2,0.9 v 0.3 l 0.4,0.9 0.7,0.5 0.9,0.2 h 0.3 l 0.9,-0.4 0.5,-0.6 0.2,-1 v -0.3 l -0.4,-0.8 -0.6,-0.6 -1,-0.2 m 66.6,-129.7 1,0.1 0.7,0.4 0.5,0.8 v 0.3 l -0.1,1 -0.4,0.7 -0.9,0.5 h -0.3 l -0.9,-0.1 -0.7,-0.4 -0.5,-0.9 -0.1,-0.2 0.2,-1 0.4,-0.7 1.1,-0.5 1.5,-0.4 h 1.5 l 1,0.4 0.5,0.8 0.1,0.6 -0.1,1 -0.5,0.4 m -7.1,-7.5 6.8,1.6 m -5.9,2.5 -0.9,-4.1 m -99.7,-34.5 -1,0.1 -0.8,-0.3 -0.6,-0.8 -0.1,-0.2 -0.1,-1 0.4,-0.8 0.7,-0.6 0.3,-0.1 0.9,-0.1 0.8,0.4 0.6,0.7 0.1,0.2 0.1,1 -0.3,0.8 -1,0.7 -1.4,0.6 -1.5,0.3 -1.1,-0.2 -0.6,-0.7 -0.2,-0.6 -0.1,-0.9 0.4,-0.5 m 8.2,5.6 -1.1,-2.8 -2.6,0.8 0.4,0.1 0.6,0.7 0.3,0.9 0.1,0.9 -0.3,0.8 -0.8,0.6 -0.5,0.3 h -1 l -0.7,-0.3 -0.7,-0.7 -0.3,-0.8 -0.1,-1 0.2,-0.4 0.4,-0.5 m -4.4,-82 0.7,0.2 0.8,-0.4 0.4,-0.4 0.5,-0.9 -0.2,-1 -0.9,-1.3 -1.1,-1.1 -1,-0.6 h -0.9 l -0.8,0.4 -0.2,0.2 -0.4,0.9 v 0.8 l 0.4,0.9 0.2,0.2 0.8,0.4 h 0.9 l 0.8,-0.4 0.2,-0.2 0.5,-0.9 v -0.8 l -0.5,-0.9 m -1.8,7.9 0.4,-0.9 -0.2,-1.1 -0.9,-1.2 -0.6,-0.7 -1.3,-0.8 -1,-0.2 -0.9,0.4 -0.4,0.4 -0.4,0.9 0.2,1 0.8,1.3 0.7,0.6 1.2,0.9 1.1,0.2 0.8,-0.4 0.4,-0.3 m 89.6,-17 -0.6,0.2 -0.9,0.9 0.3,-6.3 m -3.3,6.4 0.9,-0.3 0.7,-0.9 0.3,-1.4 0.1,-0.9 -0.2,-1.5 -0.6,-1 -0.9,-0.3 h -0.6 l -0.9,0.2 -0.6,0.9 -0.4,1.5 v 0.9 l 0.2,1.5 0.5,0.9 0.9,0.3 0.5,0.1 m -7,-0.4 3,0.2 0.4,-2.7 -0.3,0.3 -0.9,0.2 h -0.9 l -0.9,-0.3 -0.6,-0.7 -0.2,-0.9 v -0.6 l 0.4,-0.9 0.6,-0.5 0.9,-0.3 h 0.9 l 0.9,0.4 0.3,0.3 0.2,0.6 m 40.3,56 v -0.7 l -0.5,-1.1 5.8,2.3 m -5,-5.2 v 1 l 0.6,0.9 1.3,0.8 0.8,0.3 1.5,0.3 1.1,-0.2 0.6,-0.8 0.2,-0.5 0.1,-1 -0.7,-0.9 -1.3,-0.8 -0.8,-0.3 -1.5,-0.3 -1.1,0.3 -0.6,0.7 -0.1,0.4 m 3.3,-6.2 -0.6,0.1 -0.6,0.7 -0.2,0.6 -0.1,0.9 0.6,0.9 1.3,0.8 1.4,0.6 1.2,0.1 0.8,-0.3 0.6,-0.8 0.1,-0.2 0.1,-1 -0.4,-0.8 -0.7,-0.6 -0.3,-0.1 h -0.9 l -0.8,0.3 -0.6,0.7 -0.1,0.3 -0.1,1 0.4,0.8 0.7,0.6 m 76.4,288.4 v 0.9 l -0.3,0.8 -0.8,0.6 -0.2,0.1 h -1 l -0.8,-0.3 -0.5,-0.8 -0.2,-0.2 v -1 l 0.4,-0.8 0.7,-0.6 0.3,-0.1 h 0.9 l 0.8,0.4 0.7,1 0.5,1.4 0.3,1.5 -0.3,1.1 -0.7,0.6 -0.6,0.2 h -0.9 l -0.5,-0.5 m 6.9,-6.1 0.1,1 -0.4,0.8 -0.7,0.5 -0.3,0.2 h -0.9 l -0.8,-0.4 -0.6,-0.7 -0.1,-0.3 v -0.9 l 0.3,-0.8 0.8,-0.6 0.2,-0.1 h 1 l 0.8,0.3 0.6,1 0.6,1.4 0.2,1.6 -0.2,1 -0.8,0.6 -0.5,0.2 h -1 l -0.5,-0.4 m 27.3,-135 0.6,0.7 0.2,0.8 -0.3,1 -0.1,0.2 -0.8,0.6 -0.8,0.2 -0.9,-0.2 -0.3,-0.2 -0.6,-0.7 -0.2,-0.8 0.3,-1 0.1,-0.2 0.8,-0.6 0.8,-0.2 1.2,0.4 1.2,0.8 1.1,1 0.5,1 -0.2,0.9 -0.4,0.5 -0.7,0.6 h -0.7 m -1.2,-8.2 -0.2,0.9 0.3,0.6 0.5,0.3 0.7,0.1 0.6,-0.4 0.9,-0.8 0.7,-0.6 0.8,-0.2 0.7,0.1 0.7,0.4 0.4,0.6 0.1,0.4 -0.2,0.9 -0.7,1.1 -0.7,0.6 -0.4,0.1 -0.7,-0.1 -0.8,-0.5 -0.3,-0.6 -0.2,-0.8 0.2,-0.9 0.4,-1.2 0.1,-0.7 -0.4,-0.5 -0.5,-0.3 -0.6,-0.1 -0.8,0.6 -0.7,1.1 m -102.2,-69.2 -0.9,-0.3 -0.5,-0.6 -0.3,-0.9 v -0.3 l 0.4,-0.9 0.6,-0.6 0.9,-0.3 0.3,0.1 0.9,0.3 0.5,0.6 0.3,0.9 v 0.3 l -0.3,0.9 -0.7,0.6 -1.2,0.2 h -1.5 l -1.5,-0.4 -0.8,-0.6 -0.3,-0.9 v -0.6 l 0.4,-0.9 0.6,-0.3 m 5,9 -6.2,-3.2 m 6.4,-1 -0.2,4.2 M 1445,82 l -0.5,0.3 -0.2,1 v 0.6 l 0.4,0.8 1,0.5 1.5,0.2 1.5,-0.2 1.2,-0.4 0.5,-0.6 0.2,-1 v -0.3 l -0.4,-0.8 -0.7,-0.6 -0.9,-0.2 -0.3,0.1 -0.9,0.3 -0.5,0.7 -0.2,0.9 v 0.3 l 0.4,0.9 0.7,0.5 0.9,0.2 m -3,-8.7 0.9,0.3 0.7,0.5 0.4,0.9 v 0.3 l -0.2,0.9 -0.5,0.6 -0.9,0.4 -0.3,0.1 -0.9,-0.3 -0.7,-0.5 -0.4,-0.9 v -0.3 l 0.2,-0.9 0.6,-0.6 1.1,-0.5 1.5,-0.1 1.5,0.1 1,0.6 0.4,0.8 v 0.6 l -0.2,0.9 -0.5,0.4 m -29,-32.6 v 0.7 l 0.6,0.7 0.6,0.2 0.9,0.2 0.9,-0.5 1,-1.2 0.7,-1.4 0.3,-1.2 -0.3,-0.8 -0.7,-0.7 -0.2,-0.1 -1,-0.1 -0.8,0.2 -0.7,0.7 -0.1,0.2 -0.1,1 0.2,0.8 0.7,0.7 0.3,0.1 0.9,0.2 0.8,-0.3 0.7,-0.7 m -7.8,0.8 1,0.1 0.5,-0.4 0.3,-0.5 v -0.7 l -0.4,-0.5 -0.9,-0.8 -0.7,-0.7 -0.3,-0.8 v -0.7 l 0.5,-0.8 0.5,-0.4 0.4,-0.1 0.9,0.1 1.1,0.6 0.7,0.6 0.1,0.5 v 0.6 l -0.4,0.8 -0.6,0.4 -0.8,0.3 -0.9,-0.2 -1.2,-0.2 h -0.7 l -0.5,0.4 -0.3,0.5 v 0.7 l 0.7,0.6 1.2,0.6 m -40.9,25.7 v 0.7 l 0.3,1.2 -5.4,-3.1 m 4.1,5.8 0.2,-1 -0.5,-0.9 -1.1,-1 -0.8,-0.5 -1.4,-0.5 -1.1,0.1 -0.7,0.6 -0.3,0.6 -0.2,0.9 0.5,1 1.1,1 0.8,0.4 1.5,0.5 1,-0.1 0.7,-0.6 0.3,-0.4 m -4.3,5.6 0.7,0.1 0.7,-0.7 0.3,-0.5 0.2,-0.9 -0.5,-1 -1.2,-1 -1.3,-0.7 -1.2,-0.4 -0.8,0.3 -0.7,0.6 -0.1,0.3 -0.2,0.9 0.2,0.8 0.6,0.7 0.3,0.2 0.9,0.1 0.9,-0.2 0.7,-0.6 0.1,-0.3 0.2,-0.9 -0.2,-0.8 -0.7,-0.7 m 98.9,167.2 -0.2,-0.9 0.2,-0.8 0.6,-0.7 0.3,-0.2 0.9,-0.2 0.8,0.2 0.7,0.7 0.2,0.2 0.2,1 -0.2,0.8 -0.7,0.7 -0.2,0.1 -1,0.2 -0.8,-0.2 -0.8,-0.9 -0.8,-1.3 -0.5,-1.4 0.1,-1.1 0.6,-0.7 0.5,-0.3 1,-0.2 0.5,0.4 m -2.7,7.8 0.6,-0.7 V 247 l -0.3,-0.5 -0.6,-0.4 h -0.6 l -1.2,0.4 -1,0.2 -0.8,-0.3 -0.5,-0.3 -0.5,-0.8 v -0.7 l 0.1,-0.4 0.6,-0.7 1.1,-0.6 0.9,-0.2 0.4,0.1 0.6,0.4 0.4,0.8 0.1,0.6 -0.3,0.9 -0.6,0.7 -0.9,0.8 -0.4,0.6 0.1,0.7 0.3,0.5 0.5,0.3 1,-0.1 1.1,-0.7 m 71,1.8 h -0.6 l -1.2,0.4 2.6,-5.7 m -5.4,4.7 1,0.1 0.9,-0.6 0.9,-1.2 0.4,-0.8 0.3,-1.5 -0.2,-1.1 -0.6,-0.6 -0.6,-0.3 -0.9,-0.1 -1,0.6 -0.9,1.2 -0.3,0.8 -0.4,1.5 0.2,1.1 0.7,0.6 0.4,0.2 m -4.5,-2 1,0.1 0.5,-0.4 0.2,-0.6 v -0.7 l -0.4,-0.5 -1,-0.8 -0.6,-0.6 -0.3,-0.8 -0.1,-0.7 0.4,-0.8 0.5,-0.4 0.4,-0.2 1,0.2 1.1,0.5 0.7,0.6 0.1,0.4 v 0.7 l -0.3,0.8 -0.6,0.4 -0.8,0.3 -0.9,-0.1 -1.2,-0.2 h -0.7 l -0.5,0.4 -0.3,0.5 v 0.7 l 0.7,0.7 1.3,0.5 m 33.4,42.9 3.7,3.5 0.6,-4.5 m -4.3,1 6.2,0.8 m -4.5,-6.9 -0.6,0.2 -0.4,0.9 -0.1,0.6 0.2,0.9 0.8,0.7 1.5,0.5 1.4,0.2 1.3,-0.1 0.6,-0.6 0.5,-0.8 v -0.3 l -0.2,-0.9 -0.5,-0.7 -0.8,-0.4 -0.3,-0.1 -1,0.2 -0.7,0.5 -0.4,0.9 v 0.3 l 0.2,0.9 0.5,0.7 0.8,0.4 m -49.1,-124.1 7,-0.4 m -5,4.1 -2,-3.7 m -1.4,-2.6 0.7,0.6 1.1,0.1 1.4,-0.4 0.8,-0.4 1.2,-1 0.5,-1 -0.2,-0.9 -0.3,-0.6 -0.7,-0.6 -1,-0.1 -1.5,0.5 -0.8,0.4 -1.2,1 -0.5,0.9 0.2,1 0.2,0.4 m 29.9,47.7 -0.6,-0.3 -1.3,-0.3 5.3,-3.5 m -7.1,1.1 0.8,0.6 h 1.1 l 1.4,-0.5 0.7,-0.5 1.1,-1.1 0.5,-1 -0.3,-0.9 -0.3,-0.5 -0.8,-0.6 h -1 l -1.5,0.6 -0.7,0.4 -1.1,1.1 -0.4,1 0.2,0.9 0.3,0.4 m -2.3,-7.3 0.9,-0.2 0.9,0.2 0.7,0.6 0.2,0.2 0.2,0.9 -0.1,0.9 -0.6,0.7 -0.3,0.2 -0.9,0.2 -0.8,-0.2 -0.8,-0.5 -0.1,-0.3 -0.3,-0.9 0.2,-0.8 0.8,-1 1.3,-0.8 1.4,-0.5 h 1.1 l 0.7,0.6 0.4,0.5 0.2,0.9 -0.3,0.6 m -35.9,-2.2 0.6,-0.2 1.1,-0.7 -1.2,6.2 m 4.1,-5.9 -1,0.2 -0.7,0.7 -0.6,1.5 -0.1,0.8 v 1.6 l 0.4,1 0.8,0.4 0.6,0.1 1,-0.1 0.7,-0.8 0.6,-1.4 0.2,-0.9 -0.1,-1.5 -0.4,-1 -0.8,-0.4 -0.5,-0.1 m 4.9,0.9 -1,0.1 -0.4,0.5 -0.1,0.6 0.2,0.7 0.5,0.4 1.1,0.5 0.9,0.4 0.4,0.7 0.2,0.7 -0.1,0.9 -0.4,0.5 -0.4,0.3 -0.9,0.1 -1.2,-0.2 -0.8,-0.5 -0.3,-0.3 -0.2,-0.7 0.2,-0.9 0.4,-0.5 0.7,-0.5 1,-0.1 1.2,-0.1 0.6,-0.2 0.4,-0.5 0.1,-0.6 -0.1,-0.6 -0.9,-0.5 -1.3,-0.3 M 1472.8,84 l 0.6,-0.1 0.7,-0.7 0.2,-0.5 0.1,-0.9 -0.6,-1 -1.2,-0.9 -1.4,-0.6 -1.2,-0.2 -0.8,0.3 -0.6,0.7 -0.2,0.3 v 0.9 l 0.3,0.8 0.7,0.7 0.2,0.1 1,0.1 0.8,-0.3 0.6,-0.7 0.1,-0.3 0.1,-0.9 -0.3,-0.8 -0.7,-0.7 m -1.7,9.1 -0.7,-0.7 -0.3,-0.8 0.1,-0.9 0.1,-0.3 0.6,-0.7 0.8,-0.3 1,0.1 0.2,0.1 0.7,0.7 0.3,0.8 -0.1,0.9 -0.1,0.3 -0.6,0.7 -0.8,0.3 -1.2,-0.2 -1.4,-0.7 -1.2,-0.8 -0.6,-1 0.1,-0.9 0.2,-0.6 0.7,-0.7 h 0.6 m 69.7,34.2 -1.5,6.9 m -2.6,-5.9 4.1,-1 m 2.9,-0.6 -0.8,0.5 -0.4,1 v 1.5 l 0.2,0.9 0.7,1.4 0.8,0.7 0.9,0.1 0.6,-0.1 0.8,-0.5 0.4,-1 -0.1,-1.5 -0.2,-0.9 -0.6,-1.4 -0.8,-0.7 -0.9,-0.1 -0.4,0.1 m -2.1,-46.1 -0.4,0.5 0.1,1 0.3,0.5 0.6,0.7 1.1,0.1 1.5,-0.3 1.3,-0.7 1,-0.8 0.2,-0.8 -0.1,-0.9 -0.1,-0.3 -0.7,-0.7 -0.8,-0.3 -0.9,0.2 -0.3,0.1 -0.7,0.7 -0.2,0.8 0.1,0.9 0.1,0.3 0.7,0.6 0.8,0.3 0.9,-0.1 m -7.8,-6.3 7,-0.1 m -5.1,3.8 -1.9,-3.7 m -31.4,-26.2 0.6,0.2 0.8,-0.5 0.5,-0.4 0.4,-0.9 -0.2,-1 -0.9,-1.3 -1.1,-1 -1.1,-0.6 h -0.8 l -0.8,0.4 -0.3,0.2 -0.4,0.9 v 0.8 l 0.5,0.9 0.2,0.2 0.8,0.4 h 0.9 l 0.8,-0.5 0.2,-0.2 0.5,-0.8 -0.1,-0.9 -0.4,-0.8 m -1.5,7.6 0.4,-0.8 -0.3,-0.7 -0.4,-0.4 -0.6,-0.2 -0.7,0.2 -1,0.7 -0.9,0.4 h -0.8 l -0.6,-0.2 -0.7,-0.6 -0.2,-0.7 v -0.4 l 0.4,-0.8 0.8,-0.9 0.9,-0.4 h 0.4 l 0.6,0.2 0.7,0.6 0.2,0.6 v 0.9 l -0.4,0.8 -0.6,1.1 -0.2,0.6 0.2,0.7 0.4,0.4 0.7,0.2 0.8,-0.4 1,-1 m -22.7,563.2 0.3,0.9 0.5,0.4 h 0.6 l 0.7,-0.2 0.3,-0.6 0.4,-1.1 0.4,-0.9 0.7,-0.6 0.6,-0.2 0.9,0.1 0.6,0.4 0.2,0.3 0.2,0.9 -0.1,1.2 -0.4,0.9 -0.3,0.2 -0.6,0.3 -0.9,-0.1 -0.6,-0.4 -0.5,-0.6 -0.2,-0.9 -0.2,-1.3 -0.3,-0.6 -0.5,-0.4 h -0.6 l -0.6,0.2 -0.4,0.9 -0.2,1.3 m 0.6,-5.4 0.2,0.9 0.5,0.3 0.6,0.1 0.7,-0.2 0.3,-0.6 0.4,-1.2 0.4,-0.8 0.7,-0.6 0.6,-0.2 0.9,0.1 0.6,0.3 0.2,0.4 0.3,0.9 -0.2,1.2 -0.3,0.8 -0.4,0.3 -0.6,0.3 -0.9,-0.1 -0.6,-0.4 -0.5,-0.6 -0.2,-1 -0.2,-1.2 -0.2,-0.6 -0.6,-0.4 h -0.6 l -0.6,0.2 -0.4,0.9 -0.1,1.3 m -15.7,-32.7 0.9,0.2 0.6,-0.3 0.4,-0.5 v -0.7 l -0.3,-0.5 -0.8,-1 -0.6,-0.7 -0.1,-0.8 v -0.7 l 0.6,-0.8 0.5,-0.3 0.5,-0.1 0.9,0.3 1,0.7 0.5,0.7 0.1,0.4 -0.1,0.7 -0.5,0.7 -0.6,0.4 -0.8,0.1 -0.9,-0.2 -1.2,-0.5 h -0.6 l -0.6,0.3 -0.4,0.5 v 0.7 l 0.5,0.7 1.1,0.8 m -5.7,-5.1 -0.1,0.7 0.6,0.8 0.4,0.3 1,0.3 1,-0.4 1.1,-1.1 0.8,-1.3 0.4,-1.1 -0.1,-0.9 -0.6,-0.7 -0.3,-0.2 -0.9,-0.2 -0.8,0.1 -0.8,0.6 -0.1,0.2 -0.3,1 0.2,0.8 0.5,0.8 0.3,0.1 0.9,0.3 0.8,-0.2 0.8,-0.6 m 101.9,-201.9 4.6,2.3 -0.7,-4.4 m -3.9,2.1 6.2,-0.9 m -5.1,-2.5 -0.3,0.1 -0.6,-0.2 -0.4,-0.3 -0.4,-0.5 -0.2,-1.2 0.3,-0.7 0.2,-0.3 0.6,-0.4 0.6,-0.1 0.6,0.2 1,0.5 3.4,2.5 -0.6,-4.1 m -14.6,58.3 1.4,4.9 2.8,-3.5 m -4.2,-1.4 4.9,3.9 m -2,-7.4 -0.4,0.9 0.4,1.1 0.9,1.1 0.7,0.6 1.4,0.7 1.1,0.1 0.8,-0.5 0.3,-0.5 0.4,-0.9 -0.4,-1 -0.9,-1.2 -0.7,-0.5 -1.4,-0.7 -1.1,-0.1 -0.8,0.5 -0.2,0.3 m -59.1,-22.1 -4.9,1.5 3.6,2.7 m 1.3,-4.2 -3.8,5 m 5,-2.3 0.6,0.1 1.3,-0.2 -3.8,5.1 m -319.4,-261.5 0.9,-0.3 0.8,0.1 0.8,0.5 0.2,0.3 0.3,0.9 -0.1,0.8 -0.6,0.8 -0.2,0.2 -0.9,0.3 -0.8,-0.1 -0.8,-0.6 -0.2,-0.2 -0.3,-0.9 0.1,-0.8 0.8,-1 1.1,-0.9 1.4,-0.7 1.1,-0.1 0.8,0.6 0.4,0.4 0.3,0.9 -0.3,0.6 m -9.4,-3.3 1.8,2.4 2.4,-1.4 -0.5,-0.1 -0.7,-0.5 -0.6,-0.7 -0.3,-0.9 0.1,-0.9 0.5,-0.7 0.5,-0.4 0.9,-0.3 0.9,0.1 0.7,0.5 0.6,0.7 0.3,0.9 -0.1,0.5 -0.3,0.6 m -80.8,30.9 h -1 l -0.7,-0.4 -0.6,-0.7 -0.1,-0.3 v -0.9 l 0.3,-0.8 0.8,-0.6 0.2,-0.1 h 1 l 0.8,0.3 0.5,0.8 0.1,0.3 0.1,0.9 -0.4,0.8 -1,0.7 -1.4,0.5 -1.5,0.2 -1.1,-0.2 -0.6,-0.8 -0.2,-0.6 v -0.9 l 0.5,-0.5 m 5.3,3 0.5,0.5 1.1,0.5 -5.9,2.2 m 36.1,62.8 -1,0.2 -0.8,-0.2 -0.7,-0.6 -0.2,-0.2 -0.2,-0.9 0.1,-0.9 0.6,-0.7 0.3,-0.2 0.9,-0.2 0.8,0.2 0.8,0.6 0.1,0.2 0.3,0.9 -0.2,0.9 -0.8,0.9 -1.3,0.8 -1.4,0.6 -1.1,-0.1 -0.8,-0.6 -0.3,-0.5 -0.2,-0.9 0.3,-0.6 m 8.9,3.7 -5.2,-0.2 2.5,3.7 m 2.7,-3.5 -5.3,3.4 m 95.6,52.5 1,0.3 0.6,0.5 0.3,0.9 0.1,0.3 -0.3,0.9 -0.6,0.7 -0.8,0.3 h -0.3 l -1,-0.2 -0.6,-0.6 -0.3,-0.9 -0.1,-0.3 0.3,-0.9 0.6,-0.6 1.1,-0.4 1.5,-0.1 1.6,0.3 0.9,0.5 0.3,0.9 0.1,0.6 -0.3,0.9 -0.6,0.3 m -4.9,-8.1 -0.6,0.4 -0.3,0.9 0.1,0.6 0.3,0.9 1,0.5 1.5,0.2 h 1.5 l 1.2,-0.4 0.5,-0.6 0.3,-1 -0.1,-0.3 -0.3,-0.8 -0.6,-0.6 -1,-0.3 -0.3,0.1 -0.8,0.3 -0.6,0.6 -0.2,1 v 0.3 l 0.3,0.8 0.7,0.6 0.9,0.3 m -84.5,100.6 -3.3,-6.2 m 5.8,2.9 -2.5,3.3 m -1.1,1.4 -2,2.6 -0.8,-2.8 -0.5,0.7 -0.6,0.3 h -0.5 l -0.9,-0.3 -0.4,-0.3 -0.6,-0.8 -0.1,-0.8 0.3,-0.9 0.5,-0.8 0.8,-0.5 0.4,-0.1 0.7,0.2 m 47.4,81.6 0.6,0.7 0.3,0.8 -0.2,0.9 -0.1,0.3 -0.7,0.6 -0.9,0.3 -0.9,-0.2 -0.2,-0.2 -0.7,-0.6 -0.2,-0.9 0.1,-0.9 0.2,-0.3 0.7,-0.6 0.8,-0.2 1.2,0.3 1.3,0.7 1.2,1 0.5,0.9 -0.2,1 -0.3,0.5 -0.7,0.6 h -0.6 m -0.9,-6.5 -0.3,-0.1 -0.4,-0.6 -0.1,-0.4 v -0.6 l 0.6,-1.1 0.5,-0.4 0.5,-0.1 h 0.6 l 0.6,0.3 0.3,0.6 0.5,0.9 1.2,4.1 2,-3.7 m -84,2.9 -6.6,-2.1 m 6,-2.1 0.6,4.2 m -1.2,1.2 0.4,0.6 1,0.8 -6.2,0.9 m 9.4,-42 -2.9,-6.3 m 5.6,3.1 -2.7,3.2 m -2.8,3.3 -1.2,-5 -2.9,3.5 m 4.1,1.5 -4.8,-4 m 25.4,139.4 0.6,0.7 0.2,0.9 -0.2,0.9 -0.2,0.2 -0.7,0.6 -0.8,0.2 -1,-0.2 -0.2,-0.2 -0.6,-0.7 -0.2,-0.8 0.2,-0.9 0.2,-0.3 0.7,-0.6 0.9,-0.2 1.1,0.4 1.3,0.8 1.1,1.1 0.4,1 -0.2,0.9 -0.3,0.5 -0.7,0.6 -0.7,-0.1 m -1.7,-7.4 1.8,-2.8 1,2.8 0.5,-0.7 0.6,-0.4 0.4,-0.1 0.9,0.3 0.5,0.3 0.6,0.7 0.2,0.9 -0.2,0.9 -0.5,0.7 -0.7,0.6 -0.5,0.1 h -0.6 m -32,-489.5 0.7,-2.9 -2.6,-0.9 0.2,0.4 0.1,0.9 -0.2,0.9 -0.5,0.8 -0.7,0.4 -1,0.1 -0.6,-0.1 -0.8,-0.5 -0.4,-0.7 -0.1,-1 0.2,-0.8 0.5,-0.9 0.4,-0.2 0.6,-0.1 m 0.8,9.7 -0.8,-0.5 -0.4,-0.8 -0.1,-0.9 0.1,-0.3 0.5,-0.8 0.7,-0.5 h 0.9 0.3 l 0.8,0.5 0.5,0.7 0.1,1 -0.1,0.3 -0.5,0.8 -0.7,0.4 -1.3,0.1 -1.4,-0.4 -1.4,-0.6 -0.8,-0.8 v -1 l 0.1,-0.5 0.5,-0.8 0.6,-0.2 m 21,-24.4 -0.3,0.6 0.3,0.9 0.3,0.5 0.8,0.5 h 1 l 1.4,-0.7 1.3,-0.8 0.8,-1 0.1,-0.8 -0.3,-0.9 -0.2,-0.3 -0.7,-0.5 -0.9,-0.2 -0.9,0.3 -0.2,0.2 -0.6,0.8 -0.1,0.8 0.3,0.9 0.2,0.3 0.7,0.5 0.9,0.2 0.9,-0.3 m -7.4,-3.2 0.7,0.6 h 1.1 l 1.4,-0.7 0.7,-0.5 1.1,-1.1 0.4,-1 -0.3,-0.9 -0.4,-0.5 -0.7,-0.6 -1.1,0.1 -1.4,0.6 -0.7,0.5 -1.1,1.1 -0.4,1.1 0.3,0.9 0.3,0.3 m -8.8,527.2 -2.7,6.4 m -1.5,-6.2 4.2,-0.2 m 5.2,-0.3 -2.7,6.5 m -1.5,-6.3 4.2,-0.2 m -5,-32.8 -5.5,-4.2 m 6.4,0.1 -0.9,4.1 m -0.5,2.6 -0.2,-0.9 -0.5,-0.4 -0.6,-0.2 -0.6,0.2 -0.4,0.5 -0.6,1.1 -0.5,0.9 -0.7,0.4 -0.6,0.2 -0.9,-0.2 -0.5,-0.4 -0.3,-0.4 -0.1,-0.9 0.3,-1.2 0.5,-0.8 0.3,-0.2 0.7,-0.2 0.9,0.2 0.5,0.4 0.4,0.7 0.1,1 0.1,1.2 0.2,0.6 0.5,0.5 0.6,0.1 0.6,-0.2 0.5,-0.8 0.3,-1.3 m 13.4,-229.1 h 0.7 l 1.2,-0.3 -3.3,5.4 m 5.9,-4 -0.9,-0.2 -1,0.4 -1,1.1 -0.5,0.8 -0.6,1.4 0.1,1.1 0.6,0.8 0.5,0.3 0.9,0.2 1,-0.5 1,-1.1 0.5,-0.7 0.6,-1.5 -0.1,-1 -0.6,-0.8 -0.4,-0.2 m 3.4,2.1 2.8,1.7 -2.8,1.1 0.8,0.5 0.3,0.6 0.1,0.4 -0.2,0.9 -0.3,0.5 -0.7,0.6 -0.9,0.2 -0.9,-0.2 -0.7,-0.5 -0.7,-0.7 v -0.4 -0.7 m 0.9,-39.1 -0.4,0.6 -0.3,1.2 -3.1,-5.4 m 0.6,7.1 0.7,-0.7 0.1,-1.1 -0.5,-1.5 -0.5,-0.7 -1,-1.2 -0.9,-0.5 -1,0.2 -0.5,0.3 -0.6,0.7 -0.1,1.1 0.5,1.4 0.4,0.8 1,1.2 1,0.5 0.9,-0.2 0.4,-0.2 m -4.1,0.6 0.1,0.3 0.1,0.6 -0.2,0.4 -0.3,0.6 -1.1,0.6 h -0.6 l -0.4,-0.1 -0.6,-0.4 -0.3,-0.5 v -0.7 -1 l 1.2,-4.1 -3.7,2.1"
       id="nums_003"
       stroke="#000000"
       stroke-width="1" />
    <path
       d="m 1491.2,576.3 -5.3,54.2 -23.4,40.1 13.2,72.9 -56.7,-8.6 -220.6,0.9 -57.5,5.8 1.3,-77.7 -17.5,-29.7 27.1,-47 25.2,-32.7 86.7,-169 -19.2,-196.9 -55.8,-134.5 40.4,-40.3 135.4,6.4 -40.5,104.5 13,60 2.7,-61.3 55.5,-97.3 54.5,27.9 5.1,52 21.4,-47.7 42.7,-43.8 51.3,104.5 -59.4,13.5 29.3,53.4 18.2,27.9 -86.3,-16.1 -38,60.6 62,-35.7 79.7,37 -7.7,58.5 11.5,77.9 -29.7,36.9 -104.6,-78.5 -49.5,18.2 48.7,4.5 26,47 25.8,57.4 -54.4,61.3 z M 1097.9,432 l 18.5,-22 44.7,-59.6 -78.1,-48.8 67.3,-38.4 -41.5,-64.3 -26.1,-72 24.3,-104 33.2,46.4 88.7,115.5 11.3,197.5 -91.2,166.6 -22.1,34.9 -37.1,1.7 18.2,-85.5 z"
       id="coupes_003"
       stroke="#ff0000"
       stroke-width="1.27"
       sodipodi:nodetypes="cccccccccccccccccccccccccccccccccccccccccccccccccccccccccc" />
    <path
       d="m 1151.8,587.2 -9.6,76.7 m 56.2,71.9 -56.2,-71.9 m 34.8,-109.4 21.4,181.3 m 142.4,-28.8 -142.4,28.8 m 65.3,-350.3 77.1,321.5 m 0,0 78.2,27.9 m -155.3,-349.4 132,-12.9 m 45.9,170.1 20.9,127.9 m 0,0 -43.5,64.3 m -23.3,-362.3 74.7,51.5 m 0,0 -28.4,118.8 m -105,-358.2 58.7,187.9 m -132,12.9 73.3,-200.8 m 104.6,358 44.3,87.8 m -241.4,-441.9 92.5,-3.9 m -92.5,3.9 79.5,-63.9 M 1188.7,54.1 1324,124.7 m 13,60 97,73.6 m 0,0 -38.3,114.3 m 38.3,-114.3 11.2,96.1 m 9.6,-248.4 17.2,91.7 m -135,-13 117.8,-78.7 m -115.1,17.4 115.1,-17.4 m -115.1,17.4 110,-69.4 m 5.1,52 56,26.5 m 0,0 -38.8,65.2 m 96,120.4 -122.8,36.3 m 50.8,-131.8 72,95.5 m -27.9,-132.2 -68.1,11.8 m 4.2,-139.4 34.6,74.2 m -34.6,-74.2 94,60.7 m -341.3,65.8 -146.2,-57.9 m 0,0 57.5,-57.6 m 88.7,115.5 -78.6,78.4 m 78.6,-78.4 -67.8,165.6 m 0,0 -10.8,-87.2 m 89.9,119.1 -123.8,27.7 M 1149,548.9 1116.4,410 m -8.4,90 8.4,-90 M 1126.9,583.8 1108,500"
       id="plisM_003"
       stroke="#a52a2a"
       stroke-dasharray="4" />
    <path
       d="m 1151.8,587.2 46.6,148.6 M 1177,554.5 1340.8,707 M 1263.7,385.5 1442,542.9 m 0,0 L 1340.8,707 M 1441.6,542.7 1419,734.9 M 1395.7,372.6 1442,542.9 M 1229.1,13.8 1324,124.7 m 13,60 135,13 m -38,60.6 134,59.8 m 11.5,77.9 -134.3,-41.6 m -216.3,-169.6 -120.1,14.1 m 131.4,183.4 -79.1,-31.9 M 1149,548.9 1108,500"
       id="plisV_003"
       stroke="#008000"
       stroke-dasharray="4, 1, 1, 1"
       stroke-width="1.27" />
    <path
       d="m 1173.1,659.5 4,4 m 0,-4 -4,4 m 83.8,-34.8 4,4 m 0,-4 -4,4 m 93.9,-170.5 4,4 m 0,-4 -4,4 m 38.6,156.8 4,4 m 0,-4 -4,4 m 38.9,9.8 4,4 m 0,-4 -4,4 m -11.4,-185 4,4 m 0,-4 -4,4 m -142.3,-392.6 4,4 m 0,-4 -4,4 m 127.9,118 4,4 m 0,-4 -4,4 m 96.5,93 4,4 m 0,-4 -4,4 m 11.4,83 4,4 m 0,-4 -4,4 m -343.6,-187.3 4,4 m 0,-4 -4,4 m 31.8,170.5 4,4 m 0,-4 -4,4 m -72.1,154.1 4,4 m 0,-4 -4,4"
       id="marqueV_003"
       stroke="#008000" />
    <path
       d="m 1426.7,315.9 -7.5,10.5 h 11.3 m -3.8,-10.5 v 15.7"
       id="titre_4"
       stroke="#4b0082" />
    <path
       d="m 1134.9,292.7 h -7.5 l -0.8,6.8 0.8,-0.8 2.2,-0.7 h 2.3 l 2.2,0.7 1.5,1.5 0.8,2.3 v 1.5 l -0.8,2.2 -1.5,1.5 -2.2,0.8 h -2.3 l -2.2,-0.8 -0.8,-0.7 -0.7,-1.5"
       id="titre_5"
       stroke="#4b0082" />
  </g>
  <g
     id="page_004">
    <path
       d="m 1656.3,280.2 0.2,0.6 0.8,1 -6.2,-0.7 m 5.9,5.5 0.3,-3 -2.6,-0.6 0.2,0.3 0.2,0.9 -0.1,0.9 -0.4,0.9 -0.6,0.5 -1,0.2 -0.6,-0.1 -0.8,-0.4 -0.6,-0.7 -0.1,-0.9 0.1,-0.9 0.4,-0.8 0.3,-0.3 0.6,-0.2 m 68.4,25.5 -0.4,-0.6 -1.1,-0.7 6.3,-1 m -7,-1.9 0.5,0.9 1,0.4 h 1.5 l 0.9,-0.1 1.4,-0.5 0.8,-0.8 0.2,-0.9 -0.1,-0.6 -0.5,-0.8 -1,-0.5 h -1.5 l -0.9,0.1 -1.4,0.5 -0.8,0.8 -0.1,0.9 v 0.5 m -1.1,-6.5 4.6,2.3 -0.7,-4.4 m -3.9,2.1 6.2,-1 m -17.4,55.8 -0.6,-0.2 -0.9,0.4 -0.4,0.4 -0.4,0.9 0.2,1 0.8,1.3 1.1,1.1 1,0.6 h 0.9 l 0.8,-0.4 0.2,-0.2 0.5,-0.8 v -0.9 l -0.4,-0.8 -0.2,-0.2 -0.9,-0.5 h -0.8 l -0.9,0.4 -0.2,0.2 -0.4,0.9 -0.1,0.8 0.5,0.9 m 3.2,-9.1 -2.2,2.1 1.7,2.2 v -0.4 l 0.5,-0.9 0.6,-0.6 0.9,-0.4 h 0.8 l 0.9,0.4 0.4,0.4 0.4,0.9 v 0.8 l -0.5,0.9 -0.6,0.6 -0.9,0.4 h -0.4 l -0.6,-0.2 m -74.3,8.9 0.3,0.1 0.4,0.5 0.2,0.4 v 0.7 l -0.5,1.1 -0.5,0.4 -0.4,0.2 h -0.7 l -0.5,-0.3 -0.4,-0.5 -0.6,-0.9 -1.5,-4 -1.7,3.8 m 3.5,7.4 -4.5,-5.4 m 6.3,1.6 -1.8,3.8 m -10.3,46.6 0.4,3.3 -2.6,-1.4 0.1,0.8 -0.2,0.7 -0.2,0.3 -0.9,0.4 -0.6,0.1 -0.9,-0.2 -0.7,-0.5 -0.4,-0.8 -0.1,-0.9 0.1,-0.9 0.3,-0.4 0.6,-0.4 m 4.2,8.8 -1,-0.2 -0.6,-0.5 -0.4,-0.8 -0.1,-0.3 0.2,-1 0.5,-0.6 0.8,-0.5 h 0.3 l 1,0.2 0.7,0.5 0.4,0.8 v 0.3 l -0.2,1 -0.5,0.6 -1.1,0.5 -1.5,0.2 -1.5,-0.1 -1,-0.5 -0.4,-0.8 -0.1,-0.6 0.2,-0.9 0.5,-0.4 m 100.7,-194.8 5.5,4.3 m -6.4,-0.2 0.9,-4.1 m -52.9,-33 0.6,-0.3 0.4,-0.8 0.1,-0.6 -0.3,-0.9 -0.8,-0.7 -1.4,-0.5 -1.5,-0.1 -1.3,0.1 -0.6,0.6 -0.4,0.8 v 0.3 l 0.2,0.9 0.5,0.7 0.9,0.4 h 0.3 l 0.9,-0.2 0.6,-0.5 0.4,-0.9 0.1,-0.3 -0.2,-0.9 -0.6,-0.7 -0.8,-0.3 m 8.5,-79.6 0.3,0.6 0.8,1 -6.3,-0.3 m 6.4,3.2 -0.2,-0.9 -0.9,-0.6 -1.5,-0.4 h -0.9 l -1.5,0.2 -0.9,0.6 -0.4,0.9 v 0.6 l 0.3,0.9 0.8,0.6 1.5,0.4 h 0.9 l 1.5,-0.2 1,-0.6 0.3,-0.9 v -0.4 m -1.5,3.2 0.2,0.7 0.9,0.9 -6.3,-0.3 m 93.2,52 0.3,-0.6 0.2,-1.2 3.8,5 m -1.5,-6.9 -0.6,0.7 0.1,1.1 0.6,1.4 0.6,0.7 1.1,1 1,0.4 0.9,-0.3 0.5,-0.3 0.6,-0.8 -0.1,-1.1 -0.7,-1.4 -0.5,-0.7 -1.1,-1 -1,-0.4 -0.9,0.3 -0.4,0.3 m 26.7,-102.9 -0.1,0.6 v 1.3 l -4.7,-4.2 m 2.9,6.5 0.4,-0.9 -0.3,-1 -0.9,-1.2 -0.7,-0.6 -1.3,-0.8 -1,-0.2 -0.9,0.5 -0.4,0.4 -0.3,0.9 0.2,1.1 0.9,1.2 0.7,0.6 1.3,0.8 1.1,0.1 0.8,-0.4 0.3,-0.4 m -2.6,3 -2.3,2.4 -0.5,-2.9 -0.6,0.7 -0.7,0.2 h -0.4 l -0.9,-0.4 -0.4,-0.4 -0.5,-0.8 v -0.8 l 0.4,-0.9 0.6,-0.7 0.8,-0.4 0.4,-0.1 0.7,0.2 m -83.3,-9.3 -0.5,-0.9 v -0.8 l 0.4,-0.9 0.2,-0.2 0.9,-0.5 h 0.8 l 0.9,0.4 0.2,0.2 0.4,0.9 0.1,0.8 -0.4,0.9 -0.2,0.2 -0.9,0.4 -0.8,0.1 -1.1,-0.6 -1.1,-1.1 -0.9,-1.2 -0.2,-1.1 0.4,-0.8 0.4,-0.5 0.8,-0.4 0.7,0.2 m -1.5,9.5 -1,-5.1 -3.1,3.2 m 4.1,1.9 -4.6,-4.4 m 38.3,13.3 -0.5,-0.4 -1.2,-0.5 5.8,-2.5 m -7.1,-0.1 0.6,0.7 1.1,0.2 1.5,-0.3 0.8,-0.4 1.3,-0.8 0.6,-0.9 -0.1,-1 -0.3,-0.5 -0.6,-0.8 -1,-0.2 -1.5,0.3 -0.9,0.4 -1.2,0.9 -0.6,0.9 v 0.9 l 0.2,0.4 m -0.1,-4.2 -0.3,0.1 h -0.7 l -0.4,-0.2 -0.5,-0.4 -0.4,-1.1 v -0.7 l 0.2,-0.4 0.4,-0.5 0.6,-0.2 h 0.6 l 1.1,0.2 3.9,1.6 -1.6,-3.8 m -9.5,325.8 0.2,0.6 0.9,0.4 0.5,0.1 1,-0.1 0.7,-0.8 0.5,-1.5 0.3,-1.5 -0.2,-1.2 -0.5,-0.7 -0.8,-0.4 h -0.3 l -0.9,0.1 -0.7,0.5 -0.5,0.9 v 0.3 l 0.2,0.9 0.5,0.7 0.8,0.4 0.3,0.1 0.9,-0.2 0.7,-0.5 0.5,-0.9 m -9.2,2.9 3,0.5 0.7,-2.7 -0.4,0.3 -0.9,0.1 -0.9,-0.1 -0.9,-0.4 -0.5,-0.7 -0.1,-0.9 0.1,-0.6 0.4,-0.9 0.7,-0.5 0.9,-0.1 0.9,0.1 0.9,0.4 0.2,0.4 0.2,0.6 m 7,51.5 0.6,0.2 h 1.3 l -4.4,4.4 m 6.6,-2.5 -0.8,-0.4 -1.1,0.2 -1.2,0.9 -0.7,0.6 -0.8,1.3 -0.2,1 0.4,0.9 0.4,0.4 0.9,0.4 1,-0.2 1.3,-0.8 0.6,-0.7 0.9,-1.2 0.2,-1.1 -0.4,-0.8 -0.4,-0.4 m 5.3,5.3 -6.6,2.3 m 3.6,-5.3 3,3 m 55.9,-55.4 -0.6,0.4 -0.8,0.9 -0.6,-6.2 m -2.3,6.7 0.9,-0.3 0.5,-1 0.1,-1.5 -0.1,-0.9 -0.4,-1.5 -0.7,-0.8 -0.9,-0.2 h -0.6 l -0.9,0.4 -0.5,1 -0.1,1.5 0.1,0.9 0.4,1.4 0.7,0.9 0.9,0.2 h 0.5 m -6.6,0.7 2.6,-4.5 -4.5,0.4 m 1.9,4.1 -0.6,-6.3 m 67,11 4.8,-5 m -0.8,6.3 -4,-1.3 m 30.9,65.3 -2.9,-0.7 -1,2.5 0.4,-0.2 1,-0.1 0.8,0.2 0.8,0.5 0.5,0.7 0.1,1 -0.2,0.6 -0.5,0.8 -0.7,0.4 -1,0.1 -0.8,-0.2 -0.8,-0.5 -0.3,-0.4 -0.1,-0.6 m 15.6,-22 -0.5,-0.4 -1.1,-0.6 6,-2 m -7.1,-0.7 0.5,0.7 1.1,0.3 1.5,-0.2 0.8,-0.3 1.4,-0.7 0.6,-0.9 v -0.9 l -0.1,-0.6 -0.6,-0.7 -1.1,-0.3 -1.5,0.2 -0.8,0.2 -1.4,0.8 -0.6,0.8 v 1 l 0.1,0.4 m -36.7,-401.1 2.1,-6.6 m 2,6.1 -4.1,0.5 m -1.8,0.3 -3.2,0.4 1.4,-2.6 -0.9,0.1 -0.6,-0.2 -0.3,-0.3 -0.5,-0.8 v -0.6 l 0.1,-0.9 0.6,-0.7 0.8,-0.4 0.9,-0.2 0.9,0.2 0.4,0.3 0.3,0.5 m 41.8,8.8 6.6,-2.4 m -3.7,5.3 -2.9,-2.9 m -3.1,-3 5.1,-0.9 -3.2,-3.2 m -1.9,4.1 4.5,-4.5 m -6.2,288.2 -0.3,-0.6 -1,-0.2 -0.6,0.1 -0.8,0.3 -0.6,1 -0.2,1.5 0.1,1.5 0.4,1.1 0.7,0.6 0.9,0.2 h 0.3 l 0.9,-0.3 0.5,-0.7 0.3,-0.9 -0.1,-0.3 -0.3,-0.9 -0.7,-0.5 -0.9,-0.3 h -0.3 l -0.9,0.4 -0.5,0.6 -0.3,1 m 4.8,-3.2 0.6,-0.3 0.8,-1 0.5,6.3 m 51,-271 3.6,-6 m 0.5,6.4 -4.1,-0.4 m -1,-1.5 -0.6,0.2 -1,0.8 0.6,-6.3 m 17.8,57.3 5.7,4.1 m -6.4,0.1 0.7,-4.2 m 1.8,-1.3 -0.3,-0.1 -0.6,-0.4 -0.2,-0.3 -0.2,-0.7 0.2,-1.2 0.4,-0.5 0.3,-0.2 0.7,-0.2 0.6,0.1 0.5,0.4 0.8,0.7 2.4,3.5 0.8,-4.1 m -161.9,86.2 0.7,-2.9 -2.6,-0.9 0.3,0.4 v 0.9 l -0.2,0.9 -0.5,0.8 -0.7,0.4 -0.9,0.1 -0.6,-0.1 -0.8,-0.5 -0.5,-0.7 -0.1,-1 0.2,-0.9 0.5,-0.8 0.4,-0.2 0.7,-0.1 m 46.9,137 0.7,-0.3 1,-0.8 -0.7,6.3 m 2.2,-4.8 v -0.3 l 0.4,-0.6 0.3,-0.2 0.6,-0.2 1.2,0.1 0.6,0.3 0.2,0.4 0.3,0.6 -0.1,0.6 -0.4,0.6 -0.6,0.8 -3.4,2.6 4.2,0.5 m -77.1,-74.8 -0.1,0.7 0.3,1.2 -5.4,-3.2 m 4.7,4.8 -1.7,2.9 -1.1,-2.8 -0.5,0.8 -0.5,0.3 -0.5,0.1 -0.9,-0.2 -0.5,-0.3 -0.6,-0.7 -0.2,-0.8 0.2,-1 0.5,-0.7 0.7,-0.7 0.4,-0.1 0.7,0.1 m 1.4,53.8 0.6,0.3 1.2,0.1 -4.9,4 m 7.4,0.2 0.2,-0.6 -0.3,-0.9 -0.4,-0.5 -0.7,-0.5 -1.1,0.1 -1.4,0.7 -1.2,0.9 -0.7,1 -0.1,0.8 0.3,0.9 0.2,0.3 0.8,0.5 0.8,0.1 0.9,-0.3 0.3,-0.2 0.5,-0.8 0.1,-0.9 -0.3,-0.9 -0.2,-0.2 -0.8,-0.5 -0.9,-0.1 -0.9,0.3 m 32.3,18.7 0.5,-0.5 0.5,-1.2 2.3,5.9 m 2.4,-8 -0.4,7 m -3.5,-5.4 3.9,-1.6 m 125.9,-6.5 -0.3,-0.5 -1,-0.3 -0.6,0.1 -0.8,0.4 -0.6,0.9 -0.1,1.5 0.1,1.5 0.4,1.2 0.6,0.5 0.9,0.3 0.3,-0.1 0.9,-0.3 0.6,-0.7 0.2,-0.9 v -0.3 l -0.4,-0.9 -0.6,-0.5 -1,-0.2 h -0.3 l -0.8,0.4 -0.6,0.6 -0.2,0.9 m 5.3,-3.1 v -0.3 l 0.2,-0.6 0.3,-0.4 0.6,-0.3 1.2,-0.1 0.6,0.3 0.3,0.2 0.4,0.6 v 0.6 l -0.2,0.6 -0.6,1 -2.7,3.2 4.2,-0.3 m 24.9,-142.1 6.2,-3.2 m -2.9,5.7 -3.3,-2.5 m -2.8,-4.7 0.8,-0.6 0.8,-0.1 0.9,0.3 0.3,0.2 0.5,0.8 0.1,0.8 -0.3,0.9 -0.2,0.3 -0.8,0.5 -0.8,0.1 -0.9,-0.3 -0.2,-0.2 -0.6,-0.8 -0.1,-0.8 0.5,-1.1 0.9,-1.2 1.2,-1 1,-0.4 0.9,0.3 0.5,0.4 0.5,0.8 -0.1,0.6 m 18,56.3 4.7,2.1 -0.9,-4.4 m -3.8,2.3 6.1,-1.3 m 88.3,16.8 -0.6,0.2 -1,0.8 0.7,-6.2 m -3.4,6.1 1,-0.1 0.3,-0.6 0.1,-0.6 -0.2,-0.6 -0.6,-0.4 -1.2,-0.4 -0.8,-0.4 -0.5,-0.7 -0.3,-0.6 0.1,-0.9 0.4,-0.6 0.3,-0.3 1,-0.2 1.1,0.2 0.9,0.4 0.3,0.3 0.2,0.7 -0.1,0.8 -0.4,0.6 -0.6,0.5 -1,0.2 -1.2,0.2 -0.6,0.2 -0.4,0.6 -0.1,0.6 0.3,0.6 0.8,0.4 1.4,0.2 m -41.3,15 -0.2,-0.9 0.2,-0.8 0.6,-0.8 0.2,-0.1 0.9,-0.3 0.9,0.2 0.7,0.6 0.2,0.3 0.2,0.9 -0.2,0.8 -0.5,0.7 -0.3,0.2 -0.9,0.2 -0.8,-0.1 -1,-0.9 -0.8,-1.2 -0.5,-1.5 v -1 l 0.6,-0.8 0.5,-0.3 0.9,-0.2 0.6,0.3 m -27.9,101.4 0.1,-0.7 -0.1,-1.2 4.8,4 m -3.2,-4.1 0.2,-0.6 -0.1,-1.3 4.8,4.1 m -71.2,-19.7 0.5,0.4 0.9,-0.1 0.6,-0.3 0.7,-0.6 0.2,-1.1 -0.4,-1.5 -0.6,-1.3 -0.8,-1 -0.8,-0.3 -0.9,0.1 -0.3,0.1 -0.7,0.7 -0.3,0.8 0.1,0.9 0.1,0.3 0.7,0.7 0.8,0.3 0.9,-0.1 0.3,-0.1 0.7,-0.7 0.3,-0.8 -0.1,-0.9 m -4,4.7 0.2,0.3 -0.1,0.7 -0.1,0.4 -0.4,0.5 -1.1,0.5 h -0.7 l -0.4,-0.2 -0.5,-0.4 -0.3,-0.6 0.1,-0.6 0.1,-1.1 1.5,-4 -3.8,1.8 m -21.1,28.1 0.7,-0.1 0.5,-0.8 0.2,-0.5 v -1 l -0.7,-0.8 -1.4,-0.8 -1.4,-0.4 -1.2,-0.1 -0.8,0.4 -0.5,0.8 -0.1,0.3 v 0.9 l 0.4,0.8 0.8,0.5 0.2,0.1 h 1 l 0.7,-0.4 0.6,-0.8 0.1,-0.3 v -0.9 l -0.4,-0.8 -0.8,-0.5 m 1.2,5.6 0.1,0.6 0.6,1.1 -6,-1.8 m 28.9,50.2 0.6,-0.2 1.1,-0.7 -1.3,6.2 m 6.4,-5.3 -4.2,5.5 m 0.1,-6.4 4.1,0.9 m -29.3,-21.5 0.5,0.4 1.2,0.4 -5.6,2.8 m 5.2,-0.8 0.3,-0.1 h 0.7 l 0.4,0.1 0.5,0.4 0.6,1.1 v 0.7 l -0.2,0.4 -0.4,0.5 -0.5,0.3 h -0.7 l -1,-0.1 -4.1,-1.3 1.9,3.7 m -286.2,83.2 -4.1,-3.2 -0.2,4.5 m 4.3,-1.3 -6.3,-0.3 m 6,3.5 -0.1,3.3 -2.3,-1.9 -0.1,0.9 -0.3,0.6 -0.3,0.3 -0.9,0.3 -0.6,-0.1 -0.9,-0.3 -0.6,-0.6 -0.2,-1 v -0.9 l 0.4,-0.8 0.3,-0.3 0.6,-0.3 m 80.7,-27.7 -0.4,-0.5 -1,-0.8 6.2,-1.1 m -6.9,-1.7 0.4,0.8 1,0.4 1.5,0.1 0.9,-0.2 1.5,-0.5 0.7,-0.8 0.2,-0.9 -0.1,-0.6 -0.5,-0.8 -1,-0.5 h -1.5 l -0.9,0.1 -1.4,0.6 -0.8,0.7 -0.1,1 v 0.4 m -1.2,-7.3 6.7,1.8 m -6,2.3 -0.7,-4.1 m 3.3,66.6 -0.3,-0.1 -0.6,-0.4 -0.2,-0.3 -0.2,-0.7 0.3,-1.2 0.4,-0.5 0.3,-0.2 0.7,-0.2 0.6,0.1 0.5,0.4 0.8,0.8 2.3,3.5 0.8,-4.1 m -5.8,-2.9 0.6,-3.3 2,2.3 0.2,-0.9 0.4,-0.6 0.4,-0.2 0.9,-0.1 0.6,0.1 0.8,0.5 0.5,0.7 0.1,0.9 -0.2,0.9 -0.4,0.8 -0.4,0.3 -0.6,0.1 m 99.2,-32.4 0.3,-0.6 0.1,-1.3 3.8,5 m -2.5,-6.2 2.6,-2 v 3 l 0.7,-0.6 0.7,-0.1 h 0.4 l 0.8,0.6 0.4,0.5 0.3,0.8 -0.1,0.9 -0.6,0.8 -0.7,0.5 -0.9,0.3 h -0.4 l -0.6,-0.3 m -65.3,13.4 v -0.3 l 0.4,-0.5 0.3,-0.3 0.7,-0.2 1.2,0.2 0.5,0.4 0.3,0.3 0.2,0.6 -0.1,0.6 -0.4,0.6 -0.7,0.8 -3.4,2.5 4.1,0.6 m 2.4,-4.5 v -0.3 l 0.4,-0.5 0.3,-0.3 0.7,-0.2 1.2,0.2 0.5,0.4 0.3,0.3 0.2,0.7 -0.1,0.5 -0.4,0.6 -0.7,0.8 -3.4,2.5 4.1,0.6 m -11,-14.7 0.2,0.3 0.1,0.6 v 0.5 l -0.3,0.6 -1,0.7 -0.7,0.1 -0.4,-0.1 -0.6,-0.3 -0.3,-0.5 -0.2,-0.7 v -1 l 0.7,-4.2 -3.4,2.4 m 2.3,6.1 -2.7,2 v -3 l -0.7,0.5 -0.7,0.1 -0.4,-0.1 -0.7,-0.5 -0.4,-0.5 -0.3,-0.9 0.2,-0.8 0.5,-0.8 0.7,-0.5 0.9,-0.3 h 0.5 l 0.6,0.4 m 248.6,-38.5 0.6,0.3 1.3,0.1 -4.8,4.1 m 7.4,-0.1 0.2,-0.6 -0.3,-0.9 -0.4,-0.5 -0.9,-0.4 -1,0.1 -1.4,0.8 -1.1,0.9 -0.7,1.1 v 0.8 l 0.3,0.9 0.2,0.2 0.8,0.5 h 0.9 l 0.9,-0.3 0.2,-0.2 0.5,-0.8 v -0.9 l -0.3,-0.9 -0.2,-0.2 -0.9,-0.5 h -0.8 l -0.9,0.3 m 44.3,-49.2 -0.6,0.2 -1,0.8 0.8,-6.2 m -1.7,4.9 -0.7,0.2 -1,0.8 0.8,-6.2 m 62.8,30.6 -0.1,0.6 0.5,0.8 0.5,0.4 0.9,0.3 1,-0.4 1.2,-1 0.9,-1.2 0.5,-1.1 -0.1,-0.9 -0.6,-0.8 -0.2,-0.1 -0.9,-0.4 -0.9,0.2 -0.7,0.5 -0.2,0.2 -0.3,0.9 0.1,0.9 0.5,0.8 0.3,0.1 0.9,0.3 0.8,-0.1 0.8,-0.5 m -9.1,-1.6 4.9,-1.5 -3.6,-2.7 m -1.3,4.2 3.8,-5 m -9.8,61.5 2,-2.7 0.9,2.9 0.5,-0.7 0.6,-0.3 0.4,-0.1 0.9,0.3 0.5,0.4 0.5,0.7 0.2,0.9 -0.3,0.9 -0.6,0.7 -0.7,0.5 -0.5,0.1 -0.6,-0.1 m 0.1,-6.4 0.2,-0.7 -0.2,-1.3 5,3.8 m -55.3,14.3 0.2,-0.2 0.6,-0.3 h 0.4 l 0.7,0.2 0.9,0.7 0.2,0.6 0.1,0.5 -0.2,0.6 -0.4,0.5 -0.6,0.2 -1,0.3 -4.3,0.4 3.2,2.7 m 4.4,-2.6 0.2,-0.2 0.6,-0.3 h 0.4 l 0.7,0.2 0.9,0.7 0.3,0.6 v 0.5 l -0.1,0.6 -0.4,0.5 -0.7,0.2 -1,0.3 -4.2,0.4 3.2,2.7 m -372.1,57.9 2.4,2.3 -2.9,0.4 0.6,0.7 0.2,0.6 v 0.4 l -0.4,0.9 -0.4,0.4 -0.8,0.4 -0.9,0.1 -0.8,-0.4 -0.7,-0.7 -0.4,-0.8 v -0.4 l 0.2,-0.7 m 9.7,2.2 -5.1,0.9 3.2,3.2 m 1.9,-4.1 -4.4,4.5 m 55.7,24.6 2.9,-1.7 -0.4,3 0.8,-0.4 0.7,-0.1 0.4,0.1 0.7,0.6 0.3,0.6 0.2,0.9 -0.2,0.8 -0.7,0.7 -0.8,0.5 -0.9,0.2 -0.4,-0.1 -0.6,-0.4 m 5.2,-8.9 -2.6,1.5 1.1,2.5 0.1,-0.4 0.6,-0.7 0.8,-0.5 0.9,-0.2 0.9,0.2 0.7,0.7 0.3,0.5 0.2,0.9 -0.2,0.8 -0.7,0.7 -0.7,0.5 -1,0.2 -0.4,-0.1 -0.5,-0.4 m 35.1,-64.9 -3.2,0.6 1.3,-2.7 -0.9,0.2 -0.6,-0.2 -0.4,-0.3 -0.4,-0.8 -0.1,-0.6 0.1,-0.9 0.5,-0.7 0.8,-0.5 0.9,-0.1 1,0.1 0.3,0.2 0.4,0.6 m -4.5,4.5 -0.6,0.4 -0.7,1.1 -1.1,-6.2 m 52,29.3 -0.6,-3.3 2.7,1.3 -0.2,-0.8 0.2,-0.7 0.2,-0.3 0.8,-0.5 0.6,-0.1 1,0.1 0.7,0.5 0.4,0.8 0.2,0.9 -0.1,0.9 -0.3,0.4 -0.5,0.4 m -4.6,-5.1 -0.3,0.1 -0.7,-0.2 -0.3,-0.2 -0.4,-0.6 -0.3,-1.2 0.2,-0.6 0.3,-0.3 0.5,-0.5 0.6,-0.1 0.6,0.2 1,0.4 3.5,2.4 -0.8,-4.1 m -30.4,31.4 3.3,-0.1 -1.7,2.5 0.9,-0.1 0.6,0.3 0.3,0.3 0.3,0.9 v 0.6 l -0.2,0.9 -0.6,0.6 -0.9,0.4 h -0.9 l -0.9,-0.3 -0.3,-0.3 -0.3,-0.6 m 5.7,-5.3 3.3,-0.1 -1.7,2.5 0.9,-0.1 0.6,0.3 0.3,0.3 0.3,0.9 0.1,0.6 -0.3,0.9 -0.6,0.6 -0.9,0.4 h -0.9 l -0.9,-0.3 -0.3,-0.3 -0.3,-0.6 m 299.7,-276.8 -0.6,0.3 -0.3,0.9 v 0.6 l 0.4,0.9 0.9,0.5 1.5,0.3 h 1.5 l 1.2,-0.4 0.6,-0.6 0.2,-0.9 V 309 l -0.3,-0.9 -0.6,-0.6 -0.9,-0.2 h -0.3 l -0.9,0.3 -0.6,0.6 -0.3,0.9 v 0.3 l 0.4,0.9 0.6,0.6 0.9,0.3 m -4.4,-5.5 -0.1,-3.3 2.5,1.7 v -0.9 l 0.3,-0.6 0.2,-0.3 0.9,-0.4 h 0.6 l 0.9,0.3 0.7,0.6 0.3,0.9 v 0.9 l -0.3,0.9 -0.3,0.3 -0.5,0.3 m -20.8,38.9 0.1,-0.7 -0.6,-0.7 -0.5,-0.4 -0.9,-0.2 -1,0.4 -1.1,1.1 -0.8,1.3 -0.4,1.1 0.1,0.9 0.6,0.7 0.3,0.2 0.9,0.2 0.8,-0.2 0.8,-0.5 0.1,-0.3 0.3,-0.9 -0.2,-0.8 -0.6,-0.8 -0.2,-0.2 -1,-0.2 -0.8,0.2 -0.7,0.6 m 9.2,0.9 -4.9,1.9 3.8,2.4 m 1.1,-4.3 -3.5,5.3"
       id="nums_004"
       stroke="#000000"
       stroke-width="1" />
    <path
       d="m 1666.1,85.8 52.8,-55.4 30.1,71.4 61.6,-68.5 73.8,-10 20.2,20.3 68.5,6.7 -19.8,111.6 29.3,22.2 19,91.7 58.6,-38 30.1,3.5 3.6,129.4 -56.7,-37.3 -48.2,57.2 74.2,9.5 54.1,41 -62,84 -50.9,-43.3 -46.6,-53.4 -39.7,-8.1 -18.6,-36.5 12,-38.3 51.3,-23.2 -56.1,4.5 -40.1,2.8 -40.7,-4.5 -37.6,14.9 -44.1,-55.4 40.6,-67.7 15.2,-64.2 -66.3,49.1 -13.5,61.7 12.2,73.1 -40,39.1 55.3,8.4 73.7,-7.3 60.1,19.5 25.9,78.4 -64.2,-15.6 -62.6,48 -66.1,-9.8 37.9,-27.3 -52,-52 12.6,72.4 -8.9,45.8 102.7,-18.2 13.2,68.4 -69.8,2.6 -44.9,26.2 -89.9,-86.3 3.7,-79.4 -6.9,-51 31.2,-68.2 11.3,-94.1 8.7,-83.8 z"
       id="coupes_004"
       stroke="#ff0000"
       stroke-width="1.27"
       sodipodi:nodetypes="ccccccccccccccccccccccccccccccccccccccccccccccccccccccccc" />
    <path
       d="m 1654.7,236.2 65.5,27.3 m 12.2,73.1 -89,-6.3 m 49,45.4 -49,-45.4 m 49,45.4 -80.2,22.8 m 80.2,-22.8 -73.3,73.8 m 81.3,-31.5 -81.3,31.5 m 73.3,-73.8 8,42.3 m -45.7,-181.8 79,-34.4 m -70.3,-49.4 70.3,49.4 m -67.6,-116 67.6,116 m 15.3,-100 -15.3,100 m -67.6,-116 82.9,16 m 0,0 51,50.9 m -52.3,231.4 -47.3,33.9 m 47.3,-33.9 4.7,85.9 m -4.7,-85.9 95.5,75 m 38.3,-62.8 -38.3,62.8 M 1866.6,329.6 1800,152.7 m 104.6,-109.1 -38,286 m 38,-286 2.1,283.2 m 46.6,-164.9 -46.6,164.9 m -2.1,-283.2 48.7,118.3 m -127.4,163.2 -41.1,-108.2 m 197.8,-32.8 -19.8,138.2 m 38.8,-46.5 -38.8,46.5 m 74.4,11.1 -74.4,-11.1 m 127.5,-81 -53.1,92.1 m -48.2,57.2 -26.2,-68.3 m 26.2,68.3 -77.5,-45.1 m 77.5,45.1 -89.5,-6.8 m 89.5,6.8 -31.2,37.8 m 0,0 -58.3,-44.6 m -199.1,34.2 -85,110.9 m 165.2,-21.8 -28.2,-37.1 m 236.6,-79.4 15.4,91.2 m -300.3,54.4 1.2,79 m -1.2,-79 46.1,52.8 m 56.6,-71 -56.6,71"
       id="plisM_004"
       stroke="#a52a2a"
       stroke-dasharray="4" />
    <path
       d="m 1720.2,263.5 -76.8,66.8 m 167.2,-297 -10.6,119.4 m 43.2,306.4 -90.8,10.9 m 69,-93.2 21.8,82.3 M 1904.6,43.6 1800,152.7 m 10.6,-119.4 94,10.3 m -38,286 -81.8,-112.7 m 41.1,108.2 -81.7,-40.5 m 209.1,-122.7 9.5,160.4 m 38.8,-46.5 35.6,57.6 m -35.6,-57.6 88.7,-34.5 m -377.3,249.1 -97.6,38.5 m 88.7,7.3 -88.7,-7.3 m 447.8,-128.8 -58.8,81.7 m 112.9,-40.7 -112.9,40.7"
       id="plisV_004"
       stroke="#008000"
       stroke-dasharray="4, 1, 1, 1"
       stroke-width="1.27" />
    <path
       d="m 1679.8,294.9 4,4 m 0,-4 -4,4 M 1803.3,91 l 4,4 m 0,-4 -4,4 m -7.5,367.5 4,4 m 0,-4 -4,4 m 34.5,-50.5 4,4 m 0,-4 -4,4 m 20,-323.9 4,4 m 0,-4 -4,4 m 5.3,-63.6 4,4 m 0,-4 -4,4 m -31.9,230.7 4,4 m 0,-4 -4,4 m -40.6,27.6 4,4 m 0,-4 -4,4 m 173,-66.7 4,4 m 0,-4 -4,4 m 61.3,58.5 4,4 m 0,-4 -4,4 m 26.5,-50 4,4 m 0,-4 -4,4 m -381.7,247 4,4 m 0,-4 -4,4 m -4.5,19 4,4 m 0,-4 -4,4 m 374.1,-95.7 4,4 m 0,-4 -4,4 m 27,16.5 4,4 m 0,-4 -4,4"
       id="marqueV_004"
       stroke="#008000" />
    <path
       d="m 1829.6,280.4 -0.8,-1.5 -2.2,-0.8 h -1.5 l -2.3,0.8 -1.5,2.2 -0.7,3.8 v 3.7 l 0.7,3 1.5,1.5 2.3,0.8 h 0.7 l 2.3,-0.8 1.5,-1.5 0.7,-2.2 v -0.8 l -0.7,-2.2 -1.5,-1.5 -2.3,-0.8 h -0.7 l -2.3,0.8 -1.5,1.5 -0.7,2.2"
       id="titre_6"
       stroke="#4b0082" />
  </g>
</svg>
