<?xml version="1.0" encoding="UTF-8" standalone="no"?>
<svg
   xmlns:dc="http://purl.org/dc/elements/1.1/"
   xmlns:cc="http://creativecommons.org/ns#"
   xmlns:rdf="http://www.w3.org/1999/02/22-rdf-syntax-ns#"
   xmlns:svg="http://www.w3.org/2000/svg"
   xmlns="http://www.w3.org/2000/svg"
   xmlns:sodipodi="http://sodipodi.sourceforge.net/DTD/sodipodi-0.dtd"
   xmlns:inkscape="http://www.inkscape.org/namespaces/inkscape"
   width="1152.1636mm"
   height="595.35278mm"
   viewBox="0 0 1152.1635 595.35279"
   version="1.1"
   id="svg126"
   sodipodi:docname="squelette.svg"
   inkscape:version="1.0.1 (0767f8302a, 2020-10-17)">
  <metadata
     id="metadata132">
    <rdf:RDF>
      <cc:Work
         rdf:about="">
        <dc:format>image/svg+xml</dc:format>
        <dc:type
           rdf:resource="http://purl.org/dc/dcmitype/StillImage" />
      </cc:Work>
    </rdf:RDF>
  </metadata>
  <defs
     id="defs130" />
  <sodipodi:namedview
     pagecolor="#ffffff"
     bordercolor="#666666"
     borderopacity="1"
     objecttolerance="10"
     gridtolerance="10"
     guidetolerance="10"
     inkscape:pageopacity="0"
     inkscape:pageshadow="2"
     inkscape:window-width="1920"
     inkscape:window-height="1016"
     id="namedview128"
     showgrid="false"
     inkscape:zoom="0.36664186"
     inkscape:cx="2177.317"
     inkscape:cy="1125.0761"
     inkscape:window-x="0"
     inkscape:window-y="27"
     inkscape:window-maximized="1"
     inkscape:current-layer="svg126" />
  <g
     id="g100"
     style="fill:none;stroke:#000000;stroke-width:2;stroke-opacity:1"
     transform="translate(-25.458334,1)">
    <path
       d="m 235.3259,209.7881 0.5931,-0.6964 71.3845,-73.9546 0.4952,-1.3341 0.2012,-0.7267 -0.2012,-0.7569 -0.4952,-1.3964 -71.3845,-77.0627 -0.5931,-0.7391 -1.0972,0.2654 L 168.2391,0 h -29.5394 l -59.5242,53.3866 -1.1631,-0.2654 0.0819,1.188 0.0036,0.0409 -44.3493,77.2444 0.5682,0.9546 -0.5682,0.9102 44.3493,75.1479 -0.0855,1.1809 1.1631,-0.0837 10.6723,8.6739 v -87.108 h 6.0005 v 91.9847 l 42.8514,34.8222 h 27.4965 v -50.2483 h 6.0005 v 47.3487 l 62.032,-45.4732 1.0972,0.0837 m -63.1292,-101.1698 4.7039,3.9202 18.2473,20.3508 -18.0229,19.5119 -21.5744,17.3051 -19.9696,-17.0272 -17.0843,-19.7933 17.282,-20.6198 19.788,-17.5099 10.6295,8.8609 V 54.3092 h 6.0005 v 54.3091"
       id="path98"
       style="fill:none;stroke:#000000;stroke-width:2;stroke-opacity:1" />
  </g>
  <g
     id="g104"
     style="fill:none;stroke:#000000;stroke-width:2;stroke-opacity:1"
     transform="translate(-221.25008,1)">
    <path
       d="m 700.3531,41.4543 6.3313,32.3902 5.7408,21.5857 V 80.8528 h 6.0006 v 39.4418 l 2.9501,12.6467 -7.2149,30.0797 -7.1736,25.5493 -4.6151,21.2019 -6.526,14.5006 -11.9697,7.6262 -19.5527,7.6951 -11.3891,5.9711 -19.8655,8.4784 -38.9242,10.0725 -12.5149,0.2814 h -55.7944 l -12.9813,-0.2755 -16.3584,-5.2094 -32.3608,-20.0565 -9.1593,-9.2971 -3.2984,3.9696 -9.3562,11.273 47.7017,29.1705 v -7.6124 h 5.9987 v 11.1667 l 13.8177,8.073 h 56.5304 v -9.3758 h 6.0006 v 9.3758 h 21.1192 l 53.5449,-14.2999 19.0271,-6.0793 7.9805,-6.6501 14.2684,-5.729 24.1146,-30.5245 v -38.3062 h 6.0006 v 30.7115 l 0.8718,-1.1061 4.1388,-3.8594 1.5154,-2.6686 2.5211,-9.9663 17.6653,-64.0897 -17.6653,-66.7072 -2.5211,-10.3362 -1.5154,-2.9698 -4.1388,-3.023 -30.987,-36.3972 -14.2684,-3.1843 -7.9805,-10.413 H 442.3214 l 5.4968,15.0675 V 19.91 h 42.2049 V 9.9556 h 5.9987 V 19.91 h 70.3481 V 9.9556 h 6.0006 V 19.91 h 81.448 l 44.7417,18.6375 1.3954,1.2753 0.3975,1.6315"
       id="path102"
       style="fill:none;stroke:#000000;stroke-width:2;stroke-opacity:1" />
  </g>
  <g
     id="g108"
     style="fill:none;stroke:#000000;stroke-width:2;stroke-opacity:1"
     transform="translate(-327.08348,1)">
    <path
       d="m 1118.5998,238.5102 9.163,-16.138 15.4753,-38.5725 5.5557,-50.7718 -5.5557,-52.3149 -15.4753,-44.4755 -9.9336,-19.4639 L 1094.8718,7e-4 H 841.3282 v 19.9091 h 48.8693 V 9.9562 h 5.9989 v 9.9536 h 70.3475 V 9.9562 h 6.0009 v 9.9536 h 118.4003 l 12.3351,4.8789 2.202,7.7436 7.1167,16.4076 v -9.4425 h 6.0009 v 23.2728 l 3.5834,8.2627 4.8689,9.2828 2.4315,17.3877 -0.034,35.2347 -4.7791,44.4795 -12.0098,30.5653 -8.7118,15.4154 -4.6134,10.2529 -18.1743,11.5806 -24.2431,8.9054 -38.0454,15.3775 H 892.8646 l -38.7581,-39.4887 -12.7783,15.4054 27.8723,28.3953 18.1703,15.5971 h 2.8267 v -11.7343 h 5.9989 v 11.7343 h 70.3475 v -9.9556 h 6.0009 v 9.9556 h 50.0611 l 27.6767,-10.6523 44.5892,-17.4895 17.7271,-11.6524 v -28.3814 h 6.0009 v 17.262"
       id="path106"
       style="fill:none;stroke:#000000;stroke-width:2;stroke-opacity:1" />
  </g>
  <g
     id="g112"
     style="fill:none;stroke:#000000;stroke-width:2;stroke-opacity:1"
     transform="translate(-395.87519,1)">
    <path
       d="m 1427.1301,33.9953 23.7187,-3.401 20.3433,8.1604 12.5151,11.4323 0.774,4.3254 13.5648,56.9779 5.334,21.4573 -5.2246,20.1986 -13.7426,55.3282 -0.8932,4.8317 -6.4716,2.5468 -25.5229,11.7998 -31.1364,15.3043 -8.477,-3.3696 -20.0696,9.4953 -25.0479,0.5629 h -24.5358 l -27.1451,-0.5766 -18.203,-9.0419 -8.7193,3.1821 -43.6809,-44.494 3.4146,-9.8002 -10.8889,-20.9726 -4.2903,8.2913 -14.9584,16.4575 1.8139,5.377 27.1725,43.0594 42.1876,27.5947 1.4092,0.6039 v -17.2804 h 6.0006 v 18.6701 h 70.3471 v -11.7958 h 6.0006 v 11.7958 h 37.6901 l 4.8258,-1.9936 47.4825,-16.0451 8.3812,-4.8845 31.801,-19.3777 6.7785,-15.8164 3.096,-11.4441 v -69.6318 h 6.0006 v 47.9438 l 7.2495,-20.6931 5.42,-25.7241 -13.25,-50.0391 -8.5161,-33.1868 -6.7785,-16.479 -31.801,-23.6523 -8.3812,-5.5334 -47.4825,-2.2595 -4.8258,-1.8979 H 1293.613 l -4.6519,1.8979 -42.1876,6.8508 -27.1725,55.1464 -1.8139,5.5529 13.772,17.4505 4.8454,9.2627 11.8056,-23.6816 -3.7215,-12.0207 44.193,-35.5342 1.6887,0.7838 v -8.5552 h 6.0006 v 11.3366 l 0.1798,0.084 14.1961,-8.6646 h 55.9712 V 9.9559 h 6.0006 v 9.9547 h 29.7486 l 24.6629,14.0847"
       id="path110"
       style="fill:none;stroke:#000000;stroke-width:2;stroke-opacity:1" />
  </g>
  <g
     id="g116"
     style="fill:none;stroke:#000000;stroke-width:2;stroke-opacity:1"
     transform="translate(1,-295.33346)">
    <path
       d="m 364.9473,646.6115 -11.1561,-28.6134 -48.565,-14.6087 v 14.0267 h -6.0014 v -15.8317 l -1.5863,-0.477 -1.6299,-0.8467 h -82.5935 v 9.955 h -5.9993 v -9.955 h -97.7841 v 9.955 h -6.0015 v -9.955 H 68.9388 l -0.3545,1.013 -1.2755,-0.1663 -4.9316,4.273 -52.5404,34.7286 v 91.4218 H 3.8376 V 644.0735 L 0,646.6115 v 168.9458 l 62.3772,50.0987 4.9316,4.7566 1.2755,-0.004 0.3545,0.5251 33.9672,3.2796 22.2664,0.6564 27.8061,14.8165 h 58.9903 l 27.8062,-14.8165 22.2663,-0.6564 33.9673,-3.2796 1.6299,-0.5207 56.1527,-29.1933 11.1561,-25.662 V 646.6115 m -27.3051,149.8367 -0.4747,0.9211 0.256,0.8773 -32.1973,37.4504 v 16.6106 h -6.0014 v -9.6333 l -2.5249,2.9405 -9.9287,-0.3019 -1.7109,3.8376 -11.7688,0.2647 -59.8764,16.8031 v 11.7338 h -5.9993 v -10.8958 h -52.897 l -4.4918,-0.1466 -40.3953,-10.2285 v 9.9397 h -6.0015 v -11.4603 l -23.7431,-6.0101 -11.6397,-3.5357 -28.9285,-19.1114 -11.795,-28.2568 -0.2188,-1.7984 -7.0079,-32.788 -7.8196,-30.5388 7.9246,-32.0419 7.4739,-35.5535 0.1007,-0.7811 12.2238,-31.7619 27.1738,-8.71 9.6815,-4.1024 h 210.8355 l 1.5359,6.2968 8.1456,-2.1944 39.3977,40.4719 -0.0985,0.3741 0.1991,0.407 15.3985,67.5954 -14.8275,63.3268"
       id="path114"
       style="fill:none;stroke:#000000;stroke-width:2;stroke-opacity:1" />
  </g>
  <g
     id="g120"
     style="fill:none;stroke:#000000;stroke-width:2;stroke-opacity:1"
     transform="translate(1,-295.33346)">
    <path
       d="m 699.3996,849.9066 -51.0599,19.8695 h -34.7503 v 9.9541 H 607.59 v -9.9541 h -90.6344 l -7.1518,-2.7841 v 9.4909 h -5.9994 v -11.8254 l -38.098,-14.8262 -20.0337,-7.9756 -8.804,-5.6068 -2.2615,-4.9954 -4.1144,-7.3069 -20.481,-34.6751 v 18.8197 h -6.0017 v -46.6624 l -3.334,-18.8106 -1.4513,-9.5342 1.4856,-10.0066 7.8729,-45.8021 20.7183,-41.3681 4.1099,-8.0441 8.8884,-7.6926 h 280.6956 l 8.8884,7.6926 22.6717,45.2567 2.1565,4.1555 1.0748,7.6539 8.2837,48.1548 -8.2084,46.2791 -1.0565,7.332 -2.1223,3.9045 -23.9953,40.6539 -11.0654,10.6022 -14.2237,5.664 v 11.661 h -5.9994 v -9.2741 m 0,-249.6443 h -85.8102 v 9.9541 H 607.59 v -9.9541 h -97.7862 v 9.9541 h -5.9994 v -9.9541 h -93.7926 v 54.3071 h -6.0017 v -54.3071 h -3.035 l -14.9152,8.1193 v 238.9327 l 14.9152,10.4036 67.7846,13.8427 44.4147,18.1237 H 652.121 l 44.4147,-18.1237 67.7846,-13.8427 12.5989,-6.0724 2.3163,-4.3312 V 608.3816 l -2.3163,-4.7853 -12.5989,-3.334 H 705.399 v 9.9541 h -5.9994 v -9.9541"
       id="path118"
       style="fill:none;stroke:#000000;stroke-width:2;stroke-opacity:1" />
  </g>
  <g
     id="g124"
     style="fill:none;stroke:#000000;stroke-width:2;stroke-opacity:1"
     transform="translate(1,-295.33346)">
    <path
       d="m 1007.7641,808.3508 -0.1301,0.0492 h -49.6246 l -40.6557,-14.9035 -7.3749,-13.2524 v 4.0273 h -5.9997 v -14.809 l -4.7859,-8.5985 -13.7115,-27.6594 14.0011,-29.0406 17.9497,-33.8226 40.2518,-22.6489 20.1623,-9.3788 h 9.9502 l 52.6156,28.688 7.7985,3.3397 3.3101,7.1148 28.6407,55.7484 -29.0052,54.2608 -2.8668,6.0312 -34.526,12.6554 v 15.3587 h -5.9996 v -13.1598 m 0,-195.1372 -21.7997,-12.9529 h -6.2854 l -69.7002,41.4104 v 39.4419 h -5.9997 v -38.9297 l -17.3861,-9.1462 -5.6982,16.531 -48.7991,60.7747 -16.4305,22.9898 16.4305,22.0735 48.7991,58.235 5.6982,15.5695 20.1091,-7.6725 72.9769,33.466 2.1595,0.0394 h 1.9664 l 2.1595,-0.0394 45.5342,-10.6791 47.5518,-15.1144 54.4973,-73.8045 12.6573,-15.4414 3.7732,-6.6321 -16.4305,-22.9898 -27.9747,-39.6823 v 61.1234 h -5.9996 v -69.6333 l -20.523,-29.1135 -20.1091,10.5806 -45.1776,-26.8397 v 22.9799 h -5.9996 v -26.5443"
       id="path122"
       style="fill:none;stroke:#000000;stroke-width:2;stroke-opacity:1" />
  </g>
  <text
     xml:space="preserve"
     style="font-style:normal;font-variant:normal;font-weight:normal;font-stretch:normal;font-size:16.9333px;line-height:1.25;font-family:sans-serif;-inkscape-font-specification:'sans-serif, Normal';font-variant-ligatures:normal;font-variant-caps:normal;font-variant-numeric:normal;font-variant-east-asian:normal;fill:#000000;fill-opacity:1;stroke:none;stroke-width:0.264583"
     x="248.95485"
     y="136.56218"
     id="text136"><tspan
       sodipodi:role="line"
       id="tspan134"
       x="248.95485"
       y="136.56218"
       style="font-style:normal;font-variant:normal;font-weight:normal;font-stretch:normal;font-size:16.9333px;font-family:sans-serif;-inkscape-font-specification:'sans-serif, Normal';font-variant-ligatures:normal;font-variant-caps:normal;font-variant-numeric:normal;font-variant-east-asian:normal;stroke-width:0.264583">A</tspan></text>
  <text
     xml:space="preserve"
     style="font-style:normal;font-weight:normal;font-size:16.93333291px;line-height:1.25;font-family:sans-serif;fill:#000000;fill-opacity:1;stroke:none;stroke-width:0.264583;-inkscape-font-specification:'sans-serif, Normal';font-stretch:normal;font-variant:normal;font-variant-ligatures:normal;font-variant-caps:normal;font-variant-numeric:normal;font-variant-east-asian:normal;"
     x="506.68066"
     y="140.25702"
     id="text140"><tspan
       sodipodi:role="line"
       id="tspan138"
       x="506.68066"
       y="140.25702"
       style="stroke-width:0.264583;-inkscape-font-specification:'sans-serif, Normal';font-family:sans-serif;font-weight:normal;font-style:normal;font-stretch:normal;font-variant:normal;font-size:16.93333291px;font-variant-ligatures:normal;font-variant-caps:normal;font-variant-numeric:normal;font-variant-east-asian:normal;">B</tspan></text>
  <text
     xml:space="preserve"
     style="font-style:normal;font-variant:normal;font-weight:normal;font-stretch:normal;font-size:16.9333px;line-height:1.25;font-family:sans-serif;-inkscape-font-specification:'sans-serif, Normal';font-variant-ligatures:normal;font-variant-caps:normal;font-variant-numeric:normal;font-variant-east-asian:normal;fill:#000000;fill-opacity:1;stroke:none;stroke-width:0.264583"
     x="805.73322"
     y="140.45599"
     id="text144"><tspan
       sodipodi:role="line"
       id="tspan142"
       x="805.73322"
       y="140.45599"
       style="font-style:normal;font-variant:normal;font-weight:normal;font-stretch:normal;font-size:16.9333px;font-family:sans-serif;-inkscape-font-specification:'sans-serif, Normal';font-variant-ligatures:normal;font-variant-caps:normal;font-variant-numeric:normal;font-variant-east-asian:normal;stroke-width:0.264583">C</tspan></text>
  <text
     xml:space="preserve"
     style="font-style:normal;font-variant:normal;font-weight:normal;font-stretch:normal;font-size:16.9333px;line-height:1.25;font-family:sans-serif;-inkscape-font-specification:'sans-serif, Normal';font-variant-ligatures:normal;font-variant-caps:normal;font-variant-numeric:normal;font-variant-east-asian:normal;fill:#000000;fill-opacity:1;stroke:none;stroke-width:0.264583"
     x="1103.3994"
     y="93.778625"
     id="text148"><tspan
       sodipodi:role="line"
       id="tspan146"
       x="1103.3994"
       y="93.778625"
       style="font-style:normal;font-variant:normal;font-weight:normal;font-stretch:normal;font-size:16.9333px;font-family:sans-serif;-inkscape-font-specification:'sans-serif, Normal';font-variant-ligatures:normal;font-variant-caps:normal;font-variant-numeric:normal;font-variant-east-asian:normal;stroke-width:0.264583">D</tspan></text>
  <text
     xml:space="preserve"
     style="font-style:normal;font-variant:normal;font-weight:normal;font-stretch:normal;font-size:16.9333px;line-height:1.25;font-family:sans-serif;-inkscape-font-specification:'sans-serif, Normal';font-variant-ligatures:normal;font-variant-caps:normal;font-variant-numeric:normal;font-variant-east-asian:normal;fill:#000000;fill-opacity:1;stroke:none;stroke-width:0.264583"
     x="9.838728"
     y="507.0798"
     id="text152"><tspan
       sodipodi:role="line"
       id="tspan150"
       x="9.838728"
       y="507.0798"
       style="font-style:normal;font-variant:normal;font-weight:normal;font-stretch:normal;font-size:16.9333px;font-family:sans-serif;-inkscape-font-specification:'sans-serif, Normal';font-variant-ligatures:normal;font-variant-caps:normal;font-variant-numeric:normal;font-variant-east-asian:normal;stroke-width:0.264583">1</tspan></text>
  <text
     xml:space="preserve"
     style="font-style:normal;font-variant:normal;font-weight:normal;font-stretch:normal;font-size:16.9333px;line-height:1.25;font-family:sans-serif;-inkscape-font-specification:'sans-serif, Normal';font-variant-ligatures:normal;font-variant-caps:normal;font-variant-numeric:normal;font-variant-east-asian:normal;fill:#000000;fill-opacity:1;stroke:none;stroke-width:0.264583"
     x="408.93353"
     y="545.43701"
     id="text156"><tspan
       sodipodi:role="line"
       id="tspan154"
       x="408.93353"
       y="545.43701"
       style="font-style:normal;font-variant:normal;font-weight:normal;font-stretch:normal;font-size:16.9333px;font-family:sans-serif;-inkscape-font-specification:'sans-serif, Normal';font-variant-ligatures:normal;font-variant-caps:normal;font-variant-numeric:normal;font-variant-east-asian:normal;stroke-width:0.264583">2</tspan></text>
  <text
     xml:space="preserve"
     style="font-style:normal;font-variant:normal;font-weight:normal;font-stretch:normal;font-size:16.9333px;line-height:1.25;font-family:sans-serif;-inkscape-font-specification:'sans-serif, Normal';font-variant-ligatures:normal;font-variant-caps:normal;font-variant-numeric:normal;font-variant-east-asian:normal;fill:#000000;fill-opacity:1;stroke:none;stroke-width:0.264583"
     x="860.3584"
     y="478.27762"
     id="text160"><tspan
       sodipodi:role="line"
       id="tspan158"
       x="860.3584"
       y="478.27762"
       style="font-style:normal;font-variant:normal;font-weight:normal;font-stretch:normal;font-size:16.9333px;font-family:sans-serif;-inkscape-font-specification:'sans-serif, Normal';font-variant-ligatures:normal;font-variant-caps:normal;font-variant-numeric:normal;font-variant-east-asian:normal;stroke-width:0.264583">3</tspan></text>
</svg>
