<?xml version="1.0" encoding="UTF-8" standalone="no"?>
<svg
   height="297mm"
   viewBox="0 0 533 754"
   width="210mm"
   version="1.1"
   id="svg1"
   sodipodi:docname="Canard200_H15_A4x2.svg"
   inkscape:version="1.3 (1:1.3+202307231459+0e150ed6c4)"
   xmlns:inkscape="http://www.inkscape.org/namespaces/inkscape"
   xmlns:sodipodi="http://sodipodi.sourceforge.net/DTD/sodipodi-0.dtd"
   xmlns="http://www.w3.org/2000/svg"
   xmlns:svg="http://www.w3.org/2000/svg">
  <defs
     id="defs1" />
  <sodipodi:namedview
     id="namedview1"
     pagecolor="#ffffff"
     bordercolor="#000000"
     borderopacity="0.25"
     inkscape:showpageshadow="2"
     inkscape:pageopacity="0.0"
     inkscape:pagecheckerboard="0"
     inkscape:deskcolor="#d1d1d1"
     inkscape:document-units="mm"
     showgrid="false"
     inkscape:zoom="0.19197882"
     inkscape:cx="1203.2578"
     inkscape:cy="875.09655"
     inkscape:window-width="1920"
     inkscape:window-height="1007"
     inkscape:window-x="0"
     inkscape:window-y="0"
     inkscape:window-maximized="1"
     inkscape:current-layer="page_001" />
  <style
     type="text/css"
     id="style1"><![CDATA[
			path {
				fill: none;
			}
		]]></style>
  <g
     id="page_001">
    <path
       id="nums_001"
       d="m 319.3,177.2 0.8,-0.5 0.2,-0.7 -0.2,-0.6 -0.4,-0.5 -0.7,-0.1 h -1.2 -1 l -0.7,-0.5 -0.4,-0.5 -0.3,-0.8 0.2,-0.7 0.2,-0.4 0.8,-0.5 1.1,-0.3 1,0.1 0.3,0.2 0.5,0.5 0.2,0.9 -0.1,0.6 -0.5,0.8 -0.7,0.5 -1.1,0.6 -0.5,0.4 -0.2,0.7 0.2,0.6 0.4,0.5 h 1 l 1.3,-0.3 m -49.1,8.5 -0.6,0.3 -0.8,1.1 -0.8,-6.3 m -1,5.2 v 0.3 l -0.2,0.7 -0.2,0.3 -0.6,0.4 -1.2,0.1 -0.6,-0.2 -0.3,-0.2 -0.4,-0.6 -0.1,-0.6 0.2,-0.6 0.5,-1 2.5,-3.4 -4.1,0.6 m 81.9,-44.8 0.3,0.6 0.9,0.9 -6.3,0.2 m 5.2,0.9 0.3,0.6 0.9,0.8 -6.3,0.3 m 67.3,9.5 h -0.3 l -0.7,-0.2 -0.3,-0.2 -0.4,-0.5 -0.3,-1.2 0.2,-0.7 0.3,-0.3 0.5,-0.4 0.6,-0.1 0.6,0.2 1,0.4 3.5,2.4 -0.8,-4.2 m -6.7,-1.7 0.5,0.8 1,0.5 h 1.5 l 0.9,-0.2 1.4,-0.6 0.8,-0.7 0.1,-1 -0.1,-0.5 -0.5,-0.9 -1,-0.4 h -1.5 l -0.9,0.2 -1.4,0.5 -0.8,0.8 -0.1,0.9 0.1,0.5 m -203,94.8 0.2,-0.2 0.7,-0.1 0.4,0.1 0.6,0.4 0.7,0.9 v 0.7 0.4 l -0.4,0.6 -0.5,0.3 -0.6,0.1 h -1.1 l -4.2,-0.8 2.4,3.5 m 7.8,0.4 -1.6,-2.5 -2.5,1.3 0.5,0.1 0.7,0.6 0.5,0.7 0.3,0.9 -0.2,0.8 -0.6,0.8 -0.5,0.3 -0.9,0.3 -0.8,-0.2 -0.8,-0.6 -0.5,-0.7 -0.2,-0.9 v -0.4 l 0.4,-0.6 m 12.1,-63 -0.1,0.3 -0.5,0.5 -0.3,0.2 -0.7,0.1 -1.1,-0.4 -0.5,-0.5 -0.2,-0.4 -0.1,-0.6 0.2,-0.6 0.5,-0.5 0.9,-0.6 3.8,-1.9 -4,-1.4 m -3.7,5.4 -3.1,-1.1 2.5,-1.6 -0.9,-0.3 -0.4,-0.5 -0.2,-0.4 V 177 l 0.2,-0.6 0.6,-0.8 0.7,-0.3 h 1 l 0.8,0.3 0.8,0.6 0.2,0.3 v 0.7 M 345.6,95.8 h 0.3 l 0.6,0.4 0.3,0.3 0.2,0.6 -0.1,1.2 -0.3,0.6 -0.4,0.2 -0.6,0.3 -0.6,-0.1 -0.6,-0.3 -0.8,-0.7 -2.7,-3.3 -0.4,4.2 m 4.9,5.2 0.7,-0.2 0.3,-0.9 0.1,-0.6 -0.2,-0.9 -0.9,-0.7 -1.4,-0.4 -1.5,-0.1 -1.2,0.1 -0.7,0.6 -0.4,0.9 v 0.3 l 0.2,0.9 0.6,0.6 0.8,0.4 h 0.3 l 0.9,-0.2 0.7,-0.5 0.4,-0.9 v -0.3 l -0.2,-0.9 -0.6,-0.7 -0.8,-0.3 m -187.7,101.2 3.1,0.9 -2.4,1.8 0.9,0.3 0.5,0.4 0.2,0.4 v 1 l -0.2,0.5 -0.5,0.8 -0.8,0.4 h -0.9 l -0.9,-0.2 -0.7,-0.6 -0.2,-0.3 -0.2,-0.7 m 8.4,-2.8 h -1 l -0.8,0.7 -0.7,1.3 -0.3,0.9 -0.1,1.5 0.3,1.1 0.8,0.5 0.5,0.2 1,-0.1 0.8,-0.6 0.7,-1.4 0.3,-0.9 0.1,-1.5 -0.3,-1 -0.8,-0.6 -0.4,-0.1 m 193.1,-136.3 0.3,0.1 0.4,0.5 0.2,0.4 v 0.7 l -0.4,1.1 -0.5,0.4 -0.4,0.2 h -0.7 l -0.5,-0.2 -0.5,-0.5 -0.6,-0.9 -1.6,-3.9 -1.6,3.8 m 3.8,7.3 -4.7,-5.2 m 6.3,1.3 -1.6,3.9 m 24.8,4.7 -0.2,0.2 -0.6,0.3 -0.4,0.1 -0.7,-0.2 -0.9,-0.7 -0.3,-0.6 -0.1,-0.4 0.1,-0.6 0.4,-0.5 0.6,-0.3 1,-0.4 4.2,-0.6 -3.4,-2.5 m -5.9,3.5 0.9,0.3 0.6,-0.3 0.4,-0.5 0.1,-0.7 -0.3,-0.6 -0.8,-0.9 -0.5,-0.8 -0.2,-0.9 0.2,-0.6 0.5,-0.7 0.6,-0.3 0.4,-0.1 0.9,0.3 1,0.7 0.5,0.8 0.1,0.4 -0.1,0.7 -0.6,0.7 -0.6,0.3 -0.8,0.1 -0.9,-0.3 -1.2,-0.5 -0.6,-0.1 -0.6,0.3 -0.4,0.5 -0.1,0.7 0.6,0.7 1,0.8 m -267.5,109.5 3.2,0.8 -2.4,1.9 0.9,0.2 0.5,0.4 0.2,0.4 0.1,1 -0.1,0.5 -0.6,0.8 -0.7,0.5 h -0.9 l -0.9,-0.2 -0.8,-0.5 -0.2,-0.4 -0.2,-0.6 m 9.5,-2.9 -3.9,3.3 4.4,1.1 m -0.5,-4.4 -1.5,6.1 M 93,166.5 l -1,3.2 -1.8,-2.5 -0.2,0.9 -0.5,0.5 -0.4,0.2 h -0.9 l -0.6,-0.2 -0.8,-0.6 -0.4,-0.7 v -1 l 0.3,-0.8 0.5,-0.8 0.4,-0.2 0.7,-0.1 m 1.6,6.7 0.3,0.1 0.5,0.4 0.2,0.4 0.1,0.7 -0.3,1.1 -0.5,0.5 -0.4,0.2 -0.6,0.1 -0.6,-0.2 -0.5,-0.4 -0.7,-0.9 -1.9,-3.7 -1.3,4 m 30.1,-15.6 -3.3,-0.3 2,-2.2 -0.9,-0.1 -0.5,-0.3 -0.3,-0.3 -0.2,-1 V 153 l 0.4,-0.8 0.7,-0.6 0.9,-0.2 0.9,0.1 0.8,0.4 0.3,0.3 0.3,0.6 m -6.4,4.6 -3.3,-0.3 2,-2.3 h -0.9 l -0.6,-0.4 -0.2,-0.3 -0.2,-0.9 v -0.6 l 0.4,-0.9 0.6,-0.6 1,-0.2 0.9,0.1 0.8,0.4 0.3,0.3 0.2,0.6 m 178.9,114.4 -0.9,-3.2 2.8,1.1 -0.2,-0.9 0.1,-0.6 0.2,-0.4 0.8,-0.5 0.6,-0.2 0.9,0.1 0.7,0.4 0.6,0.8 0.2,0.9 v 0.9 l -0.3,0.4 -0.5,0.4 m -6.7,-5.2 0.6,0.7 0.6,0.2 0.6,-0.2 0.5,-0.4 0.1,-0.7 v -1.2 -1 l 0.5,-0.7 0.5,-0.5 0.8,-0.2 0.7,0.1 0.4,0.3 0.5,0.7 0.3,1.2 v 0.9 l -0.3,0.4 -0.5,0.5 -0.8,0.2 -0.7,-0.1 -0.7,-0.5 -0.5,-0.7 -0.7,-1.1 -0.4,-0.5 -0.7,-0.2 -0.5,0.2 -0.5,0.5 -0.1,0.9 0.4,1.3 m -81.3,74 -2.4,1.8 1.3,2.4 0.1,-0.5 0.5,-0.7 0.8,-0.5 0.9,-0.3 0.8,0.1 0.8,0.6 0.3,0.5 0.3,0.9 -0.2,0.8 -0.5,0.8 -0.8,0.5 -0.9,0.3 -0.4,-0.1 -0.6,-0.3 m 5.9,-7.8 0.2,0.9 -0.1,0.9 -0.6,0.7 -0.2,0.2 -0.9,0.3 -0.9,-0.2 -0.7,-0.5 -0.2,-0.3 -0.3,-0.9 0.2,-0.8 0.5,-0.8 0.3,-0.2 0.9,-0.2 0.8,0.1 1,0.8 0.8,1.3 0.6,1.4 0.1,1 -0.6,0.8 -0.5,0.3 -0.9,0.3 -0.6,-0.3 m -20.9,-48.3 0.1,0.3 -0.2,0.7 -0.2,0.3 -0.5,0.5 -1.2,0.2 -0.6,-0.1 -0.4,-0.2 -0.4,-0.5 -0.2,-0.6 0.2,-0.7 0.4,-1 2.2,-3.6 -4.1,1 m -3.1,7.2 2.9,-0.7 -0.3,-2.7 -0.3,0.4 -0.8,0.5 -0.8,0.2 -1,-0.1 -0.7,-0.4 -0.5,-0.8 -0.2,-0.6 0.1,-1 0.5,-0.7 0.8,-0.5 0.8,-0.2 1,0.1 0.3,0.2 0.5,0.5 m -32.8,25.1 -1.1,3.1 -1.7,-2.4 -0.3,0.8 -0.5,0.5 -0.3,0.2 h -1 l -0.6,-0.2 -0.7,-0.6 -0.4,-0.8 v -0.9 l 0.3,-0.9 0.6,-0.7 0.4,-0.2 0.6,-0.1 m 2.6,8.4 v -0.9 l -0.7,-0.9 -1.3,-0.8 -0.9,-0.2 -1.5,-0.2 -1,0.2 -0.6,0.8 -0.2,0.6 v 0.9 l 0.7,0.9 1.3,0.7 0.8,0.3 1.6,0.2 1,-0.3 0.6,-0.7 0.1,-0.4 m -6.4,42.1 v 3.3 l -2.4,-1.9 v 0.9 l -0.3,0.6 -0.3,0.3 -0.9,0.3 h -0.6 l -0.9,-0.3 -0.6,-0.6 -0.3,-0.9 v -0.9 l 0.3,-0.9 0.3,-0.3 0.6,-0.3 m 5.1,8.6 -4.2,-3.1 v 4.5 m 4.2,-1.4 -6.3,-0.1 m 47.5,26.8 -0.6,0.3 -0.3,0.9 0.1,0.6 0.3,0.9 0.9,0.6 1.5,0.2 h 1.5 l 1.2,-0.3 0.6,-0.7 0.3,-0.9 -0.1,-0.3 -0.3,-0.9 -0.6,-0.5 -0.9,-0.3 h -0.3 l -0.9,0.3 -0.6,0.6 -0.3,1 0.1,0.3 0.3,0.8 0.6,0.6 0.9,0.3 m -4.5,-9 6.4,2.8 m -6.2,1.4 -0.2,-4.2 m -0.3,69.2 -0.6,0.2 -0.4,0.9 -0.1,0.6 0.3,0.9 0.8,0.7 1.5,0.4 1.5,0.2 1.2,-0.2 0.6,-0.6 0.4,-0.8 v -0.3 l -0.2,-1 -0.5,-0.6 -0.9,-0.4 h -0.3 l -0.9,0.2 -0.7,0.5 -0.3,0.9 -0.1,0.3 0.2,0.9 0.6,0.7 0.9,0.4 m -2.5,-9 -0.6,0.3 -0.4,0.8 -0.1,0.6 0.2,1 0.9,0.6 1.4,0.5 1.5,0.1 1.3,-0.2 0.6,-0.5 0.4,-0.9 v -0.3 l -0.2,-0.9 -0.5,-0.6 -0.9,-0.4 -0.3,-0.1 -0.9,0.3 -0.7,0.5 -0.4,0.9 v 0.3 l 0.2,0.9 0.6,0.6 0.8,0.4 m 115,-101.5 -1.8,4.8 4.3,-1.2 m -2.5,-3.6 1.6,6.1 m 4.4,-7.7 -2.9,0.8 0.4,2.7 0.2,-0.4 0.8,-0.5 0.9,-0.3 1,0.1 0.7,0.4 0.5,0.8 0.2,0.6 -0.1,0.9 -0.4,0.8 -0.8,0.5 -0.9,0.2 h -0.9 l -0.4,-0.2 -0.4,-0.5 m 50.9,-59.6 3.9,3.4 0.5,-4.5 m -4.4,1.1 6.3,0.6 m -4.5,-3 -0.3,-0.6 -0.8,-1 6.3,0.6 m -24.3,-8 2.3,-4.6 -4.4,0.7 m 2.1,3.9 -0.9,-6.2 m -3.5,6.8 0.9,-0.4 0.4,-1 0.1,-1.5 -0.2,-0.9 -0.5,-1.4 -0.7,-0.8 -0.9,-0.2 -0.6,0.1 -0.9,0.4 -0.4,1 -0.1,1.5 0.1,0.9 0.6,1.5 0.7,0.8 0.9,0.1 0.5,-0.1 m 14,73.4 -5.1,0.3 2.8,3.5 m 2.3,-3.8 -4.8,4 m 8.5,0.4 -5.1,0.4 2.8,3.5 m 2.3,-3.9 -4.9,4 m 40,-42.6 2.9,-4.3 -4.5,0.2 m 1.6,4.1 -0.2,-6.3 m -3,6.3 -3.3,0.1 1.7,-2.4 h -0.9 l -0.6,-0.3 -0.3,-0.3 -0.3,-0.8 -0.1,-0.6 0.3,-1 0.6,-0.6 0.9,-0.3 h 0.9 l 0.9,0.2 0.3,0.3 0.3,0.6 m 0.8,58.1 -0.2,-0.7 -0.8,-0.4 -0.6,-0.1 -1,0.1 -0.7,0.8 -0.5,1.5 -0.3,1.4 0.1,1.3 0.5,0.7 0.9,0.4 0.3,0.1 0.9,-0.2 0.7,-0.5 0.4,-0.8 0.1,-0.3 -0.2,-1 -0.5,-0.7 -0.8,-0.4 h -0.3 l -0.9,0.1 -0.7,0.5 -0.5,0.8 m 6,-1.7 v -0.3 l 0.4,-0.6 0.3,-0.2 0.7,-0.2 1.2,0.2 0.5,0.4 0.3,0.3 0.2,0.6 -0.1,0.6 -0.4,0.6 -0.8,0.8 -3.4,2.5 4.1,0.6 m -159.8,-37.4 -0.7,-0.6 -0.4,-0.8 0.1,-1 0.1,-0.2 0.7,-0.8 0.7,-0.3 1,0.1 0.3,0.1 0.7,0.6 0.3,0.8 -0.1,0.9 -0.1,0.3 -0.6,0.7 -0.8,0.4 -1.2,-0.2 -1.4,-0.6 -1.3,-0.8 -0.6,-0.9 0.1,-1 0.2,-0.5 0.6,-0.8 h 0.7 m 3,7 -1.3,3 -1.5,-2.5 -0.4,0.8 -0.5,0.4 -0.4,0.2 -0.9,-0.1 -0.6,-0.2 -0.7,-0.6 -0.3,-0.8 0.1,-1 0.3,-0.8 0.6,-0.7 0.4,-0.2 h 0.7 m 39.8,33.1 -1,2.9 2.5,1.1 -0.2,-0.4 v -0.9 l 0.3,-0.9 0.6,-0.7 0.7,-0.4 h 1 l 0.5,0.2 0.8,0.5 0.4,0.8 v 0.9 l -0.3,0.9 -0.6,0.7 -0.3,0.2 -0.7,0.1 m -2.2,-9.6 3,4.1 1.4,-4.3 m -4.4,0.2 5.9,1.9 m 166.1,-40.2 1,0.1 0.7,0.4 0.5,0.8 0.1,0.3 -0.1,1 -0.4,0.7 -0.8,0.5 -0.3,0.1 -0.9,-0.1 -0.8,-0.4 -0.5,-0.8 -0.1,-0.3 0.1,-0.9 0.4,-0.8 1.1,-0.6 1.5,-0.3 1.5,-0.1 1,0.3 0.5,0.8 0.2,0.6 -0.1,1 -0.5,0.4 m -6.8,-5 0.5,0.8 1,0.4 1.5,-0.1 0.9,-0.2 1.4,-0.7 0.7,-0.8 0.1,-1 -0.2,-0.5 -0.5,-0.8 -1,-0.4 -1.6,0.1 -0.8,0.2 -1.4,0.7 -0.7,0.8 -0.1,0.9 0.1,0.5 m -9.9,-10.7 0.9,-0.3 0.3,-0.6 v -0.6 l -0.4,-0.6 -0.6,-0.3 -1.2,-0.2 -0.9,-0.3 -0.6,-0.6 -0.3,-0.6 v -0.9 l 0.2,-0.6 0.3,-0.3 0.9,-0.3 1.2,-0.1 0.9,0.3 0.3,0.3 0.4,0.6 v 0.9 l -0.3,0.6 -0.6,0.6 -0.9,0.3 -1.2,0.4 -0.6,0.3 -0.2,0.6 v 0.6 l 0.3,0.6 0.9,0.3 1.3,-0.1 m -7.6,-0.7 0.3,0.6 0.9,0.3 h 0.6 l 0.9,-0.3 0.6,-1 0.3,-1.5 -0.1,-1.5 -0.3,-1.2 -0.6,-0.5 -0.9,-0.3 h -0.3 l -0.9,0.3 -0.6,0.6 -0.3,0.9 v 0.3 l 0.4,0.9 0.6,0.6 0.9,0.3 h 0.3 l 0.9,-0.3 0.6,-0.7 0.2,-0.9 m 20.7,61.9 -0.6,0.4 -0.3,0.9 v 0.6 l 0.3,0.9 1,0.5 1.5,0.3 h 1.5 l 1.2,-0.4 0.5,-0.6 0.3,-0.9 v -0.3 l -0.3,-0.9 -0.6,-0.6 -0.9,-0.3 -0.3,0.1 -0.9,0.3 -0.6,0.6 -0.3,0.9 v 0.3 l 0.3,0.9 0.7,0.6 0.9,0.3 m -3.6,-8.6 -0.5,0.3 -0.3,0.9 v 0.6 l 0.3,0.9 0.9,0.6 1.5,0.2 h 1.5 l 1.2,-0.3 0.6,-0.6 0.3,-0.9 v -0.3 l -0.3,-0.9 -0.7,-0.6 -0.9,-0.3 h -0.3 l -0.9,0.3 -0.5,0.6 -0.3,1 v 0.3 l 0.3,0.8 0.6,0.6 0.9,0.3 m -30.7,26.1 0.6,-0.1 0.7,-0.7 0.2,-0.5 0.1,-1 -0.6,-0.9 -1.2,-0.9 -1.4,-0.6 -1.2,-0.2 -0.8,0.3 -0.6,0.7 -0.1,0.3 -0.1,0.9 0.3,0.8 0.7,0.7 0.2,0.1 1,0.1 0.8,-0.3 0.6,-0.7 0.1,-0.3 0.1,-0.9 -0.3,-0.8 -0.7,-0.7 m 0.6,5.7 v 0.7 l 0.4,1.2 -5.7,-2.6 m -188,-18.4 -1,-0.1 -0.7,-0.5 -0.4,-0.9 v -0.3 l 0.1,-0.9 0.5,-0.7 0.9,-0.4 0.3,-0.1 0.9,0.2 0.7,0.5 0.4,0.9 0.1,0.3 -0.2,0.9 -0.5,0.7 -1.1,0.4 -1.5,0.3 -1.6,-0.1 -0.9,-0.5 -0.5,-0.8 v -0.6 l 0.1,-1 0.6,-0.4 m 6.6,8 -6.7,-2.1 m 6.1,-2.1 0.6,4.2 m 225.1,54 -0.6,0.3 -0.1,1 0.1,0.6 0.4,0.8 0.9,0.5 1.6,0.1 1.5,-0.2 1.1,-0.5 0.5,-0.7 0.2,-0.9 v -0.3 l -0.5,-0.8 -0.6,-0.6 -1,-0.1 h -0.3 l -0.8,0.4 -0.5,0.7 -0.2,0.9 v 0.3 l 0.5,0.9 0.6,0.5 1,0.2 m -5.5,-8.5 6.7,2.1 m -6.1,2.1 -0.6,-4.2 m -30,-10.9 -1,0.2 -0.8,-0.2 -0.7,-0.6 -0.2,-0.2 -0.2,-0.9 0.1,-0.9 0.6,-0.7 0.3,-0.2 0.9,-0.2 0.8,0.2 0.8,0.6 0.1,0.2 0.3,0.9 -0.2,0.9 -0.8,0.9 -1.3,0.8 -1.4,0.6 -1.1,-0.1 -0.7,-0.5 -0.4,-0.5 -0.2,-1 0.3,-0.5 m 9.4,4.4 -7,0.9 m 4.7,-4.4 2.3,3.5 m 10,52.6 -2.7,1.2 0.8,2.6 0.2,-0.4 0.7,-0.6 0.8,-0.4 0.9,-0.1 0.8,0.3 0.7,0.7 0.2,0.6 0.1,0.9 -0.3,0.8 -0.7,0.6 -0.8,0.4 -0.9,0.1 -0.4,-0.1 -0.5,-0.5 m 7.1,-6.5 0.1,0.9 -0.3,0.8 -0.7,0.7 -0.2,0.1 -1,0.1 -0.8,-0.3 -0.6,-0.7 -0.1,-0.3 -0.1,-0.9 0.3,-0.8 0.7,-0.7 0.2,-0.1 1,-0.1 0.8,0.3 0.7,1 0.7,1.3 0.3,1.5 -0.2,1.1 -0.7,0.6 -0.5,0.3 -1,0.1 -0.5,-0.4 m -11.9,-12.5 -0.8,-0.4 -0.4,-0.8 -0.1,-0.9 v -0.3 l 0.5,-0.8 0.7,-0.5 0.9,-0.1 0.3,0.1 0.9,0.5 0.4,0.7 0.1,0.9 v 0.3 l -0.5,0.8 -0.7,0.5 h -1.3 l -1.4,-0.3 -1.4,-0.6 -0.8,-0.8 -0.1,-0.9 0.1,-0.6 0.5,-0.8 0.7,-0.2 m 4.1,6.4 -0.6,3.2 -2,-2.3 -0.2,0.9 -0.4,0.5 -0.4,0.3 -0.9,0.1 -0.6,-0.1 -0.8,-0.5 -0.5,-0.7 -0.1,-1 0.2,-0.9 0.5,-0.8 0.3,-0.2 0.7,-0.2 m -262.5,7.1 -1,-0.1 -0.7,-0.5 -0.4,-0.9 -0.1,-0.3 0.2,-0.9 0.5,-0.7 0.8,-0.4 0.3,-0.1 0.9,0.2 0.7,0.4 0.5,0.9 v 0.3 l -0.1,0.9 -0.5,0.7 -1.1,0.5 -1.5,0.3 -1.6,-0.1 -0.9,-0.4 -0.5,-0.9 -0.1,-0.5 0.1,-1 0.6,-0.4 m 4.7,4.5 h 0.3 l 0.7,0.2 0.3,0.2 0.4,0.6 0.2,1.2 -0.2,0.6 -0.2,0.3 -0.6,0.4 -0.6,0.1 -0.6,-0.1 -1,-0.5 -3.5,-2.4 0.8,4.1 m 43.4,6.7 0.8,-0.6 h 0.9 l 0.9,0.3 0.2,0.2 0.5,0.8 0.1,0.8 -0.3,0.9 -0.2,0.2 -0.8,0.5 -0.9,0.1 -0.9,-0.3 -0.2,-0.2 -0.5,-0.8 -0.1,-0.8 0.5,-1.1 1,-1.2 1.2,-1 1,-0.3 0.9,0.3 0.4,0.4 0.5,0.8 -0.1,0.7 m -8.5,0 0.9,0.4 1,-0.4 1.2,-0.9 0.6,-0.7 0.7,-1.4 0.1,-1.1 -0.5,-0.8 -0.5,-0.3 -0.9,-0.4 -1,0.3 -1.2,1 -0.5,0.7 -0.8,1.4 -0.1,1 0.5,0.8 0.4,0.3 m 74.1,-87.3 1.6,2.6 2.4,-1.2 -0.4,-0.1 -0.7,-0.6 -0.5,-0.8 -0.2,-0.9 0.2,-0.8 0.6,-0.7 0.5,-0.3 1,-0.3 0.8,0.2 0.7,0.6 0.5,0.8 0.2,0.9 -0.1,0.4 -0.4,0.6 m -7.4,-2.4 -1.7,-2.8 2.9,0.3 -0.4,-0.8 -0.1,-0.6 0.1,-0.5 0.6,-0.7 0.5,-0.3 1,-0.2 0.8,0.2 0.7,0.6 0.5,0.8 0.2,0.9 -0.1,0.4 -0.4,0.6 m -6.7,29.5 -1,2.9 2.5,1.1 -0.2,-0.3 v -1 l 0.3,-0.8 0.6,-0.8 0.7,-0.4 h 1 l 0.6,0.2 0.7,0.6 0.4,0.8 v 0.9 l -0.3,0.9 -0.6,0.7 -0.4,0.2 -0.6,0.1 m -2.6,-8.4 v 0.9 l 0.7,0.9 1.3,0.8 0.9,0.2 1.5,0.2 1,-0.2 0.6,-0.8 0.2,-0.6 v -0.9 l -0.7,-0.9 -1.3,-0.7 -0.8,-0.3 -1.6,-0.2 -1,0.3 -0.6,0.7 -0.1,0.4 m -8,34.3 -4.2,3 4.3,1.4 m -0.1,-4.4 -2,6 m 7.5,-4.3 -4.2,3.1 4.3,1.4 m -0.1,-4.5 -2,6 m 29.7,-21.3 2.5,-1.6 -1.1,-2.5 -0.1,0.4 -0.6,0.8 -0.8,0.4 -0.9,0.3 -0.9,-0.2 -0.7,-0.6 -0.3,-0.6 -0.2,-0.9 0.2,-0.8 0.6,-0.7 0.8,-0.5 0.9,-0.2 0.4,0.1 0.6,0.3 m -3.4,8.1 0.6,-0.7 v -1.1 l -0.5,-1.4 -0.5,-0.8 -1.1,-1.1 -0.9,-0.5 -1,0.3 -0.5,0.3 -0.6,0.7 v 1.1 l 0.5,1.4 0.5,0.8 1,1.1 1,0.5 0.9,-0.3 0.4,-0.2 m 0.3,3.7 0.5,5.2 3.4,-3 m -3.9,-2.2 4.1,4.8 m 0.7,-8.8 -2.3,2 1.5,2.2 0.1,-0.4 0.4,-0.8 0.7,-0.6 0.9,-0.4 0.8,0.1 0.9,0.5 0.4,0.4 0.3,0.9 v 0.8 l -0.5,0.9 -0.7,0.5 -0.9,0.4 h -0.4 l -0.6,-0.3 m -82.5,-36.9 0.7,0.3 0.8,-0.4 0.5,-0.4 0.5,-0.8 -0.2,-1.1 -0.8,-1.3 -0.9,-1.1 -1.1,-0.7 -0.8,-0.1 -0.9,0.4 -0.2,0.2 -0.5,0.8 v 0.9 l 0.3,0.8 0.2,0.3 0.8,0.4 0.9,0.1 0.9,-0.4 0.2,-0.2 0.5,-0.8 v -0.9 l -0.3,-0.8 m -1.9,5.3 -0.3,0.7 -0.1,1.2 -4.1,-4.7 m 15.3,21.3 0.2,-0.6 -0.5,-0.8 -0.5,-0.4 -0.8,-0.4 -1.1,0.3 -1.2,0.9 -1,1.2 -0.5,1.1 v 0.8 l 0.5,0.8 0.2,0.2 0.9,0.4 0.9,-0.1 0.8,-0.5 0.2,-0.2 0.3,-0.9 v -0.8 l -0.5,-0.8 -0.2,-0.2 -0.9,-0.4 -0.9,0.1 -0.8,0.5 m 6,1.6 0.2,-0.3 0.6,-0.2 h 0.4 l 0.7,0.1 0.9,0.8 0.3,0.6 v 0.4 l -0.2,0.7 -0.4,0.4 -0.6,0.3 -1,0.3 -4.3,0.3 3.2,2.7 m -80.8,103.5 0.6,0.1 0.8,-0.7 0.3,-0.5 0.2,-0.9 -0.5,-1 -1.1,-1 -1.3,-0.8 -1.2,-0.3 -0.8,0.2 -0.7,0.6 -0.2,0.3 -0.2,0.9 0.2,0.8 0.6,0.7 0.3,0.2 0.9,0.2 0.8,-0.2 0.8,-0.6 0.1,-0.3 0.2,-0.9 -0.2,-0.8 -0.6,-0.8 m 0.1,8.1 0.2,-1 -0.5,-0.9 -1.1,-1.1 -0.8,-0.4 -1.4,-0.5 h -1.1 l -0.7,0.6 -0.3,0.5 -0.2,1 0.4,0.9 1.2,1.1 0.7,0.4 1.5,0.5 h 1 l 0.8,-0.6 0.2,-0.4 m 17,33.5 h -0.6 l -0.7,0.7 -0.3,0.5 -0.1,1 0.5,0.9 1.2,1 1.3,0.6 1.2,0.3 0.9,-0.2 0.6,-0.7 0.2,-0.3 0.1,-0.9 -0.3,-0.8 -0.6,-0.7 -0.3,-0.1 -0.9,-0.2 -0.8,0.3 -0.7,0.7 -0.1,0.2 -0.2,1 0.3,0.8 0.6,0.6 m -1.1,-6.9 1.5,-2.9 1.3,2.7 0.4,-0.8 0.5,-0.4 0.4,-0.2 1,0.2 0.5,0.3 0.7,0.6 0.2,0.8 -0.1,1 -0.4,0.8 -0.7,0.6 -0.4,0.2 h -0.7 m -51.9,30.1 0.7,-0.1 0.5,-0.8 0.2,-0.5 -0.1,-1 -0.7,-0.8 -1.3,-0.7 -1.5,-0.4 -1.2,-0.1 -0.7,0.4 -0.6,0.8 -0.1,0.3 0.1,0.9 0.4,0.8 0.8,0.5 0.2,0.1 h 1 l 0.7,-0.4 0.6,-0.8 0.1,-0.3 -0.1,-1 -0.4,-0.7 -0.8,-0.5 m 2.2,7.4 v -0.9 l -0.5,-0.5 -0.6,-0.2 -0.6,0.2 -0.5,0.5 -0.6,1 -0.6,0.8 -0.7,0.4 -0.7,0.1 -0.8,-0.2 -0.5,-0.5 -0.2,-0.3 v -1 l 0.3,-1.1 0.5,-0.8 0.4,-0.2 0.7,-0.2 0.8,0.3 0.5,0.5 0.4,0.7 0.1,0.9 -0.1,1.3 0.1,0.6 0.5,0.5 0.6,0.2 0.7,-0.1 0.5,-0.8 0.4,-1.3 m 31.5,18.5 -0.1,3 2.7,0.4 -0.3,-0.3 -0.3,-0.9 0.1,-0.9 0.3,-0.9 0.6,-0.6 0.9,-0.3 h 0.6 l 0.9,0.4 0.6,0.6 0.2,0.9 v 0.9 l -0.3,0.9 -0.3,0.3 -0.6,0.3 m -4.9,-7.1 0.3,0.9 0.6,0.4 h 0.6 l 0.6,-0.3 0.3,-0.6 0.4,-1.2 0.3,-0.9 0.6,-0.5 0.6,-0.3 h 0.9 l 0.6,0.3 0.3,0.4 0.3,0.9 -0.1,1.2 -0.3,0.9 -0.3,0.2 -0.6,0.3 h -0.9 l -0.6,-0.3 -0.6,-0.7 -0.3,-0.9 -0.2,-1.2 -0.3,-0.6 -0.6,-0.3 h -0.6 l -0.6,0.2 -0.3,0.9 -0.1,1.4 m 56.2,-71.7 0.1,-0.2 0.6,-0.4 0.4,-0.1 h 0.7 l 1,0.6 0.4,0.5 0.1,0.4 v 0.7 l -0.3,0.5 -0.6,0.4 -0.9,0.5 -4.1,1.2 3.7,2 m 3.8,-3.4 0.1,-0.2 0.6,-0.4 0.4,-0.1 h 0.6 l 1.1,0.6 0.4,0.5 0.1,0.5 -0.1,0.6 -0.2,0.5 -0.6,0.4 -1,0.5 -4,1.2 3.6,2 m 32.1,-54.4 -0.2,0.3 -0.5,0.4 -0.4,0.1 h -0.7 l -1,-0.6 -0.4,-0.6 -0.1,-0.4 V 527 l 0.3,-0.6 0.5,-0.3 1,-0.6 4,-1.1 -3.6,-2.1 m -3.3,3.8 h -0.7 l -1.2,0.4 3,-5.6 m 69.9,97.3 -4.1,3.2 4.4,1.2 m -0.3,-4.4 -1.7,6 m 61.9,-48.9 -3.2,-0.4 2,-2.2 -0.9,-0.1 -0.6,-0.3 -0.2,-0.4 -0.2,-0.9 v -0.6 l 0.4,-0.9 0.7,-0.5 0.9,-0.2 0.9,0.1 0.9,0.4 0.2,0.3 0.3,0.7 m 71.5,58.6 -0.8,0.6 -0.4,1 0.1,1.5 0.3,0.9 0.7,1.4 0.8,0.7 h 0.9 l 0.6,-0.1 0.8,-0.6 0.3,-1 -0.1,-1.5 -0.2,-0.9 -0.7,-1.4 -0.8,-0.7 h -1 l -0.4,0.1 m 41.4,-40.9 -0.3,-0.6 -0.9,-0.8 6.3,-0.1 m -239.4,32.4 -0.8,0.5 -0.1,0.7 0.2,0.5 0.4,0.5 0.7,0.2 1.2,-0.1 0.9,0.1 0.8,0.4 0.4,0.5 0.3,0.9 -0.2,0.7 -0.2,0.3 -0.8,0.6 -1.1,0.3 -1,-0.1 -0.4,-0.2 -0.4,-0.5 -0.2,-0.9 0.1,-0.6 0.4,-0.8 0.8,-0.5 1.1,-0.6 0.5,-0.4 0.1,-0.7 -0.1,-0.6 -0.5,-0.5 h -0.9 l -1.3,0.3 m 7.8,-2.1 -1.3,6.9 m -2.8,-5.8 4.1,-1.1 m -71.5,35.4 -1.2,-2.8 -2.6,0.9 0.4,0.1 0.7,0.7 0.3,0.9 0.1,0.9 -0.3,0.8 -0.7,0.6 -0.5,0.3 -1,0.1 -0.8,-0.3 -0.6,-0.7 -0.4,-0.9 -0.1,-0.9 0.2,-0.4 0.4,-0.5 m 7.5,4.2 -0.7,-0.7 -0.6,-0.1 -0.6,0.3 -0.4,0.5 v 0.7 l 0.2,1.2 0.1,0.9 -0.3,0.8 -0.5,0.5 -0.8,0.4 h -0.6 l -0.4,-0.2 -0.7,-0.7 -0.5,-1.1 -0.1,-0.9 0.2,-0.4 0.4,-0.5 0.8,-0.4 h 0.7 l 0.8,0.3 0.6,0.7 0.8,1 0.5,0.4 0.7,0.1 0.5,-0.3 0.5,-0.5 -0.1,-1 -0.6,-1.2 m -3,-47.6 0.6,-0.2 0.5,-0.8 0.1,-0.6 -0.1,-0.9 -0.7,-0.8 -1.4,-0.6 -1.5,-0.3 h -1.2 l -0.7,0.5 -0.5,0.8 -0.1,0.3 0.1,0.9 0.5,0.8 0.8,0.4 0.3,0.1 0.9,-0.1 0.8,-0.5 0.4,-0.8 0.1,-0.3 -0.1,-0.9 -0.5,-0.7 -0.8,-0.5 m 3,6.4 -0.7,3.2 -2,-2.3 -0.2,0.9 -0.4,0.5 -0.4,0.3 -0.9,0.1 -0.6,-0.1 -0.8,-0.5 -0.5,-0.7 -0.1,-1 0.2,-0.9 0.5,-0.8 0.3,-0.2 0.7,-0.2 m 27,-14.5 -0.1,0.2 -0.5,0.5 -0.4,0.2 h -0.7 l -1.1,-0.4 -0.5,-0.5 -0.1,-0.4 -0.1,-0.7 0.2,-0.5 0.5,-0.5 0.9,-0.6 3.9,-1.7 -4,-1.5 m -3.2,3.9 -0.1,0.2 -0.5,0.5 -0.4,0.2 h -0.7 l -1.1,-0.4 -0.5,-0.5 -0.1,-0.4 -0.1,-0.6 0.2,-0.6 0.5,-0.4 0.9,-0.7 3.9,-1.7 -4,-1.5 m -73.8,-176.6 -3.2,1 1,-2.9 -0.8,0.3 -0.7,-0.1 -0.4,-0.2 -0.5,-0.8 -0.2,-0.5 v -1 l 0.4,-0.7 0.8,-0.6 0.8,-0.3 1,0.1 0.4,0.2 0.4,0.4 m -4.5,5.2 0.1,0.3 -0.1,0.7 -0.2,0.4 -0.5,0.4 -1.1,0.4 -0.7,-0.1 -0.4,-0.2 -0.4,-0.5 -0.2,-0.6 0.1,-0.6 0.3,-1.1 2,-3.7 -4,1.2 m 11.1,51.4 3.3,0.1 -1.9,2.4 h 0.9 l 0.6,0.3 0.3,0.3 0.3,0.9 v 0.6 l -0.3,0.9 -0.7,0.6 -0.9,0.3 h -0.9 l -0.9,-0.4 -0.2,-0.3 -0.3,-0.6 m 5.3,-3.5 0.6,-0.3 1,-0.9 -0.2,6.3 m -6.6,213.6 -1.9,-2.3 -2.3,1.4 0.4,0.1 0.8,0.5 0.6,0.7 0.3,0.9 -0.1,0.8 -0.5,0.8 -0.5,0.4 -0.8,0.3 -0.9,-0.1 -0.8,-0.5 -0.5,-0.7 -0.4,-0.9 0.1,-0.4 0.3,-0.6 m 9.5,3.8 -1.9,-2.4 -2.3,1.5 h 0.5 l 0.8,0.5 0.5,0.7 0.4,0.9 -0.1,0.9 -0.6,0.8 -0.4,0.3 -0.9,0.4 -0.9,-0.1 -0.7,-0.5 -0.6,-0.7 -0.3,-0.9 v -0.5 l 0.3,-0.6 m 17.2,5.4 -1.2,2.8 2.4,1.3 -0.1,-0.4 v -1 l 0.4,-0.8 0.6,-0.7 0.8,-0.4 0.9,0.1 0.6,0.2 0.7,0.6 0.3,0.8 v 1 l -0.4,0.8 -0.6,0.7 -0.4,0.2 h -0.6 m -0.6,-9.8 h -0.7 l -0.6,0.7 -0.2,0.6 -0.1,0.9 0.6,0.9 1.3,0.9 1.4,0.5 1.2,0.2 0.8,-0.3 0.6,-0.8 0.1,-0.2 0.1,-1 -0.3,-0.8 -0.8,-0.6 -0.2,-0.1 h -1 l -0.8,0.3 -0.6,0.7 -0.1,0.3 v 0.9 l 0.3,0.8 0.7,0.6 m 140.6,-167.8 0.6,0.3 0.9,-0.3 0.5,-0.4 0.5,-0.8 -0.1,-1.1 -0.7,-1.3 -1,-1.2 -0.9,-0.7 -0.9,-0.1 -0.9,0.3 -0.2,0.2 -0.5,0.8 -0.1,0.8 0.3,0.9 0.2,0.3 0.8,0.5 0.8,0.1 0.9,-0.4 0.3,-0.2 0.5,-0.8 0.1,-0.8 -0.4,-0.9 m 19.5,15.8 0.9,2.9 2.7,-0.6 -0.4,-0.2 -0.6,-0.7 -0.2,-0.9 v -0.9 l 0.4,-0.8 0.7,-0.5 0.6,-0.2 h 0.9 l 0.8,0.4 0.6,0.7 0.2,0.9 v 0.9 l -0.2,0.4 -0.5,0.5 m 79.8,-338.4 3.3,-0.3 -1.6,2.5 h 0.9 l 0.6,0.2 0.4,0.3 0.3,0.8 0.1,0.6 -0.2,1 -0.6,0.6 -0.8,0.4 -0.9,0.1 -0.9,-0.2 -0.4,-0.3 -0.3,-0.6 m 8.9,-3.8 -0.2,0.9 -0.6,0.7 -0.8,0.3 -0.3,0.1 -0.9,-0.2 -0.7,-0.6 -0.4,-0.9 v -0.3 l 0.2,-0.9 0.5,-0.6 0.9,-0.4 h 0.3 l 0.9,0.2 0.7,0.5 0.4,1.2 0.1,1.5 -0.1,1.5 -0.5,0.9 -0.9,0.4 -0.6,0.1 -0.9,-0.2 -0.4,-0.6 m 47.3,-24 0.9,-0.3 0.3,-0.6 v -0.6 l -0.3,-0.6 -0.6,-0.3 -1.2,-0.3 -0.9,-0.4 -0.5,-0.6 -0.3,-0.6 v -0.9 l 0.3,-0.6 0.3,-0.3 0.9,-0.2 h 1.2 l 0.9,0.3 0.3,0.3 0.3,0.6 v 0.9 l -0.3,0.6 -0.7,0.6 -0.9,0.3 -1.2,0.2 -0.6,0.3 -0.3,0.6 v 0.6 l 0.3,0.6 0.9,0.4 h 1.4 m -7.2,-0.1 3.1,-4.1 -4.5,-0.1 m 1.4,4.2 0.1,-6.3 m 26.3,25 -0.4,0.5 0.1,1 0.3,0.5 0.7,0.7 1.1,0.1 1.4,-0.4 1.4,-0.7 0.9,-0.8 0.3,-0.9 -0.2,-0.9 -0.1,-0.3 -0.7,-0.6 -0.8,-0.3 -1,0.2 -0.2,0.1 -0.7,0.7 -0.2,0.8 0.1,0.9 0.2,0.3 0.6,0.7 0.8,0.2 1,-0.1 m -22.3,19.8 -4.6,-2.4 0.6,4.4 m 4,-2 -6.3,0.8 m 5.1,2.5 h 0.3 l 0.6,0.2 0.4,0.3 0.4,0.5 0.1,1.2 -0.2,0.6 -0.3,0.4 -0.5,0.4 h -0.6 l -0.7,-0.2 -0.9,-0.5 -3.4,-2.6 0.6,4.2 m 29,15.3 -0.3,-0.1 -0.5,-0.4 -0.2,-0.4 -0.1,-0.7 0.3,-1.1 0.5,-0.5 0.4,-0.2 0.6,-0.1 0.6,0.2 0.5,0.4 0.7,0.9 2,3.7 1.2,-4 m -4.4,-2.5 -0.1,-0.6 -0.6,-1.1 6,1.8 m -19.5,4.6 -1,-0.1 -0.5,0.4 -0.3,0.5 v 0.7 l 0.4,0.5 0.9,0.8 0.6,0.7 0.3,0.8 v 0.7 l -0.4,0.8 -0.6,0.4 -0.4,0.1 -0.9,-0.2 -1.1,-0.5 -0.6,-0.7 -0.2,-0.4 v -0.7 l 0.5,-0.8 0.5,-0.4 0.8,-0.2 1,0.1 1.2,0.3 0.6,0.1 0.6,-0.4 0.3,-0.6 v -0.6 l -0.7,-0.7 -1.2,-0.7 m 6.3,4.4 v -0.7 l -0.6,-0.7 -0.5,-0.2 -1,-0.2 -0.9,0.5 -1,1.2 -0.7,1.3 -0.3,1.2 0.3,0.8 0.6,0.7 0.3,0.2 0.9,0.1 0.8,-0.2 0.7,-0.7 0.2,-0.3 0.1,-0.9 -0.2,-0.8 -0.7,-0.7 -0.3,-0.1 -0.9,-0.2 -0.8,0.3 -0.7,0.6 m -142.2,2.2 2.1,2.5 -2.9,0.2 0.5,0.7 0.2,0.7 v 0.4 l -0.5,0.8 -0.5,0.4 -0.9,0.3 h -0.8 l -0.8,-0.5 -0.6,-0.7 -0.4,-0.9 0.1,-0.4 0.2,-0.6 m 8.4,1.9 -0.9,-0.5 -0.6,0.2 -0.5,0.3 -0.2,0.7 0.1,0.6 0.6,1.1 0.3,0.9 v 0.9 l -0.3,0.6 -0.7,0.6 -0.6,0.1 h -0.5 l -0.8,-0.5 -0.7,-0.9 -0.4,-0.9 v -0.4 l 0.3,-0.6 0.7,-0.6 0.6,-0.2 0.9,0.1 0.8,0.5 1,0.7 0.6,0.3 0.7,-0.2 0.4,-0.4 0.3,-0.6 -0.4,-0.9 -0.8,-1 m 31.7,2.8 -0.4,5.1 3.8,-2.4 m -3.4,-2.7 3.3,5.3 m 0.5,-7.6 -0.6,0.7 -0.1,1.1 0.6,1.4 0.4,0.8 1.1,1.1 1,0.4 0.9,-0.2 0.5,-0.3 0.6,-0.7 v -1.1 l -0.5,-1.4 -0.5,-0.8 -1,-1.1 -1,-0.5 -0.9,0.3 -0.4,0.2 m 44,-29.7 -3.3,-0.6 2.2,-2 -0.8,-0.2 -0.6,-0.4 -0.2,-0.3 -0.2,-0.9 0.1,-0.6 0.5,-0.9 0.7,-0.5 0.9,-0.1 0.9,0.2 0.8,0.4 0.3,0.4 0.2,0.6 m -9.7,1.3 0.5,-0.8 0.7,-0.5 0.9,-0.1 h 0.3 l 0.9,0.5 0.4,0.7 0.2,0.9 -0.1,0.3 -0.4,0.9 -0.7,0.4 -1,0.2 -0.2,-0.1 -0.9,-0.4 -0.5,-0.7 -0.1,-1.3 0.3,-1.4 0.6,-1.5 0.7,-0.7 1,-0.2 0.5,0.1 0.9,0.5 0.2,0.6 m 7.7,39.5 -5.1,-0.3 2.4,3.8 m 2.7,-3.5 -5.3,3.4 m 5.4,-0.5 0.6,0.4 1.3,0.2 -5.3,3.4 m 34.1,-17.8 4.9,1.5 -1.4,-4.3 m -3.5,2.8 6,-2 m -5.5,-1.5 -0.3,0.1 -0.7,-0.1 -0.4,-0.2 -0.4,-0.5 -0.4,-1.1 0.1,-0.7 0.2,-0.3 0.4,-0.5 0.6,-0.2 0.7,0.1 1,0.3 3.8,1.8 -1.3,-3.9 m -15.5,28.2 -0.5,5.2 3.9,-2.3 m -3.4,-2.9 3.2,5.5 m -0.3,-7 2.8,-1.7 -0.3,3 0.7,-0.5 h 0.7 l 0.4,0.1 0.7,0.6 0.3,0.6 0.2,0.9 -0.2,0.8 -0.6,0.7 -0.8,0.5 -0.9,0.2 -0.4,-0.1 -0.6,-0.4 m -241.1,-117.7 5.3,4.5 m -6.4,-0.4 1.1,-4.1 m 3.3,-4.3 0.8,0.5 0.4,0.7 0.1,1 -0.1,0.2 -0.5,0.8 -0.7,0.5 h -1 -0.3 l -0.8,-0.6 -0.4,-0.7 -0.1,-0.9 0.1,-0.3 0.5,-0.8 0.8,-0.4 h 1.2 l 1.4,0.3 1.4,0.7 0.7,0.8 0.1,1 -0.1,0.5 -0.6,0.8 -0.6,0.2 m -42.3,-21.9 -0.2,-1 -0.5,-0.4 -0.6,-0.1 -0.6,0.2 -0.4,0.6 -0.5,1.1 -0.5,0.8 -0.7,0.5 -0.6,0.2 -0.9,-0.1 -0.5,-0.4 -0.3,-0.4 -0.1,-0.9 0.2,-1.2 0.4,-0.8 0.4,-0.3 0.6,-0.2 0.9,0.2 0.5,0.4 0.5,0.7 0.2,0.9 0.1,1.2 0.2,0.7 0.5,0.4 0.6,0.1 0.6,-0.2 0.5,-0.9 0.2,-1.3 m -1,5.7 -0.1,-0.9 -0.8,-0.7 -1.4,-0.6 -0.9,-0.1 h -1.5 l -1,0.4 -0.5,0.9 -0.1,0.6 0.2,0.9 0.8,0.7 1.4,0.6 0.9,0.1 h 1.5 l 1,-0.4 0.4,-0.9 0.1,-0.4 m 16.3,-34.6 0.2,0.2 0.1,0.7 v 0.4 l -0.2,0.6 -0.9,0.8 -0.7,0.2 h -0.4 l -0.6,-0.3 -0.4,-0.5 -0.2,-0.6 -0.1,-1.1 0.3,-4.2 -3.2,2.8 m 0.2,8.1 -1.9,-6.7 m 5.1,4 -3.2,2.7 m 44.6,13 2.2,6.7 m -5.2,-3.8 3,-2.9 m 1.9,-1.8 -0.4,0.8 0.2,0.7 0.4,0.4 0.6,0.2 0.7,-0.2 1,-0.6 0.9,-0.4 h 0.8 l 0.7,0.3 0.6,0.6 0.2,0.7 v 0.4 l -0.5,0.8 -0.8,0.9 -0.9,0.4 -0.4,-0.1 -0.7,-0.2 -0.6,-0.6 -0.2,-0.7 v -0.8 l 0.5,-0.9 0.7,-1 0.2,-0.6 -0.2,-0.7 -0.4,-0.4 -0.7,-0.2 -0.8,0.4 -1,0.9 m -16.9,-40.8 0.2,0.2 0.2,0.7 v 0.4 l -0.2,0.6 -0.9,0.9 -0.6,0.2 h -0.4 l -0.7,-0.2 -0.4,-0.5 -0.2,-0.6 -0.2,-1.1 v -4.2 l -3,3 m 0.4,7.1 0.7,0.3 0.8,-0.5 0.5,-0.4 0.4,-0.8 -0.2,-1.1 -0.9,-1.3 -1,-1 -1.1,-0.7 h -0.8 l -0.9,0.4 -0.2,0.2 -0.4,0.9 v 0.8 l 0.4,0.9 0.2,0.2 0.9,0.4 h 0.8 l 0.9,-0.4 0.2,-0.2 0.4,-0.8 v -0.9 l -0.4,-0.8 m 34.1,-23.7 -0.3,0.6 -0.3,1.2 -3.6,-5.2 m 2.1,4.8 -0.3,0.6 -0.3,1.3 -3.6,-5.2 m 25.5,9.1 0.7,0.6 0.7,-0.1 0.5,-0.3 0.4,-0.5 -0.1,-0.7 -0.4,-1.2 -0.2,-0.9 0.2,-0.8 0.4,-0.6 0.7,-0.5 h 0.7 l 0.4,0.1 0.7,0.6 0.7,1 0.2,0.9 -0.1,0.4 -0.4,0.6 -0.7,0.5 h -0.7 l -0.8,-0.2 -0.8,-0.6 -0.8,-0.8 -0.6,-0.4 -0.7,0.1 -0.5,0.3 -0.3,0.5 0.2,1 0.7,1.1 m 16.3,47.7 -0.4,-0.5 -1,-0.8 6.2,-0.9 m -5.2,-0.9 h -0.3 l -0.6,-0.2 -0.3,-0.2 -0.4,-0.6 -0.2,-1.2 0.2,-0.6 0.3,-0.4 0.5,-0.3 0.6,-0.1 0.7,0.2 0.9,0.5 3.4,2.5 -0.6,-4.1 m -34.8,28.4 -4.1,-5.7 m 6.1,2 -2,3.7 m -1.2,2.3 0.1,-1 -0.3,-0.5 -0.6,-0.3 h -0.6 l -0.6,0.4 -0.8,0.9 -0.7,0.6 -0.8,0.3 h -0.7 l -0.8,-0.5 -0.4,-0.5 -0.1,-0.4 0.2,-1 0.5,-1 0.7,-0.7 0.4,-0.1 h 0.7 l 0.8,0.5 0.4,0.5 0.2,0.8 -0.1,1 -0.3,1.2 -0.1,0.6 0.4,0.6 0.5,0.3 h 0.7 l 0.7,-0.7 0.7,-1.1 m 13.1,17.3 -0.2,-0.3 -0.2,-0.6 v -0.4 l 0.3,-0.6 0.9,-0.8 0.6,-0.2 h 0.4 l 0.7,0.3 0.4,0.4 0.1,0.7 0.2,1 -0.3,4.3 3.2,-2.8 m -2.9,-5.9 2.5,-2.2 0.2,3 0.7,-0.6 0.6,-0.2 0.5,0.1 0.8,0.4 0.4,0.5 0.3,0.9 v 0.8 l -0.5,0.8 -0.6,0.6 -0.9,0.4 h -0.4 l -0.7,-0.3 m -19.2,2 -7,0.1 m 5.1,-3.8 1.9,3.7 m 0.3,5.5 -0.9,0.1 -0.8,-0.3 -0.7,-0.6 -0.1,-0.3 -0.1,-0.9 0.2,-0.9 0.7,-0.6 0.3,-0.2 0.9,-0.1 0.8,0.3 0.7,0.7 0.1,0.2 0.2,1 -0.3,0.8 -1,0.8 -1.3,0.6 -1.5,0.4 -1.1,-0.1 -0.6,-0.7 -0.3,-0.5 -0.1,-1 0.4,-0.5 m -134.5,249.3 -2.1,-2.5 3,-0.2 -0.6,-0.7 -0.2,-0.7 0.1,-0.4 0.4,-0.8 0.5,-0.4 0.9,-0.4 0.8,0.1 0.8,0.5 0.6,0.7 0.4,0.8 -0.1,0.5 -0.2,0.6 m -7.7,-1.2 -2.2,-2.5 3,-0.2 -0.6,-0.7 -0.2,-0.6 0.1,-0.4 0.5,-0.9 0.4,-0.4 0.9,-0.3 0.8,0.1 0.9,0.4 0.5,0.7 0.4,0.9 v 0.4 l -0.3,0.6 m -16.1,2.8 0.3,-0.9 -0.3,-0.6 -0.5,-0.4 -0.6,-0.1 -0.6,0.3 -1,0.7 -0.8,0.5 -0.9,0.1 -0.6,-0.1 -0.7,-0.6 -0.3,-0.6 v -0.4 l 0.3,-0.9 0.7,-0.9 0.8,-0.6 h 0.4 l 0.7,0.1 0.7,0.6 0.3,0.6 0.1,0.8 -0.3,0.9 -0.6,1.2 -0.1,0.6 0.3,0.6 0.4,0.4 0.7,0.1 0.8,-0.5 0.8,-1 m -3.6,4.5 0.4,-0.9 -0.4,-1 -1,-1.2 -0.7,-0.6 -1.3,-0.7 h -1.1 l -0.8,0.5 -0.4,0.4 -0.3,0.9 0.3,1.1 1,1.1 0.7,0.6 1.4,0.7 1.1,0.1 0.7,-0.5 0.3,-0.4 m 363.3,-306.2 0.9,-0.4 0.2,-0.6 -0.1,-0.6 -0.3,-0.6 -0.7,-0.2 -1.2,-0.1 -0.9,-0.2 -0.7,-0.5 -0.4,-0.6 -0.1,-0.9 0.2,-0.6 0.3,-0.3 0.8,-0.5 1.2,-0.1 0.9,0.2 0.4,0.2 0.4,0.6 0.1,0.9 -0.2,0.6 -0.6,0.7 -0.8,0.4 -1.2,0.4 -0.5,0.4 -0.2,0.7 v 0.5 l 0.4,0.6 0.9,0.2 1.4,-0.2 m -8.1,-1 0.2,-1 0.5,-0.6 0.8,-0.5 h 0.3 l 1,0.2 0.6,0.5 0.4,0.8 0.1,0.3 -0.2,1 -0.5,0.7 -0.9,0.4 h -0.3 l -0.9,-0.2 -0.7,-0.5 -0.4,-1.1 -0.2,-1.5 0.1,-1.6 0.5,-0.9 0.8,-0.4 0.6,-0.1 0.9,0.2 0.4,0.5 m -5.5,12.5 -0.2,0.9 0.4,0.6 0.5,0.3 h 0.7 l 0.6,-0.4 0.8,-0.9 0.7,-0.6 0.8,-0.2 h 0.7 l 0.8,0.4 0.4,0.6 0.1,0.4 -0.2,0.9 -0.6,1.1 -0.7,0.6 -0.4,0.1 h -0.7 l -0.7,-0.4 -0.4,-0.6 -0.2,-0.8 0.1,-0.9 0.4,-1.2 v -0.7 l -0.4,-0.5 -0.5,-0.3 -0.7,-0.1 -0.7,0.7 -0.6,1.1 m 2.6,-4.8 -0.1,1 0.3,0.5 0.6,0.3 0.6,0.1 0.6,-0.4 0.8,-0.9 0.7,-0.7 0.8,-0.2 h 0.7 l 0.8,0.5 0.4,0.5 0.1,0.4 -0.2,1 -0.6,1 -0.7,0.7 -0.4,0.1 -0.6,-0.1 -0.8,-0.4 -0.4,-0.6 -0.2,-0.8 0.1,-0.9 0.4,-1.2 V 99 l -0.4,-0.5 -0.5,-0.3 h -0.7 l -0.7,0.6 -0.6,1.2 M 71.6,462.9 v -0.3 l 0.2,-0.6 0.2,-0.4 0.6,-0.4 1.2,-0.2 0.6,0.2 0.3,0.3 0.4,0.5 0.1,0.6 -0.2,0.6 -0.4,1 -2.5,3.5 4.2,-0.7 m 4.3,-5 -0.2,0.9 -0.5,0.7 -0.8,0.5 h -0.3 l -0.9,-0.1 -0.7,-0.5 -0.5,-0.9 v -0.3 l 0.1,-0.9 0.5,-0.7 0.8,-0.4 0.3,-0.1 1,0.2 0.7,0.5 0.5,1.1 0.2,1.5 v 1.5 l -0.5,1 -0.8,0.4 -0.6,0.1 -0.9,-0.1 -0.4,-0.6 M 50.9,436.7 h 0.3 l 0.6,0.1 0.4,0.2 0.4,0.5 0.4,1.1 -0.1,0.7 -0.2,0.4 -0.5,0.4 -0.6,0.2 -0.7,-0.1 -1,-0.4 -3.7,-2 1.1,4 m 6.8,0.8 -0.5,-0.8 -0.7,-0.1 -0.5,0.2 -0.5,0.4 -0.1,0.7 v 1.2 1 l -0.4,0.7 -0.5,0.5 -0.9,0.2 -0.7,-0.1 -0.3,-0.2 -0.6,-0.8 -0.3,-1.1 v -1 l 0.2,-0.3 0.5,-0.5 0.9,-0.3 0.6,0.2 0.8,0.4 0.5,0.8 0.7,1 0.4,0.5 0.7,0.1 0.5,-0.1 0.5,-0.5 0.1,-0.9 -0.4,-1.3 m 411.9,110.9 -3.2,-0.8 2.3,-1.9 -0.8,-0.2 -0.6,-0.4 -0.2,-0.4 -0.1,-0.9 0.2,-0.6 0.5,-0.8 0.7,-0.5 h 1 l 0.8,0.2 0.8,0.5 0.3,0.4 0.1,0.6 m -9.9,2.8 2.9,0.7 1,-2.5 -0.4,0.2 -0.9,0.1 -0.9,-0.2 -0.8,-0.5 -0.5,-0.8 v -0.9 l 0.1,-0.6 0.5,-0.8 0.7,-0.4 1,-0.1 0.9,0.2 0.8,0.5 0.2,0.4 0.1,0.6 m -28.5,11 -2.4,2.2 -0.3,-3 -0.7,0.7 -0.6,0.1 h -0.4 l -0.9,-0.4 -0.4,-0.5 -0.4,-0.8 0.1,-0.9 0.4,-0.8 0.7,-0.6 0.8,-0.4 h 0.4 l 0.7,0.2 m -3.7,9.2 0.7,0.3 0.8,-0.4 0.5,-0.5 0.4,-0.8 -0.2,-1.1 -0.8,-1.3 -1,-1 -1.1,-0.7 h -0.8 l -0.9,0.4 -0.2,0.2 -0.4,0.8 -0.1,0.8 0.4,0.9 0.2,0.2 0.9,0.5 h 0.8 l 0.9,-0.4 0.2,-0.2 0.5,-0.8 v -0.9 l -0.4,-0.8 m -87.7,102.2 -0.5,-0.9 -0.6,-0.2 -0.6,0.1 -0.6,0.4 -0.1,0.7 -0.1,1.2 -0.2,1 -0.5,0.6 -0.5,0.5 -0.9,0.1 -0.6,-0.2 -0.4,-0.2 -0.4,-0.9 -0.2,-1.1 0.1,-1 0.3,-0.3 0.5,-0.4 0.9,-0.2 0.6,0.2 0.7,0.5 0.5,0.8 0.5,1.2 0.4,0.5 0.6,0.2 0.6,-0.1 0.5,-0.4 0.2,-1 -0.3,-1.3 m -0.7,4.1 0.4,0.5 1.1,0.8 -6.2,1.1 m 47.9,13.4 0.2,0.9 0.6,0.4 h 0.6 l 0.6,-0.2 0.4,-0.6 0.4,-1.1 0.3,-0.9 0.7,-0.5 0.6,-0.3 0.9,0.1 0.6,0.3 0.3,0.4 0.2,0.9 -0.1,1.2 -0.4,0.9 -0.3,0.2 -0.7,0.3 -0.9,-0.1 -0.5,-0.4 -0.6,-0.6 -0.2,-0.9 -0.2,-1.3 -0.2,-0.6 -0.6,-0.3 -0.6,-0.1 -0.6,0.3 -0.4,0.8 -0.1,1.4 m 1.9,-4.4 h -0.3 l -0.6,-0.4 -0.3,-0.3 -0.2,-0.6 0.1,-1.2 0.4,-0.6 0.3,-0.3 0.6,-0.2 0.6,0.1 0.6,0.3 0.8,0.7 2.7,3.2 0.4,-4.1 m -25.9,20.7 -3.8,5.8 m -0.3,-6.4 4.1,0.6 m 5.2,0.7 -3.9,5.8 m -0.3,-6.4 4.2,0.6 M 255,637.9 l 0.9,-0.4 0.2,-0.7 v -0.6 l -0.4,-0.5 -0.6,-0.3 -1.2,-0.1 -1,-0.2 -0.6,-0.6 -0.4,-0.5 -0.1,-0.9 0.3,-0.7 0.2,-0.3 0.9,-0.4 1.2,-0.1 0.9,0.2 0.3,0.3 0.4,0.5 0.1,0.9 -0.2,0.7 -0.6,0.6 -0.8,0.4 -1.2,0.4 -0.6,0.4 -0.2,0.6 0.1,0.6 0.3,0.6 0.9,0.2 1.4,-0.2 m -8,0.9 2.3,-6.6 m 1.9,6.1 -4.2,0.5 m 44.9,11.6 4.9,-1.3 -3.4,-2.9 m -1.5,4.2 4,-4.8 m -36.9,44.3 -6,3.5 m 2.6,-5.9 3.4,2.4 m 3.4,3.4 0.1,-0.6 -0.6,-0.8 -0.5,-0.3 -0.9,-0.3 -1,0.4 -1.1,1.1 -0.8,1.2 -0.5,1.1 0.2,0.9 0.6,0.7 0.2,0.2 0.9,0.3 0.8,-0.2 0.8,-0.5 0.2,-0.3 0.2,-0.9 -0.1,-0.8 -0.6,-0.8 -0.2,-0.2 -0.9,-0.2 -0.9,0.1 -0.7,0.6 m 28.8,-12 -0.4,0.8 0.3,0.7 0.4,0.4 0.6,0.2 0.7,-0.2 1,-0.7 0.8,-0.4 0.9,-0.1 0.6,0.2 0.7,0.7 0.2,0.6 v 0.4 l -0.4,0.9 -0.8,0.9 -0.9,0.4 h -0.4 l -0.6,-0.2 -0.7,-0.6 -0.2,-0.7 v -0.8 l 0.4,-0.9 0.6,-1 0.2,-0.7 -0.2,-0.6 -0.5,-0.4 -0.6,-0.2 -0.8,0.4 -1,1 m 3.8,-1.9 0.2,-0.6 -0.1,-1.3 4.6,4.4 m -99.8,11 -0.8,-2.9 -2.6,0.4 0.3,0.2 0.6,0.8 0.2,0.9 -0.1,0.9 -0.4,0.8 -0.8,0.5 -0.6,0.1 h -0.9 l -0.8,-0.4 -0.5,-0.8 -0.2,-0.9 0.1,-0.9 0.2,-0.4 0.5,-0.5 m 6.3,7.6 0.5,-0.4 0.1,-1 -0.2,-0.6 -0.5,-0.8 -1,-0.3 -1.5,0.1 -1.5,0.4 -1.1,0.6 -0.4,0.7 v 1 0.3 l 0.6,0.7 0.7,0.5 h 0.9 l 0.3,-0.1 0.8,-0.5 0.4,-0.7 0.1,-1 -0.1,-0.2 -0.5,-0.8 -0.7,-0.5 h -1 m 18.6,-0.8 1.2,6.9 m -4.7,-4.4 3.5,-2.5 m 3.8,-2.7 -2.4,1.7 1.3,2.4 0.1,-0.4 0.5,-0.8 0.8,-0.5 0.9,-0.3 0.8,0.1 0.8,0.6 0.3,0.5 0.3,0.9 -0.1,0.8 -0.6,0.8 -0.7,0.5 -0.9,0.3 -0.5,-0.1 -0.5,-0.3 m 90.05073,-246.88525 -0.64262,2.99934 2.61315,0.79074 -0.24666,-0.37298 -0.1085,-0.89344 0.18917,-0.92958 0.51094,-0.76719 0.64633,-0.48143 0.99222,-0.12049 0.52022,0.13829 0.85405,0.39996 0.49333,0.74597 0.1085,0.89343 -0.18918,0.92959 -0.51093,0.76719 -0.27356,0.23469 -0.6825,0.18362 m -3.34018,-9.2649 3.47092,3.70861 0.87072,-4.43733 m -4.34164,0.72872 6.08313,1.17522 m 4.23737,-6.14392 2.02088,-2.2877 -1.84717,-1.94481 0.0209,0.4116 -0.36998,0.84418 -0.61957,0.71125 -0.80263,0.45358 -0.82353,0.042 -0.84442,-0.36961 -0.43266,-0.39058 -0.57834,-0.86865 -0.0418,-0.82317 0.36998,-0.84418 0.61957,-0.71126 0.80263,-0.45358 0.41178,-0.021 0.69049,0.20753 m -0.13961,7.77474 -2.18306,2.4416 -0.558,-2.86013 -0.64871,0.61565 -0.54479,0.27057 -0.50743,0.0501 -0.84442,-0.3696 -0.43266,-0.39059 -0.48268,-0.8978 -0.0418,-0.82317 0.36998,-0.84418 0.61957,-0.71126 0.80264,-0.45358 0.41178,-0.021 0.69048,0.20753"
       style="font-variation-settings:normal;opacity:1;vector-effect:none;fill:none;fill-opacity:1;stroke:#000000;stroke-width:1;stroke-linecap:butt;stroke-linejoin:miter;stroke-miterlimit:4;stroke-dasharray:none;stroke-dashoffset:0;stroke-opacity:1;-inkscape-stroke:none;stop-color:#000000;stop-opacity:1" />
    <path
       d="m 134.5,708.7 -39.9,-50 18.7,-64.1 45,-75 -9.2,-53.6 -48.2,-1.2 -46.6,7.9 -17.1,-58.7 28.4,-35.5 26.4,30.6 42.3,-13.3 0.5,-59.9 14.6,-43.1 68.3,-16.7 -39.1,-58.5 -43.6,-13.1 -58,-14.8 13.3,-42.3 40.3,3.6 7.7,-44.8 24.1,-21.1 22.8,-22.6 39,-27.2 24.4,39.6 7.8,56.7 -42,37.2 -14.4,-29 15.1,-27.8 -22.9,21.8 -8.1,31.3 53,18.3 56.7,-7.9 44.9,-12 -1.7,-47.5 2.9,-31.9 12.6,-29.6 49.1,36.4 27,-3.5 -20.1,35.9 8.1,42.8 35.3,0.5 25.3,48.8 -11.9,39.6 -30.8,-16.3 -5.3,-40.7 -77.1,7.2 76.2,13.6 13.1,38.9 -37.9,22.1 -24.3,-38.1 -54.6,34 -36.3,-42.7 14.7,54.1 63.6,-9.9 -4.5,45 43.9,-1.3 34.8,-0.9 9.8,38.1 1.4,53.7 10.4,75.2 -49,22.3 11.2,-53 -21.6,-33.1 12.5,-28.1 -60.6,-9.7 -23.4,-28.4 -51.9,14.1 -9.5,28.7 12.6,20.4 -14.9,44.1 39.6,-24.4 14.7,-18.9 -4,30 -40.7,35.2 -35,-11.3 -46.4,-40.2 23,-20.3 -5.6,-39.1 20.7,-50.1 -44.1,30.9 2.6,75.9 -5.1,53.5 30.6,24.7 36.2,19.9 42.9,-34.5 21.2,66.4 89.4,9.7 34.7,-32.6 42.1,10.4 1.1,74.4 -92.1,25.6 -5.1,55.8 -50.1,-7 -11.6,-65.1 -51.1,-14.2 -51.9,13.8 53.4,-5.5 40.9,33.8 -45.9,47.7 -33.7,-23.3 -45.3,32.5 -11.1,-41.4 -17.5,-39.1 12.8,-60.4 43,16.4 -40.2,-22.4 -28.1,55 -1.6,42.8 z"
       id="coupes_001"
       stroke="#ff0000"
       stroke-width="1.27"
       sodipodi:nodetypes="ccccccccccccccccccccccccccccccccccccccccccccccccccccccccccccccccccccccccccccccccccccccccccccccccccccccccccccc" />
    <path
       d="M 352.1 205.2 L 293.8 175.5 M 338.7 163.5 L 352.1 205.2 M 288.3 233.0 L 293.8 175.5 M 352.1 205.2 L 288.3 233.0 M 338.7 163.5 L 416.6 166.1 M 416.6 166.1 L 352.1 205.2 M 288.3 233.0 L 237.1 183.4 M 288.3 233.0 L 217.7 276.1 M 217.7 276.1 L 237.1 183.4 M 337.0 116.0 L 408.5 123.3 M 178.6 217.6 L 237.1 183.4 M 178.6 217.6 L 184.1 165.1 M 339.9 84.1 L 401.6 90.9 M 135.0 204.5 L 184.1 165.1 M 135.0 204.5 L 130.6 151.0 M 130.6 151.0 L 184.1 165.1 M 77.0 189.7 L 130.6 151.0 M 303.0 287.1 L 217.7 276.1 M 234.1 325.2 L 217.7 276.1 M 190.0 356.1 L 217.7 276.1 M 190.0 356.1 L 149.4 292.8 M 190.0 356.1 L 134.8 335.9 M 190.0 356.1 L 134.3 395.8 M 192.6 432.0 L 134.3 395.8 M 149.1 466.0 L 134.3 395.8 M 192.6 432.0 L 149.1 466.0 M 279.6 371.1 L 234.1 325.2 M 303.0 287.1 L 279.6 371.1 M 303.0 287.1 L 331.5 357.0 M 362.1 322.2 L 331.5 357.0 M 406.0 320.9 L 354.9 385.4 M 270.1 399.8 L 213.4 375.3 M 450.6 358.1 L 415.5 395.1 M 452.0 411.8 L 403.0 423.2 M 270.1 399.8 L 219.0 414.4 M 462.4 487.0 L 403.0 423.2 M 187.5 485.5 L 158.3 519.6 M 180.2 571.1 L 158.3 519.6 M 218.1 510.2 L 180.2 571.1 M 282.7 420.2 L 219.0 414.4 M 242.4 474.9 L 219.0 414.4 M 307.4 439.9 L 277.4 486.2 M 307.4 439.9 L 318.1 451.0 M 180.2 571.1 L 113.3 594.6 M 152.1 626.1 L 113.3 594.6 M 152.1 626.1 L 94.6 658.7 M 150.5 668.9 L 94.6 658.7 M 218.1 510.2 L 220.4 593.5 M 254.3 530.1 L 220.4 593.5 M 275.7 619.0 L 220.4 593.5 M 254.3 530.1 L 275.7 619.0 M 254.3 530.1 L 318.4 562.0 M 318.4 562.0 L 275.7 619.0 M 318.4 562.0 L 326.8 633.2 M 407.8 571.7 L 326.8 633.2 M 393.6 649.5 L 326.8 633.2 M 407.8 571.7 L 393.6 649.5 M 407.8 571.7 L 485.7 623.9 M 407.8 571.7 L 484.6 549.5 M 223.8 632.8 L 220.4 593.5 M 223.8 632.8 L 164.6 637.5 M 164.6 637.5 L 220.4 593.5 M 223.8 632.8 L 182.1 676.6 M 238.5 685.5 L 182.1 676.6 M 223.8 632.8 L 238.5 685.5 M 149.1 466.0 L 92.0 409.1 M 100.9 464.8 L 92.0 409.1 M 451.9 166.6 L 429.2 198.0 M 477.2 215.4 L 429.2 198.0 M 477.2 215.4 L 434.5 238.7 M 352.1 205.2 L 324.6 275.7 M 352.1 205.2 L 379.2 241.7 M 428.3 218.8 L 379.2 241.7 M 428.3 218.8 L 403.5 279.8 M 130.6 151.0 L 192.2 133.8 M 138.3 106.2 L 192.2 133.8 M 162.4 85.1 L 192.2 133.8 M 162.4 85.1 L 215.1 112.0 M 185.2 62.5 L 215.1 112.0 M 248.6 74.9 L 215.1 112.0 M 185.2 62.5 L 248.6 74.9 M 256.4 131.6 L 215.1 112.0 M 256.4 131.6 L 200.0 139.8 M 37.2 414.0 L 92.0 409.1 M 100.9 464.8 L 37.2 414.0 M 393.6 649.5 L 338.4 698.3 M 277.2 627.3 L 238.5 685.5 M 318.1 661.1 L 238.5 685.5"
       id="plisM_001"
       stroke="brown"
       stroke-dasharray="4" />
    <path
       d="M 320.9 188.3 L 324.9 192.3 M 324.9 188.3 L 320.9 192.3 M 343.4 182.4 L 347.4 186.4 M 347.4 182.4 L 343.4 186.4 M 289.0 202.3 L 293.0 206.3 M 293.0 202.3 L 289.0 206.3 M 318.2 217.1 L 322.2 221.1 M 322.2 217.1 L 318.2 221.1 M 375.7 162.8 L 379.7 166.8 M 379.7 162.8 L 375.7 166.8 M 382.4 183.7 L 386.4 187.7 M 386.4 183.7 L 382.4 187.7 M 260.7 206.2 L 264.7 210.2 M 264.7 206.2 L 260.7 210.2 M 251.0 252.6 L 255.0 256.6 M 255.0 252.6 L 251.0 256.6 M 225.4 227.7 L 229.4 231.7 M 229.4 227.7 L 225.4 231.7 M 370.8 117.6 L 374.8 121.6 M 374.8 117.6 L 370.8 121.6 M 205.9 198.5 L 209.9 202.5 M 209.9 198.5 L 205.9 202.5 M 179.4 189.3 L 183.4 193.3 M 183.4 189.3 L 179.4 193.3 M 368.8 85.5 L 372.8 89.5 M 372.8 85.5 L 368.8 89.5 M 157.5 182.8 L 161.5 186.8 M 161.5 182.8 L 157.5 186.8 M 130.8 175.8 L 134.8 179.8 M 134.8 175.8 L 130.8 179.8 M 155.3 156.1 L 159.3 160.1 M 159.3 156.1 L 155.3 160.1 M 101.8 168.4 L 105.8 172.4 M 105.8 168.4 L 101.8 172.4 M 258.4 279.6 L 262.4 283.6 M 262.4 279.6 L 258.4 283.6 M 223.9 298.7 L 227.9 302.7 M 227.9 298.7 L 223.9 302.7 M 201.9 314.1 L 205.9 318.1 M 205.9 314.1 L 201.9 318.1 M 167.7 322.5 L 171.7 326.5 M 171.7 322.5 L 167.7 326.5 M 160.4 344.0 L 164.4 348.0 M 164.4 344.0 L 160.4 348.0 M 160.1 373.9 L 164.1 377.9 M 164.1 373.9 L 160.1 377.9 M 161.4 411.9 L 165.4 415.9 M 165.4 411.9 L 161.4 415.9 M 139.7 428.9 L 143.7 432.9 M 143.7 428.9 L 139.7 432.9 M 168.8 447.0 L 172.8 451.0 M 172.8 447.0 L 168.8 451.0 M 254.9 346.2 L 258.9 350.2 M 258.9 346.2 L 254.9 350.2 M 289.3 327.1 L 293.3 331.1 M 293.3 327.1 L 289.3 331.1 M 315.2 320.0 L 319.2 324.0 M 319.2 320.0 L 315.2 324.0 M 344.8 337.6 L 348.8 341.6 M 348.8 337.6 L 344.8 341.6 M 378.4 351.2 L 382.4 355.2 M 382.4 351.2 L 378.4 355.2 M 239.8 385.6 L 243.8 389.6 M 243.8 385.6 L 239.8 389.6 M 431.0 374.6 L 435.0 378.6 M 435.0 374.6 L 431.0 378.6 M 425.5 415.5 L 429.5 419.5 M 429.5 415.5 L 425.5 419.5 M 242.6 405.1 L 246.6 409.1 M 246.6 405.1 L 242.6 409.1 M 430.7 453.1 L 434.7 457.1 M 434.7 453.1 L 430.7 457.1 M 170.9 500.5 L 174.9 504.5 M 174.9 500.5 L 170.9 504.5 M 167.3 543.3 L 171.3 547.3 M 171.3 543.3 L 167.3 547.3 M 197.1 538.7 L 201.1 542.7 M 201.1 538.7 L 197.1 542.7 M 248.8 415.3 L 252.8 419.3 M 252.8 415.3 L 248.8 419.3 M 228.7 442.7 L 232.7 446.7 M 232.7 442.7 L 228.7 446.7 M 290.4 461.0 L 294.4 465.0 M 294.4 461.0 L 290.4 465.0 M 310.7 443.4 L 314.7 447.4 M 314.7 443.4 L 310.7 447.4 M 144.7 580.9 L 148.7 584.9 M 148.7 580.9 L 144.7 584.9 M 130.7 608.3 L 134.7 612.3 M 134.7 608.3 L 130.7 612.3 M 121.3 640.4 L 125.3 644.4 M 125.3 640.4 L 121.3 644.4 M 120.5 661.8 L 124.5 665.8 M 124.5 661.8 L 120.5 665.8 M 217.2 549.9 L 221.2 553.9 M 221.2 549.9 L 217.2 553.9 M 235.4 559.8 L 239.4 563.8 M 239.4 559.8 L 235.4 563.8 M 246.1 604.2 L 250.1 608.2 M 250.1 604.2 L 246.1 608.2 M 263.0 572.5 L 267.0 576.5 M 267.0 572.5 L 263.0 576.5 M 284.4 544.0 L 288.4 548.0 M 288.4 544.0 L 284.4 548.0 M 295.1 588.5 L 299.1 592.5 M 299.1 588.5 L 295.1 592.5 M 320.6 595.6 L 324.6 599.6 M 324.6 595.6 L 320.6 599.6 M 365.3 600.4 L 369.3 604.4 M 369.3 600.4 L 365.3 604.4 M 358.2 639.3 L 362.2 643.3 M 362.2 639.3 L 358.2 643.3 M 398.7 608.6 L 402.7 612.6 M 402.7 608.6 L 398.7 612.6 M 444.8 595.8 L 448.8 599.8 M 448.8 595.8 L 444.8 599.8 M 444.2 558.6 L 448.2 562.6 M 448.2 558.6 L 444.2 562.6 M 220.1 611.2 L 224.1 615.2 M 224.1 611.2 L 220.1 615.2 M 192.2 633.1 L 196.2 637.1 M 196.2 633.1 L 192.2 637.1 M 190.5 613.5 L 194.5 617.5 M 194.5 613.5 L 190.5 617.5 M 200.9 652.7 L 204.9 656.7 M 204.9 652.7 L 200.9 656.7 M 208.3 679.0 L 212.3 683.0 M 212.3 679.0 L 208.3 683.0 M 229.1 657.1 L 233.1 661.1 M 233.1 657.1 L 229.1 661.1 M 118.5 435.6 L 122.5 439.6 M 122.5 435.6 L 118.5 439.6 M 94.4 434.9 L 98.4 438.9 M 98.4 434.9 L 94.4 438.9 M 438.6 180.3 L 442.6 184.3 M 442.6 180.3 L 438.6 184.3 M 451.2 204.7 L 455.2 208.7 M 455.2 204.7 L 451.2 208.7 M 453.9 225.1 L 457.9 229.1 M 457.9 225.1 L 453.9 229.1 M 336.3 238.5 L 340.3 242.5 M 340.3 238.5 L 336.3 242.5 M 363.6 221.4 L 367.6 225.4 M 367.6 221.4 L 363.6 225.4 M 401.8 228.2 L 405.8 232.2 M 405.8 228.2 L 401.8 232.2 M 413.9 247.3 L 417.9 251.3 M 417.9 247.3 L 413.9 251.3 M 159.4 140.4 L 163.4 144.4 M 163.4 140.4 L 159.4 144.4 M 163.2 118.0 L 167.2 122.0 M 167.2 118.0 L 163.2 122.0 M 175.3 107.4 L 179.3 111.4 M 179.3 107.4 L 175.3 111.4 M 186.8 96.5 L 190.8 100.5 M 190.8 96.5 L 186.8 100.5 M 198.2 85.2 L 202.2 89.2 M 202.2 85.2 L 198.2 89.2 M 229.8 91.4 L 233.8 95.4 M 233.8 91.4 L 229.8 95.4 M 214.9 66.7 L 218.9 70.7 M 218.9 66.7 L 214.9 70.7 M 233.8 119.8 L 237.8 123.8 M 237.8 119.8 L 233.8 123.8 M 226.2 133.7 L 230.2 137.7 M 230.2 133.7 L 226.2 137.7 M 62.6 409.6 L 66.6 413.6 M 66.6 409.6 L 62.6 413.6 M 67.0 437.4 L 71.0 441.4 M 71.0 437.4 L 67.0 441.4 M 364.0 671.9 L 368.0 675.9 M 368.0 671.9 L 364.0 675.9 M 255.8 654.4 L 259.8 658.4 M 259.8 654.4 L 255.8 658.4 M 276.3 671.3 L 280.3 675.3 M 280.3 671.3 L 276.3 675.3"
       display="none"
       id="marqueM_001"
       stroke="brown" />
    <path
       d="M 337.0 116.0 L 416.6 166.1 M 337.0 116.0 L 401.6 90.9 M 401.6 90.9 L 408.5 123.3 M 303.0 287.1 L 234.1 325.2 M 187.5 485.5 L 149.1 466.0 M 303.0 287.1 L 362.1 322.2 M 362.1 322.2 L 354.9 385.4 M 406.0 320.9 L 415.5 395.1 M 279.6 371.1 L 213.4 375.3 M 406.0 320.9 L 450.6 358.1 M 452.0 411.8 L 415.5 395.1 M 462.4 487.0 L 424.6 456.3 M 218.1 510.2 L 158.3 519.6 M 267.8 464.3 L 219.0 414.4 M 267.8 464.3 L 242.4 474.9 M 267.8 464.3 L 277.4 486.2 M 416.6 166.1 L 429.2 198.0"
       id="plisV_001"
       stroke="green"
       stroke-dasharray="4 1 1 1"
       stroke-width="1.27" />
    <path
       d="M 374.8 139.1 L 378.8 143.1 M 378.8 139.1 L 374.8 143.1 M 367.3 101.5 L 371.3 105.5 M 371.3 101.5 L 367.3 105.5 M 403.1 105.1 L 407.1 109.1 M 407.1 105.1 L 403.1 109.1 M 266.6 304.2 L 270.6 308.2 M 270.6 304.2 L 266.6 308.2 M 166.3 473.7 L 170.3 477.7 M 170.3 473.7 L 166.3 477.7 M 330.6 302.7 L 334.6 306.7 M 334.6 302.7 L 330.6 306.7 M 356.5 351.8 L 360.5 355.8 M 360.5 351.8 L 356.5 355.8 M 408.7 356.0 L 412.7 360.0 M 412.7 356.0 L 408.7 360.0 M 244.5 371.2 L 248.5 375.2 M 248.5 371.2 L 244.5 375.2 M 426.3 337.5 L 430.3 341.5 M 430.3 337.5 L 426.3 341.5 M 431.7 401.5 L 435.7 405.5 M 435.7 401.5 L 431.7 405.5 M 441.5 469.6 L 445.5 473.6 M 445.5 469.6 L 441.5 473.6 M 186.2 512.9 L 190.2 516.9 M 190.2 512.9 L 186.2 516.9 M 241.4 437.4 L 245.4 441.4 M 245.4 437.4 L 241.4 441.4 M 253.1 467.6 L 257.1 471.6 M 257.1 467.6 L 253.1 471.6 M 270.6 473.2 L 274.6 477.2 M 274.6 473.2 L 270.6 477.2 M 420.9 180.0 L 424.9 184.0 M 424.9 180.0 L 420.9 184.0"
       id="marqueV_001"
       stroke="green" />
    <path
       d="m 252.1,378.57364 1.5,-0.7 2.3,-2.3 v 15.8"
       id="titre_1"
       stroke="#4b0082" />
  </g>
  <g
     id="page_002">
    <path
       d="M 700.7 463.3 L 702.2 458.4 L 698.0 459.8 M 700.7 463.3 L 698.7 457.3 M 694.3 465.3 L 695.2 458.4 M 698.3 464.0 L 694.3 465.3 M 783.1 604.7 L 783.0 605.6 L 782.6 606.4 L 781.8 606.9 L 781.5 607.0 L 780.6 606.9 L 779.8 606.5 L 779.3 605.8 L 779.2 605.5 L 779.3 604.5 L 779.7 603.8 L 780.5 603.2 L 780.7 603.2 L 781.7 603.2 L 782.4 603.6 L 783.1 604.7 L 783.5 606.1 L 783.6 607.6 L 783.3 608.7 L 782.5 609.2 L 781.9 609.4 L 781.0 609.3 L 780.5 608.8 M 787.9 603.3 L 787.9 604.2 L 787.5 605.0 L 786.7 605.5 L 786.4 605.6 L 785.4 605.5 L 784.7 605.1 L 784.2 604.4 L 784.1 604.1 L 784.1 603.1 L 784.5 602.4 L 785.3 601.8 L 785.6 601.8 L 786.5 601.8 L 787.3 602.2 L 787.9 603.3 L 788.3 604.7 L 788.5 606.2 L 788.1 607.3 L 787.3 607.8 L 786.8 608.0 L 785.8 607.9 L 785.4 607.4 M 631.8 491.6 L 632.4 490.9 L 632.3 490.2 L 632.0 489.7 L 631.5 489.3 L 630.8 489.4 L 629.6 489.7 L 628.7 489.9 L 627.8 489.7 L 627.3 489.3 L 626.8 488.6 L 626.8 487.9 L 626.9 487.5 L 627.5 486.8 L 628.5 486.2 L 629.5 486.0 L 629.9 486.1 L 630.4 486.4 L 630.9 487.2 L 630.9 487.9 L 630.7 488.7 L 630.1 489.4 L 629.2 490.3 L 628.9 490.8 L 628.9 491.5 L 629.2 492.0 L 629.8 492.4 L 630.7 492.2 L 631.9 491.5 M 627.9 493.8 L 625.1 495.5 L 625.4 492.5 L 624.7 493.0 L 624.0 493.1 L 623.6 493.0 L 622.9 492.3 L 622.5 491.8 L 622.3 490.9 L 622.6 490.1 L 623.2 489.4 L 623.9 488.9 L 624.9 488.7 L 625.3 488.8 L 625.8 489.2 M 608.5 593.7 L 607.5 593.8 L 607.1 594.3 L 607.0 594.9 L 607.1 595.5 L 607.6 595.9 L 608.7 596.5 L 609.5 597.0 L 610.0 597.7 L 610.1 598.4 L 609.9 599.3 L 609.5 599.8 L 609.1 600.0 L 608.2 600.1 L 607.0 599.8 L 606.2 599.3 L 606.0 598.9 L 605.8 598.3 L 606.1 597.4 L 606.5 596.9 L 607.2 596.5 L 608.2 596.4 L 609.4 596.4 L 610.0 596.2 L 610.5 595.7 L 610.6 595.1 L 610.5 594.5 L 609.7 594.0 L 608.3 593.6 M 612.4 596.1 L 612.5 595.9 L 612.9 595.3 L 613.2 595.1 L 613.9 595.0 L 615.1 595.2 L 615.6 595.7 L 615.8 596.0 L 616.0 596.7 L 615.8 597.3 L 615.4 597.8 L 614.6 598.5 L 611.0 600.7 L 615.1 601.7 M 599.0 549.5 L 598.9 548.6 L 598.1 547.9 L 596.7 547.3 L 595.8 547.2 L 594.3 547.2 L 593.3 547.7 L 592.8 548.5 L 592.7 549.1 L 592.9 550.0 L 593.7 550.8 L 595.1 551.3 L 596.0 551.5 L 597.5 551.4 L 598.5 551.0 L 598.9 550.1 L 599.0 549.7 M 847.0 507.1 L 846.7 500.1 M 850.7 505.1 L 847.0 507.1 M 845.4 506.3 L 845.0 506.8 L 844.7 508.1 L 841.7 502.5 M 885.8 536.8 L 890.5 542.0 M 884.2 540.6 L 885.8 536.8 M 887.4 532.8 L 890.1 537.2 L 891.9 533.0 M 887.4 532.8 L 893.2 535.2 M 884.7 504.5 L 891.6 503.5 M 887.1 508.0 L 884.7 504.5 M 885.0 502.3 L 884.8 502.5 L 884.1 502.6 L 883.7 502.5 L 883.1 502.2 L 882.4 501.2 L 882.3 500.5 L 882.4 500.1 L 882.7 499.5 L 883.2 499.2 L 883.9 499.1 L 885.0 499.1 L 889.2 499.9 L 886.8 496.4 M 759.5 411.4 L 756.3 407.2 L 755.0 411.5 M 759.5 411.4 L 753.4 409.5 M 755.4 417.0 L 754.7 416.4 L 754.3 415.7 L 754.2 414.7 L 754.3 414.4 L 754.9 413.7 L 755.6 413.3 L 756.6 413.2 L 756.9 413.3 L 757.6 413.9 L 758.0 414.6 L 758.1 415.6 L 758.0 415.9 L 757.4 416.6 L 756.7 417.0 L 755.4 417.0 L 754.0 416.5 L 752.7 415.8 L 752.0 414.9 L 752.0 414.0 L 752.1 413.4 L 752.7 412.6 L 753.4 412.5 M 824.5 483.0 L 827.6 489.3 M 821.9 486.3 L 824.5 483.0 M 826.3 483.0 L 826.5 482.4 L 826.3 481.1 L 831.2 485.0 M 879.4 455.5 L 874.2 460.1 M 875.5 453.9 L 879.4 455.5 M 880.4 457.5 L 880.5 457.2 L 881.0 456.8 L 881.4 456.6 L 882.0 456.6 L 883.2 457.0 L 883.6 457.5 L 883.8 457.9 L 883.8 458.6 L 883.6 459.1 L 883.1 459.6 L 882.2 460.2 L 878.2 461.8 L 882.1 463.4 M 855.2 399.6 L 854.6 392.7 M 858.8 397.5 L 855.2 399.6 M 852.7 401.2 L 853.3 400.4 L 853.4 399.4 L 852.9 397.9 L 852.4 397.1 L 851.4 396.0 L 850.4 395.5 L 849.5 395.8 L 849.0 396.1 L 848.3 396.8 L 848.3 397.9 L 848.8 399.3 L 849.3 400.1 L 850.3 401.2 L 851.3 401.7 L 852.2 401.5 L 852.6 401.2 M 903.2 398.6 L 903.1 399.2 L 903.8 399.9 L 904.3 400.2 L 905.2 400.4 L 906.2 399.9 L 907.2 398.8 L 907.9 397.5 L 908.2 396.3 L 908.0 395.4 L 907.4 394.7 L 907.1 394.6 L 906.2 394.4 L 905.3 394.6 L 904.6 395.3 L 904.5 395.6 L 904.3 396.5 L 904.6 397.3 L 905.2 398.0 L 905.5 398.1 L 906.4 398.3 L 907.2 398.1 L 907.9 397.5 M 899.1 394.9 L 899.8 394.3 L 900.6 394.1 L 901.5 394.2 L 901.8 394.4 L 902.4 395.1 L 902.7 395.9 L 902.5 396.8 L 902.3 397.1 L 901.6 397.7 L 900.8 398.0 L 899.9 397.8 L 899.6 397.6 L 899.0 396.9 L 898.7 396.1 L 899.1 394.9 L 899.8 393.6 L 900.8 392.5 L 901.8 392.0 L 902.7 392.1 L 903.2 392.4 L 903.9 393.1 L 903.8 393.8 M 933.4 494.4 L 934.0 501.4 M 929.8 496.6 L 933.4 494.4 M 934.9 493.5 L 937.7 491.8 L 937.4 494.8 L 938.2 494.4 L 938.9 494.3 L 939.3 494.4 L 940.0 495.0 L 940.3 495.6 L 940.5 496.5 L 940.3 497.3 L 939.7 498.0 L 938.9 498.5 L 938.0 498.7 L 937.6 498.6 L 937.0 498.2 M 911.6 491.1 L 904.7 490.0 M 910.4 487.1 L 911.6 491.1 M 912.8 495.3 L 908.0 493.5 L 909.2 497.9 M 912.8 495.3 L 906.8 497.0 M 976.3 466.6 L 976.6 466.0 L 976.6 464.7 L 980.8 469.4 M 978.7 462.6 L 978.2 463.4 L 978.4 464.5 L 979.2 465.8 L 979.7 466.5 L 981.0 467.4 L 982.0 467.7 L 982.9 467.3 L 983.3 466.9 L 983.8 466.1 L 983.7 465.0 L 982.9 463.7 L 982.3 463.0 L 981.1 462.1 L 980.0 461.8 L 979.2 462.2 L 978.8 462.5 M 982.7 459.0 L 982.3 459.9 L 982.4 460.9 L 983.2 462.3 L 983.8 462.9 L 985.0 463.9 L 986.0 464.1 L 986.9 463.8 L 987.3 463.4 L 987.8 462.6 L 987.7 461.5 L 986.9 460.2 L 986.3 459.5 L 985.1 458.6 L 984.1 458.3 L 983.2 458.6 L 982.8 458.9 M 951.1 375.8 L 950.3 375.2 L 950.0 374.4 L 950.0 373.5 L 950.1 373.2 L 950.7 372.5 L 951.5 372.1 L 952.4 372.1 L 952.7 372.3 L 953.4 372.8 L 953.8 373.6 L 953.8 374.6 L 953.6 374.8 L 953.1 375.6 L 952.3 375.9 L 951.1 375.8 L 949.6 375.3 L 948.3 374.5 L 947.7 373.6 L 947.7 372.7 L 947.9 372.1 L 948.5 371.4 L 949.2 371.3 M 951.6 380.6 L 948.7 376.3 L 947.1 380.5 M 951.6 380.6 L 945.7 378.4 M 977.4 366.0 L 979.9 367.6 L 981.6 365.4 L 981.2 365.5 L 980.2 365.3 L 979.5 364.8 L 978.9 364.1 L 978.7 363.3 L 978.9 362.3 L 979.2 361.8 L 980.0 361.2 L 980.8 361.0 L 981.7 361.3 L 982.5 361.7 L 983.1 362.5 L 983.2 362.9 L 983.1 363.6 M 972.4 362.9 L 978.3 359.1 M 976.0 365.1 L 972.4 362.9 M 826.7 306.6 L 827.4 306.7 L 828.2 306.2 L 828.6 305.7 L 828.9 304.9 L 828.6 303.8 L 827.6 302.6 L 826.5 301.7 L 825.4 301.2 L 824.5 301.2 L 823.7 301.7 L 823.5 302.0 L 823.2 302.9 L 823.3 303.7 L 823.8 304.5 L 824.0 304.7 L 824.9 305.0 L 825.7 305.0 L 826.5 304.5 L 826.7 304.2 L 827.1 303.3 L 827.0 302.5 L 826.5 301.7 M 824.6 310.7 L 823.2 305.7 L 820.4 309.2 M 824.6 310.7 L 819.7 306.7 M 835.2 380.0 L 838.3 386.3 M 832.6 383.3 L 835.2 380.0 M 837.0 377.7 L 836.7 378.6 L 837.0 379.7 L 838.0 380.8 L 838.7 381.4 L 840.1 382.1 L 841.2 382.2 L 842.0 381.6 L 842.3 381.2 L 842.7 380.3 L 842.3 379.3 L 841.3 378.1 L 840.6 377.5 L 839.3 376.8 L 838.2 376.7 L 837.4 377.3 L 837.1 377.6 M 857.1 292.7 L 857.6 292.0 L 858.4 291.6 L 859.4 291.6 L 859.6 291.7 L 860.4 292.3 L 860.8 293.0 L 860.8 294.0 L 860.7 294.3 L 860.1 295.0 L 859.3 295.4 L 858.4 295.4 L 858.1 295.3 L 857.3 294.7 L 857.0 294.0 L 857.1 292.7 L 857.6 291.3 L 858.3 290.0 L 859.2 289.3 L 860.1 289.3 L 860.7 289.5 L 861.5 290.1 L 861.5 290.8 M 851.9 293.2 L 854.7 294.2 L 855.9 291.7 L 855.5 291.9 L 854.6 291.9 L 853.7 291.6 L 853.0 291.0 L 852.6 290.2 L 852.6 289.3 L 852.8 288.7 L 853.4 288.0 L 854.1 287.6 L 855.1 287.6 L 855.9 287.9 L 856.7 288.5 L 856.9 288.9 L 857.0 289.5 M 893.7 357.7 L 893.5 357.0 L 892.7 356.5 L 892.1 356.4 L 891.2 356.5 L 890.4 357.3 L 889.8 358.7 L 889.5 360.2 L 889.5 361.4 L 890.0 362.1 L 890.8 362.6 L 891.1 362.7 L 892.0 362.5 L 892.7 362.1 L 893.2 361.3 L 893.3 361.0 L 893.2 360.0 L 892.7 359.3 L 891.9 358.8 L 891.6 358.8 L 890.7 358.9 L 890.0 359.3 L 889.5 360.2 M 898.7 360.0 L 898.2 360.8 L 897.5 361.2 L 896.5 361.3 L 896.2 361.3 L 895.4 360.8 L 895.0 360.1 L 894.8 359.2 L 894.9 358.9 L 895.4 358.0 L 896.1 357.6 L 897.0 357.5 L 897.3 357.5 L 898.2 358.0 L 898.6 358.7 L 898.7 360.0 L 898.4 361.4 L 897.8 362.8 L 897.0 363.6 L 896.0 363.7 L 895.4 363.6 L 894.6 363.1 L 894.5 362.4 M 923.6 338.5 L 924.5 338.9 L 924.9 339.6 L 925.1 340.6 L 925.0 340.9 L 924.6 341.7 L 923.9 342.2 L 923.0 342.3 L 922.7 342.3 L 921.8 341.8 L 921.3 341.1 L 921.2 340.2 L 921.2 339.9 L 921.7 339.1 L 922.4 338.6 L 923.6 338.5 L 925.1 338.7 L 926.5 339.3 L 927.3 340.0 L 927.5 341.0 L 927.3 341.6 L 926.9 342.4 L 926.3 342.6 M 922.2 333.9 L 925.8 337.6 L 926.6 333.1 M 922.2 333.9 L 928.4 334.9 M 891.1 290.2 L 890.8 289.2 L 890.9 288.4 L 891.5 287.6 L 891.7 287.5 L 892.6 287.2 L 893.4 287.3 L 894.2 287.8 L 894.4 288.1 L 894.7 289.0 L 894.6 289.8 L 894.0 290.6 L 893.8 290.8 L 892.9 291.1 L 892.0 290.9 L 891.1 290.2 L 890.2 288.9 L 889.5 287.6 L 889.5 286.5 L 890.0 285.7 L 890.5 285.3 L 891.4 285.1 L 892.0 285.4 M 888.0 294.0 L 888.6 294.3 L 889.5 294.0 L 890.0 293.6 L 890.5 292.8 L 890.5 291.7 L 889.8 290.4 L 888.9 289.2 L 887.9 288.4 L 887.1 288.3 L 886.2 288.5 L 886.0 288.7 L 885.4 289.5 L 885.3 290.3 L 885.6 291.2 L 885.8 291.5 L 886.6 292.0 L 887.4 292.2 L 888.3 291.9 L 888.5 291.7 L 889.1 290.9 L 889.2 290.1 L 888.9 289.2 M 901.7 243.8 L 897.3 241.2 L 897.7 245.7 M 901.7 243.8 L 895.5 244.4 M 901.3 250.1 L 901.9 249.8 L 902.1 248.9 L 902.0 248.3 L 901.7 247.4 L 900.7 246.9 L 899.2 246.7 L 897.7 246.8 L 896.5 247.2 L 896.0 247.9 L 895.8 248.8 L 895.8 249.1 L 896.2 250.0 L 896.8 250.5 L 897.7 250.7 L 898.0 250.7 L 898.9 250.3 L 899.4 249.7 L 899.7 248.8 L 899.6 248.5 L 899.3 247.6 L 898.6 247.1 L 897.7 246.8 M 916.8 236.7 L 916.1 236.7 L 914.9 237.1 L 917.8 231.5 M 912.4 236.0 L 913.4 236.2 L 913.9 235.8 L 914.2 235.2 L 914.2 234.6 L 913.8 234.0 L 912.9 233.2 L 912.2 232.5 L 912.0 231.7 L 912.0 231.0 L 912.4 230.2 L 913.0 229.8 L 913.4 229.7 L 914.3 229.9 L 915.4 230.4 L 916.0 231.1 L 916.1 231.5 L 916.1 232.2 L 915.7 233.0 L 915.2 233.4 L 914.4 233.6 L 913.4 233.5 L 912.2 233.2 L 911.5 233.2 L 911.0 233.6 L 910.7 234.1 L 910.7 234.8 L 911.4 235.4 L 912.6 236.1 M 753.4 653.1 L 752.9 653.5 L 752.7 654.5 L 752.9 655.1 L 753.3 655.9 L 754.3 656.3 L 755.8 656.3 L 757.3 656.1 L 758.4 655.5 L 758.9 654.8 L 759.0 653.9 L 759.0 653.6 L 758.5 652.8 L 757.8 652.3 L 756.9 652.2 L 756.6 652.2 L 755.8 652.7 L 755.3 653.4 L 755.2 654.3 L 755.2 654.6 L 755.7 655.5 L 756.4 655.9 L 757.3 656.1 M 751.6 648.4 L 752.1 651.3 L 754.9 651.1 L 754.5 650.9 L 754.0 650.0 L 753.9 649.1 L 754.0 648.2 L 754.5 647.5 L 755.3 647.0 L 755.9 646.9 L 756.8 647.1 L 757.5 647.5 L 758.0 648.4 L 758.2 649.3 L 758.0 650.2 L 757.8 650.5 L 757.3 650.9 M 734.6 667.3 L 731.7 666.7 L 730.9 669.3 L 731.3 669.1 L 732.2 669.0 L 733.1 669.1 L 733.9 669.6 L 734.4 670.3 L 734.5 671.2 L 734.4 671.8 L 734.0 672.6 L 733.3 673.1 L 732.3 673.3 L 731.5 673.1 L 730.6 672.6 L 730.4 672.3 L 730.2 671.7 M 739.9 668.2 L 736.9 667.7 L 736.2 670.3 L 736.5 670.1 L 737.5 669.9 L 738.3 670.1 L 739.2 670.5 L 739.7 671.2 L 739.8 672.2 L 739.7 672.8 L 739.2 673.6 L 738.5 674.1 L 737.6 674.2 L 736.7 674.1 L 735.9 673.6 L 735.6 673.3 L 735.4 672.6 M 876.9 667.9 L 877.4 668.3 L 878.6 668.6 L 873.2 671.7 M 880.3 671.1 L 879.6 670.5 L 878.5 670.4 L 877.0 670.9 L 876.3 671.3 L 875.1 672.3 L 874.6 673.3 L 874.8 674.2 L 875.1 674.7 L 875.8 675.4 L 876.9 675.4 L 878.3 675.0 L 879.1 674.5 L 880.3 673.5 L 880.8 672.6 L 880.6 671.6 L 880.3 671.2 M 880.8 674.8 L 881.3 675.2 L 882.5 675.5 L 877.1 678.6 M 946.5 670.4 L 947.4 670.0 L 948.2 670.0 L 949.1 670.4 L 949.3 670.7 L 949.7 671.5 L 949.7 672.4 L 949.3 673.2 L 949.1 673.4 L 948.2 673.8 L 947.4 673.8 L 946.5 673.4 L 946.3 673.2 L 945.9 672.4 L 945.9 671.5 L 946.5 670.4 L 947.6 669.4 L 948.9 668.5 L 949.9 668.3 L 950.8 668.7 L 951.2 669.2 L 951.6 670.0 L 951.4 670.7 M 943.2 670.1 L 944.0 670.5 L 944.7 670.3 L 945.1 669.8 L 945.3 669.2 L 945.1 668.6 L 944.4 667.5 L 944.0 666.7 L 944.0 665.8 L 944.2 665.2 L 944.9 664.5 L 945.5 664.3 L 945.9 664.3 L 946.8 664.8 L 947.6 665.6 L 948.1 666.5 L 948.1 666.9 L 947.8 667.5 L 947.2 668.1 L 946.6 668.4 L 945.7 668.4 L 944.9 667.9 L 943.8 667.3 L 943.2 667.1 L 942.5 667.3 L 942.1 667.7 L 941.9 668.4 L 942.3 669.2 L 943.3 670.2 M 928.8 688.3 L 928.4 687.8 L 927.5 687.6 L 926.9 687.7 L 926.0 688.1 L 925.6 689.1 L 925.5 690.6 L 925.7 692.1 L 926.1 693.2 L 926.8 693.8 L 927.7 693.9 L 928.0 693.9 L 928.9 693.5 L 929.4 692.8 L 929.6 691.9 L 929.5 691.6 L 929.1 690.7 L 928.4 690.2 L 927.5 690.0 L 927.2 690.1 L 926.4 690.5 L 925.8 691.2 L 925.7 692.1 M 931.9 687.0 L 931.0 687.4 L 930.6 688.4 L 930.5 689.9 L 930.6 690.8 L 931.1 692.3 L 931.8 693.1 L 932.7 693.3 L 933.3 693.2 L 934.2 692.8 L 934.6 691.8 L 934.7 690.3 L 934.6 689.4 L 934.1 687.9 L 933.4 687.1 L 932.5 687.0 L 932.0 687.0 M 913.7 579.5 L 918.6 574.5 M 917.7 580.8 L 913.7 579.5 M 912.1 578.9 L 909.0 577.8 L 911.5 576.1 L 910.6 575.8 L 910.1 575.4 L 910.0 575.0 L 910.0 574.0 L 910.2 573.5 L 910.7 572.7 L 911.5 572.3 L 912.5 572.3 L 913.3 572.6 L 914.1 573.2 L 914.2 573.6 L 914.3 574.3 M 955.2 266.4 L 954.5 266.1 L 953.3 266.1 L 957.9 261.8 M 949.5 262.5 L 956.2 260.3 M 952.4 265.5 L 949.5 262.5 M 960.3 317.6 L 958.2 315.4 L 956.1 317.1 L 956.5 317.1 L 957.3 317.6 L 958.0 318.2 L 958.4 319.0 L 958.4 319.9 L 958.0 320.7 L 957.6 321.2 L 956.7 321.6 L 955.9 321.6 L 955.0 321.2 L 954.4 320.5 L 953.9 319.7 L 953.9 319.3 L 954.1 318.6 M 964.4 321.6 L 957.8 324.0 M 961.4 318.7 L 964.4 321.6 M 996.8 300.5 L 996.2 300.4 L 994.9 300.7 L 998.5 295.5 M 990.9 298.1 L 993.4 299.8 L 995.2 297.8 L 994.7 297.9 L 993.8 297.6 L 993.1 297.1 L 992.5 296.3 L 992.4 295.5 L 992.6 294.6 L 993.0 294.1 L 993.8 293.5 L 994.6 293.4 L 995.5 293.6 L 996.2 294.2 L 996.8 294.9 L 996.9 295.3 L 996.8 296.0 M 1018.6 385.8 L 1019.6 385.8 L 1020.0 385.3 L 1020.2 384.7 L 1020.0 384.0 L 1019.5 383.6 L 1018.5 383.0 L 1017.7 382.4 L 1017.3 381.7 L 1017.2 381.0 L 1017.4 380.2 L 1017.9 379.7 L 1018.2 379.5 L 1019.2 379.4 L 1020.3 379.7 L 1021.1 380.3 L 1021.3 380.6 L 1021.4 381.3 L 1021.2 382.2 L 1020.7 382.7 L 1020.0 383.1 L 1019.1 383.1 L 1017.8 383.1 L 1017.2 383.2 L 1016.7 383.7 L 1016.5 384.3 L 1016.7 384.9 L 1017.5 385.5 L 1018.8 385.8 M 1011.7 381.7 L 1012.3 380.9 L 1013.0 380.5 L 1013.9 380.4 L 1014.2 380.5 L 1015.0 381.0 L 1015.4 381.8 L 1015.5 382.7 L 1015.4 383.0 L 1014.9 383.8 L 1014.1 384.2 L 1013.2 384.3 L 1012.9 384.2 L 1012.1 383.6 L 1011.7 382.9 L 1011.7 381.7 L 1012.1 380.2 L 1012.8 378.9 L 1013.7 378.2 L 1014.6 378.1 L 1015.2 378.3 L 1016.0 378.8 L 1016.1 379.5 M 1015.8 434.6 L 1016.1 435.5 L 1016.0 436.3 L 1015.4 437.1 L 1015.2 437.3 L 1014.3 437.6 L 1013.5 437.5 L 1012.7 436.9 L 1012.5 436.7 L 1012.2 435.8 L 1012.3 435.0 L 1012.9 434.2 L 1013.1 434.0 L 1014.0 433.7 L 1014.8 433.8 L 1015.8 434.6 L 1016.7 435.8 L 1017.4 437.2 L 1017.4 438.3 L 1016.9 439.0 L 1016.4 439.4 L 1015.5 439.7 L 1014.9 439.4 M 1016.2 433.4 L 1016.5 432.8 L 1016.7 431.6 L 1020.5 436.6 M 1026.8 409.6 L 1026.5 409.7 L 1025.8 409.4 L 1025.5 409.2 L 1025.1 408.6 L 1025.0 407.4 L 1025.2 406.8 L 1025.5 406.5 L 1026.1 406.1 L 1026.7 406.0 L 1027.3 406.3 L 1028.3 406.8 L 1031.6 409.4 L 1031.1 405.2 M 1026.4 400.7 L 1027.3 400.9 L 1028.0 401.4 L 1028.4 402.3 L 1028.4 402.6 L 1028.2 403.5 L 1027.7 404.2 L 1026.8 404.5 L 1026.5 404.6 L 1025.6 404.4 L 1024.9 403.8 L 1024.5 403.0 L 1024.5 402.7 L 1024.7 401.8 L 1025.2 401.1 L 1026.4 400.7 L 1027.9 400.5 L 1029.4 400.6 L 1030.4 401.1 L 1030.8 402.0 L 1030.8 402.6 L 1030.6 403.5 L 1030.1 403.9 M 994.2 342.0 L 993.3 342.0 L 992.8 342.4 L 992.6 343.0 L 992.7 343.7 L 993.2 344.1 L 994.2 344.8 L 995.0 345.4 L 995.3 346.1 L 995.4 346.8 L 995.1 347.7 L 994.7 348.1 L 994.3 348.3 L 993.3 348.3 L 992.2 347.9 L 991.4 347.4 L 991.3 347.0 L 991.2 346.3 L 991.5 345.5 L 991.9 345.0 L 992.7 344.6 L 993.6 344.6 L 994.9 344.7 L 995.5 344.6 L 996.0 344.1 L 996.2 343.6 L 996.1 342.9 L 995.4 342.3 L 994.1 341.9 M 999.3 343.7 L 998.3 343.7 L 997.9 344.1 L 997.7 344.7 L 997.8 345.4 L 998.2 345.8 L 999.3 346.5 L 1000.0 347.1 L 1000.4 347.8 L 1000.5 348.5 L 1000.2 349.4 L 999.7 349.8 L 999.4 350.0 L 998.4 350.0 L 997.3 349.6 L 996.5 349.1 L 996.3 348.7 L 996.2 348.0 L 996.5 347.2 L 997.0 346.7 L 997.8 346.3 L 998.7 346.3 L 999.9 346.4 L 1000.6 346.3 L 1001.1 345.9 L 1001.3 345.3 L 1001.2 344.6 L 1000.4 344.1 L 999.1 343.6 M 1009.6 336.1 L 1009.7 337.0 L 1010.3 337.4 L 1010.9 337.5 L 1011.5 337.3 L 1011.9 336.7 L 1012.4 335.6 L 1012.8 334.7 L 1013.5 334.2 L 1014.1 334.0 L 1015.0 334.2 L 1015.6 334.6 L 1015.8 334.9 L 1016.0 335.8 L 1015.8 337.0 L 1015.4 337.9 L 1015.0 338.1 L 1014.4 338.3 L 1013.5 338.2 L 1012.9 337.8 L 1012.4 337.1 L 1012.3 336.2 L 1012.2 334.9 L 1012.0 334.3 L 1011.4 333.9 L 1010.8 333.8 L 1010.2 334.0 L 1009.7 334.9 L 1009.5 336.2 M 1010.7 328.7 L 1010.2 331.7 L 1012.9 332.4 L 1012.6 332.0 L 1012.5 331.1 L 1012.6 330.2 L 1013.0 329.4 L 1013.7 328.9 L 1014.6 328.7 L 1015.2 328.8 L 1016.1 329.2 L 1016.6 329.9 L 1016.7 330.9 L 1016.6 331.8 L 1016.2 332.6 L 1015.8 332.9 L 1015.2 333.1 M 975.4 597.2 L 974.7 597.4 L 973.6 598.0 L 975.3 591.9 M 970.7 597.4 L 971.6 597.4 L 972.5 596.6 L 973.2 595.3 L 973.4 594.4 L 973.5 592.9 L 973.2 591.9 L 972.4 591.3 L 971.8 591.2 L 970.9 591.2 L 970.0 591.9 L 969.3 593.3 L 969.1 594.1 L 969.0 595.7 L 969.3 596.7 L 970.1 597.2 L 970.5 597.4 M 965.5 596.0 L 966.5 595.9 L 967.3 595.2 L 968.0 593.8 L 968.2 593.0 L 968.4 591.4 L 968.0 590.4 L 967.2 589.9 L 966.7 589.7 L 965.7 589.8 L 964.9 590.5 L 964.2 591.8 L 964.0 592.7 L 963.8 594.2 L 964.2 595.3 L 965.0 595.8 L 965.4 595.9 M 957.9 651.6 L 957.2 652.2 L 956.4 652.5 L 955.4 652.3 L 955.2 652.1 L 954.5 651.4 L 954.3 650.6 L 954.4 649.7 L 954.6 649.4 L 955.3 648.8 L 956.1 648.5 L 957.0 648.7 L 957.3 648.9 L 957.9 649.6 L 958.2 650.4 L 957.9 651.6 L 957.1 652.9 L 956.2 654.1 L 955.2 654.6 L 954.3 654.4 L 953.7 654.1 L 953.1 653.4 L 953.1 652.7 M 961.2 651.0 L 960.3 650.8 L 959.7 651.2 L 959.4 651.7 L 959.4 652.4 L 959.8 653.0 L 960.7 653.8 L 961.3 654.5 L 961.6 655.3 L 961.5 656.0 L 961.1 656.8 L 960.5 657.2 L 960.1 657.3 L 959.2 657.1 L 958.2 656.5 L 957.5 655.8 L 957.4 655.4 L 957.4 654.8 L 957.9 654.0 L 958.4 653.6 L 959.2 653.3 L 960.2 653.5 L 961.4 653.8 L 962.0 653.9 L 962.6 653.5 L 962.9 653.0 L 962.9 652.3 L 962.2 651.6 L 961.1 650.9 M 1002.0 652.7 L 1002.3 653.6 L 1002.3 654.5 L 1001.8 655.3 L 1001.6 655.5 L 1000.7 655.8 L 999.8 655.8 L 999.0 655.3 L 998.8 655.0 L 998.5 654.2 L 998.5 653.3 L 999.0 652.5 L 999.3 652.3 L 1000.1 652.0 L 1001.0 652.0 L 1002.0 652.7 L 1003.0 653.9 L 1003.7 655.2 L 1003.8 656.3 L 1003.3 657.1 L 1002.9 657.5 L 1002.0 657.8 L 1001.4 657.6 M 1002.9 651.2 L 1002.7 651.0 L 1002.5 650.3 L 1002.5 649.9 L 1002.8 649.3 L 1003.7 648.5 L 1004.4 648.3 L 1004.8 648.4 L 1005.4 648.6 L 1005.8 649.1 L 1006.0 649.8 L 1006.1 650.8 L 1005.7 655.1 L 1008.9 652.3 M 1016.3 599.5 L 1016.5 598.5 L 1017.0 597.9 L 1017.9 597.5 L 1018.2 597.4 L 1019.1 597.6 L 1019.8 598.1 L 1020.2 599.0 L 1020.2 599.3 L 1020.0 600.2 L 1019.5 600.9 L 1018.6 601.3 L 1018.3 601.3 L 1017.4 601.1 L 1016.7 600.6 L 1016.3 599.5 L 1016.1 598.0 L 1016.2 596.4 L 1016.7 595.5 L 1017.6 595.1 L 1018.2 595.0 L 1019.1 595.2 L 1019.5 595.7 M 1015.3 600.3 L 1014.8 600.6 L 1014.0 601.7 L 1013.2 595.4 M 1021.8 618.6 L 1022.2 615.4 L 1024.3 617.4 L 1024.5 616.5 L 1024.8 616.0 L 1025.2 615.7 L 1026.1 615.5 L 1026.7 615.6 L 1027.5 616.0 L 1028.1 616.7 L 1028.3 617.6 L 1028.1 618.5 L 1027.7 619.4 L 1027.4 619.6 L 1026.8 619.9 M 1023.7 614.2 L 1023.5 613.5 L 1022.7 612.5 L 1029.0 613.3 M 709.2 316.0 L 709.9 316.0 L 711.1 315.6 L 708.1 321.2 M 715.0 317.4 L 710.4 319.7 L 714.4 321.8 M 715.0 317.4 L 712.0 323.0 M 723.8 294.2 L 723.5 294.8 L 723.3 296.0 L 719.6 290.9 M 718.1 297.5 L 717.8 296.6 L 718.0 295.7 L 718.5 295.0 L 718.8 294.8 L 719.7 294.5 L 720.5 294.6 L 721.3 295.2 L 721.5 295.4 L 721.7 296.3 L 721.6 297.2 L 721.1 297.9 L 720.8 298.1 L 719.9 298.4 L 719.1 298.3 L 718.1 297.5 L 717.2 296.3 L 716.6 294.9 L 716.6 293.8 L 717.1 293.0 L 717.6 292.7 L 718.5 292.4 L 719.1 292.7 M 809.0 298.2 L 808.3 298.2 L 807.6 298.8 L 807.3 299.3 L 807.1 300.3 L 807.6 301.2 L 808.7 302.2 L 810.0 303.0 L 811.2 303.4 L 812.0 303.1 L 812.7 302.5 L 812.9 302.3 L 813.1 301.3 L 812.8 300.5 L 812.2 299.8 L 812.0 299.6 L 811.0 299.4 L 810.2 299.7 L 809.5 300.3 L 809.3 300.5 L 809.2 301.5 L 809.4 302.3 L 810.0 303.0 M 810.5 293.8 L 812.6 298.5 L 814.8 294.6 M 810.5 293.8 L 815.9 297.0 M 816.4 289.5 L 819.2 288.4 L 818.5 285.8 L 818.3 286.2 L 817.6 286.8 L 816.7 287.1 L 815.8 287.2 L 815.0 286.9 L 814.4 286.1 L 814.2 285.6 L 814.1 284.6 L 814.4 283.8 L 815.2 283.2 L 816.0 282.9 L 817.0 282.8 L 817.3 283.0 L 817.8 283.5 M 813.7 289.0 L 813.8 289.3 L 813.8 289.9 L 813.6 290.3 L 813.2 290.8 L 812.1 291.3 L 811.4 291.2 L 811.0 291.0 L 810.5 290.6 L 810.3 290.0 L 810.3 289.4 L 810.6 288.3 L 812.2 284.4 L 808.3 286.0 M 760.3 250.7 L 760.3 251.4 L 760.9 252.5 L 755.0 250.4 M 758.6 256.7 L 759.3 256.7 L 759.9 255.9 L 760.1 255.4 L 760.1 254.4 L 759.5 253.5 L 758.1 252.7 L 756.7 252.2 L 755.5 252.1 L 754.7 252.5 L 754.1 253.2 L 754.0 253.5 L 754.0 254.4 L 754.4 255.2 L 755.1 255.8 L 755.4 255.9 L 756.4 255.9 L 757.1 255.6 L 757.7 254.8 L 757.8 254.5 L 757.8 253.6 L 757.5 252.8 L 756.7 252.2 M 813.4 201.4 L 813.1 201.4 L 812.5 201.1 L 812.2 200.8 L 811.9 200.2 L 811.9 199.0 L 812.3 198.4 L 812.6 198.1 L 813.2 197.8 L 813.8 197.9 L 814.4 198.2 L 815.2 198.8 L 818.1 201.9 L 818.3 197.7 M 812.1 193.2 L 816.2 196.4 L 816.3 191.9 M 812.1 193.2 L 818.4 193.4 M 732.7 215.0 L 733.4 215.0 L 734.6 214.6 L 732.0 220.3 M 737.4 215.6 L 736.4 215.5 L 735.5 216.1 L 734.6 217.3 L 734.2 218.1 L 733.9 219.6 L 734.1 220.7 L 734.8 221.3 L 735.3 221.6 L 736.3 221.7 L 737.2 221.1 L 738.1 219.8 L 738.4 219.0 L 738.8 217.5 L 738.6 216.5 L 737.9 215.8 L 737.5 215.6 M 795.4 184.7 L 794.8 184.9 L 793.8 185.8 L 794.4 179.5 M 791.1 185.7 L 792.1 185.5 L 792.4 184.9 L 792.5 184.3 L 792.2 183.7 L 791.7 183.3 L 790.5 182.9 L 789.6 182.5 L 789.1 181.9 L 788.9 181.3 L 789.0 180.4 L 789.3 179.8 L 789.6 179.5 L 790.6 179.3 L 791.8 179.4 L 792.6 179.8 L 792.9 180.2 L 793.1 180.8 L 793.0 181.7 L 792.7 182.2 L 792.0 182.8 L 791.1 183.0 L 789.9 183.2 L 789.3 183.4 L 788.9 184.0 L 788.8 184.6 L 789.1 185.2 L 789.9 185.6 L 791.3 185.7 M 804.9 273.6 L 802.3 275.1 L 803.4 277.6 L 803.5 277.2 L 804.1 276.5 L 804.9 276.0 L 805.9 275.8 L 806.7 276.1 L 807.4 276.7 L 807.7 277.2 L 807.9 278.1 L 807.6 279.0 L 807.0 279.7 L 806.2 280.1 L 805.3 280.3 L 804.9 280.2 L 804.3 279.8 M 807.6 273.8 L 807.5 273.5 L 807.5 272.9 L 807.6 272.4 L 807.9 271.9 L 809.0 271.3 L 809.7 271.3 L 810.1 271.4 L 810.6 271.7 L 810.9 272.3 L 811.0 272.9 L 810.9 274.0 L 809.8 278.1 L 813.4 276.0 M 837.9 201.0 L 839.9 203.2 L 842.1 201.7 L 841.7 201.7 L 840.8 201.2 L 840.2 200.5 L 839.9 199.6 L 839.9 198.8 L 840.4 198.0 L 840.9 197.6 L 841.7 197.2 L 842.6 197.3 L 843.4 197.7 L 844.0 198.4 L 844.4 199.3 L 844.3 199.7 L 844.1 200.3 M 837.8 198.8 L 837.2 198.6 L 835.9 198.5 L 840.7 194.3 M 834.8 196.4 L 835.0 196.6 L 835.5 197.1 L 835.6 197.5 L 835.6 198.1 L 835.1 199.2 L 834.6 199.7 L 834.2 199.8 L 833.5 199.8 L 833.0 199.6 L 832.6 199.0 L 832.0 198.1 L 830.5 194.1 L 828.8 198.0 M 832.8 204.5 L 830.2 200.0 L 828.3 204.1 M 832.8 204.5 L 827.0 201.9 M 847.3 262.2 L 847.1 263.1 L 846.5 263.7 L 845.6 264.1 L 845.3 264.1 L 844.4 263.9 L 843.8 263.3 L 843.4 262.4 L 843.4 262.1 L 843.6 261.2 L 844.2 260.6 L 845.1 260.2 L 845.4 260.2 L 846.3 260.4 L 846.9 261.0 L 847.3 262.2 L 847.4 263.7 L 847.2 265.2 L 846.7 266.1 L 845.8 266.5 L 845.2 266.5 L 844.3 266.3 L 843.9 265.7 M 851.9 259.8 L 848.9 260.0 L 848.8 262.7 L 849.1 262.4 L 849.9 262.0 L 850.8 261.9 L 851.7 262.2 L 852.4 262.7 L 852.7 263.6 L 852.8 264.2 L 852.5 265.1 L 852.0 265.8 L 851.1 266.1 L 850.2 266.2 L 849.3 265.9 L 849.0 265.7 L 848.6 265.1 M 871.0 254.5 L 871.5 255.3 L 871.6 256.1 L 871.3 257.0 L 871.1 257.2 L 870.3 257.7 L 869.4 257.8 L 868.5 257.5 L 868.3 257.3 L 867.8 256.5 L 867.7 255.7 L 868.0 254.8 L 868.2 254.6 L 869.0 254.0 L 869.9 254.0 L 871.0 254.5 L 872.2 255.4 L 873.1 256.6 L 873.5 257.6 L 873.1 258.5 L 872.8 259.0 L 872.0 259.5 L 871.3 259.3 M 873.0 250.0 L 872.4 249.9 L 871.6 250.4 L 871.2 250.9 L 870.9 251.7 L 871.2 252.8 L 872.2 253.9 L 873.3 254.9 L 874.5 255.4 L 875.3 255.3 L 876.1 254.8 L 876.3 254.6 L 876.6 253.7 L 876.5 252.8 L 876.0 252.0 L 875.8 251.8 L 874.9 251.5 L 874.1 251.6 L 873.3 252.1 L 873.1 252.4 L 872.7 253.2 L 872.8 254.1 L 873.3 254.9 M 871.3 220.6 L 875.9 222.9 L 875.2 218.4 M 871.3 220.6 L 877.5 219.6 M 871.2 214.2 L 870.7 214.6 L 870.5 215.6 L 870.6 216.2 L 871.1 217.0 L 872.0 217.5 L 873.6 217.5 L 875.1 217.3 L 876.2 216.8 L 876.7 216.1 L 876.9 215.2 L 876.8 214.9 L 876.4 214.1 L 875.7 213.6 L 874.8 213.4 L 874.5 213.4 L 873.6 213.9 L 873.1 214.6 L 873.0 215.5 L 873.0 215.8 L 873.4 216.6 L 874.1 217.1 L 875.1 217.3 M 870.2 200.4 L 872.4 198.4 L 870.8 196.2 L 870.8 196.6 L 870.3 197.4 L 869.7 198.0 L 868.8 198.4 L 868.0 198.4 L 867.1 197.9 L 866.7 197.5 L 866.3 196.6 L 866.4 195.8 L 866.8 195.0 L 867.5 194.3 L 868.4 194.0 L 868.8 194.0 L 869.4 194.2 M 868.0 200.5 L 867.8 201.1 L 867.8 202.4 L 863.5 197.8 M 643.3 634.1 L 637.3 630.5 M 643.7 629.9 L 643.3 634.1 M 642.8 639.3 L 636.8 635.6 M 643.2 635.1 L 642.8 639.3 M 673.7 675.4 L 673.8 682.4 M 669.9 677.3 L 673.7 675.4 M 677.9 673.3 L 675.2 674.7 L 676.2 677.2 L 676.3 676.8 L 677.0 676.1 L 677.8 675.7 L 678.7 675.6 L 679.5 675.9 L 680.2 676.5 L 680.5 677.1 L 680.6 678.0 L 680.3 678.8 L 679.7 679.5 L 678.8 679.9 L 677.9 680.0 L 677.5 679.9 L 677.0 679.5 M 649.5 672.0 L 642.5 672.6 M 647.3 668.4 L 649.5 672.0 M 651.1 676.6 L 651.5 676.0 L 651.3 675.1 L 651.0 674.5 L 650.3 673.9 L 649.2 673.9 L 647.7 674.4 L 646.5 675.1 L 645.6 676.0 L 645.4 676.8 L 645.6 677.8 L 645.7 678.0 L 646.4 678.6 L 647.3 678.8 L 648.2 678.6 L 648.4 678.5 L 649.1 677.8 L 649.3 677.0 L 649.1 676.0 L 648.9 675.8 L 648.2 675.1 L 647.4 674.9 L 646.5 675.1 M 695.4 181.5 L 694.5 181.8 L 693.7 181.6 L 692.9 181.0 L 692.8 180.8 L 692.5 179.8 L 692.7 179.0 L 693.3 178.3 L 693.5 178.1 L 694.4 177.8 L 695.3 178.0 L 696.0 178.6 L 696.2 178.8 L 696.4 179.8 L 696.3 180.6 L 695.4 181.5 L 694.2 182.3 L 692.8 182.9 L 691.7 182.9 L 690.9 182.3 L 690.6 181.8 L 690.4 180.9 L 690.7 180.3 M 745.1 166.4 L 744.5 166.2 L 743.2 166.3 L 747.6 161.7 M 739.3 162.8 L 745.9 160.3 M 742.4 165.7 L 739.3 162.8 M 707.7 129.3 L 707.0 129.0 L 705.8 129.0 L 710.3 124.6 M 702.3 125.8 L 704.4 127.9 L 706.5 126.3 L 706.1 126.3 L 705.3 125.8 L 704.6 125.2 L 704.2 124.3 L 704.2 123.5 L 704.7 122.6 L 705.1 122.2 L 705.9 121.8 L 706.8 121.8 L 707.6 122.2 L 708.3 122.9 L 708.7 123.7 L 708.7 124.2 L 708.5 124.8 M 649.7 119.8 L 643.0 121.8 M 646.9 116.7 L 649.7 119.8 M 609.4 51.8 L 612.4 51.9 L 612.7 49.2 L 612.4 49.5 L 611.5 49.7 L 610.6 49.7 L 609.7 49.4 L 609.1 48.8 L 608.8 47.9 L 608.8 47.3 L 609.1 46.4 L 609.7 45.8 L 610.6 45.5 L 611.5 45.5 L 612.4 45.9 L 612.7 46.2 L 613.0 46.8 M 577.7 87.2 L 577.2 90.4 L 575.1 88.3 L 575.0 89.2 L 574.6 89.8 L 574.3 90.0 L 573.3 90.2 L 572.7 90.1 L 571.9 89.7 L 571.4 89.0 L 571.2 88.1 L 571.3 87.2 L 571.8 86.3 L 572.1 86.1 L 572.7 85.9 M 583.2 137.6 L 585.8 139.6 L 582.9 140.4 L 583.6 140.9 L 583.9 141.5 L 584.0 142.0 L 583.6 142.8 L 583.3 143.3 L 582.5 143.9 L 581.7 144.0 L 580.8 143.7 L 580.0 143.1 L 579.5 142.3 L 579.5 141.9 L 579.6 141.2 M 589.2 143.4 L 589.4 142.7 L 588.8 141.9 L 588.4 141.6 L 587.5 141.2 L 586.4 141.6 L 585.3 142.6 L 584.4 143.8 L 583.9 144.9 L 584.0 145.8 L 584.5 146.5 L 584.8 146.7 L 585.7 147.0 L 586.5 146.9 L 587.3 146.4 L 587.5 146.2 L 587.8 145.3 L 587.7 144.4 L 587.1 143.6 L 586.9 143.5 L 586.0 143.1 L 585.2 143.3 L 584.4 143.8 M 630.4 130.9 L 637.2 129.9 M 632.7 134.4 L 630.4 130.9 M 672.6 193.5 L 673.5 193.3 L 674.4 193.6 L 675.1 194.2 L 675.2 194.4 L 675.4 195.4 L 675.2 196.2 L 674.5 196.9 L 674.3 197.0 L 673.4 197.2 L 672.5 197.0 L 671.8 196.4 L 671.7 196.1 L 671.5 195.2 L 671.7 194.4 L 672.6 193.5 L 673.9 192.8 L 675.4 192.3 L 676.4 192.4 L 677.1 193.0 L 677.4 193.5 L 677.6 194.4 L 677.3 195.0 M 609.3 178.3 L 609.4 181.6 L 606.9 179.8 L 607.0 180.7 L 606.7 181.3 L 606.4 181.7 L 605.5 182.0 L 604.9 182.0 L 604.0 181.7 L 603.4 181.1 L 603.0 180.2 L 603.0 179.3 L 603.3 178.4 L 603.6 178.1 L 604.2 177.8 M 609.5 186.6 L 609.4 183.6 L 606.7 183.4 L 607.0 183.7 L 607.3 184.6 L 607.4 185.5 L 607.1 186.4 L 606.5 187.0 L 605.6 187.3 L 605.0 187.3 L 604.1 187.0 L 603.5 186.5 L 603.2 185.6 L 603.2 184.7 L 603.4 183.8 L 603.7 183.5 L 604.3 183.1 M 634.0 255.0 L 637.2 254.3 L 635.9 257.0 L 636.8 256.9 L 637.5 257.0 L 637.8 257.3 L 638.3 258.1 L 638.4 258.7 L 638.3 259.6 L 637.8 260.3 L 637.0 260.8 L 636.1 261.0 L 635.2 260.9 L 634.8 260.6 L 634.4 260.1 M 642.6 253.3 L 640.9 260.0 M 638.5 254.1 L 642.6 253.3 M 618.9 230.6 L 619.1 230.4 L 619.8 230.5 L 620.2 230.7 L 620.7 231.1 L 621.1 232.3 L 621.1 232.9 L 620.9 233.3 L 620.4 233.8 L 619.9 234.0 L 619.2 234.0 L 618.2 233.7 L 614.3 232.0 L 615.8 235.9 M 721.8 239.7 L 721.1 239.7 L 720.0 240.2 L 722.4 234.4 M 717.2 239.2 L 718.1 239.3 L 719.0 238.7 L 719.9 237.5 L 720.2 236.6 L 720.6 235.1 L 720.4 234.1 L 719.7 233.4 L 719.1 233.2 L 718.2 233.1 L 717.3 233.7 L 716.4 235.0 L 716.0 235.8 L 715.7 237.3 L 715.9 238.4 L 716.6 239.0 L 717.0 239.2 M 731.7 261.2 L 731.7 260.5 L 731.2 259.4 L 737.0 261.7 M 733.6 255.2 L 732.9 255.3 L 732.3 256.0 L 732.1 256.5 L 732.0 257.5 L 732.6 258.4 L 733.9 259.2 L 735.3 259.8 L 736.5 260.0 L 737.3 259.6 L 737.9 258.9 L 738.0 258.6 L 738.1 257.7 L 737.8 256.9 L 737.1 256.3 L 736.8 256.2 L 735.8 256.1 L 735.0 256.4 L 734.4 257.2 L 734.3 257.4 L 734.3 258.4 L 734.6 259.2 L 735.3 259.8 M 692.9 287.1 L 693.3 286.5 L 693.8 285.4 L 696.2 291.2 M 699.2 285.1 L 699.2 286.1 L 698.9 286.9 L 698.2 287.5 L 697.9 287.6 L 697.0 287.7 L 696.2 287.4 L 695.6 286.6 L 695.5 286.4 L 695.4 285.4 L 695.7 284.6 L 696.4 284.0 L 696.7 283.9 L 697.6 283.8 L 698.4 284.1 L 699.2 285.1 L 699.8 286.5 L 700.1 288.0 L 699.9 289.1 L 699.2 289.7 L 698.6 289.9 L 697.7 290.0 L 697.1 289.6 M 856.3 687.6 L 856.0 687.0 L 855.0 686.2 L 861.3 685.7 M 854.6 683.3 L 855.0 684.2 L 855.9 684.7 L 857.4 684.9 L 858.3 684.8 L 859.8 684.4 L 860.6 683.7 L 860.9 682.8 L 860.8 682.2 L 860.4 681.3 L 859.5 680.8 L 858.0 680.6 L 857.1 680.7 L 855.6 681.1 L 854.8 681.8 L 854.5 682.7 L 854.6 683.1 M 855.7 679.7 L 855.4 679.1 L 854.4 678.3 L 860.7 677.8 M 834.4 689.7 L 834.3 689.0 L 833.5 688.4 L 833.0 688.2 L 832.0 688.2 L 831.2 688.9 L 830.4 690.2 L 829.9 691.6 L 829.8 692.8 L 830.1 693.6 L 830.9 694.2 L 831.2 694.3 L 832.1 694.3 L 832.9 693.9 L 833.5 693.2 L 833.6 692.9 L 833.6 691.9 L 833.2 691.2 L 832.5 690.6 L 832.2 690.5 L 831.2 690.5 L 830.5 690.8 L 829.9 691.6 M 837.4 689.8 L 836.5 689.8 L 836.0 690.3 L 835.8 690.8 L 835.9 691.5 L 836.4 692.0 L 837.4 692.7 L 838.2 693.2 L 838.5 694.0 L 838.6 694.7 L 838.3 695.5 L 837.8 696.0 L 837.4 696.2 L 836.5 696.1 L 835.4 695.8 L 834.6 695.2 L 834.4 694.8 L 834.3 694.1 L 834.6 693.3 L 835.1 692.8 L 835.9 692.4 L 836.8 692.5 L 838.1 692.6 L 838.7 692.5 L 839.2 692.0 L 839.4 691.5 L 839.3 690.8 L 838.6 690.2 L 837.3 689.8 M 793.8 623.6 L 793.6 622.6 L 793.8 621.8 L 794.4 621.1 L 794.6 620.9 L 795.5 620.7 L 796.4 620.9 L 797.1 621.4 L 797.3 621.7 L 797.5 622.6 L 797.3 623.4 L 796.7 624.2 L 796.5 624.4 L 795.6 624.6 L 794.7 624.4 L 793.8 623.6 L 793.0 622.3 L 792.5 620.9 L 792.5 619.8 L 793.1 619.1 L 793.6 618.7 L 794.5 618.5 L 795.1 618.8 M 789.6 626.3 L 789.4 625.4 L 789.5 624.6 L 790.1 623.8 L 790.4 623.7 L 791.3 623.4 L 792.1 623.6 L 792.9 624.2 L 793.0 624.4 L 793.3 625.4 L 793.1 626.2 L 792.5 626.9 L 792.2 627.1 L 791.3 627.3 L 790.5 627.2 L 789.6 626.3 L 788.8 625.1 L 788.2 623.6 L 788.2 622.5 L 788.8 621.8 L 789.3 621.5 L 790.3 621.2 L 790.8 621.6 M 786.9 655.6 L 787.2 655.0 L 786.9 654.1 L 786.5 653.6 L 785.7 653.1 L 784.6 653.2 L 783.3 653.9 L 782.1 654.8 L 781.4 655.8 L 781.3 656.7 L 781.6 657.6 L 781.8 657.8 L 782.6 658.3 L 783.4 658.4 L 784.3 658.1 L 784.5 657.9 L 785.0 657.1 L 785.1 656.2 L 784.8 655.4 L 784.6 655.1 L 783.8 654.6 L 783.0 654.5 L 782.1 654.8 M 790.8 659.0 L 788.9 656.6 L 786.6 658.1 L 787.0 658.1 L 787.8 658.6 L 788.4 659.3 L 788.7 660.2 L 788.6 661.1 L 788.1 661.9 L 787.6 662.2 L 786.7 662.6 L 785.9 662.5 L 785.1 662.0 L 784.5 661.3 L 784.2 660.4 L 784.3 659.9 L 784.5 659.3 M 668.3 46.5 L 669.1 46.0 L 669.2 45.3 L 669.1 44.7 L 668.6 44.2 L 668.0 44.1 L 666.7 44.1 L 665.8 44.0 L 665.1 43.6 L 664.6 43.1 L 664.4 42.2 L 664.5 41.5 L 664.8 41.2 L 665.6 40.7 L 666.7 40.4 L 667.7 40.4 L 668.0 40.7 L 668.5 41.2 L 668.7 42.0 L 668.5 42.7 L 668.1 43.4 L 667.3 43.9 L 666.2 44.5 L 665.7 45.0 L 665.6 45.6 L 665.7 46.2 L 666.2 46.7 L 667.1 46.8 L 668.4 46.5 M 661.5 48.3 L 663.4 43.5 L 659.0 44.6 M 661.5 48.3 L 660.0 42.2 M 697.7 55.9 L 697.5 56.1 L 696.9 56.5 L 696.5 56.5 L 695.8 56.4 L 694.8 55.8 L 694.5 55.2 L 694.4 54.8 L 694.5 54.1 L 694.9 53.6 L 695.5 53.3 L 696.5 52.9 L 700.7 52.1 L 697.2 49.7 M 691.2 53.2 L 692.1 53.5 L 693.1 53.1 L 694.2 52.0 L 694.7 51.3 L 695.3 49.9 L 695.3 48.8 L 694.8 48.0 L 694.3 47.7 L 693.4 47.4 L 692.4 47.8 L 691.3 48.9 L 690.8 49.6 L 690.1 51.0 L 690.1 52.1 L 690.7 52.9 L 691.1 53.1 M 693.3 78.8 L 693.0 79.7 L 693.4 80.3 L 693.9 80.6 L 694.5 80.7 L 695.1 80.3 L 696.0 79.5 L 696.8 78.9 L 697.6 78.7 L 698.3 78.8 L 699.0 79.3 L 699.4 79.9 L 699.5 80.3 L 699.2 81.2 L 698.6 82.2 L 697.8 82.8 L 697.4 82.9 L 696.7 82.8 L 696.0 82.3 L 695.6 81.7 L 695.5 80.9 L 695.7 80.0 L 696.1 78.8 L 696.2 78.2 L 695.8 77.6 L 695.3 77.2 L 694.7 77.2 L 693.9 77.8 L 693.2 78.9 M 697.3 72.5 L 695.7 75.0 L 697.8 76.8 L 697.7 76.4 L 698.0 75.4 L 698.5 74.7 L 699.2 74.1 L 700.0 73.9 L 700.9 74.2 L 701.4 74.5 L 702.0 75.2 L 702.2 76.1 L 702.0 77.0 L 701.5 77.7 L 700.7 78.3 L 700.3 78.4 L 699.6 78.3 M 722.8 363.8 L 718.9 367.2 L 723.3 368.3 M 722.8 363.8 L 721.3 370.0 M 726.8 364.8 L 725.9 364.9 L 725.4 365.4 L 725.3 366.0 L 725.4 366.7 L 726.0 367.1 L 727.1 367.7 L 727.9 368.2 L 728.3 368.9 L 728.5 369.5 L 728.3 370.4 L 727.8 370.9 L 727.5 371.2 L 726.5 371.2 L 725.4 371.0 L 724.6 370.5 L 724.3 370.1 L 724.2 369.5 L 724.4 368.6 L 724.8 368.1 L 725.5 367.6 L 726.5 367.5 L 727.7 367.5 L 728.4 367.4 L 728.8 366.8 L 728.9 366.3 L 728.8 365.6 L 728.0 365.1 L 726.7 364.8 M 709.7 335.4 L 709.1 335.5 L 707.9 336.1 L 709.9 330.1 M 703.8 335.0 L 708.0 332.0 L 703.7 330.5 M 703.8 335.0 L 705.8 329.0 M 660.4 321.9 L 659.7 322.1 L 658.7 322.8 L 659.9 316.6 M 656.9 322.7 L 653.7 322.1 L 655.9 320.1 L 655.0 319.9 L 654.5 319.5 L 654.2 319.1 L 654.1 318.2 L 654.2 317.6 L 654.7 316.8 L 655.4 316.3 L 656.3 316.2 L 657.2 316.4 L 658.1 316.8 L 658.3 317.2 L 658.5 317.8 M 600.5 308.9 L 600.4 309.2 L 600.0 309.7 L 599.6 309.9 L 598.9 310.1 L 597.8 309.8 L 597.3 309.3 L 597.0 309.0 L 596.9 308.3 L 597.0 307.7 L 597.5 307.2 L 598.3 306.5 L 601.9 304.3 L 597.8 303.3 M 570.5 330.8 L 570.7 331.4 L 571.5 332.5 L 565.3 331.6 M 586.2 369.7 L 585.2 369.6 L 584.7 370.1 L 584.5 370.7 L 584.6 371.3 L 585.0 371.8 L 586.1 372.5 L 586.8 373.1 L 587.1 373.9 L 587.2 374.6 L 586.9 375.4 L 586.4 375.9 L 586.0 376.0 L 585.1 376.0 L 583.9 375.6 L 583.2 375.0 L 583.0 374.6 L 583.0 373.9 L 583.3 373.1 L 583.8 372.6 L 584.6 372.3 L 585.5 372.3 L 586.7 372.5 L 587.4 372.4 L 587.9 371.9 L 588.1 371.4 L 588.0 370.7 L 587.3 370.1 L 586.0 369.6 M 590.3 371.3 L 593.4 372.4 L 590.9 374.0 L 591.7 374.4 L 592.2 374.9 L 592.3 375.2 L 592.3 376.2 L 592.1 376.8 L 591.5 377.5 L 590.7 377.8 L 589.8 377.8 L 588.9 377.5 L 588.2 376.9 L 588.0 376.5 L 587.9 375.8 M 658.0 405.5 L 653.3 407.6 L 657.2 409.9 M 658.0 405.5 L 654.8 410.9 M 663.8 409.0 L 658.0 412.9 M 660.2 406.9 L 663.8 409.0 M 716.0 392.6 L 720.8 390.6 L 717.0 388.2 M 716.0 392.6 L 719.4 387.2 M 712.5 390.3 L 713.5 390.5 L 714.0 390.2 L 714.4 389.6 L 714.4 389.0 L 714.1 388.4 L 713.2 387.5 L 712.6 386.8 L 712.5 385.9 L 712.5 385.3 L 713.0 384.5 L 713.6 384.2 L 714.0 384.1 L 714.9 384.3 L 715.9 385.0 L 716.5 385.7 L 716.6 386.1 L 716.5 386.8 L 716.1 387.5 L 715.5 387.9 L 714.7 388.1 L 713.7 387.8 L 712.6 387.4 L 711.9 387.4 L 711.3 387.7 L 711.0 388.2 L 710.9 388.9 L 711.5 389.6 L 712.7 390.3 M 717.2 415.9 L 716.9 421.0 L 720.7 418.6 M 717.2 415.9 L 720.5 421.2 M 723.8 414.2 L 724.1 415.1 L 723.9 415.9 L 723.3 416.6 L 723.0 416.8 L 722.1 417.0 L 721.3 416.9 L 720.6 416.3 L 720.4 416.0 L 720.2 415.1 L 720.3 414.3 L 720.9 413.5 L 721.2 413.4 L 722.1 413.1 L 722.9 413.3 L 723.8 414.2 L 724.6 415.4 L 725.2 416.9 L 725.2 417.9 L 724.6 418.7 L 724.1 419.0 L 723.2 419.2 L 722.6 418.9 M 647.7 280.2 L 648.3 280.3 L 649.6 280.3 L 645.3 284.9 M 651.0 281.3 L 653.4 283.6 L 650.5 284.1 L 651.2 284.7 L 651.4 285.3 L 651.4 285.8 L 651.0 286.6 L 650.6 287.1 L 649.8 287.5 L 648.9 287.6 L 648.1 287.2 L 647.4 286.5 L 646.9 285.7 L 646.9 285.3 L 647.1 284.6 M 647.8 270.6 L 644.7 271.7 L 645.6 268.8 L 644.7 269.1 L 644.1 269.1 L 643.7 268.9 L 643.1 268.1 L 642.9 267.6 L 642.9 266.6 L 643.2 265.8 L 644.0 265.3 L 644.8 265.0 L 645.8 264.9 L 646.2 265.1 L 646.7 265.6 M 639.5 273.5 L 640.2 266.6 M 643.5 272.1 L 639.5 273.5"
       id="nums_002"
       stroke="black"
       stroke-width="1" />
    <path
       d="m 625,265.2 -23.3,-60.4 -1,-43.4 -37.8,-29 12.7,-89 69.7,0.4 34.3,-8.7 35.8,24.9 -26.4,40.4 41.7,42.6 32.9,31.7 57.2,5.7 -1.1,32.6 13.7,-29.7 19.3,22.1 21.5,-19.9 9.8,62.7 -15.1,18.7 -40.1,2.6 -36.6,20.8 39.1,-15.6 -30.3,51.6 38,-46.2 38,12.9 19.3,-14.4 -5.2,-63.2 50.9,26.9 31.1,33.3 48.9,34.2 -7.4,47.7 -39,-13.1 -40,-39.7 -11.4,66.9 -61.5,-13 -40.7,51.4 56.1,-33.8 55,30.6 23.5,-63.7 47.6,30 26.2,7.5 5.1,46.9 -30.4,22.8 -38.7,34.1 -55.8,33.1 -13.2,-45.6 -40.1,-16.7 -51.4,64.3 72.7,-38.5 24.5,35.8 -18.3,43.9 61.3,21.2 49.6,13.9 37.7,-4.7 -5.8,47.9 -41.4,35.2 -60.6,-33.4 49,49 -86.8,11.3 -27.3,-48.2 4.3,55.3 -63,-22.2 -39.4,-49.4 54.5,-35.3 -62.4,18 11.7,62.1 -62.9,-11.4 -49.9,24.7 -21,-35.3 5.1,-50.3 -54.5,-13 15.6,-94.4 51.6,-30.7 91.1,-29.6 18.9,-60.2 -73.8,-17.4 63.9,40.8 -53.2,33.9 -82.3,-49.1 -56.2,-21.4 9.9,-73.8 63,15.2 52.7,10.1 47.6,16.3 -44.4,-23.6 58.8,-42.7 12.7,-35.3 -50.9,-22.7 -37.1,-55.7 -56.8,-63.3 48,70.2 33.2,58.1 51.2,22.1 -14.1,34.8 -66.8,28.4 -39.4,-36.6 29,-10.3 z"
       id="coupes_002"
       stroke="#ff0000"
       stroke-width="1.27"
       sodipodi:nodetypes="ccccccccccccccccccccccccccccccccccccccccccccccccccccccccccccccccccccccccccccccccccccccccccccccccc" />
    <path
       d="M 650.2 471.0 L 754.5 619.3 M 754.5 619.3 L 637.5 609.1 M 637.5 609.1 L 650.2 471.0 M 741.3 441.4 L 754.5 619.3 M 741.3 441.4 L 805.9 519.5 M 805.9 519.5 L 754.5 619.3 M 805.9 519.5 L 816.9 601.3 M 637.5 609.1 L 598.6 501.7 M 805.9 519.5 L 884.8 560.7 M 884.8 560.7 L 816.9 601.3 M 878.6 481.0 L 884.8 560.7 M 822.0 410.0 L 805.9 519.5 M 760.2 381.2 L 822.0 410.0 M 822.0 410.0 L 857.3 455.2 M 878.1 376.2 L 897.4 471.9 M 966.4 484.4 L 897.4 471.9 M 933.1 406.8 L 966.4 484.4 M 933.1 406.8 L 1005.1 450.3 M 801.0 326.3 L 822.0 410.0 M 760.2 381.2 L 801.0 326.3 M 839.0 280.1 L 822.0 410.0 M 839.0 280.1 L 862.7 358.6 M 877.0 293.0 L 862.7 358.6 M 877.0 293.0 L 924.2 371.6 M 896.3 278.6 L 935.6 304.7 M 942.0 242.3 L 935.6 304.7 M 754.5 619.3 L 703.3 670.0 M 703.3 670.0 L 637.5 609.1 M 884.8 560.7 L 860.5 652.9 M 860.5 652.9 L 816.9 601.3 M 884.8 560.7 L 925.6 640.8 M 925.6 640.8 L 860.5 652.9 M 925.6 640.8 L 887.8 701.1 M 946.1 581.9 L 925.6 640.8 M 973.1 275.6 L 975.6 344.4 M 995.7 595.8 L 925.6 640.8 M 995.7 595.8 L 1027.6 639.0 M 731.8 335.8 L 801.0 326.3 M 760.2 381.2 L 731.8 335.8 M 792.2 290.3 L 801.0 326.3 M 731.8 335.8 L 792.2 290.3 M 746.2 269.5 L 792.2 290.3 M 731.8 335.8 L 746.2 269.5 M 819.7 213.0 L 792.2 290.3 M 746.2 269.5 L 819.7 213.0 M 758.9 234.2 L 819.7 213.0 M 758.9 234.2 L 820.8 180.4 M 708.0 211.5 L 820.8 180.4 M 819.7 213.0 L 828.8 269.5 M 852.7 205.4 L 828.8 269.5 M 819.7 213.0 L 852.7 205.4 M 852.7 205.4 L 868.9 266.9 M 852.7 205.4 L 884.0 248.2 M 703.3 670.0 L 632.4 659.4 M 670.9 155.8 L 763.6 174.7 M 614.1 92.5 L 689.0 100.4 M 614.1 92.5 L 645.3 43.8 M 614.1 92.5 L 575.6 43.4 M 614.1 92.5 L 562.9 132.4 M 614.1 92.5 L 600.7 161.4 M 695.3 220.8 L 600.7 161.4 M 655.2 259.2 L 601.7 204.8 M 746.5 242.9 L 655.2 259.2 M 732.4 277.7 L 655.2 259.2 M 665.6 306.1 L 655.2 259.2 M 860.5 652.9 L 801.8 686.0 M 801.8 686.0 L 816.9 601.3 M 679.6 35.1 L 689.0 100.4 M 686.4 363.8 L 731.8 335.8 M 686.4 363.8 L 684.2 319.5 M 686.4 363.8 L 631.5 309.4 M 686.4 363.8 L 558.6 368.0 M 558.6 368.0 L 631.5 309.4 M 686.4 363.8 L 614.8 389.4 M 686.4 363.8 L 697.1 438.5"
       id="plisM_002"
       stroke="brown"
       stroke-dasharray="4" />
    <path
       d="M 700.3 543.2 L 704.3 547.2 M 704.3 543.2 L 700.3 547.2 M 694.0 612.2 L 698.0 616.2 M 698.0 612.2 L 694.0 616.2 M 641.9 538.0 L 645.9 542.0 M 645.9 538.0 L 641.9 542.0 M 745.9 528.3 L 749.9 532.3 M 749.9 528.3 L 745.9 532.3 M 771.6 478.4 L 775.6 482.4 M 775.6 478.4 L 771.6 482.4 M 778.2 567.4 L 782.2 571.4 M 782.2 567.4 L 778.2 571.4 M 809.4 558.4 L 813.4 562.4 M 813.4 558.4 L 809.4 562.4 M 616.0 553.4 L 620.0 557.4 M 620.0 553.4 L 616.0 557.4 M 843.3 538.1 L 847.3 542.1 M 847.3 538.1 L 843.3 542.1 M 848.8 579.0 L 852.8 583.0 M 852.8 579.0 L 848.8 583.0 M 879.7 518.8 L 883.7 522.8 M 883.7 518.8 L 879.7 522.8 M 812.0 462.7 L 816.0 466.7 M 816.0 462.7 L 812.0 466.7 M 789.1 393.6 L 793.1 397.6 M 793.1 393.6 L 789.1 397.6 M 837.6 430.6 L 841.6 434.6 M 841.6 430.6 L 837.6 434.6 M 885.8 422.0 L 889.8 426.0 M 889.8 422.0 L 885.8 426.0 M 929.9 476.1 L 933.9 480.1 M 933.9 476.1 L 929.9 480.1 M 947.7 443.6 L 951.7 447.6 M 951.7 443.6 L 947.7 447.6 M 967.1 426.6 L 971.1 430.6 M 971.1 426.6 L 967.1 430.6 M 809.5 366.2 L 813.5 370.2 M 813.5 366.2 L 809.5 370.2 M 778.6 351.7 L 782.6 355.7 M 782.6 351.7 L 778.6 355.7 M 828.5 343.0 L 832.5 347.0 M 832.5 343.0 L 828.5 347.0 M 848.8 317.3 L 852.8 321.3 M 852.8 317.3 L 848.8 321.3 M 867.8 323.8 L 871.8 327.8 M 871.8 323.8 L 867.8 327.8 M 898.6 330.3 L 902.6 334.3 M 902.6 330.3 L 898.6 334.3 M 913.9 289.6 L 917.9 293.6 M 917.9 289.6 L 913.9 293.6 M 936.8 271.5 L 940.8 275.5 M 940.8 271.5 L 936.8 275.5 M 726.9 642.6 L 730.9 646.6 M 730.9 642.6 L 726.9 646.6 M 668.4 637.5 L 672.4 641.5 M 672.4 637.5 L 668.4 641.5 M 870.6 604.8 L 874.6 608.8 M 874.6 604.8 L 870.6 608.8 M 836.7 625.1 L 840.7 629.1 M 840.7 625.1 L 836.7 629.1 M 903.2 598.7 L 907.2 602.7 M 907.2 598.7 L 903.2 602.7 M 891.0 644.8 L 895.0 648.8 M 895.0 644.8 L 891.0 648.8 M 904.7 669.0 L 908.7 673.0 M 908.7 669.0 L 904.7 673.0 M 933.8 609.4 L 937.8 613.4 M 937.8 609.4 L 933.8 613.4 M 972.4 308.0 L 976.4 312.0 M 976.4 308.0 L 972.4 312.0 M 958.6 616.3 L 962.6 620.3 M 962.6 616.3 L 958.6 620.3 M 1009.6 615.4 L 1013.6 619.4 M 1013.6 615.4 L 1009.6 619.4 M 764.4 329.0 L 768.4 333.0 M 768.4 329.0 L 764.4 333.0 M 744.0 356.5 L 748.0 360.5 M 748.0 356.5 L 744.0 360.5 M 794.6 306.3 L 798.6 310.3 M 798.6 306.3 L 794.6 310.3 M 760.0 311.0 L 764.0 315.0 M 764.0 311.0 L 760.0 315.0 M 767.2 277.9 L 771.2 281.9 M 771.2 277.9 L 767.2 281.9 M 737.0 300.6 L 741.0 304.6 M 741.0 300.6 L 737.0 304.6 M 803.9 249.7 L 807.9 253.7 M 807.9 249.7 L 803.9 253.7 M 780.9 239.3 L 784.9 243.3 M 784.9 239.3 L 780.9 243.3 M 787.3 221.6 L 791.3 225.6 M 791.3 221.6 L 787.3 225.6 M 787.9 205.3 L 791.9 209.3 M 791.9 205.3 L 787.9 209.3 M 762.4 193.9 L 766.4 197.9 M 766.4 193.9 L 762.4 197.9 M 822.3 239.3 L 826.3 243.3 M 826.3 239.3 L 822.3 243.3 M 838.8 235.4 L 842.8 239.4 M 842.8 235.4 L 838.8 239.4 M 834.2 207.2 L 838.2 211.2 M 838.2 207.2 L 834.2 211.2 M 858.8 234.1 L 862.8 238.1 M 862.8 234.1 L 858.8 238.1 M 866.3 224.8 L 870.3 228.8 M 870.3 224.8 L 866.3 228.8 M 665.9 662.7 L 669.9 666.7 M 669.9 662.7 L 665.9 666.7 M 715.3 163.2 L 719.3 167.2 M 719.3 163.2 L 715.3 167.2 M 649.5 94.4 L 653.5 98.4 M 653.5 94.4 L 649.5 98.4 M 627.7 66.1 L 631.7 70.1 M 631.7 66.1 L 627.7 70.1 M 592.8 65.9 L 596.8 69.9 M 596.8 65.9 L 592.8 69.9 M 586.5 110.5 L 590.5 114.5 M 590.5 110.5 L 586.5 114.5 M 605.4 124.9 L 609.4 128.9 M 609.4 124.9 L 605.4 128.9 M 646.0 189.1 L 650.0 193.1 M 650.0 189.1 L 646.0 193.1 M 626.4 230.0 L 630.4 234.0 M 630.4 230.0 L 626.4 234.0 M 698.9 249.1 L 702.9 253.1 M 702.9 249.1 L 698.9 253.1 M 691.8 266.4 L 695.8 270.4 M 695.8 266.4 L 691.8 270.4 M 658.4 280.6 L 662.4 284.6 M 662.4 280.6 L 658.4 284.6 M 829.1 667.4 L 833.1 671.4 M 833.1 667.4 L 829.1 671.4 M 807.4 641.7 L 811.4 645.7 M 811.4 641.7 L 807.4 645.7 M 682.3 65.8 L 686.3 69.8 M 686.3 65.8 L 682.3 69.8 M 707.1 347.8 L 711.1 351.8 M 711.1 347.8 L 707.1 351.8 M 683.3 339.7 L 687.3 343.7 M 687.3 339.7 L 683.3 343.7 M 656.9 334.6 L 660.9 338.6 M 660.9 334.6 L 656.9 338.6 M 620.5 363.9 L 624.5 367.9 M 624.5 363.9 L 620.5 367.9 M 593.0 336.7 L 597.0 340.7 M 597.0 336.7 L 593.0 340.7 M 648.6 374.6 L 652.6 378.6 M 652.6 374.6 L 648.6 378.6 M 689.8 399.1 L 693.8 403.1 M 693.8 399.1 L 689.8 403.1"
       display="none"
       id="marqueM_002"
       stroke="brown" />
    <path
       d="M 741.3 441.4 L 822.0 410.0 M 822.0 410.0 L 897.4 471.9 M 933.1 406.8 L 897.4 471.9 M 933.1 406.8 L 1004.2 373.1 M 1004.2 373.1 L 1005.1 450.3 M 877.0 293.0 L 935.6 304.7 M 896.3 278.6 L 942.0 242.3 M 973.1 275.6 L 935.6 304.7 M 1022.0 309.8 L 975.6 344.4 M 1030.4 380.6 L 1005.1 450.3 M 995.7 595.8 L 986.2 674.2 M 708.0 211.5 L 763.6 174.7 M 670.9 155.8 L 730.7 143.0 M 670.9 155.8 L 689.0 100.4 M 645.3 43.8 L 689.0 100.4 M 662.1 162.7 L 600.7 161.4 M 695.3 220.8 L 655.2 259.2 M 655.2 259.2 L 600.7 161.4"
       id="plisV_002"
       stroke="green"
       stroke-dasharray="4 1 1 1"
       stroke-width="1.27" />
    <path
       d="M 779.7 423.7 L 783.7 427.7 M 783.7 423.7 L 779.7 427.7 M 857.7 438.9 L 861.7 442.9 M 861.7 438.9 L 857.7 442.9 M 913.2 437.3 L 917.2 441.3 M 917.2 437.3 L 913.2 441.3 M 966.6 388.0 L 970.6 392.0 M 970.6 388.0 L 966.6 392.0 M 1002.6 409.7 L 1006.6 413.7 M 1006.6 409.7 L 1002.6 413.7 M 904.3 296.9 L 908.3 300.9 M 908.3 296.9 L 904.3 300.9 M 917.1 258.4 L 921.1 262.4 M 921.1 258.4 L 917.1 262.4 M 952.4 288.1 L 956.4 292.1 M 956.4 288.1 L 952.4 292.1 M 996.8 325.1 L 1000.8 329.1 M 1000.8 325.1 L 996.8 329.1 M 1015.7 413.5 L 1019.7 417.5 M 1019.7 413.5 L 1015.7 417.5 M 989.0 633.0 L 993.0 637.0 M 993.0 633.0 L 989.0 637.0 M 733.8 191.1 L 737.8 195.1 M 737.8 191.1 L 733.8 195.1 M 698.8 147.4 L 702.8 151.4 M 702.8 147.4 L 698.8 151.4 M 678.0 126.1 L 682.0 130.1 M 682.0 126.1 L 678.0 130.1 M 665.2 70.1 L 669.2 74.1 M 669.2 70.1 L 665.2 74.1 M 629.4 160.1 L 633.4 164.1 M 633.4 160.1 L 629.4 164.1 M 673.3 238.0 L 677.3 242.0 M 677.3 238.0 L 673.3 242.0 M 625.9 208.3 L 629.9 212.3 M 629.9 208.3 L 625.9 212.3"
       id="marqueV_002"
       stroke="green" />
    <path
       d="M 789.9 363.9 L 789.9 363.1 L 790.6 361.6 L 791.4 360.9 L 792.9 360.1 L 795.9 360.1 L 797.4 360.9 L 798.1 361.6 L 798.9 363.1 L 798.9 364.6 L 798.1 366.1 L 796.6 368.4 L 789.1 375.9 L 799.6 375.9"
       id="titre_2"
       stroke="indigo" />
  </g>
</svg>
