<?xml version="1.0" encoding="UTF-8" standalone="no"?>
<svg
   height="841.88977pt"
   viewBox="0 0 532.99998 754.00001"
   width="595.27557pt"
   version="1.1"
   id="svg1"
   sodipodi:docname="Canard200_H15_A4x2.svg"
   inkscape:version="1.3 (0e150ed6c4, 2023-07-21)"
   xmlns:inkscape="http://www.inkscape.org/namespaces/inkscape"
   xmlns:sodipodi="http://sodipodi.sourceforge.net/DTD/sodipodi-0.dtd"
   xmlns="http://www.w3.org/2000/svg"
   xmlns:svg="http://www.w3.org/2000/svg">
  <defs
     id="defs1" />
  <sodipodi:namedview
     id="namedview1"
     pagecolor="#ffffff"
     bordercolor="#000000"
     borderopacity="0.25"
     inkscape:showpageshadow="2"
     inkscape:pageopacity="0.0"
     inkscape:pagecheckerboard="0"
     inkscape:deskcolor="#d1d1d1"
     inkscape:document-units="mm"
     showgrid="false"
     inkscape:zoom="0.19197882"
     inkscape:cx="1205.8622"
     inkscape:cy="877.70099"
     inkscape:window-width="1920"
     inkscape:window-height="1057"
     inkscape:window-x="-8"
     inkscape:window-y="-8"
     inkscape:window-maximized="1"
     inkscape:current-layer="svg1" />
  <style
     type="text/css"
     id="style1"><![CDATA[
			path {
				fill: none;
			}
		]]></style>
  <g
     id="page_001">
    <path
       id="nums_001"
       d="m 319.3,177.2 0.8,-0.5 0.2,-0.7 -0.2,-0.6 -0.4,-0.5 -0.7,-0.1 h -1.2 -1 l -0.7,-0.5 -0.4,-0.5 -0.3,-0.8 0.2,-0.7 0.2,-0.4 0.8,-0.5 1.1,-0.3 1,0.1 0.3,0.2 0.5,0.5 0.2,0.9 -0.1,0.6 -0.5,0.8 -0.7,0.5 -1.1,0.6 -0.5,0.4 -0.2,0.7 0.2,0.6 0.4,0.5 h 1 l 1.3,-0.3 m -49.1,8.5 -0.6,0.3 -0.8,1.1 -0.8,-6.3 m -1,5.2 v 0.3 l -0.2,0.7 -0.2,0.3 -0.6,0.4 -1.2,0.1 -0.6,-0.2 -0.3,-0.2 -0.4,-0.6 -0.1,-0.6 0.2,-0.6 0.5,-1 2.5,-3.4 -4.1,0.6 m 81.9,-44.8 0.3,0.6 0.9,0.9 -6.3,0.2 m 5.2,0.9 0.3,0.6 0.9,0.8 -6.3,0.3 m 67.3,9.5 h -0.3 l -0.7,-0.2 -0.3,-0.2 -0.4,-0.5 -0.3,-1.2 0.2,-0.7 0.3,-0.3 0.5,-0.4 0.6,-0.1 0.6,0.2 1,0.4 3.5,2.4 -0.8,-4.2 m -6.7,-1.7 0.5,0.8 1,0.5 h 1.5 l 0.9,-0.2 1.4,-0.6 0.8,-0.7 0.1,-1 -0.1,-0.5 -0.5,-0.9 -1,-0.4 h -1.5 l -0.9,0.2 -1.4,0.5 -0.8,0.8 -0.1,0.9 0.1,0.5 m -203,94.8 0.2,-0.2 0.7,-0.1 0.4,0.1 0.6,0.4 0.7,0.9 v 0.7 0.4 l -0.4,0.6 -0.5,0.3 -0.6,0.1 h -1.1 l -4.2,-0.8 2.4,3.5 m 7.8,0.4 -1.6,-2.5 -2.5,1.3 0.5,0.1 0.7,0.6 0.5,0.7 0.3,0.9 -0.2,0.8 -0.6,0.8 -0.5,0.3 -0.9,0.3 -0.8,-0.2 -0.8,-0.6 -0.5,-0.7 -0.2,-0.9 v -0.4 l 0.4,-0.6 m 12.1,-63 -0.1,0.3 -0.5,0.5 -0.3,0.2 -0.7,0.1 -1.1,-0.4 -0.5,-0.5 -0.2,-0.4 -0.1,-0.6 0.2,-0.6 0.5,-0.5 0.9,-0.6 3.8,-1.9 -4,-1.4 m -3.7,5.4 -3.1,-1.1 2.5,-1.6 -0.9,-0.3 -0.4,-0.5 -0.2,-0.4 V 177 l 0.2,-0.6 0.6,-0.8 0.7,-0.3 h 1 l 0.8,0.3 0.8,0.6 0.2,0.3 v 0.7 M 345.6,95.8 h 0.3 l 0.6,0.4 0.3,0.3 0.2,0.6 -0.1,1.2 -0.3,0.6 -0.4,0.2 -0.6,0.3 -0.6,-0.1 -0.6,-0.3 -0.8,-0.7 -2.7,-3.3 -0.4,4.2 m 4.9,5.2 0.7,-0.2 0.3,-0.9 0.1,-0.6 -0.2,-0.9 -0.9,-0.7 -1.4,-0.4 -1.5,-0.1 -1.2,0.1 -0.7,0.6 -0.4,0.9 v 0.3 l 0.2,0.9 0.6,0.6 0.8,0.4 h 0.3 l 0.9,-0.2 0.7,-0.5 0.4,-0.9 v -0.3 l -0.2,-0.9 -0.6,-0.7 -0.8,-0.3 m -187.7,101.2 3.1,0.9 -2.4,1.8 0.9,0.3 0.5,0.4 0.2,0.4 v 1 l -0.2,0.5 -0.5,0.8 -0.8,0.4 h -0.9 l -0.9,-0.2 -0.7,-0.6 -0.2,-0.3 -0.2,-0.7 m 8.4,-2.8 h -1 l -0.8,0.7 -0.7,1.3 -0.3,0.9 -0.1,1.5 0.3,1.1 0.8,0.5 0.5,0.2 1,-0.1 0.8,-0.6 0.7,-1.4 0.3,-0.9 0.1,-1.5 -0.3,-1 -0.8,-0.6 -0.4,-0.1 m 193.1,-136.3 0.3,0.1 0.4,0.5 0.2,0.4 v 0.7 l -0.4,1.1 -0.5,0.4 -0.4,0.2 h -0.7 l -0.5,-0.2 -0.5,-0.5 -0.6,-0.9 -1.6,-3.9 -1.6,3.8 m 3.8,7.3 -4.7,-5.2 m 6.3,1.3 -1.6,3.9 m 24.8,4.7 -0.2,0.2 -0.6,0.3 -0.4,0.1 -0.7,-0.2 -0.9,-0.7 -0.3,-0.6 -0.1,-0.4 0.1,-0.6 0.4,-0.5 0.6,-0.3 1,-0.4 4.2,-0.6 -3.4,-2.5 m -5.9,3.5 0.9,0.3 0.6,-0.3 0.4,-0.5 0.1,-0.7 -0.3,-0.6 -0.8,-0.9 -0.5,-0.8 -0.2,-0.9 0.2,-0.6 0.5,-0.7 0.6,-0.3 0.4,-0.1 0.9,0.3 1,0.7 0.5,0.8 0.1,0.4 -0.1,0.7 -0.6,0.7 -0.6,0.3 -0.8,0.1 -0.9,-0.3 -1.2,-0.5 -0.6,-0.1 -0.6,0.3 -0.4,0.5 -0.1,0.7 0.6,0.7 1,0.8 m -267.5,109.5 3.2,0.8 -2.4,1.9 0.9,0.2 0.5,0.4 0.2,0.4 0.1,1 -0.1,0.5 -0.6,0.8 -0.7,0.5 h -0.9 l -0.9,-0.2 -0.8,-0.5 -0.2,-0.4 -0.2,-0.6 m 9.5,-2.9 -3.9,3.3 4.4,1.1 m -0.5,-4.4 -1.5,6.1 M 93,166.5 l -1,3.2 -1.8,-2.5 -0.2,0.9 -0.5,0.5 -0.4,0.2 h -0.9 l -0.6,-0.2 -0.8,-0.6 -0.4,-0.7 v -1 l 0.3,-0.8 0.5,-0.8 0.4,-0.2 0.7,-0.1 m 1.6,6.7 0.3,0.1 0.5,0.4 0.2,0.4 0.1,0.7 -0.3,1.1 -0.5,0.5 -0.4,0.2 -0.6,0.1 -0.6,-0.2 -0.5,-0.4 -0.7,-0.9 -1.9,-3.7 -1.3,4 m 30.1,-15.6 -3.3,-0.3 2,-2.2 -0.9,-0.1 -0.5,-0.3 -0.3,-0.3 -0.2,-1 V 153 l 0.4,-0.8 0.7,-0.6 0.9,-0.2 0.9,0.1 0.8,0.4 0.3,0.3 0.3,0.6 m -6.4,4.6 -3.3,-0.3 2,-2.3 h -0.9 l -0.6,-0.4 -0.2,-0.3 -0.2,-0.9 v -0.6 l 0.4,-0.9 0.6,-0.6 1,-0.2 0.9,0.1 0.8,0.4 0.3,0.3 0.2,0.6 m 178.9,114.4 -0.9,-3.2 2.8,1.1 -0.2,-0.9 0.1,-0.6 0.2,-0.4 0.8,-0.5 0.6,-0.2 0.9,0.1 0.7,0.4 0.6,0.8 0.2,0.9 v 0.9 l -0.3,0.4 -0.5,0.4 m -6.7,-5.2 0.6,0.7 0.6,0.2 0.6,-0.2 0.5,-0.4 0.1,-0.7 v -1.2 -1 l 0.5,-0.7 0.5,-0.5 0.8,-0.2 0.7,0.1 0.4,0.3 0.5,0.7 0.3,1.2 v 0.9 l -0.3,0.4 -0.5,0.5 -0.8,0.2 -0.7,-0.1 -0.7,-0.5 -0.5,-0.7 -0.7,-1.1 -0.4,-0.5 -0.7,-0.2 -0.5,0.2 -0.5,0.5 -0.1,0.9 0.4,1.3 m -81.3,74 -2.4,1.8 1.3,2.4 0.1,-0.5 0.5,-0.7 0.8,-0.5 0.9,-0.3 0.8,0.1 0.8,0.6 0.3,0.5 0.3,0.9 -0.2,0.8 -0.5,0.8 -0.8,0.5 -0.9,0.3 -0.4,-0.1 -0.6,-0.3 m 5.9,-7.8 0.2,0.9 -0.1,0.9 -0.6,0.7 -0.2,0.2 -0.9,0.3 -0.9,-0.2 -0.7,-0.5 -0.2,-0.3 -0.3,-0.9 0.2,-0.8 0.5,-0.8 0.3,-0.2 0.9,-0.2 0.8,0.1 1,0.8 0.8,1.3 0.6,1.4 0.1,1 -0.6,0.8 -0.5,0.3 -0.9,0.3 -0.6,-0.3 m -20.9,-48.3 0.1,0.3 -0.2,0.7 -0.2,0.3 -0.5,0.5 -1.2,0.2 -0.6,-0.1 -0.4,-0.2 -0.4,-0.5 -0.2,-0.6 0.2,-0.7 0.4,-1 2.2,-3.6 -4.1,1 m -3.1,7.2 2.9,-0.7 -0.3,-2.7 -0.3,0.4 -0.8,0.5 -0.8,0.2 -1,-0.1 -0.7,-0.4 -0.5,-0.8 -0.2,-0.6 0.1,-1 0.5,-0.7 0.8,-0.5 0.8,-0.2 1,0.1 0.3,0.2 0.5,0.5 m -32.8,25.1 -1.1,3.1 -1.7,-2.4 -0.3,0.8 -0.5,0.5 -0.3,0.2 h -1 l -0.6,-0.2 -0.7,-0.6 -0.4,-0.8 v -0.9 l 0.3,-0.9 0.6,-0.7 0.4,-0.2 0.6,-0.1 m 2.6,8.4 v -0.9 l -0.7,-0.9 -1.3,-0.8 -0.9,-0.2 -1.5,-0.2 -1,0.2 -0.6,0.8 -0.2,0.6 v 0.9 l 0.7,0.9 1.3,0.7 0.8,0.3 1.6,0.2 1,-0.3 0.6,-0.7 0.1,-0.4 m -6.4,42.1 v 3.3 l -2.4,-1.9 v 0.9 l -0.3,0.6 -0.3,0.3 -0.9,0.3 h -0.6 l -0.9,-0.3 -0.6,-0.6 -0.3,-0.9 v -0.9 l 0.3,-0.9 0.3,-0.3 0.6,-0.3 m 5.1,8.6 -4.2,-3.1 v 4.5 m 4.2,-1.4 -6.3,-0.1 m 47.5,26.8 -0.6,0.3 -0.3,0.9 0.1,0.6 0.3,0.9 0.9,0.6 1.5,0.2 h 1.5 l 1.2,-0.3 0.6,-0.7 0.3,-0.9 -0.1,-0.3 -0.3,-0.9 -0.6,-0.5 -0.9,-0.3 h -0.3 l -0.9,0.3 -0.6,0.6 -0.3,1 0.1,0.3 0.3,0.8 0.6,0.6 0.9,0.3 m -4.5,-9 6.4,2.8 m -6.2,1.4 -0.2,-4.2 m -0.3,69.2 -0.6,0.2 -0.4,0.9 -0.1,0.6 0.3,0.9 0.8,0.7 1.5,0.4 1.5,0.2 1.2,-0.2 0.6,-0.6 0.4,-0.8 v -0.3 l -0.2,-1 -0.5,-0.6 -0.9,-0.4 h -0.3 l -0.9,0.2 -0.7,0.5 -0.3,0.9 -0.1,0.3 0.2,0.9 0.6,0.7 0.9,0.4 m -2.5,-9 -0.6,0.3 -0.4,0.8 -0.1,0.6 0.2,1 0.9,0.6 1.4,0.5 1.5,0.1 1.3,-0.2 0.6,-0.5 0.4,-0.9 v -0.3 l -0.2,-0.9 -0.5,-0.6 -0.9,-0.4 -0.3,-0.1 -0.9,0.3 -0.7,0.5 -0.4,0.9 v 0.3 l 0.2,0.9 0.6,0.6 0.8,0.4 m 115,-101.5 -1.8,4.8 4.3,-1.2 m -2.5,-3.6 1.6,6.1 m 4.4,-7.7 -2.9,0.8 0.4,2.7 0.2,-0.4 0.8,-0.5 0.9,-0.3 1,0.1 0.7,0.4 0.5,0.8 0.2,0.6 -0.1,0.9 -0.4,0.8 -0.8,0.5 -0.9,0.2 h -0.9 l -0.4,-0.2 -0.4,-0.5 m 50.9,-59.6 3.9,3.4 0.5,-4.5 m -4.4,1.1 6.3,0.6 m -4.5,-3 -0.3,-0.6 -0.8,-1 6.3,0.6 m -24.3,-8 2.3,-4.6 -4.4,0.7 m 2.1,3.9 -0.9,-6.2 m -3.5,6.8 0.9,-0.4 0.4,-1 0.1,-1.5 -0.2,-0.9 -0.5,-1.4 -0.7,-0.8 -0.9,-0.2 -0.6,0.1 -0.9,0.4 -0.4,1 -0.1,1.5 0.1,0.9 0.6,1.5 0.7,0.8 0.9,0.1 0.5,-0.1 m 14,73.4 -5.1,0.3 2.8,3.5 m 2.3,-3.8 -4.8,4 m 8.5,0.4 -5.1,0.4 2.8,3.5 m 2.3,-3.9 -4.9,4 m 40,-42.6 2.9,-4.3 -4.5,0.2 m 1.6,4.1 -0.2,-6.3 m -3,6.3 -3.3,0.1 1.7,-2.4 h -0.9 l -0.6,-0.3 -0.3,-0.3 -0.3,-0.8 -0.1,-0.6 0.3,-1 0.6,-0.6 0.9,-0.3 h 0.9 l 0.9,0.2 0.3,0.3 0.3,0.6 m 0.8,58.1 -0.2,-0.7 -0.8,-0.4 -0.6,-0.1 -1,0.1 -0.7,0.8 -0.5,1.5 -0.3,1.4 0.1,1.3 0.5,0.7 0.9,0.4 0.3,0.1 0.9,-0.2 0.7,-0.5 0.4,-0.8 0.1,-0.3 -0.2,-1 -0.5,-0.7 -0.8,-0.4 h -0.3 l -0.9,0.1 -0.7,0.5 -0.5,0.8 m 6,-1.7 v -0.3 l 0.4,-0.6 0.3,-0.2 0.7,-0.2 1.2,0.2 0.5,0.4 0.3,0.3 0.2,0.6 -0.1,0.6 -0.4,0.6 -0.8,0.8 -3.4,2.5 4.1,0.6 m -159.8,-37.4 -0.7,-0.6 -0.4,-0.8 0.1,-1 0.1,-0.2 0.7,-0.8 0.7,-0.3 1,0.1 0.3,0.1 0.7,0.6 0.3,0.8 -0.1,0.9 -0.1,0.3 -0.6,0.7 -0.8,0.4 -1.2,-0.2 -1.4,-0.6 -1.3,-0.8 -0.6,-0.9 0.1,-1 0.2,-0.5 0.6,-0.8 h 0.7 m 3,7 -1.3,3 -1.5,-2.5 -0.4,0.8 -0.5,0.4 -0.4,0.2 -0.9,-0.1 -0.6,-0.2 -0.7,-0.6 -0.3,-0.8 0.1,-1 0.3,-0.8 0.6,-0.7 0.4,-0.2 h 0.7 m 39.8,33.1 -1,2.9 2.5,1.1 -0.2,-0.4 v -0.9 l 0.3,-0.9 0.6,-0.7 0.7,-0.4 h 1 l 0.5,0.2 0.8,0.5 0.4,0.8 v 0.9 l -0.3,0.9 -0.6,0.7 -0.3,0.2 -0.7,0.1 m -2.2,-9.6 3,4.1 1.4,-4.3 m -4.4,0.2 5.9,1.9 m 166.1,-40.2 1,0.1 0.7,0.4 0.5,0.8 0.1,0.3 -0.1,1 -0.4,0.7 -0.8,0.5 -0.3,0.1 -0.9,-0.1 -0.8,-0.4 -0.5,-0.8 -0.1,-0.3 0.1,-0.9 0.4,-0.8 1.1,-0.6 1.5,-0.3 1.5,-0.1 1,0.3 0.5,0.8 0.2,0.6 -0.1,1 -0.5,0.4 m -6.8,-5 0.5,0.8 1,0.4 1.5,-0.1 0.9,-0.2 1.4,-0.7 0.7,-0.8 0.1,-1 -0.2,-0.5 -0.5,-0.8 -1,-0.4 -1.6,0.1 -0.8,0.2 -1.4,0.7 -0.7,0.8 -0.1,0.9 0.1,0.5 m -9.9,-10.7 0.9,-0.3 0.3,-0.6 v -0.6 l -0.4,-0.6 -0.6,-0.3 -1.2,-0.2 -0.9,-0.3 -0.6,-0.6 -0.3,-0.6 v -0.9 l 0.2,-0.6 0.3,-0.3 0.9,-0.3 1.2,-0.1 0.9,0.3 0.3,0.3 0.4,0.6 v 0.9 l -0.3,0.6 -0.6,0.6 -0.9,0.3 -1.2,0.4 -0.6,0.3 -0.2,0.6 v 0.6 l 0.3,0.6 0.9,0.3 1.3,-0.1 m -7.6,-0.7 0.3,0.6 0.9,0.3 h 0.6 l 0.9,-0.3 0.6,-1 0.3,-1.5 -0.1,-1.5 -0.3,-1.2 -0.6,-0.5 -0.9,-0.3 h -0.3 l -0.9,0.3 -0.6,0.6 -0.3,0.9 v 0.3 l 0.4,0.9 0.6,0.6 0.9,0.3 h 0.3 l 0.9,-0.3 0.6,-0.7 0.2,-0.9 m 20.7,61.9 -0.6,0.4 -0.3,0.9 v 0.6 l 0.3,0.9 1,0.5 1.5,0.3 h 1.5 l 1.2,-0.4 0.5,-0.6 0.3,-0.9 v -0.3 l -0.3,-0.9 -0.6,-0.6 -0.9,-0.3 -0.3,0.1 -0.9,0.3 -0.6,0.6 -0.3,0.9 v 0.3 l 0.3,0.9 0.7,0.6 0.9,0.3 m -3.6,-8.6 -0.5,0.3 -0.3,0.9 v 0.6 l 0.3,0.9 0.9,0.6 1.5,0.2 h 1.5 l 1.2,-0.3 0.6,-0.6 0.3,-0.9 v -0.3 l -0.3,-0.9 -0.7,-0.6 -0.9,-0.3 h -0.3 l -0.9,0.3 -0.5,0.6 -0.3,1 v 0.3 l 0.3,0.8 0.6,0.6 0.9,0.3 m -30.7,26.1 0.6,-0.1 0.7,-0.7 0.2,-0.5 0.1,-1 -0.6,-0.9 -1.2,-0.9 -1.4,-0.6 -1.2,-0.2 -0.8,0.3 -0.6,0.7 -0.1,0.3 -0.1,0.9 0.3,0.8 0.7,0.7 0.2,0.1 1,0.1 0.8,-0.3 0.6,-0.7 0.1,-0.3 0.1,-0.9 -0.3,-0.8 -0.7,-0.7 m 0.6,5.7 v 0.7 l 0.4,1.2 -5.7,-2.6 m -188,-18.4 -1,-0.1 -0.7,-0.5 -0.4,-0.9 v -0.3 l 0.1,-0.9 0.5,-0.7 0.9,-0.4 0.3,-0.1 0.9,0.2 0.7,0.5 0.4,0.9 0.1,0.3 -0.2,0.9 -0.5,0.7 -1.1,0.4 -1.5,0.3 -1.6,-0.1 -0.9,-0.5 -0.5,-0.8 v -0.6 l 0.1,-1 0.6,-0.4 m 6.6,8 -6.7,-2.1 m 6.1,-2.1 0.6,4.2 m 225.1,54 -0.6,0.3 -0.1,1 0.1,0.6 0.4,0.8 0.9,0.5 1.6,0.1 1.5,-0.2 1.1,-0.5 0.5,-0.7 0.2,-0.9 v -0.3 l -0.5,-0.8 -0.6,-0.6 -1,-0.1 h -0.3 l -0.8,0.4 -0.5,0.7 -0.2,0.9 v 0.3 l 0.5,0.9 0.6,0.5 1,0.2 m -5.5,-8.5 6.7,2.1 m -6.1,2.1 -0.6,-4.2 m -30,-10.9 -1,0.2 -0.8,-0.2 -0.7,-0.6 -0.2,-0.2 -0.2,-0.9 0.1,-0.9 0.6,-0.7 0.3,-0.2 0.9,-0.2 0.8,0.2 0.8,0.6 0.1,0.2 0.3,0.9 -0.2,0.9 -0.8,0.9 -1.3,0.8 -1.4,0.6 -1.1,-0.1 -0.7,-0.5 -0.4,-0.5 -0.2,-1 0.3,-0.5 m 9.4,4.4 -7,0.9 m 4.7,-4.4 2.3,3.5 m 10,52.6 -2.7,1.2 0.8,2.6 0.2,-0.4 0.7,-0.6 0.8,-0.4 0.9,-0.1 0.8,0.3 0.7,0.7 0.2,0.6 0.1,0.9 -0.3,0.8 -0.7,0.6 -0.8,0.4 -0.9,0.1 -0.4,-0.1 -0.5,-0.5 m 7.1,-6.5 0.1,0.9 -0.3,0.8 -0.7,0.7 -0.2,0.1 -1,0.1 -0.8,-0.3 -0.6,-0.7 -0.1,-0.3 -0.1,-0.9 0.3,-0.8 0.7,-0.7 0.2,-0.1 1,-0.1 0.8,0.3 0.7,1 0.7,1.3 0.3,1.5 -0.2,1.1 -0.7,0.6 -0.5,0.3 -1,0.1 -0.5,-0.4 m -11.9,-12.5 -0.8,-0.4 -0.4,-0.8 -0.1,-0.9 v -0.3 l 0.5,-0.8 0.7,-0.5 0.9,-0.1 0.3,0.1 0.9,0.5 0.4,0.7 0.1,0.9 v 0.3 l -0.5,0.8 -0.7,0.5 h -1.3 l -1.4,-0.3 -1.4,-0.6 -0.8,-0.8 -0.1,-0.9 0.1,-0.6 0.5,-0.8 0.7,-0.2 m 4.1,6.4 -0.6,3.2 -2,-2.3 -0.2,0.9 -0.4,0.5 -0.4,0.3 -0.9,0.1 -0.6,-0.1 -0.8,-0.5 -0.5,-0.7 -0.1,-1 0.2,-0.9 0.5,-0.8 0.3,-0.2 0.7,-0.2 m -262.5,7.1 -1,-0.1 -0.7,-0.5 -0.4,-0.9 -0.1,-0.3 0.2,-0.9 0.5,-0.7 0.8,-0.4 0.3,-0.1 0.9,0.2 0.7,0.4 0.5,0.9 v 0.3 l -0.1,0.9 -0.5,0.7 -1.1,0.5 -1.5,0.3 -1.6,-0.1 -0.9,-0.4 -0.5,-0.9 -0.1,-0.5 0.1,-1 0.6,-0.4 m 4.7,4.5 h 0.3 l 0.7,0.2 0.3,0.2 0.4,0.6 0.2,1.2 -0.2,0.6 -0.2,0.3 -0.6,0.4 -0.6,0.1 -0.6,-0.1 -1,-0.5 -3.5,-2.4 0.8,4.1 m 43.4,6.7 0.8,-0.6 h 0.9 l 0.9,0.3 0.2,0.2 0.5,0.8 0.1,0.8 -0.3,0.9 -0.2,0.2 -0.8,0.5 -0.9,0.1 -0.9,-0.3 -0.2,-0.2 -0.5,-0.8 -0.1,-0.8 0.5,-1.1 1,-1.2 1.2,-1 1,-0.3 0.9,0.3 0.4,0.4 0.5,0.8 -0.1,0.7 m -8.5,0 0.9,0.4 1,-0.4 1.2,-0.9 0.6,-0.7 0.7,-1.4 0.1,-1.1 -0.5,-0.8 -0.5,-0.3 -0.9,-0.4 -1,0.3 -1.2,1 -0.5,0.7 -0.8,1.4 -0.1,1 0.5,0.8 0.4,0.3 m 74.1,-87.3 1.6,2.6 2.4,-1.2 -0.4,-0.1 -0.7,-0.6 -0.5,-0.8 -0.2,-0.9 0.2,-0.8 0.6,-0.7 0.5,-0.3 1,-0.3 0.8,0.2 0.7,0.6 0.5,0.8 0.2,0.9 -0.1,0.4 -0.4,0.6 m -7.4,-2.4 -1.7,-2.8 2.9,0.3 -0.4,-0.8 -0.1,-0.6 0.1,-0.5 0.6,-0.7 0.5,-0.3 1,-0.2 0.8,0.2 0.7,0.6 0.5,0.8 0.2,0.9 -0.1,0.4 -0.4,0.6 m -6.7,29.5 -1,2.9 2.5,1.1 -0.2,-0.3 v -1 l 0.3,-0.8 0.6,-0.8 0.7,-0.4 h 1 l 0.6,0.2 0.7,0.6 0.4,0.8 v 0.9 l -0.3,0.9 -0.6,0.7 -0.4,0.2 -0.6,0.1 m -2.6,-8.4 v 0.9 l 0.7,0.9 1.3,0.8 0.9,0.2 1.5,0.2 1,-0.2 0.6,-0.8 0.2,-0.6 v -0.9 l -0.7,-0.9 -1.3,-0.7 -0.8,-0.3 -1.6,-0.2 -1,0.3 -0.6,0.7 -0.1,0.4 m -8,34.3 -4.2,3 4.3,1.4 m -0.1,-4.4 -2,6 m 7.5,-4.3 -4.2,3.1 4.3,1.4 m -0.1,-4.5 -2,6 m 29.7,-21.3 2.5,-1.6 -1.1,-2.5 -0.1,0.4 -0.6,0.8 -0.8,0.4 -0.9,0.3 -0.9,-0.2 -0.7,-0.6 -0.3,-0.6 -0.2,-0.9 0.2,-0.8 0.6,-0.7 0.8,-0.5 0.9,-0.2 0.4,0.1 0.6,0.3 m -3.4,8.1 0.6,-0.7 v -1.1 l -0.5,-1.4 -0.5,-0.8 -1.1,-1.1 -0.9,-0.5 -1,0.3 -0.5,0.3 -0.6,0.7 v 1.1 l 0.5,1.4 0.5,0.8 1,1.1 1,0.5 0.9,-0.3 0.4,-0.2 m 0.3,3.7 0.5,5.2 3.4,-3 m -3.9,-2.2 4.1,4.8 m 0.7,-8.8 -2.3,2 1.5,2.2 0.1,-0.4 0.4,-0.8 0.7,-0.6 0.9,-0.4 0.8,0.1 0.9,0.5 0.4,0.4 0.3,0.9 v 0.8 l -0.5,0.9 -0.7,0.5 -0.9,0.4 h -0.4 l -0.6,-0.3 m -82.5,-36.9 0.7,0.3 0.8,-0.4 0.5,-0.4 0.5,-0.8 -0.2,-1.1 -0.8,-1.3 -0.9,-1.1 -1.1,-0.7 -0.8,-0.1 -0.9,0.4 -0.2,0.2 -0.5,0.8 v 0.9 l 0.3,0.8 0.2,0.3 0.8,0.4 0.9,0.1 0.9,-0.4 0.2,-0.2 0.5,-0.8 v -0.9 l -0.3,-0.8 m -1.9,5.3 -0.3,0.7 -0.1,1.2 -4.1,-4.7 m 15.3,21.3 0.2,-0.6 -0.5,-0.8 -0.5,-0.4 -0.8,-0.4 -1.1,0.3 -1.2,0.9 -1,1.2 -0.5,1.1 v 0.8 l 0.5,0.8 0.2,0.2 0.9,0.4 0.9,-0.1 0.8,-0.5 0.2,-0.2 0.3,-0.9 v -0.8 l -0.5,-0.8 -0.2,-0.2 -0.9,-0.4 -0.9,0.1 -0.8,0.5 m 6,1.6 0.2,-0.3 0.6,-0.2 h 0.4 l 0.7,0.1 0.9,0.8 0.3,0.6 v 0.4 l -0.2,0.7 -0.4,0.4 -0.6,0.3 -1,0.3 -4.3,0.3 3.2,2.7 m -80.8,103.5 0.6,0.1 0.8,-0.7 0.3,-0.5 0.2,-0.9 -0.5,-1 -1.1,-1 -1.3,-0.8 -1.2,-0.3 -0.8,0.2 -0.7,0.6 -0.2,0.3 -0.2,0.9 0.2,0.8 0.6,0.7 0.3,0.2 0.9,0.2 0.8,-0.2 0.8,-0.6 0.1,-0.3 0.2,-0.9 -0.2,-0.8 -0.6,-0.8 m 0.1,8.1 0.2,-1 -0.5,-0.9 -1.1,-1.1 -0.8,-0.4 -1.4,-0.5 h -1.1 l -0.7,0.6 -0.3,0.5 -0.2,1 0.4,0.9 1.2,1.1 0.7,0.4 1.5,0.5 h 1 l 0.8,-0.6 0.2,-0.4 m 17,33.5 h -0.6 l -0.7,0.7 -0.3,0.5 -0.1,1 0.5,0.9 1.2,1 1.3,0.6 1.2,0.3 0.9,-0.2 0.6,-0.7 0.2,-0.3 0.1,-0.9 -0.3,-0.8 -0.6,-0.7 -0.3,-0.1 -0.9,-0.2 -0.8,0.3 -0.7,0.7 -0.1,0.2 -0.2,1 0.3,0.8 0.6,0.6 m -1.1,-6.9 1.5,-2.9 1.3,2.7 0.4,-0.8 0.5,-0.4 0.4,-0.2 1,0.2 0.5,0.3 0.7,0.6 0.2,0.8 -0.1,1 -0.4,0.8 -0.7,0.6 -0.4,0.2 h -0.7 m -51.9,30.1 0.7,-0.1 0.5,-0.8 0.2,-0.5 -0.1,-1 -0.7,-0.8 -1.3,-0.7 -1.5,-0.4 -1.2,-0.1 -0.7,0.4 -0.6,0.8 -0.1,0.3 0.1,0.9 0.4,0.8 0.8,0.5 0.2,0.1 h 1 l 0.7,-0.4 0.6,-0.8 0.1,-0.3 -0.1,-1 -0.4,-0.7 -0.8,-0.5 m 2.2,7.4 v -0.9 l -0.5,-0.5 -0.6,-0.2 -0.6,0.2 -0.5,0.5 -0.6,1 -0.6,0.8 -0.7,0.4 -0.7,0.1 -0.8,-0.2 -0.5,-0.5 -0.2,-0.3 v -1 l 0.3,-1.1 0.5,-0.8 0.4,-0.2 0.7,-0.2 0.8,0.3 0.5,0.5 0.4,0.7 0.1,0.9 -0.1,1.3 0.1,0.6 0.5,0.5 0.6,0.2 0.7,-0.1 0.5,-0.8 0.4,-1.3 m 31.5,18.5 -0.1,3 2.7,0.4 -0.3,-0.3 -0.3,-0.9 0.1,-0.9 0.3,-0.9 0.6,-0.6 0.9,-0.3 h 0.6 l 0.9,0.4 0.6,0.6 0.2,0.9 v 0.9 l -0.3,0.9 -0.3,0.3 -0.6,0.3 m -4.9,-7.1 0.3,0.9 0.6,0.4 h 0.6 l 0.6,-0.3 0.3,-0.6 0.4,-1.2 0.3,-0.9 0.6,-0.5 0.6,-0.3 h 0.9 l 0.6,0.3 0.3,0.4 0.3,0.9 -0.1,1.2 -0.3,0.9 -0.3,0.2 -0.6,0.3 h -0.9 l -0.6,-0.3 -0.6,-0.7 -0.3,-0.9 -0.2,-1.2 -0.3,-0.6 -0.6,-0.3 h -0.6 l -0.6,0.2 -0.3,0.9 -0.1,1.4 m 56.2,-71.7 0.1,-0.2 0.6,-0.4 0.4,-0.1 h 0.7 l 1,0.6 0.4,0.5 0.1,0.4 v 0.7 l -0.3,0.5 -0.6,0.4 -0.9,0.5 -4.1,1.2 3.7,2 m 3.8,-3.4 0.1,-0.2 0.6,-0.4 0.4,-0.1 h 0.6 l 1.1,0.6 0.4,0.5 0.1,0.5 -0.1,0.6 -0.2,0.5 -0.6,0.4 -1,0.5 -4,1.2 3.6,2 m 32.1,-54.4 -0.2,0.3 -0.5,0.4 -0.4,0.1 h -0.7 l -1,-0.6 -0.4,-0.6 -0.1,-0.4 V 527 l 0.3,-0.6 0.5,-0.3 1,-0.6 4,-1.1 -3.6,-2.1 m -3.3,3.8 h -0.7 l -1.2,0.4 3,-5.6 m 69.9,97.3 -4.1,3.2 4.4,1.2 m -0.3,-4.4 -1.7,6 m 61.9,-48.9 -3.2,-0.4 2,-2.2 -0.9,-0.1 -0.6,-0.3 -0.2,-0.4 -0.2,-0.9 v -0.6 l 0.4,-0.9 0.7,-0.5 0.9,-0.2 0.9,0.1 0.9,0.4 0.2,0.3 0.3,0.7 m 71.5,58.6 -0.8,0.6 -0.4,1 0.1,1.5 0.3,0.9 0.7,1.4 0.8,0.7 h 0.9 l 0.6,-0.1 0.8,-0.6 0.3,-1 -0.1,-1.5 -0.2,-0.9 -0.7,-1.4 -0.8,-0.7 h -1 l -0.4,0.1 m 41.4,-40.9 -0.3,-0.6 -0.9,-0.8 6.3,-0.1 m -239.4,32.4 -0.8,0.5 -0.1,0.7 0.2,0.5 0.4,0.5 0.7,0.2 1.2,-0.1 0.9,0.1 0.8,0.4 0.4,0.5 0.3,0.9 -0.2,0.7 -0.2,0.3 -0.8,0.6 -1.1,0.3 -1,-0.1 -0.4,-0.2 -0.4,-0.5 -0.2,-0.9 0.1,-0.6 0.4,-0.8 0.8,-0.5 1.1,-0.6 0.5,-0.4 0.1,-0.7 -0.1,-0.6 -0.5,-0.5 h -0.9 l -1.3,0.3 m 7.8,-2.1 -1.3,6.9 m -2.8,-5.8 4.1,-1.1 m -71.5,35.4 -1.2,-2.8 -2.6,0.9 0.4,0.1 0.7,0.7 0.3,0.9 0.1,0.9 -0.3,0.8 -0.7,0.6 -0.5,0.3 -1,0.1 -0.8,-0.3 -0.6,-0.7 -0.4,-0.9 -0.1,-0.9 0.2,-0.4 0.4,-0.5 m 7.5,4.2 -0.7,-0.7 -0.6,-0.1 -0.6,0.3 -0.4,0.5 v 0.7 l 0.2,1.2 0.1,0.9 -0.3,0.8 -0.5,0.5 -0.8,0.4 h -0.6 l -0.4,-0.2 -0.7,-0.7 -0.5,-1.1 -0.1,-0.9 0.2,-0.4 0.4,-0.5 0.8,-0.4 h 0.7 l 0.8,0.3 0.6,0.7 0.8,1 0.5,0.4 0.7,0.1 0.5,-0.3 0.5,-0.5 -0.1,-1 -0.6,-1.2 m -3,-47.6 0.6,-0.2 0.5,-0.8 0.1,-0.6 -0.1,-0.9 -0.7,-0.8 -1.4,-0.6 -1.5,-0.3 h -1.2 l -0.7,0.5 -0.5,0.8 -0.1,0.3 0.1,0.9 0.5,0.8 0.8,0.4 0.3,0.1 0.9,-0.1 0.8,-0.5 0.4,-0.8 0.1,-0.3 -0.1,-0.9 -0.5,-0.7 -0.8,-0.5 m 3,6.4 -0.7,3.2 -2,-2.3 -0.2,0.9 -0.4,0.5 -0.4,0.3 -0.9,0.1 -0.6,-0.1 -0.8,-0.5 -0.5,-0.7 -0.1,-1 0.2,-0.9 0.5,-0.8 0.3,-0.2 0.7,-0.2 m 27,-14.5 -0.1,0.2 -0.5,0.5 -0.4,0.2 h -0.7 l -1.1,-0.4 -0.5,-0.5 -0.1,-0.4 -0.1,-0.7 0.2,-0.5 0.5,-0.5 0.9,-0.6 3.9,-1.7 -4,-1.5 m -3.2,3.9 -0.1,0.2 -0.5,0.5 -0.4,0.2 h -0.7 l -1.1,-0.4 -0.5,-0.5 -0.1,-0.4 -0.1,-0.6 0.2,-0.6 0.5,-0.4 0.9,-0.7 3.9,-1.7 -4,-1.5 m -73.8,-176.6 -3.2,1 1,-2.9 -0.8,0.3 -0.7,-0.1 -0.4,-0.2 -0.5,-0.8 -0.2,-0.5 v -1 l 0.4,-0.7 0.8,-0.6 0.8,-0.3 1,0.1 0.4,0.2 0.4,0.4 m -4.5,5.2 0.1,0.3 -0.1,0.7 -0.2,0.4 -0.5,0.4 -1.1,0.4 -0.7,-0.1 -0.4,-0.2 -0.4,-0.5 -0.2,-0.6 0.1,-0.6 0.3,-1.1 2,-3.7 -4,1.2 m 11.1,51.4 3.3,0.1 -1.9,2.4 h 0.9 l 0.6,0.3 0.3,0.3 0.3,0.9 v 0.6 l -0.3,0.9 -0.7,0.6 -0.9,0.3 h -0.9 l -0.9,-0.4 -0.2,-0.3 -0.3,-0.6 m 5.3,-3.5 0.6,-0.3 1,-0.9 -0.2,6.3 m -6.6,213.6 -1.9,-2.3 -2.3,1.4 0.4,0.1 0.8,0.5 0.6,0.7 0.3,0.9 -0.1,0.8 -0.5,0.8 -0.5,0.4 -0.8,0.3 -0.9,-0.1 -0.8,-0.5 -0.5,-0.7 -0.4,-0.9 0.1,-0.4 0.3,-0.6 m 9.5,3.8 -1.9,-2.4 -2.3,1.5 h 0.5 l 0.8,0.5 0.5,0.7 0.4,0.9 -0.1,0.9 -0.6,0.8 -0.4,0.3 -0.9,0.4 -0.9,-0.1 -0.7,-0.5 -0.6,-0.7 -0.3,-0.9 v -0.5 l 0.3,-0.6 m 17.2,5.4 -1.2,2.8 2.4,1.3 -0.1,-0.4 v -1 l 0.4,-0.8 0.6,-0.7 0.8,-0.4 0.9,0.1 0.6,0.2 0.7,0.6 0.3,0.8 v 1 l -0.4,0.8 -0.6,0.7 -0.4,0.2 h -0.6 m -0.6,-9.8 h -0.7 l -0.6,0.7 -0.2,0.6 -0.1,0.9 0.6,0.9 1.3,0.9 1.4,0.5 1.2,0.2 0.8,-0.3 0.6,-0.8 0.1,-0.2 0.1,-1 -0.3,-0.8 -0.8,-0.6 -0.2,-0.1 h -1 l -0.8,0.3 -0.6,0.7 -0.1,0.3 v 0.9 l 0.3,0.8 0.7,0.6 m 140.6,-167.8 0.6,0.3 0.9,-0.3 0.5,-0.4 0.5,-0.8 -0.1,-1.1 -0.7,-1.3 -1,-1.2 -0.9,-0.7 -0.9,-0.1 -0.9,0.3 -0.2,0.2 -0.5,0.8 -0.1,0.8 0.3,0.9 0.2,0.3 0.8,0.5 0.8,0.1 0.9,-0.4 0.3,-0.2 0.5,-0.8 0.1,-0.8 -0.4,-0.9 m 19.5,15.8 0.9,2.9 2.7,-0.6 -0.4,-0.2 -0.6,-0.7 -0.2,-0.9 v -0.9 l 0.4,-0.8 0.7,-0.5 0.6,-0.2 h 0.9 l 0.8,0.4 0.6,0.7 0.2,0.9 v 0.9 l -0.2,0.4 -0.5,0.5 m 79.8,-338.4 3.3,-0.3 -1.6,2.5 h 0.9 l 0.6,0.2 0.4,0.3 0.3,0.8 0.1,0.6 -0.2,1 -0.6,0.6 -0.8,0.4 -0.9,0.1 -0.9,-0.2 -0.4,-0.3 -0.3,-0.6 m 8.9,-3.8 -0.2,0.9 -0.6,0.7 -0.8,0.3 -0.3,0.1 -0.9,-0.2 -0.7,-0.6 -0.4,-0.9 v -0.3 l 0.2,-0.9 0.5,-0.6 0.9,-0.4 h 0.3 l 0.9,0.2 0.7,0.5 0.4,1.2 0.1,1.5 -0.1,1.5 -0.5,0.9 -0.9,0.4 -0.6,0.1 -0.9,-0.2 -0.4,-0.6 m 47.3,-24 0.9,-0.3 0.3,-0.6 v -0.6 l -0.3,-0.6 -0.6,-0.3 -1.2,-0.3 -0.9,-0.4 -0.5,-0.6 -0.3,-0.6 v -0.9 l 0.3,-0.6 0.3,-0.3 0.9,-0.2 h 1.2 l 0.9,0.3 0.3,0.3 0.3,0.6 v 0.9 l -0.3,0.6 -0.7,0.6 -0.9,0.3 -1.2,0.2 -0.6,0.3 -0.3,0.6 v 0.6 l 0.3,0.6 0.9,0.4 h 1.4 m -7.2,-0.1 3.1,-4.1 -4.5,-0.1 m 1.4,4.2 0.1,-6.3 m 26.3,25 -0.4,0.5 0.1,1 0.3,0.5 0.7,0.7 1.1,0.1 1.4,-0.4 1.4,-0.7 0.9,-0.8 0.3,-0.9 -0.2,-0.9 -0.1,-0.3 -0.7,-0.6 -0.8,-0.3 -1,0.2 -0.2,0.1 -0.7,0.7 -0.2,0.8 0.1,0.9 0.2,0.3 0.6,0.7 0.8,0.2 1,-0.1 m -22.3,19.8 -4.6,-2.4 0.6,4.4 m 4,-2 -6.3,0.8 m 5.1,2.5 h 0.3 l 0.6,0.2 0.4,0.3 0.4,0.5 0.1,1.2 -0.2,0.6 -0.3,0.4 -0.5,0.4 h -0.6 l -0.7,-0.2 -0.9,-0.5 -3.4,-2.6 0.6,4.2 m 29,15.3 -0.3,-0.1 -0.5,-0.4 -0.2,-0.4 -0.1,-0.7 0.3,-1.1 0.5,-0.5 0.4,-0.2 0.6,-0.1 0.6,0.2 0.5,0.4 0.7,0.9 2,3.7 1.2,-4 m -4.4,-2.5 -0.1,-0.6 -0.6,-1.1 6,1.8 m -19.5,4.6 -1,-0.1 -0.5,0.4 -0.3,0.5 v 0.7 l 0.4,0.5 0.9,0.8 0.6,0.7 0.3,0.8 v 0.7 l -0.4,0.8 -0.6,0.4 -0.4,0.1 -0.9,-0.2 -1.1,-0.5 -0.6,-0.7 -0.2,-0.4 v -0.7 l 0.5,-0.8 0.5,-0.4 0.8,-0.2 1,0.1 1.2,0.3 0.6,0.1 0.6,-0.4 0.3,-0.6 v -0.6 l -0.7,-0.7 -1.2,-0.7 m 6.3,4.4 v -0.7 l -0.6,-0.7 -0.5,-0.2 -1,-0.2 -0.9,0.5 -1,1.2 -0.7,1.3 -0.3,1.2 0.3,0.8 0.6,0.7 0.3,0.2 0.9,0.1 0.8,-0.2 0.7,-0.7 0.2,-0.3 0.1,-0.9 -0.2,-0.8 -0.7,-0.7 -0.3,-0.1 -0.9,-0.2 -0.8,0.3 -0.7,0.6 m -142.2,2.2 2.1,2.5 -2.9,0.2 0.5,0.7 0.2,0.7 v 0.4 l -0.5,0.8 -0.5,0.4 -0.9,0.3 h -0.8 l -0.8,-0.5 -0.6,-0.7 -0.4,-0.9 0.1,-0.4 0.2,-0.6 m 8.4,1.9 -0.9,-0.5 -0.6,0.2 -0.5,0.3 -0.2,0.7 0.1,0.6 0.6,1.1 0.3,0.9 v 0.9 l -0.3,0.6 -0.7,0.6 -0.6,0.1 h -0.5 l -0.8,-0.5 -0.7,-0.9 -0.4,-0.9 v -0.4 l 0.3,-0.6 0.7,-0.6 0.6,-0.2 0.9,0.1 0.8,0.5 1,0.7 0.6,0.3 0.7,-0.2 0.4,-0.4 0.3,-0.6 -0.4,-0.9 -0.8,-1 m 31.7,2.8 -0.4,5.1 3.8,-2.4 m -3.4,-2.7 3.3,5.3 m 0.5,-7.6 -0.6,0.7 -0.1,1.1 0.6,1.4 0.4,0.8 1.1,1.1 1,0.4 0.9,-0.2 0.5,-0.3 0.6,-0.7 v -1.1 l -0.5,-1.4 -0.5,-0.8 -1,-1.1 -1,-0.5 -0.9,0.3 -0.4,0.2 m 44,-29.7 -3.3,-0.6 2.2,-2 -0.8,-0.2 -0.6,-0.4 -0.2,-0.3 -0.2,-0.9 0.1,-0.6 0.5,-0.9 0.7,-0.5 0.9,-0.1 0.9,0.2 0.8,0.4 0.3,0.4 0.2,0.6 m -9.7,1.3 0.5,-0.8 0.7,-0.5 0.9,-0.1 h 0.3 l 0.9,0.5 0.4,0.7 0.2,0.9 -0.1,0.3 -0.4,0.9 -0.7,0.4 -1,0.2 -0.2,-0.1 -0.9,-0.4 -0.5,-0.7 -0.1,-1.3 0.3,-1.4 0.6,-1.5 0.7,-0.7 1,-0.2 0.5,0.1 0.9,0.5 0.2,0.6 m 7.7,39.5 -5.1,-0.3 2.4,3.8 m 2.7,-3.5 -5.3,3.4 m 5.4,-0.5 0.6,0.4 1.3,0.2 -5.3,3.4 m 34.1,-17.8 4.9,1.5 -1.4,-4.3 m -3.5,2.8 6,-2 m -5.5,-1.5 -0.3,0.1 -0.7,-0.1 -0.4,-0.2 -0.4,-0.5 -0.4,-1.1 0.1,-0.7 0.2,-0.3 0.4,-0.5 0.6,-0.2 0.7,0.1 1,0.3 3.8,1.8 -1.3,-3.9 m -15.5,28.2 -0.5,5.2 3.9,-2.3 m -3.4,-2.9 3.2,5.5 m -0.3,-7 2.8,-1.7 -0.3,3 0.7,-0.5 h 0.7 l 0.4,0.1 0.7,0.6 0.3,0.6 0.2,0.9 -0.2,0.8 -0.6,0.7 -0.8,0.5 -0.9,0.2 -0.4,-0.1 -0.6,-0.4 m -241.1,-117.7 5.3,4.5 m -6.4,-0.4 1.1,-4.1 m 3.3,-4.3 0.8,0.5 0.4,0.7 0.1,1 -0.1,0.2 -0.5,0.8 -0.7,0.5 h -1 -0.3 l -0.8,-0.6 -0.4,-0.7 -0.1,-0.9 0.1,-0.3 0.5,-0.8 0.8,-0.4 h 1.2 l 1.4,0.3 1.4,0.7 0.7,0.8 0.1,1 -0.1,0.5 -0.6,0.8 -0.6,0.2 m -42.3,-21.9 -0.2,-1 -0.5,-0.4 -0.6,-0.1 -0.6,0.2 -0.4,0.6 -0.5,1.1 -0.5,0.8 -0.7,0.5 -0.6,0.2 -0.9,-0.1 -0.5,-0.4 -0.3,-0.4 -0.1,-0.9 0.2,-1.2 0.4,-0.8 0.4,-0.3 0.6,-0.2 0.9,0.2 0.5,0.4 0.5,0.7 0.2,0.9 0.1,1.2 0.2,0.7 0.5,0.4 0.6,0.1 0.6,-0.2 0.5,-0.9 0.2,-1.3 m -1,5.7 -0.1,-0.9 -0.8,-0.7 -1.4,-0.6 -0.9,-0.1 h -1.5 l -1,0.4 -0.5,0.9 -0.1,0.6 0.2,0.9 0.8,0.7 1.4,0.6 0.9,0.1 h 1.5 l 1,-0.4 0.4,-0.9 0.1,-0.4 m 16.3,-34.6 0.2,0.2 0.1,0.7 v 0.4 l -0.2,0.6 -0.9,0.8 -0.7,0.2 h -0.4 l -0.6,-0.3 -0.4,-0.5 -0.2,-0.6 -0.1,-1.1 0.3,-4.2 -3.2,2.8 m 0.2,8.1 -1.9,-6.7 m 5.1,4 -3.2,2.7 m 44.6,13 2.2,6.7 m -5.2,-3.8 3,-2.9 m 1.9,-1.8 -0.4,0.8 0.2,0.7 0.4,0.4 0.6,0.2 0.7,-0.2 1,-0.6 0.9,-0.4 h 0.8 l 0.7,0.3 0.6,0.6 0.2,0.7 v 0.4 l -0.5,0.8 -0.8,0.9 -0.9,0.4 -0.4,-0.1 -0.7,-0.2 -0.6,-0.6 -0.2,-0.7 v -0.8 l 0.5,-0.9 0.7,-1 0.2,-0.6 -0.2,-0.7 -0.4,-0.4 -0.7,-0.2 -0.8,0.4 -1,0.9 m -16.9,-40.8 0.2,0.2 0.2,0.7 v 0.4 l -0.2,0.6 -0.9,0.9 -0.6,0.2 h -0.4 l -0.7,-0.2 -0.4,-0.5 -0.2,-0.6 -0.2,-1.1 v -4.2 l -3,3 m 0.4,7.1 0.7,0.3 0.8,-0.5 0.5,-0.4 0.4,-0.8 -0.2,-1.1 -0.9,-1.3 -1,-1 -1.1,-0.7 h -0.8 l -0.9,0.4 -0.2,0.2 -0.4,0.9 v 0.8 l 0.4,0.9 0.2,0.2 0.9,0.4 h 0.8 l 0.9,-0.4 0.2,-0.2 0.4,-0.8 v -0.9 l -0.4,-0.8 m 34.1,-23.7 -0.3,0.6 -0.3,1.2 -3.6,-5.2 m 2.1,4.8 -0.3,0.6 -0.3,1.3 -3.6,-5.2 m 25.5,9.1 0.7,0.6 0.7,-0.1 0.5,-0.3 0.4,-0.5 -0.1,-0.7 -0.4,-1.2 -0.2,-0.9 0.2,-0.8 0.4,-0.6 0.7,-0.5 h 0.7 l 0.4,0.1 0.7,0.6 0.7,1 0.2,0.9 -0.1,0.4 -0.4,0.6 -0.7,0.5 h -0.7 l -0.8,-0.2 -0.8,-0.6 -0.8,-0.8 -0.6,-0.4 -0.7,0.1 -0.5,0.3 -0.3,0.5 0.2,1 0.7,1.1 m 16.3,47.7 -0.4,-0.5 -1,-0.8 6.2,-0.9 m -5.2,-0.9 h -0.3 l -0.6,-0.2 -0.3,-0.2 -0.4,-0.6 -0.2,-1.2 0.2,-0.6 0.3,-0.4 0.5,-0.3 0.6,-0.1 0.7,0.2 0.9,0.5 3.4,2.5 -0.6,-4.1 m -34.8,28.4 -4.1,-5.7 m 6.1,2 -2,3.7 m -1.2,2.3 0.1,-1 -0.3,-0.5 -0.6,-0.3 h -0.6 l -0.6,0.4 -0.8,0.9 -0.7,0.6 -0.8,0.3 h -0.7 l -0.8,-0.5 -0.4,-0.5 -0.1,-0.4 0.2,-1 0.5,-1 0.7,-0.7 0.4,-0.1 h 0.7 l 0.8,0.5 0.4,0.5 0.2,0.8 -0.1,1 -0.3,1.2 -0.1,0.6 0.4,0.6 0.5,0.3 h 0.7 l 0.7,-0.7 0.7,-1.1 m 13.1,17.3 -0.2,-0.3 -0.2,-0.6 v -0.4 l 0.3,-0.6 0.9,-0.8 0.6,-0.2 h 0.4 l 0.7,0.3 0.4,0.4 0.1,0.7 0.2,1 -0.3,4.3 3.2,-2.8 m -2.9,-5.9 2.5,-2.2 0.2,3 0.7,-0.6 0.6,-0.2 0.5,0.1 0.8,0.4 0.4,0.5 0.3,0.9 v 0.8 l -0.5,0.8 -0.6,0.6 -0.9,0.4 h -0.4 l -0.7,-0.3 m -19.2,2 -7,0.1 m 5.1,-3.8 1.9,3.7 m 0.3,5.5 -0.9,0.1 -0.8,-0.3 -0.7,-0.6 -0.1,-0.3 -0.1,-0.9 0.2,-0.9 0.7,-0.6 0.3,-0.2 0.9,-0.1 0.8,0.3 0.7,0.7 0.1,0.2 0.2,1 -0.3,0.8 -1,0.8 -1.3,0.6 -1.5,0.4 -1.1,-0.1 -0.6,-0.7 -0.3,-0.5 -0.1,-1 0.4,-0.5 m -134.5,249.3 -2.1,-2.5 3,-0.2 -0.6,-0.7 -0.2,-0.7 0.1,-0.4 0.4,-0.8 0.5,-0.4 0.9,-0.4 0.8,0.1 0.8,0.5 0.6,0.7 0.4,0.8 -0.1,0.5 -0.2,0.6 m -7.7,-1.2 -2.2,-2.5 3,-0.2 -0.6,-0.7 -0.2,-0.6 0.1,-0.4 0.5,-0.9 0.4,-0.4 0.9,-0.3 0.8,0.1 0.9,0.4 0.5,0.7 0.4,0.9 v 0.4 l -0.3,0.6 m -16.1,2.8 0.3,-0.9 -0.3,-0.6 -0.5,-0.4 -0.6,-0.1 -0.6,0.3 -1,0.7 -0.8,0.5 -0.9,0.1 -0.6,-0.1 -0.7,-0.6 -0.3,-0.6 v -0.4 l 0.3,-0.9 0.7,-0.9 0.8,-0.6 h 0.4 l 0.7,0.1 0.7,0.6 0.3,0.6 0.1,0.8 -0.3,0.9 -0.6,1.2 -0.1,0.6 0.3,0.6 0.4,0.4 0.7,0.1 0.8,-0.5 0.8,-1 m -3.6,4.5 0.4,-0.9 -0.4,-1 -1,-1.2 -0.7,-0.6 -1.3,-0.7 h -1.1 l -0.8,0.5 -0.4,0.4 -0.3,0.9 0.3,1.1 1,1.1 0.7,0.6 1.4,0.7 1.1,0.1 0.7,-0.5 0.3,-0.4 m 363.3,-306.2 0.9,-0.4 0.2,-0.6 -0.1,-0.6 -0.3,-0.6 -0.7,-0.2 -1.2,-0.1 -0.9,-0.2 -0.7,-0.5 -0.4,-0.6 -0.1,-0.9 0.2,-0.6 0.3,-0.3 0.8,-0.5 1.2,-0.1 0.9,0.2 0.4,0.2 0.4,0.6 0.1,0.9 -0.2,0.6 -0.6,0.7 -0.8,0.4 -1.2,0.4 -0.5,0.4 -0.2,0.7 v 0.5 l 0.4,0.6 0.9,0.2 1.4,-0.2 m -8.1,-1 0.2,-1 0.5,-0.6 0.8,-0.5 h 0.3 l 1,0.2 0.6,0.5 0.4,0.8 0.1,0.3 -0.2,1 -0.5,0.7 -0.9,0.4 h -0.3 l -0.9,-0.2 -0.7,-0.5 -0.4,-1.1 -0.2,-1.5 0.1,-1.6 0.5,-0.9 0.8,-0.4 0.6,-0.1 0.9,0.2 0.4,0.5 m -5.5,12.5 -0.2,0.9 0.4,0.6 0.5,0.3 h 0.7 l 0.6,-0.4 0.8,-0.9 0.7,-0.6 0.8,-0.2 h 0.7 l 0.8,0.4 0.4,0.6 0.1,0.4 -0.2,0.9 -0.6,1.1 -0.7,0.6 -0.4,0.1 h -0.7 l -0.7,-0.4 -0.4,-0.6 -0.2,-0.8 0.1,-0.9 0.4,-1.2 v -0.7 l -0.4,-0.5 -0.5,-0.3 -0.7,-0.1 -0.7,0.7 -0.6,1.1 m 2.6,-4.8 -0.1,1 0.3,0.5 0.6,0.3 0.6,0.1 0.6,-0.4 0.8,-0.9 0.7,-0.7 0.8,-0.2 h 0.7 l 0.8,0.5 0.4,0.5 0.1,0.4 -0.2,1 -0.6,1 -0.7,0.7 -0.4,0.1 -0.6,-0.1 -0.8,-0.4 -0.4,-0.6 -0.2,-0.8 0.1,-0.9 0.4,-1.2 V 99 l -0.4,-0.5 -0.5,-0.3 h -0.7 l -0.7,0.6 -0.6,1.2 M 71.6,462.9 v -0.3 l 0.2,-0.6 0.2,-0.4 0.6,-0.4 1.2,-0.2 0.6,0.2 0.3,0.3 0.4,0.5 0.1,0.6 -0.2,0.6 -0.4,1 -2.5,3.5 4.2,-0.7 m 4.3,-5 -0.2,0.9 -0.5,0.7 -0.8,0.5 h -0.3 l -0.9,-0.1 -0.7,-0.5 -0.5,-0.9 v -0.3 l 0.1,-0.9 0.5,-0.7 0.8,-0.4 0.3,-0.1 1,0.2 0.7,0.5 0.5,1.1 0.2,1.5 v 1.5 l -0.5,1 -0.8,0.4 -0.6,0.1 -0.9,-0.1 -0.4,-0.6 M 50.9,436.7 h 0.3 l 0.6,0.1 0.4,0.2 0.4,0.5 0.4,1.1 -0.1,0.7 -0.2,0.4 -0.5,0.4 -0.6,0.2 -0.7,-0.1 -1,-0.4 -3.7,-2 1.1,4 m 6.8,0.8 -0.5,-0.8 -0.7,-0.1 -0.5,0.2 -0.5,0.4 -0.1,0.7 v 1.2 1 l -0.4,0.7 -0.5,0.5 -0.9,0.2 -0.7,-0.1 -0.3,-0.2 -0.6,-0.8 -0.3,-1.1 v -1 l 0.2,-0.3 0.5,-0.5 0.9,-0.3 0.6,0.2 0.8,0.4 0.5,0.8 0.7,1 0.4,0.5 0.7,0.1 0.5,-0.1 0.5,-0.5 0.1,-0.9 -0.4,-1.3 m 411.9,110.9 -3.2,-0.8 2.3,-1.9 -0.8,-0.2 -0.6,-0.4 -0.2,-0.4 -0.1,-0.9 0.2,-0.6 0.5,-0.8 0.7,-0.5 h 1 l 0.8,0.2 0.8,0.5 0.3,0.4 0.1,0.6 m -9.9,2.8 2.9,0.7 1,-2.5 -0.4,0.2 -0.9,0.1 -0.9,-0.2 -0.8,-0.5 -0.5,-0.8 v -0.9 l 0.1,-0.6 0.5,-0.8 0.7,-0.4 1,-0.1 0.9,0.2 0.8,0.5 0.2,0.4 0.1,0.6 m -28.5,11 -2.4,2.2 -0.3,-3 -0.7,0.7 -0.6,0.1 h -0.4 l -0.9,-0.4 -0.4,-0.5 -0.4,-0.8 0.1,-0.9 0.4,-0.8 0.7,-0.6 0.8,-0.4 h 0.4 l 0.7,0.2 m -3.7,9.2 0.7,0.3 0.8,-0.4 0.5,-0.5 0.4,-0.8 -0.2,-1.1 -0.8,-1.3 -1,-1 -1.1,-0.7 h -0.8 l -0.9,0.4 -0.2,0.2 -0.4,0.8 -0.1,0.8 0.4,0.9 0.2,0.2 0.9,0.5 h 0.8 l 0.9,-0.4 0.2,-0.2 0.5,-0.8 v -0.9 l -0.4,-0.8 m -87.7,102.2 -0.5,-0.9 -0.6,-0.2 -0.6,0.1 -0.6,0.4 -0.1,0.7 -0.1,1.2 -0.2,1 -0.5,0.6 -0.5,0.5 -0.9,0.1 -0.6,-0.2 -0.4,-0.2 -0.4,-0.9 -0.2,-1.1 0.1,-1 0.3,-0.3 0.5,-0.4 0.9,-0.2 0.6,0.2 0.7,0.5 0.5,0.8 0.5,1.2 0.4,0.5 0.6,0.2 0.6,-0.1 0.5,-0.4 0.2,-1 -0.3,-1.3 m -0.7,4.1 0.4,0.5 1.1,0.8 -6.2,1.1 m 47.9,13.4 0.2,0.9 0.6,0.4 h 0.6 l 0.6,-0.2 0.4,-0.6 0.4,-1.1 0.3,-0.9 0.7,-0.5 0.6,-0.3 0.9,0.1 0.6,0.3 0.3,0.4 0.2,0.9 -0.1,1.2 -0.4,0.9 -0.3,0.2 -0.7,0.3 -0.9,-0.1 -0.5,-0.4 -0.6,-0.6 -0.2,-0.9 -0.2,-1.3 -0.2,-0.6 -0.6,-0.3 -0.6,-0.1 -0.6,0.3 -0.4,0.8 -0.1,1.4 m 1.9,-4.4 h -0.3 l -0.6,-0.4 -0.3,-0.3 -0.2,-0.6 0.1,-1.2 0.4,-0.6 0.3,-0.3 0.6,-0.2 0.6,0.1 0.6,0.3 0.8,0.7 2.7,3.2 0.4,-4.1 m -25.9,20.7 -3.8,5.8 m -0.3,-6.4 4.1,0.6 m 5.2,0.7 -3.9,5.8 m -0.3,-6.4 4.2,0.6 M 255,637.9 l 0.9,-0.4 0.2,-0.7 v -0.6 l -0.4,-0.5 -0.6,-0.3 -1.2,-0.1 -1,-0.2 -0.6,-0.6 -0.4,-0.5 -0.1,-0.9 0.3,-0.7 0.2,-0.3 0.9,-0.4 1.2,-0.1 0.9,0.2 0.3,0.3 0.4,0.5 0.1,0.9 -0.2,0.7 -0.6,0.6 -0.8,0.4 -1.2,0.4 -0.6,0.4 -0.2,0.6 0.1,0.6 0.3,0.6 0.9,0.2 1.4,-0.2 m -8,0.9 2.3,-6.6 m 1.9,6.1 -4.2,0.5 m 44.9,11.6 4.9,-1.3 -3.4,-2.9 m -1.5,4.2 4,-4.8 m -36.9,44.3 -6,3.5 m 2.6,-5.9 3.4,2.4 m 3.4,3.4 0.1,-0.6 -0.6,-0.8 -0.5,-0.3 -0.9,-0.3 -1,0.4 -1.1,1.1 -0.8,1.2 -0.5,1.1 0.2,0.9 0.6,0.7 0.2,0.2 0.9,0.3 0.8,-0.2 0.8,-0.5 0.2,-0.3 0.2,-0.9 -0.1,-0.8 -0.6,-0.8 -0.2,-0.2 -0.9,-0.2 -0.9,0.1 -0.7,0.6 m 28.8,-12 -0.4,0.8 0.3,0.7 0.4,0.4 0.6,0.2 0.7,-0.2 1,-0.7 0.8,-0.4 0.9,-0.1 0.6,0.2 0.7,0.7 0.2,0.6 v 0.4 l -0.4,0.9 -0.8,0.9 -0.9,0.4 h -0.4 l -0.6,-0.2 -0.7,-0.6 -0.2,-0.7 v -0.8 l 0.4,-0.9 0.6,-1 0.2,-0.7 -0.2,-0.6 -0.5,-0.4 -0.6,-0.2 -0.8,0.4 -1,1 m 3.8,-1.9 0.2,-0.6 -0.1,-1.3 4.6,4.4 m -99.8,11 -0.8,-2.9 -2.6,0.4 0.3,0.2 0.6,0.8 0.2,0.9 -0.1,0.9 -0.4,0.8 -0.8,0.5 -0.6,0.1 h -0.9 l -0.8,-0.4 -0.5,-0.8 -0.2,-0.9 0.1,-0.9 0.2,-0.4 0.5,-0.5 m 6.3,7.6 0.5,-0.4 0.1,-1 -0.2,-0.6 -0.5,-0.8 -1,-0.3 -1.5,0.1 -1.5,0.4 -1.1,0.6 -0.4,0.7 v 1 0.3 l 0.6,0.7 0.7,0.5 h 0.9 l 0.3,-0.1 0.8,-0.5 0.4,-0.7 0.1,-1 -0.1,-0.2 -0.5,-0.8 -0.7,-0.5 h -1 m 18.6,-0.8 1.2,6.9 m -4.7,-4.4 3.5,-2.5 m 3.8,-2.7 -2.4,1.7 1.3,2.4 0.1,-0.4 0.5,-0.8 0.8,-0.5 0.9,-0.3 0.8,0.1 0.8,0.6 0.3,0.5 0.3,0.9 -0.1,0.8 -0.6,0.8 -0.7,0.5 -0.9,0.3 -0.5,-0.1 -0.5,-0.3 m 90.05073,-246.88525 -0.64262,2.99934 2.61315,0.79074 -0.24666,-0.37298 -0.1085,-0.89344 0.18917,-0.92958 0.51094,-0.76719 0.64633,-0.48143 0.99222,-0.12049 0.52022,0.13829 0.85405,0.39996 0.49333,0.74597 0.1085,0.89343 -0.18918,0.92959 -0.51093,0.76719 -0.27356,0.23469 -0.6825,0.18362 m -3.34018,-9.2649 3.47092,3.70861 0.87072,-4.43733 m -4.34164,0.72872 6.08313,1.17522 m 4.23737,-6.14392 2.02088,-2.2877 -1.84717,-1.94481 0.0209,0.4116 -0.36998,0.84418 -0.61957,0.71125 -0.80263,0.45358 -0.82353,0.042 -0.84442,-0.36961 -0.43266,-0.39058 -0.57834,-0.86865 -0.0418,-0.82317 0.36998,-0.84418 0.61957,-0.71126 0.80263,-0.45358 0.41178,-0.021 0.69049,0.20753 m -0.13961,7.77474 -2.18306,2.4416 -0.558,-2.86013 -0.64871,0.61565 -0.54479,0.27057 -0.50743,0.0501 -0.84442,-0.3696 -0.43266,-0.39059 -0.48268,-0.8978 -0.0418,-0.82317 0.36998,-0.84418 0.61957,-0.71126 0.80264,-0.45358 0.41178,-0.021 0.69048,0.20753"
       style="font-variation-settings:normal;opacity:1;vector-effect:none;fill:none;fill-opacity:1;stroke:#000000;stroke-width:1;stroke-linecap:butt;stroke-linejoin:miter;stroke-miterlimit:4;stroke-dasharray:none;stroke-dashoffset:0;stroke-opacity:1;-inkscape-stroke:none;stop-color:#000000;stop-opacity:1" />
    <path
       d="m 134.5,708.7 -39.9,-50 18.7,-64.1 45,-75 -9.2,-53.6 -48.2,-1.2 -46.6,7.9 -17.1,-58.7 28.4,-35.5 26.4,30.6 42.3,-13.3 0.5,-59.9 14.6,-43.1 68.3,-16.7 -39.1,-58.5 -43.6,-13.1 -58,-14.8 13.3,-42.3 40.3,3.6 7.7,-44.8 24.1,-21.1 22.8,-22.6 39,-27.2 24.4,39.6 7.8,56.7 -42,37.2 -14.4,-29 15.1,-27.8 -22.9,21.8 -8.1,31.3 53,18.3 56.7,-7.9 44.9,-12 -1.7,-47.5 2.9,-31.9 12.6,-29.6 49.1,36.4 27,-3.5 -20.1,35.9 8.1,42.8 35.3,0.5 25.3,48.8 -11.9,39.6 -30.8,-16.3 -5.3,-40.7 -77.1,7.2 76.2,13.6 13.1,38.9 -37.9,22.1 -24.3,-38.1 -54.6,34 -36.3,-42.7 14.7,54.1 63.6,-9.9 -4.5,45 43.9,-1.3 34.8,-0.9 9.8,38.1 1.4,53.7 10.4,75.2 -49,22.3 11.2,-53 -21.6,-33.1 12.5,-28.1 -60.6,-9.7 -23.4,-28.4 -51.9,14.1 -9.5,28.7 12.6,20.4 -14.9,44.1 39.6,-24.4 14.7,-18.9 -4,30 -40.7,35.2 -35,-11.3 -46.4,-40.2 23,-20.3 -5.6,-39.1 20.7,-50.1 -44.1,30.9 2.6,75.9 -5.1,53.5 30.6,24.7 36.2,19.9 42.9,-34.5 21.2,66.4 89.4,9.7 34.7,-32.6 42.1,10.4 1.1,74.4 -92.1,25.6 -5.1,55.8 -50.1,-7 -11.6,-65.1 -51.1,-14.2 -51.9,13.8 53.4,-5.5 40.9,33.8 -45.9,47.7 -33.7,-23.3 -45.3,32.5 -11.1,-41.4 -17.5,-39.1 12.8,-60.4 43,16.4 -40.2,-22.4 -28.1,55 -1.6,42.8 z"
       id="coupes_001"
       stroke="#ff0000"
       stroke-width="1.27"
       sodipodi:nodetypes="ccccccccccccccccccccccccccccccccccccccccccccccccccccccccccccccccccccccccccccccccccccccccccccccccccccccccccccc" />
    <path
       d="m 352.1,205.2 -58.3,-29.7 m 44.9,-12 13.4,41.7 m -63.8,27.8 5.5,-57.5 m 58.3,29.7 -63.8,27.8 m 50.4,-69.5 77.9,2.6 m 0,0 -64.5,39.1 M 288.3,233 237.1,183.4 m 51.2,49.6 -70.6,43.1 m 0,0 19.4,-92.7 M 337,116 l 71.5,7.3 m -229.9,94.3 58.5,-34.2 m -58.5,34.2 5.5,-52.5 m 155.8,-81 61.7,6.8 M 135,204.5 184.1,165.1 M 135,204.5 130.6,151 m 0,0 53.5,14.1 M 77,189.7 130.6,151 m 172.4,136.1 -85.3,-11 m 16.4,49.1 -16.4,-49.1 m -27.7,80 27.7,-80 m -27.7,80 -40.6,-63.3 m 40.6,63.3 -55.2,-20.2 m 55.2,20.2 -55.7,39.7 m 58.3,36.2 -58.3,-36.2 m 14.8,70.2 -14.8,-70.2 m 58.3,36.2 -43.5,34 m 130.5,-94.9 -45.5,-45.9 m 68.9,-38.1 -23.4,84 m 23.4,-84 28.5,69.9 m 30.6,-34.8 -30.6,34.8 m 74.5,-36.1 -51.1,64.5 m -84.8,14.4 -56.7,-24.5 m 237.2,-17.2 -35.1,37 m 36.5,16.7 -49,11.4 M 270.1,399.8 219,414.4 M 462.4,487 403,423.2 m -215.5,62.3 -29.2,34.1 m 21.9,51.5 -21.9,-51.5 m 59.8,-9.4 -37.9,60.9 M 282.7,420.2 219,414.4 m 23.4,60.5 -23.4,-60.5 m 88.4,25.5 -30,46.3 m 30,-46.3 10.7,11.1 m -137.9,120.1 -66.9,23.5 m 38.8,31.5 -38.8,-31.5 m 38.8,31.5 -57.5,32.6 m 55.9,10.2 -55.9,-10.2 m 123.5,-148.5 2.3,83.3 m 33.9,-63.4 -33.9,63.4 m 55.3,25.5 -55.3,-25.5 m 33.9,-63.4 21.4,88.9 m -21.4,-88.9 64.1,31.9 m 0,0 -42.7,57 m 42.7,-57 8.4,71.2 m 81,-61.5 -81,61.5 m 66.8,16.3 -66.8,-16.3 m 81,-61.5 -14.2,77.8 m 14.2,-77.8 77.9,52.2 m -77.9,-52.2 76.8,-22.2 m -260.8,83.3 -3.4,-39.3 m 3.4,39.3 -59.2,4.7 m 0,0 55.8,-44 m 3.4,39.3 -41.7,43.8 m 56.4,8.9 -56.4,-8.9 m 41.7,-43.8 14.7,52.7 M 149.1,466 92,409.1 m 8.9,55.7 L 92,409.1 M 451.9,166.6 429.2,198 m 48,17.4 -48,-17.4 m 48,17.4 -42.7,23.3 m -82.4,-33.5 -27.5,70.5 m 27.5,-70.5 27.1,36.5 m 49.1,-22.9 -49.1,22.9 m 49.1,-22.9 -24.8,61 M 130.6,151 192.2,133.8 m -53.9,-27.6 53.9,27.6 m -29.8,-48.7 29.8,48.7 M 162.4,85.1 215.1,112 M 185.2,62.5 215.1,112 M 248.6,74.9 215.1,112 m -29.9,-49.5 63.4,12.4 m 7.8,56.7 -41.3,-19.6 m 41.3,19.6 -56.4,8.2 M 37.2,414 92,409.1 m 8.9,55.7 L 37.2,414 m 356.4,235.5 -55.2,48.8 m -61.2,-71 -38.7,58.2 m 79.6,-24.4 -79.6,24.4"
       id="plisM_001"
       stroke="#a52a2a"
       stroke-dasharray="4" />
    <path
       d="m 337,116 79.6,50.1 M 337,116 401.6,90.9 m 0,0 6.9,32.4 M 303,287.1 234.1,325.2 M 187.5,485.5 149.1,466 M 303,287.1 l 59.1,35.1 m 0,0 -7.2,63.2 m 51.1,-64.5 9.5,74.2 m -135.9,-24 -66.2,4.2 m 192.6,-54.4 44.6,37.2 m 1.4,53.7 -36.5,-16.7 m 46.9,91.9 -37.8,-30.7 m -206.5,53.9 -59.8,9.4 M 267.8,464.3 219,414.4 m 48.8,49.9 -25.4,10.6 m 25.4,-10.6 9.6,21.9 M 416.6,166.1 429.2,198"
       id="plisV_001"
       stroke="#008000"
       stroke-dasharray="4, 1, 1, 1"
       stroke-width="1.27" />
    <path
       d="m 374.8,139.1 4,4 m 0,-4 -4,4 m -7.5,-41.6 4,4 m 0,-4 -4,4 m 35.8,-0.4 4,4 m 0,-4 -4,4 m -136.5,195.1 4,4 m 0,-4 -4,4 m -100.3,165.5 4,4 m 0,-4 -4,4 m 164.3,-175 4,4 m 0,-4 -4,4 m 25.9,45.1 4,4 m 0,-4 -4,4 m 52.2,0.2 4,4 m 0,-4 -4,4 m -164.2,11.2 4,4 m 0,-4 -4,4 m 181.8,-37.7 4,4 m 0,-4 -4,4 m 5.4,60 4,4 m 0,-4 -4,4 m 9.8,64.1 4,4 m 0,-4 -4,4 m -255.3,39.3 4,4 m 0,-4 -4,4 m 55.2,-79.5 4,4 m 0,-4 -4,4 m 11.7,26.2 4,4 m 0,-4 -4,4 m 17.5,1.6 4,4 m 0,-4 -4,4 M 420.9,180 l 4,4 m 0,-4 -4,4"
       id="marqueV_001"
       stroke="#008000" />
    <path
       d="m 252.1,378.57364 1.5,-0.7 2.3,-2.3 v 15.8"
       id="titre_1"
       stroke="#4b0082" />
  </g>
  <g
     id="page_002">
    <path
       d="m 700.7,463.3 1.5,-4.9 -4.2,1.4 m 2.7,3.5 -2,-6 m -4.4,8 0.9,-6.9 m 3.1,5.6 -4,1.3 m 88.8,139.4 -0.1,0.9 -0.4,0.8 -0.8,0.5 -0.3,0.1 -0.9,-0.1 -0.8,-0.4 -0.5,-0.7 -0.1,-0.3 0.1,-1 0.4,-0.7 0.8,-0.6 h 0.2 1 l 0.7,0.4 0.7,1.1 0.4,1.4 0.1,1.5 -0.3,1.1 -0.8,0.5 -0.6,0.2 -0.9,-0.1 -0.5,-0.5 m 7.4,-5.5 v 0.9 l -0.4,0.8 -0.8,0.5 -0.3,0.1 -1,-0.1 -0.7,-0.4 -0.5,-0.7 -0.1,-0.3 v -1 l 0.4,-0.7 0.8,-0.6 h 0.3 0.9 l 0.8,0.4 0.6,1.1 0.4,1.4 0.2,1.5 -0.4,1.1 -0.8,0.5 -0.5,0.2 -1,-0.1 -0.4,-0.5 m -153.6,-115.8 0.6,-0.7 -0.1,-0.7 -0.3,-0.5 -0.5,-0.4 -0.7,0.1 -1.2,0.3 -0.9,0.2 -0.9,-0.2 -0.5,-0.4 -0.5,-0.7 v -0.7 l 0.1,-0.4 0.6,-0.7 1,-0.6 1,-0.2 0.4,0.1 0.5,0.3 0.5,0.8 v 0.7 l -0.2,0.8 -0.6,0.7 -0.9,0.9 -0.3,0.5 v 0.7 l 0.3,0.5 0.6,0.4 0.9,-0.2 1.2,-0.7 m -4,2.3 -2.8,1.7 0.3,-3 -0.7,0.5 -0.7,0.1 -0.4,-0.1 -0.7,-0.7 -0.4,-0.5 -0.2,-0.9 0.3,-0.8 0.6,-0.7 0.7,-0.5 1,-0.2 0.4,0.1 0.5,0.4 m -17.3,104.5 -1,0.1 -0.4,0.5 -0.1,0.6 0.1,0.6 0.5,0.4 1.1,0.6 0.8,0.5 0.5,0.7 0.1,0.7 -0.2,0.9 -0.4,0.5 -0.4,0.2 -0.9,0.1 -1.2,-0.3 -0.8,-0.5 -0.2,-0.4 -0.2,-0.6 0.3,-0.9 0.4,-0.5 0.7,-0.4 1,-0.1 h 1.2 l 0.6,-0.2 0.5,-0.5 0.1,-0.6 -0.1,-0.6 -0.8,-0.5 -1.4,-0.4 m 4.1,2.5 0.1,-0.2 0.4,-0.6 0.3,-0.2 0.7,-0.1 1.2,0.2 0.5,0.5 0.2,0.3 0.2,0.7 -0.2,0.6 -0.4,0.5 -0.8,0.7 -3.6,2.2 4.1,1 m -16.1,-52.2 -0.1,-0.9 -0.8,-0.7 -1.4,-0.6 -0.9,-0.1 h -1.5 l -1,0.5 -0.5,0.8 -0.1,0.6 0.2,0.9 0.8,0.8 1.4,0.5 0.9,0.2 1.5,-0.1 1,-0.4 0.4,-0.9 0.1,-0.4 m 248,-42.6 -0.3,-7 m 4,5 -3.7,2 m -1.6,-0.8 -0.4,0.5 -0.3,1.3 -3,-5.6 m 44.1,34.3 4.7,5.2 m -6.3,-1.4 1.6,-3.8 m 1.6,-4 2.7,4.4 1.8,-4.2 m -4.5,-0.2 5.8,2.4 m -8.5,-30.7 6.9,-1 m -4.5,4.5 -2.4,-3.5 m 0.3,-2.2 -0.2,0.2 -0.7,0.1 -0.4,-0.1 -0.6,-0.3 -0.7,-1 -0.1,-0.7 0.1,-0.4 0.3,-0.6 0.5,-0.3 0.7,-0.1 h 1.1 l 4.2,0.8 -2.4,-3.5 m -127.3,-85 -3.2,-4.2 -1.3,4.3 m 4.5,-0.1 -6.1,-1.9 m 2,7.5 -0.7,-0.6 -0.4,-0.7 -0.1,-1 0.1,-0.3 0.6,-0.7 0.7,-0.4 1,-0.1 0.3,0.1 0.7,0.6 0.4,0.7 0.1,1 -0.1,0.3 -0.6,0.7 -0.7,0.4 h -1.3 l -1.4,-0.5 -1.3,-0.7 -0.7,-0.9 V 414 l 0.1,-0.6 0.6,-0.8 0.7,-0.1 m 71.1,70.5 3.1,6.3 m -5.7,-3 2.6,-3.3 m 1.8,0 0.2,-0.6 -0.2,-1.3 4.9,3.9 m 48.2,-29.5 -5.2,4.6 m 1.3,-6.2 3.9,1.6 m 1,2 0.1,-0.3 0.5,-0.4 0.4,-0.2 h 0.6 l 1.2,0.4 0.4,0.5 0.2,0.4 v 0.7 l -0.2,0.5 -0.5,0.5 -0.9,0.6 -4,1.6 3.9,1.6 m -26.9,-63.8 -0.6,-6.9 m 4.2,4.8 -3.6,2.1 m -2.5,1.6 0.6,-0.8 0.1,-1 -0.5,-1.5 -0.5,-0.8 -1,-1.1 -1,-0.5 -0.9,0.3 -0.5,0.3 -0.7,0.7 v 1.1 l 0.5,1.4 0.5,0.8 1,1.1 1,0.5 0.9,-0.2 0.4,-0.3 m 50.6,-2.6 -0.1,0.6 0.7,0.7 0.5,0.3 0.9,0.2 1,-0.5 1,-1.1 0.7,-1.3 0.3,-1.2 -0.2,-0.9 -0.6,-0.7 -0.3,-0.1 -0.9,-0.2 -0.9,0.2 -0.7,0.7 -0.1,0.3 -0.2,0.9 0.3,0.8 0.6,0.7 0.3,0.1 0.9,0.2 0.8,-0.2 0.7,-0.6 m -8.8,-2.6 0.7,-0.6 0.8,-0.2 0.9,0.1 0.3,0.2 0.6,0.7 0.3,0.8 -0.2,0.9 -0.2,0.3 -0.7,0.6 -0.8,0.3 -0.9,-0.2 -0.3,-0.2 -0.6,-0.7 -0.3,-0.8 0.4,-1.2 0.7,-1.3 1,-1.1 1,-0.5 0.9,0.1 0.5,0.3 0.7,0.7 -0.1,0.7 m 29.6,100.6 0.6,7 m -4.2,-4.8 3.6,-2.2 m 1.5,-0.9 2.8,-1.7 -0.3,3 0.8,-0.4 0.7,-0.1 0.4,0.1 0.7,0.6 0.3,0.6 0.2,0.9 -0.2,0.8 -0.6,0.7 -0.8,0.5 -0.9,0.2 -0.4,-0.1 -0.6,-0.4 m -25.4,-7.1 -6.9,-1.1 m 5.7,-2.9 1.2,4 m 1.2,4.2 -4.8,-1.8 1.2,4.4 m 3.6,-2.6 -6,1.7 m 69.5,-30.4 0.3,-0.6 v -1.3 l 4.2,4.7 m -2.1,-6.8 -0.5,0.8 0.2,1.1 0.8,1.3 0.5,0.7 1.3,0.9 1,0.3 0.9,-0.4 0.4,-0.4 0.5,-0.8 -0.1,-1.1 -0.8,-1.3 -0.6,-0.7 -1.2,-0.9 -1.1,-0.3 -0.8,0.4 -0.4,0.3 m 3.9,-3.5 -0.4,0.9 0.1,1 0.8,1.4 0.6,0.6 1.2,1 1,0.2 0.9,-0.3 0.4,-0.4 0.5,-0.8 -0.1,-1.1 -0.8,-1.3 -0.6,-0.7 -1.2,-0.9 -1,-0.3 -0.9,0.3 -0.4,0.3 m -31.7,-83.1 -0.8,-0.6 -0.3,-0.8 v -0.9 l 0.1,-0.3 0.6,-0.7 0.8,-0.4 h 0.9 l 0.3,0.2 0.7,0.5 0.4,0.8 v 1 l -0.2,0.2 -0.5,0.8 -0.8,0.3 -1.2,-0.1 -1.5,-0.5 -1.3,-0.8 -0.6,-0.9 v -0.9 l 0.2,-0.6 0.6,-0.7 0.7,-0.1 m 2.4,9.3 -2.9,-4.3 -1.6,4.2 m 4.5,0.1 -5.9,-2.2 m 31.7,-12.4 2.5,1.6 1.7,-2.2 -0.4,0.1 -1,-0.2 -0.7,-0.5 -0.6,-0.7 -0.2,-0.8 0.2,-1 0.3,-0.5 0.8,-0.6 0.8,-0.2 0.9,0.3 0.8,0.4 0.6,0.8 0.1,0.4 -0.1,0.7 m -10.7,-0.7 5.9,-3.8 m -2.3,6 -3.6,-2.2 m -145.7,-56.3 0.7,0.1 0.8,-0.5 0.4,-0.5 0.3,-0.8 -0.3,-1.1 -1,-1.2 -1.1,-0.9 -1.1,-0.5 h -0.9 l -0.8,0.5 -0.2,0.3 -0.3,0.9 0.1,0.8 0.5,0.8 0.2,0.2 0.9,0.3 h 0.8 l 0.8,-0.5 0.2,-0.3 0.4,-0.9 -0.1,-0.8 -0.5,-0.8 m -1.9,9 -1.4,-5 -2.8,3.5 m 4.2,1.5 -4.9,-4 m 15.5,73.3 3.1,6.3 m -5.7,-3 2.6,-3.3 m 1.8,-2.3 -0.3,0.9 0.3,1.1 1,1.1 0.7,0.6 1.4,0.7 1.1,0.1 0.8,-0.6 0.3,-0.4 0.4,-0.9 -0.4,-1 -1,-1.2 -0.7,-0.6 -1.3,-0.7 -1.1,-0.1 -0.8,0.6 -0.3,0.3 m 20,-84.9 0.5,-0.7 0.8,-0.4 h 1 l 0.2,0.1 0.8,0.6 0.4,0.7 v 1 l -0.1,0.3 -0.6,0.7 -0.8,0.4 h -0.9 l -0.3,-0.1 -0.8,-0.6 -0.3,-0.7 0.1,-1.3 0.5,-1.4 0.7,-1.3 0.9,-0.7 h 0.9 l 0.6,0.2 0.8,0.6 v 0.7 m -9.6,2.4 2.8,1 1.2,-2.5 -0.4,0.2 h -0.9 l -0.9,-0.3 -0.7,-0.6 -0.4,-0.8 v -0.9 l 0.2,-0.6 0.6,-0.7 0.7,-0.4 h 1 l 0.8,0.3 0.8,0.6 0.2,0.4 0.1,0.6 m 36.7,68.2 -0.2,-0.7 -0.8,-0.5 -0.6,-0.1 -0.9,0.1 -0.8,0.8 -0.6,1.4 -0.3,1.5 v 1.2 l 0.5,0.7 0.8,0.5 0.3,0.1 0.9,-0.2 0.7,-0.4 0.5,-0.8 0.1,-0.3 -0.1,-1 -0.5,-0.7 -0.8,-0.5 h -0.3 l -0.9,0.1 -0.7,0.4 -0.5,0.9 m 9.2,-0.2 -0.5,0.8 -0.7,0.4 -1,0.1 h -0.3 l -0.8,-0.5 -0.4,-0.7 -0.2,-0.9 0.1,-0.3 0.5,-0.9 0.7,-0.4 0.9,-0.1 h 0.3 l 0.9,0.5 0.4,0.7 0.1,1.3 -0.3,1.4 -0.6,1.4 -0.8,0.8 -1,0.1 -0.6,-0.1 -0.8,-0.5 -0.1,-0.7 m 29.1,-23.9 0.9,0.4 0.4,0.7 0.2,1 -0.1,0.3 -0.4,0.8 -0.7,0.5 -0.9,0.1 h -0.3 l -0.9,-0.5 -0.5,-0.7 -0.1,-0.9 v -0.3 l 0.5,-0.8 0.7,-0.5 1.2,-0.1 1.5,0.2 1.4,0.6 0.8,0.7 0.2,1 -0.2,0.6 -0.4,0.8 -0.6,0.2 m -4.1,-8.7 3.6,3.7 0.8,-4.5 m -4.4,0.8 6.2,1 m -37.3,-44.7 -0.3,-1 0.1,-0.8 0.6,-0.8 0.2,-0.1 0.9,-0.3 0.8,0.1 0.8,0.5 0.2,0.3 0.3,0.9 -0.1,0.8 -0.6,0.8 -0.2,0.2 -0.9,0.3 -0.9,-0.2 -0.9,-0.7 -0.9,-1.3 -0.7,-1.3 v -1.1 l 0.5,-0.8 0.5,-0.4 0.9,-0.2 0.6,0.3 m -4,8.6 0.6,0.3 0.9,-0.3 0.5,-0.4 0.5,-0.8 v -1.1 l -0.7,-1.3 -0.9,-1.2 -1,-0.8 -0.8,-0.1 -0.9,0.2 -0.2,0.2 -0.6,0.8 -0.1,0.8 0.3,0.9 0.2,0.3 0.8,0.5 0.8,0.2 0.9,-0.3 0.2,-0.2 0.6,-0.8 0.1,-0.8 -0.3,-0.9 m 12.8,-45.4 -4.4,-2.6 0.4,4.5 m 4,-1.9 -6.2,0.6 m 5.8,5.7 0.6,-0.3 0.2,-0.9 -0.1,-0.6 -0.3,-0.9 -1,-0.5 -1.5,-0.2 -1.5,0.1 -1.2,0.4 -0.5,0.7 -0.2,0.9 v 0.3 l 0.4,0.9 0.6,0.5 0.9,0.2 h 0.3 l 0.9,-0.4 0.5,-0.6 0.3,-0.9 -0.1,-0.3 -0.3,-0.9 -0.7,-0.5 -0.9,-0.3 m 19.1,-10.1 h -0.7 l -1.2,0.4 2.9,-5.6 m -5.4,4.5 1,0.2 0.5,-0.4 0.3,-0.6 v -0.6 l -0.4,-0.6 -0.9,-0.8 -0.7,-0.7 -0.2,-0.8 V 231 l 0.4,-0.8 0.6,-0.4 0.4,-0.1 0.9,0.2 1.1,0.5 0.6,0.7 0.1,0.4 v 0.7 l -0.4,0.8 -0.5,0.4 -0.8,0.2 -1,-0.1 -1.2,-0.3 h -0.7 l -0.5,0.4 -0.3,0.5 v 0.7 l 0.7,0.6 1.2,0.7 m -159.2,417 -0.5,0.4 -0.2,1 0.2,0.6 0.4,0.8 1,0.4 h 1.5 l 1.5,-0.2 1.1,-0.6 0.5,-0.7 0.1,-0.9 v -0.3 l -0.5,-0.8 -0.7,-0.5 -0.9,-0.1 h -0.3 l -0.8,0.5 -0.5,0.7 -0.1,0.9 v 0.3 l 0.5,0.9 0.7,0.4 0.9,0.2 m -5.7,-7.7 0.5,2.9 2.8,-0.2 -0.4,-0.2 -0.5,-0.9 -0.1,-0.9 0.1,-0.9 0.5,-0.7 0.8,-0.5 0.6,-0.1 0.9,0.2 0.7,0.4 0.5,0.9 0.2,0.9 -0.2,0.9 -0.2,0.3 -0.5,0.4 m -22.7,16.4 -2.9,-0.6 -0.8,2.6 0.4,-0.2 0.9,-0.1 0.9,0.1 0.8,0.5 0.5,0.7 0.1,0.9 -0.1,0.6 -0.4,0.8 -0.7,0.5 -1,0.2 -0.8,-0.2 -0.9,-0.5 -0.2,-0.3 -0.2,-0.6 m 9.7,-3.5 -3,-0.5 -0.7,2.6 0.3,-0.2 1,-0.2 0.8,0.2 0.9,0.4 0.5,0.7 0.1,1 -0.1,0.6 -0.5,0.8 -0.7,0.5 -0.9,0.1 -0.9,-0.1 -0.8,-0.5 -0.3,-0.3 -0.2,-0.7 m 141.5,-4.7 0.5,0.4 1.2,0.3 -5.4,3.1 m 7.1,-0.6 -0.7,-0.6 -1.1,-0.1 -1.5,0.5 -0.7,0.4 -1.2,1 -0.5,1 0.2,0.9 0.3,0.5 0.7,0.7 h 1.1 l 1.4,-0.4 0.8,-0.5 1.2,-1 0.5,-0.9 -0.2,-1 -0.3,-0.4 m 0.5,3.6 0.5,0.4 1.2,0.3 -5.4,3.1 m 69.4,-8.2 0.9,-0.4 h 0.8 l 0.9,0.4 0.2,0.3 0.4,0.8 v 0.9 l -0.4,0.8 -0.2,0.2 -0.9,0.4 h -0.8 l -0.9,-0.4 -0.2,-0.2 -0.4,-0.8 v -0.9 l 0.6,-1.1 1.1,-1 1.3,-0.9 1,-0.2 0.9,0.4 0.4,0.5 0.4,0.8 -0.2,0.7 m -8.2,-0.6 0.8,0.4 0.7,-0.2 0.4,-0.5 0.2,-0.6 -0.2,-0.6 -0.7,-1.1 -0.4,-0.8 v -0.9 l 0.2,-0.6 0.7,-0.7 0.6,-0.2 h 0.4 l 0.9,0.5 0.8,0.8 0.5,0.9 v 0.4 l -0.3,0.6 -0.6,0.6 -0.6,0.3 h -0.9 l -0.8,-0.5 -1.1,-0.6 -0.6,-0.2 -0.7,0.2 -0.4,0.4 -0.2,0.7 0.4,0.8 1,1 m -14.5,18.1 -0.4,-0.5 -0.9,-0.2 -0.6,0.1 -0.9,0.4 -0.4,1 -0.1,1.5 0.2,1.5 0.4,1.1 0.7,0.6 0.9,0.1 h 0.3 l 0.9,-0.4 0.5,-0.7 0.2,-0.9 -0.1,-0.3 -0.4,-0.9 -0.7,-0.5 -0.9,-0.2 -0.3,0.1 -0.8,0.4 -0.6,0.7 -0.1,0.9 m 6.2,-5.1 -0.9,0.4 -0.4,1 -0.1,1.5 0.1,0.9 0.5,1.5 0.7,0.8 0.9,0.2 0.6,-0.1 0.9,-0.4 0.4,-1 0.1,-1.5 -0.1,-0.9 -0.5,-1.5 -0.7,-0.8 -0.9,-0.1 H 932 m -18.3,-107.5 4.9,-5 m -0.9,6.3 -4,-1.3 m -1.6,-0.6 -3.1,-1.1 2.5,-1.7 -0.9,-0.3 -0.5,-0.4 -0.1,-0.4 v -1 l 0.2,-0.5 0.5,-0.8 0.8,-0.4 h 1 l 0.8,0.3 0.8,0.6 0.1,0.4 0.1,0.7 m 40.9,-307.9 -0.7,-0.3 h -1.2 l 4.6,-4.3 m -8.4,0.7 6.7,-2.2 m -3.8,5.2 -2.9,-3 m 10.8,55.1 -2.1,-2.2 -2.1,1.7 h 0.4 l 0.8,0.5 0.7,0.6 0.4,0.8 v 0.9 l -0.4,0.8 -0.4,0.5 -0.9,0.4 h -0.8 l -0.9,-0.4 -0.6,-0.7 -0.5,-0.8 v -0.4 l 0.2,-0.7 m 10.3,3 -6.6,2.4 m 3.6,-5.3 3,2.9 m 32.4,-21.1 -0.6,-0.1 -1.3,0.3 3.6,-5.2 m -7.6,2.6 2.5,1.7 1.8,-2 -0.5,0.1 -0.9,-0.3 -0.7,-0.5 -0.6,-0.8 -0.1,-0.8 0.2,-0.9 0.4,-0.5 0.8,-0.6 0.8,-0.1 0.9,0.2 0.7,0.6 0.6,0.7 0.1,0.4 -0.1,0.7 m 21.8,89.8 h 1 l 0.4,-0.5 0.2,-0.6 -0.2,-0.7 -0.5,-0.4 -1,-0.6 -0.8,-0.6 -0.4,-0.7 -0.1,-0.7 0.2,-0.8 0.5,-0.5 0.3,-0.2 1,-0.1 1.1,0.3 0.8,0.6 0.2,0.3 0.1,0.7 -0.2,0.9 -0.5,0.5 -0.7,0.4 h -0.9 -1.3 l -0.6,0.1 -0.5,0.5 -0.2,0.6 0.2,0.6 0.8,0.6 1.3,0.3 m -7.1,-4.1 0.6,-0.8 0.7,-0.4 0.9,-0.1 0.3,0.1 0.8,0.5 0.4,0.8 0.1,0.9 -0.1,0.3 -0.5,0.8 -0.8,0.4 -0.9,0.1 -0.3,-0.1 -0.8,-0.6 -0.4,-0.7 v -1.2 l 0.4,-1.5 0.7,-1.3 0.9,-0.7 0.9,-0.1 0.6,0.2 0.8,0.5 0.1,0.7 m -0.3,55.1 0.3,0.9 -0.1,0.8 -0.6,0.8 -0.2,0.2 -0.9,0.3 -0.8,-0.1 -0.8,-0.6 -0.2,-0.2 -0.3,-0.9 0.1,-0.8 0.6,-0.8 0.2,-0.2 0.9,-0.3 0.8,0.1 1,0.8 0.9,1.2 0.7,1.4 v 1.1 l -0.5,0.7 -0.5,0.4 -0.9,0.3 -0.6,-0.3 m 1.3,-6 0.3,-0.6 0.2,-1.2 3.8,5 m 6.3,-27 -0.3,0.1 -0.7,-0.3 -0.3,-0.2 -0.4,-0.6 -0.1,-1.2 0.2,-0.6 0.3,-0.3 0.6,-0.4 0.6,-0.1 0.6,0.3 1,0.5 3.3,2.6 -0.5,-4.2 m -4.7,-4.5 0.9,0.2 0.7,0.5 0.4,0.9 v 0.3 l -0.2,0.9 -0.5,0.7 -0.9,0.3 -0.3,0.1 -0.9,-0.2 -0.7,-0.6 -0.4,-0.8 v -0.3 l 0.2,-0.9 0.5,-0.7 1.2,-0.4 1.5,-0.2 1.5,0.1 1,0.5 0.4,0.9 v 0.6 l -0.2,0.9 -0.5,0.4 M 994.2,342 h -0.9 l -0.5,0.4 -0.2,0.6 0.1,0.7 0.5,0.4 1,0.7 0.8,0.6 0.3,0.7 0.1,0.7 -0.3,0.9 -0.4,0.4 -0.4,0.2 h -1 l -1.1,-0.4 -0.8,-0.5 -0.1,-0.4 -0.1,-0.7 0.3,-0.8 0.4,-0.5 0.8,-0.4 h 0.9 l 1.3,0.1 0.6,-0.1 0.5,-0.5 0.2,-0.5 -0.1,-0.7 -0.7,-0.6 -1.3,-0.4 m 5.2,1.8 h -1 l -0.4,0.4 -0.2,0.6 0.1,0.7 0.4,0.4 1.1,0.7 0.7,0.6 0.4,0.7 0.1,0.7 -0.3,0.9 -0.5,0.4 -0.3,0.2 h -1 l -1.1,-0.4 -0.8,-0.5 -0.2,-0.4 -0.1,-0.7 0.3,-0.8 0.5,-0.5 0.8,-0.4 h 0.9 l 1.2,0.1 0.7,-0.1 0.5,-0.4 0.2,-0.6 -0.1,-0.7 -0.8,-0.5 -1.3,-0.5 m 10.5,-7.5 0.1,0.9 0.6,0.4 0.6,0.1 0.6,-0.2 0.4,-0.6 0.5,-1.1 0.4,-0.9 0.7,-0.5 0.6,-0.2 0.9,0.2 0.6,0.4 0.2,0.3 0.2,0.9 -0.2,1.2 -0.4,0.9 -0.4,0.2 -0.6,0.2 -0.9,-0.1 -0.6,-0.4 -0.5,-0.7 -0.1,-0.9 -0.1,-1.3 -0.2,-0.6 -0.6,-0.4 -0.6,-0.1 -0.6,0.2 -0.5,0.9 -0.2,1.3 m 1.2,-7.5 -0.5,3 2.7,0.7 -0.3,-0.4 -0.1,-0.9 0.1,-0.9 0.4,-0.8 0.7,-0.5 0.9,-0.2 0.6,0.1 0.9,0.4 0.5,0.7 0.1,1 -0.1,0.9 -0.4,0.8 -0.4,0.3 -0.6,0.2 m -39.8,264.1 -0.7,0.2 -1.1,0.6 1.7,-6.1 m -4.6,5.5 h 0.9 l 0.9,-0.8 0.7,-1.3 0.2,-0.9 0.1,-1.5 -0.3,-1 -0.8,-0.6 -0.6,-0.1 h -0.9 l -0.9,0.7 -0.7,1.4 -0.2,0.8 -0.1,1.6 0.3,1 0.8,0.5 0.4,0.2 m -5,-1.4 1,-0.1 0.8,-0.7 0.7,-1.4 0.2,-0.8 0.2,-1.6 -0.4,-1 -0.8,-0.5 -0.5,-0.2 -1,0.1 -0.8,0.7 -0.7,1.3 -0.2,0.9 -0.2,1.5 0.4,1.1 0.8,0.5 0.4,0.1 m -7.5,55.7 -0.7,0.6 -0.8,0.3 -1,-0.2 -0.2,-0.2 -0.7,-0.7 -0.2,-0.8 0.1,-0.9 0.2,-0.3 0.7,-0.6 0.8,-0.3 0.9,0.2 0.3,0.2 0.6,0.7 0.3,0.8 -0.3,1.2 -0.8,1.3 -0.9,1.2 -1,0.5 -0.9,-0.2 -0.6,-0.3 -0.6,-0.7 v -0.7 m 8.1,-1.7 -0.9,-0.2 -0.6,0.4 -0.3,0.5 v 0.7 l 0.4,0.6 0.9,0.8 0.6,0.7 0.3,0.8 -0.1,0.7 -0.4,0.8 -0.6,0.4 -0.4,0.1 -0.9,-0.2 -1,-0.6 -0.7,-0.7 -0.1,-0.4 v -0.6 l 0.5,-0.8 0.5,-0.4 0.8,-0.3 1,0.2 1.2,0.3 0.6,0.1 0.6,-0.4 0.3,-0.5 v -0.7 l -0.7,-0.7 -1.1,-0.7 m 40.9,1.8 0.3,0.9 v 0.9 l -0.5,0.8 -0.2,0.2 -0.9,0.3 h -0.9 l -0.8,-0.5 -0.2,-0.3 -0.3,-0.8 v -0.9 l 0.5,-0.8 0.3,-0.2 0.8,-0.3 h 0.9 l 1,0.7 1,1.2 0.7,1.3 0.1,1.1 -0.5,0.8 -0.4,0.4 -0.9,0.3 -0.6,-0.2 m 1.5,-6.4 -0.2,-0.2 -0.2,-0.7 v -0.4 l 0.3,-0.6 0.9,-0.8 0.7,-0.2 0.4,0.1 0.6,0.2 0.4,0.5 0.2,0.7 0.1,1 -0.4,4.3 3.2,-2.8 m 7.4,-52.8 0.2,-1 0.5,-0.6 0.9,-0.4 0.3,-0.1 0.9,0.2 0.7,0.5 0.4,0.9 v 0.3 l -0.2,0.9 -0.5,0.7 -0.9,0.4 h -0.3 l -0.9,-0.2 -0.7,-0.5 -0.4,-1.1 -0.2,-1.5 0.1,-1.6 0.5,-0.9 0.9,-0.4 0.6,-0.1 0.9,0.2 0.4,0.5 m -4.2,4.6 -0.5,0.3 -0.8,1.1 -0.8,-6.3 m 8.6,23.2 0.4,-3.2 2.1,2 0.2,-0.9 0.3,-0.5 0.4,-0.3 0.9,-0.2 0.6,0.1 0.8,0.4 0.6,0.7 0.2,0.9 -0.2,0.9 -0.4,0.9 -0.3,0.2 -0.6,0.3 m -3.1,-5.7 -0.2,-0.7 -0.8,-1 6.3,0.8 M 709.2,316 h 0.7 l 1.2,-0.4 -3,5.6 m 6.9,-3.8 -4.6,2.3 4,2.1 m 0.6,-4.4 -3,5.6 m 11.8,-28.8 -0.3,0.6 -0.2,1.2 -3.7,-5.1 m -1.5,6.6 -0.3,-0.9 0.2,-0.9 0.5,-0.7 0.3,-0.2 0.9,-0.3 0.8,0.1 0.8,0.6 0.2,0.2 0.2,0.9 -0.1,0.9 -0.5,0.7 -0.3,0.2 -0.9,0.3 -0.8,-0.1 -1,-0.8 -0.9,-1.2 -0.6,-1.4 v -1.1 l 0.5,-0.8 0.5,-0.3 0.9,-0.3 0.6,0.3 m 89.9,5.5 h -0.7 l -0.7,0.6 -0.3,0.5 -0.2,1 0.5,0.9 1.1,1 1.3,0.8 1.2,0.4 0.8,-0.3 0.7,-0.6 0.2,-0.2 0.2,-1 -0.3,-0.8 -0.6,-0.7 -0.2,-0.2 -1,-0.2 -0.8,0.3 -0.7,0.6 -0.2,0.2 -0.1,1 0.2,0.8 0.6,0.7 m 0.5,-9.2 2.1,4.7 2.2,-3.9 m -4.3,-0.8 5.4,3.2 m 0.5,-7.5 2.8,-1.1 -0.7,-2.6 -0.2,0.4 -0.7,0.6 -0.9,0.3 -0.9,0.1 -0.8,-0.3 -0.6,-0.8 -0.2,-0.5 -0.1,-1 0.3,-0.8 0.8,-0.6 0.8,-0.3 1,-0.1 0.3,0.2 0.5,0.5 m -4.1,5.5 0.1,0.3 v 0.6 l -0.2,0.4 -0.4,0.5 -1.1,0.5 -0.7,-0.1 -0.4,-0.2 -0.5,-0.4 -0.2,-0.6 v -0.6 l 0.3,-1.1 1.6,-3.9 -3.9,1.6 m -48,-35.3 v 0.7 l 0.6,1.1 -5.9,-2.1 m 3.6,6.3 h 0.7 l 0.6,-0.8 0.2,-0.5 v -1 l -0.6,-0.9 -1.4,-0.8 -1.4,-0.5 -1.2,-0.1 -0.8,0.4 -0.6,0.7 -0.1,0.3 v 0.9 l 0.4,0.8 0.7,0.6 0.3,0.1 h 1 l 0.7,-0.3 0.6,-0.8 0.1,-0.3 v -0.9 l -0.3,-0.8 -0.8,-0.6 m 56.7,-50.8 h -0.3 l -0.6,-0.3 -0.3,-0.3 -0.3,-0.6 V 199 l 0.4,-0.6 0.3,-0.3 0.6,-0.3 0.6,0.1 0.6,0.3 0.8,0.6 2.9,3.1 0.2,-4.2 m -6.2,-4.5 4.1,3.2 0.1,-4.5 m -4.2,1.3 6.3,0.2 M 732.7,215 h 0.7 l 1.2,-0.4 -2.6,5.7 m 5.4,-4.7 -1,-0.1 -0.9,0.6 -0.9,1.2 -0.4,0.8 -0.3,1.5 0.2,1.1 0.7,0.6 0.5,0.3 1,0.1 0.9,-0.6 0.9,-1.3 0.3,-0.8 0.4,-1.5 -0.2,-1 -0.7,-0.7 -0.4,-0.2 m 57.9,-30.9 -0.6,0.2 -1,0.9 0.6,-6.3 m -3.3,6.2 1,-0.2 0.3,-0.6 0.1,-0.6 -0.3,-0.6 -0.5,-0.4 -1.2,-0.4 -0.9,-0.4 -0.5,-0.6 -0.2,-0.6 0.1,-0.9 0.3,-0.6 0.3,-0.3 1,-0.2 1.2,0.1 0.8,0.4 0.3,0.4 0.2,0.6 -0.1,0.9 -0.3,0.5 -0.7,0.6 -0.9,0.2 -1.2,0.2 -0.6,0.2 -0.4,0.6 -0.1,0.6 0.3,0.6 0.8,0.4 1.4,0.1 m 13.6,87.9 -2.6,1.5 1.1,2.5 0.1,-0.4 0.6,-0.7 0.8,-0.5 1,-0.2 0.8,0.3 0.7,0.6 0.3,0.5 0.2,0.9 -0.3,0.9 -0.6,0.7 -0.8,0.4 -0.9,0.2 -0.4,-0.1 -0.6,-0.4 m 3.3,-6 -0.1,-0.3 v -0.6 l 0.1,-0.5 0.3,-0.5 1.1,-0.6 h 0.7 l 0.4,0.1 0.5,0.3 0.3,0.6 0.1,0.6 -0.1,1.1 -1.1,4.1 3.6,-2.1 m 24.5,-75 2,2.2 2.2,-1.5 h -0.4 l -0.9,-0.5 -0.6,-0.7 -0.3,-0.9 v -0.8 l 0.5,-0.8 0.5,-0.4 0.8,-0.4 0.9,0.1 0.8,0.4 0.6,0.7 0.4,0.9 -0.1,0.4 -0.2,0.6 m -6.3,-1.5 -0.6,-0.2 -1.3,-0.1 4.8,-4.2 m -5.9,2.1 0.2,0.2 0.5,0.5 0.1,0.4 v 0.6 l -0.5,1.1 -0.5,0.5 -0.4,0.1 h -0.7 l -0.5,-0.2 -0.4,-0.6 -0.6,-0.9 -1.5,-4 -1.7,3.9 m 4,6.5 -2.6,-4.5 -1.9,4.1 m 4.5,0.4 -5.8,-2.6 m 20.3,60.3 -0.2,0.9 -0.6,0.6 -0.9,0.4 h -0.3 l -0.9,-0.2 -0.6,-0.6 -0.4,-0.9 v -0.3 l 0.2,-0.9 0.6,-0.6 0.9,-0.4 h 0.3 l 0.9,0.2 0.6,0.6 0.4,1.2 0.1,1.5 -0.2,1.5 -0.5,0.9 -0.9,0.4 h -0.6 l -0.9,-0.2 -0.4,-0.6 m 8,-5.9 -3,0.2 -0.1,2.7 0.3,-0.3 0.8,-0.4 0.9,-0.1 0.9,0.3 0.7,0.5 0.3,0.9 0.1,0.6 -0.3,0.9 -0.5,0.7 -0.9,0.3 -0.9,0.1 -0.9,-0.3 -0.3,-0.2 -0.4,-0.6 m 22.4,-10.6 0.5,0.8 0.1,0.8 -0.3,0.9 -0.2,0.2 -0.8,0.5 -0.9,0.1 -0.9,-0.3 -0.2,-0.2 -0.5,-0.8 -0.1,-0.8 0.3,-0.9 0.2,-0.2 0.8,-0.6 h 0.9 l 1.1,0.5 1.2,0.9 0.9,1.2 0.4,1 -0.4,0.9 -0.3,0.5 -0.8,0.5 -0.7,-0.2 m 1.7,-9.3 -0.6,-0.1 -0.8,0.5 -0.4,0.5 -0.3,0.8 0.3,1.1 1,1.1 1.1,1 1.2,0.5 0.8,-0.1 0.8,-0.5 0.2,-0.2 0.3,-0.9 -0.1,-0.9 -0.5,-0.8 -0.2,-0.2 -0.9,-0.3 -0.8,0.1 -0.8,0.5 -0.2,0.3 -0.4,0.8 0.1,0.9 0.5,0.8 m -2,-34.3 4.6,2.3 -0.7,-4.5 m -3.9,2.2 6.2,-1 m -6.3,-5.4 -0.5,0.4 -0.2,1 0.1,0.6 0.5,0.8 0.9,0.5 h 1.6 l 1.5,-0.2 1.1,-0.5 0.5,-0.7 0.2,-0.9 -0.1,-0.3 -0.4,-0.8 -0.7,-0.5 -0.9,-0.2 h -0.3 l -0.9,0.5 -0.5,0.7 -0.1,0.9 v 0.3 l 0.4,0.8 0.7,0.5 1,0.2 m -4.9,-16.9 2.2,-2 -1.6,-2.2 v 0.4 l -0.5,0.8 -0.6,0.6 -0.9,0.4 H 868 l -0.9,-0.5 -0.4,-0.4 -0.4,-0.9 0.1,-0.8 0.4,-0.8 0.7,-0.7 0.9,-0.3 h 0.4 l 0.6,0.2 m -1.4,6.3 -0.2,0.6 v 1.3 l -4.3,-4.6 m -220.2,436.3 -6,-3.6 m 6.4,-0.6 -0.4,4.2 m -0.5,5.2 -6,-3.7 m 6.4,-0.5 -0.4,4.2 m 30.9,36.1 0.1,7 m -3.9,-5.1 3.8,-1.9 m 4.2,-2.1 -2.7,1.4 1,2.5 0.1,-0.4 0.7,-0.7 0.8,-0.4 0.9,-0.1 0.8,0.3 0.7,0.6 0.3,0.6 0.1,0.9 -0.3,0.8 -0.6,0.7 -0.9,0.4 -0.9,0.1 -0.4,-0.1 -0.5,-0.4 m -27.5,-7.5 -7,0.6 m 4.8,-4.2 2.2,3.6 m 1.6,4.6 0.4,-0.6 -0.2,-0.9 -0.3,-0.6 -0.7,-0.6 h -1.1 l -1.5,0.5 -1.2,0.7 -0.9,0.9 -0.2,0.8 0.2,1 0.1,0.2 0.7,0.6 0.9,0.2 0.9,-0.2 0.2,-0.1 0.7,-0.7 0.2,-0.8 -0.2,-1 -0.2,-0.2 -0.7,-0.7 -0.8,-0.2 -0.9,0.2 m 48.9,-493.6 -0.9,0.3 -0.8,-0.2 -0.8,-0.6 -0.1,-0.2 -0.3,-1 0.2,-0.8 0.6,-0.7 0.2,-0.2 0.9,-0.3 0.9,0.2 0.7,0.6 0.2,0.2 0.2,1 -0.1,0.8 -0.9,0.9 -1.2,0.8 -1.4,0.6 h -1.1 l -0.8,-0.6 -0.3,-0.5 -0.2,-0.9 0.3,-0.6 m 54.4,-13.9 -0.6,-0.2 -1.3,0.1 4.4,-4.6 m -8.3,1.1 6.6,-2.5 m -3.5,5.4 -3.1,-2.9 M 707.7,129.3 707,129 h -1.2 l 4.5,-4.4 m -8,1.2 2.1,2.1 2.1,-1.6 h -0.4 l -0.8,-0.5 -0.7,-0.6 -0.4,-0.9 v -0.8 l 0.5,-0.9 0.4,-0.4 0.8,-0.4 h 0.9 l 0.8,0.4 0.7,0.7 0.4,0.8 v 0.5 l -0.2,0.6 m -58.8,-5 -6.7,2 m 3.9,-5.1 2.8,3.1 m -40.3,-68 3,0.1 0.3,-2.7 -0.3,0.3 -0.9,0.2 h -0.9 l -0.9,-0.3 -0.6,-0.6 -0.3,-0.9 v -0.6 l 0.3,-0.9 0.6,-0.6 0.9,-0.3 h 0.9 l 0.9,0.4 0.3,0.3 0.3,0.6 m -35.3,40.4 -0.5,3.2 -2.1,-2.1 -0.1,0.9 -0.4,0.6 -0.3,0.2 -1,0.2 -0.6,-0.1 -0.8,-0.4 -0.5,-0.7 -0.2,-0.9 0.1,-0.9 0.5,-0.9 0.3,-0.2 0.6,-0.2 m 10.5,51.7 2.6,2 -2.9,0.8 0.7,0.5 0.3,0.6 0.1,0.5 -0.4,0.8 -0.3,0.5 -0.8,0.6 -0.8,0.1 -0.9,-0.3 -0.8,-0.6 -0.5,-0.8 v -0.4 l 0.1,-0.7 m 9.6,2.2 0.2,-0.7 -0.6,-0.8 -0.4,-0.3 -0.9,-0.4 -1.1,0.4 -1.1,1 -0.9,1.2 -0.5,1.1 0.1,0.9 0.5,0.7 0.3,0.2 0.9,0.3 0.8,-0.1 0.8,-0.5 0.2,-0.2 0.3,-0.9 -0.1,-0.9 -0.6,-0.8 -0.2,-0.1 -0.9,-0.4 -0.8,0.2 -0.8,0.5 m 46,-12.9 6.8,-1 m -4.5,4.5 -2.3,-3.5 m 42.2,62.6 0.9,-0.2 0.9,0.3 0.7,0.6 0.1,0.2 0.2,1 -0.2,0.8 -0.7,0.7 -0.2,0.1 -0.9,0.2 -0.9,-0.2 -0.7,-0.6 -0.1,-0.3 -0.2,-0.9 0.2,-0.8 0.9,-0.9 1.3,-0.7 1.5,-0.5 1,0.1 0.7,0.6 0.3,0.5 0.2,0.9 -0.3,0.6 m -68,-16.7 0.1,3.3 -2.5,-1.8 0.1,0.9 -0.3,0.6 -0.3,0.4 -0.9,0.3 h -0.6 l -0.9,-0.3 -0.6,-0.6 -0.4,-0.9 v -0.9 l 0.3,-0.9 0.3,-0.3 0.6,-0.3 m 5.3,8.8 -0.1,-3 -2.7,-0.2 0.3,0.3 0.3,0.9 0.1,0.9 -0.3,0.9 -0.6,0.6 -0.9,0.3 H 605 l -0.9,-0.3 -0.6,-0.5 -0.3,-0.9 v -0.9 l 0.2,-0.9 0.3,-0.3 0.6,-0.4 m 29.7,71.9 3.2,-0.7 -1.3,2.7 0.9,-0.1 0.7,0.1 0.3,0.3 0.5,0.8 0.1,0.6 -0.1,0.9 -0.5,0.7 -0.8,0.5 -0.9,0.2 -0.9,-0.1 -0.4,-0.3 -0.4,-0.5 m 8.2,-6.8 -1.7,6.7 m -2.4,-5.9 4.1,-0.8 m -23.7,-22.7 0.2,-0.2 0.7,0.1 0.4,0.2 0.5,0.4 0.4,1.2 v 0.6 l -0.2,0.4 -0.5,0.5 -0.5,0.2 h -0.7 l -1,-0.3 -3.9,-1.7 1.5,3.9 m 106,3.8 h -0.7 l -1.1,0.5 2.4,-5.8 m -5.2,4.8 0.9,0.1 0.9,-0.6 0.9,-1.2 0.3,-0.9 0.4,-1.5 -0.2,-1 -0.7,-0.7 -0.6,-0.2 -0.9,-0.1 -0.9,0.6 -0.9,1.3 -0.4,0.8 -0.3,1.5 0.2,1.1 0.7,0.6 0.4,0.2 m 14.7,22 v -0.7 l -0.5,-1.1 5.8,2.3 m -3.4,-6.5 -0.7,0.1 -0.6,0.7 -0.2,0.5 -0.1,1 0.6,0.9 1.3,0.8 1.4,0.6 1.2,0.2 0.8,-0.4 0.6,-0.7 0.1,-0.3 0.1,-0.9 -0.3,-0.8 -0.7,-0.6 -0.3,-0.1 -1,-0.1 -0.8,0.3 -0.6,0.8 -0.1,0.2 v 1 l 0.3,0.8 0.7,0.6 m -42.4,27.3 0.4,-0.6 0.5,-1.1 2.4,5.8 m 3,-6.1 v 1 l -0.3,0.8 -0.7,0.6 -0.3,0.1 -0.9,0.1 -0.8,-0.3 -0.6,-0.8 -0.1,-0.2 -0.1,-1 0.3,-0.8 0.7,-0.6 0.3,-0.1 0.9,-0.1 0.8,0.3 0.8,1 0.6,1.4 0.3,1.5 -0.2,1.1 -0.7,0.6 -0.6,0.2 -0.9,0.1 -0.6,-0.4 m 159.2,398 -0.3,-0.6 -1,-0.8 6.3,-0.5 m -6.7,-2.4 0.4,0.9 0.9,0.5 1.5,0.2 0.9,-0.1 1.5,-0.4 0.8,-0.7 0.3,-0.9 -0.1,-0.6 -0.4,-0.9 -0.9,-0.5 -1.5,-0.2 -0.9,0.1 -1.5,0.4 -0.8,0.7 -0.3,0.9 0.1,0.4 m 1.1,-3.4 -0.3,-0.6 -1,-0.8 6.3,-0.5 m -26.3,11.9 -0.1,-0.7 -0.8,-0.6 -0.5,-0.2 h -1 l -0.8,0.7 -0.8,1.3 -0.5,1.4 -0.1,1.2 0.3,0.8 0.8,0.6 0.3,0.1 h 0.9 l 0.8,-0.4 0.6,-0.7 0.1,-0.3 v -1 l -0.4,-0.7 -0.7,-0.6 -0.3,-0.1 h -1 l -0.7,0.3 -0.6,0.8 m 7.5,-1.8 h -0.9 l -0.5,0.5 -0.2,0.5 0.1,0.7 0.5,0.5 1,0.7 0.8,0.5 0.3,0.8 0.1,0.7 -0.3,0.8 -0.5,0.5 -0.4,0.2 -0.9,-0.1 -1.1,-0.3 -0.8,-0.6 -0.2,-0.4 -0.1,-0.7 0.3,-0.8 0.5,-0.5 0.8,-0.4 0.9,0.1 1.3,0.1 0.6,-0.1 0.5,-0.5 0.2,-0.5 -0.1,-0.7 -0.7,-0.6 -1.3,-0.4 m -43.5,-66.2 -0.2,-1 0.2,-0.8 0.6,-0.7 0.2,-0.2 0.9,-0.2 0.9,0.2 0.7,0.5 0.2,0.3 0.2,0.9 -0.2,0.8 -0.6,0.8 -0.2,0.2 -0.9,0.2 -0.9,-0.2 -0.9,-0.8 -0.8,-1.3 -0.5,-1.4 v -1.1 l 0.6,-0.7 0.5,-0.4 0.9,-0.2 0.6,0.3 m -5.5,7.5 -0.2,-0.9 0.1,-0.8 0.6,-0.8 0.3,-0.1 0.9,-0.3 0.8,0.2 0.8,0.6 0.1,0.2 0.3,1 -0.2,0.8 -0.6,0.7 -0.3,0.2 -0.9,0.2 -0.8,-0.1 -0.9,-0.9 -0.8,-1.2 -0.6,-1.5 v -1.1 l 0.6,-0.7 0.5,-0.3 1,-0.3 0.5,0.4 m -3.9,34 0.3,-0.6 -0.3,-0.9 -0.4,-0.5 -0.8,-0.5 -1.1,0.1 -1.3,0.7 -1.2,0.9 -0.7,1 -0.1,0.9 0.3,0.9 0.2,0.2 0.8,0.5 0.8,0.1 0.9,-0.3 0.2,-0.2 0.5,-0.8 0.1,-0.9 -0.3,-0.8 -0.2,-0.3 -0.8,-0.5 -0.8,-0.1 -0.9,0.3 m 8.7,4.2 -1.9,-2.4 -2.3,1.5 h 0.4 l 0.8,0.5 0.6,0.7 0.3,0.9 -0.1,0.9 -0.5,0.8 -0.5,0.3 -0.9,0.4 -0.8,-0.1 -0.8,-0.5 -0.6,-0.7 -0.3,-0.9 0.1,-0.5 0.2,-0.6 M 668.3,46.5 l 0.8,-0.5 0.1,-0.7 -0.1,-0.6 -0.5,-0.5 -0.6,-0.1 h -1.3 l -0.9,-0.1 -0.7,-0.4 -0.5,-0.5 -0.2,-0.9 0.1,-0.7 0.3,-0.3 0.8,-0.5 1.1,-0.3 h 1 l 0.3,0.3 0.5,0.5 0.2,0.8 -0.2,0.7 -0.4,0.7 -0.8,0.5 -1.1,0.6 -0.5,0.5 -0.1,0.6 0.1,0.6 0.5,0.5 0.9,0.1 1.3,-0.3 m -6.9,1.8 1.9,-4.8 -4.4,1.1 m 2.5,3.7 -1.5,-6.1 m 37.7,13.7 -0.2,0.2 -0.6,0.4 h -0.4 l -0.7,-0.1 -1,-0.6 -0.3,-0.6 -0.1,-0.4 0.1,-0.7 0.4,-0.5 0.6,-0.3 1,-0.4 4.2,-0.8 -3.5,-2.4 m -6,3.5 0.9,0.3 1,-0.4 1.1,-1.1 0.5,-0.7 0.6,-1.4 v -1.1 l -0.5,-0.8 -0.5,-0.3 -0.9,-0.3 -1,0.4 -1.1,1.1 -0.5,0.7 -0.7,1.4 v 1.1 l 0.6,0.8 0.4,0.2 m 2.2,25.7 -0.3,0.9 0.4,0.6 0.5,0.3 0.6,0.1 0.6,-0.4 0.9,-0.8 0.8,-0.6 0.8,-0.2 0.7,0.1 0.7,0.5 0.4,0.6 0.1,0.4 -0.3,0.9 -0.6,1 -0.8,0.6 -0.4,0.1 -0.7,-0.1 -0.7,-0.5 -0.4,-0.6 -0.1,-0.8 0.2,-0.9 0.4,-1.2 0.1,-0.6 -0.4,-0.6 -0.5,-0.4 h -0.6 l -0.8,0.6 -0.7,1.1 m 4.1,-6.4 -1.6,2.5 2.1,1.8 -0.1,-0.4 0.3,-1 0.5,-0.7 0.7,-0.6 0.8,-0.2 0.9,0.3 0.5,0.3 0.6,0.7 0.2,0.9 -0.2,0.9 -0.5,0.7 -0.8,0.6 -0.4,0.1 -0.7,-0.1 m 23.2,285.5 -3.9,3.4 4.4,1.1 m -0.5,-4.5 -1.5,6.2 m 5.5,-5.2 -0.9,0.1 -0.5,0.5 -0.1,0.6 0.1,0.7 0.6,0.4 1.1,0.6 0.8,0.5 0.4,0.7 0.2,0.6 -0.2,0.9 -0.5,0.5 -0.3,0.3 h -1 l -1.1,-0.2 -0.8,-0.5 -0.3,-0.4 -0.1,-0.6 0.2,-0.9 0.4,-0.5 0.7,-0.5 1,-0.1 h 1.2 l 0.7,-0.1 0.4,-0.6 0.1,-0.5 -0.1,-0.7 -0.8,-0.5 -1.3,-0.3 m -17,-29.4 -0.6,0.1 -1.2,0.6 2,-6 m -6.1,4.9 4.2,-3 -4.3,-1.5 m 0.1,4.5 2,-6 m -45.4,-7.1 -0.7,0.2 -1,0.7 1.2,-6.2 m -3,6.1 -3.2,-0.6 2.2,-2 -0.9,-0.2 -0.5,-0.4 -0.3,-0.4 -0.1,-0.9 0.1,-0.6 0.5,-0.8 0.7,-0.5 0.9,-0.1 0.9,0.2 0.9,0.4 0.2,0.4 0.2,0.6 m -58,-8.9 -0.1,0.3 -0.4,0.5 -0.4,0.2 -0.7,0.2 -1.1,-0.3 -0.5,-0.5 -0.3,-0.3 -0.1,-0.7 0.1,-0.6 0.5,-0.5 0.8,-0.7 3.6,-2.2 -4.1,-1 m -27.3,27.5 0.2,0.6 0.8,1.1 -6.2,-0.9 m 20.9,38.1 -1,-0.1 -0.5,0.5 -0.2,0.6 0.1,0.6 0.4,0.5 1.1,0.7 0.7,0.6 0.3,0.8 0.1,0.7 -0.3,0.8 -0.5,0.5 -0.4,0.1 h -0.9 l -1.2,-0.4 -0.7,-0.6 -0.2,-0.4 v -0.7 l 0.3,-0.8 0.5,-0.5 0.8,-0.3 h 0.9 l 1.2,0.2 0.7,-0.1 0.5,-0.5 0.2,-0.5 -0.1,-0.7 -0.7,-0.6 -1.3,-0.5 m 4.3,1.7 3.1,1.1 -2.5,1.6 0.8,0.4 0.5,0.5 0.1,0.3 v 1 l -0.2,0.6 -0.6,0.7 -0.8,0.3 h -0.9 l -0.9,-0.3 -0.7,-0.6 -0.2,-0.4 -0.1,-0.7 m 70.1,29.7 -4.7,2.1 3.9,2.3 m 0.8,-4.4 -3.2,5.4 m 9,-1.9 -5.8,3.9 m 2.2,-6 3.6,2.1 m 52.2,-16.4 4.8,-2 -3.8,-2.4 m -1,4.4 3.4,-5.4 m -6.9,3.1 1,0.2 0.5,-0.3 0.4,-0.6 V 389 l -0.3,-0.6 -0.9,-0.9 -0.6,-0.7 -0.1,-0.9 v -0.6 l 0.5,-0.8 0.6,-0.3 0.4,-0.1 0.9,0.2 1,0.7 0.6,0.7 0.1,0.4 -0.1,0.7 -0.4,0.7 -0.6,0.4 -0.8,0.2 -1,-0.3 -1.1,-0.4 h -0.7 l -0.6,0.3 -0.3,0.5 -0.1,0.7 0.6,0.7 1.2,0.7 m 4.5,25.6 -0.3,5.1 3.8,-2.4 m -3.5,-2.7 3.3,5.3 m 3.3,-7 0.3,0.9 -0.2,0.8 -0.6,0.7 -0.3,0.2 -0.9,0.2 -0.8,-0.1 -0.7,-0.6 -0.2,-0.3 -0.2,-0.9 0.1,-0.8 0.6,-0.8 0.3,-0.1 0.9,-0.3 0.8,0.2 0.9,0.9 0.8,1.2 0.6,1.5 v 1 l -0.6,0.8 -0.5,0.3 -0.9,0.2 -0.6,-0.3 m -74.9,-138.7 0.6,0.1 h 1.3 l -4.3,4.6 m 5.7,-3.6 2.4,2.3 -2.9,0.5 0.7,0.6 0.2,0.6 v 0.5 l -0.4,0.8 -0.4,0.5 -0.8,0.4 -0.9,0.1 -0.8,-0.4 -0.7,-0.7 -0.5,-0.8 v -0.4 l 0.2,-0.7 m 0.7,-14 -3.1,1.1 0.9,-2.9 -0.9,0.3 h -0.6 l -0.4,-0.2 -0.6,-0.8 -0.2,-0.5 v -1 l 0.3,-0.8 0.8,-0.5 0.8,-0.3 1,-0.1 0.4,0.2 0.5,0.5 m -7.2,7.9 0.7,-6.9 m 3.3,5.5 -4,1.4"
       id="nums_002"
       stroke="#000000"
       stroke-width="1" />
    <path
       d="m 625,265.2 -23.3,-60.4 -1,-43.4 -37.8,-29 12.7,-89 69.7,0.4 34.3,-8.7 35.8,24.9 -26.4,40.4 41.7,42.6 32.9,31.7 57.2,5.7 -1.1,32.6 13.7,-29.7 19.3,22.1 21.5,-19.9 9.8,62.7 -15.1,18.7 -40.1,2.6 -36.6,20.8 39.1,-15.6 -30.3,51.6 38,-46.2 38,12.9 19.3,-14.4 -5.2,-63.2 50.9,26.9 31.1,33.3 48.9,34.2 -7.4,47.7 -39,-13.1 -40,-39.7 -11.4,66.9 -61.5,-13 -40.7,51.4 56.1,-33.8 55,30.6 23.5,-63.7 47.6,30 26.2,7.5 5.1,46.9 -30.4,22.8 -38.7,34.1 -55.8,33.1 -13.2,-45.6 -40.1,-16.7 -51.4,64.3 72.7,-38.5 24.5,35.8 -18.3,43.9 61.3,21.2 49.6,13.9 37.7,-4.7 -5.8,47.9 -41.4,35.2 -60.6,-33.4 49,49 -86.8,11.3 -27.3,-48.2 4.3,55.3 -63,-22.2 -39.4,-49.4 54.5,-35.3 -62.4,18 11.7,62.1 -62.9,-11.4 -49.9,24.7 -21,-35.3 5.1,-50.3 -54.5,-13 15.6,-94.4 51.6,-30.7 91.1,-29.6 18.9,-60.2 -73.8,-17.4 63.9,40.8 -53.2,33.9 -82.3,-49.1 -56.2,-21.4 9.9,-73.8 63,15.2 52.7,10.1 47.6,16.3 -44.4,-23.6 58.8,-42.7 12.7,-35.3 -50.9,-22.7 -37.1,-55.7 -56.8,-63.3 48,70.2 33.2,58.1 51.2,22.1 -14.1,34.8 -66.8,28.4 -39.4,-36.6 29,-10.3 z"
       id="coupes_002"
       stroke="#ff0000"
       stroke-width="1.27"
       sodipodi:nodetypes="ccccccccccccccccccccccccccccccccccccccccccccccccccccccccccccccccccccccccccccccccccccccccccccccccc" />
    <path
       d="m 650.2,471 104.3,148.3 m 0,0 -117,-10.2 m 0,0 12.7,-138.1 m 91.1,-29.6 13.2,177.9 m -13.2,-177.9 64.6,78.1 m 0,0 -51.4,99.8 m 51.4,-99.8 11,81.8 m -179.4,7.8 -38.9,-107.4 m 207.3,17.8 78.9,41.2 m 0,0 -67.9,40.6 m 61.7,-120.3 6.2,79.7 M 822,410 805.9,519.5 M 760.2,381.2 822,410 m 0,0 35.3,45.2 m 20.8,-79 19.3,95.7 m 69,12.5 -69,-12.5 m 35.7,-65.1 33.3,77.6 m -33.3,-77.6 72,43.5 M 801,326.3 822,410 M 760.2,381.2 801,326.3 M 839,280.1 822,410 m 17,-129.9 23.7,78.5 M 877,293 862.7,358.6 M 877,293 l 47.2,78.6 m -27.9,-93 39.3,26.1 m 6.4,-62.4 -6.4,62.4 M 754.5,619.3 703.3,670 m 0,0 -65.8,-60.9 m 247.3,-48.4 -24.3,92.2 m 0,0 -43.6,-51.6 m 67.9,-40.6 40.8,80.1 m 0,0 -65.1,12.1 m 65.1,-12.1 -37.8,60.3 m 58.3,-119.2 -20.5,58.9 m 47.5,-365.2 2.5,68.8 m 20.1,251.4 -70.1,45 m 70.1,-45 31.9,43.2 M 731.8,335.8 801,326.3 m -40.8,54.9 -28.4,-45.4 m 60.4,-45.5 8.8,36 m -69.2,9.5 60.4,-45.5 m -46,-20.8 46,20.8 m -60.4,45.5 14.4,-66.3 m 73.5,-56.5 -27.5,77.3 m -46,-20.8 73.5,-56.5 m -60.8,21.2 60.8,-21.2 m -60.8,21.2 61.9,-53.8 M 708,211.5 820.8,180.4 m -1.1,32.6 9.1,56.5 m 23.9,-64.1 -23.9,64.1 m -9.1,-56.5 33,-7.6 m 0,0 16.2,61.5 M 852.7,205.4 884,248.2 M 703.3,670 632.4,659.4 m 38.5,-503.6 92.7,18.9 M 614.1,92.5 689,100.4 M 614.1,92.5 645.3,43.8 M 614.1,92.5 575.6,43.4 m 38.5,49.1 -51.2,39.9 m 51.2,-39.9 -13.4,68.9 m 94.6,59.4 -94.6,-59.4 m 54.5,97.8 -53.5,-54.4 m 144.8,38.1 -91.3,16.3 m 77.2,18.5 -77.2,-18.5 m 10.4,46.9 -10.4,-46.9 M 860.5,652.9 801.8,686 m 0,0 15.1,-84.7 M 679.6,35.1 689,100.4 m -2.6,263.4 45.4,-28 m -45.4,28 -2.2,-44.3 m 2.2,44.3 -54.9,-54.4 m 54.9,54.4 -127.8,4.2 m 0,0 72.9,-58.6 m 54.9,54.4 -71.6,25.6 m 71.6,-25.6 10.7,74.7"
       id="plisM_002"
       stroke="#a52a2a"
       stroke-dasharray="4" />
    <path
       d="M 741.3,441.4 822,410 m 0,0 75.4,61.9 m 35.7,-65.1 -35.7,65.1 m 35.7,-65.1 71.1,-33.7 m 0,0 0.9,77.2 M 877,293 935.6,304.7 M 896.3,278.6 942,242.3 m 31.1,33.3 -37.5,29.1 m 86.4,5.1 -46.4,34.6 m 54.8,36.2 -25.3,69.7 m -9.4,145.5 -9.5,78.4 M 708,211.5 763.6,174.7 M 670.9,155.8 730.7,143 M 670.9,155.8 689,100.4 M 645.3,43.8 689,100.4 m -26.9,62.3 -61.4,-1.3 m 94.6,59.4 -40.1,38.4 m 0,0 -54.5,-97.8"
       id="plisV_002"
       stroke="#008000"
       stroke-dasharray="4, 1, 1, 1"
       stroke-width="1.27" />
    <path
       d="m 779.7,423.7 4,4 m 0,-4 -4,4 m 78,11.2 4,4 m 0,-4 -4,4 m 55.5,-5.6 4,4 m 0,-4 -4,4 m 53.4,-53.3 4,4 m 0,-4 -4,4 m 36,17.7 4,4 m 0,-4 -4,4 m -98.3,-116.8 4,4 m 0,-4 -4,4 m 12.8,-42.5 4,4 m 0,-4 -4,4 m 35.3,25.7 4,4 m 0,-4 -4,4 m 44.4,33 4,4 m 0,-4 -4,4 m 18.9,84.4 4,4 m 0,-4 -4,4 M 989,633 l 4,4 m 0,-4 -4,4 m -255.2,-445.9 4,4 m 0,-4 -4,4 m -35,-47.7 4,4 m 0,-4 -4,4 m -20.8,-25.3 4,4 m 0,-4 -4,4 m -12.8,-60 4,4 m 0,-4 -4,4 m -35.8,86 4,4 m 0,-4 -4,4 m 43.9,73.9 4,4 m 0,-4 -4,4 m -47.4,-33.7 4,4 m 0,-4 -4,4"
       id="marqueV_002"
       stroke="#008000" />
    <path
       d="m 789.9,363.9 v -0.8 l 0.7,-1.5 0.8,-0.7 1.5,-0.8 h 3 l 1.5,0.8 0.7,0.7 0.8,1.5 v 1.5 l -0.8,1.5 -1.5,2.3 -7.5,7.5 h 10.5"
       id="titre_2"
       stroke="#4b0082" />
  </g>
</svg>
