<?xml version="1.0" encoding="UTF-8" standalone="no"?>
<svg
   height="841.88977pt"
   viewBox="0 0 532.99998 754.00001"
   width="595.27557pt"
   version="1.1"
   id="svg1"
   sodipodi:docname="Charmander244_H30_A4x5.svg"
   inkscape:version="1.3 (0e150ed6c4, 2023-07-21)"
   xmlns:inkscape="http://www.inkscape.org/namespaces/inkscape"
   xmlns:sodipodi="http://sodipodi.sourceforge.net/DTD/sodipodi-0.dtd"
   xmlns="http://www.w3.org/2000/svg"
   xmlns:svg="http://www.w3.org/2000/svg">
  <defs
     id="defs1" />
  <sodipodi:namedview
     id="namedview1"
     pagecolor="#ffffff"
     bordercolor="#000000"
     borderopacity="0.25"
     inkscape:showpageshadow="2"
     inkscape:pageopacity="0.0"
     inkscape:pagecheckerboard="0"
     inkscape:deskcolor="#d1d1d1"
     inkscape:document-units="mm"
     showgrid="false"
     inkscape:zoom="1.4521223"
     inkscape:cx="2971.1685"
     inkscape:cy="535.42322"
     inkscape:window-width="1920"
     inkscape:window-height="1057"
     inkscape:window-x="-8"
     inkscape:window-y="-8"
     inkscape:window-maximized="1"
     inkscape:current-layer="svg1" />
  <style
     type="text/css"
     id="style1"><![CDATA[
			path {
				fill: none;
			}
		]]></style>
  <g
     id="page_001">
    <path
       d="m 254.2,249.2 0.3,-0.9 0.5,-0.7 0.9,-0.4 h 0.3 l 0.9,0.2 0.6,0.6 0.4,0.9 v 0.3 l -0.2,0.9 -0.5,0.6 -0.9,0.4 h -0.3 l -0.9,-0.2 -0.7,-0.5 -0.4,-1.2 -0.1,-1.5 0.2,-1.5 0.5,-1 0.9,-0.3 0.6,-0.1 0.9,0.2 0.3,0.6 m -8.3,4 0.2,-0.9 0.6,-0.6 0.8,-0.4 h 0.3 l 1,0.2 0.6,0.5 0.4,0.9 v 0.3 l -0.2,0.9 -0.5,0.7 -0.9,0.3 -0.3,0.1 -0.9,-0.2 -0.7,-0.6 -0.4,-1.2 -0.1,-1.5 0.1,-1.5 0.6,-0.9 0.8,-0.4 0.6,-0.1 1,0.3 0.3,0.5 m 13.6,66.8 -0.7,0.6 -0.2,0.6 0.2,0.6 0.5,0.5 0.6,0.1 h 1.2 1 l 0.7,0.4 0.5,0.5 0.2,0.9 -0.1,0.6 -0.2,0.4 -0.8,0.5 -1.1,0.4 -1,-0.1 -0.3,-0.2 -0.5,-0.5 -0.2,-0.8 0.1,-0.7 0.4,-0.7 0.8,-0.6 1,-0.6 0.5,-0.4 0.2,-0.7 -0.2,-0.6 -0.5,-0.5 h -0.9 l -1.3,0.4 m 7.5,-1.3 -0.4,-0.5 h -1 l -0.5,0.2 -0.8,0.5 -0.3,1 0.1,1.6 0.4,1.4 0.6,1.1 0.8,0.4 h 0.9 l 0.3,-0.1 0.8,-0.5 0.4,-0.7 v -1 l -0.1,-0.3 -0.5,-0.8 -0.7,-0.4 h -1 l -0.3,0.1 -0.8,0.5 -0.4,0.7 v 1 m -57.6,28.8 0.4,0.9 -0.1,0.8 -0.5,0.8 -0.2,0.2 -0.9,0.4 -0.9,-0.1 -0.8,-0.5 -0.2,-0.2 -0.3,-0.9 0.1,-0.9 0.5,-0.8 0.2,-0.2 0.9,-0.3 0.8,0.1 1,0.7 1,1.2 0.7,1.3 0.1,1.1 -0.5,0.8 -0.4,0.4 -0.9,0.3 -0.6,-0.3 m 2.6,-9.2 0.3,5.1 3.5,-2.8 m -3.8,-2.3 4,4.9 m 118,-106.4 -0.6,0.4 -0.7,1 -1.1,-6.2 m -1.8,7 0.9,-0.5 0.4,-1 v -1.5 l -0.1,-0.9 -0.6,-1.4 -0.7,-0.8 -1,-0.2 -0.5,0.1 -0.9,0.5 -0.4,1 -0.1,1.5 0.2,0.9 0.6,1.4 0.7,0.8 0.9,0.2 0.5,-0.1 m -5.1,0.9 0.8,-0.5 0.4,-1 0.1,-1.5 -0.2,-0.9 -0.5,-1.4 -0.8,-0.8 -0.9,-0.1 -0.6,0.1 -0.9,0.4 -0.4,1 v 1.5 l 0.1,0.9 0.6,1.4 0.7,0.8 1,0.2 0.4,-0.1 m 29.2,33.7 -0.2,-0.6 -0.8,-1 6.2,0.5 m -6.2,-3.5 0.2,1 0.9,0.6 1.4,0.5 h 0.9 l 1.6,-0.1 0.9,-0.6 0.4,-0.8 v -0.6 l -0.2,-1 -0.8,-0.6 -1.5,-0.5 h -0.9 l -1.5,0.1 -1,0.6 -0.3,0.8 -0.1,0.5 m 1.5,-6.9 -0.6,0.2 -0.4,0.9 v 0.6 l 0.2,0.9 0.8,0.7 1.5,0.4 1.5,0.1 1.2,-0.2 0.7,-0.5 0.3,-0.9 0.1,-0.3 -0.3,-0.9 -0.5,-0.6 -0.9,-0.4 h -0.3 l -0.9,0.2 -0.7,0.5 -0.3,0.9 -0.1,0.3 0.3,0.9 0.5,0.7 0.9,0.3 m -184.8,102.9 0.1,1 -0.3,0.8 -0.6,0.6 -0.3,0.2 -1,0.1 -0.8,-0.3 -0.6,-0.7 -0.1,-0.3 -0.2,-0.9 0.3,-0.8 0.7,-0.7 0.3,-0.1 0.9,-0.1 0.8,0.3 0.8,0.9 0.7,1.4 0.3,1.5 -0.1,1.1 -0.7,0.6 -0.6,0.3 -0.9,0.1 -0.5,-0.4 m 5.6,-7.7 -0.5,-0.4 -1,0.1 -0.5,0.3 -0.7,0.6 -0.2,1.1 0.4,1.5 0.6,1.3 0.8,1 0.8,0.3 1,-0.1 0.2,-0.2 0.7,-0.6 0.3,-0.8 -0.1,-1 -0.1,-0.2 -0.7,-0.7 -0.8,-0.3 -0.9,0.1 -0.3,0.2 -0.7,0.6 -0.3,0.8 0.1,0.9 m -57.5,-111.3 -0.2,-1 0.3,-0.8 0.6,-0.7 0.3,-0.1 0.9,-0.2 0.8,0.3 0.7,0.6 0.2,0.3 0.1,0.9 -0.2,0.8 -0.7,0.7 -0.2,0.2 -1,0.1 -0.8,-0.2 -0.8,-0.9 -0.7,-1.3 -0.5,-1.5 0.1,-1.1 0.7,-0.7 0.5,-0.3 0.9,-0.1 0.6,0.4 m -2.1,7.3 -2.9,1.5 0.4,-2.9 -0.8,0.4 h -0.7 l -0.4,-0.1 -0.7,-0.7 -0.2,-0.5 -0.2,-0.9 0.2,-0.8 0.7,-0.7 0.8,-0.5 0.9,-0.1 0.4,0.1 0.6,0.4 m 9.5,129.3 0.5,-0.5 0.6,-1.2 2,6 m 0.7,-7.1 -0.7,0.6 -0.3,1 0.1,1.6 0.3,0.8 0.8,1.3 0.8,0.7 h 1 l 0.6,-0.2 0.7,-0.6 0.3,-1 -0.2,-1.5 -0.3,-0.9 -0.7,-1.3 -0.9,-0.7 h -0.9 l -0.4,0.2 m 3.7,-1.3 3.2,-1 -1,2.8 0.9,-0.3 0.6,0.1 0.4,0.2 0.6,0.8 0.2,0.6 v 0.9 l -0.4,0.8 -0.8,0.5 -0.8,0.3 h -1 l -0.4,-0.2 -0.4,-0.4 m -54.3,-30.7 0.6,0.3 1.2,0.1 -5,3.9 m 7,-1.6 -0.8,-0.6 -1.1,0.1 -1.4,0.7 -0.7,0.5 -1,1.2 -0.3,1 0.3,0.9 0.3,0.4 0.8,0.6 1.1,-0.1 1.4,-0.7 0.7,-0.5 1,-1.1 0.3,-1.1 -0.3,-0.9 -0.2,-0.3 m 3.5,6.1 0.3,-0.6 -0.3,-0.9 -0.4,-0.5 -0.8,-0.5 h -1 l -1.4,0.7 -1.2,0.9 -0.8,1 -0.1,0.8 0.3,0.9 0.2,0.3 0.8,0.5 0.8,0.1 0.9,-0.3 0.2,-0.2 0.6,-0.8 0.1,-0.8 -0.3,-0.9 -0.2,-0.2 -0.8,-0.6 -0.8,-0.1 -0.9,0.3 m 1.4,-68.8 v 0.6 l 0.2,1.3 -5.2,-3.5 m 3.8,6.1 0.2,-0.9 -0.4,-1 -1.1,-1.1 -0.7,-0.5 -1.5,-0.6 h -1 l -0.8,0.6 -0.3,0.5 -0.3,0.9 0.5,1 1,1.1 0.8,0.5 1.4,0.6 h 1.1 l 0.7,-0.6 0.3,-0.4 m -3.4,2.4 0.2,0.2 0.4,0.6 0.1,0.4 -0.1,0.7 -0.7,1 -0.6,0.3 -0.4,0.1 -0.6,-0.1 -0.5,-0.3 -0.4,-0.6 -0.4,-1 -0.9,-4.2 -2.3,3.6 m 230.6,46.7 -0.2,-0.9 -0.6,-0.3 -0.6,-0.1 -0.6,0.2 -0.4,0.6 -0.4,1.2 -0.4,0.9 -0.6,0.5 -0.7,0.2 h -0.8 l -0.6,-0.4 -0.3,-0.3 -0.2,-0.9 0.1,-1.2 0.4,-0.9 0.3,-0.3 0.6,-0.2 0.9,0.1 0.6,0.3 0.5,0.7 0.3,0.9 0.2,1.2 0.2,0.6 0.6,0.4 h 0.6 l 0.6,-0.2 0.4,-0.9 0.1,-1.3 m -0.7,8 -6,-3.6 m 6.3,-0.6 -0.3,4.2 m 8.7,50.8 -0.9,0.4 h -0.8 l -0.9,-0.5 -0.2,-0.2 -0.4,-0.8 v -0.9 l 0.5,-0.8 0.2,-0.2 0.8,-0.4 h 0.9 l 0.8,0.4 0.2,0.2 0.4,0.9 v 0.8 l -0.6,1.1 -1.1,1 -1.3,0.9 -1.1,0.2 -0.8,-0.5 -0.4,-0.4 -0.4,-0.9 0.2,-0.6 m 10,2.6 -6.6,2.2 m 3.7,-5.2 2.9,3 m 72.7,-77.5 h -0.7 l -1.2,0.4 2.8,-5.6 m -5.5,4.5 0.9,0.1 1,-0.5 0.9,-1.2 0.4,-0.8 0.4,-1.5 -0.1,-1.1 -0.7,-0.6 -0.6,-0.3 -0.9,-0.1 -0.9,0.5 -1,1.2 -0.4,0.8 -0.4,1.5 0.2,1.1 0.7,0.6 0.4,0.2 m -3.6,-1.7 -3,-1.5 2.7,-1.3 -0.8,-0.4 -0.4,-0.6 -0.1,-0.4 0.1,-0.9 0.3,-0.6 0.6,-0.6 0.8,-0.3 1,0.1 0.8,0.4 0.6,0.7 0.2,0.4 v 0.7 m 38.6,27.4 0.8,-0.4 0.9,-0.1 0.9,0.4 0.2,0.2 0.4,0.8 0.1,0.9 -0.4,0.9 -0.2,0.2 -0.8,0.4 -0.9,0.1 -0.8,-0.4 -0.3,-0.2 -0.4,-0.8 -0.1,-0.9 0.6,-1.1 1,-1.1 1.3,-0.9 1,-0.2 0.9,0.3 0.4,0.4 0.5,0.9 -0.2,0.6 m -9.2,-2.3 -0.2,0.7 0.5,0.8 0.4,0.4 0.9,0.4 1,-0.3 1.3,-0.9 1,-1.1 0.6,-1.1 -0.1,-0.8 -0.4,-0.9 -0.3,-0.2 -0.8,-0.4 -0.9,0.1 -0.8,0.4 -0.2,0.3 -0.4,0.8 0.1,0.9 0.4,0.8 0.2,0.2 0.9,0.4 h 0.9 l 0.8,-0.5 m -79.3,85.9 -0.8,0.6 -0.8,0.1 -0.9,-0.3 -0.3,-0.2 -0.5,-0.8 -0.2,-0.8 0.3,-0.9 0.2,-0.2 0.8,-0.6 0.8,-0.1 0.9,0.3 0.3,0.2 0.5,0.7 0.1,0.9 -0.4,1.1 -0.9,1.2 -1.2,1.1 -1,0.3 -0.9,-0.3 -0.5,-0.3 -0.5,-0.8 0.1,-0.7 m 9.9,0.7 -2.4,-1.8 -1.8,2 0.4,-0.1 0.9,0.3 0.7,0.5 0.5,0.8 0.2,0.9 -0.3,0.9 -0.4,0.4 -0.8,0.6 -0.8,0.1 -0.9,-0.3 -0.7,-0.5 -0.6,-0.8 v -0.4 l 0.1,-0.7 m 107.9,-49.7 0.9,-0.3 0.9,0.2 0.7,0.6 0.2,0.3 0.2,0.9 -0.2,0.8 -0.6,0.8 -0.2,0.1 -0.9,0.3 -0.9,-0.2 -0.7,-0.6 -0.2,-0.3 -0.2,-0.9 0.2,-0.8 0.8,-0.9 1.3,-0.8 1.4,-0.6 h 1.1 l 0.7,0.6 0.3,0.5 0.3,0.9 -0.4,0.6 m -8.8,-3.6 5.1,0.2 -2.4,-3.8 m -2.7,3.6 5.2,-3.5 m -82.7,70 -0.7,0.6 -0.9,0.2 -0.9,-0.1 -0.3,-0.2 -0.6,-0.7 -0.2,-0.8 0.2,-0.9 0.1,-0.3 0.7,-0.6 0.9,-0.3 0.9,0.2 0.2,0.2 0.7,0.7 0.2,0.8 -0.3,1.2 -0.8,1.3 -1,1.1 -1,0.5 -0.9,-0.2 -0.5,-0.3 -0.6,-0.7 v -0.6 m 6.5,-0.8 0.2,-0.3 0.5,-0.3 0.4,-0.2 0.7,0.1 1,0.6 0.4,0.5 0.1,0.4 v 0.7 l -0.3,0.5 -0.6,0.4 -0.9,0.5 -4.1,1.1 3.6,2.1 m 97.3,-13.6 0.5,0.9 0.6,0.2 0.6,-0.1 0.5,-0.4 0.2,-0.6 0.2,-1.3 0.1,-0.9 0.6,-0.7 0.5,-0.4 0.9,-0.1 0.6,0.2 0.4,0.3 0.4,0.8 0.2,1.2 -0.2,1 -0.3,0.3 -0.5,0.4 -0.9,0.1 -0.6,-0.2 -0.7,-0.5 -0.4,-0.9 -0.5,-1.1 -0.4,-0.6 -0.6,-0.2 -0.6,0.1 -0.6,0.4 -0.1,0.9 0.1,1.4 m -0.1,-7.7 -0.6,0.4 -0.1,0.9 v 0.6 l 0.5,0.9 0.9,0.4 1.6,0.1 1.5,-0.2 1.1,-0.5 0.5,-0.6 0.2,-1 -0.1,-0.3 -0.4,-0.8 -0.7,-0.5 -0.9,-0.2 h -0.3 l -0.8,0.5 -0.5,0.6 -0.2,1 v 0.3 l 0.4,0.8 0.7,0.5 1,0.2 m -39.7,31.1 -0.8,0.5 -0.2,0.7 0.1,0.5 0.4,0.6 0.7,0.1 1.2,0.1 1,0.1 0.7,0.4 0.4,0.6 0.2,0.8 -0.2,0.7 -0.2,0.4 -0.8,0.4 -1.2,0.3 -1,-0.1 -0.3,-0.2 -0.4,-0.6 -0.2,-0.9 0.2,-0.6 0.4,-0.7 0.8,-0.5 1.1,-0.5 0.6,-0.5 0.1,-0.6 -0.1,-0.6 -0.4,-0.5 -1,-0.1 -1.3,0.3 m 7.9,-1.7 -1.6,6.8 m -2.5,-5.9 4.1,-0.9 m -70.4,8.4 -0.2,0.6 -0.1,1.3 -4.1,-4.8 m 2,6.9 0.5,-0.9 -0.2,-1 -0.7,-1.4 -0.6,-0.7 -1.2,-0.9 -1.1,-0.3 -0.8,0.4 -0.5,0.4 -0.5,0.8 0.2,1.1 0.7,1.3 0.6,0.7 1.2,0.9 1,0.3 0.9,-0.4 0.4,-0.2 m -5,4.3 -0.4,-5.2 -3.4,3 m 3.8,2.2 -4.1,-4.8 m 3,24.1 -0.6,-0.6 h -0.7 l -0.5,0.3 -0.4,0.5 v 0.7 l 0.3,1.2 0.2,0.9 -0.3,0.9 -0.4,0.5 -0.8,0.4 h -0.6 l -0.4,-0.1 -0.7,-0.6 -0.6,-1.1 -0.2,-0.9 0.2,-0.4 0.3,-0.6 0.8,-0.4 h 0.7 l 0.8,0.2 0.7,0.7 0.8,0.9 0.6,0.4 h 0.7 l 0.5,-0.3 0.4,-0.6 -0.2,-0.9 -0.6,-1.2 m 2.6,4.8 -0.7,-0.6 h -0.7 l -0.5,0.3 -0.4,0.5 v 0.7 l 0.3,1.2 0.2,1 -0.3,0.8 -0.3,0.5 -0.8,0.4 -0.7,0.1 -0.4,-0.2 -0.7,-0.6 -0.6,-1.1 -0.1,-0.9 0.1,-0.4 0.4,-0.6 0.8,-0.4 h 0.6 l 0.8,0.2 0.7,0.7 0.9,0.9 0.5,0.4 h 0.7 l 0.5,-0.3 0.4,-0.6 -0.2,-0.9 -0.6,-1.2 m -13.5,39 0.8,-0.6 0.1,-0.7 -0.2,-0.5 -0.5,-0.5 -0.7,-0.1 -1.2,0.1 h -0.9 l -0.8,-0.3 -0.5,-0.5 -0.3,-0.9 0.1,-0.6 0.2,-0.4 0.7,-0.6 1.2,-0.4 h 0.9 l 0.4,0.2 0.5,0.5 0.3,0.8 -0.1,0.7 -0.4,0.8 -0.7,0.5 -1.1,0.7 -0.4,0.5 -0.1,0.7 0.2,0.5 0.4,0.5 h 1 l 1.3,-0.5 m -5.2,1.8 0.7,-0.5 0.1,-0.7 -0.2,-0.6 -0.5,-0.4 -0.6,-0.1 -1.3,0.1 H 345 l -0.8,-0.4 -0.4,-0.5 -0.3,-0.8 v -0.7 l 0.2,-0.4 0.8,-0.5 1.1,-0.4 h 1 l 0.4,0.1 0.4,0.5 0.3,0.9 -0.1,0.6 -0.3,0.8 -0.8,0.6 -1,0.6 -0.5,0.5 -0.1,0.7 0.2,0.6 0.5,0.4 h 0.9 l 1.3,-0.4 m -3.7,147.4 -0.3,1 0.4,0.5 0.5,0.4 0.6,0.1 0.6,-0.4 0.9,-0.8 0.8,-0.6 0.8,-0.1 0.7,0.1 0.7,0.5 0.4,0.6 v 0.4 l -0.2,0.9 -0.7,1 -0.8,0.6 h -0.4 l -0.6,-0.1 -0.8,-0.5 -0.3,-0.5 -0.2,-0.9 0.3,-0.9 0.4,-1.2 0.1,-0.6 -0.3,-0.6 -0.5,-0.3 -0.7,-0.1 -0.7,0.5 -0.8,1.2 m 6.2,-5.4 0.6,0.8 0.1,0.8 -0.2,0.9 -0.2,0.3 -0.8,0.5 -0.8,0.2 -0.9,-0.3 -0.3,-0.1 -0.5,-0.8 -0.2,-0.8 0.3,-0.9 0.1,-0.3 0.8,-0.6 0.8,-0.1 1.2,0.4 1.2,0.8 1.1,1.1 0.4,1 -0.3,1 -0.3,0.5 -0.7,0.5 -0.7,-0.1 m -46.3,-23 -0.8,0.4 h -0.9 l -0.8,-0.5 -0.2,-0.2 -0.4,-0.9 v -0.8 l 0.5,-0.8 0.2,-0.2 0.9,-0.4 h 0.8 l 0.8,0.4 0.3,0.3 0.3,0.8 v 0.9 l -0.7,1 -1,1 -1.3,0.8 -1.1,0.2 -0.8,-0.4 -0.5,-0.5 -0.4,-0.8 0.3,-0.7 m 8.4,1.1 -0.8,-0.4 -1.1,0.2 -1.3,0.8 -0.7,0.6 -0.9,1.2 -0.2,1.1 0.4,0.8 0.4,0.5 0.8,0.4 1.1,-0.1 1.3,-0.9 0.7,-0.6 0.9,-1.2 0.2,-1.1 -0.4,-0.8 -0.3,-0.4 m 98.5,-13.7 0.9,0.2 0.7,0.5 0.4,0.8 v 0.3 l -0.1,1 -0.6,0.6 -0.8,0.5 H 407 l -0.9,-0.2 -0.7,-0.5 -0.4,-0.9 -0.1,-0.3 0.2,-0.9 0.5,-0.7 1.2,-0.4 1.5,-0.2 1.5,0.1 1,0.5 0.4,0.8 0.1,0.6 -0.2,1 -0.6,0.3 m -4.5,-4.1 -0.4,-0.6 -1,-0.7 6.3,-0.8 m -21.4,16 -1,0.1 -0.4,0.6 -0.1,0.5 0.2,0.7 0.5,0.4 1.2,0.5 0.8,0.5 0.5,0.6 0.2,0.7 -0.2,0.9 -0.4,0.5 -0.3,0.3 -1,0.1 -1.2,-0.2 -0.8,-0.5 -0.2,-0.3 -0.2,-0.7 0.1,-0.9 0.4,-0.5 0.7,-0.5 1,-0.1 1.2,-0.1 0.7,-0.2 0.4,-0.5 0.1,-0.6 -0.2,-0.7 -0.9,-0.4 -1.3,-0.2 m 7.4,3.4 -0.4,0.9 -0.7,0.4 -1,0.2 -0.3,-0.1 -0.8,-0.4 -0.5,-0.7 -0.1,-1 v -0.3 l 0.5,-0.8 0.7,-0.5 0.9,-0.1 h 0.3 l 0.8,0.5 0.5,0.7 0.1,1.2 -0.2,1.5 -0.6,1.4 -0.8,0.8 -0.9,0.1 -0.6,-0.1 -0.8,-0.4 -0.2,-0.7 m 37.9,-30.6 -0.9,0.3 -0.8,-0.2 -0.8,-0.5 -0.2,-0.2 -0.3,-0.9 0.2,-0.9 0.5,-0.8 0.2,-0.1 0.9,-0.3 0.9,0.1 0.7,0.5 0.2,0.3 0.3,0.9 -0.1,0.8 -0.8,1 -1.2,0.9 -1.3,0.6 -1.1,0.1 -0.8,-0.5 -0.4,-0.5 -0.3,-0.9 0.3,-0.6 m 6,1.3 0.6,0.3 1.3,0.2 -5,3.8 m 41.1,-25.8 0.6,0.7 0.1,0.9 -0.3,0.9 -0.1,0.2 -0.8,0.6 -0.8,0.1 -0.9,-0.2 -0.3,-0.2 -0.5,-0.8 -0.2,-0.8 0.3,-0.9 0.2,-0.3 0.7,-0.5 0.9,-0.2 1.1,0.5 1.2,0.8 1.1,1.2 0.4,1 -0.3,0.9 -0.3,0.5 -0.8,0.5 -0.7,-0.1 m -0.6,-8.4 -0.3,0.9 0.4,1 1.1,1.1 0.7,0.5 1.4,0.6 1.1,0.1 0.8,-0.6 0.3,-0.5 0.3,-0.9 -0.4,-1 -1.1,-1.1 -0.7,-0.5 -1.4,-0.7 h -1.1 l -0.7,0.6 -0.3,0.3 m -162.3,-78.5 -0.6,-0.1 -1.3,0.1 3.9,-4.9 m -6.3,3.3 0.9,0.3 1,-0.3 1.2,-1 0.5,-0.7 0.7,-1.4 0.1,-1.1 -0.5,-0.8 -0.5,-0.3 -0.9,-0.4 -1,0.4 -1.2,1 -0.5,0.7 -0.7,1.3 -0.1,1.1 0.5,0.8 0.4,0.3 m -5.2,-4 5,-1.5 -3.6,-2.7 m -1.4,4.2 3.9,-5 m -18,14.5 0.5,0.4 1.2,0.5 -5.8,2.5 m 7.2,0.1 -0.7,-0.7 -1,-0.2 -1.5,0.3 -0.8,0.4 -1.3,0.9 -0.6,0.9 0.1,0.9 0.2,0.6 0.6,0.7 1.1,0.2 1.5,-0.3 0.8,-0.4 1.3,-0.9 0.6,-0.9 -0.1,-0.9 -0.2,-0.4 m 2.8,6.4 -1.2,-2.8 -2.6,0.8 0.4,0.2 0.6,0.7 0.4,0.8 v 1 l -0.3,0.8 -0.7,0.6 -0.5,0.2 -1,0.1 -0.8,-0.3 -0.6,-0.7 -0.4,-0.9 v -0.9 l 0.1,-0.4 0.5,-0.5 m 0.3,-25.1 -0.2,-0.9 0.2,-0.8 0.7,-0.7 0.2,-0.2 0.9,-0.2 0.9,0.3 0.7,0.6 0.1,0.3 0.2,0.9 -0.2,0.8 -0.7,0.7 -0.3,0.2 -0.9,0.1 -0.8,-0.2 -0.8,-0.9 -0.8,-1.3 -0.4,-1.5 v -1 l 0.7,-0.7 0.5,-0.3 0.9,-0.2 0.6,0.4 m -2.7,5.9 0.1,0.3 0.1,0.7 -0.1,0.4 -0.4,0.5 -1.1,0.6 h -0.6 l -0.5,-0.1 -0.5,-0.3 -0.3,-0.6 V 542 l 0.1,-1.1 1.1,-4.1 -3.6,2 m -7.2,46.8 h -0.7 l -1.2,0.3 3,-5.5 m -5.7,4.3 0.9,0.2 1,-0.5 1,-1.2 0.4,-0.8 0.5,-1.4 -0.1,-1.1 -0.7,-0.7 -0.5,-0.3 -0.9,-0.2 -1,0.5 -1,1.2 -0.4,0.8 -0.5,1.5 0.1,1 0.7,0.7 0.4,0.2 m -6.2,-3.3 2.7,1.4 1.5,-2.2 -0.4,0.1 -0.9,-0.1 -0.8,-0.5 -0.7,-0.7 -0.2,-0.8 0.2,-0.9 0.3,-0.5 0.7,-0.7 0.8,-0.2 0.9,0.1 0.8,0.5 0.6,0.7 0.2,0.4 -0.1,0.6 m -27.7,26.7 0.6,0.2 1.3,0.1 -4.7,4.2 m 6.8,-2.2 -0.8,-0.4 -1.1,0.1 -1.3,0.8 -0.7,0.6 -0.9,1.2 -0.3,1.1 0.4,0.8 0.4,0.5 0.8,0.5 1.1,-0.2 1.3,-0.8 0.7,-0.6 0.9,-1.2 0.3,-1 -0.4,-0.9 -0.3,-0.3 m 4.9,5.5 -6.6,2 m 3.8,-5.1 2.8,3.1 m -15,-34.3 -0.2,-0.9 0.2,-0.8 0.6,-0.8 0.3,-0.1 0.9,-0.2 0.8,0.2 0.7,0.6 0.2,0.3 0.2,0.9 -0.2,0.8 -0.7,0.8 -0.2,0.1 -0.9,0.2 -0.9,-0.2 -0.8,-0.9 -0.8,-1.3 -0.5,-1.4 0.1,-1.1 0.6,-0.7 0.5,-0.3 0.9,-0.2 0.6,0.3 m -4.4,8.9 2.5,-1.5 -1.1,-2.5 -0.1,0.4 -0.6,0.8 -0.8,0.4 -0.9,0.2 -0.8,-0.2 -0.7,-0.6 -0.4,-0.5 -0.1,-1 0.2,-0.8 0.6,-0.7 0.8,-0.5 0.9,-0.2 0.4,0.1 0.6,0.4 m 247.5,-50.2 -0.4,0.5 -0.4,1.2 -2.9,-5.5 m 0.4,7.1 0.7,-0.7 0.1,-1.1 -0.4,-1.4 -0.5,-0.8 -0.9,-1.2 -1,-0.5 -0.9,0.2 -0.6,0.2 -0.6,0.7 -0.1,1.1 0.4,1.5 0.5,0.8 0.9,1.1 1,0.6 0.9,-0.2 0.4,-0.2 m -4.3,2.3 0.6,-0.7 V 531 l -0.3,-0.5 -0.5,-0.4 h -0.7 l -1.2,0.3 -0.9,0.2 -0.8,-0.3 -0.6,-0.3 -0.4,-0.8 v -0.7 l 0.1,-0.4 0.7,-0.7 1,-0.6 1,-0.1 0.4,0.1 0.5,0.4 0.4,0.8 0.1,0.6 -0.3,0.9 -0.6,0.6 -1,0.9 -0.4,0.5 0.1,0.7 0.2,0.5 0.6,0.4 0.9,-0.1 1.2,-0.7 m 22.8,29.3 -0.5,-0.4 -1.1,-0.6 6,-1.9 m -7.1,-0.9 0.6,0.8 1,0.3 1.5,-0.2 0.9,-0.2 1.3,-0.8 0.7,-0.8 v -1 l -0.2,-0.5 -0.5,-0.8 -1,-0.3 -1.6,0.2 -0.8,0.2 -1.4,0.8 -0.6,0.8 -0.1,0.9 0.2,0.5 m -2.3,-7.1 7,0.9 m -5.7,3.1 -1.3,-4 m -44,-29.6 -0.3,-0.5 -1,-0.8 6.3,-0.7 m -6.8,-2.2 0.4,0.8 0.9,0.5 1.6,0.2 0.8,-0.1 1.5,-0.5 0.8,-0.7 0.3,-0.9 -0.1,-0.6 -0.4,-0.8 -1,-0.5 -1.5,-0.2 -0.9,0.1 -1.4,0.5 -0.9,0.6 -0.2,1 0.1,0.4 m -0.5,-4.9 0.4,0.9 0.6,0.2 h 0.6 l 0.6,-0.4 0.2,-0.6 0.2,-1.2 0.2,-1 0.5,-0.6 0.6,-0.4 0.9,-0.1 0.6,0.3 0.3,0.2 0.4,0.9 0.1,1.2 -0.2,0.9 -0.2,0.4 -0.6,0.3 -0.9,0.1 -0.6,-0.2 -0.7,-0.6 -0.4,-0.8 -0.4,-1.2 -0.4,-0.6 -0.6,-0.2 -0.6,0.1 -0.5,0.3 -0.3,0.9 0.2,1.4 m -16.9,-11.7 0.4,-0.9 0.6,-0.6 0.9,-0.3 0.3,0.1 0.9,0.3 0.6,0.6 0.2,0.9 v 0.3 l -0.3,0.9 -0.6,0.6 -1,0.2 h -0.3 l -0.8,-0.3 -0.6,-0.6 -0.3,-1.2 0.1,-1.5 0.4,-1.5 0.6,-0.9 0.9,-0.3 0.6,0.1 0.9,0.3 0.3,0.6 m -9.1,5 3.3,-6.1 m 0.9,6.3 -4.2,-0.2 m -302.6,-267 -0.5,0.8 -0.7,0.4 -1,0.1 -0.3,-0.1 -0.7,-0.5 -0.5,-0.8 V 234 l 0.1,-0.3 0.5,-0.8 0.7,-0.4 1,-0.1 0.3,0.1 0.7,0.5 0.5,0.8 -0.1,1.2 -0.3,1.4 -0.7,1.4 -0.8,0.7 -1,0.1 -0.6,-0.2 -0.8,-0.5 -0.1,-0.7 m 6.6,-3.8 3.2,0.9 -2.4,1.8 0.9,0.3 0.5,0.4 0.2,0.4 v 0.9 l -0.1,0.6 -0.6,0.8 -0.7,0.4 -0.9,0.1 -0.9,-0.3 -0.8,-0.5 -0.2,-0.4 -0.1,-0.6 m 59.1,-184.3 -3.2,-1 2.4,-1.8 -0.9,-0.2 -0.4,-0.5 -0.2,-0.4 -0.1,-0.9 0.2,-0.6 0.5,-0.8 0.8,-0.4 h 0.9 l 0.9,0.3 0.8,0.5 0.2,0.4 0.1,0.6 m -6.7,1.8 v 0.3 l -0.5,0.5 -0.4,0.2 -0.6,0.1 -1.2,-0.3 -0.5,-0.5 -0.2,-0.4 -0.1,-0.6 0.2,-0.6 0.4,-0.5 0.9,-0.7 3.7,-2 -4,-1.2 M 59.5,204.4 h 0.7 l 1.2,-0.2 -3.4,5.3 m 6,-3.9 -0.9,-0.2 -1,0.4 -1.1,1.1 -0.5,0.8 -0.5,1.4 v 1.1 l 0.6,0.7 0.5,0.3 0.9,0.3 1,-0.5 1.1,-1 0.5,-0.8 0.5,-1.4 v -1.1 l -0.6,-0.7 -0.3,-0.3 m 2.4,3.4 0.2,-0.2 0.5,-0.4 0.5,-0.1 0.6,0.1 1,0.7 0.4,0.6 v 0.4 0.6 l -0.4,0.5 -0.5,0.4 -1,0.4 -4.2,0.9 3.5,2.3 M 30.1,100 l 0.3,0.6 0.9,0.8 -6.3,0.3 m 6.7,2.7 -0.4,-0.9 -0.9,-0.6 -1.5,-0.2 H 28 l -1.5,0.4 -0.8,0.7 -0.3,0.9 v 0.6 l 0.4,0.9 0.9,0.5 1.5,0.2 h 0.9 l 1.5,-0.4 0.9,-0.6 0.2,-0.9 v -0.5 m -1.3,3.4 0.4,0.6 0.9,0.9 -6.3,0.2 m 55.1,-73.4 0.2,0.6 0.9,0.4 h 0.6 l 0.9,-0.2 0.7,-0.8 0.5,-1.5 0.1,-1.4 -0.1,-1.3 -0.6,-0.6 -0.8,-0.4 -0.3,-0.1 -1,0.2 -0.6,0.6 -0.4,0.8 v 0.3 l 0.2,1 0.5,0.6 0.9,0.4 0.3,0.1 0.9,-0.2 0.6,-0.6 0.4,-0.8 m -5.2,2.2 -0.6,0.2 -1,0.8 0.6,-6.2 m 177.8,59.3 2.6,1.3 1.5,-2.3 -0.4,0.2 -0.9,-0.2 -0.8,-0.4 -0.7,-0.6 -0.2,-0.8 0.1,-1 0.3,-0.5 0.6,-0.7 0.8,-0.3 1,0.2 0.8,0.4 0.7,0.7 0.1,0.4 v 0.6 m -7.6,1.9 -3,-1.5 2.7,-1.3 -0.8,-0.4 -0.4,-0.6 -0.1,-0.4 0.1,-0.9 0.3,-0.5 0.7,-0.7 0.8,-0.3 0.9,0.2 0.8,0.4 0.7,0.7 0.1,0.4 v 0.6 m -2.5,91.9 -0.3,0.9 0.3,0.6 0.5,0.3 0.7,0.1 0.6,-0.3 0.9,-0.8 0.8,-0.5 0.8,-0.2 0.7,0.1 0.7,0.6 0.3,0.6 0.1,0.4 -0.3,0.9 -0.7,1 -0.7,0.5 -0.5,0.1 -0.6,-0.1 -0.7,-0.5 -0.4,-0.6 -0.1,-0.9 0.3,-0.9 0.4,-1.1 0.1,-0.7 -0.3,-0.6 -0.5,-0.3 -0.6,-0.1 -0.8,0.5 -0.8,1.1 m 4.1,-5.8 1.7,4.9 2.6,-3.7 m -4.3,-1.2 5.1,3.6 m -67.5,323.6 -0.3,-0.9 -0.6,-0.3 h -0.6 l -0.6,0.3 -0.3,0.6 -0.3,1.2 -0.3,0.9 -0.6,0.6 -0.6,0.3 h -0.9 l -0.6,-0.3 -0.3,-0.3 -0.3,-0.9 v -1.2 l 0.3,-0.9 0.3,-0.3 0.6,-0.3 h 0.9 l 0.6,0.3 0.6,0.6 0.3,0.9 0.3,1.2 0.3,0.6 0.6,0.3 h 0.6 l 0.6,-0.3 0.3,-0.9 v -1.3 m 2.7,-62.7 -0.7,-0.6 -0.3,-0.8 0.1,-0.9 0.1,-0.3 0.6,-0.7 0.8,-0.4 0.9,0.1 0.3,0.1 0.7,0.6 0.3,0.8 v 1 l -0.1,0.2 -0.7,0.8 -0.7,0.3 -1.3,-0.2 -1.3,-0.6 -1.3,-0.8 -0.6,-0.9 v -1 l 0.3,-0.5 0.6,-0.7 0.7,-0.1 m 9.8,18.9 -0.5,-0.5 -1.2,-0.4 5.7,-2.7 m -7.2,0.1 0.7,0.7 1.1,0.2 1.5,-0.4 0.8,-0.4 1.2,-0.9 0.6,-0.9 -0.1,-0.9 -0.3,-0.6 -0.7,-0.7 -1,-0.1 -1.5,0.3 -0.8,0.4 -1.3,0.9 -0.5,0.9 0.1,1 0.2,0.4 m 49.1,37.8 -0.6,0.1 -1.1,0.7 1.6,-6.1 m -4.5,5.5 0.9,-0.1 0.8,-0.7 0.7,-1.3 0.2,-0.9 0.1,-1.5 -0.3,-1.1 -0.8,-0.5 -0.6,-0.1 h -0.9 l -0.8,0.7 -0.7,1.4 -0.2,0.9 -0.1,1.5 0.3,1 0.8,0.5 0.4,0.2 m -22.3,31 0.3,-0.6 0.2,-1.3 3.8,5 m 0.2,-8.3 1.5,6.8 m -4.8,-4.2 3.3,-2.6 m -77.8,-70.9 -1.3,-3.1 2.9,0.8 -0.3,-0.9 0.1,-0.6 0.1,-0.4 0.8,-0.6 0.5,-0.3 h 1 l 0.7,0.3 0.7,0.7 0.3,0.9 v 0.9 l -0.1,0.4 -0.5,0.5 m -7.2,-6.7 -0.5,0.5 0.1,0.9 0.2,0.6 0.6,0.7 1.1,0.2 1.5,-0.3 1.4,-0.5 1,-0.7 0.3,-0.8 v -1 l -0.1,-0.2 -0.7,-0.8 -0.7,-0.3 -1,0.1 -0.3,0.1 -0.7,0.6 -0.3,0.8 v 0.9 l 0.2,0.3 0.6,0.7 0.8,0.3 h 0.9 m -4.7,9.5 -1.4,3 -1.4,-2.7 -0.4,0.8 -0.5,0.4 -0.4,0.2 -0.9,-0.2 -0.6,-0.2 -0.6,-0.7 -0.3,-0.8 0.1,-0.9 0.4,-0.8 0.6,-0.7 0.4,-0.1 0.7,-0.1 m 0.6,10.7 -4.4,-5.4 m 6.2,1.6 -1.8,3.8 m 9.4,51.3 4.2,3 v -4.5 m -4.2,1.5 h 6.3 m -6.2,-4.4 0.3,0.9 0.9,0.6 1.5,0.3 h 0.9 l 1.5,-0.3 0.9,-0.6 0.3,-0.9 v -0.6 l -0.3,-0.9 -0.9,-0.6 -1.5,-0.3 h -0.9 l -1.5,0.3 -0.9,0.6 -0.3,0.9 v 0.4 m -35.7,11.5 2.6,2 -2.9,0.8 0.7,0.6 0.3,0.6 0.1,0.4 -0.3,0.9 -0.4,0.5 -0.8,0.5 -0.8,0.1 -0.9,-0.3 -0.7,-0.6 -0.6,-0.8 v -0.4 l 0.1,-0.6 m 8.6,0.1 -0.9,-0.3 -0.6,0.3 -0.4,0.5 -0.1,0.6 0.3,0.6 0.7,1 0.6,0.8 0.1,0.8 -0.2,0.7 -0.5,0.7 -0.6,0.3 -0.4,0.1 -0.9,-0.4 -1,-0.7 -0.5,-0.8 -0.1,-0.4 0.2,-0.7 0.5,-0.7 0.6,-0.3 0.9,-0.1 0.8,0.3 1.2,0.5 0.6,0.2 0.6,-0.3 0.4,-0.5 0.1,-0.7 -0.5,-0.7 -1.1,-0.9 m -17.3,-29.6 -3.2,0.8 1.1,-2.7 -0.8,0.2 -0.7,-0.1 -0.4,-0.3 -0.5,-0.7 -0.1,-0.6 v -1 l 0.4,-0.7 0.8,-0.5 0.9,-0.3 1,0.1 0.3,0.2 0.5,0.5 m -7.8,7.4 1.3,-6.9 m 2.7,5.8 -4,1.1"
       id="nums_001"
       stroke="#000000"
       stroke-width="1" />
    <path
       d="m 415.9,339.9 23.6,21.6 35,53.8 8.3,59.4 -85,18.2 48.4,2.1 3.9,37.6 33.4,-17.8 24.1,77 -64.4,90.8 -33.9,-44.8 6.9,55.7 -49.2,-8.9 -28,41.4 -76.1,-81.3 -53.7,-60.2 35,-20.6 46.2,25.1 -20.6,-48.4 19.9,-11.1 33.5,26.5 46.7,-16 -23.4,-43.6 32.4,-27.8 -19.8,-11.3 -32.6,-24.3 -33.7,-34.9 8,-86.7 -57.7,16.6 -49.4,40.9 -28.9,13.7 L 106.4,402 54,333.1 98.7,265.3 133.6,246.4 95.3,236.1 27.4,191.4 19.7,22.3 l 120.6,12.8 63.8,19 108.3,54.8 -98.4,137.6 77.4,-6.7 76.6,-13.4 -7.2,86.2 z M 278,483.1 l -90.6,69.1 0.2,-107.1 11.6,-28.1 24.1,51.3 z m -204.8,-0.6 54.8,-14.4 24.4,-51.2 11.4,28.2 -0.4,107.1 z"
       id="coupes_001"
       stroke="#ff0000"
       stroke-width="1.27"
       sodipodi:nodetypes="cccccccccccccccccccccccccccccccccccccccccccccccccccccccccc" />
    <path
       d="M 291.4,239.8 243.1,328 m 0,0 -29.1,-81.5 m 77.4,-6.7 9.4,71.6 m -167.2,-65 80.4,0.1 m 77.4,-6.7 69.4,72.8 M 193.7,368.9 133.6,246.4 M 164.8,382.6 98.7,265.3 m 262.1,47.3 -68,85.5 m 68,-85.5 -34.3,120.4 m 89.4,-93.1 -89.4,93.1 m 113,-71.5 -113,71.5 m 113,-71.5 -80.4,95.8 m 115.4,-42 -115.4,42 m 115.4,-42 -95.6,53.3 m 18.9,24.3 -51.3,3.5 m 51.3,-3.5 -27.9,47.1 m 27.9,-47.1 52.3,39.7 m 0,0 -80.2,7.4 m 80.2,-7.4 -40.8,105.2 m 0,0 -39.4,-97.8 m 39.4,97.8 -42.3,46.8 m 0,0 2.9,-144.6 M 367,684.6 323.2,556 M 367,684.6 290.4,589 m 0,0 32.8,-33 M 367,684.6 262.9,644.7 m 0,0 27.5,-55.7 m 159.7,-56.4 -6.9,150 m 6.9,-150 57.5,59.2 M 290.4,589 289.7,529.5 M 262.9,644.7 244.2,563.9 M 133.6,246.4 204.1,54.1 m 0,0 9.9,192.4 M 95.3,236.1 204.1,54.1 m -108.8,182 45,-201 M 27.4,191.4 140.3,35.1"
       id="plisM_001"
       stroke="#a52a2a"
       stroke-dasharray="4" />
    <path
       d="M 243.1,328 133.6,246.4 m 227.2,66.2 -60,-1.2 m -136,71.2 -31.2,-136.2 M 106.4,402 98.7,265.3 m 375.8,150 -76.7,77.6 m 0,0 -18.9,-24.3 m -191.3,-23.5 35.7,23.2 m 0,0 -35.9,83.9 m -23.6,-107.1 -35.8,23 m 35.4,84.1 -35.4,-84.1"
       id="plisV_001"
       stroke="#008000"
       stroke-dasharray="4, 1, 1, 1"
       stroke-width="1.27" />
    <path
       d="m 186.4,285.2 4,4 m 0,-4 -4,4 m 142.4,20.8 4,4 m 0,-4 -4,4 m -181.6,-1.5 4,4 m 0,-4 -4,4 m -46.6,15.1 4,4 m 0,-4 -4,4 m 333.6,116.5 4,4 m 0,-4 -4,4 m -47.9,22.7 4,4 m 0,-4 -4,4 m -182.8,-28.1 4,4 m 0,-4 -4,4 m -0.1,49.5 4,4 m 0,-4 -4,4 m -59.5,-57.6 4,4 m 0,-4 -4,4 m -0.2,49.5 4,4 m 0,-4 -4,4"
       id="marqueV_001"
       stroke="#008000" />
    <path
       d="m 324.4,372.4 1.5,-0.8 2.3,-2.2 v 15.7"
       id="titre_1"
       stroke="#4b0082" />
    <path
       d="m 194.9,479.9 v -0.7 l 0.8,-1.5 0.7,-0.8 1.5,-0.7 h 3 l 1.5,0.7 0.8,0.8 0.7,1.5 v 1.5 l -0.7,1.5 -1.5,2.2 -7.5,7.5 h 10.5"
       id="titre_2"
       stroke="#4b0082" />
    <path
       d="m 147.7,476.1 h 8.2 l -4.5,6 h 2.3 l 1.5,0.7 0.7,0.8 0.8,2.2 v 1.5 l -0.8,2.3 -1.5,1.5 -2.2,0.7 h -2.3 l -2.2,-0.7 -0.8,-0.8 -0.7,-1.5"
       id="titre_3"
       stroke="#4b0082" />
  </g>
  <g
     id="page_002">
    <path
       d="m 791.2,180 2.7,4.4 1.7,-4.2 m -4.4,-0.2 5.8,2.4 m -4.2,-6.2 -0.1,1 0.5,0.5 0.5,0.2 h 0.7 l 0.5,-0.5 0.7,-1 0.6,-0.7 0.8,-0.3 0.7,-0.1 0.8,0.4 0.5,0.5 0.1,0.4 v 0.9 l -0.5,1.1 -0.6,0.7 -0.4,0.2 h -0.7 l -0.8,-0.3 -0.4,-0.5 -0.4,-0.8 0.1,-0.9 0.2,-1.3 -0.1,-0.6 -0.4,-0.5 -0.6,-0.3 -0.6,0.1 -0.7,0.7 -0.5,1.3 m -59.9,-3.7 -2.4,-1.8 -1.8,2 h 0.4 l 0.9,0.2 0.7,0.6 0.6,0.7 0.1,0.9 -0.3,0.9 -0.3,0.5 -0.8,0.5 -0.9,0.2 -0.9,-0.3 -0.7,-0.6 -0.5,-0.7 -0.1,-0.5 0.1,-0.6 m 8.8,0.1 -0.9,-0.3 -1,0.4 -1.2,1 -0.5,0.7 -0.6,1.4 -0.1,1.1 0.6,0.8 0.5,0.3 0.9,0.3 1,-0.4 1.1,-1 0.5,-0.7 0.7,-1.4 v -1.1 l -0.5,-0.8 -0.4,-0.2 m 77.9,7.4 -3.3,-3.9 -1.1,4.3 m 4.4,-0.4 -6.1,-1.6 m 5,5.6 -0.1,-0.9 -0.5,-0.5 -0.6,-0.1 -0.6,0.1 -0.5,0.5 -0.6,1.1 -0.5,0.8 -0.7,0.4 -0.7,0.2 -0.8,-0.3 -0.5,-0.4 -0.3,-0.4 v -0.9 l 0.3,-1.2 0.5,-0.8 0.4,-0.2 0.6,-0.1 0.9,0.2 0.5,0.5 0.4,0.7 0.1,0.9 v 1.3 l 0.1,0.6 0.5,0.5 0.6,0.1 0.7,-0.1 0.5,-0.8 0.3,-1.3 m -85.7,-123.6 0.2,0.6 0.9,0.4 h 0.6 l 0.9,-0.2 0.7,-0.9 0.4,-1.4 0.1,-1.5 -0.2,-1.3 -0.5,-0.6 -0.9,-0.4 h -0.3 l -0.9,0.2 -0.7,0.6 -0.3,0.9 -0.1,0.3 0.3,0.9 0.5,0.6 0.9,0.4 h 0.3 l 0.9,-0.2 0.7,-0.6 0.3,-0.8 m -7.1,3.6 0.9,-0.2 0.7,-0.9 0.4,-1.4 v -0.9 l -0.1,-1.6 -0.6,-0.9 -0.8,-0.4 h -0.6 l -1,0.2 -0.6,0.9 -0.4,1.4 -0.1,0.9 0.2,1.5 0.5,1 0.9,0.4 h 0.4 m 97.5,186.6 0.6,0.3 1.2,0.2 -5.1,3.6 m 7,-1.3 -0.7,-0.6 -1.1,0.1 -1.4,0.6 -0.8,0.5 -1,1.1 -0.4,1 0.3,0.9 0.3,0.5 0.8,0.6 1.1,-0.1 1.4,-0.6 0.7,-0.5 1,-1.1 0.4,-1 -0.2,-0.9 -0.3,-0.4 m 2.5,7.2 -0.9,0.3 -0.9,-0.2 -0.7,-0.5 -0.2,-0.3 -0.3,-0.9 0.2,-0.8 0.5,-0.8 0.3,-0.2 0.9,-0.2 0.8,0.1 0.8,0.6 0.2,0.2 0.2,0.9 -0.1,0.8 -0.8,1 -1.2,0.8 -1.4,0.7 h -1.1 l -0.8,-0.6 -0.3,-0.5 -0.3,-0.9 0.3,-0.6 m 173.7,7.9 -0.1,-0.6 -0.6,-1.1 6.1,1.6 m -4.7,-2.4 -0.1,-0.6 -0.7,-1.1 6.1,1.6 m -4.4,-2.9 -0.3,-0.1 -0.5,-0.4 -0.2,-0.4 -0.1,-0.6 0.3,-1.2 0.4,-0.5 0.4,-0.2 0.6,-0.2 0.6,0.2 0.5,0.4 0.7,0.9 2.2,3.6 1,-4 m -87.6,150.9 0.5,-0.4 0.7,-1.1 1.6,6.1 m -0.3,-5.2 0.5,-0.5 0.6,-1.1 1.6,6.1 m -0.2,-5.2 0.5,-0.4 0.6,-1.1 1.6,6.1 m 53.3,18.2 0.4,0.5 1,0.8 -6.2,0.9 m 5.2,0.3 0.3,0.6 1.1,0.7 -6.3,1 m 6.7,0.7 0.5,3.3 -2.6,-1.5 0.1,0.9 -0.2,0.7 -0.2,0.3 -0.9,0.4 -0.6,0.1 -0.9,-0.1 -0.7,-0.5 -0.4,-0.9 -0.2,-0.9 0.2,-0.9 0.3,-0.3 0.5,-0.4 m 43.8,21.7 -0.1,-0.7 -0.5,-1.1 5.9,2 m -42.5,30.5 0.2,0.6 0.8,1 -6.2,-0.8 m 4.9,1.7 0.2,0.6 0.8,1 -6.3,-0.7 m 5.9,5.5 0.4,-3 -2.6,-0.6 0.2,0.3 0.2,0.9 -0.1,0.9 -0.4,0.9 -0.7,0.5 -0.9,0.2 -0.6,-0.1 -0.9,-0.4 -0.5,-0.7 -0.2,-0.9 0.1,-0.9 0.4,-0.9 0.4,-0.2 0.6,-0.2 m -1.2,53.7 -0.2,-0.2 -0.3,-0.6 -0.1,-0.4 0.1,-0.7 0.6,-1 0.6,-0.3 0.4,-0.1 0.7,0.1 0.5,0.3 0.3,0.6 0.4,1 0.9,4.2 2.3,-3.5 m 43,-248.9 -0.6,0.2 -1.1,0.6 1.4,-6.1 m -2.2,4.7 -0.6,0.2 -1.1,0.6 1.4,-6.1 m -5.9,4.4 0.2,0.6 0.8,0.5 0.6,0.2 0.9,-0.1 0.8,-0.8 0.6,-1.3 0.4,-1.5 V 293 l -0.5,-0.8 -0.8,-0.5 h -0.3 -0.9 l -0.7,0.5 -0.5,0.8 -0.1,0.3 0.1,0.9 0.4,0.8 0.8,0.5 h 0.3 l 1,-0.1 0.7,-0.4 0.5,-0.8 m 14.3,58.3 0.3,0.9 0.9,0.7 1.5,0.3 h 0.9 l 1.5,-0.3 0.9,-0.6 0.3,-0.9 V 352 l -0.2,-0.9 -0.9,-0.6 -1.5,-0.3 h -0.9 l -1.5,0.3 -0.9,0.5 -0.4,0.9 v 0.5 m -78.9,152.2 -0.5,-0.4 -1.3,-0.3 5.4,-3.2 m -4.9,1.7 -0.6,-0.3 -1.2,-0.3 5.4,-3.3 m -8.1,-0.7 1.6,2.6 2.5,-1.2 -0.4,-0.1 -0.8,-0.6 -0.4,-0.7 -0.3,-1 0.2,-0.8 0.7,-0.7 0.5,-0.3 0.9,-0.2 0.8,0.2 0.7,0.6 0.5,0.7 0.2,1 -0.1,0.4 -0.3,0.5 m -62.9,14.1 0.5,0.5 1.1,0.7 -6.1,1.6 m 5.2,-0.3 0.4,0.5 1.1,0.7 -6.1,1.6 m 7.5,2.4 -4.8,-1.8 1.1,4.4 m 3.7,-2.6 -6.1,1.7 m 29,-32.8 -0.6,0.4 -0.7,1 -1.1,-6.2 m -0.2,5.2 -0.5,0.4 -0.7,1.1 -1.1,-6.2 m -0.6,6.7 -3.3,0.5 1.4,-2.6 -0.9,0.1 -0.6,-0.2 -0.4,-0.2 -0.4,-0.9 -0.1,-0.5 0.1,-1 0.5,-0.7 0.8,-0.4 0.9,-0.2 1,0.2 0.3,0.2 0.4,0.5 m 90.1,-255.6 -0.2,-0.6 -0.9,-0.9 6.3,0.3 m -5,-1.3 -0.3,-0.6 -0.9,-1 6.3,0.3 m -6.4,-2.9 0.3,0.9 0.6,0.3 h 0.6 l 0.6,-0.2 0.3,-0.6 0.4,-1.2 0.3,-0.9 0.7,-0.6 0.6,-0.2 h 0.9 l 0.6,0.3 0.2,0.4 0.3,0.9 -0.1,1.2 -0.3,0.9 -0.3,0.2 -0.6,0.3 h -0.9 l -0.6,-0.4 -0.6,-0.6 -0.2,-0.9 -0.3,-1.2 -0.3,-0.6 -0.5,-0.4 h -0.6 l -0.7,0.3 -0.3,0.9 -0.1,1.3 m -148.9,476.8 -1.7,2.4 2,1.8 -0.1,-0.4 0.3,-0.9 0.5,-0.7 0.8,-0.6 0.8,-0.1 0.9,0.3 0.5,0.4 0.6,0.7 0.1,0.9 -0.3,0.9 -0.5,0.7 -0.8,0.5 -0.4,0.1 -0.7,-0.1 m -28.7,-24.6 -0.1,0.7 0.3,1.2 -5.3,-3.4 m 3.7,3.6 -0.1,0.7 0.3,1.3 -5.3,-3.5 m 3.3,4.1 0.3,0.2 0.3,0.6 0.1,0.4 -0.1,0.7 -0.6,1 -0.6,0.3 -0.4,0.1 -0.7,-0.1 -0.5,-0.3 -0.3,-0.6 -0.5,-1 -0.8,-4.1 -2.3,3.5 m 7.2,18.9 0.6,0.1 1.3,-0.2 -3.7,5.1 m 3.9,-3.6 0.6,0.2 1.3,-0.3 -3.7,5.2 m 7.2,-1.8 0.1,-0.7 -0.6,-0.8 -0.5,-0.3 -0.9,-0.3 -1,0.4 -1.1,1 -0.9,1.3 -0.4,1.1 0.1,0.8 0.6,0.8 0.2,0.2 0.9,0.3 0.8,-0.2 0.8,-0.5 0.2,-0.3 0.3,-0.9 -0.2,-0.8 -0.5,-0.8 -0.3,-0.2 -0.9,-0.2 -0.8,0.1 -0.8,0.6 m 51.6,-176.7 -0.6,-0.4 -1.2,-0.3 5.4,-3.2 m -5,1.7 -0.5,-0.4 -1.3,-0.3 5.5,-3.2 m -8.3,-1.1 7,-0.7 m -4.8,4.3 -2.2,-3.6 m -57.6,119.8 h 0.7 l 1.2,-0.3 -3.1,5.4 m 3.5,-3.9 0.6,0.1 1.3,-0.4 -3.2,5.5 m 5.6,-4.3 -1,-0.2 -0.5,0.4 -0.3,0.5 -0.1,0.6 0.4,0.6 0.9,0.9 0.6,0.7 0.2,0.8 v 0.7 l -0.4,0.7 -0.6,0.4 -0.4,0.1 -0.9,-0.2 -1.1,-0.6 -0.6,-0.7 -0.1,-0.4 v -0.6 l 0.5,-0.8 0.5,-0.4 0.8,-0.2 1,0.2 1.2,0.3 h 0.6 l 0.6,-0.3 0.3,-0.5 v -0.7 l -0.6,-0.7 -1.2,-0.7 m -65.5,8.3 -2.8,1.1 0.7,2.6 0.2,-0.4 0.7,-0.6 0.9,-0.3 0.9,-0.1 0.8,0.3 0.6,0.7 0.2,0.6 0.1,0.9 -0.3,0.8 -0.8,0.6 -0.8,0.4 h -0.9 l -0.4,-0.1 -0.5,-0.5 m 5.9,-7.9 -1.2,5 4.2,-1.7 m -3,-3.3 2.4,5.8 m -33.2,-134.2 0.3,-0.1 0.7,0.1 0.4,0.1 0.5,0.5 0.4,1.1 v 0.6 l -0.2,0.4 -0.4,0.5 -0.6,0.3 -0.7,-0.1 -1,-0.2 -3.9,-1.6 1.6,3.9 m 5.1,-0.3 0.2,-0.2 0.7,0.1 0.4,0.1 0.5,0.5 0.5,1.1 -0.1,0.7 -0.2,0.4 -0.4,0.5 -0.5,0.2 -0.7,-0.1 -1.1,-0.2 -3.9,-1.6 1.6,3.9 m 39,-64.7 2.5,-1.8 -1.4,-2.3 v 0.4 l -0.6,0.7 -0.7,0.6 -0.9,0.2 -0.9,-0.1 -0.7,-0.5 -0.4,-0.5 -0.3,-0.9 0.2,-0.9 0.5,-0.7 0.7,-0.6 1,-0.2 h 0.4 l 0.6,0.3 m -2.1,6.1 -0.4,0.6 -0.2,1.3 -3.6,-5.2 m 72.9,4.7 1.8,2.3 2.4,-1.4 h -0.5 l -0.8,-0.6 -0.5,-0.7 -0.3,-0.9 0.1,-0.8 0.5,-0.8 0.4,-0.4 0.9,-0.3 0.9,0.1 0.8,0.5 0.5,0.7 0.4,0.9 -0.1,0.4 -0.3,0.7 m -6.4,-2.4 -0.3,0.2 -0.6,0.1 h -0.4 l -0.7,-0.3 -0.7,-1 -0.1,-0.6 v -0.4 l 0.3,-0.7 0.5,-0.3 0.6,-0.2 1.1,-0.1 4.2,0.5 -2.6,-3.3 m -261.2,-390 0.4,0.6 0.9,0.8 -6.2,0.6 m 6.9,4.1 -0.3,-3 h -2.7 l 0.3,0.3 0.4,0.8 0.1,0.9 -0.2,0.9 -0.6,0.7 -0.8,0.4 h -0.6 l -1,-0.2 -0.6,-0.5 -0.4,-0.9 -0.1,-0.9 0.2,-0.9 0.3,-0.3 0.6,-0.4 m 59.5,124 4.1,5.6 m -6.1,-2 2,-3.6 m 1.4,-2.6 -0.1,0.9 0.5,1 1.1,1 0.8,0.4 1.5,0.5 1.1,-0.1 0.6,-0.7 0.3,-0.5 0.2,-0.9 -0.5,-1 -1.1,-1 -0.8,-0.4 -1.5,-0.5 -1.1,0.1 -0.7,0.7 -0.2,0.3 m -64,-33.6 -5.4,-4.4 m 6.4,0.3 -1,4.1 m -0.4,1.7 -0.8,3.2 -1.9,-2.3 -0.2,0.9 -0.4,0.5 -0.4,0.2 -0.9,0.1 -0.6,-0.2 -0.8,-0.5 -0.5,-0.7 v -1 l 0.2,-0.8 0.5,-0.8 0.4,-0.3 0.6,-0.1 m 17.6,69.3 -6.7,2 m 3.8,-5.1 2.9,3.1 m 3.2,3.5 -2.1,-2.2 -2.2,1.6 h 0.5 l 0.8,0.4 0.6,0.7 0.4,0.9 v 0.8 l -0.5,0.9 -0.4,0.4 -0.9,0.3 h -0.9 l -0.8,-0.5 -0.6,-0.6 -0.4,-0.9 v -0.4 l 0.3,-0.6 m 229.5,49.3 -0.7,0.1 -1.2,0.6 2,-6 m -4.8,5.3 h 0.9 l 0.9,-0.7 0.7,-1.3 0.3,-0.9 0.2,-1.5 -0.3,-1 -0.7,-0.6 -0.6,-0.2 h -0.9 l -0.9,0.7 -0.7,1.3 -0.3,0.9 -0.2,1.5 0.3,1 0.7,0.6 0.4,0.1 m -6.2,-4.3 0.6,-0.7 0.7,-0.4 h 1 l 0.2,0.1 0.8,0.5 0.4,0.8 v 1 l -0.1,0.2 -0.6,0.8 -0.7,0.4 h -1 l -0.3,-0.1 -0.7,-0.6 -0.4,-0.8 0.1,-1.2 0.5,-1.4 0.7,-1.3 0.9,-0.7 h 0.9 l 0.6,0.2 0.8,0.6 v 0.6 m 33.2,116.3 0.7,-0.1 1.2,-0.4 -2.7,5.7 m 3.1,-4.1 0.7,-0.1 1.2,-0.4 -2.7,5.7 m 5.5,-4.6 -1,-0.1 -0.9,0.5 -0.9,1.2 -0.4,0.9 -0.4,1.4 0.2,1.1 0.7,0.7 0.5,0.2 1,0.1 0.9,-0.5 0.9,-1.2 0.4,-0.9 0.3,-1.4 -0.1,-1.1 -0.7,-0.7 -0.4,-0.2 m -67.1,-29.8 -5.1,4.8 m 1.2,-6.3 3.9,1.5 m 4.1,1.5 -4.4,2.8 4.2,1.7 m 0.2,-4.5 -2.4,5.9 m 213.2,-260.5 -0.3,0.9 0.2,0.6 0.5,0.4 0.7,0.1 0.6,-0.3 1,-0.7 0.8,-0.5 0.8,-0.1 0.7,0.2 0.7,0.5 0.2,0.7 0.1,0.4 -0.4,0.9 -0.7,0.9 -0.8,0.5 h -0.5 l -0.6,-0.1 -0.7,-0.6 -0.3,-0.6 -0.1,-0.9 0.4,-0.8 0.5,-1.2 0.2,-0.6 -0.3,-0.6 -0.5,-0.4 -0.6,-0.2 -0.8,0.5 -0.9,1.1 m 4.5,-5.6 1.4,5 2.8,-3.4 m -4.2,-1.6 4.9,4.1 m -61,-64.4 -0.1,-0.9 0.3,-0.8 0.7,-0.7 0.3,-0.1 0.9,-0.1 0.8,0.3 0.7,0.7 0.1,0.3 0.1,0.9 -0.3,0.8 -0.7,0.7 -0.3,0.1 -0.9,0.1 -0.8,-0.3 -0.8,-1 -0.6,-1.3 -0.3,-1.5 0.1,-1.1 0.7,-0.7 0.6,-0.2 0.9,-0.1 0.6,0.4 m -3.5,7.5 0.7,-0.6 v -0.7 l -0.2,-0.5 -0.6,-0.5 h -0.6 l -1.2,0.2 -1,0.1 -0.8,-0.3 -0.5,-0.4 -0.4,-0.8 0.1,-0.7 0.1,-0.4 0.7,-0.6 1.1,-0.5 0.9,-0.1 0.4,0.1 0.6,0.5 0.3,0.8 v 0.7 l -0.3,0.7 -0.7,0.7 -1,0.8 -0.4,0.5 v 0.7 l 0.2,0.5 0.6,0.4 0.9,-0.1 1.2,-0.5 m 78.5,-8.5 0.6,-0.7 0.8,-0.4 0.9,0.1 0.3,0.1 0.7,0.6 0.4,0.8 -0.1,0.9 -0.1,0.3 -0.6,0.7 -0.8,0.4 -0.9,-0.1 -0.3,-0.1 -0.7,-0.6 -0.4,-0.8 0.2,-1.2 0.5,-1.4 0.9,-1.3 0.9,-0.6 0.9,0.1 0.6,0.2 0.7,0.6 0.1,0.7 m -9.3,-0.2 0.6,-0.7 0.8,-0.3 h 0.9 l 0.3,0.1 0.7,0.6 0.4,0.8 -0.1,1 -0.1,0.3 -0.6,0.7 -0.8,0.3 h -0.9 l -0.3,-0.2 -0.7,-0.6 -0.4,-0.7 0.2,-1.3 0.6,-1.4 0.8,-1.2 0.9,-0.7 0.9,0.1 0.6,0.2 0.7,0.6 0.1,0.7 m -304.9,521 -0.1,0.3 -0.5,0.5 -0.3,0.2 -0.7,0.1 -1.2,-0.3 -0.4,-0.5 -0.2,-0.4 -0.2,-0.6 0.2,-0.6 0.5,-0.5 0.8,-0.7 3.8,-2 -4.1,-1.2 m -2.9,4.1 -0.1,0.3 -0.5,0.5 -0.4,0.2 -0.6,0.1 -1.2,-0.3 -0.5,-0.5 -0.2,-0.4 -0.1,-0.6 0.2,-0.6 0.5,-0.5 0.8,-0.7 3.7,-2 -4,-1.2 m -50.2,9 0.1,0.2 0.1,0.7 -0.2,0.4 -0.4,0.6 -1,0.5 h -0.7 l -0.4,-0.1 -0.6,-0.4 -0.2,-0.5 v -0.7 l 0.1,-1.1 1.3,-4 -3.8,1.9 m 1.4,6.4 -2.9,1.5 0.5,-3 -0.8,0.5 h -0.7 l -0.4,-0.2 -0.7,-0.6 -0.3,-0.6 -0.1,-0.9 0.2,-0.8 0.7,-0.7 0.8,-0.4 0.9,-0.1 0.4,0.1 0.6,0.4 m -5.4,60.5 1.1,3.1 -2.8,-0.8 0.3,0.8 -0.1,0.7 -0.2,0.4 -0.7,0.5 -0.6,0.2 -0.9,0.1 -0.8,-0.4 -0.6,-0.7 -0.3,-0.9 v -0.9 l 0.2,-0.4 0.4,-0.5 m 5.3,3.7 0.5,0.5 1.1,0.5 -5.9,2.1 m 45.5,43.4 3.2,-0.3 -1.5,2.5 h 0.9 l 0.6,0.2 0.3,0.3 0.4,0.8 v 0.6 l -0.2,1 -0.5,0.6 -0.9,0.4 -0.9,0.1 -0.9,-0.2 -0.3,-0.3 -0.4,-0.6 m 5.5,-4.1 v -0.3 l 0.2,-0.6 0.3,-0.3 0.6,-0.4 1.2,-0.1 0.6,0.2 0.3,0.3 0.4,0.6 v 0.6 l -0.2,0.6 -0.5,1 -2.7,3.2 4.1,-0.4 m 314.5,-92.7 v 0.3 l -0.2,0.6 -0.3,0.3 -0.6,0.4 -1.1,0.2 -0.7,-0.3 -0.3,-0.2 -0.4,-0.6 v -0.6 l 0.2,-0.6 0.5,-1 2.6,-3.3 -4.2,0.5 m -98.4,111.6 -2.3,-1.9 -2,1.8 h 0.4 l 0.9,0.3 0.7,0.6 0.5,0.8 v 0.9 l -0.3,0.9 -0.4,0.4 -0.8,0.5 -0.9,0.1 -0.9,-0.4 -0.7,-0.6 -0.4,-0.8 -0.1,-0.4 0.2,-0.7 m 69.9,-4.7 -0.8,0.5 -0.2,1.1 0.2,1.5 0.3,0.9 0.8,1.3 0.8,0.6 h 1 l 0.5,-0.2 0.8,-0.6 0.3,-1 -0.3,-1.5 -0.3,-0.9 -0.7,-1.3 -0.9,-0.7 -1,0.1 -0.4,0.1 m 62.5,-64.1 -0.2,-0.6 -0.6,-1.1 6.1,1.5 m -31.4,-465.1 2.7,-1.4 -1,-2.5 -0.1,0.4 -0.7,0.7 -0.8,0.4 -0.9,0.1 -0.8,-0.2 -0.7,-0.7 -0.3,-0.5 -0.1,-1 0.2,-0.8 0.7,-0.6 0.8,-0.5 0.9,-0.1 0.4,0.1 0.6,0.4 m -3,7.3 -2.9,1.5 0.5,-3 -0.8,0.4 -0.7,0.1 -0.4,-0.2 -0.7,-0.6 -0.2,-0.6 -0.2,-0.9 0.3,-0.8 0.6,-0.7 0.8,-0.4 1,-0.2 0.4,0.2 0.5,0.4 m 24.5,7.2 -1.4,2.7 2.3,1.5 -0.1,-0.4 0.1,-1 0.4,-0.8 0.7,-0.7 0.8,-0.2 0.9,0.1 0.6,0.3 0.6,0.6 0.3,0.8 -0.1,1 -0.4,0.8 -0.7,0.7 -0.4,0.1 h -0.7 m -0.8,-9.9 2.4,4.6 2,-4.1 m -4.4,-0.5 5.6,2.8 m -335.1,97.2 2.9,0.5 0.8,-2.6 -0.3,0.2 -1,0.2 -0.9,-0.2 -0.8,-0.5 -0.5,-0.7 -0.1,-0.9 0.1,-0.6 0.5,-0.8 0.7,-0.5 0.9,-0.1 0.9,0.1 0.8,0.5 0.3,0.3 0.1,0.7 m -7.9,3.7 0.9,-0.1 0.8,-0.8 0.5,-1.4 0.2,-0.9 v -1.5 l -0.4,-1 -0.9,-0.5 -0.6,-0.1 -0.9,0.1 -0.8,0.8 -0.5,1.4 -0.2,0.9 v 1.5 l 0.5,1 0.8,0.5 0.4,0.1 m 12.7,116.4 -1.2,5 4.2,-1.7 m -3,-3.3 2.3,5.8 m 3.9,-7.2 -0.5,-0.4 h -0.9 l -0.6,0.2 -0.7,0.6 -0.2,1.1 0.2,1.5 0.6,1.4 0.7,1 0.7,0.3 h 1 l 0.3,-0.1 0.7,-0.6 0.3,-0.8 v -0.9 l -0.1,-0.3 -0.6,-0.7 -0.8,-0.4 -0.9,0.1 -0.3,0.1 -0.7,0.6 -0.4,0.7 0.1,1 m -85.9,-65.5 -5.6,-4.2 m 6.4,0.1 -0.8,4.1 m -0.6,2.9 -0.1,-0.9 -0.8,-0.8 -1.4,-0.6 -0.9,-0.2 h -1.5 l -1,0.5 -0.5,0.8 -0.1,0.6 0.1,0.9 0.8,0.8 1.4,0.6 0.9,0.1 h 1.5 l 1,-0.4 0.5,-0.8 0.1,-0.4 m 13.3,67.3 -3.9,5.8 m -0.2,-6.5 4.1,0.7 m 0.9,1.6 0.6,-0.2 1,-0.7 -1,6.2"
       id="nums_002"
       stroke="#000000"
       stroke-width="1" />
    <path
       d="m 876.6,427 -82.5,-39.1 -44.5,-17.5 -79,30.5 L 600,389.2 629.2,242.3 762,267 l 82,27.4 -49.8,-70.7 21.7,-82.2 -32.2,78.7 -108.9,-79.8 -72.7,130.9 -53.8,-58.7 23.3,-94.3 -6.9,-75.9 322.7,25.5 91.7,-41.8 72.2,28.8 -107.9,130.4 107.8,-55.8 -39.8,80.1 -1.5,32.2 -11.5,43.1 44.9,10.8 -2,112.5 -33.6,102.5 -51.9,77.7 92.8,-10.9 -26.2,104.6 -106,37.8 -40.9,-35.2 -31.9,43.5 -37.6,-26.9 24.4,-37.3 -28,-16.1 -82.9,33.6 -66.3,5.9 -39.8,-109.9 60.3,-31.1 64.9,19.5 -26.1,-62.6 99,-71.4 57.2,72.5 26.9,45.3 -16.2,-60.8 67,-11.7 23.8,38.9 5.6,-45.3 -10.2,-67.2 z"
       id="coupes_002"
       stroke="#ff0000"
       stroke-width="1.27"
       sodipodi:nodetypes="ccccccccccccccccccccccccccccccccccccccccccccccccccc" />
    <path
       d="m 674.8,140.4 141.1,1.1 m 71.5,-73.6 -71.5,73.6 M 943.4,185.3 815.9,141.5 M 943.4,185.3 844,294.4 m 99.4,-109.1 66.5,56.5 M 998.4,284.9 844,294.4 M 876.6,427 844,294.4 m 154.4,-9.5 42.9,123.3 m 0,0 -75.7,-4.6 m 75.7,4.6 -65.5,62.6 m 31.9,39.9 -31.9,-39.9 m 31.9,39.9 -37.5,5.4 m -14.4,72.3 14.4,-72.3 m -14.4,72.3 -60.2,-38.7 m 0,0 74.6,-33.6 m -74.6,33.6 50.8,-72.5 m 9.4,111.2 -80.3,96.3 m 0,0 -45.1,-20.7 m 13.2,64.2 -13.2,-64.2 m -110.9,17.5 19.1,-115.6 m 0,0 130.1,-61.5 M 674.8,140.4 571.6,118.3 m 30.5,153 -30.5,-153 M 876.6,427 762,267 M 749.6,370.4 762,267 M 887.4,67.9 1051.3,54.9 M 719.5,681.5 613.4,577.5 M 670.6,400.9 629.2,242.3"
       id="plisM_002"
       stroke="#a52a2a"
       stroke-dasharray="4" />
    <path
       d="M 674.8,140.4 887.4,67.9 m 0,0 56,117.4 m 0,0 -149.2,38.4 M 674.8,140.4 564.7,42.4 M 1009.9,241.8 844,294.4 m 154.4,-9.5 -32.8,118.7 m 0,0 L 844,294.4 m 99.4,-109.1 68,24.3 m -135.9,475.1 20.1,-135 M 830.4,664 895.6,549.7 M 830.4,664 868.7,504.4 M 802.4,647.9 868.7,504.4 M 719.5,681.5 868.7,504.4 m -156.2,-1.1 156.2,1.1 M 794.1,387.9 762,267 M 719.5,681.5 673.7,546.4 m 374.9,31.1 -173.1,107.2 M 1048.6,577.5 916.4,719.9 M 749.6,370.4 629.2,242.3"
       id="plisV_002"
       stroke="#008000"
       stroke-dasharray="4, 1, 1, 1"
       stroke-width="1.27" />
    <path
       d="m 779.1,102.1 4,4 m 0,-4 -4,4 m 134.3,18.5 4,4 m 0,-4 -4,4 m -46.6,73.9 4,4 m 0,-4 -4,4 M 617.7,89.4 l 4,4 m 0,-4 -4,4 m 307.2,172.7 4,4 m 0,-4 -4,4 m 55.1,72.2 4,4 m 0,-4 -4,4 m -77.2,0.7 4,4 m 0,-4 -4,4 m 72.6,-155.6 4,4 m 0,-4 -4,4 m -91.9,415.8 4,4 m 0,-4 -4,4 m -22.5,-14.3 4,4 m 0,-4 -4,4 m -13.4,-26.7 4,4 m 0,-4 -4,4 m -14,-12.1 4,4 m 0,-4 -4,4 m -41.5,12.8 4,4 m 0,-4 -4,4 m -3.5,-93 4,4 m 0,-4 -4,4 M 776,325.4 l 4,4 m 0,-4 -4,4 m -81.4,282.5 4,4 m 0,-4 -4,4 m 265.4,13.2 4,4 m 0,-4 -4,4 m 20.5,13.6 4,4 m 0,-4 -4,4 m -293.1,-346.3 4,4 m 0,-4 -4,4"
       id="marqueV_002"
       stroke="#008000" />
    <path
       d="m 897.1,362.5 -7.5,10.5 h 11.3 m -3.8,-10.5 v 15.7"
       id="titre_4"
       stroke="#4b0082" />
  </g>
  <g
     id="page_003">
    <path
       d="m 1406.7,40.6 0.4,0.6 1,0.2 0.5,-0.1 0.9,-0.4 0.5,-1 0.1,-1.5 -0.2,-1.5 -0.4,-1.2 -0.7,-0.5 -0.9,-0.2 -0.3,0.1 -0.9,0.4 -0.5,0.6 -0.2,1 v 0.3 l 0.5,0.8 0.6,0.5 1,0.2 h 0.3 l 0.8,-0.4 0.5,-0.7 0.2,-0.9 m -6.3,5 0.9,-0.4 0.5,-1 0.1,-1.5 -0.1,-0.9 -0.5,-1.4 -0.7,-0.9 -0.9,-0.2 -0.6,0.1 -0.9,0.4 -0.5,1 -0.1,1.5 0.1,0.9 0.5,1.5 0.7,0.8 0.9,0.2 0.5,-0.1 m -79.1,126 -0.5,0.4 v 1 l 0.2,0.5 0.5,0.8 1.1,0.3 1.5,-0.1 1.4,-0.5 1.1,-0.6 0.4,-0.8 V 168 l -0.1,-0.3 -0.5,-0.8 -0.8,-0.4 h -0.9 l -0.3,0.1 -0.8,0.5 -0.4,0.8 v 0.9 l 0.1,0.3 0.5,0.8 0.8,0.4 h 0.9 m -6.5,-7 0.8,2.9 2.7,-0.5 -0.4,-0.2 -0.5,-0.8 -0.3,-0.9 v -0.9 l 0.4,-0.8 0.8,-0.5 0.6,-0.2 h 0.9 l 0.8,0.4 0.5,0.8 0.3,0.9 v 0.9 l -0.2,0.4 -0.5,0.4 m 72.9,-11.3 -0.6,-0.3 -0.9,0.3 -0.5,0.4 -0.5,0.8 0.1,1.1 0.7,1.3 0.9,1.2 1,0.7 0.9,0.1 0.9,-0.3 0.2,-0.2 0.5,-0.8 0.1,-0.8 -0.3,-0.9 -0.2,-0.3 -0.8,-0.5 -0.9,-0.1 -0.8,0.4 -0.3,0.1 -0.5,0.8 -0.1,0.9 0.3,0.9 m 2.5,-7.4 -0.5,0.8 0.1,0.7 0.4,0.4 0.6,0.3 0.7,-0.1 1.1,-0.6 0.9,-0.3 0.8,0.1 0.7,0.3 0.5,0.7 0.2,0.6 -0.1,0.5 -0.5,0.8 -0.9,0.7 -0.9,0.3 h -0.4 l -0.7,-0.3 -0.5,-0.7 -0.2,-0.6 0.1,-0.9 0.5,-0.8 0.8,-1 0.3,-0.6 -0.2,-0.6 -0.3,-0.5 -0.7,-0.3 -0.8,0.4 -1.1,0.8 m -60.3,6.5 0.5,-0.5 -0.2,-0.9 -0.2,-0.6 -0.7,-0.7 -1,-0.1 -1.5,0.3 -1.4,0.7 -0.9,0.7 -0.3,0.8 0.1,1 0.1,0.2 0.6,0.7 0.8,0.3 1,-0.1 0.3,-0.1 0.7,-0.7 0.2,-0.8 -0.1,-0.9 -0.1,-0.3 -0.6,-0.7 -0.8,-0.3 -1,0.2 m 7.5,6 -1.3,-2.7 -2.6,0.9 0.4,0.1 0.7,0.7 0.3,0.8 0.1,1 -0.2,0.8 -0.7,0.6 -0.6,0.3 -0.9,0.1 -0.8,-0.3 -0.7,-0.7 -0.3,-0.8 -0.2,-1 0.2,-0.4 0.4,-0.5 m -28.1,82.3 v -0.7 l -0.2,-1.2 5.3,3.4 m -3.4,-4.1 -0.2,-0.2 -0.4,-0.6 v -0.4 -0.6 l 0.7,-1.1 0.5,-0.3 0.5,-0.1 0.6,0.1 0.5,0.3 0.4,0.6 0.4,1 0.9,4.1 2.3,-3.5 m -2.5,-7.8 3.7,5.9 m -6,-2.4 2.3,-3.5 m -182.5,-21.6 0.4,0.6 1,0.8 -6.3,0.6 m 5.2,0.6 0.3,0.6 1,0.8 -6.3,0.5 m 4.9,4.7 -0.9,-0.2 -0.7,-0.6 -0.4,-0.9 v -0.3 l 0.2,-0.9 0.6,-0.6 0.8,-0.4 h 0.3 l 0.9,0.2 0.7,0.5 0.4,0.9 v 0.3 l -0.2,0.9 -0.6,0.7 -1.1,0.4 -1.5,0.1 -1.5,-0.2 -1,-0.5 -0.4,-0.8 v -0.6 l 0.2,-1 0.6,-0.3 m 9.7,28.6 0.5,0.5 1.1,0.6 -6,1.9 m 5.3,0 0.3,-0.1 0.6,0.2 0.4,0.2 0.5,0.4 0.3,1.2 -0.1,0.6 -0.2,0.4 -0.5,0.5 -0.5,0.2 -0.7,-0.1 -1,-0.3 -3.8,-2 1.3,4 m 4.9,-0.4 0.5,0.4 1.1,0.6 -6,1.9 m -28.6,85 -4.4,-2.8 0.3,4.5 m 4.1,-1.7 -6.3,0.3 m 6.6,5.4 -4.4,-2.7 0.3,4.5 m 4.1,-1.8 -6.3,0.4 m 25,-61 -0.5,0.5 -0.6,1.1 -1.8,-6 m -0.2,5.2 0.1,0.3 -0.1,0.7 -0.2,0.4 -0.5,0.4 -1.2,0.3 -0.6,-0.1 -0.4,-0.2 -0.4,-0.5 -0.2,-0.6 0.1,-0.6 0.3,-1.1 2.1,-3.7 -4,1.2 m -0.3,5.1 0.1,0.3 -0.2,0.6 -0.2,0.4 -0.5,0.4 -1.1,0.4 -0.7,-0.2 -0.3,-0.2 -0.5,-0.5 -0.2,-0.5 0.2,-0.7 0.3,-1 2,-3.7 -4,1.1 m 54,147.1 -0.2,-0.6 -0.8,-1 6.3,0.7 m -4.8,-2.2 h -0.3 l -0.6,-0.4 -0.3,-0.3 -0.2,-0.6 0.1,-1.2 0.4,-0.6 0.3,-0.3 0.6,-0.2 0.6,0.1 0.6,0.3 0.8,0.7 2.7,3.3 0.4,-4.2 m -5.7,-5.3 -0.3,2.9 2.6,0.6 -0.2,-0.3 -0.2,-0.9 v -0.9 l 0.4,-0.9 0.7,-0.5 0.9,-0.2 h 0.6 l 0.9,0.4 0.5,0.7 0.2,0.9 -0.1,0.9 -0.4,0.9 -0.3,0.3 -0.6,0.2 m -43,21 -4.9,-1.3 1.5,4.2 m 3.4,-2.9 -5.8,2.2 m 8,3.7 -1.1,-2.8 -2.6,0.6 0.4,0.2 0.6,0.8 0.3,0.8 v 0.9 l -0.3,0.8 -0.8,0.6 -0.5,0.2 -1,0.1 -0.7,-0.4 -0.6,-0.7 -0.4,-0.9 v -0.9 l 0.2,-0.4 0.4,-0.5 m 44.4,40.5 -0.4,-0.5 -1.1,-0.8 6.3,-1 m -5.3,-0.8 h -0.3 l -0.6,-0.2 -0.3,-0.2 -0.4,-0.5 -0.2,-1.2 0.2,-0.7 0.2,-0.3 0.5,-0.4 0.6,-0.1 0.7,0.2 1,0.4 3.4,2.5 -0.7,-4.1 m -6.1,-3.8 -0.5,0.4 -0.2,0.9 0.1,0.6 0.5,0.8 1,0.5 h 1.5 l 1.5,-0.2 1.1,-0.5 0.5,-0.7 0.1,-1 v -0.3 l -0.5,-0.8 -0.7,-0.5 -0.9,-0.1 h -0.3 l -0.8,0.5 -0.5,0.7 -0.2,0.9 0.1,0.3 0.4,0.8 0.7,0.5 1,0.2 m 1.8,48.5 2,2.7 h -3 l 0.5,0.7 0.1,0.7 v 0.4 l -0.6,0.8 -0.5,0.3 -0.9,0.3 -0.8,-0.1 -0.8,-0.6 -0.5,-0.7 -0.3,-0.9 v -0.4 l 0.4,-0.6 m 7.8,5.7 -0.9,0.3 -0.8,-0.2 -0.8,-0.5 -0.2,-0.3 -0.2,-0.9 0.1,-0.8 0.5,-0.8 0.3,-0.2 0.9,-0.2 0.8,0.1 0.8,0.5 0.2,0.3 0.3,0.9 -0.2,0.8 -0.8,1 -1.2,0.9 -1.4,0.6 h -1 l -0.8,-0.5 -0.4,-0.5 -0.3,-0.9 0.4,-0.6 M 1278.1,509 v 0.6 l 0.4,1.3 -5.6,-3 m 3.7,3.8 0.2,0.2 0.4,0.5 0.1,0.4 v 0.7 l -0.5,1 -0.6,0.4 -0.4,0.2 -0.7,-0.1 -0.5,-0.2 -0.4,-0.6 -0.5,-0.9 -1.2,-4.1 -2,3.7 m 4.2,5.6 0.1,-1 -0.5,-0.9 -1.2,-1 -0.8,-0.4 -1.4,-0.5 -1.1,0.2 -0.7,0.6 -0.3,0.5 -0.1,1 0.5,0.9 1.2,1 0.8,0.4 1.4,0.5 1.1,-0.1 0.7,-0.7 0.2,-0.4 m 57.7,116 0.3,-0.6 0.3,-1.2 3.4,5.3 m -1.9,-4.9 0.4,-0.6 0.3,-1.2 3.3,5.3 m 1.9,-6.4 0.3,0.9 -0.2,0.8 -0.6,0.8 -0.3,0.1 -0.9,0.3 -0.8,-0.2 -0.8,-0.6 -0.1,-0.3 -0.2,-0.9 0.1,-0.8 0.6,-0.8 0.3,-0.1 0.9,-0.2 0.8,0.1 0.9,0.9 0.8,1.3 0.6,1.4 v 1.1 l -0.6,0.7 -0.5,0.3 -1,0.3 -0.5,-0.4 m 57.8,1.5 -0.1,-0.7 -0.8,-0.6 -0.5,-0.2 h -1 l -0.9,0.7 -0.7,1.3 -0.5,1.4 -0.2,1.2 0.4,0.8 0.8,0.6 0.2,0.1 h 1 l 0.8,-0.4 0.5,-0.7 0.1,-0.3 0.1,-0.9 -0.4,-0.8 -0.8,-0.6 -0.2,-0.1 h -1 l -0.8,0.3 -0.5,0.8 m 6.1,-0.7 0.1,-0.3 0.5,-0.4 0.4,-0.2 0.6,-0.1 1.2,0.4 0.4,0.5 0.2,0.4 0.1,0.6 -0.2,0.6 -0.5,0.5 -0.9,0.6 -3.8,1.8 4,1.4 m 18.2,-35.7 -0.7,-3.2 2.8,1.2 -0.2,-0.8 0.2,-0.7 0.2,-0.3 0.8,-0.5 0.6,-0.2 0.9,0.2 0.7,0.4 0.5,0.8 0.2,0.9 -0.1,1 -0.2,0.3 -0.6,0.4 m -4.6,-4.4 -0.5,-0.5 -1,-0.7 6.1,-1.3 m -6.3,-85.6 -0.2,-0.1 -0.5,-0.5 -0.2,-0.4 -0.1,-0.6 0.5,-1.2 0.5,-0.4 0.3,-0.2 0.7,-0.1 0.6,0.2 0.4,0.5 0.7,0.9 1.7,3.8 1.5,-3.9 m -5.3,-3.8 1.1,-3.1 1.6,2.5 0.4,-0.8 0.4,-0.5 0.4,-0.2 1,0.1 0.5,0.2 0.8,0.6 0.3,0.7 v 1 l -0.3,0.8 -0.6,0.8 -0.4,0.1 -0.6,0.1 m -106.8,-56.7 1.7,-2.4 -2,-1.9 0.1,0.4 -0.3,1 -0.5,0.7 -0.8,0.5 -0.8,0.2 -0.9,-0.3 -0.5,-0.4 -0.6,-0.7 -0.1,-0.9 0.3,-0.9 0.5,-0.7 0.8,-0.6 h 0.4 l 0.7,0.1 m -3,9.2 -0.6,-0.7 -0.1,-0.9 0.3,-0.9 0.1,-0.2 0.8,-0.6 0.8,-0.1 1,0.3 0.2,0.2 0.6,0.7 0.1,0.9 -0.3,0.9 -0.2,0.2 -0.7,0.6 -0.9,0.1 -1.1,-0.5 -1.2,-0.8 -1.1,-1.2 -0.4,-1 0.3,-0.9 0.4,-0.5 0.7,-0.5 0.7,0.1 m 72.8,1.8 2.5,1.7 1.7,-2.1 -0.4,0.1 -0.9,-0.3 -0.8,-0.5 -0.6,-0.7 -0.1,-0.8 0.2,-1 0.3,-0.5 0.8,-0.5 0.8,-0.2 0.9,0.2 0.8,0.5 0.6,0.8 v 0.4 0.6 m -6.5,0.2 h -0.6 l -1.3,0.2 3.5,-5.3 M 1200.8,482 v 0.7 l 0.3,1.2 -5.5,-3 m 3.6,3.9 0.3,0.1 0.3,0.6 0.1,0.4 v 0.6 l -0.6,1.1 -0.5,0.4 -0.4,0.1 h -0.7 l -0.5,-0.3 -0.4,-0.6 -0.5,-1 -1.2,-4 -2,3.6 m 2.4,6.8 h 0.7 l 0.7,-0.6 0.3,-0.5 0.2,-1 -0.5,-0.9 -1.2,-1 -1.3,-0.7 -1.2,-0.4 -0.8,0.3 -0.7,0.6 -0.2,0.3 -0.1,0.9 0.2,0.8 0.6,0.7 0.3,0.2 0.9,0.2 0.8,-0.3 0.7,-0.6 0.2,-0.3 0.2,-0.9 -0.3,-0.8 -0.6,-0.7 m 47.7,-11.1 -0.6,0.2 -1,0.8 0.8,-6.3 m -2.3,4.8 -0.1,0.3 -0.3,0.5 -0.4,0.3 -0.6,0.2 -1.2,-0.2 -0.5,-0.3 -0.3,-0.4 -0.2,-0.6 0.1,-0.6 0.3,-0.6 0.7,-0.8 3.4,-2.6 -4.2,-0.5 m -5.5,5.6 3,0.4 0.6,-2.6 -0.3,0.2 -0.9,0.2 -0.9,-0.1 -0.9,-0.4 -0.5,-0.7 -0.2,-0.9 0.1,-0.6 0.4,-0.9 0.7,-0.5 0.9,-0.2 0.9,0.2 0.9,0.4 0.2,0.3 0.3,0.6 m 20.6,37.5 -0.2,-0.6 -0.7,-1.1 6.2,1.3 m -4.6,-2.7 h -0.3 l -0.5,-0.4 -0.2,-0.4 -0.2,-0.7 0.3,-1.1 0.4,-0.5 0.4,-0.3 0.6,-0.1 0.6,0.1 0.5,0.4 0.8,0.8 2.3,3.6 0.9,-4.1 m -5.3,-5.6 3.4,3.8 1,-4.4 m -4.4,0.6 6.1,1.4 m -42.2,-105.8 0.6,-0.2 1.1,-0.7 -1.4,6.2 m 2.7,-4.6 0.1,-0.3 0.4,-0.5 0.4,-0.2 0.6,-0.2 1.2,0.3 0.5,0.4 0.2,0.3 0.2,0.7 -0.1,0.6 -0.4,0.5 -0.8,0.7 -3.6,2.3 4.1,0.9 m 3.9,-5.6 -0.9,0.1 -0.4,0.6 -0.1,0.5 0.1,0.7 0.5,0.4 1.1,0.6 0.9,0.5 0.4,0.7 0.2,0.6 -0.2,0.9 -0.4,0.5 -0.4,0.2 -0.9,0.1 -1.2,-0.2 -0.8,-0.5 -0.2,-0.3 -0.2,-0.7 0.2,-0.9 0.4,-0.5 0.7,-0.5 1,-0.1 h 1.2 l 0.6,-0.2 0.5,-0.5 0.1,-0.6 -0.2,-0.6 -0.8,-0.5 -1.3,-0.3 M 1556.2,56.4 h -0.3 l -0.5,-0.3 -0.3,-0.4 -0.3,-0.6 0.1,-1.2 0.3,-0.6 0.3,-0.2 0.6,-0.3 h 0.6 l 0.6,0.3 0.9,0.7 2.8,3.1 0.2,-4.2 m -6,-5 -0.2,3 2.7,0.4 -0.3,-0.3 -0.2,-0.9 V 49 l 0.3,-0.9 0.7,-0.6 0.9,-0.2 h 0.6 l 0.9,0.4 0.5,0.6 0.3,0.9 v 0.9 l -0.4,0.9 -0.3,0.3 -0.6,0.2 m -214,214.6 -0.5,0.5 -0.5,1.2 -2.3,-5.9 m 0.3,5.3 0.1,0.3 -0.1,0.6 -0.1,0.4 -0.5,0.5 -1.1,0.4 h -0.7 l -0.4,-0.2 -0.5,-0.5 -0.2,-0.5 0.1,-0.7 0.2,-1 1.7,-3.9 -3.9,1.5 m -2.6,7.7 0.6,-6.9 m 3.3,5.4 -3.9,1.5 m -33.8,115.5 0.4,-0.5 0.3,-1.2 3,5.5 m -0.9,-5.2 -0.1,-0.2 -0.1,-0.7 0.2,-0.4 0.4,-0.5 1,-0.6 h 0.7 l 0.4,0.1 0.5,0.4 0.3,0.5 v 0.7 l -0.1,1.1 -1.2,4 3.7,-1.9 m -1.4,-6.4 2.9,-1.6 -0.5,3 0.8,-0.4 h 0.7 l 0.4,0.1 0.7,0.7 0.3,0.5 0.1,0.9 -0.2,0.8 -0.7,0.7 -0.8,0.4 -0.9,0.2 -0.4,-0.1 -0.6,-0.4 m 55.8,-33.6 -0.7,0.6 -0.1,0.7 0.3,0.5 0.5,0.5 h 0.7 l 1.2,-0.2 0.9,-0.1 0.8,0.3 0.5,0.4 0.4,0.8 v 0.7 l -0.2,0.4 -0.7,0.6 -1.1,0.5 -0.9,0.1 -0.4,-0.1 -0.5,-0.5 -0.4,-0.8 v -0.7 l 0.3,-0.7 0.7,-0.7 1,-0.7 0.4,-0.6 0.1,-0.6 -0.3,-0.6 -0.5,-0.4 -0.9,0.1 -1.3,0.5 m 5.3,-2.3 -0.7,0.6 -0.2,1.1 0.4,1.5 0.4,0.8 0.8,1.2 1,0.6 0.9,-0.1 0.5,-0.2 0.7,-0.7 0.2,-1 -0.3,-1.5 -0.4,-0.8 -0.9,-1.3 -0.9,-0.6 -0.9,0.1 -0.4,0.2 m 75.2,-112.5 0.4,0.6 h 1 l 0.6,-0.1 0.8,-0.5 0.4,-1 -0.1,-1.5 -0.3,-1.5 -0.6,-1.1 -0.7,-0.4 -0.9,-0.1 h -0.3 l -0.8,0.5 -0.5,0.8 -0.1,0.9 0.1,0.3 0.5,0.8 0.7,0.4 0.9,0.1 h 0.3 l 0.8,-0.5 0.5,-0.7 0.1,-1 m -5.5,5.6 0.9,-0.5 0.1,-0.7 -0.1,-0.6 -0.4,-0.5 -0.7,-0.1 -1.2,-0.1 h -1 l -0.7,-0.5 -0.4,-0.5 -0.2,-0.9 0.1,-0.6 0.3,-0.4 0.8,-0.5 1.1,-0.3 1,0.1 0.3,0.3 0.5,0.5 0.2,0.8 -0.2,0.7 -0.4,0.7 -0.9,0.5 -1.1,0.6 -0.5,0.4 -0.1,0.7 0.1,0.5 0.4,0.6 h 1 l 1.3,-0.3 m -8.2,115.8 -0.1,-0.7 -0.8,-0.5 -0.5,-0.2 h -1 l -0.8,0.6 -0.8,1.4 -0.5,1.4 -0.1,1.2 0.4,0.8 0.8,0.5 0.2,0.1 h 1 l 0.8,-0.3 0.5,-0.8 0.1,-0.3 v -0.9 l -0.4,-0.8 -0.7,-0.6 -0.3,-0.1 h -0.9 l -0.8,0.4 -0.6,0.8 m 9.2,0.8 -0.6,0.8 -0.8,0.4 h -0.9 l -0.3,-0.1 -0.7,-0.6 -0.4,-0.7 v -1 l 0.1,-0.3 0.6,-0.7 0.7,-0.4 h 1 l 0.2,0.1 0.8,0.6 0.4,0.7 -0.1,1.2 -0.5,1.5 -0.8,1.3 -0.8,0.7 h -1 l -0.5,-0.2 -0.8,-0.6 -0.1,-0.7 m 70,0.7 -0.8,0.4 -0.2,0.7 0.2,0.6 0.4,0.5 0.7,0.2 h 1.2 l 0.9,0.1 0.8,0.4 0.4,0.6 0.2,0.8 -0.2,0.7 -0.2,0.3 -0.8,0.5 -1.2,0.3 -0.9,-0.1 -0.4,-0.2 -0.4,-0.5 -0.2,-0.9 0.1,-0.7 0.5,-0.7 0.8,-0.5 1.1,-0.5 0.5,-0.5 0.2,-0.6 -0.1,-0.6 -0.5,-0.5 -0.9,-0.1 -1.3,0.3 m 4.4,-1 3.3,-0.7 -1.3,2.7 0.9,-0.2 0.7,0.2 0.3,0.2 0.5,0.8 0.1,0.6 -0.1,0.9 -0.4,0.7 -0.8,0.5 -0.9,0.2 -0.9,-0.1 -0.4,-0.2 -0.4,-0.5 m 10.1,-73.9 6.8,1.3 m -5.7,2.8 -1.1,-4.1 m 0.7,-5.4 0.9,0.1 0.8,0.4 0.5,0.8 0.1,0.3 -0.1,0.9 -0.4,0.7 -0.8,0.6 h -0.3 -0.9 l -0.8,-0.4 -0.5,-0.8 -0.1,-0.3 0.1,-1 0.4,-0.7 1.1,-0.6 1.4,-0.4 1.6,-0.1 1,0.4 0.5,0.7 0.2,0.6 -0.1,1 -0.5,0.4 m -19.7,-114.9 -6.9,0.9 m 4.6,-4.4 2.3,3.5 m 1,5.4 -0.9,0.2 -0.9,-0.1 -0.7,-0.6 -0.2,-0.3 -0.2,-0.9 0.2,-0.8 0.6,-0.8 0.2,-0.1 1,-0.3 0.8,0.2 0.7,0.6 0.2,0.2 0.2,1 -0.2,0.8 -0.8,0.9 -1.3,0.8 -1.4,0.6 h -1.1 l -0.7,-0.6 -0.3,-0.5 -0.3,-1 0.4,-0.5 m 53.4,32.1 -0.4,0.9 0.3,0.6 0.5,0.4 0.6,0.1 0.6,-0.2 1,-0.8 0.8,-0.5 h 0.9 l 0.6,0.1 0.7,0.6 0.3,0.6 v 0.4 l -0.3,0.9 -0.8,0.9 -0.8,0.5 -0.4,0.1 -0.7,-0.2 -0.7,-0.6 -0.2,-0.6 -0.1,-0.8 0.3,-0.9 0.6,-1.1 0.1,-0.7 -0.2,-0.6 -0.5,-0.4 -0.6,-0.1 -0.9,0.5 -0.8,1 m 4,-2.5 -0.2,-0.2 -0.3,-0.6 v -0.4 l 0.1,-0.7 0.8,-0.9 0.6,-0.3 h 0.4 l 0.7,0.2 0.5,0.3 0.2,0.7 0.3,1 0.4,4.2 2.7,-3.2 m 1.6,-67.7 6.9,1.1 m -5.7,2.9 -1.2,-4 m -0.7,-2.6 0.5,0.8 0.7,0.1 0.6,-0.1 0.5,-0.5 0.1,-0.7 -0.1,-1.2 0.1,-0.9 0.4,-0.8 0.5,-0.5 0.8,-0.2 0.7,0.1 0.4,0.2 0.5,0.8 0.3,1.1 v 1 l -0.2,0.4 -0.5,0.4 -0.9,0.3 -0.6,-0.1 -0.8,-0.4 -0.5,-0.8 -0.6,-1.1 -0.5,-0.5 -0.6,-0.1 -0.6,0.2 -0.5,0.4 v 1 l 0.3,1.3 m -430,-36.8 0.6,0.3 h 1.3 l -4.7,4.3 m 6.8,-2.2 -0.8,-0.5 -1.1,0.2 -1.3,0.8 -0.7,0.6 -0.9,1.2 -0.2,1 0.4,0.9 0.4,0.5 0.8,0.4 1.1,-0.1 1.3,-0.8 0.6,-0.6 0.9,-1.2 0.3,-1.1 -0.4,-0.9 -0.3,-0.3 m 1.2,3.4 0.6,0.3 h 1.3 l -4.7,4.2 m -15.7,-76.1 -0.4,0.5 -0.5,1.2 -2.5,-5.8 m -0.1,7.2 0.7,-0.6 0.2,-1.1 -0.3,-1.5 -0.4,-0.8 -0.9,-1.3 -0.9,-0.5 -0.9,0.1 -0.6,0.2 -0.7,0.6 -0.2,1.1 0.4,1.5 0.3,0.8 0.9,1.3 1,0.5 0.9,-0.1 0.4,-0.1 m -4.7,2.1 0.7,-0.6 0.1,-1.1 -0.3,-1.5 -0.4,-0.8 -0.9,-1.3 -0.9,-0.5 -0.9,0.1 -0.6,0.2 -0.7,0.6 -0.1,1.1 0.3,1.5 0.4,0.8 0.9,1.3 0.9,0.5 0.9,-0.1 0.4,-0.1 m 80.7,0.1 0.6,-0.7 0.8,-0.4 0.9,0.1 0.3,0.1 0.7,0.6 0.4,0.8 -0.1,1 -0.1,0.2 -0.6,0.8 -0.8,0.3 -1,-0.1 -0.2,-0.1 -0.8,-0.6 -0.3,-0.8 0.2,-1.2 0.5,-1.4 0.9,-1.3 0.9,-0.6 0.9,0.1 0.6,0.2 0.7,0.6 0.1,0.7 m -7.9,2.6 1,0.1 0.5,-0.4 0.2,-0.6 v -0.7 l -0.5,-0.5 -1,-0.7 -0.7,-0.6 -0.3,-0.8 -0.1,-0.7 0.3,-0.8 0.5,-0.4 0.4,-0.2 1,0.1 1.1,0.4 0.7,0.6 0.2,0.4 v 0.7 l -0.3,0.8 -0.5,0.5 -0.8,0.3 -0.9,-0.1 -1.3,-0.1 h -0.6 l -0.5,0.5 -0.2,0.5 v 0.7 l 0.7,0.6 1.3,0.5 m -37.3,539.8 -3.3,-0.2 2,-2.3 h -0.9 l -0.6,-0.4 -0.3,-0.3 -0.2,-0.9 v -0.6 l 0.4,-0.9 0.6,-0.5 1,-0.3 0.9,0.1 0.8,0.4 0.3,0.3 0.3,0.6 m -9.5,2.3 0.4,-0.9 0.6,-0.5 1,-0.2 h 0.3 l 0.8,0.3 0.6,0.7 0.2,0.9 v 0.3 l -0.4,0.9 -0.6,0.5 -0.9,0.3 -0.3,-0.1 -0.9,-0.3 -0.6,-0.7 -0.2,-1.2 0.1,-1.5 0.4,-1.5 0.7,-0.8 0.9,-0.2 h 0.6 l 0.9,0.4 0.3,0.6 m 104.4,107.5 0.7,5.1 3.3,-3.1 m -4,-2 4.3,4.5 m -1.9,-6.7 2.4,-2.3 0.3,3 0.7,-0.6 0.6,-0.2 h 0.5 l 0.8,0.5 0.4,0.4 0.4,0.9 v 0.8 l -0.5,0.8 -0.6,0.7 -0.9,0.4 -0.4,-0.1 -0.7,-0.2 m -71.3,-4.4 -4.1,3.2 4.3,1.3 m -0.2,-4.5 -1.8,6.1 m 7.4,-4.4 -4.2,3.2 4.4,1.3 m -0.2,-4.5 -1.9,6.1 m -65.6,-72.1 -4.9,-1.7 1.3,4.3 m 3.6,-2.6 -6,1.8 m 7.7,4.2 -0.8,-2.9 -2.7,0.5 0.4,0.2 0.5,0.8 0.3,0.8 -0.1,1 -0.4,0.7 -0.7,0.6 -0.6,0.1 h -1 l -0.7,-0.4 -0.6,-0.8 -0.2,-0.8 v -1 l 0.2,-0.4 0.5,-0.4 m 12.7,-465.5 v 0.6 l 0.7,0.7 0.6,0.2 0.9,0.1 0.9,-0.5 0.9,-1.3 0.7,-1.3 0.2,-1.2 -0.3,-0.8 -0.7,-0.7 -0.3,-0.1 -0.9,-0.1 -0.8,0.3 -0.6,0.7 -0.2,0.3 -0.1,0.9 0.3,0.8 0.7,0.6 0.3,0.2 0.9,0.1 0.8,-0.3 0.7,-0.7 m -5.7,0.4 -0.7,0.1 -1.2,0.4 2.7,-5.7 m -25.6,7.7 0.3,-0.5 -0.1,-1 -0.3,-0.5 -0.7,-0.6 -1.1,-0.1 -1.4,0.4 -1.4,0.8 -0.9,0.8 -0.2,0.8 0.2,1 0.1,0.2 0.7,0.7 0.8,0.2 1,-0.2 0.2,-0.1 0.7,-0.7 0.2,-0.8 -0.2,-1 -0.1,-0.2 -0.7,-0.7 -0.8,-0.2 -1,0.2 m 5.1,3.5 0.3,-0.1 h 0.6 l 0.4,0.1 0.6,0.4 0.6,1 v 0.7 l -0.1,0.4 -0.4,0.5 -0.5,0.3 -0.7,0.1 -1.1,-0.1 -4,-1.2 2,3.7 m 196,518.8 -5.2,0.3 2.8,3.5 m 2.4,-3.8 -4.9,4 m 6.9,-1.4 2,2.5 -3,0.1 0.6,0.7 0.1,0.7 v 0.4 l -0.5,0.8 -0.5,0.4 -0.9,0.3 -0.8,-0.1 -0.8,-0.5 -0.6,-0.7 -0.3,-0.9 v -0.4 l 0.3,-0.6 m 36.1,-14.2 -0.6,-0.3 -1.2,-0.2 5.1,-3.7 m -5,1.6 -0.3,0.2 -0.6,0.1 -0.5,-0.1 -0.6,-0.3 -0.7,-1 -0.1,-0.6 0.1,-0.4 0.3,-0.6 0.5,-0.4 0.7,-0.1 h 1 l 4.2,0.7 -2.4,-3.5 m -4.6,2 -0.6,-0.3 -1.3,-0.2 5.2,-3.7 m -11.7,32.5 0.3,-0.6 0.1,-1.3 3.9,5 m -1.8,-5 -0.1,-0.3 -0.2,-0.6 0.1,-0.4 0.3,-0.6 0.9,-0.8 0.7,-0.1 h 0.4 l 0.6,0.3 0.4,0.5 0.1,0.7 0.1,1 -0.5,4.2 3.3,-2.5 m -1.7,-4.8 -0.2,-0.3 -0.1,-0.6 0.1,-0.5 0.2,-0.6 1,-0.7 0.6,-0.1 h 0.5 l 0.6,0.3 0.3,0.5 0.2,0.6 0.1,1.1 -0.6,4.2 3.4,-2.6"
       id="nums_003"
       stroke="#000000"
       stroke-width="1" />
    <path
       d="m 1180.2,392.1 -7.3,67.5 7.6,45 22.1,-39.9 67.4,8.8 -13.5,61.5 24.8,-46.5 54.1,-74.9 101.9,67.1 -23.3,63.7 23.9,114.4 -84.1,-29.8 -27.3,17.3 26,36.3 -36.3,28.4 -33.8,-42.1 -39.4,37 -107.5,-33.1 -30.7,-103.4 93.2,6.8 -55.2,-75.3 -38.1,-101 -6.8,-112.3 44.4,-12.7 -13.4,-42.6 -2.9,-32.1 -43.2,-78.1 110.1,50.9 -113.5,-125.6 70.9,-31.9 93.5,37.7 321.3,-39.5 -3.7,76.2 27.5,93.2 -48.7,58.4 -80.9,-125.1 -105.4,84.5 -35.5,-77.2 25.2,81.2 -46.7,72.8 80.7,-31 131.7,-30.4 38.8,143.8 -73.3,16.4 -80.2,-27 -43.8,19.4 -80.7,42.6 z"
       id="coupes_003"
       stroke="#ff0000"
       stroke-width="1.27"
       sodipodi:nodetypes="cccccccccccccccccccccccccccccccccccccccccccccccc" />
    <path
       d="m 1459.3,116.4 -140.9,7.3 m 0,0 -74.6,-70.5 m 74.6,70.5 -125.5,49.3 m 104,104.7 -104,-104.7 m -64,59.3 64,-59.3 m 104,104.7 -154.6,-2.8 m 37.9,117.2 -75.5,7.8 m 0,0 37.6,-125 m 30.6,184.7 -68.2,-59.7 m 68.2,59.7 -30.1,41.3 m 37.7,3.7 -37.7,-3.7 m 37.7,3.7 17.5,71.6 m -17.5,-71.6 76,30.4 m 0,0 -58.5,41.2 m 84.4,92.7 -84.4,-92.7 m 128.5,70.1 -44.1,22.6 m -1.1,-180.4 132.7,55.9 m -211.4,-79.7 53.9,70.3 m 40.4,-257.3 -26.8,133.8 m 291.3,-321.6 -102.1,26.5 m -81.7,130.3 -107.5,164.8 m 107.5,-164.8 17,102.8 m 114.7,-133.2 -34.5,160.2 m 86.6,-286.6 -21.2,151.6 m -460.8,-194.1 164.4,5.8 m 82.7,593.1 -10.3,64.7"
       id="plisM_003"
       stroke="#a52a2a"
       stroke-dasharray="4" />
    <path
       d="m 1565.1,13.7 -105.8,102.7 m 0,0 -215.5,-63.2 M 1192.9,173 1243.8,53.2 m 99.8,151.7 -150.7,-31.9 m 104,104.7 -168,-45.4 m -2.9,-32.1 66.9,-27.2 m 104,104.7 -116.7,114.4 m 0,0 -37.9,-117.2 m 114.2,260.1 25.9,133.9 m -25.9,-133.9 70,111.3 m -45.2,-157.8 45.2,157.8 m -45.2,-157.8 72.5,140.5 m -72.5,-140.5 156.6,170.3 m -156.6,-170.3 156,-7.8 m -59.7,-234 -26.8,122.2 M 1509.3,216.3 1394.6,349.5 M 1282.4,668.9 1104.8,569.4 M 1243,705.9 1104.8,569.4"
       id="plisV_003"
       stroke="#008000"
       stroke-dasharray="4, 1, 1, 1"
       stroke-width="1.27" />
    <path
       d="m 1510.2,63.1 4,4 m 0,-4 -4,4 m -160.7,15.7 4,4 m 0,-4 -4,4 m -133.2,24.3 4,4 m 0,-4 -4,4 m 49.9,71.8 4,4 m 0,-4 -4,4 m -55.3,62.1 4,4 m 0,-4 -4,4 m -53.5,-72.4 4,4 m 0,-4 -4,4 m 79.2,144.3 4,4 m 0,-4 -4,4 m -77.4,-5.4 4,4 m 0,-4 -4,4 m 108.2,264.5 4,4 m 0,-4 -4,4 m 22.1,-15.3 4,4 m 0,-4 -4,4 m 12.4,-27.3 4,4 m 0,-4 -4,4 m 13.7,-12.6 4,4 m 0,-4 -4,4 m 42,10.9 4,4 m 0,-4 -4,4 m -0.3,-93.1 4,4 m 0,-4 -4,4 m 4.9,-180.8 4,4 m 0,-4 -4,4 m 87.7,-28.9 4,4 m 0,-4 -4,4 m -258.3,332.2 4,4 m 0,-4 -4,4 m -19.7,14.5 4,4 m 0,-4 -4,4"
       id="marqueV_003"
       stroke="#008000" />
    <path
       d="m 1252.5,348 h -7.5 l -0.8,6.8 0.8,-0.8 2.2,-0.7 h 2.3 l 2.2,0.7 1.5,1.5 0.8,2.3 v 1.5 l -0.8,2.2 -1.5,1.5 -2.2,0.8 h -2.3 l -2.2,-0.8 -0.8,-0.7 -0.7,-1.5"
       id="titre_5"
       stroke="#4b0082" />
  </g>
  <g
     id="page_004">
    <path
       d="m 1739.7,283.3 v -0.6 l -0.2,-1.3 5.3,3.4 m -3.8,-3.6 0.1,-0.7 -0.3,-1.2 5.4,3.3 m -106.5,11 -2.9,-4.3 -1.6,4.2 m 4.5,0.1 -5.9,-2.2 m 2.8,7.7 0.6,-0.1 0.6,-0.7 0.2,-0.6 0.1,-0.9 -0.7,-0.9 -1.3,-0.8 -1.4,-0.5 -1.2,-0.2 -0.8,0.4 -0.6,0.7 -0.1,0.3 v 0.9 l 0.4,0.8 0.7,0.6 0.3,0.1 h 0.9 l 0.8,-0.3 0.6,-0.8 0.1,-0.2 v -1 l -0.3,-0.8 -0.8,-0.5 m 28.7,-61.2 -4.6,-5.2 m 6.2,1.4 -1.6,3.8 m -1.7,4 -2.7,-4.4 -1.7,4.1 m 4.4,0.3 -5.8,-2.5 m 142.2,29.5 0.7,-0.2 1.1,-0.7 -1.4,6.2 m 5.6,-5.5 -3.8,3.4 4.4,1 m -0.6,-4.4 -1.3,6.1 m 32.1,-65.3 6.2,3.2 m -6.4,1 0.2,-4.2 m 1,-4.7 -0.6,0.3 -0.3,0.9 v 0.6 l 0.2,0.9 0.9,0.6 1.5,0.3 1.5,0.1 1.2,-0.3 0.6,-0.6 0.4,-0.8 V 202 l -0.3,-1 -0.6,-0.6 -0.9,-0.3 h -0.3 l -0.9,0.3 -0.6,0.5 -0.3,0.9 v 0.3 l 0.2,0.9 0.6,0.7 0.9,0.3 m -36.8,-63.1 3,-0.4 v -2.7 l -0.3,0.4 -0.8,0.4 -0.9,0.1 -1,-0.2 -0.6,-0.6 -0.4,-0.8 -0.1,-0.6 0.2,-1 0.5,-0.6 0.9,-0.4 0.9,-0.1 0.9,0.2 0.4,0.2 0.3,0.6 m -5.4,4.2 v 0.3 l -0.2,0.7 -0.3,0.3 -0.5,0.4 -1.2,0.1 -0.7,-0.2 -0.3,-0.3 -0.4,-0.6 v -0.6 l 0.2,-0.6 0.5,-1 2.7,-3.3 -4.2,0.5 m -171.6,232.3 -6.3,-3.1 m 6.4,-1.1 -0.1,4.2 m -1.4,1 0.3,0.6 0.8,0.9 -6.3,-0.1 m 8.5,72.3 -6.5,-2.5 m 6.2,-1.7 0.3,4.2 m 0.3,4.8 -0.2,-3 -2.7,-0.2 0.3,0.3 0.4,0.9 v 0.9 l -0.2,0.9 -0.6,0.7 -0.9,0.3 -0.6,0.1 -0.9,-0.3 -0.6,-0.5 -0.4,-0.9 v -0.9 l 0.2,-0.9 0.3,-0.4 0.6,-0.3 m 139.5,52 h -0.3 l -0.6,-0.2 -0.4,-0.2 -0.4,-0.5 -0.2,-1.2 0.1,-0.6 0.3,-0.4 0.5,-0.4 0.6,-0.1 0.6,0.2 1,0.4 3.6,2.3 -0.9,-4.1 m -7,-3 4.7,2.2 -0.9,-4.5 m -3.8,2.3 6.2,-1.2 m -119.3,47 -6.9,-1.1 m 5.7,-2.9 1.2,4 m -1,2 0.3,-0.1 0.7,0.1 0.4,0.2 0.4,0.5 0.4,1.2 -0.1,0.6 -0.2,0.4 -0.5,0.5 -0.6,0.1 -0.7,-0.1 -1,-0.3 -3.7,-2 1.2,4 m 136.3,30.9 -0.3,0.1 -0.7,-0.2 -0.3,-0.2 -0.4,-0.5 -0.3,-1.2 0.2,-0.7 0.2,-0.3 0.5,-0.4 0.6,-0.2 0.7,0.2 1,0.4 3.5,2.3 -0.8,-4.1 m -6.8,-1.6 0.5,0.9 1,0.4 1.5,-0.1 0.9,-0.1 1.4,-0.7 0.7,-0.7 0.1,-1 -0.1,-0.6 -0.5,-0.8 -1,-0.4 h -1.5 l -0.9,0.2 -1.4,0.6 -0.7,0.8 -0.1,1 0.1,0.4 m -113.7,48.5 -4,-3.4 -0.3,4.5 m 4.3,-1.1 -6.3,-0.5 m 5.7,7.1 -6.1,-3.5 m 6.4,-0.6 -0.3,4.1 m 15.5,29.3 -4.9,1.4 3.5,2.8 m 1.4,-4.2 -3.9,4.9 m 7.7,0.8 -0.8,0.5 -0.8,0.1 -0.9,-0.3 -0.2,-0.2 -0.6,-0.8 -0.1,-0.8 0.4,-0.9 0.1,-0.2 0.8,-0.6 0.9,-0.1 0.9,0.4 0.2,0.1 0.5,0.8 0.1,0.9 -0.5,1.1 -0.9,1.2 -1.2,1 -1,0.3 -0.9,-0.3 -0.5,-0.4 -0.5,-0.8 0.2,-0.6 m 37.2,24.9 -0.8,0.5 -0.9,0.1 -0.9,-0.3 -0.2,-0.2 -0.5,-0.8 -0.1,-0.8 0.3,-0.9 0.2,-0.2 0.7,-0.6 0.9,-0.1 0.9,0.3 0.2,0.2 0.6,0.8 0.1,0.9 -0.5,1.1 -1,1.2 -1.1,1 -1,0.3 -0.9,-0.3 -0.5,-0.4 -0.5,-0.8 0.1,-0.6 m 41.4,25.2 -2.4,-1.9 -1.9,2 0.4,-0.1 0.9,0.4 0.7,0.5 0.6,0.8 0.1,0.8 -0.3,0.9 -0.4,0.5 -0.8,0.5 -0.8,0.1 -0.9,-0.3 -0.7,-0.5 -0.6,-0.8 v -0.4 l 0.1,-0.7 m 10.2,1.4 -2.4,-1.8 -1.9,2 0.4,-0.1 0.9,0.3 0.8,0.6 0.5,0.8 0.1,0.8 -0.3,0.9 -0.4,0.5 -0.8,0.5 -0.8,0.1 -0.9,-0.3 -0.7,-0.6 -0.6,-0.7 V 712 l 0.1,-0.6 m 43.9,-16.8 -0.6,-0.4 -1.2,-0.3 5.4,-3.2 m -6.3,-2.1 0.9,-0.2 0.8,0.2 0.7,0.6 0.2,0.3 0.2,0.9 -0.2,0.8 -0.6,0.8 -0.3,0.1 -0.9,0.2 -0.9,-0.2 -0.7,-0.6 -0.1,-0.3 -0.2,-0.9 0.2,-0.8 0.9,-0.9 1.3,-0.8 1.4,-0.5 1.1,0.1 0.7,0.6 0.3,0.5 0.2,1 -0.4,0.5 m -7.9,26.8 -2.6,1.4 1,2.5 0.1,-0.4 0.6,-0.6 0.8,-0.5 1,-0.1 0.8,0.2 0.7,0.7 0.2,0.5 0.2,1 -0.3,0.8 -0.6,0.7 -0.8,0.4 -0.9,0.1 -0.4,-0.1 -0.6,-0.4 m 6,-7.9 -0.6,-0.4 -0.9,0.2 -0.5,0.3 -0.7,0.7 -0.1,1 0.4,1.5 0.7,1.3 0.9,0.9 0.8,0.3 0.9,-0.2 0.3,-0.1 0.6,-0.7 0.3,-0.8 -0.2,-0.9 -0.1,-0.3 -0.7,-0.6 -0.8,-0.3 -0.9,0.2 -0.3,0.1 -0.7,0.7 -0.2,0.8 0.1,0.9 m -3.3,-318.2 -0.6,-0.2 -1.3,0.1 4.4,-4.6 m -6.5,2.9 0.9,0.4 0.6,-0.2 0.4,-0.5 0.2,-0.6 -0.2,-0.6 -0.6,-1.1 -0.5,-0.8 v -0.9 l 0.2,-0.6 0.6,-0.7 0.7,-0.2 h 0.4 l 0.8,0.4 0.9,0.8 0.4,0.9 0.1,0.4 -0.2,0.6 -0.7,0.7 -0.6,0.2 h -0.8 l -0.9,-0.4 -1.1,-0.6 -0.6,-0.2 -0.7,0.2 -0.4,0.5 -0.2,0.6 0.5,0.8 0.9,1 m -1,29.8 -0.7,0.6 0.1,0.7 0.2,0.5 0.6,0.4 h 0.6 l 1.2,-0.3 1,-0.1 0.8,0.3 0.5,0.3 0.4,0.8 0.1,0.7 -0.2,0.4 -0.6,0.7 -1.1,0.6 -0.9,0.1 -0.4,-0.1 -0.6,-0.4 -0.4,-0.8 v -0.7 l 0.3,-0.8 0.6,-0.7 0.9,-0.8 0.4,-0.5 v -0.7 l -0.2,-0.5 -0.6,-0.4 -0.9,0.1 -1.2,0.6 m 6.7,-3.5 -2.7,1.4 1,2.6 0.1,-0.4 0.7,-0.7 0.8,-0.4 0.9,-0.2 0.9,0.3 0.6,0.6 0.3,0.6 0.2,0.9 -0.3,0.8 -0.7,0.7 -0.8,0.4 -0.9,0.1 -0.4,-0.1 -0.5,-0.4 M 1662,158.2 l 0.4,0.5 1,0.7 -6.1,1.2 m 5.2,0.1 0.4,0.5 1,0.7 -6.2,1.2 m 7,1.7 -0.5,-0.8 -1,-0.4 -1.5,-0.1 -0.9,0.2 -1.4,0.6 -0.8,0.7 -0.1,1 0.1,0.6 0.5,0.8 1,0.4 h 1.5 l 0.9,-0.1 1.4,-0.6 0.8,-0.8 0.1,-0.9 -0.1,-0.5 m 23.7,-74.7 -0.2,0.6 -0.1,1.3 -4.3,-4.5 m 2.7,4.4 -0.2,0.6 v 1.3 l -4.4,-4.6 m 2.8,4.5 -0.2,0.6 -0.1,1.3 -4.3,-4.6 m 73.2,24.5 -0.2,-0.6 -0.6,-1.2 6.1,1.8 m -4.6,-2.4 -0.1,-0.7 -0.6,-1.1 6,1.8 m -4.8,-6.9 5.2,4.7 m -6.4,-0.6 1.2,-4.1 m -11.8,-25.9 -0.6,-0.1 -1.3,0.4 3.2,-5.5 m -3.5,3.9 h -0.7 l -1.2,0.3 3.1,-5.5 m -7,3.6 4.7,-2.2 -3.9,-2.2 m -0.8,4.4 3.2,-5.5 m 53.5,305 0.7,0.1 1.2,-0.4 -2.9,5.6 m 5.4,-4.6 -1,-0.1 -0.5,0.4 -0.3,0.5 v 0.7 l 0.4,0.5 0.9,0.8 0.7,0.7 0.2,0.8 v 0.7 l -0.4,0.8 -0.5,0.4 -0.4,0.1 -1,-0.1 -1,-0.6 -0.7,-0.7 -0.1,-0.4 v -0.7 l 0.4,-0.8 0.5,-0.4 0.9,-0.2 0.9,0.1 1.2,0.3 h 0.7 l 0.5,-0.3 0.3,-0.6 v -0.7 l -0.7,-0.6 -1.2,-0.7 m 14.4,-50.8 -0.5,0.5 -0.6,1.1 -1.7,-6.1 m 0.1,6.7 -3.2,0.9 1.1,-2.8 -0.9,0.3 -0.6,-0.1 -0.4,-0.2 -0.5,-0.8 -0.2,-0.6 0.1,-1 0.4,-0.7 0.8,-0.5 0.8,-0.3 1,0.1 0.3,0.2 0.5,0.5 m 32.5,34.5 -0.3,-0.1 -0.4,-0.6 -0.2,-0.4 v -0.6 l 0.5,-1.1 0.5,-0.4 0.4,-0.2 h 0.7 l 0.5,0.2 0.5,0.6 0.5,0.9 1.5,3.9 1.8,-3.8 m -4.1,-3 v -0.6 l -0.4,-1.2 5.7,2.6 m -14,-54.8 h -0.6 l -1.2,0.4 2.9,-5.6 m -6.9,3.8 4.6,-2.3 -4,-2.1 m -0.6,4.4 2.9,-5.6 m -17.7,-4.7 0.6,0.3 1.2,0.4 -5.5,3.1 m 5.2,-1 0.3,-0.2 h 0.6 l 0.4,0.1 0.6,0.4 0.6,1 v 0.7 l -0.1,0.4 -0.4,0.6 -0.5,0.3 h -0.7 l -1.1,-0.1 -4,-1.1 2,3.6 m -52.8,-4.9 -0.2,0.7 -0.1,1.2 -4.4,-4.5 m 2.8,4.4 -0.2,0.7 v 1.2 l -4.4,-4.5 m 37.4,2.8 -0.7,-0.1 -1.2,0.2 3.8,-5 m -4.4,2.9 -0.1,0.3 -0.6,0.3 h -0.5 l -0.6,-0.1 -1,-0.7 -0.3,-0.6 v -0.4 l 0.1,-0.7 0.4,-0.5 0.6,-0.3 1,-0.3 4.2,-0.6 -3.3,-2.5 m 5.4,26.3 0.2,-0.7 -0.1,-1.3 4.8,4.1 m -3.9,-5.5 2.2,-2.5 0.6,2.9 0.6,-0.7 0.6,-0.2 0.5,-0.1 0.8,0.4 0.5,0.4 0.5,0.8 v 0.8 l -0.3,0.9 -0.6,0.7 -0.8,0.5 h -0.4 l -0.7,-0.2 m 5.9,361.8 0.7,0.2 1.2,-0.1 -4.1,4.8 m 6.7,-0.1 -0.8,0.5 -0.8,0.1 -0.9,-0.4 -0.2,-0.2 -0.5,-0.8 -0.1,-0.8 0.4,-0.9 0.2,-0.2 0.8,-0.5 0.8,-0.1 0.9,0.4 0.2,0.2 0.5,0.8 0.1,0.8 -0.6,1.1 -1,1.2 -1.2,0.9 -1,0.3 -0.9,-0.4 -0.4,-0.4 -0.5,-0.8 0.1,-0.6 m 45.1,14.2 V 693 l 0.2,-0.6 0.3,-0.3 0.6,-0.3 h 1.2 l 0.6,0.3 0.3,0.2 0.4,0.6 v 0.6 l -0.3,0.6 -0.6,1 -2.9,3.1 4.2,-0.2 m 4.6,-5.5 -0.3,-0.6 -0.9,-0.3 h -0.6 l -0.9,0.4 -0.6,0.9 -0.2,1.5 v 1.5 l 0.3,1.2 0.7,0.6 0.9,0.2 h 0.3 l 0.9,-0.3 0.5,-0.6 0.3,-0.9 v -0.3 l -0.3,-0.9 -0.6,-0.6 -1,-0.3 h -0.3 l -0.8,0.4 -0.6,0.6 -0.3,0.9 m 31.3,-56.1 -0.1,0.3 -0.5,0.4 -0.4,0.2 h -0.7 l -1.1,-0.4 -0.4,-0.6 -0.2,-0.3 v -0.7 l 0.2,-0.6 0.6,-0.4 0.9,-0.6 3.9,-1.6 -3.8,-1.6 m -7.3,3.7 5.2,-4.6 m -1.4,6.3 -3.8,-1.7 m 13.6,35.2 -0.3,-0.1 -0.4,-0.6 -0.1,-0.4 v -0.6 l 0.6,-1.1 0.6,-0.4 0.4,-0.1 h 0.6 l 0.6,0.3 0.3,0.6 0.5,0.9 1.2,4.1 2,-3.7 m -4.2,-5.3 -0.2,0.9 0.4,0.6 0.5,0.2 0.7,0.1 0.6,-0.4 0.8,-0.9 0.7,-0.7 0.8,-0.2 h 0.7 l 0.8,0.5 0.4,0.5 0.1,0.4 -0.2,1 -0.6,1 -0.7,0.7 -0.4,0.1 -0.7,-0.1 -0.7,-0.4 -0.4,-0.5 -0.3,-0.9 0.2,-0.9 0.3,-1.2 0.1,-0.7 -0.4,-0.5 -0.5,-0.3 h -0.7 l -0.7,0.6 -0.7,1.2 m -81,-102.4 0.3,0.1 0.5,0.5 0.2,0.3 0.1,0.7 -0.4,1.2 -0.5,0.4 -0.4,0.2 -0.6,0.1 -0.6,-0.2 -0.5,-0.4 -0.6,-0.9 -1.9,-3.8 -1.4,4 m 5.1,4.8 v -1 l -0.7,-0.8 -1.3,-0.8 -0.9,-0.3 -1.5,-0.1 -1,0.2 -0.6,0.8 -0.2,0.6 v 0.9 l 0.7,0.9 1.3,0.7 0.9,0.3 1.5,0.2 1,-0.3 0.6,-0.8 0.2,-0.4 m 26.9,-80 0.2,0.1 0.5,0.5 0.2,0.4 v 0.6 l -0.4,1.2 -0.5,0.4 -0.4,0.2 -0.6,0.1 -0.6,-0.3 -0.5,-0.5 -0.6,-0.8 -1.7,-3.9 -1.5,3.9 m 4.4,6.3 -2.8,-4.3 -1.6,4.2 m 4.4,0.1 -5.9,-2.2 m 70.3,7.1 -0.2,-3.3 2.5,1.7 -0.1,-0.9 0.3,-0.6 0.3,-0.4 0.9,-0.3 h 0.6 l 0.9,0.2 0.6,0.6 0.4,0.9 v 0.9 l -0.2,0.9 -0.3,0.3 -0.6,0.3 m -5.4,-5.6 -0.2,-3.3 2.5,1.6 v -0.9 l 0.2,-0.6 0.3,-0.3 0.9,-0.3 0.6,-0.1 0.9,0.3 0.6,0.6 0.4,0.8 v 0.9 l -0.2,1 -0.3,0.3 -0.6,0.3 m -25.6,-34.9 -3.3,-0.1 1.9,-2.4 h -0.9 l -0.6,-0.3 -0.3,-0.3 -0.3,-0.9 v -0.6 l 0.4,-0.9 0.6,-0.6 0.9,-0.3 h 0.9 l 0.9,0.4 0.3,0.3 0.3,0.6 m -8.7,4.9 3.1,-4.1 -4.5,-0.2 m 1.4,4.3 0.2,-6.3 m 35.2,125.6 -0.3,-3.3 2.5,1.5 -0.1,-0.9 0.3,-0.6 0.2,-0.3 0.9,-0.4 0.6,-0.1 0.9,0.2 0.7,0.5 0.4,0.9 0.1,0.9 -0.2,0.9 -0.3,0.3 -0.5,0.4 m -6.1,-8.3 0.3,3 h 2.7 l -0.3,-0.3 -0.4,-0.8 -0.1,-0.9 0.2,-0.9 0.5,-0.7 0.9,-0.4 0.6,-0.1 0.9,0.2 0.7,0.5 0.4,0.9 0.1,0.9 -0.2,0.9 -0.3,0.4 -0.5,0.3 m -30.4,32 v -0.3 l 0.3,-0.6 0.2,-0.3 0.6,-0.4 1.2,-0.1 0.6,0.3 0.4,0.3 0.3,0.5 v 0.6 l -0.2,0.7 -0.6,0.9 -2.7,3.2 4.2,-0.3 m 4.7,-6.6 -2.6,6.5 m -1.6,-6.2 4.2,-0.3 m 43,-272.1 3.2,-0.9 -1.1,2.8 0.9,-0.2 0.6,0.1 0.4,0.2 0.5,0.8 0.2,0.6 -0.1,0.9 -0.4,0.8 -0.8,0.5 -0.9,0.2 h -1 l -0.3,-0.3 -0.5,-0.5 m 5.7,-6.7 -0.8,0.5 -0.4,1 0.1,1.6 0.2,0.8 0.7,1.4 0.8,0.7 1,0.1 0.5,-0.1 0.8,-0.6 0.4,-1 -0.1,-1.5 -0.2,-0.9 -0.7,-1.4 -0.8,-0.7 h -0.9 l -0.5,0.1 m -44,21 -0.2,-0.2 v -0.7 l 0.1,-0.4 0.4,-0.6 1,-0.6 h 0.7 l 0.4,0.1 0.5,0.4 0.3,0.5 0.1,0.7 -0.1,1.1 -1.1,4.1 3.6,-2.1 m 2.3,-6.2 0.2,1 -0.2,0.8 -0.6,0.7 -0.3,0.1 -0.9,0.2 -0.8,-0.2 -0.7,-0.6 -0.2,-0.3 -0.2,-0.9 0.2,-0.8 0.7,-0.8 0.2,-0.1 1,-0.2 0.8,0.2 0.8,0.9 0.8,1.3 0.5,1.5 -0.1,1.1 -0.7,0.7 -0.5,0.3 -0.9,0.2 -0.6,-0.4 m -20.7,-41.2 h 0.3 l 0.6,0.2 0.3,0.3 0.4,0.5 0.2,1.2 -0.3,0.6 -0.2,0.4 -0.6,0.3 -0.6,0.1 -0.6,-0.2 -1,-0.5 -3.3,-2.5 0.5,4.1 m 5,0.4 0.4,0.6 1,0.8 -6.3,0.8 m 70.5,-57.7 -0.4,0.5 0.1,0.9 0.3,0.6 0.7,0.6 1,0.1 1.5,-0.4 1.3,-0.7 1,-0.8 0.2,-0.8 -0.1,-0.9 -0.2,-0.3 -0.6,-0.7 -0.9,-0.2 -0.9,0.1 -0.3,0.2 -0.6,0.6 -0.3,0.9 0.2,0.9 0.1,0.3 0.7,0.6 0.8,0.3 0.9,-0.2 m -6.9,-6.1 -0.4,0.5 0.2,0.9 0.3,0.6 0.6,0.6 1.1,0.2 1.5,-0.5 1.3,-0.7 0.9,-0.8 0.3,-0.8 -0.1,-0.9 -0.2,-0.3 -0.7,-0.6 -0.8,-0.3 -0.9,0.1 -0.3,0.2 -0.6,0.7 -0.3,0.8 0.2,0.9 0.1,0.3 0.7,0.6 0.8,0.3 0.9,-0.2 m -39.2,2.2 0.5,0.4 h 0.9 l 0.6,-0.2 0.7,-0.6 0.3,-1 -0.2,-1.5 -0.5,-1.4 -0.7,-1.1 -0.8,-0.3 h -0.9 l -0.3,0.1 -0.7,0.6 -0.4,0.7 v 1 l 0.1,0.2 0.6,0.8 0.8,0.4 h 0.9 l 0.3,-0.1 0.7,-0.6 0.4,-0.8 v -0.9 m -7.2,6.9 0.7,-6.9 m 3.3,5.5 -4,1.4 m 65.8,-8.8 0.6,-0.2 0.4,-0.9 0.1,-0.5 -0.2,-1 -0.8,-0.7 -1.5,-0.5 -1.5,-0.1 -1.2,0.1 -0.7,0.5 -0.4,0.9 v 0.3 l 0.2,0.9 0.5,0.7 0.9,0.4 h 0.3 l 0.9,-0.2 0.7,-0.5 0.4,-0.8 v -0.3 l -0.2,-1 -0.5,-0.6 -0.9,-0.4 m 2.3,8.9 0.6,-0.2 0.4,-0.8 0.1,-0.6 -0.2,-1 -0.8,-0.7 -1.5,-0.5 -1.5,-0.1 -1.2,0.1 -0.7,0.5 -0.4,0.9 v 0.3 l 0.2,0.9 0.5,0.7 0.8,0.4 h 0.3 l 1,-0.2 0.6,-0.5 0.5,-0.8 v -0.3 l -0.2,-1 -0.5,-0.6 -0.9,-0.4 m 119.8,20.6 -0.5,0.5 v 0.9 l 0.2,0.6 0.5,0.8 1.1,0.3 1.5,-0.2 1.4,-0.5 1.1,-0.6 0.4,-0.8 v -0.9 l -0.1,-0.3 -0.6,-0.8 -0.7,-0.4 h -1 l -0.3,0.1 -0.7,0.6 -0.4,0.7 v 1 l 0.1,0.3 0.5,0.7 0.8,0.4 h 0.9 m -4.7,-7.8 h 0.9 l 0.8,0.3 0.6,0.8 v 0.3 0.9 l -0.4,0.8 -0.7,0.6 -0.3,0.1 -1,-0.1 -0.7,-0.3 -0.6,-0.8 -0.1,-0.3 v -0.9 l 0.4,-0.8 1.1,-0.6 1.4,-0.5 1.5,-0.2 1.1,0.3 0.5,0.8 0.2,0.5 v 1 l -0.5,0.5 m -25,-56.8 0.6,0.8 h 0.7 l 0.6,-0.2 0.4,-0.5 0.1,-0.6 -0.1,-1.3 -0.1,-0.9 0.4,-0.8 0.4,-0.5 0.9,-0.3 0.6,0.1 0.4,0.1 0.6,0.8 0.4,1.1 0.1,0.9 -0.2,0.4 -0.5,0.5 -0.8,0.3 h -0.7 l -0.7,-0.4 -0.6,-0.7 -0.7,-1 -0.5,-0.5 -0.7,-0.1 -0.6,0.3 -0.4,0.5 v 0.9 l 0.5,1.3 m -2.1,-5.5 0.6,0.8 1.1,0.2 1.5,-0.2 0.9,-0.4 1.2,-0.8 0.7,-0.8 -0.1,-1 -0.2,-0.6 -0.6,-0.7 -1,-0.2 -1.5,0.2 -0.9,0.3 -1.3,0.8 -0.6,0.9 v 1 l 0.2,0.4 m -140.9,25.9 -0.4,-0.5 -0.9,-0.2 -0.6,0.1 -0.8,0.5 -0.5,1 v 1.5 l 0.3,1.5 0.5,1.1 0.6,0.5 1,0.2 0.3,-0.1 0.8,-0.4 0.5,-0.7 0.1,-1 V 243 l -0.5,-0.8 -0.7,-0.5 -0.9,-0.1 h -0.3 l -0.8,0.5 -0.5,0.7 -0.1,0.9 m 8.2,-5.7 -1.9,6.7 m -2.2,-6 4.1,-0.7 m 4.6,-121.7 2.9,0.5 0.8,-2.6 -0.4,0.2 -0.9,0.2 -0.9,-0.2 -0.8,-0.4 -0.5,-0.7 -0.2,-0.9 0.1,-0.6 0.4,-0.8 0.7,-0.5 0.9,-0.2 0.9,0.1 0.9,0.5 0.2,0.3 0.2,0.7 m -9.6,1.5 0.5,-0.9 0.7,-0.5 0.9,-0.1 h 0.3 l 0.8,0.5 0.5,0.7 0.2,0.9 -0.1,0.3 -0.4,0.8 -0.7,0.5 -0.9,0.2 -0.3,-0.1 -0.9,-0.4 -0.5,-0.7 -0.1,-1.2 0.3,-1.5 0.5,-1.4 0.7,-0.8 1,-0.2 0.6,0.1 0.8,0.4 0.2,0.7 m -37.1,65.7 -6.3,-3.1 m 6.3,-1.1 v 4.2 m -1,4.7 0.6,-0.3 0.3,-0.9 0.1,-0.6 -0.3,-0.9 -0.9,-0.6 -1.5,-0.3 h -1.5 l -1.2,0.3 -0.6,0.6 -0.3,0.9 v 0.3 l 0.2,0.9 0.6,0.6 0.9,0.3 h 0.3 l 0.9,-0.3 0.6,-0.6 0.4,-0.9 v -0.3 l -0.3,-0.9 -0.6,-0.6 -0.9,-0.3 m 175.8,-26.4 -0.1,-0.6 -0.7,-1.1 6.1,1.5 m -4.5,-2.8 -0.2,-0.1 -0.6,-0.4 -0.2,-0.4 -0.1,-0.6 0.2,-1.2 0.5,-0.5 0.3,-0.2 0.7,-0.2 0.6,0.2 0.5,0.4 0.7,0.8 2.2,3.6 1,-4.1 m -5.7,-3.1 0.8,-3.2 1.9,2.3 0.2,-0.9 0.4,-0.5 0.4,-0.3 h 0.9 l 0.6,0.1 0.8,0.5 0.5,0.7 v 1 l -0.2,0.8 -0.5,0.9 -0.3,0.2 -0.7,0.1 m -18.7,-65.9 -0.6,-0.3 h -1.3 l 4.6,-4.3 m -4.8,2.2 -0.2,0.2 -0.7,0.2 h -0.4 l -0.6,-0.2 -0.9,-0.9 -0.1,-0.6 V 74 l 0.2,-0.7 0.4,-0.4 0.7,-0.2 1,-0.2 4.3,0.1 -2.9,-3 m -6.4,2.4 0.8,0.5 0.7,-0.2 0.4,-0.4 0.2,-0.7 -0.2,-0.6 -0.6,-1.1 -0.4,-0.9 v -0.8 l 0.3,-0.6 0.6,-0.7 0.7,-0.2 0.4,0.1 0.8,0.4 0.8,0.9 0.4,0.8 V 69 l -0.2,0.6 -0.6,0.6 -0.7,0.2 h -0.8 l -0.9,-0.5 -1,-0.6 -0.6,-0.3 -0.7,0.2 -0.4,0.5 -0.2,0.6 0.4,0.8 0.9,1 m -42.6,-19.6 -0.4,0.5 -0.4,1.2 -2.8,-5.6 m 0.8,5.3 0.1,0.2 v 0.7 l -0.1,0.4 -0.4,0.5 -1.1,0.6 h -0.6 l -0.5,-0.1 -0.5,-0.4 -0.3,-0.6 v -0.6 l 0.1,-1.1 1.3,-4.1 -3.7,2 m -0.9,7.6 0.7,-5.1 -4,2 m 3.3,3.1 -2.9,-5.6 m -13.6,27.9 0.4,0.5 1.1,0.7 -6.1,1.5 m 5.3,0.4 0.3,-0.1 0.6,0.2 0.4,0.2 0.4,0.5 0.3,1.2 -0.1,0.6 -0.3,0.4 -0.5,0.4 -0.6,0.2 -0.6,-0.2 -1,-0.4 -3.7,-2.1 1,4 m 6.9,1.4 -0.5,-0.8 -1.1,-0.4 -1.5,0.1 -0.9,0.2 -1.3,0.7 -0.8,0.7 v 1 l 0.1,0.6 0.5,0.8 1,0.3 h 1.6 l 0.8,-0.2 1.4,-0.7 0.7,-0.8 0.1,-0.9 -0.1,-0.5 m 116.3,266 0.3,1 0.6,0.3 h 0.6 l 0.6,-0.3 0.3,-0.6 0.3,-1.2 0.4,-0.8 0.6,-0.6 0.6,-0.3 h 0.9 l 0.6,0.4 0.3,0.3 0.3,0.9 -0.1,1.2 -0.3,0.9 -0.3,0.3 -0.6,0.2 h -0.9 l -0.6,-0.3 -0.6,-0.6 -0.3,-1 -0.2,-1.2 -0.3,-0.6 -0.6,-0.3 h -0.6 l -0.6,0.3 -0.3,0.8 -0.1,1.4 m 0.2,-4.6 0.1,-3.3 2.3,1.9 0.1,-0.9 0.3,-0.6 0.3,-0.3 0.9,-0.2 h 0.6 l 0.9,0.3 0.6,0.6 0.2,0.9 v 0.9 l -0.3,0.9 -0.3,0.3 -0.7,0.3 m -148.7,-0.5 -2.1,2.5 -0.7,-2.9 -0.6,0.7 -0.6,0.3 h -0.4 l -0.9,-0.3 -0.5,-0.4 -0.5,-0.8 V 351 l 0.3,-0.9 0.6,-0.7 0.8,-0.5 0.4,-0.1 0.7,0.2 m -0.7,8.8 0.4,-0.9 -0.3,-1.1 -1,-1.2 -0.7,-0.5 -1.3,-0.8 -1.1,-0.1 -0.8,0.5 -0.4,0.5 -0.3,0.9 0.3,1 0.9,1.2 0.7,0.6 1.4,0.7 1,0.1 0.8,-0.5 0.3,-0.3 m 141.8,73.7 0.2,0.9 0.6,0.4 h 0.6 l 0.6,-0.2 0.4,-0.5 0.4,-1.2 0.4,-0.9 0.7,-0.5 0.6,-0.2 0.9,0.1 0.6,0.4 0.2,0.3 0.2,0.9 -0.1,1.2 -0.4,0.9 -0.4,0.2 -0.6,0.3 -0.9,-0.1 -0.5,-0.4 -0.6,-0.7 -0.2,-0.9 -0.1,-1.2 -0.2,-0.7 -0.6,-0.3 -0.6,-0.1 -0.6,0.2 -0.4,0.9 -0.2,1.3 m 2,-4.3 h -0.3 l -0.5,-0.4 -0.3,-0.3 -0.2,-0.6 0.1,-1.2 0.4,-0.6 0.3,-0.3 0.6,-0.2 0.6,0.1 0.6,0.4 0.8,0.6 2.7,3.4 0.4,-4.2 m -163.9,12.7 2.9,-1.7 -0.4,3 0.8,-0.4 0.7,-0.1 0.4,0.1 0.7,0.7 0.3,0.5 0.2,0.9 -0.2,0.8 -0.6,0.7 -0.8,0.5 -0.9,0.2 -0.4,-0.1 -0.6,-0.4 m 4.7,-8.7 -0.5,5.1 3.9,-2.3 m -3.4,-2.8 3.2,5.4 m -19.4,-56.6 0.2,0.2 0.2,0.7 v 0.4 l -0.2,0.6 -0.9,0.9 -0.6,0.2 h -0.4 l -0.7,-0.3 -0.4,-0.4 -0.2,-0.6 -0.2,-1.1 0.1,-4.2 -3.1,2.9 m -0.6,6.5 -0.5,-0.8 0.1,-0.9 0.4,-0.8 0.2,-0.2 0.9,-0.4 h 0.8 l 0.9,0.4 0.2,0.2 0.4,0.9 v 0.8 l -0.5,0.9 -0.2,0.2 -0.8,0.4 h -0.9 l -1,-0.7 -1.1,-1 -0.8,-1.3 -0.2,-1.1 0.4,-0.8 0.5,-0.4 0.8,-0.5 0.6,0.3 m -3.8,38.9 -0.5,-0.8 -0.7,-0.1 -0.5,0.1 -0.5,0.5 -0.2,0.6 0.1,1.3 -0.1,0.9 -0.4,0.8 -0.5,0.4 -0.9,0.3 -0.6,-0.2 -0.4,-0.2 -0.5,-0.8 -0.4,-1.1 0.1,-1 0.2,-0.3 0.5,-0.5 0.9,-0.2 0.6,0.1 0.8,0.4 0.5,0.8 0.6,1.1 0.5,0.5 0.6,0.1 0.6,-0.2 0.5,-0.4 v -1 l -0.3,-1.3 m 2,7.4 -0.8,-2.9 -2.7,0.4 0.4,0.2 0.5,0.8 0.3,0.9 -0.1,0.9 -0.4,0.7 -0.8,0.6 -0.6,0.1 h -0.9 l -0.8,-0.4 -0.5,-0.8 -0.2,-0.9 v -0.9 l 0.2,-0.4 0.5,-0.5 m 53.2,37.5 -1.2,3 -1.6,-2.5 -0.3,0.9 -0.5,0.4 -0.4,0.2 -0.9,-0.1 -0.6,-0.2 -0.7,-0.6 -0.4,-0.7 0.1,-1 0.3,-0.8 0.6,-0.8 0.4,-0.1 0.6,-0.1 m 2.7,7.3 -1.2,3.1 -1.6,-2.5 -0.3,0.8 -0.5,0.5 -0.4,0.2 -0.9,-0.1 -0.6,-0.2 -0.7,-0.6 -0.4,-0.8 0.1,-0.9 0.3,-0.8 0.6,-0.8 0.4,-0.2 h 0.7 m 109.8,53.4 v 0.9 l 0.5,0.5 0.5,0.2 0.7,-0.1 0.5,-0.4 0.7,-1 0.6,-0.8 0.7,-0.3 0.7,-0.1 0.8,0.3 0.5,0.5 0.2,0.3 v 1 l -0.4,1.1 -0.6,0.8 -0.4,0.2 h -0.7 l -0.8,-0.3 -0.5,-0.5 -0.3,-0.7 v -1 l 0.1,-1.2 -0.1,-0.7 -0.4,-0.5 -0.6,-0.2 -0.7,0.1 -0.6,0.8 -0.4,1.2 m 2.6,-3.2 v -0.6 l -0.6,-1.2 5.9,2.1 m -135.9,20.9 -0.9,3.2 -1.8,-2.4 -0.3,0.9 -0.4,0.5 -0.4,0.2 h -0.9 l -0.6,-0.1 -0.8,-0.5 -0.4,-0.8 -0.1,-0.9 0.2,-0.9 0.6,-0.8 0.3,-0.2 0.7,-0.1 m 2.6,9.9 0.8,-2.9 -2.5,-1 0.2,0.4 v 0.9 l -0.2,0.9 -0.5,0.8 -0.8,0.4 -0.9,0.1 -0.6,-0.2 -0.8,-0.5 -0.4,-0.7 -0.1,-1 0.3,-0.8 0.5,-0.8 0.4,-0.2 0.6,-0.2 m -2.4,59.6 h 0.3 l 0.6,0.2 0.3,0.2 0.4,0.6 0.2,1.2 -0.2,0.6 -0.3,0.4 -0.6,0.3 -0.6,0.1 -0.6,-0.2 -1,-0.5 -3.3,-2.6 0.5,4.2 m 6.6,1.8 -0.4,-0.9 -0.6,-0.2 -0.6,0.1 -0.6,0.4 -0.2,0.6 -0.2,1.2 -0.2,1 -0.5,0.6 -0.5,0.4 -0.9,0.1 -0.7,-0.2 -0.3,-0.3 -0.4,-0.8 -0.2,-1.2 0.2,-0.9 0.3,-0.4 0.5,-0.3 0.9,-0.2 0.7,0.3 0.6,0.5 0.5,0.8 0.4,1.2 0.4,0.5 0.6,0.3 0.6,-0.1 0.6,-0.4 0.1,-0.9 -0.1,-1.3 m 117.9,-8.4 -0.6,0.3 -0.3,0.9 v 0.6 l 0.3,0.9 1,0.6 1.5,0.2 h 1.5 l 1.2,-0.4 0.5,-0.6 0.3,-0.9 V 600 l -0.3,-0.9 -0.6,-0.6 -1,-0.2 h -0.3 l -0.8,0.3 -0.6,0.6 -0.3,0.9 v 0.3 l 0.3,0.9 0.7,0.6 0.9,0.3 m -4.6,-8.1 4.3,2.9 -0.1,-4.5 m -4.2,1.6 6.3,-0.2 m -25.6,38.8 -0.6,-0.3 -0.9,0.3 -0.5,0.3 -0.6,0.8 0.1,1.1 0.6,1.4 0.9,1.2 0.9,0.8 0.8,0.1 0.9,-0.2 0.3,-0.2 0.6,-0.8 0.1,-0.8 -0.3,-0.9 -0.2,-0.3 -0.7,-0.5 -0.9,-0.2 -0.9,0.3 -0.2,0.2 -0.6,0.7 -0.1,0.9 0.3,0.9 m 2.1,-6.7 2.7,-1.9 -0.1,3 0.8,-0.5 0.6,-0.1 h 0.5 l 0.7,0.6 0.4,0.5 0.2,0.9 -0.1,0.8 -0.6,0.8 -0.7,0.5 -0.9,0.3 -0.4,-0.1 -0.6,-0.3 m -42.3,23.6 2.7,-1.9 -0.1,3 0.7,-0.5 0.7,-0.1 h 0.4 l 0.8,0.6 0.3,0.5 0.3,0.9 -0.2,0.8 -0.5,0.8 -0.8,0.5 -0.9,0.3 -0.4,-0.1 -0.6,-0.3 m 4.9,-8.6 -0.5,-0.3 -1,0.3 -0.4,0.3 -0.6,0.8 v 1.1 l 0.6,1.4 0.9,1.2 0.9,0.8 0.9,0.2 0.9,-0.3 0.2,-0.2 0.6,-0.7 0.1,-0.9 -0.2,-0.9 -0.2,-0.2 -0.8,-0.6 -0.8,-0.2 -0.9,0.3 -0.3,0.2 -0.5,0.8 -0.2,0.8 0.3,0.9 m -43,24.8 -2.4,1.7 1.3,2.4 0.1,-0.4 0.5,-0.8 0.8,-0.5 0.9,-0.2 0.8,0.1 0.8,0.6 0.3,0.5 0.3,0.9 -0.2,0.8 -0.5,0.8 -0.8,0.5 -0.9,0.3 -0.4,-0.1 -0.6,-0.3 m 2.7,-8.1 -0.6,0.7 0.1,0.7 0.4,0.5 0.6,0.3 0.6,-0.1 1.2,-0.4 0.9,-0.3 0.8,0.1 0.6,0.4 0.5,0.7 0.1,0.7 v 0.4 l -0.6,0.7 -1,0.7 -0.9,0.3 -0.4,-0.1 -0.6,-0.3 -0.5,-0.7 -0.1,-0.7 0.1,-0.8 0.6,-0.8 0.8,-0.9 0.3,-0.6 -0.1,-0.7 -0.3,-0.5 -0.6,-0.3 -0.9,0.3 -1.1,0.7 m -36.8,-21.1 0.3,0.2 0.3,0.6 0.1,0.4 -0.1,0.7 -0.6,1 -0.6,0.3 -0.4,0.1 -0.7,-0.1 -0.5,-0.3 -0.3,-0.6 -0.4,-1 -0.9,-4.1 -2.3,3.5 m 1.9,6.9 0.7,0.1 0.7,-0.6 0.3,-0.5 0.3,-0.9 -0.4,-1 -1.1,-1.1 -1.3,-0.8 -1.2,-0.4 -0.8,0.2 -0.7,0.5 -0.2,0.3 -0.2,0.9 0.1,0.8 0.6,0.8 0.3,0.2 0.9,0.2 0.8,-0.2 0.8,-0.6 0.1,-0.2 0.3,-0.9 -0.2,-0.9 -0.6,-0.7 m 2.5,25.4 -2.6,-1.5 -1.6,2.1 0.4,-0.1 0.9,0.2 0.8,0.5 0.6,0.7 0.2,0.8 -0.2,1 -0.3,0.5 -0.7,0.6 -0.8,0.2 -1,-0.2 -0.7,-0.5 -0.6,-0.7 -0.2,-0.4 0.1,-0.6 m 9.8,0.9 0.1,-0.7 -0.6,-0.7 -0.6,-0.3 -0.9,-0.2 -1,0.5 -1,1.1 -0.7,1.3 -0.4,1.2 0.2,0.8 0.6,0.7 0.3,0.2 0.9,0.2 0.8,-0.2 0.8,-0.7 0.1,-0.2 0.2,-1 -0.2,-0.8 -0.6,-0.7 -0.3,-0.1 -0.9,-0.2 -0.8,0.2 -0.7,0.6"
       id="nums_004"
       stroke="#000000"
       stroke-width="1" />
    <path
       d="m 1773.9,529.9 15.3,71.5 22.9,-69.5 29.1,-76.8 62.2,1.8 4.5,84.8 8.4,72.6 -64.6,4.6 59.5,25.6 -30.1,54.6 -58.5,1.7 -44.3,-38.1 29.6,50.4 -39,20.5 -51.4,-39.7 -24,-18.6 -44.7,-35.1 4.1,-49.2 -32.7,-107.3 -5.1,-79.5 1.1,-71.6 29.6,-79.3 18.9,-43.9 -17,-89.7 66.4,-63.6 54.6,31.3 -14.9,50.5 91.8,-10.1 -4.9,152.9 -80.1,-17.6 -27.7,43.6 37,-36 39.9,30.6 -20.8,24.3 30.9,-8.7 -24.5,-43.9 72.7,37.8 -41.9,92 -68.9,-35.8 55.9,53.9 -55.3,28.45 z m 185.5,-254.1 4.4,-35.9 -79.9,13.9 1.3,-153 91.2,14.3 -12.6,-51.2 56,-28.7 63.4,66.5 -21.1,88.9 16.9,44.7 25.9,80.6 -2.7,75.1 -8.7,75.5 -38.1,105.6 1.7,49.3 -46.3,32.9 -25,17.4 -53.2,37.1 -38,-22.4 32,-48.9 -7.8,-61.8 18.8,-70.7 30.1,-79.4 -53.6,31.7 -16.7,-60.1 34.9,-34 20.2,-24.4 -30.7,8 -42.3,24 -13.3,-100.3 76.6,-26.9 z"
       id="coupes_004"
       stroke="#ff0000"
       stroke-width="1.27"
       sodipodi:nodetypes="cccccccccccccccccccccccccccccccccccccccccccccccccccccccccccccccccccccccccc" />
    <path
       d="m 1732.9,306.7 -116.7,25.9 m 48.5,-123.2 95.9,53.7 m -6.8,-125.2 6.8,125.2 m -27.7,43.6 24.4,60.3 m 0,0 -141.1,-34.4 m 116.7,-25.9 56.1,18.9 m 0,0 -31.7,41.4 m 0,0 -142.2,37.2 m 142.2,-37.2 -47.8,43.4 m 0,0 48.5,38.8 m 15.9,80.7 -121,61.1 m 136.3,10.4 -136.3,-10.4 m 136.3,10.4 -10.9,61.3 m 0,0 -125.4,-71.7 m 125.4,71.7 -129.5,-22.5 m 129.5,22.5 -84.8,12.6 m 84.8,-12.6 -9.4,70.9 m -121.2,-613.9 106.1,18.2 m 35.2,187.7 37.2,77.2 m -6.3,-85.9 48.2,-6.1 m -98.2,-40.1 19.1,54.9 m 0.2,275.8 62.5,17.5 m 0,0 -73.4,43.8 m 73.4,-43.8 -29.1,81.9 m 29.1,-81.9 29.4,80.2 m -69,-167.2 39.6,87 m -10.5,-163.8 10.5,163.8 m 56.2,-77.2 -56.2,77.2 m 107.7,-343.1 145.5,40.1 m 0,0 -152.4,22.9 m 0,0 6.9,-63 m -93.2,-5.3 93.2,5.3 m -6.9,63 -86.3,-68.3 m 97.6,-30.6 141.1,76 m -141.1,-76 98.3,-49.3 m -98.3,49.3 12.6,-124.8 m 0,0 106.8,-13.4 m 19,289.3 -149.7,-52.2 m 15.2,86.8 -35.4,-62.4 M 2055.4,572.1 1937.6,505 m 117.8,67.1 -136.6,3.6 m 136.6,-3.6 -128.8,65.4 m 130.5,-16.1 -130.5,16.1 m 84.2,16.8 -84.2,-16.8 m 6,71.3 -6,-71.3"
       id="plisM_004"
       stroke="#a52a2a"
       stroke-dasharray="4" />
    <path
       d="m 1616.2,332.6 144.4,-69.5 m -114.8,-9.8 114.8,9.8 m -95.9,-53.7 89.1,-71.5 m 0,0 86.9,142.8 m -131.2,129.7 -94.4,-6.2 m 94.4,6.2 -89.3,73.3 m 137.8,-34.5 -137.8,34.5 m 153.7,46.2 -153.7,-46.2 m 158.1,179 -60.8,31.2 m 95.7,-273 -103.7,-10.5 m 4.6,-354.3 39.7,81.8 m 66.1,179 6.3,85.9 m 15,52.3 66.7,86.6 m 13.9,-194.9 -55.6,-76.3 m 97.6,-30.6 115.2,-4.6 m -102.6,-120.2 85.7,75.5 m -178.2,63.2 92.5,-138.7 m 0,0 43.4,-79.9 m 82.4,355.8 -169.9,-27.8 m 161.2,103.3 -161.2,-103.3 m 161.2,103.3 -125.8,-40.9 m -53.6,31.7 18.2,-94.1 m 161.2,103.3 -155.9,38.5 m 48.2,166.7 -59.2,-34.2"
       id="plisV_004"
       stroke="#008000"
       stroke-dasharray="4, 1, 1, 1"
       stroke-width="1.27" />
    <path
       d="m 1686.4,295.9 4,4 m 0,-4 -4,4 m 14.8,-43.7 4,4 m 0,-4 -4,4 m 6.1,-88.5 4,4 m 0,-4 -4,4 m 88,31.6 4,4 m 0,-4 -4,4 m -135,194 4,4 m 0,-4 -4,4 m 2.5,35.7 4,4 m 0,-4 -4,4 m 24.3,15.4 4,4 m 0,-4 -4,4 m 7.9,36.4 4,4 m 0,-4 -4,4 m 50.9,167.5 4,4 m 0,-4 -4,4 m 13.5,-266.7 4,4 m 0,-4 -4,4 M 1732,95 l 4,4 m 0,-4 -4,4 m 89,258.9 4,4 m 0,-4 -4,4 m 51.6,134.5 4,4 m 0,-4 -4,4 m 19.4,-193.8 4,4 m 0,-4 -4,4 m 127.4,-75 4,4 m 0,-4 -4,4 m -2.2,-88.8 4,4 m 0,-4 -4,4 m -89.1,27.7 4,4 m 0,-4 -4,4 m 68,-113.4 4,4 m 0,-4 -4,4 m 19.2,298 4,4 m 0,-4 -4,4 m -4.4,33.8 4,4 m 0,-4 -4,4 m 17.7,27.2 4,4 m 0,-4 -4,4 m -107.4,-39.8 4,4 m 0,-4 -4,4 m 92.4,71.5 4,4 m 0,-4 -4,4 m -59.4,164.8 4,4 m 0,-4 -4,4"
       id="marqueV_004"
       stroke="#008000" />
    <path
       d="m 1762.6566,424.86046 -0.8,-1.5 -2.2,-0.7 h -1.5 l -2.3,0.7 -1.5,2.3 -0.7,3.7 v 3.8 l 0.7,3 1.5,1.5 2.3,0.7 h 0.7 l 2.3,-0.7 1.5,-1.5 0.7,-2.3 v -0.7 l -0.7,-2.3 -1.5,-1.5 -2.3,-0.7 h -0.7 l -2.3,0.7 -1.5,1.5 -0.7,2.3"
       id="titre_6"
       stroke="#4b0082" />
    <path
       d="m 1976.042,310.47249 -7.5,15.7 m -3,-15.7 h 10.5"
       id="titre_7"
       stroke="#4b0082" />
  </g>
  <g
     id="page_005">
    <path
       d="m 2207.1,77.2 0.1,-0.7 -0.5,-0.8 -0.5,-0.3 -0.9,-0.3 -1,0.4 -1.1,1 -0.9,1.2 -0.5,1.2 0.2,0.8 0.5,0.8 0.3,0.2 0.9,0.3 0.8,-0.2 0.8,-0.5 0.2,-0.3 0.2,-0.9 -0.1,-0.8 -0.6,-0.8 -0.2,-0.2 -0.9,-0.3 -0.8,0.2 -0.8,0.5 m 4.6,-34.9 0.9,-6.9 m 3.1,5.6 -4,1.3 m -1.6,0.5 -3.2,1 1,-2.8 -0.8,0.3 -0.7,-0.1 -0.4,-0.2 -0.6,-0.8 -0.1,-0.5 v -1 l 0.3,-0.7 0.8,-0.6 0.9,-0.3 h 0.9 l 0.4,0.2 0.5,0.5 m 92.6,15.1 5.5,-4.2 m -1.8,6.1 -3.7,-1.9 m -0.8,-2 -0.2,0.2 -0.5,0.4 -0.4,0.2 h -0.7 l -1.1,-0.6 -0.4,-0.5 -0.1,-0.4 V 50 l 0.3,-0.5 0.5,-0.4 1,-0.6 4,-1.3 -3.7,-1.9 m 58.1,53.9 5.1,1.1 -1.9,-4.2 m -3.2,3.1 5.8,-2.5 m -8.4,-3.7 6.9,0.3 m -5.2,3.6 -1.7,-3.9 m -0.2,232.5 h -7 m 5.2,-3.8 1.8,3.8 m 162.9,-96.2 -1.1,2.7 2.4,1.3 -0.2,-0.4 0.1,-0.9 0.3,-0.8 0.6,-0.8 0.8,-0.3 h 0.9 l 0.6,0.3 0.7,0.6 0.4,0.8 -0.1,0.9 -0.3,0.8 -0.6,0.8 -0.4,0.1 -0.7,0.1 m -1.3,-10.6 4.8,5.1 m -6.3,-1.2 1.5,-3.9 m -111.1,184.7 -5.2,0.5 3,3.4 m 2.2,-3.9 -4.8,4.2 m 5.3,-1.3 0.6,0.3 1.3,0.1 -4.8,4.1 m 214.3,85.3 -0.3,0.7 0.4,0.8 0.4,0.5 0.8,0.4 1.1,-0.1 1.3,-0.8 1.1,-1 0.7,-1 0.1,-0.9 -0.4,-0.9 -0.2,-0.2 -0.8,-0.4 -0.9,-0.1 -0.9,0.4 -0.2,0.2 -0.5,0.8 v 0.9 l 0.4,0.8 0.2,0.3 0.8,0.4 0.9,0.1 0.8,-0.4 m -8.6,-3.2 5.1,-0.6 -3,-3.3 m -2.1,3.9 4.6,-4.2 m -15.7,105.3 -5.2,4.7 m 1.3,-6.3 3.9,1.6 m 4.8,1.9 -5.2,4.7 m 1.3,-6.3 3.9,1.6 m 25.8,-28 0.3,0.9 0.6,0.2 h 0.6 l 0.6,-0.3 0.3,-0.6 0.2,-1.2 0.3,-1 0.6,-0.6 0.5,-0.3 0.9,-0.1 0.6,0.3 0.4,0.3 0.3,0.9 0.1,1.2 -0.3,0.9 -0.3,0.3 -0.6,0.3 -0.9,0.1 -0.6,-0.3 -0.6,-0.6 -0.3,-0.8 -0.4,-1.2 -0.3,-0.6 -0.6,-0.3 -0.6,0.1 -0.6,0.3 -0.3,0.9 0.1,1.3 m 1.2,-3.9 -0.3,-0.6 -1,-0.9 6.3,-0.3 m -133.7,16.1 -2.8,4.4 4.5,-0.2 m -1.7,-4.2 0.3,6.3 m 2.9,-4.9 v -0.3 l 0.3,-0.6 0.2,-0.3 0.6,-0.3 1.2,-0.1 0.6,0.3 0.4,0.3 0.3,0.6 v 0.5 l -0.3,0.7 -0.5,0.9 -2.9,3.1 4.2,-0.2 m -127.8,-143 4.2,-2.9 -4.2,-1.5 m 0,4.4 2.1,-5.9 m -4.1,3.7 -0.6,0.1 -1.2,0.5 2.1,-5.9 m 37.2,269.1 -0.1,-0.3 0.3,-0.6 0.3,-0.3 0.6,-0.3 h 1.2 l 0.6,0.3 0.3,0.3 0.3,0.6 0.1,0.6 -0.3,0.6 -0.6,0.9 -2.9,3.1 4.2,-0.2 m 4.5,-6.4 -3,0.1 -0.2,2.7 0.3,-0.3 0.9,-0.3 h 0.9 l 0.9,0.2 0.6,0.6 0.3,0.9 0.1,0.6 -0.3,0.9 -0.6,0.6 -0.9,0.4 h -0.9 l -0.9,-0.3 -0.3,-0.3 -0.3,-0.6 m -51.9,-64 0.5,0.5 1.1,0.6 -6,1.8 m 6.8,2.9 0.4,-0.4 0.1,-1 -0.2,-0.6 -0.6,-0.7 -1,-0.4 -1.5,0.2 -1.5,0.4 -1,0.7 -0.4,0.7 v 1 0.3 l 0.6,0.7 0.7,0.4 1,0.1 0.3,-0.1 0.8,-0.6 0.4,-0.7 v -1 l -0.1,-0.3 -0.6,-0.7 -0.7,-0.4 -1,-0.1 m 129.1,-25.3 4.7,-2.3 -4,-2.1 m -0.7,4.4 3,-5.6 m -5,2.7 -0.2,0.3 -0.5,0.3 -0.4,0.2 -0.7,-0.1 -1,-0.5 -0.4,-0.6 -0.1,-0.4 v -0.7 l 0.3,-0.5 0.5,-0.4 1,-0.5 4,-1.2 -3.7,-2 M 2264.1,232 l 2.8,1.8 -2.9,1 0.8,0.5 0.3,0.6 0.1,0.4 -0.3,0.9 -0.3,0.5 -0.8,0.6 -0.8,0.1 -0.9,-0.2 -0.8,-0.5 -0.5,-0.8 -0.1,-0.4 0.1,-0.7 m -28.9,-74.3 -2.4,-4.5 -2,4 m 4.4,0.5 -5.6,-2.8 m 316.3,530.7 6.6,2.1 m -6,2.1 -0.6,-4.2 m -0.8,-5.1 6.7,2 m -6.1,2.1 -0.6,-4.1 m -31.4,31.5 -4.2,5.6 m 0.1,-6.4 4.1,0.8 m 2.6,0.6 -0.9,0.1 -0.4,0.5 -0.1,0.6 0.1,0.7 0.6,0.4 1.1,0.5 0.8,0.5 0.5,0.7 0.1,0.6 -0.1,0.9 -0.5,0.5 -0.3,0.3 -1,0.1 -1.1,-0.3 -0.9,-0.4 -0.2,-0.4 -0.2,-0.6 0.2,-0.9 0.4,-0.5 0.7,-0.5 1,-0.1 1.2,-0.1 0.7,-0.1 0.4,-0.6 0.1,-0.6 -0.2,-0.6 -0.8,-0.5 -1.3,-0.3 m -299.2,-20.2 0.1,-0.7 -0.6,-0.7 -0.5,-0.3 -0.9,-0.3 -1,0.4 -1.1,1.1 -0.8,1.3 -0.4,1.2 0.2,0.8 0.6,0.7 0.2,0.2 0.9,0.2 0.9,-0.1 0.7,-0.6 0.2,-0.3 0.2,-0.9 -0.2,-0.8 -0.6,-0.8 -0.2,-0.1 -0.9,-0.3 -0.9,0.2 -0.7,0.6 m -3.5,-47.8 -0.2,-5.1 -3.6,2.7 m 3.8,2.4 -3.9,-5 m 130.3,14.7 -0.2,-0.6 -0.8,-1 6.3,0.8 m -5,-5.4 -0.6,0.2 -0.4,0.9 -0.1,0.5 0.2,1 0.8,0.7 1.4,0.5 1.5,0.2 1.3,-0.1 0.6,-0.6 0.5,-0.8 v -0.3 l -0.2,-0.9 -0.5,-0.7 -0.9,-0.4 -0.3,-0.1 -0.9,0.2 -0.7,0.5 -0.4,0.9 v 0.3 l 0.2,0.9 0.5,0.7 0.8,0.4 m -47,63.3 0.5,-0.4 0.8,-1 0.9,6.3 m 3.7,-7.1 -2.9,0.4 v 2.7 l 0.3,-0.4 0.9,-0.4 0.8,-0.1 1,0.2 0.7,0.5 0.4,0.8 0.1,0.6 -0.2,1 -0.5,0.6 -0.9,0.5 -0.9,0.1 -0.9,-0.2 -0.3,-0.2 -0.4,-0.6 m -1.3,-268.8 -0.4,-7 m 4.1,5 -3.7,2 m -41.8,86.2 v 3.3 l -2.4,-1.8 v 0.9 l -0.3,0.6 -0.3,0.3 -0.9,0.3 h -0.6 l -0.9,-0.4 -0.6,-0.6 -0.3,-0.9 v -0.9 l 0.3,-0.9 0.3,-0.3 0.6,-0.3 m 270.1,-372.3 2.7,1.3 1.4,-2.4 -0.4,0.2 -0.9,-0.1 -0.8,-0.4 -0.7,-0.6 -0.3,-0.8 v -1 l 0.3,-0.5 0.6,-0.7 0.8,-0.3 1,0.1 0.8,0.3 0.7,0.7 0.1,0.4 0.1,0.6 m -10.3,1.1 2.8,1.2 1.3,-2.4 -0.4,0.2 -0.9,-0.1 -0.8,-0.4 -0.7,-0.6 -0.3,-0.8 0.1,-0.9 0.2,-0.6 0.7,-0.7 0.7,-0.3 1,0.1 0.8,0.4 0.7,0.6 0.2,0.4 v 0.7 m -60.6,26.7 -0.2,0.6 v 1.3 l -4.5,-4.4 m 1,8.3 -2.4,-6.6 m 5.3,3.6 -2.9,3 m 155.6,254.2 -0.6,0.1 -0.6,0.7 -0.2,0.6 v 1 l 0.7,0.8 1.4,0.8 1.4,0.4 1.2,0.1 0.8,-0.4 0.5,-0.8 0.1,-0.3 v -0.9 l -0.4,-0.8 -0.7,-0.5 -0.3,-0.1 h -1 l -0.7,0.4 -0.6,0.8 -0.1,0.2 v 1 l 0.4,0.7 0.8,0.6 m -2.3,-6.6 1,-3.2 1.7,2.5 0.3,-0.9 0.5,-0.5 0.3,-0.2 h 1 l 0.6,0.2 0.7,0.6 0.4,0.7 v 1 l -0.2,0.8 -0.6,0.8 -0.4,0.2 -0.6,0.1 m -40,-29.5 3.8,-3.4 -4.3,-1 m 0.5,4.4 1.4,-6.1 m -5.7,5.1 0.9,-0.1 0.8,-0.8 0.6,-1.4 0.2,-0.8 0.1,-1.6 -0.4,-1 -0.8,-0.5 -0.6,-0.1 -1,0.1 -0.7,0.7 -0.7,1.4 -0.2,0.9 v 1.5 l 0.4,1 0.8,0.5 0.4,0.1 m -165.5,-290.4 3.5,-3.9 -4.5,-0.5 m 1,4.4 0.7,-6.3 m -7,3.4 0.4,-0.9 0.7,-0.5 0.9,-0.2 0.3,0.1 0.9,0.4 0.5,0.6 0.2,0.9 v 0.3 l -0.4,0.9 -0.7,0.5 -0.9,0.2 h -0.3 l -0.9,-0.4 -0.5,-0.7 -0.2,-1.2 0.2,-1.5 0.5,-1.4 0.7,-0.9 0.9,-0.2 0.6,0.1 0.9,0.4 0.2,0.6 m 10.4,52.4 0.1,0.9 0.6,0.4 0.5,0.1 0.7,-0.1 0.4,-0.6 0.5,-1.1 0.5,-0.8 0.7,-0.5 0.6,-0.2 0.9,0.2 0.6,0.4 0.2,0.4 0.1,0.9 -0.2,1.2 -0.5,0.8 -0.3,0.2 -0.7,0.2 -0.9,-0.2 -0.5,-0.4 -0.5,-0.7 -0.1,-0.9 -0.1,-1.2 -0.1,-0.7 -0.6,-0.4 -0.6,-0.1 -0.6,0.2 -0.5,0.8 -0.2,1.3 m 154.6,125.3 3,0.1 0.4,-2.7 -0.3,0.3 -0.9,0.2 h -0.9 l -0.9,-0.3 -0.5,-0.7 -0.3,-0.9 v -0.6 l 0.4,-0.9 0.6,-0.5 0.9,-0.3 h 0.9 l 0.9,0.4 0.3,0.3 0.2,0.6 m -9.6,4.7 3.3,-6.2 m 0.9,6.4 -4.2,-0.2 m 6.5,73.1 3.1,-1.1 -0.8,2.9 0.8,-0.4 0.7,0.1 0.4,0.2 0.6,0.7 0.2,0.6 v 0.9 l -0.3,0.8 -0.8,0.6 -0.8,0.3 -1,0.1 -0.4,-0.2 -0.5,-0.5 m 4.7,-7.2 -0.8,0.6 v 0.7 l 0.2,0.6 0.5,0.4 0.6,0.1 1.3,-0.1 0.9,-0.1 0.8,0.4 0.5,0.4 0.3,0.9 -0.1,0.6 -0.2,0.4 -0.7,0.6 -1.1,0.4 -1,0.1 -0.4,-0.2 -0.4,-0.5 -0.4,-0.8 0.1,-0.7 0.4,-0.7 0.7,-0.6 1,-0.7 0.5,-0.5 0.1,-0.7 -0.3,-0.6 -0.4,-0.4 h -1 l -1.3,0.5 m 46.7,-42.5 v 3 l 2.7,0.3 -0.3,-0.3 -0.3,-0.9 v -0.9 l 0.3,-0.9 0.6,-0.6 0.9,-0.3 h 0.6 l 0.9,0.3 0.6,0.6 0.3,0.9 v 0.9 l -0.3,0.9 -0.3,0.3 -0.6,0.3 m -5.1,-6.8 0.3,0.9 0.6,0.3 h 0.6 l 0.6,-0.3 0.3,-0.6 0.3,-1.2 0.3,-0.9 0.6,-0.6 0.6,-0.3 h 0.9 l 0.6,0.3 0.3,0.3 0.3,0.9 v 1.2 l -0.3,0.9 -0.3,0.3 -0.6,0.3 h -0.9 l -0.6,-0.3 -0.6,-0.6 -0.3,-0.9 -0.3,-1.2 -0.3,-0.6 -0.6,-0.3 h -0.6 l -0.6,0.3 -0.3,0.9 v 1.3"
       id="nums_005"
       stroke="#000000"
       stroke-width="1" />
    <path
       d="m 2157.2,50.4 92.3,-30.3 100.1,50.9 19.8,45.2 56.5,6.3 -20.6,105.1 79.8,-81.3 59.3,26.3 -46.3,116.4 125.2,5.1 -0.1,64.8 -106.7,39.9 104.3,24 -17.2,54.1 33.2,36.5 5.7,112.1 -87.4,-35.7 -96.3,5 84.9,45.7 13.7,93.4 -95.2,-19.5 -76.2,1.9 -38.2,-125.1 -17.4,129.7 -75.5,10.5 -92.4,-59.6 76.3,-59 1.7,-140.8 93.3,-51.2 100.4,35.4 -69.7,-80.4 -45.1,-96.4 -116.6,-79 43.7,-85.95 z"
       id="coupes_005"
       stroke="#ff0000"
       stroke-width="1.27"
       sodipodi:nodetypes="ccccccccccccccccccccccccccccccccccc" />
    <path
       d="m 2249.5,20.1 -3,94.3 M 2349.6,71 2246.5,114.5 m 122.9,1.7 -122.9,-1.7 m 122.9,1.7 35.9,111.4 m 0,0 -85.9,51.8 m 0,0 -72.9,-164.9 m 158.8,113.1 92.8,61.4 m 0,0 -133.6,86.8 m 40.8,-148.2 139.1,-55 m -27.9,226.2 -82.3,57.4 m 63.9,-167.2 18.4,109.8 m 38.6,191 -120.9,-133.6 m 169.4,20.7 -48.5,112.9 m -38.6,-191 87.1,78.1 m 33.2,36.5 -81.7,76.4 m -96.3,5 -24.6,-138.6 m 24.6,138.6 -125,-174 m 125,174 -111,-3.6 m 0,0 -14,-170.4 m 125,174 3.4,119.6 m 0,0 -114.4,-123.2 m 195.9,49.3 -81.5,73.9 m -114.4,-123.2 -109,21.6 m 0,0 95,-192 m 14,170.4 -92.9,140.2 m 0,0 -16.1,-118.6 m 384.5,-318.7 -106.8,104.7"
       id="plisM_005"
       stroke="#a52a2a"
       stroke-dasharray="4" />
    <path
       d="M 2405.3,227.6 2246.5,114.5 m 251.6,174.5 -178.7,-9.6 m 178.7,9.6 -63.9,167.2 m 82.3,-57.4 38.6,191"
       id="plisV_005"
       stroke="#008000"
       stroke-dasharray="4, 1, 1, 1"
       stroke-width="1.27" />
    <path
       d="m 2323.9,169 4,4 m 0,-4 -4,4 m 82.8,109.2 4,4 m 0,-4 -4,4 m 57.4,84.4 4,4 m 0,-4 -4,4 m 69.7,117.7 4,4 m 0,-4 -4,4"
       id="marqueV_005"
       stroke="#008000" />
    <path
       d="m 2430.4,361.3 -2.2,0.7 -0.8,1.5 v 1.5 l 0.8,1.5 1.5,0.8 3,0.7 2.2,0.8 1.5,1.5 0.8,1.5 v 2.2 l -0.8,1.5 -0.7,0.8 -2.3,0.7 h -3 l -2.2,-0.7 -0.8,-0.8 -0.7,-1.5 v -2.2 l 0.7,-1.5 1.5,-1.5 2.3,-0.8 3,-0.7 1.5,-0.8 0.7,-1.5 v -1.5 l -0.7,-1.5 -2.3,-0.7 h -3.4"
       id="titre_8"
       stroke="#4b0082" />
  </g>
</svg>
